500 0 14 0           
7 Unknown 11 ACIS 5.0 NT 24 Thu Mar 25 22:34:05 1999 
-1 9.9999999999999995e-007 1e-010 
body $-1 $14 $-1 $15 #
body $-1 $16 $-1 $17 #
body $-1 $18 $-1 $19 #
body $-1 $20 $-1 $21 #
body $-1 $22 $-1 $23 #
body $-1 $24 $-1 $25 #
body $-1 $26 $-1 $27 #
body $-1 $28 $-1 $29 #
body $-1 $30 $-1 $31 #
body $-1 $32 $-1 $33 #
body $-1 $34 $-1 $35 #
body $-1 $36 $-1 $37 #
body $-1 $38 $-1 $39 #
body $-1 $40 $-1 $41 #
lump $-1 $-1 $42 $0 #
transform $-1 1 0 0 0 1 0 0 0 1 64.363536484878082 42.001985665532381 16.049509015852266 1 rotate no_reflect no_shear #
lump $-1 $-1 $43 $1 #
transform $-1 1 0 0 0 1 0 0 0 1 10.535941594881999 28.147597270463496 16.049509015852266 1 rotate no_reflect no_shear #
lump $-1 $-1 $44 $2 #
transform $-1 1 0 0 0 0.49999998660252726 0.86602541151947299 0 -0.86602541151947299 0.49999998660252726 29.085569666161696 -111.48091634233033 83.974607517949721 1 rotate no_reflect no_shear #
lump $-1 $-1 $45 $3 #
transform $-1 1 0 0 0 -0.49999998660252726 -0.86602541151947299 0 0.86602541151947299 -0.49999998660252726 25.651132604848396 7.8757248701746292 23.389317746907388 1 rotate no_reflect no_shear #
lump $-1 $-1 $46 $4 #
transform $-1 1 0 0 0 -0.49999998660252726 -0.86602541151947299 0 0.86602541151947299 -0.49999998660252726 32.520006727474993 7.8757248701746292 23.389317746907388 1 rotate no_reflect no_shear #
lump $-1 $-1 $47 $5 #
transform $-1 1 0 0 0 0.49999998660252726 0.86602541151947299 0 -0.86602541151947299 0.49999998660252726 55.999367111159742 -111.48091634233033 83.974607517949721 1 rotate no_reflect no_shear #
lump $-1 $-1 $48 $6 #
transform $-1 1 0 0 0 -0.49999998660252726 -0.86602541151947299 0 0.86602541151947299 -0.49999998660252726 52.564930049846438 7.8757248701746292 23.389317746907388 1 rotate no_reflect no_shear #
lump $-1 $-1 $49 $7 #
transform $-1 1 0 0 0 -0.49999998660252726 -0.86602541151947299 0 0.86602541151947299 -0.49999998660252726 59.433804172473032 7.8757248701746292 23.389317746907388 1 rotate no_reflect no_shear #
lump $-1 $-1 $50 $8 #
transform $-1 1 0 0 0 0.49999998660252726 0.86602541151947299 0 -0.86602541151947299 0.49999998660252726 82.913164556157781 -111.48091634233033 83.974607517949721 1 rotate no_reflect no_shear #
lump $-1 $-1 $51 $9 #
transform $-1 1 0 0 0 -0.49999998660252726 -0.86602541151947299 0 0.86602541151947299 -0.49999998660252726 79.478727494844478 7.8757248701746292 23.389317746907388 1 rotate no_reflect no_shear #
lump $-1 $-1 $52 $10 #
transform $-1 1 0 0 0 -0.49999998660252726 -0.86602541151947299 0 0.86602541151947299 -0.49999998660252726 86.347601617471071 7.8757248701746292 23.389317746907388 1 rotate no_reflect no_shear #
lump $-1 $-1 $53 $11 #
transform $-1 1 0 0 0 0.49999998660252726 0.86602541151947299 0 -0.86602541151947299 0.49999998660252726 109.82696200115582 -111.48091634233033 83.974607517949721 1 rotate no_reflect no_shear #
lump $-1 $-1 $54 $12 #
transform $-1 1 0 0 0 -0.49999998660252726 -0.86602541151947299 0 0.86602541151947299 -0.49999998660252726 106.39252493984252 7.8757248701746292 23.389317746907388 1 rotate no_reflect no_shear #
lump $-1 $-1 $55 $13 #
transform $-1 1 0 0 0 -0.49999998660252726 -0.86602541151947299 0 0.86602541151947299 -0.49999998660252726 113.26139906246911 7.8757248701746292 23.389317746907388 1 rotate no_reflect no_shear #
shell $-1 $-1 $-1 $56 $-1 $14 #
shell $-1 $-1 $-1 $57 $-1 $16 #
shell $-1 $-1 $-1 $58 $-1 $18 #
shell $-1 $-1 $-1 $59 $-1 $20 #
shell $-1 $-1 $-1 $60 $-1 $22 #
shell $-1 $-1 $-1 $61 $-1 $24 #
shell $-1 $-1 $-1 $62 $-1 $26 #
shell $-1 $-1 $-1 $63 $-1 $28 #
shell $-1 $-1 $-1 $64 $-1 $30 #
shell $-1 $-1 $-1 $65 $-1 $32 #
shell $-1 $-1 $-1 $66 $-1 $34 #
shell $-1 $-1 $-1 $67 $-1 $36 #
shell $-1 $-1 $-1 $68 $-1 $38 #
shell $-1 $-1 $-1 $69 $-1 $40 #
face $-1 $70 $71 $42 $-1 $72 forward single #
face $-1 $73 $74 $43 $-1 $75 forward single #
face $-1 $76 $77 $44 $-1 $78 forward single #
face $-1 $79 $80 $45 $-1 $81 forward single #
face $-1 $82 $83 $46 $-1 $84 forward single #
face $-1 $85 $86 $47 $-1 $87 forward single #
face $-1 $88 $89 $48 $-1 $90 forward single #
face $-1 $91 $92 $49 $-1 $93 forward single #
face $-1 $94 $95 $50 $-1 $96 forward single #
face $-1 $97 $98 $51 $-1 $99 forward single #
face $-1 $100 $101 $52 $-1 $102 forward single #
face $-1 $103 $104 $53 $-1 $105 forward single #
face $-1 $106 $107 $54 $-1 $108 forward single #
face $-1 $109 $110 $55 $-1 $111 forward single #
face $-1 $112 $113 $42 $-1 $114 reversed single #
loop $-1 $-1 $115 $56 #
plane-surface $-1 0 0 16.049509015852266 0 0 1 1 0 0 forward_v I I I I #
face $-1 $116 $117 $43 $-1 $118 reversed single #
loop $-1 $-1 $119 $57 #
plane-surface $-1 0 0 16.049509015852266 0 0 1 1 0 0 forward_v I I I I #
face $-1 $120 $121 $44 $-1 $122 reversed single #
loop $-1 $-1 $123 $58 #
plane-surface $-1 0 0 128.72707296975616 0 0 1 1 0 0 forward_v I I I I #
face $-1 $124 $125 $45 $-1 $126 forward single #
loop $-1 $127 $128 $59 #
cone-surface $-1 0 0 -2.9657277138584544 0 0 1 2 0 0 1 I I 0 1 2 forward I I I I #
face $-1 $129 $130 $46 $-1 $131 forward single #
loop $-1 $132 $133 $60 #
cone-surface $-1 0 0 -2.9657277138584544 0 0 1 2 0 0 1 I I 0 1 2 forward I I I I #
face $-1 $134 $135 $47 $-1 $136 reversed single #
loop $-1 $-1 $137 $61 #
plane-surface $-1 0 0 128.72707296975616 0 0 1 1 0 0 forward_v I I I I #
face $-1 $138 $139 $48 $-1 $140 forward single #
loop $-1 $141 $142 $62 #
cone-surface $-1 0 0 -2.9657277138584544 0 0 1 2 0 0 1 I I 0 1 2 forward I I I I #
face $-1 $143 $144 $49 $-1 $145 forward single #
loop $-1 $146 $147 $63 #
cone-surface $-1 0 0 -2.9657277138584544 0 0 1 2 0 0 1 I I 0 1 2 forward I I I I #
face $-1 $148 $149 $50 $-1 $150 reversed single #
loop $-1 $-1 $151 $64 #
plane-surface $-1 0 0 128.72707296975616 0 0 1 1 0 0 forward_v I I I I #
face $-1 $152 $153 $51 $-1 $154 forward single #
loop $-1 $155 $156 $65 #
cone-surface $-1 0 0 -2.9657277138584544 0 0 1 2 0 0 1 I I 0 1 2 forward I I I I #
face $-1 $157 $158 $52 $-1 $159 forward single #
loop $-1 $160 $161 $66 #
cone-surface $-1 0 0 -2.9657277138584544 0 0 1 2 0 0 1 I I 0 1 2 forward I I I I #
face $-1 $162 $163 $53 $-1 $164 reversed single #
loop $-1 $-1 $165 $67 #
plane-surface $-1 0 0 128.72707296975616 0 0 1 1 0 0 forward_v I I I I #
face $-1 $166 $167 $54 $-1 $168 forward single #
loop $-1 $169 $170 $68 #
cone-surface $-1 0 0 -2.9657277138584544 0 0 1 2 0 0 1 I I 0 1 2 forward I I I I #
face $-1 $171 $172 $55 $-1 $173 forward single #
loop $-1 $174 $175 $69 #
cone-surface $-1 0 0 -2.9657277138584544 0 0 1 2 0 0 1 I I 0 1 2 forward I I I I #
face $-1 $176 $177 $42 $-1 $178 reversed single #
loop $-1 $-1 $179 $70 #
plane-surface $-1 0 0 -16.049509015852266 0 0 1 1 0 0 forward_v I I I I #
coedge $-1 $180 $181 $182 $183 forward $71 $-1 #
face $-1 $184 $185 $43 $-1 $186 reversed single #
loop $-1 $-1 $187 $73 #
plane-surface $-1 0 0 -16.049509015852266 0 0 1 1 0 0 forward_v I I I I #
coedge $-1 $188 $189 $190 $191 forward $74 $-1 #
face $-1 $192 $193 $44 $-1 $194 reversed single #
loop $-1 $-1 $195 $76 #
plane-surface $-1 0 0 -128.72707296975616 0 0 1 1 0 0 forward_v I I I I #
coedge $-1 $196 $197 $198 $199 forward $77 $-1 #
face $-1 $-1 $200 $45 $-1 $201 forward single #
loop $-1 $-1 $202 $79 #
plane-surface $-1 0 0 -4.9314554277169096 0 0 -1 -1 0 0 forward_v I I I I #
loop $-1 $-1 $203 $59 #
coedge $-1 $128 $128 $202 $204 reversed $80 $-1 #
face $-1 $-1 $205 $46 $-1 $206 forward single #
loop $-1 $-1 $207 $82 #
plane-surface $-1 0 0 -4.9314554277169096 0 0 -1 -1 0 0 forward_v I I I I #
loop $-1 $-1 $208 $60 #
coedge $-1 $133 $133 $207 $209 reversed $83 $-1 #
face $-1 $210 $211 $47 $-1 $212 reversed single #
loop $-1 $-1 $213 $85 #
plane-surface $-1 0 0 -128.72707296975616 0 0 1 1 0 0 forward_v I I I I #
coedge $-1 $214 $215 $216 $217 forward $86 $-1 #
face $-1 $-1 $218 $48 $-1 $219 forward single #
loop $-1 $-1 $220 $88 #
plane-surface $-1 0 0 -4.9314554277169096 0 0 -1 -1 0 0 forward_v I I I I #
loop $-1 $-1 $221 $62 #
coedge $-1 $142 $142 $220 $222 reversed $89 $-1 #
face $-1 $-1 $223 $49 $-1 $224 forward single #
loop $-1 $-1 $225 $91 #
plane-surface $-1 0 0 -4.9314554277169096 0 0 -1 -1 0 0 forward_v I I I I #
loop $-1 $-1 $226 $63 #
coedge $-1 $147 $147 $225 $227 reversed $92 $-1 #
face $-1 $228 $229 $50 $-1 $230 reversed single #
loop $-1 $-1 $231 $94 #
plane-surface $-1 0 0 -128.72707296975616 0 0 1 1 0 0 forward_v I I I I #
coedge $-1 $232 $233 $234 $235 forward $95 $-1 #
face $-1 $-1 $236 $51 $-1 $237 forward single #
loop $-1 $-1 $238 $97 #
plane-surface $-1 0 0 -4.9314554277169096 0 0 -1 -1 0 0 forward_v I I I I #
loop $-1 $-1 $239 $65 #
coedge $-1 $156 $156 $238 $240 reversed $98 $-1 #
face $-1 $-1 $241 $52 $-1 $242 forward single #
loop $-1 $-1 $243 $100 #
plane-surface $-1 0 0 -4.9314554277169096 0 0 -1 -1 0 0 forward_v I I I I #
loop $-1 $-1 $244 $66 #
coedge $-1 $161 $161 $243 $245 reversed $101 $-1 #
face $-1 $246 $247 $53 $-1 $248 reversed single #
loop $-1 $-1 $249 $103 #
plane-surface $-1 0 0 -128.72707296975616 0 0 1 1 0 0 forward_v I I I I #
coedge $-1 $250 $251 $252 $253 forward $104 $-1 #
face $-1 $-1 $254 $54 $-1 $255 forward single #
loop $-1 $-1 $256 $106 #
plane-surface $-1 0 0 -4.9314554277169096 0 0 -1 -1 0 0 forward_v I I I I #
loop $-1 $-1 $257 $68 #
coedge $-1 $170 $170 $256 $258 reversed $107 $-1 #
face $-1 $-1 $259 $55 $-1 $260 forward single #
loop $-1 $-1 $261 $109 #
plane-surface $-1 0 0 -4.9314554277169096 0 0 -1 -1 0 0 forward_v I I I I #
loop $-1 $-1 $262 $69 #
coedge $-1 $175 $175 $261 $263 reversed $110 $-1 #
face $-1 $264 $265 $42 $-1 $266 reversed single #
loop $-1 $-1 $267 $112 #
plane-surface $-1 0 -42.001985665532381 0 0 1 0 0 0 1 forward_v I I I I #
coedge $-1 $268 $269 $270 $271 forward $113 $-1 #
coedge $-1 $272 $115 $273 $274 forward $71 $-1 #
coedge $-1 $115 $272 $275 $276 forward $71 $-1 #
coedge $-1 $277 $278 $115 $183 reversed $279 $-1 #
edge $-1 $280 -42.001985665532381 $281 42.001985665532381 $182 $282 forward 7 unknown #
face $-1 $283 $284 $43 $-1 $285 reversed single #
loop $-1 $-1 $286 $116 #
plane-surface $-1 0 -3.9514207612410353 0 0 1 0 0 0 1 forward_v I I I I #
coedge $-1 $287 $288 $289 $290 forward $117 $-1 #
coedge $-1 $291 $119 $292 $293 forward $74 $-1 #
coedge $-1 $119 $291 $294 $295 forward $74 $-1 #
coedge $-1 $296 $297 $119 $191 reversed $298 $-1 #
edge $-1 $299 -3.9514207612410353 $300 3.9514207612410353 $190 $301 forward 7 unknown #
face $-1 $302 $303 $44 $-1 $304 reversed single #
loop $-1 $-1 $305 $120 #
plane-surface $-1 0 -257.45414593951233 0 0 1 0 0 0 1 forward_v I I I I #
coedge $-1 $306 $307 $308 $309 forward $121 $-1 #
coedge $-1 $310 $123 $311 $312 forward $77 $-1 #
coedge $-1 $123 $310 $313 $314 forward $77 $-1 #
coedge $-1 $315 $316 $123 $199 reversed $317 $-1 #
edge $-1 $318 -257.45414593951233 $319 257.45414593951233 $198 $320 forward 7 unknown #
loop $-1 $321 $322 $124 #
cone-surface $-1 0 0 0 0 0 1 1 0 0 1 I I -0.70710678118654746 0.70710678118654746 1 forward I I I I #
coedge $-1 $202 $202 $128 $204 forward $125 $-1 #
coedge $-1 $203 $203 $322 $323 forward $127 $-1 #
edge $-1 $324 0 $324 6.2831853071796004 $202 $325 forward 7 unknown #
loop $-1 $326 $327 $129 #
cone-surface $-1 0 0 0 0 0 1 1 0 0 1 I I -0.70710678118654746 0.70710678118654746 1 forward I I I I #
coedge $-1 $207 $207 $133 $209 forward $130 $-1 #
coedge $-1 $208 $208 $327 $328 forward $132 $-1 #
edge $-1 $329 0 $329 6.2831853071796004 $207 $330 forward 7 unknown #
face $-1 $331 $332 $47 $-1 $333 reversed single #
loop $-1 $-1 $334 $134 #
plane-surface $-1 0 -257.45414593951233 0 0 1 0 0 0 1 forward_v I I I I #
coedge $-1 $335 $336 $337 $338 forward $135 $-1 #
coedge $-1 $339 $137 $340 $341 forward $86 $-1 #
coedge $-1 $137 $339 $342 $343 forward $86 $-1 #
coedge $-1 $344 $345 $137 $217 reversed $346 $-1 #
edge $-1 $347 -257.45414593951233 $348 257.45414593951233 $216 $349 forward 7 unknown #
loop $-1 $350 $351 $138 #
cone-surface $-1 0 0 0 0 0 1 1 0 0 1 I I -0.70710678118654746 0.70710678118654746 1 forward I I I I #
coedge $-1 $220 $220 $142 $222 forward $139 $-1 #
coedge $-1 $221 $221 $351 $352 forward $141 $-1 #
edge $-1 $353 0 $353 6.2831853071796004 $220 $354 forward 7 unknown #
loop $-1 $355 $356 $143 #
cone-surface $-1 0 0 0 0 0 1 1 0 0 1 I I -0.70710678118654746 0.70710678118654746 1 forward I I I I #
coedge $-1 $225 $225 $147 $227 forward $144 $-1 #
coedge $-1 $226 $226 $356 $357 forward $146 $-1 #
edge $-1 $358 0 $358 6.2831853071796004 $225 $359 forward 7 unknown #
face $-1 $360 $361 $50 $-1 $362 reversed single #
loop $-1 $-1 $363 $148 #
plane-surface $-1 0 -257.45414593951233 0 0 1 0 0 0 1 forward_v I I I I #
coedge $-1 $364 $365 $366 $367 forward $149 $-1 #
coedge $-1 $368 $151 $369 $370 forward $95 $-1 #
coedge $-1 $151 $368 $371 $372 forward $95 $-1 #
coedge $-1 $373 $374 $151 $235 reversed $375 $-1 #
edge $-1 $376 -257.45414593951233 $377 257.45414593951233 $234 $378 forward 7 unknown #
loop $-1 $379 $380 $152 #
cone-surface $-1 0 0 0 0 0 1 1 0 0 1 I I -0.70710678118654746 0.70710678118654746 1 forward I I I I #
coedge $-1 $238 $238 $156 $240 forward $153 $-1 #
coedge $-1 $239 $239 $380 $381 forward $155 $-1 #
edge $-1 $382 0 $382 6.2831853071796004 $238 $383 forward 7 unknown #
loop $-1 $384 $385 $157 #
cone-surface $-1 0 0 0 0 0 1 1 0 0 1 I I -0.70710678118654746 0.70710678118654746 1 forward I I I I #
coedge $-1 $243 $243 $161 $245 forward $158 $-1 #
coedge $-1 $244 $244 $385 $386 forward $160 $-1 #
edge $-1 $387 0 $387 6.2831853071796004 $243 $388 forward 7 unknown #
face $-1 $389 $390 $53 $-1 $391 reversed single #
loop $-1 $-1 $392 $162 #
plane-surface $-1 0 -257.45414593951233 0 0 1 0 0 0 1 forward_v I I I I #
coedge $-1 $393 $394 $395 $396 forward $163 $-1 #
coedge $-1 $397 $165 $398 $399 forward $104 $-1 #
coedge $-1 $165 $397 $400 $401 forward $104 $-1 #
coedge $-1 $402 $403 $165 $253 reversed $404 $-1 #
edge $-1 $405 -257.45414593951233 $406 257.45414593951233 $252 $407 forward 7 unknown #
loop $-1 $408 $409 $166 #
cone-surface $-1 0 0 0 0 0 1 1 0 0 1 I I -0.70710678118654746 0.70710678118654746 1 forward I I I I #
coedge $-1 $256 $256 $170 $258 forward $167 $-1 #
coedge $-1 $257 $257 $409 $410 forward $169 $-1 #
edge $-1 $411 0 $411 6.2831853071796004 $256 $412 forward 7 unknown #
loop $-1 $413 $414 $171 #
cone-surface $-1 0 0 0 0 0 1 1 0 0 1 I I -0.70710678118654746 0.70710678118654746 1 forward I I I I #
coedge $-1 $261 $261 $175 $263 forward $172 $-1 #
coedge $-1 $262 $262 $414 $415 forward $174 $-1 #
edge $-1 $416 0 $416 6.2831853071796004 $261 $417 forward 7 unknown #
face $-1 $418 $419 $42 $-1 $420 reversed single #
loop $-1 $-1 $421 $176 #
plane-surface $-1 -64.363536484878082 0 0 1 0 0 0 0 -1 forward_v I I I I #
coedge $-1 $422 $275 $423 $424 forward $177 $-1 #
coedge $-1 $425 $179 $422 $426 forward $113 $-1 #
coedge $-1 $179 $425 $427 $428 forward $113 $-1 #
coedge $-1 $278 $277 $179 $271 reversed $279 $-1 #
edge $-1 $429 -42.001985665532381 $430 42.001985665532381 $270 $431 forward 7 unknown #
coedge $-1 $181 $180 $432 $433 forward $71 $-1 #
coedge $-1 $434 $435 $180 $274 reversed $419 $-1 #
edge $-1 $281 -64.363536484878082 $436 64.363536484878082 $273 $437 forward 7 unknown #
coedge $-1 $267 $438 $181 $276 reversed $177 $-1 #
edge $-1 $439 -64.363536484878082 $280 64.363536484878082 $275 $440 forward 7 unknown #
coedge $-1 $270 $182 $438 $441 forward $279 $-1 #
coedge $-1 $182 $270 $434 $442 reversed $279 $-1 #
loop $-1 $-1 $277 $418 #
vertex $-1 $183 $443 #
vertex $-1 $183 $444 #
straight-curve $-1 64.363536484878082 0 16.049509015852266 0 1 0 I I #
face $-1 $445 $446 $43 $-1 $447 reversed single #
loop $-1 $-1 $448 $184 #
plane-surface $-1 -10.535941594881999 0 0 1 0 0 0 0 -1 forward_v I I I I #
coedge $-1 $449 $294 $450 $451 forward $185 $-1 #
coedge $-1 $452 $187 $449 $453 forward $117 $-1 #
coedge $-1 $187 $452 $454 $455 forward $117 $-1 #
coedge $-1 $297 $296 $187 $290 reversed $298 $-1 #
edge $-1 $456 -3.9514207612410353 $457 3.9514207612410353 $289 $458 forward 7 unknown #
coedge $-1 $189 $188 $459 $460 forward $74 $-1 #
coedge $-1 $461 $462 $188 $293 reversed $446 $-1 #
edge $-1 $300 -10.535941594881999 $463 10.535941594881999 $292 $464 forward 7 unknown #
coedge $-1 $286 $465 $189 $295 reversed $185 $-1 #
edge $-1 $466 -10.535941594881999 $299 10.535941594881999 $294 $467 forward 7 unknown #
coedge $-1 $289 $190 $465 $468 forward $298 $-1 #
coedge $-1 $190 $289 $461 $469 reversed $298 $-1 #
loop $-1 $-1 $296 $445 #
vertex $-1 $191 $470 #
vertex $-1 $191 $471 #
straight-curve $-1 10.535941594881999 0 16.049509015852266 0 1 0 I I #
face $-1 $472 $473 $44 $-1 $474 reversed single #
loop $-1 $-1 $475 $192 #
plane-surface $-1 -8.0136864763976998 0 0 1 0 0 0 0 -1 forward_v I I I I #
coedge $-1 $476 $313 $477 $478 forward $193 $-1 #
coedge $-1 $479 $195 $476 $480 forward $121 $-1 #
coedge $-1 $195 $479 $481 $482 forward $121 $-1 #
coedge $-1 $316 $315 $195 $309 reversed $317 $-1 #
edge $-1 $483 -257.45414593951233 $484 257.45414593951233 $308 $485 forward 7 unknown #
coedge $-1 $197 $196 $486 $487 forward $77 $-1 #
coedge $-1 $488 $489 $196 $312 reversed $473 $-1 #
edge $-1 $319 -8.0136864763976998 $490 8.0136864763976998 $311 $491 forward 7 unknown #
coedge $-1 $305 $492 $197 $314 reversed $193 $-1 #
edge $-1 $493 -8.0136864763976998 $318 8.0136864763976998 $313 $494 forward 7 unknown #
coedge $-1 $308 $198 $492 $495 forward $317 $-1 #
coedge $-1 $198 $308 $488 $496 reversed $317 $-1 #
loop $-1 $-1 $315 $472 #
vertex $-1 $199 $497 #
vertex $-1 $199 $498 #
straight-curve $-1 8.0136864763976998 0 128.72707296975616 0 1 0 I I #
loop $-1 $-1 $499 $124 #
coedge $-1 $322 $322 $203 $323 reversed $200 $-1 #
edge $-1 $500 0 $500 6.2831853071796004 $322 $501 forward 7 unknown #
vertex $-1 $204 $502 #
ellipse-curve $-1 0 0 -4.9314554277169096 0 0 -1 2 0 0 1 I I #
loop $-1 $-1 $503 $129 #
coedge $-1 $327 $327 $208 $328 reversed $205 $-1 #
edge $-1 $504 0 $504 6.2831853071796004 $327 $505 forward 7 unknown #
vertex $-1 $209 $506 #
ellipse-curve $-1 0 0 -4.9314554277169096 0 0 -1 2 0 0 1 I I #
face $-1 $507 $508 $47 $-1 $509 reversed single #
loop $-1 $-1 $510 $210 #
plane-surface $-1 -8.0136864763976998 0 0 1 0 0 0 0 -1 forward_v I I I I #
coedge $-1 $511 $342 $512 $513 forward $211 $-1 #
coedge $-1 $514 $213 $511 $515 forward $135 $-1 #
coedge $-1 $213 $514 $516 $517 forward $135 $-1 #
coedge $-1 $345 $344 $213 $338 reversed $346 $-1 #
edge $-1 $518 -257.45414593951233 $519 257.45414593951233 $337 $520 forward 7 unknown #
coedge $-1 $215 $214 $521 $522 forward $86 $-1 #
coedge $-1 $523 $524 $214 $341 reversed $508 $-1 #
edge $-1 $348 -8.0136864763976998 $525 8.0136864763976998 $340 $526 forward 7 unknown #
coedge $-1 $334 $527 $215 $343 reversed $211 $-1 #
edge $-1 $528 -8.0136864763976998 $347 8.0136864763976998 $342 $529 forward 7 unknown #
coedge $-1 $337 $216 $527 $530 forward $346 $-1 #
coedge $-1 $216 $337 $523 $531 reversed $346 $-1 #
loop $-1 $-1 $344 $507 #
vertex $-1 $217 $532 #
vertex $-1 $217 $533 #
straight-curve $-1 8.0136864763976998 0 128.72707296975616 0 1 0 I I #
loop $-1 $-1 $534 $138 #
coedge $-1 $351 $351 $221 $352 reversed $218 $-1 #
edge $-1 $535 0 $535 6.2831853071796004 $351 $536 forward 7 unknown #
vertex $-1 $222 $537 #
ellipse-curve $-1 0 0 -4.9314554277169096 0 0 -1 2 0 0 1 I I #
loop $-1 $-1 $538 $143 #
coedge $-1 $356 $356 $226 $357 reversed $223 $-1 #
edge $-1 $539 0 $539 6.2831853071796004 $356 $540 forward 7 unknown #
vertex $-1 $227 $541 #
ellipse-curve $-1 0 0 -4.9314554277169096 0 0 -1 2 0 0 1 I I #
face $-1 $542 $543 $50 $-1 $544 reversed single #
loop $-1 $-1 $545 $228 #
plane-surface $-1 -8.0136864763976998 0 0 1 0 0 0 0 -1 forward_v I I I I #
coedge $-1 $546 $371 $547 $548 forward $229 $-1 #
coedge $-1 $549 $231 $546 $550 forward $149 $-1 #
coedge $-1 $231 $549 $551 $552 forward $149 $-1 #
coedge $-1 $374 $373 $231 $367 reversed $375 $-1 #
edge $-1 $553 -257.45414593951233 $554 257.45414593951233 $366 $555 forward 7 unknown #
coedge $-1 $233 $232 $556 $557 forward $95 $-1 #
coedge $-1 $558 $559 $232 $370 reversed $543 $-1 #
edge $-1 $377 -8.0136864763976998 $560 8.0136864763976998 $369 $561 forward 7 unknown #
coedge $-1 $363 $562 $233 $372 reversed $229 $-1 #
edge $-1 $563 -8.0136864763976998 $376 8.0136864763976998 $371 $564 forward 7 unknown #
coedge $-1 $366 $234 $562 $565 forward $375 $-1 #
coedge $-1 $234 $366 $558 $566 reversed $375 $-1 #
loop $-1 $-1 $373 $542 #
vertex $-1 $235 $567 #
vertex $-1 $235 $568 #
straight-curve $-1 8.0136864763976998 0 128.72707296975616 0 1 0 I I #
loop $-1 $-1 $569 $152 #
coedge $-1 $380 $380 $239 $381 reversed $236 $-1 #
edge $-1 $570 0 $570 6.2831853071796004 $380 $571 forward 7 unknown #
vertex $-1 $240 $572 #
ellipse-curve $-1 0 0 -4.9314554277169096 0 0 -1 2 0 0 1 I I #
loop $-1 $-1 $573 $157 #
coedge $-1 $385 $385 $244 $386 reversed $241 $-1 #
edge $-1 $574 0 $574 6.2831853071796004 $385 $575 forward 7 unknown #
vertex $-1 $245 $576 #
ellipse-curve $-1 0 0 -4.9314554277169096 0 0 -1 2 0 0 1 I I #
face $-1 $577 $578 $53 $-1 $579 reversed single #
loop $-1 $-1 $580 $246 #
plane-surface $-1 -8.0136864763976998 0 0 1 0 0 0 0 -1 forward_v I I I I #
coedge $-1 $581 $400 $582 $583 forward $247 $-1 #
coedge $-1 $584 $249 $581 $585 forward $163 $-1 #
coedge $-1 $249 $584 $586 $587 forward $163 $-1 #
coedge $-1 $403 $402 $249 $396 reversed $404 $-1 #
edge $-1 $588 -257.45414593951233 $589 257.45414593951233 $395 $590 forward 7 unknown #
coedge $-1 $251 $250 $591 $592 forward $104 $-1 #
coedge $-1 $593 $594 $250 $399 reversed $578 $-1 #
edge $-1 $406 -8.0136864763976998 $595 8.0136864763976998 $398 $596 forward 7 unknown #
coedge $-1 $392 $597 $251 $401 reversed $247 $-1 #
edge $-1 $598 -8.0136864763976998 $405 8.0136864763976998 $400 $599 forward 7 unknown #
coedge $-1 $395 $252 $597 $600 forward $404 $-1 #
coedge $-1 $252 $395 $593 $601 reversed $404 $-1 #
loop $-1 $-1 $402 $577 #
vertex $-1 $253 $602 #
vertex $-1 $253 $603 #
straight-curve $-1 8.0136864763976998 0 128.72707296975616 0 1 0 I I #
loop $-1 $-1 $604 $166 #
coedge $-1 $409 $409 $257 $410 reversed $254 $-1 #
edge $-1 $605 0 $605 6.2831853071796004 $409 $606 forward 7 unknown #
vertex $-1 $258 $607 #
ellipse-curve $-1 0 0 -4.9314554277169096 0 0 -1 2 0 0 1 I I #
loop $-1 $-1 $608 $171 #
coedge $-1 $414 $414 $262 $415 reversed $259 $-1 #
edge $-1 $609 0 $609 6.2831853071796004 $414 $610 forward 7 unknown #
vertex $-1 $263 $611 #
ellipse-curve $-1 0 0 -4.9314554277169096 0 0 -1 2 0 0 1 I I #
face $-1 $-1 $279 $42 $-1 $612 reversed single #
loop $-1 $-1 $434 $264 #
plane-surface $-1 0 42.001985665532381 0 0 -1 0 0 0 -1 forward_v I I I I #
coedge $-1 $613 $432 $435 $614 forward $265 $-1 #
coedge $-1 $438 $267 $268 $426 reversed $177 $-1 #
coedge $-1 $432 $613 $267 $424 reversed $265 $-1 #
edge $-1 $439 -16.049509015852266 $615 16.049509015852266 $423 $616 forward 7 unknown #
coedge $-1 $269 $268 $613 $617 forward $113 $-1 #
edge $-1 $430 -64.363536484878082 $615 64.363536484878082 $422 $618 forward 7 unknown #
coedge $-1 $435 $434 $269 $428 reversed $419 $-1 #
edge $-1 $619 -64.363536484878082 $429 64.363536484878082 $427 $620 forward 7 unknown #
vertex $-1 $271 $621 #
vertex $-1 $441 $622 #
straight-curve $-1 64.363536484878082 0 -16.049509015852266 0 -1 0 I I #
coedge $-1 $421 $423 $272 $433 reversed $265 $-1 #
edge $-1 $436 -42.001985665532381 $439 42.001985665532381 $432 $623 forward 7 unknown #
coedge $-1 $427 $273 $278 $442 forward $419 $-1 #
coedge $-1 $273 $427 $421 $614 reversed $419 $-1 #
vertex $-1 $274 $624 #
straight-curve $-1 0 42.001985665532381 16.049509015852266 -1 0 0 I I #
coedge $-1 $275 $422 $277 $441 reversed $177 $-1 #
vertex $-1 $433 $625 #
straight-curve $-1 0 -42.001985665532381 16.049509015852266 1 0 0 I I #
edge $-1 $280 -16.049509015852266 $430 16.049509015852266 $277 $626 forward 7 unknown #
edge $-1 $281 -16.049509015852266 $429 16.049509015852266 $278 $627 forward 7 unknown #
point $-1 64.363536484878082 -42.001985665532381 16.049509015852266 #
point $-1 64.363536484878082 42.001985665532381 16.049509015852266 #
face $-1 $-1 $298 $43 $-1 $628 reversed single #
loop $-1 $-1 $461 $283 #
plane-surface $-1 0 3.9514207612410353 0 0 -1 0 0 0 -1 forward_v I I I I #
coedge $-1 $629 $459 $462 $630 forward $284 $-1 #
coedge $-1 $465 $286 $287 $453 reversed $185 $-1 #
coedge $-1 $459 $629 $286 $451 reversed $284 $-1 #
edge $-1 $466 -16.049509015852266 $631 16.049509015852266 $450 $632 forward 7 unknown #
coedge $-1 $288 $287 $629 $633 forward $117 $-1 #
edge $-1 $457 -10.535941594881999 $631 10.535941594881999 $449 $634 forward 7 unknown #
coedge $-1 $462 $461 $288 $455 reversed $446 $-1 #
edge $-1 $635 -10.535941594881999 $456 10.535941594881999 $454 $636 forward 7 unknown #
vertex $-1 $290 $637 #
vertex $-1 $468 $638 #
straight-curve $-1 10.535941594881999 0 -16.049509015852266 0 -1 0 I I #
coedge $-1 $448 $450 $291 $460 reversed $284 $-1 #
edge $-1 $463 -3.9514207612410353 $466 3.9514207612410353 $459 $639 forward 7 unknown #
coedge $-1 $454 $292 $297 $469 forward $446 $-1 #
coedge $-1 $292 $454 $448 $630 reversed $446 $-1 #
vertex $-1 $293 $640 #
straight-curve $-1 0 3.9514207612410353 16.049509015852266 -1 0 0 I I #
coedge $-1 $294 $449 $296 $468 reversed $185 $-1 #
vertex $-1 $460 $641 #
straight-curve $-1 0 -3.9514207612410353 16.049509015852266 1 0 0 I I #
edge $-1 $299 -16.049509015852266 $457 16.049509015852266 $296 $642 forward 7 unknown #
edge $-1 $300 -16.049509015852266 $456 16.049509015852266 $297 $643 forward 7 unknown #
point $-1 10.535941594881999 -3.9514207612410353 16.049509015852266 #
point $-1 10.535941594881999 3.9514207612410353 16.049509015852266 #
face $-1 $-1 $317 $44 $-1 $644 reversed single #
loop $-1 $-1 $488 $302 #
plane-surface $-1 0 257.45414593951233 0 0 -1 0 0 0 -1 forward_v I I I I #
coedge $-1 $645 $486 $489 $646 forward $303 $-1 #
coedge $-1 $492 $305 $306 $480 reversed $193 $-1 #
coedge $-1 $486 $645 $305 $478 reversed $303 $-1 #
edge $-1 $493 -128.72707296975616 $647 128.72707296975616 $477 $648 forward 7 unknown #
coedge $-1 $307 $306 $645 $649 forward $121 $-1 #
edge $-1 $484 -8.0136864763976998 $647 8.0136864763976998 $476 $650 forward 7 unknown #
coedge $-1 $489 $488 $307 $482 reversed $473 $-1 #
edge $-1 $651 -8.0136864763976998 $483 8.0136864763976998 $481 $652 forward 7 unknown #
vertex $-1 $309 $653 #
vertex $-1 $495 $654 #
straight-curve $-1 8.0136864763976998 0 -128.72707296975616 0 -1 0 I I #
coedge $-1 $475 $477 $310 $487 reversed $303 $-1 #
edge $-1 $490 -257.45414593951233 $493 257.45414593951233 $486 $655 forward 7 unknown #
coedge $-1 $481 $311 $316 $496 forward $473 $-1 #
coedge $-1 $311 $481 $475 $646 reversed $473 $-1 #
vertex $-1 $312 $656 #
straight-curve $-1 0 257.45414593951233 128.72707296975616 -1 0 0 I I #
coedge $-1 $313 $476 $315 $495 reversed $193 $-1 #
vertex $-1 $487 $657 #
straight-curve $-1 0 -257.45414593951233 128.72707296975616 1 0 0 I I #
edge $-1 $318 -128.72707296975616 $484 128.72707296975616 $315 $658 forward 7 unknown #
edge $-1 $319 -128.72707296975616 $483 128.72707296975616 $316 $659 forward 7 unknown #
point $-1 8.0136864763976998 -257.45414593951233 128.72707296975616 #
point $-1 8.0136864763976998 257.45414593951233 128.72707296975616 #
coedge $-1 $499 $499 $-1 $660 reversed $321 $-1 #
vertex $-1 $323 $661 #
ellipse-curve $-1 0 0 -1 0 0 -1 2 0 0 1 I I #
point $-1 2 0 -4.9314554277169096 #
coedge $-1 $503 $503 $-1 $662 reversed $326 $-1 #
vertex $-1 $328 $663 #
ellipse-curve $-1 0 0 -1 0 0 -1 2 0 0 1 I I #
point $-1 2 0 -4.9314554277169096 #
face $-1 $-1 $346 $47 $-1 $664 reversed single #
loop $-1 $-1 $523 $331 #
plane-surface $-1 0 257.45414593951233 0 0 -1 0 0 0 -1 forward_v I I I I #
coedge $-1 $665 $521 $524 $666 forward $332 $-1 #
coedge $-1 $527 $334 $335 $515 reversed $211 $-1 #
coedge $-1 $521 $665 $334 $513 reversed $332 $-1 #
edge $-1 $528 -128.72707296975616 $667 128.72707296975616 $512 $668 forward 7 unknown #
coedge $-1 $336 $335 $665 $669 forward $135 $-1 #
edge $-1 $519 -8.0136864763976998 $667 8.0136864763976998 $511 $670 forward 7 unknown #
coedge $-1 $524 $523 $336 $517 reversed $508 $-1 #
edge $-1 $671 -8.0136864763976998 $518 8.0136864763976998 $516 $672 forward 7 unknown #
vertex $-1 $338 $673 #
vertex $-1 $530 $674 #
straight-curve $-1 8.0136864763976998 0 -128.72707296975616 0 -1 0 I I #
coedge $-1 $510 $512 $339 $522 reversed $332 $-1 #
edge $-1 $525 -257.45414593951233 $528 257.45414593951233 $521 $675 forward 7 unknown #
coedge $-1 $516 $340 $345 $531 forward $508 $-1 #
coedge $-1 $340 $516 $510 $666 reversed $508 $-1 #
vertex $-1 $341 $676 #
straight-curve $-1 0 257.45414593951233 128.72707296975616 -1 0 0 I I #
coedge $-1 $342 $511 $344 $530 reversed $211 $-1 #
vertex $-1 $522 $677 #
straight-curve $-1 0 -257.45414593951233 128.72707296975616 1 0 0 I I #
edge $-1 $347 -128.72707296975616 $519 128.72707296975616 $344 $678 forward 7 unknown #
edge $-1 $348 -128.72707296975616 $518 128.72707296975616 $345 $679 forward 7 unknown #
point $-1 8.0136864763976998 -257.45414593951233 128.72707296975616 #
point $-1 8.0136864763976998 257.45414593951233 128.72707296975616 #
coedge $-1 $534 $534 $-1 $680 reversed $350 $-1 #
vertex $-1 $352 $681 #
ellipse-curve $-1 0 0 -1 0 0 -1 2 0 0 1 I I #
point $-1 2 0 -4.9314554277169096 #
coedge $-1 $538 $538 $-1 $682 reversed $355 $-1 #
vertex $-1 $357 $683 #
ellipse-curve $-1 0 0 -1 0 0 -1 2 0 0 1 I I #
point $-1 2 0 -4.9314554277169096 #
face $-1 $-1 $375 $50 $-1 $684 reversed single #
loop $-1 $-1 $558 $360 #
plane-surface $-1 0 257.45414593951233 0 0 -1 0 0 0 -1 forward_v I I I I #
coedge $-1 $685 $556 $559 $686 forward $361 $-1 #
coedge $-1 $562 $363 $364 $550 reversed $229 $-1 #
coedge $-1 $556 $685 $363 $548 reversed $361 $-1 #
edge $-1 $563 -128.72707296975616 $687 128.72707296975616 $547 $688 forward 7 unknown #
coedge $-1 $365 $364 $685 $689 forward $149 $-1 #
edge $-1 $554 -8.0136864763976998 $687 8.0136864763976998 $546 $690 forward 7 unknown #
coedge $-1 $559 $558 $365 $552 reversed $543 $-1 #
edge $-1 $691 -8.0136864763976998 $553 8.0136864763976998 $551 $692 forward 7 unknown #
vertex $-1 $367 $693 #
vertex $-1 $565 $694 #
straight-curve $-1 8.0136864763976998 0 -128.72707296975616 0 -1 0 I I #
coedge $-1 $545 $547 $368 $557 reversed $361 $-1 #
edge $-1 $560 -257.45414593951233 $563 257.45414593951233 $556 $695 forward 7 unknown #
coedge $-1 $551 $369 $374 $566 forward $543 $-1 #
coedge $-1 $369 $551 $545 $686 reversed $543 $-1 #
vertex $-1 $370 $696 #
straight-curve $-1 0 257.45414593951233 128.72707296975616 -1 0 0 I I #
coedge $-1 $371 $546 $373 $565 reversed $229 $-1 #
vertex $-1 $557 $697 #
straight-curve $-1 0 -257.45414593951233 128.72707296975616 1 0 0 I I #
edge $-1 $376 -128.72707296975616 $554 128.72707296975616 $373 $698 forward 7 unknown #
edge $-1 $377 -128.72707296975616 $553 128.72707296975616 $374 $699 forward 7 unknown #
point $-1 8.0136864763976998 -257.45414593951233 128.72707296975616 #
point $-1 8.0136864763976998 257.45414593951233 128.72707296975616 #
coedge $-1 $569 $569 $-1 $700 reversed $379 $-1 #
vertex $-1 $381 $701 #
ellipse-curve $-1 0 0 -1 0 0 -1 2 0 0 1 I I #
point $-1 2 0 -4.9314554277169096 #
coedge $-1 $573 $573 $-1 $702 reversed $384 $-1 #
vertex $-1 $386 $703 #
ellipse-curve $-1 0 0 -1 0 0 -1 2 0 0 1 I I #
point $-1 2 0 -4.9314554277169096 #
face $-1 $-1 $404 $53 $-1 $704 reversed single #
loop $-1 $-1 $593 $389 #
plane-surface $-1 0 257.45414593951233 0 0 -1 0 0 0 -1 forward_v I I I I #
coedge $-1 $705 $591 $594 $706 forward $390 $-1 #
coedge $-1 $597 $392 $393 $585 reversed $247 $-1 #
coedge $-1 $591 $705 $392 $583 reversed $390 $-1 #
edge $-1 $598 -128.72707296975616 $707 128.72707296975616 $582 $708 forward 7 unknown #
coedge $-1 $394 $393 $705 $709 forward $163 $-1 #
edge $-1 $589 -8.0136864763976998 $707 8.0136864763976998 $581 $710 forward 7 unknown #
coedge $-1 $594 $593 $394 $587 reversed $578 $-1 #
edge $-1 $711 -8.0136864763976998 $588 8.0136864763976998 $586 $712 forward 7 unknown #
vertex $-1 $396 $713 #
vertex $-1 $600 $714 #
straight-curve $-1 8.0136864763976998 0 -128.72707296975616 0 -1 0 I I #
coedge $-1 $580 $582 $397 $592 reversed $390 $-1 #
edge $-1 $595 -257.45414593951233 $598 257.45414593951233 $591 $715 forward 7 unknown #
coedge $-1 $586 $398 $403 $601 forward $578 $-1 #
coedge $-1 $398 $586 $580 $706 reversed $578 $-1 #
vertex $-1 $399 $716 #
straight-curve $-1 0 257.45414593951233 128.72707296975616 -1 0 0 I I #
coedge $-1 $400 $581 $402 $600 reversed $247 $-1 #
vertex $-1 $592 $717 #
straight-curve $-1 0 -257.45414593951233 128.72707296975616 1 0 0 I I #
edge $-1 $405 -128.72707296975616 $589 128.72707296975616 $402 $718 forward 7 unknown #
edge $-1 $406 -128.72707296975616 $588 128.72707296975616 $403 $719 forward 7 unknown #
point $-1 8.0136864763976998 -257.45414593951233 128.72707296975616 #
point $-1 8.0136864763976998 257.45414593951233 128.72707296975616 #
coedge $-1 $604 $604 $-1 $720 reversed $408 $-1 #
vertex $-1 $410 $721 #
ellipse-curve $-1 0 0 -1 0 0 -1 2 0 0 1 I I #
point $-1 2 0 -4.9314554277169096 #
coedge $-1 $608 $608 $-1 $722 reversed $413 $-1 #
vertex $-1 $415 $723 #
ellipse-curve $-1 0 0 -1 0 0 -1 2 0 0 1 I I #
point $-1 2 0 -4.9314554277169096 #
plane-surface $-1 64.363536484878082 0 0 -1 0 0 0 0 1 forward_v I I I I #
coedge $-1 $423 $421 $425 $617 reversed $265 $-1 #
edge $-1 $436 -16.049509015852266 $619 16.049509015852266 $435 $724 forward 7 unknown #
vertex $-1 $617 $725 #
straight-curve $-1 -64.363536484878082 -42.001985665532381 0 0 0 -1 I I #
edge $-1 $615 -42.001985665532381 $619 42.001985665532381 $613 $726 forward 7 unknown #
straight-curve $-1 0 -42.001985665532381 -16.049509015852266 -1 0 0 I I #
vertex $-1 $428 $727 #
straight-curve $-1 0 42.001985665532381 -16.049509015852266 1 0 0 I I #
point $-1 64.363536484878082 42.001985665532381 -16.049509015852266 #
point $-1 64.363536484878082 -42.001985665532381 -16.049509015852266 #
straight-curve $-1 -64.363536484878082 0 16.049509015852266 0 -1 0 I I #
point $-1 -64.363536484878082 42.001985665532381 16.049509015852266 #
point $-1 -64.363536484878082 -42.001985665532381 16.049509015852266 #
straight-curve $-1 64.363536484878082 -42.001985665532381 0 0 0 -1 I I #
straight-curve $-1 64.363536484878082 42.001985665532381 0 0 0 -1 I I #
plane-surface $-1 10.535941594881999 0 0 -1 0 0 0 0 1 forward_v I I I I #
coedge $-1 $450 $448 $452 $633 reversed $284 $-1 #
edge $-1 $463 -16.049509015852266 $635 16.049509015852266 $462 $728 forward 7 unknown #
vertex $-1 $633 $729 #
straight-curve $-1 -10.535941594881999 -3.9514207612410353 0 0 0 -1 I I #
edge $-1 $631 -3.9514207612410353 $635 3.9514207612410353 $629 $730 forward 7 unknown #
straight-curve $-1 0 -3.9514207612410353 -16.049509015852266 -1 0 0 I I #
vertex $-1 $455 $731 #
straight-curve $-1 0 3.9514207612410353 -16.049509015852266 1 0 0 I I #
point $-1 10.535941594881999 3.9514207612410353 -16.049509015852266 #
point $-1 10.535941594881999 -3.9514207612410353 -16.049509015852266 #
straight-curve $-1 -10.535941594881999 0 16.049509015852266 0 -1 0 I I #
point $-1 -10.535941594881999 3.9514207612410353 16.049509015852266 #
point $-1 -10.535941594881999 -3.9514207612410353 16.049509015852266 #
straight-curve $-1 10.535941594881999 -3.9514207612410353 0 0 0 -1 I I #
straight-curve $-1 10.535941594881999 3.9514207612410353 0 0 0 -1 I I #
plane-surface $-1 8.0136864763976998 0 0 -1 0 0 0 0 1 forward_v I I I I #
coedge $-1 $477 $475 $479 $649 reversed $303 $-1 #
edge $-1 $490 -128.72707296975616 $651 128.72707296975616 $489 $732 forward 7 unknown #
vertex $-1 $649 $733 #
straight-curve $-1 -8.0136864763976998 -257.45414593951233 0 0 0 -1 I I #
edge $-1 $647 -257.45414593951233 $651 257.45414593951233 $645 $734 forward 7 unknown #
straight-curve $-1 0 -257.45414593951233 -128.72707296975616 -1 0 0 I I #
vertex $-1 $482 $735 #
straight-curve $-1 0 257.45414593951233 -128.72707296975616 1 0 0 I I #
point $-1 8.0136864763976998 257.45414593951233 -128.72707296975616 #
point $-1 8.0136864763976998 -257.45414593951233 -128.72707296975616 #
straight-curve $-1 -8.0136864763976998 0 128.72707296975616 0 -1 0 I I #
point $-1 -8.0136864763976998 257.45414593951233 128.72707296975616 #
point $-1 -8.0136864763976998 -257.45414593951233 128.72707296975616 #
straight-curve $-1 8.0136864763976998 -257.45414593951233 0 0 0 -1 I I #
straight-curve $-1 8.0136864763976998 257.45414593951233 0 0 0 -1 I I #
edge $-1 $736 1 $736 0 $499 $-1 forward 7 unknown #
point $-1 2 0 -1 #
edge $-1 $737 1 $737 0 $503 $-1 forward 7 unknown #
point $-1 2 0 -1 #
plane-surface $-1 8.0136864763976998 0 0 -1 0 0 0 0 1 forward_v I I I I #
coedge $-1 $512 $510 $514 $669 reversed $332 $-1 #
edge $-1 $525 -128.72707296975616 $671 128.72707296975616 $524 $738 forward 7 unknown #
vertex $-1 $669 $739 #
straight-curve $-1 -8.0136864763976998 -257.45414593951233 0 0 0 -1 I I #
edge $-1 $667 -257.45414593951233 $671 257.45414593951233 $665 $740 forward 7 unknown #
straight-curve $-1 0 -257.45414593951233 -128.72707296975616 -1 0 0 I I #
vertex $-1 $517 $741 #
straight-curve $-1 0 257.45414593951233 -128.72707296975616 1 0 0 I I #
point $-1 8.0136864763976998 257.45414593951233 -128.72707296975616 #
point $-1 8.0136864763976998 -257.45414593951233 -128.72707296975616 #
straight-curve $-1 -8.0136864763976998 0 128.72707296975616 0 -1 0 I I #
point $-1 -8.0136864763976998 257.45414593951233 128.72707296975616 #
point $-1 -8.0136864763976998 -257.45414593951233 128.72707296975616 #
straight-curve $-1 8.0136864763976998 -257.45414593951233 0 0 0 -1 I I #
straight-curve $-1 8.0136864763976998 257.45414593951233 0 0 0 -1 I I #
edge $-1 $742 1 $742 0 $534 $-1 forward 7 unknown #
point $-1 2 0 -1 #
edge $-1 $743 1 $743 0 $538 $-1 forward 7 unknown #
point $-1 2 0 -1 #
plane-surface $-1 8.0136864763976998 0 0 -1 0 0 0 0 1 forward_v I I I I #
coedge $-1 $547 $545 $549 $689 reversed $361 $-1 #
edge $-1 $560 -128.72707296975616 $691 128.72707296975616 $559 $744 forward 7 unknown #
vertex $-1 $689 $745 #
straight-curve $-1 -8.0136864763976998 -257.45414593951233 0 0 0 -1 I I #
edge $-1 $687 -257.45414593951233 $691 257.45414593951233 $685 $746 forward 7 unknown #
straight-curve $-1 0 -257.45414593951233 -128.72707296975616 -1 0 0 I I #
vertex $-1 $552 $747 #
straight-curve $-1 0 257.45414593951233 -128.72707296975616 1 0 0 I I #
point $-1 8.0136864763976998 257.45414593951233 -128.72707296975616 #
point $-1 8.0136864763976998 -257.45414593951233 -128.72707296975616 #
straight-curve $-1 -8.0136864763976998 0 128.72707296975616 0 -1 0 I I #
point $-1 -8.0136864763976998 257.45414593951233 128.72707296975616 #
point $-1 -8.0136864763976998 -257.45414593951233 128.72707296975616 #
straight-curve $-1 8.0136864763976998 -257.45414593951233 0 0 0 -1 I I #
straight-curve $-1 8.0136864763976998 257.45414593951233 0 0 0 -1 I I #
edge $-1 $748 1 $748 0 $569 $-1 forward 7 unknown #
point $-1 2 0 -1 #
edge $-1 $749 1 $749 0 $573 $-1 forward 7 unknown #
point $-1 2 0 -1 #
plane-surface $-1 8.0136864763976998 0 0 -1 0 0 0 0 1 forward_v I I I I #
coedge $-1 $582 $580 $584 $709 reversed $390 $-1 #
edge $-1 $595 -128.72707296975616 $711 128.72707296975616 $594 $750 forward 7 unknown #
vertex $-1 $709 $751 #
straight-curve $-1 -8.0136864763976998 -257.45414593951233 0 0 0 -1 I I #
edge $-1 $707 -257.45414593951233 $711 257.45414593951233 $705 $752 forward 7 unknown #
straight-curve $-1 0 -257.45414593951233 -128.72707296975616 -1 0 0 I I #
vertex $-1 $587 $753 #
straight-curve $-1 0 257.45414593951233 -128.72707296975616 1 0 0 I I #
point $-1 8.0136864763976998 257.45414593951233 -128.72707296975616 #
point $-1 8.0136864763976998 -257.45414593951233 -128.72707296975616 #
straight-curve $-1 -8.0136864763976998 0 128.72707296975616 0 -1 0 I I #
point $-1 -8.0136864763976998 257.45414593951233 128.72707296975616 #
point $-1 -8.0136864763976998 -257.45414593951233 128.72707296975616 #
straight-curve $-1 8.0136864763976998 -257.45414593951233 0 0 0 -1 I I #
straight-curve $-1 8.0136864763976998 257.45414593951233 0 0 0 -1 I I #
edge $-1 $754 1 $754 0 $604 $-1 forward 7 unknown #
point $-1 2 0 -1 #
edge $-1 $755 1 $755 0 $608 $-1 forward 7 unknown #
point $-1 2 0 -1 #
straight-curve $-1 -64.363536484878082 42.001985665532381 0 0 0 -1 I I #
point $-1 -64.363536484878082 -42.001985665532381 -16.049509015852266 #
straight-curve $-1 -64.363536484878082 0 -16.049509015852266 0 1 0 I I #
point $-1 -64.363536484878082 42.001985665532381 -16.049509015852266 #
straight-curve $-1 -10.535941594881999 3.9514207612410353 0 0 0 -1 I I #
point $-1 -10.535941594881999 -3.9514207612410353 -16.049509015852266 #
straight-curve $-1 -10.535941594881999 0 -16.049509015852266 0 1 0 I I #
point $-1 -10.535941594881999 3.9514207612410353 -16.049509015852266 #
straight-curve $-1 -8.0136864763976998 257.45414593951233 0 0 0 -1 I I #
point $-1 -8.0136864763976998 -257.45414593951233 -128.72707296975616 #
straight-curve $-1 -8.0136864763976998 0 -128.72707296975616 0 1 0 I I #
point $-1 -8.0136864763976998 257.45414593951233 -128.72707296975616 #
vertex $-1 $660 $756 #
vertex $-1 $662 $757 #
straight-curve $-1 -8.0136864763976998 257.45414593951233 0 0 0 -1 I I #
point $-1 -8.0136864763976998 -257.45414593951233 -128.72707296975616 #
straight-curve $-1 -8.0136864763976998 0 -128.72707296975616 0 1 0 I I #
point $-1 -8.0136864763976998 257.45414593951233 -128.72707296975616 #
vertex $-1 $680 $758 #
vertex $-1 $682 $759 #
straight-curve $-1 -8.0136864763976998 257.45414593951233 0 0 0 -1 I I #
point $-1 -8.0136864763976998 -257.45414593951233 -128.72707296975616 #
straight-curve $-1 -8.0136864763976998 0 -128.72707296975616 0 1 0 I I #
point $-1 -8.0136864763976998 257.45414593951233 -128.72707296975616 #
vertex $-1 $700 $760 #
vertex $-1 $702 $761 #
straight-curve $-1 -8.0136864763976998 257.45414593951233 0 0 0 -1 I I #
point $-1 -8.0136864763976998 -257.45414593951233 -128.72707296975616 #
straight-curve $-1 -8.0136864763976998 0 -128.72707296975616 0 1 0 I I #
point $-1 -8.0136864763976998 257.45414593951233 -128.72707296975616 #
vertex $-1 $720 $762 #
vertex $-1 $722 $763 #
point $-1 0 0 1 #
point $-1 0 0 1 #
point $-1 0 0 1 #
point $-1 0 0 1 #
point $-1 0 0 1 #
point $-1 0 0 1 #
point $-1 0 0 1 #
point $-1 0 0 1 #
End-of-ACIS-data 