500 0 15 0           
7 Unknown 11 ACIS 5.0 NT 24 Thu Mar 25 15:20:14 1999 
-1 9.9999999999999995e-007 1e-010 
body $-1 $15 $-1 $16 #
body $-1 $17 $-1 $18 #
body $-1 $19 $-1 $20 #
body $-1 $21 $-1 $22 #
body $-1 $23 $-1 $24 #
body $-1 $25 $-1 $26 #
body $-1 $27 $-1 $28 #
body $-1 $29 $-1 $30 #
body $-1 $31 $-1 $32 #
body $-1 $33 $-1 $34 #
body $-1 $35 $-1 $36 #
body $-1 $37 $-1 $38 #
body $-1 $39 $-1 $40 #
body $-1 $41 $-1 $42 #
body $-1 $43 $-1 $44 #
lump $-1 $-1 $45 $0 #
transform $-1 1 0 0 0 1 0 0 0 1 60.105594042786947 42.022737935307049 12.024579398639863 1 rotate no_reflect no_shear #
lump $-1 $-1 $46 $1 #
transform $-1 1 0 0 0 1 0 0 0 1 60.105594042786947 42.022737935307049 12.024579398639863 1 rotate no_reflect no_shear #
lump $-1 $-1 $47 $2 #
transform $-1 1 0 0 0 1 0 0 0 1 60.105594042786947 42.022737935307049 12.024579398639863 1 rotate no_reflect no_shear #
lump $-1 $-1 $48 $3 #
transform $-1 1 0 0 0 1 0 0 0 1 60.105594042786947 42.022737935307049 12.024579398639863 1 rotate no_reflect no_shear #
lump $-1 $-1 $49 $4 #
transform $-1 1 0 0 0 1 0 0 0 1 60.105594042786947 42.022737935307049 12.024579398639863 1 rotate no_reflect no_shear #
lump $-1 $-1 $50 $5 #
transform $-1 1 0 0 0 1 0 0 0 1 60.105594042786947 42.022737935307049 12.024579398639863 1 rotate no_reflect no_shear #
lump $-1 $-1 $51 $6 #
transform $-1 1 0 0 0 1 0 0 0 1 60.105594042786947 42.022737935307049 12.024579398639863 1 rotate no_reflect no_shear #
lump $-1 $-1 $52 $7 #
transform $-1 1 0 0 0 1 0 0 0 1 60.105594042786947 42.022737935307049 12.024579398639863 1 rotate no_reflect no_shear #
lump $-1 $-1 $53 $8 #
transform $-1 1 0 0 0 1 0 0 0 1 60.105594042786947 42.022737935307049 12.024579398639863 1 rotate no_reflect no_shear #
lump $-1 $-1 $54 $9 #
transform $-1 1 0 0 0 1 0 0 0 1 60.105594042786947 42.022737935307049 12.024579398639863 1 rotate no_reflect no_shear #
lump $-1 $-1 $55 $10 #
transform $-1 1 0 0 0 1 0 0 0 1 60.105594042786947 42.022737935307049 12.024579398639863 1 rotate no_reflect no_shear #
lump $-1 $-1 $56 $11 #
transform $-1 1 0 0 0 1 0 0 0 1 60.105594042786947 42.022737935307049 12.024579398639863 1 rotate no_reflect no_shear #
lump $-1 $-1 $57 $12 #
transform $-1 1 0 0 0 1 0 0 0 1 60.105594042786947 42.022737935307049 12.024579398639863 1 rotate no_reflect no_shear #
lump $-1 $-1 $58 $13 #
transform $-1 1 0 0 0 1 0 0 0 1 60.105594042786947 42.022737935307049 12.024579398639863 1 rotate no_reflect no_shear #
lump $-1 $-1 $59 $14 #
transform $-1 1 0 0 0 1 0 0 0 1 60.105594042786947 42.022737935307049 12.024579398639863 1 rotate no_reflect no_shear #
shell $-1 $-1 $-1 $60 $-1 $15 #
shell $-1 $-1 $-1 $61 $-1 $17 #
shell $-1 $-1 $-1 $62 $-1 $19 #
shell $-1 $-1 $-1 $63 $-1 $21 #
shell $-1 $-1 $-1 $64 $-1 $23 #
shell $-1 $-1 $-1 $65 $-1 $25 #
shell $-1 $-1 $-1 $66 $-1 $27 #
shell $-1 $-1 $-1 $67 $-1 $29 #
shell $-1 $-1 $-1 $68 $-1 $31 #
shell $-1 $-1 $-1 $69 $-1 $33 #
shell $-1 $-1 $-1 $70 $-1 $35 #
shell $-1 $-1 $-1 $71 $-1 $37 #
shell $-1 $-1 $-1 $72 $-1 $39 #
shell $-1 $-1 $-1 $73 $-1 $41 #
shell $-1 $-1 $-1 $74 $-1 $43 #
face $-1 $75 $76 $45 $-1 $77 forward single #
face $-1 $78 $79 $46 $-1 $80 reversed single #
face $-1 $81 $82 $47 $-1 $83 reversed single #
face $-1 $84 $85 $48 $-1 $86 reversed single #
face $-1 $87 $88 $49 $-1 $89 forward single #
face $-1 $90 $91 $50 $-1 $92 forward single #
face $-1 $93 $94 $51 $-1 $95 forward single #
face $-1 $96 $97 $52 $-1 $98 reversed single #
face $-1 $99 $100 $53 $-1 $101 forward single #
face $-1 $102 $103 $54 $-1 $104 forward single #
face $-1 $105 $106 $55 $-1 $107 forward single #
face $-1 $108 $109 $56 $-1 $110 reversed single #
face $-1 $111 $112 $57 $-1 $113 forward single #
face $-1 $114 $115 $58 $-1 $116 forward single #
face $-1 $117 $118 $59 $-1 $119 forward single #
face $-1 $120 $121 $45 $-1 $122 reversed single #
loop $-1 $-1 $123 $60 #
plane-surface $-1 0 0 12.024579398639863 0 0 1 1 0 0 forward_v I I I I #
face $-1 $124 $125 $46 $-1 $126 reversed single #
loop $-1 $-1 $127 $61 #
plane-surface $-1 -56.946219934180419 -27.481191353079211 0 0 -1 0 0 0 -1 forward_v I I I I #
face $-1 $128 $129 $47 $-1 $130 reversed single #
loop $-1 $-1 $131 $62 #
plane-surface $-1 -56.946219934180419 27.481191353079204 0 0 1 0 0 0 1 forward_v I I I I #
face $-1 $132 $133 $48 $-1 $134 reversed single #
loop $-1 $-1 $135 $63 #
plane-surface $-1 63.072580068280388 -21.280168589266829 170.60359596322397 0 -1 0 -0.71933980857756763 0 -0.69465836192734942 forward_v I I I I #
face $-1 $136 $137 $49 $-1 $138 forward single #
loop $-1 $139 $140 $64 #
cone-surface $-1 54.216824203498909 -26.240986800316733 5.9534435571075601 -0.71933980857756763 0 -0.69465836192734942 0.34732918096367471 0 -0.35966990428878381 1 I I 0 1 0.5 forward I I I I #
face $-1 $141 $142 $50 $-1 $143 forward single #
loop $-1 $144 $145 $65 #
cone-surface $-1 54.216824203498909 -24.38067997117302 5.9534435571075601 -0.71933980857756763 0 -0.69465836192734942 0.34732918096367471 0 -0.35966990428878381 1 I I 0 1 0.5 forward I I I I #
face $-1 $146 $147 $51 $-1 $148 forward single #
loop $-1 $149 $150 $66 #
cone-surface $-1 54.216824203498909 -22.520373142029307 5.9534435571075601 -0.71933980857756763 0 -0.69465836192734942 0.34732918096367471 0 -0.35966990428878381 1 I I 0 1 0.5 forward I I I I #
face $-1 $151 $152 $52 $-1 $153 reversed single #
loop $-1 $-1 $154 $67 #
plane-surface $-1 -135.75694687677134 -21.842826748596245 100.08093925882432 0 1 0 -0.62932039886446345 0 0.77714595512881146 forward_v I I I I #
face $-1 $155 $156 $53 $-1 $157 forward single #
loop $-1 $158 $159 $68 #
cone-surface $-1 -55.920381450882061 -19.365428846398295 8.2645800410701806 0.62932039886446345 0 -0.77714595512881146 0.77714595512881146 0 0.62932039886446345 1 I I 0 1 1 forward I I I I #
face $-1 $160 $161 $54 $-1 $162 forward single #
loop $-1 $163 $164 $69 #
cone-surface $-1 -55.920381450882061 -15.64933199310137 8.2645800410701806 0.62932039886446345 0 -0.77714595512881146 0.77714595512881146 0 0.62932039886446345 1 I I 0 1 1 forward I I I I #
face $-1 $165 $166 $55 $-1 $167 forward single #
loop $-1 $168 $169 $70 #
cone-surface $-1 -55.920381450882061 -11.933235139804445 8.2645800410701806 0.62932039886446345 0 -0.77714595512881146 0.77714595512881146 0 0.62932039886446345 1 I I 0 1 1 forward I I I I #
face $-1 $170 $171 $56 $-1 $172 reversed single #
loop $-1 $-1 $173 $71 #
plane-surface $-1 -135.75694687677134 9.4558372376064916 100.08093925882432 0 1 0 -0.62932039886446345 0 0.77714595512881146 forward_v I I I I #
face $-1 $174 $175 $57 $-1 $176 forward single #
loop $-1 $177 $178 $72 #
cone-surface $-1 -55.920381450882061 11.933235139804438 8.2645800410701806 0.62932039886446345 0 -0.77714595512881146 0.77714595512881146 0 0.62932039886446345 1 I I 0 1 1 forward I I I I #
face $-1 $179 $180 $58 $-1 $181 forward single #
loop $-1 $182 $183 $73 #
cone-surface $-1 -55.920381450882061 15.64933199310137 8.2645800410701806 0.62932039886446345 0 -0.77714595512881146 0.77714595512881146 0 0.62932039886446345 1 I I 0 1 1 forward I I I I #
face $-1 $184 $185 $59 $-1 $186 forward single #
loop $-1 $187 $188 $74 #
cone-surface $-1 -55.920381450882061 19.365428846398288 8.2645800410701806 0.62932039886446345 0 -0.77714595512881146 0.77714595512881146 0 0.62932039886446345 1 I I 0 1 1 forward I I I I #
face $-1 $189 $190 $45 $-1 $191 reversed single #
loop $-1 $-1 $192 $75 #
plane-surface $-1 0 0 -12.024579398639863 0 0 1 1 0 0 forward_v I I I I #
coedge $-1 $193 $194 $195 $196 forward $76 $-1 #
face $-1 $197 $198 $46 $-1 $199 forward single #
loop $-1 $-1 $200 $78 #
plane-surface $-1 -53.786845825573891 -34.75196464419313 0 -1 0 0 0 0 1 forward_v I I I I #
coedge $-1 $201 $202 $203 $204 forward $79 $-1 #
face $-1 $205 $206 $47 $-1 $207 reversed single #
loop $-1 $-1 $208 $81 #
plane-surface $-1 -53.786845825573891 34.751964644193123 0 -1 0 0 0 0 1 forward_v I I I I #
coedge $-1 $209 $210 $211 $212 reversed $82 $-1 #
face $-1 $213 $214 $48 $-1 $215 reversed single #
loop $-1 $-1 $216 $84 #
plane-surface $-1 -23.40011295807831 -24.38067997117302 87.097888962358695 0.71933980857756763 0 0.69465836192734942 0.69465836192734942 0 -0.71933980857756763 forward_v I I I I #
coedge $-1 $217 $218 $219 $220 reversed $85 $-1 #
face $-1 $-1 $221 $49 $-1 $222 forward single #
loop $-1 $223 $224 $87 #
cone-surface $-1 53.65234760622107 -26.240986800316733 5.408334856413342 -0.71933980857756763 0 -0.69465836192734942 0.17366459048183736 0 -0.17983495214439191 1 I I -0.70710678118654746 0.70710678118654746 0.25 forward I I I I #
loop $-1 $-1 $225 $64 #
coedge $-1 $140 $140 $226 $227 reversed $88 $-1 #
face $-1 $-1 $228 $50 $-1 $229 forward single #
loop $-1 $230 $231 $90 #
cone-surface $-1 53.65234760622107 -24.38067997117302 5.408334856413342 -0.71933980857756763 0 -0.69465836192734942 0.17366459048183736 0 -0.17983495214439191 1 I I -0.70710678118654746 0.70710678118654746 0.25 forward I I I I #
loop $-1 $-1 $232 $65 #
coedge $-1 $145 $145 $233 $234 reversed $91 $-1 #
face $-1 $-1 $235 $51 $-1 $236 forward single #
loop $-1 $237 $238 $93 #
cone-surface $-1 53.65234760622107 -22.520373142029307 5.408334856413342 -0.71933980857756763 0 -0.69465836192734942 0.17366459048183736 0 -0.17983495214439191 1 I I -0.70710678118654746 0.70710678118654746 0.25 forward I I I I #
loop $-1 $-1 $239 $66 #
coedge $-1 $150 $150 $240 $241 reversed $94 $-1 #
face $-1 $242 $243 $52 $-1 $244 reversed single #
loop $-1 $-1 $245 $96 #
plane-surface $-1 -60.105594042786933 -15.649331993101367 6.6593006768917888 -0.62932039886446345 0 0.77714595512881146 0.77714595512881146 0 0.62932039886446345 forward_v I I I I #
coedge $-1 $246 $247 $248 $249 reversed $97 $-1 #
face $-1 $-1 $250 $53 $-1 $251 forward single #
loop $-1 $252 $253 $99 #
cone-surface $-1 -54.733292310185199 -19.365428846398295 6.798647066810128 0.62932039886446345 0 -0.77714595512881146 0.38857297756440573 0 0.31466019943223172 1 I I -0.70710678118654746 0.70710678118654746 0.5 forward I I I I #
loop $-1 $-1 $254 $68 #
coedge $-1 $159 $159 $255 $256 reversed $100 $-1 #
face $-1 $-1 $257 $54 $-1 $258 forward single #
loop $-1 $259 $260 $102 #
cone-surface $-1 -54.733292310185199 -15.64933199310137 6.798647066810128 0.62932039886446345 0 -0.77714595512881146 0.38857297756440573 0 0.31466019943223172 1 I I -0.70710678118654746 0.70710678118654746 0.5 forward I I I I #
loop $-1 $-1 $261 $69 #
coedge $-1 $164 $164 $262 $263 reversed $103 $-1 #
face $-1 $-1 $264 $55 $-1 $265 forward single #
loop $-1 $266 $267 $105 #
cone-surface $-1 -54.733292310185199 -11.933235139804445 6.798647066810128 0.62932039886446345 0 -0.77714595512881146 0.38857297756440573 0 0.31466019943223172 1 I I -0.70710678118654746 0.70710678118654746 0.5 forward I I I I #
loop $-1 $-1 $268 $70 #
coedge $-1 $169 $169 $269 $270 reversed $106 $-1 #
face $-1 $271 $272 $56 $-1 $273 reversed single #
loop $-1 $-1 $274 $108 #
plane-surface $-1 -60.105594042786933 15.64933199310137 6.6593006768917888 -0.62932039886446345 0 0.77714595512881146 0.77714595512881146 0 0.62932039886446345 forward_v I I I I #
coedge $-1 $275 $276 $277 $278 reversed $109 $-1 #
face $-1 $-1 $279 $57 $-1 $280 forward single #
loop $-1 $281 $282 $111 #
cone-surface $-1 -54.733292310185199 11.933235139804438 6.798647066810128 0.62932039886446345 0 -0.77714595512881146 0.38857297756440573 0 0.31466019943223172 1 I I -0.70710678118654746 0.70710678118654746 0.5 forward I I I I #
loop $-1 $-1 $283 $72 #
coedge $-1 $178 $178 $284 $285 reversed $112 $-1 #
face $-1 $-1 $286 $58 $-1 $287 forward single #
loop $-1 $288 $289 $114 #
cone-surface $-1 -54.733292310185199 15.64933199310137 6.798647066810128 0.62932039886446345 0 -0.77714595512881146 0.38857297756440573 0 0.31466019943223172 1 I I -0.70710678118654746 0.70710678118654746 0.5 forward I I I I #
loop $-1 $-1 $290 $73 #
coedge $-1 $183 $183 $291 $292 reversed $115 $-1 #
face $-1 $-1 $293 $59 $-1 $294 forward single #
loop $-1 $295 $296 $117 #
cone-surface $-1 -54.733292310185199 19.365428846398288 6.798647066810128 0.62932039886446345 0 -0.77714595512881146 0.38857297756440573 0 0.31466019943223172 1 I I -0.70710678118654746 0.70710678118654746 0.5 forward I I I I #
loop $-1 $-1 $297 $74 #
coedge $-1 $188 $188 $298 $299 reversed $118 $-1 #
face $-1 $300 $301 $45 $-1 $302 reversed single #
loop $-1 $-1 $303 $120 #
plane-surface $-1 0 -42.022737935307049 0 0 1 0 0 0 1 forward_v I I I I #
coedge $-1 $304 $305 $306 $307 forward $121 $-1 #
coedge $-1 $308 $123 $309 $310 forward $76 $-1 #
coedge $-1 $123 $308 $311 $312 forward $76 $-1 #
coedge $-1 $313 $314 $123 $196 reversed $315 $-1 #
edge $-1 $316 -42.022737935307049 $317 42.022737935307049 $195 $318 forward 7 unknown #
face $-1 $319 $320 $46 $-1 $321 reversed single #
loop $-1 $-1 $322 $124 #
plane-surface $-1 0 0 12.024579398639863 0 0 1 1 0 0 forward_v I I I I #
coedge $-1 $323 $324 $325 $326 reversed $125 $-1 #
coedge $-1 $327 $127 $328 $329 reversed $79 $-1 #
coedge $-1 $127 $327 $330 $331 reversed $79 $-1 #
coedge $-1 $324 $323 $127 $204 reversed $125 $-1 #
edge $-1 $332 -12.024579398639863 $333 12.024579398639863 $203 $334 forward 7 unknown #
face $-1 $335 $336 $47 $-1 $337 reversed single #
loop $-1 $-1 $338 $128 #
plane-surface $-1 0 0 -12.024579398639863 0 0 1 1 0 0 forward_v I I I I #
coedge $-1 $339 $340 $341 $342 forward $129 $-1 #
coedge $-1 $341 $131 $343 $344 reversed $82 $-1 #
coedge $-1 $131 $341 $345 $346 reversed $82 $-1 #
coedge $-1 $347 $348 $131 $212 forward $336 $-1 #
edge $-1 $349 -12.024579398639863 $350 12.024579398639863 $211 $351 forward 7 unknown #
face $-1 $352 $353 $48 $-1 $354 reversed single #
loop $-1 $-1 $355 $132 #
plane-surface $-1 63.072580068280388 -27.481191353079211 170.60359596322397 0 1 0 0.71933980857756763 0 0.69465836192734942 forward_v I I I I #
coedge $-1 $356 $357 $358 $359 reversed $133 $-1 #
coedge $-1 $218 $135 $360 $361 reversed $85 $-1 #
coedge $-1 $135 $217 $356 $362 reversed $85 $-1 #
coedge $-1 $358 $363 $135 $220 forward $364 $-1 #
edge $-1 $365 -28.569304008646753 $366 -17.561047620337561 $219 $367 forward 7 unknown #
loop $-1 $-1 $226 $136 #
plane-surface $-1 -23.40011295807831 -24.38067997117302 87.097888962358695 0.71933980857756763 0 0.69465836192734942 0.69465836192734942 0 -0.71933980857756763 forward_v I I I I #
loop $-1 $-1 $368 $87 #
coedge $-1 $224 $224 $225 $369 reversed $137 $-1 #
coedge $-1 $225 $225 $224 $369 forward $139 $-1 #
coedge $-1 $226 $226 $140 $227 forward $221 $-1 #
edge $-1 $370 0 $370 6.2831853071796004 $226 $371 forward 7 unknown #
loop $-1 $-1 $233 $141 #
plane-surface $-1 -23.40011295807831 -24.38067997117302 87.097888962358695 0.71933980857756763 0 0.69465836192734942 0.69465836192734942 0 -0.71933980857756763 forward_v I I I I #
loop $-1 $-1 $372 $90 #
coedge $-1 $231 $231 $232 $373 reversed $142 $-1 #
coedge $-1 $232 $232 $231 $373 forward $144 $-1 #
coedge $-1 $233 $233 $145 $234 forward $228 $-1 #
edge $-1 $374 0 $374 6.2831853071796004 $233 $375 forward 7 unknown #
loop $-1 $-1 $240 $146 #
plane-surface $-1 -23.40011295807831 -24.38067997117302 87.097888962358695 0.71933980857756763 0 0.69465836192734942 0.69465836192734942 0 -0.71933980857756763 forward_v I I I I #
loop $-1 $-1 $376 $93 #
coedge $-1 $238 $238 $239 $377 reversed $147 $-1 #
coedge $-1 $239 $239 $238 $377 forward $149 $-1 #
coedge $-1 $240 $240 $150 $241 forward $235 $-1 #
edge $-1 $378 0 $378 6.2831853071796004 $240 $379 forward 7 unknown #
face $-1 $380 $381 $52 $-1 $382 forward single #
loop $-1 $-1 $383 $151 #
plane-surface $-1 -135.75694687677134 -9.4558372376064881 100.08093925882432 0 -1 0 0.62932039886446345 0 -0.77714595512881146 forward_v I I I I #
coedge $-1 $384 $385 $386 $387 reversed $152 $-1 #
coedge $-1 $247 $154 $388 $389 reversed $97 $-1 #
coedge $-1 $154 $246 $384 $390 reversed $97 $-1 #
coedge $-1 $386 $391 $154 $249 forward $381 $-1 #
edge $-1 $392 7.7728793955987214 $393 14.398446696879247 $248 $394 forward 7 unknown #
loop $-1 $-1 $255 $155 #
plane-surface $-1 -60.105594042786933 -15.649331993101367 6.6593006768917888 -0.62932039886446345 0 0.77714595512881146 0.77714595512881146 0 0.62932039886446345 forward_v I I I I #
loop $-1 $-1 $395 $99 #
coedge $-1 $253 $253 $254 $396 reversed $156 $-1 #
coedge $-1 $254 $254 $253 $396 forward $158 $-1 #
coedge $-1 $255 $255 $159 $256 forward $250 $-1 #
edge $-1 $397 0 $397 6.2831853071796004 $255 $398 forward 7 unknown #
loop $-1 $-1 $262 $160 #
plane-surface $-1 -60.105594042786933 -15.649331993101367 6.6593006768917888 -0.62932039886446345 0 0.77714595512881146 0.77714595512881146 0 0.62932039886446345 forward_v I I I I #
loop $-1 $-1 $399 $102 #
coedge $-1 $260 $260 $261 $400 reversed $161 $-1 #
coedge $-1 $261 $261 $260 $400 forward $163 $-1 #
coedge $-1 $262 $262 $164 $263 forward $257 $-1 #
edge $-1 $401 0 $401 6.2831853071796004 $262 $402 forward 7 unknown #
loop $-1 $-1 $269 $165 #
plane-surface $-1 -60.105594042786933 -15.649331993101367 6.6593006768917888 -0.62932039886446345 0 0.77714595512881146 0.77714595512881146 0 0.62932039886446345 forward_v I I I I #
loop $-1 $-1 $403 $105 #
coedge $-1 $267 $267 $268 $404 reversed $166 $-1 #
coedge $-1 $268 $268 $267 $404 forward $168 $-1 #
coedge $-1 $269 $269 $169 $270 forward $264 $-1 #
edge $-1 $405 0 $405 6.2831853071796004 $269 $406 forward 7 unknown #
face $-1 $407 $408 $56 $-1 $409 forward single #
loop $-1 $-1 $410 $170 #
plane-surface $-1 -135.75694687677134 21.842826748596249 100.08093925882432 0 -1 0 0.62932039886446345 0 -0.77714595512881146 forward_v I I I I #
coedge $-1 $411 $412 $413 $414 reversed $171 $-1 #
coedge $-1 $276 $173 $415 $416 reversed $109 $-1 #
coedge $-1 $173 $275 $411 $417 reversed $109 $-1 #
coedge $-1 $413 $418 $173 $278 forward $408 $-1 #
edge $-1 $419 7.7728793955987214 $420 14.398446696879247 $277 $421 forward 7 unknown #
loop $-1 $-1 $284 $174 #
plane-surface $-1 -60.105594042786933 15.64933199310137 6.6593006768917888 -0.62932039886446345 0 0.77714595512881146 0.77714595512881146 0 0.62932039886446345 forward_v I I I I #
loop $-1 $-1 $422 $111 #
coedge $-1 $282 $282 $283 $423 reversed $175 $-1 #
coedge $-1 $283 $283 $282 $423 forward $177 $-1 #
coedge $-1 $284 $284 $178 $285 forward $279 $-1 #
edge $-1 $424 0 $424 6.2831853071796004 $284 $425 forward 7 unknown #
loop $-1 $-1 $291 $179 #
plane-surface $-1 -60.105594042786933 15.64933199310137 6.6593006768917888 -0.62932039886446345 0 0.77714595512881146 0.77714595512881146 0 0.62932039886446345 forward_v I I I I #
loop $-1 $-1 $426 $114 #
coedge $-1 $289 $289 $290 $427 reversed $180 $-1 #
coedge $-1 $290 $290 $289 $427 forward $182 $-1 #
coedge $-1 $291 $291 $183 $292 forward $286 $-1 #
edge $-1 $428 0 $428 6.2831853071796004 $291 $429 forward 7 unknown #
loop $-1 $-1 $298 $184 #
plane-surface $-1 -60.105594042786933 15.64933199310137 6.6593006768917888 -0.62932039886446345 0 0.77714595512881146 0.77714595512881146 0 0.62932039886446345 forward_v I I I I #
loop $-1 $-1 $430 $117 #
coedge $-1 $296 $296 $297 $431 reversed $185 $-1 #
coedge $-1 $297 $297 $296 $431 forward $187 $-1 #
coedge $-1 $298 $298 $188 $299 forward $293 $-1 #
edge $-1 $432 0 $432 6.2831853071796004 $298 $433 forward 7 unknown #
face $-1 $434 $435 $45 $-1 $436 reversed single #
loop $-1 $-1 $437 $189 #
plane-surface $-1 -60.105594042786947 0 0 1 0 0 0 0 -1 forward_v I I I I #
coedge $-1 $438 $311 $439 $440 forward $190 $-1 #
coedge $-1 $441 $192 $438 $442 forward $121 $-1 #
coedge $-1 $192 $441 $443 $444 forward $121 $-1 #
coedge $-1 $314 $313 $192 $307 reversed $315 $-1 #
edge $-1 $445 -42.022737935307049 $446 42.022737935307049 $306 $447 forward 7 unknown #
coedge $-1 $194 $193 $448 $449 forward $76 $-1 #
coedge $-1 $450 $451 $193 $310 reversed $435 $-1 #
edge $-1 $317 -60.105594042786947 $452 60.105594042786947 $309 $453 forward 7 unknown #
coedge $-1 $303 $454 $194 $312 reversed $190 $-1 #
edge $-1 $455 -60.105594042786947 $316 60.105594042786947 $311 $456 forward 7 unknown #
coedge $-1 $306 $195 $454 $457 forward $315 $-1 #
coedge $-1 $195 $306 $450 $458 reversed $315 $-1 #
loop $-1 $-1 $313 $434 #
vertex $-1 $196 $459 #
vertex $-1 $196 $460 #
straight-curve $-1 60.105594042786947 0 12.024579398639863 0 1 0 I I #
face $-1 $461 $462 $46 $-1 $463 reversed single #
loop $-1 $-1 $464 $197 #
plane-surface $-1 -60.105594042786947 0 0 1 0 0 0 0 -1 forward_v I I I I #
coedge $-1 $330 $465 $324 $466 forward $198 $-1 #
coedge $-1 $203 $200 $467 $468 reversed $125 $-1 #
coedge $-1 $200 $203 $322 $466 reversed $125 $-1 #
coedge $-1 $469 $470 $200 $326 forward $471 $-1 #
edge $-1 $472 -12.024579398639863 $473 12.024579398639863 $325 $474 forward 7 unknown #
coedge $-1 $202 $201 $464 $475 reversed $79 $-1 #
coedge $-1 $467 $476 $201 $329 forward $462 $-1 #
edge $-1 $477 -31.632484075696738 $333 -25.313735858483682 $328 $478 forward 7 unknown #
coedge $-1 $479 $322 $202 $331 forward $198 $-1 #
edge $-1 $332 25.313735858483682 $480 31.632484075696738 $330 $481 forward 7 unknown #
vertex $-1 $331 $482 #
vertex $-1 $329 $483 #
straight-curve $-1 -53.786845825573891 -27.481191353079211 0 0 0 -1 I I #
face $-1 $484 $485 $47 $-1 $486 forward single #
loop $-1 $-1 $211 $205 #
plane-surface $-1 -60.105594042786947 0 0 1 0 0 0 0 -1 forward_v I I I I #
coedge $-1 $343 $487 $339 $488 forward $206 $-1 #
coedge $-1 $489 $208 $338 $488 reversed $129 $-1 #
coedge $-1 $208 $489 $490 $491 reversed $129 $-1 #
coedge $-1 $210 $209 $208 $342 reversed $82 $-1 #
edge $-1 $492 -12.024579398639863 $493 12.024579398639863 $208 $494 forward 7 unknown #
coedge $-1 $495 $338 $209 $344 forward $206 $-1 #
edge $-1 $493 25.313735858483682 $349 31.632484075696738 $343 $496 forward 7 unknown #
coedge $-1 $490 $497 $210 $346 forward $485 $-1 #
edge $-1 $350 -31.632484075696738 $492 -25.313735858483682 $345 $498 forward 7 unknown #
coedge $-1 $499 $211 $497 $500 reversed $336 $-1 #
coedge $-1 $211 $499 $495 $501 reversed $336 $-1 #
vertex $-1 $501 $502 #
vertex $-1 $212 $503 #
straight-curve $-1 -60.105594042786947 27.481191353079204 0 0 0 1 I I #
face $-1 $-1 $364 $48 $-1 $504 forward single #
loop $-1 $-1 $505 $213 #
plane-surface $-1 60.105594042786947 0 0 -1 0 0 0 0 1 forward_v I I I I #
coedge $-1 $506 $507 $508 $509 reversed $214 $-1 #
coedge $-1 $510 $216 $218 $362 forward $133 $-1 #
coedge $-1 $216 $510 $506 $511 forward $133 $-1 #
coedge $-1 $508 $219 $216 $359 forward $364 $-1 #
edge $-1 $366 9.0898286036803189 $512 15.290851367492701 $358 $513 forward 7 unknown #
coedge $-1 $514 $515 $217 $361 forward $353 $-1 #
edge $-1 $516 -84.676602045611986 $365 -73.277218582972125 $360 $517 forward 7 unknown #
edge $-1 $366 104.36418041727708 $516 120.21118808557389 $218 $518 forward 7 unknown #
coedge $-1 $219 $508 $514 $519 forward $364 $-1 #
loop $-1 $-1 $508 $352 #
vertex $-1 $361 $520 #
vertex $-1 $220 $521 #
straight-curve $-1 31.536290034140194 -21.280168589266829 12.024579398639858 -1 0 0 I I #
coedge $-1 $368 $368 $-1 $522 reversed $223 $-1 #
edge $-1 $523 0 $523 6.2831853071796004 $224 $524 forward 7 unknown #
vertex $-1 $227 $525 #
ellipse-curve $-1 54.601465848632344 -26.240986800316733 6.3248876673199304 0.71933980857756763 0 0.69465836192734942 0.34732918096367471 0 -0.35966990428878381 1 I I #
coedge $-1 $372 $372 $-1 $526 reversed $230 $-1 #
edge $-1 $527 0 $527 6.2831853071796004 $231 $528 forward 7 unknown #
vertex $-1 $234 $529 #
ellipse-curve $-1 54.601465848632344 -24.38067997117302 6.3248876673199304 0.71933980857756763 0 0.69465836192734942 0.34732918096367471 0 -0.35966990428878381 1 I I #
coedge $-1 $376 $376 $-1 $530 reversed $237 $-1 #
edge $-1 $531 0 $531 6.2831853071796004 $238 $532 forward 7 unknown #
vertex $-1 $241 $533 #
ellipse-curve $-1 54.601465848632344 -22.520373142029307 6.3248876673199304 0.71933980857756763 0 0.69465836192734942 0.34732918096367471 0 -0.35966990428878381 1 I I #
face $-1 $-1 $534 $52 $-1 $535 reversed single #
loop $-1 $-1 $248 $242 #
plane-surface $-1 0 0 12.024579398639863 0 0 1 1 0 0 forward_v I I I I #
coedge $-1 $536 $537 $538 $539 reversed $243 $-1 #
coedge $-1 $540 $245 $247 $390 forward $152 $-1 #
coedge $-1 $245 $540 $536 $541 forward $152 $-1 #
coedge $-1 $538 $248 $245 $387 forward $381 $-1 #
edge $-1 $393 -14.018160752045562 $542 -1.6311712410558048 $386 $543 forward 7 unknown #
coedge $-1 $544 $545 $246 $389 forward $534 $-1 #
edge $-1 $546 -43.381168952520383 $392 -38.015890230772293 $388 $547 forward 7 unknown #
edge $-1 $393 -8.5255121738133823 $546 1.8310242626372826e-014 $247 $548 forward 7 unknown #
coedge $-1 $248 $538 $544 $549 forward $381 $-1 #
vertex $-1 $249 $550 #
vertex $-1 $249 $551 #
straight-curve $-1 -67.878473438385669 -21.842826748596245 12.024579398639865 1 0 0 I I #
coedge $-1 $395 $395 $-1 $552 reversed $252 $-1 #
edge $-1 $553 0 $553 6.2831853071796004 $253 $554 forward 7 unknown #
vertex $-1 $256 $555 #
ellipse-curve $-1 -56.792810392146691 -19.365428846398295 9.3419400377658182 -0.62932039886446345 0 0.77714595512881146 0.77714595512881146 0 0.62932039886446345 1 I I #
coedge $-1 $399 $399 $-1 $556 reversed $259 $-1 #
edge $-1 $557 0 $557 6.2831853071796004 $260 $558 forward 7 unknown #
vertex $-1 $263 $559 #
ellipse-curve $-1 -56.792810392146691 -15.64933199310137 9.3419400377658182 -0.62932039886446345 0 0.77714595512881146 0.77714595512881146 0 0.62932039886446345 1 I I #
coedge $-1 $403 $403 $-1 $560 reversed $266 $-1 #
edge $-1 $561 0 $561 6.2831853071796004 $267 $562 forward 7 unknown #
vertex $-1 $270 $563 #
ellipse-curve $-1 -56.792810392146691 -11.933235139804445 9.3419400377658182 -0.62932039886446345 0 0.77714595512881146 0.77714595512881146 0 0.62932039886446345 1 I I #
face $-1 $-1 $564 $56 $-1 $565 reversed single #
loop $-1 $-1 $277 $271 #
plane-surface $-1 0 0 12.024579398639863 0 0 1 1 0 0 forward_v I I I I #
coedge $-1 $566 $567 $568 $569 reversed $272 $-1 #
coedge $-1 $570 $274 $276 $417 forward $171 $-1 #
coedge $-1 $274 $570 $566 $571 forward $171 $-1 #
coedge $-1 $568 $277 $274 $414 forward $408 $-1 #
edge $-1 $420 1.6311712410558066 $572 14.018160752045564 $413 $573 forward 7 unknown #
coedge $-1 $574 $575 $275 $416 forward $564 $-1 #
edge $-1 $576 -43.381168952520383 $419 -38.015890230772293 $415 $577 forward 7 unknown #
edge $-1 $420 -8.5255121738133823 $576 1.8310242626372826e-014 $276 $578 forward 7 unknown #
coedge $-1 $277 $568 $574 $579 forward $408 $-1 #
vertex $-1 $278 $580 #
vertex $-1 $278 $581 #
straight-curve $-1 -67.878473438385669 9.4558372376064916 12.024579398639865 1 0 0 I I #
coedge $-1 $422 $422 $-1 $582 reversed $281 $-1 #
edge $-1 $583 0 $583 6.2831853071796004 $282 $584 forward 7 unknown #
vertex $-1 $285 $585 #
ellipse-curve $-1 -56.792810392146691 11.933235139804438 9.3419400377658182 -0.62932039886446345 0 0.77714595512881146 0.77714595512881146 0 0.62932039886446345 1 I I #
coedge $-1 $426 $426 $-1 $586 reversed $288 $-1 #
edge $-1 $587 0 $587 6.2831853071796004 $289 $588 forward 7 unknown #
vertex $-1 $292 $589 #
ellipse-curve $-1 -56.792810392146691 15.64933199310137 9.3419400377658182 -0.62932039886446345 0 0.77714595512881146 0.77714595512881146 0 0.62932039886446345 1 I I #
coedge $-1 $430 $430 $-1 $590 reversed $295 $-1 #
edge $-1 $591 0 $591 6.2831853071796004 $296 $592 forward 7 unknown #
vertex $-1 $299 $593 #
ellipse-curve $-1 -56.792810392146691 19.365428846398288 9.3419400377658182 -0.62932039886446345 0 0.77714595512881146 0.77714595512881146 0 0.62932039886446345 1 I I #
face $-1 $-1 $315 $45 $-1 $594 reversed single #
loop $-1 $-1 $450 $300 #
plane-surface $-1 0 42.022737935307049 0 0 -1 0 0 0 -1 forward_v I I I I #
coedge $-1 $595 $448 $451 $596 forward $301 $-1 #
coedge $-1 $454 $303 $304 $442 reversed $190 $-1 #
coedge $-1 $448 $595 $303 $440 reversed $301 $-1 #
edge $-1 $455 -12.024579398639863 $597 12.024579398639863 $439 $598 forward 7 unknown #
coedge $-1 $305 $304 $595 $599 forward $121 $-1 #
edge $-1 $446 -60.105594042786947 $597 60.105594042786947 $438 $600 forward 7 unknown #
coedge $-1 $451 $450 $305 $444 reversed $435 $-1 #
edge $-1 $601 -60.105594042786947 $445 60.105594042786947 $443 $602 forward 7 unknown #
vertex $-1 $307 $603 #
vertex $-1 $457 $604 #
straight-curve $-1 60.105594042786947 0 -12.024579398639863 0 -1 0 I I #
coedge $-1 $437 $439 $308 $449 reversed $301 $-1 #
edge $-1 $452 -42.022737935307049 $455 42.022737935307049 $448 $605 forward 7 unknown #
coedge $-1 $443 $309 $314 $458 forward $435 $-1 #
coedge $-1 $309 $443 $437 $596 reversed $435 $-1 #
vertex $-1 $310 $606 #
straight-curve $-1 0 42.022737935307049 12.024579398639863 -1 0 0 I I #
coedge $-1 $311 $438 $313 $457 reversed $190 $-1 #
vertex $-1 $449 $607 #
straight-curve $-1 0 -42.022737935307049 12.024579398639863 1 0 0 I I #
edge $-1 $316 -12.024579398639863 $446 12.024579398639863 $313 $608 forward 7 unknown #
edge $-1 $317 -12.024579398639863 $445 12.024579398639863 $314 $609 forward 7 unknown #
point $-1 60.105594042786947 -42.022737935307049 12.024579398639863 #
point $-1 60.105594042786947 42.022737935307049 12.024579398639863 #
face $-1 $-1 $471 $46 $-1 $610 reversed single #
loop $-1 $-1 $467 $319 #
plane-surface $-1 0 0 -12.024579398639863 0 0 1 1 0 0 forward_v I I I I #
coedge $-1 $611 $612 $327 $475 forward $320 $-1 #
coedge $-1 $322 $479 $469 $613 forward $198 $-1 #
edge $-1 $473 -24.646755613210484 $332 -10.105209030982646 $322 $614 forward 7 unknown #
coedge $-1 $615 $328 $323 $468 forward $462 $-1 #
edge $-1 $333 10.105209030982646 $472 24.646755613210484 $467 $616 forward 7 unknown #
coedge $-1 $617 $325 $465 $613 reversed $471 $-1 #
coedge $-1 $325 $617 $615 $618 reversed $471 $-1 #
loop $-1 $-1 $325 $461 #
vertex $-1 $618 $619 #
vertex $-1 $326 $620 #
straight-curve $-1 -53.786845825573891 -42.022737935307049 0 0 0 1 I I #
edge $-1 $480 -12.024579398639863 $477 12.024579398639863 $464 $621 forward 7 unknown #
coedge $-1 $328 $615 $611 $622 forward $462 $-1 #
vertex $-1 $329 $623 #
straight-curve $-1 -28.47310996709021 -27.481191353079211 -12.024579398639863 1 0 0 I I #
coedge $-1 $465 $330 $612 $624 forward $198 $-1 #
vertex $-1 $624 $625 #
straight-curve $-1 -28.47310996709021 -27.481191353079211 12.024579398639863 -1 0 0 I I #
point $-1 -53.786845825573891 -27.481191353079211 12.024579398639863 #
point $-1 -53.786845825573891 -27.481191353079211 -12.024579398639863 #
face $-1 $-1 $626 $47 $-1 $627 reversed single #
loop $-1 $-1 $490 $335 #
plane-surface $-1 0 0 12.024579398639863 0 0 1 1 0 0 forward_v I I I I #
coedge $-1 $338 $495 $628 $629 forward $206 $-1 #
edge $-1 $630 -24.64675561321048 $493 -10.105209030982643 $338 $631 forward 7 unknown #
coedge $-1 $340 $339 $632 $633 reversed $129 $-1 #
coedge $-1 $634 $345 $340 $491 forward $485 $-1 #
edge $-1 $492 10.105209030982643 $635 24.64675561321048 $490 $636 forward 7 unknown #
vertex $-1 $346 $637 #
vertex $-1 $344 $638 #
straight-curve $-1 -53.786845825573891 27.481191353079204 0 0 0 -1 I I #
coedge $-1 $487 $343 $348 $501 forward $206 $-1 #
straight-curve $-1 -28.47310996709021 27.481191353079204 -12.024579398639863 -1 0 0 I I #
coedge $-1 $345 $634 $347 $500 forward $485 $-1 #
straight-curve $-1 -28.47310996709021 27.481191353079204 12.024579398639863 1 0 0 I I #
coedge $-1 $348 $347 $639 $640 forward $336 $-1 #
edge $-1 $641 -42.022737935307049 $350 -27.481191353079204 $347 $642 forward 7 unknown #
edge $-1 $349 27.481191353079204 $643 42.022737935307049 $348 $644 forward 7 unknown #
point $-1 -60.105594042786947 27.481191353079204 -12.024579398639863 #
point $-1 -60.105594042786947 27.481191353079204 12.024579398639863 #
plane-surface $-1 0 0 12.024579398639863 0 0 1 1 0 0 forward_v I I I I #
coedge $-1 $515 $514 $507 $645 forward $353 $-1 #
coedge $-1 $507 $355 $357 $511 reversed $214 $-1 #
coedge $-1 $355 $506 $505 $645 reversed $214 $-1 #
coedge $-1 $363 $358 $355 $509 forward $364 $-1 #
edge $-1 $512 17.561047620337561 $646 28.569304008646753 $508 $647 forward 7 unknown #
coedge $-1 $357 $356 $515 $648 reversed $133 $-1 #
edge $-1 $649 -120.21118808557389 $512 -104.36418041727708 $506 $650 forward 7 unknown #
vertex $-1 $359 $651 #
straight-curve $-1 49.097337654477741 -12.19033998558651 12.024579398639879 0 -1 0 I I #
coedge $-1 $505 $360 $363 $519 reversed $353 $-1 #
coedge $-1 $360 $505 $510 $648 forward $353 $-1 #
vertex $-1 $361 $652 #
straight-curve $-1 60.105594042786947 -21.280168589266829 85.301797981611983 0 0 1 I I #
straight-curve $-1 -23.40011295807831 -21.280168589266829 87.097888962358695 0.69465836192734942 0 -0.71933980857756763 I I #
edge $-1 $646 -27.481191353079211 $365 -21.280168589266829 $514 $653 forward 7 unknown #
point $-1 60.105594042786947 -21.280168589266829 12.024579398639863 #
point $-1 49.097337654477755 -21.280168589266829 12.024579398639858 #
edge $-1 $654 1 $654 0 $368 $-1 forward 7 unknown #
vertex $-1 $369 $655 #
ellipse-curve $-1 53.83218255836546 -26.240986800316733 5.5819994468951792 0.71933980857756763 0 0.69465836192734942 0.34732918096367471 0 -0.35966990428878381 1 I I #
point $-1 54.948795029596027 -26.240986800316733 5.9652177630311574 #
edge $-1 $656 1 $656 0 $372 $-1 forward 7 unknown #
vertex $-1 $373 $657 #
ellipse-curve $-1 53.83218255836546 -24.38067997117302 5.5819994468951792 0.71933980857756763 0 0.69465836192734942 0.34732918096367471 0 -0.35966990428878381 1 I I #
point $-1 54.948795029596027 -24.38067997117302 5.9652177630311574 #
edge $-1 $658 1 $658 0 $376 $-1 forward 7 unknown #
vertex $-1 $377 $659 #
ellipse-curve $-1 53.83218255836546 -22.520373142029307 5.5819994468951792 0.71933980857756763 0 0.69465836192734942 0.34732918096367471 0 -0.35966990428878381 1 I I #
point $-1 54.948795029596027 -22.520373142029307 5.9652177630311574 #
loop $-1 $-1 $388 $380 #
plane-surface $-1 -60.105594042786947 0 0 1 0 0 0 0 -1 forward_v I I I I #
coedge $-1 $537 $383 $385 $541 reversed $243 $-1 #
coedge $-1 $383 $536 $660 $661 reversed $243 $-1 #
coedge $-1 $391 $386 $383 $539 forward $381 $-1 #
edge $-1 $542 -14.398446696879247 $662 -7.7728793955987214 $538 $663 forward 7 unknown #
coedge $-1 $385 $384 $545 $664 reversed $152 $-1 #
edge $-1 $665 -1.8310242626372826e-014 $542 8.5255121738133823 $536 $666 forward 7 unknown #
vertex $-1 $387 $667 #
straight-curve $-1 -53.480026741506421 -7.8246659965506833 12.024579398639863 0 1 0 I I #
coedge $-1 $660 $388 $391 $549 reversed $534 $-1 #
coedge $-1 $388 $660 $540 $664 forward $534 $-1 #
vertex $-1 $389 $668 #
straight-curve $-1 -60.105594042786947 -21.842826748596245 50.040469629412158 0 0 1 I I #
straight-curve $-1 -60.105594042786933 -21.842826748596245 6.6593006768917888 -0.77714595512881146 0 -0.62932039886446345 I I #
edge $-1 $662 9.4558372376064881 $392 21.842826748596245 $544 $669 forward 7 unknown #
point $-1 -60.105594042786947 -21.842826748596245 12.024579398639863 #
point $-1 -53.480026741506421 -21.842826748596245 12.024579398639863 #
edge $-1 $670 1 $670 0 $395 $-1 forward 7 unknown #
vertex $-1 $396 $671 #
ellipse-curve $-1 -55.047952509617431 -19.365428846398295 7.1872200443745333 -0.62932039886446345 0 0.77714595512881146 0.77714595512881146 0 0.62932039886446345 1 I I #
point $-1 -56.01566443701789 -19.365428846398295 9.9712604366302902 #
edge $-1 $672 1 $672 0 $399 $-1 forward 7 unknown #
vertex $-1 $400 $673 #
ellipse-curve $-1 -55.047952509617431 -15.64933199310137 7.1872200443745333 -0.62932039886446345 0 0.77714595512881146 0.77714595512881146 0 0.62932039886446345 1 I I #
point $-1 -56.01566443701789 -15.64933199310137 9.9712604366302902 #
edge $-1 $674 1 $674 0 $403 $-1 forward 7 unknown #
vertex $-1 $404 $675 #
ellipse-curve $-1 -55.047952509617431 -11.933235139804445 7.1872200443745333 -0.62932039886446345 0 0.77714595512881146 0.77714595512881146 0 0.62932039886446345 1 I I #
point $-1 -56.01566443701789 -11.933235139804445 9.9712604366302902 #
loop $-1 $-1 $415 $407 #
plane-surface $-1 -60.105594042786947 0 0 1 0 0 0 0 -1 forward_v I I I I #
coedge $-1 $567 $410 $412 $571 reversed $272 $-1 #
coedge $-1 $410 $566 $676 $677 reversed $272 $-1 #
coedge $-1 $418 $413 $410 $569 forward $408 $-1 #
edge $-1 $572 -14.398446696879247 $678 -7.7728793955987214 $568 $679 forward 7 unknown #
coedge $-1 $412 $411 $575 $680 reversed $171 $-1 #
edge $-1 $681 -1.8310242626372826e-014 $572 8.5255121738133823 $566 $682 forward 7 unknown #
vertex $-1 $414 $683 #
straight-curve $-1 -53.480026741506421 7.8246659965506851 12.024579398639863 0 1 0 I I #
coedge $-1 $676 $415 $418 $579 reversed $564 $-1 #
coedge $-1 $415 $676 $570 $680 forward $564 $-1 #
vertex $-1 $416 $684 #
straight-curve $-1 -60.105594042786947 9.4558372376064916 50.040469629412158 0 0 1 I I #
straight-curve $-1 -60.105594042786933 9.4558372376064916 6.6593006768917888 -0.77714595512881146 0 -0.62932039886446345 I I #
edge $-1 $678 -21.842826748596249 $419 -9.4558372376064916 $574 $685 forward 7 unknown #
point $-1 -60.105594042786947 9.4558372376064916 12.024579398639863 #
point $-1 -53.480026741506421 9.4558372376064916 12.024579398639863 #
edge $-1 $686 1 $686 0 $422 $-1 forward 7 unknown #
vertex $-1 $423 $687 #
ellipse-curve $-1 -55.047952509617431 11.933235139804438 7.1872200443745333 -0.62932039886446345 0 0.77714595512881146 0.77714595512881146 0 0.62932039886446345 1 I I #
point $-1 -56.01566443701789 11.933235139804438 9.9712604366302902 #
edge $-1 $688 1 $688 0 $426 $-1 forward 7 unknown #
vertex $-1 $427 $689 #
ellipse-curve $-1 -55.047952509617431 15.64933199310137 7.1872200443745333 -0.62932039886446345 0 0.77714595512881146 0.77714595512881146 0 0.62932039886446345 1 I I #
point $-1 -56.01566443701789 15.64933199310137 9.9712604366302902 #
edge $-1 $690 1 $690 0 $430 $-1 forward 7 unknown #
vertex $-1 $431 $691 #
ellipse-curve $-1 -55.047952509617431 19.365428846398288 7.1872200443745333 -0.62932039886446345 0 0.77714595512881146 0.77714595512881146 0 0.62932039886446345 1 I I #
point $-1 -56.01566443701789 19.365428846398288 9.9712604366302902 #
plane-surface $-1 60.105594042786947 0 0 -1 0 0 0 0 1 forward_v I I I I #
coedge $-1 $439 $437 $441 $599 reversed $301 $-1 #
edge $-1 $452 -12.024579398639863 $601 12.024579398639863 $451 $692 forward 7 unknown #
vertex $-1 $599 $693 #
straight-curve $-1 -60.105594042786947 -42.022737935307049 0 0 0 -1 I I #
edge $-1 $597 -42.022737935307049 $601 42.022737935307049 $595 $694 forward 7 unknown #
straight-curve $-1 0 -42.022737935307049 -12.024579398639863 -1 0 0 I I #
vertex $-1 $444 $695 #
straight-curve $-1 0 42.022737935307049 -12.024579398639863 1 0 0 I I #
point $-1 60.105594042786947 42.022737935307049 -12.024579398639863 #
point $-1 60.105594042786947 -42.022737935307049 -12.024579398639863 #
straight-curve $-1 -60.105594042786947 0 12.024579398639863 0 -1 0 I I #
point $-1 -60.105594042786947 42.022737935307049 12.024579398639863 #
point $-1 -60.105594042786947 -42.022737935307049 12.024579398639863 #
straight-curve $-1 60.105594042786947 -42.022737935307049 0 0 0 -1 I I #
straight-curve $-1 60.105594042786947 42.022737935307049 0 0 0 -1 I I #
plane-surface $-1 0 -42.022737935307049 0 0 1 0 0 0 1 forward_v I I I I #
coedge $-1 $696 $464 $476 $622 reversed $320 $-1 #
coedge $-1 $464 $696 $479 $624 reversed $320 $-1 #
edge $-1 $697 -60.105594042786947 $473 -53.786845825573891 $469 $698 forward 7 unknown #
straight-curve $-1 -53.786845825573891 -17.375982322096565 12.024579398639863 0 1 0 I I #
coedge $-1 $476 $467 $470 $618 forward $462 $-1 #
straight-curve $-1 -53.786845825573891 -17.375982322096565 -12.024579398639863 0 -1 0 I I #
coedge $-1 $470 $469 $696 $699 forward $471 $-1 #
edge $-1 $472 53.786845825573891 $700 60.105594042786947 $470 $701 forward 7 unknown #
point $-1 -53.786845825573891 -42.022737935307049 -12.024579398639863 #
point $-1 -53.786845825573891 -42.022737935307049 12.024579398639863 #
straight-curve $-1 -60.105594042786947 -27.481191353079211 0 0 0 -1 I I #
edge $-1 $700 -42.022737935307049 $477 -27.481191353079211 $611 $702 forward 7 unknown #
point $-1 -60.105594042786947 -27.481191353079211 -12.024579398639863 #
edge $-1 $480 27.481191353079211 $697 42.022737935307049 $612 $703 forward 7 unknown #
point $-1 -60.105594042786947 -27.481191353079211 12.024579398639863 #
loop $-1 $-1 $632 $484 #
plane-surface $-1 0 42.022737935307049 0 0 -1 0 0 0 -1 forward_v I I I I #
coedge $-1 $639 $632 $487 $629 reversed $626 $-1 #
edge $-1 $643 -60.105594042786947 $630 -53.786845825573891 $628 $704 forward 7 unknown #
vertex $-1 $488 $705 #
straight-curve $-1 -53.786845825573891 17.375982322096561 -12.024579398639863 0 -1 0 I I #
coedge $-1 $628 $706 $489 $633 forward $626 $-1 #
edge $-1 $635 -12.024579398639863 $630 12.024579398639863 $632 $707 forward 7 unknown #
coedge $-1 $497 $490 $706 $708 forward $485 $-1 #
vertex $-1 $708 $709 #
straight-curve $-1 -53.786845825573891 17.375982322096561 12.024579398639863 0 1 0 I I #
point $-1 -53.786845825573891 27.481191353079204 12.024579398639863 #
point $-1 -53.786845825573891 27.481191353079204 -12.024579398639863 #
coedge $-1 $706 $628 $499 $640 reversed $626 $-1 #
edge $-1 $641 -12.024579398639863 $643 12.024579398639863 $639 $710 forward 7 unknown #
vertex $-1 $708 $711 #
straight-curve $-1 -60.105594042786947 0 12.024579398639863 0 -1 0 I I #
vertex $-1 $629 $712 #
straight-curve $-1 -60.105594042786947 0 -12.024579398639863 0 1 0 I I #
edge $-1 $646 73.277218582972125 $649 84.676602045611986 $505 $713 forward 7 unknown #
vertex $-1 $519 $714 #
straight-curve $-1 31.536290034140194 -27.481191353079211 12.024579398639858 1 0 0 I I #
edge $-1 $649 -15.290851367492701 $516 -9.0898286036803189 $515 $715 forward 7 unknown #
vertex $-1 $648 $716 #
straight-curve $-1 -23.40011295807831 -27.481191353079211 87.097888962358695 -0.69465836192734942 0 0.71933980857756763 I I #
point $-1 49.097337654477755 -27.481191353079211 12.024579398639858 #
point $-1 60.105594042786947 -21.280168589266829 0.62519593599999723 #
straight-curve $-1 60.105594042786947 0 12.024579398639863 0 1 0 I I #
vertex $-1 $522 $717 #
point $-1 54.179511739329136 -26.240986800316733 5.2223295426063956 #
vertex $-1 $526 $718 #
point $-1 54.179511739329136 -24.38067997117302 5.2223295426063956 #
vertex $-1 $530 $719 #
point $-1 54.179511739329136 -22.520373142029307 5.2223295426063956 #
coedge $-1 $545 $544 $537 $661 forward $534 $-1 #
edge $-1 $662 38.015890230772293 $665 43.381168952520383 $660 $720 forward 7 unknown #
vertex $-1 $549 $721 #
straight-curve $-1 -67.878473438385669 -9.4558372376064881 12.024579398639865 -1 0 0 I I #
edge $-1 $665 1.6311712410558048 $546 14.018160752045562 $545 $722 forward 7 unknown #
vertex $-1 $664 $723 #
straight-curve $-1 -60.105594042786933 -9.4558372376064881 6.6593006768917888 0.77714595512881146 0 0.62932039886446345 I I #
point $-1 -53.480026741506421 -9.4558372376064881 12.024579398639863 #
point $-1 -60.105594042786947 -21.842826748596245 6.6593006768917773 #
straight-curve $-1 -60.105594042786947 0 12.024579398639863 0 -1 0 I I #
vertex $-1 $552 $724 #
point $-1 -54.270806554488622 -19.365428846398295 7.8165404432389973 #
vertex $-1 $556 $725 #
point $-1 -54.270806554488622 -15.64933199310137 7.8165404432389973 #
vertex $-1 $560 $726 #
point $-1 -54.270806554488622 -11.933235139804445 7.8165404432389973 #
coedge $-1 $575 $574 $567 $677 forward $564 $-1 #
edge $-1 $678 38.015890230772293 $681 43.381168952520383 $676 $727 forward 7 unknown #
vertex $-1 $579 $728 #
straight-curve $-1 -67.878473438385669 21.842826748596249 12.024579398639865 -1 0 0 I I #
edge $-1 $681 -14.018160752045564 $576 -1.6311712410558066 $575 $729 forward 7 unknown #
vertex $-1 $680 $730 #
straight-curve $-1 -60.105594042786933 21.842826748596249 6.6593006768917888 0.77714595512881146 0 0.62932039886446345 I I #
point $-1 -53.480026741506421 21.842826748596249 12.024579398639863 #
point $-1 -60.105594042786947 9.4558372376064916 6.6593006768917773 #
straight-curve $-1 -60.105594042786947 0 12.024579398639863 0 -1 0 I I #
vertex $-1 $582 $731 #
point $-1 -54.270806554488622 11.933235139804438 7.8165404432389973 #
vertex $-1 $586 $732 #
point $-1 -54.270806554488622 15.64933199310137 7.8165404432389973 #
vertex $-1 $590 $733 #
point $-1 -54.270806554488622 19.365428846398288 7.8165404432389973 #
straight-curve $-1 -60.105594042786947 42.022737935307049 0 0 0 -1 I I #
point $-1 -60.105594042786947 -42.022737935307049 -12.024579398639863 #
straight-curve $-1 -60.105594042786947 0 -12.024579398639863 0 1 0 I I #
point $-1 -60.105594042786947 42.022737935307049 -12.024579398639863 #
coedge $-1 $612 $611 $617 $699 reversed $320 $-1 #
vertex $-1 $624 $734 #
straight-curve $-1 0 -42.022737935307049 12.024579398639863 1 0 0 I I #
edge $-1 $697 -12.024579398639863 $700 12.024579398639863 $696 $735 forward 7 unknown #
vertex $-1 $622 $736 #
straight-curve $-1 0 -42.022737935307049 -12.024579398639863 -1 0 0 I I #
straight-curve $-1 -60.105594042786947 0 -12.024579398639863 0 1 0 I I #
straight-curve $-1 -60.105594042786947 0 12.024579398639863 0 -1 0 I I #
straight-curve $-1 0 42.022737935307049 -12.024579398639863 1 0 0 I I #
point $-1 -53.786845825573891 42.022737935307042 -12.024579398639863 #
coedge $-1 $632 $639 $634 $708 reversed $626 $-1 #
straight-curve $-1 -53.786845825573891 42.022737935307049 0 0 0 -1 I I #
edge $-1 $635 53.786845825573891 $641 60.105594042786947 $706 $737 forward 7 unknown #
point $-1 -53.786845825573891 42.022737935307042 12.024579398639863 #
straight-curve $-1 -60.105594042786947 42.022737935307049 0 0 0 -1 I I #
point $-1 -60.105594042786947 42.022737935307049 12.024579398639863 #
point $-1 -60.105594042786947 42.022737935307049 -12.024579398639863 #
straight-curve $-1 60.105594042786947 -27.481191353079211 85.301797981611983 0 0 -1 I I #
point $-1 60.105594042786947 -27.481191353079211 12.024579398639863 #
straight-curve $-1 60.105594042786947 -12.19033998558651 0.62519593600001144 0 1 0 I I #
point $-1 60.105594042786947 -27.481191353079211 0.62519593599999723 #
point $-1 53.472512654076681 -26.240986800316733 5.2346702659315048 #
point $-1 53.472512654076681 -24.38067997117302 5.2346702659315048 #
point $-1 53.472512654076681 -22.520373142029307 5.2346702659315048 #
straight-curve $-1 -60.105594042786947 -9.4558372376064881 50.040469629412158 0 0 -1 I I #
point $-1 -60.105594042786947 -9.4558372376064881 12.024579398639863 #
straight-curve $-1 -60.105594042786947 -7.8246659965506833 6.6593006768917764 0 -1 0 I I #
point $-1 -60.105594042786947 -9.4558372376064881 6.6593006768917773 #
point $-1 -54.418632110752966 -19.365428846398295 6.4100740892457226 #
point $-1 -54.418632110752966 -15.64933199310137 6.4100740892457226 #
point $-1 -54.418632110752966 -11.933235139804445 6.4100740892457226 #
straight-curve $-1 -60.105594042786947 21.842826748596249 50.040469629412158 0 0 -1 I I #
point $-1 -60.105594042786947 21.842826748596249 12.024579398639863 #
straight-curve $-1 -60.105594042786947 7.8246659965506851 6.6593006768917764 0 -1 0 I I #
point $-1 -60.105594042786947 21.842826748596249 6.6593006768917773 #
point $-1 -54.418632110752966 11.933235139804438 6.4100740892457226 #
point $-1 -54.418632110752966 15.64933199310137 6.4100740892457226 #
point $-1 -54.418632110752966 19.365428846398288 6.4100740892457226 #
point $-1 -60.105594042786947 -42.022737935307049 12.024579398639863 #
straight-curve $-1 -60.105594042786947 -42.022737935307049 0 0 0 -1 I I #
point $-1 -60.105594042786947 -42.022737935307049 -12.024579398639863 #
straight-curve $-1 0 42.022737935307049 12.024579398639863 -1 0 0 I I #
End-of-ACIS-data 