500 0 10 0           
7 Unknown 11 ACIS 5.0 NT 24 Fri Mar 26 17:04:57 1999 
-1 9.9999999999999995e-007 1e-010 
body $-1 $10 $-1 $11 #
body $-1 $12 $-1 $13 #
body $-1 $14 $-1 $15 #
body $-1 $16 $-1 $17 #
body $-1 $18 $-1 $19 #
body $-1 $20 $-1 $21 #
body $-1 $22 $-1 $23 #
body $-1 $24 $-1 $25 #
body $-1 $26 $-1 $27 #
body $-1 $28 $-1 $29 #
lump $-1 $-1 $30 $0 #
transform $-1 1 0 0 0 1 0 0 0 1 77.159337137974177 45.381002638496376 10.072956642049867 1 rotate no_reflect no_shear #
lump $-1 $-1 $31 $1 #
transform $-1 1 0 0 0 1 0 0 0 1 77.159337137974177 45.381002638496376 10.072956642049867 1 rotate no_reflect no_shear #
lump $-1 $-1 $32 $2 #
transform $-1 1 0 0 0 1 0 0 0 1 77.159337137974177 45.381002638496376 10.072956642049867 1 rotate no_reflect no_shear #
lump $-1 $-1 $33 $3 #
transform $-1 1 0 0 0 1 0 0 0 1 77.159337137974177 45.381002638496376 10.072956642049867 1 rotate no_reflect no_shear #
lump $-1 $-1 $34 $4 #
transform $-1 1 0 0 0 1 0 0 0 1 77.159337137974177 45.381002638496376 10.072956642049867 1 rotate no_reflect no_shear #
lump $-1 $-1 $35 $5 #
transform $-1 1 0 0 0 1 0 0 0 1 77.159337137974177 45.381002638496376 10.072956642049867 1 rotate no_reflect no_shear #
lump $-1 $-1 $36 $6 #
transform $-1 1 0 0 0 1 0 0 0 1 77.159337137974177 45.381002638496376 10.072956642049867 1 rotate no_reflect no_shear #
lump $-1 $-1 $37 $7 #
transform $-1 1 0 0 0 1 0 0 0 1 77.159337137974177 45.381002638496376 10.072956642049867 1 rotate no_reflect no_shear #
lump $-1 $-1 $38 $8 #
transform $-1 1 0 0 0 1 0 0 0 1 77.159337137974177 45.381002638496376 10.072956642049867 1 rotate no_reflect no_shear #
lump $-1 $-1 $39 $9 #
transform $-1 1 0 0 0 1 0 0 0 1 77.159337137974177 45.381002638496376 10.072956642049867 1 rotate no_reflect no_shear #
shell $-1 $-1 $-1 $40 $-1 $10 #
shell $-1 $-1 $-1 $41 $-1 $12 #
shell $-1 $-1 $-1 $42 $-1 $14 #
shell $-1 $-1 $-1 $43 $-1 $16 #
shell $-1 $-1 $-1 $44 $-1 $18 #
shell $-1 $-1 $-1 $45 $-1 $20 #
shell $-1 $-1 $-1 $46 $-1 $22 #
shell $-1 $-1 $-1 $47 $-1 $24 #
shell $-1 $-1 $-1 $48 $-1 $26 #
shell $-1 $-1 $-1 $49 $-1 $28 #
face $-1 $50 $51 $30 $-1 $52 forward single #
face $-1 $53 $54 $31 $-1 $55 forward single #
face $-1 $56 $57 $32 $-1 $58 reversed single #
face $-1 $59 $60 $33 $-1 $61 forward single #
face $-1 $62 $63 $34 $-1 $64 reversed single #
face $-1 $65 $66 $35 $-1 $67 forward single #
face $-1 $68 $69 $36 $-1 $70 reversed single #
face $-1 $71 $72 $37 $-1 $73 forward single #
face $-1 $74 $75 $38 $-1 $76 reversed single #
face $-1 $77 $78 $39 $-1 $79 forward single #
face $-1 $80 $81 $30 $-1 $82 reversed single #
loop $-1 $-1 $83 $40 #
plane-surface $-1 0 0 10.072956642049867 0 0 1 1 0 0 forward_v I I I I #
face $-1 $84 $85 $31 $-1 $86 reversed single #
loop $-1 $-1 $87 $41 #
plane-surface $-1 0 -45.381002638496376 0 0 1 0 0 0 1 forward_v I I I I #
face $-1 $88 $89 $32 $-1 $90 reversed single #
loop $-1 $-1 $91 $42 #
plane-surface $-1 133.64389546244794 -19.572129298585899 216.94347092402512 0 -1 0 -0.86602541151947299 0 -0.49999998660252726 forward_v I I I I #
face $-1 $92 $93 $33 $-1 $94 forward single #
loop $-1 $95 $96 $43 #
cone-surface $-1 75.18112801265444 -25.735828875181149 7.6199323371742027 -0.86602541151947299 0 -0.49999998660252726 0.24999999330126363 0 -0.43301270575973649 1 I I 0 1 0.5 forward I I I I #
face $-1 $97 $98 $34 $-1 $99 reversed single #
loop $-1 $-1 $100 $44 #
plane-surface $-1 133.64389546244794 1.0978887127225452 216.94347092402512 0 -1 0 -0.86602541151947299 0 -0.49999998660252726 forward_v I I I I #
face $-1 $101 $102 $35 $-1 $103 forward single #
loop $-1 $104 $105 $45 #
cone-surface $-1 75.18112801265444 -5.0658108638727057 7.6199323371742027 -0.86602541151947299 0 -0.49999998660252726 0.24999999330126363 0 -0.43301270575973649 1 I I 0 1 0.5 forward I I I I #
face $-1 $106 $107 $36 $-1 $108 reversed single #
loop $-1 $-1 $109 $46 #
plane-surface $-1 133.64389546244794 21.767906724030986 216.94347092402512 0 -1 0 -0.86602541151947299 0 -0.49999998660252726 forward_v I I I I #
face $-1 $110 $111 $37 $-1 $112 forward single #
loop $-1 $113 $114 $47 #
cone-surface $-1 75.18112801265444 15.604207147435737 7.6199323371742027 -0.86602541151947299 0 -0.49999998660252726 0.24999999330126363 0 -0.43301270575973649 1 I I 0 1 0.5 forward I I I I #
face $-1 $115 $116 $38 $-1 $117 reversed single #
loop $-1 $-1 $118 $48 #
plane-surface $-1 133.64389546244794 42.437924735339429 216.94347092402512 0 -1 0 -0.86602541151947299 0 -0.49999998660252726 forward_v I I I I #
face $-1 $119 $120 $39 $-1 $121 forward single #
loop $-1 $122 $123 $49 #
cone-surface $-1 75.18112801265444 36.27422515874418 7.6199323371742027 -0.86602541151947299 0 -0.49999998660252726 0.24999999330126363 0 -0.43301270575973649 1 I I 0 1 0.5 forward I I I I #
face $-1 $124 $125 $30 $-1 $126 reversed single #
loop $-1 $-1 $127 $50 #
plane-surface $-1 0 0 -10.072956642049867 0 0 1 1 0 0 forward_v I I I I #
coedge $-1 $128 $129 $130 $131 forward $51 $-1 #
face $-1 $132 $133 $31 $-1 $134 reversed single #
loop $-1 $-1 $135 $53 #
plane-surface $-1 0 0 -10.072956642049867 0 0 1 1 0 0 forward_v I I I I #
coedge $-1 $136 $137 $138 $139 forward $54 $-1 #
face $-1 $140 $141 $32 $-1 $142 reversed single #
loop $-1 $-1 $143 $56 #
plane-surface $-1 2.0674802669873316e-006 -25.735828875181149 139.78413585353118 0.86602541151947299 0 0.49999998660252726 0.49999998660252726 0 -0.86602541151947299 forward_v I I I I #
coedge $-1 $144 $145 $146 $147 reversed $57 $-1 #
face $-1 $-1 $148 $33 $-1 $149 forward single #
loop $-1 $150 $151 $59 #
cone-surface $-1 74.121689290136118 -25.735828875181149 7.0082651273911196 -0.86602541151947299 0 -0.49999998660252726 0.12499999665063181 0 -0.21650635287986825 1 I I -0.70710678118654746 0.70710678118654746 0.25 forward I I I I #
loop $-1 $-1 $152 $43 #
coedge $-1 $96 $96 $153 $154 reversed $60 $-1 #
face $-1 $155 $156 $34 $-1 $157 reversed single #
loop $-1 $-1 $158 $62 #
plane-surface $-1 2.0674802669873316e-006 -5.0658108638727057 139.78413585353118 0.86602541151947299 0 0.49999998660252726 0.49999998660252726 0 -0.86602541151947299 forward_v I I I I #
coedge $-1 $159 $160 $161 $162 reversed $63 $-1 #
face $-1 $-1 $163 $35 $-1 $164 forward single #
loop $-1 $165 $166 $65 #
cone-surface $-1 74.121689290136118 -5.0658108638727057 7.0082651273911196 -0.86602541151947299 0 -0.49999998660252726 0.12499999665063181 0 -0.21650635287986825 1 I I -0.70710678118654746 0.70710678118654746 0.25 forward I I I I #
loop $-1 $-1 $167 $45 #
coedge $-1 $105 $105 $168 $169 reversed $66 $-1 #
face $-1 $170 $171 $36 $-1 $172 reversed single #
loop $-1 $-1 $173 $68 #
plane-surface $-1 2.0674802669873316e-006 15.604207147435737 139.78413585353118 0.86602541151947299 0 0.49999998660252726 0.49999998660252726 0 -0.86602541151947299 forward_v I I I I #
coedge $-1 $174 $175 $176 $177 reversed $69 $-1 #
face $-1 $-1 $178 $37 $-1 $179 forward single #
loop $-1 $180 $181 $71 #
cone-surface $-1 74.121689290136118 15.604207147435737 7.0082651273911196 -0.86602541151947299 0 -0.49999998660252726 0.12499999665063181 0 -0.21650635287986825 1 I I -0.70710678118654746 0.70710678118654746 0.25 forward I I I I #
loop $-1 $-1 $182 $47 #
coedge $-1 $114 $114 $183 $184 reversed $72 $-1 #
face $-1 $185 $186 $38 $-1 $187 reversed single #
loop $-1 $-1 $188 $74 #
plane-surface $-1 2.0674802669873316e-006 36.27422515874418 139.78413585353118 0.86602541151947299 0 0.49999998660252726 0.49999998660252726 0 -0.86602541151947299 forward_v I I I I #
coedge $-1 $189 $190 $191 $192 reversed $75 $-1 #
face $-1 $-1 $193 $39 $-1 $194 forward single #
loop $-1 $195 $196 $77 #
cone-surface $-1 74.121689290136118 36.27422515874418 7.0082651273911196 -0.86602541151947299 0 -0.49999998660252726 0.12499999665063181 0 -0.21650635287986825 1 I I -0.70710678118654746 0.70710678118654746 0.25 forward I I I I #
loop $-1 $-1 $197 $49 #
coedge $-1 $123 $123 $198 $199 reversed $78 $-1 #
face $-1 $200 $201 $30 $-1 $202 reversed single #
loop $-1 $-1 $203 $80 #
plane-surface $-1 0 -45.381002638496376 0 0 1 0 0 0 1 forward_v I I I I #
coedge $-1 $204 $205 $206 $207 forward $81 $-1 #
coedge $-1 $208 $83 $209 $210 forward $51 $-1 #
coedge $-1 $83 $208 $211 $212 forward $51 $-1 #
coedge $-1 $213 $214 $83 $131 reversed $215 $-1 #
edge $-1 $216 -45.381002638496376 $217 45.381002638496376 $130 $218 forward 7 unknown #
face $-1 $219 $220 $31 $-1 $221 reversed single #
loop $-1 $-1 $222 $84 #
plane-surface $-1 -59.811453702816173 -55.919398922059408 0 0 1 0 0 0 1 forward_v I I I I #
coedge $-1 $223 $224 $137 $225 forward $85 $-1 #
coedge $-1 $226 $87 $227 $228 reversed $54 $-1 #
coedge $-1 $87 $226 $135 $225 reversed $54 $-1 #
coedge $-1 $229 $230 $87 $139 reversed $220 $-1 #
edge $-1 $231 -10.072956642049867 $232 10.072956642049867 $138 $233 forward 7 unknown #
face $-1 $234 $235 $32 $-1 $236 forward single #
loop $-1 $-1 $237 $88 #
plane-surface $-1 133.64389546244794 -31.899528451776398 216.94347092402512 0 1 0 0.86602541151947299 0 0.49999998660252726 forward_v I I I I #
coedge $-1 $238 $239 $240 $241 reversed $89 $-1 #
coedge $-1 $145 $91 $242 $243 reversed $57 $-1 #
coedge $-1 $91 $144 $238 $244 reversed $57 $-1 #
coedge $-1 $240 $245 $91 $147 forward $235 $-1 #
edge $-1 $246 -10.337389406750205 $247 -8.0668358953876833 $146 $248 forward 7 unknown #
loop $-1 $-1 $153 $92 #
plane-surface $-1 2.0674802669873316e-006 -25.735828875181149 139.78413585353118 0.86602541151947299 0 0.49999998660252726 0.49999998660252726 0 -0.86602541151947299 forward_v I I I I #
loop $-1 $-1 $249 $59 #
coedge $-1 $151 $151 $152 $250 reversed $93 $-1 #
coedge $-1 $152 $152 $151 $250 forward $95 $-1 #
coedge $-1 $153 $153 $96 $154 forward $148 $-1 #
edge $-1 $251 0 $251 6.2831853071796004 $153 $252 forward 7 unknown #
face $-1 $253 $254 $34 $-1 $255 reversed single #
loop $-1 $-1 $256 $97 #
plane-surface $-1 133.64389546244794 -11.229510440467957 216.94347092402512 0 1 0 0.86602541151947299 0 0.49999998660252726 forward_v I I I I #
coedge $-1 $257 $258 $259 $260 reversed $98 $-1 #
coedge $-1 $160 $100 $261 $262 reversed $63 $-1 #
coedge $-1 $100 $159 $257 $263 reversed $63 $-1 #
coedge $-1 $259 $264 $100 $162 forward $265 $-1 #
edge $-1 $266 -10.337389406750205 $267 -8.0668358953876833 $161 $268 forward 7 unknown #
loop $-1 $-1 $168 $101 #
plane-surface $-1 2.0674802669873316e-006 -5.0658108638727057 139.78413585353118 0.86602541151947299 0 0.49999998660252726 0.49999998660252726 0 -0.86602541151947299 forward_v I I I I #
loop $-1 $-1 $269 $65 #
coedge $-1 $166 $166 $167 $270 reversed $102 $-1 #
coedge $-1 $167 $167 $166 $270 forward $104 $-1 #
coedge $-1 $168 $168 $105 $169 forward $163 $-1 #
edge $-1 $271 0 $271 6.2831853071796004 $168 $272 forward 7 unknown #
face $-1 $273 $274 $36 $-1 $275 reversed single #
loop $-1 $-1 $276 $106 #
plane-surface $-1 133.64389546244794 9.4405075708404862 216.94347092402512 0 1 0 0.86602541151947299 0 0.49999998660252726 forward_v I I I I #
coedge $-1 $277 $278 $279 $280 reversed $107 $-1 #
coedge $-1 $175 $109 $281 $282 reversed $69 $-1 #
coedge $-1 $109 $174 $277 $283 reversed $69 $-1 #
coedge $-1 $279 $284 $109 $177 forward $285 $-1 #
edge $-1 $286 -10.337389406750205 $287 -8.0668358953876833 $176 $288 forward 7 unknown #
loop $-1 $-1 $183 $110 #
plane-surface $-1 2.0674802669873316e-006 15.604207147435737 139.78413585353118 0.86602541151947299 0 0.49999998660252726 0.49999998660252726 0 -0.86602541151947299 forward_v I I I I #
loop $-1 $-1 $289 $71 #
coedge $-1 $181 $181 $182 $290 reversed $111 $-1 #
coedge $-1 $182 $182 $181 $290 forward $113 $-1 #
coedge $-1 $183 $183 $114 $184 forward $178 $-1 #
edge $-1 $291 0 $291 6.2831853071796004 $183 $292 forward 7 unknown #
face $-1 $293 $294 $38 $-1 $295 reversed single #
loop $-1 $-1 $296 $115 #
plane-surface $-1 133.64389546244794 30.110525582148931 216.94347092402512 0 1 0 0.86602541151947299 0 0.49999998660252726 forward_v I I I I #
coedge $-1 $297 $298 $299 $300 reversed $116 $-1 #
coedge $-1 $190 $118 $301 $302 reversed $75 $-1 #
coedge $-1 $118 $189 $297 $303 reversed $75 $-1 #
coedge $-1 $299 $304 $118 $192 forward $305 $-1 #
edge $-1 $306 -10.337389406750205 $307 -8.0668358953876833 $191 $308 forward 7 unknown #
loop $-1 $-1 $198 $119 #
plane-surface $-1 2.0674802669873316e-006 36.27422515874418 139.78413585353118 0.86602541151947299 0 0.49999998660252726 0.49999998660252726 0 -0.86602541151947299 forward_v I I I I #
loop $-1 $-1 $309 $77 #
coedge $-1 $196 $196 $197 $310 reversed $120 $-1 #
coedge $-1 $197 $197 $196 $310 forward $122 $-1 #
coedge $-1 $198 $198 $123 $199 forward $193 $-1 #
edge $-1 $311 0 $311 6.2831853071796004 $198 $312 forward 7 unknown #
face $-1 $313 $314 $30 $-1 $315 reversed single #
loop $-1 $-1 $316 $124 #
plane-surface $-1 -77.159337137974177 0 0 1 0 0 0 0 -1 forward_v I I I I #
coedge $-1 $317 $211 $318 $319 forward $125 $-1 #
coedge $-1 $320 $127 $317 $321 forward $81 $-1 #
coedge $-1 $127 $320 $322 $323 forward $81 $-1 #
coedge $-1 $214 $213 $127 $207 reversed $215 $-1 #
edge $-1 $324 -45.381002638496376 $325 45.381002638496376 $206 $326 forward 7 unknown #
coedge $-1 $129 $128 $327 $328 forward $51 $-1 #
coedge $-1 $329 $330 $128 $210 reversed $314 $-1 #
edge $-1 $217 -77.159337137974177 $331 77.159337137974177 $209 $332 forward 7 unknown #
coedge $-1 $203 $333 $129 $212 reversed $125 $-1 #
edge $-1 $334 -77.159337137974177 $216 77.159337137974177 $211 $335 forward 7 unknown #
coedge $-1 $206 $130 $333 $336 forward $215 $-1 #
coedge $-1 $130 $206 $329 $337 reversed $215 $-1 #
loop $-1 $-1 $213 $313 #
vertex $-1 $131 $338 #
vertex $-1 $131 $339 #
straight-curve $-1 77.159337137974177 0 10.072956642049867 0 1 0 I I #
face $-1 $340 $341 $31 $-1 $342 reversed single #
loop $-1 $-1 $138 $132 #
plane-surface $-1 -62.609483551757904 -50.650200780277892 0 1 0 0 0 0 -1 forward_v I I I I #
coedge $-1 $343 $344 $345 $346 forward $133 $-1 #
coedge $-1 $347 $135 $348 $349 forward $85 $-1 #
coedge $-1 $135 $347 $229 $350 forward $85 $-1 #
edge $-1 $231 -62.609483551757904 $351 -57.013423853874443 $135 $352 forward 7 unknown #
coedge $-1 $137 $136 $353 $354 forward $54 $-1 #
coedge $-1 $355 $356 $136 $228 forward $357 $-1 #
edge $-1 $358 57.013423853874443 $232 62.609483551757904 $227 $359 forward 7 unknown #
coedge $-1 $345 $138 $224 $350 reversed $220 $-1 #
coedge $-1 $138 $345 $355 $360 reversed $220 $-1 #
vertex $-1 $225 $361 #
vertex $-1 $360 $362 #
straight-curve $-1 -62.609483551757904 -45.381002638496376 0 0 0 1 I I #
face $-1 $-1 $363 $32 $-1 $364 reversed single #
loop $-1 $-1 $146 $140 #
plane-surface $-1 0 0 10.072956642049867 0 0 1 1 0 0 forward_v I I I I #
coedge $-1 $365 $366 $367 $368 reversed $141 $-1 #
coedge $-1 $369 $143 $145 $244 forward $89 $-1 #
coedge $-1 $143 $369 $365 $370 forward $89 $-1 #
coedge $-1 $367 $146 $143 $241 forward $235 $-1 #
edge $-1 $247 6.7042148609953252 $371 19.031614014185823 $240 $372 forward 7 unknown #
coedge $-1 $373 $374 $144 $243 forward $363 $-1 #
edge $-1 $375 -102.331493003449 $246 -98.3987788199627 $242 $376 forward 7 unknown #
edge $-1 $247 149.77756713154452 $375 154.31867427594827 $145 $377 forward 7 unknown #
coedge $-1 $146 $367 $373 $378 forward $235 $-1 #
vertex $-1 $147 $379 #
vertex $-1 $147 $380 #
straight-curve $-1 66.821947731223972 -19.572129298585899 10.07295664204986 -1 0 0 I I #
coedge $-1 $249 $249 $-1 $381 reversed $150 $-1 #
edge $-1 $382 0 $382 6.2831853071796004 $151 $383 forward 7 unknown #
vertex $-1 $154 $384 #
ellipse-curve $-1 76.02406038229293 -25.735828875181149 8.1065995503066723 0.86602541151947299 0 0.49999998660252726 0.24999999330126363 0 -0.43301270575973649 1 I I #
face $-1 $-1 $265 $34 $-1 $385 forward single #
loop $-1 $-1 $386 $155 #
plane-surface $-1 77.159337137974177 0 0 -1 0 0 0 0 1 forward_v I I I I #
coedge $-1 $387 $388 $389 $390 reversed $156 $-1 #
coedge $-1 $391 $158 $160 $263 forward $98 $-1 #
coedge $-1 $158 $391 $387 $392 forward $98 $-1 #
coedge $-1 $389 $161 $158 $260 forward $265 $-1 #
edge $-1 $267 -3.630794144658898 $393 8.6966050085316038 $259 $394 forward 7 unknown #
coedge $-1 $395 $396 $159 $262 forward $254 $-1 #
edge $-1 $397 -102.331493003449 $266 -98.3987788199627 $261 $398 forward 7 unknown #
edge $-1 $267 149.77756713154452 $397 154.31867427594827 $160 $399 forward 7 unknown #
coedge $-1 $161 $389 $395 $400 forward $265 $-1 #
loop $-1 $-1 $389 $253 #
vertex $-1 $262 $401 #
vertex $-1 $162 $402 #
straight-curve $-1 66.821947731223972 1.0978887127225452 10.07295664204986 -1 0 0 I I #
coedge $-1 $269 $269 $-1 $403 reversed $165 $-1 #
edge $-1 $404 0 $404 6.2831853071796004 $166 $405 forward 7 unknown #
vertex $-1 $169 $406 #
ellipse-curve $-1 76.02406038229293 -5.0658108638727057 8.1065995503066723 0.86602541151947299 0 0.49999998660252726 0.24999999330126363 0 -0.43301270575973649 1 I I #
face $-1 $-1 $285 $36 $-1 $407 forward single #
loop $-1 $-1 $408 $170 #
plane-surface $-1 77.159337137974177 0 0 -1 0 0 0 0 1 forward_v I I I I #
coedge $-1 $409 $410 $411 $412 reversed $171 $-1 #
coedge $-1 $413 $173 $175 $283 forward $107 $-1 #
coedge $-1 $173 $413 $409 $414 forward $107 $-1 #
coedge $-1 $411 $176 $173 $280 forward $285 $-1 #
edge $-1 $287 -13.965803150313118 $415 -1.6384039971226176 $279 $416 forward 7 unknown #
coedge $-1 $417 $418 $174 $282 forward $274 $-1 #
edge $-1 $419 -102.331493003449 $286 -98.3987788199627 $281 $420 forward 7 unknown #
edge $-1 $287 149.77756713154452 $419 154.31867427594827 $175 $421 forward 7 unknown #
coedge $-1 $176 $411 $417 $422 forward $285 $-1 #
loop $-1 $-1 $411 $273 #
vertex $-1 $282 $423 #
vertex $-1 $177 $424 #
straight-curve $-1 66.821947731223972 21.767906724030986 10.07295664204986 -1 0 0 I I #
coedge $-1 $289 $289 $-1 $425 reversed $180 $-1 #
edge $-1 $426 0 $426 6.2831853071796004 $181 $427 forward 7 unknown #
vertex $-1 $184 $428 #
ellipse-curve $-1 76.02406038229293 15.604207147435737 8.1065995503066723 0.86602541151947299 0 0.49999998660252726 0.24999999330126363 0 -0.43301270575973649 1 I I #
face $-1 $-1 $305 $38 $-1 $429 forward single #
loop $-1 $-1 $430 $185 #
plane-surface $-1 77.159337137974177 0 0 -1 0 0 0 0 1 forward_v I I I I #
coedge $-1 $431 $432 $433 $434 reversed $186 $-1 #
coedge $-1 $435 $188 $190 $303 forward $116 $-1 #
coedge $-1 $188 $435 $431 $436 forward $116 $-1 #
coedge $-1 $433 $191 $188 $300 forward $305 $-1 #
edge $-1 $307 -24.300812155967339 $437 -11.973413002776841 $299 $438 forward 7 unknown #
coedge $-1 $439 $440 $189 $302 forward $294 $-1 #
edge $-1 $441 -102.331493003449 $306 -98.3987788199627 $301 $442 forward 7 unknown #
edge $-1 $307 149.77756713154452 $441 154.31867427594827 $190 $443 forward 7 unknown #
coedge $-1 $191 $433 $439 $444 forward $305 $-1 #
loop $-1 $-1 $433 $293 #
vertex $-1 $302 $445 #
vertex $-1 $192 $446 #
straight-curve $-1 66.821947731223972 42.437924735339429 10.07295664204986 -1 0 0 I I #
coedge $-1 $309 $309 $-1 $447 reversed $195 $-1 #
edge $-1 $448 0 $448 6.2831853071796004 $196 $449 forward 7 unknown #
vertex $-1 $199 $450 #
ellipse-curve $-1 76.02406038229293 36.27422515874418 8.1065995503066723 0.86602541151947299 0 0.49999998660252726 0.24999999330126363 0 -0.43301270575973649 1 I I #
face $-1 $-1 $215 $30 $-1 $451 reversed single #
loop $-1 $-1 $329 $200 #
plane-surface $-1 0 45.381002638496376 0 0 -1 0 0 0 -1 forward_v I I I I #
coedge $-1 $452 $327 $330 $453 forward $201 $-1 #
coedge $-1 $333 $203 $204 $321 reversed $125 $-1 #
coedge $-1 $327 $452 $203 $319 reversed $201 $-1 #
edge $-1 $334 -10.072956642049867 $454 10.072956642049867 $318 $455 forward 7 unknown #
coedge $-1 $205 $204 $452 $456 forward $81 $-1 #
edge $-1 $325 -77.159337137974177 $454 77.159337137974177 $317 $457 forward 7 unknown #
coedge $-1 $330 $329 $205 $323 reversed $314 $-1 #
edge $-1 $458 -77.159337137974177 $324 77.159337137974177 $322 $459 forward 7 unknown #
vertex $-1 $207 $460 #
vertex $-1 $336 $461 #
straight-curve $-1 77.159337137974177 0 -10.072956642049867 0 -1 0 I I #
coedge $-1 $316 $318 $208 $328 reversed $201 $-1 #
edge $-1 $331 -45.381002638496376 $334 45.381002638496376 $327 $462 forward 7 unknown #
coedge $-1 $322 $209 $214 $337 forward $314 $-1 #
coedge $-1 $209 $322 $316 $453 reversed $314 $-1 #
vertex $-1 $210 $463 #
straight-curve $-1 0 45.381002638496376 10.072956642049867 -1 0 0 I I #
coedge $-1 $211 $317 $213 $336 reversed $125 $-1 #
vertex $-1 $328 $464 #
straight-curve $-1 0 -45.381002638496376 10.072956642049867 1 0 0 I I #
edge $-1 $216 -10.072956642049867 $325 10.072956642049867 $213 $465 forward 7 unknown #
edge $-1 $217 -10.072956642049867 $324 10.072956642049867 $214 $466 forward 7 unknown #
point $-1 77.159337137974177 -45.381002638496376 10.072956642049867 #
point $-1 77.159337137974177 45.381002638496376 10.072956642049867 #
face $-1 $-1 $357 $31 $-1 $467 forward single #
loop $-1 $-1 $468 $219 #
plane-surface $-1 -57.013423853874443 -50.650200780277892 0 -1 0 0 0 0 1 forward_v I I I I #
coedge $-1 $469 $222 $347 $470 reversed $133 $-1 #
coedge $-1 $222 $469 $471 $472 reversed $133 $-1 #
coedge $-1 $230 $229 $222 $346 reversed $220 $-1 #
edge $-1 $473 -10.072956642049867 $474 10.072956642049867 $345 $475 forward 7 unknown #
coedge $-1 $224 $223 $343 $470 forward $85 $-1 #
coedge $-1 $353 $468 $223 $349 reversed $341 $-1 #
edge $-1 $351 -5.2691981417815157 $476 5.2691981417815157 $348 $477 forward 7 unknown #
edge $-1 $474 -5.2691981417815157 $231 5.2691981417815157 $229 $478 forward 7 unknown #
vertex $-1 $349 $479 #
straight-curve $-1 0 -45.381002638496376 -10.072956642049867 1 0 0 I I #
coedge $-1 $480 $348 $226 $354 reversed $341 $-1 #
edge $-1 $358 -10.072956642049867 $351 10.072956642049867 $353 $481 forward 7 unknown #
coedge $-1 $471 $227 $230 $360 forward $357 $-1 #
coedge $-1 $227 $471 $480 $482 forward $357 $-1 #
loop $-1 $-1 $227 $340 #
vertex $-1 $228 $483 #
straight-curve $-1 0 -45.381002638496376 10.072956642049867 -1 0 0 I I #
edge $-1 $232 -5.2691981417815157 $473 5.2691981417815157 $230 $484 forward 7 unknown #
point $-1 -62.609483551757904 -45.381002638496376 -10.072956642049867 #
point $-1 -62.609483551757904 -45.381002638496376 10.072956642049867 #
loop $-1 $-1 $242 $234 #
plane-surface $-1 77.159337137974177 0 0 -1 0 0 0 0 1 forward_v I I I I #
coedge $-1 $366 $237 $239 $370 reversed $141 $-1 #
coedge $-1 $237 $365 $485 $486 reversed $141 $-1 #
coedge $-1 $245 $240 $237 $368 forward $235 $-1 #
edge $-1 $371 8.0668358953876833 $487 10.337389406750205 $367 $488 forward 7 unknown #
coedge $-1 $239 $238 $374 $489 reversed $89 $-1 #
edge $-1 $490 -154.31867427594827 $371 -149.77756713154452 $365 $491 forward 7 unknown #
vertex $-1 $241 $492 #
straight-curve $-1 74.888783626611641 -12.867914437590574 10.07295664204986 0 -1 0 I I #
coedge $-1 $485 $242 $245 $378 reversed $363 $-1 #
coedge $-1 $242 $485 $369 $489 forward $363 $-1 #
vertex $-1 $243 $493 #
straight-curve $-1 77.159337137974177 -19.572129298585899 108.47173546201256 0 0 1 I I #
straight-curve $-1 2.0674802669873316e-006 -19.572129298585899 139.78413585353118 0.49999998660252726 0 -0.86602541151947299 I I #
edge $-1 $487 -31.899528451776398 $246 -19.572129298585899 $373 $494 forward 7 unknown #
point $-1 77.159337137974177 -19.572129298585899 10.072956642049867 #
point $-1 74.888783626611655 -19.572129298585899 10.07295664204986 #
edge $-1 $495 1 $495 0 $249 $-1 forward 7 unknown #
vertex $-1 $250 $496 #
ellipse-curve $-1 74.338195643015979 -25.735828875181149 7.1332651240417517 0.86602541151947299 0 0.49999998660252726 0.24999999330126363 0 -0.43301270575973649 1 I I #
point $-1 76.274060375594175 -25.735828875181149 7.673586844546918 #
plane-surface $-1 0 0 10.072956642049867 0 0 1 1 0 0 forward_v I I I I #
coedge $-1 $396 $395 $388 $497 forward $254 $-1 #
coedge $-1 $388 $256 $258 $392 reversed $156 $-1 #
coedge $-1 $256 $387 $386 $497 reversed $156 $-1 #
coedge $-1 $264 $259 $256 $390 forward $265 $-1 #
edge $-1 $393 8.0668358953876833 $498 10.337389406750205 $389 $499 forward 7 unknown #
coedge $-1 $258 $257 $396 $500 reversed $98 $-1 #
edge $-1 $501 -154.31867427594827 $393 -149.77756713154452 $387 $502 forward 7 unknown #
vertex $-1 $260 $503 #
straight-curve $-1 74.888783626611641 -2.5329054319363529 10.07295664204986 0 -1 0 I I #
coedge $-1 $386 $261 $264 $400 reversed $254 $-1 #
coedge $-1 $261 $386 $391 $500 forward $254 $-1 #
vertex $-1 $262 $504 #
straight-curve $-1 77.159337137974177 1.0978887127225452 108.47173546201256 0 0 1 I I #
straight-curve $-1 2.0674802669873316e-006 1.0978887127225452 139.78413585353118 0.49999998660252726 0 -0.86602541151947299 I I #
edge $-1 $498 -11.229510440467957 $266 1.0978887127225452 $395 $505 forward 7 unknown #
point $-1 77.159337137974177 1.0978887127225452 10.072956642049867 #
point $-1 74.888783626611655 1.0978887127225452 10.07295664204986 #
edge $-1 $506 1 $506 0 $269 $-1 forward 7 unknown #
vertex $-1 $270 $507 #
ellipse-curve $-1 74.338195643015979 -5.0658108638727057 7.1332651240417517 0.86602541151947299 0 0.49999998660252726 0.24999999330126363 0 -0.43301270575973649 1 I I #
point $-1 76.274060375594175 -5.0658108638727057 7.673586844546918 #
plane-surface $-1 0 0 10.072956642049867 0 0 1 1 0 0 forward_v I I I I #
coedge $-1 $418 $417 $410 $508 forward $274 $-1 #
coedge $-1 $410 $276 $278 $414 reversed $171 $-1 #
coedge $-1 $276 $409 $408 $508 reversed $171 $-1 #
coedge $-1 $284 $279 $276 $412 forward $285 $-1 #
edge $-1 $415 8.0668358953876833 $509 10.337389406750205 $411 $510 forward 7 unknown #
coedge $-1 $278 $277 $418 $511 reversed $107 $-1 #
edge $-1 $512 -154.31867427594827 $415 -149.77756713154452 $409 $513 forward 7 unknown #
vertex $-1 $280 $514 #
straight-curve $-1 74.888783626611641 7.8021035737178686 10.07295664204986 0 -1 0 I I #
coedge $-1 $408 $281 $284 $422 reversed $274 $-1 #
coedge $-1 $281 $408 $413 $511 forward $274 $-1 #
vertex $-1 $282 $515 #
straight-curve $-1 77.159337137974177 21.767906724030986 108.47173546201256 0 0 1 I I #
straight-curve $-1 2.0674802669873316e-006 21.767906724030986 139.78413585353118 0.49999998660252726 0 -0.86602541151947299 I I #
edge $-1 $509 9.4405075708404862 $286 21.767906724030986 $417 $516 forward 7 unknown #
point $-1 77.159337137974177 21.767906724030986 10.072956642049867 #
point $-1 74.888783626611655 21.767906724030986 10.07295664204986 #
edge $-1 $517 1 $517 0 $289 $-1 forward 7 unknown #
vertex $-1 $290 $518 #
ellipse-curve $-1 74.338195643015979 15.604207147435737 7.1332651240417517 0.86602541151947299 0 0.49999998660252726 0.24999999330126363 0 -0.43301270575973649 1 I I #
point $-1 76.274060375594175 15.604207147435737 7.673586844546918 #
plane-surface $-1 0 0 10.072956642049867 0 0 1 1 0 0 forward_v I I I I #
coedge $-1 $440 $439 $432 $519 forward $294 $-1 #
coedge $-1 $432 $296 $298 $436 reversed $186 $-1 #
coedge $-1 $296 $431 $430 $519 reversed $186 $-1 #
coedge $-1 $304 $299 $296 $434 forward $305 $-1 #
edge $-1 $437 8.0668358953876833 $520 10.337389406750205 $433 $521 forward 7 unknown #
coedge $-1 $298 $297 $440 $522 reversed $116 $-1 #
edge $-1 $523 -154.31867427594827 $437 -149.77756713154452 $431 $524 forward 7 unknown #
vertex $-1 $300 $525 #
straight-curve $-1 74.888783626611641 18.13711257937209 10.07295664204986 0 -1 0 I I #
coedge $-1 $430 $301 $304 $444 reversed $294 $-1 #
coedge $-1 $301 $430 $435 $522 forward $294 $-1 #
vertex $-1 $302 $526 #
straight-curve $-1 77.159337137974177 42.437924735339429 108.47173546201256 0 0 1 I I #
straight-curve $-1 2.0674802669873316e-006 42.437924735339429 139.78413585353118 0.49999998660252726 0 -0.86602541151947299 I I #
edge $-1 $520 30.110525582148931 $306 42.437924735339429 $439 $527 forward 7 unknown #
point $-1 77.159337137974177 42.437924735339429 10.072956642049867 #
point $-1 74.888783626611655 42.437924735339429 10.07295664204986 #
edge $-1 $528 1 $528 0 $309 $-1 forward 7 unknown #
vertex $-1 $310 $529 #
ellipse-curve $-1 74.338195643015979 36.27422515874418 7.1332651240417517 0.86602541151947299 0 0.49999998660252726 0.24999999330126363 0 -0.43301270575973649 1 I I #
point $-1 76.274060375594175 36.27422515874418 7.673586844546918 #
plane-surface $-1 77.159337137974177 0 0 -1 0 0 0 0 1 forward_v I I I I #
coedge $-1 $318 $316 $320 $456 reversed $201 $-1 #
edge $-1 $331 -10.072956642049867 $458 10.072956642049867 $330 $530 forward 7 unknown #
vertex $-1 $456 $531 #
straight-curve $-1 -77.159337137974177 -45.381002638496376 0 0 0 -1 I I #
edge $-1 $454 -45.381002638496376 $458 45.381002638496376 $452 $532 forward 7 unknown #
straight-curve $-1 0 -45.381002638496376 -10.072956642049867 -1 0 0 I I #
vertex $-1 $323 $533 #
straight-curve $-1 0 45.381002638496376 -10.072956642049867 1 0 0 I I #
point $-1 77.159337137974177 45.381002638496376 -10.072956642049867 #
point $-1 77.159337137974177 -45.381002638496376 -10.072956642049867 #
straight-curve $-1 -77.159337137974177 0 10.072956642049867 0 -1 0 I I #
point $-1 -77.159337137974177 45.381002638496376 10.072956642049867 #
point $-1 -77.159337137974177 -45.381002638496376 10.072956642049867 #
straight-curve $-1 77.159337137974177 -45.381002638496376 0 0 0 -1 I I #
straight-curve $-1 77.159337137974177 45.381002638496376 0 0 0 -1 I I #
plane-surface $-1 0 0 10.072956642049867 0 0 1 1 0 0 forward_v I I I I #
coedge $-1 $348 $480 $469 $534 forward $341 $-1 #
coedge $-1 $344 $343 $468 $534 reversed $133 $-1 #
edge $-1 $476 -2.7980298489417308 $474 2.7980298489417308 $343 $535 forward 7 unknown #
coedge $-1 $356 $355 $344 $472 forward $357 $-1 #
edge $-1 $473 -2.7980298489417308 $536 2.7980298489417308 $344 $537 forward 7 unknown #
vertex $-1 $360 $538 #
vertex $-1 $350 $539 #
straight-curve $-1 -62.609483551757904 -55.919398922059408 0 0 0 -1 I I #
vertex $-1 $534 $540 #
straight-curve $-1 -57.013423853874443 -50.650200780277892 -10.072956642049867 0 -1 0 I I #
straight-curve $-1 -62.609483551757904 -50.650200780277892 -10.072956642049867 0 1 0 I I #
point $-1 -57.013423853874443 -45.381002638496376 -10.072956642049867 #
coedge $-1 $468 $353 $356 $482 reversed $341 $-1 #
straight-curve $-1 -57.013423853874443 -45.381002638496376 0 0 0 -1 I I #
edge $-1 $536 -5.2691981417815157 $358 5.2691981417815157 $480 $541 forward 7 unknown #
point $-1 -57.013423853874443 -45.381002638496376 10.072956642049867 #
straight-curve $-1 -62.609483551757904 -50.650200780277892 10.072956642049867 0 -1 0 I I #
coedge $-1 $374 $373 $366 $486 forward $363 $-1 #
edge $-1 $487 98.3987788199627 $490 102.331493003449 $485 $542 forward 7 unknown #
vertex $-1 $378 $543 #
straight-curve $-1 66.821947731223972 -31.899528451776398 10.07295664204986 1 0 0 I I #
edge $-1 $490 -19.031614014185823 $375 -6.7042148609953252 $374 $544 forward 7 unknown #
vertex $-1 $489 $545 #
straight-curve $-1 2.0674802669873316e-006 -31.899528451776398 139.78413585353118 -0.49999998660252726 0 0.86602541151947299 I I #
point $-1 74.888783626611655 -31.899528451776398 10.07295664204986 #
point $-1 77.159337137974177 -19.572129298585899 6.1402424585635629 #
straight-curve $-1 77.159337137974177 0 10.072956642049867 0 1 0 I I #
vertex $-1 $381 $546 #
point $-1 74.588195636317252 -25.735828875181149 6.7002524182820151 #
edge $-1 $498 98.3987788199627 $501 102.331493003449 $386 $547 forward 7 unknown #
vertex $-1 $400 $548 #
straight-curve $-1 66.821947731223972 -11.229510440467957 10.07295664204986 1 0 0 I I #
edge $-1 $501 -8.6966050085316038 $397 3.630794144658898 $396 $549 forward 7 unknown #
vertex $-1 $500 $550 #
straight-curve $-1 2.0674802669873316e-006 -11.229510440467957 139.78413585353118 -0.49999998660252726 0 0.86602541151947299 I I #
point $-1 74.888783626611655 -11.229510440467957 10.07295664204986 #
point $-1 77.159337137974177 1.0978887127225452 6.1402424585635629 #
straight-curve $-1 77.159337137974177 0 10.072956642049867 0 1 0 I I #
vertex $-1 $403 $551 #
point $-1 74.588195636317252 -5.0658108638727057 6.7002524182820151 #
edge $-1 $509 98.3987788199627 $512 102.331493003449 $408 $552 forward 7 unknown #
vertex $-1 $422 $553 #
straight-curve $-1 66.821947731223972 9.4405075708404862 10.07295664204986 1 0 0 I I #
edge $-1 $512 1.6384039971226176 $419 13.965803150313118 $418 $554 forward 7 unknown #
vertex $-1 $511 $555 #
straight-curve $-1 2.0674802669873316e-006 9.4405075708404862 139.78413585353118 -0.49999998660252726 0 0.86602541151947299 I I #
point $-1 74.888783626611655 9.4405075708404862 10.07295664204986 #
point $-1 77.159337137974177 21.767906724030986 6.1402424585635629 #
straight-curve $-1 77.159337137974177 0 10.072956642049867 0 1 0 I I #
vertex $-1 $425 $556 #
point $-1 74.588195636317252 15.604207147435737 6.7002524182820151 #
edge $-1 $520 98.3987788199627 $523 102.331493003449 $430 $557 forward 7 unknown #
vertex $-1 $444 $558 #
straight-curve $-1 66.821947731223972 30.110525582148931 10.07295664204986 1 0 0 I I #
edge $-1 $523 11.973413002776841 $441 24.300812155967339 $440 $559 forward 7 unknown #
vertex $-1 $522 $560 #
straight-curve $-1 2.0674802669873316e-006 30.110525582148931 139.78413585353118 -0.49999998660252726 0 0.86602541151947299 I I #
point $-1 74.888783626611655 30.110525582148931 10.07295664204986 #
point $-1 77.159337137974177 42.437924735339429 6.1402424585635629 #
straight-curve $-1 77.159337137974177 0 10.072956642049867 0 1 0 I I #
vertex $-1 $447 $561 #
point $-1 74.588195636317252 36.27422515874418 6.7002524182820151 #
straight-curve $-1 -77.159337137974177 45.381002638496376 0 0 0 -1 I I #
point $-1 -77.159337137974177 -45.381002638496376 -10.072956642049867 #
straight-curve $-1 -77.159337137974177 0 -10.072956642049867 0 1 0 I I #
point $-1 -77.159337137974177 45.381002638496376 -10.072956642049867 #
edge $-1 $536 -10.072956642049867 $476 10.072956642049867 $468 $562 forward 7 unknown #
straight-curve $-1 -59.811453702816173 -55.919398922059408 -10.072956642049867 -1 0 0 I I #
vertex $-1 $482 $563 #
straight-curve $-1 -59.811453702816173 -55.919398922059408 10.072956642049867 1 0 0 I I #
point $-1 -62.609483551757904 -55.919398922059408 10.072956642049867 #
point $-1 -62.609483551757904 -55.919398922059408 -10.072956642049867 #
point $-1 -57.013423853874443 -55.919398922059408 -10.072956642049867 #
straight-curve $-1 -57.013423853874443 -50.650200780277892 10.072956642049867 0 1 0 I I #
straight-curve $-1 77.159337137974177 -31.899528451776398 108.47173546201256 0 0 -1 I I #
point $-1 77.159337137974177 -31.899528451776398 10.072956642049867 #
straight-curve $-1 77.159337137974177 -12.867914437590574 6.1402424585635487 0 1 0 I I #
point $-1 77.159337137974177 -31.899528451776398 6.1402424585635629 #
point $-1 73.905182937256257 -25.735828875181149 6.8832651307404875 #
straight-curve $-1 77.159337137974177 -11.229510440467957 108.47173546201256 0 0 -1 I I #
point $-1 77.159337137974177 -11.229510440467957 10.072956642049867 #
straight-curve $-1 77.159337137974177 -2.5329054319363529 6.1402424585635487 0 1 0 I I #
point $-1 77.159337137974177 -11.229510440467957 6.1402424585635629 #
point $-1 73.905182937256257 -5.0658108638727057 6.8832651307404875 #
straight-curve $-1 77.159337137974177 9.4405075708404862 108.47173546201256 0 0 -1 I I #
point $-1 77.159337137974177 9.4405075708404862 10.072956642049867 #
straight-curve $-1 77.159337137974177 7.8021035737178686 6.1402424585635487 0 1 0 I I #
point $-1 77.159337137974177 9.4405075708404862 6.1402424585635629 #
point $-1 73.905182937256257 15.604207147435737 6.8832651307404875 #
straight-curve $-1 77.159337137974177 30.110525582148931 108.47173546201256 0 0 -1 I I #
point $-1 77.159337137974177 30.110525582148931 10.072956642049867 #
straight-curve $-1 77.159337137974177 18.13711257937209 6.1402424585635487 0 1 0 I I #
point $-1 77.159337137974177 30.110525582148931 6.1402424585635629 #
point $-1 73.905182937256257 36.27422515874418 6.8832651307404875 #
straight-curve $-1 -57.013423853874443 -55.919398922059408 0 0 0 -1 I I #
point $-1 -57.013423853874443 -55.919398922059408 10.072956642049867 #
End-of-ACIS-data 