500 0 5 0           
7 Unknown 11 ACIS 5.0 NT 24 Fri Mar 26 17:47:14 1999 
-1 9.9999999999999995e-007 1e-010 
body $-1 $5 $-1 $6 #
body $-1 $7 $-1 $8 #
body $-1 $9 $-1 $10 #
body $-1 $11 $-1 $12 #
body $-1 $13 $-1 $14 #
lump $-1 $-1 $15 $0 #
transform $-1 1 0 0 0 1 0 0 0 1 69.10122989593188 42.71108490875875 9.7184761150768608 1 rotate no_reflect no_shear #
lump $-1 $-1 $16 $1 #
transform $-1 1 0 0 0 1 0 0 0 1 69.10122989593188 42.71108490875875 9.7184761150768608 1 rotate no_reflect no_shear #
lump $-1 $-1 $17 $2 #
transform $-1 1 0 0 0 1 0 0 0 1 69.10122989593188 42.71108490875875 9.7184761150768608 1 rotate no_reflect no_shear #
lump $-1 $-1 $18 $3 #
transform $-1 1 0 0 0 1 0 0 0 1 69.10122989593188 42.71108490875875 9.7184761150768608 1 rotate no_reflect no_shear #
lump $-1 $-1 $19 $4 #
transform $-1 1 0 0 0 1 0 0 0 1 69.10122989593188 42.71108490875875 9.7184761150768608 1 rotate no_reflect no_shear #
shell $-1 $-1 $-1 $20 $-1 $5 #
shell $-1 $-1 $-1 $21 $-1 $7 #
shell $-1 $-1 $-1 $22 $-1 $9 #
shell $-1 $-1 $-1 $23 $-1 $11 #
shell $-1 $-1 $-1 $24 $-1 $13 #
face $-1 $25 $26 $15 $-1 $27 forward single #
face $-1 $28 $29 $16 $-1 $30 forward single #
face $-1 $31 $32 $17 $-1 $33 forward single #
face $-1 $34 $35 $18 $-1 $36 reversed single #
face $-1 $37 $38 $19 $-1 $39 reversed single #
face $-1 $40 $41 $15 $-1 $42 reversed single #
loop $-1 $-1 $43 $20 #
plane-surface $-1 0 0 9.7184761150768608 0 0 1 1 0 0 forward_v I I I I #
face $-1 $44 $45 $16 $-1 $46 forward single #
loop $-1 $-1 $47 $21 #
plane-surface $-1 -64.228873512072155 0 5.1781649463760484 0 0 1 1 0 0 forward_v I I I I #
face $-1 $48 $49 $17 $-1 $50 forward single #
loop $-1 $-1 $51 $22 #
plane-surface $-1 -59.356517128212431 49.174732781825767 165.04346684483554 1 0 0 0 -0.55919291073839883 -0.82903756765294845 forward_v I I I I #
face $-1 $52 $53 $18 $-1 $54 reversed single #
loop $-1 $55 $56 $23 #
cone-surface $-1 -54.795146731982577 36.10739492248247 4.131547246663958 0 -0.55919291073839883 -0.82903756765294845 2 0 0 1 I I 0 1 2 forward I I I I #
face $-1 $57 $58 $19 $-1 $59 reversed single #
loop $-1 $60 $61 $24 #
cone-surface $-1 -47.953091137637792 36.10739492248247 4.131547246663958 0 -0.55919291073839883 -0.82903756765294845 2 0 0 1 I I 0 1 2 forward I I I I #
face $-1 $62 $63 $15 $-1 $64 reversed single #
loop $-1 $-1 $65 $25 #
plane-surface $-1 0 0 -9.7184761150768608 0 0 1 1 0 0 forward_v I I I I #
coedge $-1 $66 $67 $68 $69 forward $26 $-1 #
face $-1 $70 $71 $16 $-1 $72 forward single #
loop $-1 $-1 $73 $28 #
plane-surface $-1 -59.356517128212431 0 7.4483205307264555 -1 0 0 0 0 1 forward_v I I I I #
coedge $-1 $74 $75 $76 $77 reversed $29 $-1 #
face $-1 $78 $79 $17 $-1 $80 forward single #
loop $-1 $-1 $81 $31 #
plane-surface $-1 -51.374118934810184 -28.107102980393051 50.468435735334396 0 0.55919291073839883 0.82903756765294845 1 0 0 forward_v I I I I #
coedge $-1 $82 $83 $84 $85 forward $32 $-1 #
face $-1 $86 $87 $18 $-1 $88 forward single #
loop $-1 $89 $90 $34 #
cone-surface $-1 -54.795146731982577 34.146456740519042 1.2243368913930439 0 -0.55919291073839883 -0.82903756765294845 1 0 0 1 I I -0.70710678118654746 0.70710678118654746 1 forward I I I I #
loop $-1 $-1 $91 $23 #
coedge $-1 $56 $56 $92 $93 reversed $35 $-1 #
face $-1 $94 $95 $19 $-1 $96 reversed single #
loop $-1 $97 $98 $37 #
cone-surface $-1 -47.953091137637792 34.146456740519042 1.2243368913930439 0 -0.55919291073839883 -0.82903756765294845 1 0 0 1 I I -0.70710678118654746 0.70710678118654746 1 forward I I I I #
loop $-1 $-1 $99 $24 #
coedge $-1 $61 $61 $100 $101 reversed $38 $-1 #
face $-1 $102 $103 $15 $-1 $104 reversed single #
loop $-1 $-1 $105 $40 #
plane-surface $-1 0 -42.71108490875875 0 0 1 0 0 0 1 forward_v I I I I #
coedge $-1 $106 $107 $108 $109 forward $41 $-1 #
coedge $-1 $110 $43 $111 $112 forward $26 $-1 #
coedge $-1 $43 $110 $113 $114 forward $26 $-1 #
coedge $-1 $115 $116 $43 $69 reversed $117 $-1 #
edge $-1 $118 -42.71108490875875 $119 42.71108490875875 $68 $120 forward 7 unknown #
face $-1 $121 $122 $16 $-1 $123 reversed single #
loop $-1 $-1 $124 $44 #
plane-surface $-1 0 0 9.7184761150768608 0 0 1 1 0 0 forward_v I I I I #
coedge $-1 $125 $76 $126 $127 reversed $45 $-1 #
coedge $-1 $128 $47 $129 $130 reversed $29 $-1 #
coedge $-1 $47 $128 $131 $132 reversed $29 $-1 #
coedge $-1 $73 $133 $47 $77 forward $45 $-1 #
edge $-1 $134 -42.71108490875875 $135 42.71108490875875 $76 $136 forward 7 unknown #
face $-1 $137 $138 $17 $-1 $139 forward single #
loop $-1 $-1 $140 $48 #
plane-surface $-1 -43.391720741407937 49.174732781825767 165.04346684483554 -1 0 0 0 0.55919291073839883 0.82903756765294845 forward_v I I I I #
coedge $-1 $141 $142 $143 $144 reversed $49 $-1 #
coedge $-1 $83 $51 $145 $146 forward $32 $-1 #
coedge $-1 $51 $82 $147 $148 reversed $32 $-1 #
coedge $-1 $149 $150 $51 $85 reversed $151 $-1 #
edge $-1 $152 -42.71108490875875 $153 -39.038483474988126 $84 $154 forward 7 unknown #
face $-1 $155 $156 $18 $-1 $157 forward single #
loop $-1 $-1 $158 $52 #
plane-surface $-1 -59.356517128212431 49.174732781825767 165.04346684483554 1 0 0 0 -0.55919291073839883 -0.82903756765294845 forward_v I I I I #
loop $-1 $-1 $159 $34 #
coedge $-1 $90 $90 $91 $160 forward $53 $-1 #
coedge $-1 $91 $91 $90 $160 reversed $55 $-1 #
coedge $-1 $92 $92 $56 $93 forward $156 $-1 #
edge $-1 $161 1.1723669938923804e-015 $161 6.2831853071796013 $92 $162 forward 7 unknown #
face $-1 $163 $164 $19 $-1 $165 reversed single #
loop $-1 $166 $167 $57 #
cone-surface $-1 -54.795146731982577 36.10739492248247 4.131547246663958 0 -0.55919291073839883 -0.82903756765294845 2 0 0 1 I I 0 1 2 forward I I I I #
loop $-1 $-1 $168 $37 #
coedge $-1 $98 $98 $99 $169 forward $58 $-1 #
coedge $-1 $99 $99 $98 $169 reversed $60 $-1 #
coedge $-1 $100 $100 $61 $101 forward $170 $-1 #
edge $-1 $171 1.1723669938923804e-015 $171 6.2831853071796013 $100 $172 forward 7 unknown #
face $-1 $173 $174 $15 $-1 $175 reversed single #
loop $-1 $-1 $176 $62 #
plane-surface $-1 -69.10122989593188 0 0 1 0 0 0 0 -1 forward_v I I I I #
coedge $-1 $177 $113 $178 $179 forward $63 $-1 #
coedge $-1 $180 $65 $177 $181 forward $41 $-1 #
coedge $-1 $65 $180 $182 $183 forward $41 $-1 #
coedge $-1 $116 $115 $65 $109 reversed $117 $-1 #
edge $-1 $184 -42.71108490875875 $185 42.71108490875875 $108 $186 forward 7 unknown #
coedge $-1 $67 $66 $187 $188 forward $26 $-1 #
coedge $-1 $189 $190 $66 $112 reversed $174 $-1 #
edge $-1 $119 -69.10122989593188 $191 69.10122989593188 $111 $192 forward 7 unknown #
coedge $-1 $105 $193 $67 $114 reversed $63 $-1 #
edge $-1 $194 -69.10122989593188 $118 69.10122989593188 $113 $195 forward 7 unknown #
coedge $-1 $108 $68 $193 $196 forward $117 $-1 #
coedge $-1 $68 $108 $189 $197 reversed $117 $-1 #
loop $-1 $-1 $115 $173 #
vertex $-1 $69 $198 #
vertex $-1 $69 $199 #
straight-curve $-1 69.10122989593188 0 9.7184761150768608 0 1 0 I I #
face $-1 $200 $201 $16 $-1 $202 reversed single #
loop $-1 $-1 $126 $70 #
plane-surface $-1 0 -42.71108490875875 0 0 1 0 0 0 1 forward_v I I I I #
coedge $-1 $203 $204 $125 $205 forward $71 $-1 #
coedge $-1 $133 $73 $124 $205 reversed $45 $-1 #
coedge $-1 $131 $206 $73 $127 forward $122 $-1 #
edge $-1 $207 -5.9943158497136348 $135 -1.4540046810128207 $126 $208 forward 7 unknown #
coedge $-1 $75 $74 $209 $210 reversed $29 $-1 #
coedge $-1 $211 $212 $74 $130 forward $213 $-1 #
edge $-1 $214 -36.986793139895802 $134 -27.242080372176353 $129 $215 forward 7 unknown #
coedge $-1 $216 $126 $75 $132 forward $122 $-1 #
edge $-1 $135 27.242080372176353 $217 36.986793139895802 $131 $218 forward 7 unknown #
coedge $-1 $76 $125 $211 $219 reversed $45 $-1 #
vertex $-1 $130 $220 #
vertex $-1 $132 $221 #
straight-curve $-1 -59.356517128212431 0 5.1781649463760484 0 -1 0 I I #
face $-1 $222 $151 $17 $-1 $223 forward single #
loop $-1 $-1 $224 $78 #
plane-surface $-1 -59.356517128212431 0 7.4483205307264555 -1 0 0 0 0 1 forward_v I I I I #
coedge $-1 $225 $226 $227 $228 reversed $79 $-1 #
coedge $-1 $229 $81 $226 $230 reversed $49 $-1 #
coedge $-1 $81 $145 $224 $231 reversed $49 $-1 #
coedge $-1 $232 $227 $81 $144 forward $233 $-1 #
edge $-1 $234 17.704661274002845 $235 33.669457660807339 $143 $236 forward 7 unknown #
coedge $-1 $142 $229 $82 $146 reversed $49 $-1 #
edge $-1 $153 80.992212024207873 $237 85.422169817517471 $82 $238 forward 7 unknown #
coedge $-1 $239 $240 $83 $148 forward $241 $-1 #
edge $-1 $152 77.343568476041725 $237 79.820769468930777 $147 $242 forward 7 unknown #
coedge $-1 $243 $84 $240 $244 reversed $151 $-1 #
coedge $-1 $84 $245 $246 $247 reversed $151 $-1 #
loop $-1 $-1 $84 $137 #
vertex $-1 $244 $248 #
vertex $-1 $247 $249 #
straight-curve $-1 -59.356517128212431 0 5.1781649463760484 0 -1 0 I I #
face $-1 $250 $251 $18 $-1 $252 forward single #
loop $-1 $253 $92 $86 #
plane-surface $-1 -51.374118934810184 -28.107102980393051 50.468435735334396 0 0.55919291073839883 0.82903756765294845 1 0 0 forward_v I I I I #
coedge $-1 $254 $255 $256 $257 forward $87 $-1 #
coedge $-1 $159 $159 $-1 $258 forward $89 $-1 #
edge $-1 $259 0 $259 6.2831853071796004 $90 $260 forward 7 unknown #
vertex $-1 $93 $261 #
ellipse-curve $-1 -54.795146731982577 37.509140193707516 6.2097200342819416 0 -0.55919291073839883 -0.82903756765294845 2 0 0 1 I I #
face $-1 $262 $263 $19 $-1 $264 forward single #
loop $-1 $265 $266 $94 #
cone-surface $-1 -54.795146731982577 34.146456740519042 1.2243368913930439 0 -0.55919291073839883 -0.82903756765294845 1 0 0 1 I I -0.70710678118654746 0.70710678118654746 1 forward I I I I #
loop $-1 $-1 $267 $57 #
coedge $-1 $167 $167 $268 $269 reversed $95 $-1 #
coedge $-1 $168 $168 $-1 $270 forward $97 $-1 #
edge $-1 $271 0 $271 6.2831853071796004 $98 $272 forward 7 unknown #
loop $-1 $273 $100 $262 #
vertex $-1 $101 $274 #
ellipse-curve $-1 -47.953091137637792 37.509140193707516 6.2097200342819416 0 -0.55919291073839883 -0.82903756765294845 2 0 0 1 I I #
face $-1 $-1 $117 $15 $-1 $275 reversed single #
loop $-1 $-1 $189 $102 #
plane-surface $-1 0 42.71108490875875 0 0 -1 0 0 0 -1 forward_v I I I I #
coedge $-1 $276 $187 $190 $277 forward $103 $-1 #
coedge $-1 $193 $105 $106 $181 reversed $63 $-1 #
coedge $-1 $187 $276 $105 $179 reversed $103 $-1 #
edge $-1 $194 -9.7184761150768608 $278 9.7184761150768608 $178 $279 forward 7 unknown #
coedge $-1 $107 $106 $276 $280 forward $41 $-1 #
edge $-1 $185 -69.10122989593188 $278 69.10122989593188 $177 $281 forward 7 unknown #
coedge $-1 $190 $189 $107 $183 reversed $174 $-1 #
edge $-1 $282 -69.10122989593188 $184 69.10122989593188 $182 $283 forward 7 unknown #
vertex $-1 $109 $284 #
vertex $-1 $196 $285 #
straight-curve $-1 69.10122989593188 0 -9.7184761150768608 0 -1 0 I I #
coedge $-1 $176 $178 $110 $188 reversed $103 $-1 #
edge $-1 $191 -42.71108490875875 $194 42.71108490875875 $187 $286 forward 7 unknown #
coedge $-1 $182 $111 $116 $197 forward $174 $-1 #
coedge $-1 $111 $182 $176 $277 reversed $174 $-1 #
vertex $-1 $112 $287 #
straight-curve $-1 0 42.71108490875875 9.7184761150768608 -1 0 0 I I #
coedge $-1 $113 $177 $115 $196 reversed $63 $-1 #
vertex $-1 $188 $288 #
straight-curve $-1 0 -42.71108490875875 9.7184761150768608 1 0 0 I I #
edge $-1 $118 -9.7184761150768608 $185 9.7184761150768608 $115 $289 forward 7 unknown #
edge $-1 $119 -9.7184761150768608 $184 9.7184761150768608 $116 $290 forward 7 unknown #
point $-1 69.10122989593188 -42.71108490875875 9.7184761150768608 #
point $-1 69.10122989593188 42.71108490875875 9.7184761150768608 #
face $-1 $291 $292 $16 $-1 $293 reversed single #
loop $-1 $-1 $294 $121 #
plane-surface $-1 0 0 -9.7184761150768608 0 0 1 1 0 0 forward_v I I I I #
coedge $-1 $295 $124 $206 $296 forward $71 $-1 #
coedge $-1 $124 $295 $297 $298 forward $71 $-1 #
edge $-1 $299 -42.71108490875875 $207 42.71108490875875 $124 $300 forward 7 unknown #
coedge $-1 $126 $301 $203 $296 reversed $122 $-1 #
vertex $-1 $296 $302 #
straight-curve $-1 -59.356517128212431 -42.71108490875875 3.7241602653632278 0 0 -1 I I #
coedge $-1 $303 $304 $128 $210 forward $292 $-1 #
edge $-1 $217 -42.71108490875875 $214 42.71108490875875 $209 $305 forward 7 unknown #
coedge $-1 $297 $129 $133 $219 forward $213 $-1 #
coedge $-1 $129 $306 $303 $307 reversed $213 $-1 #
loop $-1 $-1 $211 $291 #
vertex $-1 $307 $308 #
straight-curve $-1 -32.114436756036078 42.71108490875875 5.1781649463760484 1 0 0 I I #
coedge $-1 $309 $131 $304 $310 forward $122 $-1 #
vertex $-1 $310 $311 #
straight-curve $-1 -32.114436756036078 -42.71108490875875 5.1781649463760484 -1 0 0 I I #
edge $-1 $134 1.4540046810128207 $299 5.9943158497136348 $211 $312 forward 7 unknown #
point $-1 -59.356517128212431 42.71108490875875 5.1781649463760484 #
point $-1 -59.356517128212431 -42.71108490875875 5.1781649463760484 #
face $-1 $313 $233 $17 $-1 $314 forward single #
plane-surface $-1 -64.228873512072155 0 5.1781649463760484 0 0 1 1 0 0 forward_v I I I I #
coedge $-1 $246 $315 $142 $231 forward $138 $-1 #
coedge $-1 $226 $140 $316 $317 reversed $79 $-1 #
coedge $-1 $140 $225 $141 $230 forward $79 $-1 #
coedge $-1 $143 $318 $140 $228 forward $233 $-1 #
edge $-1 $319 -18.123718517845866 $234 -7.7198290877434275 $227 $320 forward 7 unknown #
coedge $-1 $145 $141 $239 $321 reversed $49 $-1 #
edge $-1 $322 -85.422169817517471 $234 -72.872811578473588 $226 $323 forward 7 unknown #
edge $-1 $235 49.193617713372603 $153 57.313018159106896 $224 $324 forward 7 unknown #
coedge $-1 $325 $143 $315 $326 forward $233 $-1 #
loop $-1 $-1 $143 $222 #
vertex $-1 $144 $327 #
vertex $-1 $326 $328 #
straight-curve $-1 -25.687059467405092 32.307195478656311 9.7184761150768573 -1 0 0 I I #
vertex $-1 $321 $329 #
straight-curve $-1 -59.356517128212431 -28.107102980393051 50.468435735334396 0 0.82903756765294845 -0.55919291073839883 I I #
coedge $-1 $316 $147 $229 $321 forward $241 $-1 #
coedge $-1 $147 $330 $149 $244 forward $241 $-1 #
loop $-1 $-1 $316 $331 #
straight-curve $-1 -59.356517128212431 42.71108490875875 82.521733422417768 0 0 -1 I I #
coedge $-1 $245 $149 $332 $333 reversed $151 $-1 #
edge $-1 $334 -36.986793139895802 $152 -27.242080372176353 $240 $335 forward 7 unknown #
coedge $-1 $150 $243 $336 $337 reversed $151 $-1 #
coedge $-1 $338 $224 $150 $247 forward $138 $-1 #
edge $-1 $153 -39.038483474988126 $339 42.71108490875875 $246 $154 forward 7 unknown #
point $-1 -59.356517128212431 42.71108490875875 5.1781649463760484 #
point $-1 -59.356517128212431 39.038483474988126 5.1781649463760502 #
face $-1 $340 $341 $18 $-1 $342 forward single #
loop $-1 $-1 $343 $155 #
plane-surface $-1 -43.391720741407937 49.174732781825767 165.04346684483554 -1 0 0 0 0.55919291073839883 0.82903756765294845 forward_v I I I I #
loop $-1 $-1 $344 $86 #
coedge $-1 $255 $158 $345 $346 forward $87 $-1 #
coedge $-1 $158 $254 $347 $348 reversed $87 $-1 #
coedge $-1 $349 $350 $158 $257 reversed $351 $-1 #
edge $-1 $352 -42.71108490875875 $353 -39.038483474988126 $256 $354 forward 7 unknown #
edge $-1 $355 1 $355 0 $159 $-1 forward 7 unknown #
vertex $-1 $160 $356 #
ellipse-curve $-1 -54.795146731982577 34.705649651257438 2.0533744590459921 0 0.55919291073839883 0.82903756765294845 2 0 0 1 I I #
point $-1 -52.795146731982577 37.509140193707502 6.2097200342819248 #
face $-1 $357 $170 $19 $-1 $358 forward single #
loop $-1 $-1 $359 $163 #
plane-surface $-1 -59.356517128212431 49.174732781825767 165.04346684483554 1 0 0 0 -0.55919291073839883 -0.82903756765294845 forward_v I I I I #
loop $-1 $-1 $360 $94 #
coedge $-1 $266 $266 $267 $361 forward $164 $-1 #
coedge $-1 $267 $267 $266 $361 reversed $166 $-1 #
coedge $-1 $268 $268 $167 $269 forward $273 $-1 #
edge $-1 $362 1.1723669938923804e-015 $362 6.2831853071796013 $268 $363 forward 7 unknown #
edge $-1 $364 1 $364 0 $168 $-1 forward 7 unknown #
vertex $-1 $169 $365 #
ellipse-curve $-1 -47.953091137637792 34.705649651257438 2.0533744590459921 0 0.55919291073839883 0.82903756765294845 2 0 0 1 I I #
loop $-1 $366 $268 $262 #
point $-1 -45.953091137637792 37.509140193707502 6.2097200342819248 #
plane-surface $-1 69.10122989593188 0 0 -1 0 0 0 0 1 forward_v I I I I #
coedge $-1 $178 $176 $180 $280 reversed $103 $-1 #
edge $-1 $191 -9.7184761150768608 $282 9.7184761150768608 $190 $367 forward 7 unknown #
vertex $-1 $280 $368 #
straight-curve $-1 -69.10122989593188 -42.71108490875875 0 0 0 -1 I I #
edge $-1 $278 -42.71108490875875 $282 42.71108490875875 $276 $369 forward 7 unknown #
straight-curve $-1 0 -42.71108490875875 -9.7184761150768608 -1 0 0 I I #
vertex $-1 $183 $370 #
straight-curve $-1 0 42.71108490875875 -9.7184761150768608 1 0 0 I I #
point $-1 69.10122989593188 42.71108490875875 -9.7184761150768608 #
point $-1 69.10122989593188 -42.71108490875875 -9.7184761150768608 #
straight-curve $-1 -69.10122989593188 0 9.7184761150768608 0 -1 0 I I #
point $-1 -69.10122989593188 42.71108490875875 9.7184761150768608 #
point $-1 -69.10122989593188 -42.71108490875875 9.7184761150768608 #
straight-curve $-1 69.10122989593188 -42.71108490875875 0 0 0 -1 I I #
straight-curve $-1 69.10122989593188 42.71108490875875 0 0 0 -1 I I #
face $-1 $371 $213 $16 $-1 $372 reversed single #
loop $-1 $-1 $209 $200 #
plane-surface $-1 -69.10122989593188 0 0 1 0 0 0 0 -1 forward_v I I I I #
coedge $-1 $373 $374 $375 $376 forward $201 $-1 #
coedge $-1 $204 $203 $377 $378 forward $71 $-1 #
edge $-1 $207 -59.356517128212431 $379 69.10122989593188 $206 $380 forward 7 unknown #
coedge $-1 $381 $211 $204 $298 reversed $213 $-1 #
edge $-1 $382 -69.10122989593188 $299 59.356517128212431 $297 $383 forward 7 unknown #
vertex $-1 $205 $384 #
straight-curve $-1 -59.356517128212431 0 9.7184761150768608 0 -1 0 I I #
coedge $-1 $206 $309 $385 $386 reversed $122 $-1 #
point $-1 -59.356517128212431 -42.71108490875875 9.7184761150768626 #
coedge $-1 $387 $209 $212 $307 forward $292 $-1 #
coedge $-1 $209 $387 $216 $310 reversed $292 $-1 #
straight-curve $-1 -69.10122989593188 0 5.1781649463760484 0 1 0 I I #
coedge $-1 $212 $381 $374 $388 reversed $213 $-1 #
edge $-1 $214 -5.1781649463760484 $389 9.7184761150768608 $212 $390 forward 7 unknown #
point $-1 -69.10122989593188 42.71108490875875 5.1781649463760484 #
coedge $-1 $301 $216 $373 $391 reversed $122 $-1 #
edge $-1 $217 -5.1781649463760484 $392 9.7184761150768608 $304 $393 forward 7 unknown #
point $-1 -69.10122989593188 -42.71108490875875 5.1781649463760484 #
straight-curve $-1 -59.356517128212431 42.71108490875875 3.7241602653632278 0 0 1 I I #
face $-1 $394 $395 $17 $-1 $396 reversed single #
plane-surface $-1 0 0 9.7184761150768608 0 0 1 1 0 0 forward_v I I I I #
coedge $-1 $224 $338 $232 $326 reversed $138 $-1 #
coedge $-1 $397 $239 $225 $317 forward $241 $-1 #
edge $-1 $322 -79.820769468930777 $319 -72.803257307340914 $316 $398 forward 7 unknown #
coedge $-1 $227 $399 $397 $400 forward $233 $-1 #
vertex $-1 $317 $401 #
straight-curve $-1 -43.391720741407937 24.587366390912884 9.7184761150768679 0 -1 0 I I #
edge $-1 $237 -33.669457660807339 $322 -17.704661274002845 $239 $402 forward 7 unknown #
vertex $-1 $321 $403 #
straight-curve $-1 -43.391720741407937 -28.107102980393051 50.468435735334396 0 -0.82903756765294845 0.55919291073839883 I I #
straight-curve $-1 -59.356517128212431 -8.4761616944871179 37.227198393969744 0 0.82903756765294845 -0.55919291073839883 I I #
coedge $-1 $399 $232 $404 $405 forward $233 $-1 #
edge $-1 $235 -32.307195478656304 $406 42.71108490875875 $232 $407 forward 7 unknown #
point $-1 -43.391720741407937 32.307195478656311 9.7184761150768608 #
point $-1 -59.356517128212431 32.307195478656304 9.7184761150768608 #
point $-1 -59.356517128212431 42.71108490875875 2.7009639534869905 #
coedge $-1 $240 $408 $409 $410 reversed $241 $-1 #
face $-1 $411 $241 $17 $-1 $412 reversed single #
coedge $-1 $409 $413 $243 $333 forward $414 $-1 #
edge $-1 $415 -42.71108490875875 $334 42.71108490875875 $332 $416 forward 7 unknown #
vertex $-1 $410 $417 #
straight-curve $-1 -32.114436756036078 42.71108490875875 5.1781649463760484 1 0 0 I I #
coedge $-1 $418 $419 $245 $337 forward $395 $-1 #
edge $-1 $339 27.242080372176353 $415 36.986793139895802 $336 $420 forward 7 unknown #
coedge $-1 $315 $246 $419 $421 reversed $138 $-1 #
vertex $-1 $337 $422 #
face $-1 $423 $351 $18 $-1 $424 forward single #
loop $-1 $-1 $425 $250 #
plane-surface $-1 -59.356517128212431 0 7.4483205307264555 -1 0 0 0 0 1 forward_v I I I I #
coedge $-1 $426 $427 $428 $429 reversed $251 $-1 #
coedge $-1 $430 $431 $432 $433 reversed $253 $-1 #
coedge $-1 $431 $434 $254 $346 reversed $253 $-1 #
edge $-1 $353 80.992212024207873 $435 85.422169817517471 $254 $436 forward 7 unknown #
coedge $-1 $437 $438 $255 $348 forward $439 $-1 #
edge $-1 $352 77.343568476041725 $435 79.820769468930777 $347 $440 forward 7 unknown #
coedge $-1 $441 $256 $438 $442 reversed $351 $-1 #
coedge $-1 $256 $443 $444 $445 reversed $351 $-1 #
loop $-1 $-1 $256 $340 #
vertex $-1 $442 $446 #
vertex $-1 $445 $447 #
straight-curve $-1 -59.356517128212431 0 5.1781649463760484 0 -1 0 I I #
vertex $-1 $258 $448 #
point $-1 -52.795146731982577 34.705649651257438 2.0533744590459921 #
face $-1 $449 $450 $19 $-1 $451 forward single #
plane-surface $-1 -51.374118934810184 -28.107102980393051 50.468435735334396 0 0.55919291073839883 0.82903756765294845 1 0 0 forward_v I I I I #
coedge $-1 $452 $453 $454 $455 forward $263 $-1 #
coedge $-1 $360 $360 $-1 $456 forward $265 $-1 #
edge $-1 $457 0 $457 6.2831853071796004 $266 $458 forward 7 unknown #
vertex $-1 $269 $459 #
ellipse-curve $-1 -54.795146731982577 37.509140193707516 6.2097200342819416 0 -0.55919291073839883 -0.82903756765294845 2 0 0 1 I I #
vertex $-1 $270 $460 #
point $-1 -45.953091137637792 34.705649651257438 2.0533744590459921 #
loop $-1 $-1 $461 $262 #
straight-curve $-1 -69.10122989593188 42.71108490875875 0 0 0 -1 I I #
point $-1 -69.10122989593188 -42.71108490875875 -9.7184761150768608 #
straight-curve $-1 -69.10122989593188 0 -9.7184761150768608 0 1 0 I I #
point $-1 -69.10122989593188 42.71108490875875 -9.7184761150768608 #
face $-1 $-1 $462 $16 $-1 $463 reversed single #
plane-surface $-1 0 42.71108490875875 0 0 -1 0 0 0 -1 forward_v I I I I #
coedge $-1 $464 $294 $309 $391 forward $201 $-1 #
coedge $-1 $294 $464 $306 $388 forward $201 $-1 #
coedge $-1 $465 $385 $294 $376 reversed $462 $-1 #
edge $-1 $466 -42.71108490875875 $467 42.71108490875875 $375 $468 forward 7 unknown #
coedge $-1 $385 $465 $295 $378 reversed $462 $-1 #
edge $-1 $379 -42.71108490875875 $382 42.71108490875875 $377 $469 forward 7 unknown #
vertex $-1 $378 $470 #
straight-curve $-1 0 -42.71108490875875 9.7184761150768608 1 0 0 I I #
coedge $-1 $306 $297 $465 $471 forward $213 $-1 #
vertex $-1 $378 $472 #
straight-curve $-1 0 42.71108490875875 9.7184761150768608 -1 0 0 I I #
point $-1 -59.356517128212431 42.71108490875875 9.7184761150768626 #
coedge $-1 $375 $377 $301 $386 forward $462 $-1 #
edge $-1 $379 -9.7184761150768608 $467 9.7184761150768608 $385 $473 forward 7 unknown #
coedge $-1 $304 $303 $464 $474 reversed $292 $-1 #
edge $-1 $389 -69.10122989593188 $466 69.10122989593188 $306 $475 forward 7 unknown #
vertex $-1 $388 $476 #
straight-curve $-1 -69.10122989593188 42.71108490875875 0 0 0 -1 I I #
edge $-1 $467 -69.10122989593188 $392 69.10122989593188 $309 $477 forward 7 unknown #
vertex $-1 $474 $478 #
straight-curve $-1 -69.10122989593188 -42.71108490875875 0 0 0 -1 I I #
face $-1 $479 $480 $17 $-1 $481 reversed single #
loop $-1 $-1 $419 $313 #
plane-surface $-1 0 -42.71108490875875 0 0 1 0 0 0 1 forward_v I I I I #
coedge $-1 $482 $316 $318 $400 reversed $241 $-1 #
straight-curve $-1 -43.391720741407937 42.71108490875875 82.521733422417768 0 0 1 I I #
coedge $-1 $318 $325 $483 $484 forward $233 $-1 #
edge $-1 $485 -69.10122989593188 $319 43.391720741407937 $397 $486 forward 7 unknown #
point $-1 -43.391720741407937 42.71108490875875 9.7184761150768608 #
straight-curve $-1 -25.687059467405092 42.711084908758757 2.700963953486994 1 0 0 I I #
point $-1 -43.391720741407937 42.71108490875875 2.7009639534869905 #
coedge $-1 $419 $487 $325 $405 reversed $395 $-1 #
edge $-1 $406 -59.356517128212431 $488 69.10122989593188 $404 $489 forward 7 unknown #
vertex $-1 $405 $490 #
straight-curve $-1 -59.356517128212431 0 9.7184761150768608 0 -1 0 I I #
coedge $-1 $330 $482 $491 $492 reversed $241 $-1 #
coedge $-1 $493 $332 $330 $410 forward $414 $-1 #
edge $-1 $334 -5.1781649463760484 $494 9.7184761150768608 $330 $495 forward 7 unknown #
face $-1 $-1 $496 $17 $-1 $497 reversed single #
plane-surface $-1 0 42.71108490875875 0 0 -1 0 0 0 -1 forward_v I I I I #
coedge $-1 $332 $493 $418 $498 reversed $414 $-1 #
loop $-1 $-1 $332 $479 #
vertex $-1 $498 $499 #
straight-curve $-1 -69.10122989593188 0 5.1781649463760484 0 1 0 I I #
point $-1 -69.10122989593188 42.71108490875875 5.1781649463760484 #
coedge $-1 $500 $336 $413 $498 forward $395 $-1 #
coedge $-1 $336 $404 $338 $421 forward $395 $-1 #
straight-curve $-1 -32.114436756036078 -42.71108490875875 5.1781649463760484 -1 0 0 I I #
edge $-1 $406 -5.9943158497136348 $339 -1.4540046810128207 $419 $501 forward 7 unknown #
point $-1 -59.356517128212431 -42.71108490875875 5.1781649463760484 #
face $-1 $502 $503 $18 $-1 $504 forward single #
plane-surface $-1 -64.228873512072155 0 5.1781649463760484 0 0 1 1 0 0 forward_v I I I I #
coedge $-1 $444 $505 $431 $506 forward $341 $-1 #
coedge $-1 $427 $343 $507 $508 reversed $251 $-1 #
coedge $-1 $343 $426 $430 $509 forward $251 $-1 #
coedge $-1 $432 $510 $343 $429 forward $503 $-1 #
edge $-1 $511 -18.123718517845866 $512 -7.7198290877434275 $428 $513 forward 7 unknown #
coedge $-1 $434 $344 $427 $509 reversed $253 $-1 #
coedge $-1 $344 $345 $425 $506 reversed $253 $-1 #
coedge $-1 $514 $428 $344 $433 forward $503 $-1 #
edge $-1 $512 17.704661274002845 $515 33.669457660807339 $432 $516 forward 7 unknown #
coedge $-1 $345 $430 $437 $517 reversed $253 $-1 #
vertex $-1 $517 $518 #
straight-curve $-1 -59.356517128212431 -28.107102980393051 50.468435735334396 0 0.82903756765294845 -0.55919291073839883 I I #
coedge $-1 $507 $347 $434 $517 forward $439 $-1 #
coedge $-1 $347 $519 $349 $442 forward $439 $-1 #
loop $-1 $-1 $507 $520 #
straight-curve $-1 -59.356517128212431 42.71108490875875 82.521733422417768 0 0 -1 I I #
coedge $-1 $443 $349 $521 $522 reversed $351 $-1 #
edge $-1 $523 -36.986793139895802 $352 -27.242080372176353 $438 $524 forward 7 unknown #
coedge $-1 $350 $441 $525 $526 reversed $351 $-1 #
coedge $-1 $527 $425 $350 $445 forward $341 $-1 #
edge $-1 $353 -39.038483474988126 $528 42.71108490875875 $444 $354 forward 7 unknown #
point $-1 -59.356517128212431 42.71108490875875 5.1781649463760484 #
point $-1 -59.356517128212431 39.038483474988126 5.1781649463760502 #
point $-1 -54.795146731982577 33.587263829780646 0.39529932374009547 #
face $-1 $529 $530 $19 $-1 $531 forward single #
loop $-1 $-1 $532 $357 #
plane-surface $-1 -43.391720741407937 49.174732781825767 165.04346684483554 -1 0 0 0 0.55919291073839883 0.82903756765294845 forward_v I I I I #
coedge $-1 $453 $359 $533 $534 forward $263 $-1 #
coedge $-1 $359 $452 $535 $536 reversed $263 $-1 #
coedge $-1 $537 $538 $359 $455 reversed $539 $-1 #
edge $-1 $540 -42.71108490875875 $541 -39.038483474988126 $454 $542 forward 7 unknown #
edge $-1 $543 1 $543 0 $360 $-1 forward 7 unknown #
vertex $-1 $361 $544 #
ellipse-curve $-1 -54.795146731982577 34.705649651257438 2.0533744590459921 0 0.55919291073839883 0.82903756765294845 2 0 0 1 I I #
point $-1 -52.795146731982577 37.509140193707502 6.2097200342819248 #
point $-1 -47.953091137637792 33.587263829780646 0.39529932374009547 #
coedge $-1 $545 $546 $547 $548 reversed $366 $-1 #
loop $-1 $-1 $385 $371 #
plane-surface $-1 69.10122989593188 0 0 -1 0 0 0 0 1 forward_v I I I I #
coedge $-1 $374 $373 $387 $474 forward $201 $-1 #
coedge $-1 $377 $375 $381 $471 reversed $462 $-1 #
vertex $-1 $376 $549 #
vertex $-1 $386 $550 #
straight-curve $-1 69.10122989593188 0 -9.7184761150768608 0 -1 0 I I #
straight-curve $-1 69.10122989593188 0 9.7184761150768608 0 1 0 I I #
point $-1 69.10122989593188 -42.71108490875875 9.7184761150768608 #
edge $-1 $382 -9.7184761150768608 $466 9.7184761150768608 $465 $551 forward 7 unknown #
point $-1 69.10122989593188 42.71108490875875 9.7184761150768608 #
straight-curve $-1 69.10122989593188 -42.71108490875875 0 0 0 -1 I I #
edge $-1 $392 -42.71108490875875 $389 42.71108490875875 $387 $552 forward 7 unknown #
straight-curve $-1 0 42.71108490875875 -9.7184761150768608 1 0 0 I I #
point $-1 -69.10122989593188 42.71108490875875 -9.7184761150768608 #
straight-curve $-1 0 -42.71108490875875 -9.7184761150768608 -1 0 0 I I #
point $-1 -69.10122989593188 -42.71108490875875 -9.7184761150768608 #
face $-1 $331 $414 $17 $-1 $553 reversed single #
loop $-1 $-1 $554 $394 #
plane-surface $-1 0 0 -9.7184761150768608 0 0 1 1 0 0 forward_v I I I I #
coedge $-1 $408 $397 $555 $556 forward $241 $-1 #
coedge $-1 $557 $555 $399 $484 reversed $496 $-1 #
edge $-1 $488 -42.71108490875875 $485 42.71108490875875 $483 $558 forward 7 unknown #
vertex $-1 $484 $559 #
straight-curve $-1 0 42.71108490875875 9.7184761150768608 -1 0 0 I I #
coedge $-1 $404 $500 $557 $560 reversed $395 $-1 #
vertex $-1 $484 $561 #
straight-curve $-1 0 -42.71108490875875 9.7184761150768608 1 0 0 I I #
point $-1 -59.356517128212431 -42.71108490875875 9.7184761150768626 #
coedge $-1 $554 $562 $408 $492 forward $480 $-1 #
edge $-1 $494 -69.10122989593188 $563 69.10122989593188 $408 $564 forward 7 unknown #
coedge $-1 $413 $409 $562 $565 reversed $414 $-1 #
vertex $-1 $492 $566 #
straight-curve $-1 -69.10122989593188 42.71108490875875 0 0 0 -1 I I #
loop $-1 $-1 $557 $411 #
plane-surface $-1 69.10122989593188 0 0 -1 0 0 0 0 1 forward_v I I I I #
edge $-1 $415 -5.1781649463760484 $567 9.7184761150768608 $413 $568 forward 7 unknown #
point $-1 -69.10122989593188 -42.71108490875875 5.1781649463760484 #
coedge $-1 $487 $418 $569 $570 reversed $395 $-1 #
straight-curve $-1 -59.356517128212431 -42.71108490875875 3.7241602653632278 0 0 -1 I I #
face $-1 $571 $572 $18 $-1 $573 reversed single #
loop $-1 $-1 $432 $423 #
plane-surface $-1 0 0 9.7184761150768608 0 0 1 1 0 0 forward_v I I I I #
coedge $-1 $425 $527 $514 $574 reversed $341 $-1 #
edge $-1 $515 49.193617713372603 $353 57.313018159106896 $425 $575 forward 7 unknown #
coedge $-1 $576 $437 $426 $508 forward $439 $-1 #
edge $-1 $577 -79.820769468930777 $511 -72.803257307340914 $507 $578 forward 7 unknown #
edge $-1 $577 -85.422169817517471 $512 -72.872811578473588 $427 $579 forward 7 unknown #
coedge $-1 $428 $580 $576 $581 forward $503 $-1 #
vertex $-1 $508 $582 #
vertex $-1 $433 $583 #
straight-curve $-1 -43.391720741407937 24.587366390912884 9.7184761150768679 0 -1 0 I I #
coedge $-1 $584 $432 $505 $574 forward $503 $-1 #
vertex $-1 $574 $585 #
straight-curve $-1 -25.687059467405092 32.307195478656311 9.7184761150768573 -1 0 0 I I #
edge $-1 $435 -33.669457660807339 $577 -17.704661274002845 $437 $586 forward 7 unknown #
point $-1 -59.356517128212431 42.71108490875875 2.7009639534869905 #
coedge $-1 $438 $587 $588 $589 reversed $439 $-1 #
face $-1 $590 $439 $18 $-1 $591 reversed single #
coedge $-1 $588 $592 $441 $522 forward $593 $-1 #
edge $-1 $594 -42.71108490875875 $523 42.71108490875875 $521 $595 forward 7 unknown #
vertex $-1 $589 $596 #
straight-curve $-1 -32.114436756036078 42.71108490875875 5.1781649463760484 1 0 0 I I #
coedge $-1 $597 $598 $443 $526 forward $572 $-1 #
edge $-1 $528 27.242080372176353 $594 36.986793139895802 $525 $599 forward 7 unknown #
coedge $-1 $505 $444 $598 $600 reversed $341 $-1 #
vertex $-1 $526 $601 #
face $-1 $602 $539 $19 $-1 $603 forward single #
loop $-1 $-1 $604 $449 #
plane-surface $-1 -59.356517128212431 0 7.4483205307264555 -1 0 0 0 0 1 forward_v I I I I #
coedge $-1 $605 $606 $607 $608 reversed $450 $-1 #
coedge $-1 $546 $609 $452 $534 reversed $366 $-1 #
edge $-1 $541 80.992212024207873 $610 85.422169817517471 $452 $611 forward 7 unknown #
coedge $-1 $612 $613 $453 $536 forward $614 $-1 #
edge $-1 $540 77.343568476041725 $610 79.820769468930777 $535 $615 forward 7 unknown #
coedge $-1 $616 $454 $613 $617 reversed $539 $-1 #
coedge $-1 $454 $618 $619 $620 reversed $539 $-1 #
loop $-1 $-1 $454 $529 #
vertex $-1 $617 $621 #
vertex $-1 $620 $622 #
straight-curve $-1 -59.356517128212431 0 5.1781649463760484 0 -1 0 I I #
vertex $-1 $456 $623 #
point $-1 -52.795146731982577 34.705649651257438 2.0533744590459921 #
coedge $-1 $609 $461 $606 $624 reversed $366 $-1 #
coedge $-1 $461 $533 $604 $625 reversed $366 $-1 #
coedge $-1 $626 $607 $461 $548 forward $627 $-1 #
edge $-1 $628 17.704661274002845 $629 33.669457660807339 $547 $630 forward 7 unknown #
point $-1 69.10122989593188 42.71108490875875 -9.7184761150768608 #
point $-1 69.10122989593188 -42.71108490875875 -9.7184761150768608 #
straight-curve $-1 69.10122989593188 42.71108490875875 0 0 0 -1 I I #
straight-curve $-1 -69.10122989593188 0 -9.7184761150768608 0 1 0 I I #
plane-surface $-1 -69.10122989593188 0 0 1 0 0 0 0 -1 forward_v I I I I #
coedge $-1 $569 $491 $631 $632 forward $480 $-1 #
coedge $-1 $483 $631 $482 $556 reversed $496 $-1 #
edge $-1 $485 -9.7184761150768608 $563 9.7184761150768608 $555 $633 forward 7 unknown #
coedge $-1 $631 $483 $487 $560 forward $496 $-1 #
straight-curve $-1 69.10122989593188 0 9.7184761150768608 0 1 0 I I #
point $-1 69.10122989593188 42.71108490875875 9.7184761150768608 #
edge $-1 $488 -9.7184761150768608 $634 9.7184761150768608 $557 $635 forward 7 unknown #
point $-1 69.10122989593188 -42.71108490875875 9.7184761150768608 #
coedge $-1 $491 $569 $493 $565 forward $480 $-1 #
vertex $-1 $632 $636 #
straight-curve $-1 0 42.71108490875875 -9.7184761150768608 1 0 0 I I #
edge $-1 $567 -42.71108490875875 $494 42.71108490875875 $493 $637 forward 7 unknown #
point $-1 -69.10122989593188 42.71108490875875 -9.7184761150768608 #
vertex $-1 $565 $638 #
straight-curve $-1 -69.10122989593188 -42.71108490875875 0 0 0 -1 I I #
coedge $-1 $562 $554 $500 $570 forward $480 $-1 #
edge $-1 $634 -69.10122989593188 $567 69.10122989593188 $500 $639 forward 7 unknown #
face $-1 $640 $641 $18 $-1 $642 reversed single #
loop $-1 $-1 $598 $502 #
plane-surface $-1 0 -42.71108490875875 0 0 1 0 0 0 1 forward_v I I I I #
edge $-1 $515 -32.307195478656304 $643 42.71108490875875 $514 $644 forward 7 unknown #
straight-curve $-1 -59.356517128212431 -8.4761616944871179 37.227198393969744 0 0.82903756765294845 -0.55919291073839883 I I #
coedge $-1 $645 $507 $510 $581 reversed $439 $-1 #
vertex $-1 $517 $646 #
straight-curve $-1 -43.391720741407937 42.71108490875875 82.521733422417768 0 0 1 I I #
straight-curve $-1 -43.391720741407937 -28.107102980393051 50.468435735334396 0 -0.82903756765294845 0.55919291073839883 I I #
coedge $-1 $510 $584 $647 $648 forward $503 $-1 #
edge $-1 $649 -69.10122989593188 $511 43.391720741407937 $576 $650 forward 7 unknown #
point $-1 -43.391720741407937 42.71108490875875 9.7184761150768608 #
point $-1 -43.391720741407937 32.307195478656311 9.7184761150768608 #
coedge $-1 $580 $514 $651 $652 forward $503 $-1 #
point $-1 -59.356517128212431 32.307195478656304 9.7184761150768608 #
straight-curve $-1 -25.687059467405092 42.711084908758757 2.700963953486994 1 0 0 I I #
coedge $-1 $519 $645 $653 $654 reversed $439 $-1 #
coedge $-1 $655 $521 $519 $589 forward $593 $-1 #
edge $-1 $523 -5.1781649463760484 $656 9.7184761150768608 $519 $657 forward 7 unknown #
face $-1 $-1 $658 $18 $-1 $659 reversed single #
plane-surface $-1 0 42.71108490875875 0 0 -1 0 0 0 -1 forward_v I I I I #
coedge $-1 $521 $655 $597 $660 reversed $593 $-1 #
loop $-1 $-1 $521 $640 #
vertex $-1 $660 $661 #
straight-curve $-1 -69.10122989593188 0 5.1781649463760484 0 1 0 I I #
point $-1 -69.10122989593188 42.71108490875875 5.1781649463760484 #
coedge $-1 $662 $525 $592 $660 forward $572 $-1 #
coedge $-1 $525 $651 $527 $600 forward $572 $-1 #
straight-curve $-1 -32.114436756036078 -42.71108490875875 5.1781649463760484 -1 0 0 I I #
edge $-1 $643 -5.9943158497136348 $528 -1.4540046810128207 $598 $663 forward 7 unknown #
point $-1 -59.356517128212431 -42.71108490875875 5.1781649463760484 #
face $-1 $664 $627 $19 $-1 $665 forward single #
plane-surface $-1 -64.228873512072155 0 5.1781649463760484 0 0 1 1 0 0 forward_v I I I I #
coedge $-1 $619 $666 $546 $625 forward $530 $-1 #
coedge $-1 $606 $532 $667 $668 reversed $450 $-1 #
coedge $-1 $532 $605 $545 $624 forward $450 $-1 #
coedge $-1 $547 $669 $532 $608 forward $627 $-1 #
edge $-1 $670 -18.123718517845866 $628 -7.7198290877434275 $607 $671 forward 7 unknown #
coedge $-1 $533 $545 $612 $672 reversed $366 $-1 #
vertex $-1 $672 $673 #
straight-curve $-1 -59.356517128212431 -28.107102980393051 50.468435735334396 0 0.82903756765294845 -0.55919291073839883 I I #
coedge $-1 $667 $535 $609 $672 forward $614 $-1 #
coedge $-1 $535 $674 $537 $617 forward $614 $-1 #
loop $-1 $-1 $667 $675 #
straight-curve $-1 -59.356517128212431 42.71108490875875 82.521733422417768 0 0 -1 I I #
coedge $-1 $618 $537 $676 $677 reversed $539 $-1 #
edge $-1 $678 -36.986793139895802 $540 -27.242080372176353 $613 $679 forward 7 unknown #
coedge $-1 $538 $616 $680 $681 reversed $539 $-1 #
coedge $-1 $682 $604 $538 $620 forward $530 $-1 #
edge $-1 $541 -39.038483474988126 $683 42.71108490875875 $619 $542 forward 7 unknown #
point $-1 -59.356517128212431 42.71108490875875 5.1781649463760484 #
point $-1 -59.356517128212431 39.038483474988126 5.1781649463760502 #
point $-1 -54.795146731982577 33.587263829780646 0.39529932374009547 #
edge $-1 $684 -85.422169817517471 $628 -72.872811578473588 $606 $685 forward 7 unknown #
edge $-1 $629 49.193617713372603 $541 57.313018159106896 $604 $686 forward 7 unknown #
coedge $-1 $687 $547 $666 $688 forward $627 $-1 #
loop $-1 $-1 $547 $602 #
vertex $-1 $548 $689 #
vertex $-1 $688 $690 #
straight-curve $-1 -25.687059467405092 32.307195478656311 9.7184761150768573 -1 0 0 I I #
coedge $-1 $555 $557 $554 $632 reversed $496 $-1 #
edge $-1 $563 -42.71108490875875 $634 42.71108490875875 $631 $691 forward 7 unknown #
straight-curve $-1 69.10122989593188 42.71108490875875 0 0 0 -1 I I #
vertex $-1 $560 $692 #
straight-curve $-1 69.10122989593188 -42.71108490875875 0 0 0 -1 I I #
point $-1 69.10122989593188 42.71108490875875 -9.7184761150768608 #
straight-curve $-1 -69.10122989593188 0 -9.7184761150768608 0 1 0 I I #
point $-1 -69.10122989593188 -42.71108490875875 -9.7184761150768608 #
straight-curve $-1 0 -42.71108490875875 -9.7184761150768608 -1 0 0 I I #
face $-1 $520 $593 $18 $-1 $693 reversed single #
loop $-1 $-1 $694 $571 #
plane-surface $-1 0 0 -9.7184761150768608 0 0 1 1 0 0 forward_v I I I I #
vertex $-1 $652 $695 #
straight-curve $-1 -59.356517128212431 0 9.7184761150768608 0 -1 0 I I #
coedge $-1 $587 $576 $696 $697 forward $439 $-1 #
point $-1 -43.391720741407937 42.71108490875875 2.7009639534869905 #
coedge $-1 $698 $696 $580 $648 reversed $658 $-1 #
edge $-1 $699 -42.71108490875875 $649 42.71108490875875 $647 $700 forward 7 unknown #
vertex $-1 $648 $701 #
straight-curve $-1 0 42.71108490875875 9.7184761150768608 -1 0 0 I I #
coedge $-1 $598 $702 $584 $652 reversed $572 $-1 #
edge $-1 $643 -59.356517128212431 $699 69.10122989593188 $651 $703 forward 7 unknown #
coedge $-1 $694 $704 $587 $654 forward $641 $-1 #
edge $-1 $656 -69.10122989593188 $705 69.10122989593188 $587 $706 forward 7 unknown #
coedge $-1 $592 $588 $704 $707 reversed $593 $-1 #
vertex $-1 $654 $708 #
straight-curve $-1 -69.10122989593188 42.71108490875875 0 0 0 -1 I I #
loop $-1 $-1 $698 $590 #
plane-surface $-1 69.10122989593188 0 0 -1 0 0 0 0 1 forward_v I I I I #
edge $-1 $594 -5.1781649463760484 $709 9.7184761150768608 $592 $710 forward 7 unknown #
point $-1 -69.10122989593188 -42.71108490875875 5.1781649463760484 #
coedge $-1 $702 $597 $711 $712 reversed $572 $-1 #
straight-curve $-1 -59.356517128212431 -42.71108490875875 3.7241602653632278 0 0 -1 I I #
face $-1 $713 $714 $19 $-1 $715 reversed single #
plane-surface $-1 0 0 9.7184761150768608 0 0 1 1 0 0 forward_v I I I I #
coedge $-1 $604 $682 $626 $688 reversed $530 $-1 #
coedge $-1 $716 $612 $605 $668 forward $614 $-1 #
edge $-1 $684 -79.820769468930777 $670 -72.803257307340914 $667 $717 forward 7 unknown #
coedge $-1 $607 $718 $716 $719 forward $627 $-1 #
vertex $-1 $668 $720 #
straight-curve $-1 -43.391720741407937 24.587366390912884 9.7184761150768679 0 -1 0 I I #
edge $-1 $610 -33.669457660807339 $684 -17.704661274002845 $612 $721 forward 7 unknown #
point $-1 -59.356517128212431 42.71108490875875 2.7009639534869905 #
coedge $-1 $613 $722 $723 $724 reversed $614 $-1 #
face $-1 $725 $614 $19 $-1 $726 reversed single #
coedge $-1 $723 $727 $616 $677 forward $728 $-1 #
edge $-1 $729 -42.71108490875875 $678 42.71108490875875 $676 $730 forward 7 unknown #
vertex $-1 $724 $731 #
straight-curve $-1 -32.114436756036078 42.71108490875875 5.1781649463760484 1 0 0 I I #
coedge $-1 $732 $733 $618 $681 forward $714 $-1 #
edge $-1 $683 27.242080372176353 $729 36.986793139895802 $680 $734 forward 7 unknown #
coedge $-1 $666 $619 $733 $735 reversed $530 $-1 #
vertex $-1 $681 $736 #
vertex $-1 $672 $737 #
straight-curve $-1 -43.391720741407937 -28.107102980393051 50.468435735334396 0 -0.82903756765294845 0.55919291073839883 I I #
straight-curve $-1 -59.356517128212431 -8.4761616944871179 37.227198393969744 0 0.82903756765294845 -0.55919291073839883 I I #
coedge $-1 $718 $626 $738 $739 forward $627 $-1 #
edge $-1 $629 -32.307195478656304 $740 42.71108490875875 $626 $741 forward 7 unknown #
point $-1 -43.391720741407937 32.307195478656311 9.7184761150768608 #
point $-1 -59.356517128212431 32.307195478656304 9.7184761150768608 #
straight-curve $-1 69.10122989593188 0 -9.7184761150768608 0 -1 0 I I #
point $-1 69.10122989593188 -42.71108490875875 -9.7184761150768608 #
plane-surface $-1 -69.10122989593188 0 0 1 0 0 0 0 -1 forward_v I I I I #
coedge $-1 $711 $653 $742 $743 forward $641 $-1 #
point $-1 -59.356517128212431 -42.71108490875875 9.7184761150768626 #
coedge $-1 $647 $742 $645 $697 reversed $658 $-1 #
edge $-1 $649 -9.7184761150768608 $705 9.7184761150768608 $696 $744 forward 7 unknown #
coedge $-1 $742 $647 $702 $745 forward $658 $-1 #
vertex $-1 $648 $746 #
straight-curve $-1 69.10122989593188 0 9.7184761150768608 0 1 0 I I #
point $-1 69.10122989593188 42.71108490875875 9.7184761150768608 #
coedge $-1 $651 $662 $698 $745 reversed $572 $-1 #
straight-curve $-1 0 -42.71108490875875 9.7184761150768608 1 0 0 I I #
coedge $-1 $653 $711 $655 $707 forward $641 $-1 #
vertex $-1 $743 $747 #
straight-curve $-1 0 42.71108490875875 -9.7184761150768608 1 0 0 I I #
edge $-1 $709 -42.71108490875875 $656 42.71108490875875 $655 $748 forward 7 unknown #
point $-1 -69.10122989593188 42.71108490875875 -9.7184761150768608 #
vertex $-1 $707 $749 #
straight-curve $-1 -69.10122989593188 -42.71108490875875 0 0 0 -1 I I #
coedge $-1 $704 $694 $662 $712 forward $641 $-1 #
edge $-1 $750 -69.10122989593188 $709 69.10122989593188 $662 $751 forward 7 unknown #
face $-1 $752 $753 $19 $-1 $754 reversed single #
loop $-1 $-1 $733 $664 #
plane-surface $-1 0 -42.71108490875875 0 0 1 0 0 0 1 forward_v I I I I #
coedge $-1 $755 $667 $669 $719 reversed $614 $-1 #
straight-curve $-1 -43.391720741407937 42.71108490875875 82.521733422417768 0 0 1 I I #
coedge $-1 $669 $687 $756 $757 forward $627 $-1 #
edge $-1 $758 -69.10122989593188 $670 43.391720741407937 $716 $759 forward 7 unknown #
point $-1 -43.391720741407937 42.71108490875875 9.7184761150768608 #
straight-curve $-1 -25.687059467405092 42.711084908758757 2.700963953486994 1 0 0 I I #
coedge $-1 $674 $755 $760 $761 reversed $614 $-1 #
coedge $-1 $762 $676 $674 $724 forward $728 $-1 #
edge $-1 $678 -5.1781649463760484 $763 9.7184761150768608 $674 $764 forward 7 unknown #
face $-1 $-1 $765 $19 $-1 $766 reversed single #
plane-surface $-1 0 42.71108490875875 0 0 -1 0 0 0 -1 forward_v I I I I #
coedge $-1 $676 $762 $732 $767 reversed $728 $-1 #
loop $-1 $-1 $676 $752 #
vertex $-1 $767 $768 #
straight-curve $-1 -69.10122989593188 0 5.1781649463760484 0 1 0 I I #
point $-1 -69.10122989593188 42.71108490875875 5.1781649463760484 #
coedge $-1 $769 $680 $727 $767 forward $714 $-1 #
coedge $-1 $680 $738 $682 $735 forward $714 $-1 #
straight-curve $-1 -32.114436756036078 -42.71108490875875 5.1781649463760484 -1 0 0 I I #
edge $-1 $740 -5.9943158497136348 $683 -1.4540046810128207 $733 $770 forward 7 unknown #
point $-1 -59.356517128212431 -42.71108490875875 5.1781649463760484 #
point $-1 -43.391720741407937 42.71108490875875 2.7009639534869905 #
coedge $-1 $733 $771 $687 $739 reversed $714 $-1 #
edge $-1 $740 -59.356517128212431 $772 69.10122989593188 $738 $773 forward 7 unknown #
vertex $-1 $739 $774 #
straight-curve $-1 -59.356517128212431 0 9.7184761150768608 0 -1 0 I I #
coedge $-1 $696 $698 $694 $743 reversed $658 $-1 #
edge $-1 $705 -42.71108490875875 $750 42.71108490875875 $742 $775 forward 7 unknown #
straight-curve $-1 69.10122989593188 42.71108490875875 0 0 0 -1 I I #
edge $-1 $699 -9.7184761150768608 $750 9.7184761150768608 $698 $776 forward 7 unknown #
point $-1 69.10122989593188 -42.71108490875875 9.7184761150768608 #
point $-1 69.10122989593188 42.71108490875875 -9.7184761150768608 #
straight-curve $-1 -69.10122989593188 0 -9.7184761150768608 0 1 0 I I #
point $-1 -69.10122989593188 -42.71108490875875 -9.7184761150768608 #
vertex $-1 $745 $777 #
straight-curve $-1 0 -42.71108490875875 -9.7184761150768608 -1 0 0 I I #
face $-1 $675 $728 $19 $-1 $778 reversed single #
loop $-1 $-1 $779 $713 #
plane-surface $-1 0 0 -9.7184761150768608 0 0 1 1 0 0 forward_v I I I I #
coedge $-1 $722 $716 $780 $781 forward $614 $-1 #
coedge $-1 $782 $780 $718 $757 reversed $765 $-1 #
edge $-1 $772 -42.71108490875875 $758 42.71108490875875 $756 $783 forward 7 unknown #
vertex $-1 $757 $784 #
straight-curve $-1 0 42.71108490875875 9.7184761150768608 -1 0 0 I I #
coedge $-1 $779 $785 $722 $761 forward $753 $-1 #
edge $-1 $763 -69.10122989593188 $786 69.10122989593188 $722 $787 forward 7 unknown #
coedge $-1 $727 $723 $785 $788 reversed $728 $-1 #
vertex $-1 $761 $789 #
straight-curve $-1 -69.10122989593188 42.71108490875875 0 0 0 -1 I I #
loop $-1 $-1 $782 $725 #
plane-surface $-1 69.10122989593188 0 0 -1 0 0 0 0 1 forward_v I I I I #
edge $-1 $729 -5.1781649463760484 $790 9.7184761150768608 $727 $791 forward 7 unknown #
point $-1 -69.10122989593188 -42.71108490875875 5.1781649463760484 #
coedge $-1 $771 $732 $792 $793 reversed $714 $-1 #
straight-curve $-1 -59.356517128212431 -42.71108490875875 3.7241602653632278 0 0 -1 I I #
coedge $-1 $738 $769 $782 $794 reversed $714 $-1 #
vertex $-1 $757 $795 #
straight-curve $-1 0 -42.71108490875875 9.7184761150768608 1 0 0 I I #
point $-1 -59.356517128212431 -42.71108490875875 9.7184761150768626 #
straight-curve $-1 69.10122989593188 0 -9.7184761150768608 0 -1 0 I I #
straight-curve $-1 69.10122989593188 -42.71108490875875 0 0 0 -1 I I #
point $-1 69.10122989593188 -42.71108490875875 -9.7184761150768608 #
plane-surface $-1 -69.10122989593188 0 0 1 0 0 0 0 -1 forward_v I I I I #
coedge $-1 $792 $760 $796 $797 forward $753 $-1 #
coedge $-1 $756 $796 $755 $781 reversed $765 $-1 #
edge $-1 $758 -9.7184761150768608 $786 9.7184761150768608 $780 $798 forward 7 unknown #
coedge $-1 $796 $756 $771 $794 forward $765 $-1 #
straight-curve $-1 69.10122989593188 0 9.7184761150768608 0 1 0 I I #
point $-1 69.10122989593188 42.71108490875875 9.7184761150768608 #
coedge $-1 $760 $792 $762 $788 forward $753 $-1 #
vertex $-1 $797 $799 #
straight-curve $-1 0 42.71108490875875 -9.7184761150768608 1 0 0 I I #
edge $-1 $790 -42.71108490875875 $763 42.71108490875875 $762 $800 forward 7 unknown #
point $-1 -69.10122989593188 42.71108490875875 -9.7184761150768608 #
vertex $-1 $788 $801 #
straight-curve $-1 -69.10122989593188 -42.71108490875875 0 0 0 -1 I I #
coedge $-1 $785 $779 $769 $793 forward $753 $-1 #
edge $-1 $802 -69.10122989593188 $790 69.10122989593188 $769 $803 forward 7 unknown #
edge $-1 $772 -9.7184761150768608 $802 9.7184761150768608 $782 $804 forward 7 unknown #
point $-1 69.10122989593188 -42.71108490875875 9.7184761150768608 #
coedge $-1 $780 $782 $779 $797 reversed $765 $-1 #
edge $-1 $786 -42.71108490875875 $802 42.71108490875875 $796 $805 forward 7 unknown #
straight-curve $-1 69.10122989593188 42.71108490875875 0 0 0 -1 I I #
point $-1 69.10122989593188 42.71108490875875 -9.7184761150768608 #
straight-curve $-1 -69.10122989593188 0 -9.7184761150768608 0 1 0 I I #
point $-1 -69.10122989593188 -42.71108490875875 -9.7184761150768608 #
vertex $-1 $794 $806 #
straight-curve $-1 0 -42.71108490875875 -9.7184761150768608 -1 0 0 I I #
straight-curve $-1 69.10122989593188 -42.71108490875875 0 0 0 -1 I I #
straight-curve $-1 69.10122989593188 0 -9.7184761150768608 0 -1 0 I I #
point $-1 69.10122989593188 -42.71108490875875 -9.7184761150768608 #
End-of-ACIS-data 