500 0 13 0           
7 Unknown 11 ACIS 5.0 NT 24 Fri Mar 26 01:53:29 1999 
-1 9.9999999999999995e-007 1e-010 
body $-1 $13 $-1 $14 #
body $-1 $15 $-1 $16 #
body $-1 $17 $-1 $18 #
body $-1 $19 $-1 $20 #
body $-1 $21 $-1 $22 #
body $-1 $23 $-1 $24 #
body $-1 $25 $-1 $26 #
body $-1 $27 $-1 $28 #
body $-1 $29 $-1 $30 #
body $-1 $31 $-1 $32 #
body $-1 $33 $-1 $34 #
body $-1 $35 $-1 $36 #
body $-1 $37 $-1 $38 #
lump $-1 $-1 $39 $0 #
transform $-1 1 0 0 0 1 0 0 0 1 42.382885219885864 18.761026602125142 9.293942445560349 1 rotate no_reflect no_shear #
lump $-1 $-1 $40 $1 #
transform $-1 1 0 0 0 1 0 0 0 1 42.382885219885864 18.761026602125142 9.293942445560349 1 rotate no_reflect no_shear #
lump $-1 $-1 $41 $2 #
transform $-1 1 0 0 0 1 0 0 0 1 42.382885219885864 18.761026602125142 9.293942445560349 1 rotate no_reflect no_shear #
lump $-1 $-1 $42 $3 #
transform $-1 1 0 0 0 1 0 0 0 1 42.382885219885864 18.761026602125142 9.293942445560349 1 rotate no_reflect no_shear #
lump $-1 $-1 $43 $4 #
transform $-1 1 0 0 0 1 0 0 0 1 42.382885219885864 18.761026602125142 9.293942445560349 1 rotate no_reflect no_shear #
lump $-1 $-1 $44 $5 #
transform $-1 1 0 0 0 1 0 0 0 1 42.382885219885864 18.761026602125142 9.293942445560349 1 rotate no_reflect no_shear #
lump $-1 $-1 $45 $6 #
transform $-1 1 0 0 0 1 0 0 0 1 42.382885219885864 18.761026602125142 9.293942445560349 1 rotate no_reflect no_shear #
lump $-1 $-1 $46 $7 #
transform $-1 1 0 0 0 1 0 0 0 1 42.382885219885864 18.761026602125142 9.293942445560349 1 rotate no_reflect no_shear #
lump $-1 $-1 $47 $8 #
transform $-1 1 0 0 0 1 0 0 0 1 42.382885219885864 18.761026602125142 9.293942445560349 1 rotate no_reflect no_shear #
lump $-1 $-1 $48 $9 #
transform $-1 1 0 0 0 1 0 0 0 1 42.382885219885864 18.761026602125142 9.293942445560349 1 rotate no_reflect no_shear #
lump $-1 $-1 $49 $10 #
transform $-1 1 0 0 0 1 0 0 0 1 42.382885219885864 18.761026602125142 9.293942445560349 1 rotate no_reflect no_shear #
lump $-1 $-1 $50 $11 #
transform $-1 1 0 0 0 1 0 0 0 1 42.382885219885864 18.761026602125142 9.293942445560349 1 rotate no_reflect no_shear #
lump $-1 $-1 $51 $12 #
transform $-1 1 0 0 0 1 0 0 0 1 42.382885219885864 18.761026602125142 9.293942445560349 1 rotate no_reflect no_shear #
shell $-1 $-1 $-1 $52 $-1 $13 #
shell $-1 $-1 $-1 $53 $-1 $15 #
shell $-1 $-1 $-1 $54 $-1 $17 #
shell $-1 $-1 $-1 $55 $-1 $19 #
shell $-1 $-1 $-1 $56 $-1 $21 #
shell $-1 $-1 $-1 $57 $-1 $23 #
shell $-1 $-1 $-1 $58 $-1 $25 #
shell $-1 $-1 $-1 $59 $-1 $27 #
shell $-1 $-1 $-1 $60 $-1 $29 #
shell $-1 $-1 $-1 $61 $-1 $31 #
shell $-1 $-1 $-1 $62 $-1 $33 #
shell $-1 $-1 $-1 $63 $-1 $35 #
shell $-1 $-1 $-1 $64 $-1 $37 #
face $-1 $65 $66 $39 $-1 $67 forward single #
face $-1 $68 $69 $40 $-1 $70 reversed single #
face $-1 $71 $72 $41 $-1 $73 forward single #
face $-1 $74 $75 $42 $-1 $76 forward single #
face $-1 $77 $78 $43 $-1 $79 reversed single #
face $-1 $80 $81 $44 $-1 $82 forward single #
face $-1 $83 $84 $45 $-1 $85 forward single #
face $-1 $86 $87 $46 $-1 $88 reversed single #
face $-1 $89 $90 $47 $-1 $91 forward single #
face $-1 $92 $93 $48 $-1 $94 forward single #
face $-1 $95 $96 $49 $-1 $97 reversed single #
face $-1 $98 $99 $50 $-1 $100 forward single #
face $-1 $101 $102 $51 $-1 $103 forward single #
face $-1 $104 $105 $39 $-1 $106 reversed single #
loop $-1 $-1 $107 $52 #
plane-surface $-1 0 0 9.293942445560349 0 0 1 1 0 0 forward_v I I I I #
face $-1 $108 $109 $40 $-1 $110 reversed single #
loop $-1 $-1 $111 $53 #
plane-surface $-1 71.383734403539236 1.0696216785344985 120.00459111901175 0 -1 0 -0.85716730853699208 0 -0.51503806187062418 forward_v I I I I #
face $-1 $112 $113 $41 $-1 $114 forward single #
loop $-1 $115 $116 $54 #
cone-surface $-1 39.985577045792695 -3.8714249904253908 6.0626639342597706 -0.85716730853699208 0 -0.51503806187062418 0.25751903093531209 0 -0.42858365426849604 1 I I 0 1 0.5 forward I I I I #
face $-1 $117 $118 $42 $-1 $119 forward single #
loop $-1 $120 $121 $55 #
cone-surface $-1 39.985577045792695 -0.90679698904945738 6.0626639342597706 -0.85716730853699208 0 -0.51503806187062418 0.25751903093531209 0 -0.42858365426849604 1 I I 0 1 0.5 forward I I I I #
face $-1 $122 $123 $43 $-1 $124 reversed single #
loop $-1 $-1 $125 $56 #
plane-surface $-1 -110.95983474065034 -16.6086901595501 52.539144234425414 0 1 0 -0.80901700255871778 0 0.5877852410284794 forward_v I I I I #
face $-1 $126 $127 $44 $-1 $128 forward single #
loop $-1 $129 $130 $57 #
cone-surface $-1 -39.568637386079082 -14.829536824801259 5.6962118364787671 0.80901700255871778 0 -0.5877852410284794 0.2938926205142397 0 0.40450850127935889 1 I I 0 1 0.5 forward I I I I #
face $-1 $131 $132 $45 $-1 $133 forward single #
loop $-1 $134 $135 $58 #
cone-surface $-1 -39.568637386079082 -12.160806822677998 5.6962118364787671 0.80901700255871778 0 -0.5877852410284794 0.2938926205142397 0 0.40450850127935889 1 I I 0 1 0.5 forward I I I I #
face $-1 $136 $137 $46 $-1 $138 reversed single #
loop $-1 $-1 $139 $59 #
plane-surface $-1 -110.95983474065034 -4.1013390914666745 52.539144234425414 0 1 0 -0.80901700255871778 0 0.5877852410284794 forward_v I I I I #
face $-1 $140 $141 $47 $-1 $142 forward single #
loop $-1 $143 $144 $60 #
cone-surface $-1 -39.568637386079082 -2.3221857567178326 5.6962118364787671 0.80901700255871778 0 -0.5877852410284794 0.2938926205142397 0 0.40450850127935889 1 I I 0 1 0.5 forward I I I I #
face $-1 $145 $146 $48 $-1 $147 forward single #
loop $-1 $148 $149 $61 #
cone-surface $-1 -39.568637386079082 0.34654424540542905 5.6962118364787671 0.80901700255871778 0 -0.5877852410284794 0.2938926205142397 0 0.40450850127935889 1 I I 0 1 0.5 forward I I I I #
face $-1 $150 $151 $49 $-1 $152 reversed single #
loop $-1 $-1 $153 $62 #
plane-surface $-1 -110.95983474065034 8.4060119766167531 52.539144234425414 0 1 0 -0.80901700255871778 0 0.5877852410284794 forward_v I I I I #
face $-1 $154 $155 $50 $-1 $156 forward single #
loop $-1 $157 $158 $63 #
cone-surface $-1 -39.568637386079082 10.185165311365594 5.6962118364787671 0.80901700255871778 0 -0.5877852410284794 0.2938926205142397 0 0.40450850127935889 1 I I 0 1 0.5 forward I I I I #
face $-1 $159 $160 $51 $-1 $161 forward single #
loop $-1 $162 $163 $64 #
cone-surface $-1 -39.568637386079082 12.853895313488856 5.6962118364787671 0.80901700255871778 0 -0.5877852410284794 0.2938926205142397 0 0.40450850127935889 1 I I 0 1 0.5 forward I I I I #
face $-1 $164 $165 $39 $-1 $166 reversed single #
loop $-1 $-1 $167 $65 #
plane-surface $-1 0 0 -9.293942445560349 0 0 1 1 0 0 forward_v I I I I #
coedge $-1 $168 $169 $170 $171 forward $66 $-1 #
face $-1 $172 $173 $40 $-1 $174 reversed single #
loop $-1 $-1 $175 $68 #
plane-surface $-1 -1.2747129003844151 -2.389110989737425 76.34699299874147 0.85716730853699208 0 0.51503806187062418 0.51503806187062418 0 -0.85716730853699208 forward_v I I I I #
coedge $-1 $176 $177 $178 $179 reversed $69 $-1 #
face $-1 $-1 $180 $41 $-1 $181 forward single #
loop $-1 $182 $183 $71 #
cone-surface $-1 39.058008067310325 -3.8714249904253908 5.5053242828628139 -0.85716730853699208 0 -0.51503806187062418 0.12875951546765604 0 -0.21429182713424802 1 I I -0.70710678118654746 0.70710678118654746 0.25 forward I I I I #
loop $-1 $-1 $184 $54 #
coedge $-1 $116 $116 $185 $186 reversed $72 $-1 #
face $-1 $-1 $187 $42 $-1 $188 forward single #
loop $-1 $189 $190 $74 #
cone-surface $-1 39.058008067310325 -0.90679698904945738 5.5053242828628139 -0.85716730853699208 0 -0.51503806187062418 0.12875951546765604 0 -0.21429182713424802 1 I I -0.70710678118654746 0.70710678118654746 0.25 forward I I I I #
loop $-1 $-1 $191 $55 #
coedge $-1 $121 $121 $192 $193 reversed $75 $-1 #
face $-1 $194 $195 $43 $-1 $196 reversed single #
loop $-1 $-1 $197 $77 #
plane-surface $-1 -42.38288521988585 -13.495171823739629 2.7150754255194371 -0.80901700255871778 0 0.5877852410284794 0.5877852410284794 0 0.80901700255871778 forward_v I I I I #
coedge $-1 $198 $199 $200 $201 reversed $78 $-1 #
face $-1 $-1 $202 $44 $-1 $203 forward single #
loop $-1 $204 $205 $80 #
cone-surface $-1 -38.942048569733799 -14.829536824801259 5.240968427160519 0.80901700255871778 0 -0.5877852410284794 0.14694631025711985 0 0.20225425063967944 1 I I -0.70710678118654746 0.70710678118654746 0.25 forward I I I I #
loop $-1 $-1 $206 $57 #
coedge $-1 $130 $130 $207 $208 reversed $81 $-1 #
face $-1 $-1 $209 $45 $-1 $210 forward single #
loop $-1 $211 $212 $83 #
cone-surface $-1 -38.942048569733799 -12.160806822677998 5.240968427160519 0.80901700255871778 0 -0.5877852410284794 0.14694631025711985 0 0.20225425063967944 1 I I -0.70710678118654746 0.70710678118654746 0.25 forward I I I I #
loop $-1 $-1 $213 $58 #
coedge $-1 $135 $135 $214 $215 reversed $84 $-1 #
face $-1 $216 $217 $46 $-1 $218 reversed single #
loop $-1 $-1 $219 $86 #
plane-surface $-1 -42.38288521988585 -0.98782075565620175 2.7150754255194371 -0.80901700255871778 0 0.5877852410284794 0.5877852410284794 0 0.80901700255871778 forward_v I I I I #
coedge $-1 $220 $221 $222 $223 reversed $87 $-1 #
face $-1 $-1 $224 $47 $-1 $225 forward single #
loop $-1 $226 $227 $89 #
cone-surface $-1 -38.942048569733799 -2.3221857567178326 5.240968427160519 0.80901700255871778 0 -0.5877852410284794 0.14694631025711985 0 0.20225425063967944 1 I I -0.70710678118654746 0.70710678118654746 0.25 forward I I I I #
loop $-1 $-1 $228 $60 #
coedge $-1 $144 $144 $229 $230 reversed $90 $-1 #
face $-1 $-1 $231 $48 $-1 $232 forward single #
loop $-1 $233 $234 $92 #
cone-surface $-1 -38.942048569733799 0.34654424540542905 5.240968427160519 0.80901700255871778 0 -0.5877852410284794 0.14694631025711985 0 0.20225425063967944 1 I I -0.70710678118654746 0.70710678118654746 0.25 forward I I I I #
loop $-1 $-1 $235 $61 #
coedge $-1 $149 $149 $236 $237 reversed $93 $-1 #
face $-1 $238 $239 $49 $-1 $240 reversed single #
loop $-1 $-1 $241 $95 #
plane-surface $-1 -42.38288521988585 11.519530312427225 2.7150754255194371 -0.80901700255871778 0 0.5877852410284794 0.5877852410284794 0 0.80901700255871778 forward_v I I I I #
coedge $-1 $242 $243 $244 $245 reversed $96 $-1 #
face $-1 $-1 $246 $50 $-1 $247 forward single #
loop $-1 $248 $249 $98 #
cone-surface $-1 -38.942048569733799 10.185165311365594 5.240968427160519 0.80901700255871778 0 -0.5877852410284794 0.14694631025711985 0 0.20225425063967944 1 I I -0.70710678118654746 0.70710678118654746 0.25 forward I I I I #
loop $-1 $-1 $250 $63 #
coedge $-1 $158 $158 $251 $252 reversed $99 $-1 #
face $-1 $-1 $253 $51 $-1 $254 forward single #
loop $-1 $255 $256 $101 #
cone-surface $-1 -38.942048569733799 12.853895313488856 5.240968427160519 0.80901700255871778 0 -0.5877852410284794 0.14694631025711985 0 0.20225425063967944 1 I I -0.70710678118654746 0.70710678118654746 0.25 forward I I I I #
loop $-1 $-1 $257 $64 #
coedge $-1 $163 $163 $258 $259 reversed $102 $-1 #
face $-1 $260 $261 $39 $-1 $262 reversed single #
loop $-1 $-1 $263 $104 #
plane-surface $-1 0 -18.761026602125142 0 0 1 0 0 0 1 forward_v I I I I #
coedge $-1 $264 $265 $266 $267 forward $105 $-1 #
coedge $-1 $268 $107 $269 $270 forward $66 $-1 #
coedge $-1 $107 $268 $271 $272 forward $66 $-1 #
coedge $-1 $273 $274 $107 $171 reversed $275 $-1 #
edge $-1 $276 -18.761026602125142 $277 18.761026602125142 $170 $278 forward 7 unknown #
face $-1 $279 $280 $40 $-1 $281 forward single #
loop $-1 $-1 $282 $108 #
plane-surface $-1 71.383734403539236 -5.8478436580093485 120.00459111901175 0 1 0 0.85716730853699208 0 0.51503806187062418 forward_v I I I I #
coedge $-1 $283 $284 $285 $286 reversed $109 $-1 #
coedge $-1 $177 $111 $287 $288 reversed $69 $-1 #
coedge $-1 $111 $176 $283 $289 reversed $69 $-1 #
coedge $-1 $285 $290 $111 $179 forward $280 $-1 #
edge $-1 $291 -6.691018018116246 $292 -3.3229559726261684 $178 $293 forward 7 unknown #
loop $-1 $-1 $185 $112 #
plane-surface $-1 -1.2747129003844151 -2.389110989737425 76.34699299874147 0.85716730853699208 0 0.51503806187062418 0.51503806187062418 0 -0.85716730853699208 forward_v I I I I #
loop $-1 $-1 $294 $71 #
coedge $-1 $183 $183 $184 $295 reversed $113 $-1 #
coedge $-1 $184 $184 $183 $295 forward $115 $-1 #
coedge $-1 $185 $185 $116 $186 forward $180 $-1 #
edge $-1 $296 0 $296 6.2831853071796004 $185 $297 forward 7 unknown #
loop $-1 $-1 $192 $117 #
plane-surface $-1 -1.2747129003844151 -2.389110989737425 76.34699299874147 0.85716730853699208 0 0.51503806187062418 0.51503806187062418 0 -0.85716730853699208 forward_v I I I I #
loop $-1 $-1 $298 $74 #
coedge $-1 $190 $190 $191 $299 reversed $118 $-1 #
coedge $-1 $191 $191 $190 $299 forward $120 $-1 #
coedge $-1 $192 $192 $121 $193 forward $187 $-1 #
edge $-1 $300 0 $300 6.2831853071796004 $192 $301 forward 7 unknown #
face $-1 $302 $303 $43 $-1 $304 reversed single #
loop $-1 $-1 $305 $122 #
plane-surface $-1 -110.95983474065034 -10.381653487929157 52.539144234425414 0 -1 0 0.80901700255871778 0 -0.5877852410284794 forward_v I I I I #
coedge $-1 $306 $307 $308 $309 reversed $123 $-1 #
coedge $-1 $199 $125 $310 $311 reversed $78 $-1 #
coedge $-1 $125 $198 $306 $312 reversed $78 $-1 #
coedge $-1 $308 $313 $125 $201 forward $314 $-1 #
edge $-1 $315 13.097032150439304 $316 17.87685868664169 $200 $317 forward 7 unknown #
loop $-1 $-1 $207 $126 #
plane-surface $-1 -42.38288521988585 -13.495171823739629 2.7150754255194371 -0.80901700255871778 0 0.5877852410284794 0.5877852410284794 0 0.80901700255871778 forward_v I I I I #
loop $-1 $-1 $318 $80 #
coedge $-1 $205 $205 $206 $319 reversed $127 $-1 #
coedge $-1 $206 $206 $205 $319 forward $129 $-1 #
coedge $-1 $207 $207 $130 $208 forward $202 $-1 #
edge $-1 $320 0 $320 6.2831853071796004 $207 $321 forward 7 unknown #
loop $-1 $-1 $214 $131 #
plane-surface $-1 -42.38288521988585 -13.495171823739629 2.7150754255194371 -0.80901700255871778 0 0.5877852410284794 0.5877852410284794 0 0.80901700255871778 forward_v I I I I #
loop $-1 $-1 $322 $83 #
coedge $-1 $212 $212 $213 $323 reversed $132 $-1 #
coedge $-1 $213 $213 $212 $323 forward $134 $-1 #
coedge $-1 $214 $214 $135 $215 forward $209 $-1 #
edge $-1 $324 0 $324 6.2831853071796004 $214 $325 forward 7 unknown #
face $-1 $326 $327 $46 $-1 $328 forward single #
loop $-1 $-1 $329 $136 #
plane-surface $-1 -110.95983474065034 2.125697580154271 52.539144234425414 0 -1 0 0.80901700255871778 0 -0.5877852410284794 forward_v I I I I #
coedge $-1 $330 $331 $332 $333 reversed $137 $-1 #
coedge $-1 $221 $139 $334 $335 reversed $87 $-1 #
coedge $-1 $139 $220 $330 $336 reversed $87 $-1 #
coedge $-1 $332 $337 $139 $223 forward $327 $-1 #
edge $-1 $338 13.097032150439304 $339 17.87685868664169 $222 $340 forward 7 unknown #
loop $-1 $-1 $229 $140 #
plane-surface $-1 -42.38288521988585 -0.98782075565620175 2.7150754255194371 -0.80901700255871778 0 0.5877852410284794 0.5877852410284794 0 0.80901700255871778 forward_v I I I I #
loop $-1 $-1 $341 $89 #
coedge $-1 $227 $227 $228 $342 reversed $141 $-1 #
coedge $-1 $228 $228 $227 $342 forward $143 $-1 #
coedge $-1 $229 $229 $144 $230 forward $224 $-1 #
edge $-1 $343 0 $343 6.2831853071796004 $229 $344 forward 7 unknown #
loop $-1 $-1 $236 $145 #
plane-surface $-1 -42.38288521988585 -0.98782075565620175 2.7150754255194371 -0.80901700255871778 0 0.5877852410284794 0.5877852410284794 0 0.80901700255871778 forward_v I I I I #
loop $-1 $-1 $345 $92 #
coedge $-1 $234 $234 $235 $346 reversed $146 $-1 #
coedge $-1 $235 $235 $234 $346 forward $148 $-1 #
coedge $-1 $236 $236 $149 $237 forward $231 $-1 #
edge $-1 $347 0 $347 6.2831853071796004 $236 $348 forward 7 unknown #
face $-1 $349 $350 $49 $-1 $351 forward single #
loop $-1 $-1 $352 $150 #
plane-surface $-1 -110.95983474065034 14.633048648237697 52.539144234425414 0 -1 0 0.80901700255871778 0 -0.5877852410284794 forward_v I I I I #
coedge $-1 $353 $354 $355 $356 reversed $151 $-1 #
coedge $-1 $243 $153 $357 $358 reversed $96 $-1 #
coedge $-1 $153 $242 $353 $359 reversed $96 $-1 #
coedge $-1 $355 $360 $153 $245 forward $350 $-1 #
edge $-1 $361 13.097032150439304 $362 17.87685868664169 $244 $363 forward 7 unknown #
loop $-1 $-1 $251 $154 #
plane-surface $-1 -42.38288521988585 11.519530312427225 2.7150754255194371 -0.80901700255871778 0 0.5877852410284794 0.5877852410284794 0 0.80901700255871778 forward_v I I I I #
loop $-1 $-1 $364 $98 #
coedge $-1 $249 $249 $250 $365 reversed $155 $-1 #
coedge $-1 $250 $250 $249 $365 forward $157 $-1 #
coedge $-1 $251 $251 $158 $252 forward $246 $-1 #
edge $-1 $366 0 $366 6.2831853071796004 $251 $367 forward 7 unknown #
loop $-1 $-1 $258 $159 #
plane-surface $-1 -42.38288521988585 11.519530312427225 2.7150754255194371 -0.80901700255871778 0 0.5877852410284794 0.5877852410284794 0 0.80901700255871778 forward_v I I I I #
loop $-1 $-1 $368 $101 #
coedge $-1 $256 $256 $257 $369 reversed $160 $-1 #
coedge $-1 $257 $257 $256 $369 forward $162 $-1 #
coedge $-1 $258 $258 $163 $259 forward $253 $-1 #
edge $-1 $370 0 $370 6.2831853071796004 $258 $371 forward 7 unknown #
face $-1 $372 $373 $39 $-1 $374 reversed single #
loop $-1 $-1 $375 $164 #
plane-surface $-1 -42.382885219885864 0 0 1 0 0 0 0 -1 forward_v I I I I #
coedge $-1 $376 $271 $377 $378 forward $165 $-1 #
coedge $-1 $379 $167 $376 $380 forward $105 $-1 #
coedge $-1 $167 $379 $381 $382 forward $105 $-1 #
coedge $-1 $274 $273 $167 $267 reversed $275 $-1 #
edge $-1 $383 -18.761026602125142 $384 18.761026602125142 $266 $385 forward 7 unknown #
coedge $-1 $169 $168 $386 $387 forward $66 $-1 #
coedge $-1 $388 $389 $168 $270 reversed $373 $-1 #
edge $-1 $277 -42.382885219885864 $390 42.382885219885864 $269 $391 forward 7 unknown #
coedge $-1 $263 $392 $169 $272 reversed $165 $-1 #
edge $-1 $393 -42.382885219885864 $276 42.382885219885864 $271 $394 forward 7 unknown #
coedge $-1 $266 $170 $392 $395 forward $275 $-1 #
coedge $-1 $170 $266 $388 $396 reversed $275 $-1 #
loop $-1 $-1 $273 $372 #
vertex $-1 $171 $397 #
vertex $-1 $171 $398 #
straight-curve $-1 42.382885219885864 0 9.293942445560349 0 1 0 I I #
face $-1 $-1 $399 $40 $-1 $400 reversed single #
loop $-1 $-1 $178 $172 #
plane-surface $-1 0 0 9.293942445560349 0 0 1 1 0 0 forward_v I I I I #
coedge $-1 $401 $402 $403 $404 reversed $173 $-1 #
coedge $-1 $405 $175 $177 $289 forward $109 $-1 #
coedge $-1 $175 $405 $401 $406 forward $109 $-1 #
coedge $-1 $403 $178 $175 $286 forward $280 $-1 #
edge $-1 $292 -2.264177173403211 $407 4.653288163140636 $285 $408 forward 7 unknown #
coedge $-1 $409 $410 $176 $288 forward $399 $-1 #
edge $-1 $411 -56.313749864688056 $291 -50.708353113945527 $287 $412 forward 7 unknown #
edge $-1 $292 78.226327445486547 $411 84.765770439771742 $177 $413 forward 7 unknown #
coedge $-1 $178 $403 $409 $414 forward $280 $-1 #
vertex $-1 $288 $415 #
vertex $-1 $179 $416 #
straight-curve $-1 35.691867201769618 1.0696216785344985 9.2939424455603472 -1 0 0 I I #
coedge $-1 $294 $294 $-1 $417 reversed $182 $-1 #
edge $-1 $418 0 $418 6.2831853071796004 $183 $419 forward 7 unknown #
vertex $-1 $186 $420 #
ellipse-curve $-1 40.698854197140825 -3.8714249904253908 6.4912440701890768 0.85716730853699208 0 0.51503806187062418 0.25751903093531209 0 -0.42858365426849604 1 I I #
coedge $-1 $298 $298 $-1 $421 reversed $189 $-1 #
edge $-1 $422 0 $422 6.2831853071796004 $190 $423 forward 7 unknown #
vertex $-1 $193 $424 #
ellipse-curve $-1 40.698854197140825 -0.90679698904945738 6.4912440701890768 0.85716730853699208 0 0.51503806187062418 0.25751903093531209 0 -0.42858365426849604 1 I I #
face $-1 $-1 $314 $43 $-1 $425 forward single #
loop $-1 $-1 $426 $194 #
plane-surface $-1 -42.382885219885864 0 0 1 0 0 0 0 -1 forward_v I I I I #
coedge $-1 $427 $428 $429 $430 reversed $195 $-1 #
coedge $-1 $431 $197 $199 $312 forward $123 $-1 #
coedge $-1 $197 $431 $427 $432 forward $123 $-1 #
coedge $-1 $429 $200 $197 $309 forward $314 $-1 #
edge $-1 $316 -9.8611042476802862 $433 -3.6340675760593424 $308 $434 forward 7 unknown #
coedge $-1 $435 $436 $198 $311 forward $303 $-1 #
edge $-1 $437 -23.554496691693288 $315 -16.975629671652356 $310 $438 forward 7 unknown #
edge $-1 $316 -8.1319267694419359 $437 2.4161062406544664e-014 $199 $439 forward 7 unknown #
coedge $-1 $200 $429 $435 $440 forward $314 $-1 #
loop $-1 $-1 $429 $302 #
vertex $-1 $311 $441 #
vertex $-1 $201 $442 #
straight-curve $-1 -55.479917370325168 -16.6086901595501 9.2939424455603508 1 0 0 I I #
coedge $-1 $318 $318 $-1 $443 reversed $204 $-1 #
edge $-1 $444 0 $444 6.2831853071796004 $205 $445 forward 7 unknown #
vertex $-1 $208 $446 #
ellipse-curve $-1 -39.992971951784668 -14.829536824801259 6.0045089355398851 -0.80901700255871778 0 0.5877852410284794 0.2938926205142397 0 0.40450850127935889 1 I I #
coedge $-1 $322 $322 $-1 $447 reversed $211 $-1 #
edge $-1 $448 0 $448 6.2831853071796004 $212 $449 forward 7 unknown #
vertex $-1 $215 $450 #
ellipse-curve $-1 -39.992971951784668 -12.160806822677998 6.0045089355398851 -0.80901700255871778 0 0.5877852410284794 0.2938926205142397 0 0.40450850127935889 1 I I #
face $-1 $-1 $451 $46 $-1 $452 reversed single #
loop $-1 $-1 $222 $216 #
plane-surface $-1 0 0 9.293942445560349 0 0 1 1 0 0 forward_v I I I I #
coedge $-1 $453 $454 $455 $456 reversed $217 $-1 #
coedge $-1 $457 $219 $221 $336 forward $137 $-1 #
coedge $-1 $219 $457 $453 $458 forward $137 $-1 #
coedge $-1 $455 $222 $219 $333 forward $327 $-1 #
edge $-1 $339 -3.6074287136385736 $459 2.6196079579823719 $332 $460 forward 7 unknown #
coedge $-1 $461 $462 $220 $335 forward $451 $-1 #
edge $-1 $463 -23.554496691693288 $338 -16.975629671652356 $334 $464 forward 7 unknown #
edge $-1 $339 -8.1319267694419359 $463 2.4161062406544664e-014 $221 $465 forward 7 unknown #
coedge $-1 $222 $455 $461 $466 forward $327 $-1 #
vertex $-1 $223 $467 #
vertex $-1 $223 $468 #
straight-curve $-1 -55.479917370325168 -4.1013390914666745 9.2939424455603508 1 0 0 I I #
coedge $-1 $341 $341 $-1 $469 reversed $226 $-1 #
edge $-1 $470 0 $470 6.2831853071796004 $227 $471 forward 7 unknown #
vertex $-1 $230 $472 #
ellipse-curve $-1 -39.992971951784668 -2.3221857567178326 6.0045089355398851 -0.80901700255871778 0 0.5877852410284794 0.2938926205142397 0 0.40450850127935889 1 I I #
coedge $-1 $345 $345 $-1 $473 reversed $233 $-1 #
edge $-1 $474 0 $474 6.2831853071796004 $234 $475 forward 7 unknown #
vertex $-1 $237 $476 #
ellipse-curve $-1 -39.992971951784668 0.34654424540542905 6.0045089355398851 -0.80901700255871778 0 0.5877852410284794 0.2938926205142397 0 0.40450850127935889 1 I I #
face $-1 $-1 $477 $49 $-1 $478 reversed single #
loop $-1 $-1 $244 $238 #
plane-surface $-1 0 0 9.293942445560349 0 0 1 1 0 0 forward_v I I I I #
coedge $-1 $479 $480 $481 $482 reversed $239 $-1 #
coedge $-1 $483 $241 $243 $359 forward $151 $-1 #
coedge $-1 $241 $483 $479 $484 forward $151 $-1 #
coedge $-1 $481 $244 $241 $356 forward $350 $-1 #
edge $-1 $362 2.6462468204031406 $485 8.8732834920240844 $355 $486 forward 7 unknown #
coedge $-1 $487 $488 $242 $358 forward $477 $-1 #
edge $-1 $489 -23.554496691693288 $361 -16.975629671652356 $357 $490 forward 7 unknown #
edge $-1 $362 -8.1319267694419359 $489 2.4161062406544664e-014 $243 $491 forward 7 unknown #
coedge $-1 $244 $481 $487 $492 forward $350 $-1 #
vertex $-1 $245 $493 #
vertex $-1 $245 $494 #
straight-curve $-1 -55.479917370325168 8.4060119766167531 9.2939424455603508 1 0 0 I I #
coedge $-1 $364 $364 $-1 $495 reversed $248 $-1 #
edge $-1 $496 0 $496 6.2831853071796004 $249 $497 forward 7 unknown #
vertex $-1 $252 $498 #
ellipse-curve $-1 -39.992971951784668 10.185165311365594 6.0045089355398851 -0.80901700255871778 0 0.5877852410284794 0.2938926205142397 0 0.40450850127935889 1 I I #
coedge $-1 $368 $368 $-1 $499 reversed $255 $-1 #
edge $-1 $500 0 $500 6.2831853071796004 $256 $501 forward 7 unknown #
vertex $-1 $259 $502 #
ellipse-curve $-1 -39.992971951784668 12.853895313488856 6.0045089355398851 -0.80901700255871778 0 0.5877852410284794 0.2938926205142397 0 0.40450850127935889 1 I I #
face $-1 $-1 $275 $39 $-1 $503 reversed single #
loop $-1 $-1 $388 $260 #
plane-surface $-1 0 18.761026602125142 0 0 -1 0 0 0 -1 forward_v I I I I #
coedge $-1 $504 $386 $389 $505 forward $261 $-1 #
coedge $-1 $392 $263 $264 $380 reversed $165 $-1 #
coedge $-1 $386 $504 $263 $378 reversed $261 $-1 #
edge $-1 $393 -9.293942445560349 $506 9.293942445560349 $377 $507 forward 7 unknown #
coedge $-1 $265 $264 $504 $508 forward $105 $-1 #
edge $-1 $384 -42.382885219885864 $506 42.382885219885864 $376 $509 forward 7 unknown #
coedge $-1 $389 $388 $265 $382 reversed $373 $-1 #
edge $-1 $510 -42.382885219885864 $383 42.382885219885864 $381 $511 forward 7 unknown #
vertex $-1 $267 $512 #
vertex $-1 $395 $513 #
straight-curve $-1 42.382885219885864 0 -9.293942445560349 0 -1 0 I I #
coedge $-1 $375 $377 $268 $387 reversed $261 $-1 #
edge $-1 $390 -18.761026602125142 $393 18.761026602125142 $386 $514 forward 7 unknown #
coedge $-1 $381 $269 $274 $396 forward $373 $-1 #
coedge $-1 $269 $381 $375 $505 reversed $373 $-1 #
vertex $-1 $270 $515 #
straight-curve $-1 0 18.761026602125142 9.293942445560349 -1 0 0 I I #
coedge $-1 $271 $376 $273 $395 reversed $165 $-1 #
vertex $-1 $387 $516 #
straight-curve $-1 0 -18.761026602125142 9.293942445560349 1 0 0 I I #
edge $-1 $276 -9.293942445560349 $384 9.293942445560349 $273 $517 forward 7 unknown #
edge $-1 $277 -9.293942445560349 $383 9.293942445560349 $274 $518 forward 7 unknown #
point $-1 42.382885219885864 -18.761026602125142 9.293942445560349 #
point $-1 42.382885219885864 18.761026602125142 9.293942445560349 #
loop $-1 $-1 $287 $279 #
plane-surface $-1 42.382885219885864 0 0 -1 0 0 0 0 1 forward_v I I I I #
coedge $-1 $402 $282 $284 $406 reversed $173 $-1 #
coedge $-1 $282 $401 $519 $520 reversed $173 $-1 #
coedge $-1 $290 $285 $282 $404 forward $280 $-1 #
edge $-1 $407 3.3229559726261684 $521 6.691018018116246 $403 $522 forward 7 unknown #
coedge $-1 $284 $283 $410 $523 reversed $109 $-1 #
edge $-1 $524 -84.765770439771742 $407 -78.226327445486547 $401 $525 forward 7 unknown #
vertex $-1 $286 $526 #
straight-curve $-1 39.014823174395772 -1.1945554948687125 9.2939424455603472 0 -1 0 I I #
coedge $-1 $519 $287 $290 $414 reversed $399 $-1 #
coedge $-1 $287 $519 $405 $523 forward $399 $-1 #
vertex $-1 $288 $527 #
straight-curve $-1 42.382885219885864 1.0696216785344985 60.002295559505875 0 0 1 I I #
straight-curve $-1 -1.2747129003844151 1.0696216785344985 76.34699299874147 0.51503806187062418 0 -0.85716730853699208 I I #
edge $-1 $521 -5.8478436580093485 $291 1.0696216785344985 $409 $528 forward 7 unknown #
point $-1 42.382885219885864 1.0696216785344985 9.293942445560349 #
point $-1 39.014823174395787 1.0696216785344985 9.2939424455603472 #
edge $-1 $529 1 $529 0 $294 $-1 forward 7 unknown #
vertex $-1 $295 $530 #
ellipse-curve $-1 39.272299894444572 -3.8714249904253908 5.6340837983304697 0.85716730853699208 0 0.51503806187062418 0.25751903093531209 0 -0.42858365426849604 1 I I #
point $-1 40.956373228076131 -3.8714249904253908 6.0626604159205746 #
edge $-1 $531 1 $531 0 $298 $-1 forward 7 unknown #
vertex $-1 $299 $532 #
ellipse-curve $-1 39.272299894444572 -0.90679698904945738 5.6340837983304697 0.85716730853699208 0 0.51503806187062418 0.25751903093531209 0 -0.42858365426849604 1 I I #
point $-1 40.956373228076131 -0.90679698904945738 6.0626604159205746 #
plane-surface $-1 0 0 9.293942445560349 0 0 1 1 0 0 forward_v I I I I #
coedge $-1 $436 $435 $428 $533 forward $303 $-1 #
coedge $-1 $428 $305 $307 $432 reversed $195 $-1 #
coedge $-1 $305 $427 $426 $533 reversed $195 $-1 #
coedge $-1 $313 $308 $305 $430 forward $314 $-1 #
edge $-1 $433 -17.87685868664169 $534 -13.097032150439304 $429 $535 forward 7 unknown #
coedge $-1 $307 $306 $436 $536 reversed $123 $-1 #
edge $-1 $537 -2.4161062406544664e-014 $433 8.1319267694419359 $427 $538 forward 7 unknown #
vertex $-1 $309 $539 #
straight-curve $-1 -37.603058683683479 -6.7475859118698143 9.2939424455603508 0 1 0 I I #
coedge $-1 $426 $310 $313 $440 reversed $303 $-1 #
coedge $-1 $310 $426 $431 $536 forward $303 $-1 #
vertex $-1 $311 $540 #
straight-curve $-1 -42.382885219885864 -16.6086901595501 26.269572117212707 0 0 1 I I #
straight-curve $-1 -42.38288521988585 -16.6086901595501 2.7150754255194371 -0.5877852410284794 0 -0.80901700255871778 I I #
edge $-1 $534 10.381653487929157 $315 16.6086901595501 $435 $541 forward 7 unknown #
point $-1 -42.382885219885864 -16.6086901595501 9.293942445560349 #
point $-1 -37.603058683683479 -16.6086901595501 9.2939424455603508 #
edge $-1 $542 1 $542 0 $318 $-1 forward 7 unknown #
vertex $-1 $319 $543 #
ellipse-curve $-1 -39.144302820373476 -14.829536824801259 5.3879147374176393 -0.80901700255871778 0 0.5877852410284794 0.2938926205142397 0 0.40450850127935889 1 I I #
point $-1 -39.69907933127044 -14.829536824801259 6.4090174368192532 #
edge $-1 $544 1 $544 0 $322 $-1 forward 7 unknown #
vertex $-1 $323 $545 #
ellipse-curve $-1 -39.144302820373476 -12.160806822677998 5.3879147374176393 -0.80901700255871778 0 0.5877852410284794 0.2938926205142397 0 0.40450850127935889 1 I I #
point $-1 -39.69907933127044 -12.160806822677998 6.4090174368192532 #
loop $-1 $-1 $334 $326 #
plane-surface $-1 -42.382885219885864 0 0 1 0 0 0 0 -1 forward_v I I I I #
coedge $-1 $454 $329 $331 $458 reversed $217 $-1 #
coedge $-1 $329 $453 $546 $547 reversed $217 $-1 #
coedge $-1 $337 $332 $329 $456 forward $327 $-1 #
edge $-1 $459 -17.87685868664169 $548 -13.097032150439304 $455 $549 forward 7 unknown #
coedge $-1 $331 $330 $462 $550 reversed $137 $-1 #
edge $-1 $551 -2.4161062406544664e-014 $459 8.1319267694419359 $453 $552 forward 7 unknown #
vertex $-1 $333 $553 #
straight-curve $-1 -37.603058683683479 -0.49391037782810088 9.2939424455603508 0 1 0 I I #
coedge $-1 $546 $334 $337 $466 reversed $451 $-1 #
coedge $-1 $334 $546 $457 $550 forward $451 $-1 #
vertex $-1 $335 $554 #
straight-curve $-1 -42.382885219885864 -4.1013390914666745 26.269572117212707 0 0 1 I I #
straight-curve $-1 -42.38288521988585 -4.1013390914666745 2.7150754255194371 -0.5877852410284794 0 -0.80901700255871778 I I #
edge $-1 $548 -2.125697580154271 $338 4.1013390914666745 $461 $555 forward 7 unknown #
point $-1 -42.382885219885864 -4.1013390914666745 9.293942445560349 #
point $-1 -37.603058683683479 -4.1013390914666745 9.2939424455603508 #
edge $-1 $556 1 $556 0 $341 $-1 forward 7 unknown #
vertex $-1 $342 $557 #
ellipse-curve $-1 -39.144302820373476 -2.3221857567178326 5.3879147374176393 -0.80901700255871778 0 0.5877852410284794 0.2938926205142397 0 0.40450850127935889 1 I I #
point $-1 -39.69907933127044 -2.3221857567178326 6.4090174368192532 #
edge $-1 $558 1 $558 0 $345 $-1 forward 7 unknown #
vertex $-1 $346 $559 #
ellipse-curve $-1 -39.144302820373476 0.34654424540542905 5.3879147374176393 -0.80901700255871778 0 0.5877852410284794 0.2938926205142397 0 0.40450850127935889 1 I I #
point $-1 -39.69907933127044 0.34654424540542905 6.4090174368192532 #
loop $-1 $-1 $357 $349 #
plane-surface $-1 -42.382885219885864 0 0 1 0 0 0 0 -1 forward_v I I I I #
coedge $-1 $480 $352 $354 $484 reversed $239 $-1 #
coedge $-1 $352 $479 $560 $561 reversed $239 $-1 #
coedge $-1 $360 $355 $352 $482 forward $350 $-1 #
edge $-1 $485 -17.87685868664169 $562 -13.097032150439304 $481 $563 forward 7 unknown #
coedge $-1 $354 $353 $488 $564 reversed $151 $-1 #
edge $-1 $565 -2.4161062406544664e-014 $485 8.1319267694419359 $479 $566 forward 7 unknown #
vertex $-1 $356 $567 #
straight-curve $-1 -37.603058683683479 5.7597651562136125 9.2939424455603508 0 1 0 I I #
coedge $-1 $560 $357 $360 $492 reversed $477 $-1 #
coedge $-1 $357 $560 $483 $564 forward $477 $-1 #
vertex $-1 $358 $568 #
straight-curve $-1 -42.382885219885864 8.4060119766167531 26.269572117212707 0 0 1 I I #
straight-curve $-1 -42.38288521988585 8.4060119766167531 2.7150754255194371 -0.5877852410284794 0 -0.80901700255871778 I I #
edge $-1 $562 -14.633048648237697 $361 -8.4060119766167531 $487 $569 forward 7 unknown #
point $-1 -42.382885219885864 8.4060119766167531 9.293942445560349 #
point $-1 -37.603058683683479 8.4060119766167531 9.2939424455603508 #
edge $-1 $570 1 $570 0 $364 $-1 forward 7 unknown #
vertex $-1 $365 $571 #
ellipse-curve $-1 -39.144302820373476 10.185165311365594 5.3879147374176393 -0.80901700255871778 0 0.5877852410284794 0.2938926205142397 0 0.40450850127935889 1 I I #
point $-1 -39.69907933127044 10.185165311365594 6.4090174368192532 #
edge $-1 $572 1 $572 0 $368 $-1 forward 7 unknown #
vertex $-1 $369 $573 #
ellipse-curve $-1 -39.144302820373476 12.853895313488856 5.3879147374176393 -0.80901700255871778 0 0.5877852410284794 0.2938926205142397 0 0.40450850127935889 1 I I #
point $-1 -39.69907933127044 12.853895313488856 6.4090174368192532 #
plane-surface $-1 42.382885219885864 0 0 -1 0 0 0 0 1 forward_v I I I I #
coedge $-1 $377 $375 $379 $508 reversed $261 $-1 #
edge $-1 $390 -9.293942445560349 $510 9.293942445560349 $389 $574 forward 7 unknown #
vertex $-1 $508 $575 #
straight-curve $-1 -42.382885219885864 -18.761026602125142 0 0 0 -1 I I #
edge $-1 $506 -18.761026602125142 $510 18.761026602125142 $504 $576 forward 7 unknown #
straight-curve $-1 0 -18.761026602125142 -9.293942445560349 -1 0 0 I I #
vertex $-1 $382 $577 #
straight-curve $-1 0 18.761026602125142 -9.293942445560349 1 0 0 I I #
point $-1 42.382885219885864 18.761026602125142 -9.293942445560349 #
point $-1 42.382885219885864 -18.761026602125142 -9.293942445560349 #
straight-curve $-1 -42.382885219885864 0 9.293942445560349 0 -1 0 I I #
point $-1 -42.382885219885864 18.761026602125142 9.293942445560349 #
point $-1 -42.382885219885864 -18.761026602125142 9.293942445560349 #
straight-curve $-1 42.382885219885864 -18.761026602125142 0 0 0 -1 I I #
straight-curve $-1 42.382885219885864 18.761026602125142 0 0 0 -1 I I #
coedge $-1 $410 $409 $402 $520 forward $399 $-1 #
edge $-1 $521 50.708353113945527 $524 56.313749864688056 $519 $578 forward 7 unknown #
vertex $-1 $414 $579 #
straight-curve $-1 35.691867201769618 -5.8478436580093485 9.2939424455603472 1 0 0 I I #
edge $-1 $524 -4.653288163140636 $411 2.264177173403211 $410 $580 forward 7 unknown #
vertex $-1 $523 $581 #
straight-curve $-1 -1.2747129003844151 -5.8478436580093485 76.34699299874147 -0.51503806187062418 0 0.85716730853699208 I I #
point $-1 39.014823174395787 -5.8478436580093485 9.2939424455603472 #
point $-1 42.382885219885864 1.0696216785344985 3.6885456948178188 #
straight-curve $-1 42.382885219885864 0 9.293942445560349 0 1 0 I I #
vertex $-1 $417 $582 #
point $-1 39.529818925379885 -3.8714249904253908 5.2055001440619737 #
vertex $-1 $421 $583 #
point $-1 39.529818925379885 -0.90679698904945738 5.2055001440619737 #
edge $-1 $534 16.975629671652356 $537 23.554496691693288 $426 $584 forward 7 unknown #
vertex $-1 $440 $585 #
straight-curve $-1 -55.479917370325168 -10.381653487929157 9.2939424455603508 -1 0 0 I I #
edge $-1 $537 3.6340675760593424 $437 9.8611042476802862 $436 $586 forward 7 unknown #
vertex $-1 $536 $587 #
straight-curve $-1 -42.38288521988585 -10.381653487929157 2.7150754255194371 0.5877852410284794 0 0.80901700255871778 I I #
point $-1 -37.603058683683479 -10.381653487929157 9.2939424455603508 #
point $-1 -42.382885219885864 -16.6086901595501 2.7150754255194176 #
straight-curve $-1 -42.382885219885864 0 9.293942445560349 0 -1 0 I I #
vertex $-1 $443 $588 #
point $-1 -38.85041019985924 -14.829536824801259 5.7924232386969976 #
vertex $-1 $447 $589 #
point $-1 -38.85041019985924 -12.160806822677998 5.7924232386969976 #
coedge $-1 $462 $461 $454 $547 forward $451 $-1 #
edge $-1 $548 16.975629671652356 $551 23.554496691693288 $546 $590 forward 7 unknown #
vertex $-1 $466 $591 #
straight-curve $-1 -55.479917370325168 2.125697580154271 9.2939424455603508 -1 0 0 I I #
edge $-1 $551 -2.6196079579823719 $463 3.6074287136385736 $462 $592 forward 7 unknown #
vertex $-1 $550 $593 #
straight-curve $-1 -42.38288521988585 2.125697580154271 2.7150754255194371 0.5877852410284794 0 0.80901700255871778 I I #
point $-1 -37.603058683683479 2.125697580154271 9.2939424455603508 #
point $-1 -42.382885219885864 -4.1013390914666745 2.7150754255194176 #
straight-curve $-1 -42.382885219885864 0 9.293942445560349 0 -1 0 I I #
vertex $-1 $469 $594 #
point $-1 -38.85041019985924 -2.3221857567178326 5.7924232386969976 #
vertex $-1 $473 $595 #
point $-1 -38.85041019985924 0.34654424540542905 5.7924232386969976 #
coedge $-1 $488 $487 $480 $561 forward $477 $-1 #
edge $-1 $562 16.975629671652356 $565 23.554496691693288 $560 $596 forward 7 unknown #
vertex $-1 $492 $597 #
straight-curve $-1 -55.479917370325168 14.633048648237697 9.2939424455603508 -1 0 0 I I #
edge $-1 $565 -8.8732834920240844 $489 -2.6462468204031406 $488 $598 forward 7 unknown #
vertex $-1 $564 $599 #
straight-curve $-1 -42.38288521988585 14.633048648237697 2.7150754255194371 0.5877852410284794 0 0.80901700255871778 I I #
point $-1 -37.603058683683479 14.633048648237697 9.2939424455603508 #
point $-1 -42.382885219885864 8.4060119766167531 2.7150754255194176 #
straight-curve $-1 -42.382885219885864 0 9.293942445560349 0 -1 0 I I #
vertex $-1 $495 $600 #
point $-1 -38.85041019985924 10.185165311365594 5.7924232386969976 #
vertex $-1 $499 $601 #
point $-1 -38.85041019985924 12.853895313488856 5.7924232386969976 #
straight-curve $-1 -42.382885219885864 18.761026602125142 0 0 0 -1 I I #
point $-1 -42.382885219885864 -18.761026602125142 -9.293942445560349 #
straight-curve $-1 -42.382885219885864 0 -9.293942445560349 0 1 0 I I #
point $-1 -42.382885219885864 18.761026602125142 -9.293942445560349 #
straight-curve $-1 42.382885219885864 -5.8478436580093485 60.002295559505875 0 0 -1 I I #
point $-1 42.382885219885864 -5.8478436580093485 9.293942445560349 #
straight-curve $-1 42.382885219885864 -1.1945554948687125 3.6885456948178046 0 1 0 I I #
point $-1 42.382885219885864 -5.8478436580093485 3.6885456948178188 #
point $-1 38.843716240176079 -3.8714249904253908 5.3765647673951582 #
point $-1 38.843716240176079 -0.90679698904945738 5.3765647673951582 #
straight-curve $-1 -42.382885219885864 -10.381653487929157 26.269572117212707 0 0 -1 I I #
point $-1 -42.382885219885864 -10.381653487929157 9.293942445560349 #
straight-curve $-1 -42.382885219885864 -6.7475859118698143 2.7150754255194198 0 -1 0 I I #
point $-1 -42.382885219885864 -10.381653487929157 2.7150754255194176 #
point $-1 -38.739794319094123 -14.829536824801259 5.0940221169033988 #
point $-1 -38.739794319094123 -12.160806822677998 5.0940221169033988 #
straight-curve $-1 -42.382885219885864 2.125697580154271 26.269572117212707 0 0 -1 I I #
point $-1 -42.382885219885864 2.125697580154271 9.293942445560349 #
straight-curve $-1 -42.382885219885864 -0.49391037782810088 2.7150754255194198 0 -1 0 I I #
point $-1 -42.382885219885864 2.125697580154271 2.7150754255194176 #
point $-1 -38.739794319094123 -2.3221857567178326 5.0940221169033988 #
point $-1 -38.739794319094123 0.34654424540542905 5.0940221169033988 #
straight-curve $-1 -42.382885219885864 14.633048648237697 26.269572117212707 0 0 -1 I I #
point $-1 -42.382885219885864 14.633048648237697 9.293942445560349 #
straight-curve $-1 -42.382885219885864 5.7597651562136125 2.7150754255194198 0 -1 0 I I #
point $-1 -42.382885219885864 14.633048648237697 2.7150754255194176 #
point $-1 -38.739794319094123 10.185165311365594 5.0940221169033988 #
point $-1 -38.739794319094123 12.853895313488856 5.0940221169033988 #
End-of-ACIS-data 