500 0 11 0           
7 Unknown 11 ACIS 5.0 NT 24 Thu Mar 25 23:35:25 1999 
-1 9.9999999999999995e-007 1e-010 
body $-1 $11 $-1 $12 #
body $-1 $13 $-1 $14 #
body $-1 $15 $-1 $16 #
body $-1 $17 $-1 $18 #
body $-1 $19 $-1 $20 #
body $-1 $21 $-1 $22 #
body $-1 $23 $-1 $24 #
body $-1 $25 $-1 $26 #
body $-1 $27 $-1 $28 #
body $-1 $29 $-1 $30 #
body $-1 $31 $-1 $32 #
lump $-1 $-1 $33 $0 #
transform $-1 1 0 0 0 1 0 0 0 1 76.441541795098729 35.077445801729915 9.1418458788730419 1 rotate no_reflect no_shear #
lump $-1 $-1 $34 $1 #
transform $-1 1 0 0 0 1 0 0 0 1 76.441541795098729 35.077445801729915 9.1418458788730419 1 rotate no_reflect no_shear #
lump $-1 $-1 $35 $2 #
transform $-1 1 0 0 0 1 0 0 0 1 76.441541795098729 35.077445801729915 9.1418458788730419 1 rotate no_reflect no_shear #
lump $-1 $-1 $36 $3 #
transform $-1 1 0 0 0 1 0 0 0 1 76.441541795098729 35.077445801729915 9.1418458788730419 1 rotate no_reflect no_shear #
lump $-1 $-1 $37 $4 #
transform $-1 1 0 0 0 1 0 0 0 1 76.441541795098729 35.077445801729915 9.1418458788730419 1 rotate no_reflect no_shear #
lump $-1 $-1 $38 $5 #
transform $-1 1 0 0 0 1 0 0 0 1 76.441541795098729 35.077445801729915 9.1418458788730419 1 rotate no_reflect no_shear #
lump $-1 $-1 $39 $6 #
transform $-1 1 0 0 0 1 0 0 0 1 76.441541795098729 35.077445801729915 9.1418458788730419 1 rotate no_reflect no_shear #
lump $-1 $-1 $40 $7 #
transform $-1 1 0 0 0 1 0 0 0 1 76.441541795098729 35.077445801729915 9.1418458788730419 1 rotate no_reflect no_shear #
lump $-1 $-1 $41 $8 #
transform $-1 1 0 0 0 1 0 0 0 1 76.441541795098729 35.077445801729915 9.1418458788730419 1 rotate no_reflect no_shear #
lump $-1 $-1 $42 $9 #
transform $-1 1 0 0 0 1 0 0 0 1 76.441541795098729 35.077445801729915 9.1418458788730419 1 rotate no_reflect no_shear #
lump $-1 $-1 $43 $10 #
transform $-1 1 0 0 0 1 0 0 0 1 76.441541795098729 35.077445801729915 9.1418458788730419 1 rotate no_reflect no_shear #
shell $-1 $-1 $-1 $44 $-1 $11 #
shell $-1 $-1 $-1 $45 $-1 $13 #
shell $-1 $-1 $-1 $46 $-1 $15 #
shell $-1 $-1 $-1 $47 $-1 $17 #
shell $-1 $-1 $-1 $48 $-1 $19 #
shell $-1 $-1 $-1 $49 $-1 $21 #
shell $-1 $-1 $-1 $50 $-1 $23 #
shell $-1 $-1 $-1 $51 $-1 $25 #
shell $-1 $-1 $-1 $52 $-1 $27 #
shell $-1 $-1 $-1 $53 $-1 $29 #
shell $-1 $-1 $-1 $54 $-1 $31 #
face $-1 $55 $56 $33 $-1 $57 forward single #
face $-1 $58 $59 $34 $-1 $60 reversed single #
face $-1 $61 $62 $35 $-1 $63 reversed single #
face $-1 $64 $65 $36 $-1 $66 reversed single #
face $-1 $67 $68 $37 $-1 $69 forward single #
face $-1 $70 $71 $38 $-1 $72 reversed single #
face $-1 $73 $74 $39 $-1 $75 forward single #
face $-1 $76 $77 $40 $-1 $78 reversed single #
face $-1 $79 $80 $41 $-1 $81 forward single #
face $-1 $82 $83 $42 $-1 $84 reversed single #
face $-1 $85 $86 $43 $-1 $87 forward single #
face $-1 $88 $89 $33 $-1 $90 reversed single #
loop $-1 $-1 $91 $44 #
plane-surface $-1 0 0 9.1418458788730419 0 0 1 1 0 0 forward_v I I I I #
face $-1 $92 $93 $34 $-1 $94 reversed single #
loop $-1 $-1 $95 $45 #
plane-surface $-1 -72.860076432169762 -28.084746820317793 0 0 1 0 0 0 1 forward_v I I I I #
face $-1 $96 $97 $35 $-1 $98 reversed single #
loop $-1 $-1 $99 $46 #
plane-surface $-1 72.36695744800916 0 5.1666620521156688 0 0 1 1 0 0 forward_v I I I I #
face $-1 $100 $101 $36 $-1 $102 reversed single #
loop $-1 $-1 $103 $47 #
plane-surface $-1 -63.311447091653648 76.769298704213071 166.91904495866936 1 0 0 0 -0.62932039886446345 -0.77714595512881146 forward_v I I I I #
face $-1 $104 $105 $37 $-1 $106 forward single #
loop $-1 $107 $108 $48 #
cone-surface $-1 -54.564372644187848 31.129015717010859 5.6269740318297519 0 -0.62932039886446345 -0.77714595512881146 1 0 0 1 I I 0 1 1 forward I I I I #
face $-1 $109 $110 $38 $-1 $111 reversed single #
loop $-1 $-1 $112 $49 #
plane-surface $-1 -27.263944651635502 76.769298704213071 166.91904495866936 1 0 0 0 -0.62932039886446345 -0.77714595512881146 forward_v I I I I #
face $-1 $113 $114 $39 $-1 $115 forward single #
loop $-1 $116 $117 $50 #
cone-surface $-1 -18.516870204169692 31.129015717010859 5.6269740318297519 0 -0.62932039886446345 -0.77714595512881146 1 0 0 1 I I 0 1 1 forward I I I I #
face $-1 $118 $119 $40 $-1 $120 reversed single #
loop $-1 $-1 $121 $51 #
plane-surface $-1 8.7835577883826623 76.769298704213071 166.91904495866936 1 0 0 0 -0.62932039886446345 -0.77714595512881146 forward_v I I I I #
face $-1 $122 $123 $41 $-1 $124 forward single #
loop $-1 $125 $126 $52 #
cone-surface $-1 17.530632235848472 31.129015717010859 5.6269740318297519 0 -0.62932039886446345 -0.77714595512881146 1 0 0 1 I I 0 1 1 forward I I I I #
face $-1 $127 $128 $42 $-1 $129 reversed single #
loop $-1 $-1 $130 $53 #
plane-surface $-1 44.831060228400816 76.769298704213071 166.91904495866936 1 0 0 0 -0.62932039886446345 -0.77714595512881146 forward_v I I I I #
face $-1 $131 $132 $43 $-1 $133 forward single #
loop $-1 $134 $135 $54 #
cone-surface $-1 53.578134675866622 31.129015717010859 5.6269740318297519 0 -0.62932039886446345 -0.77714595512881146 1 0 0 1 I I 0 1 1 forward I I I I #
face $-1 $136 $137 $33 $-1 $138 reversed single #
loop $-1 $-1 $139 $55 #
plane-surface $-1 0 0 -9.1418458788730419 0 0 1 1 0 0 forward_v I I I I #
coedge $-1 $140 $141 $142 $143 forward $56 $-1 #
face $-1 $144 $145 $34 $-1 $146 reversed single #
loop $-1 $-1 $147 $58 #
plane-surface $-1 -72.860076432169762 -24.502053877144473 0 0 -1 0 0 0 -1 forward_v I I I I #
coedge $-1 $148 $149 $150 $151 reversed $59 $-1 #
face $-1 $152 $153 $35 $-1 $154 reversed single #
loop $-1 $-1 $155 $61 #
plane-surface $-1 68.29237310091959 0 7.1542539654943553 1 0 0 0 0 -1 forward_v I I I I #
coedge $-1 $156 $157 $158 $159 reversed $62 $-1 #
face $-1 $160 $161 $36 $-1 $162 reversed single #
loop $-1 $-1 $163 $64 #
plane-surface $-1 -54.564372644187841 -19.443144440399095 48.106574938927437 0 0.62932039886446345 0.77714595512881146 1 0 0 forward_v I I I I #
coedge $-1 $164 $165 $166 $167 reversed $65 $-1 #
face $-1 $-1 $168 $37 $-1 $169 forward single #
loop $-1 $170 $171 $67 #
cone-surface $-1 -54.564372644187848 30.0675044878706 4.3161168602861437 0 -0.62932039886446345 -0.77714595512881146 0.5 0 0 1 I I -0.70710678118654746 0.70710678118654746 0.5 forward I I I I #
loop $-1 $-1 $172 $48 #
coedge $-1 $108 $108 $173 $174 reversed $68 $-1 #
face $-1 $175 $176 $38 $-1 $177 reversed single #
loop $-1 $-1 $178 $70 #
plane-surface $-1 -18.516870204169692 -19.443144440399095 48.106574938927437 0 0.62932039886446345 0.77714595512881146 1 0 0 forward_v I I I I #
coedge $-1 $179 $180 $181 $182 reversed $71 $-1 #
face $-1 $-1 $183 $39 $-1 $184 forward single #
loop $-1 $185 $186 $73 #
cone-surface $-1 -18.516870204169692 30.0675044878706 4.3161168602861437 0 -0.62932039886446345 -0.77714595512881146 0.5 0 0 1 I I -0.70710678118654746 0.70710678118654746 0.5 forward I I I I #
loop $-1 $-1 $187 $50 #
coedge $-1 $117 $117 $188 $189 reversed $74 $-1 #
face $-1 $190 $191 $40 $-1 $192 reversed single #
loop $-1 $-1 $193 $76 #
plane-surface $-1 17.530632235848472 -19.443144440399095 48.106574938927437 0 0.62932039886446345 0.77714595512881146 1 0 0 forward_v I I I I #
coedge $-1 $194 $195 $196 $197 reversed $77 $-1 #
face $-1 $-1 $198 $41 $-1 $199 forward single #
loop $-1 $200 $201 $79 #
cone-surface $-1 17.530632235848472 30.0675044878706 4.3161168602861437 0 -0.62932039886446345 -0.77714595512881146 0.5 0 0 1 I I -0.70710678118654746 0.70710678118654746 0.5 forward I I I I #
loop $-1 $-1 $202 $52 #
coedge $-1 $126 $126 $203 $204 reversed $80 $-1 #
face $-1 $205 $206 $42 $-1 $207 reversed single #
loop $-1 $-1 $208 $82 #
plane-surface $-1 53.578134675866622 -19.443144440399095 48.106574938927437 0 0.62932039886446345 0.77714595512881146 1 0 0 forward_v I I I I #
coedge $-1 $209 $210 $211 $212 reversed $83 $-1 #
face $-1 $-1 $213 $43 $-1 $214 forward single #
loop $-1 $215 $216 $85 #
cone-surface $-1 53.578134675866622 30.0675044878706 4.3161168602861437 0 -0.62932039886446345 -0.77714595512881146 0.5 0 0 1 I I -0.70710678118654746 0.70710678118654746 0.5 forward I I I I #
loop $-1 $-1 $217 $54 #
coedge $-1 $135 $135 $218 $219 reversed $86 $-1 #
face $-1 $220 $221 $33 $-1 $222 reversed single #
loop $-1 $-1 $223 $88 #
plane-surface $-1 0 -35.077445801729915 0 0 1 0 0 0 1 forward_v I I I I #
coedge $-1 $224 $225 $226 $227 forward $89 $-1 #
coedge $-1 $228 $91 $229 $230 forward $56 $-1 #
coedge $-1 $91 $228 $231 $232 forward $56 $-1 #
coedge $-1 $233 $234 $91 $143 reversed $235 $-1 #
edge $-1 $236 -35.077445801729915 $237 35.077445801729915 $142 $238 forward 7 unknown #
face $-1 $239 $240 $34 $-1 $241 reversed single #
loop $-1 $-1 $242 $92 #
plane-surface $-1 -69.278611069240796 -26.293400348731133 0 -1 0 0 0 0 1 forward_v I I I I #
coedge $-1 $243 $244 $245 $246 forward $93 $-1 #
coedge $-1 $247 $95 $248 $249 reversed $59 $-1 #
coedge $-1 $95 $247 $250 $251 reversed $59 $-1 #
coedge $-1 $252 $253 $95 $151 forward $254 $-1 #
edge $-1 $255 -9.1418458788730419 $256 9.1418458788730419 $150 $257 forward 7 unknown #
face $-1 $258 $259 $35 $-1 $260 reversed single #
loop $-1 $-1 $261 $96 #
plane-surface $-1 0 -35.077445801729915 0 0 1 0 0 0 1 forward_v I I I I #
coedge $-1 $262 $263 $264 $265 reversed $97 $-1 #
coedge $-1 $266 $99 $267 $268 reversed $62 $-1 #
coedge $-1 $99 $266 $269 $270 reversed $62 $-1 #
coedge $-1 $271 $272 $99 $159 forward $259 $-1 #
edge $-1 $273 -35.077445801729915 $274 35.077445801729915 $158 $275 forward 7 unknown #
face $-1 $276 $277 $36 $-1 $278 reversed single #
loop $-1 $-1 $279 $100 #
plane-surface $-1 -45.817298196722035 76.769298704213071 166.91904495866936 -1 0 0 0 0.62932039886446345 0.77714595512881146 forward_v I I I I #
coedge $-1 $280 $281 $282 $283 reversed $101 $-1 #
coedge $-1 $165 $103 $284 $285 reversed $65 $-1 #
coedge $-1 $103 $164 $280 $286 reversed $65 $-1 #
coedge $-1 $282 $287 $103 $167 forward $288 $-1 #
edge $-1 $289 3.3072035503766202 $290 9.7103616603986254 $166 $291 forward 7 unknown #
loop $-1 $-1 $173 $104 #
plane-surface $-1 -54.564372644187841 -19.443144440399095 48.106574938927437 0 0.62932039886446345 0.77714595512881146 1 0 0 forward_v I I I I #
loop $-1 $-1 $292 $67 #
coedge $-1 $171 $171 $172 $293 reversed $105 $-1 #
coedge $-1 $172 $172 $171 $293 forward $107 $-1 #
coedge $-1 $173 $173 $108 $174 forward $168 $-1 #
edge $-1 $294 2.026015291910969e-016 $294 6.2831853071796004 $173 $295 forward 7 unknown #
face $-1 $296 $297 $38 $-1 $298 forward single #
loop $-1 $-1 $299 $109 #
plane-surface $-1 -9.769795756703882 76.769298704213071 166.91904495866936 -1 0 0 0 0.62932039886446345 0.77714595512881146 forward_v I I I I #
coedge $-1 $300 $301 $302 $303 reversed $110 $-1 #
coedge $-1 $180 $112 $304 $305 reversed $71 $-1 #
coedge $-1 $112 $179 $300 $306 reversed $71 $-1 #
coedge $-1 $302 $307 $112 $182 forward $297 $-1 #
edge $-1 $308 3.3072035503766202 $309 9.7103616603986254 $181 $310 forward 7 unknown #
loop $-1 $-1 $188 $113 #
plane-surface $-1 -18.516870204169692 -19.443144440399095 48.106574938927437 0 0.62932039886446345 0.77714595512881146 1 0 0 forward_v I I I I #
loop $-1 $-1 $311 $73 #
coedge $-1 $186 $186 $187 $312 reversed $114 $-1 #
coedge $-1 $187 $187 $186 $312 forward $116 $-1 #
coedge $-1 $188 $188 $117 $189 forward $183 $-1 #
edge $-1 $313 2.026015291910969e-016 $313 6.2831853071796004 $188 $314 forward 7 unknown #
face $-1 $315 $316 $40 $-1 $317 forward single #
loop $-1 $-1 $318 $118 #
plane-surface $-1 26.277706683314282 76.769298704213071 166.91904495866936 -1 0 0 0 0.62932039886446345 0.77714595512881146 forward_v I I I I #
coedge $-1 $319 $320 $321 $322 reversed $119 $-1 #
coedge $-1 $195 $121 $323 $324 reversed $77 $-1 #
coedge $-1 $121 $194 $319 $325 reversed $77 $-1 #
coedge $-1 $321 $326 $121 $197 forward $316 $-1 #
edge $-1 $327 3.3072035503766202 $328 9.7103616603986254 $196 $329 forward 7 unknown #
loop $-1 $-1 $203 $122 #
plane-surface $-1 17.530632235848472 -19.443144440399095 48.106574938927437 0 0.62932039886446345 0.77714595512881146 1 0 0 forward_v I I I I #
loop $-1 $-1 $330 $79 #
coedge $-1 $201 $201 $202 $331 reversed $123 $-1 #
coedge $-1 $202 $202 $201 $331 forward $125 $-1 #
coedge $-1 $203 $203 $126 $204 forward $198 $-1 #
edge $-1 $332 2.026015291910969e-016 $332 6.2831853071796004 $203 $333 forward 7 unknown #
face $-1 $334 $335 $42 $-1 $336 forward single #
loop $-1 $-1 $337 $127 #
plane-surface $-1 62.325209123332428 76.769298704213071 166.91904495866936 -1 0 0 0 0.62932039886446345 0.77714595512881146 forward_v I I I I #
coedge $-1 $338 $339 $340 $341 reversed $128 $-1 #
coedge $-1 $210 $130 $342 $343 reversed $83 $-1 #
coedge $-1 $130 $209 $338 $344 reversed $83 $-1 #
coedge $-1 $340 $345 $130 $212 forward $335 $-1 #
edge $-1 $346 3.3072035503766202 $347 9.7103616603986254 $211 $348 forward 7 unknown #
loop $-1 $-1 $218 $131 #
plane-surface $-1 53.578134675866622 -19.443144440399095 48.106574938927437 0 0.62932039886446345 0.77714595512881146 1 0 0 forward_v I I I I #
loop $-1 $-1 $349 $85 #
coedge $-1 $216 $216 $217 $350 reversed $132 $-1 #
coedge $-1 $217 $217 $216 $350 forward $134 $-1 #
coedge $-1 $218 $218 $135 $219 forward $213 $-1 #
edge $-1 $351 2.026015291910969e-016 $351 6.2831853071796004 $218 $352 forward 7 unknown #
face $-1 $353 $354 $33 $-1 $355 reversed single #
loop $-1 $-1 $356 $136 #
plane-surface $-1 -76.441541795098729 0 0 1 0 0 0 0 -1 forward_v I I I I #
coedge $-1 $357 $231 $358 $359 forward $137 $-1 #
coedge $-1 $360 $139 $357 $361 forward $89 $-1 #
coedge $-1 $139 $360 $362 $363 forward $89 $-1 #
coedge $-1 $234 $233 $139 $227 reversed $235 $-1 #
edge $-1 $364 -35.077445801729915 $365 35.077445801729915 $226 $366 forward 7 unknown #
coedge $-1 $141 $140 $367 $368 forward $56 $-1 #
coedge $-1 $369 $370 $140 $230 reversed $354 $-1 #
edge $-1 $237 -76.441541795098729 $371 76.441541795098729 $229 $372 forward 7 unknown #
coedge $-1 $223 $373 $141 $232 reversed $137 $-1 #
edge $-1 $374 -76.441541795098729 $236 76.441541795098729 $231 $375 forward 7 unknown #
coedge $-1 $226 $142 $373 $376 forward $235 $-1 #
coedge $-1 $142 $226 $369 $377 reversed $235 $-1 #
loop $-1 $-1 $233 $353 #
vertex $-1 $143 $378 #
vertex $-1 $143 $379 #
straight-curve $-1 76.441541795098729 0 9.1418458788730419 0 1 0 I I #
face $-1 $380 $381 $34 $-1 $382 forward single #
loop $-1 $-1 $383 $144 #
plane-surface $-1 0 0 -9.1418458788730419 0 0 1 1 0 0 forward_v I I I I #
coedge $-1 $384 $385 $247 $386 forward $145 $-1 #
coedge $-1 $387 $147 $383 $388 reversed $93 $-1 #
coedge $-1 $147 $387 $389 $390 reversed $93 $-1 #
coedge $-1 $385 $384 $147 $246 reversed $145 $-1 #
edge $-1 $391 -9.1418458788730419 $392 9.1418458788730419 $245 $393 forward 7 unknown #
coedge $-1 $149 $148 $242 $386 reversed $59 $-1 #
coedge $-1 $394 $395 $148 $249 forward $240 $-1 #
edge $-1 $396 32.848572853155915 $255 40.011503579013848 $248 $397 forward 7 unknown #
coedge $-1 $398 $399 $149 $251 forward $381 $-1 #
edge $-1 $256 -40.011503579013848 $400 -32.848572853155915 $250 $401 forward 7 unknown #
coedge $-1 $402 $150 $399 $403 reversed $254 $-1 #
coedge $-1 $150 $402 $394 $404 reversed $254 $-1 #
loop $-1 $-1 $402 $380 #
vertex $-1 $404 $405 #
vertex $-1 $151 $406 #
straight-curve $-1 -76.441541795098729 -28.084746820317793 0 0 0 1 I I #
face $-1 $407 $408 $35 $-1 $409 forward single #
loop $-1 $-1 $158 $152 #
plane-surface $-1 76.441541795098729 0 0 -1 0 0 0 0 1 forward_v I I I I #
coedge $-1 $267 $410 $411 $412 forward $153 $-1 #
coedge $-1 $411 $155 $266 $413 reversed $97 $-1 #
coedge $-1 $155 $411 $414 $415 reversed $97 $-1 #
coedge $-1 $416 $269 $155 $265 forward $417 $-1 #
edge $-1 $418 1.5895350693684911 $419 5.5647188961258642 $264 $420 forward 7 unknown #
coedge $-1 $157 $156 $262 $413 forward $62 $-1 #
coedge $-1 $421 $261 $156 $268 forward $153 $-1 #
edge $-1 $422 32.108894376915011 $273 40.258063071094149 $267 $423 forward 7 unknown #
coedge $-1 $264 $424 $157 $270 forward $417 $-1 #
edge $-1 $274 -40.258063071094149 $418 -32.108894376915011 $269 $425 forward 7 unknown #
coedge $-1 $426 $158 $424 $427 reversed $259 $-1 #
coedge $-1 $158 $426 $421 $428 forward $259 $-1 #
vertex $-1 $159 $429 #
vertex $-1 $159 $430 #
straight-curve $-1 76.441541795098729 0 5.1666620521156688 0 1 0 I I #
face $-1 $-1 $288 $36 $-1 $431 forward single #
loop $-1 $-1 $432 $160 #
plane-surface $-1 0 35.077445801729915 0 0 -1 0 0 0 -1 forward_v I I I I #
coedge $-1 $433 $434 $435 $436 reversed $161 $-1 #
coedge $-1 $437 $163 $165 $286 forward $101 $-1 #
coedge $-1 $163 $437 $433 $438 forward $101 $-1 #
coedge $-1 $435 $166 $163 $283 forward $288 $-1 #
edge $-1 $290 -36.029260769559727 $439 -18.535111874628114 $282 $440 forward 7 unknown #
coedge $-1 $441 $442 $164 $285 forward $277 $-1 #
edge $-1 $443 -79.502851906589768 $289 -74.317676600461638 $284 $444 forward 7 unknown #
edge $-1 $290 61.915566586371241 $443 70.154891603459816 $165 $445 forward 7 unknown #
coedge $-1 $166 $435 $441 $446 forward $288 $-1 #
loop $-1 $-1 $435 $276 #
vertex $-1 $285 $447 #
vertex $-1 $167 $448 #
straight-curve $-1 -63.311447091653648 38.384649352106536 9.1418458788730419 0 -1 0 I I #
coedge $-1 $292 $292 $-1 $449 reversed $170 $-1 #
edge $-1 $450 0 $450 6.2831853071796004 $171 $451 forward 7 unknown #
vertex $-1 $174 $452 #
ellipse-curve $-1 -54.564372644187848 31.875866746718909 6.5492582258089804 0 0.62932039886446345 0.77714595512881146 1 0 0 1 I I #
face $-1 $-1 $453 $38 $-1 $454 reversed single #
loop $-1 $-1 $181 $175 #
plane-surface $-1 0 0 9.1418458788730419 0 0 1 1 0 0 forward_v I I I I #
coedge $-1 $455 $456 $457 $458 reversed $176 $-1 #
coedge $-1 $459 $178 $180 $306 forward $110 $-1 #
coedge $-1 $178 $459 $455 $460 forward $110 $-1 #
coedge $-1 $457 $181 $178 $303 forward $297 $-1 #
edge $-1 $309 -18.005509549550656 $461 -0.51136065461903613 $302 $462 forward 7 unknown #
coedge $-1 $463 $464 $179 $305 forward $453 $-1 #
edge $-1 $465 -79.502851906589768 $308 -74.317676600461638 $304 $466 forward 7 unknown #
edge $-1 $309 61.915566586371241 $465 70.154891603459816 $180 $467 forward 7 unknown #
coedge $-1 $181 $457 $463 $468 forward $297 $-1 #
vertex $-1 $182 $469 #
vertex $-1 $182 $470 #
straight-curve $-1 -27.263944651635502 38.384649352106536 9.1418458788730419 0 -1 0 I I #
coedge $-1 $311 $311 $-1 $471 reversed $185 $-1 #
edge $-1 $472 0 $472 6.2831853071796004 $186 $473 forward 7 unknown #
vertex $-1 $189 $474 #
ellipse-curve $-1 -18.516870204169692 31.875866746718909 6.5492582258089804 0 0.62932039886446345 0.77714595512881146 1 0 0 1 I I #
face $-1 $-1 $475 $40 $-1 $476 reversed single #
loop $-1 $-1 $196 $190 #
plane-surface $-1 0 0 9.1418458788730419 0 0 1 1 0 0 forward_v I I I I #
coedge $-1 $477 $478 $479 $480 reversed $191 $-1 #
coedge $-1 $481 $193 $195 $325 forward $119 $-1 #
coedge $-1 $193 $481 $477 $482 forward $119 $-1 #
coedge $-1 $479 $196 $193 $322 forward $316 $-1 #
edge $-1 $328 0.018241670458426285 $483 17.512390565390046 $321 $484 forward 7 unknown #
coedge $-1 $485 $486 $194 $324 forward $475 $-1 #
edge $-1 $487 -79.502851906589768 $327 -74.317676600461638 $323 $488 forward 7 unknown #
edge $-1 $328 61.915566586371241 $487 70.154891603459816 $195 $489 forward 7 unknown #
coedge $-1 $196 $479 $485 $490 forward $316 $-1 #
vertex $-1 $197 $491 #
vertex $-1 $197 $492 #
straight-curve $-1 8.7835577883826623 38.384649352106536 9.1418458788730419 0 -1 0 I I #
coedge $-1 $330 $330 $-1 $493 reversed $200 $-1 #
edge $-1 $494 0 $494 6.2831853071796004 $201 $495 forward 7 unknown #
vertex $-1 $204 $496 #
ellipse-curve $-1 17.530632235848472 31.875866746718909 6.5492582258089804 0 0.62932039886446345 0.77714595512881146 1 0 0 1 I I #
face $-1 $-1 $497 $42 $-1 $498 reversed single #
loop $-1 $-1 $211 $205 #
plane-surface $-1 0 0 9.1418458788730419 0 0 1 1 0 0 forward_v I I I I #
coedge $-1 $499 $500 $501 $502 reversed $206 $-1 #
coedge $-1 $503 $208 $210 $344 forward $128 $-1 #
coedge $-1 $208 $503 $499 $504 forward $128 $-1 #
coedge $-1 $501 $211 $208 $341 forward $335 $-1 #
edge $-1 $347 18.041992890467505 $505 35.536141785399117 $340 $506 forward 7 unknown #
coedge $-1 $507 $508 $209 $343 forward $497 $-1 #
edge $-1 $509 -79.502851906589768 $346 -74.317676600461638 $342 $510 forward 7 unknown #
edge $-1 $347 61.915566586371241 $509 70.154891603459816 $210 $511 forward 7 unknown #
coedge $-1 $211 $501 $507 $512 forward $335 $-1 #
vertex $-1 $212 $513 #
vertex $-1 $212 $514 #
straight-curve $-1 44.831060228400816 38.384649352106536 9.1418458788730419 0 -1 0 I I #
coedge $-1 $349 $349 $-1 $515 reversed $215 $-1 #
edge $-1 $516 0 $516 6.2831853071796004 $216 $517 forward 7 unknown #
vertex $-1 $219 $518 #
ellipse-curve $-1 53.578134675866622 31.875866746718909 6.5492582258089804 0 0.62932039886446345 0.77714595512881146 1 0 0 1 I I #
face $-1 $-1 $235 $33 $-1 $519 reversed single #
loop $-1 $-1 $369 $220 #
plane-surface $-1 0 35.077445801729915 0 0 -1 0 0 0 -1 forward_v I I I I #
coedge $-1 $520 $367 $370 $521 forward $221 $-1 #
coedge $-1 $373 $223 $224 $361 reversed $137 $-1 #
coedge $-1 $367 $520 $223 $359 reversed $221 $-1 #
edge $-1 $374 -9.1418458788730419 $522 9.1418458788730419 $358 $523 forward 7 unknown #
coedge $-1 $225 $224 $520 $524 forward $89 $-1 #
edge $-1 $365 -76.441541795098729 $522 76.441541795098729 $357 $525 forward 7 unknown #
coedge $-1 $370 $369 $225 $363 reversed $354 $-1 #
edge $-1 $526 -76.441541795098729 $364 76.441541795098729 $362 $527 forward 7 unknown #
vertex $-1 $227 $528 #
vertex $-1 $376 $529 #
straight-curve $-1 76.441541795098729 0 -9.1418458788730419 0 -1 0 I I #
coedge $-1 $356 $358 $228 $368 reversed $221 $-1 #
edge $-1 $371 -35.077445801729915 $374 35.077445801729915 $367 $530 forward 7 unknown #
coedge $-1 $362 $229 $234 $377 forward $354 $-1 #
coedge $-1 $229 $362 $356 $521 reversed $354 $-1 #
vertex $-1 $230 $531 #
straight-curve $-1 0 35.077445801729915 9.1418458788730419 -1 0 0 I I #
coedge $-1 $231 $357 $233 $376 reversed $137 $-1 #
vertex $-1 $368 $532 #
straight-curve $-1 0 -35.077445801729915 9.1418458788730419 1 0 0 I I #
edge $-1 $236 -9.1418458788730419 $365 9.1418458788730419 $233 $533 forward 7 unknown #
edge $-1 $237 -9.1418458788730419 $364 9.1418458788730419 $234 $534 forward 7 unknown #
point $-1 76.441541795098729 -35.077445801729915 9.1418458788730419 #
point $-1 76.441541795098729 35.077445801729915 9.1418458788730419 #
face $-1 $-1 $254 $34 $-1 $535 reversed single #
loop $-1 $-1 $389 $239 #
plane-surface $-1 0 0 9.1418458788730419 0 0 1 1 0 0 forward_v I I I I #
coedge $-1 $395 $394 $243 $388 forward $240 $-1 #
coedge $-1 $245 $242 $395 $536 reversed $145 $-1 #
coedge $-1 $242 $245 $398 $537 reversed $145 $-1 #
edge $-1 $400 -9.1418458788730419 $396 9.1418458788730419 $242 $538 forward 7 unknown #
coedge $-1 $244 $243 $402 $539 reversed $93 $-1 #
edge $-1 $540 -40.011503579013848 $392 -32.848572853155915 $383 $541 forward 7 unknown #
coedge $-1 $399 $398 $244 $390 forward $381 $-1 #
edge $-1 $391 32.848572853155915 $542 40.011503579013848 $389 $543 forward 7 unknown #
vertex $-1 $390 $544 #
vertex $-1 $388 $545 #
straight-curve $-1 -69.278611069240796 -24.502053877144473 0 0 0 -1 I I #
coedge $-1 $383 $248 $253 $404 forward $240 $-1 #
coedge $-1 $248 $383 $384 $536 forward $240 $-1 #
vertex $-1 $249 $546 #
straight-curve $-1 -36.430038216084881 -28.084746820317793 -9.1418458788730419 -1 0 0 I I #
coedge $-1 $389 $250 $385 $537 forward $381 $-1 #
coedge $-1 $250 $389 $252 $403 forward $381 $-1 #
vertex $-1 $251 $547 #
straight-curve $-1 -36.430038216084881 -28.084746820317793 9.1418458788730419 1 0 0 I I #
coedge $-1 $253 $252 $387 $539 forward $254 $-1 #
edge $-1 $542 24.502053877144473 $256 28.084746820317793 $252 $548 forward 7 unknown #
edge $-1 $255 -28.084746820317793 $540 -24.502053877144473 $253 $549 forward 7 unknown #
point $-1 -76.441541795098729 -28.084746820317793 -9.1418458788730419 #
point $-1 -76.441541795098729 -28.084746820317793 9.1418458788730419 #
face $-1 $-1 $417 $35 $-1 $550 reversed single #
loop $-1 $-1 $414 $258 #
plane-surface $-1 0 0 9.1418458788730419 0 0 1 1 0 0 forward_v I I I I #
coedge $-1 $261 $421 $551 $552 reversed $153 $-1 #
coedge $-1 $263 $262 $261 $412 reversed $97 $-1 #
edge $-1 $553 -5.5647188961258642 $422 -1.5895350693684911 $261 $554 forward 7 unknown #
edge $-1 $422 -35.077445801729915 $418 35.077445801729915 $262 $555 forward 7 unknown #
coedge $-1 $551 $556 $263 $415 forward $408 $-1 #
edge $-1 $419 -35.077445801729915 $553 35.077445801729915 $414 $557 forward 7 unknown #
coedge $-1 $424 $264 $556 $558 reversed $417 $-1 #
loop $-1 $-1 $264 $407 #
vertex $-1 $270 $559 #
vertex $-1 $265 $560 #
straight-curve $-1 68.29237310091959 35.077445801729915 3.5771269827471777 0 0 1 I I #
coedge $-1 $410 $267 $272 $428 reversed $153 $-1 #
vertex $-1 $268 $561 #
straight-curve $-1 36.18347872400458 -35.077445801729915 5.1666620521156688 1 0 0 I I #
coedge $-1 $269 $416 $271 $427 forward $417 $-1 #
straight-curve $-1 36.18347872400458 35.077445801729915 5.1666620521156688 -1 0 0 I I #
coedge $-1 $272 $271 $562 $563 reversed $259 $-1 #
edge $-1 $564 -9.1418458788730419 $274 -5.1666620521156688 $271 $565 forward 7 unknown #
edge $-1 $566 -9.1418458788730419 $273 -5.1666620521156688 $272 $567 forward 7 unknown #
point $-1 76.441541795098729 -35.077445801729915 5.1666620521156688 #
point $-1 76.441541795098729 35.077445801729915 5.1666620521156688 #
plane-surface $-1 0 0 9.1418458788730419 0 0 1 1 0 0 forward_v I I I I #
coedge $-1 $442 $441 $434 $568 forward $277 $-1 #
coedge $-1 $434 $279 $281 $438 reversed $161 $-1 #
coedge $-1 $279 $433 $432 $568 reversed $161 $-1 #
coedge $-1 $287 $282 $279 $436 forward $288 $-1 #
edge $-1 $439 -9.7103616603986254 $569 -3.3072035503766202 $435 $570 forward 7 unknown #
coedge $-1 $281 $280 $442 $571 reversed $101 $-1 #
edge $-1 $572 -70.154891603459816 $439 -61.915566586371241 $433 $573 forward 7 unknown #
vertex $-1 $283 $574 #
straight-curve $-1 -27.282186322093921 28.67428769170791 9.1418458788730419 1 0 0 I I #
coedge $-1 $432 $284 $287 $446 reversed $277 $-1 #
coedge $-1 $284 $432 $437 $571 forward $277 $-1 #
vertex $-1 $285 $575 #
straight-curve $-1 -63.311447091653648 35.077445801729915 83.45952247933468 0 0 1 I I #
straight-curve $-1 -63.311447091653648 -19.443144440399095 48.106574938927437 0 0.77714595512881146 -0.62932039886446345 I I #
edge $-1 $569 45.817298196722035 $289 63.311447091653648 $441 $576 forward 7 unknown #
point $-1 -63.311447091653648 35.077445801729915 9.1418458788730419 #
point $-1 -63.311447091653648 28.67428769170791 9.1418458788730419 #
edge $-1 $577 1 $577 0 $292 $-1 forward 7 unknown #
vertex $-1 $293 $578 #
ellipse-curve $-1 -54.564372644187848 30.382164687302833 4.7046898378505491 0 0.62932039886446345 0.77714595512881146 1 0 0 1 I I #
point $-1 -53.564372644187848 31.875866746718888 6.5492582258089538 #
loop $-1 $-1 $304 $296 #
plane-surface $-1 0 35.077445801729915 0 0 -1 0 0 0 -1 forward_v I I I I #
coedge $-1 $456 $299 $301 $460 reversed $176 $-1 #
coedge $-1 $299 $455 $579 $580 reversed $176 $-1 #
coedge $-1 $307 $302 $299 $458 forward $297 $-1 #
edge $-1 $461 -9.7103616603986254 $581 -3.3072035503766202 $457 $582 forward 7 unknown #
coedge $-1 $301 $300 $464 $583 reversed $110 $-1 #
edge $-1 $584 -70.154891603459816 $461 -61.915566586371241 $455 $585 forward 7 unknown #
vertex $-1 $303 $586 #
straight-curve $-1 -9.2584351020848459 28.67428769170791 9.1418458788730419 1 0 0 I I #
coedge $-1 $579 $304 $307 $468 reversed $453 $-1 #
coedge $-1 $304 $579 $459 $583 forward $453 $-1 #
vertex $-1 $305 $587 #
straight-curve $-1 -27.263944651635502 35.077445801729915 83.45952247933468 0 0 1 I I #
straight-curve $-1 -27.263944651635502 -19.443144440399095 48.106574938927437 0 0.77714595512881146 -0.62932039886446345 I I #
edge $-1 $581 9.769795756703882 $308 27.263944651635502 $463 $588 forward 7 unknown #
point $-1 -27.263944651635502 35.077445801729915 9.1418458788730419 #
point $-1 -27.263944651635502 28.67428769170791 9.1418458788730419 #
edge $-1 $589 1 $589 0 $311 $-1 forward 7 unknown #
vertex $-1 $312 $590 #
ellipse-curve $-1 -18.516870204169692 30.382164687302833 4.7046898378505491 0 0.62932039886446345 0.77714595512881146 1 0 0 1 I I #
point $-1 -17.516870204169692 31.875866746718888 6.5492582258089538 #
loop $-1 $-1 $323 $315 #
plane-surface $-1 0 35.077445801729915 0 0 -1 0 0 0 -1 forward_v I I I I #
coedge $-1 $478 $318 $320 $482 reversed $191 $-1 #
coedge $-1 $318 $477 $591 $592 reversed $191 $-1 #
coedge $-1 $326 $321 $318 $480 forward $316 $-1 #
edge $-1 $483 -9.7103616603986254 $593 -3.3072035503766202 $479 $594 forward 7 unknown #
coedge $-1 $320 $319 $486 $595 reversed $119 $-1 #
edge $-1 $596 -70.154891603459816 $483 -61.915566586371241 $477 $597 forward 7 unknown #
vertex $-1 $322 $598 #
straight-curve $-1 8.765316117924236 28.67428769170791 9.1418458788730419 1 0 0 I I #
coedge $-1 $591 $323 $326 $490 reversed $475 $-1 #
coedge $-1 $323 $591 $481 $595 forward $475 $-1 #
vertex $-1 $324 $599 #
straight-curve $-1 8.7835577883826623 35.077445801729915 83.45952247933468 0 0 1 I I #
straight-curve $-1 8.7835577883826623 -19.443144440399095 48.106574938927437 0 0.77714595512881146 -0.62932039886446345 I I #
edge $-1 $593 -26.277706683314282 $327 -8.7835577883826623 $485 $600 forward 7 unknown #
point $-1 8.7835577883826623 35.077445801729915 9.1418458788730419 #
point $-1 8.7835577883826623 28.67428769170791 9.1418458788730419 #
edge $-1 $601 1 $601 0 $330 $-1 forward 7 unknown #
vertex $-1 $331 $602 #
ellipse-curve $-1 17.530632235848472 30.382164687302833 4.7046898378505491 0 0.62932039886446345 0.77714595512881146 1 0 0 1 I I #
point $-1 18.530632235848472 31.875866746718888 6.5492582258089538 #
loop $-1 $-1 $342 $334 #
plane-surface $-1 0 35.077445801729915 0 0 -1 0 0 0 -1 forward_v I I I I #
coedge $-1 $500 $337 $339 $504 reversed $206 $-1 #
coedge $-1 $337 $499 $603 $604 reversed $206 $-1 #
coedge $-1 $345 $340 $337 $502 forward $335 $-1 #
edge $-1 $505 -9.7103616603986254 $605 -3.3072035503766202 $501 $606 forward 7 unknown #
coedge $-1 $339 $338 $508 $607 reversed $128 $-1 #
edge $-1 $608 -70.154891603459816 $505 -61.915566586371241 $499 $609 forward 7 unknown #
vertex $-1 $341 $610 #
straight-curve $-1 26.789067337933311 28.67428769170791 9.1418458788730419 1 0 0 I I #
coedge $-1 $603 $342 $345 $512 reversed $497 $-1 #
coedge $-1 $342 $603 $503 $607 forward $497 $-1 #
vertex $-1 $343 $611 #
straight-curve $-1 44.831060228400816 35.077445801729915 83.45952247933468 0 0 1 I I #
straight-curve $-1 44.831060228400816 -19.443144440399095 48.106574938927437 0 0.77714595512881146 -0.62932039886446345 I I #
edge $-1 $605 -62.325209123332428 $346 -44.831060228400816 $507 $612 forward 7 unknown #
point $-1 44.831060228400816 35.077445801729915 9.1418458788730419 #
point $-1 44.831060228400816 28.67428769170791 9.1418458788730419 #
edge $-1 $613 1 $613 0 $349 $-1 forward 7 unknown #
vertex $-1 $350 $614 #
ellipse-curve $-1 53.578134675866622 30.382164687302833 4.7046898378505491 0 0.62932039886446345 0.77714595512881146 1 0 0 1 I I #
point $-1 54.578134675866622 31.875866746718888 6.5492582258089538 #
plane-surface $-1 76.441541795098729 0 0 -1 0 0 0 0 1 forward_v I I I I #
coedge $-1 $358 $356 $360 $524 reversed $221 $-1 #
edge $-1 $371 -9.1418458788730419 $526 9.1418458788730419 $370 $615 forward 7 unknown #
vertex $-1 $524 $616 #
straight-curve $-1 -76.441541795098729 -35.077445801729915 0 0 0 -1 I I #
edge $-1 $522 -35.077445801729915 $526 35.077445801729915 $520 $617 forward 7 unknown #
straight-curve $-1 0 -35.077445801729915 -9.1418458788730419 -1 0 0 I I #
vertex $-1 $363 $618 #
straight-curve $-1 0 35.077445801729915 -9.1418458788730419 1 0 0 I I #
point $-1 76.441541795098729 35.077445801729915 -9.1418458788730419 #
point $-1 76.441541795098729 -35.077445801729915 -9.1418458788730419 #
straight-curve $-1 -76.441541795098729 0 9.1418458788730419 0 -1 0 I I #
point $-1 -76.441541795098729 35.077445801729915 9.1418458788730419 #
point $-1 -76.441541795098729 -35.077445801729915 9.1418458788730419 #
straight-curve $-1 76.441541795098729 -35.077445801729915 0 0 0 -1 I I #
straight-curve $-1 76.441541795098729 35.077445801729915 0 0 0 -1 I I #
plane-surface $-1 -76.441541795098729 0 0 1 0 0 0 0 -1 forward_v I I I I #
edge $-1 $392 11.355353702778906 $396 14.938046645952227 $395 $619 forward 7 unknown #
edge $-1 $400 -14.938046645952227 $391 -11.355353702778906 $398 $620 forward 7 unknown #
straight-curve $-1 -69.278611069240796 -28.084746820317793 0 0 0 -1 I I #
edge $-1 $542 -9.1418458788730419 $540 9.1418458788730419 $402 $621 forward 7 unknown #
vertex $-1 $539 $622 #
straight-curve $-1 -36.430038216084881 -24.502053877144473 -9.1418458788730419 1 0 0 I I #
vertex $-1 $403 $623 #
straight-curve $-1 -36.430038216084881 -24.502053877144473 9.1418458788730419 -1 0 0 I I #
point $-1 -69.278611069240796 -24.502053877144473 9.1418458788730419 #
point $-1 -69.278611069240796 -24.502053877144473 -9.1418458788730419 #
point $-1 -69.278611069240796 -28.084746820317793 -9.1418458788730419 #
point $-1 -69.278611069240796 -28.084746820317793 9.1418458788730419 #
straight-curve $-1 -76.441541795098729 0 9.1418458788730419 0 -1 0 I I #
straight-curve $-1 -76.441541795098729 0 -9.1418458788730419 0 1 0 I I #
plane-surface $-1 0 35.077445801729915 0 0 -1 0 0 0 -1 forward_v I I I I #
coedge $-1 $562 $414 $410 $552 forward $408 $-1 #
edge $-1 $553 68.29237310091959 $566 76.441541795098729 $410 $624 forward 7 unknown #
vertex $-1 $552 $625 #
straight-curve $-1 68.29237310091959 -35.077445801729915 3.5771269827471777 0 0 -1 I I #
straight-curve $-1 68.29237310091959 0 5.1666620521156688 0 1 0 I I #
coedge $-1 $414 $562 $416 $558 forward $408 $-1 #
straight-curve $-1 68.29237310091959 0 9.1418458788730419 0 -1 0 I I #
edge $-1 $564 -76.441541795098729 $419 -68.29237310091959 $416 $626 forward 7 unknown #
point $-1 68.29237310091959 35.077445801729915 5.1666620521156688 #
point $-1 68.29237310091959 35.077445801729915 9.1418458788730419 #
point $-1 68.29237310091959 -35.077445801729915 5.1666620521156688 #
coedge $-1 $556 $551 $426 $563 forward $408 $-1 #
edge $-1 $566 -35.077445801729915 $564 35.077445801729915 $426 $627 forward 7 unknown #
vertex $-1 $563 $628 #
straight-curve $-1 76.441541795098729 35.077445801729915 0 0 0 -1 I I #
vertex $-1 $563 $629 #
straight-curve $-1 76.441541795098729 -35.077445801729915 0 0 0 -1 I I #
edge $-1 $569 74.317676600461638 $572 79.502851906589768 $432 $630 forward 7 unknown #
vertex $-1 $446 $631 #
straight-curve $-1 -45.817298196722035 38.384649352106536 9.1418458788730419 0 1 0 I I #
edge $-1 $572 18.535111874628114 $443 36.029260769559727 $442 $632 forward 7 unknown #
vertex $-1 $571 $633 #
straight-curve $-1 -45.817298196722035 -19.443144440399095 48.106574938927437 0 -0.77714595512881146 0.62932039886446345 I I #
point $-1 -45.817298196722035 28.67428769170791 9.1418458788730419 #
point $-1 -63.311447091653648 35.077445801729922 3.9566705727449047 #
straight-curve $-1 0 35.077445801729915 9.1418458788730419 -1 0 0 I I #
vertex $-1 $449 $634 #
point $-1 -53.564372644187848 30.382164687302833 4.7046898378505491 #
coedge $-1 $464 $463 $456 $580 forward $453 $-1 #
edge $-1 $581 74.317676600461638 $584 79.502851906589768 $579 $635 forward 7 unknown #
vertex $-1 $468 $636 #
straight-curve $-1 -9.769795756703882 38.384649352106536 9.1418458788730419 0 1 0 I I #
edge $-1 $584 0.51136065461903613 $465 18.005509549550656 $464 $637 forward 7 unknown #
vertex $-1 $583 $638 #
straight-curve $-1 -9.769795756703882 -19.443144440399095 48.106574938927437 0 -0.77714595512881146 0.62932039886446345 I I #
point $-1 -9.769795756703882 28.67428769170791 9.1418458788730419 #
point $-1 -27.263944651635502 35.077445801729922 3.9566705727449047 #
straight-curve $-1 0 35.077445801729915 9.1418458788730419 -1 0 0 I I #
vertex $-1 $471 $639 #
point $-1 -17.516870204169692 30.382164687302833 4.7046898378505491 #
coedge $-1 $486 $485 $478 $592 forward $475 $-1 #
edge $-1 $593 74.317676600461638 $596 79.502851906589768 $591 $640 forward 7 unknown #
vertex $-1 $490 $641 #
straight-curve $-1 26.277706683314282 38.384649352106536 9.1418458788730419 0 1 0 I I #
edge $-1 $596 -17.512390565390046 $487 -0.018241670458426285 $486 $642 forward 7 unknown #
vertex $-1 $595 $643 #
straight-curve $-1 26.277706683314282 -19.443144440399095 48.106574938927437 0 -0.77714595512881146 0.62932039886446345 I I #
point $-1 26.277706683314282 28.67428769170791 9.1418458788730419 #
point $-1 8.7835577883826623 35.077445801729922 3.9566705727449047 #
straight-curve $-1 0 35.077445801729915 9.1418458788730419 -1 0 0 I I #
vertex $-1 $493 $644 #
point $-1 18.530632235848472 30.382164687302833 4.7046898378505491 #
coedge $-1 $508 $507 $500 $604 forward $497 $-1 #
edge $-1 $605 74.317676600461638 $608 79.502851906589768 $603 $645 forward 7 unknown #
vertex $-1 $512 $646 #
straight-curve $-1 62.325209123332428 38.384649352106536 9.1418458788730419 0 1 0 I I #
edge $-1 $608 -35.536141785399117 $509 -18.041992890467505 $508 $647 forward 7 unknown #
vertex $-1 $607 $648 #
straight-curve $-1 62.325209123332428 -19.443144440399095 48.106574938927437 0 -0.77714595512881146 0.62932039886446345 I I #
point $-1 62.325209123332428 28.67428769170791 9.1418458788730419 #
point $-1 44.831060228400816 35.077445801729922 3.9566705727449047 #
straight-curve $-1 0 35.077445801729915 9.1418458788730419 -1 0 0 I I #
vertex $-1 $515 $649 #
point $-1 54.578134675866622 30.382164687302833 4.7046898378505491 #
straight-curve $-1 -76.441541795098729 35.077445801729915 0 0 0 -1 I I #
point $-1 -76.441541795098729 -35.077445801729915 -9.1418458788730419 #
straight-curve $-1 -76.441541795098729 0 -9.1418458788730419 0 1 0 I I #
point $-1 -76.441541795098729 35.077445801729915 -9.1418458788730419 #
straight-curve $-1 -69.278611069240796 -13.146700174365566 -9.1418458788730419 0 -1 0 I I #
straight-curve $-1 -69.278611069240796 -13.146700174365566 9.1418458788730419 0 1 0 I I #
straight-curve $-1 -76.441541795098729 -24.502053877144473 0 0 0 -1 I I #
point $-1 -76.441541795098729 -24.502053877144473 -9.1418458788730419 #
point $-1 -76.441541795098729 -24.502053877144473 9.1418458788730419 #
straight-curve $-1 0 -35.077445801729915 9.1418458788730419 1 0 0 I I #
point $-1 68.29237310091959 -35.077445801729915 9.1418458788730419 #
straight-curve $-1 0 35.077445801729915 9.1418458788730419 -1 0 0 I I #
straight-curve $-1 76.441541795098729 0 9.1418458788730419 0 1 0 I I #
point $-1 76.441541795098729 35.077445801729915 9.1418458788730419 #
point $-1 76.441541795098729 -35.077445801729915 9.1418458788730419 #
straight-curve $-1 -45.817298196722035 35.077445801729915 83.45952247933468 0 0 -1 I I #
point $-1 -45.817298196722035 35.077445801729915 9.1418458788730419 #
straight-curve $-1 -27.282186322093921 35.077445801729908 3.9566705727449083 -1 0 0 I I #
point $-1 -45.817298196722035 35.077445801729922 3.9566705727449047 #
point $-1 -54.564372644187848 29.752844288438368 3.9275438827217379 #
straight-curve $-1 -9.769795756703882 35.077445801729915 83.45952247933468 0 0 -1 I I #
point $-1 -9.769795756703882 35.077445801729915 9.1418458788730419 #
straight-curve $-1 -9.2584351020848459 35.077445801729908 3.9566705727449083 -1 0 0 I I #
point $-1 -9.769795756703882 35.077445801729922 3.9566705727449047 #
point $-1 -18.516870204169692 29.752844288438368 3.9275438827217379 #
straight-curve $-1 26.277706683314282 35.077445801729915 83.45952247933468 0 0 -1 I I #
point $-1 26.277706683314282 35.077445801729915 9.1418458788730419 #
straight-curve $-1 8.765316117924236 35.077445801729908 3.9566705727449083 -1 0 0 I I #
point $-1 26.277706683314282 35.077445801729922 3.9566705727449047 #
point $-1 17.530632235848472 29.752844288438368 3.9275438827217379 #
straight-curve $-1 62.325209123332428 35.077445801729915 83.45952247933468 0 0 -1 I I #
point $-1 62.325209123332428 35.077445801729915 9.1418458788730419 #
straight-curve $-1 26.789067337933311 35.077445801729908 3.9566705727449083 -1 0 0 I I #
point $-1 62.325209123332428 35.077445801729922 3.9566705727449047 #
point $-1 53.578134675866622 29.752844288438368 3.9275438827217379 #
End-of-ACIS-data 