500 0 4 0           
7 Unknown 11 ACIS 5.0 NT 24 Fri Mar 26 17:25:03 1999 
-1 9.9999999999999995e-007 1e-010 
body $-1 $4 $-1 $5 #
body $-1 $6 $-1 $7 #
body $-1 $8 $-1 $9 #
body $-1 $10 $-1 $11 #
lump $-1 $-1 $12 $0 #
transform $-1 1 0 0 0 1 0 0 0 1 40.864284188360237 23.101845550768232 9.6976706859420148 1 rotate no_reflect no_shear #
lump $-1 $-1 $13 $1 #
transform $-1 1 0 0 0 1 0 0 0 1 40.864284188360237 23.101845550768232 9.6976706859420148 1 rotate no_reflect no_shear #
lump $-1 $-1 $14 $2 #
transform $-1 1 0 0 0 1 0 0 0 1 40.864284188360237 23.101845550768232 9.6976706859420148 1 rotate no_reflect no_shear #
lump $-1 $-1 $15 $3 #
transform $-1 1 0 0 0 1 0 0 0 1 40.864284188360237 23.101845550768232 9.6976706859420148 1 rotate no_reflect no_shear #
shell $-1 $-1 $-1 $16 $-1 $4 #
shell $-1 $-1 $-1 $17 $-1 $6 #
shell $-1 $-1 $-1 $18 $-1 $8 #
shell $-1 $-1 $-1 $19 $-1 $10 #
face $-1 $20 $21 $12 $-1 $22 forward single #
face $-1 $23 $24 $13 $-1 $25 forward single #
face $-1 $26 $27 $14 $-1 $28 reversed single #
face $-1 $29 $30 $15 $-1 $31 forward single #
face $-1 $32 $33 $12 $-1 $34 reversed single #
loop $-1 $-1 $35 $16 #
plane-surface $-1 0 0 9.6976706859420148 0 0 1 1 0 0 forward_v I I I I #
face $-1 $36 $37 $13 $-1 $38 reversed single #
loop $-1 $-1 $39 $17 #
plane-surface $-1 -37.051782889619957 0 3.2608133096723977 0 0 1 1 0 0 forward_v I I I I #
face $-1 $40 $41 $14 $-1 $42 reversed single #
loop $-1 $-1 $43 $18 #
plane-surface $-1 31.316781406591467 -86.616873076723678 57.978026669732841 1 0 0 0 0.77714596973225614 -0.62932038083071107 forward_v I I I I #
face $-1 $44 $45 $15 $-1 $46 forward single #
loop $-1 $47 $48 $19 #
cone-surface $-1 36.090532797475852 -21.431865009449723 7.8026204156276302 0 0.77714596973225614 -0.62932038083071107 0.5 0 0 1 I I 0 1 0.5 forward I I I I #
face $-1 $49 $50 $12 $-1 $51 reversed single #
loop $-1 $-1 $52 $20 #
plane-surface $-1 0 0 -9.6976706859420148 0 0 1 1 0 0 forward_v I I I I #
coedge $-1 $53 $54 $55 $56 forward $21 $-1 #
face $-1 $57 $58 $13 $-1 $59 reversed single #
loop $-1 $-1 $60 $23 #
plane-surface $-1 -37.051782889619957 0 -1.5058343704217494 0 0 1 1 0 0 forward_v I I I I #
coedge $-1 $61 $62 $63 $64 forward $24 $-1 #
face $-1 $65 $66 $14 $-1 $67 forward single #
loop $-1 $-1 $68 $26 #
plane-surface $-1 36.090532797475852 -23.101845550768239 6.5445728941463059 0 -0.77714596973225614 0.62932038083071107 1 0 0 forward_v I I I I #
coedge $-1 $69 $70 $71 $72 reversed $27 $-1 #
face $-1 $-1 $73 $15 $-1 $74 forward single #
loop $-1 $75 $76 $29 #
cone-surface $-1 36.090532797475852 -20.844262064822228 7.3267889460034326 0 0.77714596973225614 -0.62932038083071107 0.25 0 0 1 I I -0.70710678118654746 0.70710678118654746 0.25 forward I I I I #
loop $-1 $-1 $77 $19 #
coedge $-1 $48 $48 $78 $79 reversed $30 $-1 #
face $-1 $80 $81 $12 $-1 $82 reversed single #
loop $-1 $-1 $83 $32 #
plane-surface $-1 0 -23.101845550768232 0 0 1 0 0 0 1 forward_v I I I I #
coedge $-1 $84 $85 $86 $87 forward $33 $-1 #
coedge $-1 $88 $35 $89 $90 forward $21 $-1 #
coedge $-1 $35 $88 $91 $92 forward $21 $-1 #
coedge $-1 $93 $94 $35 $56 reversed $95 $-1 #
edge $-1 $96 -23.101845550768232 $97 23.101845550768232 $55 $98 forward 7 unknown #
face $-1 $99 $100 $13 $-1 $101 reversed single #
loop $-1 $-1 $102 $36 #
plane-surface $-1 -33.239281590879678 0 0.87748946962532415 -1 0 0 0 0 1 forward_v I I I I #
coedge $-1 $103 $104 $105 $106 forward $37 $-1 #
coedge $-1 $107 $39 $108 $109 reversed $24 $-1 #
coedge $-1 $39 $107 $110 $111 reversed $24 $-1 #
coedge $-1 $102 $112 $39 $64 reversed $58 $-1 #
edge $-1 $113 -23.101845550768232 $114 23.101845550768232 $63 $115 forward 7 unknown #
face $-1 $116 $117 $14 $-1 $118 reversed single #
loop $-1 $-1 $119 $40 #
plane-surface $-1 0 0 9.6976706859420148 0 0 1 1 0 0 forward_v I I I I #
coedge $-1 $120 $121 $122 $123 reversed $41 $-1 #
coedge $-1 $70 $43 $124 $125 reversed $27 $-1 #
coedge $-1 $43 $69 $120 $126 reversed $27 $-1 #
coedge $-1 $122 $127 $43 $72 forward $117 $-1 #
edge $-1 $128 19.291342648924406 $129 22.444440440720108 $71 $130 forward 7 unknown #
loop $-1 $-1 $78 $44 #
plane-surface $-1 36.090532797475852 -23.101845550768239 6.5445728941463059 0 -0.77714596973225614 0.62932038083071107 1 0 0 forward_v I I I I #
loop $-1 $-1 $131 $29 #
coedge $-1 $76 $76 $77 $132 reversed $45 $-1 #
coedge $-1 $77 $77 $76 $132 forward $47 $-1 #
coedge $-1 $78 $78 $48 $79 forward $73 $-1 #
edge $-1 $133 5.7920885506972782e-015 $133 6.2831853071796067 $78 $134 forward 7 unknown #
face $-1 $135 $136 $12 $-1 $137 reversed single #
loop $-1 $-1 $138 $49 #
plane-surface $-1 -40.864284188360237 0 0 1 0 0 0 0 -1 forward_v I I I I #
coedge $-1 $139 $91 $140 $141 forward $50 $-1 #
coedge $-1 $142 $52 $139 $143 forward $33 $-1 #
coedge $-1 $52 $142 $144 $145 forward $33 $-1 #
coedge $-1 $94 $93 $52 $87 reversed $95 $-1 #
edge $-1 $146 -23.101845550768232 $147 23.101845550768232 $86 $148 forward 7 unknown #
coedge $-1 $54 $53 $149 $150 forward $21 $-1 #
coedge $-1 $151 $152 $53 $90 reversed $136 $-1 #
edge $-1 $97 -40.864284188360237 $153 40.864284188360237 $89 $154 forward 7 unknown #
coedge $-1 $83 $155 $54 $92 reversed $50 $-1 #
edge $-1 $156 -40.864284188360237 $96 40.864284188360237 $91 $157 forward 7 unknown #
coedge $-1 $86 $55 $155 $158 forward $95 $-1 #
coedge $-1 $55 $86 $151 $159 reversed $95 $-1 #
loop $-1 $-1 $93 $135 #
vertex $-1 $56 $160 #
vertex $-1 $56 $161 #
straight-curve $-1 40.864284188360237 0 9.6976706859420148 0 1 0 I I #
face $-1 $162 $163 $13 $-1 $164 reversed single #
loop $-1 $-1 $165 $57 #
plane-surface $-1 0 -23.101845550768232 0 0 1 0 0 0 1 forward_v I I I I #
coedge $-1 $105 $63 $166 $167 reversed $58 $-1 #
coedge $-1 $168 $60 $165 $169 reversed $37 $-1 #
coedge $-1 $60 $168 $170 $171 reversed $37 $-1 #
coedge $-1 $112 $102 $60 $106 reversed $58 $-1 #
edge $-1 $172 -23.101845550768232 $173 23.101845550768232 $105 $174 forward 7 unknown #
coedge $-1 $62 $61 $175 $176 reversed $24 $-1 #
coedge $-1 $177 $178 $61 $109 forward $179 $-1 #
edge $-1 $180 -22.338392743550259 $114 -14.713390146069699 $108 $181 forward 7 unknown #
coedge $-1 $182 $166 $62 $111 forward $100 $-1 #
edge $-1 $113 14.713390146069699 $183 22.338392743550259 $110 $184 forward 7 unknown #
coedge $-1 $63 $105 $177 $185 reversed $58 $-1 #
vertex $-1 $111 $186 #
vertex $-1 $109 $187 #
straight-curve $-1 -33.239281590879678 0 3.2608133096723977 0 1 0 I I #
face $-1 $-1 $188 $14 $-1 $189 reversed single #
loop $-1 $-1 $71 $65 #
plane-surface $-1 0 -23.101845550768232 0 0 1 0 0 0 1 forward_v I I I I #
coedge $-1 $124 $190 $191 $192 forward $66 $-1 #
coedge $-1 $191 $68 $70 $126 forward $41 $-1 #
coedge $-1 $68 $191 $193 $194 reversed $41 $-1 #
coedge $-1 $195 $71 $68 $123 forward $117 $-1 #
edge $-1 $129 13.271515007853541 $196 22.819017789622311 $122 $197 forward 7 unknown #
coedge $-1 $198 $119 $69 $125 forward $66 $-1 #
edge $-1 $199 -22.759919165841744 $128 -20.206590987593607 $124 $200 forward 7 unknown #
edge $-1 $129 1.1374033043381581e-014 $199 4.0572787025866193 $70 $201 forward 7 unknown #
coedge $-1 $71 $195 $198 $202 reversed $117 $-1 #
vertex $-1 $202 $203 #
vertex $-1 $72 $204 #
straight-curve $-1 31.316781406591467 -23.101845550768232 28.989013334866421 0 0 -1 I I #
coedge $-1 $131 $131 $-1 $205 reversed $75 $-1 #
edge $-1 $206 0 $206 6.2831853071796004 $76 $207 forward 7 unknown #
vertex $-1 $79 $208 #
ellipse-curve $-1 36.090532797475852 -21.825181461644167 8.1211217900441603 0 -0.77714596973225614 0.62932038083071107 0.5 0 0 1 I I #
face $-1 $-1 $95 $12 $-1 $209 reversed single #
loop $-1 $-1 $151 $80 #
plane-surface $-1 0 23.101845550768232 0 0 -1 0 0 0 -1 forward_v I I I I #
coedge $-1 $210 $149 $152 $211 forward $81 $-1 #
coedge $-1 $155 $83 $84 $143 reversed $50 $-1 #
coedge $-1 $149 $210 $83 $141 reversed $81 $-1 #
edge $-1 $156 -9.6976706859420148 $212 9.6976706859420148 $140 $213 forward 7 unknown #
coedge $-1 $85 $84 $210 $214 forward $33 $-1 #
edge $-1 $147 -40.864284188360237 $212 40.864284188360237 $139 $215 forward 7 unknown #
coedge $-1 $152 $151 $85 $145 reversed $136 $-1 #
edge $-1 $216 -40.864284188360237 $146 40.864284188360237 $144 $217 forward 7 unknown #
vertex $-1 $87 $218 #
vertex $-1 $158 $219 #
straight-curve $-1 40.864284188360237 0 -9.6976706859420148 0 -1 0 I I #
coedge $-1 $138 $140 $88 $150 reversed $81 $-1 #
edge $-1 $153 -23.101845550768232 $156 23.101845550768232 $149 $220 forward 7 unknown #
coedge $-1 $144 $89 $94 $159 forward $136 $-1 #
coedge $-1 $89 $144 $138 $211 reversed $136 $-1 #
vertex $-1 $90 $221 #
straight-curve $-1 0 23.101845550768232 9.6976706859420148 -1 0 0 I I #
coedge $-1 $91 $139 $93 $158 reversed $50 $-1 #
vertex $-1 $150 $222 #
straight-curve $-1 0 -23.101845550768232 9.6976706859420148 1 0 0 I I #
edge $-1 $96 -9.6976706859420148 $147 9.6976706859420148 $93 $223 forward 7 unknown #
edge $-1 $97 -9.6976706859420148 $146 9.6976706859420148 $94 $224 forward 7 unknown #
point $-1 40.864284188360237 -23.101845550768232 9.6976706859420148 #
point $-1 40.864284188360237 23.101845550768232 9.6976706859420148 #
face $-1 $-1 $179 $13 $-1 $225 reversed single #
loop $-1 $-1 $226 $99 #
plane-surface $-1 -40.864284188360237 0 0 1 0 0 0 0 -1 forward_v I I I I #
coedge $-1 $166 $182 $103 $169 forward $100 $-1 #
coedge $-1 $110 $165 $102 $167 forward $100 $-1 #
edge $-1 $173 -1.9445791052344115 $113 2.8220685748597356 $166 $227 forward 7 unknown #
coedge $-1 $104 $103 $226 $228 reversed $37 $-1 #
edge $-1 $229 -22.338392743550259 $173 -14.713390146069699 $165 $230 forward 7 unknown #
coedge $-1 $178 $177 $104 $171 forward $179 $-1 #
edge $-1 $172 14.713390146069699 $231 22.338392743550259 $170 $232 forward 7 unknown #
vertex $-1 $171 $233 #
vertex $-1 $169 $234 #
straight-curve $-1 -33.239281590879678 0 -1.5058343704217494 0 -1 0 I I #
coedge $-1 $235 $236 $107 $176 forward $163 $-1 #
edge $-1 $183 -23.101845550768232 $180 23.101845550768232 $175 $237 forward 7 unknown #
coedge $-1 $170 $108 $112 $185 forward $179 $-1 #
coedge $-1 $108 $170 $235 $238 reversed $179 $-1 #
loop $-1 $-1 $170 $162 #
vertex $-1 $238 $239 #
straight-curve $-1 -18.525891444809979 23.101845550768232 3.2608133096723977 1 0 0 I I #
coedge $-1 $165 $110 $236 $240 forward $100 $-1 #
vertex $-1 $240 $241 #
straight-curve $-1 -18.525891444809979 -23.101845550768232 3.2608133096723977 -1 0 0 I I #
edge $-1 $114 -2.8220685748597356 $172 1.9445791052344115 $177 $242 forward 7 unknown #
point $-1 -33.239281590879678 -23.101845550768232 3.2608133096723977 #
point $-1 -33.239281590879678 23.101845550768232 3.2608133096723977 #
loop $-1 $-1 $193 $116 #
plane-surface $-1 40.864284188360237 0 0 -1 0 0 0 0 1 forward_v I I I I #
coedge $-1 $119 $198 $243 $244 forward $66 $-1 #
coedge $-1 $121 $120 $119 $192 reversed $41 $-1 #
edge $-1 $245 -22.819017789622311 $199 -13.271515007853541 $119 $246 forward 7 unknown #
coedge $-1 $243 $247 $121 $194 forward $188 $-1 #
edge $-1 $196 -4.7261868957984721 $245 -0.66890819321186434 $193 $248 forward 7 unknown #
coedge $-1 $127 $122 $247 $249 reversed $117 $-1 #
vertex $-1 $123 $250 #
straight-curve $-1 18.045266398737926 -23.101845550768232 6.5445728941463148 1 0 0 I I #
coedge $-1 $190 $124 $127 $202 forward $66 $-1 #
vertex $-1 $125 $251 #
straight-curve $-1 31.316781406591467 -43.308436538361839 9.6976706859420148 0 -1 0 I I #
straight-curve $-1 31.316781406591467 -23.101845550768239 6.5445728941463059 0 0.62932038083071107 0.77714596973225614 I I #
edge $-1 $128 31.316781406591467 $252 40.864284188360237 $127 $253 forward 7 unknown #
point $-1 31.316781406591467 -23.101845550768232 9.6976706859420148 #
point $-1 31.316781406591467 -23.101845550768232 6.5445728941463148 #
edge $-1 $254 1 $254 0 $131 $-1 forward 7 unknown #
vertex $-1 $132 $255 #
ellipse-curve $-1 36.090532797475852 -21.038548557255293 7.4841190412111107 0 -0.77714596973225614 0.62932038083071107 0.5 0 0 1 I I #
point $-1 36.590532797475852 -21.825181461644149 8.1211217900441497 #
plane-surface $-1 40.864284188360237 0 0 -1 0 0 0 0 1 forward_v I I I I #
coedge $-1 $140 $138 $142 $214 reversed $81 $-1 #
edge $-1 $153 -9.6976706859420148 $216 9.6976706859420148 $152 $256 forward 7 unknown #
vertex $-1 $214 $257 #
straight-curve $-1 -40.864284188360237 -23.101845550768232 0 0 0 -1 I I #
edge $-1 $212 -23.101845550768232 $216 23.101845550768232 $210 $258 forward 7 unknown #
straight-curve $-1 0 -23.101845550768232 -9.6976706859420148 -1 0 0 I I #
vertex $-1 $145 $259 #
straight-curve $-1 0 23.101845550768232 -9.6976706859420148 1 0 0 I I #
point $-1 40.864284188360237 23.101845550768232 -9.6976706859420148 #
point $-1 40.864284188360237 -23.101845550768232 -9.6976706859420148 #
straight-curve $-1 -40.864284188360237 0 9.6976706859420148 0 -1 0 I I #
point $-1 -40.864284188360237 23.101845550768232 9.6976706859420148 #
point $-1 -40.864284188360237 -23.101845550768232 9.6976706859420148 #
straight-curve $-1 40.864284188360237 -23.101845550768232 0 0 0 -1 I I #
straight-curve $-1 40.864284188360237 23.101845550768232 0 0 0 -1 I I #
plane-surface $-1 0 23.101845550768232 0 0 -1 0 0 0 -1 forward_v I I I I #
coedge $-1 $236 $235 $168 $228 forward $163 $-1 #
straight-curve $-1 -33.239281590879678 -23.101845550768232 0.43874473481266207 0 0 1 I I #
edge $-1 $231 -23.101845550768232 $229 23.101845550768232 $226 $260 forward 7 unknown #
vertex $-1 $169 $261 #
straight-curve $-1 -18.525891444809979 -23.101845550768232 -1.5058343704217494 1 0 0 I I #
vertex $-1 $171 $262 #
straight-curve $-1 -18.525891444809979 23.101845550768232 -1.5058343704217494 -1 0 0 I I #
point $-1 -33.239281590879678 23.101845550768232 -1.5058343704217494 #
point $-1 -33.239281590879678 -23.101845550768232 -1.5058343704217494 #
coedge $-1 $226 $175 $178 $238 forward $163 $-1 #
coedge $-1 $175 $226 $182 $240 reversed $163 $-1 #
straight-curve $-1 -40.864284188360237 0 3.2608133096723977 0 1 0 I I #
edge $-1 $180 -3.2608133096723977 $231 1.5058343704217494 $178 $263 forward 7 unknown #
point $-1 -40.864284188360237 23.101845550768232 3.2608133096723977 #
edge $-1 $183 -3.2608133096723977 $229 1.5058343704217494 $236 $264 forward 7 unknown #
point $-1 -40.864284188360237 -23.101845550768232 3.2608133096723977 #
straight-curve $-1 -33.239281590879678 23.101845550768232 0.43874473481266207 0 0 -1 I I #
coedge $-1 $247 $193 $190 $244 reversed $188 $-1 #
edge $-1 $252 -23.101845550768232 $245 -20.548517372520095 $243 $265 forward 7 unknown #
vertex $-1 $194 $266 #
straight-curve $-1 18.045266398737926 -20.548517372520095 9.6976706859420148 -1 0 0 I I #
coedge $-1 $193 $243 $195 $249 forward $188 $-1 #
straight-curve $-1 40.864284188360237 -20.127559813627222 10.217509992417501 0 0.62932038083071107 0.77714596973225614 I I #
edge $-1 $252 -9.6976706859420148 $196 -6.5445728941463148 $247 $267 forward 7 unknown #
point $-1 40.864284188360237 -23.101845550768232 6.5445728941463148 #
point $-1 31.316781406591467 -20.548517372520095 9.6976706859420148 #
vertex $-1 $244 $268 #
straight-curve $-1 0 -23.101845550768232 9.6976706859420148 1 0 0 I I #
vertex $-1 $205 $269 #
point $-1 36.590532797475852 -21.038548557255293 7.4841190412111107 #
straight-curve $-1 -40.864284188360237 23.101845550768232 0 0 0 -1 I I #
point $-1 -40.864284188360237 -23.101845550768232 -9.6976706859420148 #
straight-curve $-1 -40.864284188360237 0 -9.6976706859420148 0 1 0 I I #
point $-1 -40.864284188360237 23.101845550768232 -9.6976706859420148 #
straight-curve $-1 -40.864284188360237 0 -1.5058343704217494 0 -1 0 I I #
point $-1 -40.864284188360237 -23.101845550768232 -1.5058343704217494 #
point $-1 -40.864284188360237 23.101845550768232 -1.5058343704217494 #
straight-curve $-1 -40.864284188360237 23.101845550768232 0 0 0 -1 I I #
straight-curve $-1 -40.864284188360237 -23.101845550768232 0 0 0 -1 I I #
straight-curve $-1 40.864284188360237 0 9.6976706859420148 0 1 0 I I #
point $-1 40.864284188360237 -20.548517372520095 9.6976706859420148 #
straight-curve $-1 40.864284188360237 -23.101845550768232 0 0 0 -1 I I #
point $-1 40.864284188360237 -23.101845550768232 9.6976706859420148 #
point $-1 36.090532797475852 -20.649975572389163 7.1694588507957544 #
End-of-ACIS-data 