500 0 14 0           
7 Unknown 11 ACIS 5.0 NT 24 Thu Mar 25 18:58:01 1999 
-1 9.9999999999999995e-007 1e-010 
body $-1 $14 $-1 $15 #
body $-1 $16 $-1 $17 #
body $-1 $18 $-1 $19 #
body $-1 $20 $-1 $21 #
body $-1 $22 $-1 $23 #
body $-1 $24 $-1 $25 #
body $-1 $26 $-1 $27 #
body $-1 $28 $-1 $29 #
body $-1 $30 $-1 $31 #
body $-1 $32 $-1 $33 #
body $-1 $34 $-1 $35 #
body $-1 $36 $-1 $37 #
body $-1 $38 $-1 $39 #
body $-1 $40 $-1 $41 #
lump $-1 $-1 $42 $0 #
transform $-1 1 0 0 0 1 0 0 0 1 43.123874629963069 24.508763929683834 9.824673149595327 1 rotate no_reflect no_shear #
lump $-1 $-1 $43 $1 #
transform $-1 1 0 0 0 1 0 0 0 1 43.123874629963069 24.508763929683834 9.824673149595327 1 rotate no_reflect no_shear #
lump $-1 $-1 $44 $2 #
transform $-1 1 0 0 0 1 0 0 0 1 43.123874629963069 24.508763929683834 9.824673149595327 1 rotate no_reflect no_shear #
lump $-1 $-1 $45 $3 #
transform $-1 1 0 0 0 1 0 0 0 1 43.123874629963069 24.508763929683834 9.824673149595327 1 rotate no_reflect no_shear #
lump $-1 $-1 $46 $4 #
transform $-1 1 0 0 0 1 0 0 0 1 43.123874629963069 24.508763929683834 9.824673149595327 1 rotate no_reflect no_shear #
lump $-1 $-1 $47 $5 #
transform $-1 1 0 0 0 1 0 0 0 1 43.123874629963069 24.508763929683834 9.824673149595327 1 rotate no_reflect no_shear #
lump $-1 $-1 $48 $6 #
transform $-1 1 0 0 0 1 0 0 0 1 43.123874629963069 24.508763929683834 9.824673149595327 1 rotate no_reflect no_shear #
lump $-1 $-1 $49 $7 #
transform $-1 1 0 0 0 1 0 0 0 1 43.123874629963069 24.508763929683834 9.824673149595327 1 rotate no_reflect no_shear #
lump $-1 $-1 $50 $8 #
transform $-1 1 0 0 0 1 0 0 0 1 43.123874629963069 24.508763929683834 9.824673149595327 1 rotate no_reflect no_shear #
lump $-1 $-1 $51 $9 #
transform $-1 1 0 0 0 1 0 0 0 1 43.123874629963069 24.508763929683834 9.824673149595327 1 rotate no_reflect no_shear #
lump $-1 $-1 $52 $10 #
transform $-1 1 0 0 0 1 0 0 0 1 43.123874629963069 24.508763929683834 9.824673149595327 1 rotate no_reflect no_shear #
lump $-1 $-1 $53 $11 #
transform $-1 1 0 0 0 1 0 0 0 1 43.123874629963069 24.508763929683834 9.824673149595327 1 rotate no_reflect no_shear #
lump $-1 $-1 $54 $12 #
transform $-1 1 0 0 0 1 0 0 0 1 43.123874629963069 24.508763929683834 9.824673149595327 1 rotate no_reflect no_shear #
lump $-1 $-1 $55 $13 #
transform $-1 1 0 0 0 1 0 0 0 1 43.123874629963069 24.508763929683834 9.824673149595327 1 rotate no_reflect no_shear #
shell $-1 $-1 $-1 $56 $-1 $14 #
shell $-1 $-1 $-1 $57 $-1 $16 #
shell $-1 $-1 $-1 $58 $-1 $18 #
shell $-1 $-1 $-1 $59 $-1 $20 #
shell $-1 $-1 $-1 $60 $-1 $22 #
shell $-1 $-1 $-1 $61 $-1 $24 #
shell $-1 $-1 $-1 $62 $-1 $26 #
shell $-1 $-1 $-1 $63 $-1 $28 #
shell $-1 $-1 $-1 $64 $-1 $30 #
shell $-1 $-1 $-1 $65 $-1 $32 #
shell $-1 $-1 $-1 $66 $-1 $34 #
shell $-1 $-1 $-1 $67 $-1 $36 #
shell $-1 $-1 $-1 $68 $-1 $38 #
shell $-1 $-1 $-1 $69 $-1 $40 #
face $-1 $70 $71 $42 $-1 $72 forward single #
face $-1 $73 $74 $43 $-1 $75 forward single #
face $-1 $76 $77 $44 $-1 $78 reversed single #
face $-1 $79 $80 $45 $-1 $81 forward single #
face $-1 $82 $83 $46 $-1 $84 forward single #
face $-1 $85 $86 $47 $-1 $87 reversed single #
face $-1 $88 $89 $48 $-1 $90 forward single #
face $-1 $91 $92 $49 $-1 $93 forward single #
face $-1 $94 $95 $50 $-1 $96 reversed single #
face $-1 $97 $98 $51 $-1 $99 forward single #
face $-1 $100 $101 $52 $-1 $102 forward single #
face $-1 $103 $104 $53 $-1 $105 reversed single #
face $-1 $106 $107 $54 $-1 $108 forward single #
face $-1 $109 $110 $55 $-1 $111 forward single #
face $-1 $112 $113 $42 $-1 $114 reversed single #
loop $-1 $-1 $115 $56 #
plane-surface $-1 0 0 9.824673149595327 0 0 1 1 0 0 forward_v I I I I #
face $-1 $116 $117 $43 $-1 $118 reversed single #
loop $-1 $-1 $119 $57 #
plane-surface $-1 0 -21.167478554023386 0.5505904245113169 0 0 1 1 0 0 forward_v I I I I #
face $-1 $120 $121 $44 $-1 $122 reversed single #
loop $-1 $-1 $123 $58 #
plane-surface $-1 -91.353004583256734 -7.2904057183042106 75.104598731704016 0 1 0 -0.55919291073839883 0 0.82903756765294845 forward_v I I I I #
face $-1 $124 $125 $45 $-1 $126 forward single #
loop $-1 $127 $128 $59 #
cone-surface $-1 -37.927504182951445 -5.2883485720073331 5.848093174569966 0.55919291073839883 0 -0.82903756765294845 0.82903756765294845 0 0.55919291073839883 1 I I 0 1 1 forward I I I I #
face $-1 $129 $130 $46 $-1 $131 forward single #
loop $-1 $132 $133 $60 #
cone-surface $-1 -37.927504182951445 -2.2852628525620169 5.848093174569966 0.55919291073839883 0 -0.82903756765294845 0.82903756765294845 0 0.55919291073839883 1 I I 0 1 1 forward I I I I #
face $-1 $134 $135 $47 $-1 $136 reversed single #
loop $-1 $-1 $137 $61 #
plane-surface $-1 -91.353004583256734 13.877072835719176 75.104598731704016 0 1 0 -0.55919291073839883 0 0.82903756765294845 forward_v I I I I #
face $-1 $138 $139 $48 $-1 $140 forward single #
loop $-1 $141 $142 $62 #
cone-surface $-1 -37.927504182951445 15.879129982016057 5.848093174569966 0.55919291073839883 0 -0.82903756765294845 0.82903756765294845 0 0.55919291073839883 1 I I 0 1 1 forward I I I I #
face $-1 $143 $144 $49 $-1 $145 forward single #
loop $-1 $146 $147 $63 #
cone-surface $-1 -37.927504182951445 18.882215701461366 5.848093174569966 0.55919291073839883 0 -0.82903756765294845 0.82903756765294845 0 0.55919291073839883 1 I I 0 1 1 forward I I I I #
face $-1 $148 $149 $50 $-1 $150 reversed single #
loop $-1 $-1 $151 $64 #
plane-surface $-1 19.850380321266194 -0.28320570626513941 123.33372868499771 0 -1 0 -0.55919291073839883 0 -0.82903756765294845 forward_v I I I I #
face $-1 $152 $153 $51 $-1 $154 forward single #
loop $-1 $155 $156 $65 #
cone-surface $-1 37.927504182951445 -5.2883485720073331 5.848093174569966 -0.55919291073839883 0 -0.82903756765294845 0.82903756765294845 0 -0.55919291073839883 1 I I 0 1 1 forward I I I I #
face $-1 $157 $158 $52 $-1 $159 forward single #
loop $-1 $160 $161 $66 #
cone-surface $-1 37.927504182951445 -2.2852628525620169 5.848093174569966 -0.55919291073839883 0 -0.82903756765294845 0.82903756765294845 0 -0.55919291073839883 1 I I 0 1 1 forward I I I I #
face $-1 $162 $163 $53 $-1 $164 reversed single #
loop $-1 $-1 $165 $67 #
plane-surface $-1 19.850380321266194 20.884272847758247 123.33372868499771 0 -1 0 -0.55919291073839883 0 -0.82903756765294845 forward_v I I I I #
face $-1 $166 $167 $54 $-1 $168 forward single #
loop $-1 $169 $170 $68 #
cone-surface $-1 37.927504182951445 15.879129982016057 5.848093174569966 -0.55919291073839883 0 -0.82903756765294845 0.82903756765294845 0 -0.55919291073839883 1 I I 0 1 1 forward I I I I #
face $-1 $171 $172 $55 $-1 $173 forward single #
loop $-1 $174 $175 $69 #
cone-surface $-1 37.927504182951445 18.882215701461366 5.848093174569966 -0.55919291073839883 0 -0.82903756765294845 0.82903756765294845 0 -0.55919291073839883 1 I I 0 1 1 forward I I I I #
face $-1 $176 $177 $42 $-1 $178 reversed single #
loop $-1 $-1 $179 $70 #
plane-surface $-1 0 0 -9.824673149595327 0 0 1 1 0 0 forward_v I I I I #
coedge $-1 $180 $181 $182 $183 forward $71 $-1 #
face $-1 $184 $185 $43 $-1 $186 reversed single #
loop $-1 $-1 $187 $73 #
plane-surface $-1 0 -21.167478554023386 -2.449409575488684 0 0 1 1 0 0 forward_v I I I I #
coedge $-1 $188 $189 $190 $191 reversed $74 $-1 #
face $-1 $192 $193 $44 $-1 $194 reversed single #
loop $-1 $-1 $195 $76 #
plane-surface $-1 -43.123874629963055 -3.786805712284675 3.6019744697134684 -0.55919291073839883 0 0.82903756765294845 0.82903756765294845 0 0.55919291073839883 forward_v I I I I #
coedge $-1 $196 $197 $198 $199 reversed $77 $-1 #
face $-1 $-1 $200 $45 $-1 $201 forward single #
loop $-1 $202 $203 $79 #
cone-surface $-1 -37.064302284149022 -5.2883485720073331 4.5683437556590576 0.55919291073839883 0 -0.82903756765294845 0.41451878382647422 0 0.27959645536919941 1 I I -0.70710678118654746 0.70710678118654746 0.5 forward I I I I #
loop $-1 $-1 $204 $59 #
coedge $-1 $128 $128 $205 $206 reversed $80 $-1 #
face $-1 $-1 $207 $46 $-1 $208 forward single #
loop $-1 $209 $210 $82 #
cone-surface $-1 -37.064302284149022 -2.2852628525620169 4.5683437556590576 0.55919291073839883 0 -0.82903756765294845 0.41451878382647422 0 0.27959645536919941 1 I I -0.70710678118654746 0.70710678118654746 0.5 forward I I I I #
loop $-1 $-1 $211 $60 #
coedge $-1 $133 $133 $212 $213 reversed $83 $-1 #
face $-1 $214 $215 $47 $-1 $216 reversed single #
loop $-1 $-1 $217 $85 #
plane-surface $-1 -43.123874629963055 17.380672841738711 3.6019744697134684 -0.55919291073839883 0 0.82903756765294845 0.82903756765294845 0 0.55919291073839883 forward_v I I I I #
coedge $-1 $218 $219 $220 $221 reversed $86 $-1 #
face $-1 $-1 $222 $48 $-1 $223 forward single #
loop $-1 $224 $225 $88 #
cone-surface $-1 -37.064302284149022 15.879129982016057 4.5683437556590576 0.55919291073839883 0 -0.82903756765294845 0.41451878382647422 0 0.27959645536919941 1 I I -0.70710678118654746 0.70710678118654746 0.5 forward I I I I #
loop $-1 $-1 $226 $62 #
coedge $-1 $142 $142 $227 $228 reversed $89 $-1 #
face $-1 $-1 $229 $49 $-1 $230 forward single #
loop $-1 $231 $232 $91 #
cone-surface $-1 -37.064302284149022 18.882215701461366 4.5683437556590576 0.55919291073839883 0 -0.82903756765294845 0.41451878382647422 0 0.27959645536919941 1 I I -0.70710678118654746 0.70710678118654746 0.5 forward I I I I #
loop $-1 $-1 $233 $63 #
coedge $-1 $147 $147 $234 $235 reversed $92 $-1 #
face $-1 $236 $237 $50 $-1 $238 reversed single #
loop $-1 $-1 $239 $94 #
plane-surface $-1 -28.378749632027485 -3.786805712284675 51.831104423007162 0.55919291073839883 0 0.82903756765294845 0.82903756765294845 0 -0.55919291073839883 forward_v I I I I #
coedge $-1 $240 $241 $242 $243 reversed $95 $-1 #
face $-1 $-1 $244 $51 $-1 $245 forward single #
loop $-1 $246 $247 $97 #
cone-surface $-1 37.064302284149022 -5.2883485720073331 4.5683437556590576 -0.55919291073839883 0 -0.82903756765294845 0.41451878382647422 0 -0.27959645536919941 1 I I -0.70710678118654746 0.70710678118654746 0.5 forward I I I I #
loop $-1 $-1 $248 $65 #
coedge $-1 $156 $156 $249 $250 reversed $98 $-1 #
face $-1 $-1 $251 $52 $-1 $252 forward single #
loop $-1 $253 $254 $100 #
cone-surface $-1 37.064302284149022 -2.2852628525620169 4.5683437556590576 -0.55919291073839883 0 -0.82903756765294845 0.41451878382647422 0 -0.27959645536919941 1 I I -0.70710678118654746 0.70710678118654746 0.5 forward I I I I #
loop $-1 $-1 $255 $66 #
coedge $-1 $161 $161 $256 $257 reversed $101 $-1 #
face $-1 $258 $259 $53 $-1 $260 reversed single #
loop $-1 $-1 $261 $103 #
plane-surface $-1 -28.378749632027485 17.380672841738711 51.831104423007162 0.55919291073839883 0 0.82903756765294845 0.82903756765294845 0 -0.55919291073839883 forward_v I I I I #
coedge $-1 $262 $263 $264 $265 reversed $104 $-1 #
face $-1 $-1 $266 $54 $-1 $267 forward single #
loop $-1 $268 $269 $106 #
cone-surface $-1 37.064302284149022 15.879129982016057 4.5683437556590576 -0.55919291073839883 0 -0.82903756765294845 0.41451878382647422 0 -0.27959645536919941 1 I I -0.70710678118654746 0.70710678118654746 0.5 forward I I I I #
loop $-1 $-1 $270 $68 #
coedge $-1 $170 $170 $271 $272 reversed $107 $-1 #
face $-1 $-1 $273 $55 $-1 $274 forward single #
loop $-1 $275 $276 $109 #
cone-surface $-1 37.064302284149022 18.882215701461366 4.5683437556590576 -0.55919291073839883 0 -0.82903756765294845 0.41451878382647422 0 -0.27959645536919941 1 I I -0.70710678118654746 0.70710678118654746 0.5 forward I I I I #
loop $-1 $-1 $277 $69 #
coedge $-1 $175 $175 $278 $279 reversed $110 $-1 #
face $-1 $280 $281 $42 $-1 $282 reversed single #
loop $-1 $-1 $283 $112 #
plane-surface $-1 0 -24.508763929683834 0 0 1 0 0 0 1 forward_v I I I I #
coedge $-1 $284 $285 $286 $287 forward $113 $-1 #
coedge $-1 $288 $115 $289 $290 forward $71 $-1 #
coedge $-1 $115 $288 $291 $292 forward $71 $-1 #
coedge $-1 $293 $294 $115 $183 reversed $295 $-1 #
edge $-1 $296 -24.508763929683834 $297 24.508763929683834 $182 $298 forward 7 unknown #
face $-1 $299 $300 $43 $-1 $301 reversed single #
loop $-1 $-1 $302 $116 #
plane-surface $-1 0 -17.826193178362939 -0.94940957548868354 0 -1 0 0 0 -1 forward_v I I I I #
coedge $-1 $303 $304 $305 $306 reversed $117 $-1 #
coedge $-1 $307 $119 $308 $309 forward $74 $-1 #
coedge $-1 $119 $307 $310 $311 reversed $74 $-1 #
coedge $-1 $312 $313 $119 $191 forward $314 $-1 #
edge $-1 $315 7.2424539013512454 $316 13.925024652672141 $190 $317 forward 7 unknown #
face $-1 $318 $319 $44 $-1 $320 reversed single #
loop $-1 $-1 $321 $120 #
plane-surface $-1 -91.353004583256734 -0.28320570626513941 75.104598731704016 0 -1 0 0.55919291073839883 0 -0.82903756765294845 forward_v I I I I #
coedge $-1 $322 $323 $324 $325 reversed $121 $-1 #
coedge $-1 $197 $123 $326 $327 reversed $77 $-1 #
coedge $-1 $123 $196 $322 $328 reversed $77 $-1 #
coedge $-1 $324 $329 $123 $199 forward $330 $-1 #
edge $-1 $331 2.5526276616652979 $332 11.778157668822146 $198 $333 forward 7 unknown #
loop $-1 $-1 $205 $124 #
plane-surface $-1 -43.123874629963055 -3.786805712284675 3.6019744697134684 -0.55919291073839883 0 0.82903756765294845 0.82903756765294845 0 0.55919291073839883 forward_v I I I I #
loop $-1 $-1 $334 $79 #
coedge $-1 $203 $203 $204 $335 reversed $125 $-1 #
coedge $-1 $204 $204 $203 $335 forward $127 $-1 #
coedge $-1 $205 $205 $128 $206 forward $200 $-1 #
edge $-1 $336 0 $336 6.2831853071796004 $205 $337 forward 7 unknown #
loop $-1 $-1 $212 $129 #
plane-surface $-1 -43.123874629963055 -3.786805712284675 3.6019744697134684 -0.55919291073839883 0 0.82903756765294845 0.82903756765294845 0 0.55919291073839883 forward_v I I I I #
loop $-1 $-1 $338 $82 #
coedge $-1 $210 $210 $211 $339 reversed $130 $-1 #
coedge $-1 $211 $211 $210 $339 forward $132 $-1 #
coedge $-1 $212 $212 $133 $213 forward $207 $-1 #
edge $-1 $340 0 $340 6.2831853071796004 $212 $341 forward 7 unknown #
face $-1 $342 $343 $47 $-1 $344 forward single #
loop $-1 $-1 $345 $134 #
plane-surface $-1 -91.353004583256734 20.884272847758247 75.104598731704016 0 -1 0 0.55919291073839883 0 -0.82903756765294845 forward_v I I I I #
coedge $-1 $346 $347 $348 $349 reversed $135 $-1 #
coedge $-1 $219 $137 $350 $351 reversed $86 $-1 #
coedge $-1 $137 $218 $346 $352 reversed $86 $-1 #
coedge $-1 $348 $353 $137 $221 forward $343 $-1 #
edge $-1 $354 2.5526276616652979 $355 11.778157668822146 $220 $356 forward 7 unknown #
loop $-1 $-1 $227 $138 #
plane-surface $-1 -43.123874629963055 17.380672841738711 3.6019744697134684 -0.55919291073839883 0 0.82903756765294845 0.82903756765294845 0 0.55919291073839883 forward_v I I I I #
loop $-1 $-1 $357 $88 #
coedge $-1 $225 $225 $226 $358 reversed $139 $-1 #
coedge $-1 $226 $226 $225 $358 forward $141 $-1 #
coedge $-1 $227 $227 $142 $228 forward $222 $-1 #
edge $-1 $359 0 $359 6.2831853071796004 $227 $360 forward 7 unknown #
loop $-1 $-1 $234 $143 #
plane-surface $-1 -43.123874629963055 17.380672841738711 3.6019744697134684 -0.55919291073839883 0 0.82903756765294845 0.82903756765294845 0 0.55919291073839883 forward_v I I I I #
loop $-1 $-1 $361 $91 #
coedge $-1 $232 $232 $233 $362 reversed $144 $-1 #
coedge $-1 $233 $233 $232 $362 forward $146 $-1 #
coedge $-1 $234 $234 $147 $235 forward $229 $-1 #
edge $-1 $363 0 $363 6.2831853071796004 $234 $364 forward 7 unknown #
face $-1 $365 $366 $50 $-1 $367 forward single #
loop $-1 $-1 $368 $148 #
plane-surface $-1 19.850380321266194 -7.2904057183042106 123.33372868499771 0 1 0 0.55919291073839883 0 0.82903756765294845 forward_v I I I I #
coedge $-1 $369 $370 $371 $372 reversed $149 $-1 #
coedge $-1 $241 $151 $373 $374 reversed $95 $-1 #
coedge $-1 $151 $240 $369 $375 reversed $95 $-1 #
coedge $-1 $371 $376 $151 $243 forward $366 $-1 #
edge $-1 $377 -33.198684469329976 $378 -23.973154462173159 $242 $379 forward 7 unknown #
loop $-1 $-1 $249 $152 #
plane-surface $-1 -28.378749632027485 -3.786805712284675 51.831104423007162 0.55919291073839883 0 0.82903756765294845 0.82903756765294845 0 -0.55919291073839883 forward_v I I I I #
loop $-1 $-1 $380 $97 #
coedge $-1 $247 $247 $248 $381 reversed $153 $-1 #
coedge $-1 $248 $248 $247 $381 forward $155 $-1 #
coedge $-1 $249 $249 $156 $250 forward $244 $-1 #
edge $-1 $382 0 $382 6.2831853071796004 $249 $383 forward 7 unknown #
loop $-1 $-1 $256 $157 #
plane-surface $-1 -28.378749632027485 -3.786805712284675 51.831104423007162 0.55919291073839883 0 0.82903756765294845 0.82903756765294845 0 -0.55919291073839883 forward_v I I I I #
loop $-1 $-1 $384 $100 #
coedge $-1 $254 $254 $255 $385 reversed $158 $-1 #
coedge $-1 $255 $255 $254 $385 forward $160 $-1 #
coedge $-1 $256 $256 $161 $257 forward $251 $-1 #
edge $-1 $386 0 $386 6.2831853071796004 $256 $387 forward 7 unknown #
face $-1 $388 $389 $53 $-1 $390 reversed single #
loop $-1 $-1 $391 $162 #
plane-surface $-1 19.850380321266194 13.877072835719176 123.33372868499771 0 1 0 0.55919291073839883 0 0.82903756765294845 forward_v I I I I #
coedge $-1 $392 $393 $394 $395 reversed $163 $-1 #
coedge $-1 $263 $165 $396 $397 reversed $104 $-1 #
coedge $-1 $165 $262 $392 $398 reversed $104 $-1 #
coedge $-1 $394 $399 $165 $265 forward $400 $-1 #
edge $-1 $401 -33.198684469329976 $402 -23.973154462173159 $264 $403 forward 7 unknown #
loop $-1 $-1 $271 $166 #
plane-surface $-1 -28.378749632027485 17.380672841738711 51.831104423007162 0.55919291073839883 0 0.82903756765294845 0.82903756765294845 0 -0.55919291073839883 forward_v I I I I #
loop $-1 $-1 $404 $106 #
coedge $-1 $269 $269 $270 $405 reversed $167 $-1 #
coedge $-1 $270 $270 $269 $405 forward $169 $-1 #
coedge $-1 $271 $271 $170 $272 forward $266 $-1 #
edge $-1 $406 0 $406 6.2831853071796004 $271 $407 forward 7 unknown #
loop $-1 $-1 $278 $171 #
plane-surface $-1 -28.378749632027485 17.380672841738711 51.831104423007162 0.55919291073839883 0 0.82903756765294845 0.82903756765294845 0 -0.55919291073839883 forward_v I I I I #
loop $-1 $-1 $408 $109 #
coedge $-1 $276 $276 $277 $409 reversed $172 $-1 #
coedge $-1 $277 $277 $276 $409 forward $174 $-1 #
coedge $-1 $278 $278 $175 $279 forward $273 $-1 #
edge $-1 $410 0 $410 6.2831853071796004 $278 $411 forward 7 unknown #
face $-1 $412 $413 $42 $-1 $414 reversed single #
loop $-1 $-1 $415 $176 #
plane-surface $-1 -43.123874629963069 0 0 1 0 0 0 0 -1 forward_v I I I I #
coedge $-1 $416 $291 $417 $418 forward $177 $-1 #
coedge $-1 $419 $179 $416 $420 forward $113 $-1 #
coedge $-1 $179 $419 $421 $422 forward $113 $-1 #
coedge $-1 $294 $293 $179 $287 reversed $295 $-1 #
edge $-1 $423 -24.508763929683834 $424 24.508763929683834 $286 $425 forward 7 unknown #
coedge $-1 $181 $180 $426 $427 forward $71 $-1 #
coedge $-1 $428 $429 $180 $290 reversed $413 $-1 #
edge $-1 $297 -43.123874629963069 $430 43.123874629963069 $289 $431 forward 7 unknown #
coedge $-1 $283 $432 $181 $292 reversed $177 $-1 #
edge $-1 $433 -43.123874629963069 $296 43.123874629963069 $291 $434 forward 7 unknown #
coedge $-1 $286 $182 $432 $435 forward $295 $-1 #
coedge $-1 $182 $286 $428 $436 reversed $295 $-1 #
loop $-1 $-1 $293 $412 #
vertex $-1 $183 $437 #
vertex $-1 $183 $438 #
straight-curve $-1 43.123874629963069 0 9.824673149595327 0 1 0 I I #
face $-1 $439 $440 $43 $-1 $441 reversed single #
loop $-1 $-1 $442 $184 #
plane-surface $-1 -43.123874629963069 0 0 1 0 0 0 0 -1 forward_v I I I I #
coedge $-1 $443 $308 $313 $444 reversed $185 $-1 #
coedge $-1 $445 $187 $446 $447 reversed $117 $-1 #
coedge $-1 $187 $445 $443 $448 forward $117 $-1 #
coedge $-1 $313 $312 $187 $306 forward $314 $-1 #
edge $-1 $449 -13.925024652672141 $450 -7.2424539013512454 $305 $451 forward 7 unknown #
coedge $-1 $189 $188 $442 $452 reversed $74 $-1 #
coedge $-1 $302 $453 $188 $309 reversed $185 $-1 #
edge $-1 $315 -43.123874629963069 $454 43.123874629963069 $308 $455 forward 7 unknown #
coedge $-1 $456 $457 $189 $311 forward $440 $-1 #
edge $-1 $316 -43.123874629963069 $458 43.123874629963069 $310 $459 forward 7 unknown #
coedge $-1 $305 $190 $457 $460 forward $314 $-1 #
coedge $-1 $190 $305 $302 $444 forward $314 $-1 #
loop $-1 $-1 $190 $439 #
vertex $-1 $191 $461 #
vertex $-1 $460 $462 #
straight-curve $-1 43.123874629963069 -10.583739277011693 0.5505904245113169 0 -1 0 I I #
face $-1 $-1 $330 $44 $-1 $463 forward single #
loop $-1 $-1 $464 $192 #
plane-surface $-1 -43.123874629963069 0 0 1 0 0 0 0 -1 forward_v I I I I #
coedge $-1 $465 $466 $467 $468 reversed $193 $-1 #
coedge $-1 $469 $195 $197 $328 forward $121 $-1 #
coedge $-1 $195 $469 $465 $470 forward $121 $-1 #
coedge $-1 $467 $198 $195 $325 forward $330 $-1 #
edge $-1 $332 -5.3970028621618731 $471 1.6101971498771981 $324 $472 forward 7 unknown #
coedge $-1 $473 $474 $196 $327 forward $319 $-1 #
edge $-1 $475 -33.950324896138547 $331 -27.727626216256681 $326 $476 forward 7 unknown #
edge $-1 $332 -11.127999944893718 $475 1.7244626260799089e-014 $197 $477 forward 7 unknown #
coedge $-1 $198 $467 $473 $478 forward $330 $-1 #
loop $-1 $-1 $467 $318 #
vertex $-1 $327 $479 #
vertex $-1 $199 $480 #
straight-curve $-1 -45.676502291628367 -7.2904057183042106 9.824673149595327 1 0 0 I I #
coedge $-1 $334 $334 $-1 $481 reversed $202 $-1 #
edge $-1 $482 0 $482 6.2831853071796004 $203 $483 forward 7 unknown #
vertex $-1 $206 $484 #
ellipse-curve $-1 -38.511109626384659 -5.2883485720073331 6.7133238096543861 -0.55919291073839883 0 0.82903756765294845 0.82903756765294845 0 0.55919291073839883 1 I I #
coedge $-1 $338 $338 $-1 $485 reversed $209 $-1 #
edge $-1 $486 0 $486 6.2831853071796004 $210 $487 forward 7 unknown #
vertex $-1 $213 $488 #
ellipse-curve $-1 -38.511109626384659 -2.2852628525620169 6.7133238096543861 -0.55919291073839883 0 0.82903756765294845 0.82903756765294845 0 0.55919291073839883 1 I I #
face $-1 $-1 $489 $47 $-1 $490 reversed single #
loop $-1 $-1 $220 $214 #
plane-surface $-1 0 0 9.824673149595327 0 0 1 1 0 0 forward_v I I I I #
coedge $-1 $491 $492 $493 $494 reversed $215 $-1 #
coedge $-1 $495 $217 $219 $352 forward $135 $-1 #
coedge $-1 $217 $495 $491 $496 forward $135 $-1 #
coedge $-1 $493 $220 $217 $349 forward $343 $-1 #
edge $-1 $355 5.1867364148498201 $497 12.193936426888891 $348 $498 forward 7 unknown #
coedge $-1 $499 $500 $218 $351 forward $489 $-1 #
edge $-1 $501 -33.950324896138547 $354 -27.727626216256681 $350 $502 forward 7 unknown #
edge $-1 $355 -11.127999944893718 $501 1.7244626260799089e-014 $219 $503 forward 7 unknown #
coedge $-1 $220 $493 $499 $504 forward $343 $-1 #
vertex $-1 $221 $505 #
vertex $-1 $221 $506 #
straight-curve $-1 -45.676502291628367 13.877072835719176 9.824673149595327 1 0 0 I I #
coedge $-1 $357 $357 $-1 $507 reversed $224 $-1 #
edge $-1 $508 0 $508 6.2831853071796004 $225 $509 forward 7 unknown #
vertex $-1 $228 $510 #
ellipse-curve $-1 -38.511109626384659 15.879129982016057 6.7133238096543861 -0.55919291073839883 0 0.82903756765294845 0.82903756765294845 0 0.55919291073839883 1 I I #
coedge $-1 $361 $361 $-1 $511 reversed $231 $-1 #
edge $-1 $512 0 $512 6.2831853071796004 $232 $513 forward 7 unknown #
vertex $-1 $235 $514 #
ellipse-curve $-1 -38.511109626384659 18.882215701461366 6.7133238096543861 -0.55919291073839883 0 0.82903756765294845 0.82903756765294845 0 0.55919291073839883 1 I I #
face $-1 $-1 $515 $50 $-1 $516 reversed single #
loop $-1 $-1 $242 $236 #
plane-surface $-1 0 0 9.824673149595327 0 0 1 1 0 0 forward_v I I I I #
coedge $-1 $517 $518 $519 $520 reversed $237 $-1 #
coedge $-1 $521 $239 $241 $375 forward $149 $-1 #
coedge $-1 $239 $521 $517 $522 forward $149 $-1 #
coedge $-1 $519 $242 $239 $372 forward $366 $-1 #
edge $-1 $378 -1.6101971498771981 $523 5.3970028621618731 $371 $524 forward 7 unknown #
coedge $-1 $525 $526 $240 $374 forward $515 $-1 #
edge $-1 $527 -58.064889872785372 $377 -51.842191192903528 $373 $528 forward 7 unknown #
edge $-1 $378 75.11974931503245 $527 86.247749259926138 $241 $529 forward 7 unknown #
coedge $-1 $242 $519 $525 $530 forward $366 $-1 #
vertex $-1 $374 $531 #
vertex $-1 $243 $532 #
straight-curve $-1 9.9251901606330968 -0.28320570626513941 9.824673149595327 -1 0 0 I I #
coedge $-1 $380 $380 $-1 $533 reversed $246 $-1 #
edge $-1 $534 0 $534 6.2831853071796004 $247 $535 forward 7 unknown #
vertex $-1 $250 $536 #
ellipse-curve $-1 38.511109626384666 -5.2883485720073331 6.7133238096544003 0.55919291073839883 0 0.82903756765294845 0.82903756765294845 0 -0.55919291073839883 1 I I #
coedge $-1 $384 $384 $-1 $537 reversed $253 $-1 #
edge $-1 $538 0 $538 6.2831853071796004 $254 $539 forward 7 unknown #
vertex $-1 $257 $540 #
ellipse-curve $-1 38.511109626384666 -2.2852628525620169 6.7133238096544003 0.55919291073839883 0 0.82903756765294845 0.82903756765294845 0 -0.55919291073839883 1 I I #
face $-1 $-1 $400 $53 $-1 $541 forward single #
loop $-1 $-1 $542 $258 #
plane-surface $-1 43.123874629963069 0 0 -1 0 0 0 0 1 forward_v I I I I #
coedge $-1 $543 $544 $545 $546 reversed $259 $-1 #
coedge $-1 $547 $261 $263 $398 forward $163 $-1 #
coedge $-1 $261 $547 $543 $548 forward $163 $-1 #
coedge $-1 $545 $264 $261 $395 forward $400 $-1 #
edge $-1 $402 -12.193936426888891 $549 -5.1867364148498201 $394 $550 forward 7 unknown #
coedge $-1 $551 $552 $262 $397 forward $389 $-1 #
edge $-1 $553 -58.064889872785372 $401 -51.842191192903528 $396 $554 forward 7 unknown #
edge $-1 $402 75.11974931503245 $553 86.247749259926138 $263 $555 forward 7 unknown #
coedge $-1 $264 $545 $551 $556 forward $400 $-1 #
loop $-1 $-1 $545 $388 #
vertex $-1 $397 $557 #
vertex $-1 $265 $558 #
straight-curve $-1 9.9251901606330968 20.884272847758247 9.824673149595327 -1 0 0 I I #
coedge $-1 $404 $404 $-1 $559 reversed $268 $-1 #
edge $-1 $560 0 $560 6.2831853071796004 $269 $561 forward 7 unknown #
vertex $-1 $272 $562 #
ellipse-curve $-1 38.511109626384666 15.879129982016057 6.7133238096544003 0.55919291073839883 0 0.82903756765294845 0.82903756765294845 0 -0.55919291073839883 1 I I #
coedge $-1 $408 $408 $-1 $563 reversed $275 $-1 #
edge $-1 $564 0 $564 6.2831853071796004 $276 $565 forward 7 unknown #
vertex $-1 $279 $566 #
ellipse-curve $-1 38.511109626384666 18.882215701461366 6.7133238096544003 0.55919291073839883 0 0.82903756765294845 0.82903756765294845 0 -0.55919291073839883 1 I I #
face $-1 $-1 $295 $42 $-1 $567 reversed single #
loop $-1 $-1 $428 $280 #
plane-surface $-1 0 24.508763929683834 0 0 -1 0 0 0 -1 forward_v I I I I #
coedge $-1 $568 $426 $429 $569 forward $281 $-1 #
coedge $-1 $432 $283 $284 $420 reversed $177 $-1 #
coedge $-1 $426 $568 $283 $418 reversed $281 $-1 #
edge $-1 $433 -9.824673149595327 $570 9.824673149595327 $417 $571 forward 7 unknown #
coedge $-1 $285 $284 $568 $572 forward $113 $-1 #
edge $-1 $424 -43.123874629963069 $570 43.123874629963069 $416 $573 forward 7 unknown #
coedge $-1 $429 $428 $285 $422 reversed $413 $-1 #
edge $-1 $574 -43.123874629963069 $423 43.123874629963069 $421 $575 forward 7 unknown #
vertex $-1 $287 $576 #
vertex $-1 $435 $577 #
straight-curve $-1 43.123874629963069 0 -9.824673149595327 0 -1 0 I I #
coedge $-1 $415 $417 $288 $427 reversed $281 $-1 #
edge $-1 $430 -24.508763929683834 $433 24.508763929683834 $426 $578 forward 7 unknown #
coedge $-1 $421 $289 $294 $436 forward $413 $-1 #
coedge $-1 $289 $421 $415 $569 reversed $413 $-1 #
vertex $-1 $290 $579 #
straight-curve $-1 0 24.508763929683834 9.824673149595327 -1 0 0 I I #
coedge $-1 $291 $416 $293 $435 reversed $177 $-1 #
vertex $-1 $427 $580 #
straight-curve $-1 0 -24.508763929683834 9.824673149595327 1 0 0 I I #
edge $-1 $296 -9.824673149595327 $424 9.824673149595327 $293 $581 forward 7 unknown #
edge $-1 $297 -9.824673149595327 $423 9.824673149595327 $294 $582 forward 7 unknown #
point $-1 43.123874629963069 -24.508763929683834 9.824673149595327 #
point $-1 43.123874629963069 24.508763929683834 9.824673149595327 #
face $-1 $-1 $314 $43 $-1 $583 reversed single #
loop $-1 $-1 $310 $299 #
plane-surface $-1 0 -24.508763929683834 0 0 1 0 0 0 1 forward_v I I I I #
coedge $-1 $584 $585 $307 $452 forward $300 $-1 #
coedge $-1 $453 $302 $304 $448 reversed $185 $-1 #
edge $-1 $450 -1.9747047877443422 $315 1.0252952122556587 $313 $586 forward 7 unknown #
coedge $-1 $304 $303 $587 $588 reversed $117 $-1 #
coedge $-1 $457 $456 $303 $447 forward $440 $-1 #
edge $-1 $589 -43.123874629963069 $449 43.123874629963069 $446 $590 forward 7 unknown #
edge $-1 $591 -43.123874629963069 $450 43.123874629963069 $443 $592 forward 7 unknown #
vertex $-1 $447 $593 #
vertex $-1 $306 $594 #
straight-curve $-1 43.123874629963069 -10.583739277011693 -2.449409575488684 0 1 0 I I #
edge $-1 $458 -13.925024652672141 $454 -7.2424539013512454 $442 $595 forward 7 unknown #
coedge $-1 $308 $443 $584 $596 reversed $185 $-1 #
vertex $-1 $452 $597 #
straight-curve $-1 0 -17.826193178362939 0.5505904245113169 -1 0 0 I I #
coedge $-1 $446 $310 $585 $598 forward $440 $-1 #
coedge $-1 $310 $446 $312 $460 reversed $440 $-1 #
vertex $-1 $598 $599 #
straight-curve $-1 0 -24.508763929683834 0.5505904245113169 -1 0 0 I I #
edge $-1 $316 -0.5505904245113169 $449 2.449409575488684 $312 $600 forward 7 unknown #
point $-1 43.123874629963069 -17.826193178362939 0.5505904245113169 #
point $-1 43.123874629963069 -24.508763929683834 0.5505904245113169 #
plane-surface $-1 0 0 9.824673149595327 0 0 1 1 0 0 forward_v I I I I #
coedge $-1 $474 $473 $466 $601 forward $319 $-1 #
coedge $-1 $466 $321 $323 $470 reversed $193 $-1 #
coedge $-1 $321 $465 $464 $601 reversed $193 $-1 #
coedge $-1 $329 $324 $321 $468 forward $330 $-1 #
edge $-1 $471 -11.778157668822146 $602 -2.5526276616652979 $467 $603 forward 7 unknown #
coedge $-1 $323 $322 $474 $604 reversed $121 $-1 #
edge $-1 $605 -1.7244626260799089e-014 $471 11.127999944893718 $465 $606 forward 7 unknown #
vertex $-1 $325 $607 #
straight-curve $-1 -33.898344622806221 -1.8934028561423375 9.824673149595327 0 1 0 I I #
coedge $-1 $464 $326 $329 $478 reversed $319 $-1 #
coedge $-1 $326 $464 $469 $604 forward $319 $-1 #
vertex $-1 $327 $608 #
straight-curve $-1 -43.123874629963069 -7.2904057183042106 37.552299365852008 0 0 1 I I #
straight-curve $-1 -43.123874629963055 -7.2904057183042106 3.6019744697134684 -0.82903756765294845 0 -0.55919291073839883 I I #
edge $-1 $602 0.28320570626513941 $331 7.2904057183042106 $473 $609 forward 7 unknown #
point $-1 -43.123874629963069 -7.2904057183042106 9.824673149595327 #
point $-1 -33.898344622806221 -7.2904057183042106 9.824673149595327 #
edge $-1 $610 1 $610 0 $334 $-1 forward 7 unknown #
vertex $-1 $335 $611 #
ellipse-curve $-1 -37.343898739518224 -5.2883485720073331 4.9828625394855317 -0.55919291073839883 0 0.82903756765294845 0.82903756765294845 0 0.55919291073839883 1 I I #
point $-1 -37.68207205873172 -5.2883485720073331 7.2725167203928009 #
edge $-1 $612 1 $612 0 $338 $-1 forward 7 unknown #
vertex $-1 $339 $613 #
ellipse-curve $-1 -37.343898739518224 -2.2852628525620169 4.9828625394855317 -0.55919291073839883 0 0.82903756765294845 0.82903756765294845 0 0.55919291073839883 1 I I #
point $-1 -37.68207205873172 -2.2852628525620169 7.2725167203928009 #
loop $-1 $-1 $350 $342 #
plane-surface $-1 -43.123874629963069 0 0 1 0 0 0 0 -1 forward_v I I I I #
coedge $-1 $492 $345 $347 $496 reversed $215 $-1 #
coedge $-1 $345 $491 $614 $615 reversed $215 $-1 #
coedge $-1 $353 $348 $345 $494 forward $343 $-1 #
edge $-1 $497 -11.778157668822146 $616 -2.5526276616652979 $493 $617 forward 7 unknown #
coedge $-1 $347 $346 $500 $618 reversed $135 $-1 #
edge $-1 $619 -1.7244626260799089e-014 $497 11.127999944893718 $491 $620 forward 7 unknown #
vertex $-1 $349 $621 #
straight-curve $-1 -33.898344622806221 8.6903364208693556 9.824673149595327 0 1 0 I I #
coedge $-1 $614 $350 $353 $504 reversed $489 $-1 #
coedge $-1 $350 $614 $495 $618 forward $489 $-1 #
vertex $-1 $351 $622 #
straight-curve $-1 -43.123874629963069 13.877072835719176 37.552299365852008 0 0 1 I I #
straight-curve $-1 -43.123874629963055 13.877072835719176 3.6019744697134684 -0.82903756765294845 0 -0.55919291073839883 I I #
edge $-1 $616 -20.884272847758247 $354 -13.877072835719176 $499 $623 forward 7 unknown #
point $-1 -43.123874629963069 13.877072835719176 9.824673149595327 #
point $-1 -33.898344622806221 13.877072835719176 9.824673149595327 #
edge $-1 $624 1 $624 0 $357 $-1 forward 7 unknown #
vertex $-1 $358 $625 #
ellipse-curve $-1 -37.343898739518224 15.879129982016057 4.9828625394855317 -0.55919291073839883 0 0.82903756765294845 0.82903756765294845 0 0.55919291073839883 1 I I #
point $-1 -37.68207205873172 15.879129982016057 7.2725167203928009 #
edge $-1 $626 1 $626 0 $361 $-1 forward 7 unknown #
vertex $-1 $362 $627 #
ellipse-curve $-1 -37.343898739518224 18.882215701461366 4.9828625394855317 -0.55919291073839883 0 0.82903756765294845 0.82903756765294845 0 0.55919291073839883 1 I I #
point $-1 -37.68207205873172 18.882215701461366 7.2725167203928009 #
loop $-1 $-1 $373 $365 #
plane-surface $-1 43.123874629963069 0 0 -1 0 0 0 0 1 forward_v I I I I #
coedge $-1 $518 $368 $370 $522 reversed $237 $-1 #
coedge $-1 $368 $517 $628 $629 reversed $237 $-1 #
coedge $-1 $376 $371 $368 $520 forward $366 $-1 #
edge $-1 $523 23.973154462173159 $630 33.198684469329976 $519 $631 forward 7 unknown #
coedge $-1 $370 $369 $526 $632 reversed $149 $-1 #
edge $-1 $633 -86.247749259926138 $523 -75.11974931503245 $517 $634 forward 7 unknown #
vertex $-1 $372 $635 #
straight-curve $-1 33.898344622806256 -1.8934028561423375 9.8246731495953306 0 -1 0 I I #
coedge $-1 $628 $373 $376 $530 reversed $515 $-1 #
coedge $-1 $373 $628 $521 $632 forward $515 $-1 #
vertex $-1 $374 $636 #
straight-curve $-1 43.123874629963069 -0.28320570626513941 61.666864342498855 0 0 1 I I #
straight-curve $-1 -28.378749632027485 -0.28320570626513941 51.831104423007162 0.82903756765294845 0 -0.55919291073839883 I I #
edge $-1 $630 -7.2904057183042106 $377 -0.28320570626513941 $525 $637 forward 7 unknown #
point $-1 43.123874629963069 -0.28320570626513941 9.824673149595327 #
point $-1 33.898344622806256 -0.28320570626513941 9.824673149595327 #
edge $-1 $638 1 $638 0 $380 $-1 forward 7 unknown #
vertex $-1 $381 $639 #
ellipse-curve $-1 37.343898739518224 -5.2883485720073331 4.9828625394855317 0.55919291073839883 0 0.82903756765294845 0.82903756765294845 0 -0.55919291073839883 1 I I #
point $-1 39.340147194037613 -5.2883485720073331 6.1541308989160033 #
edge $-1 $640 1 $640 0 $384 $-1 forward 7 unknown #
vertex $-1 $385 $641 #
ellipse-curve $-1 37.343898739518224 -2.2852628525620169 4.9828625394855317 0.55919291073839883 0 0.82903756765294845 0.82903756765294845 0 -0.55919291073839883 1 I I #
point $-1 39.340147194037613 -2.2852628525620169 6.1541308989160033 #
plane-surface $-1 0 0 9.824673149595327 0 0 1 1 0 0 forward_v I I I I #
coedge $-1 $552 $551 $544 $642 forward $389 $-1 #
coedge $-1 $544 $391 $393 $548 reversed $259 $-1 #
coedge $-1 $391 $543 $542 $642 reversed $259 $-1 #
coedge $-1 $399 $394 $391 $546 forward $400 $-1 #
edge $-1 $549 23.973154462173159 $643 33.198684469329976 $545 $644 forward 7 unknown #
coedge $-1 $393 $392 $552 $645 reversed $163 $-1 #
edge $-1 $646 -86.247749259926138 $549 -75.11974931503245 $543 $647 forward 7 unknown #
vertex $-1 $395 $648 #
straight-curve $-1 33.898344622806256 8.6903364208693556 9.8246731495953306 0 -1 0 I I #
coedge $-1 $542 $396 $399 $556 reversed $389 $-1 #
coedge $-1 $396 $542 $547 $645 forward $389 $-1 #
vertex $-1 $397 $649 #
straight-curve $-1 43.123874629963069 20.884272847758247 61.666864342498855 0 0 1 I I #
straight-curve $-1 -28.378749632027485 20.884272847758247 51.831104423007162 0.82903756765294845 0 -0.55919291073839883 I I #
edge $-1 $643 13.877072835719176 $401 20.884272847758247 $551 $650 forward 7 unknown #
point $-1 43.123874629963069 20.884272847758247 9.824673149595327 #
point $-1 33.898344622806256 20.884272847758247 9.824673149595327 #
edge $-1 $651 1 $651 0 $404 $-1 forward 7 unknown #
vertex $-1 $405 $652 #
ellipse-curve $-1 37.343898739518224 15.879129982016057 4.9828625394855317 0.55919291073839883 0 0.82903756765294845 0.82903756765294845 0 -0.55919291073839883 1 I I #
point $-1 39.340147194037613 15.879129982016057 6.1541308989160033 #
edge $-1 $653 1 $653 0 $408 $-1 forward 7 unknown #
vertex $-1 $409 $654 #
ellipse-curve $-1 37.343898739518224 18.882215701461366 4.9828625394855317 0.55919291073839883 0 0.82903756765294845 0.82903756765294845 0 -0.55919291073839883 1 I I #
point $-1 39.340147194037613 18.882215701461366 6.1541308989160033 #
plane-surface $-1 43.123874629963069 0 0 -1 0 0 0 0 1 forward_v I I I I #
coedge $-1 $417 $415 $419 $572 reversed $281 $-1 #
edge $-1 $430 -9.824673149595327 $574 9.824673149595327 $429 $655 forward 7 unknown #
vertex $-1 $572 $656 #
straight-curve $-1 -43.123874629963069 -24.508763929683834 0 0 0 -1 I I #
edge $-1 $570 -24.508763929683834 $574 24.508763929683834 $568 $657 forward 7 unknown #
straight-curve $-1 0 -24.508763929683834 -9.824673149595327 -1 0 0 I I #
vertex $-1 $422 $658 #
straight-curve $-1 0 24.508763929683834 -9.824673149595327 1 0 0 I I #
point $-1 43.123874629963069 24.508763929683834 -9.824673149595327 #
point $-1 43.123874629963069 -24.508763929683834 -9.824673149595327 #
straight-curve $-1 -43.123874629963069 0 9.824673149595327 0 -1 0 I I #
point $-1 -43.123874629963069 24.508763929683834 9.824673149595327 #
point $-1 -43.123874629963069 -24.508763929683834 9.824673149595327 #
straight-curve $-1 43.123874629963069 -24.508763929683834 0 0 0 -1 I I #
straight-curve $-1 43.123874629963069 24.508763929683834 0 0 0 -1 I I #
plane-surface $-1 43.123874629963069 0 0 -1 0 0 0 0 1 forward_v I I I I #
coedge $-1 $587 $442 $453 $596 forward $300 $-1 #
coedge $-1 $442 $587 $456 $598 reversed $300 $-1 #
straight-curve $-1 43.123874629963069 -17.826193178362939 -0.47470478774434177 0 0 1 I I #
coedge $-1 $585 $584 $445 $588 forward $300 $-1 #
edge $-1 $591 7.2424539013512454 $589 13.925024652672141 $587 $659 forward 7 unknown #
vertex $-1 $447 $660 #
straight-curve $-1 0 -24.508763929683834 -2.449409575488684 1 0 0 I I #
vertex $-1 $588 $661 #
straight-curve $-1 0 -17.826193178362939 -2.449409575488684 1 0 0 I I #
point $-1 43.123874629963069 -24.508763929683834 -2.449409575488684 #
point $-1 43.123874629963069 -17.826193178362939 -2.449409575488684 #
straight-curve $-1 -43.123874629963069 -10.583739277011693 0.5505904245113169 0 1 0 I I #
edge $-1 $454 -1.0252952122556587 $591 1.9747047877443422 $584 $662 forward 7 unknown #
point $-1 -43.123874629963069 -17.826193178362939 0.5505904245113169 #
edge $-1 $458 -0.5505904245113169 $589 2.449409575488684 $585 $663 forward 7 unknown #
point $-1 -43.123874629963069 -24.508763929683834 0.5505904245113169 #
straight-curve $-1 43.123874629963069 -24.508763929683834 0 0 0 -1 I I #
edge $-1 $602 27.727626216256681 $605 33.950324896138547 $464 $664 forward 7 unknown #
vertex $-1 $478 $665 #
straight-curve $-1 -45.676502291628367 -0.28320570626513941 9.824673149595327 -1 0 0 I I #
edge $-1 $605 -1.6101971498771981 $475 5.3970028621618731 $474 $666 forward 7 unknown #
vertex $-1 $604 $667 #
straight-curve $-1 -43.123874629963055 -0.28320570626513941 3.6019744697134684 0.82903756765294845 0 0.55919291073839883 I I #
point $-1 -33.898344622806221 -0.28320570626513941 9.824673149595327 #
point $-1 -43.123874629963069 -7.2904057183042106 3.6019744697134586 #
straight-curve $-1 -43.123874629963069 0 9.824673149595327 0 -1 0 I I #
vertex $-1 $481 $668 #
point $-1 -36.51486117186527 -5.2883485720073331 5.5420554502239305 #
vertex $-1 $485 $669 #
point $-1 -36.51486117186527 -2.2852628525620169 5.5420554502239305 #
coedge $-1 $500 $499 $492 $615 forward $489 $-1 #
edge $-1 $616 27.727626216256681 $619 33.950324896138547 $614 $670 forward 7 unknown #
vertex $-1 $504 $671 #
straight-curve $-1 -45.676502291628367 20.884272847758247 9.824673149595327 -1 0 0 I I #
edge $-1 $619 -12.193936426888891 $501 -5.1867364148498201 $500 $672 forward 7 unknown #
vertex $-1 $618 $673 #
straight-curve $-1 -43.123874629963055 20.884272847758247 3.6019744697134684 0.82903756765294845 0 0.55919291073839883 I I #
point $-1 -33.898344622806221 20.884272847758247 9.824673149595327 #
point $-1 -43.123874629963069 13.877072835719176 3.6019744697134586 #
straight-curve $-1 -43.123874629963069 0 9.824673149595327 0 -1 0 I I #
vertex $-1 $507 $674 #
point $-1 -36.51486117186527 15.879129982016057 5.5420554502239305 #
vertex $-1 $511 $675 #
point $-1 -36.51486117186527 18.882215701461366 5.5420554502239305 #
coedge $-1 $526 $525 $518 $629 forward $515 $-1 #
edge $-1 $630 51.842191192903528 $633 58.064889872785372 $628 $676 forward 7 unknown #
vertex $-1 $530 $677 #
straight-curve $-1 9.9251901606330968 -7.2904057183042106 9.824673149595327 1 0 0 I I #
edge $-1 $633 -5.3970028621618731 $527 1.6101971498771981 $526 $678 forward 7 unknown #
vertex $-1 $632 $679 #
straight-curve $-1 -28.378749632027485 -7.2904057183042106 51.831104423007162 -0.82903756765294845 0 0.55919291073839883 I I #
point $-1 33.898344622806256 -7.2904057183042106 9.824673149595327 #
point $-1 43.123874629963062 -0.28320570626513941 3.6019744697134826 #
straight-curve $-1 43.123874629963069 0 9.824673149595327 0 1 0 I I #
vertex $-1 $533 $680 #
point $-1 38.17293630717117 -5.2883485720073331 4.4236696287471329 #
vertex $-1 $537 $681 #
point $-1 38.17293630717117 -2.2852628525620169 4.4236696287471329 #
edge $-1 $643 51.842191192903528 $646 58.064889872785372 $542 $682 forward 7 unknown #
vertex $-1 $556 $683 #
straight-curve $-1 9.9251901606330968 13.877072835719176 9.824673149595327 1 0 0 I I #
edge $-1 $646 5.1867364148498201 $553 12.193936426888891 $552 $684 forward 7 unknown #
vertex $-1 $645 $685 #
straight-curve $-1 -28.378749632027485 13.877072835719176 51.831104423007162 -0.82903756765294845 0 0.55919291073839883 I I #
point $-1 33.898344622806256 13.877072835719176 9.824673149595327 #
point $-1 43.123874629963062 20.884272847758247 3.6019744697134826 #
straight-curve $-1 43.123874629963069 0 9.824673149595327 0 1 0 I I #
vertex $-1 $559 $686 #
point $-1 38.17293630717117 15.879129982016057 4.4236696287471329 #
vertex $-1 $563 $687 #
point $-1 38.17293630717117 18.882215701461366 4.4236696287471329 #
straight-curve $-1 -43.123874629963069 24.508763929683834 0 0 0 -1 I I #
point $-1 -43.123874629963069 -24.508763929683834 -9.824673149595327 #
straight-curve $-1 -43.123874629963069 0 -9.824673149595327 0 1 0 I I #
point $-1 -43.123874629963069 24.508763929683834 -9.824673149595327 #
straight-curve $-1 -43.123874629963069 -10.583739277011693 -2.449409575488684 0 -1 0 I I #
point $-1 -43.123874629963069 -24.508763929683834 -2.449409575488684 #
point $-1 -43.123874629963069 -17.826193178362939 -2.449409575488684 #
straight-curve $-1 -43.123874629963069 -17.826193178362939 -0.47470478774434177 0 0 -1 I I #
straight-curve $-1 -43.123874629963069 -24.508763929683834 0 0 0 -1 I I #
straight-curve $-1 -43.123874629963069 -0.28320570626513941 37.552299365852008 0 0 -1 I I #
point $-1 -43.123874629963069 -0.28320570626513941 9.824673149595327 #
straight-curve $-1 -43.123874629963069 -1.8934028561423375 3.6019744697134572 0 -1 0 I I #
point $-1 -43.123874629963069 -0.28320570626513941 3.6019744697134586 #
point $-1 -36.784705828779821 -5.2883485720073331 4.1538249718325835 #
point $-1 -36.784705828779821 -2.2852628525620169 4.1538249718325835 #
straight-curve $-1 -43.123874629963069 20.884272847758247 37.552299365852008 0 0 -1 I I #
point $-1 -43.123874629963069 20.884272847758247 9.824673149595327 #
straight-curve $-1 -43.123874629963069 8.6903364208693556 3.6019744697134572 0 -1 0 I I #
point $-1 -43.123874629963069 20.884272847758247 3.6019744697134586 #
point $-1 -36.784705828779821 15.879129982016057 4.1538249718325835 #
point $-1 -36.784705828779821 18.882215701461366 4.1538249718325835 #
straight-curve $-1 43.123874629963069 -7.2904057183042106 61.666864342498855 0 0 -1 I I #
point $-1 43.123874629963069 -7.2904057183042106 9.824673149595327 #
straight-curve $-1 43.123874629963083 -1.8934028561423375 3.6019744697134755 0 1 0 I I #
point $-1 43.123874629963062 -7.2904057183042106 3.6019744697134826 #
point $-1 36.784705828779821 -5.2883485720073331 4.1538249718325835 #
point $-1 36.784705828779821 -2.2852628525620169 4.1538249718325835 #
straight-curve $-1 43.123874629963069 13.877072835719176 61.666864342498855 0 0 -1 I I #
point $-1 43.123874629963069 13.877072835719176 9.824673149595327 #
straight-curve $-1 43.123874629963083 8.6903364208693556 3.6019744697134755 0 1 0 I I #
point $-1 43.123874629963062 13.877072835719176 3.6019744697134826 #
point $-1 36.784705828779821 15.879129982016057 4.1538249718325835 #
point $-1 36.784705828779821 18.882215701461366 4.1538249718325835 #
End-of-ACIS-data 