500 0 6 0           
7 Unknown 11 ACIS 5.0 NT 24 Fri Mar 26 00:26:22 1999 
-1 9.9999999999999995e-007 1e-010 
body $-1 $6 $-1 $7 #
body $-1 $8 $-1 $9 #
body $-1 $10 $-1 $11 #
body $-1 $12 $-1 $13 #
body $-1 $14 $-1 $15 #
body $-1 $16 $-1 $17 #
lump $-1 $-1 $18 $0 #
transform $-1 1 0 0 0 1 0 0 0 1 66.779381694998023 27.834898442094591 7.6174535755470645 1 rotate no_reflect no_shear #
lump $-1 $-1 $19 $1 #
transform $-1 1 0 0 0 1 0 0 0 1 66.779381694998023 27.834898442094591 7.6174535755470645 1 rotate no_reflect no_shear #
lump $-1 $-1 $20 $2 #
transform $-1 1 0 0 0 1 0 0 0 1 66.779381694998023 27.834898442094591 7.6174535755470645 1 rotate no_reflect no_shear #
lump $-1 $-1 $21 $3 #
transform $-1 1 0 0 0 1 0 0 0 1 66.779381694998023 27.834898442094591 7.6174535755470645 1 rotate no_reflect no_shear #
lump $-1 $-1 $22 $4 #
transform $-1 1 0 0 0 1 0 0 0 1 66.779381694998023 27.834898442094591 7.6174535755470645 1 rotate no_reflect no_shear #
lump $-1 $-1 $23 $5 #
transform $-1 1 0 0 0 1 0 0 0 1 66.779381694998023 27.834898442094591 7.6174535755470645 1 rotate no_reflect no_shear #
shell $-1 $-1 $-1 $24 $-1 $6 #
shell $-1 $-1 $-1 $25 $-1 $8 #
shell $-1 $-1 $-1 $26 $-1 $10 #
shell $-1 $-1 $-1 $27 $-1 $12 #
shell $-1 $-1 $-1 $28 $-1 $14 #
shell $-1 $-1 $-1 $29 $-1 $16 #
face $-1 $30 $31 $18 $-1 $32 forward single #
face $-1 $33 $34 $19 $-1 $35 reversed single #
face $-1 $36 $37 $20 $-1 $38 reversed single #
face $-1 $39 $40 $21 $-1 $41 reversed single #
face $-1 $42 $43 $22 $-1 $44 forward single #
face $-1 $45 $46 $23 $-1 $47 forward single #
face $-1 $48 $49 $18 $-1 $50 reversed single #
loop $-1 $-1 $51 $24 #
plane-surface $-1 0 0 7.6174535755470645 0 0 1 1 0 0 forward_v I I I I #
face $-1 $52 $53 $19 $-1 $54 reversed single #
loop $-1 $-1 $55 $25 #
plane-surface $-1 0 -23.856703246853108 4.6174535755470645 0 0 1 1 0 0 forward_v I I I I #
face $-1 $56 $57 $20 $-1 $58 reversed single #
loop $-1 $-1 $59 $26 #
plane-surface $-1 0 23.856703246853108 4.6174535755470645 0 0 1 1 0 0 forward_v I I I I #
face $-1 $60 $61 $21 $-1 $62 reversed single #
loop $-1 $-1 $63 $27 #
plane-surface $-1 89.798140686895749 -9.0920728902536396 187.59969373089757 0 -1 0 -0.78801076186113728 0 -0.61566146476048833 forward_v I I I I #
face $-1 $64 $65 $22 $-1 $66 forward single #
loop $-1 $67 $68 $28 #
cone-surface $-1 63.008600988058035 -16.796669434080776 3.2122770454606888 -0.78801076186113728 0 -0.61566146476048833 0.9234921971407325 0 -1.182016142791706 1 I I 0 1 1.5 forward I I I I #
face $-1 $69 $70 $23 $-1 $71 forward single #
loop $-1 $72 $73 $29 #
cone-surface $-1 63.008600988058035 -12.173911507784496 3.2122770454606888 -0.78801076186113728 0 -0.61566146476048833 0.9234921971407325 0 -1.182016142791706 1 I I 0 1 1.5 forward I I I I #
face $-1 $74 $75 $18 $-1 $76 reversed single #
loop $-1 $-1 $77 $30 #
plane-surface $-1 0 0 -7.6174535755470645 0 0 1 1 0 0 forward_v I I I I #
coedge $-1 $78 $79 $80 $81 forward $31 $-1 #
face $-1 $82 $83 $19 $-1 $84 reversed single #
loop $-1 $-1 $85 $33 #
plane-surface $-1 0 -19.878508051611625 6.1174535755470645 0 -1 0 0 0 -1 forward_v I I I I #
coedge $-1 $86 $87 $88 $89 reversed $34 $-1 #
face $-1 $90 $91 $20 $-1 $92 forward single #
loop $-1 $-1 $93 $36 #
plane-surface $-1 0 19.878508051611625 6.1174535755470645 0 1 0 0 0 1 forward_v I I I I #
coedge $-1 $94 $95 $96 $97 reversed $37 $-1 #
face $-1 $98 $99 $21 $-1 $100 forward single #
loop $-1 $-1 $101 $39 #
plane-surface $-1 -15.447602205286401 -14.485290470932632 105.37270983061312 0.78801076186113728 0 0.61566146476048833 0.61566146476048833 0 -0.78801076186113728 forward_v I I I I #
coedge $-1 $102 $103 $104 $105 reversed $40 $-1 #
face $-1 $-1 $106 $22 $-1 $107 forward single #
loop $-1 $108 $109 $42 #
cone-surface $-1 61.572916901416988 -16.796669434080776 2.0905977353619916 -0.78801076186113728 0 -0.61566146476048833 0.46174609857036625 0 -0.59100807139585299 1 I I -0.70710678118654757 0.70710678118654757 0.75 forward I I I I #
loop $-1 $-1 $110 $28 #
coedge $-1 $68 $68 $111 $112 reversed $43 $-1 #
face $-1 $-1 $113 $23 $-1 $114 forward single #
loop $-1 $115 $116 $45 #
cone-surface $-1 61.572916901416988 -12.173911507784496 2.0905977353619916 -0.78801076186113728 0 -0.61566146476048833 0.46174609857036625 0 -0.59100807139585299 1 I I -0.70710678118654757 0.70710678118654757 0.75 forward I I I I #
loop $-1 $-1 $117 $29 #
coedge $-1 $73 $73 $118 $119 reversed $46 $-1 #
face $-1 $120 $121 $18 $-1 $122 reversed single #
loop $-1 $-1 $123 $48 #
plane-surface $-1 0 -27.834898442094591 0 0 1 0 0 0 1 forward_v I I I I #
coedge $-1 $124 $125 $126 $127 forward $49 $-1 #
coedge $-1 $128 $51 $129 $130 forward $31 $-1 #
coedge $-1 $51 $128 $131 $132 forward $31 $-1 #
coedge $-1 $133 $134 $51 $81 reversed $135 $-1 #
edge $-1 $136 -27.834898442094591 $137 27.834898442094591 $80 $138 forward 7 unknown #
face $-1 $139 $140 $19 $-1 $141 reversed single #
loop $-1 $-1 $142 $52 #
plane-surface $-1 -66.779381694998023 0 0 1 0 0 0 0 -1 forward_v I I I I #
coedge $-1 $143 $144 $87 $145 reversed $53 $-1 #
coedge $-1 $146 $55 $147 $148 reversed $34 $-1 #
coedge $-1 $55 $146 $85 $145 forward $34 $-1 #
coedge $-1 $149 $150 $55 $89 forward $151 $-1 #
edge $-1 $152 -15.906546818668037 $153 -7.9501564281850712 $88 $154 forward 7 unknown #
face $-1 $155 $156 $20 $-1 $157 reversed single #
loop $-1 $-1 $158 $56 #
plane-surface $-1 0 0 7.6174535755470645 0 0 1 1 0 0 forward_v I I I I #
coedge $-1 $159 $160 $161 $162 reversed $57 $-1 #
coedge $-1 $163 $59 $159 $164 forward $37 $-1 #
coedge $-1 $59 $163 $165 $166 reversed $37 $-1 #
coedge $-1 $167 $168 $59 $97 forward $156 $-1 #
edge $-1 $169 7.9501564281850712 $170 15.906546818668037 $96 $171 forward 7 unknown #
face $-1 $172 $173 $21 $-1 $174 forward single #
loop $-1 $-1 $104 $60 #
plane-surface $-1 0 0 7.6174535755470645 0 0 1 1 0 0 forward_v I I I I #
coedge $-1 $175 $176 $177 $178 reversed $61 $-1 #
coedge $-1 $103 $63 $179 $180 reversed $40 $-1 #
coedge $-1 $63 $102 $175 $181 reversed $40 $-1 #
coedge $-1 $177 $182 $63 $105 forward $99 $-1 #
edge $-1 $183 -21.880311351550148 $184 -16.028101968160541 $104 $185 forward 7 unknown #
loop $-1 $-1 $111 $64 #
plane-surface $-1 -15.447602205286401 -14.485290470932632 105.37270983061312 0.78801076186113728 0 0.61566146476048833 0.61566146476048833 0 -0.78801076186113728 forward_v I I I I #
loop $-1 $-1 $186 $42 #
coedge $-1 $109 $109 $110 $187 reversed $65 $-1 #
coedge $-1 $110 $110 $109 $187 forward $67 $-1 #
coedge $-1 $111 $111 $68 $112 forward $106 $-1 #
edge $-1 $188 0 $188 6.2831853071796004 $111 $189 forward 7 unknown #
loop $-1 $-1 $118 $69 #
plane-surface $-1 -15.447602205286401 -14.485290470932632 105.37270983061312 0.78801076186113728 0 0.61566146476048833 0.61566146476048833 0 -0.78801076186113728 forward_v I I I I #
loop $-1 $-1 $190 $45 #
coedge $-1 $116 $116 $117 $191 reversed $70 $-1 #
coedge $-1 $117 $117 $116 $191 forward $72 $-1 #
coedge $-1 $118 $118 $73 $119 forward $113 $-1 #
edge $-1 $192 0 $192 6.2831853071796004 $118 $193 forward 7 unknown #
face $-1 $194 $195 $18 $-1 $196 reversed single #
loop $-1 $-1 $197 $74 #
plane-surface $-1 -66.779381694998023 0 0 1 0 0 0 0 -1 forward_v I I I I #
coedge $-1 $198 $131 $199 $200 forward $75 $-1 #
coedge $-1 $201 $77 $198 $202 forward $49 $-1 #
coedge $-1 $77 $201 $203 $204 forward $49 $-1 #
coedge $-1 $134 $133 $77 $127 reversed $135 $-1 #
edge $-1 $205 -27.834898442094591 $206 27.834898442094591 $126 $207 forward 7 unknown #
coedge $-1 $79 $78 $208 $209 forward $31 $-1 #
coedge $-1 $210 $211 $78 $130 reversed $195 $-1 #
edge $-1 $137 -66.779381694998023 $212 66.779381694998023 $129 $213 forward 7 unknown #
coedge $-1 $123 $214 $79 $132 reversed $75 $-1 #
edge $-1 $215 -66.779381694998023 $136 66.779381694998023 $131 $216 forward 7 unknown #
coedge $-1 $126 $80 $214 $217 forward $135 $-1 #
coedge $-1 $80 $126 $210 $218 reversed $135 $-1 #
loop $-1 $-1 $133 $194 #
vertex $-1 $81 $219 #
vertex $-1 $81 $220 #
straight-curve $-1 66.779381694998023 0 7.6174535755470645 0 1 0 I I #
face $-1 $221 $222 $19 $-1 $223 forward single #
loop $-1 $-1 $147 $82 #
plane-surface $-1 0 -27.834898442094591 0 0 1 0 0 0 1 forward_v I I I I #
coedge $-1 $224 $225 $143 $226 forward $83 $-1 #
coedge $-1 $227 $85 $142 $226 reversed $53 $-1 #
coedge $-1 $85 $227 $149 $228 reversed $53 $-1 #
edge $-1 $229 -66.779381694998023 $153 66.779381694998023 $85 $230 forward 7 unknown #
coedge $-1 $87 $86 $224 $231 reversed $34 $-1 #
coedge $-1 $232 $233 $86 $148 forward $140 $-1 #
edge $-1 $234 -66.779381694998023 $152 66.779381694998023 $147 $235 forward 7 unknown #
coedge $-1 $236 $88 $144 $228 forward $151 $-1 #
coedge $-1 $88 $236 $232 $237 forward $151 $-1 #
loop $-1 $-1 $149 $221 #
vertex $-1 $148 $238 #
vertex $-1 $89 $239 #
straight-curve $-1 66.779381694998023 -11.928351623426554 4.6174535755470645 0 1 0 I I #
face $-1 $240 $241 $20 $-1 $242 reversed single #
loop $-1 $-1 $168 $90 #
plane-surface $-1 66.779381694998023 0 0 -1 0 0 0 0 1 forward_v I I I I #
coedge $-1 $243 $244 $160 $245 forward $91 $-1 #
coedge $-1 $246 $93 $94 $164 reversed $57 $-1 #
coedge $-1 $93 $246 $158 $245 reversed $57 $-1 #
coedge $-1 $247 $248 $93 $162 forward $241 $-1 #
edge $-1 $249 1.5587267877735322 $250 4.5587267877735318 $161 $251 forward 7 unknown #
coedge $-1 $95 $94 $248 $252 reversed $37 $-1 #
edge $-1 $169 -66.779381694998023 $249 66.779381694998023 $159 $253 forward 7 unknown #
coedge $-1 $254 $255 $95 $166 forward $256 $-1 #
edge $-1 $170 -66.779381694998023 $257 66.779381694998023 $165 $258 forward 7 unknown #
coedge $-1 $259 $96 $255 $260 reversed $156 $-1 #
coedge $-1 $96 $259 $246 $261 forward $156 $-1 #
vertex $-1 $97 $262 #
vertex $-1 $166 $263 #
straight-curve $-1 66.779381694998023 11.928351623426554 4.6174535755470645 0 1 0 I I #
face $-1 $-1 $264 $21 $-1 $265 reversed single #
loop $-1 $-1 $266 $98 #
plane-surface $-1 0 -19.878508051611625 6.1174535755470645 0 -1 0 0 0 -1 forward_v I I I I #
coedge $-1 $267 $101 $103 $181 forward $61 $-1 #
coedge $-1 $101 $267 $266 $268 forward $61 $-1 #
coedge $-1 $269 $104 $101 $178 forward $99 $-1 #
edge $-1 $184 1.8494276547873234 $270 12.635862816145309 $177 $271 forward 7 unknown #
coedge $-1 $272 $273 $102 $180 forward $264 $-1 #
edge $-1 $274 -93.672879927017803 $183 -86.182393289901725 $179 $275 forward 7 unknown #
edge $-1 $184 124.05319950730879 $274 133.55876338999602 $103 $276 forward 7 unknown #
coedge $-1 $104 $269 $272 $277 forward $99 $-1 #
vertex $-1 $180 $278 #
vertex $-1 $105 $279 #
straight-curve $-1 44.899070343447875 -9.0920728902536396 7.61745357554706 -1 0 0 I I #
coedge $-1 $186 $186 $-1 $280 reversed $108 $-1 #
edge $-1 $281 0 $281 6.2831853071796004 $109 $282 forward 7 unknown #
vertex $-1 $112 $283 #
ellipse-curve $-1 63.853277003303226 -16.796669434080776 3.8722102569890184 0.78801076186113728 0 0.61566146476048833 0.9234921971407325 0 -1.182016142791706 1 I I #
coedge $-1 $190 $190 $-1 $284 reversed $115 $-1 #
edge $-1 $285 0 $285 6.2831853071796004 $116 $286 forward 7 unknown #
vertex $-1 $119 $287 #
ellipse-curve $-1 63.853277003303226 -12.173911507784496 3.8722102569890184 0.78801076186113728 0 0.61566146476048833 0.9234921971407325 0 -1.182016142791706 1 I I #
face $-1 $-1 $135 $18 $-1 $288 reversed single #
loop $-1 $-1 $210 $120 #
plane-surface $-1 0 27.834898442094591 0 0 -1 0 0 0 -1 forward_v I I I I #
coedge $-1 $289 $208 $211 $290 forward $121 $-1 #
coedge $-1 $214 $123 $124 $202 reversed $75 $-1 #
coedge $-1 $208 $289 $123 $200 reversed $121 $-1 #
edge $-1 $215 -7.6174535755470645 $291 7.6174535755470645 $199 $292 forward 7 unknown #
coedge $-1 $125 $124 $289 $293 forward $49 $-1 #
edge $-1 $206 -66.779381694998023 $291 66.779381694998023 $198 $294 forward 7 unknown #
coedge $-1 $211 $210 $125 $204 reversed $195 $-1 #
edge $-1 $295 -66.779381694998023 $205 66.779381694998023 $203 $296 forward 7 unknown #
vertex $-1 $127 $297 #
vertex $-1 $217 $298 #
straight-curve $-1 66.779381694998023 0 -7.6174535755470645 0 -1 0 I I #
coedge $-1 $197 $199 $128 $209 reversed $121 $-1 #
edge $-1 $212 -27.834898442094591 $215 27.834898442094591 $208 $299 forward 7 unknown #
coedge $-1 $203 $129 $134 $218 forward $195 $-1 #
coedge $-1 $129 $203 $197 $290 reversed $195 $-1 #
vertex $-1 $130 $300 #
straight-curve $-1 0 27.834898442094591 7.6174535755470645 -1 0 0 I I #
coedge $-1 $131 $198 $133 $217 reversed $75 $-1 #
vertex $-1 $209 $301 #
straight-curve $-1 0 -27.834898442094591 7.6174535755470645 1 0 0 I I #
edge $-1 $136 -7.6174535755470645 $206 7.6174535755470645 $133 $302 forward 7 unknown #
edge $-1 $137 -7.6174535755470645 $205 7.6174535755470645 $134 $303 forward 7 unknown #
point $-1 66.779381694998023 -27.834898442094591 7.6174535755470645 #
point $-1 66.779381694998023 27.834898442094591 7.6174535755470645 #
face $-1 $-1 $151 $19 $-1 $304 reversed single #
loop $-1 $-1 $305 $139 #
plane-surface $-1 0 0 7.6174535755470645 0 0 1 1 0 0 forward_v I I I I #
coedge $-1 $306 $142 $146 $231 forward $83 $-1 #
coedge $-1 $142 $306 $307 $308 reversed $83 $-1 #
edge $-1 $309 -4.5587267877735318 $229 -1.5587267877735322 $142 $310 forward 7 unknown #
coedge $-1 $144 $143 $305 $311 reversed $53 $-1 #
edge $-1 $153 1.5587267877735322 $312 4.5587267877735318 $149 $313 forward 7 unknown #
vertex $-1 $231 $314 #
straight-curve $-1 0 -19.878508051611625 4.6174535755470645 1 0 0 I I #
edge $-1 $229 7.9501564281850712 $234 15.906546818668037 $224 $315 forward 7 unknown #
coedge $-1 $316 $147 $150 $237 reversed $140 $-1 #
coedge $-1 $147 $316 $306 $317 forward $140 $-1 #
vertex $-1 $148 $318 #
straight-curve $-1 0 -27.834898442094591 4.6174535755470645 1 0 0 I I #
coedge $-1 $150 $149 $319 $320 reversed $151 $-1 #
edge $-1 $321 -7.6174535755470645 $152 -4.6174535755470645 $150 $322 forward 7 unknown #
point $-1 66.779381694998023 -27.834898442094591 4.6174535755470645 #
point $-1 66.779381694998023 -19.878508051611625 4.6174535755470645 #
face $-1 $-1 $256 $20 $-1 $323 reversed single #
loop $-1 $-1 $161 $155 #
plane-surface $-1 -66.779381694998023 0 0 1 0 0 0 0 -1 forward_v I I I I #
coedge $-1 $324 $158 $259 $325 forward $91 $-1 #
coedge $-1 $158 $324 $247 $326 forward $91 $-1 #
edge $-1 $250 -66.779381694998023 $327 66.779381694998023 $158 $328 forward 7 unknown #
coedge $-1 $160 $159 $168 $261 reversed $57 $-1 #
coedge $-1 $329 $161 $244 $326 reversed $241 $-1 #
coedge $-1 $161 $329 $163 $252 forward $241 $-1 #
vertex $-1 $252 $330 #
vertex $-1 $162 $331 #
straight-curve $-1 -66.779381694998023 19.878508051611625 3.0587267877735322 0 0 1 I I #
edge $-1 $257 -15.906546818668037 $249 -7.9501564281850712 $248 $332 forward 7 unknown #
straight-curve $-1 0 19.878508051611625 4.6174535755470645 -1 0 0 I I #
coedge $-1 $333 $165 $329 $334 reversed $256 $-1 #
coedge $-1 $165 $333 $167 $260 forward $256 $-1 #
loop $-1 $-1 $165 $240 #
vertex $-1 $166 $335 #
straight-curve $-1 0 27.834898442094591 4.6174535755470645 -1 0 0 I I #
coedge $-1 $168 $167 $243 $325 reversed $156 $-1 #
edge $-1 $336 -7.6174535755470645 $170 -4.6174535755470645 $167 $337 forward 7 unknown #
edge $-1 $327 -4.5587267877735318 $169 -1.5587267877735322 $168 $338 forward 7 unknown #
point $-1 66.779381694998023 19.878508051611625 4.6174535755470645 #
point $-1 66.779381694998023 27.834898442094591 4.6174535755470645 #
loop $-1 $-1 $179 $172 #
plane-surface $-1 66.779381694998023 0 0 -1 0 0 0 0 1 forward_v I I I I #
coedge $-1 $339 $340 $176 $268 reversed $173 $-1 #
coedge $-1 $176 $175 $273 $341 reversed $61 $-1 #
edge $-1 $342 -133.55876338999602 $270 -124.05319950730879 $266 $343 forward 7 unknown #
coedge $-1 $182 $177 $340 $344 forward $99 $-1 #
vertex $-1 $344 $345 #
straight-curve $-1 60.927172311608416 -7.2426452354663162 7.61745357554706 0 -1 0 I I #
coedge $-1 $346 $179 $182 $277 reversed $264 $-1 #
coedge $-1 $179 $346 $267 $341 forward $264 $-1 #
vertex $-1 $180 $347 #
straight-curve $-1 66.779381694998023 -9.0920728902536396 93.799846865448785 0 0 1 I I #
straight-curve $-1 -15.447602205286401 -9.0920728902536396 105.37270983061312 0.61566146476048833 0 -0.78801076186113728 I I #
edge $-1 $348 -19.878508051611625 $183 -9.0920728902536396 $272 $349 forward 7 unknown #
point $-1 66.779381694998023 -9.0920728902536396 7.6174535755470645 #
point $-1 60.927172311608416 -9.0920728902536396 7.61745357554706 #
edge $-1 $350 1 $350 0 $186 $-1 forward 7 unknown #
vertex $-1 $187 $351 #
ellipse-curve $-1 62.163924972812843 -16.796669434080776 2.5523438339323579 0.78801076186113728 0 0.61566146476048833 0.9234921971407325 0 -1.182016142791706 1 I I #
point $-1 64.776769200443951 -16.796669434080776 2.6901941141973138 #
edge $-1 $352 1 $352 0 $190 $-1 forward 7 unknown #
vertex $-1 $191 $353 #
ellipse-curve $-1 62.163924972812843 -12.173911507784496 2.5523438339323579 0.78801076186113728 0 0.61566146476048833 0.9234921971407325 0 -1.182016142791706 1 I I #
point $-1 64.776769200443951 -12.173911507784496 2.6901941141973138 #
plane-surface $-1 66.779381694998023 0 0 -1 0 0 0 0 1 forward_v I I I I #
coedge $-1 $199 $197 $201 $293 reversed $121 $-1 #
edge $-1 $212 -7.6174535755470645 $295 7.6174535755470645 $211 $354 forward 7 unknown #
vertex $-1 $293 $355 #
straight-curve $-1 -66.779381694998023 -27.834898442094591 0 0 0 -1 I I #
edge $-1 $291 -27.834898442094591 $295 27.834898442094591 $289 $356 forward 7 unknown #
straight-curve $-1 0 -27.834898442094591 -7.6174535755470645 -1 0 0 I I #
vertex $-1 $204 $357 #
straight-curve $-1 0 27.834898442094591 -7.6174535755470645 1 0 0 I I #
point $-1 66.779381694998023 27.834898442094591 -7.6174535755470645 #
point $-1 66.779381694998023 -27.834898442094591 -7.6174535755470645 #
straight-curve $-1 -66.779381694998023 0 7.6174535755470645 0 -1 0 I I #
point $-1 -66.779381694998023 27.834898442094591 7.6174535755470645 #
point $-1 -66.779381694998023 -27.834898442094591 7.6174535755470645 #
straight-curve $-1 66.779381694998023 -27.834898442094591 0 0 0 -1 I I #
straight-curve $-1 66.779381694998023 27.834898442094591 0 0 0 -1 I I #
plane-surface $-1 66.779381694998023 0 0 -1 0 0 0 0 1 forward_v I I I I #
coedge $-1 $307 $319 $227 $311 forward $222 $-1 #
coedge $-1 $225 $224 $233 $317 reversed $83 $-1 #
coedge $-1 $358 $305 $225 $308 forward $222 $-1 #
edge $-1 $309 19.878508051611625 $359 27.834898442094591 $225 $360 forward 7 unknown #
vertex $-1 $308 $361 #
straight-curve $-1 -66.779381694998023 -19.878508051611625 3.0587267877735322 0 0 -1 I I #
edge $-1 $312 -66.779381694998023 $309 66.779381694998023 $305 $362 forward 7 unknown #
vertex $-1 $228 $363 #
straight-curve $-1 66.779381694998023 -19.878508051611625 3.0587267877735322 0 0 1 I I #
point $-1 -66.779381694998023 -19.878508051611625 4.6174535755470645 #
straight-curve $-1 -66.779381694998023 -11.928351623426554 4.6174535755470645 0 -1 0 I I #
coedge $-1 $233 $232 $358 $364 reversed $140 $-1 #
edge $-1 $359 -7.6174535755470645 $234 -4.6174535755470645 $306 $365 forward 7 unknown #
point $-1 -66.779381694998023 -27.834898442094591 4.6174535755470645 #
coedge $-1 $305 $358 $236 $320 forward $222 $-1 #
edge $-1 $321 -27.834898442094591 $312 -19.878508051611625 $236 $366 forward 7 unknown #
vertex $-1 $320 $367 #
straight-curve $-1 66.779381694998023 -27.834898442094591 0 0 0 -1 I I #
plane-surface $-1 0 27.834898442094591 0 0 -1 0 0 0 -1 forward_v I I I I #
coedge $-1 $244 $243 $333 $368 forward $91 $-1 #
edge $-1 $327 19.878508051611625 $336 27.834898442094591 $259 $369 forward 7 unknown #
edge $-1 $370 -27.834898442094591 $250 -19.878508051611625 $247 $371 forward 7 unknown #
vertex $-1 $325 $372 #
straight-curve $-1 0 19.878508051611625 7.6174535755470645 1 0 0 I I #
coedge $-1 $248 $247 $254 $334 forward $241 $-1 #
point $-1 -66.779381694998023 19.878508051611625 4.6174535755470645 #
point $-1 -66.779381694998023 19.878508051611625 7.6174535755470645 #
straight-curve $-1 -66.779381694998023 11.928351623426554 4.6174535755470645 0 -1 0 I I #
coedge $-1 $255 $254 $324 $368 reversed $256 $-1 #
edge $-1 $370 -7.6174535755470645 $257 -4.6174535755470645 $254 $373 forward 7 unknown #
point $-1 -66.779381694998023 27.834898442094591 4.6174535755470645 #
vertex $-1 $325 $374 #
straight-curve $-1 66.779381694998023 27.834898442094591 0 0 0 -1 I I #
straight-curve $-1 66.779381694998023 19.878508051611625 3.0587267877735322 0 0 -1 I I #
coedge $-1 $340 $266 $346 $375 reversed $173 $-1 #
coedge $-1 $266 $339 $269 $344 reversed $173 $-1 #
edge $-1 $342 -12.635862816145309 $274 -1.8494276547873234 $273 $376 forward 7 unknown #
vertex $-1 $375 $377 #
straight-curve $-1 -15.447602205286401 -19.878508051611625 105.37270983061312 -0.61566146476048833 0 0.78801076186113728 I I #
edge $-1 $270 60.927172311608416 $348 66.779381694998023 $269 $378 forward 7 unknown #
point $-1 60.927172311608416 -19.878508051611625 7.61745357554706 #
coedge $-1 $273 $272 $339 $375 forward $264 $-1 #
point $-1 66.779381694998037 -9.0920728902536396 0.12696693843098217 #
vertex $-1 $277 $379 #
straight-curve $-1 66.779381694998023 0 7.6174535755470645 0 1 0 I I #
vertex $-1 $280 $380 #
point $-1 63.087417169953575 -16.796669434080776 1.3703276911406519 #
vertex $-1 $284 $381 #
point $-1 63.087417169953575 -12.173911507784496 1.3703276911406519 #
straight-curve $-1 -66.779381694998023 27.834898442094591 0 0 0 -1 I I #
point $-1 -66.779381694998023 -27.834898442094591 -7.6174535755470645 #
straight-curve $-1 -66.779381694998023 0 -7.6174535755470645 0 1 0 I I #
point $-1 -66.779381694998023 27.834898442094591 -7.6174535755470645 #
coedge $-1 $319 $307 $316 $364 forward $222 $-1 #
vertex $-1 $308 $382 #
straight-curve $-1 -66.779381694998023 0 7.6174535755470645 0 -1 0 I I #
point $-1 -66.779381694998023 -19.878508051611625 7.6174535755470645 #
straight-curve $-1 0 -19.878508051611625 7.6174535755470645 -1 0 0 I I #
point $-1 66.779381694998023 -19.878508051611625 7.6174535755470645 #
edge $-1 $359 -66.779381694998023 $321 66.779381694998023 $316 $383 forward 7 unknown #
straight-curve $-1 -66.779381694998023 -27.834898442094591 0 0 0 -1 I I #
straight-curve $-1 66.779381694998023 0 7.6174535755470645 0 1 0 I I #
point $-1 66.779381694998023 -27.834898442094591 7.6174535755470645 #
edge $-1 $336 -66.779381694998023 $370 66.779381694998023 $333 $384 forward 7 unknown #
straight-curve $-1 66.779381694998023 0 7.6174535755470645 0 1 0 I I #
vertex $-1 $368 $385 #
straight-curve $-1 -66.779381694998023 0 7.6174535755470645 0 -1 0 I I #
point $-1 66.779381694998023 19.878508051611625 7.6174535755470645 #
straight-curve $-1 -66.779381694998023 27.834898442094591 0 0 0 -1 I I #
point $-1 66.779381694998023 27.834898442094591 7.6174535755470645 #
edge $-1 $348 86.182393289901725 $342 93.672879927017803 $346 $386 forward 7 unknown #
straight-curve $-1 66.779381694998023 -7.2426452354663162 0.12696693843099638 0 1 0 I I #
point $-1 66.779381694998037 -19.878508051611625 0.12696693843098217 #
straight-curve $-1 0 -19.878508051611625 7.6174535755470645 1 0 0 I I #
point $-1 66.779381694998023 -19.878508051611625 7.6174535755470645 #
point $-1 60.981908830021133 -16.796669434080776 1.6288516367916253 #
point $-1 60.981908830021133 -12.173911507784496 1.6288516367916253 #
point $-1 -66.779381694998023 -27.834898442094591 7.6174535755470645 #
straight-curve $-1 0 -27.834898442094591 7.6174535755470645 1 0 0 I I #
straight-curve $-1 0 27.834898442094591 7.6174535755470645 -1 0 0 I I #
point $-1 -66.779381694998023 27.834898442094591 7.6174535755470645 #
straight-curve $-1 66.779381694998023 -19.878508051611625 93.799846865448785 0 0 -1 I I #
End-of-ACIS-data 