500 0 5 0           
7 Unknown 11 ACIS 5.0 NT 24 Thu Mar 25 23:50:59 1999 
-1 9.9999999999999995e-007 1e-010 
body $-1 $5 $-1 $6 #
body $-1 $7 $-1 $8 #
body $-1 $9 $-1 $10 #
body $-1 $11 $-1 $12 #
body $-1 $13 $-1 $14 #
lump $-1 $-1 $15 $0 #
transform $-1 1 0 0 0 1 0 0 0 1 60.883205664235362 30.389019601419179 11.190804926313808 1 rotate no_reflect no_shear #
lump $-1 $-1 $16 $1 #
transform $-1 1 0 0 0 1 0 0 0 1 60.883205664235362 30.389019601419179 11.190804926313808 1 rotate no_reflect no_shear #
lump $-1 $-1 $17 $2 #
transform $-1 1 0 0 0 1 0 0 0 1 60.883205664235362 30.389019601419179 11.190804926313808 1 rotate no_reflect no_shear #
lump $-1 $-1 $18 $3 #
transform $-1 1 0 0 0 1 0 0 0 1 60.883205664235362 30.389019601419179 11.190804926313808 1 rotate no_reflect no_shear #
lump $-1 $-1 $19 $4 #
transform $-1 1 0 0 0 1 0 0 0 1 60.883205664235362 30.389019601419179 11.190804926313808 1 rotate no_reflect no_shear #
shell $-1 $-1 $-1 $20 $-1 $5 #
shell $-1 $-1 $-1 $21 $-1 $7 #
shell $-1 $-1 $-1 $22 $-1 $9 #
shell $-1 $-1 $-1 $23 $-1 $11 #
shell $-1 $-1 $-1 $24 $-1 $13 #
face $-1 $25 $26 $15 $-1 $27 forward single #
face $-1 $28 $29 $16 $-1 $30 reversed single #
face $-1 $31 $32 $17 $-1 $33 forward single #
face $-1 $34 $35 $18 $-1 $36 reversed single #
face $-1 $37 $38 $19 $-1 $39 reversed single #
face $-1 $40 $41 $15 $-1 $42 reversed single #
loop $-1 $-1 $43 $20 #
plane-surface $-1 0 0 11.190804926313808 0 0 1 1 0 0 forward_v I I I I #
face $-1 $44 $45 $16 $-1 $46 reversed single #
loop $-1 $-1 $47 $21 #
plane-surface $-1 -69.23884046622905 -27.163539119056267 0 1 0 0 0 0 -1 forward_v I I I I #
face $-1 $48 $49 $17 $-1 $50 forward single #
loop $-1 $-1 $51 $22 #
plane-surface $-1 -40.26098762033709 -94.915387552918958 111.27434849209098 -1 0 0 0 -0.52991927123019833 0.84804809178421925 forward_v I I I I #
face $-1 $52 $53 $18 $-1 $54 reversed single #
loop $-1 $55 $56 $23 #
cone-surface $-1 -49.022832793126071 -27.169335299630106 8.5205140747057193 0 0.52991927123019833 -0.84804809178421925 1.5 0 0 1 I I 0 1 1.5 forward I I I I #
face $-1 $57 $58 $19 $-1 $59 reversed single #
loop $-1 $60 $61 $24 #
cone-surface $-1 -43.76572568945268 -27.169335299630106 8.5205140747057193 0 0.52991927123019833 -0.84804809178421925 1.5 0 0 1 I I 0 1 1.5 forward I I I I #
face $-1 $62 $63 $15 $-1 $64 reversed single #
loop $-1 $-1 $65 $25 #
plane-surface $-1 0 0 -11.190804926313808 0 0 1 1 0 0 forward_v I I I I #
coedge $-1 $66 $67 $68 $69 forward $26 $-1 #
face $-1 $70 $71 $16 $-1 $72 forward single #
loop $-1 $-1 $73 $28 #
plane-surface $-1 -65.061023065232206 -23.938058636693356 0 0 -1 0 0 0 -1 forward_v I I I I #
coedge $-1 $74 $75 $76 $77 forward $29 $-1 #
face $-1 $78 $79 $17 $-1 $80 forward single #
loop $-1 $-1 $81 $31 #
plane-surface $-1 -46.394279241289375 -30.389019601419179 8.0105757215690403 0 -0.52991927123019833 0.84804809178421925 1 0 0 forward_v I I I I #
coedge $-1 $82 $83 $84 $85 reversed $32 $-1 #
face $-1 $86 $87 $18 $-1 $88 forward single #
loop $-1 $89 $90 $34 #
cone-surface $-1 -49.022832793126071 -26.096926801007605 6.8043017566318564 0 0.52991927123019833 -0.84804809178421925 0.75 0 0 1 I I -0.70710678118654713 0.70710678118654802 0.75 forward I I I I #
loop $-1 $-1 $91 $23 #
coedge $-1 $56 $56 $92 $93 reversed $35 $-1 #
face $-1 $94 $95 $19 $-1 $96 reversed single #
loop $-1 $97 $98 $37 #
cone-surface $-1 -43.76572568945268 -26.096926801007605 6.8043017566318564 0 0.52991927123019833 -0.84804809178421925 0.75 0 0 1 I I -0.70710678118654713 0.70710678118654802 0.75 forward I I I I #
loop $-1 $-1 $99 $24 #
coedge $-1 $61 $61 $100 $101 reversed $38 $-1 #
face $-1 $102 $103 $15 $-1 $104 reversed single #
loop $-1 $-1 $105 $40 #
plane-surface $-1 0 -30.389019601419179 0 0 1 0 0 0 1 forward_v I I I I #
coedge $-1 $106 $107 $108 $109 forward $41 $-1 #
coedge $-1 $110 $43 $111 $112 forward $26 $-1 #
coedge $-1 $43 $110 $113 $114 forward $26 $-1 #
coedge $-1 $115 $116 $43 $69 reversed $117 $-1 #
edge $-1 $118 -30.389019601419179 $119 30.389019601419179 $68 $120 forward 7 unknown #
face $-1 $121 $122 $16 $-1 $123 reversed single #
loop $-1 $-1 $124 $44 #
plane-surface $-1 0 0 11.190804926313808 0 0 1 1 0 0 forward_v I I I I #
coedge $-1 $125 $126 $127 $128 reversed $45 $-1 #
coedge $-1 $129 $47 $130 $131 reversed $29 $-1 #
coedge $-1 $47 $129 $132 $133 reversed $29 $-1 #
coedge $-1 $126 $125 $47 $77 reversed $45 $-1 #
edge $-1 $134 -11.190804926313808 $135 11.190804926313808 $76 $136 forward 7 unknown #
face $-1 $137 $138 $17 $-1 $139 forward single #
loop $-1 $-1 $140 $48 #
plane-surface $-1 -52.52757086224166 -94.915387552918958 111.27434849209098 1 0 0 0 0.52991927123019833 -0.84804809178421925 forward_v I I I I #
coedge $-1 $141 $142 $143 $144 reversed $49 $-1 #
coedge $-1 $83 $51 $142 $145 forward $32 $-1 #
coedge $-1 $51 $82 $146 $147 reversed $32 $-1 #
coedge $-1 $148 $143 $51 $85 forward $138 $-1 #
edge $-1 $149 -22.158104688218724 $150 -17.0686741750403 $84 $151 forward 7 unknown #
face $-1 $152 $153 $18 $-1 $154 forward single #
loop $-1 $-1 $155 $52 #
plane-surface $-1 -40.26098762033709 -94.915387552918958 111.27434849209098 -1 0 0 0 -0.52991927123019833 0.84804809178421925 forward_v I I I I #
loop $-1 $-1 $156 $34 #
coedge $-1 $90 $90 $91 $157 forward $53 $-1 #
coedge $-1 $91 $91 $90 $157 reversed $55 $-1 #
coedge $-1 $92 $92 $56 $93 forward $153 $-1 #
edge $-1 $158 5.0162055410438546e-016 $158 6.2831853071796013 $92 $159 forward 7 unknown #
face $-1 $160 $161 $19 $-1 $162 reversed single #
loop $-1 $163 $164 $57 #
cone-surface $-1 -49.022832793126071 -27.169335299630106 8.5205140747057193 0 0.52991927123019833 -0.84804809178421925 1.5 0 0 1 I I 0 1 1.5 forward I I I I #
loop $-1 $-1 $165 $37 #
coedge $-1 $98 $98 $99 $166 forward $58 $-1 #
coedge $-1 $99 $99 $98 $166 reversed $60 $-1 #
coedge $-1 $100 $100 $61 $101 forward $167 $-1 #
edge $-1 $168 5.0162055410438546e-016 $168 6.2831853071796013 $100 $169 forward 7 unknown #
face $-1 $170 $171 $15 $-1 $172 reversed single #
loop $-1 $-1 $173 $62 #
plane-surface $-1 -60.883205664235362 0 0 1 0 0 0 0 -1 forward_v I I I I #
coedge $-1 $174 $113 $175 $176 forward $63 $-1 #
coedge $-1 $177 $65 $174 $178 forward $41 $-1 #
coedge $-1 $65 $177 $179 $180 forward $41 $-1 #
coedge $-1 $116 $115 $65 $109 reversed $117 $-1 #
edge $-1 $181 -30.389019601419179 $182 30.389019601419179 $108 $183 forward 7 unknown #
coedge $-1 $67 $66 $184 $185 forward $26 $-1 #
coedge $-1 $186 $187 $66 $112 reversed $171 $-1 #
edge $-1 $119 -60.883205664235362 $188 60.883205664235362 $111 $189 forward 7 unknown #
coedge $-1 $105 $190 $67 $114 reversed $63 $-1 #
edge $-1 $191 -60.883205664235362 $118 60.883205664235362 $113 $192 forward 7 unknown #
coedge $-1 $108 $68 $190 $193 forward $117 $-1 #
coedge $-1 $68 $108 $186 $194 reversed $117 $-1 #
loop $-1 $-1 $115 $170 #
vertex $-1 $69 $195 #
vertex $-1 $69 $196 #
straight-curve $-1 60.883205664235362 0 11.190804926313808 0 1 0 I I #
face $-1 $197 $198 $16 $-1 $199 reversed single #
loop $-1 $-1 $200 $70 #
plane-surface $-1 0 0 -11.190804926313808 0 0 1 1 0 0 forward_v I I I I #
coedge $-1 $201 $202 $203 $204 forward $71 $-1 #
coedge $-1 $76 $73 $205 $206 reversed $45 $-1 #
coedge $-1 $73 $76 $207 $208 reversed $45 $-1 #
coedge $-1 $209 $210 $73 $128 forward $211 $-1 #
edge $-1 $212 -11.190804926313808 $213 11.190804926313808 $127 $214 forward 7 unknown #
coedge $-1 $75 $74 $215 $216 reversed $29 $-1 #
coedge $-1 $205 $217 $74 $131 forward $122 $-1 #
edge $-1 $218 -3.2254804823629115 $135 3.2254804823629115 $74 $219 forward 7 unknown #
coedge $-1 $202 $207 $75 $133 forward $71 $-1 #
edge $-1 $134 -3.2254804823629115 $220 3.2254804823629115 $75 $221 forward 7 unknown #
vertex $-1 $208 $222 #
vertex $-1 $206 $223 #
straight-curve $-1 -69.23884046622905 -23.938058636693356 0 0 0 -1 I I #
face $-1 $224 $225 $17 $-1 $226 reversed single #
loop $-1 $-1 $227 $78 #
plane-surface $-1 0 0 11.190804926313808 0 0 1 1 0 0 forward_v I I I I #
coedge $-1 $228 $229 $227 $230 reversed $79 $-1 #
coedge $-1 $231 $81 $229 $232 reversed $49 $-1 #
coedge $-1 $81 $231 $82 $145 reversed $49 $-1 #
coedge $-1 $84 $227 $81 $144 forward $138 $-1 #
edge $-1 $233 -29.330431241596973 $149 -17.063847999692403 $143 $234 forward 7 unknown #
edge $-1 $149 -6.0013465774926829 $235 0 $82 $236 forward 7 unknown #
coedge $-1 $237 $238 $83 $147 forward $239 $-1 #
edge $-1 $150 44.44636931973168 $235 47.626598524476449 $146 $240 forward 7 unknown #
coedge $-1 $241 $84 $238 $242 forward $138 $-1 #
vertex $-1 $144 $243 #
vertex $-1 $242 $244 #
straight-curve $-1 -40.26098762033709 -47.457693776459479 11.19080492631381 0 -1 0 I I #
face $-1 $245 $246 $18 $-1 $247 forward single #
loop $-1 $248 $92 $86 #
plane-surface $-1 -46.394279241289375 -30.389019601419179 8.0105757215690403 0 -0.52991927123019833 0.84804809178421925 1 0 0 forward_v I I I I #
coedge $-1 $249 $250 $251 $252 reversed $87 $-1 #
coedge $-1 $156 $156 $-1 $253 forward $89 $-1 #
edge $-1 $254 0 $254 6.2831853071796004 $90 $255 forward 7 unknown #
vertex $-1 $93 $256 #
ellipse-curve $-1 -49.022832793126071 -27.844304344829961 9.6006903239414267 0 0.52991927123019833 -0.84804809178421925 1.5 0 0 1 I I #
face $-1 $257 $258 $19 $-1 $259 forward single #
loop $-1 $260 $261 $94 #
cone-surface $-1 -49.022832793126071 -26.096926801007605 6.8043017566318564 0 0.52991927123019833 -0.84804809178421925 0.75 0 0 1 I I -0.70710678118654713 0.70710678118654802 0.75 forward I I I I #
loop $-1 $-1 $262 $57 #
coedge $-1 $164 $164 $263 $264 reversed $95 $-1 #
coedge $-1 $165 $165 $-1 $265 forward $97 $-1 #
edge $-1 $266 0 $266 6.2831853071796004 $98 $267 forward 7 unknown #
loop $-1 $268 $100 $257 #
vertex $-1 $101 $269 #
ellipse-curve $-1 -43.76572568945268 -27.844304344829961 9.6006903239414267 0 0.52991927123019833 -0.84804809178421925 1.5 0 0 1 I I #
face $-1 $-1 $117 $15 $-1 $270 reversed single #
loop $-1 $-1 $186 $102 #
plane-surface $-1 0 30.389019601419179 0 0 -1 0 0 0 -1 forward_v I I I I #
coedge $-1 $271 $184 $187 $272 forward $103 $-1 #
coedge $-1 $190 $105 $106 $178 reversed $63 $-1 #
coedge $-1 $184 $271 $105 $176 reversed $103 $-1 #
edge $-1 $191 -11.190804926313808 $273 11.190804926313808 $175 $274 forward 7 unknown #
coedge $-1 $107 $106 $271 $275 forward $41 $-1 #
edge $-1 $182 -60.883205664235362 $273 60.883205664235362 $174 $276 forward 7 unknown #
coedge $-1 $187 $186 $107 $180 reversed $171 $-1 #
edge $-1 $277 -60.883205664235362 $181 60.883205664235362 $179 $278 forward 7 unknown #
vertex $-1 $109 $279 #
vertex $-1 $193 $280 #
straight-curve $-1 60.883205664235362 0 -11.190804926313808 0 -1 0 I I #
coedge $-1 $173 $175 $110 $185 reversed $103 $-1 #
edge $-1 $188 -30.389019601419179 $191 30.389019601419179 $184 $281 forward 7 unknown #
coedge $-1 $179 $111 $116 $194 forward $171 $-1 #
coedge $-1 $111 $179 $173 $272 reversed $171 $-1 #
vertex $-1 $112 $282 #
straight-curve $-1 0 30.389019601419179 11.190804926313808 -1 0 0 I I #
coedge $-1 $113 $174 $115 $193 reversed $63 $-1 #
vertex $-1 $185 $283 #
straight-curve $-1 0 -30.389019601419179 11.190804926313808 1 0 0 I I #
edge $-1 $118 -11.190804926313808 $182 11.190804926313808 $115 $284 forward 7 unknown #
edge $-1 $119 -11.190804926313808 $181 11.190804926313808 $116 $285 forward 7 unknown #
point $-1 60.883205664235362 -30.389019601419179 11.190804926313808 #
point $-1 60.883205664235362 30.389019601419179 11.190804926313808 #
face $-1 $286 $211 $16 $-1 $287 reversed single #
loop $-1 $-1 $288 $121 #
plane-surface $-1 0 -30.389019601419179 0 0 1 0 0 0 1 forward_v I I I I #
coedge $-1 $217 $289 $290 $291 forward $122 $-1 #
coedge $-1 $292 $124 $293 $294 forward $71 $-1 #
coedge $-1 $124 $132 $295 $296 forward $71 $-1 #
coedge $-1 $297 $298 $124 $204 reversed $299 $-1 #
edge $-1 $300 -30.389019601419179 $301 30.389019601419179 $203 $302 forward 7 unknown #
coedge $-1 $303 $130 $125 $206 forward $122 $-1 #
edge $-1 $135 -4.1778174009968438 $212 4.1778174009968509 $125 $304 forward 7 unknown #
coedge $-1 $132 $292 $126 $208 forward $71 $-1 #
edge $-1 $213 -4.1778174009968509 $134 4.1778174009968438 $126 $305 forward 7 unknown #
coedge $-1 $306 $127 $292 $307 reversed $211 $-1 #
coedge $-1 $127 $306 $303 $308 reversed $211 $-1 #
loop $-1 $-1 $127 $197 #
vertex $-1 $308 $309 #
vertex $-1 $208 $310 #
straight-curve $-1 -60.883205664235362 -23.938058636693356 0 0 0 1 I I #
coedge $-1 $288 $295 $129 $216 forward $198 $-1 #
edge $-1 $220 -11.190804926313808 $218 11.190804926313808 $129 $311 forward 7 unknown #
coedge $-1 $130 $200 $288 $312 forward $122 $-1 #
vertex $-1 $131 $313 #
straight-curve $-1 -69.23884046622905 -27.163539119056267 -11.190804926313808 0 1 0 I I #
vertex $-1 $133 $314 #
straight-curve $-1 -69.23884046622905 -27.163539119056267 11.190804926313808 0 -1 0 I I #
point $-1 -69.23884046622905 -23.938058636693356 11.190804926313808 #
point $-1 -69.23884046622905 -23.938058636693356 -11.190804926313808 #
face $-1 $315 $316 $17 $-1 $317 reversed single #
loop $-1 $-1 $318 $137 #
plane-surface $-1 -69.23884046622905 -27.163539119056267 0 1 0 0 0 0 -1 forward_v I I I I #
coedge $-1 $143 $319 $140 $230 forward $138 $-1 #
coedge $-1 $229 $140 $320 $321 reversed $79 $-1 #
coedge $-1 $140 $228 $141 $232 forward $79 $-1 #
edge $-1 $322 17.0686741750403 $233 22.158104688218724 $227 $323 forward 7 unknown #
coedge $-1 $142 $141 $237 $324 reversed $49 $-1 #
edge $-1 $325 0 $233 6.0013465774926829 $229 $326 forward 7 unknown #
vertex $-1 $144 $327 #
straight-curve $-1 -23.197139620644688 -25.299589088240754 11.190804926313808 1 0 0 I I #
vertex $-1 $324 $328 #
straight-curve $-1 -40.26098762033709 -30.389019601419179 8.0105757215690403 0 -0.84804809178421925 -0.52991927123019833 I I #
coedge $-1 $320 $146 $231 $324 forward $239 $-1 #
coedge $-1 $146 $329 $148 $242 reversed $239 $-1 #
loop $-1 $-1 $320 $330 #
straight-curve $-1 -40.26098762033709 -30.389019601419179 55.63717424604549 0 0 -1 I I #
coedge $-1 $331 $148 $332 $333 forward $138 $-1 #
edge $-1 $150 -40.26098762033709 $334 60.883205664235362 $238 $335 forward 7 unknown #
point $-1 -40.26098762033709 -25.299589088240754 11.190804926313808 #
point $-1 -40.26098762033709 -30.389019601419179 11.190804926313808 #
face $-1 $336 $337 $18 $-1 $338 forward single #
loop $-1 $-1 $339 $152 #
plane-surface $-1 -52.52757086224166 -94.915387552918958 111.27434849209098 1 0 0 0 0.52991927123019833 -0.84804809178421925 forward_v I I I I #
loop $-1 $-1 $340 $86 #
coedge $-1 $250 $155 $341 $342 forward $87 $-1 #
coedge $-1 $155 $249 $343 $344 reversed $87 $-1 #
coedge $-1 $345 $346 $155 $252 forward $337 $-1 #
edge $-1 $347 -22.158104688218724 $348 -17.0686741750403 $251 $349 forward 7 unknown #
edge $-1 $350 1 $350 0 $156 $-1 forward 7 unknown #
vertex $-1 $157 $351 #
ellipse-curve $-1 -49.022832793126071 -26.494366254430254 7.4403378254700216 0 -0.52991927123019833 0.84804809178421925 1.5 0 0 1 I I #
point $-1 -47.522832793126071 -27.844304344829958 9.6006903239414196 #
face $-1 $352 $167 $19 $-1 $353 forward single #
loop $-1 $-1 $354 $160 #
plane-surface $-1 -40.26098762033709 -94.915387552918958 111.27434849209098 -1 0 0 0 -0.52991927123019833 0.84804809178421925 forward_v I I I I #
loop $-1 $-1 $355 $94 #
coedge $-1 $261 $261 $262 $356 forward $161 $-1 #
coedge $-1 $262 $262 $261 $356 reversed $163 $-1 #
coedge $-1 $263 $263 $164 $264 forward $268 $-1 #
edge $-1 $357 5.0162055410438546e-016 $357 6.2831853071796013 $263 $358 forward 7 unknown #
edge $-1 $359 1 $359 0 $165 $-1 forward 7 unknown #
vertex $-1 $166 $360 #
ellipse-curve $-1 -43.76572568945268 -26.494366254430254 7.4403378254700216 0 -0.52991927123019833 0.84804809178421925 1.5 0 0 1 I I #
loop $-1 $361 $263 $257 #
point $-1 -42.26572568945268 -27.844304344829958 9.6006903239414196 #
plane-surface $-1 60.883205664235362 0 0 -1 0 0 0 0 1 forward_v I I I I #
coedge $-1 $175 $173 $177 $275 reversed $103 $-1 #
edge $-1 $188 -11.190804926313808 $277 11.190804926313808 $187 $362 forward 7 unknown #
vertex $-1 $275 $363 #
straight-curve $-1 -60.883205664235362 -30.389019601419179 0 0 0 -1 I I #
edge $-1 $273 -30.389019601419179 $277 30.389019601419179 $271 $364 forward 7 unknown #
straight-curve $-1 0 -30.389019601419179 -11.190804926313808 -1 0 0 I I #
vertex $-1 $180 $365 #
straight-curve $-1 0 30.389019601419179 -11.190804926313808 1 0 0 I I #
point $-1 60.883205664235362 30.389019601419179 -11.190804926313808 #
point $-1 60.883205664235362 -30.389019601419179 -11.190804926313808 #
straight-curve $-1 -60.883205664235362 0 11.190804926313808 0 -1 0 I I #
point $-1 -60.883205664235362 30.389019601419179 11.190804926313808 #
point $-1 -60.883205664235362 -30.389019601419179 11.190804926313808 #
straight-curve $-1 60.883205664235362 -30.389019601419179 0 0 0 -1 I I #
straight-curve $-1 60.883205664235362 30.389019601419179 0 0 0 -1 I I #
face $-1 $366 $367 $16 $-1 $368 reversed single #
plane-surface $-1 -60.883205664235362 0 0 1 0 0 0 0 -1 forward_v I I I I #
coedge $-1 $369 $215 $217 $312 reversed $198 $-1 #
coedge $-1 $200 $303 $370 $371 forward $122 $-1 #
coedge $-1 $298 $297 $200 $291 reversed $299 $-1 #
edge $-1 $372 -30.389019601419179 $373 30.389019601419179 $290 $374 forward 7 unknown #
coedge $-1 $207 $201 $209 $307 forward $71 $-1 #
coedge $-1 $375 $376 $201 $294 reversed $367 $-1 #
edge $-1 $301 -60.883205664235362 $377 60.883205664235362 $293 $378 forward 7 unknown #
coedge $-1 $215 $369 $202 $296 reversed $198 $-1 #
edge $-1 $220 -69.23884046622905 $300 60.883205664235362 $295 $379 forward 7 unknown #
coedge $-1 $290 $203 $369 $380 forward $299 $-1 #
coedge $-1 $203 $290 $375 $381 reversed $299 $-1 #
loop $-1 $-1 $297 $366 #
vertex $-1 $204 $382 #
vertex $-1 $204 $383 #
straight-curve $-1 60.883205664235362 0 11.190804926313808 0 1 0 I I #
coedge $-1 $289 $205 $210 $308 forward $122 $-1 #
straight-curve $-1 -65.061023065232206 -23.938058636693356 -11.190804926313808 1 0 0 I I #
straight-curve $-1 -65.061023065232206 -23.938058636693356 11.190804926313808 -1 0 0 I I #
coedge $-1 $210 $209 $376 $384 forward $211 $-1 #
edge $-1 $377 -30.389019601419179 $213 23.938058636693356 $209 $385 forward 7 unknown #
edge $-1 $212 -23.938058636693356 $386 30.389019601419179 $210 $387 forward 7 unknown #
point $-1 -60.883205664235355 -23.938058636693356 -11.190804926313808 #
point $-1 -60.883205664235355 -23.938058636693356 11.190804926313808 #
straight-curve $-1 -69.23884046622905 -30.389019601419179 0 0 0 -1 I I #
edge $-1 $373 -125.94422872946757 $218 4.1778174009968438 $288 $388 forward 7 unknown #
point $-1 -69.23884046622905 -30.389019601419179 -11.190804926313808 #
point $-1 -69.23884046622905 -30.389019601419179 11.190804926313808 #
face $-1 $330 $389 $17 $-1 $390 reversed single #
loop $-1 $-1 $391 $224 #
plane-surface $-1 -65.061023065232206 -23.938058636693356 0 0 -1 0 0 0 -1 forward_v I I I I #
coedge $-1 $392 $393 $394 $395 forward $225 $-1 #
coedge $-1 $227 $396 $397 $398 forward $138 $-1 #
coedge $-1 $397 $237 $228 $321 forward $239 $-1 #
edge $-1 $325 -47.626598524476449 $322 -44.44636931973168 $320 $399 forward 7 unknown #
vertex $-1 $321 $400 #
straight-curve $-1 -52.52757086224166 -47.457693776459479 11.19080492631381 0 1 0 I I #
edge $-1 $235 17.063847999692403 $325 29.330431241596973 $237 $401 forward 7 unknown #
vertex $-1 $324 $402 #
straight-curve $-1 -52.52757086224166 -30.389019601419179 8.0105757215690403 0 0.84804809178421925 0.52991927123019833 I I #
point $-1 -52.52757086224166 -25.299589088240754 11.190804926313808 #
point $-1 -40.26098762033709 -30.389019601419179 8.0105757215690403 #
coedge $-1 $238 $403 $404 $405 reversed $239 $-1 #
face $-1 $406 $239 $17 $-1 $407 reversed single #
coedge $-1 $408 $241 $409 $410 forward $138 $-1 #
coedge $-1 $404 $411 $241 $333 reversed $412 $-1 #
edge $-1 $334 -30.389019601419179 $413 30.389019601419179 $332 $414 forward 7 unknown #
vertex $-1 $333 $415 #
straight-curve $-1 0 -30.389019601419179 11.190804926313808 1 0 0 I I #
face $-1 $416 $417 $18 $-1 $418 reversed single #
loop $-1 $-1 $419 $245 #
plane-surface $-1 0 0 11.190804926313808 0 0 1 1 0 0 forward_v I I I I #
coedge $-1 $420 $421 $419 $422 reversed $246 $-1 #
coedge $-1 $423 $341 $346 $424 reversed $248 $-1 #
coedge $-1 $340 $425 $249 $342 reversed $248 $-1 #
edge $-1 $347 -6.0013465774926829 $426 0 $249 $427 forward 7 unknown #
coedge $-1 $428 $429 $250 $344 forward $430 $-1 #
edge $-1 $348 44.44636931973168 $426 47.626598524476449 $343 $431 forward 7 unknown #
coedge $-1 $432 $251 $429 $433 forward $337 $-1 #
coedge $-1 $251 $419 $340 $424 forward $337 $-1 #
vertex $-1 $424 $434 #
vertex $-1 $433 $435 #
straight-curve $-1 -40.26098762033709 -47.457693776459479 11.19080492631381 0 -1 0 I I #
vertex $-1 $253 $436 #
point $-1 -47.522832793126071 -26.494366254430254 7.4403378254700216 #
face $-1 $437 $438 $19 $-1 $439 forward single #
plane-surface $-1 -46.394279241289375 -30.389019601419179 8.0105757215690403 0 -0.52991927123019833 0.84804809178421925 1 0 0 forward_v I I I I #
coedge $-1 $440 $441 $442 $443 reversed $258 $-1 #
coedge $-1 $355 $355 $-1 $444 forward $260 $-1 #
edge $-1 $445 0 $445 6.2831853071796004 $261 $446 forward 7 unknown #
vertex $-1 $264 $447 #
ellipse-curve $-1 -49.022832793126071 -27.844304344829961 9.6006903239414267 0 0.52991927123019833 -0.84804809178421925 1.5 0 0 1 I I #
vertex $-1 $265 $448 #
point $-1 -42.26572568945268 -26.494366254430254 7.4403378254700216 #
loop $-1 $-1 $449 $257 #
straight-curve $-1 -60.883205664235362 30.389019601419179 0 0 0 -1 I I #
point $-1 -60.883205664235362 -30.389019601419179 -11.190804926313808 #
straight-curve $-1 -60.883205664235362 0 -11.190804926313808 0 1 0 I I #
point $-1 -60.883205664235362 30.389019601419179 -11.190804926313808 #
face $-1 $-1 $299 $16 $-1 $450 reversed single #
loop $-1 $-1 $375 $286 #
plane-surface $-1 0 30.389019601419179 0 0 -1 0 0 0 -1 forward_v I I I I #
coedge $-1 $295 $288 $297 $380 reversed $198 $-1 #
coedge $-1 $376 $375 $289 $371 reversed $367 $-1 #
edge $-1 $386 -60.883205664235362 $372 60.883205664235362 $370 $451 forward 7 unknown #
vertex $-1 $291 $452 #
vertex $-1 $380 $453 #
straight-curve $-1 60.883205664235362 0 -11.190804926313808 0 -1 0 I I #
coedge $-1 $370 $293 $298 $381 forward $367 $-1 #
coedge $-1 $293 $370 $306 $384 reversed $367 $-1 #
vertex $-1 $294 $454 #
straight-curve $-1 0 30.389019601419179 11.190804926313808 -1 0 0 I I #
straight-curve $-1 0 -30.389019601419179 11.190804926313808 1 0 0 I I #
edge $-1 $300 -11.190804926313808 $373 11.190804926313808 $297 $455 forward 7 unknown #
edge $-1 $301 -11.190804926313808 $372 11.190804926313808 $298 $456 forward 7 unknown #
point $-1 60.883205664235362 -30.389019601419179 11.190804926313808 #
point $-1 60.883205664235362 30.389019601419179 11.190804926313808 #
edge $-1 $377 -11.190804926313808 $386 11.190804926313808 $376 $457 forward 7 unknown #
straight-curve $-1 -60.883205664235362 0 11.190804926313808 0 -1 0 I I #
vertex $-1 $371 $458 #
straight-curve $-1 -60.883205664235362 0 -11.190804926313808 0 1 0 I I #
straight-curve $-1 -65.061023065232206 -30.389019601419179 -11.190804926313808 -1 0 0 I I #
loop $-1 $-1 $459 $315 #
plane-surface $-1 0 0 -11.190804926313808 0 0 1 1 0 0 forward_v I I I I #
coedge $-1 $460 $461 $462 $463 reversed $316 $-1 #
coedge $-1 $464 $318 $465 $466 reversed $225 $-1 #
coedge $-1 $318 $464 $396 $467 reversed $225 $-1 #
coedge $-1 $461 $460 $318 $395 reversed $316 $-1 #
edge $-1 $468 -11.190804926313808 $469 11.190804926313808 $394 $470 forward 7 unknown #
coedge $-1 $319 $471 $393 $467 forward $138 $-1 #
coedge $-1 $472 $320 $319 $398 reversed $239 $-1 #
edge $-1 $473 -69.23884046622905 $322 -52.52757086224166 $397 $335 forward 7 unknown #
straight-curve $-1 -52.52757086224166 -30.389019601419179 55.63717424604549 0 0 1 I I #
point $-1 -52.52757086224166 -30.389019601419179 11.190804926313808 #
straight-curve $-1 -23.197139620644688 -30.389019601419179 8.0105757215690385 -1 0 0 I I #
point $-1 -52.52757086224166 -30.389019601419179 8.0105757215690403 #
coedge $-1 $329 $472 $474 $475 reversed $239 $-1 #
coedge $-1 $476 $332 $329 $405 forward $412 $-1 #
edge $-1 $334 -11.190804926313808 $477 11.190804926313808 $404 $478 forward 7 unknown #
face $-1 $479 $480 $17 $-1 $481 reversed single #
plane-surface $-1 0 -30.389019601419179 0 0 1 0 0 0 1 forward_v I I I I #
coedge $-1 $471 $331 $482 $483 forward $138 $-1 #
coedge $-1 $484 $485 $331 $410 reversed $486 $-1 #
edge $-1 $413 -60.883205664235362 $487 60.883205664235362 $409 $488 forward 7 unknown #
coedge $-1 $332 $476 $484 $489 reversed $412 $-1 #
loop $-1 $-1 $404 $490 #
vertex $-1 $333 $491 #
straight-curve $-1 60.883205664235362 0 11.190804926313808 0 1 0 I I #
point $-1 60.883205664235362 -30.389019601419179 11.190804926313808 #
face $-1 $492 $493 $18 $-1 $494 reversed single #
loop $-1 $-1 $495 $336 #
plane-surface $-1 -69.23884046622905 -27.163539119056267 0 1 0 0 0 0 -1 forward_v I I I I #
coedge $-1 $346 $496 $339 $422 forward $337 $-1 #
coedge $-1 $421 $339 $497 $498 reversed $246 $-1 #
coedge $-1 $339 $420 $423 $499 forward $246 $-1 #
edge $-1 $500 17.0686741750403 $501 22.158104688218724 $419 $502 forward 7 unknown #
coedge $-1 $425 $340 $421 $499 reversed $248 $-1 #
edge $-1 $501 -29.330431241596973 $347 -17.063847999692403 $346 $503 forward 7 unknown #
coedge $-1 $341 $423 $428 $504 reversed $248 $-1 #
vertex $-1 $504 $505 #
straight-curve $-1 -40.26098762033709 -30.389019601419179 8.0105757215690403 0 -0.84804809178421925 -0.52991927123019833 I I #
coedge $-1 $497 $343 $425 $504 forward $430 $-1 #
coedge $-1 $343 $506 $345 $433 reversed $430 $-1 #
loop $-1 $-1 $497 $507 #
straight-curve $-1 -40.26098762033709 -30.389019601419179 55.63717424604549 0 0 -1 I I #
coedge $-1 $508 $345 $509 $510 forward $337 $-1 #
edge $-1 $348 -40.26098762033709 $511 60.883205664235362 $429 $512 forward 7 unknown #
point $-1 -40.26098762033709 -25.299589088240754 11.190804926313808 #
point $-1 -40.26098762033709 -30.389019601419179 11.190804926313808 #
point $-1 -49.022832793126071 -25.699487347584956 6.1682656877936912 #
face $-1 $513 $514 $19 $-1 $515 forward single #
loop $-1 $-1 $516 $352 #
plane-surface $-1 -52.52757086224166 -94.915387552918958 111.27434849209098 1 0 0 0 0.52991927123019833 -0.84804809178421925 forward_v I I I I #
coedge $-1 $441 $354 $517 $518 forward $258 $-1 #
coedge $-1 $354 $440 $519 $520 reversed $258 $-1 #
coedge $-1 $521 $522 $354 $443 forward $514 $-1 #
edge $-1 $523 -22.158104688218724 $524 -17.0686741750403 $442 $525 forward 7 unknown #
edge $-1 $526 1 $526 0 $355 $-1 forward 7 unknown #
vertex $-1 $356 $527 #
ellipse-curve $-1 -49.022832793126071 -26.494366254430254 7.4403378254700216 0 -0.52991927123019833 0.84804809178421925 1.5 0 0 1 I I #
point $-1 -47.522832793126071 -27.844304344829958 9.6006903239414196 #
point $-1 -43.76572568945268 -25.699487347584956 6.1682656877936912 #
coedge $-1 $528 $517 $522 $529 reversed $361 $-1 #
plane-surface $-1 60.883205664235362 0 0 -1 0 0 0 0 1 forward_v I I I I #
straight-curve $-1 0 30.389019601419179 -11.190804926313808 1 0 0 I I #
point $-1 60.883205664235362 30.389019601419179 -11.190804926313808 #
point $-1 60.883205664235362 -30.389019601419179 -11.190804926313808 #
point $-1 -60.883205664235362 30.389019601419179 11.190804926313808 #
straight-curve $-1 60.883205664235362 -30.389019601419179 0 0 0 -1 I I #
straight-curve $-1 60.883205664235362 30.389019601419179 0 0 0 -1 I I #
straight-curve $-1 -60.883205664235362 30.389019601419179 0 0 0 -1 I I #
point $-1 -60.883205664235362 30.389019601419179 -11.190804926313808 #
coedge $-1 $474 $530 $476 $531 forward $389 $-1 #
coedge $-1 $394 $391 $532 $533 reversed $316 $-1 #
coedge $-1 $391 $394 $471 $534 reversed $316 $-1 #
coedge $-1 $482 $535 $391 $463 forward $480 $-1 #
edge $-1 $536 -11.190804926313808 $537 11.190804926313808 $462 $538 forward 7 unknown #
coedge $-1 $393 $392 $472 $539 reversed $225 $-1 #
coedge $-1 $532 $474 $392 $466 forward $389 $-1 #
edge $-1 $540 -3.2254804823629115 $469 3.2254804823629115 $392 $541 forward 7 unknown #
edge $-1 $468 -3.2254804823629115 $473 3.2254804823629115 $393 $542 forward 7 unknown #
vertex $-1 $534 $543 #
vertex $-1 $533 $544 #
straight-curve $-1 -69.23884046622905 -23.938058636693356 0 0 0 -1 I I #
coedge $-1 $396 $408 $461 $534 forward $138 $-1 #
coedge $-1 $403 $397 $464 $539 forward $239 $-1 #
vertex $-1 $467 $545 #
coedge $-1 $465 $459 $403 $475 forward $389 $-1 #
edge $-1 $477 -125.94422872946757 $540 4.1778174009968438 $403 $546 forward 7 unknown #
coedge $-1 $411 $404 $459 $531 reversed $412 $-1 #
vertex $-1 $405 $547 #
straight-curve $-1 60.883205664235362 -30.389019601419179 0 0 0 -1 I I #
face $-1 $490 $486 $17 $-1 $548 reversed single #
loop $-1 $-1 $462 $406 #
plane-surface $-1 -60.883205664235362 0 0 1 0 0 0 0 -1 forward_v I I I I #
coedge $-1 $549 $462 $408 $483 reversed $480 $-1 #
edge $-1 $487 -30.389019601419179 $537 23.938058636693356 $482 $550 forward 7 unknown #
coedge $-1 $551 $409 $411 $489 forward $486 $-1 #
coedge $-1 $409 $551 $549 $552 reversed $486 $-1 #
loop $-1 $-1 $484 $479 #
vertex $-1 $410 $553 #
straight-curve $-1 0 30.389019601419179 11.190804926313808 -1 0 0 I I #
edge $-1 $413 -11.190804926313808 $554 11.190804926313808 $411 $555 forward 7 unknown #
face $-1 $-1 $412 $17 $-1 $556 reversed single #
point $-1 60.883205664235362 30.389019601419179 11.190804926313808 #
face $-1 $507 $557 $18 $-1 $558 reversed single #
loop $-1 $-1 $559 $416 #
plane-surface $-1 -65.061023065232206 -23.938058636693356 0 0 -1 0 0 0 -1 forward_v I I I I #
coedge $-1 $560 $561 $562 $563 forward $417 $-1 #
coedge $-1 $419 $564 $565 $566 forward $337 $-1 #
coedge $-1 $565 $428 $420 $498 forward $430 $-1 #
edge $-1 $567 -47.626598524476449 $500 -44.44636931973168 $497 $568 forward 7 unknown #
edge $-1 $567 0 $501 6.0013465774926829 $421 $569 forward 7 unknown #
vertex $-1 $498 $570 #
vertex $-1 $424 $571 #
straight-curve $-1 -52.52757086224166 -47.457693776459479 11.19080492631381 0 1 0 I I #
straight-curve $-1 -23.197139620644688 -25.299589088240754 11.190804926313808 1 0 0 I I #
edge $-1 $426 17.063847999692403 $567 29.330431241596973 $428 $572 forward 7 unknown #
point $-1 -40.26098762033709 -30.389019601419179 8.0105757215690403 #
coedge $-1 $429 $573 $574 $575 reversed $430 $-1 #
face $-1 $576 $430 $18 $-1 $577 reversed single #
coedge $-1 $578 $432 $579 $580 forward $337 $-1 #
coedge $-1 $574 $581 $432 $510 reversed $582 $-1 #
edge $-1 $511 -30.389019601419179 $583 30.389019601419179 $509 $584 forward 7 unknown #
vertex $-1 $510 $585 #
straight-curve $-1 0 -30.389019601419179 11.190804926313808 1 0 0 I I #
face $-1 $586 $587 $19 $-1 $588 reversed single #
loop $-1 $-1 $589 $437 #
plane-surface $-1 0 0 11.190804926313808 0 0 1 1 0 0 forward_v I I I I #
coedge $-1 $590 $591 $589 $592 reversed $438 $-1 #
coedge $-1 $449 $593 $440 $518 reversed $361 $-1 #
edge $-1 $523 -6.0013465774926829 $594 0 $440 $595 forward 7 unknown #
coedge $-1 $596 $597 $441 $520 forward $598 $-1 #
edge $-1 $524 44.44636931973168 $594 47.626598524476449 $519 $599 forward 7 unknown #
coedge $-1 $600 $442 $597 $601 forward $514 $-1 #
coedge $-1 $442 $589 $449 $529 forward $514 $-1 #
vertex $-1 $529 $602 #
vertex $-1 $601 $603 #
straight-curve $-1 -40.26098762033709 -47.457693776459479 11.19080492631381 0 -1 0 I I #
vertex $-1 $444 $604 #
point $-1 -47.522832793126071 -26.494366254430254 7.4403378254700216 #
coedge $-1 $593 $449 $591 $605 reversed $361 $-1 #
edge $-1 $606 -29.330431241596973 $523 -17.063847999692403 $522 $607 forward 7 unknown #
coedge $-1 $459 $608 $551 $609 forward $389 $-1 #
edge $-1 $554 -30.389019601419179 $477 30.389019601419179 $476 $610 forward 7 unknown #
coedge $-1 $608 $465 $460 $533 forward $389 $-1 #
edge $-1 $469 -4.1778174009968438 $536 4.1778174009968509 $460 $611 forward 7 unknown #
edge $-1 $537 -4.1778174009968509 $468 4.1778174009968438 $461 $612 forward 7 unknown #
coedge $-1 $462 $549 $608 $613 reversed $480 $-1 #
vertex $-1 $613 $614 #
vertex $-1 $534 $615 #
straight-curve $-1 -60.883205664235362 -23.938058636693356 0 0 0 1 I I #
edge $-1 $473 -11.190804926313808 $540 11.190804926313808 $464 $616 forward 7 unknown #
vertex $-1 $466 $617 #
straight-curve $-1 -69.23884046622905 -27.163539119056267 -11.190804926313808 0 1 0 I I #
straight-curve $-1 -69.23884046622905 -27.163539119056267 11.190804926313808 0 -1 0 I I #
point $-1 -69.23884046622905 -23.938058636693356 11.190804926313808 #
point $-1 -69.23884046622905 -23.938058636693356 -11.190804926313808 #
point $-1 -69.23884046622905 -30.389019601419179 11.190804926313808 #
straight-curve $-1 -65.061023065232206 -30.389019601419179 -11.190804926313808 -1 0 0 I I #
point $-1 60.883205664235362 -30.389019601419179 -11.190804926313808 #
plane-surface $-1 0 30.389019601419179 0 0 -1 0 0 0 -1 forward_v I I I I #
coedge $-1 $535 $482 $485 $552 forward $480 $-1 #
straight-curve $-1 -60.883205664235362 0 11.190804926313808 0 -1 0 I I #
coedge $-1 $485 $484 $530 $609 reversed $486 $-1 #
edge $-1 $487 -11.190804926313808 $618 11.190804926313808 $485 $619 forward 7 unknown #
point $-1 -60.883205664235362 30.389019601419179 11.190804926313808 #
vertex $-1 $531 $620 #
straight-curve $-1 60.883205664235362 30.389019601419179 0 0 0 -1 I I #
plane-surface $-1 60.883205664235362 0 0 -1 0 0 0 0 1 forward_v I I I I #
loop $-1 $-1 $621 $492 #
plane-surface $-1 0 0 -11.190804926313808 0 0 1 1 0 0 forward_v I I I I #
coedge $-1 $622 $623 $624 $625 reversed $493 $-1 #
coedge $-1 $626 $495 $627 $628 reversed $417 $-1 #
coedge $-1 $495 $626 $564 $629 reversed $417 $-1 #
coedge $-1 $623 $622 $495 $563 reversed $493 $-1 #
edge $-1 $630 -11.190804926313808 $631 11.190804926313808 $562 $632 forward 7 unknown #
coedge $-1 $496 $633 $561 $629 forward $337 $-1 #
coedge $-1 $634 $497 $496 $566 reversed $430 $-1 #
edge $-1 $635 -69.23884046622905 $500 -52.52757086224166 $565 $512 forward 7 unknown #
vertex $-1 $504 $636 #
straight-curve $-1 -52.52757086224166 -30.389019601419179 55.63717424604549 0 0 1 I I #
straight-curve $-1 -52.52757086224166 -30.389019601419179 8.0105757215690403 0 0.84804809178421925 0.52991927123019833 I I #
point $-1 -52.52757086224166 -30.389019601419179 11.190804926313808 #
point $-1 -52.52757086224166 -25.299589088240754 11.190804926313808 #
straight-curve $-1 -23.197139620644688 -30.389019601419179 8.0105757215690385 -1 0 0 I I #
coedge $-1 $506 $634 $637 $638 reversed $430 $-1 #
coedge $-1 $639 $509 $506 $575 forward $582 $-1 #
edge $-1 $511 -11.190804926313808 $640 11.190804926313808 $574 $641 forward 7 unknown #
face $-1 $642 $643 $18 $-1 $644 reversed single #
plane-surface $-1 0 -30.389019601419179 0 0 1 0 0 0 1 forward_v I I I I #
coedge $-1 $633 $508 $645 $646 forward $337 $-1 #
coedge $-1 $647 $648 $508 $580 reversed $649 $-1 #
edge $-1 $583 -60.883205664235362 $650 60.883205664235362 $579 $651 forward 7 unknown #
coedge $-1 $509 $639 $647 $652 reversed $582 $-1 #
loop $-1 $-1 $574 $653 #
vertex $-1 $510 $654 #
straight-curve $-1 60.883205664235362 0 11.190804926313808 0 1 0 I I #
point $-1 60.883205664235362 -30.389019601419179 11.190804926313808 #
face $-1 $655 $656 $19 $-1 $657 reversed single #
loop $-1 $-1 $658 $513 #
plane-surface $-1 -69.23884046622905 -27.163539119056267 0 1 0 0 0 0 -1 forward_v I I I I #
coedge $-1 $522 $659 $516 $592 forward $514 $-1 #
coedge $-1 $591 $516 $660 $661 reversed $438 $-1 #
coedge $-1 $516 $590 $528 $605 forward $438 $-1 #
edge $-1 $662 17.0686741750403 $606 22.158104688218724 $589 $663 forward 7 unknown #
coedge $-1 $517 $528 $596 $664 reversed $361 $-1 #
vertex $-1 $664 $665 #
straight-curve $-1 -40.26098762033709 -30.389019601419179 8.0105757215690403 0 -0.84804809178421925 -0.52991927123019833 I I #
coedge $-1 $660 $519 $593 $664 forward $598 $-1 #
coedge $-1 $519 $666 $521 $601 reversed $598 $-1 #
loop $-1 $-1 $660 $667 #
straight-curve $-1 -40.26098762033709 -30.389019601419179 55.63717424604549 0 0 -1 I I #
coedge $-1 $668 $521 $669 $670 forward $514 $-1 #
edge $-1 $524 -40.26098762033709 $671 60.883205664235362 $597 $672 forward 7 unknown #
point $-1 -40.26098762033709 -25.299589088240754 11.190804926313808 #
point $-1 -40.26098762033709 -30.389019601419179 11.190804926313808 #
point $-1 -49.022832793126071 -25.699487347584956 6.1682656877936912 #
edge $-1 $673 0 $606 6.0013465774926829 $591 $674 forward 7 unknown #
vertex $-1 $529 $675 #
straight-curve $-1 -23.197139620644688 -25.299589088240754 11.190804926313808 1 0 0 I I #
coedge $-1 $530 $532 $535 $613 forward $389 $-1 #
edge $-1 $618 -60.883205664235362 $554 60.883205664235362 $551 $676 forward 7 unknown #
straight-curve $-1 60.883205664235362 0 -11.190804926313808 0 -1 0 I I #
straight-curve $-1 -65.061023065232206 -23.938058636693356 -11.190804926313808 1 0 0 I I #
straight-curve $-1 -65.061023065232206 -23.938058636693356 11.190804926313808 -1 0 0 I I #
edge $-1 $536 -23.938058636693356 $618 30.389019601419179 $535 $677 forward 7 unknown #
point $-1 -60.883205664235355 -23.938058636693356 -11.190804926313808 #
point $-1 -60.883205664235355 -23.938058636693356 11.190804926313808 #
straight-curve $-1 -69.23884046622905 -30.389019601419179 0 0 0 -1 I I #
point $-1 -69.23884046622905 -30.389019601419179 -11.190804926313808 #
vertex $-1 $609 $678 #
straight-curve $-1 -60.883205664235362 30.389019601419179 0 0 0 -1 I I #
point $-1 60.883205664235362 30.389019601419179 -11.190804926313808 #
coedge $-1 $637 $679 $639 $680 forward $557 $-1 #
coedge $-1 $562 $559 $681 $682 reversed $493 $-1 #
coedge $-1 $559 $562 $633 $683 reversed $493 $-1 #
coedge $-1 $645 $684 $559 $625 forward $643 $-1 #
edge $-1 $685 -11.190804926313808 $686 11.190804926313808 $624 $687 forward 7 unknown #
coedge $-1 $561 $560 $634 $688 reversed $417 $-1 #
coedge $-1 $681 $637 $560 $628 forward $557 $-1 #
edge $-1 $689 -3.2254804823629115 $631 3.2254804823629115 $560 $690 forward 7 unknown #
edge $-1 $630 -3.2254804823629115 $635 3.2254804823629115 $561 $691 forward 7 unknown #
vertex $-1 $683 $692 #
vertex $-1 $682 $693 #
straight-curve $-1 -69.23884046622905 -23.938058636693356 0 0 0 -1 I I #
coedge $-1 $564 $578 $623 $683 forward $337 $-1 #
coedge $-1 $573 $565 $626 $688 forward $430 $-1 #
vertex $-1 $629 $694 #
point $-1 -52.52757086224166 -30.389019601419179 8.0105757215690403 #
coedge $-1 $627 $621 $573 $638 forward $557 $-1 #
edge $-1 $640 -125.94422872946757 $689 4.1778174009968438 $573 $695 forward 7 unknown #
coedge $-1 $581 $574 $621 $680 reversed $582 $-1 #
vertex $-1 $575 $696 #
straight-curve $-1 60.883205664235362 -30.389019601419179 0 0 0 -1 I I #
face $-1 $653 $649 $18 $-1 $697 reversed single #
loop $-1 $-1 $624 $576 #
plane-surface $-1 -60.883205664235362 0 0 1 0 0 0 0 -1 forward_v I I I I #
coedge $-1 $698 $624 $578 $646 reversed $643 $-1 #
edge $-1 $650 -30.389019601419179 $686 23.938058636693356 $645 $699 forward 7 unknown #
coedge $-1 $700 $579 $581 $652 forward $649 $-1 #
coedge $-1 $579 $700 $698 $701 reversed $649 $-1 #
loop $-1 $-1 $647 $642 #
vertex $-1 $580 $702 #
straight-curve $-1 0 30.389019601419179 11.190804926313808 -1 0 0 I I #
edge $-1 $583 -11.190804926313808 $703 11.190804926313808 $581 $704 forward 7 unknown #
face $-1 $-1 $582 $18 $-1 $705 reversed single #
point $-1 60.883205664235362 30.389019601419179 11.190804926313808 #
face $-1 $667 $706 $19 $-1 $707 reversed single #
loop $-1 $-1 $708 $586 #
plane-surface $-1 -65.061023065232206 -23.938058636693356 0 0 -1 0 0 0 -1 forward_v I I I I #
coedge $-1 $709 $710 $711 $712 forward $587 $-1 #
coedge $-1 $589 $713 $714 $715 forward $514 $-1 #
coedge $-1 $714 $596 $590 $661 forward $598 $-1 #
edge $-1 $673 -47.626598524476449 $662 -44.44636931973168 $660 $716 forward 7 unknown #
vertex $-1 $661 $717 #
straight-curve $-1 -52.52757086224166 -47.457693776459479 11.19080492631381 0 1 0 I I #
edge $-1 $594 17.063847999692403 $673 29.330431241596973 $596 $718 forward 7 unknown #
point $-1 -40.26098762033709 -30.389019601419179 8.0105757215690403 #
coedge $-1 $597 $719 $720 $721 reversed $598 $-1 #
face $-1 $722 $598 $19 $-1 $723 reversed single #
coedge $-1 $724 $600 $725 $726 forward $514 $-1 #
coedge $-1 $720 $727 $600 $670 reversed $728 $-1 #
edge $-1 $671 -30.389019601419179 $729 30.389019601419179 $669 $730 forward 7 unknown #
vertex $-1 $670 $731 #
straight-curve $-1 0 -30.389019601419179 11.190804926313808 1 0 0 I I #
vertex $-1 $664 $732 #
straight-curve $-1 -52.52757086224166 -30.389019601419179 8.0105757215690403 0 0.84804809178421925 0.52991927123019833 I I #
point $-1 -52.52757086224166 -25.299589088240754 11.190804926313808 #
straight-curve $-1 0 30.389019601419179 -11.190804926313808 1 0 0 I I #
straight-curve $-1 -60.883205664235362 0 -11.190804926313808 0 1 0 I I #
point $-1 -60.883205664235362 30.389019601419179 -11.190804926313808 #
coedge $-1 $621 $733 $700 $734 forward $557 $-1 #
edge $-1 $703 -30.389019601419179 $640 30.389019601419179 $639 $735 forward 7 unknown #
coedge $-1 $733 $627 $622 $682 forward $557 $-1 #
edge $-1 $631 -4.1778174009968438 $685 4.1778174009968509 $622 $736 forward 7 unknown #
edge $-1 $686 -4.1778174009968509 $630 4.1778174009968438 $623 $737 forward 7 unknown #
coedge $-1 $624 $698 $733 $738 reversed $643 $-1 #
vertex $-1 $738 $739 #
vertex $-1 $683 $740 #
straight-curve $-1 -60.883205664235362 -23.938058636693356 0 0 0 1 I I #
edge $-1 $635 -11.190804926313808 $689 11.190804926313808 $626 $741 forward 7 unknown #
vertex $-1 $628 $742 #
straight-curve $-1 -69.23884046622905 -27.163539119056267 -11.190804926313808 0 1 0 I I #
straight-curve $-1 -69.23884046622905 -27.163539119056267 11.190804926313808 0 -1 0 I I #
point $-1 -69.23884046622905 -23.938058636693356 11.190804926313808 #
point $-1 -69.23884046622905 -23.938058636693356 -11.190804926313808 #
point $-1 -69.23884046622905 -30.389019601419179 11.190804926313808 #
straight-curve $-1 -65.061023065232206 -30.389019601419179 -11.190804926313808 -1 0 0 I I #
point $-1 60.883205664235362 -30.389019601419179 -11.190804926313808 #
plane-surface $-1 0 30.389019601419179 0 0 -1 0 0 0 -1 forward_v I I I I #
coedge $-1 $684 $645 $648 $701 forward $643 $-1 #
straight-curve $-1 -60.883205664235362 0 11.190804926313808 0 -1 0 I I #
coedge $-1 $648 $647 $679 $734 reversed $649 $-1 #
edge $-1 $650 -11.190804926313808 $743 11.190804926313808 $648 $744 forward 7 unknown #
point $-1 -60.883205664235362 30.389019601419179 11.190804926313808 #
vertex $-1 $680 $745 #
straight-curve $-1 60.883205664235362 30.389019601419179 0 0 0 -1 I I #
plane-surface $-1 60.883205664235362 0 0 -1 0 0 0 0 1 forward_v I I I I #
loop $-1 $-1 $746 $655 #
plane-surface $-1 0 0 -11.190804926313808 0 0 1 1 0 0 forward_v I I I I #
coedge $-1 $747 $748 $749 $750 reversed $656 $-1 #
coedge $-1 $751 $658 $752 $753 reversed $587 $-1 #
coedge $-1 $658 $751 $713 $754 reversed $587 $-1 #
coedge $-1 $748 $747 $658 $712 reversed $656 $-1 #
edge $-1 $755 -11.190804926313808 $756 11.190804926313808 $711 $757 forward 7 unknown #
coedge $-1 $659 $758 $710 $754 forward $514 $-1 #
coedge $-1 $759 $660 $659 $715 reversed $598 $-1 #
edge $-1 $760 -69.23884046622905 $662 -52.52757086224166 $714 $672 forward 7 unknown #
straight-curve $-1 -52.52757086224166 -30.389019601419179 55.63717424604549 0 0 1 I I #
point $-1 -52.52757086224166 -30.389019601419179 11.190804926313808 #
straight-curve $-1 -23.197139620644688 -30.389019601419179 8.0105757215690385 -1 0 0 I I #
coedge $-1 $666 $759 $761 $762 reversed $598 $-1 #
coedge $-1 $763 $669 $666 $721 forward $728 $-1 #
edge $-1 $671 -11.190804926313808 $764 11.190804926313808 $720 $765 forward 7 unknown #
face $-1 $766 $767 $19 $-1 $768 reversed single #
plane-surface $-1 0 -30.389019601419179 0 0 1 0 0 0 1 forward_v I I I I #
coedge $-1 $758 $668 $769 $770 forward $514 $-1 #
coedge $-1 $771 $772 $668 $726 reversed $773 $-1 #
edge $-1 $729 -60.883205664235362 $774 60.883205664235362 $725 $775 forward 7 unknown #
coedge $-1 $669 $763 $771 $776 reversed $728 $-1 #
loop $-1 $-1 $720 $777 #
vertex $-1 $670 $778 #
straight-curve $-1 60.883205664235362 0 11.190804926313808 0 1 0 I I #
point $-1 60.883205664235362 -30.389019601419179 11.190804926313808 #
point $-1 -52.52757086224166 -30.389019601419179 8.0105757215690403 #
coedge $-1 $679 $681 $684 $738 forward $557 $-1 #
edge $-1 $743 -60.883205664235362 $703 60.883205664235362 $700 $779 forward 7 unknown #
straight-curve $-1 60.883205664235362 0 -11.190804926313808 0 -1 0 I I #
straight-curve $-1 -65.061023065232206 -23.938058636693356 -11.190804926313808 1 0 0 I I #
straight-curve $-1 -65.061023065232206 -23.938058636693356 11.190804926313808 -1 0 0 I I #
edge $-1 $685 -23.938058636693356 $743 30.389019601419179 $684 $780 forward 7 unknown #
point $-1 -60.883205664235355 -23.938058636693356 -11.190804926313808 #
point $-1 -60.883205664235355 -23.938058636693356 11.190804926313808 #
straight-curve $-1 -69.23884046622905 -30.389019601419179 0 0 0 -1 I I #
point $-1 -69.23884046622905 -30.389019601419179 -11.190804926313808 #
vertex $-1 $734 $781 #
straight-curve $-1 -60.883205664235362 30.389019601419179 0 0 0 -1 I I #
point $-1 60.883205664235362 30.389019601419179 -11.190804926313808 #
coedge $-1 $761 $782 $763 $783 forward $706 $-1 #
coedge $-1 $711 $708 $784 $785 reversed $656 $-1 #
coedge $-1 $708 $711 $758 $786 reversed $656 $-1 #
coedge $-1 $769 $787 $708 $750 forward $767 $-1 #
edge $-1 $788 -11.190804926313808 $789 11.190804926313808 $749 $790 forward 7 unknown #
coedge $-1 $710 $709 $759 $791 reversed $587 $-1 #
coedge $-1 $784 $761 $709 $753 forward $706 $-1 #
edge $-1 $792 -3.2254804823629115 $756 3.2254804823629115 $709 $793 forward 7 unknown #
edge $-1 $755 -3.2254804823629115 $760 3.2254804823629115 $710 $794 forward 7 unknown #
vertex $-1 $786 $795 #
vertex $-1 $785 $796 #
straight-curve $-1 -69.23884046622905 -23.938058636693356 0 0 0 -1 I I #
coedge $-1 $713 $724 $748 $786 forward $514 $-1 #
coedge $-1 $719 $714 $751 $791 forward $598 $-1 #
vertex $-1 $754 $797 #
coedge $-1 $752 $746 $719 $762 forward $706 $-1 #
edge $-1 $764 -125.94422872946757 $792 4.1778174009968438 $719 $798 forward 7 unknown #
coedge $-1 $727 $720 $746 $783 reversed $728 $-1 #
vertex $-1 $721 $799 #
straight-curve $-1 60.883205664235362 -30.389019601419179 0 0 0 -1 I I #
face $-1 $777 $773 $19 $-1 $800 reversed single #
loop $-1 $-1 $749 $722 #
plane-surface $-1 -60.883205664235362 0 0 1 0 0 0 0 -1 forward_v I I I I #
coedge $-1 $801 $749 $724 $770 reversed $767 $-1 #
edge $-1 $774 -30.389019601419179 $789 23.938058636693356 $769 $802 forward 7 unknown #
coedge $-1 $803 $725 $727 $776 forward $773 $-1 #
coedge $-1 $725 $803 $801 $804 reversed $773 $-1 #
loop $-1 $-1 $771 $766 #
vertex $-1 $726 $805 #
straight-curve $-1 0 30.389019601419179 11.190804926313808 -1 0 0 I I #
edge $-1 $729 -11.190804926313808 $806 11.190804926313808 $727 $807 forward 7 unknown #
face $-1 $-1 $728 $19 $-1 $808 reversed single #
point $-1 60.883205664235362 30.389019601419179 11.190804926313808 #
straight-curve $-1 0 30.389019601419179 -11.190804926313808 1 0 0 I I #
straight-curve $-1 -60.883205664235362 0 -11.190804926313808 0 1 0 I I #
point $-1 -60.883205664235362 30.389019601419179 -11.190804926313808 #
coedge $-1 $746 $809 $803 $810 forward $706 $-1 #
edge $-1 $806 -30.389019601419179 $764 30.389019601419179 $763 $811 forward 7 unknown #
coedge $-1 $809 $752 $747 $785 forward $706 $-1 #
edge $-1 $756 -4.1778174009968438 $788 4.1778174009968509 $747 $812 forward 7 unknown #
edge $-1 $789 -4.1778174009968509 $755 4.1778174009968438 $748 $813 forward 7 unknown #
coedge $-1 $749 $801 $809 $814 reversed $767 $-1 #
vertex $-1 $814 $815 #
vertex $-1 $786 $816 #
straight-curve $-1 -60.883205664235362 -23.938058636693356 0 0 0 1 I I #
edge $-1 $760 -11.190804926313808 $792 11.190804926313808 $751 $817 forward 7 unknown #
vertex $-1 $753 $818 #
straight-curve $-1 -69.23884046622905 -27.163539119056267 -11.190804926313808 0 1 0 I I #
straight-curve $-1 -69.23884046622905 -27.163539119056267 11.190804926313808 0 -1 0 I I #
point $-1 -69.23884046622905 -23.938058636693356 11.190804926313808 #
point $-1 -69.23884046622905 -23.938058636693356 -11.190804926313808 #
point $-1 -69.23884046622905 -30.389019601419179 11.190804926313808 #
straight-curve $-1 -65.061023065232206 -30.389019601419179 -11.190804926313808 -1 0 0 I I #
point $-1 60.883205664235362 -30.389019601419179 -11.190804926313808 #
plane-surface $-1 0 30.389019601419179 0 0 -1 0 0 0 -1 forward_v I I I I #
coedge $-1 $787 $769 $772 $804 forward $767 $-1 #
straight-curve $-1 -60.883205664235362 0 11.190804926313808 0 -1 0 I I #
coedge $-1 $772 $771 $782 $810 reversed $773 $-1 #
edge $-1 $774 -11.190804926313808 $819 11.190804926313808 $772 $820 forward 7 unknown #
point $-1 -60.883205664235362 30.389019601419179 11.190804926313808 #
vertex $-1 $783 $821 #
straight-curve $-1 60.883205664235362 30.389019601419179 0 0 0 -1 I I #
plane-surface $-1 60.883205664235362 0 0 -1 0 0 0 0 1 forward_v I I I I #
coedge $-1 $782 $784 $787 $814 forward $706 $-1 #
edge $-1 $819 -60.883205664235362 $806 60.883205664235362 $803 $822 forward 7 unknown #
straight-curve $-1 60.883205664235362 0 -11.190804926313808 0 -1 0 I I #
straight-curve $-1 -65.061023065232206 -23.938058636693356 -11.190804926313808 1 0 0 I I #
straight-curve $-1 -65.061023065232206 -23.938058636693356 11.190804926313808 -1 0 0 I I #
edge $-1 $788 -23.938058636693356 $819 30.389019601419179 $787 $823 forward 7 unknown #
point $-1 -60.883205664235355 -23.938058636693356 -11.190804926313808 #
point $-1 -60.883205664235355 -23.938058636693356 11.190804926313808 #
straight-curve $-1 -69.23884046622905 -30.389019601419179 0 0 0 -1 I I #
point $-1 -69.23884046622905 -30.389019601419179 -11.190804926313808 #
vertex $-1 $810 $824 #
straight-curve $-1 -60.883205664235362 30.389019601419179 0 0 0 -1 I I #
point $-1 60.883205664235362 30.389019601419179 -11.190804926313808 #
straight-curve $-1 0 30.389019601419179 -11.190804926313808 1 0 0 I I #
straight-curve $-1 -60.883205664235362 0 -11.190804926313808 0 1 0 I I #
point $-1 -60.883205664235362 30.389019601419179 -11.190804926313808 #
End-of-ACIS-data 