500 0 8 0           
7 Unknown 11 ACIS 5.0 NT 24 Thu Mar 25 17:29:28 1999 
-1 9.9999999999999995e-007 1e-010 
body $-1 $8 $-1 $9 #
body $-1 $10 $-1 $11 #
body $-1 $12 $-1 $13 #
body $-1 $14 $-1 $15 #
body $-1 $16 $-1 $17 #
body $-1 $18 $-1 $19 #
body $-1 $20 $-1 $21 #
body $-1 $22 $-1 $23 #
lump $-1 $-1 $24 $0 #
transform $-1 1 0 0 0 1 0 0 0 1 59.109469893490399 38.760565409114662 8.4501510361037209 1 rotate no_reflect no_shear #
lump $-1 $-1 $25 $1 #
transform $-1 1 0 0 0 1 0 0 0 1 59.109469893490399 38.760565409114662 8.4501510361037209 1 rotate no_reflect no_shear #
lump $-1 $-1 $26 $2 #
transform $-1 1 0 0 0 1 0 0 0 1 59.109469893490399 38.760565409114662 8.4501510361037209 1 rotate no_reflect no_shear #
lump $-1 $-1 $27 $3 #
transform $-1 1 0 0 0 1 0 0 0 1 59.109469893490399 38.760565409114662 8.4501510361037209 1 rotate no_reflect no_shear #
lump $-1 $-1 $28 $4 #
transform $-1 1 0 0 0 1 0 0 0 1 59.109469893490399 38.760565409114662 8.4501510361037209 1 rotate no_reflect no_shear #
lump $-1 $-1 $29 $5 #
transform $-1 1 0 0 0 1 0 0 0 1 59.109469893490399 38.760565409114662 8.4501510361037209 1 rotate no_reflect no_shear #
lump $-1 $-1 $30 $6 #
transform $-1 1 0 0 0 1 0 0 0 1 59.109469893490399 38.760565409114662 8.4501510361037209 1 rotate no_reflect no_shear #
lump $-1 $-1 $31 $7 #
transform $-1 1 0 0 0 1 0 0 0 1 59.109469893490399 38.760565409114662 8.4501510361037209 1 rotate no_reflect no_shear #
shell $-1 $-1 $-1 $32 $-1 $8 #
shell $-1 $-1 $-1 $33 $-1 $10 #
shell $-1 $-1 $-1 $34 $-1 $12 #
shell $-1 $-1 $-1 $35 $-1 $14 #
shell $-1 $-1 $-1 $36 $-1 $16 #
shell $-1 $-1 $-1 $37 $-1 $18 #
shell $-1 $-1 $-1 $38 $-1 $20 #
shell $-1 $-1 $-1 $39 $-1 $22 #
face $-1 $40 $41 $24 $-1 $42 forward single #
face $-1 $43 $44 $25 $-1 $45 forward single #
face $-1 $46 $47 $26 $-1 $48 reversed single #
face $-1 $49 $50 $27 $-1 $51 forward single #
face $-1 $52 $53 $28 $-1 $54 reversed single #
face $-1 $55 $56 $29 $-1 $57 forward single #
face $-1 $58 $59 $30 $-1 $60 reversed single #
face $-1 $61 $62 $31 $-1 $63 forward single #
face $-1 $64 $65 $24 $-1 $66 reversed single #
loop $-1 $-1 $67 $32 #
plane-surface $-1 0 0 8.4501510361037209 0 0 1 1 0 0 forward_v I I I I #
face $-1 $68 $69 $25 $-1 $70 reversed single #
loop $-1 $-1 $71 $33 #
plane-surface $-1 0 -35.012486178865132 3.962596898148119 0 0 1 1 0 0 forward_v I I I I #
face $-1 $72 $73 $26 $-1 $74 reversed single #
loop $-1 $-1 $75 $34 #
plane-surface $-1 -119.99672586922925 18.45702053533654 103.94263535693236 0 1 0 -0.51503808176128008 0 0.85716729658548041 forward_v I I I I #
face $-1 $76 $77 $27 $-1 $78 forward single #
loop $-1 $79 $80 $35 #
cone-surface $-1 -52.399161528510831 28.608792972225601 2.4510331843358504 0.51503808176128008 0 -0.85716729658548041 1.7143345931709608 0 1.0300761635225602 1 I I 0 1 2 forward I I I I #
face $-1 $81 $82 $28 $-1 $83 reversed single #
loop $-1 $-1 $84 $36 #
plane-surface $-1 64.944208069917138 3.7480792302495285 171.39260913453219 0 -1 0 -0.73135370988377701 0 -0.68199835119979291 forward_v I I I I #
face $-1 $85 $86 $29 $-1 $87 forward single #
loop $-1 $88 $89 $37 #
cone-surface $-1 56.533730655142413 -2.9558710333144091 5.7781103963963112 -0.73135370988377701 0 -0.68199835119979291 0.34099917559989645 0 -0.36567685494188851 1 I I 0 1 0.5 forward I I I I #
face $-1 $90 $91 $30 $-1 $92 reversed single #
loop $-1 $-1 $93 $38 #
plane-surface $-1 -21.515652121818121 32.056615145550722 90.767487119223688 0.73135370988377701 0 0.68199835119979291 0.68199835119979291 0 -0.73135370988377701 forward_v I I I I #
face $-1 $94 $95 $31 $-1 $96 forward single #
loop $-1 $97 $98 $39 #
cone-surface $-1 56.533730655142413 32.056615145550722 5.7781103963963112 -0.73135370988377701 0 -0.68199835119979291 0.34099917559989645 0 -0.36567685494188851 1 I I 0 1 0.5 forward I I I I #
face $-1 $99 $100 $24 $-1 $101 reversed single #
loop $-1 $-1 $102 $40 #
plane-surface $-1 0 0 -8.4501510361037209 0 0 1 1 0 0 forward_v I I I I #
coedge $-1 $103 $104 $105 $106 forward $41 $-1 #
face $-1 $107 $108 $25 $-1 $109 reversed single #
loop $-1 $-1 $110 $43 #
plane-surface $-1 0 -35.012486178865132 0.59599813366190979 0 0 1 1 0 0 forward_v I I I I #
coedge $-1 $111 $112 $113 $114 reversed $44 $-1 #
face $-1 $115 $116 $26 $-1 $117 forward single #
loop $-1 $-1 $118 $46 #
plane-surface $-1 -59.109469893490392 28.608792972225601 2.6092263345243367 -0.51503808176128008 0 0.85716729658548041 0.85716729658548041 0 0.51503808176128008 forward_v I I I I #
coedge $-1 $119 $120 $121 $122 reversed $47 $-1 #
face $-1 $-1 $123 $27 $-1 $124 forward single #
loop $-1 $125 $126 $49 #
cone-surface $-1 -50.034280563167854 28.608792972225601 -1.48478961322781 0.51503808176128008 0 -0.85716729658548041 0.85716729658548041 0 0.51503808176128008 1 I I -0.70710678118654746 0.70710678118654746 1 forward I I I I #
loop $-1 $-1 $127 $35 #
coedge $-1 $80 $80 $128 $129 reversed $50 $-1 #
face $-1 $130 $131 $28 $-1 $132 reversed single #
loop $-1 $-1 $133 $52 #
plane-surface $-1 -21.515652121818121 -2.9558710333144163 90.767487119223688 0.73135370988377701 0 0.68199835119979291 0.68199835119979291 0 -0.73135370988377701 forward_v I I I I #
coedge $-1 $134 $135 $136 $137 reversed $53 $-1 #
face $-1 $-1 $138 $29 $-1 $139 forward single #
loop $-1 $140 $141 $55 #
cone-surface $-1 55.706636055383257 -2.9558710333144091 5.0068322231965947 -0.73135370988377701 0 -0.68199835119979291 0.17049958779994823 0 -0.18283842747094425 1 I I -0.70710678118654746 0.70710678118654746 0.25 forward I I I I #
loop $-1 $-1 $142 $37 #
coedge $-1 $89 $89 $143 $144 reversed $56 $-1 #
face $-1 $145 $146 $30 $-1 $147 reversed single #
loop $-1 $-1 $148 $58 #
plane-surface $-1 64.944208069917138 25.352664881986776 171.39260913453219 0 1 0 0.73135370988377701 0 0.68199835119979291 forward_v I I I I #
coedge $-1 $149 $150 $151 $152 reversed $59 $-1 #
face $-1 $-1 $153 $31 $-1 $154 forward single #
loop $-1 $155 $156 $61 #
cone-surface $-1 55.706636055383257 32.056615145550722 5.0068322231965947 -0.73135370988377701 0 -0.68199835119979291 0.17049958779994823 0 -0.18283842747094425 1 I I -0.70710678118654746 0.70710678118654746 0.25 forward I I I I #
loop $-1 $-1 $157 $39 #
coedge $-1 $98 $98 $158 $159 reversed $62 $-1 #
face $-1 $160 $161 $24 $-1 $162 reversed single #
loop $-1 $-1 $163 $64 #
plane-surface $-1 0 -38.760565409114662 0 0 1 0 0 0 1 forward_v I I I I #
coedge $-1 $164 $165 $166 $167 forward $65 $-1 #
coedge $-1 $168 $67 $169 $170 forward $41 $-1 #
coedge $-1 $67 $168 $171 $172 forward $41 $-1 #
coedge $-1 $173 $174 $67 $106 reversed $175 $-1 #
edge $-1 $176 -38.760565409114662 $177 38.760565409114662 $105 $178 forward 7 unknown #
face $-1 $179 $180 $25 $-1 $181 reversed single #
loop $-1 $-1 $182 $68 #
plane-surface $-1 0 -31.264406948615598 2.2792975159050144 0 -1 0 0 0 -1 forward_v I I I I #
coedge $-1 $183 $184 $185 $186 reversed $69 $-1 #
coedge $-1 $187 $71 $188 $189 forward $44 $-1 #
coedge $-1 $71 $187 $190 $191 reversed $44 $-1 #
coedge $-1 $192 $193 $71 $114 forward $194 $-1 #
edge $-1 $195 13.758163859183032 $196 21.254322319682096 $113 $197 forward 7 unknown #
face $-1 $198 $199 $26 $-1 $200 reversed single #
loop $-1 $-1 $121 $72 #
plane-surface $-1 0 0 8.4501510361037209 0 0 1 1 0 0 forward_v I I I I #
coedge $-1 $201 $202 $203 $204 reversed $73 $-1 #
coedge $-1 $120 $75 $205 $206 reversed $47 $-1 #
coedge $-1 $75 $119 $201 $207 reversed $47 $-1 #
coedge $-1 $203 $208 $75 $122 forward $116 $-1 #
edge $-1 $209 0.88889304112422707 $210 10.609824003919982 $121 $211 forward 7 unknown #
loop $-1 $-1 $128 $76 #
plane-surface $-1 -59.109469893490392 28.608792972225601 2.6092263345243367 -0.51503808176128008 0 0.85716729658548041 0.85716729658548041 0 0.51503808176128008 forward_v I I I I #
loop $-1 $-1 $212 $49 #
coedge $-1 $126 $126 $127 $213 reversed $77 $-1 #
coedge $-1 $127 $127 $126 $213 forward $79 $-1 #
coedge $-1 $128 $128 $80 $129 forward $123 $-1 #
edge $-1 $214 0 $214 6.2831853071796004 $128 $215 forward 7 unknown #
face $-1 $216 $217 $28 $-1 $218 reversed single #
loop $-1 $-1 $219 $81 #
plane-surface $-1 64.944208069917138 -9.659821296878361 171.39260913453219 0 1 0 0.73135370988377701 0 0.68199835119979291 forward_v I I I I #
coedge $-1 $220 $221 $222 $223 reversed $82 $-1 #
coedge $-1 $135 $84 $224 $225 reversed $53 $-1 #
coedge $-1 $84 $134 $220 $226 reversed $53 $-1 #
coedge $-1 $222 $227 $84 $137 forward $228 $-1 #
edge $-1 $229 -26.63736585853183 $230 -22.774399726412248 $136 $231 forward 7 unknown #
loop $-1 $-1 $143 $85 #
plane-surface $-1 -21.515652121818121 -2.9558710333144163 90.767487119223688 0.73135370988377701 0 0.68199835119979291 0.68199835119979291 0 -0.73135370988377701 forward_v I I I I #
loop $-1 $-1 $232 $55 #
coedge $-1 $141 $141 $142 $233 reversed $86 $-1 #
coedge $-1 $142 $142 $141 $233 forward $88 $-1 #
coedge $-1 $143 $143 $89 $144 forward $138 $-1 #
edge $-1 $234 0 $234 6.2831853071796004 $143 $235 forward 7 unknown #
face $-1 $236 $237 $30 $-1 $238 forward single #
loop $-1 $-1 $239 $90 #
plane-surface $-1 59.109469893490399 0 0 -1 0 0 0 0 1 forward_v I I I I #
coedge $-1 $240 $241 $242 $243 reversed $91 $-1 #
coedge $-1 $244 $93 $245 $246 reversed $59 $-1 #
coedge $-1 $93 $244 $240 $247 forward $59 $-1 #
coedge $-1 $242 $248 $93 $152 forward $237 $-1 #
edge $-1 $249 -22.732257836339308 $250 -9.3243573092114147 $151 $251 forward 7 unknown #
loop $-1 $-1 $158 $94 #
plane-surface $-1 -21.515652121818121 32.056615145550722 90.767487119223688 0.73135370988377701 0 0.68199835119979291 0.68199835119979291 0 -0.73135370988377701 forward_v I I I I #
loop $-1 $-1 $252 $61 #
coedge $-1 $156 $156 $157 $253 reversed $95 $-1 #
coedge $-1 $157 $157 $156 $253 forward $97 $-1 #
coedge $-1 $158 $158 $98 $159 forward $153 $-1 #
edge $-1 $254 0 $254 6.2831853071796004 $158 $255 forward 7 unknown #
face $-1 $256 $257 $24 $-1 $258 reversed single #
loop $-1 $-1 $259 $99 #
plane-surface $-1 -59.109469893490399 0 0 1 0 0 0 0 -1 forward_v I I I I #
coedge $-1 $260 $171 $261 $262 forward $100 $-1 #
coedge $-1 $263 $102 $260 $264 forward $65 $-1 #
coedge $-1 $102 $263 $265 $266 forward $65 $-1 #
coedge $-1 $174 $173 $102 $167 reversed $175 $-1 #
edge $-1 $267 -38.760565409114662 $268 38.760565409114662 $166 $269 forward 7 unknown #
coedge $-1 $104 $103 $270 $271 forward $41 $-1 #
coedge $-1 $272 $273 $103 $170 reversed $257 $-1 #
edge $-1 $177 -59.109469893490399 $274 59.109469893490399 $169 $275 forward 7 unknown #
coedge $-1 $163 $276 $104 $172 reversed $100 $-1 #
edge $-1 $277 -59.109469893490399 $176 59.109469893490399 $171 $278 forward 7 unknown #
coedge $-1 $166 $105 $276 $279 forward $175 $-1 #
coedge $-1 $105 $166 $272 $280 reversed $175 $-1 #
loop $-1 $-1 $173 $256 #
vertex $-1 $106 $281 #
vertex $-1 $106 $282 #
straight-curve $-1 59.109469893490399 0 8.4501510361037209 0 1 0 I I #
face $-1 $283 $284 $25 $-1 $285 reversed single #
loop $-1 $-1 $286 $107 #
plane-surface $-1 -59.109469893490399 0 0 1 0 0 0 0 -1 forward_v I I I I #
coedge $-1 $287 $188 $193 $288 reversed $108 $-1 #
coedge $-1 $289 $110 $290 $291 reversed $69 $-1 #
coedge $-1 $110 $289 $287 $292 forward $69 $-1 #
coedge $-1 $193 $192 $110 $186 forward $194 $-1 #
edge $-1 $293 -21.254322319682096 $294 -13.758163859183032 $185 $295 forward 7 unknown #
coedge $-1 $112 $111 $286 $296 reversed $44 $-1 #
coedge $-1 $182 $297 $111 $189 reversed $108 $-1 #
edge $-1 $195 -59.109469893490399 $298 59.109469893490399 $188 $299 forward 7 unknown #
coedge $-1 $300 $301 $112 $191 forward $284 $-1 #
edge $-1 $196 -59.109469893490399 $302 59.109469893490399 $190 $303 forward 7 unknown #
coedge $-1 $185 $113 $301 $304 forward $194 $-1 #
coedge $-1 $113 $185 $182 $288 forward $194 $-1 #
loop $-1 $-1 $113 $283 #
vertex $-1 $114 $305 #
vertex $-1 $304 $306 #
straight-curve $-1 59.109469893490399 -17.506243089432566 3.962596898148119 0 -1 0 I I #
face $-1 $-1 $307 $26 $-1 $308 reversed single #
loop $-1 $-1 $309 $115 #
plane-surface $-1 0 38.760565409114662 0 0 -1 0 0 0 -1 forward_v I I I I #
coedge $-1 $310 $118 $120 $207 forward $73 $-1 #
coedge $-1 $118 $310 $309 $311 reversed $73 $-1 #
coedge $-1 $312 $121 $118 $204 forward $116 $-1 #
edge $-1 $210 4.1526240492237392 $313 24.456168923001862 $203 $314 forward 7 unknown #
coedge $-1 $315 $316 $119 $206 forward $307 $-1 #
edge $-1 $317 -49.362091343941849 $209 -43.521166642362459 $205 $318 forward 7 unknown #
edge $-1 $210 -11.340762767687245 $317 8.3777685069199533e-015 $120 $319 forward 7 unknown #
coedge $-1 $121 $312 $315 $320 forward $116 $-1 #
vertex $-1 $206 $321 #
vertex $-1 $122 $322 #
straight-curve $-1 -59.998362934614626 18.45702053533654 8.4501510361037191 1 0 0 I I #
coedge $-1 $212 $212 $-1 $323 reversed $125 $-1 #
edge $-1 $324 0 $324 6.2831853071796004 $126 $325 forward 7 unknown #
vertex $-1 $129 $326 #
ellipse-curve $-1 -54.249004412092525 28.608792972225601 5.5296886853140244 -0.51503808176128008 0 0.85716729658548041 1.7143345931709608 0 1.0300761635225602 1 I I #
face $-1 $-1 $228 $28 $-1 $327 forward single #
loop $-1 $-1 $328 $130 #
plane-surface $-1 59.109469893490399 0 0 -1 0 0 0 0 1 forward_v I I I I #
coedge $-1 $329 $330 $331 $332 reversed $131 $-1 #
coedge $-1 $333 $133 $135 $226 forward $82 $-1 #
coedge $-1 $133 $333 $329 $334 forward $82 $-1 #
coedge $-1 $331 $136 $133 $223 forward $228 $-1 #
edge $-1 $230 -5.2260147469067366 $335 8.1818857802211529 $222 $336 forward 7 unknown #
coedge $-1 $337 $338 $134 $225 forward $217 $-1 #
edge $-1 $339 -81.388677639777683 $229 -77.246153531162378 $224 $340 forward 7 unknown #
edge $-1 $230 112.55475287901584 $339 118.21893978698081 $135 $341 forward 7 unknown #
coedge $-1 $136 $331 $337 $342 forward $228 $-1 #
loop $-1 $-1 $331 $216 #
vertex $-1 $225 $343 #
vertex $-1 $137 $344 #
straight-curve $-1 32.472104034958569 3.7480792302495285 8.4501510361037191 -1 0 0 I I #
coedge $-1 $232 $232 $-1 $345 reversed $140 $-1 #
edge $-1 $346 0 $346 6.2831853071796004 $141 $347 forward 7 unknown #
vertex $-1 $144 $348 #
ellipse-curve $-1 57.177986827430608 -2.9558710333144091 6.3788889817960674 0.73135370988377701 0 0.68199835119979291 0.34099917559989645 0 -0.36567685494188851 1 I I #
face $-1 $-1 $349 $30 $-1 $350 reversed single #
loop $-1 $-1 $242 $145 #
plane-surface $-1 0 0 8.4501510361037209 0 0 1 1 0 0 forward_v I I I I #
coedge $-1 $351 $352 $241 $353 forward $146 $-1 #
coedge $-1 $241 $148 $150 $247 reversed $91 $-1 #
coedge $-1 $148 $240 $239 $353 reversed $91 $-1 #
coedge $-1 $354 $151 $148 $243 forward $237 $-1 #
edge $-1 $250 22.774399726412248 $355 26.63736585853183 $242 $356 forward 7 unknown #
coedge $-1 $150 $149 $351 $357 reversed $59 $-1 #
coedge $-1 $358 $359 $149 $246 forward $349 $-1 #
edge $-1 $360 -77.690550930210577 $249 -72.026364022245588 $245 $361 forward 7 unknown #
edge $-1 $362 -118.21893978698081 $250 -112.55475287901584 $240 $363 forward 7 unknown #
coedge $-1 $151 $354 $358 $364 forward $237 $-1 #
vertex $-1 $246 $365 #
vertex $-1 $152 $366 #
straight-curve $-1 55.246503761370832 16.028307572775361 8.450151036103712 0 -1 0 I I #
coedge $-1 $252 $252 $-1 $367 reversed $155 $-1 #
edge $-1 $368 0 $368 6.2831853071796004 $156 $369 forward 7 unknown #
vertex $-1 $159 $370 #
ellipse-curve $-1 57.177986827430608 32.056615145550722 6.3788889817960674 0.73135370988377701 0 0.68199835119979291 0.34099917559989645 0 -0.36567685494188851 1 I I #
face $-1 $-1 $175 $24 $-1 $371 reversed single #
loop $-1 $-1 $272 $160 #
plane-surface $-1 0 38.760565409114662 0 0 -1 0 0 0 -1 forward_v I I I I #
coedge $-1 $372 $270 $273 $373 forward $161 $-1 #
coedge $-1 $276 $163 $164 $264 reversed $100 $-1 #
coedge $-1 $270 $372 $163 $262 reversed $161 $-1 #
edge $-1 $277 -8.4501510361037209 $374 8.4501510361037209 $261 $375 forward 7 unknown #
coedge $-1 $165 $164 $372 $376 forward $65 $-1 #
edge $-1 $268 -59.109469893490399 $374 59.109469893490399 $260 $377 forward 7 unknown #
coedge $-1 $273 $272 $165 $266 reversed $257 $-1 #
edge $-1 $378 -59.109469893490399 $267 59.109469893490399 $265 $379 forward 7 unknown #
vertex $-1 $167 $380 #
vertex $-1 $279 $381 #
straight-curve $-1 59.109469893490399 0 -8.4501510361037209 0 -1 0 I I #
coedge $-1 $259 $261 $168 $271 reversed $161 $-1 #
edge $-1 $274 -38.760565409114662 $277 38.760565409114662 $270 $382 forward 7 unknown #
coedge $-1 $265 $169 $174 $280 forward $257 $-1 #
coedge $-1 $169 $265 $259 $373 reversed $257 $-1 #
vertex $-1 $170 $383 #
straight-curve $-1 0 38.760565409114662 8.4501510361037209 -1 0 0 I I #
coedge $-1 $171 $260 $173 $279 reversed $100 $-1 #
vertex $-1 $271 $384 #
straight-curve $-1 0 -38.760565409114662 8.4501510361037209 1 0 0 I I #
edge $-1 $176 -8.4501510361037209 $268 8.4501510361037209 $173 $385 forward 7 unknown #
edge $-1 $177 -8.4501510361037209 $267 8.4501510361037209 $174 $386 forward 7 unknown #
point $-1 59.109469893490399 -38.760565409114662 8.4501510361037209 #
point $-1 59.109469893490399 38.760565409114662 8.4501510361037209 #
face $-1 $-1 $194 $25 $-1 $387 reversed single #
loop $-1 $-1 $190 $179 #
plane-surface $-1 0 -38.760565409114662 0 0 1 0 0 0 1 forward_v I I I I #
coedge $-1 $388 $389 $187 $296 forward $180 $-1 #
coedge $-1 $297 $182 $184 $292 reversed $108 $-1 #
edge $-1 $294 -0.54365062429059741 $195 2.8229481401956118 $193 $390 forward 7 unknown #
coedge $-1 $184 $183 $391 $392 reversed $69 $-1 #
coedge $-1 $301 $300 $183 $291 forward $284 $-1 #
edge $-1 $393 -59.109469893490399 $293 59.109469893490399 $290 $394 forward 7 unknown #
edge $-1 $395 -59.109469893490399 $294 59.109469893490399 $287 $396 forward 7 unknown #
vertex $-1 $291 $397 #
vertex $-1 $186 $398 #
straight-curve $-1 59.109469893490399 -17.506243089432566 0.59599813366190979 0 1 0 I I #
edge $-1 $302 -21.254322319682096 $298 -13.758163859183032 $286 $399 forward 7 unknown #
coedge $-1 $188 $287 $388 $400 reversed $108 $-1 #
vertex $-1 $296 $401 #
straight-curve $-1 0 -31.264406948615598 3.962596898148119 -1 0 0 I I #
coedge $-1 $290 $190 $389 $402 forward $284 $-1 #
coedge $-1 $190 $290 $192 $304 reversed $284 $-1 #
vertex $-1 $402 $403 #
straight-curve $-1 0 -38.760565409114662 3.962596898148119 -1 0 0 I I #
edge $-1 $196 -3.962596898148119 $293 -0.59599813366190979 $192 $404 forward 7 unknown #
point $-1 59.109469893490399 -31.264406948615598 3.962596898148119 #
point $-1 59.109469893490399 -38.760565409114662 3.962596898148119 #
loop $-1 $-1 $205 $198 #
plane-surface $-1 -59.109469893490399 0 0 1 0 0 0 0 -1 forward_v I I I I #
coedge $-1 $405 $406 $202 $311 forward $199 $-1 #
coedge $-1 $202 $201 $316 $407 reversed $73 $-1 #
edge $-1 $313 13.320664024807542 $408 24.661426792494794 $309 $409 forward 7 unknown #
coedge $-1 $208 $203 $406 $410 forward $116 $-1 #
vertex $-1 $410 $411 #
straight-curve $-1 -49.388538930694644 14.3043964861128 8.4501510361037209 0 1 0 I I #
coedge $-1 $412 $205 $208 $320 reversed $307 $-1 #
coedge $-1 $205 $412 $310 $407 forward $307 $-1 #
vertex $-1 $206 $413 #
straight-curve $-1 -59.109469893490399 18.45702053533654 51.971317678466178 0 0 1 I I #
straight-curve $-1 -59.109469893490392 18.45702053533654 2.6092263345243367 -0.85716729658548041 0 -0.51503808176128008 I I #
edge $-1 $414 -38.760565409114662 $209 -18.45702053533654 $315 $415 forward 7 unknown #
point $-1 -59.109469893490399 18.45702053533654 8.4501510361037209 #
point $-1 -49.388538930694644 18.45702053533654 8.4501510361037209 #
edge $-1 $416 1 $416 0 $212 $-1 forward 7 unknown #
vertex $-1 $213 $417 #
ellipse-curve $-1 -50.549318644929137 28.608792972225601 -0.62762231664232959 -0.51503808176128008 0 0.85716729658548041 1.7143345931709608 0 1.0300761635225602 1 I I #
point $-1 -52.534669818921572 28.608792972225601 6.5597648488365907 #
plane-surface $-1 0 0 8.4501510361037209 0 0 1 1 0 0 forward_v I I I I #
coedge $-1 $338 $337 $330 $418 forward $217 $-1 #
coedge $-1 $330 $219 $221 $334 reversed $131 $-1 #
coedge $-1 $219 $329 $328 $418 reversed $131 $-1 #
coedge $-1 $227 $222 $219 $332 forward $228 $-1 #
edge $-1 $335 22.774399726412248 $419 26.63736585853183 $331 $420 forward 7 unknown #
coedge $-1 $221 $220 $338 $421 reversed $82 $-1 #
edge $-1 $422 -118.21893978698081 $335 -112.55475287901584 $329 $423 forward 7 unknown #
vertex $-1 $223 $424 #
straight-curve $-1 55.246503761370832 -1.4779355166572081 8.450151036103712 0 -1 0 I I #
coedge $-1 $328 $224 $227 $342 reversed $217 $-1 #
coedge $-1 $224 $328 $333 $421 forward $217 $-1 #
vertex $-1 $225 $425 #
straight-curve $-1 59.109469893490399 3.7480792302495285 85.696304567266097 0 0 1 I I #
straight-curve $-1 -21.515652121818121 3.7480792302495285 90.767487119223688 0.68199835119979291 0 -0.73135370988377701 I I #
edge $-1 $419 -9.659821296878361 $229 3.7480792302495285 $337 $426 forward 7 unknown #
point $-1 59.109469893490399 3.7480792302495285 8.4501510361037209 #
point $-1 55.246503761370818 3.7480792302495285 8.4501510361037191 #
edge $-1 $427 1 $427 0 $232 $-1 forward 7 unknown #
vertex $-1 $233 $428 #
ellipse-curve $-1 55.889474482854197 -2.9558710333144091 5.1773318109965434 0.73135370988377701 0 0.68199835119979291 0.34099917559989645 0 -0.36567685494188851 1 I I #
point $-1 57.518986003030513 -2.9558710333144091 6.0132121268541914 #
loop $-1 $-1 $245 $236 #
plane-surface $-1 0 38.760565409114662 0 0 -1 0 0 0 -1 forward_v I I I I #
coedge $-1 $429 $239 $244 $357 forward $146 $-1 #
coedge $-1 $239 $429 $354 $430 reversed $146 $-1 #
edge $-1 $355 77.246153531162378 $362 81.388677639777683 $239 $431 forward 7 unknown #
coedge $-1 $248 $242 $352 $430 forward $237 $-1 #
vertex $-1 $430 $432 #
straight-curve $-1 32.472104034958569 25.352664881986776 8.4501510361037191 1 0 0 I I #
edge $-1 $362 9.3243573092114147 $360 22.732257836339308 $351 $433 forward 7 unknown #
coedge $-1 $359 $245 $248 $364 reversed $349 $-1 #
coedge $-1 $245 $358 $429 $434 forward $349 $-1 #
vertex $-1 $246 $435 #
straight-curve $-1 6.1246422552832414 38.760565409114662 61.126899573212441 -0.68199835119979291 0 0.73135370988377701 I I #
vertex $-1 $357 $436 #
straight-curve $-1 -21.515652121818121 25.352664881986776 90.767487119223688 -0.68199835119979291 0 0.73135370988377701 I I #
edge $-1 $437 -59.109469893490399 $249 -55.246503761370818 $358 $438 forward 7 unknown #
point $-1 55.246503761370818 38.760565409114669 8.4501510361037191 #
point $-1 55.246503761370818 25.352664881986776 8.4501510361037191 #
edge $-1 $439 1 $439 0 $252 $-1 forward 7 unknown #
vertex $-1 $253 $440 #
ellipse-curve $-1 55.889474482854197 32.056615145550722 5.1773318109965434 0.73135370988377701 0 0.68199835119979291 0.34099917559989645 0 -0.36567685494188851 1 I I #
point $-1 57.518986003030513 32.056615145550722 6.0132121268541914 #
plane-surface $-1 59.109469893490399 0 0 -1 0 0 0 0 1 forward_v I I I I #
coedge $-1 $261 $259 $263 $376 reversed $161 $-1 #
edge $-1 $274 -8.4501510361037209 $378 8.4501510361037209 $273 $441 forward 7 unknown #
vertex $-1 $376 $442 #
straight-curve $-1 -59.109469893490399 -38.760565409114662 0 0 0 -1 I I #
edge $-1 $374 -38.760565409114662 $378 38.760565409114662 $372 $443 forward 7 unknown #
straight-curve $-1 0 -38.760565409114662 -8.4501510361037209 -1 0 0 I I #
vertex $-1 $266 $444 #
straight-curve $-1 0 38.760565409114662 -8.4501510361037209 1 0 0 I I #
point $-1 59.109469893490399 38.760565409114662 -8.4501510361037209 #
point $-1 59.109469893490399 -38.760565409114662 -8.4501510361037209 #
straight-curve $-1 -59.109469893490399 0 8.4501510361037209 0 -1 0 I I #
point $-1 -59.109469893490399 38.760565409114662 8.4501510361037209 #
point $-1 -59.109469893490399 -38.760565409114662 8.4501510361037209 #
straight-curve $-1 59.109469893490399 -38.760565409114662 0 0 0 -1 I I #
straight-curve $-1 59.109469893490399 38.760565409114662 0 0 0 -1 I I #
plane-surface $-1 59.109469893490399 0 0 -1 0 0 0 0 1 forward_v I I I I #
coedge $-1 $391 $286 $297 $400 forward $180 $-1 #
coedge $-1 $286 $391 $300 $402 reversed $180 $-1 #
straight-curve $-1 59.109469893490399 -31.264406948615598 1.1396487579525072 0 0 1 I I #
coedge $-1 $389 $388 $289 $392 forward $180 $-1 #
edge $-1 $395 13.758163859183032 $393 21.254322319682096 $391 $445 forward 7 unknown #
vertex $-1 $291 $446 #
straight-curve $-1 0 -38.760565409114662 0.59599813366190979 1 0 0 I I #
vertex $-1 $392 $447 #
straight-curve $-1 0 -31.264406948615598 0.59599813366190979 1 0 0 I I #
point $-1 59.109469893490399 -38.760565409114662 0.59599813366190979 #
point $-1 59.109469893490399 -31.264406948615598 0.59599813366190979 #
straight-curve $-1 -59.109469893490399 -17.506243089432566 3.962596898148119 0 1 0 I I #
edge $-1 $298 -2.8229481401956118 $395 0.54365062429059741 $388 $448 forward 7 unknown #
point $-1 -59.109469893490399 -31.264406948615598 3.962596898148119 #
edge $-1 $302 -3.962596898148119 $393 -0.59599813366190979 $389 $449 forward 7 unknown #
point $-1 -59.109469893490399 -38.760565409114662 3.962596898148119 #
straight-curve $-1 59.109469893490399 -38.760565409114662 0 0 0 -1 I I #
coedge $-1 $406 $309 $412 $450 reversed $199 $-1 #
coedge $-1 $309 $405 $312 $410 reversed $199 $-1 #
edge $-1 $408 -24.456168923001862 $317 -4.1526240492237392 $316 $451 forward 7 unknown #
vertex $-1 $311 $452 #
straight-curve $-1 -37.970501359826898 38.760565409114662 15.310800283227088 -0.85716729658548041 0 -0.51503808176128008 I I #
edge $-1 $313 49.388538930694644 $414 59.109469893490399 $406 $453 forward 7 unknown #
point $-1 -49.388538930694644 38.760565409114662 8.4501510361037209 #
coedge $-1 $316 $315 $405 $450 forward $307 $-1 #
point $-1 -59.109469893490399 18.45702053533654 2.6092263345243323 #
vertex $-1 $410 $454 #
straight-curve $-1 -59.109469893490399 0 8.4501510361037209 0 -1 0 I I #
vertex $-1 $323 $455 #
point $-1 -48.834984051758177 28.608792972225601 0.40245384688023056 #
edge $-1 $419 77.246153531162378 $422 81.388677639777683 $328 $456 forward 7 unknown #
vertex $-1 $342 $457 #
straight-curve $-1 32.472104034958569 -9.659821296878361 8.4501510361037191 1 0 0 I I #
edge $-1 $422 -8.1818857802211529 $339 5.2260147469067366 $338 $458 forward 7 unknown #
vertex $-1 $421 $459 #
straight-curve $-1 -21.515652121818121 -9.659821296878361 90.767487119223688 -0.68199835119979291 0 0.73135370988377701 I I #
point $-1 55.246503761370818 -9.659821296878361 8.4501510361037191 #
point $-1 59.109469893490399 3.7480792302495285 4.307626927488414 #
straight-curve $-1 59.109469893490399 0 8.4501510361037209 0 1 0 I I #
vertex $-1 $345 $460 #
point $-1 56.230473658454095 -2.9558710333144091 4.8116549560546549 #
coedge $-1 $352 $351 $359 $434 reversed $146 $-1 #
edge $-1 $355 25.352664881986776 $437 38.760565409114662 $352 $461 forward 7 unknown #
straight-curve $-1 59.109469893490399 25.352664881986776 85.696304567266097 0 0 -1 I I #
point $-1 59.109469893490399 25.352664881986776 8.4501510361037209 #
straight-curve $-1 59.109469893490399 16.028307572775361 4.3076269274884069 0 1 0 I I #
edge $-1 $437 -8.4501510361037209 $360 -4.307626927488414 $429 $462 forward 7 unknown #
point $-1 59.109469893490399 38.760565409114669 4.307626927488414 #
point $-1 59.109469893490399 25.352664881986776 4.307626927488414 #
vertex $-1 $430 $463 #
straight-curve $-1 0 38.760565409114662 8.4501510361037209 -1 0 0 I I #
vertex $-1 $367 $464 #
point $-1 56.230473658454095 32.056615145550722 4.8116549560546549 #
straight-curve $-1 -59.109469893490399 38.760565409114662 0 0 0 -1 I I #
point $-1 -59.109469893490399 -38.760565409114662 -8.4501510361037209 #
straight-curve $-1 -59.109469893490399 0 -8.4501510361037209 0 1 0 I I #
point $-1 -59.109469893490399 38.760565409114662 -8.4501510361037209 #
straight-curve $-1 -59.109469893490399 -17.506243089432566 0.59599813366190979 0 -1 0 I I #
point $-1 -59.109469893490399 -38.760565409114662 0.59599813366190979 #
point $-1 -59.109469893490399 -31.264406948615598 0.59599813366190979 #
straight-curve $-1 -59.109469893490399 -31.264406948615598 1.1396487579525072 0 0 -1 I I #
straight-curve $-1 -59.109469893490399 -38.760565409114662 0 0 0 -1 I I #
edge $-1 $414 -8.4501510361037209 $408 -2.6092263345243323 $405 $465 forward 7 unknown #
straight-curve $-1 -59.109469893490399 14.3043964861128 2.6092263345243358 0 -1 0 I I #
point $-1 -59.109469893490399 38.760565409114662 2.6092263345243323 #
straight-curve $-1 0 38.760565409114662 8.4501510361037209 -1 0 0 I I #
point $-1 -59.109469893490399 38.760565409114662 8.4501510361037209 #
point $-1 -49.519242481406572 28.608792972225601 -2.3419569098132902 #
straight-curve $-1 59.109469893490399 -9.659821296878361 85.696304567266097 0 0 -1 I I #
point $-1 59.109469893490399 -9.659821296878361 8.4501510361037209 #
straight-curve $-1 59.109469893490399 -1.4779355166572081 4.3076269274884069 0 1 0 I I #
point $-1 59.109469893490399 -9.659821296878361 4.307626927488414 #
point $-1 55.523797627912316 -2.9558710333144091 4.836332635396646 #
straight-curve $-1 59.109469893490399 0 8.4501510361037209 0 1 0 I I #
straight-curve $-1 59.109469893490399 38.760565409114662 0 0 0 -1 I I #
point $-1 59.109469893490399 38.760565409114662 8.4501510361037209 #
point $-1 55.523797627912316 32.056615145550722 4.836332635396646 #
straight-curve $-1 -59.109469893490399 38.760565409114662 0 0 0 -1 I I #
End-of-ACIS-data 