500 0 10 0           
7 Unknown 11 ACIS 5.0 NT 24 Fri Mar 26 03:24:02 1999 
-1 9.9999999999999995e-007 1e-010 
body $-1 $10 $-1 $11 #
body $-1 $12 $-1 $13 #
body $-1 $14 $-1 $15 #
body $-1 $16 $-1 $17 #
body $-1 $18 $-1 $19 #
body $-1 $20 $-1 $21 #
body $-1 $22 $-1 $23 #
body $-1 $24 $-1 $25 #
body $-1 $26 $-1 $27 #
body $-1 $28 $-1 $29 #
lump $-1 $-1 $30 $0 #
transform $-1 1 0 0 0 1 0 0 0 1 58.927579577013461 25.058473496754292 5.3312825796662251 1 rotate no_reflect no_shear #
lump $-1 $-1 $31 $1 #
transform $-1 1 0 0 0 1 0 0 0 1 58.927579577013461 25.058473496754292 5.3312825796662251 1 rotate no_reflect no_shear #
lump $-1 $-1 $32 $2 #
transform $-1 1 0 0 0 1 0 0 0 1 58.927579577013461 25.058473496754292 5.3312825796662251 1 rotate no_reflect no_shear #
lump $-1 $-1 $33 $3 #
transform $-1 1 0 0 0 1 0 0 0 1 58.927579577013461 25.058473496754292 5.3312825796662251 1 rotate no_reflect no_shear #
lump $-1 $-1 $34 $4 #
transform $-1 1 0 0 0 1 0 0 0 1 58.927579577013461 25.058473496754292 5.3312825796662251 1 rotate no_reflect no_shear #
lump $-1 $-1 $35 $5 #
transform $-1 1 0 0 0 1 0 0 0 1 58.927579577013461 25.058473496754292 5.3312825796662251 1 rotate no_reflect no_shear #
lump $-1 $-1 $36 $6 #
transform $-1 1 0 0 0 1 0 0 0 1 58.927579577013461 25.058473496754292 5.3312825796662251 1 rotate no_reflect no_shear #
lump $-1 $-1 $37 $7 #
transform $-1 1 0 0 0 1 0 0 0 1 58.927579577013461 25.058473496754292 5.3312825796662251 1 rotate no_reflect no_shear #
lump $-1 $-1 $38 $8 #
transform $-1 1 0 0 0 1 0 0 0 1 58.927579577013461 25.058473496754292 5.3312825796662251 1 rotate no_reflect no_shear #
lump $-1 $-1 $39 $9 #
transform $-1 1 0 0 0 1 0 0 0 1 58.927579577013461 25.058473496754292 5.3312825796662251 1 rotate no_reflect no_shear #
shell $-1 $-1 $-1 $40 $-1 $10 #
shell $-1 $-1 $-1 $41 $-1 $12 #
shell $-1 $-1 $-1 $42 $-1 $14 #
shell $-1 $-1 $-1 $43 $-1 $16 #
shell $-1 $-1 $-1 $44 $-1 $18 #
shell $-1 $-1 $-1 $45 $-1 $20 #
shell $-1 $-1 $-1 $46 $-1 $22 #
shell $-1 $-1 $-1 $47 $-1 $24 #
shell $-1 $-1 $-1 $48 $-1 $26 #
shell $-1 $-1 $-1 $49 $-1 $28 #
face $-1 $50 $51 $30 $-1 $52 forward single #
face $-1 $53 $54 $31 $-1 $55 forward single #
face $-1 $56 $57 $32 $-1 $58 forward single #
face $-1 $59 $60 $33 $-1 $61 reversed single #
face $-1 $62 $63 $34 $-1 $64 forward single #
face $-1 $65 $66 $35 $-1 $67 forward single #
face $-1 $68 $69 $36 $-1 $70 reversed single #
face $-1 $71 $72 $37 $-1 $73 forward single #
face $-1 $74 $75 $38 $-1 $76 forward single #
face $-1 $77 $78 $39 $-1 $79 forward single #
face $-1 $80 $81 $30 $-1 $82 reversed single #
loop $-1 $-1 $83 $40 #
plane-surface $-1 0 0 5.3312825796662251 0 0 1 1 0 0 forward_v I I I I #
face $-1 $84 $85 $31 $-1 $86 reversed single #
loop $-1 $-1 $87 $41 #
plane-surface $-1 0 -22.484053157606798 2.0028945699986096 0 0 1 1 0 0 forward_v I I I I #
face $-1 $88 $89 $32 $-1 $90 reversed single #
loop $-1 $-1 $91 $42 #
plane-surface $-1 0 22.484053157606798 2.0028945699986096 0 0 1 1 0 0 forward_v I I I I #
face $-1 $92 $93 $33 $-1 $94 reversed single #
loop $-1 $-1 $95 $43 #
plane-surface $-1 -58.927579577013461 14.646509422753422 0.8399646637025171 -0.55919291073839883 0 0.82903756765294845 0.82903756765294845 0 0.55919291073839883 forward_v I I I I #
face $-1 $96 $97 $34 $-1 $98 forward single #
loop $-1 $99 $100 $44 #
cone-surface $-1 -54.756174533910929 12.390885110308044 1.837190504215827 0.55919291073839883 0 -0.82903756765294845 1.2435563514794228 0 0.83878936610759824 1 I I 0 1 1.5 forward I I I I #
face $-1 $101 $102 $35 $-1 $103 forward single #
loop $-1 $104 $105 $45 #
cone-surface $-1 -54.756174533910929 16.902133735198799 1.837190504215827 0.55919291073839883 0 -0.82903756765294845 1.2435563514794228 0 0.83878936610759824 1 I I 0 1 1.5 forward I I I I #
face $-1 $106 $107 $36 $-1 $108 reversed single #
loop $-1 $-1 $109 $46 #
plane-surface $-1 53.110799789501812 8.405336387626857 166.98249033597503 0 1 0 0.68199836817093118 0 0.7313536940579346 forward_v I I I I #
face $-1 $110 $111 $37 $-1 $112 forward single #
loop $-1 $113 $114 $47 #
cone-surface $-1 55.17417762991839 10.706195673793342 1.6751612193967043 -0.68199836817093118 0 -0.7313536940579346 0.7313536940579346 0 -0.68199836817093118 1 I I 0 1 1 forward I I I I #
face $-1 $115 $116 $38 $-1 $117 forward single #
loop $-1 $118 $119 $48 #
cone-surface $-1 55.17417762991839 14.157484603043077 1.6751612193967043 -0.68199836817093118 0 -0.7313536940579346 0.7313536940579346 0 -0.68199836817093118 1 I I 0 1 1 forward I I I I #
face $-1 $120 $121 $39 $-1 $122 forward single #
loop $-1 $123 $124 $49 #
cone-surface $-1 55.17417762991839 17.608773532292812 1.6751612193967043 -0.68199836817093118 0 -0.7313536940579346 0.7313536940579346 0 -0.68199836817093118 1 I I 0 1 1 forward I I I I #
face $-1 $125 $126 $30 $-1 $127 reversed single #
loop $-1 $-1 $128 $50 #
plane-surface $-1 0 0 -5.3312825796662251 0 0 1 1 0 0 forward_v I I I I #
coedge $-1 $129 $130 $131 $132 forward $51 $-1 #
face $-1 $133 $134 $31 $-1 $135 reversed single #
loop $-1 $-1 $136 $53 #
plane-surface $-1 0 -22.484053157606798 -0.9971054300013904 0 0 1 1 0 0 forward_v I I I I #
coedge $-1 $137 $138 $139 $140 reversed $54 $-1 #
face $-1 $141 $142 $32 $-1 $143 reversed single #
loop $-1 $-1 $144 $56 #
plane-surface $-1 0 22.484053157606798 -0.9971054300013904 0 0 1 1 0 0 forward_v I I I I #
coedge $-1 $145 $146 $147 $148 reversed $57 $-1 #
face $-1 $149 $150 $33 $-1 $151 forward single #
loop $-1 $-1 $152 $59 #
plane-surface $-1 -124.83134906989102 9.3833860270475391 98.546319144108111 0 1 0 -0.55919291073839883 0 0.82903756765294845 forward_v I I I I #
coedge $-1 $153 $154 $155 $156 reversed $60 $-1 #
face $-1 $-1 $157 $34 $-1 $158 forward single #
loop $-1 $159 $160 $62 #
cone-surface $-1 -53.494701064493029 12.390885110308044 -0.033020788992415007 0.55919291073839883 0 -0.82903756765294845 0.62177817573971139 0 0.41939468305379912 1 I I -0.70710678118654757 0.70710678118654757 0.75 forward I I I I #
loop $-1 $-1 $161 $44 #
coedge $-1 $100 $100 $162 $163 reversed $63 $-1 #
face $-1 $-1 $164 $35 $-1 $165 forward single #
loop $-1 $166 $167 $65 #
cone-surface $-1 -53.494701064493029 16.902133735198799 -0.033020788992415007 0.55919291073839883 0 -0.82903756765294845 0.62177817573971139 0 0.41939468305379912 1 I I -0.70710678118654757 0.70710678118654757 0.75 forward I I I I #
loop $-1 $-1 $168 $45 #
coedge $-1 $105 $105 $169 $170 reversed $66 $-1 #
face $-1 $171 $172 $36 $-1 $173 forward single #
loop $-1 $-1 $174 $68 #
plane-surface $-1 -27.266226434069935 14.157484603043077 80.788684324891634 0.68199836817093118 0 0.7313536940579346 0.7313536940579346 0 -0.68199836817093118 forward_v I I I I #
coedge $-1 $175 $176 $177 $178 reversed $69 $-1 #
face $-1 $-1 $179 $37 $-1 $180 forward single #
loop $-1 $181 $182 $71 #
cone-surface $-1 53.717602117929559 10.706195673793342 0.11317525127138328 -0.68199836817093118 0 -0.7313536940579346 0.3656768470289673 0 -0.34099918408546559 1 I I -0.70710678118654746 0.70710678118654746 0.5 forward I I I I #
loop $-1 $-1 $183 $47 #
coedge $-1 $114 $114 $184 $185 reversed $72 $-1 #
face $-1 $-1 $186 $38 $-1 $187 forward single #
loop $-1 $188 $189 $74 #
cone-surface $-1 53.717602117929559 14.157484603043077 0.11317525127138328 -0.68199836817093118 0 -0.7313536940579346 0.3656768470289673 0 -0.34099918408546559 1 I I -0.70710678118654746 0.70710678118654746 0.5 forward I I I I #
loop $-1 $-1 $190 $48 #
coedge $-1 $119 $119 $191 $192 reversed $75 $-1 #
face $-1 $-1 $193 $39 $-1 $194 forward single #
loop $-1 $195 $196 $77 #
cone-surface $-1 53.717602117929559 17.608773532292812 0.11317525127138328 -0.68199836817093118 0 -0.7313536940579346 0.3656768470289673 0 -0.34099918408546559 1 I I -0.70710678118654746 0.70710678118654746 0.5 forward I I I I #
loop $-1 $-1 $197 $49 #
coedge $-1 $124 $124 $198 $199 reversed $78 $-1 #
face $-1 $200 $201 $30 $-1 $202 reversed single #
loop $-1 $-1 $203 $80 #
plane-surface $-1 0 -25.058473496754292 0 0 1 0 0 0 1 forward_v I I I I #
coedge $-1 $204 $205 $206 $207 forward $81 $-1 #
coedge $-1 $208 $83 $209 $210 forward $51 $-1 #
coedge $-1 $83 $208 $211 $212 forward $51 $-1 #
coedge $-1 $213 $214 $83 $132 reversed $215 $-1 #
edge $-1 $216 -25.058473496754292 $217 25.058473496754292 $131 $218 forward 7 unknown #
face $-1 $219 $220 $31 $-1 $221 reversed single #
loop $-1 $-1 $222 $84 #
plane-surface $-1 0 -19.909632818459304 0.5028945699986096 0 -1 0 0 0 -1 forward_v I I I I #
coedge $-1 $223 $224 $225 $226 reversed $85 $-1 #
coedge $-1 $227 $87 $228 $229 forward $54 $-1 #
coedge $-1 $87 $227 $230 $231 reversed $54 $-1 #
coedge $-1 $232 $233 $87 $140 forward $234 $-1 #
edge $-1 $235 8.667606239655905 $236 13.816446917950893 $139 $237 forward 7 unknown #
face $-1 $238 $239 $32 $-1 $240 reversed single #
loop $-1 $-1 $241 $88 #
plane-surface $-1 0 19.909632818459304 0.5028945699986096 0 1 0 0 0 1 forward_v I I I I #
coedge $-1 $242 $243 $244 $245 reversed $89 $-1 #
coedge $-1 $246 $91 $247 $248 reversed $57 $-1 #
coedge $-1 $91 $246 $241 $249 forward $57 $-1 #
coedge $-1 $250 $251 $91 $148 forward $239 $-1 #
edge $-1 $252 -13.816446917950893 $253 -8.667606239655905 $147 $254 forward 7 unknown #
face $-1 $255 $256 $33 $-1 $257 reversed single #
loop $-1 $-1 $258 $92 #
plane-surface $-1 0 19.909632818459304 0.5028945699986096 0 1 0 0 0 1 forward_v I I I I #
coedge $-1 $259 $260 $261 $262 reversed $93 $-1 #
coedge $-1 $263 $95 $258 $264 reversed $60 $-1 #
coedge $-1 $95 $263 $259 $265 forward $60 $-1 #
coedge $-1 $261 $266 $95 $156 forward $256 $-1 #
edge $-1 $267 -12.586378107082593 $268 -2.0601313156708283 $155 $269 forward 7 unknown #
loop $-1 $-1 $162 $96 #
plane-surface $-1 -58.927579577013461 14.646509422753422 0.8399646637025171 -0.55919291073839883 0 0.82903756765294845 0.82903756765294845 0 0.55919291073839883 forward_v I I I I #
loop $-1 $-1 $270 $62 #
coedge $-1 $160 $160 $161 $271 reversed $97 $-1 #
coedge $-1 $161 $161 $160 $271 forward $99 $-1 #
coedge $-1 $162 $162 $100 $163 forward $157 $-1 #
edge $-1 $272 0 $272 6.2831853071796004 $162 $273 forward 7 unknown #
loop $-1 $-1 $169 $101 #
plane-surface $-1 -58.927579577013461 14.646509422753422 0.8399646637025171 -0.55919291073839883 0 0.82903756765294845 0.82903756765294845 0 0.55919291073839883 forward_v I I I I #
loop $-1 $-1 $274 $65 #
coedge $-1 $167 $167 $168 $275 reversed $102 $-1 #
coedge $-1 $168 $168 $167 $275 forward $104 $-1 #
coedge $-1 $169 $169 $105 $170 forward $164 $-1 #
edge $-1 $276 0 $276 6.2831853071796004 $169 $277 forward 7 unknown #
face $-1 $278 $279 $36 $-1 $280 forward single #
loop $-1 $-1 $281 $106 #
plane-surface $-1 0 0 5.3312825796662251 0 0 1 1 0 0 forward_v I I I I #
coedge $-1 $282 $283 $284 $285 reversed $107 $-1 #
coedge $-1 $176 $109 $286 $287 reversed $69 $-1 #
coedge $-1 $109 $175 $282 $288 reversed $69 $-1 #
coedge $-1 $284 $289 $109 $178 forward $290 $-1 #
edge $-1 $291 78.159962588321292 $292 83.079587066667628 $177 $293 forward 7 unknown #
loop $-1 $-1 $184 $110 #
plane-surface $-1 -27.266226434069935 14.157484603043077 80.788684324891634 0.68199836817093118 0 0.7313536940579346 0.7313536940579346 0 -0.68199836817093118 forward_v I I I I #
loop $-1 $-1 $294 $71 #
coedge $-1 $182 $182 $183 $295 reversed $111 $-1 #
coedge $-1 $183 $183 $182 $295 forward $113 $-1 #
coedge $-1 $184 $184 $114 $185 forward $179 $-1 #
edge $-1 $296 0 $296 6.2831853071796004 $184 $297 forward 7 unknown #
loop $-1 $-1 $191 $115 #
plane-surface $-1 -27.266226434069935 14.157484603043077 80.788684324891634 0.68199836817093118 0 0.7313536940579346 0.7313536940579346 0 -0.68199836817093118 forward_v I I I I #
loop $-1 $-1 $298 $74 #
coedge $-1 $189 $189 $190 $299 reversed $116 $-1 #
coedge $-1 $190 $190 $189 $299 forward $118 $-1 #
coedge $-1 $191 $191 $119 $192 forward $186 $-1 #
edge $-1 $300 0 $300 6.2831853071796004 $191 $301 forward 7 unknown #
loop $-1 $-1 $198 $120 #
plane-surface $-1 -27.266226434069935 14.157484603043077 80.788684324891634 0.68199836817093118 0 0.7313536940579346 0.7313536940579346 0 -0.68199836817093118 forward_v I I I I #
loop $-1 $-1 $302 $77 #
coedge $-1 $196 $196 $197 $303 reversed $121 $-1 #
coedge $-1 $197 $197 $196 $303 forward $123 $-1 #
coedge $-1 $198 $198 $124 $199 forward $193 $-1 #
edge $-1 $304 0 $304 6.2831853071796004 $198 $305 forward 7 unknown #
face $-1 $306 $307 $30 $-1 $308 reversed single #
loop $-1 $-1 $309 $125 #
plane-surface $-1 -58.927579577013461 0 0 1 0 0 0 0 -1 forward_v I I I I #
coedge $-1 $310 $211 $311 $312 forward $126 $-1 #
coedge $-1 $313 $128 $310 $314 forward $81 $-1 #
coedge $-1 $128 $313 $315 $316 forward $81 $-1 #
coedge $-1 $214 $213 $128 $207 reversed $215 $-1 #
edge $-1 $317 -25.058473496754292 $318 25.058473496754292 $206 $319 forward 7 unknown #
coedge $-1 $130 $129 $320 $321 forward $51 $-1 #
coedge $-1 $322 $323 $129 $210 reversed $307 $-1 #
edge $-1 $217 -58.927579577013461 $324 58.927579577013461 $209 $325 forward 7 unknown #
coedge $-1 $203 $326 $130 $212 reversed $126 $-1 #
edge $-1 $327 -58.927579577013461 $216 58.927579577013461 $211 $328 forward 7 unknown #
coedge $-1 $206 $131 $326 $329 forward $215 $-1 #
coedge $-1 $131 $206 $322 $330 reversed $215 $-1 #
loop $-1 $-1 $213 $306 #
vertex $-1 $132 $331 #
vertex $-1 $132 $332 #
straight-curve $-1 58.927579577013461 0 5.3312825796662251 0 1 0 I I #
face $-1 $333 $334 $31 $-1 $335 reversed single #
loop $-1 $-1 $336 $133 #
plane-surface $-1 -58.927579577013461 0 0 1 0 0 0 0 -1 forward_v I I I I #
coedge $-1 $337 $228 $233 $338 reversed $134 $-1 #
coedge $-1 $339 $136 $340 $341 reversed $85 $-1 #
coedge $-1 $136 $339 $337 $342 forward $85 $-1 #
coedge $-1 $233 $232 $136 $226 forward $234 $-1 #
edge $-1 $343 -13.816446917950893 $344 -8.667606239655905 $225 $345 forward 7 unknown #
coedge $-1 $138 $137 $336 $346 reversed $54 $-1 #
coedge $-1 $222 $347 $137 $229 reversed $134 $-1 #
edge $-1 $235 -58.927579577013461 $348 58.927579577013461 $228 $349 forward 7 unknown #
coedge $-1 $350 $351 $138 $231 forward $334 $-1 #
edge $-1 $236 -58.927579577013461 $352 58.927579577013461 $230 $353 forward 7 unknown #
coedge $-1 $225 $139 $351 $354 forward $234 $-1 #
coedge $-1 $139 $225 $222 $338 forward $234 $-1 #
loop $-1 $-1 $139 $333 #
vertex $-1 $140 $355 #
vertex $-1 $354 $356 #
straight-curve $-1 58.927579577013461 -11.242026578803399 2.0028945699986096 0 -1 0 I I #
face $-1 $357 $358 $32 $-1 $359 reversed single #
loop $-1 $-1 $147 $141 #
plane-surface $-1 58.927579577013461 0 0 -1 0 0 0 0 1 forward_v I I I I #
coedge $-1 $360 $361 $146 $249 reversed $142 $-1 #
coedge $-1 $362 $144 $363 $364 forward $89 $-1 #
coedge $-1 $144 $362 $365 $366 reversed $89 $-1 #
coedge $-1 $251 $250 $144 $245 forward $239 $-1 #
edge $-1 $367 8.667606239655905 $368 13.816446917950893 $244 $369 forward 7 unknown #
coedge $-1 $146 $145 $370 $371 reversed $57 $-1 #
coedge $-1 $372 $373 $145 $248 forward $374 $-1 #
edge $-1 $375 -58.927579577013461 $252 58.927579577013461 $247 $376 forward 7 unknown #
edge $-1 $377 -58.927579577013461 $253 58.927579577013461 $241 $378 forward 7 unknown #
coedge $-1 $244 $147 $361 $379 forward $239 $-1 #
coedge $-1 $147 $244 $372 $380 reversed $239 $-1 #
vertex $-1 $380 $381 #
vertex $-1 $148 $382 #
straight-curve $-1 58.927579577013461 11.242026578803399 2.0028945699986096 0 -1 0 I I #
face $-1 $-1 $383 $33 $-1 $384 forward single #
loop $-1 $-1 $266 $149 #
plane-surface $-1 -58.927579577013461 0 0 1 0 0 0 0 -1 forward_v I I I I #
coedge $-1 $385 $386 $153 $264 forward $150 $-1 #
coedge $-1 $260 $152 $154 $265 reversed $93 $-1 #
coedge $-1 $152 $259 $387 $388 reversed $93 $-1 #
coedge $-1 $389 $155 $152 $262 forward $256 $-1 #
edge $-1 $268 -48.433194908351538 $390 -43.941876992387833 $261 $391 forward 7 unknown #
coedge $-1 $154 $153 $392 $393 reversed $60 $-1 #
edge $-1 $394 16.300558794592543 $267 24.332345016690827 $258 $395 forward 7 unknown #
edge $-1 $396 -8.0317862220982832 $268 0 $259 $397 forward 7 unknown #
coedge $-1 $155 $389 $385 $398 forward $256 $-1 #
vertex $-1 $264 $399 #
vertex $-1 $156 $400 #
straight-curve $-1 -58.927579577013461 7.3232547113767108 0.83996466370251777 0 -1 0 I I #
coedge $-1 $270 $270 $-1 $401 reversed $159 $-1 #
edge $-1 $402 0 $402 6.2831853071796004 $160 $403 forward 7 unknown #
vertex $-1 $163 $404 #
ellipse-curve $-1 -55.598253320275042 12.390885110308044 3.0856236216843751 -0.55919291073839883 0 0.82903756765294845 1.2435563514794228 0 0.83878936610759824 1 I I #
coedge $-1 $274 $274 $-1 $405 reversed $166 $-1 #
edge $-1 $406 0 $406 6.2831853071796004 $167 $407 forward 7 unknown #
vertex $-1 $170 $408 #
ellipse-curve $-1 -55.598253320275042 16.902133735198799 3.0856236216843751 -0.55919291073839883 0 0.82903756765294845 1.2435563514794228 0 0.83878936610759824 1 I I #
face $-1 $-1 $290 $36 $-1 $409 reversed single #
loop $-1 $-1 $410 $171 #
plane-surface $-1 0 19.909632818459304 0.5028945699986096 0 1 0 0 0 1 forward_v I I I I #
coedge $-1 $411 $412 $413 $414 forward $172 $-1 #
coedge $-1 $415 $174 $176 $288 forward $107 $-1 #
coedge $-1 $174 $415 $410 $416 forward $107 $-1 #
coedge $-1 $417 $177 $174 $285 forward $290 $-1 #
edge $-1 $292 1.3265940861053185 $418 12.830890516937766 $284 $419 forward 7 unknown #
coedge $-1 $412 $411 $175 $287 forward $172 $-1 #
edge $-1 $420 27.096528443879151 $291 32.372179682262555 $286 $421 forward 7 unknown #
edge $-1 $292 -117.85515915402692 $420 -110.64161626602794 $176 $422 forward 7 unknown #
coedge $-1 $177 $417 $412 $423 reversed $290 $-1 #
loop $-1 $-1 $417 $278 #
vertex $-1 $423 $424 #
vertex $-1 $178 $425 #
straight-curve $-1 58.927579577013461 8.405336387626857 83.491245167987515 0 0 -1 I I #
coedge $-1 $294 $294 $-1 $426 reversed $181 $-1 #
edge $-1 $427 0 $427 6.2831853071796004 $182 $428 forward 7 unknown #
vertex $-1 $185 $429 #
ellipse-curve $-1 56.289753957821759 10.706195673793342 2.8714703404930599 0.68199836817093118 0 0.7313536940579346 0.7313536940579346 0 -0.68199836817093118 1 I I #
coedge $-1 $298 $298 $-1 $430 reversed $188 $-1 #
edge $-1 $431 0 $431 6.2831853071796004 $189 $432 forward 7 unknown #
vertex $-1 $192 $433 #
ellipse-curve $-1 56.289753957821759 14.157484603043077 2.8714703404930599 0.68199836817093118 0 0.7313536940579346 0.7313536940579346 0 -0.68199836817093118 1 I I #
coedge $-1 $302 $302 $-1 $434 reversed $195 $-1 #
edge $-1 $435 0 $435 6.2831853071796004 $196 $436 forward 7 unknown #
vertex $-1 $199 $437 #
ellipse-curve $-1 56.289753957821759 17.608773532292812 2.8714703404930599 0.68199836817093118 0 0.7313536940579346 0.7313536940579346 0 -0.68199836817093118 1 I I #
face $-1 $-1 $215 $30 $-1 $438 reversed single #
loop $-1 $-1 $322 $200 #
plane-surface $-1 0 25.058473496754292 0 0 -1 0 0 0 -1 forward_v I I I I #
coedge $-1 $439 $320 $323 $440 forward $201 $-1 #
coedge $-1 $326 $203 $204 $314 reversed $126 $-1 #
coedge $-1 $320 $439 $203 $312 reversed $201 $-1 #
edge $-1 $327 -5.3312825796662251 $441 5.3312825796662251 $311 $442 forward 7 unknown #
coedge $-1 $205 $204 $439 $443 forward $81 $-1 #
edge $-1 $318 -58.927579577013461 $441 58.927579577013461 $310 $444 forward 7 unknown #
coedge $-1 $323 $322 $205 $316 reversed $307 $-1 #
edge $-1 $445 -58.927579577013461 $317 58.927579577013461 $315 $446 forward 7 unknown #
vertex $-1 $207 $447 #
vertex $-1 $329 $448 #
straight-curve $-1 58.927579577013461 0 -5.3312825796662251 0 -1 0 I I #
coedge $-1 $309 $311 $208 $321 reversed $201 $-1 #
edge $-1 $324 -25.058473496754292 $327 25.058473496754292 $320 $449 forward 7 unknown #
coedge $-1 $315 $209 $214 $330 forward $307 $-1 #
coedge $-1 $209 $315 $309 $440 reversed $307 $-1 #
vertex $-1 $210 $450 #
straight-curve $-1 0 25.058473496754292 5.3312825796662251 -1 0 0 I I #
coedge $-1 $211 $310 $213 $329 reversed $126 $-1 #
vertex $-1 $321 $451 #
straight-curve $-1 0 -25.058473496754292 5.3312825796662251 1 0 0 I I #
edge $-1 $216 -5.3312825796662251 $318 5.3312825796662251 $213 $452 forward 7 unknown #
edge $-1 $217 -5.3312825796662251 $317 5.3312825796662251 $214 $453 forward 7 unknown #
point $-1 58.927579577013461 -25.058473496754292 5.3312825796662251 #
point $-1 58.927579577013461 25.058473496754292 5.3312825796662251 #
face $-1 $-1 $234 $31 $-1 $454 reversed single #
loop $-1 $-1 $230 $219 #
plane-surface $-1 0 -25.058473496754292 0 0 1 0 0 0 1 forward_v I I I I #
coedge $-1 $455 $456 $227 $346 forward $220 $-1 #
coedge $-1 $347 $222 $224 $342 reversed $134 $-1 #
edge $-1 $344 -1.2485527150006952 $235 1.7514472849993048 $233 $457 forward 7 unknown #
coedge $-1 $224 $223 $458 $459 reversed $85 $-1 #
coedge $-1 $351 $350 $223 $341 forward $334 $-1 #
edge $-1 $460 -58.927579577013461 $343 58.927579577013461 $340 $461 forward 7 unknown #
edge $-1 $462 -58.927579577013461 $344 58.927579577013461 $337 $463 forward 7 unknown #
vertex $-1 $341 $464 #
vertex $-1 $226 $465 #
straight-curve $-1 58.927579577013461 -11.242026578803399 -0.9971054300013904 0 1 0 I I #
edge $-1 $352 -13.816446917950893 $348 -8.667606239655905 $336 $466 forward 7 unknown #
coedge $-1 $228 $337 $455 $467 reversed $134 $-1 #
vertex $-1 $346 $468 #
straight-curve $-1 0 -19.909632818459304 2.0028945699986096 -1 0 0 I I #
coedge $-1 $340 $230 $456 $469 forward $334 $-1 #
coedge $-1 $230 $340 $232 $354 reversed $334 $-1 #
vertex $-1 $469 $470 #
straight-curve $-1 0 -25.058473496754292 2.0028945699986096 -1 0 0 I I #
edge $-1 $236 -2.0028945699986096 $343 0.9971054300013904 $232 $471 forward 7 unknown #
point $-1 58.927579577013461 -19.909632818459304 2.0028945699986096 #
point $-1 58.927579577013461 -25.058473496754292 2.0028945699986096 #
face $-1 $-1 $374 $32 $-1 $472 reversed single #
loop $-1 $-1 $370 $238 #
plane-surface $-1 -58.927579577013461 0 0 1 0 0 0 0 -1 forward_v I I I I #
coedge $-1 $363 $241 $473 $474 reversed $142 $-1 #
coedge $-1 $241 $363 $250 $379 reversed $142 $-1 #
coedge $-1 $243 $242 $475 $476 reversed $89 $-1 #
coedge $-1 $361 $360 $242 $364 reversed $142 $-1 #
edge $-1 $367 -58.927579577013461 $477 58.927579577013461 $363 $478 forward 7 unknown #
coedge $-1 $373 $372 $243 $366 forward $374 $-1 #
edge $-1 $368 -58.927579577013461 $479 58.927579577013461 $365 $480 forward 7 unknown #
vertex $-1 $245 $481 #
vertex $-1 $366 $482 #
straight-curve $-1 58.927579577013461 11.242026578803399 -0.9971054300013904 0 1 0 I I #
coedge $-1 $483 $473 $246 $371 forward $358 $-1 #
edge $-1 $377 8.667606239655905 $375 13.816446917950893 $370 $484 forward 7 unknown #
coedge $-1 $365 $247 $251 $380 forward $374 $-1 #
coedge $-1 $247 $365 $483 $485 reversed $374 $-1 #
loop $-1 $-1 $247 $357 #
vertex $-1 $485 $486 #
straight-curve $-1 0 25.058473496754292 2.0028945699986096 1 0 0 I I #
vertex $-1 $371 $487 #
straight-curve $-1 0 19.909632818459304 2.0028945699986096 1 0 0 I I #
edge $-1 $253 -1.7514472849993048 $367 1.2485527150006952 $250 $488 forward 7 unknown #
edge $-1 $252 -2.0028945699986096 $368 0.9971054300013904 $251 $489 forward 7 unknown #
point $-1 58.927579577013461 25.058473496754292 2.0028945699986096 #
point $-1 58.927579577013461 19.909632818459304 2.0028945699986096 #
loop $-1 $-1 $490 $255 #
plane-surface $-1 0 0 5.3312825796662251 0 0 1 1 0 0 forward_v I I I I #
coedge $-1 $386 $258 $266 $398 reversed $150 $-1 #
coedge $-1 $258 $385 $490 $491 reversed $150 $-1 #
coedge $-1 $392 $492 $260 $388 forward $383 $-1 #
edge $-1 $390 3.4880949579320486 $396 10.146747471408872 $387 $493 forward 7 unknown #
coedge $-1 $266 $261 $492 $494 reversed $256 $-1 #
vertex $-1 $388 $495 #
straight-curve $-1 -58.927579577013461 9.3833860270475391 49.273159572054055 0 0 1 I I #
coedge $-1 $490 $387 $263 $393 forward $383 $-1 #
edge $-1 $396 2.0601313156708283 $394 12.586378107082593 $392 $496 forward 7 unknown #
vertex $-1 $491 $497 #
straight-curve $-1 -38.755151449083755 19.909632818459304 14.446439498676829 -0.82903756765294845 0 -0.55919291073839883 I I #
vertex $-1 $393 $498 #
straight-curve $-1 -58.927579577013461 9.3833860270475391 0.8399646637025171 -0.82903756765294845 0 -0.55919291073839883 I I #
edge $-1 $499 43.941876992387833 $267 48.433194908351538 $266 $500 forward 7 unknown #
point $-1 -58.927579577013461 19.909632818459304 0.8399646637025171 #
point $-1 -58.927579577013461 9.3833860270475391 0.8399646637025171 #
edge $-1 $501 1 $501 0 $270 $-1 forward 7 unknown #
vertex $-1 $271 $502 #
ellipse-curve $-1 -53.914095747546831 12.390885110308044 0.58875738674729639 -0.55919291073839883 0 0.82903756765294845 1.2435563514794228 0 0.83878936610759824 1 I I #
point $-1 -54.354696968795608 12.390885110308044 3.924412987791956 #
edge $-1 $503 1 $503 0 $274 $-1 forward 7 unknown #
vertex $-1 $275 $504 #
ellipse-curve $-1 -53.914095747546831 16.902133735198799 0.58875738674729639 -0.55919291073839883 0 0.82903756765294845 1.2435563514794228 0 0.83878936610759824 1 I I #
point $-1 -54.354696968795608 16.902133735198799 3.924412987791956 #
plane-surface $-1 58.927579577013461 0 0 -1 0 0 0 0 1 forward_v I I I I #
coedge $-1 $413 $505 $283 $416 reversed $279 $-1 #
coedge $-1 $286 $281 $415 $506 forward $172 $-1 #
coedge $-1 $281 $286 $289 $423 forward $172 $-1 #
coedge $-1 $505 $410 $281 $414 reversed $279 $-1 #
edge $-1 $507 -32.372179682262555 $508 -27.096528443879151 $281 $509 forward 7 unknown #
coedge $-1 $283 $282 $411 $506 reversed $107 $-1 #
edge $-1 $508 110.64161626602794 $418 117.85515915402692 $410 $510 forward 7 unknown #
coedge $-1 $289 $284 $505 $511 forward $290 $-1 #
vertex $-1 $511 $512 #
straight-curve $-1 58.927579577013447 7.0787423015215385 0.41165810131989389 0 1 0 I I #
vertex $-1 $287 $513 #
straight-curve $-1 26.555399894750906 8.405336387626857 5.3312825796662224 1 0 0 I I #
straight-curve $-1 -27.266226434069935 8.405336387626857 80.788684324891634 -0.7313536940579346 0 0.68199836817093118 I I #
edge $-1 $291 8.405336387626857 $507 19.909632818459297 $289 $514 forward 7 unknown #
point $-1 58.927579577013461 8.405336387626857 5.3312825796662251 #
point $-1 58.927579577013461 8.405336387626857 0.41165810131988678 #
edge $-1 $515 1 $515 0 $294 $-1 forward 7 unknown #
vertex $-1 $295 $516 #
ellipse-curve $-1 54.058601302015028 10.706195673793342 0.47885209830035058 0.68199836817093118 0 0.7313536940579346 0.7313536940579346 0 -0.68199836817093118 1 I I #
point $-1 57.021107651879696 10.706195673793342 2.1894719723221265 #
edge $-1 $517 1 $517 0 $298 $-1 forward 7 unknown #
vertex $-1 $299 $518 #
ellipse-curve $-1 54.058601302015028 14.157484603043077 0.47885209830035058 0.68199836817093118 0 0.7313536940579346 0.7313536940579346 0 -0.68199836817093118 1 I I #
point $-1 57.021107651879696 14.157484603043077 2.1894719723221265 #
edge $-1 $519 1 $519 0 $302 $-1 forward 7 unknown #
vertex $-1 $303 $520 #
ellipse-curve $-1 54.058601302015028 17.608773532292812 0.47885209830035058 0.68199836817093118 0 0.7313536940579346 0.7313536940579346 0 -0.68199836817093118 1 I I #
point $-1 57.021107651879696 17.608773532292812 2.1894719723221265 #
plane-surface $-1 58.927579577013461 0 0 -1 0 0 0 0 1 forward_v I I I I #
coedge $-1 $311 $309 $313 $443 reversed $201 $-1 #
edge $-1 $324 -5.3312825796662251 $445 5.3312825796662251 $323 $521 forward 7 unknown #
vertex $-1 $443 $522 #
straight-curve $-1 -58.927579577013461 -25.058473496754292 0 0 0 -1 I I #
edge $-1 $441 -25.058473496754292 $445 25.058473496754292 $439 $523 forward 7 unknown #
straight-curve $-1 0 -25.058473496754292 -5.3312825796662251 -1 0 0 I I #
vertex $-1 $316 $524 #
straight-curve $-1 0 25.058473496754292 -5.3312825796662251 1 0 0 I I #
point $-1 58.927579577013461 25.058473496754292 -5.3312825796662251 #
point $-1 58.927579577013461 -25.058473496754292 -5.3312825796662251 #
straight-curve $-1 -58.927579577013461 0 5.3312825796662251 0 -1 0 I I #
point $-1 -58.927579577013461 25.058473496754292 5.3312825796662251 #
point $-1 -58.927579577013461 -25.058473496754292 5.3312825796662251 #
straight-curve $-1 58.927579577013461 -25.058473496754292 0 0 0 -1 I I #
straight-curve $-1 58.927579577013461 25.058473496754292 0 0 0 -1 I I #
plane-surface $-1 58.927579577013461 0 0 -1 0 0 0 0 1 forward_v I I I I #
coedge $-1 $458 $336 $347 $467 forward $220 $-1 #
coedge $-1 $336 $458 $350 $469 reversed $220 $-1 #
straight-curve $-1 58.927579577013461 -19.909632818459304 0.2514472849993048 0 0 1 I I #
coedge $-1 $456 $455 $339 $459 forward $220 $-1 #
edge $-1 $462 8.667606239655905 $460 13.816446917950893 $458 $525 forward 7 unknown #
vertex $-1 $341 $526 #
straight-curve $-1 0 -25.058473496754292 -0.9971054300013904 1 0 0 I I #
vertex $-1 $459 $527 #
straight-curve $-1 0 -19.909632818459304 -0.9971054300013904 1 0 0 I I #
point $-1 58.927579577013461 -25.058473496754292 -0.9971054300013904 #
point $-1 58.927579577013461 -19.909632818459304 -0.9971054300013904 #
straight-curve $-1 -58.927579577013461 -11.242026578803399 2.0028945699986096 0 1 0 I I #
edge $-1 $348 -1.7514472849993048 $462 1.2485527150006952 $455 $528 forward 7 unknown #
point $-1 -58.927579577013461 -19.909632818459304 2.0028945699986096 #
edge $-1 $352 -2.0028945699986096 $460 0.9971054300013904 $456 $529 forward 7 unknown #
point $-1 -58.927579577013461 -25.058473496754292 2.0028945699986096 #
straight-curve $-1 58.927579577013461 -25.058473496754292 0 0 0 -1 I I #
plane-surface $-1 0 25.058473496754292 0 0 -1 0 0 0 -1 forward_v I I I I #
coedge $-1 $370 $475 $360 $474 forward $358 $-1 #
edge $-1 $477 -1.2485527150006952 $377 1.7514472849993048 $473 $530 forward 7 unknown #
coedge $-1 $473 $483 $362 $476 forward $358 $-1 #
edge $-1 $479 -13.816446917950893 $477 -8.667606239655905 $475 $531 forward 7 unknown #
vertex $-1 $476 $532 #
straight-curve $-1 0 19.909632818459304 -0.9971054300013904 -1 0 0 I I #
vertex $-1 $366 $533 #
straight-curve $-1 0 25.058473496754292 -0.9971054300013904 -1 0 0 I I #
point $-1 58.927579577013461 19.909632818459304 -0.9971054300013904 #
point $-1 58.927579577013461 25.058473496754292 -0.9971054300013904 #
coedge $-1 $475 $370 $373 $485 forward $358 $-1 #
straight-curve $-1 -58.927579577013461 11.242026578803399 2.0028945699986096 0 1 0 I I #
edge $-1 $375 -2.0028945699986096 $479 0.9971054300013904 $373 $534 forward 7 unknown #
point $-1 -58.927579577013461 25.058473496754292 2.0028945699986096 #
point $-1 -58.927579577013461 19.909632818459304 2.0028945699986096 #
straight-curve $-1 58.927579577013461 19.909632818459304 0.2514472849993048 0 0 -1 I I #
straight-curve $-1 58.927579577013461 25.058473496754292 0 0 0 -1 I I #
coedge $-1 $492 $392 $386 $491 forward $383 $-1 #
edge $-1 $394 -10.146747471408872 $499 -3.4880949579320486 $490 $535 forward 7 unknown #
coedge $-1 $387 $490 $389 $494 forward $383 $-1 #
straight-curve $-1 -62.415674534945509 9.3833860270475391 5.3312825796662224 1 0 0 I I #
edge $-1 $499 -19.909632818459304 $390 -9.3833860270475391 $389 $536 forward 7 unknown #
point $-1 -58.927579577013461 9.3833860270475391 5.3312825796662251 #
straight-curve $-1 -52.26892706353663 7.3232547113767108 5.331282579666226 0 1 0 I I #
point $-1 -52.268927063536637 19.909632818459304 5.3312825796662251 #
point $-1 -52.268927063536637 9.3833860270475391 5.3312825796662251 #
vertex $-1 $494 $537 #
straight-curve $-1 -58.927579577013461 19.909632818459304 49.273159572054055 0 0 -1 I I #
vertex $-1 $401 $538 #
point $-1 -52.670539396067404 12.390885110308044 1.4275467528548946 #
vertex $-1 $405 $539 #
point $-1 -52.670539396067404 16.902133735198799 1.4275467528548946 #
coedge $-1 $410 $413 $417 $511 reversed $279 $-1 #
edge $-1 $508 -12.830890516937759 $420 -1.3265940861053185 $411 $540 forward 7 unknown #
vertex $-1 $414 $541 #
vertex $-1 $506 $542 #
straight-curve $-1 26.555399894750906 19.909632818459297 5.3312825796662224 -1 0 0 I I #
straight-curve $-1 -27.266226434069935 19.909632818459297 80.788684324891634 0.7313536940579346 0 -0.68199836817093118 I I #
edge $-1 $418 -83.079587066667614 $507 -78.159962588321292 $417 $543 forward 7 unknown #
point $-1 58.927579577013461 19.909632818459304 0.41165810131989805 #
point $-1 53.651928338630057 8.405336387626857 5.3312825796662224 #
straight-curve $-1 58.927579577013461 0 5.3312825796662251 0 1 0 I I #
vertex $-1 $426 $544 #
point $-1 54.789954996072957 10.706195673793342 -0.2031462698705806 #
vertex $-1 $430 $545 #
point $-1 54.789954996072957 14.157484603043077 -0.2031462698705806 #
vertex $-1 $434 $546 #
point $-1 54.789954996072957 17.608773532292812 -0.2031462698705806 #
straight-curve $-1 -58.927579577013461 25.058473496754292 0 0 0 -1 I I #
point $-1 -58.927579577013461 -25.058473496754292 -5.3312825796662251 #
straight-curve $-1 -58.927579577013461 0 -5.3312825796662251 0 1 0 I I #
point $-1 -58.927579577013461 25.058473496754292 -5.3312825796662251 #
straight-curve $-1 -58.927579577013461 -11.242026578803399 -0.9971054300013904 0 -1 0 I I #
point $-1 -58.927579577013461 -25.058473496754292 -0.9971054300013904 #
point $-1 -58.927579577013461 -19.909632818459304 -0.9971054300013904 #
straight-curve $-1 -58.927579577013461 -19.909632818459304 0.2514472849993048 0 0 -1 I I #
straight-curve $-1 -58.927579577013461 -25.058473496754292 0 0 0 -1 I I #
straight-curve $-1 -58.927579577013461 19.909632818459304 0.2514472849993048 0 0 1 I I #
straight-curve $-1 -58.927579577013461 11.242026578803399 -0.9971054300013904 0 -1 0 I I #
point $-1 -58.927579577013461 19.909632818459304 -0.9971054300013904 #
point $-1 -58.927579577013461 25.058473496754292 -0.9971054300013904 #
straight-curve $-1 -58.927579577013461 25.058473496754292 0 0 0 -1 I I #
straight-curve $-1 -62.415674534945509 19.909632818459304 5.3312825796662224 -1 0 0 I I #
straight-curve $-1 -58.927579577013461 0 5.3312825796662251 0 -1 0 I I #
point $-1 -58.927579577013461 19.909632818459304 5.3312825796662251 #
point $-1 -53.075306381439226 12.390885110308044 -0.6547989647321264 #
point $-1 -53.075306381439226 16.902133735198799 -0.6547989647321264 #
straight-curve $-1 53.651928338630057 7.0787423015215385 5.3312825796662295 0 -1 0 I I #
point $-1 58.927579577013461 19.909632818459297 5.3312825796662251 #
point $-1 53.651928338630057 19.909632818459297 5.3312825796662224 #
straight-curve $-1 58.927579577013461 19.909632818459297 83.491245167987515 0 0 1 I I #
point $-1 53.37660293384409 10.706195673793342 -0.25250159575758402 #
point $-1 53.37660293384409 14.157484603043077 -0.25250159575758402 #
point $-1 53.37660293384409 17.608773532292812 -0.25250159575758402 #
End-of-ACIS-data 