500 0 11 0           
7 Unknown 11 ACIS 5.0 NT 24 Fri Mar 26 17:55:44 1999 
-1 9.9999999999999995e-007 1e-010 
body $-1 $11 $-1 $12 #
body $-1 $13 $-1 $14 #
body $-1 $15 $-1 $16 #
body $-1 $17 $-1 $18 #
body $-1 $19 $-1 $20 #
body $-1 $21 $-1 $22 #
body $-1 $23 $-1 $24 #
body $-1 $25 $-1 $26 #
body $-1 $27 $-1 $28 #
body $-1 $29 $-1 $30 #
body $-1 $31 $-1 $32 #
lump $-1 $-1 $33 $0 #
transform $-1 1 0 0 0 1 0 0 0 1 62.840052491836296 34.800505402611158 8.4990253741219988 1 rotate no_reflect no_shear #
lump $-1 $-1 $34 $1 #
transform $-1 1 0 0 0 1 0 0 0 1 62.840052491836296 34.800505402611158 8.4990253741219988 1 rotate no_reflect no_shear #
lump $-1 $-1 $35 $2 #
transform $-1 1 0 0 0 1 0 0 0 1 62.840052491836296 34.800505402611158 8.4990253741219988 1 rotate no_reflect no_shear #
lump $-1 $-1 $36 $3 #
transform $-1 1 0 0 0 1 0 0 0 1 62.840052491836296 34.800505402611158 8.4990253741219988 1 rotate no_reflect no_shear #
lump $-1 $-1 $37 $4 #
transform $-1 1 0 0 0 1 0 0 0 1 62.840052491836296 34.800505402611158 8.4990253741219988 1 rotate no_reflect no_shear #
lump $-1 $-1 $38 $5 #
transform $-1 1 0 0 0 1 0 0 0 1 62.840052491836296 34.800505402611158 8.4990253741219988 1 rotate no_reflect no_shear #
lump $-1 $-1 $39 $6 #
transform $-1 1 0 0 0 1 0 0 0 1 62.840052491836296 34.800505402611158 8.4990253741219988 1 rotate no_reflect no_shear #
lump $-1 $-1 $40 $7 #
transform $-1 1 0 0 0 1 0 0 0 1 62.840052491836296 34.800505402611158 8.4990253741219988 1 rotate no_reflect no_shear #
lump $-1 $-1 $41 $8 #
transform $-1 1 0 0 0 1 0 0 0 1 62.840052491836296 34.800505402611158 8.4990253741219988 1 rotate no_reflect no_shear #
lump $-1 $-1 $42 $9 #
transform $-1 1 0 0 0 1 0 0 0 1 62.840052491836296 34.800505402611158 8.4990253741219988 1 rotate no_reflect no_shear #
lump $-1 $-1 $43 $10 #
transform $-1 1 0 0 0 1 0 0 0 1 62.840052491836296 34.800505402611158 8.4990253741219988 1 rotate no_reflect no_shear #
shell $-1 $-1 $-1 $44 $-1 $11 #
shell $-1 $-1 $-1 $45 $-1 $13 #
shell $-1 $-1 $-1 $46 $-1 $15 #
shell $-1 $-1 $-1 $47 $-1 $17 #
shell $-1 $-1 $-1 $48 $-1 $19 #
shell $-1 $-1 $-1 $49 $-1 $21 #
shell $-1 $-1 $-1 $50 $-1 $23 #
shell $-1 $-1 $-1 $51 $-1 $25 #
shell $-1 $-1 $-1 $52 $-1 $27 #
shell $-1 $-1 $-1 $53 $-1 $29 #
shell $-1 $-1 $-1 $54 $-1 $31 #
face $-1 $55 $56 $33 $-1 $57 forward single #
face $-1 $58 $59 $34 $-1 $60 forward single #
face $-1 $61 $62 $35 $-1 $63 reversed single #
face $-1 $64 $65 $36 $-1 $66 forward single #
face $-1 $67 $68 $37 $-1 $69 forward single #
face $-1 $70 $71 $38 $-1 $72 reversed single #
face $-1 $73 $74 $39 $-1 $75 forward single #
face $-1 $76 $77 $40 $-1 $78 forward single #
face $-1 $79 $80 $41 $-1 $81 reversed single #
face $-1 $82 $83 $42 $-1 $84 forward single #
face $-1 $85 $86 $43 $-1 $87 forward single #
face $-1 $88 $89 $33 $-1 $90 reversed single #
loop $-1 $-1 $91 $44 #
plane-surface $-1 0 0 8.4990253741219988 0 0 1 1 0 0 forward_v I I I I #
face $-1 $92 $93 $34 $-1 $94 forward single #
loop $-1 $-1 $95 $45 #
plane-surface $-1 0 -34.800505402611158 0 0 1 0 0 0 1 forward_v I I I I #
face $-1 $96 $97 $35 $-1 $98 reversed single #
loop $-1 $-1 $99 $46 #
plane-surface $-1 22.857588926275021 5.2360055739349534 176.56536860443461 0 -1 0 -0.52991927123019833 0 -0.84804809178421925 forward_v I I I I #
face $-1 $100 $101 $36 $-1 $102 forward single #
loop $-1 $103 $104 $47 #
cone-surface $-1 57.880398515012743 -3.853262061107138 4.5557156727330481 -0.52991927123019833 0 -0.84804809178421925 0.84804809178421925 0 -0.52991927123019833 1 I I 0 1 1 forward I I I I #
face $-1 $105 $106 $37 $-1 $107 forward single #
loop $-1 $108 $109 $48 #
cone-surface $-1 57.880398515012743 1.6002985199181126 4.5557156727330481 -0.52991927123019833 0 -0.84804809178421925 0.84804809178421925 0 -0.52991927123019833 1 I I 0 1 1 forward I I I I #
face $-1 $110 $111 $38 $-1 $112 reversed single #
loop $-1 $-1 $113 $49 #
plane-surface $-1 -146.93645835822315 -1.8322876354050273 95.713791885402671 0 1 0 -0.66913061440640931 0 0.74314481823134659 forward_v I I I I #
face $-1 $114 $115 $39 $-1 $116 forward single #
loop $-1 $117 $118 $50 #
cone-surface $-1 -58.73481975204033 0.28900535362983248 4.6615323405697051 0.66913061440640931 0 -0.74314481823134659 0.74314481823134659 0 0.66913061440640931 1 I I 0 1 1 forward I I I I #
face $-1 $119 $120 $40 $-1 $121 forward single #
loop $-1 $122 $123 $51 #
cone-surface $-1 -58.73481975204033 3.470944837182131 4.6615323405697051 0.66913061440640931 0 -0.74314481823134659 0.74314481823134659 0 0.66913061440640931 1 I I 0 1 1 forward I I I I #
face $-1 $124 $125 $41 $-1 $126 reversed single #
loop $-1 $-1 $127 $52 #
plane-surface $-1 -146.93645835822315 27.375979940989122 95.713791885402671 0 1 0 -0.66913061440640931 0 0.74314481823134659 forward_v I I I I #
face $-1 $128 $129 $42 $-1 $130 forward single #
loop $-1 $131 $132 $53 #
cone-surface $-1 -58.73481975204033 29.497272930023989 4.6615323405697051 0.66913061440640931 0 -0.74314481823134659 0.74314481823134659 0 0.66913061440640931 1 I I 0 1 1 forward I I I I #
face $-1 $133 $134 $43 $-1 $135 forward single #
loop $-1 $136 $137 $54 #
cone-surface $-1 -58.73481975204033 32.679212413576288 4.6615323405697051 0.66913061440640931 0 -0.74314481823134659 0.74314481823134659 0 0.66913061440640931 1 I I 0 1 1 forward I I I I #
face $-1 $138 $139 $33 $-1 $140 reversed single #
loop $-1 $-1 $141 $55 #
plane-surface $-1 0 0 -8.4990253741219988 0 0 1 1 0 0 forward_v I I I I #
coedge $-1 $142 $143 $144 $145 forward $56 $-1 #
face $-1 $146 $147 $34 $-1 $148 reversed single #
loop $-1 $-1 $149 $58 #
plane-surface $-1 0 0 8.4990253741219988 0 0 1 1 0 0 forward_v I I I I #
coedge $-1 $150 $151 $152 $153 forward $59 $-1 #
face $-1 $154 $155 $35 $-1 $156 reversed single #
loop $-1 $-1 $157 $61 #
plane-surface $-1 -43.742720714807582 -1.1264817705945092 69.982595397790718 0.52991927123019833 0 0.84804809178421925 0.84804809178421925 0 -0.52991927123019833 forward_v I I I I #
coedge $-1 $158 $159 $160 $161 reversed $62 $-1 #
face $-1 $-1 $162 $36 $-1 $163 forward single #
loop $-1 $164 $165 $64 #
cone-surface $-1 56.750032370335639 -3.853262061107138 2.7467517341589343 -0.52991927123019833 0 -0.84804809178421925 0.42402404589210962 0 -0.26495963561509916 1 I I -0.70710678118654746 0.70710678118654746 0.5 forward I I I I #
loop $-1 $-1 $166 $47 #
coedge $-1 $104 $104 $167 $168 reversed $65 $-1 #
face $-1 $-1 $169 $37 $-1 $170 forward single #
loop $-1 $171 $172 $67 #
cone-surface $-1 56.750032370335639 1.6002985199181126 2.7467517341589343 -0.52991927123019833 0 -0.84804809178421925 0.42402404589210962 0 -0.26495963561509916 1 I I -0.70710678118654746 0.70710678118654746 0.5 forward I I I I #
loop $-1 $-1 $173 $48 #
coedge $-1 $109 $109 $174 $175 reversed $68 $-1 #
face $-1 $176 $177 $38 $-1 $178 reversed single #
loop $-1 $-1 $179 $70 #
plane-surface $-1 -62.840052491836289 1.8799750954059888 2.3152731120147507 -0.66913061440640931 0 0.74314481823134659 0.74314481823134659 0 0.66913061440640931 forward_v I I I I #
coedge $-1 $180 $181 $182 $183 reversed $71 $-1 #
face $-1 $-1 $184 $39 $-1 $185 forward single #
loop $-1 $186 $187 $73 #
cone-surface $-1 -57.728897955710103 0.28900535362983248 3.5443430289553675 0.66913061440640931 0 -0.74314481823134659 0.3715724091156733 0 0.33456530720320465 1 I I -0.70710678118654746 0.70710678118654746 0.5 forward I I I I #
loop $-1 $-1 $188 $50 #
coedge $-1 $118 $118 $189 $190 reversed $74 $-1 #
face $-1 $-1 $191 $40 $-1 $192 forward single #
loop $-1 $193 $194 $76 #
cone-surface $-1 -57.728897955710103 3.470944837182131 3.5443430289553675 0.66913061440640931 0 -0.74314481823134659 0.3715724091156733 0 0.33456530720320465 1 I I -0.70710678118654746 0.70710678118654746 0.5 forward I I I I #
loop $-1 $-1 $195 $51 #
coedge $-1 $123 $123 $196 $197 reversed $77 $-1 #
face $-1 $198 $199 $41 $-1 $200 forward single #
loop $-1 $-1 $201 $79 #
plane-surface $-1 -62.840052491836289 31.088242671800138 2.3152731120147507 -0.66913061440640931 0 0.74314481823134659 0.74314481823134659 0 0.66913061440640931 forward_v I I I I #
coedge $-1 $202 $203 $204 $205 reversed $80 $-1 #
face $-1 $-1 $206 $42 $-1 $207 forward single #
loop $-1 $208 $209 $82 #
cone-surface $-1 -57.728897955710103 29.497272930023989 3.5443430289553675 0.66913061440640931 0 -0.74314481823134659 0.3715724091156733 0 0.33456530720320465 1 I I -0.70710678118654746 0.70710678118654746 0.5 forward I I I I #
loop $-1 $-1 $210 $53 #
coedge $-1 $132 $132 $211 $212 reversed $83 $-1 #
face $-1 $-1 $213 $43 $-1 $214 forward single #
loop $-1 $215 $216 $85 #
cone-surface $-1 -57.728897955710103 32.679212413576288 3.5443430289553675 0.66913061440640931 0 -0.74314481823134659 0.3715724091156733 0 0.33456530720320465 1 I I -0.70710678118654746 0.70710678118654746 0.5 forward I I I I #
loop $-1 $-1 $217 $54 #
coedge $-1 $137 $137 $218 $219 reversed $86 $-1 #
face $-1 $220 $221 $33 $-1 $222 reversed single #
loop $-1 $-1 $223 $88 #
plane-surface $-1 0 -34.800505402611158 0 0 1 0 0 0 1 forward_v I I I I #
coedge $-1 $224 $225 $226 $227 forward $89 $-1 #
coedge $-1 $228 $91 $229 $230 forward $56 $-1 #
coedge $-1 $91 $228 $231 $232 forward $56 $-1 #
coedge $-1 $233 $234 $91 $145 reversed $235 $-1 #
edge $-1 $236 -34.800505402611158 $237 34.800505402611158 $144 $238 forward 7 unknown #
face $-1 $239 $240 $34 $-1 $241 reversed single #
loop $-1 $-1 $242 $92 #
plane-surface $-1 -62.840052491836296 0 0 1 0 0 0 0 -1 forward_v I I I I #
coedge $-1 $243 $244 $245 $246 forward $93 $-1 #
coedge $-1 $245 $95 $242 $247 reversed $59 $-1 #
coedge $-1 $95 $245 $248 $249 reversed $59 $-1 #
coedge $-1 $250 $251 $95 $153 reversed $240 $-1 #
edge $-1 $252 -62.840052491836296 $253 62.840052491836296 $152 $254 forward 7 unknown #
face $-1 $255 $256 $35 $-1 $257 reversed single #
loop $-1 $-1 $258 $96 #
plane-surface $-1 22.857588926275021 -7.4889691151239717 176.56536860443461 0 1 0 0.52991927123019833 0 0.84804809178421925 forward_v I I I I #
coedge $-1 $259 $260 $261 $262 reversed $97 $-1 #
coedge $-1 $159 $99 $263 $264 reversed $62 $-1 #
coedge $-1 $99 $158 $259 $265 reversed $62 $-1 #
coedge $-1 $261 $266 $99 $161 forward $267 $-1 #
edge $-1 $268 -51.411258028698782 $269 -43.222763093175715 $160 $270 forward 7 unknown #
loop $-1 $-1 $167 $100 #
plane-surface $-1 -43.742720714807582 -1.1264817705945092 69.982595397790718 0.52991927123019833 0 0.84804809178421925 0.84804809178421925 0 -0.52991927123019833 forward_v I I I I #
loop $-1 $-1 $271 $64 #
coedge $-1 $165 $165 $166 $272 reversed $101 $-1 #
coedge $-1 $166 $166 $165 $272 forward $103 $-1 #
coedge $-1 $167 $167 $104 $168 forward $162 $-1 #
edge $-1 $273 0 $273 6.2831853071796004 $167 $274 forward 7 unknown #
loop $-1 $-1 $174 $105 #
plane-surface $-1 -43.742720714807582 -1.1264817705945092 69.982595397790718 0.52991927123019833 0 0.84804809178421925 0.84804809178421925 0 -0.52991927123019833 forward_v I I I I #
loop $-1 $-1 $275 $67 #
coedge $-1 $172 $172 $173 $276 reversed $106 $-1 #
coedge $-1 $173 $173 $172 $276 forward $108 $-1 #
coedge $-1 $174 $174 $109 $175 forward $169 $-1 #
edge $-1 $277 0 $277 6.2831853071796004 $174 $278 forward 7 unknown #
face $-1 $279 $280 $38 $-1 $281 forward single #
loop $-1 $-1 $282 $110 #
plane-surface $-1 -146.93645835822315 5.5922378262170049 95.713791885402671 0 -1 0 0.66913061440640931 0 -0.74314481823134659 forward_v I I I I #
coedge $-1 $283 $284 $285 $286 reversed $111 $-1 #
coedge $-1 $181 $113 $287 $288 reversed $71 $-1 #
coedge $-1 $113 $180 $283 $289 reversed $71 $-1 #
coedge $-1 $285 $290 $113 $183 forward $280 $-1 #
edge $-1 $291 10.628176687275278 $292 17.495929188613161 $182 $293 forward 7 unknown #
loop $-1 $-1 $189 $114 #
plane-surface $-1 -62.840052491836289 1.8799750954059888 2.3152731120147507 -0.66913061440640931 0 0.74314481823134659 0.74314481823134659 0 0.66913061440640931 forward_v I I I I #
loop $-1 $-1 $294 $73 #
coedge $-1 $187 $187 $188 $295 reversed $115 $-1 #
coedge $-1 $188 $188 $187 $295 forward $117 $-1 #
coedge $-1 $189 $189 $118 $190 forward $184 $-1 #
edge $-1 $296 0 $296 6.2831853071796004 $189 $297 forward 7 unknown #
loop $-1 $-1 $196 $119 #
plane-surface $-1 -62.840052491836289 1.8799750954059888 2.3152731120147507 -0.66913061440640931 0 0.74314481823134659 0.74314481823134659 0 0.66913061440640931 forward_v I I I I #
loop $-1 $-1 $298 $76 #
coedge $-1 $194 $194 $195 $299 reversed $120 $-1 #
coedge $-1 $195 $195 $194 $299 forward $122 $-1 #
coedge $-1 $196 $196 $123 $197 forward $191 $-1 #
edge $-1 $300 0 $300 6.2831853071796004 $196 $301 forward 7 unknown #
face $-1 $302 $303 $41 $-1 $304 reversed single #
loop $-1 $-1 $204 $124 #
plane-surface $-1 0 0 8.4990253741219988 0 0 1 1 0 0 forward_v I I I I #
coedge $-1 $305 $306 $307 $308 reversed $125 $-1 #
coedge $-1 $203 $127 $309 $310 reversed $80 $-1 #
coedge $-1 $127 $202 $305 $311 reversed $80 $-1 #
coedge $-1 $307 $312 $127 $205 forward $199 $-1 #
edge $-1 $313 10.628176687275278 $314 17.495929188613161 $204 $315 forward 7 unknown #
loop $-1 $-1 $211 $128 #
plane-surface $-1 -62.840052491836289 31.088242671800138 2.3152731120147507 -0.66913061440640931 0 0.74314481823134659 0.74314481823134659 0 0.66913061440640931 forward_v I I I I #
loop $-1 $-1 $316 $82 #
coedge $-1 $209 $209 $210 $317 reversed $129 $-1 #
coedge $-1 $210 $210 $209 $317 forward $131 $-1 #
coedge $-1 $211 $211 $132 $212 forward $206 $-1 #
edge $-1 $318 0 $318 6.2831853071796004 $211 $319 forward 7 unknown #
loop $-1 $-1 $218 $133 #
plane-surface $-1 -62.840052491836289 31.088242671800138 2.3152731120147507 -0.66913061440640931 0 0.74314481823134659 0.74314481823134659 0 0.66913061440640931 forward_v I I I I #
loop $-1 $-1 $320 $85 #
coedge $-1 $216 $216 $217 $321 reversed $134 $-1 #
coedge $-1 $217 $217 $216 $321 forward $136 $-1 #
coedge $-1 $218 $218 $137 $219 forward $213 $-1 #
edge $-1 $322 0 $322 6.2831853071796004 $218 $323 forward 7 unknown #
face $-1 $324 $325 $33 $-1 $326 reversed single #
loop $-1 $-1 $327 $138 #
plane-surface $-1 -62.840052491836296 0 0 1 0 0 0 0 -1 forward_v I I I I #
coedge $-1 $328 $231 $329 $330 forward $139 $-1 #
coedge $-1 $331 $141 $328 $332 forward $89 $-1 #
coedge $-1 $141 $331 $333 $334 forward $89 $-1 #
coedge $-1 $234 $233 $141 $227 reversed $235 $-1 #
edge $-1 $335 -34.800505402611158 $336 34.800505402611158 $226 $337 forward 7 unknown #
coedge $-1 $143 $142 $338 $339 forward $56 $-1 #
coedge $-1 $340 $341 $142 $230 reversed $325 $-1 #
edge $-1 $237 -62.840052491836296 $342 62.840052491836296 $229 $343 forward 7 unknown #
coedge $-1 $223 $344 $143 $232 reversed $139 $-1 #
edge $-1 $345 -62.840052491836296 $236 62.840052491836296 $231 $346 forward 7 unknown #
coedge $-1 $226 $144 $344 $347 forward $235 $-1 #
coedge $-1 $144 $226 $340 $348 reversed $235 $-1 #
loop $-1 $-1 $233 $324 #
vertex $-1 $145 $349 #
vertex $-1 $145 $350 #
straight-curve $-1 62.840052491836296 0 8.4990253741219988 0 1 0 I I #
face $-1 $351 $352 $34 $-1 $353 reversed single #
loop $-1 $-1 $250 $146 #
plane-surface $-1 0 -40.392743228828166 4.0446303315503052 0 0 1 1 0 0 forward_v I I I I #
coedge $-1 $354 $355 $150 $247 forward $147 $-1 #
coedge $-1 $356 $149 $355 $357 forward $93 $-1 #
coedge $-1 $149 $356 $358 $359 forward $93 $-1 #
coedge $-1 $151 $150 $149 $246 reversed $59 $-1 #
edge $-1 $360 -62.840052491836296 $361 62.840052491836296 $149 $362 forward 7 unknown #
edge $-1 $361 -8.4990253741219988 $253 -4.0446303315503052 $242 $363 forward 7 unknown #
coedge $-1 $358 $364 $151 $249 forward $365 $-1 #
edge $-1 $252 4.0446303315503052 $360 8.4990253741219988 $248 $366 forward 7 unknown #
coedge $-1 $367 $152 $364 $368 forward $240 $-1 #
coedge $-1 $152 $367 $354 $369 forward $240 $-1 #
vertex $-1 $249 $370 #
vertex $-1 $247 $371 #
straight-curve $-1 0 -34.800505402611158 4.0446303315503052 -1 0 0 I I #
face $-1 $-1 $267 $35 $-1 $372 forward single #
loop $-1 $-1 $373 $154 #
plane-surface $-1 62.840052491836296 0 0 -1 0 0 0 0 1 forward_v I I I I #
coedge $-1 $374 $375 $376 $377 reversed $155 $-1 #
coedge $-1 $378 $157 $159 $265 forward $97 $-1 #
coedge $-1 $157 $378 $374 $379 forward $97 $-1 #
coedge $-1 $376 $160 $157 $262 forward $267 $-1 #
edge $-1 $269 -5.7992464592322079 $380 6.9257282298267171 $261 $381 forward 7 unknown #
coedge $-1 $382 $383 $158 $264 forward $256 $-1 #
edge $-1 $384 -84.900398545509177 $268 -79.783658928095306 $263 $385 forward 7 unknown #
edge $-1 $269 116.02440854988286 $384 125.68010498367259 $159 $386 forward 7 unknown #
coedge $-1 $160 $376 $382 $387 forward $267 $-1 #
loop $-1 $-1 $376 $255 #
vertex $-1 $264 $388 #
vertex $-1 $161 $389 #
straight-curve $-1 11.42879446313751 5.2360055739349534 8.4990253741219988 -1 0 0 I I #
coedge $-1 $271 $271 $-1 $390 reversed $164 $-1 #
edge $-1 $391 0 $391 6.2831853071796004 $165 $392 forward 7 unknown #
vertex $-1 $168 $393 #
ellipse-curve $-1 58.745805024074755 -3.853262061107138 5.9406555654150672 0.52991927123019833 0 0.84804809178421925 0.84804809178421925 0 -0.52991927123019833 1 I I #
coedge $-1 $275 $275 $-1 $394 reversed $171 $-1 #
edge $-1 $395 0 $395 6.2831853071796004 $172 $396 forward 7 unknown #
vertex $-1 $175 $397 #
ellipse-curve $-1 58.745805024074755 1.6002985199181126 5.9406555654150672 0.52991927123019833 0 0.84804809178421925 0.84804809178421925 0 -0.52991927123019833 1 I I #
face $-1 $-1 $398 $38 $-1 $399 reversed single #
loop $-1 $-1 $182 $176 #
plane-surface $-1 0 0 8.4990253741219988 0 0 1 1 0 0 forward_v I I I I #
coedge $-1 $400 $401 $402 $403 reversed $177 $-1 #
coedge $-1 $404 $179 $181 $289 forward $111 $-1 #
coedge $-1 $179 $404 $400 $405 forward $111 $-1 #
coedge $-1 $402 $182 $179 $286 forward $280 $-1 #
edge $-1 $292 -2.7722751831080217 $406 4.6522502785140105 $285 $407 forward 7 unknown #
coedge $-1 $408 $409 $180 $288 forward $398 $-1 #
edge $-1 $410 -45.541622830686592 $291 -39.357870568579337 $287 $411 forward 7 unknown #
edge $-1 $292 -9.2414726347454579 $410 9.4405131238556439e-015 $181 $412 forward 7 unknown #
coedge $-1 $182 $402 $408 $413 forward $280 $-1 #
vertex $-1 $288 $414 #
vertex $-1 $183 $415 #
straight-curve $-1 -73.468229179111574 -1.8322876354050273 8.4990253741219988 1 0 0 I I #
coedge $-1 $294 $294 $-1 $416 reversed $186 $-1 #
edge $-1 $417 0 $417 6.2831853071796004 $187 $418 forward 7 unknown #
vertex $-1 $190 $419 #
ellipse-curve $-1 -59.406176241167351 0.28900535362983248 5.4071492430683712 -0.66913061440640931 0 0.74314481823134659 0.74314481823134659 0 0.66913061440640931 1 I I #
coedge $-1 $298 $298 $-1 $420 reversed $193 $-1 #
edge $-1 $421 0 $421 6.2831853071796004 $194 $422 forward 7 unknown #
vertex $-1 $197 $423 #
ellipse-curve $-1 -59.406176241167351 3.470944837182131 5.4071492430683712 -0.66913061440640931 0 0.74314481823134659 0.74314481823134659 0 0.66913061440640931 1 I I #
face $-1 $-1 $424 $41 $-1 $425 reversed single #
loop $-1 $-1 $426 $198 #
plane-surface $-1 0 34.800505402611158 0 0 -1 0 0 0 -1 forward_v I I I I #
coedge $-1 $427 $201 $203 $311 forward $125 $-1 #
coedge $-1 $201 $427 $426 $428 reversed $125 $-1 #
coedge $-1 $429 $204 $201 $308 forward $199 $-1 #
edge $-1 $314 11.831858605089053 $430 19.256384066711082 $307 $431 forward 7 unknown #
coedge $-1 $432 $433 $202 $310 forward $424 $-1 #
edge $-1 $434 -45.541622830686592 $313 -39.357870568579337 $309 $435 forward 7 unknown #
edge $-1 $314 -9.2414726347454579 $434 9.4405131238556439e-015 $203 $436 forward 7 unknown #
coedge $-1 $204 $429 $432 $437 forward $199 $-1 #
vertex $-1 $310 $438 #
vertex $-1 $205 $439 #
straight-curve $-1 -73.468229179111574 27.375979940989122 8.4990253741219988 1 0 0 I I #
coedge $-1 $316 $316 $-1 $440 reversed $208 $-1 #
edge $-1 $441 0 $441 6.2831853071796004 $209 $442 forward 7 unknown #
vertex $-1 $212 $443 #
ellipse-curve $-1 -59.406176241167351 29.497272930023989 5.4071492430683712 -0.66913061440640931 0 0.74314481823134659 0.74314481823134659 0 0.66913061440640931 1 I I #
coedge $-1 $320 $320 $-1 $444 reversed $215 $-1 #
edge $-1 $445 0 $445 6.2831853071796004 $216 $446 forward 7 unknown #
vertex $-1 $219 $447 #
ellipse-curve $-1 -59.406176241167351 32.679212413576288 5.4071492430683712 -0.66913061440640931 0 0.74314481823134659 0.74314481823134659 0 0.66913061440640931 1 I I #
face $-1 $-1 $235 $33 $-1 $448 reversed single #
loop $-1 $-1 $340 $220 #
plane-surface $-1 0 34.800505402611158 0 0 -1 0 0 0 -1 forward_v I I I I #
coedge $-1 $449 $338 $341 $450 forward $221 $-1 #
coedge $-1 $344 $223 $224 $332 reversed $139 $-1 #
coedge $-1 $338 $449 $223 $330 reversed $221 $-1 #
edge $-1 $345 -8.4990253741219988 $451 8.4990253741219988 $329 $452 forward 7 unknown #
coedge $-1 $225 $224 $449 $453 forward $89 $-1 #
edge $-1 $336 -62.840052491836296 $451 62.840052491836296 $328 $454 forward 7 unknown #
coedge $-1 $341 $340 $225 $334 reversed $325 $-1 #
edge $-1 $455 -62.840052491836296 $335 62.840052491836296 $333 $456 forward 7 unknown #
vertex $-1 $227 $457 #
vertex $-1 $347 $458 #
straight-curve $-1 62.840052491836296 0 -8.4990253741219988 0 -1 0 I I #
coedge $-1 $327 $329 $228 $339 reversed $221 $-1 #
edge $-1 $342 -34.800505402611158 $345 34.800505402611158 $338 $459 forward 7 unknown #
coedge $-1 $333 $229 $234 $348 forward $325 $-1 #
coedge $-1 $229 $333 $327 $450 reversed $325 $-1 #
vertex $-1 $230 $460 #
straight-curve $-1 0 34.800505402611158 8.4990253741219988 -1 0 0 I I #
coedge $-1 $231 $328 $233 $347 reversed $139 $-1 #
vertex $-1 $339 $461 #
straight-curve $-1 0 -34.800505402611158 8.4990253741219988 1 0 0 I I #
edge $-1 $236 -8.4990253741219988 $336 8.4990253741219988 $233 $462 forward 7 unknown #
edge $-1 $237 -8.4990253741219988 $335 8.4990253741219988 $234 $463 forward 7 unknown #
point $-1 62.840052491836296 -34.800505402611158 8.4990253741219988 #
point $-1 62.840052491836296 34.800505402611158 8.4990253741219988 #
face $-1 $-1 $365 $34 $-1 $464 reversed single #
loop $-1 $-1 $465 $239 #
plane-surface $-1 0 -45.984981055045168 6.271827852836152 0 1 0 0 0 1 forward_v I I I I #
coedge $-1 $466 $242 $251 $369 reversed $147 $-1 #
coedge $-1 $242 $466 $243 $357 reversed $147 $-1 #
coedge $-1 $244 $243 $467 $468 forward $93 $-1 #
edge $-1 $361 34.800505402611158 $469 45.984981055045168 $355 $470 forward 7 unknown #
coedge $-1 $471 $248 $244 $359 reversed $365 $-1 #
edge $-1 $472 -45.984981055045168 $360 -34.800505402611158 $358 $473 forward 7 unknown #
vertex $-1 $249 $474 #
vertex $-1 $357 $475 #
straight-curve $-1 0 -34.800505402611158 8.4990253741219988 -1 0 0 I I #
straight-curve $-1 -62.840052491836296 -34.800505402611158 0 0 0 -1 I I #
coedge $-1 $248 $471 $250 $368 reversed $365 $-1 #
loop $-1 $-1 $248 $351 #
straight-curve $-1 62.840052491836296 -34.800505402611158 0 0 0 1 I I #
coedge $-1 $251 $250 $476 $477 forward $240 $-1 #
edge $-1 $252 -5.5922378262170014 $478 5.5922378262170014 $364 $479 forward 7 unknown #
edge $-1 $480 -5.5922378262170014 $253 5.5922378262170014 $354 $481 forward 7 unknown #
point $-1 62.840052491836296 -34.800505402611165 4.0446303315503052 #
point $-1 -62.840052491836296 -34.800505402611165 4.0446303315503052 #
plane-surface $-1 0 0 8.4990253741219988 0 0 1 1 0 0 forward_v I I I I #
coedge $-1 $383 $382 $375 $482 forward $256 $-1 #
coedge $-1 $375 $258 $260 $379 reversed $155 $-1 #
coedge $-1 $258 $374 $373 $482 reversed $155 $-1 #
coedge $-1 $266 $261 $258 $377 forward $267 $-1 #
edge $-1 $380 43.222763093175715 $483 51.411258028698782 $376 $484 forward 7 unknown #
coedge $-1 $260 $259 $383 $485 reversed $97 $-1 #
edge $-1 $486 -125.68010498367259 $380 -116.02440854988286 $374 $487 forward 7 unknown #
vertex $-1 $262 $488 #
straight-curve $-1 54.651557556313236 -0.56324088529725458 8.4990253741219988 0 -1 0 I I #
coedge $-1 $373 $263 $266 $387 reversed $256 $-1 #
coedge $-1 $263 $373 $378 $485 forward $256 $-1 #
vertex $-1 $264 $489 #
straight-curve $-1 62.840052491836296 5.2360055739349534 88.282684302217305 0 0 1 I I #
straight-curve $-1 -43.742720714807582 5.2360055739349534 69.982595397790718 0.84804809178421925 0 -0.52991927123019833 I I #
edge $-1 $483 -7.4889691151239717 $268 5.2360055739349534 $382 $490 forward 7 unknown #
point $-1 62.840052491836296 5.2360055739349534 8.4990253741219988 #
point $-1 54.651557556313229 5.2360055739349534 8.4990253741219988 #
edge $-1 $491 1 $491 0 $271 $-1 forward 7 unknown #
vertex $-1 $272 $492 #
ellipse-curve $-1 57.014992005950738 -3.853262061107138 3.1707757800510441 0.52991927123019833 0 0.84804809178421925 0.84804809178421925 0 -0.52991927123019833 1 I I #
point $-1 59.59385311585897 -3.853262061107138 5.4107362941848542 #
edge $-1 $493 1 $493 0 $275 $-1 forward 7 unknown #
vertex $-1 $276 $494 #
ellipse-curve $-1 57.014992005950738 1.6002985199181126 3.1707757800510441 0.52991927123019833 0 0.84804809178421925 0.84804809178421925 0 -0.52991927123019833 1 I I #
point $-1 59.59385311585897 1.6002985199181126 5.4107362941848542 #
loop $-1 $-1 $287 $279 #
plane-surface $-1 -62.840052491836296 0 0 1 0 0 0 0 -1 forward_v I I I I #
coedge $-1 $401 $282 $284 $405 reversed $177 $-1 #
coedge $-1 $282 $400 $495 $496 reversed $177 $-1 #
coedge $-1 $290 $285 $282 $403 forward $280 $-1 #
edge $-1 $406 -17.495929188613161 $497 -10.628176687275278 $402 $498 forward 7 unknown #
coedge $-1 $284 $283 $409 $499 reversed $111 $-1 #
edge $-1 $500 -9.4405131238556439e-015 $406 9.2414726347454579 $400 $501 forward 7 unknown #
vertex $-1 $286 $502 #
straight-curve $-1 -55.972299990498414 0.93998754770299442 8.4990253741219988 0 1 0 I I #
coedge $-1 $495 $287 $290 $413 reversed $398 $-1 #
coedge $-1 $287 $495 $404 $499 forward $398 $-1 #
vertex $-1 $288 $503 #
straight-curve $-1 -62.840052491836296 -1.8322876354050273 47.856895942701335 0 0 1 I I #
straight-curve $-1 -62.840052491836289 -1.8322876354050273 2.3152731120147507 -0.74314481823134659 0 -0.66913061440640931 I I #
edge $-1 $497 -5.5922378262170049 $291 1.8322876354050273 $408 $504 forward 7 unknown #
point $-1 -62.840052491836296 -1.8322876354050273 8.4990253741219988 #
point $-1 -55.972299990498414 -1.8322876354050273 8.4990253741219988 #
edge $-1 $505 1 $505 0 $294 $-1 forward 7 unknown #
vertex $-1 $295 $506 #
ellipse-curve $-1 -58.063463262913309 0.28900535362983248 3.9159154380710408 -0.66913061440640931 0 0.74314481823134659 0.74314481823134659 0 0.66913061440640931 1 I I #
point $-1 -58.663031422936001 0.28900535362983248 6.0762798574747796 #
edge $-1 $507 1 $507 0 $298 $-1 forward 7 unknown #
vertex $-1 $299 $508 #
ellipse-curve $-1 -58.063463262913309 3.470944837182131 3.9159154380710408 -0.66913061440640931 0 0.74314481823134659 0.74314481823134659 0 0.66913061440640931 1 I I #
point $-1 -58.663031422936001 3.470944837182131 6.0762798574747796 #
loop $-1 $-1 $309 $302 #
plane-surface $-1 -62.840052491836296 0 0 1 0 0 0 0 -1 forward_v I I I I #
coedge $-1 $509 $510 $306 $428 forward $303 $-1 #
coedge $-1 $306 $305 $433 $511 reversed $125 $-1 #
edge $-1 $430 13.333546998620983 $512 22.575019633366452 $426 $513 forward 7 unknown #
coedge $-1 $312 $307 $510 $514 forward $199 $-1 #
vertex $-1 $514 $515 #
straight-curve $-1 -55.972299990498414 15.544121335900069 8.4990253741219988 0 1 0 I I #
coedge $-1 $516 $309 $312 $437 reversed $424 $-1 #
coedge $-1 $309 $516 $427 $511 forward $424 $-1 #
vertex $-1 $310 $517 #
straight-curve $-1 -62.840052491836296 27.375979940989122 47.856895942701335 0 0 1 I I #
straight-curve $-1 -62.840052491836289 27.375979940989122 2.3152731120147507 -0.74314481823134659 0 -0.66913061440640931 I I #
edge $-1 $518 -34.800505402611158 $313 -27.375979940989122 $432 $519 forward 7 unknown #
point $-1 -62.840052491836296 27.375979940989122 8.4990253741219988 #
point $-1 -55.972299990498414 27.375979940989122 8.4990253741219988 #
edge $-1 $520 1 $520 0 $316 $-1 forward 7 unknown #
vertex $-1 $317 $521 #
ellipse-curve $-1 -58.063463262913309 29.497272930023989 3.9159154380710408 -0.66913061440640931 0 0.74314481823134659 0.74314481823134659 0 0.66913061440640931 1 I I #
point $-1 -58.663031422936001 29.497272930023989 6.0762798574747796 #
edge $-1 $522 1 $522 0 $320 $-1 forward 7 unknown #
vertex $-1 $321 $523 #
ellipse-curve $-1 -58.063463262913309 32.679212413576288 3.9159154380710408 -0.66913061440640931 0 0.74314481823134659 0.74314481823134659 0 0.66913061440640931 1 I I #
point $-1 -58.663031422936001 32.679212413576288 6.0762798574747796 #
plane-surface $-1 62.840052491836296 0 0 -1 0 0 0 0 1 forward_v I I I I #
coedge $-1 $329 $327 $331 $453 reversed $221 $-1 #
edge $-1 $342 -8.4990253741219988 $455 8.4990253741219988 $341 $524 forward 7 unknown #
vertex $-1 $453 $525 #
straight-curve $-1 -62.840052491836296 -34.800505402611158 0 0 0 -1 I I #
edge $-1 $451 -34.800505402611158 $455 34.800505402611158 $449 $526 forward 7 unknown #
straight-curve $-1 0 -34.800505402611158 -8.4990253741219988 -1 0 0 I I #
vertex $-1 $334 $527 #
straight-curve $-1 0 34.800505402611158 -8.4990253741219988 1 0 0 I I #
point $-1 62.840052491836296 34.800505402611158 -8.4990253741219988 #
point $-1 62.840052491836296 -34.800505402611158 -8.4990253741219988 #
straight-curve $-1 -62.840052491836296 0 8.4990253741219988 0 -1 0 I I #
point $-1 -62.840052491836296 34.800505402611158 8.4990253741219988 #
point $-1 -62.840052491836296 -34.800505402611158 8.4990253741219988 #
straight-curve $-1 62.840052491836296 -34.800505402611158 0 0 0 -1 I I #
straight-curve $-1 62.840052491836296 34.800505402611158 0 0 0 -1 I I #
plane-surface $-1 62.840052491836296 0 0 -1 0 0 0 0 1 forward_v I I I I #
coedge $-1 $476 $467 $466 $528 forward $352 $-1 #
coedge $-1 $355 $354 $465 $528 reversed $147 $-1 #
coedge $-1 $465 $529 $356 $468 reversed $352 $-1 #
edge $-1 $469 -62.840052491836296 $472 62.840052491836296 $467 $530 forward 7 unknown #
vertex $-1 $357 $531 #
straight-curve $-1 -62.840052491836296 0 8.4990253741219988 0 -1 0 I I #
coedge $-1 $364 $358 $529 $532 forward $365 $-1 #
vertex $-1 $359 $533 #
straight-curve $-1 62.840052491836296 0 8.4990253741219988 0 1 0 I I #
point $-1 62.840052491836296 -34.800505402611158 8.4990253741219988 #
point $-1 -62.840052491836296 -34.800505402611158 8.4990253741219988 #
coedge $-1 $529 $465 $367 $477 reversed $352 $-1 #
edge $-1 $478 -62.840052491836296 $480 62.840052491836296 $476 $534 forward 7 unknown #
vertex $-1 $532 $535 #
straight-curve $-1 62.840052491836296 -40.392743228828166 4.0446303315503052 0 -1 0 I I #
vertex $-1 $369 $536 #
straight-curve $-1 -62.840052491836296 -40.392743228828166 4.0446303315503052 0 1 0 I I #
edge $-1 $483 79.783658928095306 $486 84.900398545509177 $373 $537 forward 7 unknown #
vertex $-1 $387 $538 #
straight-curve $-1 11.42879446313751 -7.4889691151239717 8.4990253741219988 1 0 0 I I #
edge $-1 $486 -6.9257282298267171 $384 5.7992464592322079 $383 $539 forward 7 unknown #
vertex $-1 $485 $540 #
straight-curve $-1 -43.742720714807582 -7.4889691151239717 69.982595397790718 -0.84804809178421925 0 0.52991927123019833 I I #
point $-1 54.651557556313229 -7.4889691151239717 8.4990253741219988 #
point $-1 62.840052491836296 5.2360055739349534 3.3822857567081286 #
straight-curve $-1 62.840052491836296 0 8.4990253741219988 0 1 0 I I #
vertex $-1 $390 $541 #
point $-1 57.863040097734959 -3.853262061107138 2.6408565088208453 #
vertex $-1 $394 $542 #
point $-1 57.863040097734959 1.6002985199181126 2.6408565088208453 #
coedge $-1 $409 $408 $401 $496 forward $398 $-1 #
edge $-1 $497 39.357870568579337 $500 45.541622830686592 $495 $543 forward 7 unknown #
vertex $-1 $413 $544 #
straight-curve $-1 -73.468229179111574 5.5922378262170049 8.4990253741219988 -1 0 0 I I #
edge $-1 $500 -4.6522502785140105 $410 2.7722751831080217 $409 $545 forward 7 unknown #
vertex $-1 $499 $546 #
straight-curve $-1 -62.840052491836289 5.5922378262170049 2.3152731120147507 0.74314481823134659 0 0.66913061440640931 I I #
point $-1 -55.972299990498414 5.5922378262170049 8.4990253741219988 #
point $-1 -62.840052491836296 -1.8322876354050273 2.3152731120147445 #
straight-curve $-1 -62.840052491836296 0 8.4990253741219988 0 -1 0 I I #
vertex $-1 $416 $547 #
point $-1 -57.320318444681959 0.28900535362983248 4.5850460524774501 #
vertex $-1 $420 $548 #
point $-1 -57.320318444681959 3.470944837182131 4.5850460524774501 #
coedge $-1 $510 $426 $516 $549 reversed $303 $-1 #
coedge $-1 $426 $509 $429 $514 reversed $303 $-1 #
edge $-1 $512 -19.256384066711082 $434 -11.831858605089053 $433 $550 forward 7 unknown #
vertex $-1 $428 $551 #
straight-curve $-1 -46.063543629829105 34.800505402611158 17.420909869525993 -0.74314481823134659 0 -0.66913061440640931 I I #
edge $-1 $430 55.972299990498414 $518 62.840052491836296 $510 $552 forward 7 unknown #
point $-1 -55.972299990498414 34.800505402611151 8.4990253741219988 #
coedge $-1 $433 $432 $509 $549 forward $424 $-1 #
point $-1 -62.840052491836296 27.375979940989122 2.3152731120147445 #
vertex $-1 $514 $553 #
straight-curve $-1 -62.840052491836296 0 8.4990253741219988 0 -1 0 I I #
vertex $-1 $440 $554 #
point $-1 -57.320318444681959 29.497272930023989 4.5850460524774501 #
vertex $-1 $444 $555 #
point $-1 -57.320318444681959 32.679212413576288 4.5850460524774501 #
straight-curve $-1 -62.840052491836296 34.800505402611158 0 0 0 -1 I I #
point $-1 -62.840052491836296 -34.800505402611158 -8.4990253741219988 #
straight-curve $-1 -62.840052491836296 0 -8.4990253741219988 0 1 0 I I #
point $-1 -62.840052491836296 34.800505402611158 -8.4990253741219988 #
edge $-1 $469 -2.2271975212858468 $480 2.2271975212858468 $466 $556 forward 7 unknown #
coedge $-1 $467 $476 $471 $532 reversed $352 $-1 #
straight-curve $-1 0 -45.984981055045168 8.4990253741219988 1 0 0 I I #
point $-1 -62.840052491836296 -45.984981055045168 8.4990253741219988 #
edge $-1 $472 -2.2271975212858468 $478 2.2271975212858468 $471 $557 forward 7 unknown #
point $-1 62.840052491836296 -45.984981055045168 8.4990253741219988 #
straight-curve $-1 0 -45.984981055045168 4.0446303315503052 -1 0 0 I I #
point $-1 62.840052491836296 -45.984981055045168 4.0446303315503052 #
point $-1 -62.840052491836296 -45.984981055045168 4.0446303315503052 #
straight-curve $-1 62.840052491836296 -7.4889691151239717 88.282684302217305 0 0 -1 I I #
point $-1 62.840052491836296 -7.4889691151239717 8.4990253741219988 #
straight-curve $-1 62.840052491836303 -0.56324088529725458 3.3822857567081215 0 1 0 I I #
point $-1 62.840052491836296 -7.4889691151239717 3.3822857567081286 #
point $-1 56.485072734720539 -3.853262061107138 2.3227276882668244 #
point $-1 56.485072734720539 1.6002985199181126 2.3227276882668244 #
straight-curve $-1 -62.840052491836296 5.5922378262170049 47.856895942701335 0 0 -1 I I #
point $-1 -62.840052491836296 5.5922378262170049 8.4990253741219988 #
straight-curve $-1 -62.840052491836296 0.93998754770299442 2.3152731120147378 0 -1 0 I I #
point $-1 -62.840052491836296 5.5922378262170049 2.3152731120147445 #
point $-1 -57.394332648506897 0.28900535362983248 3.1727706198396941 #
point $-1 -57.394332648506897 3.470944837182131 3.1727706198396941 #
edge $-1 $518 -8.4990253741219988 $512 -2.3152731120147445 $509 $558 forward 7 unknown #
straight-curve $-1 -62.840052491836296 15.544121335900069 2.3152731120147378 0 -1 0 I I #
point $-1 -62.840052491836296 34.800505402611151 2.3152731120147445 #
straight-curve $-1 0 34.800505402611158 8.4990253741219988 -1 0 0 I I #
point $-1 -62.840052491836296 34.800505402611158 8.4990253741219988 #
point $-1 -57.394332648506897 29.497272930023989 3.1727706198396941 #
point $-1 -57.394332648506897 32.679212413576288 3.1727706198396941 #
straight-curve $-1 -62.840052491836296 -45.984981055045168 6.271827852836152 0 0 -1 I I #
straight-curve $-1 62.840052491836296 -45.984981055045168 6.271827852836152 0 0 -1 I I #
straight-curve $-1 -62.840052491836296 34.800505402611158 0 0 0 -1 I I #
End-of-ACIS-data 