500 0 18 0           
7 Unknown 11 ACIS 5.0 NT 24 Thu Mar 25 20:02:53 1999 
-1 9.9999999999999995e-007 1e-010 
body $-1 $18 $-1 $19 #
body $-1 $20 $-1 $21 #
body $-1 $22 $-1 $23 #
body $-1 $24 $-1 $25 #
body $-1 $26 $-1 $27 #
body $-1 $28 $-1 $29 #
body $-1 $30 $-1 $31 #
body $-1 $32 $-1 $33 #
body $-1 $34 $-1 $35 #
body $-1 $36 $-1 $37 #
body $-1 $38 $-1 $39 #
body $-1 $40 $-1 $41 #
body $-1 $42 $-1 $43 #
body $-1 $44 $-1 $45 #
body $-1 $46 $-1 $47 #
body $-1 $48 $-1 $49 #
body $-1 $50 $-1 $51 #
body $-1 $52 $-1 $53 #
lump $-1 $-1 $54 $0 #
transform $-1 1 0 0 0 1 0 0 0 1 57.373577074495685 31.614036871033115 9.7845574365640804 1 rotate no_reflect no_shear #
lump $-1 $-1 $55 $1 #
transform $-1 1 0 0 0 1 0 0 0 1 57.373577074495685 31.614036871033115 9.7845574365640804 1 rotate no_reflect no_shear #
lump $-1 $-1 $56 $2 #
transform $-1 1 0 0 0 1 0 0 0 1 57.373577074495685 31.614036871033115 9.7845574365640804 1 rotate no_reflect no_shear #
lump $-1 $-1 $57 $3 #
transform $-1 1 0 0 0 1 0 0 0 1 57.373577074495685 31.614036871033115 9.7845574365640804 1 rotate no_reflect no_shear #
lump $-1 $-1 $58 $4 #
transform $-1 1 0 0 0 1 0 0 0 1 57.373577074495685 31.614036871033115 9.7845574365640804 1 rotate no_reflect no_shear #
lump $-1 $-1 $59 $5 #
transform $-1 1 0 0 0 1 0 0 0 1 57.373577074495685 31.614036871033115 9.7845574365640804 1 rotate no_reflect no_shear #
lump $-1 $-1 $60 $6 #
transform $-1 1 0 0 0 1 0 0 0 1 57.373577074495685 31.614036871033115 9.7845574365640804 1 rotate no_reflect no_shear #
lump $-1 $-1 $61 $7 #
transform $-1 1 0 0 0 1 0 0 0 1 57.373577074495685 31.614036871033115 9.7845574365640804 1 rotate no_reflect no_shear #
lump $-1 $-1 $62 $8 #
transform $-1 1 0 0 0 1 0 0 0 1 57.373577074495685 31.614036871033115 9.7845574365640804 1 rotate no_reflect no_shear #
lump $-1 $-1 $63 $9 #
transform $-1 1 0 0 0 1 0 0 0 1 57.373577074495685 31.614036871033115 9.7845574365640804 1 rotate no_reflect no_shear #
lump $-1 $-1 $64 $10 #
transform $-1 1 0 0 0 1 0 0 0 1 57.373577074495685 31.614036871033115 9.7845574365640804 1 rotate no_reflect no_shear #
lump $-1 $-1 $65 $11 #
transform $-1 1 0 0 0 1 0 0 0 1 57.373577074495685 31.614036871033115 9.7845574365640804 1 rotate no_reflect no_shear #
lump $-1 $-1 $66 $12 #
transform $-1 1 0 0 0 1 0 0 0 1 57.373577074495685 31.614036871033115 9.7845574365640804 1 rotate no_reflect no_shear #
lump $-1 $-1 $67 $13 #
transform $-1 1 0 0 0 1 0 0 0 1 57.373577074495685 31.614036871033115 9.7845574365640804 1 rotate no_reflect no_shear #
lump $-1 $-1 $68 $14 #
transform $-1 1 0 0 0 1 0 0 0 1 57.373577074495685 31.614036871033115 9.7845574365640804 1 rotate no_reflect no_shear #
lump $-1 $-1 $69 $15 #
transform $-1 1 0 0 0 1 0 0 0 1 57.373577074495685 31.614036871033115 9.7845574365640804 1 rotate no_reflect no_shear #
lump $-1 $-1 $70 $16 #
transform $-1 1 0 0 0 1 0 0 0 1 57.373577074495685 31.614036871033115 9.7845574365640804 1 rotate no_reflect no_shear #
lump $-1 $-1 $71 $17 #
transform $-1 1 0 0 0 1 0 0 0 1 57.373577074495685 31.614036871033115 9.7845574365640804 1 rotate no_reflect no_shear #
shell $-1 $-1 $-1 $72 $-1 $18 #
shell $-1 $-1 $-1 $73 $-1 $20 #
shell $-1 $-1 $-1 $74 $-1 $22 #
shell $-1 $-1 $-1 $75 $-1 $24 #
shell $-1 $-1 $-1 $76 $-1 $26 #
shell $-1 $-1 $-1 $77 $-1 $28 #
shell $-1 $-1 $-1 $78 $-1 $30 #
shell $-1 $-1 $-1 $79 $-1 $32 #
shell $-1 $-1 $-1 $80 $-1 $34 #
shell $-1 $-1 $-1 $81 $-1 $36 #
shell $-1 $-1 $-1 $82 $-1 $38 #
shell $-1 $-1 $-1 $83 $-1 $40 #
shell $-1 $-1 $-1 $84 $-1 $42 #
shell $-1 $-1 $-1 $85 $-1 $44 #
shell $-1 $-1 $-1 $86 $-1 $46 #
shell $-1 $-1 $-1 $87 $-1 $48 #
shell $-1 $-1 $-1 $88 $-1 $50 #
shell $-1 $-1 $-1 $89 $-1 $52 #
face $-1 $90 $91 $54 $-1 $92 forward single #
face $-1 $93 $94 $55 $-1 $95 reversed single #
face $-1 $96 $97 $56 $-1 $98 reversed single #
face $-1 $99 $100 $57 $-1 $101 reversed single #
face $-1 $102 $103 $58 $-1 $104 forward single #
face $-1 $105 $106 $59 $-1 $107 forward single #
face $-1 $108 $109 $60 $-1 $110 reversed single #
face $-1 $111 $112 $61 $-1 $113 forward single #
face $-1 $114 $115 $62 $-1 $116 forward single #
face $-1 $117 $118 $63 $-1 $119 reversed single #
face $-1 $120 $121 $64 $-1 $122 forward single #
face $-1 $123 $124 $65 $-1 $125 forward single #
face $-1 $126 $127 $66 $-1 $128 reversed single #
face $-1 $129 $130 $67 $-1 $131 forward single #
face $-1 $132 $133 $68 $-1 $134 forward single #
face $-1 $135 $136 $69 $-1 $137 reversed single #
face $-1 $138 $139 $70 $-1 $140 forward single #
face $-1 $141 $142 $71 $-1 $143 forward single #
face $-1 $144 $145 $54 $-1 $146 reversed single #
loop $-1 $-1 $147 $72 #
plane-surface $-1 0 0 9.7845574365640804 0 0 1 1 0 0 forward_v I I I I #
face $-1 $148 $149 $55 $-1 $150 reversed single #
loop $-1 $-1 $151 $73 #
plane-surface $-1 -40.804462201367528 -27.560637559330583 0 1 0 0 0 0 -1 forward_v I I I I #
face $-1 $152 $153 $56 $-1 $154 reversed single #
loop $-1 $-1 $155 $74 #
plane-surface $-1 -39.304462201367528 23.507238247628049 0 0 1 0 0 0 1 forward_v I I I I #
face $-1 $156 $157 $57 $-1 $158 reversed single #
loop $-1 $-1 $159 $75 #
plane-surface $-1 -126.43013917954779 -21.191102373113321 97.339293374573657 0 1 0 -0.6018150307709319 0 0.79863550430605224 forward_v I I I I #
face $-1 $160 $161 $58 $-1 $162 forward single #
loop $-1 $163 $164 $76 #
cone-surface $-1 -53.740022190515369 -19.123124887464066 6.5176462393376067 0.6018150307709319 0 -0.79863550430605224 0.79863550430605224 0 0.6018150307709319 1 I I 0 1 1 forward I I I I #
face $-1 $165 $166 $59 $-1 $167 forward single #
loop $-1 $168 $169 $77 #
cone-surface $-1 -53.740022190515369 -16.021158658990178 6.5176462393376067 0.6018150307709319 0 -0.79863550430605224 0.79863550430605224 0 0.6018150307709319 1 I I 0 1 1 forward I I I I #
face $-1 $170 $171 $60 $-1 $172 reversed single #
loop $-1 $-1 $173 $78 #
plane-surface $-1 -126.43013917954779 -9.4763411909619037 97.339293374573657 0 1 0 -0.6018150307709319 0 0.79863550430605224 forward_v I I I I #
face $-1 $174 $175 $61 $-1 $176 forward single #
loop $-1 $177 $178 $79 #
cone-surface $-1 -53.740022190515369 -7.4083637053126488 6.5176462393376067 0.6018150307709319 0 -0.79863550430605224 0.79863550430605224 0 0.6018150307709319 1 I I 0 1 1 forward I I I I #
face $-1 $179 $180 $62 $-1 $181 forward single #
loop $-1 $182 $183 $80 #
cone-surface $-1 -53.740022190515369 -4.306397476838761 6.5176462393376067 0.6018150307709319 0 -0.79863550430605224 0.79863550430605224 0 0.6018150307709319 1 I I 0 1 1 forward I I I I #
face $-1 $184 $185 $63 $-1 $186 reversed single #
loop $-1 $-1 $187 $81 #
plane-surface $-1 -126.43013917954779 2.2384199911895095 97.339293374573657 0 1 0 -0.6018150307709319 0 0.79863550430605224 forward_v I I I I #
face $-1 $188 $189 $64 $-1 $190 forward single #
loop $-1 $191 $192 $82 #
cone-surface $-1 -53.740022190515369 4.3063974768387681 6.5176462393376067 0.6018150307709319 0 -0.79863550430605224 0.79863550430605224 0 0.6018150307709319 1 I I 0 1 1 forward I I I I #
face $-1 $193 $194 $65 $-1 $195 forward single #
loop $-1 $196 $197 $83 #
cone-surface $-1 -53.740022190515369 7.4083637053126523 6.5176462393376067 0.6018150307709319 0 -0.79863550430605224 0.79863550430605224 0 0.6018150307709319 1 I I 0 1 1 forward I I I I #
face $-1 $198 $199 $66 $-1 $200 reversed single #
loop $-1 $-1 $201 $84 #
plane-surface $-1 -126.43013917954779 13.953181173340923 97.339293374573657 0 1 0 -0.6018150307709319 0 0.79863550430605224 forward_v I I I I #
face $-1 $202 $203 $67 $-1 $204 forward single #
loop $-1 $205 $206 $85 #
cone-surface $-1 -53.740022190515369 16.021158658990181 6.5176462393376067 0.6018150307709319 0 -0.79863550430605224 0.79863550430605224 0 0.6018150307709319 1 I I 0 1 1 forward I I I I #
face $-1 $207 $208 $68 $-1 $209 forward single #
loop $-1 $210 $211 $86 #
cone-surface $-1 -53.740022190515369 19.123124887464066 6.5176462393376067 0.6018150307709319 0 -0.79863550430605224 0.79863550430605224 0 0.6018150307709319 1 I I 0 1 1 forward I I I I #
face $-1 $212 $213 $69 $-1 $214 reversed single #
loop $-1 $-1 $215 $87 #
plane-surface $-1 77.150168436374159 -10.570715385068628 163.02302387485977 0 -1 0 -0.78801076186113728 0 -0.61566146476048833 forward_v I I I I #
face $-1 $216 $217 $70 $-1 $218 forward single #
loop $-1 $219 $220 $88 #
cone-surface $-1 52.868384264404305 -17.807636001106019 4.7396683520087617 -0.78801076186113728 0 -0.61566146476048833 0.61566146476048833 0 -0.78801076186113728 1 I I 0 1 1 forward I I I I #
face $-1 $221 $222 $71 $-1 $223 forward single #
loop $-1 $224 $225 $89 #
cone-surface $-1 52.868384264404305 -13.465483631483583 4.7396683520087617 -0.78801076186113728 0 -0.61566146476048833 0.61566146476048833 0 -0.78801076186113728 1 I I 0 1 1 forward I I I I #
face $-1 $226 $227 $54 $-1 $228 reversed single #
loop $-1 $-1 $229 $90 #
plane-surface $-1 0 0 -9.7845574365640804 0 0 1 1 0 0 forward_v I I I I #
coedge $-1 $230 $231 $232 $233 forward $91 $-1 #
face $-1 $234 $235 $55 $-1 $236 reversed single #
loop $-1 $-1 $237 $93 #
plane-surface $-1 -39.304462201367528 -23.507238247628052 0 0 -1 0 0 0 -1 forward_v I I I I #
coedge $-1 $238 $239 $240 $241 forward $94 $-1 #
face $-1 $242 $243 $56 $-1 $244 reversed single #
loop $-1 $-1 $245 $96 #
plane-surface $-1 -40.804462201367528 27.56063755933058 0 1 0 0 0 0 -1 forward_v I I I I #
coedge $-1 $246 $247 $248 $249 forward $97 $-1 #
face $-1 $250 $251 $57 $-1 $252 reversed single #
loop $-1 $-1 $253 $99 #
plane-surface $-1 -57.373577074495685 -17.57214177322712 5.6981420531096205 -0.6018150307709319 0 0.79863550430605224 0.79863550430605224 0 0.6018150307709319 forward_v I I I I #
coedge $-1 $254 $255 $256 $257 reversed $100 $-1 #
face $-1 $-1 $258 $58 $-1 $259 forward single #
loop $-1 $260 $261 $102 #
cone-surface $-1 -52.516987924132977 -19.123124887464066 4.8946249816853289 0.6018150307709319 0 -0.79863550430605224 0.39931775215302612 0 0.30090751538546595 1 I I -0.70710678118654746 0.70710678118654746 0.5 forward I I I I #
loop $-1 $-1 $262 $76 #
coedge $-1 $164 $164 $263 $264 reversed $103 $-1 #
face $-1 $-1 $265 $59 $-1 $266 forward single #
loop $-1 $267 $268 $105 #
cone-surface $-1 -52.516987924132977 -16.021158658990178 4.8946249816853289 0.6018150307709319 0 -0.79863550430605224 0.39931775215302612 0 0.30090751538546595 1 I I -0.70710678118654746 0.70710678118654746 0.5 forward I I I I #
loop $-1 $-1 $269 $77 #
coedge $-1 $169 $169 $270 $271 reversed $106 $-1 #
face $-1 $272 $273 $60 $-1 $274 reversed single #
loop $-1 $-1 $275 $108 #
plane-surface $-1 -57.373577074495685 -5.8573805910757031 5.6981420531096205 -0.6018150307709319 0 0.79863550430605224 0.79863550430605224 0 0.6018150307709319 forward_v I I I I #
coedge $-1 $276 $277 $278 $279 reversed $109 $-1 #
face $-1 $-1 $280 $61 $-1 $281 forward single #
loop $-1 $282 $283 $111 #
cone-surface $-1 -52.516987924132977 -7.4083637053126488 4.8946249816853289 0.6018150307709319 0 -0.79863550430605224 0.39931775215302612 0 0.30090751538546595 1 I I -0.70710678118654746 0.70710678118654746 0.5 forward I I I I #
loop $-1 $-1 $284 $79 #
coedge $-1 $178 $178 $285 $286 reversed $112 $-1 #
face $-1 $-1 $287 $62 $-1 $288 forward single #
loop $-1 $289 $290 $114 #
cone-surface $-1 -52.516987924132977 -4.306397476838761 4.8946249816853289 0.6018150307709319 0 -0.79863550430605224 0.39931775215302612 0 0.30090751538546595 1 I I -0.70710678118654746 0.70710678118654746 0.5 forward I I I I #
loop $-1 $-1 $291 $80 #
coedge $-1 $183 $183 $292 $293 reversed $115 $-1 #
face $-1 $294 $295 $63 $-1 $296 reversed single #
loop $-1 $-1 $297 $117 #
plane-surface $-1 -57.373577074495685 5.8573805910757102 5.6981420531096205 -0.6018150307709319 0 0.79863550430605224 0.79863550430605224 0 0.6018150307709319 forward_v I I I I #
coedge $-1 $298 $299 $300 $301 reversed $118 $-1 #
face $-1 $-1 $302 $64 $-1 $303 forward single #
loop $-1 $304 $305 $120 #
cone-surface $-1 -52.516987924132977 4.3063974768387681 4.8946249816853289 0.6018150307709319 0 -0.79863550430605224 0.39931775215302612 0 0.30090751538546595 1 I I -0.70710678118654746 0.70710678118654746 0.5 forward I I I I #
loop $-1 $-1 $306 $82 #
coedge $-1 $192 $192 $307 $308 reversed $121 $-1 #
face $-1 $-1 $309 $65 $-1 $310 forward single #
loop $-1 $311 $312 $123 #
cone-surface $-1 -52.516987924132977 7.4083637053126523 4.8946249816853289 0.6018150307709319 0 -0.79863550430605224 0.39931775215302612 0 0.30090751538546595 1 I I -0.70710678118654746 0.70710678118654746 0.5 forward I I I I #
loop $-1 $-1 $313 $83 #
coedge $-1 $197 $197 $314 $315 reversed $124 $-1 #
face $-1 $316 $317 $66 $-1 $318 reversed single #
loop $-1 $-1 $319 $126 #
plane-surface $-1 -57.373577074495685 17.572141773227123 5.6981420531096205 -0.6018150307709319 0 0.79863550430605224 0.79863550430605224 0 0.6018150307709319 forward_v I I I I #
coedge $-1 $320 $321 $322 $323 reversed $127 $-1 #
face $-1 $-1 $324 $67 $-1 $325 forward single #
loop $-1 $326 $327 $129 #
cone-surface $-1 -52.516987924132977 16.021158658990181 4.8946249816853289 0.6018150307709319 0 -0.79863550430605224 0.39931775215302612 0 0.30090751538546595 1 I I -0.70710678118654746 0.70710678118654746 0.5 forward I I I I #
loop $-1 $-1 $328 $85 #
coedge $-1 $206 $206 $329 $330 reversed $130 $-1 #
face $-1 $-1 $331 $68 $-1 $332 forward single #
loop $-1 $333 $334 $132 #
cone-surface $-1 -52.516987924132977 19.123124887464066 4.8946249816853289 0.6018150307709319 0 -0.79863550430605224 0.39931775215302612 0 0.30090751538546595 1 I I -0.70710678118654746 0.70710678118654746 0.5 forward I I I I #
loop $-1 $-1 $335 $86 #
coedge $-1 $211 $211 $336 $337 reversed $133 $-1 #
face $-1 $338 $339 $69 $-1 $340 reversed single #
loop $-1 $-1 $341 $135 #
plane-surface $-1 -13.271823925969883 -15.636559816294799 92.377622874394206 0.78801076186113728 0 0.61566146476048833 0.61566146476048833 0 -0.78801076186113728 forward_v I I I I #
coedge $-1 $342 $343 $344 $345 reversed $136 $-1 #
face $-1 $-1 $346 $70 $-1 $347 forward single #
loop $-1 $348 $349 $138 #
cone-surface $-1 51.027500027410824 -17.807636001106019 3.3014119973301685 -0.78801076186113728 0 -0.61566146476048833 0.30783073238024417 0 -0.39400538093056864 1 I I -0.70710678118654746 0.70710678118654746 0.5 forward I I I I #
loop $-1 $-1 $350 $88 #
coedge $-1 $220 $220 $351 $352 reversed $139 $-1 #
face $-1 $-1 $353 $71 $-1 $354 forward single #
loop $-1 $355 $356 $141 #
cone-surface $-1 51.027500027410824 -13.465483631483583 3.3014119973301685 -0.78801076186113728 0 -0.61566146476048833 0.30783073238024417 0 -0.39400538093056864 1 I I -0.70710678118654746 0.70710678118654746 0.5 forward I I I I #
loop $-1 $-1 $357 $89 #
coedge $-1 $225 $225 $358 $359 reversed $142 $-1 #
face $-1 $360 $361 $54 $-1 $362 reversed single #
loop $-1 $-1 $363 $144 #
plane-surface $-1 0 -31.614036871033115 0 0 1 0 0 0 1 forward_v I I I I #
coedge $-1 $364 $365 $366 $367 forward $145 $-1 #
coedge $-1 $368 $147 $369 $370 forward $91 $-1 #
coedge $-1 $147 $368 $371 $372 forward $91 $-1 #
coedge $-1 $373 $374 $147 $233 reversed $375 $-1 #
edge $-1 $376 -31.614036871033115 $377 31.614036871033115 $232 $378 forward 7 unknown #
face $-1 $379 $380 $55 $-1 $381 forward single #
loop $-1 $-1 $382 $148 #
plane-surface $-1 -37.804462201367528 -27.560637559330583 0 -1 0 0 0 0 1 forward_v I I I I #
coedge $-1 $383 $384 $385 $386 forward $149 $-1 #
coedge $-1 $387 $151 $388 $389 reversed $94 $-1 #
coedge $-1 $151 $387 $390 $391 reversed $94 $-1 #
coedge $-1 $384 $383 $151 $241 reversed $149 $-1 #
edge $-1 $392 -9.7845574365640804 $393 9.7845574365640804 $240 $394 forward 7 unknown #
face $-1 $395 $396 $56 $-1 $397 reversed single #
loop $-1 $-1 $398 $152 #
plane-surface $-1 -37.804462201367528 27.56063755933058 0 -1 0 0 0 0 1 forward_v I I I I #
coedge $-1 $399 $400 $401 $402 reversed $153 $-1 #
coedge $-1 $403 $155 $404 $405 reversed $97 $-1 #
coedge $-1 $155 $403 $406 $407 reversed $97 $-1 #
coedge $-1 $400 $399 $155 $249 reversed $153 $-1 #
edge $-1 $408 -9.7845574365640804 $409 9.7845574365640804 $248 $410 forward 7 unknown #
face $-1 $411 $412 $57 $-1 $413 reversed single #
loop $-1 $-1 $414 $156 #
plane-surface $-1 -126.43013917954779 -13.953181173340919 97.339293374573657 0 -1 0 0.6018150307709319 0 -0.79863550430605224 forward_v I I I I #
coedge $-1 $415 $416 $417 $418 reversed $157 $-1 #
coedge $-1 $255 $159 $419 $420 reversed $100 $-1 #
coedge $-1 $159 $254 $415 $421 reversed $100 $-1 #
coedge $-1 $417 $422 $159 $257 forward $423 $-1 #
edge $-1 $424 5.8414925152782118 $425 11.264348781245033 $256 $426 forward 7 unknown #
loop $-1 $-1 $263 $160 #
plane-surface $-1 -57.373577074495685 -17.57214177322712 5.6981420531096205 -0.6018150307709319 0 0.79863550430605224 0.79863550430605224 0 0.6018150307709319 forward_v I I I I #
loop $-1 $-1 $427 $102 #
coedge $-1 $261 $261 $262 $428 reversed $161 $-1 #
coedge $-1 $262 $262 $261 $428 forward $163 $-1 #
coedge $-1 $263 $263 $164 $264 forward $258 $-1 #
edge $-1 $429 0 $429 6.2831853071796004 $263 $430 forward 7 unknown #
loop $-1 $-1 $270 $165 #
plane-surface $-1 -57.373577074495685 -17.57214177322712 5.6981420531096205 -0.6018150307709319 0 0.79863550430605224 0.79863550430605224 0 0.6018150307709319 forward_v I I I I #
loop $-1 $-1 $431 $105 #
coedge $-1 $268 $268 $269 $432 reversed $166 $-1 #
coedge $-1 $269 $269 $268 $432 forward $168 $-1 #
coedge $-1 $270 $270 $169 $271 forward $265 $-1 #
edge $-1 $433 0 $433 6.2831853071796004 $270 $434 forward 7 unknown #
face $-1 $435 $436 $60 $-1 $437 forward single #
loop $-1 $-1 $438 $170 #
plane-surface $-1 -126.43013917954779 -2.2384199911895024 97.339293374573657 0 -1 0 0.6018150307709319 0 -0.79863550430605224 forward_v I I I I #
coedge $-1 $439 $440 $441 $442 reversed $171 $-1 #
coedge $-1 $277 $173 $443 $444 reversed $109 $-1 #
coedge $-1 $173 $276 $439 $445 reversed $109 $-1 #
coedge $-1 $441 $446 $173 $279 forward $436 $-1 #
edge $-1 $447 5.8414925152782118 $448 11.264348781245033 $278 $449 forward 7 unknown #
loop $-1 $-1 $285 $174 #
plane-surface $-1 -57.373577074495685 -5.8573805910757031 5.6981420531096205 -0.6018150307709319 0 0.79863550430605224 0.79863550430605224 0 0.6018150307709319 forward_v I I I I #
loop $-1 $-1 $450 $111 #
coedge $-1 $283 $283 $284 $451 reversed $175 $-1 #
coedge $-1 $284 $284 $283 $451 forward $177 $-1 #
coedge $-1 $285 $285 $178 $286 forward $280 $-1 #
edge $-1 $452 0 $452 6.2831853071796004 $285 $453 forward 7 unknown #
loop $-1 $-1 $292 $179 #
plane-surface $-1 -57.373577074495685 -5.8573805910757031 5.6981420531096205 -0.6018150307709319 0 0.79863550430605224 0.79863550430605224 0 0.6018150307709319 forward_v I I I I #
loop $-1 $-1 $454 $114 #
coedge $-1 $290 $290 $291 $455 reversed $180 $-1 #
coedge $-1 $291 $291 $290 $455 forward $182 $-1 #
coedge $-1 $292 $292 $183 $293 forward $287 $-1 #
edge $-1 $456 0 $456 6.2831853071796004 $292 $457 forward 7 unknown #
face $-1 $458 $459 $63 $-1 $460 forward single #
loop $-1 $-1 $461 $184 #
plane-surface $-1 -126.43013917954779 9.4763411909619109 97.339293374573657 0 -1 0 0.6018150307709319 0 -0.79863550430605224 forward_v I I I I #
coedge $-1 $462 $463 $464 $465 reversed $185 $-1 #
coedge $-1 $299 $187 $466 $467 reversed $118 $-1 #
coedge $-1 $187 $298 $462 $468 reversed $118 $-1 #
coedge $-1 $464 $469 $187 $301 forward $459 $-1 #
edge $-1 $470 5.8414925152782118 $471 11.264348781245033 $300 $472 forward 7 unknown #
loop $-1 $-1 $307 $188 #
plane-surface $-1 -57.373577074495685 5.8573805910757102 5.6981420531096205 -0.6018150307709319 0 0.79863550430605224 0.79863550430605224 0 0.6018150307709319 forward_v I I I I #
loop $-1 $-1 $473 $120 #
coedge $-1 $305 $305 $306 $474 reversed $189 $-1 #
coedge $-1 $306 $306 $305 $474 forward $191 $-1 #
coedge $-1 $307 $307 $192 $308 forward $302 $-1 #
edge $-1 $475 0 $475 6.2831853071796004 $307 $476 forward 7 unknown #
loop $-1 $-1 $314 $193 #
plane-surface $-1 -57.373577074495685 5.8573805910757102 5.6981420531096205 -0.6018150307709319 0 0.79863550430605224 0.79863550430605224 0 0.6018150307709319 forward_v I I I I #
loop $-1 $-1 $477 $123 #
coedge $-1 $312 $312 $313 $478 reversed $194 $-1 #
coedge $-1 $313 $313 $312 $478 forward $196 $-1 #
coedge $-1 $314 $314 $197 $315 forward $309 $-1 #
edge $-1 $479 0 $479 6.2831853071796004 $314 $480 forward 7 unknown #
face $-1 $481 $482 $66 $-1 $483 forward single #
loop $-1 $-1 $484 $198 #
plane-surface $-1 -126.43013917954779 21.191102373113324 97.339293374573657 0 -1 0 0.6018150307709319 0 -0.79863550430605224 forward_v I I I I #
coedge $-1 $485 $486 $487 $488 reversed $199 $-1 #
coedge $-1 $321 $201 $489 $490 reversed $127 $-1 #
coedge $-1 $201 $320 $485 $491 reversed $127 $-1 #
coedge $-1 $487 $492 $201 $323 forward $482 $-1 #
edge $-1 $493 5.8414925152782118 $494 11.264348781245033 $322 $495 forward 7 unknown #
loop $-1 $-1 $329 $202 #
plane-surface $-1 -57.373577074495685 17.572141773227123 5.6981420531096205 -0.6018150307709319 0 0.79863550430605224 0.79863550430605224 0 0.6018150307709319 forward_v I I I I #
loop $-1 $-1 $496 $129 #
coedge $-1 $327 $327 $328 $497 reversed $203 $-1 #
coedge $-1 $328 $328 $327 $497 forward $205 $-1 #
coedge $-1 $329 $329 $206 $330 forward $324 $-1 #
edge $-1 $498 0 $498 6.2831853071796004 $329 $499 forward 7 unknown #
loop $-1 $-1 $336 $207 #
plane-surface $-1 -57.373577074495685 17.572141773227123 5.6981420531096205 -0.6018150307709319 0 0.79863550430605224 0.79863550430605224 0 0.6018150307709319 forward_v I I I I #
loop $-1 $-1 $500 $132 #
coedge $-1 $334 $334 $335 $501 reversed $208 $-1 #
coedge $-1 $335 $335 $334 $501 forward $210 $-1 #
coedge $-1 $336 $336 $211 $337 forward $331 $-1 #
edge $-1 $502 0 $502 6.2831853071796004 $336 $503 forward 7 unknown #
face $-1 $504 $505 $69 $-1 $506 forward single #
loop $-1 $-1 $507 $212 #
plane-surface $-1 77.150168436374159 -20.70240424752097 163.02302387485977 0 1 0 0.78801076186113728 0 0.61566146476048833 forward_v I I I I #
coedge $-1 $508 $509 $510 $511 reversed $213 $-1 #
coedge $-1 $343 $215 $512 $513 reversed $136 $-1 #
coedge $-1 $215 $342 $508 $514 reversed $136 $-1 #
coedge $-1 $510 $515 $215 $345 forward $505 $-1 #
edge $-1 $516 -18.798492856308606 $517 -12.681864948251636 $344 $518 forward 7 unknown #
loop $-1 $-1 $351 $216 #
plane-surface $-1 -13.271823925969883 -15.636559816294799 92.377622874394206 0.78801076186113728 0 0.61566146476048833 0.61566146476048833 0 -0.78801076186113728 forward_v I I I I #
loop $-1 $-1 $519 $138 #
coedge $-1 $349 $349 $350 $520 reversed $217 $-1 #
coedge $-1 $350 $350 $349 $520 forward $219 $-1 #
coedge $-1 $351 $351 $220 $352 forward $346 $-1 #
edge $-1 $521 0 $521 6.2831853071796004 $351 $522 forward 7 unknown #
loop $-1 $-1 $358 $221 #
plane-surface $-1 -13.271823925969883 -15.636559816294799 92.377622874394206 0.78801076186113728 0 0.61566146476048833 0.61566146476048833 0 -0.78801076186113728 forward_v I I I I #
loop $-1 $-1 $523 $141 #
coedge $-1 $356 $356 $357 $524 reversed $222 $-1 #
coedge $-1 $357 $357 $356 $524 forward $224 $-1 #
coedge $-1 $358 $358 $225 $359 forward $353 $-1 #
edge $-1 $525 0 $525 6.2831853071796004 $358 $526 forward 7 unknown #
face $-1 $527 $528 $54 $-1 $529 reversed single #
loop $-1 $-1 $530 $226 #
plane-surface $-1 -57.373577074495685 0 0 1 0 0 0 0 -1 forward_v I I I I #
coedge $-1 $531 $371 $532 $533 forward $227 $-1 #
coedge $-1 $534 $229 $531 $535 forward $145 $-1 #
coedge $-1 $229 $534 $536 $537 forward $145 $-1 #
coedge $-1 $374 $373 $229 $367 reversed $375 $-1 #
edge $-1 $538 -31.614036871033115 $539 31.614036871033115 $366 $540 forward 7 unknown #
coedge $-1 $231 $230 $541 $542 forward $91 $-1 #
coedge $-1 $543 $544 $230 $370 reversed $528 $-1 #
edge $-1 $377 -57.373577074495685 $545 57.373577074495685 $369 $546 forward 7 unknown #
coedge $-1 $363 $547 $231 $372 reversed $227 $-1 #
edge $-1 $548 -57.373577074495685 $376 57.373577074495685 $371 $549 forward 7 unknown #
coedge $-1 $366 $232 $547 $550 forward $375 $-1 #
coedge $-1 $232 $366 $543 $551 reversed $375 $-1 #
loop $-1 $-1 $373 $527 #
vertex $-1 $233 $552 #
vertex $-1 $233 $553 #
straight-curve $-1 57.373577074495685 0 9.7845574365640804 0 1 0 I I #
face $-1 $554 $555 $55 $-1 $556 reversed single #
loop $-1 $-1 $557 $234 #
plane-surface $-1 0 0 9.7845574365640804 0 0 1 1 0 0 forward_v I I I I #
coedge $-1 $558 $559 $560 $561 reversed $235 $-1 #
coedge $-1 $240 $237 $562 $563 reversed $149 $-1 #
coedge $-1 $237 $240 $564 $565 reversed $149 $-1 #
coedge $-1 $559 $558 $237 $386 reversed $235 $-1 #
edge $-1 $566 -9.7845574365640804 $567 9.7845574365640804 $385 $568 forward 7 unknown #
coedge $-1 $239 $238 $569 $570 reversed $94 $-1 #
coedge $-1 $562 $571 $238 $389 forward $555 $-1 #
edge $-1 $572 -17.833718091367821 $393 -9.7269194679627606 $388 $573 forward 7 unknown #
coedge $-1 $574 $564 $239 $391 forward $380 $-1 #
edge $-1 $392 9.7269194679627606 $575 17.833718091367821 $390 $576 forward 7 unknown #
vertex $-1 $391 $577 #
vertex $-1 $389 $578 #
straight-curve $-1 -40.804462201367528 -23.507238247628052 0 0 0 -1 I I #
face $-1 $579 $580 $56 $-1 $581 forward single #
loop $-1 $-1 $582 $242 #
plane-surface $-1 0 0 -9.7845574365640804 0 0 1 1 0 0 forward_v I I I I #
coedge $-1 $583 $584 $403 $585 forward $243 $-1 #
coedge $-1 $248 $245 $586 $587 reversed $153 $-1 #
coedge $-1 $245 $248 $588 $589 reversed $153 $-1 #
coedge $-1 $590 $591 $245 $402 forward $592 $-1 #
edge $-1 $593 -9.7845574365640804 $594 9.7845574365640804 $401 $595 forward 7 unknown #
coedge $-1 $247 $246 $398 $585 reversed $97 $-1 #
coedge $-1 $586 $582 $246 $405 forward $396 $-1 #
edge $-1 $596 18.152231100683764 $409 21.152231100683764 $404 $597 forward 7 unknown #
coedge $-1 $598 $588 $247 $407 forward $580 $-1 #
edge $-1 $408 -21.152231100683764 $599 -18.152231100683764 $406 $600 forward 7 unknown #
vertex $-1 $407 $601 #
vertex $-1 $405 $602 #
straight-curve $-1 -40.804462201367528 23.507238247628049 0 0 0 -1 I I #
face $-1 $-1 $423 $57 $-1 $603 forward single #
loop $-1 $-1 $604 $250 #
plane-surface $-1 -57.373577074495685 0 0 1 0 0 0 0 -1 forward_v I I I I #
coedge $-1 $605 $606 $607 $608 reversed $251 $-1 #
coedge $-1 $609 $253 $255 $421 forward $157 $-1 #
coedge $-1 $253 $609 $605 $610 forward $157 $-1 #
coedge $-1 $607 $256 $253 $418 forward $423 $-1 #
edge $-1 $425 -12.405031486499761 $611 -5.1671102867273593 $417 $612 forward 7 unknown #
coedge $-1 $613 $614 $254 $420 forward $412 $-1 #
edge $-1 $615 -42.971504634177208 $424 -38.88508925072275 $419 $616 forward 7 unknown #
edge $-1 $425 -6.7901517484861031 $615 0 $255 $617 forward 7 unknown #
coedge $-1 $256 $607 $613 $618 forward $423 $-1 #
loop $-1 $-1 $607 $411 #
vertex $-1 $420 $619 #
vertex $-1 $257 $620 #
straight-curve $-1 -63.215069589773897 -21.191102373113321 9.7845574365640786 1 0 0 I I #
coedge $-1 $427 $427 $-1 $621 reversed $260 $-1 #
edge $-1 $622 0 $622 6.2831853071796004 $261 $623 forward 7 unknown #
vertex $-1 $264 $624 #
ellipse-curve $-1 -54.662148941512285 -19.123124887464066 7.741349744836846 -0.6018150307709319 0 0.79863550430605224 0.79863550430605224 0 0.6018150307709319 1 I I #
coedge $-1 $431 $431 $-1 $625 reversed $267 $-1 #
edge $-1 $626 0 $626 6.2831853071796004 $268 $627 forward 7 unknown #
vertex $-1 $271 $628 #
ellipse-curve $-1 -54.662148941512285 -16.021158658990178 7.741349744836846 -0.6018150307709319 0 0.79863550430605224 0.79863550430605224 0 0.6018150307709319 1 I I #
face $-1 $-1 $629 $60 $-1 $630 reversed single #
loop $-1 $-1 $278 $272 #
plane-surface $-1 0 0 9.7845574365640804 0 0 1 1 0 0 forward_v I I I I #
coedge $-1 $631 $632 $633 $634 reversed $273 $-1 #
coedge $-1 $635 $275 $277 $445 forward $171 $-1 #
coedge $-1 $275 $635 $631 $636 forward $171 $-1 #
coedge $-1 $633 $278 $275 $442 forward $436 $-1 #
edge $-1 $448 -6.5476508954240522 $637 0.69027030434834913 $441 $638 forward 7 unknown #
coedge $-1 $639 $640 $276 $444 forward $629 $-1 #
edge $-1 $641 -42.971504634177208 $447 -38.88508925072275 $443 $642 forward 7 unknown #
edge $-1 $448 -6.7901517484861031 $641 0 $277 $643 forward 7 unknown #
coedge $-1 $278 $633 $639 $644 forward $436 $-1 #
vertex $-1 $444 $645 #
vertex $-1 $279 $646 #
straight-curve $-1 -63.215069589773897 -9.4763411909619037 9.7845574365640786 1 0 0 I I #
coedge $-1 $450 $450 $-1 $647 reversed $282 $-1 #
edge $-1 $648 0 $648 6.2831853071796004 $283 $649 forward 7 unknown #
vertex $-1 $286 $650 #
ellipse-curve $-1 -54.662148941512285 -7.4083637053126488 7.741349744836846 -0.6018150307709319 0 0.79863550430605224 0.79863550430605224 0 0.6018150307709319 1 I I #
coedge $-1 $454 $454 $-1 $651 reversed $289 $-1 #
edge $-1 $652 0 $652 6.2831853071796004 $290 $653 forward 7 unknown #
vertex $-1 $293 $654 #
ellipse-curve $-1 -54.662148941512285 -4.306397476838761 7.741349744836846 -0.6018150307709319 0 0.79863550430605224 0.79863550430605224 0 0.6018150307709319 1 I I #
face $-1 $-1 $655 $63 $-1 $656 reversed single #
loop $-1 $-1 $300 $294 #
plane-surface $-1 0 0 9.7845574365640804 0 0 1 1 0 0 forward_v I I I I #
coedge $-1 $657 $658 $659 $660 reversed $295 $-1 #
coedge $-1 $661 $297 $299 $468 forward $185 $-1 #
coedge $-1 $297 $661 $657 $662 forward $185 $-1 #
coedge $-1 $659 $300 $297 $465 forward $459 $-1 #
edge $-1 $471 -0.69027030434834558 $663 6.5476508954240558 $464 $664 forward 7 unknown #
coedge $-1 $665 $666 $298 $467 forward $655 $-1 #
edge $-1 $667 -42.971504634177208 $470 -38.88508925072275 $466 $668 forward 7 unknown #
edge $-1 $471 -6.7901517484861031 $667 0 $299 $669 forward 7 unknown #
coedge $-1 $300 $659 $665 $670 forward $459 $-1 #
vertex $-1 $301 $671 #
vertex $-1 $301 $672 #
straight-curve $-1 -63.215069589773897 2.2384199911895095 9.7845574365640786 1 0 0 I I #
coedge $-1 $473 $473 $-1 $673 reversed $304 $-1 #
edge $-1 $674 0 $674 6.2831853071796004 $305 $675 forward 7 unknown #
vertex $-1 $308 $676 #
ellipse-curve $-1 -54.662148941512285 4.3063974768387681 7.741349744836846 -0.6018150307709319 0 0.79863550430605224 0.79863550430605224 0 0.6018150307709319 1 I I #
coedge $-1 $477 $477 $-1 $677 reversed $311 $-1 #
edge $-1 $678 0 $678 6.2831853071796004 $312 $679 forward 7 unknown #
vertex $-1 $315 $680 #
ellipse-curve $-1 -54.662148941512285 7.4083637053126523 7.741349744836846 -0.6018150307709319 0 0.79863550430605224 0.79863550430605224 0 0.6018150307709319 1 I I #
face $-1 $-1 $681 $66 $-1 $682 reversed single #
loop $-1 $-1 $322 $316 #
plane-surface $-1 0 0 9.7845574365640804 0 0 1 1 0 0 forward_v I I I I #
coedge $-1 $683 $684 $685 $686 reversed $317 $-1 #
coedge $-1 $687 $319 $321 $491 forward $199 $-1 #
coedge $-1 $319 $687 $683 $688 forward $199 $-1 #
coedge $-1 $685 $322 $319 $488 forward $482 $-1 #
edge $-1 $494 5.1671102867273611 $689 12.405031486499762 $487 $690 forward 7 unknown #
coedge $-1 $691 $692 $320 $490 forward $681 $-1 #
edge $-1 $693 -42.971504634177208 $493 -38.88508925072275 $489 $694 forward 7 unknown #
edge $-1 $494 -6.7901517484861031 $693 0 $321 $695 forward 7 unknown #
coedge $-1 $322 $685 $691 $696 forward $482 $-1 #
vertex $-1 $323 $697 #
vertex $-1 $323 $698 #
straight-curve $-1 -63.215069589773897 13.953181173340923 9.7845574365640786 1 0 0 I I #
coedge $-1 $496 $496 $-1 $699 reversed $326 $-1 #
edge $-1 $700 0 $700 6.2831853071796004 $327 $701 forward 7 unknown #
vertex $-1 $330 $702 #
ellipse-curve $-1 -54.662148941512285 16.021158658990181 7.741349744836846 -0.6018150307709319 0 0.79863550430605224 0.79863550430605224 0 0.6018150307709319 1 I I #
coedge $-1 $500 $500 $-1 $703 reversed $333 $-1 #
edge $-1 $704 0 $704 6.2831853071796004 $334 $705 forward 7 unknown #
vertex $-1 $337 $706 #
ellipse-curve $-1 -54.662148941512285 19.123124887464066 7.741349744836846 -0.6018150307709319 0 0.79863550430605224 0.79863550430605224 0 0.6018150307709319 1 I I #
face $-1 $-1 $707 $69 $-1 $708 reversed single #
loop $-1 $-1 $344 $338 #
plane-surface $-1 0 0 9.7845574365640804 0 0 1 1 0 0 forward_v I I I I #
coedge $-1 $709 $710 $711 $712 reversed $339 $-1 #
coedge $-1 $713 $341 $343 $514 forward $213 $-1 #
coedge $-1 $341 $713 $709 $714 forward $213 $-1 #
coedge $-1 $711 $344 $341 $511 forward $505 $-1 #
edge $-1 $517 2.752435476921228 $715 12.884124339373571 $510 $716 forward 7 unknown #
coedge $-1 $717 $718 $342 $513 forward $707 $-1 #
edge $-1 $719 -79.555881425379724 $516 -71.726954500865801 $512 $720 forward 7 unknown #
edge $-1 $517 104.81210338138075 $719 114.74715414899137 $343 $721 forward 7 unknown #
coedge $-1 $344 $711 $717 $722 forward $505 $-1 #
vertex $-1 $345 $723 #
vertex $-1 $345 $724 #
straight-curve $-1 38.575084218187079 -10.570715385068628 9.7845574365640857 -1 0 0 I I #
coedge $-1 $519 $519 $-1 $725 reversed $348 $-1 #
edge $-1 $726 0 $726 6.2831853071796004 $349 $727 forward 7 unknown #
vertex $-1 $352 $728 #
ellipse-curve $-1 54.315263120467222 -17.807636001106019 5.8700939743071139 0.78801076186113728 0 0.61566146476048833 0.61566146476048833 0 -0.78801076186113728 1 I I #
coedge $-1 $523 $523 $-1 $729 reversed $355 $-1 #
edge $-1 $730 0 $730 6.2831853071796004 $356 $731 forward 7 unknown #
vertex $-1 $359 $732 #
ellipse-curve $-1 54.315263120467222 -13.465483631483583 5.8700939743071139 0.78801076186113728 0 0.61566146476048833 0.61566146476048833 0 -0.78801076186113728 1 I I #
face $-1 $-1 $375 $54 $-1 $733 reversed single #
loop $-1 $-1 $543 $360 #
plane-surface $-1 0 31.614036871033115 0 0 -1 0 0 0 -1 forward_v I I I I #
coedge $-1 $734 $541 $544 $735 forward $361 $-1 #
coedge $-1 $547 $363 $364 $535 reversed $227 $-1 #
coedge $-1 $541 $734 $363 $533 reversed $361 $-1 #
edge $-1 $548 -9.7845574365640804 $736 9.7845574365640804 $532 $737 forward 7 unknown #
coedge $-1 $365 $364 $734 $738 forward $145 $-1 #
edge $-1 $539 -57.373577074495685 $736 57.373577074495685 $531 $739 forward 7 unknown #
coedge $-1 $544 $543 $365 $537 reversed $528 $-1 #
edge $-1 $740 -57.373577074495685 $538 57.373577074495685 $536 $741 forward 7 unknown #
vertex $-1 $367 $742 #
vertex $-1 $550 $743 #
straight-curve $-1 57.373577074495685 0 -9.7845574365640804 0 -1 0 I I #
coedge $-1 $530 $532 $368 $542 reversed $361 $-1 #
edge $-1 $545 -31.614036871033115 $548 31.614036871033115 $541 $744 forward 7 unknown #
coedge $-1 $536 $369 $374 $551 forward $528 $-1 #
coedge $-1 $369 $536 $530 $735 reversed $528 $-1 #
vertex $-1 $370 $745 #
straight-curve $-1 0 31.614036871033115 9.7845574365640804 -1 0 0 I I #
coedge $-1 $371 $531 $373 $550 reversed $227 $-1 #
vertex $-1 $542 $746 #
straight-curve $-1 0 -31.614036871033115 9.7845574365640804 1 0 0 I I #
edge $-1 $376 -9.7845574365640804 $539 9.7845574365640804 $373 $747 forward 7 unknown #
edge $-1 $377 -9.7845574365640804 $538 9.7845574365640804 $374 $748 forward 7 unknown #
point $-1 57.373577074495685 -31.614036871033115 9.7845574365640804 #
point $-1 57.373577074495685 31.614036871033115 9.7845574365640804 #
face $-1 $-1 $749 $55 $-1 $750 reversed single #
loop $-1 $-1 $751 $379 #
plane-surface $-1 0 0 -9.7845574365640804 0 0 1 1 0 0 forward_v I I I I #
coedge $-1 $564 $574 $559 $752 forward $380 $-1 #
coedge $-1 $385 $382 $751 $753 reversed $235 $-1 #
coedge $-1 $382 $385 $557 $752 reversed $235 $-1 #
coedge $-1 $754 $755 $382 $561 forward $749 $-1 #
edge $-1 $756 -9.7845574365640804 $757 9.7845574365640804 $560 $758 forward 7 unknown #
coedge $-1 $751 $388 $383 $563 forward $555 $-1 #
edge $-1 $393 -21.152231100683764 $567 -18.152231100683764 $562 $759 forward 7 unknown #
coedge $-1 $390 $557 $384 $565 forward $380 $-1 #
edge $-1 $566 18.152231100683764 $392 21.152231100683764 $564 $760 forward 7 unknown #
vertex $-1 $565 $761 #
vertex $-1 $563 $762 #
straight-curve $-1 -37.804462201367528 -23.507238247628052 0 0 0 -1 I I #
coedge $-1 $755 $754 $387 $570 forward $749 $-1 #
edge $-1 $575 -9.7845574365640804 $572 9.7845574365640804 $569 $763 forward 7 unknown #
coedge $-1 $388 $751 $755 $764 forward $555 $-1 #
vertex $-1 $389 $765 #
straight-curve $-1 -40.804462201367528 -13.780318779665292 -9.7845574365640804 0 1 0 I I #
coedge $-1 $557 $390 $754 $766 forward $380 $-1 #
vertex $-1 $766 $767 #
straight-curve $-1 -40.804462201367528 -13.780318779665292 9.7845574365640804 0 -1 0 I I #
point $-1 -40.804462201367528 -23.507238247628052 9.7845574365640804 #
point $-1 -40.804462201367528 -23.507238247628052 -9.7845574365640804 #
face $-1 $-1 $592 $56 $-1 $768 reversed single #
loop $-1 $-1 $598 $395 #
plane-surface $-1 0 0 9.7845574365640804 0 0 1 1 0 0 forward_v I I I I #
coedge $-1 $404 $769 $583 $770 forward $396 $-1 #
coedge $-1 $771 $398 $582 $770 reversed $243 $-1 #
coedge $-1 $398 $771 $598 $772 reversed $243 $-1 #
edge $-1 $599 -9.7845574365640804 $596 9.7845574365640804 $398 $773 forward 7 unknown #
coedge $-1 $769 $404 $399 $587 forward $396 $-1 #
edge $-1 $409 9.7269194679627589 $593 17.833718091367821 $586 $774 forward 7 unknown #
coedge $-1 $406 $775 $400 $589 forward $580 $-1 #
edge $-1 $594 -17.833718091367821 $408 -9.7269194679627589 $588 $776 forward 7 unknown #
coedge $-1 $777 $401 $775 $778 reversed $592 $-1 #
coedge $-1 $401 $777 $769 $779 reversed $592 $-1 #
loop $-1 $-1 $777 $579 #
vertex $-1 $779 $780 #
vertex $-1 $402 $781 #
straight-curve $-1 -40.804462201367528 31.614036871033115 0 0 0 1 I I #
vertex $-1 $405 $782 #
straight-curve $-1 -19.652231100683764 23.507238247628049 -9.7845574365640804 -1 0 0 I I #
coedge $-1 $775 $406 $584 $772 forward $580 $-1 #
vertex $-1 $407 $783 #
straight-curve $-1 -19.652231100683764 23.507238247628049 9.7845574365640804 1 0 0 I I #
point $-1 -40.804462201367528 23.507238247628049 9.7845574365640804 #
point $-1 -40.804462201367528 23.507238247628049 -9.7845574365640804 #
plane-surface $-1 0 0 9.7845574365640804 0 0 1 1 0 0 forward_v I I I I #
coedge $-1 $614 $613 $606 $784 forward $412 $-1 #
coedge $-1 $606 $414 $416 $610 reversed $251 $-1 #
coedge $-1 $414 $605 $604 $784 reversed $251 $-1 #
coedge $-1 $422 $417 $414 $608 forward $423 $-1 #
edge $-1 $611 -11.264348781245033 $785 -5.8414925152782118 $607 $786 forward 7 unknown #
coedge $-1 $416 $415 $614 $787 reversed $157 $-1 #
edge $-1 $788 0 $611 6.7901517484861031 $605 $789 forward 7 unknown #
vertex $-1 $418 $790 #
straight-curve $-1 -51.950720808528871 -8.7860708866135599 9.7845574365640822 0 1 0 I I #
coedge $-1 $604 $419 $422 $618 reversed $412 $-1 #
coedge $-1 $419 $604 $609 $787 forward $412 $-1 #
vertex $-1 $420 $791 #
straight-curve $-1 -57.373577074495685 -21.191102373113321 48.669646687286829 0 0 1 I I #
straight-curve $-1 -57.373577074495685 -21.191102373113321 5.6981420531096205 -0.79863550430605224 0 -0.6018150307709319 I I #
edge $-1 $785 13.953181173340919 $424 21.191102373113321 $613 $792 forward 7 unknown #
point $-1 -57.373577074495685 -21.191102373113321 9.7845574365640804 #
point $-1 -51.950720808528864 -21.191102373113321 9.7845574365640804 #
edge $-1 $793 1 $793 0 $427 $-1 forward 7 unknown #
vertex $-1 $428 $794 #
ellipse-curve $-1 -52.817895439518445 -19.123124887464066 5.2939427338383549 -0.6018150307709319 0 0.79863550430605224 0.79863550430605224 0 0.6018150307709319 1 I I #
point $-1 -53.863513437206237 -19.123124887464066 8.3431647756077894 #
edge $-1 $795 1 $795 0 $431 $-1 forward 7 unknown #
vertex $-1 $432 $796 #
ellipse-curve $-1 -52.817895439518445 -16.021158658990178 5.2939427338383549 -0.6018150307709319 0 0.79863550430605224 0.79863550430605224 0 0.6018150307709319 1 I I #
point $-1 -53.863513437206237 -16.021158658990178 8.3431647756077894 #
loop $-1 $-1 $443 $435 #
plane-surface $-1 -57.373577074495685 0 0 1 0 0 0 0 -1 forward_v I I I I #
coedge $-1 $632 $438 $440 $636 reversed $273 $-1 #
coedge $-1 $438 $631 $797 $798 reversed $273 $-1 #
coedge $-1 $446 $441 $438 $634 forward $436 $-1 #
edge $-1 $637 -11.264348781245033 $799 -5.8414925152782118 $633 $800 forward 7 unknown #
coedge $-1 $440 $439 $640 $801 reversed $171 $-1 #
edge $-1 $802 0 $637 6.7901517484861031 $631 $803 forward 7 unknown #
vertex $-1 $442 $804 #
straight-curve $-1 -51.950720808528871 -2.9286902955378515 9.7845574365640822 0 1 0 I I #
coedge $-1 $797 $443 $446 $644 reversed $629 $-1 #
coedge $-1 $443 $797 $635 $801 forward $629 $-1 #
vertex $-1 $444 $805 #
straight-curve $-1 -57.373577074495685 -9.4763411909619037 48.669646687286829 0 0 1 I I #
straight-curve $-1 -57.373577074495685 -9.4763411909619037 5.6981420531096205 -0.79863550430605224 0 -0.6018150307709319 I I #
edge $-1 $799 2.2384199911895024 $447 9.4763411909619037 $639 $806 forward 7 unknown #
point $-1 -57.373577074495685 -9.4763411909619037 9.7845574365640804 #
point $-1 -51.950720808528864 -9.4763411909619037 9.7845574365640804 #
edge $-1 $807 1 $807 0 $450 $-1 forward 7 unknown #
vertex $-1 $451 $808 #
ellipse-curve $-1 -52.817895439518445 -7.4083637053126488 5.2939427338383549 -0.6018150307709319 0 0.79863550430605224 0.79863550430605224 0 0.6018150307709319 1 I I #
point $-1 -53.863513437206237 -7.4083637053126488 8.3431647756077894 #
edge $-1 $809 1 $809 0 $454 $-1 forward 7 unknown #
vertex $-1 $455 $810 #
ellipse-curve $-1 -52.817895439518445 -4.306397476838761 5.2939427338383549 -0.6018150307709319 0 0.79863550430605224 0.79863550430605224 0 0.6018150307709319 1 I I #
point $-1 -53.863513437206237 -4.306397476838761 8.3431647756077894 #
loop $-1 $-1 $466 $458 #
plane-surface $-1 -57.373577074495685 0 0 1 0 0 0 0 -1 forward_v I I I I #
coedge $-1 $658 $461 $463 $662 reversed $295 $-1 #
coedge $-1 $461 $657 $811 $812 reversed $295 $-1 #
coedge $-1 $469 $464 $461 $660 forward $459 $-1 #
edge $-1 $663 -11.264348781245033 $813 -5.8414925152782118 $659 $814 forward 7 unknown #
coedge $-1 $463 $462 $666 $815 reversed $185 $-1 #
edge $-1 $816 0 $663 6.7901517484861031 $657 $817 forward 7 unknown #
vertex $-1 $465 $818 #
straight-curve $-1 -51.950720808528871 2.9286902955378551 9.7845574365640822 0 1 0 I I #
coedge $-1 $811 $466 $469 $670 reversed $655 $-1 #
coedge $-1 $466 $811 $661 $815 forward $655 $-1 #
vertex $-1 $467 $819 #
straight-curve $-1 -57.373577074495685 2.2384199911895095 48.669646687286829 0 0 1 I I #
straight-curve $-1 -57.373577074495685 2.2384199911895095 5.6981420531096205 -0.79863550430605224 0 -0.6018150307709319 I I #
edge $-1 $813 -9.4763411909619109 $470 -2.2384199911895095 $665 $820 forward 7 unknown #
point $-1 -57.373577074495685 2.2384199911895095 9.7845574365640804 #
point $-1 -51.950720808528864 2.2384199911895095 9.7845574365640804 #
edge $-1 $821 1 $821 0 $473 $-1 forward 7 unknown #
vertex $-1 $474 $822 #
ellipse-curve $-1 -52.817895439518445 4.3063974768387681 5.2939427338383549 -0.6018150307709319 0 0.79863550430605224 0.79863550430605224 0 0.6018150307709319 1 I I #
point $-1 -53.863513437206237 4.3063974768387681 8.3431647756077894 #
edge $-1 $823 1 $823 0 $477 $-1 forward 7 unknown #
vertex $-1 $478 $824 #
ellipse-curve $-1 -52.817895439518445 7.4083637053126523 5.2939427338383549 -0.6018150307709319 0 0.79863550430605224 0.79863550430605224 0 0.6018150307709319 1 I I #
point $-1 -53.863513437206237 7.4083637053126523 8.3431647756077894 #
loop $-1 $-1 $489 $481 #
plane-surface $-1 -57.373577074495685 0 0 1 0 0 0 0 -1 forward_v I I I I #
coedge $-1 $684 $484 $486 $688 reversed $317 $-1 #
coedge $-1 $484 $683 $825 $826 reversed $317 $-1 #
coedge $-1 $492 $487 $484 $686 forward $482 $-1 #
edge $-1 $689 -11.264348781245033 $827 -5.8414925152782118 $685 $828 forward 7 unknown #
coedge $-1 $486 $485 $692 $829 reversed $199 $-1 #
edge $-1 $830 0 $689 6.7901517484861031 $683 $831 forward 7 unknown #
vertex $-1 $488 $832 #
straight-curve $-1 -51.950720808528871 8.7860708866135617 9.7845574365640822 0 1 0 I I #
coedge $-1 $825 $489 $492 $696 reversed $681 $-1 #
coedge $-1 $489 $825 $687 $829 forward $681 $-1 #
vertex $-1 $490 $833 #
straight-curve $-1 -57.373577074495685 13.953181173340923 48.669646687286829 0 0 1 I I #
straight-curve $-1 -57.373577074495685 13.953181173340923 5.6981420531096205 -0.79863550430605224 0 -0.6018150307709319 I I #
edge $-1 $827 -21.191102373113324 $493 -13.953181173340923 $691 $834 forward 7 unknown #
point $-1 -57.373577074495685 13.953181173340923 9.7845574365640804 #
point $-1 -51.950720808528864 13.953181173340923 9.7845574365640804 #
edge $-1 $835 1 $835 0 $496 $-1 forward 7 unknown #
vertex $-1 $497 $836 #
ellipse-curve $-1 -52.817895439518445 16.021158658990181 5.2939427338383549 -0.6018150307709319 0 0.79863550430605224 0.79863550430605224 0 0.6018150307709319 1 I I #
point $-1 -53.863513437206237 16.021158658990181 8.3431647756077894 #
edge $-1 $837 1 $837 0 $500 $-1 forward 7 unknown #
vertex $-1 $501 $838 #
ellipse-curve $-1 -52.817895439518445 19.123124887464066 5.2939427338383549 -0.6018150307709319 0 0.79863550430605224 0.79863550430605224 0 0.6018150307709319 1 I I #
point $-1 -53.863513437206237 19.123124887464066 8.3431647756077894 #
loop $-1 $-1 $512 $504 #
plane-surface $-1 57.373577074495685 0 0 -1 0 0 0 0 1 forward_v I I I I #
coedge $-1 $710 $507 $509 $714 reversed $339 $-1 #
coedge $-1 $507 $709 $839 $840 reversed $339 $-1 #
coedge $-1 $515 $510 $507 $712 forward $505 $-1 #
edge $-1 $715 12.681864948251636 $841 18.798492856308606 $711 $842 forward 7 unknown #
coedge $-1 $509 $508 $718 $843 reversed $213 $-1 #
edge $-1 $844 -114.74715414899137 $715 -104.81210338138075 $709 $845 forward 7 unknown #
vertex $-1 $511 $846 #
straight-curve $-1 51.256949166438716 -7.8182799081473995 9.7845574365640786 0 -1 0 I I #
coedge $-1 $839 $512 $515 $722 reversed $707 $-1 #
coedge $-1 $512 $839 $713 $843 forward $707 $-1 #
vertex $-1 $513 $847 #
straight-curve $-1 57.373577074495685 -10.570715385068628 81.511511937429887 0 0 1 I I #
straight-curve $-1 -13.271823925969883 -10.570715385068628 92.377622874394206 0.61566146476048833 0 -0.78801076186113728 I I #
edge $-1 $841 -20.70240424752097 $516 -10.570715385068628 $717 $848 forward 7 unknown #
point $-1 57.373577074495685 -10.570715385068628 9.7845574365640804 #
point $-1 51.256949166438716 -10.570715385068628 9.7845574365640857 #
edge $-1 $849 1 $849 0 $519 $-1 forward 7 unknown #
vertex $-1 $520 $850 #
ellipse-curve $-1 51.421505408341389 -17.807636001106019 3.6092427297104126 0.78801076186113728 0 0.61566146476048833 0.61566146476048833 0 -0.78801076186113728 1 I I #
point $-1 54.930924585227707 -17.807636001106019 5.0820832124459745 #
edge $-1 $851 1 $851 0 $523 $-1 forward 7 unknown #
vertex $-1 $524 $852 #
ellipse-curve $-1 51.421505408341389 -13.465483631483583 3.6092427297104126 0.78801076186113728 0 0.61566146476048833 0.61566146476048833 0 -0.78801076186113728 1 I I #
point $-1 54.930924585227707 -13.465483631483583 5.0820832124459745 #
plane-surface $-1 57.373577074495685 0 0 -1 0 0 0 0 1 forward_v I I I I #
coedge $-1 $532 $530 $534 $738 reversed $361 $-1 #
edge $-1 $545 -9.7845574365640804 $740 9.7845574365640804 $544 $853 forward 7 unknown #
vertex $-1 $738 $854 #
straight-curve $-1 -57.373577074495685 -31.614036871033115 0 0 0 -1 I I #
edge $-1 $736 -31.614036871033115 $740 31.614036871033115 $734 $855 forward 7 unknown #
straight-curve $-1 0 -31.614036871033115 -9.7845574365640804 -1 0 0 I I #
vertex $-1 $537 $856 #
straight-curve $-1 0 31.614036871033115 -9.7845574365640804 1 0 0 I I #
point $-1 57.373577074495685 31.614036871033115 -9.7845574365640804 #
point $-1 57.373577074495685 -31.614036871033115 -9.7845574365640804 #
straight-curve $-1 -57.373577074495685 0 9.7845574365640804 0 -1 0 I I #
point $-1 -57.373577074495685 31.614036871033115 9.7845574365640804 #
point $-1 -57.373577074495685 -31.614036871033115 9.7845574365640804 #
straight-curve $-1 57.373577074495685 -31.614036871033115 0 0 0 -1 I I #
straight-curve $-1 57.373577074495685 31.614036871033115 0 0 0 -1 I I #
loop $-1 $-1 $560 $554 #
plane-surface $-1 0 -31.614036871033115 0 0 1 0 0 0 1 forward_v I I I I #
coedge $-1 $571 $562 $558 $753 forward $555 $-1 #
edge $-1 $757 -17.833718091367821 $566 -9.7269194679627606 $557 $857 forward 7 unknown #
edge $-1 $567 9.7269194679627606 $756 17.833718091367821 $751 $858 forward 7 unknown #
coedge $-1 $569 $560 $574 $766 reversed $749 $-1 #
coedge $-1 $560 $569 $571 $764 reversed $749 $-1 #
vertex $-1 $764 $859 #
vertex $-1 $561 $860 #
straight-curve $-1 -37.804462201367528 -31.614036871033115 0 0 0 1 I I #
straight-curve $-1 -19.652231100683764 -23.507238247628052 -9.7845574365640804 1 0 0 I I #
straight-curve $-1 -19.652231100683764 -23.507238247628052 9.7845574365640804 -1 0 0 I I #
point $-1 -37.804462201367528 -23.507238247628052 9.7845574365640804 #
point $-1 -37.804462201367528 -23.507238247628052 -9.7845574365640804 #
straight-curve $-1 -40.804462201367528 -31.614036871033115 0 0 0 -1 I I #
edge $-1 $756 37.804462201367528 $572 40.804462201367528 $755 $861 forward 7 unknown #
point $-1 -40.804462201367528 -31.614036871033115 -9.7845574365640804 #
edge $-1 $575 -40.804462201367528 $757 -37.804462201367528 $754 $862 forward 7 unknown #
point $-1 -40.804462201367528 -31.614036871033115 9.7845574365640804 #
plane-surface $-1 0 31.614036871033115 0 0 -1 0 0 0 -1 forward_v I I I I #
coedge $-1 $582 $586 $591 $779 forward $396 $-1 #
edge $-1 $863 -17.833718091367821 $596 -9.7269194679627589 $582 $864 forward 7 unknown #
coedge $-1 $584 $583 $777 $865 reversed $243 $-1 #
edge $-1 $599 9.7269194679627589 $866 17.833718091367821 $598 $867 forward 7 unknown #
straight-curve $-1 -37.804462201367528 23.507238247628049 0 0 0 -1 I I #
straight-curve $-1 -40.804462201367528 13.78031877966529 -9.7845574365640804 0 1 0 I I #
coedge $-1 $588 $598 $590 $778 forward $580 $-1 #
straight-curve $-1 -40.804462201367528 13.78031877966529 9.7845574365640804 0 -1 0 I I #
coedge $-1 $591 $590 $771 $865 forward $592 $-1 #
edge $-1 $866 37.804462201367528 $594 40.804462201367528 $590 $868 forward 7 unknown #
edge $-1 $593 -40.804462201367528 $863 -37.804462201367528 $591 $869 forward 7 unknown #
point $-1 -40.804462201367528 31.614036871033111 -9.7845574365640804 #
point $-1 -40.804462201367528 31.614036871033111 9.7845574365640804 #
point $-1 -37.804462201367528 23.507238247628049 -9.7845574365640804 #
point $-1 -37.804462201367528 23.507238247628049 9.7845574365640804 #
edge $-1 $785 38.88508925072275 $788 42.971504634177208 $604 $870 forward 7 unknown #
vertex $-1 $618 $871 #
straight-curve $-1 -63.215069589773897 -13.953181173340919 9.7845574365640786 -1 0 0 I I #
edge $-1 $788 5.1671102867273593 $615 12.405031486499761 $614 $872 forward 7 unknown #
vertex $-1 $787 $873 #
straight-curve $-1 -57.373577074495685 -13.953181173340919 5.6981420531096205 0.79863550430605224 0 0.6018150307709319 I I #
point $-1 -51.950720808528864 -13.953181173340919 9.7845574365640804 #
point $-1 -57.373577074495685 -21.191102373113321 5.6981420531096205 #
straight-curve $-1 -57.373577074495685 0 9.7845574365640804 0 -1 0 I I #
vertex $-1 $621 $874 #
point $-1 -52.019259935212389 -19.123124887464066 5.8957577646092867 #
vertex $-1 $625 $875 #
point $-1 -52.019259935212389 -16.021158658990178 5.8957577646092867 #
coedge $-1 $640 $639 $632 $798 forward $629 $-1 #
edge $-1 $799 38.88508925072275 $802 42.971504634177208 $797 $876 forward 7 unknown #
vertex $-1 $644 $877 #
straight-curve $-1 -63.215069589773897 -2.2384199911895024 9.7845574365640786 -1 0 0 I I #
edge $-1 $802 -0.69027030434834913 $641 6.5476508954240522 $640 $878 forward 7 unknown #
vertex $-1 $801 $879 #
straight-curve $-1 -57.373577074495685 -2.2384199911895024 5.6981420531096205 0.79863550430605224 0 0.6018150307709319 I I #
point $-1 -51.950720808528864 -2.2384199911895024 9.7845574365640804 #
point $-1 -57.373577074495685 -9.4763411909619037 5.6981420531096205 #
straight-curve $-1 -57.373577074495685 0 9.7845574365640804 0 -1 0 I I #
vertex $-1 $647 $880 #
point $-1 -52.019259935212389 -7.4083637053126488 5.8957577646092867 #
vertex $-1 $651 $881 #
point $-1 -52.019259935212389 -4.306397476838761 5.8957577646092867 #
coedge $-1 $666 $665 $658 $812 forward $655 $-1 #
edge $-1 $813 38.88508925072275 $816 42.971504634177208 $811 $882 forward 7 unknown #
vertex $-1 $670 $883 #
straight-curve $-1 -63.215069589773897 9.4763411909619109 9.7845574365640786 -1 0 0 I I #
edge $-1 $816 -6.5476508954240558 $667 0.69027030434834558 $666 $884 forward 7 unknown #
vertex $-1 $815 $885 #
straight-curve $-1 -57.373577074495685 9.4763411909619109 5.6981420531096205 0.79863550430605224 0 0.6018150307709319 I I #
point $-1 -51.950720808528864 9.4763411909619109 9.7845574365640804 #
point $-1 -57.373577074495685 2.2384199911895095 5.6981420531096205 #
straight-curve $-1 -57.373577074495685 0 9.7845574365640804 0 -1 0 I I #
vertex $-1 $673 $886 #
point $-1 -52.019259935212389 4.3063974768387681 5.8957577646092867 #
vertex $-1 $677 $887 #
point $-1 -52.019259935212389 7.4083637053126523 5.8957577646092867 #
coedge $-1 $692 $691 $684 $826 forward $681 $-1 #
edge $-1 $827 38.88508925072275 $830 42.971504634177208 $825 $888 forward 7 unknown #
vertex $-1 $696 $889 #
straight-curve $-1 -63.215069589773897 21.191102373113324 9.7845574365640786 -1 0 0 I I #
edge $-1 $830 -12.405031486499762 $693 -5.1671102867273611 $692 $890 forward 7 unknown #
vertex $-1 $829 $891 #
straight-curve $-1 -57.373577074495685 21.191102373113324 5.6981420531096205 0.79863550430605224 0 0.6018150307709319 I I #
point $-1 -51.950720808528864 21.191102373113324 9.7845574365640804 #
point $-1 -57.373577074495685 13.953181173340923 5.6981420531096205 #
straight-curve $-1 -57.373577074495685 0 9.7845574365640804 0 -1 0 I I #
vertex $-1 $699 $892 #
point $-1 -52.019259935212389 16.021158658990181 5.8957577646092867 #
vertex $-1 $703 $893 #
point $-1 -52.019259935212389 19.123124887464066 5.8957577646092867 #
coedge $-1 $718 $717 $710 $840 forward $707 $-1 #
edge $-1 $841 71.726954500865801 $844 79.555881425379724 $839 $894 forward 7 unknown #
vertex $-1 $722 $895 #
straight-curve $-1 38.575084218187079 -20.70240424752097 9.7845574365640857 1 0 0 I I #
edge $-1 $844 -12.884124339373571 $719 -2.752435476921228 $718 $896 forward 7 unknown #
vertex $-1 $843 $897 #
straight-curve $-1 -13.271823925969883 -20.70240424752097 92.377622874394206 -0.61566146476048833 0 0.78801076186113728 I I #
point $-1 51.256949166438716 -20.70240424752097 9.7845574365640857 #
point $-1 57.373577074495685 -10.570715385068628 1.9556305120501634 #
straight-curve $-1 57.373577074495685 0 9.7845574365640804 0 1 0 I I #
vertex $-1 $725 $898 #
point $-1 52.037166873101881 -17.807636001106019 2.8212319678492754 #
vertex $-1 $729 $899 #
point $-1 52.037166873101881 -13.465483631483583 2.8212319678492754 #
straight-curve $-1 -57.373577074495685 31.614036871033115 0 0 0 -1 I I #
point $-1 -57.373577074495685 -31.614036871033115 -9.7845574365640804 #
straight-curve $-1 -57.373577074495685 0 -9.7845574365640804 0 1 0 I I #
point $-1 -57.373577074495685 31.614036871033115 -9.7845574365640804 #
straight-curve $-1 -37.804462201367528 -13.780318779665292 9.7845574365640804 0 1 0 I I #
straight-curve $-1 -37.804462201367528 -13.780318779665292 -9.7845574365640804 0 -1 0 I I #
point $-1 -37.804462201367528 -31.614036871033115 -9.7845574365640804 #
point $-1 -37.804462201367528 -31.614036871033115 9.7845574365640804 #
straight-curve $-1 0 -31.614036871033115 -9.7845574365640804 -1 0 0 I I #
straight-curve $-1 0 -31.614036871033115 9.7845574365640804 1 0 0 I I #
vertex $-1 $865 $900 #
straight-curve $-1 -37.804462201367528 13.78031877966529 -9.7845574365640804 0 -1 0 I I #
edge $-1 $866 -9.7845574365640804 $863 9.7845574365640804 $777 $901 forward 7 unknown #
vertex $-1 $778 $902 #
straight-curve $-1 -37.804462201367528 13.78031877966529 9.7845574365640804 0 1 0 I I #
straight-curve $-1 0 31.614036871033115 9.7845574365640804 -1 0 0 I I #
straight-curve $-1 0 31.614036871033115 -9.7845574365640804 1 0 0 I I #
straight-curve $-1 -57.373577074495685 -13.953181173340919 48.669646687286829 0 0 -1 I I #
point $-1 -57.373577074495685 -13.953181173340919 9.7845574365640804 #
straight-curve $-1 -57.373577074495685 -8.7860708866135599 5.6981420531096187 0 -1 0 I I #
point $-1 -57.373577074495685 -13.953181173340919 5.6981420531096205 #
point $-1 -52.216080408747509 -19.123124887464066 4.4953072295323029 #
point $-1 -52.216080408747509 -16.021158658990178 4.4953072295323029 #
straight-curve $-1 -57.373577074495685 -2.2384199911895024 48.669646687286829 0 0 -1 I I #
point $-1 -57.373577074495685 -2.2384199911895024 9.7845574365640804 #
straight-curve $-1 -57.373577074495685 -2.9286902955378515 5.6981420531096187 0 -1 0 I I #
point $-1 -57.373577074495685 -2.2384199911895024 5.6981420531096205 #
point $-1 -52.216080408747509 -7.4083637053126488 4.4953072295323029 #
point $-1 -52.216080408747509 -4.306397476838761 4.4953072295323029 #
straight-curve $-1 -57.373577074495685 9.4763411909619109 48.669646687286829 0 0 -1 I I #
point $-1 -57.373577074495685 9.4763411909619109 9.7845574365640804 #
straight-curve $-1 -57.373577074495685 2.9286902955378551 5.6981420531096187 0 -1 0 I I #
point $-1 -57.373577074495685 9.4763411909619109 5.6981420531096205 #
point $-1 -52.216080408747509 4.3063974768387681 4.4953072295323029 #
point $-1 -52.216080408747509 7.4083637053126523 4.4953072295323029 #
straight-curve $-1 -57.373577074495685 21.191102373113324 48.669646687286829 0 0 -1 I I #
point $-1 -57.373577074495685 21.191102373113324 9.7845574365640804 #
straight-curve $-1 -57.373577074495685 8.7860708866135617 5.6981420531096187 0 -1 0 I I #
point $-1 -57.373577074495685 21.191102373113324 5.6981420531096205 #
point $-1 -52.216080408747509 16.021158658990181 4.4953072295323029 #
point $-1 -52.216080408747509 19.123124887464066 4.4953072295323029 #
straight-curve $-1 57.373577074495685 -20.70240424752097 81.511511937429887 0 0 -1 I I #
point $-1 57.373577074495685 -20.70240424752097 9.7845574365640804 #
straight-curve $-1 57.373577074495685 -7.8182799081473995 1.9556305120501563 0 1 0 I I #
point $-1 57.373577074495685 -20.70240424752097 1.9556305120501634 #
point $-1 50.633494646480258 -17.807636001106019 2.9935812649499245 #
point $-1 50.633494646480258 -13.465483631483583 2.9935812649499245 #
point $-1 -37.804462201367528 31.614036871033111 -9.7845574365640804 #
straight-curve $-1 -37.804462201367528 31.614036871033115 0 0 0 -1 I I #
point $-1 -37.804462201367528 31.614036871033111 9.7845574365640804 #
End-of-ACIS-data 