500 0 9 0           
7 Unknown 11 ACIS 5.0 NT 24 Thu Mar 25 16:38:36 1999 
-1 9.9999999999999995e-007 1e-010 
body $-1 $9 $-1 $10 #
body $-1 $11 $-1 $12 #
body $-1 $13 $-1 $14 #
body $-1 $15 $-1 $16 #
body $-1 $17 $-1 $18 #
body $-1 $19 $-1 $20 #
body $-1 $21 $-1 $22 #
body $-1 $23 $-1 $24 #
body $-1 $25 $-1 $26 #
lump $-1 $-1 $27 $0 #
transform $-1 1 0 0 0 1 0 0 0 1 79.633777886288044 48.729786584678884 15.183164651517659 1 rotate no_reflect no_shear #
lump $-1 $-1 $28 $1 #
transform $-1 1 0 0 0 1 0 0 0 1 79.633777886288044 48.729786584678884 15.183164651517659 1 rotate no_reflect no_shear #
lump $-1 $-1 $29 $2 #
transform $-1 1 0 0 0 1 0 0 0 1 79.633777886288044 48.729786584678884 15.183164651517659 1 rotate no_reflect no_shear #
lump $-1 $-1 $30 $3 #
transform $-1 1 0 0 0 1 0 0 0 1 79.633777886288044 48.729786584678884 15.183164651517659 1 rotate no_reflect no_shear #
lump $-1 $-1 $31 $4 #
transform $-1 1 0 0 0 1 0 0 0 1 79.633777886288044 48.729786584678884 15.183164651517659 1 rotate no_reflect no_shear #
lump $-1 $-1 $32 $5 #
transform $-1 1 0 0 0 1 0 0 0 1 79.633777886288044 48.729786584678884 15.183164651517659 1 rotate no_reflect no_shear #
lump $-1 $-1 $33 $6 #
transform $-1 1 0 0 0 1 0 0 0 1 79.633777886288044 48.729786584678884 15.183164651517659 1 rotate no_reflect no_shear #
lump $-1 $-1 $34 $7 #
transform $-1 1 0 0 0 1 0 0 0 1 79.633777886288044 48.729786584678884 15.183164651517659 1 rotate no_reflect no_shear #
lump $-1 $-1 $35 $8 #
transform $-1 1 0 0 0 1 0 0 0 1 79.633777886288044 48.729786584678884 15.183164651517659 1 rotate no_reflect no_shear #
shell $-1 $-1 $-1 $36 $-1 $9 #
shell $-1 $-1 $-1 $37 $-1 $11 #
shell $-1 $-1 $-1 $38 $-1 $13 #
shell $-1 $-1 $-1 $39 $-1 $15 #
shell $-1 $-1 $-1 $40 $-1 $17 #
shell $-1 $-1 $-1 $41 $-1 $19 #
shell $-1 $-1 $-1 $42 $-1 $21 #
shell $-1 $-1 $-1 $43 $-1 $23 #
shell $-1 $-1 $-1 $44 $-1 $25 #
face $-1 $45 $46 $27 $-1 $47 forward single #
face $-1 $48 $49 $28 $-1 $50 forward single #
face $-1 $51 $52 $29 $-1 $53 reversed single #
face $-1 $54 $55 $30 $-1 $56 forward single #
face $-1 $57 $58 $31 $-1 $59 forward single #
face $-1 $60 $61 $32 $-1 $62 reversed single #
face $-1 $63 $64 $33 $-1 $65 forward single #
face $-1 $66 $67 $34 $-1 $68 reversed single #
face $-1 $69 $70 $35 $-1 $71 forward single #
face $-1 $72 $73 $27 $-1 $74 reversed single #
loop $-1 $-1 $75 $36 #
plane-surface $-1 0 0 15.183164651517659 0 0 1 1 0 0 forward_v I I I I #
face $-1 $76 $77 $28 $-1 $78 reversed single #
loop $-1 $-1 $79 $37 #
plane-surface $-1 0 -41.173369222615349 14.683164651517659 0 0 1 1 0 0 forward_v I I I I #
face $-1 $80 $81 $29 $-1 $82 reversed single #
loop $-1 $-1 $83 $38 #
plane-surface $-1 40.521553054364617 -17.012679328182806 226.57677068649849 0 1 0 0.57357644374324357 0 0.81915203911291934 forward_v I I I I #
face $-1 $84 $85 $30 $-1 $86 forward single #
loop $-1 $87 $88 $39 #
cone-surface $-1 71.722627298320532 -12.708457540496276 9.302705762324603 -0.57357644374324357 0 -0.81915203911291934 0.81915203911291934 0 -0.57357644374324357 1 I I 0 1 1 forward I I I I #
face $-1 $89 $90 $31 $-1 $91 forward single #
loop $-1 $92 $93 $40 #
cone-surface $-1 71.722627298320532 -6.2521248589664893 9.302705762324603 -0.57357644374324357 0 -0.81915203911291934 0.81915203911291934 0 -0.57357644374324357 1 I I 0 1 1 forward I I I I #
face $-1 $94 $95 $32 $-1 $96 reversed single #
loop $-1 $-1 $97 $41 #
plane-surface $-1 -199.83452936661735 -11.198390882341069 108.8629131435203 0 1 0 -0.75470958851134928 0 0.65605901945558964 forward_v I I I I #
face $-1 $98 $99 $33 $-1 $100 forward single #
loop $-1 $101 $102 $42 #
cone-surface $-1 -72.136721843313964 -3.7292700392791787 7.3455140996772093 0.75470958851134928 0 -0.65605901945558964 1.6401475486389741 0 1.8867739712783731 1 I I 0 1 2.5 forward I I I I #
face $-1 $103 $104 $34 $-1 $105 reversed single #
loop $-1 $-1 $106 $43 #
plane-surface $-1 -199.83452936661735 29.97497834027428 108.8629131435203 0 1 0 -0.75470958851134928 0 0.65605901945558964 forward_v I I I I #
face $-1 $107 $108 $35 $-1 $109 forward single #
loop $-1 $110 $111 $44 #
cone-surface $-1 -72.136721843313964 37.444099183336171 7.3455140996772093 0.75470958851134928 0 -0.65605901945558964 1.6401475486389741 0 1.8867739712783731 1 I I 0 1 2.5 forward I I I I #
face $-1 $112 $113 $27 $-1 $114 reversed single #
loop $-1 $-1 $115 $45 #
plane-surface $-1 0 0 -15.183164651517659 0 0 1 1 0 0 forward_v I I I I #
coedge $-1 $116 $117 $118 $119 forward $46 $-1 #
face $-1 $120 $121 $28 $-1 $122 reversed single #
loop $-1 $-1 $123 $48 #
plane-surface $-1 0 -41.173369222615349 10.234743456794314 0 0 1 1 0 0 forward_v I I I I #
coedge $-1 $124 $125 $126 $127 reversed $49 $-1 #
face $-1 $128 $129 $29 $-1 $130 reversed single #
loop $-1 $-1 $131 $51 #
plane-surface $-1 -50.830565189348277 -9.4802911997313828 96.11242761086217 0.57357644374324357 0 0.81915203911291934 0.81915203911291934 0 -0.57357644374324357 forward_v I I I I #
coedge $-1 $132 $133 $134 $135 reversed $52 $-1 #
face $-1 $-1 $136 $30 $-1 $137 forward single #
loop $-1 $138 $139 $54 #
cone-surface $-1 70.967378344997854 -12.708457540496276 8.2240984957592627 -0.57357644374324357 0 -0.81915203911291934 0.40957601955645967 0 -0.28678822187162178 1 I I -0.70710678118654746 0.70710678118654746 0.5 forward I I I I #
loop $-1 $-1 $140 $39 #
coedge $-1 $88 $88 $141 $142 reversed $55 $-1 #
face $-1 $-1 $143 $31 $-1 $144 forward single #
loop $-1 $145 $146 $57 #
cone-surface $-1 70.967378344997854 -6.2521248589664893 8.2240984957592627 -0.57357644374324357 0 -0.81915203911291934 0.40957601955645967 0 -0.28678822187162178 1 I I -0.70710678118654746 0.70710678118654746 0.5 forward I I I I #
loop $-1 $-1 $147 $40 #
coedge $-1 $93 $93 $148 $149 reversed $58 $-1 #
face $-1 $150 $151 $32 $-1 $152 reversed single #
loop $-1 $-1 $153 $60 #
plane-surface $-1 -79.633777886288073 -3.7292700392791787 4.3739966722755952 -0.75470958851134928 0 0.65605901945558964 0.65605901945558964 0 0.75470958851134928 forward_v I I I I #
coedge $-1 $154 $155 $156 $157 reversed $61 $-1 #
face $-1 $-1 $158 $33 $-1 $159 forward single #
loop $-1 $160 $161 $63 #
cone-surface $-1 -68.39441188041414 -3.7292700392791787 4.0923737631383172 0.75470958851134928 0 -0.65605901945558964 0.82007377431948703 0 0.94338698563918655 1 I I -0.70710678118654746 0.70710678118654746 1.25 forward I I I I #
loop $-1 $-1 $162 $42 #
coedge $-1 $102 $102 $163 $164 reversed $64 $-1 #
face $-1 $165 $166 $34 $-1 $167 reversed single #
loop $-1 $-1 $168 $66 #
plane-surface $-1 -79.633777886288073 37.444099183336171 4.3739966722755952 -0.75470958851134928 0 0.65605901945558964 0.65605901945558964 0 0.75470958851134928 forward_v I I I I #
coedge $-1 $169 $170 $171 $172 reversed $67 $-1 #
face $-1 $-1 $173 $35 $-1 $174 forward single #
loop $-1 $175 $176 $69 #
cone-surface $-1 -68.39441188041414 37.444099183336171 4.0923737631383172 0.75470958851134928 0 -0.65605901945558964 0.82007377431948703 0 0.94338698563918655 1 I I -0.70710678118654746 0.70710678118654746 1.25 forward I I I I #
loop $-1 $-1 $177 $44 #
coedge $-1 $111 $111 $178 $179 reversed $70 $-1 #
face $-1 $180 $181 $27 $-1 $182 reversed single #
loop $-1 $-1 $183 $72 #
plane-surface $-1 0 -48.729786584678884 0 0 1 0 0 0 1 forward_v I I I I #
coedge $-1 $184 $185 $186 $187 forward $73 $-1 #
coedge $-1 $188 $75 $189 $190 forward $46 $-1 #
coedge $-1 $75 $188 $191 $192 forward $46 $-1 #
coedge $-1 $193 $194 $75 $119 reversed $195 $-1 #
edge $-1 $196 -48.729786584678884 $197 48.729786584678884 $118 $198 forward 7 unknown #
face $-1 $199 $200 $28 $-1 $201 reversed single #
loop $-1 $-1 $202 $76 #
plane-surface $-1 0 -33.616951860551815 12.458954054155987 0 -1 0 0 0 -1 forward_v I I I I #
coedge $-1 $203 $204 $205 $206 reversed $77 $-1 #
coedge $-1 $207 $79 $208 $209 forward $49 $-1 #
coedge $-1 $79 $207 $210 $211 reversed $49 $-1 #
coedge $-1 $212 $213 $79 $127 forward $214 $-1 #
edge $-1 $215 13.03026724924414 $216 28.143101973371209 $126 $217 forward 7 unknown #
face $-1 $218 $219 $29 $-1 $220 forward single #
loop $-1 $-1 $221 $80 #
plane-surface $-1 40.521553054364617 -1.9479030712799617 226.57677068649849 0 -1 0 -0.57357644374324357 0 -0.81915203911291934 forward_v I I I I #
coedge $-1 $222 $223 $224 $225 reversed $81 $-1 #
coedge $-1 $133 $83 $226 $227 reversed $52 $-1 #
coedge $-1 $83 $132 $222 $228 reversed $52 $-1 #
coedge $-1 $224 $229 $83 $135 forward $230 $-1 #
edge $-1 $231 98.105220691731589 $232 108.52807597609997 $134 $233 forward 7 unknown #
loop $-1 $-1 $141 $84 #
plane-surface $-1 -50.830565189348277 -9.4802911997313828 96.11242761086217 0.57357644374324357 0 0.81915203911291934 0.81915203911291934 0 -0.57357644374324357 forward_v I I I I #
loop $-1 $-1 $234 $54 #
coedge $-1 $139 $139 $140 $235 reversed $85 $-1 #
coedge $-1 $140 $140 $139 $235 forward $87 $-1 #
coedge $-1 $141 $141 $88 $142 forward $136 $-1 #
edge $-1 $236 0 $236 6.2831853071796004 $141 $237 forward 7 unknown #
loop $-1 $-1 $148 $89 #
plane-surface $-1 -50.830565189348277 -9.4802911997313828 96.11242761086217 0.57357644374324357 0 0.81915203911291934 0.81915203911291934 0 -0.57357644374324357 forward_v I I I I #
loop $-1 $-1 $238 $57 #
coedge $-1 $146 $146 $147 $239 reversed $90 $-1 #
coedge $-1 $147 $147 $146 $239 forward $92 $-1 #
coedge $-1 $148 $148 $93 $149 forward $143 $-1 #
edge $-1 $240 0 $240 6.2831853071796004 $148 $241 forward 7 unknown #
face $-1 $242 $243 $32 $-1 $244 reversed single #
loop $-1 $-1 $245 $94 #
plane-surface $-1 -199.83452936661735 3.7398508037827121 108.8629131435203 0 -1 0 0.75470958851134928 0 -0.65605901945558964 forward_v I I I I #
coedge $-1 $246 $247 $248 $249 reversed $95 $-1 #
coedge $-1 $155 $97 $250 $251 reversed $61 $-1 #
coedge $-1 $97 $154 $246 $252 reversed $61 $-1 #
coedge $-1 $248 $253 $97 $157 forward $254 $-1 #
edge $-1 $255 20.283486797020629 $256 29.679752928447471 $156 $257 forward 7 unknown #
loop $-1 $-1 $163 $98 #
plane-surface $-1 -79.633777886288073 -3.7292700392791787 4.3739966722755952 -0.75470958851134928 0 0.65605901945558964 0.65605901945558964 0 0.75470958851134928 forward_v I I I I #
loop $-1 $-1 $258 $63 #
coedge $-1 $161 $161 $162 $259 reversed $99 $-1 #
coedge $-1 $162 $162 $161 $259 forward $101 $-1 #
coedge $-1 $163 $163 $102 $164 forward $158 $-1 #
edge $-1 $260 0 $260 6.2831853071796004 $163 $261 forward 7 unknown #
face $-1 $262 $263 $34 $-1 $264 forward single #
loop $-1 $-1 $265 $103 #
plane-surface $-1 -199.83452936661735 44.913220026398065 108.8629131435203 0 -1 0 0.75470958851134928 0 -0.65605901945558964 forward_v I I I I #
coedge $-1 $266 $267 $268 $269 reversed $104 $-1 #
coedge $-1 $170 $106 $270 $271 reversed $67 $-1 #
coedge $-1 $106 $169 $266 $272 reversed $67 $-1 #
coedge $-1 $268 $273 $106 $172 forward $263 $-1 #
edge $-1 $274 20.283486797020629 $275 29.679752928447471 $171 $276 forward 7 unknown #
loop $-1 $-1 $178 $107 #
plane-surface $-1 -79.633777886288073 37.444099183336171 4.3739966722755952 -0.75470958851134928 0 0.65605901945558964 0.65605901945558964 0 0.75470958851134928 forward_v I I I I #
loop $-1 $-1 $277 $69 #
coedge $-1 $176 $176 $177 $278 reversed $108 $-1 #
coedge $-1 $177 $177 $176 $278 forward $110 $-1 #
coedge $-1 $178 $178 $111 $179 forward $173 $-1 #
edge $-1 $279 0 $279 6.2831853071796004 $178 $280 forward 7 unknown #
face $-1 $281 $282 $27 $-1 $283 reversed single #
loop $-1 $-1 $284 $112 #
plane-surface $-1 -79.633777886288044 0 0 1 0 0 0 0 -1 forward_v I I I I #
coedge $-1 $285 $191 $286 $287 forward $113 $-1 #
coedge $-1 $288 $115 $285 $289 forward $73 $-1 #
coedge $-1 $115 $288 $290 $291 forward $73 $-1 #
coedge $-1 $194 $193 $115 $187 reversed $195 $-1 #
edge $-1 $292 -48.729786584678884 $293 48.729786584678884 $186 $294 forward 7 unknown #
coedge $-1 $117 $116 $295 $296 forward $46 $-1 #
coedge $-1 $297 $298 $116 $190 reversed $282 $-1 #
edge $-1 $197 -79.633777886288044 $299 79.633777886288044 $189 $300 forward 7 unknown #
coedge $-1 $183 $301 $117 $192 reversed $113 $-1 #
edge $-1 $302 -79.633777886288044 $196 79.633777886288044 $191 $303 forward 7 unknown #
coedge $-1 $186 $118 $301 $304 forward $195 $-1 #
coedge $-1 $118 $186 $297 $305 reversed $195 $-1 #
loop $-1 $-1 $193 $281 #
vertex $-1 $119 $306 #
vertex $-1 $119 $307 #
straight-curve $-1 79.633777886288044 0 15.183164651517659 0 1 0 I I #
face $-1 $308 $309 $28 $-1 $310 reversed single #
loop $-1 $-1 $311 $120 #
plane-surface $-1 -79.633777886288044 0 0 1 0 0 0 0 -1 forward_v I I I I #
coedge $-1 $312 $208 $213 $313 reversed $121 $-1 #
coedge $-1 $314 $123 $315 $316 reversed $77 $-1 #
coedge $-1 $123 $314 $312 $317 forward $77 $-1 #
coedge $-1 $213 $212 $123 $206 forward $214 $-1 #
edge $-1 $318 -28.143101973371209 $319 -13.03026724924414 $205 $320 forward 7 unknown #
coedge $-1 $125 $124 $311 $321 reversed $49 $-1 #
coedge $-1 $202 $322 $124 $209 reversed $121 $-1 #
edge $-1 $215 -79.633777886288044 $323 79.633777886288044 $208 $324 forward 7 unknown #
coedge $-1 $325 $326 $125 $211 forward $309 $-1 #
edge $-1 $216 -79.633777886288044 $327 79.633777886288044 $210 $328 forward 7 unknown #
coedge $-1 $205 $126 $326 $329 forward $214 $-1 #
coedge $-1 $126 $205 $202 $313 forward $214 $-1 #
loop $-1 $-1 $126 $308 #
vertex $-1 $127 $330 #
vertex $-1 $329 $331 #
straight-curve $-1 79.633777886288044 -20.586684611307675 14.683164651517659 0 -1 0 I I #
face $-1 $-1 $230 $29 $-1 $332 reversed single #
loop $-1 $-1 $333 $128 #
plane-surface $-1 0 0 15.183164651517659 0 0 1 1 0 0 forward_v I I I I #
coedge $-1 $334 $335 $336 $337 reversed $129 $-1 #
coedge $-1 $338 $131 $133 $228 forward $81 $-1 #
coedge $-1 $131 $338 $334 $339 forward $81 $-1 #
coedge $-1 $336 $134 $131 $225 forward $230 $-1 #
edge $-1 $232 -12.272533728317114 $340 2.7922425285857297 $224 $341 forward 7 unknown #
coedge $-1 $342 $343 $132 $227 forward $219 $-1 #
edge $-1 $344 44.487621646072817 $231 59.373001359105736 $226 $345 forward 7 unknown #
edge $-1 $232 -159.26755577257609 $344 -141.09586236001661 $133 $346 forward 7 unknown #
coedge $-1 $134 $336 $342 $347 reversed $230 $-1 #
loop $-1 $-1 $336 $218 #
vertex $-1 $347 $348 #
vertex $-1 $135 $349 #
straight-curve $-1 79.633777886288044 -17.012679328182806 113.28838534324925 0 0 -1 I I #
coedge $-1 $234 $234 $-1 $350 reversed $138 $-1 #
edge $-1 $351 0 $351 6.2831853071796004 $139 $352 forward 7 unknown #
vertex $-1 $142 $353 #
ellipse-curve $-1 72.191088029771578 -12.708457540496276 9.9717370093334754 0.57357644374324357 0 0.81915203911291934 0.81915203911291934 0 -0.57357644374324357 1 I I #
coedge $-1 $238 $238 $-1 $354 reversed $145 $-1 #
edge $-1 $355 0 $355 6.2831853071796004 $146 $356 forward 7 unknown #
vertex $-1 $149 $357 #
ellipse-curve $-1 72.191088029771578 -6.2521248589664893 9.9717370093334754 0.57357644374324357 0 0.81915203911291934 0.81915203911291934 0 -0.57357644374324357 1 I I #
face $-1 $-1 $254 $32 $-1 $358 forward single #
loop $-1 $-1 $359 $150 #
plane-surface $-1 -79.633777886288044 0 0 1 0 0 0 0 -1 forward_v I I I I #
coedge $-1 $360 $361 $362 $363 reversed $151 $-1 #
coedge $-1 $364 $153 $155 $252 forward $95 $-1 #
coedge $-1 $153 $364 $360 $365 forward $95 $-1 #
coedge $-1 $362 $156 $153 $249 forward $254 $-1 #
edge $-1 $256 -9.3337558627014801 $366 5.6044858234223014 $248 $367 forward 7 unknown #
coedge $-1 $368 $369 $154 $251 forward $243 $-1 #
edge $-1 $370 -50.05745989948452 $255 -39.248291920242494 $250 $371 forward 7 unknown #
edge $-1 $256 -14.322287862491512 $370 -4.3448039297454601e-014 $155 $372 forward 7 unknown #
coedge $-1 $156 $362 $368 $373 forward $254 $-1 #
loop $-1 $-1 $362 $242 #
vertex $-1 $251 $374 #
vertex $-1 $157 $375 #
straight-curve $-1 -99.917264683308673 -11.198390882341069 15.183164651517657 1 0 0 I I #
coedge $-1 $258 $258 $-1 $376 reversed $160 $-1 #
edge $-1 $377 0 $377 6.2831853071796004 $161 $378 forward 7 unknown #
vertex $-1 $164 $379 #
ellipse-curve $-1 -74.935644820574623 -3.7292700392791787 9.7785806618966387 -0.75470958851134928 0 0.65605901945558964 1.6401475486389741 0 1.8867739712783731 1 I I #
face $-1 $-1 $380 $34 $-1 $381 reversed single #
loop $-1 $-1 $171 $165 #
plane-surface $-1 0 0 15.183164651517659 0 0 1 1 0 0 forward_v I I I I #
coedge $-1 $382 $383 $384 $385 reversed $166 $-1 #
coedge $-1 $386 $168 $170 $272 forward $104 $-1 #
coedge $-1 $168 $386 $382 $387 forward $104 $-1 #
coedge $-1 $384 $171 $168 $269 forward $263 $-1 #
edge $-1 $275 11.252928748606195 $388 26.19117043472998 $268 $389 forward 7 unknown #
coedge $-1 $390 $391 $169 $271 forward $380 $-1 #
edge $-1 $392 -50.05745989948452 $274 -39.248291920242494 $270 $393 forward 7 unknown #
edge $-1 $275 -14.322287862491512 $392 -4.3448039297454601e-014 $170 $394 forward 7 unknown #
coedge $-1 $171 $384 $390 $395 forward $263 $-1 #
vertex $-1 $172 $396 #
vertex $-1 $172 $397 #
straight-curve $-1 -99.917264683308673 29.97497834027428 15.183164651517657 1 0 0 I I #
coedge $-1 $277 $277 $-1 $398 reversed $175 $-1 #
edge $-1 $399 0 $399 6.2831853071796004 $176 $400 forward 7 unknown #
vertex $-1 $179 $401 #
ellipse-curve $-1 -74.935644820574623 37.444099183336171 9.7785806618966387 -0.75470958851134928 0 0.65605901945558964 1.6401475486389741 0 1.8867739712783731 1 I I #
face $-1 $-1 $195 $27 $-1 $402 reversed single #
loop $-1 $-1 $297 $180 #
plane-surface $-1 0 48.729786584678884 0 0 -1 0 0 0 -1 forward_v I I I I #
coedge $-1 $403 $295 $298 $404 forward $181 $-1 #
coedge $-1 $301 $183 $184 $289 reversed $113 $-1 #
coedge $-1 $295 $403 $183 $287 reversed $181 $-1 #
edge $-1 $302 -15.183164651517659 $405 15.183164651517659 $286 $406 forward 7 unknown #
coedge $-1 $185 $184 $403 $407 forward $73 $-1 #
edge $-1 $293 -79.633777886288044 $405 79.633777886288044 $285 $408 forward 7 unknown #
coedge $-1 $298 $297 $185 $291 reversed $282 $-1 #
edge $-1 $409 -79.633777886288044 $292 79.633777886288044 $290 $410 forward 7 unknown #
vertex $-1 $187 $411 #
vertex $-1 $304 $412 #
straight-curve $-1 79.633777886288044 0 -15.183164651517659 0 -1 0 I I #
coedge $-1 $284 $286 $188 $296 reversed $181 $-1 #
edge $-1 $299 -48.729786584678884 $302 48.729786584678884 $295 $413 forward 7 unknown #
coedge $-1 $290 $189 $194 $305 forward $282 $-1 #
coedge $-1 $189 $290 $284 $404 reversed $282 $-1 #
vertex $-1 $190 $414 #
straight-curve $-1 0 48.729786584678884 15.183164651517659 -1 0 0 I I #
coedge $-1 $191 $285 $193 $304 reversed $113 $-1 #
vertex $-1 $296 $415 #
straight-curve $-1 0 -48.729786584678884 15.183164651517659 1 0 0 I I #
edge $-1 $196 -15.183164651517659 $293 15.183164651517659 $193 $416 forward 7 unknown #
edge $-1 $197 -15.183164651517659 $292 15.183164651517659 $194 $417 forward 7 unknown #
point $-1 79.633777886288044 -48.729786584678884 15.183164651517659 #
point $-1 79.633777886288044 48.729786584678884 15.183164651517659 #
face $-1 $-1 $214 $28 $-1 $418 reversed single #
loop $-1 $-1 $210 $199 #
plane-surface $-1 0 -48.729786584678884 0 0 1 0 0 0 1 forward_v I I I I #
coedge $-1 $419 $420 $207 $321 forward $200 $-1 #
coedge $-1 $322 $202 $204 $317 reversed $121 $-1 #
edge $-1 $319 4.005266429716321 $215 8.4536876244396666 $213 $421 forward 7 unknown #
coedge $-1 $204 $203 $422 $423 reversed $77 $-1 #
coedge $-1 $326 $325 $203 $316 forward $309 $-1 #
edge $-1 $424 -79.633777886288044 $318 79.633777886288044 $315 $425 forward 7 unknown #
edge $-1 $426 -79.633777886288044 $319 79.633777886288044 $312 $427 forward 7 unknown #
vertex $-1 $316 $428 #
vertex $-1 $206 $429 #
straight-curve $-1 79.633777886288044 -20.586684611307675 10.234743456794314 0 1 0 I I #
edge $-1 $327 -28.143101973371209 $323 -13.03026724924414 $311 $430 forward 7 unknown #
coedge $-1 $208 $312 $419 $431 reversed $121 $-1 #
vertex $-1 $321 $432 #
straight-curve $-1 0 -33.616951860551815 14.683164651517659 -1 0 0 I I #
coedge $-1 $315 $210 $420 $433 forward $309 $-1 #
coedge $-1 $210 $315 $212 $329 reversed $309 $-1 #
vertex $-1 $433 $434 #
straight-curve $-1 0 -48.729786584678884 14.683164651517659 -1 0 0 I I #
edge $-1 $216 -14.683164651517659 $318 -10.234743456794314 $212 $435 forward 7 unknown #
point $-1 79.633777886288044 -33.616951860551815 14.683164651517659 #
point $-1 79.633777886288044 -48.729786584678884 14.683164651517659 #
plane-surface $-1 79.633777886288044 0 0 -1 0 0 0 0 1 forward_v I I I I #
coedge $-1 $343 $342 $335 $436 forward $219 $-1 #
coedge $-1 $335 $221 $223 $339 reversed $129 $-1 #
coedge $-1 $221 $334 $333 $436 reversed $129 $-1 #
coedge $-1 $229 $224 $221 $337 forward $230 $-1 #
edge $-1 $340 -108.52807597609997 $437 -98.105220691731589 $336 $438 forward 7 unknown #
coedge $-1 $223 $222 $343 $439 reversed $81 $-1 #
edge $-1 $440 141.09586236001661 $340 159.26755577257609 $334 $441 forward 7 unknown #
vertex $-1 $225 $442 #
straight-curve $-1 79.633777886288044 -4.7401455998656914 4.7603093671492687 0 1 0 I I #
coedge $-1 $333 $226 $229 $347 forward $219 $-1 #
coedge $-1 $226 $333 $338 $439 forward $219 $-1 #
vertex $-1 $227 $443 #
straight-curve $-1 20.260776527182308 -17.012679328182806 15.183164651517657 1 0 0 I I #
straight-curve $-1 -50.830565189348277 -17.012679328182806 96.11242761086217 -0.81915203911291934 0 0.57357644374324357 I I #
edge $-1 $231 -17.012679328182806 $437 -1.9479030712799617 $229 $444 forward 7 unknown #
point $-1 79.633777886288044 -17.012679328182806 15.183164651517659 #
point $-1 79.633777886288044 -17.012679328182806 4.7603093671492758 #
edge $-1 $445 1 $445 0 $234 $-1 forward 7 unknown #
vertex $-1 $235 $446 #
ellipse-curve $-1 71.254166566869472 -12.708457540496276 8.6336745153157217 0.57357644374324357 0 0.81915203911291934 0.81915203911291934 0 -0.57357644374324357 1 I I #
point $-1 73.010240068884499 -12.708457540496276 9.3981605655902385 #
edge $-1 $447 1 $447 0 $238 $-1 forward 7 unknown #
vertex $-1 $239 $448 #
ellipse-curve $-1 71.254166566869472 -6.2521248589664893 8.6336745153157217 0.57357644374324357 0 0.81915203911291934 0.81915203911291934 0 -0.57357644374324357 1 I I #
point $-1 73.010240068884499 -6.2521248589664893 9.3981605655902385 #
plane-surface $-1 0 0 15.183164651517659 0 0 1 1 0 0 forward_v I I I I #
coedge $-1 $369 $368 $361 $449 forward $243 $-1 #
coedge $-1 $361 $245 $247 $365 reversed $151 $-1 #
coedge $-1 $245 $360 $359 $449 reversed $151 $-1 #
coedge $-1 $253 $248 $245 $363 forward $254 $-1 #
edge $-1 $366 -29.679752928447471 $450 -20.283486797020629 $362 $451 forward 7 unknown #
coedge $-1 $247 $246 $369 $452 reversed $95 $-1 #
edge $-1 $453 4.3448039297454601e-014 $366 14.322287862491512 $360 $454 forward 7 unknown #
vertex $-1 $249 $455 #
straight-curve $-1 -70.237511754861188 -1.8646350196395893 15.183164651517657 0 1 0 I I #
coedge $-1 $359 $250 $253 $373 reversed $243 $-1 #
coedge $-1 $250 $359 $364 $452 forward $243 $-1 #
vertex $-1 $251 $456 #
straight-curve $-1 -79.633777886288044 -11.198390882341069 54.431456571760151 0 0 1 I I #
straight-curve $-1 -79.633777886288073 -11.198390882341069 4.3739966722755952 -0.65605901945558964 0 -0.75470958851134928 I I #
edge $-1 $450 -3.7398508037827121 $255 11.198390882341069 $368 $457 forward 7 unknown #
point $-1 -79.633777886288044 -11.198390882341069 15.183164651517659 #
point $-1 -70.237511754861202 -11.198390882341069 15.183164651517659 #
edge $-1 $458 1 $458 0 $258 $-1 forward 7 unknown #
vertex $-1 $259 $459 #
ellipse-curve $-1 -69.337798866053333 -3.7292700392791787 4.9124475374578047 -0.75470958851134928 0 0.65605901945558964 1.6401475486389741 0 1.8867739712783731 1 I I #
point $-1 -73.295497271935616 -3.7292700392791787 11.665354633174987 #
loop $-1 $-1 $270 $262 #
plane-surface $-1 -79.633777886288044 0 0 1 0 0 0 0 -1 forward_v I I I I #
coedge $-1 $383 $265 $267 $387 reversed $166 $-1 #
coedge $-1 $265 $382 $460 $461 reversed $166 $-1 #
coedge $-1 $273 $268 $265 $385 forward $263 $-1 #
edge $-1 $388 -29.679752928447471 $462 -20.283486797020629 $384 $463 forward 7 unknown #
coedge $-1 $267 $266 $391 $464 reversed $104 $-1 #
edge $-1 $465 4.3448039297454601e-014 $388 14.322287862491512 $382 $466 forward 7 unknown #
vertex $-1 $269 $467 #
straight-curve $-1 -70.237511754861188 18.722049591668085 15.183164651517657 0 1 0 I I #
coedge $-1 $460 $270 $273 $395 reversed $380 $-1 #
coedge $-1 $270 $460 $386 $464 forward $380 $-1 #
vertex $-1 $271 $468 #
straight-curve $-1 -79.633777886288044 29.97497834027428 54.431456571760151 0 0 1 I I #
straight-curve $-1 -79.633777886288073 29.97497834027428 4.3739966722755952 -0.65605901945558964 0 -0.75470958851134928 I I #
edge $-1 $462 -44.913220026398065 $274 -29.97497834027428 $390 $469 forward 7 unknown #
point $-1 -79.633777886288044 29.97497834027428 15.183164651517659 #
point $-1 -70.237511754861202 29.97497834027428 15.183164651517659 #
edge $-1 $470 1 $470 0 $277 $-1 forward 7 unknown #
vertex $-1 $278 $471 #
ellipse-curve $-1 -69.337798866053333 37.444099183336171 4.9124475374578047 -0.75470958851134928 0 0.65605901945558964 1.6401475486389741 0 1.8867739712783731 1 I I #
point $-1 -73.295497271935616 37.444099183336171 11.665354633174987 #
plane-surface $-1 79.633777886288044 0 0 -1 0 0 0 0 1 forward_v I I I I #
coedge $-1 $286 $284 $288 $407 reversed $181 $-1 #
edge $-1 $299 -15.183164651517659 $409 15.183164651517659 $298 $472 forward 7 unknown #
vertex $-1 $407 $473 #
straight-curve $-1 -79.633777886288044 -48.729786584678884 0 0 0 -1 I I #
edge $-1 $405 -48.729786584678884 $409 48.729786584678884 $403 $474 forward 7 unknown #
straight-curve $-1 0 -48.729786584678884 -15.183164651517659 -1 0 0 I I #
vertex $-1 $291 $475 #
straight-curve $-1 0 48.729786584678884 -15.183164651517659 1 0 0 I I #
point $-1 79.633777886288044 48.729786584678884 -15.183164651517659 #
point $-1 79.633777886288044 -48.729786584678884 -15.183164651517659 #
straight-curve $-1 -79.633777886288044 0 15.183164651517659 0 -1 0 I I #
point $-1 -79.633777886288044 48.729786584678884 15.183164651517659 #
point $-1 -79.633777886288044 -48.729786584678884 15.183164651517659 #
straight-curve $-1 79.633777886288044 -48.729786584678884 0 0 0 -1 I I #
straight-curve $-1 79.633777886288044 48.729786584678884 0 0 0 -1 I I #
plane-surface $-1 79.633777886288044 0 0 -1 0 0 0 0 1 forward_v I I I I #
coedge $-1 $422 $311 $322 $431 forward $200 $-1 #
coedge $-1 $311 $422 $325 $433 reversed $200 $-1 #
straight-curve $-1 79.633777886288044 -33.616951860551815 6.2294770270779933 0 0 1 I I #
coedge $-1 $420 $419 $314 $423 forward $200 $-1 #
edge $-1 $426 13.03026724924414 $424 28.143101973371209 $422 $476 forward 7 unknown #
vertex $-1 $316 $477 #
straight-curve $-1 0 -48.729786584678884 10.234743456794314 1 0 0 I I #
vertex $-1 $423 $478 #
straight-curve $-1 0 -33.616951860551815 10.234743456794314 1 0 0 I I #
point $-1 79.633777886288044 -48.729786584678884 10.234743456794314 #
point $-1 79.633777886288044 -33.616951860551815 10.234743456794314 #
straight-curve $-1 -79.633777886288044 -20.586684611307675 14.683164651517659 0 1 0 I I #
edge $-1 $323 -8.4536876244396666 $426 -4.005266429716321 $419 $479 forward 7 unknown #
point $-1 -79.633777886288044 -33.616951860551815 14.683164651517659 #
edge $-1 $327 -14.683164651517659 $424 -10.234743456794314 $420 $480 forward 7 unknown #
point $-1 -79.633777886288044 -48.729786584678884 14.683164651517659 #
straight-curve $-1 79.633777886288044 -48.729786584678884 0 0 0 -1 I I #
edge $-1 $437 -59.373001359105736 $440 -44.487621646072817 $333 $481 forward 7 unknown #
vertex $-1 $436 $482 #
straight-curve $-1 79.633777886288044 -1.9479030712799617 113.28838534324925 0 0 1 I I #
edge $-1 $440 -2.7922425285857297 $344 12.272533728317114 $343 $483 forward 7 unknown #
vertex $-1 $439 $484 #
straight-curve $-1 -50.830565189348277 -1.9479030712799617 96.11242761086217 0.81915203911291934 0 -0.57357644374324357 I I #
point $-1 79.633777886288044 -1.9479030712799617 4.7603093671492758 #
point $-1 64.748398173255126 -17.012679328182806 15.183164651517671 #
straight-curve $-1 79.633777886288044 0 15.183164651517659 0 1 0 I I #
vertex $-1 $350 $485 #
point $-1 72.073318605982394 -12.708457540496276 8.0600980715724795 #
vertex $-1 $354 $486 #
point $-1 72.073318605982394 -6.2521248589664893 8.0600980715724795 #
edge $-1 $450 39.248291920242494 $453 50.05745989948452 $359 $487 forward 7 unknown #
vertex $-1 $373 $488 #
straight-curve $-1 -99.917264683308673 3.7398508037827121 15.183164651517657 -1 0 0 I I #
edge $-1 $453 -5.6044858234223014 $370 9.3337558627014801 $369 $489 forward 7 unknown #
vertex $-1 $452 $490 #
straight-curve $-1 -79.633777886288073 3.7398508037827121 4.3739966722755952 0.65605901945558964 0 0.75470958851134928 I I #
point $-1 -70.237511754861202 3.7398508037827121 15.183164651517659 #
point $-1 -79.633777886288044 -11.198390882341069 4.3739966722756281 #
straight-curve $-1 -79.633777886288044 0 15.183164651517659 0 -1 0 I I #
vertex $-1 $376 $491 #
point $-1 -67.697651317414355 -3.7292700392791787 6.7992215087361778 #
coedge $-1 $391 $390 $383 $461 forward $380 $-1 #
edge $-1 $462 39.248291920242494 $465 50.05745989948452 $460 $492 forward 7 unknown #
vertex $-1 $395 $493 #
straight-curve $-1 -99.917264683308673 44.913220026398065 15.183164651517657 -1 0 0 I I #
edge $-1 $465 -26.19117043472998 $392 -11.252928748606195 $391 $494 forward 7 unknown #
vertex $-1 $464 $495 #
straight-curve $-1 -79.633777886288073 44.913220026398065 4.3739966722755952 0.65605901945558964 0 0.75470958851134928 I I #
point $-1 -70.237511754861202 44.913220026398065 15.183164651517659 #
point $-1 -79.633777886288044 29.97497834027428 4.3739966722756281 #
straight-curve $-1 -79.633777886288044 0 15.183164651517659 0 -1 0 I I #
vertex $-1 $398 $496 #
point $-1 -67.697651317414355 37.444099183336171 6.7992215087361778 #
straight-curve $-1 -79.633777886288044 48.729786584678884 0 0 0 -1 I I #
point $-1 -79.633777886288044 -48.729786584678884 -15.183164651517659 #
straight-curve $-1 -79.633777886288044 0 -15.183164651517659 0 1 0 I I #
point $-1 -79.633777886288044 48.729786584678884 -15.183164651517659 #
straight-curve $-1 -79.633777886288044 -20.586684611307675 10.234743456794314 0 -1 0 I I #
point $-1 -79.633777886288044 -48.729786584678884 10.234743456794314 #
point $-1 -79.633777886288044 -33.616951860551815 10.234743456794314 #
straight-curve $-1 -79.633777886288044 -33.616951860551815 6.2294770270779933 0 0 -1 I I #
straight-curve $-1 -79.633777886288044 -48.729786584678884 0 0 0 -1 I I #
straight-curve $-1 20.260776527182308 -1.9479030712799617 15.183164651517657 -1 0 0 I I #
point $-1 79.633777886288044 -1.9479030712799617 15.183164651517659 #
straight-curve $-1 64.748398173255126 -4.7401455998656914 15.183164651517664 0 -1 0 I I #
point $-1 64.748398173255126 -1.9479030712799617 15.183164651517671 #
point $-1 70.680590123126237 -12.708457540496276 7.8145224762028027 #
point $-1 70.680590123126237 -6.2521248589664893 7.8145224762028027 #
straight-curve $-1 -79.633777886288044 3.7398508037827121 54.431456571760151 0 0 -1 I I #
point $-1 -79.633777886288044 3.7398508037827121 15.183164651517659 #
straight-curve $-1 -79.633777886288044 -1.8646350196395893 4.3739966722756272 0 -1 0 I I #
point $-1 -79.633777886288044 3.7398508037827121 4.3739966722756281 #
point $-1 -67.451024894774946 -3.7292700392791787 3.2722999888188302 #
straight-curve $-1 -79.633777886288044 44.913220026398065 54.431456571760151 0 0 -1 I I #
point $-1 -79.633777886288044 44.913220026398065 15.183164651517659 #
straight-curve $-1 -79.633777886288044 18.722049591668085 4.3739966722756272 0 -1 0 I I #
point $-1 -79.633777886288044 44.913220026398065 4.3739966722756281 #
point $-1 -67.451024894774946 37.444099183336171 3.2722999888188302 #
End-of-ACIS-data 