500 0 11 0           
7 Unknown 11 ACIS 5.0 NT 24 Fri Mar 26 19:24:24 1999 
-1 9.9999999999999995e-007 1e-010 
body $-1 $11 $-1 $12 #
body $-1 $13 $-1 $14 #
body $-1 $15 $-1 $16 #
body $-1 $17 $-1 $18 #
body $-1 $19 $-1 $20 #
body $-1 $21 $-1 $22 #
body $-1 $23 $-1 $24 #
body $-1 $25 $-1 $26 #
body $-1 $27 $-1 $28 #
body $-1 $29 $-1 $30 #
body $-1 $31 $-1 $32 #
lump $-1 $-1 $33 $0 #
transform $-1 1 0 0 0 1 0 0 0 1 45.428632465590383 18.30829206287893 7.0419344623211071 1 rotate no_reflect no_shear #
lump $-1 $-1 $34 $1 #
transform $-1 1 0 0 0 1 0 0 0 1 45.428632465590383 18.30829206287893 7.0419344623211071 1 rotate no_reflect no_shear #
lump $-1 $-1 $35 $2 #
transform $-1 1 0 0 0 1 0 0 0 1 45.428632465590383 18.30829206287893 7.0419344623211071 1 rotate no_reflect no_shear #
lump $-1 $-1 $36 $3 #
transform $-1 1 0 0 0 1 0 0 0 1 45.428632465590383 18.30829206287893 7.0419344623211071 1 rotate no_reflect no_shear #
lump $-1 $-1 $37 $4 #
transform $-1 1 0 0 0 1 0 0 0 1 45.428632465590383 18.30829206287893 7.0419344623211071 1 rotate no_reflect no_shear #
lump $-1 $-1 $38 $5 #
transform $-1 1 0 0 0 1 0 0 0 1 45.428632465590383 18.30829206287893 7.0419344623211071 1 rotate no_reflect no_shear #
lump $-1 $-1 $39 $6 #
transform $-1 1 0 0 0 1 0 0 0 1 45.428632465590383 18.30829206287893 7.0419344623211071 1 rotate no_reflect no_shear #
lump $-1 $-1 $40 $7 #
transform $-1 1 0 0 0 1 0 0 0 1 45.428632465590383 18.30829206287893 7.0419344623211071 1 rotate no_reflect no_shear #
lump $-1 $-1 $41 $8 #
transform $-1 1 0 0 0 1 0 0 0 1 45.428632465590383 18.30829206287893 7.0419344623211071 1 rotate no_reflect no_shear #
lump $-1 $-1 $42 $9 #
transform $-1 1 0 0 0 1 0 0 0 1 45.428632465590383 18.30829206287893 7.0419344623211071 1 rotate no_reflect no_shear #
lump $-1 $-1 $43 $10 #
transform $-1 1 0 0 0 1 0 0 0 1 45.428632465590383 18.30829206287893 7.0419344623211071 1 rotate no_reflect no_shear #
shell $-1 $-1 $-1 $44 $-1 $11 #
shell $-1 $-1 $-1 $45 $-1 $13 #
shell $-1 $-1 $-1 $46 $-1 $15 #
shell $-1 $-1 $-1 $47 $-1 $17 #
shell $-1 $-1 $-1 $48 $-1 $19 #
shell $-1 $-1 $-1 $49 $-1 $21 #
shell $-1 $-1 $-1 $50 $-1 $23 #
shell $-1 $-1 $-1 $51 $-1 $25 #
shell $-1 $-1 $-1 $52 $-1 $27 #
shell $-1 $-1 $-1 $53 $-1 $29 #
shell $-1 $-1 $-1 $54 $-1 $31 #
face $-1 $55 $56 $33 $-1 $57 forward single #
face $-1 $58 $59 $34 $-1 $60 forward single #
face $-1 $61 $62 $35 $-1 $63 reversed single #
face $-1 $64 $65 $36 $-1 $66 forward single #
face $-1 $67 $68 $37 $-1 $69 reversed single #
face $-1 $70 $71 $38 $-1 $72 forward single #
face $-1 $73 $74 $39 $-1 $75 reversed single #
face $-1 $76 $77 $40 $-1 $78 forward single #
face $-1 $79 $80 $41 $-1 $81 reversed single #
face $-1 $82 $83 $42 $-1 $84 forward single #
face $-1 $85 $86 $43 $-1 $87 forward single #
face $-1 $88 $89 $33 $-1 $90 reversed single #
loop $-1 $-1 $91 $44 #
plane-surface $-1 0 0 7.0419344623211071 0 0 1 1 0 0 forward_v I I I I #
face $-1 $92 $93 $34 $-1 $94 reversed single #
loop $-1 $-1 $95 $45 #
plane-surface $-1 0 -18.30829206287893 0 0 1 0 0 0 1 forward_v I I I I #
face $-1 $96 $97 $35 $-1 $98 reversed single #
loop $-1 $-1 $99 $46 #
plane-surface $-1 23.1163055364553 -2.298138447351838 128.20305029571222 0 -1 0 -0.57357644374324357 0 -0.81915203911291934 forward_v I I I I #
face $-1 $100 $101 $36 $-1 $102 forward single #
loop $-1 $103 $104 $47 #
cone-surface $-1 41.011716756123057 -4.9745368819769951 3.5296275789378528 -0.57357644374324357 0 -0.81915203911291934 0.81915203911291934 0 -0.57357644374324357 1 I I 0 1 1 forward I I I I #
face $-1 $105 $106 $37 $-1 $107 reversed single #
loop $-1 $-1 $108 $48 #
plane-surface $-1 23.1163055364553 7.0054343422026948 128.20305029571222 0 -1 0 -0.57357644374324357 0 -0.81915203911291934 forward_v I I I I #
face $-1 $109 $110 $38 $-1 $111 forward single #
loop $-1 $112 $113 $49 #
cone-surface $-1 41.011716756123057 4.3290359075775378 3.5296275789378528 -0.57357644374324357 0 -0.81915203911291934 0.81915203911291934 0 -0.57357644374324357 1 I I 0 1 1 forward I I I I #
face $-1 $114 $115 $39 $-1 $116 reversed single #
loop $-1 $-1 $117 $50 #
plane-surface $-1 23.1163055364553 16.30900713175723 128.20305029571222 0 -1 0 -0.57357644374324357 0 -0.81915203911291934 forward_v I I I I #
face $-1 $118 $119 $40 $-1 $120 forward single #
loop $-1 $121 $122 $51 #
cone-surface $-1 41.011716756123057 13.632608697132074 3.5296275789378528 -0.57357644374324357 0 -0.81915203911291934 0.81915203911291934 0 -0.57357644374324357 1 I I 0 1 1 forward I I I I #
face $-1 $123 $124 $41 $-1 $125 reversed single #
loop $-1 $-1 $126 $52 #
plane-surface $-1 -100.10790015591164 -4.7879068752810605 76.295140814898602 0 1 0 -0.6018150307709319 0 0.79863550430605224 forward_v I I I I #
face $-1 $127 $128 $42 $-1 $129 forward single #
loop $-1 $130 $131 $53 #
cone-surface $-1 -42.932374013214115 -2.9401071597625279 4.9883010873657598 0.6018150307709319 0 -0.79863550430605224 0.19965887607651306 0 0.15045375769273298 1 I I 0 1 0.25 forward I I I I #
face $-1 $132 $133 $43 $-1 $134 forward single #
loop $-1 $135 $136 $54 #
cone-surface $-1 -42.932374013214115 -0.16840758648472587 4.9883010873657598 0.6018150307709319 0 -0.79863550430605224 0.19965887607651306 0 0.15045375769273298 1 I I 0 1 0.25 forward I I I I #
face $-1 $137 $138 $33 $-1 $139 reversed single #
loop $-1 $-1 $140 $55 #
plane-surface $-1 0 0 -7.0419344623211071 0 0 1 1 0 0 forward_v I I I I #
coedge $-1 $141 $142 $143 $144 forward $56 $-1 #
face $-1 $145 $146 $34 $-1 $147 reversed single #
loop $-1 $-1 $148 $58 #
plane-surface $-1 0 0 -7.0419344623211071 0 0 1 1 0 0 forward_v I I I I #
coedge $-1 $149 $150 $151 $152 forward $59 $-1 #
face $-1 $153 $154 $35 $-1 $155 reversed single #
loop $-1 $-1 $156 $61 #
plane-surface $-1 -28.99728137100908 -4.9745368819769951 53.777136459112754 0.57357644374324357 0 0.81915203911291934 0.81915203911291934 0 -0.57357644374324357 forward_v I I I I #
coedge $-1 $157 $158 $159 $160 reversed $62 $-1 #
face $-1 $-1 $161 $36 $-1 $162 forward single #
loop $-1 $163 $164 $64 #
cone-surface $-1 40.148577595854022 -4.9745368819769951 2.2969371313345039 -0.57357644374324357 0 -0.81915203911291934 0.40957601955645967 0 -0.28678822187162178 1 I I -0.70710678118654746 0.70710678118654746 0.5 forward I I I I #
loop $-1 $-1 $165 $47 #
coedge $-1 $104 $104 $166 $167 reversed $65 $-1 #
face $-1 $168 $169 $37 $-1 $170 reversed single #
loop $-1 $-1 $171 $67 #
plane-surface $-1 -28.99728137100908 4.3290359075775378 53.777136459112754 0.57357644374324357 0 0.81915203911291934 0.81915203911291934 0 -0.57357644374324357 forward_v I I I I #
coedge $-1 $172 $173 $174 $175 reversed $68 $-1 #
face $-1 $-1 $176 $38 $-1 $177 forward single #
loop $-1 $178 $179 $70 #
cone-surface $-1 40.148577595854022 4.3290359075775378 2.2969371313345039 -0.57357644374324357 0 -0.81915203911291934 0.40957601955645967 0 -0.28678822187162178 1 I I -0.70710678118654746 0.70710678118654746 0.5 forward I I I I #
loop $-1 $-1 $180 $49 #
coedge $-1 $113 $113 $181 $182 reversed $71 $-1 #
face $-1 $183 $184 $39 $-1 $185 reversed single #
loop $-1 $-1 $186 $73 #
plane-surface $-1 -28.99728137100908 13.632608697132074 53.777136459112754 0.57357644374324357 0 0.81915203911291934 0.81915203911291934 0 -0.57357644374324357 forward_v I I I I #
coedge $-1 $187 $188 $189 $190 reversed $74 $-1 #
face $-1 $-1 $191 $40 $-1 $192 forward single #
loop $-1 $193 $194 $76 #
cone-surface $-1 40.148577595854022 13.632608697132074 2.2969371313345039 -0.57357644374324357 0 -0.81915203911291934 0.40957601955645967 0 -0.28678822187162178 1 I I -0.70710678118654746 0.70710678118654746 0.5 forward I I I I #
loop $-1 $-1 $195 $51 #
coedge $-1 $122 $122 $196 $197 reversed $77 $-1 #
face $-1 $198 $199 $41 $-1 $200 reversed single #
loop $-1 $-1 $201 $79 #
plane-surface $-1 -45.428632465590375 -1.554257373123626 3.7333032167164504 -0.6018150307709319 0 0.79863550430605224 0.79863550430605224 0 0.6018150307709319 forward_v I I I I #
coedge $-1 $202 $203 $204 $205 reversed $80 $-1 #
face $-1 $-1 $206 $42 $-1 $207 forward single #
loop $-1 $208 $209 $82 #
cone-surface $-1 -42.556239618982282 -2.9401071597625279 4.4891538971744769 0.6018150307709319 0 -0.79863550430605224 0.099829438038256529 0 0.075226878846366488 1 I I -0.70710678118654746 0.70710678118654746 0.125 forward I I I I #
loop $-1 $-1 $210 $53 #
coedge $-1 $131 $131 $211 $212 reversed $83 $-1 #
face $-1 $-1 $213 $43 $-1 $214 forward single #
loop $-1 $215 $216 $85 #
cone-surface $-1 -42.556239618982282 -0.16840758648472587 4.4891538971744769 0.6018150307709319 0 -0.79863550430605224 0.099829438038256529 0 0.075226878846366488 1 I I -0.70710678118654746 0.70710678118654746 0.125 forward I I I I #
loop $-1 $-1 $217 $54 #
coedge $-1 $136 $136 $218 $219 reversed $86 $-1 #
face $-1 $220 $221 $33 $-1 $222 reversed single #
loop $-1 $-1 $223 $88 #
plane-surface $-1 0 -18.30829206287893 0 0 1 0 0 0 1 forward_v I I I I #
coedge $-1 $224 $225 $226 $227 forward $89 $-1 #
coedge $-1 $228 $91 $229 $230 forward $56 $-1 #
coedge $-1 $91 $228 $231 $232 forward $56 $-1 #
coedge $-1 $233 $234 $91 $144 reversed $235 $-1 #
edge $-1 $236 -18.30829206287893 $237 18.30829206287893 $143 $238 forward 7 unknown #
face $-1 $239 $240 $34 $-1 $241 forward single #
loop $-1 $-1 $242 $92 #
plane-surface $-1 45.428632465590383 0 0 -1 0 0 0 0 1 forward_v I I I I #
coedge $-1 $243 $244 $245 $246 forward $93 $-1 #
coedge $-1 $245 $95 $242 $247 reversed $59 $-1 #
coedge $-1 $95 $245 $248 $249 reversed $59 $-1 #
coedge $-1 $250 $251 $95 $152 reversed $240 $-1 #
edge $-1 $252 -45.428632465590383 $253 45.428632465590383 $151 $254 forward 7 unknown #
face $-1 $255 $256 $35 $-1 $257 reversed single #
loop $-1 $-1 $258 $96 #
plane-surface $-1 23.1163055364553 -7.6509353166021521 128.20305029571222 0 1 0 0.57357644374324357 0 0.81915203911291934 forward_v I I I I #
coedge $-1 $259 $260 $261 $262 reversed $97 $-1 #
coedge $-1 $158 $99 $263 $264 reversed $62 $-1 #
coedge $-1 $99 $157 $259 $265 reversed $62 $-1 #
coedge $-1 $261 $266 $99 $160 forward $267 $-1 #
edge $-1 $268 -33.870479697362732 $269 -26.189350155222904 $159 $270 forward 7 unknown #
loop $-1 $-1 $166 $100 #
plane-surface $-1 -28.99728137100908 -4.9745368819769951 53.777136459112754 0.57357644374324357 0 0.81915203911291934 0.81915203911291934 0 -0.57357644374324357 forward_v I I I I #
loop $-1 $-1 $271 $64 #
coedge $-1 $164 $164 $165 $272 reversed $101 $-1 #
coedge $-1 $165 $165 $164 $272 forward $103 $-1 #
coedge $-1 $166 $166 $104 $167 forward $161 $-1 #
edge $-1 $273 0 $273 6.2831853071796004 $166 $274 forward 7 unknown #
face $-1 $275 $276 $37 $-1 $277 reversed single #
loop $-1 $-1 $278 $105 #
plane-surface $-1 23.1163055364553 1.6526374729523807 128.20305029571222 0 1 0 0.57357644374324357 0 0.81915203911291934 forward_v I I I I #
coedge $-1 $279 $280 $281 $282 reversed $106 $-1 #
coedge $-1 $173 $108 $283 $284 reversed $68 $-1 #
coedge $-1 $108 $172 $279 $285 reversed $68 $-1 #
coedge $-1 $281 $286 $108 $175 forward $287 $-1 #
edge $-1 $288 -33.870479697362732 $289 -26.189350155222904 $174 $290 forward 7 unknown #
loop $-1 $-1 $181 $109 #
plane-surface $-1 -28.99728137100908 4.3290359075775378 53.777136459112754 0.57357644374324357 0 0.81915203911291934 0.81915203911291934 0 -0.57357644374324357 forward_v I I I I #
loop $-1 $-1 $291 $70 #
coedge $-1 $179 $179 $180 $292 reversed $110 $-1 #
coedge $-1 $180 $180 $179 $292 forward $112 $-1 #
coedge $-1 $181 $181 $113 $182 forward $176 $-1 #
edge $-1 $293 0 $293 6.2831853071796004 $181 $294 forward 7 unknown #
face $-1 $295 $296 $39 $-1 $297 reversed single #
loop $-1 $-1 $298 $114 #
plane-surface $-1 23.1163055364553 10.956210262506918 128.20305029571222 0 1 0 0.57357644374324357 0 0.81915203911291934 forward_v I I I I #
coedge $-1 $299 $300 $301 $302 reversed $115 $-1 #
coedge $-1 $188 $117 $303 $304 reversed $74 $-1 #
coedge $-1 $117 $187 $299 $305 reversed $74 $-1 #
coedge $-1 $301 $306 $117 $190 forward $307 $-1 #
edge $-1 $308 -33.870479697362732 $309 -26.189350155222904 $189 $310 forward 7 unknown #
loop $-1 $-1 $196 $118 #
plane-surface $-1 -28.99728137100908 13.632608697132074 53.777136459112754 0.57357644374324357 0 0.81915203911291934 0.81915203911291934 0 -0.57357644374324357 forward_v I I I I #
loop $-1 $-1 $311 $76 #
coedge $-1 $194 $194 $195 $312 reversed $119 $-1 #
coedge $-1 $195 $195 $194 $312 forward $121 $-1 #
coedge $-1 $196 $196 $122 $197 forward $191 $-1 #
edge $-1 $313 0 $313 6.2831853071796004 $196 $314 forward 7 unknown #
face $-1 $315 $316 $41 $-1 $317 forward single #
loop $-1 $-1 $318 $123 #
plane-surface $-1 -100.10790015591164 1.6793921290338085 76.295140814898602 0 -1 0 0.6018150307709319 0 -0.79863550430605224 forward_v I I I I #
coedge $-1 $319 $320 $321 $322 reversed $124 $-1 #
coedge $-1 $203 $126 $323 $324 reversed $80 $-1 #
coedge $-1 $126 $202 $319 $325 reversed $80 $-1 #
coedge $-1 $321 $326 $126 $205 forward $316 $-1 #
edge $-1 $327 4.6253176123654356 $328 9.0160194863470622 $204 $329 forward 7 unknown #
loop $-1 $-1 $211 $127 #
plane-surface $-1 -45.428632465590375 -1.554257373123626 3.7333032167164504 -0.6018150307709319 0 0.79863550430605224 0.79863550430605224 0 0.6018150307709319 forward_v I I I I #
loop $-1 $-1 $330 $82 #
coedge $-1 $209 $209 $210 $331 reversed $128 $-1 #
coedge $-1 $210 $210 $209 $331 forward $130 $-1 #
coedge $-1 $211 $211 $131 $212 forward $206 $-1 #
edge $-1 $332 0 $332 6.2831853071796004 $211 $333 forward 7 unknown #
loop $-1 $-1 $218 $132 #
plane-surface $-1 -45.428632465590375 -1.554257373123626 3.7333032167164504 -0.6018150307709319 0 0.79863550430605224 0.79863550430605224 0 0.6018150307709319 forward_v I I I I #
loop $-1 $-1 $334 $85 #
coedge $-1 $216 $216 $217 $335 reversed $133 $-1 #
coedge $-1 $217 $217 $216 $335 forward $135 $-1 #
coedge $-1 $218 $218 $136 $219 forward $213 $-1 #
edge $-1 $336 0 $336 6.2831853071796004 $218 $337 forward 7 unknown #
face $-1 $338 $339 $33 $-1 $340 reversed single #
loop $-1 $-1 $341 $137 #
plane-surface $-1 -45.428632465590383 0 0 1 0 0 0 0 -1 forward_v I I I I #
coedge $-1 $342 $231 $343 $344 forward $138 $-1 #
coedge $-1 $345 $140 $342 $346 forward $89 $-1 #
coedge $-1 $140 $345 $347 $348 forward $89 $-1 #
coedge $-1 $234 $233 $140 $227 reversed $235 $-1 #
edge $-1 $349 -18.30829206287893 $350 18.30829206287893 $226 $351 forward 7 unknown #
coedge $-1 $142 $141 $352 $353 forward $56 $-1 #
coedge $-1 $354 $355 $141 $230 reversed $339 $-1 #
edge $-1 $237 -45.428632465590383 $356 45.428632465590383 $229 $357 forward 7 unknown #
coedge $-1 $223 $358 $142 $232 reversed $138 $-1 #
edge $-1 $359 -45.428632465590383 $236 45.428632465590383 $231 $360 forward 7 unknown #
coedge $-1 $226 $143 $358 $361 forward $235 $-1 #
coedge $-1 $143 $226 $354 $362 reversed $235 $-1 #
loop $-1 $-1 $233 $338 #
vertex $-1 $144 $363 #
vertex $-1 $144 $364 #
straight-curve $-1 45.428632465590383 0 7.0419344623211071 0 1 0 I I #
face $-1 $365 $366 $34 $-1 $367 reversed single #
loop $-1 $-1 $251 $145 #
plane-surface $-1 0 -22.66122494142606 -2.8341384598927526 0 0 1 1 0 0 forward_v I I I I #
coedge $-1 $368 $369 $149 $247 forward $146 $-1 #
coedge $-1 $370 $148 $369 $371 forward $93 $-1 #
coedge $-1 $148 $370 $372 $373 forward $93 $-1 #
coedge $-1 $150 $149 $148 $246 reversed $59 $-1 #
edge $-1 $374 -45.428632465590383 $375 45.428632465590383 $148 $376 forward 7 unknown #
edge $-1 $375 -7.0419344623211071 $253 -2.8341384598927526 $242 $377 forward 7 unknown #
coedge $-1 $372 $378 $150 $249 forward $379 $-1 #
edge $-1 $252 2.8341384598927526 $374 7.0419344623211071 $248 $380 forward 7 unknown #
coedge $-1 $381 $151 $378 $382 forward $240 $-1 #
coedge $-1 $151 $381 $368 $383 forward $240 $-1 #
vertex $-1 $249 $384 #
vertex $-1 $383 $385 #
straight-curve $-1 0 -18.30829206287893 -2.8341384598927526 1 0 0 I I #
face $-1 $-1 $267 $35 $-1 $386 forward single #
loop $-1 $-1 $387 $153 #
plane-surface $-1 45.428632465590383 0 0 -1 0 0 0 0 1 forward_v I I I I #
coedge $-1 $388 $389 $390 $391 reversed $154 $-1 #
coedge $-1 $392 $156 $158 $265 forward $97 $-1 #
coedge $-1 $156 $392 $388 $393 forward $97 $-1 #
coedge $-1 $390 $159 $156 $262 forward $267 $-1 #
edge $-1 $269 -0.1891299936366595 $394 5.1636668756136546 $261 $395 forward 7 unknown #
coedge $-1 $396 $397 $157 $264 forward $256 $-1 #
edge $-1 $398 -62.437975596207735 $268 -57.059590685534999 $263 $399 forward 7 unknown #
edge $-1 $269 81.480337113900447 $398 90.857264931180765 $158 $400 forward 7 unknown #
coedge $-1 $159 $390 $396 $401 forward $267 $-1 #
loop $-1 $-1 $390 $255 #
vertex $-1 $264 $402 #
vertex $-1 $160 $403 #
straight-curve $-1 11.55815276822765 -2.298138447351838 7.0419344623211089 -1 0 0 I I #
coedge $-1 $271 $271 $-1 $404 reversed $163 $-1 #
edge $-1 $405 0 $405 6.2831853071796004 $164 $406 forward 7 unknown #
vertex $-1 $167 $407 #
ellipse-curve $-1 41.588067694520468 -4.9745368819769951 4.3527420069847302 0.57357644374324357 0 0.81915203911291934 0.81915203911291934 0 -0.57357644374324357 1 I I #
face $-1 $-1 $287 $37 $-1 $408 forward single #
loop $-1 $-1 $409 $168 #
plane-surface $-1 45.428632465590383 0 0 -1 0 0 0 0 1 forward_v I I I I #
coedge $-1 $410 $411 $412 $413 reversed $169 $-1 #
coedge $-1 $414 $171 $173 $285 forward $106 $-1 #
coedge $-1 $171 $414 $410 $415 forward $106 $-1 #
coedge $-1 $412 $174 $171 $282 forward $287 $-1 #
edge $-1 $289 -4.8409163884139259 $416 0.51188048083638815 $281 $417 forward 7 unknown #
coedge $-1 $418 $419 $172 $284 forward $276 $-1 #
edge $-1 $420 -62.437975596207735 $288 -57.059590685534999 $283 $421 forward 7 unknown #
edge $-1 $289 81.480337113900447 $420 90.857264931180765 $173 $422 forward 7 unknown #
coedge $-1 $174 $412 $418 $423 forward $287 $-1 #
loop $-1 $-1 $412 $275 #
vertex $-1 $284 $424 #
vertex $-1 $175 $425 #
straight-curve $-1 11.55815276822765 7.0054343422026948 7.0419344623211089 -1 0 0 I I #
coedge $-1 $291 $291 $-1 $426 reversed $178 $-1 #
edge $-1 $427 0 $427 6.2831853071796004 $179 $428 forward 7 unknown #
vertex $-1 $182 $429 #
ellipse-curve $-1 41.588067694520468 4.3290359075775378 4.3527420069847302 0.57357644374324357 0 0.81915203911291934 0.81915203911291934 0 -0.57357644374324357 1 I I #
face $-1 $-1 $307 $39 $-1 $430 forward single #
loop $-1 $-1 $431 $183 #
plane-surface $-1 45.428632465590383 0 0 -1 0 0 0 0 1 forward_v I I I I #
coedge $-1 $432 $433 $434 $435 reversed $184 $-1 #
coedge $-1 $436 $186 $188 $305 forward $115 $-1 #
coedge $-1 $186 $436 $432 $437 forward $115 $-1 #
coedge $-1 $434 $189 $186 $302 forward $307 $-1 #
edge $-1 $309 -9.4927027831911932 $438 -4.1399059139408809 $301 $439 forward 7 unknown #
coedge $-1 $440 $441 $187 $304 forward $296 $-1 #
edge $-1 $442 -62.437975596207735 $308 -57.059590685534999 $303 $443 forward 7 unknown #
edge $-1 $309 81.480337113900447 $442 90.857264931180765 $188 $444 forward 7 unknown #
coedge $-1 $189 $434 $440 $445 forward $307 $-1 #
loop $-1 $-1 $434 $295 #
vertex $-1 $304 $446 #
vertex $-1 $190 $447 #
straight-curve $-1 11.55815276822765 16.30900713175723 7.0419344623211089 -1 0 0 I I #
coedge $-1 $311 $311 $-1 $448 reversed $193 $-1 #
edge $-1 $449 0 $449 6.2831853071796004 $194 $450 forward 7 unknown #
vertex $-1 $197 $451 #
ellipse-curve $-1 41.588067694520468 13.632608697132074 4.3527420069847302 0.57357644374324357 0 0.81915203911291934 0.81915203911291934 0 -0.57357644374324357 1 I I #
face $-1 $-1 $452 $41 $-1 $453 reversed single #
loop $-1 $-1 $204 $198 #
plane-surface $-1 0 0 7.0419344623211071 0 0 1 1 0 0 forward_v I I I I #
coedge $-1 $454 $455 $456 $457 reversed $199 $-1 #
coedge $-1 $458 $201 $203 $325 forward $124 $-1 #
coedge $-1 $201 $458 $454 $459 forward $124 $-1 #
coedge $-1 $456 $204 $201 $322 forward $316 $-1 #
edge $-1 $328 -4.0107781887192475 $460 2.4565208155956215 $321 $461 forward 7 unknown #
coedge $-1 $462 $463 $202 $324 forward $452 $-1 #
edge $-1 $464 -34.414267190732858 $327 -31.105635945128192 $323 $465 forward 7 unknown #
edge $-1 $328 -5.4977544202680724 $464 8.8817612989391469e-015 $203 $466 forward 7 unknown #
coedge $-1 $204 $456 $462 $467 forward $316 $-1 #
vertex $-1 $324 $468 #
vertex $-1 $205 $469 #
straight-curve $-1 -50.053950077955818 -4.7879068752810605 7.0419344623211089 1 0 0 I I #
coedge $-1 $330 $330 $-1 $470 reversed $208 $-1 #
edge $-1 $471 0 $471 6.2831853071796004 $209 $472 forward 7 unknown #
vertex $-1 $212 $473 #
ellipse-curve $-1 -43.233281528599569 -2.9401071597625279 5.3876188395187743 -0.6018150307709319 0 0.79863550430605224 0.19965887607651306 0 0.15045375769273298 1 I I #
coedge $-1 $334 $334 $-1 $474 reversed $215 $-1 #
edge $-1 $475 0 $475 6.2831853071796004 $216 $476 forward 7 unknown #
vertex $-1 $219 $477 #
ellipse-curve $-1 -43.233281528599569 -0.16840758648472587 5.3876188395187743 -0.6018150307709319 0 0.79863550430605224 0.19965887607651306 0 0.15045375769273298 1 I I #
face $-1 $-1 $235 $33 $-1 $478 reversed single #
loop $-1 $-1 $354 $220 #
plane-surface $-1 0 18.30829206287893 0 0 -1 0 0 0 -1 forward_v I I I I #
coedge $-1 $479 $352 $355 $480 forward $221 $-1 #
coedge $-1 $358 $223 $224 $346 reversed $138 $-1 #
coedge $-1 $352 $479 $223 $344 reversed $221 $-1 #
edge $-1 $359 -7.0419344623211071 $481 7.0419344623211071 $343 $482 forward 7 unknown #
coedge $-1 $225 $224 $479 $483 forward $89 $-1 #
edge $-1 $350 -45.428632465590383 $481 45.428632465590383 $342 $484 forward 7 unknown #
coedge $-1 $355 $354 $225 $348 reversed $339 $-1 #
edge $-1 $485 -45.428632465590383 $349 45.428632465590383 $347 $486 forward 7 unknown #
vertex $-1 $227 $487 #
vertex $-1 $361 $488 #
straight-curve $-1 45.428632465590383 0 -7.0419344623211071 0 -1 0 I I #
coedge $-1 $341 $343 $228 $353 reversed $221 $-1 #
edge $-1 $356 -18.30829206287893 $359 18.30829206287893 $352 $489 forward 7 unknown #
coedge $-1 $347 $229 $234 $362 forward $339 $-1 #
coedge $-1 $229 $347 $341 $480 reversed $339 $-1 #
vertex $-1 $230 $490 #
straight-curve $-1 0 18.30829206287893 7.0419344623211071 -1 0 0 I I #
coedge $-1 $231 $342 $233 $361 reversed $138 $-1 #
vertex $-1 $353 $491 #
straight-curve $-1 0 -18.30829206287893 7.0419344623211071 1 0 0 I I #
edge $-1 $236 -7.0419344623211071 $350 7.0419344623211071 $233 $492 forward 7 unknown #
edge $-1 $237 -7.0419344623211071 $349 7.0419344623211071 $234 $493 forward 7 unknown #
point $-1 45.428632465590383 -18.30829206287893 7.0419344623211071 #
point $-1 45.428632465590383 18.30829206287893 7.0419344623211071 #
face $-1 $-1 $379 $34 $-1 $494 reversed single #
loop $-1 $-1 $495 $239 #
plane-surface $-1 0 -27.014157819973189 -4.9380364611069298 0 1 0 0 0 1 forward_v I I I I #
coedge $-1 $496 $242 $251 $383 reversed $146 $-1 #
coedge $-1 $242 $496 $243 $371 reversed $146 $-1 #
coedge $-1 $244 $243 $497 $498 forward $93 $-1 #
edge $-1 $375 18.30829206287893 $499 27.014157819973189 $369 $500 forward 7 unknown #
coedge $-1 $501 $248 $244 $373 reversed $379 $-1 #
edge $-1 $502 -27.014157819973189 $374 -18.30829206287893 $372 $503 forward 7 unknown #
vertex $-1 $249 $504 #
vertex $-1 $371 $505 #
straight-curve $-1 0 -18.30829206287893 -7.0419344623211071 1 0 0 I I #
straight-curve $-1 45.428632465590383 -18.30829206287893 0 0 0 1 I I #
coedge $-1 $248 $501 $250 $382 reversed $379 $-1 #
loop $-1 $-1 $248 $365 #
straight-curve $-1 -45.428632465590383 -18.30829206287893 0 0 0 -1 I I #
coedge $-1 $251 $250 $506 $507 forward $240 $-1 #
edge $-1 $252 -4.3529328785471293 $508 4.3529328785471293 $378 $509 forward 7 unknown #
edge $-1 $510 -4.3529328785471293 $253 4.3529328785471293 $368 $511 forward 7 unknown #
point $-1 -45.428632465590383 -18.30829206287893 -2.8341384598927526 #
point $-1 45.428632465590383 -18.30829206287893 -2.8341384598927526 #
plane-surface $-1 0 0 7.0419344623211071 0 0 1 1 0 0 forward_v I I I I #
coedge $-1 $397 $396 $389 $512 forward $256 $-1 #
coedge $-1 $389 $258 $260 $393 reversed $154 $-1 #
coedge $-1 $258 $388 $387 $512 reversed $154 $-1 #
coedge $-1 $266 $261 $258 $391 forward $267 $-1 #
edge $-1 $394 26.189350155222904 $513 33.870479697362732 $390 $514 forward 7 unknown #
coedge $-1 $260 $259 $397 $515 reversed $97 $-1 #
edge $-1 $516 -90.857264931180765 $394 -81.480337113900447 $388 $517 forward 7 unknown #
vertex $-1 $262 $518 #
straight-curve $-1 37.74750292345054 -2.4872684409884975 7.041934462321116 0 -1 0 I I #
coedge $-1 $387 $263 $266 $401 reversed $256 $-1 #
coedge $-1 $263 $387 $392 $515 forward $256 $-1 #
vertex $-1 $264 $519 #
straight-curve $-1 45.428632465590383 -2.298138447351838 64.101525147856108 0 0 1 I I #
straight-curve $-1 -28.99728137100908 -2.298138447351838 53.777136459112754 0.81915203911291934 0 -0.57357644374324357 I I #
edge $-1 $513 -7.6509353166021521 $268 -2.298138447351838 $396 $520 forward 7 unknown #
point $-1 45.428632465590383 -2.298138447351838 7.0419344623211071 #
point $-1 37.747502923450554 -2.298138447351838 7.041934462321116 #
edge $-1 $521 1 $521 0 $271 $-1 forward 7 unknown #
vertex $-1 $272 $522 #
ellipse-curve $-1 40.435365817725646 -4.9745368819769951 2.7065131508909634 0.57357644374324357 0 0.81915203911291934 0.81915203911291934 0 -0.57357644374324357 1 I I #
point $-1 42.407219733633397 -4.9745368819769951 3.7791655632414987 #
plane-surface $-1 0 0 7.0419344623211071 0 0 1 1 0 0 forward_v I I I I #
coedge $-1 $419 $418 $411 $523 forward $276 $-1 #
coedge $-1 $411 $278 $280 $415 reversed $169 $-1 #
coedge $-1 $278 $410 $409 $523 reversed $169 $-1 #
coedge $-1 $286 $281 $278 $413 forward $287 $-1 #
edge $-1 $416 26.189350155222904 $524 33.870479697362732 $412 $525 forward 7 unknown #
coedge $-1 $280 $279 $419 $526 reversed $106 $-1 #
edge $-1 $527 -90.857264931180765 $416 -81.480337113900447 $410 $528 forward 7 unknown #
vertex $-1 $282 $529 #
straight-curve $-1 37.74750292345054 2.1645179537887689 7.041934462321116 0 -1 0 I I #
coedge $-1 $409 $283 $286 $423 reversed $276 $-1 #
coedge $-1 $283 $409 $414 $526 forward $276 $-1 #
vertex $-1 $284 $530 #
straight-curve $-1 45.428632465590383 7.0054343422026948 64.101525147856108 0 0 1 I I #
straight-curve $-1 -28.99728137100908 7.0054343422026948 53.777136459112754 0.81915203911291934 0 -0.57357644374324357 I I #
edge $-1 $524 1.6526374729523807 $288 7.0054343422026948 $418 $531 forward 7 unknown #
point $-1 45.428632465590383 7.0054343422026948 7.0419344623211071 #
point $-1 37.747502923450554 7.0054343422026948 7.041934462321116 #
edge $-1 $532 1 $532 0 $291 $-1 forward 7 unknown #
vertex $-1 $292 $533 #
ellipse-curve $-1 40.435365817725646 4.3290359075775378 2.7065131508909634 0.57357644374324357 0 0.81915203911291934 0.81915203911291934 0 -0.57357644374324357 1 I I #
point $-1 42.407219733633397 4.3290359075775378 3.7791655632414987 #
plane-surface $-1 0 0 7.0419344623211071 0 0 1 1 0 0 forward_v I I I I #
coedge $-1 $441 $440 $433 $534 forward $296 $-1 #
coedge $-1 $433 $298 $300 $437 reversed $184 $-1 #
coedge $-1 $298 $432 $431 $534 reversed $184 $-1 #
coedge $-1 $306 $301 $298 $435 forward $307 $-1 #
edge $-1 $438 26.189350155222904 $535 33.870479697362732 $434 $536 forward 7 unknown #
coedge $-1 $300 $299 $441 $537 reversed $115 $-1 #
edge $-1 $538 -90.857264931180765 $438 -81.480337113900447 $432 $539 forward 7 unknown #
vertex $-1 $302 $540 #
straight-curve $-1 37.74750292345054 6.8163043485660371 7.041934462321116 0 -1 0 I I #
coedge $-1 $431 $303 $306 $445 reversed $296 $-1 #
coedge $-1 $303 $431 $436 $537 forward $296 $-1 #
vertex $-1 $304 $541 #
straight-curve $-1 45.428632465590383 16.30900713175723 64.101525147856108 0 0 1 I I #
straight-curve $-1 -28.99728137100908 16.30900713175723 53.777136459112754 0.81915203911291934 0 -0.57357644374324357 I I #
edge $-1 $535 10.956210262506918 $308 16.30900713175723 $440 $542 forward 7 unknown #
point $-1 45.428632465590383 16.30900713175723 7.0419344623211071 #
point $-1 37.747502923450554 16.30900713175723 7.041934462321116 #
edge $-1 $543 1 $543 0 $311 $-1 forward 7 unknown #
vertex $-1 $312 $544 #
ellipse-curve $-1 40.435365817725646 13.632608697132074 2.7065131508909634 0.57357644374324357 0 0.81915203911291934 0.81915203911291934 0 -0.57357644374324357 1 I I #
point $-1 42.407219733633397 13.632608697132074 3.7791655632414987 #
loop $-1 $-1 $323 $315 #
plane-surface $-1 -45.428632465590383 0 0 1 0 0 0 0 -1 forward_v I I I I #
coedge $-1 $455 $318 $320 $459 reversed $199 $-1 #
coedge $-1 $318 $454 $545 $546 reversed $199 $-1 #
coedge $-1 $326 $321 $318 $457 forward $316 $-1 #
edge $-1 $460 -9.0160194863470622 $547 -4.6253176123654356 $456 $548 forward 7 unknown #
coedge $-1 $320 $319 $463 $549 reversed $124 $-1 #
edge $-1 $550 -8.8817612989391469e-015 $460 5.4977544202680724 $454 $551 forward 7 unknown #
vertex $-1 $322 $552 #
straight-curve $-1 -41.037930591608763 -0.777128686561813 7.0419344623211071 0 1 0 I I #
coedge $-1 $545 $323 $326 $467 reversed $452 $-1 #
coedge $-1 $323 $545 $458 $549 forward $452 $-1 #
vertex $-1 $324 $553 #
straight-curve $-1 -45.428632465590383 -4.7879068752810605 38.147570407449301 0 0 1 I I #
straight-curve $-1 -45.428632465590375 -4.7879068752810605 3.7333032167164504 -0.79863550430605224 0 -0.6018150307709319 I I #
edge $-1 $547 -1.6793921290338085 $327 4.7879068752810605 $462 $554 forward 7 unknown #
point $-1 -45.428632465590383 -4.7879068752810605 7.0419344623211071 #
point $-1 -41.037930591608756 -4.7879068752810605 7.0419344623211071 #
edge $-1 $555 1 $555 0 $330 $-1 forward 7 unknown #
vertex $-1 $331 $556 #
ellipse-curve $-1 -42.631466497828647 -2.9401071597625279 4.5889833352127338 -0.6018150307709319 0 0.79863550430605224 0.19965887607651306 0 0.15045375769273298 1 I I #
point $-1 -43.033622652523064 -2.9401071597625279 5.538072597211519 #
edge $-1 $557 1 $557 0 $334 $-1 forward 7 unknown #
vertex $-1 $335 $558 #
ellipse-curve $-1 -42.631466497828647 -0.16840758648472587 4.5889833352127338 -0.6018150307709319 0 0.79863550430605224 0.19965887607651306 0 0.15045375769273298 1 I I #
point $-1 -43.033622652523064 -0.16840758648472587 5.538072597211519 #
plane-surface $-1 45.428632465590383 0 0 -1 0 0 0 0 1 forward_v I I I I #
coedge $-1 $343 $341 $345 $483 reversed $221 $-1 #
edge $-1 $356 -7.0419344623211071 $485 7.0419344623211071 $355 $559 forward 7 unknown #
vertex $-1 $483 $560 #
straight-curve $-1 -45.428632465590383 -18.30829206287893 0 0 0 -1 I I #
edge $-1 $481 -18.30829206287893 $485 18.30829206287893 $479 $561 forward 7 unknown #
straight-curve $-1 0 -18.30829206287893 -7.0419344623211071 -1 0 0 I I #
vertex $-1 $348 $562 #
straight-curve $-1 0 18.30829206287893 -7.0419344623211071 1 0 0 I I #
point $-1 45.428632465590383 18.30829206287893 -7.0419344623211071 #
point $-1 45.428632465590383 -18.30829206287893 -7.0419344623211071 #
straight-curve $-1 -45.428632465590383 0 7.0419344623211071 0 -1 0 I I #
point $-1 -45.428632465590383 18.30829206287893 7.0419344623211071 #
point $-1 -45.428632465590383 -18.30829206287893 7.0419344623211071 #
straight-curve $-1 45.428632465590383 -18.30829206287893 0 0 0 -1 I I #
straight-curve $-1 45.428632465590383 18.30829206287893 0 0 0 -1 I I #
plane-surface $-1 -45.428632465590383 0 0 1 0 0 0 0 -1 forward_v I I I I #
coedge $-1 $497 $506 $501 $563 forward $366 $-1 #
coedge $-1 $369 $368 $564 $565 forward $146 $-1 #
coedge $-1 $564 $495 $370 $498 reversed $366 $-1 #
edge $-1 $499 -45.428632465590383 $502 45.428632465590383 $497 $566 forward 7 unknown #
vertex $-1 $565 $567 #
straight-curve $-1 45.428632465590383 0 -7.0419344623211071 0 -1 0 I I #
coedge $-1 $378 $372 $495 $563 reversed $379 $-1 #
vertex $-1 $373 $568 #
straight-curve $-1 -45.428632465590383 0 -7.0419344623211071 0 1 0 I I #
point $-1 -45.428632465590383 -18.30829206287893 -7.0419344623211071 #
point $-1 45.428632465590383 -18.30829206287893 -7.0419344623211071 #
coedge $-1 $495 $564 $381 $507 reversed $366 $-1 #
edge $-1 $508 -45.428632465590383 $510 45.428632465590383 $506 $569 forward 7 unknown #
vertex $-1 $382 $570 #
straight-curve $-1 -45.428632465590383 -22.66122494142606 -2.8341384598927526 0 -1 0 I I #
vertex $-1 $383 $571 #
straight-curve $-1 45.428632465590383 -22.66122494142606 -2.8341384598927526 0 1 0 I I #
edge $-1 $513 57.059590685534999 $516 62.437975596207735 $387 $572 forward 7 unknown #
vertex $-1 $401 $573 #
straight-curve $-1 11.55815276822765 -7.6509353166021521 7.0419344623211089 1 0 0 I I #
edge $-1 $516 -5.1636668756136546 $398 0.1891299936366595 $397 $574 forward 7 unknown #
vertex $-1 $515 $575 #
straight-curve $-1 -28.99728137100908 -7.6509353166021521 53.777136459112754 -0.81915203911291934 0 0.57357644374324357 I I #
point $-1 37.747502923450554 -7.6509353166021521 7.041934462321116 #
point $-1 45.428632465590383 -2.298138447351838 1.6635495516483729 #
straight-curve $-1 45.428632465590383 0 7.0419344623211071 0 1 0 I I #
vertex $-1 $404 $576 #
point $-1 41.254517856838561 -4.9745368819769951 2.1329367071477199 #
edge $-1 $524 57.059590685534999 $527 62.437975596207735 $409 $577 forward 7 unknown #
vertex $-1 $423 $578 #
straight-curve $-1 11.55815276822765 1.6526374729523807 7.0419344623211089 1 0 0 I I #
edge $-1 $527 -0.51188048083638815 $420 4.8409163884139259 $419 $579 forward 7 unknown #
vertex $-1 $526 $580 #
straight-curve $-1 -28.99728137100908 1.6526374729523807 53.777136459112754 -0.81915203911291934 0 0.57357644374324357 I I #
point $-1 37.747502923450554 1.6526374729523807 7.041934462321116 #
point $-1 45.428632465590383 7.0054343422026948 1.6635495516483729 #
straight-curve $-1 45.428632465590383 0 7.0419344623211071 0 1 0 I I #
vertex $-1 $426 $581 #
point $-1 41.254517856838561 4.3290359075775378 2.1329367071477199 #
edge $-1 $535 57.059590685534999 $538 62.437975596207735 $431 $582 forward 7 unknown #
vertex $-1 $445 $583 #
straight-curve $-1 11.55815276822765 10.956210262506918 7.0419344623211089 1 0 0 I I #
edge $-1 $538 4.1399059139408809 $442 9.4927027831911932 $441 $584 forward 7 unknown #
vertex $-1 $537 $585 #
straight-curve $-1 -28.99728137100908 10.956210262506918 53.777136459112754 -0.81915203911291934 0 0.57357644374324357 I I #
point $-1 37.747502923450554 10.956210262506918 7.041934462321116 #
point $-1 45.428632465590383 16.30900713175723 1.6635495516483729 #
straight-curve $-1 45.428632465590383 0 7.0419344623211071 0 1 0 I I #
vertex $-1 $448 $586 #
point $-1 41.254517856838561 13.632608697132074 2.1329367071477199 #
coedge $-1 $463 $462 $455 $546 forward $452 $-1 #
edge $-1 $547 31.105635945128192 $550 34.414267190732858 $545 $587 forward 7 unknown #
vertex $-1 $467 $588 #
straight-curve $-1 -50.053950077955818 1.6793921290338085 7.0419344623211089 -1 0 0 I I #
edge $-1 $550 -2.4565208155956215 $464 4.0107781887192475 $463 $589 forward 7 unknown #
vertex $-1 $549 $590 #
straight-curve $-1 -45.428632465590375 1.6793921290338085 3.7333032167164504 0.79863550430605224 0 0.6018150307709319 I I #
point $-1 -41.037930591608756 1.6793921290338085 7.0419344623211071 #
point $-1 -45.428632465590383 -4.7879068752810605 3.733303216716445 #
straight-curve $-1 -45.428632465590383 0 7.0419344623211071 0 -1 0 I I #
vertex $-1 $470 $591 #
point $-1 -42.431807621752135 -2.9401071597625279 4.7394370929054661 #
vertex $-1 $474 $592 #
point $-1 -42.431807621752135 -0.16840758648472587 4.7394370929054661 #
straight-curve $-1 -45.428632465590383 18.30829206287893 0 0 0 -1 I I #
point $-1 -45.428632465590383 -18.30829206287893 -7.0419344623211071 #
straight-curve $-1 -45.428632465590383 0 -7.0419344623211071 0 1 0 I I #
point $-1 -45.428632465590383 18.30829206287893 -7.0419344623211071 #
edge $-1 $508 -2.1038980012141772 $502 2.1038980012141772 $501 $593 forward 7 unknown #
coedge $-1 $506 $497 $496 $565 reversed $366 $-1 #
edge $-1 $510 -2.1038980012141772 $499 2.1038980012141772 $496 $594 forward 7 unknown #
straight-curve $-1 0 -27.014157819973189 -7.0419344623211071 -1 0 0 I I #
point $-1 45.428632465590383 -27.014157819973189 -7.0419344623211071 #
point $-1 -45.428632465590383 -27.014157819973189 -7.0419344623211071 #
straight-curve $-1 0 -27.014157819973189 -2.8341384598927526 1 0 0 I I #
point $-1 -45.428632465590383 -27.014157819973189 -2.8341384598927526 #
point $-1 45.428632465590383 -27.014157819973189 -2.8341384598927526 #
straight-curve $-1 45.428632465590383 -7.6509353166021521 64.101525147856108 0 0 -1 I I #
point $-1 45.428632465590383 -7.6509353166021521 7.0419344623211071 #
straight-curve $-1 45.42863246559039 -2.4872684409884975 1.6635495516483694 0 1 0 I I #
point $-1 45.428632465590383 -7.6509353166021521 1.6635495516483729 #
point $-1 39.861789373982397 -4.9745368819769951 1.8873611117780442 #
straight-curve $-1 45.428632465590383 1.6526374729523807 64.101525147856108 0 0 -1 I I #
point $-1 45.428632465590383 1.6526374729523807 7.0419344623211071 #
straight-curve $-1 45.42863246559039 2.1645179537887689 1.6635495516483694 0 1 0 I I #
point $-1 45.428632465590383 1.6526374729523807 1.6635495516483729 #
point $-1 39.861789373982397 4.3290359075775378 1.8873611117780442 #
straight-curve $-1 45.428632465590383 10.956210262506918 64.101525147856108 0 0 -1 I I #
point $-1 45.428632465590383 10.956210262506918 7.0419344623211071 #
straight-curve $-1 45.42863246559039 6.8163043485660371 1.6635495516483694 0 1 0 I I #
point $-1 45.428632465590383 10.956210262506918 1.6635495516483729 #
point $-1 39.861789373982397 13.632608697132074 1.8873611117780442 #
straight-curve $-1 -45.428632465590383 1.6793921290338085 38.147570407449301 0 0 -1 I I #
point $-1 -45.428632465590383 1.6793921290338085 7.0419344623211071 #
straight-curve $-1 -45.428632465590383 -0.777128686561813 3.7333032167164486 0 -1 0 I I #
point $-1 -45.428632465590383 1.6793921290338085 3.733303216716445 #
point $-1 -42.481012740135917 -2.9401071597625279 4.3893244591362199 #
point $-1 -42.481012740135917 -0.16840758648472587 4.3893244591362199 #
straight-curve $-1 -45.428632465590383 -27.014157819973189 -4.9380364611069298 0 0 -1 I I #
straight-curve $-1 45.428632465590383 -27.014157819973189 -4.9380364611069298 0 0 -1 I I #
End-of-ACIS-data 