500 0 6 0           
7 Unknown 11 ACIS 5.0 NT 24 Fri Mar 26 14:48:09 1999 
-1 9.9999999999999995e-007 1e-010 
body $-1 $6 $-1 $7 #
body $-1 $8 $-1 $9 #
body $-1 $10 $-1 $11 #
body $-1 $12 $-1 $13 #
body $-1 $14 $-1 $15 #
body $-1 $16 $-1 $17 #
lump $-1 $-1 $18 $0 #
transform $-1 1 0 0 0 1 0 0 0 1 55.336161381878107 32.121217198641148 9.4903997297123546 1 rotate no_reflect no_shear #
lump $-1 $-1 $19 $1 #
transform $-1 1 0 0 0 1 0 0 0 1 55.336161381878107 32.121217198641148 9.4903997297123546 1 rotate no_reflect no_shear #
lump $-1 $-1 $20 $2 #
transform $-1 1 0 0 0 1 0 0 0 1 55.336161381878107 32.121217198641148 9.4903997297123546 1 rotate no_reflect no_shear #
lump $-1 $-1 $21 $3 #
transform $-1 1 0 0 0 1 0 0 0 1 55.336161381878107 32.121217198641148 9.4903997297123546 1 rotate no_reflect no_shear #
lump $-1 $-1 $22 $4 #
transform $-1 1 0 0 0 1 0 0 0 1 55.336161381878107 32.121217198641148 9.4903997297123546 1 rotate no_reflect no_shear #
lump $-1 $-1 $23 $5 #
transform $-1 1 0 0 0 1 0 0 0 1 55.336161381878107 32.121217198641148 9.4903997297123546 1 rotate no_reflect no_shear #
shell $-1 $-1 $-1 $24 $-1 $6 #
shell $-1 $-1 $-1 $25 $-1 $8 #
shell $-1 $-1 $-1 $26 $-1 $10 #
shell $-1 $-1 $-1 $27 $-1 $12 #
shell $-1 $-1 $-1 $28 $-1 $14 #
shell $-1 $-1 $-1 $29 $-1 $16 #
face $-1 $30 $31 $18 $-1 $32 forward single #
face $-1 $33 $34 $19 $-1 $35 forward single #
face $-1 $36 $37 $20 $-1 $38 forward single #
face $-1 $39 $40 $21 $-1 $41 reversed single #
face $-1 $42 $43 $22 $-1 $44 forward single #
face $-1 $45 $46 $23 $-1 $47 forward single #
face $-1 $48 $49 $18 $-1 $50 reversed single #
loop $-1 $-1 $51 $24 #
plane-surface $-1 0 0 9.4903997297123546 0 0 1 1 0 0 forward_v I I I I #
face $-1 $52 $53 $19 $-1 $54 reversed single #
loop $-1 $-1 $55 $25 #
plane-surface $-1 0 -27.290280216319548 -0.48863825787543114 0 0 1 1 0 0 forward_v I I I I #
face $-1 $56 $57 $20 $-1 $58 reversed single #
loop $-1 $-1 $59 $26 #
plane-surface $-1 0 27.290280216319545 -0.48863825787543114 0 0 1 1 0 0 forward_v I I I I #
face $-1 $60 $61 $21 $-1 $62 reversed single #
loop $-1 $-1 $63 $27 #
plane-surface $-1 -149.19161487592766 8.3695038731073907 63.691631621508265 0 -1 0 0.84804810408105047 0 -0.52991925155115449 forward_v I I I I #
face $-1 $64 $65 $22 $-1 $66 forward single #
loop $-1 $67 $68 $28 #
cone-surface $-1 -53.147776901945534 3.8828595984994081 6.7678921586777188 0.84804810408105047 0 -0.52991925155115449 0.26495962577557725 0 0.42402405204052523 1 I I 0 1 0.5 forward I I I I #
face $-1 $69 $70 $23 $-1 $71 forward single #
loop $-1 $72 $73 $29 #
cone-surface $-1 -53.147776901945534 6.5748461632641977 6.7678921586777188 0.84804810408105047 0 -0.52991925155115449 0.26495962577557725 0 0.42402405204052523 1 I I 0 1 0.5 forward I I I I #
face $-1 $74 $75 $18 $-1 $76 reversed single #
loop $-1 $-1 $77 $30 #
plane-surface $-1 0 0 -9.4903997297123546 0 0 1 1 0 0 forward_v I I I I #
coedge $-1 $78 $79 $80 $81 forward $31 $-1 #
face $-1 $82 $83 $19 $-1 $84 reversed single #
loop $-1 $-1 $85 $33 #
plane-surface $-1 0 -27.290280216319548 -3.4886382578754311 0 0 1 1 0 0 forward_v I I I I #
coedge $-1 $86 $87 $88 $89 reversed $34 $-1 #
face $-1 $90 $91 $20 $-1 $92 reversed single #
loop $-1 $-1 $93 $36 #
plane-surface $-1 0 27.290280216319545 -3.4886382578754311 0 0 1 1 0 0 forward_v I I I I #
coedge $-1 $94 $95 $96 $97 reversed $37 $-1 #
face $-1 $98 $99 $21 $-1 $100 reversed single #
loop $-1 $-1 $101 $39 #
plane-surface $-1 -55.3361613818781 5.2288528808818029 5.0442371751107657 -0.84804810408105047 0 0.52991925155115449 0.52991925155115449 0 0.84804810408105047 forward_v I I I I #
coedge $-1 $102 $103 $104 $105 reversed $40 $-1 #
face $-1 $-1 $106 $22 $-1 $107 forward single #
loop $-1 $108 $109 $42 #
cone-surface $-1 -52.136515706755709 3.8828595984994081 6.1359860520560829 0.84804810408105047 0 -0.52991925155115449 0.13247981288778862 0 0.21201202602026262 1 I I -0.70710678118654746 0.70710678118654746 0.25 forward I I I I #
loop $-1 $-1 $110 $28 #
coedge $-1 $68 $68 $111 $112 reversed $43 $-1 #
face $-1 $-1 $113 $23 $-1 $114 forward single #
loop $-1 $115 $116 $45 #
cone-surface $-1 -52.136515706755709 6.5748461632641977 6.1359860520560829 0.84804810408105047 0 -0.52991925155115449 0.13247981288778862 0 0.21201202602026262 1 I I -0.70710678118654746 0.70710678118654746 0.25 forward I I I I #
loop $-1 $-1 $117 $29 #
coedge $-1 $73 $73 $118 $119 reversed $46 $-1 #
face $-1 $120 $121 $18 $-1 $122 reversed single #
loop $-1 $-1 $123 $48 #
plane-surface $-1 0 -32.121217198641148 0 0 1 0 0 0 1 forward_v I I I I #
coedge $-1 $124 $125 $126 $127 forward $49 $-1 #
coedge $-1 $128 $51 $129 $130 forward $31 $-1 #
coedge $-1 $51 $128 $131 $132 forward $31 $-1 #
coedge $-1 $133 $134 $51 $81 reversed $135 $-1 #
edge $-1 $136 -32.121217198641148 $137 32.121217198641148 $80 $138 forward 7 unknown #
face $-1 $139 $140 $19 $-1 $141 reversed single #
loop $-1 $-1 $142 $52 #
plane-surface $-1 0 -22.459343233997949 -1.9886382578754311 0 -1 0 0 0 -1 forward_v I I I I #
coedge $-1 $143 $144 $145 $146 reversed $53 $-1 #
coedge $-1 $147 $55 $148 $149 forward $34 $-1 #
coedge $-1 $55 $147 $150 $151 reversed $34 $-1 #
coedge $-1 $152 $153 $55 $89 forward $154 $-1 #
edge $-1 $155 8.8142031258381746 $156 18.476077090481375 $88 $157 forward 7 unknown #
face $-1 $158 $159 $20 $-1 $160 reversed single #
loop $-1 $-1 $161 $56 #
plane-surface $-1 0 22.459343233997945 -1.9886382578754311 0 1 0 0 0 1 forward_v I I I I #
coedge $-1 $162 $163 $164 $165 reversed $57 $-1 #
coedge $-1 $166 $59 $167 $168 reversed $37 $-1 #
coedge $-1 $59 $166 $169 $170 forward $37 $-1 #
coedge $-1 $171 $172 $59 $97 forward $159 $-1 #
edge $-1 $173 -18.476077090481375 $174 -8.8142031258381728 $96 $175 forward 7 unknown #
face $-1 $176 $177 $21 $-1 $178 reversed single #
loop $-1 $-1 $179 $60 #
plane-surface $-1 -149.19161487592766 2.088201888656215 63.691631621508265 0 1 0 -0.84804810408105047 0 0.52991925155115449 forward_v I I I I #
coedge $-1 $180 $181 $182 $183 reversed $61 $-1 #
coedge $-1 $103 $63 $184 $185 reversed $40 $-1 #
coedge $-1 $63 $102 $180 $186 reversed $40 $-1 #
coedge $-1 $182 $187 $63 $105 forward $177 $-1 #
edge $-1 $188 22.355416081041778 $189 26.801578635643377 $104 $190 forward 7 unknown #
loop $-1 $-1 $111 $64 #
plane-surface $-1 -55.3361613818781 5.2288528808818029 5.0442371751107657 -0.84804810408105047 0 0.52991925155115449 0.52991925155115449 0 0.84804810408105047 forward_v I I I I #
loop $-1 $-1 $191 $42 #
coedge $-1 $109 $109 $110 $192 reversed $65 $-1 #
coedge $-1 $110 $110 $109 $192 forward $67 $-1 #
coedge $-1 $111 $111 $68 $112 forward $106 $-1 #
edge $-1 $193 0 $193 6.2831853071796004 $111 $194 forward 7 unknown #
loop $-1 $-1 $118 $69 #
plane-surface $-1 -55.3361613818781 5.2288528808818029 5.0442371751107657 -0.84804810408105047 0 0.52991925155115449 0.52991925155115449 0 0.84804810408105047 forward_v I I I I #
loop $-1 $-1 $195 $45 #
coedge $-1 $116 $116 $117 $196 reversed $70 $-1 #
coedge $-1 $117 $117 $116 $196 forward $72 $-1 #
coedge $-1 $118 $118 $73 $119 forward $113 $-1 #
edge $-1 $197 0 $197 6.2831853071796004 $118 $198 forward 7 unknown #
face $-1 $199 $200 $18 $-1 $201 reversed single #
loop $-1 $-1 $202 $74 #
plane-surface $-1 -55.336161381878107 0 0 1 0 0 0 0 -1 forward_v I I I I #
coedge $-1 $203 $131 $204 $205 forward $75 $-1 #
coedge $-1 $206 $77 $203 $207 forward $49 $-1 #
coedge $-1 $77 $206 $208 $209 forward $49 $-1 #
coedge $-1 $134 $133 $77 $127 reversed $135 $-1 #
edge $-1 $210 -32.121217198641148 $211 32.121217198641148 $126 $212 forward 7 unknown #
coedge $-1 $79 $78 $213 $214 forward $31 $-1 #
coedge $-1 $215 $216 $78 $130 reversed $200 $-1 #
edge $-1 $137 -55.336161381878107 $217 55.336161381878107 $129 $218 forward 7 unknown #
coedge $-1 $123 $219 $79 $132 reversed $75 $-1 #
edge $-1 $220 -55.336161381878107 $136 55.336161381878107 $131 $221 forward 7 unknown #
coedge $-1 $126 $80 $219 $222 forward $135 $-1 #
coedge $-1 $80 $126 $215 $223 reversed $135 $-1 #
loop $-1 $-1 $133 $199 #
vertex $-1 $81 $224 #
vertex $-1 $81 $225 #
straight-curve $-1 55.336161381878107 0 9.4903997297123546 0 1 0 I I #
face $-1 $226 $227 $19 $-1 $228 reversed single #
loop $-1 $-1 $229 $82 #
plane-surface $-1 -55.336161381878107 0 0 1 0 0 0 0 -1 forward_v I I I I #
coedge $-1 $230 $148 $153 $231 reversed $83 $-1 #
coedge $-1 $232 $85 $233 $234 reversed $53 $-1 #
coedge $-1 $85 $232 $230 $235 forward $53 $-1 #
coedge $-1 $153 $152 $85 $146 forward $154 $-1 #
edge $-1 $236 -18.476077090481375 $237 -8.8142031258381746 $145 $238 forward 7 unknown #
coedge $-1 $87 $86 $229 $239 reversed $34 $-1 #
coedge $-1 $142 $240 $86 $149 reversed $83 $-1 #
edge $-1 $155 -55.336161381878107 $241 55.336161381878107 $148 $242 forward 7 unknown #
coedge $-1 $243 $244 $87 $151 forward $227 $-1 #
edge $-1 $156 -55.336161381878107 $245 55.336161381878107 $150 $246 forward 7 unknown #
coedge $-1 $145 $88 $244 $247 forward $154 $-1 #
coedge $-1 $88 $145 $142 $231 forward $154 $-1 #
loop $-1 $-1 $88 $226 #
vertex $-1 $89 $248 #
vertex $-1 $247 $249 #
straight-curve $-1 55.336161381878107 -13.645140108159774 -0.48863825787543114 0 -1 0 I I #
face $-1 $250 $251 $20 $-1 $252 reversed single #
loop $-1 $-1 $96 $90 #
plane-surface $-1 55.336161381878107 0 0 -1 0 0 0 0 1 forward_v I I I I #
coedge $-1 $253 $169 $254 $255 reversed $91 $-1 #
coedge $-1 $256 $93 $253 $257 forward $57 $-1 #
coedge $-1 $93 $256 $258 $259 reversed $57 $-1 #
coedge $-1 $172 $171 $93 $165 forward $159 $-1 #
edge $-1 $260 8.8142031258381728 $261 18.476077090481375 $164 $262 forward 7 unknown #
coedge $-1 $95 $94 $263 $264 reversed $37 $-1 #
coedge $-1 $265 $266 $94 $168 forward $267 $-1 #
edge $-1 $268 -55.336161381878107 $173 55.336161381878107 $167 $269 forward 7 unknown #
coedge $-1 $161 $270 $95 $170 reversed $91 $-1 #
edge $-1 $271 -55.336161381878107 $174 55.336161381878107 $169 $272 forward 7 unknown #
coedge $-1 $164 $96 $270 $273 forward $159 $-1 #
coedge $-1 $96 $164 $265 $274 reversed $159 $-1 #
vertex $-1 $274 $275 #
vertex $-1 $97 $276 #
straight-curve $-1 55.336161381878107 13.645140108159772 -0.48863825787543114 0 -1 0 I I #
face $-1 $-1 $277 $21 $-1 $278 forward single #
loop $-1 $-1 $104 $98 #
plane-surface $-1 -55.336161381878107 0 0 1 0 0 0 0 -1 forward_v I I I I #
coedge $-1 $279 $280 $281 $282 reversed $99 $-1 #
coedge $-1 $283 $101 $103 $186 forward $61 $-1 #
coedge $-1 $101 $283 $279 $284 forward $61 $-1 #
coedge $-1 $281 $104 $101 $183 forward $177 $-1 #
edge $-1 $189 -5.7550774326664893 $285 0.52622455178468641 $182 $286 forward 7 unknown #
coedge $-1 $287 $288 $102 $185 forward $277 $-1 #
edge $-1 $289 -22.037916677611769 $188 -19.259646056085721 $184 $290 forward 7 unknown #
edge $-1 $189 -1.3557137071152151e-014 $289 5.2428188132316773 $103 $291 forward 7 unknown #
coedge $-1 $104 $281 $287 $292 reversed $177 $-1 #
vertex $-1 $292 $293 #
vertex $-1 $105 $294 #
straight-curve $-1 -55.336161381878107 8.3695038731073907 31.845815810754132 0 0 -1 I I #
coedge $-1 $191 $191 $-1 $295 reversed $108 $-1 #
edge $-1 $296 0 $296 6.2831853071796004 $109 $297 forward 7 unknown #
vertex $-1 $112 $298 #
ellipse-curve $-1 -53.947026071115083 3.8828595984994081 7.2673184524115575 -0.84804810408105047 0 0.52991925155115449 0.26495962577557725 0 0.42402405204052523 1 I I #
coedge $-1 $195 $195 $-1 $299 reversed $115 $-1 #
edge $-1 $300 0 $300 6.2831853071796004 $116 $301 forward 7 unknown #
vertex $-1 $119 $302 #
ellipse-curve $-1 -53.947026071115083 6.5748461632641977 7.2673184524115575 -0.84804810408105047 0 0.52991925155115449 0.26495962577557725 0 0.42402405204052523 1 I I #
face $-1 $-1 $135 $18 $-1 $303 reversed single #
loop $-1 $-1 $215 $120 #
plane-surface $-1 0 32.121217198641148 0 0 -1 0 0 0 -1 forward_v I I I I #
coedge $-1 $304 $213 $216 $305 forward $121 $-1 #
coedge $-1 $219 $123 $124 $207 reversed $75 $-1 #
coedge $-1 $213 $304 $123 $205 reversed $121 $-1 #
edge $-1 $220 -9.4903997297123546 $306 9.4903997297123546 $204 $307 forward 7 unknown #
coedge $-1 $125 $124 $304 $308 forward $49 $-1 #
edge $-1 $211 -55.336161381878107 $306 55.336161381878107 $203 $309 forward 7 unknown #
coedge $-1 $216 $215 $125 $209 reversed $200 $-1 #
edge $-1 $310 -55.336161381878107 $210 55.336161381878107 $208 $311 forward 7 unknown #
vertex $-1 $127 $312 #
vertex $-1 $222 $313 #
straight-curve $-1 55.336161381878107 0 -9.4903997297123546 0 -1 0 I I #
coedge $-1 $202 $204 $128 $214 reversed $121 $-1 #
edge $-1 $217 -32.121217198641148 $220 32.121217198641148 $213 $314 forward 7 unknown #
coedge $-1 $208 $129 $134 $223 forward $200 $-1 #
coedge $-1 $129 $208 $202 $305 reversed $200 $-1 #
vertex $-1 $130 $315 #
straight-curve $-1 0 32.121217198641148 9.4903997297123546 -1 0 0 I I #
coedge $-1 $131 $203 $133 $222 reversed $75 $-1 #
vertex $-1 $214 $316 #
straight-curve $-1 0 -32.121217198641148 9.4903997297123546 1 0 0 I I #
edge $-1 $136 -9.4903997297123546 $211 9.4903997297123546 $133 $317 forward 7 unknown #
edge $-1 $137 -9.4903997297123546 $210 9.4903997297123546 $134 $318 forward 7 unknown #
point $-1 55.336161381878107 -32.121217198641148 9.4903997297123546 #
point $-1 55.336161381878107 32.121217198641148 9.4903997297123546 #
face $-1 $-1 $154 $19 $-1 $319 reversed single #
loop $-1 $-1 $150 $139 #
plane-surface $-1 0 -32.121217198641148 0 0 1 0 0 0 1 forward_v I I I I #
coedge $-1 $320 $321 $147 $239 forward $140 $-1 #
coedge $-1 $240 $142 $144 $235 reversed $83 $-1 #
edge $-1 $237 -2.4943191289377156 $155 0.50568087106228443 $153 $322 forward 7 unknown #
coedge $-1 $144 $143 $323 $324 reversed $53 $-1 #
coedge $-1 $244 $243 $143 $234 forward $227 $-1 #
edge $-1 $325 -55.336161381878107 $236 55.336161381878107 $233 $326 forward 7 unknown #
edge $-1 $327 -55.336161381878107 $237 55.336161381878107 $230 $328 forward 7 unknown #
vertex $-1 $234 $329 #
vertex $-1 $146 $330 #
straight-curve $-1 55.336161381878107 -13.645140108159774 -3.4886382578754311 0 1 0 I I #
edge $-1 $245 -18.476077090481375 $241 -8.8142031258381746 $229 $331 forward 7 unknown #
coedge $-1 $148 $230 $320 $332 reversed $83 $-1 #
vertex $-1 $239 $333 #
straight-curve $-1 0 -22.459343233997949 -0.48863825787543114 -1 0 0 I I #
coedge $-1 $233 $150 $321 $334 forward $227 $-1 #
coedge $-1 $150 $233 $152 $247 reversed $227 $-1 #
vertex $-1 $334 $335 #
straight-curve $-1 0 -32.121217198641148 -0.48863825787543114 -1 0 0 I I #
edge $-1 $156 0.48863825787543114 $236 3.4886382578754311 $152 $336 forward 7 unknown #
point $-1 55.336161381878107 -22.459343233997949 -0.48863825787543114 #
point $-1 55.336161381878107 -32.121217198641148 -0.48863825787543114 #
face $-1 $-1 $267 $20 $-1 $337 reversed single #
loop $-1 $-1 $263 $158 #
plane-surface $-1 -55.336161381878107 0 0 1 0 0 0 0 -1 forward_v I I I I #
coedge $-1 $270 $161 $162 $257 reversed $91 $-1 #
coedge $-1 $263 $338 $161 $255 forward $251 $-1 #
edge $-1 $339 -2.4943191289377156 $271 0.50568087106228443 $254 $340 forward 7 unknown #
coedge $-1 $163 $162 $338 $341 reversed $57 $-1 #
edge $-1 $260 -55.336161381878107 $339 55.336161381878107 $253 $342 forward 7 unknown #
coedge $-1 $266 $265 $163 $259 forward $267 $-1 #
edge $-1 $261 -55.336161381878107 $343 55.336161381878107 $258 $344 forward 7 unknown #
vertex $-1 $165 $345 #
vertex $-1 $259 $346 #
straight-curve $-1 55.336161381878107 13.645140108159772 -3.4886382578754311 0 1 0 I I #
coedge $-1 $347 $254 $166 $264 forward $251 $-1 #
edge $-1 $271 8.8142031258381728 $268 18.476077090481375 $263 $348 forward 7 unknown #
coedge $-1 $258 $167 $172 $274 forward $267 $-1 #
coedge $-1 $167 $258 $347 $349 reversed $267 $-1 #
loop $-1 $-1 $167 $250 #
vertex $-1 $349 $350 #
straight-curve $-1 0 32.121217198641148 -0.48863825787543114 1 0 0 I I #
coedge $-1 $169 $253 $171 $273 reversed $91 $-1 #
vertex $-1 $264 $351 #
straight-curve $-1 0 22.459343233997945 -0.48863825787543114 1 0 0 I I #
edge $-1 $174 -0.50568087106228443 $260 2.4943191289377156 $171 $352 forward 7 unknown #
edge $-1 $173 0.48863825787543114 $261 3.4886382578754311 $172 $353 forward 7 unknown #
point $-1 55.336161381878107 32.121217198641148 -0.48863825787543114 #
point $-1 55.336161381878107 22.459343233997945 -0.48863825787543114 #
loop $-1 $-1 $184 $176 #
plane-surface $-1 0 0 9.4903997297123546 0 0 1 1 0 0 forward_v I I I I #
coedge $-1 $280 $179 $181 $284 reversed $99 $-1 #
coedge $-1 $179 $279 $354 $355 reversed $99 $-1 #
coedge $-1 $187 $182 $179 $282 forward $177 $-1 #
edge $-1 $285 -26.801578635643377 $356 -22.355416081041778 $281 $357 forward 7 unknown #
coedge $-1 $181 $180 $288 $358 reversed $61 $-1 #
edge $-1 $359 -5.2428188132316773 $285 1.3557137071152151e-014 $279 $360 forward 7 unknown #
vertex $-1 $183 $361 #
straight-curve $-1 -55.336161381878107 2.6144264404409014 5.0442371751107444 0 -1 0 I I #
coedge $-1 $354 $184 $187 $292 forward $277 $-1 #
coedge $-1 $184 $354 $283 $358 forward $277 $-1 #
vertex $-1 $185 $362 #
straight-curve $-1 -74.595807437963828 8.3695038731073907 9.4903997297123546 -1 0 0 I I #
straight-curve $-1 -55.3361613818781 8.3695038731073907 5.0442371751107657 0.52991925155115449 0 0.84804810408105047 I I #
edge $-1 $188 -8.3695038731073907 $356 -2.088201888656215 $187 $363 forward 7 unknown #
point $-1 -55.336161381878107 8.3695038731073907 9.4903997297123546 #
point $-1 -55.336161381878107 8.3695038731073907 5.0442371751107542 #
edge $-1 $364 1 $364 0 $191 $-1 forward 7 unknown #
vertex $-1 $192 $365 #
ellipse-curve $-1 -52.34852773277597 3.8828595984994081 6.2684658649438711 -0.84804810408105047 0 0.52991925155115449 0.26495962577557725 0 0.42402405204052523 1 I I #
point $-1 -53.682066445339515 3.8828595984994081 7.6913425044520913 #
edge $-1 $366 1 $366 0 $195 $-1 forward 7 unknown #
vertex $-1 $196 $367 #
ellipse-curve $-1 -52.34852773277597 6.5748461632641977 6.2684658649438711 -0.84804810408105047 0 0.52991925155115449 0.26495962577557725 0 0.42402405204052523 1 I I #
point $-1 -53.682066445339515 6.5748461632641977 7.6913425044520913 #
plane-surface $-1 55.336161381878107 0 0 -1 0 0 0 0 1 forward_v I I I I #
coedge $-1 $204 $202 $206 $308 reversed $121 $-1 #
edge $-1 $217 -9.4903997297123546 $310 9.4903997297123546 $216 $368 forward 7 unknown #
vertex $-1 $308 $369 #
straight-curve $-1 -55.336161381878107 -32.121217198641148 0 0 0 -1 I I #
edge $-1 $306 -32.121217198641148 $310 32.121217198641148 $304 $370 forward 7 unknown #
straight-curve $-1 0 -32.121217198641148 -9.4903997297123546 -1 0 0 I I #
vertex $-1 $209 $371 #
straight-curve $-1 0 32.121217198641148 -9.4903997297123546 1 0 0 I I #
point $-1 55.336161381878107 32.121217198641148 -9.4903997297123546 #
point $-1 55.336161381878107 -32.121217198641148 -9.4903997297123546 #
straight-curve $-1 -55.336161381878107 0 9.4903997297123546 0 -1 0 I I #
point $-1 -55.336161381878107 32.121217198641148 9.4903997297123546 #
point $-1 -55.336161381878107 -32.121217198641148 9.4903997297123546 #
straight-curve $-1 55.336161381878107 -32.121217198641148 0 0 0 -1 I I #
straight-curve $-1 55.336161381878107 32.121217198641148 0 0 0 -1 I I #
plane-surface $-1 55.336161381878107 0 0 -1 0 0 0 0 1 forward_v I I I I #
coedge $-1 $323 $229 $240 $332 forward $140 $-1 #
coedge $-1 $229 $323 $243 $334 reversed $140 $-1 #
straight-curve $-1 55.336161381878107 -22.459343233997949 -0.99431912893771557 0 0 1 I I #
coedge $-1 $321 $320 $232 $324 forward $140 $-1 #
edge $-1 $327 8.8142031258381746 $325 18.476077090481375 $323 $372 forward 7 unknown #
vertex $-1 $234 $373 #
straight-curve $-1 0 -32.121217198641148 -3.4886382578754311 1 0 0 I I #
vertex $-1 $324 $374 #
straight-curve $-1 0 -22.459343233997949 -3.4886382578754311 1 0 0 I I #
point $-1 55.336161381878107 -32.121217198641148 -3.4886382578754311 #
point $-1 55.336161381878107 -22.459343233997949 -3.4886382578754311 #
straight-curve $-1 -55.336161381878107 -13.645140108159774 -0.48863825787543114 0 1 0 I I #
edge $-1 $241 -0.50568087106228443 $327 2.4943191289377156 $320 $375 forward 7 unknown #
point $-1 -55.336161381878107 -22.459343233997949 -0.48863825787543114 #
edge $-1 $245 0.48863825787543114 $325 3.4886382578754311 $321 $376 forward 7 unknown #
point $-1 -55.336161381878107 -32.121217198641148 -0.48863825787543114 #
straight-curve $-1 55.336161381878107 -32.121217198641148 0 0 0 -1 I I #
plane-surface $-1 0 32.121217198641148 0 0 -1 0 0 0 -1 forward_v I I I I #
coedge $-1 $254 $347 $256 $341 forward $251 $-1 #
vertex $-1 $341 $377 #
straight-curve $-1 -55.336161381878107 22.459343233997945 -0.99431912893771557 0 0 1 I I #
edge $-1 $343 -18.476077090481375 $339 -8.8142031258381728 $338 $378 forward 7 unknown #
straight-curve $-1 0 22.459343233997945 -3.4886382578754311 -1 0 0 I I #
vertex $-1 $259 $379 #
straight-curve $-1 0 32.121217198641148 -3.4886382578754311 -1 0 0 I I #
point $-1 55.336161381878107 22.459343233997945 -3.4886382578754311 #
point $-1 55.336161381878107 32.121217198641148 -3.4886382578754311 #
coedge $-1 $338 $263 $266 $349 forward $251 $-1 #
straight-curve $-1 -55.336161381878107 13.645140108159772 -0.48863825787543114 0 1 0 I I #
edge $-1 $268 0.48863825787543114 $343 3.4886382578754311 $266 $380 forward 7 unknown #
point $-1 -55.336161381878107 32.121217198641148 -0.48863825787543114 #
point $-1 -55.336161381878107 22.459343233997945 -0.48863825787543114 #
straight-curve $-1 55.336161381878107 22.459343233997945 -0.99431912893771557 0 0 -1 I I #
straight-curve $-1 55.336161381878107 32.121217198641148 0 0 0 -1 I I #
coedge $-1 $288 $287 $280 $355 forward $277 $-1 #
edge $-1 $356 19.259646056085721 $359 22.037916677611769 $354 $381 forward 7 unknown #
vertex $-1 $355 $382 #
straight-curve $-1 -55.336161381878107 2.088201888656215 31.845815810754132 0 0 1 I I #
edge $-1 $359 -0.52622455178468641 $289 5.7550774326664893 $288 $383 forward 7 unknown #
vertex $-1 $358 $384 #
straight-curve $-1 -55.3361613818781 2.088201888656215 5.0442371751107657 -0.52991925155115449 0 -0.84804810408105047 I I #
point $-1 -55.336161381878107 2.088201888656215 5.0442371751107542 #
point $-1 -52.557890760352059 8.3695038731073907 9.4903997297123546 #
straight-curve $-1 -55.336161381878107 0 9.4903997297123546 0 -1 0 I I #
vertex $-1 $295 $385 #
point $-1 -52.083568107000396 3.8828595984994081 6.692489916984397 #
vertex $-1 $299 $386 #
point $-1 -52.083568107000396 6.5748461632641977 6.692489916984397 #
straight-curve $-1 -55.336161381878107 32.121217198641148 0 0 0 -1 I I #
point $-1 -55.336161381878107 -32.121217198641148 -9.4903997297123546 #
straight-curve $-1 -55.336161381878107 0 -9.4903997297123546 0 1 0 I I #
point $-1 -55.336161381878107 32.121217198641148 -9.4903997297123546 #
straight-curve $-1 -55.336161381878107 -13.645140108159774 -3.4886382578754311 0 -1 0 I I #
point $-1 -55.336161381878107 -32.121217198641148 -3.4886382578754311 #
point $-1 -55.336161381878107 -22.459343233997949 -3.4886382578754311 #
straight-curve $-1 -55.336161381878107 -22.459343233997949 -0.99431912893771557 0 0 -1 I I #
straight-curve $-1 -55.336161381878107 -32.121217198641148 0 0 0 -1 I I #
point $-1 -55.336161381878107 22.459343233997945 -3.4886382578754311 #
straight-curve $-1 -55.336161381878107 13.645140108159772 -3.4886382578754311 0 -1 0 I I #
point $-1 -55.336161381878107 32.121217198641148 -3.4886382578754311 #
straight-curve $-1 -55.336161381878107 32.121217198641148 0 0 0 -1 I I #
straight-curve $-1 -74.595807437963828 2.088201888656215 9.4903997297123546 1 0 0 I I #
point $-1 -55.336161381878107 2.088201888656215 9.4903997297123546 #
straight-curve $-1 -52.557890760352052 2.6144264404409014 9.4903997297123546 0 1 0 I I #
point $-1 -52.557890760352059 2.088201888656215 9.4903997297123546 #
point $-1 -51.924503680735448 3.8828595984994081 6.0035062391682947 #
point $-1 -51.924503680735448 6.5748461632641977 6.0035062391682947 #
End-of-ACIS-data 