500 0 8 0           
7 Unknown 11 ACIS 5.0 NT 24 Fri Mar 26 20:07:38 1999 
-1 9.9999999999999995e-007 1e-010 
body $-1 $8 $-1 $9 #
body $-1 $10 $-1 $11 #
body $-1 $12 $-1 $13 #
body $-1 $14 $-1 $15 #
body $-1 $16 $-1 $17 #
body $-1 $18 $-1 $19 #
body $-1 $20 $-1 $21 #
body $-1 $22 $-1 $23 #
lump $-1 $-1 $24 $0 #
transform $-1 1 0 0 0 1 0 0 0 1 46.047547837763602 18.868013291853558 4.261440448246451 1 rotate no_reflect no_shear #
lump $-1 $-1 $25 $1 #
transform $-1 1 0 0 0 1 0 0 0 1 46.047547837763602 18.868013291853558 4.261440448246451 1 rotate no_reflect no_shear #
lump $-1 $-1 $26 $2 #
transform $-1 1 0 0 0 1 0 0 0 1 46.047547837763602 18.868013291853558 4.261440448246451 1 rotate no_reflect no_shear #
lump $-1 $-1 $27 $3 #
transform $-1 1 0 0 0 1 0 0 0 1 46.047547837763602 18.868013291853558 4.261440448246451 1 rotate no_reflect no_shear #
lump $-1 $-1 $28 $4 #
transform $-1 1 0 0 0 1 0 0 0 1 46.047547837763602 18.868013291853558 4.261440448246451 1 rotate no_reflect no_shear #
lump $-1 $-1 $29 $5 #
transform $-1 1 0 0 0 1 0 0 0 1 46.047547837763602 18.868013291853558 4.261440448246451 1 rotate no_reflect no_shear #
lump $-1 $-1 $30 $6 #
transform $-1 1 0 0 0 1 0 0 0 1 46.047547837763602 18.868013291853558 4.261440448246451 1 rotate no_reflect no_shear #
lump $-1 $-1 $31 $7 #
transform $-1 1 0 0 0 1 0 0 0 1 46.047547837763602 18.868013291853558 4.261440448246451 1 rotate no_reflect no_shear #
shell $-1 $-1 $-1 $32 $-1 $8 #
shell $-1 $-1 $-1 $33 $-1 $10 #
shell $-1 $-1 $-1 $34 $-1 $12 #
shell $-1 $-1 $-1 $35 $-1 $14 #
shell $-1 $-1 $-1 $36 $-1 $16 #
shell $-1 $-1 $-1 $37 $-1 $18 #
shell $-1 $-1 $-1 $38 $-1 $20 #
shell $-1 $-1 $-1 $39 $-1 $22 #
face $-1 $40 $41 $24 $-1 $42 forward single #
face $-1 $43 $44 $25 $-1 $45 forward single #
face $-1 $46 $47 $26 $-1 $48 reversed single #
face $-1 $49 $50 $27 $-1 $51 forward single #
face $-1 $52 $53 $28 $-1 $54 forward single #
face $-1 $55 $56 $29 $-1 $57 reversed single #
face $-1 $58 $59 $30 $-1 $60 forward single #
face $-1 $61 $62 $31 $-1 $63 forward single #
face $-1 $64 $65 $24 $-1 $66 reversed single #
loop $-1 $-1 $67 $32 #
plane-surface $-1 0 0 4.261440448246451 0 0 1 1 0 0 forward_v I I I I #
face $-1 $68 $69 $25 $-1 $70 reversed single #
loop $-1 $-1 $71 $33 #
plane-surface $-1 0 -18.868013291853558 0 0 1 0 0 0 1 forward_v I I I I #
face $-1 $72 $73 $26 $-1 $74 reversed single #
loop $-1 $-1 $75 $34 #
plane-surface $-1 -97.546472453292978 6.6926004212435561 77.348490143666837 0 1 0 -0.55919291073839883 0 0.82903756765294845 forward_v I I I I #
face $-1 $76 $77 $27 $-1 $78 forward single #
loop $-1 $79 $80 $35 #
cone-surface $-1 -42.671889024846564 8.8544893203007895 1.2114826437838075 0.55919291073839883 0 -0.82903756765294845 0.82903756765294845 0 0.55919291073839883 1 I I 0 1 1 forward I I I I #
face $-1 $81 $82 $28 $-1 $83 forward single #
loop $-1 $84 $85 $36 #
cone-surface $-1 -42.671889024846564 12.097322668886637 1.2114826437838075 0.55919291073839883 0 -0.82903756765294845 0.82903756765294845 0 0.55919291073839883 1 I I 0 1 1 forward I I I I #
face $-1 $86 $87 $29 $-1 $88 reversed single #
loop $-1 $-1 $89 $37 #
plane-surface $-1 68.663858765275364 8.087576962553074 128.77832500697835 0 -1 0 -0.81915205242281985 0 -0.57357642473473569 forward_v I I I I #
face $-1 $90 $91 $30 $-1 $92 forward single #
loop $-1 $93 $94 $38 #
cone-surface $-1 43.965172209855851 2.1622526885441502 1.848512358331277 -0.81915205242281985 0 -0.57357642473473569 0.28678821236736785 0 -0.40957602621140993 1 I I 0 1 0.5 forward I I I I #
face $-1 $95 $96 $31 $-1 $97 forward single #
loop $-1 $98 $99 $39 #
cone-surface $-1 43.965172209855851 5.7174472529495048 1.848512358331277 -0.81915205242281985 0 -0.57357642473473569 0.28678821236736785 0 -0.40957602621140993 1 I I 0 1 0.5 forward I I I I #
face $-1 $100 $101 $24 $-1 $102 reversed single #
loop $-1 $-1 $103 $40 #
plane-surface $-1 0 0 -4.261440448246451 0 0 1 1 0 0 forward_v I I I I #
coedge $-1 $104 $105 $106 $107 forward $41 $-1 #
face $-1 $108 $109 $25 $-1 $110 reversed single #
loop $-1 $-1 $111 $43 #
plane-surface $-1 0 0 -4.261440448246451 0 0 1 1 0 0 forward_v I I I I #
coedge $-1 $112 $113 $114 $115 forward $44 $-1 #
face $-1 $116 $117 $26 $-1 $118 reversed single #
loop $-1 $-1 $119 $46 #
plane-surface $-1 -46.047547837763595 10.47590599459371 0.99819603206219654 -0.55919291073839883 0 0.82903756765294845 0.82903756765294845 0 0.55919291073839883 forward_v I I I I #
coedge $-1 $120 $121 $122 $123 reversed $47 $-1 #
face $-1 $-1 $124 $27 $-1 $125 forward single #
loop $-1 $126 $127 $49 #
cone-surface $-1 -41.43561311189417 8.8544893203007895 -0.62137173641318633 0.55919291073839883 0 -0.82903756765294845 0.41451878382647422 0 0.27959645536919941 1 I I -0.70710678118654735 0.70710678118654768 0.5 forward I I I I #
loop $-1 $-1 $128 $35 #
coedge $-1 $80 $80 $129 $130 reversed $50 $-1 #
face $-1 $-1 $131 $28 $-1 $132 forward single #
loop $-1 $133 $134 $52 #
cone-surface $-1 -41.43561311189417 12.097322668886637 -0.62137173641318633 0.55919291073839883 0 -0.82903756765294845 0.41451878382647422 0 0.27959645536919941 1 I I -0.70710678118654735 0.70710678118654768 0.5 forward I I I I #
loop $-1 $-1 $135 $36 #
coedge $-1 $85 $85 $136 $137 reversed $53 $-1 #
face $-1 $138 $139 $29 $-1 $140 reversed single #
loop $-1 $-1 $141 $55 #
plane-surface $-1 -6.7760278754087011 3.9398499707468275 75.954749293806032 0.81915205242281985 0 0.57357642473473569 0.57357642473473569 0 -0.81915205242281985 forward_v I I I I #
coedge $-1 $142 $143 $144 $145 reversed $56 $-1 #
face $-1 $-1 $146 $30 $-1 $147 forward single #
loop $-1 $148 $149 $58 #
cone-surface $-1 42.989699536570583 2.1622526885441502 1.1654790597946585 -0.81915205242281985 0 -0.57357642473473569 0.14339410618368392 0 -0.20478801310570496 1 I I -0.70710678118654746 0.70710678118654746 0.25 forward I I I I #
loop $-1 $-1 $150 $38 #
coedge $-1 $94 $94 $151 $152 reversed $59 $-1 #
face $-1 $-1 $153 $31 $-1 $154 forward single #
loop $-1 $155 $156 $61 #
cone-surface $-1 42.989699536570583 5.7174472529495048 1.1654790597946585 -0.81915205242281985 0 -0.57357642473473569 0.14339410618368392 0 -0.20478801310570496 1 I I -0.70710678118654746 0.70710678118654746 0.25 forward I I I I #
loop $-1 $-1 $157 $39 #
coedge $-1 $99 $99 $158 $159 reversed $62 $-1 #
face $-1 $160 $161 $24 $-1 $162 reversed single #
loop $-1 $-1 $163 $64 #
plane-surface $-1 0 -18.868013291853558 0 0 1 0 0 0 1 forward_v I I I I #
coedge $-1 $164 $165 $166 $167 forward $65 $-1 #
coedge $-1 $168 $67 $169 $170 forward $41 $-1 #
coedge $-1 $67 $168 $171 $172 forward $41 $-1 #
coedge $-1 $173 $174 $67 $107 reversed $175 $-1 #
edge $-1 $176 -18.868013291853558 $177 18.868013291853558 $106 $178 forward 7 unknown #
face $-1 $179 $180 $25 $-1 $181 reversed single #
loop $-1 $-1 $182 $68 #
plane-surface $-1 -39.024666941270702 -24.439210394559439 0 0 1 0 0 0 1 forward_v I I I I #
coedge $-1 $183 $184 $113 $185 forward $69 $-1 #
coedge $-1 $186 $71 $187 $188 reversed $44 $-1 #
coedge $-1 $71 $186 $111 $185 reversed $44 $-1 #
coedge $-1 $189 $190 $71 $115 reversed $180 $-1 #
edge $-1 $191 -4.261440448246451 $192 4.261440448246451 $114 $193 forward 7 unknown #
face $-1 $194 $195 $26 $-1 $196 reversed single #
loop $-1 $-1 $197 $72 #
plane-surface $-1 -97.546472453292978 14.259211567943863 77.348490143666837 0 -1 0 0.55919291073839883 0 -0.82903756765294845 forward_v I I I I #
coedge $-1 $198 $199 $200 $201 reversed $73 $-1 #
coedge $-1 $121 $75 $202 $203 reversed $47 $-1 #
coedge $-1 $75 $120 $198 $204 reversed $47 $-1 #
coedge $-1 $200 $205 $75 $123 forward $206 $-1 #
edge $-1 $207 2.7256883888828867 $208 7.5636470995505931 $122 $209 forward 7 unknown #
loop $-1 $-1 $129 $76 #
plane-surface $-1 -46.047547837763595 10.47590599459371 0.99819603206219654 -0.55919291073839883 0 0.82903756765294845 0.82903756765294845 0 0.55919291073839883 forward_v I I I I #
loop $-1 $-1 $210 $49 #
coedge $-1 $127 $127 $128 $211 reversed $77 $-1 #
coedge $-1 $128 $128 $127 $211 forward $79 $-1 #
coedge $-1 $129 $129 $80 $130 forward $124 $-1 #
edge $-1 $212 0 $212 6.2831853071796004 $129 $213 forward 7 unknown #
loop $-1 $-1 $136 $81 #
plane-surface $-1 -46.047547837763595 10.47590599459371 0.99819603206219654 -0.55919291073839883 0 0.82903756765294845 0.82903756765294845 0 0.55919291073839883 forward_v I I I I #
loop $-1 $-1 $214 $52 #
coedge $-1 $134 $134 $135 $215 reversed $82 $-1 #
coedge $-1 $135 $135 $134 $215 forward $84 $-1 #
coedge $-1 $136 $136 $85 $137 forward $131 $-1 #
edge $-1 $216 0 $216 6.2831853071796004 $136 $217 forward 7 unknown #
face $-1 $218 $219 $29 $-1 $220 forward single #
loop $-1 $-1 $221 $86 #
plane-surface $-1 68.663858765275364 -0.20787702105941896 128.77832500697835 0 1 0 0.81915205242281985 0 0.57357642473473569 forward_v I I I I #
coedge $-1 $222 $223 $224 $225 reversed $87 $-1 #
coedge $-1 $143 $89 $226 $227 reversed $56 $-1 #
coedge $-1 $89 $142 $222 $228 reversed $56 $-1 #
coedge $-1 $224 $229 $89 $145 forward $219 $-1 #
edge $-1 $230 -11.71561845512592 $231 -9.0922365196695409 $144 $232 forward 7 unknown #
loop $-1 $-1 $151 $90 #
plane-surface $-1 -6.7760278754087011 3.9398499707468275 75.954749293806032 0.81915205242281985 0 0.57357642473473569 0.57357642473473569 0 -0.81915205242281985 forward_v I I I I #
loop $-1 $-1 $233 $58 #
coedge $-1 $149 $149 $150 $234 reversed $91 $-1 #
coedge $-1 $150 $150 $149 $234 forward $93 $-1 #
coedge $-1 $151 $151 $94 $152 forward $146 $-1 #
edge $-1 $235 0 $235 6.2831853071796004 $151 $236 forward 7 unknown #
loop $-1 $-1 $158 $95 #
plane-surface $-1 -6.7760278754087011 3.9398499707468275 75.954749293806032 0.81915205242281985 0 0.57357642473473569 0.57357642473473569 0 -0.81915205242281985 forward_v I I I I #
loop $-1 $-1 $237 $61 #
coedge $-1 $156 $156 $157 $238 reversed $96 $-1 #
coedge $-1 $157 $157 $156 $238 forward $98 $-1 #
coedge $-1 $158 $158 $99 $159 forward $153 $-1 #
edge $-1 $239 0 $239 6.2831853071796004 $158 $240 forward 7 unknown #
face $-1 $241 $242 $24 $-1 $243 reversed single #
loop $-1 $-1 $244 $100 #
plane-surface $-1 -46.047547837763602 0 0 1 0 0 0 0 -1 forward_v I I I I #
coedge $-1 $245 $171 $246 $247 forward $101 $-1 #
coedge $-1 $248 $103 $245 $249 forward $65 $-1 #
coedge $-1 $103 $248 $250 $251 forward $65 $-1 #
coedge $-1 $174 $173 $103 $167 reversed $175 $-1 #
edge $-1 $252 -18.868013291853558 $253 18.868013291853558 $166 $254 forward 7 unknown #
coedge $-1 $105 $104 $255 $256 forward $41 $-1 #
coedge $-1 $257 $258 $104 $170 reversed $242 $-1 #
edge $-1 $177 -46.047547837763602 $259 46.047547837763602 $169 $260 forward 7 unknown #
coedge $-1 $163 $261 $105 $172 reversed $101 $-1 #
edge $-1 $262 -46.047547837763602 $176 46.047547837763602 $171 $263 forward 7 unknown #
coedge $-1 $166 $106 $261 $264 forward $175 $-1 #
coedge $-1 $106 $166 $257 $265 reversed $175 $-1 #
loop $-1 $-1 $173 $241 #
vertex $-1 $107 $266 #
vertex $-1 $107 $267 #
straight-curve $-1 46.047547837763602 0 4.261440448246451 0 1 0 I I #
face $-1 $268 $269 $25 $-1 $270 reversed single #
loop $-1 $-1 $114 $108 #
plane-surface $-1 -40.524666941270702 -21.653611843206498 0 1 0 0 0 0 -1 forward_v I I I I #
coedge $-1 $271 $272 $273 $274 forward $109 $-1 #
coedge $-1 $275 $111 $276 $277 forward $69 $-1 #
coedge $-1 $111 $275 $189 $278 forward $69 $-1 #
edge $-1 $191 -40.524666941270702 $279 -37.524666941270702 $111 $280 forward 7 unknown #
coedge $-1 $113 $112 $281 $282 forward $44 $-1 #
coedge $-1 $283 $284 $112 $188 forward $285 $-1 #
edge $-1 $286 37.524666941270702 $192 40.524666941270702 $187 $287 forward 7 unknown #
coedge $-1 $273 $114 $184 $278 reversed $180 $-1 #
coedge $-1 $114 $273 $283 $288 reversed $180 $-1 #
vertex $-1 $185 $289 #
vertex $-1 $288 $290 #
straight-curve $-1 -40.524666941270702 -18.868013291853558 0 0 0 1 I I #
face $-1 $-1 $206 $26 $-1 $291 forward single #
loop $-1 $-1 $292 $116 #
plane-surface $-1 -46.047547837763602 0 0 1 0 0 0 0 -1 forward_v I I I I #
coedge $-1 $293 $294 $295 $296 reversed $117 $-1 #
coedge $-1 $297 $119 $121 $204 forward $73 $-1 #
coedge $-1 $119 $297 $293 $298 forward $73 $-1 #
coedge $-1 $295 $122 $119 $201 forward $206 $-1 #
edge $-1 $208 1.4546474239467013 $299 9.0212585706470083 $200 $300 forward 7 unknown #
coedge $-1 $301 $302 $120 $203 forward $195 $-1 #
edge $-1 $303 -37.676049039771229 $207 -34.412804623586965 $202 $304 forward 7 unknown #
edge $-1 $208 -5.8356326654342441 $303 8.5602302459286524e-015 $121 $305 forward 7 unknown #
coedge $-1 $122 $295 $301 $306 forward $206 $-1 #
loop $-1 $-1 $295 $194 #
vertex $-1 $203 $307 #
vertex $-1 $123 $308 #
straight-curve $-1 -48.773236226646489 6.6926004212435561 4.2614404482464536 1 0 0 I I #
coedge $-1 $210 $210 $-1 $309 reversed $126 $-1 #
edge $-1 $310 0 $310 6.2831853071796004 $127 $311 forward 7 unknown #
vertex $-1 $130 $312 #
ellipse-curve $-1 -43.628568482429756 8.8544893203007895 2.6298182401543198 -0.55919291073839883 0 0.82903756765294845 0.82903756765294845 0 0.55919291073839883 1 I I #
coedge $-1 $214 $214 $-1 $313 reversed $133 $-1 #
edge $-1 $314 0 $314 6.2831853071796004 $134 $315 forward 7 unknown #
vertex $-1 $137 $316 #
ellipse-curve $-1 -43.628568482429756 12.097322668886637 2.6298182401543198 -0.55919291073839883 0 0.82903756765294845 0.82903756765294845 0 0.55919291073839883 1 I I #
face $-1 $-1 $317 $29 $-1 $318 reversed single #
loop $-1 $-1 $144 $138 #
plane-surface $-1 0 0 4.261440448246451 0 0 1 1 0 0 forward_v I I I I #
coedge $-1 $319 $320 $321 $322 reversed $139 $-1 #
coedge $-1 $323 $141 $143 $228 forward $87 $-1 #
coedge $-1 $141 $323 $319 $324 forward $87 $-1 #
coedge $-1 $321 $144 $141 $225 forward $219 $-1 #
edge $-1 $231 -6.1176519771796602 $325 2.1778020064328327 $224 $326 forward 7 unknown #
coedge $-1 $327 $328 $142 $227 forward $317 $-1 #
edge $-1 $329 -63.874299850367208 $230 -60.127722055242721 $226 $330 forward 7 unknown #
edge $-1 $231 87.52136875383647 $329 92.095095675527205 $143 $331 forward 7 unknown #
coedge $-1 $144 $321 $327 $332 forward $219 $-1 #
vertex $-1 $145 $333 #
vertex $-1 $145 $334 #
straight-curve $-1 34.331929382637682 8.087576962553074 4.2614404482464536 -1 0 0 I I #
coedge $-1 $233 $233 $-1 $335 reversed $148 $-1 #
edge $-1 $336 0 $336 6.2831853071796004 $149 $337 forward 7 unknown #
vertex $-1 $152 $338 #
ellipse-curve $-1 44.735856870035413 2.1622526885441502 2.3881515506842086 0.81915205242281985 0 0.57357642473473569 0.28678821236736785 0 -0.40957602621140993 1 I I #
coedge $-1 $237 $237 $-1 $339 reversed $155 $-1 #
edge $-1 $340 0 $340 6.2831853071796004 $156 $341 forward 7 unknown #
vertex $-1 $159 $342 #
ellipse-curve $-1 44.735856870035413 5.7174472529495048 2.3881515506842086 0.81915205242281985 0 0.57357642473473569 0.28678821236736785 0 -0.40957602621140993 1 I I #
face $-1 $-1 $175 $24 $-1 $343 reversed single #
loop $-1 $-1 $257 $160 #
plane-surface $-1 0 18.868013291853558 0 0 -1 0 0 0 -1 forward_v I I I I #
coedge $-1 $344 $255 $258 $345 forward $161 $-1 #
coedge $-1 $261 $163 $164 $249 reversed $101 $-1 #
coedge $-1 $255 $344 $163 $247 reversed $161 $-1 #
edge $-1 $262 -4.261440448246451 $346 4.261440448246451 $246 $347 forward 7 unknown #
coedge $-1 $165 $164 $344 $348 forward $65 $-1 #
edge $-1 $253 -46.047547837763602 $346 46.047547837763602 $245 $349 forward 7 unknown #
coedge $-1 $258 $257 $165 $251 reversed $242 $-1 #
edge $-1 $350 -46.047547837763602 $252 46.047547837763602 $250 $351 forward 7 unknown #
vertex $-1 $167 $352 #
vertex $-1 $264 $353 #
straight-curve $-1 46.047547837763602 0 -4.261440448246451 0 -1 0 I I #
coedge $-1 $244 $246 $168 $256 reversed $161 $-1 #
edge $-1 $259 -18.868013291853558 $262 18.868013291853558 $255 $354 forward 7 unknown #
coedge $-1 $250 $169 $174 $265 forward $242 $-1 #
coedge $-1 $169 $250 $244 $345 reversed $242 $-1 #
vertex $-1 $170 $355 #
straight-curve $-1 0 18.868013291853558 4.261440448246451 -1 0 0 I I #
coedge $-1 $171 $245 $173 $264 reversed $101 $-1 #
vertex $-1 $256 $356 #
straight-curve $-1 0 -18.868013291853558 4.261440448246451 1 0 0 I I #
edge $-1 $176 -4.261440448246451 $253 4.261440448246451 $173 $357 forward 7 unknown #
edge $-1 $177 -4.261440448246451 $252 4.261440448246451 $174 $358 forward 7 unknown #
point $-1 46.047547837763602 -18.868013291853558 4.261440448246451 #
point $-1 46.047547837763602 18.868013291853558 4.261440448246451 #
face $-1 $-1 $285 $25 $-1 $359 forward single #
loop $-1 $-1 $360 $179 #
plane-surface $-1 -37.524666941270702 -21.653611843206498 0 -1 0 0 0 0 1 forward_v I I I I #
coedge $-1 $361 $182 $275 $362 reversed $109 $-1 #
coedge $-1 $182 $361 $363 $364 reversed $109 $-1 #
coedge $-1 $190 $189 $182 $274 reversed $180 $-1 #
edge $-1 $365 -4.261440448246451 $366 4.261440448246451 $273 $367 forward 7 unknown #
coedge $-1 $184 $183 $271 $362 forward $69 $-1 #
coedge $-1 $281 $360 $183 $277 reversed $269 $-1 #
edge $-1 $279 -2.7855985513529404 $368 2.7855985513529404 $276 $369 forward 7 unknown #
edge $-1 $366 -2.7855985513529404 $191 2.7855985513529404 $189 $370 forward 7 unknown #
vertex $-1 $277 $371 #
straight-curve $-1 0 -18.868013291853558 -4.261440448246451 1 0 0 I I #
coedge $-1 $372 $276 $186 $282 reversed $269 $-1 #
edge $-1 $286 -4.261440448246451 $279 4.261440448246451 $281 $373 forward 7 unknown #
coedge $-1 $363 $187 $190 $288 forward $285 $-1 #
coedge $-1 $187 $363 $372 $374 forward $285 $-1 #
loop $-1 $-1 $187 $268 #
vertex $-1 $188 $375 #
straight-curve $-1 0 -18.868013291853558 4.261440448246451 -1 0 0 I I #
edge $-1 $192 -2.7855985513529404 $365 2.7855985513529404 $190 $376 forward 7 unknown #
point $-1 -40.524666941270702 -18.868013291853558 -4.261440448246451 #
point $-1 -40.524666941270702 -18.868013291853558 4.261440448246451 #
plane-surface $-1 0 0 4.261440448246451 0 0 1 1 0 0 forward_v I I I I #
coedge $-1 $302 $301 $294 $377 forward $195 $-1 #
coedge $-1 $294 $197 $199 $298 reversed $117 $-1 #
coedge $-1 $197 $293 $292 $377 reversed $117 $-1 #
coedge $-1 $205 $200 $197 $296 forward $206 $-1 #
edge $-1 $299 -7.5636470995505931 $378 -2.7256883888828867 $295 $379 forward 7 unknown #
coedge $-1 $199 $198 $302 $380 reversed $73 $-1 #
edge $-1 $381 -8.5602302459286524e-015 $299 5.8356326654342441 $293 $382 forward 7 unknown #
vertex $-1 $201 $383 #
straight-curve $-1 -41.209589127095896 5.2379529972968548 4.2614404482464501 0 1 0 I I #
coedge $-1 $292 $202 $205 $306 reversed $195 $-1 #
coedge $-1 $202 $292 $297 $380 forward $195 $-1 #
vertex $-1 $203 $384 #
straight-curve $-1 -46.047547837763602 6.6926004212435561 38.674245071833418 0 0 1 I I #
straight-curve $-1 -46.047547837763595 6.6926004212435561 0.99819603206219654 -0.82903756765294845 0 -0.55919291073839883 I I #
edge $-1 $378 -14.259211567943863 $207 -6.6926004212435561 $301 $385 forward 7 unknown #
point $-1 -46.047547837763602 6.6926004212435561 4.261440448246451 #
point $-1 -41.209589127095896 6.6926004212435561 4.2614404482464501 #
edge $-1 $386 1 $386 0 $210 $-1 forward 7 unknown #
vertex $-1 $211 $387 #
ellipse-curve $-1 -41.715209567263372 8.8544893203007895 -0.20685295258671194 -0.55919291073839883 0 0.82903756765294845 0.82903756765294845 0 0.55919291073839883 1 I I #
point $-1 -42.79953091477681 8.8544893203007895 3.1890111508927261 #
edge $-1 $388 1 $388 0 $214 $-1 forward 7 unknown #
vertex $-1 $215 $389 #
ellipse-curve $-1 -41.715209567263372 12.097322668886637 -0.20685295258671194 -0.55919291073839883 0 0.82903756765294845 0.82903756765294845 0 0.55919291073839883 1 I I #
point $-1 -42.79953091477681 12.097322668886637 3.1890111508927261 #
loop $-1 $-1 $226 $218 #
plane-surface $-1 46.047547837763602 0 0 -1 0 0 0 0 1 forward_v I I I I #
coedge $-1 $320 $221 $223 $324 reversed $139 $-1 #
coedge $-1 $221 $319 $390 $391 reversed $139 $-1 #
coedge $-1 $229 $224 $221 $322 forward $219 $-1 #
edge $-1 $325 9.0922365196695409 $392 11.71561845512592 $321 $393 forward 7 unknown #
coedge $-1 $223 $222 $328 $394 reversed $87 $-1 #
edge $-1 $395 -92.095095675527205 $325 -87.52136875383647 $319 $396 forward 7 unknown #
vertex $-1 $225 $397 #
straight-curve $-1 43.424165902307223 1.9699249853734138 4.2614404482464536 0 -1 0 I I #
coedge $-1 $390 $226 $229 $332 reversed $317 $-1 #
coedge $-1 $226 $390 $323 $394 forward $317 $-1 #
vertex $-1 $227 $398 #
straight-curve $-1 46.047547837763602 8.087576962553074 64.389162503489175 0 0 1 I I #
straight-curve $-1 -6.7760278754087011 8.087576962553074 75.954749293806032 0.57357642473473569 0 -0.81915205242281985 I I #
edge $-1 $392 -0.20787702105941896 $230 8.087576962553074 $327 $399 forward 7 unknown #
point $-1 46.047547837763602 8.087576962553074 4.261440448246451 #
point $-1 43.424165902307223 8.087576962553074 4.2614404482464465 #
edge $-1 $400 1 $400 0 $233 $-1 forward 7 unknown #
vertex $-1 $234 $401 #
ellipse-curve $-1 43.194487549676289 2.1622526885441502 1.3088731659783424 0.81915205242281985 0 0.57357642473473569 0.28678821236736785 0 -0.40957602621140993 1 I I #
point $-1 45.022645082402782 2.1622526885441502 1.978575524472802 #
edge $-1 $402 1 $402 0 $237 $-1 forward 7 unknown #
vertex $-1 $238 $403 #
ellipse-curve $-1 43.194487549676289 5.7174472529495048 1.3088731659783424 0.81915205242281985 0 0.57357642473473569 0.28678821236736785 0 -0.40957602621140993 1 I I #
point $-1 45.022645082402782 5.7174472529495048 1.978575524472802 #
plane-surface $-1 46.047547837763602 0 0 -1 0 0 0 0 1 forward_v I I I I #
coedge $-1 $246 $244 $248 $348 reversed $161 $-1 #
edge $-1 $259 -4.261440448246451 $350 4.261440448246451 $258 $404 forward 7 unknown #
vertex $-1 $348 $405 #
straight-curve $-1 -46.047547837763602 -18.868013291853558 0 0 0 -1 I I #
edge $-1 $346 -18.868013291853558 $350 18.868013291853558 $344 $406 forward 7 unknown #
straight-curve $-1 0 -18.868013291853558 -4.261440448246451 -1 0 0 I I #
vertex $-1 $251 $407 #
straight-curve $-1 0 18.868013291853558 -4.261440448246451 1 0 0 I I #
point $-1 46.047547837763602 18.868013291853558 -4.261440448246451 #
point $-1 46.047547837763602 -18.868013291853558 -4.261440448246451 #
straight-curve $-1 -46.047547837763602 0 4.261440448246451 0 -1 0 I I #
point $-1 -46.047547837763602 18.868013291853558 4.261440448246451 #
point $-1 -46.047547837763602 -18.868013291853558 4.261440448246451 #
straight-curve $-1 46.047547837763602 -18.868013291853558 0 0 0 -1 I I #
straight-curve $-1 46.047547837763602 18.868013291853558 0 0 0 -1 I I #
plane-surface $-1 0 0 4.261440448246451 0 0 1 1 0 0 forward_v I I I I #
coedge $-1 $276 $372 $361 $408 forward $269 $-1 #
coedge $-1 $272 $271 $360 $408 reversed $109 $-1 #
edge $-1 $368 -1.5 $366 1.5 $271 $409 forward 7 unknown #
coedge $-1 $284 $283 $272 $364 forward $285 $-1 #
edge $-1 $365 -1.5 $410 1.5 $272 $411 forward 7 unknown #
vertex $-1 $288 $412 #
vertex $-1 $278 $413 #
straight-curve $-1 -40.524666941270702 -24.439210394559439 0 0 0 -1 I I #
vertex $-1 $408 $414 #
straight-curve $-1 -37.524666941270702 -21.653611843206498 -4.261440448246451 0 -1 0 I I #
straight-curve $-1 -40.524666941270702 -21.653611843206498 -4.261440448246451 0 1 0 I I #
point $-1 -37.524666941270702 -18.868013291853558 -4.261440448246451 #
coedge $-1 $360 $281 $284 $374 reversed $269 $-1 #
straight-curve $-1 -37.524666941270702 -18.868013291853558 0 0 0 -1 I I #
edge $-1 $410 -2.7855985513529404 $286 2.7855985513529404 $372 $415 forward 7 unknown #
point $-1 -37.524666941270702 -18.868013291853558 4.261440448246451 #
straight-curve $-1 -40.524666941270702 -21.653611843206498 4.261440448246451 0 -1 0 I I #
edge $-1 $378 34.412804623586965 $381 37.676049039771229 $292 $416 forward 7 unknown #
vertex $-1 $306 $417 #
straight-curve $-1 -48.773236226646489 14.259211567943863 4.2614404482464536 -1 0 0 I I #
edge $-1 $381 -9.0212585706470083 $303 -1.4546474239467013 $302 $418 forward 7 unknown #
vertex $-1 $380 $419 #
straight-curve $-1 -46.047547837763595 14.259211567943863 0.99819603206219654 0.82903756765294845 0 0.55919291073839883 I I #
point $-1 -41.209589127095896 14.259211567943863 4.2614404482464501 #
point $-1 -46.047547837763602 6.6926004212435561 0.99819603206219176 #
straight-curve $-1 -46.047547837763602 0 4.261440448246451 0 -1 0 I I #
vertex $-1 $309 $420 #
point $-1 -40.886171999610418 8.8544893203007895 0.35233995815168684 #
vertex $-1 $313 $421 #
point $-1 -40.886171999610418 12.097322668886637 0.35233995815168684 #
coedge $-1 $328 $327 $320 $391 forward $317 $-1 #
edge $-1 $392 60.127722055242721 $395 63.874299850367208 $390 $422 forward 7 unknown #
vertex $-1 $332 $423 #
straight-curve $-1 34.331929382637682 -0.20787702105941896 4.2614404482464536 1 0 0 I I #
edge $-1 $395 -2.1778020064328327 $329 6.1176519771796602 $328 $424 forward 7 unknown #
vertex $-1 $394 $425 #
straight-curve $-1 -6.7760278754087011 -0.20787702105941896 75.954749293806032 -0.57357642473473569 0 0.81915205242281985 I I #
point $-1 43.424165902307223 -0.20787702105941896 4.2614404482464465 #
point $-1 46.047547837763602 8.087576962553074 0.51486265312196622 #
straight-curve $-1 46.047547837763602 0 4.261440448246451 0 1 0 I I #
vertex $-1 $335 $426 #
point $-1 43.481275762043659 2.1622526885441502 0.89929713976693249 #
vertex $-1 $339 $427 #
point $-1 43.481275762043659 5.7174472529495048 0.89929713976693249 #
straight-curve $-1 -46.047547837763602 18.868013291853558 0 0 0 -1 I I #
point $-1 -46.047547837763602 -18.868013291853558 -4.261440448246451 #
straight-curve $-1 -46.047547837763602 0 -4.261440448246451 0 1 0 I I #
point $-1 -46.047547837763602 18.868013291853558 -4.261440448246451 #
edge $-1 $410 -4.261440448246451 $368 4.261440448246451 $360 $428 forward 7 unknown #
straight-curve $-1 -39.024666941270702 -24.439210394559439 -4.261440448246451 -1 0 0 I I #
vertex $-1 $374 $429 #
straight-curve $-1 -39.024666941270702 -24.439210394559439 4.261440448246451 1 0 0 I I #
point $-1 -40.524666941270702 -24.439210394559439 4.261440448246451 #
point $-1 -40.524666941270702 -24.439210394559439 -4.261440448246451 #
point $-1 -37.524666941270702 -24.439210394559439 -4.261440448246451 #
straight-curve $-1 -37.524666941270702 -21.653611843206498 4.261440448246451 0 1 0 I I #
straight-curve $-1 -46.047547837763602 14.259211567943863 38.674245071833418 0 0 -1 I I #
point $-1 -46.047547837763602 14.259211567943863 4.261440448246451 #
straight-curve $-1 -46.047547837763602 5.2379529972968548 0.99819603206219176 0 -1 0 I I #
point $-1 -46.047547837763602 14.259211567943863 0.99819603206219176 #
point $-1 -41.156016656524969 8.8544893203007895 -1.0358905202396607 #
point $-1 -41.156016656524969 12.097322668886637 -1.0358905202396607 #
straight-curve $-1 46.047547837763602 -0.20787702105941896 64.389162503489175 0 0 -1 I I #
point $-1 46.047547837763602 -0.20787702105941896 4.261440448246451 #
straight-curve $-1 46.047547837763609 1.9699249853734138 0.51486265312195911 0 1 0 I I #
point $-1 46.047547837763602 -0.20787702105941896 0.51486265312196622 #
point $-1 42.784911523464878 2.1622526885441502 1.0220849536109746 #
point $-1 42.784911523464878 5.7174472529495048 1.0220849536109746 #
straight-curve $-1 -37.524666941270702 -24.439210394559439 0 0 0 -1 I I #
point $-1 -37.524666941270702 -24.439210394559439 4.261440448246451 #
End-of-ACIS-data 