500 0 19 0           
7 Unknown 11 ACIS 5.0 NT 24 Thu Mar 25 21:48:53 1999 
-1 9.9999999999999995e-007 1e-010 
body $-1 $19 $-1 $20 #
body $-1 $21 $-1 $22 #
body $-1 $23 $-1 $24 #
body $-1 $25 $-1 $26 #
body $-1 $27 $-1 $28 #
body $-1 $29 $-1 $30 #
body $-1 $31 $-1 $32 #
body $-1 $33 $-1 $34 #
body $-1 $35 $-1 $36 #
body $-1 $37 $-1 $38 #
body $-1 $39 $-1 $40 #
body $-1 $41 $-1 $42 #
body $-1 $43 $-1 $44 #
body $-1 $45 $-1 $46 #
body $-1 $47 $-1 $48 #
body $-1 $49 $-1 $50 #
body $-1 $51 $-1 $52 #
body $-1 $53 $-1 $54 #
body $-1 $55 $-1 $56 #
lump $-1 $-1 $57 $0 #
transform $-1 1 0 0 0 1 0 0 0 1 66.667073580126356 28.414940324718305 11.163402502156551 1 rotate no_reflect no_shear #
lump $-1 $-1 $58 $1 #
transform $-1 1 0 0 0 1 0 0 0 1 66.667073580126356 28.414940324718305 11.163402502156551 1 rotate no_reflect no_shear #
lump $-1 $-1 $59 $2 #
transform $-1 1 0 0 0 1 0 0 0 1 66.667073580126356 28.414940324718305 11.163402502156551 1 rotate no_reflect no_shear #
lump $-1 $-1 $60 $3 #
transform $-1 1 0 0 0 1 0 0 0 1 66.667073580126356 28.414940324718305 11.163402502156551 1 rotate no_reflect no_shear #
lump $-1 $-1 $61 $4 #
transform $-1 1 0 0 0 1 0 0 0 1 66.667073580126356 28.414940324718305 11.163402502156551 1 rotate no_reflect no_shear #
lump $-1 $-1 $62 $5 #
transform $-1 1 0 0 0 1 0 0 0 1 66.667073580126356 28.414940324718305 11.163402502156551 1 rotate no_reflect no_shear #
lump $-1 $-1 $63 $6 #
transform $-1 1 0 0 0 1 0 0 0 1 66.667073580126356 28.414940324718305 11.163402502156551 1 rotate no_reflect no_shear #
lump $-1 $-1 $64 $7 #
transform $-1 1 0 0 0 1 0 0 0 1 66.667073580126356 28.414940324718305 11.163402502156551 1 rotate no_reflect no_shear #
lump $-1 $-1 $65 $8 #
transform $-1 1 0 0 0 1 0 0 0 1 66.667073580126356 28.414940324718305 11.163402502156551 1 rotate no_reflect no_shear #
lump $-1 $-1 $66 $9 #
transform $-1 1 0 0 0 1 0 0 0 1 66.667073580126356 28.414940324718305 11.163402502156551 1 rotate no_reflect no_shear #
lump $-1 $-1 $67 $10 #
transform $-1 1 0 0 0 1 0 0 0 1 66.667073580126356 28.414940324718305 11.163402502156551 1 rotate no_reflect no_shear #
lump $-1 $-1 $68 $11 #
transform $-1 1 0 0 0 1 0 0 0 1 66.667073580126356 28.414940324718305 11.163402502156551 1 rotate no_reflect no_shear #
lump $-1 $-1 $69 $12 #
transform $-1 1 0 0 0 1 0 0 0 1 66.667073580126356 28.414940324718305 11.163402502156551 1 rotate no_reflect no_shear #
lump $-1 $-1 $70 $13 #
transform $-1 1 0 0 0 1 0 0 0 1 66.667073580126356 28.414940324718305 11.163402502156551 1 rotate no_reflect no_shear #
lump $-1 $-1 $71 $14 #
transform $-1 1 0 0 0 1 0 0 0 1 66.667073580126356 28.414940324718305 11.163402502156551 1 rotate no_reflect no_shear #
lump $-1 $-1 $72 $15 #
transform $-1 1 0 0 0 1 0 0 0 1 66.667073580126356 28.414940324718305 11.163402502156551 1 rotate no_reflect no_shear #
lump $-1 $-1 $73 $16 #
transform $-1 1 0 0 0 1 0 0 0 1 66.667073580126356 28.414940324718305 11.163402502156551 1 rotate no_reflect no_shear #
lump $-1 $-1 $74 $17 #
transform $-1 1 0 0 0 1 0 0 0 1 66.667073580126356 28.414940324718305 11.163402502156551 1 rotate no_reflect no_shear #
lump $-1 $-1 $75 $18 #
transform $-1 1 0 0 0 1 0 0 0 1 66.667073580126356 28.414940324718305 11.163402502156551 1 rotate no_reflect no_shear #
shell $-1 $-1 $-1 $76 $-1 $19 #
shell $-1 $-1 $-1 $77 $-1 $21 #
shell $-1 $-1 $-1 $78 $-1 $23 #
shell $-1 $-1 $-1 $79 $-1 $25 #
shell $-1 $-1 $-1 $80 $-1 $27 #
shell $-1 $-1 $-1 $81 $-1 $29 #
shell $-1 $-1 $-1 $82 $-1 $31 #
shell $-1 $-1 $-1 $83 $-1 $33 #
shell $-1 $-1 $-1 $84 $-1 $35 #
shell $-1 $-1 $-1 $85 $-1 $37 #
shell $-1 $-1 $-1 $86 $-1 $39 #
shell $-1 $-1 $-1 $87 $-1 $41 #
shell $-1 $-1 $-1 $88 $-1 $43 #
shell $-1 $-1 $-1 $89 $-1 $45 #
shell $-1 $-1 $-1 $90 $-1 $47 #
shell $-1 $-1 $-1 $91 $-1 $49 #
shell $-1 $-1 $-1 $92 $-1 $51 #
shell $-1 $-1 $-1 $93 $-1 $53 #
shell $-1 $-1 $-1 $94 $-1 $55 #
face $-1 $95 $96 $57 $-1 $97 forward single #
face $-1 $98 $99 $58 $-1 $100 reversed single #
face $-1 $101 $102 $59 $-1 $103 reversed single #
face $-1 $104 $105 $60 $-1 $106 reversed single #
face $-1 $107 $108 $61 $-1 $109 forward single #
face $-1 $110 $111 $62 $-1 $112 forward single #
face $-1 $113 $114 $63 $-1 $115 forward single #
face $-1 $116 $117 $64 $-1 $118 reversed single #
face $-1 $119 $120 $65 $-1 $121 forward single #
face $-1 $122 $123 $66 $-1 $124 forward single #
face $-1 $125 $126 $67 $-1 $127 forward single #
face $-1 $128 $129 $68 $-1 $130 reversed single #
face $-1 $131 $132 $69 $-1 $133 forward single #
face $-1 $134 $135 $70 $-1 $136 forward single #
face $-1 $137 $138 $71 $-1 $139 forward single #
face $-1 $140 $141 $72 $-1 $142 reversed single #
face $-1 $143 $144 $73 $-1 $145 forward single #
face $-1 $146 $147 $74 $-1 $148 forward single #
face $-1 $149 $150 $75 $-1 $151 forward single #
face $-1 $152 $153 $57 $-1 $154 reversed single #
loop $-1 $-1 $155 $76 #
plane-surface $-1 0 0 11.163402502156551 0 0 1 1 0 0 forward_v I I I I #
face $-1 $156 $157 $58 $-1 $158 reversed single #
loop $-1 $-1 $159 $77 #
plane-surface $-1 -62.649914655430678 0 8.1634025021565506 0 0 1 1 0 0 forward_v I I I I #
face $-1 $160 $161 $59 $-1 $162 reversed single #
loop $-1 $-1 $163 $78 #
plane-surface $-1 62.649914655430678 0 8.1634025021565506 0 0 1 1 0 0 forward_v I I I I #
face $-1 $164 $165 $60 $-1 $166 reversed single #
loop $-1 $-1 $167 $79 #
plane-surface $-1 -47.110283865300005 107.17509381770903 121.97606378755734 1 0 0 0 -0.82903758062907751 -0.55919289150049634 forward_v I I I I #
face $-1 $168 $169 $61 $-1 $170 forward single #
loop $-1 $171 $172 $80 #
cone-surface $-1 -43.551502665313507 23.962140922174914 5.2001339194996561 0 -0.82903758062907751 -0.55919289150049634 1 0 0 1 I I 0 1 1 forward I I I I #
face $-1 $173 $174 $62 $-1 $175 forward single #
loop $-1 $176 $177 $81 #
cone-surface $-1 -38.213330865333752 23.962140922174914 5.2001339194996561 0 -0.82903758062907751 -0.55919289150049634 1 0 0 1 I I 0 1 1 forward I I I I #
face $-1 $178 $179 $63 $-1 $180 forward single #
loop $-1 $181 $182 $82 #
cone-surface $-1 -32.875159065353998 23.962140922174914 5.2001339194996561 0 -0.82903758062907751 -0.55919289150049634 1 0 0 1 I I 0 1 1 forward I I I I #
face $-1 $183 $184 $64 $-1 $185 reversed single #
loop $-1 $-1 $186 $83 #
plane-surface $-1 -17.793905999932505 107.17509381770903 121.97606378755734 1 0 0 0 -0.82903758062907751 -0.55919289150049634 forward_v I I I I #
face $-1 $187 $188 $65 $-1 $189 forward single #
loop $-1 $190 $191 $84 #
cone-surface $-1 -14.235124799946007 23.962140922174914 5.2001339194996561 0 -0.82903758062907751 -0.55919289150049634 1 0 0 1 I I 0 1 1 forward I I I I #
face $-1 $192 $193 $66 $-1 $194 forward single #
loop $-1 $195 $196 $85 #
cone-surface $-1 -8.8969529999662527 23.962140922174914 5.2001339194996561 0 -0.82903758062907751 -0.55919289150049634 1 0 0 1 I I 0 1 1 forward I I I I #
face $-1 $197 $198 $67 $-1 $199 forward single #
loop $-1 $200 $201 $86 #
cone-surface $-1 -3.5587811999864982 23.962140922174914 5.2001339194996561 0 -0.82903758062907751 -0.55919289150049634 1 0 0 1 I I 0 1 1 forward I I I I #
face $-1 $202 $203 $68 $-1 $204 reversed single #
loop $-1 $-1 $205 $87 #
plane-surface $-1 11.522471865435001 107.17509381770903 121.97606378755734 1 0 0 0 -0.82903758062907751 -0.55919289150049634 forward_v I I I I #
face $-1 $206 $207 $69 $-1 $208 forward single #
loop $-1 $209 $210 $88 #
cone-surface $-1 15.081253065421492 23.962140922174914 5.2001339194996561 0 -0.82903758062907751 -0.55919289150049634 1 0 0 1 I I 0 1 1 forward I I I I #
face $-1 $211 $212 $70 $-1 $213 forward single #
loop $-1 $214 $215 $89 #
cone-surface $-1 20.419424865401254 23.962140922174914 5.2001339194996561 0 -0.82903758062907751 -0.55919289150049634 1 0 0 1 I I 0 1 1 forward I I I I #
face $-1 $216 $217 $71 $-1 $218 forward single #
loop $-1 $219 $220 $90 #
cone-surface $-1 25.757596665381001 23.962140922174914 5.2001339194996561 0 -0.82903758062907751 -0.55919289150049634 1 0 0 1 I I 0 1 1 forward I I I I #
face $-1 $221 $222 $72 $-1 $223 reversed single #
loop $-1 $-1 $224 $91 #
plane-surface $-1 40.838849730802501 107.17509381770903 121.97606378755734 1 0 0 0 -0.82903758062907751 -0.55919289150049634 forward_v I I I I #
face $-1 $225 $226 $73 $-1 $227 forward single #
loop $-1 $228 $229 $92 #
cone-surface $-1 44.397630930788992 23.962140922174914 5.2001339194996561 0 -0.82903758062907751 -0.55919289150049634 1 0 0 1 I I 0 1 1 forward I I I I #
face $-1 $230 $231 $74 $-1 $232 forward single #
loop $-1 $233 $234 $93 #
cone-surface $-1 49.735802730768754 23.962140922174914 5.2001339194996561 0 -0.82903758062907751 -0.55919289150049634 1 0 0 1 I I 0 1 1 forward I I I I #
face $-1 $235 $236 $75 $-1 $237 forward single #
loop $-1 $238 $239 $94 #
cone-surface $-1 55.073974530748501 23.962140922174914 5.2001339194996561 0 -0.82903758062907751 -0.55919289150049634 1 0 0 1 I I 0 1 1 forward I I I I #
face $-1 $240 $241 $57 $-1 $242 reversed single #
loop $-1 $-1 $243 $95 #
plane-surface $-1 0 0 -11.163402502156551 0 0 1 1 0 0 forward_v I I I I #
coedge $-1 $244 $245 $246 $247 forward $96 $-1 #
face $-1 $248 $249 $58 $-1 $250 reversed single #
loop $-1 $-1 $251 $98 #
plane-surface $-1 -58.632755730734999 0 9.6634025021565506 -1 0 0 0 0 1 forward_v I I I I #
coedge $-1 $252 $253 $254 $255 forward $99 $-1 #
face $-1 $256 $257 $59 $-1 $258 forward single #
loop $-1 $-1 $259 $101 #
plane-surface $-1 58.632755730734999 0 9.6634025021565506 1 0 0 0 0 -1 forward_v I I I I #
coedge $-1 $260 $261 $262 $263 reversed $102 $-1 #
face $-1 $264 $265 $60 $-1 $266 reversed single #
loop $-1 $-1 $267 $104 #
plane-surface $-1 -38.213330865333752 -3.3639249592682745 47.416556501262932 0 0.82903758062907751 0.55919289150049634 1 0 0 forward_v I I I I #
coedge $-1 $268 $269 $270 $271 reversed $105 $-1 #
face $-1 $-1 $272 $61 $-1 $273 forward single #
loop $-1 $274 $275 $107 #
cone-surface $-1 -43.551502665313507 22.757725184711116 4.3877452720633983 0 -0.82903758062907751 -0.55919289150049634 0.5 0 0 1 I I -0.70710678118654746 0.70710678118654746 0.5 forward I I I I #
loop $-1 $-1 $276 $80 #
coedge $-1 $172 $172 $277 $278 reversed $108 $-1 #
face $-1 $-1 $279 $62 $-1 $280 forward single #
loop $-1 $281 $282 $110 #
cone-surface $-1 -38.213330865333752 22.757725184711116 4.3877452720633983 0 -0.82903758062907751 -0.55919289150049634 0.5 0 0 1 I I -0.70710678118654746 0.70710678118654746 0.5 forward I I I I #
loop $-1 $-1 $283 $81 #
coedge $-1 $177 $177 $284 $285 reversed $111 $-1 #
face $-1 $-1 $286 $63 $-1 $287 forward single #
loop $-1 $288 $289 $113 #
cone-surface $-1 -32.875159065353998 22.757725184711116 4.3877452720633983 0 -0.82903758062907751 -0.55919289150049634 0.5 0 0 1 I I -0.70710678118654746 0.70710678118654746 0.5 forward I I I I #
loop $-1 $-1 $290 $82 #
coedge $-1 $182 $182 $291 $292 reversed $114 $-1 #
face $-1 $293 $294 $64 $-1 $295 reversed single #
loop $-1 $-1 $296 $116 #
plane-surface $-1 -8.8969529999662527 -3.3639249592682745 47.416556501262932 0 0.82903758062907751 0.55919289150049634 1 0 0 forward_v I I I I #
coedge $-1 $297 $298 $299 $300 reversed $117 $-1 #
face $-1 $-1 $301 $65 $-1 $302 forward single #
loop $-1 $303 $304 $119 #
cone-surface $-1 -14.235124799946007 22.757725184711116 4.3877452720633983 0 -0.82903758062907751 -0.55919289150049634 0.5 0 0 1 I I -0.70710678118654746 0.70710678118654746 0.5 forward I I I I #
loop $-1 $-1 $305 $84 #
coedge $-1 $191 $191 $306 $307 reversed $120 $-1 #
face $-1 $-1 $308 $66 $-1 $309 forward single #
loop $-1 $310 $311 $122 #
cone-surface $-1 -8.8969529999662527 22.757725184711116 4.3877452720633983 0 -0.82903758062907751 -0.55919289150049634 0.5 0 0 1 I I -0.70710678118654746 0.70710678118654746 0.5 forward I I I I #
loop $-1 $-1 $312 $85 #
coedge $-1 $196 $196 $313 $314 reversed $123 $-1 #
face $-1 $-1 $315 $67 $-1 $316 forward single #
loop $-1 $317 $318 $125 #
cone-surface $-1 -3.5587811999864982 22.757725184711116 4.3877452720633983 0 -0.82903758062907751 -0.55919289150049634 0.5 0 0 1 I I -0.70710678118654746 0.70710678118654746 0.5 forward I I I I #
loop $-1 $-1 $319 $86 #
coedge $-1 $201 $201 $320 $321 reversed $126 $-1 #
face $-1 $322 $323 $68 $-1 $324 reversed single #
loop $-1 $-1 $325 $128 #
plane-surface $-1 20.419424865401254 -3.3639249592682745 47.416556501262932 0 0.82903758062907751 0.55919289150049634 1 0 0 forward_v I I I I #
coedge $-1 $326 $327 $328 $329 reversed $129 $-1 #
face $-1 $-1 $330 $69 $-1 $331 forward single #
loop $-1 $332 $333 $131 #
cone-surface $-1 15.081253065421492 22.757725184711116 4.3877452720633983 0 -0.82903758062907751 -0.55919289150049634 0.5 0 0 1 I I -0.70710678118654746 0.70710678118654746 0.5 forward I I I I #
loop $-1 $-1 $334 $88 #
coedge $-1 $210 $210 $335 $336 reversed $132 $-1 #
face $-1 $-1 $337 $70 $-1 $338 forward single #
loop $-1 $339 $340 $134 #
cone-surface $-1 20.419424865401254 22.757725184711116 4.3877452720633983 0 -0.82903758062907751 -0.55919289150049634 0.5 0 0 1 I I -0.70710678118654746 0.70710678118654746 0.5 forward I I I I #
loop $-1 $-1 $341 $89 #
coedge $-1 $215 $215 $342 $343 reversed $135 $-1 #
face $-1 $-1 $344 $71 $-1 $345 forward single #
loop $-1 $346 $347 $137 #
cone-surface $-1 25.757596665381001 22.757725184711116 4.3877452720633983 0 -0.82903758062907751 -0.55919289150049634 0.5 0 0 1 I I -0.70710678118654746 0.70710678118654746 0.5 forward I I I I #
loop $-1 $-1 $348 $90 #
coedge $-1 $220 $220 $349 $350 reversed $138 $-1 #
face $-1 $351 $352 $72 $-1 $353 forward single #
loop $-1 $-1 $354 $140 #
plane-surface $-1 49.735802730768754 -3.3639249592682745 47.416556501262932 0 0.82903758062907751 0.55919289150049634 1 0 0 forward_v I I I I #
coedge $-1 $355 $356 $357 $358 reversed $141 $-1 #
face $-1 $-1 $359 $73 $-1 $360 forward single #
loop $-1 $361 $362 $143 #
cone-surface $-1 44.397630930788992 22.757725184711116 4.3877452720633983 0 -0.82903758062907751 -0.55919289150049634 0.5 0 0 1 I I -0.70710678118654746 0.70710678118654746 0.5 forward I I I I #
loop $-1 $-1 $363 $92 #
coedge $-1 $229 $229 $364 $365 reversed $144 $-1 #
face $-1 $-1 $366 $74 $-1 $367 forward single #
loop $-1 $368 $369 $146 #
cone-surface $-1 49.735802730768754 22.757725184711116 4.3877452720633983 0 -0.82903758062907751 -0.55919289150049634 0.5 0 0 1 I I -0.70710678118654746 0.70710678118654746 0.5 forward I I I I #
loop $-1 $-1 $370 $93 #
coedge $-1 $234 $234 $371 $372 reversed $147 $-1 #
face $-1 $-1 $373 $75 $-1 $374 forward single #
loop $-1 $375 $376 $149 #
cone-surface $-1 55.073974530748501 22.757725184711116 4.3877452720633983 0 -0.82903758062907751 -0.55919289150049634 0.5 0 0 1 I I -0.70710678118654746 0.70710678118654746 0.5 forward I I I I #
loop $-1 $-1 $377 $94 #
coedge $-1 $239 $239 $378 $379 reversed $150 $-1 #
face $-1 $380 $381 $57 $-1 $382 reversed single #
loop $-1 $-1 $383 $152 #
plane-surface $-1 0 -28.414940324718305 0 0 1 0 0 0 1 forward_v I I I I #
coedge $-1 $384 $385 $386 $387 forward $153 $-1 #
coedge $-1 $388 $155 $389 $390 forward $96 $-1 #
coedge $-1 $155 $388 $391 $392 forward $96 $-1 #
coedge $-1 $393 $394 $155 $247 reversed $395 $-1 #
edge $-1 $396 -28.414940324718305 $397 28.414940324718305 $246 $398 forward 7 unknown #
face $-1 $399 $400 $58 $-1 $401 reversed single #
loop $-1 $-1 $402 $156 #
plane-surface $-1 0 28.414940324718305 0 0 -1 0 0 0 -1 forward_v I I I I #
coedge $-1 $254 $403 $404 $405 reversed $157 $-1 #
coedge $-1 $406 $159 $407 $408 reversed $99 $-1 #
coedge $-1 $159 $406 $409 $410 reversed $99 $-1 #
coedge $-1 $411 $251 $159 $255 reversed $157 $-1 #
edge $-1 $412 -28.414940324718305 $413 28.414940324718305 $254 $414 forward 7 unknown #
face $-1 $415 $416 $59 $-1 $417 reversed single #
loop $-1 $-1 $418 $160 #
plane-surface $-1 0 0 11.163402502156551 0 0 1 1 0 0 forward_v I I I I #
coedge $-1 $419 $420 $421 $422 reversed $161 $-1 #
coedge $-1 $421 $163 $423 $424 reversed $102 $-1 #
coedge $-1 $163 $421 $425 $426 reversed $102 $-1 #
coedge $-1 $427 $428 $163 $263 forward $429 $-1 #
edge $-1 $430 -28.414940324718305 $431 28.414940324718305 $262 $432 forward 7 unknown #
face $-1 $433 $434 $60 $-1 $435 reversed single #
loop $-1 $-1 $436 $164 #
plane-surface $-1 -29.3163778653675 107.17509381770903 121.97606378755734 -1 0 0 0 0.82903758062907751 0.55919289150049634 forward_v I I I I #
coedge $-1 $437 $438 $439 $440 reversed $165 $-1 #
coedge $-1 $269 $167 $441 $442 reversed $105 $-1 #
coedge $-1 $167 $268 $437 $443 reversed $105 $-1 #
coedge $-1 $439 $444 $167 $271 forward $445 $-1 #
edge $-1 $446 25.172606584136208 $447 32.498411494924497 $270 $448 forward 7 unknown #
loop $-1 $-1 $277 $168 #
plane-surface $-1 -38.213330865333752 -3.3639249592682745 47.416556501262932 0 0.82903758062907751 0.55919289150049634 1 0 0 forward_v I I I I #
loop $-1 $-1 $449 $107 #
coedge $-1 $275 $275 $276 $450 reversed $169 $-1 #
coedge $-1 $276 $276 $275 $450 forward $171 $-1 #
coedge $-1 $277 $277 $172 $278 forward $272 $-1 #
edge $-1 $451 -1.6257238081696686e-015 $451 6.2831853071795987 $277 $452 forward 7 unknown #
loop $-1 $-1 $284 $173 #
plane-surface $-1 -38.213330865333752 -3.3639249592682745 47.416556501262932 0 0.82903758062907751 0.55919289150049634 1 0 0 forward_v I I I I #
loop $-1 $-1 $453 $110 #
coedge $-1 $282 $282 $283 $454 reversed $174 $-1 #
coedge $-1 $283 $283 $282 $454 forward $176 $-1 #
coedge $-1 $284 $284 $177 $285 forward $279 $-1 #
edge $-1 $455 -1.6257238081696686e-015 $455 6.2831853071795987 $284 $456 forward 7 unknown #
loop $-1 $-1 $291 $178 #
plane-surface $-1 -38.213330865333752 -3.3639249592682745 47.416556501262932 0 0.82903758062907751 0.55919289150049634 1 0 0 forward_v I I I I #
loop $-1 $-1 $457 $113 #
coedge $-1 $289 $289 $290 $458 reversed $179 $-1 #
coedge $-1 $290 $290 $289 $458 forward $181 $-1 #
coedge $-1 $291 $291 $182 $292 forward $286 $-1 #
edge $-1 $459 -1.6257238081696686e-015 $459 6.2831853071795987 $291 $460 forward 7 unknown #
face $-1 $461 $462 $64 $-1 $463 forward single #
loop $-1 $-1 $464 $183 #
plane-surface $-1 0 107.17509381770903 121.97606378755734 -1 0 0 0 0.82903758062907751 0.55919289150049634 forward_v I I I I #
coedge $-1 $465 $466 $467 $468 reversed $184 $-1 #
coedge $-1 $298 $186 $469 $470 reversed $117 $-1 #
coedge $-1 $186 $297 $465 $471 reversed $117 $-1 #
coedge $-1 $467 $472 $186 $300 forward $462 $-1 #
edge $-1 $473 25.172606584136208 $474 32.498411494924497 $299 $475 forward 7 unknown #
loop $-1 $-1 $306 $187 #
plane-surface $-1 -8.8969529999662527 -3.3639249592682745 47.416556501262932 0 0.82903758062907751 0.55919289150049634 1 0 0 forward_v I I I I #
loop $-1 $-1 $476 $119 #
coedge $-1 $304 $304 $305 $477 reversed $188 $-1 #
coedge $-1 $305 $305 $304 $477 forward $190 $-1 #
coedge $-1 $306 $306 $191 $307 forward $301 $-1 #
edge $-1 $478 -1.6257238081696686e-015 $478 6.2831853071795987 $306 $479 forward 7 unknown #
loop $-1 $-1 $313 $192 #
plane-surface $-1 -8.8969529999662527 -3.3639249592682745 47.416556501262932 0 0.82903758062907751 0.55919289150049634 1 0 0 forward_v I I I I #
loop $-1 $-1 $480 $122 #
coedge $-1 $311 $311 $312 $481 reversed $193 $-1 #
coedge $-1 $312 $312 $311 $481 forward $195 $-1 #
coedge $-1 $313 $313 $196 $314 forward $308 $-1 #
edge $-1 $482 -1.6257238081696686e-015 $482 6.2831853071795987 $313 $483 forward 7 unknown #
loop $-1 $-1 $320 $197 #
plane-surface $-1 -8.8969529999662527 -3.3639249592682745 47.416556501262932 0 0.82903758062907751 0.55919289150049634 1 0 0 forward_v I I I I #
loop $-1 $-1 $484 $125 #
coedge $-1 $318 $318 $319 $485 reversed $198 $-1 #
coedge $-1 $319 $319 $318 $485 forward $200 $-1 #
coedge $-1 $320 $320 $201 $321 forward $315 $-1 #
edge $-1 $486 -1.6257238081696686e-015 $486 6.2831853071795987 $320 $487 forward 7 unknown #
face $-1 $488 $489 $68 $-1 $490 forward single #
loop $-1 $-1 $491 $202 #
plane-surface $-1 29.316377865367507 107.17509381770903 121.97606378755734 -1 0 0 0 0.82903758062907751 0.55919289150049634 forward_v I I I I #
coedge $-1 $492 $493 $494 $495 reversed $203 $-1 #
coedge $-1 $327 $205 $496 $497 reversed $129 $-1 #
coedge $-1 $205 $326 $492 $498 reversed $129 $-1 #
coedge $-1 $494 $499 $205 $329 forward $489 $-1 #
edge $-1 $500 25.172606584136208 $501 32.498411494924497 $328 $502 forward 7 unknown #
loop $-1 $-1 $335 $206 #
plane-surface $-1 20.419424865401254 -3.3639249592682745 47.416556501262932 0 0.82903758062907751 0.55919289150049634 1 0 0 forward_v I I I I #
loop $-1 $-1 $503 $131 #
coedge $-1 $333 $333 $334 $504 reversed $207 $-1 #
coedge $-1 $334 $334 $333 $504 forward $209 $-1 #
coedge $-1 $335 $335 $210 $336 forward $330 $-1 #
edge $-1 $505 -1.6257238081696686e-015 $505 6.2831853071795987 $335 $506 forward 7 unknown #
loop $-1 $-1 $342 $211 #
plane-surface $-1 20.419424865401254 -3.3639249592682745 47.416556501262932 0 0.82903758062907751 0.55919289150049634 1 0 0 forward_v I I I I #
loop $-1 $-1 $507 $134 #
coedge $-1 $340 $340 $341 $508 reversed $212 $-1 #
coedge $-1 $341 $341 $340 $508 forward $214 $-1 #
coedge $-1 $342 $342 $215 $343 forward $337 $-1 #
edge $-1 $509 -1.6257238081696686e-015 $509 6.2831853071795987 $342 $510 forward 7 unknown #
loop $-1 $-1 $349 $216 #
plane-surface $-1 20.419424865401254 -3.3639249592682745 47.416556501262932 0 0.82903758062907751 0.55919289150049634 1 0 0 forward_v I I I I #
loop $-1 $-1 $511 $137 #
coedge $-1 $347 $347 $348 $512 reversed $217 $-1 #
coedge $-1 $348 $348 $347 $512 forward $219 $-1 #
coedge $-1 $349 $349 $220 $350 forward $344 $-1 #
edge $-1 $513 -1.6257238081696686e-015 $513 6.2831853071795987 $349 $514 forward 7 unknown #
face $-1 $515 $516 $72 $-1 $517 forward single #
loop $-1 $-1 $357 $221 #
plane-surface $-1 0 0 11.163402502156551 0 0 1 1 0 0 forward_v I I I I #
coedge $-1 $518 $519 $520 $521 reversed $222 $-1 #
coedge $-1 $356 $224 $522 $523 reversed $141 $-1 #
coedge $-1 $224 $355 $518 $524 reversed $141 $-1 #
coedge $-1 $520 $525 $224 $358 forward $352 $-1 #
edge $-1 $526 25.172606584136208 $527 32.498411494924497 $357 $528 forward 7 unknown #
loop $-1 $-1 $364 $225 #
plane-surface $-1 49.735802730768754 -3.3639249592682745 47.416556501262932 0 0.82903758062907751 0.55919289150049634 1 0 0 forward_v I I I I #
loop $-1 $-1 $529 $143 #
coedge $-1 $362 $362 $363 $530 reversed $226 $-1 #
coedge $-1 $363 $363 $362 $530 forward $228 $-1 #
coedge $-1 $364 $364 $229 $365 forward $359 $-1 #
edge $-1 $531 -1.6257238081696686e-015 $531 6.2831853071795987 $364 $532 forward 7 unknown #
loop $-1 $-1 $371 $230 #
plane-surface $-1 49.735802730768754 -3.3639249592682745 47.416556501262932 0 0.82903758062907751 0.55919289150049634 1 0 0 forward_v I I I I #
loop $-1 $-1 $533 $146 #
coedge $-1 $369 $369 $370 $534 reversed $231 $-1 #
coedge $-1 $370 $370 $369 $534 forward $233 $-1 #
coedge $-1 $371 $371 $234 $372 forward $366 $-1 #
edge $-1 $535 -1.6257238081696686e-015 $535 6.2831853071795987 $371 $536 forward 7 unknown #
loop $-1 $-1 $378 $235 #
plane-surface $-1 49.735802730768754 -3.3639249592682745 47.416556501262932 0 0.82903758062907751 0.55919289150049634 1 0 0 forward_v I I I I #
loop $-1 $-1 $537 $149 #
coedge $-1 $376 $376 $377 $538 reversed $236 $-1 #
coedge $-1 $377 $377 $376 $538 forward $238 $-1 #
coedge $-1 $378 $378 $239 $379 forward $373 $-1 #
edge $-1 $539 -1.6257238081696686e-015 $539 6.2831853071795987 $378 $540 forward 7 unknown #
face $-1 $541 $542 $57 $-1 $543 reversed single #
loop $-1 $-1 $544 $240 #
plane-surface $-1 -66.667073580126356 0 0 1 0 0 0 0 -1 forward_v I I I I #
coedge $-1 $545 $391 $546 $547 forward $241 $-1 #
coedge $-1 $548 $243 $545 $549 forward $153 $-1 #
coedge $-1 $243 $548 $550 $551 forward $153 $-1 #
coedge $-1 $394 $393 $243 $387 reversed $395 $-1 #
edge $-1 $552 -28.414940324718305 $553 28.414940324718305 $386 $554 forward 7 unknown #
coedge $-1 $245 $244 $555 $556 forward $96 $-1 #
coedge $-1 $557 $558 $244 $390 reversed $542 $-1 #
edge $-1 $397 -66.667073580126356 $559 66.667073580126356 $389 $560 forward 7 unknown #
coedge $-1 $383 $561 $245 $392 reversed $241 $-1 #
edge $-1 $562 -66.667073580126356 $396 66.667073580126356 $391 $563 forward 7 unknown #
coedge $-1 $386 $246 $561 $564 forward $395 $-1 #
coedge $-1 $246 $386 $557 $565 reversed $395 $-1 #
loop $-1 $-1 $393 $541 #
vertex $-1 $247 $566 #
vertex $-1 $247 $567 #
straight-curve $-1 66.667073580126356 0 11.163402502156551 0 1 0 I I #
face $-1 $568 $569 $58 $-1 $570 forward single #
loop $-1 $-1 $571 $248 #
plane-surface $-1 -66.667073580126356 0 0 1 0 0 0 0 -1 forward_v I I I I #
coedge $-1 $409 $572 $411 $573 forward $249 $-1 #
coedge $-1 $251 $411 $574 $575 reversed $157 $-1 #
coedge $-1 $576 $407 $251 $405 forward $577 $-1 #
edge $-1 $413 3.3317012510782753 $578 6.3317012510782753 $404 $579 forward 7 unknown #
coedge $-1 $253 $252 $571 $580 reversed $99 $-1 #
coedge $-1 $404 $581 $252 $408 forward $577 $-1 #
edge $-1 $582 -35.342116252411017 $413 -27.30779840301966 $407 $583 forward 7 unknown #
coedge $-1 $584 $402 $253 $410 forward $249 $-1 #
edge $-1 $412 27.30779840301966 $585 35.342116252411017 $409 $586 forward 7 unknown #
coedge $-1 $403 $254 $402 $573 reversed $157 $-1 #
vertex $-1 $410 $587 #
vertex $-1 $408 $588 #
straight-curve $-1 -58.632755730734999 0 8.1634025021565506 0 -1 0 I I #
face $-1 $589 $590 $59 $-1 $591 reversed single #
loop $-1 $-1 $592 $256 #
plane-surface $-1 0 -28.414940324718305 0 0 1 0 0 0 1 forward_v I I I I #
coedge $-1 $593 $594 $595 $596 forward $257 $-1 #
coedge $-1 $595 $259 $592 $597 reversed $161 $-1 #
coedge $-1 $259 $595 $598 $599 reversed $161 $-1 #
coedge $-1 $261 $260 $259 $422 forward $102 $-1 #
edge $-1 $600 -28.414940324718305 $601 28.414940324718305 $259 $602 forward 7 unknown #
coedge $-1 $603 $592 $260 $424 forward $416 $-1 #
edge $-1 $600 27.30779840301966 $430 35.342116252411017 $423 $604 forward 7 unknown #
coedge $-1 $598 $605 $261 $426 forward $590 $-1 #
edge $-1 $431 -35.342116252411017 $601 -27.30779840301966 $425 $606 forward 7 unknown #
coedge $-1 $607 $262 $605 $608 reversed $429 $-1 #
coedge $-1 $262 $607 $603 $609 forward $429 $-1 #
loop $-1 $-1 $262 $589 #
vertex $-1 $424 $610 #
vertex $-1 $263 $611 #
straight-curve $-1 66.667073580126356 0 8.1634025021565506 0 1 0 I I #
face $-1 $-1 $445 $60 $-1 $612 forward single #
loop $-1 $-1 $613 $264 #
plane-surface $-1 0 28.414940324718305 0 0 -1 0 0 0 -1 forward_v I I I I #
coedge $-1 $614 $615 $616 $617 reversed $265 $-1 #
coedge $-1 $618 $267 $269 $443 forward $165 $-1 #
coedge $-1 $267 $618 $614 $619 forward $165 $-1 #
coedge $-1 $616 $270 $267 $440 forward $445 $-1 #
edge $-1 $447 -28.003618432633129 $620 -10.209712432700623 $439 $621 forward 7 unknown #
coedge $-1 $622 $623 $268 $442 forward $434 $-1 #
edge $-1 $624 -60.685582153563914 $446 -49.824629391622118 $441 $625 forward 7 unknown #
edge $-1 $447 43.729204617717478 $624 56.829880649436639 $269 $626 forward 7 unknown #
coedge $-1 $270 $616 $622 $627 forward $445 $-1 #
loop $-1 $-1 $616 $433 #
vertex $-1 $442 $628 #
vertex $-1 $271 $629 #
straight-curve $-1 -47.110283865300005 53.587546908854513 11.163402502156551 0 -1 0 I I #
coedge $-1 $449 $449 $-1 $630 reversed $274 $-1 #
edge $-1 $631 0 $631 6.2831853071796004 $275 $632 forward 7 unknown #
vertex $-1 $278 $633 #
ellipse-curve $-1 -43.551502665313507 24.752037869324159 5.7329261211856553 0 0.82903758062907751 0.55919289150049634 1 0 0 1 I I #
coedge $-1 $453 $453 $-1 $634 reversed $281 $-1 #
edge $-1 $635 0 $635 6.2831853071796004 $282 $636 forward 7 unknown #
vertex $-1 $285 $637 #
ellipse-curve $-1 -38.213330865333752 24.752037869324159 5.7329261211856553 0 0.82903758062907751 0.55919289150049634 1 0 0 1 I I #
coedge $-1 $457 $457 $-1 $638 reversed $288 $-1 #
edge $-1 $639 0 $639 6.2831853071796004 $289 $640 forward 7 unknown #
vertex $-1 $292 $641 #
ellipse-curve $-1 -32.875159065353998 24.752037869324159 5.7329261211856553 0 0.82903758062907751 0.55919289150049634 1 0 0 1 I I #
face $-1 $-1 $642 $64 $-1 $643 reversed single #
loop $-1 $-1 $299 $293 #
plane-surface $-1 0 0 11.163402502156551 0 0 1 1 0 0 forward_v I I I I #
coedge $-1 $644 $645 $646 $647 reversed $294 $-1 #
coedge $-1 $648 $296 $298 $471 forward $184 $-1 #
coedge $-1 $296 $648 $644 $649 forward $184 $-1 #
coedge $-1 $646 $299 $296 $468 forward $462 $-1 #
edge $-1 $474 -13.345429499949379 $650 4.4484764999831263 $467 $651 forward 7 unknown #
coedge $-1 $652 $653 $297 $470 forward $642 $-1 #
edge $-1 $654 -60.685582153563914 $473 -49.824629391622118 $469 $655 forward 7 unknown #
edge $-1 $474 43.729204617717478 $654 56.829880649436639 $298 $656 forward 7 unknown #
coedge $-1 $299 $646 $652 $657 forward $462 $-1 #
vertex $-1 $300 $658 #
vertex $-1 $300 $659 #
straight-curve $-1 -17.793905999932505 53.587546908854513 11.163402502156551 0 -1 0 I I #
coedge $-1 $476 $476 $-1 $660 reversed $303 $-1 #
edge $-1 $661 0 $661 6.2831853071796004 $304 $662 forward 7 unknown #
vertex $-1 $307 $663 #
ellipse-curve $-1 -14.235124799946007 24.752037869324159 5.7329261211856553 0 0.82903758062907751 0.55919289150049634 1 0 0 1 I I #
coedge $-1 $480 $480 $-1 $664 reversed $310 $-1 #
edge $-1 $665 0 $665 6.2831853071796004 $311 $666 forward 7 unknown #
vertex $-1 $314 $667 #
ellipse-curve $-1 -8.8969529999662527 24.752037869324159 5.7329261211856553 0 0.82903758062907751 0.55919289150049634 1 0 0 1 I I #
coedge $-1 $484 $484 $-1 $668 reversed $317 $-1 #
edge $-1 $669 0 $669 6.2831853071796004 $318 $670 forward 7 unknown #
vertex $-1 $321 $671 #
ellipse-curve $-1 -3.5587811999864982 24.752037869324159 5.7329261211856553 0 0.82903758062907751 0.55919289150049634 1 0 0 1 I I #
face $-1 $-1 $672 $68 $-1 $673 reversed single #
loop $-1 $-1 $328 $322 #
plane-surface $-1 0 0 11.163402502156551 0 0 1 1 0 0 forward_v I I I I #
coedge $-1 $674 $675 $676 $677 reversed $323 $-1 #
coedge $-1 $678 $325 $327 $498 forward $203 $-1 #
coedge $-1 $325 $678 $674 $679 forward $203 $-1 #
coedge $-1 $676 $328 $325 $495 forward $489 $-1 #
edge $-1 $501 1.3127594327343743 $680 19.10666543266688 $494 $681 forward 7 unknown #
coedge $-1 $682 $683 $326 $497 forward $672 $-1 #
edge $-1 $684 -60.685582153563914 $500 -49.824629391622118 $496 $685 forward 7 unknown #
edge $-1 $501 43.729204617717478 $684 56.829880649436639 $327 $686 forward 7 unknown #
coedge $-1 $328 $676 $682 $687 forward $489 $-1 #
vertex $-1 $329 $688 #
vertex $-1 $329 $689 #
straight-curve $-1 11.522471865435001 53.587546908854513 11.163402502156551 0 -1 0 I I #
coedge $-1 $503 $503 $-1 $690 reversed $332 $-1 #
edge $-1 $691 0 $691 6.2831853071796004 $333 $692 forward 7 unknown #
vertex $-1 $336 $693 #
ellipse-curve $-1 15.081253065421492 24.752037869324159 5.7329261211856553 0 0.82903758062907751 0.55919289150049634 1 0 0 1 I I #
coedge $-1 $507 $507 $-1 $694 reversed $339 $-1 #
edge $-1 $695 0 $695 6.2831853071796004 $340 $696 forward 7 unknown #
vertex $-1 $343 $697 #
ellipse-curve $-1 20.419424865401254 24.752037869324159 5.7329261211856553 0 0.82903758062907751 0.55919289150049634 1 0 0 1 I I #
coedge $-1 $511 $511 $-1 $698 reversed $346 $-1 #
edge $-1 $699 0 $699 6.2831853071796004 $347 $700 forward 7 unknown #
vertex $-1 $350 $701 #
ellipse-curve $-1 25.757596665381001 24.752037869324159 5.7329261211856553 0 0.82903758062907751 0.55919289150049634 1 0 0 1 I I #
face $-1 $-1 $702 $72 $-1 $703 reversed single #
loop $-1 $-1 $704 $351 #
plane-surface $-1 58.632755730734999 0 9.6634025021565506 1 0 0 0 0 -1 forward_v I I I I #
coedge $-1 $705 $354 $356 $524 forward $222 $-1 #
coedge $-1 $354 $705 $704 $706 forward $222 $-1 #
coedge $-1 $707 $357 $354 $521 forward $352 $-1 #
edge $-1 $527 15.970948365418124 $708 33.764854365350629 $520 $709 forward 7 unknown #
coedge $-1 $710 $711 $355 $523 forward $702 $-1 #
edge $-1 $712 -60.685582153563914 $526 -49.824629391622118 $522 $713 forward 7 unknown #
edge $-1 $527 43.729204617717478 $712 56.829880649436639 $356 $714 forward 7 unknown #
coedge $-1 $357 $707 $710 $715 forward $352 $-1 #
vertex $-1 $523 $716 #
vertex $-1 $358 $717 #
straight-curve $-1 40.838849730802501 53.587546908854513 11.163402502156551 0 -1 0 I I #
coedge $-1 $529 $529 $-1 $718 reversed $361 $-1 #
edge $-1 $719 0 $719 6.2831853071796004 $362 $720 forward 7 unknown #
vertex $-1 $365 $721 #
ellipse-curve $-1 44.397630930788992 24.752037869324159 5.7329261211856553 0 0.82903758062907751 0.55919289150049634 1 0 0 1 I I #
coedge $-1 $533 $533 $-1 $722 reversed $368 $-1 #
edge $-1 $723 0 $723 6.2831853071796004 $369 $724 forward 7 unknown #
vertex $-1 $372 $725 #
ellipse-curve $-1 49.735802730768754 24.752037869324159 5.7329261211856553 0 0.82903758062907751 0.55919289150049634 1 0 0 1 I I #
coedge $-1 $537 $537 $-1 $726 reversed $375 $-1 #
edge $-1 $727 0 $727 6.2831853071796004 $376 $728 forward 7 unknown #
vertex $-1 $379 $729 #
ellipse-curve $-1 55.073974530748501 24.752037869324159 5.7329261211856553 0 0.82903758062907751 0.55919289150049634 1 0 0 1 I I #
face $-1 $-1 $395 $57 $-1 $730 reversed single #
loop $-1 $-1 $557 $380 #
plane-surface $-1 0 28.414940324718305 0 0 -1 0 0 0 -1 forward_v I I I I #
coedge $-1 $731 $555 $558 $732 forward $381 $-1 #
coedge $-1 $561 $383 $384 $549 reversed $241 $-1 #
coedge $-1 $555 $731 $383 $547 reversed $381 $-1 #
edge $-1 $562 -11.163402502156551 $733 11.163402502156551 $546 $734 forward 7 unknown #
coedge $-1 $385 $384 $731 $735 forward $153 $-1 #
edge $-1 $553 -66.667073580126356 $733 66.667073580126356 $545 $736 forward 7 unknown #
coedge $-1 $558 $557 $385 $551 reversed $542 $-1 #
edge $-1 $737 -66.667073580126356 $552 66.667073580126356 $550 $738 forward 7 unknown #
vertex $-1 $387 $739 #
vertex $-1 $564 $740 #
straight-curve $-1 66.667073580126356 0 -11.163402502156551 0 -1 0 I I #
coedge $-1 $544 $546 $388 $556 reversed $381 $-1 #
edge $-1 $559 -28.414940324718305 $562 28.414940324718305 $555 $741 forward 7 unknown #
coedge $-1 $550 $389 $394 $565 forward $542 $-1 #
coedge $-1 $389 $550 $544 $732 reversed $542 $-1 #
vertex $-1 $390 $742 #
straight-curve $-1 0 28.414940324718305 11.163402502156551 -1 0 0 I I #
coedge $-1 $391 $545 $393 $564 reversed $241 $-1 #
vertex $-1 $556 $743 #
straight-curve $-1 0 -28.414940324718305 11.163402502156551 1 0 0 I I #
edge $-1 $396 -11.163402502156551 $553 11.163402502156551 $393 $744 forward 7 unknown #
edge $-1 $397 -11.163402502156551 $552 11.163402502156551 $394 $745 forward 7 unknown #
point $-1 66.667073580126356 -28.414940324718305 11.163402502156551 #
point $-1 66.667073580126356 28.414940324718305 11.163402502156551 #
face $-1 $-1 $577 $58 $-1 $746 reversed single #
loop $-1 $-1 $574 $399 #
plane-surface $-1 0 0 11.163402502156551 0 0 1 1 0 0 forward_v I I I I #
coedge $-1 $747 $748 $406 $580 forward $400 $-1 #
coedge $-1 $402 $584 $749 $750 reversed $249 $-1 #
edge $-1 $751 -6.3317012510782753 $412 -3.3317012510782753 $402 $752 forward 7 unknown #
coedge $-1 $749 $753 $403 $575 forward $569 $-1 #
edge $-1 $578 -28.414940324718305 $751 28.414940324718305 $574 $754 forward 7 unknown #
coedge $-1 $581 $404 $753 $755 reversed $577 $-1 #
loop $-1 $-1 $404 $568 #
vertex $-1 $405 $756 #
straight-curve $-1 -58.632755730734999 -28.414940324718305 4.8317012510782753 0 0 1 I I #
edge $-1 $585 -28.414940324718305 $582 28.414940324718305 $571 $757 forward 7 unknown #
coedge $-1 $407 $576 $747 $758 forward $577 $-1 #
vertex $-1 $580 $759 #
straight-curve $-1 -31.324957327715339 -28.414940324718305 8.1634025021565506 1 0 0 I I #
coedge $-1 $572 $409 $748 $760 reversed $249 $-1 #
vertex $-1 $580 $761 #
straight-curve $-1 -31.324957327715339 28.414940324718305 8.1634025021565506 -1 0 0 I I #
point $-1 -58.632755730734999 28.414940324718305 8.1634025021565506 #
point $-1 -58.632755730734999 -28.414940324718305 8.1634025021565506 #
face $-1 $-1 $429 $59 $-1 $762 reversed single #
loop $-1 $-1 $598 $415 #
plane-surface $-1 0 28.414940324718305 0 0 -1 0 0 0 -1 forward_v I I I I #
coedge $-1 $423 $763 $419 $597 forward $416 $-1 #
coedge $-1 $764 $418 $763 $765 forward $257 $-1 #
coedge $-1 $418 $764 $766 $767 forward $257 $-1 #
coedge $-1 $420 $419 $418 $596 reversed $161 $-1 #
edge $-1 $768 -28.414940324718305 $769 28.414940324718305 $418 $770 forward 7 unknown #
edge $-1 $769 -6.3317012510782753 $600 -3.3317012510782753 $592 $771 forward 7 unknown #
coedge $-1 $766 $425 $420 $599 forward $590 $-1 #
edge $-1 $601 3.3317012510782753 $768 6.3317012510782753 $598 $772 forward 7 unknown #
vertex $-1 $424 $773 #
vertex $-1 $426 $774 #
straight-curve $-1 58.632755730734999 0 8.1634025021565506 0 1 0 I I #
coedge $-1 $763 $423 $428 $609 reversed $416 $-1 #
straight-curve $-1 31.324957327715339 -28.414940324718305 8.1634025021565506 1 0 0 I I #
coedge $-1 $425 $766 $427 $608 forward $590 $-1 #
straight-curve $-1 31.324957327715339 28.414940324718305 8.1634025021565506 -1 0 0 I I #
coedge $-1 $428 $427 $764 $775 reversed $429 $-1 #
edge $-1 $776 -11.163402502156551 $431 -8.1634025021565506 $427 $777 forward 7 unknown #
edge $-1 $778 -11.163402502156551 $430 -8.1634025021565506 $428 $779 forward 7 unknown #
point $-1 66.667073580126356 -28.414940324718305 8.1634025021565506 #
point $-1 66.667073580126356 28.414940324718305 8.1634025021565506 #
plane-surface $-1 0 0 11.163402502156551 0 0 1 1 0 0 forward_v I I I I #
coedge $-1 $623 $622 $615 $780 forward $434 $-1 #
coedge $-1 $615 $436 $438 $619 reversed $265 $-1 #
coedge $-1 $436 $614 $613 $780 reversed $265 $-1 #
coedge $-1 $444 $439 $436 $617 forward $445 $-1 #
edge $-1 $620 -32.498411494924497 $781 -25.172606584136208 $616 $782 forward 7 unknown #
coedge $-1 $438 $437 $623 $783 reversed $165 $-1 #
edge $-1 $784 -56.829880649436639 $620 -43.729204617717478 $614 $785 forward 7 unknown #
vertex $-1 $440 $786 #
straight-curve $-1 -19.106665432666876 21.089135413930016 11.163402502156551 1 0 0 I I #
coedge $-1 $613 $441 $444 $627 reversed $434 $-1 #
coedge $-1 $441 $613 $618 $783 forward $434 $-1 #
vertex $-1 $442 $787 #
straight-curve $-1 -47.110283865300005 28.414940324718302 60.988031893778668 0 0 1 I I #
straight-curve $-1 -47.110283865300005 -3.3639249592682745 47.416556501262932 0 0.55919289150049634 -0.82903758062907751 I I #
edge $-1 $781 29.3163778653675 $446 47.110283865300005 $622 $788 forward 7 unknown #
point $-1 -47.110283865300005 28.414940324718305 11.163402502156551 #
point $-1 -47.110283865300005 21.08913541393002 11.163402502156551 #
edge $-1 $789 1 $789 0 $449 $-1 forward 7 unknown #
vertex $-1 $450 $790 #
ellipse-curve $-1 -43.551502665313507 23.172243975025655 4.6673417178136463 0 0.82903758062907751 0.55919289150049634 1 0 0 1 I I #
point $-1 -42.551502665313507 24.752037869324173 5.7329261211856668 #
edge $-1 $791 1 $791 0 $453 $-1 forward 7 unknown #
vertex $-1 $454 $792 #
ellipse-curve $-1 -38.213330865333752 23.172243975025655 4.6673417178136463 0 0.82903758062907751 0.55919289150049634 1 0 0 1 I I #
point $-1 -37.213330865333752 24.752037869324173 5.7329261211856668 #
edge $-1 $793 1 $793 0 $457 $-1 forward 7 unknown #
vertex $-1 $458 $794 #
ellipse-curve $-1 -32.875159065353998 23.172243975025655 4.6673417178136463 0 0.82903758062907751 0.55919289150049634 1 0 0 1 I I #
point $-1 -31.875159065353998 24.752037869324173 5.7329261211856668 #
loop $-1 $-1 $469 $461 #
plane-surface $-1 0 28.414940324718305 0 0 -1 0 0 0 -1 forward_v I I I I #
coedge $-1 $645 $464 $466 $649 reversed $294 $-1 #
coedge $-1 $464 $644 $795 $796 reversed $294 $-1 #
coedge $-1 $472 $467 $464 $647 forward $462 $-1 #
edge $-1 $650 -32.498411494924497 $797 -25.172606584136208 $646 $798 forward 7 unknown #
coedge $-1 $466 $465 $653 $799 reversed $184 $-1 #
edge $-1 $800 -56.829880649436639 $650 -43.729204617717478 $644 $801 forward 7 unknown #
vertex $-1 $468 $802 #
straight-curve $-1 -4.4484764999831263 21.089135413930016 11.163402502156551 1 0 0 I I #
coedge $-1 $795 $469 $472 $657 reversed $642 $-1 #
coedge $-1 $469 $795 $648 $799 forward $642 $-1 #
vertex $-1 $470 $803 #
straight-curve $-1 -17.793905999932505 28.414940324718302 60.988031893778668 0 0 1 I I #
straight-curve $-1 -17.793905999932505 -3.3639249592682745 47.416556501262932 0 0.55919289150049634 -0.82903758062907751 I I #
edge $-1 $797 0 $473 17.793905999932505 $652 $804 forward 7 unknown #
point $-1 -17.793905999932505 28.414940324718305 11.163402502156551 #
point $-1 -17.793905999932505 21.08913541393002 11.163402502156551 #
edge $-1 $805 1 $805 0 $476 $-1 forward 7 unknown #
vertex $-1 $477 $806 #
ellipse-curve $-1 -14.235124799946007 23.172243975025655 4.6673417178136463 0 0.82903758062907751 0.55919289150049634 1 0 0 1 I I #
point $-1 -13.235124799946007 24.752037869324173 5.7329261211856668 #
edge $-1 $807 1 $807 0 $480 $-1 forward 7 unknown #
vertex $-1 $481 $808 #
ellipse-curve $-1 -8.8969529999662527 23.172243975025655 4.6673417178136463 0 0.82903758062907751 0.55919289150049634 1 0 0 1 I I #
point $-1 -7.8969529999662527 24.752037869324173 5.7329261211856668 #
edge $-1 $809 1 $809 0 $484 $-1 forward 7 unknown #
vertex $-1 $485 $810 #
ellipse-curve $-1 -3.5587811999864982 23.172243975025655 4.6673417178136463 0 0.82903758062907751 0.55919289150049634 1 0 0 1 I I #
point $-1 -2.5587811999864982 24.752037869324173 5.7329261211856668 #
loop $-1 $-1 $496 $488 #
plane-surface $-1 0 28.414940324718305 0 0 -1 0 0 0 -1 forward_v I I I I #
coedge $-1 $675 $491 $493 $679 reversed $323 $-1 #
coedge $-1 $491 $674 $811 $812 reversed $323 $-1 #
coedge $-1 $499 $494 $491 $677 forward $489 $-1 #
edge $-1 $680 -32.498411494924497 $813 -25.172606584136208 $676 $814 forward 7 unknown #
coedge $-1 $493 $492 $683 $815 reversed $203 $-1 #
edge $-1 $816 -56.829880649436639 $680 -43.729204617717478 $674 $817 forward 7 unknown #
vertex $-1 $495 $818 #
straight-curve $-1 10.209712432700627 21.089135413930016 11.163402502156551 1 0 0 I I #
coedge $-1 $811 $496 $499 $687 reversed $672 $-1 #
coedge $-1 $496 $811 $678 $815 forward $672 $-1 #
vertex $-1 $497 $819 #
straight-curve $-1 11.522471865435001 28.414940324718302 60.988031893778668 0 0 1 I I #
straight-curve $-1 11.522471865435001 -3.3639249592682745 47.416556501262932 0 0.55919289150049634 -0.82903758062907751 I I #
edge $-1 $813 -29.316377865367507 $500 -11.522471865435001 $682 $820 forward 7 unknown #
point $-1 11.522471865435001 28.414940324718305 11.163402502156551 #
point $-1 11.522471865435001 21.08913541393002 11.163402502156551 #
edge $-1 $821 1 $821 0 $503 $-1 forward 7 unknown #
vertex $-1 $504 $822 #
ellipse-curve $-1 15.081253065421492 23.172243975025655 4.6673417178136463 0 0.82903758062907751 0.55919289150049634 1 0 0 1 I I #
point $-1 16.081253065421492 24.752037869324173 5.7329261211856668 #
edge $-1 $823 1 $823 0 $507 $-1 forward 7 unknown #
vertex $-1 $508 $824 #
ellipse-curve $-1 20.419424865401254 23.172243975025655 4.6673417178136463 0 0.82903758062907751 0.55919289150049634 1 0 0 1 I I #
point $-1 21.419424865401254 24.752037869324173 5.7329261211856668 #
edge $-1 $825 1 $825 0 $511 $-1 forward 7 unknown #
vertex $-1 $512 $826 #
ellipse-curve $-1 25.757596665381001 23.172243975025655 4.6673417178136463 0 0.82903758062907751 0.55919289150049634 1 0 0 1 I I #
point $-1 26.757596665381001 24.752037869324173 5.7329261211856668 #
loop $-1 $-1 $522 $515 #
plane-surface $-1 0 28.414940324718305 0 0 -1 0 0 0 -1 forward_v I I I I #
coedge $-1 $827 $828 $519 $706 reversed $516 $-1 #
coedge $-1 $519 $518 $711 $829 reversed $222 $-1 #
edge $-1 $830 -56.829880649436639 $708 -43.729204617717478 $704 $831 forward 7 unknown #
coedge $-1 $525 $520 $828 $832 forward $352 $-1 #
vertex $-1 $832 $833 #
straight-curve $-1 24.867901365384377 21.089135413930016 11.163402502156551 1 0 0 I I #
coedge $-1 $834 $522 $525 $715 reversed $702 $-1 #
coedge $-1 $522 $834 $705 $829 forward $702 $-1 #
vertex $-1 $523 $835 #
straight-curve $-1 40.838849730802501 28.414940324718302 60.988031893778668 0 0 1 I I #
straight-curve $-1 40.838849730802501 -3.3639249592682745 47.416556501262932 0 0.55919289150049634 -0.82903758062907751 I I #
edge $-1 $836 -58.632755730734999 $526 -40.838849730802501 $710 $837 forward 7 unknown #
point $-1 40.838849730802501 28.414940324718305 11.163402502156551 #
point $-1 40.838849730802501 21.08913541393002 11.163402502156551 #
edge $-1 $838 1 $838 0 $529 $-1 forward 7 unknown #
vertex $-1 $530 $839 #
ellipse-curve $-1 44.397630930788992 23.172243975025655 4.6673417178136463 0 0.82903758062907751 0.55919289150049634 1 0 0 1 I I #
point $-1 45.397630930788992 24.752037869324173 5.7329261211856668 #
edge $-1 $840 1 $840 0 $533 $-1 forward 7 unknown #
vertex $-1 $534 $841 #
ellipse-curve $-1 49.735802730768754 23.172243975025655 4.6673417178136463 0 0.82903758062907751 0.55919289150049634 1 0 0 1 I I #
point $-1 50.735802730768754 24.752037869324173 5.7329261211856668 #
edge $-1 $842 1 $842 0 $537 $-1 forward 7 unknown #
vertex $-1 $538 $843 #
ellipse-curve $-1 55.073974530748501 23.172243975025655 4.6673417178136463 0 0.82903758062907751 0.55919289150049634 1 0 0 1 I I #
point $-1 56.073974530748501 24.752037869324173 5.7329261211856668 #
plane-surface $-1 66.667073580126356 0 0 -1 0 0 0 0 1 forward_v I I I I #
coedge $-1 $546 $544 $548 $735 reversed $381 $-1 #
edge $-1 $559 -11.163402502156551 $737 11.163402502156551 $558 $844 forward 7 unknown #
vertex $-1 $735 $845 #
straight-curve $-1 -66.667073580126356 -28.414940324718305 0 0 0 -1 I I #
edge $-1 $733 -28.414940324718305 $737 28.414940324718305 $731 $846 forward 7 unknown #
straight-curve $-1 0 -28.414940324718305 -11.163402502156551 -1 0 0 I I #
vertex $-1 $551 $847 #
straight-curve $-1 0 28.414940324718305 -11.163402502156551 1 0 0 I I #
point $-1 66.667073580126356 28.414940324718305 -11.163402502156551 #
point $-1 66.667073580126356 -28.414940324718305 -11.163402502156551 #
straight-curve $-1 -66.667073580126356 0 11.163402502156551 0 -1 0 I I #
point $-1 -66.667073580126356 28.414940324718305 11.163402502156551 #
point $-1 -66.667073580126356 -28.414940324718305 11.163402502156551 #
straight-curve $-1 66.667073580126356 -28.414940324718305 0 0 0 -1 I I #
straight-curve $-1 66.667073580126356 28.414940324718305 0 0 0 -1 I I #
plane-surface $-1 0 -28.414940324718305 0 0 1 0 0 0 1 forward_v I I I I #
coedge $-1 $848 $571 $581 $758 reversed $400 $-1 #
coedge $-1 $571 $848 $584 $760 forward $400 $-1 #
coedge $-1 $849 $574 $572 $750 forward $569 $-1 #
edge $-1 $751 58.632755730734999 $850 66.667073580126356 $572 $851 forward 7 unknown #
vertex $-1 $750 $852 #
straight-curve $-1 -58.632755730734999 28.414940324718305 4.8317012510782753 0 0 -1 I I #
coedge $-1 $574 $849 $576 $755 forward $569 $-1 #
straight-curve $-1 -58.632755730734999 0 11.163402502156551 0 1 0 I I #
edge $-1 $853 -66.667073580126356 $578 -58.632755730734999 $576 $854 forward 7 unknown #
point $-1 -58.632755730734999 -28.414940324718305 11.163402502156551 #
straight-curve $-1 -66.667073580126356 0 8.1634025021565506 0 -1 0 I I #
edge $-1 $853 -11.163402502156551 $582 -8.1634025021565506 $747 $855 forward 7 unknown #
point $-1 -66.667073580126356 -28.414940324718305 8.1634025021565506 #
edge $-1 $850 -11.163402502156551 $585 -8.1634025021565506 $584 $856 forward 7 unknown #
point $-1 -66.667073580126356 28.414940324718305 8.1634025021565506 #
plane-surface $-1 66.667073580126356 0 0 -1 0 0 0 0 1 forward_v I I I I #
coedge $-1 $592 $603 $593 $765 reversed $416 $-1 #
coedge $-1 $594 $593 $607 $775 forward $257 $-1 #
edge $-1 $769 58.632755730734999 $778 66.667073580126356 $763 $857 forward 7 unknown #
coedge $-1 $605 $598 $594 $767 reversed $590 $-1 #
edge $-1 $776 -66.667073580126356 $768 -58.632755730734999 $766 $858 forward 7 unknown #
vertex $-1 $599 $859 #
vertex $-1 $765 $860 #
straight-curve $-1 58.632755730734999 0 11.163402502156551 0 -1 0 I I #
straight-curve $-1 58.632755730734999 -28.414940324718305 4.8317012510782753 0 0 -1 I I #
straight-curve $-1 58.632755730734999 28.414940324718305 4.8317012510782753 0 0 1 I I #
point $-1 58.632755730734999 -28.414940324718305 8.1634025021565506 #
point $-1 58.632755730734999 28.414940324718305 8.1634025021565506 #
edge $-1 $778 -28.414940324718305 $776 28.414940324718305 $607 $861 forward 7 unknown #
vertex $-1 $775 $862 #
straight-curve $-1 66.667073580126356 28.414940324718305 0 0 0 -1 I I #
vertex $-1 $775 $863 #
straight-curve $-1 66.667073580126356 -28.414940324718305 0 0 0 -1 I I #
edge $-1 $781 49.824629391622118 $784 60.685582153563914 $613 $864 forward 7 unknown #
vertex $-1 $627 $865 #
straight-curve $-1 -29.3163778653675 53.587546908854513 11.163402502156551 0 1 0 I I #
edge $-1 $784 10.209712432700623 $624 28.003618432633129 $623 $866 forward 7 unknown #
vertex $-1 $783 $867 #
straight-curve $-1 -29.3163778653675 -3.3639249592682745 47.416556501262932 0 -0.55919289150049634 0.82903758062907751 I I #
point $-1 -29.3163778653675 21.08913541393002 11.163402502156551 #
point $-1 -47.110283865300005 28.414940324718305 0.30244974021475457 #
straight-curve $-1 0 28.414940324718305 11.163402502156551 -1 0 0 I I #
vertex $-1 $630 $868 #
point $-1 -42.551502665313507 23.172243975025655 4.6673417178136463 #
vertex $-1 $634 $869 #
point $-1 -37.213330865333752 23.172243975025655 4.6673417178136463 #
vertex $-1 $638 $870 #
point $-1 -31.875159065353998 23.172243975025655 4.6673417178136463 #
coedge $-1 $653 $652 $645 $796 forward $642 $-1 #
edge $-1 $797 49.824629391622118 $800 60.685582153563914 $795 $871 forward 7 unknown #
vertex $-1 $657 $872 #
straight-curve $-1 0 53.587546908854513 11.163402502156551 0 1 0 I I #
edge $-1 $800 -4.4484764999831263 $654 13.345429499949379 $653 $873 forward 7 unknown #
vertex $-1 $799 $874 #
straight-curve $-1 0 -3.3639249592682745 47.416556501262932 0 -0.55919289150049634 0.82903758062907751 I I #
point $-1 0 21.08913541393002 11.163402502156551 #
point $-1 -17.793905999932505 28.414940324718305 0.30244974021475457 #
straight-curve $-1 0 28.414940324718305 11.163402502156551 -1 0 0 I I #
vertex $-1 $660 $875 #
point $-1 -13.235124799946007 23.172243975025655 4.6673417178136463 #
vertex $-1 $664 $876 #
point $-1 -7.8969529999662527 23.172243975025655 4.6673417178136463 #
vertex $-1 $668 $877 #
point $-1 -2.5587811999864982 23.172243975025655 4.6673417178136463 #
coedge $-1 $683 $682 $675 $812 forward $672 $-1 #
edge $-1 $813 49.824629391622118 $816 60.685582153563914 $811 $878 forward 7 unknown #
vertex $-1 $687 $879 #
straight-curve $-1 29.316377865367507 53.587546908854513 11.163402502156551 0 1 0 I I #
edge $-1 $816 -19.10666543266688 $684 -1.3127594327343743 $683 $880 forward 7 unknown #
vertex $-1 $815 $881 #
straight-curve $-1 29.316377865367507 -3.3639249592682745 47.416556501262932 0 -0.55919289150049634 0.82903758062907751 I I #
point $-1 29.316377865367507 21.08913541393002 11.163402502156551 #
point $-1 11.522471865435001 28.414940324718305 0.30244974021475457 #
straight-curve $-1 0 28.414940324718305 11.163402502156551 -1 0 0 I I #
vertex $-1 $690 $882 #
point $-1 16.081253065421492 23.172243975025655 4.6673417178136463 #
vertex $-1 $694 $883 #
point $-1 21.419424865401254 23.172243975025655 4.6673417178136463 #
vertex $-1 $698 $884 #
point $-1 26.757596665381001 23.172243975025655 4.6673417178136463 #
coedge $-1 $828 $704 $834 $885 reversed $516 $-1 #
coedge $-1 $704 $827 $707 $832 reversed $516 $-1 #
edge $-1 $830 -33.764854365350629 $712 -15.970948365418124 $711 $886 forward 7 unknown #
vertex $-1 $885 $887 #
straight-curve $-1 58.632755730735006 -3.3639249592682745 47.416556501262932 0 -0.55919289150049634 0.82903758062907751 I I #
edge $-1 $708 21.08913541393002 $836 28.414940324718305 $707 $888 forward 7 unknown #
point $-1 58.632755730735006 21.08913541393002 11.163402502156551 #
coedge $-1 $711 $710 $827 $885 forward $702 $-1 #
point $-1 40.838849730802501 28.414940324718305 0.30244974021475457 #
vertex $-1 $715 $889 #
straight-curve $-1 0 28.414940324718305 11.163402502156551 -1 0 0 I I #
vertex $-1 $718 $890 #
point $-1 45.397630930788992 23.172243975025655 4.6673417178136463 #
vertex $-1 $722 $891 #
point $-1 50.735802730768754 23.172243975025655 4.6673417178136463 #
vertex $-1 $726 $892 #
point $-1 56.073974530748501 23.172243975025655 4.6673417178136463 #
straight-curve $-1 -66.667073580126356 28.414940324718305 0 0 0 -1 I I #
point $-1 -66.667073580126356 -28.414940324718305 -11.163402502156551 #
straight-curve $-1 -66.667073580126356 0 -11.163402502156551 0 1 0 I I #
point $-1 -66.667073580126356 28.414940324718305 -11.163402502156551 #
coedge $-1 $748 $747 $849 $893 reversed $400 $-1 #
coedge $-1 $753 $749 $848 $893 forward $569 $-1 #
vertex $-1 $750 $894 #
straight-curve $-1 0 28.414940324718305 11.163402502156551 -1 0 0 I I #
point $-1 -58.632755730734999 28.414940324718305 11.163402502156551 #
vertex $-1 $893 $895 #
straight-curve $-1 0 -28.414940324718305 11.163402502156551 1 0 0 I I #
straight-curve $-1 -66.667073580126356 -28.414940324718305 0 0 0 -1 I I #
straight-curve $-1 -66.667073580126356 28.414940324718305 0 0 0 -1 I I #
straight-curve $-1 0 -28.414940324718305 11.163402502156551 1 0 0 I I #
straight-curve $-1 0 28.414940324718305 11.163402502156551 -1 0 0 I I #
point $-1 58.632755730734999 28.414940324718305 11.163402502156551 #
point $-1 58.632755730734999 -28.414940324718305 11.163402502156551 #
straight-curve $-1 66.667073580126356 0 11.163402502156551 0 1 0 I I #
point $-1 66.667073580126356 28.414940324718305 11.163402502156551 #
point $-1 66.667073580126356 -28.414940324718305 11.163402502156551 #
straight-curve $-1 -29.3163778653675 28.414940324718302 60.988031893778668 0 0 -1 I I #
point $-1 -29.3163778653675 28.414940324718305 11.163402502156551 #
straight-curve $-1 -19.106665432666876 28.414940324718309 0.30244974021474746 -1 0 0 I I #
point $-1 -29.3163778653675 28.414940324718305 0.30244974021475457 #
point $-1 -43.551502665313507 22.343206394396578 4.1081488263131503 #
point $-1 -38.213330865333752 22.343206394396578 4.1081488263131503 #
point $-1 -32.875159065353998 22.343206394396578 4.1081488263131503 #
straight-curve $-1 0 28.414940324718302 60.988031893778668 0 0 -1 I I #
point $-1 0 28.414940324718305 11.163402502156551 #
straight-curve $-1 -4.4484764999831263 28.414940324718309 0.30244974021474746 -1 0 0 I I #
point $-1 0 28.414940324718305 0.30244974021475457 #
point $-1 -14.235124799946007 22.343206394396578 4.1081488263131503 #
point $-1 -8.8969529999662527 22.343206394396578 4.1081488263131503 #
point $-1 -3.5587811999864982 22.343206394396578 4.1081488263131503 #
straight-curve $-1 29.316377865367507 28.414940324718302 60.988031893778668 0 0 -1 I I #
point $-1 29.316377865367507 28.414940324718305 11.163402502156551 #
straight-curve $-1 10.209712432700627 28.414940324718309 0.30244974021474746 -1 0 0 I I #
point $-1 29.316377865367507 28.414940324718305 0.30244974021475457 #
point $-1 15.081253065421492 22.343206394396578 4.1081488263131503 #
point $-1 20.419424865401254 22.343206394396578 4.1081488263131503 #
point $-1 25.757596665381001 22.343206394396578 4.1081488263131503 #
edge $-1 $836 49.824629391622118 $830 60.685582153563914 $834 $896 forward 7 unknown #
straight-curve $-1 24.867901365384377 28.414940324718309 0.30244974021474746 -1 0 0 I I #
point $-1 58.632755730735006 28.414940324718305 0.30244974021475457 #
straight-curve $-1 58.632755730734999 0 11.163402502156551 0 1 0 I I #
point $-1 58.632755730734999 28.414940324718305 11.163402502156551 #
point $-1 44.397630930788992 22.343206394396578 4.1081488263131503 #
point $-1 49.735802730768754 22.343206394396578 4.1081488263131503 #
point $-1 55.073974530748501 22.343206394396578 4.1081488263131503 #
edge $-1 $850 -28.414940324718305 $853 28.414940324718305 $848 $897 forward 7 unknown #
point $-1 -66.667073580126356 28.414940324718305 11.163402502156551 #
point $-1 -66.667073580126356 -28.414940324718305 11.163402502156551 #
straight-curve $-1 58.632755730735006 28.414940324718302 60.988031893778668 0 0 -1 I I #
straight-curve $-1 -66.667073580126356 0 11.163402502156551 0 -1 0 I I #
End-of-ACIS-data 