500 0 6 0           
7 Unknown 11 ACIS 5.0 NT 24 Fri Mar 26 16:45:57 1999 
-1 9.9999999999999995e-007 1e-010 
body $-1 $6 $-1 $7 #
body $-1 $8 $-1 $9 #
body $-1 $10 $-1 $11 #
body $-1 $12 $-1 $13 #
body $-1 $14 $-1 $15 #
body $-1 $16 $-1 $17 #
lump $-1 $-1 $18 $0 #
transform $-1 1 0 0 0 1 0 0 0 1 66.3472396008179 32.118891655993352 11.801955242387939 1 rotate no_reflect no_shear #
lump $-1 $-1 $19 $1 #
transform $-1 1 0 0 0 1 0 0 0 1 66.3472396008179 32.118891655993352 11.801955242387939 1 rotate no_reflect no_shear #
lump $-1 $-1 $20 $2 #
transform $-1 1 0 0 0 1 0 0 0 1 66.3472396008179 32.118891655993352 11.801955242387939 1 rotate no_reflect no_shear #
lump $-1 $-1 $21 $3 #
transform $-1 1 0 0 0 1 0 0 0 1 66.3472396008179 32.118891655993352 11.801955242387939 1 rotate no_reflect no_shear #
lump $-1 $-1 $22 $4 #
transform $-1 1 0 0 0 1 0 0 0 1 66.3472396008179 32.118891655993352 11.801955242387939 1 rotate no_reflect no_shear #
lump $-1 $-1 $23 $5 #
transform $-1 1 0 0 0 1 0 0 0 1 66.3472396008179 32.118891655993352 11.801955242387939 1 rotate no_reflect no_shear #
shell $-1 $-1 $-1 $24 $-1 $6 #
shell $-1 $-1 $-1 $25 $-1 $8 #
shell $-1 $-1 $-1 $26 $-1 $10 #
shell $-1 $-1 $-1 $27 $-1 $12 #
shell $-1 $-1 $-1 $28 $-1 $14 #
shell $-1 $-1 $-1 $29 $-1 $16 #
face $-1 $30 $31 $18 $-1 $32 forward single #
face $-1 $33 $34 $19 $-1 $35 forward single #
face $-1 $36 $37 $20 $-1 $38 reversed single #
face $-1 $39 $40 $21 $-1 $41 forward single #
face $-1 $42 $43 $22 $-1 $44 reversed single #
face $-1 $45 $46 $23 $-1 $47 forward single #
face $-1 $48 $49 $18 $-1 $50 reversed single #
loop $-1 $-1 $51 $24 #
plane-surface $-1 0 0 11.801955242387939 0 0 1 1 0 0 forward_v I I I I #
face $-1 $52 $53 $19 $-1 $54 reversed single #
loop $-1 $-1 $55 $25 #
plane-surface $-1 -58.887663361490283 0 -8.8019552423879386 0 0 1 1 0 0 forward_v I I I I #
face $-1 $56 $57 $20 $-1 $58 reversed single #
loop $-1 $-1 $59 $26 #
plane-surface $-1 50.66914280730709 70.693433859762209 147.40602582756125 1 0 0 0 -0.6560590369687036 -0.75470957328743171 forward_v I I I I #
face $-1 $60 $61 $21 $-1 $62 forward single #
loop $-1 $63 $64 $27 #
cone-surface $-1 58.508191204062484 27.12838187279544 7.1419003826873517 0 -0.6560590369687036 -0.75470957328743171 2 0 0 1 I I 0 1 2 forward I I I I #
face $-1 $65 $66 $22 $-1 $67 reversed single #
loop $-1 $-1 $68 $28 #
plane-surface $-1 58.508191204062499 -32.118891655993352 5.1164537950304805 0 -0.6560590369687036 0.75470957328743171 1 0 0 forward_v I I I I #
face $-1 $69 $70 $23 $-1 $71 forward single #
loop $-1 $72 $73 $29 #
cone-surface $-1 58.508191204062484 -27.128381872795433 7.1419003826873446 0 0.6560590369687036 -0.75470957328743171 2 0 0 1 I I 0 1 2 forward I I I I #
face $-1 $74 $75 $18 $-1 $76 reversed single #
loop $-1 $-1 $77 $30 #
plane-surface $-1 0 0 -11.801955242387939 0 0 1 1 0 0 forward_v I I I I #
coedge $-1 $78 $79 $80 $81 forward $31 $-1 #
face $-1 $82 $83 $19 $-1 $84 reversed single #
loop $-1 $-1 $85 $33 #
plane-surface $-1 -51.428087122162665 0 -10.301955242387939 -1 0 0 0 0 1 forward_v I I I I #
coedge $-1 $86 $87 $88 $89 forward $34 $-1 #
face $-1 $90 $91 $20 $-1 $92 reversed single #
loop $-1 $-1 $93 $36 #
plane-surface $-1 58.508191204062499 -16.361978376326633 47.260232051696732 0 0.6560590369687036 0.75470957328743171 1 0 0 forward_v I I I I #
coedge $-1 $94 $95 $96 $97 reversed $37 $-1 #
face $-1 $-1 $98 $21 $-1 $99 forward single #
loop $-1 $100 $101 $39 #
cone-surface $-1 58.508191204062484 25.327207796264034 5.0698866733780665 0 -0.6560590369687036 -0.75470957328743171 1 0 0 1 I I -0.70710678118654746 0.70710678118654746 1 forward I I I I #
loop $-1 $-1 $102 $27 #
coedge $-1 $64 $64 $103 $104 reversed $40 $-1 #
face $-1 $105 $106 $22 $-1 $107 forward single #
loop $-1 $-1 $108 $42 #
plane-surface $-1 50.66914280730709 -119.17430389208219 105.262247570895 1 0 0 0 0.6560590369687036 -0.75470957328743171 forward_v I I I I #
coedge $-1 $109 $110 $111 $112 reversed $43 $-1 #
face $-1 $-1 $113 $23 $-1 $114 forward single #
loop $-1 $115 $116 $45 #
cone-surface $-1 58.508191204062484 -25.327207796264027 5.0698866733780594 0 0.6560590369687036 -0.75470957328743171 1 0 0 1 I I -0.70710678118654746 0.70710678118654746 1 forward I I I I #
loop $-1 $-1 $117 $29 #
coedge $-1 $73 $73 $118 $119 reversed $46 $-1 #
face $-1 $120 $121 $18 $-1 $122 reversed single #
loop $-1 $-1 $123 $48 #
plane-surface $-1 0 -32.118891655993352 0 0 1 0 0 0 1 forward_v I I I I #
coedge $-1 $124 $125 $126 $127 forward $49 $-1 #
coedge $-1 $128 $51 $129 $130 forward $31 $-1 #
coedge $-1 $51 $128 $131 $132 forward $31 $-1 #
coedge $-1 $133 $134 $51 $81 reversed $135 $-1 #
edge $-1 $136 -32.118891655993352 $137 32.118891655993352 $80 $138 forward 7 unknown #
face $-1 $139 $140 $19 $-1 $141 reversed single #
loop $-1 $-1 $142 $52 #
plane-surface $-1 0 0 -11.801955242387939 0 0 1 1 0 0 forward_v I I I I #
coedge $-1 $143 $88 $144 $145 reversed $53 $-1 #
coedge $-1 $146 $55 $147 $148 reversed $34 $-1 #
coedge $-1 $55 $146 $149 $150 reversed $34 $-1 #
coedge $-1 $85 $151 $55 $89 reversed $53 $-1 #
edge $-1 $152 -32.118891655993352 $153 32.118891655993352 $88 $154 forward 7 unknown #
face $-1 $155 $156 $20 $-1 $157 reversed single #
loop $-1 $-1 $158 $56 #
plane-surface $-1 66.3472396008179 0 0 -1 0 0 0 0 1 forward_v I I I I #
coedge $-1 $159 $160 $161 $162 reversed $57 $-1 #
coedge $-1 $95 $59 $163 $164 reversed $37 $-1 #
coedge $-1 $59 $94 $159 $165 reversed $37 $-1 #
coedge $-1 $161 $166 $59 $97 forward $167 $-1 #
edge $-1 $168 3.2278252738877526 $169 10.918614761158167 $96 $170 forward 7 unknown #
loop $-1 $-1 $103 $60 #
plane-surface $-1 58.508191204062499 -16.361978376326633 47.260232051696732 0 0.6560590369687036 0.75470957328743171 1 0 0 forward_v I I I I #
loop $-1 $-1 $171 $39 #
coedge $-1 $101 $101 $102 $172 reversed $61 $-1 #
coedge $-1 $102 $102 $101 $172 forward $63 $-1 #
coedge $-1 $103 $103 $64 $104 forward $98 $-1 #
edge $-1 $173 -1.9233309909548229e-015 $173 6.2831853071795987 $103 $174 forward 7 unknown #
face $-1 $175 $176 $22 $-1 $177 reversed single #
loop $-1 $-1 $111 $65 #
plane-surface $-1 0 0 11.801955242387939 0 0 1 1 0 0 forward_v I I I I #
coedge $-1 $178 $179 $180 $181 reversed $66 $-1 #
coedge $-1 $182 $68 $183 $184 reversed $43 $-1 #
coedge $-1 $68 $182 $178 $185 forward $43 $-1 #
coedge $-1 $180 $186 $68 $112 forward $106 $-1 #
edge $-1 $187 -37.093143998786665 $188 -21.41504720527584 $111 $189 forward 7 unknown #
loop $-1 $-1 $118 $69 #
plane-surface $-1 58.508191204062499 -32.118891655993352 5.1164537950304805 0 -0.6560590369687036 0.75470957328743171 1 0 0 forward_v I I I I #
loop $-1 $-1 $190 $45 #
coedge $-1 $116 $116 $117 $191 reversed $70 $-1 #
coedge $-1 $117 $117 $116 $191 forward $72 $-1 #
coedge $-1 $118 $118 $73 $119 forward $113 $-1 #
edge $-1 $192 1.8663491769708007e-015 $192 6.2831853071796022 $118 $193 forward 7 unknown #
face $-1 $194 $195 $18 $-1 $196 reversed single #
loop $-1 $-1 $197 $74 #
plane-surface $-1 -66.3472396008179 0 0 1 0 0 0 0 -1 forward_v I I I I #
coedge $-1 $198 $131 $199 $200 forward $75 $-1 #
coedge $-1 $201 $77 $198 $202 forward $49 $-1 #
coedge $-1 $77 $201 $203 $204 forward $49 $-1 #
coedge $-1 $134 $133 $77 $127 reversed $135 $-1 #
edge $-1 $205 -32.118891655993352 $206 32.118891655993352 $126 $207 forward 7 unknown #
coedge $-1 $79 $78 $208 $209 forward $31 $-1 #
coedge $-1 $210 $211 $78 $130 reversed $195 $-1 #
edge $-1 $137 -66.3472396008179 $212 66.3472396008179 $129 $213 forward 7 unknown #
coedge $-1 $123 $214 $79 $132 reversed $75 $-1 #
edge $-1 $215 -66.3472396008179 $136 66.3472396008179 $131 $216 forward 7 unknown #
coedge $-1 $126 $80 $214 $217 forward $135 $-1 #
coedge $-1 $80 $126 $210 $218 reversed $135 $-1 #
loop $-1 $-1 $133 $194 #
vertex $-1 $81 $219 #
vertex $-1 $81 $220 #
straight-curve $-1 66.3472396008179 0 11.801955242387939 0 1 0 I I #
face $-1 $221 $222 $19 $-1 $223 reversed single #
loop $-1 $-1 $144 $82 #
plane-surface $-1 0 -32.118891655993352 0 0 1 0 0 0 1 forward_v I I I I #
coedge $-1 $224 $225 $143 $226 forward $83 $-1 #
coedge $-1 $151 $85 $142 $226 reversed $53 $-1 #
coedge $-1 $149 $227 $85 $145 forward $140 $-1 #
edge $-1 $228 -6.6509776211939693 $152 -3.6509776211939693 $144 $229 forward 7 unknown #
coedge $-1 $87 $86 $230 $231 reversed $34 $-1 #
coedge $-1 $232 $233 $86 $148 forward $234 $-1 #
edge $-1 $235 -36.903407920072759 $153 -21.984255441417524 $147 $236 forward 7 unknown #
coedge $-1 $237 $144 $87 $150 forward $140 $-1 #
edge $-1 $152 21.984255441417524 $238 36.903407920072759 $149 $239 forward 7 unknown #
coedge $-1 $88 $143 $232 $240 reversed $53 $-1 #
vertex $-1 $150 $241 #
vertex $-1 $148 $242 #
straight-curve $-1 -51.428087122162665 0 -8.8019552423879386 0 1 0 I I #
face $-1 $-1 $167 $20 $-1 $243 forward single #
loop $-1 $-1 $244 $90 #
plane-surface $-1 0 32.118891655993352 0 0 -1 0 0 0 -1 forward_v I I I I #
coedge $-1 $245 $246 $160 $247 forward $91 $-1 #
coedge $-1 $248 $93 $95 $165 forward $57 $-1 #
coedge $-1 $93 $248 $158 $247 reversed $57 $-1 #
coedge $-1 $249 $96 $93 $162 forward $167 $-1 #
edge $-1 $169 21.41504720527584 $250 37.093143998786665 $161 $251 forward 7 unknown #
coedge $-1 $252 $244 $94 $164 forward $156 $-1 #
edge $-1 $253 -68.586559118750159 $168 -61.901057671392685 $163 $254 forward 7 unknown #
edge $-1 $169 54.04738721859917 $253 64.237783311986703 $95 $255 forward 7 unknown #
coedge $-1 $96 $249 $252 $256 forward $167 $-1 #
loop $-1 $-1 $161 $155 #
vertex $-1 $164 $257 #
vertex $-1 $97 $258 #
straight-curve $-1 50.66914280730709 35.346716929881104 11.801955242387933 0 -1 0 I I #
coedge $-1 $171 $171 $-1 $259 reversed $100 $-1 #
edge $-1 $260 0 $260 6.2831853071796004 $101 $261 forward 7 unknown #
vertex $-1 $104 $262 #
ellipse-curve $-1 58.508191204062484 28.273496912358144 8.4592045187092051 0 0.6560590369687036 0.75470957328743171 2 0 0 1 I I #
face $-1 $-1 $263 $22 $-1 $264 reversed single #
loop $-1 $-1 $265 $105 #
plane-surface $-1 0 -32.118891655993352 0 0 1 0 0 0 1 forward_v I I I I #
coedge $-1 $179 $108 $110 $185 reversed $66 $-1 #
coedge $-1 $108 $178 $266 $267 reversed $66 $-1 #
coedge $-1 $268 $111 $108 $181 forward $106 $-1 #
edge $-1 $188 -35.159049777318153 $269 -27.468260290047745 $180 $270 forward 7 unknown #
coedge $-1 $110 $109 $265 $271 reversed $43 $-1 #
coedge $-1 $272 $273 $109 $184 forward $263 $-1 #
edge $-1 $274 -10.441869633348716 $187 -0.25147353996119215 $183 $275 forward 7 unknown #
edge $-1 $276 0 $188 10.190396093387523 $178 $277 forward 7 unknown #
coedge $-1 $111 $268 $272 $278 forward $106 $-1 #
vertex $-1 $184 $279 #
vertex $-1 $112 $280 #
straight-curve $-1 29.254095602031249 -24.428102168722948 11.801955242387939 -1 0 0 I I #
coedge $-1 $190 $190 $-1 $281 reversed $115 $-1 #
edge $-1 $282 0 $282 6.2831853071796004 $116 $283 forward 7 unknown #
vertex $-1 $119 $284 #
ellipse-curve $-1 58.508191204062484 -28.273496912358148 8.4592045187092104 0 -0.6560590369687036 0.75470957328743171 2 0 0 1 I I #
face $-1 $-1 $135 $18 $-1 $285 reversed single #
loop $-1 $-1 $210 $120 #
plane-surface $-1 0 32.118891655993352 0 0 -1 0 0 0 -1 forward_v I I I I #
coedge $-1 $286 $208 $211 $287 forward $121 $-1 #
coedge $-1 $214 $123 $124 $202 reversed $75 $-1 #
coedge $-1 $208 $286 $123 $200 reversed $121 $-1 #
edge $-1 $215 -11.801955242387939 $288 11.801955242387939 $199 $289 forward 7 unknown #
coedge $-1 $125 $124 $286 $290 forward $49 $-1 #
edge $-1 $206 -66.3472396008179 $288 66.3472396008179 $198 $291 forward 7 unknown #
coedge $-1 $211 $210 $125 $204 reversed $195 $-1 #
edge $-1 $292 -66.3472396008179 $205 66.3472396008179 $203 $293 forward 7 unknown #
vertex $-1 $127 $294 #
vertex $-1 $217 $295 #
straight-curve $-1 66.3472396008179 0 -11.801955242387939 0 -1 0 I I #
coedge $-1 $197 $199 $128 $209 reversed $121 $-1 #
edge $-1 $212 -32.118891655993352 $215 32.118891655993352 $208 $296 forward 7 unknown #
coedge $-1 $203 $129 $134 $218 forward $195 $-1 #
coedge $-1 $129 $203 $197 $287 reversed $195 $-1 #
vertex $-1 $130 $297 #
straight-curve $-1 0 32.118891655993352 11.801955242387939 -1 0 0 I I #
coedge $-1 $131 $198 $133 $217 reversed $75 $-1 #
vertex $-1 $209 $298 #
straight-curve $-1 0 -32.118891655993352 11.801955242387939 1 0 0 I I #
edge $-1 $136 -11.801955242387939 $206 11.801955242387939 $133 $299 forward 7 unknown #
edge $-1 $137 -11.801955242387939 $205 11.801955242387939 $134 $300 forward 7 unknown #
point $-1 66.3472396008179 -32.118891655993352 11.801955242387939 #
point $-1 66.3472396008179 32.118891655993352 11.801955242387939 #
face $-1 $-1 $234 $19 $-1 $301 reversed single #
loop $-1 $-1 $230 $139 #
plane-surface $-1 -66.3472396008179 0 0 1 0 0 0 0 -1 forward_v I I I I #
coedge $-1 $302 $142 $227 $303 forward $83 $-1 #
coedge $-1 $142 $302 $304 $305 forward $83 $-1 #
edge $-1 $306 -32.118891655993352 $228 32.118891655993352 $142 $307 forward 7 unknown #
coedge $-1 $144 $237 $224 $303 reversed $140 $-1 #
vertex $-1 $303 $308 #
straight-curve $-1 -51.428087122162665 -32.118891655993352 -5.1509776211939693 0 0 1 I I #
coedge $-1 $309 $310 $146 $231 forward $222 $-1 #
edge $-1 $238 -32.118891655993352 $235 32.118891655993352 $230 $311 forward 7 unknown #
coedge $-1 $304 $147 $151 $240 forward $234 $-1 #
coedge $-1 $147 $304 $309 $312 reversed $234 $-1 #
loop $-1 $-1 $232 $221 #
vertex $-1 $312 $313 #
straight-curve $-1 -29.443831680745141 32.118891655993352 -8.8019552423879386 1 0 0 I I #
coedge $-1 $227 $149 $310 $314 forward $140 $-1 #
vertex $-1 $314 $315 #
straight-curve $-1 -29.443831680745141 -32.118891655993352 -8.8019552423879386 -1 0 0 I I #
edge $-1 $153 3.6509776211939693 $306 6.6509776211939693 $232 $316 forward 7 unknown #
point $-1 -51.428087122162665 -32.118891655993352 -8.8019552423879386 #
point $-1 -51.428087122162665 32.118891655993352 -8.8019552423879386 #
plane-surface $-1 0 0 11.801955242387939 0 0 1 1 0 0 forward_v I I I I #
coedge $-1 $163 $317 $248 $318 forward $156 $-1 #
coedge $-1 $246 $158 $317 $319 reversed $91 $-1 #
coedge $-1 $158 $245 $249 $320 reversed $91 $-1 #
edge $-1 $250 32.370365195954534 $321 42.560761289342068 $158 $322 forward 7 unknown #
coedge $-1 $160 $159 $244 $318 reversed $57 $-1 #
coedge $-1 $166 $161 $246 $320 forward $167 $-1 #
vertex $-1 $320 $323 #
straight-curve $-1 29.254095602031249 24.428102168722933 11.80195524238794 1 0 0 I I #
coedge $-1 $317 $163 $166 $256 reversed $156 $-1 #
vertex $-1 $164 $324 #
straight-curve $-1 50.66914280730709 32.118891655993352 73.703012913780626 0 0 1 I I #
straight-curve $-1 50.66914280730709 -16.361978376326633 47.260232051696732 0 0.75470957328743171 -0.6560590369687036 I I #
edge $-1 $325 -66.3472396008179 $168 -50.66914280730709 $252 $326 forward 7 unknown #
point $-1 50.66914280730709 32.118891655993352 11.801955242387939 #
point $-1 50.66914280730709 24.428102168722937 11.80195524238794 #
edge $-1 $327 1 $327 0 $171 $-1 forward 7 unknown #
vertex $-1 $172 $328 #
ellipse-curve $-1 58.508191204062484 25.983266833232737 5.8245962466654984 0 0.6560590369687036 0.75470957328743171 2 0 0 1 I I #
point $-1 60.508191204062484 28.273496912358141 8.4592045187092069 #
loop $-1 $-1 $183 $175 #
plane-surface $-1 66.3472396008179 0 0 -1 0 0 0 0 1 forward_v I I I I #
coedge $-1 $329 $266 $182 $271 forward $176 $-1 #
coedge $-1 $265 $330 $179 $267 forward $176 $-1 #
edge $-1 $269 40.829168543059559 $276 47.514669990417019 $266 $331 forward 7 unknown #
coedge $-1 $186 $180 $330 $332 forward $106 $-1 #
vertex $-1 $332 $333 #
straight-curve $-1 50.66914280730709 -59.587151946041097 11.80195524238794 0 -1 0 I I #
edge $-1 $276 21.41504720527584 $274 37.093143998786665 $265 $334 forward 7 unknown #
coedge $-1 $273 $183 $186 $278 reversed $263 $-1 #
coedge $-1 $183 $272 $329 $335 forward $263 $-1 #
vertex $-1 $271 $336 #
straight-curve $-1 66.3472396008179 -24.238312680685752 11.966936730837988 0 0.75470957328743171 0.6560590369687036 I I #
vertex $-1 $271 $337 #
straight-curve $-1 50.66914280730709 -32.118891655993352 5.1164537950304805 0 0.75470957328743171 0.6560590369687036 I I #
edge $-1 $338 -32.118891655993352 $187 -24.428102168722944 $272 $339 forward 7 unknown #
point $-1 66.347239600817915 -24.428102168722944 11.801955242387939 #
point $-1 50.66914280730709 -24.428102168722944 11.801955242387939 #
edge $-1 $340 1 $340 0 $190 $-1 forward 7 unknown #
vertex $-1 $191 $341 #
ellipse-curve $-1 58.508191204062484 -25.983266833232729 5.8245962466654913 0 -0.6560590369687036 0.75470957328743171 2 0 0 1 I I #
point $-1 60.508191204062484 -28.273496912358134 8.4592045187091998 #
plane-surface $-1 66.3472396008179 0 0 -1 0 0 0 0 1 forward_v I I I I #
coedge $-1 $199 $197 $201 $290 reversed $121 $-1 #
edge $-1 $212 -11.801955242387939 $292 11.801955242387939 $211 $342 forward 7 unknown #
vertex $-1 $290 $343 #
straight-curve $-1 -66.3472396008179 -32.118891655993352 0 0 0 -1 I I #
edge $-1 $288 -32.118891655993352 $292 32.118891655993352 $286 $344 forward 7 unknown #
straight-curve $-1 0 -32.118891655993352 -11.801955242387939 -1 0 0 I I #
vertex $-1 $204 $345 #
straight-curve $-1 0 32.118891655993352 -11.801955242387939 1 0 0 I I #
point $-1 66.3472396008179 32.118891655993352 -11.801955242387939 #
point $-1 66.3472396008179 -32.118891655993352 -11.801955242387939 #
straight-curve $-1 -66.3472396008179 0 11.801955242387939 0 -1 0 I I #
point $-1 -66.3472396008179 32.118891655993352 11.801955242387939 #
point $-1 -66.3472396008179 -32.118891655993352 11.801955242387939 #
straight-curve $-1 66.3472396008179 -32.118891655993352 0 0 0 -1 I I #
straight-curve $-1 66.3472396008179 32.118891655993352 0 0 0 -1 I I #
plane-surface $-1 0 32.118891655993352 0 0 -1 0 0 0 -1 forward_v I I I I #
coedge $-1 $225 $224 $346 $347 forward $83 $-1 #
edge $-1 $228 51.428087122162665 $348 66.3472396008179 $227 $349 forward 7 unknown #
coedge $-1 $233 $232 $225 $305 reversed $234 $-1 #
edge $-1 $350 -66.3472396008179 $306 -51.428087122162665 $304 $351 forward 7 unknown #
vertex $-1 $240 $352 #
straight-curve $-1 -51.428087122162665 0 -11.801955242387939 0 -1 0 I I #
point $-1 -51.428087122162665 -32.118891655993352 -11.801955242387939 #
coedge $-1 $346 $230 $233 $312 forward $222 $-1 #
coedge $-1 $230 $346 $237 $314 reversed $222 $-1 #
straight-curve $-1 -66.3472396008179 0 -8.8019552423879386 0 1 0 I I #
edge $-1 $235 8.8019552423879386 $350 11.801955242387939 $233 $353 forward 7 unknown #
point $-1 -66.3472396008179 32.118891655993352 -8.8019552423879386 #
edge $-1 $238 8.8019552423879386 $348 11.801955242387939 $310 $354 forward 7 unknown #
point $-1 -66.3472396008179 -32.118891655993352 -8.8019552423879386 #
straight-curve $-1 -51.428087122162665 32.118891655993352 -5.1509776211939693 0 0 -1 I I #
coedge $-1 $244 $252 $245 $319 forward $156 $-1 #
edge $-1 $321 -37.093143998786665 $253 -21.41504720527584 $244 $355 forward 7 unknown #
edge $-1 $325 -11.801955242387939 $321 -5.1164537950304734 $245 $356 forward 7 unknown #
edge $-1 $250 24.428102168722937 $325 32.118891655993352 $246 $357 forward 7 unknown #
vertex $-1 $247 $358 #
straight-curve $-1 66.3472396008179 -0.0021223354742385681 33.038825859171112 0 0.75470957328743171 -0.6560590369687036 I I #
point $-1 66.347239600817915 24.428102168722937 11.80195524238794 #
point $-1 50.66914280730709 32.118891655993352 5.1164537950304734 #
vertex $-1 $320 $359 #
straight-curve $-1 0 32.118891655993352 11.801955242387939 -1 0 0 I I #
vertex $-1 $259 $360 #
point $-1 60.508191204062484 25.983266833232737 5.8245962466654984 #
coedge $-1 $330 $265 $273 $335 reversed $176 $-1 #
coedge $-1 $266 $329 $268 $332 reversed $176 $-1 #
straight-curve $-1 50.66914280730709 -32.118891655993352 52.6311237854475 0 0 -1 I I #
edge $-1 $269 50.66914280730709 $338 66.3472396008179 $330 $361 forward 7 unknown #
point $-1 50.66914280730709 -32.118891655993352 11.801955242387939 #
straight-curve $-1 29.254095602031249 -32.118891655993352 5.1164537950304787 1 0 0 I I #
edge $-1 $338 -11.801955242387939 $274 -5.1164537950304805 $273 $362 forward 7 unknown #
point $-1 66.347239600817915 -32.118891655993352 5.1164537950304805 #
point $-1 50.66914280730709 -32.118891655993352 5.1164537950304805 #
vertex $-1 $278 $363 #
straight-curve $-1 66.3472396008179 0 11.801955242387939 0 1 0 I I #
vertex $-1 $281 $364 #
point $-1 60.508191204062484 -25.983266833232729 5.8245962466654913 #
straight-curve $-1 -66.3472396008179 32.118891655993352 0 0 0 -1 I I #
point $-1 -66.3472396008179 -32.118891655993352 -11.801955242387939 #
straight-curve $-1 -66.3472396008179 0 -11.801955242387939 0 1 0 I I #
point $-1 -66.3472396008179 32.118891655993352 -11.801955242387939 #
coedge $-1 $310 $309 $302 $347 reversed $222 $-1 #
edge $-1 $348 -32.118891655993352 $350 32.118891655993352 $346 $365 forward 7 unknown #
vertex $-1 $347 $366 #
straight-curve $-1 0 -32.118891655993352 -11.801955242387939 -1 0 0 I I #
vertex $-1 $305 $367 #
straight-curve $-1 0 32.118891655993352 -11.801955242387939 1 0 0 I I #
point $-1 -51.428087122162665 32.118891655993352 -11.801955242387939 #
straight-curve $-1 -66.3472396008179 32.118891655993352 0 0 0 -1 I I #
straight-curve $-1 -66.3472396008179 -32.118891655993352 0 0 0 -1 I I #
straight-curve $-1 29.254095602031249 32.118891655993352 5.1164537950304769 -1 0 0 I I #
straight-curve $-1 66.3472396008179 32.118891655993352 0 0 0 -1 I I #
straight-curve $-1 66.3472396008179 0 11.801955242387939 0 1 0 I I #
point $-1 66.347239600817915 32.118891655993352 5.1164537950304734 #
point $-1 66.3472396008179 32.118891655993352 11.801955242387939 #
point $-1 58.508191204062484 24.671148759295331 4.3151771000906347 #
straight-curve $-1 0 -32.118891655993352 11.801955242387939 1 0 0 I I #
straight-curve $-1 66.3472396008179 -32.118891655993352 0 0 0 -1 I I #
point $-1 66.3472396008179 -32.118891655993352 11.801955242387939 #
point $-1 58.508191204062484 -24.671148759295324 4.3151771000906276 #
straight-curve $-1 -66.3472396008179 0 -11.801955242387939 0 1 0 I I #
point $-1 -66.3472396008179 -32.118891655993352 -11.801955242387939 #
point $-1 -66.3472396008179 32.118891655993352 -11.801955242387939 #
End-of-ACIS-data 