500 0 18 0           
7 Unknown 11 ACIS 5.0 NT 24 Thu Mar 25 20:32:36 1999 
-1 9.9999999999999995e-007 1e-010 
body $-1 $18 $-1 $19 #
body $-1 $20 $-1 $21 #
body $-1 $22 $-1 $23 #
body $-1 $24 $-1 $25 #
body $-1 $26 $-1 $27 #
body $-1 $28 $-1 $29 #
body $-1 $30 $-1 $31 #
body $-1 $32 $-1 $33 #
body $-1 $34 $-1 $35 #
body $-1 $36 $-1 $37 #
body $-1 $38 $-1 $39 #
body $-1 $40 $-1 $41 #
body $-1 $42 $-1 $43 #
body $-1 $44 $-1 $45 #
body $-1 $46 $-1 $47 #
body $-1 $48 $-1 $49 #
body $-1 $50 $-1 $51 #
body $-1 $52 $-1 $53 #
lump $-1 $-1 $54 $0 #
transform $-1 1 0 0 0 1 0 0 0 1 42.282784508804589 22.438897055684166 7.3536744939347161 1 rotate no_reflect no_shear #
lump $-1 $-1 $55 $1 #
transform $-1 1 0 0 0 1 0 0 0 1 42.282784508804589 22.438897055684166 7.3536744939347161 1 rotate no_reflect no_shear #
lump $-1 $-1 $56 $2 #
transform $-1 1 0 0 0 1 0 0 0 1 42.282784508804589 22.438897055684166 7.3536744939347161 1 rotate no_reflect no_shear #
lump $-1 $-1 $57 $3 #
transform $-1 1 0 0 0 1 0 0 0 1 42.282784508804589 22.438897055684166 7.3536744939347161 1 rotate no_reflect no_shear #
lump $-1 $-1 $58 $4 #
transform $-1 1 0 0 0 1 0 0 0 1 42.282784508804589 22.438897055684166 7.3536744939347161 1 rotate no_reflect no_shear #
lump $-1 $-1 $59 $5 #
transform $-1 1 0 0 0 1 0 0 0 1 42.282784508804589 22.438897055684166 7.3536744939347161 1 rotate no_reflect no_shear #
lump $-1 $-1 $60 $6 #
transform $-1 1 0 0 0 1 0 0 0 1 42.282784508804589 22.438897055684166 7.3536744939347161 1 rotate no_reflect no_shear #
lump $-1 $-1 $61 $7 #
transform $-1 1 0 0 0 1 0 0 0 1 42.282784508804589 22.438897055684166 7.3536744939347161 1 rotate no_reflect no_shear #
lump $-1 $-1 $62 $8 #
transform $-1 1 0 0 0 1 0 0 0 1 42.282784508804589 22.438897055684166 7.3536744939347161 1 rotate no_reflect no_shear #
lump $-1 $-1 $63 $9 #
transform $-1 1 0 0 0 1 0 0 0 1 42.282784508804589 22.438897055684166 7.3536744939347161 1 rotate no_reflect no_shear #
lump $-1 $-1 $64 $10 #
transform $-1 1 0 0 0 1 0 0 0 1 42.282784508804589 22.438897055684166 7.3536744939347161 1 rotate no_reflect no_shear #
lump $-1 $-1 $65 $11 #
transform $-1 1 0 0 0 1 0 0 0 1 42.282784508804589 22.438897055684166 7.3536744939347161 1 rotate no_reflect no_shear #
lump $-1 $-1 $66 $12 #
transform $-1 1 0 0 0 1 0 0 0 1 42.282784508804589 22.438897055684166 7.3536744939347161 1 rotate no_reflect no_shear #
lump $-1 $-1 $67 $13 #
transform $-1 1 0 0 0 1 0 0 0 1 42.282784508804589 22.438897055684166 7.3536744939347161 1 rotate no_reflect no_shear #
lump $-1 $-1 $68 $14 #
transform $-1 1 0 0 0 1 0 0 0 1 42.282784508804589 22.438897055684166 7.3536744939347161 1 rotate no_reflect no_shear #
lump $-1 $-1 $69 $15 #
transform $-1 1 0 0 0 1 0 0 0 1 42.282784508804589 22.438897055684166 7.3536744939347161 1 rotate no_reflect no_shear #
lump $-1 $-1 $70 $16 #
transform $-1 1 0 0 0 1 0 0 0 1 42.282784508804589 22.438897055684166 7.3536744939347161 1 rotate no_reflect no_shear #
lump $-1 $-1 $71 $17 #
transform $-1 1 0 0 0 1 0 0 0 1 42.282784508804589 22.438897055684166 7.3536744939347161 1 rotate no_reflect no_shear #
shell $-1 $-1 $-1 $72 $-1 $18 #
shell $-1 $-1 $-1 $73 $-1 $20 #
shell $-1 $-1 $-1 $74 $-1 $22 #
shell $-1 $-1 $-1 $75 $-1 $24 #
shell $-1 $-1 $-1 $76 $-1 $26 #
shell $-1 $-1 $-1 $77 $-1 $28 #
shell $-1 $-1 $-1 $78 $-1 $30 #
shell $-1 $-1 $-1 $79 $-1 $32 #
shell $-1 $-1 $-1 $80 $-1 $34 #
shell $-1 $-1 $-1 $81 $-1 $36 #
shell $-1 $-1 $-1 $82 $-1 $38 #
shell $-1 $-1 $-1 $83 $-1 $40 #
shell $-1 $-1 $-1 $84 $-1 $42 #
shell $-1 $-1 $-1 $85 $-1 $44 #
shell $-1 $-1 $-1 $86 $-1 $46 #
shell $-1 $-1 $-1 $87 $-1 $48 #
shell $-1 $-1 $-1 $88 $-1 $50 #
shell $-1 $-1 $-1 $89 $-1 $52 #
face $-1 $90 $91 $54 $-1 $92 forward single #
face $-1 $93 $94 $55 $-1 $95 forward single #
face $-1 $96 $97 $56 $-1 $98 reversed single #
face $-1 $99 $100 $57 $-1 $101 forward single #
face $-1 $102 $103 $58 $-1 $104 forward single #
face $-1 $105 $106 $59 $-1 $107 forward single #
face $-1 $108 $109 $60 $-1 $110 reversed single #
face $-1 $111 $112 $61 $-1 $113 forward single #
face $-1 $114 $115 $62 $-1 $116 forward single #
face $-1 $117 $118 $63 $-1 $119 forward single #
face $-1 $120 $121 $64 $-1 $122 reversed single #
face $-1 $123 $124 $65 $-1 $125 forward single #
face $-1 $126 $127 $66 $-1 $128 forward single #
face $-1 $129 $130 $67 $-1 $131 forward single #
face $-1 $132 $133 $68 $-1 $134 reversed single #
face $-1 $135 $136 $69 $-1 $137 forward single #
face $-1 $138 $139 $70 $-1 $140 forward single #
face $-1 $141 $142 $71 $-1 $143 forward single #
face $-1 $144 $145 $54 $-1 $146 reversed single #
loop $-1 $-1 $147 $72 #
plane-surface $-1 0 0 7.3536744939347161 0 0 1 1 0 0 forward_v I I I I #
face $-1 $148 $149 $55 $-1 $150 reversed single #
loop $-1 $-1 $151 $73 #
plane-surface $-1 0 -18.817232004449981 3.3638076722074315 0 0 1 1 0 0 forward_v I I I I #
face $-1 $152 $153 $56 $-1 $154 reversed single #
loop $-1 $-1 $155 $74 #
plane-surface $-1 -98.86819566318502 -5.6284155102305622 64.279435104245948 0 1 0 -0.66913061440640931 0 0.74314481823134659 forward_v I I I I #
face $-1 $156 $157 $57 $-1 $158 forward single #
loop $-1 $159 $160 $75 #
cone-surface $-1 -38.661526013971411 -3.7783993979376156 4.0227501818638753 0.66913061440640931 0 -0.74314481823134659 0.3715724091156733 0 0.33456530720320465 1 I I 0 1 0.5 forward I I I I #
face $-1 $161 $162 $58 $-1 $163 forward single #
loop $-1 $164 $165 $76 #
cone-surface $-1 -38.661526013971411 -1.0033752294981895 4.0227501818638753 0.66913061440640931 0 -0.74314481823134659 0.3715724091156733 0 0.33456530720320465 1 I I 0 1 0.5 forward I I I I #
face $-1 $166 $167 $59 $-1 $168 forward single #
loop $-1 $169 $170 $77 #
cone-surface $-1 -38.661526013971411 1.7716489389412331 4.0227501818638753 0.66913061440640931 0 -0.74314481823134659 0.3715724091156733 0 0.33456530720320465 1 I I 0 1 0.5 forward I I I I #
face $-1 $171 $172 $60 $-1 $173 reversed single #
loop $-1 $-1 $174 $78 #
plane-surface $-1 -98.86819566318502 13.188816494219415 64.279435104245948 0 1 0 -0.66913061440640931 0 0.74314481823134659 forward_v I I I I #
face $-1 $175 $176 $61 $-1 $177 forward single #
loop $-1 $178 $179 $79 #
cone-surface $-1 -38.661526013971411 15.038832606512365 4.0227501818638753 0.66913061440640931 0 -0.74314481823134659 0.3715724091156733 0 0.33456530720320465 1 I I 0 1 0.5 forward I I I I #
face $-1 $180 $181 $62 $-1 $182 forward single #
loop $-1 $183 $184 $80 #
cone-surface $-1 -38.661526013971411 17.813856774951788 4.0227501818638753 0.66913061440640931 0 -0.74314481823134659 0.3715724091156733 0 0.33456530720320465 1 I I 0 1 0.5 forward I I I I #
face $-1 $185 $186 $63 $-1 $187 forward single #
loop $-1 $188 $189 $81 #
cone-surface $-1 -38.661526013971411 20.588880943391217 4.0227501818638753 0.66913061440640931 0 -0.74314481823134659 0.3715724091156733 0 0.33456530720320465 1 I I 0 1 0.5 forward I I I I #
face $-1 $190 $191 $64 $-1 $192 reversed single #
loop $-1 $-1 $193 $82 #
plane-surface $-1 36.023731246963443 3.6216650512341833 120.8648462586264 0 -1 0 -0.66913061440640931 0 -0.74314481823134659 forward_v I I I I #
face $-1 $194 $195 $65 $-1 $196 forward single #
loop $-1 $197 $198 $83 #
cone-surface $-1 38.661526013971404 -3.7783993979376156 4.0227501818638682 -0.66913061440640931 0 -0.74314481823134659 0.3715724091156733 0 -0.33456530720320465 1 I I 0 1 0.5 forward I I I I #
face $-1 $199 $200 $66 $-1 $201 forward single #
loop $-1 $202 $203 $84 #
cone-surface $-1 38.661526013971404 -1.0033752294981895 4.0227501818638682 -0.66913061440640931 0 -0.74314481823134659 0.3715724091156733 0 -0.33456530720320465 1 I I 0 1 0.5 forward I I I I #
face $-1 $204 $205 $67 $-1 $206 forward single #
loop $-1 $207 $208 $85 #
cone-surface $-1 38.661526013971404 1.7716489389412331 4.0227501818638682 -0.66913061440640931 0 -0.74314481823134659 0.3715724091156733 0 -0.33456530720320465 1 I I 0 1 0.5 forward I I I I #
face $-1 $209 $210 $68 $-1 $211 reversed single #
loop $-1 $-1 $212 $86 #
plane-surface $-1 -20.561679907416988 17.813856774951788 58.020381842404845 0.66913061440640931 0 0.74314481823134659 0.74314481823134659 0 -0.66913061440640931 forward_v I I I I #
face $-1 $213 $214 $69 $-1 $215 forward single #
loop $-1 $216 $217 $87 #
cone-surface $-1 38.661526013971404 15.038832606512365 4.0227501818638682 -0.66913061440640931 0 -0.74314481823134659 0.3715724091156733 0 -0.33456530720320465 1 I I 0 1 0.5 forward I I I I #
face $-1 $218 $219 $70 $-1 $220 forward single #
loop $-1 $221 $222 $88 #
cone-surface $-1 38.661526013971404 17.813856774951788 4.0227501818638682 -0.66913061440640931 0 -0.74314481823134659 0.3715724091156733 0 -0.33456530720320465 1 I I 0 1 0.5 forward I I I I #
face $-1 $223 $224 $71 $-1 $225 forward single #
loop $-1 $226 $227 $89 #
cone-surface $-1 38.661526013971404 20.588880943391217 4.0227501818638682 -0.66913061440640931 0 -0.74314481823134659 0.3715724091156733 0 -0.33456530720320465 1 I I 0 1 0.5 forward I I I I #
face $-1 $228 $229 $54 $-1 $230 reversed single #
loop $-1 $-1 $231 $90 #
plane-surface $-1 0 0 -7.3536744939347161 0 0 1 1 0 0 forward_v I I I I #
coedge $-1 $232 $233 $234 $235 forward $91 $-1 #
face $-1 $236 $237 $55 $-1 $238 reversed single #
loop $-1 $-1 $239 $93 #
plane-surface $-1 0 -18.817232004449981 0.36380767220743149 0 0 1 1 0 0 forward_v I I I I #
coedge $-1 $240 $241 $242 $243 reversed $94 $-1 #
face $-1 $244 $245 $56 $-1 $246 reversed single #
loop $-1 $-1 $247 $96 #
plane-surface $-1 -42.282784508804589 -1.0033752294981895 1.4349706880243929 -0.66913061440640931 0 0.74314481823134659 0.74314481823134659 0 0.66913061440640931 forward_v I I I I #
coedge $-1 $248 $249 $250 $251 reversed $97 $-1 #
face $-1 $-1 $252 $57 $-1 $253 forward single #
loop $-1 $254 $255 $99 #
cone-surface $-1 -38.159678053166601 -3.7783993979376156 3.4653915681903653 0.66913061440640931 0 -0.74314481823134659 0.18578620455783665 0 0.16728265360160233 1 I I -0.70710678118654746 0.70710678118654746 0.25 forward I I I I #
loop $-1 $-1 $256 $75 #
coedge $-1 $160 $160 $257 $258 reversed $100 $-1 #
face $-1 $-1 $259 $58 $-1 $260 forward single #
loop $-1 $261 $262 $102 #
cone-surface $-1 -38.159678053166601 -1.0033752294981895 3.4653915681903653 0.66913061440640931 0 -0.74314481823134659 0.18578620455783665 0 0.16728265360160233 1 I I -0.70710678118654746 0.70710678118654746 0.25 forward I I I I #
loop $-1 $-1 $263 $76 #
coedge $-1 $165 $165 $264 $265 reversed $103 $-1 #
face $-1 $-1 $266 $59 $-1 $267 forward single #
loop $-1 $268 $269 $105 #
cone-surface $-1 -38.159678053166601 1.7716489389412331 3.4653915681903653 0.66913061440640931 0 -0.74314481823134659 0.18578620455783665 0 0.16728265360160233 1 I I -0.70710678118654746 0.70710678118654746 0.25 forward I I I I #
loop $-1 $-1 $270 $77 #
coedge $-1 $170 $170 $271 $272 reversed $106 $-1 #
face $-1 $273 $274 $60 $-1 $275 forward single #
loop $-1 $-1 $276 $108 #
plane-surface $-1 -42.282784508804589 17.813856774951788 1.4349706880243929 -0.66913061440640931 0 0.74314481823134659 0.74314481823134659 0 0.66913061440640931 forward_v I I I I #
coedge $-1 $277 $278 $279 $280 reversed $109 $-1 #
face $-1 $-1 $281 $61 $-1 $282 forward single #
loop $-1 $283 $284 $111 #
cone-surface $-1 -38.159678053166601 15.038832606512365 3.4653915681903653 0.66913061440640931 0 -0.74314481823134659 0.18578620455783665 0 0.16728265360160233 1 I I -0.70710678118654746 0.70710678118654746 0.25 forward I I I I #
loop $-1 $-1 $285 $79 #
coedge $-1 $179 $179 $286 $287 reversed $112 $-1 #
face $-1 $-1 $288 $62 $-1 $289 forward single #
loop $-1 $290 $291 $114 #
cone-surface $-1 -38.159678053166601 17.813856774951788 3.4653915681903653 0.66913061440640931 0 -0.74314481823134659 0.18578620455783665 0 0.16728265360160233 1 I I -0.70710678118654746 0.70710678118654746 0.25 forward I I I I #
loop $-1 $-1 $292 $80 #
coedge $-1 $184 $184 $293 $294 reversed $115 $-1 #
face $-1 $-1 $295 $63 $-1 $296 forward single #
loop $-1 $297 $298 $117 #
cone-surface $-1 -38.159678053166601 20.588880943391217 3.4653915681903653 0.66913061440640931 0 -0.74314481823134659 0.18578620455783665 0 0.16728265360160233 1 I I -0.70710678118654746 0.70710678118654746 0.25 forward I I I I #
loop $-1 $-1 $299 $81 #
coedge $-1 $189 $189 $300 $301 reversed $118 $-1 #
face $-1 $302 $303 $64 $-1 $304 reversed single #
loop $-1 $-1 $305 $120 #
plane-surface $-1 -20.561679907416988 -1.0033752294981895 58.020381842404845 0.66913061440640931 0 0.74314481823134659 0.74314481823134659 0 -0.66913061440640931 forward_v I I I I #
coedge $-1 $306 $307 $308 $309 reversed $121 $-1 #
face $-1 $-1 $310 $65 $-1 $311 forward single #
loop $-1 $312 $313 $123 #
cone-surface $-1 38.159678053166594 -3.7783993979376156 3.4653915681903582 -0.66913061440640931 0 -0.74314481823134659 0.18578620455783665 0 -0.16728265360160233 1 I I -0.70710678118654746 0.70710678118654746 0.25 forward I I I I #
loop $-1 $-1 $314 $83 #
coedge $-1 $198 $198 $315 $316 reversed $124 $-1 #
face $-1 $-1 $317 $66 $-1 $318 forward single #
loop $-1 $319 $320 $126 #
cone-surface $-1 38.159678053166594 -1.0033752294981895 3.4653915681903582 -0.66913061440640931 0 -0.74314481823134659 0.18578620455783665 0 -0.16728265360160233 1 I I -0.70710678118654746 0.70710678118654746 0.25 forward I I I I #
loop $-1 $-1 $321 $84 #
coedge $-1 $203 $203 $322 $323 reversed $127 $-1 #
face $-1 $-1 $324 $67 $-1 $325 forward single #
loop $-1 $326 $327 $129 #
cone-surface $-1 38.159678053166594 1.7716489389412331 3.4653915681903582 -0.66913061440640931 0 -0.74314481823134659 0.18578620455783665 0 -0.16728265360160233 1 I I -0.70710678118654746 0.70710678118654746 0.25 forward I I I I #
loop $-1 $-1 $328 $85 #
coedge $-1 $208 $208 $329 $330 reversed $130 $-1 #
face $-1 $331 $332 $68 $-1 $333 reversed single #
loop $-1 $-1 $334 $132 #
plane-surface $-1 36.023731246963443 13.188816494219415 120.8648462586264 0 1 0 0.66913061440640931 0 0.74314481823134659 forward_v I I I I #
coedge $-1 $335 $336 $337 $338 reversed $133 $-1 #
face $-1 $-1 $339 $69 $-1 $340 forward single #
loop $-1 $341 $342 $135 #
cone-surface $-1 38.159678053166594 15.038832606512365 3.4653915681903582 -0.66913061440640931 0 -0.74314481823134659 0.18578620455783665 0 -0.16728265360160233 1 I I -0.70710678118654746 0.70710678118654746 0.25 forward I I I I #
loop $-1 $-1 $343 $87 #
coedge $-1 $217 $217 $344 $345 reversed $136 $-1 #
face $-1 $-1 $346 $70 $-1 $347 forward single #
loop $-1 $348 $349 $138 #
cone-surface $-1 38.159678053166594 17.813856774951788 3.4653915681903582 -0.66913061440640931 0 -0.74314481823134659 0.18578620455783665 0 -0.16728265360160233 1 I I -0.70710678118654746 0.70710678118654746 0.25 forward I I I I #
loop $-1 $-1 $350 $88 #
coedge $-1 $222 $222 $351 $352 reversed $139 $-1 #
face $-1 $-1 $353 $71 $-1 $354 forward single #
loop $-1 $355 $356 $141 #
cone-surface $-1 38.159678053166594 20.588880943391217 3.4653915681903582 -0.66913061440640931 0 -0.74314481823134659 0.18578620455783665 0 -0.16728265360160233 1 I I -0.70710678118654746 0.70710678118654746 0.25 forward I I I I #
loop $-1 $-1 $357 $89 #
coedge $-1 $227 $227 $358 $359 reversed $142 $-1 #
face $-1 $360 $361 $54 $-1 $362 reversed single #
loop $-1 $-1 $363 $144 #
plane-surface $-1 0 -22.438897055684166 0 0 1 0 0 0 1 forward_v I I I I #
coedge $-1 $364 $365 $366 $367 forward $145 $-1 #
coedge $-1 $368 $147 $369 $370 forward $91 $-1 #
coedge $-1 $147 $368 $371 $372 forward $91 $-1 #
coedge $-1 $373 $374 $147 $235 reversed $375 $-1 #
edge $-1 $376 -22.438897055684166 $377 22.438897055684166 $234 $378 forward 7 unknown #
face $-1 $379 $380 $55 $-1 $381 reversed single #
loop $-1 $-1 $382 $148 #
plane-surface $-1 0 -15.195566953215796 1.8638076722074315 0 -1 0 0 0 -1 forward_v I I I I #
coedge $-1 $383 $384 $385 $386 reversed $149 $-1 #
coedge $-1 $387 $151 $388 $389 forward $94 $-1 #
coedge $-1 $151 $387 $390 $391 reversed $94 $-1 #
coedge $-1 $392 $393 $151 $243 forward $394 $-1 #
edge $-1 $395 5.7869509509908053 $396 13.030281053459175 $242 $397 forward 7 unknown #
face $-1 $398 $399 $56 $-1 $400 reversed single #
loop $-1 $-1 $401 $152 #
plane-surface $-1 -98.86819566318502 3.6216650512341833 64.279435104245948 0 -1 0 0.66913061440640931 0 -0.74314481823134659 forward_v I I I I #
coedge $-1 $402 $403 $404 $405 reversed $153 $-1 #
coedge $-1 $249 $155 $406 $407 reversed $97 $-1 #
coedge $-1 $155 $248 $402 $408 reversed $97 $-1 #
coedge $-1 $404 $409 $155 $251 forward $410 $-1 #
edge $-1 $411 7.1513133227879209 $412 13.724699698047864 $250 $413 forward 7 unknown #
loop $-1 $-1 $257 $156 #
plane-surface $-1 -42.282784508804589 -1.0033752294981895 1.4349706880243929 -0.66913061440640931 0 0.74314481823134659 0.74314481823134659 0 0.66913061440640931 forward_v I I I I #
loop $-1 $-1 $414 $99 #
coedge $-1 $255 $255 $256 $415 reversed $157 $-1 #
coedge $-1 $256 $256 $255 $415 forward $159 $-1 #
coedge $-1 $257 $257 $160 $258 forward $252 $-1 #
edge $-1 $416 0 $416 6.2831853071796004 $257 $417 forward 7 unknown #
loop $-1 $-1 $264 $161 #
plane-surface $-1 -42.282784508804589 -1.0033752294981895 1.4349706880243929 -0.66913061440640931 0 0.74314481823134659 0.74314481823134659 0 0.66913061440640931 forward_v I I I I #
loop $-1 $-1 $418 $102 #
coedge $-1 $262 $262 $263 $419 reversed $162 $-1 #
coedge $-1 $263 $263 $262 $419 forward $164 $-1 #
coedge $-1 $264 $264 $165 $265 forward $259 $-1 #
edge $-1 $420 0 $420 6.2831853071796004 $264 $421 forward 7 unknown #
loop $-1 $-1 $271 $166 #
plane-surface $-1 -42.282784508804589 -1.0033752294981895 1.4349706880243929 -0.66913061440640931 0 0.74314481823134659 0.74314481823134659 0 0.66913061440640931 forward_v I I I I #
loop $-1 $-1 $422 $105 #
coedge $-1 $269 $269 $270 $423 reversed $167 $-1 #
coedge $-1 $270 $270 $269 $423 forward $169 $-1 #
coedge $-1 $271 $271 $170 $272 forward $266 $-1 #
edge $-1 $424 0 $424 6.2831853071796004 $271 $425 forward 7 unknown #
face $-1 $426 $427 $60 $-1 $428 reversed single #
loop $-1 $-1 $279 $171 #
plane-surface $-1 0 0 7.3536744939347161 0 0 1 1 0 0 forward_v I I I I #
coedge $-1 $429 $430 $431 $432 reversed $172 $-1 #
coedge $-1 $278 $174 $433 $434 reversed $109 $-1 #
coedge $-1 $174 $277 $429 $435 reversed $109 $-1 #
coedge $-1 $431 $436 $174 $280 forward $274 $-1 #
edge $-1 $437 7.1513133227879209 $438 13.724699698047864 $279 $439 forward 7 unknown #
loop $-1 $-1 $286 $175 #
plane-surface $-1 -42.282784508804589 17.813856774951788 1.4349706880243929 -0.66913061440640931 0 0.74314481823134659 0.74314481823134659 0 0.66913061440640931 forward_v I I I I #
loop $-1 $-1 $440 $111 #
coedge $-1 $284 $284 $285 $441 reversed $176 $-1 #
coedge $-1 $285 $285 $284 $441 forward $178 $-1 #
coedge $-1 $286 $286 $179 $287 forward $281 $-1 #
edge $-1 $442 0 $442 6.2831853071796004 $286 $443 forward 7 unknown #
loop $-1 $-1 $293 $180 #
plane-surface $-1 -42.282784508804589 17.813856774951788 1.4349706880243929 -0.66913061440640931 0 0.74314481823134659 0.74314481823134659 0 0.66913061440640931 forward_v I I I I #
loop $-1 $-1 $444 $114 #
coedge $-1 $291 $291 $292 $445 reversed $181 $-1 #
coedge $-1 $292 $292 $291 $445 forward $183 $-1 #
coedge $-1 $293 $293 $184 $294 forward $288 $-1 #
edge $-1 $446 0 $446 6.2831853071796004 $293 $447 forward 7 unknown #
loop $-1 $-1 $300 $185 #
plane-surface $-1 -42.282784508804589 17.813856774951788 1.4349706880243929 -0.66913061440640931 0 0.74314481823134659 0.74314481823134659 0 0.66913061440640931 forward_v I I I I #
loop $-1 $-1 $448 $117 #
coedge $-1 $298 $298 $299 $449 reversed $186 $-1 #
coedge $-1 $299 $299 $298 $449 forward $188 $-1 #
coedge $-1 $300 $300 $189 $301 forward $295 $-1 #
edge $-1 $450 0 $450 6.2831853071796004 $300 $451 forward 7 unknown #
face $-1 $452 $453 $64 $-1 $454 reversed single #
loop $-1 $-1 $455 $190 #
plane-surface $-1 36.023731246963443 -5.6284155102305622 120.8648462586264 0 1 0 0.66913061440640931 0 0.74314481823134659 forward_v I I I I #
coedge $-1 $456 $457 $458 $459 reversed $191 $-1 #
coedge $-1 $307 $193 $460 $461 reversed $121 $-1 #
coedge $-1 $193 $306 $456 $462 reversed $121 $-1 #
coedge $-1 $458 $463 $193 $309 forward $464 $-1 #
edge $-1 $465 -24.270918885322867 $466 -17.697532510062924 $308 $467 forward 7 unknown #
loop $-1 $-1 $315 $194 #
plane-surface $-1 -20.561679907416988 -1.0033752294981895 58.020381842404845 0.66913061440640931 0 0.74314481823134659 0.74314481823134659 0 -0.66913061440640931 forward_v I I I I #
loop $-1 $-1 $468 $123 #
coedge $-1 $313 $313 $314 $469 reversed $195 $-1 #
coedge $-1 $314 $314 $313 $469 forward $197 $-1 #
coedge $-1 $315 $315 $198 $316 forward $310 $-1 #
edge $-1 $470 0 $470 6.2831853071796004 $315 $471 forward 7 unknown #
loop $-1 $-1 $322 $199 #
plane-surface $-1 -20.561679907416988 -1.0033752294981895 58.020381842404845 0.66913061440640931 0 0.74314481823134659 0.74314481823134659 0 -0.66913061440640931 forward_v I I I I #
loop $-1 $-1 $472 $126 #
coedge $-1 $320 $320 $321 $473 reversed $200 $-1 #
coedge $-1 $321 $321 $320 $473 forward $202 $-1 #
coedge $-1 $322 $322 $203 $323 forward $317 $-1 #
edge $-1 $474 0 $474 6.2831853071796004 $322 $475 forward 7 unknown #
loop $-1 $-1 $329 $204 #
plane-surface $-1 -20.561679907416988 -1.0033752294981895 58.020381842404845 0.66913061440640931 0 0.74314481823134659 0.74314481823134659 0 -0.66913061440640931 forward_v I I I I #
loop $-1 $-1 $476 $129 #
coedge $-1 $327 $327 $328 $477 reversed $205 $-1 #
coedge $-1 $328 $328 $327 $477 forward $207 $-1 #
coedge $-1 $329 $329 $208 $330 forward $324 $-1 #
edge $-1 $478 0 $478 6.2831853071796004 $329 $479 forward 7 unknown #
face $-1 $480 $481 $68 $-1 $482 forward single #
loop $-1 $-1 $483 $209 #
plane-surface $-1 42.282784508804589 0 0 -1 0 0 0 0 1 forward_v I I I I #
coedge $-1 $484 $485 $486 $487 reversed $210 $-1 #
coedge $-1 $488 $212 $489 $490 reversed $133 $-1 #
coedge $-1 $212 $488 $484 $491 forward $133 $-1 #
coedge $-1 $486 $492 $212 $338 forward $481 $-1 #
edge $-1 $493 -13.531968668208265 $494 -4.281888106743521 $337 $495 forward 7 unknown #
loop $-1 $-1 $344 $213 #
plane-surface $-1 -20.561679907416988 17.813856774951788 58.020381842404845 0.66913061440640931 0 0.74314481823134659 0.74314481823134659 0 -0.66913061440640931 forward_v I I I I #
loop $-1 $-1 $496 $135 #
coedge $-1 $342 $342 $343 $497 reversed $214 $-1 #
coedge $-1 $343 $343 $342 $497 forward $216 $-1 #
coedge $-1 $344 $344 $217 $345 forward $339 $-1 #
edge $-1 $498 0 $498 6.2831853071796004 $344 $499 forward 7 unknown #
loop $-1 $-1 $351 $218 #
plane-surface $-1 -20.561679907416988 17.813856774951788 58.020381842404845 0.66913061440640931 0 0.74314481823134659 0.74314481823134659 0 -0.66913061440640931 forward_v I I I I #
loop $-1 $-1 $500 $138 #
coedge $-1 $349 $349 $350 $501 reversed $219 $-1 #
coedge $-1 $350 $350 $349 $501 forward $221 $-1 #
coedge $-1 $351 $351 $222 $352 forward $346 $-1 #
edge $-1 $502 0 $502 6.2831853071796004 $351 $503 forward 7 unknown #
loop $-1 $-1 $358 $223 #
plane-surface $-1 -20.561679907416988 17.813856774951788 58.020381842404845 0.66913061440640931 0 0.74314481823134659 0.74314481823134659 0 -0.66913061440640931 forward_v I I I I #
loop $-1 $-1 $504 $141 #
coedge $-1 $356 $356 $357 $505 reversed $224 $-1 #
coedge $-1 $357 $357 $356 $505 forward $226 $-1 #
coedge $-1 $358 $358 $227 $359 forward $353 $-1 #
edge $-1 $506 0 $506 6.2831853071796004 $358 $507 forward 7 unknown #
face $-1 $508 $509 $54 $-1 $510 reversed single #
loop $-1 $-1 $511 $228 #
plane-surface $-1 -42.282784508804589 0 0 1 0 0 0 0 -1 forward_v I I I I #
coedge $-1 $512 $371 $513 $514 forward $229 $-1 #
coedge $-1 $515 $231 $512 $516 forward $145 $-1 #
coedge $-1 $231 $515 $517 $518 forward $145 $-1 #
coedge $-1 $374 $373 $231 $367 reversed $375 $-1 #
edge $-1 $519 -22.438897055684166 $520 22.438897055684166 $366 $521 forward 7 unknown #
coedge $-1 $233 $232 $522 $523 forward $91 $-1 #
coedge $-1 $524 $525 $232 $370 reversed $509 $-1 #
edge $-1 $377 -42.282784508804589 $526 42.282784508804589 $369 $527 forward 7 unknown #
coedge $-1 $363 $528 $233 $372 reversed $229 $-1 #
edge $-1 $529 -42.282784508804589 $376 42.282784508804589 $371 $530 forward 7 unknown #
coedge $-1 $366 $234 $528 $531 forward $375 $-1 #
coedge $-1 $234 $366 $524 $532 reversed $375 $-1 #
loop $-1 $-1 $373 $508 #
vertex $-1 $235 $533 #
vertex $-1 $235 $534 #
straight-curve $-1 42.282784508804589 0 7.3536744939347161 0 1 0 I I #
face $-1 $535 $536 $55 $-1 $537 reversed single #
loop $-1 $-1 $538 $236 #
plane-surface $-1 -42.282784508804589 0 0 1 0 0 0 0 -1 forward_v I I I I #
coedge $-1 $539 $388 $393 $540 reversed $237 $-1 #
coedge $-1 $541 $239 $542 $543 reversed $149 $-1 #
coedge $-1 $239 $541 $539 $544 forward $149 $-1 #
coedge $-1 $393 $392 $239 $386 forward $394 $-1 #
edge $-1 $545 -13.030281053459175 $546 -5.7869509509908053 $385 $547 forward 7 unknown #
coedge $-1 $241 $240 $538 $548 reversed $94 $-1 #
coedge $-1 $382 $549 $240 $389 reversed $237 $-1 #
edge $-1 $395 -42.282784508804589 $550 42.282784508804589 $388 $551 forward 7 unknown #
coedge $-1 $552 $553 $241 $391 forward $536 $-1 #
edge $-1 $396 -42.282784508804589 $554 42.282784508804589 $390 $555 forward 7 unknown #
coedge $-1 $385 $242 $553 $556 forward $394 $-1 #
coedge $-1 $242 $385 $382 $540 forward $394 $-1 #
loop $-1 $-1 $242 $535 #
vertex $-1 $243 $557 #
vertex $-1 $556 $558 #
straight-curve $-1 42.282784508804589 -9.4086160022249903 3.3638076722074315 0 -1 0 I I #
face $-1 $-1 $410 $56 $-1 $559 forward single #
loop $-1 $-1 $560 $244 #
plane-surface $-1 -42.282784508804589 0 0 1 0 0 0 0 -1 forward_v I I I I #
coedge $-1 $561 $562 $563 $564 reversed $245 $-1 #
coedge $-1 $565 $247 $249 $408 forward $153 $-1 #
coedge $-1 $247 $565 $561 $566 forward $153 $-1 #
coedge $-1 $563 $250 $247 $405 forward $410 $-1 #
edge $-1 $412 -5.1267278954814675 $567 4.123352665983278 $404 $568 forward 7 unknown #
coedge $-1 $569 $570 $248 $407 forward $399 $-1 #
edge $-1 $571 -30.704746864098581 $411 -24.786043058188259 $406 $572 forward 7 unknown #
edge $-1 $412 -8.8453639371452883 $571 0 $249 $573 forward 7 unknown #
coedge $-1 $250 $563 $569 $574 forward $410 $-1 #
loop $-1 $-1 $563 $398 #
vertex $-1 $407 $575 #
vertex $-1 $251 $576 #
straight-curve $-1 -49.43409783159251 -5.6284155102305622 7.3536744939347152 1 0 0 I I #
coedge $-1 $414 $414 $-1 $577 reversed $254 $-1 #
edge $-1 $578 0 $578 6.2831853071796004 $255 $579 forward 7 unknown #
vertex $-1 $258 $580 #
ellipse-curve $-1 -38.996091321174617 -3.7783993979376156 4.3943225909795522 -0.66913061440640931 0 0.74314481823134659 0.3715724091156733 0 0.33456530720320465 1 I I #
coedge $-1 $418 $418 $-1 $581 reversed $261 $-1 #
edge $-1 $582 0 $582 6.2831853071796004 $262 $583 forward 7 unknown #
vertex $-1 $265 $584 #
ellipse-curve $-1 -38.996091321174617 -1.0033752294981895 4.3943225909795522 -0.66913061440640931 0 0.74314481823134659 0.3715724091156733 0 0.33456530720320465 1 I I #
coedge $-1 $422 $422 $-1 $585 reversed $268 $-1 #
edge $-1 $586 0 $586 6.2831853071796004 $269 $587 forward 7 unknown #
vertex $-1 $272 $588 #
ellipse-curve $-1 -38.996091321174617 1.7716489389412331 4.3943225909795522 -0.66913061440640931 0 0.74314481823134659 0.3715724091156733 0 0.33456530720320465 1 I I #
face $-1 $-1 $589 $60 $-1 $590 reversed single #
loop $-1 $-1 $591 $273 #
plane-surface $-1 0 22.438897055684166 0 0 -1 0 0 0 -1 forward_v I I I I #
coedge $-1 $592 $276 $278 $435 forward $172 $-1 #
coedge $-1 $276 $592 $591 $593 reversed $172 $-1 #
coedge $-1 $594 $279 $276 $432 forward $274 $-1 #
edge $-1 $438 4.281888106743521 $595 13.531968668208265 $431 $596 forward 7 unknown #
coedge $-1 $597 $598 $277 $434 forward $589 $-1 #
edge $-1 $599 -30.704746864098581 $437 -24.786043058188259 $433 $600 forward 7 unknown #
edge $-1 $438 -8.8453639371452883 $599 0 $278 $601 forward 7 unknown #
coedge $-1 $279 $594 $597 $602 forward $274 $-1 #
vertex $-1 $434 $603 #
vertex $-1 $280 $604 #
straight-curve $-1 -49.43409783159251 13.188816494219415 7.3536744939347152 1 0 0 I I #
coedge $-1 $440 $440 $-1 $605 reversed $283 $-1 #
edge $-1 $606 0 $606 6.2831853071796004 $284 $607 forward 7 unknown #
vertex $-1 $287 $608 #
ellipse-curve $-1 -38.996091321174617 15.038832606512365 4.3943225909795522 -0.66913061440640931 0 0.74314481823134659 0.3715724091156733 0 0.33456530720320465 1 I I #
coedge $-1 $444 $444 $-1 $609 reversed $290 $-1 #
edge $-1 $610 0 $610 6.2831853071796004 $291 $611 forward 7 unknown #
vertex $-1 $294 $612 #
ellipse-curve $-1 -38.996091321174617 17.813856774951788 4.3943225909795522 -0.66913061440640931 0 0.74314481823134659 0.3715724091156733 0 0.33456530720320465 1 I I #
coedge $-1 $448 $448 $-1 $613 reversed $297 $-1 #
edge $-1 $614 0 $614 6.2831853071796004 $298 $615 forward 7 unknown #
vertex $-1 $301 $616 #
ellipse-curve $-1 -38.996091321174617 20.588880943391217 4.3943225909795522 -0.66913061440640931 0 0.74314481823134659 0.3715724091156733 0 0.33456530720320465 1 I I #
face $-1 $-1 $464 $64 $-1 $617 forward single #
loop $-1 $-1 $618 $302 #
plane-surface $-1 42.282784508804589 0 0 -1 0 0 0 0 1 forward_v I I I I #
coedge $-1 $619 $620 $621 $622 reversed $303 $-1 #
coedge $-1 $623 $305 $307 $462 forward $191 $-1 #
coedge $-1 $305 $623 $619 $624 forward $191 $-1 #
coedge $-1 $621 $308 $305 $459 forward $464 $-1 #
edge $-1 $466 -4.123352665983278 $625 5.1267278954814675 $458 $626 forward 7 unknown #
coedge $-1 $627 $628 $306 $461 forward $453 $-1 #
edge $-1 $629 -58.997452441288807 $465 -53.078748635378481 $460 $630 forward 7 unknown #
edge $-1 $466 75.720205080463899 $629 84.565569017609192 $307 $631 forward 7 unknown #
coedge $-1 $308 $621 $627 $632 forward $464 $-1 #
loop $-1 $-1 $621 $452 #
vertex $-1 $461 $633 #
vertex $-1 $309 $634 #
straight-curve $-1 18.011865623481722 3.6216650512341833 7.3536744939347187 -1 0 0 I I #
coedge $-1 $468 $468 $-1 $635 reversed $312 $-1 #
edge $-1 $636 0 $636 6.2831853071796004 $313 $637 forward 7 unknown #
vertex $-1 $316 $638 #
ellipse-curve $-1 38.996091321174617 -3.7783993979376156 4.3943225909795522 0.66913061440640931 0 0.74314481823134659 0.3715724091156733 0 -0.33456530720320465 1 I I #
coedge $-1 $472 $472 $-1 $639 reversed $319 $-1 #
edge $-1 $640 0 $640 6.2831853071796004 $320 $641 forward 7 unknown #
vertex $-1 $323 $642 #
ellipse-curve $-1 38.996091321174617 -1.0033752294981895 4.3943225909795522 0.66913061440640931 0 0.74314481823134659 0.3715724091156733 0 -0.33456530720320465 1 I I #
coedge $-1 $476 $476 $-1 $643 reversed $326 $-1 #
edge $-1 $644 0 $644 6.2831853071796004 $327 $645 forward 7 unknown #
vertex $-1 $330 $646 #
ellipse-curve $-1 38.996091321174617 1.7716489389412331 4.3943225909795522 0.66913061440640931 0 0.74314481823134659 0.3715724091156733 0 -0.33456530720320465 1 I I #
face $-1 $-1 $647 $68 $-1 $648 reversed single #
loop $-1 $-1 $486 $331 #
plane-surface $-1 0 0 7.3536744939347161 0 0 1 1 0 0 forward_v I I I I #
coedge $-1 $649 $650 $485 $651 forward $332 $-1 #
coedge $-1 $485 $334 $336 $491 reversed $210 $-1 #
coedge $-1 $334 $484 $483 $651 reversed $210 $-1 #
coedge $-1 $652 $337 $334 $487 forward $481 $-1 #
edge $-1 $494 17.697532510062924 $653 24.270918885322867 $486 $654 forward 7 unknown #
coedge $-1 $336 $335 $649 $655 reversed $133 $-1 #
coedge $-1 $656 $657 $335 $490 forward $647 $-1 #
edge $-1 $658 -57.513809203793514 $493 -48.66844526664822 $489 $659 forward 7 unknown #
edge $-1 $660 -84.565569017609192 $494 -75.720205080463899 $484 $661 forward 7 unknown #
coedge $-1 $337 $652 $656 $662 forward $481 $-1 #
vertex $-1 $490 $663 #
vertex $-1 $338 $664 #
straight-curve $-1 35.709398133544646 8.9069283874758938 7.3536744939347187 0 -1 0 I I #
coedge $-1 $496 $496 $-1 $665 reversed $341 $-1 #
edge $-1 $666 0 $666 6.2831853071796004 $342 $667 forward 7 unknown #
vertex $-1 $345 $668 #
ellipse-curve $-1 38.996091321174617 15.038832606512365 4.3943225909795522 0.66913061440640931 0 0.74314481823134659 0.3715724091156733 0 -0.33456530720320465 1 I I #
coedge $-1 $500 $500 $-1 $669 reversed $348 $-1 #
edge $-1 $670 0 $670 6.2831853071796004 $349 $671 forward 7 unknown #
vertex $-1 $352 $672 #
ellipse-curve $-1 38.996091321174617 17.813856774951788 4.3943225909795522 0.66913061440640931 0 0.74314481823134659 0.3715724091156733 0 -0.33456530720320465 1 I I #
coedge $-1 $504 $504 $-1 $673 reversed $355 $-1 #
edge $-1 $674 0 $674 6.2831853071796004 $356 $675 forward 7 unknown #
vertex $-1 $359 $676 #
ellipse-curve $-1 38.996091321174617 20.588880943391217 4.3943225909795522 0.66913061440640931 0 0.74314481823134659 0.3715724091156733 0 -0.33456530720320465 1 I I #
face $-1 $-1 $375 $54 $-1 $677 reversed single #
loop $-1 $-1 $524 $360 #
plane-surface $-1 0 22.438897055684166 0 0 -1 0 0 0 -1 forward_v I I I I #
coedge $-1 $678 $522 $525 $679 forward $361 $-1 #
coedge $-1 $528 $363 $364 $516 reversed $229 $-1 #
coedge $-1 $522 $678 $363 $514 reversed $361 $-1 #
edge $-1 $529 -7.3536744939347161 $680 7.3536744939347161 $513 $681 forward 7 unknown #
coedge $-1 $365 $364 $678 $682 forward $145 $-1 #
edge $-1 $520 -42.282784508804589 $680 42.282784508804589 $512 $683 forward 7 unknown #
coedge $-1 $525 $524 $365 $518 reversed $509 $-1 #
edge $-1 $684 -42.282784508804589 $519 42.282784508804589 $517 $685 forward 7 unknown #
vertex $-1 $367 $686 #
vertex $-1 $531 $687 #
straight-curve $-1 42.282784508804589 0 -7.3536744939347161 0 -1 0 I I #
coedge $-1 $511 $513 $368 $523 reversed $361 $-1 #
edge $-1 $526 -22.438897055684166 $529 22.438897055684166 $522 $688 forward 7 unknown #
coedge $-1 $517 $369 $374 $532 forward $509 $-1 #
coedge $-1 $369 $517 $511 $679 reversed $509 $-1 #
vertex $-1 $370 $689 #
straight-curve $-1 0 22.438897055684166 7.3536744939347161 -1 0 0 I I #
coedge $-1 $371 $512 $373 $531 reversed $229 $-1 #
vertex $-1 $523 $690 #
straight-curve $-1 0 -22.438897055684166 7.3536744939347161 1 0 0 I I #
edge $-1 $376 -7.3536744939347161 $520 7.3536744939347161 $373 $691 forward 7 unknown #
edge $-1 $377 -7.3536744939347161 $519 7.3536744939347161 $374 $692 forward 7 unknown #
point $-1 42.282784508804589 -22.438897055684166 7.3536744939347161 #
point $-1 42.282784508804589 22.438897055684166 7.3536744939347161 #
face $-1 $-1 $394 $55 $-1 $693 reversed single #
loop $-1 $-1 $390 $379 #
plane-surface $-1 0 -22.438897055684166 0 0 1 0 0 0 1 forward_v I I I I #
coedge $-1 $694 $695 $387 $548 forward $380 $-1 #
coedge $-1 $549 $382 $384 $544 reversed $237 $-1 #
edge $-1 $546 -0.56809616389628426 $395 2.4319038361037157 $393 $696 forward 7 unknown #
coedge $-1 $384 $383 $697 $698 reversed $149 $-1 #
coedge $-1 $553 $552 $383 $543 forward $536 $-1 #
edge $-1 $699 -42.282784508804589 $545 42.282784508804589 $542 $700 forward 7 unknown #
edge $-1 $701 -42.282784508804589 $546 42.282784508804589 $539 $702 forward 7 unknown #
vertex $-1 $543 $703 #
vertex $-1 $386 $704 #
straight-curve $-1 42.282784508804589 -9.4086160022249903 0.36380767220743149 0 1 0 I I #
edge $-1 $554 -13.030281053459175 $550 -5.7869509509908053 $538 $705 forward 7 unknown #
coedge $-1 $388 $539 $694 $706 reversed $237 $-1 #
vertex $-1 $548 $707 #
straight-curve $-1 0 -15.195566953215796 3.3638076722074315 -1 0 0 I I #
coedge $-1 $542 $390 $695 $708 forward $536 $-1 #
coedge $-1 $390 $542 $392 $556 reversed $536 $-1 #
vertex $-1 $708 $709 #
straight-curve $-1 0 -22.438897055684166 3.3638076722074315 -1 0 0 I I #
edge $-1 $396 -3.3638076722074315 $545 -0.36380767220743149 $392 $710 forward 7 unknown #
point $-1 42.282784508804589 -15.195566953215796 3.3638076722074315 #
point $-1 42.282784508804589 -22.438897055684166 3.3638076722074315 #
plane-surface $-1 0 0 7.3536744939347161 0 0 1 1 0 0 forward_v I I I I #
coedge $-1 $570 $569 $562 $711 forward $399 $-1 #
coedge $-1 $562 $401 $403 $566 reversed $245 $-1 #
coedge $-1 $401 $561 $560 $711 reversed $245 $-1 #
coedge $-1 $409 $404 $401 $564 forward $410 $-1 #
edge $-1 $567 -13.724699698047864 $712 -7.1513133227879209 $563 $713 forward 7 unknown #
coedge $-1 $403 $402 $570 $714 reversed $153 $-1 #
edge $-1 $715 0 $567 8.8453639371452883 $561 $716 forward 7 unknown #
vertex $-1 $405 $717 #
straight-curve $-1 -35.709398133544646 -0.50168761474909473 7.3536744939347152 0 1 0 I I #
coedge $-1 $560 $406 $409 $574 reversed $399 $-1 #
coedge $-1 $406 $560 $565 $714 forward $399 $-1 #
vertex $-1 $407 $718 #
straight-curve $-1 -42.282784508804589 -5.6284155102305622 32.139717552122974 0 0 1 I I #
straight-curve $-1 -42.282784508804589 -5.6284155102305622 1.4349706880243929 -0.74314481823134659 0 -0.66913061440640931 I I #
edge $-1 $712 -3.6216650512341833 $411 5.6284155102305622 $569 $719 forward 7 unknown #
point $-1 -42.282784508804589 -5.6284155102305622 7.3536744939347161 #
point $-1 -35.709398133544646 -5.6284155102305622 7.3536744939347161 #
edge $-1 $720 1 $720 0 $414 $-1 forward 7 unknown #
vertex $-1 $415 $721 #
ellipse-curve $-1 -38.326960706768205 -3.7783993979376156 3.651177772748202 -0.66913061440640931 0 0.74314481823134659 0.3715724091156733 0 0.33456530720320465 1 I I #
point $-1 -38.624518912058939 -3.7783993979376156 4.7288878981827533 #
edge $-1 $722 1 $722 0 $418 $-1 forward 7 unknown #
vertex $-1 $419 $723 #
ellipse-curve $-1 -38.326960706768205 -1.0033752294981895 3.651177772748202 -0.66913061440640931 0 0.74314481823134659 0.3715724091156733 0 0.33456530720320465 1 I I #
point $-1 -38.624518912058939 -1.0033752294981895 4.7288878981827533 #
edge $-1 $724 1 $724 0 $422 $-1 forward 7 unknown #
vertex $-1 $423 $725 #
ellipse-curve $-1 -38.326960706768205 1.7716489389412331 3.651177772748202 -0.66913061440640931 0 0.74314481823134659 0.3715724091156733 0 0.33456530720320465 1 I I #
point $-1 -38.624518912058939 1.7716489389412331 4.7288878981827533 #
loop $-1 $-1 $433 $426 #
plane-surface $-1 -42.282784508804589 0 0 1 0 0 0 0 -1 forward_v I I I I #
coedge $-1 $726 $727 $430 $593 forward $427 $-1 #
coedge $-1 $430 $429 $598 $728 reversed $172 $-1 #
edge $-1 $595 6.3856607578436275 $729 15.231024694988918 $591 $730 forward 7 unknown #
coedge $-1 $436 $431 $727 $731 forward $274 $-1 #
vertex $-1 $731 $732 #
straight-curve $-1 -35.709398133544646 8.9069283874758938 7.3536744939347152 0 1 0 I I #
coedge $-1 $733 $433 $436 $602 reversed $589 $-1 #
coedge $-1 $433 $733 $592 $728 forward $589 $-1 #
vertex $-1 $434 $734 #
straight-curve $-1 -42.282784508804589 13.188816494219415 32.139717552122974 0 0 1 I I #
straight-curve $-1 -42.282784508804589 13.188816494219415 1.4349706880243929 -0.74314481823134659 0 -0.66913061440640931 I I #
edge $-1 $735 -22.438897055684166 $437 -13.188816494219415 $597 $736 forward 7 unknown #
point $-1 -42.282784508804589 13.188816494219415 7.3536744939347161 #
point $-1 -35.709398133544646 13.188816494219415 7.3536744939347161 #
edge $-1 $737 1 $737 0 $440 $-1 forward 7 unknown #
vertex $-1 $441 $738 #
ellipse-curve $-1 -38.326960706768205 15.038832606512365 3.651177772748202 -0.66913061440640931 0 0.74314481823134659 0.3715724091156733 0 0.33456530720320465 1 I I #
point $-1 -38.624518912058939 15.038832606512365 4.7288878981827533 #
edge $-1 $739 1 $739 0 $444 $-1 forward 7 unknown #
vertex $-1 $445 $740 #
ellipse-curve $-1 -38.326960706768205 17.813856774951788 3.651177772748202 -0.66913061440640931 0 0.74314481823134659 0.3715724091156733 0 0.33456530720320465 1 I I #
point $-1 -38.624518912058939 17.813856774951788 4.7288878981827533 #
edge $-1 $741 1 $741 0 $448 $-1 forward 7 unknown #
vertex $-1 $449 $742 #
ellipse-curve $-1 -38.326960706768205 20.588880943391217 3.651177772748202 -0.66913061440640931 0 0.74314481823134659 0.3715724091156733 0 0.33456530720320465 1 I I #
point $-1 -38.624518912058939 20.588880943391217 4.7288878981827533 #
plane-surface $-1 0 0 7.3536744939347161 0 0 1 1 0 0 forward_v I I I I #
coedge $-1 $628 $627 $620 $743 forward $453 $-1 #
coedge $-1 $620 $455 $457 $624 reversed $303 $-1 #
coedge $-1 $455 $619 $618 $743 reversed $303 $-1 #
coedge $-1 $463 $458 $455 $622 forward $464 $-1 #
edge $-1 $625 17.697532510062924 $744 24.270918885322867 $621 $745 forward 7 unknown #
coedge $-1 $457 $456 $628 $746 reversed $191 $-1 #
edge $-1 $747 -84.565569017609192 $625 -75.720205080463899 $619 $748 forward 7 unknown #
vertex $-1 $459 $749 #
straight-curve $-1 35.709398133544646 -0.50168761474909473 7.3536744939347187 0 -1 0 I I #
coedge $-1 $618 $460 $463 $632 reversed $453 $-1 #
coedge $-1 $460 $618 $623 $746 forward $453 $-1 #
vertex $-1 $461 $750 #
straight-curve $-1 42.282784508804589 3.6216650512341833 60.4324231293132 0 0 1 I I #
straight-curve $-1 -20.561679907416988 3.6216650512341833 58.020381842404845 0.74314481823134659 0 -0.66913061440640931 I I #
edge $-1 $744 -5.6284155102305622 $465 3.6216650512341833 $627 $751 forward 7 unknown #
point $-1 42.282784508804589 3.6216650512341833 7.3536744939347161 #
point $-1 35.709398133544646 3.6216650512341833 7.3536744939347187 #
edge $-1 $752 1 $752 0 $468 $-1 forward 7 unknown #
vertex $-1 $469 $753 #
ellipse-curve $-1 38.326960706768197 -3.7783993979376156 3.6511777727481949 0.66913061440640931 0 0.74314481823134659 0.3715724091156733 0 -0.33456530720320465 1 I I #
point $-1 39.367663730290282 -3.7783993979376156 4.0597572837763369 #
edge $-1 $754 1 $754 0 $472 $-1 forward 7 unknown #
vertex $-1 $473 $755 #
ellipse-curve $-1 38.326960706768197 -1.0033752294981895 3.6511777727481949 0.66913061440640931 0 0.74314481823134659 0.3715724091156733 0 -0.33456530720320465 1 I I #
point $-1 39.367663730290282 -1.0033752294981895 4.0597572837763369 #
edge $-1 $756 1 $756 0 $476 $-1 forward 7 unknown #
vertex $-1 $477 $757 #
ellipse-curve $-1 38.326960706768197 1.7716489389412331 3.6511777727481949 0.66913061440640931 0 0.74314481823134659 0.3715724091156733 0 -0.33456530720320465 1 I I #
point $-1 39.367663730290282 1.7716489389412331 4.0597572837763369 #
loop $-1 $-1 $489 $480 #
plane-surface $-1 0 22.438897055684166 0 0 -1 0 0 0 -1 forward_v I I I I #
coedge $-1 $758 $483 $488 $655 forward $332 $-1 #
coedge $-1 $483 $758 $652 $759 reversed $332 $-1 #
edge $-1 $653 53.078748635378481 $660 58.997452441288807 $483 $760 forward 7 unknown #
coedge $-1 $492 $486 $650 $759 forward $481 $-1 #
vertex $-1 $759 $761 #
straight-curve $-1 18.011865623481722 13.188816494219415 7.3536744939347187 1 0 0 I I #
edge $-1 $660 4.281888106743521 $658 13.531968668208265 $649 $762 forward 7 unknown #
coedge $-1 $657 $489 $492 $662 reversed $647 $-1 #
coedge $-1 $489 $656 $758 $763 forward $647 $-1 #
vertex $-1 $490 $764 #
straight-curve $-1 -0.45830477774088862 22.438897055684166 39.91922117741175 -0.74314481823134659 0 0.66913061440640931 I I #
vertex $-1 $655 $765 #
straight-curve $-1 -20.561679907416988 13.188816494219415 58.020381842404845 -0.74314481823134659 0 0.66913061440640931 I I #
edge $-1 $766 -42.282784508804589 $493 -35.709398133544646 $656 $767 forward 7 unknown #
point $-1 35.709398133544646 22.438897055684158 7.3536744939347187 #
point $-1 35.709398133544646 13.188816494219415 7.3536744939347187 #
edge $-1 $768 1 $768 0 $496 $-1 forward 7 unknown #
vertex $-1 $497 $769 #
ellipse-curve $-1 38.326960706768197 15.038832606512365 3.6511777727481949 0.66913061440640931 0 0.74314481823134659 0.3715724091156733 0 -0.33456530720320465 1 I I #
point $-1 39.367663730290282 15.038832606512365 4.0597572837763369 #
edge $-1 $770 1 $770 0 $500 $-1 forward 7 unknown #
vertex $-1 $501 $771 #
ellipse-curve $-1 38.326960706768197 17.813856774951788 3.6511777727481949 0.66913061440640931 0 0.74314481823134659 0.3715724091156733 0 -0.33456530720320465 1 I I #
point $-1 39.367663730290282 17.813856774951788 4.0597572837763369 #
edge $-1 $772 1 $772 0 $504 $-1 forward 7 unknown #
vertex $-1 $505 $773 #
ellipse-curve $-1 38.326960706768197 20.588880943391217 3.6511777727481949 0.66913061440640931 0 0.74314481823134659 0.3715724091156733 0 -0.33456530720320465 1 I I #
point $-1 39.367663730290282 20.588880943391217 4.0597572837763369 #
plane-surface $-1 42.282784508804589 0 0 -1 0 0 0 0 1 forward_v I I I I #
coedge $-1 $513 $511 $515 $682 reversed $361 $-1 #
edge $-1 $526 -7.3536744939347161 $684 7.3536744939347161 $525 $774 forward 7 unknown #
vertex $-1 $682 $775 #
straight-curve $-1 -42.282784508804589 -22.438897055684166 0 0 0 -1 I I #
edge $-1 $680 -22.438897055684166 $684 22.438897055684166 $678 $776 forward 7 unknown #
straight-curve $-1 0 -22.438897055684166 -7.3536744939347161 -1 0 0 I I #
vertex $-1 $518 $777 #
straight-curve $-1 0 22.438897055684166 -7.3536744939347161 1 0 0 I I #
point $-1 42.282784508804589 22.438897055684166 -7.3536744939347161 #
point $-1 42.282784508804589 -22.438897055684166 -7.3536744939347161 #
straight-curve $-1 -42.282784508804589 0 7.3536744939347161 0 -1 0 I I #
point $-1 -42.282784508804589 22.438897055684166 7.3536744939347161 #
point $-1 -42.282784508804589 -22.438897055684166 7.3536744939347161 #
straight-curve $-1 42.282784508804589 -22.438897055684166 0 0 0 -1 I I #
straight-curve $-1 42.282784508804589 22.438897055684166 0 0 0 -1 I I #
plane-surface $-1 42.282784508804589 0 0 -1 0 0 0 0 1 forward_v I I I I #
coedge $-1 $697 $538 $549 $706 forward $380 $-1 #
coedge $-1 $538 $697 $552 $708 reversed $380 $-1 #
straight-curve $-1 42.282784508804589 -15.195566953215796 0.93190383610371574 0 0 1 I I #
coedge $-1 $695 $694 $541 $698 forward $380 $-1 #
edge $-1 $701 5.7869509509908053 $699 13.030281053459175 $697 $778 forward 7 unknown #
vertex $-1 $543 $779 #
straight-curve $-1 0 -22.438897055684166 0.36380767220743149 1 0 0 I I #
vertex $-1 $698 $780 #
straight-curve $-1 0 -15.195566953215796 0.36380767220743149 1 0 0 I I #
point $-1 42.282784508804589 -22.438897055684166 0.36380767220743149 #
point $-1 42.282784508804589 -15.195566953215796 0.36380767220743149 #
straight-curve $-1 -42.282784508804589 -9.4086160022249903 3.3638076722074315 0 1 0 I I #
edge $-1 $550 -2.4319038361037157 $701 0.56809616389628426 $694 $781 forward 7 unknown #
point $-1 -42.282784508804589 -15.195566953215796 3.3638076722074315 #
edge $-1 $554 -3.3638076722074315 $699 -0.36380767220743149 $695 $782 forward 7 unknown #
point $-1 -42.282784508804589 -22.438897055684166 3.3638076722074315 #
straight-curve $-1 42.282784508804589 -22.438897055684166 0 0 0 -1 I I #
edge $-1 $712 24.786043058188259 $715 30.704746864098581 $560 $783 forward 7 unknown #
vertex $-1 $574 $784 #
straight-curve $-1 -49.43409783159251 3.6216650512341833 7.3536744939347152 -1 0 0 I I #
edge $-1 $715 -4.123352665983278 $571 5.1267278954814675 $570 $785 forward 7 unknown #
vertex $-1 $714 $786 #
straight-curve $-1 -42.282784508804589 3.6216650512341833 1.4349706880243929 0.74314481823134659 0 0.66913061440640931 I I #
point $-1 -35.709398133544646 3.6216650512341833 7.3536744939347161 #
point $-1 -42.282784508804589 -5.6284155102305622 1.4349706880243929 #
straight-curve $-1 -42.282784508804589 0 7.3536744939347161 0 -1 0 I I #
vertex $-1 $577 $787 #
point $-1 -37.955388297652533 -3.7783993979376156 3.9857430799514066 #
vertex $-1 $581 $788 #
point $-1 -37.955388297652533 -1.0033752294981895 3.9857430799514066 #
vertex $-1 $585 $789 #
point $-1 -37.955388297652533 1.7716489389412331 3.9857430799514066 #
coedge $-1 $727 $591 $733 $790 reversed $427 $-1 #
coedge $-1 $591 $726 $594 $731 reversed $427 $-1 #
edge $-1 $729 -13.531968668208265 $599 -4.281888106743521 $598 $791 forward 7 unknown #
vertex $-1 $593 $792 #
straight-curve $-1 -30.9639274303699 22.438897055684166 11.62651560022152 -0.74314481823134659 0 -0.66913061440640931 I I #
edge $-1 $595 35.709398133544646 $735 42.282784508804589 $727 $793 forward 7 unknown #
point $-1 -35.709398133544646 22.438897055684158 7.3536744939347161 #
coedge $-1 $598 $597 $726 $790 forward $589 $-1 #
point $-1 -42.282784508804589 13.188816494219415 1.4349706880243929 #
vertex $-1 $731 $794 #
straight-curve $-1 -42.282784508804589 0 7.3536744939347161 0 -1 0 I I #
vertex $-1 $605 $795 #
point $-1 -37.955388297652533 15.038832606512365 3.9857430799514066 #
vertex $-1 $609 $796 #
point $-1 -37.955388297652533 17.813856774951788 3.9857430799514066 #
vertex $-1 $613 $797 #
point $-1 -37.955388297652533 20.588880943391217 3.9857430799514066 #
edge $-1 $744 53.078748635378481 $747 58.997452441288807 $618 $798 forward 7 unknown #
vertex $-1 $632 $799 #
straight-curve $-1 18.011865623481722 -5.6284155102305622 7.3536744939347187 1 0 0 I I #
edge $-1 $747 -5.1267278954814675 $629 4.123352665983278 $628 $800 forward 7 unknown #
vertex $-1 $746 $801 #
straight-curve $-1 -20.561679907416988 -5.6284155102305622 58.020381842404845 -0.74314481823134659 0 0.66913061440640931 I I #
point $-1 35.709398133544646 -5.6284155102305622 7.3536744939347187 #
point $-1 42.282784508804589 3.6216650512341833 1.4349706880243929 #
straight-curve $-1 42.282784508804589 0 7.3536744939347161 0 1 0 I I #
vertex $-1 $635 $802 #
point $-1 38.698533115883869 -3.7783993979376156 3.3166124655449902 #
vertex $-1 $639 $803 #
point $-1 38.698533115883869 -1.0033752294981895 3.3166124655449902 #
vertex $-1 $643 $804 #
point $-1 38.698533115883869 1.7716489389412331 3.3166124655449902 #
coedge $-1 $650 $649 $657 $763 reversed $332 $-1 #
edge $-1 $653 13.188816494219415 $766 22.438897055684166 $650 $805 forward 7 unknown #
straight-curve $-1 42.282784508804589 13.188816494219415 60.4324231293132 0 0 -1 I I #
point $-1 42.282784508804589 13.188816494219415 7.3536744939347161 #
straight-curve $-1 42.282784508804582 8.9069283874758938 1.4349706880244035 0 1 0 I I #
edge $-1 $766 -7.3536744939347161 $658 -1.4349706880243929 $758 $806 forward 7 unknown #
point $-1 42.282784508804589 22.438897055684158 1.4349706880243929 #
point $-1 42.282784508804589 13.188816494219415 1.4349706880243929 #
vertex $-1 $759 $807 #
straight-curve $-1 0 22.438897055684166 7.3536744939347161 -1 0 0 I I #
vertex $-1 $665 $808 #
point $-1 38.698533115883869 15.038832606512365 3.3166124655449902 #
vertex $-1 $669 $809 #
point $-1 38.698533115883869 17.813856774951788 3.3166124655449902 #
vertex $-1 $673 $810 #
point $-1 38.698533115883869 20.588880943391217 3.3166124655449902 #
straight-curve $-1 -42.282784508804589 22.438897055684166 0 0 0 -1 I I #
point $-1 -42.282784508804589 -22.438897055684166 -7.3536744939347161 #
straight-curve $-1 -42.282784508804589 0 -7.3536744939347161 0 1 0 I I #
point $-1 -42.282784508804589 22.438897055684166 -7.3536744939347161 #
straight-curve $-1 -42.282784508804589 -9.4086160022249903 0.36380767220743149 0 -1 0 I I #
point $-1 -42.282784508804589 -22.438897055684166 0.36380767220743149 #
point $-1 -42.282784508804589 -15.195566953215796 0.36380767220743149 #
straight-curve $-1 -42.282784508804589 -15.195566953215796 0.93190383610371574 0 0 -1 I I #
straight-curve $-1 -42.282784508804589 -22.438897055684166 0 0 0 -1 I I #
straight-curve $-1 -42.282784508804589 3.6216650512341833 32.139717552122974 0 0 -1 I I #
point $-1 -42.282784508804589 3.6216650512341833 7.3536744939347161 #
straight-curve $-1 -42.282784508804589 -0.50168761474909473 1.434970688024392 0 -1 0 I I #
point $-1 -42.282784508804589 3.6216650512341833 1.4349706880243929 #
point $-1 -37.992395399564998 -3.7783993979376156 3.2796053636325286 #
point $-1 -37.992395399564998 -1.0033752294981895 3.2796053636325286 #
point $-1 -37.992395399564998 1.7716489389412331 3.2796053636325286 #
edge $-1 $735 -7.3536744939347161 $729 -1.4349706880243929 $726 $811 forward 7 unknown #
straight-curve $-1 -42.282784508804589 8.9069283874758938 1.434970688024392 0 -1 0 I I #
point $-1 -42.282784508804589 22.438897055684158 1.4349706880243929 #
straight-curve $-1 0 22.438897055684166 7.3536744939347161 -1 0 0 I I #
point $-1 -42.282784508804589 22.438897055684166 7.3536744939347161 #
point $-1 -37.992395399564998 15.038832606512365 3.2796053636325286 #
point $-1 -37.992395399564998 17.813856774951788 3.2796053636325286 #
point $-1 -37.992395399564998 20.588880943391217 3.2796053636325286 #
straight-curve $-1 42.282784508804589 -5.6284155102305622 60.4324231293132 0 0 -1 I I #
point $-1 42.282784508804589 -5.6284155102305622 7.3536744939347161 #
straight-curve $-1 42.282784508804582 -0.50168761474909473 1.4349706880244035 0 1 0 I I #
point $-1 42.282784508804589 -5.6284155102305622 1.4349706880243929 #
point $-1 37.992395399564991 -3.7783993979376156 3.2796053636325215 #
point $-1 37.992395399564991 -1.0033752294981895 3.2796053636325215 #
point $-1 37.992395399564991 1.7716489389412331 3.2796053636325215 #
straight-curve $-1 42.282784508804589 0 7.3536744939347161 0 1 0 I I #
straight-curve $-1 42.282784508804589 22.438897055684166 0 0 0 -1 I I #
point $-1 42.282784508804589 22.438897055684166 7.3536744939347161 #
point $-1 37.992395399564991 15.038832606512365 3.2796053636325215 #
point $-1 37.992395399564991 17.813856774951788 3.2796053636325215 #
point $-1 37.992395399564991 20.588880943391217 3.2796053636325215 #
straight-curve $-1 -42.282784508804589 22.438897055684166 0 0 0 -1 I I #
End-of-ACIS-data 