500 0 6 0           
7 Unknown 11 ACIS 5.0 NT 24 Fri Mar 26 18:45:55 1999 
-1 9.9999999999999995e-007 1e-010 
body $-1 $6 $-1 $7 #
body $-1 $8 $-1 $9 #
body $-1 $10 $-1 $11 #
body $-1 $12 $-1 $13 #
body $-1 $14 $-1 $15 #
body $-1 $16 $-1 $17 #
lump $-1 $-1 $18 $0 #
transform $-1 1 0 0 0 1 0 0 0 1 45.538499099703969 22.641113021729403 4.8700469584780732 1 rotate no_reflect no_shear #
lump $-1 $-1 $19 $1 #
transform $-1 1 0 0 0 1 0 0 0 1 45.538499099703969 22.641113021729403 4.8700469584780732 1 rotate no_reflect no_shear #
lump $-1 $-1 $20 $2 #
transform $-1 1 0 0 0 1 0 0 0 1 45.538499099703969 22.641113021729403 4.8700469584780732 1 rotate no_reflect no_shear #
lump $-1 $-1 $21 $3 #
transform $-1 1 0 0 0 1 0 0 0 1 45.538499099703969 22.641113021729403 4.8700469584780732 1 rotate no_reflect no_shear #
lump $-1 $-1 $22 $4 #
transform $-1 1 0 0 0 1 0 0 0 1 45.538499099703969 22.641113021729403 4.8700469584780732 1 rotate no_reflect no_shear #
lump $-1 $-1 $23 $5 #
transform $-1 1 0 0 0 1 0 0 0 1 45.538499099703969 22.641113021729403 4.8700469584780732 1 rotate no_reflect no_shear #
shell $-1 $-1 $-1 $24 $-1 $6 #
shell $-1 $-1 $-1 $25 $-1 $8 #
shell $-1 $-1 $-1 $26 $-1 $10 #
shell $-1 $-1 $-1 $27 $-1 $12 #
shell $-1 $-1 $-1 $28 $-1 $14 #
shell $-1 $-1 $-1 $29 $-1 $16 #
face $-1 $30 $31 $18 $-1 $32 forward single #
face $-1 $33 $34 $19 $-1 $35 forward single #
face $-1 $36 $37 $20 $-1 $38 reversed single #
face $-1 $39 $40 $21 $-1 $41 forward single #
face $-1 $42 $43 $22 $-1 $44 forward single #
face $-1 $45 $46 $23 $-1 $47 forward single #
face $-1 $48 $49 $18 $-1 $50 reversed single #
loop $-1 $-1 $51 $24 #
plane-surface $-1 0 0 4.8700469584780732 0 0 1 1 0 0 forward_v I I I I #
face $-1 $52 $53 $19 $-1 $54 reversed single #
loop $-1 $-1 $55 $25 #
plane-surface $-1 0 -22.641113021729403 0 0 1 0 0 0 1 forward_v I I I I #
face $-1 $56 $57 $20 $-1 $58 reversed single #
loop $-1 $-1 $59 $26 #
plane-surface $-1 29.841445444591599 -9.7265713408252044 128.06180553410911 0 -1 0 -0.61566148304635926 0 -0.78801074757464917 forward_v I I I I #
face $-1 $60 $61 $21 $-1 $62 forward single #
loop $-1 $63 $64 $27 #
cone-surface $-1 42.122142047467847 -16.860041414642147 1.9813997278585216 -0.61566148304635926 0 -0.78801074757464917 0.39400537378732459 0 -0.30783074152317963 1 I I 0 1 0.5 forward I I I I #
face $-1 $65 $66 $22 $-1 $67 forward single #
loop $-1 $68 $69 $28 #
cone-surface $-1 42.122142047467847 -14.184990136960794 1.9813997278585216 -0.61566148304635926 0 -0.78801074757464917 0.39400537378732459 0 -0.30783074152317963 1 I I 0 1 0.5 forward I I I I #
face $-1 $70 $71 $23 $-1 $72 forward single #
loop $-1 $73 $74 $29 #
cone-surface $-1 42.122142047467847 -11.50993885927944 1.9813997278585216 -0.61566148304635926 0 -0.78801074757464917 0.39400537378732459 0 -0.30783074152317963 1 I I 0 1 0.5 forward I I I I #
face $-1 $75 $76 $18 $-1 $77 reversed single #
loop $-1 $-1 $78 $30 #
plane-surface $-1 0 0 -4.8700469584780732 0 0 1 1 0 0 forward_v I I I I #
coedge $-1 $79 $80 $81 $82 forward $31 $-1 #
face $-1 $83 $84 $19 $-1 $85 forward single #
loop $-1 $-1 $86 $33 #
plane-surface $-1 -45.538499099703969 0 0 1 0 0 0 0 -1 forward_v I I I I #
coedge $-1 $87 $88 $89 $90 forward $34 $-1 #
face $-1 $91 $92 $20 $-1 $93 reversed single #
loop $-1 $-1 $94 $36 #
plane-surface $-1 -26.231154338266485 -14.184990136960794 56.292152096138679 0.61566148304635926 0 0.78801074757464917 0.78801074757464917 0 -0.61566148304635926 forward_v I I I I #
coedge $-1 $95 $96 $97 $98 reversed $37 $-1 #
face $-1 $-1 $99 $21 $-1 $100 forward single #
loop $-1 $101 $102 $39 #
cone-surface $-1 41.52805041770489 -16.860041414642147 1.2209971329440394 -0.61566148304635926 0 -0.78801074757464917 0.19700268689366229 0 -0.15391537076158981 1 I I -0.70710678118654746 0.70710678118654746 0.25 forward I I I I #
loop $-1 $-1 $103 $27 #
coedge $-1 $64 $64 $104 $105 reversed $40 $-1 #
face $-1 $-1 $106 $22 $-1 $107 forward single #
loop $-1 $108 $109 $42 #
cone-surface $-1 41.52805041770489 -14.184990136960794 1.2209971329440394 -0.61566148304635926 0 -0.78801074757464917 0.19700268689366229 0 -0.15391537076158981 1 I I -0.70710678118654746 0.70710678118654746 0.25 forward I I I I #
loop $-1 $-1 $110 $28 #
coedge $-1 $69 $69 $111 $112 reversed $43 $-1 #
face $-1 $-1 $113 $23 $-1 $114 forward single #
loop $-1 $115 $116 $45 #
cone-surface $-1 41.52805041770489 -11.50993885927944 1.2209971329440394 -0.61566148304635926 0 -0.78801074757464917 0.19700268689366229 0 -0.15391537076158981 1 I I -0.70710678118654746 0.70710678118654746 0.25 forward I I I I #
loop $-1 $-1 $117 $29 #
coedge $-1 $74 $74 $118 $119 reversed $46 $-1 #
face $-1 $120 $121 $18 $-1 $122 reversed single #
loop $-1 $-1 $123 $48 #
plane-surface $-1 0 -22.641113021729403 0 0 1 0 0 0 1 forward_v I I I I #
coedge $-1 $124 $125 $126 $127 forward $49 $-1 #
coedge $-1 $128 $51 $129 $130 forward $31 $-1 #
coedge $-1 $51 $128 $131 $132 forward $31 $-1 #
coedge $-1 $133 $134 $51 $82 reversed $135 $-1 #
edge $-1 $136 -22.641113021729403 $137 22.641113021729403 $81 $138 forward 7 unknown #
face $-1 $139 $140 $19 $-1 $141 reversed single #
loop $-1 $-1 $142 $52 #
plane-surface $-1 0 -24.639965066045914 1.1008437682469137 0 0 1 1 0 0 forward_v I I I I #
coedge $-1 $143 $144 $88 $145 forward $53 $-1 #
coedge $-1 $146 $55 $147 $148 reversed $34 $-1 #
coedge $-1 $55 $146 $86 $145 reversed $34 $-1 #
coedge $-1 $149 $142 $55 $90 reversed $84 $-1 #
edge $-1 $150 -45.538499099703969 $151 45.538499099703969 $89 $152 forward 7 unknown #
face $-1 $153 $154 $20 $-1 $155 reversed single #
loop $-1 $-1 $156 $56 #
plane-surface $-1 29.841445444591599 -18.643408933096381 128.06180553410911 0 1 0 0.61566148304635926 0 0.78801074757464917 forward_v I I I I #
coedge $-1 $157 $158 $159 $160 reversed $57 $-1 #
coedge $-1 $96 $59 $161 $162 reversed $37 $-1 #
coedge $-1 $59 $95 $157 $163 reversed $37 $-1 #
coedge $-1 $159 $164 $59 $98 forward $165 $-1 #
edge $-1 $166 -30.61777637740817 $167 -24.665414790938684 $97 $168 forward 7 unknown #
loop $-1 $-1 $104 $60 #
plane-surface $-1 -26.231154338266485 -14.184990136960794 56.292152096138679 0.61566148304635926 0 0.78801074757464917 0.78801074757464917 0 -0.61566148304635926 forward_v I I I I #
loop $-1 $-1 $169 $39 #
coedge $-1 $102 $102 $103 $170 reversed $61 $-1 #
coedge $-1 $103 $103 $102 $170 forward $63 $-1 #
coedge $-1 $104 $104 $64 $105 forward $99 $-1 #
edge $-1 $171 0 $171 6.2831853071796004 $104 $172 forward 7 unknown #
loop $-1 $-1 $111 $65 #
plane-surface $-1 -26.231154338266485 -14.184990136960794 56.292152096138679 0.61566148304635926 0 0.78801074757464917 0.78801074757464917 0 -0.61566148304635926 forward_v I I I I #
loop $-1 $-1 $173 $42 #
coedge $-1 $109 $109 $110 $174 reversed $66 $-1 #
coedge $-1 $110 $110 $109 $174 forward $68 $-1 #
coedge $-1 $111 $111 $69 $112 forward $106 $-1 #
edge $-1 $175 0 $175 6.2831853071796004 $111 $176 forward 7 unknown #
loop $-1 $-1 $118 $70 #
plane-surface $-1 -26.231154338266485 -14.184990136960794 56.292152096138679 0.61566148304635926 0 0.78801074757464917 0.78801074757464917 0 -0.61566148304635926 forward_v I I I I #
loop $-1 $-1 $177 $45 #
coedge $-1 $116 $116 $117 $178 reversed $71 $-1 #
coedge $-1 $117 $117 $116 $178 forward $73 $-1 #
coedge $-1 $118 $118 $74 $119 forward $113 $-1 #
edge $-1 $179 0 $179 6.2831853071796004 $118 $180 forward 7 unknown #
face $-1 $181 $182 $18 $-1 $183 reversed single #
loop $-1 $-1 $184 $75 #
plane-surface $-1 -45.538499099703969 0 0 1 0 0 0 0 -1 forward_v I I I I #
coedge $-1 $185 $131 $186 $187 forward $76 $-1 #
coedge $-1 $188 $78 $185 $189 forward $49 $-1 #
coedge $-1 $78 $188 $190 $191 forward $49 $-1 #
coedge $-1 $134 $133 $78 $127 reversed $135 $-1 #
edge $-1 $192 -22.641113021729403 $193 22.641113021729403 $126 $194 forward 7 unknown #
coedge $-1 $80 $79 $195 $196 forward $31 $-1 #
coedge $-1 $197 $198 $79 $130 reversed $182 $-1 #
edge $-1 $137 -45.538499099703969 $199 45.538499099703969 $129 $200 forward 7 unknown #
coedge $-1 $123 $201 $80 $132 reversed $76 $-1 #
edge $-1 $202 -45.538499099703969 $136 45.538499099703969 $131 $203 forward 7 unknown #
coedge $-1 $126 $81 $201 $204 forward $135 $-1 #
coedge $-1 $81 $126 $197 $205 reversed $135 $-1 #
loop $-1 $-1 $133 $181 #
vertex $-1 $82 $206 #
vertex $-1 $82 $207 #
straight-curve $-1 45.538499099703969 0 4.8700469584780732 0 1 0 I I #
face $-1 $208 $209 $19 $-1 $210 reversed single #
loop $-1 $-1 $211 $83 #
plane-surface $-1 0 -24.639965066045914 -1.8991562317530868 0 0 1 1 0 0 forward_v I I I I #
coedge $-1 $89 $212 $213 $214 forward $84 $-1 #
coedge $-1 $215 $86 $216 $217 reversed $53 $-1 #
coedge $-1 $86 $215 $149 $218 reversed $53 $-1 #
edge $-1 $150 -1.1008437682469137 $219 1.8991562317530868 $86 $220 forward 7 unknown #
coedge $-1 $88 $87 $221 $222 forward $34 $-1 #
coedge $-1 $213 $223 $87 $148 forward $224 $-1 #
edge $-1 $225 -1.8991562317530868 $151 1.1008437682469137 $147 $226 forward 7 unknown #
coedge $-1 $212 $89 $144 $218 forward $84 $-1 #
vertex $-1 $145 $227 #
vertex $-1 $214 $228 #
straight-curve $-1 0 -22.641113021729403 1.1008437682469137 1 0 0 I I #
face $-1 $-1 $165 $20 $-1 $229 forward single #
loop $-1 $-1 $230 $91 #
plane-surface $-1 45.538499099703969 0 0 -1 0 0 0 0 1 forward_v I I I I #
coedge $-1 $231 $232 $233 $234 reversed $92 $-1 #
coedge $-1 $235 $94 $96 $163 forward $57 $-1 #
coedge $-1 $94 $235 $231 $236 forward $57 $-1 #
coedge $-1 $233 $97 $94 $160 forward $165 $-1 #
edge $-1 $167 2.6340762723448075 $237 11.550913864615985 $159 $238 forward 7 unknown #
coedge $-1 $239 $240 $95 $162 forward $154 $-1 #
edge $-1 $241 -63.811350453773976 $166 -59.160855808576486 $161 $242 forward 7 unknown #
edge $-1 $167 83.52334286565808 $241 91.076998199407967 $96 $243 forward 7 unknown #
coedge $-1 $97 $233 $239 $244 forward $165 $-1 #
loop $-1 $-1 $233 $153 #
vertex $-1 $162 $245 #
vertex $-1 $98 $246 #
straight-curve $-1 14.9207227222958 -9.7265713408252044 4.8700469584780706 -1 0 0 I I #
coedge $-1 $169 $169 $-1 $247 reversed $101 $-1 #
edge $-1 $248 0 $248 6.2831853071796004 $102 $249 forward 7 unknown #
vertex $-1 $105 $250 #
ellipse-curve $-1 42.562318306469209 -16.860041414642147 2.5447996358793366 0.61566148304635926 0 0.78801074757464917 0.39400537378732459 0 -0.30783074152317963 1 I I #
coedge $-1 $173 $173 $-1 $251 reversed $108 $-1 #
edge $-1 $252 0 $252 6.2831853071796004 $109 $253 forward 7 unknown #
vertex $-1 $112 $254 #
ellipse-curve $-1 42.562318306469209 -14.184990136960794 2.5447996358793366 0.61566148304635926 0 0.78801074757464917 0.39400537378732459 0 -0.30783074152317963 1 I I #
coedge $-1 $177 $177 $-1 $255 reversed $115 $-1 #
edge $-1 $256 0 $256 6.2831853071796004 $116 $257 forward 7 unknown #
vertex $-1 $119 $258 #
ellipse-curve $-1 42.562318306469209 -11.50993885927944 2.5447996358793366 0.61566148304635926 0 0.78801074757464917 0.39400537378732459 0 -0.30783074152317963 1 I I #
face $-1 $-1 $135 $18 $-1 $259 reversed single #
loop $-1 $-1 $197 $120 #
plane-surface $-1 0 22.641113021729403 0 0 -1 0 0 0 -1 forward_v I I I I #
coedge $-1 $260 $195 $198 $261 forward $121 $-1 #
coedge $-1 $201 $123 $124 $189 reversed $76 $-1 #
coedge $-1 $195 $260 $123 $187 reversed $121 $-1 #
edge $-1 $202 -4.8700469584780732 $262 4.8700469584780732 $186 $263 forward 7 unknown #
coedge $-1 $125 $124 $260 $264 forward $49 $-1 #
edge $-1 $193 -45.538499099703969 $262 45.538499099703969 $185 $265 forward 7 unknown #
coedge $-1 $198 $197 $125 $191 reversed $182 $-1 #
edge $-1 $266 -45.538499099703969 $192 45.538499099703969 $190 $267 forward 7 unknown #
vertex $-1 $127 $268 #
vertex $-1 $204 $269 #
straight-curve $-1 45.538499099703969 0 -4.8700469584780732 0 -1 0 I I #
coedge $-1 $184 $186 $128 $196 reversed $121 $-1 #
edge $-1 $199 -22.641113021729403 $202 22.641113021729403 $195 $270 forward 7 unknown #
coedge $-1 $190 $129 $134 $205 forward $182 $-1 #
coedge $-1 $129 $190 $184 $261 reversed $182 $-1 #
vertex $-1 $130 $271 #
straight-curve $-1 0 22.641113021729403 4.8700469584780732 -1 0 0 I I #
coedge $-1 $131 $185 $133 $204 reversed $76 $-1 #
vertex $-1 $196 $272 #
straight-curve $-1 0 -22.641113021729403 4.8700469584780732 1 0 0 I I #
edge $-1 $136 -4.8700469584780732 $193 4.8700469584780732 $133 $273 forward 7 unknown #
edge $-1 $137 -4.8700469584780732 $192 4.8700469584780732 $134 $274 forward 7 unknown #
point $-1 45.538499099703969 -22.641113021729403 4.8700469584780732 #
point $-1 45.538499099703969 22.641113021729403 4.8700469584780732 #
face $-1 $-1 $224 $19 $-1 $275 reversed single #
loop $-1 $-1 $276 $139 #
plane-surface $-1 0 -26.638817110362425 -0.39915623175308657 0 1 0 0 0 1 forward_v I I I I #
coedge $-1 $277 $221 $223 $278 forward $140 $-1 #
coedge $-1 $142 $149 $279 $280 forward $84 $-1 #
coedge $-1 $281 $147 $142 $214 reversed $224 $-1 #
edge $-1 $282 -1.9988520443165108 $151 1.9988520443165108 $213 $283 forward 7 unknown #
coedge $-1 $144 $143 $276 $284 reversed $53 $-1 #
coedge $-1 $221 $277 $143 $217 forward $140 $-1 #
edge $-1 $285 -1.9988520443165108 $219 1.9988520443165108 $143 $286 forward 7 unknown #
edge $-1 $150 -1.9988520443165108 $287 1.9988520443165108 $144 $288 forward 7 unknown #
vertex $-1 $145 $289 #
straight-curve $-1 -45.538499099703969 -22.641113021729403 0 0 0 -1 I I #
coedge $-1 $211 $216 $146 $222 reversed $140 $-1 #
edge $-1 $225 -45.538499099703969 $219 45.538499099703969 $221 $290 forward 7 unknown #
coedge $-1 $147 $281 $211 $278 reversed $224 $-1 #
loop $-1 $-1 $147 $208 #
vertex $-1 $148 $291 #
straight-curve $-1 45.538499099703969 -22.641113021729403 0 0 0 1 I I #
point $-1 -45.538499099703969 -22.641113021729403 1.1008437682469137 #
point $-1 45.538499099703969 -22.641113021729403 1.1008437682469137 #
plane-surface $-1 0 0 4.8700469584780732 0 0 1 1 0 0 forward_v I I I I #
coedge $-1 $240 $239 $232 $292 forward $154 $-1 #
coedge $-1 $232 $156 $158 $236 reversed $92 $-1 #
coedge $-1 $156 $231 $230 $292 reversed $92 $-1 #
coedge $-1 $164 $159 $156 $234 forward $165 $-1 #
edge $-1 $237 24.665414790938684 $293 30.61777637740817 $233 $294 forward 7 unknown #
coedge $-1 $158 $157 $240 $295 reversed $57 $-1 #
edge $-1 $296 -91.076998199407967 $237 -83.52334286565808 $231 $297 forward 7 unknown #
vertex $-1 $160 $298 #
straight-curve $-1 39.586137513234483 -7.0924950684803969 4.8700469584780706 0 -1 0 I I #
coedge $-1 $230 $161 $164 $244 reversed $154 $-1 #
coedge $-1 $161 $230 $235 $295 forward $154 $-1 #
vertex $-1 $162 $299 #
straight-curve $-1 45.538499099703969 -9.7265713408252044 64.030902767054556 0 0 1 I I #
straight-curve $-1 -26.231154338266485 -9.7265713408252044 56.292152096138679 0.78801074757464917 0 -0.61566148304635926 I I #
edge $-1 $293 -18.643408933096381 $166 -9.7265713408252044 $239 $300 forward 7 unknown #
point $-1 45.538499099703969 -9.7265713408252044 4.8700469584780732 #
point $-1 39.586137513234483 -9.7265713408252044 4.8700469584780635 #
edge $-1 $301 1 $301 0 $169 $-1 forward 7 unknown #
vertex $-1 $170 $302 #
ellipse-curve $-1 41.681965788466478 -16.860041414642147 1.4179998198377017 0.61566148304635926 0 0.78801074757464917 0.39400537378732459 0 -0.30783074152317963 1 I I #
point $-1 42.956323680256538 -16.860041414642147 2.2369688943561616 #
edge $-1 $303 1 $303 0 $173 $-1 forward 7 unknown #
vertex $-1 $174 $304 #
ellipse-curve $-1 41.681965788466478 -14.184990136960794 1.4179998198377017 0.61566148304635926 0 0.78801074757464917 0.39400537378732459 0 -0.30783074152317963 1 I I #
point $-1 42.956323680256538 -14.184990136960794 2.2369688943561616 #
edge $-1 $305 1 $305 0 $177 $-1 forward 7 unknown #
vertex $-1 $178 $306 #
ellipse-curve $-1 41.681965788466478 -11.50993885927944 1.4179998198377017 0.61566148304635926 0 0.78801074757464917 0.39400537378732459 0 -0.30783074152317963 1 I I #
point $-1 42.956323680256538 -11.50993885927944 2.2369688943561616 #
plane-surface $-1 45.538499099703969 0 0 -1 0 0 0 0 1 forward_v I I I I #
coedge $-1 $186 $184 $188 $264 reversed $121 $-1 #
edge $-1 $199 -4.8700469584780732 $266 4.8700469584780732 $198 $307 forward 7 unknown #
vertex $-1 $264 $308 #
straight-curve $-1 -45.538499099703969 -22.641113021729403 0 0 0 -1 I I #
edge $-1 $262 -22.641113021729403 $266 22.641113021729403 $260 $309 forward 7 unknown #
straight-curve $-1 0 -22.641113021729403 -4.8700469584780732 -1 0 0 I I #
vertex $-1 $191 $310 #
straight-curve $-1 0 22.641113021729403 -4.8700469584780732 1 0 0 I I #
point $-1 45.538499099703969 22.641113021729403 -4.8700469584780732 #
point $-1 45.538499099703969 -22.641113021729403 -4.8700469584780732 #
straight-curve $-1 -45.538499099703969 0 4.8700469584780732 0 -1 0 I I #
point $-1 -45.538499099703969 22.641113021729403 4.8700469584780732 #
point $-1 -45.538499099703969 -22.641113021729403 4.8700469584780732 #
straight-curve $-1 45.538499099703969 -22.641113021729403 0 0 0 -1 I I #
straight-curve $-1 45.538499099703969 22.641113021729403 0 0 0 -1 I I #
plane-surface $-1 45.538499099703969 0 0 -1 0 0 0 0 1 forward_v I I I I #
coedge $-1 $311 $279 $215 $284 forward $209 $-1 #
coedge $-1 $216 $211 $311 $312 forward $140 $-1 #
edge $-1 $225 -1.9988520443165108 $313 1.9988520443165108 $223 $314 forward 7 unknown #
coedge $-1 $276 $315 $212 $280 reversed $209 $-1 #
edge $-1 $287 -45.538499099703969 $282 45.538499099703969 $279 $316 forward 7 unknown #
coedge $-1 $223 $213 $315 $317 forward $224 $-1 #
vertex $-1 $214 $318 #
straight-curve $-1 45.538499099703969 -24.639965066045914 1.1008437682469137 0 1 0 I I #
edge $-1 $287 -1.5000000000000002 $285 1.5000000000000002 $215 $319 forward 7 unknown #
vertex $-1 $217 $320 #
straight-curve $-1 -45.538499099703969 -24.639965066045914 -1.8991562317530868 0 1 0 I I #
vertex $-1 $218 $321 #
straight-curve $-1 -45.538499099703969 -24.639965066045914 1.1008437682469137 0 -1 0 I I #
point $-1 -45.538499099703969 -22.641113021729403 -1.8991562317530868 #
straight-curve $-1 0 -22.641113021729403 -1.8991562317530868 -1 0 0 I I #
point $-1 45.538499099703969 -22.641113021729403 -1.8991562317530868 #
edge $-1 $293 59.160855808576486 $296 63.811350453773976 $230 $322 forward 7 unknown #
vertex $-1 $244 $323 #
straight-curve $-1 14.9207227222958 -18.643408933096381 4.8700469584780706 1 0 0 I I #
edge $-1 $296 -11.550913864615985 $241 -2.6340762723448075 $240 $324 forward 7 unknown #
vertex $-1 $295 $325 #
straight-curve $-1 -26.231154338266485 -18.643408933096381 56.292152096138679 -0.78801074757464917 0 0.61566148304635926 I I #
point $-1 39.586137513234483 -18.643408933096381 4.8700469584780635 #
point $-1 45.538499099703962 -9.7265713408252044 0.21955231328058034 #
straight-curve $-1 45.538499099703969 0 4.8700469584780732 0 1 0 I I #
vertex $-1 $247 $326 #
point $-1 42.075971162253801 -16.860041414642147 1.1101690783145222 #
vertex $-1 $251 $327 #
point $-1 42.075971162253801 -14.184990136960794 1.1101690783145222 #
vertex $-1 $255 $328 #
point $-1 42.075971162253801 -11.50993885927944 1.1101690783145222 #
straight-curve $-1 -45.538499099703969 22.641113021729403 0 0 0 -1 I I #
point $-1 -45.538499099703969 -22.641113021729403 -4.8700469584780732 #
straight-curve $-1 -45.538499099703969 0 -4.8700469584780732 0 1 0 I I #
point $-1 -45.538499099703969 22.641113021729403 -4.8700469584780732 #
coedge $-1 $315 $276 $277 $312 reversed $209 $-1 #
edge $-1 $313 -45.538499099703969 $285 45.538499099703969 $311 $329 forward 7 unknown #
vertex $-1 $317 $330 #
straight-curve $-1 45.538499099703969 -24.639965066045914 -1.8991562317530868 0 -1 0 I I #
coedge $-1 $279 $311 $281 $317 reversed $209 $-1 #
straight-curve $-1 0 -26.638817110362425 1.1008437682469137 1 0 0 I I #
edge $-1 $282 -1.5000000000000002 $313 1.5000000000000002 $281 $331 forward 7 unknown #
point $-1 45.538499099703969 -26.638817110362425 1.1008437682469137 #
straight-curve $-1 -45.538499099703969 -26.638817110362425 -0.39915623175308657 0 0 -1 I I #
point $-1 -45.538499099703969 -26.638817110362425 -1.8991562317530868 #
point $-1 -45.538499099703969 -26.638817110362425 1.1008437682469137 #
straight-curve $-1 45.538499099703969 -18.643408933096381 64.030902767054556 0 0 -1 I I #
point $-1 45.538499099703969 -18.643408933096381 4.8700469584780732 #
straight-curve $-1 45.538499099703969 -7.0924950684803969 0.21955231328057678 0 1 0 I I #
point $-1 45.538499099703962 -18.643408933096381 0.21955231328058034 #
point $-1 41.374135046943302 -16.860041414642147 1.0239944460503771 #
point $-1 41.374135046943302 -14.184990136960794 1.0239944460503771 #
point $-1 41.374135046943302 -11.50993885927944 1.0239944460503771 #
straight-curve $-1 0 -26.638817110362425 -1.8991562317530868 -1 0 0 I I #
point $-1 45.538499099703969 -26.638817110362425 -1.8991562317530868 #
straight-curve $-1 45.538499099703969 -26.638817110362425 -0.39915623175308657 0 0 -1 I I #
End-of-ACIS-data 