500 0 11 0           
7 Unknown 11 ACIS 5.0 NT 24 Thu Mar 25 21:44:43 1999 
-1 9.9999999999999995e-007 1e-010 
body $-1 $11 $-1 $12 #
body $-1 $13 $-1 $14 #
body $-1 $15 $-1 $16 #
body $-1 $17 $-1 $18 #
body $-1 $19 $-1 $20 #
body $-1 $21 $-1 $22 #
body $-1 $23 $-1 $24 #
body $-1 $25 $-1 $26 #
body $-1 $27 $-1 $28 #
body $-1 $29 $-1 $30 #
body $-1 $31 $-1 $32 #
lump $-1 $-1 $33 $0 #
transform $-1 1 0 0 0 1 0 0 0 1 49.960020752586445 29.184842836740714 6.8969643393139961 1 rotate no_reflect no_shear #
lump $-1 $-1 $34 $1 #
transform $-1 1 0 0 0 1 0 0 0 1 49.960020752586445 29.184842836740714 6.8969643393139961 1 rotate no_reflect no_shear #
lump $-1 $-1 $35 $2 #
transform $-1 1 0 0 0 1 0 0 0 1 49.960020752586445 29.184842836740714 6.8969643393139961 1 rotate no_reflect no_shear #
lump $-1 $-1 $36 $3 #
transform $-1 1 0 0 0 1 0 0 0 1 49.960020752586445 29.184842836740714 6.8969643393139961 1 rotate no_reflect no_shear #
lump $-1 $-1 $37 $4 #
transform $-1 1 0 0 0 1 0 0 0 1 49.960020752586445 29.184842836740714 6.8969643393139961 1 rotate no_reflect no_shear #
lump $-1 $-1 $38 $5 #
transform $-1 1 0 0 0 1 0 0 0 1 49.960020752586445 29.184842836740714 6.8969643393139961 1 rotate no_reflect no_shear #
lump $-1 $-1 $39 $6 #
transform $-1 1 0 0 0 1 0 0 0 1 49.960020752586445 29.184842836740714 6.8969643393139961 1 rotate no_reflect no_shear #
lump $-1 $-1 $40 $7 #
transform $-1 1 0 0 0 1 0 0 0 1 49.960020752586445 29.184842836740714 6.8969643393139961 1 rotate no_reflect no_shear #
lump $-1 $-1 $41 $8 #
transform $-1 1 0 0 0 1 0 0 0 1 49.960020752586445 29.184842836740714 6.8969643393139961 1 rotate no_reflect no_shear #
lump $-1 $-1 $42 $9 #
transform $-1 1 0 0 0 1 0 0 0 1 49.960020752586445 29.184842836740714 6.8969643393139961 1 rotate no_reflect no_shear #
lump $-1 $-1 $43 $10 #
transform $-1 1 0 0 0 1 0 0 0 1 49.960020752586445 29.184842836740714 6.8969643393139961 1 rotate no_reflect no_shear #
shell $-1 $-1 $-1 $44 $-1 $11 #
shell $-1 $-1 $-1 $45 $-1 $13 #
shell $-1 $-1 $-1 $46 $-1 $15 #
shell $-1 $-1 $-1 $47 $-1 $17 #
shell $-1 $-1 $-1 $48 $-1 $19 #
shell $-1 $-1 $-1 $49 $-1 $21 #
shell $-1 $-1 $-1 $50 $-1 $23 #
shell $-1 $-1 $-1 $51 $-1 $25 #
shell $-1 $-1 $-1 $52 $-1 $27 #
shell $-1 $-1 $-1 $53 $-1 $29 #
shell $-1 $-1 $-1 $54 $-1 $31 #
face $-1 $55 $56 $33 $-1 $57 forward single #
face $-1 $58 $59 $34 $-1 $60 reversed single #
face $-1 $61 $62 $35 $-1 $63 forward single #
face $-1 $64 $65 $36 $-1 $66 reversed single #
face $-1 $67 $68 $37 $-1 $69 forward single #
face $-1 $70 $71 $38 $-1 $72 forward single #
face $-1 $73 $74 $39 $-1 $75 forward single #
face $-1 $76 $77 $40 $-1 $78 reversed single #
face $-1 $79 $80 $41 $-1 $81 forward single #
face $-1 $82 $83 $42 $-1 $84 forward single #
face $-1 $85 $86 $43 $-1 $87 forward single #
face $-1 $88 $89 $33 $-1 $90 reversed single #
loop $-1 $-1 $91 $44 #
plane-surface $-1 0 0 6.8969643393139961 0 0 1 1 0 0 forward_v I I I I #
face $-1 $92 $93 $34 $-1 $94 reversed single #
loop $-1 $-1 $95 $45 #
plane-surface $-1 -45.635228189416992 -18.805697667815366 0 0 1 0 0 0 1 forward_v I I I I #
face $-1 $96 $97 $35 $-1 $98 reversed single #
loop $-1 $-1 $99 $46 #
plane-surface $-1 49.960020752586445 0 0 -1 0 0 0 0 1 forward_v I I I I #
face $-1 $100 $101 $36 $-1 $102 reversed single #
loop $-1 $-1 $103 $47 #
plane-surface $-1 45.293137326888527 -93.412208265049557 77.966659590421258 -1 0 0 0 -0.64278761758704617 0.76604443648966558 forward_v I I I I #
face $-1 $104 $105 $37 $-1 $106 forward single #
loop $-1 $107 $108 $48 #
cone-surface $-1 25.294840177975132 -24.555945280902371 2.5306503483052483 0 0.64278761758704617 -0.76604443648966558 1.5 0 0 1 I I 0 1 1.5 forward I I I I #
face $-1 $109 $110 $38 $-1 $111 forward single #
loop $-1 $112 $113 $49 #
cone-surface $-1 32.794201608817659 -24.555945280902371 2.5306503483052483 0 0.64278761758704617 -0.76604443648966558 1.5 0 0 1 I I 0 1 1.5 forward I I I I #
face $-1 $114 $115 $39 $-1 $116 forward single #
loop $-1 $117 $118 $50 #
cone-surface $-1 40.293563039660185 -24.555945280902371 2.5306503483052483 0 0.64278761758704617 -0.76604443648966558 1.5 0 0 1 I I 0 1 1.5 forward I I I I #
face $-1 $119 $120 $40 $-1 $121 reversed single #
loop $-1 $-1 $122 $51 #
plane-surface $-1 20.295265890746791 48.698435295228578 115.48597078378313 1 0 0 0 -0.64278761758704617 -0.76604443648966558 forward_v I I I I #
face $-1 $123 $124 $41 $-1 $125 forward single #
loop $-1 $126 $127 $52 #
cone-surface $-1 25.294840177975132 24.555945280902364 2.5306503483052456 0 -0.64278761758704617 -0.76604443648966558 1.5 0 0 1 I I 0 1 1.5 forward I I I I #
face $-1 $128 $129 $42 $-1 $130 forward single #
loop $-1 $131 $132 $53 #
cone-surface $-1 32.794201608817659 24.555945280902364 2.5306503483052456 0 -0.64278761758704617 -0.76604443648966558 1.5 0 0 1 I I 0 1 1.5 forward I I I I #
face $-1 $133 $134 $43 $-1 $135 forward single #
loop $-1 $136 $137 $54 #
cone-surface $-1 40.293563039660185 24.555945280902364 2.5306503483052456 0 -0.64278761758704617 -0.76604443648966558 1.5 0 0 1 I I 0 1 1.5 forward I I I I #
face $-1 $138 $139 $33 $-1 $140 reversed single #
loop $-1 $-1 $141 $55 #
plane-surface $-1 0 0 -6.8969643393139961 0 0 1 1 0 0 forward_v I I I I #
coedge $-1 $142 $143 $144 $145 forward $56 $-1 #
face $-1 $146 $147 $34 $-1 $148 reversed single #
loop $-1 $-1 $149 $58 #
plane-surface $-1 -45.635228189416992 -15.39091415811272 0 0 -1 0 0 0 -1 forward_v I I I I #
coedge $-1 $150 $151 $152 $153 reversed $59 $-1 #
face $-1 $154 $155 $35 $-1 $156 reversed single #
loop $-1 $-1 $157 $61 #
plane-surface $-1 0 -29.184842836740714 0 0 1 0 0 0 1 forward_v I I I I #
coedge $-1 $158 $159 $160 $161 forward $62 $-1 #
face $-1 $162 $163 $36 $-1 $164 reversed single #
loop $-1 $-1 $165 $64 #
plane-surface $-1 32.794201608817659 -29.1848428367407 1.4234677015670911 0 -0.64278761758704617 0.76604443648966558 1 0 0 forward_v I I I I #
coedge $-1 $166 $167 $168 $169 reversed $65 $-1 #
face $-1 $-1 $170 $37 $-1 $171 forward single #
loop $-1 $172 $173 $67 #
cone-surface $-1 25.294840177975132 -22.706486584604733 0.32655134880269809 0 0.64278761758704617 -0.76604443648966558 0.75 0 0 1 I I -0.70710678118654757 0.70710678118654757 0.75 forward I I I I #
loop $-1 $-1 $174 $48 #
coedge $-1 $108 $108 $175 $176 reversed $68 $-1 #
face $-1 $-1 $177 $38 $-1 $178 forward single #
loop $-1 $179 $180 $70 #
cone-surface $-1 32.794201608817659 -22.706486584604733 0.32655134880269809 0 0.64278761758704617 -0.76604443648966558 0.75 0 0 1 I I -0.70710678118654757 0.70710678118654757 0.75 forward I I I I #
loop $-1 $-1 $181 $49 #
coedge $-1 $113 $113 $182 $183 reversed $71 $-1 #
face $-1 $-1 $184 $39 $-1 $185 forward single #
loop $-1 $186 $187 $73 #
cone-surface $-1 40.293563039660185 -22.706486584604733 0.32655134880269809 0 0.64278761758704617 -0.76604443648966558 0.75 0 0 1 I I -0.70710678118654757 0.70710678118654757 0.75 forward I I I I #
loop $-1 $-1 $188 $50 #
coedge $-1 $118 $118 $189 $190 reversed $74 $-1 #
face $-1 $191 $192 $40 $-1 $193 reversed single #
loop $-1 $-1 $194 $76 #
plane-surface $-1 32.794201608817659 -15.52893013308028 38.942778894928963 0 0.64278761758704617 0.76604443648966558 1 0 0 forward_v I I I I #
coedge $-1 $195 $196 $197 $198 reversed $77 $-1 #
face $-1 $-1 $199 $41 $-1 $200 forward single #
loop $-1 $201 $202 $79 #
cone-surface $-1 25.294840177975132 22.706486584604725 0.32655134880269543 0 -0.64278761758704617 -0.76604443648966558 0.75 0 0 1 I I -0.70710678118654757 0.70710678118654757 0.75 forward I I I I #
loop $-1 $-1 $203 $52 #
coedge $-1 $127 $127 $204 $205 reversed $80 $-1 #
face $-1 $-1 $206 $42 $-1 $207 forward single #
loop $-1 $208 $209 $82 #
cone-surface $-1 32.794201608817659 22.706486584604725 0.32655134880269543 0 -0.64278761758704617 -0.76604443648966558 0.75 0 0 1 I I -0.70710678118654757 0.70710678118654757 0.75 forward I I I I #
loop $-1 $-1 $210 $53 #
coedge $-1 $132 $132 $211 $212 reversed $83 $-1 #
face $-1 $-1 $213 $43 $-1 $214 forward single #
loop $-1 $215 $216 $85 #
cone-surface $-1 40.293563039660185 22.706486584604725 0.32655134880269543 0 -0.64278761758704617 -0.76604443648966558 0.75 0 0 1 I I -0.70710678118654757 0.70710678118654757 0.75 forward I I I I #
loop $-1 $-1 $217 $54 #
coedge $-1 $137 $137 $218 $219 reversed $86 $-1 #
face $-1 $220 $221 $33 $-1 $222 reversed single #
loop $-1 $-1 $223 $88 #
plane-surface $-1 0 -29.184842836740714 0 0 1 0 0 0 1 forward_v I I I I #
coedge $-1 $224 $225 $226 $227 forward $89 $-1 #
coedge $-1 $228 $91 $229 $230 forward $56 $-1 #
coedge $-1 $91 $228 $231 $232 forward $56 $-1 #
coedge $-1 $233 $234 $91 $145 reversed $235 $-1 #
edge $-1 $236 -29.184842836740714 $237 29.184842836740714 $144 $238 forward 7 unknown #
face $-1 $239 $240 $34 $-1 $241 reversed single #
loop $-1 $-1 $242 $92 #
plane-surface $-1 -41.310435626247539 -17.098305912964044 0 -1 0 0 0 0 1 forward_v I I I I #
coedge $-1 $243 $244 $245 $246 forward $93 $-1 #
coedge $-1 $247 $95 $248 $249 reversed $59 $-1 #
coedge $-1 $95 $247 $250 $251 reversed $59 $-1 #
coedge $-1 $252 $253 $95 $153 forward $254 $-1 #
edge $-1 $255 -6.8969643393139961 $256 6.8969643393139961 $152 $257 forward 7 unknown #
face $-1 $258 $259 $35 $-1 $260 forward single #
loop $-1 $-1 $261 $96 #
plane-surface $-1 0 0 -6.8969643393139961 0 0 1 1 0 0 forward_v I I I I #
coedge $-1 $262 $263 $159 $264 forward $97 $-1 #
coedge $-1 $265 $99 $266 $267 reversed $62 $-1 #
coedge $-1 $99 $265 $157 $264 reversed $62 $-1 #
coedge $-1 $268 $269 $99 $161 reversed $259 $-1 #
edge $-1 $270 -29.184842836740714 $271 29.184842836740714 $160 $272 forward 7 unknown #
face $-1 $273 $274 $36 $-1 $275 forward single #
loop $-1 $-1 $276 $100 #
plane-surface $-1 20.295265890746791 -93.412208265049557 77.966659590421258 1 0 0 0 0.64278761758704617 -0.76604443648966558 forward_v I I I I #
coedge $-1 $277 $278 $279 $280 reversed $101 $-1 #
coedge $-1 $167 $103 $281 $282 reversed $65 $-1 #
coedge $-1 $103 $166 $277 $283 reversed $65 $-1 #
coedge $-1 $279 $284 $103 $169 forward $274 $-1 #
edge $-1 $285 17.521261295784065 $286 24.044320441246072 $168 $287 forward 7 unknown #
loop $-1 $-1 $175 $104 #
plane-surface $-1 32.794201608817659 -29.1848428367407 1.4234677015670911 0 -0.64278761758704617 0.76604443648966558 1 0 0 forward_v I I I I #
loop $-1 $-1 $288 $67 #
coedge $-1 $173 $173 $174 $289 reversed $105 $-1 #
coedge $-1 $174 $174 $173 $289 forward $107 $-1 #
coedge $-1 $175 $175 $108 $176 forward $170 $-1 #
edge $-1 $290 6.4663453466851186e-016 $290 6.2831853071796013 $175 $291 forward 7 unknown #
loop $-1 $-1 $182 $109 #
plane-surface $-1 32.794201608817659 -29.1848428367407 1.4234677015670911 0 -0.64278761758704617 0.76604443648966558 1 0 0 forward_v I I I I #
loop $-1 $-1 $292 $70 #
coedge $-1 $180 $180 $181 $293 reversed $110 $-1 #
coedge $-1 $181 $181 $180 $293 forward $112 $-1 #
coedge $-1 $182 $182 $113 $183 forward $177 $-1 #
edge $-1 $294 6.4663453466851186e-016 $294 6.2831853071796013 $182 $295 forward 7 unknown #
loop $-1 $-1 $189 $114 #
plane-surface $-1 32.794201608817659 -29.1848428367407 1.4234677015670911 0 -0.64278761758704617 0.76604443648966558 1 0 0 forward_v I I I I #
loop $-1 $-1 $296 $73 #
coedge $-1 $187 $187 $188 $297 reversed $115 $-1 #
coedge $-1 $188 $188 $187 $297 forward $117 $-1 #
coedge $-1 $189 $189 $118 $190 forward $184 $-1 #
edge $-1 $298 6.4663453466851186e-016 $298 6.2831853071796013 $189 $299 forward 7 unknown #
face $-1 $300 $301 $40 $-1 $302 reversed single #
loop $-1 $-1 $303 $119 #
plane-surface $-1 45.293137326888527 48.698435295228578 115.48597078378313 -1 0 0 0 0.64278761758704617 0.76604443648966558 forward_v I I I I #
coedge $-1 $304 $305 $306 $307 reversed $120 $-1 #
coedge $-1 $196 $122 $308 $309 reversed $77 $-1 #
coedge $-1 $122 $195 $304 $310 reversed $77 $-1 #
coedge $-1 $306 $311 $122 $198 forward $312 $-1 #
edge $-1 $313 -4.835625189126425 $314 1.6874339563355676 $197 $315 forward 7 unknown #
loop $-1 $-1 $204 $123 #
plane-surface $-1 32.794201608817659 -15.52893013308028 38.942778894928963 0 0.64278761758704617 0.76604443648966558 1 0 0 forward_v I I I I #
loop $-1 $-1 $316 $79 #
coedge $-1 $202 $202 $203 $317 reversed $124 $-1 #
coedge $-1 $203 $203 $202 $317 forward $126 $-1 #
coedge $-1 $204 $204 $127 $205 forward $199 $-1 #
edge $-1 $318 0 $318 6.2831853071796004 $204 $319 forward 7 unknown #
loop $-1 $-1 $211 $128 #
plane-surface $-1 32.794201608817659 -15.52893013308028 38.942778894928963 0 0.64278761758704617 0.76604443648966558 1 0 0 forward_v I I I I #
loop $-1 $-1 $320 $82 #
coedge $-1 $209 $209 $210 $321 reversed $129 $-1 #
coedge $-1 $210 $210 $209 $321 forward $131 $-1 #
coedge $-1 $211 $211 $132 $212 forward $206 $-1 #
edge $-1 $322 0 $322 6.2831853071796004 $211 $323 forward 7 unknown #
loop $-1 $-1 $218 $133 #
plane-surface $-1 32.794201608817659 -15.52893013308028 38.942778894928963 0 0.64278761758704617 0.76604443648966558 1 0 0 forward_v I I I I #
loop $-1 $-1 $324 $85 #
coedge $-1 $216 $216 $217 $325 reversed $134 $-1 #
coedge $-1 $217 $217 $216 $325 forward $136 $-1 #
coedge $-1 $218 $218 $137 $219 forward $213 $-1 #
edge $-1 $326 0 $326 6.2831853071796004 $218 $327 forward 7 unknown #
face $-1 $328 $329 $33 $-1 $330 reversed single #
loop $-1 $-1 $331 $138 #
plane-surface $-1 -49.960020752586445 0 0 1 0 0 0 0 -1 forward_v I I I I #
coedge $-1 $332 $231 $333 $334 forward $139 $-1 #
coedge $-1 $335 $141 $332 $336 forward $89 $-1 #
coedge $-1 $141 $335 $337 $338 forward $89 $-1 #
coedge $-1 $234 $233 $141 $227 reversed $235 $-1 #
edge $-1 $339 -29.184842836740714 $340 29.184842836740714 $226 $341 forward 7 unknown #
coedge $-1 $143 $142 $342 $343 forward $56 $-1 #
coedge $-1 $344 $345 $142 $230 reversed $329 $-1 #
edge $-1 $237 -49.960020752586445 $346 49.960020752586445 $229 $347 forward 7 unknown #
coedge $-1 $223 $348 $143 $232 reversed $139 $-1 #
edge $-1 $349 -49.960020752586445 $236 49.960020752586445 $231 $350 forward 7 unknown #
coedge $-1 $226 $144 $348 $351 forward $235 $-1 #
coedge $-1 $144 $226 $344 $352 reversed $235 $-1 #
loop $-1 $-1 $234 $328 #
vertex $-1 $145 $353 #
vertex $-1 $145 $354 #
straight-curve $-1 49.960020752586445 0 6.8969643393139961 0 1 0 I I #
face $-1 $355 $356 $34 $-1 $357 forward single #
loop $-1 $-1 $358 $146 #
plane-surface $-1 0 0 -6.8969643393139961 0 0 1 1 0 0 forward_v I I I I #
coedge $-1 $359 $360 $247 $361 forward $147 $-1 #
coedge $-1 $362 $149 $358 $363 reversed $93 $-1 #
coedge $-1 $149 $362 $364 $365 reversed $93 $-1 #
coedge $-1 $360 $359 $149 $246 reversed $147 $-1 #
edge $-1 $366 -6.8969643393139961 $367 6.8969643393139961 $245 $368 forward 7 unknown #
coedge $-1 $151 $150 $242 $361 reversed $59 $-1 #
coedge $-1 $369 $370 $150 $249 forward $240 $-1 #
edge $-1 $371 18.492821531539043 $255 27.142406657877949 $248 $372 forward 7 unknown #
coedge $-1 $373 $374 $151 $251 forward $356 $-1 #
edge $-1 $256 -27.142406657877949 $375 -18.492821531539043 $250 $376 forward 7 unknown #
coedge $-1 $377 $152 $374 $378 reversed $254 $-1 #
coedge $-1 $152 $377 $369 $379 reversed $254 $-1 #
loop $-1 $-1 $377 $355 #
vertex $-1 $379 $380 #
vertex $-1 $153 $381 #
straight-curve $-1 -49.960020752586445 -18.805697667815366 0 0 0 1 I I #
face $-1 $382 $383 $35 $-1 $384 reversed single #
loop $-1 $-1 $385 $154 #
plane-surface $-1 52.293462465435397 0 -3.3635514432886033 0 0 1 1 0 0 forward_v I I I I #
coedge $-1 $386 $387 $265 $388 forward $155 $-1 #
coedge $-1 $389 $157 $387 $390 reversed $97 $-1 #
coedge $-1 $157 $389 $268 $391 reversed $97 $-1 #
edge $-1 $270 3.3635514432886033 $392 6.8969643393139961 $157 $393 forward 7 unknown #
coedge $-1 $159 $158 $261 $388 reversed $62 $-1 #
coedge $-1 $394 $395 $158 $267 forward $396 $-1 #
edge $-1 $397 -6.8969643393139961 $271 -3.3635514432886033 $266 $398 forward 7 unknown #
coedge $-1 $385 $160 $263 $391 forward $259 $-1 #
coedge $-1 $160 $385 $394 $399 forward $259 $-1 #
vertex $-1 $264 $400 #
vertex $-1 $399 $401 #
straight-curve $-1 49.960020752586445 0 -3.3635514432886033 0 1 0 I I #
face $-1 $-1 $402 $36 $-1 $403 reversed single #
loop $-1 $-1 $168 $162 #
plane-surface $-1 0 0 6.8969643393139961 0 0 1 1 0 0 forward_v I I I I #
coedge $-1 $404 $405 $406 $407 reversed $163 $-1 #
coedge $-1 $408 $165 $167 $283 forward $101 $-1 #
coedge $-1 $165 $408 $404 $409 forward $101 $-1 #
coedge $-1 $406 $168 $165 $280 forward $274 $-1 #
edge $-1 $286 -28.896036522479697 $410 -3.8981650863379613 $279 $411 forward 7 unknown #
coedge $-1 $412 $413 $166 $282 forward $402 $-1 #
edge $-1 $414 -37.559862093643552 $285 -32.086365455896633 $281 $415 forward 7 unknown #
edge $-1 $286 -8.5152490309222326 $414 1.8593432412625586e-014 $167 $416 forward 7 unknown #
coedge $-1 $168 $406 $412 $417 forward $274 $-1 #
vertex $-1 $282 $418 #
vertex $-1 $169 $419 #
straight-curve $-1 45.293137326888527 -46.706104132524779 6.8969643393139961 0 1 0 I I #
coedge $-1 $288 $288 $-1 $420 reversed $172 $-1 #
edge $-1 $421 0 $421 6.2831853071796004 $173 $422 forward 7 unknown #
vertex $-1 $176 $423 #
ellipse-curve $-1 25.294840177975132 -25.923313264009714 4.1602160204405347 0 -0.64278761758704617 0.76604443648966558 1.5 0 0 1 I I #
coedge $-1 $292 $292 $-1 $424 reversed $179 $-1 #
edge $-1 $425 0 $425 6.2831853071796004 $180 $426 forward 7 unknown #
vertex $-1 $183 $427 #
ellipse-curve $-1 32.794201608817659 -25.923313264009714 4.1602160204405347 0 -0.64278761758704617 0.76604443648966558 1.5 0 0 1 I I #
coedge $-1 $296 $296 $-1 $428 reversed $186 $-1 #
edge $-1 $429 0 $429 6.2831853071796004 $187 $430 forward 7 unknown #
vertex $-1 $190 $431 #
ellipse-curve $-1 40.293563039660185 -25.923313264009714 4.1602160204405347 0 -0.64278761758704617 0.76604443648966558 1.5 0 0 1 I I #
face $-1 $-1 $312 $40 $-1 $432 forward single #
loop $-1 $-1 $433 $191 #
plane-surface $-1 0 29.184842836740714 0 0 -1 0 0 0 -1 forward_v I I I I #
coedge $-1 $434 $435 $436 $437 reversed $192 $-1 #
coedge $-1 $438 $194 $196 $310 forward $120 $-1 #
coedge $-1 $194 $438 $434 $439 forward $120 $-1 #
coedge $-1 $436 $197 $194 $307 forward $312 $-1 #
edge $-1 $314 3.8981650863379613 $440 28.896036522479697 $306 $441 forward 7 unknown #
coedge $-1 $442 $443 $195 $309 forward $301 $-1 #
edge $-1 $444 -56.319517690324474 $313 -50.846021052577569 $308 $445 forward 7 unknown #
edge $-1 $314 49.854436642559207 $444 58.369685673481435 $196 $446 forward 7 unknown #
coedge $-1 $197 $436 $442 $447 forward $312 $-1 #
loop $-1 $-1 $436 $300 #
vertex $-1 $309 $448 #
vertex $-1 $198 $449 #
straight-curve $-1 20.295265890746791 24.349217647614289 6.8969643393139961 0 -1 0 I I #
coedge $-1 $316 $316 $-1 $450 reversed $201 $-1 #
edge $-1 $451 0 $451 6.2831853071796004 $202 $452 forward 7 unknown #
vertex $-1 $205 $453 #
ellipse-curve $-1 25.294840177975132 25.923313264009717 4.1602160204405463 0 0.64278761758704617 0.76604443648966558 1.5 0 0 1 I I #
coedge $-1 $320 $320 $-1 $454 reversed $208 $-1 #
edge $-1 $455 0 $455 6.2831853071796004 $209 $456 forward 7 unknown #
vertex $-1 $212 $457 #
ellipse-curve $-1 32.794201608817659 25.923313264009717 4.1602160204405463 0 0.64278761758704617 0.76604443648966558 1.5 0 0 1 I I #
coedge $-1 $324 $324 $-1 $458 reversed $215 $-1 #
edge $-1 $459 0 $459 6.2831853071796004 $216 $460 forward 7 unknown #
vertex $-1 $219 $461 #
ellipse-curve $-1 40.293563039660185 25.923313264009717 4.1602160204405463 0 0.64278761758704617 0.76604443648966558 1.5 0 0 1 I I #
face $-1 $-1 $235 $33 $-1 $462 reversed single #
loop $-1 $-1 $344 $220 #
plane-surface $-1 0 29.184842836740714 0 0 -1 0 0 0 -1 forward_v I I I I #
coedge $-1 $463 $342 $345 $464 forward $221 $-1 #
coedge $-1 $348 $223 $224 $336 reversed $139 $-1 #
coedge $-1 $342 $463 $223 $334 reversed $221 $-1 #
edge $-1 $349 -6.8969643393139961 $465 6.8969643393139961 $333 $466 forward 7 unknown #
coedge $-1 $225 $224 $463 $467 forward $89 $-1 #
edge $-1 $340 -49.960020752586445 $465 49.960020752586445 $332 $468 forward 7 unknown #
coedge $-1 $345 $344 $225 $338 reversed $329 $-1 #
edge $-1 $469 -49.960020752586445 $339 49.960020752586445 $337 $470 forward 7 unknown #
vertex $-1 $227 $471 #
vertex $-1 $351 $472 #
straight-curve $-1 49.960020752586445 0 -6.8969643393139961 0 -1 0 I I #
coedge $-1 $331 $333 $228 $343 reversed $221 $-1 #
edge $-1 $346 -29.184842836740714 $349 29.184842836740714 $342 $473 forward 7 unknown #
coedge $-1 $337 $229 $234 $352 forward $329 $-1 #
coedge $-1 $229 $337 $331 $464 reversed $329 $-1 #
vertex $-1 $230 $474 #
straight-curve $-1 0 29.184842836740714 6.8969643393139961 -1 0 0 I I #
coedge $-1 $231 $332 $233 $351 reversed $139 $-1 #
vertex $-1 $343 $475 #
straight-curve $-1 0 -29.184842836740714 6.8969643393139961 1 0 0 I I #
edge $-1 $236 -6.8969643393139961 $340 6.8969643393139961 $233 $476 forward 7 unknown #
edge $-1 $237 -6.8969643393139961 $339 6.8969643393139961 $234 $477 forward 7 unknown #
point $-1 49.960020752586445 -29.184842836740714 6.8969643393139961 #
point $-1 49.960020752586445 29.184842836740714 6.8969643393139961 #
face $-1 $-1 $254 $34 $-1 $478 reversed single #
loop $-1 $-1 $364 $239 #
plane-surface $-1 0 0 6.8969643393139961 0 0 1 1 0 0 forward_v I I I I #
coedge $-1 $370 $369 $243 $363 forward $240 $-1 #
coedge $-1 $245 $242 $370 $479 reversed $147 $-1 #
coedge $-1 $242 $245 $373 $480 reversed $147 $-1 #
edge $-1 $375 -6.8969643393139961 $371 6.8969643393139961 $242 $481 forward 7 unknown #
coedge $-1 $244 $243 $377 $482 reversed $93 $-1 #
edge $-1 $483 -27.142406657877949 $367 -18.492821531539043 $358 $484 forward 7 unknown #
coedge $-1 $374 $373 $244 $365 forward $356 $-1 #
edge $-1 $366 18.492821531539043 $485 27.142406657877949 $364 $486 forward 7 unknown #
vertex $-1 $365 $487 #
vertex $-1 $363 $488 #
straight-curve $-1 -41.310435626247539 -15.39091415811272 0 0 0 -1 I I #
coedge $-1 $358 $248 $253 $379 forward $240 $-1 #
coedge $-1 $248 $358 $359 $479 forward $240 $-1 #
vertex $-1 $249 $489 #
straight-curve $-1 -22.817614094708496 -18.805697667815366 -6.8969643393139961 -1 0 0 I I #
coedge $-1 $364 $250 $360 $480 forward $356 $-1 #
coedge $-1 $250 $364 $252 $378 forward $356 $-1 #
vertex $-1 $251 $490 #
straight-curve $-1 -22.817614094708496 -18.805697667815366 6.8969643393139961 1 0 0 I I #
coedge $-1 $253 $252 $362 $482 forward $254 $-1 #
edge $-1 $485 15.39091415811272 $256 18.805697667815366 $252 $491 forward 7 unknown #
edge $-1 $255 -18.805697667815366 $483 -15.39091415811272 $253 $492 forward 7 unknown #
point $-1 -49.960020752586445 -18.805697667815366 -6.8969643393139961 #
point $-1 -49.960020752586445 -18.805697667815366 6.8969643393139961 #
face $-1 $-1 $396 $35 $-1 $493 reversed single #
loop $-1 $-1 $494 $258 #
plane-surface $-1 54.626904178284356 0 -5.1302578913012997 -1 0 0 0 0 1 forward_v I I I I #
coedge $-1 $269 $268 $495 $496 forward $259 $-1 #
coedge $-1 $497 $261 $395 $498 forward $155 $-1 #
coedge $-1 $261 $497 $262 $390 forward $155 $-1 #
edge $-1 $392 -29.184842836740714 $397 29.184842836740714 $261 $499 forward 7 unknown #
coedge $-1 $263 $262 $494 $500 reversed $97 $-1 #
edge $-1 $501 -2.3334417128489591 $392 2.333441712848952 $262 $502 forward 7 unknown #
edge $-1 $270 -2.3334417128489591 $503 2.3334417128489591 $263 $504 forward 7 unknown #
vertex $-1 $388 $505 #
straight-curve $-1 49.960020752586445 -29.184842836740714 0 0 0 -1 I I #
coedge $-1 $506 $266 $269 $399 reversed $396 $-1 #
coedge $-1 $266 $506 $386 $498 reversed $396 $-1 #
loop $-1 $-1 $266 $382 #
vertex $-1 $498 $507 #
straight-curve $-1 49.960020752586445 29.184842836740714 0 0 0 1 I I #
edge $-1 $508 -2.3334417128489591 $271 2.3334417128489591 $394 $509 forward 7 unknown #
point $-1 49.960020752586438 -29.184842836740714 -3.3635514432886033 #
point $-1 49.960020752586438 29.184842836740714 -3.3635514432886033 #
loop $-1 $-1 $281 $273 #
plane-surface $-1 0 -29.184842836740714 0 0 1 0 0 0 1 forward_v I I I I #
coedge $-1 $405 $276 $278 $409 reversed $163 $-1 #
coedge $-1 $276 $404 $510 $511 reversed $163 $-1 #
coedge $-1 $284 $279 $276 $407 forward $274 $-1 #
edge $-1 $410 -24.044320441246072 $512 -17.521261295784065 $406 $513 forward 7 unknown #
coedge $-1 $278 $277 $413 $514 reversed $101 $-1 #
edge $-1 $515 -1.8593432412625586e-014 $410 8.5152490309222326 $404 $516 forward 7 unknown #
vertex $-1 $280 $517 #
straight-curve $-1 16.397100804408829 -22.661783691278707 6.8969643393139961 -1 0 0 I I #
coedge $-1 $510 $281 $284 $417 reversed $402 $-1 #
coedge $-1 $281 $510 $408 $514 forward $402 $-1 #
vertex $-1 $282 $518 #
straight-curve $-1 45.293137326888527 -29.184842836740714 38.983329795210629 0 0 1 I I #
straight-curve $-1 45.293137326888527 -29.1848428367407 1.4234677015670911 0 -0.76604443648966558 -0.64278761758704617 I I #
edge $-1 $512 20.295265890746791 $285 45.293137326888527 $412 $519 forward 7 unknown #
point $-1 45.293137326888527 -29.184842836740714 6.8969643393139961 #
point $-1 45.293137326888527 -22.661783691278707 6.896964339313997 #
edge $-1 $520 1 $520 0 $288 $-1 forward 7 unknown #
vertex $-1 $289 $521 #
ellipse-curve $-1 25.294840177975132 -23.188577297795018 0.90108467616994725 0 -0.64278761758704617 0.76604443648966558 1.5 0 0 1 I I #
point $-1 26.794840177975132 -25.923313264009725 4.1602160204405489 #
edge $-1 $522 1 $522 0 $292 $-1 forward 7 unknown #
vertex $-1 $293 $523 #
ellipse-curve $-1 32.794201608817659 -23.188577297795018 0.90108467616994725 0 -0.64278761758704617 0.76604443648966558 1.5 0 0 1 I I #
point $-1 34.294201608817659 -25.923313264009725 4.1602160204405489 #
edge $-1 $524 1 $524 0 $296 $-1 forward 7 unknown #
vertex $-1 $297 $525 #
ellipse-curve $-1 40.293563039660185 -23.188577297795018 0.90108467616994725 0 -0.64278761758704617 0.76604443648966558 1.5 0 0 1 I I #
point $-1 41.793563039660185 -25.923313264009725 4.1602160204405489 #
plane-surface $-1 0 0 6.8969643393139961 0 0 1 1 0 0 forward_v I I I I #
coedge $-1 $443 $442 $435 $526 forward $301 $-1 #
coedge $-1 $435 $303 $305 $439 reversed $192 $-1 #
coedge $-1 $303 $434 $433 $526 reversed $192 $-1 #
coedge $-1 $311 $306 $303 $437 forward $312 $-1 #
edge $-1 $440 -1.6874339563355676 $527 4.835625189126425 $436 $528 forward 7 unknown #
coedge $-1 $305 $304 $443 $529 reversed $120 $-1 #
edge $-1 $530 -58.369685673481435 $440 -49.854436642559207 $434 $531 forward 7 unknown #
vertex $-1 $307 $532 #
straight-curve $-1 16.397100804408829 22.661783691278718 6.8969643393139997 1 0 0 I I #
coedge $-1 $433 $308 $311 $447 reversed $301 $-1 #
coedge $-1 $308 $433 $438 $529 forward $301 $-1 #
vertex $-1 $309 $533 #
straight-curve $-1 20.295265890746791 29.184842836740714 57.742985391891565 0 0 1 I I #
straight-curve $-1 20.295265890746791 -15.52893013308028 38.942778894928963 0 0.76604443648966558 -0.64278761758704617 I I #
edge $-1 $527 -45.293137326888527 $313 -20.295265890746791 $442 $534 forward 7 unknown #
point $-1 20.295265890746791 29.184842836740714 6.8969643393139961 #
point $-1 20.295265890746791 22.661783691278721 6.8969643393139961 #
edge $-1 $535 1 $535 0 $316 $-1 forward 7 unknown #
vertex $-1 $317 $536 #
ellipse-curve $-1 25.294840177975132 23.18857729779501 0.90108467616994459 0 0.64278761758704617 0.76604443648966558 1.5 0 0 1 I I #
point $-1 26.794840177975132 25.923313264009717 4.1602160204405463 #
edge $-1 $537 1 $537 0 $320 $-1 forward 7 unknown #
vertex $-1 $321 $538 #
ellipse-curve $-1 32.794201608817659 23.18857729779501 0.90108467616994459 0 0.64278761758704617 0.76604443648966558 1.5 0 0 1 I I #
point $-1 34.294201608817659 25.923313264009717 4.1602160204405463 #
edge $-1 $539 1 $539 0 $324 $-1 forward 7 unknown #
vertex $-1 $325 $540 #
ellipse-curve $-1 40.293563039660185 23.18857729779501 0.90108467616994459 0 0.64278761758704617 0.76604443648966558 1.5 0 0 1 I I #
point $-1 41.793563039660185 25.923313264009717 4.1602160204405463 #
plane-surface $-1 49.960020752586445 0 0 -1 0 0 0 0 1 forward_v I I I I #
coedge $-1 $333 $331 $335 $467 reversed $221 $-1 #
edge $-1 $346 -6.8969643393139961 $469 6.8969643393139961 $345 $541 forward 7 unknown #
vertex $-1 $467 $542 #
straight-curve $-1 -49.960020752586445 -29.184842836740714 0 0 0 -1 I I #
edge $-1 $465 -29.184842836740714 $469 29.184842836740714 $463 $543 forward 7 unknown #
straight-curve $-1 0 -29.184842836740714 -6.8969643393139961 -1 0 0 I I #
vertex $-1 $338 $544 #
straight-curve $-1 0 29.184842836740714 -6.8969643393139961 1 0 0 I I #
point $-1 49.960020752586445 29.184842836740714 -6.8969643393139961 #
point $-1 49.960020752586445 -29.184842836740714 -6.8969643393139961 #
straight-curve $-1 -49.960020752586445 0 6.8969643393139961 0 -1 0 I I #
point $-1 -49.960020752586445 29.184842836740714 6.8969643393139961 #
point $-1 -49.960020752586445 -29.184842836740714 6.8969643393139961 #
straight-curve $-1 49.960020752586445 -29.184842836740714 0 0 0 -1 I I #
straight-curve $-1 49.960020752586445 29.184842836740714 0 0 0 -1 I I #
plane-surface $-1 -49.960020752586445 0 0 1 0 0 0 0 -1 forward_v I I I I #
edge $-1 $367 6.8417612016306979 $371 10.256544711333344 $370 $545 forward 7 unknown #
edge $-1 $375 -10.256544711333344 $366 -6.8417612016306979 $373 $546 forward 7 unknown #
straight-curve $-1 -41.310435626247539 -18.805697667815366 0 0 0 -1 I I #
edge $-1 $485 -6.8969643393139961 $483 6.8969643393139961 $377 $547 forward 7 unknown #
vertex $-1 $482 $548 #
straight-curve $-1 -22.817614094708496 -15.39091415811272 -6.8969643393139961 1 0 0 I I #
vertex $-1 $378 $549 #
straight-curve $-1 -22.817614094708496 -15.39091415811272 6.8969643393139961 -1 0 0 I I #
point $-1 -41.310435626247539 -15.39091415811272 6.8969643393139961 #
point $-1 -41.310435626247539 -15.39091415811272 -6.8969643393139961 #
point $-1 -41.310435626247539 -18.805697667815366 -6.8969643393139961 #
point $-1 -41.310435626247539 -18.805697667815366 6.8969643393139961 #
straight-curve $-1 -49.960020752586445 0 6.8969643393139961 0 -1 0 I I #
straight-curve $-1 -49.960020752586445 0 -6.8969643393139961 0 1 0 I I #
plane-surface $-1 0 29.184842836740714 0 0 -1 0 0 0 -1 forward_v I I I I #
coedge $-1 $550 $495 $389 $500 forward $383 $-1 #
coedge $-1 $494 $551 $385 $496 reversed $383 $-1 #
edge $-1 $503 -29.184842836740714 $508 29.184842836740714 $495 $552 forward 7 unknown #
coedge $-1 $387 $386 $550 $553 forward $155 $-1 #
edge $-1 $397 -2.333441712848952 $554 2.3334417128489591 $395 $555 forward 7 unknown #
straight-curve $-1 49.960020752586445 0 -6.8969643393139961 0 1 0 I I #
edge $-1 $503 -1.7667064480126964 $501 1.7667064480126964 $494 $556 forward 7 unknown #
vertex $-1 $500 $557 #
straight-curve $-1 52.293462465435397 -29.184842836740714 -6.8969643393139961 -1 0 0 I I #
vertex $-1 $496 $558 #
straight-curve $-1 52.293462465435397 -29.184842836740714 -3.3635514432886033 1 0 0 I I #
point $-1 49.960020752586445 -29.184842836740714 -6.8969643393139961 #
coedge $-1 $395 $394 $551 $559 forward $396 $-1 #
point $-1 49.960020752586445 29.184842836740714 -6.8969643393139961 #
vertex $-1 $496 $560 #
straight-curve $-1 52.293462465435397 29.184842836740714 -3.3635514432886033 -1 0 0 I I #
coedge $-1 $413 $412 $405 $511 forward $402 $-1 #
edge $-1 $512 32.086365455896633 $515 37.559862093643552 $510 $561 forward 7 unknown #
vertex $-1 $417 $562 #
straight-curve $-1 20.295265890746791 -46.706104132524779 6.8969643393139961 0 -1 0 I I #
edge $-1 $515 3.8981650863379613 $414 28.896036522479697 $413 $563 forward 7 unknown #
vertex $-1 $514 $564 #
straight-curve $-1 20.295265890746791 -29.1848428367407 1.4234677015670911 0 0.76604443648966558 0.64278761758704617 I I #
point $-1 20.295265890746791 -22.661783691278707 6.896964339313997 #
point $-1 45.293137326888527 -29.184842836740714 1.4234677015670791 #
straight-curve $-1 0 -29.184842836740714 6.8969643393139961 1 0 0 I I #
vertex $-1 $420 $565 #
point $-1 26.794840177975132 -23.188577297795018 0.90108467616994725 #
vertex $-1 $424 $566 #
point $-1 34.294201608817659 -23.188577297795018 0.90108467616994725 #
vertex $-1 $428 $567 #
point $-1 41.793563039660185 -23.188577297795018 0.90108467616994725 #
edge $-1 $527 50.846021052577569 $530 56.319517690324474 $433 $568 forward 7 unknown #
vertex $-1 $447 $569 #
straight-curve $-1 45.293137326888527 24.349217647614289 6.8969643393139961 0 1 0 I I #
edge $-1 $530 -28.896036522479697 $444 -3.8981650863379613 $443 $570 forward 7 unknown #
vertex $-1 $529 $571 #
straight-curve $-1 45.293137326888527 -15.52893013308028 38.942778894928963 0 -0.76604443648966558 0.64278761758704617 I I #
point $-1 45.293137326888527 22.661783691278721 6.8969643393139961 #
point $-1 20.295265890746791 29.184842836740714 1.4234677015670911 #
straight-curve $-1 0 29.184842836740714 6.8969643393139961 -1 0 0 I I #
vertex $-1 $450 $572 #
point $-1 26.794840177975132 23.18857729779501 0.90108467616994459 #
vertex $-1 $454 $573 #
point $-1 34.294201608817659 23.18857729779501 0.90108467616994459 #
vertex $-1 $458 $574 #
point $-1 41.793563039660185 23.18857729779501 0.90108467616994459 #
straight-curve $-1 -49.960020752586445 29.184842836740714 0 0 0 -1 I I #
point $-1 -49.960020752586445 -29.184842836740714 -6.8969643393139961 #
straight-curve $-1 -49.960020752586445 0 -6.8969643393139961 0 1 0 I I #
point $-1 -49.960020752586445 29.184842836740714 -6.8969643393139961 #
straight-curve $-1 -41.310435626247539 -8.5491529564820219 -6.8969643393139961 0 -1 0 I I #
straight-curve $-1 -41.310435626247539 -8.5491529564820219 6.8969643393139961 0 1 0 I I #
straight-curve $-1 -49.960020752586445 -15.39091415811272 0 0 0 -1 I I #
point $-1 -49.960020752586445 -15.39091415811272 -6.8969643393139961 #
point $-1 -49.960020752586445 -15.39091415811272 6.8969643393139961 #
coedge $-1 $551 $494 $497 $553 reversed $383 $-1 #
coedge $-1 $495 $550 $506 $559 reversed $383 $-1 #
straight-curve $-1 54.626904178284356 0 -3.3635514432886033 0 1 0 I I #
edge $-1 $554 -29.184842836740714 $501 29.184842836740714 $550 $575 forward 7 unknown #
vertex $-1 $553 $576 #
straight-curve $-1 52.293462465435397 29.184842836740714 -6.8969643393139961 1 0 0 I I #
straight-curve $-1 54.626904178284356 -29.184842836740714 -5.1302578913012997 0 0 -1 I I #
point $-1 54.626904178284356 -29.184842836740714 -6.8969643393139961 #
point $-1 54.626904178284356 -29.184842836740714 -3.3635514432886033 #
edge $-1 $508 -1.7667064480126964 $554 1.7667064480126964 $551 $577 forward 7 unknown #
point $-1 54.626904178284356 29.184842836740714 -3.3635514432886033 #
straight-curve $-1 20.295265890746791 -29.184842836740714 38.983329795210629 0 0 -1 I I #
point $-1 20.295265890746791 -29.184842836740714 6.8969643393139961 #
straight-curve $-1 16.397100804408829 -29.184842836740714 1.4234677015670778 1 0 0 I I #
point $-1 20.295265890746791 -29.184842836740714 1.4234677015670791 #
point $-1 25.294840177975132 -22.224395871414448 -0.24798197856455106 #
point $-1 32.794201608817659 -22.224395871414448 -0.24798197856455106 #
point $-1 40.293563039660185 -22.224395871414448 -0.24798197856455106 #
straight-curve $-1 45.293137326888527 29.184842836740714 57.742985391891565 0 0 -1 I I #
point $-1 45.293137326888527 29.184842836740714 6.8969643393139961 #
straight-curve $-1 16.397100804408829 29.184842836740707 1.4234677015670947 -1 0 0 I I #
point $-1 45.293137326888527 29.184842836740714 1.4234677015670911 #
point $-1 25.294840177975132 22.224395871414441 -0.24798197856455373 #
point $-1 32.794201608817659 22.224395871414441 -0.24798197856455373 #
point $-1 40.293563039660185 22.224395871414441 -0.24798197856455373 #
straight-curve $-1 54.626904178284356 0 -6.8969643393139961 0 -1 0 I I #
point $-1 54.626904178284356 29.184842836740714 -6.8969643393139961 #
straight-curve $-1 54.626904178284356 29.184842836740714 -5.1302578913012997 0 0 -1 I I #
End-of-ACIS-data 