500 0 8 0           
7 Unknown 11 ACIS 5.0 NT 24 Fri Mar 26 20:38:52 1999 
-1 9.9999999999999995e-007 1e-010 
body $-1 $8 $-1 $9 #
body $-1 $10 $-1 $11 #
body $-1 $12 $-1 $13 #
body $-1 $14 $-1 $15 #
body $-1 $16 $-1 $17 #
body $-1 $18 $-1 $19 #
body $-1 $20 $-1 $21 #
body $-1 $22 $-1 $23 #
lump $-1 $-1 $24 $0 #
transform $-1 1 0 0 0 1 0 0 0 1 69.428388317514575 34.009676225605837 13.671231798480557 1 rotate no_reflect no_shear #
lump $-1 $-1 $25 $1 #
transform $-1 1 0 0 0 1 0 0 0 1 69.428388317514575 34.009676225605837 13.671231798480557 1 rotate no_reflect no_shear #
lump $-1 $-1 $26 $2 #
transform $-1 1 0 0 0 1 0 0 0 1 69.428388317514575 34.009676225605837 13.671231798480557 1 rotate no_reflect no_shear #
lump $-1 $-1 $27 $3 #
transform $-1 1 0 0 0 1 0 0 0 1 69.428388317514575 34.009676225605837 13.671231798480557 1 rotate no_reflect no_shear #
lump $-1 $-1 $28 $4 #
transform $-1 1 0 0 0 1 0 0 0 1 69.428388317514575 34.009676225605837 13.671231798480557 1 rotate no_reflect no_shear #
lump $-1 $-1 $29 $5 #
transform $-1 1 0 0 0 1 0 0 0 1 69.428388317514575 34.009676225605837 13.671231798480557 1 rotate no_reflect no_shear #
lump $-1 $-1 $30 $6 #
transform $-1 1 0 0 0 1 0 0 0 1 69.428388317514575 34.009676225605837 13.671231798480557 1 rotate no_reflect no_shear #
lump $-1 $-1 $31 $7 #
transform $-1 1 0 0 0 1 0 0 0 1 69.428388317514575 34.009676225605837 13.671231798480557 1 rotate no_reflect no_shear #
shell $-1 $-1 $-1 $32 $-1 $8 #
shell $-1 $-1 $-1 $33 $-1 $10 #
shell $-1 $-1 $-1 $34 $-1 $12 #
shell $-1 $-1 $-1 $35 $-1 $14 #
shell $-1 $-1 $-1 $36 $-1 $16 #
shell $-1 $-1 $-1 $37 $-1 $18 #
shell $-1 $-1 $-1 $38 $-1 $20 #
shell $-1 $-1 $-1 $39 $-1 $22 #
face $-1 $40 $41 $24 $-1 $42 forward single #
face $-1 $43 $44 $25 $-1 $45 forward single #
face $-1 $46 $47 $26 $-1 $48 forward single #
face $-1 $49 $50 $27 $-1 $51 reversed single #
face $-1 $52 $53 $28 $-1 $54 forward single #
face $-1 $55 $56 $29 $-1 $57 reversed single #
face $-1 $58 $59 $30 $-1 $60 forward single #
face $-1 $61 $62 $31 $-1 $63 forward single #
face $-1 $64 $65 $24 $-1 $66 reversed single #
loop $-1 $-1 $67 $32 #
plane-surface $-1 0 0 13.671231798480557 0 0 1 1 0 0 forward_v I I I I #
face $-1 $68 $69 $25 $-1 $70 reversed single #
loop $-1 $-1 $71 $33 #
plane-surface $-1 -64.348245030347087 0 -8.4050935034257197 0 0 1 1 0 0 forward_v I I I I #
face $-1 $72 $73 $26 $-1 $74 reversed single #
loop $-1 $-1 $75 $34 #
plane-surface $-1 64.348245030347087 0 -8.4050935034257197 0 0 1 1 0 0 forward_v I I I I #
face $-1 $76 $77 $27 $-1 $78 reversed single #
loop $-1 $-1 $79 $35 #
plane-surface $-1 -19.602288240428731 111.09122400587822 141.21967295039124 -1 0 0 0 0.82903758062907751 0.55919289150049634 forward_v I I I I #
face $-1 $80 $81 $28 $-1 $82 forward single #
loop $-1 $83 $84 $36 #
cone-surface $-1 -34.396070928721571 31.313436467577848 10.083978446314617 0 -0.82903758062907751 -0.55919289150049634 1 0 0 1 I I 0 1 1 forward I I I I #
face $-1 $85 $86 $29 $-1 $87 reversed single #
loop $-1 $-1 $88 $37 #
plane-surface $-1 -59.268101743179585 -121.3950782825961 118.24321452995028 1 0 0 0 0.62932039886446345 -0.77714595512881146 forward_v I I I I #
face $-1 $89 $90 $30 $-1 $91 forward single #
loop $-1 $92 $93 $38 #
cone-surface $-1 -54.068444606610768 -31.401892518891756 11.327588512176332 0 0.62932039886446345 -0.77714595512881146 1 0 0 1 I I 0 1 1 forward I I I I #
face $-1 $94 $95 $31 $-1 $96 forward single #
loop $-1 $97 $98 $39 #
cone-surface $-1 -46.268958901757529 -31.401892518891756 11.327588512176332 0 0.62932039886446345 -0.77714595512881146 1 0 0 1 I I 0 1 1 forward I I I I #
face $-1 $99 $100 $24 $-1 $101 reversed single #
loop $-1 $-1 $102 $40 #
plane-surface $-1 0 0 -13.671231798480557 0 0 1 1 0 0 forward_v I I I I #
coedge $-1 $103 $104 $105 $106 forward $41 $-1 #
face $-1 $107 $108 $25 $-1 $109 reversed single #
loop $-1 $-1 $110 $43 #
plane-surface $-1 -59.268101743179592 0 -11.038162650953138 -1 0 0 0 0 1 forward_v I I I I #
coedge $-1 $111 $112 $113 $114 forward $44 $-1 #
face $-1 $115 $116 $26 $-1 $117 reversed single #
loop $-1 $-1 $118 $46 #
plane-surface $-1 59.268101743179599 0 -11.038162650953138 1 0 0 0 0 -1 forward_v I I I I #
coedge $-1 $119 $120 $121 $122 reversed $47 $-1 #
face $-1 $123 $124 $27 $-1 $125 reversed single #
loop $-1 $-1 $126 $49 #
plane-surface $-1 -34.396070928721571 -4.0262621495785709 63.571950519410734 0 0.82903758062907751 0.55919289150049634 1 0 0 forward_v I I I I #
coedge $-1 $127 $128 $129 $130 reversed $50 $-1 #
face $-1 $-1 $131 $28 $-1 $132 forward single #
loop $-1 $133 $134 $52 #
cone-surface $-1 -34.396070928721571 30.39141774406685 9.4620689839878533 0 -0.82903758062907751 -0.55919289150049634 0.5 0 0 1 I I -0.70710678118654746 0.70710678118654746 0.5 forward I I I I #
loop $-1 $-1 $135 $36 #
coedge $-1 $84 $84 $136 $137 reversed $53 $-1 #
face $-1 $138 $139 $29 $-1 $140 reversed single #
loop $-1 $-1 $141 $55 #
plane-surface $-1 -50.168701754184141 -34.009676225605844 10.331232225812514 0 -0.62932039886446345 0.77714595512881146 1 0 0 forward_v I I I I #
coedge $-1 $142 $143 $144 $145 reversed $56 $-1 #
face $-1 $-1 $146 $30 $-1 $147 forward single #
loop $-1 $148 $149 $58 #
cone-surface $-1 -54.068444606610768 -30.541726557902244 10.265372034641723 0 0.62932039886446345 -0.77714595512881146 0.5 0 0 1 I I -0.70710678118654746 0.70710678118654746 0.5 forward I I I I #
loop $-1 $-1 $150 $38 #
coedge $-1 $93 $93 $151 $152 reversed $59 $-1 #
face $-1 $-1 $153 $31 $-1 $154 forward single #
loop $-1 $155 $156 $61 #
cone-surface $-1 -46.268958901757529 -30.541726557902244 10.265372034641723 0 0.62932039886446345 -0.77714595512881146 0.5 0 0 1 I I -0.70710678118654746 0.70710678118654746 0.5 forward I I I I #
loop $-1 $-1 $157 $39 #
coedge $-1 $98 $98 $158 $159 reversed $62 $-1 #
face $-1 $160 $161 $24 $-1 $162 reversed single #
loop $-1 $-1 $163 $64 #
plane-surface $-1 0 -34.009676225605837 0 0 1 0 0 0 1 forward_v I I I I #
coedge $-1 $164 $165 $166 $167 forward $65 $-1 #
coedge $-1 $168 $67 $169 $170 forward $41 $-1 #
coedge $-1 $67 $168 $171 $172 forward $41 $-1 #
coedge $-1 $173 $174 $67 $106 reversed $175 $-1 #
edge $-1 $176 -34.009676225605837 $177 34.009676225605837 $105 $178 forward 7 unknown #
face $-1 $179 $180 $25 $-1 $181 reversed single #
loop $-1 $-1 $182 $68 #
plane-surface $-1 0 0 -13.671231798480557 0 0 1 1 0 0 forward_v I I I I #
coedge $-1 $183 $113 $184 $185 reversed $69 $-1 #
coedge $-1 $186 $71 $187 $188 reversed $44 $-1 #
coedge $-1 $71 $186 $189 $190 reversed $44 $-1 #
coedge $-1 $110 $191 $71 $114 reversed $69 $-1 #
edge $-1 $192 -34.009676225605837 $193 34.009676225605837 $113 $194 forward 7 unknown #
face $-1 $195 $196 $26 $-1 $197 reversed single #
loop $-1 $-1 $198 $72 #
plane-surface $-1 0 -34.009676225605837 0 0 1 0 0 0 1 forward_v I I I I #
coedge $-1 $199 $200 $201 $202 reversed $73 $-1 #
coedge $-1 $203 $75 $204 $205 reversed $47 $-1 #
coedge $-1 $75 $203 $198 $206 reversed $47 $-1 #
coedge $-1 $207 $208 $75 $122 forward $209 $-1 #
edge $-1 $210 -34.009676225605837 $211 34.009676225605837 $121 $212 forward 7 unknown #
face $-1 $213 $214 $27 $-1 $215 reversed single #
loop $-1 $-1 $216 $76 #
plane-surface $-1 -49.189853617014407 111.09122400587822 141.21967295039124 1 0 0 0 -0.82903758062907751 -0.55919289150049634 forward_v I I I I #
coedge $-1 $217 $218 $219 $220 reversed $77 $-1 #
coedge $-1 $128 $79 $221 $222 reversed $50 $-1 #
coedge $-1 $79 $127 $217 $223 reversed $50 $-1 #
coedge $-1 $219 $224 $79 $130 forward $214 $-1 #
edge $-1 $225 56.938604676715066 $226 63.42848534789389 $129 $227 forward 7 unknown #
loop $-1 $-1 $136 $80 #
plane-surface $-1 -34.396070928721571 -4.0262621495785709 63.571950519410734 0 0.82903758062907751 0.55919289150049634 1 0 0 forward_v I I I I #
loop $-1 $-1 $228 $52 #
coedge $-1 $134 $134 $135 $229 reversed $81 $-1 #
coedge $-1 $135 $135 $134 $229 forward $83 $-1 #
coedge $-1 $136 $136 $84 $137 forward $131 $-1 #
edge $-1 $230 -2.0559426330060775e-015 $230 6.2831853071795987 $136 $231 forward 7 unknown #
face $-1 $232 $233 $29 $-1 $234 forward single #
loop $-1 $-1 $235 $85 #
plane-surface $-1 -41.069301765188698 -121.3950782825961 118.24321452995028 -1 0 0 0 -0.62932039886446345 0.77714595512881146 forward_v I I I I #
coedge $-1 $236 $237 $238 $239 reversed $86 $-1 #
coedge $-1 $143 $88 $240 $241 reversed $56 $-1 #
coedge $-1 $88 $142 $236 $242 reversed $56 $-1 #
coedge $-1 $238 $243 $88 $145 forward $244 $-1 #
edge $-1 $245 45.450375466494584 $246 48.790375039162619 $144 $247 forward 7 unknown #
loop $-1 $-1 $151 $89 #
plane-surface $-1 -50.168701754184141 -34.009676225605844 10.331232225812514 0 -0.62932039886446345 0.77714595512881146 1 0 0 forward_v I I I I #
loop $-1 $-1 $248 $58 #
coedge $-1 $149 $149 $150 $249 reversed $90 $-1 #
coedge $-1 $150 $150 $149 $249 forward $92 $-1 #
coedge $-1 $151 $151 $93 $152 forward $146 $-1 #
edge $-1 $250 3.2861589410272507e-015 $250 6.283185307179604 $151 $251 forward 7 unknown #
loop $-1 $-1 $158 $94 #
plane-surface $-1 -50.168701754184141 -34.009676225605844 10.331232225812514 0 -0.62932039886446345 0.77714595512881146 1 0 0 forward_v I I I I #
loop $-1 $-1 $252 $61 #
coedge $-1 $156 $156 $157 $253 reversed $95 $-1 #
coedge $-1 $157 $157 $156 $253 forward $97 $-1 #
coedge $-1 $158 $158 $98 $159 forward $153 $-1 #
edge $-1 $254 3.2861589410272507e-015 $254 6.283185307179604 $158 $255 forward 7 unknown #
face $-1 $256 $257 $24 $-1 $258 reversed single #
loop $-1 $-1 $259 $99 #
plane-surface $-1 -69.428388317514575 0 0 1 0 0 0 0 -1 forward_v I I I I #
coedge $-1 $260 $171 $261 $262 forward $100 $-1 #
coedge $-1 $263 $102 $260 $264 forward $65 $-1 #
coedge $-1 $102 $263 $265 $266 forward $65 $-1 #
coedge $-1 $174 $173 $102 $167 reversed $175 $-1 #
edge $-1 $267 -34.009676225605837 $268 34.009676225605837 $166 $269 forward 7 unknown #
coedge $-1 $104 $103 $270 $271 forward $41 $-1 #
coedge $-1 $272 $273 $103 $170 reversed $257 $-1 #
edge $-1 $177 -69.428388317514575 $274 69.428388317514575 $169 $275 forward 7 unknown #
coedge $-1 $163 $276 $104 $172 reversed $100 $-1 #
edge $-1 $277 -69.428388317514575 $176 69.428388317514575 $171 $278 forward 7 unknown #
coedge $-1 $166 $105 $276 $279 forward $175 $-1 #
coedge $-1 $105 $166 $272 $280 reversed $175 $-1 #
loop $-1 $-1 $173 $256 #
vertex $-1 $106 $281 #
vertex $-1 $106 $282 #
straight-curve $-1 69.428388317514575 0 13.671231798480557 0 1 0 I I #
face $-1 $283 $284 $25 $-1 $285 reversed single #
loop $-1 $-1 $184 $107 #
plane-surface $-1 0 -34.009676225605837 0 0 1 0 0 0 1 forward_v I I I I #
coedge $-1 $286 $287 $183 $288 forward $108 $-1 #
coedge $-1 $191 $110 $182 $288 reversed $69 $-1 #
coedge $-1 $189 $289 $110 $185 forward $180 $-1 #
edge $-1 $290 -8.1521504730039887 $192 -2.8860121779491505 $184 $291 forward 7 unknown #
coedge $-1 $112 $111 $292 $293 reversed $44 $-1 #
coedge $-1 $294 $295 $111 $188 forward $296 $-1 #
edge $-1 $297 -37.254265802341031 $193 -27.093979228006049 $187 $298 forward 7 unknown #
coedge $-1 $299 $184 $112 $190 forward $180 $-1 #
edge $-1 $192 27.093979228006049 $300 37.254265802341031 $189 $301 forward 7 unknown #
coedge $-1 $113 $183 $294 $302 reversed $69 $-1 #
vertex $-1 $190 $303 #
vertex $-1 $188 $304 #
straight-curve $-1 -59.268101743179592 0 -8.4050935034257197 0 1 0 I I #
face $-1 $305 $306 $26 $-1 $307 reversed single #
loop $-1 $-1 $308 $115 #
plane-surface $-1 0 0 -13.671231798480557 0 0 1 1 0 0 forward_v I I I I #
coedge $-1 $309 $310 $120 $206 forward $116 $-1 #
coedge $-1 $311 $118 $308 $312 reversed $73 $-1 #
coedge $-1 $118 $311 $203 $313 reversed $73 $-1 #
coedge $-1 $204 $314 $118 $202 forward $306 $-1 #
edge $-1 $315 -8.1521504730039887 $316 -2.8860121779491505 $201 $317 forward 7 unknown #
coedge $-1 $120 $119 $200 $313 forward $47 $-1 #
coedge $-1 $318 $201 $119 $205 forward $306 $-1 #
edge $-1 $316 27.093979228006056 $210 37.254265802341031 $204 $319 forward 7 unknown #
edge $-1 $211 -37.254265802341031 $320 -27.093979228006056 $198 $321 forward 7 unknown #
coedge $-1 $322 $121 $310 $323 forward $209 $-1 #
coedge $-1 $121 $322 $318 $324 reversed $209 $-1 #
loop $-1 $-1 $121 $305 #
vertex $-1 $324 $325 #
vertex $-1 $323 $326 #
straight-curve $-1 69.428388317514575 0 -8.4050935034257197 0 -1 0 I I #
face $-1 $-1 $327 $27 $-1 $328 forward single #
loop $-1 $-1 $129 $123 #
plane-surface $-1 0 34.009676225605837 0 0 -1 0 0 0 -1 forward_v I I I I #
coedge $-1 $329 $330 $331 $332 reversed $124 $-1 #
coedge $-1 $333 $126 $128 $223 forward $77 $-1 #
coedge $-1 $126 $333 $329 $334 forward $77 $-1 #
coedge $-1 $331 $129 $126 $220 forward $214 $-1 #
edge $-1 $226 2.4042527760679455 $335 31.991818152653622 $219 $336 forward 7 unknown #
coedge $-1 $337 $338 $127 $222 forward $327 $-1 #
edge $-1 $339 -25.913415426996316 $225 -21.535935777333272 $221 $340 forward 7 unknown #
edge $-1 $226 -68.019352451211631 $339 -60.191141978226469 $128 $341 forward 7 unknown #
coedge $-1 $129 $331 $337 $342 reversed $214 $-1 #
vertex $-1 $342 $343 #
vertex $-1 $130 $344 #
straight-curve $-1 -19.602288240428731 34.009676225605837 70.609836475195621 0 0 -1 I I #
coedge $-1 $228 $228 $-1 $345 reversed $133 $-1 #
edge $-1 $346 0 $346 6.2831853071796004 $134 $347 forward 7 unknown #
vertex $-1 $137 $348 #
ellipse-curve $-1 -34.396070928721571 31.820936400774318 10.426291462891141 0 0.82903758062907751 0.55919289150049634 1 0 0 1 I I #
face $-1 $-1 $244 $29 $-1 $349 reversed single #
loop $-1 $-1 $350 $138 #
plane-surface $-1 0 0 13.671231798480557 0 0 1 1 0 0 forward_v I I I I #
coedge $-1 $351 $352 $353 $354 reversed $139 $-1 #
coedge $-1 $355 $141 $143 $242 forward $86 $-1 #
coedge $-1 $141 $355 $351 $356 forward $86 $-1 #
coedge $-1 $353 $144 $141 $239 forward $244 $-1 #
edge $-1 $246 -34.183750866087514 $357 -15.984950888096627 $238 $358 forward 7 unknown #
coedge $-1 $359 $360 $142 $241 forward $233 $-1 #
edge $-1 $361 -30.812418806005809 $245 -26.687862915692214 $240 $362 forward 7 unknown #
edge $-1 $246 8.8756469145121664e-015 $361 5.3073117901385203 $143 $363 forward 7 unknown #
coedge $-1 $144 $353 $359 $364 reversed $244 $-1 #
loop $-1 $-1 $353 $232 #
vertex $-1 $364 $365 #
vertex $-1 $145 $366 #
straight-curve $-1 -59.268101743179585 -34.009676225605837 59.12160726497514 0 0 -1 I I #
coedge $-1 $248 $248 $-1 $367 reversed $148 $-1 #
edge $-1 $368 0 $368 6.2831853071796004 $149 $369 forward 7 unknown #
vertex $-1 $152 $370 #
ellipse-curve $-1 -54.068444606610768 -31.94739828044904 12.001232012146538 0 -0.62932039886446345 0.77714595512881146 1 0 0 1 I I #
coedge $-1 $252 $252 $-1 $371 reversed $155 $-1 #
edge $-1 $372 0 $372 6.2831853071796004 $156 $373 forward 7 unknown #
vertex $-1 $159 $374 #
ellipse-curve $-1 -46.268958901757529 -31.94739828044904 12.001232012146538 0 -0.62932039886446345 0.77714595512881146 1 0 0 1 I I #
face $-1 $-1 $175 $24 $-1 $375 reversed single #
loop $-1 $-1 $272 $160 #
plane-surface $-1 0 34.009676225605837 0 0 -1 0 0 0 -1 forward_v I I I I #
coedge $-1 $376 $270 $273 $377 forward $161 $-1 #
coedge $-1 $276 $163 $164 $264 reversed $100 $-1 #
coedge $-1 $270 $376 $163 $262 reversed $161 $-1 #
edge $-1 $277 -13.671231798480557 $378 13.671231798480557 $261 $379 forward 7 unknown #
coedge $-1 $165 $164 $376 $380 forward $65 $-1 #
edge $-1 $268 -69.428388317514575 $378 69.428388317514575 $260 $381 forward 7 unknown #
coedge $-1 $273 $272 $165 $266 reversed $257 $-1 #
edge $-1 $382 -69.428388317514575 $267 69.428388317514575 $265 $383 forward 7 unknown #
vertex $-1 $167 $384 #
vertex $-1 $279 $385 #
straight-curve $-1 69.428388317514575 0 -13.671231798480557 0 -1 0 I I #
coedge $-1 $259 $261 $168 $271 reversed $161 $-1 #
edge $-1 $274 -34.009676225605837 $277 34.009676225605837 $270 $386 forward 7 unknown #
coedge $-1 $265 $169 $174 $280 forward $257 $-1 #
coedge $-1 $169 $265 $259 $377 reversed $257 $-1 #
vertex $-1 $170 $387 #
straight-curve $-1 0 34.009676225605837 13.671231798480557 -1 0 0 I I #
coedge $-1 $171 $260 $173 $279 reversed $100 $-1 #
vertex $-1 $271 $388 #
straight-curve $-1 0 -34.009676225605837 13.671231798480557 1 0 0 I I #
edge $-1 $176 -13.671231798480557 $268 13.671231798480557 $173 $389 forward 7 unknown #
edge $-1 $177 -13.671231798480557 $267 13.671231798480557 $174 $390 forward 7 unknown #
point $-1 69.428388317514575 -34.009676225605837 13.671231798480557 #
point $-1 69.428388317514575 34.009676225605837 13.671231798480557 #
face $-1 $-1 $296 $25 $-1 $391 reversed single #
loop $-1 $-1 $292 $179 #
plane-surface $-1 -69.428388317514575 0 0 1 0 0 0 0 -1 forward_v I I I I #
coedge $-1 $392 $182 $289 $393 forward $108 $-1 #
coedge $-1 $182 $392 $394 $395 forward $108 $-1 #
edge $-1 $396 -34.009676225605837 $290 34.009676225605837 $182 $397 forward 7 unknown #
coedge $-1 $184 $299 $286 $393 reversed $180 $-1 #
vertex $-1 $393 $398 #
straight-curve $-1 -59.268101743179592 -34.009676225605837 -5.5190813254765692 0 0 1 I I #
coedge $-1 $399 $400 $186 $293 forward $284 $-1 #
edge $-1 $300 -34.009676225605837 $297 34.009676225605837 $292 $401 forward 7 unknown #
coedge $-1 $394 $187 $191 $302 forward $296 $-1 #
coedge $-1 $187 $394 $399 $402 reversed $296 $-1 #
loop $-1 $-1 $294 $283 #
vertex $-1 $402 $403 #
straight-curve $-1 -32.174122515173543 34.009676225605837 -8.4050935034257197 1 0 0 I I #
coedge $-1 $289 $189 $400 $404 forward $180 $-1 #
vertex $-1 $404 $405 #
straight-curve $-1 -32.174122515173543 -34.009676225605837 -8.4050935034257197 -1 0 0 I I #
edge $-1 $193 2.8860121779491505 $396 8.1521504730039887 $294 $406 forward 7 unknown #
point $-1 -59.268101743179592 -34.009676225605837 -8.4050935034257197 #
point $-1 -59.268101743179592 34.009676225605837 -8.4050935034257197 #
face $-1 $-1 $209 $26 $-1 $407 reversed single #
loop $-1 $-1 $204 $195 #
plane-surface $-1 0 34.009676225605837 0 0 -1 0 0 0 -1 forward_v I I I I #
coedge $-1 $408 $409 $199 $312 forward $196 $-1 #
coedge $-1 $410 $198 $311 $411 forward $116 $-1 #
coedge $-1 $198 $410 $207 $323 reversed $116 $-1 #
coedge $-1 $200 $199 $309 $411 reversed $73 $-1 #
edge $-1 $412 -34.009676225605837 $315 34.009676225605837 $308 $413 forward 7 unknown #
edge $-1 $316 -34.009676225605837 $320 34.009676225605837 $200 $414 forward 7 unknown #
coedge $-1 $201 $318 $408 $415 reversed $306 $-1 #
vertex $-1 $415 $416 #
vertex $-1 $205 $417 #
straight-curve $-1 59.268101743179599 34.009676225605837 -5.5190813254765692 0 0 1 I I #
coedge $-1 $314 $204 $208 $324 forward $306 $-1 #
straight-curve $-1 32.174122515173543 34.009676225605837 -8.4050935034257197 1 0 0 I I #
vertex $-1 $206 $418 #
straight-curve $-1 32.174122515173543 -34.009676225605837 -8.4050935034257197 -1 0 0 I I #
coedge $-1 $208 $207 $419 $420 reversed $209 $-1 #
edge $-1 $211 8.4050935034257197 $421 13.671231798480557 $207 $422 forward 7 unknown #
edge $-1 $210 8.4050935034257197 $423 13.671231798480557 $208 $424 forward 7 unknown #
point $-1 69.428388317514575 34.009676225605837 -8.4050935034257197 #
point $-1 69.428388317514575 -34.009676225605837 -8.4050935034257197 #
loop $-1 $-1 $221 $213 #
plane-surface $-1 0 0 13.671231798480557 0 0 1 1 0 0 forward_v I I I I #
coedge $-1 $330 $216 $218 $334 reversed $124 $-1 #
coedge $-1 $216 $329 $425 $426 reversed $124 $-1 #
coedge $-1 $224 $219 $216 $332 forward $214 $-1 #
edge $-1 $335 -63.42848534789389 $427 -56.938604676715066 $331 $428 forward 7 unknown #
coedge $-1 $218 $217 $338 $429 reversed $77 $-1 #
edge $-1 $430 60.191141978226469 $335 68.019352451211631 $329 $431 forward 7 unknown #
vertex $-1 $220 $432 #
straight-curve $-1 -17.198035464360785 34.009676225605844 7.1813511273017241 -1 0 0 I I #
coedge $-1 $425 $221 $224 $342 forward $327 $-1 #
coedge $-1 $221 $425 $333 $429 forward $327 $-1 #
vertex $-1 $222 $433 #
straight-curve $-1 -19.602288240428731 55.545612002939109 13.671231798480555 0 1 0 I I #
straight-curve $-1 -19.602288240428731 -4.0262621495785709 63.571950519410734 0 -0.55919289150049634 0.82903758062907751 I I #
edge $-1 $225 19.602288240428731 $427 49.189853617014407 $224 $434 forward 7 unknown #
point $-1 -19.602288240428731 34.009676225605837 13.671231798480557 #
point $-1 -19.602288240428731 34.009676225605837 7.1813511273017312 #
edge $-1 $435 1 $435 0 $228 $-1 forward 7 unknown #
vertex $-1 $229 $436 #
ellipse-curve $-1 -34.396070928721571 30.805936534381388 9.7416654297381022 0 0.82903758062907751 0.55919289150049634 1 0 0 1 I I #
point $-1 -33.396070928721571 31.820936400774304 10.426291462891134 #
plane-surface $-1 0 -34.009676225605837 0 0 1 0 0 0 1 forward_v I I I I #
coedge $-1 $360 $359 $352 $437 forward $233 $-1 #
coedge $-1 $352 $235 $237 $356 reversed $139 $-1 #
coedge $-1 $235 $351 $350 $437 reversed $139 $-1 #
coedge $-1 $243 $238 $235 $354 forward $244 $-1 #
edge $-1 $357 -48.790375039162619 $438 -45.450375466494584 $353 $439 forward 7 unknown #
coedge $-1 $237 $236 $360 $440 reversed $86 $-1 #
edge $-1 $441 -5.3073117901385203 $357 -8.8756469145121664e-015 $351 $442 forward 7 unknown #
vertex $-1 $239 $443 #
straight-curve $-1 -25.084350877092071 -34.009676225605837 10.331232225812522 1 0 0 I I #
coedge $-1 $350 $240 $243 $364 forward $233 $-1 #
coedge $-1 $240 $350 $355 $440 forward $233 $-1 #
vertex $-1 $241 $444 #
straight-curve $-1 -59.268101743179585 -60.697539141298051 13.671231798480555 0 -1 0 I I #
straight-curve $-1 -59.268101743179585 -34.009676225605844 10.331232225812514 0 0.77714595512881146 0.62932039886446345 I I #
edge $-1 $245 -59.268101743179585 $438 -41.069301765188698 $243 $445 forward 7 unknown #
point $-1 -59.268101743179585 -34.009676225605837 13.671231798480557 #
point $-1 -59.268101743179585 -34.009676225605837 10.331232225812519 #
edge $-1 $446 1 $446 0 $248 $-1 forward 7 unknown #
vertex $-1 $249 $447 #
ellipse-curve $-1 -54.068444606610768 -30.856386757334477 10.65394501220613 0 -0.62932039886446345 0.77714595512881146 1 0 0 1 I I #
point $-1 -53.068444606610768 -31.947398280449033 12.001232012146534 #
edge $-1 $448 1 $448 0 $252 $-1 forward 7 unknown #
vertex $-1 $253 $449 #
ellipse-curve $-1 -46.268958901757529 -30.856386757334477 10.65394501220613 0 -0.62932039886446345 0.77714595512881146 1 0 0 1 I I #
point $-1 -45.268958901757529 -31.947398280449033 12.001232012146534 #
plane-surface $-1 69.428388317514575 0 0 -1 0 0 0 0 1 forward_v I I I I #
coedge $-1 $261 $259 $263 $380 reversed $161 $-1 #
edge $-1 $274 -13.671231798480557 $382 13.671231798480557 $273 $450 forward 7 unknown #
vertex $-1 $380 $451 #
straight-curve $-1 -69.428388317514575 -34.009676225605837 0 0 0 -1 I I #
edge $-1 $378 -34.009676225605837 $382 34.009676225605837 $376 $452 forward 7 unknown #
straight-curve $-1 0 -34.009676225605837 -13.671231798480557 -1 0 0 I I #
vertex $-1 $266 $453 #
straight-curve $-1 0 34.009676225605837 -13.671231798480557 1 0 0 I I #
point $-1 69.428388317514575 34.009676225605837 -13.671231798480557 #
point $-1 69.428388317514575 -34.009676225605837 -13.671231798480557 #
straight-curve $-1 -69.428388317514575 0 13.671231798480557 0 -1 0 I I #
point $-1 -69.428388317514575 34.009676225605837 13.671231798480557 #
point $-1 -69.428388317514575 -34.009676225605837 13.671231798480557 #
straight-curve $-1 69.428388317514575 -34.009676225605837 0 0 0 -1 I I #
straight-curve $-1 69.428388317514575 34.009676225605837 0 0 0 -1 I I #
plane-surface $-1 0 34.009676225605837 0 0 -1 0 0 0 -1 forward_v I I I I #
coedge $-1 $287 $286 $454 $455 forward $108 $-1 #
edge $-1 $290 59.268101743179592 $456 69.428388317514575 $289 $457 forward 7 unknown #
coedge $-1 $295 $294 $287 $395 reversed $296 $-1 #
edge $-1 $458 -69.428388317514575 $396 -59.268101743179592 $394 $459 forward 7 unknown #
vertex $-1 $302 $460 #
straight-curve $-1 -59.268101743179592 0 -13.671231798480557 0 -1 0 I I #
point $-1 -59.268101743179592 -34.009676225605837 -13.671231798480557 #
coedge $-1 $454 $292 $295 $402 forward $284 $-1 #
coedge $-1 $292 $454 $299 $404 reversed $284 $-1 #
straight-curve $-1 -69.428388317514575 0 -8.4050935034257197 0 1 0 I I #
edge $-1 $297 8.4050935034257197 $458 13.671231798480557 $295 $461 forward 7 unknown #
point $-1 -69.428388317514575 34.009676225605837 -8.4050935034257197 #
edge $-1 $300 8.4050935034257197 $456 13.671231798480557 $400 $462 forward 7 unknown #
point $-1 -69.428388317514575 -34.009676225605837 -8.4050935034257197 #
straight-curve $-1 -59.268101743179592 34.009676225605837 -5.5190813254765692 0 0 -1 I I #
plane-surface $-1 69.428388317514575 0 0 -1 0 0 0 0 1 forward_v I I I I #
coedge $-1 $419 $308 $314 $415 forward $196 $-1 #
coedge $-1 $308 $419 $410 $463 forward $196 $-1 #
coedge $-1 $310 $309 $409 $463 reversed $116 $-1 #
edge $-1 $320 2.8860121779491505 $412 8.1521504730039887 $309 $464 forward 7 unknown #
vertex $-1 $312 $465 #
straight-curve $-1 59.268101743179599 0 -13.671231798480557 0 1 0 I I #
straight-curve $-1 59.268101743179599 0 -8.4050935034257197 0 -1 0 I I #
edge $-1 $315 59.268101743179599 $423 69.428388317514575 $314 $466 forward 7 unknown #
point $-1 59.268101743179599 34.009676225605837 -13.671231798480557 #
point $-1 59.268101743179599 34.009676225605837 -8.4050935034257197 #
point $-1 59.268101743179599 -34.009676225605837 -8.4050935034257197 #
coedge $-1 $409 $408 $322 $420 forward $196 $-1 #
edge $-1 $423 -34.009676225605837 $421 34.009676225605837 $322 $467 forward 7 unknown #
vertex $-1 $323 $468 #
straight-curve $-1 69.428388317514575 -34.009676225605837 0 0 0 -1 I I #
vertex $-1 $420 $469 #
straight-curve $-1 69.428388317514575 34.009676225605837 0 0 0 -1 I I #
coedge $-1 $338 $337 $330 $426 forward $327 $-1 #
edge $-1 $427 21.535935777333272 $430 25.913415426996316 $425 $470 forward 7 unknown #
vertex $-1 $426 $471 #
straight-curve $-1 -49.189853617014407 34.009676225605837 70.609836475195621 0 0 1 I I #
edge $-1 $430 -31.991818152653622 $339 -2.4042527760679455 $338 $472 forward 7 unknown #
vertex $-1 $429 $473 #
straight-curve $-1 -49.189853617014407 -4.0262621495785709 63.571950519410734 0 0.55919289150049634 -0.82903758062907751 I I #
point $-1 -49.189853617014407 34.009676225605837 7.1813511273017312 #
point $-1 -19.602288240428731 29.632196575942793 13.671231798480555 #
straight-curve $-1 0 34.009676225605837 13.671231798480557 -1 0 0 I I #
vertex $-1 $345 $474 #
point $-1 -33.396070928721571 30.805936534381388 9.7416654297381022 #
edge $-1 $438 26.687862915692214 $441 30.812418806005809 $350 $475 forward 7 unknown #
vertex $-1 $354 $476 #
straight-curve $-1 -41.069301765188698 -34.009676225605837 59.12160726497514 0 0 1 I I #
edge $-1 $441 15.984950888096627 $361 34.183750866087514 $360 $477 forward 7 unknown #
vertex $-1 $440 $478 #
straight-curve $-1 -41.069301765188698 -34.009676225605844 10.331232225812514 0 -0.77714595512881146 -0.62932039886446345 I I #
point $-1 -41.069301765188698 -34.009676225605837 10.331232225812519 #
point $-1 -59.268101743179585 -29.885120335292243 13.671231798480557 #
straight-curve $-1 0 -34.009676225605837 13.671231798480557 1 0 0 I I #
vertex $-1 $367 $479 #
point $-1 -53.068444606610768 -30.856386757334477 10.65394501220613 #
vertex $-1 $371 $480 #
point $-1 -45.268958901757529 -30.856386757334477 10.65394501220613 #
straight-curve $-1 -69.428388317514575 34.009676225605837 0 0 0 -1 I I #
point $-1 -69.428388317514575 -34.009676225605837 -13.671231798480557 #
straight-curve $-1 -69.428388317514575 0 -13.671231798480557 0 1 0 I I #
point $-1 -69.428388317514575 34.009676225605837 -13.671231798480557 #
coedge $-1 $400 $399 $392 $455 reversed $284 $-1 #
edge $-1 $456 -34.009676225605837 $458 34.009676225605837 $454 $481 forward 7 unknown #
vertex $-1 $455 $482 #
straight-curve $-1 0 -34.009676225605837 -13.671231798480557 -1 0 0 I I #
vertex $-1 $395 $483 #
straight-curve $-1 0 34.009676225605837 -13.671231798480557 1 0 0 I I #
point $-1 -59.268101743179592 34.009676225605837 -13.671231798480557 #
straight-curve $-1 -69.428388317514575 34.009676225605837 0 0 0 -1 I I #
straight-curve $-1 -69.428388317514575 -34.009676225605837 0 0 0 -1 I I #
edge $-1 $421 -69.428388317514575 $412 -59.268101743179599 $410 $484 forward 7 unknown #
straight-curve $-1 59.268101743179599 -34.009676225605837 -5.5190813254765692 0 0 -1 I I #
point $-1 59.268101743179599 -34.009676225605837 -13.671231798480557 #
straight-curve $-1 0 34.009676225605837 -13.671231798480557 1 0 0 I I #
straight-curve $-1 69.428388317514575 0 -13.671231798480557 0 -1 0 I I #
point $-1 69.428388317514575 -34.009676225605837 -13.671231798480557 #
point $-1 69.428388317514575 34.009676225605837 -13.671231798480557 #
straight-curve $-1 -49.189853617014407 55.545612002939109 13.671231798480555 0 -1 0 I I #
point $-1 -49.189853617014407 34.009676225605837 13.671231798480557 #
straight-curve $-1 -17.198035464360785 29.6321965759428 13.671231798480555 1 0 0 I I #
point $-1 -49.189853617014407 29.632196575942793 13.671231798480555 #
point $-1 -34.396070928721571 29.976898953752311 9.1824725382376045 #
straight-curve $-1 -41.069301765188698 -60.697539141298051 13.671231798480555 0 1 0 I I #
point $-1 -41.069301765188698 -34.009676225605837 13.671231798480557 #
straight-curve $-1 -25.084350877092071 -29.885120335292243 13.671231798480557 -1 0 0 I I #
point $-1 -41.069301765188698 -29.885120335292243 13.671231798480557 #
point $-1 -54.068444606610768 -30.227066358470012 9.8767990570773172 #
point $-1 -46.268958901757529 -30.227066358470012 9.8767990570773172 #
straight-curve $-1 -69.428388317514575 0 -13.671231798480557 0 1 0 I I #
point $-1 -69.428388317514575 -34.009676225605837 -13.671231798480557 #
point $-1 -69.428388317514575 34.009676225605837 -13.671231798480557 #
straight-curve $-1 0 -34.009676225605837 -13.671231798480557 -1 0 0 I I #
End-of-ACIS-data 