500 0 5 0           
7 Unknown 11 ACIS 5.0 NT 24 Fri Mar 26 20:17:27 1999 
-1 9.9999999999999995e-007 1e-010 
body $-1 $5 $-1 $6 #
body $-1 $7 $-1 $8 #
body $-1 $9 $-1 $10 #
body $-1 $11 $-1 $12 #
body $-1 $13 $-1 $14 #
lump $-1 $-1 $15 $0 #
transform $-1 1 0 0 0 1 0 0 0 1 57.957090975676749 36.244805000066457 13.287143974785556 1 rotate no_reflect no_shear #
lump $-1 $-1 $16 $1 #
transform $-1 1 0 0 0 1 0 0 0 1 57.957090975676749 36.244805000066457 13.287143974785556 1 rotate no_reflect no_shear #
lump $-1 $-1 $17 $2 #
transform $-1 1 0 0 0 1 0 0 0 1 57.957090975676749 36.244805000066457 13.287143974785556 1 rotate no_reflect no_shear #
lump $-1 $-1 $18 $3 #
transform $-1 1 0 0 0 1 0 0 0 1 57.957090975676749 36.244805000066457 13.287143974785556 1 rotate no_reflect no_shear #
lump $-1 $-1 $19 $4 #
transform $-1 1 0 0 0 1 0 0 0 1 57.957090975676749 36.244805000066457 13.287143974785556 1 rotate no_reflect no_shear #
shell $-1 $-1 $-1 $20 $-1 $5 #
shell $-1 $-1 $-1 $21 $-1 $7 #
shell $-1 $-1 $-1 $22 $-1 $9 #
shell $-1 $-1 $-1 $23 $-1 $11 #
shell $-1 $-1 $-1 $24 $-1 $13 #
face $-1 $25 $26 $15 $-1 $27 forward single #
face $-1 $28 $29 $16 $-1 $30 forward single #
face $-1 $31 $32 $17 $-1 $33 forward single #
face $-1 $34 $35 $18 $-1 $36 reversed single #
face $-1 $37 $38 $19 $-1 $39 forward single #
face $-1 $40 $41 $15 $-1 $42 reversed single #
loop $-1 $-1 $43 $20 #
plane-surface $-1 0 0 13.287143974785556 0 0 1 1 0 0 forward_v I I I I #
face $-1 $44 $45 $16 $-1 $46 reversed single #
loop $-1 $-1 $47 $21 #
plane-surface $-1 0 -36.244805000066457 0 0 1 0 0 0 1 forward_v I I I I #
face $-1 $48 $49 $17 $-1 $50 reversed single #
loop $-1 $-1 $51 $22 #
plane-surface $-1 0 36.244805000066457 0 0 -1 0 0 0 -1 forward_v I I I I #
face $-1 $52 $53 $18 $-1 $54 reversed single #
loop $-1 $-1 $55 $23 #
plane-surface $-1 21.081448986008482 8.1111025627591076 160.28886894294965 0 -1 0 -0.52991927123019833 0 -0.84804809178421925 forward_v I I I I #
face $-1 $56 $57 $19 $-1 $58 forward single #
loop $-1 $59 $60 $24 #
cone-surface $-1 46.610862947407306 4.3134879462343534 5.0610975790920714 -0.52991927123019833 0 -0.84804809178421925 1.2720721376763289 0 -0.79487890684529749 1 I I 0 1 1.5 forward I I I I #
face $-1 $61 $62 $15 $-1 $63 reversed single #
loop $-1 $-1 $64 $25 #
plane-surface $-1 0 0 -13.287143974785556 0 0 1 1 0 0 forward_v I I I I #
coedge $-1 $65 $66 $67 $68 forward $26 $-1 #
face $-1 $69 $70 $16 $-1 $71 reversed single #
loop $-1 $-1 $72 $28 #
plane-surface $-1 0 0 -13.287143974785556 0 0 1 1 0 0 forward_v I I I I #
coedge $-1 $73 $74 $75 $76 forward $29 $-1 #
face $-1 $77 $78 $17 $-1 $79 reversed single #
loop $-1 $-1 $80 $31 #
plane-surface $-1 0 0 -13.287143974785556 0 0 1 1 0 0 forward_v I I I I #
coedge $-1 $81 $82 $83 $84 forward $32 $-1 #
face $-1 $85 $86 $18 $-1 $87 reversed single #
loop $-1 $-1 $88 $34 #
plane-surface $-1 -40.343709838897375 4.3134879462343534 61.988068128375531 0.52991927123019833 0 0.84804809178421925 0.84804809178421925 0 -0.52991927123019833 forward_v I I I I #
coedge $-1 $89 $90 $91 $92 reversed $35 $-1 #
face $-1 $-1 $93 $19 $-1 $94 forward single #
loop $-1 $95 $96 $37 #
cone-surface $-1 45.048711328851752 4.3134879462343534 2.561132450218361 -0.52991927123019833 0 -0.84804809178421925 0.63603606883816444 0 -0.39743945342264875 1 I I -0.70710678118654724 0.70710678118654768 0.75 forward I I I I #
loop $-1 $-1 $97 $24 #
coedge $-1 $60 $60 $98 $99 reversed $38 $-1 #
face $-1 $100 $101 $15 $-1 $102 reversed single #
loop $-1 $-1 $103 $40 #
plane-surface $-1 0 -36.244805000066457 0 0 1 0 0 0 1 forward_v I I I I #
coedge $-1 $104 $105 $106 $107 forward $41 $-1 #
coedge $-1 $108 $43 $109 $110 forward $26 $-1 #
coedge $-1 $43 $108 $111 $112 forward $26 $-1 #
coedge $-1 $113 $114 $43 $68 reversed $115 $-1 #
edge $-1 $116 -36.244805000066457 $117 36.244805000066457 $67 $118 forward 7 unknown #
face $-1 $119 $120 $16 $-1 $121 reversed single #
loop $-1 $-1 $122 $44 #
plane-surface $-1 -42.956782106718812 -46.87704241371317 0 0 1 0 0 0 1 forward_v I I I I #
coedge $-1 $123 $124 $74 $125 forward $45 $-1 #
coedge $-1 $126 $47 $127 $128 reversed $29 $-1 #
coedge $-1 $47 $126 $72 $125 reversed $29 $-1 #
coedge $-1 $129 $130 $47 $76 reversed $120 $-1 #
edge $-1 $131 -13.287143974785556 $132 13.287143974785556 $75 $133 forward 7 unknown #
face $-1 $134 $135 $17 $-1 $136 reversed single #
loop $-1 $-1 $137 $48 #
plane-surface $-1 -46.18203791384952 41.560923706889817 0 1 0 0 0 0 -1 forward_v I I I I #
coedge $-1 $138 $139 $82 $140 forward $49 $-1 #
coedge $-1 $141 $51 $142 $143 reversed $32 $-1 #
coedge $-1 $51 $141 $80 $140 reversed $32 $-1 #
coedge $-1 $144 $145 $51 $84 reversed $146 $-1 #
edge $-1 $147 -13.287143974785556 $148 13.287143974785556 $83 $149 forward 7 unknown #
face $-1 $150 $151 $18 $-1 $152 forward single #
loop $-1 $-1 $153 $52 #
plane-surface $-1 21.081448986008482 0.5158733297095992 160.28886894294965 0 1 0 0.52991927123019833 0 0.84804809178421925 forward_v I I I I #
coedge $-1 $154 $155 $156 $157 reversed $53 $-1 #
coedge $-1 $90 $55 $158 $159 reversed $35 $-1 #
coedge $-1 $55 $89 $154 $160 reversed $35 $-1 #
coedge $-1 $156 $161 $55 $92 forward $151 $-1 #
edge $-1 $162 -47.416366482672508 $163 -27.053334756399423 $91 $164 forward 7 unknown #
loop $-1 $-1 $98 $56 #
plane-surface $-1 -40.343709838897375 4.3134879462343534 61.988068128375531 0.52991927123019833 0 0.84804809178421925 0.84804809178421925 0 -0.52991927123019833 forward_v I I I I #
loop $-1 $-1 $165 $37 #
coedge $-1 $96 $96 $97 $166 reversed $57 $-1 #
coedge $-1 $97 $97 $96 $166 forward $59 $-1 #
coedge $-1 $98 $98 $60 $99 forward $93 $-1 #
edge $-1 $167 0 $167 6.2831853071796004 $98 $168 forward 7 unknown #
face $-1 $169 $170 $15 $-1 $171 reversed single #
loop $-1 $-1 $172 $61 #
plane-surface $-1 -57.957090975676749 0 0 1 0 0 0 0 -1 forward_v I I I I #
coedge $-1 $173 $111 $174 $175 forward $62 $-1 #
coedge $-1 $176 $64 $173 $177 forward $41 $-1 #
coedge $-1 $64 $176 $178 $179 forward $41 $-1 #
coedge $-1 $114 $113 $64 $107 reversed $115 $-1 #
edge $-1 $180 -36.244805000066457 $181 36.244805000066457 $106 $182 forward 7 unknown #
coedge $-1 $66 $65 $183 $184 forward $26 $-1 #
coedge $-1 $185 $186 $65 $110 reversed $170 $-1 #
edge $-1 $117 -57.957090975676749 $187 57.957090975676749 $109 $188 forward 7 unknown #
coedge $-1 $103 $189 $66 $112 reversed $62 $-1 #
edge $-1 $190 -57.957090975676749 $116 57.957090975676749 $111 $191 forward 7 unknown #
coedge $-1 $106 $67 $189 $192 forward $115 $-1 #
coedge $-1 $67 $106 $185 $193 reversed $115 $-1 #
loop $-1 $-1 $113 $169 #
vertex $-1 $68 $194 #
vertex $-1 $68 $195 #
straight-curve $-1 57.957090975676749 0 13.287143974785556 0 1 0 I I #
face $-1 $196 $197 $16 $-1 $198 reversed single #
loop $-1 $-1 $75 $69 #
plane-surface $-1 -46.18203791384952 -41.56092370688981 0 1 0 0 0 0 -1 forward_v I I I I #
coedge $-1 $199 $200 $201 $202 forward $70 $-1 #
coedge $-1 $203 $72 $204 $205 forward $45 $-1 #
coedge $-1 $72 $203 $129 $206 forward $45 $-1 #
edge $-1 $131 -46.18203791384952 $207 -39.731526299588104 $72 $208 forward 7 unknown #
coedge $-1 $74 $73 $209 $210 forward $29 $-1 #
coedge $-1 $211 $212 $73 $128 forward $213 $-1 #
edge $-1 $214 39.731526299588104 $132 46.18203791384952 $127 $215 forward 7 unknown #
coedge $-1 $201 $75 $124 $206 reversed $120 $-1 #
coedge $-1 $75 $201 $211 $216 reversed $120 $-1 #
vertex $-1 $125 $217 #
vertex $-1 $216 $218 #
straight-curve $-1 -46.18203791384952 -36.244805000066457 0 0 0 1 I I #
face $-1 $219 $146 $17 $-1 $220 reversed single #
loop $-1 $-1 $221 $77 #
plane-surface $-1 -42.956782106718812 46.87704241371317 0 0 -1 0 0 0 -1 forward_v I I I I #
coedge $-1 $222 $223 $224 $225 forward $78 $-1 #
coedge $-1 $226 $80 $222 $227 forward $49 $-1 #
coedge $-1 $80 $226 $144 $228 forward $49 $-1 #
edge $-1 $147 39.731526299588104 $229 46.18203791384952 $80 $230 forward 7 unknown #
coedge $-1 $82 $81 $231 $232 forward $32 $-1 #
coedge $-1 $233 $234 $81 $143 forward $235 $-1 #
edge $-1 $236 -46.18203791384952 $148 -39.731526299588104 $142 $237 forward 7 unknown #
coedge $-1 $238 $83 $139 $228 reversed $146 $-1 #
coedge $-1 $83 $238 $233 $239 reversed $146 $-1 #
loop $-1 $-1 $83 $134 #
vertex $-1 $140 $240 #
vertex $-1 $239 $241 #
straight-curve $-1 -39.731526299588104 36.244805000066457 0 0 0 1 I I #
face $-1 $-1 $242 $18 $-1 $243 reversed single #
loop $-1 $-1 $91 $85 #
plane-surface $-1 0 0 13.287143974785556 0 0 1 1 0 0 forward_v I I I I #
coedge $-1 $244 $245 $246 $247 reversed $86 $-1 #
coedge $-1 $248 $88 $90 $160 forward $53 $-1 #
coedge $-1 $88 $248 $244 $249 forward $53 $-1 #
coedge $-1 $246 $91 $88 $157 forward $151 $-1 #
edge $-1 $163 -5.9543585896419309 $250 1.6408706434075775 $156 $251 forward 7 unknown #
coedge $-1 $252 $253 $89 $159 forward $242 $-1 #
edge $-1 $254 -79.581525168005157 $162 -66.857290496689274 $158 $255 forward 7 unknown #
edge $-1 $163 91.902534588960364 $254 115.91418195135353 $90 $256 forward 7 unknown #
coedge $-1 $91 $246 $252 $257 forward $151 $-1 #
vertex $-1 $92 $258 #
vertex $-1 $92 $259 #
straight-curve $-1 10.540724493004241 8.1111025627591076 13.28714397478555 -1 0 0 I I #
coedge $-1 $165 $165 $-1 $260 reversed $95 $-1 #
edge $-1 $261 0 $261 6.2831853071796004 $96 $262 forward 7 unknown #
vertex $-1 $99 $263 #
ellipse-curve $-1 47.77557511254021 4.3134879462343534 6.9250266391276192 0.52991927123019833 0 0.84804809178421925 1.2720721376763289 0 -0.79487890684529749 1 I I #
face $-1 $-1 $115 $15 $-1 $264 reversed single #
loop $-1 $-1 $185 $100 #
plane-surface $-1 0 36.244805000066457 0 0 -1 0 0 0 -1 forward_v I I I I #
coedge $-1 $265 $183 $186 $266 forward $101 $-1 #
coedge $-1 $189 $103 $104 $177 reversed $62 $-1 #
coedge $-1 $183 $265 $103 $175 reversed $101 $-1 #
edge $-1 $190 -13.287143974785556 $267 13.287143974785556 $174 $268 forward 7 unknown #
coedge $-1 $105 $104 $265 $269 forward $41 $-1 #
edge $-1 $181 -57.957090975676749 $267 57.957090975676749 $173 $270 forward 7 unknown #
coedge $-1 $186 $185 $105 $179 reversed $170 $-1 #
edge $-1 $271 -57.957090975676749 $180 57.957090975676749 $178 $272 forward 7 unknown #
vertex $-1 $107 $273 #
vertex $-1 $192 $274 #
straight-curve $-1 57.957090975676749 0 -13.287143974785556 0 -1 0 I I #
coedge $-1 $172 $174 $108 $184 reversed $101 $-1 #
edge $-1 $187 -36.244805000066457 $190 36.244805000066457 $183 $275 forward 7 unknown #
coedge $-1 $178 $109 $114 $193 forward $170 $-1 #
coedge $-1 $109 $178 $172 $266 reversed $170 $-1 #
vertex $-1 $110 $276 #
straight-curve $-1 0 36.244805000066457 13.287143974785556 -1 0 0 I I #
coedge $-1 $111 $173 $113 $192 reversed $62 $-1 #
vertex $-1 $184 $277 #
straight-curve $-1 0 -36.244805000066457 13.287143974785556 1 0 0 I I #
edge $-1 $116 -13.287143974785556 $181 13.287143974785556 $113 $278 forward 7 unknown #
edge $-1 $117 -13.287143974785556 $180 13.287143974785556 $114 $279 forward 7 unknown #
point $-1 57.957090975676749 -36.244805000066457 13.287143974785556 #
point $-1 57.957090975676749 36.244805000066457 13.287143974785556 #
face $-1 $-1 $213 $16 $-1 $280 forward single #
loop $-1 $-1 $281 $119 #
plane-surface $-1 -39.731526299588104 -41.56092370688981 0 -1 0 0 0 0 1 forward_v I I I I #
coedge $-1 $282 $122 $203 $283 reversed $70 $-1 #
coedge $-1 $122 $282 $284 $285 reversed $70 $-1 #
coedge $-1 $130 $129 $122 $202 reversed $120 $-1 #
edge $-1 $286 -13.287143974785556 $287 13.287143974785556 $201 $288 forward 7 unknown #
coedge $-1 $124 $123 $199 $283 forward $45 $-1 #
coedge $-1 $209 $281 $123 $205 reversed $197 $-1 #
edge $-1 $207 -5.3161187068233602 $289 5.3161187068233602 $204 $290 forward 7 unknown #
edge $-1 $287 -5.3161187068233602 $131 5.3161187068233602 $129 $291 forward 7 unknown #
vertex $-1 $205 $292 #
straight-curve $-1 0 -36.244805000066457 -13.287143974785556 1 0 0 I I #
coedge $-1 $293 $204 $126 $210 reversed $197 $-1 #
edge $-1 $214 -13.287143974785556 $207 13.287143974785556 $209 $294 forward 7 unknown #
coedge $-1 $284 $127 $130 $216 forward $213 $-1 #
coedge $-1 $127 $284 $293 $295 forward $213 $-1 #
loop $-1 $-1 $127 $196 #
vertex $-1 $128 $296 #
straight-curve $-1 0 -36.244805000066457 13.287143974785556 -1 0 0 I I #
edge $-1 $132 -5.3161187068233602 $286 5.3161187068233602 $130 $297 forward 7 unknown #
point $-1 -46.18203791384952 -36.244805000066449 -13.287143974785556 #
point $-1 -46.18203791384952 -36.244805000066449 13.287143974785556 #
face $-1 $-1 $235 $17 $-1 $298 forward single #
plane-surface $-1 -39.731526299588104 41.560923706889817 0 -1 0 0 0 0 1 forward_v I I I I #
coedge $-1 $299 $300 $238 $301 forward $135 $-1 #
coedge $-1 $231 $137 $138 $227 reversed $78 $-1 #
coedge $-1 $137 $231 $234 $302 reversed $78 $-1 #
coedge $-1 $300 $299 $137 $225 reversed $135 $-1 #
edge $-1 $303 -13.287143974785556 $304 13.287143974785556 $224 $305 forward 7 unknown #
coedge $-1 $139 $138 $299 $306 forward $49 $-1 #
edge $-1 $229 -5.3161187068233531 $304 5.3161187068233531 $222 $307 forward 7 unknown #
edge $-1 $308 -5.3161187068233531 $147 5.3161187068233531 $144 $309 forward 7 unknown #
vertex $-1 $227 $310 #
straight-curve $-1 0 36.244805000066457 -13.287143974785556 -1 0 0 I I #
coedge $-1 $223 $222 $141 $232 reversed $78 $-1 #
edge $-1 $236 -13.287143974785556 $229 13.287143974785556 $231 $311 forward 7 unknown #
coedge $-1 $312 $142 $145 $239 forward $235 $-1 #
coedge $-1 $142 $312 $223 $302 forward $235 $-1 #
loop $-1 $-1 $142 $219 #
vertex $-1 $143 $313 #
straight-curve $-1 0 36.244805000066457 13.287143974785556 1 0 0 I I #
coedge $-1 $145 $144 $221 $301 reversed $146 $-1 #
edge $-1 $148 -5.3161187068233531 $314 5.3161187068233531 $145 $315 forward 7 unknown #
point $-1 -39.731526299588104 36.244805000066464 -13.287143974785556 #
point $-1 -39.731526299588104 36.244805000066464 13.287143974785556 #
loop $-1 $-1 $158 $150 #
plane-surface $-1 57.957090975676749 0 0 -1 0 0 0 0 1 forward_v I I I I #
coedge $-1 $245 $153 $155 $249 reversed $86 $-1 #
coedge $-1 $153 $244 $316 $317 reversed $86 $-1 #
coedge $-1 $161 $156 $153 $247 forward $151 $-1 #
edge $-1 $250 27.053334756399423 $318 47.416366482672508 $246 $319 forward 7 unknown #
coedge $-1 $155 $154 $253 $320 reversed $53 $-1 #
edge $-1 $321 -115.91418195135353 $250 -91.902534588960364 $244 $322 forward 7 unknown #
vertex $-1 $157 $323 #
straight-curve $-1 37.594059249403671 2.1567439731171767 13.287143974785558 0 -1 0 I I #
coedge $-1 $316 $158 $161 $257 reversed $242 $-1 #
coedge $-1 $158 $316 $248 $320 forward $242 $-1 #
vertex $-1 $159 $324 #
straight-curve $-1 57.957090975676749 8.1111025627591076 80.144434471474824 0 0 1 I I #
straight-curve $-1 -40.343709838897375 8.1111025627591076 61.988068128375531 0.84804809178421925 0 -0.52991927123019833 I I #
edge $-1 $318 0.5158733297095992 $162 8.1111025627591076 $252 $325 forward 7 unknown #
point $-1 57.957090975676749 8.1111025627591076 13.287143974785556 #
point $-1 37.594059249403664 8.1111025627591076 13.287143974785558 #
edge $-1 $326 1 $326 0 $165 $-1 forward 7 unknown #
vertex $-1 $166 $327 #
ellipse-curve $-1 45.446150782274401 4.3134879462343534 3.1971685190565258 0.52991927123019833 0 0.84804809178421925 1.2720721376763289 0 -0.79487890684529749 1 I I #
point $-1 49.047647250216535 4.3134879462343534 6.1301477322823201 #
plane-surface $-1 57.957090975676749 0 0 -1 0 0 0 0 1 forward_v I I I I #
coedge $-1 $174 $172 $176 $269 reversed $101 $-1 #
edge $-1 $187 -13.287143974785556 $271 13.287143974785556 $186 $328 forward 7 unknown #
vertex $-1 $269 $329 #
straight-curve $-1 -57.957090975676749 -36.244805000066457 0 0 0 -1 I I #
edge $-1 $267 -36.244805000066457 $271 36.244805000066457 $265 $330 forward 7 unknown #
straight-curve $-1 0 -36.244805000066457 -13.287143974785556 -1 0 0 I I #
vertex $-1 $179 $331 #
straight-curve $-1 0 36.244805000066457 -13.287143974785556 1 0 0 I I #
point $-1 57.957090975676749 36.244805000066457 -13.287143974785556 #
point $-1 57.957090975676749 -36.244805000066457 -13.287143974785556 #
straight-curve $-1 -57.957090975676749 0 13.287143974785556 0 -1 0 I I #
point $-1 -57.957090975676749 36.244805000066457 13.287143974785556 #
point $-1 -57.957090975676749 -36.244805000066457 13.287143974785556 #
straight-curve $-1 57.957090975676749 -36.244805000066457 0 0 0 -1 I I #
straight-curve $-1 57.957090975676749 36.244805000066457 0 0 0 -1 I I #
plane-surface $-1 0 0 13.287143974785556 0 0 1 1 0 0 forward_v I I I I #
coedge $-1 $204 $293 $282 $332 forward $197 $-1 #
coedge $-1 $200 $199 $281 $332 reversed $70 $-1 #
edge $-1 $289 -3.2252558071307078 $287 3.2252558071307078 $199 $333 forward 7 unknown #
coedge $-1 $212 $211 $200 $285 forward $213 $-1 #
edge $-1 $286 -3.2252558071307078 $334 3.2252558071307078 $200 $335 forward 7 unknown #
vertex $-1 $216 $336 #
vertex $-1 $206 $337 #
straight-curve $-1 -46.18203791384952 -46.87704241371317 0 0 0 -1 I I #
vertex $-1 $332 $338 #
straight-curve $-1 -39.731526299588104 -41.56092370688981 -13.287143974785556 0 -1 0 I I #
straight-curve $-1 -46.18203791384952 -41.56092370688981 -13.287143974785556 0 1 0 I I #
point $-1 -39.731526299588104 -36.244805000066449 -13.287143974785556 #
coedge $-1 $281 $209 $212 $295 reversed $197 $-1 #
straight-curve $-1 -39.731526299588104 -36.244805000066457 0 0 0 -1 I I #
edge $-1 $334 -5.3161187068233602 $214 5.3161187068233602 $293 $339 forward 7 unknown #
point $-1 -39.731526299588104 -36.244805000066449 13.287143974785556 #
straight-curve $-1 -46.18203791384952 -41.56092370688981 13.287143974785556 0 -1 0 I I #
plane-surface $-1 0 0 13.287143974785556 0 0 1 1 0 0 forward_v I I I I #
coedge $-1 $224 $221 $226 $306 reversed $135 $-1 #
coedge $-1 $221 $224 $312 $340 reversed $135 $-1 #
edge $-1 $314 -13.287143974785556 $308 13.287143974785556 $238 $341 forward 7 unknown #
edge $-1 $303 -5.3161187068233531 $236 5.3161187068233531 $223 $342 forward 7 unknown #
vertex $-1 $340 $343 #
vertex $-1 $306 $344 #
straight-curve $-1 -46.18203791384952 46.87704241371317 0 0 0 -1 I I #
edge $-1 $304 -3.2252558071307078 $308 3.2252558071307078 $299 $345 forward 7 unknown #
straight-curve $-1 -46.18203791384952 41.560923706889817 -13.287143974785556 0 1 0 I I #
vertex $-1 $228 $346 #
straight-curve $-1 -39.731526299588104 41.560923706889817 -13.287143974785556 0 -1 0 I I #
point $-1 -46.18203791384952 36.244805000066464 -13.287143974785556 #
straight-curve $-1 -46.18203791384952 36.244805000066457 0 0 0 -1 I I #
coedge $-1 $234 $233 $300 $340 forward $235 $-1 #
point $-1 -46.18203791384952 36.244805000066464 13.287143974785556 #
vertex $-1 $239 $347 #
straight-curve $-1 -39.731526299588104 41.560923706889817 13.287143974785556 0 1 0 I I #
coedge $-1 $253 $252 $245 $317 forward $242 $-1 #
edge $-1 $318 66.857290496689274 $321 79.581525168005157 $316 $348 forward 7 unknown #
vertex $-1 $257 $349 #
straight-curve $-1 10.540724493004241 0.5158733297095992 13.28714397478555 1 0 0 I I #
edge $-1 $321 -1.6408706434075775 $254 5.9543585896419309 $253 $350 forward 7 unknown #
vertex $-1 $320 $351 #
straight-curve $-1 -40.343709838897375 0.5158733297095992 61.988068128375531 -0.84804809178421925 0 0.52991927123019833 I I #
point $-1 37.594059249403664 0.5158733297095992 13.287143974785558 #
point $-1 57.957090975676756 8.1111025627591076 0.56290930346966661 #
straight-curve $-1 57.957090975676749 0 13.287143974785556 0 1 0 I I #
vertex $-1 $260 $352 #
point $-1 46.718222919950733 4.3134879462343534 2.4022896122112281 #
straight-curve $-1 -57.957090975676749 36.244805000066457 0 0 0 -1 I I #
point $-1 -57.957090975676749 -36.244805000066457 -13.287143974785556 #
straight-curve $-1 -57.957090975676749 0 -13.287143974785556 0 1 0 I I #
point $-1 -57.957090975676749 36.244805000066457 -13.287143974785556 #
edge $-1 $334 -13.287143974785556 $289 13.287143974785556 $281 $353 forward 7 unknown #
straight-curve $-1 -42.956782106718812 -46.87704241371317 -13.287143974785556 -1 0 0 I I #
vertex $-1 $295 $354 #
straight-curve $-1 -42.956782106718812 -46.87704241371317 13.287143974785556 1 0 0 I I #
point $-1 -46.18203791384952 -46.87704241371317 13.287143974785556 #
point $-1 -46.18203791384952 -46.87704241371317 -13.287143974785556 #
point $-1 -39.731526299588104 -46.87704241371317 -13.287143974785556 #
straight-curve $-1 -39.731526299588104 -41.56092370688981 13.287143974785556 0 1 0 I I #
edge $-1 $314 -3.2252558071307078 $303 3.2252558071307078 $300 $355 forward 7 unknown #
straight-curve $-1 -39.731526299588104 46.87704241371317 0 0 0 -1 I I #
straight-curve $-1 -46.18203791384952 41.560923706889817 13.287143974785556 0 -1 0 I I #
point $-1 -46.18203791384952 46.87704241371317 13.287143974785556 #
point $-1 -46.18203791384952 46.87704241371317 -13.287143974785556 #
straight-curve $-1 -42.956782106718812 46.87704241371317 -13.287143974785556 1 0 0 I I #
point $-1 -39.731526299588104 46.87704241371317 -13.287143974785556 #
point $-1 -39.731526299588104 46.87704241371317 13.287143974785556 #
straight-curve $-1 57.957090975676749 0.5158733297095992 80.144434471474824 0 0 -1 I I #
point $-1 57.957090975676749 0.5158733297095992 13.287143974785556 #
straight-curve $-1 57.957090975676749 2.1567439731171767 0.56290930346967372 0 1 0 I I #
point $-1 57.957090975676756 0.5158733297095992 0.56290930346966661 #
point $-1 44.651271875429103 4.3134879462343534 1.9250963813801962 #
straight-curve $-1 -39.731526299588104 -46.87704241371317 0 0 0 -1 I I #
point $-1 -39.731526299588104 -46.87704241371317 13.287143974785556 #
straight-curve $-1 -42.956782106718812 46.87704241371317 13.287143974785556 -1 0 0 I I #
End-of-ACIS-data 