500 0 4 0           
7 Unknown 11 ACIS 5.0 NT 24 Fri Mar 26 19:03:26 1999 
-1 9.9999999999999995e-007 1e-010 
body $-1 $4 $-1 $5 #
body $-1 $6 $-1 $7 #
body $-1 $8 $-1 $9 #
body $-1 $10 $-1 $11 #
lump $-1 $-1 $12 $0 #
transform $-1 1 0 0 0 1 0 0 0 1 46.688436536759546 32.08303629027985 8.4666043002312961 1 rotate no_reflect no_shear #
lump $-1 $-1 $13 $1 #
transform $-1 1 0 0 0 1 0 0 0 1 46.688436536759546 32.08303629027985 8.4666043002312961 1 rotate no_reflect no_shear #
lump $-1 $-1 $14 $2 #
transform $-1 1 0 0 0 1 0 0 0 1 46.688436536759546 32.08303629027985 8.4666043002312961 1 rotate no_reflect no_shear #
lump $-1 $-1 $15 $3 #
transform $-1 1 0 0 0 1 0 0 0 1 46.688436536759546 32.08303629027985 8.4666043002312961 1 rotate no_reflect no_shear #
shell $-1 $-1 $-1 $16 $-1 $4 #
shell $-1 $-1 $-1 $17 $-1 $6 #
shell $-1 $-1 $-1 $18 $-1 $8 #
shell $-1 $-1 $-1 $19 $-1 $10 #
face $-1 $20 $21 $12 $-1 $22 forward single #
face $-1 $23 $24 $13 $-1 $25 reversed single #
face $-1 $26 $27 $14 $-1 $28 forward single #
face $-1 $29 $30 $15 $-1 $31 reversed single #
face $-1 $32 $33 $12 $-1 $34 reversed single #
loop $-1 $-1 $35 $16 #
plane-surface $-1 0 0 8.4666043002312961 0 0 1 1 0 0 forward_v I I I I #
face $-1 $36 $37 $13 $-1 $38 forward single #
loop $-1 $-1 $39 $17 #
plane-surface $-1 -43.730230781395463 0 6.0145576841560846 0 0 1 1 0 0 forward_v I I I I #
face $-1 $40 $41 $14 $-1 $42 forward single #
loop $-1 $-1 $43 $18 #
plane-surface $-1 -40.772025026031372 -85.641811075653166 79.705054143103567 1 0 0 0 0.57357644374324357 -0.81915203911291934 forward_v I I I I #
face $-1 $44 $45 $15 $-1 $46 reversed single #
loop $-1 $47 $48 $19 #
cone-surface $-1 -36.032525878292191 -27.671216724267307 4.8955714772436458 0 0.57357644374324357 -0.81915203911291934 1.5 0 0 1 I I 0 1 1.5 forward I I I I #
face $-1 $49 $50 $12 $-1 $51 reversed single #
loop $-1 $-1 $52 $20 #
plane-surface $-1 0 0 -8.4666043002312961 0 0 1 1 0 0 forward_v I I I I #
coedge $-1 $53 $54 $55 $56 forward $21 $-1 #
face $-1 $57 $58 $13 $-1 $59 forward single #
loop $-1 $-1 $60 $23 #
plane-surface $-1 -43.730230781395463 0 1.6334833547349668 0 0 1 1 0 0 forward_v I I I I #
coedge $-1 $61 $62 $63 $64 reversed $24 $-1 #
face $-1 $65 $66 $14 $-1 $67 forward single #
loop $-1 $-1 $68 $26 #
plane-surface $-1 -36.032525878292191 -32.08303629027985 3.2151981589421439 0 -0.57357644374324357 0.81915203911291934 1 0 0 forward_v I I I I #
coedge $-1 $69 $70 $71 $72 forward $27 $-1 #
face $-1 $73 $74 $15 $-1 $75 forward single #
loop $-1 $76 $77 $29 #
cone-surface $-1 -36.032525878292191 -26.579107360061883 3.3358776955658751 0 0.57357644374324357 -0.81915203911291934 0.75 0 0 1 I I -0.70710678118654757 0.70710678118654757 0.75 forward I I I I #
loop $-1 $-1 $78 $19 #
coedge $-1 $48 $48 $79 $80 reversed $30 $-1 #
face $-1 $81 $82 $12 $-1 $83 reversed single #
loop $-1 $-1 $84 $32 #
plane-surface $-1 0 -32.08303629027985 0 0 1 0 0 0 1 forward_v I I I I #
coedge $-1 $85 $86 $87 $88 forward $33 $-1 #
coedge $-1 $89 $35 $90 $91 forward $21 $-1 #
coedge $-1 $35 $89 $92 $93 forward $21 $-1 #
coedge $-1 $94 $95 $35 $56 reversed $96 $-1 #
edge $-1 $97 -32.08303629027985 $98 32.08303629027985 $55 $99 forward 7 unknown #
face $-1 $100 $101 $13 $-1 $102 reversed single #
loop $-1 $-1 $103 $36 #
plane-surface $-1 -40.772025026031379 0 3.8240205194455257 -1 0 0 0 0 1 forward_v I I I I #
coedge $-1 $104 $105 $106 $107 reversed $37 $-1 #
coedge $-1 $108 $39 $109 $110 reversed $24 $-1 #
coedge $-1 $39 $108 $111 $112 reversed $24 $-1 #
coedge $-1 $113 $103 $39 $64 forward $58 $-1 #
edge $-1 $114 -32.08303629027985 $115 32.08303629027985 $63 $116 forward 7 unknown #
face $-1 $117 $118 $14 $-1 $119 forward single #
loop $-1 $-1 $120 $40 #
plane-surface $-1 -31.293026730553009 -85.641811075653166 79.705054143103567 -1 0 0 0 -0.57357644374324357 0.81915203911291934 forward_v I I I I #
coedge $-1 $121 $122 $123 $124 reversed $41 $-1 #
coedge $-1 $125 $43 $126 $127 forward $27 $-1 #
coedge $-1 $43 $125 $128 $129 reversed $27 $-1 #
coedge $-1 $130 $131 $43 $72 reversed $132 $-1 #
edge $-1 $133 -32.08303629027985 $134 -28.085136640977552 $71 $135 forward 7 unknown #
face $-1 $136 $137 $15 $-1 $138 forward single #
loop $-1 $-1 $139 $44 #
plane-surface $-1 -40.772025026031372 -85.641811075653166 79.705054143103567 1 0 0 0 0.57357644374324357 -0.81915203911291934 forward_v I I I I #
loop $-1 $-1 $140 $29 #
coedge $-1 $77 $77 $78 $141 forward $45 $-1 #
coedge $-1 $78 $78 $77 $141 reversed $47 $-1 #
coedge $-1 $79 $79 $48 $80 forward $137 $-1 #
edge $-1 $142 1.1632797024658986e-015 $142 6.2831853071796013 $79 $143 forward 7 unknown #
face $-1 $144 $145 $12 $-1 $146 reversed single #
loop $-1 $-1 $147 $49 #
plane-surface $-1 -46.688436536759546 0 0 1 0 0 0 0 -1 forward_v I I I I #
coedge $-1 $148 $92 $149 $150 forward $50 $-1 #
coedge $-1 $151 $52 $148 $152 forward $33 $-1 #
coedge $-1 $52 $151 $153 $154 forward $33 $-1 #
coedge $-1 $95 $94 $52 $88 reversed $96 $-1 #
edge $-1 $155 -32.08303629027985 $156 32.08303629027985 $87 $157 forward 7 unknown #
coedge $-1 $54 $53 $158 $159 forward $21 $-1 #
coedge $-1 $160 $161 $53 $91 reversed $145 $-1 #
edge $-1 $98 -46.688436536759546 $162 46.688436536759546 $90 $163 forward 7 unknown #
coedge $-1 $84 $164 $54 $93 reversed $50 $-1 #
edge $-1 $165 -46.688436536759546 $97 46.688436536759546 $92 $166 forward 7 unknown #
coedge $-1 $87 $55 $164 $167 forward $96 $-1 #
coedge $-1 $55 $87 $160 $168 reversed $96 $-1 #
loop $-1 $-1 $94 $144 #
vertex $-1 $56 $169 #
vertex $-1 $56 $170 #
straight-curve $-1 46.688436536759546 0 8.4666043002312961 0 1 0 I I #
face $-1 $171 $172 $13 $-1 $102 reversed single #
loop $-1 $-1 $173 $57 #
plane-surface $-1 -46.688436536759546 0 0 1 0 0 0 0 -1 forward_v I I I I #
coedge $-1 $63 $106 $174 $175 reversed $58 $-1 #
coedge $-1 $176 $60 $177 $178 reversed $37 $-1 #
coedge $-1 $60 $176 $179 $180 reversed $37 $-1 #
coedge $-1 $103 $113 $60 $107 forward $58 $-1 #
edge $-1 $181 -32.08303629027985 $182 32.08303629027985 $106 $183 forward 7 unknown #
coedge $-1 $62 $61 $184 $185 reversed $24 $-1 #
coedge $-1 $174 $186 $61 $110 forward $187 $-1 #
edge $-1 $188 -24.823321146061815 $114 -18.906909635333648 $109 $189 forward 7 unknown #
coedge $-1 $190 $191 $62 $112 forward $192 $-1 #
edge $-1 $115 18.906909635333648 $193 24.823321146061815 $111 $194 forward 7 unknown #
coedge $-1 $106 $63 $191 $195 reversed $58 $-1 #
vertex $-1 $110 $196 #
vertex $-1 $112 $197 #
straight-curve $-1 -40.772025026031379 0 6.0145576841560846 0 1 0 I I #
face $-1 $198 $199 $14 $-1 $200 reversed single #
loop $-1 $-1 $201 $65 #
plane-surface $-1 -40.772025026031379 0 3.8240205194455257 -1 0 0 0 0 1 forward_v I I I I #
coedge $-1 $202 $203 $204 $205 reversed $66 $-1 #
coedge $-1 $206 $68 $203 $207 reversed $41 $-1 #
coedge $-1 $68 $126 $201 $208 reversed $41 $-1 #
coedge $-1 $209 $204 $68 $124 forward $210 $-1 #
edge $-1 $211 13.276763791406914 $212 22.755762086885284 $123 $213 forward 7 unknown #
coedge $-1 $70 $69 $214 $215 reversed $27 $-1 #
coedge $-1 $122 $206 $69 $127 reversed $41 $-1 #
edge $-1 $134 4.8805343311257889 $216 9.1555470915397237 $69 $217 forward 7 unknown #
coedge $-1 $218 $219 $70 $129 forward $199 $-1 #
edge $-1 $133 -33.837969387395702 $220 -31.385922771320487 $128 $221 forward 7 unknown #
coedge $-1 $222 $71 $219 $223 reversed $132 $-1 #
coedge $-1 $71 $224 $225 $226 reversed $132 $-1 #
loop $-1 $-1 $71 $198 #
vertex $-1 $223 $227 #
vertex $-1 $226 $228 #
straight-curve $-1 -40.772025026031379 0 6.0145576841560846 0 1 0 I I #
face $-1 $229 $230 $15 $-1 $231 forward single #
loop $-1 $232 $79 $73 #
plane-surface $-1 -36.032525878292191 -32.08303629027985 3.2151981589421439 0 -0.57357644374324357 0.81915203911291934 1 0 0 forward_v I I I I #
coedge $-1 $233 $234 $235 $236 forward $74 $-1 #
coedge $-1 $140 $140 $-1 $237 forward $76 $-1 #
edge $-1 $238 0 $238 6.2831853071796004 $77 $239 forward 7 unknown #
vertex $-1 $80 $240 #
ellipse-curve $-1 -36.032525878292191 -28.33314375566529 5.8409012295867182 0 0.57357644374324357 -0.81915203911291934 1.5 0 0 1 I I #
face $-1 $-1 $96 $12 $-1 $241 reversed single #
loop $-1 $-1 $160 $81 #
plane-surface $-1 0 32.08303629027985 0 0 -1 0 0 0 -1 forward_v I I I I #
coedge $-1 $242 $158 $161 $243 forward $82 $-1 #
coedge $-1 $164 $84 $85 $152 reversed $50 $-1 #
coedge $-1 $158 $242 $84 $150 reversed $82 $-1 #
edge $-1 $165 -8.4666043002312961 $244 8.4666043002312961 $149 $245 forward 7 unknown #
coedge $-1 $86 $85 $242 $246 forward $33 $-1 #
edge $-1 $156 -46.688436536759546 $244 46.688436536759546 $148 $247 forward 7 unknown #
coedge $-1 $161 $160 $86 $154 reversed $145 $-1 #
edge $-1 $248 -46.688436536759546 $155 46.688436536759546 $153 $249 forward 7 unknown #
vertex $-1 $88 $250 #
vertex $-1 $167 $251 #
straight-curve $-1 46.688436536759546 0 -8.4666043002312961 0 -1 0 I I #
coedge $-1 $147 $149 $89 $159 reversed $82 $-1 #
edge $-1 $162 -32.08303629027985 $165 32.08303629027985 $158 $252 forward 7 unknown #
coedge $-1 $153 $90 $95 $168 forward $145 $-1 #
coedge $-1 $90 $153 $147 $243 reversed $145 $-1 #
vertex $-1 $91 $253 #
straight-curve $-1 0 32.08303629027985 8.4666043002312961 -1 0 0 I I #
coedge $-1 $92 $148 $94 $167 reversed $50 $-1 #
vertex $-1 $159 $254 #
straight-curve $-1 0 -32.08303629027985 8.4666043002312961 1 0 0 I I #
edge $-1 $97 -8.4666043002312961 $156 8.4666043002312961 $94 $255 forward 7 unknown #
edge $-1 $98 -8.4666043002312961 $155 8.4666043002312961 $95 $256 forward 7 unknown #
point $-1 46.688436536759546 -32.08303629027985 8.4666043002312961 #
point $-1 46.688436536759546 32.08303629027985 8.4666043002312961 #
face $-1 $257 $187 $13 $-1 $258 reversed single #
loop $-1 $-1 $184 $100 #
coedge $-1 $259 $260 $176 $261 forward $101 $-1 #
coedge $-1 $179 $109 $103 $175 forward $187 $-1 #
edge $-1 $114 -4.1025474244333218 $182 0.27852690498779609 $174 $262 forward 7 unknown #
coedge $-1 $105 $104 $173 $261 reversed $37 $-1 #
coedge $-1 $191 $263 $104 $178 forward $192 $-1 #
edge $-1 $264 -24.823321146061815 $181 -18.906909635333648 $177 $265 forward 7 unknown #
coedge $-1 $266 $174 $105 $180 forward $187 $-1 #
edge $-1 $182 18.906909635333648 $267 24.823321146061815 $179 $268 forward 7 unknown #
vertex $-1 $178 $269 #
vertex $-1 $180 $270 #
straight-curve $-1 -40.772025026031379 0 1.6334833547349668 0 -1 0 I I #
coedge $-1 $271 $272 $108 $185 forward $172 $-1 #
edge $-1 $193 -32.08303629027985 $188 32.08303629027985 $184 $273 forward 7 unknown #
coedge $-1 $109 $274 $271 $275 forward $187 $-1 #
loop $-1 $-1 $109 $171 #
vertex $-1 $110 $276 #
straight-curve $-1 -21.865115390697731 -32.08303629027985 6.0145576841560846 1 0 0 I I #
coedge $-1 $277 $111 $272 $278 reversed $192 $-1 #
coedge $-1 $111 $177 $113 $195 forward $192 $-1 #
loop $-1 $-1 $111 $279 #
vertex $-1 $185 $280 #
straight-curve $-1 -21.865115390697731 32.08303629027985 6.0145576841560846 -1 0 0 I I #
edge $-1 $181 -0.27852690498779609 $115 4.1025474244333218 $191 $281 forward 7 unknown #
point $-1 -40.772025026031379 -32.08303629027985 6.0145576841560846 #
point $-1 -40.772025026031379 32.08303629027985 6.0145576841560846 #
face $-1 $282 $132 $14 $-1 $283 reversed single #
loop $-1 $-1 $128 $117 #
plane-surface $-1 0 -32.08303629027985 0 0 1 0 0 0 1 forward_v I I I I #
coedge $-1 $225 $284 $122 $208 forward $118 $-1 #
coedge $-1 $203 $120 $285 $286 reversed $66 $-1 #
coedge $-1 $120 $202 $121 $207 forward $66 $-1 #
coedge $-1 $123 $287 $120 $205 forward $210 $-1 #
edge $-1 $288 31.385922771320487 $211 36.63732891260964 $204 $289 forward 7 unknown #
coedge $-1 $126 $121 $290 $291 reversed $41 $-1 #
edge $-1 $292 -9.1555470915397237 $211 0 $203 $293 forward 7 unknown #
edge $-1 $212 -13.315045381262713 $134 -8.4345110501369245 $201 $294 forward 7 unknown #
coedge $-1 $295 $123 $284 $296 forward $210 $-1 #
loop $-1 $-1 $123 $297 #
vertex $-1 $124 $298 #
vertex $-1 $296 $299 #
straight-curve $-1 -18.016262939146095 -32.08303629027985 3.2151981589421417 -1 0 0 I I #
coedge $-1 $290 $300 $125 $215 forward $301 $-1 #
edge $-1 $220 10.737869247546733 $216 18.237654316775856 $214 $302 forward 7 unknown #
vertex $-1 $291 $303 #
straight-curve $-1 -40.772025026031372 -32.08303629027985 3.2151981589421439 0 0.81915203911291934 0.57357644374324357 I I #
coedge $-1 $304 $128 $300 $305 reversed $199 $-1 #
coedge $-1 $128 $304 $130 $223 forward $199 $-1 #
vertex $-1 $215 $306 #
straight-curve $-1 -40.772025026031372 -32.08303629027985 39.852527071551783 0 0 1 I I #
coedge $-1 $224 $130 $307 $308 reversed $132 $-1 #
edge $-1 $309 -24.823321146061815 $133 -18.906909635333648 $219 $310 forward 7 unknown #
coedge $-1 $131 $222 $311 $312 reversed $132 $-1 #
coedge $-1 $313 $201 $131 $226 forward $118 $-1 #
edge $-1 $134 -28.085136640977552 $314 32.08303629027985 $225 $135 forward 7 unknown #
point $-1 -40.772025026031379 -32.08303629027985 6.0145576841560846 #
point $-1 -40.772025026031372 -28.085136640977552 6.0145576841560846 #
face $-1 $315 $316 $15 $-1 $317 forward single #
loop $-1 $-1 $318 $136 #
plane-surface $-1 -31.293026730553009 -85.641811075653166 79.705054143103567 -1 0 0 0 -0.57357644374324357 0.81915203911291934 forward_v I I I I #
loop $-1 $-1 $319 $73 #
coedge $-1 $320 $139 $321 $322 forward $74 $-1 #
coedge $-1 $139 $320 $323 $324 reversed $74 $-1 #
coedge $-1 $325 $326 $139 $236 reversed $327 $-1 #
edge $-1 $328 -32.08303629027985 $329 -28.085136640977552 $235 $330 forward 7 unknown #
edge $-1 $331 1 $331 0 $140 $-1 forward 7 unknown #
vertex $-1 $141 $332 #
ellipse-curve $-1 -36.032525878292191 -27.009289692869316 3.9502417249005646 0 -0.57357644374324357 0.81915203911291934 1.5 0 0 1 I I #
point $-1 -34.532525878292191 -28.333143755665297 5.8409012295867253 #
plane-surface $-1 46.688436536759546 0 0 -1 0 0 0 0 1 forward_v I I I I #
coedge $-1 $149 $147 $151 $246 reversed $82 $-1 #
edge $-1 $162 -8.4666043002312961 $248 8.4666043002312961 $161 $333 forward 7 unknown #
vertex $-1 $246 $334 #
straight-curve $-1 -46.688436536759546 -32.08303629027985 0 0 0 -1 I I #
edge $-1 $244 -32.08303629027985 $248 32.08303629027985 $242 $335 forward 7 unknown #
straight-curve $-1 0 -32.08303629027985 -8.4666043002312961 -1 0 0 I I #
vertex $-1 $154 $336 #
straight-curve $-1 0 32.08303629027985 -8.4666043002312961 1 0 0 I I #
point $-1 46.688436536759546 32.08303629027985 -8.4666043002312961 #
point $-1 46.688436536759546 -32.08303629027985 -8.4666043002312961 #
straight-curve $-1 -46.688436536759546 0 8.4666043002312961 0 -1 0 I I #
point $-1 -46.688436536759546 32.08303629027985 8.4666043002312961 #
point $-1 -46.688436536759546 -32.08303629027985 8.4666043002312961 #
straight-curve $-1 46.688436536759546 -32.08303629027985 0 0 0 -1 I I #
straight-curve $-1 46.688436536759546 32.08303629027985 0 0 0 -1 I I #
face $-1 $337 $338 $13 $-1 $339 forward single #
plane-surface $-1 0 -32.08303629027985 0 0 1 0 0 0 1 forward_v I I I I #
coedge $-1 $340 $173 $263 $341 forward $101 $-1 #
coedge $-1 $173 $340 $266 $342 reversed $101 $-1 #
edge $-1 $267 -32.08303629027985 $264 32.08303629027985 $173 $343 forward 7 unknown #
straight-curve $-1 -40.772025026031379 -32.08303629027985 1.9120102597227628 0 0 -1 I I #
coedge $-1 $177 $344 $259 $341 reversed $192 $-1 #
vertex $-1 $341 $345 #
straight-curve $-1 -21.865115390697731 32.08303629027985 1.6334833547349668 1 0 0 I I #
coedge $-1 $346 $179 $260 $342 forward $187 $-1 #
vertex $-1 $342 $347 #
straight-curve $-1 -21.865115390697731 -32.08303629027985 1.6334833547349668 -1 0 0 I I #
point $-1 -40.772025026031379 32.08303629027985 1.6334833547349668 #
point $-1 -40.772025026031379 -32.08303629027985 1.6334833547349668 #
coedge $-1 $348 $184 $186 $275 reversed $172 $-1 #
coedge $-1 $184 $348 $190 $278 forward $172 $-1 #
straight-curve $-1 -46.688436536759546 0 6.0145576841560846 0 -1 0 I I #
coedge $-1 $186 $349 $350 $351 reversed $187 $-1 #
edge $-1 $352 -8.4666043002312961 $188 -6.0145576841560846 $271 $353 forward 7 unknown #
point $-1 -46.688436536759546 -32.08303629027985 6.0145576841560846 #
coedge $-1 $354 $190 $355 $356 reversed $192 $-1 #
edge $-1 $357 -8.4666043002312961 $193 -6.0145576841560846 $190 $358 forward 7 unknown #
face $-1 $359 $192 $13 $-1 $360 reversed single #
point $-1 -46.688436536759546 32.08303629027985 6.0145576841560846 #
straight-curve $-1 -40.772025026031379 32.08303629027985 1.9120102597227628 0 0 1 I I #
face $-1 $361 $362 $14 $-1 $363 forward single #
plane-surface $-1 -43.730230781395463 0 6.0145576841560846 0 0 1 1 0 0 forward_v I I I I #
coedge $-1 $201 $364 $209 $296 reversed $118 $-1 #
coedge $-1 $365 $290 $202 $286 forward $301 $-1 #
edge $-1 $292 -18.237654316775856 $288 -10.737869247546733 $285 $366 forward 7 unknown #
coedge $-1 $204 $367 $365 $368 reversed $210 $-1 #
vertex $-1 $368 $369 #
straight-curve $-1 -31.293026730553009 -32.08303629027985 39.852527071551783 0 0 -1 I I #
coedge $-1 $285 $214 $206 $291 forward $301 $-1 #
edge $-1 $216 -22.755762086885277 $292 -13.276763791406914 $290 $370 forward 7 unknown #
vertex $-1 $291 $371 #
straight-curve $-1 -31.293026730553009 -32.08303629027985 3.2151981589421439 0 -0.81915203911291934 -0.57357644374324357 I I #
straight-curve $-1 -40.772025026031379 -21.17598971533744 10.852394537006713 0 0.81915203911291934 0.57357644374324357 I I #
coedge $-1 $372 $209 $373 $374 forward $210 $-1 #
edge $-1 $212 -1.3031878992193811 $375 0.27852690498779609 $209 $376 forward 7 unknown #
face $-1 $377 $210 $14 $-1 $200 reversed single #
point $-1 -31.293026730553009 -32.08303629027985 3.2151981589421439 #
point $-1 -40.772025026031379 -32.08303629027985 3.2151981589421439 #
coedge $-1 $214 $378 $218 $305 forward $301 $-1 #
loop $-1 $-1 $285 $377 #
straight-curve $-1 -40.772025026031372 -42.820905537826583 8.4666043002312961 0 1 0 I I #
point $-1 -40.772025026031372 -24.583251221050727 8.4666043002312961 #
coedge $-1 $219 $218 $379 $380 forward $199 $-1 #
edge $-1 $381 -46.688436536759546 $220 -40.772025026031372 $218 $382 forward 7 unknown #
point $-1 -40.772025026031372 -32.08303629027985 8.4666043002312961 #
coedge $-1 $379 $383 $222 $308 forward $384 $-1 #
edge $-1 $385 -32.08303629027985 $309 32.08303629027985 $307 $386 forward 7 unknown #
vertex $-1 $223 $387 #
straight-curve $-1 -21.865115390697731 -32.08303629027985 6.0145576841560846 1 0 0 I I #
coedge $-1 $388 $389 $224 $312 forward $390 $-1 #
edge $-1 $314 18.906909635333648 $385 24.823321146061815 $311 $391 forward 7 unknown #
coedge $-1 $364 $225 $389 $392 reversed $118 $-1 #
vertex $-1 $312 $393 #
face $-1 $394 $395 $15 $-1 $396 reversed single #
loop $-1 $-1 $397 $229 #
plane-surface $-1 -40.772025026031379 0 3.8240205194455257 -1 0 0 0 0 1 forward_v I I I I #
coedge $-1 $398 $399 $400 $401 reversed $230 $-1 #
coedge $-1 $402 $403 $404 $405 reversed $232 $-1 #
coedge $-1 $234 $233 $406 $407 reversed $74 $-1 #
coedge $-1 $403 $408 $233 $322 reversed $232 $-1 #
edge $-1 $329 4.8805343311257889 $409 9.1555470915397237 $233 $410 forward 7 unknown #
coedge $-1 $411 $412 $234 $324 forward $395 $-1 #
edge $-1 $328 -33.837969387395702 $413 -31.385922771320487 $323 $414 forward 7 unknown #
coedge $-1 $415 $235 $412 $416 reversed $327 $-1 #
coedge $-1 $235 $417 $418 $419 reversed $327 $-1 #
loop $-1 $-1 $235 $394 #
vertex $-1 $416 $420 #
vertex $-1 $419 $421 #
straight-curve $-1 -40.772025026031379 0 6.0145576841560846 0 1 0 I I #
vertex $-1 $237 $422 #
point $-1 -34.532525878292191 -27.009289692869316 3.9502417249005646 #
straight-curve $-1 -46.688436536759546 32.08303629027985 0 0 0 -1 I I #
point $-1 -46.688436536759546 -32.08303629027985 -8.4666043002312961 #
straight-curve $-1 -46.688436536759546 0 -8.4666043002312961 0 1 0 I I #
point $-1 -46.688436536759546 32.08303629027985 -8.4666043002312961 #
face $-1 $279 $423 $13 $-1 $424 reversed single #
loop $-1 $-1 $425 $257 #
plane-surface $-1 0 0 8.4666043002312961 0 0 1 1 0 0 forward_v I I I I #
coedge $-1 $260 $259 $426 $427 reversed $101 $-1 #
edge $-1 $264 -1.6334833547349668 $428 8.4666043002312961 $263 $358 forward 7 unknown #
edge $-1 $267 -1.6334833547349668 $429 8.4666043002312961 $260 $353 forward 7 unknown #
straight-curve $-1 -46.688436536759546 0 1.6334833547349668 0 1 0 I I #
coedge $-1 $263 $354 $430 $431 reversed $192 $-1 #
point $-1 -46.688436536759546 32.08303629027985 1.6334833547349668 #
coedge $-1 $349 $266 $432 $433 reversed $187 $-1 #
point $-1 -46.688436536759546 -32.08303629027985 1.6334833547349668 #
coedge $-1 $272 $271 $434 $435 reversed $172 $-1 #
coedge $-1 $274 $346 $436 $437 reversed $187 $-1 #
coedge $-1 $425 $434 $274 $351 forward $338 $-1 #
edge $-1 $352 -46.688436536759546 $438 46.688436536759546 $274 $439 forward 7 unknown #
vertex $-1 $435 $440 #
straight-curve $-1 -46.688436536759546 -32.08303629027985 0 0 0 -1 I I #
coedge $-1 $344 $277 $441 $442 forward $192 $-1 #
coedge $-1 $434 $425 $277 $356 forward $338 $-1 #
edge $-1 $443 -46.688436536759546 $357 46.688436536759546 $277 $444 forward 7 unknown #
vertex $-1 $356 $445 #
straight-curve $-1 -46.688436536759546 32.08303629027985 0 0 0 -1 I I #
face $-1 $-1 $446 $13 $-1 $447 reversed single #
plane-surface $-1 0 32.08303629027985 0 0 -1 0 0 0 -1 forward_v I I I I #
face $-1 $448 $449 $14 $-1 $450 reversed single #
loop $-1 $-1 $451 $282 #
plane-surface $-1 -43.730230781395463 0 1.6334833547349668 0 0 1 1 0 0 forward_v I I I I #
coedge $-1 $284 $313 $451 $452 forward $118 $-1 #
coedge $-1 $453 $285 $287 $368 forward $301 $-1 #
straight-curve $-1 -31.293026730553009 -42.820905537826583 8.4666043002312961 0 -1 0 I I #
coedge $-1 $287 $454 $455 $456 reversed $210 $-1 #
edge $-1 $288 -31.293026730553009 $457 46.688436536759546 $287 $382 forward 7 unknown #
point $-1 -31.293026730553009 -32.08303629027985 8.4666043002312961 #
straight-curve $-1 -18.016262939146095 -24.583251221050727 8.4666043002312961 1 0 0 I I #
point $-1 -31.293026730553009 -24.583251221050727 8.4666043002312961 #
coedge $-1 $454 $295 $458 $459 forward $210 $-1 #
coedge $-1 $451 $460 $295 $374 reversed $362 $-1 #
edge $-1 $375 18.906909635333648 $461 24.823321146061815 $295 $462 forward 7 unknown #
vertex $-1 $374 $463 #
straight-curve $-1 -40.772025026031379 -32.08303629027985 1.9120102597227628 0 0 -1 I I #
face $-1 $464 $301 $14 $-1 $465 forward single #
coedge $-1 $300 $466 $467 $468 forward $301 $-1 #
coedge $-1 $467 $307 $304 $380 reversed $384 $-1 #
edge $-1 $381 -8.4666043002312961 $309 -6.0145576841560846 $379 $469 forward 7 unknown #
vertex $-1 $468 $470 #
straight-curve $-1 0 -32.08303629027985 8.4666043002312961 1 0 0 I I #
coedge $-1 $307 $467 $388 $471 forward $384 $-1 #
loop $-1 $-1 $307 $448 #
vertex $-1 $308 $472 #
straight-curve $-1 -46.688436536759546 0 6.0145576841560846 0 -1 0 I I #
point $-1 -46.688436536759546 -32.08303629027985 6.0145576841560846 #
coedge $-1 $473 $311 $383 $471 reversed $390 $-1 #
coedge $-1 $311 $474 $313 $392 forward $390 $-1 #
loop $-1 $-1 $311 $475 #
straight-curve $-1 -21.865115390697731 32.08303629027985 6.0145576841560846 -1 0 0 I I #
edge $-1 $476 -0.27852690498779609 $314 4.1025474244333218 $389 $477 forward 7 unknown #
point $-1 -40.772025026031379 32.08303629027985 6.0145576841560846 #
face $-1 $478 $327 $15 $-1 $479 reversed single #
loop $-1 $-1 $323 $315 #
plane-surface $-1 0 -32.08303629027985 0 0 1 0 0 0 1 forward_v I I I I #
coedge $-1 $418 $480 $403 $481 forward $316 $-1 #
coedge $-1 $399 $318 $482 $483 reversed $230 $-1 #
coedge $-1 $318 $398 $402 $484 forward $230 $-1 #
coedge $-1 $404 $485 $318 $401 forward $486 $-1 #
edge $-1 $487 31.385922771320487 $488 36.63732891260964 $400 $489 forward 7 unknown #
coedge $-1 $408 $319 $399 $484 reversed $232 $-1 #
coedge $-1 $319 $321 $397 $481 reversed $232 $-1 #
coedge $-1 $490 $400 $319 $405 forward $486 $-1 #
edge $-1 $488 13.276763791406914 $491 22.755762086885284 $404 $492 forward 7 unknown #
coedge $-1 $493 $494 $320 $407 forward $495 $-1 #
edge $-1 $413 10.737869247546733 $409 18.237654316775856 $406 $496 forward 7 unknown #
coedge $-1 $321 $402 $493 $497 reversed $232 $-1 #
vertex $-1 $497 $498 #
straight-curve $-1 -40.772025026031372 -32.08303629027985 3.2151981589421439 0 0.81915203911291934 0.57357644374324357 I I #
coedge $-1 $499 $323 $494 $500 reversed $395 $-1 #
coedge $-1 $323 $499 $325 $416 forward $395 $-1 #
vertex $-1 $407 $501 #
straight-curve $-1 -40.772025026031372 -32.08303629027985 39.852527071551783 0 0 1 I I #
coedge $-1 $417 $325 $502 $503 reversed $327 $-1 #
edge $-1 $504 -24.823321146061815 $328 -18.906909635333648 $412 $505 forward 7 unknown #
coedge $-1 $326 $415 $506 $507 reversed $327 $-1 #
coedge $-1 $508 $397 $326 $419 forward $316 $-1 #
edge $-1 $329 -28.085136640977552 $509 32.08303629027985 $418 $330 forward 7 unknown #
point $-1 -40.772025026031379 -32.08303629027985 6.0145576841560846 #
point $-1 -40.772025026031372 -28.085136640977552 6.0145576841560846 #
point $-1 -36.032525878292191 -26.14892502725445 2.7215136662311856 #
loop $-1 $-1 $510 $337 #
plane-surface $-1 0 0 -8.4666043002312961 0 0 1 1 0 0 forward_v I I I I #
coedge $-1 $355 $350 $511 $512 forward $338 $-1 #
coedge $-1 $430 $432 $340 $427 forward $423 $-1 #
edge $-1 $429 -32.08303629027985 $428 32.08303629027985 $340 $513 forward 7 unknown #
vertex $-1 $431 $514 #
vertex $-1 $427 $515 #
coedge $-1 $510 $426 $344 $431 forward $423 $-1 #
edge $-1 $428 -46.688436536759546 $516 46.688436536759546 $344 $517 forward 7 unknown #
coedge $-1 $426 $510 $346 $433 forward $423 $-1 #
edge $-1 $518 -46.688436536759546 $429 46.688436536759546 $346 $519 forward 7 unknown #
coedge $-1 $350 $355 $348 $435 forward $338 $-1 #
edge $-1 $357 -32.08303629027985 $352 32.08303629027985 $348 $520 forward 7 unknown #
coedge $-1 $521 $511 $349 $437 forward $446 $-1 #
edge $-1 $438 -8.4666043002312961 $518 8.4666043002312961 $436 $522 forward 7 unknown #
vertex $-1 $512 $523 #
straight-curve $-1 0 -32.08303629027985 8.4666043002312961 1 0 0 I I #
point $-1 -46.688436536759546 -32.08303629027985 8.4666043002312961 #
coedge $-1 $511 $521 $354 $442 reversed $446 $-1 #
edge $-1 $443 -8.4666043002312961 $516 8.4666043002312961 $441 $524 forward 7 unknown #
vertex $-1 $512 $525 #
straight-curve $-1 0 32.08303629027985 8.4666043002312961 -1 0 0 I I #
point $-1 -46.688436536759546 32.08303629027985 8.4666043002312961 #
loop $-1 $-1 $436 $359 #
plane-surface $-1 46.688436536759546 0 0 -1 0 0 0 0 1 forward_v I I I I #
face $-1 $297 $384 $14 $-1 $450 reversed single #
loop $-1 $-1 $526 $361 #
plane-surface $-1 -46.688436536759546 0 0 1 0 0 0 0 -1 forward_v I I I I #
coedge $-1 $527 $373 $364 $452 reversed $362 $-1 #
edge $-1 $476 -32.08303629027985 $375 32.08303629027985 $364 $528 forward 7 unknown #
coedge $-1 $466 $365 $529 $530 forward $301 $-1 #
coedge $-1 $367 $372 $531 $532 reversed $210 $-1 #
coedge $-1 $533 $529 $367 $456 forward $534 $-1 #
edge $-1 $457 -8.4666043002312961 $535 8.4666043002312961 $455 $536 forward 7 unknown #
vertex $-1 $530 $537 #
coedge $-1 $526 $538 $372 $459 reversed $449 $-1 #
edge $-1 $461 -1.6334833547349668 $539 8.4666043002312961 $458 $469 forward 7 unknown #
coedge $-1 $373 $527 $526 $540 reversed $362 $-1 #
vertex $-1 $459 $541 #
straight-curve $-1 -21.865115390697731 -32.08303629027985 1.6334833547349668 -1 0 0 I I #
point $-1 -40.772025026031379 -32.08303629027985 1.6334833547349668 #
face $-1 $475 $542 $14 $-1 $543 reversed single #
plane-surface $-1 0 0 8.4666043002312961 0 0 1 1 0 0 forward_v I I I I #
coedge $-1 $378 $453 $473 $544 forward $301 $-1 #
coedge $-1 $383 $379 $378 $468 reversed $384 $-1 #
edge $-1 $545 -32.08303629027985 $381 32.08303629027985 $467 $546 forward 7 unknown #
straight-curve $-1 -46.688436536759546 -32.08303629027985 0 0 0 -1 I I #
point $-1 -46.688436536759546 -32.08303629027985 8.4666043002312961 #
edge $-1 $545 -8.4666043002312961 $385 -6.0145576841560846 $388 $547 forward 7 unknown #
point $-1 -46.688436536759546 32.08303629027985 6.0145576841560846 #
coedge $-1 $548 $388 $466 $544 reversed $390 $-1 #
coedge $-1 $389 $549 $527 $550 forward $390 $-1 #
face $-1 $551 $390 $14 $-1 $552 reversed single #
vertex $-1 $550 $553 #
straight-curve $-1 -40.772025026031379 32.08303629027985 1.9120102597227628 0 0 1 I I #
face $-1 $554 $555 $15 $-1 $556 forward single #
plane-surface $-1 -43.730230781395463 0 6.0145576841560846 0 0 1 1 0 0 forward_v I I I I #
coedge $-1 $397 $557 $490 $558 reversed $316 $-1 #
edge $-1 $491 -13.315045381262713 $329 -8.4345110501369245 $397 $559 forward 7 unknown #
coedge $-1 $560 $493 $398 $483 forward $495 $-1 #
edge $-1 $561 -18.237654316775856 $487 -10.737869247546733 $482 $562 forward 7 unknown #
edge $-1 $561 -9.1555470915397237 $488 0 $399 $563 forward 7 unknown #
coedge $-1 $400 $564 $560 $565 reversed $486 $-1 #
loop $-1 $-1 $404 $566 #
vertex $-1 $565 $567 #
vertex $-1 $405 $568 #
straight-curve $-1 -31.293026730553009 -32.08303629027985 39.852527071551783 0 0 -1 I I #
coedge $-1 $569 $404 $480 $558 forward $486 $-1 #
vertex $-1 $558 $570 #
straight-curve $-1 -18.016262939146095 -32.08303629027985 3.2151981589421417 -1 0 0 I I #
coedge $-1 $482 $406 $408 $497 forward $495 $-1 #
coedge $-1 $406 $571 $411 $500 forward $495 $-1 #
loop $-1 $-1 $482 $572 #
straight-curve $-1 -40.772025026031372 -42.820905537826583 8.4666043002312961 0 1 0 I I #
edge $-1 $409 -22.755762086885277 $561 -13.276763791406914 $493 $573 forward 7 unknown #
point $-1 -40.772025026031372 -24.583251221050727 8.4666043002312961 #
coedge $-1 $412 $411 $574 $575 forward $395 $-1 #
edge $-1 $576 -46.688436536759546 $413 -40.772025026031372 $411 $577 forward 7 unknown #
point $-1 -40.772025026031372 -32.08303629027985 8.4666043002312961 #
coedge $-1 $574 $578 $415 $503 forward $579 $-1 #
edge $-1 $580 -32.08303629027985 $504 32.08303629027985 $502 $581 forward 7 unknown #
vertex $-1 $416 $582 #
straight-curve $-1 -21.865115390697731 -32.08303629027985 6.0145576841560846 1 0 0 I I #
coedge $-1 $583 $584 $417 $507 forward $585 $-1 #
edge $-1 $509 18.906909635333648 $580 24.823321146061815 $506 $586 forward 7 unknown #
coedge $-1 $557 $418 $584 $587 reversed $316 $-1 #
vertex $-1 $507 $588 #
coedge $-1 $432 $430 $521 $589 forward $423 $-1 #
coedge $-1 $436 $441 $425 $512 reversed $446 $-1 #
edge $-1 $438 -32.08303629027985 $443 32.08303629027985 $511 $590 forward 7 unknown #
straight-curve $-1 -46.688436536759546 0 -8.4666043002312961 0 1 0 I I #
point $-1 -46.688436536759546 32.08303629027985 -8.4666043002312961 #
point $-1 -46.688436536759546 -32.08303629027985 -8.4666043002312961 #
vertex $-1 $589 $591 #
straight-curve $-1 0 32.08303629027985 -8.4666043002312961 1 0 0 I I #
vertex $-1 $437 $592 #
straight-curve $-1 0 -32.08303629027985 -8.4666043002312961 -1 0 0 I I #
straight-curve $-1 -46.688436536759546 0 8.4666043002312961 0 -1 0 I I #
coedge $-1 $441 $436 $510 $589 reversed $446 $-1 #
straight-curve $-1 46.688436536759546 -32.08303629027985 0 0 0 -1 I I #
point $-1 46.688436536759546 -32.08303629027985 8.4666043002312961 #
straight-curve $-1 46.688436536759546 32.08303629027985 0 0 0 -1 I I #
point $-1 46.688436536759546 32.08303629027985 8.4666043002312961 #
coedge $-1 $593 $458 $460 $540 forward $449 $-1 #
coedge $-1 $460 $451 $474 $550 reversed $362 $-1 #
straight-curve $-1 -40.772025026031379 0 1.6334833547349668 0 -1 0 I I #
coedge $-1 $455 $594 $453 $530 reversed $534 $-1 #
edge $-1 $457 -32.08303629027985 $595 32.08303629027985 $529 $596 forward 7 unknown #
coedge $-1 $597 $598 $454 $532 forward $542 $-1 #
edge $-1 $535 -46.688436536759546 $539 46.688436536759546 $454 $599 forward 7 unknown #
coedge $-1 $594 $455 $598 $600 reversed $534 $-1 #
loop $-1 $-1 $455 $551 #
vertex $-1 $456 $601 #
straight-curve $-1 46.688436536759546 -32.08303629027985 0 0 0 -1 I I #
point $-1 46.688436536759546 -32.08303629027985 8.4666043002312961 #
coedge $-1 $458 $593 $597 $602 reversed $449 $-1 #
vertex $-1 $602 $603 #
edge $-1 $461 -32.08303629027985 $604 32.08303629027985 $526 $605 forward 7 unknown #
point $-1 -46.688436536759546 -32.08303629027985 1.6334833547349668 #
loop $-1 $-1 $598 $464 #
plane-surface $-1 0 0 -8.4666043002312961 0 0 1 1 0 0 forward_v I I I I #
edge $-1 $595 -46.688436536759546 $545 46.688436536759546 $473 $606 forward 7 unknown #
vertex $-1 $544 $607 #
straight-curve $-1 -46.688436536759546 0 8.4666043002312961 0 -1 0 I I #
straight-curve $-1 -46.688436536759546 32.08303629027985 0 0 0 -1 I I #
coedge $-1 $608 $473 $594 $609 forward $390 $-1 #
coedge $-1 $474 $608 $593 $610 reversed $390 $-1 #
edge $-1 $604 -24.823321146061815 $476 -18.906909635333648 $474 $611 forward 7 unknown #
face $-1 $-1 $534 $14 $-1 $612 reversed single #
plane-surface $-1 0 32.08303629027985 0 0 -1 0 0 0 -1 forward_v I I I I #
point $-1 -40.772025026031379 32.08303629027985 1.6334833547349668 #
face $-1 $613 $614 $15 $-1 $615 reversed single #
loop $-1 $-1 $616 $478 #
plane-surface $-1 -43.730230781395463 0 1.6334833547349668 0 0 1 1 0 0 forward_v I I I I #
coedge $-1 $480 $508 $616 $617 forward $316 $-1 #
edge $-1 $491 -1.3031878992193811 $618 0.27852690498779609 $490 $619 forward 7 unknown #
straight-curve $-1 -40.772025026031379 -21.17598971533744 10.852394537006713 0 0.81915203911291934 0.57357644374324357 I I #
coedge $-1 $620 $482 $485 $565 forward $495 $-1 #
vertex $-1 $497 $621 #
straight-curve $-1 -31.293026730553009 -42.820905537826583 8.4666043002312961 0 -1 0 I I #
straight-curve $-1 -31.293026730553009 -32.08303629027985 3.2151981589421439 0 -0.81915203911291934 -0.57357644374324357 I I #
coedge $-1 $485 $622 $623 $624 reversed $486 $-1 #
edge $-1 $487 -31.293026730553009 $625 46.688436536759546 $485 $577 forward 7 unknown #
face $-1 $572 $486 $15 $-1 $396 reversed single #
point $-1 -31.293026730553009 -32.08303629027985 8.4666043002312961 #
point $-1 -31.293026730553009 -32.08303629027985 3.2151981589421439 #
coedge $-1 $626 $490 $627 $628 forward $486 $-1 #
point $-1 -40.772025026031379 -32.08303629027985 3.2151981589421439 #
coedge $-1 $494 $629 $630 $631 forward $495 $-1 #
face $-1 $632 $495 $15 $-1 $633 forward single #
straight-curve $-1 -18.016262939146095 -24.583251221050727 8.4666043002312961 1 0 0 I I #
coedge $-1 $630 $502 $499 $575 reversed $579 $-1 #
edge $-1 $576 -8.4666043002312961 $504 -6.0145576841560846 $574 $634 forward 7 unknown #
vertex $-1 $631 $635 #
straight-curve $-1 0 -32.08303629027985 8.4666043002312961 1 0 0 I I #
coedge $-1 $502 $630 $583 $636 forward $579 $-1 #
loop $-1 $-1 $502 $613 #
vertex $-1 $503 $637 #
straight-curve $-1 -46.688436536759546 0 6.0145576841560846 0 -1 0 I I #
point $-1 -46.688436536759546 -32.08303629027985 6.0145576841560846 #
coedge $-1 $638 $506 $578 $636 reversed $585 $-1 #
coedge $-1 $506 $639 $508 $587 forward $585 $-1 #
loop $-1 $-1 $506 $640 #
straight-curve $-1 -21.865115390697731 32.08303629027985 6.0145576841560846 -1 0 0 I I #
edge $-1 $641 -0.27852690498779609 $509 4.1025474244333218 $584 $642 forward 7 unknown #
point $-1 -40.772025026031379 32.08303629027985 6.0145576841560846 #
edge $-1 $516 -32.08303629027985 $518 32.08303629027985 $521 $643 forward 7 unknown #
straight-curve $-1 46.688436536759546 0 8.4666043002312961 0 1 0 I I #
point $-1 46.688436536759546 32.08303629027985 -8.4666043002312961 #
point $-1 46.688436536759546 -32.08303629027985 -8.4666043002312961 #
coedge $-1 $538 $526 $549 $610 forward $449 $-1 #
coedge $-1 $529 $533 $548 $609 reversed $534 $-1 #
vertex $-1 $530 $644 #
straight-curve $-1 46.688436536759546 0 8.4666043002312961 0 1 0 I I #
coedge $-1 $645 $531 $538 $602 forward $542 $-1 #
coedge $-1 $531 $645 $533 $600 forward $542 $-1 #
straight-curve $-1 0 -32.08303629027985 -8.4666043002312961 -1 0 0 I I #
edge $-1 $646 -32.08303629027985 $535 32.08303629027985 $533 $647 forward 7 unknown #
point $-1 46.688436536759546 -32.08303629027985 -8.4666043002312961 #
edge $-1 $539 -32.08303629027985 $648 32.08303629027985 $538 $649 forward 7 unknown #
point $-1 -46.688436536759546 -32.08303629027985 -8.4666043002312961 #
vertex $-1 $610 $650 #
straight-curve $-1 -46.688436536759546 0 1.6334833547349668 0 1 0 I I #
straight-curve $-1 0 32.08303629027985 8.4666043002312961 -1 0 0 I I #
point $-1 -46.688436536759546 32.08303629027985 8.4666043002312961 #
coedge $-1 $549 $548 $645 $651 reversed $390 $-1 #
edge $-1 $595 -8.4666043002312961 $646 8.4666043002312961 $594 $652 forward 7 unknown #
edge $-1 $604 -1.6334833547349668 $648 8.4666043002312961 $549 $547 forward 7 unknown #
straight-curve $-1 -21.865115390697731 32.08303629027985 1.6334833547349668 1 0 0 I I #
plane-surface $-1 46.688436536759546 0 0 -1 0 0 0 0 1 forward_v I I I I #
face $-1 $566 $579 $15 $-1 $615 reversed single #
loop $-1 $-1 $653 $554 #
plane-surface $-1 -46.688436536759546 0 0 1 0 0 0 0 -1 forward_v I I I I #
coedge $-1 $654 $627 $557 $617 reversed $555 $-1 #
edge $-1 $641 -32.08303629027985 $618 32.08303629027985 $557 $655 forward 7 unknown #
vertex $-1 $628 $656 #
straight-curve $-1 -40.772025026031379 -32.08303629027985 1.9120102597227628 0 0 -1 I I #
coedge $-1 $629 $560 $657 $658 forward $495 $-1 #
point $-1 -31.293026730553009 -24.583251221050727 8.4666043002312961 #
coedge $-1 $564 $626 $659 $660 reversed $486 $-1 #
coedge $-1 $661 $657 $564 $624 forward $662 $-1 #
edge $-1 $625 -8.4666043002312961 $663 8.4666043002312961 $623 $664 forward 7 unknown #
vertex $-1 $658 $665 #
coedge $-1 $622 $569 $666 $667 forward $486 $-1 #
coedge $-1 $616 $668 $569 $628 reversed $555 $-1 #
edge $-1 $618 18.906909635333648 $669 24.823321146061815 $569 $670 forward 7 unknown #
coedge $-1 $571 $620 $638 $671 forward $495 $-1 #
coedge $-1 $578 $574 $571 $631 reversed $579 $-1 #
edge $-1 $672 -32.08303629027985 $576 32.08303629027985 $630 $673 forward 7 unknown #
face $-1 $640 $674 $15 $-1 $675 reversed single #
plane-surface $-1 0 0 8.4666043002312961 0 0 1 1 0 0 forward_v I I I I #
straight-curve $-1 -46.688436536759546 -32.08303629027985 0 0 0 -1 I I #
point $-1 -46.688436536759546 -32.08303629027985 8.4666043002312961 #
edge $-1 $672 -8.4666043002312961 $580 -6.0145576841560846 $583 $676 forward 7 unknown #
point $-1 -46.688436536759546 32.08303629027985 6.0145576841560846 #
coedge $-1 $677 $583 $629 $671 reversed $585 $-1 #
coedge $-1 $584 $678 $654 $679 forward $585 $-1 #
face $-1 $680 $585 $15 $-1 $681 reversed single #
vertex $-1 $679 $682 #
straight-curve $-1 -40.772025026031379 32.08303629027985 1.9120102597227628 0 0 1 I I #
straight-curve $-1 46.688436536759546 0 -8.4666043002312961 0 -1 0 I I #
point $-1 46.688436536759546 32.08303629027985 8.4666043002312961 #
coedge $-1 $598 $597 $608 $651 forward $542 $-1 #
vertex $-1 $600 $683 #
straight-curve $-1 46.688436536759546 0 -8.4666043002312961 0 -1 0 I I #
vertex $-1 $651 $684 #
straight-curve $-1 -46.688436536759546 0 -8.4666043002312961 0 1 0 I I #
point $-1 -46.688436536759546 32.08303629027985 1.6334833547349668 #
edge $-1 $648 -46.688436536759546 $646 46.688436536759546 $608 $685 forward 7 unknown #
straight-curve $-1 46.688436536759546 32.08303629027985 0 0 0 -1 I I #
coedge $-1 $686 $666 $668 $687 forward $614 $-1 #
coedge $-1 $668 $616 $639 $679 reversed $555 $-1 #
straight-curve $-1 -40.772025026031379 0 1.6334833547349668 0 -1 0 I I #
point $-1 -40.772025026031379 -32.08303629027985 1.6334833547349668 #
coedge $-1 $623 $688 $620 $658 reversed $662 $-1 #
edge $-1 $625 -32.08303629027985 $689 32.08303629027985 $657 $690 forward 7 unknown #
coedge $-1 $691 $692 $622 $660 forward $674 $-1 #
edge $-1 $663 -46.688436536759546 $693 46.688436536759546 $622 $694 forward 7 unknown #
coedge $-1 $688 $623 $692 $695 reversed $662 $-1 #
loop $-1 $-1 $623 $680 #
vertex $-1 $624 $696 #
straight-curve $-1 46.688436536759546 -32.08303629027985 0 0 0 -1 I I #
point $-1 46.688436536759546 -32.08303629027985 8.4666043002312961 #
coedge $-1 $653 $697 $626 $667 reversed $614 $-1 #
edge $-1 $669 -1.6334833547349668 $693 8.4666043002312961 $666 $634 forward 7 unknown #
coedge $-1 $627 $654 $653 $687 reversed $555 $-1 #
vertex $-1 $667 $698 #
straight-curve $-1 -21.865115390697731 -32.08303629027985 1.6334833547349668 -1 0 0 I I #
edge $-1 $689 -46.688436536759546 $672 46.688436536759546 $638 $699 forward 7 unknown #
vertex $-1 $671 $700 #
straight-curve $-1 -46.688436536759546 0 8.4666043002312961 0 -1 0 I I #
loop $-1 $-1 $692 $632 #
plane-surface $-1 0 0 -8.4666043002312961 0 0 1 1 0 0 forward_v I I I I #
straight-curve $-1 -46.688436536759546 32.08303629027985 0 0 0 -1 I I #
coedge $-1 $701 $638 $688 $702 forward $585 $-1 #
coedge $-1 $639 $701 $686 $703 reversed $585 $-1 #
edge $-1 $704 -24.823321146061815 $641 -18.906909635333648 $639 $705 forward 7 unknown #
face $-1 $-1 $662 $15 $-1 $706 reversed single #
plane-surface $-1 0 32.08303629027985 0 0 -1 0 0 0 -1 forward_v I I I I #
point $-1 -40.772025026031379 32.08303629027985 1.6334833547349668 #
point $-1 46.688436536759546 32.08303629027985 -8.4666043002312961 #
point $-1 -46.688436536759546 32.08303629027985 -8.4666043002312961 #
straight-curve $-1 0 32.08303629027985 -8.4666043002312961 1 0 0 I I #
coedge $-1 $697 $653 $678 $703 forward $614 $-1 #
edge $-1 $669 -32.08303629027985 $704 32.08303629027985 $653 $707 forward 7 unknown #
coedge $-1 $657 $661 $677 $702 reversed $662 $-1 #
vertex $-1 $658 $708 #
straight-curve $-1 46.688436536759546 0 8.4666043002312961 0 1 0 I I #
coedge $-1 $709 $659 $697 $710 forward $674 $-1 #
coedge $-1 $659 $709 $661 $695 forward $674 $-1 #
vertex $-1 $710 $711 #
straight-curve $-1 0 -32.08303629027985 -8.4666043002312961 -1 0 0 I I #
edge $-1 $712 -32.08303629027985 $663 32.08303629027985 $661 $713 forward 7 unknown #
point $-1 46.688436536759546 -32.08303629027985 -8.4666043002312961 #
coedge $-1 $666 $686 $691 $710 reversed $614 $-1 #
point $-1 -46.688436536759546 -32.08303629027985 1.6334833547349668 #
straight-curve $-1 0 32.08303629027985 8.4666043002312961 -1 0 0 I I #
point $-1 -46.688436536759546 32.08303629027985 8.4666043002312961 #
coedge $-1 $678 $677 $709 $714 reversed $585 $-1 #
edge $-1 $689 -8.4666043002312961 $712 8.4666043002312961 $688 $715 forward 7 unknown #
edge $-1 $704 -1.6334833547349668 $716 8.4666043002312961 $678 $676 forward 7 unknown #
vertex $-1 $703 $717 #
straight-curve $-1 -21.865115390697731 32.08303629027985 1.6334833547349668 1 0 0 I I #
plane-surface $-1 46.688436536759546 0 0 -1 0 0 0 0 1 forward_v I I I I #
straight-curve $-1 -46.688436536759546 0 1.6334833547349668 0 1 0 I I #
point $-1 46.688436536759546 32.08303629027985 8.4666043002312961 #
coedge $-1 $692 $691 $701 $714 forward $674 $-1 #
edge $-1 $693 -32.08303629027985 $716 32.08303629027985 $697 $718 forward 7 unknown #
point $-1 -46.688436536759546 -32.08303629027985 -8.4666043002312961 #
vertex $-1 $695 $719 #
straight-curve $-1 46.688436536759546 0 -8.4666043002312961 0 -1 0 I I #
edge $-1 $716 -46.688436536759546 $712 46.688436536759546 $701 $720 forward 7 unknown #
straight-curve $-1 46.688436536759546 32.08303629027985 0 0 0 -1 I I #
vertex $-1 $714 $721 #
point $-1 -46.688436536759546 32.08303629027985 1.6334833547349668 #
straight-curve $-1 -46.688436536759546 0 -8.4666043002312961 0 1 0 I I #
point $-1 46.688436536759546 32.08303629027985 -8.4666043002312961 #
straight-curve $-1 0 32.08303629027985 -8.4666043002312961 1 0 0 I I #
point $-1 -46.688436536759546 32.08303629027985 -8.4666043002312961 #
End-of-ACIS-data 