500 0 7 0           
7 Unknown 11 ACIS 5.0 NT 24 Fri Mar 26 02:42:16 1999 
-1 9.9999999999999995e-007 1e-010 
body $-1 $7 $-1 $8 #
body $-1 $9 $-1 $10 #
body $-1 $11 $-1 $12 #
body $-1 $13 $-1 $14 #
body $-1 $15 $-1 $16 #
body $-1 $17 $-1 $18 #
body $-1 $19 $-1 $20 #
lump $-1 $-1 $21 $0 #
transform $-1 1 0 0 0 1 0 0 0 1 51.555528427991575 23.529850658739843 7.1560417728061827 1 rotate no_reflect no_shear #
lump $-1 $-1 $22 $1 #
transform $-1 1 0 0 0 1 0 0 0 1 51.555528427991575 23.529850658739843 7.1560417728061827 1 rotate no_reflect no_shear #
lump $-1 $-1 $23 $2 #
transform $-1 1 0 0 0 1 0 0 0 1 51.555528427991575 23.529850658739843 7.1560417728061827 1 rotate no_reflect no_shear #
lump $-1 $-1 $24 $3 #
transform $-1 1 0 0 0 1 0 0 0 1 51.555528427991575 23.529850658739843 7.1560417728061827 1 rotate no_reflect no_shear #
lump $-1 $-1 $25 $4 #
transform $-1 1 0 0 0 1 0 0 0 1 51.555528427991575 23.529850658739843 7.1560417728061827 1 rotate no_reflect no_shear #
lump $-1 $-1 $26 $5 #
transform $-1 1 0 0 0 1 0 0 0 1 51.555528427991575 23.529850658739843 7.1560417728061827 1 rotate no_reflect no_shear #
lump $-1 $-1 $27 $6 #
transform $-1 1 0 0 0 1 0 0 0 1 51.555528427991575 23.529850658739843 7.1560417728061827 1 rotate no_reflect no_shear #
shell $-1 $-1 $-1 $28 $-1 $7 #
shell $-1 $-1 $-1 $29 $-1 $9 #
shell $-1 $-1 $-1 $30 $-1 $11 #
shell $-1 $-1 $-1 $31 $-1 $13 #
shell $-1 $-1 $-1 $32 $-1 $15 #
shell $-1 $-1 $-1 $33 $-1 $17 #
shell $-1 $-1 $-1 $34 $-1 $19 #
face $-1 $35 $36 $21 $-1 $37 forward single #
face $-1 $38 $39 $22 $-1 $40 forward single #
face $-1 $41 $42 $23 $-1 $43 reversed single #
face $-1 $44 $45 $24 $-1 $46 forward single #
face $-1 $47 $48 $25 $-1 $49 reversed single #
face $-1 $50 $51 $26 $-1 $52 forward single #
face $-1 $53 $54 $27 $-1 $55 forward single #
face $-1 $56 $57 $21 $-1 $58 reversed single #
loop $-1 $-1 $59 $28 #
plane-surface $-1 0 0 7.1560417728061827 0 0 1 1 0 0 forward_v I I I I #
face $-1 $60 $61 $22 $-1 $62 reversed single #
loop $-1 $-1 $63 $29 #
plane-surface $-1 -47.651031562506304 0 5.7545200316968037 0 0 1 1 0 0 forward_v I I I I #
face $-1 $64 $65 $23 $-1 $66 reversed single #
loop $-1 $-1 $67 $30 #
plane-surface $-1 -5.1065873741407053 -103.66219292920066 66.430315220209508 1 0 0 0 0.77714596973225614 -0.62932038083071107 forward_v I I I I #
face $-1 $68 $69 $24 $-1 $70 forward single #
loop $-1 $71 $72 $31 #
cone-surface $-1 7.5849879228184633 -20.159537807221927 3.4602287948865298 0 0.77714596973225614 -0.62932038083071107 1.5 0 0 1 I I 0 1 1.5 forward I I I I #
face $-1 $73 $74 $25 $-1 $75 reversed single #
loop $-1 $-1 $76 $32 #
plane-surface $-1 -36.326297854387889 61.304894453232308 110.27432267671092 1 0 0 0 -0.69465837861970381 -0.71933979245794832 forward_v I I I I #
face $-1 $77 $78 $26 $-1 $79 forward single #
loop $-1 $80 $81 $33 #
cone-surface $-1 -28.753039460360775 20.427248991669718 4.0785931551844836 0 -0.69465837861970381 -0.71933979245794832 1 0 0 1 I I 0 1 1 forward I I I I #
face $-1 $82 $83 $27 $-1 $84 forward single #
loop $-1 $85 $86 $34 #
cone-surface $-1 -17.393151869320107 20.427248991669718 4.0785931551844836 0 -0.69465837861970381 -0.71933979245794832 1 0 0 1 I I 0 1 1 forward I I I I #
face $-1 $87 $88 $21 $-1 $89 reversed single #
loop $-1 $-1 $90 $35 #
plane-surface $-1 0 0 -7.1560417728061827 0 0 1 1 0 0 forward_v I I I I #
coedge $-1 $91 $92 $93 $94 forward $36 $-1 #
face $-1 $95 $96 $22 $-1 $97 reversed single #
loop $-1 $-1 $98 $38 #
plane-surface $-1 -47.651031562506304 0 2.5673548220658065 0 0 1 1 0 0 forward_v I I I I #
coedge $-1 $99 $100 $101 $102 forward $39 $-1 #
face $-1 $103 $104 $23 $-1 $105 reversed single #
loop $-1 $-1 $106 $41 #
plane-surface $-1 7.5849879228184705 -23.529850658739832 1.540425651745096 0 -0.77714596973225614 0.62932038083071107 1 0 0 forward_v I I I I #
coedge $-1 $107 $108 $109 $110 reversed $42 $-1 #
face $-1 $-1 $111 $24 $-1 $112 forward single #
loop $-1 $113 $114 $44 #
cone-surface $-1 7.5849879228184633 -18.480083552966022 2.1002335918743933 0 0.77714596973225614 -0.62932038083071107 0.75 0 0 1 I I -0.70710678118654757 0.70710678118654757 0.75 forward I I I I #
loop $-1 $-1 $115 $31 #
coedge $-1 $72 $72 $116 $117 reversed $45 $-1 #
face $-1 $118 $119 $25 $-1 $120 reversed single #
loop $-1 $-1 $121 $47 #
plane-surface $-1 -23.073095664840444 -10.322065120109045 36.102436437808294 0 0.69465837861970381 0.71933979245794832 1 0 0 forward_v I I I I #
coedge $-1 $122 $123 $124 $125 reversed $48 $-1 #
face $-1 $-1 $126 $26 $-1 $127 forward single #
loop $-1 $128 $129 $50 #
cone-surface $-1 -28.753039460360775 18.91584178970022 2.5134852165967425 0 -0.69465837861970381 -0.71933979245794832 0.5 0 0 1 I I -0.70710678118654746 0.70710678118654746 0.5 forward I I I I #
loop $-1 $-1 $130 $33 #
coedge $-1 $81 $81 $131 $132 reversed $51 $-1 #
face $-1 $-1 $133 $27 $-1 $134 forward single #
loop $-1 $135 $136 $53 #
cone-surface $-1 -17.393151869320107 18.91584178970022 2.5134852165967425 0 -0.69465837861970381 -0.71933979245794832 0.5 0 0 1 I I -0.70710678118654746 0.70710678118654746 0.5 forward I I I I #
loop $-1 $-1 $137 $34 #
coedge $-1 $86 $86 $138 $139 reversed $54 $-1 #
face $-1 $140 $141 $21 $-1 $142 reversed single #
loop $-1 $-1 $143 $56 #
plane-surface $-1 0 -23.529850658739843 0 0 1 0 0 0 1 forward_v I I I I #
coedge $-1 $144 $145 $146 $147 forward $57 $-1 #
coedge $-1 $148 $59 $149 $150 forward $36 $-1 #
coedge $-1 $59 $148 $151 $152 forward $36 $-1 #
coedge $-1 $153 $154 $59 $94 reversed $155 $-1 #
edge $-1 $156 -23.529850658739843 $157 23.529850658739843 $93 $158 forward 7 unknown #
face $-1 $159 $160 $22 $-1 $161 reversed single #
loop $-1 $-1 $162 $60 #
plane-surface $-1 -43.746534697021033 0 4.1609374268813051 -1 0 0 0 0 1 forward_v I I I I #
coedge $-1 $163 $164 $165 $166 forward $61 $-1 #
coedge $-1 $167 $63 $168 $169 reversed $39 $-1 #
coedge $-1 $63 $167 $170 $171 reversed $39 $-1 #
coedge $-1 $162 $172 $63 $102 reversed $96 $-1 #
edge $-1 $173 -23.529850658739843 $174 23.529850658739843 $101 $175 forward 7 unknown #
face $-1 $176 $177 $23 $-1 $178 forward single #
loop $-1 $-1 $179 $64 #
plane-surface $-1 20.276563219777646 -103.66219292920066 66.430315220209508 -1 0 0 0 -0.77714596973225614 0.62932038083071107 forward_v I I I I #
coedge $-1 $180 $181 $182 $183 reversed $65 $-1 #
coedge $-1 $108 $67 $184 $185 reversed $42 $-1 #
coedge $-1 $67 $107 $180 $186 reversed $42 $-1 #
coedge $-1 $182 $187 $67 $110 forward $188 $-1 #
edge $-1 $189 26.05911583729857 $190 31.674731958359672 $109 $191 forward 7 unknown #
loop $-1 $-1 $116 $68 #
plane-surface $-1 7.5849879228184705 -23.529850658739832 1.540425651745096 0 -0.77714596973225614 0.62932038083071107 1 0 0 forward_v I I I I #
loop $-1 $-1 $192 $44 #
coedge $-1 $114 $114 $115 $193 reversed $69 $-1 #
coedge $-1 $115 $115 $114 $193 forward $71 $-1 #
coedge $-1 $116 $116 $72 $117 forward $111 $-1 #
edge $-1 $194 4.6016285284874441e-016 $194 6.2831853071796013 $116 $195 forward 7 unknown #
face $-1 $196 $197 $25 $-1 $198 reversed single #
loop $-1 $-1 $199 $73 #
plane-surface $-1 -9.8198934752930001 61.304894453232308 110.27432267671092 -1 0 0 0 0.69465837861970381 0.71933979245794832 forward_v I I I I #
coedge $-1 $200 $201 $202 $203 reversed $74 $-1 #
coedge $-1 $123 $76 $204 $205 reversed $48 $-1 #
coedge $-1 $76 $122 $200 $206 reversed $48 $-1 #
coedge $-1 $202 $207 $76 $125 forward $208 $-1 #
edge $-1 $209 7.122596567876311 $210 10.99964387669727 $124 $211 forward 7 unknown #
loop $-1 $-1 $131 $77 #
plane-surface $-1 -23.073095664840444 -10.322065120109045 36.102436437808294 0 0.69465837861970381 0.71933979245794832 1 0 0 forward_v I I I I #
loop $-1 $-1 $212 $50 #
coedge $-1 $129 $129 $130 $213 reversed $78 $-1 #
coedge $-1 $130 $130 $129 $213 forward $80 $-1 #
coedge $-1 $131 $131 $81 $132 forward $126 $-1 #
edge $-1 $214 7.9235257406443392e-016 $214 6.2831853071796013 $131 $215 forward 7 unknown #
loop $-1 $-1 $138 $82 #
plane-surface $-1 -23.073095664840444 -10.322065120109045 36.102436437808294 0 0.69465837861970381 0.71933979245794832 1 0 0 forward_v I I I I #
loop $-1 $-1 $216 $53 #
coedge $-1 $136 $136 $137 $217 reversed $83 $-1 #
coedge $-1 $137 $137 $136 $217 forward $85 $-1 #
coedge $-1 $138 $138 $86 $139 forward $133 $-1 #
edge $-1 $218 7.9235257406443392e-016 $218 6.2831853071796013 $138 $219 forward 7 unknown #
face $-1 $220 $221 $21 $-1 $222 reversed single #
loop $-1 $-1 $223 $87 #
plane-surface $-1 -51.555528427991575 0 0 1 0 0 0 0 -1 forward_v I I I I #
coedge $-1 $224 $151 $225 $226 forward $88 $-1 #
coedge $-1 $227 $90 $224 $228 forward $57 $-1 #
coedge $-1 $90 $227 $229 $230 forward $57 $-1 #
coedge $-1 $154 $153 $90 $147 reversed $155 $-1 #
edge $-1 $231 -23.529850658739843 $232 23.529850658739843 $146 $233 forward 7 unknown #
coedge $-1 $92 $91 $234 $235 forward $36 $-1 #
coedge $-1 $236 $237 $91 $150 reversed $221 $-1 #
edge $-1 $157 -51.555528427991575 $238 51.555528427991575 $149 $239 forward 7 unknown #
coedge $-1 $143 $240 $92 $152 reversed $88 $-1 #
edge $-1 $241 -51.555528427991575 $156 51.555528427991575 $151 $242 forward 7 unknown #
coedge $-1 $146 $93 $240 $243 forward $155 $-1 #
coedge $-1 $93 $146 $236 $244 reversed $155 $-1 #
loop $-1 $-1 $153 $220 #
vertex $-1 $94 $245 #
vertex $-1 $94 $246 #
straight-curve $-1 51.555528427991575 0 7.1560417728061827 0 1 0 I I #
face $-1 $247 $248 $22 $-1 $249 reversed single #
loop $-1 $-1 $250 $95 #
plane-surface $-1 0 -23.529850658739843 0 0 1 0 0 0 1 forward_v I I I I #
coedge $-1 $165 $101 $251 $252 reversed $96 $-1 #
coedge $-1 $253 $98 $250 $254 reversed $61 $-1 #
coedge $-1 $98 $253 $255 $256 reversed $61 $-1 #
coedge $-1 $172 $162 $98 $166 reversed $96 $-1 #
edge $-1 $257 -23.529850658739843 $258 23.529850658739843 $165 $259 forward 7 unknown #
coedge $-1 $100 $99 $260 $261 reversed $39 $-1 #
coedge $-1 $262 $263 $99 $169 forward $264 $-1 #
edge $-1 $265 -27.730012646738423 $174 -19.921018915767881 $168 $266 forward 7 unknown #
coedge $-1 $267 $251 $100 $171 forward $160 $-1 #
edge $-1 $173 19.921018915767881 $268 27.730012646738423 $170 $269 forward 7 unknown #
coedge $-1 $101 $165 $262 $270 reversed $96 $-1 #
vertex $-1 $171 $271 #
vertex $-1 $169 $272 #
straight-curve $-1 -43.746534697021033 0 5.7545200316968037 0 1 0 I I #
face $-1 $-1 $188 $23 $-1 $273 reversed single #
loop $-1 $-1 $274 $103 #
plane-surface $-1 0 0 7.1560417728061827 0 0 1 1 0 0 forward_v I I I I #
coedge $-1 $275 $276 $277 $278 reversed $104 $-1 #
coedge $-1 $279 $106 $108 $186 forward $65 $-1 #
coedge $-1 $106 $279 $275 $280 forward $65 $-1 #
coedge $-1 $277 $109 $106 $183 forward $188 $-1 #
edge $-1 $190 -8.8990813355499405 $281 16.484069258368411 $182 $282 forward 7 unknown #
coedge $-1 $283 $284 $107 $185 forward $177 $-1 #
edge $-1 $285 -32.848681954982894 $189 -28.301245805860486 $184 $286 forward 7 unknown #
edge $-1 $190 -1.6888488495254095e-014 $285 7.2259476852151572 $108 $287 forward 7 unknown #
coedge $-1 $109 $277 $283 $288 reversed $188 $-1 #
loop $-1 $-1 $277 $176 #
vertex $-1 $288 $289 #
vertex $-1 $110 $290 #
straight-curve $-1 -5.1065873741407053 -23.529850658739846 33.215157610104754 0 0 -1 I I #
coedge $-1 $192 $192 $-1 $291 reversed $113 $-1 #
edge $-1 $292 0 $292 6.2831853071796004 $114 $293 forward 7 unknown #
vertex $-1 $117 $294 #
ellipse-curve $-1 7.5849879228184633 -21.256132584178637 4.3482337122756327 0 -0.77714596973225614 0.62932038083071107 1.5 0 0 1 I I #
face $-1 $-1 $208 $25 $-1 $295 forward single #
loop $-1 $-1 $296 $118 #
plane-surface $-1 0 23.529850658739843 0 0 -1 0 0 0 -1 forward_v I I I I #
coedge $-1 $297 $298 $299 $300 reversed $119 $-1 #
coedge $-1 $301 $121 $123 $206 forward $74 $-1 #
coedge $-1 $121 $301 $297 $302 forward $74 $-1 #
coedge $-1 $299 $124 $121 $203 forward $208 $-1 #
edge $-1 $210 -24.789750021967667 $303 1.7166543571272221 $202 $304 forward 7 unknown #
coedge $-1 $305 $306 $122 $205 forward $197 $-1 #
edge $-1 $307 -51.72514071607516 $209 -47.981119565549278 $204 $308 forward 7 unknown #
edge $-1 $210 41.669971249060602 $307 47.059701317479707 $123 $309 forward 7 unknown #
coedge $-1 $124 $299 $305 $310 forward $208 $-1 #
loop $-1 $-1 $299 $196 #
vertex $-1 $205 $311 #
vertex $-1 $125 $312 #
straight-curve $-1 -36.326297854387889 30.652447226616154 7.1560417728061836 0 -1 0 I I #
coedge $-1 $212 $212 $-1 $313 reversed $128 $-1 #
edge $-1 $314 0 $314 6.2831853071796004 $129 $315 forward 7 unknown #
vertex $-1 $132 $316 #
ellipse-curve $-1 -28.753039460360775 21.591327004329358 5.2840311975432446 0 0.69465837861970381 0.71933979245794832 1 0 0 1 I I #
coedge $-1 $216 $216 $-1 $317 reversed $135 $-1 #
edge $-1 $318 0 $318 6.2831853071796004 $136 $319 forward 7 unknown #
vertex $-1 $139 $320 #
ellipse-curve $-1 -17.393151869320107 21.591327004329358 5.2840311975432446 0 0.69465837861970381 0.71933979245794832 1 0 0 1 I I #
face $-1 $-1 $155 $21 $-1 $321 reversed single #
loop $-1 $-1 $236 $140 #
plane-surface $-1 0 23.529850658739843 0 0 -1 0 0 0 -1 forward_v I I I I #
coedge $-1 $322 $234 $237 $323 forward $141 $-1 #
coedge $-1 $240 $143 $144 $228 reversed $88 $-1 #
coedge $-1 $234 $322 $143 $226 reversed $141 $-1 #
edge $-1 $241 -7.1560417728061827 $324 7.1560417728061827 $225 $325 forward 7 unknown #
coedge $-1 $145 $144 $322 $326 forward $57 $-1 #
edge $-1 $232 -51.555528427991575 $324 51.555528427991575 $224 $327 forward 7 unknown #
coedge $-1 $237 $236 $145 $230 reversed $221 $-1 #
edge $-1 $328 -51.555528427991575 $231 51.555528427991575 $229 $329 forward 7 unknown #
vertex $-1 $147 $330 #
vertex $-1 $243 $331 #
straight-curve $-1 51.555528427991575 0 -7.1560417728061827 0 -1 0 I I #
coedge $-1 $223 $225 $148 $235 reversed $141 $-1 #
edge $-1 $238 -23.529850658739843 $241 23.529850658739843 $234 $332 forward 7 unknown #
coedge $-1 $229 $149 $154 $244 forward $221 $-1 #
coedge $-1 $149 $229 $223 $323 reversed $221 $-1 #
vertex $-1 $150 $333 #
straight-curve $-1 0 23.529850658739843 7.1560417728061827 -1 0 0 I I #
coedge $-1 $151 $224 $153 $243 reversed $88 $-1 #
vertex $-1 $235 $334 #
straight-curve $-1 0 -23.529850658739843 7.1560417728061827 1 0 0 I I #
edge $-1 $156 -7.1560417728061827 $232 7.1560417728061827 $153 $335 forward 7 unknown #
edge $-1 $157 -7.1560417728061827 $231 7.1560417728061827 $154 $336 forward 7 unknown #
point $-1 51.555528427991575 -23.529850658739843 7.1560417728061827 #
point $-1 51.555528427991575 23.529850658739843 7.1560417728061827 #
face $-1 $-1 $264 $22 $-1 $337 reversed single #
loop $-1 $-1 $338 $159 #
plane-surface $-1 -51.555528427991575 0 0 1 0 0 0 0 -1 forward_v I I I I #
coedge $-1 $251 $267 $163 $254 forward $160 $-1 #
coedge $-1 $170 $250 $162 $252 forward $160 $-1 #
edge $-1 $258 0.48688610862515391 $173 3.6740513182561512 $251 $339 forward 7 unknown #
coedge $-1 $164 $163 $338 $340 reversed $61 $-1 #
edge $-1 $341 -27.730012646738423 $258 -19.921018915767881 $250 $342 forward 7 unknown #
coedge $-1 $263 $262 $164 $256 forward $264 $-1 #
edge $-1 $257 19.921018915767881 $343 27.730012646738423 $255 $344 forward 7 unknown #
vertex $-1 $256 $345 #
vertex $-1 $254 $346 #
straight-curve $-1 -43.746534697021033 0 2.5673548220658065 0 -1 0 I I #
coedge $-1 $347 $348 $167 $261 forward $248 $-1 #
edge $-1 $268 -23.529850658739843 $265 23.529850658739843 $260 $349 forward 7 unknown #
coedge $-1 $255 $168 $172 $270 forward $264 $-1 #
coedge $-1 $168 $255 $347 $350 reversed $264 $-1 #
loop $-1 $-1 $255 $247 #
vertex $-1 $350 $351 #
straight-curve $-1 -23.825515781253152 23.529850658739843 5.7545200316968037 1 0 0 I I #
coedge $-1 $250 $170 $348 $352 forward $160 $-1 #
vertex $-1 $352 $353 #
straight-curve $-1 -23.825515781253152 -23.529850658739843 5.7545200316968037 -1 0 0 I I #
edge $-1 $174 -3.6740513182561512 $257 -0.48688610862515391 $262 $354 forward 7 unknown #
point $-1 -43.746534697021033 -23.529850658739843 5.7545200316968037 #
point $-1 -43.746534697021033 23.529850658739843 5.7545200316968037 #
plane-surface $-1 0 -23.529850658739843 0 0 1 0 0 0 1 forward_v I I I I #
coedge $-1 $284 $283 $276 $355 forward $177 $-1 #
coedge $-1 $276 $179 $181 $280 reversed $104 $-1 #
coedge $-1 $179 $275 $274 $355 reversed $104 $-1 #
coedge $-1 $187 $182 $179 $278 forward $188 $-1 #
edge $-1 $281 -31.674731958359672 $356 -26.05911583729857 $277 $357 forward 7 unknown #
coedge $-1 $181 $180 $284 $358 reversed $65 $-1 #
edge $-1 $359 -7.2259476852151572 $281 1.6888488495254095e-014 $275 $360 forward 7 unknown #
vertex $-1 $183 $361 #
straight-curve $-1 3.7924939614092352 -23.529850658739843 1.5404256517450832 1 0 0 I I #
coedge $-1 $274 $184 $187 $288 forward $177 $-1 #
coedge $-1 $184 $274 $279 $358 forward $177 $-1 #
vertex $-1 $185 $362 #
straight-curve $-1 -5.1065873741407053 -51.831096464600328 7.1560417728061836 0 -1 0 I I #
straight-curve $-1 -5.1065873741407053 -23.529850658739832 1.540425651745096 0 0.62932038083071107 0.77714596973225614 I I #
edge $-1 $189 -5.1065873741407053 $356 20.276563219777646 $187 $363 forward 7 unknown #
point $-1 -5.1065873741407053 -23.529850658739843 7.1560417728061827 #
point $-1 -5.1065873741407053 -23.529850658739843 1.5404256517450829 #
edge $-1 $364 1 $364 0 $192 $-1 forward 7 unknown #
vertex $-1 $193 $365 #
ellipse-curve $-1 7.5849879228184633 -19.062943030265213 2.5722238774974264 0 -0.77714596973225614 0.62932038083071107 1.5 0 0 1 I I #
point $-1 9.0849879228184633 -21.256132584178637 4.3482337122756336 #
plane-surface $-1 0 0 7.1560417728061827 0 0 1 1 0 0 forward_v I I I I #
coedge $-1 $306 $305 $298 $366 forward $197 $-1 #
coedge $-1 $298 $199 $201 $302 reversed $119 $-1 #
coedge $-1 $199 $297 $296 $366 reversed $119 $-1 #
coedge $-1 $207 $202 $199 $300 forward $208 $-1 #
edge $-1 $303 -10.99964387669727 $367 -7.122596567876311 $299 $368 forward 7 unknown #
coedge $-1 $201 $200 $306 $369 reversed $74 $-1 #
edge $-1 $370 -47.059701317479707 $303 -41.669971249060602 $297 $371 forward 7 unknown #
vertex $-1 $203 $372 #
straight-curve $-1 -11.536547832420222 19.65280334991888 7.1560417728061836 1 0 0 I I #
coedge $-1 $296 $204 $207 $310 reversed $197 $-1 #
coedge $-1 $204 $296 $301 $369 forward $197 $-1 #
vertex $-1 $205 $373 #
straight-curve $-1 -36.326297854387889 23.529850658739843 55.137161338355462 0 0 1 I I #
straight-curve $-1 -36.326297854387889 -10.322065120109045 36.102436437808294 0 0.71933979245794832 -0.69465837861970381 I I #
edge $-1 $367 9.8198934752930001 $209 36.326297854387889 $305 $374 forward 7 unknown #
point $-1 -36.326297854387889 23.529850658739843 7.1560417728061827 #
point $-1 -36.326297854387889 19.652803349918884 7.1560417728061836 #
edge $-1 $375 1 $375 0 $212 $-1 forward 7 unknown #
vertex $-1 $213 $376 #
ellipse-curve $-1 -28.753039460360775 19.263170979010074 2.8731551128257165 0 0.69465837861970381 0.71933979245794832 1 0 0 1 I I #
point $-1 -27.753039460360775 21.591327004329365 5.2840311975432508 #
edge $-1 $377 1 $377 0 $216 $-1 forward 7 unknown #
vertex $-1 $217 $378 #
ellipse-curve $-1 -17.393151869320107 19.263170979010074 2.8731551128257165 0 0.69465837861970381 0.71933979245794832 1 0 0 1 I I #
point $-1 -16.393151869320107 21.591327004329365 5.2840311975432508 #
plane-surface $-1 51.555528427991575 0 0 -1 0 0 0 0 1 forward_v I I I I #
coedge $-1 $225 $223 $227 $326 reversed $141 $-1 #
edge $-1 $238 -7.1560417728061827 $328 7.1560417728061827 $237 $379 forward 7 unknown #
vertex $-1 $326 $380 #
straight-curve $-1 -51.555528427991575 -23.529850658739843 0 0 0 -1 I I #
edge $-1 $324 -23.529850658739843 $328 23.529850658739843 $322 $381 forward 7 unknown #
straight-curve $-1 0 -23.529850658739843 -7.1560417728061827 -1 0 0 I I #
vertex $-1 $230 $382 #
straight-curve $-1 0 23.529850658739843 -7.1560417728061827 1 0 0 I I #
point $-1 51.555528427991575 23.529850658739843 -7.1560417728061827 #
point $-1 51.555528427991575 -23.529850658739843 -7.1560417728061827 #
straight-curve $-1 -51.555528427991575 0 7.1560417728061827 0 -1 0 I I #
point $-1 -51.555528427991575 23.529850658739843 7.1560417728061827 #
point $-1 -51.555528427991575 -23.529850658739843 7.1560417728061827 #
straight-curve $-1 51.555528427991575 -23.529850658739843 0 0 0 -1 I I #
straight-curve $-1 51.555528427991575 23.529850658739843 0 0 0 -1 I I #
plane-surface $-1 0 23.529850658739843 0 0 -1 0 0 0 -1 forward_v I I I I #
coedge $-1 $348 $347 $253 $340 forward $248 $-1 #
straight-curve $-1 -43.746534697021033 -23.529850658739843 2.0804687134406525 0 0 1 I I #
edge $-1 $343 -23.529850658739843 $341 23.529850658739843 $338 $383 forward 7 unknown #
vertex $-1 $254 $384 #
straight-curve $-1 -23.825515781253152 -23.529850658739843 2.5673548220658065 1 0 0 I I #
vertex $-1 $256 $385 #
straight-curve $-1 -23.825515781253152 23.529850658739843 2.5673548220658065 -1 0 0 I I #
point $-1 -43.746534697021033 23.529850658739843 2.5673548220658065 #
point $-1 -43.746534697021033 -23.529850658739843 2.5673548220658065 #
coedge $-1 $338 $260 $263 $350 forward $248 $-1 #
coedge $-1 $260 $338 $267 $352 reversed $248 $-1 #
straight-curve $-1 -51.555528427991575 0 5.7545200316968037 0 1 0 I I #
edge $-1 $265 -5.7545200316968037 $343 -2.5673548220658065 $263 $386 forward 7 unknown #
point $-1 -51.555528427991575 23.529850658739843 5.7545200316968037 #
edge $-1 $268 -5.7545200316968037 $341 -2.5673548220658065 $348 $387 forward 7 unknown #
point $-1 -51.555528427991575 -23.529850658739843 5.7545200316968037 #
straight-curve $-1 -43.746534697021033 23.529850658739843 2.0804687134406525 0 0 -1 I I #
edge $-1 $356 28.301245805860486 $359 32.848681954982894 $274 $388 forward 7 unknown #
vertex $-1 $355 $389 #
straight-curve $-1 20.276563219777646 -23.529850658739846 33.215157610104754 0 0 1 I I #
edge $-1 $359 -16.484069258368411 $285 8.8990813355499405 $284 $390 forward 7 unknown #
vertex $-1 $358 $391 #
straight-curve $-1 20.276563219777646 -23.529850658739832 1.540425651745096 0 -0.62932038083071107 -0.77714596973225614 I I #
point $-1 20.276563219777646 -23.529850658739843 1.5404256517450829 #
point $-1 -5.1065873741407053 -18.982414509617435 7.1560417728061827 #
straight-curve $-1 0 -23.529850658739843 7.1560417728061827 1 0 0 I I #
vertex $-1 $291 $392 #
point $-1 9.0849879228184633 -19.062943030265213 2.5722238774974264 #
edge $-1 $367 47.981119565549278 $370 51.72514071607516 $296 $393 forward 7 unknown #
vertex $-1 $310 $394 #
straight-curve $-1 -9.8198934752930001 30.652447226616154 7.1560417728061836 0 1 0 I I #
edge $-1 $370 -1.7166543571272221 $307 24.789750021967667 $306 $395 forward 7 unknown #
vertex $-1 $369 $396 #
straight-curve $-1 -9.8198934752930001 -10.322065120109045 36.102436437808294 0 -0.71933979245794832 0.69465837861970381 I I #
point $-1 -9.8198934752930001 19.652803349918884 7.1560417728061836 #
point $-1 -36.326297854387889 23.529850658739846 3.412020622280302 #
straight-curve $-1 0 23.529850658739843 7.1560417728061827 -1 0 0 I I #
vertex $-1 $313 $397 #
point $-1 -27.753039460360775 19.263170979010074 2.8731551128257165 #
vertex $-1 $317 $398 #
point $-1 -16.393151869320107 19.263170979010074 2.8731551128257165 #
straight-curve $-1 -51.555528427991575 23.529850658739843 0 0 0 -1 I I #
point $-1 -51.555528427991575 -23.529850658739843 -7.1560417728061827 #
straight-curve $-1 -51.555528427991575 0 -7.1560417728061827 0 1 0 I I #
point $-1 -51.555528427991575 23.529850658739843 -7.1560417728061827 #
straight-curve $-1 -51.555528427991575 0 2.5673548220658065 0 -1 0 I I #
point $-1 -51.555528427991575 -23.529850658739843 2.5673548220658065 #
point $-1 -51.555528427991575 23.529850658739843 2.5673548220658065 #
straight-curve $-1 -51.555528427991575 23.529850658739843 0 0 0 -1 I I #
straight-curve $-1 -51.555528427991575 -23.529850658739843 0 0 0 -1 I I #
straight-curve $-1 20.276563219777646 -51.831096464600328 7.1560417728061836 0 1 0 I I #
point $-1 20.276563219777646 -23.529850658739843 7.1560417728061827 #
straight-curve $-1 3.7924939614092352 -18.982414509617435 7.1560417728061827 -1 0 0 I I #
point $-1 20.276563219777646 -18.982414509617435 7.1560417728061827 #
point $-1 7.5849879228184633 -17.897224075666831 1.6282433062513599 #
straight-curve $-1 -9.8198934752930001 23.529850658739843 55.137161338355462 0 0 -1 I I #
point $-1 -9.8198934752930001 23.529850658739843 7.1560417728061827 #
straight-curve $-1 -11.536547832420222 23.529850658739843 3.4120206222803038 -1 0 0 I I #
point $-1 -9.8198934752930001 23.529850658739846 3.412020622280302 #
point $-1 -28.753039460360775 18.568512600390367 2.1538153203677686 #
point $-1 -17.393151869320107 18.568512600390367 2.1538153203677686 #
End-of-ACIS-data 