500 0 3 0           
7 Unknown 11 ACIS 5.0 NT 24 Fri Mar 26 01:09:42 1999 
-1 9.9999999999999995e-007 1e-010 
body $-1 $3 $-1 $4 #
body $-1 $5 $-1 $6 #
body $-1 $7 $-1 $8 #
lump $-1 $-1 $9 $0 #
transform $-1 1 0 0 0 1 0 0 0 1 58.414868617816708 38.154801602403644 18.366168377765192 1 rotate no_reflect no_shear #
lump $-1 $-1 $10 $1 #
transform $-1 1 0 0 0 1 0 0 0 1 58.414868617816708 38.154801602403644 18.366168377765192 1 rotate no_reflect no_shear #
lump $-1 $-1 $11 $2 #
transform $-1 1 0 0 0 1 0 0 0 1 58.414868617816708 38.154801602403644 18.366168377765192 1 rotate no_reflect no_shear #
shell $-1 $-1 $-1 $12 $-1 $3 #
shell $-1 $-1 $-1 $13 $-1 $5 #
shell $-1 $-1 $-1 $14 $-1 $7 #
face $-1 $15 $16 $9 $-1 $17 forward single #
face $-1 $18 $19 $10 $-1 $20 reversed single #
face $-1 $21 $22 $11 $-1 $23 forward single #
face $-1 $24 $25 $9 $-1 $26 reversed single #
loop $-1 $-1 $27 $12 #
plane-surface $-1 0 0 18.366168377765192 0 0 1 1 0 0 forward_v I I I I #
face $-1 $28 $29 $10 $-1 $30 reversed single #
loop $-1 $-1 $31 $13 #
plane-surface $-1 -46.834967786929028 0 13.259603430639501 0 0 1 1 0 0 forward_v I I I I #
face $-1 $32 $33 $11 $-1 $34 reversed single #
loop $-1 $-1 $35 $14 #
plane-surface $-1 51.795615664631711 0 -9.7315145593959116 0 0 1 1 0 0 forward_v I I I I #
face $-1 $36 $37 $9 $-1 $38 reversed single #
loop $-1 $-1 $39 $15 #
plane-surface $-1 0 0 -18.366168377765192 0 0 1 1 0 0 forward_v I I I I #
coedge $-1 $40 $41 $42 $43 forward $16 $-1 #
face $-1 $44 $45 $10 $-1 $46 reversed single #
loop $-1 $-1 $47 $18 #
plane-surface $-1 -35.255066956041347 0 15.812885904202346 -1 0 0 0 0 1 forward_v I I I I #
coedge $-1 $48 $49 $50 $51 forward $19 $-1 #
face $-1 $52 $53 $11 $-1 $54 reversed single #
loop $-1 $-1 $55 $21 #
plane-surface $-1 51.795615664631711 0 -17.866168377765192 0 0 1 1 0 0 forward_v I I I I #
coedge $-1 $56 $57 $58 $59 reversed $22 $-1 #
face $-1 $60 $61 $9 $-1 $62 reversed single #
loop $-1 $-1 $63 $24 #
plane-surface $-1 0 -38.154801602403644 0 0 1 0 0 0 1 forward_v I I I I #
coedge $-1 $64 $65 $66 $67 forward $25 $-1 #
coedge $-1 $68 $27 $69 $70 forward $16 $-1 #
coedge $-1 $27 $68 $71 $72 forward $16 $-1 #
coedge $-1 $73 $74 $27 $43 reversed $75 $-1 #
edge $-1 $76 -38.154801602403644 $77 38.154801602403644 $42 $78 forward 7 unknown #
face $-1 $79 $80 $10 $-1 $81 reversed single #
loop $-1 $-1 $82 $28 #
plane-surface $-1 0 38.154801602403644 0 0 -1 0 0 0 -1 forward_v I I I I #
coedge $-1 $50 $83 $84 $85 reversed $29 $-1 #
coedge $-1 $86 $31 $87 $88 reversed $19 $-1 #
coedge $-1 $31 $86 $89 $90 reversed $19 $-1 #
coedge $-1 $91 $47 $31 $51 reversed $29 $-1 #
edge $-1 $92 -38.154801602403644 $93 38.154801602403644 $50 $94 forward 7 unknown #
face $-1 $95 $96 $11 $-1 $97 reversed single #
loop $-1 $-1 $98 $32 #
plane-surface $-1 45.176362711446714 0 -13.798841468580552 1 0 0 0 0 -1 forward_v I I I I #
coedge $-1 $99 $100 $101 $102 reversed $33 $-1 #
coedge $-1 $103 $35 $104 $105 reversed $22 $-1 #
coedge $-1 $35 $103 $106 $107 reversed $22 $-1 #
coedge $-1 $108 $109 $35 $59 forward $110 $-1 #
edge $-1 $111 -38.154801602403644 $112 38.154801602403644 $58 $113 forward 7 unknown #
face $-1 $114 $115 $9 $-1 $116 reversed single #
loop $-1 $-1 $117 $36 #
plane-surface $-1 -58.414868617816708 0 0 1 0 0 0 0 -1 forward_v I I I I #
coedge $-1 $118 $71 $119 $120 forward $37 $-1 #
coedge $-1 $121 $39 $118 $122 forward $25 $-1 #
coedge $-1 $39 $121 $123 $124 forward $25 $-1 #
coedge $-1 $74 $73 $39 $67 reversed $75 $-1 #
edge $-1 $125 -38.154801602403644 $126 38.154801602403644 $66 $127 forward 7 unknown #
coedge $-1 $41 $40 $128 $129 forward $16 $-1 #
coedge $-1 $130 $131 $40 $70 reversed $115 $-1 #
edge $-1 $77 -58.414868617816708 $132 58.414868617816708 $69 $133 forward 7 unknown #
coedge $-1 $63 $134 $41 $72 reversed $37 $-1 #
edge $-1 $135 -58.414868617816708 $76 58.414868617816708 $71 $136 forward 7 unknown #
coedge $-1 $66 $42 $134 $137 forward $75 $-1 #
coedge $-1 $42 $66 $130 $138 reversed $75 $-1 #
loop $-1 $-1 $73 $114 #
vertex $-1 $43 $139 #
vertex $-1 $43 $140 #
straight-curve $-1 58.414868617816708 0 18.366168377765192 0 1 0 I I #
face $-1 $141 $142 $10 $-1 $143 forward single #
loop $-1 $-1 $144 $44 #
plane-surface $-1 -58.414868617816708 0 0 1 0 0 0 0 -1 forward_v I I I I #
coedge $-1 $89 $145 $91 $146 forward $45 $-1 #
coedge $-1 $47 $91 $147 $148 reversed $29 $-1 #
coedge $-1 $149 $87 $47 $85 forward $150 $-1 #
edge $-1 $93 5.353160478538328 $151 10.459725425664018 $84 $152 forward 7 unknown #
coedge $-1 $49 $48 $144 $153 reversed $19 $-1 #
coedge $-1 $84 $154 $48 $88 forward $150 $-1 #
edge $-1 $155 -34.997384724352194 $93 -11.837583062576833 $87 $156 forward 7 unknown #
coedge $-1 $157 $82 $49 $90 forward $45 $-1 #
edge $-1 $92 11.837583062576833 $158 34.997384724352194 $89 $159 forward 7 unknown #
coedge $-1 $83 $50 $82 $146 reversed $29 $-1 #
vertex $-1 $90 $160 #
vertex $-1 $88 $161 #
straight-curve $-1 -35.255066956041347 0 13.259603430639501 0 -1 0 I I #
face $-1 $162 $163 $11 $-1 $164 reversed single #
loop $-1 $-1 $106 $52 #
plane-surface $-1 0 -38.154801602403644 0 0 1 0 0 0 1 forward_v I I I I #
coedge $-1 $165 $166 $167 $168 reversed $53 $-1 #
coedge $-1 $169 $55 $170 $171 reversed $33 $-1 #
coedge $-1 $55 $169 $172 $173 reversed $33 $-1 #
coedge $-1 $109 $108 $55 $102 forward $110 $-1 #
edge $-1 $174 -38.154801602403644 $175 38.154801602403644 $101 $176 forward 7 unknown #
coedge $-1 $57 $56 $166 $177 forward $22 $-1 #
coedge $-1 $178 $167 $56 $105 forward $163 $-1 #
edge $-1 $179 19.278554879130859 $111 32.517060785500853 $104 $180 forward 7 unknown #
coedge $-1 $181 $182 $57 $107 forward $96 $-1 #
edge $-1 $112 -32.517060785500853 $183 -19.278554879130859 $106 $184 forward 7 unknown #
coedge $-1 $101 $58 $182 $185 forward $110 $-1 #
coedge $-1 $58 $101 $178 $186 reversed $110 $-1 #
loop $-1 $-1 $58 $162 #
vertex $-1 $186 $187 #
vertex $-1 $185 $188 #
straight-curve $-1 58.414868617816708 0 -9.7315145593959116 0 -1 0 I I #
face $-1 $-1 $75 $9 $-1 $189 reversed single #
loop $-1 $-1 $130 $60 #
plane-surface $-1 0 38.154801602403644 0 0 -1 0 0 0 -1 forward_v I I I I #
coedge $-1 $190 $128 $131 $191 forward $61 $-1 #
coedge $-1 $134 $63 $64 $122 reversed $37 $-1 #
coedge $-1 $128 $190 $63 $120 reversed $61 $-1 #
edge $-1 $135 -18.366168377765192 $192 18.366168377765192 $119 $193 forward 7 unknown #
coedge $-1 $65 $64 $190 $194 forward $25 $-1 #
edge $-1 $126 -58.414868617816708 $192 58.414868617816708 $118 $195 forward 7 unknown #
coedge $-1 $131 $130 $65 $124 reversed $115 $-1 #
edge $-1 $196 -58.414868617816708 $125 58.414868617816708 $123 $197 forward 7 unknown #
vertex $-1 $67 $198 #
vertex $-1 $137 $199 #
straight-curve $-1 58.414868617816708 0 -18.366168377765192 0 -1 0 I I #
coedge $-1 $117 $119 $68 $129 reversed $61 $-1 #
edge $-1 $132 -38.154801602403644 $135 38.154801602403644 $128 $200 forward 7 unknown #
coedge $-1 $123 $69 $74 $138 forward $115 $-1 #
coedge $-1 $69 $123 $117 $191 reversed $115 $-1 #
vertex $-1 $70 $201 #
straight-curve $-1 0 38.154801602403644 18.366168377765192 -1 0 0 I I #
coedge $-1 $71 $118 $73 $137 reversed $37 $-1 #
vertex $-1 $129 $202 #
straight-curve $-1 0 -38.154801602403644 18.366168377765192 1 0 0 I I #
edge $-1 $76 -18.366168377765192 $126 18.366168377765192 $73 $203 forward 7 unknown #
edge $-1 $77 -18.366168377765192 $125 18.366168377765192 $74 $204 forward 7 unknown #
point $-1 58.414868617816708 -38.154801602403644 18.366168377765192 #
point $-1 58.414868617816708 38.154801602403644 18.366168377765192 #
face $-1 $-1 $150 $10 $-1 $205 reversed single #
loop $-1 $-1 $147 $79 #
plane-surface $-1 0 0 18.366168377765192 0 0 1 1 0 0 forward_v I I I I #
coedge $-1 $206 $207 $86 $153 forward $80 $-1 #
coedge $-1 $82 $157 $208 $209 reversed $45 $-1 #
edge $-1 $210 -10.459725425664018 $92 -5.353160478538328 $82 $211 forward 7 unknown #
coedge $-1 $208 $212 $83 $148 forward $142 $-1 #
edge $-1 $151 -38.154801602403644 $210 38.154801602403644 $147 $213 forward 7 unknown #
coedge $-1 $154 $84 $212 $214 reversed $150 $-1 #
loop $-1 $-1 $84 $141 #
vertex $-1 $85 $215 #
straight-curve $-1 -35.255066956041347 -38.154801602403644 7.9064429521011732 0 0 1 I I #
edge $-1 $158 -38.154801602403644 $155 38.154801602403644 $144 $216 forward 7 unknown #
coedge $-1 $87 $149 $206 $217 forward $150 $-1 #
vertex $-1 $153 $218 #
straight-curve $-1 -23.417483893464514 -38.154801602403644 13.259603430639501 1 0 0 I I #
coedge $-1 $145 $89 $207 $219 reversed $45 $-1 #
vertex $-1 $153 $220 #
straight-curve $-1 -23.417483893464514 38.154801602403644 13.259603430639501 -1 0 0 I I #
point $-1 -35.255066956041347 38.154801602403644 13.259603430639501 #
point $-1 -35.255066956041347 -38.154801602403644 13.259603430639501 #
face $-1 $-1 $110 $11 $-1 $221 reversed single #
loop $-1 $-1 $104 $95 #
plane-surface $-1 0 38.154801602403644 0 0 -1 0 0 0 -1 forward_v I I I I #
coedge $-1 $222 $98 $169 $223 reversed $53 $-1 #
coedge $-1 $98 $222 $103 $177 reversed $53 $-1 #
coedge $-1 $104 $172 $98 $168 forward $163 $-1 #
edge $-1 $224 -10.966747643474916 $179 -2.8320938251056358 $167 $225 forward 7 unknown #
coedge $-1 $100 $99 $165 $223 forward $33 $-1 #
coedge $-1 $182 $181 $99 $171 forward $96 $-1 #
edge $-1 $226 19.278554879130859 $174 32.517060785500853 $170 $227 forward 7 unknown #
coedge $-1 $167 $178 $100 $173 forward $163 $-1 #
edge $-1 $175 -32.517060785500853 $224 -19.278554879130859 $172 $228 forward 7 unknown #
vertex $-1 $102 $229 #
vertex $-1 $102 $230 #
straight-curve $-1 58.414868617816708 0 -17.866168377765192 0 1 0 I I #
edge $-1 $179 -38.154801602403644 $183 38.154801602403644 $166 $231 forward 7 unknown #
coedge $-1 $172 $104 $109 $186 forward $163 $-1 #
vertex $-1 $105 $232 #
straight-curve $-1 25.897807832315856 38.154801602403644 -9.7315145593959116 1 0 0 I I #
coedge $-1 $170 $106 $222 $233 forward $96 $-1 #
coedge $-1 $106 $170 $108 $185 reversed $96 $-1 #
vertex $-1 $107 $234 #
straight-curve $-1 25.897807832315856 -38.154801602403644 -9.7315145593959116 -1 0 0 I I #
edge $-1 $112 9.7315145593959116 $174 17.866168377765192 $108 $235 forward 7 unknown #
edge $-1 $111 9.7315145593959116 $175 17.866168377765192 $109 $236 forward 7 unknown #
point $-1 58.414868617816708 38.154801602403644 -9.7315145593959116 #
point $-1 58.414868617816708 -38.154801602403644 -9.7315145593959116 #
plane-surface $-1 58.414868617816708 0 0 -1 0 0 0 0 1 forward_v I I I I #
coedge $-1 $119 $117 $121 $194 reversed $61 $-1 #
edge $-1 $132 -18.366168377765192 $196 18.366168377765192 $131 $237 forward 7 unknown #
vertex $-1 $194 $238 #
straight-curve $-1 -58.414868617816708 -38.154801602403644 0 0 0 -1 I I #
edge $-1 $192 -38.154801602403644 $196 38.154801602403644 $190 $239 forward 7 unknown #
straight-curve $-1 0 -38.154801602403644 -18.366168377765192 -1 0 0 I I #
vertex $-1 $124 $240 #
straight-curve $-1 0 38.154801602403644 -18.366168377765192 1 0 0 I I #
point $-1 58.414868617816708 38.154801602403644 -18.366168377765192 #
point $-1 58.414868617816708 -38.154801602403644 -18.366168377765192 #
straight-curve $-1 -58.414868617816708 0 18.366168377765192 0 -1 0 I I #
point $-1 -58.414868617816708 38.154801602403644 18.366168377765192 #
point $-1 -58.414868617816708 -38.154801602403644 18.366168377765192 #
straight-curve $-1 58.414868617816708 -38.154801602403644 0 0 0 -1 I I #
straight-curve $-1 58.414868617816708 38.154801602403644 0 0 0 -1 I I #
plane-surface $-1 0 -38.154801602403644 0 0 1 0 0 0 1 forward_v I I I I #
coedge $-1 $241 $144 $154 $217 reversed $80 $-1 #
coedge $-1 $144 $241 $157 $219 forward $80 $-1 #
coedge $-1 $242 $147 $145 $209 forward $142 $-1 #
edge $-1 $210 35.255066956041347 $243 58.414868617816708 $145 $244 forward 7 unknown #
vertex $-1 $209 $245 #
straight-curve $-1 -35.255066956041347 38.154801602403644 7.9064429521011732 0 0 -1 I I #
coedge $-1 $147 $242 $149 $214 forward $142 $-1 #
straight-curve $-1 -35.255066956041347 0 18.366168377765192 0 1 0 I I #
edge $-1 $246 -58.414868617816708 $151 -35.255066956041347 $149 $247 forward 7 unknown #
point $-1 -35.255066956041347 -38.154801602403644 18.366168377765192 #
straight-curve $-1 -58.414868617816708 0 13.259603430639501 0 -1 0 I I #
edge $-1 $246 -18.366168377765192 $155 -13.259603430639501 $206 $248 forward 7 unknown #
point $-1 -58.414868617816708 -38.154801602403644 13.259603430639501 #
edge $-1 $243 -18.366168377765192 $158 -13.259603430639501 $157 $249 forward 7 unknown #
point $-1 -58.414868617816708 38.154801602403644 13.259603430639501 #
plane-surface $-1 58.414868617816708 0 0 -1 0 0 0 0 1 forward_v I I I I #
coedge $-1 $166 $165 $181 $233 reversed $53 $-1 #
edge $-1 $226 -38.154801602403644 $224 38.154801602403644 $165 $250 forward 7 unknown #
vertex $-1 $173 $251 #
straight-curve $-1 45.176362711446714 38.154801602403644 -6.8994207342902758 0 0 1 I I #
vertex $-1 $171 $252 #
straight-curve $-1 25.897807832315856 -38.154801602403644 -17.866168377765192 1 0 0 I I #
straight-curve $-1 25.897807832315856 38.154801602403644 -17.866168377765192 -1 0 0 I I #
point $-1 58.414868617816708 -38.154801602403644 -17.866168377765192 #
point $-1 58.414868617816708 38.154801602403644 -17.866168377765192 #
straight-curve $-1 45.176362711446714 0 -9.7315145593959116 0 -1 0 I I #
point $-1 45.176362711446714 38.154801602403644 -9.7315145593959116 #
edge $-1 $183 2.8320938251056358 $226 10.966747643474916 $181 $253 forward 7 unknown #
point $-1 45.176362711446714 -38.154801602403644 -9.7315145593959116 #
straight-curve $-1 58.414868617816708 -38.154801602403644 0 0 0 -1 I I #
straight-curve $-1 58.414868617816708 38.154801602403644 0 0 0 -1 I I #
straight-curve $-1 -58.414868617816708 38.154801602403644 0 0 0 -1 I I #
point $-1 -58.414868617816708 -38.154801602403644 -18.366168377765192 #
straight-curve $-1 -58.414868617816708 0 -18.366168377765192 0 1 0 I I #
point $-1 -58.414868617816708 38.154801602403644 -18.366168377765192 #
coedge $-1 $207 $206 $242 $254 reversed $80 $-1 #
coedge $-1 $212 $208 $241 $254 forward $142 $-1 #
vertex $-1 $209 $255 #
straight-curve $-1 0 38.154801602403644 18.366168377765192 -1 0 0 I I #
point $-1 -35.255066956041347 38.154801602403644 18.366168377765192 #
vertex $-1 $254 $256 #
straight-curve $-1 0 -38.154801602403644 18.366168377765192 1 0 0 I I #
straight-curve $-1 -58.414868617816708 -38.154801602403644 0 0 0 -1 I I #
straight-curve $-1 -58.414868617816708 38.154801602403644 0 0 0 -1 I I #
straight-curve $-1 45.176362711446714 0 -17.866168377765192 0 1 0 I I #
point $-1 45.176362711446714 38.154801602403644 -17.866168377765192 #
point $-1 45.176362711446714 -38.154801602403644 -17.866168377765192 #
straight-curve $-1 45.176362711446714 -38.154801602403644 -6.8994207342902758 0 0 -1 I I #
edge $-1 $243 -38.154801602403644 $246 38.154801602403644 $241 $257 forward 7 unknown #
point $-1 -58.414868617816708 38.154801602403644 18.366168377765192 #
point $-1 -58.414868617816708 -38.154801602403644 18.366168377765192 #
straight-curve $-1 -58.414868617816708 0 18.366168377765192 0 -1 0 I I #
End-of-ACIS-data 