500 0 7 0           
7 Unknown 11 ACIS 5.0 NT 24 Thu Mar 25 20:05:13 1999 
-1 9.9999999999999995e-007 1e-010 
body $-1 $7 $-1 $8 #
body $-1 $9 $-1 $10 #
body $-1 $11 $-1 $12 #
body $-1 $13 $-1 $14 #
body $-1 $15 $-1 $16 #
body $-1 $17 $-1 $18 #
body $-1 $19 $-1 $20 #
lump $-1 $-1 $21 $0 #
transform $-1 1 0 0 0 1 0 0 0 1 67.459334086123235 34.221092655609532 14.57897710885895 1 rotate no_reflect no_shear #
lump $-1 $-1 $22 $1 #
transform $-1 1 0 0 0 1 0 0 0 1 7.6244041472186384 1.9302339668374517 14.57897710885895 1 rotate no_reflect no_shear #
lump $-1 $-1 $23 $2 #
transform $-1 1 0 0 0 1 0 0 0 1 129.86578255519242 34.221092655609532 24.188050693649679 1 rotate no_reflect no_shear #
lump $-1 $-1 $24 $3 #
transform $-1 1 0 0 0 0.7313536940579346 -0.68199836817093118 0 0.68199836817093118 0.7313536940579346 78.656369714895547 110.40105178372875 164.5115380781908 1 rotate no_reflect no_shear #
lump $-1 $-1 $25 $4 #
transform $-1 1 0 0 0 -0.7313536940579346 0.68199836817093118 0 -0.68199836817093118 -0.7313536940579346 78.656369714895547 56.91644671314149 17.547771681915407 1 rotate no_reflect no_shear #
lump $-1 $-1 $26 $5 #
transform $-1 1 0 0 0 0.7313536940579346 0.68199836817093118 0 -0.68199836817093118 0.7313536940579346 78.656369714895547 -92.014311529267445 117.83407938188691 1 rotate no_reflect no_shear #
lump $-1 $-1 $27 $6 #
transform $-1 1 0 0 0 -0.7313536940579346 -0.68199836817093118 0 0.68199836817093118 -0.7313536940579346 78.656369714895547 11.525738598077579 17.5477716819154 1 rotate no_reflect no_shear #
shell $-1 $-1 $-1 $28 $-1 $7 #
shell $-1 $-1 $-1 $29 $-1 $9 #
shell $-1 $-1 $-1 $30 $-1 $11 #
shell $-1 $-1 $-1 $31 $-1 $13 #
shell $-1 $-1 $-1 $32 $-1 $15 #
shell $-1 $-1 $-1 $33 $-1 $17 #
shell $-1 $-1 $-1 $34 $-1 $19 #
face $-1 $35 $36 $21 $-1 $37 forward single #
face $-1 $38 $39 $22 $-1 $40 forward single #
face $-1 $41 $42 $23 $-1 $43 forward single #
face $-1 $44 $45 $24 $-1 $46 forward single #
face $-1 $47 $48 $25 $-1 $49 forward single #
face $-1 $50 $51 $26 $-1 $52 forward single #
face $-1 $53 $54 $27 $-1 $55 forward single #
face $-1 $56 $57 $21 $-1 $58 reversed single #
loop $-1 $-1 $59 $28 #
plane-surface $-1 0 0 14.57897710885895 0 0 1 1 0 0 forward_v I I I I #
face $-1 $60 $61 $22 $-1 $62 reversed single #
loop $-1 $-1 $63 $29 #
plane-surface $-1 0 0 14.57897710885895 0 0 1 1 0 0 forward_v I I I I #
face $-1 $64 $65 $23 $-1 $66 reversed single #
loop $-1 $-1 $67 $30 #
plane-surface $-1 0 0 2.6266362914563075 0 0 1 1 0 0 forward_v I I I I #
face $-1 $68 $69 $24 $-1 $70 reversed single #
loop $-1 $-1 $71 $31 #
plane-surface $-1 0 0 134.9186681722465 0 0 1 1 0 0 forward_v I I I I #
face $-1 $72 $73 $25 $-1 $74 forward single #
loop $-1 $75 $76 $32 #
cone-surface $-1 0 0 -5.2701193273720524 0 0 1 3 0 0 1 I I 0 1 3 forward I I I I #
face $-1 $77 $78 $26 $-1 $79 reversed single #
loop $-1 $-1 $80 $33 #
plane-surface $-1 0 0 134.9186681722465 0 0 1 1 0 0 forward_v I I I I #
face $-1 $81 $82 $27 $-1 $83 forward single #
loop $-1 $84 $85 $34 #
cone-surface $-1 0 0 -5.2701193273720524 0 0 1 3 0 0 1 I I 0 1 3 forward I I I I #
face $-1 $86 $87 $21 $-1 $88 reversed single #
loop $-1 $-1 $89 $35 #
plane-surface $-1 0 0 -14.57897710885895 0 0 1 1 0 0 forward_v I I I I #
coedge $-1 $90 $91 $92 $93 forward $36 $-1 #
face $-1 $94 $95 $22 $-1 $96 reversed single #
loop $-1 $-1 $97 $38 #
plane-surface $-1 0 0 -14.57897710885895 0 0 1 1 0 0 forward_v I I I I #
coedge $-1 $98 $99 $100 $101 forward $39 $-1 #
face $-1 $102 $103 $23 $-1 $104 reversed single #
loop $-1 $-1 $105 $41 #
plane-surface $-1 0 0 -2.6266362914563075 0 0 1 1 0 0 forward_v I I I I #
coedge $-1 $106 $107 $108 $109 forward $42 $-1 #
face $-1 $110 $111 $24 $-1 $112 reversed single #
loop $-1 $-1 $113 $44 #
plane-surface $-1 0 0 -134.9186681722465 0 0 1 1 0 0 forward_v I I I I #
coedge $-1 $114 $115 $116 $117 forward $45 $-1 #
face $-1 $-1 $118 $25 $-1 $119 forward single #
loop $-1 $-1 $120 $47 #
plane-surface $-1 0 0 -9.0402386547441047 0 0 -1 -1 0 0 forward_v I I I I #
loop $-1 $-1 $121 $32 #
coedge $-1 $76 $76 $120 $122 reversed $48 $-1 #
face $-1 $123 $124 $26 $-1 $125 reversed single #
loop $-1 $-1 $126 $50 #
plane-surface $-1 0 0 -134.9186681722465 0 0 1 1 0 0 forward_v I I I I #
coedge $-1 $127 $128 $129 $130 forward $51 $-1 #
face $-1 $-1 $131 $27 $-1 $132 forward single #
loop $-1 $-1 $133 $53 #
plane-surface $-1 0 0 -9.0402386547441047 0 0 -1 -1 0 0 forward_v I I I I #
loop $-1 $-1 $134 $34 #
coedge $-1 $85 $85 $133 $135 reversed $54 $-1 #
face $-1 $136 $137 $21 $-1 $138 reversed single #
loop $-1 $-1 $139 $56 #
plane-surface $-1 0 -34.221092655609532 0 0 1 0 0 0 1 forward_v I I I I #
coedge $-1 $140 $141 $142 $143 forward $57 $-1 #
coedge $-1 $144 $59 $145 $146 forward $36 $-1 #
coedge $-1 $59 $144 $147 $148 forward $36 $-1 #
coedge $-1 $149 $150 $59 $93 reversed $151 $-1 #
edge $-1 $152 -34.221092655609532 $153 34.221092655609532 $92 $154 forward 7 unknown #
face $-1 $155 $156 $22 $-1 $157 reversed single #
loop $-1 $-1 $158 $60 #
plane-surface $-1 0 -1.9302339668374517 0 0 1 0 0 0 1 forward_v I I I I #
coedge $-1 $159 $160 $161 $162 forward $61 $-1 #
coedge $-1 $163 $63 $164 $165 forward $39 $-1 #
coedge $-1 $63 $163 $166 $167 forward $39 $-1 #
coedge $-1 $168 $169 $63 $101 reversed $170 $-1 #
edge $-1 $171 -1.9302339668374517 $172 1.9302339668374517 $100 $173 forward 7 unknown #
face $-1 $174 $175 $23 $-1 $176 reversed single #
loop $-1 $-1 $177 $64 #
plane-surface $-1 0 -34.221092655609532 0 0 1 0 0 0 1 forward_v I I I I #
coedge $-1 $178 $179 $180 $181 forward $65 $-1 #
coedge $-1 $182 $67 $183 $184 forward $42 $-1 #
coedge $-1 $67 $182 $185 $186 forward $42 $-1 #
coedge $-1 $187 $188 $67 $109 reversed $189 $-1 #
edge $-1 $190 -34.221092655609532 $191 34.221092655609532 $108 $192 forward 7 unknown #
face $-1 $193 $194 $24 $-1 $195 reversed single #
loop $-1 $-1 $196 $68 #
plane-surface $-1 0 -269.83733634449294 0 0 1 0 0 0 1 forward_v I I I I #
coedge $-1 $197 $198 $199 $200 forward $69 $-1 #
coedge $-1 $201 $71 $202 $203 forward $45 $-1 #
coedge $-1 $71 $201 $204 $205 forward $45 $-1 #
coedge $-1 $206 $207 $71 $117 reversed $208 $-1 #
edge $-1 $209 -269.83733634449294 $210 269.83733634449294 $116 $211 forward 7 unknown #
loop $-1 $212 $213 $72 #
cone-surface $-1 0 0 0 0 0 1 1.5 0 0 1 I I -0.70710678118654757 0.70710678118654757 1.5 forward I I I I #
coedge $-1 $120 $120 $76 $122 forward $73 $-1 #
coedge $-1 $121 $121 $213 $214 forward $75 $-1 #
edge $-1 $215 0 $215 6.2831853071796004 $120 $216 forward 7 unknown #
face $-1 $217 $218 $26 $-1 $219 reversed single #
loop $-1 $-1 $220 $77 #
plane-surface $-1 0 -269.83733634449294 0 0 1 0 0 0 1 forward_v I I I I #
coedge $-1 $221 $222 $223 $224 forward $78 $-1 #
coedge $-1 $225 $80 $226 $227 forward $51 $-1 #
coedge $-1 $80 $225 $228 $229 forward $51 $-1 #
coedge $-1 $230 $231 $80 $130 reversed $232 $-1 #
edge $-1 $233 -269.83733634449294 $234 269.83733634449294 $129 $235 forward 7 unknown #
loop $-1 $236 $237 $81 #
cone-surface $-1 0 0 0 0 0 1 1.5 0 0 1 I I -0.70710678118654757 0.70710678118654757 1.5 forward I I I I #
coedge $-1 $133 $133 $85 $135 forward $82 $-1 #
coedge $-1 $134 $134 $237 $238 forward $84 $-1 #
edge $-1 $239 0 $239 6.2831853071796004 $133 $240 forward 7 unknown #
face $-1 $241 $242 $21 $-1 $243 reversed single #
loop $-1 $-1 $244 $86 #
plane-surface $-1 -67.459334086123235 0 0 1 0 0 0 0 -1 forward_v I I I I #
coedge $-1 $245 $147 $246 $247 forward $87 $-1 #
coedge $-1 $248 $89 $245 $249 forward $57 $-1 #
coedge $-1 $89 $248 $250 $251 forward $57 $-1 #
coedge $-1 $150 $149 $89 $143 reversed $151 $-1 #
edge $-1 $252 -34.221092655609532 $253 34.221092655609532 $142 $254 forward 7 unknown #
coedge $-1 $91 $90 $255 $256 forward $36 $-1 #
coedge $-1 $257 $258 $90 $146 reversed $242 $-1 #
edge $-1 $153 -67.459334086123235 $259 67.459334086123235 $145 $260 forward 7 unknown #
coedge $-1 $139 $261 $91 $148 reversed $87 $-1 #
edge $-1 $262 -67.459334086123235 $152 67.459334086123235 $147 $263 forward 7 unknown #
coedge $-1 $142 $92 $261 $264 forward $151 $-1 #
coedge $-1 $92 $142 $257 $265 reversed $151 $-1 #
loop $-1 $-1 $149 $241 #
vertex $-1 $93 $266 #
vertex $-1 $93 $267 #
straight-curve $-1 67.459334086123235 0 14.57897710885895 0 1 0 I I #
face $-1 $268 $269 $22 $-1 $270 reversed single #
loop $-1 $-1 $271 $94 #
plane-surface $-1 -7.6244041472186384 0 0 1 0 0 0 0 -1 forward_v I I I I #
coedge $-1 $272 $166 $273 $274 forward $95 $-1 #
coedge $-1 $275 $97 $272 $276 forward $61 $-1 #
coedge $-1 $97 $275 $277 $278 forward $61 $-1 #
coedge $-1 $169 $168 $97 $162 reversed $170 $-1 #
edge $-1 $279 -1.9302339668374517 $280 1.9302339668374517 $161 $281 forward 7 unknown #
coedge $-1 $99 $98 $282 $283 forward $39 $-1 #
coedge $-1 $284 $285 $98 $165 reversed $269 $-1 #
edge $-1 $172 -7.6244041472186384 $286 7.6244041472186384 $164 $287 forward 7 unknown #
coedge $-1 $158 $288 $99 $167 reversed $95 $-1 #
edge $-1 $289 -7.6244041472186384 $171 7.6244041472186384 $166 $290 forward 7 unknown #
coedge $-1 $161 $100 $288 $291 forward $170 $-1 #
coedge $-1 $100 $161 $284 $292 reversed $170 $-1 #
loop $-1 $-1 $168 $268 #
vertex $-1 $101 $293 #
vertex $-1 $101 $294 #
straight-curve $-1 7.6244041472186384 0 14.57897710885895 0 1 0 I I #
face $-1 $295 $296 $23 $-1 $297 reversed single #
loop $-1 $-1 $298 $102 #
plane-surface $-1 -5.0528856170540379 0 0 1 0 0 0 0 -1 forward_v I I I I #
coedge $-1 $299 $185 $300 $301 forward $103 $-1 #
coedge $-1 $302 $105 $299 $303 forward $65 $-1 #
coedge $-1 $105 $302 $304 $305 forward $65 $-1 #
coedge $-1 $188 $187 $105 $181 reversed $189 $-1 #
edge $-1 $306 -34.221092655609532 $307 34.221092655609532 $180 $308 forward 7 unknown #
coedge $-1 $107 $106 $309 $310 forward $42 $-1 #
coedge $-1 $311 $312 $106 $184 reversed $296 $-1 #
edge $-1 $191 -5.0528856170540379 $313 5.0528856170540379 $183 $314 forward 7 unknown #
coedge $-1 $177 $315 $107 $186 reversed $103 $-1 #
edge $-1 $316 -5.0528856170540379 $190 5.0528856170540379 $185 $317 forward 7 unknown #
coedge $-1 $180 $108 $315 $318 forward $189 $-1 #
coedge $-1 $108 $180 $311 $319 reversed $189 $-1 #
loop $-1 $-1 $187 $295 #
vertex $-1 $109 $320 #
vertex $-1 $109 $321 #
straight-curve $-1 5.0528856170540379 0 2.6266362914563075 0 1 0 I I #
face $-1 $322 $323 $24 $-1 $324 reversed single #
loop $-1 $-1 $325 $110 #
plane-surface $-1 -12.743466793860946 0 0 1 0 0 0 0 -1 forward_v I I I I #
coedge $-1 $326 $204 $327 $328 forward $111 $-1 #
coedge $-1 $329 $113 $326 $330 forward $69 $-1 #
coedge $-1 $113 $329 $331 $332 forward $69 $-1 #
coedge $-1 $207 $206 $113 $200 reversed $208 $-1 #
edge $-1 $333 -269.83733634449294 $334 269.83733634449294 $199 $335 forward 7 unknown #
coedge $-1 $115 $114 $336 $337 forward $45 $-1 #
coedge $-1 $338 $339 $114 $203 reversed $323 $-1 #
edge $-1 $210 -12.743466793860946 $340 12.743466793860946 $202 $341 forward 7 unknown #
coedge $-1 $196 $342 $115 $205 reversed $111 $-1 #
edge $-1 $343 -12.743466793860946 $209 12.743466793860946 $204 $344 forward 7 unknown #
coedge $-1 $199 $116 $342 $345 forward $208 $-1 #
coedge $-1 $116 $199 $338 $346 reversed $208 $-1 #
loop $-1 $-1 $206 $322 #
vertex $-1 $117 $347 #
vertex $-1 $117 $348 #
straight-curve $-1 12.743466793860946 0 134.9186681722465 0 1 0 I I #
loop $-1 $-1 $349 $72 #
coedge $-1 $213 $213 $121 $214 reversed $118 $-1 #
edge $-1 $350 0 $350 6.2831853071796004 $213 $351 forward 7 unknown #
vertex $-1 $122 $352 #
ellipse-curve $-1 0 0 -9.0402386547441047 0 0 -1 3 0 0 1 I I #
face $-1 $353 $354 $26 $-1 $355 reversed single #
loop $-1 $-1 $356 $123 #
plane-surface $-1 -12.743466793860946 0 0 1 0 0 0 0 -1 forward_v I I I I #
coedge $-1 $357 $228 $358 $359 forward $124 $-1 #
coedge $-1 $360 $126 $357 $361 forward $78 $-1 #
coedge $-1 $126 $360 $362 $363 forward $78 $-1 #
coedge $-1 $231 $230 $126 $224 reversed $232 $-1 #
edge $-1 $364 -269.83733634449294 $365 269.83733634449294 $223 $366 forward 7 unknown #
coedge $-1 $128 $127 $367 $368 forward $51 $-1 #
coedge $-1 $369 $370 $127 $227 reversed $354 $-1 #
edge $-1 $234 -12.743466793860946 $371 12.743466793860946 $226 $372 forward 7 unknown #
coedge $-1 $220 $373 $128 $229 reversed $124 $-1 #
edge $-1 $374 -12.743466793860946 $233 12.743466793860946 $228 $375 forward 7 unknown #
coedge $-1 $223 $129 $373 $376 forward $232 $-1 #
coedge $-1 $129 $223 $369 $377 reversed $232 $-1 #
loop $-1 $-1 $230 $353 #
vertex $-1 $130 $378 #
vertex $-1 $130 $379 #
straight-curve $-1 12.743466793860946 0 134.9186681722465 0 1 0 I I #
loop $-1 $-1 $380 $81 #
coedge $-1 $237 $237 $134 $238 reversed $131 $-1 #
edge $-1 $381 0 $381 6.2831853071796004 $237 $382 forward 7 unknown #
vertex $-1 $135 $383 #
ellipse-curve $-1 0 0 -9.0402386547441047 0 0 -1 3 0 0 1 I I #
face $-1 $-1 $151 $21 $-1 $384 reversed single #
loop $-1 $-1 $257 $136 #
plane-surface $-1 0 34.221092655609532 0 0 -1 0 0 0 -1 forward_v I I I I #
coedge $-1 $385 $255 $258 $386 forward $137 $-1 #
coedge $-1 $261 $139 $140 $249 reversed $87 $-1 #
coedge $-1 $255 $385 $139 $247 reversed $137 $-1 #
edge $-1 $262 -14.57897710885895 $387 14.57897710885895 $246 $388 forward 7 unknown #
coedge $-1 $141 $140 $385 $389 forward $57 $-1 #
edge $-1 $253 -67.459334086123235 $387 67.459334086123235 $245 $390 forward 7 unknown #
coedge $-1 $258 $257 $141 $251 reversed $242 $-1 #
edge $-1 $391 -67.459334086123235 $252 67.459334086123235 $250 $392 forward 7 unknown #
vertex $-1 $143 $393 #
vertex $-1 $264 $394 #
straight-curve $-1 67.459334086123235 0 -14.57897710885895 0 -1 0 I I #
coedge $-1 $244 $246 $144 $256 reversed $137 $-1 #
edge $-1 $259 -34.221092655609532 $262 34.221092655609532 $255 $395 forward 7 unknown #
coedge $-1 $250 $145 $150 $265 forward $242 $-1 #
coedge $-1 $145 $250 $244 $386 reversed $242 $-1 #
vertex $-1 $146 $396 #
straight-curve $-1 0 34.221092655609532 14.57897710885895 -1 0 0 I I #
coedge $-1 $147 $245 $149 $264 reversed $87 $-1 #
vertex $-1 $256 $397 #
straight-curve $-1 0 -34.221092655609532 14.57897710885895 1 0 0 I I #
edge $-1 $152 -14.57897710885895 $253 14.57897710885895 $149 $398 forward 7 unknown #
edge $-1 $153 -14.57897710885895 $252 14.57897710885895 $150 $399 forward 7 unknown #
point $-1 67.459334086123235 -34.221092655609532 14.57897710885895 #
point $-1 67.459334086123235 34.221092655609532 14.57897710885895 #
face $-1 $-1 $170 $22 $-1 $400 reversed single #
loop $-1 $-1 $284 $155 #
plane-surface $-1 0 1.9302339668374517 0 0 -1 0 0 0 -1 forward_v I I I I #
coedge $-1 $401 $282 $285 $402 forward $156 $-1 #
coedge $-1 $288 $158 $159 $276 reversed $95 $-1 #
coedge $-1 $282 $401 $158 $274 reversed $156 $-1 #
edge $-1 $289 -14.57897710885895 $403 14.57897710885895 $273 $404 forward 7 unknown #
coedge $-1 $160 $159 $401 $405 forward $61 $-1 #
edge $-1 $280 -7.6244041472186384 $403 7.6244041472186384 $272 $406 forward 7 unknown #
coedge $-1 $285 $284 $160 $278 reversed $269 $-1 #
edge $-1 $407 -7.6244041472186384 $279 7.6244041472186384 $277 $408 forward 7 unknown #
vertex $-1 $162 $409 #
vertex $-1 $291 $410 #
straight-curve $-1 7.6244041472186384 0 -14.57897710885895 0 -1 0 I I #
coedge $-1 $271 $273 $163 $283 reversed $156 $-1 #
edge $-1 $286 -1.9302339668374517 $289 1.9302339668374517 $282 $411 forward 7 unknown #
coedge $-1 $277 $164 $169 $292 forward $269 $-1 #
coedge $-1 $164 $277 $271 $402 reversed $269 $-1 #
vertex $-1 $165 $412 #
straight-curve $-1 0 1.9302339668374517 14.57897710885895 -1 0 0 I I #
coedge $-1 $166 $272 $168 $291 reversed $95 $-1 #
vertex $-1 $283 $413 #
straight-curve $-1 0 -1.9302339668374517 14.57897710885895 1 0 0 I I #
edge $-1 $171 -14.57897710885895 $280 14.57897710885895 $168 $414 forward 7 unknown #
edge $-1 $172 -14.57897710885895 $279 14.57897710885895 $169 $415 forward 7 unknown #
point $-1 7.6244041472186384 -1.9302339668374517 14.57897710885895 #
point $-1 7.6244041472186384 1.9302339668374517 14.57897710885895 #
face $-1 $-1 $189 $23 $-1 $416 reversed single #
loop $-1 $-1 $311 $174 #
plane-surface $-1 0 34.221092655609532 0 0 -1 0 0 0 -1 forward_v I I I I #
coedge $-1 $417 $309 $312 $418 forward $175 $-1 #
coedge $-1 $315 $177 $178 $303 reversed $103 $-1 #
coedge $-1 $309 $417 $177 $301 reversed $175 $-1 #
edge $-1 $316 -2.6266362914563075 $419 2.6266362914563075 $300 $420 forward 7 unknown #
coedge $-1 $179 $178 $417 $421 forward $65 $-1 #
edge $-1 $307 -5.0528856170540379 $419 5.0528856170540379 $299 $422 forward 7 unknown #
coedge $-1 $312 $311 $179 $305 reversed $296 $-1 #
edge $-1 $423 -5.0528856170540379 $306 5.0528856170540379 $304 $424 forward 7 unknown #
vertex $-1 $181 $425 #
vertex $-1 $318 $426 #
straight-curve $-1 5.0528856170540379 0 -2.6266362914563075 0 -1 0 I I #
coedge $-1 $298 $300 $182 $310 reversed $175 $-1 #
edge $-1 $313 -34.221092655609532 $316 34.221092655609532 $309 $427 forward 7 unknown #
coedge $-1 $304 $183 $188 $319 forward $296 $-1 #
coedge $-1 $183 $304 $298 $418 reversed $296 $-1 #
vertex $-1 $184 $428 #
straight-curve $-1 0 34.221092655609532 2.6266362914563075 -1 0 0 I I #
coedge $-1 $185 $299 $187 $318 reversed $103 $-1 #
vertex $-1 $310 $429 #
straight-curve $-1 0 -34.221092655609532 2.6266362914563075 1 0 0 I I #
edge $-1 $190 -2.6266362914563075 $307 2.6266362914563075 $187 $430 forward 7 unknown #
edge $-1 $191 -2.6266362914563075 $306 2.6266362914563075 $188 $431 forward 7 unknown #
point $-1 5.0528856170540379 -34.221092655609532 2.6266362914563075 #
point $-1 5.0528856170540379 34.221092655609532 2.6266362914563075 #
face $-1 $-1 $208 $24 $-1 $432 reversed single #
loop $-1 $-1 $338 $193 #
plane-surface $-1 0 269.83733634449294 0 0 -1 0 0 0 -1 forward_v I I I I #
coedge $-1 $433 $336 $339 $434 forward $194 $-1 #
coedge $-1 $342 $196 $197 $330 reversed $111 $-1 #
coedge $-1 $336 $433 $196 $328 reversed $194 $-1 #
edge $-1 $343 -134.9186681722465 $435 134.9186681722465 $327 $436 forward 7 unknown #
coedge $-1 $198 $197 $433 $437 forward $69 $-1 #
edge $-1 $334 -12.743466793860946 $435 12.743466793860946 $326 $438 forward 7 unknown #
coedge $-1 $339 $338 $198 $332 reversed $323 $-1 #
edge $-1 $439 -12.743466793860946 $333 12.743466793860946 $331 $440 forward 7 unknown #
vertex $-1 $200 $441 #
vertex $-1 $345 $442 #
straight-curve $-1 12.743466793860946 0 -134.9186681722465 0 -1 0 I I #
coedge $-1 $325 $327 $201 $337 reversed $194 $-1 #
edge $-1 $340 -269.83733634449294 $343 269.83733634449294 $336 $443 forward 7 unknown #
coedge $-1 $331 $202 $207 $346 forward $323 $-1 #
coedge $-1 $202 $331 $325 $434 reversed $323 $-1 #
vertex $-1 $203 $444 #
straight-curve $-1 0 269.83733634449294 134.9186681722465 -1 0 0 I I #
coedge $-1 $204 $326 $206 $345 reversed $111 $-1 #
vertex $-1 $337 $445 #
straight-curve $-1 0 -269.83733634449294 134.9186681722465 1 0 0 I I #
edge $-1 $209 -134.9186681722465 $334 134.9186681722465 $206 $446 forward 7 unknown #
edge $-1 $210 -134.9186681722465 $333 134.9186681722465 $207 $447 forward 7 unknown #
point $-1 12.743466793860946 -269.83733634449294 134.9186681722465 #
point $-1 12.743466793860946 269.83733634449294 134.9186681722465 #
coedge $-1 $349 $349 $-1 $448 reversed $212 $-1 #
vertex $-1 $214 $449 #
ellipse-curve $-1 0 0 -1.5 0 0 -1 3 0 0 1 I I #
point $-1 3 0 -9.0402386547441047 #
face $-1 $-1 $232 $26 $-1 $450 reversed single #
loop $-1 $-1 $369 $217 #
plane-surface $-1 0 269.83733634449294 0 0 -1 0 0 0 -1 forward_v I I I I #
coedge $-1 $451 $367 $370 $452 forward $218 $-1 #
coedge $-1 $373 $220 $221 $361 reversed $124 $-1 #
coedge $-1 $367 $451 $220 $359 reversed $218 $-1 #
edge $-1 $374 -134.9186681722465 $453 134.9186681722465 $358 $454 forward 7 unknown #
coedge $-1 $222 $221 $451 $455 forward $78 $-1 #
edge $-1 $365 -12.743466793860946 $453 12.743466793860946 $357 $456 forward 7 unknown #
coedge $-1 $370 $369 $222 $363 reversed $354 $-1 #
edge $-1 $457 -12.743466793860946 $364 12.743466793860946 $362 $458 forward 7 unknown #
vertex $-1 $224 $459 #
vertex $-1 $376 $460 #
straight-curve $-1 12.743466793860946 0 -134.9186681722465 0 -1 0 I I #
coedge $-1 $356 $358 $225 $368 reversed $218 $-1 #
edge $-1 $371 -269.83733634449294 $374 269.83733634449294 $367 $461 forward 7 unknown #
coedge $-1 $362 $226 $231 $377 forward $354 $-1 #
coedge $-1 $226 $362 $356 $452 reversed $354 $-1 #
vertex $-1 $227 $462 #
straight-curve $-1 0 269.83733634449294 134.9186681722465 -1 0 0 I I #
coedge $-1 $228 $357 $230 $376 reversed $124 $-1 #
vertex $-1 $368 $463 #
straight-curve $-1 0 -269.83733634449294 134.9186681722465 1 0 0 I I #
edge $-1 $233 -134.9186681722465 $365 134.9186681722465 $230 $464 forward 7 unknown #
edge $-1 $234 -134.9186681722465 $364 134.9186681722465 $231 $465 forward 7 unknown #
point $-1 12.743466793860946 -269.83733634449294 134.9186681722465 #
point $-1 12.743466793860946 269.83733634449294 134.9186681722465 #
coedge $-1 $380 $380 $-1 $466 reversed $236 $-1 #
vertex $-1 $238 $467 #
ellipse-curve $-1 0 0 -1.5 0 0 -1 3 0 0 1 I I #
point $-1 3 0 -9.0402386547441047 #
plane-surface $-1 67.459334086123235 0 0 -1 0 0 0 0 1 forward_v I I I I #
coedge $-1 $246 $244 $248 $389 reversed $137 $-1 #
edge $-1 $259 -14.57897710885895 $391 14.57897710885895 $258 $468 forward 7 unknown #
vertex $-1 $389 $469 #
straight-curve $-1 -67.459334086123235 -34.221092655609532 0 0 0 -1 I I #
edge $-1 $387 -34.221092655609532 $391 34.221092655609532 $385 $470 forward 7 unknown #
straight-curve $-1 0 -34.221092655609532 -14.57897710885895 -1 0 0 I I #
vertex $-1 $251 $471 #
straight-curve $-1 0 34.221092655609532 -14.57897710885895 1 0 0 I I #
point $-1 67.459334086123235 34.221092655609532 -14.57897710885895 #
point $-1 67.459334086123235 -34.221092655609532 -14.57897710885895 #
straight-curve $-1 -67.459334086123235 0 14.57897710885895 0 -1 0 I I #
point $-1 -67.459334086123235 34.221092655609532 14.57897710885895 #
point $-1 -67.459334086123235 -34.221092655609532 14.57897710885895 #
straight-curve $-1 67.459334086123235 -34.221092655609532 0 0 0 -1 I I #
straight-curve $-1 67.459334086123235 34.221092655609532 0 0 0 -1 I I #
plane-surface $-1 7.6244041472186384 0 0 -1 0 0 0 0 1 forward_v I I I I #
coedge $-1 $273 $271 $275 $405 reversed $156 $-1 #
edge $-1 $286 -14.57897710885895 $407 14.57897710885895 $285 $472 forward 7 unknown #
vertex $-1 $405 $473 #
straight-curve $-1 -7.6244041472186384 -1.9302339668374517 0 0 0 -1 I I #
edge $-1 $403 -1.9302339668374517 $407 1.9302339668374517 $401 $474 forward 7 unknown #
straight-curve $-1 0 -1.9302339668374517 -14.57897710885895 -1 0 0 I I #
vertex $-1 $278 $475 #
straight-curve $-1 0 1.9302339668374517 -14.57897710885895 1 0 0 I I #
point $-1 7.6244041472186384 1.9302339668374517 -14.57897710885895 #
point $-1 7.6244041472186384 -1.9302339668374517 -14.57897710885895 #
straight-curve $-1 -7.6244041472186384 0 14.57897710885895 0 -1 0 I I #
point $-1 -7.6244041472186384 1.9302339668374517 14.57897710885895 #
point $-1 -7.6244041472186384 -1.9302339668374517 14.57897710885895 #
straight-curve $-1 7.6244041472186384 -1.9302339668374517 0 0 0 -1 I I #
straight-curve $-1 7.6244041472186384 1.9302339668374517 0 0 0 -1 I I #
plane-surface $-1 5.0528856170540379 0 0 -1 0 0 0 0 1 forward_v I I I I #
coedge $-1 $300 $298 $302 $421 reversed $175 $-1 #
edge $-1 $313 -2.6266362914563075 $423 2.6266362914563075 $312 $476 forward 7 unknown #
vertex $-1 $421 $477 #
straight-curve $-1 -5.0528856170540379 -34.221092655609532 0 0 0 -1 I I #
edge $-1 $419 -34.221092655609532 $423 34.221092655609532 $417 $478 forward 7 unknown #
straight-curve $-1 0 -34.221092655609532 -2.6266362914563075 -1 0 0 I I #
vertex $-1 $305 $479 #
straight-curve $-1 0 34.221092655609532 -2.6266362914563075 1 0 0 I I #
point $-1 5.0528856170540379 34.221092655609532 -2.6266362914563075 #
point $-1 5.0528856170540379 -34.221092655609532 -2.6266362914563075 #
straight-curve $-1 -5.0528856170540379 0 2.6266362914563075 0 -1 0 I I #
point $-1 -5.0528856170540379 34.221092655609532 2.6266362914563075 #
point $-1 -5.0528856170540379 -34.221092655609532 2.6266362914563075 #
straight-curve $-1 5.0528856170540379 -34.221092655609532 0 0 0 -1 I I #
straight-curve $-1 5.0528856170540379 34.221092655609532 0 0 0 -1 I I #
plane-surface $-1 12.743466793860946 0 0 -1 0 0 0 0 1 forward_v I I I I #
coedge $-1 $327 $325 $329 $437 reversed $194 $-1 #
edge $-1 $340 -134.9186681722465 $439 134.9186681722465 $339 $480 forward 7 unknown #
vertex $-1 $437 $481 #
straight-curve $-1 -12.743466793860946 -269.83733634449294 0 0 0 -1 I I #
edge $-1 $435 -269.83733634449294 $439 269.83733634449294 $433 $482 forward 7 unknown #
straight-curve $-1 0 -269.83733634449294 -134.9186681722465 -1 0 0 I I #
vertex $-1 $332 $483 #
straight-curve $-1 0 269.83733634449294 -134.9186681722465 1 0 0 I I #
point $-1 12.743466793860946 269.83733634449294 -134.9186681722465 #
point $-1 12.743466793860946 -269.83733634449294 -134.9186681722465 #
straight-curve $-1 -12.743466793860946 0 134.9186681722465 0 -1 0 I I #
point $-1 -12.743466793860946 269.83733634449294 134.9186681722465 #
point $-1 -12.743466793860946 -269.83733634449294 134.9186681722465 #
straight-curve $-1 12.743466793860946 -269.83733634449294 0 0 0 -1 I I #
straight-curve $-1 12.743466793860946 269.83733634449294 0 0 0 -1 I I #
edge $-1 $484 1 $484 0 $349 $-1 forward 7 unknown #
point $-1 3 0 -1.5 #
plane-surface $-1 12.743466793860946 0 0 -1 0 0 0 0 1 forward_v I I I I #
coedge $-1 $358 $356 $360 $455 reversed $218 $-1 #
edge $-1 $371 -134.9186681722465 $457 134.9186681722465 $370 $485 forward 7 unknown #
vertex $-1 $455 $486 #
straight-curve $-1 -12.743466793860946 -269.83733634449294 0 0 0 -1 I I #
edge $-1 $453 -269.83733634449294 $457 269.83733634449294 $451 $487 forward 7 unknown #
straight-curve $-1 0 -269.83733634449294 -134.9186681722465 -1 0 0 I I #
vertex $-1 $363 $488 #
straight-curve $-1 0 269.83733634449294 -134.9186681722465 1 0 0 I I #
point $-1 12.743466793860946 269.83733634449294 -134.9186681722465 #
point $-1 12.743466793860946 -269.83733634449294 -134.9186681722465 #
straight-curve $-1 -12.743466793860946 0 134.9186681722465 0 -1 0 I I #
point $-1 -12.743466793860946 269.83733634449294 134.9186681722465 #
point $-1 -12.743466793860946 -269.83733634449294 134.9186681722465 #
straight-curve $-1 12.743466793860946 -269.83733634449294 0 0 0 -1 I I #
straight-curve $-1 12.743466793860946 269.83733634449294 0 0 0 -1 I I #
edge $-1 $489 1 $489 0 $380 $-1 forward 7 unknown #
point $-1 3 0 -1.5 #
straight-curve $-1 -67.459334086123235 34.221092655609532 0 0 0 -1 I I #
point $-1 -67.459334086123235 -34.221092655609532 -14.57897710885895 #
straight-curve $-1 -67.459334086123235 0 -14.57897710885895 0 1 0 I I #
point $-1 -67.459334086123235 34.221092655609532 -14.57897710885895 #
straight-curve $-1 -7.6244041472186384 1.9302339668374517 0 0 0 -1 I I #
point $-1 -7.6244041472186384 -1.9302339668374517 -14.57897710885895 #
straight-curve $-1 -7.6244041472186384 0 -14.57897710885895 0 1 0 I I #
point $-1 -7.6244041472186384 1.9302339668374517 -14.57897710885895 #
straight-curve $-1 -5.0528856170540379 34.221092655609532 0 0 0 -1 I I #
point $-1 -5.0528856170540379 -34.221092655609532 -2.6266362914563075 #
straight-curve $-1 -5.0528856170540379 0 -2.6266362914563075 0 1 0 I I #
point $-1 -5.0528856170540379 34.221092655609532 -2.6266362914563075 #
straight-curve $-1 -12.743466793860946 269.83733634449294 0 0 0 -1 I I #
point $-1 -12.743466793860946 -269.83733634449294 -134.9186681722465 #
straight-curve $-1 -12.743466793860946 0 -134.9186681722465 0 1 0 I I #
point $-1 -12.743466793860946 269.83733634449294 -134.9186681722465 #
vertex $-1 $448 $490 #
straight-curve $-1 -12.743466793860946 269.83733634449294 0 0 0 -1 I I #
point $-1 -12.743466793860946 -269.83733634449294 -134.9186681722465 #
straight-curve $-1 -12.743466793860946 0 -134.9186681722465 0 1 0 I I #
point $-1 -12.743466793860946 269.83733634449294 -134.9186681722465 #
vertex $-1 $466 $491 #
point $-1 0 0 1.5 #
point $-1 0 0 1.5 #
End-of-ACIS-data 