500 0 8 0           
7 Unknown 11 ACIS 5.0 NT 24 Fri Mar 26 16:45:05 1999 
-1 9.9999999999999995e-007 1e-010 
body $-1 $8 $-1 $9 #
body $-1 $10 $-1 $11 #
body $-1 $12 $-1 $13 #
body $-1 $14 $-1 $15 #
body $-1 $16 $-1 $17 #
body $-1 $18 $-1 $19 #
body $-1 $20 $-1 $21 #
body $-1 $22 $-1 $23 #
lump $-1 $-1 $24 $0 #
transform $-1 1 0 0 0 1 0 0 0 1 52.120731223487041 21.874259823577049 7.7071601638593519 1 rotate no_reflect no_shear #
lump $-1 $-1 $25 $1 #
transform $-1 1 0 0 0 1 0 0 0 1 52.120731223487041 21.874259823577049 7.7071601638593519 1 rotate no_reflect no_shear #
lump $-1 $-1 $26 $2 #
transform $-1 1 0 0 0 1 0 0 0 1 52.120731223487041 21.874259823577049 7.7071601638593519 1 rotate no_reflect no_shear #
lump $-1 $-1 $27 $3 #
transform $-1 1 0 0 0 1 0 0 0 1 52.120731223487041 21.874259823577049 7.7071601638593519 1 rotate no_reflect no_shear #
lump $-1 $-1 $28 $4 #
transform $-1 1 0 0 0 1 0 0 0 1 52.120731223487041 21.874259823577049 7.7071601638593519 1 rotate no_reflect no_shear #
lump $-1 $-1 $29 $5 #
transform $-1 1 0 0 0 1 0 0 0 1 52.120731223487041 21.874259823577049 7.7071601638593519 1 rotate no_reflect no_shear #
lump $-1 $-1 $30 $6 #
transform $-1 1 0 0 0 1 0 0 0 1 52.120731223487041 21.874259823577049 7.7071601638593519 1 rotate no_reflect no_shear #
lump $-1 $-1 $31 $7 #
transform $-1 1 0 0 0 1 0 0 0 1 52.120731223487041 21.874259823577049 7.7071601638593519 1 rotate no_reflect no_shear #
shell $-1 $-1 $-1 $32 $-1 $8 #
shell $-1 $-1 $-1 $33 $-1 $10 #
shell $-1 $-1 $-1 $34 $-1 $12 #
shell $-1 $-1 $-1 $35 $-1 $14 #
shell $-1 $-1 $-1 $36 $-1 $16 #
shell $-1 $-1 $-1 $37 $-1 $18 #
shell $-1 $-1 $-1 $38 $-1 $20 #
shell $-1 $-1 $-1 $39 $-1 $22 #
face $-1 $40 $41 $24 $-1 $42 forward single #
face $-1 $43 $44 $25 $-1 $45 forward single #
face $-1 $46 $47 $26 $-1 $48 reversed single #
face $-1 $49 $50 $27 $-1 $51 forward single #
face $-1 $52 $53 $28 $-1 $54 forward single #
face $-1 $55 $56 $29 $-1 $57 reversed single #
face $-1 $58 $59 $30 $-1 $60 forward single #
face $-1 $61 $62 $31 $-1 $63 forward single #
face $-1 $64 $65 $24 $-1 $66 reversed single #
loop $-1 $-1 $67 $32 #
plane-surface $-1 0 0 7.7071601638593519 0 0 1 1 0 0 forward_v I I I I #
face $-1 $68 $69 $25 $-1 $70 reversed single #
loop $-1 $-1 $71 $33 #
plane-surface $-1 0 -18.941479218751571 5.8971455488734543 0 0 1 1 0 0 forward_v I I I I #
face $-1 $72 $73 $26 $-1 $74 reversed single #
loop $-1 $-1 $75 $34 #
plane-surface $-1 39.272260164516155 0.0035798499852734977 150.85061302841476 0 1 0 0.64278761758704617 0 0.76604443648966558 forward_v I I I I #
face $-1 $76 $77 $27 $-1 $78 forward single #
loop $-1 $79 $80 $35 #
cone-surface $-1 49.392430034758277 1.9555055998359947 5.2364160128205723 -0.64278761758704617 0 -0.76604443648966558 0.38302221824483279 0 -0.32139380879352308 1 I I 0 1 0.5 forward I I I I #
face $-1 $81 $82 $28 $-1 $83 forward single #
loop $-1 $84 $85 $36 #
cone-surface $-1 49.392430034758277 4.8833942246120721 5.2364160128205723 -0.64278761758704617 0 -0.76604443648966558 0.38302221824483279 0 -0.32139380879352308 1 I I 0 1 0.5 forward I I I I #
face $-1 $86 $87 $29 $-1 $88 reversed single #
loop $-1 $-1 $89 $37 #
plane-surface $-1 -140.52250581827946 13.865476440267074 59.43659720101207 0 1 0 -0.84804810408105047 0 0.52991925155115449 forward_v I I I I #
face $-1 $90 $91 $30 $-1 $92 forward single #
loop $-1 $93 $94 $38 #
cone-surface $-1 -50.600023777180176 16.153700264069926 5.6871401764109857 0.84804810408105047 0 -0.52991925155115449 0.26495962577557725 0 0.42402405204052523 1 I I 0 1 0.5 forward I I I I #
face $-1 $95 $96 $31 $-1 $97 forward single #
loop $-1 $98 $99 $39 #
cone-surface $-1 -50.600023777180176 19.586035999774197 5.6871401764109857 0.84804810408105047 0 -0.52991925155115449 0.26495962577557725 0 0.42402405204052523 1 I I 0 1 0.5 forward I I I I #
face $-1 $100 $101 $24 $-1 $102 reversed single #
loop $-1 $-1 $103 $40 #
plane-surface $-1 0 0 -7.7071601638593519 0 0 1 1 0 0 forward_v I I I I #
coedge $-1 $104 $105 $106 $107 forward $41 $-1 #
face $-1 $108 $109 $25 $-1 $110 reversed single #
loop $-1 $-1 $111 $43 #
plane-surface $-1 0 -18.941479218751571 2.6587129011471342 0 0 1 1 0 0 forward_v I I I I #
coedge $-1 $112 $113 $114 $115 reversed $44 $-1 #
face $-1 $116 $117 $26 $-1 $118 reversed single #
loop $-1 $-1 $119 $46 #
plane-surface $-1 -27.732861135563851 3.4194499122240316 70.997020669363863 0.64278761758704617 0 0.76604443648966558 0.76604443648966558 0 -0.64278761758704617 forward_v I I I I #
coedge $-1 $120 $121 $122 $123 reversed $47 $-1 #
face $-1 $-1 $124 $27 $-1 $125 forward single #
loop $-1 $126 $127 $49 #
cone-surface $-1 48.7172695949439 1.9555055998359947 4.4317911499471352 -0.64278761758704617 0 -0.76604443648966558 0.1915111091224164 0 -0.16069690439676154 1 I I -0.70710678118654879 0.70710678118654635 0.25 forward I I I I #
loop $-1 $-1 $128 $35 #
coedge $-1 $80 $80 $129 $130 reversed $50 $-1 #
face $-1 $-1 $131 $28 $-1 $132 forward single #
loop $-1 $133 $134 $52 #
cone-surface $-1 48.7172695949439 4.8833942246120721 4.4317911499471352 -0.64278761758704617 0 -0.76604443648966558 0.1915111091224164 0 -0.16069690439676154 1 I I -0.70710678118654879 0.70710678118654635 0.25 forward I I I I #
loop $-1 $-1 $135 $36 #
coedge $-1 $85 $85 $136 $137 reversed $53 $-1 #
face $-1 $138 $139 $29 $-1 $140 forward single #
loop $-1 $-1 $141 $55 #
plane-surface $-1 -52.12073122348707 17.869868131922061 4.1970394405137839 -0.84804810408105047 0 0.52991925155115449 0.52991925155115449 0 0.84804810408105047 forward_v I I I I #
coedge $-1 $142 $143 $144 $145 reversed $56 $-1 #
face $-1 $-1 $146 $30 $-1 $147 forward single #
loop $-1 $148 $149 $58 #
cone-surface $-1 -49.963987699119386 16.153700264069926 5.2897007377476202 0.84804810408105047 0 -0.52991925155115449 0.13247981288778862 0 0.21201202602026262 1 I I -0.70710678118654746 0.70710678118654746 0.25 forward I I I I #
loop $-1 $-1 $150 $38 #
coedge $-1 $94 $94 $151 $152 reversed $59 $-1 #
face $-1 $-1 $153 $31 $-1 $154 forward single #
loop $-1 $155 $156 $61 #
cone-surface $-1 -49.963987699119386 19.586035999774197 5.2897007377476202 0.84804810408105047 0 -0.52991925155115449 0.13247981288778862 0 0.21201202602026262 1 I I -0.70710678118654746 0.70710678118654746 0.25 forward I I I I #
loop $-1 $-1 $157 $39 #
coedge $-1 $99 $99 $158 $159 reversed $62 $-1 #
face $-1 $160 $161 $24 $-1 $162 reversed single #
loop $-1 $-1 $163 $64 #
plane-surface $-1 0 -21.874259823577049 0 0 1 0 0 0 1 forward_v I I I I #
coedge $-1 $164 $165 $166 $167 forward $65 $-1 #
coedge $-1 $168 $67 $169 $170 forward $41 $-1 #
coedge $-1 $67 $168 $171 $172 forward $41 $-1 #
coedge $-1 $173 $174 $67 $107 reversed $175 $-1 #
edge $-1 $176 -21.874259823577049 $177 21.874259823577049 $106 $178 forward 7 unknown #
face $-1 $179 $180 $25 $-1 $181 reversed single #
loop $-1 $-1 $182 $68 #
plane-surface $-1 0 -16.008698613926093 4.2779292250102943 0 -1 0 0 0 -1 forward_v I I I I #
coedge $-1 $183 $184 $185 $186 reversed $69 $-1 #
coedge $-1 $187 $71 $188 $189 forward $44 $-1 #
coedge $-1 $71 $187 $190 $191 reversed $44 $-1 #
coedge $-1 $192 $193 $71 $115 forward $194 $-1 #
edge $-1 $195 6.5379590045503075 $196 12.403520214201263 $114 $197 forward 7 unknown #
face $-1 $198 $199 $26 $-1 $200 forward single #
loop $-1 $-1 $201 $72 #
plane-surface $-1 39.272260164516155 6.8353199744627897 150.85061302841476 0 -1 0 -0.64278761758704617 0 -0.76604443648966558 forward_v I I I I #
coedge $-1 $202 $203 $204 $205 reversed $73 $-1 #
coedge $-1 $121 $75 $206 $207 reversed $47 $-1 #
coedge $-1 $75 $120 $202 $208 reversed $47 $-1 #
coedge $-1 $204 $209 $75 $123 forward $210 $-1 #
edge $-1 $211 67.718146350348022 $212 71.433407144923521 $122 $213 forward 7 unknown #
loop $-1 $-1 $129 $76 #
plane-surface $-1 -27.732861135563851 3.4194499122240316 70.997020669363863 0.64278761758704617 0 0.76604443648966558 0.76604443648966558 0 -0.64278761758704617 forward_v I I I I #
loop $-1 $-1 $214 $49 #
coedge $-1 $127 $127 $128 $215 reversed $77 $-1 #
coedge $-1 $128 $128 $127 $215 forward $79 $-1 #
coedge $-1 $129 $129 $80 $130 forward $124 $-1 #
edge $-1 $216 0 $216 6.2831853071796004 $129 $217 forward 7 unknown #
loop $-1 $-1 $136 $81 #
plane-surface $-1 -27.732861135563851 3.4194499122240316 70.997020669363863 0.64278761758704617 0 0.76604443648966558 0.76604443648966558 0 -0.64278761758704617 forward_v I I I I #
loop $-1 $-1 $218 $52 #
coedge $-1 $134 $134 $135 $219 reversed $82 $-1 #
coedge $-1 $135 $135 $134 $219 forward $84 $-1 #
coedge $-1 $136 $136 $85 $137 forward $131 $-1 #
edge $-1 $220 0 $220 6.2831853071796004 $136 $221 forward 7 unknown #
face $-1 $222 $223 $29 $-1 $224 reversed single #
loop $-1 $-1 $144 $86 #
plane-surface $-1 0 0 7.7071601638593519 0 0 1 1 0 0 forward_v I I I I #
coedge $-1 $225 $226 $227 $228 reversed $87 $-1 #
coedge $-1 $143 $89 $229 $230 reversed $56 $-1 #
coedge $-1 $89 $142 $225 $231 reversed $56 $-1 #
coedge $-1 $227 $232 $89 $145 forward $139 $-1 #
edge $-1 $233 18.140521685652686 $234 20.333888474185336 $144 $235 forward 7 unknown #
loop $-1 $-1 $151 $90 #
plane-surface $-1 -52.12073122348707 17.869868131922061 4.1970394405137839 -0.84804810408105047 0 0.52991925155115449 0.52991925155115449 0 0.84804810408105047 forward_v I I I I #
loop $-1 $-1 $236 $58 #
coedge $-1 $149 $149 $150 $237 reversed $91 $-1 #
coedge $-1 $150 $150 $149 $237 forward $93 $-1 #
coedge $-1 $151 $151 $94 $152 forward $146 $-1 #
edge $-1 $238 0 $238 6.2831853071796004 $151 $239 forward 7 unknown #
loop $-1 $-1 $158 $95 #
plane-surface $-1 -52.12073122348707 17.869868131922061 4.1970394405137839 -0.84804810408105047 0 0.52991925155115449 0.52991925155115449 0 0.84804810408105047 forward_v I I I I #
loop $-1 $-1 $240 $61 #
coedge $-1 $156 $156 $157 $241 reversed $96 $-1 #
coedge $-1 $157 $157 $156 $241 forward $98 $-1 #
coedge $-1 $158 $158 $99 $159 forward $153 $-1 #
edge $-1 $242 0 $242 6.2831853071796004 $158 $243 forward 7 unknown #
face $-1 $244 $245 $24 $-1 $246 reversed single #
loop $-1 $-1 $247 $100 #
plane-surface $-1 -52.120731223487041 0 0 1 0 0 0 0 -1 forward_v I I I I #
coedge $-1 $248 $171 $249 $250 forward $101 $-1 #
coedge $-1 $251 $103 $248 $252 forward $65 $-1 #
coedge $-1 $103 $251 $253 $254 forward $65 $-1 #
coedge $-1 $174 $173 $103 $167 reversed $175 $-1 #
edge $-1 $255 -21.874259823577049 $256 21.874259823577049 $166 $257 forward 7 unknown #
coedge $-1 $105 $104 $258 $259 forward $41 $-1 #
coedge $-1 $260 $261 $104 $170 reversed $245 $-1 #
edge $-1 $177 -52.120731223487041 $262 52.120731223487041 $169 $263 forward 7 unknown #
coedge $-1 $163 $264 $105 $172 reversed $101 $-1 #
edge $-1 $265 -52.120731223487041 $176 52.120731223487041 $171 $266 forward 7 unknown #
coedge $-1 $166 $106 $264 $267 forward $175 $-1 #
coedge $-1 $106 $166 $260 $268 reversed $175 $-1 #
loop $-1 $-1 $173 $244 #
vertex $-1 $107 $269 #
vertex $-1 $107 $270 #
straight-curve $-1 52.120731223487041 0 7.7071601638593519 0 1 0 I I #
face $-1 $271 $272 $25 $-1 $273 reversed single #
loop $-1 $-1 $274 $108 #
plane-surface $-1 -52.120731223487041 0 0 1 0 0 0 0 -1 forward_v I I I I #
coedge $-1 $275 $188 $193 $276 reversed $109 $-1 #
coedge $-1 $277 $111 $278 $279 reversed $69 $-1 #
coedge $-1 $111 $277 $275 $280 forward $69 $-1 #
coedge $-1 $193 $192 $111 $186 forward $194 $-1 #
edge $-1 $281 -12.403520214201263 $282 -6.5379590045503075 $185 $283 forward 7 unknown #
coedge $-1 $113 $112 $274 $284 reversed $44 $-1 #
coedge $-1 $182 $285 $112 $189 reversed $109 $-1 #
edge $-1 $195 -52.120731223487041 $286 52.120731223487041 $188 $287 forward 7 unknown #
coedge $-1 $288 $289 $113 $191 forward $272 $-1 #
edge $-1 $196 -52.120731223487041 $290 52.120731223487041 $190 $291 forward 7 unknown #
coedge $-1 $185 $114 $289 $292 forward $194 $-1 #
coedge $-1 $114 $185 $182 $276 forward $194 $-1 #
loop $-1 $-1 $114 $271 #
vertex $-1 $115 $293 #
vertex $-1 $292 $294 #
straight-curve $-1 52.120731223487041 -9.4707396093757854 5.8971455488734543 0 -1 0 I I #
face $-1 $-1 $210 $26 $-1 $295 reversed single #
loop $-1 $-1 $296 $116 #
plane-surface $-1 0 0 7.7071601638593519 0 0 1 1 0 0 forward_v I I I I #
coedge $-1 $297 $298 $299 $300 reversed $117 $-1 #
coedge $-1 $301 $119 $121 $208 forward $73 $-1 #
coedge $-1 $119 $301 $297 $302 forward $73 $-1 #
coedge $-1 $299 $122 $119 $205 forward $210 $-1 #
edge $-1 $212 -1.7061451061267423 $303 5.1255950183507739 $204 $304 forward 7 unknown #
coedge $-1 $305 $306 $120 $207 forward $199 $-1 #
edge $-1 $307 28.056925834606687 $211 32.484601141228964 $206 $308 forward 7 unknown #
edge $-1 $212 -104.24146244697408 $307 -98.46154277689368 $121 $309 forward 7 unknown #
coedge $-1 $122 $299 $305 $310 reversed $210 $-1 #
loop $-1 $-1 $299 $198 #
vertex $-1 $310 $311 #
vertex $-1 $123 $312 #
straight-curve $-1 52.120731223487041 0.0035798499852734977 75.425306514207378 0 0 -1 I I #
coedge $-1 $214 $214 $-1 $313 reversed $126 $-1 #
edge $-1 $314 0 $314 6.2831853071796004 $127 $315 forward 7 unknown #
vertex $-1 $130 $316 #
ellipse-curve $-1 49.906893570175903 1.9555055998359947 5.849529766571604 0.64278761758704617 0 0.76604443648966558 0.38302221824483279 0 -0.32139380879352308 1 I I #
coedge $-1 $218 $218 $-1 $317 reversed $133 $-1 #
edge $-1 $318 0 $318 6.2831853071796004 $134 $319 forward 7 unknown #
vertex $-1 $137 $320 #
ellipse-curve $-1 49.906893570175903 4.8833942246120721 5.849529766571604 0.64278761758704617 0 0.76604443648966558 0.38302221824483279 0 -0.32139380879352308 1 I I #
face $-1 $-1 $321 $29 $-1 $322 reversed single #
loop $-1 $-1 $323 $138 #
plane-surface $-1 0 21.874259823577049 0 0 -1 0 0 0 -1 forward_v I I I I #
coedge $-1 $324 $141 $143 $231 forward $87 $-1 #
coedge $-1 $141 $324 $323 $325 reversed $87 $-1 #
coedge $-1 $326 $144 $141 $228 forward $139 $-1 #
edge $-1 $234 4.930542374306043 $327 12.939325757616018 $227 $328 forward 7 unknown #
coedge $-1 $329 $330 $142 $230 forward $321 $-1 #
edge $-1 $331 -25.521259159992205 $233 -22.011138436646682 $229 $332 forward 7 unknown #
edge $-1 $234 -4.1390585114852101 $331 -5.3475330259696214e-014 $143 $333 forward 7 unknown #
coedge $-1 $144 $326 $329 $334 forward $139 $-1 #
vertex $-1 $230 $335 #
vertex $-1 $145 $336 #
straight-curve $-1 -70.261252909139728 13.865476440267074 7.7071601638593528 1 0 0 I I #
coedge $-1 $236 $236 $-1 $337 reversed $148 $-1 #
edge $-1 $338 0 $338 6.2831853071796004 $149 $339 forward 7 unknown #
vertex $-1 $152 $340 #
ellipse-curve $-1 -51.024047829220727 16.153700264069926 5.9520998021865772 -0.84804810408105047 0 0.52991925155115449 0.26495962577557725 0 0.42402405204052523 1 I I #
coedge $-1 $240 $240 $-1 $341 reversed $155 $-1 #
edge $-1 $342 0 $342 6.2831853071796004 $156 $343 forward 7 unknown #
vertex $-1 $159 $344 #
ellipse-curve $-1 -51.024047829220727 19.586035999774197 5.9520998021865772 -0.84804810408105047 0 0.52991925155115449 0.26495962577557725 0 0.42402405204052523 1 I I #
face $-1 $-1 $175 $24 $-1 $345 reversed single #
loop $-1 $-1 $260 $160 #
plane-surface $-1 0 21.874259823577049 0 0 -1 0 0 0 -1 forward_v I I I I #
coedge $-1 $346 $258 $261 $347 forward $161 $-1 #
coedge $-1 $264 $163 $164 $252 reversed $101 $-1 #
coedge $-1 $258 $346 $163 $250 reversed $161 $-1 #
edge $-1 $265 -7.7071601638593519 $348 7.7071601638593519 $249 $349 forward 7 unknown #
coedge $-1 $165 $164 $346 $350 forward $65 $-1 #
edge $-1 $256 -52.120731223487041 $348 52.120731223487041 $248 $351 forward 7 unknown #
coedge $-1 $261 $260 $165 $254 reversed $245 $-1 #
edge $-1 $352 -52.120731223487041 $255 52.120731223487041 $253 $353 forward 7 unknown #
vertex $-1 $167 $354 #
vertex $-1 $267 $355 #
straight-curve $-1 52.120731223487041 0 -7.7071601638593519 0 -1 0 I I #
coedge $-1 $247 $249 $168 $259 reversed $161 $-1 #
edge $-1 $262 -21.874259823577049 $265 21.874259823577049 $258 $356 forward 7 unknown #
coedge $-1 $253 $169 $174 $268 forward $245 $-1 #
coedge $-1 $169 $253 $247 $347 reversed $245 $-1 #
vertex $-1 $170 $357 #
straight-curve $-1 0 21.874259823577049 7.7071601638593519 -1 0 0 I I #
coedge $-1 $171 $248 $173 $267 reversed $101 $-1 #
vertex $-1 $259 $358 #
straight-curve $-1 0 -21.874259823577049 7.7071601638593519 1 0 0 I I #
edge $-1 $176 -7.7071601638593519 $256 7.7071601638593519 $173 $359 forward 7 unknown #
edge $-1 $177 -7.7071601638593519 $255 7.7071601638593519 $174 $360 forward 7 unknown #
point $-1 52.120731223487041 -21.874259823577049 7.7071601638593519 #
point $-1 52.120731223487041 21.874259823577049 7.7071601638593519 #
face $-1 $-1 $194 $25 $-1 $361 reversed single #
loop $-1 $-1 $190 $179 #
plane-surface $-1 0 -21.874259823577049 0 0 1 0 0 0 1 forward_v I I I I #
coedge $-1 $362 $363 $187 $284 forward $180 $-1 #
coedge $-1 $285 $182 $184 $280 reversed $109 $-1 #
edge $-1 $282 0.51974828864198708 $195 3.7581809363683072 $193 $364 forward 7 unknown #
coedge $-1 $184 $183 $365 $366 reversed $69 $-1 #
coedge $-1 $289 $288 $183 $279 forward $272 $-1 #
edge $-1 $367 -52.120731223487041 $281 52.120731223487041 $278 $368 forward 7 unknown #
edge $-1 $369 -52.120731223487041 $282 52.120731223487041 $275 $370 forward 7 unknown #
vertex $-1 $279 $371 #
vertex $-1 $186 $372 #
straight-curve $-1 52.120731223487041 -9.4707396093757854 2.6587129011471342 0 1 0 I I #
edge $-1 $290 -12.403520214201263 $286 -6.5379590045503075 $274 $373 forward 7 unknown #
coedge $-1 $188 $275 $362 $374 reversed $109 $-1 #
vertex $-1 $284 $375 #
straight-curve $-1 0 -16.008698613926093 5.8971455488734543 -1 0 0 I I #
coedge $-1 $278 $190 $363 $376 forward $272 $-1 #
coedge $-1 $190 $278 $192 $292 reversed $272 $-1 #
vertex $-1 $376 $377 #
straight-curve $-1 0 -21.874259823577049 5.8971455488734543 -1 0 0 I I #
edge $-1 $196 -5.8971455488734543 $281 -2.6587129011471342 $192 $378 forward 7 unknown #
point $-1 52.120731223487041 -16.008698613926093 5.8971455488734543 #
point $-1 52.120731223487041 -21.874259823577049 5.8971455488734543 #
plane-surface $-1 52.120731223487041 0 0 -1 0 0 0 0 1 forward_v I I I I #
coedge $-1 $306 $305 $298 $379 forward $199 $-1 #
coedge $-1 $298 $201 $203 $302 reversed $117 $-1 #
coedge $-1 $201 $297 $296 $379 reversed $117 $-1 #
coedge $-1 $209 $204 $201 $300 forward $210 $-1 #
edge $-1 $303 -71.433407144923521 $380 -67.718146350348022 $299 $381 forward 7 unknown #
coedge $-1 $203 $202 $306 $382 reversed $73 $-1 #
edge $-1 $383 98.46154277689368 $303 104.24146244697408 $297 $384 forward 7 unknown #
vertex $-1 $205 $385 #
straight-curve $-1 52.120731223487027 1.7097249561120158 3.991899369283864 0 1 0 I I #
coedge $-1 $296 $206 $209 $310 forward $199 $-1 #
coedge $-1 $206 $296 $301 $382 forward $199 $-1 #
vertex $-1 $207 $386 #
straight-curve $-1 19.636130082258077 0.0035798499852734977 7.7071601638593563 1 0 0 I I #
straight-curve $-1 -27.732861135563851 0.0035798499852734977 70.997020669363863 -0.76604443648966558 0 0.64278761758704617 I I #
edge $-1 $211 0.0035798499852734977 $380 6.8353199744627897 $209 $387 forward 7 unknown #
point $-1 52.120731223487041 0.0035798499852734977 7.7071601638593519 #
point $-1 52.120731223487041 0.0035798499852734977 3.9918993692838569 #
edge $-1 $388 1 $388 0 $214 $-1 forward 7 unknown #
vertex $-1 $215 $389 #
ellipse-curve $-1 48.877966499340658 1.9555055998359947 4.6233022590695505 0.64278761758704617 0 0.76604443648966558 0.38302221824483279 0 -0.32139380879352308 1 I I #
point $-1 50.289915788420728 1.9555055998359947 5.5281359577780709 #
edge $-1 $390 1 $390 0 $218 $-1 forward 7 unknown #
vertex $-1 $219 $391 #
ellipse-curve $-1 48.877966499340658 4.8833942246120721 4.6233022590695505 0.64278761758704617 0 0.76604443648966558 0.38302221824483279 0 -0.32139380879352308 1 I I #
point $-1 50.289915788420728 4.8833942246120721 5.5281359577780709 #
loop $-1 $-1 $229 $222 #
plane-surface $-1 -52.120731223487041 0 0 1 0 0 0 0 -1 forward_v I I I I #
coedge $-1 $392 $393 $226 $325 forward $223 $-1 #
coedge $-1 $226 $225 $330 $394 reversed $87 $-1 #
edge $-1 $327 7.8911852584988136 $395 12.030243769983972 $323 $396 forward 7 unknown #
coedge $-1 $232 $227 $393 $397 forward $139 $-1 #
vertex $-1 $397 $398 #
straight-curve $-1 -49.927364434954391 8.9349340659610306 7.7071601638593528 0 1 0 I I #
coedge $-1 $399 $229 $232 $334 reversed $321 $-1 #
coedge $-1 $229 $399 $324 $394 forward $321 $-1 #
vertex $-1 $230 $400 #
straight-curve $-1 -52.120731223487041 13.865476440267074 29.718298600506035 0 0 1 I I #
straight-curve $-1 -52.12073122348707 13.865476440267074 4.1970394405137839 -0.52991925155115449 0 -0.84804810408105047 I I #
edge $-1 $401 -21.874259823577049 $233 -13.865476440267074 $329 $402 forward 7 unknown #
point $-1 -52.120731223487041 13.865476440267074 7.7071601638593519 #
point $-1 -49.927364434954391 13.865476440267074 7.7071601638593519 #
edge $-1 $403 1 $403 0 $236 $-1 forward 7 unknown #
vertex $-1 $237 $404 #
ellipse-curve $-1 -50.175999725139647 16.153700264069926 5.4221805506354084 -0.84804810408105047 0 0.52991925155115449 0.26495962577557725 0 0.42402405204052523 1 I I #
point $-1 -50.759088203445124 16.153700264069926 6.3761238542270888 #
edge $-1 $405 1 $405 0 $240 $-1 forward 7 unknown #
vertex $-1 $241 $406 #
ellipse-curve $-1 -50.175999725139647 19.586035999774197 5.4221805506354084 -0.84804810408105047 0 0.52991925155115449 0.26495962577557725 0 0.42402405204052523 1 I I #
point $-1 -50.759088203445124 19.586035999774197 6.3761238542270888 #
plane-surface $-1 52.120731223487041 0 0 -1 0 0 0 0 1 forward_v I I I I #
coedge $-1 $249 $247 $251 $350 reversed $161 $-1 #
edge $-1 $262 -7.7071601638593519 $352 7.7071601638593519 $261 $407 forward 7 unknown #
vertex $-1 $350 $408 #
straight-curve $-1 -52.120731223487041 -21.874259823577049 0 0 0 -1 I I #
edge $-1 $348 -21.874259823577049 $352 21.874259823577049 $346 $409 forward 7 unknown #
straight-curve $-1 0 -21.874259823577049 -7.7071601638593519 -1 0 0 I I #
vertex $-1 $254 $410 #
straight-curve $-1 0 21.874259823577049 -7.7071601638593519 1 0 0 I I #
point $-1 52.120731223487041 21.874259823577049 -7.7071601638593519 #
point $-1 52.120731223487041 -21.874259823577049 -7.7071601638593519 #
straight-curve $-1 -52.120731223487041 0 7.7071601638593519 0 -1 0 I I #
point $-1 -52.120731223487041 21.874259823577049 7.7071601638593519 #
point $-1 -52.120731223487041 -21.874259823577049 7.7071601638593519 #
straight-curve $-1 52.120731223487041 -21.874259823577049 0 0 0 -1 I I #
straight-curve $-1 52.120731223487041 21.874259823577049 0 0 0 -1 I I #
plane-surface $-1 52.120731223487041 0 0 -1 0 0 0 0 1 forward_v I I I I #
coedge $-1 $365 $274 $285 $374 forward $180 $-1 #
coedge $-1 $274 $365 $288 $376 reversed $180 $-1 #
straight-curve $-1 52.120731223487041 -16.008698613926093 2.1389646125051471 0 0 1 I I #
coedge $-1 $363 $362 $277 $366 forward $180 $-1 #
edge $-1 $369 6.5379590045503075 $367 12.403520214201263 $365 $411 forward 7 unknown #
vertex $-1 $279 $412 #
straight-curve $-1 0 -21.874259823577049 2.6587129011471342 1 0 0 I I #
vertex $-1 $366 $413 #
straight-curve $-1 0 -16.008698613926093 2.6587129011471342 1 0 0 I I #
point $-1 52.120731223487041 -21.874259823577049 2.6587129011471342 #
point $-1 52.120731223487041 -16.008698613926093 2.6587129011471342 #
straight-curve $-1 -52.120731223487041 -9.4707396093757854 5.8971455488734543 0 1 0 I I #
edge $-1 $286 -3.7581809363683072 $369 -0.51974828864198708 $362 $414 forward 7 unknown #
point $-1 -52.120731223487041 -16.008698613926093 5.8971455488734543 #
edge $-1 $290 -5.8971455488734543 $367 -2.6587129011471342 $363 $415 forward 7 unknown #
point $-1 -52.120731223487041 -21.874259823577049 5.8971455488734543 #
straight-curve $-1 52.120731223487041 -21.874259823577049 0 0 0 -1 I I #
edge $-1 $380 -32.484601141228964 $383 -28.056925834606687 $296 $416 forward 7 unknown #
vertex $-1 $379 $417 #
straight-curve $-1 52.120731223487041 6.8353199744627897 75.425306514207378 0 0 1 I I #
edge $-1 $383 -5.1255950183507739 $307 1.7061451061267423 $306 $418 forward 7 unknown #
vertex $-1 $382 $419 #
straight-curve $-1 -27.732861135563851 6.8353199744627897 70.997020669363863 0.76604443648966558 0 -0.64278761758704617 I I #
point $-1 52.120731223487041 6.8353199744627897 3.9918993692838569 #
point $-1 47.693055916864765 0.0035798499852734977 7.7071601638593492 #
straight-curve $-1 52.120731223487041 0 7.7071601638593519 0 1 0 I I #
vertex $-1 $313 $420 #
point $-1 49.260988717585491 1.9555055998359947 4.3019084502760281 #
vertex $-1 $317 $421 #
point $-1 49.260988717585491 4.8833942246120721 4.3019084502760281 #
coedge $-1 $393 $323 $399 $422 reversed $223 $-1 #
coedge $-1 $323 $392 $326 $397 reversed $223 $-1 #
edge $-1 $395 -12.939325757616018 $331 -4.930542374306043 $330 $423 forward 7 unknown #
vertex $-1 $325 $424 #
straight-curve $-1 -45.745673448919199 21.874259823577049 14.399264861281607 -0.52991925155115449 0 -0.84804810408105047 I I #
edge $-1 $327 49.927364434954391 $401 52.120731223487041 $393 $425 forward 7 unknown #
point $-1 -49.927364434954391 21.874259823577049 7.7071601638593519 #
coedge $-1 $330 $329 $392 $422 forward $321 $-1 #
point $-1 -52.120731223487041 13.865476440267074 4.1970394405138292 #
vertex $-1 $397 $426 #
straight-curve $-1 -52.120731223487041 0 7.7071601638593519 0 -1 0 I I #
vertex $-1 $337 $427 #
point $-1 -49.911040099364072 16.153700264069926 5.8462046026759342 #
vertex $-1 $341 $428 #
point $-1 -49.911040099364072 19.586035999774197 5.8462046026759342 #
straight-curve $-1 -52.120731223487041 21.874259823577049 0 0 0 -1 I I #
point $-1 -52.120731223487041 -21.874259823577049 -7.7071601638593519 #
straight-curve $-1 -52.120731223487041 0 -7.7071601638593519 0 1 0 I I #
point $-1 -52.120731223487041 21.874259823577049 -7.7071601638593519 #
straight-curve $-1 -52.120731223487041 -9.4707396093757854 2.6587129011471342 0 -1 0 I I #
point $-1 -52.120731223487041 -21.874259823577049 2.6587129011471342 #
point $-1 -52.120731223487041 -16.008698613926093 2.6587129011471342 #
straight-curve $-1 -52.120731223487041 -16.008698613926093 2.1389646125051471 0 0 -1 I I #
straight-curve $-1 -52.120731223487041 -21.874259823577049 0 0 0 -1 I I #
straight-curve $-1 19.636130082258077 6.8353199744627897 7.7071601638593563 -1 0 0 I I #
point $-1 52.120731223487041 6.8353199744627897 7.7071601638593519 #
straight-curve $-1 47.693055916864751 1.7097249561120158 7.7071601638593563 0 -1 0 I I #
point $-1 47.693055916864765 6.8353199744627897 7.7071601638593492 #
point $-1 48.556572690547142 1.9555055998359947 4.2402800408247199 #
point $-1 48.556572690547142 4.8833942246120721 4.2402800408247199 #
edge $-1 $401 -7.7071601638593519 $395 -4.1970394405138292 $392 $429 forward 7 unknown #
straight-curve $-1 -52.120731223487041 8.9349340659610306 4.19703944051383 0 -1 0 I I #
point $-1 -52.120731223487041 21.874259823577049 4.1970394405138292 #
straight-curve $-1 0 21.874259823577049 7.7071601638593519 -1 0 0 I I #
point $-1 -52.120731223487041 21.874259823577049 7.7071601638593519 #
point $-1 -49.751975673099125 16.153700264069926 5.157220924859832 #
point $-1 -49.751975673099125 19.586035999774197 5.157220924859832 #
straight-curve $-1 -52.120731223487041 21.874259823577049 0 0 0 -1 I I #
End-of-ACIS-data 