500 0 7 0           
7 Unknown 11 ACIS 5.0 NT 24 Fri Mar 26 14:43:43 1999 
-1 9.9999999999999995e-007 1e-010 
body $-1 $7 $-1 $8 #
body $-1 $9 $-1 $10 #
body $-1 $11 $-1 $12 #
body $-1 $13 $-1 $14 #
body $-1 $15 $-1 $16 #
body $-1 $17 $-1 $18 #
body $-1 $19 $-1 $20 #
lump $-1 $-1 $21 $0 #
transform $-1 1 0 0 0 1 0 0 0 1 53.967711416974396 28.907238788804065 13.659634137591105 1 rotate no_reflect no_shear #
lump $-1 $-1 $22 $1 #
transform $-1 1 0 0 0 1 0 0 0 1 53.967711416974396 28.907238788804065 13.659634137591105 1 rotate no_reflect no_shear #
lump $-1 $-1 $23 $2 #
transform $-1 1 0 0 0 1 0 0 0 1 53.967711416974396 28.907238788804065 13.659634137591105 1 rotate no_reflect no_shear #
lump $-1 $-1 $24 $3 #
transform $-1 1 0 0 0 1 0 0 0 1 53.967711416974396 28.907238788804065 13.659634137591105 1 rotate no_reflect no_shear #
lump $-1 $-1 $25 $4 #
transform $-1 1 0 0 0 1 0 0 0 1 53.967711416974396 28.907238788804065 13.659634137591105 1 rotate no_reflect no_shear #
lump $-1 $-1 $26 $5 #
transform $-1 1 0 0 0 1 0 0 0 1 53.967711416974396 28.907238788804065 13.659634137591105 1 rotate no_reflect no_shear #
lump $-1 $-1 $27 $6 #
transform $-1 1 0 0 0 1 0 0 0 1 53.967711416974396 28.907238788804065 13.659634137591105 1 rotate no_reflect no_shear #
shell $-1 $-1 $-1 $28 $-1 $7 #
shell $-1 $-1 $-1 $29 $-1 $9 #
shell $-1 $-1 $-1 $30 $-1 $11 #
shell $-1 $-1 $-1 $31 $-1 $13 #
shell $-1 $-1 $-1 $32 $-1 $15 #
shell $-1 $-1 $-1 $33 $-1 $17 #
shell $-1 $-1 $-1 $34 $-1 $19 #
face $-1 $35 $36 $21 $-1 $37 forward single #
face $-1 $38 $39 $22 $-1 $40 reversed single #
face $-1 $41 $42 $23 $-1 $43 forward single #
face $-1 $44 $45 $24 $-1 $46 forward single #
face $-1 $47 $48 $25 $-1 $49 reversed single #
face $-1 $50 $51 $26 $-1 $52 forward single #
face $-1 $53 $54 $27 $-1 $55 forward single #
face $-1 $56 $57 $21 $-1 $58 reversed single #
loop $-1 $-1 $59 $28 #
plane-surface $-1 0 0 13.659634137591105 0 0 1 1 0 0 forward_v I I I I #
face $-1 $60 $61 $22 $-1 $62 reversed single #
loop $-1 $-1 $63 $29 #
plane-surface $-1 -37.331880674511197 76.404988588885359 119.05840195738804 -1 0 0 0 0.77714596973225614 0.62932038083071107 forward_v I I I I #
face $-1 $64 $65 $23 $-1 $66 forward single #
loop $-1 $67 $68 $30 #
cone-surface $-1 -49.214616919127771 25.011615952996433 9.2214025327753006 0 -0.77714596973225614 -0.62932038083071107 1.5 0 0 1 I I 0 1 1.5 forward I I I I #
face $-1 $69 $70 $24 $-1 $71 forward single #
loop $-1 $72 $73 $31 #
cone-surface $-1 -42.084975172357829 25.011615952996433 9.2214025327753006 0 -0.77714596973225614 -0.62932038083071107 1.5 0 0 1 I I 0 1 1.5 forward I I I I #
face $-1 $74 $75 $25 $-1 $76 reversed single #
loop $-1 $-1 $77 $32 #
plane-surface $-1 44.65367100484422 -123.309687520811 55.798277193896972 -1 0 0 0 -0.87461971476443456 0.48480960649040278 forward_v I I I I #
face $-1 $78 $79 $26 $-1 $80 forward single #
loop $-1 $81 $82 $33 #
cone-surface $-1 30.143711963415811 -22.992125711680661 6.851493359051835 0 0.87461971476443456 -0.48480960649040278 2 0 0 1 I I 0 1 2 forward I I I I #
face $-1 $83 $84 $27 $-1 $85 forward single #
loop $-1 $86 $87 $34 #
cone-surface $-1 38.849687388272855 -22.992125711680661 6.851493359051835 0 0.87461971476443456 -0.48480960649040278 2 0 0 1 I I 0 1 2 forward I I I I #
face $-1 $88 $89 $21 $-1 $90 reversed single #
loop $-1 $-1 $91 $35 #
plane-surface $-1 0 0 -13.659634137591105 0 0 1 1 0 0 forward_v I I I I #
coedge $-1 $92 $93 $94 $95 forward $36 $-1 #
face $-1 $96 $97 $22 $-1 $98 reversed single #
loop $-1 $-1 $99 $38 #
plane-surface $-1 -45.649796045742796 -7.4765902578648706 51.132440554403559 0 0.77714596973225614 0.62932038083071107 1 0 0 forward_v I I I I #
coedge $-1 $100 $101 $102 $103 reversed $39 $-1 #
face $-1 $-1 $104 $23 $-1 $105 forward single #
loop $-1 $106 $107 $41 #
cone-surface $-1 -49.214616919127771 23.552608413489175 8.039921554737262 0 -0.77714596973225614 -0.62932038083071107 0.75 0 0 1 I I -0.70710678118654757 0.70710678118654757 0.75 forward I I I I #
loop $-1 $-1 $108 $30 #
coedge $-1 $68 $68 $109 $110 reversed $42 $-1 #
face $-1 $-1 $111 $24 $-1 $112 forward single #
loop $-1 $113 $114 $44 #
cone-surface $-1 -42.084975172357829 23.552608413489175 8.039921554737262 0 -0.77714596973225614 -0.62932038083071107 0.75 0 0 1 I I -0.70710678118654757 0.70710678118654757 0.75 forward I I I I #
loop $-1 $-1 $115 $31 #
coedge $-1 $73 $73 $116 $117 reversed $45 $-1 #
face $-1 $118 $119 $25 $-1 $120 reversed single #
loop $-1 $-1 $121 $47 #
plane-surface $-1 34.496699675844326 -28.907238788804065 3.4701473233950253 0 -0.87461971476443456 0.48480960649040278 1 0 0 forward_v I I I I #
coedge $-1 $122 $123 $124 $125 reversed $48 $-1 #
face $-1 $-1 $126 $26 $-1 $127 forward single #
loop $-1 $128 $129 $50 #
cone-surface $-1 30.143711963415811 -19.026455200426447 4.653286381120207 0 0.87461971476443456 -0.48480960649040278 1 0 0 1 I I -0.70710678118654746 0.70710678118654746 1 forward I I I I #
loop $-1 $-1 $130 $33 #
coedge $-1 $82 $82 $131 $132 reversed $51 $-1 #
face $-1 $-1 $133 $27 $-1 $134 forward single #
loop $-1 $135 $136 $53 #
cone-surface $-1 38.849687388272855 -19.026455200426447 4.653286381120207 0 0.87461971476443456 -0.48480960649040278 1 0 0 1 I I -0.70710678118654746 0.70710678118654746 1 forward I I I I #
loop $-1 $-1 $137 $34 #
coedge $-1 $87 $87 $138 $139 reversed $54 $-1 #
face $-1 $140 $141 $21 $-1 $142 reversed single #
loop $-1 $-1 $143 $56 #
plane-surface $-1 0 -28.907238788804065 0 0 1 0 0 0 1 forward_v I I I I #
coedge $-1 $144 $145 $146 $147 forward $57 $-1 #
coedge $-1 $148 $59 $149 $150 forward $36 $-1 #
coedge $-1 $59 $148 $151 $152 forward $36 $-1 #
coedge $-1 $153 $154 $59 $95 reversed $155 $-1 #
edge $-1 $156 -28.907238788804065 $157 28.907238788804065 $94 $158 forward 7 unknown #
face $-1 $159 $160 $22 $-1 $161 forward single #
loop $-1 $-1 $102 $60 #
plane-surface $-1 0 28.907238788804065 0 0 -1 0 0 0 -1 forward_v I I I I #
coedge $-1 $162 $163 $164 $165 reversed $61 $-1 #
coedge $-1 $101 $63 $166 $167 reversed $39 $-1 #
coedge $-1 $63 $100 $162 $168 reversed $39 $-1 #
coedge $-1 $164 $169 $63 $103 forward $97 $-1 #
edge $-1 $170 45.869566841102916 $171 53.327048665904492 $102 $172 forward 7 unknown #
loop $-1 $-1 $109 $64 #
plane-surface $-1 -45.649796045742796 -7.4765902578648706 51.132440554403559 0 0.77714596973225614 0.62932038083071107 1 0 0 forward_v I I I I #
loop $-1 $-1 $173 $41 #
coedge $-1 $107 $107 $108 $174 reversed $65 $-1 #
coedge $-1 $108 $108 $107 $174 forward $67 $-1 #
coedge $-1 $109 $109 $68 $110 forward $104 $-1 #
edge $-1 $175 1.2704470335423277e-015 $175 6.2831853071796013 $109 $176 forward 7 unknown #
loop $-1 $-1 $116 $69 #
plane-surface $-1 -45.649796045742796 -7.4765902578648706 51.132440554403559 0 0.77714596973225614 0.62932038083071107 1 0 0 forward_v I I I I #
loop $-1 $-1 $177 $44 #
coedge $-1 $114 $114 $115 $178 reversed $70 $-1 #
coedge $-1 $115 $115 $114 $178 forward $72 $-1 #
coedge $-1 $116 $116 $73 $117 forward $111 $-1 #
edge $-1 $179 1.2704470335423277e-015 $179 6.2831853071796013 $116 $180 forward 7 unknown #
face $-1 $181 $182 $25 $-1 $183 reversed single #
loop $-1 $-1 $184 $74 #
plane-surface $-1 24.339728346844431 -123.309687520811 55.798277193896972 1 0 0 0 0.87461971476443456 -0.48480960649040278 forward_v I I I I #
coedge $-1 $185 $186 $187 $188 reversed $75 $-1 #
coedge $-1 $123 $77 $189 $190 reversed $48 $-1 #
coedge $-1 $77 $122 $185 $191 reversed $48 $-1 #
coedge $-1 $187 $192 $77 $125 forward $193 $-1 #
edge $-1 $194 32.747604971601433 $195 38.395729532868671 $124 $196 forward 7 unknown #
loop $-1 $-1 $131 $78 #
plane-surface $-1 34.496699675844326 -28.907238788804065 3.4701473233950253 0 -0.87461971476443456 0.48480960649040278 1 0 0 forward_v I I I I #
loop $-1 $-1 $197 $50 #
coedge $-1 $129 $129 $130 $198 reversed $79 $-1 #
coedge $-1 $130 $130 $129 $198 forward $81 $-1 #
coedge $-1 $131 $131 $82 $132 forward $126 $-1 #
edge $-1 $199 1.6875300839624263e-016 $199 6.2831853071796004 $131 $200 forward 7 unknown #
loop $-1 $-1 $138 $83 #
plane-surface $-1 34.496699675844326 -28.907238788804065 3.4701473233950253 0 -0.87461971476443456 0.48480960649040278 1 0 0 forward_v I I I I #
loop $-1 $-1 $201 $53 #
coedge $-1 $136 $136 $137 $202 reversed $84 $-1 #
coedge $-1 $137 $137 $136 $202 forward $86 $-1 #
coedge $-1 $138 $138 $87 $139 forward $133 $-1 #
edge $-1 $203 1.6875300839624263e-016 $203 6.2831853071796004 $138 $204 forward 7 unknown #
face $-1 $205 $206 $21 $-1 $207 reversed single #
loop $-1 $-1 $208 $88 #
plane-surface $-1 -53.967711416974396 0 0 1 0 0 0 0 -1 forward_v I I I I #
coedge $-1 $209 $151 $210 $211 forward $89 $-1 #
coedge $-1 $212 $91 $209 $213 forward $57 $-1 #
coedge $-1 $91 $212 $214 $215 forward $57 $-1 #
coedge $-1 $154 $153 $91 $147 reversed $155 $-1 #
edge $-1 $216 -28.907238788804065 $217 28.907238788804065 $146 $218 forward 7 unknown #
coedge $-1 $93 $92 $219 $220 forward $36 $-1 #
coedge $-1 $221 $222 $92 $150 reversed $206 $-1 #
edge $-1 $157 -53.967711416974396 $223 53.967711416974396 $149 $224 forward 7 unknown #
coedge $-1 $143 $225 $93 $152 reversed $89 $-1 #
edge $-1 $226 -53.967711416974396 $156 53.967711416974396 $151 $227 forward 7 unknown #
coedge $-1 $146 $94 $225 $228 forward $155 $-1 #
coedge $-1 $94 $146 $221 $229 reversed $155 $-1 #
loop $-1 $-1 $153 $205 #
vertex $-1 $95 $230 #
vertex $-1 $95 $231 #
straight-curve $-1 53.967711416974396 0 13.659634137591105 0 1 0 I I #
face $-1 $-1 $232 $22 $-1 $233 reversed single #
loop $-1 $-1 $166 $96 #
plane-surface $-1 0 0 13.659634137591105 0 0 1 1 0 0 forward_v I I I I #
coedge $-1 $234 $99 $101 $168 forward $61 $-1 #
coedge $-1 $99 $234 $235 $236 reversed $61 $-1 #
coedge $-1 $237 $102 $99 $165 forward $97 $-1 #
edge $-1 $171 14.506982651639799 $238 31.142813394102998 $164 $239 forward 7 unknown #
coedge $-1 $240 $241 $100 $167 forward $160 $-1 #
edge $-1 $242 -15.334205052837738 $170 -9.2952555056386146 $166 $243 forward 7 unknown #
edge $-1 $171 -57.814477577608102 $242 -48.218491604251206 $101 $244 forward 7 unknown #
coedge $-1 $102 $237 $240 $245 reversed $97 $-1 #
vertex $-1 $245 $246 #
vertex $-1 $103 $247 #
straight-curve $-1 -37.331880674511197 28.907238788804065 59.529200978694021 0 0 -1 I I #
coedge $-1 $173 $173 $-1 $248 reversed $106 $-1 #
edge $-1 $249 0 $249 6.2831853071796004 $107 $250 forward 7 unknown #
vertex $-1 $110 $251 #
ellipse-curve $-1 -49.214616919127771 25.887764015204503 9.9308932251903119 0 0.77714596973225614 0.62932038083071107 1.5 0 0 1 I I #
coedge $-1 $177 $177 $-1 $252 reversed $113 $-1 #
edge $-1 $253 0 $253 6.2831853071796004 $114 $254 forward 7 unknown #
vertex $-1 $117 $255 #
ellipse-curve $-1 -42.084975172357829 25.887764015204503 9.9308932251903119 0 0.77714596973225614 0.62932038083071107 1.5 0 0 1 I I #
face $-1 $-1 $193 $25 $-1 $256 forward single #
loop $-1 $-1 $257 $118 #
plane-surface $-1 0 -28.907238788804065 0 0 1 0 0 0 1 forward_v I I I I #
coedge $-1 $258 $259 $260 $261 reversed $119 $-1 #
coedge $-1 $262 $121 $123 $191 forward $75 $-1 #
coedge $-1 $121 $262 $258 $263 forward $75 $-1 #
coedge $-1 $260 $124 $121 $188 forward $193 $-1 #
edge $-1 $195 -27.405321166922057 $264 -7.0913785089222685 $187 $265 forward 7 unknown #
coedge $-1 $266 $267 $122 $190 forward $182 $-1 #
edge $-1 $268 -24.428991273553461 $194 -14.239504459357381 $189 $269 forward 7 unknown #
edge $-1 $195 -11.650191096984891 $268 0 $123 $270 forward 7 unknown #
coedge $-1 $124 $260 $266 $271 forward $193 $-1 #
loop $-1 $-1 $260 $181 #
vertex $-1 $190 $272 #
vertex $-1 $125 $273 #
straight-curve $-1 44.65367100484422 -61.654843760405498 13.659634137591105 0 1 0 I I #
coedge $-1 $197 $197 $-1 $274 reversed $128 $-1 #
edge $-1 $275 0 $275 6.2831853071796004 $129 $276 forward 7 unknown #
vertex $-1 $132 $277 #
ellipse-curve $-1 30.143711963415811 -26.083176508170446 8.5648907304930635 0 -0.87461971476443456 0.48480960649040278 2 0 0 1 I I #
coedge $-1 $201 $201 $-1 $278 reversed $135 $-1 #
edge $-1 $279 0 $279 6.2831853071796004 $136 $280 forward 7 unknown #
vertex $-1 $139 $281 #
ellipse-curve $-1 38.849687388272855 -26.083176508170446 8.5648907304930635 0 -0.87461971476443456 0.48480960649040278 2 0 0 1 I I #
face $-1 $-1 $155 $21 $-1 $282 reversed single #
loop $-1 $-1 $221 $140 #
plane-surface $-1 0 28.907238788804065 0 0 -1 0 0 0 -1 forward_v I I I I #
coedge $-1 $283 $219 $222 $284 forward $141 $-1 #
coedge $-1 $225 $143 $144 $213 reversed $89 $-1 #
coedge $-1 $219 $283 $143 $211 reversed $141 $-1 #
edge $-1 $226 -13.659634137591105 $285 13.659634137591105 $210 $286 forward 7 unknown #
coedge $-1 $145 $144 $283 $287 forward $57 $-1 #
edge $-1 $217 -53.967711416974396 $285 53.967711416974396 $209 $288 forward 7 unknown #
coedge $-1 $222 $221 $145 $215 reversed $206 $-1 #
edge $-1 $289 -53.967711416974396 $216 53.967711416974396 $214 $290 forward 7 unknown #
vertex $-1 $147 $291 #
vertex $-1 $228 $292 #
straight-curve $-1 53.967711416974396 0 -13.659634137591105 0 -1 0 I I #
coedge $-1 $208 $210 $148 $220 reversed $141 $-1 #
edge $-1 $223 -28.907238788804065 $226 28.907238788804065 $219 $293 forward 7 unknown #
coedge $-1 $214 $149 $154 $229 forward $206 $-1 #
coedge $-1 $149 $214 $208 $284 reversed $206 $-1 #
vertex $-1 $150 $294 #
straight-curve $-1 0 28.907238788804065 13.659634137591105 -1 0 0 I I #
coedge $-1 $151 $209 $153 $228 reversed $89 $-1 #
vertex $-1 $220 $295 #
straight-curve $-1 0 -28.907238788804065 13.659634137591105 1 0 0 I I #
edge $-1 $156 -13.659634137591105 $217 13.659634137591105 $153 $296 forward 7 unknown #
edge $-1 $157 -13.659634137591105 $216 13.659634137591105 $154 $297 forward 7 unknown #
point $-1 53.967711416974396 -28.907238788804065 13.659634137591105 #
point $-1 53.967711416974396 28.907238788804065 13.659634137591105 #
loop $-1 $-1 $235 $159 #
plane-surface $-1 -53.967711416974396 0 0 1 0 0 0 0 -1 forward_v I I I I #
coedge $-1 $163 $162 $241 $298 reversed $61 $-1 #
coedge $-1 $299 $300 $163 $236 forward $232 $-1 #
edge $-1 $238 -35.593207213696303 $301 -25.997221240339403 $235 $302 forward 7 unknown #
coedge $-1 $169 $164 $300 $303 reversed $97 $-1 #
vertex $-1 $165 $304 #
straight-curve $-1 -22.824898022871398 28.907238788804065 6.2021523127895293 -1 0 0 I I #
coedge $-1 $305 $166 $169 $245 forward $160 $-1 #
coedge $-1 $166 $305 $234 $298 forward $160 $-1 #
vertex $-1 $167 $306 #
straight-curve $-1 -37.331880674511197 38.20249429444268 13.659634137591105 0 1 0 I I #
straight-curve $-1 -37.331880674511197 -7.4765902578648706 51.132440554403559 0 -0.62932038083071107 0.77714596973225614 I I #
edge $-1 $170 37.331880674511197 $307 53.967711416974396 $169 $308 forward 7 unknown #
point $-1 -37.331880674511197 28.907238788804065 13.659634137591105 #
point $-1 -37.331880674511197 28.907238788804065 6.2021523127895293 #
edge $-1 $309 1 $309 0 $173 $-1 forward 7 unknown #
vertex $-1 $174 $310 #
ellipse-curve $-1 -49.214616919127771 24.135467890788366 8.5119118403602947 0 0.77714596973225614 0.62932038083071107 1.5 0 0 1 I I #
point $-1 -47.714616919127771 25.8877640152045 9.9308932251903066 #
edge $-1 $311 1 $311 0 $177 $-1 forward 7 unknown #
vertex $-1 $178 $312 #
ellipse-curve $-1 -42.084975172357829 24.135467890788366 8.5119118403602947 0 0.77714596973225614 0.62932038083071107 1.5 0 0 1 I I #
point $-1 -40.584975172357829 25.8877640152045 9.9308932251903066 #
plane-surface $-1 0 0 13.659634137591105 0 0 1 1 0 0 forward_v I I I I #
coedge $-1 $267 $266 $259 $313 forward $182 $-1 #
coedge $-1 $259 $184 $186 $263 reversed $119 $-1 #
coedge $-1 $184 $258 $257 $313 reversed $119 $-1 #
coedge $-1 $192 $187 $184 $261 forward $193 $-1 #
edge $-1 $264 -38.395729532868671 $314 -32.747604971601433 $260 $315 forward 7 unknown #
coedge $-1 $186 $185 $267 $316 reversed $75 $-1 #
edge $-1 $317 0 $264 11.650191096984891 $258 $318 forward 7 unknown #
vertex $-1 $188 $319 #
straight-curve $-1 17.248349837922163 -23.259114227536827 13.659634137591105 -1 0 0 I I #
coedge $-1 $257 $189 $192 $271 reversed $182 $-1 #
coedge $-1 $189 $257 $262 $316 forward $182 $-1 #
vertex $-1 $190 $320 #
straight-curve $-1 44.65367100484422 -28.907238788804065 27.899138596948486 0 0 1 I I #
straight-curve $-1 44.65367100484422 -28.907238788804065 3.4701473233950253 0 -0.48480960649040278 -0.87461971476443456 I I #
edge $-1 $314 24.339728346844431 $194 44.65367100484422 $266 $321 forward 7 unknown #
point $-1 44.65367100484422 -28.907238788804065 13.659634137591105 #
point $-1 44.65367100484422 -23.259114227536827 13.659634137591105 #
edge $-1 $322 1 $322 0 $197 $-1 forward 7 unknown #
vertex $-1 $198 $323 #
ellipse-curve $-1 30.143711963415811 -19.901074915190883 5.13809598761061 0 -0.87461971476443456 0.48480960649040278 2 0 0 1 I I #
point $-1 32.143711963415811 -26.083176508170439 8.5648907304930599 #
edge $-1 $324 1 $324 0 $201 $-1 forward 7 unknown #
vertex $-1 $202 $325 #
ellipse-curve $-1 38.849687388272855 -19.901074915190883 5.13809598761061 0 -0.87461971476443456 0.48480960649040278 2 0 0 1 I I #
point $-1 40.849687388272855 -26.083176508170439 8.5648907304930599 #
plane-surface $-1 53.967711416974396 0 0 -1 0 0 0 0 1 forward_v I I I I #
coedge $-1 $210 $208 $212 $287 reversed $141 $-1 #
edge $-1 $223 -13.659634137591105 $289 13.659634137591105 $222 $326 forward 7 unknown #
vertex $-1 $287 $327 #
straight-curve $-1 -53.967711416974396 -28.907238788804065 0 0 0 -1 I I #
edge $-1 $285 -28.907238788804065 $289 28.907238788804065 $283 $328 forward 7 unknown #
straight-curve $-1 0 -28.907238788804065 -13.659634137591105 -1 0 0 I I #
vertex $-1 $215 $329 #
straight-curve $-1 0 28.907238788804065 -13.659634137591105 1 0 0 I I #
point $-1 53.967711416974396 28.907238788804065 -13.659634137591105 #
point $-1 53.967711416974396 -28.907238788804065 -13.659634137591105 #
straight-curve $-1 -53.967711416974396 0 13.659634137591105 0 -1 0 I I #
point $-1 -53.967711416974396 28.907238788804065 13.659634137591105 #
point $-1 -53.967711416974396 -28.907238788804065 13.659634137591105 #
straight-curve $-1 53.967711416974396 -28.907238788804065 0 0 0 -1 I I #
straight-curve $-1 53.967711416974396 28.907238788804065 0 0 0 -1 I I #
edge $-1 $301 -31.142813394102998 $242 -14.506982651639799 $241 $330 forward 7 unknown #
coedge $-1 $300 $235 $305 $331 reversed $232 $-1 #
coedge $-1 $235 $299 $237 $303 forward $232 $-1 #
vertex $-1 $236 $332 #
straight-curve $-1 -53.967711416974396 6.5077080700942957 33.863269848758677 0 -0.62932038083071107 0.77714596973225614 I I #
edge $-1 $307 -13.659634137591105 $238 -6.2021523127895311 $237 $333 forward 7 unknown #
point $-1 -53.967711416974396 28.907238788804065 6.2021523127895311 #
coedge $-1 $241 $240 $299 $331 forward $160 $-1 #
point $-1 -37.331880674511197 22.868289241604941 13.659634137591105 #
vertex $-1 $245 $334 #
straight-curve $-1 0 28.907238788804065 13.659634137591105 -1 0 0 I I #
vertex $-1 $248 $335 #
point $-1 -47.714616919127771 24.135467890788366 8.5119118403602947 #
vertex $-1 $252 $336 #
point $-1 -40.584975172357829 24.135467890788366 8.5119118403602947 #
edge $-1 $314 14.239504459357381 $317 24.428991273553461 $257 $337 forward 7 unknown #
vertex $-1 $271 $338 #
straight-curve $-1 24.339728346844431 -61.654843760405498 13.659634137591105 0 -1 0 I I #
edge $-1 $317 7.0913785089222685 $268 27.405321166922057 $267 $339 forward 7 unknown #
vertex $-1 $316 $340 #
straight-curve $-1 24.339728346844431 -28.907238788804065 3.4701473233950253 0 0.48480960649040278 0.87461971476443456 I I #
point $-1 24.339728346844431 -23.259114227536827 13.659634137591105 #
point $-1 44.65367100484422 -28.907238788804065 3.4701473233950253 #
straight-curve $-1 0 -28.907238788804065 13.659634137591105 1 0 0 I I #
vertex $-1 $274 $341 #
point $-1 32.143711963415811 -19.901074915190883 5.13809598761061 #
vertex $-1 $278 $342 #
point $-1 40.849687388272855 -19.901074915190883 5.13809598761061 #
straight-curve $-1 -53.967711416974396 28.907238788804065 0 0 0 -1 I I #
point $-1 -53.967711416974396 -28.907238788804065 -13.659634137591105 #
straight-curve $-1 -53.967711416974396 0 -13.659634137591105 0 1 0 I I #
point $-1 -53.967711416974396 28.907238788804065 -13.659634137591105 #
straight-curve $-1 -22.824898022871398 22.868289241604941 13.659634137591105 1 0 0 I I #
edge $-1 $307 -28.907238788804065 $301 -22.868289241604941 $299 $343 forward 7 unknown #
point $-1 -53.967711416974396 22.868289241604941 13.659634137591105 #
straight-curve $-1 -53.967711416974396 28.907238788804065 0 0 0 -1 I I #
point $-1 -53.967711416974396 28.907238788804065 13.659634137591105 #
point $-1 -49.214616919127771 22.969748936189983 7.5679312691142284 #
point $-1 -42.084975172357829 22.969748936189983 7.5679312691142284 #
straight-curve $-1 24.339728346844431 -28.907238788804065 27.899138596948486 0 0 -1 I I #
point $-1 24.339728346844431 -28.907238788804065 13.659634137591105 #
straight-curve $-1 17.248349837922163 -28.907238788804065 3.4701473233950235 1 0 0 I I #
point $-1 24.339728346844431 -28.907238788804065 3.4701473233950253 #
point $-1 30.143711963415811 -18.151835485662012 4.1684767746298039 #
point $-1 38.849687388272855 -18.151835485662012 4.1684767746298039 #
straight-curve $-1 -53.967711416974396 0 13.659634137591105 0 -1 0 I I #
End-of-ACIS-data 