500 0 6 0           
7 Unknown 11 ACIS 5.0 NT 24 Thu Mar 25 19:04:28 1999 
-1 9.9999999999999995e-007 1e-010 
body $-1 $6 $-1 $7 #
body $-1 $8 $-1 $9 #
body $-1 $10 $-1 $11 #
body $-1 $12 $-1 $13 #
body $-1 $14 $-1 $15 #
body $-1 $16 $-1 $17 #
lump $-1 $-1 $18 $0 #
transform $-1 1 0 0 0 1 0 0 0 1 50.359202856532491 33.076592060235022 8.8453915703914134 1 rotate no_reflect no_shear #
lump $-1 $-1 $19 $1 #
transform $-1 1 0 0 0 1 0 0 0 1 50.359202856532491 33.076592060235022 8.8453915703914134 1 rotate no_reflect no_shear #
lump $-1 $-1 $20 $2 #
transform $-1 1 0 0 0 1 0 0 0 1 50.359202856532491 33.076592060235022 8.8453915703914134 1 rotate no_reflect no_shear #
lump $-1 $-1 $21 $3 #
transform $-1 1 0 0 0 1 0 0 0 1 50.359202856532491 33.076592060235022 8.8453915703914134 1 rotate no_reflect no_shear #
lump $-1 $-1 $22 $4 #
transform $-1 1 0 0 0 1 0 0 0 1 50.359202856532491 33.076592060235022 8.8453915703914134 1 rotate no_reflect no_shear #
lump $-1 $-1 $23 $5 #
transform $-1 1 0 0 0 1 0 0 0 1 50.359202856532491 33.076592060235022 8.8453915703914134 1 rotate no_reflect no_shear #
shell $-1 $-1 $-1 $24 $-1 $6 #
shell $-1 $-1 $-1 $25 $-1 $8 #
shell $-1 $-1 $-1 $26 $-1 $10 #
shell $-1 $-1 $-1 $27 $-1 $12 #
shell $-1 $-1 $-1 $28 $-1 $14 #
shell $-1 $-1 $-1 $29 $-1 $16 #
face $-1 $30 $31 $18 $-1 $32 forward single #
face $-1 $33 $34 $19 $-1 $35 reversed single #
face $-1 $36 $37 $20 $-1 $38 reversed single #
face $-1 $39 $40 $21 $-1 $41 forward single #
face $-1 $42 $43 $22 $-1 $44 reversed single #
face $-1 $45 $46 $23 $-1 $47 forward single #
face $-1 $48 $49 $18 $-1 $50 reversed single #
loop $-1 $-1 $51 $24 #
plane-surface $-1 0 0 8.8453915703914134 0 0 1 1 0 0 forward_v I I I I #
face $-1 $52 $53 $19 $-1 $54 reversed single #
loop $-1 $-1 $55 $25 #
plane-surface $-1 -37.800836225385083 -27.906399004185204 0 1 0 0 0 0 -1 forward_v I I I I #
face $-1 $56 $57 $20 $-1 $58 reversed single #
loop $-1 $-1 $59 $26 #
plane-surface $-1 -47.882890032197082 36.656781362528584 120.80259685585419 1 0 0 0 -0.57357644374324357 -0.81915203911291934 forward_v I I I I #
face $-1 $60 $61 $21 $-1 $62 forward single #
loop $-1 $63 $64 $27 #
cone-surface $-1 -37.129516561732004 25.7270111200522 2.7624354726022742 0 -0.57357644374324357 -0.81915203911291934 2.5 0 0 1 I I 0 1 2.5 forward I I I I #
face $-1 $65 $66 $22 $-1 $67 reversed single #
loop $-1 $-1 $68 $28 #
plane-surface $-1 26.376143091266922 36.656781362528584 120.80259685585419 1 0 0 0 -0.57357644374324357 -0.81915203911291934 forward_v I I I I #
face $-1 $69 $70 $23 $-1 $71 forward single #
loop $-1 $72 $73 $29 #
cone-surface $-1 37.129516561732004 25.7270111200522 2.7624354726022742 0 -0.57357644374324357 -0.81915203911291934 2.5 0 0 1 I I 0 1 2.5 forward I I I I #
face $-1 $74 $75 $18 $-1 $76 reversed single #
loop $-1 $-1 $77 $30 #
plane-surface $-1 0 0 -8.8453915703914134 0 0 1 1 0 0 forward_v I I I I #
coedge $-1 $78 $79 $80 $81 forward $31 $-1 #
face $-1 $82 $83 $19 $-1 $84 reversed single #
loop $-1 $-1 $85 $33 #
plane-surface $-1 -35.234627970567374 -22.736205948135385 0 0 -1 0 0 0 -1 forward_v I I I I #
coedge $-1 $86 $87 $88 $89 forward $34 $-1 #
face $-1 $90 $91 $20 $-1 $92 reversed single #
loop $-1 $-1 $93 $36 #
plane-surface $-1 -37.129516561732004 -21.112923605860416 38.298909439794713 0 0.57357644374324357 0.81915203911291934 1 0 0 forward_v I I I I #
coedge $-1 $94 $95 $96 $97 reversed $37 $-1 #
face $-1 $-1 $98 $21 $-1 $99 forward single #
loop $-1 $100 $101 $39 #
cone-surface $-1 -37.129516561732004 23.723226443827834 -0.099265563724053152 0 -0.57357644374324357 -0.81915203911291934 1.25 0 0 1 I I -0.70710678118654746 0.70710678118654746 1.25 forward I I I I #
loop $-1 $-1 $102 $27 #
coedge $-1 $64 $64 $103 $104 reversed $40 $-1 #
face $-1 $105 $106 $22 $-1 $107 reversed single #
loop $-1 $-1 $108 $42 #
plane-surface $-1 37.129516561732004 -21.112923605860416 38.298909439794713 0 0.57357644374324357 0.81915203911291934 1 0 0 forward_v I I I I #
coedge $-1 $109 $110 $111 $112 reversed $43 $-1 #
face $-1 $-1 $113 $23 $-1 $114 forward single #
loop $-1 $115 $116 $45 #
cone-surface $-1 37.129516561732004 23.723226443827834 -0.099265563724053152 0 -0.57357644374324357 -0.81915203911291934 1.25 0 0 1 I I -0.70710678118654746 0.70710678118654746 1.25 forward I I I I #
loop $-1 $-1 $117 $29 #
coedge $-1 $73 $73 $118 $119 reversed $46 $-1 #
face $-1 $120 $121 $18 $-1 $122 reversed single #
loop $-1 $-1 $123 $48 #
plane-surface $-1 0 -33.076592060235022 0 0 1 0 0 0 1 forward_v I I I I #
coedge $-1 $124 $125 $126 $127 forward $49 $-1 #
coedge $-1 $128 $51 $129 $130 forward $31 $-1 #
coedge $-1 $51 $128 $131 $132 forward $31 $-1 #
coedge $-1 $133 $134 $51 $81 reversed $135 $-1 #
edge $-1 $136 -33.076592060235022 $137 33.076592060235022 $80 $138 forward 7 unknown #
face $-1 $139 $140 $19 $-1 $141 forward single #
loop $-1 $-1 $142 $52 #
plane-surface $-1 -32.668419715749664 -27.906399004185204 0 -1 0 0 0 0 1 forward_v I I I I #
coedge $-1 $143 $144 $145 $146 forward $53 $-1 #
coedge $-1 $147 $55 $148 $149 reversed $34 $-1 #
coedge $-1 $55 $147 $150 $151 reversed $34 $-1 #
coedge $-1 $144 $143 $55 $89 reversed $53 $-1 #
edge $-1 $152 -8.8453915703914134 $153 8.8453915703914134 $88 $154 forward 7 unknown #
face $-1 $155 $156 $20 $-1 $157 reversed single #
loop $-1 $-1 $158 $56 #
plane-surface $-1 -26.376143091266922 36.656781362528584 120.80259685585419 -1 0 0 0 0.57357644374324357 0.81915203911291934 forward_v I I I I #
coedge $-1 $159 $160 $161 $162 reversed $57 $-1 #
coedge $-1 $95 $59 $163 $164 reversed $37 $-1 #
coedge $-1 $59 $94 $159 $165 reversed $37 $-1 #
coedge $-1 $161 $166 $59 $97 forward $167 $-1 #
edge $-1 $168 -14.74820137897073 $169 -2.6226677416957038 $96 $170 forward 7 unknown #
loop $-1 $-1 $103 $60 #
plane-surface $-1 -37.129516561732004 -21.112923605860416 38.298909439794713 0 0.57357644374324357 0.81915203911291934 1 0 0 forward_v I I I I #
loop $-1 $-1 $171 $39 #
coedge $-1 $101 $101 $102 $172 reversed $61 $-1 #
coedge $-1 $102 $102 $101 $172 forward $63 $-1 #
coedge $-1 $103 $103 $64 $104 forward $98 $-1 #
edge $-1 $173 -8.1510115100974695e-016 $173 6.2831853071795996 $103 $174 forward 7 unknown #
face $-1 $175 $176 $22 $-1 $177 forward single #
loop $-1 $-1 $178 $65 #
plane-surface $-1 47.882890032197082 36.656781362528584 120.80259685585419 -1 0 0 0 0.57357644374324357 0.81915203911291934 forward_v I I I I #
coedge $-1 $179 $180 $181 $182 reversed $66 $-1 #
coedge $-1 $110 $68 $183 $184 reversed $43 $-1 #
coedge $-1 $68 $109 $179 $185 reversed $43 $-1 #
coedge $-1 $181 $186 $68 $112 forward $176 $-1 #
edge $-1 $187 -14.74820137897073 $188 -2.6226677416957038 $111 $189 forward 7 unknown #
loop $-1 $-1 $118 $69 #
plane-surface $-1 37.129516561732004 -21.112923605860416 38.298909439794713 0 0.57357644374324357 0.81915203911291934 1 0 0 forward_v I I I I #
loop $-1 $-1 $190 $45 #
coedge $-1 $116 $116 $117 $191 reversed $70 $-1 #
coedge $-1 $117 $117 $116 $191 forward $72 $-1 #
coedge $-1 $118 $118 $73 $119 forward $113 $-1 #
edge $-1 $192 -8.1510115100974695e-016 $192 6.2831853071795996 $118 $193 forward 7 unknown #
face $-1 $194 $195 $18 $-1 $196 reversed single #
loop $-1 $-1 $197 $74 #
plane-surface $-1 -50.359202856532491 0 0 1 0 0 0 0 -1 forward_v I I I I #
coedge $-1 $198 $131 $199 $200 forward $75 $-1 #
coedge $-1 $201 $77 $198 $202 forward $49 $-1 #
coedge $-1 $77 $201 $203 $204 forward $49 $-1 #
coedge $-1 $134 $133 $77 $127 reversed $135 $-1 #
edge $-1 $205 -33.076592060235022 $206 33.076592060235022 $126 $207 forward 7 unknown #
coedge $-1 $79 $78 $208 $209 forward $31 $-1 #
coedge $-1 $210 $211 $78 $130 reversed $195 $-1 #
edge $-1 $137 -50.359202856532491 $212 50.359202856532491 $129 $213 forward 7 unknown #
coedge $-1 $123 $214 $79 $132 reversed $75 $-1 #
edge $-1 $215 -50.359202856532491 $136 50.359202856532491 $131 $216 forward 7 unknown #
coedge $-1 $126 $80 $214 $217 forward $135 $-1 #
coedge $-1 $80 $126 $210 $218 reversed $135 $-1 #
loop $-1 $-1 $133 $194 #
vertex $-1 $81 $219 #
vertex $-1 $81 $220 #
straight-curve $-1 50.359202856532491 0 8.8453915703914134 0 1 0 I I #
face $-1 $221 $222 $19 $-1 $223 reversed single #
loop $-1 $-1 $224 $82 #
plane-surface $-1 0 0 8.8453915703914134 0 0 1 1 0 0 forward_v I I I I #
coedge $-1 $225 $226 $227 $228 reversed $83 $-1 #
coedge $-1 $88 $85 $229 $230 reversed $53 $-1 #
coedge $-1 $85 $88 $231 $232 reversed $53 $-1 #
coedge $-1 $226 $225 $85 $146 reversed $83 $-1 #
edge $-1 $233 -8.8453915703914134 $234 8.8453915703914134 $145 $235 forward 7 unknown #
coedge $-1 $87 $86 $236 $237 reversed $34 $-1 #
coedge $-1 $229 $238 $86 $149 forward $222 $-1 #
edge $-1 $239 -19.12339255814242 $153 -8.7830064460427835 $148 $240 forward 7 unknown #
coedge $-1 $241 $231 $87 $151 forward $140 $-1 #
edge $-1 $152 8.7830064460427835 $242 19.12339255814242 $150 $243 forward 7 unknown #
vertex $-1 $151 $244 #
vertex $-1 $149 $245 #
straight-curve $-1 -37.800836225385083 -22.736205948135385 0 0 0 -1 I I #
face $-1 $-1 $167 $20 $-1 $246 forward single #
loop $-1 $-1 $247 $90 #
plane-surface $-1 0 33.076592060235022 0 0 -1 0 0 0 -1 forward_v I I I I #
coedge $-1 $248 $249 $250 $251 reversed $91 $-1 #
coedge $-1 $252 $93 $95 $165 forward $57 $-1 #
coedge $-1 $93 $252 $248 $253 forward $57 $-1 #
coedge $-1 $250 $96 $93 $162 forward $167 $-1 #
edge $-1 $169 -29.31813175133108 $254 -7.81138481040092 $161 $255 forward 7 unknown #
coedge $-1 $256 $257 $94 $164 forward $156 $-1 #
edge $-1 $258 -60.046297078243612 $168 -51.555906857535682 $163 $259 forward 7 unknown #
edge $-1 $169 51.350640687377854 $258 66.153184120470058 $95 $260 forward 7 unknown #
coedge $-1 $96 $250 $256 $261 forward $167 $-1 #
loop $-1 $-1 $250 $155 #
vertex $-1 $164 $262 #
vertex $-1 $97 $263 #
straight-curve $-1 -47.882890032197082 18.328390681264292 8.8453915703914134 0 -1 0 I I #
coedge $-1 $171 $171 $-1 $264 reversed $100 $-1 #
edge $-1 $265 0 $265 6.2831853071796004 $101 $266 forward 7 unknown #
vertex $-1 $104 $267 #
ellipse-curve $-1 -37.129516561732004 27.013825241597509 4.6001964600374494 0 0.57357644374324357 0.81915203911291934 2.5 0 0 1 I I #
face $-1 $-1 $268 $22 $-1 $269 reversed single #
loop $-1 $-1 $111 $105 #
plane-surface $-1 0 0 8.8453915703914134 0 0 1 1 0 0 forward_v I I I I #
coedge $-1 $270 $271 $272 $273 reversed $106 $-1 #
coedge $-1 $274 $108 $110 $185 forward $66 $-1 #
coedge $-1 $108 $274 $270 $275 forward $66 $-1 #
coedge $-1 $272 $111 $108 $182 forward $176 $-1 #
edge $-1 $188 7.81138481040092 $276 29.31813175133108 $181 $277 forward 7 unknown #
coedge $-1 $278 $279 $109 $184 forward $268 $-1 #
edge $-1 $280 -60.046297078243612 $187 -51.555906857535682 $183 $281 forward 7 unknown #
edge $-1 $188 51.350640687377854 $280 66.153184120470058 $110 $282 forward 7 unknown #
coedge $-1 $111 $272 $278 $283 forward $176 $-1 #
vertex $-1 $184 $284 #
vertex $-1 $112 $285 #
straight-curve $-1 26.376143091266922 18.328390681264292 8.8453915703914134 0 -1 0 I I #
coedge $-1 $190 $190 $-1 $286 reversed $115 $-1 #
edge $-1 $287 0 $287 6.2831853071796004 $116 $288 forward 7 unknown #
vertex $-1 $119 $289 #
ellipse-curve $-1 37.129516561732004 27.013825241597509 4.6001964600374494 0 0.57357644374324357 0.81915203911291934 2.5 0 0 1 I I #
face $-1 $-1 $135 $18 $-1 $290 reversed single #
loop $-1 $-1 $210 $120 #
plane-surface $-1 0 33.076592060235022 0 0 -1 0 0 0 -1 forward_v I I I I #
coedge $-1 $291 $208 $211 $292 forward $121 $-1 #
coedge $-1 $214 $123 $124 $202 reversed $75 $-1 #
coedge $-1 $208 $291 $123 $200 reversed $121 $-1 #
edge $-1 $215 -8.8453915703914134 $293 8.8453915703914134 $199 $294 forward 7 unknown #
coedge $-1 $125 $124 $291 $295 forward $49 $-1 #
edge $-1 $206 -50.359202856532491 $293 50.359202856532491 $198 $296 forward 7 unknown #
coedge $-1 $211 $210 $125 $204 reversed $195 $-1 #
edge $-1 $297 -50.359202856532491 $205 50.359202856532491 $203 $298 forward 7 unknown #
vertex $-1 $127 $299 #
vertex $-1 $217 $300 #
straight-curve $-1 50.359202856532491 0 -8.8453915703914134 0 -1 0 I I #
coedge $-1 $197 $199 $128 $209 reversed $121 $-1 #
edge $-1 $212 -33.076592060235022 $215 33.076592060235022 $208 $301 forward 7 unknown #
coedge $-1 $203 $129 $134 $218 forward $195 $-1 #
coedge $-1 $129 $203 $197 $292 reversed $195 $-1 #
vertex $-1 $130 $302 #
straight-curve $-1 0 33.076592060235022 8.8453915703914134 -1 0 0 I I #
coedge $-1 $131 $198 $133 $217 reversed $75 $-1 #
vertex $-1 $209 $303 #
straight-curve $-1 0 -33.076592060235022 8.8453915703914134 1 0 0 I I #
edge $-1 $136 -8.8453915703914134 $206 8.8453915703914134 $133 $304 forward 7 unknown #
edge $-1 $137 -8.8453915703914134 $205 8.8453915703914134 $134 $305 forward 7 unknown #
point $-1 50.359202856532491 -33.076592060235022 8.8453915703914134 #
point $-1 50.359202856532491 33.076592060235022 8.8453915703914134 #
face $-1 $-1 $306 $19 $-1 $307 reversed single #
loop $-1 $-1 $308 $139 #
plane-surface $-1 0 0 -8.8453915703914134 0 0 1 1 0 0 forward_v I I I I #
coedge $-1 $231 $241 $226 $309 forward $140 $-1 #
coedge $-1 $145 $142 $308 $310 reversed $83 $-1 #
coedge $-1 $142 $145 $224 $309 reversed $83 $-1 #
coedge $-1 $311 $312 $142 $228 forward $306 $-1 #
edge $-1 $313 -8.8453915703914134 $314 8.8453915703914134 $227 $315 forward 7 unknown #
coedge $-1 $308 $148 $143 $230 forward $222 $-1 #
edge $-1 $153 -20.183522240101397 $234 -15.051105730465977 $229 $316 forward 7 unknown #
coedge $-1 $150 $224 $144 $232 forward $140 $-1 #
edge $-1 $233 15.051105730465977 $152 20.183522240101397 $231 $317 forward 7 unknown #
vertex $-1 $232 $318 #
vertex $-1 $230 $319 #
straight-curve $-1 -32.668419715749664 -22.736205948135385 0 0 0 -1 I I #
coedge $-1 $312 $311 $147 $237 forward $306 $-1 #
edge $-1 $242 -8.8453915703914134 $239 8.8453915703914134 $236 $320 forward 7 unknown #
coedge $-1 $148 $308 $312 $321 forward $222 $-1 #
vertex $-1 $149 $322 #
straight-curve $-1 -37.800836225385083 -13.953199502092602 -8.8453915703914134 0 1 0 I I #
coedge $-1 $224 $150 $311 $323 forward $140 $-1 #
vertex $-1 $323 $324 #
straight-curve $-1 -37.800836225385083 -13.953199502092602 8.8453915703914134 0 -1 0 I I #
point $-1 -37.800836225385083 -22.736205948135385 8.8453915703914134 #
point $-1 -37.800836225385083 -22.736205948135385 -8.8453915703914134 #
plane-surface $-1 0 0 8.8453915703914134 0 0 1 1 0 0 forward_v I I I I #
coedge $-1 $257 $256 $249 $325 forward $156 $-1 #
coedge $-1 $249 $158 $160 $253 reversed $91 $-1 #
coedge $-1 $158 $248 $247 $325 reversed $91 $-1 #
coedge $-1 $166 $161 $158 $251 forward $167 $-1 #
edge $-1 $254 2.6226677416957038 $326 14.74820137897073 $250 $327 forward 7 unknown #
coedge $-1 $160 $159 $257 $328 reversed $57 $-1 #
edge $-1 $329 -66.153184120470058 $254 -51.350640687377854 $248 $330 forward 7 unknown #
vertex $-1 $162 $331 #
straight-curve $-1 -18.564758280866002 20.951058422959996 8.845391570391417 1 0 0 I I #
coedge $-1 $247 $163 $166 $261 reversed $156 $-1 #
coedge $-1 $163 $247 $252 $328 forward $156 $-1 #
vertex $-1 $164 $332 #
straight-curve $-1 -47.882890032197082 33.076592060235022 60.401298427927095 0 0 1 I I #
straight-curve $-1 -47.882890032197082 -21.112923605860416 38.298909439794713 0 0.81915203911291934 -0.57357644374324357 I I #
edge $-1 $326 26.376143091266922 $168 47.882890032197082 $256 $333 forward 7 unknown #
point $-1 -47.882890032197082 33.076592060235022 8.8453915703914134 #
point $-1 -47.882890032197082 20.951058422959996 8.8453915703914134 #
edge $-1 $334 1 $334 0 $171 $-1 forward 7 unknown #
vertex $-1 $172 $335 #
ellipse-curve $-1 -37.129516561732004 24.440196998506888 0.92467448516709605 0 0.57357644374324357 0.81915203911291934 2.5 0 0 1 I I #
point $-1 -34.629516561732004 27.013825241597509 4.600196460037453 #
loop $-1 $-1 $183 $175 #
plane-surface $-1 0 33.076592060235022 0 0 -1 0 0 0 -1 forward_v I I I I #
coedge $-1 $271 $178 $180 $275 reversed $106 $-1 #
coedge $-1 $178 $270 $336 $337 reversed $106 $-1 #
coedge $-1 $186 $181 $178 $273 forward $176 $-1 #
edge $-1 $276 2.6226677416957038 $338 14.74820137897073 $272 $339 forward 7 unknown #
coedge $-1 $180 $179 $279 $340 reversed $66 $-1 #
edge $-1 $341 -66.153184120470058 $276 -51.350640687377854 $270 $342 forward 7 unknown #
vertex $-1 $182 $343 #
straight-curve $-1 18.564758280866002 20.951058422959996 8.845391570391417 1 0 0 I I #
coedge $-1 $336 $183 $186 $283 reversed $268 $-1 #
coedge $-1 $183 $336 $274 $340 forward $268 $-1 #
vertex $-1 $184 $344 #
straight-curve $-1 26.376143091266922 33.076592060235022 60.401298427927095 0 0 1 I I #
straight-curve $-1 26.376143091266922 -21.112923605860416 38.298909439794713 0 0.81915203911291934 -0.57357644374324357 I I #
edge $-1 $338 -47.882890032197082 $187 -26.376143091266922 $278 $345 forward 7 unknown #
point $-1 26.376143091266922 33.076592060235022 8.8453915703914134 #
point $-1 26.376143091266922 20.951058422959996 8.8453915703914134 #
edge $-1 $346 1 $346 0 $190 $-1 forward 7 unknown #
vertex $-1 $191 $347 #
ellipse-curve $-1 37.129516561732004 24.440196998506888 0.92467448516709605 0 0.57357644374324357 0.81915203911291934 2.5 0 0 1 I I #
point $-1 39.629516561732004 27.013825241597509 4.600196460037453 #
plane-surface $-1 50.359202856532491 0 0 -1 0 0 0 0 1 forward_v I I I I #
coedge $-1 $199 $197 $201 $295 reversed $121 $-1 #
edge $-1 $212 -8.8453915703914134 $297 8.8453915703914134 $211 $348 forward 7 unknown #
vertex $-1 $295 $349 #
straight-curve $-1 -50.359202856532491 -33.076592060235022 0 0 0 -1 I I #
edge $-1 $293 -33.076592060235022 $297 33.076592060235022 $291 $350 forward 7 unknown #
straight-curve $-1 0 -33.076592060235022 -8.8453915703914134 -1 0 0 I I #
vertex $-1 $204 $351 #
straight-curve $-1 0 33.076592060235022 -8.8453915703914134 1 0 0 I I #
point $-1 50.359202856532491 33.076592060235022 -8.8453915703914134 #
point $-1 50.359202856532491 -33.076592060235022 -8.8453915703914134 #
straight-curve $-1 -50.359202856532491 0 8.8453915703914134 0 -1 0 I I #
point $-1 -50.359202856532491 33.076592060235022 8.8453915703914134 #
point $-1 -50.359202856532491 -33.076592060235022 8.8453915703914134 #
straight-curve $-1 50.359202856532491 -33.076592060235022 0 0 0 -1 I I #
straight-curve $-1 50.359202856532491 33.076592060235022 0 0 0 -1 I I #
loop $-1 $-1 $227 $221 #
plane-surface $-1 0 -33.076592060235022 0 0 1 0 0 0 1 forward_v I I I I #
coedge $-1 $238 $229 $225 $310 forward $222 $-1 #
edge $-1 $314 -19.12339255814242 $233 -8.7830064460427835 $224 $352 forward 7 unknown #
edge $-1 $234 8.7830064460427835 $313 19.12339255814242 $308 $353 forward 7 unknown #
coedge $-1 $236 $227 $241 $323 reversed $306 $-1 #
coedge $-1 $227 $236 $238 $321 reversed $306 $-1 #
vertex $-1 $321 $354 #
vertex $-1 $228 $355 #
straight-curve $-1 -32.668419715749664 -33.076592060235022 0 0 0 1 I I #
straight-curve $-1 -17.617313985283687 -22.736205948135385 -8.8453915703914134 1 0 0 I I #
straight-curve $-1 -17.617313985283687 -22.736205948135385 8.8453915703914134 -1 0 0 I I #
point $-1 -32.668419715749664 -22.736205948135385 8.8453915703914134 #
point $-1 -32.668419715749664 -22.736205948135385 -8.8453915703914134 #
straight-curve $-1 -37.800836225385083 -33.076592060235022 0 0 0 -1 I I #
edge $-1 $313 32.668419715749664 $239 37.800836225385083 $312 $356 forward 7 unknown #
point $-1 -37.800836225385083 -33.076592060235022 -8.8453915703914134 #
edge $-1 $242 -37.800836225385083 $314 -32.668419715749664 $311 $357 forward 7 unknown #
point $-1 -37.800836225385083 -33.076592060235022 8.8453915703914134 #
edge $-1 $326 51.555906857535682 $329 60.046297078243612 $247 $358 forward 7 unknown #
vertex $-1 $261 $359 #
straight-curve $-1 -26.376143091266922 18.328390681264292 8.8453915703914134 0 1 0 I I #
edge $-1 $329 7.81138481040092 $258 29.31813175133108 $257 $360 forward 7 unknown #
vertex $-1 $328 $361 #
straight-curve $-1 -26.376143091266922 -21.112923605860416 38.298909439794713 0 -0.81915203911291934 0.57357644374324357 I I #
point $-1 -26.376143091266922 20.951058422959996 8.8453915703914134 #
point $-1 -47.882890032197082 33.076592060235029 0.35500134968348362 #
straight-curve $-1 0 33.076592060235022 8.8453915703914134 -1 0 0 I I #
vertex $-1 $264 $362 #
point $-1 -34.629516561732004 24.440196998506888 0.92467448516709605 #
coedge $-1 $279 $278 $271 $337 forward $268 $-1 #
edge $-1 $338 51.555906857535682 $341 60.046297078243612 $336 $363 forward 7 unknown #
vertex $-1 $283 $364 #
straight-curve $-1 47.882890032197082 18.328390681264292 8.8453915703914134 0 1 0 I I #
edge $-1 $341 -29.31813175133108 $280 -7.81138481040092 $279 $365 forward 7 unknown #
vertex $-1 $340 $366 #
straight-curve $-1 47.882890032197082 -21.112923605860416 38.298909439794713 0 -0.81915203911291934 0.57357644374324357 I I #
point $-1 47.882890032197082 20.951058422959996 8.8453915703914134 #
point $-1 26.376143091266922 33.076592060235029 0.35500134968348362 #
straight-curve $-1 0 33.076592060235022 8.8453915703914134 -1 0 0 I I #
vertex $-1 $286 $367 #
point $-1 39.629516561732004 24.440196998506888 0.92467448516709605 #
straight-curve $-1 -50.359202856532491 33.076592060235022 0 0 0 -1 I I #
point $-1 -50.359202856532491 -33.076592060235022 -8.8453915703914134 #
straight-curve $-1 -50.359202856532491 0 -8.8453915703914134 0 1 0 I I #
point $-1 -50.359202856532491 33.076592060235022 -8.8453915703914134 #
straight-curve $-1 -32.668419715749664 -13.953199502092602 8.8453915703914134 0 1 0 I I #
straight-curve $-1 -32.668419715749664 -13.953199502092602 -8.8453915703914134 0 -1 0 I I #
point $-1 -32.668419715749664 -33.076592060235022 -8.8453915703914134 #
point $-1 -32.668419715749664 -33.076592060235022 8.8453915703914134 #
straight-curve $-1 0 -33.076592060235022 -8.8453915703914134 -1 0 0 I I #
straight-curve $-1 0 -33.076592060235022 8.8453915703914134 1 0 0 I I #
straight-curve $-1 -26.376143091266922 33.076592060235022 60.401298427927095 0 0 -1 I I #
point $-1 -26.376143091266922 33.076592060235022 8.8453915703914134 #
straight-curve $-1 -18.564758280866002 33.076592060235022 0.35500134968348718 -1 0 0 I I #
point $-1 -26.376143091266922 33.076592060235029 0.35500134968348362 #
point $-1 -37.129516561732004 23.006255889148779 -1.1232056126152024 #
straight-curve $-1 47.882890032197082 33.076592060235022 60.401298427927095 0 0 -1 I I #
point $-1 47.882890032197082 33.076592060235022 8.8453915703914134 #
straight-curve $-1 18.564758280866002 33.076592060235022 0.35500134968348718 -1 0 0 I I #
point $-1 47.882890032197082 33.076592060235029 0.35500134968348362 #
point $-1 37.129516561732004 23.006255889148779 -1.1232056126152024 #
End-of-ACIS-data 