500 0 17 0           
7 Unknown 11 ACIS 5.0 NT 24 Thu Mar 25 17:27:03 1999 
-1 9.9999999999999995e-007 1e-010 
body $-1 $17 $-1 $18 #
body $-1 $19 $-1 $20 #
body $-1 $21 $-1 $22 #
body $-1 $23 $-1 $24 #
body $-1 $25 $-1 $26 #
body $-1 $27 $-1 $28 #
body $-1 $29 $-1 $30 #
body $-1 $31 $-1 $32 #
body $-1 $33 $-1 $34 #
body $-1 $35 $-1 $36 #
body $-1 $37 $-1 $38 #
body $-1 $39 $-1 $40 #
body $-1 $41 $-1 $42 #
body $-1 $43 $-1 $44 #
body $-1 $45 $-1 $46 #
body $-1 $47 $-1 $48 #
body $-1 $49 $-1 $50 #
lump $-1 $-1 $51 $0 #
transform $-1 1 0 0 0 1 0 0 0 1 78.56318857387005 47.243888452863096 19.885197325485922 1 rotate no_reflect no_shear #
lump $-1 $-1 $52 $1 #
transform $-1 1 0 0 0 1 0 0 0 1 78.56318857387005 47.243888452863096 19.885197325485922 1 rotate no_reflect no_shear #
lump $-1 $-1 $53 $2 #
transform $-1 1 0 0 0 1 0 0 0 1 78.56318857387005 47.243888452863096 19.885197325485922 1 rotate no_reflect no_shear #
lump $-1 $-1 $54 $3 #
transform $-1 1 0 0 0 1 0 0 0 1 78.56318857387005 47.243888452863096 19.885197325485922 1 rotate no_reflect no_shear #
lump $-1 $-1 $55 $4 #
transform $-1 1 0 0 0 1 0 0 0 1 78.56318857387005 47.243888452863096 19.885197325485922 1 rotate no_reflect no_shear #
lump $-1 $-1 $56 $5 #
transform $-1 1 0 0 0 1 0 0 0 1 78.56318857387005 47.243888452863096 19.885197325485922 1 rotate no_reflect no_shear #
lump $-1 $-1 $57 $6 #
transform $-1 1 0 0 0 1 0 0 0 1 78.56318857387005 47.243888452863096 19.885197325485922 1 rotate no_reflect no_shear #
lump $-1 $-1 $58 $7 #
transform $-1 1 0 0 0 1 0 0 0 1 78.56318857387005 47.243888452863096 19.885197325485922 1 rotate no_reflect no_shear #
lump $-1 $-1 $59 $8 #
transform $-1 1 0 0 0 1 0 0 0 1 78.56318857387005 47.243888452863096 19.885197325485922 1 rotate no_reflect no_shear #
lump $-1 $-1 $60 $9 #
transform $-1 1 0 0 0 1 0 0 0 1 78.56318857387005 47.243888452863096 19.885197325485922 1 rotate no_reflect no_shear #
lump $-1 $-1 $61 $10 #
transform $-1 1 0 0 0 1 0 0 0 1 78.56318857387005 47.243888452863096 19.885197325485922 1 rotate no_reflect no_shear #
lump $-1 $-1 $62 $11 #
transform $-1 1 0 0 0 1 0 0 0 1 78.56318857387005 47.243888452863096 19.885197325485922 1 rotate no_reflect no_shear #
lump $-1 $-1 $63 $12 #
transform $-1 1 0 0 0 1 0 0 0 1 78.56318857387005 47.243888452863096 19.885197325485922 1 rotate no_reflect no_shear #
lump $-1 $-1 $64 $13 #
transform $-1 1 0 0 0 1 0 0 0 1 78.56318857387005 47.243888452863096 19.885197325485922 1 rotate no_reflect no_shear #
lump $-1 $-1 $65 $14 #
transform $-1 1 0 0 0 1 0 0 0 1 78.56318857387005 47.243888452863096 19.885197325485922 1 rotate no_reflect no_shear #
lump $-1 $-1 $66 $15 #
transform $-1 1 0 0 0 1 0 0 0 1 78.56318857387005 47.243888452863096 19.885197325485922 1 rotate no_reflect no_shear #
lump $-1 $-1 $67 $16 #
transform $-1 1 0 0 0 1 0 0 0 1 78.56318857387005 47.243888452863096 19.885197325485922 1 rotate no_reflect no_shear #
shell $-1 $-1 $-1 $68 $-1 $17 #
shell $-1 $-1 $-1 $69 $-1 $19 #
shell $-1 $-1 $-1 $70 $-1 $21 #
shell $-1 $-1 $-1 $71 $-1 $23 #
shell $-1 $-1 $-1 $72 $-1 $25 #
shell $-1 $-1 $-1 $73 $-1 $27 #
shell $-1 $-1 $-1 $74 $-1 $29 #
shell $-1 $-1 $-1 $75 $-1 $31 #
shell $-1 $-1 $-1 $76 $-1 $33 #
shell $-1 $-1 $-1 $77 $-1 $35 #
shell $-1 $-1 $-1 $78 $-1 $37 #
shell $-1 $-1 $-1 $79 $-1 $39 #
shell $-1 $-1 $-1 $80 $-1 $41 #
shell $-1 $-1 $-1 $81 $-1 $43 #
shell $-1 $-1 $-1 $82 $-1 $45 #
shell $-1 $-1 $-1 $83 $-1 $47 #
shell $-1 $-1 $-1 $84 $-1 $49 #
face $-1 $85 $86 $51 $-1 $87 forward single #
face $-1 $88 $89 $52 $-1 $90 reversed single #
face $-1 $91 $92 $53 $-1 $93 reversed single #
face $-1 $94 $95 $54 $-1 $96 forward single #
face $-1 $97 $98 $55 $-1 $99 forward single #
face $-1 $100 $101 $56 $-1 $102 reversed single #
face $-1 $103 $104 $57 $-1 $105 forward single #
face $-1 $106 $107 $58 $-1 $108 forward single #
face $-1 $109 $110 $59 $-1 $111 reversed single #
face $-1 $112 $113 $60 $-1 $114 forward single #
face $-1 $115 $116 $61 $-1 $117 forward single #
face $-1 $118 $119 $62 $-1 $120 reversed single #
face $-1 $121 $122 $63 $-1 $123 forward single #
face $-1 $124 $125 $64 $-1 $126 forward single #
face $-1 $127 $128 $65 $-1 $129 reversed single #
face $-1 $130 $131 $66 $-1 $132 forward single #
face $-1 $133 $134 $67 $-1 $135 forward single #
face $-1 $136 $137 $51 $-1 $138 reversed single #
loop $-1 $-1 $139 $68 #
plane-surface $-1 0 0 19.885197325485922 0 0 1 1 0 0 forward_v I I I I #
face $-1 $140 $141 $52 $-1 $142 reversed single #
loop $-1 $-1 $143 $69 #
plane-surface $-1 0 -34.252835089683913 8.0778797131283966 0 0 1 1 0 0 forward_v I I I I #
face $-1 $144 $145 $53 $-1 $146 reversed single #
loop $-1 $-1 $147 $70 #
plane-surface $-1 -208.82686013744444 -10.286229207739453 96.641246360936222 0 -1 0 0.82903758062907751 0 -0.55919289150049634 forward_v I I I I #
face $-1 $148 $149 $54 $-1 $150 forward single #
loop $-1 $151 $152 $71 #
cone-surface $-1 -74.165614049133396 -18.12590957828608 13.891879415768102 0.82903758062907751 0 -0.55919289150049634 0.27959644575024817 0 0.41451879031453875 1 I I 0 1 0.5 forward I I I I #
face $-1 $153 $154 $55 $-1 $155 forward single #
loop $-1 $156 $157 $72 #
cone-surface $-1 -74.165614049133396 -13.422101355958105 13.891879415768102 0.82903758062907751 0 -0.55919289150049634 0.27959644575024817 0 0.41451879031453875 1 I I 0 1 0.5 forward I I I I #
face $-1 $158 $159 $56 $-1 $160 reversed single #
loop $-1 $-1 $161 $73 #
plane-surface $-1 -208.82686013744444 -4.1353641816627693 96.641246360936222 0 1 0 -0.82903758062907751 0 0.55919289150049634 forward_v I I I I #
face $-1 $162 $163 $57 $-1 $164 forward single #
loop $-1 $165 $166 $74 #
cone-surface $-1 -74.165614049133396 -0.99949203344412041 13.891879415768102 0.82903758062907751 0 -0.55919289150049634 0.27959644575024817 0 0.41451879031453875 1 I I 0 1 0.5 forward I I I I #
face $-1 $167 $168 $58 $-1 $169 forward single #
loop $-1 $170 $171 $75 #
cone-surface $-1 -74.165614049133396 3.7043161888838512 13.891879415768102 0.82903758062907751 0 -0.55919289150049634 0.27959644575024817 0 0.41451879031453875 1 I I 0 1 0.5 forward I I I I #
face $-1 $172 $173 $59 $-1 $174 reversed single #
loop $-1 $-1 $175 $76 #
plane-surface $-1 -208.82686013744444 12.991053363179187 96.641246360936222 0 1 0 -0.82903758062907751 0 0.55919289150049634 forward_v I I I I #
face $-1 $176 $177 $60 $-1 $178 forward single #
loop $-1 $179 $180 $77 #
cone-surface $-1 -74.165614049133396 16.126925511397836 13.891879415768102 0.82903758062907751 0 -0.55919289150049634 0.27959644575024817 0 0.41451879031453875 1 I I 0 1 0.5 forward I I I I #
face $-1 $181 $182 $61 $-1 $183 forward single #
loop $-1 $184 $185 $78 #
cone-surface $-1 -74.165614049133396 20.830733733725801 13.891879415768102 0.82903758062907751 0 -0.55919289150049634 0.27959644575024817 0 0.41451879031453875 1 I I 0 1 0.5 forward I I I I #
face $-1 $186 $187 $62 $-1 $188 reversed single #
loop $-1 $-1 $189 $79 #
plane-surface $-1 -208.82686013744444 30.117470908021144 96.641246360936222 0 1 0 -0.82903758062907751 0 0.55919289150049634 forward_v I I I I #
face $-1 $190 $191 $63 $-1 $192 forward single #
loop $-1 $193 $194 $80 #
cone-surface $-1 -74.165614049133396 33.253343056239792 13.891879415768102 0.82903758062907751 0 -0.55919289150049634 0.27959644575024817 0 0.41451879031453875 1 I I 0 1 0.5 forward I I I I #
face $-1 $195 $196 $64 $-1 $197 forward single #
loop $-1 $198 $199 $81 #
cone-surface $-1 -74.165614049133396 37.957151278567757 13.891879415768102 0.82903758062907751 0 -0.55919289150049634 0.27959644575024817 0 0.41451879031453875 1 I I 0 1 0.5 forward I I I I #
face $-1 $200 $201 $65 $-1 $202 reversed single #
loop $-1 $-1 $203 $82 #
plane-surface $-1 128.54962263806027 19.452816126601483 217.17461656820478 0 -1 0 -0.84804810408105047 0 -0.52991925155115449 forward_v I I I I #
face $-1 $204 $205 $66 $-1 $206 forward single #
loop $-1 $207 $208 $83 #
cone-surface $-1 71.908497041446552 14.357652959717882 9.8675149769035873 -0.84804810408105047 0 -0.52991925155115449 0.52991925155115449 0 -0.84804810408105047 1 I I 0 1 1 forward I I I I #
face $-1 $209 $210 $67 $-1 $211 forward single #
loop $-1 $212 $213 $84 #
cone-surface $-1 71.908497041446552 17.414750859848048 9.8675149769035873 -0.84804810408105047 0 -0.52991925155115449 0.52991925155115449 0 -0.84804810408105047 1 I I 0 1 1 forward I I I I #
face $-1 $214 $215 $51 $-1 $216 reversed single #
loop $-1 $-1 $217 $85 #
plane-surface $-1 0 0 -19.885197325485922 0 0 1 1 0 0 forward_v I I I I #
coedge $-1 $218 $219 $220 $221 forward $86 $-1 #
face $-1 $222 $223 $52 $-1 $224 reversed single #
loop $-1 $-1 $225 $88 #
plane-surface $-1 0 -21.261781726504729 13.981538519307161 0 -1 0 0 0 -1 forward_v I I I I #
coedge $-1 $226 $227 $228 $229 reversed $89 $-1 #
face $-1 $230 $231 $53 $-1 $232 forward single #
loop $-1 $-1 $233 $91 #
plane-surface $-1 -78.563188573870008 -15.774005467122091 8.7772931926939179 -0.82903758062907751 0 0.55919289150049634 0.55919289150049634 0 0.82903758062907751 forward_v I I I I #
coedge $-1 $234 $235 $236 $237 reversed $92 $-1 #
face $-1 $-1 $238 $54 $-1 $239 forward single #
loop $-1 $240 $241 $94 #
cone-surface $-1 -73.306967983481854 -18.12590957828608 13.31271534957116 0.82903758062907751 0 -0.55919289150049634 0.13979822287512408 0 0.20725939515726938 1 I I -0.70710678118655002 0.70710678118654502 0.25 forward I I I I #
loop $-1 $-1 $242 $71 #
coedge $-1 $152 $152 $243 $244 reversed $95 $-1 #
face $-1 $-1 $245 $55 $-1 $246 forward single #
loop $-1 $247 $248 $97 #
cone-surface $-1 -73.306967983481854 -13.422101355958105 13.31271534957116 0.82903758062907751 0 -0.55919289150049634 0.13979822287512408 0 0.20725939515726938 1 I I -0.70710678118655002 0.70710678118654502 0.25 forward I I I I #
loop $-1 $-1 $249 $72 #
coedge $-1 $157 $157 $250 $251 reversed $98 $-1 #
face $-1 $252 $253 $56 $-1 $254 reversed single #
loop $-1 $-1 $255 $100 #
plane-surface $-1 -78.563188573870008 1.3524120777198689 8.7772931926939179 -0.82903758062907751 0 0.55919289150049634 0.55919289150049634 0 0.82903758062907751 forward_v I I I I #
coedge $-1 $256 $257 $258 $259 reversed $101 $-1 #
face $-1 $-1 $260 $57 $-1 $261 forward single #
loop $-1 $262 $263 $103 #
cone-surface $-1 -73.306967983481854 -0.99949203344412041 13.31271534957116 0.82903758062907751 0 -0.55919289150049634 0.13979822287512408 0 0.20725939515726938 1 I I -0.70710678118655002 0.70710678118654502 0.25 forward I I I I #
loop $-1 $-1 $264 $74 #
coedge $-1 $166 $166 $265 $266 reversed $104 $-1 #
face $-1 $-1 $267 $58 $-1 $268 forward single #
loop $-1 $269 $270 $106 #
cone-surface $-1 -73.306967983481854 3.7043161888838512 13.31271534957116 0.82903758062907751 0 -0.55919289150049634 0.13979822287512408 0 0.20725939515726938 1 I I -0.70710678118655002 0.70710678118654502 0.25 forward I I I I #
loop $-1 $-1 $271 $75 #
coedge $-1 $171 $171 $272 $273 reversed $107 $-1 #
face $-1 $274 $275 $59 $-1 $276 reversed single #
loop $-1 $-1 $277 $109 #
plane-surface $-1 -78.563188573870008 18.478829622561825 8.7772931926939179 -0.82903758062907751 0 0.55919289150049634 0.55919289150049634 0 0.82903758062907751 forward_v I I I I #
coedge $-1 $278 $279 $280 $281 reversed $110 $-1 #
face $-1 $-1 $282 $60 $-1 $283 forward single #
loop $-1 $284 $285 $112 #
cone-surface $-1 -73.306967983481854 16.126925511397836 13.31271534957116 0.82903758062907751 0 -0.55919289150049634 0.13979822287512408 0 0.20725939515726938 1 I I -0.70710678118655002 0.70710678118654502 0.25 forward I I I I #
loop $-1 $-1 $286 $77 #
coedge $-1 $180 $180 $287 $288 reversed $113 $-1 #
face $-1 $-1 $289 $61 $-1 $290 forward single #
loop $-1 $291 $292 $115 #
cone-surface $-1 -73.306967983481854 20.830733733725801 13.31271534957116 0.82903758062907751 0 -0.55919289150049634 0.13979822287512408 0 0.20725939515726938 1 I I -0.70710678118655002 0.70710678118654502 0.25 forward I I I I #
loop $-1 $-1 $293 $78 #
coedge $-1 $185 $185 $294 $295 reversed $116 $-1 #
face $-1 $296 $297 $62 $-1 $298 reversed single #
loop $-1 $-1 $299 $118 #
plane-surface $-1 -78.563188573870008 35.605247167403782 8.7772931926939179 -0.82903758062907751 0 0.55919289150049634 0.55919289150049634 0 0.82903758062907751 forward_v I I I I #
coedge $-1 $300 $301 $302 $303 reversed $119 $-1 #
face $-1 $-1 $304 $63 $-1 $305 forward single #
loop $-1 $306 $307 $121 #
cone-surface $-1 -73.306967983481854 33.253343056239792 13.31271534957116 0.82903758062907751 0 -0.55919289150049634 0.13979822287512408 0 0.20725939515726938 1 I I -0.70710678118655002 0.70710678118654502 0.25 forward I I I I #
loop $-1 $-1 $308 $80 #
coedge $-1 $194 $194 $309 $310 reversed $122 $-1 #
face $-1 $-1 $311 $64 $-1 $312 forward single #
loop $-1 $313 $314 $124 #
cone-surface $-1 -73.306967983481854 37.957151278567757 13.31271534957116 0.82903758062907751 0 -0.55919289150049634 0.13979822287512408 0 0.20725939515726938 1 I I -0.70710678118655002 0.70710678118654502 0.25 forward I I I I #
loop $-1 $-1 $315 $81 #
coedge $-1 $199 $199 $316 $317 reversed $125 $-1 #
face $-1 $318 $319 $65 $-1 $320 reversed single #
loop $-1 $-1 $321 $127 #
plane-surface $-1 -4.7011036032048139 15.886201909782962 133.9103243911299 0.84804810408105047 0 0.52991925155115449 0.52991925155115449 0 -0.84804810408105047 forward_v I I I I #
coedge $-1 $322 $323 $324 $325 reversed $128 $-1 #
face $-1 $-1 $326 $66 $-1 $327 forward single #
loop $-1 $328 $329 $130 #
cone-surface $-1 70.836525105567986 14.357652959717882 9.1976725903562304 -0.84804810408105047 0 -0.52991925155115449 0.26495962577557725 0 -0.42402405204052523 1 I I -0.70710678118654746 0.70710678118654746 0.5 forward I I I I #
loop $-1 $-1 $330 $83 #
coedge $-1 $208 $208 $331 $332 reversed $131 $-1 #
face $-1 $-1 $333 $67 $-1 $334 forward single #
loop $-1 $335 $336 $133 #
cone-surface $-1 70.836525105567986 17.414750859848048 9.1976725903562304 -0.84804810408105047 0 -0.52991925155115449 0.26495962577557725 0 -0.42402405204052523 1 I I -0.70710678118654746 0.70710678118654746 0.5 forward I I I I #
loop $-1 $-1 $337 $84 #
coedge $-1 $213 $213 $338 $339 reversed $134 $-1 #
face $-1 $340 $341 $51 $-1 $342 reversed single #
loop $-1 $-1 $343 $136 #
plane-surface $-1 0 -47.243888452863096 0 0 1 0 0 0 1 forward_v I I I I #
coedge $-1 $344 $345 $346 $347 forward $137 $-1 #
coedge $-1 $348 $139 $349 $350 forward $86 $-1 #
coedge $-1 $139 $348 $351 $352 forward $86 $-1 #
coedge $-1 $353 $354 $139 $221 reversed $355 $-1 #
edge $-1 $356 -47.243888452863096 $357 47.243888452863096 $220 $358 forward 7 unknown #
face $-1 $359 $360 $52 $-1 $361 reversed single #
loop $-1 $-1 $362 $140 #
plane-surface $-1 -78.56318857387005 0 0 1 0 0 0 0 -1 forward_v I I I I #
coedge $-1 $363 $364 $365 $366 reversed $141 $-1 #
coedge $-1 $367 $143 $368 $369 reversed $89 $-1 #
coedge $-1 $143 $367 $363 $370 forward $89 $-1 #
coedge $-1 $365 $371 $143 $229 forward $372 $-1 #
edge $-1 $373 -30.11747090802114 $374 -4.1353641816627729 $228 $375 forward 7 unknown #
face $-1 $376 $377 $53 $-1 $378 forward single #
loop $-1 $-1 $379 $144 #
plane-surface $-1 0 -21.261781726504729 13.981538519307161 0 -1 0 0 0 -1 forward_v I I I I #
coedge $-1 $380 $381 $382 $383 reversed $145 $-1 #
coedge $-1 $235 $147 $384 $385 reversed $92 $-1 #
coedge $-1 $147 $234 $380 $386 reversed $92 $-1 #
coedge $-1 $382 $387 $147 $237 forward $388 $-1 #
edge $-1 $389 28.435425854982189 $390 39.543329987774257 $236 $391 forward 7 unknown #
loop $-1 $-1 $243 $148 #
plane-surface $-1 -78.563188573870008 -15.774005467122091 8.7772931926939179 -0.82903758062907751 0 0.55919289150049634 0.55919289150049634 0 0.82903758062907751 forward_v I I I I #
loop $-1 $-1 $392 $94 #
coedge $-1 $241 $241 $242 $393 reversed $149 $-1 #
coedge $-1 $242 $242 $241 $393 forward $151 $-1 #
coedge $-1 $243 $243 $152 $244 forward $238 $-1 #
edge $-1 $394 0 $394 6.2831853071796004 $243 $395 forward 7 unknown #
loop $-1 $-1 $250 $153 #
plane-surface $-1 -78.563188573870008 -15.774005467122091 8.7772931926939179 -0.82903758062907751 0 0.55919289150049634 0.55919289150049634 0 0.82903758062907751 forward_v I I I I #
loop $-1 $-1 $396 $97 #
coedge $-1 $248 $248 $249 $397 reversed $154 $-1 #
coedge $-1 $249 $249 $248 $397 forward $156 $-1 #
coedge $-1 $250 $250 $157 $251 forward $245 $-1 #
edge $-1 $398 0 $398 6.2831853071796004 $250 $399 forward 7 unknown #
face $-1 $400 $401 $56 $-1 $402 forward single #
loop $-1 $-1 $403 $158 #
plane-surface $-1 -208.82686013744444 6.8401883371025072 96.641246360936222 0 -1 0 0.82903758062907751 0 -0.55919289150049634 forward_v I I I I #
coedge $-1 $404 $405 $406 $407 reversed $159 $-1 #
coedge $-1 $257 $161 $408 $409 reversed $101 $-1 #
coedge $-1 $161 $256 $404 $410 reversed $101 $-1 #
coedge $-1 $406 $411 $161 $259 forward $401 $-1 #
edge $-1 $412 25.85024149485217 $413 33.342617203336971 $258 $414 forward 7 unknown #
loop $-1 $-1 $265 $162 #
plane-surface $-1 -78.563188573870008 1.3524120777198689 8.7772931926939179 -0.82903758062907751 0 0.55919289150049634 0.55919289150049634 0 0.82903758062907751 forward_v I I I I #
loop $-1 $-1 $415 $103 #
coedge $-1 $263 $263 $264 $416 reversed $163 $-1 #
coedge $-1 $264 $264 $263 $416 forward $165 $-1 #
coedge $-1 $265 $265 $166 $266 forward $260 $-1 #
edge $-1 $417 0 $417 6.2831853071796004 $265 $418 forward 7 unknown #
loop $-1 $-1 $272 $167 #
plane-surface $-1 -78.563188573870008 1.3524120777198689 8.7772931926939179 -0.82903758062907751 0 0.55919289150049634 0.55919289150049634 0 0.82903758062907751 forward_v I I I I #
loop $-1 $-1 $419 $106 #
coedge $-1 $270 $270 $271 $420 reversed $168 $-1 #
coedge $-1 $271 $271 $270 $420 forward $170 $-1 #
coedge $-1 $272 $272 $171 $273 forward $267 $-1 #
edge $-1 $421 0 $421 6.2831853071796004 $272 $422 forward 7 unknown #
face $-1 $423 $424 $59 $-1 $425 forward single #
loop $-1 $-1 $426 $172 #
plane-surface $-1 -208.82686013744444 23.966605881944464 96.641246360936222 0 -1 0 0.82903758062907751 0 -0.55919289150049634 forward_v I I I I #
coedge $-1 $427 $428 $429 $430 reversed $173 $-1 #
coedge $-1 $279 $175 $431 $432 reversed $110 $-1 #
coedge $-1 $175 $278 $427 $433 reversed $110 $-1 #
coedge $-1 $429 $434 $175 $281 forward $424 $-1 #
edge $-1 $435 25.85024149485217 $436 33.342617203336971 $280 $437 forward 7 unknown #
loop $-1 $-1 $287 $176 #
plane-surface $-1 -78.563188573870008 18.478829622561825 8.7772931926939179 -0.82903758062907751 0 0.55919289150049634 0.55919289150049634 0 0.82903758062907751 forward_v I I I I #
loop $-1 $-1 $438 $112 #
coedge $-1 $285 $285 $286 $439 reversed $177 $-1 #
coedge $-1 $286 $286 $285 $439 forward $179 $-1 #
coedge $-1 $287 $287 $180 $288 forward $282 $-1 #
edge $-1 $440 0 $440 6.2831853071796004 $287 $441 forward 7 unknown #
loop $-1 $-1 $294 $181 #
plane-surface $-1 -78.563188573870008 18.478829622561825 8.7772931926939179 -0.82903758062907751 0 0.55919289150049634 0.55919289150049634 0 0.82903758062907751 forward_v I I I I #
loop $-1 $-1 $442 $115 #
coedge $-1 $292 $292 $293 $443 reversed $182 $-1 #
coedge $-1 $293 $293 $292 $443 forward $184 $-1 #
coedge $-1 $294 $294 $185 $295 forward $289 $-1 #
edge $-1 $444 0 $444 6.2831853071796004 $294 $445 forward 7 unknown #
face $-1 $446 $447 $62 $-1 $448 forward single #
loop $-1 $-1 $449 $186 #
plane-surface $-1 -208.82686013744444 41.093023426786417 96.641246360936222 0 -1 0 0.82903758062907751 0 -0.55919289150049634 forward_v I I I I #
coedge $-1 $450 $451 $452 $453 reversed $187 $-1 #
coedge $-1 $301 $189 $454 $455 reversed $119 $-1 #
coedge $-1 $189 $300 $450 $456 reversed $119 $-1 #
coedge $-1 $452 $457 $189 $303 forward $447 $-1 #
edge $-1 $458 25.85024149485217 $459 33.342617203336971 $302 $460 forward 7 unknown #
loop $-1 $-1 $309 $190 #
plane-surface $-1 -78.563188573870008 35.605247167403782 8.7772931926939179 -0.82903758062907751 0 0.55919289150049634 0.55919289150049634 0 0.82903758062907751 forward_v I I I I #
loop $-1 $-1 $461 $121 #
coedge $-1 $307 $307 $308 $462 reversed $191 $-1 #
coedge $-1 $308 $308 $307 $462 forward $193 $-1 #
coedge $-1 $309 $309 $194 $310 forward $304 $-1 #
edge $-1 $463 0 $463 6.2831853071796004 $309 $464 forward 7 unknown #
loop $-1 $-1 $316 $195 #
plane-surface $-1 -78.563188573870008 35.605247167403782 8.7772931926939179 -0.82903758062907751 0 0.55919289150049634 0.55919289150049634 0 0.82903758062907751 forward_v I I I I #
loop $-1 $-1 $465 $124 #
coedge $-1 $314 $314 $315 $466 reversed $196 $-1 #
coedge $-1 $315 $315 $314 $466 forward $198 $-1 #
coedge $-1 $316 $316 $199 $317 forward $311 $-1 #
edge $-1 $467 0 $467 6.2831853071796004 $316 $468 forward 7 unknown #
face $-1 $469 $470 $65 $-1 $471 reversed single #
loop $-1 $-1 $472 $200 #
plane-surface $-1 128.54962263806027 12.31958769296444 217.17461656820478 0 1 0 0.84804810408105047 0 0.52991925155115449 forward_v I I I I #
coedge $-1 $473 $474 $475 $476 reversed $201 $-1 #
coedge $-1 $323 $203 $477 $478 reversed $128 $-1 #
coedge $-1 $203 $322 $473 $479 reversed $128 $-1 #
coedge $-1 $475 $480 $203 $325 forward $481 $-1 #
edge $-1 $482 -14.288377254839915 $483 -2.2748899576689467 $324 $484 forward 7 unknown #
loop $-1 $-1 $331 $204 #
plane-surface $-1 -4.7011036032048139 15.886201909782962 133.9103243911299 0.84804810408105047 0 0.52991925155115449 0.52991925155115449 0 -0.84804810408105047 forward_v I I I I #
loop $-1 $-1 $485 $130 #
coedge $-1 $329 $329 $330 $486 reversed $205 $-1 #
coedge $-1 $330 $330 $329 $486 forward $207 $-1 #
coedge $-1 $331 $331 $208 $332 forward $326 $-1 #
edge $-1 $487 0 $487 6.2831853071796004 $331 $488 forward 7 unknown #
loop $-1 $-1 $338 $209 #
plane-surface $-1 -4.7011036032048139 15.886201909782962 133.9103243911299 0.84804810408105047 0 0.52991925155115449 0.52991925155115449 0 -0.84804810408105047 forward_v I I I I #
loop $-1 $-1 $489 $133 #
coedge $-1 $336 $336 $337 $490 reversed $210 $-1 #
coedge $-1 $337 $337 $336 $490 forward $212 $-1 #
coedge $-1 $338 $338 $213 $339 forward $333 $-1 #
edge $-1 $491 0 $491 6.2831853071796004 $338 $492 forward 7 unknown #
face $-1 $493 $494 $51 $-1 $495 reversed single #
loop $-1 $-1 $496 $214 #
plane-surface $-1 -78.56318857387005 0 0 1 0 0 0 0 -1 forward_v I I I I #
coedge $-1 $497 $351 $498 $499 forward $215 $-1 #
coedge $-1 $500 $217 $497 $501 forward $137 $-1 #
coedge $-1 $217 $500 $502 $503 forward $137 $-1 #
coedge $-1 $354 $353 $217 $347 reversed $355 $-1 #
edge $-1 $504 -47.243888452863096 $505 47.243888452863096 $346 $506 forward 7 unknown #
coedge $-1 $219 $218 $507 $508 forward $86 $-1 #
coedge $-1 $509 $510 $218 $350 reversed $494 $-1 #
edge $-1 $357 -78.56318857387005 $511 78.56318857387005 $349 $512 forward 7 unknown #
coedge $-1 $343 $513 $219 $352 reversed $215 $-1 #
edge $-1 $514 -78.56318857387005 $356 78.56318857387005 $351 $515 forward 7 unknown #
coedge $-1 $346 $220 $513 $516 forward $355 $-1 #
coedge $-1 $220 $346 $509 $517 reversed $355 $-1 #
loop $-1 $-1 $353 $493 #
vertex $-1 $221 $518 #
vertex $-1 $221 $519 #
straight-curve $-1 78.56318857387005 0 19.885197325485922 0 1 0 I I #
face $-1 $520 $521 $52 $-1 $522 forward single #
loop $-1 $-1 $368 $222 #
plane-surface $-1 0 -47.243888452863096 0 0 1 0 0 0 1 forward_v I I I I #
coedge $-1 $523 $524 $525 $526 forward $223 $-1 #
coedge $-1 $525 $225 $227 $370 reversed $141 $-1 #
coedge $-1 $225 $525 $527 $528 reversed $141 $-1 #
coedge $-1 $529 $228 $225 $366 forward $372 $-1 #
edge $-1 $374 1.0871104534748159 $530 12.894428065832345 $365 $531 forward 7 unknown #
coedge $-1 $227 $226 $523 $532 reversed $89 $-1 #
coedge $-1 $533 $534 $226 $369 forward $360 $-1 #
edge $-1 $535 -78.56318857387005 $373 78.56318857387005 $368 $536 forward 7 unknown #
edge $-1 $537 -78.56318857387005 $374 78.56318857387005 $363 $538 forward 7 unknown #
coedge $-1 $228 $529 $533 $539 forward $372 $-1 #
loop $-1 $-1 $365 $520 #
vertex $-1 $369 $540 #
vertex $-1 $229 $541 #
straight-curve $-1 78.56318857387005 -17.126417544841956 8.0778797131283966 0 1 0 I I #
face $-1 $-1 $388 $53 $-1 $542 reversed single #
loop $-1 $-1 $543 $230 #
plane-surface $-1 0 0 19.885197325485922 0 0 1 1 0 0 forward_v I I I I #
coedge $-1 $544 $545 $381 $546 forward $231 $-1 #
coedge $-1 $547 $233 $235 $386 forward $145 $-1 #
coedge $-1 $233 $547 $379 $546 reversed $145 $-1 #
coedge $-1 $548 $236 $233 $383 forward $388 $-1 #
edge $-1 $390 2.3992264741784073 $549 13.374778992943684 $382 $550 forward 7 unknown #
coedge $-1 $551 $543 $234 $385 forward $377 $-1 #
edge $-1 $552 -33.342617203336971 $389 -25.85024149485217 $384 $553 forward 7 unknown #
edge $-1 $390 -7.685582356959255e-014 $552 13.398553204745287 $235 $554 forward 7 unknown #
coedge $-1 $236 $548 $551 $555 reversed $388 $-1 #
loop $-1 $-1 $382 $376 #
vertex $-1 $555 $556 #
vertex $-1 $237 $557 #
straight-curve $-1 -78.56318857387005 -10.286229207739453 48.320623180468111 0 0 -1 I I #
coedge $-1 $392 $392 $-1 $558 reversed $240 $-1 #
edge $-1 $559 0 $559 6.2831853071796004 $241 $560 forward 7 unknown #
vertex $-1 $244 $561 #
ellipse-curve $-1 -74.817000719627643 -18.12590957828608 14.331245259089901 -0.82903758062907751 0 0.55919289150049634 0.27959644575024817 0 0.41451879031453875 1 I I #
coedge $-1 $396 $396 $-1 $562 reversed $247 $-1 #
edge $-1 $563 0 $563 6.2831853071796004 $248 $564 forward 7 unknown #
vertex $-1 $251 $565 #
ellipse-curve $-1 -74.817000719627643 -13.422101355958105 14.331245259089901 -0.82903758062907751 0 0.55919289150049634 0.27959644575024817 0 0.41451879031453875 1 I I #
face $-1 $-1 $566 $56 $-1 $567 reversed single #
loop $-1 $-1 $258 $252 #
plane-surface $-1 0 0 19.885197325485922 0 0 1 1 0 0 forward_v I I I I #
coedge $-1 $568 $569 $570 $571 reversed $253 $-1 #
coedge $-1 $572 $255 $257 $410 forward $159 $-1 #
coedge $-1 $255 $572 $568 $573 forward $159 $-1 #
coedge $-1 $570 $258 $255 $407 forward $401 $-1 #
edge $-1 $413 -4.8115702205227038 $574 6.1639822982425727 $406 $575 forward 7 unknown #
coedge $-1 $576 $577 $256 $409 forward $566 $-1 #
edge $-1 $578 -39.543329987774257 $412 -28.435425854982189 $408 $579 forward 7 unknown #
edge $-1 $413 -13.398553204745287 $578 7.685582356959255e-014 $257 $580 forward 7 unknown #
coedge $-1 $258 $570 $576 $581 forward $401 $-1 #
vertex $-1 $259 $582 #
vertex $-1 $259 $583 #
straight-curve $-1 -104.41343006872222 -4.1353641816627693 19.885197325485919 1 0 0 I I #
coedge $-1 $415 $415 $-1 $584 reversed $262 $-1 #
edge $-1 $585 0 $585 6.2831853071796004 $263 $586 forward 7 unknown #
vertex $-1 $266 $587 #
ellipse-curve $-1 -74.817000719627643 -0.99949203344412041 14.331245259089901 -0.82903758062907751 0 0.55919289150049634 0.27959644575024817 0 0.41451879031453875 1 I I #
coedge $-1 $419 $419 $-1 $588 reversed $269 $-1 #
edge $-1 $589 0 $589 6.2831853071796004 $270 $590 forward 7 unknown #
vertex $-1 $273 $591 #
ellipse-curve $-1 -74.817000719627643 3.7043161888838512 14.331245259089901 -0.82903758062907751 0 0.55919289150049634 0.27959644575024817 0 0.41451879031453875 1 I I #
face $-1 $-1 $592 $59 $-1 $593 reversed single #
loop $-1 $-1 $280 $274 #
plane-surface $-1 0 0 19.885197325485922 0 0 1 1 0 0 forward_v I I I I #
coedge $-1 $594 $595 $596 $597 reversed $275 $-1 #
coedge $-1 $598 $277 $279 $433 forward $173 $-1 #
coedge $-1 $277 $598 $594 $599 forward $173 $-1 #
coedge $-1 $596 $280 $277 $430 forward $424 $-1 #
edge $-1 $436 3.7516385518982744 $600 14.727191070663551 $429 $601 forward 7 unknown #
coedge $-1 $602 $603 $278 $432 forward $592 $-1 #
edge $-1 $604 -39.543329987774257 $435 -28.435425854982189 $431 $605 forward 7 unknown #
edge $-1 $436 -13.398553204745287 $604 7.685582356959255e-014 $279 $606 forward 7 unknown #
coedge $-1 $280 $596 $602 $607 forward $424 $-1 #
vertex $-1 $281 $608 #
vertex $-1 $281 $609 #
straight-curve $-1 -104.41343006872222 12.991053363179187 19.885197325485919 1 0 0 I I #
coedge $-1 $438 $438 $-1 $610 reversed $284 $-1 #
edge $-1 $611 0 $611 6.2831853071796004 $285 $612 forward 7 unknown #
vertex $-1 $288 $613 #
ellipse-curve $-1 -74.817000719627643 16.126925511397836 14.331245259089901 -0.82903758062907751 0 0.55919289150049634 0.27959644575024817 0 0.41451879031453875 1 I I #
coedge $-1 $442 $442 $-1 $614 reversed $291 $-1 #
edge $-1 $615 0 $615 6.2831853071796004 $292 $616 forward 7 unknown #
vertex $-1 $295 $617 #
ellipse-curve $-1 -74.817000719627643 20.830733733725801 14.331245259089901 -0.82903758062907751 0 0.55919289150049634 0.27959644575024817 0 0.41451879031453875 1 I I #
face $-1 $-1 $618 $62 $-1 $619 reversed single #
loop $-1 $-1 $302 $296 #
plane-surface $-1 0 0 19.885197325485922 0 0 1 1 0 0 forward_v I I I I #
coedge $-1 $620 $621 $622 $623 reversed $297 $-1 #
coedge $-1 $624 $299 $301 $456 forward $187 $-1 #
coedge $-1 $299 $624 $620 $625 forward $187 $-1 #
coedge $-1 $622 $302 $299 $453 forward $447 $-1 #
edge $-1 $459 12.314847324319253 $626 23.290399843084526 $452 $627 forward 7 unknown #
coedge $-1 $628 $629 $300 $455 forward $618 $-1 #
edge $-1 $630 -39.543329987774257 $458 -28.435425854982189 $454 $631 forward 7 unknown #
edge $-1 $459 -13.398553204745287 $630 7.685582356959255e-014 $301 $632 forward 7 unknown #
coedge $-1 $302 $622 $628 $633 forward $447 $-1 #
vertex $-1 $303 $634 #
vertex $-1 $303 $635 #
straight-curve $-1 -104.41343006872222 30.117470908021144 19.885197325485919 1 0 0 I I #
coedge $-1 $461 $461 $-1 $636 reversed $306 $-1 #
edge $-1 $637 0 $637 6.2831853071796004 $307 $638 forward 7 unknown #
vertex $-1 $310 $639 #
ellipse-curve $-1 -74.817000719627643 33.253343056239792 14.331245259089901 -0.82903758062907751 0 0.55919289150049634 0.27959644575024817 0 0.41451879031453875 1 I I #
coedge $-1 $465 $465 $-1 $640 reversed $313 $-1 #
edge $-1 $641 0 $641 6.2831853071796004 $314 $642 forward 7 unknown #
vertex $-1 $317 $643 #
ellipse-curve $-1 -74.817000719627643 37.957151278567757 14.331245259089901 -0.82903758062907751 0 0.55919289150049634 0.27959644575024817 0 0.41451879031453875 1 I I #
face $-1 $-1 $481 $65 $-1 $644 forward single #
loop $-1 $-1 $645 $318 #
plane-surface $-1 78.56318857387005 0 0 -1 0 0 0 0 1 forward_v I I I I #
coedge $-1 $646 $647 $648 $649 reversed $319 $-1 #
coedge $-1 $650 $321 $323 $479 forward $201 $-1 #
coedge $-1 $321 $650 $646 $651 forward $201 $-1 #
coedge $-1 $648 $324 $321 $476 forward $481 $-1 #
edge $-1 $483 -11.509715171710003 $652 -4.3764867380729591 $475 $653 forward 7 unknown #
coedge $-1 $654 $655 $322 $478 forward $470 $-1 #
edge $-1 $656 -107.92771013423757 $482 -88.702110958616473 $477 $657 forward 7 unknown #
edge $-1 $483 134.45596601999628 $656 157.12637714774007 $323 $658 forward 7 unknown #
coedge $-1 $324 $648 $654 $659 forward $481 $-1 #
loop $-1 $-1 $648 $469 #
vertex $-1 $478 $660 #
vertex $-1 $325 $661 #
straight-curve $-1 64.274811319030135 19.452816126601483 19.885197325485919 -1 0 0 I I #
coedge $-1 $485 $485 $-1 $662 reversed $328 $-1 #
edge $-1 $663 0 $663 6.2831853071796004 $329 $664 forward 7 unknown #
vertex $-1 $332 $665 #
ellipse-curve $-1 72.556444925284566 14.357652959717882 10.272397737675348 0.84804810408105047 0 0.52991925155115449 0.52991925155115449 0 -0.84804810408105047 1 I I #
coedge $-1 $489 $489 $-1 $666 reversed $335 $-1 #
edge $-1 $667 0 $667 6.2831853071796004 $336 $668 forward 7 unknown #
vertex $-1 $339 $669 #
ellipse-curve $-1 72.556444925284566 17.414750859848048 10.272397737675348 0.84804810408105047 0 0.52991925155115449 0.52991925155115449 0 -0.84804810408105047 1 I I #
face $-1 $-1 $355 $51 $-1 $670 reversed single #
loop $-1 $-1 $509 $340 #
plane-surface $-1 0 47.243888452863096 0 0 -1 0 0 0 -1 forward_v I I I I #
coedge $-1 $671 $507 $510 $672 forward $341 $-1 #
coedge $-1 $513 $343 $344 $501 reversed $215 $-1 #
coedge $-1 $507 $671 $343 $499 reversed $341 $-1 #
edge $-1 $514 -19.885197325485922 $673 19.885197325485922 $498 $674 forward 7 unknown #
coedge $-1 $345 $344 $671 $675 forward $137 $-1 #
edge $-1 $505 -78.56318857387005 $673 78.56318857387005 $497 $676 forward 7 unknown #
coedge $-1 $510 $509 $345 $503 reversed $494 $-1 #
edge $-1 $677 -78.56318857387005 $504 78.56318857387005 $502 $678 forward 7 unknown #
vertex $-1 $347 $679 #
vertex $-1 $516 $680 #
straight-curve $-1 78.56318857387005 0 -19.885197325485922 0 -1 0 I I #
coedge $-1 $496 $498 $348 $508 reversed $341 $-1 #
edge $-1 $511 -47.243888452863096 $514 47.243888452863096 $507 $681 forward 7 unknown #
coedge $-1 $502 $349 $354 $517 forward $494 $-1 #
coedge $-1 $349 $502 $496 $672 reversed $494 $-1 #
vertex $-1 $350 $682 #
straight-curve $-1 0 47.243888452863096 19.885197325485922 -1 0 0 I I #
coedge $-1 $351 $497 $353 $516 reversed $215 $-1 #
vertex $-1 $508 $683 #
straight-curve $-1 0 -47.243888452863096 19.885197325485922 1 0 0 I I #
edge $-1 $356 -19.885197325485922 $505 19.885197325485922 $353 $684 forward 7 unknown #
edge $-1 $357 -19.885197325485922 $504 19.885197325485922 $354 $685 forward 7 unknown #
point $-1 78.56318857387005 -47.243888452863096 19.885197325485922 #
point $-1 78.56318857387005 47.243888452863096 19.885197325485922 #
face $-1 $-1 $372 $52 $-1 $686 reversed single #
loop $-1 $-1 $527 $359 #
plane-surface $-1 0 0 19.885197325485922 0 0 1 1 0 0 forward_v I I I I #
coedge $-1 $687 $362 $367 $532 forward $223 $-1 #
coedge $-1 $362 $687 $688 $689 reversed $223 $-1 #
coedge $-1 $364 $363 $362 $526 reversed $141 $-1 #
edge $-1 $690 -12.894428065832345 $537 -1.0871104534748159 $362 $691 forward 7 unknown #
coedge $-1 $688 $692 $364 $528 forward $521 $-1 #
edge $-1 $530 -78.56318857387005 $690 78.56318857387005 $527 $693 forward 7 unknown #
coedge $-1 $371 $365 $692 $694 reversed $372 $-1 #
vertex $-1 $366 $695 #
straight-curve $-1 78.56318857387005 -21.261781726504729 6.9907692596535806 0 0 1 I I #
edge $-1 $537 4.1353641816627729 $535 30.11747090802114 $523 $696 forward 7 unknown #
coedge $-1 $697 $368 $371 $539 reversed $360 $-1 #
coedge $-1 $368 $697 $687 $698 forward $360 $-1 #
vertex $-1 $369 $699 #
straight-curve $-1 0 -47.243888452863096 8.0778797131283966 1 0 0 I I #
vertex $-1 $532 $700 #
straight-curve $-1 0 -21.261781726504729 8.0778797131283966 1 0 0 I I #
edge $-1 $701 -19.885197325485922 $373 -8.0778797131283966 $371 $702 forward 7 unknown #
point $-1 78.56318857387005 -47.243888452863096 8.0778797131283966 #
point $-1 78.56318857387005 -21.261781726504729 8.0778797131283966 #
plane-surface $-1 -78.56318857387005 0 0 1 0 0 0 0 -1 forward_v I I I I #
coedge $-1 $384 $703 $547 $704 forward $377 $-1 #
coedge $-1 $545 $379 $703 $705 reversed $231 $-1 #
coedge $-1 $379 $544 $548 $706 reversed $231 $-1 #
edge $-1 $549 -24.123245769348454 $707 -10.724692564603092 $379 $708 forward 7 unknown #
coedge $-1 $381 $380 $543 $704 reversed $145 $-1 #
coedge $-1 $387 $382 $545 $706 forward $388 $-1 #
vertex $-1 $706 $709 #
straight-curve $-1 -78.56318857387005 -7.8870027335610455 8.7772931926938611 0 -1 0 I I #
coedge $-1 $703 $384 $387 $555 forward $377 $-1 #
vertex $-1 $385 $710 #
straight-curve $-1 -104.41343006872222 -10.286229207739453 19.885197325485919 -1 0 0 I I #
straight-curve $-1 -78.563188573870008 -10.286229207739453 8.7772931926939179 0.55919289150049634 0 0.82903758062907751 I I #
edge $-1 $389 10.286229207739453 $711 21.261781726504729 $387 $712 forward 7 unknown #
point $-1 -78.56318857387005 -10.286229207739453 19.885197325485922 #
point $-1 -78.56318857387005 -10.286229207739453 8.777293192693854 #
edge $-1 $713 1 $713 0 $392 $-1 forward 7 unknown #
vertex $-1 $393 $714 #
ellipse-curve $-1 -73.51422737863912 -18.12590957828608 13.452513572446284 -0.82903758062907751 0 0.55919289150049634 0.27959644575024817 0 0.41451879031453875 1 I I #
point $-1 -74.537404273877428 -18.12590957828608 14.74576404940446 #
edge $-1 $715 1 $715 0 $396 $-1 forward 7 unknown #
vertex $-1 $397 $716 #
ellipse-curve $-1 -73.51422737863912 -13.422101355958105 13.452513572446284 -0.82903758062907751 0 0.55919289150049634 0.27959644575024817 0 0.41451879031453875 1 I I #
point $-1 -74.537404273877428 -13.422101355958105 14.74576404940446 #
loop $-1 $-1 $408 $400 #
plane-surface $-1 -78.56318857387005 0 0 1 0 0 0 0 -1 forward_v I I I I #
coedge $-1 $569 $403 $405 $573 reversed $253 $-1 #
coedge $-1 $403 $568 $717 $718 reversed $253 $-1 #
coedge $-1 $411 $406 $403 $571 forward $401 $-1 #
edge $-1 $574 -33.342617203336971 $719 -25.85024149485217 $570 $720 forward 7 unknown #
coedge $-1 $405 $404 $577 $721 reversed $159 $-1 #
edge $-1 $722 -7.685582356959255e-014 $574 13.398553204745287 $568 $723 forward 7 unknown #
vertex $-1 $407 $724 #
straight-curve $-1 -71.07081286538525 0.67620603885993447 19.885197325485926 0 1 0 I I #
coedge $-1 $717 $408 $411 $581 reversed $566 $-1 #
coedge $-1 $408 $717 $572 $721 forward $566 $-1 #
vertex $-1 $409 $725 #
straight-curve $-1 -78.56318857387005 -4.1353641816627693 48.320623180468111 0 0 1 I I #
straight-curve $-1 -78.563188573870008 -4.1353641816627693 8.7772931926939179 -0.55919289150049634 0 -0.82903758062907751 I I #
edge $-1 $719 -6.8401883371025072 $412 4.1353641816627693 $576 $726 forward 7 unknown #
point $-1 -78.56318857387005 -4.1353641816627693 19.885197325485922 #
point $-1 -71.07081286538525 -4.1353641816627693 19.885197325485922 #
edge $-1 $727 1 $727 0 $415 $-1 forward 7 unknown #
vertex $-1 $416 $728 #
ellipse-curve $-1 -73.51422737863912 -0.99949203344412041 13.452513572446284 -0.82903758062907751 0 0.55919289150049634 0.27959644575024817 0 0.41451879031453875 1 I I #
point $-1 -74.537404273877428 -0.99949203344412041 14.74576404940446 #
edge $-1 $729 1 $729 0 $419 $-1 forward 7 unknown #
vertex $-1 $420 $730 #
ellipse-curve $-1 -73.51422737863912 3.7043161888838512 13.452513572446284 -0.82903758062907751 0 0.55919289150049634 0.27959644575024817 0 0.41451879031453875 1 I I #
point $-1 -74.537404273877428 3.7043161888838512 14.74576404940446 #
loop $-1 $-1 $431 $423 #
plane-surface $-1 -78.56318857387005 0 0 1 0 0 0 0 -1 forward_v I I I I #
coedge $-1 $595 $426 $428 $599 reversed $275 $-1 #
coedge $-1 $426 $594 $731 $732 reversed $275 $-1 #
coedge $-1 $434 $429 $426 $597 forward $424 $-1 #
edge $-1 $600 -33.342617203336971 $733 -25.85024149485217 $596 $734 forward 7 unknown #
coedge $-1 $428 $427 $603 $735 reversed $173 $-1 #
edge $-1 $736 -7.685582356959255e-014 $600 13.398553204745287 $594 $737 forward 7 unknown #
vertex $-1 $430 $738 #
straight-curve $-1 -71.07081286538525 9.2394148112809127 19.885197325485926 0 1 0 I I #
coedge $-1 $731 $431 $434 $607 reversed $592 $-1 #
coedge $-1 $431 $731 $598 $735 forward $592 $-1 #
vertex $-1 $432 $739 #
straight-curve $-1 -78.56318857387005 12.991053363179187 48.320623180468111 0 0 1 I I #
straight-curve $-1 -78.563188573870008 12.991053363179187 8.7772931926939179 -0.55919289150049634 0 -0.82903758062907751 I I #
edge $-1 $733 -23.966605881944464 $435 -12.991053363179187 $602 $740 forward 7 unknown #
point $-1 -78.56318857387005 12.991053363179187 19.885197325485922 #
point $-1 -71.07081286538525 12.991053363179187 19.885197325485922 #
edge $-1 $741 1 $741 0 $438 $-1 forward 7 unknown #
vertex $-1 $439 $742 #
ellipse-curve $-1 -73.51422737863912 16.126925511397836 13.452513572446284 -0.82903758062907751 0 0.55919289150049634 0.27959644575024817 0 0.41451879031453875 1 I I #
point $-1 -74.537404273877428 16.126925511397836 14.74576404940446 #
edge $-1 $743 1 $743 0 $442 $-1 forward 7 unknown #
vertex $-1 $443 $744 #
ellipse-curve $-1 -73.51422737863912 20.830733733725801 13.452513572446284 -0.82903758062907751 0 0.55919289150049634 0.27959644575024817 0 0.41451879031453875 1 I I #
point $-1 -74.537404273877428 20.830733733725801 14.74576404940446 #
loop $-1 $-1 $454 $446 #
plane-surface $-1 -78.56318857387005 0 0 1 0 0 0 0 -1 forward_v I I I I #
coedge $-1 $621 $449 $451 $625 reversed $297 $-1 #
coedge $-1 $449 $620 $745 $746 reversed $297 $-1 #
coedge $-1 $457 $452 $449 $623 forward $447 $-1 #
edge $-1 $626 -33.342617203336971 $747 -25.85024149485217 $622 $748 forward 7 unknown #
coedge $-1 $451 $450 $629 $749 reversed $187 $-1 #
edge $-1 $750 -7.685582356959255e-014 $626 13.398553204745287 $620 $751 forward 7 unknown #
vertex $-1 $453 $752 #
straight-curve $-1 -71.07081286538525 17.802623583701891 19.885197325485926 0 1 0 I I #
coedge $-1 $745 $454 $457 $633 reversed $618 $-1 #
coedge $-1 $454 $745 $624 $749 forward $618 $-1 #
vertex $-1 $455 $753 #
straight-curve $-1 -78.56318857387005 30.117470908021144 48.320623180468111 0 0 1 I I #
straight-curve $-1 -78.563188573870008 30.117470908021144 8.7772931926939179 -0.55919289150049634 0 -0.82903758062907751 I I #
edge $-1 $747 -41.093023426786417 $458 -30.117470908021144 $628 $754 forward 7 unknown #
point $-1 -78.56318857387005 30.117470908021144 19.885197325485922 #
point $-1 -71.07081286538525 30.117470908021144 19.885197325485922 #
edge $-1 $755 1 $755 0 $461 $-1 forward 7 unknown #
vertex $-1 $462 $756 #
ellipse-curve $-1 -73.51422737863912 33.253343056239792 13.452513572446284 -0.82903758062907751 0 0.55919289150049634 0.27959644575024817 0 0.41451879031453875 1 I I #
point $-1 -74.537404273877428 33.253343056239792 14.74576404940446 #
edge $-1 $757 1 $757 0 $465 $-1 forward 7 unknown #
vertex $-1 $466 $758 #
ellipse-curve $-1 -73.51422737863912 37.957151278567757 13.452513572446284 -0.82903758062907751 0 0.55919289150049634 0.27959644575024817 0 0.41451879031453875 1 I I #
point $-1 -74.537404273877428 37.957151278567757 14.74576404940446 #
plane-surface $-1 0 0 19.885197325485922 0 0 1 1 0 0 forward_v I I I I #
coedge $-1 $655 $654 $647 $759 forward $470 $-1 #
coedge $-1 $647 $472 $474 $651 reversed $319 $-1 #
coedge $-1 $472 $646 $645 $759 reversed $319 $-1 #
coedge $-1 $480 $475 $472 $649 forward $481 $-1 #
edge $-1 $652 2.2748899576689467 $760 14.288377254839915 $648 $761 forward 7 unknown #
coedge $-1 $474 $473 $655 $762 reversed $201 $-1 #
edge $-1 $763 -157.12637714774007 $652 -134.45596601999628 $646 $764 forward 7 unknown #
vertex $-1 $476 $765 #
straight-curve $-1 66.549701276699068 7.9431009548914808 19.885197325485919 0 -1 0 I I #
coedge $-1 $645 $477 $480 $659 reversed $470 $-1 #
coedge $-1 $477 $645 $650 $762 forward $470 $-1 #
vertex $-1 $478 $766 #
straight-curve $-1 78.56318857387005 19.452816126601483 108.58730828410239 0 0 1 I I #
straight-curve $-1 -4.7011036032048139 19.452816126601483 133.9103243911299 0.52991925155115449 0 -0.84804810408105047 I I #
edge $-1 $760 12.31958769296444 $482 19.452816126601483 $654 $767 forward 7 unknown #
point $-1 78.56318857387005 19.452816126601483 19.885197325485922 #
point $-1 66.549701276699082 19.452816126601483 19.885197325485919 #
edge $-1 $768 1 $768 0 $485 $-1 forward 7 unknown #
vertex $-1 $486 $769 #
ellipse-curve $-1 71.260549157608509 14.357652959717882 9.4626322161318068 0.84804810408105047 0 0.52991925155115449 0.52991925155115449 0 -0.84804810408105047 1 I I #
point $-1 73.086364176835744 14.357652959717882 9.4243496335943178 #
edge $-1 $770 1 $770 0 $489 $-1 forward 7 unknown #
vertex $-1 $490 $771 #
ellipse-curve $-1 71.260549157608509 17.414750859848048 9.4626322161318068 0.84804810408105047 0 0.52991925155115449 0.52991925155115449 0 -0.84804810408105047 1 I I #
point $-1 73.086364176835744 17.414750859848048 9.4243496335943178 #
plane-surface $-1 78.56318857387005 0 0 -1 0 0 0 0 1 forward_v I I I I #
coedge $-1 $498 $496 $500 $675 reversed $341 $-1 #
edge $-1 $511 -19.885197325485922 $677 19.885197325485922 $510 $772 forward 7 unknown #
vertex $-1 $675 $773 #
straight-curve $-1 -78.56318857387005 -47.243888452863096 0 0 0 -1 I I #
edge $-1 $673 -47.243888452863096 $677 47.243888452863096 $671 $774 forward 7 unknown #
straight-curve $-1 0 -47.243888452863096 -19.885197325485922 -1 0 0 I I #
vertex $-1 $503 $775 #
straight-curve $-1 0 47.243888452863096 -19.885197325485922 1 0 0 I I #
point $-1 78.56318857387005 47.243888452863096 -19.885197325485922 #
point $-1 78.56318857387005 -47.243888452863096 -19.885197325485922 #
straight-curve $-1 -78.56318857387005 0 19.885197325485922 0 -1 0 I I #
point $-1 -78.56318857387005 47.243888452863096 19.885197325485922 #
point $-1 -78.56318857387005 -47.243888452863096 19.885197325485922 #
straight-curve $-1 78.56318857387005 -47.243888452863096 0 0 0 -1 I I #
straight-curve $-1 78.56318857387005 47.243888452863096 0 0 0 -1 I I #
plane-surface $-1 78.56318857387005 0 0 -1 0 0 0 0 1 forward_v I I I I #
coedge $-1 $524 $523 $534 $698 reversed $223 $-1 #
coedge $-1 $776 $527 $524 $689 forward $521 $-1 #
edge $-1 $690 21.261781726504729 $777 47.243888452863096 $524 $778 forward 7 unknown #
vertex $-1 $689 $779 #
straight-curve $-1 -78.56318857387005 -21.261781726504729 6.9907692596535806 0 0 -1 I I #
coedge $-1 $527 $776 $529 $694 forward $521 $-1 #
straight-curve $-1 0 -21.261781726504729 19.885197325485922 -1 0 0 I I #
edge $-1 $701 -47.243888452863096 $530 -21.261781726504729 $529 $780 forward 7 unknown #
point $-1 78.56318857387005 -21.261781726504729 19.885197325485926 #
straight-curve $-1 -78.56318857387005 -17.126417544841956 8.0778797131283966 0 -1 0 I I #
coedge $-1 $534 $533 $776 $781 reversed $360 $-1 #
edge $-1 $777 -19.885197325485922 $535 -8.0778797131283966 $687 $782 forward 7 unknown #
point $-1 -78.56318857387005 -47.243888452863096 8.0778797131283966 #
point $-1 -78.56318857387005 -21.261781726504729 8.0778797131283966 #
vertex $-1 $694 $783 #
straight-curve $-1 78.56318857387005 -47.243888452863096 0 0 0 -1 I I #
coedge $-1 $543 $551 $544 $705 forward $377 $-1 #
edge $-1 $707 -13.374778992943684 $552 -2.3992264741784073 $543 $784 forward 7 unknown #
edge $-1 $711 -78.56318857387005 $707 -71.07081286538525 $703 $785 forward 7 unknown #
edge $-1 $549 1.7865239330402733 $711 12.894428065832345 $548 $786 forward 7 unknown #
vertex $-1 $546 $787 #
straight-curve $-1 -65.073641019730971 -21.261781726504729 28.776370502235125 0.55919289150049634 0 0.82903758062907751 I I #
point $-1 -78.56318857387005 -21.261781726504729 8.777293192693854 #
point $-1 -71.07081286538525 -10.286229207739453 19.885197325485922 #
vertex $-1 $706 $788 #
straight-curve $-1 -78.56318857387005 0 19.885197325485922 0 -1 0 I I #
vertex $-1 $558 $789 #
point $-1 -73.234630932888876 -18.12590957828608 13.867032362760822 #
vertex $-1 $562 $790 #
point $-1 -73.234630932888876 -13.422101355958105 13.867032362760822 #
coedge $-1 $577 $576 $569 $718 forward $566 $-1 #
edge $-1 $719 28.435425854982189 $722 39.543329987774257 $717 $791 forward 7 unknown #
vertex $-1 $581 $792 #
straight-curve $-1 -104.41343006872222 6.8401883371025072 19.885197325485919 -1 0 0 I I #
edge $-1 $722 -6.1639822982425727 $578 4.8115702205227038 $577 $793 forward 7 unknown #
vertex $-1 $721 $794 #
straight-curve $-1 -78.563188573870008 6.8401883371025072 8.7772931926939179 0.55919289150049634 0 0.82903758062907751 I I #
point $-1 -71.07081286538525 6.8401883371025072 19.885197325485922 #
point $-1 -78.56318857387005 -4.1353641816627693 8.777293192693854 #
straight-curve $-1 -78.56318857387005 0 19.885197325485922 0 -1 0 I I #
vertex $-1 $584 $795 #
point $-1 -73.234630932888876 -0.99949203344412041 13.867032362760822 #
vertex $-1 $588 $796 #
point $-1 -73.234630932888876 3.7043161888838512 13.867032362760822 #
coedge $-1 $603 $602 $595 $732 forward $592 $-1 #
edge $-1 $733 28.435425854982189 $736 39.543329987774257 $731 $797 forward 7 unknown #
vertex $-1 $607 $798 #
straight-curve $-1 -104.41343006872222 23.966605881944464 19.885197325485919 -1 0 0 I I #
edge $-1 $736 -14.727191070663551 $604 -3.7516385518982744 $603 $799 forward 7 unknown #
vertex $-1 $735 $800 #
straight-curve $-1 -78.563188573870008 23.966605881944464 8.7772931926939179 0.55919289150049634 0 0.82903758062907751 I I #
point $-1 -71.07081286538525 23.966605881944464 19.885197325485922 #
point $-1 -78.56318857387005 12.991053363179187 8.777293192693854 #
straight-curve $-1 -78.56318857387005 0 19.885197325485922 0 -1 0 I I #
vertex $-1 $610 $801 #
point $-1 -73.234630932888876 16.126925511397836 13.867032362760822 #
vertex $-1 $614 $802 #
point $-1 -73.234630932888876 20.830733733725801 13.867032362760822 #
coedge $-1 $629 $628 $621 $746 forward $618 $-1 #
edge $-1 $747 28.435425854982189 $750 39.543329987774257 $745 $803 forward 7 unknown #
vertex $-1 $633 $804 #
straight-curve $-1 -104.41343006872222 41.093023426786417 19.885197325485919 -1 0 0 I I #
edge $-1 $750 -23.290399843084526 $630 -12.314847324319253 $629 $805 forward 7 unknown #
vertex $-1 $749 $806 #
straight-curve $-1 -78.563188573870008 41.093023426786417 8.7772931926939179 0.55919289150049634 0 0.82903758062907751 I I #
point $-1 -71.07081286538525 41.093023426786417 19.885197325485922 #
point $-1 -78.56318857387005 30.117470908021144 8.777293192693854 #
straight-curve $-1 -78.56318857387005 0 19.885197325485922 0 -1 0 I I #
vertex $-1 $636 $807 #
point $-1 -73.234630932888876 33.253343056239792 13.867032362760822 #
vertex $-1 $640 $808 #
point $-1 -73.234630932888876 37.957151278567757 13.867032362760822 #
edge $-1 $760 88.702110958616473 $763 107.92771013423757 $645 $809 forward 7 unknown #
vertex $-1 $659 $810 #
straight-curve $-1 64.274811319030135 12.31958769296444 19.885197325485919 1 0 0 I I #
edge $-1 $763 4.3764867380729591 $656 11.509715171710003 $655 $811 forward 7 unknown #
vertex $-1 $762 $812 #
straight-curve $-1 -4.7011036032048139 12.31958769296444 133.9103243911299 -0.52991925155115449 0 0.84804810408105047 I I #
point $-1 66.549701276699082 12.31958769296444 19.885197325485919 #
point $-1 78.56318857387005 19.452816126601483 0.65959814986482002 #
straight-curve $-1 78.56318857387005 0 19.885197325485922 0 1 0 I I #
vertex $-1 $662 $813 #
point $-1 71.790468409159672 14.357652959717882 8.6145841120507569 #
vertex $-1 $666 $814 #
point $-1 71.790468409159672 17.414750859848048 8.6145841120507569 #
straight-curve $-1 -78.56318857387005 47.243888452863096 0 0 0 -1 I I #
point $-1 -78.56318857387005 -47.243888452863096 -19.885197325485922 #
straight-curve $-1 -78.56318857387005 0 -19.885197325485922 0 1 0 I I #
point $-1 -78.56318857387005 47.243888452863096 -19.885197325485922 #
coedge $-1 $692 $688 $697 $781 forward $521 $-1 #
vertex $-1 $689 $815 #
straight-curve $-1 -78.56318857387005 0 19.885197325485922 0 -1 0 I I #
point $-1 -78.56318857387005 -21.261781726504729 19.885197325485926 #
straight-curve $-1 78.56318857387005 0 19.885197325485922 0 1 0 I I #
edge $-1 $777 -78.56318857387005 $701 78.56318857387005 $697 $816 forward 7 unknown #
straight-curve $-1 -78.56318857387005 -47.243888452863096 0 0 0 -1 I I #
point $-1 78.56318857387005 -47.243888452863096 19.885197325485922 #
straight-curve $-1 -71.07081286538525 -7.8870027335610455 19.885197325485926 0 1 0 I I #
straight-curve $-1 0 -21.261781726504729 19.885197325485922 1 0 0 I I #
straight-curve $-1 -78.56318857387005 -21.261781726504729 6.9907692596535806 0 0 1 I I #
point $-1 -71.07081286538525 -21.261781726504729 19.885197325485922 #
point $-1 -78.56318857387005 -21.261781726504729 19.885197325485926 #
point $-1 -73.099708588324589 -18.12590957828608 13.172917126696037 #
point $-1 -73.099708588324589 -13.422101355958105 13.172917126696037 #
straight-curve $-1 -78.56318857387005 6.8401883371025072 48.320623180468111 0 0 -1 I I #
point $-1 -78.56318857387005 6.8401883371025072 19.885197325485922 #
straight-curve $-1 -78.56318857387005 0.67620603885993447 8.7772931926938611 0 -1 0 I I #
point $-1 -78.56318857387005 6.8401883371025072 8.777293192693854 #
point $-1 -73.099708588324589 -0.99949203344412041 13.172917126696037 #
point $-1 -73.099708588324589 3.7043161888838512 13.172917126696037 #
straight-curve $-1 -78.56318857387005 23.966605881944464 48.320623180468111 0 0 -1 I I #
point $-1 -78.56318857387005 23.966605881944464 19.885197325485922 #
straight-curve $-1 -78.56318857387005 9.2394148112809127 8.7772931926938611 0 -1 0 I I #
point $-1 -78.56318857387005 23.966605881944464 8.777293192693854 #
point $-1 -73.099708588324589 16.126925511397836 13.172917126696037 #
point $-1 -73.099708588324589 20.830733733725801 13.172917126696037 #
straight-curve $-1 -78.56318857387005 41.093023426786417 48.320623180468111 0 0 -1 I I #
point $-1 -78.56318857387005 41.093023426786417 19.885197325485922 #
straight-curve $-1 -78.56318857387005 17.802623583701891 8.7772931926938611 0 -1 0 I I #
point $-1 -78.56318857387005 41.093023426786417 8.777293192693854 #
point $-1 -73.099708588324589 33.253343056239792 13.172917126696037 #
point $-1 -73.099708588324589 37.957151278567757 13.172917126696037 #
straight-curve $-1 78.56318857387005 12.31958769296444 108.58730828410239 0 0 -1 I I #
point $-1 78.56318857387005 12.31958769296444 19.885197325485922 #
straight-curve $-1 78.563188573870036 7.9431009548914808 0.65959814986480581 0 1 0 I I #
point $-1 78.56318857387005 12.31958769296444 0.65959814986482002 #
point $-1 70.412501053527464 14.357652959717882 8.932712964580654 #
point $-1 70.412501053527464 17.414750859848048 8.932712964580654 #
point $-1 -78.56318857387005 -47.243888452863096 19.885197325485922 #
straight-curve $-1 0 -47.243888452863096 19.885197325485922 1 0 0 I I #
End-of-ACIS-data 