500 0 14 0           
7 Unknown 11 ACIS 5.0 NT 24 Fri Mar 26 01:34:33 1999 
-1 9.9999999999999995e-007 1e-010 
body $-1 $14 $-1 $15 #
body $-1 $16 $-1 $17 #
body $-1 $18 $-1 $19 #
body $-1 $20 $-1 $21 #
body $-1 $22 $-1 $23 #
body $-1 $24 $-1 $25 #
body $-1 $26 $-1 $27 #
body $-1 $28 $-1 $29 #
body $-1 $30 $-1 $31 #
body $-1 $32 $-1 $33 #
body $-1 $34 $-1 $35 #
body $-1 $36 $-1 $37 #
body $-1 $38 $-1 $39 #
body $-1 $40 $-1 $41 #
lump $-1 $-1 $42 $0 #
transform $-1 1 0 0 0 1 0 0 0 1 53.926206244087041 36.858159582585323 13.580500090228304 1 rotate no_reflect no_shear #
lump $-1 $-1 $43 $1 #
transform $-1 1 0 0 0 1 0 0 0 1 53.926206244087041 36.858159582585323 13.580500090228304 1 rotate no_reflect no_shear #
lump $-1 $-1 $44 $2 #
transform $-1 1 0 0 0 1 0 0 0 1 53.926206244087041 36.858159582585323 13.580500090228304 1 rotate no_reflect no_shear #
lump $-1 $-1 $45 $3 #
transform $-1 1 0 0 0 1 0 0 0 1 53.926206244087041 36.858159582585323 13.580500090228304 1 rotate no_reflect no_shear #
lump $-1 $-1 $46 $4 #
transform $-1 1 0 0 0 1 0 0 0 1 53.926206244087041 36.858159582585323 13.580500090228304 1 rotate no_reflect no_shear #
lump $-1 $-1 $47 $5 #
transform $-1 1 0 0 0 1 0 0 0 1 53.926206244087041 36.858159582585323 13.580500090228304 1 rotate no_reflect no_shear #
lump $-1 $-1 $48 $6 #
transform $-1 1 0 0 0 1 0 0 0 1 53.926206244087041 36.858159582585323 13.580500090228304 1 rotate no_reflect no_shear #
lump $-1 $-1 $49 $7 #
transform $-1 1 0 0 0 1 0 0 0 1 53.926206244087041 36.858159582585323 13.580500090228304 1 rotate no_reflect no_shear #
lump $-1 $-1 $50 $8 #
transform $-1 1 0 0 0 1 0 0 0 1 53.926206244087041 36.858159582585323 13.580500090228304 1 rotate no_reflect no_shear #
lump $-1 $-1 $51 $9 #
transform $-1 1 0 0 0 1 0 0 0 1 53.926206244087041 36.858159582585323 13.580500090228304 1 rotate no_reflect no_shear #
lump $-1 $-1 $52 $10 #
transform $-1 1 0 0 0 1 0 0 0 1 53.926206244087041 36.858159582585323 13.580500090228304 1 rotate no_reflect no_shear #
lump $-1 $-1 $53 $11 #
transform $-1 1 0 0 0 1 0 0 0 1 53.926206244087041 36.858159582585323 13.580500090228304 1 rotate no_reflect no_shear #
lump $-1 $-1 $54 $12 #
transform $-1 1 0 0 0 1 0 0 0 1 53.926206244087041 36.858159582585323 13.580500090228304 1 rotate no_reflect no_shear #
lump $-1 $-1 $55 $13 #
transform $-1 1 0 0 0 1 0 0 0 1 53.926206244087041 36.858159582585323 13.580500090228304 1 rotate no_reflect no_shear #
shell $-1 $-1 $-1 $56 $-1 $14 #
shell $-1 $-1 $-1 $57 $-1 $16 #
shell $-1 $-1 $-1 $58 $-1 $18 #
shell $-1 $-1 $-1 $59 $-1 $20 #
shell $-1 $-1 $-1 $60 $-1 $22 #
shell $-1 $-1 $-1 $61 $-1 $24 #
shell $-1 $-1 $-1 $62 $-1 $26 #
shell $-1 $-1 $-1 $63 $-1 $28 #
shell $-1 $-1 $-1 $64 $-1 $30 #
shell $-1 $-1 $-1 $65 $-1 $32 #
shell $-1 $-1 $-1 $66 $-1 $34 #
shell $-1 $-1 $-1 $67 $-1 $36 #
shell $-1 $-1 $-1 $68 $-1 $38 #
shell $-1 $-1 $-1 $69 $-1 $40 #
face $-1 $70 $71 $42 $-1 $72 forward single #
face $-1 $73 $74 $43 $-1 $75 reversed single #
face $-1 $76 $77 $44 $-1 $78 reversed single #
face $-1 $79 $80 $45 $-1 $81 forward single #
face $-1 $82 $83 $46 $-1 $84 forward single #
face $-1 $85 $86 $47 $-1 $87 reversed single #
face $-1 $88 $89 $48 $-1 $90 forward single #
face $-1 $91 $92 $49 $-1 $93 forward single #
face $-1 $94 $95 $50 $-1 $96 reversed single #
face $-1 $97 $98 $51 $-1 $99 forward single #
face $-1 $100 $101 $52 $-1 $102 forward single #
face $-1 $103 $104 $53 $-1 $105 reversed single #
face $-1 $106 $107 $54 $-1 $108 forward single #
face $-1 $109 $110 $55 $-1 $111 forward single #
face $-1 $112 $113 $42 $-1 $114 reversed single #
loop $-1 $-1 $115 $56 #
plane-surface $-1 0 0 13.580500090228304 0 0 1 1 0 0 forward_v I I I I #
face $-1 $116 $117 $43 $-1 $118 reversed single #
loop $-1 $-1 $119 $57 #
plane-surface $-1 0 -32.334058869828318 9.1478865319229463 0 0 1 1 0 0 forward_v I I I I #
face $-1 $120 $121 $44 $-1 $122 reversed single #
loop $-1 $-1 $123 $58 #
plane-surface $-1 -48.760201443381703 80.783230624262188 132.26387696946458 1 0 0 0 -0.80901700255871778 -0.5877852410284794 forward_v I I I I #
face $-1 $124 $125 $45 $-1 $126 forward single #
loop $-1 $127 $128 $59 #
cone-surface $-1 -43.995033784387772 34.753502496606473 11.024850941358842 0 -0.80901700255871778 -0.5877852410284794 0.5 0 0 1 I I 0 1 0.5 forward I I I I #
face $-1 $129 $130 $46 $-1 $131 forward single #
loop $-1 $132 $133 $60 #
cone-surface $-1 -36.847282295896868 34.753502496606473 11.024850941358842 0 -0.80901700255871778 -0.5877852410284794 0.5 0 0 1 I I 0 1 0.5 forward I I I I #
face $-1 $134 $135 $47 $-1 $136 reversed single #
loop $-1 $-1 $137 $61 #
plane-surface $-1 -21.797098321338186 80.783230624262188 132.26387696946458 1 0 0 0 -0.80901700255871778 -0.5877852410284794 forward_v I I I I #
face $-1 $138 $139 $48 $-1 $140 forward single #
loop $-1 $141 $142 $62 #
cone-surface $-1 -17.031930662344251 34.753502496606473 11.024850941358842 0 -0.80901700255871778 -0.5877852410284794 0.5 0 0 1 I I 0 1 0.5 forward I I I I #
face $-1 $143 $144 $49 $-1 $145 forward single #
loop $-1 $146 $147 $63 #
cone-surface $-1 -9.8841791738533473 34.753502496606473 11.024850941358842 0 -0.80901700255871778 -0.5877852410284794 0.5 0 0 1 I I 0 1 0.5 forward I I I I #
face $-1 $148 $149 $50 $-1 $150 reversed single #
loop $-1 $-1 $151 $64 #
plane-surface $-1 5.1660048007053341 80.783230624262188 132.26387696946458 1 0 0 0 -0.80901700255871778 -0.5877852410284794 forward_v I I I I #
face $-1 $152 $153 $51 $-1 $154 forward single #
loop $-1 $155 $156 $65 #
cone-surface $-1 9.931172459699269 34.753502496606473 11.024850941358842 0 -0.80901700255871778 -0.5877852410284794 0.5 0 0 1 I I 0 1 0.5 forward I I I I #
face $-1 $157 $158 $52 $-1 $159 forward single #
loop $-1 $160 $161 $66 #
cone-surface $-1 17.07892394819018 34.753502496606473 11.024850941358842 0 -0.80901700255871778 -0.5877852410284794 0.5 0 0 1 I I 0 1 0.5 forward I I I I #
face $-1 $162 $163 $53 $-1 $164 reversed single #
loop $-1 $-1 $165 $67 #
plane-surface $-1 32.129107922748858 80.783230624262188 132.26387696946458 1 0 0 0 -0.80901700255871778 -0.5877852410284794 forward_v I I I I #
face $-1 $166 $167 $54 $-1 $168 forward single #
loop $-1 $169 $170 $68 #
cone-surface $-1 36.894275581742789 34.753502496606473 11.024850941358842 0 -0.80901700255871778 -0.5877852410284794 0.5 0 0 1 I I 0 1 0.5 forward I I I I #
face $-1 $171 $172 $55 $-1 $173 forward single #
loop $-1 $174 $175 $69 #
cone-surface $-1 44.042027070233701 34.753502496606473 11.024850941358842 0 -0.80901700255871778 -0.5877852410284794 0.5 0 0 1 I I 0 1 0.5 forward I I I I #
face $-1 $176 $177 $42 $-1 $178 reversed single #
loop $-1 $-1 $179 $70 #
plane-surface $-1 0 0 -13.580500090228304 0 0 1 1 0 0 forward_v I I I I #
coedge $-1 $180 $181 $182 $183 forward $71 $-1 #
face $-1 $184 $185 $43 $-1 $186 reversed single #
loop $-1 $-1 $187 $73 #
plane-surface $-1 0 -27.809958157071314 11.364193311075626 0 -1 0 0 0 -1 forward_v I I I I #
coedge $-1 $188 $189 $190 $191 reversed $74 $-1 #
face $-1 $192 $193 $44 $-1 $194 reversed single #
loop $-1 $-1 $195 $76 #
plane-surface $-1 -40.421158040142316 -6.4712048456468239 68.869820699600183 0 0.80901700255871778 0.5877852410284794 1 0 0 forward_v I I I I #
coedge $-1 $196 $197 $198 $199 reversed $77 $-1 #
face $-1 $-1 $200 $45 $-1 $201 forward single #
loop $-1 $202 $203 $79 #
cone-surface $-1 -43.995033784387772 34.026252578560339 10.49647296288037 0 -0.80901700255871778 -0.5877852410284794 0.25 0 0 1 I I -0.70710678118654746 0.70710678118654746 0.25 forward I I I I #
loop $-1 $-1 $204 $59 #
coedge $-1 $128 $128 $205 $206 reversed $80 $-1 #
face $-1 $-1 $207 $46 $-1 $208 forward single #
loop $-1 $209 $210 $82 #
cone-surface $-1 -36.847282295896868 34.026252578560339 10.49647296288037 0 -0.80901700255871778 -0.5877852410284794 0.25 0 0 1 I I -0.70710678118654746 0.70710678118654746 0.25 forward I I I I #
loop $-1 $-1 $211 $60 #
coedge $-1 $133 $133 $212 $213 reversed $83 $-1 #
face $-1 $214 $215 $47 $-1 $216 reversed single #
loop $-1 $-1 $217 $85 #
plane-surface $-1 -13.458054918098796 -6.4712048456468239 68.869820699600183 0 0.80901700255871778 0.5877852410284794 1 0 0 forward_v I I I I #
coedge $-1 $218 $219 $220 $221 reversed $86 $-1 #
face $-1 $-1 $222 $48 $-1 $223 forward single #
loop $-1 $224 $225 $88 #
cone-surface $-1 -17.031930662344251 34.026252578560339 10.49647296288037 0 -0.80901700255871778 -0.5877852410284794 0.25 0 0 1 I I -0.70710678118654746 0.70710678118654746 0.25 forward I I I I #
loop $-1 $-1 $226 $62 #
coedge $-1 $142 $142 $227 $228 reversed $89 $-1 #
face $-1 $-1 $229 $49 $-1 $230 forward single #
loop $-1 $231 $232 $91 #
cone-surface $-1 -9.8841791738533473 34.026252578560339 10.49647296288037 0 -0.80901700255871778 -0.5877852410284794 0.25 0 0 1 I I -0.70710678118654746 0.70710678118654746 0.25 forward I I I I #
loop $-1 $-1 $233 $63 #
coedge $-1 $147 $147 $234 $235 reversed $92 $-1 #
face $-1 $236 $237 $50 $-1 $238 reversed single #
loop $-1 $-1 $239 $94 #
plane-surface $-1 13.505048203944725 -6.4712048456468239 68.869820699600183 0 0.80901700255871778 0.5877852410284794 1 0 0 forward_v I I I I #
coedge $-1 $240 $241 $242 $243 reversed $95 $-1 #
face $-1 $-1 $244 $51 $-1 $245 forward single #
loop $-1 $246 $247 $97 #
cone-surface $-1 9.931172459699269 34.026252578560339 10.49647296288037 0 -0.80901700255871778 -0.5877852410284794 0.25 0 0 1 I I -0.70710678118654746 0.70710678118654746 0.25 forward I I I I #
loop $-1 $-1 $248 $65 #
coedge $-1 $156 $156 $249 $250 reversed $98 $-1 #
face $-1 $-1 $251 $52 $-1 $252 forward single #
loop $-1 $253 $254 $100 #
cone-surface $-1 17.07892394819018 34.026252578560339 10.49647296288037 0 -0.80901700255871778 -0.5877852410284794 0.25 0 0 1 I I -0.70710678118654746 0.70710678118654746 0.25 forward I I I I #
loop $-1 $-1 $255 $66 #
coedge $-1 $161 $161 $256 $257 reversed $101 $-1 #
face $-1 $258 $259 $53 $-1 $260 reversed single #
loop $-1 $-1 $261 $103 #
plane-surface $-1 40.468151325988245 -6.4712048456468239 68.869820699600183 0 0.80901700255871778 0.5877852410284794 1 0 0 forward_v I I I I #
coedge $-1 $262 $263 $264 $265 reversed $104 $-1 #
face $-1 $-1 $266 $54 $-1 $267 forward single #
loop $-1 $268 $269 $106 #
cone-surface $-1 36.894275581742789 34.026252578560339 10.49647296288037 0 -0.80901700255871778 -0.5877852410284794 0.25 0 0 1 I I -0.70710678118654746 0.70710678118654746 0.25 forward I I I I #
loop $-1 $-1 $270 $68 #
coedge $-1 $170 $170 $271 $272 reversed $107 $-1 #
face $-1 $-1 $273 $55 $-1 $274 forward single #
loop $-1 $275 $276 $109 #
cone-surface $-1 44.042027070233701 34.026252578560339 10.49647296288037 0 -0.80901700255871778 -0.5877852410284794 0.25 0 0 1 I I -0.70710678118654746 0.70710678118654746 0.25 forward I I I I #
loop $-1 $-1 $277 $69 #
coedge $-1 $175 $175 $278 $279 reversed $110 $-1 #
face $-1 $280 $281 $42 $-1 $282 reversed single #
loop $-1 $-1 $283 $112 #
plane-surface $-1 0 -36.858159582585323 0 0 1 0 0 0 1 forward_v I I I I #
coedge $-1 $284 $285 $286 $287 forward $113 $-1 #
coedge $-1 $288 $115 $289 $290 forward $71 $-1 #
coedge $-1 $115 $288 $291 $292 forward $71 $-1 #
coedge $-1 $293 $294 $115 $183 reversed $295 $-1 #
edge $-1 $296 -36.858159582585323 $297 36.858159582585323 $182 $298 forward 7 unknown #
face $-1 $299 $300 $43 $-1 $301 reversed single #
loop $-1 $-1 $302 $116 #
plane-surface $-1 -53.926206244087041 0 0 1 0 0 0 0 -1 forward_v I I I I #
coedge $-1 $303 $304 $305 $306 reversed $117 $-1 #
coedge $-1 $307 $119 $308 $309 reversed $74 $-1 #
coedge $-1 $119 $307 $303 $310 forward $74 $-1 #
coedge $-1 $305 $311 $119 $191 forward $312 $-1 #
edge $-1 $313 -20.691130147671164 $314 -11.642928722157155 $190 $315 forward 7 unknown #
face $-1 $316 $317 $44 $-1 $318 forward single #
loop $-1 $-1 $319 $120 #
plane-surface $-1 -32.082114636902929 80.783230624262188 132.26387696946458 -1 0 0 0 0.80901700255871778 0.5877852410284794 forward_v I I I I #
coedge $-1 $320 $321 $322 $323 reversed $121 $-1 #
coedge $-1 $197 $123 $324 $325 reversed $77 $-1 #
coedge $-1 $123 $196 $320 $326 reversed $77 $-1 #
coedge $-1 $322 $327 $123 $199 forward $317 $-1 #
edge $-1 $328 3.5334557295457714 $329 6.6927785666905564 $198 $330 forward 7 unknown #
loop $-1 $-1 $205 $124 #
plane-surface $-1 -40.421158040142316 -6.4712048456468239 68.869820699600183 0 0.80901700255871778 0.5877852410284794 1 0 0 forward_v I I I I #
loop $-1 $-1 $331 $79 #
coedge $-1 $203 $203 $204 $332 reversed $125 $-1 #
coedge $-1 $204 $204 $203 $332 forward $127 $-1 #
coedge $-1 $205 $205 $128 $206 forward $200 $-1 #
edge $-1 $333 -2.8742057713725365e-015 $333 6.2831853071795978 $205 $334 forward 7 unknown #
loop $-1 $-1 $212 $129 #
plane-surface $-1 -40.421158040142316 -6.4712048456468239 68.869820699600183 0 0.80901700255871778 0.5877852410284794 1 0 0 forward_v I I I I #
loop $-1 $-1 $335 $82 #
coedge $-1 $210 $210 $211 $336 reversed $130 $-1 #
coedge $-1 $211 $211 $210 $336 forward $132 $-1 #
coedge $-1 $212 $212 $133 $213 forward $207 $-1 #
edge $-1 $337 -2.8742057713725365e-015 $337 6.2831853071795978 $212 $338 forward 7 unknown #
face $-1 $339 $340 $47 $-1 $341 forward single #
loop $-1 $-1 $342 $134 #
plane-surface $-1 -5.1190115148594053 80.783230624262188 132.26387696946458 -1 0 0 0 0.80901700255871778 0.5877852410284794 forward_v I I I I #
coedge $-1 $343 $344 $345 $346 reversed $135 $-1 #
coedge $-1 $219 $137 $347 $348 reversed $86 $-1 #
coedge $-1 $137 $218 $343 $349 reversed $86 $-1 #
coedge $-1 $345 $350 $137 $221 forward $340 $-1 #
edge $-1 $351 3.5334557295457714 $352 6.6927785666905564 $220 $353 forward 7 unknown #
loop $-1 $-1 $227 $138 #
plane-surface $-1 -13.458054918098796 -6.4712048456468239 68.869820699600183 0 0.80901700255871778 0.5877852410284794 1 0 0 forward_v I I I I #
loop $-1 $-1 $354 $88 #
coedge $-1 $225 $225 $226 $355 reversed $139 $-1 #
coedge $-1 $226 $226 $225 $355 forward $141 $-1 #
coedge $-1 $227 $227 $142 $228 forward $222 $-1 #
edge $-1 $356 -2.8742057713725365e-015 $356 6.2831853071795978 $227 $357 forward 7 unknown #
loop $-1 $-1 $234 $143 #
plane-surface $-1 -13.458054918098796 -6.4712048456468239 68.869820699600183 0 0.80901700255871778 0.5877852410284794 1 0 0 forward_v I I I I #
loop $-1 $-1 $358 $91 #
coedge $-1 $232 $232 $233 $359 reversed $144 $-1 #
coedge $-1 $233 $233 $232 $359 forward $146 $-1 #
coedge $-1 $234 $234 $147 $235 forward $229 $-1 #
edge $-1 $360 -2.8742057713725365e-015 $360 6.2831853071795978 $234 $361 forward 7 unknown #
face $-1 $362 $363 $50 $-1 $364 forward single #
loop $-1 $-1 $365 $148 #
plane-surface $-1 21.844091607184115 80.783230624262188 132.26387696946458 -1 0 0 0 0.80901700255871778 0.5877852410284794 forward_v I I I I #
coedge $-1 $366 $367 $368 $369 reversed $149 $-1 #
coedge $-1 $241 $151 $370 $371 reversed $95 $-1 #
coedge $-1 $151 $240 $366 $372 reversed $95 $-1 #
coedge $-1 $368 $373 $151 $243 forward $363 $-1 #
edge $-1 $374 3.5334557295457714 $375 6.6927785666905564 $242 $376 forward 7 unknown #
loop $-1 $-1 $249 $152 #
plane-surface $-1 13.505048203944725 -6.4712048456468239 68.869820699600183 0 0.80901700255871778 0.5877852410284794 1 0 0 forward_v I I I I #
loop $-1 $-1 $377 $97 #
coedge $-1 $247 $247 $248 $378 reversed $153 $-1 #
coedge $-1 $248 $248 $247 $378 forward $155 $-1 #
coedge $-1 $249 $249 $156 $250 forward $244 $-1 #
edge $-1 $379 -2.8742057713725365e-015 $379 6.2831853071795978 $249 $380 forward 7 unknown #
loop $-1 $-1 $256 $157 #
plane-surface $-1 13.505048203944725 -6.4712048456468239 68.869820699600183 0 0.80901700255871778 0.5877852410284794 1 0 0 forward_v I I I I #
loop $-1 $-1 $381 $100 #
coedge $-1 $254 $254 $255 $382 reversed $158 $-1 #
coedge $-1 $255 $255 $254 $382 forward $160 $-1 #
coedge $-1 $256 $256 $161 $257 forward $251 $-1 #
edge $-1 $383 -2.8742057713725365e-015 $383 6.2831853071795978 $256 $384 forward 7 unknown #
face $-1 $385 $386 $53 $-1 $387 forward single #
loop $-1 $-1 $388 $162 #
plane-surface $-1 48.807194729227632 80.783230624262188 132.26387696946458 -1 0 0 0 0.80901700255871778 0.5877852410284794 forward_v I I I I #
coedge $-1 $389 $390 $391 $392 reversed $163 $-1 #
coedge $-1 $263 $165 $393 $394 reversed $104 $-1 #
coedge $-1 $165 $262 $389 $395 reversed $104 $-1 #
coedge $-1 $391 $396 $165 $265 forward $386 $-1 #
edge $-1 $397 3.5334557295457714 $398 6.6927785666905564 $264 $399 forward 7 unknown #
loop $-1 $-1 $271 $166 #
plane-surface $-1 40.468151325988245 -6.4712048456468239 68.869820699600183 0 0.80901700255871778 0.5877852410284794 1 0 0 forward_v I I I I #
loop $-1 $-1 $400 $106 #
coedge $-1 $269 $269 $270 $401 reversed $167 $-1 #
coedge $-1 $270 $270 $269 $401 forward $169 $-1 #
coedge $-1 $271 $271 $170 $272 forward $266 $-1 #
edge $-1 $402 -2.8742057713725365e-015 $402 6.2831853071795978 $271 $403 forward 7 unknown #
loop $-1 $-1 $278 $171 #
plane-surface $-1 40.468151325988245 -6.4712048456468239 68.869820699600183 0 0.80901700255871778 0.5877852410284794 1 0 0 forward_v I I I I #
loop $-1 $-1 $404 $109 #
coedge $-1 $276 $276 $277 $405 reversed $172 $-1 #
coedge $-1 $277 $277 $276 $405 forward $174 $-1 #
coedge $-1 $278 $278 $175 $279 forward $273 $-1 #
edge $-1 $406 -2.8742057713725365e-015 $406 6.2831853071795978 $278 $407 forward 7 unknown #
face $-1 $408 $409 $42 $-1 $410 reversed single #
loop $-1 $-1 $411 $176 #
plane-surface $-1 -53.926206244087041 0 0 1 0 0 0 0 -1 forward_v I I I I #
coedge $-1 $412 $291 $413 $414 forward $177 $-1 #
coedge $-1 $415 $179 $412 $416 forward $113 $-1 #
coedge $-1 $179 $415 $417 $418 forward $113 $-1 #
coedge $-1 $294 $293 $179 $287 reversed $295 $-1 #
edge $-1 $419 -36.858159582585323 $420 36.858159582585323 $286 $421 forward 7 unknown #
coedge $-1 $181 $180 $422 $423 forward $71 $-1 #
coedge $-1 $424 $425 $180 $290 reversed $409 $-1 #
edge $-1 $297 -53.926206244087041 $426 53.926206244087041 $289 $427 forward 7 unknown #
coedge $-1 $283 $428 $181 $292 reversed $177 $-1 #
edge $-1 $429 -53.926206244087041 $296 53.926206244087041 $291 $430 forward 7 unknown #
coedge $-1 $286 $182 $428 $431 forward $295 $-1 #
coedge $-1 $182 $286 $424 $432 reversed $295 $-1 #
loop $-1 $-1 $293 $408 #
vertex $-1 $183 $433 #
vertex $-1 $183 $434 #
straight-curve $-1 53.926206244087041 0 13.580500090228304 0 1 0 I I #
face $-1 $435 $436 $43 $-1 $437 forward single #
loop $-1 $-1 $308 $184 #
plane-surface $-1 0 -36.858159582585323 0 0 1 0 0 0 1 forward_v I I I I #
coedge $-1 $438 $439 $440 $441 forward $185 $-1 #
coedge $-1 $440 $187 $189 $310 reversed $117 $-1 #
coedge $-1 $187 $440 $442 $443 reversed $117 $-1 #
coedge $-1 $444 $190 $187 $306 forward $312 $-1 #
edge $-1 $314 3.4657898763851334 $445 7.8984034346904926 $305 $446 forward 7 unknown #
coedge $-1 $189 $188 $438 $447 reversed $74 $-1 #
coedge $-1 $448 $449 $188 $309 forward $300 $-1 #
edge $-1 $450 -53.926206244087041 $313 53.926206244087041 $308 $451 forward 7 unknown #
edge $-1 $452 -53.926206244087041 $314 53.926206244087041 $303 $453 forward 7 unknown #
coedge $-1 $190 $444 $448 $454 forward $312 $-1 #
loop $-1 $-1 $305 $435 #
vertex $-1 $309 $455 #
vertex $-1 $191 $456 #
straight-curve $-1 53.926206244087041 -16.167029434914159 9.1478865319229463 0 1 0 I I #
face $-1 $-1 $457 $44 $-1 $458 reversed single #
loop $-1 $-1 $198 $192 #
plane-surface $-1 0 0 13.580500090228304 0 0 1 1 0 0 forward_v I I I I #
coedge $-1 $459 $460 $461 $462 reversed $193 $-1 #
coedge $-1 $463 $195 $197 $326 forward $121 $-1 #
coedge $-1 $195 $463 $459 $464 forward $121 $-1 #
coedge $-1 $461 $198 $195 $323 forward $317 $-1 #
edge $-1 $329 -28.549622423310545 $465 -11.871535616831771 $322 $466 forward 7 unknown #
coedge $-1 $467 $468 $196 $325 forward $457 $-1 #
edge $-1 $469 -56.899873355800224 $328 -52.551438394503982 $324 $470 forward 7 unknown #
edge $-1 $329 68.341358011643308 $469 73.716319165170646 $197 $471 forward 7 unknown #
coedge $-1 $198 $461 $467 $472 forward $317 $-1 #
vertex $-1 $325 $473 #
vertex $-1 $199 $474 #
straight-curve $-1 -48.760201443381703 40.391615312131094 13.580500090228306 0 -1 0 I I #
coedge $-1 $331 $331 $-1 $475 reversed $202 $-1 #
edge $-1 $476 0 $476 6.2831853071796004 $203 $477 forward 7 unknown #
vertex $-1 $206 $478 #
ellipse-curve $-1 -43.995033784387772 35.278498164012923 11.406282609580193 0 0.80901700255871778 0.5877852410284794 0.5 0 0 1 I I #
coedge $-1 $335 $335 $-1 $479 reversed $209 $-1 #
edge $-1 $480 0 $480 6.2831853071796004 $210 $481 forward 7 unknown #
vertex $-1 $213 $482 #
ellipse-curve $-1 -36.847282295896868 35.278498164012923 11.406282609580193 0 0.80901700255871778 0.5877852410284794 0.5 0 0 1 I I #
face $-1 $-1 $483 $47 $-1 $484 reversed single #
loop $-1 $-1 $220 $214 #
plane-surface $-1 0 0 13.580500090228304 0 0 1 1 0 0 forward_v I I I I #
coedge $-1 $485 $486 $487 $488 reversed $215 $-1 #
coedge $-1 $489 $217 $219 $349 forward $135 $-1 #
coedge $-1 $217 $489 $485 $490 forward $135 $-1 #
coedge $-1 $487 $220 $217 $346 forward $340 $-1 #
edge $-1 $352 -15.068070862288788 $491 1.6100159441899926 $345 $492 forward 7 unknown #
coedge $-1 $493 $494 $218 $348 forward $483 $-1 #
edge $-1 $495 -56.899873355800224 $351 -52.551438394503982 $347 $496 forward 7 unknown #
edge $-1 $352 68.341358011643308 $495 73.716319165170646 $219 $497 forward 7 unknown #
coedge $-1 $220 $487 $493 $498 forward $340 $-1 #
vertex $-1 $221 $499 #
vertex $-1 $221 $500 #
straight-curve $-1 -21.797098321338186 40.391615312131094 13.580500090228306 0 -1 0 I I #
coedge $-1 $354 $354 $-1 $501 reversed $224 $-1 #
edge $-1 $502 0 $502 6.2831853071796004 $225 $503 forward 7 unknown #
vertex $-1 $228 $504 #
ellipse-curve $-1 -17.031930662344251 35.278498164012923 11.406282609580193 0 0.80901700255871778 0.5877852410284794 0.5 0 0 1 I I #
coedge $-1 $358 $358 $-1 $505 reversed $231 $-1 #
edge $-1 $506 0 $506 6.2831853071796004 $232 $507 forward 7 unknown #
vertex $-1 $235 $508 #
ellipse-curve $-1 -9.8841791738533473 35.278498164012923 11.406282609580193 0 0.80901700255871778 0.5877852410284794 0.5 0 0 1 I I #
face $-1 $-1 $509 $50 $-1 $510 reversed single #
loop $-1 $-1 $242 $236 #
plane-surface $-1 0 0 13.580500090228304 0 0 1 1 0 0 forward_v I I I I #
coedge $-1 $511 $512 $513 $514 reversed $237 $-1 #
coedge $-1 $515 $239 $241 $372 forward $149 $-1 #
coedge $-1 $239 $515 $511 $516 forward $149 $-1 #
coedge $-1 $513 $242 $239 $369 forward $363 $-1 #
edge $-1 $375 -1.5865193012670282 $517 15.091567505211753 $368 $518 forward 7 unknown #
coedge $-1 $519 $520 $240 $371 forward $509 $-1 #
edge $-1 $521 -56.899873355800224 $374 -52.551438394503982 $370 $522 forward 7 unknown #
edge $-1 $375 68.341358011643308 $521 73.716319165170646 $241 $523 forward 7 unknown #
coedge $-1 $242 $513 $519 $524 forward $363 $-1 #
vertex $-1 $243 $525 #
vertex $-1 $243 $526 #
straight-curve $-1 5.1660048007053341 40.391615312131094 13.580500090228306 0 -1 0 I I #
coedge $-1 $377 $377 $-1 $527 reversed $246 $-1 #
edge $-1 $528 0 $528 6.2831853071796004 $247 $529 forward 7 unknown #
vertex $-1 $250 $530 #
ellipse-curve $-1 9.931172459699269 35.278498164012923 11.406282609580193 0 0.80901700255871778 0.5877852410284794 0.5 0 0 1 I I #
coedge $-1 $381 $381 $-1 $531 reversed $253 $-1 #
edge $-1 $532 0 $532 6.2831853071796004 $254 $533 forward 7 unknown #
vertex $-1 $257 $534 #
ellipse-curve $-1 17.07892394819018 35.278498164012923 11.406282609580193 0 0.80901700255871778 0.5877852410284794 0.5 0 0 1 I I #
face $-1 $-1 $535 $53 $-1 $536 reversed single #
loop $-1 $-1 $264 $258 #
plane-surface $-1 0 0 13.580500090228304 0 0 1 1 0 0 forward_v I I I I #
coedge $-1 $537 $538 $539 $540 reversed $259 $-1 #
coedge $-1 $541 $261 $263 $395 forward $163 $-1 #
coedge $-1 $261 $541 $537 $542 forward $163 $-1 #
coedge $-1 $539 $264 $261 $392 forward $386 $-1 #
edge $-1 $398 11.895032259754736 $543 28.573119066233509 $391 $544 forward 7 unknown #
coedge $-1 $545 $546 $262 $394 forward $535 $-1 #
edge $-1 $547 -56.899873355800224 $397 -52.551438394503982 $393 $548 forward 7 unknown #
edge $-1 $398 68.341358011643308 $547 73.716319165170646 $263 $549 forward 7 unknown #
coedge $-1 $264 $539 $545 $550 forward $386 $-1 #
vertex $-1 $265 $551 #
vertex $-1 $265 $552 #
straight-curve $-1 32.129107922748858 40.391615312131094 13.580500090228306 0 -1 0 I I #
coedge $-1 $400 $400 $-1 $553 reversed $268 $-1 #
edge $-1 $554 0 $554 6.2831853071796004 $269 $555 forward 7 unknown #
vertex $-1 $272 $556 #
ellipse-curve $-1 36.894275581742789 35.278498164012923 11.406282609580193 0 0.80901700255871778 0.5877852410284794 0.5 0 0 1 I I #
coedge $-1 $404 $404 $-1 $557 reversed $275 $-1 #
edge $-1 $558 0 $558 6.2831853071796004 $276 $559 forward 7 unknown #
vertex $-1 $279 $560 #
ellipse-curve $-1 44.042027070233701 35.278498164012923 11.406282609580193 0 0.80901700255871778 0.5877852410284794 0.5 0 0 1 I I #
face $-1 $-1 $295 $42 $-1 $561 reversed single #
loop $-1 $-1 $424 $280 #
plane-surface $-1 0 36.858159582585323 0 0 -1 0 0 0 -1 forward_v I I I I #
coedge $-1 $562 $422 $425 $563 forward $281 $-1 #
coedge $-1 $428 $283 $284 $416 reversed $177 $-1 #
coedge $-1 $422 $562 $283 $414 reversed $281 $-1 #
edge $-1 $429 -13.580500090228304 $564 13.580500090228304 $413 $565 forward 7 unknown #
coedge $-1 $285 $284 $562 $566 forward $113 $-1 #
edge $-1 $420 -53.926206244087041 $564 53.926206244087041 $412 $567 forward 7 unknown #
coedge $-1 $425 $424 $285 $418 reversed $409 $-1 #
edge $-1 $568 -53.926206244087041 $419 53.926206244087041 $417 $569 forward 7 unknown #
vertex $-1 $287 $570 #
vertex $-1 $431 $571 #
straight-curve $-1 53.926206244087041 0 -13.580500090228304 0 -1 0 I I #
coedge $-1 $411 $413 $288 $423 reversed $281 $-1 #
edge $-1 $426 -36.858159582585323 $429 36.858159582585323 $422 $572 forward 7 unknown #
coedge $-1 $417 $289 $294 $432 forward $409 $-1 #
coedge $-1 $289 $417 $411 $563 reversed $409 $-1 #
vertex $-1 $290 $573 #
straight-curve $-1 0 36.858159582585323 13.580500090228304 -1 0 0 I I #
coedge $-1 $291 $412 $293 $431 reversed $177 $-1 #
vertex $-1 $423 $574 #
straight-curve $-1 0 -36.858159582585323 13.580500090228304 1 0 0 I I #
edge $-1 $296 -13.580500090228304 $420 13.580500090228304 $293 $575 forward 7 unknown #
edge $-1 $297 -13.580500090228304 $419 13.580500090228304 $294 $576 forward 7 unknown #
point $-1 53.926206244087041 -36.858159582585323 13.580500090228304 #
point $-1 53.926206244087041 36.858159582585323 13.580500090228304 #
face $-1 $-1 $312 $43 $-1 $577 reversed single #
loop $-1 $-1 $442 $299 #
plane-surface $-1 0 0 13.580500090228304 0 0 1 1 0 0 forward_v I I I I #
coedge $-1 $578 $302 $307 $447 forward $185 $-1 #
coedge $-1 $302 $578 $579 $580 reversed $185 $-1 #
coedge $-1 $304 $303 $302 $441 reversed $117 $-1 #
edge $-1 $581 -7.8984034346904926 $452 -3.4657898763851334 $302 $582 forward 7 unknown #
coedge $-1 $579 $583 $304 $443 forward $436 $-1 #
edge $-1 $445 -53.926206244087041 $581 53.926206244087041 $442 $584 forward 7 unknown #
coedge $-1 $311 $305 $583 $585 reversed $312 $-1 #
vertex $-1 $306 $586 #
straight-curve $-1 53.926206244087041 -27.809958157071314 5.682096655537813 0 0 1 I I #
edge $-1 $452 11.642928722157155 $450 20.691130147671164 $438 $587 forward 7 unknown #
coedge $-1 $588 $308 $311 $454 reversed $300 $-1 #
coedge $-1 $308 $588 $578 $589 forward $300 $-1 #
vertex $-1 $309 $590 #
straight-curve $-1 0 -36.858159582585323 9.1478865319229463 1 0 0 I I #
vertex $-1 $447 $591 #
straight-curve $-1 0 -27.809958157071314 9.1478865319229463 1 0 0 I I #
edge $-1 $592 -13.580500090228304 $313 -9.1478865319229463 $311 $593 forward 7 unknown #
point $-1 53.926206244087041 -36.858159582585323 9.1478865319229463 #
point $-1 53.926206244087041 -27.809958157071314 9.1478865319229463 #
loop $-1 $-1 $324 $316 #
plane-surface $-1 0 36.858159582585323 0 0 -1 0 0 0 -1 forward_v I I I I #
coedge $-1 $460 $319 $321 $464 reversed $193 $-1 #
coedge $-1 $319 $459 $594 $595 reversed $193 $-1 #
coedge $-1 $327 $322 $319 $462 forward $317 $-1 #
edge $-1 $465 -6.6927785666905564 $596 -3.5334557295457714 $461 $597 forward 7 unknown #
coedge $-1 $321 $320 $468 $598 reversed $121 $-1 #
edge $-1 $599 -73.716319165170646 $465 -68.341358011643308 $459 $600 forward 7 unknown #
vertex $-1 $323 $601 #
straight-curve $-1 -20.210579020071158 33.698836745440531 13.580500090228306 1 0 0 I I #
coedge $-1 $594 $324 $327 $472 reversed $457 $-1 #
coedge $-1 $324 $594 $463 $598 forward $457 $-1 #
vertex $-1 $325 $602 #
straight-curve $-1 -48.760201443381703 36.858159582585323 66.131938484732288 0 0 1 I I #
straight-curve $-1 -48.760201443381703 -6.4712048456468239 68.869820699600183 0 0.5877852410284794 -0.80901700255871778 I I #
edge $-1 $596 32.082114636902929 $328 48.760201443381703 $467 $603 forward 7 unknown #
point $-1 -48.760201443381703 36.858159582585323 13.580500090228304 #
point $-1 -48.760201443381703 33.698836745440538 13.580500090228298 #
edge $-1 $604 1 $604 0 $331 $-1 forward 7 unknown #
vertex $-1 $332 $605 #
ellipse-curve $-1 -43.995033784387772 34.228506829200015 10.643419273137489 0 0.80901700255871778 0.5877852410284794 0.5 0 0 1 I I #
point $-1 -43.495033784387772 35.278498164012923 11.406282609580195 #
edge $-1 $606 1 $606 0 $335 $-1 forward 7 unknown #
vertex $-1 $336 $607 #
ellipse-curve $-1 -36.847282295896868 34.228506829200015 10.643419273137489 0 0.80901700255871778 0.5877852410284794 0.5 0 0 1 I I #
point $-1 -36.347282295896868 35.278498164012923 11.406282609580195 #
loop $-1 $-1 $347 $339 #
plane-surface $-1 0 36.858159582585323 0 0 -1 0 0 0 -1 forward_v I I I I #
coedge $-1 $486 $342 $344 $490 reversed $215 $-1 #
coedge $-1 $342 $485 $608 $609 reversed $215 $-1 #
coedge $-1 $350 $345 $342 $488 forward $340 $-1 #
edge $-1 $491 -6.6927785666905564 $610 -3.5334557295457714 $487 $611 forward 7 unknown #
coedge $-1 $344 $343 $494 $612 reversed $135 $-1 #
edge $-1 $613 -73.716319165170646 $491 -68.341358011643308 $485 $614 forward 7 unknown #
vertex $-1 $346 $615 #
straight-curve $-1 -6.7290274590493979 33.698836745440531 13.580500090228306 1 0 0 I I #
coedge $-1 $608 $347 $350 $498 reversed $483 $-1 #
coedge $-1 $347 $608 $489 $612 forward $483 $-1 #
vertex $-1 $348 $616 #
straight-curve $-1 -21.797098321338186 36.858159582585323 66.131938484732288 0 0 1 I I #
straight-curve $-1 -21.797098321338186 -6.4712048456468239 68.869820699600183 0 0.5877852410284794 -0.80901700255871778 I I #
edge $-1 $610 5.1190115148594053 $351 21.797098321338186 $493 $617 forward 7 unknown #
point $-1 -21.797098321338186 36.858159582585323 13.580500090228304 #
point $-1 -21.797098321338186 33.698836745440538 13.580500090228298 #
edge $-1 $618 1 $618 0 $354 $-1 forward 7 unknown #
vertex $-1 $355 $619 #
ellipse-curve $-1 -17.031930662344251 34.228506829200015 10.643419273137489 0 0.80901700255871778 0.5877852410284794 0.5 0 0 1 I I #
point $-1 -16.531930662344251 35.278498164012923 11.406282609580195 #
edge $-1 $620 1 $620 0 $358 $-1 forward 7 unknown #
vertex $-1 $359 $621 #
ellipse-curve $-1 -9.8841791738533473 34.228506829200015 10.643419273137489 0 0.80901700255871778 0.5877852410284794 0.5 0 0 1 I I #
point $-1 -9.3841791738533473 35.278498164012923 11.406282609580195 #
loop $-1 $-1 $370 $362 #
plane-surface $-1 0 36.858159582585323 0 0 -1 0 0 0 -1 forward_v I I I I #
coedge $-1 $512 $365 $367 $516 reversed $237 $-1 #
coedge $-1 $365 $511 $622 $623 reversed $237 $-1 #
coedge $-1 $373 $368 $365 $514 forward $363 $-1 #
edge $-1 $517 -6.6927785666905564 $624 -3.5334557295457714 $513 $625 forward 7 unknown #
coedge $-1 $367 $366 $520 $626 reversed $149 $-1 #
edge $-1 $627 -73.716319165170646 $517 -68.341358011643308 $511 $628 forward 7 unknown #
vertex $-1 $369 $629 #
straight-curve $-1 6.7525241019723623 33.698836745440531 13.580500090228306 1 0 0 I I #
coedge $-1 $622 $370 $373 $524 reversed $509 $-1 #
coedge $-1 $370 $622 $515 $626 forward $509 $-1 #
vertex $-1 $371 $630 #
straight-curve $-1 5.1660048007053341 36.858159582585323 66.131938484732288 0 0 1 I I #
straight-curve $-1 5.1660048007053341 -6.4712048456468239 68.869820699600183 0 0.5877852410284794 -0.80901700255871778 I I #
edge $-1 $624 -21.844091607184115 $374 -5.1660048007053341 $519 $631 forward 7 unknown #
point $-1 5.1660048007053341 36.858159582585323 13.580500090228304 #
point $-1 5.1660048007053341 33.698836745440538 13.580500090228298 #
edge $-1 $632 1 $632 0 $377 $-1 forward 7 unknown #
vertex $-1 $378 $633 #
ellipse-curve $-1 9.931172459699269 34.228506829200015 10.643419273137489 0 0.80901700255871778 0.5877852410284794 0.5 0 0 1 I I #
point $-1 10.431172459699269 35.278498164012923 11.406282609580195 #
edge $-1 $634 1 $634 0 $381 $-1 forward 7 unknown #
vertex $-1 $382 $635 #
ellipse-curve $-1 17.07892394819018 34.228506829200015 10.643419273137489 0 0.80901700255871778 0.5877852410284794 0.5 0 0 1 I I #
point $-1 17.57892394819018 35.278498164012923 11.406282609580195 #
loop $-1 $-1 $393 $385 #
plane-surface $-1 0 36.858159582585323 0 0 -1 0 0 0 -1 forward_v I I I I #
coedge $-1 $538 $388 $390 $542 reversed $259 $-1 #
coedge $-1 $388 $537 $636 $637 reversed $259 $-1 #
coedge $-1 $396 $391 $388 $540 forward $386 $-1 #
edge $-1 $543 -6.6927785666905564 $638 -3.5334557295457714 $539 $639 forward 7 unknown #
coedge $-1 $390 $389 $546 $640 reversed $163 $-1 #
edge $-1 $641 -73.716319165170646 $543 -68.341358011643308 $537 $642 forward 7 unknown #
vertex $-1 $392 $643 #
straight-curve $-1 20.234075662994123 33.698836745440531 13.580500090228306 1 0 0 I I #
coedge $-1 $636 $393 $396 $550 reversed $535 $-1 #
coedge $-1 $393 $636 $541 $640 forward $535 $-1 #
vertex $-1 $394 $644 #
straight-curve $-1 32.129107922748858 36.858159582585323 66.131938484732288 0 0 1 I I #
straight-curve $-1 32.129107922748858 -6.4712048456468239 68.869820699600183 0 0.5877852410284794 -0.80901700255871778 I I #
edge $-1 $638 -48.807194729227632 $397 -32.129107922748858 $545 $645 forward 7 unknown #
point $-1 32.129107922748858 36.858159582585323 13.580500090228304 #
point $-1 32.129107922748858 33.698836745440538 13.580500090228298 #
edge $-1 $646 1 $646 0 $400 $-1 forward 7 unknown #
vertex $-1 $401 $647 #
ellipse-curve $-1 36.894275581742789 34.228506829200015 10.643419273137489 0 0.80901700255871778 0.5877852410284794 0.5 0 0 1 I I #
point $-1 37.394275581742789 35.278498164012923 11.406282609580195 #
edge $-1 $648 1 $648 0 $404 $-1 forward 7 unknown #
vertex $-1 $405 $649 #
ellipse-curve $-1 44.042027070233701 34.228506829200015 10.643419273137489 0 0.80901700255871778 0.5877852410284794 0.5 0 0 1 I I #
point $-1 44.542027070233701 35.278498164012923 11.406282609580195 #
plane-surface $-1 53.926206244087041 0 0 -1 0 0 0 0 1 forward_v I I I I #
coedge $-1 $413 $411 $415 $566 reversed $281 $-1 #
edge $-1 $426 -13.580500090228304 $568 13.580500090228304 $425 $650 forward 7 unknown #
vertex $-1 $566 $651 #
straight-curve $-1 -53.926206244087041 -36.858159582585323 0 0 0 -1 I I #
edge $-1 $564 -36.858159582585323 $568 36.858159582585323 $562 $652 forward 7 unknown #
straight-curve $-1 0 -36.858159582585323 -13.580500090228304 -1 0 0 I I #
vertex $-1 $418 $653 #
straight-curve $-1 0 36.858159582585323 -13.580500090228304 1 0 0 I I #
point $-1 53.926206244087041 36.858159582585323 -13.580500090228304 #
point $-1 53.926206244087041 -36.858159582585323 -13.580500090228304 #
straight-curve $-1 -53.926206244087041 0 13.580500090228304 0 -1 0 I I #
point $-1 -53.926206244087041 36.858159582585323 13.580500090228304 #
point $-1 -53.926206244087041 -36.858159582585323 13.580500090228304 #
straight-curve $-1 53.926206244087041 -36.858159582585323 0 0 0 -1 I I #
straight-curve $-1 53.926206244087041 36.858159582585323 0 0 0 -1 I I #
plane-surface $-1 53.926206244087041 0 0 -1 0 0 0 0 1 forward_v I I I I #
coedge $-1 $439 $438 $449 $589 reversed $185 $-1 #
coedge $-1 $654 $442 $439 $580 forward $436 $-1 #
edge $-1 $581 27.809958157071314 $655 36.858159582585323 $439 $656 forward 7 unknown #
vertex $-1 $580 $657 #
straight-curve $-1 -53.926206244087041 -27.809958157071314 5.682096655537813 0 0 -1 I I #
coedge $-1 $442 $654 $444 $585 forward $436 $-1 #
straight-curve $-1 0 -27.809958157071314 13.580500090228304 -1 0 0 I I #
edge $-1 $592 -36.858159582585323 $445 -27.809958157071314 $444 $658 forward 7 unknown #
point $-1 53.926206244087041 -27.809958157071314 13.580500090228306 #
straight-curve $-1 -53.926206244087041 -16.167029434914159 9.1478865319229463 0 -1 0 I I #
coedge $-1 $449 $448 $654 $659 reversed $300 $-1 #
edge $-1 $655 -13.580500090228304 $450 -9.1478865319229463 $578 $660 forward 7 unknown #
point $-1 -53.926206244087041 -36.858159582585323 9.1478865319229463 #
point $-1 -53.926206244087041 -27.809958157071314 9.1478865319229463 #
vertex $-1 $585 $661 #
straight-curve $-1 53.926206244087041 -36.858159582585323 0 0 0 -1 I I #
coedge $-1 $468 $467 $460 $595 forward $457 $-1 #
edge $-1 $596 52.551438394503982 $599 56.899873355800224 $594 $662 forward 7 unknown #
vertex $-1 $472 $663 #
straight-curve $-1 -32.082114636902929 40.391615312131094 13.580500090228306 0 1 0 I I #
edge $-1 $599 11.871535616831771 $469 28.549622423310545 $468 $664 forward 7 unknown #
vertex $-1 $598 $665 #
straight-curve $-1 -32.082114636902929 -6.4712048456468239 68.869820699600183 0 -0.5877852410284794 0.80901700255871778 I I #
point $-1 -32.082114636902929 33.698836745440538 13.580500090228298 #
point $-1 -48.760201443381703 36.858159582585323 9.2320651289320637 #
straight-curve $-1 0 36.858159582585323 13.580500090228304 -1 0 0 I I #
vertex $-1 $475 $666 #
point $-1 -43.495033784387772 34.228506829200015 10.643419273137489 #
vertex $-1 $479 $667 #
point $-1 -36.347282295896868 34.228506829200015 10.643419273137489 #
coedge $-1 $494 $493 $486 $609 forward $483 $-1 #
edge $-1 $610 52.551438394503982 $613 56.899873355800224 $608 $668 forward 7 unknown #
vertex $-1 $498 $669 #
straight-curve $-1 -5.1190115148594053 40.391615312131094 13.580500090228306 0 1 0 I I #
edge $-1 $613 -1.6100159441899926 $495 15.068070862288788 $494 $670 forward 7 unknown #
vertex $-1 $612 $671 #
straight-curve $-1 -5.1190115148594053 -6.4712048456468239 68.869820699600183 0 -0.5877852410284794 0.80901700255871778 I I #
point $-1 -5.1190115148594053 33.698836745440538 13.580500090228298 #
point $-1 -21.797098321338186 36.858159582585323 9.2320651289320637 #
straight-curve $-1 0 36.858159582585323 13.580500090228304 -1 0 0 I I #
vertex $-1 $501 $672 #
point $-1 -16.531930662344251 34.228506829200015 10.643419273137489 #
vertex $-1 $505 $673 #
point $-1 -9.3841791738533473 34.228506829200015 10.643419273137489 #
coedge $-1 $520 $519 $512 $623 forward $509 $-1 #
edge $-1 $624 52.551438394503982 $627 56.899873355800224 $622 $674 forward 7 unknown #
vertex $-1 $524 $675 #
straight-curve $-1 21.844091607184115 40.391615312131094 13.580500090228306 0 1 0 I I #
edge $-1 $627 -15.091567505211753 $521 1.5865193012670282 $520 $676 forward 7 unknown #
vertex $-1 $626 $677 #
straight-curve $-1 21.844091607184115 -6.4712048456468239 68.869820699600183 0 -0.5877852410284794 0.80901700255871778 I I #
point $-1 21.844091607184115 33.698836745440538 13.580500090228298 #
point $-1 5.1660048007053341 36.858159582585323 9.2320651289320637 #
straight-curve $-1 0 36.858159582585323 13.580500090228304 -1 0 0 I I #
vertex $-1 $527 $678 #
point $-1 10.431172459699269 34.228506829200015 10.643419273137489 #
vertex $-1 $531 $679 #
point $-1 17.57892394819018 34.228506829200015 10.643419273137489 #
coedge $-1 $546 $545 $538 $637 forward $535 $-1 #
edge $-1 $638 52.551438394503982 $641 56.899873355800224 $636 $680 forward 7 unknown #
vertex $-1 $550 $681 #
straight-curve $-1 48.807194729227632 40.391615312131094 13.580500090228306 0 1 0 I I #
edge $-1 $641 -28.573119066233509 $547 -11.895032259754736 $546 $682 forward 7 unknown #
vertex $-1 $640 $683 #
straight-curve $-1 48.807194729227632 -6.4712048456468239 68.869820699600183 0 -0.5877852410284794 0.80901700255871778 I I #
point $-1 48.807194729227632 33.698836745440538 13.580500090228298 #
point $-1 32.129107922748858 36.858159582585323 9.2320651289320637 #
straight-curve $-1 0 36.858159582585323 13.580500090228304 -1 0 0 I I #
vertex $-1 $553 $684 #
point $-1 37.394275581742789 34.228506829200015 10.643419273137489 #
vertex $-1 $557 $685 #
point $-1 44.542027070233701 34.228506829200015 10.643419273137489 #
straight-curve $-1 -53.926206244087041 36.858159582585323 0 0 0 -1 I I #
point $-1 -53.926206244087041 -36.858159582585323 -13.580500090228304 #
straight-curve $-1 -53.926206244087041 0 -13.580500090228304 0 1 0 I I #
point $-1 -53.926206244087041 36.858159582585323 -13.580500090228304 #
coedge $-1 $583 $579 $588 $659 forward $436 $-1 #
vertex $-1 $580 $686 #
straight-curve $-1 -53.926206244087041 0 13.580500090228304 0 -1 0 I I #
point $-1 -53.926206244087041 -27.809958157071314 13.580500090228306 #
straight-curve $-1 53.926206244087041 0 13.580500090228304 0 1 0 I I #
edge $-1 $655 -53.926206244087041 $592 53.926206244087041 $588 $687 forward 7 unknown #
straight-curve $-1 -53.926206244087041 -36.858159582585323 0 0 0 -1 I I #
point $-1 53.926206244087041 -36.858159582585323 13.580500090228304 #
straight-curve $-1 -32.082114636902929 36.858159582585323 66.131938484732288 0 0 -1 I I #
point $-1 -32.082114636902929 36.858159582585323 13.580500090228304 #
straight-curve $-1 -20.210579020071158 36.85815958258533 9.2320651289320637 -1 0 0 I I #
point $-1 -32.082114636902929 36.858159582585323 9.2320651289320637 #
point $-1 -43.995033784387772 33.823998327920663 10.349526652623251 #
point $-1 -36.847282295896868 33.823998327920663 10.349526652623251 #
straight-curve $-1 -5.1190115148594053 36.858159582585323 66.131938484732288 0 0 -1 I I #
point $-1 -5.1190115148594053 36.858159582585323 13.580500090228304 #
straight-curve $-1 -6.7290274590493979 36.85815958258533 9.2320651289320637 -1 0 0 I I #
point $-1 -5.1190115148594053 36.858159582585323 9.2320651289320637 #
point $-1 -17.031930662344251 33.823998327920663 10.349526652623251 #
point $-1 -9.8841791738533473 33.823998327920663 10.349526652623251 #
straight-curve $-1 21.844091607184115 36.858159582585323 66.131938484732288 0 0 -1 I I #
point $-1 21.844091607184115 36.858159582585323 13.580500090228304 #
straight-curve $-1 6.7525241019723623 36.85815958258533 9.2320651289320637 -1 0 0 I I #
point $-1 21.844091607184115 36.858159582585323 9.2320651289320637 #
point $-1 9.931172459699269 33.823998327920663 10.349526652623251 #
point $-1 17.07892394819018 33.823998327920663 10.349526652623251 #
straight-curve $-1 48.807194729227632 36.858159582585323 66.131938484732288 0 0 -1 I I #
point $-1 48.807194729227632 36.858159582585323 13.580500090228304 #
straight-curve $-1 20.234075662994123 36.85815958258533 9.2320651289320637 -1 0 0 I I #
point $-1 48.807194729227632 36.858159582585323 9.2320651289320637 #
point $-1 36.894275581742789 33.823998327920663 10.349526652623251 #
point $-1 44.042027070233701 33.823998327920663 10.349526652623251 #
point $-1 -53.926206244087041 -36.858159582585323 13.580500090228304 #
straight-curve $-1 0 -36.858159582585323 13.580500090228304 1 0 0 I I #
End-of-ACIS-data 