500 0 10 0           
7 Unknown 11 ACIS 5.0 NT 24 Fri Mar 26 18:15:06 1999 
-1 9.9999999999999995e-007 1e-010 
body $-1 $10 $-1 $11 #
body $-1 $12 $-1 $13 #
body $-1 $14 $-1 $15 #
body $-1 $16 $-1 $17 #
body $-1 $18 $-1 $19 #
body $-1 $20 $-1 $21 #
body $-1 $22 $-1 $23 #
body $-1 $24 $-1 $25 #
body $-1 $26 $-1 $27 #
body $-1 $28 $-1 $29 #
lump $-1 $-1 $30 $0 #
transform $-1 1 0 0 0 1 0 0 0 1 50.113834040345466 25.588995112846344 9.523460692210147 1 rotate no_reflect no_shear #
lump $-1 $-1 $31 $1 #
transform $-1 1 0 0 0 1 0 0 0 1 50.113834040345466 25.588995112846344 9.523460692210147 1 rotate no_reflect no_shear #
lump $-1 $-1 $32 $2 #
transform $-1 1 0 0 0 1 0 0 0 1 50.113834040345466 25.588995112846344 9.523460692210147 1 rotate no_reflect no_shear #
lump $-1 $-1 $33 $3 #
transform $-1 1 0 0 0 1 0 0 0 1 50.113834040345466 25.588995112846344 9.523460692210147 1 rotate no_reflect no_shear #
lump $-1 $-1 $34 $4 #
transform $-1 1 0 0 0 1 0 0 0 1 50.113834040345466 25.588995112846344 9.523460692210147 1 rotate no_reflect no_shear #
lump $-1 $-1 $35 $5 #
transform $-1 1 0 0 0 1 0 0 0 1 50.113834040345466 25.588995112846344 9.523460692210147 1 rotate no_reflect no_shear #
lump $-1 $-1 $36 $6 #
transform $-1 1 0 0 0 1 0 0 0 1 50.113834040345466 25.588995112846344 9.523460692210147 1 rotate no_reflect no_shear #
lump $-1 $-1 $37 $7 #
transform $-1 1 0 0 0 1 0 0 0 1 50.113834040345466 25.588995112846344 9.523460692210147 1 rotate no_reflect no_shear #
lump $-1 $-1 $38 $8 #
transform $-1 1 0 0 0 1 0 0 0 1 50.113834040345466 25.588995112846344 9.523460692210147 1 rotate no_reflect no_shear #
lump $-1 $-1 $39 $9 #
transform $-1 1 0 0 0 1 0 0 0 1 50.113834040345466 25.588995112846344 9.523460692210147 1 rotate no_reflect no_shear #
shell $-1 $-1 $-1 $40 $-1 $10 #
shell $-1 $-1 $-1 $41 $-1 $12 #
shell $-1 $-1 $-1 $42 $-1 $14 #
shell $-1 $-1 $-1 $43 $-1 $16 #
shell $-1 $-1 $-1 $44 $-1 $18 #
shell $-1 $-1 $-1 $45 $-1 $20 #
shell $-1 $-1 $-1 $46 $-1 $22 #
shell $-1 $-1 $-1 $47 $-1 $24 #
shell $-1 $-1 $-1 $48 $-1 $26 #
shell $-1 $-1 $-1 $49 $-1 $28 #
face $-1 $50 $51 $30 $-1 $52 forward single #
face $-1 $53 $54 $31 $-1 $55 forward single #
face $-1 $56 $57 $32 $-1 $58 reversed single #
face $-1 $59 $60 $33 $-1 $61 forward single #
face $-1 $62 $63 $34 $-1 $64 forward single #
face $-1 $65 $66 $35 $-1 $67 forward single #
face $-1 $68 $69 $36 $-1 $70 reversed single #
face $-1 $71 $72 $37 $-1 $73 forward single #
face $-1 $74 $75 $38 $-1 $76 forward single #
face $-1 $77 $78 $39 $-1 $79 forward single #
face $-1 $80 $81 $30 $-1 $82 reversed single #
loop $-1 $-1 $83 $40 #
plane-surface $-1 0 0 9.523460692210147 0 0 1 1 0 0 forward_v I I I I #
face $-1 $84 $85 $31 $-1 $86 reversed single #
loop $-1 $-1 $87 $41 #
plane-surface $-1 0 -19.987841765934952 -0.34396000127721038 0 0 1 1 0 0 forward_v I I I I #
face $-1 $88 $89 $32 $-1 $90 reversed single #
loop $-1 $-1 $91 $42 #
plane-surface $-1 -40.051987677263284 56.514888983434062 110.84466724279925 1 0 0 0 -0.68199836817093118 -0.7313536940579346 forward_v I I I I #
face $-1 $92 $93 $33 $-1 $94 forward single #
loop $-1 $95 $96 $43 #
cone-surface $-1 -36.529749996926469 21.108654611605161 5.2350944982440248 0 -0.68199836817093118 -0.7313536940579346 1 0 0 1 I I 0 1 1 forward I I I I #
face $-1 $97 $98 $34 $-1 $99 forward single #
loop $-1 $100 $101 $44 #
cone-surface $-1 -31.246393476421247 21.108654611605161 5.2350944982440248 0 -0.68199836817093118 -0.7313536940579346 1 0 0 1 I I 0 1 1 forward I I I I #
face $-1 $102 $103 $35 $-1 $104 forward single #
loop $-1 $105 $106 $45 #
cone-surface $-1 -25.963036955916024 21.108654611605161 5.2350944982440248 0 -0.68199836817093118 -0.7313536940579346 1 0 0 1 I I 0 1 1 forward I I I I #
face $-1 $107 $108 $36 $-1 $109 reversed single #
loop $-1 $-1 $110 $46 #
plane-surface $-1 22.440799275579209 56.514888983434062 110.84466724279925 1 0 0 0 -0.68199836817093118 -0.7313536940579346 forward_v I I I I #
face $-1 $111 $112 $37 $-1 $113 forward single #
loop $-1 $114 $115 $47 #
cone-surface $-1 25.96303695591601 21.108654611605161 5.2350944982440248 0 -0.68199836817093118 -0.7313536940579346 1 0 0 1 I I 0 1 1 forward I I I I #
face $-1 $116 $117 $38 $-1 $118 forward single #
loop $-1 $119 $120 $48 #
cone-surface $-1 31.246393476421247 21.108654611605161 5.2350944982440248 0 -0.68199836817093118 -0.7313536940579346 1 0 0 1 I I 0 1 1 forward I I I I #
face $-1 $121 $122 $39 $-1 $123 forward single #
loop $-1 $124 $125 $49 #
cone-surface $-1 36.529749996926455 21.108654611605161 5.2350944982440248 0 -0.68199836817093118 -0.7313536940579346 1 0 0 1 I I 0 1 1 forward I I I I #
face $-1 $126 $127 $30 $-1 $128 reversed single #
loop $-1 $-1 $129 $50 #
plane-surface $-1 0 0 -9.523460692210147 0 0 1 1 0 0 forward_v I I I I #
coedge $-1 $130 $131 $132 $133 forward $51 $-1 #
face $-1 $134 $135 $31 $-1 $136 reversed single #
loop $-1 $-1 $137 $53 #
plane-surface $-1 0 -19.987841765934952 -4.7249204919525969 0 0 1 1 0 0 forward_v I I I I #
coedge $-1 $138 $139 $140 $141 reversed $54 $-1 #
face $-1 $142 $143 $32 $-1 $144 reversed single #
loop $-1 $-1 $145 $56 #
plane-surface $-1 -31.246393476421247 -11.840217093174886 37.542791945173391 0 0.68199836817093118 0.7313536940579346 1 0 0 forward_v I I I I #
coedge $-1 $146 $147 $148 $149 reversed $57 $-1 #
face $-1 $-1 $150 $33 $-1 $151 forward single #
loop $-1 $152 $153 $59 #
cone-surface $-1 -36.529749996926469 19.978394307483509 4.0230387408624502 0 -0.68199836817093118 -0.7313536940579346 0.5 0 0 1 I I -0.70710678118654746 0.70710678118654746 0.5 forward I I I I #
loop $-1 $-1 $154 $43 #
coedge $-1 $96 $96 $155 $156 reversed $60 $-1 #
face $-1 $-1 $157 $34 $-1 $158 forward single #
loop $-1 $159 $160 $62 #
cone-surface $-1 -31.246393476421247 19.978394307483509 4.0230387408624502 0 -0.68199836817093118 -0.7313536940579346 0.5 0 0 1 I I -0.70710678118654746 0.70710678118654746 0.5 forward I I I I #
loop $-1 $-1 $161 $44 #
coedge $-1 $101 $101 $162 $163 reversed $63 $-1 #
face $-1 $-1 $164 $35 $-1 $165 forward single #
loop $-1 $166 $167 $65 #
cone-surface $-1 -25.963036955916024 19.978394307483509 4.0230387408624502 0 -0.68199836817093118 -0.7313536940579346 0.5 0 0 1 I I -0.70710678118654746 0.70710678118654746 0.5 forward I I I I #
loop $-1 $-1 $168 $45 #
coedge $-1 $106 $106 $169 $170 reversed $66 $-1 #
face $-1 $171 $172 $36 $-1 $173 reversed single #
loop $-1 $-1 $174 $68 #
plane-surface $-1 31.246393476421247 -11.840217093174886 37.542791945173391 0 0.68199836817093118 0.7313536940579346 1 0 0 forward_v I I I I #
coedge $-1 $175 $176 $177 $178 reversed $69 $-1 #
face $-1 $-1 $179 $37 $-1 $180 forward single #
loop $-1 $181 $182 $71 #
cone-surface $-1 25.96303695591601 19.978394307483509 4.0230387408624502 0 -0.68199836817093118 -0.7313536940579346 0.5 0 0 1 I I -0.70710678118654746 0.70710678118654746 0.5 forward I I I I #
loop $-1 $-1 $183 $47 #
coedge $-1 $115 $115 $184 $185 reversed $72 $-1 #
face $-1 $-1 $186 $38 $-1 $187 forward single #
loop $-1 $188 $189 $74 #
cone-surface $-1 31.246393476421247 19.978394307483509 4.0230387408624502 0 -0.68199836817093118 -0.7313536940579346 0.5 0 0 1 I I -0.70710678118654746 0.70710678118654746 0.5 forward I I I I #
loop $-1 $-1 $190 $48 #
coedge $-1 $120 $120 $191 $192 reversed $75 $-1 #
face $-1 $-1 $193 $39 $-1 $194 forward single #
loop $-1 $195 $196 $77 #
cone-surface $-1 36.529749996926455 19.978394307483509 4.0230387408624502 0 -0.68199836817093118 -0.7313536940579346 0.5 0 0 1 I I -0.70710678118654746 0.70710678118654746 0.5 forward I I I I #
loop $-1 $-1 $197 $49 #
coedge $-1 $125 $125 $198 $199 reversed $78 $-1 #
face $-1 $200 $201 $30 $-1 $202 reversed single #
loop $-1 $-1 $203 $80 #
plane-surface $-1 0 -25.588995112846344 0 0 1 0 0 0 1 forward_v I I I I #
coedge $-1 $204 $205 $206 $207 forward $81 $-1 #
coedge $-1 $208 $83 $209 $210 forward $51 $-1 #
coedge $-1 $83 $208 $211 $212 forward $51 $-1 #
coedge $-1 $213 $214 $83 $133 reversed $215 $-1 #
edge $-1 $216 -25.588995112846344 $217 25.588995112846344 $132 $218 forward 7 unknown #
face $-1 $219 $220 $31 $-1 $221 reversed single #
loop $-1 $-1 $222 $84 #
plane-surface $-1 0 -14.386688419023562 -2.5344402466149036 0 -1 0 0 0 -1 forward_v I I I I #
coedge $-1 $223 $224 $225 $226 reversed $85 $-1 #
coedge $-1 $227 $87 $228 $229 forward $54 $-1 #
coedge $-1 $87 $227 $230 $231 reversed $54 $-1 #
coedge $-1 $232 $233 $87 $141 forward $234 $-1 #
edge $-1 $235 4.3927675360560858 $236 15.595074229878865 $140 $237 forward 7 unknown #
face $-1 $238 $239 $32 $-1 $240 reversed single #
loop $-1 $-1 $241 $88 #
plane-surface $-1 -22.440799275579209 56.514888983434062 110.84466724279925 -1 0 0 0 0.68199836817093118 0.7313536940579346 forward_v I I I I #
coedge $-1 $242 $243 $244 $245 reversed $89 $-1 #
coedge $-1 $147 $91 $246 $247 reversed $57 $-1 #
coedge $-1 $91 $146 $242 $248 reversed $57 $-1 #
coedge $-1 $244 $249 $91 $149 forward $250 $-1 #
edge $-1 $251 2.6684493788706867 $252 10.050608141280705 $148 $253 forward 7 unknown #
loop $-1 $-1 $155 $92 #
plane-surface $-1 -31.246393476421247 -11.840217093174886 37.542791945173391 0 0.68199836817093118 0.7313536940579346 1 0 0 forward_v I I I I #
loop $-1 $-1 $254 $59 #
coedge $-1 $153 $153 $154 $255 reversed $93 $-1 #
coedge $-1 $154 $154 $153 $255 forward $95 $-1 #
coedge $-1 $155 $155 $96 $156 forward $150 $-1 #
edge $-1 $256 5.2603602420124135e-016 $256 6.2831853071796013 $155 $257 forward 7 unknown #
loop $-1 $-1 $162 $97 #
plane-surface $-1 -31.246393476421247 -11.840217093174886 37.542791945173391 0 0.68199836817093118 0.7313536940579346 1 0 0 forward_v I I I I #
loop $-1 $-1 $258 $62 #
coedge $-1 $160 $160 $161 $259 reversed $98 $-1 #
coedge $-1 $161 $161 $160 $259 forward $100 $-1 #
coedge $-1 $162 $162 $101 $163 forward $157 $-1 #
edge $-1 $260 5.2603602420124135e-016 $260 6.2831853071796013 $162 $261 forward 7 unknown #
loop $-1 $-1 $169 $102 #
plane-surface $-1 -31.246393476421247 -11.840217093174886 37.542791945173391 0 0.68199836817093118 0.7313536940579346 1 0 0 forward_v I I I I #
loop $-1 $-1 $262 $65 #
coedge $-1 $167 $167 $168 $263 reversed $103 $-1 #
coedge $-1 $168 $168 $167 $263 forward $105 $-1 #
coedge $-1 $169 $169 $106 $170 forward $164 $-1 #
edge $-1 $264 5.2603602420124135e-016 $264 6.2831853071796013 $169 $265 forward 7 unknown #
face $-1 $266 $267 $36 $-1 $268 forward single #
loop $-1 $-1 $269 $107 #
plane-surface $-1 40.051987677263284 56.514888983434062 110.84466724279925 -1 0 0 0 0.68199836817093118 0.7313536940579346 forward_v I I I I #
coedge $-1 $270 $271 $272 $273 reversed $108 $-1 #
coedge $-1 $176 $110 $274 $275 reversed $69 $-1 #
coedge $-1 $110 $175 $270 $276 reversed $69 $-1 #
coedge $-1 $272 $277 $110 $178 forward $267 $-1 #
edge $-1 $278 2.6684493788706867 $279 10.050608141280705 $177 $280 forward 7 unknown #
loop $-1 $-1 $184 $111 #
plane-surface $-1 31.246393476421247 -11.840217093174886 37.542791945173391 0 0.68199836817093118 0.7313536940579346 1 0 0 forward_v I I I I #
loop $-1 $-1 $281 $71 #
coedge $-1 $182 $182 $183 $282 reversed $112 $-1 #
coedge $-1 $183 $183 $182 $282 forward $114 $-1 #
coedge $-1 $184 $184 $115 $185 forward $179 $-1 #
edge $-1 $283 5.2603602420124135e-016 $283 6.2831853071796013 $184 $284 forward 7 unknown #
loop $-1 $-1 $191 $116 #
plane-surface $-1 31.246393476421247 -11.840217093174886 37.542791945173391 0 0.68199836817093118 0.7313536940579346 1 0 0 forward_v I I I I #
loop $-1 $-1 $285 $74 #
coedge $-1 $189 $189 $190 $286 reversed $117 $-1 #
coedge $-1 $190 $190 $189 $286 forward $119 $-1 #
coedge $-1 $191 $191 $120 $192 forward $186 $-1 #
edge $-1 $287 5.2603602420124135e-016 $287 6.2831853071796013 $191 $288 forward 7 unknown #
loop $-1 $-1 $198 $121 #
plane-surface $-1 31.246393476421247 -11.840217093174886 37.542791945173391 0 0.68199836817093118 0.7313536940579346 1 0 0 forward_v I I I I #
loop $-1 $-1 $289 $77 #
coedge $-1 $196 $196 $197 $290 reversed $122 $-1 #
coedge $-1 $197 $197 $196 $290 forward $124 $-1 #
coedge $-1 $198 $198 $125 $199 forward $193 $-1 #
edge $-1 $291 5.2603602420124135e-016 $291 6.2831853071796013 $198 $292 forward 7 unknown #
face $-1 $293 $294 $30 $-1 $295 reversed single #
loop $-1 $-1 $296 $126 #
plane-surface $-1 -50.113834040345466 0 0 1 0 0 0 0 -1 forward_v I I I I #
coedge $-1 $297 $211 $298 $299 forward $127 $-1 #
coedge $-1 $300 $129 $297 $301 forward $81 $-1 #
coedge $-1 $129 $300 $302 $303 forward $81 $-1 #
coedge $-1 $214 $213 $129 $207 reversed $215 $-1 #
edge $-1 $304 -25.588995112846344 $305 25.588995112846344 $206 $306 forward 7 unknown #
coedge $-1 $131 $130 $307 $308 forward $51 $-1 #
coedge $-1 $309 $310 $130 $210 reversed $294 $-1 #
edge $-1 $217 -50.113834040345466 $311 50.113834040345466 $209 $312 forward 7 unknown #
coedge $-1 $203 $313 $131 $212 reversed $127 $-1 #
edge $-1 $314 -50.113834040345466 $216 50.113834040345466 $211 $315 forward 7 unknown #
coedge $-1 $206 $132 $313 $316 forward $215 $-1 #
coedge $-1 $132 $206 $309 $317 reversed $215 $-1 #
loop $-1 $-1 $213 $293 #
vertex $-1 $133 $318 #
vertex $-1 $133 $319 #
straight-curve $-1 50.113834040345466 0 9.523460692210147 0 1 0 I I #
face $-1 $320 $321 $31 $-1 $322 reversed single #
loop $-1 $-1 $323 $134 #
plane-surface $-1 -50.113834040345466 0 0 1 0 0 0 0 -1 forward_v I I I I #
coedge $-1 $324 $228 $233 $325 reversed $135 $-1 #
coedge $-1 $326 $137 $327 $328 reversed $85 $-1 #
coedge $-1 $137 $326 $324 $329 forward $85 $-1 #
coedge $-1 $233 $232 $137 $226 forward $234 $-1 #
edge $-1 $330 -15.595074229878865 $331 -4.3927675360560858 $225 $332 forward 7 unknown #
coedge $-1 $139 $138 $323 $333 reversed $54 $-1 #
coedge $-1 $222 $334 $138 $229 reversed $135 $-1 #
edge $-1 $235 -50.113834040345466 $335 50.113834040345466 $228 $336 forward 7 unknown #
coedge $-1 $337 $338 $139 $231 forward $321 $-1 #
edge $-1 $236 -50.113834040345466 $339 50.113834040345466 $230 $340 forward 7 unknown #
coedge $-1 $225 $140 $338 $341 forward $234 $-1 #
coedge $-1 $140 $225 $222 $325 forward $234 $-1 #
loop $-1 $-1 $140 $320 #
vertex $-1 $141 $342 #
vertex $-1 $341 $343 #
straight-curve $-1 50.113834040345466 -9.9939208829674762 -0.34396000127721038 0 -1 0 I I #
face $-1 $-1 $250 $32 $-1 $344 forward single #
loop $-1 $-1 $345 $142 #
plane-surface $-1 0 25.588995112846344 0 0 -1 0 0 0 -1 forward_v I I I I #
coedge $-1 $346 $347 $348 $349 reversed $143 $-1 #
coedge $-1 $350 $145 $147 $248 forward $89 $-1 #
coedge $-1 $145 $350 $346 $351 forward $89 $-1 #
coedge $-1 $348 $148 $145 $245 forward $250 $-1 #
edge $-1 $252 -24.428790939052661 $352 -6.817602537368586 $244 $353 forward 7 unknown #
coedge $-1 $354 $355 $146 $247 forward $239 $-1 #
edge $-1 $356 -52.78284749641653 $251 -45.89887292918948 $246 $357 forward 7 unknown #
edge $-1 $252 41.084161723302941 $356 51.17799022569271 $147 $358 forward 7 unknown #
coedge $-1 $148 $348 $354 $359 forward $250 $-1 #
loop $-1 $-1 $348 $238 #
vertex $-1 $247 $360 #
vertex $-1 $149 $361 #
straight-curve $-1 -40.051987677263284 28.257444491717031 9.5234606922101506 0 -1 0 I I #
coedge $-1 $254 $254 $-1 $362 reversed $152 $-1 #
edge $-1 $363 0 $363 6.2831853071796004 $153 $364 forward 7 unknown #
vertex $-1 $156 $365 #
ellipse-curve $-1 -36.529749996926469 21.897915731641341 6.0814734085966222 0 0.68199836817093118 0.7313536940579346 1 0 0 1 I I #
coedge $-1 $258 $258 $-1 $366 reversed $159 $-1 #
edge $-1 $367 0 $367 6.2831853071796004 $160 $368 forward 7 unknown #
vertex $-1 $163 $369 #
ellipse-curve $-1 -31.246393476421247 21.897915731641341 6.0814734085966222 0 0.68199836817093118 0.7313536940579346 1 0 0 1 I I #
coedge $-1 $262 $262 $-1 $370 reversed $166 $-1 #
edge $-1 $371 0 $371 6.2831853071796004 $167 $372 forward 7 unknown #
vertex $-1 $170 $373 #
ellipse-curve $-1 -25.963036955916024 21.897915731641341 6.0814734085966222 0 0.68199836817093118 0.7313536940579346 1 0 0 1 I I #
face $-1 $-1 $374 $36 $-1 $375 reversed single #
loop $-1 $-1 $177 $171 #
plane-surface $-1 0 0 9.523460692210147 0 0 1 1 0 0 forward_v I I I I #
coedge $-1 $376 $377 $378 $379 reversed $172 $-1 #
coedge $-1 $380 $174 $176 $276 forward $108 $-1 #
coedge $-1 $174 $380 $376 $381 forward $108 $-1 #
coedge $-1 $378 $177 $174 $273 forward $267 $-1 #
edge $-1 $279 6.817602537368586 $382 24.428790939052661 $272 $383 forward 7 unknown #
coedge $-1 $384 $385 $175 $275 forward $374 $-1 #
edge $-1 $386 -52.78284749641653 $278 -45.89887292918948 $274 $387 forward 7 unknown #
edge $-1 $279 41.084161723302941 $386 51.17799022569271 $176 $388 forward 7 unknown #
coedge $-1 $177 $378 $384 $389 forward $267 $-1 #
vertex $-1 $178 $390 #
vertex $-1 $178 $391 #
straight-curve $-1 22.440799275579209 28.257444491717031 9.5234606922101506 0 -1 0 I I #
coedge $-1 $281 $281 $-1 $392 reversed $181 $-1 #
edge $-1 $393 0 $393 6.2831853071796004 $182 $394 forward 7 unknown #
vertex $-1 $185 $395 #
ellipse-curve $-1 25.96303695591601 21.897915731641341 6.0814734085966222 0 0.68199836817093118 0.7313536940579346 1 0 0 1 I I #
coedge $-1 $285 $285 $-1 $396 reversed $188 $-1 #
edge $-1 $397 0 $397 6.2831853071796004 $189 $398 forward 7 unknown #
vertex $-1 $192 $399 #
ellipse-curve $-1 31.246393476421247 21.897915731641341 6.0814734085966222 0 0.68199836817093118 0.7313536940579346 1 0 0 1 I I #
coedge $-1 $289 $289 $-1 $400 reversed $195 $-1 #
edge $-1 $401 0 $401 6.2831853071796004 $196 $402 forward 7 unknown #
vertex $-1 $199 $403 #
ellipse-curve $-1 36.529749996926455 21.897915731641341 6.0814734085966222 0 0.68199836817093118 0.7313536940579346 1 0 0 1 I I #
face $-1 $-1 $215 $30 $-1 $404 reversed single #
loop $-1 $-1 $309 $200 #
plane-surface $-1 0 25.588995112846344 0 0 -1 0 0 0 -1 forward_v I I I I #
coedge $-1 $405 $307 $310 $406 forward $201 $-1 #
coedge $-1 $313 $203 $204 $301 reversed $127 $-1 #
coedge $-1 $307 $405 $203 $299 reversed $201 $-1 #
edge $-1 $314 -9.523460692210147 $407 9.523460692210147 $298 $408 forward 7 unknown #
coedge $-1 $205 $204 $405 $409 forward $81 $-1 #
edge $-1 $305 -50.113834040345466 $407 50.113834040345466 $297 $410 forward 7 unknown #
coedge $-1 $310 $309 $205 $303 reversed $294 $-1 #
edge $-1 $411 -50.113834040345466 $304 50.113834040345466 $302 $412 forward 7 unknown #
vertex $-1 $207 $413 #
vertex $-1 $316 $414 #
straight-curve $-1 50.113834040345466 0 -9.523460692210147 0 -1 0 I I #
coedge $-1 $296 $298 $208 $308 reversed $201 $-1 #
edge $-1 $311 -25.588995112846344 $314 25.588995112846344 $307 $415 forward 7 unknown #
coedge $-1 $302 $209 $214 $317 forward $294 $-1 #
coedge $-1 $209 $302 $296 $406 reversed $294 $-1 #
vertex $-1 $210 $416 #
straight-curve $-1 0 25.588995112846344 9.523460692210147 -1 0 0 I I #
coedge $-1 $211 $297 $213 $316 reversed $127 $-1 #
vertex $-1 $308 $417 #
straight-curve $-1 0 -25.588995112846344 9.523460692210147 1 0 0 I I #
edge $-1 $216 -9.523460692210147 $305 9.523460692210147 $213 $418 forward 7 unknown #
edge $-1 $217 -9.523460692210147 $304 9.523460692210147 $214 $419 forward 7 unknown #
point $-1 50.113834040345466 -25.588995112846344 9.523460692210147 #
point $-1 50.113834040345466 25.588995112846344 9.523460692210147 #
face $-1 $-1 $234 $31 $-1 $420 reversed single #
loop $-1 $-1 $230 $219 #
plane-surface $-1 0 -25.588995112846344 0 0 1 0 0 0 1 forward_v I I I I #
coedge $-1 $421 $422 $227 $333 forward $220 $-1 #
coedge $-1 $334 $222 $224 $329 reversed $135 $-1 #
edge $-1 $331 -3.4577003686451451 $235 0.92326012203024144 $233 $423 forward 7 unknown #
coedge $-1 $224 $223 $424 $425 reversed $85 $-1 #
coedge $-1 $338 $337 $223 $328 forward $321 $-1 #
edge $-1 $426 -50.113834040345466 $330 50.113834040345466 $327 $427 forward 7 unknown #
edge $-1 $428 -50.113834040345466 $331 50.113834040345466 $324 $429 forward 7 unknown #
vertex $-1 $328 $430 #
vertex $-1 $226 $431 #
straight-curve $-1 50.113834040345466 -9.9939208829674762 -4.7249204919525969 0 1 0 I I #
edge $-1 $339 -15.595074229878865 $335 -4.3927675360560858 $323 $432 forward 7 unknown #
coedge $-1 $228 $324 $421 $433 reversed $135 $-1 #
vertex $-1 $333 $434 #
straight-curve $-1 0 -14.386688419023562 -0.34396000127721038 -1 0 0 I I #
coedge $-1 $327 $230 $422 $435 forward $321 $-1 #
coedge $-1 $230 $327 $232 $341 reversed $321 $-1 #
vertex $-1 $435 $436 #
straight-curve $-1 0 -25.588995112846344 -0.34396000127721038 -1 0 0 I I #
edge $-1 $236 0.34396000127721038 $330 4.7249204919525969 $232 $437 forward 7 unknown #
point $-1 50.113834040345466 -14.386688419023562 -0.34396000127721038 #
point $-1 50.113834040345466 -25.588995112846341 -0.34396000127721038 #
plane-surface $-1 0 0 9.523460692210147 0 0 1 1 0 0 forward_v I I I I #
coedge $-1 $355 $354 $347 $438 forward $239 $-1 #
coedge $-1 $347 $241 $243 $351 reversed $143 $-1 #
coedge $-1 $241 $346 $345 $438 reversed $143 $-1 #
coedge $-1 $249 $244 $241 $349 forward $250 $-1 #
edge $-1 $352 -10.050608141280705 $439 -2.6684493788706867 $348 $440 forward 7 unknown #
coedge $-1 $243 $242 $355 $441 reversed $89 $-1 #
edge $-1 $442 -51.17799022569271 $352 -41.084161723302941 $346 $443 forward 7 unknown #
vertex $-1 $245 $444 #
straight-curve $-1 -15.623196738210623 18.206836350436326 9.523460692210147 1 0 0 I I #
coedge $-1 $345 $246 $249 $359 reversed $239 $-1 #
coedge $-1 $246 $345 $350 $441 forward $239 $-1 #
vertex $-1 $247 $445 #
straight-curve $-1 -40.051987677263284 25.588995112846344 55.422333621399623 0 0 1 I I #
straight-curve $-1 -40.051987677263284 -11.840217093174886 37.542791945173391 0 0.7313536940579346 -0.68199836817093118 I I #
edge $-1 $439 22.440799275579209 $251 40.051987677263284 $354 $446 forward 7 unknown #
point $-1 -40.051987677263284 25.588995112846344 9.523460692210147 #
point $-1 -40.051987677263284 18.206836350436326 9.5234606922101506 #
edge $-1 $447 1 $447 0 $254 $-1 forward 7 unknown #
vertex $-1 $255 $448 #
ellipse-curve $-1 -36.529749996926469 20.319393491568974 4.3887155878914177 0 0.68199836817093118 0.7313536940579346 1 0 0 1 I I #
point $-1 -35.529749996926469 21.897915731641351 6.0814734085966329 #
edge $-1 $449 1 $449 0 $258 $-1 forward 7 unknown #
vertex $-1 $259 $450 #
ellipse-curve $-1 -31.246393476421247 20.319393491568974 4.3887155878914177 0 0.68199836817093118 0.7313536940579346 1 0 0 1 I I #
point $-1 -30.246393476421247 21.897915731641351 6.0814734085966329 #
edge $-1 $451 1 $451 0 $262 $-1 forward 7 unknown #
vertex $-1 $263 $452 #
ellipse-curve $-1 -25.963036955916024 20.319393491568974 4.3887155878914177 0 0.68199836817093118 0.7313536940579346 1 0 0 1 I I #
point $-1 -24.963036955916024 21.897915731641351 6.0814734085966329 #
loop $-1 $-1 $274 $266 #
plane-surface $-1 0 25.588995112846344 0 0 -1 0 0 0 -1 forward_v I I I I #
coedge $-1 $377 $269 $271 $381 reversed $172 $-1 #
coedge $-1 $269 $376 $453 $454 reversed $172 $-1 #
coedge $-1 $277 $272 $269 $379 forward $267 $-1 #
edge $-1 $382 -10.050608141280705 $455 -2.6684493788706867 $378 $456 forward 7 unknown #
coedge $-1 $271 $270 $385 $457 reversed $108 $-1 #
edge $-1 $458 -51.17799022569271 $382 -41.084161723302941 $376 $459 forward 7 unknown #
vertex $-1 $273 $460 #
straight-curve $-1 15.623196738210623 18.206836350436326 9.523460692210147 1 0 0 I I #
coedge $-1 $453 $274 $277 $389 reversed $374 $-1 #
coedge $-1 $274 $453 $380 $457 forward $374 $-1 #
vertex $-1 $275 $461 #
straight-curve $-1 22.440799275579209 25.588995112846344 55.422333621399623 0 0 1 I I #
straight-curve $-1 22.440799275579209 -11.840217093174886 37.542791945173391 0 0.7313536940579346 -0.68199836817093118 I I #
edge $-1 $455 -40.051987677263284 $278 -22.440799275579209 $384 $462 forward 7 unknown #
point $-1 22.440799275579209 25.588995112846344 9.523460692210147 #
point $-1 22.440799275579209 18.206836350436326 9.5234606922101506 #
edge $-1 $463 1 $463 0 $281 $-1 forward 7 unknown #
vertex $-1 $282 $464 #
ellipse-curve $-1 25.96303695591601 20.319393491568974 4.3887155878914177 0 0.68199836817093118 0.7313536940579346 1 0 0 1 I I #
point $-1 26.96303695591601 21.897915731641351 6.0814734085966329 #
edge $-1 $465 1 $465 0 $285 $-1 forward 7 unknown #
vertex $-1 $286 $466 #
ellipse-curve $-1 31.246393476421247 20.319393491568974 4.3887155878914177 0 0.68199836817093118 0.7313536940579346 1 0 0 1 I I #
point $-1 32.246393476421247 21.897915731641351 6.0814734085966329 #
edge $-1 $467 1 $467 0 $289 $-1 forward 7 unknown #
vertex $-1 $290 $468 #
ellipse-curve $-1 36.529749996926455 20.319393491568974 4.3887155878914177 0 0.68199836817093118 0.7313536940579346 1 0 0 1 I I #
point $-1 37.529749996926455 21.897915731641351 6.0814734085966329 #
plane-surface $-1 50.113834040345466 0 0 -1 0 0 0 0 1 forward_v I I I I #
coedge $-1 $298 $296 $300 $409 reversed $201 $-1 #
edge $-1 $311 -9.523460692210147 $411 9.523460692210147 $310 $469 forward 7 unknown #
vertex $-1 $409 $470 #
straight-curve $-1 -50.113834040345466 -25.588995112846344 0 0 0 -1 I I #
edge $-1 $407 -25.588995112846344 $411 25.588995112846344 $405 $471 forward 7 unknown #
straight-curve $-1 0 -25.588995112846344 -9.523460692210147 -1 0 0 I I #
vertex $-1 $303 $472 #
straight-curve $-1 0 25.588995112846344 -9.523460692210147 1 0 0 I I #
point $-1 50.113834040345466 25.588995112846344 -9.523460692210147 #
point $-1 50.113834040345466 -25.588995112846344 -9.523460692210147 #
straight-curve $-1 -50.113834040345466 0 9.523460692210147 0 -1 0 I I #
point $-1 -50.113834040345466 25.588995112846344 9.523460692210147 #
point $-1 -50.113834040345466 -25.588995112846344 9.523460692210147 #
straight-curve $-1 50.113834040345466 -25.588995112846344 0 0 0 -1 I I #
straight-curve $-1 50.113834040345466 25.588995112846344 0 0 0 -1 I I #
plane-surface $-1 50.113834040345466 0 0 -1 0 0 0 0 1 forward_v I I I I #
coedge $-1 $424 $323 $334 $433 forward $220 $-1 #
coedge $-1 $323 $424 $337 $435 reversed $220 $-1 #
straight-curve $-1 50.113834040345466 -14.386688419023562 -1.2672201233074518 0 0 1 I I #
coedge $-1 $422 $421 $326 $425 forward $220 $-1 #
edge $-1 $428 4.3927675360560858 $426 15.595074229878865 $424 $473 forward 7 unknown #
vertex $-1 $328 $474 #
straight-curve $-1 0 -25.588995112846344 -4.7249204919525969 1 0 0 I I #
vertex $-1 $425 $475 #
straight-curve $-1 0 -14.386688419023562 -4.7249204919525969 1 0 0 I I #
point $-1 50.113834040345466 -25.588995112846341 -4.7249204919525969 #
point $-1 50.113834040345466 -14.386688419023562 -4.7249204919525969 #
straight-curve $-1 -50.113834040345466 -9.9939208829674762 -0.34396000127721038 0 1 0 I I #
edge $-1 $335 -0.92326012203024144 $428 3.4577003686451451 $421 $476 forward 7 unknown #
point $-1 -50.113834040345466 -14.386688419023562 -0.34396000127721038 #
edge $-1 $339 0.34396000127721038 $426 4.7249204919525969 $422 $477 forward 7 unknown #
point $-1 -50.113834040345466 -25.588995112846341 -0.34396000127721038 #
straight-curve $-1 50.113834040345466 -25.588995112846344 0 0 0 -1 I I #
edge $-1 $439 45.89887292918948 $442 52.78284749641653 $345 $478 forward 7 unknown #
vertex $-1 $359 $479 #
straight-curve $-1 -22.440799275579209 28.257444491717031 9.5234606922101506 0 1 0 I I #
edge $-1 $442 6.817602537368586 $356 24.428790939052661 $355 $480 forward 7 unknown #
vertex $-1 $441 $481 #
straight-curve $-1 -22.440799275579209 -11.840217093174886 37.542791945173391 0 -0.7313536940579346 0.68199836817093118 I I #
point $-1 -22.440799275579209 18.206836350436326 9.5234606922101506 #
point $-1 -40.051987677263284 25.588995112846348 2.6394861249830939 #
straight-curve $-1 0 25.588995112846344 9.523460692210147 -1 0 0 I I #
vertex $-1 $362 $482 #
point $-1 -35.529749996926469 20.319393491568974 4.3887155878914177 #
vertex $-1 $366 $483 #
point $-1 -30.246393476421247 20.319393491568974 4.3887155878914177 #
vertex $-1 $370 $484 #
point $-1 -24.963036955916024 20.319393491568974 4.3887155878914177 #
coedge $-1 $385 $384 $377 $454 forward $374 $-1 #
edge $-1 $455 45.89887292918948 $458 52.78284749641653 $453 $485 forward 7 unknown #
vertex $-1 $389 $486 #
straight-curve $-1 40.051987677263284 28.257444491717031 9.5234606922101506 0 1 0 I I #
edge $-1 $458 -24.428790939052661 $386 -6.817602537368586 $385 $487 forward 7 unknown #
vertex $-1 $457 $488 #
straight-curve $-1 40.051987677263284 -11.840217093174886 37.542791945173391 0 -0.7313536940579346 0.68199836817093118 I I #
point $-1 40.051987677263284 18.206836350436326 9.5234606922101506 #
point $-1 22.440799275579209 25.588995112846348 2.6394861249830939 #
straight-curve $-1 0 25.588995112846344 9.523460692210147 -1 0 0 I I #
vertex $-1 $392 $489 #
point $-1 26.96303695591601 20.319393491568974 4.3887155878914177 #
vertex $-1 $396 $490 #
point $-1 32.246393476421247 20.319393491568974 4.3887155878914177 #
vertex $-1 $400 $491 #
point $-1 37.529749996926455 20.319393491568974 4.3887155878914177 #
straight-curve $-1 -50.113834040345466 25.588995112846344 0 0 0 -1 I I #
point $-1 -50.113834040345466 -25.588995112846344 -9.523460692210147 #
straight-curve $-1 -50.113834040345466 0 -9.523460692210147 0 1 0 I I #
point $-1 -50.113834040345466 25.588995112846344 -9.523460692210147 #
straight-curve $-1 -50.113834040345466 -9.9939208829674762 -4.7249204919525969 0 -1 0 I I #
point $-1 -50.113834040345466 -25.588995112846341 -4.7249204919525969 #
point $-1 -50.113834040345466 -14.386688419023562 -4.7249204919525969 #
straight-curve $-1 -50.113834040345466 -14.386688419023562 -1.2672201233074518 0 0 -1 I I #
straight-curve $-1 -50.113834040345466 -25.588995112846344 0 0 0 -1 I I #
straight-curve $-1 -22.440799275579209 25.588995112846344 55.422333621399623 0 0 -1 I I #
point $-1 -22.440799275579209 25.588995112846344 9.523460692210147 #
straight-curve $-1 -15.623196738210623 25.588995112846341 2.639486124983101 -1 0 0 I I #
point $-1 -22.440799275579209 25.588995112846348 2.6394861249830939 #
point $-1 -36.529749996926469 19.637395123398043 3.6573618938334826 #
point $-1 -31.246393476421247 19.637395123398043 3.6573618938334826 #
point $-1 -25.963036955916024 19.637395123398043 3.6573618938334826 #
straight-curve $-1 40.051987677263284 25.588995112846344 55.422333621399623 0 0 -1 I I #
point $-1 40.051987677263284 25.588995112846344 9.523460692210147 #
straight-curve $-1 15.623196738210623 25.588995112846341 2.639486124983101 -1 0 0 I I #
point $-1 40.051987677263284 25.588995112846348 2.6394861249830939 #
point $-1 25.96303695591601 19.637395123398043 3.6573618938334826 #
point $-1 31.246393476421247 19.637395123398043 3.6573618938334826 #
point $-1 36.529749996926455 19.637395123398043 3.6573618938334826 #
End-of-ACIS-data 