500 0 8 0           
7 Unknown 11 ACIS 5.0 NT 24 Fri Mar 26 02:20:59 1999 
-1 9.9999999999999995e-007 1e-010 
body $-1 $8 $-1 $9 #
body $-1 $10 $-1 $11 #
body $-1 $12 $-1 $13 #
body $-1 $14 $-1 $15 #
body $-1 $16 $-1 $17 #
body $-1 $18 $-1 $19 #
body $-1 $20 $-1 $21 #
body $-1 $22 $-1 $23 #
lump $-1 $-1 $24 $0 #
transform $-1 1 0 0 0 1 0 0 0 1 53.004547257911923 21.239671205964392 7.8635463515401414 1 rotate no_reflect no_shear #
lump $-1 $-1 $25 $1 #
transform $-1 1 0 0 0 1 0 0 0 1 53.004547257911923 21.239671205964392 7.8635463515401414 1 rotate no_reflect no_shear #
lump $-1 $-1 $26 $2 #
transform $-1 1 0 0 0 1 0 0 0 1 53.004547257911923 21.239671205964392 7.8635463515401414 1 rotate no_reflect no_shear #
lump $-1 $-1 $27 $3 #
transform $-1 1 0 0 0 1 0 0 0 1 53.004547257911923 21.239671205964392 7.8635463515401414 1 rotate no_reflect no_shear #
lump $-1 $-1 $28 $4 #
transform $-1 1 0 0 0 1 0 0 0 1 53.004547257911923 21.239671205964392 7.8635463515401414 1 rotate no_reflect no_shear #
lump $-1 $-1 $29 $5 #
transform $-1 1 0 0 0 1 0 0 0 1 53.004547257911923 21.239671205964392 7.8635463515401414 1 rotate no_reflect no_shear #
lump $-1 $-1 $30 $6 #
transform $-1 1 0 0 0 1 0 0 0 1 53.004547257911923 21.239671205964392 7.8635463515401414 1 rotate no_reflect no_shear #
lump $-1 $-1 $31 $7 #
transform $-1 1 0 0 0 1 0 0 0 1 53.004547257911923 21.239671205964392 7.8635463515401414 1 rotate no_reflect no_shear #
shell $-1 $-1 $-1 $32 $-1 $8 #
shell $-1 $-1 $-1 $33 $-1 $10 #
shell $-1 $-1 $-1 $34 $-1 $12 #
shell $-1 $-1 $-1 $35 $-1 $14 #
shell $-1 $-1 $-1 $36 $-1 $16 #
shell $-1 $-1 $-1 $37 $-1 $18 #
shell $-1 $-1 $-1 $38 $-1 $20 #
shell $-1 $-1 $-1 $39 $-1 $22 #
face $-1 $40 $41 $24 $-1 $42 forward single #
face $-1 $43 $44 $25 $-1 $45 forward single #
face $-1 $46 $47 $26 $-1 $48 reversed single #
face $-1 $49 $50 $27 $-1 $51 forward single #
face $-1 $52 $53 $28 $-1 $54 forward single #
face $-1 $55 $56 $29 $-1 $57 reversed single #
face $-1 $58 $59 $30 $-1 $60 forward single #
face $-1 $61 $62 $31 $-1 $63 forward single #
face $-1 $64 $65 $24 $-1 $66 reversed single #
loop $-1 $-1 $67 $32 #
plane-surface $-1 0 0 7.8635463515401414 0 0 1 1 0 0 forward_v I I I I #
face $-1 $68 $69 $25 $-1 $70 reversed single #
loop $-1 $-1 $71 $33 #
plane-surface $-1 0 -21.239671205964392 0 0 1 0 0 0 1 forward_v I I I I #
face $-1 $72 $73 $26 $-1 $74 reversed single #
loop $-1 $-1 $75 $34 #
plane-surface $-1 47.772433851097304 -6.918686576386694 153.0472828342659 0 -1 0 -0.68199836817093118 0 -0.7313536940579346 forward_v I I I I #
face $-1 $76 $77 $27 $-1 $78 forward single #
loop $-1 $79 $80 $35 #
cone-surface $-1 50.070215869864462 -13.101681621137782 5.0651349596799626 -0.68199836817093118 0 -0.7313536940579346 0.7313536940579346 0 -0.68199836817093118 1 I I 0 1 1 forward I I I I #
face $-1 $81 $82 $28 $-1 $83 forward single #
loop $-1 $84 $85 $36 #
cone-surface $-1 50.070215869864462 -9.391884594287129 5.0651349596799626 -0.68199836817093118 0 -0.7313536940579346 0.7313536940579346 0 -0.68199836817093118 1 I I 0 1 1 forward I I I I #
face $-1 $86 $87 $29 $-1 $88 reversed single #
loop $-1 $-1 $89 $37 #
plane-surface $-1 -125.3025767289818 -15.574879639038219 80.749253363196033 0 1 0 -0.68199836817093118 0 0.7313536940579346 forward_v I I I I #
face $-1 $90 $91 $30 $-1 $92 forward single #
loop $-1 $93 $94 $38 #
cone-surface $-1 -50.070215869864462 -13.101681621137782 5.0651349596799573 0.68199836817093118 0 -0.7313536940579346 0.7313536940579346 0 0.68199836817093118 1 I I 0 1 1 forward I I I I #
face $-1 $95 $96 $31 $-1 $97 forward single #
loop $-1 $98 $99 $39 #
cone-surface $-1 -50.070215869864462 -9.391884594287129 5.0651349596799573 0.68199836817093118 0 -0.7313536940579346 0.7313536940579346 0 0.68199836817093118 1 I I 0 1 1 forward I I I I #
face $-1 $100 $101 $24 $-1 $102 reversed single #
loop $-1 $-1 $103 $40 #
plane-surface $-1 0 0 -7.8635463515401414 0 0 1 1 0 0 forward_v I I I I #
coedge $-1 $104 $105 $106 $107 forward $41 $-1 #
face $-1 $108 $109 $25 $-1 $110 forward single #
loop $-1 $-1 $111 $43 #
plane-surface $-1 -53.004547257911923 0 0 1 0 0 0 0 -1 forward_v I I I I #
coedge $-1 $112 $113 $114 $115 forward $44 $-1 #
face $-1 $116 $117 $26 $-1 $118 reversed single #
loop $-1 $-1 $119 $46 #
plane-surface $-1 -24.525595619972563 -11.246783107712456 75.517139956381399 0.68199836817093118 0 0.7313536940579346 0.7313536940579346 0 -0.68199836817093118 forward_v I I I I #
coedge $-1 $120 $121 $122 $123 reversed $47 $-1 #
face $-1 $-1 $124 $27 $-1 $125 forward single #
loop $-1 $126 $127 $49 #
cone-surface $-1 49.285159091707925 -13.101681621137782 4.2232646539051215 -0.68199836817093118 0 -0.7313536940579346 0.3656768470289673 0 -0.34099918408546559 1 I I -0.70710678118654746 0.70710678118654746 0.5 forward I I I I #
loop $-1 $-1 $128 $35 #
coedge $-1 $80 $80 $129 $130 reversed $50 $-1 #
face $-1 $-1 $131 $28 $-1 $132 forward single #
loop $-1 $133 $134 $52 #
cone-surface $-1 49.285159091707925 -9.391884594287129 4.2232646539051215 -0.68199836817093118 0 -0.7313536940579346 0.3656768470289673 0 -0.34099918408546559 1 I I -0.70710678118654746 0.70710678118654746 0.5 forward I I I I #
loop $-1 $-1 $135 $36 #
coedge $-1 $85 $85 $136 $137 reversed $53 $-1 #
face $-1 $138 $139 $29 $-1 $140 reversed single #
loop $-1 $-1 $141 $55 #
plane-surface $-1 -53.004547257911938 -11.246783107712456 3.219110485311532 -0.68199836817093118 0 0.7313536940579346 0.7313536940579346 0 0.68199836817093118 forward_v I I I I #
coedge $-1 $142 $143 $144 $145 reversed $56 $-1 #
face $-1 $-1 $146 $30 $-1 $147 forward single #
loop $-1 $148 $149 $58 #
cone-surface $-1 -49.285159091707925 -13.101681621137782 4.2232646539051162 0.68199836817093118 0 -0.7313536940579346 0.3656768470289673 0 0.34099918408546559 1 I I -0.70710678118654746 0.70710678118654746 0.5 forward I I I I #
loop $-1 $-1 $150 $38 #
coedge $-1 $94 $94 $151 $152 reversed $59 $-1 #
face $-1 $-1 $153 $31 $-1 $154 forward single #
loop $-1 $155 $156 $61 #
cone-surface $-1 -49.285159091707925 -9.391884594287129 4.2232646539051162 0.68199836817093118 0 -0.7313536940579346 0.3656768470289673 0 0.34099918408546559 1 I I -0.70710678118654746 0.70710678118654746 0.5 forward I I I I #
loop $-1 $-1 $157 $39 #
coedge $-1 $99 $99 $158 $159 reversed $62 $-1 #
face $-1 $160 $161 $24 $-1 $162 reversed single #
loop $-1 $-1 $163 $64 #
plane-surface $-1 0 -21.239671205964392 0 0 1 0 0 0 1 forward_v I I I I #
coedge $-1 $164 $165 $166 $167 forward $65 $-1 #
coedge $-1 $168 $67 $169 $170 forward $41 $-1 #
coedge $-1 $67 $168 $171 $172 forward $41 $-1 #
coedge $-1 $173 $174 $67 $107 reversed $175 $-1 #
edge $-1 $176 -21.239671205964392 $177 21.239671205964392 $106 $178 forward 7 unknown #
face $-1 $179 $180 $25 $-1 $181 reversed single #
loop $-1 $-1 $182 $68 #
plane-surface $-1 0 -24.072066989427476 5.1209699308592773 0 0 1 1 0 0 forward_v I I I I #
coedge $-1 $183 $184 $113 $185 forward $69 $-1 #
coedge $-1 $186 $71 $187 $188 reversed $44 $-1 #
coedge $-1 $71 $186 $111 $185 reversed $44 $-1 #
coedge $-1 $189 $182 $71 $115 reversed $109 $-1 #
edge $-1 $190 -53.004547257911923 $191 53.004547257911923 $114 $192 forward 7 unknown #
face $-1 $193 $194 $26 $-1 $195 reversed single #
loop $-1 $-1 $196 $72 #
plane-surface $-1 47.772433851097304 -15.574879639038219 153.0472828342659 0 1 0 0.68199836817093118 0 0.7313536940579346 forward_v I I I I #
coedge $-1 $197 $198 $199 $200 reversed $73 $-1 #
coedge $-1 $121 $75 $201 $202 reversed $47 $-1 #
coedge $-1 $75 $120 $197 $203 reversed $47 $-1 #
coedge $-1 $199 $204 $75 $123 forward $205 $-1 #
edge $-1 $206 -29.118330332363271 $207 -24.137782744410529 $122 $208 forward 7 unknown #
loop $-1 $-1 $129 $76 #
plane-surface $-1 -24.525595619972563 -11.246783107712456 75.517139956381399 0.68199836817093118 0 0.7313536940579346 0.7313536940579346 0 -0.68199836817093118 forward_v I I I I #
loop $-1 $-1 $209 $49 #
coedge $-1 $127 $127 $128 $210 reversed $77 $-1 #
coedge $-1 $128 $128 $127 $210 forward $79 $-1 #
coedge $-1 $129 $129 $80 $130 forward $124 $-1 #
edge $-1 $211 0 $211 6.2831853071796004 $129 $212 forward 7 unknown #
loop $-1 $-1 $136 $81 #
plane-surface $-1 -24.525595619972563 -11.246783107712456 75.517139956381399 0.68199836817093118 0 0.7313536940579346 0.7313536940579346 0 -0.68199836817093118 forward_v I I I I #
loop $-1 $-1 $213 $52 #
coedge $-1 $134 $134 $135 $214 reversed $82 $-1 #
coedge $-1 $135 $135 $134 $214 forward $84 $-1 #
coedge $-1 $136 $136 $85 $137 forward $131 $-1 #
edge $-1 $215 0 $215 6.2831853071796004 $136 $216 forward 7 unknown #
face $-1 $217 $218 $29 $-1 $219 forward single #
loop $-1 $-1 $220 $86 #
plane-surface $-1 -125.3025767289818 -6.918686576386694 80.749253363196033 0 -1 0 0.68199836817093118 0 -0.7313536940579346 forward_v I I I I #
coedge $-1 $221 $222 $223 $224 reversed $87 $-1 #
coedge $-1 $143 $89 $225 $226 reversed $56 $-1 #
coedge $-1 $89 $142 $221 $227 reversed $56 $-1 #
coedge $-1 $223 $228 $89 $145 forward $218 $-1 #
edge $-1 $229 9.646741106578979 $230 14.627288694531735 $144 $231 forward 7 unknown #
loop $-1 $-1 $151 $90 #
plane-surface $-1 -53.004547257911938 -11.246783107712456 3.219110485311532 -0.68199836817093118 0 0.7313536940579346 0.7313536940579346 0 0.68199836817093118 forward_v I I I I #
loop $-1 $-1 $232 $58 #
coedge $-1 $149 $149 $150 $233 reversed $91 $-1 #
coedge $-1 $150 $150 $149 $233 forward $93 $-1 #
coedge $-1 $151 $151 $94 $152 forward $146 $-1 #
edge $-1 $234 0 $234 6.2831853071796004 $151 $235 forward 7 unknown #
loop $-1 $-1 $158 $95 #
plane-surface $-1 -53.004547257911938 -11.246783107712456 3.219110485311532 -0.68199836817093118 0 0.7313536940579346 0.7313536940579346 0 0.68199836817093118 forward_v I I I I #
loop $-1 $-1 $236 $61 #
coedge $-1 $156 $156 $157 $237 reversed $96 $-1 #
coedge $-1 $157 $157 $156 $237 forward $98 $-1 #
coedge $-1 $158 $158 $99 $159 forward $153 $-1 #
edge $-1 $238 0 $238 6.2831853071796004 $158 $239 forward 7 unknown #
face $-1 $240 $241 $24 $-1 $242 reversed single #
loop $-1 $-1 $243 $100 #
plane-surface $-1 -53.004547257911923 0 0 1 0 0 0 0 -1 forward_v I I I I #
coedge $-1 $244 $171 $245 $246 forward $101 $-1 #
coedge $-1 $247 $103 $244 $248 forward $65 $-1 #
coedge $-1 $103 $247 $249 $250 forward $65 $-1 #
coedge $-1 $174 $173 $103 $167 reversed $175 $-1 #
edge $-1 $251 -21.239671205964392 $252 21.239671205964392 $166 $253 forward 7 unknown #
coedge $-1 $105 $104 $254 $255 forward $41 $-1 #
coedge $-1 $256 $257 $104 $170 reversed $241 $-1 #
edge $-1 $177 -53.004547257911923 $258 53.004547257911923 $169 $259 forward 7 unknown #
coedge $-1 $163 $260 $105 $172 reversed $101 $-1 #
edge $-1 $261 -53.004547257911923 $176 53.004547257911923 $171 $262 forward 7 unknown #
coedge $-1 $166 $106 $260 $263 forward $175 $-1 #
coedge $-1 $106 $166 $256 $264 reversed $175 $-1 #
loop $-1 $-1 $173 $240 #
vertex $-1 $107 $265 #
vertex $-1 $107 $266 #
straight-curve $-1 53.004547257911923 0 7.8635463515401414 0 1 0 I I #
face $-1 $267 $268 $25 $-1 $269 reversed single #
loop $-1 $-1 $270 $108 #
plane-surface $-1 0 -24.072066989427476 2.1209699308592773 0 0 1 1 0 0 forward_v I I I I #
coedge $-1 $114 $271 $272 $273 forward $109 $-1 #
coedge $-1 $274 $111 $275 $276 reversed $69 $-1 #
coedge $-1 $111 $274 $189 $277 reversed $69 $-1 #
edge $-1 $190 -5.1209699308592773 $278 -2.1209699308592773 $111 $279 forward 7 unknown #
coedge $-1 $113 $112 $280 $281 forward $44 $-1 #
coedge $-1 $272 $282 $112 $188 forward $283 $-1 #
edge $-1 $284 2.1209699308592773 $191 5.1209699308592773 $187 $285 forward 7 unknown #
coedge $-1 $271 $114 $184 $277 forward $109 $-1 #
vertex $-1 $185 $286 #
vertex $-1 $273 $287 #
straight-curve $-1 0 -21.239671205964392 5.1209699308592773 1 0 0 I I #
face $-1 $-1 $205 $26 $-1 $288 forward single #
loop $-1 $-1 $289 $116 #
plane-surface $-1 53.004547257911923 0 0 -1 0 0 0 0 1 forward_v I I I I #
coedge $-1 $290 $291 $292 $293 reversed $117 $-1 #
coedge $-1 $294 $119 $121 $203 forward $73 $-1 #
coedge $-1 $119 $294 $290 $295 forward $73 $-1 #
coedge $-1 $292 $122 $119 $200 forward $205 $-1 #
edge $-1 $207 1.2952950225304658 $296 9.9514880851819907 $199 $297 forward 7 unknown #
coedge $-1 $298 $299 $120 $202 forward $194 $-1 #
edge $-1 $300 -73.304530931821404 $206 -68.660095065592813 $201 $301 forward 7 unknown #
edge $-1 $207 99.199054957100799 $300 106.00909451582382 $121 $302 forward 7 unknown #
coedge $-1 $122 $292 $298 $303 forward $205 $-1 #
loop $-1 $-1 $292 $193 #
vertex $-1 $202 $304 #
vertex $-1 $123 $305 #
straight-curve $-1 23.886216925548652 -6.918686576386694 7.8635463515401369 -1 0 0 I I #
coedge $-1 $209 $209 $-1 $306 reversed $126 $-1 #
edge $-1 $307 0 $307 6.2831853071796004 $127 $308 forward 7 unknown #
vertex $-1 $130 $309 #
ellipse-curve $-1 50.514273463935545 -13.101681621137782 5.5413284184258487 0.68199836817093118 0 0.7313536940579346 0.7313536940579346 0 -0.68199836817093118 1 I I #
coedge $-1 $213 $213 $-1 $310 reversed $133 $-1 #
edge $-1 $311 0 $311 6.2831853071796004 $134 $312 forward 7 unknown #
vertex $-1 $137 $313 #
ellipse-curve $-1 50.514273463935545 -9.391884594287129 5.5413284184258487 0.68199836817093118 0 0.7313536940579346 0.7313536940579346 0 -0.68199836817093118 1 I I #
face $-1 $-1 $314 $29 $-1 $315 reversed single #
loop $-1 $-1 $144 $138 #
plane-surface $-1 0 0 7.8635463515401414 0 0 1 1 0 0 forward_v I I I I #
coedge $-1 $316 $317 $318 $319 reversed $139 $-1 #
coedge $-1 $320 $141 $143 $227 forward $87 $-1 #
coedge $-1 $141 $320 $316 $321 forward $87 $-1 #
coedge $-1 $318 $144 $141 $224 forward $218 $-1 #
edge $-1 $230 -9.9514880851819907 $322 -1.2952950225304658 $223 $323 forward 7 unknown #
coedge $-1 $324 $325 $142 $226 forward $314 $-1 #
edge $-1 $326 -37.15551619628647 $229 -32.511080330057872 $225 $327 forward 7 unknown #
edge $-1 $230 -6.8100395587230516 $326 -1.9479204584885432e-014 $143 $328 forward 7 unknown #
coedge $-1 $144 $318 $324 $329 forward $218 $-1 #
vertex $-1 $145 $330 #
vertex $-1 $145 $331 #
straight-curve $-1 -62.651288364490902 -15.574879639038219 7.863546351540144 1 0 0 I I #
coedge $-1 $232 $232 $-1 $332 reversed $148 $-1 #
edge $-1 $333 0 $333 6.2831853071796004 $149 $334 forward 7 unknown #
vertex $-1 $152 $335 #
ellipse-curve $-1 -50.514273463935545 -13.101681621137782 5.5413284184258425 -0.68199836817093118 0 0.7313536940579346 0.7313536940579346 0 0.68199836817093118 1 I I #
coedge $-1 $236 $236 $-1 $336 reversed $155 $-1 #
edge $-1 $337 0 $337 6.2831853071796004 $156 $338 forward 7 unknown #
vertex $-1 $159 $339 #
ellipse-curve $-1 -50.514273463935545 -9.391884594287129 5.5413284184258425 -0.68199836817093118 0 0.7313536940579346 0.7313536940579346 0 0.68199836817093118 1 I I #
face $-1 $-1 $175 $24 $-1 $340 reversed single #
loop $-1 $-1 $256 $160 #
plane-surface $-1 0 21.239671205964392 0 0 -1 0 0 0 -1 forward_v I I I I #
coedge $-1 $341 $254 $257 $342 forward $161 $-1 #
coedge $-1 $260 $163 $164 $248 reversed $101 $-1 #
coedge $-1 $254 $341 $163 $246 reversed $161 $-1 #
edge $-1 $261 -7.8635463515401414 $343 7.8635463515401414 $245 $344 forward 7 unknown #
coedge $-1 $165 $164 $341 $345 forward $65 $-1 #
edge $-1 $252 -53.004547257911923 $343 53.004547257911923 $244 $346 forward 7 unknown #
coedge $-1 $257 $256 $165 $250 reversed $241 $-1 #
edge $-1 $347 -53.004547257911923 $251 53.004547257911923 $249 $348 forward 7 unknown #
vertex $-1 $167 $349 #
vertex $-1 $263 $350 #
straight-curve $-1 53.004547257911923 0 -7.8635463515401414 0 -1 0 I I #
coedge $-1 $243 $245 $168 $255 reversed $161 $-1 #
edge $-1 $258 -21.239671205964392 $261 21.239671205964392 $254 $351 forward 7 unknown #
coedge $-1 $249 $169 $174 $264 forward $241 $-1 #
coedge $-1 $169 $249 $243 $342 reversed $241 $-1 #
vertex $-1 $170 $352 #
straight-curve $-1 0 21.239671205964392 7.8635463515401414 -1 0 0 I I #
coedge $-1 $171 $244 $173 $263 reversed $101 $-1 #
vertex $-1 $255 $353 #
straight-curve $-1 0 -21.239671205964392 7.8635463515401414 1 0 0 I I #
edge $-1 $176 -7.8635463515401414 $252 7.8635463515401414 $173 $354 forward 7 unknown #
edge $-1 $177 -7.8635463515401414 $251 7.8635463515401414 $174 $355 forward 7 unknown #
point $-1 53.004547257911923 -21.239671205964392 7.8635463515401414 #
point $-1 53.004547257911923 21.239671205964392 7.8635463515401414 #
face $-1 $-1 $283 $25 $-1 $356 reversed single #
loop $-1 $-1 $357 $179 #
plane-surface $-1 0 -26.904462772890561 3.6209699308592773 0 1 0 0 0 1 forward_v I I I I #
coedge $-1 $358 $280 $282 $359 forward $180 $-1 #
coedge $-1 $182 $189 $360 $361 forward $109 $-1 #
coedge $-1 $362 $187 $182 $273 reversed $283 $-1 #
edge $-1 $363 -2.8323957834630846 $191 2.8323957834630846 $272 $364 forward 7 unknown #
coedge $-1 $184 $183 $357 $365 reversed $69 $-1 #
coedge $-1 $280 $358 $183 $276 forward $180 $-1 #
edge $-1 $366 -2.8323957834630846 $278 2.8323957834630846 $183 $367 forward 7 unknown #
edge $-1 $190 -2.8323957834630846 $368 2.8323957834630846 $184 $369 forward 7 unknown #
vertex $-1 $185 $370 #
straight-curve $-1 -53.004547257911923 -21.239671205964392 0 0 0 -1 I I #
coedge $-1 $270 $275 $186 $281 reversed $180 $-1 #
edge $-1 $284 -53.004547257911923 $278 53.004547257911923 $280 $371 forward 7 unknown #
coedge $-1 $187 $362 $270 $359 reversed $283 $-1 #
loop $-1 $-1 $187 $267 #
vertex $-1 $188 $372 #
straight-curve $-1 53.004547257911923 -21.239671205964392 0 0 0 1 I I #
point $-1 -53.004547257911923 -21.239671205964392 5.1209699308592773 #
point $-1 53.004547257911923 -21.239671205964392 5.1209699308592773 #
plane-surface $-1 0 0 7.8635463515401414 0 0 1 1 0 0 forward_v I I I I #
coedge $-1 $299 $298 $291 $373 forward $194 $-1 #
coedge $-1 $291 $196 $198 $295 reversed $117 $-1 #
coedge $-1 $196 $290 $289 $373 reversed $117 $-1 #
coedge $-1 $204 $199 $196 $293 forward $205 $-1 #
edge $-1 $296 24.137782744410529 $374 29.118330332363271 $292 $375 forward 7 unknown #
coedge $-1 $198 $197 $299 $376 reversed $73 $-1 #
edge $-1 $377 -106.00909451582382 $296 -99.199054957100799 $290 $378 forward 7 unknown #
vertex $-1 $200 $379 #
straight-curve $-1 48.023999669959167 -5.6233915538562282 7.863546351540144 0 -1 0 I I #
coedge $-1 $289 $201 $204 $303 reversed $194 $-1 #
coedge $-1 $201 $289 $294 $376 forward $194 $-1 #
vertex $-1 $202 $380 #
straight-curve $-1 53.004547257911923 -6.918686576386694 76.52364141713295 0 0 1 I I #
straight-curve $-1 -24.525595619972563 -6.918686576386694 75.517139956381399 0.7313536940579346 0 -0.68199836817093118 I I #
edge $-1 $374 -15.574879639038219 $206 -6.918686576386694 $298 $381 forward 7 unknown #
point $-1 53.004547257911923 -6.918686576386694 7.8635463515401414 #
point $-1 48.023999669959181 -6.918686576386694 7.8635463515401369 #
edge $-1 $382 1 $382 0 $209 $-1 forward 7 unknown #
vertex $-1 $210 $383 #
ellipse-curve $-1 49.626158275793394 -13.101681621137782 4.588941500934089 0.68199836817093118 0 0.7313536940579346 0.7313536940579346 0 -0.68199836817093118 1 I I #
point $-1 51.245627157993468 -13.101681621137782 4.8593300502549051 #
edge $-1 $384 1 $384 0 $213 $-1 forward 7 unknown #
vertex $-1 $214 $385 #
ellipse-curve $-1 49.626158275793394 -9.391884594287129 4.588941500934089 0.68199836817093118 0 0.7313536940579346 0.7313536940579346 0 -0.68199836817093118 1 I I #
point $-1 51.245627157993468 -9.391884594287129 4.8593300502549051 #
loop $-1 $-1 $225 $217 #
plane-surface $-1 -53.004547257911923 0 0 1 0 0 0 0 -1 forward_v I I I I #
coedge $-1 $317 $220 $222 $321 reversed $139 $-1 #
coedge $-1 $220 $316 $386 $387 reversed $139 $-1 #
coedge $-1 $228 $223 $220 $319 forward $218 $-1 #
edge $-1 $322 -14.627288694531735 $388 -9.646741106578979 $318 $389 forward 7 unknown #
coedge $-1 $222 $221 $325 $390 reversed $87 $-1 #
edge $-1 $391 1.9479204584885432e-014 $322 6.8100395587230516 $316 $392 forward 7 unknown #
vertex $-1 $224 $393 #
straight-curve $-1 -48.023999669959167 -5.6233915538562282 7.8635463515401405 0 1 0 I I #
coedge $-1 $386 $225 $228 $329 reversed $314 $-1 #
coedge $-1 $225 $386 $320 $390 forward $314 $-1 #
vertex $-1 $226 $394 #
straight-curve $-1 -53.004547257911923 -15.574879639038219 40.374626681598016 0 0 1 I I #
straight-curve $-1 -53.004547257911938 -15.574879639038219 3.219110485311532 -0.7313536940579346 0 -0.68199836817093118 I I #
edge $-1 $388 6.918686576386694 $229 15.574879639038219 $324 $395 forward 7 unknown #
point $-1 -53.004547257911923 -15.574879639038219 7.8635463515401414 #
point $-1 -48.023999669959167 -15.574879639038219 7.8635463515401414 #
edge $-1 $396 1 $396 0 $232 $-1 forward 7 unknown #
vertex $-1 $233 $397 #
ellipse-curve $-1 -49.626158275793394 -13.101681621137782 4.5889415009340837 -0.68199836817093118 0 0.7313536940579346 0.7313536940579346 0 0.68199836817093118 1 I I #
point $-1 -49.782919769877601 -13.101681621137782 6.2233267865967621 #
edge $-1 $398 1 $398 0 $236 $-1 forward 7 unknown #
vertex $-1 $237 $399 #
ellipse-curve $-1 -49.626158275793394 -9.391884594287129 4.5889415009340837 -0.68199836817093118 0 0.7313536940579346 0.7313536940579346 0 0.68199836817093118 1 I I #
point $-1 -49.782919769877601 -9.391884594287129 6.2233267865967621 #
plane-surface $-1 53.004547257911923 0 0 -1 0 0 0 0 1 forward_v I I I I #
coedge $-1 $245 $243 $247 $345 reversed $161 $-1 #
edge $-1 $258 -7.8635463515401414 $347 7.8635463515401414 $257 $400 forward 7 unknown #
vertex $-1 $345 $401 #
straight-curve $-1 -53.004547257911923 -21.239671205964392 0 0 0 -1 I I #
edge $-1 $343 -21.239671205964392 $347 21.239671205964392 $341 $402 forward 7 unknown #
straight-curve $-1 0 -21.239671205964392 -7.8635463515401414 -1 0 0 I I #
vertex $-1 $250 $403 #
straight-curve $-1 0 21.239671205964392 -7.8635463515401414 1 0 0 I I #
point $-1 53.004547257911923 21.239671205964392 -7.8635463515401414 #
point $-1 53.004547257911923 -21.239671205964392 -7.8635463515401414 #
straight-curve $-1 -53.004547257911923 0 7.8635463515401414 0 -1 0 I I #
point $-1 -53.004547257911923 21.239671205964392 7.8635463515401414 #
point $-1 -53.004547257911923 -21.239671205964392 7.8635463515401414 #
straight-curve $-1 53.004547257911923 -21.239671205964392 0 0 0 -1 I I #
straight-curve $-1 53.004547257911923 21.239671205964392 0 0 0 -1 I I #
plane-surface $-1 53.004547257911923 0 0 -1 0 0 0 0 1 forward_v I I I I #
coedge $-1 $404 $360 $274 $365 forward $268 $-1 #
coedge $-1 $275 $270 $404 $405 forward $180 $-1 #
edge $-1 $284 -2.8323957834630846 $406 2.8323957834630846 $282 $407 forward 7 unknown #
coedge $-1 $357 $408 $271 $361 reversed $268 $-1 #
edge $-1 $368 -53.004547257911923 $363 53.004547257911923 $360 $409 forward 7 unknown #
coedge $-1 $282 $272 $408 $410 forward $283 $-1 #
vertex $-1 $273 $411 #
straight-curve $-1 53.004547257911923 -24.072066989427476 5.1209699308592773 0 1 0 I I #
edge $-1 $368 -1.5 $366 1.5 $274 $412 forward 7 unknown #
vertex $-1 $276 $413 #
straight-curve $-1 -53.004547257911923 -24.072066989427476 2.1209699308592773 0 1 0 I I #
vertex $-1 $277 $414 #
straight-curve $-1 -53.004547257911923 -24.072066989427476 5.1209699308592773 0 -1 0 I I #
point $-1 -53.004547257911923 -21.239671205964392 2.1209699308592773 #
straight-curve $-1 0 -21.239671205964392 2.1209699308592773 -1 0 0 I I #
point $-1 53.004547257911923 -21.239671205964392 2.1209699308592773 #
edge $-1 $374 68.660095065592813 $377 73.304530931821404 $289 $415 forward 7 unknown #
vertex $-1 $303 $416 #
straight-curve $-1 23.886216925548652 -15.574879639038219 7.8635463515401369 1 0 0 I I #
edge $-1 $377 -9.9514880851819907 $300 -1.2952950225304658 $299 $417 forward 7 unknown #
vertex $-1 $376 $418 #
straight-curve $-1 -24.525595619972563 -15.574879639038219 75.517139956381399 -0.7313536940579346 0 0.68199836817093118 I I #
point $-1 48.023999669959181 -15.574879639038219 7.8635463515401369 #
point $-1 53.004547257911923 -6.918686576386694 3.2191104853115462 #
straight-curve $-1 53.004547257911923 0 7.8635463515401414 0 1 0 I I #
vertex $-1 $306 $419 #
point $-1 50.357511969851323 -13.101681621137782 3.9069431327631579 #
vertex $-1 $310 $420 #
point $-1 50.357511969851323 -9.391884594287129 3.9069431327631579 #
coedge $-1 $325 $324 $317 $387 forward $314 $-1 #
edge $-1 $388 32.511080330057872 $391 37.15551619628647 $386 $421 forward 7 unknown #
vertex $-1 $329 $422 #
straight-curve $-1 -62.651288364490902 -6.918686576386694 7.863546351540144 -1 0 0 I I #
edge $-1 $391 1.2952950225304658 $326 9.9514880851819907 $325 $423 forward 7 unknown #
vertex $-1 $390 $424 #
straight-curve $-1 -53.004547257911938 -6.918686576386694 3.219110485311532 0.7313536940579346 0 0.68199836817093118 I I #
point $-1 -48.023999669959167 -6.918686576386694 7.8635463515401414 #
point $-1 -53.004547257911923 -15.574879639038219 3.2191104853115453 #
straight-curve $-1 -53.004547257911923 0 7.8635463515401414 0 -1 0 I I #
vertex $-1 $332 $425 #
point $-1 -48.894804581735457 -13.101681621137782 5.2709398691050149 #
vertex $-1 $336 $426 #
point $-1 -48.894804581735457 -9.391884594287129 5.2709398691050149 #
straight-curve $-1 -53.004547257911923 21.239671205964392 0 0 0 -1 I I #
point $-1 -53.004547257911923 -21.239671205964392 -7.8635463515401414 #
straight-curve $-1 -53.004547257911923 0 -7.8635463515401414 0 1 0 I I #
point $-1 -53.004547257911923 21.239671205964392 -7.8635463515401414 #
coedge $-1 $408 $357 $358 $405 reversed $268 $-1 #
edge $-1 $406 -53.004547257911923 $366 53.004547257911923 $404 $427 forward 7 unknown #
vertex $-1 $410 $428 #
straight-curve $-1 53.004547257911923 -24.072066989427476 2.1209699308592773 0 -1 0 I I #
coedge $-1 $360 $404 $362 $410 reversed $268 $-1 #
straight-curve $-1 0 -26.904462772890561 5.1209699308592773 1 0 0 I I #
edge $-1 $363 -1.5 $406 1.5 $362 $429 forward 7 unknown #
point $-1 53.004547257911923 -26.904462772890561 5.1209699308592773 #
straight-curve $-1 -53.004547257911923 -26.904462772890561 3.6209699308592773 0 0 -1 I I #
point $-1 -53.004547257911923 -26.904462772890561 2.1209699308592773 #
point $-1 -53.004547257911923 -26.904462772890561 5.1209699308592773 #
straight-curve $-1 53.004547257911923 -15.574879639038219 76.52364141713295 0 0 -1 I I #
point $-1 53.004547257911923 -15.574879639038219 7.8635463515401414 #
straight-curve $-1 53.004547257911923 -5.6233915538562282 3.2191104853115462 0 1 0 I I #
point $-1 53.004547257911923 -15.574879639038219 3.2191104853115462 #
point $-1 48.944159907622456 -13.101681621137782 3.857587806876154 #
point $-1 48.944159907622456 -9.391884594287129 3.857587806876154 #
straight-curve $-1 -53.004547257911923 -6.918686576386694 40.374626681598016 0 0 -1 I I #
point $-1 -53.004547257911923 -6.918686576386694 7.8635463515401414 #
straight-curve $-1 -53.004547257911923 -5.6233915538562282 3.2191104853115462 0 -1 0 I I #
point $-1 -53.004547257911923 -6.918686576386694 3.2191104853115453 #
point $-1 -48.944159907622456 -13.101681621137782 3.8575878068761487 #
point $-1 -48.944159907622456 -9.391884594287129 3.8575878068761487 #
straight-curve $-1 0 -26.904462772890561 2.1209699308592773 -1 0 0 I I #
point $-1 53.004547257911923 -26.904462772890561 2.1209699308592773 #
straight-curve $-1 53.004547257911923 -26.904462772890561 3.6209699308592773 0 0 -1 I I #
End-of-ACIS-data 