500 0 4 0           
7 Unknown 11 ACIS 5.0 NT 24 Fri Mar 26 16:55:03 1999 
-1 9.9999999999999995e-007 1e-010 
body $-1 $4 $-1 $5 #
body $-1 $6 $-1 $7 #
body $-1 $8 $-1 $9 #
body $-1 $10 $-1 $11 #
lump $-1 $-1 $12 $0 #
transform $-1 1 0 0 0 1 0 0 0 1 69.559007538071839 28.453448821574938 11.077454632009863 1 rotate no_reflect no_shear #
lump $-1 $-1 $13 $1 #
transform $-1 1 0 0 0 1 0 0 0 1 69.559007538071839 28.453448821574938 11.077454632009863 1 rotate no_reflect no_shear #
lump $-1 $-1 $14 $2 #
transform $-1 1 0 0 0 1 0 0 0 1 69.559007538071839 28.453448821574938 11.077454632009863 1 rotate no_reflect no_shear #
lump $-1 $-1 $15 $3 #
transform $-1 1 0 0 0 1 0 0 0 1 69.559007538071839 28.453448821574938 11.077454632009863 1 rotate no_reflect no_shear #
shell $-1 $-1 $-1 $16 $-1 $4 #
shell $-1 $-1 $-1 $17 $-1 $6 #
shell $-1 $-1 $-1 $18 $-1 $8 #
shell $-1 $-1 $-1 $19 $-1 $10 #
face $-1 $20 $21 $12 $-1 $22 forward single #
face $-1 $23 $24 $13 $-1 $25 forward single #
face $-1 $26 $27 $14 $-1 $28 reversed single #
face $-1 $29 $30 $15 $-1 $31 forward single #
face $-1 $32 $33 $12 $-1 $34 reversed single #
loop $-1 $-1 $35 $16 #
plane-surface $-1 0 0 11.077454632009863 0 0 1 1 0 0 forward_v I I I I #
face $-1 $36 $37 $13 $-1 $38 reversed single #
loop $-1 $-1 $39 $17 #
plane-surface $-1 0 -22.3254463554062 -7.8923863904858376 0 0 1 1 0 0 forward_v I I I I #
face $-1 $40 $41 $14 $-1 $42 reversed single #
loop $-1 $-1 $43 $18 #
plane-surface $-1 38.571103346774194 118.3916451042038 125.15346570879196 1 0 0 0 -0.85716730853699208 -0.51503806187062418 forward_v I I I I #
face $-1 $44 $45 $15 $-1 $46 forward single #
loop $-1 $47 $48 $19 #
cone-surface $-1 54.065055442423017 25.511826906557506 7.2800190175551522 0 -0.85716730853699208 -0.51503806187062418 1 0 0 1 I I 0 1 1 forward I I I I #
face $-1 $49 $50 $12 $-1 $51 reversed single #
loop $-1 $-1 $52 $20 #
plane-surface $-1 0 0 -11.077454632009863 0 0 1 1 0 0 forward_v I I I I #
coedge $-1 $53 $54 $55 $56 forward $21 $-1 #
face $-1 $57 $58 $13 $-1 $59 reversed single #
loop $-1 $-1 $60 $23 #
plane-surface $-1 0 -16.197443889237462 -9.4849205112478501 0 -1 0 0 0 -1 forward_v I I I I #
coedge $-1 $61 $62 $63 $64 reversed $24 $-1 #
face $-1 $65 $66 $14 $-1 $67 reversed single #
loop $-1 $-1 $68 $26 #
plane-surface $-1 54.065055442423017 -0.85576944762296137 53.50239285268664 0 0.85716730853699208 0.51503806187062418 1 0 0 forward_v I I I I #
coedge $-1 $69 $70 $71 $72 reversed $27 $-1 #
face $-1 $-1 $73 $15 $-1 $74 forward single #
loop $-1 $75 $76 $29 #
cone-surface $-1 54.065055442423017 24.050493590320201 6.4019614068111803 0 -0.85716730853699208 -0.51503806187062418 0.5 0 0 1 I I -0.70710678118654746 0.70710678118654746 0.5 forward I I I I #
loop $-1 $-1 $77 $19 #
coedge $-1 $48 $48 $78 $79 reversed $30 $-1 #
face $-1 $80 $81 $12 $-1 $82 reversed single #
loop $-1 $-1 $83 $32 #
plane-surface $-1 0 -28.453448821574938 0 0 1 0 0 0 1 forward_v I I I I #
coedge $-1 $84 $85 $86 $87 forward $33 $-1 #
coedge $-1 $88 $35 $89 $90 forward $21 $-1 #
coedge $-1 $35 $88 $91 $92 forward $21 $-1 #
coedge $-1 $93 $94 $35 $56 reversed $95 $-1 #
edge $-1 $96 -28.453448821574938 $97 28.453448821574938 $55 $98 forward 7 unknown #
face $-1 $99 $100 $13 $-1 $101 reversed single #
loop $-1 $-1 $102 $36 #
plane-surface $-1 0 0 -11.077454632009863 0 0 1 1 0 0 forward_v I I I I #
coedge $-1 $103 $104 $105 $106 reversed $37 $-1 #
coedge $-1 $107 $39 $104 $108 forward $24 $-1 #
coedge $-1 $39 $107 $109 $110 reversed $24 $-1 #
coedge $-1 $111 $105 $39 $64 forward $100 $-1 #
edge $-1 $112 5.0347207115343622 $113 17.290725643871838 $63 $114 forward 7 unknown #
face $-1 $115 $116 $14 $-1 $117 forward single #
loop $-1 $-1 $118 $40 #
plane-surface $-1 69.559007538071839 0 0 -1 0 0 0 0 1 forward_v I I I I #
coedge $-1 $119 $120 $121 $122 reversed $41 $-1 #
coedge $-1 $70 $43 $123 $124 reversed $27 $-1 #
coedge $-1 $43 $69 $119 $125 reversed $27 $-1 #
coedge $-1 $121 $126 $43 $72 forward $116 $-1 #
edge $-1 $127 30.742373730526964 $128 34.560118236624206 $71 $129 forward 7 unknown #
loop $-1 $-1 $78 $44 #
plane-surface $-1 54.065055442423017 -0.85576944762296137 53.50239285268664 0 0.85716730853699208 0.51503806187062418 1 0 0 forward_v I I I I #
loop $-1 $-1 $130 $29 #
coedge $-1 $76 $76 $77 $131 reversed $45 $-1 #
coedge $-1 $77 $77 $76 $131 forward $47 $-1 #
coedge $-1 $78 $78 $48 $79 forward $73 $-1 #
edge $-1 $132 -1.0684652619956698e-015 $132 6.2831853071795996 $78 $133 forward 7 unknown #
face $-1 $134 $135 $12 $-1 $136 reversed single #
loop $-1 $-1 $137 $49 #
plane-surface $-1 -69.559007538071839 0 0 1 0 0 0 0 -1 forward_v I I I I #
coedge $-1 $138 $91 $139 $140 forward $50 $-1 #
coedge $-1 $141 $52 $138 $142 forward $33 $-1 #
coedge $-1 $52 $141 $143 $144 forward $33 $-1 #
coedge $-1 $94 $93 $52 $87 reversed $95 $-1 #
edge $-1 $145 -28.453448821574938 $146 28.453448821574938 $86 $147 forward 7 unknown #
coedge $-1 $54 $53 $148 $149 forward $21 $-1 #
coedge $-1 $150 $151 $53 $90 reversed $135 $-1 #
edge $-1 $97 -69.559007538071839 $152 69.559007538071839 $89 $153 forward 7 unknown #
coedge $-1 $83 $154 $54 $92 reversed $50 $-1 #
edge $-1 $155 -69.559007538071839 $96 69.559007538071839 $91 $156 forward 7 unknown #
coedge $-1 $86 $55 $154 $157 forward $95 $-1 #
coedge $-1 $55 $86 $150 $158 reversed $95 $-1 #
loop $-1 $-1 $93 $134 #
vertex $-1 $56 $159 #
vertex $-1 $56 $160 #
straight-curve $-1 69.559007538071839 0 11.077454632009863 0 1 0 I I #
face $-1 $161 $162 $13 $-1 $163 reversed single #
loop $-1 $-1 $105 $57 #
plane-surface $-1 69.559007538071839 0 0 -1 0 0 0 0 1 forward_v I I I I #
coedge $-1 $164 $165 $103 $166 forward $58 $-1 #
coedge $-1 $167 $60 $102 $166 reversed $37 $-1 #
coedge $-1 $60 $167 $61 $108 reversed $37 $-1 #
coedge $-1 $63 $168 $60 $106 forward $100 $-1 #
edge $-1 $169 -6.3349943763859375 $112 -3.1499261348619125 $105 $170 forward 7 unknown #
coedge $-1 $62 $61 $171 $172 reversed $24 $-1 #
edge $-1 $112 -69.559007538071839 $173 69.559007538071839 $104 $174 forward 7 unknown #
coedge $-1 $175 $176 $62 $110 forward $162 $-1 #
edge $-1 $113 -69.559007538071839 $177 69.559007538071839 $109 $178 forward 7 unknown #
coedge $-1 $168 $63 $176 $179 forward $100 $-1 #
vertex $-1 $64 $180 #
vertex $-1 $179 $181 #
straight-curve $-1 69.559007538071839 -11.1627231777031 -7.8923863904858376 0 -1 0 I I #
face $-1 $-1 $182 $14 $-1 $183 reversed single #
loop $-1 $-1 $121 $65 #
plane-surface $-1 0 0 11.077454632009863 0 0 1 1 0 0 forward_v I I I I #
coedge $-1 $184 $185 $120 $186 forward $66 $-1 #
coedge $-1 $187 $68 $70 $125 forward $41 $-1 #
coedge $-1 $68 $187 $118 $186 reversed $41 $-1 #
coedge $-1 $188 $71 $68 $122 forward $116 $-1 #
edge $-1 $128 11.538575625562686 $189 42.526479816860331 $121 $190 forward 7 unknown #
coedge $-1 $191 $192 $69 $124 forward $182 $-1 #
edge $-1 $193 -57.853072291678203 $127 -51.499278222386117 $123 $194 forward 7 unknown #
edge $-1 $128 49.49434935063892 $193 56.906897643149875 $70 $195 forward 7 unknown #
coedge $-1 $71 $188 $191 $196 forward $116 $-1 #
vertex $-1 $124 $197 #
vertex $-1 $72 $198 #
straight-curve $-1 38.571103346774194 59.195822552101902 11.077454632009861 0 -1 0 I I #
coedge $-1 $130 $130 $-1 $199 reversed $75 $-1 #
edge $-1 $200 0 $200 6.2831853071796004 $76 $201 forward 7 unknown #
vertex $-1 $79 $202 #
ellipse-curve $-1 54.065055442423017 26.544576568526313 7.9005575973638136 0 0.85716730853699208 0.51503806187062418 1 0 0 1 I I #
face $-1 $-1 $95 $12 $-1 $203 reversed single #
loop $-1 $-1 $150 $80 #
plane-surface $-1 0 28.453448821574938 0 0 -1 0 0 0 -1 forward_v I I I I #
coedge $-1 $204 $148 $151 $205 forward $81 $-1 #
coedge $-1 $154 $83 $84 $142 reversed $50 $-1 #
coedge $-1 $148 $204 $83 $140 reversed $81 $-1 #
edge $-1 $155 -11.077454632009863 $206 11.077454632009863 $139 $207 forward 7 unknown #
coedge $-1 $85 $84 $204 $208 forward $33 $-1 #
edge $-1 $146 -69.559007538071839 $206 69.559007538071839 $138 $209 forward 7 unknown #
coedge $-1 $151 $150 $85 $144 reversed $135 $-1 #
edge $-1 $210 -69.559007538071839 $145 69.559007538071839 $143 $211 forward 7 unknown #
vertex $-1 $87 $212 #
vertex $-1 $157 $213 #
straight-curve $-1 69.559007538071839 0 -11.077454632009863 0 -1 0 I I #
coedge $-1 $137 $139 $88 $149 reversed $81 $-1 #
edge $-1 $152 -28.453448821574938 $155 28.453448821574938 $148 $214 forward 7 unknown #
coedge $-1 $143 $89 $94 $158 forward $135 $-1 #
coedge $-1 $89 $143 $137 $205 reversed $135 $-1 #
vertex $-1 $90 $215 #
straight-curve $-1 0 28.453448821574938 11.077454632009863 -1 0 0 I I #
coedge $-1 $91 $138 $93 $157 reversed $50 $-1 #
vertex $-1 $149 $216 #
straight-curve $-1 0 -28.453448821574938 11.077454632009863 1 0 0 I I #
edge $-1 $96 -11.077454632009863 $146 11.077454632009863 $93 $217 forward 7 unknown #
edge $-1 $97 -11.077454632009863 $145 11.077454632009863 $94 $218 forward 7 unknown #
point $-1 69.559007538071839 -28.453448821574938 11.077454632009863 #
point $-1 69.559007538071839 28.453448821574938 11.077454632009863 #
face $-1 $-1 $219 $13 $-1 $220 reversed single #
loop $-1 $-1 $109 $99 #
plane-surface $-1 0 -28.453448821574938 0 0 1 0 0 0 1 forward_v I I I I #
coedge $-1 $221 $102 $168 $222 forward $58 $-1 #
coedge $-1 $102 $221 $223 $224 forward $58 $-1 #
edge $-1 $225 -69.559007538071839 $169 69.559007538071839 $102 $226 forward 7 unknown #
coedge $-1 $104 $103 $227 $228 reversed $37 $-1 #
coedge $-1 $105 $111 $164 $222 reversed $100 $-1 #
vertex $-1 $222 $229 #
straight-curve $-1 69.559007538071839 -16.197443889237462 -4.742460255623925 0 0 1 I I #
coedge $-1 $227 $230 $107 $172 forward $219 $-1 #
edge $-1 $177 -17.290725643871838 $173 -5.0347207115343622 $171 $231 forward 7 unknown #
vertex $-1 $172 $232 #
straight-curve $-1 0 -16.197443889237462 -7.8923863904858376 -1 0 0 I I #
coedge $-1 $233 $109 $230 $234 forward $162 $-1 #
coedge $-1 $109 $233 $111 $179 reversed $162 $-1 #
vertex $-1 $234 $235 #
straight-curve $-1 0 -28.453448821574938 -7.8923863904858376 -1 0 0 I I #
edge $-1 $113 7.8923863904858376 $236 11.077454632009863 $111 $237 forward 7 unknown #
point $-1 69.559007538071839 -16.197443889237462 -7.8923863904858376 #
point $-1 69.559007538071839 -28.453448821574938 -7.8923863904858376 #
loop $-1 $-1 $123 $115 #
plane-surface $-1 0 28.453448821574938 0 0 -1 0 0 0 -1 forward_v I I I I #
coedge $-1 $185 $118 $238 $239 reversed $66 $-1 #
coedge $-1 $118 $184 $188 $240 reversed $66 $-1 #
edge $-1 $189 26.343721390869899 $241 33.75626968338085 $118 $242 forward 7 unknown #
coedge $-1 $120 $119 $192 $243 reversed $41 $-1 #
coedge $-1 $126 $121 $185 $240 forward $116 $-1 #
vertex $-1 $240 $244 #
straight-curve $-1 27.032527721211508 24.635704315477689 11.077454632009861 1 0 0 I I #
coedge $-1 $238 $123 $126 $196 reversed $182 $-1 #
coedge $-1 $123 $238 $187 $243 forward $182 $-1 #
vertex $-1 $124 $245 #
straight-curve $-1 38.571103346774194 28.453448821574938 62.576732854395978 0 0 1 I I #
straight-curve $-1 38.571103346774194 -0.85576944762296137 53.50239285268664 0 0.51503806187062418 -0.85716730853699208 I I #
edge $-1 $246 -69.559007538071839 $127 -38.571103346774194 $191 $247 forward 7 unknown #
point $-1 38.571103346774194 28.453448821574938 11.077454632009863 #
point $-1 38.571103346774194 24.635704315477692 11.077454632009861 #
edge $-1 $248 1 $248 0 $130 $-1 forward 7 unknown #
vertex $-1 $131 $249 #
ellipse-curve $-1 54.065055442423017 24.479077244588698 6.6594804377464927 0 0.85716730853699208 0.51503806187062418 1 0 0 1 I I #
point $-1 55.065055442423017 26.54457656852631 7.9005575973638127 #
plane-surface $-1 69.559007538071839 0 0 -1 0 0 0 0 1 forward_v I I I I #
coedge $-1 $139 $137 $141 $208 reversed $81 $-1 #
edge $-1 $152 -11.077454632009863 $210 11.077454632009863 $151 $250 forward 7 unknown #
vertex $-1 $208 $251 #
straight-curve $-1 -69.559007538071839 -28.453448821574938 0 0 0 -1 I I #
edge $-1 $206 -28.453448821574938 $210 28.453448821574938 $204 $252 forward 7 unknown #
straight-curve $-1 0 -28.453448821574938 -11.077454632009863 -1 0 0 I I #
vertex $-1 $144 $253 #
straight-curve $-1 0 28.453448821574938 -11.077454632009863 1 0 0 I I #
point $-1 69.559007538071839 28.453448821574938 -11.077454632009863 #
point $-1 69.559007538071839 -28.453448821574938 -11.077454632009863 #
straight-curve $-1 -69.559007538071839 0 11.077454632009863 0 -1 0 I I #
point $-1 -69.559007538071839 28.453448821574938 11.077454632009863 #
point $-1 -69.559007538071839 -28.453448821574938 11.077454632009863 #
straight-curve $-1 69.559007538071839 -28.453448821574938 0 0 0 -1 I I #
straight-curve $-1 69.559007538071839 28.453448821574938 0 0 0 -1 I I #
loop $-1 $-1 $227 $161 #
plane-surface $-1 -69.559007538071839 0 0 1 0 0 0 0 -1 forward_v I I I I #
coedge $-1 $165 $164 $233 $254 forward $58 $-1 #
edge $-1 $169 16.197443889237462 $236 28.453448821574938 $168 $255 forward 7 unknown #
coedge $-1 $230 $227 $165 $224 reversed $219 $-1 #
edge $-1 $256 -28.453448821574938 $225 -16.197443889237462 $223 $257 forward 7 unknown #
vertex $-1 $228 $258 #
straight-curve $-1 0 -16.197443889237462 -11.077454632009863 1 0 0 I I #
coedge $-1 $223 $171 $167 $228 forward $219 $-1 #
edge $-1 $173 3.1499261348619125 $225 6.3349943763859375 $227 $259 forward 7 unknown #
point $-1 69.559007538071839 -16.197443889237462 -11.077454632009863 #
coedge $-1 $171 $223 $175 $234 reversed $219 $-1 #
straight-curve $-1 -69.559007538071839 -11.1627231777031 -7.8923863904858376 0 1 0 I I #
point $-1 -69.559007538071839 -16.197443889237462 -7.8923863904858376 #
coedge $-1 $176 $175 $221 $254 reversed $162 $-1 #
edge $-1 $177 7.8923863904858376 $256 11.077454632009863 $230 $260 forward 7 unknown #
point $-1 -69.559007538071839 -28.453448821574938 -7.8923863904858376 #
vertex $-1 $179 $261 #
straight-curve $-1 69.559007538071839 -28.453448821574938 0 0 0 -1 I I #
coedge $-1 $192 $191 $184 $239 forward $182 $-1 #
edge $-1 $246 -11.077454632009863 $241 -4.7236605627177752 $184 $262 forward 7 unknown #
edge $-1 $189 24.635704315477692 $246 28.453448821574938 $185 $263 forward 7 unknown #
vertex $-1 $186 $264 #
straight-curve $-1 69.559007538071839 11.067685107864355 33.658431393470195 0 0.51503806187062429 -0.85716730853699219 I I #
edge $-1 $241 -42.526479816860331 $193 -11.538575625562686 $192 $265 forward 7 unknown #
point $-1 69.559007538071839 24.635704315477692 11.077454632009861 #
point $-1 38.571103346774194 28.453448821574938 4.7236605627177752 #
vertex $-1 $240 $266 #
straight-curve $-1 0 28.453448821574938 11.077454632009863 -1 0 0 I I #
vertex $-1 $199 $267 #
point $-1 55.065055442423017 24.479077244588698 6.6594804377464927 #
straight-curve $-1 -69.559007538071839 28.453448821574938 0 0 0 -1 I I #
point $-1 -69.559007538071839 -28.453448821574938 -11.077454632009863 #
straight-curve $-1 -69.559007538071839 0 -11.077454632009863 0 1 0 I I #
point $-1 -69.559007538071839 28.453448821574938 -11.077454632009863 #
edge $-1 $236 -69.559007538071839 $256 69.559007538071839 $233 $268 forward 7 unknown #
straight-curve $-1 69.559007538071839 0 -11.077454632009863 0 -1 0 I I #
vertex $-1 $224 $269 #
straight-curve $-1 -69.559007538071839 0 -11.077454632009863 0 1 0 I I #
point $-1 -69.559007538071839 -16.197443889237462 -11.077454632009863 #
straight-curve $-1 -69.559007538071839 -16.197443889237462 -4.742460255623925 0 0 -1 I I #
straight-curve $-1 -69.559007538071839 -28.453448821574938 0 0 0 -1 I I #
point $-1 69.559007538071839 -28.453448821574938 -11.077454632009863 #
straight-curve $-1 69.559007538071839 28.453448821574938 0 0 0 -1 I I #
straight-curve $-1 69.559007538071839 0 11.077454632009863 0 1 0 I I #
point $-1 69.559007538071839 28.453448821574938 4.7236605627177752 #
straight-curve $-1 27.032527721211508 28.453448821574938 4.7236605627177717 -1 0 0 I I #
point $-1 69.559007538071839 28.453448821574938 11.077454632009863 #
point $-1 54.065055442423017 23.621909936051704 6.1444423758758679 #
straight-curve $-1 0 -28.453448821574938 -11.077454632009863 -1 0 0 I I #
point $-1 -69.559007538071839 -28.453448821574938 -11.077454632009863 #
End-of-ACIS-data 