500 0 11 0           
7 Unknown 11 ACIS 5.0 NT 24 Fri Mar 26 20:22:26 1999 
-1 9.9999999999999995e-007 1e-010 
body $-1 $11 $-1 $12 #
body $-1 $13 $-1 $14 #
body $-1 $15 $-1 $16 #
body $-1 $17 $-1 $18 #
body $-1 $19 $-1 $20 #
body $-1 $21 $-1 $22 #
body $-1 $23 $-1 $24 #
body $-1 $25 $-1 $26 #
body $-1 $27 $-1 $28 #
body $-1 $29 $-1 $30 #
body $-1 $31 $-1 $32 #
lump $-1 $-1 $33 $0 #
transform $-1 1 0 0 0 1 0 0 0 1 46.712851344340343 32.319642025735376 12.099127807638343 1 rotate no_reflect no_shear #
lump $-1 $-1 $34 $1 #
transform $-1 1 0 0 0 1 0 0 0 1 46.712851344340343 32.319642025735376 12.099127807638343 1 rotate no_reflect no_shear #
lump $-1 $-1 $35 $2 #
transform $-1 1 0 0 0 1 0 0 0 1 46.712851344340343 32.319642025735376 12.099127807638343 1 rotate no_reflect no_shear #
lump $-1 $-1 $36 $3 #
transform $-1 1 0 0 0 1 0 0 0 1 46.712851344340343 32.319642025735376 12.099127807638343 1 rotate no_reflect no_shear #
lump $-1 $-1 $37 $4 #
transform $-1 1 0 0 0 1 0 0 0 1 46.712851344340343 32.319642025735376 12.099127807638343 1 rotate no_reflect no_shear #
lump $-1 $-1 $38 $5 #
transform $-1 1 0 0 0 1 0 0 0 1 46.712851344340343 32.319642025735376 12.099127807638343 1 rotate no_reflect no_shear #
lump $-1 $-1 $39 $6 #
transform $-1 1 0 0 0 1 0 0 0 1 46.712851344340343 32.319642025735376 12.099127807638343 1 rotate no_reflect no_shear #
lump $-1 $-1 $40 $7 #
transform $-1 1 0 0 0 1 0 0 0 1 46.712851344340343 32.319642025735376 12.099127807638343 1 rotate no_reflect no_shear #
lump $-1 $-1 $41 $8 #
transform $-1 1 0 0 0 1 0 0 0 1 46.712851344340343 32.319642025735376 12.099127807638343 1 rotate no_reflect no_shear #
lump $-1 $-1 $42 $9 #
transform $-1 1 0 0 0 1 0 0 0 1 46.712851344340343 32.319642025735376 12.099127807638343 1 rotate no_reflect no_shear #
lump $-1 $-1 $43 $10 #
transform $-1 1 0 0 0 1 0 0 0 1 46.712851344340343 32.319642025735376 12.099127807638343 1 rotate no_reflect no_shear #
shell $-1 $-1 $-1 $44 $-1 $11 #
shell $-1 $-1 $-1 $45 $-1 $13 #
shell $-1 $-1 $-1 $46 $-1 $15 #
shell $-1 $-1 $-1 $47 $-1 $17 #
shell $-1 $-1 $-1 $48 $-1 $19 #
shell $-1 $-1 $-1 $49 $-1 $21 #
shell $-1 $-1 $-1 $50 $-1 $23 #
shell $-1 $-1 $-1 $51 $-1 $25 #
shell $-1 $-1 $-1 $52 $-1 $27 #
shell $-1 $-1 $-1 $53 $-1 $29 #
shell $-1 $-1 $-1 $54 $-1 $31 #
face $-1 $55 $56 $33 $-1 $57 forward single #
face $-1 $58 $59 $34 $-1 $60 reversed single #
face $-1 $61 $62 $35 $-1 $63 reversed single #
face $-1 $64 $65 $36 $-1 $66 reversed single #
face $-1 $67 $68 $37 $-1 $69 forward single #
face $-1 $70 $71 $38 $-1 $72 reversed single #
face $-1 $73 $74 $39 $-1 $75 forward single #
face $-1 $76 $77 $40 $-1 $78 reversed single #
face $-1 $79 $80 $41 $-1 $81 forward single #
face $-1 $82 $83 $42 $-1 $84 forward single #
face $-1 $85 $86 $43 $-1 $87 forward single #
face $-1 $88 $89 $33 $-1 $90 reversed single #
loop $-1 $-1 $91 $44 #
plane-surface $-1 0 0 12.099127807638343 0 0 1 1 0 0 forward_v I I I I #
face $-1 $92 $93 $34 $-1 $94 reversed single #
loop $-1 $-1 $95 $45 #
plane-surface $-1 -38.123445203296924 -24.336045447059981 0 1 0 0 0 0 -1 forward_v I I I I #
face $-1 $96 $97 $35 $-1 $98 reversed single #
loop $-1 $-1 $99 $46 #
plane-surface $-1 -35.110940725663411 16.352448868384585 0 0 1 0 0 0 1 forward_v I I I I #
face $-1 $100 $101 $36 $-1 $102 reversed single #
loop $-1 $-1 $103 $47 #
plane-surface $-1 -46.712851344340343 -12.664056087220512 0.11440902910693751 -0.66913061440640931 0 0.74314481823134659 0.74314481823134659 0 0.66913061440640931 forward_v I I I I #
face $-1 $104 $105 $37 $-1 $106 forward single #
loop $-1 $107 $108 $48 #
cone-surface $-1 -38.258823544824502 -12.664056087220512 4.1089557857066215 0.66913061440640931 0 -0.74314481823134659 1.1147172273470198 0 1.003695921609614 1 I I 0 1 1.5 forward I I I I #
face $-1 $109 $110 $38 $-1 $111 reversed single #
loop $-1 $-1 $112 $49 #
plane-surface $-1 -109.22684918576778 8.9756633060564432 69.543235871822375 0 1 0 -0.66913061440640931 0 0.74314481823134659 forward_v I I I I #
face $-1 $113 $114 $39 $-1 $115 forward single #
loop $-1 $116 $117 $50 #
cone-surface $-1 -38.258823544824502 12.664056087220516 4.1089557857066215 0.66913061440640931 0 -0.74314481823134659 1.1147172273470198 0 1.003695921609614 1 I I 0 1 1.5 forward I I I I #
face $-1 $118 $119 $40 $-1 $120 reversed single #
loop $-1 $-1 $121 $51 #
plane-surface $-1 39.798022343052331 16.352448868384592 136.81576071028005 0 -1 0 -0.66913061440640931 0 -0.74314481823134659 forward_v I I I I #
face $-1 $122 $123 $41 $-1 $124 forward single #
loop $-1 $125 $126 $52 #
cone-surface $-1 42.365536610978843 11.304546911629906 8.1144595077720947 -0.66913061440640931 0 -0.74314481823134659 0.3715724091156733 0 -0.33456530720320465 1 I I 0 1 0.5 forward I I I I #
face $-1 $127 $128 $42 $-1 $129 forward single #
loop $-1 $130 $131 $53 #
cone-surface $-1 42.365536610978843 13.197510145412913 8.1144595077720947 -0.66913061440640931 0 -0.74314481823134659 0.3715724091156733 0 -0.33456530720320465 1 I I 0 1 0.5 forward I I I I #
face $-1 $132 $133 $43 $-1 $134 forward single #
loop $-1 $135 $136 $54 #
cone-surface $-1 42.365536610978843 15.09047337919592 8.1144595077720947 -0.66913061440640931 0 -0.74314481823134659 0.3715724091156733 0 -0.33456530720320465 1 I I 0 1 0.5 forward I I I I #
face $-1 $137 $138 $33 $-1 $139 reversed single #
loop $-1 $-1 $140 $55 #
plane-surface $-1 0 0 -12.099127807638343 0 0 1 1 0 0 forward_v I I I I #
coedge $-1 $141 $142 $143 $144 forward $56 $-1 #
face $-1 $145 $146 $34 $-1 $147 reversed single #
loop $-1 $-1 $148 $58 #
plane-surface $-1 -35.110940725663411 -16.352448868384585 0 0 -1 0 0 0 -1 forward_v I I I I #
coedge $-1 $149 $150 $151 $152 forward $59 $-1 #
face $-1 $153 $154 $35 $-1 $155 reversed single #
loop $-1 $-1 $156 $61 #
plane-surface $-1 -38.123445203296924 24.336045447059981 0 1 0 0 0 0 -1 forward_v I I I I #
coedge $-1 $157 $158 $159 $160 forward $62 $-1 #
face $-1 $161 $162 $36 $-1 $163 forward single #
loop $-1 $-1 $164 $64 #
plane-surface $-1 -109.22684918576778 -8.9756633060564397 69.543235871822375 0 -1 0 0.66913061440640931 0 -0.74314481823134659 forward_v I I I I #
coedge $-1 $165 $166 $167 $168 reversed $65 $-1 #
face $-1 $-1 $169 $37 $-1 $170 forward single #
loop $-1 $171 $172 $67 #
cone-surface $-1 -35.958136970643878 -12.664056087220512 1.5537845393670935 0.66913061440640931 0 -0.74314481823134659 0.55735861367350992 0 0.50184796080480698 1 I I -0.70710678118654757 0.70710678118654757 0.75 forward I I I I #
loop $-1 $-1 $173 $48 #
coedge $-1 $108 $108 $174 $175 reversed $68 $-1 #
face $-1 $176 $177 $38 $-1 $178 forward single #
loop $-1 $-1 $179 $70 #
plane-surface $-1 -46.712851344340343 12.664056087220516 0.11440902910693751 -0.66913061440640931 0 0.74314481823134659 0.74314481823134659 0 0.66913061440640931 forward_v I I I I #
coedge $-1 $180 $181 $182 $183 reversed $71 $-1 #
face $-1 $-1 $184 $39 $-1 $185 forward single #
loop $-1 $186 $187 $73 #
cone-surface $-1 -35.958136970643878 12.664056087220516 1.5537845393670935 0.66913061440640931 0 -0.74314481823134659 0.55735861367350992 0 0.50184796080480698 1 I I -0.70710678118654757 0.70710678118654757 0.75 forward I I I I #
loop $-1 $-1 $188 $50 #
coedge $-1 $117 $117 $189 $190 reversed $74 $-1 #
face $-1 $191 $192 $40 $-1 $193 reversed single #
loop $-1 $-1 $194 $76 #
plane-surface $-1 -22.715975498375101 13.197510145412913 67.386933867564608 0.66913061440640931 0 0.74314481823134659 0.74314481823134659 0 -0.66913061440640931 forward_v I I I I #
coedge $-1 $195 $196 $197 $198 reversed $77 $-1 #
face $-1 $-1 $199 $41 $-1 $200 forward single #
loop $-1 $201 $202 $79 #
cone-surface $-1 41.863688650174034 11.304546911629906 7.5571008940985855 -0.66913061440640931 0 -0.74314481823134659 0.18578620455783665 0 -0.16728265360160233 1 I I -0.70710678118654746 0.70710678118654746 0.25 forward I I I I #
loop $-1 $-1 $203 $52 #
coedge $-1 $126 $126 $204 $205 reversed $80 $-1 #
face $-1 $-1 $206 $42 $-1 $207 forward single #
loop $-1 $208 $209 $82 #
cone-surface $-1 41.863688650174034 13.197510145412913 7.5571008940985855 -0.66913061440640931 0 -0.74314481823134659 0.18578620455783665 0 -0.16728265360160233 1 I I -0.70710678118654746 0.70710678118654746 0.25 forward I I I I #
loop $-1 $-1 $210 $53 #
coedge $-1 $131 $131 $211 $212 reversed $83 $-1 #
face $-1 $-1 $213 $43 $-1 $214 forward single #
loop $-1 $215 $216 $85 #
cone-surface $-1 41.863688650174034 15.09047337919592 7.5571008940985855 -0.66913061440640931 0 -0.74314481823134659 0.18578620455783665 0 -0.16728265360160233 1 I I -0.70710678118654746 0.70710678118654746 0.25 forward I I I I #
loop $-1 $-1 $217 $54 #
coedge $-1 $136 $136 $218 $219 reversed $86 $-1 #
face $-1 $220 $221 $33 $-1 $222 reversed single #
loop $-1 $-1 $223 $88 #
plane-surface $-1 0 -32.319642025735376 0 0 1 0 0 0 1 forward_v I I I I #
coedge $-1 $224 $225 $226 $227 forward $89 $-1 #
coedge $-1 $228 $91 $229 $230 forward $56 $-1 #
coedge $-1 $91 $228 $231 $232 forward $56 $-1 #
coedge $-1 $233 $234 $91 $144 reversed $235 $-1 #
edge $-1 $236 -32.319642025735376 $237 32.319642025735376 $143 $238 forward 7 unknown #
face $-1 $239 $240 $34 $-1 $241 forward single #
loop $-1 $-1 $242 $92 #
plane-surface $-1 -32.098436248029898 -24.336045447059981 0 -1 0 0 0 0 1 forward_v I I I I #
coedge $-1 $243 $244 $245 $246 forward $93 $-1 #
coedge $-1 $247 $95 $248 $249 reversed $59 $-1 #
coedge $-1 $95 $247 $250 $251 reversed $59 $-1 #
coedge $-1 $244 $243 $95 $152 reversed $93 $-1 #
edge $-1 $252 -12.099127807638343 $253 12.099127807638343 $151 $254 forward 7 unknown #
face $-1 $255 $256 $35 $-1 $257 reversed single #
loop $-1 $-1 $258 $96 #
plane-surface $-1 -32.098436248029898 24.336045447059981 0 -1 0 0 0 0 1 forward_v I I I I #
coedge $-1 $259 $260 $261 $262 reversed $97 $-1 #
coedge $-1 $263 $99 $264 $265 reversed $62 $-1 #
coedge $-1 $99 $263 $266 $267 reversed $62 $-1 #
coedge $-1 $260 $259 $99 $160 reversed $97 $-1 #
edge $-1 $268 -12.099127807638343 $269 12.099127807638343 $159 $270 forward 7 unknown #
face $-1 $271 $272 $36 $-1 $273 forward single #
loop $-1 $-1 $274 $100 #
plane-surface $-1 -35.110940725663411 -16.352448868384585 0 0 -1 0 0 0 -1 forward_v I I I I #
coedge $-1 $275 $276 $277 $278 reversed $101 $-1 #
coedge $-1 $279 $103 $274 $280 reversed $65 $-1 #
coedge $-1 $103 $279 $275 $281 forward $65 $-1 #
coedge $-1 $277 $282 $103 $168 forward $272 $-1 #
edge $-1 $283 -10.020420824774328 $284 -2.6436352624461836 $167 $285 forward 7 unknown #
loop $-1 $-1 $174 $104 #
plane-surface $-1 -46.712851344340343 -12.664056087220512 0.11440902910693751 -0.66913061440640931 0 0.74314481823134659 0.74314481823134659 0 0.66913061440640931 forward_v I I I I #
loop $-1 $-1 $286 $67 #
coedge $-1 $172 $172 $173 $287 reversed $105 $-1 #
coedge $-1 $173 $173 $172 $287 forward $107 $-1 #
coedge $-1 $174 $174 $108 $175 forward $169 $-1 #
edge $-1 $288 0 $288 6.2831853071796004 $174 $289 forward 7 unknown #
face $-1 $290 $291 $38 $-1 $292 reversed single #
loop $-1 $-1 $293 $109 #
plane-surface $-1 -35.110940725663411 16.352448868384585 0 0 1 0 0 0 1 forward_v I I I I #
coedge $-1 $294 $295 $296 $297 reversed $110 $-1 #
coedge $-1 $181 $112 $298 $299 reversed $71 $-1 #
coedge $-1 $112 $180 $294 $300 reversed $71 $-1 #
coedge $-1 $296 $301 $112 $183 forward $302 $-1 #
edge $-1 $303 7.9005732485435445 $304 21.210951620823586 $182 $305 forward 7 unknown #
loop $-1 $-1 $189 $113 #
plane-surface $-1 -46.712851344340343 12.664056087220516 0.11440902910693751 -0.66913061440640931 0 0.74314481823134659 0.74314481823134659 0 0.66913061440640931 forward_v I I I I #
loop $-1 $-1 $306 $73 #
coedge $-1 $187 $187 $188 $307 reversed $114 $-1 #
coedge $-1 $188 $188 $187 $307 forward $116 $-1 #
coedge $-1 $189 $189 $117 $190 forward $184 $-1 #
edge $-1 $308 0 $308 6.2831853071796004 $189 $309 forward 7 unknown #
face $-1 $310 $311 $40 $-1 $312 forward single #
loop $-1 $-1 $313 $118 #
plane-surface $-1 39.798022343052331 10.042571422441235 136.81576071028005 0 1 0 0.66913061440640931 0 0.74314481823134659 forward_v I I I I #
coedge $-1 $314 $315 $316 $317 reversed $119 $-1 #
coedge $-1 $196 $121 $318 $319 reversed $77 $-1 #
coedge $-1 $121 $195 $314 $320 reversed $77 $-1 #
coedge $-1 $316 $321 $121 $198 forward $311 $-1 #
edge $-1 $322 -26.813840172814178 $323 -18.788341320497576 $197 $324 forward 7 unknown #
loop $-1 $-1 $204 $122 #
plane-surface $-1 -22.715975498375101 13.197510145412913 67.386933867564608 0.66913061440640931 0 0.74314481823134659 0.74314481823134659 0 -0.66913061440640931 forward_v I I I I #
loop $-1 $-1 $325 $79 #
coedge $-1 $202 $202 $203 $326 reversed $123 $-1 #
coedge $-1 $203 $203 $202 $326 forward $125 $-1 #
coedge $-1 $204 $204 $126 $205 forward $199 $-1 #
edge $-1 $327 0 $327 6.2831853071796004 $204 $328 forward 7 unknown #
loop $-1 $-1 $211 $127 #
plane-surface $-1 -22.715975498375101 13.197510145412913 67.386933867564608 0.66913061440640931 0 0.74314481823134659 0.74314481823134659 0 -0.66913061440640931 forward_v I I I I #
loop $-1 $-1 $329 $82 #
coedge $-1 $209 $209 $210 $330 reversed $128 $-1 #
coedge $-1 $210 $210 $209 $330 forward $130 $-1 #
coedge $-1 $211 $211 $131 $212 forward $206 $-1 #
edge $-1 $331 0 $331 6.2831853071796004 $211 $332 forward 7 unknown #
loop $-1 $-1 $218 $132 #
plane-surface $-1 -22.715975498375101 13.197510145412913 67.386933867564608 0.66913061440640931 0 0.74314481823134659 0.74314481823134659 0 -0.66913061440640931 forward_v I I I I #
loop $-1 $-1 $333 $85 #
coedge $-1 $216 $216 $217 $334 reversed $133 $-1 #
coedge $-1 $217 $217 $216 $334 forward $135 $-1 #
coedge $-1 $218 $218 $136 $219 forward $213 $-1 #
edge $-1 $335 0 $335 6.2831853071796004 $218 $336 forward 7 unknown #
face $-1 $337 $338 $33 $-1 $339 reversed single #
loop $-1 $-1 $340 $137 #
plane-surface $-1 -46.712851344340343 0 0 1 0 0 0 0 -1 forward_v I I I I #
coedge $-1 $341 $231 $342 $343 forward $138 $-1 #
coedge $-1 $344 $140 $341 $345 forward $89 $-1 #
coedge $-1 $140 $344 $346 $347 forward $89 $-1 #
coedge $-1 $234 $233 $140 $227 reversed $235 $-1 #
edge $-1 $348 -32.319642025735376 $349 32.319642025735376 $226 $350 forward 7 unknown #
coedge $-1 $142 $141 $351 $352 forward $56 $-1 #
coedge $-1 $353 $354 $141 $230 reversed $338 $-1 #
edge $-1 $237 -46.712851344340343 $355 46.712851344340343 $229 $356 forward 7 unknown #
coedge $-1 $223 $357 $142 $232 reversed $138 $-1 #
edge $-1 $358 -46.712851344340343 $236 46.712851344340343 $231 $359 forward 7 unknown #
coedge $-1 $226 $143 $357 $360 forward $235 $-1 #
coedge $-1 $143 $226 $353 $361 reversed $235 $-1 #
loop $-1 $-1 $233 $337 #
vertex $-1 $144 $362 #
vertex $-1 $144 $363 #
straight-curve $-1 46.712851344340343 0 12.099127807638343 0 1 0 I I #
face $-1 $364 $365 $34 $-1 $366 reversed single #
loop $-1 $-1 $367 $145 #
plane-surface $-1 0 0 12.099127807638343 0 0 1 1 0 0 forward_v I I I I #
coedge $-1 $368 $369 $370 $371 reversed $146 $-1 #
coedge $-1 $151 $148 $372 $373 reversed $93 $-1 #
coedge $-1 $148 $151 $374 $375 reversed $93 $-1 #
coedge $-1 $369 $368 $148 $246 reversed $146 $-1 #
edge $-1 $376 -12.099127807638343 $377 12.099127807638343 $245 $378 forward 7 unknown #
coedge $-1 $150 $149 $379 $380 reversed $59 $-1 #
coedge $-1 $372 $381 $149 $249 forward $365 $-1 #
edge $-1 $382 -20.151619302205386 $253 -4.1844261448545943 $248 $383 forward 7 unknown #
coedge $-1 $384 $374 $150 $251 forward $240 $-1 #
edge $-1 $252 4.1844261448545943 $385 20.151619302205386 $250 $386 forward 7 unknown #
vertex $-1 $251 $387 #
vertex $-1 $249 $388 #
straight-curve $-1 -38.123445203296924 -16.352448868384585 0 0 0 -1 I I #
face $-1 $389 $390 $35 $-1 $391 forward single #
loop $-1 $-1 $392 $153 #
plane-surface $-1 0 0 -12.099127807638343 0 0 1 1 0 0 forward_v I I I I #
coedge $-1 $393 $394 $263 $395 forward $154 $-1 #
coedge $-1 $159 $156 $396 $397 reversed $97 $-1 #
coedge $-1 $156 $159 $398 $399 reversed $97 $-1 #
coedge $-1 $400 $401 $156 $262 forward $402 $-1 #
edge $-1 $403 -12.099127807638343 $404 12.099127807638343 $261 $405 forward 7 unknown #
coedge $-1 $158 $157 $258 $395 reversed $62 $-1 #
coedge $-1 $396 $392 $157 $265 forward $256 $-1 #
edge $-1 $406 14.542965885198193 $269 20.567974840465219 $264 $407 forward 7 unknown #
coedge $-1 $408 $398 $158 $267 forward $390 $-1 #
edge $-1 $268 -20.567974840465219 $409 -14.542965885198193 $266 $410 forward 7 unknown #
vertex $-1 $267 $411 #
vertex $-1 $265 $412 #
straight-curve $-1 -38.123445203296924 16.352448868384585 0 0 0 -1 I I #
face $-1 $-1 $413 $36 $-1 $414 reversed single #
loop $-1 $-1 $282 $161 #
plane-surface $-1 0 0 12.099127807638343 0 0 1 1 0 0 forward_v I I I I #
coedge $-1 $415 $416 $165 $280 forward $162 $-1 #
coedge $-1 $276 $164 $166 $281 reversed $101 $-1 #
coedge $-1 $164 $275 $417 $418 reversed $101 $-1 #
coedge $-1 $419 $167 $164 $278 forward $272 $-1 #
edge $-1 $284 -21.210951620823586 $420 -7.9005732485435445 $277 $421 forward 7 unknown #
coedge $-1 $166 $165 $422 $423 reversed $65 $-1 #
edge $-1 $424 -4.2726725869565199 $283 13.638208368868728 $274 $425 forward 7 unknown #
edge $-1 $426 0 $284 17.910880955825249 $275 $427 forward 7 unknown #
coedge $-1 $167 $419 $415 $428 forward $272 $-1 #
vertex $-1 $168 $429 #
vertex $-1 $168 $430 #
straight-curve $-1 -33.402472972060302 -6.3320280436102561 12.099127807638343 0 1 0 I I #
coedge $-1 $286 $286 $-1 $431 reversed $171 $-1 #
edge $-1 $432 0 $432 6.2831853071796004 $172 $433 forward 7 unknown #
vertex $-1 $175 $434 #
ellipse-curve $-1 -40.057662158200323 -12.664056087220512 6.1067684183726421 -0.66913061440640931 0 0.74314481823134659 1.1147172273470198 0 1.003695921609614 1 I I #
face $-1 $-1 $302 $38 $-1 $435 forward single #
loop $-1 $-1 $436 $176 #
plane-surface $-1 -46.712851344340343 0 0 1 0 0 0 0 -1 forward_v I I I I #
coedge $-1 $437 $438 $295 $439 forward $177 $-1 #
coedge $-1 $440 $179 $181 $300 forward $110 $-1 #
coedge $-1 $179 $440 $293 $439 reversed $110 $-1 #
coedge $-1 $441 $182 $179 $297 forward $302 $-1 #
edge $-1 $304 2.6436352624461854 $442 10.020420824774327 $296 $443 forward 7 unknown #
coedge $-1 $444 $445 $180 $299 forward $291 $-1 #
edge $-1 $446 -34.65720890680425 $303 -22.672490128272845 $298 $447 forward 7 unknown #
edge $-1 $304 -17.910880955825249 $446 0 $181 $448 forward 7 unknown #
coedge $-1 $182 $441 $444 $449 forward $302 $-1 #
loop $-1 $-1 $296 $290 #
vertex $-1 $299 $450 #
vertex $-1 $183 $451 #
straight-curve $-1 -54.613424592883888 8.9756633060564432 12.099127807638343 1 0 0 I I #
coedge $-1 $306 $306 $-1 $452 reversed $186 $-1 #
edge $-1 $453 0 $453 6.2831853071796004 $187 $454 forward 7 unknown #
vertex $-1 $190 $455 #
ellipse-curve $-1 -40.057662158200323 12.664056087220516 6.1067684183726421 -0.66913061440640931 0 0.74314481823134659 1.1147172273470198 0 1.003695921609614 1 I I #
face $-1 $-1 $456 $40 $-1 $457 reversed single #
loop $-1 $-1 $197 $191 #
plane-surface $-1 0 0 12.099127807638343 0 0 1 1 0 0 forward_v I I I I #
coedge $-1 $458 $459 $460 $461 reversed $192 $-1 #
coedge $-1 $462 $194 $196 $320 forward $119 $-1 #
coedge $-1 $194 $462 $458 $463 forward $119 $-1 #
coedge $-1 $460 $197 $194 $317 forward $311 $-1 #
edge $-1 $323 -9.7536937956781351 $464 -3.443816349734778 $316 $465 forward 7 unknown #
coedge $-1 $466 $467 $195 $319 forward $456 $-1 #
edge $-1 $468 -63.534944329002847 $322 -56.308752547501683 $318 $469 forward 7 unknown #
edge $-1 $323 82.626328656285565 $468 93.425702688680687 $196 $470 forward 7 unknown #
coedge $-1 $197 $460 $466 $471 forward $311 $-1 #
vertex $-1 $198 $472 #
vertex $-1 $198 $473 #
straight-curve $-1 19.899011171526165 16.352448868384592 12.09912780763834 -1 0 0 I I #
coedge $-1 $325 $325 $-1 $474 reversed $201 $-1 #
edge $-1 $475 0 $475 6.2831853071796004 $202 $476 forward 7 unknown #
vertex $-1 $205 $477 #
ellipse-curve $-1 42.700101918182035 11.304546911629906 8.486031916887752 0.66913061440640931 0 0.74314481823134659 0.3715724091156733 0 -0.33456530720320465 1 I I #
coedge $-1 $329 $329 $-1 $478 reversed $208 $-1 #
edge $-1 $479 0 $479 6.2831853071796004 $209 $480 forward 7 unknown #
vertex $-1 $212 $481 #
ellipse-curve $-1 42.700101918182035 13.197510145412913 8.486031916887752 0.66913061440640931 0 0.74314481823134659 0.3715724091156733 0 -0.33456530720320465 1 I I #
coedge $-1 $333 $333 $-1 $482 reversed $215 $-1 #
edge $-1 $483 0 $483 6.2831853071796004 $216 $484 forward 7 unknown #
vertex $-1 $219 $485 #
ellipse-curve $-1 42.700101918182035 15.09047337919592 8.486031916887752 0.66913061440640931 0 0.74314481823134659 0.3715724091156733 0 -0.33456530720320465 1 I I #
face $-1 $-1 $235 $33 $-1 $486 reversed single #
loop $-1 $-1 $353 $220 #
plane-surface $-1 0 32.319642025735376 0 0 -1 0 0 0 -1 forward_v I I I I #
coedge $-1 $487 $351 $354 $488 forward $221 $-1 #
coedge $-1 $357 $223 $224 $345 reversed $138 $-1 #
coedge $-1 $351 $487 $223 $343 reversed $221 $-1 #
edge $-1 $358 -12.099127807638343 $489 12.099127807638343 $342 $490 forward 7 unknown #
coedge $-1 $225 $224 $487 $491 forward $89 $-1 #
edge $-1 $349 -46.712851344340343 $489 46.712851344340343 $341 $492 forward 7 unknown #
coedge $-1 $354 $353 $225 $347 reversed $338 $-1 #
edge $-1 $493 -46.712851344340343 $348 46.712851344340343 $346 $494 forward 7 unknown #
vertex $-1 $227 $495 #
vertex $-1 $360 $496 #
straight-curve $-1 46.712851344340343 0 -12.099127807638343 0 -1 0 I I #
coedge $-1 $340 $342 $228 $352 reversed $221 $-1 #
edge $-1 $355 -32.319642025735376 $358 32.319642025735376 $351 $497 forward 7 unknown #
coedge $-1 $346 $229 $234 $361 forward $338 $-1 #
coedge $-1 $229 $346 $340 $488 reversed $338 $-1 #
vertex $-1 $230 $498 #
straight-curve $-1 0 32.319642025735376 12.099127807638343 -1 0 0 I I #
coedge $-1 $231 $341 $233 $360 reversed $138 $-1 #
vertex $-1 $352 $499 #
straight-curve $-1 0 -32.319642025735376 12.099127807638343 1 0 0 I I #
edge $-1 $236 -12.099127807638343 $349 12.099127807638343 $233 $500 forward 7 unknown #
edge $-1 $237 -12.099127807638343 $348 12.099127807638343 $234 $501 forward 7 unknown #
point $-1 46.712851344340343 -32.319642025735376 12.099127807638343 #
point $-1 46.712851344340343 32.319642025735376 12.099127807638343 #
face $-1 $-1 $502 $34 $-1 $503 reversed single #
loop $-1 $-1 $504 $239 #
plane-surface $-1 0 0 -12.099127807638343 0 0 1 1 0 0 forward_v I I I I #
coedge $-1 $374 $384 $369 $505 forward $240 $-1 #
coedge $-1 $245 $242 $504 $506 reversed $146 $-1 #
coedge $-1 $242 $245 $367 $505 reversed $146 $-1 #
coedge $-1 $507 $508 $242 $371 forward $502 $-1 #
edge $-1 $509 -12.099127807638343 $510 12.099127807638343 $370 $511 forward 7 unknown #
coedge $-1 $504 $248 $243 $373 forward $365 $-1 #
edge $-1 $253 -20.567974840465219 $377 -14.542965885198193 $372 $512 forward 7 unknown #
coedge $-1 $250 $367 $244 $375 forward $240 $-1 #
edge $-1 $376 14.542965885198193 $252 20.567974840465219 $374 $513 forward 7 unknown #
vertex $-1 $375 $514 #
vertex $-1 $373 $515 #
straight-curve $-1 -32.098436248029898 -16.352448868384585 0 0 0 -1 I I #
coedge $-1 $508 $507 $247 $380 forward $502 $-1 #
edge $-1 $385 -12.099127807638343 $382 12.099127807638343 $379 $516 forward 7 unknown #
coedge $-1 $248 $504 $508 $517 forward $365 $-1 #
vertex $-1 $249 $518 #
straight-curve $-1 -38.123445203296924 -12.16802272352999 -12.099127807638343 0 1 0 I I #
coedge $-1 $367 $250 $507 $519 forward $240 $-1 #
vertex $-1 $519 $520 #
straight-curve $-1 -38.123445203296924 -12.16802272352999 12.099127807638343 0 -1 0 I I #
point $-1 -38.123445203296924 -16.352448868384585 12.099127807638343 #
point $-1 -38.123445203296924 -16.352448868384585 -12.099127807638343 #
face $-1 $-1 $402 $35 $-1 $521 reversed single #
loop $-1 $-1 $408 $255 #
plane-surface $-1 0 0 12.099127807638343 0 0 1 1 0 0 forward_v I I I I #
coedge $-1 $264 $522 $393 $523 forward $256 $-1 #
coedge $-1 $524 $258 $392 $523 reversed $154 $-1 #
coedge $-1 $258 $524 $408 $525 reversed $154 $-1 #
edge $-1 $409 -12.099127807638343 $406 12.099127807638343 $258 $526 forward 7 unknown #
coedge $-1 $522 $264 $259 $397 forward $256 $-1 #
edge $-1 $269 4.1844261448545943 $403 20.151619302205386 $396 $527 forward 7 unknown #
coedge $-1 $266 $528 $260 $399 forward $390 $-1 #
edge $-1 $404 -20.151619302205386 $268 -4.1844261448545943 $398 $529 forward 7 unknown #
coedge $-1 $530 $261 $528 $531 reversed $402 $-1 #
coedge $-1 $261 $530 $522 $532 reversed $402 $-1 #
loop $-1 $-1 $530 $389 #
vertex $-1 $532 $533 #
vertex $-1 $262 $534 #
straight-curve $-1 -38.123445203296924 32.319642025735376 0 0 0 1 I I #
vertex $-1 $265 $535 #
straight-curve $-1 -17.555470362831706 16.352448868384585 -12.099127807638343 -1 0 0 I I #
coedge $-1 $528 $266 $394 $525 forward $390 $-1 #
vertex $-1 $267 $536 #
straight-curve $-1 -17.555470362831706 16.352448868384585 12.099127807638343 1 0 0 I I #
point $-1 -38.123445203296924 16.352448868384585 12.099127807638343 #
point $-1 -38.123445203296924 16.352448868384585 -12.099127807638343 #
loop $-1 $-1 $537 $271 #
plane-surface $-1 -46.712851344340343 0 0 1 0 0 0 0 -1 forward_v I I I I #
coedge $-1 $416 $274 $282 $428 reversed $162 $-1 #
coedge $-1 $274 $415 $537 $538 reversed $162 $-1 #
coedge $-1 $422 $539 $276 $418 forward $413 $-1 #
edge $-1 $420 22.672490128272845 $426 34.65720890680425 $417 $540 forward 7 unknown #
coedge $-1 $282 $277 $539 $541 forward $272 $-1 #
vertex $-1 $541 $542 #
straight-curve $-1 -54.613424592883888 -8.9756633060564397 12.099127807638343 -1 0 0 I I #
coedge $-1 $537 $417 $279 $423 forward $413 $-1 #
edge $-1 $426 2.6436352624461836 $424 10.020420824774328 $422 $543 forward 7 unknown #
vertex $-1 $538 $544 #
straight-curve $-1 -43.53763685134448 -16.352448868384585 2.9733850623745735 0.74314481823134659 0 0.66913061440640931 I I #
vertex $-1 $423 $545 #
straight-curve $-1 -46.712851344340343 -8.9756633060564397 0.11440902910693751 0.74314481823134659 0 0.66913061440640931 I I #
edge $-1 $546 7.9005732485435445 $283 21.210951620823586 $282 $547 forward 7 unknown #
point $-1 -33.402472972060302 -16.352448868384585 12.099127807638341 #
point $-1 -33.402472972060302 -8.9756633060564397 12.099127807638341 #
edge $-1 $548 1 $548 0 $286 $-1 forward 7 unknown #
vertex $-1 $287 $549 #
ellipse-curve $-1 -36.459984931448687 -12.664056087220512 2.1111431530406035 -0.66913061440640931 0 0.74314481823134659 1.1147172273470198 0 1.003695921609614 1 I I #
point $-1 -38.942944930853301 -12.664056087220512 7.1104643399822534 #
plane-surface $-1 0 0 12.099127807638343 0 0 1 1 0 0 forward_v I I I I #
coedge $-1 $445 $444 $437 $550 forward $291 $-1 #
coedge $-1 $438 $293 $436 $550 reversed $177 $-1 #
coedge $-1 $293 $437 $441 $551 reversed $177 $-1 #
edge $-1 $442 -13.638208368868728 $552 4.2726725869565199 $293 $553 forward 7 unknown #
coedge $-1 $295 $294 $445 $554 reversed $110 $-1 #
coedge $-1 $301 $296 $438 $551 forward $302 $-1 #
vertex $-1 $551 $555 #
straight-curve $-1 -33.402472972060302 6.3320280436102578 12.099127807638343 0 1 0 I I #
coedge $-1 $436 $298 $301 $449 reversed $291 $-1 #
coedge $-1 $298 $436 $440 $554 forward $291 $-1 #
vertex $-1 $299 $556 #
straight-curve $-1 -46.712851344340343 8.9756633060564432 34.771617935911188 0 0 1 I I #
straight-curve $-1 -46.712851344340343 8.9756633060564432 0.11440902910693751 -0.74314481823134659 0 -0.66913061440640931 I I #
edge $-1 $557 -16.352448868384588 $303 -8.9756633060564432 $444 $558 forward 7 unknown #
point $-1 -46.712851344340343 8.9756633060564432 12.099127807638343 #
point $-1 -33.402472972060302 8.9756633060564432 12.099127807638341 #
edge $-1 $559 1 $559 0 $306 $-1 forward 7 unknown #
vertex $-1 $307 $560 #
ellipse-curve $-1 -36.459984931448687 12.664056087220516 2.1111431530406035 -0.66913061440640931 0 0.74314481823134659 1.1147172273470198 0 1.003695921609614 1 I I #
point $-1 -38.942944930853301 12.664056087220516 7.1104643399822534 #
loop $-1 $-1 $318 $310 #
plane-surface $-1 46.712851344340343 0 0 -1 0 0 0 0 1 forward_v I I I I #
coedge $-1 $459 $313 $315 $463 reversed $192 $-1 #
coedge $-1 $313 $458 $561 $562 reversed $192 $-1 #
coedge $-1 $321 $316 $313 $461 forward $311 $-1 #
edge $-1 $464 18.788341320497576 $563 26.813840172814178 $460 $564 forward 7 unknown #
coedge $-1 $315 $314 $467 $565 reversed $119 $-1 #
edge $-1 $566 -93.425702688680687 $464 -82.626328656285565 $458 $567 forward 7 unknown #
vertex $-1 $317 $568 #
straight-curve $-1 38.687352492023734 6.5987550727064566 12.09912780763834 0 -1 0 I I #
coedge $-1 $561 $318 $321 $471 reversed $456 $-1 #
coedge $-1 $318 $561 $462 $565 forward $456 $-1 #
vertex $-1 $319 $569 #
straight-curve $-1 46.712851344340343 16.352448868384592 68.407880355140023 0 0 1 I I #
straight-curve $-1 -22.715975498375101 16.352448868384592 67.386933867564608 0.74314481823134659 0 -0.66913061440640931 I I #
edge $-1 $563 10.042571422441235 $322 16.352448868384592 $466 $570 forward 7 unknown #
point $-1 46.712851344340343 16.352448868384592 12.099127807638343 #
point $-1 38.687352492023741 16.352448868384592 12.099127807638347 #
edge $-1 $571 1 $571 0 $325 $-1 forward 7 unknown #
vertex $-1 $326 $572 #
ellipse-curve $-1 42.030971303775637 11.304546911629906 7.7428870986564222 0.66913061440640931 0 0.74314481823134659 0.3715724091156733 0 -0.33456530720320465 1 I I #
point $-1 43.071674327297721 11.304546911629906 8.1514666096845634 #
edge $-1 $573 1 $573 0 $329 $-1 forward 7 unknown #
vertex $-1 $330 $574 #
ellipse-curve $-1 42.030971303775637 13.197510145412913 7.7428870986564222 0.66913061440640931 0 0.74314481823134659 0.3715724091156733 0 -0.33456530720320465 1 I I #
point $-1 43.071674327297721 13.197510145412913 8.1514666096845634 #
edge $-1 $575 1 $575 0 $333 $-1 forward 7 unknown #
vertex $-1 $334 $576 #
ellipse-curve $-1 42.030971303775637 15.09047337919592 7.7428870986564222 0.66913061440640931 0 0.74314481823134659 0.3715724091156733 0 -0.33456530720320465 1 I I #
point $-1 43.071674327297721 15.09047337919592 8.1514666096845634 #
plane-surface $-1 46.712851344340343 0 0 -1 0 0 0 0 1 forward_v I I I I #
coedge $-1 $342 $340 $344 $491 reversed $221 $-1 #
edge $-1 $355 -12.099127807638343 $493 12.099127807638343 $354 $577 forward 7 unknown #
vertex $-1 $491 $578 #
straight-curve $-1 -46.712851344340343 -32.319642025735376 0 0 0 -1 I I #
edge $-1 $489 -32.319642025735376 $493 32.319642025735376 $487 $579 forward 7 unknown #
straight-curve $-1 0 -32.319642025735376 -12.099127807638343 -1 0 0 I I #
vertex $-1 $347 $580 #
straight-curve $-1 0 32.319642025735376 -12.099127807638343 1 0 0 I I #
point $-1 46.712851344340343 32.319642025735376 -12.099127807638343 #
point $-1 46.712851344340343 -32.319642025735376 -12.099127807638343 #
straight-curve $-1 -46.712851344340343 0 12.099127807638343 0 -1 0 I I #
point $-1 -46.712851344340343 32.319642025735376 12.099127807638343 #
point $-1 -46.712851344340343 -32.319642025735376 12.099127807638343 #
straight-curve $-1 46.712851344340343 -32.319642025735376 0 0 0 -1 I I #
straight-curve $-1 46.712851344340343 32.319642025735376 0 0 0 -1 I I #
loop $-1 $-1 $370 $364 #
plane-surface $-1 0 -32.319642025735376 0 0 1 0 0 0 1 forward_v I I I I #
coedge $-1 $381 $372 $368 $506 forward $365 $-1 #
edge $-1 $510 -20.151619302205386 $376 -4.1844261448545943 $367 $581 forward 7 unknown #
edge $-1 $377 4.1844261448545943 $509 20.151619302205386 $504 $582 forward 7 unknown #
coedge $-1 $379 $370 $384 $519 reversed $502 $-1 #
coedge $-1 $370 $379 $381 $517 reversed $502 $-1 #
vertex $-1 $517 $583 #
vertex $-1 $371 $584 #
straight-curve $-1 -32.098436248029898 -32.319642025735376 0 0 0 1 I I #
straight-curve $-1 -17.555470362831706 -16.352448868384585 -12.099127807638343 1 0 0 I I #
straight-curve $-1 -17.555470362831706 -16.352448868384585 12.099127807638343 -1 0 0 I I #
point $-1 -32.098436248029898 -16.352448868384585 12.099127807638343 #
point $-1 -32.098436248029898 -16.352448868384585 -12.099127807638343 #
straight-curve $-1 -38.123445203296924 -32.319642025735376 0 0 0 -1 I I #
edge $-1 $509 32.098436248029898 $382 38.123445203296924 $508 $585 forward 7 unknown #
point $-1 -38.123445203296924 -32.319642025735376 -12.099127807638343 #
edge $-1 $385 -38.123445203296924 $510 -32.098436248029898 $507 $586 forward 7 unknown #
point $-1 -38.123445203296924 -32.319642025735376 12.099127807638343 #
plane-surface $-1 0 32.319642025735376 0 0 -1 0 0 0 -1 forward_v I I I I #
coedge $-1 $392 $396 $401 $532 forward $256 $-1 #
edge $-1 $587 -20.151619302205386 $406 -4.1844261448545943 $392 $588 forward 7 unknown #
coedge $-1 $394 $393 $530 $589 reversed $154 $-1 #
edge $-1 $409 4.1844261448545943 $590 20.151619302205386 $408 $591 forward 7 unknown #
straight-curve $-1 -32.098436248029898 16.352448868384585 0 0 0 -1 I I #
straight-curve $-1 -38.123445203296924 12.16802272352999 -12.099127807638343 0 1 0 I I #
coedge $-1 $398 $408 $400 $531 forward $390 $-1 #
straight-curve $-1 -38.123445203296924 12.16802272352999 12.099127807638343 0 -1 0 I I #
coedge $-1 $401 $400 $524 $589 forward $402 $-1 #
edge $-1 $590 32.098436248029898 $404 38.123445203296924 $400 $592 forward 7 unknown #
edge $-1 $403 -38.123445203296924 $587 -32.098436248029898 $401 $593 forward 7 unknown #
point $-1 -38.123445203296924 32.319642025735376 -12.099127807638343 #
point $-1 -38.123445203296924 32.319642025735376 12.099127807638343 #
point $-1 -32.098436248029898 16.352448868384585 -12.099127807638343 #
point $-1 -32.098436248029898 16.352448868384585 12.099127807638343 #
coedge $-1 $539 $422 $416 $538 forward $413 $-1 #
edge $-1 $424 -34.65720890680425 $546 -22.672490128272845 $537 $594 forward 7 unknown #
coedge $-1 $417 $537 $419 $541 reversed $413 $-1 #
straight-curve $-1 -46.712851344340343 -8.9756633060564397 34.771617935911188 0 0 -1 I I #
edge $-1 $420 8.9756633060564397 $546 16.352448868384585 $539 $595 forward 7 unknown #
point $-1 -46.712851344340343 -8.9756633060564397 12.099127807638343 #
straight-curve $-1 -46.712851344340343 -6.3320280436102561 0.11440902910693503 0 -1 0 I I #
point $-1 -46.712851344340343 -16.352448868384585 0.11440902910693751 #
point $-1 -46.712851344340343 -8.9756633060564397 0.11440902910693751 #
vertex $-1 $538 $596 #
straight-curve $-1 -54.613424592883888 -16.352448868384585 12.099127807638343 1 0 0 I I #
vertex $-1 $431 $597 #
point $-1 -35.345267704101666 -12.664056087220512 3.1148390746502175 #
edge $-1 $557 22.672490128272845 $552 34.65720890680425 $436 $598 forward 7 unknown #
edge $-1 $442 15.847002609228596 $557 29.157380981508638 $441 $599 forward 7 unknown #
vertex $-1 $554 $600 #
straight-curve $-1 -43.53763685134448 16.352448868384585 2.9733850623745735 -0.74314481823134659 0 -0.66913061440640931 I I #
edge $-1 $552 -10.02042082477433 $446 -2.6436352624461854 $445 $601 forward 7 unknown #
point $-1 -33.402472972060302 16.352448868384585 12.099127807638343 #
point $-1 -46.712851344340343 8.9756633060564432 0.11440902910693751 #
vertex $-1 $449 $602 #
straight-curve $-1 -46.712851344340343 0 12.099127807638343 0 -1 0 I I #
vertex $-1 $452 $603 #
point $-1 -35.345267704101666 12.664056087220516 3.1148390746502175 #
coedge $-1 $467 $466 $459 $562 forward $456 $-1 #
edge $-1 $563 56.308752547501683 $566 63.534944329002847 $561 $604 forward 7 unknown #
vertex $-1 $471 $605 #
straight-curve $-1 19.899011171526165 10.042571422441235 12.09912780763834 1 0 0 I I #
edge $-1 $566 3.443816349734778 $468 9.7536937956781351 $467 $606 forward 7 unknown #
vertex $-1 $565 $607 #
straight-curve $-1 -22.715975498375101 10.042571422441235 67.386933867564608 -0.74314481823134659 0 0.66913061440640931 I I #
point $-1 38.687352492023741 10.042571422441235 12.099127807638347 #
point $-1 46.712851344340336 16.352448868384592 4.8729360261371752 #
straight-curve $-1 46.712851344340343 0 12.099127807638343 0 1 0 I I #
vertex $-1 $474 $608 #
point $-1 42.402543712891308 11.304546911629906 7.4083217914532176 #
vertex $-1 $478 $609 #
point $-1 42.402543712891308 13.197510145412913 7.4083217914532176 #
vertex $-1 $482 $610 #
point $-1 42.402543712891308 15.09047337919592 7.4083217914532176 #
straight-curve $-1 -46.712851344340343 32.319642025735376 0 0 0 -1 I I #
point $-1 -46.712851344340343 -32.319642025735376 -12.099127807638343 #
straight-curve $-1 -46.712851344340343 0 -12.099127807638343 0 1 0 I I #
point $-1 -46.712851344340343 32.319642025735376 -12.099127807638343 #
straight-curve $-1 -32.098436248029898 -12.16802272352999 12.099127807638343 0 1 0 I I #
straight-curve $-1 -32.098436248029898 -12.16802272352999 -12.099127807638343 0 -1 0 I I #
point $-1 -32.098436248029898 -32.319642025735376 -12.099127807638343 #
point $-1 -32.098436248029898 -32.319642025735376 12.099127807638343 #
straight-curve $-1 0 -32.319642025735376 -12.099127807638343 -1 0 0 I I #
straight-curve $-1 0 -32.319642025735376 12.099127807638343 1 0 0 I I #
vertex $-1 $589 $611 #
straight-curve $-1 -32.098436248029898 12.16802272352999 -12.099127807638343 0 -1 0 I I #
edge $-1 $590 -12.099127807638343 $587 12.099127807638343 $530 $612 forward 7 unknown #
vertex $-1 $531 $613 #
straight-curve $-1 -32.098436248029898 12.16802272352999 12.099127807638343 0 1 0 I I #
straight-curve $-1 0 32.319642025735376 12.099127807638343 -1 0 0 I I #
straight-curve $-1 0 32.319642025735376 -12.099127807638343 1 0 0 I I #
straight-curve $-1 -46.712851344340343 -16.352448868384585 34.771617935911188 0 0 1 I I #
straight-curve $-1 -46.712851344340343 0 12.099127807638343 0 -1 0 I I #
point $-1 -46.712851344340343 -16.352448868384585 12.099127807638343 #
point $-1 -35.456289009839068 -12.664056087220512 0.99642592569358357 #
straight-curve $-1 -46.712851344340343 16.352448868384588 34.771617935911188 0 0 -1 I I #
straight-curve $-1 -17.555470362831706 16.352448868384585 12.099127807638343 -1 0 0 I I #
point $-1 -46.712851344340343 16.352448868384588 0.11440902910693751 #
straight-curve $-1 -46.712851344340343 6.3320280436102578 0.11440902910693503 0 -1 0 I I #
point $-1 -46.712851344340343 16.352448868384588 12.099127807638343 #
point $-1 -35.456289009839068 12.664056087220516 0.99642592569358357 #
straight-curve $-1 46.712851344340343 10.042571422441235 68.407880355140023 0 0 -1 I I #
point $-1 46.712851344340343 10.042571422441235 12.099127807638343 #
straight-curve $-1 46.712851344340343 6.5987550727064566 4.8729360261371717 0 1 0 I I #
point $-1 46.712851344340336 10.042571422441235 4.8729360261371752 #
point $-1 41.69640599657243 11.304546911629906 7.3713146895407489 #
point $-1 41.69640599657243 13.197510145412913 7.3713146895407489 #
point $-1 41.69640599657243 15.09047337919592 7.3713146895407489 #
point $-1 -32.098436248029898 32.319642025735376 -12.099127807638343 #
straight-curve $-1 -32.098436248029898 32.319642025735376 0 0 0 -1 I I #
point $-1 -32.098436248029898 32.319642025735376 12.099127807638343 #
End-of-ACIS-data 