500 0 16 0           
7 Unknown 11 ACIS 5.0 NT 24 Fri Mar 26 16:56:04 1999 
-1 9.9999999999999995e-007 1e-010 
body $-1 $16 $-1 $17 #
body $-1 $18 $-1 $19 #
body $-1 $20 $-1 $21 #
body $-1 $22 $-1 $23 #
body $-1 $24 $-1 $25 #
body $-1 $26 $-1 $27 #
body $-1 $28 $-1 $29 #
body $-1 $30 $-1 $31 #
body $-1 $32 $-1 $33 #
body $-1 $34 $-1 $35 #
body $-1 $36 $-1 $37 #
body $-1 $38 $-1 $39 #
body $-1 $40 $-1 $41 #
body $-1 $42 $-1 $43 #
body $-1 $44 $-1 $45 #
body $-1 $46 $-1 $47 #
lump $-1 $-1 $48 $0 #
transform $-1 1 0 0 0 1 0 0 0 1 59.316995757927181 37.433048545230562 17.457712779589077 1 rotate no_reflect no_shear #
lump $-1 $-1 $49 $1 #
transform $-1 1 0 0 0 1 0 0 0 1 59.316995757927181 37.433048545230562 17.457712779589077 1 rotate no_reflect no_shear #
lump $-1 $-1 $50 $2 #
transform $-1 1 0 0 0 1 0 0 0 1 59.316995757927181 37.433048545230562 17.457712779589077 1 rotate no_reflect no_shear #
lump $-1 $-1 $51 $3 #
transform $-1 1 0 0 0 1 0 0 0 1 59.316995757927181 37.433048545230562 17.457712779589077 1 rotate no_reflect no_shear #
lump $-1 $-1 $52 $4 #
transform $-1 1 0 0 0 1 0 0 0 1 59.316995757927181 37.433048545230562 17.457712779589077 1 rotate no_reflect no_shear #
lump $-1 $-1 $53 $5 #
transform $-1 1 0 0 0 1 0 0 0 1 59.316995757927181 37.433048545230562 17.457712779589077 1 rotate no_reflect no_shear #
lump $-1 $-1 $54 $6 #
transform $-1 1 0 0 0 1 0 0 0 1 59.316995757927181 37.433048545230562 17.457712779589077 1 rotate no_reflect no_shear #
lump $-1 $-1 $55 $7 #
transform $-1 1 0 0 0 1 0 0 0 1 59.316995757927181 37.433048545230562 17.457712779589077 1 rotate no_reflect no_shear #
lump $-1 $-1 $56 $8 #
transform $-1 1 0 0 0 1 0 0 0 1 59.316995757927181 37.433048545230562 17.457712779589077 1 rotate no_reflect no_shear #
lump $-1 $-1 $57 $9 #
transform $-1 1 0 0 0 1 0 0 0 1 59.316995757927181 37.433048545230562 17.457712779589077 1 rotate no_reflect no_shear #
lump $-1 $-1 $58 $10 #
transform $-1 1 0 0 0 1 0 0 0 1 59.316995757927181 37.433048545230562 17.457712779589077 1 rotate no_reflect no_shear #
lump $-1 $-1 $59 $11 #
transform $-1 1 0 0 0 1 0 0 0 1 59.316995757927181 37.433048545230562 17.457712779589077 1 rotate no_reflect no_shear #
lump $-1 $-1 $60 $12 #
transform $-1 1 0 0 0 1 0 0 0 1 59.316995757927181 37.433048545230562 17.457712779589077 1 rotate no_reflect no_shear #
lump $-1 $-1 $61 $13 #
transform $-1 1 0 0 0 1 0 0 0 1 59.316995757927181 37.433048545230562 17.457712779589077 1 rotate no_reflect no_shear #
lump $-1 $-1 $62 $14 #
transform $-1 1 0 0 0 1 0 0 0 1 59.316995757927181 37.433048545230562 17.457712779589077 1 rotate no_reflect no_shear #
lump $-1 $-1 $63 $15 #
transform $-1 1 0 0 0 1 0 0 0 1 59.316995757927181 37.433048545230562 17.457712779589077 1 rotate no_reflect no_shear #
shell $-1 $-1 $-1 $64 $-1 $16 #
shell $-1 $-1 $-1 $65 $-1 $18 #
shell $-1 $-1 $-1 $66 $-1 $20 #
shell $-1 $-1 $-1 $67 $-1 $22 #
shell $-1 $-1 $-1 $68 $-1 $24 #
shell $-1 $-1 $-1 $69 $-1 $26 #
shell $-1 $-1 $-1 $70 $-1 $28 #
shell $-1 $-1 $-1 $71 $-1 $30 #
shell $-1 $-1 $-1 $72 $-1 $32 #
shell $-1 $-1 $-1 $73 $-1 $34 #
shell $-1 $-1 $-1 $74 $-1 $36 #
shell $-1 $-1 $-1 $75 $-1 $38 #
shell $-1 $-1 $-1 $76 $-1 $40 #
shell $-1 $-1 $-1 $77 $-1 $42 #
shell $-1 $-1 $-1 $78 $-1 $44 #
shell $-1 $-1 $-1 $79 $-1 $46 #
face $-1 $80 $81 $48 $-1 $82 forward single #
face $-1 $83 $84 $49 $-1 $85 reversed single #
face $-1 $86 $87 $50 $-1 $88 reversed single #
face $-1 $89 $90 $51 $-1 $91 forward single #
face $-1 $92 $93 $52 $-1 $94 forward single #
face $-1 $95 $96 $53 $-1 $97 reversed single #
face $-1 $98 $99 $54 $-1 $100 forward single #
face $-1 $101 $102 $55 $-1 $103 forward single #
face $-1 $104 $105 $56 $-1 $106 reversed single #
face $-1 $107 $108 $57 $-1 $109 forward single #
face $-1 $110 $111 $58 $-1 $112 forward single #
face $-1 $113 $114 $59 $-1 $115 reversed single #
face $-1 $116 $117 $60 $-1 $118 forward single #
face $-1 $119 $120 $61 $-1 $121 forward single #
face $-1 $122 $123 $62 $-1 $124 reversed single #
face $-1 $125 $126 $63 $-1 $127 forward single #
face $-1 $128 $129 $48 $-1 $130 reversed single #
loop $-1 $-1 $131 $64 #
plane-surface $-1 0 0 17.457712779589077 0 0 1 1 0 0 forward_v I I I I #
face $-1 $132 $133 $49 $-1 $134 reversed single #
loop $-1 $-1 $135 $65 #
plane-surface $-1 -48.070412933355158 0 12.92361971959399 0 0 1 1 0 0 forward_v I I I I #
face $-1 $136 $137 $50 $-1 $138 reversed single #
loop $-1 $-1 $139 $66 #
plane-surface $-1 -28.990763662572292 98.367393993085059 133.31376834164718 1 0 0 0 -0.84804810408105047 -0.52991925155115449 forward_v I I I I #
face $-1 $140 $141 $51 $-1 $142 forward single #
loop $-1 $143 $144 $67 #
cone-surface $-1 -24.97114418941824 30.8181568175108 10.124061936066695 0 -0.84804810408105047 -0.52991925155115449 2 0 0 1 I I 0 1 2 forward I I I I #
face $-1 $145 $146 $52 $-1 $147 forward single #
loop $-1 $148 $149 $68 #
cone-surface $-1 -18.941714979687163 30.8181568175108 10.124061936066695 0 -0.84804810408105047 -0.52991925155115449 2 0 0 1 I I 0 1 2 forward I I I I #
face $-1 $150 $151 $53 $-1 $152 reversed single #
loop $-1 $-1 $153 $69 #
plane-surface $-1 -4.9555571958947144 98.367393993085059 133.31376834164718 1 0 0 0 -0.84804810408105047 -0.52991925155115449 forward_v I I I I #
face $-1 $154 $155 $54 $-1 $156 forward single #
loop $-1 $157 $158 $70 #
cone-surface $-1 -0.93593772274066112 30.8181568175108 10.124061936066695 0 -0.84804810408105047 -0.52991925155115449 2 0 0 1 I I 0 1 2 forward I I I I #
face $-1 $159 $160 $55 $-1 $161 forward single #
loop $-1 $162 $163 $71 #
cone-surface $-1 5.0934914869904091 30.8181568175108 10.124061936066695 0 -0.84804810408105047 -0.52991925155115449 2 0 0 1 I I 0 1 2 forward I I I I #
face $-1 $164 $165 $56 $-1 $166 reversed single #
loop $-1 $-1 $167 $72 #
plane-surface $-1 19.079649270782866 98.367393993085059 133.31376834164718 1 0 0 0 -0.84804810408105047 -0.52991925155115449 forward_v I I I I #
face $-1 $168 $169 $57 $-1 $170 forward single #
loop $-1 $171 $172 $73 #
cone-surface $-1 23.099268743936925 30.8181568175108 10.124061936066695 0 -0.84804810408105047 -0.52991925155115449 2 0 0 1 I I 0 1 2 forward I I I I #
face $-1 $173 $174 $58 $-1 $175 forward single #
loop $-1 $176 $177 $74 #
cone-surface $-1 29.128697953667988 30.8181568175108 10.124061936066695 0 -0.84804810408105047 -0.52991925155115449 2 0 0 1 I I 0 1 2 forward I I I I #
face $-1 $178 $179 $59 $-1 $180 reversed single #
loop $-1 $-1 $181 $75 #
plane-surface $-1 43.114855737460445 98.367393993085059 133.31376834164718 1 0 0 0 -0.84804810408105047 -0.52991925155115449 forward_v I I I I #
face $-1 $182 $183 $60 $-1 $184 forward single #
loop $-1 $185 $186 $76 #
cone-surface $-1 47.134475210614504 30.8181568175108 10.124061936066695 0 -0.84804810408105047 -0.52991925155115449 2 0 0 1 I I 0 1 2 forward I I I I #
face $-1 $187 $188 $61 $-1 $189 forward single #
loop $-1 $190 $191 $77 #
cone-surface $-1 53.163904420345567 30.8181568175108 10.124061936066695 0 -0.84804810408105047 -0.52991925155115449 2 0 0 1 I I 0 1 2 forward I I I I #
face $-1 $192 $193 $62 $-1 $194 reversed single #
loop $-1 $-1 $195 $78 #
plane-surface $-1 -13.951250744058243 -128.31195949405202 77.560286942857843 -1 0 0 0 -0.7660444514056185 0.64278759981090561 forward_v I I I I #
face $-1 $196 $197 $63 $-1 $198 forward single #
loop $-1 $199 $200 $79 #
cone-surface $-1 -25.387540426420685 -29.356620258657692 8.2907220708166083 0 0.7660444514056185 -0.64278759981090561 1.5 0 0 1 I I 0 1 1.5 forward I I I I #
face $-1 $201 $202 $48 $-1 $203 reversed single #
loop $-1 $-1 $204 $80 #
plane-surface $-1 0 0 -17.457712779589077 0 0 1 1 0 0 forward_v I I I I #
coedge $-1 $205 $206 $207 $208 forward $81 $-1 #
face $-1 $209 $210 $49 $-1 $211 reversed single #
loop $-1 $-1 $212 $83 #
plane-surface $-1 -36.823830108783127 0 15.190666249591533 -1 0 0 0 0 1 forward_v I I I I #
coedge $-1 $213 $214 $215 $216 forward $84 $-1 #
face $-1 $217 $218 $50 $-1 $219 reversed single #
loop $-1 $-1 $220 $86 #
plane-surface $-1 -21.956429584552701 -2.2399375915026525 70.447332349039613 0 0.84804810408105047 0.52991925155115449 1 0 0 forward_v I I I I #
coedge $-1 $221 $222 $223 $224 reversed $87 $-1 #
face $-1 $-1 $225 $51 $-1 $226 forward single #
loop $-1 $227 $228 $89 #
cone-surface $-1 -24.97114418941824 26.635915985854766 7.5107079050245709 0 -0.84804810408105047 -0.52991925155115449 1 0 0 1 I I -0.70710678118654746 0.70710678118654746 1 forward I I I I #
loop $-1 $-1 $229 $67 #
coedge $-1 $144 $144 $230 $231 reversed $90 $-1 #
face $-1 $-1 $232 $52 $-1 $233 forward single #
loop $-1 $234 $235 $92 #
cone-surface $-1 -18.941714979687163 26.635915985854766 7.5107079050245709 0 -0.84804810408105047 -0.52991925155115449 1 0 0 1 I I -0.70710678118654746 0.70710678118654746 1 forward I I I I #
loop $-1 $-1 $236 $68 #
coedge $-1 $149 $149 $237 $238 reversed $93 $-1 #
face $-1 $239 $240 $53 $-1 $241 reversed single #
loop $-1 $-1 $242 $95 #
plane-surface $-1 2.0787768821248775 -2.2399375915026525 70.447332349039613 0 0.84804810408105047 0.52991925155115449 1 0 0 forward_v I I I I #
coedge $-1 $243 $244 $245 $246 reversed $96 $-1 #
face $-1 $-1 $247 $54 $-1 $248 forward single #
loop $-1 $249 $250 $98 #
cone-surface $-1 -0.93593772274066112 26.635915985854766 7.5107079050245709 0 -0.84804810408105047 -0.52991925155115449 1 0 0 1 I I -0.70710678118654746 0.70710678118654746 1 forward I I I I #
loop $-1 $-1 $251 $70 #
coedge $-1 $158 $158 $252 $253 reversed $99 $-1 #
face $-1 $-1 $254 $55 $-1 $255 forward single #
loop $-1 $256 $257 $101 #
cone-surface $-1 5.0934914869904091 26.635915985854766 7.5107079050245709 0 -0.84804810408105047 -0.52991925155115449 1 0 0 1 I I -0.70710678118654746 0.70710678118654746 1 forward I I I I #
loop $-1 $-1 $258 $71 #
coedge $-1 $163 $163 $259 $260 reversed $102 $-1 #
face $-1 $261 $262 $56 $-1 $263 reversed single #
loop $-1 $-1 $264 $104 #
plane-surface $-1 26.113983348802456 -2.2399375915026525 70.447332349039613 0 0.84804810408105047 0.52991925155115449 1 0 0 forward_v I I I I #
coedge $-1 $265 $266 $267 $268 reversed $105 $-1 #
face $-1 $-1 $269 $57 $-1 $270 forward single #
loop $-1 $271 $272 $107 #
cone-surface $-1 23.099268743936925 26.635915985854766 7.5107079050245709 0 -0.84804810408105047 -0.52991925155115449 1 0 0 1 I I -0.70710678118654746 0.70710678118654746 1 forward I I I I #
loop $-1 $-1 $273 $73 #
coedge $-1 $172 $172 $274 $275 reversed $108 $-1 #
face $-1 $-1 $276 $58 $-1 $277 forward single #
loop $-1 $278 $279 $110 #
cone-surface $-1 29.128697953667988 26.635915985854766 7.5107079050245709 0 -0.84804810408105047 -0.52991925155115449 1 0 0 1 I I -0.70710678118654746 0.70710678118654746 1 forward I I I I #
loop $-1 $-1 $280 $74 #
coedge $-1 $177 $177 $281 $282 reversed $111 $-1 #
face $-1 $283 $284 $59 $-1 $285 reversed single #
loop $-1 $-1 $286 $113 #
plane-surface $-1 50.149189815480035 -2.2399375915026525 70.447332349039613 0 0.84804810408105047 0.52991925155115449 1 0 0 forward_v I I I I #
coedge $-1 $287 $288 $289 $290 reversed $114 $-1 #
face $-1 $-1 $291 $60 $-1 $292 forward single #
loop $-1 $293 $294 $116 #
cone-surface $-1 47.134475210614504 26.635915985854766 7.5107079050245709 0 -0.84804810408105047 -0.52991925155115449 1 0 0 1 I I -0.70710678118654746 0.70710678118654746 1 forward I I I I #
loop $-1 $-1 $295 $76 #
coedge $-1 $186 $186 $296 $297 reversed $117 $-1 #
face $-1 $-1 $298 $61 $-1 $299 forward single #
loop $-1 $300 $301 $119 #
cone-surface $-1 53.163904420345567 26.635915985854766 7.5107079050245709 0 -0.84804810408105047 -0.52991925155115449 1 0 0 1 I I -0.70710678118654746 0.70710678118654746 1 forward I I I I #
loop $-1 $-1 $302 $77 #
coedge $-1 $191 $191 $303 $304 reversed $120 $-1 #
face $-1 $305 $306 $62 $-1 $307 forward single #
loop $-1 $-1 $308 $122 #
plane-surface $-1 -25.387540426420685 -37.433048545230562 1.3038282803944838 0 -0.7660444514056185 0.64278759981090561 1 0 0 forward_v I I I I #
coedge $-1 $309 $310 $311 $312 reversed $123 $-1 #
face $-1 $-1 $313 $63 $-1 $314 forward single #
loop $-1 $315 $316 $125 #
cone-surface $-1 -25.387540426420685 -27.483017718768505 6.7185829117832654 0 0.7660444514056185 -0.64278759981090561 0.75 0 0 1 I I -0.70710678118654757 0.70710678118654757 0.75 forward I I I I #
loop $-1 $-1 $317 $79 #
coedge $-1 $200 $200 $318 $319 reversed $126 $-1 #
face $-1 $320 $321 $48 $-1 $322 reversed single #
loop $-1 $-1 $323 $128 #
plane-surface $-1 0 -37.433048545230562 0 0 1 0 0 0 1 forward_v I I I I #
coedge $-1 $324 $325 $326 $327 forward $129 $-1 #
coedge $-1 $328 $131 $329 $330 forward $81 $-1 #
coedge $-1 $131 $328 $331 $332 forward $81 $-1 #
coedge $-1 $333 $334 $131 $208 reversed $335 $-1 #
edge $-1 $336 -37.433048545230562 $337 37.433048545230562 $207 $338 forward 7 unknown #
face $-1 $339 $340 $49 $-1 $341 reversed single #
loop $-1 $-1 $342 $132 #
plane-surface $-1 0 37.433048545230562 0 0 -1 0 0 0 -1 forward_v I I I I #
coedge $-1 $215 $343 $344 $345 reversed $133 $-1 #
coedge $-1 $346 $135 $347 $348 reversed $84 $-1 #
coedge $-1 $135 $346 $349 $350 reversed $84 $-1 #
coedge $-1 $351 $212 $135 $216 reversed $133 $-1 #
edge $-1 $352 -37.433048545230562 $353 37.433048545230562 $215 $354 forward 7 unknown #
face $-1 $355 $356 $50 $-1 $357 forward single #
loop $-1 $-1 $358 $136 #
plane-surface $-1 -14.922095506533109 98.367393993085059 133.31376834164718 -1 0 0 0 0.84804810408105047 0.52991925155115449 forward_v I I I I #
coedge $-1 $359 $360 $361 $362 reversed $137 $-1 #
coedge $-1 $222 $139 $363 $364 reversed $87 $-1 #
coedge $-1 $139 $221 $359 $365 reversed $87 $-1 #
coedge $-1 $361 $366 $139 $224 forward $356 $-1 #
edge $-1 $367 11.750648451311967 $368 18.312046451601532 $223 $369 forward 7 unknown #
loop $-1 $-1 $230 $140 #
plane-surface $-1 -21.956429584552701 -2.2399375915026525 70.447332349039613 0 0.84804810408105047 0.52991925155115449 1 0 0 forward_v I I I I #
loop $-1 $-1 $370 $89 #
coedge $-1 $228 $228 $229 $371 reversed $141 $-1 #
coedge $-1 $229 $229 $228 $371 forward $143 $-1 #
coedge $-1 $230 $230 $144 $231 forward $225 $-1 #
edge $-1 $372 -3.7700270109167406e-016 $372 6.2831853071796004 $230 $373 forward 7 unknown #
loop $-1 $-1 $237 $145 #
plane-surface $-1 -21.956429584552701 -2.2399375915026525 70.447332349039613 0 0.84804810408105047 0.52991925155115449 1 0 0 forward_v I I I I #
loop $-1 $-1 $374 $92 #
coedge $-1 $235 $235 $236 $375 reversed $146 $-1 #
coedge $-1 $236 $236 $235 $375 forward $148 $-1 #
coedge $-1 $237 $237 $149 $238 forward $232 $-1 #
edge $-1 $376 -3.7700270109167406e-016 $376 6.2831853071796004 $237 $377 forward 7 unknown #
face $-1 $378 $379 $53 $-1 $380 forward single #
loop $-1 $-1 $381 $150 #
plane-surface $-1 9.1131109601444695 98.367393993085059 133.31376834164718 -1 0 0 0 0.84804810408105047 0.52991925155115449 forward_v I I I I #
coedge $-1 $382 $383 $384 $385 reversed $151 $-1 #
coedge $-1 $244 $153 $386 $387 reversed $96 $-1 #
coedge $-1 $153 $243 $382 $388 reversed $96 $-1 #
coedge $-1 $384 $389 $153 $246 forward $379 $-1 #
edge $-1 $390 11.750648451311967 $391 18.312046451601532 $245 $392 forward 7 unknown #
loop $-1 $-1 $252 $154 #
plane-surface $-1 2.0787768821248775 -2.2399375915026525 70.447332349039613 0 0.84804810408105047 0.52991925155115449 1 0 0 forward_v I I I I #
loop $-1 $-1 $393 $98 #
coedge $-1 $250 $250 $251 $394 reversed $155 $-1 #
coedge $-1 $251 $251 $250 $394 forward $157 $-1 #
coedge $-1 $252 $252 $158 $253 forward $247 $-1 #
edge $-1 $395 -3.7700270109167406e-016 $395 6.2831853071796004 $252 $396 forward 7 unknown #
loop $-1 $-1 $259 $159 #
plane-surface $-1 2.0787768821248775 -2.2399375915026525 70.447332349039613 0 0.84804810408105047 0.52991925155115449 1 0 0 forward_v I I I I #
loop $-1 $-1 $397 $101 #
coedge $-1 $257 $257 $258 $398 reversed $160 $-1 #
coedge $-1 $258 $258 $257 $398 forward $162 $-1 #
coedge $-1 $259 $259 $163 $260 forward $254 $-1 #
edge $-1 $399 -3.7700270109167406e-016 $399 6.2831853071796004 $259 $400 forward 7 unknown #
face $-1 $401 $402 $56 $-1 $403 forward single #
loop $-1 $-1 $404 $164 #
plane-surface $-1 33.148317426822047 98.367393993085059 133.31376834164718 -1 0 0 0 0.84804810408105047 0.52991925155115449 forward_v I I I I #
coedge $-1 $405 $406 $407 $408 reversed $165 $-1 #
coedge $-1 $266 $167 $409 $410 reversed $105 $-1 #
coedge $-1 $167 $265 $405 $411 reversed $105 $-1 #
coedge $-1 $407 $412 $167 $268 forward $402 $-1 #
edge $-1 $413 11.750648451311967 $414 18.312046451601532 $267 $415 forward 7 unknown #
loop $-1 $-1 $274 $168 #
plane-surface $-1 26.113983348802456 -2.2399375915026525 70.447332349039613 0 0.84804810408105047 0.52991925155115449 1 0 0 forward_v I I I I #
loop $-1 $-1 $416 $107 #
coedge $-1 $272 $272 $273 $417 reversed $169 $-1 #
coedge $-1 $273 $273 $272 $417 forward $171 $-1 #
coedge $-1 $274 $274 $172 $275 forward $269 $-1 #
edge $-1 $418 -3.7700270109167406e-016 $418 6.2831853071796004 $274 $419 forward 7 unknown #
loop $-1 $-1 $281 $173 #
plane-surface $-1 26.113983348802456 -2.2399375915026525 70.447332349039613 0 0.84804810408105047 0.52991925155115449 1 0 0 forward_v I I I I #
loop $-1 $-1 $420 $110 #
coedge $-1 $279 $279 $280 $421 reversed $174 $-1 #
coedge $-1 $280 $280 $279 $421 forward $176 $-1 #
coedge $-1 $281 $281 $177 $282 forward $276 $-1 #
edge $-1 $422 -3.7700270109167406e-016 $422 6.2831853071796004 $281 $423 forward 7 unknown #
face $-1 $424 $425 $59 $-1 $426 forward single #
loop $-1 $-1 $427 $178 #
plane-surface $-1 57.183523893499626 98.367393993085059 133.31376834164718 -1 0 0 0 0.84804810408105047 0.52991925155115449 forward_v I I I I #
coedge $-1 $428 $429 $430 $431 reversed $179 $-1 #
coedge $-1 $288 $181 $432 $433 reversed $114 $-1 #
coedge $-1 $181 $287 $428 $434 reversed $114 $-1 #
coedge $-1 $430 $435 $181 $290 forward $425 $-1 #
edge $-1 $436 11.750648451311967 $437 18.312046451601532 $289 $438 forward 7 unknown #
loop $-1 $-1 $296 $182 #
plane-surface $-1 50.149189815480035 -2.2399375915026525 70.447332349039613 0 0.84804810408105047 0.52991925155115449 1 0 0 forward_v I I I I #
loop $-1 $-1 $439 $116 #
coedge $-1 $294 $294 $295 $440 reversed $183 $-1 #
coedge $-1 $295 $295 $294 $440 forward $185 $-1 #
coedge $-1 $296 $296 $186 $297 forward $291 $-1 #
edge $-1 $441 -3.7700270109167406e-016 $441 6.2831853071796004 $296 $442 forward 7 unknown #
loop $-1 $-1 $303 $187 #
plane-surface $-1 50.149189815480035 -2.2399375915026525 70.447332349039613 0 0.84804810408105047 0.52991925155115449 1 0 0 forward_v I I I I #
loop $-1 $-1 $443 $119 #
coedge $-1 $301 $301 $302 $444 reversed $188 $-1 #
coedge $-1 $302 $302 $301 $444 forward $190 $-1 #
coedge $-1 $303 $303 $191 $304 forward $298 $-1 #
edge $-1 $445 -3.7700270109167406e-016 $445 6.2831853071796004 $303 $446 forward 7 unknown #
face $-1 $447 $448 $62 $-1 $449 forward single #
loop $-1 $-1 $450 $192 #
plane-surface $-1 -36.823830108783127 0 15.190666249591533 -1 0 0 0 0 1 forward_v I I I I #
coedge $-1 $451 $452 $453 $454 reversed $193 $-1 #
coedge $-1 $310 $195 $455 $456 reversed $123 $-1 #
coedge $-1 $195 $309 $451 $457 reversed $123 $-1 #
coedge $-1 $453 $458 $195 $312 forward $448 $-1 #
edge $-1 $459 26.722931201795447 $460 40.277649372271227 $311 $461 forward 7 unknown #
loop $-1 $-1 $318 $196 #
plane-surface $-1 -25.387540426420685 -37.433048545230562 1.3038282803944838 0 -0.7660444514056185 0.64278759981090561 1 0 0 forward_v I I I I #
loop $-1 $-1 $462 $125 #
coedge $-1 $316 $316 $317 $463 reversed $197 $-1 #
coedge $-1 $317 $317 $316 $463 forward $199 $-1 #
coedge $-1 $318 $318 $200 $319 forward $313 $-1 #
edge $-1 $464 3.2331713013742915e-016 $464 6.2831853071796004 $318 $465 forward 7 unknown #
face $-1 $466 $467 $48 $-1 $468 reversed single #
loop $-1 $-1 $469 $201 #
plane-surface $-1 -59.316995757927181 0 0 1 0 0 0 0 -1 forward_v I I I I #
coedge $-1 $470 $331 $471 $472 forward $202 $-1 #
coedge $-1 $473 $204 $470 $474 forward $129 $-1 #
coedge $-1 $204 $473 $475 $476 forward $129 $-1 #
coedge $-1 $334 $333 $204 $327 reversed $335 $-1 #
edge $-1 $477 -37.433048545230562 $478 37.433048545230562 $326 $479 forward 7 unknown #
coedge $-1 $206 $205 $480 $481 forward $81 $-1 #
coedge $-1 $482 $483 $205 $330 reversed $467 $-1 #
edge $-1 $337 -59.316995757927181 $484 59.316995757927181 $329 $485 forward 7 unknown #
coedge $-1 $323 $486 $206 $332 reversed $202 $-1 #
edge $-1 $487 -59.316995757927181 $336 59.316995757927181 $331 $488 forward 7 unknown #
coedge $-1 $326 $207 $486 $489 forward $335 $-1 #
coedge $-1 $207 $326 $482 $490 reversed $335 $-1 #
loop $-1 $-1 $333 $466 #
vertex $-1 $208 $491 #
vertex $-1 $208 $492 #
straight-curve $-1 59.316995757927181 0 17.457712779589077 0 1 0 I I #
face $-1 $493 $494 $49 $-1 $495 forward single #
loop $-1 $-1 $496 $209 #
plane-surface $-1 -59.316995757927181 0 0 1 0 0 0 0 -1 forward_v I I I I #
coedge $-1 $349 $497 $351 $498 forward $210 $-1 #
coedge $-1 $212 $351 $499 $500 reversed $133 $-1 #
coedge $-1 $501 $347 $212 $345 forward $502 $-1 #
edge $-1 $353 5.3282865947982234 $503 9.86237965479331 $344 $504 forward 7 unknown #
coedge $-1 $214 $213 $496 $505 reversed $84 $-1 #
coedge $-1 $344 $506 $213 $348 forward $502 $-1 #
edge $-1 $507 -35.281789291249609 $353 -12.788623642105549 $347 $508 forward 7 unknown #
coedge $-1 $509 $342 $214 $350 forward $210 $-1 #
edge $-1 $352 12.788623642105549 $510 35.281789291249609 $349 $511 forward 7 unknown #
coedge $-1 $343 $215 $342 $498 reversed $133 $-1 #
vertex $-1 $350 $512 #
vertex $-1 $348 $513 #
straight-curve $-1 -36.823830108783127 0 12.92361971959399 0 -1 0 I I #
face $-1 $-1 $514 $50 $-1 $515 reversed single #
loop $-1 $-1 $223 $217 #
plane-surface $-1 0 0 17.457712779589077 0 0 1 1 0 0 forward_v I I I I #
coedge $-1 $516 $517 $518 $519 reversed $218 $-1 #
coedge $-1 $520 $220 $222 $365 forward $137 $-1 #
coedge $-1 $220 $520 $516 $521 forward $137 $-1 #
coedge $-1 $518 $223 $220 $362 forward $356 $-1 #
edge $-1 $368 -18.012548870295941 $522 -3.9438807142567587 $361 $523 forward 7 unknown #
coedge $-1 $524 $525 $221 $364 forward $514 $-1 #
edge $-1 $526 -59.699603519297369 $367 -49.199171391234515 $363 $527 forward 7 unknown #
edge $-1 $368 62.484214414782961 $526 74.86609709046111 $222 $528 forward 7 unknown #
coedge $-1 $223 $518 $524 $529 forward $356 $-1 #
vertex $-1 $364 $530 #
vertex $-1 $224 $531 #
straight-curve $-1 -28.990763662572292 49.18369699654253 17.457712779589073 0 -1 0 I I #
coedge $-1 $370 $370 $-1 $532 reversed $227 $-1 #
edge $-1 $533 0 $533 6.2831853071796004 $228 $534 forward 7 unknown #
vertex $-1 $231 $535 #
ellipse-curve $-1 -24.97114418941824 34.152349545085777 12.207496715557658 0 0.84804810408105047 0.52991925155115449 2 0 0 1 I I #
coedge $-1 $374 $374 $-1 $536 reversed $234 $-1 #
edge $-1 $537 0 $537 6.2831853071796004 $235 $538 forward 7 unknown #
vertex $-1 $238 $539 #
ellipse-curve $-1 -18.941714979687163 34.152349545085777 12.207496715557658 0 0.84804810408105047 0.52991925155115449 2 0 0 1 I I #
face $-1 $-1 $540 $53 $-1 $541 reversed single #
loop $-1 $-1 $245 $239 #
plane-surface $-1 0 0 17.457712779589077 0 0 1 1 0 0 forward_v I I I I #
coedge $-1 $542 $543 $544 $545 reversed $240 $-1 #
coedge $-1 $546 $242 $244 $388 forward $151 $-1 #
coedge $-1 $242 $546 $542 $547 forward $151 $-1 #
coedge $-1 $544 $245 $242 $385 forward $379 $-1 #
edge $-1 $391 -5.9949456369571532 $548 8.0737225190820308 $384 $549 forward 7 unknown #
coedge $-1 $550 $551 $243 $387 forward $540 $-1 #
edge $-1 $552 -59.699603519297369 $390 -49.199171391234515 $386 $553 forward 7 unknown #
edge $-1 $391 62.484214414782961 $552 74.86609709046111 $244 $554 forward 7 unknown #
coedge $-1 $245 $544 $550 $555 forward $379 $-1 #
vertex $-1 $246 $556 #
vertex $-1 $246 $557 #
straight-curve $-1 -4.9555571958947144 49.18369699654253 17.457712779589073 0 -1 0 I I #
coedge $-1 $393 $393 $-1 $558 reversed $249 $-1 #
edge $-1 $559 0 $559 6.2831853071796004 $250 $560 forward 7 unknown #
vertex $-1 $253 $561 #
ellipse-curve $-1 -0.93593772274066112 34.152349545085777 12.207496715557658 0 0.84804810408105047 0.52991925155115449 2 0 0 1 I I #
coedge $-1 $397 $397 $-1 $562 reversed $256 $-1 #
edge $-1 $563 0 $563 6.2831853071796004 $257 $564 forward 7 unknown #
vertex $-1 $260 $565 #
ellipse-curve $-1 5.0934914869904091 34.152349545085777 12.207496715557658 0 0.84804810408105047 0.52991925155115449 2 0 0 1 I I #
face $-1 $-1 $566 $56 $-1 $567 reversed single #
loop $-1 $-1 $267 $261 #
plane-surface $-1 0 0 17.457712779589077 0 0 1 1 0 0 forward_v I I I I #
coedge $-1 $568 $569 $570 $571 reversed $262 $-1 #
coedge $-1 $572 $264 $266 $411 forward $165 $-1 #
coedge $-1 $264 $572 $568 $573 forward $165 $-1 #
coedge $-1 $570 $267 $264 $408 forward $402 $-1 #
edge $-1 $414 6.022657596381638 $574 20.091325752420818 $407 $575 forward 7 unknown #
coedge $-1 $576 $577 $265 $410 forward $566 $-1 #
edge $-1 $578 -59.699603519297369 $413 -49.199171391234515 $409 $579 forward 7 unknown #
edge $-1 $414 62.484214414782961 $578 74.86609709046111 $266 $580 forward 7 unknown #
coedge $-1 $267 $570 $576 $581 forward $402 $-1 #
vertex $-1 $268 $582 #
vertex $-1 $268 $583 #
straight-curve $-1 19.079649270782866 49.18369699654253 17.457712779589073 0 -1 0 I I #
coedge $-1 $416 $416 $-1 $584 reversed $271 $-1 #
edge $-1 $585 0 $585 6.2831853071796004 $272 $586 forward 7 unknown #
vertex $-1 $275 $587 #
ellipse-curve $-1 23.099268743936925 34.152349545085777 12.207496715557658 0 0.84804810408105047 0.52991925155115449 2 0 0 1 I I #
coedge $-1 $420 $420 $-1 $588 reversed $278 $-1 #
edge $-1 $589 0 $589 6.2831853071796004 $279 $590 forward 7 unknown #
vertex $-1 $282 $591 #
ellipse-curve $-1 29.128697953667988 34.152349545085777 12.207496715557658 0 0.84804810408105047 0.52991925155115449 2 0 0 1 I I #
face $-1 $-1 $592 $59 $-1 $593 reversed single #
loop $-1 $-1 $289 $283 #
plane-surface $-1 0 0 17.457712779589077 0 0 1 1 0 0 forward_v I I I I #
coedge $-1 $594 $595 $596 $597 reversed $284 $-1 #
coedge $-1 $598 $286 $288 $434 forward $179 $-1 #
coedge $-1 $286 $598 $594 $599 forward $179 $-1 #
coedge $-1 $596 $289 $286 $431 forward $425 $-1 #
edge $-1 $437 18.040260829720427 $600 32.108928985759604 $430 $601 forward 7 unknown #
coedge $-1 $602 $603 $287 $433 forward $592 $-1 #
edge $-1 $604 -59.699603519297369 $436 -49.199171391234515 $432 $605 forward 7 unknown #
edge $-1 $437 62.484214414782961 $604 74.86609709046111 $288 $606 forward 7 unknown #
coedge $-1 $289 $596 $602 $607 forward $425 $-1 #
vertex $-1 $290 $608 #
vertex $-1 $290 $609 #
straight-curve $-1 43.114855737460445 49.18369699654253 17.457712779589073 0 -1 0 I I #
coedge $-1 $439 $439 $-1 $610 reversed $293 $-1 #
edge $-1 $611 0 $611 6.2831853071796004 $294 $612 forward 7 unknown #
vertex $-1 $297 $613 #
ellipse-curve $-1 47.134475210614504 34.152349545085777 12.207496715557658 0 0.84804810408105047 0.52991925155115449 2 0 0 1 I I #
coedge $-1 $443 $443 $-1 $614 reversed $300 $-1 #
edge $-1 $615 0 $615 6.2831853071796004 $301 $616 forward 7 unknown #
vertex $-1 $304 $617 #
ellipse-curve $-1 53.163904420345567 34.152349545085777 12.207496715557658 0 0.84804810408105047 0.52991925155115449 2 0 0 1 I I #
face $-1 $-1 $618 $62 $-1 $619 reversed single #
loop $-1 $-1 $453 $305 #
plane-surface $-1 0 0 17.457712779589077 0 0 1 1 0 0 forward_v I I I I #
coedge $-1 $620 $621 $452 $622 reversed $306 $-1 #
coedge $-1 $623 $308 $310 $457 forward $193 $-1 #
coedge $-1 $308 $623 $450 $622 forward $193 $-1 #
coedge $-1 $624 $311 $308 $454 forward $448 $-1 #
edge $-1 $460 1.2574805308479 $625 24.130059895572785 $453 $626 forward 7 unknown #
coedge $-1 $627 $628 $309 $456 forward $618 $-1 #
edge $-1 $629 -37.476315191034438 $459 -21.322430691839845 $455 $630 forward 7 unknown #
edge $-1 $460 -21.087398348168648 $629 0 $310 $631 forward 7 unknown #
coedge $-1 $311 $624 $627 $632 forward $448 $-1 #
vertex $-1 $456 $633 #
vertex $-1 $312 $634 #
straight-curve $-1 -13.951250744058243 -64.155979747026009 17.457712779589077 0 1 0 I I #
coedge $-1 $462 $462 $-1 $635 reversed $315 $-1 #
edge $-1 $636 0 $636 6.2831853071796004 $316 $637 forward 7 unknown #
vertex $-1 $319 $638 #
ellipse-curve $-1 -25.387540426420685 -30.655689459992676 9.3807705299917785 0 -0.7660444514056185 0.64278759981090561 1.5 0 0 1 I I #
face $-1 $-1 $335 $48 $-1 $639 reversed single #
loop $-1 $-1 $482 $320 #
plane-surface $-1 0 37.433048545230562 0 0 -1 0 0 0 -1 forward_v I I I I #
coedge $-1 $640 $480 $483 $641 forward $321 $-1 #
coedge $-1 $486 $323 $324 $474 reversed $202 $-1 #
coedge $-1 $480 $640 $323 $472 reversed $321 $-1 #
edge $-1 $487 -17.457712779589077 $642 17.457712779589077 $471 $643 forward 7 unknown #
coedge $-1 $325 $324 $640 $644 forward $129 $-1 #
edge $-1 $478 -59.316995757927181 $642 59.316995757927181 $470 $645 forward 7 unknown #
coedge $-1 $483 $482 $325 $476 reversed $467 $-1 #
edge $-1 $646 -59.316995757927181 $477 59.316995757927181 $475 $647 forward 7 unknown #
vertex $-1 $327 $648 #
vertex $-1 $489 $649 #
straight-curve $-1 59.316995757927181 0 -17.457712779589077 0 -1 0 I I #
coedge $-1 $469 $471 $328 $481 reversed $321 $-1 #
edge $-1 $484 -37.433048545230562 $487 37.433048545230562 $480 $650 forward 7 unknown #
coedge $-1 $475 $329 $334 $490 forward $467 $-1 #
coedge $-1 $329 $475 $469 $641 reversed $467 $-1 #
vertex $-1 $330 $651 #
straight-curve $-1 0 37.433048545230562 17.457712779589077 -1 0 0 I I #
coedge $-1 $331 $470 $333 $489 reversed $202 $-1 #
vertex $-1 $481 $652 #
straight-curve $-1 0 -37.433048545230562 17.457712779589077 1 0 0 I I #
edge $-1 $336 -17.457712779589077 $478 17.457712779589077 $333 $653 forward 7 unknown #
edge $-1 $337 -17.457712779589077 $477 17.457712779589077 $334 $654 forward 7 unknown #
point $-1 59.316995757927181 -37.433048545230562 17.457712779589077 #
point $-1 59.316995757927181 37.433048545230562 17.457712779589077 #
face $-1 $-1 $502 $49 $-1 $655 reversed single #
loop $-1 $-1 $499 $339 #
plane-surface $-1 0 0 17.457712779589077 0 0 1 1 0 0 forward_v I I I I #
coedge $-1 $656 $657 $346 $505 forward $340 $-1 #
coedge $-1 $342 $509 $658 $659 reversed $210 $-1 #
edge $-1 $660 -9.86237965479331 $352 -5.3282865947982234 $342 $661 forward 7 unknown #
coedge $-1 $658 $662 $343 $500 forward $494 $-1 #
edge $-1 $503 -37.433048545230562 $660 37.433048545230562 $499 $663 forward 7 unknown #
coedge $-1 $506 $344 $662 $664 reversed $502 $-1 #
loop $-1 $-1 $344 $493 #
vertex $-1 $345 $665 #
straight-curve $-1 -36.823830108783127 -37.433048545230562 7.5953331247957667 0 0 1 I I #
edge $-1 $510 -37.433048545230562 $507 37.433048545230562 $496 $666 forward 7 unknown #
coedge $-1 $347 $501 $656 $667 forward $502 $-1 #
vertex $-1 $505 $668 #
straight-curve $-1 -24.035206466677579 -37.433048545230562 12.92361971959399 1 0 0 I I #
coedge $-1 $497 $349 $657 $669 reversed $210 $-1 #
vertex $-1 $505 $670 #
straight-curve $-1 -24.035206466677579 37.433048545230562 12.92361971959399 -1 0 0 I I #
point $-1 -36.823830108783127 37.433048545230562 12.92361971959399 #
point $-1 -36.823830108783127 -37.433048545230562 12.92361971959399 #
loop $-1 $-1 $363 $355 #
plane-surface $-1 0 37.433048545230562 0 0 -1 0 0 0 -1 forward_v I I I I #
coedge $-1 $517 $358 $360 $521 reversed $218 $-1 #
coedge $-1 $358 $516 $671 $672 reversed $218 $-1 #
coedge $-1 $366 $361 $358 $519 forward $356 $-1 #
edge $-1 $522 -18.312046451601532 $673 -11.750648451311967 $518 $674 forward 7 unknown #
coedge $-1 $360 $359 $525 $675 reversed $137 $-1 #
edge $-1 $676 -74.86609709046111 $522 -62.484214414782961 $516 $677 forward 7 unknown #
vertex $-1 $362 $678 #
straight-curve $-1 -10.978214792276351 30.871650544940991 17.45771277958908 1 0 0 I I #
coedge $-1 $671 $363 $366 $529 reversed $514 $-1 #
coedge $-1 $363 $671 $520 $675 forward $514 $-1 #
vertex $-1 $364 $679 #
straight-curve $-1 -28.990763662572292 37.433048545230562 66.656884170823588 0 0 1 I I #
straight-curve $-1 -28.990763662572292 -2.2399375915026525 70.447332349039613 0 0.52991925155115449 -0.84804810408105047 I I #
edge $-1 $673 14.922095506533109 $367 28.990763662572292 $524 $680 forward 7 unknown #
point $-1 -28.990763662572292 37.433048545230562 17.457712779589077 #
point $-1 -28.990763662572292 30.871650544940998 17.457712779589073 #
edge $-1 $681 1 $681 0 $370 $-1 forward 7 unknown #
vertex $-1 $371 $682 #
ellipse-curve $-1 -24.97114418941824 27.483964089935817 8.0406271565757255 0 0.84804810408105047 0.52991925155115449 2 0 0 1 I I #
point $-1 -22.97114418941824 34.152349545085784 12.207496715557664 #
edge $-1 $683 1 $683 0 $374 $-1 forward 7 unknown #
vertex $-1 $375 $684 #
ellipse-curve $-1 -18.941714979687163 27.483964089935817 8.0406271565757255 0 0.84804810408105047 0.52991925155115449 2 0 0 1 I I #
point $-1 -16.941714979687163 34.152349545085784 12.207496715557664 #
loop $-1 $-1 $386 $378 #
plane-surface $-1 0 37.433048545230562 0 0 -1 0 0 0 -1 forward_v I I I I #
coedge $-1 $543 $381 $383 $547 reversed $240 $-1 #
coedge $-1 $381 $542 $685 $686 reversed $240 $-1 #
coedge $-1 $389 $384 $381 $545 forward $379 $-1 #
edge $-1 $548 -18.312046451601532 $687 -11.750648451311967 $544 $688 forward 7 unknown #
coedge $-1 $383 $382 $551 $689 reversed $151 $-1 #
edge $-1 $690 -74.86609709046111 $548 -62.484214414782961 $542 $691 forward 7 unknown #
vertex $-1 $385 $692 #
straight-curve $-1 1.0393884410624388 30.871650544940991 17.45771277958908 1 0 0 I I #
coedge $-1 $685 $386 $389 $555 reversed $540 $-1 #
coedge $-1 $386 $685 $546 $689 forward $540 $-1 #
vertex $-1 $387 $693 #
straight-curve $-1 -4.9555571958947144 37.433048545230562 66.656884170823588 0 0 1 I I #
straight-curve $-1 -4.9555571958947144 -2.2399375915026525 70.447332349039613 0 0.52991925155115449 -0.84804810408105047 I I #
edge $-1 $687 -9.1131109601444695 $390 4.9555571958947144 $550 $694 forward 7 unknown #
point $-1 -4.9555571958947144 37.433048545230562 17.457712779589077 #
point $-1 -4.9555571958947144 30.871650544940998 17.457712779589073 #
edge $-1 $695 1 $695 0 $393 $-1 forward 7 unknown #
vertex $-1 $394 $696 #
ellipse-curve $-1 -0.93593772274066112 27.483964089935817 8.0406271565757255 0 0.84804810408105047 0.52991925155115449 2 0 0 1 I I #
point $-1 1.0640622772593389 34.152349545085784 12.207496715557664 #
edge $-1 $697 1 $697 0 $397 $-1 forward 7 unknown #
vertex $-1 $398 $698 #
ellipse-curve $-1 5.0934914869904091 27.483964089935817 8.0406271565757255 0 0.84804810408105047 0.52991925155115449 2 0 0 1 I I #
point $-1 7.0934914869904091 34.152349545085784 12.207496715557664 #
loop $-1 $-1 $409 $401 #
plane-surface $-1 0 37.433048545230562 0 0 -1 0 0 0 -1 forward_v I I I I #
coedge $-1 $569 $404 $406 $573 reversed $262 $-1 #
coedge $-1 $404 $568 $699 $700 reversed $262 $-1 #
coedge $-1 $412 $407 $404 $571 forward $402 $-1 #
edge $-1 $574 -18.312046451601532 $701 -11.750648451311967 $570 $702 forward 7 unknown #
coedge $-1 $406 $405 $577 $703 reversed $165 $-1 #
edge $-1 $704 -74.86609709046111 $574 -62.484214414782961 $568 $705 forward 7 unknown #
vertex $-1 $408 $706 #
straight-curve $-1 13.056991674401228 30.871650544940991 17.45771277958908 1 0 0 I I #
coedge $-1 $699 $409 $412 $581 reversed $566 $-1 #
coedge $-1 $409 $699 $572 $703 forward $566 $-1 #
vertex $-1 $410 $707 #
straight-curve $-1 19.079649270782866 37.433048545230562 66.656884170823588 0 0 1 I I #
straight-curve $-1 19.079649270782866 -2.2399375915026525 70.447332349039613 0 0.52991925155115449 -0.84804810408105047 I I #
edge $-1 $701 -33.148317426822047 $413 -19.079649270782866 $576 $708 forward 7 unknown #
point $-1 19.079649270782866 37.433048545230562 17.457712779589077 #
point $-1 19.079649270782866 30.871650544940998 17.457712779589073 #
edge $-1 $709 1 $709 0 $416 $-1 forward 7 unknown #
vertex $-1 $417 $710 #
ellipse-curve $-1 23.099268743936925 27.483964089935817 8.0406271565757255 0 0.84804810408105047 0.52991925155115449 2 0 0 1 I I #
point $-1 25.099268743936925 34.152349545085784 12.207496715557664 #
edge $-1 $711 1 $711 0 $420 $-1 forward 7 unknown #
vertex $-1 $421 $712 #
ellipse-curve $-1 29.128697953667988 27.483964089935817 8.0406271565757255 0 0.84804810408105047 0.52991925155115449 2 0 0 1 I I #
point $-1 31.128697953667988 34.152349545085784 12.207496715557664 #
loop $-1 $-1 $432 $424 #
plane-surface $-1 0 37.433048545230562 0 0 -1 0 0 0 -1 forward_v I I I I #
coedge $-1 $595 $427 $429 $599 reversed $284 $-1 #
coedge $-1 $427 $594 $713 $714 reversed $284 $-1 #
coedge $-1 $435 $430 $427 $597 forward $425 $-1 #
edge $-1 $600 -18.312046451601532 $715 -11.750648451311967 $596 $716 forward 7 unknown #
coedge $-1 $429 $428 $603 $717 reversed $179 $-1 #
edge $-1 $718 -74.86609709046111 $600 -62.484214414782961 $594 $719 forward 7 unknown #
vertex $-1 $431 $720 #
straight-curve $-1 25.074594907740018 30.871650544940991 17.45771277958908 1 0 0 I I #
coedge $-1 $713 $432 $435 $607 reversed $592 $-1 #
coedge $-1 $432 $713 $598 $717 forward $592 $-1 #
vertex $-1 $433 $721 #
straight-curve $-1 43.114855737460445 37.433048545230562 66.656884170823588 0 0 1 I I #
straight-curve $-1 43.114855737460445 -2.2399375915026525 70.447332349039613 0 0.52991925155115449 -0.84804810408105047 I I #
edge $-1 $715 -57.183523893499626 $436 -43.114855737460445 $602 $722 forward 7 unknown #
point $-1 43.114855737460445 37.433048545230562 17.457712779589077 #
point $-1 43.114855737460445 30.871650544940998 17.457712779589073 #
edge $-1 $723 1 $723 0 $439 $-1 forward 7 unknown #
vertex $-1 $440 $724 #
ellipse-curve $-1 47.134475210614504 27.483964089935817 8.0406271565757255 0 0.84804810408105047 0.52991925155115449 2 0 0 1 I I #
point $-1 49.134475210614504 34.152349545085784 12.207496715557664 #
edge $-1 $725 1 $725 0 $443 $-1 forward 7 unknown #
vertex $-1 $444 $726 #
ellipse-curve $-1 53.163904420345567 27.483964089935817 8.0406271565757255 0 0.84804810408105047 0.52991925155115449 2 0 0 1 I I #
point $-1 55.163904420345567 34.152349545085784 12.207496715557664 #
loop $-1 $-1 $455 $447 #
plane-surface $-1 0 -37.433048545230562 0 0 1 0 0 0 1 forward_v I I I I #
coedge $-1 $621 $450 $727 $728 reversed $306 $-1 #
coedge $-1 $450 $620 $624 $729 reversed $306 $-1 #
edge $-1 $730 0 $625 21.087398348168648 $450 $731 forward 7 unknown #
coedge $-1 $452 $451 $628 $732 reversed $193 $-1 #
coedge $-1 $458 $453 $621 $729 forward $448 $-1 #
vertex $-1 $729 $733 #
straight-curve $-1 -12.693770213210342 -23.878330374754785 17.457712779589077 -1 0 0 I I #
coedge $-1 $727 $455 $458 $632 reversed $618 $-1 #
coedge $-1 $455 $727 $623 $732 forward $618 $-1 #
vertex $-1 $456 $734 #
straight-curve $-1 -13.951250744058243 -37.433048545230562 38.780143471428921 0 0 1 I I #
straight-curve $-1 -13.951250744058243 -37.433048545230562 1.3038282803944838 0 -0.64278759981090561 -0.7660444514056185 I I #
edge $-1 $735 -36.823830108783127 $459 -13.951250744058243 $627 $736 forward 7 unknown #
point $-1 -13.951250744058243 -37.433048545230562 17.457712779589077 #
point $-1 -13.951250744058243 -23.878330374754785 17.457712779589077 #
edge $-1 $737 1 $737 0 $462 $-1 forward 7 unknown #
vertex $-1 $463 $738 #
ellipse-curve $-1 -25.387540426420685 -28.057551057322719 7.2006736116414443 0 -0.7660444514056185 0.64278759981090561 1.5 0 0 1 I I #
point $-1 -23.887540426420685 -30.655689459992669 9.3807705299917732 #
plane-surface $-1 59.316995757927181 0 0 -1 0 0 0 0 1 forward_v I I I I #
coedge $-1 $471 $469 $473 $644 reversed $321 $-1 #
edge $-1 $484 -17.457712779589077 $646 17.457712779589077 $483 $739 forward 7 unknown #
vertex $-1 $644 $740 #
straight-curve $-1 -59.316995757927181 -37.433048545230562 0 0 0 -1 I I #
edge $-1 $642 -37.433048545230562 $646 37.433048545230562 $640 $741 forward 7 unknown #
straight-curve $-1 0 -37.433048545230562 -17.457712779589077 -1 0 0 I I #
vertex $-1 $476 $742 #
straight-curve $-1 0 37.433048545230562 -17.457712779589077 1 0 0 I I #
point $-1 59.316995757927181 37.433048545230562 -17.457712779589077 #
point $-1 59.316995757927181 -37.433048545230562 -17.457712779589077 #
straight-curve $-1 -59.316995757927181 0 17.457712779589077 0 -1 0 I I #
point $-1 -59.316995757927181 37.433048545230562 17.457712779589077 #
point $-1 -59.316995757927181 -37.433048545230562 17.457712779589077 #
straight-curve $-1 59.316995757927181 -37.433048545230562 0 0 0 -1 I I #
straight-curve $-1 59.316995757927181 37.433048545230562 0 0 0 -1 I I #
plane-surface $-1 0 -37.433048545230562 0 0 1 0 0 0 1 forward_v I I I I #
coedge $-1 $743 $496 $506 $667 reversed $340 $-1 #
coedge $-1 $496 $743 $509 $669 forward $340 $-1 #
coedge $-1 $744 $499 $497 $659 forward $494 $-1 #
edge $-1 $660 36.823830108783127 $745 59.316995757927181 $497 $746 forward 7 unknown #
vertex $-1 $659 $747 #
straight-curve $-1 -36.823830108783127 37.433048545230562 7.5953331247957667 0 0 -1 I I #
coedge $-1 $499 $744 $501 $664 forward $494 $-1 #
straight-curve $-1 -36.823830108783127 0 17.457712779589077 0 1 0 I I #
edge $-1 $748 -59.316995757927181 $503 -36.823830108783127 $501 $749 forward 7 unknown #
point $-1 -36.823830108783127 -37.433048545230562 17.457712779589077 #
straight-curve $-1 -59.316995757927181 0 12.92361971959399 0 -1 0 I I #
edge $-1 $748 -17.457712779589077 $507 -12.92361971959399 $656 $750 forward 7 unknown #
point $-1 -59.316995757927188 -37.433048545230562 12.92361971959399 #
edge $-1 $745 -17.457712779589077 $510 -12.92361971959399 $509 $751 forward 7 unknown #
point $-1 -59.316995757927188 37.433048545230562 12.92361971959399 #
coedge $-1 $525 $524 $517 $672 forward $514 $-1 #
edge $-1 $673 49.199171391234515 $676 59.699603519297369 $671 $752 forward 7 unknown #
vertex $-1 $529 $753 #
straight-curve $-1 -14.922095506533109 49.18369699654253 17.457712779589073 0 1 0 I I #
edge $-1 $676 3.9438807142567587 $526 18.012548870295941 $525 $754 forward 7 unknown #
vertex $-1 $675 $755 #
straight-curve $-1 -14.922095506533109 -2.2399375915026525 70.447332349039613 0 -0.52991925155115449 0.84804810408105047 I I #
point $-1 -14.922095506533109 30.871650544940998 17.457712779589073 #
point $-1 -28.990763662572292 37.433048545230562 6.9572806515262187 #
straight-curve $-1 0 37.433048545230562 17.457712779589077 -1 0 0 I I #
vertex $-1 $532 $756 #
point $-1 -22.97114418941824 27.483964089935817 8.0406271565757255 #
vertex $-1 $536 $757 #
point $-1 -16.941714979687163 27.483964089935817 8.0406271565757255 #
coedge $-1 $551 $550 $543 $686 forward $540 $-1 #
edge $-1 $687 49.199171391234515 $690 59.699603519297369 $685 $758 forward 7 unknown #
vertex $-1 $555 $759 #
straight-curve $-1 9.1131109601444695 49.18369699654253 17.457712779589073 0 1 0 I I #
edge $-1 $690 -8.0737225190820308 $552 5.9949456369571532 $551 $760 forward 7 unknown #
vertex $-1 $689 $761 #
straight-curve $-1 9.1131109601444695 -2.2399375915026525 70.447332349039613 0 -0.52991925155115449 0.84804810408105047 I I #
point $-1 9.1131109601444695 30.871650544940998 17.457712779589073 #
point $-1 -4.9555571958947144 37.433048545230562 6.9572806515262187 #
straight-curve $-1 0 37.433048545230562 17.457712779589077 -1 0 0 I I #
vertex $-1 $558 $762 #
point $-1 1.0640622772593389 27.483964089935817 8.0406271565757255 #
vertex $-1 $562 $763 #
point $-1 7.0934914869904091 27.483964089935817 8.0406271565757255 #
coedge $-1 $577 $576 $569 $700 forward $566 $-1 #
edge $-1 $701 49.199171391234515 $704 59.699603519297369 $699 $764 forward 7 unknown #
vertex $-1 $581 $765 #
straight-curve $-1 33.148317426822047 49.18369699654253 17.457712779589073 0 1 0 I I #
edge $-1 $704 -20.091325752420818 $578 -6.022657596381638 $577 $766 forward 7 unknown #
vertex $-1 $703 $767 #
straight-curve $-1 33.148317426822047 -2.2399375915026525 70.447332349039613 0 -0.52991925155115449 0.84804810408105047 I I #
point $-1 33.148317426822047 30.871650544940998 17.457712779589073 #
point $-1 19.079649270782866 37.433048545230562 6.9572806515262187 #
straight-curve $-1 0 37.433048545230562 17.457712779589077 -1 0 0 I I #
vertex $-1 $584 $768 #
point $-1 25.099268743936925 27.483964089935817 8.0406271565757255 #
vertex $-1 $588 $769 #
point $-1 31.128697953667988 27.483964089935817 8.0406271565757255 #
coedge $-1 $603 $602 $595 $714 forward $592 $-1 #
edge $-1 $715 49.199171391234515 $718 59.699603519297369 $713 $770 forward 7 unknown #
vertex $-1 $607 $771 #
straight-curve $-1 57.183523893499626 49.18369699654253 17.457712779589073 0 1 0 I I #
edge $-1 $718 -32.108928985759604 $604 -18.040260829720427 $603 $772 forward 7 unknown #
vertex $-1 $717 $773 #
straight-curve $-1 57.183523893499626 -2.2399375915026525 70.447332349039613 0 -0.52991925155115449 0.84804810408105047 I I #
point $-1 57.183523893499626 30.871650544940998 17.457712779589073 #
point $-1 43.114855737460445 37.433048545230562 6.9572806515262187 #
straight-curve $-1 0 37.433048545230562 17.457712779589077 -1 0 0 I I #
vertex $-1 $610 $774 #
point $-1 49.134475210614504 27.483964089935817 8.0406271565757255 #
vertex $-1 $614 $775 #
point $-1 55.163904420345567 27.483964089935817 8.0406271565757255 #
coedge $-1 $628 $627 $620 $728 forward $618 $-1 #
edge $-1 $735 21.322430691839845 $730 37.476315191034438 $727 $776 forward 7 unknown #
edge $-1 $625 23.878330374754785 $735 37.433048545230562 $624 $777 forward 7 unknown #
vertex $-1 $728 $778 #
straight-curve $-1 -36.823830108783127 -37.433048545230562 1.3038282803944838 0 0.64278759981090561 0.7660444514056185 I I #
edge $-1 $730 -24.130059895572785 $629 -1.2574805308479 $628 $779 forward 7 unknown #
point $-1 -36.823830108783127 -23.878330374754785 17.457712779589077 #
point $-1 -13.951250744058243 -37.433048545230562 1.3038282803944838 #
vertex $-1 $632 $780 #
straight-curve $-1 0 -37.433048545230562 17.457712779589077 1 0 0 I I #
vertex $-1 $635 $781 #
point $-1 -23.887540426420685 -28.057551057322719 7.2006736116414443 #
straight-curve $-1 -59.316995757927181 37.433048545230562 0 0 0 -1 I I #
point $-1 -59.316995757927181 -37.433048545230562 -17.457712779589077 #
straight-curve $-1 -59.316995757927181 0 -17.457712779589077 0 1 0 I I #
point $-1 -59.316995757927181 37.433048545230562 -17.457712779589077 #
coedge $-1 $657 $656 $744 $782 reversed $340 $-1 #
coedge $-1 $662 $658 $743 $782 forward $494 $-1 #
vertex $-1 $659 $783 #
straight-curve $-1 0 37.433048545230562 17.457712779589077 -1 0 0 I I #
point $-1 -36.823830108783127 37.433048545230562 17.457712779589077 #
vertex $-1 $782 $784 #
straight-curve $-1 0 -37.433048545230562 17.457712779589077 1 0 0 I I #
straight-curve $-1 -59.316995757927181 -37.433048545230562 0 0 0 -1 I I #
straight-curve $-1 -59.316995757927181 37.433048545230562 0 0 0 -1 I I #
straight-curve $-1 -14.922095506533109 37.433048545230562 66.656884170823588 0 0 -1 I I #
point $-1 -14.922095506533109 37.433048545230562 17.457712779589077 #
straight-curve $-1 -10.978214792276351 37.433048545230562 6.9572806515262293 -1 0 0 I I #
point $-1 -14.922095506533109 37.433048545230562 6.9572806515262187 #
point $-1 -24.97114418941824 25.787867881773714 6.9807886534734163 #
point $-1 -18.941714979687163 25.787867881773714 6.9807886534734163 #
straight-curve $-1 9.1131109601444695 37.433048545230562 66.656884170823588 0 0 -1 I I #
point $-1 9.1131109601444695 37.433048545230562 17.457712779589077 #
straight-curve $-1 1.0393884410624388 37.433048545230562 6.9572806515262293 -1 0 0 I I #
point $-1 9.1131109601444695 37.433048545230562 6.9572806515262187 #
point $-1 -0.93593772274066112 25.787867881773714 6.9807886534734163 #
point $-1 5.0934914869904091 25.787867881773714 6.9807886534734163 #
straight-curve $-1 33.148317426822047 37.433048545230562 66.656884170823588 0 0 -1 I I #
point $-1 33.148317426822047 37.433048545230562 17.457712779589077 #
straight-curve $-1 13.056991674401228 37.433048545230562 6.9572806515262293 -1 0 0 I I #
point $-1 33.148317426822047 37.433048545230562 6.9572806515262187 #
point $-1 23.099268743936925 25.787867881773714 6.9807886534734163 #
point $-1 29.128697953667988 25.787867881773714 6.9807886534734163 #
straight-curve $-1 57.183523893499626 37.433048545230562 66.656884170823588 0 0 -1 I I #
point $-1 57.183523893499626 37.433048545230562 17.457712779589077 #
straight-curve $-1 25.074594907740018 37.433048545230562 6.9572806515262293 -1 0 0 I I #
point $-1 57.183523893499626 37.433048545230562 6.9572806515262187 #
point $-1 47.134475210614504 25.787867881773714 6.9807886534734163 #
point $-1 53.163904420345567 25.787867881773714 6.9807886534734163 #
straight-curve $-1 -36.823830108783127 -37.433048545230562 38.780143471428921 0 0 -1 I I #
straight-curve $-1 -36.823830108783127 0 17.457712779589077 0 -1 0 I I #
point $-1 -36.823830108783127 -37.433048545230562 1.3038282803944838 #
straight-curve $-1 -12.693770213210342 -37.433048545230562 1.3038282803944832 1 0 0 I I #
point $-1 -36.823830108783127 -37.433048545230562 17.457712779589077 #
point $-1 -25.387540426420685 -26.90848438021429 6.2364922119250865 #
edge $-1 $745 -37.433048545230562 $748 37.433048545230562 $743 $785 forward 7 unknown #
point $-1 -59.316995757927181 37.433048545230562 17.457712779589077 #
point $-1 -59.316995757927181 -37.433048545230562 17.457712779589077 #
straight-curve $-1 -59.316995757927181 0 17.457712779589077 0 -1 0 I I #
End-of-ACIS-data 