500 0 12 0           
7 Unknown 11 ACIS 5.0 NT 24 Fri Mar 26 17:54:44 1999 
-1 9.9999999999999995e-007 1e-010 
body $-1 $12 $-1 $13 #
body $-1 $14 $-1 $15 #
body $-1 $16 $-1 $17 #
body $-1 $18 $-1 $19 #
body $-1 $20 $-1 $21 #
body $-1 $22 $-1 $23 #
body $-1 $24 $-1 $25 #
body $-1 $26 $-1 $27 #
body $-1 $28 $-1 $29 #
body $-1 $30 $-1 $31 #
body $-1 $32 $-1 $33 #
body $-1 $34 $-1 $35 #
lump $-1 $-1 $36 $0 #
transform $-1 1 0 0 0 1 0 0 0 1 63.228247932370984 27.819309903750703 11.320872342588062 1 rotate no_reflect no_shear #
lump $-1 $-1 $37 $1 #
transform $-1 1 0 0 0 1 0 0 0 1 63.228247932370984 27.819309903750703 11.320872342588062 1 rotate no_reflect no_shear #
lump $-1 $-1 $38 $2 #
transform $-1 1 0 0 0 1 0 0 0 1 63.228247932370984 27.819309903750703 11.320872342588062 1 rotate no_reflect no_shear #
lump $-1 $-1 $39 $3 #
transform $-1 1 0 0 0 1 0 0 0 1 63.228247932370984 27.819309903750703 11.320872342588062 1 rotate no_reflect no_shear #
lump $-1 $-1 $40 $4 #
transform $-1 1 0 0 0 1 0 0 0 1 63.228247932370984 27.819309903750703 11.320872342588062 1 rotate no_reflect no_shear #
lump $-1 $-1 $41 $5 #
transform $-1 1 0 0 0 1 0 0 0 1 63.228247932370984 27.819309903750703 11.320872342588062 1 rotate no_reflect no_shear #
lump $-1 $-1 $42 $6 #
transform $-1 1 0 0 0 1 0 0 0 1 63.228247932370984 27.819309903750703 11.320872342588062 1 rotate no_reflect no_shear #
lump $-1 $-1 $43 $7 #
transform $-1 1 0 0 0 1 0 0 0 1 63.228247932370984 27.819309903750703 11.320872342588062 1 rotate no_reflect no_shear #
lump $-1 $-1 $44 $8 #
transform $-1 1 0 0 0 1 0 0 0 1 63.228247932370984 27.819309903750703 11.320872342588062 1 rotate no_reflect no_shear #
lump $-1 $-1 $45 $9 #
transform $-1 1 0 0 0 1 0 0 0 1 63.228247932370984 27.819309903750703 11.320872342588062 1 rotate no_reflect no_shear #
lump $-1 $-1 $46 $10 #
transform $-1 1 0 0 0 1 0 0 0 1 63.228247932370984 27.819309903750703 11.320872342588062 1 rotate no_reflect no_shear #
lump $-1 $-1 $47 $11 #
transform $-1 1 0 0 0 1 0 0 0 1 63.228247932370984 27.819309903750703 11.320872342588062 1 rotate no_reflect no_shear #
shell $-1 $-1 $-1 $48 $-1 $12 #
shell $-1 $-1 $-1 $49 $-1 $14 #
shell $-1 $-1 $-1 $50 $-1 $16 #
shell $-1 $-1 $-1 $51 $-1 $18 #
shell $-1 $-1 $-1 $52 $-1 $20 #
shell $-1 $-1 $-1 $53 $-1 $22 #
shell $-1 $-1 $-1 $54 $-1 $24 #
shell $-1 $-1 $-1 $55 $-1 $26 #
shell $-1 $-1 $-1 $56 $-1 $28 #
shell $-1 $-1 $-1 $57 $-1 $30 #
shell $-1 $-1 $-1 $58 $-1 $32 #
shell $-1 $-1 $-1 $59 $-1 $34 #
face $-1 $60 $61 $36 $-1 $62 forward single #
face $-1 $63 $64 $37 $-1 $65 reversed single #
face $-1 $66 $67 $38 $-1 $68 reversed single #
face $-1 $69 $70 $39 $-1 $71 forward single #
face $-1 $72 $73 $40 $-1 $74 reversed single #
face $-1 $75 $76 $41 $-1 $77 forward single #
face $-1 $78 $79 $42 $-1 $80 forward single #
face $-1 $81 $82 $43 $-1 $83 forward single #
face $-1 $84 $85 $44 $-1 $86 reversed single #
face $-1 $87 $88 $45 $-1 $89 forward single #
face $-1 $90 $91 $46 $-1 $92 forward single #
face $-1 $93 $94 $47 $-1 $95 forward single #
face $-1 $96 $97 $36 $-1 $98 reversed single #
loop $-1 $-1 $99 $48 #
plane-surface $-1 0 0 11.320872342588062 0 0 1 1 0 0 forward_v I I I I #
face $-1 $100 $101 $37 $-1 $102 reversed single #
loop $-1 $-1 $103 $49 #
plane-surface $-1 -50.060438642497999 -22.704768014126017 0 1 0 0 0 0 -1 forward_v I I I I #
face $-1 $104 $105 $38 $-1 $106 reversed single #
loop $-1 $-1 $107 $50 #
plane-surface $-1 -128.35815898880094 17.275000842983022 108.93882138841228 0 1 0 -0.51503808176128008 0 0.85716729658548041 forward_v I I I I #
face $-1 $108 $109 $39 $-1 $110 forward single #
loop $-1 $111 $112 $51 #
cone-surface $-1 -53.350143752454528 21.44877763698808 4.4171444229708801 0.51503808176128008 0 -0.85716729658548041 1.2857509448782207 0 0.77255712264192011 1 I I 0 1 1.5 forward I I I I #
face $-1 $113 $114 $40 $-1 $115 reversed single #
loop $-1 $-1 $116 $52 #
plane-surface $-1 26.04605209264016 0.9953646296326788 183.13660810946283 0 -1 0 -0.54463904215088732 0 -0.83867056331134215 forward_v I I I I #
face $-1 $117 $118 $41 $-1 $119 forward single #
loop $-1 $120 $121 $53 #
cone-surface $-1 60.32599608949473 -4.4513579498150513 8.9858727739199225 -0.54463904215088732 0 -0.83867056331134215 0.41933528165567108 0 -0.27231952107544366 1 I I 0 1 0.5 forward I I I I #
face $-1 $122 $123 $42 $-1 $124 forward single #
loop $-1 $125 $126 $54 #
cone-surface $-1 60.32599608949473 -2.4088369825221498 8.9858727739199225 -0.54463904215088732 0 -0.83867056331134215 0.41933528165567108 0 -0.27231952107544366 1 I I 0 1 0.5 forward I I I I #
face $-1 $127 $128 $43 $-1 $129 forward single #
loop $-1 $130 $131 $55 #
cone-surface $-1 60.32599608949473 -0.36631601522924839 8.9858727739199225 -0.54463904215088732 0 -0.83867056331134215 0.41933528165567108 0 -0.27231952107544366 1 I I 0 1 0.5 forward I I I I #
face $-1 $132 $133 $44 $-1 $134 reversed single #
loop $-1 $-1 $135 $56 #
plane-surface $-1 26.04605209264016 23.700132643758693 183.13660810946283 0 -1 0 -0.54463904215088732 0 -0.83867056331134215 forward_v I I I I #
face $-1 $136 $137 $45 $-1 $138 forward single #
loop $-1 $139 $140 $57 #
cone-surface $-1 60.32599608949473 18.253410064310966 8.9858727739199225 -0.54463904215088732 0 -0.83867056331134215 0.41933528165567108 0 -0.27231952107544366 1 I I 0 1 0.5 forward I I I I #
face $-1 $141 $142 $46 $-1 $143 forward single #
loop $-1 $144 $145 $58 #
cone-surface $-1 60.32599608949473 20.295931031603867 8.9858727739199225 -0.54463904215088732 0 -0.83867056331134215 0.41933528165567108 0 -0.27231952107544366 1 I I 0 1 0.5 forward I I I I #
face $-1 $146 $147 $47 $-1 $148 forward single #
loop $-1 $149 $150 $59 #
cone-surface $-1 60.32599608949473 22.338451998896769 8.9858727739199225 -0.54463904215088732 0 -0.83867056331134215 0.41933528165567108 0 -0.27231952107544366 1 I I 0 1 0.5 forward I I I I #
face $-1 $151 $152 $36 $-1 $153 reversed single #
loop $-1 $-1 $154 $60 #
plane-surface $-1 0 0 -11.320872342588062 0 0 1 1 0 0 forward_v I I I I #
coedge $-1 $155 $156 $157 $158 forward $61 $-1 #
face $-1 $159 $160 $37 $-1 $161 reversed single #
loop $-1 $-1 $162 $63 #
plane-surface $-1 -47.302170130060126 -17.590226124501331 0 0 -1 0 0 0 -1 forward_v I I I I #
coedge $-1 $163 $164 $165 $166 forward $64 $-1 #
face $-1 $167 $168 $38 $-1 $169 reversed single #
loop $-1 $-1 $170 $66 #
plane-surface $-1 -63.228247932370991 21.44877763698808 0.5444486923584293 -0.51503808176128008 0 0.85716729658548041 0.85716729658548041 0 0.51503808176128008 forward_v I I I I #
coedge $-1 $171 $172 $173 $174 reversed $67 $-1 #
face $-1 $-1 $175 $39 $-1 $176 forward single #
loop $-1 $177 $178 $69 #
cone-surface $-1 -52.053251235958008 21.44877763698808 2.2587528560294032 0.51503808176128008 0 -0.85716729658548041 0.64287547243911036 0 0.38627856132096006 1 I I -0.70710678118654724 0.70710678118654768 0.75 forward I I I I #
loop $-1 $-1 $179 $51 #
coedge $-1 $112 $112 $180 $181 reversed $70 $-1 #
face $-1 $182 $183 $40 $-1 $184 reversed single #
loop $-1 $-1 $185 $72 #
plane-surface $-1 -42.827092688890552 -2.4088369825221534 77.081267488201277 0.54463904215088732 0 0.83867056331134215 0.83867056331134215 0 -0.54463904215088732 forward_v I I I I #
coedge $-1 $186 $187 $188 $189 reversed $73 $-1 #
face $-1 $-1 $190 $41 $-1 $191 forward single #
loop $-1 $192 $193 $75 #
cone-surface $-1 59.684191494175913 -4.4513579498150513 7.9975803823827061 -0.54463904215088732 0 -0.83867056331134215 0.20966764082783554 0 -0.13615976053772183 1 I I -0.70710678118654746 0.70710678118654746 0.25 forward I I I I #
loop $-1 $-1 $194 $53 #
coedge $-1 $121 $121 $195 $196 reversed $76 $-1 #
face $-1 $-1 $197 $42 $-1 $198 forward single #
loop $-1 $199 $200 $78 #
cone-surface $-1 59.684191494175913 -2.4088369825221498 7.9975803823827061 -0.54463904215088732 0 -0.83867056331134215 0.20966764082783554 0 -0.13615976053772183 1 I I -0.70710678118654746 0.70710678118654746 0.25 forward I I I I #
loop $-1 $-1 $201 $54 #
coedge $-1 $126 $126 $202 $203 reversed $79 $-1 #
face $-1 $-1 $204 $43 $-1 $205 forward single #
loop $-1 $206 $207 $81 #
cone-surface $-1 59.684191494175913 -0.36631601522924839 7.9975803823827061 -0.54463904215088732 0 -0.83867056331134215 0.20966764082783554 0 -0.13615976053772183 1 I I -0.70710678118654746 0.70710678118654746 0.25 forward I I I I #
loop $-1 $-1 $208 $55 #
coedge $-1 $131 $131 $209 $210 reversed $82 $-1 #
face $-1 $211 $212 $44 $-1 $213 reversed single #
loop $-1 $-1 $214 $84 #
plane-surface $-1 -42.827092688890552 20.29593103160386 77.081267488201277 0.54463904215088732 0 0.83867056331134215 0.83867056331134215 0 -0.54463904215088732 forward_v I I I I #
coedge $-1 $215 $216 $217 $218 reversed $85 $-1 #
face $-1 $-1 $219 $45 $-1 $220 forward single #
loop $-1 $221 $222 $87 #
cone-surface $-1 59.684191494175913 18.253410064310966 7.9975803823827061 -0.54463904215088732 0 -0.83867056331134215 0.20966764082783554 0 -0.13615976053772183 1 I I -0.70710678118654746 0.70710678118654746 0.25 forward I I I I #
loop $-1 $-1 $223 $57 #
coedge $-1 $140 $140 $224 $225 reversed $88 $-1 #
face $-1 $-1 $226 $46 $-1 $227 forward single #
loop $-1 $228 $229 $90 #
cone-surface $-1 59.684191494175913 20.295931031603867 7.9975803823827061 -0.54463904215088732 0 -0.83867056331134215 0.20966764082783554 0 -0.13615976053772183 1 I I -0.70710678118654746 0.70710678118654746 0.25 forward I I I I #
loop $-1 $-1 $230 $58 #
coedge $-1 $145 $145 $231 $232 reversed $91 $-1 #
face $-1 $-1 $233 $47 $-1 $234 forward single #
loop $-1 $235 $236 $93 #
cone-surface $-1 59.684191494175913 22.338451998896769 7.9975803823827061 -0.54463904215088732 0 -0.83867056331134215 0.20966764082783554 0 -0.13615976053772183 1 I I -0.70710678118654746 0.70710678118654746 0.25 forward I I I I #
loop $-1 $-1 $237 $59 #
coedge $-1 $150 $150 $238 $239 reversed $94 $-1 #
face $-1 $240 $241 $36 $-1 $242 reversed single #
loop $-1 $-1 $243 $96 #
plane-surface $-1 0 -27.819309903750703 0 0 1 0 0 0 1 forward_v I I I I #
coedge $-1 $244 $245 $246 $247 forward $97 $-1 #
coedge $-1 $248 $99 $249 $250 forward $61 $-1 #
coedge $-1 $99 $248 $251 $252 forward $61 $-1 #
coedge $-1 $253 $254 $99 $158 reversed $255 $-1 #
edge $-1 $256 -27.819309903750703 $257 27.819309903750703 $157 $258 forward 7 unknown #
face $-1 $259 $260 $37 $-1 $261 forward single #
loop $-1 $-1 $262 $100 #
plane-surface $-1 -44.543901617622254 -22.704768014126017 0 -1 0 0 0 0 1 forward_v I I I I #
coedge $-1 $263 $264 $265 $266 forward $101 $-1 #
coedge $-1 $267 $103 $268 $269 reversed $64 $-1 #
coedge $-1 $103 $267 $270 $271 reversed $64 $-1 #
coedge $-1 $264 $263 $103 $166 reversed $101 $-1 #
edge $-1 $272 -11.320872342588062 $273 11.320872342588062 $165 $274 forward 7 unknown #
face $-1 $275 $276 $38 $-1 $277 reversed single #
loop $-1 $-1 $278 $104 #
plane-surface $-1 -128.35815898880094 25.622554430993137 108.93882138841228 0 -1 0 0.51503808176128008 0 -0.85716729658548041 forward_v I I I I #
coedge $-1 $279 $280 $281 $282 reversed $105 $-1 #
coedge $-1 $172 $107 $283 $284 reversed $67 $-1 #
coedge $-1 $107 $171 $279 $285 reversed $67 $-1 #
coedge $-1 $281 $286 $107 $174 forward $287 $-1 #
edge $-1 $288 0.95083156202948516 $289 18.885812011511284 $173 $290 forward 7 unknown #
loop $-1 $-1 $180 $108 #
plane-surface $-1 -63.228247932370991 21.44877763698808 0.5444486923584293 -0.51503808176128008 0 0.85716729658548041 0.85716729658548041 0 0.51503808176128008 forward_v I I I I #
loop $-1 $-1 $291 $69 #
coedge $-1 $178 $178 $179 $292 reversed $109 $-1 #
coedge $-1 $179 $179 $178 $292 forward $111 $-1 #
coedge $-1 $180 $180 $112 $181 forward $175 $-1 #
edge $-1 $293 0 $293 6.2831853071796004 $180 $294 forward 7 unknown #
face $-1 $295 $296 $40 $-1 $297 forward single #
loop $-1 $-1 $298 $113 #
plane-surface $-1 26.04605209264016 -5.8130385946769856 183.13660810946283 0 1 0 0.54463904215088732 0 0.83867056331134215 forward_v I I I I #
coedge $-1 $299 $300 $301 $302 reversed $114 $-1 #
coedge $-1 $187 $116 $303 $304 reversed $73 $-1 #
coedge $-1 $116 $186 $299 $305 reversed $73 $-1 #
coedge $-1 $301 $306 $116 $189 forward $296 $-1 #
edge $-1 $307 -50.205221886050907 $308 -45.412007869860616 $188 $309 forward 7 unknown #
loop $-1 $-1 $195 $117 #
plane-surface $-1 -42.827092688890552 -2.4088369825221534 77.081267488201277 0.54463904215088732 0 0.83867056331134215 0.83867056331134215 0 -0.54463904215088732 forward_v I I I I #
loop $-1 $-1 $310 $75 #
coedge $-1 $193 $193 $194 $311 reversed $118 $-1 #
coedge $-1 $194 $194 $193 $311 forward $120 $-1 #
coedge $-1 $195 $195 $121 $196 forward $190 $-1 #
edge $-1 $312 0 $312 6.2831853071796004 $195 $313 forward 7 unknown #
loop $-1 $-1 $202 $122 #
plane-surface $-1 -42.827092688890552 -2.4088369825221534 77.081267488201277 0.54463904215088732 0 0.83867056331134215 0.83867056331134215 0 -0.54463904215088732 forward_v I I I I #
loop $-1 $-1 $314 $78 #
coedge $-1 $200 $200 $201 $315 reversed $123 $-1 #
coedge $-1 $201 $201 $200 $315 forward $125 $-1 #
coedge $-1 $202 $202 $126 $203 forward $197 $-1 #
edge $-1 $316 0 $316 6.2831853071796004 $202 $317 forward 7 unknown #
loop $-1 $-1 $209 $127 #
plane-surface $-1 -42.827092688890552 -2.4088369825221534 77.081267488201277 0.54463904215088732 0 0.83867056331134215 0.83867056331134215 0 -0.54463904215088732 forward_v I I I I #
loop $-1 $-1 $318 $81 #
coedge $-1 $207 $207 $208 $319 reversed $128 $-1 #
coedge $-1 $208 $208 $207 $319 forward $130 $-1 #
coedge $-1 $209 $209 $131 $210 forward $204 $-1 #
edge $-1 $320 0 $320 6.2831853071796004 $209 $321 forward 7 unknown #
face $-1 $322 $323 $44 $-1 $324 reversed single #
loop $-1 $-1 $325 $132 #
plane-surface $-1 26.04605209264016 16.891729419449028 183.13660810946283 0 1 0 0.54463904215088732 0 0.83867056331134215 forward_v I I I I #
coedge $-1 $326 $327 $328 $329 reversed $133 $-1 #
coedge $-1 $216 $135 $330 $331 reversed $85 $-1 #
coedge $-1 $135 $215 $326 $332 reversed $85 $-1 #
coedge $-1 $328 $333 $135 $218 forward $334 $-1 #
edge $-1 $335 -50.205221886050907 $336 -45.412007869860616 $217 $337 forward 7 unknown #
loop $-1 $-1 $224 $136 #
plane-surface $-1 -42.827092688890552 20.29593103160386 77.081267488201277 0.54463904215088732 0 0.83867056331134215 0.83867056331134215 0 -0.54463904215088732 forward_v I I I I #
loop $-1 $-1 $338 $87 #
coedge $-1 $222 $222 $223 $339 reversed $137 $-1 #
coedge $-1 $223 $223 $222 $339 forward $139 $-1 #
coedge $-1 $224 $224 $140 $225 forward $219 $-1 #
edge $-1 $340 0 $340 6.2831853071796004 $224 $341 forward 7 unknown #
loop $-1 $-1 $231 $141 #
plane-surface $-1 -42.827092688890552 20.29593103160386 77.081267488201277 0.54463904215088732 0 0.83867056331134215 0.83867056331134215 0 -0.54463904215088732 forward_v I I I I #
loop $-1 $-1 $342 $90 #
coedge $-1 $229 $229 $230 $343 reversed $142 $-1 #
coedge $-1 $230 $230 $229 $343 forward $144 $-1 #
coedge $-1 $231 $231 $145 $232 forward $226 $-1 #
edge $-1 $344 0 $344 6.2831853071796004 $231 $345 forward 7 unknown #
loop $-1 $-1 $238 $146 #
plane-surface $-1 -42.827092688890552 20.29593103160386 77.081267488201277 0.54463904215088732 0 0.83867056331134215 0.83867056331134215 0 -0.54463904215088732 forward_v I I I I #
loop $-1 $-1 $346 $93 #
coedge $-1 $236 $236 $237 $347 reversed $147 $-1 #
coedge $-1 $237 $237 $236 $347 forward $149 $-1 #
coedge $-1 $238 $238 $150 $239 forward $233 $-1 #
edge $-1 $348 0 $348 6.2831853071796004 $238 $349 forward 7 unknown #
face $-1 $350 $351 $36 $-1 $352 reversed single #
loop $-1 $-1 $353 $151 #
plane-surface $-1 -63.228247932370984 0 0 1 0 0 0 0 -1 forward_v I I I I #
coedge $-1 $354 $251 $355 $356 forward $152 $-1 #
coedge $-1 $357 $154 $354 $358 forward $97 $-1 #
coedge $-1 $154 $357 $359 $360 forward $97 $-1 #
coedge $-1 $254 $253 $154 $247 reversed $255 $-1 #
edge $-1 $361 -27.819309903750703 $362 27.819309903750703 $246 $363 forward 7 unknown #
coedge $-1 $156 $155 $364 $365 forward $61 $-1 #
coedge $-1 $366 $367 $155 $250 reversed $351 $-1 #
edge $-1 $257 -63.228247932370984 $368 63.228247932370984 $249 $369 forward 7 unknown #
coedge $-1 $243 $370 $156 $252 reversed $152 $-1 #
edge $-1 $371 -63.228247932370984 $256 63.228247932370984 $251 $372 forward 7 unknown #
coedge $-1 $246 $157 $370 $373 forward $255 $-1 #
coedge $-1 $157 $246 $366 $374 reversed $255 $-1 #
loop $-1 $-1 $253 $350 #
vertex $-1 $158 $375 #
vertex $-1 $158 $376 #
straight-curve $-1 63.228247932370984 0 11.320872342588062 0 1 0 I I #
face $-1 $377 $378 $37 $-1 $379 reversed single #
loop $-1 $-1 $380 $159 #
plane-surface $-1 0 0 11.320872342588062 0 0 1 1 0 0 forward_v I I I I #
coedge $-1 $381 $382 $383 $384 reversed $160 $-1 #
coedge $-1 $165 $162 $385 $386 reversed $101 $-1 #
coedge $-1 $162 $165 $387 $388 reversed $101 $-1 #
coedge $-1 $382 $381 $162 $266 reversed $160 $-1 #
edge $-1 $389 -11.320872342588062 $390 11.320872342588062 $265 $391 forward 7 unknown #
coedge $-1 $164 $163 $392 $393 reversed $64 $-1 #
coedge $-1 $385 $394 $163 $269 forward $378 $-1 #
edge $-1 $395 -16.466925896687695 $273 -6.2378421174383227 $268 $396 forward 7 unknown #
coedge $-1 $397 $387 $164 $271 forward $260 $-1 #
edge $-1 $272 6.2378421174383227 $398 16.466925896687695 $270 $399 forward 7 unknown #
vertex $-1 $271 $400 #
vertex $-1 $269 $401 #
straight-curve $-1 -50.060438642497999 -17.590226124501331 0 0 0 -1 I I #
face $-1 $-1 $287 $38 $-1 $402 forward single #
loop $-1 $-1 $403 $167 #
plane-surface $-1 -63.228247932370984 0 0 1 0 0 0 0 -1 forward_v I I I I #
coedge $-1 $404 $405 $406 $407 reversed $168 $-1 #
coedge $-1 $408 $170 $172 $285 forward $105 $-1 #
coedge $-1 $170 $408 $404 $409 forward $105 $-1 #
coedge $-1 $406 $173 $170 $282 forward $287 $-1 #
edge $-1 $289 6.5506120244889825 $410 14.898165612499097 $281 $411 forward 7 unknown #
coedge $-1 $412 $413 $171 $284 forward $276 $-1 #
edge $-1 $414 -53.924962001847703 $288 -43.148538351618079 $283 $415 forward 7 unknown #
edge $-1 $289 -20.923547271256925 $414 -8.2634070795339233e-015 $172 $416 forward 7 unknown #
coedge $-1 $173 $406 $412 $417 forward $287 $-1 #
loop $-1 $-1 $406 $275 #
vertex $-1 $284 $418 #
vertex $-1 $174 $419 #
straight-curve $-1 -64.179079494400469 17.275000842983022 11.320872342588061 1 0 0 I I #
coedge $-1 $291 $291 $-1 $420 reversed $177 $-1 #
edge $-1 $421 0 $421 6.2831853071796004 $178 $422 forward 7 unknown #
vertex $-1 $181 $423 #
ellipse-curve $-1 -54.260757707630084 21.44877763698808 5.9326605174732467 -0.51503808176128008 0 0.85716729658548041 1.2857509448782207 0 0.77255712264192011 1 I I #
face $-1 $-1 $424 $40 $-1 $425 reversed single #
loop $-1 $-1 $188 $182 #
plane-surface $-1 0 0 11.320872342588062 0 0 1 1 0 0 forward_v I I I I #
coedge $-1 $426 $427 $428 $429 reversed $183 $-1 #
coedge $-1 $430 $185 $187 $305 forward $114 $-1 #
coedge $-1 $185 $430 $426 $431 forward $114 $-1 #
coedge $-1 $428 $188 $185 $302 forward $296 $-1 #
edge $-1 $308 -2.1997831208937555 $432 4.6086201034159089 $301 $433 forward 7 unknown #
coedge $-1 $434 $435 $186 $304 forward $424 $-1 #
edge $-1 $436 -83.360181348060834 $307 -80.247431712143353 $303 $437 forward 7 unknown #
edge $-1 $308 120.74124338555018 $436 126.45649586474194 $187 $438 forward 7 unknown #
coedge $-1 $188 $428 $434 $439 forward $296 $-1 #
vertex $-1 $304 $440 #
vertex $-1 $189 $441 #
straight-curve $-1 13.02302604632008 0.9953646296326788 11.320872342588061 -1 0 0 I I #
coedge $-1 $310 $310 $-1 $442 reversed $192 $-1 #
edge $-1 $443 0 $443 6.2831853071796004 $193 $444 forward 7 unknown #
vertex $-1 $196 $445 #
ellipse-curve $-1 60.831640924275838 -4.4513579498150513 9.7644975246293253 0.54463904215088732 0 0.83867056331134215 0.41933528165567108 0 -0.27231952107544366 1 I I #
coedge $-1 $314 $314 $-1 $446 reversed $199 $-1 #
edge $-1 $447 0 $447 6.2831853071796004 $200 $448 forward 7 unknown #
vertex $-1 $203 $449 #
ellipse-curve $-1 60.831640924275838 -2.4088369825221498 9.7644975246293253 0.54463904215088732 0 0.83867056331134215 0.41933528165567108 0 -0.27231952107544366 1 I I #
coedge $-1 $318 $318 $-1 $450 reversed $206 $-1 #
edge $-1 $451 0 $451 6.2831853071796004 $207 $452 forward 7 unknown #
vertex $-1 $210 $453 #
ellipse-curve $-1 60.831640924275838 -0.36631601522924839 9.7644975246293253 0.54463904215088732 0 0.83867056331134215 0.41933528165567108 0 -0.27231952107544366 1 I I #
face $-1 $-1 $334 $44 $-1 $454 forward single #
loop $-1 $-1 $455 $211 #
plane-surface $-1 63.228247932370984 0 0 -1 0 0 0 0 1 forward_v I I I I #
coedge $-1 $456 $457 $458 $459 reversed $212 $-1 #
coedge $-1 $460 $214 $216 $332 forward $133 $-1 #
coedge $-1 $214 $460 $456 $461 forward $133 $-1 #
coedge $-1 $458 $217 $214 $329 forward $334 $-1 #
edge $-1 $336 -13.552167127956762 $462 -6.743763903647098 $328 $463 forward 7 unknown #
coedge $-1 $464 $465 $215 $331 forward $323 $-1 #
edge $-1 $466 -83.360181348060834 $335 -80.247431712143353 $330 $467 forward 7 unknown #
edge $-1 $336 120.74124338555018 $466 126.45649586474194 $216 $468 forward 7 unknown #
coedge $-1 $217 $458 $464 $469 forward $334 $-1 #
loop $-1 $-1 $458 $322 #
vertex $-1 $331 $470 #
vertex $-1 $218 $471 #
straight-curve $-1 13.02302604632008 23.700132643758693 11.320872342588061 -1 0 0 I I #
coedge $-1 $338 $338 $-1 $472 reversed $221 $-1 #
edge $-1 $473 0 $473 6.2831853071796004 $222 $474 forward 7 unknown #
vertex $-1 $225 $475 #
ellipse-curve $-1 60.831640924275838 18.253410064310966 9.7644975246293253 0.54463904215088732 0 0.83867056331134215 0.41933528165567108 0 -0.27231952107544366 1 I I #
coedge $-1 $342 $342 $-1 $476 reversed $228 $-1 #
edge $-1 $477 0 $477 6.2831853071796004 $229 $478 forward 7 unknown #
vertex $-1 $232 $479 #
ellipse-curve $-1 60.831640924275838 20.295931031603867 9.7644975246293253 0.54463904215088732 0 0.83867056331134215 0.41933528165567108 0 -0.27231952107544366 1 I I #
coedge $-1 $346 $346 $-1 $480 reversed $235 $-1 #
edge $-1 $481 0 $481 6.2831853071796004 $236 $482 forward 7 unknown #
vertex $-1 $239 $483 #
ellipse-curve $-1 60.831640924275838 22.338451998896769 9.7644975246293253 0.54463904215088732 0 0.83867056331134215 0.41933528165567108 0 -0.27231952107544366 1 I I #
face $-1 $-1 $255 $36 $-1 $484 reversed single #
loop $-1 $-1 $366 $240 #
plane-surface $-1 0 27.819309903750703 0 0 -1 0 0 0 -1 forward_v I I I I #
coedge $-1 $485 $364 $367 $486 forward $241 $-1 #
coedge $-1 $370 $243 $244 $358 reversed $152 $-1 #
coedge $-1 $364 $485 $243 $356 reversed $241 $-1 #
edge $-1 $371 -11.320872342588062 $487 11.320872342588062 $355 $488 forward 7 unknown #
coedge $-1 $245 $244 $485 $489 forward $97 $-1 #
edge $-1 $362 -63.228247932370984 $487 63.228247932370984 $354 $490 forward 7 unknown #
coedge $-1 $367 $366 $245 $360 reversed $351 $-1 #
edge $-1 $491 -63.228247932370984 $361 63.228247932370984 $359 $492 forward 7 unknown #
vertex $-1 $247 $493 #
vertex $-1 $373 $494 #
straight-curve $-1 63.228247932370984 0 -11.320872342588062 0 -1 0 I I #
coedge $-1 $353 $355 $248 $365 reversed $241 $-1 #
edge $-1 $368 -27.819309903750703 $371 27.819309903750703 $364 $495 forward 7 unknown #
coedge $-1 $359 $249 $254 $374 forward $351 $-1 #
coedge $-1 $249 $359 $353 $486 reversed $351 $-1 #
vertex $-1 $250 $496 #
straight-curve $-1 0 27.819309903750703 11.320872342588062 -1 0 0 I I #
coedge $-1 $251 $354 $253 $373 reversed $152 $-1 #
vertex $-1 $365 $497 #
straight-curve $-1 0 -27.819309903750703 11.320872342588062 1 0 0 I I #
edge $-1 $256 -11.320872342588062 $362 11.320872342588062 $253 $498 forward 7 unknown #
edge $-1 $257 -11.320872342588062 $361 11.320872342588062 $254 $499 forward 7 unknown #
point $-1 63.228247932370984 -27.819309903750703 11.320872342588062 #
point $-1 63.228247932370984 27.819309903750703 11.320872342588062 #
face $-1 $-1 $500 $37 $-1 $501 reversed single #
loop $-1 $-1 $502 $259 #
plane-surface $-1 0 0 -11.320872342588062 0 0 1 1 0 0 forward_v I I I I #
coedge $-1 $387 $397 $382 $503 forward $260 $-1 #
coedge $-1 $265 $262 $502 $504 reversed $160 $-1 #
coedge $-1 $262 $265 $380 $503 reversed $160 $-1 #
coedge $-1 $505 $506 $262 $384 forward $500 $-1 #
edge $-1 $507 -11.320872342588062 $508 11.320872342588062 $383 $509 forward 7 unknown #
coedge $-1 $502 $268 $263 $386 forward $378 $-1 #
edge $-1 $273 -26.409353577467936 $390 -20.892816552592191 $385 $510 forward 7 unknown #
coedge $-1 $270 $380 $264 $388 forward $260 $-1 #
edge $-1 $389 20.892816552592191 $272 26.409353577467936 $387 $511 forward 7 unknown #
vertex $-1 $388 $512 #
vertex $-1 $386 $513 #
straight-curve $-1 -44.543901617622254 -17.590226124501331 0 0 0 -1 I I #
coedge $-1 $506 $505 $267 $393 forward $500 $-1 #
edge $-1 $398 -11.320872342588062 $395 11.320872342588062 $392 $514 forward 7 unknown #
coedge $-1 $268 $502 $506 $515 forward $378 $-1 #
vertex $-1 $269 $516 #
straight-curve $-1 -50.060438642497999 -11.352384007063009 -11.320872342588062 0 1 0 I I #
coedge $-1 $380 $270 $505 $517 forward $260 $-1 #
vertex $-1 $517 $518 #
straight-curve $-1 -50.060438642497999 -11.352384007063009 11.320872342588062 0 -1 0 I I #
point $-1 -50.060438642497999 -17.590226124501331 11.320872342588062 #
point $-1 -50.060438642497999 -17.590226124501331 -11.320872342588062 #
plane-surface $-1 0 0 11.320872342588062 0 0 1 1 0 0 forward_v I I I I #
coedge $-1 $413 $412 $405 $519 forward $276 $-1 #
coedge $-1 $405 $278 $280 $409 reversed $168 $-1 #
coedge $-1 $278 $404 $403 $519 reversed $168 $-1 #
coedge $-1 $286 $281 $278 $407 forward $287 $-1 #
edge $-1 $410 -18.885812011511284 $520 -0.95083156202948516 $406 $521 forward 7 unknown #
coedge $-1 $280 $279 $413 $522 reversed $105 $-1 #
edge $-1 $523 8.2634070795339233e-015 $410 20.923547271256925 $404 $524 forward 7 unknown #
vertex $-1 $282 $525 #
straight-curve $-1 -45.293267482889185 10.72438881849404 11.320872342588062 0 1 0 I I #
coedge $-1 $403 $283 $286 $417 reversed $276 $-1 #
coedge $-1 $283 $403 $408 $522 forward $276 $-1 #
vertex $-1 $284 $526 #
straight-curve $-1 -63.228247932370984 17.275000842983022 54.46941069420614 0 0 1 I I #
straight-curve $-1 -63.228247932370991 17.275000842983022 0.5444486923584293 -0.85716729658548041 0 -0.51503808176128008 I I #
edge $-1 $520 -25.622554430993137 $288 -17.275000842983022 $412 $527 forward 7 unknown #
point $-1 -63.228247932370984 17.275000842983022 11.320872342588062 #
point $-1 -45.293267482889185 17.275000842983022 11.320872342588062 #
edge $-1 $528 1 $528 0 $291 $-1 forward 7 unknown #
vertex $-1 $292 $529 #
ellipse-curve $-1 -52.439529797278965 21.44877763698808 2.9016283284685138 -0.51503808176128008 0 0.85716729658548041 1.2857509448782207 0 0.77255712264192011 1 I I #
point $-1 -52.975006762751867 21.44877763698808 6.7052176401151673 #
loop $-1 $-1 $303 $295 #
plane-surface $-1 63.228247932370984 0 0 -1 0 0 0 0 1 forward_v I I I I #
coedge $-1 $427 $298 $300 $431 reversed $183 $-1 #
coedge $-1 $298 $426 $530 $531 reversed $183 $-1 #
coedge $-1 $306 $301 $298 $429 forward $296 $-1 #
edge $-1 $432 45.412007869860616 $532 50.205221886050907 $428 $533 forward 7 unknown #
coedge $-1 $300 $299 $435 $534 reversed $114 $-1 #
edge $-1 $535 -126.45649586474194 $432 -120.74124338555018 $426 $536 forward 7 unknown #
vertex $-1 $302 $537 #
straight-curve $-1 58.435033916180714 -1.2044184912610767 11.320872342588054 0 -1 0 I I #
coedge $-1 $530 $303 $306 $439 reversed $424 $-1 #
coedge $-1 $303 $530 $430 $534 forward $424 $-1 #
vertex $-1 $304 $538 #
straight-curve $-1 63.228247932370984 0.9953646296326788 91.568304054731414 0 0 1 I I #
straight-curve $-1 -42.827092688890552 0.9953646296326788 77.081267488201277 0.83867056331134215 0 -0.54463904215088732 I I #
edge $-1 $532 -5.8130385946769856 $307 0.9953646296326788 $434 $539 forward 7 unknown #
point $-1 63.228247932370984 0.9953646296326788 11.320872342588062 #
point $-1 58.435033916180693 0.9953646296326788 11.320872342588061 #
edge $-1 $540 1 $540 0 $310 $-1 forward 7 unknown #
vertex $-1 $311 $541 #
ellipse-curve $-1 59.820351254713636 -4.4513579498150513 8.2072480232105409 0.54463904215088732 0 0.83867056331134215 0.41933528165567108 0 -0.27231952107544366 1 I I #
point $-1 61.250976205931494 -4.4513579498150513 9.4921780035538621 #
edge $-1 $542 1 $542 0 $314 $-1 forward 7 unknown #
vertex $-1 $315 $543 #
ellipse-curve $-1 59.820351254713636 -2.4088369825221498 8.2072480232105409 0.54463904215088732 0 0.83867056331134215 0.41933528165567108 0 -0.27231952107544366 1 I I #
point $-1 61.250976205931494 -2.4088369825221498 9.4921780035538621 #
edge $-1 $544 1 $544 0 $318 $-1 forward 7 unknown #
vertex $-1 $319 $545 #
ellipse-curve $-1 59.820351254713636 -0.36631601522924839 8.2072480232105409 0.54463904215088732 0 0.83867056331134215 0.41933528165567108 0 -0.27231952107544366 1 I I #
point $-1 61.250976205931494 -0.36631601522924839 9.4921780035538621 #
plane-surface $-1 0 0 11.320872342588062 0 0 1 1 0 0 forward_v I I I I #
coedge $-1 $465 $464 $457 $546 forward $323 $-1 #
coedge $-1 $457 $325 $327 $461 reversed $212 $-1 #
coedge $-1 $325 $456 $455 $546 reversed $212 $-1 #
coedge $-1 $333 $328 $325 $459 forward $334 $-1 #
edge $-1 $462 45.412007869860616 $547 50.205221886050907 $458 $548 forward 7 unknown #
coedge $-1 $327 $326 $465 $549 reversed $133 $-1 #
edge $-1 $550 -126.45649586474194 $462 -120.74124338555018 $456 $551 forward 7 unknown #
vertex $-1 $329 $552 #
straight-curve $-1 58.435033916180714 10.14796551580193 11.320872342588054 0 -1 0 I I #
coedge $-1 $455 $330 $333 $469 reversed $323 $-1 #
coedge $-1 $330 $455 $460 $549 forward $323 $-1 #
vertex $-1 $331 $553 #
straight-curve $-1 63.228247932370984 23.700132643758693 91.568304054731414 0 0 1 I I #
straight-curve $-1 -42.827092688890552 23.700132643758693 77.081267488201277 0.83867056331134215 0 -0.54463904215088732 I I #
edge $-1 $547 16.891729419449028 $335 23.700132643758693 $464 $554 forward 7 unknown #
point $-1 63.228247932370984 23.700132643758693 11.320872342588062 #
point $-1 58.435033916180693 23.700132643758693 11.320872342588061 #
edge $-1 $555 1 $555 0 $338 $-1 forward 7 unknown #
vertex $-1 $339 $556 #
ellipse-curve $-1 59.820351254713636 18.253410064310966 8.2072480232105409 0.54463904215088732 0 0.83867056331134215 0.41933528165567108 0 -0.27231952107544366 1 I I #
point $-1 61.250976205931494 18.253410064310966 9.4921780035538621 #
edge $-1 $557 1 $557 0 $342 $-1 forward 7 unknown #
vertex $-1 $343 $558 #
ellipse-curve $-1 59.820351254713636 20.295931031603867 8.2072480232105409 0.54463904215088732 0 0.83867056331134215 0.41933528165567108 0 -0.27231952107544366 1 I I #
point $-1 61.250976205931494 20.295931031603867 9.4921780035538621 #
edge $-1 $559 1 $559 0 $346 $-1 forward 7 unknown #
vertex $-1 $347 $560 #
ellipse-curve $-1 59.820351254713636 22.338451998896769 8.2072480232105409 0.54463904215088732 0 0.83867056331134215 0.41933528165567108 0 -0.27231952107544366 1 I I #
point $-1 61.250976205931494 22.338451998896769 9.4921780035538621 #
plane-surface $-1 63.228247932370984 0 0 -1 0 0 0 0 1 forward_v I I I I #
coedge $-1 $355 $353 $357 $489 reversed $241 $-1 #
edge $-1 $368 -11.320872342588062 $491 11.320872342588062 $367 $561 forward 7 unknown #
vertex $-1 $489 $562 #
straight-curve $-1 -63.228247932370984 -27.819309903750703 0 0 0 -1 I I #
edge $-1 $487 -27.819309903750703 $491 27.819309903750703 $485 $563 forward 7 unknown #
straight-curve $-1 0 -27.819309903750703 -11.320872342588062 -1 0 0 I I #
vertex $-1 $360 $564 #
straight-curve $-1 0 27.819309903750703 -11.320872342588062 1 0 0 I I #
point $-1 63.228247932370984 27.819309903750703 -11.320872342588062 #
point $-1 63.228247932370984 -27.819309903750703 -11.320872342588062 #
straight-curve $-1 -63.228247932370984 0 11.320872342588062 0 -1 0 I I #
point $-1 -63.228247932370984 27.819309903750703 11.320872342588062 #
point $-1 -63.228247932370984 -27.819309903750703 11.320872342588062 #
straight-curve $-1 63.228247932370984 -27.819309903750703 0 0 0 -1 I I #
straight-curve $-1 63.228247932370984 27.819309903750703 0 0 0 -1 I I #
loop $-1 $-1 $383 $377 #
plane-surface $-1 0 -27.819309903750703 0 0 1 0 0 0 1 forward_v I I I I #
coedge $-1 $394 $385 $381 $504 forward $378 $-1 #
edge $-1 $508 -16.466925896687695 $389 -6.2378421174383227 $380 $565 forward 7 unknown #
edge $-1 $390 6.2378421174383227 $507 16.466925896687695 $502 $566 forward 7 unknown #
coedge $-1 $392 $383 $397 $517 reversed $500 $-1 #
coedge $-1 $383 $392 $394 $515 reversed $500 $-1 #
vertex $-1 $515 $567 #
vertex $-1 $384 $568 #
straight-curve $-1 -44.543901617622254 -27.819309903750703 0 0 0 1 I I #
straight-curve $-1 -23.651085065030063 -17.590226124501331 -11.320872342588062 1 0 0 I I #
straight-curve $-1 -23.651085065030063 -17.590226124501331 11.320872342588062 -1 0 0 I I #
point $-1 -44.543901617622254 -17.590226124501331 11.320872342588062 #
point $-1 -44.543901617622254 -17.590226124501331 -11.320872342588062 #
straight-curve $-1 -50.060438642497999 -27.819309903750703 0 0 0 -1 I I #
edge $-1 $507 44.543901617622254 $395 50.060438642497999 $506 $569 forward 7 unknown #
point $-1 -50.060438642497999 -27.819309903750703 -11.320872342588062 #
edge $-1 $398 -50.060438642497999 $508 -44.543901617622254 $505 $570 forward 7 unknown #
point $-1 -50.060438642497999 -27.819309903750703 11.320872342588062 #
edge $-1 $520 43.148538351618079 $523 53.924962001847703 $403 $571 forward 7 unknown #
vertex $-1 $417 $572 #
straight-curve $-1 -64.179079494400469 25.622554430993137 11.320872342588061 -1 0 0 I I #
edge $-1 $523 -14.898165612499097 $414 -6.5506120244889825 $413 $573 forward 7 unknown #
vertex $-1 $522 $574 #
straight-curve $-1 -63.228247932370991 25.622554430993137 0.5444486923584293 0.85716729658548041 0 0.51503808176128008 I I #
point $-1 -45.293267482889185 25.622554430993137 11.320872342588062 #
point $-1 -63.228247932370984 17.275000842983022 0.54444869235843352 #
straight-curve $-1 -63.228247932370984 0 11.320872342588062 0 -1 0 I I #
vertex $-1 $420 $575 #
point $-1 -51.153778852400748 21.44877763698808 3.6741854511104339 #
coedge $-1 $435 $434 $427 $531 forward $424 $-1 #
edge $-1 $532 80.247431712143353 $535 83.360181348060834 $530 $576 forward 7 unknown #
vertex $-1 $439 $577 #
straight-curve $-1 13.02302604632008 -5.8130385946769856 11.320872342588061 1 0 0 I I #
edge $-1 $535 -4.6086201034159089 $436 2.1997831208937555 $435 $578 forward 7 unknown #
vertex $-1 $534 $579 #
straight-curve $-1 -42.827092688890552 -5.8130385946769856 77.081267488201277 -0.83867056331134215 0 0.54463904215088732 I I #
point $-1 58.435033916180693 -5.8130385946769856 11.320872342588061 #
point $-1 63.228247932370984 0.9953646296326788 8.2081227066705793 #
straight-curve $-1 63.228247932370984 0 11.320872342588062 0 1 0 I I #
vertex $-1 $442 $580 #
point $-1 60.239686536369305 -4.4513579498150513 7.9349285021350981 #
vertex $-1 $446 $581 #
point $-1 60.239686536369305 -2.4088369825221498 7.9349285021350981 #
vertex $-1 $450 $582 #
point $-1 60.239686536369305 -0.36631601522924839 7.9349285021350981 #
edge $-1 $547 80.247431712143353 $550 83.360181348060834 $455 $583 forward 7 unknown #
vertex $-1 $469 $584 #
straight-curve $-1 13.02302604632008 16.891729419449028 11.320872342588061 1 0 0 I I #
edge $-1 $550 6.743763903647098 $466 13.552167127956762 $465 $585 forward 7 unknown #
vertex $-1 $549 $586 #
straight-curve $-1 -42.827092688890552 16.891729419449028 77.081267488201277 -0.83867056331134215 0 0.54463904215088732 I I #
point $-1 58.435033916180693 16.891729419449028 11.320872342588061 #
point $-1 63.228247932370984 23.700132643758693 8.2081227066705793 #
straight-curve $-1 63.228247932370984 0 11.320872342588062 0 1 0 I I #
vertex $-1 $472 $587 #
point $-1 60.239686536369305 18.253410064310966 7.9349285021350981 #
vertex $-1 $476 $588 #
point $-1 60.239686536369305 20.295931031603867 7.9349285021350981 #
vertex $-1 $480 $589 #
point $-1 60.239686536369305 22.338451998896769 7.9349285021350981 #
straight-curve $-1 -63.228247932370984 27.819309903750703 0 0 0 -1 I I #
point $-1 -63.228247932370984 -27.819309903750703 -11.320872342588062 #
straight-curve $-1 -63.228247932370984 0 -11.320872342588062 0 1 0 I I #
point $-1 -63.228247932370984 27.819309903750703 -11.320872342588062 #
straight-curve $-1 -44.543901617622254 -11.352384007063009 11.320872342588062 0 1 0 I I #
straight-curve $-1 -44.543901617622254 -11.352384007063009 -11.320872342588062 0 -1 0 I I #
point $-1 -44.543901617622254 -27.819309903750703 -11.320872342588062 #
point $-1 -44.543901617622254 -27.819309903750703 11.320872342588062 #
straight-curve $-1 0 -27.819309903750703 -11.320872342588062 -1 0 0 I I #
straight-curve $-1 0 -27.819309903750703 11.320872342588062 1 0 0 I I #
straight-curve $-1 -63.228247932370984 25.622554430993137 54.46941069420614 0 0 -1 I I #
point $-1 -63.228247932370984 25.622554430993137 11.320872342588062 #
straight-curve $-1 -63.228247932370984 10.72438881849404 0.54444869235843729 0 -1 0 I I #
point $-1 -63.228247932370984 25.622554430993137 0.54444869235843352 #
point $-1 -51.666972674637051 21.44877763698808 1.6158773835902926 #
straight-curve $-1 63.228247932370984 -5.8130385946769856 91.568304054731414 0 0 -1 I I #
point $-1 63.228247932370984 -5.8130385946769856 11.320872342588062 #
straight-curve $-1 63.228247932370977 -1.2044184912610767 8.2081227066705793 0 1 0 I I #
point $-1 63.228247932370984 -5.8130385946769856 8.2081227066705793 #
point $-1 59.54803173363819 -4.4513579498150513 7.7879127415548703 #
point $-1 59.54803173363819 -2.4088369825221498 7.7879127415548703 #
point $-1 59.54803173363819 -0.36631601522924839 7.7879127415548703 #
straight-curve $-1 63.228247932370984 16.891729419449028 91.568304054731414 0 0 -1 I I #
point $-1 63.228247932370984 16.891729419449028 11.320872342588062 #
straight-curve $-1 63.228247932370977 10.14796551580193 8.2081227066705793 0 1 0 I I #
point $-1 63.228247932370984 16.891729419449028 8.2081227066705793 #
point $-1 59.54803173363819 18.253410064310966 7.7879127415548703 #
point $-1 59.54803173363819 20.295931031603867 7.7879127415548703 #
point $-1 59.54803173363819 22.338451998896769 7.7879127415548703 #
End-of-ACIS-data 