500 0 14 0           
7 Unknown 11 ACIS 5.0 NT 24 Fri Mar 26 00:03:50 1999 
-1 9.9999999999999995e-007 1e-010 
body $-1 $14 $-1 $15 #
body $-1 $16 $-1 $17 #
body $-1 $18 $-1 $19 #
body $-1 $20 $-1 $21 #
body $-1 $22 $-1 $23 #
body $-1 $24 $-1 $25 #
body $-1 $26 $-1 $27 #
body $-1 $28 $-1 $29 #
body $-1 $30 $-1 $31 #
body $-1 $32 $-1 $33 #
body $-1 $34 $-1 $35 #
body $-1 $36 $-1 $37 #
body $-1 $38 $-1 $39 #
body $-1 $40 $-1 $41 #
lump $-1 $-1 $42 $0 #
transform $-1 1 0 0 0 1 0 0 0 1 45.904721213415939 31.876932157901084 11.747778476893885 1 rotate no_reflect no_shear #
lump $-1 $-1 $43 $1 #
transform $-1 1 0 0 0 1 0 0 0 1 45.904721213415939 31.876932157901084 11.747778476893885 1 rotate no_reflect no_shear #
lump $-1 $-1 $44 $2 #
transform $-1 1 0 0 0 1 0 0 0 1 45.904721213415939 31.876932157901084 11.747778476893885 1 rotate no_reflect no_shear #
lump $-1 $-1 $45 $3 #
transform $-1 1 0 0 0 1 0 0 0 1 45.904721213415939 31.876932157901084 11.747778476893885 1 rotate no_reflect no_shear #
lump $-1 $-1 $46 $4 #
transform $-1 1 0 0 0 1 0 0 0 1 45.904721213415939 31.876932157901084 11.747778476893885 1 rotate no_reflect no_shear #
lump $-1 $-1 $47 $5 #
transform $-1 1 0 0 0 1 0 0 0 1 45.904721213415939 31.876932157901084 11.747778476893885 1 rotate no_reflect no_shear #
lump $-1 $-1 $48 $6 #
transform $-1 1 0 0 0 1 0 0 0 1 45.904721213415939 31.876932157901084 11.747778476893885 1 rotate no_reflect no_shear #
lump $-1 $-1 $49 $7 #
transform $-1 1 0 0 0 1 0 0 0 1 45.904721213415939 31.876932157901084 11.747778476893885 1 rotate no_reflect no_shear #
lump $-1 $-1 $50 $8 #
transform $-1 1 0 0 0 1 0 0 0 1 45.904721213415939 31.876932157901084 11.747778476893885 1 rotate no_reflect no_shear #
lump $-1 $-1 $51 $9 #
transform $-1 1 0 0 0 1 0 0 0 1 45.904721213415939 31.876932157901084 11.747778476893885 1 rotate no_reflect no_shear #
lump $-1 $-1 $52 $10 #
transform $-1 1 0 0 0 1 0 0 0 1 45.904721213415939 31.876932157901084 11.747778476893885 1 rotate no_reflect no_shear #
lump $-1 $-1 $53 $11 #
transform $-1 1 0 0 0 1 0 0 0 1 45.904721213415939 31.876932157901084 11.747778476893885 1 rotate no_reflect no_shear #
lump $-1 $-1 $54 $12 #
transform $-1 1 0 0 0 1 0 0 0 1 45.904721213415939 31.876932157901084 11.747778476893885 1 rotate no_reflect no_shear #
lump $-1 $-1 $55 $13 #
transform $-1 1 0 0 0 1 0 0 0 1 45.904721213415939 31.876932157901084 11.747778476893885 1 rotate no_reflect no_shear #
shell $-1 $-1 $-1 $56 $-1 $14 #
shell $-1 $-1 $-1 $57 $-1 $16 #
shell $-1 $-1 $-1 $58 $-1 $18 #
shell $-1 $-1 $-1 $59 $-1 $20 #
shell $-1 $-1 $-1 $60 $-1 $22 #
shell $-1 $-1 $-1 $61 $-1 $24 #
shell $-1 $-1 $-1 $62 $-1 $26 #
shell $-1 $-1 $-1 $63 $-1 $28 #
shell $-1 $-1 $-1 $64 $-1 $30 #
shell $-1 $-1 $-1 $65 $-1 $32 #
shell $-1 $-1 $-1 $66 $-1 $34 #
shell $-1 $-1 $-1 $67 $-1 $36 #
shell $-1 $-1 $-1 $68 $-1 $38 #
shell $-1 $-1 $-1 $69 $-1 $40 #
face $-1 $70 $71 $42 $-1 $72 forward single #
face $-1 $73 $74 $43 $-1 $75 forward single #
face $-1 $76 $77 $44 $-1 $78 reversed single #
face $-1 $79 $80 $45 $-1 $81 forward single #
face $-1 $82 $83 $46 $-1 $84 forward single #
face $-1 $85 $86 $47 $-1 $87 reversed single #
face $-1 $88 $89 $48 $-1 $90 forward single #
face $-1 $91 $92 $49 $-1 $93 forward single #
face $-1 $94 $95 $50 $-1 $96 reversed single #
face $-1 $97 $98 $51 $-1 $99 forward single #
face $-1 $100 $101 $52 $-1 $102 forward single #
face $-1 $103 $104 $53 $-1 $105 reversed single #
face $-1 $106 $107 $54 $-1 $108 forward single #
face $-1 $109 $110 $55 $-1 $111 forward single #
face $-1 $112 $113 $42 $-1 $114 reversed single #
loop $-1 $-1 $115 $56 #
plane-surface $-1 0 0 11.747778476893885 0 0 1 1 0 0 forward_v I I I I #
face $-1 $116 $117 $43 $-1 $118 reversed single #
loop $-1 $-1 $119 $57 #
plane-surface $-1 0 -25.52126819842702 -7.6850484087013093 0 0 1 1 0 0 forward_v I I I I #
face $-1 $120 $121 $44 $-1 $122 reversed single #
loop $-1 $-1 $123 $58 #
plane-surface $-1 14.494028762476319 6.3556639594740663 127.88810442427145 0 -1 0 -0.51503808176128008 0 -0.85716729658548041 forward_v I I I I #
face $-1 $124 $125 $45 $-1 $126 forward single #
loop $-1 $127 $128 $59 #
cone-surface $-1 36.855173264515649 0.12593098765299615 5.3953060564908144 -0.51503808176128008 0 -0.85716729658548041 0.85716729658548041 0 -0.51503808176128008 1 I I 0 1 1 forward I I I I #
face $-1 $129 $130 $46 $-1 $131 forward single #
loop $-1 $132 $133 $60 #
cone-surface $-1 36.855173264515649 3.8637707707456421 5.3953060564908144 -0.51503808176128008 0 -0.85716729658548041 0.85716729658548041 0 -0.51503808176128008 1 I I 0 1 1 forward I I I I #
face $-1 $134 $135 $47 $-1 $136 reversed single #
loop $-1 $-1 $137 $61 #
plane-surface $-1 14.494028762476319 15.077290120023564 127.88810442427145 0 -1 0 -0.51503808176128008 0 -0.85716729658548041 forward_v I I I I #
face $-1 $138 $139 $48 $-1 $140 forward single #
loop $-1 $141 $142 $62 #
cone-surface $-1 36.855173264515649 8.8475571482024939 5.3953060564908144 -0.51503808176128008 0 -0.85716729658548041 0.85716729658548041 0 -0.51503808176128008 1 I I 0 1 1 forward I I I I #
face $-1 $143 $144 $49 $-1 $145 forward single #
loop $-1 $146 $147 $63 #
cone-surface $-1 36.855173264515649 12.58539693129514 5.3953060564908144 -0.51503808176128008 0 -0.85716729658548041 0.85716729658548041 0 -0.51503808176128008 1 I I 0 1 1 forward I I I I #
face $-1 $148 $149 $50 $-1 $150 reversed single #
loop $-1 $-1 $151 $64 #
plane-surface $-1 -93.190080328504109 -2.3659622010754351 80.602745309183277 0 1 0 -0.51503808176128008 0 0.85716729658548041 forward_v I I I I #
face $-1 $152 $153 $51 $-1 $154 forward single #
loop $-1 $155 $156 $65 #
cone-surface $-1 -36.855173264515649 0.12593098765299615 5.3953060564908197 0.51503808176128008 0 -0.85716729658548041 0.85716729658548041 0 0.51503808176128008 1 I I 0 1 1 forward I I I I #
face $-1 $157 $158 $52 $-1 $159 forward single #
loop $-1 $160 $161 $66 #
cone-surface $-1 -36.855173264515649 3.8637707707456421 5.3953060564908197 0.51503808176128008 0 -0.85716729658548041 0.85716729658548041 0 0.51503808176128008 1 I I 0 1 1 forward I I I I #
face $-1 $162 $163 $53 $-1 $164 reversed single #
loop $-1 $-1 $165 $67 #
plane-surface $-1 -45.904721213415939 1.9948508791993156 1.9066937431554862 -0.51503808176128008 0 0.85716729658548041 0.85716729658548041 0 0.51503808176128008 forward_v I I I I #
face $-1 $166 $167 $54 $-1 $168 forward single #
loop $-1 $169 $170 $68 #
cone-surface $-1 -36.855173264515649 8.8475571482024939 5.3953060564908197 0.51503808176128008 0 -0.85716729658548041 0.85716729658548041 0 0.51503808176128008 1 I I 0 1 1 forward I I I I #
face $-1 $171 $172 $55 $-1 $173 forward single #
loop $-1 $174 $175 $69 #
cone-surface $-1 -36.855173264515649 12.58539693129514 5.3953060564908197 0.51503808176128008 0 -0.85716729658548041 0.85716729658548041 0 0.51503808176128008 1 I I 0 1 1 forward I I I I #
face $-1 $176 $177 $42 $-1 $178 reversed single #
loop $-1 $-1 $179 $70 #
plane-surface $-1 0 0 -11.747778476893885 0 0 1 1 0 0 forward_v I I I I #
coedge $-1 $180 $181 $182 $183 forward $71 $-1 #
face $-1 $184 $185 $43 $-1 $186 reversed single #
loop $-1 $-1 $187 $73 #
plane-surface $-1 0 -19.165604238952955 -9.716413442797597 0 -1 0 0 0 -1 forward_v I I I I #
coedge $-1 $188 $189 $190 $191 reversed $74 $-1 #
face $-1 $192 $193 $44 $-1 $194 reversed single #
loop $-1 $-1 $195 $76 #
plane-surface $-1 -32.791330352611851 1.9948508791993156 49.192052858243656 0.51503808176128008 0 0.85716729658548041 0.85716729658548041 0 -0.51503808176128008 forward_v I I I I #
coedge $-1 $196 $197 $198 $199 reversed $77 $-1 #
face $-1 $-1 $200 $45 $-1 $201 forward single #
loop $-1 $202 $203 $79 #
cone-surface $-1 35.737263829687137 0.12593098765299615 3.534792354664205 -0.51503808176128008 0 -0.85716729658548041 0.4285836482927402 0 -0.25751904088064004 1 I I -0.70710678118654746 0.70710678118654746 0.5 forward I I I I #
loop $-1 $-1 $204 $59 #
coedge $-1 $128 $128 $205 $206 reversed $80 $-1 #
face $-1 $-1 $207 $46 $-1 $208 forward single #
loop $-1 $209 $210 $82 #
cone-surface $-1 35.737263829687137 3.8637707707456421 3.534792354664205 -0.51503808176128008 0 -0.85716729658548041 0.4285836482927402 0 -0.25751904088064004 1 I I -0.70710678118654746 0.70710678118654746 0.5 forward I I I I #
loop $-1 $-1 $211 $60 #
coedge $-1 $133 $133 $212 $213 reversed $83 $-1 #
face $-1 $214 $215 $47 $-1 $216 forward single #
loop $-1 $-1 $217 $85 #
plane-surface $-1 -32.791330352611851 1.9948508791993156 49.192052858243656 0.51503808176128008 0 0.85716729658548041 0.85716729658548041 0 -0.51503808176128008 forward_v I I I I #
coedge $-1 $218 $219 $220 $221 reversed $86 $-1 #
face $-1 $-1 $222 $48 $-1 $223 forward single #
loop $-1 $224 $225 $88 #
cone-surface $-1 35.737263829687137 8.8475571482024939 3.534792354664205 -0.51503808176128008 0 -0.85716729658548041 0.4285836482927402 0 -0.25751904088064004 1 I I -0.70710678118654746 0.70710678118654746 0.5 forward I I I I #
loop $-1 $-1 $226 $62 #
coedge $-1 $142 $142 $227 $228 reversed $89 $-1 #
face $-1 $-1 $229 $49 $-1 $230 forward single #
loop $-1 $231 $232 $91 #
cone-surface $-1 35.737263829687137 12.58539693129514 3.534792354664205 -0.51503808176128008 0 -0.85716729658548041 0.4285836482927402 0 -0.25751904088064004 1 I I -0.70710678118654746 0.70710678118654746 0.5 forward I I I I #
loop $-1 $-1 $233 $63 #
coedge $-1 $147 $147 $234 $235 reversed $92 $-1 #
face $-1 $236 $237 $50 $-1 $238 reversed single #
loop $-1 $-1 $239 $94 #
plane-surface $-1 -45.904721213415939 1.9948508791993156 1.9066937431554862 -0.51503808176128008 0 0.85716729658548041 0.85716729658548041 0 0.51503808176128008 forward_v I I I I #
coedge $-1 $240 $241 $242 $243 reversed $95 $-1 #
face $-1 $-1 $244 $51 $-1 $245 forward single #
loop $-1 $246 $247 $97 #
cone-surface $-1 -35.737263829687137 0.12593098765299615 3.5347923546642104 0.51503808176128008 0 -0.85716729658548041 0.4285836482927402 0 0.25751904088064004 1 I I -0.70710678118654746 0.70710678118654746 0.5 forward I I I I #
loop $-1 $-1 $248 $65 #
coedge $-1 $156 $156 $249 $250 reversed $98 $-1 #
face $-1 $-1 $251 $52 $-1 $252 forward single #
loop $-1 $253 $254 $100 #
cone-surface $-1 -35.737263829687137 3.8637707707456421 3.5347923546642104 0.51503808176128008 0 -0.85716729658548041 0.4285836482927402 0 0.25751904088064004 1 I I -0.70710678118654746 0.70710678118654746 0.5 forward I I I I #
loop $-1 $-1 $255 $66 #
coedge $-1 $161 $161 $256 $257 reversed $101 $-1 #
face $-1 $258 $259 $53 $-1 $260 reversed single #
loop $-1 $-1 $261 $103 #
plane-surface $-1 -93.190080328504109 15.077290120023564 80.602745309183277 0 -1 0 0.51503808176128008 0 -0.85716729658548041 forward_v I I I I #
coedge $-1 $262 $263 $264 $265 reversed $104 $-1 #
face $-1 $-1 $266 $54 $-1 $267 forward single #
loop $-1 $268 $269 $106 #
cone-surface $-1 -35.737263829687137 8.8475571482024939 3.5347923546642104 0.51503808176128008 0 -0.85716729658548041 0.4285836482927402 0 0.25751904088064004 1 I I -0.70710678118654746 0.70710678118654746 0.5 forward I I I I #
loop $-1 $-1 $270 $68 #
coedge $-1 $170 $170 $271 $272 reversed $107 $-1 #
face $-1 $-1 $273 $55 $-1 $274 forward single #
loop $-1 $275 $276 $109 #
cone-surface $-1 -35.737263829687137 12.58539693129514 3.5347923546642104 0.51503808176128008 0 -0.85716729658548041 0.4285836482927402 0 0.25751904088064004 1 I I -0.70710678118654746 0.70710678118654746 0.5 forward I I I I #
loop $-1 $-1 $277 $69 #
coedge $-1 $175 $175 $278 $279 reversed $110 $-1 #
face $-1 $280 $281 $42 $-1 $282 reversed single #
loop $-1 $-1 $283 $112 #
plane-surface $-1 0 -31.876932157901084 0 0 1 0 0 0 1 forward_v I I I I #
coedge $-1 $284 $285 $286 $287 forward $113 $-1 #
coedge $-1 $288 $115 $289 $290 forward $71 $-1 #
coedge $-1 $115 $288 $291 $292 forward $71 $-1 #
coedge $-1 $293 $294 $115 $183 reversed $295 $-1 #
edge $-1 $296 -31.876932157901084 $297 31.876932157901084 $182 $298 forward 7 unknown #
face $-1 $299 $300 $43 $-1 $301 reversed single #
loop $-1 $-1 $302 $116 #
plane-surface $-1 0 0 -11.747778476893885 0 0 1 1 0 0 forward_v I I I I #
coedge $-1 $303 $304 $305 $306 reversed $117 $-1 #
coedge $-1 $307 $119 $304 $308 forward $74 $-1 #
coedge $-1 $119 $307 $309 $310 reversed $74 $-1 #
coedge $-1 $311 $305 $119 $191 forward $300 $-1 #
edge $-1 $312 6.4049701397394454 $313 19.116298058687576 $190 $314 forward 7 unknown #
face $-1 $315 $316 $44 $-1 $317 reversed single #
loop $-1 $-1 $318 $120 #
plane-surface $-1 14.494028762476319 -2.3659622010754351 127.88810442427145 0 1 0 0.51503808176128008 0 0.85716729658548041 forward_v I I I I #
coedge $-1 $319 $320 $321 $322 reversed $121 $-1 #
coedge $-1 $197 $123 $323 $324 reversed $77 $-1 #
coedge $-1 $123 $196 $319 $325 reversed $77 $-1 #
coedge $-1 $321 $326 $123 $199 forward $327 $-1 #
edge $-1 $328 -38.65770683217778 $329 -22.279391722272919 $198 $330 forward 7 unknown #
loop $-1 $-1 $205 $124 #
plane-surface $-1 -32.791330352611851 1.9948508791993156 49.192052858243656 0.51503808176128008 0 0.85716729658548041 0.85716729658548041 0 -0.51503808176128008 forward_v I I I I #
loop $-1 $-1 $331 $79 #
coedge $-1 $203 $203 $204 $332 reversed $125 $-1 #
coedge $-1 $204 $204 $203 $332 forward $127 $-1 #
coedge $-1 $205 $205 $128 $206 forward $200 $-1 #
edge $-1 $333 0 $333 6.2831853071796004 $205 $334 forward 7 unknown #
loop $-1 $-1 $212 $129 #
plane-surface $-1 -32.791330352611851 1.9948508791993156 49.192052858243656 0.51503808176128008 0 0.85716729658548041 0.85716729658548041 0 -0.51503808176128008 forward_v I I I I #
loop $-1 $-1 $335 $82 #
coedge $-1 $210 $210 $211 $336 reversed $130 $-1 #
coedge $-1 $211 $211 $210 $336 forward $132 $-1 #
coedge $-1 $212 $212 $133 $213 forward $207 $-1 #
edge $-1 $337 0 $337 6.2831853071796004 $212 $338 forward 7 unknown #
face $-1 $339 $340 $47 $-1 $341 forward single #
loop $-1 $-1 $342 $134 #
plane-surface $-1 0 0 11.747778476893885 0 0 1 1 0 0 forward_v I I I I #
coedge $-1 $343 $344 $345 $346 reversed $135 $-1 #
coedge $-1 $219 $137 $347 $348 reversed $86 $-1 #
coedge $-1 $137 $218 $342 $349 reversed $86 $-1 #
coedge $-1 $350 $351 $137 $221 forward $352 $-1 #
edge $-1 $353 -62.037358468980237 $354 -52.196273735241839 $220 $355 forward 7 unknown #
loop $-1 $-1 $227 $138 #
plane-surface $-1 -32.791330352611851 1.9948508791993156 49.192052858243656 0.51503808176128008 0 0.85716729658548041 0.85716729658548041 0 -0.51503808176128008 forward_v I I I I #
loop $-1 $-1 $356 $88 #
coedge $-1 $225 $225 $226 $357 reversed $139 $-1 #
coedge $-1 $226 $226 $225 $357 forward $141 $-1 #
coedge $-1 $227 $227 $142 $228 forward $222 $-1 #
edge $-1 $358 0 $358 6.2831853071796004 $227 $359 forward 7 unknown #
loop $-1 $-1 $234 $143 #
plane-surface $-1 -32.791330352611851 1.9948508791993156 49.192052858243656 0.51503808176128008 0 0.85716729658548041 0.85716729658548041 0 -0.51503808176128008 forward_v I I I I #
loop $-1 $-1 $360 $91 #
coedge $-1 $232 $232 $233 $361 reversed $144 $-1 #
coedge $-1 $233 $233 $232 $361 forward $146 $-1 #
coedge $-1 $234 $234 $147 $235 forward $229 $-1 #
edge $-1 $362 0 $362 6.2831853071796004 $234 $363 forward 7 unknown #
face $-1 $364 $365 $50 $-1 $366 reversed single #
loop $-1 $-1 $367 $148 #
plane-surface $-1 -93.190080328504109 6.3556639594740663 80.602745309183277 0 -1 0 0.51503808176128008 0 -0.85716729658548041 forward_v I I I I #
coedge $-1 $368 $369 $370 $371 reversed $149 $-1 #
coedge $-1 $241 $151 $372 $373 reversed $95 $-1 #
coedge $-1 $151 $240 $368 $374 reversed $95 $-1 #
coedge $-1 $370 $375 $151 $243 forward $376 $-1 #
edge $-1 $377 0.69031895083611516 $378 17.068634060740969 $242 $379 forward 7 unknown #
loop $-1 $-1 $249 $152 #
plane-surface $-1 -45.904721213415939 1.9948508791993156 1.9066937431554862 -0.51503808176128008 0 0.85716729658548041 0.85716729658548041 0 0.51503808176128008 forward_v I I I I #
loop $-1 $-1 $380 $97 #
coedge $-1 $247 $247 $248 $381 reversed $153 $-1 #
coedge $-1 $248 $248 $247 $381 forward $155 $-1 #
coedge $-1 $249 $249 $156 $250 forward $244 $-1 #
edge $-1 $382 0 $382 6.2831853071796004 $249 $383 forward 7 unknown #
loop $-1 $-1 $256 $157 #
plane-surface $-1 -45.904721213415939 1.9948508791993156 1.9066937431554862 -0.51503808176128008 0 0.85716729658548041 0.85716729658548041 0 0.51503808176128008 forward_v I I I I #
loop $-1 $-1 $384 $100 #
coedge $-1 $254 $254 $255 $385 reversed $158 $-1 #
coedge $-1 $255 $255 $254 $385 forward $160 $-1 #
coedge $-1 $256 $256 $161 $257 forward $251 $-1 #
edge $-1 $386 0 $386 6.2831853071796004 $256 $387 forward 7 unknown #
face $-1 $388 $389 $53 $-1 $390 forward single #
loop $-1 $-1 $391 $162 #
plane-surface $-1 -45.904721213415939 0 0 1 0 0 0 0 -1 forward_v I I I I #
coedge $-1 $392 $393 $394 $395 reversed $163 $-1 #
coedge $-1 $396 $165 $397 $398 reversed $104 $-1 #
coedge $-1 $165 $396 $399 $400 reversed $104 $-1 #
coedge $-1 $401 $402 $165 $265 forward $389 $-1 #
edge $-1 $403 0 $404 19.107489489097112 $264 $405 forward 7 unknown #
loop $-1 $-1 $271 $166 #
plane-surface $-1 -45.904721213415939 1.9948508791993156 1.9066937431554862 -0.51503808176128008 0 0.85716729658548041 0.85716729658548041 0 0.51503808176128008 forward_v I I I I #
loop $-1 $-1 $406 $106 #
coedge $-1 $269 $269 $270 $407 reversed $167 $-1 #
coedge $-1 $270 $270 $269 $407 forward $169 $-1 #
coedge $-1 $271 $271 $170 $272 forward $266 $-1 #
edge $-1 $408 0 $408 6.2831853071796004 $271 $409 forward 7 unknown #
loop $-1 $-1 $278 $171 #
plane-surface $-1 -45.904721213415939 1.9948508791993156 1.9066937431554862 -0.51503808176128008 0 0.85716729658548041 0.85716729658548041 0 0.51503808176128008 forward_v I I I I #
loop $-1 $-1 $410 $109 #
coedge $-1 $276 $276 $277 $411 reversed $172 $-1 #
coedge $-1 $277 $277 $276 $411 forward $174 $-1 #
coedge $-1 $278 $278 $175 $279 forward $273 $-1 #
edge $-1 $412 0 $412 6.2831853071796004 $278 $413 forward 7 unknown #
face $-1 $414 $415 $42 $-1 $416 reversed single #
loop $-1 $-1 $417 $176 #
plane-surface $-1 -45.904721213415939 0 0 1 0 0 0 0 -1 forward_v I I I I #
coedge $-1 $418 $291 $419 $420 forward $177 $-1 #
coedge $-1 $421 $179 $418 $422 forward $113 $-1 #
coedge $-1 $179 $421 $423 $424 forward $113 $-1 #
coedge $-1 $294 $293 $179 $287 reversed $295 $-1 #
edge $-1 $425 -31.876932157901084 $426 31.876932157901084 $286 $427 forward 7 unknown #
coedge $-1 $181 $180 $428 $429 forward $71 $-1 #
coedge $-1 $430 $431 $180 $290 reversed $415 $-1 #
edge $-1 $297 -45.904721213415939 $432 45.904721213415939 $289 $433 forward 7 unknown #
coedge $-1 $283 $434 $181 $292 reversed $177 $-1 #
edge $-1 $435 -45.904721213415939 $296 45.904721213415939 $291 $436 forward 7 unknown #
coedge $-1 $286 $182 $434 $437 forward $295 $-1 #
coedge $-1 $182 $286 $430 $438 reversed $295 $-1 #
loop $-1 $-1 $293 $414 #
vertex $-1 $183 $439 #
vertex $-1 $183 $440 #
straight-curve $-1 45.904721213415939 0 11.747778476893885 0 1 0 I I #
face $-1 $441 $442 $43 $-1 $443 reversed single #
loop $-1 $-1 $305 $184 #
plane-surface $-1 45.904721213415939 0 0 -1 0 0 0 0 1 forward_v I I I I #
coedge $-1 $444 $445 $303 $446 forward $185 $-1 #
coedge $-1 $447 $187 $302 $446 reversed $117 $-1 #
coedge $-1 $187 $447 $188 $308 reversed $117 $-1 #
coedge $-1 $190 $448 $187 $306 forward $300 $-1 #
edge $-1 $449 -6.8895717554950862 $312 -2.8268416873025108 $305 $450 forward 7 unknown #
coedge $-1 $189 $188 $451 $452 reversed $74 $-1 #
edge $-1 $312 -45.904721213415939 $453 45.904721213415939 $304 $454 forward 7 unknown #
coedge $-1 $455 $456 $189 $310 forward $442 $-1 #
edge $-1 $313 -45.904721213415939 $457 45.904721213415939 $309 $458 forward 7 unknown #
coedge $-1 $448 $190 $456 $459 forward $300 $-1 #
vertex $-1 $191 $460 #
vertex $-1 $459 $461 #
straight-curve $-1 45.904721213415939 -12.76063409921351 -7.6850484087013093 0 -1 0 I I #
face $-1 $-1 $327 $44 $-1 $462 forward single #
loop $-1 $-1 $463 $192 #
plane-surface $-1 45.904721213415939 0 0 -1 0 0 0 0 1 forward_v I I I I #
coedge $-1 $464 $465 $466 $467 reversed $193 $-1 #
coedge $-1 $468 $195 $197 $325 forward $121 $-1 #
coedge $-1 $195 $468 $464 $469 forward $121 $-1 #
coedge $-1 $466 $198 $195 $322 forward $327 $-1 #
edge $-1 $329 -5.3582385198744085 $470 3.3633876406750929 $321 $471 forward 7 unknown #
coedge $-1 $472 $473 $196 $324 forward $316 $-1 #
edge $-1 $474 -62.037358468980237 $328 -52.196273735241839 $323 $475 forward 7 unknown #
edge $-1 $329 72.70195293773476 $474 91.809442426831879 $197 $476 forward 7 unknown #
coedge $-1 $198 $466 $472 $477 forward $327 $-1 #
loop $-1 $-1 $466 $315 #
vertex $-1 $324 $478 #
vertex $-1 $199 $479 #
straight-curve $-1 7.2470143812381593 6.3556639594740663 11.747778476893885 -1 0 0 I I #
coedge $-1 $331 $331 $-1 $480 reversed $202 $-1 #
edge $-1 $481 0 $481 6.2831853071796004 $203 $482 forward 7 unknown #
vertex $-1 $206 $483 #
ellipse-curve $-1 37.715563658463509 0.12593098765299615 6.8272361100246739 0.51503808176128008 0 0.85716729658548041 0.85716729658548041 0 -0.51503808176128008 1 I I #
coedge $-1 $335 $335 $-1 $484 reversed $209 $-1 #
edge $-1 $485 0 $485 6.2831853071796004 $210 $486 forward 7 unknown #
vertex $-1 $213 $487 #
ellipse-curve $-1 37.715563658463509 3.8637707707456421 6.8272361100246739 0.51503808176128008 0 0.85716729658548041 0.85716729658548041 0 -0.51503808176128008 1 I I #
face $-1 $-1 $352 $47 $-1 $488 reversed single #
loop $-1 $-1 $489 $214 #
plane-surface $-1 14.494028762476319 6.3556639594740663 127.88810442427145 0 -1 0 -0.51503808176128008 0 -0.85716729658548041 forward_v I I I I #
coedge $-1 $490 $491 $219 $349 forward $215 $-1 #
coedge $-1 $347 $217 $490 $492 reversed $135 $-1 #
coedge $-1 $217 $347 $351 $493 reversed $135 $-1 #
coedge $-1 $494 $489 $217 $346 forward $340 $-1 #
edge $-1 $495 72.70195293773476 $496 91.809442426831879 $345 $497 forward 7 unknown #
coedge $-1 $344 $343 $218 $348 forward $135 $-1 #
edge $-1 $498 72.70195293773476 $353 91.809442426831879 $218 $499 forward 7 unknown #
edge $-1 $354 -38.65770683217778 $498 -22.279391722272919 $342 $500 forward 7 unknown #
coedge $-1 $501 $220 $491 $502 reversed $352 $-1 #
coedge $-1 $220 $501 $344 $493 forward $352 $-1 #
loop $-1 $-1 $220 $339 #
vertex $-1 $221 $503 #
vertex $-1 $221 $504 #
straight-curve $-1 45.904721213415939 15.077290120023564 63.944052212135723 0 0 1 I I #
coedge $-1 $356 $356 $-1 $505 reversed $224 $-1 #
edge $-1 $506 0 $506 6.2831853071796004 $225 $507 forward 7 unknown #
vertex $-1 $228 $508 #
ellipse-curve $-1 37.715563658463509 8.8475571482024939 6.8272361100246739 0.51503808176128008 0 0.85716729658548041 0.85716729658548041 0 -0.51503808176128008 1 I I #
coedge $-1 $360 $360 $-1 $509 reversed $231 $-1 #
edge $-1 $510 0 $510 6.2831853071796004 $232 $511 forward 7 unknown #
vertex $-1 $235 $512 #
ellipse-curve $-1 37.715563658463509 12.58539693129514 6.8272361100246739 0.51503808176128008 0 0.85716729658548041 0.85716729658548041 0 -0.51503808176128008 1 I I #
face $-1 $-1 $376 $50 $-1 $513 forward single #
loop $-1 $-1 $514 $236 #
plane-surface $-1 -45.904721213415939 0 0 1 0 0 0 0 -1 forward_v I I I I #
coedge $-1 $515 $516 $517 $518 reversed $237 $-1 #
coedge $-1 $519 $239 $241 $374 forward $149 $-1 #
coedge $-1 $239 $519 $515 $520 forward $149 $-1 #
coedge $-1 $517 $242 $239 $371 forward $376 $-1 #
edge $-1 $378 -3.3633876406750929 $521 5.3582385198744085 $370 $522 forward 7 unknown #
coedge $-1 $523 $524 $240 $373 forward $365 $-1 #
edge $-1 $525 -38.394678911436152 $377 -28.553594177697754 $372 $526 forward 7 unknown #
edge $-1 $378 -19.107489489097112 $525 0 $241 $527 forward 7 unknown #
coedge $-1 $242 $517 $523 $528 forward $376 $-1 #
loop $-1 $-1 $517 $364 #
vertex $-1 $373 $529 #
vertex $-1 $243 $530 #
straight-curve $-1 -46.595040164252055 -2.3659622010754351 11.747778476893885 1 0 0 I I #
coedge $-1 $380 $380 $-1 $531 reversed $246 $-1 #
edge $-1 $532 0 $532 6.2831853071796004 $247 $533 forward 7 unknown #
vertex $-1 $250 $534 #
ellipse-curve $-1 -37.715563658463516 0.12593098765299615 6.8272361100246837 -0.51503808176128008 0 0.85716729658548041 0.85716729658548041 0 0.51503808176128008 1 I I #
coedge $-1 $384 $384 $-1 $535 reversed $253 $-1 #
edge $-1 $536 0 $536 6.2831853071796004 $254 $537 forward 7 unknown #
vertex $-1 $257 $538 #
ellipse-curve $-1 -37.715563658463516 3.8637707707456421 6.8272361100246837 -0.51503808176128008 0 0.85716729658548041 0.85716729658548041 0 0.51503808176128008 1 I I #
face $-1 $-1 $539 $53 $-1 $540 forward single #
loop $-1 $-1 $401 $258 #
plane-surface $-1 -93.190080328504109 6.3556639594740663 80.602745309183277 0 -1 0 0.51503808176128008 0 -0.85716729658548041 forward_v I I I I #
coedge $-1 $397 $541 $393 $542 forward $259 $-1 #
coedge $-1 $393 $261 $396 $543 reversed $163 $-1 #
coedge $-1 $261 $392 $391 $542 reversed $163 $-1 #
coedge $-1 $544 $399 $261 $395 forward $539 $-1 #
edge $-1 $545 -17.068634060740969 $546 -0.69031895083611516 $394 $547 forward 7 unknown #
coedge $-1 $263 $262 $392 $543 forward $104 $-1 #
coedge $-1 $548 $391 $262 $398 forward $259 $-1 #
edge $-1 $549 -14.079864680423906 $403 -5.3582385198744085 $397 $550 forward 7 unknown #
coedge $-1 $394 $551 $263 $400 forward $539 $-1 #
edge $-1 $404 5.3582385198744085 $545 14.079864680423906 $399 $552 forward 7 unknown #
coedge $-1 $402 $264 $551 $553 reversed $389 $-1 #
coedge $-1 $264 $401 $548 $554 reversed $389 $-1 #
vertex $-1 $398 $555 #
vertex $-1 $400 $556 #
straight-curve $-1 -45.904721213415939 6.3556639594740663 1.9066937431554862 0.85716729658548041 0 0.51503808176128008 I I #
coedge $-1 $406 $406 $-1 $557 reversed $268 $-1 #
edge $-1 $558 0 $558 6.2831853071796004 $269 $559 forward 7 unknown #
vertex $-1 $272 $560 #
ellipse-curve $-1 -37.715563658463516 8.8475571482024939 6.8272361100246837 -0.51503808176128008 0 0.85716729658548041 0.85716729658548041 0 0.51503808176128008 1 I I #
coedge $-1 $410 $410 $-1 $561 reversed $275 $-1 #
edge $-1 $562 0 $562 6.2831853071796004 $276 $563 forward 7 unknown #
vertex $-1 $279 $564 #
ellipse-curve $-1 -37.715563658463516 12.58539693129514 6.8272361100246837 -0.51503808176128008 0 0.85716729658548041 0.85716729658548041 0 0.51503808176128008 1 I I #
face $-1 $-1 $295 $42 $-1 $565 reversed single #
loop $-1 $-1 $430 $280 #
plane-surface $-1 0 31.876932157901084 0 0 -1 0 0 0 -1 forward_v I I I I #
coedge $-1 $566 $428 $431 $567 forward $281 $-1 #
coedge $-1 $434 $283 $284 $422 reversed $177 $-1 #
coedge $-1 $428 $566 $283 $420 reversed $281 $-1 #
edge $-1 $435 -11.747778476893885 $568 11.747778476893885 $419 $569 forward 7 unknown #
coedge $-1 $285 $284 $566 $570 forward $113 $-1 #
edge $-1 $426 -45.904721213415939 $568 45.904721213415939 $418 $571 forward 7 unknown #
coedge $-1 $431 $430 $285 $424 reversed $415 $-1 #
edge $-1 $572 -45.904721213415939 $425 45.904721213415939 $423 $573 forward 7 unknown #
vertex $-1 $287 $574 #
vertex $-1 $437 $575 #
straight-curve $-1 45.904721213415939 0 -11.747778476893885 0 -1 0 I I #
coedge $-1 $417 $419 $288 $429 reversed $281 $-1 #
edge $-1 $432 -31.876932157901084 $435 31.876932157901084 $428 $576 forward 7 unknown #
coedge $-1 $423 $289 $294 $438 forward $415 $-1 #
coedge $-1 $289 $423 $417 $567 reversed $415 $-1 #
vertex $-1 $290 $577 #
straight-curve $-1 0 31.876932157901084 11.747778476893885 -1 0 0 I I #
coedge $-1 $291 $418 $293 $437 reversed $177 $-1 #
vertex $-1 $429 $578 #
straight-curve $-1 0 -31.876932157901084 11.747778476893885 1 0 0 I I #
edge $-1 $296 -11.747778476893885 $426 11.747778476893885 $293 $579 forward 7 unknown #
edge $-1 $297 -11.747778476893885 $425 11.747778476893885 $294 $580 forward 7 unknown #
point $-1 45.904721213415939 -31.876932157901084 11.747778476893885 #
point $-1 45.904721213415939 31.876932157901084 11.747778476893885 #
face $-1 $-1 $581 $43 $-1 $582 reversed single #
loop $-1 $-1 $309 $299 #
plane-surface $-1 0 -31.876932157901084 0 0 1 0 0 0 1 forward_v I I I I #
coedge $-1 $583 $302 $448 $584 forward $185 $-1 #
coedge $-1 $302 $583 $585 $586 forward $185 $-1 #
edge $-1 $587 -45.904721213415939 $449 45.904721213415939 $302 $588 forward 7 unknown #
coedge $-1 $304 $303 $589 $590 reversed $117 $-1 #
coedge $-1 $305 $311 $444 $584 reversed $300 $-1 #
vertex $-1 $584 $591 #
straight-curve $-1 45.904721213415939 -19.165604238952955 -4.8582067213987985 0 0 1 I I #
coedge $-1 $589 $592 $307 $452 forward $581 $-1 #
edge $-1 $457 -19.116298058687576 $453 -6.4049701397394454 $451 $593 forward 7 unknown #
vertex $-1 $452 $594 #
straight-curve $-1 0 -19.165604238952955 -7.6850484087013093 -1 0 0 I I #
coedge $-1 $595 $309 $592 $596 forward $442 $-1 #
coedge $-1 $309 $595 $311 $459 reversed $442 $-1 #
vertex $-1 $596 $597 #
straight-curve $-1 0 -31.876932157901084 -7.6850484087013093 -1 0 0 I I #
edge $-1 $313 7.6850484087013093 $598 11.747778476893885 $311 $599 forward 7 unknown #
point $-1 45.904721213415939 -19.165604238952955 -7.6850484087013093 #
point $-1 45.904721213415939 -31.876932157901084 -7.6850484087013093 #
plane-surface $-1 0 0 11.747778476893885 0 0 1 1 0 0 forward_v I I I I #
coedge $-1 $473 $472 $465 $600 forward $316 $-1 #
coedge $-1 $465 $318 $320 $469 reversed $193 $-1 #
coedge $-1 $318 $464 $463 $600 reversed $193 $-1 #
coedge $-1 $326 $321 $318 $467 forward $327 $-1 #
edge $-1 $470 22.279391722272919 $601 38.65770683217778 $466 $602 forward 7 unknown #
coedge $-1 $320 $319 $473 $603 reversed $121 $-1 #
edge $-1 $604 -91.809442426831879 $470 -72.70195293773476 $464 $605 forward 7 unknown #
vertex $-1 $322 $606 #
straight-curve $-1 29.526406103511075 0.99742543959965779 11.747778476893885 0 -1 0 I I #
coedge $-1 $463 $323 $326 $477 reversed $316 $-1 #
coedge $-1 $323 $463 $468 $603 forward $316 $-1 #
vertex $-1 $324 $607 #
straight-curve $-1 45.904721213415939 6.3556639594740663 63.944052212135723 0 0 1 I I #
straight-curve $-1 -32.791330352611851 6.3556639594740663 49.192052858243656 0.85716729658548041 0 -0.51503808176128008 I I #
edge $-1 $601 -2.3659622010754351 $328 6.3556639594740663 $472 $608 forward 7 unknown #
point $-1 45.904721213415939 6.3556639594740663 11.747778476893885 #
point $-1 29.526406103511079 6.3556639594740663 11.747778476893885 #
edge $-1 $609 1 $609 0 $331 $-1 forward 7 unknown #
vertex $-1 $332 $610 #
ellipse-curve $-1 35.994782870567775 0.12593098765299615 3.9633760029569451 0.51503808176128008 0 0.85716729658548041 0.85716729658548041 0 -0.51503808176128008 1 I I #
point $-1 38.572730955048996 0.12593098765299615 6.3121980282634036 #
edge $-1 $611 1 $611 0 $335 $-1 forward 7 unknown #
vertex $-1 $336 $612 #
ellipse-curve $-1 35.994782870567775 3.8637707707456421 3.9633760029569451 0.51503808176128008 0 0.85716729658548041 0.85716729658548041 0 -0.51503808176128008 1 I I #
point $-1 38.572730955048996 3.8637707707456421 6.3121980282634036 #
plane-surface $-1 45.904721213415939 0 0 -1 0 0 0 0 1 forward_v I I I I #
coedge $-1 $345 $494 $613 $614 reversed $340 $-1 #
coedge $-1 $613 $342 $343 $492 forward $215 $-1 #
coedge $-1 $342 $613 $350 $502 forward $215 $-1 #
edge $-1 $498 -14.079864680423906 $495 -5.3582385198744085 $490 $615 forward 7 unknown #
edge $-1 $496 5.3582385198744085 $353 14.079864680423906 $351 $616 forward 7 unknown #
coedge $-1 $489 $345 $501 $617 reversed $340 $-1 #
vertex $-1 $492 $618 #
vertex $-1 $493 $619 #
straight-curve $-1 -32.791330352611851 6.3556639594740663 49.192052858243656 0.85716729658548041 0 -0.51503808176128008 I I #
vertex $-1 $349 $620 #
straight-curve $-1 -32.791330352611851 15.077290120023564 49.192052858243656 0.85716729658548041 0 -0.51503808176128008 I I #
straight-curve $-1 7.2470143812381593 15.077290120023564 11.747778476893885 -1 0 0 I I #
coedge $-1 $351 $350 $494 $617 forward $352 $-1 #
edge $-1 $621 6.3556639594740663 $354 15.077290120023564 $350 $622 forward 7 unknown #
point $-1 45.904721213415939 15.077290120023564 1.9066937431554862 #
point $-1 45.904721213415939 15.077290120023564 11.747778476893885 #
edge $-1 $623 1 $623 0 $356 $-1 forward 7 unknown #
vertex $-1 $357 $624 #
ellipse-curve $-1 35.994782870567775 8.8475571482024939 3.9633760029569451 0.51503808176128008 0 0.85716729658548041 0.85716729658548041 0 -0.51503808176128008 1 I I #
point $-1 38.572730955048996 8.8475571482024939 6.3121980282634036 #
edge $-1 $625 1 $625 0 $360 $-1 forward 7 unknown #
vertex $-1 $361 $626 #
ellipse-curve $-1 35.994782870567775 12.58539693129514 3.9633760029569451 0.51503808176128008 0 0.85716729658548041 0.85716729658548041 0 -0.51503808176128008 1 I I #
point $-1 38.572730955048996 12.58539693129514 6.3121980282634036 #
plane-surface $-1 0 0 11.747778476893885 0 0 1 1 0 0 forward_v I I I I #
coedge $-1 $524 $523 $516 $627 forward $365 $-1 #
coedge $-1 $516 $367 $369 $520 reversed $237 $-1 #
coedge $-1 $367 $515 $514 $627 reversed $237 $-1 #
coedge $-1 $375 $370 $367 $518 forward $376 $-1 #
edge $-1 $521 -17.068634060740969 $628 -0.69031895083611516 $517 $629 forward 7 unknown #
coedge $-1 $369 $368 $524 $630 reversed $149 $-1 #
edge $-1 $631 0 $521 19.107489489097112 $515 $632 forward 7 unknown #
vertex $-1 $371 $633 #
straight-curve $-1 -29.526406103511082 0.99742543959965779 11.747778476893885 0 1 0 I I #
coedge $-1 $514 $372 $375 $528 reversed $365 $-1 #
coedge $-1 $372 $514 $519 $630 forward $365 $-1 #
vertex $-1 $373 $634 #
straight-curve $-1 -45.904721213415939 -2.3659622010754351 40.301372654591638 0 0 1 I I #
straight-curve $-1 -45.904721213415939 -2.3659622010754351 1.9066937431554862 -0.85716729658548041 0 -0.51503808176128008 I I #
edge $-1 $628 -6.3556639594740663 $377 2.3659622010754351 $523 $635 forward 7 unknown #
point $-1 -45.904721213415939 -2.3659622010754351 11.747778476893885 #
point $-1 -29.526406103511086 -2.3659622010754351 11.747778476893885 #
edge $-1 $636 1 $636 0 $380 $-1 forward 7 unknown #
vertex $-1 $381 $637 #
ellipse-curve $-1 -35.994782870567775 0.12593098765299615 3.9633760029569505 -0.51503808176128008 0 0.85716729658548041 0.85716729658548041 0 0.51503808176128008 1 I I #
point $-1 -36.858396361878036 0.12593098765299615 7.3422741917859691 #
edge $-1 $638 1 $638 0 $384 $-1 forward 7 unknown #
vertex $-1 $385 $639 #
ellipse-curve $-1 -35.994782870567775 3.8637707707456421 3.9633760029569505 -0.51503808176128008 0 0.85716729658548041 0.85716729658548041 0 0.51503808176128008 1 I I #
point $-1 -36.858396361878036 3.8637707707456421 7.3422741917859691 #
loop $-1 $-1 $394 $388 #
plane-surface $-1 0 0 11.747778476893885 0 0 1 1 0 0 forward_v I I I I #
coedge $-1 $391 $548 $544 $640 reversed $259 $-1 #
edge $-1 $546 28.553594177697754 $549 38.394678911436152 $391 $641 forward 7 unknown #
edge $-1 $549 0 $545 19.107489489097112 $392 $642 forward 7 unknown #
coedge $-1 $551 $394 $541 $640 forward $539 $-1 #
vertex $-1 $395 $643 #
vertex $-1 $640 $644 #
straight-curve $-1 -46.595040164252055 15.077290120023564 11.747778476893885 -1 0 0 I I #
coedge $-1 $541 $397 $402 $554 forward $259 $-1 #
vertex $-1 $542 $645 #
straight-curve $-1 -45.904721213415939 0.99742543959965779 1.9066937431554865 0 -1 0 I I #
coedge $-1 $399 $544 $401 $553 forward $539 $-1 #
straight-curve $-1 -29.526406103511082 0.99742543959965779 11.747778476893885 0 1 0 I I #
edge $-1 $646 0.69031895083611516 $404 17.068634060740969 $551 $647 forward 7 unknown #
edge $-1 $403 -38.394678911436152 $646 -28.553594177697754 $548 $648 forward 7 unknown #
point $-1 -45.904721213415939 6.3556639594740663 1.9066937431554862 #
point $-1 -29.526406103511086 6.3556639594740663 11.747778476893885 #
edge $-1 $649 1 $649 0 $406 $-1 forward 7 unknown #
vertex $-1 $407 $650 #
ellipse-curve $-1 -35.994782870567775 8.8475571482024939 3.9633760029569505 -0.51503808176128008 0 0.85716729658548041 0.85716729658548041 0 0.51503808176128008 1 I I #
point $-1 -36.858396361878036 8.8475571482024939 7.3422741917859691 #
edge $-1 $651 1 $651 0 $410 $-1 forward 7 unknown #
vertex $-1 $411 $652 #
ellipse-curve $-1 -35.994782870567775 12.58539693129514 3.9633760029569505 -0.51503808176128008 0 0.85716729658548041 0.85716729658548041 0 0.51503808176128008 1 I I #
point $-1 -36.858396361878036 12.58539693129514 7.3422741917859691 #
plane-surface $-1 45.904721213415939 0 0 -1 0 0 0 0 1 forward_v I I I I #
coedge $-1 $419 $417 $421 $570 reversed $281 $-1 #
edge $-1 $432 -11.747778476893885 $572 11.747778476893885 $431 $653 forward 7 unknown #
vertex $-1 $570 $654 #
straight-curve $-1 -45.904721213415939 -31.876932157901084 0 0 0 -1 I I #
edge $-1 $568 -31.876932157901084 $572 31.876932157901084 $566 $655 forward 7 unknown #
straight-curve $-1 0 -31.876932157901084 -11.747778476893885 -1 0 0 I I #
vertex $-1 $424 $656 #
straight-curve $-1 0 31.876932157901084 -11.747778476893885 1 0 0 I I #
point $-1 45.904721213415939 31.876932157901084 -11.747778476893885 #
point $-1 45.904721213415939 -31.876932157901084 -11.747778476893885 #
straight-curve $-1 -45.904721213415939 0 11.747778476893885 0 -1 0 I I #
point $-1 -45.904721213415939 31.876932157901084 11.747778476893885 #
point $-1 -45.904721213415939 -31.876932157901084 11.747778476893885 #
straight-curve $-1 45.904721213415939 -31.876932157901084 0 0 0 -1 I I #
straight-curve $-1 45.904721213415939 31.876932157901084 0 0 0 -1 I I #
loop $-1 $-1 $589 $441 #
plane-surface $-1 -45.904721213415939 0 0 1 0 0 0 0 -1 forward_v I I I I #
coedge $-1 $445 $444 $595 $657 forward $185 $-1 #
edge $-1 $449 19.165604238952955 $598 31.876932157901084 $448 $658 forward 7 unknown #
coedge $-1 $592 $589 $445 $586 reversed $581 $-1 #
edge $-1 $659 -31.876932157901084 $587 -19.165604238952955 $585 $660 forward 7 unknown #
vertex $-1 $590 $661 #
straight-curve $-1 0 -19.165604238952955 -11.747778476893885 1 0 0 I I #
coedge $-1 $585 $451 $447 $590 forward $581 $-1 #
edge $-1 $453 2.8268416873025108 $587 6.8895717554950862 $589 $662 forward 7 unknown #
point $-1 45.904721213415939 -19.165604238952955 -11.747778476893885 #
coedge $-1 $451 $585 $455 $596 reversed $581 $-1 #
straight-curve $-1 -45.904721213415939 -12.76063409921351 -7.6850484087013093 0 1 0 I I #
point $-1 -45.904721213415939 -19.165604238952955 -7.6850484087013093 #
coedge $-1 $456 $455 $583 $657 reversed $442 $-1 #
edge $-1 $457 7.6850484087013093 $659 11.747778476893885 $592 $663 forward 7 unknown #
point $-1 -45.904721213415939 -31.876932157901084 -7.6850484087013093 #
vertex $-1 $459 $664 #
straight-curve $-1 45.904721213415939 -31.876932157901084 0 0 0 -1 I I #
edge $-1 $601 52.196273735241839 $604 62.037358468980237 $463 $665 forward 7 unknown #
vertex $-1 $477 $666 #
straight-curve $-1 7.2470143812381593 -2.3659622010754351 11.747778476893885 1 0 0 I I #
edge $-1 $604 -3.3633876406750929 $474 5.3582385198744085 $473 $667 forward 7 unknown #
vertex $-1 $603 $668 #
straight-curve $-1 -32.791330352611851 -2.3659622010754351 49.192052858243656 -0.85716729658548041 0 0.51503808176128008 I I #
point $-1 29.526406103511079 -2.3659622010754351 11.747778476893885 #
point $-1 45.904721213415939 6.3556639594740663 1.9066937431554862 #
straight-curve $-1 45.904721213415939 0 11.747778476893885 0 1 0 I I #
vertex $-1 $480 $669 #
point $-1 36.851950167153255 0.12593098765299615 3.4483379211956651 #
vertex $-1 $484 $670 #
point $-1 36.851950167153255 3.8637707707456421 3.4483379211956651 #
coedge $-1 $491 $490 $489 $614 forward $215 $-1 #
edge $-1 $495 22.279391722272919 $621 38.65770683217778 $613 $671 forward 7 unknown #
straight-curve $-1 29.526406103511075 0.99742543959965779 11.747778476893885 0 -1 0 I I #
straight-curve $-1 45.904721213415939 0.99742543959965779 1.9066937431554827 0 1 0 I I #
edge $-1 $621 52.196273735241839 $496 62.037358468980237 $501 $672 forward 7 unknown #
point $-1 29.526406103511079 6.3556639594740663 11.747778476893885 #
point $-1 45.904721213415939 6.3556639594740663 1.9066937431554862 #
point $-1 29.526406103511079 15.077290120023564 11.747778476893885 #
vertex $-1 $502 $673 #
straight-curve $-1 45.904721213415939 0 11.747778476893885 0 1 0 I I #
vertex $-1 $505 $674 #
point $-1 36.851950167153255 8.8475571482024939 3.4483379211956651 #
vertex $-1 $509 $675 #
point $-1 36.851950167153255 12.58539693129514 3.4483379211956651 #
edge $-1 $628 28.553594177697754 $631 38.394678911436152 $514 $676 forward 7 unknown #
vertex $-1 $528 $677 #
straight-curve $-1 -46.595040164252055 6.3556639594740663 11.747778476893885 -1 0 0 I I #
edge $-1 $631 -5.3582385198744085 $525 3.3633876406750929 $524 $678 forward 7 unknown #
vertex $-1 $630 $679 #
straight-curve $-1 -45.904721213415939 6.3556639594740663 1.9066937431554862 0.85716729658548041 0 0.51503808176128008 I I #
point $-1 -29.526406103511086 6.3556639594740663 11.747778476893885 #
point $-1 -45.904721213415939 -2.3659622010754351 1.9066937431554862 #
straight-curve $-1 -45.904721213415939 0 11.747778476893885 0 -1 0 I I #
vertex $-1 $531 $680 #
point $-1 -35.137615573982295 0.12593098765299615 4.4784140847182305 #
vertex $-1 $535 $681 #
point $-1 -35.137615573982295 3.8637707707456421 4.4784140847182305 #
edge $-1 $546 -15.077290120023564 $646 -6.3556639594740663 $541 $682 forward 7 unknown #
straight-curve $-1 -45.904721213415939 15.077290120023564 40.301372654591638 0 0 -1 I I #
straight-curve $-1 -45.904721213415939 15.077290120023564 1.9066937431554862 0.85716729658548041 0 0.51503808176128008 I I #
point $-1 -29.526406103511086 15.077290120023564 11.747778476893885 #
point $-1 -45.904721213415939 15.077290120023564 11.747778476893885 #
point $-1 -45.904721213415939 15.077290120023564 1.9066937431554862 #
vertex $-1 $554 $683 #
straight-curve $-1 -46.595040164252055 6.3556639594740663 11.747778476893885 1 0 0 I I #
straight-curve $-1 -45.904721213415939 6.3556639594740663 40.301372654591638 0 0 1 I I #
vertex $-1 $557 $684 #
point $-1 -35.137615573982295 8.8475571482024939 4.4784140847182305 #
vertex $-1 $561 $685 #
point $-1 -35.137615573982295 12.58539693129514 4.4784140847182305 #
straight-curve $-1 -45.904721213415939 31.876932157901084 0 0 0 -1 I I #
point $-1 -45.904721213415939 -31.876932157901084 -11.747778476893885 #
straight-curve $-1 -45.904721213415939 0 -11.747778476893885 0 1 0 I I #
point $-1 -45.904721213415939 31.876932157901084 -11.747778476893885 #
edge $-1 $598 -45.904721213415939 $659 45.904721213415939 $595 $686 forward 7 unknown #
straight-curve $-1 45.904721213415939 0 -11.747778476893885 0 -1 0 I I #
vertex $-1 $586 $687 #
straight-curve $-1 -45.904721213415939 0 -11.747778476893885 0 1 0 I I #
point $-1 -45.904721213415939 -19.165604238952955 -11.747778476893885 #
straight-curve $-1 -45.904721213415939 -19.165604238952955 -4.8582067213987985 0 0 -1 I I #
straight-curve $-1 -45.904721213415939 -31.876932157901084 0 0 0 -1 I I #
point $-1 45.904721213415939 -31.876932157901084 -11.747778476893885 #
straight-curve $-1 45.904721213415939 -2.3659622010754351 63.944052212135723 0 0 -1 I I #
point $-1 45.904721213415939 -2.3659622010754351 11.747778476893885 #
straight-curve $-1 45.904721213415939 0.99742543959965779 1.9066937431554827 0 1 0 I I #
point $-1 45.904721213415939 -2.3659622010754351 1.9066937431554862 #
point $-1 35.479744788806499 0.12593098765299615 3.106208706371465 #
point $-1 35.479744788806499 3.8637707707456421 3.106208706371465 #
straight-curve $-1 7.2470143812381593 6.3556639594740663 11.747778476893885 1 0 0 I I #
straight-curve $-1 45.904721213415939 6.3556639594740663 63.944052212135723 0 0 -1 I I #
point $-1 45.904721213415939 6.3556639594740663 11.747778476893885 #
point $-1 35.479744788806499 8.8475571482024939 3.106208706371465 #
point $-1 35.479744788806499 12.58539693129514 3.106208706371465 #
straight-curve $-1 -45.904721213415939 6.3556639594740663 40.301372654591638 0 0 -1 I I #
point $-1 -45.904721213415939 6.3556639594740663 11.747778476893885 #
straight-curve $-1 -45.904721213415939 0.99742543959965779 1.9066937431554865 0 -1 0 I I #
point $-1 -45.904721213415939 6.3556639594740663 1.9066937431554862 #
point $-1 -35.479744788806499 0.12593098765299615 3.1062087063714703 #
point $-1 -35.479744788806499 3.8637707707456421 3.1062087063714703 #
straight-curve $-1 -45.904721213415939 0 11.747778476893885 0 -1 0 I I #
point $-1 -45.904721213415939 6.3556639594740663 11.747778476893885 #
point $-1 -35.479744788806499 8.8475571482024939 3.1062087063714703 #
point $-1 -35.479744788806499 12.58539693129514 3.1062087063714703 #
straight-curve $-1 0 -31.876932157901084 -11.747778476893885 -1 0 0 I I #
point $-1 -45.904721213415939 -31.876932157901084 -11.747778476893885 #
End-of-ACIS-data 