500 0 7 0           
7 Unknown 11 ACIS 5.0 NT 24 Fri Mar 26 20:39:03 1999 
-1 9.9999999999999995e-007 1e-010 
body $-1 $7 $-1 $8 #
body $-1 $9 $-1 $10 #
body $-1 $11 $-1 $12 #
body $-1 $13 $-1 $14 #
body $-1 $15 $-1 $16 #
body $-1 $17 $-1 $18 #
body $-1 $19 $-1 $20 #
lump $-1 $-1 $21 $0 #
transform $-1 1 0 0 0 1 0 0 0 1 59.69542527542955 37.596986631414751 10.588817747368115 1 rotate no_reflect no_shear #
lump $-1 $-1 $22 $1 #
transform $-1 1 0 0 0 1 0 0 0 1 59.69542527542955 37.596986631414751 10.588817747368115 1 rotate no_reflect no_shear #
lump $-1 $-1 $23 $2 #
transform $-1 1 0 0 0 1 0 0 0 1 59.69542527542955 37.596986631414751 10.588817747368115 1 rotate no_reflect no_shear #
lump $-1 $-1 $24 $3 #
transform $-1 1 0 0 0 1 0 0 0 1 59.69542527542955 37.596986631414751 10.588817747368115 1 rotate no_reflect no_shear #
lump $-1 $-1 $25 $4 #
transform $-1 1 0 0 0 1 0 0 0 1 59.69542527542955 37.596986631414751 10.588817747368115 1 rotate no_reflect no_shear #
lump $-1 $-1 $26 $5 #
transform $-1 1 0 0 0 1 0 0 0 1 59.69542527542955 37.596986631414751 10.588817747368115 1 rotate no_reflect no_shear #
lump $-1 $-1 $27 $6 #
transform $-1 1 0 0 0 1 0 0 0 1 59.69542527542955 37.596986631414751 10.588817747368115 1 rotate no_reflect no_shear #
shell $-1 $-1 $-1 $28 $-1 $7 #
shell $-1 $-1 $-1 $29 $-1 $9 #
shell $-1 $-1 $-1 $30 $-1 $11 #
shell $-1 $-1 $-1 $31 $-1 $13 #
shell $-1 $-1 $-1 $32 $-1 $15 #
shell $-1 $-1 $-1 $33 $-1 $17 #
shell $-1 $-1 $-1 $34 $-1 $19 #
face $-1 $35 $36 $21 $-1 $37 forward single #
face $-1 $38 $39 $22 $-1 $40 forward single #
face $-1 $41 $42 $23 $-1 $43 forward single #
face $-1 $44 $45 $24 $-1 $46 reversed single #
face $-1 $47 $48 $25 $-1 $49 forward single #
face $-1 $50 $51 $26 $-1 $52 reversed single #
face $-1 $53 $54 $27 $-1 $55 forward single #
face $-1 $56 $57 $21 $-1 $58 reversed single #
loop $-1 $-1 $59 $28 #
plane-surface $-1 0 0 10.588817747368115 0 0 1 1 0 0 forward_v I I I I #
face $-1 $60 $61 $22 $-1 $62 reversed single #
loop $-1 $-1 $63 $29 #
plane-surface $-1 -59.69542527542955 0 0 1 0 0 0 0 -1 forward_v I I I I #
face $-1 $64 $65 $23 $-1 $66 reversed single #
loop $-1 $-1 $67 $30 #
plane-surface $-1 59.69542527542955 0 0 -1 0 0 0 0 1 forward_v I I I I #
face $-1 $68 $69 $24 $-1 $70 reversed single #
loop $-1 $-1 $71 $31 #
plane-surface $-1 21.952824540462203 61.605048222516729 139.75839761678941 1 0 0 0 -0.66913061440640931 -0.74314481823134659 forward_v I I I I #
face $-1 $72 $73 $25 $-1 $74 forward single #
loop $-1 $75 $76 $32 #
cone-surface $-1 36.337732633142387 31.424532971820366 4.8857043968510032 0 -0.66913061440640931 -0.74314481823134659 1.5 0 0 1 I I 0 1 1.5 forward I I I I #
face $-1 $77 $78 $26 $-1 $79 reversed single #
loop $-1 $-1 $80 $33 #
plane-surface $-1 50.722640725822544 -117.48505981501488 89.443808087773206 -1 0 0 0 -0.66913061440640931 0.74314481823134659 forward_v I I I I #
face $-1 $81 $82 $27 $-1 $83 forward single #
loop $-1 $84 $85 $34 #
cone-surface $-1 36.337732633142387 -31.424532971820373 4.8857043968510014 0 0.66913061440640931 -0.74314481823134659 1.5 0 0 1 I I 0 1 1.5 forward I I I I #
face $-1 $86 $87 $21 $-1 $88 reversed single #
loop $-1 $-1 $89 $35 #
plane-surface $-1 0 0 -10.588817747368115 0 0 1 1 0 0 forward_v I I I I #
coedge $-1 $90 $91 $92 $93 forward $36 $-1 #
face $-1 $94 $95 $22 $-1 $96 reversed single #
loop $-1 $-1 $97 $38 #
plane-surface $-1 0 0 -10.588817747368115 0 0 1 1 0 0 forward_v I I I I #
coedge $-1 $98 $99 $100 $101 forward $39 $-1 #
face $-1 $102 $103 $23 $-1 $104 reversed single #
loop $-1 $-1 $105 $41 #
plane-surface $-1 0 0 -10.588817747368115 0 0 1 1 0 0 forward_v I I I I #
coedge $-1 $106 $107 $108 $109 forward $42 $-1 #
face $-1 $110 $111 $24 $-1 $112 reversed single #
loop $-1 $-1 $113 $44 #
plane-surface $-1 36.337732633142373 -18.283024961083413 51.033705685685362 0 0.66913061440640931 0.74314481823134659 1 0 0 forward_v I I I I #
coedge $-1 $114 $115 $116 $117 reversed $45 $-1 #
face $-1 $-1 $118 $25 $-1 $119 forward single #
loop $-1 $120 $121 $47 #
cone-surface $-1 36.337732633142387 30.230938284195588 3.5600832280098622 0 -0.66913061440640931 -0.74314481823134659 0.75 0 0 1 I I -0.70710678118654757 0.70710678118654757 0.75 forward I I I I #
loop $-1 $-1 $122 $32 #
coedge $-1 $76 $76 $123 $124 reversed $48 $-1 #
face $-1 $125 $126 $26 $-1 $127 reversed single #
loop $-1 $-1 $128 $50 #
plane-surface $-1 36.337732633142373 -37.596986631414737 0.71911615666915907 0 -0.66913061440640931 0.74314481823134659 1 0 0 forward_v I I I I #
coedge $-1 $129 $130 $131 $132 reversed $51 $-1 #
face $-1 $-1 $133 $27 $-1 $134 forward single #
loop $-1 $135 $136 $53 #
cone-surface $-1 36.337732633142387 -30.230938284195595 3.5600832280098604 0 0.66913061440640931 -0.74314481823134659 0.75 0 0 1 I I -0.70710678118654757 0.70710678118654757 0.75 forward I I I I #
loop $-1 $-1 $137 $34 #
coedge $-1 $85 $85 $138 $139 reversed $54 $-1 #
face $-1 $140 $141 $21 $-1 $142 reversed single #
loop $-1 $-1 $143 $56 #
plane-surface $-1 0 -37.596986631414751 0 0 1 0 0 0 1 forward_v I I I I #
coedge $-1 $144 $145 $146 $147 forward $57 $-1 #
coedge $-1 $148 $59 $149 $150 forward $36 $-1 #
coedge $-1 $59 $148 $151 $152 forward $36 $-1 #
coedge $-1 $153 $154 $59 $93 reversed $155 $-1 #
edge $-1 $156 -37.596986631414751 $157 37.596986631414751 $92 $158 forward 7 unknown #
face $-1 $159 $160 $22 $-1 $161 reversed single #
loop $-1 $-1 $162 $60 #
plane-surface $-1 -64.181817550233049 -21.471361493797104 0 0 1 0 0 0 1 forward_v I I I I #
coedge $-1 $163 $164 $99 $165 forward $61 $-1 #
coedge $-1 $166 $63 $167 $168 reversed $39 $-1 #
coedge $-1 $63 $166 $97 $165 reversed $39 $-1 #
coedge $-1 $169 $170 $63 $101 reversed $171 $-1 #
edge $-1 $172 -10.588817747368115 $173 10.588817747368115 $100 $174 forward 7 unknown #
face $-1 $175 $176 $23 $-1 $177 reversed single #
loop $-1 $-1 $108 $64 #
plane-surface $-1 64.181817550233035 -21.471361493797104 0 0 1 0 0 0 1 forward_v I I I I #
coedge $-1 $178 $179 $107 $180 forward $65 $-1 #
coedge $-1 $181 $67 $182 $183 reversed $42 $-1 #
coedge $-1 $67 $181 $105 $180 reversed $42 $-1 #
coedge $-1 $184 $185 $67 $109 reversed $103 $-1 #
edge $-1 $186 -10.588817747368115 $187 10.588817747368115 $108 $188 forward 7 unknown #
face $-1 $189 $190 $24 $-1 $191 reversed single #
loop $-1 $-1 $192 $68 #
plane-surface $-1 50.722640725822544 61.605048222516729 139.75839761678941 -1 0 0 0 0.66913061440640931 0.74314481823134659 forward_v I I I I #
coedge $-1 $193 $194 $195 $196 reversed $69 $-1 #
coedge $-1 $115 $71 $197 $198 reversed $45 $-1 #
coedge $-1 $71 $114 $193 $199 reversed $45 $-1 #
coedge $-1 $195 $200 $71 $117 forward $201 $-1 #
edge $-1 $202 -6.7944625201563866 $203 4.1669513453924338 $116 $204 forward 7 unknown #
loop $-1 $-1 $123 $72 #
plane-surface $-1 36.337732633142373 -18.283024961083413 51.033705685685362 0 0.66913061440640931 0.74314481823134659 1 0 0 forward_v I I I I #
loop $-1 $-1 $205 $47 #
coedge $-1 $121 $121 $122 $206 reversed $73 $-1 #
coedge $-1 $122 $122 $121 $206 forward $75 $-1 #
coedge $-1 $123 $123 $76 $124 forward $118 $-1 #
edge $-1 $207 0 $207 6.2831853071796004 $123 $208 forward 7 unknown #
face $-1 $209 $210 $26 $-1 $211 forward single #
loop $-1 $-1 $212 $77 #
plane-surface $-1 21.952824540462203 -117.48505981501488 89.443808087773206 1 0 0 0 0.66913061440640931 -0.74314481823134659 forward_v I I I I #
coedge $-1 $213 $214 $215 $216 reversed $78 $-1 #
coedge $-1 $130 $80 $217 $218 reversed $51 $-1 #
coedge $-1 $80 $129 $213 $219 reversed $51 $-1 #
coedge $-1 $215 $220 $80 $132 forward $210 $-1 #
edge $-1 $221 21.145543276092688 $222 32.106957141641509 $131 $223 forward 7 unknown #
loop $-1 $-1 $138 $81 #
plane-surface $-1 36.337732633142373 -37.596986631414737 0.71911615666915907 0 -0.66913061440640931 0.74314481823134659 1 0 0 forward_v I I I I #
loop $-1 $-1 $224 $53 #
coedge $-1 $136 $136 $137 $225 reversed $82 $-1 #
coedge $-1 $137 $137 $136 $225 forward $84 $-1 #
coedge $-1 $138 $138 $85 $139 forward $133 $-1 #
edge $-1 $226 3.962049144509723e-016 $226 6.2831853071796004 $138 $227 forward 7 unknown #
face $-1 $228 $229 $21 $-1 $230 reversed single #
loop $-1 $-1 $231 $86 #
plane-surface $-1 -59.69542527542955 0 0 1 0 0 0 0 -1 forward_v I I I I #
coedge $-1 $232 $151 $233 $234 forward $87 $-1 #
coedge $-1 $235 $89 $232 $236 forward $57 $-1 #
coedge $-1 $89 $235 $237 $238 forward $57 $-1 #
coedge $-1 $154 $153 $89 $147 reversed $155 $-1 #
edge $-1 $239 -37.596986631414751 $240 37.596986631414751 $146 $241 forward 7 unknown #
coedge $-1 $91 $90 $242 $243 forward $36 $-1 #
coedge $-1 $244 $245 $90 $150 reversed $229 $-1 #
edge $-1 $157 -59.69542527542955 $246 59.69542527542955 $149 $247 forward 7 unknown #
coedge $-1 $143 $248 $91 $152 reversed $87 $-1 #
edge $-1 $249 -59.69542527542955 $156 59.69542527542955 $151 $250 forward 7 unknown #
coedge $-1 $146 $92 $248 $251 forward $155 $-1 #
coedge $-1 $92 $146 $244 $252 reversed $155 $-1 #
loop $-1 $-1 $153 $228 #
vertex $-1 $93 $253 #
vertex $-1 $93 $254 #
straight-curve $-1 59.69542527542955 0 10.588817747368115 0 1 0 I I #
face $-1 $255 $171 $22 $-1 $256 reversed single #
loop $-1 $-1 $257 $94 #
plane-surface $-1 -68.668209825036556 -18.945356315237813 0 1 0 0 0 0 -1 forward_v I I I I #
coedge $-1 $258 $259 $260 $261 forward $95 $-1 #
coedge $-1 $262 $97 $258 $263 forward $61 $-1 #
coedge $-1 $97 $262 $169 $264 forward $61 $-1 #
edge $-1 $172 16.419351136678522 $265 21.471361493797104 $97 $266 forward 7 unknown #
coedge $-1 $99 $98 $267 $268 forward $39 $-1 #
coedge $-1 $269 $270 $98 $168 forward $271 $-1 #
edge $-1 $272 -21.471361493797104 $173 -16.419351136678522 $167 $273 forward 7 unknown #
coedge $-1 $274 $100 $164 $264 reversed $171 $-1 #
coedge $-1 $100 $274 $269 $275 reversed $171 $-1 #
loop $-1 $-1 $100 $159 #
vertex $-1 $165 $276 #
vertex $-1 $275 $277 #
straight-curve $-1 -59.69542527542955 -16.419351136678522 0 0 0 1 I I #
face $-1 $278 $279 $23 $-1 $280 reversed single #
loop $-1 $-1 $281 $102 #
plane-surface $-1 64.181817550233035 -16.419351136678522 0 0 -1 0 0 0 -1 forward_v I I I I #
coedge $-1 $282 $105 $283 $284 forward $65 $-1 #
coedge $-1 $105 $282 $184 $285 forward $65 $-1 #
edge $-1 $186 -21.471361493797104 $286 -16.419351136678522 $105 $287 forward 7 unknown #
coedge $-1 $107 $106 $288 $289 forward $42 $-1 #
coedge $-1 $290 $291 $106 $183 forward $292 $-1 #
edge $-1 $293 16.419351136678522 $187 21.471361493797104 $182 $294 forward 7 unknown #
coedge $-1 $295 $108 $179 $285 reversed $103 $-1 #
coedge $-1 $108 $295 $290 $296 reversed $103 $-1 #
vertex $-1 $180 $297 #
vertex $-1 $296 $298 #
straight-curve $-1 59.69542527542955 -21.471361493797104 0 0 0 1 I I #
face $-1 $-1 $201 $24 $-1 $299 forward single #
loop $-1 $-1 $300 $110 #
plane-surface $-1 0 37.596986631414751 0 0 -1 0 0 0 -1 forward_v I I I I #
coedge $-1 $301 $302 $303 $304 reversed $111 $-1 #
coedge $-1 $305 $113 $115 $199 forward $69 $-1 #
coedge $-1 $113 $305 $301 $306 forward $69 $-1 #
coedge $-1 $303 $116 $113 $196 forward $201 $-1 #
edge $-1 $203 3.7839582238910161 $307 32.553774409251361 $195 $308 forward 7 unknown #
coedge $-1 $309 $310 $114 $198 forward $190 $-1 #
edge $-1 $311 -69.16008265172556 $202 -59.290381061026594 $197 $312 forward 7 unknown #
edge $-1 $203 60.443935858765343 $311 75.193973262829502 $115 $313 forward 7 unknown #
coedge $-1 $116 $303 $309 $314 forward $201 $-1 #
loop $-1 $-1 $303 $189 #
vertex $-1 $198 $315 #
vertex $-1 $117 $316 #
straight-curve $-1 21.952824540462203 30.802524111258364 10.588817747368111 0 -1 0 I I #
coedge $-1 $205 $205 $-1 $317 reversed $120 $-1 #
edge $-1 $318 0 $318 6.2831853071796004 $121 $319 forward 7 unknown #
vertex $-1 $124 $320 #
ellipse-curve $-1 36.337732633142387 32.116279698640334 5.6539669520186333 0 0.66913061440640931 0.74314481823134659 1.5 0 0 1 I I #
face $-1 $-1 $321 $26 $-1 $322 reversed single #
loop $-1 $-1 $131 $125 #
plane-surface $-1 0 0 10.588817747368115 0 0 1 1 0 0 forward_v I I I I #
coedge $-1 $323 $324 $325 $326 reversed $126 $-1 #
coedge $-1 $327 $128 $130 $219 forward $78 $-1 #
coedge $-1 $128 $327 $323 $328 forward $78 $-1 #
coedge $-1 $325 $131 $128 $216 forward $210 $-1 #
edge $-1 $222 -32.553774409251361 $329 -3.7839582238910161 $215 $330 forward 7 unknown #
coedge $-1 $331 $332 $129 $218 forward $321 $-1 #
edge $-1 $333 -44.002787887217458 $221 -34.133086296518485 $217 $334 forward 7 unknown #
edge $-1 $222 -14.750037404064138 $333 1.9103891512089958e-014 $130 $335 forward 7 unknown #
coedge $-1 $131 $325 $331 $336 forward $210 $-1 #
vertex $-1 $132 $337 #
vertex $-1 $132 $338 #
straight-curve $-1 50.722640725822544 -58.742529907507439 10.588817747368111 0 1 0 I I #
coedge $-1 $224 $224 $-1 $339 reversed $135 $-1 #
edge $-1 $340 0 $340 6.2831853071796004 $136 $341 forward 7 unknown #
vertex $-1 $139 $342 #
ellipse-curve $-1 36.337732633142387 -32.116279698640341 5.6539669520186306 0 -0.66913061440640931 0.74314481823134659 1.5 0 0 1 I I #
face $-1 $-1 $155 $21 $-1 $343 reversed single #
loop $-1 $-1 $244 $140 #
plane-surface $-1 0 37.596986631414751 0 0 -1 0 0 0 -1 forward_v I I I I #
coedge $-1 $344 $242 $245 $345 forward $141 $-1 #
coedge $-1 $248 $143 $144 $236 reversed $87 $-1 #
coedge $-1 $242 $344 $143 $234 reversed $141 $-1 #
edge $-1 $249 -10.588817747368115 $346 10.588817747368115 $233 $347 forward 7 unknown #
coedge $-1 $145 $144 $344 $348 forward $57 $-1 #
edge $-1 $240 -59.69542527542955 $346 59.69542527542955 $232 $349 forward 7 unknown #
coedge $-1 $245 $244 $145 $238 reversed $229 $-1 #
edge $-1 $350 -59.69542527542955 $239 59.69542527542955 $237 $351 forward 7 unknown #
vertex $-1 $147 $352 #
vertex $-1 $251 $353 #
straight-curve $-1 59.69542527542955 0 -10.588817747368115 0 -1 0 I I #
coedge $-1 $231 $233 $148 $243 reversed $141 $-1 #
edge $-1 $246 -37.596986631414751 $249 37.596986631414751 $242 $354 forward 7 unknown #
coedge $-1 $237 $149 $154 $252 forward $229 $-1 #
coedge $-1 $149 $237 $231 $345 reversed $229 $-1 #
vertex $-1 $150 $355 #
straight-curve $-1 0 37.596986631414751 10.588817747368115 -1 0 0 I I #
coedge $-1 $151 $232 $153 $251 reversed $87 $-1 #
vertex $-1 $243 $356 #
straight-curve $-1 0 -37.596986631414751 10.588817747368115 1 0 0 I I #
edge $-1 $156 -10.588817747368115 $240 10.588817747368115 $153 $357 forward 7 unknown #
edge $-1 $157 -10.588817747368115 $239 10.588817747368115 $154 $358 forward 7 unknown #
point $-1 59.69542527542955 -37.596986631414751 10.588817747368115 #
point $-1 59.69542527542955 37.596986631414751 10.588817747368115 #
face $-1 $-1 $271 $22 $-1 $359 forward single #
plane-surface $-1 -64.181817550233049 -16.419351136678522 0 0 -1 0 0 0 -1 forward_v I I I I #
coedge $-1 $360 $361 $274 $362 forward $160 $-1 #
coedge $-1 $267 $162 $163 $263 reversed $95 $-1 #
coedge $-1 $162 $267 $270 $363 reversed $95 $-1 #
coedge $-1 $361 $360 $162 $261 reversed $160 $-1 #
edge $-1 $364 -10.588817747368115 $365 10.588817747368115 $260 $366 forward 7 unknown #
coedge $-1 $164 $163 $360 $367 forward $61 $-1 #
edge $-1 $265 -4.4863922748034994 $365 4.4863922748035066 $258 $368 forward 7 unknown #
edge $-1 $369 -4.4863922748035066 $172 4.4863922748034994 $169 $370 forward 7 unknown #
vertex $-1 $263 $371 #
straight-curve $-1 -59.69542527542955 0 -10.588817747368115 0 -1 0 I I #
coedge $-1 $259 $258 $166 $268 reversed $95 $-1 #
edge $-1 $272 -10.588817747368115 $265 10.588817747368115 $267 $372 forward 7 unknown #
coedge $-1 $373 $167 $170 $275 forward $271 $-1 #
coedge $-1 $167 $373 $259 $363 forward $271 $-1 #
loop $-1 $-1 $167 $255 #
vertex $-1 $168 $374 #
straight-curve $-1 -59.69542527542955 0 10.588817747368115 0 1 0 I I #
coedge $-1 $170 $169 $257 $362 reversed $171 $-1 #
edge $-1 $173 -4.4863922748034994 $375 4.4863922748035066 $170 $376 forward 7 unknown #
point $-1 -59.69542527542955 -16.419351136678522 -10.588817747368115 #
point $-1 -59.69542527542955 -16.419351136678522 10.588817747368115 #
face $-1 $-1 $292 $23 $-1 $377 forward single #
loop $-1 $-1 $378 $175 #
plane-surface $-1 68.668209825036541 -18.945356315237813 0 -1 0 0 0 0 1 forward_v I I I I #
coedge $-1 $283 $379 $380 $381 forward $176 $-1 #
coedge $-1 $179 $178 $382 $383 forward $65 $-1 #
coedge $-1 $288 $281 $178 $284 reversed $176 $-1 #
edge $-1 $286 -4.4863922748034994 $384 4.4863922748035066 $283 $385 forward 7 unknown #
edge $-1 $386 -4.4863922748035066 $186 4.4863922748034994 $184 $387 forward 7 unknown #
vertex $-1 $284 $388 #
straight-curve $-1 59.69542527542955 0 -10.588817747368115 0 1 0 I I #
coedge $-1 $379 $283 $181 $289 reversed $176 $-1 #
edge $-1 $293 -10.588817747368115 $286 10.588817747368115 $288 $389 forward 7 unknown #
coedge $-1 $390 $182 $185 $296 forward $292 $-1 #
coedge $-1 $182 $390 $379 $391 forward $292 $-1 #
loop $-1 $-1 $182 $278 #
vertex $-1 $183 $392 #
straight-curve $-1 59.69542527542955 0 10.588817747368115 0 -1 0 I I #
coedge $-1 $185 $184 $378 $393 reversed $103 $-1 #
edge $-1 $187 -4.4863922748034994 $394 4.4863922748035066 $185 $395 forward 7 unknown #
point $-1 59.695425275429535 -21.471361493797104 -10.588817747368115 #
point $-1 59.695425275429535 -21.471361493797104 10.588817747368115 #
plane-surface $-1 0 0 10.588817747368115 0 0 1 1 0 0 forward_v I I I I #
coedge $-1 $310 $309 $302 $396 forward $190 $-1 #
coedge $-1 $302 $192 $194 $306 reversed $111 $-1 #
coedge $-1 $192 $301 $300 $396 reversed $111 $-1 #
coedge $-1 $200 $195 $192 $304 forward $201 $-1 #
edge $-1 $307 -4.1669513453924338 $397 6.7944625201563866 $303 $398 forward 7 unknown #
coedge $-1 $194 $193 $310 $399 reversed $69 $-1 #
edge $-1 $400 -75.193973262829502 $307 -60.443935858765343 $301 $401 forward 7 unknown #
vertex $-1 $196 $402 #
straight-curve $-1 18.168866316571187 26.635572765865938 10.588817747368111 1 0 0 I I #
coedge $-1 $300 $197 $200 $314 reversed $190 $-1 #
coedge $-1 $197 $300 $305 $399 forward $190 $-1 #
vertex $-1 $198 $403 #
straight-curve $-1 21.952824540462203 37.596986631414751 69.879198808394705 0 0 1 I I #
straight-curve $-1 21.952824540462203 -18.283024961083413 51.033705685685362 0 0.74314481823134659 -0.66913061440640931 I I #
edge $-1 $397 -50.722640725822544 $202 -21.952824540462203 $309 $404 forward 7 unknown #
point $-1 21.952824540462203 37.596986631414751 10.588817747368115 #
point $-1 21.952824540462203 26.63557276586593 10.588817747368111 #
edge $-1 $405 1 $405 0 $205 $-1 forward 7 unknown #
vertex $-1 $206 $406 #
ellipse-curve $-1 36.337732633142387 30.732786245000394 4.1174418416833722 0 0.66913061440640931 0.74314481823134659 1.5 0 0 1 I I #
point $-1 37.837732633142387 32.116279698640334 5.6539669520186333 #
loop $-1 $-1 $217 $209 #
plane-surface $-1 0 -37.596986631414751 0 0 1 0 0 0 1 forward_v I I I I #
coedge $-1 $324 $212 $214 $328 reversed $126 $-1 #
coedge $-1 $212 $323 $407 $408 reversed $126 $-1 #
coedge $-1 $220 $215 $212 $326 forward $210 $-1 #
edge $-1 $329 -32.106957141641509 $409 -21.145543276092688 $325 $410 forward 7 unknown #
coedge $-1 $214 $213 $332 $411 reversed $78 $-1 #
edge $-1 $412 -1.9103891512089958e-014 $329 14.750037404064138 $323 $413 forward 7 unknown #
vertex $-1 $216 $414 #
straight-curve $-1 18.168866316571187 -26.63557276586593 10.588817747368115 -1 0 0 I I #
coedge $-1 $407 $217 $220 $336 reversed $321 $-1 #
coedge $-1 $217 $407 $327 $411 forward $321 $-1 #
vertex $-1 $218 $415 #
straight-curve $-1 50.722640725822544 -37.596986631414751 44.721904043886603 0 0 1 I I #
straight-curve $-1 50.722640725822544 -37.596986631414737 0.71911615666915907 0 -0.74314481823134659 -0.66913061440640931 I I #
edge $-1 $409 21.952824540462203 $221 50.722640725822544 $331 $416 forward 7 unknown #
point $-1 50.722640725822544 -37.596986631414751 10.588817747368115 #
point $-1 50.722640725822544 -26.63557276586593 10.588817747368115 #
edge $-1 $417 1 $417 0 $224 $-1 forward 7 unknown #
vertex $-1 $225 $418 #
ellipse-curve $-1 36.337732633142387 -30.732786245000401 4.1174418416833705 0 -0.66913061440640931 0.74314481823134659 1.5 0 0 1 I I #
point $-1 37.837732633142387 -32.116279698640341 5.6539669520186315 #
plane-surface $-1 59.69542527542955 0 0 -1 0 0 0 0 1 forward_v I I I I #
coedge $-1 $233 $231 $235 $348 reversed $141 $-1 #
edge $-1 $246 -10.588817747368115 $350 10.588817747368115 $245 $419 forward 7 unknown #
vertex $-1 $348 $420 #
straight-curve $-1 -59.69542527542955 -37.596986631414751 0 0 0 -1 I I #
edge $-1 $346 -37.596986631414751 $350 37.596986631414751 $344 $421 forward 7 unknown #
straight-curve $-1 0 -37.596986631414751 -10.588817747368115 -1 0 0 I I #
vertex $-1 $238 $422 #
straight-curve $-1 0 37.596986631414751 -10.588817747368115 1 0 0 I I #
point $-1 59.69542527542955 37.596986631414751 -10.588817747368115 #
point $-1 59.69542527542955 -37.596986631414751 -10.588817747368115 #
straight-curve $-1 -59.69542527542955 0 10.588817747368115 0 -1 0 I I #
point $-1 -59.69542527542955 37.596986631414751 10.588817747368115 #
point $-1 -59.69542527542955 -37.596986631414751 10.588817747368115 #
straight-curve $-1 59.69542527542955 -37.596986631414751 0 0 0 -1 I I #
straight-curve $-1 59.69542527542955 37.596986631414751 0 0 0 -1 I I #
plane-surface $-1 0 0 10.588817747368115 0 0 1 1 0 0 forward_v I I I I #
coedge $-1 $260 $257 $262 $367 reversed $160 $-1 #
coedge $-1 $257 $260 $373 $423 reversed $160 $-1 #
edge $-1 $375 -10.588817747368115 $369 10.588817747368115 $274 $424 forward 7 unknown #
edge $-1 $364 -4.4863922748035066 $272 4.4863922748034994 $259 $425 forward 7 unknown #
vertex $-1 $423 $426 #
vertex $-1 $367 $427 #
straight-curve $-1 -68.668209825036556 -21.471361493797104 0 0 0 -1 I I #
edge $-1 $365 -2.5260051785592914 $369 2.5260051785592914 $360 $428 forward 7 unknown #
straight-curve $-1 -64.181817550233049 -21.471361493797104 -10.588817747368115 -1 0 0 I I #
vertex $-1 $264 $429 #
straight-curve $-1 -64.181817550233049 -16.419351136678522 -10.588817747368115 1 0 0 I I #
point $-1 -59.69542527542955 -21.471361493797104 -10.588817747368115 #
straight-curve $-1 -59.69542527542955 -21.471361493797104 0 0 0 -1 I I #
coedge $-1 $270 $269 $361 $423 forward $271 $-1 #
point $-1 -59.69542527542955 -21.471361493797104 10.588817747368115 #
vertex $-1 $275 $430 #
straight-curve $-1 -64.181817550233049 -16.419351136678522 10.588817747368115 -1 0 0 I I #
plane-surface $-1 0 0 10.588817747368115 0 0 1 1 0 0 forward_v I I I I #
coedge $-1 $382 $431 $295 $393 forward $279 $-1 #
coedge $-1 $281 $288 $291 $391 reversed $176 $-1 #
coedge $-1 $431 $382 $281 $381 reversed $279 $-1 #
edge $-1 $432 -10.588817747368115 $384 10.588817747368115 $380 $433 forward 7 unknown #
coedge $-1 $380 $378 $282 $383 reversed $279 $-1 #
edge $-1 $384 -2.5260051785592914 $386 2.5260051785592914 $382 $434 forward 7 unknown #
vertex $-1 $383 $435 #
straight-curve $-1 64.181817550233035 -16.419351136678522 -10.588817747368115 1 0 0 I I #
vertex $-1 $393 $436 #
straight-curve $-1 64.181817550233035 -21.471361493797104 -10.588817747368115 -1 0 0 I I #
point $-1 59.695425275429535 -16.419351136678522 -10.588817747368115 #
straight-curve $-1 59.69542527542955 -16.419351136678522 0 0 0 -1 I I #
coedge $-1 $291 $290 $431 $437 forward $292 $-1 #
edge $-1 $432 -4.4863922748035066 $293 4.4863922748034994 $379 $438 forward 7 unknown #
point $-1 59.695425275429535 -16.419351136678522 10.588817747368115 #
edge $-1 $394 -10.588817747368115 $386 10.588817747368115 $378 $439 forward 7 unknown #
vertex $-1 $437 $440 #
straight-curve $-1 64.181817550233035 -21.471361493797104 10.588817747368115 1 0 0 I I #
edge $-1 $397 59.290381061026594 $400 69.16008265172556 $300 $441 forward 7 unknown #
vertex $-1 $314 $442 #
straight-curve $-1 50.722640725822544 30.802524111258364 10.588817747368111 0 1 0 I I #
edge $-1 $400 -32.553774409251361 $311 -3.7839582238910161 $310 $443 forward 7 unknown #
vertex $-1 $399 $444 #
straight-curve $-1 50.722640725822544 -18.283024961083413 51.033705685685362 0 -0.74314481823134659 0.66913061440640931 I I #
point $-1 50.722640725822544 26.63557276586593 10.588817747368111 #
point $-1 21.952824540462203 37.596986631414751 0.71911615666914486 #
straight-curve $-1 0 37.596986631414751 10.588817747368115 -1 0 0 I I #
vertex $-1 $317 $445 #
point $-1 37.837732633142387 30.732786245000394 4.1174418416833722 #
coedge $-1 $332 $331 $324 $408 forward $321 $-1 #
edge $-1 $409 34.133086296518485 $412 44.002787887217458 $407 $446 forward 7 unknown #
vertex $-1 $336 $447 #
straight-curve $-1 21.952824540462203 -58.742529907507439 10.588817747368111 0 -1 0 I I #
edge $-1 $412 3.7839582238910161 $333 32.553774409251361 $332 $448 forward 7 unknown #
vertex $-1 $411 $449 #
straight-curve $-1 21.952824540462203 -37.596986631414737 0.71911615666915907 0 0.74314481823134659 0.66913061440640931 I I #
point $-1 21.952824540462203 -26.63557276586593 10.588817747368115 #
point $-1 50.722640725822544 -37.596986631414751 0.7191161566691463 #
straight-curve $-1 0 -37.596986631414751 10.588817747368115 1 0 0 I I #
vertex $-1 $339 $450 #
point $-1 37.837732633142387 -30.732786245000401 4.1174418416833705 #
straight-curve $-1 -59.69542527542955 37.596986631414751 0 0 0 -1 I I #
point $-1 -59.69542527542955 -37.596986631414751 -10.588817747368115 #
straight-curve $-1 -59.69542527542955 0 -10.588817747368115 0 1 0 I I #
point $-1 -59.69542527542955 37.596986631414751 -10.588817747368115 #
edge $-1 $375 -2.5260051785592914 $364 2.5260051785592914 $361 $451 forward 7 unknown #
straight-curve $-1 -68.668209825036556 -16.419351136678522 0 0 0 -1 I I #
straight-curve $-1 -64.181817550233049 -21.471361493797104 10.588817747368115 1 0 0 I I #
point $-1 -68.668209825036556 -21.471361493797104 10.588817747368115 #
point $-1 -68.668209825036556 -21.471361493797104 -10.588817747368115 #
straight-curve $-1 -68.668209825036556 -18.945356315237813 -10.588817747368115 0 1 0 I I #
point $-1 -68.668209825036556 -16.419351136678522 -10.588817747368115 #
point $-1 -68.668209825036556 -16.419351136678522 10.588817747368115 #
coedge $-1 $378 $380 $390 $437 reversed $279 $-1 #
vertex $-1 $437 $452 #
straight-curve $-1 68.668209825036541 -16.419351136678522 0 0 0 -1 I I #
straight-curve $-1 68.668209825036541 -18.945356315237813 -10.588817747368115 0 -1 0 I I #
point $-1 68.668209825036541 -16.419351136678522 -10.588817747368115 #
point $-1 68.668209825036541 -21.471361493797104 -10.588817747368115 #
edge $-1 $394 -2.5260051785592914 $432 2.5260051785592914 $431 $453 forward 7 unknown #
straight-curve $-1 64.181817550233035 -16.419351136678522 10.588817747368115 -1 0 0 I I #
straight-curve $-1 68.668209825036541 -21.471361493797104 0 0 0 -1 I I #
point $-1 68.668209825036541 -21.471361493797104 10.588817747368115 #
straight-curve $-1 50.722640725822544 37.596986631414751 69.879198808394705 0 0 -1 I I #
point $-1 50.722640725822544 37.596986631414751 10.588817747368115 #
straight-curve $-1 18.168866316571187 37.596986631414751 0.71911615666914486 -1 0 0 I I #
point $-1 50.722640725822544 37.596986631414751 0.71911615666914486 #
point $-1 36.337732633142387 29.729090323390782 3.0027246143363522 #
straight-curve $-1 21.952824540462203 -37.596986631414751 44.721904043886603 0 0 -1 I I #
point $-1 21.952824540462203 -37.596986631414751 10.588817747368115 #
straight-curve $-1 18.168866316571187 -37.596986631414751 0.71911615666914697 1 0 0 I I #
point $-1 21.952824540462203 -37.596986631414751 0.7191161566691463 #
point $-1 36.337732633142387 -29.729090323390789 3.0027246143363504 #
straight-curve $-1 -68.668209825036556 -18.945356315237813 10.588817747368115 0 -1 0 I I #
point $-1 68.668209825036541 -16.419351136678522 10.588817747368115 #
straight-curve $-1 68.668209825036541 -18.945356315237813 10.588817747368115 0 1 0 I I #
End-of-ACIS-data 