500 0 10 0           
7 Unknown 11 ACIS 5.0 NT 24 Fri Mar 26 18:39:43 1999 
-1 9.9999999999999995e-007 1e-010 
body $-1 $10 $-1 $11 #
body $-1 $12 $-1 $13 #
body $-1 $14 $-1 $15 #
body $-1 $16 $-1 $17 #
body $-1 $18 $-1 $19 #
body $-1 $20 $-1 $21 #
body $-1 $22 $-1 $23 #
body $-1 $24 $-1 $25 #
body $-1 $26 $-1 $27 #
body $-1 $28 $-1 $29 #
lump $-1 $-1 $30 $0 #
transform $-1 1 0 0 0 1 0 0 0 1 45.832697531052581 26.637851345900405 9.1211898652872705 1 rotate no_reflect no_shear #
lump $-1 $-1 $31 $1 #
transform $-1 1 0 0 0 1 0 0 0 1 45.832697531052581 26.637851345900405 9.1211898652872705 1 rotate no_reflect no_shear #
lump $-1 $-1 $32 $2 #
transform $-1 1 0 0 0 1 0 0 0 1 45.832697531052581 26.637851345900405 9.1211898652872705 1 rotate no_reflect no_shear #
lump $-1 $-1 $33 $3 #
transform $-1 1 0 0 0 1 0 0 0 1 45.832697531052581 26.637851345900405 9.1211898652872705 1 rotate no_reflect no_shear #
lump $-1 $-1 $34 $4 #
transform $-1 1 0 0 0 1 0 0 0 1 45.832697531052581 26.637851345900405 9.1211898652872705 1 rotate no_reflect no_shear #
lump $-1 $-1 $35 $5 #
transform $-1 1 0 0 0 1 0 0 0 1 45.832697531052581 26.637851345900405 9.1211898652872705 1 rotate no_reflect no_shear #
lump $-1 $-1 $36 $6 #
transform $-1 1 0 0 0 1 0 0 0 1 45.832697531052581 26.637851345900405 9.1211898652872705 1 rotate no_reflect no_shear #
lump $-1 $-1 $37 $7 #
transform $-1 1 0 0 0 1 0 0 0 1 45.832697531052581 26.637851345900405 9.1211898652872705 1 rotate no_reflect no_shear #
lump $-1 $-1 $38 $8 #
transform $-1 1 0 0 0 1 0 0 0 1 45.832697531052581 26.637851345900405 9.1211898652872705 1 rotate no_reflect no_shear #
lump $-1 $-1 $39 $9 #
transform $-1 1 0 0 0 1 0 0 0 1 45.832697531052581 26.637851345900405 9.1211898652872705 1 rotate no_reflect no_shear #
shell $-1 $-1 $-1 $40 $-1 $10 #
shell $-1 $-1 $-1 $41 $-1 $12 #
shell $-1 $-1 $-1 $42 $-1 $14 #
shell $-1 $-1 $-1 $43 $-1 $16 #
shell $-1 $-1 $-1 $44 $-1 $18 #
shell $-1 $-1 $-1 $45 $-1 $20 #
shell $-1 $-1 $-1 $46 $-1 $22 #
shell $-1 $-1 $-1 $47 $-1 $24 #
shell $-1 $-1 $-1 $48 $-1 $26 #
shell $-1 $-1 $-1 $49 $-1 $28 #
face $-1 $50 $51 $30 $-1 $52 forward single #
face $-1 $53 $54 $31 $-1 $55 forward single #
face $-1 $56 $57 $32 $-1 $58 reversed single #
face $-1 $59 $60 $33 $-1 $61 forward single #
face $-1 $62 $63 $34 $-1 $64 reversed single #
face $-1 $65 $66 $35 $-1 $67 forward single #
face $-1 $68 $69 $36 $-1 $70 reversed single #
face $-1 $71 $72 $37 $-1 $73 forward single #
face $-1 $74 $75 $38 $-1 $76 reversed single #
face $-1 $77 $78 $39 $-1 $79 forward single #
face $-1 $80 $81 $30 $-1 $82 reversed single #
loop $-1 $-1 $83 $40 #
plane-surface $-1 0 0 9.1211898652872705 0 0 1 1 0 0 forward_v I I I I #
face $-1 $84 $85 $31 $-1 $86 reversed single #
loop $-1 $-1 $87 $41 #
plane-surface $-1 -40.428269359304565 0 -5.8660438327943272 0 0 1 1 0 0 forward_v I I I I #
face $-1 $88 $89 $32 $-1 $90 reversed single #
loop $-1 $-1 $91 $42 #
plane-surface $-1 -18.770122103357643 -83.072704413866475 76.472399726502715 1 0 0 0 0.61566148304635926 -0.78801074757464917 forward_v I I I I #
face $-1 $92 $93 $33 $-1 $94 forward single #
loop $-1 $95 $96 $43 #
cone-surface $-1 -11.923645828805533 -22.949858072439447 5.958777367186741 0 0.61566148304635926 -0.78801074757464917 1.5 0 0 1 I I 0 1 1.5 forward I I I I #
face $-1 $97 $98 $34 $-1 $99 reversed single #
loop $-1 $-1 $100 $44 #
plane-surface $-1 15.886025897749448 -83.072704413866475 76.472399726502715 1 0 0 0 0.61566148304635926 -0.78801074757464917 forward_v I I I I #
face $-1 $101 $102 $35 $-1 $103 forward single #
loop $-1 $104 $105 $45 #
cone-surface $-1 22.732502172301558 -22.949858072439447 5.958777367186741 0 0.61566148304635926 -0.78801074757464917 1.5 0 0 1 I I 0 1 1.5 forward I I I I #
face $-1 $106 $107 $36 $-1 $108 reversed single #
loop $-1 $-1 $109 $46 #
plane-surface $-1 -18.770122103357643 41.090878108135769 109.27219785607372 1 0 0 0 -0.61566148304635926 -0.78801074757464917 forward_v I I I I #
face $-1 $110 $111 $37 $-1 $112 forward single #
loop $-1 $113 $114 $47 #
cone-surface $-1 -11.923645828805533 22.949858072439451 5.958777367186741 0 -0.61566148304635926 -0.78801074757464917 1.5 0 0 1 I I 0 1 1.5 forward I I I I #
face $-1 $115 $116 $38 $-1 $117 reversed single #
loop $-1 $-1 $118 $48 #
plane-surface $-1 15.886025897749448 41.090878108135769 109.27219785607372 1 0 0 0 -0.61566148304635926 -0.78801074757464917 forward_v I I I I #
face $-1 $119 $120 $39 $-1 $121 forward single #
loop $-1 $122 $123 $49 #
cone-surface $-1 22.732502172301558 22.949858072439451 5.958777367186741 0 -0.61566148304635926 -0.78801074757464917 1.5 0 0 1 I I 0 1 1.5 forward I I I I #
face $-1 $124 $125 $30 $-1 $126 reversed single #
loop $-1 $-1 $127 $50 #
plane-surface $-1 0 0 -9.1211898652872705 0 0 1 1 0 0 forward_v I I I I #
coedge $-1 $128 $129 $130 $131 forward $51 $-1 #
face $-1 $132 $133 $31 $-1 $134 reversed single #
loop $-1 $-1 $135 $53 #
plane-surface $-1 -35.023841187556549 0 -7.4936168490407988 -1 0 0 0 0 1 forward_v I I I I #
coedge $-1 $136 $137 $138 $139 forward $54 $-1 #
face $-1 $140 $141 $32 $-1 $142 reversed single #
loop $-1 $-1 $143 $56 #
plane-surface $-1 -11.923645828805533 -26.637851345900394 4.2390832368876659 0 -0.61566148304635926 0.78801074757464917 1 0 0 forward_v I I I I #
coedge $-1 $144 $145 $146 $147 reversed $57 $-1 #
face $-1 $-1 $148 $33 $-1 $149 forward single #
loop $-1 $150 $151 $59 #
cone-surface $-1 -11.923645828805533 -21.924524386842592 4.646410122605019 0 0.61566148304635926 -0.78801074757464917 0.75 0 0 1 I I -0.70710678118654757 0.70710678118654757 0.75 forward I I I I #
loop $-1 $-1 $152 $43 #
coedge $-1 $96 $96 $153 $154 reversed $60 $-1 #
face $-1 $155 $156 $34 $-1 $157 reversed single #
loop $-1 $-1 $158 $62 #
plane-surface $-1 22.732502172301558 -26.637851345900394 4.2390832368876659 0 -0.61566148304635926 0.78801074757464917 1 0 0 forward_v I I I I #
coedge $-1 $159 $160 $161 $162 reversed $63 $-1 #
face $-1 $-1 $163 $35 $-1 $164 forward single #
loop $-1 $165 $166 $65 #
cone-surface $-1 22.732502172301558 -21.924524386842592 4.646410122605019 0 0.61566148304635926 -0.78801074757464917 0.75 0 0 1 I I -0.70710678118654757 0.70710678118654757 0.75 forward I I I I #
loop $-1 $-1 $167 $45 #
coedge $-1 $105 $105 $168 $169 reversed $66 $-1 #
face $-1 $170 $171 $36 $-1 $172 reversed single #
loop $-1 $-1 $173 $68 #
plane-surface $-1 -11.923645828805533 -15.343974959830312 37.038881366458668 0 0.61566148304635926 0.78801074757464917 1 0 0 forward_v I I I I #
coedge $-1 $174 $175 $176 $177 reversed $69 $-1 #
face $-1 $-1 $178 $37 $-1 $179 forward single #
loop $-1 $180 $181 $71 #
cone-surface $-1 -11.923645828805533 21.924524386842595 4.646410122605019 0 -0.61566148304635926 -0.78801074757464917 0.75 0 0 1 I I -0.70710678118654757 0.70710678118654757 0.75 forward I I I I #
loop $-1 $-1 $182 $47 #
coedge $-1 $114 $114 $183 $184 reversed $72 $-1 #
face $-1 $185 $186 $38 $-1 $187 reversed single #
loop $-1 $-1 $188 $74 #
plane-surface $-1 22.732502172301558 -15.343974959830312 37.038881366458668 0 0.61566148304635926 0.78801074757464917 1 0 0 forward_v I I I I #
coedge $-1 $189 $190 $191 $192 reversed $75 $-1 #
face $-1 $-1 $193 $39 $-1 $194 forward single #
loop $-1 $195 $196 $77 #
cone-surface $-1 22.732502172301558 21.924524386842595 4.646410122605019 0 -0.61566148304635926 -0.78801074757464917 0.75 0 0 1 I I -0.70710678118654757 0.70710678118654757 0.75 forward I I I I #
loop $-1 $-1 $197 $49 #
coedge $-1 $123 $123 $198 $199 reversed $78 $-1 #
face $-1 $200 $201 $30 $-1 $202 reversed single #
loop $-1 $-1 $203 $80 #
plane-surface $-1 0 -26.637851345900405 0 0 1 0 0 0 1 forward_v I I I I #
coedge $-1 $204 $205 $206 $207 forward $81 $-1 #
coedge $-1 $208 $83 $209 $210 forward $51 $-1 #
coedge $-1 $83 $208 $211 $212 forward $51 $-1 #
coedge $-1 $213 $214 $83 $131 reversed $215 $-1 #
edge $-1 $216 -26.637851345900405 $217 26.637851345900405 $130 $218 forward 7 unknown #
face $-1 $219 $220 $31 $-1 $221 reversed single #
loop $-1 $-1 $222 $84 #
plane-surface $-1 0 0 -9.1211898652872705 0 0 1 1 0 0 forward_v I I I I #
coedge $-1 $223 $138 $224 $225 reversed $85 $-1 #
coedge $-1 $226 $87 $227 $228 reversed $54 $-1 #
coedge $-1 $87 $226 $229 $230 reversed $54 $-1 #
coedge $-1 $135 $231 $87 $139 reversed $85 $-1 #
edge $-1 $232 -26.637851345900405 $233 26.637851345900405 $138 $234 forward 7 unknown #
face $-1 $235 $236 $32 $-1 $237 forward single #
loop $-1 $-1 $238 $88 #
plane-surface $-1 -5.0771695542534232 -83.072704413866475 76.472399726502715 -1 0 0 0 -0.61566148304635926 0.78801074757464917 forward_v I I I I #
coedge $-1 $239 $240 $241 $242 reversed $89 $-1 #
coedge $-1 $145 $91 $243 $244 reversed $57 $-1 #
coedge $-1 $91 $144 $239 $245 reversed $57 $-1 #
coedge $-1 $241 $246 $91 $147 forward $247 $-1 #
edge $-1 $248 29.115009997964087 $249 33.997116626363699 $146 $250 forward 7 unknown #
loop $-1 $-1 $153 $92 #
plane-surface $-1 -11.923645828805533 -26.637851345900394 4.2390832368876659 0 -0.61566148304635926 0.78801074757464917 1 0 0 forward_v I I I I #
loop $-1 $-1 $251 $59 #
coedge $-1 $151 $151 $152 $252 reversed $93 $-1 #
coedge $-1 $152 $152 $151 $252 forward $95 $-1 #
coedge $-1 $153 $153 $96 $154 forward $148 $-1 #
edge $-1 $253 1.327198621809248e-015 $253 6.2831853071796013 $153 $254 forward 7 unknown #
face $-1 $255 $256 $34 $-1 $257 reversed single #
loop $-1 $-1 $258 $97 #
plane-surface $-1 29.578978446853668 -83.072704413866475 76.472399726502715 -1 0 0 0 -0.61566148304635926 0.78801074757464917 forward_v I I I I #
coedge $-1 $259 $260 $261 $262 reversed $98 $-1 #
coedge $-1 $160 $100 $263 $264 reversed $63 $-1 #
coedge $-1 $100 $159 $259 $265 reversed $63 $-1 #
coedge $-1 $261 $266 $100 $162 forward $256 $-1 #
edge $-1 $267 29.115009997964087 $268 33.997116626363699 $161 $269 forward 7 unknown #
loop $-1 $-1 $168 $101 #
plane-surface $-1 22.732502172301558 -26.637851345900394 4.2390832368876659 0 -0.61566148304635926 0.78801074757464917 1 0 0 forward_v I I I I #
loop $-1 $-1 $270 $65 #
coedge $-1 $166 $166 $167 $271 reversed $102 $-1 #
coedge $-1 $167 $167 $166 $271 forward $104 $-1 #
coedge $-1 $168 $168 $105 $169 forward $163 $-1 #
edge $-1 $272 1.327198621809248e-015 $272 6.2831853071796013 $168 $273 forward 7 unknown #
face $-1 $274 $275 $36 $-1 $276 reversed single #
loop $-1 $-1 $277 $106 #
plane-surface $-1 -5.0771695542534232 41.090878108135769 109.27219785607372 -1 0 0 0 0.61566148304635926 0.78801074757464917 forward_v I I I I #
coedge $-1 $278 $279 $280 $281 reversed $107 $-1 #
coedge $-1 $175 $109 $282 $283 reversed $69 $-1 #
coedge $-1 $109 $174 $278 $284 reversed $69 $-1 #
coedge $-1 $280 $285 $109 $177 forward $286 $-1 #
edge $-1 $287 -6.0924122918325203 $288 0.15639910846525851 $176 $289 forward 7 unknown #
loop $-1 $-1 $183 $110 #
plane-surface $-1 -11.923645828805533 -15.343974959830312 37.038881366458668 0 0.61566148304635926 0.78801074757464917 1 0 0 forward_v I I I I #
loop $-1 $-1 $290 $71 #
coedge $-1 $181 $181 $182 $291 reversed $111 $-1 #
coedge $-1 $182 $182 $181 $291 forward $113 $-1 #
coedge $-1 $183 $183 $114 $184 forward $178 $-1 #
edge $-1 $292 -9.6265379308767956e-016 $292 6.2831853071795996 $183 $293 forward 7 unknown #
face $-1 $294 $295 $38 $-1 $296 forward single #
loop $-1 $-1 $297 $115 #
plane-surface $-1 29.578978446853668 41.090878108135769 109.27219785607372 -1 0 0 0 0.61566148304635926 0.78801074757464917 forward_v I I I I #
coedge $-1 $298 $299 $300 $301 reversed $116 $-1 #
coedge $-1 $190 $118 $302 $303 reversed $75 $-1 #
coedge $-1 $118 $189 $298 $304 reversed $75 $-1 #
coedge $-1 $300 $305 $118 $192 forward $295 $-1 #
edge $-1 $306 -6.0924122918325203 $307 0.15639910846525851 $191 $308 forward 7 unknown #
loop $-1 $-1 $198 $119 #
plane-surface $-1 22.732502172301558 -15.343974959830312 37.038881366458668 0 0.61566148304635926 0.78801074757464917 1 0 0 forward_v I I I I #
loop $-1 $-1 $309 $77 #
coedge $-1 $196 $196 $197 $310 reversed $120 $-1 #
coedge $-1 $197 $197 $196 $310 forward $122 $-1 #
coedge $-1 $198 $198 $123 $199 forward $193 $-1 #
edge $-1 $311 -9.6265379308767956e-016 $311 6.2831853071795996 $198 $312 forward 7 unknown #
face $-1 $313 $314 $30 $-1 $315 reversed single #
loop $-1 $-1 $316 $124 #
plane-surface $-1 -45.832697531052581 0 0 1 0 0 0 0 -1 forward_v I I I I #
coedge $-1 $317 $211 $318 $319 forward $125 $-1 #
coedge $-1 $320 $127 $317 $321 forward $81 $-1 #
coedge $-1 $127 $320 $322 $323 forward $81 $-1 #
coedge $-1 $214 $213 $127 $207 reversed $215 $-1 #
edge $-1 $324 -26.637851345900405 $325 26.637851345900405 $206 $326 forward 7 unknown #
coedge $-1 $129 $128 $327 $328 forward $51 $-1 #
coedge $-1 $329 $330 $128 $210 reversed $314 $-1 #
edge $-1 $217 -45.832697531052581 $331 45.832697531052581 $209 $332 forward 7 unknown #
coedge $-1 $203 $333 $129 $212 reversed $125 $-1 #
edge $-1 $334 -45.832697531052581 $216 45.832697531052581 $211 $335 forward 7 unknown #
coedge $-1 $206 $130 $333 $336 forward $215 $-1 #
coedge $-1 $130 $206 $329 $337 reversed $215 $-1 #
loop $-1 $-1 $213 $313 #
vertex $-1 $131 $338 #
vertex $-1 $131 $339 #
straight-curve $-1 45.832697531052581 0 9.1211898652872705 0 1 0 I I #
face $-1 $340 $341 $31 $-1 $342 reversed single #
loop $-1 $-1 $224 $132 #
plane-surface $-1 0 -26.637851345900405 0 0 1 0 0 0 1 forward_v I I I I #
coedge $-1 $343 $344 $223 $345 forward $133 $-1 #
coedge $-1 $231 $135 $222 $345 reversed $85 $-1 #
coedge $-1 $229 $346 $135 $225 forward $220 $-1 #
edge $-1 $347 -5.3743814407668715 $232 -2.1192354082739278 $224 $348 forward 7 unknown #
coedge $-1 $137 $136 $349 $350 reversed $54 $-1 #
coedge $-1 $351 $352 $136 $228 forward $353 $-1 #
edge $-1 $354 -25.618562851400299 $233 -14.809706507904266 $227 $355 forward 7 unknown #
coedge $-1 $356 $224 $137 $230 forward $220 $-1 #
edge $-1 $232 14.809706507904266 $357 25.618562851400299 $229 $358 forward 7 unknown #
coedge $-1 $138 $223 $351 $359 reversed $85 $-1 #
vertex $-1 $230 $360 #
vertex $-1 $228 $361 #
straight-curve $-1 -35.023841187556549 0 -5.8660438327943272 0 1 0 I I #
face $-1 $-1 $247 $32 $-1 $362 reversed single #
loop $-1 $-1 $363 $140 #
plane-surface $-1 0 0 9.1211898652872705 0 0 1 1 0 0 forward_v I I I I #
coedge $-1 $364 $365 $366 $367 reversed $141 $-1 #
coedge $-1 $368 $143 $145 $245 forward $89 $-1 #
coedge $-1 $143 $368 $364 $369 forward $89 $-1 #
coedge $-1 $366 $146 $143 $242 forward $247 $-1 #
edge $-1 $249 -12.808299188954877 $370 0.88465336014934337 $241 $371 forward 7 unknown #
coedge $-1 $372 $373 $144 $244 forward $236 $-1 #
edge $-1 $374 -21.147312261330615 $248 -14.898500861032833 $243 $375 forward 7 unknown #
edge $-1 $249 -1.3320084873591951e-014 $374 7.9298555502325989 $145 $376 forward 7 unknown #
coedge $-1 $146 $366 $372 $377 reversed $247 $-1 #
loop $-1 $-1 $366 $235 #
vertex $-1 $377 $378 #
vertex $-1 $147 $379 #
straight-curve $-1 -18.770122103357643 -26.637851345900405 38.236199863251358 0 0 -1 I I #
coedge $-1 $251 $251 $-1 $380 reversed $150 $-1 #
edge $-1 $381 0 $381 6.2831853071796004 $151 $382 forward 7 unknown #
vertex $-1 $154 $383 #
ellipse-curve $-1 -11.923645828805533 -23.513445645751521 6.6801365510874602 0 -0.61566148304635926 0.78801074757464917 1.5 0 0 1 I I #
face $-1 $-1 $384 $34 $-1 $385 forward single #
loop $-1 $-1 $161 $155 #
plane-surface $-1 0 -26.637851345900405 0 0 1 0 0 0 1 forward_v I I I I #
coedge $-1 $386 $387 $388 $389 reversed $156 $-1 #
coedge $-1 $390 $158 $160 $265 forward $98 $-1 #
coedge $-1 $158 $390 $386 $391 forward $98 $-1 #
coedge $-1 $388 $161 $158 $262 forward $256 $-1 #
edge $-1 $268 4.5197748115986691 $392 18.212727360702889 $261 $393 forward 7 unknown #
coedge $-1 $394 $395 $159 $264 forward $384 $-1 #
edge $-1 $396 -21.147312261330615 $267 -14.898500861032833 $263 $397 forward 7 unknown #
edge $-1 $268 -1.3320084873591951e-014 $396 7.9298555502325989 $160 $398 forward 7 unknown #
coedge $-1 $161 $388 $394 $399 reversed $256 $-1 #
vertex $-1 $399 $400 #
vertex $-1 $162 $401 #
straight-curve $-1 15.886025897749448 -26.637851345900405 38.236199863251358 0 0 -1 I I #
coedge $-1 $270 $270 $-1 $402 reversed $165 $-1 #
edge $-1 $403 0 $403 6.2831853071796004 $166 $404 forward 7 unknown #
vertex $-1 $169 $405 #
ellipse-curve $-1 22.732502172301558 -23.513445645751521 6.6801365510874602 0 -0.61566148304635926 0.78801074757464917 1.5 0 0 1 I I #
face $-1 $-1 $286 $36 $-1 $406 forward single #
loop $-1 $-1 $407 $170 #
plane-surface $-1 0 26.637851345900405 0 0 -1 0 0 0 -1 forward_v I I I I #
coedge $-1 $408 $409 $410 $411 reversed $171 $-1 #
coedge $-1 $412 $173 $175 $284 forward $107 $-1 #
coedge $-1 $173 $412 $408 $413 forward $107 $-1 #
coedge $-1 $410 $176 $173 $281 forward $286 $-1 #
edge $-1 $288 -12.808299188954877 $414 0.88465336014934337 $280 $415 forward 7 unknown #
coedge $-1 $416 $417 $174 $283 forward $275 $-1 #
edge $-1 $418 -50.397015691149207 $287 -45.514909062749588 $282 $419 forward 7 unknown #
edge $-1 $288 45.345847141568214 $418 53.275702691800831 $175 $420 forward 7 unknown #
coedge $-1 $176 $410 $416 $421 forward $286 $-1 #
loop $-1 $-1 $410 $274 #
vertex $-1 $283 $422 #
vertex $-1 $177 $423 #
straight-curve $-1 -18.770122103357643 20.545439054067884 9.1211898652872705 0 -1 0 I I #
coedge $-1 $290 $290 $-1 $424 reversed $180 $-1 #
edge $-1 $425 0 $425 6.2831853071796004 $181 $426 forward 7 unknown #
vertex $-1 $184 $427 #
ellipse-curve $-1 -11.923645828805533 23.513445645751524 6.6801365510874611 0 0.61566148304635926 0.78801074757464917 1.5 0 0 1 I I #
face $-1 $-1 $428 $38 $-1 $429 reversed single #
loop $-1 $-1 $191 $185 #
plane-surface $-1 0 0 9.1211898652872705 0 0 1 1 0 0 forward_v I I I I #
coedge $-1 $430 $431 $432 $433 reversed $186 $-1 #
coedge $-1 $434 $188 $190 $304 forward $116 $-1 #
coedge $-1 $188 $434 $430 $435 forward $116 $-1 #
coedge $-1 $432 $191 $188 $301 forward $295 $-1 #
edge $-1 $307 4.5197748115986691 $436 18.212727360702889 $300 $437 forward 7 unknown #
coedge $-1 $438 $439 $189 $303 forward $428 $-1 #
edge $-1 $440 -50.397015691149207 $306 -45.514909062749588 $302 $441 forward 7 unknown #
edge $-1 $307 45.345847141568214 $440 53.275702691800831 $190 $442 forward 7 unknown #
coedge $-1 $191 $432 $438 $443 forward $295 $-1 #
vertex $-1 $303 $444 #
vertex $-1 $192 $445 #
straight-curve $-1 15.886025897749448 20.545439054067884 9.1211898652872705 0 -1 0 I I #
coedge $-1 $309 $309 $-1 $446 reversed $195 $-1 #
edge $-1 $447 0 $447 6.2831853071796004 $196 $448 forward 7 unknown #
vertex $-1 $199 $449 #
ellipse-curve $-1 22.732502172301558 23.513445645751524 6.6801365510874611 0 0.61566148304635926 0.78801074757464917 1.5 0 0 1 I I #
face $-1 $-1 $215 $30 $-1 $450 reversed single #
loop $-1 $-1 $329 $200 #
plane-surface $-1 0 26.637851345900405 0 0 -1 0 0 0 -1 forward_v I I I I #
coedge $-1 $451 $327 $330 $452 forward $201 $-1 #
coedge $-1 $333 $203 $204 $321 reversed $125 $-1 #
coedge $-1 $327 $451 $203 $319 reversed $201 $-1 #
edge $-1 $334 -9.1211898652872705 $453 9.1211898652872705 $318 $454 forward 7 unknown #
coedge $-1 $205 $204 $451 $455 forward $81 $-1 #
edge $-1 $325 -45.832697531052581 $453 45.832697531052581 $317 $456 forward 7 unknown #
coedge $-1 $330 $329 $205 $323 reversed $314 $-1 #
edge $-1 $457 -45.832697531052581 $324 45.832697531052581 $322 $458 forward 7 unknown #
vertex $-1 $207 $459 #
vertex $-1 $336 $460 #
straight-curve $-1 45.832697531052581 0 -9.1211898652872705 0 -1 0 I I #
coedge $-1 $316 $318 $208 $328 reversed $201 $-1 #
edge $-1 $331 -26.637851345900405 $334 26.637851345900405 $327 $461 forward 7 unknown #
coedge $-1 $322 $209 $214 $337 forward $314 $-1 #
coedge $-1 $209 $322 $316 $452 reversed $314 $-1 #
vertex $-1 $210 $462 #
straight-curve $-1 0 26.637851345900405 9.1211898652872705 -1 0 0 I I #
coedge $-1 $211 $317 $213 $336 reversed $125 $-1 #
vertex $-1 $328 $463 #
straight-curve $-1 0 -26.637851345900405 9.1211898652872705 1 0 0 I I #
edge $-1 $216 -9.1211898652872705 $325 9.1211898652872705 $213 $464 forward 7 unknown #
edge $-1 $217 -9.1211898652872705 $324 9.1211898652872705 $214 $465 forward 7 unknown #
point $-1 45.832697531052581 -26.637851345900405 9.1211898652872705 #
point $-1 45.832697531052581 26.637851345900405 9.1211898652872705 #
face $-1 $-1 $353 $31 $-1 $466 reversed single #
loop $-1 $-1 $349 $219 #
plane-surface $-1 -45.832697531052581 0 0 1 0 0 0 0 -1 forward_v I I I I #
coedge $-1 $467 $222 $346 $468 forward $133 $-1 #
coedge $-1 $222 $467 $469 $470 forward $133 $-1 #
edge $-1 $471 -26.637851345900405 $347 26.637851345900405 $222 $472 forward 7 unknown #
coedge $-1 $224 $356 $343 $468 reversed $220 $-1 #
vertex $-1 $468 $473 #
straight-curve $-1 -35.023841187556549 -26.637851345900405 -3.7468084245203994 0 0 1 I I #
coedge $-1 $474 $475 $226 $350 forward $341 $-1 #
edge $-1 $357 -26.637851345900405 $354 26.637851345900405 $349 $476 forward 7 unknown #
coedge $-1 $469 $227 $231 $359 forward $353 $-1 #
coedge $-1 $227 $469 $474 $477 reversed $353 $-1 #
loop $-1 $-1 $351 $340 #
vertex $-1 $477 $478 #
straight-curve $-1 -20.214134679652283 26.637851345900405 -5.8660438327943272 1 0 0 I I #
coedge $-1 $346 $229 $475 $479 forward $220 $-1 #
vertex $-1 $479 $480 #
straight-curve $-1 -20.214134679652283 -26.637851345900405 -5.8660438327943272 -1 0 0 I I #
edge $-1 $233 2.1192354082739278 $471 5.3743814407668715 $351 $481 forward 7 unknown #
point $-1 -35.023841187556549 -26.637851345900405 -5.8660438327943272 #
point $-1 -35.023841187556549 26.637851345900405 -5.8660438327943272 #
plane-surface $-1 0 -26.637851345900405 0 0 1 0 0 0 1 forward_v I I I I #
coedge $-1 $373 $372 $365 $482 forward $236 $-1 #
coedge $-1 $365 $238 $240 $369 reversed $141 $-1 #
coedge $-1 $238 $364 $363 $482 reversed $141 $-1 #
coedge $-1 $246 $241 $238 $367 forward $247 $-1 #
edge $-1 $370 -33.997116626363699 $483 -29.115009997964087 $366 $484 forward 7 unknown #
coedge $-1 $240 $239 $373 $485 reversed $89 $-1 #
edge $-1 $486 -7.9298555502325989 $370 1.3320084873591951e-014 $364 $487 forward 7 unknown #
vertex $-1 $242 $488 #
straight-curve $-1 -5.9618229144027666 -26.637851345900405 4.2390832368876588 1 0 0 I I #
coedge $-1 $363 $243 $246 $377 forward $236 $-1 #
coedge $-1 $243 $363 $368 $485 forward $236 $-1 #
vertex $-1 $244 $489 #
straight-curve $-1 -18.770122103357643 -41.536352206933238 9.1211898652872705 0 -1 0 I I #
straight-curve $-1 -18.770122103357643 -26.637851345900394 4.2390832368876659 0 0.78801074757464917 0.61566148304635926 I I #
edge $-1 $248 -18.770122103357643 $483 -5.0771695542534232 $246 $490 forward 7 unknown #
point $-1 -18.770122103357643 -26.637851345900405 9.1211898652872705 #
point $-1 -18.770122103357643 -26.637851345900405 4.2390832368876579 #
edge $-1 $491 1 $491 0 $251 $-1 forward 7 unknown #
vertex $-1 $252 $492 #
ellipse-curve $-1 -11.923645828805533 -22.38627049912736 5.2374181832860058 0 -0.61566148304635926 0.78801074757464917 1.5 0 0 1 I I #
point $-1 -10.423645828805533 -23.513445645751531 6.6801365510874771 #
loop $-1 $-1 $263 $255 #
plane-surface $-1 0 0 9.1211898652872705 0 0 1 1 0 0 forward_v I I I I #
coedge $-1 $387 $258 $260 $391 reversed $156 $-1 #
coedge $-1 $258 $386 $493 $494 reversed $156 $-1 #
coedge $-1 $266 $261 $258 $389 forward $256 $-1 #
edge $-1 $392 -33.997116626363699 $495 -29.115009997964087 $388 $496 forward 7 unknown #
coedge $-1 $260 $259 $395 $497 reversed $98 $-1 #
edge $-1 $498 -7.9298555502325989 $392 1.3320084873591951e-014 $386 $499 forward 7 unknown #
vertex $-1 $262 $500 #
straight-curve $-1 11.366251086150779 -26.637851345900405 4.2390832368876588 1 0 0 I I #
coedge $-1 $493 $263 $266 $399 forward $384 $-1 #
coedge $-1 $263 $493 $390 $497 forward $384 $-1 #
vertex $-1 $264 $501 #
straight-curve $-1 15.886025897749448 -41.536352206933238 9.1211898652872705 0 -1 0 I I #
straight-curve $-1 15.886025897749448 -26.637851345900394 4.2390832368876659 0 0.78801074757464917 0.61566148304635926 I I #
edge $-1 $267 15.886025897749448 $495 29.578978446853668 $266 $502 forward 7 unknown #
point $-1 15.886025897749448 -26.637851345900405 9.1211898652872705 #
point $-1 15.886025897749448 -26.637851345900405 4.2390832368876579 #
edge $-1 $503 1 $503 0 $270 $-1 forward 7 unknown #
vertex $-1 $271 $504 #
ellipse-curve $-1 22.732502172301558 -22.38627049912736 5.2374181832860058 0 -0.61566148304635926 0.78801074757464917 1.5 0 0 1 I I #
point $-1 24.232502172301558 -23.513445645751531 6.6801365510874771 #
plane-surface $-1 0 0 9.1211898652872705 0 0 1 1 0 0 forward_v I I I I #
coedge $-1 $417 $416 $409 $505 forward $275 $-1 #
coedge $-1 $409 $277 $279 $413 reversed $171 $-1 #
coedge $-1 $277 $408 $407 $505 reversed $171 $-1 #
coedge $-1 $285 $280 $277 $411 forward $286 $-1 #
edge $-1 $414 -0.15639910846525851 $506 6.0924122918325203 $410 $507 forward 7 unknown #
coedge $-1 $279 $278 $417 $508 reversed $107 $-1 #
edge $-1 $509 -53.275702691800831 $414 -45.345847141568214 $408 $510 forward 7 unknown #
vertex $-1 $281 $511 #
straight-curve $-1 -5.9618229144027666 20.389039945602622 9.1211898652872669 1 0 0 I I #
coedge $-1 $407 $282 $285 $421 reversed $275 $-1 #
coedge $-1 $282 $407 $412 $508 forward $275 $-1 #
vertex $-1 $283 $512 #
straight-curve $-1 -18.770122103357643 26.637851345900405 54.636098928036859 0 0 1 I I #
straight-curve $-1 -18.770122103357643 -15.343974959830312 37.038881366458668 0 0.78801074757464917 -0.61566148304635926 I I #
edge $-1 $506 5.0771695542534232 $287 18.770122103357643 $416 $513 forward 7 unknown #
point $-1 -18.770122103357643 26.637851345900405 9.1211898652872705 #
point $-1 -18.770122103357643 20.389039945602626 9.1211898652872705 #
edge $-1 $514 1 $514 0 $290 $-1 forward 7 unknown #
vertex $-1 $291 $515 #
ellipse-curve $-1 -11.923645828805533 22.386270499127363 5.2374181832860058 0 0.61566148304635926 0.78801074757464917 1.5 0 0 1 I I #
point $-1 -10.423645828805533 23.513445645751535 6.6801365510874771 #
loop $-1 $-1 $302 $294 #
plane-surface $-1 0 26.637851345900405 0 0 -1 0 0 0 -1 forward_v I I I I #
coedge $-1 $431 $297 $299 $435 reversed $186 $-1 #
coedge $-1 $297 $430 $516 $517 reversed $186 $-1 #
coedge $-1 $305 $300 $297 $433 forward $295 $-1 #
edge $-1 $436 -0.15639910846525851 $518 6.0924122918325203 $432 $519 forward 7 unknown #
coedge $-1 $299 $298 $439 $520 reversed $116 $-1 #
edge $-1 $521 -53.275702691800831 $436 -45.345847141568214 $430 $522 forward 7 unknown #
vertex $-1 $301 $523 #
straight-curve $-1 11.366251086150779 20.389039945602622 9.1211898652872669 1 0 0 I I #
coedge $-1 $516 $302 $305 $443 reversed $428 $-1 #
coedge $-1 $302 $516 $434 $520 forward $428 $-1 #
vertex $-1 $303 $524 #
straight-curve $-1 15.886025897749448 26.637851345900405 54.636098928036859 0 0 1 I I #
straight-curve $-1 15.886025897749448 -15.343974959830312 37.038881366458668 0 0.78801074757464917 -0.61566148304635926 I I #
edge $-1 $518 -29.578978446853668 $306 -15.886025897749448 $438 $525 forward 7 unknown #
point $-1 15.886025897749448 26.637851345900405 9.1211898652872705 #
point $-1 15.886025897749448 20.389039945602626 9.1211898652872705 #
edge $-1 $526 1 $526 0 $309 $-1 forward 7 unknown #
vertex $-1 $310 $527 #
ellipse-curve $-1 22.732502172301558 22.386270499127363 5.2374181832860058 0 0.61566148304635926 0.78801074757464917 1.5 0 0 1 I I #
point $-1 24.232502172301558 23.513445645751535 6.6801365510874771 #
plane-surface $-1 45.832697531052581 0 0 -1 0 0 0 0 1 forward_v I I I I #
coedge $-1 $318 $316 $320 $455 reversed $201 $-1 #
edge $-1 $331 -9.1211898652872705 $457 9.1211898652872705 $330 $528 forward 7 unknown #
vertex $-1 $455 $529 #
straight-curve $-1 -45.832697531052581 -26.637851345900405 0 0 0 -1 I I #
edge $-1 $453 -26.637851345900405 $457 26.637851345900405 $451 $530 forward 7 unknown #
straight-curve $-1 0 -26.637851345900405 -9.1211898652872705 -1 0 0 I I #
vertex $-1 $323 $531 #
straight-curve $-1 0 26.637851345900405 -9.1211898652872705 1 0 0 I I #
point $-1 45.832697531052581 26.637851345900405 -9.1211898652872705 #
point $-1 45.832697531052581 -26.637851345900405 -9.1211898652872705 #
straight-curve $-1 -45.832697531052581 0 9.1211898652872705 0 -1 0 I I #
point $-1 -45.832697531052581 26.637851345900405 9.1211898652872705 #
point $-1 -45.832697531052581 -26.637851345900405 9.1211898652872705 #
straight-curve $-1 45.832697531052581 -26.637851345900405 0 0 0 -1 I I #
straight-curve $-1 45.832697531052581 26.637851345900405 0 0 0 -1 I I #
plane-surface $-1 0 26.637851345900405 0 0 -1 0 0 0 -1 forward_v I I I I #
coedge $-1 $344 $343 $532 $533 forward $133 $-1 #
edge $-1 $347 35.023841187556549 $534 45.832697531052581 $346 $535 forward 7 unknown #
coedge $-1 $352 $351 $344 $470 reversed $353 $-1 #
edge $-1 $536 -45.832697531052581 $471 -35.023841187556549 $469 $537 forward 7 unknown #
vertex $-1 $359 $538 #
straight-curve $-1 -35.023841187556549 0 -9.1211898652872705 0 -1 0 I I #
point $-1 -35.023841187556549 -26.637851345900405 -9.1211898652872705 #
coedge $-1 $532 $349 $352 $477 forward $341 $-1 #
coedge $-1 $349 $532 $356 $479 reversed $341 $-1 #
straight-curve $-1 -45.832697531052581 0 -5.8660438327943272 0 1 0 I I #
edge $-1 $354 5.8660438327943272 $536 9.1211898652872705 $352 $539 forward 7 unknown #
point $-1 -45.832697531052581 26.637851345900405 -5.8660438327943272 #
edge $-1 $357 5.8660438327943272 $534 9.1211898652872705 $475 $540 forward 7 unknown #
point $-1 -45.832697531052581 -26.637851345900405 -5.8660438327943272 #
straight-curve $-1 -35.023841187556549 26.637851345900405 -3.7468084245203994 0 0 -1 I I #
edge $-1 $483 14.898500861032833 $486 21.147312261330615 $363 $541 forward 7 unknown #
vertex $-1 $367 $542 #
straight-curve $-1 -5.0771695542534232 -26.637851345900405 38.236199863251358 0 0 1 I I #
edge $-1 $486 -0.88465336014934337 $374 12.808299188954877 $373 $543 forward 7 unknown #
vertex $-1 $485 $544 #
straight-curve $-1 -5.0771695542534232 -26.637851345900394 4.2390832368876659 0 -0.78801074757464917 -0.61566148304635926 I I #
point $-1 -5.0771695542534232 -26.637851345900405 4.2390832368876579 #
point $-1 -18.770122103357643 -20.389039945602622 9.1211898652872705 #
straight-curve $-1 0 -26.637851345900405 9.1211898652872705 1 0 0 I I #
vertex $-1 $380 $545 #
point $-1 -10.423645828805533 -22.38627049912736 5.2374181832860058 #
coedge $-1 $395 $394 $387 $494 forward $384 $-1 #
edge $-1 $495 14.898500861032833 $498 21.147312261330615 $493 $546 forward 7 unknown #
vertex $-1 $494 $547 #
straight-curve $-1 29.578978446853668 -26.637851345900405 38.236199863251358 0 0 1 I I #
edge $-1 $498 -18.212727360702889 $396 -4.5197748115986691 $395 $548 forward 7 unknown #
vertex $-1 $497 $549 #
straight-curve $-1 29.578978446853668 -26.637851345900394 4.2390832368876659 0 -0.78801074757464917 -0.61566148304635926 I I #
point $-1 29.578978446853668 -26.637851345900405 4.2390832368876579 #
point $-1 15.886025897749448 -20.389039945602622 9.1211898652872705 #
straight-curve $-1 0 -26.637851345900405 9.1211898652872705 1 0 0 I I #
vertex $-1 $402 $550 #
point $-1 24.232502172301558 -22.38627049912736 5.2374181832860058 #
edge $-1 $506 45.514909062749588 $509 50.397015691149207 $407 $551 forward 7 unknown #
vertex $-1 $421 $552 #
straight-curve $-1 -5.0771695542534232 20.545439054067884 9.1211898652872705 0 1 0 I I #
edge $-1 $509 -0.88465336014934337 $418 12.808299188954877 $417 $553 forward 7 unknown #
vertex $-1 $508 $554 #
straight-curve $-1 -5.0771695542534232 -15.343974959830312 37.038881366458668 0 -0.78801074757464917 0.61566148304635926 I I #
point $-1 -5.0771695542534232 20.389039945602626 9.1211898652872705 #
point $-1 -18.770122103357643 26.637851345900408 4.2390832368876517 #
straight-curve $-1 0 26.637851345900405 9.1211898652872705 -1 0 0 I I #
vertex $-1 $424 $555 #
point $-1 -10.423645828805533 22.386270499127363 5.2374181832860058 #
coedge $-1 $439 $438 $431 $517 forward $428 $-1 #
edge $-1 $518 45.514909062749588 $521 50.397015691149207 $516 $556 forward 7 unknown #
vertex $-1 $443 $557 #
straight-curve $-1 29.578978446853668 20.545439054067884 9.1211898652872705 0 1 0 I I #
edge $-1 $521 -18.212727360702889 $440 -4.5197748115986691 $439 $558 forward 7 unknown #
vertex $-1 $520 $559 #
straight-curve $-1 29.578978446853668 -15.343974959830312 37.038881366458668 0 -0.78801074757464917 0.61566148304635926 I I #
point $-1 29.578978446853668 20.389039945602626 9.1211898652872705 #
point $-1 15.886025897749448 26.637851345900408 4.2390832368876517 #
straight-curve $-1 0 26.637851345900405 9.1211898652872705 -1 0 0 I I #
vertex $-1 $446 $560 #
point $-1 24.232502172301558 22.386270499127363 5.2374181832860058 #
straight-curve $-1 -45.832697531052581 26.637851345900405 0 0 0 -1 I I #
point $-1 -45.832697531052581 -26.637851345900405 -9.1211898652872705 #
straight-curve $-1 -45.832697531052581 0 -9.1211898652872705 0 1 0 I I #
point $-1 -45.832697531052581 26.637851345900405 -9.1211898652872705 #
coedge $-1 $475 $474 $467 $533 reversed $341 $-1 #
edge $-1 $534 -26.637851345900405 $536 26.637851345900405 $532 $561 forward 7 unknown #
vertex $-1 $533 $562 #
straight-curve $-1 0 -26.637851345900405 -9.1211898652872705 -1 0 0 I I #
vertex $-1 $470 $563 #
straight-curve $-1 0 26.637851345900405 -9.1211898652872705 1 0 0 I I #
point $-1 -35.023841187556549 26.637851345900405 -9.1211898652872705 #
straight-curve $-1 -45.832697531052581 26.637851345900405 0 0 0 -1 I I #
straight-curve $-1 -45.832697531052581 -26.637851345900405 0 0 0 -1 I I #
straight-curve $-1 -5.0771695542534232 -41.536352206933238 9.1211898652872705 0 1 0 I I #
point $-1 -5.0771695542534232 -26.637851345900405 9.1211898652872705 #
straight-curve $-1 -5.9618229144027666 -20.389039945602626 9.1211898652872705 -1 0 0 I I #
point $-1 -5.0771695542534232 -20.389039945602622 9.1211898652872705 #
point $-1 -11.923645828805533 -21.462778274557824 4.0554020619240321 #
straight-curve $-1 29.578978446853668 -41.536352206933238 9.1211898652872705 0 1 0 I I #
point $-1 29.578978446853668 -26.637851345900405 9.1211898652872705 #
straight-curve $-1 11.366251086150779 -20.389039945602626 9.1211898652872705 -1 0 0 I I #
point $-1 29.578978446853668 -20.389039945602622 9.1211898652872705 #
point $-1 22.732502172301558 -21.462778274557824 4.0554020619240321 #
straight-curve $-1 -5.0771695542534232 26.637851345900405 54.636098928036859 0 0 -1 I I #
point $-1 -5.0771695542534232 26.637851345900405 9.1211898652872705 #
straight-curve $-1 -5.9618229144027666 26.637851345900408 4.2390832368876552 -1 0 0 I I #
point $-1 -5.0771695542534232 26.637851345900408 4.2390832368876517 #
point $-1 -11.923645828805533 21.462778274557827 4.0554020619240321 #
straight-curve $-1 29.578978446853668 26.637851345900405 54.636098928036859 0 0 -1 I I #
point $-1 29.578978446853668 26.637851345900405 9.1211898652872705 #
straight-curve $-1 11.366251086150779 26.637851345900408 4.2390832368876552 -1 0 0 I I #
point $-1 29.578978446853668 26.637851345900408 4.2390832368876517 #
point $-1 22.732502172301558 21.462778274557827 4.0554020619240321 #
straight-curve $-1 -45.832697531052581 0 -9.1211898652872705 0 1 0 I I #
point $-1 -45.832697531052581 -26.637851345900405 -9.1211898652872705 #
point $-1 -45.832697531052581 26.637851345900405 -9.1211898652872705 #
End-of-ACIS-data 