500 0 9 0           
7 Unknown 11 ACIS 5.0 NT 24 Thu Mar 25 15:22:49 1999 
-1 9.9999999999999995e-007 1e-010 
body $-1 $9 $-1 $10 #
body $-1 $11 $-1 $12 #
body $-1 $13 $-1 $14 #
body $-1 $15 $-1 $16 #
body $-1 $17 $-1 $18 #
body $-1 $19 $-1 $20 #
body $-1 $21 $-1 $22 #
body $-1 $23 $-1 $24 #
body $-1 $25 $-1 $26 #
lump $-1 $-1 $27 $0 #
transform $-1 1 0 0 0 1 0 0 0 1 52.262337107455672 35.741014047857028 11.085746271327414 1 rotate no_reflect no_shear #
lump $-1 $-1 $28 $1 #
transform $-1 1 0 0 0 1 0 0 0 1 52.262337107455672 35.741014047857028 11.085746271327414 1 rotate no_reflect no_shear #
lump $-1 $-1 $29 $2 #
transform $-1 1 0 0 0 1 0 0 0 1 52.262337107455672 35.741014047857028 11.085746271327414 1 rotate no_reflect no_shear #
lump $-1 $-1 $30 $3 #
transform $-1 1 0 0 0 1 0 0 0 1 52.262337107455672 35.741014047857028 11.085746271327414 1 rotate no_reflect no_shear #
lump $-1 $-1 $31 $4 #
transform $-1 1 0 0 0 1 0 0 0 1 52.262337107455672 35.741014047857028 11.085746271327414 1 rotate no_reflect no_shear #
lump $-1 $-1 $32 $5 #
transform $-1 1 0 0 0 1 0 0 0 1 52.262337107455672 35.741014047857028 11.085746271327414 1 rotate no_reflect no_shear #
lump $-1 $-1 $33 $6 #
transform $-1 1 0 0 0 1 0 0 0 1 52.262337107455672 35.741014047857028 11.085746271327414 1 rotate no_reflect no_shear #
lump $-1 $-1 $34 $7 #
transform $-1 1 0 0 0 1 0 0 0 1 52.262337107455672 35.741014047857028 11.085746271327414 1 rotate no_reflect no_shear #
lump $-1 $-1 $35 $8 #
transform $-1 1 0 0 0 1 0 0 0 1 52.262337107455672 35.741014047857028 11.085746271327414 1 rotate no_reflect no_shear #
shell $-1 $-1 $-1 $36 $-1 $9 #
shell $-1 $-1 $-1 $37 $-1 $11 #
shell $-1 $-1 $-1 $38 $-1 $13 #
shell $-1 $-1 $-1 $39 $-1 $15 #
shell $-1 $-1 $-1 $40 $-1 $17 #
shell $-1 $-1 $-1 $41 $-1 $19 #
shell $-1 $-1 $-1 $42 $-1 $21 #
shell $-1 $-1 $-1 $43 $-1 $23 #
shell $-1 $-1 $-1 $44 $-1 $25 #
face $-1 $45 $46 $27 $-1 $47 forward single #
face $-1 $48 $49 $28 $-1 $50 reversed single #
face $-1 $51 $52 $29 $-1 $53 reversed single #
face $-1 $54 $55 $30 $-1 $56 forward single #
face $-1 $57 $58 $31 $-1 $59 forward single #
face $-1 $60 $61 $32 $-1 $62 reversed single #
face $-1 $63 $64 $33 $-1 $65 forward single #
face $-1 $66 $67 $34 $-1 $68 forward single #
face $-1 $69 $70 $35 $-1 $71 forward single #
face $-1 $72 $73 $27 $-1 $74 reversed single #
loop $-1 $-1 $75 $36 #
plane-surface $-1 0 0 11.085746271327414 0 0 1 1 0 0 forward_v I I I I #
face $-1 $76 $77 $28 $-1 $78 reversed single #
loop $-1 $-1 $79 $37 #
plane-surface $-1 -48.245434690947924 -24.684868900840574 0 0 1 0 0 0 1 forward_v I I I I #
face $-1 $80 $81 $29 $-1 $82 reversed single #
loop $-1 $-1 $83 $38 #
plane-surface $-1 41.385139049062239 -35.741014047857021 0.42196802038543524 0 -0.6560590369687036 0.75470957328743171 1 0 0 forward_v I I I I #
face $-1 $84 $85 $30 $-1 $86 forward single #
loop $-1 $87 $88 $39 #
cone-surface $-1 36.723482738322183 -27.655037624812053 3.5079472215039571 0 0.6560590369687036 -0.75470957328743171 2 0 0 1 I I 0 1 2 forward I I I I #
face $-1 $89 $90 $31 $-1 $91 forward single #
loop $-1 $92 $93 $40 #
cone-surface $-1 46.046795359802267 -27.655037624812053 3.5079472215039571 0 0.6560590369687036 -0.75470957328743171 2 0 0 1 I I 0 1 2 forward I I I I #
face $-1 $94 $95 $32 $-1 $96 reversed single #
loop $-1 $-1 $97 $41 #
plane-surface $-1 -39.88846031460556 54.748025989471238 127.02045326642549 1 0 0 0 -0.68199836817093118 -0.7313536940579346 forward_v I I I I #
face $-1 $98 $99 $33 $-1 $100 forward single #
loop $-1 $101 $102 $42 #
cone-surface $-1 -37.915531676998128 30.269287877235925 5.9124528145818287 0 -0.68199836817093118 -0.7313536940579346 0.5 0 0 1 I I 0 1 0.5 forward I I I I #
face $-1 $103 $104 $34 $-1 $105 forward single #
loop $-1 $106 $107 $43 #
cone-surface $-1 -34.956138720586992 30.269287877235925 5.9124528145818287 0 -0.68199836817093118 -0.7313536940579346 0.5 0 0 1 I I 0 1 0.5 forward I I I I #
face $-1 $108 $109 $35 $-1 $110 forward single #
loop $-1 $111 $112 $44 #
cone-surface $-1 -31.996745764175849 30.269287877235925 5.9124528145818287 0 -0.68199836817093118 -0.7313536940579346 0.5 0 0 1 I I 0 1 0.5 forward I I I I #
face $-1 $113 $114 $27 $-1 $115 reversed single #
loop $-1 $-1 $116 $45 #
plane-surface $-1 0 0 -11.085746271327414 0 0 1 1 0 0 forward_v I I I I #
coedge $-1 $117 $118 $119 $120 forward $46 $-1 #
face $-1 $121 $122 $28 $-1 $123 reversed single #
loop $-1 $-1 $124 $48 #
plane-surface $-1 -48.245434690947924 -19.188176506960861 0 0 -1 0 0 0 -1 forward_v I I I I #
coedge $-1 $125 $126 $127 $128 reversed $49 $-1 #
face $-1 $129 $130 $29 $-1 $131 reversed single #
loop $-1 $-1 $132 $51 #
plane-surface $-1 30.5079409906688 -104.31537115275924 79.307740295128994 1 0 0 0 0.6560590369687036 -0.75470957328743171 forward_v I I I I #
coedge $-1 $133 $134 $135 $136 reversed $52 $-1 #
face $-1 $-1 $137 $30 $-1 $138 forward single #
loop $-1 $139 $140 $54 #
cone-surface $-1 36.723482738322183 -25.046638834591043 0.50732772386405323 0 0.6560590369687036 -0.75470957328743171 1 0 0 1 I I -0.70710678118654746 0.70710678118654746 1 forward I I I I #
loop $-1 $-1 $141 $39 #
coedge $-1 $88 $88 $142 $143 reversed $55 $-1 #
face $-1 $-1 $144 $31 $-1 $145 forward single #
loop $-1 $146 $147 $57 #
cone-surface $-1 46.046795359802267 -25.046638834591043 0.50732772386405323 0 0.6560590369687036 -0.75470957328743171 1 0 0 1 I I -0.70710678118654746 0.70710678118654746 1 forward I I I I #
loop $-1 $-1 $148 $40 #
coedge $-1 $93 $93 $149 $150 reversed $58 $-1 #
face $-1 $151 $152 $32 $-1 $153 reversed single #
loop $-1 $-1 $154 $60 #
plane-surface $-1 -34.956138720586992 -16.5376312586965 50.575946659147931 0 0.68199836817093118 0.7313536940579346 1 0 0 forward_v I I I I #
coedge $-1 $155 $156 $157 $158 reversed $61 $-1 #
face $-1 $-1 $159 $33 $-1 $160 forward single #
loop $-1 $161 $162 $63 #
cone-surface $-1 -37.915531676998128 29.592357614251604 5.1865339978243217 0 -0.68199836817093118 -0.7313536940579346 0.25 0 0 1 I I -0.70710678118654746 0.70710678118654746 0.25 forward I I I I #
loop $-1 $-1 $163 $42 #
coedge $-1 $102 $102 $164 $165 reversed $64 $-1 #
face $-1 $-1 $166 $34 $-1 $167 forward single #
loop $-1 $168 $169 $66 #
cone-surface $-1 -34.956138720586992 29.592357614251604 5.1865339978243217 0 -0.68199836817093118 -0.7313536940579346 0.25 0 0 1 I I -0.70710678118654746 0.70710678118654746 0.25 forward I I I I #
loop $-1 $-1 $170 $43 #
coedge $-1 $107 $107 $171 $172 reversed $67 $-1 #
face $-1 $-1 $173 $35 $-1 $174 forward single #
loop $-1 $175 $176 $69 #
cone-surface $-1 -31.996745764175849 29.592357614251604 5.1865339978243217 0 -0.68199836817093118 -0.7313536940579346 0.25 0 0 1 I I -0.70710678118654746 0.70710678118654746 0.25 forward I I I I #
loop $-1 $-1 $177 $44 #
coedge $-1 $112 $112 $178 $179 reversed $70 $-1 #
face $-1 $180 $181 $27 $-1 $182 reversed single #
loop $-1 $-1 $183 $72 #
plane-surface $-1 0 -35.741014047857028 0 0 1 0 0 0 1 forward_v I I I I #
coedge $-1 $184 $185 $186 $187 forward $73 $-1 #
coedge $-1 $188 $75 $189 $190 forward $46 $-1 #
coedge $-1 $75 $188 $191 $192 forward $46 $-1 #
coedge $-1 $193 $194 $75 $120 reversed $195 $-1 #
edge $-1 $196 -35.741014047857028 $197 35.741014047857028 $119 $198 forward 7 unknown #
face $-1 $199 $200 $28 $-1 $201 reversed single #
loop $-1 $-1 $202 $76 #
plane-surface $-1 -44.228532274440177 -21.936522703900717 0 -1 0 0 0 0 1 forward_v I I I I #
coedge $-1 $203 $204 $205 $206 forward $77 $-1 #
coedge $-1 $207 $79 $208 $209 reversed $49 $-1 #
coedge $-1 $79 $207 $210 $211 reversed $49 $-1 #
coedge $-1 $212 $213 $79 $128 forward $214 $-1 #
edge $-1 $215 -11.085746271327414 $216 11.085746271327414 $127 $217 forward 7 unknown #
face $-1 $218 $219 $29 $-1 $220 forward single #
loop $-1 $-1 $221 $80 #
plane-surface $-1 0 -35.741014047857028 0 0 1 0 0 0 1 forward_v I I I I #
coedge $-1 $222 $223 $224 $225 reversed $81 $-1 #
coedge $-1 $226 $83 $227 $228 reversed $52 $-1 #
coedge $-1 $83 $226 $222 $229 forward $52 $-1 #
coedge $-1 $224 $230 $83 $136 forward $219 $-1 #
edge $-1 $231 -31.569767582924559 $232 -9.8153714661376803 $135 $233 forward 7 unknown #
loop $-1 $-1 $142 $84 #
plane-surface $-1 41.385139049062239 -35.741014047857021 0.42196802038543524 0 -0.6560590369687036 0.75470957328743171 1 0 0 forward_v I I I I #
loop $-1 $-1 $234 $54 #
coedge $-1 $140 $140 $141 $235 reversed $85 $-1 #
coedge $-1 $141 $141 $140 $235 forward $87 $-1 #
coedge $-1 $142 $142 $88 $143 forward $137 $-1 #
edge $-1 $236 1.2815051418118473e-015 $236 6.2831853071796013 $142 $237 forward 7 unknown #
loop $-1 $-1 $149 $89 #
plane-surface $-1 41.385139049062239 -35.741014047857021 0.42196802038543524 0 -0.6560590369687036 0.75470957328743171 1 0 0 forward_v I I I I #
loop $-1 $-1 $238 $57 #
coedge $-1 $147 $147 $148 $239 reversed $90 $-1 #
coedge $-1 $148 $148 $147 $239 forward $92 $-1 #
coedge $-1 $149 $149 $93 $150 forward $144 $-1 #
edge $-1 $240 1.2815051418118473e-015 $240 6.2831853071796013 $149 $241 forward 7 unknown #
face $-1 $242 $243 $32 $-1 $244 forward single #
loop $-1 $-1 $245 $94 #
plane-surface $-1 -30.023817126568421 54.748025989471238 127.02045326642549 -1 0 0 0 0.68199836817093118 0.7313536940579346 forward_v I I I I #
coedge $-1 $246 $247 $248 $249 reversed $95 $-1 #
coedge $-1 $156 $97 $250 $251 reversed $61 $-1 #
coedge $-1 $97 $155 $246 $252 reversed $61 $-1 #
coedge $-1 $248 $253 $97 $158 forward $243 $-1 #
edge $-1 $254 -8.3670010531214096 $255 1.5635899462376308 $157 $256 forward 7 unknown #
loop $-1 $-1 $164 $98 #
plane-surface $-1 -34.956138720586992 -16.5376312586965 50.575946659147931 0 0.68199836817093118 0.7313536940579346 1 0 0 forward_v I I I I #
loop $-1 $-1 $257 $63 #
coedge $-1 $162 $162 $163 $258 reversed $99 $-1 #
coedge $-1 $163 $163 $162 $258 forward $101 $-1 #
coedge $-1 $164 $164 $102 $165 forward $159 $-1 #
edge $-1 $259 3.6344173972807311e-015 $259 6.283185307179604 $164 $260 forward 7 unknown #
loop $-1 $-1 $171 $103 #
plane-surface $-1 -34.956138720586992 -16.5376312586965 50.575946659147931 0 0.68199836817093118 0.7313536940579346 1 0 0 forward_v I I I I #
loop $-1 $-1 $261 $66 #
coedge $-1 $169 $169 $170 $262 reversed $104 $-1 #
coedge $-1 $170 $170 $169 $262 forward $106 $-1 #
coedge $-1 $171 $171 $107 $172 forward $166 $-1 #
edge $-1 $263 3.6344173972807311e-015 $263 6.283185307179604 $171 $264 forward 7 unknown #
loop $-1 $-1 $178 $108 #
plane-surface $-1 -34.956138720586992 -16.5376312586965 50.575946659147931 0 0.68199836817093118 0.7313536940579346 1 0 0 forward_v I I I I #
loop $-1 $-1 $265 $69 #
coedge $-1 $176 $176 $177 $266 reversed $109 $-1 #
coedge $-1 $177 $177 $176 $266 forward $111 $-1 #
coedge $-1 $178 $178 $112 $179 forward $173 $-1 #
edge $-1 $267 3.6344173972807311e-015 $267 6.283185307179604 $178 $268 forward 7 unknown #
face $-1 $269 $270 $27 $-1 $271 reversed single #
loop $-1 $-1 $272 $113 #
plane-surface $-1 -52.262337107455672 0 0 1 0 0 0 0 -1 forward_v I I I I #
coedge $-1 $273 $191 $274 $275 forward $114 $-1 #
coedge $-1 $276 $116 $273 $277 forward $73 $-1 #
coedge $-1 $116 $276 $278 $279 forward $73 $-1 #
coedge $-1 $194 $193 $116 $187 reversed $195 $-1 #
edge $-1 $280 -35.741014047857028 $281 35.741014047857028 $186 $282 forward 7 unknown #
coedge $-1 $118 $117 $283 $284 forward $46 $-1 #
coedge $-1 $285 $286 $117 $190 reversed $270 $-1 #
edge $-1 $197 -52.262337107455672 $287 52.262337107455672 $189 $288 forward 7 unknown #
coedge $-1 $183 $289 $118 $192 reversed $114 $-1 #
edge $-1 $290 -52.262337107455672 $196 52.262337107455672 $191 $291 forward 7 unknown #
coedge $-1 $186 $119 $289 $292 forward $195 $-1 #
coedge $-1 $119 $186 $285 $293 reversed $195 $-1 #
loop $-1 $-1 $193 $269 #
vertex $-1 $120 $294 #
vertex $-1 $120 $295 #
straight-curve $-1 52.262337107455672 0 11.085746271327414 0 1 0 I I #
face $-1 $296 $297 $28 $-1 $298 forward single #
loop $-1 $-1 $299 $121 #
plane-surface $-1 0 0 -11.085746271327414 0 0 1 1 0 0 forward_v I I I I #
coedge $-1 $300 $301 $207 $302 forward $122 $-1 #
coedge $-1 $303 $124 $299 $304 reversed $77 $-1 #
coedge $-1 $124 $303 $305 $306 reversed $77 $-1 #
coedge $-1 $301 $300 $124 $206 reversed $122 $-1 #
edge $-1 $307 -11.085746271327414 $308 11.085746271327414 $205 $309 forward 7 unknown #
coedge $-1 $126 $125 $202 $302 reversed $49 $-1 #
coedge $-1 $310 $311 $125 $209 forward $200 $-1 #
edge $-1 $312 20.105814928966215 $215 28.139619761981709 $208 $313 forward 7 unknown #
coedge $-1 $314 $315 $126 $211 forward $297 $-1 #
edge $-1 $216 -28.139619761981709 $316 -20.105814928966215 $210 $317 forward 7 unknown #
coedge $-1 $318 $127 $315 $319 reversed $214 $-1 #
coedge $-1 $127 $318 $310 $320 reversed $214 $-1 #
loop $-1 $-1 $318 $296 #
vertex $-1 $320 $321 #
vertex $-1 $128 $322 #
straight-curve $-1 -52.262337107455672 -24.684868900840574 0 0 0 1 I I #
face $-1 $-1 $323 $29 $-1 $324 reversed single #
loop $-1 $-1 $224 $129 #
plane-surface $-1 0 0 11.085746271327414 0 0 1 1 0 0 forward_v I I I I #
coedge $-1 $325 $326 $223 $327 forward $130 $-1 #
coedge $-1 $223 $132 $134 $229 reversed $81 $-1 #
coedge $-1 $132 $222 $221 $327 reversed $81 $-1 #
coedge $-1 $328 $135 $132 $225 forward $219 $-1 #
edge $-1 $232 -28.683944868107947 $329 -16.416671528522592 $224 $330 forward 7 unknown #
coedge $-1 $134 $133 $325 $331 reversed $52 $-1 #
coedge $-1 $332 $333 $133 $228 forward $323 $-1 #
edge $-1 $334 -13.348624763916318 $231 2.905671953363238 $227 $335 forward 7 unknown #
edge $-1 $336 -9.4049978074560379e-015 $232 16.254296717279548 $222 $337 forward 7 unknown #
coedge $-1 $135 $328 $332 $338 forward $219 $-1 #
vertex $-1 $228 $339 #
vertex $-1 $136 $340 #
straight-curve $-1 20.69256952453112 -23.473740708271674 11.085746271327414 -1 0 0 I I #
coedge $-1 $234 $234 $-1 $341 reversed $139 $-1 #
edge $-1 $342 0 $342 6.2831853071796004 $140 $343 forward 7 unknown #
vertex $-1 $143 $344 #
ellipse-curve $-1 36.723482738322183 -29.607377378064353 5.7538571458564221 0 -0.6560590369687036 0.75470957328743171 2 0 0 1 I I #
coedge $-1 $238 $238 $-1 $345 reversed $146 $-1 #
edge $-1 $346 0 $346 6.2831853071796004 $147 $347 forward 7 unknown #
vertex $-1 $150 $348 #
ellipse-curve $-1 46.046795359802267 -29.607377378064353 5.7538571458564221 0 -0.6560590369687036 0.75470957328743171 2 0 0 1 I I #
face $-1 $-1 $349 $32 $-1 $350 reversed single #
loop $-1 $-1 $157 $151 #
plane-surface $-1 0 0 11.085746271327414 0 0 1 1 0 0 forward_v I I I I #
coedge $-1 $351 $352 $353 $354 reversed $152 $-1 #
coedge $-1 $355 $154 $156 $252 forward $95 $-1 #
coedge $-1 $154 $355 $351 $356 forward $95 $-1 #
coedge $-1 $353 $157 $154 $249 forward $243 $-1 #
edge $-1 $255 -22.410390954312064 $357 -12.545747766274925 $248 $358 forward 7 unknown #
coedge $-1 $359 $360 $155 $251 forward $349 $-1 #
edge $-1 $361 -61.684906488890448 $254 -52.42448036188533 $250 $362 forward 7 unknown #
edge $-1 $255 57.903658176969387 $361 71.482028095714043 $156 $363 forward 7 unknown #
coedge $-1 $157 $353 $359 $364 forward $243 $-1 #
vertex $-1 $251 $365 #
vertex $-1 $158 $366 #
straight-curve $-1 -39.88846031460556 27.374012994735619 11.085746271327416 0 -1 0 I I #
coedge $-1 $257 $257 $-1 $367 reversed $161 $-1 #
edge $-1 $368 0 $368 6.2831853071796004 $162 $369 forward 7 unknown #
vertex $-1 $165 $370 #
ellipse-curve $-1 -37.915531676998128 30.775718548177515 6.4555332078248551 0 0.68199836817093118 0.7313536940579346 0.5 0 0 1 I I #
coedge $-1 $261 $261 $-1 $371 reversed $168 $-1 #
edge $-1 $372 0 $372 6.2831853071796004 $169 $373 forward 7 unknown #
vertex $-1 $172 $374 #
ellipse-curve $-1 -34.956138720586992 30.775718548177515 6.4555332078248551 0 0.68199836817093118 0.7313536940579346 0.5 0 0 1 I I #
coedge $-1 $265 $265 $-1 $375 reversed $175 $-1 #
edge $-1 $376 0 $376 6.2831853071796004 $176 $377 forward 7 unknown #
vertex $-1 $179 $378 #
ellipse-curve $-1 -31.996745764175849 30.775718548177515 6.4555332078248551 0 0.68199836817093118 0.7313536940579346 0.5 0 0 1 I I #
face $-1 $-1 $195 $27 $-1 $379 reversed single #
loop $-1 $-1 $285 $180 #
plane-surface $-1 0 35.741014047857028 0 0 -1 0 0 0 -1 forward_v I I I I #
coedge $-1 $380 $283 $286 $381 forward $181 $-1 #
coedge $-1 $289 $183 $184 $277 reversed $114 $-1 #
coedge $-1 $283 $380 $183 $275 reversed $181 $-1 #
edge $-1 $290 -11.085746271327414 $382 11.085746271327414 $274 $383 forward 7 unknown #
coedge $-1 $185 $184 $380 $384 forward $73 $-1 #
edge $-1 $281 -52.262337107455672 $382 52.262337107455672 $273 $385 forward 7 unknown #
coedge $-1 $286 $285 $185 $279 reversed $270 $-1 #
edge $-1 $386 -52.262337107455672 $280 52.262337107455672 $278 $387 forward 7 unknown #
vertex $-1 $187 $388 #
vertex $-1 $292 $389 #
straight-curve $-1 52.262337107455672 0 -11.085746271327414 0 -1 0 I I #
coedge $-1 $272 $274 $188 $284 reversed $181 $-1 #
edge $-1 $287 -35.741014047857028 $290 35.741014047857028 $283 $390 forward 7 unknown #
coedge $-1 $278 $189 $194 $293 forward $270 $-1 #
coedge $-1 $189 $278 $272 $381 reversed $270 $-1 #
vertex $-1 $190 $391 #
straight-curve $-1 0 35.741014047857028 11.085746271327414 -1 0 0 I I #
coedge $-1 $191 $273 $193 $292 reversed $114 $-1 #
vertex $-1 $284 $392 #
straight-curve $-1 0 -35.741014047857028 11.085746271327414 1 0 0 I I #
edge $-1 $196 -11.085746271327414 $281 11.085746271327414 $193 $393 forward 7 unknown #
edge $-1 $197 -11.085746271327414 $280 11.085746271327414 $194 $394 forward 7 unknown #
point $-1 52.262337107455672 -35.741014047857028 11.085746271327414 #
point $-1 52.262337107455672 35.741014047857028 11.085746271327414 #
face $-1 $-1 $214 $28 $-1 $395 reversed single #
loop $-1 $-1 $305 $199 #
plane-surface $-1 0 0 11.085746271327414 0 0 1 1 0 0 forward_v I I I I #
coedge $-1 $311 $310 $203 $304 forward $200 $-1 #
coedge $-1 $205 $202 $311 $396 reversed $122 $-1 #
coedge $-1 $202 $205 $314 $397 reversed $122 $-1 #
edge $-1 $316 -11.085746271327414 $312 11.085746271327414 $202 $398 forward 7 unknown #
coedge $-1 $204 $203 $318 $399 reversed $77 $-1 #
edge $-1 $400 -28.139619761981709 $308 -20.105814928966215 $299 $401 forward 7 unknown #
coedge $-1 $315 $314 $204 $306 forward $297 $-1 #
edge $-1 $307 20.105814928966215 $402 28.139619761981709 $305 $403 forward 7 unknown #
vertex $-1 $306 $404 #
vertex $-1 $304 $405 #
straight-curve $-1 -44.228532274440177 -19.188176506960861 0 0 0 -1 I I #
coedge $-1 $299 $208 $213 $320 forward $200 $-1 #
coedge $-1 $208 $299 $300 $396 forward $200 $-1 #
vertex $-1 $209 $406 #
straight-curve $-1 -24.122717345473962 -24.684868900840574 -11.085746271327414 -1 0 0 I I #
coedge $-1 $305 $210 $301 $397 forward $297 $-1 #
coedge $-1 $210 $305 $212 $319 forward $297 $-1 #
vertex $-1 $211 $407 #
straight-curve $-1 -24.122717345473962 -24.684868900840574 11.085746271327414 1 0 0 I I #
coedge $-1 $213 $212 $303 $399 forward $214 $-1 #
edge $-1 $402 19.188176506960861 $216 24.684868900840574 $212 $408 forward 7 unknown #
edge $-1 $215 -24.684868900840574 $400 -19.188176506960861 $213 $409 forward 7 unknown #
point $-1 -52.262337107455672 -24.684868900840574 -11.085746271327414 #
point $-1 -52.262337107455672 -24.684868900840574 11.085746271327414 #
loop $-1 $-1 $227 $218 #
plane-surface $-1 52.262337107455672 0 0 -1 0 0 0 0 1 forward_v I I I I #
coedge $-1 $410 $221 $226 $331 forward $130 $-1 #
coedge $-1 $221 $410 $328 $411 reversed $130 $-1 #
edge $-1 $329 28.568123876237081 $336 39.231902127179069 $221 $412 forward 7 unknown #
coedge $-1 $230 $224 $326 $411 forward $219 $-1 #
vertex $-1 $411 $413 #
straight-curve $-1 30.5079409906688 -52.15768557637962 11.085746271327416 0 -1 0 I I #
edge $-1 $336 9.8153714661376803 $334 31.569767582924559 $325 $414 forward 7 unknown #
coedge $-1 $333 $227 $230 $338 reversed $323 $-1 #
coedge $-1 $227 $332 $410 $415 forward $323 $-1 #
vertex $-1 $331 $416 #
straight-curve $-1 52.262337107455672 -25.666679148307701 9.1794539278569562 0 0.75470957328743171 0.6560590369687036 I I #
vertex $-1 $331 $417 #
straight-curve $-1 30.5079409906688 -35.741014047857021 0.42196802038543524 0 0.75470957328743171 0.6560590369687036 I I #
edge $-1 $418 -35.741014047857028 $231 -23.473740708271674 $332 $419 forward 7 unknown #
point $-1 52.262337107455679 -23.473740708271674 11.085746271327414 #
point $-1 30.5079409906688 -23.473740708271674 11.085746271327414 #
edge $-1 $420 1 $420 0 $234 $-1 forward 7 unknown #
vertex $-1 $235 $421 #
ellipse-curve $-1 36.723482738322183 -25.702697871559746 1.262037297151485 0 -0.6560590369687036 0.75470957328743171 2 0 0 1 I I #
point $-1 38.723482738322183 -29.607377378064356 5.75385714585643 #
edge $-1 $422 1 $422 0 $238 $-1 forward 7 unknown #
vertex $-1 $239 $423 #
ellipse-curve $-1 46.046795359802267 -25.702697871559746 1.262037297151485 0 -0.6560590369687036 0.75470957328743171 2 0 0 1 I I #
point $-1 48.046795359802267 -29.607377378064356 5.75385714585643 #
loop $-1 $-1 $250 $242 #
plane-surface $-1 0 35.741014047857028 0 0 -1 0 0 0 -1 forward_v I I I I #
coedge $-1 $352 $245 $247 $356 reversed $152 $-1 #
coedge $-1 $245 $351 $424 $425 reversed $152 $-1 #
coedge $-1 $253 $248 $245 $354 forward $243 $-1 #
edge $-1 $357 -1.5635899462376308 $426 8.3670010531214096 $353 $427 forward 7 unknown #
coedge $-1 $247 $246 $360 $428 reversed $95 $-1 #
edge $-1 $429 -71.482028095714043 $357 -57.903658176969387 $351 $430 forward 7 unknown #
vertex $-1 $249 $431 #
straight-curve $-1 -17.478069360293496 25.810423048497988 11.085746271327416 1 0 0 I I #
coedge $-1 $424 $250 $253 $364 reversed $349 $-1 #
coedge $-1 $250 $424 $355 $428 forward $349 $-1 #
vertex $-1 $251 $432 #
straight-curve $-1 -39.88846031460556 35.741014047857028 63.510226633212746 0 0 1 I I #
straight-curve $-1 -39.88846031460556 -16.5376312586965 50.575946659147931 0 0.7313536940579346 -0.68199836817093118 I I #
edge $-1 $426 30.023817126568421 $254 39.88846031460556 $359 $433 forward 7 unknown #
point $-1 -39.88846031460556 35.741014047857028 11.085746271327414 #
point $-1 -39.88846031460556 25.810423048497988 11.085746271327416 #
edge $-1 $434 1 $434 0 $257 $-1 forward 7 unknown #
vertex $-1 $258 $435 #
ellipse-curve $-1 -37.915531676998128 29.762857206294338 5.369372421338805 0 0.68199836817093118 0.7313536940579346 0.5 0 0 1 I I #
point $-1 -37.415531676998128 30.775718548177515 6.4555332078248524 #
edge $-1 $436 1 $436 0 $261 $-1 forward 7 unknown #
vertex $-1 $262 $437 #
ellipse-curve $-1 -34.956138720586992 29.762857206294338 5.369372421338805 0 0.68199836817093118 0.7313536940579346 0.5 0 0 1 I I #
point $-1 -34.456138720586992 30.775718548177515 6.4555332078248524 #
edge $-1 $438 1 $438 0 $265 $-1 forward 7 unknown #
vertex $-1 $266 $439 #
ellipse-curve $-1 -31.996745764175849 29.762857206294338 5.369372421338805 0 0.68199836817093118 0.7313536940579346 0.5 0 0 1 I I #
point $-1 -31.496745764175849 30.775718548177515 6.4555332078248524 #
plane-surface $-1 52.262337107455672 0 0 -1 0 0 0 0 1 forward_v I I I I #
coedge $-1 $274 $272 $276 $384 reversed $181 $-1 #
edge $-1 $287 -11.085746271327414 $386 11.085746271327414 $286 $440 forward 7 unknown #
vertex $-1 $384 $441 #
straight-curve $-1 -52.262337107455672 -35.741014047857028 0 0 0 -1 I I #
edge $-1 $382 -35.741014047857028 $386 35.741014047857028 $380 $442 forward 7 unknown #
straight-curve $-1 0 -35.741014047857028 -11.085746271327414 -1 0 0 I I #
vertex $-1 $279 $443 #
straight-curve $-1 0 35.741014047857028 -11.085746271327414 1 0 0 I I #
point $-1 52.262337107455672 35.741014047857028 -11.085746271327414 #
point $-1 52.262337107455672 -35.741014047857028 -11.085746271327414 #
straight-curve $-1 -52.262337107455672 0 11.085746271327414 0 -1 0 I I #
point $-1 -52.262337107455672 35.741014047857028 11.085746271327414 #
point $-1 -52.262337107455672 -35.741014047857028 11.085746271327414 #
straight-curve $-1 52.262337107455672 -35.741014047857028 0 0 0 -1 I I #
straight-curve $-1 52.262337107455672 35.741014047857028 0 0 0 -1 I I #
plane-surface $-1 -52.262337107455672 0 0 1 0 0 0 0 -1 forward_v I I I I #
edge $-1 $308 8.2199151550105025 $312 13.716607548890215 $311 $444 forward 7 unknown #
edge $-1 $316 -13.716607548890215 $307 -8.2199151550105025 $314 $445 forward 7 unknown #
straight-curve $-1 -44.228532274440177 -24.684868900840574 0 0 0 -1 I I #
edge $-1 $402 -11.085746271327414 $400 11.085746271327414 $318 $446 forward 7 unknown #
vertex $-1 $399 $447 #
straight-curve $-1 -24.122717345473962 -19.188176506960861 -11.085746271327414 1 0 0 I I #
vertex $-1 $319 $448 #
straight-curve $-1 -24.122717345473962 -19.188176506960861 11.085746271327414 -1 0 0 I I #
point $-1 -44.228532274440177 -19.188176506960861 11.085746271327414 #
point $-1 -44.228532274440177 -19.188176506960861 -11.085746271327414 #
point $-1 -44.228532274440177 -24.684868900840574 -11.085746271327414 #
point $-1 -44.228532274440177 -24.684868900840574 11.085746271327414 #
straight-curve $-1 -52.262337107455672 0 11.085746271327414 0 -1 0 I I #
straight-curve $-1 -52.262337107455672 0 -11.085746271327414 0 1 0 I I #
coedge $-1 $326 $325 $333 $415 reversed $130 $-1 #
edge $-1 $329 30.5079409906688 $418 52.262337107455672 $326 $449 forward 7 unknown #
straight-curve $-1 30.5079409906688 -35.741014047857028 39.653870147564497 0 0 -1 I I #
point $-1 30.5079409906688 -35.741014047857028 11.085746271327414 #
straight-curve $-1 20.69256952453112 -35.741014047857028 0.42196802038542536 1 0 0 I I #
edge $-1 $418 -11.085746271327414 $334 -0.42196802038542908 $333 $450 forward 7 unknown #
point $-1 52.262337107455679 -35.741014047857028 0.42196802038542908 #
point $-1 30.5079409906688 -35.741014047857028 0.42196802038542908 #
vertex $-1 $338 $451 #
straight-curve $-1 52.262337107455672 0 11.085746271327414 0 1 0 I I #
vertex $-1 $341 $452 #
point $-1 38.723482738322183 -25.702697871559746 1.262037297151485 #
vertex $-1 $345 $453 #
point $-1 48.046795359802267 -25.702697871559746 1.262037297151485 #
coedge $-1 $360 $359 $352 $425 forward $349 $-1 #
edge $-1 $426 52.42448036188533 $429 61.684906488890448 $424 $454 forward 7 unknown #
vertex $-1 $364 $455 #
straight-curve $-1 -30.023817126568421 27.374012994735619 11.085746271327416 0 1 0 I I #
edge $-1 $429 12.545747766274925 $361 22.410390954312064 $360 $456 forward 7 unknown #
vertex $-1 $428 $457 #
straight-curve $-1 -30.023817126568421 -16.5376312586965 50.575946659147931 0 -0.7313536940579346 0.68199836817093118 I I #
point $-1 -30.023817126568421 25.810423048497988 11.085746271327416 #
point $-1 -39.88846031460556 35.741014047857036 1.8253201443222977 #
straight-curve $-1 0 35.741014047857028 11.085746271327414 -1 0 0 I I #
vertex $-1 $367 $458 #
point $-1 -37.415531676998128 29.762857206294338 5.369372421338805 #
vertex $-1 $371 $459 #
point $-1 -34.456138720586992 29.762857206294338 5.369372421338805 #
vertex $-1 $375 $460 #
point $-1 -31.496745764175849 29.762857206294338 5.369372421338805 #
straight-curve $-1 -52.262337107455672 35.741014047857028 0 0 0 -1 I I #
point $-1 -52.262337107455672 -35.741014047857028 -11.085746271327414 #
straight-curve $-1 -52.262337107455672 0 -11.085746271327414 0 1 0 I I #
point $-1 -52.262337107455672 35.741014047857028 -11.085746271327414 #
straight-curve $-1 -44.228532274440177 -10.968261351950359 -11.085746271327414 0 -1 0 I I #
straight-curve $-1 -44.228532274440177 -10.968261351950359 11.085746271327414 0 1 0 I I #
straight-curve $-1 -52.262337107455672 -19.188176506960861 0 0 0 -1 I I #
point $-1 -52.262337107455672 -19.188176506960861 -11.085746271327414 #
point $-1 -52.262337107455672 -19.188176506960861 11.085746271327414 #
straight-curve $-1 0 -35.741014047857028 11.085746271327414 1 0 0 I I #
straight-curve $-1 52.262337107455672 -35.741014047857028 0 0 0 -1 I I #
point $-1 52.262337107455672 -35.741014047857028 11.085746271327414 #
point $-1 36.723482738322183 -24.39057979762234 -0.24738184942337849 #
point $-1 46.046795359802267 -24.39057979762234 -0.24738184942337849 #
straight-curve $-1 -30.023817126568421 35.741014047857028 63.510226633212746 0 0 -1 I I #
point $-1 -30.023817126568421 35.741014047857028 11.085746271327414 #
straight-curve $-1 -17.478069360293496 35.741014047857028 1.8253201443223048 -1 0 0 I I #
point $-1 -30.023817126568421 35.741014047857036 1.8253201443222977 #
point $-1 -37.915531676998128 29.42185802220887 5.0036955743098384 #
point $-1 -34.956138720586992 29.42185802220887 5.0036955743098384 #
point $-1 -31.996745764175849 29.42185802220887 5.0036955743098384 #
End-of-ACIS-data 