500 0 9 0           
7 Unknown 11 ACIS 5.0 NT 24 Thu Mar 25 18:04:54 1999 
-1 9.9999999999999995e-007 1e-010 
body $-1 $9 $-1 $10 #
body $-1 $11 $-1 $12 #
body $-1 $13 $-1 $14 #
body $-1 $15 $-1 $16 #
body $-1 $17 $-1 $18 #
body $-1 $19 $-1 $20 #
body $-1 $21 $-1 $22 #
body $-1 $23 $-1 $24 #
body $-1 $25 $-1 $26 #
lump $-1 $-1 $27 $0 #
transform $-1 1 0 0 0 1 0 0 0 1 63.249000518814661 33.274104917855745 14.125577002436865 1 rotate no_reflect no_shear #
lump $-1 $-1 $28 $1 #
transform $-1 1 0 0 0 1 0 0 0 1 63.249000518814661 33.274104917855745 14.125577002436865 1 rotate no_reflect no_shear #
lump $-1 $-1 $29 $2 #
transform $-1 1 0 0 0 1 0 0 0 1 63.249000518814661 33.274104917855745 14.125577002436865 1 rotate no_reflect no_shear #
lump $-1 $-1 $30 $3 #
transform $-1 1 0 0 0 1 0 0 0 1 63.249000518814661 33.274104917855745 14.125577002436865 1 rotate no_reflect no_shear #
lump $-1 $-1 $31 $4 #
transform $-1 1 0 0 0 1 0 0 0 1 63.249000518814661 33.274104917855745 14.125577002436865 1 rotate no_reflect no_shear #
lump $-1 $-1 $32 $5 #
transform $-1 1 0 0 0 1 0 0 0 1 63.249000518814661 33.274104917855745 14.125577002436865 1 rotate no_reflect no_shear #
lump $-1 $-1 $33 $6 #
transform $-1 1 0 0 0 1 0 0 0 1 63.249000518814661 33.274104917855745 14.125577002436865 1 rotate no_reflect no_shear #
lump $-1 $-1 $34 $7 #
transform $-1 1 0 0 0 1 0 0 0 1 63.249000518814661 33.274104917855745 14.125577002436865 1 rotate no_reflect no_shear #
lump $-1 $-1 $35 $8 #
transform $-1 1 0 0 0 1 0 0 0 1 63.249000518814661 33.274104917855745 14.125577002436865 1 rotate no_reflect no_shear #
shell $-1 $-1 $-1 $36 $-1 $9 #
shell $-1 $-1 $-1 $37 $-1 $11 #
shell $-1 $-1 $-1 $38 $-1 $13 #
shell $-1 $-1 $-1 $39 $-1 $15 #
shell $-1 $-1 $-1 $40 $-1 $17 #
shell $-1 $-1 $-1 $41 $-1 $19 #
shell $-1 $-1 $-1 $42 $-1 $21 #
shell $-1 $-1 $-1 $43 $-1 $23 #
shell $-1 $-1 $-1 $44 $-1 $25 #
face $-1 $45 $46 $27 $-1 $47 forward single #
face $-1 $48 $49 $28 $-1 $50 forward single #
face $-1 $51 $52 $29 $-1 $53 forward single #
face $-1 $54 $55 $30 $-1 $56 reversed single #
face $-1 $57 $58 $31 $-1 $59 forward single #
face $-1 $60 $61 $32 $-1 $62 reversed single #
face $-1 $63 $64 $33 $-1 $65 forward single #
face $-1 $66 $67 $34 $-1 $68 forward single #
face $-1 $69 $70 $35 $-1 $71 forward single #
face $-1 $72 $73 $27 $-1 $74 reversed single #
loop $-1 $-1 $75 $36 #
plane-surface $-1 0 0 14.125577002436865 0 0 1 1 0 0 forward_v I I I I #
face $-1 $76 $77 $28 $-1 $78 reversed single #
loop $-1 $-1 $79 $37 #
plane-surface $-1 0 -33.274104917855745 0 0 1 0 0 0 1 forward_v I I I I #
face $-1 $80 $81 $29 $-1 $82 reversed single #
loop $-1 $-1 $83 $38 #
plane-surface $-1 0 25.552789578129591 -9.1629372326485807 0 0 1 1 0 0 forward_v I I I I #
face $-1 $84 $85 $30 $-1 $86 reversed single #
loop $-1 $-1 $87 $39 #
plane-surface $-1 -154.24404837066788 2.300036600174316 91.141947057522756 0 -1 0 0.71933980857756763 0 -0.69465836192734942 forward_v I I I I #
face $-1 $88 $89 $31 $-1 $90 forward single #
loop $-1 $91 $92 $40 #
cone-surface $-1 -55.109224185030627 -2.9186520479916709 5.8989761461424663 0.71933980857756763 0 -0.69465836192734942 1.7366459048183736 0 1.7983495214439191 1 I I 0 1 2.5 forward I I I I #
face $-1 $93 $94 $32 $-1 $95 reversed single #
loop $-1 $-1 $96 $41 #
plane-surface $-1 88.146401095168414 -0.2688861227546866 181.72706387556045 0 -1 0 -0.79863551827123203 0 -0.60181501223851219 forward_v I I I I #
face $-1 $97 $98 $33 $-1 $99 forward single #
loop $-1 $100 $101 $42 #
cone-surface $-1 58.904264629084025 -9.5486818445562172 8.7874526513946236 -0.79863551827123203 0 -0.60181501223851219 0.3009075061192561 0 -0.39931775913561601 1 I I 0 1 0.5 forward I I I I #
face $-1 $102 $103 $34 $-1 $104 forward single #
loop $-1 $105 $106 $43 #
cone-surface $-1 58.904264629084025 -6.0687584488806436 8.7874526513946236 -0.79863551827123203 0 -0.60181501223851219 0.3009075061192561 0 -0.39931775913561601 1 I I 0 1 0.5 forward I I I I #
face $-1 $107 $108 $35 $-1 $109 forward single #
loop $-1 $110 $111 $44 #
cone-surface $-1 58.904264629084025 -2.5888350532050701 8.7874526513946236 -0.79863551827123203 0 -0.60181501223851219 0.3009075061192561 0 -0.39931775913561601 1 I I 0 1 0.5 forward I I I I #
face $-1 $112 $113 $27 $-1 $114 reversed single #
loop $-1 $-1 $115 $45 #
plane-surface $-1 0 0 -14.125577002436865 0 0 1 1 0 0 forward_v I I I I #
coedge $-1 $116 $117 $118 $119 forward $46 $-1 #
face $-1 $120 $121 $28 $-1 $122 forward single #
loop $-1 $-1 $123 $48 #
plane-surface $-1 -63.249000518814661 0 0 1 0 0 0 0 -1 forward_v I I I I #
coedge $-1 $124 $125 $126 $127 forward $49 $-1 #
face $-1 $128 $129 $29 $-1 $130 reversed single #
loop $-1 $-1 $131 $51 #
plane-surface $-1 0 17.831474238403437 -11.644257117542722 0 1 0 0 0 1 forward_v I I I I #
coedge $-1 $132 $133 $134 $135 reversed $52 $-1 #
face $-1 $136 $137 $30 $-1 $138 reversed single #
loop $-1 $-1 $139 $54 #
plane-surface $-1 -63.24900051881464 -2.9186520479916709 3.2690528696390118 -0.71933980857756763 0 0.69465836192734942 0.69465836192734942 0 0.71933980857756763 forward_v I I I I #
coedge $-1 $140 $141 $142 $143 reversed $55 $-1 #
face $-1 $-1 $144 $31 $-1 $145 forward single #
loop $-1 $146 $147 $57 #
cone-surface $-1 -51.312284710336762 -2.9186520479916709 2.2323144038377958 0.71933980857756763 0 -0.69465836192734942 0.86832295240918678 0 0.89917476072195957 1 I I -0.70710678118654746 0.70710678118654746 1.25 forward I I I I #
loop $-1 $-1 $148 $40 #
coedge $-1 $92 $92 $149 $150 reversed $58 $-1 #
face $-1 $151 $152 $32 $-1 $153 reversed single #
loop $-1 $-1 $154 $60 #
plane-surface $-1 -12.879395523793534 -6.0687584488806436 105.59866783295222 0.79863551827123203 0 0.60181501223851219 0.60181501223851219 0 -0.79863551827123203 forward_v I I I I #
coedge $-1 $155 $156 $157 $158 reversed $61 $-1 #
face $-1 $-1 $159 $33 $-1 $160 forward single #
loop $-1 $161 $162 $63 #
cone-surface $-1 57.959109825614654 -9.5486818445562172 8.0752274415160539 -0.79863551827123203 0 -0.60181501223851219 0.15045375305962805 0 -0.19965887956780801 1 I I -0.70710678118654746 0.70710678118654746 0.25 forward I I I I #
loop $-1 $-1 $163 $42 #
coedge $-1 $101 $101 $164 $165 reversed $64 $-1 #
face $-1 $-1 $166 $34 $-1 $167 forward single #
loop $-1 $168 $169 $66 #
cone-surface $-1 57.959109825614654 -6.0687584488806436 8.0752274415160539 -0.79863551827123203 0 -0.60181501223851219 0.15045375305962805 0 -0.19965887956780801 1 I I -0.70710678118654746 0.70710678118654746 0.25 forward I I I I #
loop $-1 $-1 $170 $43 #
coedge $-1 $106 $106 $171 $172 reversed $67 $-1 #
face $-1 $-1 $173 $35 $-1 $174 forward single #
loop $-1 $175 $176 $69 #
cone-surface $-1 57.959109825614654 -2.5888350532050701 8.0752274415160539 -0.79863551827123203 0 -0.60181501223851219 0.15045375305962805 0 -0.19965887956780801 1 I I -0.70710678118654746 0.70710678118654746 0.25 forward I I I I #
loop $-1 $-1 $177 $44 #
coedge $-1 $111 $111 $178 $179 reversed $70 $-1 #
face $-1 $180 $181 $27 $-1 $182 reversed single #
loop $-1 $-1 $183 $72 #
plane-surface $-1 0 -33.274104917855745 0 0 1 0 0 0 1 forward_v I I I I #
coedge $-1 $184 $185 $186 $187 forward $73 $-1 #
coedge $-1 $188 $75 $189 $190 forward $46 $-1 #
coedge $-1 $75 $188 $191 $192 forward $46 $-1 #
coedge $-1 $193 $194 $75 $119 reversed $195 $-1 #
edge $-1 $196 -33.274104917855745 $197 33.274104917855745 $118 $198 forward 7 unknown #
face $-1 $199 $200 $28 $-1 $201 reversed single #
loop $-1 $-1 $202 $76 #
plane-surface $-1 0 -38.062299178753804 0.028080377993561889 0 0 1 1 0 0 forward_v I I I I #
coedge $-1 $203 $204 $125 $205 forward $77 $-1 #
coedge $-1 $206 $79 $207 $208 reversed $49 $-1 #
coedge $-1 $79 $206 $123 $205 reversed $49 $-1 #
coedge $-1 $209 $202 $79 $127 reversed $121 $-1 #
edge $-1 $210 -63.249000518814661 $211 63.249000518814661 $126 $212 forward 7 unknown #
face $-1 $213 $214 $29 $-1 $215 reversed single #
loop $-1 $-1 $134 $80 #
plane-surface $-1 63.249000518814661 0 0 -1 0 0 0 0 1 forward_v I I I I #
coedge $-1 $216 $217 $218 $219 reversed $81 $-1 #
coedge $-1 $220 $83 $221 $222 reversed $52 $-1 #
coedge $-1 $83 $220 $217 $223 forward $52 $-1 #
coedge $-1 $224 $225 $83 $135 forward $129 $-1 #
edge $-1 $226 -20.497710128790949 $227 -5.055079449338642 $134 $228 forward 7 unknown #
face $-1 $229 $230 $30 $-1 $231 reversed single #
loop $-1 $-1 $232 $84 #
plane-surface $-1 -154.24404837066788 -8.1373406961576578 91.141947057522756 0 1 0 -0.71933980857756763 0 0.69465836192734942 forward_v I I I I #
coedge $-1 $233 $234 $235 $236 reversed $85 $-1 #
coedge $-1 $141 $87 $237 $238 reversed $55 $-1 #
coedge $-1 $87 $140 $233 $239 reversed $55 $-1 #
coedge $-1 $235 $240 $87 $143 forward $230 $-1 #
edge $-1 $241 31.445396526324515 $242 42.301920659122388 $142 $243 forward 7 unknown #
loop $-1 $-1 $149 $88 #
plane-surface $-1 -63.24900051881464 -2.9186520479916709 3.2690528696390118 -0.71933980857756763 0 0.69465836192734942 0.69465836192734942 0 0.71933980857756763 forward_v I I I I #
loop $-1 $-1 $244 $57 #
coedge $-1 $147 $147 $148 $245 reversed $89 $-1 #
coedge $-1 $148 $148 $147 $245 forward $91 $-1 #
coedge $-1 $149 $149 $92 $150 forward $144 $-1 #
edge $-1 $246 0 $246 6.2831853071796004 $149 $247 forward 7 unknown #
face $-1 $248 $249 $32 $-1 $250 forward single #
loop $-1 $-1 $251 $93 #
plane-surface $-1 88.146401095168414 -11.868630775006601 181.72706387556045 0 1 0 0.79863551827123203 0 0.60181501223851219 forward_v I I I I #
coedge $-1 $252 $253 $254 $255 reversed $94 $-1 #
coedge $-1 $156 $96 $256 $257 reversed $61 $-1 #
coedge $-1 $96 $155 $252 $258 reversed $61 $-1 #
coedge $-1 $254 $259 $96 $158 forward $249 $-1 #
edge $-1 $260 -19.175799971230454 $261 -11.977320039572305 $157 $262 forward 7 unknown #
loop $-1 $-1 $164 $97 #
plane-surface $-1 -12.879395523793534 -6.0687584488806436 105.59866783295222 0.79863551827123203 0 0.60181501223851219 0.60181501223851219 0 -0.79863551827123203 forward_v I I I I #
loop $-1 $-1 $263 $63 #
coedge $-1 $162 $162 $163 $264 reversed $98 $-1 #
coedge $-1 $163 $163 $162 $264 forward $100 $-1 #
coedge $-1 $164 $164 $101 $165 forward $159 $-1 #
edge $-1 $265 0 $265 6.2831853071796004 $164 $266 forward 7 unknown #
loop $-1 $-1 $171 $102 #
plane-surface $-1 -12.879395523793534 -6.0687584488806436 105.59866783295222 0.79863551827123203 0 0.60181501223851219 0.60181501223851219 0 -0.79863551827123203 forward_v I I I I #
loop $-1 $-1 $267 $66 #
coedge $-1 $169 $169 $170 $268 reversed $103 $-1 #
coedge $-1 $170 $170 $169 $268 forward $105 $-1 #
coedge $-1 $171 $171 $106 $172 forward $166 $-1 #
edge $-1 $269 0 $269 6.2831853071796004 $171 $270 forward 7 unknown #
loop $-1 $-1 $178 $107 #
plane-surface $-1 -12.879395523793534 -6.0687584488806436 105.59866783295222 0.79863551827123203 0 0.60181501223851219 0.60181501223851219 0 -0.79863551827123203 forward_v I I I I #
loop $-1 $-1 $271 $69 #
coedge $-1 $176 $176 $177 $272 reversed $108 $-1 #
coedge $-1 $177 $177 $176 $272 forward $110 $-1 #
coedge $-1 $178 $178 $111 $179 forward $173 $-1 #
edge $-1 $273 0 $273 6.2831853071796004 $178 $274 forward 7 unknown #
face $-1 $275 $276 $27 $-1 $277 reversed single #
loop $-1 $-1 $278 $112 #
plane-surface $-1 -63.249000518814661 0 0 1 0 0 0 0 -1 forward_v I I I I #
coedge $-1 $279 $191 $280 $281 forward $113 $-1 #
coedge $-1 $282 $115 $279 $283 forward $73 $-1 #
coedge $-1 $115 $282 $284 $285 forward $73 $-1 #
coedge $-1 $194 $193 $115 $187 reversed $195 $-1 #
edge $-1 $286 -33.274104917855745 $287 33.274104917855745 $186 $288 forward 7 unknown #
coedge $-1 $117 $116 $289 $290 forward $46 $-1 #
coedge $-1 $291 $292 $116 $190 reversed $276 $-1 #
edge $-1 $197 -63.249000518814661 $293 63.249000518814661 $189 $294 forward 7 unknown #
coedge $-1 $183 $295 $117 $192 reversed $113 $-1 #
edge $-1 $296 -63.249000518814661 $196 63.249000518814661 $191 $297 forward 7 unknown #
coedge $-1 $186 $118 $295 $298 forward $195 $-1 #
coedge $-1 $118 $186 $291 $299 reversed $195 $-1 #
loop $-1 $-1 $193 $275 #
vertex $-1 $119 $300 #
vertex $-1 $119 $301 #
straight-curve $-1 63.249000518814661 0 14.125577002436865 0 1 0 I I #
face $-1 $302 $303 $28 $-1 $304 reversed single #
loop $-1 $-1 $305 $120 #
plane-surface $-1 0 -38.062299178753804 -4.7329809803948537 0 0 1 1 0 0 forward_v I I I I #
coedge $-1 $126 $306 $307 $308 forward $121 $-1 #
coedge $-1 $309 $123 $310 $311 reversed $77 $-1 #
coedge $-1 $123 $309 $209 $312 reversed $77 $-1 #
edge $-1 $210 -0.028080377993561889 $313 4.7329809803948537 $123 $314 forward 7 unknown #
coedge $-1 $125 $124 $315 $316 forward $49 $-1 #
coedge $-1 $307 $317 $124 $208 forward $318 $-1 #
edge $-1 $319 -4.7329809803948537 $211 0.028080377993561889 $207 $320 forward 7 unknown #
coedge $-1 $306 $126 $204 $312 forward $121 $-1 #
vertex $-1 $205 $321 #
vertex $-1 $308 $322 #
straight-curve $-1 0 -33.274104917855745 0.028080377993561889 1 0 0 I I #
face $-1 $323 $324 $29 $-1 $325 reversed single #
loop $-1 $-1 $326 $128 #
plane-surface $-1 0 0 -14.125577002436865 0 0 1 1 0 0 forward_v I I I I #
coedge $-1 $327 $131 $326 $328 reversed $81 $-1 #
coedge $-1 $131 $327 $133 $223 reversed $81 $-1 #
coedge $-1 $329 $330 $131 $219 forward $324 $-1 #
edge $-1 $331 -8.3034484436655021 $332 -3.3408086738772198 $218 $333 forward 7 unknown #
coedge $-1 $133 $132 $329 $334 reversed $52 $-1 #
coedge $-1 $335 $336 $132 $222 forward $337 $-1 #
edge $-1 $338 -63.249000518814661 $226 63.249000518814661 $221 $339 forward 7 unknown #
edge $-1 $332 -63.249000518814661 $227 63.249000518814661 $217 $340 forward 7 unknown #
coedge $-1 $341 $134 $327 $342 forward $129 $-1 #
coedge $-1 $134 $341 $335 $343 reversed $129 $-1 #
vertex $-1 $343 $344 #
vertex $-1 $135 $345 #
straight-curve $-1 63.249000518814661 12.776394789064796 -9.1629372326485807 0 -1 0 I I #
face $-1 $-1 $346 $30 $-1 $347 forward single #
loop $-1 $-1 $142 $136 #
plane-surface $-1 -63.249000518814661 0 0 1 0 0 0 0 -1 forward_v I I I I #
coedge $-1 $348 $349 $350 $351 reversed $137 $-1 #
coedge $-1 $352 $139 $141 $239 forward $85 $-1 #
coedge $-1 $139 $352 $348 $353 forward $85 $-1 #
coedge $-1 $350 $142 $139 $236 forward $230 $-1 #
edge $-1 $242 -3.7593626241701514 $354 6.6780146721618223 $235 $355 forward 7 unknown #
coedge $-1 $356 $357 $140 $238 forward $346 $-1 #
edge $-1 $358 -24.357046906143573 $241 -13.873023666519281 $237 $359 forward 7 unknown #
edge $-1 $242 -3.0780085947320026e-014 $358 15.092344401550211 $141 $360 forward 7 unknown #
coedge $-1 $142 $350 $356 $361 reversed $230 $-1 #
vertex $-1 $361 $362 #
vertex $-1 $143 $363 #
straight-curve $-1 -63.249000518814661 2.300036600174316 45.570973528761378 0 0 -1 I I #
coedge $-1 $244 $244 $-1 $364 reversed $146 $-1 #
edge $-1 $365 0 $365 6.2831853071796004 $147 $366 forward 7 unknown #
vertex $-1 $150 $367 #
ellipse-curve $-1 -58.006988899002515 -2.9186520479916709 8.6973149360379303 -0.71933980857756763 0 0.69465836192734942 1.7366459048183736 0 1.7983495214439191 1 I I #
face $-1 $-1 $368 $32 $-1 $369 reversed single #
loop $-1 $-1 $157 $151 #
plane-surface $-1 0 0 14.125577002436865 0 0 1 1 0 0 forward_v I I I I #
coedge $-1 $370 $371 $372 $373 reversed $152 $-1 #
coedge $-1 $374 $154 $156 $258 forward $94 $-1 #
coedge $-1 $154 $374 $370 $375 forward $94 $-1 #
coedge $-1 $372 $157 $154 $255 forward $249 $-1 #
edge $-1 $261 -2.7654931016856352 $376 8.8342515505662789 $254 $377 forward 7 unknown #
coedge $-1 $378 $379 $155 $257 forward $368 $-1 #
edge $-1 $380 -86.290660723789898 $260 -76.737954935343353 $256 $381 forward 7 unknown #
edge $-1 $261 114.53671761121113 $380 126.49800103762925 $156 $382 forward 7 unknown #
coedge $-1 $157 $372 $378 $383 forward $249 $-1 #
vertex $-1 $257 $384 #
vertex $-1 $158 $385 #
straight-curve $-1 44.073200547584207 -0.2688861227546866 14.12557700243687 -1 0 0 I I #
coedge $-1 $263 $263 $-1 $386 reversed $161 $-1 #
edge $-1 $387 0 $387 6.2831853071796004 $162 $388 forward 7 unknown #
vertex $-1 $165 $389 #
ellipse-curve $-1 59.649760552985597 -9.5486818445562172 9.3492241082135727 0.79863551827123203 0 0.60181501223851219 0.3009075061192561 0 -0.39931775913561601 1 I I #
coedge $-1 $267 $267 $-1 $390 reversed $168 $-1 #
edge $-1 $391 0 $391 6.2831853071796004 $169 $392 forward 7 unknown #
vertex $-1 $172 $393 #
ellipse-curve $-1 59.649760552985597 -6.0687584488806436 9.3492241082135727 0.79863551827123203 0 0.60181501223851219 0.3009075061192561 0 -0.39931775913561601 1 I I #
coedge $-1 $271 $271 $-1 $394 reversed $175 $-1 #
edge $-1 $395 0 $395 6.2831853071796004 $176 $396 forward 7 unknown #
vertex $-1 $179 $397 #
ellipse-curve $-1 59.649760552985597 -2.5888350532050701 9.3492241082135727 0.79863551827123203 0 0.60181501223851219 0.3009075061192561 0 -0.39931775913561601 1 I I #
face $-1 $-1 $195 $27 $-1 $398 reversed single #
loop $-1 $-1 $291 $180 #
plane-surface $-1 0 33.274104917855745 0 0 -1 0 0 0 -1 forward_v I I I I #
coedge $-1 $399 $289 $292 $400 forward $181 $-1 #
coedge $-1 $295 $183 $184 $283 reversed $113 $-1 #
coedge $-1 $289 $399 $183 $281 reversed $181 $-1 #
edge $-1 $296 -14.125577002436865 $401 14.125577002436865 $280 $402 forward 7 unknown #
coedge $-1 $185 $184 $399 $403 forward $73 $-1 #
edge $-1 $287 -63.249000518814661 $401 63.249000518814661 $279 $404 forward 7 unknown #
coedge $-1 $292 $291 $185 $285 reversed $276 $-1 #
edge $-1 $405 -63.249000518814661 $286 63.249000518814661 $284 $406 forward 7 unknown #
vertex $-1 $187 $407 #
vertex $-1 $298 $408 #
straight-curve $-1 63.249000518814661 0 -14.125577002436865 0 -1 0 I I #
coedge $-1 $278 $280 $188 $290 reversed $181 $-1 #
edge $-1 $293 -33.274104917855745 $296 33.274104917855745 $289 $409 forward 7 unknown #
coedge $-1 $284 $189 $194 $299 forward $276 $-1 #
coedge $-1 $189 $284 $278 $400 reversed $276 $-1 #
vertex $-1 $190 $410 #
straight-curve $-1 0 33.274104917855745 14.125577002436865 -1 0 0 I I #
coedge $-1 $191 $279 $193 $298 reversed $113 $-1 #
vertex $-1 $290 $411 #
straight-curve $-1 0 -33.274104917855745 14.125577002436865 1 0 0 I I #
edge $-1 $196 -14.125577002436865 $287 14.125577002436865 $193 $412 forward 7 unknown #
edge $-1 $197 -14.125577002436865 $286 14.125577002436865 $194 $413 forward 7 unknown #
point $-1 63.249000518814661 -33.274104917855745 14.125577002436865 #
point $-1 63.249000518814661 33.274104917855745 14.125577002436865 #
face $-1 $-1 $318 $28 $-1 $414 reversed single #
loop $-1 $-1 $415 $199 #
plane-surface $-1 0 -42.850493439651856 -2.3524503012006459 0 1 0 0 0 1 forward_v I I I I #
coedge $-1 $416 $315 $317 $417 forward $200 $-1 #
coedge $-1 $202 $209 $418 $419 forward $121 $-1 #
coedge $-1 $420 $207 $202 $308 reversed $318 $-1 #
edge $-1 $421 -4.7881942608980523 $211 4.7881942608980523 $307 $422 forward 7 unknown #
coedge $-1 $204 $203 $415 $423 reversed $77 $-1 #
coedge $-1 $315 $416 $203 $311 forward $200 $-1 #
edge $-1 $424 -4.7881942608980523 $313 4.7881942608980523 $203 $425 forward 7 unknown #
edge $-1 $210 -4.7881942608980523 $426 4.7881942608980523 $204 $427 forward 7 unknown #
vertex $-1 $205 $428 #
straight-curve $-1 -63.249000518814661 -33.274104917855745 0 0 0 -1 I I #
coedge $-1 $305 $310 $206 $316 reversed $200 $-1 #
edge $-1 $319 -63.249000518814661 $313 63.249000518814661 $315 $429 forward 7 unknown #
coedge $-1 $207 $420 $305 $417 reversed $318 $-1 #
loop $-1 $-1 $207 $302 #
vertex $-1 $208 $430 #
straight-curve $-1 63.249000518814661 -33.274104917855745 0 0 0 1 I I #
point $-1 -63.249000518814661 -33.274104917855752 0.028080377993561889 #
point $-1 63.249000518814661 -33.274104917855752 0.028080377993561889 #
face $-1 $-1 $337 $29 $-1 $431 reversed single #
loop $-1 $-1 $329 $213 #
plane-surface $-1 -63.249000518814661 0 0 1 0 0 0 0 -1 forward_v I I I I #
coedge $-1 $432 $433 $216 $328 forward $214 $-1 #
coedge $-1 $217 $216 $224 $342 reversed $81 $-1 #
edge $-1 $434 -63.249000518814661 $331 63.249000518814661 $326 $435 forward 7 unknown #
coedge $-1 $436 $218 $220 $334 forward $324 $-1 #
coedge $-1 $218 $436 $432 $437 reversed $324 $-1 #
vertex $-1 $437 $438 #
vertex $-1 $334 $439 #
straight-curve $-1 -63.249000518814661 17.831474238403437 -5.8221285587713609 0 0 1 I I #
edge $-1 $332 5.055079449338642 $338 20.497710128790949 $329 $440 forward 7 unknown #
coedge $-1 $441 $221 $225 $343 forward $337 $-1 #
coedge $-1 $221 $441 $436 $442 reversed $337 $-1 #
loop $-1 $-1 $221 $323 #
vertex $-1 $442 $443 #
straight-curve $-1 0 33.274104917855745 -9.1629372326485807 1 0 0 I I #
straight-curve $-1 0 17.831474238403437 -9.1629372326485807 1 0 0 I I #
coedge $-1 $225 $224 $433 $444 reversed $129 $-1 #
edge $-1 $227 3.3408086738772198 $434 8.3034484436655021 $224 $445 forward 7 unknown #
edge $-1 $226 9.1629372326485807 $446 14.125577002436865 $225 $447 forward 7 unknown #
point $-1 63.249000518814661 33.274104917855745 -9.1629372326485807 #
point $-1 63.249000518814661 17.831474238403437 -9.1629372326485807 #
loop $-1 $-1 $237 $229 #
plane-surface $-1 0 0 14.125577002436865 0 0 1 1 0 0 forward_v I I I I #
coedge $-1 $349 $232 $234 $353 reversed $137 $-1 #
coedge $-1 $232 $348 $448 $449 reversed $137 $-1 #
coedge $-1 $240 $235 $232 $351 forward $230 $-1 #
edge $-1 $354 -42.301920659122388 $450 -31.445396526324515 $350 $451 forward 7 unknown #
coedge $-1 $234 $233 $357 $452 reversed $85 $-1 #
edge $-1 $453 -15.092344401550211 $354 3.0780085947320026e-014 $348 $454 forward 7 unknown #
vertex $-1 $236 $455 #
straight-curve $-1 -63.249000518814661 -1.4593260239958354 3.2690528696389975 0 -1 0 I I #
coedge $-1 $448 $237 $240 $361 forward $346 $-1 #
coedge $-1 $237 $448 $352 $452 forward $346 $-1 #
vertex $-1 $238 $456 #
straight-curve $-1 -77.122024185333942 2.300036600174316 14.125577002436863 -1 0 0 I I #
straight-curve $-1 -63.24900051881464 2.300036600174316 3.2690528696390118 0.69465836192734942 0 0.71933980857756763 I I #
edge $-1 $241 -2.300036600174316 $450 8.1373406961576578 $240 $457 forward 7 unknown #
point $-1 -63.249000518814661 2.300036600174316 14.125577002436865 #
point $-1 -63.249000518814661 2.300036600174316 3.2690528696389896 #
edge $-1 $458 1 $458 0 $244 $-1 forward 7 unknown #
vertex $-1 $245 $459 #
ellipse-curve $-1 -52.211459471058724 -2.9186520479916709 3.1006373562469824 -0.71933980857756763 0 0.69465836192734942 1.7366459048183736 0 1.7983495214439191 1 I I #
point $-1 -56.270342994184162 -2.9186520479916709 10.495664457481871 #
loop $-1 $-1 $256 $248 #
plane-surface $-1 63.249000518814661 0 0 -1 0 0 0 0 1 forward_v I I I I #
coedge $-1 $371 $251 $253 $375 reversed $152 $-1 #
coedge $-1 $251 $370 $460 $461 reversed $152 $-1 #
coedge $-1 $259 $254 $251 $373 forward $249 $-1 #
edge $-1 $376 11.977320039572305 $462 19.175799971230454 $372 $463 forward 7 unknown #
coedge $-1 $253 $252 $379 $464 reversed $94 $-1 #
edge $-1 $465 -126.49800103762925 $376 -114.53671761121113 $370 $466 forward 7 unknown #
vertex $-1 $255 $467 #
straight-curve $-1 56.050520587156505 -3.0343792244403218 14.12557700243687 0 -1 0 I I #
coedge $-1 $460 $256 $259 $383 reversed $368 $-1 #
coedge $-1 $256 $460 $374 $464 forward $368 $-1 #
vertex $-1 $257 $468 #
straight-curve $-1 63.249000518814661 -0.2688861227546866 90.863531937780223 0 0 1 I I #
straight-curve $-1 -12.879395523793534 -0.2688861227546866 105.59866783295222 0.60181501223851219 0 -0.79863551827123203 I I #
edge $-1 $462 -11.868630775006601 $260 -0.2688861227546866 $378 $469 forward 7 unknown #
point $-1 63.249000518814661 -0.2688861227546866 14.125577002436865 #
point $-1 56.050520587156512 -0.2688861227546866 14.12557700243687 #
edge $-1 $470 1 $470 0 $263 $-1 forward 7 unknown #
vertex $-1 $264 $471 #
ellipse-curve $-1 58.15876870518246 -9.5486818445562172 8.2256811945756816 0.79863551827123203 0 0.60181501223851219 0.3009075061192561 0 -0.39931775913561601 1 I I #
point $-1 59.950668059104849 -9.5486818445562172 8.9499063490779509 #
edge $-1 $472 1 $472 0 $267 $-1 forward 7 unknown #
vertex $-1 $268 $473 #
ellipse-curve $-1 58.15876870518246 -6.0687584488806436 8.2256811945756816 0.79863551827123203 0 0.60181501223851219 0.3009075061192561 0 -0.39931775913561601 1 I I #
point $-1 59.950668059104849 -6.0687584488806436 8.9499063490779509 #
edge $-1 $474 1 $474 0 $271 $-1 forward 7 unknown #
vertex $-1 $272 $475 #
ellipse-curve $-1 58.15876870518246 -2.5888350532050701 8.2256811945756816 0.79863551827123203 0 0.60181501223851219 0.3009075061192561 0 -0.39931775913561601 1 I I #
point $-1 59.950668059104849 -2.5888350532050701 8.9499063490779509 #
plane-surface $-1 63.249000518814661 0 0 -1 0 0 0 0 1 forward_v I I I I #
coedge $-1 $280 $278 $282 $403 reversed $181 $-1 #
edge $-1 $293 -14.125577002436865 $405 14.125577002436865 $292 $476 forward 7 unknown #
vertex $-1 $403 $477 #
straight-curve $-1 -63.249000518814661 -33.274104917855745 0 0 0 -1 I I #
edge $-1 $401 -33.274104917855745 $405 33.274104917855745 $399 $478 forward 7 unknown #
straight-curve $-1 0 -33.274104917855745 -14.125577002436865 -1 0 0 I I #
vertex $-1 $285 $479 #
straight-curve $-1 0 33.274104917855745 -14.125577002436865 1 0 0 I I #
point $-1 63.249000518814661 33.274104917855745 -14.125577002436865 #
point $-1 63.249000518814661 -33.274104917855745 -14.125577002436865 #
straight-curve $-1 -63.249000518814661 0 14.125577002436865 0 -1 0 I I #
point $-1 -63.249000518814661 33.274104917855745 14.125577002436865 #
point $-1 -63.249000518814661 -33.274104917855745 14.125577002436865 #
straight-curve $-1 63.249000518814661 -33.274104917855745 0 0 0 -1 I I #
straight-curve $-1 63.249000518814661 33.274104917855745 0 0 0 -1 I I #
plane-surface $-1 63.249000518814661 0 0 -1 0 0 0 0 1 forward_v I I I I #
coedge $-1 $480 $418 $309 $423 forward $303 $-1 #
coedge $-1 $310 $305 $480 $481 forward $200 $-1 #
edge $-1 $319 -4.7881942608980523 $482 4.7881942608980523 $317 $483 forward 7 unknown #
coedge $-1 $415 $484 $306 $419 reversed $303 $-1 #
edge $-1 $426 -63.249000518814661 $421 63.249000518814661 $418 $485 forward 7 unknown #
coedge $-1 $317 $307 $484 $486 forward $318 $-1 #
vertex $-1 $308 $487 #
straight-curve $-1 63.249000518814661 -38.062299178753804 0.028080377993561889 0 1 0 I I #
edge $-1 $426 -2.3805306791942078 $424 2.3805306791942078 $309 $488 forward 7 unknown #
vertex $-1 $311 $489 #
straight-curve $-1 -63.249000518814661 -38.062299178753804 -4.7329809803948537 0 1 0 I I #
vertex $-1 $312 $490 #
straight-curve $-1 -63.249000518814661 -38.062299178753804 0.028080377993561889 0 -1 0 I I #
point $-1 -63.249000518814661 -33.274104917855752 -4.7329809803948537 #
straight-curve $-1 0 -33.274104917855745 -4.7329809803948537 -1 0 0 I I #
point $-1 63.249000518814661 -33.274104917855752 -4.7329809803948537 #
plane-surface $-1 0 33.274104917855745 0 0 -1 0 0 0 -1 forward_v I I I I #
coedge $-1 $491 $326 $330 $437 forward $214 $-1 #
coedge $-1 $326 $491 $341 $444 forward $214 $-1 #
vertex $-1 $328 $492 #
straight-curve $-1 0 17.831474238403437 -14.125577002436865 -1 0 0 I I #
coedge $-1 $330 $329 $336 $442 forward $324 $-1 #
edge $-1 $331 17.831474238403437 $493 33.274104917855745 $330 $494 forward 7 unknown #
point $-1 -63.249000518814661 17.831474238403437 -14.125577002436863 #
point $-1 -63.249000518814661 17.831474238403437 -9.1629372326485807 #
straight-curve $-1 -63.249000518814661 12.776394789064796 -9.1629372326485807 0 1 0 I I #
coedge $-1 $336 $335 $491 $495 reversed $337 $-1 #
edge $-1 $338 9.1629372326485807 $493 14.125577002436865 $336 $496 forward 7 unknown #
point $-1 -63.249000518814661 33.274104917855745 -9.1629372326485807 #
edge $-1 $446 -33.274104917855745 $434 -17.831474238403437 $341 $497 forward 7 unknown #
straight-curve $-1 63.249000518814661 17.831474238403437 -5.8221285587713609 0 0 -1 I I #
vertex $-1 $444 $498 #
straight-curve $-1 63.249000518814661 33.274104917855745 0 0 0 -1 I I #
coedge $-1 $357 $356 $349 $449 forward $346 $-1 #
edge $-1 $450 13.873023666519281 $453 24.357046906143573 $448 $499 forward 7 unknown #
vertex $-1 $449 $500 #
straight-curve $-1 -63.249000518814661 -8.1373406961576578 45.570973528761378 0 0 1 I I #
edge $-1 $453 -6.6780146721618223 $358 3.7593626241701514 $357 $501 forward 7 unknown #
vertex $-1 $452 $502 #
straight-curve $-1 -63.24900051881464 -8.1373406961576578 3.2690528696390118 -0.69465836192734942 0 -0.71933980857756763 I I #
point $-1 -63.249000518814661 -8.1373406961576578 3.2690528696389896 #
point $-1 -52.764977279190369 2.300036600174316 14.125577002436865 #
straight-curve $-1 -63.249000518814661 0 14.125577002436865 0 -1 0 I I #
vertex $-1 $364 $503 #
point $-1 -50.47481356624035 -2.9186520479916709 4.898986877690902 #
coedge $-1 $379 $378 $371 $461 forward $368 $-1 #
edge $-1 $462 76.737954935343353 $465 86.290660723789898 $460 $504 forward 7 unknown #
vertex $-1 $383 $505 #
straight-curve $-1 44.073200547584207 -11.868630775006601 14.12557700243687 1 0 0 I I #
edge $-1 $465 -8.8342515505662789 $380 2.7654931016856352 $379 $506 forward 7 unknown #
vertex $-1 $464 $507 #
straight-curve $-1 -12.879395523793534 -11.868630775006601 105.59866783295222 -0.60181501223851219 0 0.79863551827123203 I I #
point $-1 56.050520587156512 -11.868630775006601 14.12557700243687 #
point $-1 63.249000518814654 -0.2688861227546866 4.5728712139903251 #
straight-curve $-1 63.249000518814661 0 14.125577002436865 0 1 0 I I #
vertex $-1 $386 $508 #
point $-1 58.459676211301719 -9.5486818445562172 7.826363435440066 #
vertex $-1 $390 $509 #
point $-1 58.459676211301719 -6.0687584488806436 7.826363435440066 #
vertex $-1 $394 $510 #
point $-1 58.459676211301719 -2.5888350532050701 7.826363435440066 #
straight-curve $-1 -63.249000518814661 33.274104917855745 0 0 0 -1 I I #
point $-1 -63.249000518814661 -33.274104917855745 -14.125577002436865 #
straight-curve $-1 -63.249000518814661 0 -14.125577002436865 0 1 0 I I #
point $-1 -63.249000518814661 33.274104917855745 -14.125577002436865 #
coedge $-1 $484 $415 $416 $481 reversed $303 $-1 #
edge $-1 $482 -63.249000518814661 $424 63.249000518814661 $480 $511 forward 7 unknown #
vertex $-1 $486 $512 #
straight-curve $-1 63.249000518814661 -38.062299178753804 -4.7329809803948537 0 -1 0 I I #
coedge $-1 $418 $480 $420 $486 reversed $303 $-1 #
straight-curve $-1 0 -42.850493439651856 0.028080377993561889 1 0 0 I I #
edge $-1 $421 -2.3805306791942078 $482 2.3805306791942078 $420 $513 forward 7 unknown #
point $-1 63.249000518814661 -42.850493439651856 0.028080377993561889 #
straight-curve $-1 -63.249000518814661 -42.850493439651856 -2.3524503012006459 0 0 -1 I I #
point $-1 -63.249000518814661 -42.850493439651856 -4.7329809803948537 #
point $-1 -63.249000518814661 -42.850493439651856 0.028080377993561889 #
coedge $-1 $433 $432 $441 $495 forward $214 $-1 #
point $-1 63.249000518814661 17.831474238403437 -14.125577002436863 #
vertex $-1 $495 $514 #
straight-curve $-1 -63.249000518814661 0 -14.125577002436865 0 1 0 I I #
edge $-1 $493 -63.249000518814661 $446 63.249000518814661 $441 $515 forward 7 unknown #
straight-curve $-1 -63.249000518814661 33.274104917855745 0 0 0 -1 I I #
straight-curve $-1 63.249000518814661 0 -14.125577002436865 0 -1 0 I I #
point $-1 63.249000518814661 33.274104917855745 -14.125577002436865 #
straight-curve $-1 -77.122024185333942 -8.1373406961576578 14.125577002436863 1 0 0 I I #
point $-1 -63.249000518814661 -8.1373406961576578 14.125577002436865 #
straight-curve $-1 -52.764977279190369 -1.4593260239958354 14.125577002436867 0 1 0 I I #
point $-1 -52.764977279190369 -8.1373406961576578 14.125577002436865 #
point $-1 -50.4131099496148 -2.9186520479916709 1.3639914514286091 #
straight-curve $-1 63.249000518814661 -11.868630775006601 90.863531937780223 0 0 -1 I I #
point $-1 63.249000518814661 -11.868630775006601 14.125577002436865 #
straight-curve $-1 63.249000518814654 -3.0343792244403218 4.5728712139903109 0 1 0 I I #
point $-1 63.249000518814654 -11.868630775006601 4.5728712139903251 #
point $-1 57.759450946046847 -9.5486818445562172 7.9247736884564262 #
point $-1 57.759450946046847 -6.0687584488806436 7.9247736884564262 #
point $-1 57.759450946046847 -2.5888350532050701 7.9247736884564262 #
straight-curve $-1 0 -42.850493439651856 -4.7329809803948537 -1 0 0 I I #
point $-1 63.249000518814661 -42.850493439651856 -4.7329809803948537 #
straight-curve $-1 63.249000518814661 -42.850493439651856 -2.3524503012006459 0 0 -1 I I #
point $-1 -63.249000518814661 33.274104917855745 -14.125577002436865 #
straight-curve $-1 0 33.274104917855745 -14.125577002436865 1 0 0 I I #
End-of-ACIS-data 