500 0 8 0           
7 Unknown 11 ACIS 5.0 NT 24 Fri Mar 26 18:52:31 1999 
-1 9.9999999999999995e-007 1e-010 
body $-1 $8 $-1 $9 #
body $-1 $10 $-1 $11 #
body $-1 $12 $-1 $13 #
body $-1 $14 $-1 $15 #
body $-1 $16 $-1 $17 #
body $-1 $18 $-1 $19 #
body $-1 $20 $-1 $21 #
body $-1 $22 $-1 $23 #
lump $-1 $-1 $24 $0 #
transform $-1 1 0 0 0 1 0 0 0 1 75.781121250038154 40.614259056250802 9.1141932338152234 1 rotate no_reflect no_shear #
lump $-1 $-1 $25 $1 #
transform $-1 1 0 0 0 1 0 0 0 1 75.781121250038154 40.614259056250802 9.1141932338152234 1 rotate no_reflect no_shear #
lump $-1 $-1 $26 $2 #
transform $-1 1 0 0 0 1 0 0 0 1 75.781121250038154 40.614259056250802 9.1141932338152234 1 rotate no_reflect no_shear #
lump $-1 $-1 $27 $3 #
transform $-1 1 0 0 0 1 0 0 0 1 75.781121250038154 40.614259056250802 9.1141932338152234 1 rotate no_reflect no_shear #
lump $-1 $-1 $28 $4 #
transform $-1 1 0 0 0 1 0 0 0 1 75.781121250038154 40.614259056250802 9.1141932338152234 1 rotate no_reflect no_shear #
lump $-1 $-1 $29 $5 #
transform $-1 1 0 0 0 1 0 0 0 1 75.781121250038154 40.614259056250802 9.1141932338152234 1 rotate no_reflect no_shear #
lump $-1 $-1 $30 $6 #
transform $-1 1 0 0 0 1 0 0 0 1 75.781121250038154 40.614259056250802 9.1141932338152234 1 rotate no_reflect no_shear #
lump $-1 $-1 $31 $7 #
transform $-1 1 0 0 0 1 0 0 0 1 75.781121250038154 40.614259056250802 9.1141932338152234 1 rotate no_reflect no_shear #
shell $-1 $-1 $-1 $32 $-1 $8 #
shell $-1 $-1 $-1 $33 $-1 $10 #
shell $-1 $-1 $-1 $34 $-1 $12 #
shell $-1 $-1 $-1 $35 $-1 $14 #
shell $-1 $-1 $-1 $36 $-1 $16 #
shell $-1 $-1 $-1 $37 $-1 $18 #
shell $-1 $-1 $-1 $38 $-1 $20 #
shell $-1 $-1 $-1 $39 $-1 $22 #
face $-1 $40 $41 $24 $-1 $42 forward single #
face $-1 $43 $44 $25 $-1 $45 reversed single #
face $-1 $46 $47 $26 $-1 $48 reversed single #
face $-1 $49 $50 $27 $-1 $51 forward single #
face $-1 $52 $53 $28 $-1 $54 forward single #
face $-1 $55 $56 $29 $-1 $57 reversed single #
face $-1 $58 $59 $30 $-1 $60 forward single #
face $-1 $61 $62 $31 $-1 $63 forward single #
face $-1 $64 $65 $24 $-1 $66 reversed single #
loop $-1 $-1 $67 $32 #
plane-surface $-1 0 0 9.1141932338152234 0 0 1 1 0 0 forward_v I I I I #
face $-1 $68 $69 $25 $-1 $70 reversed single #
loop $-1 $-1 $71 $33 #
plane-surface $-1 -72.712764275991347 0 4.0750320918206295 0 0 1 1 0 0 forward_v I I I I #
face $-1 $72 $73 $26 $-1 $74 reversed single #
loop $-1 $-1 $75 $34 #
plane-surface $-1 72.040350820641379 -10.010269615035144 219.97341701482716 0 -1 0 -0.69465837861970381 0 -0.71933979245794832 forward_v I I I I #
face $-1 $76 $77 $27 $-1 $78 forward single #
loop $-1 $79 $80 $35 #
cone-surface $-1 73.647756057100978 -22.528376500624333 7.0297683783244738 -0.69465837861970381 0 -0.71933979245794832 0.35966989622897416 0 -0.3473291893098519 1 I I 0 1 0.5 forward I I I I #
face $-1 $81 $82 $28 $-1 $83 forward single #
loop $-1 $84 $85 $36 #
cone-surface $-1 73.647756057100978 -15.017512369270818 7.0297683783244738 -0.69465837861970381 0 -0.71933979245794832 0.35966989622897416 0 -0.3473291893098519 1 I I 0 1 0.5 forward I I I I #
face $-1 $86 $87 $29 $-1 $88 reversed single #
loop $-1 $-1 $89 $37 #
plane-surface $-1 72.040350820641379 30.60398944121566 219.97341701482716 0 -1 0 -0.69465837861970381 0 -0.71933979245794832 forward_v I I I I #
face $-1 $90 $91 $30 $-1 $92 forward single #
loop $-1 $93 $94 $38 #
cone-surface $-1 73.647756057100978 18.085882555626469 7.0297683783244738 -0.69465837861970381 0 -0.71933979245794832 0.35966989622897416 0 -0.3473291893098519 1 I I 0 1 0.5 forward I I I I #
face $-1 $95 $96 $31 $-1 $97 forward single #
loop $-1 $98 $99 $39 #
cone-surface $-1 73.647756057100978 25.596746686979984 7.0297683783244738 -0.69465837861970381 0 -0.71933979245794832 0.35966989622897416 0 -0.3473291893098519 1 I I 0 1 0.5 forward I I I I #
face $-1 $100 $101 $24 $-1 $102 reversed single #
loop $-1 $-1 $103 $40 #
plane-surface $-1 0 0 -9.1141932338152234 0 0 1 1 0 0 forward_v I I I I #
coedge $-1 $104 $105 $106 $107 forward $41 $-1 #
face $-1 $108 $109 $25 $-1 $110 reversed single #
loop $-1 $-1 $111 $43 #
plane-surface $-1 -69.64440730194454 0 6.5946126628179265 -1 0 0 0 0 1 forward_v I I I I #
coedge $-1 $112 $113 $114 $115 forward $44 $-1 #
face $-1 $116 $117 $26 $-1 $118 reversed single #
loop $-1 $-1 $119 $46 #
plane-surface $-1 -33.243630814427988 -18.772944434947576 110.94866495036104 0.69465837861970381 0 0.71933979245794832 0.71933979245794832 0 -0.69465837861970381 forward_v I I I I #
coedge $-1 $120 $121 $122 $123 reversed $47 $-1 #
face $-1 $-1 $124 $27 $-1 $125 forward single #
loop $-1 $126 $127 $49 #
cone-surface $-1 73.126762273136194 -22.528376500624333 6.4902635339810129 -0.69465837861970381 0 -0.71933979245794832 0.17983494811448708 0 -0.17366459465492595 1 I I -0.70710678118654746 0.70710678118654746 0.25 forward I I I I #
loop $-1 $-1 $128 $35 #
coedge $-1 $80 $80 $129 $130 reversed $50 $-1 #
face $-1 $-1 $131 $28 $-1 $132 forward single #
loop $-1 $133 $134 $52 #
cone-surface $-1 73.126762273136194 -15.017512369270818 6.4902635339810129 -0.69465837861970381 0 -0.71933979245794832 0.17983494811448708 0 -0.17366459465492595 1 I I -0.70710678118654746 0.70710678118654746 0.25 forward I I I I #
loop $-1 $-1 $135 $36 #
coedge $-1 $85 $85 $136 $137 reversed $53 $-1 #
face $-1 $138 $139 $29 $-1 $140 reversed single #
loop $-1 $-1 $141 $55 #
plane-surface $-1 -33.243630814427988 21.841314621303226 110.94866495036104 0.69465837861970381 0 0.71933979245794832 0.71933979245794832 0 -0.69465837861970381 forward_v I I I I #
coedge $-1 $142 $143 $144 $145 reversed $56 $-1 #
face $-1 $-1 $146 $30 $-1 $147 forward single #
loop $-1 $148 $149 $58 #
cone-surface $-1 73.126762273136194 18.085882555626469 6.4902635339810129 -0.69465837861970381 0 -0.71933979245794832 0.17983494811448708 0 -0.17366459465492595 1 I I -0.70710678118654746 0.70710678118654746 0.25 forward I I I I #
loop $-1 $-1 $150 $38 #
coedge $-1 $94 $94 $151 $152 reversed $59 $-1 #
face $-1 $-1 $153 $31 $-1 $154 forward single #
loop $-1 $155 $156 $61 #
cone-surface $-1 73.126762273136194 25.596746686979984 6.4902635339810129 -0.69465837861970381 0 -0.71933979245794832 0.17983494811448708 0 -0.17366459465492595 1 I I -0.70710678118654746 0.70710678118654746 0.25 forward I I I I #
loop $-1 $-1 $157 $39 #
coedge $-1 $99 $99 $158 $159 reversed $62 $-1 #
face $-1 $160 $161 $24 $-1 $162 reversed single #
loop $-1 $-1 $163 $64 #
plane-surface $-1 0 -40.614259056250802 0 0 1 0 0 0 1 forward_v I I I I #
coedge $-1 $164 $165 $166 $167 forward $65 $-1 #
coedge $-1 $168 $67 $169 $170 forward $41 $-1 #
coedge $-1 $67 $168 $171 $172 forward $41 $-1 #
coedge $-1 $173 $174 $67 $107 reversed $175 $-1 #
edge $-1 $176 -40.614259056250802 $177 40.614259056250802 $106 $178 forward 7 unknown #
face $-1 $179 $180 $25 $-1 $181 reversed single #
loop $-1 $-1 $182 $68 #
plane-surface $-1 0 40.614259056250802 0 0 -1 0 0 0 -1 forward_v I I I I #
coedge $-1 $114 $183 $184 $185 reversed $69 $-1 #
coedge $-1 $186 $71 $187 $188 reversed $44 $-1 #
coedge $-1 $71 $186 $189 $190 reversed $44 $-1 #
coedge $-1 $191 $111 $71 $115 reversed $69 $-1 #
edge $-1 $192 -40.614259056250802 $193 40.614259056250802 $114 $194 forward 7 unknown #
face $-1 $195 $196 $26 $-1 $197 forward single #
loop $-1 $-1 $198 $72 #
plane-surface $-1 72.040350820641379 -27.535619254860009 219.97341701482716 0 1 0 0.69465837861970381 0 0.71933979245794832 forward_v I I I I #
coedge $-1 $199 $200 $201 $202 reversed $73 $-1 #
coedge $-1 $121 $75 $203 $204 reversed $47 $-1 #
coedge $-1 $75 $120 $199 $205 reversed $47 $-1 #
coedge $-1 $201 $206 $75 $123 forward $196 $-1 #
edge $-1 $207 -39.760945839717465 $208 -36.188873832462747 $122 $209 forward 7 unknown #
loop $-1 $-1 $129 $76 #
plane-surface $-1 -33.243630814427988 -18.772944434947576 110.94866495036104 0.69465837861970381 0 0.71933979245794832 0.71933979245794832 0 -0.69465837861970381 forward_v I I I I #
loop $-1 $-1 $210 $49 #
coedge $-1 $127 $127 $128 $211 reversed $77 $-1 #
coedge $-1 $128 $128 $127 $211 forward $79 $-1 #
coedge $-1 $129 $129 $80 $130 forward $124 $-1 #
edge $-1 $212 0 $212 6.2831853071796004 $129 $213 forward 7 unknown #
loop $-1 $-1 $136 $81 #
plane-surface $-1 -33.243630814427988 -18.772944434947576 110.94866495036104 0.69465837861970381 0 0.71933979245794832 0.71933979245794832 0 -0.69465837861970381 forward_v I I I I #
loop $-1 $-1 $214 $52 #
coedge $-1 $134 $134 $135 $215 reversed $82 $-1 #
coedge $-1 $135 $135 $134 $215 forward $84 $-1 #
coedge $-1 $136 $136 $85 $137 forward $131 $-1 #
edge $-1 $216 0 $216 6.2831853071796004 $136 $217 forward 7 unknown #
face $-1 $218 $219 $29 $-1 $220 reversed single #
loop $-1 $-1 $221 $86 #
plane-surface $-1 72.040350820641379 13.078639801390795 219.97341701482716 0 1 0 0.69465837861970381 0 0.71933979245794832 forward_v I I I I #
coedge $-1 $222 $223 $224 $225 reversed $87 $-1 #
coedge $-1 $143 $89 $226 $227 reversed $56 $-1 #
coedge $-1 $89 $142 $222 $228 reversed $56 $-1 #
coedge $-1 $224 $229 $89 $145 forward $230 $-1 #
edge $-1 $231 -39.760945839717465 $232 -36.188873832462747 $144 $233 forward 7 unknown #
loop $-1 $-1 $151 $90 #
plane-surface $-1 -33.243630814427988 21.841314621303226 110.94866495036104 0.69465837861970381 0 0.71933979245794832 0.71933979245794832 0 -0.69465837861970381 forward_v I I I I #
loop $-1 $-1 $234 $58 #
coedge $-1 $149 $149 $150 $235 reversed $91 $-1 #
coedge $-1 $150 $150 $149 $235 forward $93 $-1 #
coedge $-1 $151 $151 $94 $152 forward $146 $-1 #
edge $-1 $236 0 $236 6.2831853071796004 $151 $237 forward 7 unknown #
loop $-1 $-1 $158 $95 #
plane-surface $-1 -33.243630814427988 21.841314621303226 110.94866495036104 0.69465837861970381 0 0.71933979245794832 0.71933979245794832 0 -0.69465837861970381 forward_v I I I I #
loop $-1 $-1 $238 $61 #
coedge $-1 $156 $156 $157 $239 reversed $96 $-1 #
coedge $-1 $157 $157 $156 $239 forward $98 $-1 #
coedge $-1 $158 $158 $99 $159 forward $153 $-1 #
edge $-1 $240 0 $240 6.2831853071796004 $158 $241 forward 7 unknown #
face $-1 $242 $243 $24 $-1 $244 reversed single #
loop $-1 $-1 $245 $100 #
plane-surface $-1 -75.781121250038154 0 0 1 0 0 0 0 -1 forward_v I I I I #
coedge $-1 $246 $171 $247 $248 forward $101 $-1 #
coedge $-1 $249 $103 $246 $250 forward $65 $-1 #
coedge $-1 $103 $249 $251 $252 forward $65 $-1 #
coedge $-1 $174 $173 $103 $167 reversed $175 $-1 #
edge $-1 $253 -40.614259056250802 $254 40.614259056250802 $166 $255 forward 7 unknown #
coedge $-1 $105 $104 $256 $257 forward $41 $-1 #
coedge $-1 $258 $259 $104 $170 reversed $243 $-1 #
edge $-1 $177 -75.781121250038154 $260 75.781121250038154 $169 $261 forward 7 unknown #
coedge $-1 $163 $262 $105 $172 reversed $101 $-1 #
edge $-1 $263 -75.781121250038154 $176 75.781121250038154 $171 $264 forward 7 unknown #
coedge $-1 $166 $106 $262 $265 forward $175 $-1 #
coedge $-1 $106 $166 $258 $266 reversed $175 $-1 #
loop $-1 $-1 $173 $242 #
vertex $-1 $107 $267 #
vertex $-1 $107 $268 #
straight-curve $-1 75.781121250038154 0 9.1141932338152234 0 1 0 I I #
face $-1 $269 $270 $25 $-1 $271 forward single #
loop $-1 $-1 $272 $108 #
plane-surface $-1 -75.781121250038154 0 0 1 0 0 0 0 -1 forward_v I I I I #
coedge $-1 $189 $273 $191 $274 forward $109 $-1 #
coedge $-1 $111 $191 $275 $276 reversed $69 $-1 #
coedge $-1 $277 $187 $111 $185 forward $278 $-1 #
edge $-1 $193 0.7777257604116663 $279 5.8168869024062602 $184 $280 forward 7 unknown #
coedge $-1 $113 $112 $272 $281 reversed $44 $-1 #
coedge $-1 $184 $282 $112 $188 forward $278 $-1 #
edge $-1 $283 -39.424739112042481 $193 -33.288025163948866 $187 $284 forward 7 unknown #
coedge $-1 $285 $182 $113 $190 forward $109 $-1 #
edge $-1 $192 33.288025163948866 $286 39.424739112042481 $189 $287 forward 7 unknown #
coedge $-1 $183 $114 $182 $274 reversed $69 $-1 #
vertex $-1 $190 $288 #
vertex $-1 $188 $289 #
straight-curve $-1 -69.64440730194454 0 4.0750320918206295 0 -1 0 I I #
face $-1 $-1 $290 $26 $-1 $291 reversed single #
loop $-1 $-1 $122 $116 #
plane-surface $-1 0 0 9.1141932338152234 0 0 1 1 0 0 forward_v I I I I #
coedge $-1 $292 $293 $294 $295 reversed $117 $-1 #
coedge $-1 $296 $119 $121 $205 forward $73 $-1 #
coedge $-1 $119 $296 $292 $297 forward $73 $-1 #
coedge $-1 $294 $122 $119 $202 forward $196 $-1 #
edge $-1 $208 0.62379739756135599 $298 18.149147037386221 $201 $299 forward 7 unknown #
coedge $-1 $300 $301 $120 $204 forward $290 $-1 #
edge $-1 $302 -104.32202519212194 $207 -100.87251527359835 $203 $303 forward 7 unknown #
edge $-1 $208 146.5964779966987 $302 151.56224250007634 $121 $304 forward 7 unknown #
coedge $-1 $122 $294 $300 $305 forward $196 $-1 #
vertex $-1 $204 $306 #
vertex $-1 $123 $307 #
straight-curve $-1 36.020175410320689 -10.010269615035144 9.1141932338152287 -1 0 0 I I #
coedge $-1 $210 $210 $-1 $308 reversed $126 $-1 #
edge $-1 $309 0 $309 6.2831853071796004 $127 $310 forward 7 unknown #
vertex $-1 $130 $311 #
ellipse-curve $-1 73.99508524641081 -22.528376500624333 7.3894382745534273 0.69465837861970381 0 0.71933979245794832 0.35966989622897416 0 -0.3473291893098519 1 I I #
coedge $-1 $214 $214 $-1 $312 reversed $133 $-1 #
edge $-1 $313 0 $313 6.2831853071796004 $134 $314 forward 7 unknown #
vertex $-1 $137 $315 #
ellipse-curve $-1 73.99508524641081 -15.017512369270818 7.3894382745534273 0.69465837861970381 0 0.71933979245794832 0.35966989622897416 0 -0.3473291893098519 1 I I #
face $-1 $-1 $230 $29 $-1 $316 forward single #
loop $-1 $-1 $317 $138 #
plane-surface $-1 75.781121250038154 0 0 -1 0 0 0 0 1 forward_v I I I I #
coedge $-1 $318 $319 $320 $321 reversed $139 $-1 #
coedge $-1 $322 $141 $143 $228 forward $87 $-1 #
coedge $-1 $141 $322 $318 $323 forward $87 $-1 #
coedge $-1 $320 $144 $141 $225 forward $230 $-1 #
edge $-1 $232 -19.683332130564047 $324 -2.1579824907391814 $224 $325 forward 7 unknown #
coedge $-1 $326 $327 $142 $227 forward $219 $-1 #
edge $-1 $328 -104.32202519212194 $231 -100.87251527359835 $226 $329 forward 7 unknown #
edge $-1 $232 146.5964779966987 $328 151.56224250007634 $143 $330 forward 7 unknown #
coedge $-1 $144 $320 $326 $331 forward $230 $-1 #
loop $-1 $-1 $320 $218 #
vertex $-1 $227 $332 #
vertex $-1 $145 $333 #
straight-curve $-1 36.020175410320689 30.60398944121566 9.1141932338152287 -1 0 0 I I #
coedge $-1 $234 $234 $-1 $334 reversed $148 $-1 #
edge $-1 $335 0 $335 6.2831853071796004 $149 $336 forward 7 unknown #
vertex $-1 $152 $337 #
ellipse-curve $-1 73.99508524641081 18.085882555626469 7.3894382745534273 0.69465837861970381 0 0.71933979245794832 0.35966989622897416 0 -0.3473291893098519 1 I I #
coedge $-1 $238 $238 $-1 $338 reversed $155 $-1 #
edge $-1 $339 0 $339 6.2831853071796004 $156 $340 forward 7 unknown #
vertex $-1 $159 $341 #
ellipse-curve $-1 73.99508524641081 25.596746686979984 7.3894382745534273 0.69465837861970381 0 0.71933979245794832 0.35966989622897416 0 -0.3473291893098519 1 I I #
face $-1 $-1 $175 $24 $-1 $342 reversed single #
loop $-1 $-1 $258 $160 #
plane-surface $-1 0 40.614259056250802 0 0 -1 0 0 0 -1 forward_v I I I I #
coedge $-1 $343 $256 $259 $344 forward $161 $-1 #
coedge $-1 $262 $163 $164 $250 reversed $101 $-1 #
coedge $-1 $256 $343 $163 $248 reversed $161 $-1 #
edge $-1 $263 -9.1141932338152234 $345 9.1141932338152234 $247 $346 forward 7 unknown #
coedge $-1 $165 $164 $343 $347 forward $65 $-1 #
edge $-1 $254 -75.781121250038154 $345 75.781121250038154 $246 $348 forward 7 unknown #
coedge $-1 $259 $258 $165 $252 reversed $243 $-1 #
edge $-1 $349 -75.781121250038154 $253 75.781121250038154 $251 $350 forward 7 unknown #
vertex $-1 $167 $351 #
vertex $-1 $265 $352 #
straight-curve $-1 75.781121250038154 0 -9.1141932338152234 0 -1 0 I I #
coedge $-1 $245 $247 $168 $257 reversed $161 $-1 #
edge $-1 $260 -40.614259056250802 $263 40.614259056250802 $256 $353 forward 7 unknown #
coedge $-1 $251 $169 $174 $266 forward $243 $-1 #
coedge $-1 $169 $251 $245 $344 reversed $243 $-1 #
vertex $-1 $170 $354 #
straight-curve $-1 0 40.614259056250802 9.1141932338152234 -1 0 0 I I #
coedge $-1 $171 $246 $173 $265 reversed $101 $-1 #
vertex $-1 $257 $355 #
straight-curve $-1 0 -40.614259056250802 9.1141932338152234 1 0 0 I I #
edge $-1 $176 -9.1141932338152234 $254 9.1141932338152234 $173 $356 forward 7 unknown #
edge $-1 $177 -9.1141932338152234 $253 9.1141932338152234 $174 $357 forward 7 unknown #
point $-1 75.781121250038154 -40.614259056250802 9.1141932338152234 #
point $-1 75.781121250038154 40.614259056250802 9.1141932338152234 #
face $-1 $-1 $278 $25 $-1 $358 reversed single #
loop $-1 $-1 $275 $179 #
plane-surface $-1 0 0 9.1141932338152234 0 0 1 1 0 0 forward_v I I I I #
coedge $-1 $359 $360 $186 $281 forward $180 $-1 #
coedge $-1 $182 $285 $361 $362 reversed $109 $-1 #
edge $-1 $363 -5.8168869024062602 $192 -0.7777257604116663 $182 $364 forward 7 unknown #
coedge $-1 $361 $365 $183 $276 forward $270 $-1 #
edge $-1 $279 -40.614259056250802 $363 40.614259056250802 $275 $366 forward 7 unknown #
coedge $-1 $282 $184 $365 $367 reversed $278 $-1 #
loop $-1 $-1 $184 $269 #
vertex $-1 $185 $368 #
straight-curve $-1 -69.64440730194454 -40.614259056250802 3.2973063314089632 0 0 1 I I #
edge $-1 $286 -40.614259056250802 $283 40.614259056250802 $272 $369 forward 7 unknown #
coedge $-1 $187 $277 $359 $370 forward $278 $-1 #
vertex $-1 $281 $371 #
straight-curve $-1 -36.356382137995674 -40.614259056250802 4.0750320918206295 1 0 0 I I #
coedge $-1 $273 $189 $360 $372 reversed $109 $-1 #
vertex $-1 $281 $373 #
straight-curve $-1 -36.356382137995674 40.614259056250802 4.0750320918206295 -1 0 0 I I #
point $-1 -69.64440730194454 40.614259056250802 4.0750320918206295 #
point $-1 -69.64440730194454 -40.614259056250802 4.0750320918206295 #
loop $-1 $-1 $203 $195 #
plane-surface $-1 75.781121250038154 0 0 -1 0 0 0 0 1 forward_v I I I I #
coedge $-1 $293 $198 $200 $297 reversed $117 $-1 #
coedge $-1 $198 $292 $374 $375 reversed $117 $-1 #
coedge $-1 $206 $201 $198 $295 forward $196 $-1 #
edge $-1 $298 36.188873832462747 $376 39.760945839717465 $294 $377 forward 7 unknown #
coedge $-1 $200 $199 $301 $378 reversed $73 $-1 #
edge $-1 $379 -151.56224250007634 $298 -146.5964779966987 $292 $380 forward 7 unknown #
vertex $-1 $202 $381 #
straight-curve $-1 72.209049242783436 -9.3864722174737878 9.1141932338152287 0 -1 0 I I #
coedge $-1 $374 $203 $206 $305 reversed $290 $-1 #
coedge $-1 $203 $374 $296 $378 forward $290 $-1 #
vertex $-1 $204 $382 #
straight-curve $-1 75.781121250038154 -10.010269615035144 109.98670850741358 0 0 1 I I #
straight-curve $-1 -33.243630814427988 -10.010269615035144 110.94866495036104 0.71933979245794832 0 -0.69465837861970381 I I #
edge $-1 $376 -27.535619254860009 $207 -10.010269615035144 $300 $383 forward 7 unknown #
point $-1 75.781121250038154 -10.010269615035144 9.1141932338152234 #
point $-1 72.209049242783436 -10.010269615035144 9.1141932338152287 #
edge $-1 $384 1 $384 0 $210 $-1 forward 7 unknown #
vertex $-1 $211 $385 #
ellipse-curve $-1 73.300426867791117 -22.528376500624333 6.6700984820954998 0.69465837861970381 0 0.71933979245794832 0.35966989622897416 0 -0.3473291893098519 1 I I #
point $-1 74.354755142639803 -22.528376500624333 7.0421090852435961 #
edge $-1 $386 1 $386 0 $214 $-1 forward 7 unknown #
vertex $-1 $215 $387 #
ellipse-curve $-1 73.300426867791117 -15.017512369270818 6.6700984820954998 0.69465837861970381 0 0.71933979245794832 0.35966989622897416 0 -0.3473291893098519 1 I I #
point $-1 74.354755142639803 -15.017512369270818 7.0421090852435961 #
plane-surface $-1 0 0 9.1141932338152234 0 0 1 1 0 0 forward_v I I I I #
coedge $-1 $327 $326 $319 $388 forward $219 $-1 #
coedge $-1 $319 $221 $223 $323 reversed $139 $-1 #
coedge $-1 $221 $318 $317 $388 reversed $139 $-1 #
coedge $-1 $229 $224 $221 $321 forward $230 $-1 #
edge $-1 $324 36.188873832462747 $389 39.760945839717465 $320 $390 forward 7 unknown #
coedge $-1 $223 $222 $327 $391 reversed $87 $-1 #
edge $-1 $392 -151.56224250007634 $324 -146.5964779966987 $318 $393 forward 7 unknown #
vertex $-1 $225 $394 #
straight-curve $-1 72.209049242783436 10.920657310651613 9.1141932338152287 0 -1 0 I I #
coedge $-1 $317 $226 $229 $331 reversed $219 $-1 #
coedge $-1 $226 $317 $322 $391 forward $219 $-1 #
vertex $-1 $227 $395 #
straight-curve $-1 75.781121250038154 30.60398944121566 109.98670850741358 0 0 1 I I #
straight-curve $-1 -33.243630814427988 30.60398944121566 110.94866495036104 0.71933979245794832 0 -0.69465837861970381 I I #
edge $-1 $389 13.078639801390795 $231 30.60398944121566 $326 $396 forward 7 unknown #
point $-1 75.781121250038154 30.60398944121566 9.1141932338152234 #
point $-1 72.209049242783436 30.60398944121566 9.1141932338152287 #
edge $-1 $397 1 $397 0 $234 $-1 forward 7 unknown #
vertex $-1 $235 $398 #
ellipse-curve $-1 73.300426867791117 18.085882555626469 6.6700984820954998 0.69465837861970381 0 0.71933979245794832 0.35966989622897416 0 -0.3473291893098519 1 I I #
point $-1 74.354755142639803 18.085882555626469 7.0421090852435961 #
edge $-1 $399 1 $399 0 $238 $-1 forward 7 unknown #
vertex $-1 $239 $400 #
ellipse-curve $-1 73.300426867791117 25.596746686979984 6.6700984820954998 0.69465837861970381 0 0.71933979245794832 0.35966989622897416 0 -0.3473291893098519 1 I I #
point $-1 74.354755142639803 25.596746686979984 7.0421090852435961 #
plane-surface $-1 75.781121250038154 0 0 -1 0 0 0 0 1 forward_v I I I I #
coedge $-1 $247 $245 $249 $347 reversed $161 $-1 #
edge $-1 $260 -9.1141932338152234 $349 9.1141932338152234 $259 $401 forward 7 unknown #
vertex $-1 $347 $402 #
straight-curve $-1 -75.781121250038154 -40.614259056250802 0 0 0 -1 I I #
edge $-1 $345 -40.614259056250802 $349 40.614259056250802 $343 $403 forward 7 unknown #
straight-curve $-1 0 -40.614259056250802 -9.1141932338152234 -1 0 0 I I #
vertex $-1 $252 $404 #
straight-curve $-1 0 40.614259056250802 -9.1141932338152234 1 0 0 I I #
point $-1 75.781121250038154 40.614259056250802 -9.1141932338152234 #
point $-1 75.781121250038154 -40.614259056250802 -9.1141932338152234 #
straight-curve $-1 -75.781121250038154 0 9.1141932338152234 0 -1 0 I I #
point $-1 -75.781121250038154 40.614259056250802 9.1141932338152234 #
point $-1 -75.781121250038154 -40.614259056250802 9.1141932338152234 #
straight-curve $-1 75.781121250038154 -40.614259056250802 0 0 0 -1 I I #
straight-curve $-1 75.781121250038154 40.614259056250802 0 0 0 -1 I I #
plane-surface $-1 0 -40.614259056250802 0 0 1 0 0 0 1 forward_v I I I I #
coedge $-1 $405 $272 $282 $370 reversed $180 $-1 #
coedge $-1 $272 $405 $285 $372 forward $180 $-1 #
coedge $-1 $406 $275 $273 $362 forward $270 $-1 #
edge $-1 $363 69.64440730194454 $407 75.781121250038154 $273 $408 forward 7 unknown #
vertex $-1 $362 $409 #
straight-curve $-1 -69.64440730194454 40.614259056250802 3.2973063314089632 0 0 -1 I I #
coedge $-1 $275 $406 $277 $367 forward $270 $-1 #
straight-curve $-1 -69.64440730194454 0 9.1141932338152234 0 1 0 I I #
edge $-1 $410 -75.781121250038154 $279 -69.64440730194454 $277 $411 forward 7 unknown #
point $-1 -69.64440730194454 -40.614259056250802 9.1141932338152234 #
straight-curve $-1 -75.781121250038154 0 4.0750320918206295 0 -1 0 I I #
edge $-1 $410 -9.1141932338152234 $283 -4.0750320918206295 $359 $412 forward 7 unknown #
point $-1 -75.781121250038154 -40.614259056250802 4.0750320918206295 #
edge $-1 $407 -9.1141932338152234 $286 -4.0750320918206295 $285 $413 forward 7 unknown #
point $-1 -75.781121250038154 40.614259056250802 4.0750320918206295 #
coedge $-1 $301 $300 $293 $375 forward $290 $-1 #
edge $-1 $376 100.87251527359835 $379 104.32202519212194 $374 $414 forward 7 unknown #
vertex $-1 $305 $415 #
straight-curve $-1 36.020175410320689 -27.535619254860009 9.1141932338152287 1 0 0 I I #
edge $-1 $379 -18.149147037386221 $302 -0.62379739756135599 $301 $416 forward 7 unknown #
vertex $-1 $378 $417 #
straight-curve $-1 -33.243630814427988 -27.535619254860009 110.94866495036104 -0.71933979245794832 0 0.69465837861970381 I I #
point $-1 72.209049242783436 -27.535619254860009 9.1141932338152287 #
point $-1 75.781121250038154 -10.010269615035144 5.66468331529164 #
straight-curve $-1 75.781121250038154 0 9.1141932338152234 0 1 0 I I #
vertex $-1 $308 $418 #
point $-1 73.660096764020096 -22.528376500624333 6.3227692927856483 #
vertex $-1 $312 $419 #
point $-1 73.660096764020096 -15.017512369270818 6.3227692927856483 #
edge $-1 $389 100.87251527359835 $392 104.32202519212194 $317 $420 forward 7 unknown #
vertex $-1 $331 $421 #
straight-curve $-1 36.020175410320689 13.078639801390795 9.1141932338152287 1 0 0 I I #
edge $-1 $392 2.1579824907391814 $328 19.683332130564047 $327 $422 forward 7 unknown #
vertex $-1 $391 $423 #
straight-curve $-1 -33.243630814427988 13.078639801390795 110.94866495036104 -0.71933979245794832 0 0.69465837861970381 I I #
point $-1 72.209049242783436 13.078639801390795 9.1141932338152287 #
point $-1 75.781121250038154 30.60398944121566 5.66468331529164 #
straight-curve $-1 75.781121250038154 0 9.1141932338152234 0 1 0 I I #
vertex $-1 $334 $424 #
point $-1 73.660096764020096 18.085882555626469 6.3227692927856483 #
vertex $-1 $338 $425 #
point $-1 73.660096764020096 25.596746686979984 6.3227692927856483 #
straight-curve $-1 -75.781121250038154 40.614259056250802 0 0 0 -1 I I #
point $-1 -75.781121250038154 -40.614259056250802 -9.1141932338152234 #
straight-curve $-1 -75.781121250038154 0 -9.1141932338152234 0 1 0 I I #
point $-1 -75.781121250038154 40.614259056250802 -9.1141932338152234 #
coedge $-1 $360 $359 $406 $426 reversed $180 $-1 #
coedge $-1 $365 $361 $405 $426 forward $270 $-1 #
vertex $-1 $362 $427 #
straight-curve $-1 0 40.614259056250802 9.1141932338152234 -1 0 0 I I #
point $-1 -69.64440730194454 40.614259056250802 9.1141932338152234 #
vertex $-1 $426 $428 #
straight-curve $-1 0 -40.614259056250802 9.1141932338152234 1 0 0 I I #
straight-curve $-1 -75.781121250038154 -40.614259056250802 0 0 0 -1 I I #
straight-curve $-1 -75.781121250038154 40.614259056250802 0 0 0 -1 I I #
straight-curve $-1 75.781121250038154 -27.535619254860009 109.98670850741358 0 0 -1 I I #
point $-1 75.781121250038154 -27.535619254860009 9.1141932338152234 #
straight-curve $-1 75.781121250038154 -9.3864722174737878 5.6646833152916471 0 1 0 I I #
point $-1 75.781121250038154 -27.535619254860009 5.66468331529164 #
point $-1 72.953097678481271 -22.528376500624333 6.3104285858665259 #
point $-1 72.953097678481271 -15.017512369270818 6.3104285858665259 #
straight-curve $-1 75.781121250038154 13.078639801390795 109.98670850741358 0 0 -1 I I #
point $-1 75.781121250038154 13.078639801390795 9.1141932338152234 #
straight-curve $-1 75.781121250038154 10.920657310651613 5.6646833152916471 0 1 0 I I #
point $-1 75.781121250038154 13.078639801390795 5.66468331529164 #
point $-1 72.953097678481271 18.085882555626469 6.3104285858665259 #
point $-1 72.953097678481271 25.596746686979984 6.3104285858665259 #
edge $-1 $407 -40.614259056250802 $410 40.614259056250802 $405 $429 forward 7 unknown #
point $-1 -75.781121250038154 40.614259056250802 9.1141932338152234 #
point $-1 -75.781121250038154 -40.614259056250802 9.1141932338152234 #
straight-curve $-1 -75.781121250038154 0 9.1141932338152234 0 -1 0 I I #
End-of-ACIS-data 