500 0 15 0           
7 Unknown 11 ACIS 5.0 NT 24 Fri Mar 26 20:35:33 1999 
-1 9.9999999999999995e-007 1e-010 
body $-1 $15 $-1 $16 #
body $-1 $17 $-1 $18 #
body $-1 $19 $-1 $20 #
body $-1 $21 $-1 $22 #
body $-1 $23 $-1 $24 #
body $-1 $25 $-1 $26 #
body $-1 $27 $-1 $28 #
body $-1 $29 $-1 $30 #
body $-1 $31 $-1 $32 #
body $-1 $33 $-1 $34 #
body $-1 $35 $-1 $36 #
body $-1 $37 $-1 $38 #
body $-1 $39 $-1 $40 #
body $-1 $41 $-1 $42 #
body $-1 $43 $-1 $44 #
lump $-1 $-1 $45 $0 #
transform $-1 1 0 0 0 1 0 0 0 1 57.647022919400612 28.970061250928861 13.585877444148025 1 rotate no_reflect no_shear #
lump $-1 $-1 $46 $1 #
transform $-1 1 0 0 0 1 0 0 0 1 57.647022919400612 4.7093741934734092 22.406796996781573 1 rotate no_reflect no_shear #
lump $-1 $-1 $47 $2 #
transform $-1 1 0 0 0 1 0 0 0 1 57.647022919400612 53.230748308384314 22.406796996781573 1 rotate no_reflect no_shear #
lump $-1 $-1 $48 $3 #
transform $-1 0.71933979245794832 0 0.69465837861970381 0 1 0 -0.69465837861970381 0 0.71933979245794832 -80.089974946887452 15.941227987253262 99.637436313990946 1 rotate no_reflect no_shear #
lump $-1 $-1 $49 $4 #
transform $-1 0.71933979245794832 0 0.69465837861970381 0 -1 0 0.69465837861970381 0 -0.71933979245794832 6.8090540849480483 15.94122798725326 20.499380821318049 1 rotate no_reflect no_shear #
lump $-1 $-1 $50 $5 #
transform $-1 0.71933979245794832 0 0.69465837861970381 0 1 0 -0.69465837861970381 0 0.71933979245794832 -80.089974946887452 28.975436563241292 99.637436313990946 1 rotate no_reflect no_shear #
lump $-1 $-1 $51 $6 #
transform $-1 0.71933979245794832 0 0.69465837861970381 0 -1 0 0.69465837861970381 0 -0.71933979245794832 6.8090540849480483 28.975436563241288 20.499380821318049 1 rotate no_reflect no_shear #
lump $-1 $-1 $52 $7 #
transform $-1 0.71933979245794832 0 0.69465837861970381 0 1 0 -0.69465837861970381 0 0.71933979245794832 -80.089974946887452 42.00964513922932 99.637436313990946 1 rotate no_reflect no_shear #
lump $-1 $-1 $53 $8 #
transform $-1 0.71933979245794832 0 0.69465837861970381 0 -1 0 0.69465837861970381 0 -0.71933979245794832 6.8090540849480483 42.00964513922932 20.499380821318049 1 rotate no_reflect no_shear #
lump $-1 $-1 $54 $9 #
transform $-1 0.76604443648966558 0 -0.64278761758704617 0 1 0 0.64278761758704617 0 0.76604443648966558 101.0832685102978 13.101470771038947 176.15571209811333 1 rotate no_reflect no_shear #
lump $-1 $-1 $55 $10 #
transform $-1 0.76604443648966558 0 -0.64278761758704617 0 -1 0 -0.64278761758704617 0 -0.76604443648966558 105.86831189360805 11.523161177856608 18.764120127724169 1 rotate no_reflect no_shear #
lump $-1 $-1 $56 $11 #
transform $-1 0.76604443648966558 0 -0.64278761758704617 0 -1 0 -0.64278761758704617 0 -0.76604443648966558 105.86831189360805 14.679780364221291 18.764120127724169 1 rotate no_reflect no_shear #
lump $-1 $-1 $57 $12 #
transform $-1 0.76604443648966558 0 -0.64278761758704617 0 1 0 0.64278761758704617 0 0.76604443648966558 101.0832685102978 32.652783635020995 176.15571209811333 1 rotate no_reflect no_shear #
lump $-1 $-1 $58 $13 #
transform $-1 0.76604443648966558 0 -0.64278761758704617 0 -1 0 -0.64278761758704617 0 -0.76604443648966558 105.86831189360805 31.074474041838652 18.764120127724169 1 rotate no_reflect no_shear #
lump $-1 $-1 $59 $14 #
transform $-1 0.76604443648966558 0 -0.64278761758704617 0 -1 0 -0.64278761758704617 0 -0.76604443648966558 105.86831189360805 34.231093228203335 18.764120127724169 1 rotate no_reflect no_shear #
shell $-1 $-1 $-1 $60 $-1 $15 #
shell $-1 $-1 $-1 $61 $-1 $17 #
shell $-1 $-1 $-1 $62 $-1 $19 #
shell $-1 $-1 $-1 $63 $-1 $21 #
shell $-1 $-1 $-1 $64 $-1 $23 #
shell $-1 $-1 $-1 $65 $-1 $25 #
shell $-1 $-1 $-1 $66 $-1 $27 #
shell $-1 $-1 $-1 $67 $-1 $29 #
shell $-1 $-1 $-1 $68 $-1 $31 #
shell $-1 $-1 $-1 $69 $-1 $33 #
shell $-1 $-1 $-1 $70 $-1 $35 #
shell $-1 $-1 $-1 $71 $-1 $37 #
shell $-1 $-1 $-1 $72 $-1 $39 #
shell $-1 $-1 $-1 $73 $-1 $41 #
shell $-1 $-1 $-1 $74 $-1 $43 #
face $-1 $75 $76 $45 $-1 $77 forward single #
face $-1 $78 $79 $46 $-1 $80 forward single #
face $-1 $81 $82 $47 $-1 $83 forward single #
face $-1 $84 $85 $48 $-1 $86 forward single #
face $-1 $87 $88 $49 $-1 $89 forward single #
face $-1 $90 $91 $50 $-1 $92 forward single #
face $-1 $93 $94 $51 $-1 $95 forward single #
face $-1 $96 $97 $52 $-1 $98 forward single #
face $-1 $99 $100 $53 $-1 $101 forward single #
face $-1 $102 $103 $54 $-1 $104 forward single #
face $-1 $105 $106 $55 $-1 $107 forward single #
face $-1 $108 $109 $56 $-1 $110 forward single #
face $-1 $111 $112 $57 $-1 $113 forward single #
face $-1 $114 $115 $58 $-1 $116 forward single #
face $-1 $117 $118 $59 $-1 $119 forward single #
face $-1 $120 $121 $45 $-1 $122 reversed single #
loop $-1 $-1 $123 $60 #
plane-surface $-1 0 0 13.585877444148025 0 0 1 1 0 0 forward_v I I I I #
face $-1 $124 $125 $46 $-1 $126 reversed single #
loop $-1 $-1 $127 $61 #
plane-surface $-1 0 0 3.0552157696064199 0 0 1 1 0 0 forward_v I I I I #
face $-1 $128 $129 $47 $-1 $130 reversed single #
loop $-1 $-1 $131 $62 #
plane-surface $-1 0 0 3.0552157696064199 0 0 1 1 0 0 forward_v I I I I #
face $-1 $132 $133 $48 $-1 $134 reversed single #
loop $-1 $-1 $135 $63 #
plane-surface $-1 0 0 115.29404583880122 0 0 1 1 0 0 forward_v I I I I #
face $-1 $136 $137 $49 $-1 $138 forward single #
loop $-1 $139 $140 $64 #
cone-surface $-1 0 0 -1.2491225928525651 0 0 1 1 0 0 1 I I 0 1 1 forward I I I I #
face $-1 $141 $142 $50 $-1 $143 reversed single #
loop $-1 $-1 $144 $65 #
plane-surface $-1 0 0 115.29404583880122 0 0 1 1 0 0 forward_v I I I I #
face $-1 $145 $146 $51 $-1 $147 forward single #
loop $-1 $148 $149 $66 #
cone-surface $-1 0 0 -1.2491225928525651 0 0 1 1 0 0 1 I I 0 1 1 forward I I I I #
face $-1 $150 $151 $52 $-1 $152 reversed single #
loop $-1 $-1 $153 $67 #
plane-surface $-1 0 0 115.29404583880122 0 0 1 1 0 0 forward_v I I I I #
face $-1 $154 $155 $53 $-1 $156 forward single #
loop $-1 $157 $158 $68 #
cone-surface $-1 0 0 -1.2491225928525651 0 0 1 1 0 0 1 I I 0 1 1 forward I I I I #
face $-1 $159 $160 $54 $-1 $161 reversed single #
loop $-1 $-1 $162 $69 #
plane-surface $-1 0 0 115.29404583880122 0 0 1 1 0 0 forward_v I I I I #
face $-1 $163 $164 $55 $-1 $165 forward single #
loop $-1 $166 $167 $70 #
cone-surface $-1 0 0 -1.2245704519791261 0 0 1 0.5 0 0 1 I I 0 1 0.5 forward I I I I #
face $-1 $168 $169 $56 $-1 $170 forward single #
loop $-1 $171 $172 $71 #
cone-surface $-1 0 0 -1.2245704519791261 0 0 1 0.5 0 0 1 I I 0 1 0.5 forward I I I I #
face $-1 $173 $174 $57 $-1 $175 reversed single #
loop $-1 $-1 $176 $72 #
plane-surface $-1 0 0 115.29404583880122 0 0 1 1 0 0 forward_v I I I I #
face $-1 $177 $178 $58 $-1 $179 forward single #
loop $-1 $180 $181 $73 #
cone-surface $-1 0 0 -1.2245704519791261 0 0 1 0.5 0 0 1 I I 0 1 0.5 forward I I I I #
face $-1 $182 $183 $59 $-1 $184 forward single #
loop $-1 $185 $186 $74 #
cone-surface $-1 0 0 -1.2245704519791261 0 0 1 0.5 0 0 1 I I 0 1 0.5 forward I I I I #
face $-1 $187 $188 $45 $-1 $189 reversed single #
loop $-1 $-1 $190 $75 #
plane-surface $-1 0 0 -13.585877444148025 0 0 1 1 0 0 forward_v I I I I #
coedge $-1 $191 $192 $193 $194 forward $76 $-1 #
face $-1 $195 $196 $46 $-1 $197 reversed single #
loop $-1 $-1 $198 $78 #
plane-surface $-1 0 0 -3.0552157696064199 0 0 1 1 0 0 forward_v I I I I #
coedge $-1 $199 $200 $201 $202 forward $79 $-1 #
face $-1 $203 $204 $47 $-1 $205 reversed single #
loop $-1 $-1 $206 $81 #
plane-surface $-1 0 0 -3.0552157696064199 0 0 1 1 0 0 forward_v I I I I #
coedge $-1 $207 $208 $209 $210 forward $82 $-1 #
face $-1 $211 $212 $48 $-1 $213 reversed single #
loop $-1 $-1 $214 $84 #
plane-surface $-1 0 0 -115.29404583880122 0 0 1 1 0 0 forward_v I I I I #
coedge $-1 $215 $216 $217 $218 forward $85 $-1 #
face $-1 $-1 $219 $49 $-1 $220 forward single #
loop $-1 $-1 $221 $87 #
plane-surface $-1 0 0 -1.9982451857051302 0 0 -1 -1 0 0 forward_v I I I I #
loop $-1 $-1 $222 $64 #
coedge $-1 $140 $140 $221 $223 reversed $88 $-1 #
face $-1 $224 $225 $50 $-1 $226 reversed single #
loop $-1 $-1 $227 $90 #
plane-surface $-1 0 0 -115.29404583880122 0 0 1 1 0 0 forward_v I I I I #
coedge $-1 $228 $229 $230 $231 forward $91 $-1 #
face $-1 $-1 $232 $51 $-1 $233 forward single #
loop $-1 $-1 $234 $93 #
plane-surface $-1 0 0 -1.9982451857051302 0 0 -1 -1 0 0 forward_v I I I I #
loop $-1 $-1 $235 $66 #
coedge $-1 $149 $149 $234 $236 reversed $94 $-1 #
face $-1 $237 $238 $52 $-1 $239 reversed single #
loop $-1 $-1 $240 $96 #
plane-surface $-1 0 0 -115.29404583880122 0 0 1 1 0 0 forward_v I I I I #
coedge $-1 $241 $242 $243 $244 forward $97 $-1 #
face $-1 $-1 $245 $53 $-1 $246 forward single #
loop $-1 $-1 $247 $99 #
plane-surface $-1 0 0 -1.9982451857051302 0 0 -1 -1 0 0 forward_v I I I I #
loop $-1 $-1 $248 $68 #
coedge $-1 $158 $158 $247 $249 reversed $100 $-1 #
face $-1 $250 $251 $54 $-1 $252 reversed single #
loop $-1 $-1 $253 $102 #
plane-surface $-1 0 0 -115.29404583880122 0 0 1 1 0 0 forward_v I I I I #
coedge $-1 $254 $255 $256 $257 forward $103 $-1 #
face $-1 $-1 $258 $55 $-1 $259 forward single #
loop $-1 $-1 $260 $105 #
plane-surface $-1 0 0 -2.1991409039582512 0 0 -1 -1 0 0 forward_v I I I I #
loop $-1 $-1 $261 $70 #
coedge $-1 $167 $167 $260 $262 reversed $106 $-1 #
face $-1 $-1 $263 $56 $-1 $264 forward single #
loop $-1 $-1 $265 $108 #
plane-surface $-1 0 0 -2.1991409039582512 0 0 -1 -1 0 0 forward_v I I I I #
loop $-1 $-1 $266 $71 #
coedge $-1 $172 $172 $265 $267 reversed $109 $-1 #
face $-1 $268 $269 $57 $-1 $270 reversed single #
loop $-1 $-1 $271 $111 #
plane-surface $-1 0 0 -115.29404583880122 0 0 1 1 0 0 forward_v I I I I #
coedge $-1 $272 $273 $274 $275 forward $112 $-1 #
face $-1 $-1 $276 $58 $-1 $277 forward single #
loop $-1 $-1 $278 $114 #
plane-surface $-1 0 0 -2.1991409039582512 0 0 -1 -1 0 0 forward_v I I I I #
loop $-1 $-1 $279 $73 #
coedge $-1 $181 $181 $278 $280 reversed $115 $-1 #
face $-1 $-1 $281 $59 $-1 $282 forward single #
loop $-1 $-1 $283 $117 #
plane-surface $-1 0 0 -2.1991409039582512 0 0 -1 -1 0 0 forward_v I I I I #
loop $-1 $-1 $284 $74 #
coedge $-1 $186 $186 $283 $285 reversed $118 $-1 #
face $-1 $286 $287 $45 $-1 $288 reversed single #
loop $-1 $-1 $289 $120 #
plane-surface $-1 0 -28.970061250928861 0 0 1 0 0 0 1 forward_v I I I I #
coedge $-1 $290 $291 $292 $293 forward $121 $-1 #
coedge $-1 $294 $123 $295 $296 forward $76 $-1 #
coedge $-1 $123 $294 $297 $298 forward $76 $-1 #
coedge $-1 $299 $300 $123 $194 reversed $301 $-1 #
edge $-1 $302 -28.970061250928861 $303 28.970061250928861 $193 $304 forward 7 unknown #
face $-1 $305 $306 $46 $-1 $307 reversed single #
loop $-1 $-1 $308 $124 #
plane-surface $-1 0 -4.7093741934734092 0 0 1 0 0 0 1 forward_v I I I I #
coedge $-1 $309 $310 $311 $312 forward $125 $-1 #
coedge $-1 $313 $127 $314 $315 forward $79 $-1 #
coedge $-1 $127 $313 $316 $317 forward $79 $-1 #
coedge $-1 $318 $319 $127 $202 reversed $320 $-1 #
edge $-1 $321 -4.7093741934734092 $322 4.7093741934734092 $201 $323 forward 7 unknown #
face $-1 $324 $325 $47 $-1 $326 reversed single #
loop $-1 $-1 $327 $128 #
plane-surface $-1 0 -4.7093741934734084 0 0 1 0 0 0 1 forward_v I I I I #
coedge $-1 $328 $329 $330 $331 forward $129 $-1 #
coedge $-1 $332 $131 $333 $334 forward $82 $-1 #
coedge $-1 $131 $332 $335 $336 forward $82 $-1 #
coedge $-1 $337 $338 $131 $210 reversed $339 $-1 #
edge $-1 $340 -4.7093741934734084 $341 4.7093741934734084 $209 $342 forward 7 unknown #
face $-1 $343 $344 $48 $-1 $345 reversed single #
loop $-1 $-1 $346 $132 #
plane-surface $-1 0 -4.5059460454510134 0 0 1 0 0 0 1 forward_v I I I I #
coedge $-1 $347 $348 $349 $350 forward $133 $-1 #
coedge $-1 $351 $135 $352 $353 forward $85 $-1 #
coedge $-1 $135 $351 $354 $355 forward $85 $-1 #
coedge $-1 $356 $357 $135 $218 reversed $358 $-1 #
edge $-1 $359 -4.5059460454510134 $360 4.5059460454510134 $217 $361 forward 7 unknown #
loop $-1 $362 $363 $136 #
cone-surface $-1 0 0 0 0 0 1 0.5 0 0 1 I I -0.70710678118654746 0.70710678118654746 0.5 forward I I I I #
coedge $-1 $221 $221 $140 $223 forward $137 $-1 #
coedge $-1 $222 $222 $363 $364 forward $139 $-1 #
edge $-1 $365 0 $365 6.2831853071796004 $221 $366 forward 7 unknown #
face $-1 $367 $368 $50 $-1 $369 reversed single #
loop $-1 $-1 $370 $141 #
plane-surface $-1 0 -4.5059460454510134 0 0 1 0 0 0 1 forward_v I I I I #
coedge $-1 $371 $372 $373 $374 forward $142 $-1 #
coedge $-1 $375 $144 $376 $377 forward $91 $-1 #
coedge $-1 $144 $375 $378 $379 forward $91 $-1 #
coedge $-1 $380 $381 $144 $231 reversed $382 $-1 #
edge $-1 $383 -4.5059460454510134 $384 4.5059460454510134 $230 $385 forward 7 unknown #
loop $-1 $386 $387 $145 #
cone-surface $-1 0 0 0 0 0 1 0.5 0 0 1 I I -0.70710678118654746 0.70710678118654746 0.5 forward I I I I #
coedge $-1 $234 $234 $149 $236 forward $146 $-1 #
coedge $-1 $235 $235 $387 $388 forward $148 $-1 #
edge $-1 $389 0 $389 6.2831853071796004 $234 $390 forward 7 unknown #
face $-1 $391 $392 $52 $-1 $393 reversed single #
loop $-1 $-1 $394 $150 #
plane-surface $-1 0 -4.5059460454510134 0 0 1 0 0 0 1 forward_v I I I I #
coedge $-1 $395 $396 $397 $398 forward $151 $-1 #
coedge $-1 $399 $153 $400 $401 forward $97 $-1 #
coedge $-1 $153 $399 $402 $403 forward $97 $-1 #
coedge $-1 $404 $405 $153 $244 reversed $406 $-1 #
edge $-1 $407 -4.5059460454510134 $408 4.5059460454510134 $243 $409 forward 7 unknown #
loop $-1 $410 $411 $154 #
cone-surface $-1 0 0 0 0 0 1 0.5 0 0 1 I I -0.70710678118654746 0.70710678118654746 0.5 forward I I I I #
coedge $-1 $247 $247 $158 $249 forward $155 $-1 #
coedge $-1 $248 $248 $411 $412 forward $157 $-1 #
edge $-1 $413 0 $413 6.2831853071796004 $247 $414 forward 7 unknown #
face $-1 $415 $416 $54 $-1 $417 reversed single #
loop $-1 $-1 $418 $159 #
plane-surface $-1 0 -3.6827223840921297 0 0 1 0 0 0 1 forward_v I I I I #
coedge $-1 $419 $420 $421 $422 forward $160 $-1 #
coedge $-1 $423 $162 $424 $425 forward $103 $-1 #
coedge $-1 $162 $423 $426 $427 forward $103 $-1 #
coedge $-1 $428 $429 $162 $257 reversed $430 $-1 #
edge $-1 $431 -3.6827223840921297 $432 3.6827223840921297 $256 $433 forward 7 unknown #
loop $-1 $434 $435 $163 #
cone-surface $-1 0 0 0 0 0 1 0.25 0 0 1 I I -0.70710678118654746 0.70710678118654746 0.25 forward I I I I #
coedge $-1 $260 $260 $167 $262 forward $164 $-1 #
coedge $-1 $261 $261 $435 $436 forward $166 $-1 #
edge $-1 $437 0 $437 6.2831853071796004 $260 $438 forward 7 unknown #
loop $-1 $439 $440 $168 #
cone-surface $-1 0 0 0 0 0 1 0.25 0 0 1 I I -0.70710678118654746 0.70710678118654746 0.25 forward I I I I #
coedge $-1 $265 $265 $172 $267 forward $169 $-1 #
coedge $-1 $266 $266 $440 $441 forward $171 $-1 #
edge $-1 $442 0 $442 6.2831853071796004 $265 $443 forward 7 unknown #
face $-1 $444 $445 $57 $-1 $446 reversed single #
loop $-1 $-1 $447 $173 #
plane-surface $-1 0 -3.6827223840921297 0 0 1 0 0 0 1 forward_v I I I I #
coedge $-1 $448 $449 $450 $451 forward $174 $-1 #
coedge $-1 $452 $176 $453 $454 forward $112 $-1 #
coedge $-1 $176 $452 $455 $456 forward $112 $-1 #
coedge $-1 $457 $458 $176 $275 reversed $459 $-1 #
edge $-1 $460 -3.6827223840921297 $461 3.6827223840921297 $274 $462 forward 7 unknown #
loop $-1 $463 $464 $177 #
cone-surface $-1 0 0 0 0 0 1 0.25 0 0 1 I I -0.70710678118654746 0.70710678118654746 0.25 forward I I I I #
coedge $-1 $278 $278 $181 $280 forward $178 $-1 #
coedge $-1 $279 $279 $464 $465 forward $180 $-1 #
edge $-1 $466 0 $466 6.2831853071796004 $278 $467 forward 7 unknown #
loop $-1 $468 $469 $182 #
cone-surface $-1 0 0 0 0 0 1 0.25 0 0 1 I I -0.70710678118654746 0.70710678118654746 0.25 forward I I I I #
coedge $-1 $283 $283 $186 $285 forward $183 $-1 #
coedge $-1 $284 $284 $469 $470 forward $185 $-1 #
edge $-1 $471 0 $471 6.2831853071796004 $283 $472 forward 7 unknown #
face $-1 $473 $474 $45 $-1 $475 reversed single #
loop $-1 $-1 $476 $187 #
plane-surface $-1 -57.647022919400612 0 0 1 0 0 0 0 -1 forward_v I I I I #
coedge $-1 $477 $297 $478 $479 forward $188 $-1 #
coedge $-1 $480 $190 $477 $481 forward $121 $-1 #
coedge $-1 $190 $480 $482 $483 forward $121 $-1 #
coedge $-1 $300 $299 $190 $293 reversed $301 $-1 #
edge $-1 $484 -28.970061250928861 $485 28.970061250928861 $292 $486 forward 7 unknown #
coedge $-1 $192 $191 $487 $488 forward $76 $-1 #
coedge $-1 $489 $490 $191 $296 reversed $474 $-1 #
edge $-1 $303 -57.647022919400612 $491 57.647022919400612 $295 $492 forward 7 unknown #
coedge $-1 $289 $493 $192 $298 reversed $188 $-1 #
edge $-1 $494 -57.647022919400612 $302 57.647022919400612 $297 $495 forward 7 unknown #
coedge $-1 $292 $193 $493 $496 forward $301 $-1 #
coedge $-1 $193 $292 $489 $497 reversed $301 $-1 #
loop $-1 $-1 $299 $473 #
vertex $-1 $194 $498 #
vertex $-1 $194 $499 #
straight-curve $-1 57.647022919400612 0 13.585877444148025 0 1 0 I I #
face $-1 $500 $501 $46 $-1 $502 reversed single #
loop $-1 $-1 $503 $195 #
plane-surface $-1 -57.647022919400612 0 0 1 0 0 0 0 -1 forward_v I I I I #
coedge $-1 $504 $316 $505 $506 forward $196 $-1 #
coedge $-1 $507 $198 $504 $508 forward $125 $-1 #
coedge $-1 $198 $507 $509 $510 forward $125 $-1 #
coedge $-1 $319 $318 $198 $312 reversed $320 $-1 #
edge $-1 $511 -4.7093741934734092 $512 4.7093741934734092 $311 $513 forward 7 unknown #
coedge $-1 $200 $199 $514 $515 forward $79 $-1 #
coedge $-1 $516 $517 $199 $315 reversed $501 $-1 #
edge $-1 $322 -57.647022919400612 $518 57.647022919400612 $314 $519 forward 7 unknown #
coedge $-1 $308 $520 $200 $317 reversed $196 $-1 #
edge $-1 $521 -57.647022919400612 $321 57.647022919400612 $316 $522 forward 7 unknown #
coedge $-1 $311 $201 $520 $523 forward $320 $-1 #
coedge $-1 $201 $311 $516 $524 reversed $320 $-1 #
loop $-1 $-1 $318 $500 #
vertex $-1 $202 $525 #
vertex $-1 $202 $526 #
straight-curve $-1 57.647022919400612 0 3.0552157696064199 0 1 0 I I #
face $-1 $527 $528 $47 $-1 $529 reversed single #
loop $-1 $-1 $530 $203 #
plane-surface $-1 -57.647022919400612 0 0 1 0 0 0 0 -1 forward_v I I I I #
coedge $-1 $531 $335 $532 $533 forward $204 $-1 #
coedge $-1 $534 $206 $531 $535 forward $129 $-1 #
coedge $-1 $206 $534 $536 $537 forward $129 $-1 #
coedge $-1 $338 $337 $206 $331 reversed $339 $-1 #
edge $-1 $538 -4.7093741934734084 $539 4.7093741934734084 $330 $540 forward 7 unknown #
coedge $-1 $208 $207 $541 $542 forward $82 $-1 #
coedge $-1 $543 $544 $207 $334 reversed $528 $-1 #
edge $-1 $341 -57.647022919400612 $545 57.647022919400612 $333 $546 forward 7 unknown #
coedge $-1 $327 $547 $208 $336 reversed $204 $-1 #
edge $-1 $548 -57.647022919400612 $340 57.647022919400612 $335 $549 forward 7 unknown #
coedge $-1 $330 $209 $547 $550 forward $339 $-1 #
coedge $-1 $209 $330 $543 $551 reversed $339 $-1 #
loop $-1 $-1 $337 $527 #
vertex $-1 $210 $552 #
vertex $-1 $210 $553 #
straight-curve $-1 57.647022919400612 0 3.0552157696064199 0 1 0 I I #
face $-1 $554 $555 $48 $-1 $556 reversed single #
loop $-1 $-1 $557 $211 #
plane-surface $-1 -230.58809167760245 0 0 1 0 0 0 0 -1 forward_v I I I I #
coedge $-1 $558 $354 $559 $560 forward $212 $-1 #
coedge $-1 $561 $214 $558 $562 forward $133 $-1 #
coedge $-1 $214 $561 $563 $564 forward $133 $-1 #
coedge $-1 $357 $356 $214 $350 reversed $358 $-1 #
edge $-1 $565 -4.5059460454510134 $566 4.5059460454510134 $349 $567 forward 7 unknown #
coedge $-1 $216 $215 $568 $569 forward $85 $-1 #
coedge $-1 $570 $571 $215 $353 reversed $555 $-1 #
edge $-1 $360 -230.58809167760245 $572 230.58809167760245 $352 $573 forward 7 unknown #
coedge $-1 $346 $574 $216 $355 reversed $212 $-1 #
edge $-1 $575 -230.58809167760245 $359 230.58809167760245 $354 $576 forward 7 unknown #
coedge $-1 $349 $217 $574 $577 forward $358 $-1 #
coedge $-1 $217 $349 $570 $578 reversed $358 $-1 #
loop $-1 $-1 $356 $554 #
vertex $-1 $218 $579 #
vertex $-1 $218 $580 #
straight-curve $-1 230.58809167760245 0 115.29404583880122 0 1 0 I I #
loop $-1 $-1 $581 $136 #
coedge $-1 $363 $363 $222 $364 reversed $219 $-1 #
edge $-1 $582 0 $582 6.2831853071796004 $363 $583 forward 7 unknown #
vertex $-1 $223 $584 #
ellipse-curve $-1 0 0 -1.9982451857051302 0 0 -1 1 0 0 1 I I #
face $-1 $585 $586 $50 $-1 $587 reversed single #
loop $-1 $-1 $588 $224 #
plane-surface $-1 -230.58809167760245 0 0 1 0 0 0 0 -1 forward_v I I I I #
coedge $-1 $589 $378 $590 $591 forward $225 $-1 #
coedge $-1 $592 $227 $589 $593 forward $142 $-1 #
coedge $-1 $227 $592 $594 $595 forward $142 $-1 #
coedge $-1 $381 $380 $227 $374 reversed $382 $-1 #
edge $-1 $596 -4.5059460454510134 $597 4.5059460454510134 $373 $598 forward 7 unknown #
coedge $-1 $229 $228 $599 $600 forward $91 $-1 #
coedge $-1 $601 $602 $228 $377 reversed $586 $-1 #
edge $-1 $384 -230.58809167760245 $603 230.58809167760245 $376 $604 forward 7 unknown #
coedge $-1 $370 $605 $229 $379 reversed $225 $-1 #
edge $-1 $606 -230.58809167760245 $383 230.58809167760245 $378 $607 forward 7 unknown #
coedge $-1 $373 $230 $605 $608 forward $382 $-1 #
coedge $-1 $230 $373 $601 $609 reversed $382 $-1 #
loop $-1 $-1 $380 $585 #
vertex $-1 $231 $610 #
vertex $-1 $231 $611 #
straight-curve $-1 230.58809167760245 0 115.29404583880122 0 1 0 I I #
loop $-1 $-1 $612 $145 #
coedge $-1 $387 $387 $235 $388 reversed $232 $-1 #
edge $-1 $613 0 $613 6.2831853071796004 $387 $614 forward 7 unknown #
vertex $-1 $236 $615 #
ellipse-curve $-1 0 0 -1.9982451857051302 0 0 -1 1 0 0 1 I I #
face $-1 $616 $617 $52 $-1 $618 reversed single #
loop $-1 $-1 $619 $237 #
plane-surface $-1 -230.58809167760245 0 0 1 0 0 0 0 -1 forward_v I I I I #
coedge $-1 $620 $402 $621 $622 forward $238 $-1 #
coedge $-1 $623 $240 $620 $624 forward $151 $-1 #
coedge $-1 $240 $623 $625 $626 forward $151 $-1 #
coedge $-1 $405 $404 $240 $398 reversed $406 $-1 #
edge $-1 $627 -4.5059460454510134 $628 4.5059460454510134 $397 $629 forward 7 unknown #
coedge $-1 $242 $241 $630 $631 forward $97 $-1 #
coedge $-1 $632 $633 $241 $401 reversed $617 $-1 #
edge $-1 $408 -230.58809167760245 $634 230.58809167760245 $400 $635 forward 7 unknown #
coedge $-1 $394 $636 $242 $403 reversed $238 $-1 #
edge $-1 $637 -230.58809167760245 $407 230.58809167760245 $402 $638 forward 7 unknown #
coedge $-1 $397 $243 $636 $639 forward $406 $-1 #
coedge $-1 $243 $397 $632 $640 reversed $406 $-1 #
loop $-1 $-1 $404 $616 #
vertex $-1 $244 $641 #
vertex $-1 $244 $642 #
straight-curve $-1 230.58809167760245 0 115.29404583880122 0 1 0 I I #
loop $-1 $-1 $643 $154 #
coedge $-1 $411 $411 $248 $412 reversed $245 $-1 #
edge $-1 $644 0 $644 6.2831853071796004 $411 $645 forward 7 unknown #
vertex $-1 $249 $646 #
ellipse-curve $-1 0 0 -1.9982451857051302 0 0 -1 1 0 0 1 I I #
face $-1 $647 $648 $54 $-1 $649 reversed single #
loop $-1 $-1 $650 $250 #
plane-surface $-1 -230.58809167760245 0 0 1 0 0 0 0 -1 forward_v I I I I #
coedge $-1 $651 $426 $652 $653 forward $251 $-1 #
coedge $-1 $654 $253 $651 $655 forward $160 $-1 #
coedge $-1 $253 $654 $656 $657 forward $160 $-1 #
coedge $-1 $429 $428 $253 $422 reversed $430 $-1 #
edge $-1 $658 -3.6827223840921297 $659 3.6827223840921297 $421 $660 forward 7 unknown #
coedge $-1 $255 $254 $661 $662 forward $103 $-1 #
coedge $-1 $663 $664 $254 $425 reversed $648 $-1 #
edge $-1 $432 -230.58809167760245 $665 230.58809167760245 $424 $666 forward 7 unknown #
coedge $-1 $418 $667 $255 $427 reversed $251 $-1 #
edge $-1 $668 -230.58809167760245 $431 230.58809167760245 $426 $669 forward 7 unknown #
coedge $-1 $421 $256 $667 $670 forward $430 $-1 #
coedge $-1 $256 $421 $663 $671 reversed $430 $-1 #
loop $-1 $-1 $428 $647 #
vertex $-1 $257 $672 #
vertex $-1 $257 $673 #
straight-curve $-1 230.58809167760245 0 115.29404583880122 0 1 0 I I #
loop $-1 $-1 $674 $163 #
coedge $-1 $435 $435 $261 $436 reversed $258 $-1 #
edge $-1 $675 0 $675 6.2831853071796004 $435 $676 forward 7 unknown #
vertex $-1 $262 $677 #
ellipse-curve $-1 0 0 -2.1991409039582512 0 0 -1 0.5 0 0 1 I I #
loop $-1 $-1 $678 $168 #
coedge $-1 $440 $440 $266 $441 reversed $263 $-1 #
edge $-1 $679 0 $679 6.2831853071796004 $440 $680 forward 7 unknown #
vertex $-1 $267 $681 #
ellipse-curve $-1 0 0 -2.1991409039582512 0 0 -1 0.5 0 0 1 I I #
face $-1 $682 $683 $57 $-1 $684 reversed single #
loop $-1 $-1 $685 $268 #
plane-surface $-1 -230.58809167760245 0 0 1 0 0 0 0 -1 forward_v I I I I #
coedge $-1 $686 $455 $687 $688 forward $269 $-1 #
coedge $-1 $689 $271 $686 $690 forward $174 $-1 #
coedge $-1 $271 $689 $691 $692 forward $174 $-1 #
coedge $-1 $458 $457 $271 $451 reversed $459 $-1 #
edge $-1 $693 -3.6827223840921297 $694 3.6827223840921297 $450 $695 forward 7 unknown #
coedge $-1 $273 $272 $696 $697 forward $112 $-1 #
coedge $-1 $698 $699 $272 $454 reversed $683 $-1 #
edge $-1 $461 -230.58809167760245 $700 230.58809167760245 $453 $701 forward 7 unknown #
coedge $-1 $447 $702 $273 $456 reversed $269 $-1 #
edge $-1 $703 -230.58809167760245 $460 230.58809167760245 $455 $704 forward 7 unknown #
coedge $-1 $450 $274 $702 $705 forward $459 $-1 #
coedge $-1 $274 $450 $698 $706 reversed $459 $-1 #
loop $-1 $-1 $457 $682 #
vertex $-1 $275 $707 #
vertex $-1 $275 $708 #
straight-curve $-1 230.58809167760245 0 115.29404583880122 0 1 0 I I #
loop $-1 $-1 $709 $177 #
coedge $-1 $464 $464 $279 $465 reversed $276 $-1 #
edge $-1 $710 0 $710 6.2831853071796004 $464 $711 forward 7 unknown #
vertex $-1 $280 $712 #
ellipse-curve $-1 0 0 -2.1991409039582512 0 0 -1 0.5 0 0 1 I I #
loop $-1 $-1 $713 $182 #
coedge $-1 $469 $469 $284 $470 reversed $281 $-1 #
edge $-1 $714 0 $714 6.2831853071796004 $469 $715 forward 7 unknown #
vertex $-1 $285 $716 #
ellipse-curve $-1 0 0 -2.1991409039582512 0 0 -1 0.5 0 0 1 I I #
face $-1 $-1 $301 $45 $-1 $717 reversed single #
loop $-1 $-1 $489 $286 #
plane-surface $-1 0 28.970061250928861 0 0 -1 0 0 0 -1 forward_v I I I I #
coedge $-1 $718 $487 $490 $719 forward $287 $-1 #
coedge $-1 $493 $289 $290 $481 reversed $188 $-1 #
coedge $-1 $487 $718 $289 $479 reversed $287 $-1 #
edge $-1 $494 -13.585877444148025 $720 13.585877444148025 $478 $721 forward 7 unknown #
coedge $-1 $291 $290 $718 $722 forward $121 $-1 #
edge $-1 $485 -57.647022919400612 $720 57.647022919400612 $477 $723 forward 7 unknown #
coedge $-1 $490 $489 $291 $483 reversed $474 $-1 #
edge $-1 $724 -57.647022919400612 $484 57.647022919400612 $482 $725 forward 7 unknown #
vertex $-1 $293 $726 #
vertex $-1 $496 $727 #
straight-curve $-1 57.647022919400612 0 -13.585877444148025 0 -1 0 I I #
coedge $-1 $476 $478 $294 $488 reversed $287 $-1 #
edge $-1 $491 -28.970061250928861 $494 28.970061250928861 $487 $728 forward 7 unknown #
coedge $-1 $482 $295 $300 $497 forward $474 $-1 #
coedge $-1 $295 $482 $476 $719 reversed $474 $-1 #
vertex $-1 $296 $729 #
straight-curve $-1 0 28.970061250928861 13.585877444148025 -1 0 0 I I #
coedge $-1 $297 $477 $299 $496 reversed $188 $-1 #
vertex $-1 $488 $730 #
straight-curve $-1 0 -28.970061250928861 13.585877444148025 1 0 0 I I #
edge $-1 $302 -13.585877444148025 $485 13.585877444148025 $299 $731 forward 7 unknown #
edge $-1 $303 -13.585877444148025 $484 13.585877444148025 $300 $732 forward 7 unknown #
point $-1 57.647022919400612 -28.970061250928861 13.585877444148025 #
point $-1 57.647022919400612 28.970061250928861 13.585877444148025 #
face $-1 $-1 $320 $46 $-1 $733 reversed single #
loop $-1 $-1 $516 $305 #
plane-surface $-1 0 4.7093741934734092 0 0 -1 0 0 0 -1 forward_v I I I I #
coedge $-1 $734 $514 $517 $735 forward $306 $-1 #
coedge $-1 $520 $308 $309 $508 reversed $196 $-1 #
coedge $-1 $514 $734 $308 $506 reversed $306 $-1 #
edge $-1 $521 -3.0552157696064199 $736 3.0552157696064199 $505 $737 forward 7 unknown #
coedge $-1 $310 $309 $734 $738 forward $125 $-1 #
edge $-1 $512 -57.647022919400612 $736 57.647022919400612 $504 $739 forward 7 unknown #
coedge $-1 $517 $516 $310 $510 reversed $501 $-1 #
edge $-1 $740 -57.647022919400612 $511 57.647022919400612 $509 $741 forward 7 unknown #
vertex $-1 $312 $742 #
vertex $-1 $523 $743 #
straight-curve $-1 57.647022919400612 0 -3.0552157696064199 0 -1 0 I I #
coedge $-1 $503 $505 $313 $515 reversed $306 $-1 #
edge $-1 $518 -4.7093741934734092 $521 4.7093741934734092 $514 $744 forward 7 unknown #
coedge $-1 $509 $314 $319 $524 forward $501 $-1 #
coedge $-1 $314 $509 $503 $735 reversed $501 $-1 #
vertex $-1 $315 $745 #
straight-curve $-1 0 4.7093741934734092 3.0552157696064199 -1 0 0 I I #
coedge $-1 $316 $504 $318 $523 reversed $196 $-1 #
vertex $-1 $515 $746 #
straight-curve $-1 0 -4.7093741934734092 3.0552157696064199 1 0 0 I I #
edge $-1 $321 -3.0552157696064199 $512 3.0552157696064199 $318 $747 forward 7 unknown #
edge $-1 $322 -3.0552157696064199 $511 3.0552157696064199 $319 $748 forward 7 unknown #
point $-1 57.647022919400612 -4.7093741934734092 3.0552157696064199 #
point $-1 57.647022919400612 4.7093741934734092 3.0552157696064199 #
face $-1 $-1 $339 $47 $-1 $749 reversed single #
loop $-1 $-1 $543 $324 #
plane-surface $-1 0 4.7093741934734084 0 0 -1 0 0 0 -1 forward_v I I I I #
coedge $-1 $750 $541 $544 $751 forward $325 $-1 #
coedge $-1 $547 $327 $328 $535 reversed $204 $-1 #
coedge $-1 $541 $750 $327 $533 reversed $325 $-1 #
edge $-1 $548 -3.0552157696064199 $752 3.0552157696064199 $532 $753 forward 7 unknown #
coedge $-1 $329 $328 $750 $754 forward $129 $-1 #
edge $-1 $539 -57.647022919400612 $752 57.647022919400612 $531 $755 forward 7 unknown #
coedge $-1 $544 $543 $329 $537 reversed $528 $-1 #
edge $-1 $756 -57.647022919400612 $538 57.647022919400612 $536 $757 forward 7 unknown #
vertex $-1 $331 $758 #
vertex $-1 $550 $759 #
straight-curve $-1 57.647022919400612 0 -3.0552157696064199 0 -1 0 I I #
coedge $-1 $530 $532 $332 $542 reversed $325 $-1 #
edge $-1 $545 -4.7093741934734084 $548 4.7093741934734084 $541 $760 forward 7 unknown #
coedge $-1 $536 $333 $338 $551 forward $528 $-1 #
coedge $-1 $333 $536 $530 $751 reversed $528 $-1 #
vertex $-1 $334 $761 #
straight-curve $-1 0 4.7093741934734084 3.0552157696064199 -1 0 0 I I #
coedge $-1 $335 $531 $337 $550 reversed $204 $-1 #
vertex $-1 $542 $762 #
straight-curve $-1 0 -4.7093741934734084 3.0552157696064199 1 0 0 I I #
edge $-1 $340 -3.0552157696064199 $539 3.0552157696064199 $337 $763 forward 7 unknown #
edge $-1 $341 -3.0552157696064199 $538 3.0552157696064199 $338 $764 forward 7 unknown #
point $-1 57.647022919400612 -4.7093741934734084 3.0552157696064199 #
point $-1 57.647022919400612 4.7093741934734084 3.0552157696064199 #
face $-1 $-1 $358 $48 $-1 $765 reversed single #
loop $-1 $-1 $570 $343 #
plane-surface $-1 0 4.5059460454510134 0 0 -1 0 0 0 -1 forward_v I I I I #
coedge $-1 $766 $568 $571 $767 forward $344 $-1 #
coedge $-1 $574 $346 $347 $562 reversed $212 $-1 #
coedge $-1 $568 $766 $346 $560 reversed $344 $-1 #
edge $-1 $575 -115.29404583880122 $768 115.29404583880122 $559 $769 forward 7 unknown #
coedge $-1 $348 $347 $766 $770 forward $133 $-1 #
edge $-1 $566 -230.58809167760245 $768 230.58809167760245 $558 $771 forward 7 unknown #
coedge $-1 $571 $570 $348 $564 reversed $555 $-1 #
edge $-1 $772 -230.58809167760245 $565 230.58809167760245 $563 $773 forward 7 unknown #
vertex $-1 $350 $774 #
vertex $-1 $577 $775 #
straight-curve $-1 230.58809167760245 0 -115.29404583880122 0 -1 0 I I #
coedge $-1 $557 $559 $351 $569 reversed $344 $-1 #
edge $-1 $572 -4.5059460454510134 $575 4.5059460454510134 $568 $776 forward 7 unknown #
coedge $-1 $563 $352 $357 $578 forward $555 $-1 #
coedge $-1 $352 $563 $557 $767 reversed $555 $-1 #
vertex $-1 $353 $777 #
straight-curve $-1 0 4.5059460454510134 115.29404583880122 -1 0 0 I I #
coedge $-1 $354 $558 $356 $577 reversed $212 $-1 #
vertex $-1 $569 $778 #
straight-curve $-1 0 -4.5059460454510134 115.29404583880122 1 0 0 I I #
edge $-1 $359 -115.29404583880122 $566 115.29404583880122 $356 $779 forward 7 unknown #
edge $-1 $360 -115.29404583880122 $565 115.29404583880122 $357 $780 forward 7 unknown #
point $-1 230.58809167760245 -4.5059460454510134 115.29404583880122 #
point $-1 230.58809167760245 4.5059460454510134 115.29404583880122 #
coedge $-1 $581 $581 $-1 $781 reversed $362 $-1 #
vertex $-1 $364 $782 #
ellipse-curve $-1 0 0 -0.5 0 0 -1 1 0 0 1 I I #
point $-1 1 0 -1.9982451857051302 #
face $-1 $-1 $382 $50 $-1 $783 reversed single #
loop $-1 $-1 $601 $367 #
plane-surface $-1 0 4.5059460454510134 0 0 -1 0 0 0 -1 forward_v I I I I #
coedge $-1 $784 $599 $602 $785 forward $368 $-1 #
coedge $-1 $605 $370 $371 $593 reversed $225 $-1 #
coedge $-1 $599 $784 $370 $591 reversed $368 $-1 #
edge $-1 $606 -115.29404583880122 $786 115.29404583880122 $590 $787 forward 7 unknown #
coedge $-1 $372 $371 $784 $788 forward $142 $-1 #
edge $-1 $597 -230.58809167760245 $786 230.58809167760245 $589 $789 forward 7 unknown #
coedge $-1 $602 $601 $372 $595 reversed $586 $-1 #
edge $-1 $790 -230.58809167760245 $596 230.58809167760245 $594 $791 forward 7 unknown #
vertex $-1 $374 $792 #
vertex $-1 $608 $793 #
straight-curve $-1 230.58809167760245 0 -115.29404583880122 0 -1 0 I I #
coedge $-1 $588 $590 $375 $600 reversed $368 $-1 #
edge $-1 $603 -4.5059460454510134 $606 4.5059460454510134 $599 $794 forward 7 unknown #
coedge $-1 $594 $376 $381 $609 forward $586 $-1 #
coedge $-1 $376 $594 $588 $785 reversed $586 $-1 #
vertex $-1 $377 $795 #
straight-curve $-1 0 4.5059460454510134 115.29404583880122 -1 0 0 I I #
coedge $-1 $378 $589 $380 $608 reversed $225 $-1 #
vertex $-1 $600 $796 #
straight-curve $-1 0 -4.5059460454510134 115.29404583880122 1 0 0 I I #
edge $-1 $383 -115.29404583880122 $597 115.29404583880122 $380 $797 forward 7 unknown #
edge $-1 $384 -115.29404583880122 $596 115.29404583880122 $381 $798 forward 7 unknown #
point $-1 230.58809167760245 -4.5059460454510134 115.29404583880122 #
point $-1 230.58809167760245 4.5059460454510134 115.29404583880122 #
coedge $-1 $612 $612 $-1 $799 reversed $386 $-1 #
vertex $-1 $388 $800 #
ellipse-curve $-1 0 0 -0.5 0 0 -1 1 0 0 1 I I #
point $-1 1 0 -1.9982451857051302 #
face $-1 $-1 $406 $52 $-1 $801 reversed single #
loop $-1 $-1 $632 $391 #
plane-surface $-1 0 4.5059460454510134 0 0 -1 0 0 0 -1 forward_v I I I I #
coedge $-1 $802 $630 $633 $803 forward $392 $-1 #
coedge $-1 $636 $394 $395 $624 reversed $238 $-1 #
coedge $-1 $630 $802 $394 $622 reversed $392 $-1 #
edge $-1 $637 -115.29404583880122 $804 115.29404583880122 $621 $805 forward 7 unknown #
coedge $-1 $396 $395 $802 $806 forward $151 $-1 #
edge $-1 $628 -230.58809167760245 $804 230.58809167760245 $620 $807 forward 7 unknown #
coedge $-1 $633 $632 $396 $626 reversed $617 $-1 #
edge $-1 $808 -230.58809167760245 $627 230.58809167760245 $625 $809 forward 7 unknown #
vertex $-1 $398 $810 #
vertex $-1 $639 $811 #
straight-curve $-1 230.58809167760245 0 -115.29404583880122 0 -1 0 I I #
coedge $-1 $619 $621 $399 $631 reversed $392 $-1 #
edge $-1 $634 -4.5059460454510134 $637 4.5059460454510134 $630 $812 forward 7 unknown #
coedge $-1 $625 $400 $405 $640 forward $617 $-1 #
coedge $-1 $400 $625 $619 $803 reversed $617 $-1 #
vertex $-1 $401 $813 #
straight-curve $-1 0 4.5059460454510134 115.29404583880122 -1 0 0 I I #
coedge $-1 $402 $620 $404 $639 reversed $238 $-1 #
vertex $-1 $631 $814 #
straight-curve $-1 0 -4.5059460454510134 115.29404583880122 1 0 0 I I #
edge $-1 $407 -115.29404583880122 $628 115.29404583880122 $404 $815 forward 7 unknown #
edge $-1 $408 -115.29404583880122 $627 115.29404583880122 $405 $816 forward 7 unknown #
point $-1 230.58809167760245 -4.5059460454510134 115.29404583880122 #
point $-1 230.58809167760245 4.5059460454510134 115.29404583880122 #
coedge $-1 $643 $643 $-1 $817 reversed $410 $-1 #
vertex $-1 $412 $818 #
ellipse-curve $-1 0 0 -0.5 0 0 -1 1 0 0 1 I I #
point $-1 1 0 -1.9982451857051302 #
face $-1 $-1 $430 $54 $-1 $819 reversed single #
loop $-1 $-1 $663 $415 #
plane-surface $-1 0 3.6827223840921297 0 0 -1 0 0 0 -1 forward_v I I I I #
coedge $-1 $820 $661 $664 $821 forward $416 $-1 #
coedge $-1 $667 $418 $419 $655 reversed $251 $-1 #
coedge $-1 $661 $820 $418 $653 reversed $416 $-1 #
edge $-1 $668 -115.29404583880122 $822 115.29404583880122 $652 $823 forward 7 unknown #
coedge $-1 $420 $419 $820 $824 forward $160 $-1 #
edge $-1 $659 -230.58809167760245 $822 230.58809167760245 $651 $825 forward 7 unknown #
coedge $-1 $664 $663 $420 $657 reversed $648 $-1 #
edge $-1 $826 -230.58809167760245 $658 230.58809167760245 $656 $827 forward 7 unknown #
vertex $-1 $422 $828 #
vertex $-1 $670 $829 #
straight-curve $-1 230.58809167760245 0 -115.29404583880122 0 -1 0 I I #
coedge $-1 $650 $652 $423 $662 reversed $416 $-1 #
edge $-1 $665 -3.6827223840921297 $668 3.6827223840921297 $661 $830 forward 7 unknown #
coedge $-1 $656 $424 $429 $671 forward $648 $-1 #
coedge $-1 $424 $656 $650 $821 reversed $648 $-1 #
vertex $-1 $425 $831 #
straight-curve $-1 0 3.6827223840921297 115.29404583880122 -1 0 0 I I #
coedge $-1 $426 $651 $428 $670 reversed $251 $-1 #
vertex $-1 $662 $832 #
straight-curve $-1 0 -3.6827223840921297 115.29404583880122 1 0 0 I I #
edge $-1 $431 -115.29404583880122 $659 115.29404583880122 $428 $833 forward 7 unknown #
edge $-1 $432 -115.29404583880122 $658 115.29404583880122 $429 $834 forward 7 unknown #
point $-1 230.58809167760245 -3.6827223840921297 115.29404583880122 #
point $-1 230.58809167760245 3.6827223840921297 115.29404583880122 #
coedge $-1 $674 $674 $-1 $835 reversed $434 $-1 #
vertex $-1 $436 $836 #
ellipse-curve $-1 0 0 -0.25 0 0 -1 0.5 0 0 1 I I #
point $-1 0.5 0 -2.1991409039582512 #
coedge $-1 $678 $678 $-1 $837 reversed $439 $-1 #
vertex $-1 $441 $838 #
ellipse-curve $-1 0 0 -0.25 0 0 -1 0.5 0 0 1 I I #
point $-1 0.5 0 -2.1991409039582512 #
face $-1 $-1 $459 $57 $-1 $839 reversed single #
loop $-1 $-1 $698 $444 #
plane-surface $-1 0 3.6827223840921297 0 0 -1 0 0 0 -1 forward_v I I I I #
coedge $-1 $840 $696 $699 $841 forward $445 $-1 #
coedge $-1 $702 $447 $448 $690 reversed $269 $-1 #
coedge $-1 $696 $840 $447 $688 reversed $445 $-1 #
edge $-1 $703 -115.29404583880122 $842 115.29404583880122 $687 $843 forward 7 unknown #
coedge $-1 $449 $448 $840 $844 forward $174 $-1 #
edge $-1 $694 -230.58809167760245 $842 230.58809167760245 $686 $845 forward 7 unknown #
coedge $-1 $699 $698 $449 $692 reversed $683 $-1 #
edge $-1 $846 -230.58809167760245 $693 230.58809167760245 $691 $847 forward 7 unknown #
vertex $-1 $451 $848 #
vertex $-1 $705 $849 #
straight-curve $-1 230.58809167760245 0 -115.29404583880122 0 -1 0 I I #
coedge $-1 $685 $687 $452 $697 reversed $445 $-1 #
edge $-1 $700 -3.6827223840921297 $703 3.6827223840921297 $696 $850 forward 7 unknown #
coedge $-1 $691 $453 $458 $706 forward $683 $-1 #
coedge $-1 $453 $691 $685 $841 reversed $683 $-1 #
vertex $-1 $454 $851 #
straight-curve $-1 0 3.6827223840921297 115.29404583880122 -1 0 0 I I #
coedge $-1 $455 $686 $457 $705 reversed $269 $-1 #
vertex $-1 $697 $852 #
straight-curve $-1 0 -3.6827223840921297 115.29404583880122 1 0 0 I I #
edge $-1 $460 -115.29404583880122 $694 115.29404583880122 $457 $853 forward 7 unknown #
edge $-1 $461 -115.29404583880122 $693 115.29404583880122 $458 $854 forward 7 unknown #
point $-1 230.58809167760245 -3.6827223840921297 115.29404583880122 #
point $-1 230.58809167760245 3.6827223840921297 115.29404583880122 #
coedge $-1 $709 $709 $-1 $855 reversed $463 $-1 #
vertex $-1 $465 $856 #
ellipse-curve $-1 0 0 -0.25 0 0 -1 0.5 0 0 1 I I #
point $-1 0.5 0 -2.1991409039582512 #
coedge $-1 $713 $713 $-1 $857 reversed $468 $-1 #
vertex $-1 $470 $858 #
ellipse-curve $-1 0 0 -0.25 0 0 -1 0.5 0 0 1 I I #
point $-1 0.5 0 -2.1991409039582512 #
plane-surface $-1 57.647022919400612 0 0 -1 0 0 0 0 1 forward_v I I I I #
coedge $-1 $478 $476 $480 $722 reversed $287 $-1 #
edge $-1 $491 -13.585877444148025 $724 13.585877444148025 $490 $859 forward 7 unknown #
vertex $-1 $722 $860 #
straight-curve $-1 -57.647022919400612 -28.970061250928861 0 0 0 -1 I I #
edge $-1 $720 -28.970061250928861 $724 28.970061250928861 $718 $861 forward 7 unknown #
straight-curve $-1 0 -28.970061250928861 -13.585877444148025 -1 0 0 I I #
vertex $-1 $483 $862 #
straight-curve $-1 0 28.970061250928861 -13.585877444148025 1 0 0 I I #
point $-1 57.647022919400612 28.970061250928861 -13.585877444148025 #
point $-1 57.647022919400612 -28.970061250928861 -13.585877444148025 #
straight-curve $-1 -57.647022919400612 0 13.585877444148025 0 -1 0 I I #
point $-1 -57.647022919400612 28.970061250928861 13.585877444148025 #
point $-1 -57.647022919400612 -28.970061250928861 13.585877444148025 #
straight-curve $-1 57.647022919400612 -28.970061250928861 0 0 0 -1 I I #
straight-curve $-1 57.647022919400612 28.970061250928861 0 0 0 -1 I I #
plane-surface $-1 57.647022919400612 0 0 -1 0 0 0 0 1 forward_v I I I I #
coedge $-1 $505 $503 $507 $738 reversed $306 $-1 #
edge $-1 $518 -3.0552157696064199 $740 3.0552157696064199 $517 $863 forward 7 unknown #
vertex $-1 $738 $864 #
straight-curve $-1 -57.647022919400612 -4.7093741934734092 0 0 0 -1 I I #
edge $-1 $736 -4.7093741934734092 $740 4.7093741934734092 $734 $865 forward 7 unknown #
straight-curve $-1 0 -4.7093741934734092 -3.0552157696064199 -1 0 0 I I #
vertex $-1 $510 $866 #
straight-curve $-1 0 4.7093741934734092 -3.0552157696064199 1 0 0 I I #
point $-1 57.647022919400612 4.7093741934734092 -3.0552157696064199 #
point $-1 57.647022919400612 -4.7093741934734092 -3.0552157696064199 #
straight-curve $-1 -57.647022919400612 0 3.0552157696064199 0 -1 0 I I #
point $-1 -57.647022919400612 4.7093741934734092 3.0552157696064199 #
point $-1 -57.647022919400612 -4.7093741934734092 3.0552157696064199 #
straight-curve $-1 57.647022919400612 -4.7093741934734092 0 0 0 -1 I I #
straight-curve $-1 57.647022919400612 4.7093741934734092 0 0 0 -1 I I #
plane-surface $-1 57.647022919400612 0 0 -1 0 0 0 0 1 forward_v I I I I #
coedge $-1 $532 $530 $534 $754 reversed $325 $-1 #
edge $-1 $545 -3.0552157696064199 $756 3.0552157696064199 $544 $867 forward 7 unknown #
vertex $-1 $754 $868 #
straight-curve $-1 -57.647022919400612 -4.7093741934734084 0 0 0 -1 I I #
edge $-1 $752 -4.7093741934734084 $756 4.7093741934734084 $750 $869 forward 7 unknown #
straight-curve $-1 0 -4.7093741934734084 -3.0552157696064199 -1 0 0 I I #
vertex $-1 $537 $870 #
straight-curve $-1 0 4.7093741934734084 -3.0552157696064199 1 0 0 I I #
point $-1 57.647022919400612 4.7093741934734084 -3.0552157696064199 #
point $-1 57.647022919400612 -4.7093741934734084 -3.0552157696064199 #
straight-curve $-1 -57.647022919400612 0 3.0552157696064199 0 -1 0 I I #
point $-1 -57.647022919400612 4.7093741934734084 3.0552157696064199 #
point $-1 -57.647022919400612 -4.7093741934734084 3.0552157696064199 #
straight-curve $-1 57.647022919400612 -4.7093741934734084 0 0 0 -1 I I #
straight-curve $-1 57.647022919400612 4.7093741934734084 0 0 0 -1 I I #
plane-surface $-1 230.58809167760245 0 0 -1 0 0 0 0 1 forward_v I I I I #
coedge $-1 $559 $557 $561 $770 reversed $344 $-1 #
edge $-1 $572 -115.29404583880122 $772 115.29404583880122 $571 $871 forward 7 unknown #
vertex $-1 $770 $872 #
straight-curve $-1 -230.58809167760245 -4.5059460454510134 0 0 0 -1 I I #
edge $-1 $768 -4.5059460454510134 $772 4.5059460454510134 $766 $873 forward 7 unknown #
straight-curve $-1 0 -4.5059460454510134 -115.29404583880122 -1 0 0 I I #
vertex $-1 $564 $874 #
straight-curve $-1 0 4.5059460454510134 -115.29404583880122 1 0 0 I I #
point $-1 230.58809167760245 4.5059460454510134 -115.29404583880122 #
point $-1 230.58809167760245 -4.5059460454510134 -115.29404583880122 #
straight-curve $-1 -230.58809167760245 0 115.29404583880122 0 -1 0 I I #
point $-1 -230.58809167760245 4.5059460454510134 115.29404583880122 #
point $-1 -230.58809167760245 -4.5059460454510134 115.29404583880122 #
straight-curve $-1 230.58809167760245 -4.5059460454510134 0 0 0 -1 I I #
straight-curve $-1 230.58809167760245 4.5059460454510134 0 0 0 -1 I I #
edge $-1 $875 1 $875 0 $581 $-1 forward 7 unknown #
point $-1 1 0 -0.5 #
plane-surface $-1 230.58809167760245 0 0 -1 0 0 0 0 1 forward_v I I I I #
coedge $-1 $590 $588 $592 $788 reversed $368 $-1 #
edge $-1 $603 -115.29404583880122 $790 115.29404583880122 $602 $876 forward 7 unknown #
vertex $-1 $788 $877 #
straight-curve $-1 -230.58809167760245 -4.5059460454510134 0 0 0 -1 I I #
edge $-1 $786 -4.5059460454510134 $790 4.5059460454510134 $784 $878 forward 7 unknown #
straight-curve $-1 0 -4.5059460454510134 -115.29404583880122 -1 0 0 I I #
vertex $-1 $595 $879 #
straight-curve $-1 0 4.5059460454510134 -115.29404583880122 1 0 0 I I #
point $-1 230.58809167760245 4.5059460454510134 -115.29404583880122 #
point $-1 230.58809167760245 -4.5059460454510134 -115.29404583880122 #
straight-curve $-1 -230.58809167760245 0 115.29404583880122 0 -1 0 I I #
point $-1 -230.58809167760245 4.5059460454510134 115.29404583880122 #
point $-1 -230.58809167760245 -4.5059460454510134 115.29404583880122 #
straight-curve $-1 230.58809167760245 -4.5059460454510134 0 0 0 -1 I I #
straight-curve $-1 230.58809167760245 4.5059460454510134 0 0 0 -1 I I #
edge $-1 $880 1 $880 0 $612 $-1 forward 7 unknown #
point $-1 1 0 -0.5 #
plane-surface $-1 230.58809167760245 0 0 -1 0 0 0 0 1 forward_v I I I I #
coedge $-1 $621 $619 $623 $806 reversed $392 $-1 #
edge $-1 $634 -115.29404583880122 $808 115.29404583880122 $633 $881 forward 7 unknown #
vertex $-1 $806 $882 #
straight-curve $-1 -230.58809167760245 -4.5059460454510134 0 0 0 -1 I I #
edge $-1 $804 -4.5059460454510134 $808 4.5059460454510134 $802 $883 forward 7 unknown #
straight-curve $-1 0 -4.5059460454510134 -115.29404583880122 -1 0 0 I I #
vertex $-1 $626 $884 #
straight-curve $-1 0 4.5059460454510134 -115.29404583880122 1 0 0 I I #
point $-1 230.58809167760245 4.5059460454510134 -115.29404583880122 #
point $-1 230.58809167760245 -4.5059460454510134 -115.29404583880122 #
straight-curve $-1 -230.58809167760245 0 115.29404583880122 0 -1 0 I I #
point $-1 -230.58809167760245 4.5059460454510134 115.29404583880122 #
point $-1 -230.58809167760245 -4.5059460454510134 115.29404583880122 #
straight-curve $-1 230.58809167760245 -4.5059460454510134 0 0 0 -1 I I #
straight-curve $-1 230.58809167760245 4.5059460454510134 0 0 0 -1 I I #
edge $-1 $885 1 $885 0 $643 $-1 forward 7 unknown #
point $-1 1 0 -0.5 #
plane-surface $-1 230.58809167760245 0 0 -1 0 0 0 0 1 forward_v I I I I #
coedge $-1 $652 $650 $654 $824 reversed $416 $-1 #
edge $-1 $665 -115.29404583880122 $826 115.29404583880122 $664 $886 forward 7 unknown #
vertex $-1 $824 $887 #
straight-curve $-1 -230.58809167760245 -3.6827223840921297 0 0 0 -1 I I #
edge $-1 $822 -3.6827223840921297 $826 3.6827223840921297 $820 $888 forward 7 unknown #
straight-curve $-1 0 -3.6827223840921297 -115.29404583880122 -1 0 0 I I #
vertex $-1 $657 $889 #
straight-curve $-1 0 3.6827223840921297 -115.29404583880122 1 0 0 I I #
point $-1 230.58809167760245 3.6827223840921297 -115.29404583880122 #
point $-1 230.58809167760245 -3.6827223840921297 -115.29404583880122 #
straight-curve $-1 -230.58809167760245 0 115.29404583880122 0 -1 0 I I #
point $-1 -230.58809167760245 3.6827223840921297 115.29404583880122 #
point $-1 -230.58809167760245 -3.6827223840921297 115.29404583880122 #
straight-curve $-1 230.58809167760245 -3.6827223840921297 0 0 0 -1 I I #
straight-curve $-1 230.58809167760245 3.6827223840921297 0 0 0 -1 I I #
edge $-1 $890 1 $890 0 $674 $-1 forward 7 unknown #
point $-1 0.5 0 -0.25 #
edge $-1 $891 1 $891 0 $678 $-1 forward 7 unknown #
point $-1 0.5 0 -0.25 #
plane-surface $-1 230.58809167760245 0 0 -1 0 0 0 0 1 forward_v I I I I #
coedge $-1 $687 $685 $689 $844 reversed $445 $-1 #
edge $-1 $700 -115.29404583880122 $846 115.29404583880122 $699 $892 forward 7 unknown #
vertex $-1 $844 $893 #
straight-curve $-1 -230.58809167760245 -3.6827223840921297 0 0 0 -1 I I #
edge $-1 $842 -3.6827223840921297 $846 3.6827223840921297 $840 $894 forward 7 unknown #
straight-curve $-1 0 -3.6827223840921297 -115.29404583880122 -1 0 0 I I #
vertex $-1 $692 $895 #
straight-curve $-1 0 3.6827223840921297 -115.29404583880122 1 0 0 I I #
point $-1 230.58809167760245 3.6827223840921297 -115.29404583880122 #
point $-1 230.58809167760245 -3.6827223840921297 -115.29404583880122 #
straight-curve $-1 -230.58809167760245 0 115.29404583880122 0 -1 0 I I #
point $-1 -230.58809167760245 3.6827223840921297 115.29404583880122 #
point $-1 -230.58809167760245 -3.6827223840921297 115.29404583880122 #
straight-curve $-1 230.58809167760245 -3.6827223840921297 0 0 0 -1 I I #
straight-curve $-1 230.58809167760245 3.6827223840921297 0 0 0 -1 I I #
edge $-1 $896 1 $896 0 $709 $-1 forward 7 unknown #
point $-1 0.5 0 -0.25 #
edge $-1 $897 1 $897 0 $713 $-1 forward 7 unknown #
point $-1 0.5 0 -0.25 #
straight-curve $-1 -57.647022919400612 28.970061250928861 0 0 0 -1 I I #
point $-1 -57.647022919400612 -28.970061250928861 -13.585877444148025 #
straight-curve $-1 -57.647022919400612 0 -13.585877444148025 0 1 0 I I #
point $-1 -57.647022919400612 28.970061250928861 -13.585877444148025 #
straight-curve $-1 -57.647022919400612 4.7093741934734092 0 0 0 -1 I I #
point $-1 -57.647022919400612 -4.7093741934734092 -3.0552157696064199 #
straight-curve $-1 -57.647022919400612 0 -3.0552157696064199 0 1 0 I I #
point $-1 -57.647022919400612 4.7093741934734092 -3.0552157696064199 #
straight-curve $-1 -57.647022919400612 4.7093741934734084 0 0 0 -1 I I #
point $-1 -57.647022919400612 -4.7093741934734084 -3.0552157696064199 #
straight-curve $-1 -57.647022919400612 0 -3.0552157696064199 0 1 0 I I #
point $-1 -57.647022919400612 4.7093741934734084 -3.0552157696064199 #
straight-curve $-1 -230.58809167760245 4.5059460454510134 0 0 0 -1 I I #
point $-1 -230.58809167760245 -4.5059460454510134 -115.29404583880122 #
straight-curve $-1 -230.58809167760245 0 -115.29404583880122 0 1 0 I I #
point $-1 -230.58809167760245 4.5059460454510134 -115.29404583880122 #
vertex $-1 $781 $898 #
straight-curve $-1 -230.58809167760245 4.5059460454510134 0 0 0 -1 I I #
point $-1 -230.58809167760245 -4.5059460454510134 -115.29404583880122 #
straight-curve $-1 -230.58809167760245 0 -115.29404583880122 0 1 0 I I #
point $-1 -230.58809167760245 4.5059460454510134 -115.29404583880122 #
vertex $-1 $799 $899 #
straight-curve $-1 -230.58809167760245 4.5059460454510134 0 0 0 -1 I I #
point $-1 -230.58809167760245 -4.5059460454510134 -115.29404583880122 #
straight-curve $-1 -230.58809167760245 0 -115.29404583880122 0 1 0 I I #
point $-1 -230.58809167760245 4.5059460454510134 -115.29404583880122 #
vertex $-1 $817 $900 #
straight-curve $-1 -230.58809167760245 3.6827223840921297 0 0 0 -1 I I #
point $-1 -230.58809167760245 -3.6827223840921297 -115.29404583880122 #
straight-curve $-1 -230.58809167760245 0 -115.29404583880122 0 1 0 I I #
point $-1 -230.58809167760245 3.6827223840921297 -115.29404583880122 #
vertex $-1 $835 $901 #
vertex $-1 $837 $902 #
straight-curve $-1 -230.58809167760245 3.6827223840921297 0 0 0 -1 I I #
point $-1 -230.58809167760245 -3.6827223840921297 -115.29404583880122 #
straight-curve $-1 -230.58809167760245 0 -115.29404583880122 0 1 0 I I #
point $-1 -230.58809167760245 3.6827223840921297 -115.29404583880122 #
vertex $-1 $855 $903 #
vertex $-1 $857 $904 #
point $-1 0 0 0.5 #
point $-1 0 0 0.5 #
point $-1 0 0 0.5 #
point $-1 0 0 0.25 #
point $-1 0 0 0.25 #
point $-1 0 0 0.25 #
point $-1 0 0 0.25 #
End-of-ACIS-data 