500 0 6 0           
7 Unknown 11 ACIS 5.0 NT 24 Fri Mar 26 19:40:31 1999 
-1 9.9999999999999995e-007 1e-010 
body $-1 $6 $-1 $7 #
body $-1 $8 $-1 $9 #
body $-1 $10 $-1 $11 #
body $-1 $12 $-1 $13 #
body $-1 $14 $-1 $15 #
body $-1 $16 $-1 $17 #
lump $-1 $-1 $18 $0 #
transform $-1 1 0 0 0 1 0 0 0 1 56.268807031464583 34.467756804490627 13.004275346268983 1 rotate no_reflect no_shear #
lump $-1 $-1 $19 $1 #
transform $-1 1 0 0 0 1 0 0 0 1 56.268807031464583 34.467756804490627 13.004275346268983 1 rotate no_reflect no_shear #
lump $-1 $-1 $20 $2 #
transform $-1 1 0 0 0 1 0 0 0 1 56.268807031464583 34.467756804490627 13.004275346268983 1 rotate no_reflect no_shear #
lump $-1 $-1 $21 $3 #
transform $-1 1 0 0 0 1 0 0 0 1 56.268807031464583 34.467756804490627 13.004275346268983 1 rotate no_reflect no_shear #
lump $-1 $-1 $22 $4 #
transform $-1 1 0 0 0 1 0 0 0 1 56.268807031464583 34.467756804490627 13.004275346268983 1 rotate no_reflect no_shear #
lump $-1 $-1 $23 $5 #
transform $-1 1 0 0 0 1 0 0 0 1 56.268807031464583 34.467756804490627 13.004275346268983 1 rotate no_reflect no_shear #
shell $-1 $-1 $-1 $24 $-1 $6 #
shell $-1 $-1 $-1 $25 $-1 $8 #
shell $-1 $-1 $-1 $26 $-1 $10 #
shell $-1 $-1 $-1 $27 $-1 $12 #
shell $-1 $-1 $-1 $28 $-1 $14 #
shell $-1 $-1 $-1 $29 $-1 $16 #
face $-1 $30 $31 $18 $-1 $32 forward single #
face $-1 $33 $34 $19 $-1 $35 forward single #
face $-1 $36 $37 $20 $-1 $38 reversed single #
face $-1 $39 $40 $21 $-1 $41 forward single #
face $-1 $42 $43 $22 $-1 $44 reversed single #
face $-1 $45 $46 $23 $-1 $47 forward single #
face $-1 $48 $49 $18 $-1 $50 reversed single #
loop $-1 $-1 $51 $24 #
plane-surface $-1 0 0 13.004275346268983 0 0 1 1 0 0 forward_v I I I I #
face $-1 $52 $53 $19 $-1 $54 reversed single #
loop $-1 $-1 $55 $25 #
plane-surface $-1 -51.688874845927955 0 -6.4594740298432569 0 0 1 1 0 0 forward_v I I I I #
face $-1 $56 $57 $20 $-1 $58 reversed single #
loop $-1 $-1 $59 $26 #
plane-surface $-1 31.078860839726396 37.945949103069587 135.90521818462764 1 0 0 0 -0.54463904215088732 -0.83867056331134215 forward_v I I I I #
face $-1 $60 $61 $21 $-1 $62 forward single #
loop $-1 $63 $64 $27 #
cone-surface $-1 43.673833935595489 26.504503231471233 6.9301030917497792 0 -0.54463904215088732 -0.83867056331134215 2.5 0 0 1 I I 0 1 2.5 forward I I I I #
face $-1 $65 $66 $22 $-1 $67 reversed single #
loop $-1 $-1 $68 $28 #
plane-surface $-1 43.673833935595489 -34.46775680449062 3.9782619025814085 0 -0.54463904215088732 0.83867056331134215 1 0 0 forward_v I I I I #
face $-1 $69 $70 $23 $-1 $71 forward single #
loop $-1 $72 $73 $29 #
cone-surface $-1 43.673833935595489 -26.504503231471233 6.9301030917497757 0 0.54463904215088732 -0.83867056331134215 2.5 0 0 1 I I 0 1 2.5 forward I I I I #
face $-1 $74 $75 $18 $-1 $76 reversed single #
loop $-1 $-1 $77 $30 #
plane-surface $-1 0 0 -13.004275346268983 0 0 1 1 0 0 forward_v I I I I #
coedge $-1 $78 $79 $80 $81 forward $31 $-1 #
face $-1 $82 $83 $19 $-1 $84 reversed single #
loop $-1 $-1 $85 $33 #
plane-surface $-1 -47.108942660391328 0 -9.73187468805612 -1 0 0 0 0 1 forward_v I I I I #
coedge $-1 $86 $87 $88 $89 forward $34 $-1 #
face $-1 $90 $91 $20 $-1 $92 reversed single #
loop $-1 $-1 $93 $36 #
plane-surface $-1 43.673833935595489 -23.346429226110381 41.523234004756418 0 0.54463904215088732 0.83867056331134215 1 0 0 forward_v I I I I #
coedge $-1 $94 $95 $96 $97 reversed $37 $-1 #
face $-1 $-1 $98 $21 $-1 $99 forward single #
loop $-1 $100 $101 $39 #
cone-surface $-1 43.673833935595489 24.809871658739794 4.3205993549351867 0 -0.54463904215088732 -0.83867056331134215 1.25 0 0 1 I I -0.70710678118654746 0.70710678118654746 1.25 forward I I I I #
loop $-1 $-1 $102 $27 #
coedge $-1 $64 $64 $103 $104 reversed $40 $-1 #
face $-1 $105 $106 $22 $-1 $107 forward single #
loop $-1 $-1 $108 $42 #
plane-surface $-1 31.078860839726396 -95.760135133670587 98.360246082452633 1 0 0 0 0.54463904215088732 -0.83867056331134215 forward_v I I I I #
coedge $-1 $109 $110 $111 $112 reversed $43 $-1 #
face $-1 $-1 $113 $23 $-1 $114 forward single #
loop $-1 $115 $116 $45 #
cone-surface $-1 43.673833935595489 -24.809871658739794 4.3205993549351831 0 0.54463904215088732 -0.83867056331134215 1.25 0 0 1 I I -0.70710678118654746 0.70710678118654746 1.25 forward I I I I #
loop $-1 $-1 $117 $29 #
coedge $-1 $73 $73 $118 $119 reversed $46 $-1 #
face $-1 $120 $121 $18 $-1 $122 reversed single #
loop $-1 $-1 $123 $48 #
plane-surface $-1 0 -34.467756804490627 0 0 1 0 0 0 1 forward_v I I I I #
coedge $-1 $124 $125 $126 $127 forward $49 $-1 #
coedge $-1 $128 $51 $129 $130 forward $31 $-1 #
coedge $-1 $51 $128 $131 $132 forward $31 $-1 #
coedge $-1 $133 $134 $51 $81 reversed $135 $-1 #
edge $-1 $136 -34.467756804490627 $137 34.467756804490627 $80 $138 forward 7 unknown #
face $-1 $139 $140 $19 $-1 $141 reversed single #
loop $-1 $-1 $142 $52 #
plane-surface $-1 0 0 -13.004275346268983 0 0 1 1 0 0 forward_v I I I I #
coedge $-1 $143 $88 $144 $145 reversed $53 $-1 #
coedge $-1 $146 $55 $147 $148 reversed $34 $-1 #
coedge $-1 $55 $146 $149 $150 reversed $34 $-1 #
coedge $-1 $85 $151 $55 $89 reversed $53 $-1 #
edge $-1 $152 -34.467756804490627 $153 34.467756804490627 $88 $154 forward 7 unknown #
face $-1 $155 $156 $20 $-1 $157 reversed single #
loop $-1 $-1 $158 $56 #
plane-surface $-1 56.268807031464583 0 0 -1 0 0 0 0 1 forward_v I I I I #
coedge $-1 $159 $160 $161 $162 reversed $57 $-1 #
coedge $-1 $95 $59 $163 $164 reversed $37 $-1 #
coedge $-1 $59 $94 $159 $165 reversed $37 $-1 #
coedge $-1 $161 $166 $59 $97 forward $167 $-1 #
edge $-1 $168 -15.494782252955833 $169 -1.5959406470027169 $96 $170 forward 7 unknown #
loop $-1 $-1 $103 $60 #
plane-surface $-1 43.673833935595489 -23.346429226110381 41.523234004756418 0 0.54463904215088732 0.83867056331134215 1 0 0 forward_v I I I I #
loop $-1 $-1 $171 $39 #
coedge $-1 $101 $101 $102 $172 reversed $61 $-1 #
coedge $-1 $102 $102 $101 $172 forward $63 $-1 #
coedge $-1 $103 $103 $64 $104 forward $98 $-1 #
edge $-1 $173 -4.1784392289010674e-016 $173 6.2831853071796004 $103 $174 forward 7 unknown #
face $-1 $175 $176 $22 $-1 $177 reversed single #
loop $-1 $-1 $111 $65 #
plane-surface $-1 0 0 13.004275346268983 0 0 1 1 0 0 forward_v I I I I #
coedge $-1 $178 $179 $180 $181 reversed $66 $-1 #
coedge $-1 $182 $68 $183 $184 reversed $43 $-1 #
coedge $-1 $68 $182 $178 $185 forward $43 $-1 #
coedge $-1 $180 $186 $68 $112 forward $106 $-1 #
edge $-1 $187 -34.431890063666842 $188 -9.2419438719286511 $111 $189 forward 7 unknown #
loop $-1 $-1 $118 $69 #
plane-surface $-1 43.673833935595489 -34.46775680449062 3.9782619025814085 0 -0.54463904215088732 0.83867056331134215 1 0 0 forward_v I I I I #
loop $-1 $-1 $190 $45 #
coedge $-1 $116 $116 $117 $191 reversed $70 $-1 #
coedge $-1 $117 $117 $116 $191 forward $72 $-1 #
coedge $-1 $118 $118 $73 $119 forward $113 $-1 #
edge $-1 $192 4.1784392289010674e-016 $192 6.2831853071796004 $118 $193 forward 7 unknown #
face $-1 $194 $195 $18 $-1 $196 reversed single #
loop $-1 $-1 $197 $74 #
plane-surface $-1 -56.268807031464583 0 0 1 0 0 0 0 -1 forward_v I I I I #
coedge $-1 $198 $131 $199 $200 forward $75 $-1 #
coedge $-1 $201 $77 $198 $202 forward $49 $-1 #
coedge $-1 $77 $201 $203 $204 forward $49 $-1 #
coedge $-1 $134 $133 $77 $127 reversed $135 $-1 #
edge $-1 $205 -34.467756804490627 $206 34.467756804490627 $126 $207 forward 7 unknown #
coedge $-1 $79 $78 $208 $209 forward $31 $-1 #
coedge $-1 $210 $211 $78 $130 reversed $195 $-1 #
edge $-1 $137 -56.268807031464583 $212 56.268807031464583 $129 $213 forward 7 unknown #
coedge $-1 $123 $214 $79 $132 reversed $75 $-1 #
edge $-1 $215 -56.268807031464583 $136 56.268807031464583 $131 $216 forward 7 unknown #
coedge $-1 $126 $80 $214 $217 forward $135 $-1 #
coedge $-1 $80 $126 $210 $218 reversed $135 $-1 #
loop $-1 $-1 $133 $194 #
vertex $-1 $81 $219 #
vertex $-1 $81 $220 #
straight-curve $-1 56.268807031464583 0 13.004275346268983 0 1 0 I I #
face $-1 $221 $222 $19 $-1 $223 reversed single #
loop $-1 $-1 $144 $82 #
plane-surface $-1 0 -34.467756804490627 0 0 1 0 0 0 1 forward_v I I I I #
coedge $-1 $224 $225 $143 $226 forward $83 $-1 #
coedge $-1 $151 $85 $142 $226 reversed $53 $-1 #
coedge $-1 $149 $227 $85 $145 forward $140 $-1 #
edge $-1 $228 -8.1383380022409231 $152 -1.5935366858151969 $144 $229 forward 7 unknown #
coedge $-1 $87 $86 $230 $231 reversed $34 $-1 #
coedge $-1 $232 $233 $86 $148 forward $234 $-1 #
edge $-1 $235 -30.424369608500605 $153 -21.26450523742735 $147 $236 forward 7 unknown #
coedge $-1 $237 $144 $87 $150 forward $140 $-1 #
edge $-1 $152 21.26450523742735 $238 30.424369608500605 $149 $239 forward 7 unknown #
coedge $-1 $88 $143 $232 $240 reversed $53 $-1 #
vertex $-1 $150 $241 #
vertex $-1 $148 $242 #
straight-curve $-1 -47.108942660391328 0 -6.4594740298432569 0 1 0 I I #
face $-1 $-1 $167 $20 $-1 $243 forward single #
loop $-1 $-1 $244 $90 #
plane-surface $-1 0 34.467756804490627 0 0 -1 0 0 0 -1 forward_v I I I I #
coedge $-1 $245 $246 $160 $247 forward $91 $-1 #
coedge $-1 $248 $93 $95 $165 forward $57 $-1 #
coedge $-1 $93 $248 $158 $247 reversed $57 $-1 #
coedge $-1 $249 $96 $93 $162 forward $167 $-1 #
edge $-1 $169 9.2419438719286511 $250 34.431890063666842 $161 $251 forward 7 unknown #
coedge $-1 $252 $244 $94 $164 forward $156 $-1 #
edge $-1 $253 -63.97434718973242 $168 -54.948333746044838 $163 $254 forward 7 unknown #
edge $-1 $169 52.363044973530407 $253 68.935513608981267 $95 $255 forward 7 unknown #
coedge $-1 $96 $249 $252 $256 forward $167 $-1 #
loop $-1 $-1 $161 $155 #
vertex $-1 $164 $257 #
vertex $-1 $97 $258 #
straight-curve $-1 31.078860839726396 18.972974551534794 13.004275346268983 0 -1 0 I I #
coedge $-1 $171 $171 $-1 $259 reversed $100 $-1 #
edge $-1 $260 0 $260 6.2831853071796004 $101 $261 forward 7 unknown #
vertex $-1 $104 $262 #
ellipse-curve $-1 43.673833935595489 27.518336001514065 8.4912686244251976 0 0.54463904215088732 0.83867056331134215 2.5 0 0 1 I I #
face $-1 $-1 $263 $22 $-1 $264 reversed single #
loop $-1 $-1 $265 $105 #
plane-surface $-1 0 -34.467756804490627 0 0 1 0 0 0 1 forward_v I I I I #
coedge $-1 $179 $108 $110 $185 reversed $66 $-1 #
coedge $-1 $108 $178 $266 $267 reversed $66 $-1 #
coedge $-1 $268 $111 $108 $181 forward $106 $-1 #
edge $-1 $188 -27.31115236829779 $269 -13.412310762344667 $180 $270 forward 7 unknown #
coedge $-1 $110 $109 $265 $271 reversed $43 $-1 #
coedge $-1 $272 $273 $109 $184 forward $263 $-1 #
edge $-1 $274 -13.370188131626604 $187 3.202280503824257 $183 $275 forward 7 unknown #
edge $-1 $276 -8.3777959833898778e-015 $188 16.572468635450853 $178 $277 forward 7 unknown #
coedge $-1 $111 $268 $272 $278 forward $106 $-1 #
vertex $-1 $184 $279 #
vertex $-1 $112 $280 #
straight-curve $-1 21.836916967797745 -20.568915198537507 13.004275346268983 -1 0 0 I I #
coedge $-1 $190 $190 $-1 $281 reversed $115 $-1 #
edge $-1 $282 0 $282 6.2831853071796004 $116 $283 forward 7 unknown #
vertex $-1 $119 $284 #
ellipse-curve $-1 43.673833935595489 -27.518336001514065 8.491268624425194 0 -0.54463904215088732 0.83867056331134215 2.5 0 0 1 I I #
face $-1 $-1 $135 $18 $-1 $285 reversed single #
loop $-1 $-1 $210 $120 #
plane-surface $-1 0 34.467756804490627 0 0 -1 0 0 0 -1 forward_v I I I I #
coedge $-1 $286 $208 $211 $287 forward $121 $-1 #
coedge $-1 $214 $123 $124 $202 reversed $75 $-1 #
coedge $-1 $208 $286 $123 $200 reversed $121 $-1 #
edge $-1 $215 -13.004275346268983 $288 13.004275346268983 $199 $289 forward 7 unknown #
coedge $-1 $125 $124 $286 $290 forward $49 $-1 #
edge $-1 $206 -56.268807031464583 $288 56.268807031464583 $198 $291 forward 7 unknown #
coedge $-1 $211 $210 $125 $204 reversed $195 $-1 #
edge $-1 $292 -56.268807031464583 $205 56.268807031464583 $203 $293 forward 7 unknown #
vertex $-1 $127 $294 #
vertex $-1 $217 $295 #
straight-curve $-1 56.268807031464583 0 -13.004275346268983 0 -1 0 I I #
coedge $-1 $197 $199 $128 $209 reversed $121 $-1 #
edge $-1 $212 -34.467756804490627 $215 34.467756804490627 $208 $296 forward 7 unknown #
coedge $-1 $203 $129 $134 $218 forward $195 $-1 #
coedge $-1 $129 $203 $197 $287 reversed $195 $-1 #
vertex $-1 $130 $297 #
straight-curve $-1 0 34.467756804490627 13.004275346268983 -1 0 0 I I #
coedge $-1 $131 $198 $133 $217 reversed $75 $-1 #
vertex $-1 $209 $298 #
straight-curve $-1 0 -34.467756804490627 13.004275346268983 1 0 0 I I #
edge $-1 $136 -13.004275346268983 $206 13.004275346268983 $133 $299 forward 7 unknown #
edge $-1 $137 -13.004275346268983 $205 13.004275346268983 $134 $300 forward 7 unknown #
point $-1 56.268807031464583 -34.467756804490627 13.004275346268983 #
point $-1 56.268807031464583 34.467756804490627 13.004275346268983 #
face $-1 $-1 $234 $19 $-1 $301 reversed single #
loop $-1 $-1 $230 $139 #
plane-surface $-1 -56.268807031464583 0 0 1 0 0 0 0 -1 forward_v I I I I #
coedge $-1 $302 $142 $227 $303 forward $83 $-1 #
coedge $-1 $142 $302 $304 $305 forward $83 $-1 #
edge $-1 $306 -34.467756804490627 $228 34.467756804490627 $142 $307 forward 7 unknown #
coedge $-1 $144 $237 $224 $303 reversed $140 $-1 #
vertex $-1 $303 $308 #
straight-curve $-1 -47.108942660391328 -34.467756804490627 -4.86593734402806 0 0 1 I I #
coedge $-1 $309 $310 $146 $231 forward $222 $-1 #
edge $-1 $238 -34.467756804490627 $235 34.467756804490627 $230 $311 forward 7 unknown #
coedge $-1 $304 $147 $151 $240 forward $234 $-1 #
coedge $-1 $147 $304 $309 $312 reversed $234 $-1 #
loop $-1 $-1 $232 $221 #
vertex $-1 $312 $313 #
straight-curve $-1 -25.844437422963978 34.467756804490627 -6.4594740298432569 1 0 0 I I #
coedge $-1 $227 $149 $310 $314 forward $140 $-1 #
vertex $-1 $314 $315 #
straight-curve $-1 -25.844437422963978 -34.467756804490627 -6.4594740298432569 -1 0 0 I I #
edge $-1 $153 1.5935366858151969 $306 8.1383380022409231 $232 $316 forward 7 unknown #
point $-1 -47.108942660391328 -34.467756804490627 -6.4594740298432569 #
point $-1 -47.108942660391328 34.467756804490627 -6.4594740298432569 #
plane-surface $-1 0 0 13.004275346268983 0 0 1 1 0 0 forward_v I I I I #
coedge $-1 $163 $317 $248 $318 forward $156 $-1 #
coedge $-1 $246 $158 $317 $319 reversed $91 $-1 #
coedge $-1 $158 $245 $249 $320 reversed $91 $-1 #
edge $-1 $250 31.265476300666379 $321 47.837944936117239 $158 $322 forward 7 unknown #
coedge $-1 $160 $159 $244 $318 reversed $57 $-1 #
coedge $-1 $166 $161 $246 $320 forward $167 $-1 #
vertex $-1 $320 $323 #
straight-curve $-1 21.836916967797745 20.568915198537507 13.004275346268983 1 0 0 I I #
coedge $-1 $317 $163 $166 $256 reversed $156 $-1 #
vertex $-1 $164 $324 #
straight-curve $-1 31.078860839726396 34.467756804490627 67.952609092313821 0 0 1 I I #
straight-curve $-1 31.078860839726396 -23.346429226110381 41.523234004756418 0 0.83867056331134215 -0.54463904215088732 I I #
edge $-1 $325 -56.268807031464583 $168 -31.078860839726396 $252 $326 forward 7 unknown #
point $-1 31.078860839726396 34.467756804490627 13.004275346268983 #
point $-1 31.078860839726396 20.56891519853751 13.004275346268983 #
edge $-1 $327 1 $327 0 $171 $-1 forward 7 unknown #
vertex $-1 $172 $328 #
ellipse-curve $-1 43.673833935595489 25.490670461428405 5.3689375590743644 0 0.54463904215088732 0.83867056331134215 2.5 0 0 1 I I #
point $-1 46.173833935595489 27.518336001514061 8.491268624425194 #
loop $-1 $-1 $183 $175 #
plane-surface $-1 56.268807031464583 0 0 -1 0 0 0 0 1 forward_v I I I I #
coedge $-1 $329 $266 $182 $271 forward $176 $-1 #
coedge $-1 $265 $330 $179 $267 forward $176 $-1 #
edge $-1 $269 36.175847694957334 $276 45.201861138644915 $266 $331 forward 7 unknown #
coedge $-1 $186 $180 $330 $332 forward $106 $-1 #
vertex $-1 $332 $333 #
straight-curve $-1 31.078860839726396 -47.880067566835294 13.004275346268983 0 -1 0 I I #
edge $-1 $276 9.2419438719286511 $274 34.431890063666842 $265 $334 forward 7 unknown #
coedge $-1 $273 $183 $186 $278 reversed $263 $-1 #
coedge $-1 $183 $272 $329 $335 forward $263 $-1 #
vertex $-1 $271 $336 #
straight-curve $-1 56.268807031464583 -23.254573592560721 11.26018835996768 0 0.83867056331134215 0.54463904215088732 I I #
vertex $-1 $271 $337 #
straight-curve $-1 31.078860839726396 -34.46775680449062 3.9782619025814085 0 0.83867056331134215 0.54463904215088732 I I #
edge $-1 $338 -34.467756804490627 $187 -20.568915198537503 $272 $339 forward 7 unknown #
point $-1 56.268807031464583 -20.568915198537503 13.004275346268985 #
point $-1 31.078860839726396 -20.568915198537503 13.004275346268985 #
edge $-1 $340 1 $340 0 $190 $-1 forward 7 unknown #
vertex $-1 $191 $341 #
ellipse-curve $-1 43.673833935595489 -25.490670461428405 5.3689375590743609 0 -0.54463904215088732 0.83867056331134215 2.5 0 0 1 I I #
point $-1 46.173833935595489 -27.518336001514061 8.4912686244251905 #
plane-surface $-1 56.268807031464583 0 0 -1 0 0 0 0 1 forward_v I I I I #
coedge $-1 $199 $197 $201 $290 reversed $121 $-1 #
edge $-1 $212 -13.004275346268983 $292 13.004275346268983 $211 $342 forward 7 unknown #
vertex $-1 $290 $343 #
straight-curve $-1 -56.268807031464583 -34.467756804490627 0 0 0 -1 I I #
edge $-1 $288 -34.467756804490627 $292 34.467756804490627 $286 $344 forward 7 unknown #
straight-curve $-1 0 -34.467756804490627 -13.004275346268983 -1 0 0 I I #
vertex $-1 $204 $345 #
straight-curve $-1 0 34.467756804490627 -13.004275346268983 1 0 0 I I #
point $-1 56.268807031464583 34.467756804490627 -13.004275346268983 #
point $-1 56.268807031464583 -34.467756804490627 -13.004275346268983 #
straight-curve $-1 -56.268807031464583 0 13.004275346268983 0 -1 0 I I #
point $-1 -56.268807031464583 34.467756804490627 13.004275346268983 #
point $-1 -56.268807031464583 -34.467756804490627 13.004275346268983 #
straight-curve $-1 56.268807031464583 -34.467756804490627 0 0 0 -1 I I #
straight-curve $-1 56.268807031464583 34.467756804490627 0 0 0 -1 I I #
plane-surface $-1 0 34.467756804490627 0 0 -1 0 0 0 -1 forward_v I I I I #
coedge $-1 $225 $224 $346 $347 forward $83 $-1 #
edge $-1 $228 47.108942660391328 $348 56.268807031464583 $227 $349 forward 7 unknown #
coedge $-1 $233 $232 $225 $305 reversed $234 $-1 #
edge $-1 $350 -56.268807031464583 $306 -47.108942660391328 $304 $351 forward 7 unknown #
vertex $-1 $240 $352 #
straight-curve $-1 -47.108942660391328 0 -13.004275346268983 0 -1 0 I I #
point $-1 -47.108942660391328 -34.467756804490627 -13.004275346268983 #
coedge $-1 $346 $230 $233 $312 forward $222 $-1 #
coedge $-1 $230 $346 $237 $314 reversed $222 $-1 #
straight-curve $-1 -56.268807031464583 0 -6.4594740298432569 0 1 0 I I #
edge $-1 $235 6.4594740298432569 $350 13.004275346268983 $233 $353 forward 7 unknown #
point $-1 -56.268807031464583 34.467756804490627 -6.4594740298432569 #
edge $-1 $238 6.4594740298432569 $348 13.004275346268983 $310 $354 forward 7 unknown #
point $-1 -56.268807031464583 -34.467756804490627 -6.4594740298432569 #
straight-curve $-1 -47.108942660391328 34.467756804490627 -4.86593734402806 0 0 -1 I I #
coedge $-1 $244 $252 $245 $319 forward $156 $-1 #
edge $-1 $321 -34.431890063666842 $253 -9.2419438719286511 $244 $355 forward 7 unknown #
edge $-1 $325 -13.004275346268983 $321 -3.9782619025814014 $245 $356 forward 7 unknown #
edge $-1 $250 20.56891519853751 $325 34.467756804490627 $246 $357 forward 7 unknown #
vertex $-1 $247 $358 #
straight-curve $-1 56.268807031464583 -5.6525194227397773 30.032674411055186 0 0.83867056331134215 -0.54463904215088732 I I #
point $-1 56.268807031464583 20.56891519853751 13.004275346268983 #
point $-1 31.078860839726396 34.467756804490634 3.9782619025814014 #
vertex $-1 $320 $359 #
straight-curve $-1 0 34.467756804490627 13.004275346268983 -1 0 0 I I #
vertex $-1 $259 $360 #
point $-1 46.173833935595489 25.490670461428405 5.3689375590743644 #
coedge $-1 $330 $265 $273 $335 reversed $176 $-1 #
coedge $-1 $266 $329 $268 $332 reversed $176 $-1 #
straight-curve $-1 31.078860839726396 -34.467756804490627 49.180123041226317 0 0 -1 I I #
edge $-1 $269 31.078860839726396 $338 56.268807031464583 $330 $361 forward 7 unknown #
point $-1 31.078860839726396 -34.467756804490627 13.004275346268983 #
straight-curve $-1 21.836916967797745 -34.467756804490627 3.9782619025813997 1 0 0 I I #
edge $-1 $338 -13.004275346268983 $274 -3.9782619025814041 $273 $362 forward 7 unknown #
point $-1 56.268807031464583 -34.467756804490627 3.9782619025814041 #
point $-1 31.078860839726396 -34.467756804490627 3.9782619025814041 #
vertex $-1 $278 $363 #
straight-curve $-1 56.268807031464583 0 13.004275346268983 0 1 0 I I #
vertex $-1 $281 $364 #
point $-1 46.173833935595489 -25.490670461428405 5.3689375590743609 #
straight-curve $-1 -56.268807031464583 34.467756804490627 0 0 0 -1 I I #
point $-1 -56.268807031464583 -34.467756804490627 -13.004275346268983 #
straight-curve $-1 -56.268807031464583 0 -13.004275346268983 0 1 0 I I #
point $-1 -56.268807031464583 34.467756804490627 -13.004275346268983 #
coedge $-1 $310 $309 $302 $347 reversed $222 $-1 #
edge $-1 $348 -34.467756804490627 $350 34.467756804490627 $346 $365 forward 7 unknown #
vertex $-1 $347 $366 #
straight-curve $-1 0 -34.467756804490627 -13.004275346268983 -1 0 0 I I #
vertex $-1 $305 $367 #
straight-curve $-1 0 34.467756804490627 -13.004275346268983 1 0 0 I I #
point $-1 -47.108942660391328 34.467756804490627 -13.004275346268983 #
straight-curve $-1 -56.268807031464583 34.467756804490627 0 0 0 -1 I I #
straight-curve $-1 -56.268807031464583 -34.467756804490627 0 0 0 -1 I I #
straight-curve $-1 21.836916967797745 34.467756804490627 3.978261902581405 -1 0 0 I I #
straight-curve $-1 56.268807031464583 34.467756804490627 0 0 0 -1 I I #
straight-curve $-1 56.268807031464583 0 13.004275346268983 0 1 0 I I #
point $-1 56.268807031464583 34.467756804490634 3.9782619025814014 #
point $-1 56.268807031464583 34.467756804490627 13.004275346268983 #
point $-1 43.673833935595489 24.129072856051184 3.2722611507960089 #
straight-curve $-1 0 -34.467756804490627 13.004275346268983 1 0 0 I I #
straight-curve $-1 56.268807031464583 -34.467756804490627 0 0 0 -1 I I #
point $-1 56.268807031464583 -34.467756804490627 13.004275346268983 #
point $-1 43.673833935595489 -24.129072856051184 3.2722611507960053 #
straight-curve $-1 -56.268807031464583 0 -13.004275346268983 0 1 0 I I #
point $-1 -56.268807031464583 -34.467756804490627 -13.004275346268983 #
point $-1 -56.268807031464583 34.467756804490627 -13.004275346268983 #
End-of-ACIS-data 