500 0 5 0           
7 Unknown 11 ACIS 5.0 NT 24 Thu Mar 25 19:26:00 1999 
-1 9.9999999999999995e-007 1e-010 
body $-1 $5 $-1 $6 #
body $-1 $7 $-1 $8 #
body $-1 $9 $-1 $10 #
body $-1 $11 $-1 $12 #
body $-1 $13 $-1 $14 #
lump $-1 $-1 $15 $0 #
transform $-1 1 0 0 0 1 0 0 0 1 43.581652272103028 20.5437740052393 9.8913817246332698 1 rotate no_reflect no_shear #
lump $-1 $-1 $16 $1 #
transform $-1 1 0 0 0 1 0 0 0 1 43.581652272103028 20.5437740052393 9.8913817246332698 1 rotate no_reflect no_shear #
lump $-1 $-1 $17 $2 #
transform $-1 1 0 0 0 1 0 0 0 1 43.581652272103028 20.5437740052393 9.8913817246332698 1 rotate no_reflect no_shear #
lump $-1 $-1 $18 $3 #
transform $-1 1 0 0 0 1 0 0 0 1 43.581652272103028 20.5437740052393 9.8913817246332698 1 rotate no_reflect no_shear #
lump $-1 $-1 $19 $4 #
transform $-1 1 0 0 0 1 0 0 0 1 43.581652272103028 20.5437740052393 9.8913817246332698 1 rotate no_reflect no_shear #
shell $-1 $-1 $-1 $20 $-1 $5 #
shell $-1 $-1 $-1 $21 $-1 $7 #
shell $-1 $-1 $-1 $22 $-1 $9 #
shell $-1 $-1 $-1 $23 $-1 $11 #
shell $-1 $-1 $-1 $24 $-1 $13 #
face $-1 $25 $26 $15 $-1 $27 forward single #
face $-1 $28 $29 $16 $-1 $30 forward single #
face $-1 $31 $32 $17 $-1 $33 forward single #
face $-1 $34 $35 $18 $-1 $36 reversed single #
face $-1 $37 $38 $19 $-1 $39 reversed single #
face $-1 $40 $41 $15 $-1 $42 reversed single #
loop $-1 $-1 $43 $20 #
plane-surface $-1 0 0 9.8913817246332698 0 0 1 1 0 0 forward_v I I I I #
face $-1 $44 $45 $16 $-1 $46 forward single #
loop $-1 $-1 $47 $21 #
plane-surface $-1 -39.389064233139088 -5.8615910317086684 0 0 1 0 0 0 1 forward_v I I I I #
face $-1 $48 $49 $17 $-1 $50 forward single #
loop $-1 $-1 $51 $22 #
plane-surface $-1 45.732968723067572 8.4837021303561766 123.49503167257387 0 -1 0 -0.71933980857756763 0 -0.69465836192734942 forward_v I I I I #
face $-1 $52 $53 $18 $-1 $54 reversed single #
loop $-1 $55 $56 $23 #
cone-surface $-1 38.443491959294285 1.1899859097385743 4.604259981280447 -0.71933980857756763 0 -0.69465836192734942 0.34732918096367471 0 -0.35966990428878381 1 I I 0 1 0.5 forward I I I I #
face $-1 $57 $58 $19 $-1 $59 reversed single #
loop $-1 $60 $61 $24 #
cone-surface $-1 38.443491959294285 5.5662156421091353 4.604259981280447 -0.71933980857756763 0 -0.69465836192734942 0.34732918096367471 0 -0.35966990428878381 1 I I 0 1 0.5 forward I I I I #
face $-1 $62 $63 $15 $-1 $64 reversed single #
loop $-1 $-1 $65 $25 #
plane-surface $-1 0 0 -9.8913817246332698 0 0 1 1 0 0 forward_v I I I I #
coedge $-1 $66 $67 $68 $69 forward $26 $-1 #
face $-1 $70 $71 $16 $-1 $72 forward single #
loop $-1 $-1 $73 $28 #
plane-surface $-1 -39.389064233139088 -0.76101055597276179 0 0 -1 0 0 0 -1 forward_v I I I I #
coedge $-1 $74 $75 $76 $77 reversed $29 $-1 #
face $-1 $78 $79 $17 $-1 $80 forward single #
loop $-1 $-1 $81 $31 #
plane-surface $-1 -16.967066082749845 3.3781007759238548 62.946313317721 0.71933980857756763 0 0.69465836192734942 0.69465836192734942 0 -0.71933980857756763 forward_v I I I I #
coedge $-1 $82 $83 $84 $85 reversed $32 $-1 #
face $-1 $86 $87 $18 $-1 $88 forward single #
loop $-1 $89 $90 $34 #
cone-surface $-1 37.782580535998534 1.1899859097385743 3.9660252538106207 -0.71933980857756763 0 -0.69465836192734942 0.17366459048183736 0 -0.17983495214439191 1 I I -0.70710678118654746 0.70710678118654746 0.25 forward I I I I #
loop $-1 $-1 $91 $23 #
coedge $-1 $56 $56 $92 $93 reversed $35 $-1 #
face $-1 $94 $95 $19 $-1 $96 reversed single #
loop $-1 $97 $98 $37 #
cone-surface $-1 37.782580535998534 5.5662156421091353 3.9660252538106207 -0.71933980857756763 0 -0.69465836192734942 0.17366459048183736 0 -0.17983495214439191 1 I I -0.70710678118654746 0.70710678118654746 0.25 forward I I I I #
loop $-1 $-1 $99 $24 #
coedge $-1 $61 $61 $100 $101 reversed $38 $-1 #
face $-1 $102 $103 $15 $-1 $104 reversed single #
loop $-1 $-1 $105 $40 #
plane-surface $-1 0 -20.5437740052393 0 0 1 0 0 0 1 forward_v I I I I #
coedge $-1 $106 $107 $108 $109 forward $41 $-1 #
coedge $-1 $110 $43 $111 $112 forward $26 $-1 #
coedge $-1 $43 $110 $113 $114 forward $26 $-1 #
coedge $-1 $115 $116 $43 $69 reversed $117 $-1 #
edge $-1 $118 -20.5437740052393 $119 20.5437740052393 $68 $120 forward 7 unknown #
face $-1 $121 $122 $16 $-1 $123 forward single #
loop $-1 $-1 $124 $44 #
plane-surface $-1 -35.196476194175148 -3.3113007938407151 0 -1 0 0 0 0 1 forward_v I I I I #
coedge $-1 $125 $126 $127 $128 reversed $45 $-1 #
coedge $-1 $129 $47 $130 $131 reversed $29 $-1 #
coedge $-1 $47 $129 $132 $133 reversed $29 $-1 #
coedge $-1 $134 $135 $47 $77 forward $136 $-1 #
edge $-1 $137 -9.8913817246332698 $138 9.8913817246332698 $76 $139 forward 7 unknown #
face $-1 $140 $141 $17 $-1 $142 forward single #
loop $-1 $-1 $143 $48 #
plane-surface $-1 45.732968723067572 -1.7275005785084669 123.49503167257387 0 1 0 0.71933980857756763 0 0.69465836192734942 forward_v I I I I #
coedge $-1 $144 $145 $146 $147 reversed $49 $-1 #
coedge $-1 $83 $51 $145 $148 forward $32 $-1 #
coedge $-1 $51 $82 $149 $150 reversed $32 $-1 #
coedge $-1 $151 $146 $51 $85 forward $141 $-1 #
edge $-1 $152 11.401000227254464 $153 20.715167910569242 $84 $154 forward 7 unknown #
face $-1 $155 $156 $18 $-1 $157 forward single #
loop $-1 $-1 $158 $52 #
plane-surface $-1 45.732968723067572 8.4837021303561766 123.49503167257387 0 -1 0 -0.71933980857756763 0 -0.69465836192734942 forward_v I I I I #
loop $-1 $-1 $159 $34 #
coedge $-1 $90 $90 $91 $160 forward $53 $-1 #
coedge $-1 $91 $91 $90 $160 reversed $55 $-1 #
coedge $-1 $92 $92 $56 $93 forward $156 $-1 #
edge $-1 $161 0 $161 6.2831853071796004 $92 $162 forward 7 unknown #
face $-1 $163 $164 $19 $-1 $165 reversed single #
loop $-1 $166 $167 $57 #
cone-surface $-1 38.443491959294285 1.1899859097385743 4.604259981280447 -0.71933980857756763 0 -0.69465836192734942 0.34732918096367471 0 -0.35966990428878381 1 I I 0 1 0.5 forward I I I I #
loop $-1 $-1 $168 $37 #
coedge $-1 $98 $98 $99 $169 forward $58 $-1 #
coedge $-1 $99 $99 $98 $169 reversed $60 $-1 #
coedge $-1 $100 $100 $61 $101 forward $170 $-1 #
edge $-1 $171 0 $171 6.2831853071796004 $100 $172 forward 7 unknown #
face $-1 $173 $174 $15 $-1 $175 reversed single #
loop $-1 $-1 $176 $62 #
plane-surface $-1 -43.581652272103028 0 0 1 0 0 0 0 -1 forward_v I I I I #
coedge $-1 $177 $113 $178 $179 forward $63 $-1 #
coedge $-1 $180 $65 $177 $181 forward $41 $-1 #
coedge $-1 $65 $180 $182 $183 forward $41 $-1 #
coedge $-1 $116 $115 $65 $109 reversed $117 $-1 #
edge $-1 $184 -20.5437740052393 $185 20.5437740052393 $108 $186 forward 7 unknown #
coedge $-1 $67 $66 $187 $188 forward $26 $-1 #
coedge $-1 $189 $190 $66 $112 reversed $174 $-1 #
edge $-1 $119 -43.581652272103028 $191 43.581652272103028 $111 $192 forward 7 unknown #
coedge $-1 $105 $193 $67 $114 reversed $63 $-1 #
edge $-1 $194 -43.581652272103028 $118 43.581652272103028 $113 $195 forward 7 unknown #
coedge $-1 $108 $68 $193 $196 forward $117 $-1 #
coedge $-1 $68 $108 $189 $197 reversed $117 $-1 #
loop $-1 $-1 $115 $173 #
vertex $-1 $69 $198 #
vertex $-1 $69 $199 #
straight-curve $-1 43.581652272103028 0 9.8913817246332698 0 1 0 I I #
face $-1 $200 $136 $16 $-1 $201 reversed single #
loop $-1 $-1 $202 $70 #
plane-surface $-1 0 0 9.8913817246332698 0 0 1 1 0 0 forward_v I I I I #
coedge $-1 $203 $204 $129 $205 reversed $71 $-1 #
coedge $-1 $206 $73 $202 $207 reversed $45 $-1 #
coedge $-1 $73 $206 $208 $209 reversed $45 $-1 #
coedge $-1 $204 $203 $73 $128 forward $71 $-1 #
edge $-1 $210 -9.8913817246332698 $211 9.8913817246332698 $127 $212 forward 7 unknown #
coedge $-1 $75 $74 $124 $205 forward $29 $-1 #
coedge $-1 $213 $214 $74 $131 forward $122 $-1 #
edge $-1 $215 15.501944077605604 $137 23.887120155533484 $130 $216 forward 7 unknown #
coedge $-1 $217 $218 $75 $133 forward $219 $-1 #
edge $-1 $138 -23.887120155533484 $220 -15.501944077605604 $132 $221 forward 7 unknown #
coedge $-1 $222 $76 $218 $223 reversed $136 $-1 #
coedge $-1 $76 $222 $213 $224 reversed $136 $-1 #
loop $-1 $-1 $76 $121 #
vertex $-1 $224 $225 #
vertex $-1 $77 $226 #
straight-curve $-1 -43.581652272103028 -5.8615910317086684 0 0 0 -1 I I #
face $-1 $227 $228 $17 $-1 $229 forward single #
loop $-1 $-1 $230 $78 #
plane-surface $-1 0 0 9.8913817246332698 0 0 1 1 0 0 forward_v I I I I #
coedge $-1 $231 $232 $230 $233 reversed $79 $-1 #
coedge $-1 $234 $81 $232 $235 reversed $49 $-1 #
coedge $-1 $81 $234 $82 $148 reversed $49 $-1 #
coedge $-1 $84 $230 $81 $147 forward $141 $-1 #
edge $-1 $236 -3.4165509664703944 $152 6.7946517423942492 $146 $237 forward 7 unknown #
edge $-1 $152 73.755033379842104 $238 87.163304544206056 $82 $239 forward 7 unknown #
coedge $-1 $240 $241 $83 $150 forward $242 $-1 #
edge $-1 $153 51.856134111653667 $238 61.501237324383354 $149 $243 forward 7 unknown #
coedge $-1 $244 $84 $241 $245 forward $141 $-1 #
vertex $-1 $147 $246 #
vertex $-1 $245 $247 #
straight-curve $-1 22.866484361533786 8.4837021303561766 9.8913817246332698 1 0 0 I I #
face $-1 $248 $249 $18 $-1 $250 forward single #
loop $-1 $251 $92 $86 #
plane-surface $-1 -16.967066082749845 3.3781007759238548 62.946313317721 0.71933980857756763 0 0.69465836192734942 0.69465836192734942 0 -0.71933980857756763 forward_v I I I I #
coedge $-1 $252 $253 $254 $255 reversed $87 $-1 #
coedge $-1 $159 $159 $-1 $256 forward $89 $-1 #
edge $-1 $257 0 $257 6.2831853071796004 $90 $258 forward 7 unknown #
vertex $-1 $93 $259 #
ellipse-curve $-1 38.924568430445632 1.1899859097385743 5.0688301182684237 -0.71933980857756763 0 -0.69465836192734942 0.34732918096367471 0 -0.35966990428878381 1 I I #
face $-1 $260 $261 $19 $-1 $262 forward single #
loop $-1 $263 $264 $94 #
cone-surface $-1 37.782580535998534 1.1899859097385743 3.9660252538106207 -0.71933980857756763 0 -0.69465836192734942 0.17366459048183736 0 -0.17983495214439191 1 I I -0.70710678118654746 0.70710678118654746 0.25 forward I I I I #
loop $-1 $-1 $265 $57 #
coedge $-1 $167 $167 $266 $267 reversed $95 $-1 #
coedge $-1 $168 $168 $-1 $268 forward $97 $-1 #
edge $-1 $269 0 $269 6.2831853071796004 $98 $270 forward 7 unknown #
loop $-1 $271 $100 $260 #
vertex $-1 $101 $272 #
ellipse-curve $-1 38.924568430445632 5.5662156421091353 5.0688301182684237 -0.71933980857756763 0 -0.69465836192734942 0.34732918096367471 0 -0.35966990428878381 1 I I #
face $-1 $-1 $117 $15 $-1 $273 reversed single #
loop $-1 $-1 $189 $102 #
plane-surface $-1 0 20.5437740052393 0 0 -1 0 0 0 -1 forward_v I I I I #
coedge $-1 $274 $187 $190 $275 forward $103 $-1 #
coedge $-1 $193 $105 $106 $181 reversed $63 $-1 #
coedge $-1 $187 $274 $105 $179 reversed $103 $-1 #
edge $-1 $194 -9.8913817246332698 $276 9.8913817246332698 $178 $277 forward 7 unknown #
coedge $-1 $107 $106 $274 $278 forward $41 $-1 #
edge $-1 $185 -43.581652272103028 $276 43.581652272103028 $177 $279 forward 7 unknown #
coedge $-1 $190 $189 $107 $183 reversed $174 $-1 #
edge $-1 $280 -43.581652272103028 $184 43.581652272103028 $182 $281 forward 7 unknown #
vertex $-1 $109 $282 #
vertex $-1 $196 $283 #
straight-curve $-1 43.581652272103028 0 -9.8913817246332698 0 -1 0 I I #
coedge $-1 $176 $178 $110 $188 reversed $103 $-1 #
edge $-1 $191 -20.5437740052393 $194 20.5437740052393 $187 $284 forward 7 unknown #
coedge $-1 $182 $111 $116 $197 forward $174 $-1 #
coedge $-1 $111 $182 $176 $275 reversed $174 $-1 #
vertex $-1 $112 $285 #
straight-curve $-1 0 20.5437740052393 9.8913817246332698 -1 0 0 I I #
coedge $-1 $113 $177 $115 $196 reversed $63 $-1 #
vertex $-1 $188 $286 #
straight-curve $-1 0 -20.5437740052393 9.8913817246332698 1 0 0 I I #
edge $-1 $118 -9.8913817246332698 $185 9.8913817246332698 $115 $287 forward 7 unknown #
edge $-1 $119 -9.8913817246332698 $184 9.8913817246332698 $116 $288 forward 7 unknown #
point $-1 43.581652272103028 -20.5437740052393 9.8913817246332698 #
point $-1 43.581652272103028 20.5437740052393 9.8913817246332698 #
face $-1 $289 $219 $16 $-1 $290 reversed single #
plane-surface $-1 -43.581652272103028 0 0 1 0 0 0 0 -1 forward_v I I I I #
coedge $-1 $214 $291 $125 $207 forward $122 $-1 #
coedge $-1 $127 $124 $214 $292 reversed $71 $-1 #
coedge $-1 $124 $127 $217 $293 reversed $71 $-1 #
edge $-1 $215 -9.8913817246332698 $220 9.8913817246332698 $124 $294 forward 7 unknown #
coedge $-1 $126 $125 $295 $296 reversed $45 $-1 #
edge $-1 $297 -23.887120155533484 $210 -15.501944077605604 $202 $298 forward 7 unknown #
coedge $-1 $299 $217 $126 $209 forward $219 $-1 #
edge $-1 $211 15.501944077605604 $300 23.887120155533484 $208 $301 forward 7 unknown #
vertex $-1 $207 $302 #
vertex $-1 $209 $303 #
straight-curve $-1 -35.196476194175148 -0.76101055597276179 0 0 0 -1 I I #
coedge $-1 $304 $130 $135 $224 forward $122 $-1 #
coedge $-1 $130 $202 $203 $292 forward $122 $-1 #
vertex $-1 $131 $305 #
straight-curve $-1 -19.694532116569544 -5.8615910317086684 9.8913817246332698 -1 0 0 I I #
coedge $-1 $208 $132 $204 $293 forward $219 $-1 #
coedge $-1 $132 $306 $134 $223 forward $219 $-1 #
loop $-1 $-1 $208 $200 #
vertex $-1 $133 $307 #
straight-curve $-1 -19.694532116569544 -5.8615910317086684 -9.8913817246332698 1 0 0 I I #
coedge $-1 $135 $134 $308 $309 reversed $136 $-1 #
edge $-1 $310 -20.5437740052393 $138 -5.8615910317086684 $134 $311 forward 7 unknown #
edge $-1 $137 5.8615910317086684 $312 20.5437740052393 $135 $313 forward 7 unknown #
point $-1 -43.581652272103028 -5.8615910317086684 9.8913817246332698 #
point $-1 -43.581652272103028 -5.8615910317086684 -9.8913817246332698 #
face $-1 $314 $315 $17 $-1 $316 forward single #
loop $-1 $-1 $317 $140 #
plane-surface $-1 -39.389064233139088 -5.8615910317086684 0 0 1 0 0 0 1 forward_v I I I I #
coedge $-1 $146 $318 $143 $233 forward $141 $-1 #
coedge $-1 $232 $143 $319 $320 reversed $79 $-1 #
coedge $-1 $143 $231 $144 $235 forward $79 $-1 #
edge $-1 $321 -20.715167910569242 $236 -11.401000227254464 $230 $322 forward 7 unknown #
coedge $-1 $145 $144 $240 $323 reversed $49 $-1 #
edge $-1 $324 -87.163304544206056 $236 -73.755033379842104 $232 $325 forward 7 unknown #
vertex $-1 $147 $326 #
straight-curve $-1 34.267484588788243 1.6890503879619274 9.8913817246332769 0 1 0 I I #
vertex $-1 $323 $327 #
straight-curve $-1 -16.967066082749845 8.4837021303561766 62.946313317721 0.69465836192734942 0 -0.71933980857756763 I I #
coedge $-1 $319 $149 $234 $323 forward $242 $-1 #
coedge $-1 $149 $328 $151 $245 reversed $242 $-1 #
loop $-1 $-1 $319 $329 #
straight-curve $-1 43.581652272103028 8.4837021303561766 61.747515836286937 0 0 -1 I I #
coedge $-1 $330 $151 $331 $332 forward $141 $-1 #
edge $-1 $153 8.4837021303561766 $333 20.5437740052393 $241 $334 forward 7 unknown #
point $-1 34.26748458878825 8.4837021303561766 9.8913817246332698 #
point $-1 43.581652272103028 8.4837021303561766 9.8913817246332698 #
face $-1 $335 $336 $18 $-1 $337 forward single #
loop $-1 $-1 $338 $155 #
plane-surface $-1 45.732968723067572 -1.7275005785084669 123.49503167257387 0 1 0 0.71933980857756763 0 0.69465836192734942 forward_v I I I I #
loop $-1 $-1 $339 $86 #
coedge $-1 $253 $158 $340 $341 forward $87 $-1 #
coedge $-1 $158 $252 $342 $343 reversed $87 $-1 #
coedge $-1 $344 $345 $158 $255 forward $336 $-1 #
edge $-1 $346 11.401000227254464 $347 20.715167910569242 $254 $348 forward 7 unknown #
edge $-1 $349 1 $349 0 $159 $-1 forward 7 unknown #
vertex $-1 $160 $350 #
ellipse-curve $-1 37.962415488142923 1.1899859097385743 4.1396898442924579 0.71933980857756763 0 0.69465836192734942 0.34732918096367471 0 -0.35966990428878381 1 I I #
point $-1 39.271897611409322 1.1899859097385743 4.7091602139796525 #
face $-1 $351 $170 $19 $-1 $352 forward single #
loop $-1 $-1 $353 $163 #
plane-surface $-1 45.732968723067572 8.4837021303561766 123.49503167257387 0 -1 0 -0.71933980857756763 0 -0.69465836192734942 forward_v I I I I #
loop $-1 $-1 $354 $94 #
coedge $-1 $264 $264 $265 $355 forward $164 $-1 #
coedge $-1 $265 $265 $264 $355 reversed $166 $-1 #
coedge $-1 $266 $266 $167 $267 forward $271 $-1 #
edge $-1 $356 0 $356 6.2831853071796004 $266 $357 forward 7 unknown #
edge $-1 $358 1 $358 0 $168 $-1 forward 7 unknown #
vertex $-1 $169 $359 #
ellipse-curve $-1 37.962415488142923 5.5662156421091353 4.1396898442924579 0.71933980857756763 0 0.69465836192734942 0.34732918096367471 0 -0.35966990428878381 1 I I #
loop $-1 $360 $266 $260 #
point $-1 39.271897611409322 5.5662156421091353 4.7091602139796525 #
plane-surface $-1 43.581652272103028 0 0 -1 0 0 0 0 1 forward_v I I I I #
coedge $-1 $178 $176 $180 $278 reversed $103 $-1 #
edge $-1 $191 -9.8913817246332698 $280 9.8913817246332698 $190 $361 forward 7 unknown #
vertex $-1 $278 $362 #
straight-curve $-1 -43.581652272103028 -20.5437740052393 0 0 0 -1 I I #
edge $-1 $276 -20.5437740052393 $280 20.5437740052393 $274 $363 forward 7 unknown #
straight-curve $-1 0 -20.5437740052393 -9.8913817246332698 -1 0 0 I I #
vertex $-1 $183 $364 #
straight-curve $-1 0 20.5437740052393 -9.8913817246332698 1 0 0 I I #
point $-1 43.581652272103028 20.5437740052393 -9.8913817246332698 #
point $-1 43.581652272103028 -20.5437740052393 -9.8913817246332698 #
straight-curve $-1 -43.581652272103028 0 9.8913817246332698 0 -1 0 I I #
point $-1 -43.581652272103028 20.5437740052393 9.8913817246332698 #
point $-1 -43.581652272103028 -20.5437740052393 9.8913817246332698 #
straight-curve $-1 43.581652272103028 -20.5437740052393 0 0 0 -1 I I #
straight-curve $-1 43.581652272103028 20.5437740052393 0 0 0 -1 I I #
face $-1 $365 $366 $16 $-1 $367 reversed single #
plane-surface $-1 0 0 -9.8913817246332698 0 0 1 1 0 0 forward_v I I I I #
coedge $-1 $202 $368 $369 $370 forward $122 $-1 #
edge $-1 $210 -0.89463984094759574 $215 4.2059406347883108 $214 $371 forward 7 unknown #
edge $-1 $220 -4.2059406347883108 $211 0.89463984094759574 $217 $372 forward 7 unknown #
straight-curve $-1 -35.196476194175148 -5.8615910317086684 0 0 0 -1 I I #
coedge $-1 $369 $373 $206 $296 forward $374 $-1 #
edge $-1 $300 -9.8913817246332698 $297 9.8913817246332698 $295 $375 forward 7 unknown #
vertex $-1 $296 $376 #
straight-curve $-1 -19.694532116569544 -0.76101055597276179 9.8913817246332698 1 0 0 I I #
coedge $-1 $377 $208 $373 $378 forward $219 $-1 #
vertex $-1 $378 $379 #
straight-curve $-1 -19.694532116569544 -0.76101055597276179 -9.8913817246332698 -1 0 0 I I #
point $-1 -35.196476194175148 -0.76101055597276179 9.8913817246332698 #
point $-1 -35.196476194175148 -0.76101055597276179 -9.8913817246332698 #
coedge $-1 $380 $213 $381 $382 forward $122 $-1 #
point $-1 -35.196476194175148 -5.8615910317086684 9.8913817246332698 #
coedge $-1 $218 $383 $384 $385 forward $219 $-1 #
point $-1 -35.196476194175148 -5.8615910317086684 -9.8913817246332698 #
coedge $-1 $384 $381 $222 $309 forward $366 $-1 #
edge $-1 $312 -9.8913817246332698 $310 9.8913817246332698 $222 $386 forward 7 unknown #
vertex $-1 $223 $387 #
straight-curve $-1 -43.581652272103028 0 -9.8913817246332698 0 1 0 I I #
vertex $-1 $224 $388 #
straight-curve $-1 -43.581652272103028 0 9.8913817246332698 0 -1 0 I I #
face $-1 $389 $390 $17 $-1 $391 forward single #
loop $-1 $-1 $392 $227 #
plane-surface $-1 -39.389064233139088 -0.76101055597276179 0 0 -1 0 0 0 -1 forward_v I I I I #
coedge $-1 $393 $394 $395 $396 reversed $228 $-1 #
coedge $-1 $230 $397 $398 $399 forward $141 $-1 #
coedge $-1 $398 $240 $231 $320 forward $242 $-1 #
edge $-1 $324 -61.501237324383354 $321 -51.856134111653667 $319 $400 forward 7 unknown #
vertex $-1 $320 $401 #
straight-curve $-1 22.866484361533786 -1.7275005785084669 9.8913817246332698 -1 0 0 I I #
edge $-1 $238 -6.7946517423942492 $324 3.4165509664703944 $240 $402 forward 7 unknown #
vertex $-1 $323 $403 #
straight-curve $-1 -16.967066082749845 -1.7275005785084669 62.946313317721 -0.69465836192734942 0 0.71933980857756763 I I #
point $-1 34.26748458878825 -1.7275005785084669 9.8913817246332698 #
point $-1 43.581652272103028 8.4837021303561766 0.24627851190358285 #
coedge $-1 $241 $404 $405 $406 reversed $242 $-1 #
face $-1 $-1 $242 $17 $-1 $407 reversed single #
coedge $-1 $408 $244 $409 $410 forward $141 $-1 #
coedge $-1 $405 $411 $244 $332 reversed $412 $-1 #
edge $-1 $333 -43.581652272103028 $413 43.581652272103028 $331 $414 forward 7 unknown #
vertex $-1 $245 $415 #
straight-curve $-1 43.581652272103028 0 9.8913817246332698 0 1 0 I I #
face $-1 $416 $417 $18 $-1 $418 forward single #
loop $-1 $-1 $419 $248 #
plane-surface $-1 0 0 9.8913817246332698 0 0 1 1 0 0 forward_v I I I I #
coedge $-1 $420 $421 $419 $422 reversed $249 $-1 #
coedge $-1 $423 $340 $345 $424 reversed $251 $-1 #
coedge $-1 $339 $425 $252 $341 reversed $251 $-1 #
edge $-1 $346 73.755033379842104 $426 87.163304544206056 $252 $427 forward 7 unknown #
coedge $-1 $428 $429 $253 $343 forward $430 $-1 #
edge $-1 $347 51.856134111653667 $426 61.501237324383354 $342 $431 forward 7 unknown #
coedge $-1 $432 $254 $429 $433 forward $336 $-1 #
coedge $-1 $254 $419 $339 $424 forward $336 $-1 #
vertex $-1 $424 $434 #
vertex $-1 $433 $435 #
straight-curve $-1 22.866484361533786 8.4837021303561766 9.8913817246332698 1 0 0 I I #
vertex $-1 $256 $436 #
point $-1 38.3097446691066 1.1899859097385743 3.7800199400036743 #
face $-1 $437 $438 $19 $-1 $439 forward single #
plane-surface $-1 -16.967066082749845 3.3781007759238548 62.946313317721 0.71933980857756763 0 0.69465836192734942 0.69465836192734942 0 -0.71933980857756763 forward_v I I I I #
coedge $-1 $440 $441 $442 $443 reversed $261 $-1 #
coedge $-1 $354 $354 $-1 $444 forward $263 $-1 #
edge $-1 $445 0 $445 6.2831853071796004 $264 $446 forward 7 unknown #
vertex $-1 $267 $447 #
ellipse-curve $-1 38.924568430445632 1.1899859097385743 5.0688301182684237 -0.71933980857756763 0 -0.69465836192734942 0.34732918096367471 0 -0.35966990428878381 1 I I #
vertex $-1 $268 $448 #
point $-1 38.3097446691066 5.5662156421091353 3.7800199400036743 #
loop $-1 $-1 $449 $260 #
straight-curve $-1 -43.581652272103028 20.5437740052393 0 0 0 -1 I I #
point $-1 -43.581652272103028 -20.5437740052393 -9.8913817246332698 #
straight-curve $-1 -43.581652272103028 0 -9.8913817246332698 0 1 0 I I #
point $-1 -43.581652272103028 20.5437740052393 -9.8913817246332698 #
face $-1 $450 $374 $16 $-1 $201 reversed single #
loop $-1 $-1 $308 $289 #
plane-surface $-1 0 -20.5437740052393 0 0 1 0 0 0 1 forward_v I I I I #
coedge $-1 $291 $380 $451 $452 forward $122 $-1 #
coedge $-1 $453 $295 $291 $370 reversed $374 $-1 #
edge $-1 $454 -20.5437740052393 $297 0.76101055597276179 $369 $313 forward 7 unknown #
straight-curve $-1 -35.196476194175148 -1.6556503969203575 9.8913817246332698 0 -1 0 I I #
straight-curve $-1 -35.196476194175148 -1.6556503969203575 -9.8913817246332698 0 1 0 I I #
coedge $-1 $295 $453 $299 $378 reversed $374 $-1 #
loop $-1 $-1 $295 $365 #
straight-curve $-1 -43.581652272103028 -0.76101055597276179 0 0 0 1 I I #
point $-1 -43.581652272103028 -0.76101055597276179 9.8913817246332698 #
coedge $-1 $383 $299 $455 $456 forward $219 $-1 #
edge $-1 $300 -0.76101055597276179 $457 20.5437740052393 $373 $311 forward 7 unknown #
point $-1 -43.581652272103028 -0.76101055597276179 -9.8913817246332698 #
coedge $-1 $368 $304 $458 $459 forward $122 $-1 #
coedge $-1 $308 $460 $304 $382 reversed $366 $-1 #
edge $-1 $312 -43.581652272103028 $461 43.581652272103028 $381 $462 forward 7 unknown #
coedge $-1 $306 $377 $463 $464 forward $219 $-1 #
coedge $-1 $460 $308 $306 $385 reversed $366 $-1 #
edge $-1 $465 -43.581652272103028 $310 43.581652272103028 $384 $466 forward 7 unknown #
straight-curve $-1 -43.581652272103028 -20.5437740052393 0 0 0 -1 I I #
point $-1 -43.581652272103028 -20.5437740052393 -9.8913817246332698 #
point $-1 -43.581652272103028 -20.5437740052393 9.8913817246332698 #
face $-1 $467 $468 $17 $-1 $469 reversed single #
loop $-1 $-1 $470 $314 #
plane-surface $-1 -35.196476194175148 -3.3113007938407151 0 -1 0 0 0 0 1 forward_v I I I I #
coedge $-1 $471 $472 $473 $474 reversed $315 $-1 #
coedge $-1 $475 $317 $476 $477 reversed $228 $-1 #
coedge $-1 $317 $475 $478 $479 reversed $228 $-1 #
coedge $-1 $480 $481 $317 $396 forward $468 $-1 #
edge $-1 $482 -9.8913817246332698 $483 9.8913817246332698 $395 $484 forward 7 unknown #
coedge $-1 $318 $485 $486 $487 forward $141 $-1 #
coedge $-1 $488 $319 $318 $399 reversed $242 $-1 #
edge $-1 $489 -20.5437740052393 $321 -1.7275005785084669 $398 $334 forward 7 unknown #
straight-curve $-1 43.581652272103028 -1.7275005785084669 61.747515836286937 0 0 1 I I #
point $-1 43.581652272103028 -1.7275005785084669 9.8913817246332698 #
straight-curve $-1 43.581652272103028 1.6890503879619274 0.24627851190358641 0 -1 0 I I #
point $-1 43.581652272103028 -1.7275005785084669 0.24627851190358285 #
coedge $-1 $328 $488 $490 $491 reversed $242 $-1 #
coedge $-1 $492 $331 $328 $406 forward $412 $-1 #
edge $-1 $333 -9.8913817246332698 $493 9.8913817246332698 $328 $494 forward 7 unknown #
plane-surface $-1 43.581652272103028 0 0 -1 0 0 0 0 1 forward_v I I I I #
coedge $-1 $495 $330 $471 $496 forward $141 $-1 #
coedge $-1 $497 $498 $330 $410 reversed $499 $-1 #
edge $-1 $413 -20.5437740052393 $500 0.76101055597276179 $409 $501 forward 7 unknown #
coedge $-1 $331 $492 $497 $502 reversed $412 $-1 #
loop $-1 $-1 $405 $503 #
vertex $-1 $332 $504 #
straight-curve $-1 0 20.5437740052393 9.8913817246332698 -1 0 0 I I #
point $-1 43.581652272103028 20.5437740052393 9.8913817246332698 #
face $-1 $505 $506 $18 $-1 $507 forward single #
loop $-1 $-1 $508 $335 #
plane-surface $-1 -39.389064233139088 -5.8615910317086684 0 0 1 0 0 0 1 forward_v I I I I #
coedge $-1 $345 $509 $338 $422 forward $336 $-1 #
coedge $-1 $421 $338 $510 $511 reversed $249 $-1 #
coedge $-1 $338 $420 $423 $512 forward $249 $-1 #
edge $-1 $513 -20.715167910569242 $514 -11.401000227254464 $419 $515 forward 7 unknown #
coedge $-1 $425 $339 $421 $512 reversed $251 $-1 #
edge $-1 $514 -3.4165509664703944 $346 6.7946517423942492 $345 $516 forward 7 unknown #
coedge $-1 $340 $423 $428 $517 reversed $251 $-1 #
vertex $-1 $517 $518 #
straight-curve $-1 -16.967066082749845 8.4837021303561766 62.946313317721 0.69465836192734942 0 -0.71933980857756763 I I #
coedge $-1 $510 $342 $425 $517 forward $430 $-1 #
coedge $-1 $342 $519 $344 $433 reversed $430 $-1 #
loop $-1 $-1 $510 $520 #
straight-curve $-1 43.581652272103028 8.4837021303561766 61.747515836286937 0 0 -1 I I #
coedge $-1 $521 $344 $522 $523 forward $336 $-1 #
edge $-1 $347 8.4837021303561766 $524 20.5437740052393 $429 $525 forward 7 unknown #
point $-1 34.26748458878825 8.4837021303561766 9.8913817246332698 #
point $-1 43.581652272103028 8.4837021303561766 9.8913817246332698 #
point $-1 37.602745583854144 1.1899859097385743 3.7923606633287834 #
face $-1 $526 $527 $19 $-1 $528 forward single #
loop $-1 $-1 $529 $351 #
plane-surface $-1 45.732968723067572 -1.7275005785084669 123.49503167257387 0 1 0 0.71933980857756763 0 0.69465836192734942 forward_v I I I I #
coedge $-1 $441 $353 $530 $531 forward $261 $-1 #
coedge $-1 $353 $440 $532 $533 reversed $261 $-1 #
coedge $-1 $534 $535 $353 $443 forward $527 $-1 #
edge $-1 $536 11.401000227254464 $537 20.715167910569242 $442 $538 forward 7 unknown #
edge $-1 $539 1 $539 0 $354 $-1 forward 7 unknown #
vertex $-1 $355 $540 #
ellipse-curve $-1 37.962415488142923 1.1899859097385743 4.1396898442924579 0.71933980857756763 0 0.69465836192734942 0.34732918096367471 0 -0.35966990428878381 1 I I #
point $-1 39.271897611409322 1.1899859097385743 4.7091602139796525 #
point $-1 37.602745583854144 5.5662156421091353 3.7923606633287834 #
coedge $-1 $541 $530 $535 $542 reversed $360 $-1 #
face $-1 $543 $544 $16 $-1 $545 reversed single #
coedge $-1 $546 $547 $368 $452 reversed $544 $-1 #
edge $-1 $548 -43.581652272103028 $454 43.581652272103028 $451 $549 forward 7 unknown #
coedge $-1 $373 $369 $547 $550 forward $374 $-1 #
vertex $-1 $452 $551 #
coedge $-1 $547 $546 $377 $456 reversed $544 $-1 #
edge $-1 $457 -43.581652272103028 $552 43.581652272103028 $455 $553 forward 7 unknown #
vertex $-1 $456 $554 #
coedge $-1 $555 $556 $380 $459 reversed $557 $-1 #
edge $-1 $461 -20.5437740052393 $548 20.5437740052393 $458 $558 forward 7 unknown #
coedge $-1 $381 $384 $555 $559 reversed $366 $-1 #
vertex $-1 $459 $560 #
straight-curve $-1 0 -20.5437740052393 9.8913817246332698 1 0 0 I I #
coedge $-1 $556 $555 $383 $464 reversed $557 $-1 #
edge $-1 $552 -20.5437740052393 $465 20.5437740052393 $463 $561 forward 7 unknown #
vertex $-1 $559 $562 #
straight-curve $-1 0 -20.5437740052393 -9.8913817246332698 -1 0 0 I I #
face $-1 $563 $564 $17 $-1 $565 reversed single #
loop $-1 $-1 $395 $389 #
plane-surface $-1 -43.581652272103028 0 0 1 0 0 0 0 -1 forward_v I I I I #
coedge $-1 $566 $567 $475 $568 reversed $390 $-1 #
coedge $-1 $569 $392 $408 $496 reversed $315 $-1 #
coedge $-1 $392 $569 $570 $571 reversed $315 $-1 #
coedge $-1 $567 $566 $392 $474 forward $390 $-1 #
edge $-1 $572 -9.8913817246332698 $573 9.8913817246332698 $473 $574 forward 7 unknown #
coedge $-1 $394 $393 $470 $568 forward $228 $-1 #
coedge $-1 $485 $495 $393 $477 forward $141 $-1 #
edge $-1 $575 15.501944077605604 $482 23.887120155533484 $476 $576 forward 7 unknown #
coedge $-1 $577 $578 $394 $479 forward $564 $-1 #
edge $-1 $483 -23.887120155533484 $579 -15.501944077605604 $478 $580 forward 7 unknown #
coedge $-1 $581 $395 $578 $582 reversed $468 $-1 #
coedge $-1 $395 $581 $485 $583 reversed $468 $-1 #
vertex $-1 $583 $584 #
vertex $-1 $396 $585 #
straight-curve $-1 -43.581652272103028 -5.8615910317086684 0 0 0 -1 I I #
coedge $-1 $397 $476 $481 $583 forward $141 $-1 #
coedge $-1 $586 $587 $397 $487 reversed $588 $-1 #
edge $-1 $589 -43.581652272103028 $489 43.581652272103028 $486 $590 forward 7 unknown #
coedge $-1 $404 $398 $587 $591 forward $242 $-1 #
vertex $-1 $399 $592 #
coedge $-1 $593 $594 $404 $491 forward $564 $-1 #
edge $-1 $493 -20.5437740052393 $595 20.5437740052393 $404 $596 forward 7 unknown #
coedge $-1 $411 $405 $594 $597 reversed $412 $-1 #
vertex $-1 $491 $598 #
straight-curve $-1 43.581652272103028 20.5437740052393 0 0 0 -1 I I #
coedge $-1 $476 $408 $566 $599 forward $141 $-1 #
edge $-1 $500 -23.887120155533484 $572 -15.501944077605604 $408 $600 forward 7 unknown #
coedge $-1 $601 $409 $411 $502 forward $499 $-1 #
coedge $-1 $409 $601 $569 $602 forward $499 $-1 #
loop $-1 $-1 $498 $603 #
vertex $-1 $602 $604 #
straight-curve $-1 -43.581652272103028 0 9.8913817246332698 0 -1 0 I I #
edge $-1 $413 -9.8913817246332698 $605 9.8913817246332698 $411 $606 forward 7 unknown #
face $-1 $329 $412 $17 $-1 $607 reversed single #
point $-1 -43.581652272103028 20.5437740052393 9.8913817246332698 #
face $-1 $608 $609 $18 $-1 $610 forward single #
loop $-1 $-1 $611 $416 #
plane-surface $-1 -39.389064233139088 -0.76101055597276179 0 0 -1 0 0 0 -1 forward_v I I I I #
coedge $-1 $612 $613 $614 $615 reversed $417 $-1 #
coedge $-1 $419 $616 $617 $618 forward $336 $-1 #
coedge $-1 $617 $428 $420 $511 forward $430 $-1 #
edge $-1 $619 -61.501237324383354 $513 -51.856134111653667 $510 $620 forward 7 unknown #
edge $-1 $619 -87.163304544206056 $514 -73.755033379842104 $421 $621 forward 7 unknown #
vertex $-1 $511 $622 #
vertex $-1 $424 $623 #
straight-curve $-1 22.866484361533786 -1.7275005785084669 9.8913817246332698 -1 0 0 I I #
straight-curve $-1 34.267484588788243 1.6890503879619274 9.8913817246332769 0 1 0 I I #
edge $-1 $426 -6.7946517423942492 $619 3.4165509664703944 $428 $624 forward 7 unknown #
point $-1 43.581652272103028 8.4837021303561766 0.24627851190358285 #
coedge $-1 $429 $625 $626 $627 reversed $430 $-1 #
face $-1 $-1 $430 $18 $-1 $628 reversed single #
coedge $-1 $629 $432 $630 $631 forward $336 $-1 #
coedge $-1 $626 $632 $432 $523 reversed $633 $-1 #
edge $-1 $524 -43.581652272103028 $634 43.581652272103028 $522 $635 forward 7 unknown #
vertex $-1 $433 $636 #
straight-curve $-1 43.581652272103028 0 9.8913817246332698 0 1 0 I I #
face $-1 $637 $638 $19 $-1 $639 forward single #
loop $-1 $-1 $640 $437 #
plane-surface $-1 0 0 9.8913817246332698 0 0 1 1 0 0 forward_v I I I I #
coedge $-1 $641 $642 $640 $643 reversed $438 $-1 #
coedge $-1 $449 $644 $440 $531 reversed $360 $-1 #
edge $-1 $536 73.755033379842104 $645 87.163304544206056 $440 $646 forward 7 unknown #
coedge $-1 $647 $648 $441 $533 forward $649 $-1 #
edge $-1 $537 51.856134111653667 $645 61.501237324383354 $532 $650 forward 7 unknown #
coedge $-1 $651 $442 $648 $652 forward $527 $-1 #
coedge $-1 $442 $640 $449 $542 forward $527 $-1 #
vertex $-1 $542 $653 #
vertex $-1 $652 $654 #
straight-curve $-1 22.866484361533786 8.4837021303561766 9.8913817246332698 1 0 0 I I #
vertex $-1 $444 $655 #
point $-1 38.3097446691066 1.1899859097385743 3.7800199400036743 #
coedge $-1 $644 $449 $642 $656 reversed $360 $-1 #
edge $-1 $657 -3.4165509664703944 $536 6.7946517423942492 $535 $658 forward 7 unknown #
face $-1 $-1 $557 $16 $-1 $659 reversed single #
loop $-1 $-1 $546 $450 #
plane-surface $-1 0 20.5437740052393 0 0 -1 0 0 0 -1 forward_v I I I I #
coedge $-1 $455 $451 $556 $660 forward $544 $-1 #
coedge $-1 $451 $455 $453 $550 reversed $544 $-1 #
vertex $-1 $459 $661 #
straight-curve $-1 0 20.5437740052393 9.8913817246332698 -1 0 0 I I #
edge $-1 $454 -9.8913817246332698 $457 9.8913817246332698 $547 $662 forward 7 unknown #
point $-1 -43.581652272103028 20.5437740052393 9.8913817246332698 #
vertex $-1 $464 $663 #
straight-curve $-1 0 20.5437740052393 -9.8913817246332698 1 0 0 I I #
point $-1 -43.581652272103028 20.5437740052393 -9.8913817246332698 #
coedge $-1 $463 $458 $460 $559 forward $557 $-1 #
coedge $-1 $458 $463 $546 $660 reversed $557 $-1 #
loop $-1 $-1 $555 $543 #
straight-curve $-1 43.581652272103028 0 9.8913817246332698 0 1 0 I I #
edge $-1 $461 -9.8913817246332698 $465 9.8913817246332698 $555 $664 forward 7 unknown #
point $-1 43.581652272103028 -20.5437740052393 9.8913817246332698 #
straight-curve $-1 43.581652272103028 0 -9.8913817246332698 0 -1 0 I I #
point $-1 43.581652272103028 -20.5437740052393 -9.8913817246332698 #
face $-1 $603 $588 $17 $-1 $665 reversed single #
loop $-1 $-1 $570 $467 #
plane-surface $-1 0 0 -9.8913817246332698 0 0 1 1 0 0 forward_v I I I I #
coedge $-1 $473 $470 $495 $599 reversed $390 $-1 #
coedge $-1 $470 $473 $577 $666 reversed $390 $-1 #
edge $-1 $575 -9.8913817246332698 $579 9.8913817246332698 $470 $667 forward 7 unknown #
coedge $-1 $472 $471 $498 $602 reversed $315 $-1 #
coedge $-1 $668 $577 $472 $571 forward $564 $-1 #
edge $-1 $573 15.501944077605604 $669 23.887120155533484 $570 $670 forward 7 unknown #
vertex $-1 $496 $671 #
vertex $-1 $571 $672 #
straight-curve $-1 -35.196476194175148 -0.76101055597276179 0 0 0 -1 I I #
vertex $-1 $477 $673 #
straight-curve $-1 -19.694532116569544 -5.8615910317086684 9.8913817246332698 -1 0 0 I I #
coedge $-1 $570 $478 $567 $666 forward $564 $-1 #
coedge $-1 $478 $593 $480 $582 forward $564 $-1 #
vertex $-1 $479 $674 #
straight-curve $-1 -19.694532116569544 -5.8615910317086684 -9.8913817246332698 1 0 0 I I #
coedge $-1 $481 $480 $586 $675 reversed $468 $-1 #
edge $-1 $676 -20.5437740052393 $483 -5.8615910317086684 $480 $677 forward 7 unknown #
edge $-1 $482 5.8615910317086684 $589 20.5437740052393 $481 $501 forward 7 unknown #
point $-1 -43.581652272103028 -5.8615910317086684 9.8913817246332698 #
point $-1 -43.581652272103028 -5.8615910317086684 -9.8913817246332698 #
coedge $-1 $678 $486 $581 $675 forward $588 $-1 #
coedge $-1 $486 $678 $488 $591 reversed $588 $-1 #
loop $-1 $-1 $586 $563 #
vertex $-1 $583 $679 #
straight-curve $-1 0 -20.5437740052393 9.8913817246332698 1 0 0 I I #
edge $-1 $489 -9.8913817246332698 $595 9.8913817246332698 $488 $680 forward 7 unknown #
point $-1 43.581652272103028 -20.5437740052393 9.8913817246332698 #
coedge $-1 $578 $490 $678 $681 forward $564 $-1 #
coedge $-1 $490 $668 $492 $597 forward $564 $-1 #
vertex $-1 $591 $682 #
straight-curve $-1 43.581652272103028 0 -9.8913817246332698 0 -1 0 I I #
edge $-1 $605 -43.581652272103028 $493 43.581652272103028 $492 $683 forward 7 unknown #
point $-1 43.581652272103028 20.5437740052393 -9.8913817246332698 #
edge $-1 $572 -0.89463984094759574 $575 4.2059406347883108 $495 $684 forward 7 unknown #
straight-curve $-1 -19.694532116569544 -0.76101055597276179 9.8913817246332698 1 0 0 I I #
coedge $-1 $498 $497 $668 $685 reversed $499 $-1 #
edge $-1 $669 -9.8913817246332698 $500 9.8913817246332698 $498 $686 forward 7 unknown #
face $-1 $503 $499 $17 $-1 $469 reversed single #
point $-1 -43.581652272103028 -0.76101055597276179 9.8913817246332698 #
vertex $-1 $597 $687 #
straight-curve $-1 -43.581652272103028 20.5437740052393 0 0 0 -1 I I #
plane-surface $-1 0 20.5437740052393 0 0 -1 0 0 0 -1 forward_v I I I I #
face $-1 $688 $689 $18 $-1 $690 reversed single #
loop $-1 $-1 $691 $505 #
plane-surface $-1 -35.196476194175148 -3.3113007938407151 0 -1 0 0 0 0 1 forward_v I I I I #
coedge $-1 $692 $693 $694 $695 reversed $506 $-1 #
coedge $-1 $696 $508 $697 $698 reversed $417 $-1 #
coedge $-1 $508 $696 $699 $700 reversed $417 $-1 #
coedge $-1 $701 $702 $508 $615 forward $689 $-1 #
edge $-1 $703 -9.8913817246332698 $704 9.8913817246332698 $614 $705 forward 7 unknown #
coedge $-1 $509 $706 $707 $708 forward $336 $-1 #
coedge $-1 $709 $510 $509 $618 reversed $430 $-1 #
edge $-1 $710 -20.5437740052393 $513 -1.7275005785084669 $617 $525 forward 7 unknown #
vertex $-1 $517 $711 #
straight-curve $-1 43.581652272103028 -1.7275005785084669 61.747515836286937 0 0 1 I I #
straight-curve $-1 -16.967066082749845 -1.7275005785084669 62.946313317721 -0.69465836192734942 0 0.71933980857756763 I I #
point $-1 43.581652272103028 -1.7275005785084669 9.8913817246332698 #
point $-1 34.26748458878825 -1.7275005785084669 9.8913817246332698 #
straight-curve $-1 43.581652272103028 1.6890503879619274 0.24627851190358641 0 -1 0 I I #
coedge $-1 $519 $709 $712 $713 reversed $430 $-1 #
coedge $-1 $714 $522 $519 $627 forward $633 $-1 #
edge $-1 $524 -9.8913817246332698 $715 9.8913817246332698 $519 $716 forward 7 unknown #
plane-surface $-1 43.581652272103028 0 0 -1 0 0 0 0 1 forward_v I I I I #
coedge $-1 $717 $521 $692 $718 forward $336 $-1 #
coedge $-1 $719 $720 $521 $631 reversed $721 $-1 #
edge $-1 $634 -20.5437740052393 $722 0.76101055597276179 $630 $723 forward 7 unknown #
coedge $-1 $522 $714 $719 $724 reversed $633 $-1 #
loop $-1 $-1 $626 $725 #
vertex $-1 $523 $726 #
straight-curve $-1 0 20.5437740052393 9.8913817246332698 -1 0 0 I I #
point $-1 43.581652272103028 20.5437740052393 9.8913817246332698 #
face $-1 $727 $728 $19 $-1 $729 forward single #
loop $-1 $-1 $730 $526 #
plane-surface $-1 -39.389064233139088 -5.8615910317086684 0 0 1 0 0 0 1 forward_v I I I I #
coedge $-1 $535 $731 $529 $643 forward $527 $-1 #
coedge $-1 $642 $529 $732 $733 reversed $438 $-1 #
coedge $-1 $529 $641 $541 $656 forward $438 $-1 #
edge $-1 $734 -20.715167910569242 $657 -11.401000227254464 $640 $735 forward 7 unknown #
coedge $-1 $530 $541 $647 $736 reversed $360 $-1 #
vertex $-1 $736 $737 #
straight-curve $-1 -16.967066082749845 8.4837021303561766 62.946313317721 0.69465836192734942 0 -0.71933980857756763 I I #
coedge $-1 $732 $532 $644 $736 forward $649 $-1 #
coedge $-1 $532 $738 $534 $652 reversed $649 $-1 #
loop $-1 $-1 $732 $739 #
straight-curve $-1 43.581652272103028 8.4837021303561766 61.747515836286937 0 0 -1 I I #
coedge $-1 $740 $534 $741 $742 forward $527 $-1 #
edge $-1 $537 8.4837021303561766 $743 20.5437740052393 $648 $744 forward 7 unknown #
point $-1 34.26748458878825 8.4837021303561766 9.8913817246332698 #
point $-1 43.581652272103028 8.4837021303561766 9.8913817246332698 #
point $-1 37.602745583854144 1.1899859097385743 3.7923606633287834 #
edge $-1 $745 -87.163304544206056 $657 -73.755033379842104 $642 $746 forward 7 unknown #
vertex $-1 $542 $747 #
straight-curve $-1 34.267484588788243 1.6890503879619274 9.8913817246332769 0 1 0 I I #
plane-surface $-1 43.581652272103028 0 0 -1 0 0 0 0 1 forward_v I I I I #
edge $-1 $548 -9.8913817246332698 $552 9.8913817246332698 $556 $748 forward 7 unknown #
point $-1 43.581652272103028 20.5437740052393 9.8913817246332698 #
straight-curve $-1 -43.581652272103028 20.5437740052393 0 0 0 -1 I I #
point $-1 43.581652272103028 20.5437740052393 -9.8913817246332698 #
straight-curve $-1 43.581652272103028 -20.5437740052393 0 0 0 -1 I I #
plane-surface $-1 0 -20.5437740052393 0 0 1 0 0 0 1 forward_v I I I I #
edge $-1 $579 -4.2059406347883108 $573 0.89463984094759574 $577 $749 forward 7 unknown #
straight-curve $-1 -35.196476194175148 -5.8615910317086684 0 0 0 -1 I I #
coedge $-1 $594 $570 $601 $685 forward $564 $-1 #
vertex $-1 $685 $750 #
straight-curve $-1 -19.694532116569544 -0.76101055597276179 -9.8913817246332698 -1 0 0 I I #
point $-1 -35.196476194175148 -0.76101055597276179 9.8913817246332698 #
point $-1 -35.196476194175148 -0.76101055597276179 -9.8913817246332698 #
point $-1 -35.196476194175148 -5.8615910317086684 9.8913817246332698 #
point $-1 -35.196476194175148 -5.8615910317086684 -9.8913817246332698 #
edge $-1 $589 -9.8913817246332698 $676 9.8913817246332698 $581 $751 forward 7 unknown #
vertex $-1 $582 $752 #
straight-curve $-1 -43.581652272103028 0 -9.8913817246332698 0 1 0 I I #
coedge $-1 $587 $586 $593 $681 reversed $588 $-1 #
point $-1 -43.581652272103028 -20.5437740052393 9.8913817246332698 #
straight-curve $-1 43.581652272103028 -20.5437740052393 0 0 0 -1 I I #
edge $-1 $595 -43.581652272103028 $676 43.581652272103028 $678 $753 forward 7 unknown #
point $-1 43.581652272103028 -20.5437740052393 -9.8913817246332698 #
straight-curve $-1 0 20.5437740052393 -9.8913817246332698 1 0 0 I I #
straight-curve $-1 -35.196476194175148 -1.6556503969203575 9.8913817246332698 0 -1 0 I I #
edge $-1 $669 -0.76101055597276179 $605 20.5437740052393 $601 $677 forward 7 unknown #
straight-curve $-1 -43.581652272103028 -0.76101055597276179 0 0 0 1 I I #
point $-1 -43.581652272103028 20.5437740052393 -9.8913817246332698 #
face $-1 $754 $755 $18 $-1 $756 reversed single #
loop $-1 $-1 $614 $608 #
plane-surface $-1 -43.581652272103028 0 0 1 0 0 0 0 -1 forward_v I I I I #
coedge $-1 $757 $758 $696 $759 reversed $609 $-1 #
coedge $-1 $760 $611 $629 $718 reversed $506 $-1 #
coedge $-1 $611 $760 $761 $762 reversed $506 $-1 #
coedge $-1 $758 $757 $611 $695 forward $609 $-1 #
edge $-1 $763 -9.8913817246332698 $764 9.8913817246332698 $694 $765 forward 7 unknown #
coedge $-1 $613 $612 $691 $759 forward $417 $-1 #
coedge $-1 $706 $717 $612 $698 forward $336 $-1 #
edge $-1 $766 15.501944077605604 $703 23.887120155533484 $697 $767 forward 7 unknown #
coedge $-1 $768 $769 $613 $700 forward $755 $-1 #
edge $-1 $704 -23.887120155533484 $770 -15.501944077605604 $699 $771 forward 7 unknown #
coedge $-1 $772 $614 $769 $773 reversed $689 $-1 #
coedge $-1 $614 $772 $706 $774 reversed $689 $-1 #
vertex $-1 $774 $775 #
vertex $-1 $615 $776 #
straight-curve $-1 -43.581652272103028 -5.8615910317086684 0 0 0 -1 I I #
coedge $-1 $616 $697 $702 $774 forward $336 $-1 #
coedge $-1 $777 $778 $616 $708 reversed $779 $-1 #
edge $-1 $780 -43.581652272103028 $710 43.581652272103028 $707 $781 forward 7 unknown #
coedge $-1 $625 $617 $778 $782 forward $430 $-1 #
vertex $-1 $618 $783 #
point $-1 43.581652272103028 -1.7275005785084669 0.24627851190358285 #
coedge $-1 $784 $785 $625 $713 forward $755 $-1 #
edge $-1 $715 -20.5437740052393 $786 20.5437740052393 $625 $787 forward 7 unknown #
coedge $-1 $632 $626 $785 $788 reversed $633 $-1 #
vertex $-1 $713 $789 #
straight-curve $-1 43.581652272103028 20.5437740052393 0 0 0 -1 I I #
coedge $-1 $697 $629 $757 $790 forward $336 $-1 #
edge $-1 $722 -23.887120155533484 $763 -15.501944077605604 $629 $791 forward 7 unknown #
coedge $-1 $792 $630 $632 $724 forward $721 $-1 #
coedge $-1 $630 $792 $760 $793 forward $721 $-1 #
loop $-1 $-1 $720 $794 #
vertex $-1 $793 $795 #
straight-curve $-1 -43.581652272103028 0 9.8913817246332698 0 -1 0 I I #
edge $-1 $634 -9.8913817246332698 $796 9.8913817246332698 $632 $797 forward 7 unknown #
face $-1 $520 $633 $18 $-1 $798 reversed single #
point $-1 -43.581652272103028 20.5437740052393 9.8913817246332698 #
face $-1 $799 $800 $19 $-1 $801 forward single #
loop $-1 $-1 $802 $637 #
plane-surface $-1 -39.389064233139088 -0.76101055597276179 0 0 -1 0 0 0 -1 forward_v I I I I #
coedge $-1 $803 $804 $805 $806 reversed $638 $-1 #
coedge $-1 $640 $807 $808 $809 forward $527 $-1 #
coedge $-1 $808 $647 $641 $733 forward $649 $-1 #
edge $-1 $745 -61.501237324383354 $734 -51.856134111653667 $732 $810 forward 7 unknown #
vertex $-1 $733 $811 #
straight-curve $-1 22.866484361533786 -1.7275005785084669 9.8913817246332698 -1 0 0 I I #
edge $-1 $645 -6.7946517423942492 $745 3.4165509664703944 $647 $812 forward 7 unknown #
point $-1 43.581652272103028 8.4837021303561766 0.24627851190358285 #
coedge $-1 $648 $813 $814 $815 reversed $649 $-1 #
face $-1 $-1 $649 $19 $-1 $816 reversed single #
coedge $-1 $817 $651 $818 $819 forward $527 $-1 #
coedge $-1 $814 $820 $651 $742 reversed $821 $-1 #
edge $-1 $743 -43.581652272103028 $822 43.581652272103028 $741 $823 forward 7 unknown #
vertex $-1 $652 $824 #
straight-curve $-1 43.581652272103028 0 9.8913817246332698 0 1 0 I I #
vertex $-1 $736 $825 #
straight-curve $-1 -16.967066082749845 -1.7275005785084669 62.946313317721 -0.69465836192734942 0 0.71933980857756763 I I #
point $-1 34.26748458878825 -1.7275005785084669 9.8913817246332698 #
straight-curve $-1 43.581652272103028 20.5437740052393 0 0 0 -1 I I #
straight-curve $-1 -35.196476194175148 -1.6556503969203575 -9.8913817246332698 0 1 0 I I #
point $-1 -43.581652272103028 -0.76101055597276179 -9.8913817246332698 #
straight-curve $-1 -43.581652272103028 -20.5437740052393 0 0 0 -1 I I #
point $-1 -43.581652272103028 -20.5437740052393 -9.8913817246332698 #
straight-curve $-1 0 -20.5437740052393 -9.8913817246332698 -1 0 0 I I #
face $-1 $794 $779 $18 $-1 $826 reversed single #
loop $-1 $-1 $761 $688 #
plane-surface $-1 0 0 -9.8913817246332698 0 0 1 1 0 0 forward_v I I I I #
coedge $-1 $694 $691 $717 $790 reversed $609 $-1 #
coedge $-1 $691 $694 $768 $827 reversed $609 $-1 #
edge $-1 $766 -9.8913817246332698 $770 9.8913817246332698 $691 $828 forward 7 unknown #
coedge $-1 $693 $692 $720 $793 reversed $506 $-1 #
coedge $-1 $829 $768 $693 $762 forward $755 $-1 #
edge $-1 $764 15.501944077605604 $830 23.887120155533484 $761 $831 forward 7 unknown #
vertex $-1 $718 $832 #
vertex $-1 $762 $833 #
straight-curve $-1 -35.196476194175148 -0.76101055597276179 0 0 0 -1 I I #
vertex $-1 $698 $834 #
straight-curve $-1 -19.694532116569544 -5.8615910317086684 9.8913817246332698 -1 0 0 I I #
coedge $-1 $761 $699 $758 $827 forward $755 $-1 #
coedge $-1 $699 $784 $701 $773 forward $755 $-1 #
vertex $-1 $700 $835 #
straight-curve $-1 -19.694532116569544 -5.8615910317086684 -9.8913817246332698 1 0 0 I I #
coedge $-1 $702 $701 $777 $836 reversed $689 $-1 #
edge $-1 $837 -20.5437740052393 $704 -5.8615910317086684 $701 $838 forward 7 unknown #
edge $-1 $703 5.8615910317086684 $780 20.5437740052393 $702 $723 forward 7 unknown #
point $-1 -43.581652272103028 -5.8615910317086684 9.8913817246332698 #
point $-1 -43.581652272103028 -5.8615910317086684 -9.8913817246332698 #
coedge $-1 $839 $707 $772 $836 forward $779 $-1 #
coedge $-1 $707 $839 $709 $782 reversed $779 $-1 #
loop $-1 $-1 $777 $754 #
vertex $-1 $774 $840 #
straight-curve $-1 0 -20.5437740052393 9.8913817246332698 1 0 0 I I #
edge $-1 $710 -9.8913817246332698 $786 9.8913817246332698 $709 $841 forward 7 unknown #
point $-1 43.581652272103028 -20.5437740052393 9.8913817246332698 #
coedge $-1 $769 $712 $839 $842 forward $755 $-1 #
coedge $-1 $712 $829 $714 $788 forward $755 $-1 #
vertex $-1 $782 $843 #
straight-curve $-1 43.581652272103028 0 -9.8913817246332698 0 -1 0 I I #
edge $-1 $796 -43.581652272103028 $715 43.581652272103028 $714 $844 forward 7 unknown #
point $-1 43.581652272103028 20.5437740052393 -9.8913817246332698 #
edge $-1 $763 -0.89463984094759574 $766 4.2059406347883108 $717 $845 forward 7 unknown #
straight-curve $-1 -19.694532116569544 -0.76101055597276179 9.8913817246332698 1 0 0 I I #
coedge $-1 $720 $719 $829 $846 reversed $721 $-1 #
edge $-1 $830 -9.8913817246332698 $722 9.8913817246332698 $720 $847 forward 7 unknown #
face $-1 $725 $721 $18 $-1 $690 reversed single #
point $-1 -43.581652272103028 -0.76101055597276179 9.8913817246332698 #
vertex $-1 $788 $848 #
straight-curve $-1 -43.581652272103028 20.5437740052393 0 0 0 -1 I I #
plane-surface $-1 0 20.5437740052393 0 0 -1 0 0 0 -1 forward_v I I I I #
face $-1 $849 $850 $19 $-1 $851 reversed single #
loop $-1 $-1 $852 $727 #
plane-surface $-1 -35.196476194175148 -3.3113007938407151 0 -1 0 0 0 0 1 forward_v I I I I #
coedge $-1 $853 $854 $855 $856 reversed $728 $-1 #
coedge $-1 $857 $730 $858 $859 reversed $638 $-1 #
coedge $-1 $730 $857 $860 $861 reversed $638 $-1 #
coedge $-1 $862 $863 $730 $806 forward $850 $-1 #
edge $-1 $864 -9.8913817246332698 $865 9.8913817246332698 $805 $866 forward 7 unknown #
coedge $-1 $731 $867 $868 $869 forward $527 $-1 #
coedge $-1 $870 $732 $731 $809 reversed $649 $-1 #
edge $-1 $871 -20.5437740052393 $734 -1.7275005785084669 $808 $744 forward 7 unknown #
straight-curve $-1 43.581652272103028 -1.7275005785084669 61.747515836286937 0 0 1 I I #
point $-1 43.581652272103028 -1.7275005785084669 9.8913817246332698 #
straight-curve $-1 43.581652272103028 1.6890503879619274 0.24627851190358641 0 -1 0 I I #
coedge $-1 $738 $870 $872 $873 reversed $649 $-1 #
coedge $-1 $874 $741 $738 $815 forward $821 $-1 #
edge $-1 $743 -9.8913817246332698 $875 9.8913817246332698 $738 $876 forward 7 unknown #
plane-surface $-1 43.581652272103028 0 0 -1 0 0 0 0 1 forward_v I I I I #
coedge $-1 $877 $740 $853 $878 forward $527 $-1 #
coedge $-1 $879 $880 $740 $819 reversed $881 $-1 #
edge $-1 $822 -20.5437740052393 $882 0.76101055597276179 $818 $883 forward 7 unknown #
coedge $-1 $741 $874 $879 $884 reversed $821 $-1 #
loop $-1 $-1 $814 $885 #
vertex $-1 $742 $886 #
straight-curve $-1 0 20.5437740052393 9.8913817246332698 -1 0 0 I I #
point $-1 43.581652272103028 20.5437740052393 9.8913817246332698 #
point $-1 43.581652272103028 -1.7275005785084669 0.24627851190358285 #
plane-surface $-1 0 -20.5437740052393 0 0 1 0 0 0 1 forward_v I I I I #
edge $-1 $770 -4.2059406347883108 $764 0.89463984094759574 $768 $887 forward 7 unknown #
straight-curve $-1 -35.196476194175148 -5.8615910317086684 0 0 0 -1 I I #
coedge $-1 $785 $761 $792 $846 forward $755 $-1 #
vertex $-1 $846 $888 #
straight-curve $-1 -19.694532116569544 -0.76101055597276179 -9.8913817246332698 -1 0 0 I I #
point $-1 -35.196476194175148 -0.76101055597276179 9.8913817246332698 #
point $-1 -35.196476194175148 -0.76101055597276179 -9.8913817246332698 #
point $-1 -35.196476194175148 -5.8615910317086684 9.8913817246332698 #
point $-1 -35.196476194175148 -5.8615910317086684 -9.8913817246332698 #
edge $-1 $780 -9.8913817246332698 $837 9.8913817246332698 $772 $889 forward 7 unknown #
vertex $-1 $773 $890 #
straight-curve $-1 -43.581652272103028 0 -9.8913817246332698 0 1 0 I I #
coedge $-1 $778 $777 $784 $842 reversed $779 $-1 #
point $-1 -43.581652272103028 -20.5437740052393 9.8913817246332698 #
straight-curve $-1 43.581652272103028 -20.5437740052393 0 0 0 -1 I I #
edge $-1 $786 -43.581652272103028 $837 43.581652272103028 $839 $891 forward 7 unknown #
point $-1 43.581652272103028 -20.5437740052393 -9.8913817246332698 #
straight-curve $-1 0 20.5437740052393 -9.8913817246332698 1 0 0 I I #
straight-curve $-1 -35.196476194175148 -1.6556503969203575 9.8913817246332698 0 -1 0 I I #
edge $-1 $830 -0.76101055597276179 $796 20.5437740052393 $792 $838 forward 7 unknown #
straight-curve $-1 -43.581652272103028 -0.76101055597276179 0 0 0 1 I I #
point $-1 -43.581652272103028 20.5437740052393 -9.8913817246332698 #
face $-1 $892 $893 $19 $-1 $894 reversed single #
loop $-1 $-1 $805 $799 #
plane-surface $-1 -43.581652272103028 0 0 1 0 0 0 0 -1 forward_v I I I I #
coedge $-1 $895 $896 $857 $897 reversed $800 $-1 #
coedge $-1 $898 $802 $817 $878 reversed $728 $-1 #
coedge $-1 $802 $898 $899 $900 reversed $728 $-1 #
coedge $-1 $896 $895 $802 $856 forward $800 $-1 #
edge $-1 $901 -9.8913817246332698 $902 9.8913817246332698 $855 $903 forward 7 unknown #
coedge $-1 $804 $803 $852 $897 forward $638 $-1 #
coedge $-1 $867 $877 $803 $859 forward $527 $-1 #
edge $-1 $904 15.501944077605604 $864 23.887120155533484 $858 $905 forward 7 unknown #
coedge $-1 $906 $907 $804 $861 forward $893 $-1 #
edge $-1 $865 -23.887120155533484 $908 -15.501944077605604 $860 $909 forward 7 unknown #
coedge $-1 $910 $805 $907 $911 reversed $850 $-1 #
coedge $-1 $805 $910 $867 $912 reversed $850 $-1 #
vertex $-1 $912 $913 #
vertex $-1 $806 $914 #
straight-curve $-1 -43.581652272103028 -5.8615910317086684 0 0 0 -1 I I #
coedge $-1 $807 $858 $863 $912 forward $527 $-1 #
coedge $-1 $915 $916 $807 $869 reversed $917 $-1 #
edge $-1 $918 -43.581652272103028 $871 43.581652272103028 $868 $919 forward 7 unknown #
coedge $-1 $813 $808 $916 $920 forward $649 $-1 #
vertex $-1 $809 $921 #
coedge $-1 $922 $923 $813 $873 forward $893 $-1 #
edge $-1 $875 -20.5437740052393 $924 20.5437740052393 $813 $925 forward 7 unknown #
coedge $-1 $820 $814 $923 $926 reversed $821 $-1 #
vertex $-1 $873 $927 #
straight-curve $-1 43.581652272103028 20.5437740052393 0 0 0 -1 I I #
coedge $-1 $858 $817 $895 $928 forward $527 $-1 #
edge $-1 $882 -23.887120155533484 $901 -15.501944077605604 $817 $929 forward 7 unknown #
coedge $-1 $930 $818 $820 $884 forward $881 $-1 #
coedge $-1 $818 $930 $898 $931 forward $881 $-1 #
loop $-1 $-1 $880 $932 #
vertex $-1 $931 $933 #
straight-curve $-1 -43.581652272103028 0 9.8913817246332698 0 -1 0 I I #
edge $-1 $822 -9.8913817246332698 $934 9.8913817246332698 $820 $935 forward 7 unknown #
face $-1 $739 $821 $19 $-1 $936 reversed single #
point $-1 -43.581652272103028 20.5437740052393 9.8913817246332698 #
straight-curve $-1 -35.196476194175148 -1.6556503969203575 -9.8913817246332698 0 1 0 I I #
point $-1 -43.581652272103028 -0.76101055597276179 -9.8913817246332698 #
straight-curve $-1 -43.581652272103028 -20.5437740052393 0 0 0 -1 I I #
point $-1 -43.581652272103028 -20.5437740052393 -9.8913817246332698 #
straight-curve $-1 0 -20.5437740052393 -9.8913817246332698 -1 0 0 I I #
face $-1 $932 $917 $19 $-1 $937 reversed single #
loop $-1 $-1 $899 $849 #
plane-surface $-1 0 0 -9.8913817246332698 0 0 1 1 0 0 forward_v I I I I #
coedge $-1 $855 $852 $877 $928 reversed $800 $-1 #
coedge $-1 $852 $855 $906 $938 reversed $800 $-1 #
edge $-1 $904 -9.8913817246332698 $908 9.8913817246332698 $852 $939 forward 7 unknown #
coedge $-1 $854 $853 $880 $931 reversed $728 $-1 #
coedge $-1 $940 $906 $854 $900 forward $893 $-1 #
edge $-1 $902 15.501944077605604 $941 23.887120155533484 $899 $942 forward 7 unknown #
vertex $-1 $878 $943 #
vertex $-1 $900 $944 #
straight-curve $-1 -35.196476194175148 -0.76101055597276179 0 0 0 -1 I I #
vertex $-1 $859 $945 #
straight-curve $-1 -19.694532116569544 -5.8615910317086684 9.8913817246332698 -1 0 0 I I #
coedge $-1 $899 $860 $896 $938 forward $893 $-1 #
coedge $-1 $860 $922 $862 $911 forward $893 $-1 #
vertex $-1 $861 $946 #
straight-curve $-1 -19.694532116569544 -5.8615910317086684 -9.8913817246332698 1 0 0 I I #
coedge $-1 $863 $862 $915 $947 reversed $850 $-1 #
edge $-1 $948 -20.5437740052393 $865 -5.8615910317086684 $862 $949 forward 7 unknown #
edge $-1 $864 5.8615910317086684 $918 20.5437740052393 $863 $883 forward 7 unknown #
point $-1 -43.581652272103028 -5.8615910317086684 9.8913817246332698 #
point $-1 -43.581652272103028 -5.8615910317086684 -9.8913817246332698 #
coedge $-1 $950 $868 $910 $947 forward $917 $-1 #
coedge $-1 $868 $950 $870 $920 reversed $917 $-1 #
loop $-1 $-1 $915 $892 #
vertex $-1 $912 $951 #
straight-curve $-1 0 -20.5437740052393 9.8913817246332698 1 0 0 I I #
edge $-1 $871 -9.8913817246332698 $924 9.8913817246332698 $870 $952 forward 7 unknown #
point $-1 43.581652272103028 -20.5437740052393 9.8913817246332698 #
coedge $-1 $907 $872 $950 $953 forward $893 $-1 #
coedge $-1 $872 $940 $874 $926 forward $893 $-1 #
vertex $-1 $920 $954 #
straight-curve $-1 43.581652272103028 0 -9.8913817246332698 0 -1 0 I I #
edge $-1 $934 -43.581652272103028 $875 43.581652272103028 $874 $955 forward 7 unknown #
point $-1 43.581652272103028 20.5437740052393 -9.8913817246332698 #
edge $-1 $901 -0.89463984094759574 $904 4.2059406347883108 $877 $956 forward 7 unknown #
straight-curve $-1 -19.694532116569544 -0.76101055597276179 9.8913817246332698 1 0 0 I I #
coedge $-1 $880 $879 $940 $957 reversed $881 $-1 #
edge $-1 $941 -9.8913817246332698 $882 9.8913817246332698 $880 $958 forward 7 unknown #
face $-1 $885 $881 $19 $-1 $851 reversed single #
point $-1 -43.581652272103028 -0.76101055597276179 9.8913817246332698 #
vertex $-1 $926 $959 #
straight-curve $-1 -43.581652272103028 20.5437740052393 0 0 0 -1 I I #
plane-surface $-1 0 20.5437740052393 0 0 -1 0 0 0 -1 forward_v I I I I #
plane-surface $-1 0 -20.5437740052393 0 0 1 0 0 0 1 forward_v I I I I #
edge $-1 $908 -4.2059406347883108 $902 0.89463984094759574 $906 $960 forward 7 unknown #
straight-curve $-1 -35.196476194175148 -5.8615910317086684 0 0 0 -1 I I #
coedge $-1 $923 $899 $930 $957 forward $893 $-1 #
vertex $-1 $957 $961 #
straight-curve $-1 -19.694532116569544 -0.76101055597276179 -9.8913817246332698 -1 0 0 I I #
point $-1 -35.196476194175148 -0.76101055597276179 9.8913817246332698 #
point $-1 -35.196476194175148 -0.76101055597276179 -9.8913817246332698 #
point $-1 -35.196476194175148 -5.8615910317086684 9.8913817246332698 #
point $-1 -35.196476194175148 -5.8615910317086684 -9.8913817246332698 #
edge $-1 $918 -9.8913817246332698 $948 9.8913817246332698 $910 $962 forward 7 unknown #
vertex $-1 $911 $963 #
straight-curve $-1 -43.581652272103028 0 -9.8913817246332698 0 1 0 I I #
coedge $-1 $916 $915 $922 $953 reversed $917 $-1 #
point $-1 -43.581652272103028 -20.5437740052393 9.8913817246332698 #
straight-curve $-1 43.581652272103028 -20.5437740052393 0 0 0 -1 I I #
edge $-1 $924 -43.581652272103028 $948 43.581652272103028 $950 $964 forward 7 unknown #
point $-1 43.581652272103028 -20.5437740052393 -9.8913817246332698 #
straight-curve $-1 0 20.5437740052393 -9.8913817246332698 1 0 0 I I #
straight-curve $-1 -35.196476194175148 -1.6556503969203575 9.8913817246332698 0 -1 0 I I #
edge $-1 $941 -0.76101055597276179 $934 20.5437740052393 $930 $949 forward 7 unknown #
straight-curve $-1 -43.581652272103028 -0.76101055597276179 0 0 0 1 I I #
point $-1 -43.581652272103028 20.5437740052393 -9.8913817246332698 #
straight-curve $-1 -35.196476194175148 -1.6556503969203575 -9.8913817246332698 0 1 0 I I #
point $-1 -43.581652272103028 -0.76101055597276179 -9.8913817246332698 #
straight-curve $-1 -43.581652272103028 -20.5437740052393 0 0 0 -1 I I #
point $-1 -43.581652272103028 -20.5437740052393 -9.8913817246332698 #
straight-curve $-1 0 -20.5437740052393 -9.8913817246332698 -1 0 0 I I #
End-of-ACIS-data 