500 0 7 0           
7 Unknown 11 ACIS 5.0 NT 24 Thu Mar 25 21:00:34 1999 
-1 9.9999999999999995e-007 1e-010 
body $-1 $7 $-1 $8 #
body $-1 $9 $-1 $10 #
body $-1 $11 $-1 $12 #
body $-1 $13 $-1 $14 #
body $-1 $15 $-1 $16 #
body $-1 $17 $-1 $18 #
body $-1 $19 $-1 $20 #
lump $-1 $-1 $21 $0 #
transform $-1 1 0 0 0 1 0 0 0 1 63.505355998413037 31.101286350564084 10.815828977120665 1 rotate no_reflect no_shear #
lump $-1 $-1 $22 $1 #
transform $-1 1 0 0 0 1 0 0 0 1 63.505355998413037 31.101286350564084 10.815828977120665 1 rotate no_reflect no_shear #
lump $-1 $-1 $23 $2 #
transform $-1 1 0 0 0 1 0 0 0 1 63.505355998413037 31.101286350564084 10.815828977120665 1 rotate no_reflect no_shear #
lump $-1 $-1 $24 $3 #
transform $-1 1 0 0 0 1 0 0 0 1 63.505355998413037 31.101286350564084 10.815828977120665 1 rotate no_reflect no_shear #
lump $-1 $-1 $25 $4 #
transform $-1 1 0 0 0 1 0 0 0 1 63.505355998413037 31.101286350564084 10.815828977120665 1 rotate no_reflect no_shear #
lump $-1 $-1 $26 $5 #
transform $-1 1 0 0 0 1 0 0 0 1 63.505355998413037 31.101286350564084 10.815828977120665 1 rotate no_reflect no_shear #
lump $-1 $-1 $27 $6 #
transform $-1 1 0 0 0 1 0 0 0 1 63.505355998413037 31.101286350564084 10.815828977120665 1 rotate no_reflect no_shear #
shell $-1 $-1 $-1 $28 $-1 $7 #
shell $-1 $-1 $-1 $29 $-1 $9 #
shell $-1 $-1 $-1 $30 $-1 $11 #
shell $-1 $-1 $-1 $31 $-1 $13 #
shell $-1 $-1 $-1 $32 $-1 $15 #
shell $-1 $-1 $-1 $33 $-1 $17 #
shell $-1 $-1 $-1 $34 $-1 $19 #
face $-1 $35 $36 $21 $-1 $37 forward single #
face $-1 $38 $39 $22 $-1 $40 reversed single #
face $-1 $41 $42 $23 $-1 $43 forward single #
face $-1 $44 $45 $24 $-1 $46 forward single #
face $-1 $47 $48 $25 $-1 $49 reversed single #
face $-1 $50 $51 $26 $-1 $52 forward single #
face $-1 $53 $54 $27 $-1 $55 forward single #
face $-1 $56 $57 $21 $-1 $58 reversed single #
loop $-1 $-1 $59 $28 #
plane-surface $-1 0 0 10.815828977120665 0 0 1 1 0 0 forward_v I I I I #
face $-1 $60 $61 $22 $-1 $62 reversed single #
loop $-1 $-1 $63 $29 #
plane-surface $-1 -26.314296782002423 -117.72238467262758 95.667167039769993 -1 0 0 0 -0.68199836817093118 0.7313536940579346 forward_v I I I I #
face $-1 $64 $65 $23 $-1 $66 forward single #
loop $-1 $67 $68 $30 #
cone-surface $-1 -42.879695570596567 -24.799870037877209 4.6611665039227432 0 0.68199836817093118 -0.7313536940579346 1.5 0 0 1 I I 0 1 1.5 forward I I I I #
face $-1 $69 $70 $24 $-1 $71 forward single #
loop $-1 $72 $73 $31 #
cone-surface $-1 -32.940456297440079 -24.799870037877209 4.6611665039227432 0 0.68199836817093118 -0.7313536940579346 1.5 0 0 1 I I 0 1 1.5 forward I I I I #
face $-1 $74 $75 $25 $-1 $76 reversed single #
loop $-1 $-1 $77 $32 #
plane-surface $-1 -58.215880523748538 72.230303347750251 139.12872274812818 1 0 0 0 -0.68199836817093118 -0.7313536940579346 forward_v I I I I #
face $-1 $78 $79 $26 $-1 $80 forward single #
loop $-1 $81 $82 $33 #
cone-surface $-1 -52.653122650724214 24.056756159851535 3.786324955736899 0 -0.68199836817093118 -0.7313536940579346 2.5 0 0 1 I I 0 1 2.5 forward I I I I #
face $-1 $83 $84 $27 $-1 $85 forward single #
loop $-1 $86 $87 $34 #
cone-surface $-1 -44.308985841187734 24.056756159851535 3.786324955736899 0 -0.68199836817093118 -0.7313536940579346 2.5 0 0 1 I I 0 1 2.5 forward I I I I #
face $-1 $88 $89 $21 $-1 $90 reversed single #
loop $-1 $-1 $91 $35 #
plane-surface $-1 0 0 -10.815828977120665 0 0 1 1 0 0 forward_v I I I I #
coedge $-1 $92 $93 $94 $95 forward $36 $-1 #
face $-1 $96 $97 $22 $-1 $98 reversed single #
loop $-1 $-1 $99 $38 #
plane-surface $-1 -37.910075934018323 -31.101286350564095 2.7774136359628159 0 -0.68199836817093118 0.7313536940579346 1 0 0 forward_v I I I I #
coedge $-1 $100 $101 $102 $103 reversed $39 $-1 #
face $-1 $-1 $104 $23 $-1 $105 forward single #
loop $-1 $106 $107 $41 #
cone-surface $-1 -42.879695570596567 -22.297027398278267 1.9771964307603032 0 0.68199836817093118 -0.7313536940579346 0.75 0 0 1 I I -0.70710678118654757 0.70710678118654757 0.75 forward I I I I #
loop $-1 $-1 $108 $30 #
coedge $-1 $68 $68 $109 $110 reversed $42 $-1 #
face $-1 $-1 $111 $24 $-1 $112 forward single #
loop $-1 $113 $114 $44 #
cone-surface $-1 -32.940456297440079 -22.297027398278267 1.9771964307603032 0 0.68199836817093118 -0.7313536940579346 0.75 0 0 1 I I -0.70710678118654757 0.70710678118654757 0.75 forward I I I I #
loop $-1 $-1 $115 $31 #
coedge $-1 $73 $73 $116 $117 reversed $45 $-1 #
face $-1 $118 $119 $25 $-1 $120 reversed single #
loop $-1 $-1 $121 $47 #
plane-surface $-1 -48.481054245955974 -14.390794974313238 46.238969344321006 0 0.68199836817093118 0.7313536940579346 1 0 0 forward_v I I I I #
coedge $-1 $122 $123 $124 $125 reversed $48 $-1 #
face $-1 $-1 $126 $26 $-1 $127 forward single #
loop $-1 $128 $129 $50 #
cone-surface $-1 -52.653122650724214 19.912435423247171 -0.65791482771789411 0 -0.68199836817093118 -0.7313536940579346 1.25 0 0 1 I I -0.70710678118654746 0.70710678118654746 1.25 forward I I I I #
loop $-1 $-1 $130 $33 #
coedge $-1 $82 $82 $131 $132 reversed $51 $-1 #
face $-1 $-1 $133 $27 $-1 $134 forward single #
loop $-1 $135 $136 $53 #
cone-surface $-1 -44.308985841187734 19.912435423247171 -0.65791482771789411 0 -0.68199836817093118 -0.7313536940579346 1.25 0 0 1 I I -0.70710678118654746 0.70710678118654746 1.25 forward I I I I #
loop $-1 $-1 $137 $34 #
coedge $-1 $87 $87 $138 $139 reversed $54 $-1 #
face $-1 $140 $141 $21 $-1 $142 reversed single #
loop $-1 $-1 $143 $56 #
plane-surface $-1 0 -31.101286350564084 0 0 1 0 0 0 1 forward_v I I I I #
coedge $-1 $144 $145 $146 $147 forward $57 $-1 #
coedge $-1 $148 $59 $149 $150 forward $36 $-1 #
coedge $-1 $59 $148 $151 $152 forward $36 $-1 #
coedge $-1 $153 $154 $59 $95 reversed $155 $-1 #
edge $-1 $156 -31.101286350564084 $157 31.101286350564084 $94 $158 forward 7 unknown #
face $-1 $159 $160 $22 $-1 $161 reversed single #
loop $-1 $-1 $162 $60 #
plane-surface $-1 -49.505855086034224 -117.72238467262758 95.667167039769993 1 0 0 0 0.68199836817093118 -0.7313536940579346 forward_v I I I I #
coedge $-1 $163 $164 $165 $166 reversed $61 $-1 #
coedge $-1 $101 $63 $167 $168 reversed $39 $-1 #
coedge $-1 $63 $100 $163 $169 reversed $39 $-1 #
coedge $-1 $165 $170 $63 $103 forward $171 $-1 #
edge $-1 $172 27.759905985749707 $173 36.380050884181941 $102 $174 forward 7 unknown #
loop $-1 $-1 $109 $64 #
plane-surface $-1 -37.910075934018323 -31.101286350564095 2.7774136359628159 0 -0.68199836817093118 0.7313536940579346 1 0 0 forward_v I I I I #
loop $-1 $-1 $175 $41 #
coedge $-1 $107 $107 $108 $176 reversed $65 $-1 #
coedge $-1 $108 $108 $107 $176 forward $67 $-1 #
coedge $-1 $109 $109 $68 $110 forward $104 $-1 #
edge $-1 $177 1.3921327818415399e-015 $177 6.2831853071796022 $109 $178 forward 7 unknown #
loop $-1 $-1 $116 $69 #
plane-surface $-1 -37.910075934018323 -31.101286350564095 2.7774136359628159 0 -0.68199836817093118 0.7313536940579346 1 0 0 forward_v I I I I #
loop $-1 $-1 $179 $44 #
coedge $-1 $114 $114 $115 $180 reversed $70 $-1 #
coedge $-1 $115 $115 $114 $180 forward $72 $-1 #
coedge $-1 $116 $116 $73 $117 forward $111 $-1 #
edge $-1 $181 1.3921327818415399e-015 $181 6.2831853071796022 $116 $182 forward 7 unknown #
face $-1 $183 $184 $25 $-1 $185 reversed single #
loop $-1 $-1 $186 $74 #
plane-surface $-1 -38.74622796816341 72.230303347750251 139.12872274812818 -1 0 0 0 0.68199836817093118 0.7313536940579346 forward_v I I I I #
coedge $-1 $187 $188 $189 $190 reversed $75 $-1 #
coedge $-1 $123 $77 $191 $192 reversed $48 $-1 #
coedge $-1 $77 $122 $187 $193 reversed $48 $-1 #
coedge $-1 $189 $194 $77 $125 forward $195 $-1 #
edge $-1 $196 5.0138653233110411 $197 12.519280151954746 $124 $198 forward 7 unknown #
loop $-1 $-1 $131 $78 #
plane-surface $-1 -48.481054245955974 -14.390794974313238 46.238969344321006 0 0.68199836817093118 0.7313536940579346 1 0 0 forward_v I I I I #
loop $-1 $-1 $199 $50 #
coedge $-1 $129 $129 $130 $200 reversed $79 $-1 #
coedge $-1 $130 $130 $129 $200 forward $81 $-1 #
coedge $-1 $131 $131 $82 $132 forward $126 $-1 #
edge $-1 $201 4.8458898630409745e-016 $201 6.2831853071796013 $131 $202 forward 7 unknown #
loop $-1 $-1 $138 $83 #
plane-surface $-1 -48.481054245955974 -14.390794974313238 46.238969344321006 0 0.68199836817093118 0.7313536940579346 1 0 0 forward_v I I I I #
loop $-1 $-1 $203 $53 #
coedge $-1 $136 $136 $137 $204 reversed $84 $-1 #
coedge $-1 $137 $137 $136 $204 forward $86 $-1 #
coedge $-1 $138 $138 $87 $139 forward $133 $-1 #
edge $-1 $205 4.8458898630409745e-016 $205 6.2831853071796013 $138 $206 forward 7 unknown #
face $-1 $207 $208 $21 $-1 $209 reversed single #
loop $-1 $-1 $210 $88 #
plane-surface $-1 -63.505355998413037 0 0 1 0 0 0 0 -1 forward_v I I I I #
coedge $-1 $211 $151 $212 $213 forward $89 $-1 #
coedge $-1 $214 $91 $211 $215 forward $57 $-1 #
coedge $-1 $91 $214 $216 $217 forward $57 $-1 #
coedge $-1 $154 $153 $91 $147 reversed $155 $-1 #
edge $-1 $218 -31.101286350564084 $219 31.101286350564084 $146 $220 forward 7 unknown #
coedge $-1 $93 $92 $221 $222 forward $36 $-1 #
coedge $-1 $223 $224 $92 $150 reversed $208 $-1 #
edge $-1 $157 -63.505355998413037 $225 63.505355998413037 $149 $226 forward 7 unknown #
coedge $-1 $143 $227 $93 $152 reversed $89 $-1 #
edge $-1 $228 -63.505355998413037 $156 63.505355998413037 $151 $229 forward 7 unknown #
coedge $-1 $146 $94 $227 $230 forward $155 $-1 #
coedge $-1 $94 $146 $223 $231 reversed $155 $-1 #
loop $-1 $-1 $153 $207 #
vertex $-1 $95 $232 #
vertex $-1 $95 $233 #
straight-curve $-1 63.505355998413037 0 10.815828977120665 0 1 0 I I #
face $-1 $-1 $171 $22 $-1 $234 forward single #
loop $-1 $-1 $235 $96 #
plane-surface $-1 0 -31.101286350564084 0 0 1 0 0 0 1 forward_v I I I I #
coedge $-1 $236 $237 $238 $239 reversed $97 $-1 #
coedge $-1 $240 $99 $101 $169 forward $61 $-1 #
coedge $-1 $99 $240 $236 $241 forward $61 $-1 #
coedge $-1 $238 $102 $99 $166 forward $171 $-1 #
edge $-1 $173 7.359258814993261 $242 30.550817119025062 $165 $243 forward 7 unknown #
coedge $-1 $244 $245 $100 $168 forward $160 $-1 #
edge $-1 $246 -45.056169883922173 $172 -37.01775454276433 $167 $247 forward 7 unknown #
edge $-1 $173 -11.78656096013291 $246 -1.4457969380444042e-014 $101 $248 forward 7 unknown #
coedge $-1 $102 $238 $244 $249 forward $171 $-1 #
loop $-1 $-1 $238 $159 #
vertex $-1 $168 $250 #
vertex $-1 $103 $251 #
straight-curve $-1 -26.314296782002423 -58.861192336313792 10.815828977120667 0 1 0 I I #
coedge $-1 $175 $175 $-1 $252 reversed $106 $-1 #
edge $-1 $253 0 $253 6.2831853071796004 $107 $254 forward 7 unknown #
vertex $-1 $110 $255 #
ellipse-curve $-1 -42.879695570596567 -26.79121390134797 6.7966213065417476 0 -0.68199836817093118 0.7313536940579346 1.5 0 0 1 I I #
coedge $-1 $179 $179 $-1 $256 reversed $113 $-1 #
edge $-1 $257 0 $257 6.2831853071796004 $114 $258 forward 7 unknown #
vertex $-1 $117 $259 #
ellipse-curve $-1 -32.940456297440079 -26.79121390134797 6.7966213065417476 0 -0.68199836817093118 0.7313536940579346 1.5 0 0 1 I I #
face $-1 $-1 $195 $25 $-1 $260 forward single #
loop $-1 $-1 $261 $118 #
plane-surface $-1 0 31.101286350564084 0 0 -1 0 0 0 -1 forward_v I I I I #
coedge $-1 $262 $263 $264 $265 reversed $119 $-1 #
coedge $-1 $266 $121 $123 $193 forward $75 $-1 #
coedge $-1 $121 $266 $262 $267 forward $75 $-1 #
coedge $-1 $264 $124 $121 $190 forward $195 $-1 #
edge $-1 $197 -33.975353400770551 $268 -14.505700845185423 $189 $269 forward 7 unknown #
coedge $-1 $270 $271 $122 $192 forward $184 $-1 #
edge $-1 $272 -65.747445107946206 $196 -58.748532396943425 $191 $273 forward 7 unknown #
edge $-1 $197 51.940212792887706 $272 62.202572701128162 $123 $274 forward 7 unknown #
coedge $-1 $124 $264 $270 $275 forward $195 $-1 #
loop $-1 $-1 $264 $183 #
vertex $-1 $192 $276 #
vertex $-1 $125 $277 #
straight-curve $-1 -58.215880523748538 36.115151673875125 10.81582897712066 0 -1 0 I I #
coedge $-1 $199 $199 $-1 $278 reversed $128 $-1 #
edge $-1 $279 0 $279 6.2831853071796004 $129 $280 forward 7 unknown #
vertex $-1 $132 $281 #
ellipse-curve $-1 -52.653122650724214 27.348578936242234 7.3163726216192755 0 0.68199836817093118 0.7313536940579346 2.5 0 0 1 I I #
coedge $-1 $203 $203 $-1 $282 reversed $135 $-1 #
edge $-1 $283 0 $283 6.2831853071796004 $136 $284 forward 7 unknown #
vertex $-1 $139 $285 #
ellipse-curve $-1 -44.308985841187734 27.348578936242234 7.3163726216192755 0 0.68199836817093118 0.7313536940579346 2.5 0 0 1 I I #
face $-1 $-1 $155 $21 $-1 $286 reversed single #
loop $-1 $-1 $223 $140 #
plane-surface $-1 0 31.101286350564084 0 0 -1 0 0 0 -1 forward_v I I I I #
coedge $-1 $287 $221 $224 $288 forward $141 $-1 #
coedge $-1 $227 $143 $144 $215 reversed $89 $-1 #
coedge $-1 $221 $287 $143 $213 reversed $141 $-1 #
edge $-1 $228 -10.815828977120665 $289 10.815828977120665 $212 $290 forward 7 unknown #
coedge $-1 $145 $144 $287 $291 forward $57 $-1 #
edge $-1 $219 -63.505355998413037 $289 63.505355998413037 $211 $292 forward 7 unknown #
coedge $-1 $224 $223 $145 $217 reversed $208 $-1 #
edge $-1 $293 -63.505355998413037 $218 63.505355998413037 $216 $294 forward 7 unknown #
vertex $-1 $147 $295 #
vertex $-1 $230 $296 #
straight-curve $-1 63.505355998413037 0 -10.815828977120665 0 -1 0 I I #
coedge $-1 $210 $212 $148 $222 reversed $141 $-1 #
edge $-1 $225 -31.101286350564084 $228 31.101286350564084 $221 $297 forward 7 unknown #
coedge $-1 $216 $149 $154 $231 forward $208 $-1 #
coedge $-1 $149 $216 $210 $288 reversed $208 $-1 #
vertex $-1 $150 $298 #
straight-curve $-1 0 31.101286350564084 10.815828977120665 -1 0 0 I I #
coedge $-1 $151 $211 $153 $230 reversed $89 $-1 #
vertex $-1 $222 $299 #
straight-curve $-1 0 -31.101286350564084 10.815828977120665 1 0 0 I I #
edge $-1 $156 -10.815828977120665 $219 10.815828977120665 $153 $300 forward 7 unknown #
edge $-1 $157 -10.815828977120665 $218 10.815828977120665 $154 $301 forward 7 unknown #
point $-1 63.505355998413037 -31.101286350564084 10.815828977120665 #
point $-1 63.505355998413037 31.101286350564084 10.815828977120665 #
plane-surface $-1 0 0 10.815828977120665 0 0 1 1 0 0 forward_v I I I I #
coedge $-1 $245 $244 $237 $302 forward $160 $-1 #
coedge $-1 $237 $162 $164 $241 reversed $97 $-1 #
coedge $-1 $162 $236 $235 $302 reversed $97 $-1 #
coedge $-1 $170 $165 $162 $239 forward $171 $-1 #
edge $-1 $242 -36.380050884181941 $303 -27.759905985749707 $238 $304 forward 7 unknown #
coedge $-1 $164 $163 $245 $305 reversed $61 $-1 #
edge $-1 $306 1.4457969380444042e-014 $242 11.78656096013291 $236 $307 forward 7 unknown #
vertex $-1 $166 $308 #
straight-curve $-1 -18.955037967009162 -22.481141452131855 10.815828977120665 -1 0 0 I I #
coedge $-1 $235 $167 $170 $249 reversed $160 $-1 #
coedge $-1 $167 $235 $240 $305 forward $160 $-1 #
vertex $-1 $168 $309 #
straight-curve $-1 -26.314296782002423 -31.101286350564081 47.833583519884996 0 0 1 I I #
straight-curve $-1 -26.314296782002423 -31.101286350564095 2.7774136359628159 0 -0.7313536940579346 -0.68199836817093118 I I #
edge $-1 $303 -49.505855086034224 $172 -26.314296782002423 $244 $310 forward 7 unknown #
point $-1 -26.314296782002423 -31.101286350564084 10.815828977120665 #
point $-1 -26.314296782002423 -22.481141452131855 10.815828977120665 #
edge $-1 $311 1 $311 0 $175 $-1 forward 7 unknown #
vertex $-1 $176 $312 #
ellipse-curve $-1 -42.879695570596567 -22.808526174406467 2.525711701303754 0 -0.68199836817093118 0.7313536940579346 1.5 0 0 1 I I #
point $-1 -41.379695570596567 -26.791213901347952 6.7966213065417316 #
edge $-1 $313 1 $313 0 $179 $-1 forward 7 unknown #
vertex $-1 $180 $314 #
ellipse-curve $-1 -32.940456297440079 -22.808526174406467 2.525711701303754 0 -0.68199836817093118 0.7313536940579346 1.5 0 0 1 I I #
point $-1 -31.440456297440079 -26.791213901347952 6.7966213065417316 #
plane-surface $-1 0 0 10.815828977120665 0 0 1 1 0 0 forward_v I I I I #
coedge $-1 $271 $270 $263 $315 forward $184 $-1 #
coedge $-1 $263 $186 $188 $267 reversed $119 $-1 #
coedge $-1 $186 $262 $261 $315 reversed $119 $-1 #
coedge $-1 $194 $189 $186 $265 forward $195 $-1 #
edge $-1 $268 -12.519280151954746 $316 -5.0138653233110411 $264 $317 forward 7 unknown #
coedge $-1 $188 $187 $271 $318 reversed $75 $-1 #
edge $-1 $319 -62.202572701128162 $268 -51.940212792887706 $262 $320 forward 7 unknown #
vertex $-1 $190 $321 #
straight-curve $-1 -24.240527122977987 23.595871521920383 10.815828977120667 1 0 0 I I #
coedge $-1 $261 $191 $194 $275 reversed $184 $-1 #
coedge $-1 $191 $261 $266 $318 forward $184 $-1 #
vertex $-1 $192 $322 #
straight-curve $-1 -58.215880523748538 31.101286350564084 69.564361374064092 0 0 1 I I #
straight-curve $-1 -58.215880523748538 -14.390794974313238 46.238969344321006 0 0.7313536940579346 -0.68199836817093118 I I #
edge $-1 $316 38.74622796816341 $196 58.215880523748538 $270 $323 forward 7 unknown #
point $-1 -58.215880523748538 31.101286350564084 10.815828977120665 #
point $-1 -58.215880523748538 23.59587152192038 10.815828977120667 #
edge $-1 $324 1 $324 0 $199 $-1 forward 7 unknown #
vertex $-1 $200 $325 #
ellipse-curve $-1 -52.653122650724214 20.764933383460836 0.25627728985452414 0 0.68199836817093118 0.7313536940579346 2.5 0 0 1 I I #
point $-1 -50.153122650724214 27.348578936242234 7.3163726216192737 #
edge $-1 $326 1 $326 0 $203 $-1 forward 7 unknown #
vertex $-1 $204 $327 #
ellipse-curve $-1 -44.308985841187734 20.764933383460836 0.25627728985452414 0 0.68199836817093118 0.7313536940579346 2.5 0 0 1 I I #
point $-1 -41.808985841187734 27.348578936242234 7.3163726216192737 #
plane-surface $-1 63.505355998413037 0 0 -1 0 0 0 0 1 forward_v I I I I #
coedge $-1 $212 $210 $214 $291 reversed $141 $-1 #
edge $-1 $225 -10.815828977120665 $293 10.815828977120665 $224 $328 forward 7 unknown #
vertex $-1 $291 $329 #
straight-curve $-1 -63.505355998413037 -31.101286350564084 0 0 0 -1 I I #
edge $-1 $289 -31.101286350564084 $293 31.101286350564084 $287 $330 forward 7 unknown #
straight-curve $-1 0 -31.101286350564084 -10.815828977120665 -1 0 0 I I #
vertex $-1 $217 $331 #
straight-curve $-1 0 31.101286350564084 -10.815828977120665 1 0 0 I I #
point $-1 63.505355998413037 31.101286350564084 -10.815828977120665 #
point $-1 63.505355998413037 -31.101286350564084 -10.815828977120665 #
straight-curve $-1 -63.505355998413037 0 10.815828977120665 0 -1 0 I I #
point $-1 -63.505355998413037 31.101286350564084 10.815828977120665 #
point $-1 -63.505355998413037 -31.101286350564084 10.815828977120665 #
straight-curve $-1 63.505355998413037 -31.101286350564084 0 0 0 -1 I I #
straight-curve $-1 63.505355998413037 31.101286350564084 0 0 0 -1 I I #
edge $-1 $303 37.01775454276433 $306 45.056169883922173 $235 $332 forward 7 unknown #
vertex $-1 $249 $333 #
straight-curve $-1 -49.505855086034224 -58.861192336313792 10.815828977120667 0 -1 0 I I #
edge $-1 $306 -30.550817119025062 $246 -7.359258814993261 $245 $334 forward 7 unknown #
vertex $-1 $305 $335 #
straight-curve $-1 -49.505855086034224 -31.101286350564095 2.7774136359628159 0 0.7313536940579346 0.68199836817093118 I I #
point $-1 -49.505855086034224 -22.481141452131855 10.815828977120665 #
point $-1 -26.314296782002423 -31.101286350564084 2.7774136359628256 #
straight-curve $-1 0 -31.101286350564084 10.815828977120665 1 0 0 I I #
vertex $-1 $252 $336 #
point $-1 -41.379695570596567 -22.808526174406467 2.525711701303754 #
vertex $-1 $256 $337 #
point $-1 -31.440456297440079 -22.808526174406467 2.525711701303754 #
edge $-1 $316 58.748532396943425 $319 65.747445107946206 $261 $338 forward 7 unknown #
vertex $-1 $275 $339 #
straight-curve $-1 -38.74622796816341 36.115151673875125 10.81582897712066 0 1 0 I I #
edge $-1 $319 14.505700845185423 $272 33.975353400770551 $271 $340 forward 7 unknown #
vertex $-1 $318 $341 #
straight-curve $-1 -38.74622796816341 -14.390794974313238 46.238969344321006 0 -0.7313536940579346 0.68199836817093118 I I #
point $-1 -38.74622796816341 23.59587152192038 10.815828977120667 #
point $-1 -58.215880523748538 31.101286350564081 3.8169162661178859 #
straight-curve $-1 0 31.101286350564084 10.815828977120665 -1 0 0 I I #
vertex $-1 $278 $342 #
point $-1 -50.153122650724214 20.764933383460836 0.25627728985452414 #
vertex $-1 $282 $343 #
point $-1 -41.808985841187734 20.764933383460836 0.25627728985452414 #
straight-curve $-1 -63.505355998413037 31.101286350564084 0 0 0 -1 I I #
point $-1 -63.505355998413037 -31.101286350564084 -10.815828977120665 #
straight-curve $-1 -63.505355998413037 0 -10.815828977120665 0 1 0 I I #
point $-1 -63.505355998413037 31.101286350564084 -10.815828977120665 #
straight-curve $-1 -49.505855086034224 -31.101286350564081 47.833583519884996 0 0 -1 I I #
point $-1 -49.505855086034224 -31.101286350564084 10.815828977120665 #
straight-curve $-1 -18.955037967009162 -31.101286350564084 2.7774136359628252 1 0 0 I I #
point $-1 -49.505855086034224 -31.101286350564084 2.7774136359628256 #
point $-1 -42.879695570596567 -21.785528622150068 1.4286811602168523 #
point $-1 -32.940456297440079 -21.785528622150068 1.4286811602168523 #
straight-curve $-1 -38.74622796816341 31.101286350564084 69.564361374064092 0 0 -1 I I #
point $-1 -38.74622796816341 31.101286350564084 10.815828977120665 #
straight-curve $-1 -24.240527122977987 31.101286350564081 3.8169162661178895 -1 0 0 I I #
point $-1 -38.74622796816341 31.101286350564081 3.8169162661178859 #
point $-1 -52.653122650724214 19.059937463033506 -1.5721069452903125 #
point $-1 -44.308985841187734 19.059937463033506 -1.5721069452903125 #
End-of-ACIS-data 