500 0 9 0           
7 Unknown 11 ACIS 5.0 NT 24 Fri Mar 26 15:34:33 1999 
-1 9.9999999999999995e-007 1e-010 
body $-1 $9 $-1 $10 #
body $-1 $11 $-1 $12 #
body $-1 $13 $-1 $14 #
body $-1 $15 $-1 $16 #
body $-1 $17 $-1 $18 #
body $-1 $19 $-1 $20 #
body $-1 $21 $-1 $22 #
body $-1 $23 $-1 $24 #
body $-1 $25 $-1 $26 #
lump $-1 $-1 $27 $0 #
transform $-1 1 0 0 0 1 0 0 0 1 57.958311716055789 26.31357232105179 11.1191245373246 1 rotate no_reflect no_shear #
lump $-1 $-1 $28 $1 #
transform $-1 1 0 0 0 1 0 0 0 1 57.958311716055789 26.31357232105179 11.1191245373246 1 rotate no_reflect no_shear #
lump $-1 $-1 $29 $2 #
transform $-1 1 0 0 0 1 0 0 0 1 57.958311716055789 26.31357232105179 11.1191245373246 1 rotate no_reflect no_shear #
lump $-1 $-1 $30 $3 #
transform $-1 1 0 0 0 1 0 0 0 1 57.958311716055789 26.31357232105179 11.1191245373246 1 rotate no_reflect no_shear #
lump $-1 $-1 $31 $4 #
transform $-1 1 0 0 0 1 0 0 0 1 57.958311716055789 26.31357232105179 11.1191245373246 1 rotate no_reflect no_shear #
lump $-1 $-1 $32 $5 #
transform $-1 1 0 0 0 1 0 0 0 1 57.958311716055789 26.31357232105179 11.1191245373246 1 rotate no_reflect no_shear #
lump $-1 $-1 $33 $6 #
transform $-1 1 0 0 0 1 0 0 0 1 57.958311716055789 26.31357232105179 11.1191245373246 1 rotate no_reflect no_shear #
lump $-1 $-1 $34 $7 #
transform $-1 1 0 0 0 1 0 0 0 1 57.958311716055789 26.31357232105179 11.1191245373246 1 rotate no_reflect no_shear #
lump $-1 $-1 $35 $8 #
transform $-1 1 0 0 0 1 0 0 0 1 57.958311716055789 26.31357232105179 11.1191245373246 1 rotate no_reflect no_shear #
shell $-1 $-1 $-1 $36 $-1 $9 #
shell $-1 $-1 $-1 $37 $-1 $11 #
shell $-1 $-1 $-1 $38 $-1 $13 #
shell $-1 $-1 $-1 $39 $-1 $15 #
shell $-1 $-1 $-1 $40 $-1 $17 #
shell $-1 $-1 $-1 $41 $-1 $19 #
shell $-1 $-1 $-1 $42 $-1 $21 #
shell $-1 $-1 $-1 $43 $-1 $23 #
shell $-1 $-1 $-1 $44 $-1 $25 #
face $-1 $45 $46 $27 $-1 $47 forward single #
face $-1 $48 $49 $28 $-1 $50 forward single #
face $-1 $51 $52 $29 $-1 $53 forward single #
face $-1 $54 $55 $30 $-1 $56 reversed single #
face $-1 $57 $58 $31 $-1 $59 forward single #
face $-1 $60 $61 $32 $-1 $62 forward single #
face $-1 $63 $64 $33 $-1 $65 reversed single #
face $-1 $66 $67 $34 $-1 $68 forward single #
face $-1 $69 $70 $35 $-1 $71 forward single #
face $-1 $72 $73 $27 $-1 $74 reversed single #
loop $-1 $-1 $75 $36 #
plane-surface $-1 0 0 11.1191245373246 0 0 1 1 0 0 forward_v I I I I #
face $-1 $76 $77 $28 $-1 $78 reversed single #
loop $-1 $-1 $79 $37 #
plane-surface $-1 0 -19.405072625419447 -5.7475900681597079 0 0 1 1 0 0 forward_v I I I I #
face $-1 $80 $81 $29 $-1 $82 reversed single #
loop $-1 $-1 $83 $38 #
plane-surface $-1 0 19.405072625419447 -5.7475900681597079 0 0 1 1 0 0 forward_v I I I I #
face $-1 $84 $85 $30 $-1 $86 reversed single #
loop $-1 $-1 $87 $39 #
plane-surface $-1 -115.91662420860646 8.397831352076313 107.31551238800182 0 -1 0 0.50000000669873634 0 -0.8660253999169214 forward_v I I I I #
face $-1 $88 $89 $31 $-1 $90 forward single #
loop $-1 $91 $92 $40 #
cone-surface $-1 -54.079360222682425 3.748356194956191 8.5909356802979371 0.50000000669873634 0 -0.8660253999169214 0.4330126999584607 0 0.25000000334936817 1 I I 0 1 0.5 forward I I I I #
face $-1 $93 $94 $32 $-1 $95 forward single #
loop $-1 $96 $97 $41 #
cone-surface $-1 -54.079360222682425 6.5380412892282642 8.5909356802979371 0.50000000669873634 0 -0.8660253999169214 0.4330126999584607 0 0.25000000334936817 1 I I 0 1 0.5 forward I I I I #
face $-1 $98 $99 $33 $-1 $100 reversed single #
loop $-1 $-1 $101 $42 #
plane-surface $-1 92.041456552488484 0.92833888060395964 160.60206043693435 0 -1 0 -0.83867057594974714 0 -0.54463902268945019 forward_v I I I I #
face $-1 $102 $103 $34 $-1 $104 forward single #
loop $-1 $105 $106 $43 #
cone-surface $-1 53.911040946450342 -4.103934184549427 5.3491599304598454 -0.83867057594974714 0 -0.54463902268945019 0.54463902268945019 0 -0.83867057594974714 1 I I 0 1 1 forward I I I I #
face $-1 $107 $108 $35 $-1 $109 forward single #
loop $-1 $110 $111 $44 #
cone-surface $-1 53.911040946450342 -1.0845703454573936 5.3491599304598454 -0.83867057594974714 0 -0.54463902268945019 0.54463902268945019 0 -0.83867057594974714 1 I I 0 1 1 forward I I I I #
face $-1 $112 $113 $27 $-1 $114 reversed single #
loop $-1 $-1 $115 $45 #
plane-surface $-1 0 0 -11.1191245373246 0 0 1 1 0 0 forward_v I I I I #
coedge $-1 $116 $117 $118 $119 forward $46 $-1 #
face $-1 $120 $121 $28 $-1 $122 reversed single #
loop $-1 $-1 $123 $48 #
plane-surface $-1 0 -12.496572929787103 -8.433357302742154 0 -1 0 0 0 -1 forward_v I I I I #
coedge $-1 $124 $125 $126 $127 reversed $49 $-1 #
face $-1 $128 $129 $29 $-1 $130 reversed single #
loop $-1 $-1 $131 $51 #
plane-surface $-1 0 12.496572929787103 -8.433357302742154 0 1 0 0 0 1 forward_v I I I I #
coedge $-1 $132 $133 $134 $135 reversed $52 $-1 #
face $-1 $136 $137 $30 $-1 $138 reversed single #
loop $-1 $-1 $139 $54 #
plane-surface $-1 -57.958311716055775 5.1431987420922276 6.9287722231882043 -0.50000000669873634 0 0.8660253999169214 0.8660253999169214 0 0.50000000669873634 forward_v I I I I #
coedge $-1 $140 $141 $142 $143 reversed $55 $-1 #
face $-1 $-1 $144 $31 $-1 $145 forward single #
loop $-1 $146 $147 $57 #
cone-surface $-1 -53.704360217658376 3.748356194956191 7.941416630360246 0.50000000669873634 0 -0.8660253999169214 0.21650634997923035 0 0.12500000167468409 1 I I -0.70710678118654746 0.70710678118654746 0.25 forward I I I I #
loop $-1 $-1 $148 $40 #
coedge $-1 $92 $92 $149 $150 reversed $58 $-1 #
face $-1 $-1 $151 $32 $-1 $152 forward single #
loop $-1 $153 $154 $60 #
cone-surface $-1 -53.704360217658376 6.5380412892282642 7.941416630360246 0.50000000669873634 0 -0.8660253999169214 0.21650634997923035 0 0.12500000167468409 1 I I -0.70710678118654746 0.70710678118654746 0.25 forward I I I I #
loop $-1 $-1 $155 $41 #
coedge $-1 $97 $97 $156 $157 reversed $61 $-1 #
face $-1 $158 $159 $33 $-1 $160 reversed single #
loop $-1 $-1 $161 $63 #
plane-surface $-1 -5.1744047834704929 -2.5942522650034121 97.46934393740807 0.83867057594974714 0 0.54463902268945019 0.54463902268945019 0 -0.83867057594974714 forward_v I I I I #
coedge $-1 $162 $163 $164 $165 reversed $64 $-1 #
face $-1 $-1 $166 $34 $-1 $167 forward single #
loop $-1 $168 $169 $66 #
cone-surface $-1 52.97254996441508 -4.103934184549427 4.7396967801881065 -0.83867057594974714 0 -0.54463902268945019 0.2723195113447251 0 -0.41933528797487357 1 I I -0.70710678118654746 0.70710678118654746 0.5 forward I I I I #
loop $-1 $-1 $170 $43 #
coedge $-1 $106 $106 $171 $172 reversed $67 $-1 #
face $-1 $-1 $173 $35 $-1 $174 forward single #
loop $-1 $175 $176 $69 #
cone-surface $-1 52.97254996441508 -1.0845703454573936 4.7396967801881065 -0.83867057594974714 0 -0.54463902268945019 0.2723195113447251 0 -0.41933528797487357 1 I I -0.70710678118654746 0.70710678118654746 0.5 forward I I I I #
loop $-1 $-1 $177 $44 #
coedge $-1 $111 $111 $178 $179 reversed $70 $-1 #
face $-1 $180 $181 $27 $-1 $182 reversed single #
loop $-1 $-1 $183 $72 #
plane-surface $-1 0 -26.31357232105179 0 0 1 0 0 0 1 forward_v I I I I #
coedge $-1 $184 $185 $186 $187 forward $73 $-1 #
coedge $-1 $188 $75 $189 $190 forward $46 $-1 #
coedge $-1 $75 $188 $191 $192 forward $46 $-1 #
coedge $-1 $193 $194 $75 $119 reversed $195 $-1 #
edge $-1 $196 -26.31357232105179 $197 26.31357232105179 $118 $198 forward 7 unknown #
face $-1 $199 $200 $28 $-1 $201 reversed single #
loop $-1 $-1 $202 $76 #
plane-surface $-1 0 0 -11.1191245373246 0 0 1 1 0 0 forward_v I I I I #
coedge $-1 $203 $204 $205 $206 reversed $77 $-1 #
coedge $-1 $207 $79 $204 $208 forward $49 $-1 #
coedge $-1 $79 $207 $209 $210 reversed $49 $-1 #
coedge $-1 $211 $205 $79 $127 forward $200 $-1 #
edge $-1 $212 2.7940366170773796 $213 16.611036008342069 $126 $214 forward 7 unknown #
face $-1 $215 $216 $29 $-1 $217 reversed single #
loop $-1 $-1 $134 $80 #
plane-surface $-1 57.958311716055789 0 0 -1 0 0 0 0 1 forward_v I I I I #
coedge $-1 $218 $219 $220 $221 reversed $81 $-1 #
coedge $-1 $222 $83 $223 $224 reversed $52 $-1 #
coedge $-1 $83 $222 $219 $225 forward $52 $-1 #
coedge $-1 $226 $227 $83 $135 forward $129 $-1 #
edge $-1 $228 -16.611036008342069 $229 -2.7940366170773796 $134 $230 forward 7 unknown #
face $-1 $231 $232 $30 $-1 $233 reversed single #
loop $-1 $-1 $234 $84 #
plane-surface $-1 -115.91662420860646 1.8885661321081422 107.31551238800182 0 1 0 -0.50000000669873634 0 0.8660253999169214 forward_v I I I I #
coedge $-1 $235 $236 $237 $238 reversed $85 $-1 #
coedge $-1 $141 $87 $239 $240 reversed $55 $-1 #
coedge $-1 $87 $140 $235 $241 reversed $55 $-1 #
coedge $-1 $237 $242 $87 $143 forward $232 $-1 #
edge $-1 $243 42.538631656676309 $244 46.728983970812713 $142 $245 forward 7 unknown #
loop $-1 $-1 $149 $88 #
plane-surface $-1 -57.958311716055775 5.1431987420922276 6.9287722231882043 -0.50000000669873634 0 0.8660253999169214 0.8660253999169214 0 0.50000000669873634 forward_v I I I I #
loop $-1 $-1 $246 $57 #
coedge $-1 $147 $147 $148 $247 reversed $89 $-1 #
coedge $-1 $148 $148 $147 $247 forward $91 $-1 #
coedge $-1 $149 $149 $92 $150 forward $144 $-1 #
edge $-1 $248 0 $248 6.2831853071796004 $149 $249 forward 7 unknown #
loop $-1 $-1 $156 $93 #
plane-surface $-1 -57.958311716055775 5.1431987420922276 6.9287722231882043 -0.50000000669873634 0 0.8660253999169214 0.8660253999169214 0 0.50000000669873634 forward_v I I I I #
loop $-1 $-1 $250 $60 #
coedge $-1 $154 $154 $155 $251 reversed $94 $-1 #
coedge $-1 $155 $155 $154 $251 forward $96 $-1 #
coedge $-1 $156 $156 $97 $157 forward $151 $-1 #
edge $-1 $252 0 $252 6.2831853071796004 $156 $253 forward 7 unknown #
face $-1 $254 $255 $33 $-1 $256 forward single #
loop $-1 $-1 $257 $98 #
plane-surface $-1 92.041456552488484 -6.1168434106107838 160.60206043693435 0 1 0 0.83867057594974714 0 0.54463902268945019 forward_v I I I I #
coedge $-1 $258 $259 $260 $261 reversed $99 $-1 #
coedge $-1 $163 $101 $262 $263 reversed $64 $-1 #
coedge $-1 $101 $162 $258 $264 reversed $64 $-1 #
coedge $-1 $260 $265 $101 $165 forward $255 $-1 #
edge $-1 $266 -11.937583439811547 $267 -4.8813532887213995 $164 $268 forward 7 unknown #
loop $-1 $-1 $171 $102 #
plane-surface $-1 -5.1744047834704929 -2.5942522650034121 97.46934393740807 0.83867057594974714 0 0.54463902268945019 0.54463902268945019 0 -0.83867057594974714 forward_v I I I I #
loop $-1 $-1 $269 $66 #
coedge $-1 $169 $169 $170 $270 reversed $103 $-1 #
coedge $-1 $170 $170 $169 $270 forward $105 $-1 #
coedge $-1 $171 $171 $106 $172 forward $166 $-1 #
edge $-1 $271 0 $271 6.2831853071796004 $171 $272 forward 7 unknown #
loop $-1 $-1 $178 $107 #
plane-surface $-1 -5.1744047834704929 -2.5942522650034121 97.46934393740807 0.83867057594974714 0 0.54463902268945019 0.54463902268945019 0 -0.83867057594974714 forward_v I I I I #
loop $-1 $-1 $273 $69 #
coedge $-1 $176 $176 $177 $274 reversed $108 $-1 #
coedge $-1 $177 $177 $176 $274 forward $110 $-1 #
coedge $-1 $178 $178 $111 $179 forward $173 $-1 #
edge $-1 $275 0 $275 6.2831853071796004 $178 $276 forward 7 unknown #
face $-1 $277 $278 $27 $-1 $279 reversed single #
loop $-1 $-1 $280 $112 #
plane-surface $-1 -57.958311716055789 0 0 1 0 0 0 0 -1 forward_v I I I I #
coedge $-1 $281 $191 $282 $283 forward $113 $-1 #
coedge $-1 $284 $115 $281 $285 forward $73 $-1 #
coedge $-1 $115 $284 $286 $287 forward $73 $-1 #
coedge $-1 $194 $193 $115 $187 reversed $195 $-1 #
edge $-1 $288 -26.31357232105179 $289 26.31357232105179 $186 $290 forward 7 unknown #
coedge $-1 $117 $116 $291 $292 forward $46 $-1 #
coedge $-1 $293 $294 $116 $190 reversed $278 $-1 #
edge $-1 $197 -57.958311716055789 $295 57.958311716055789 $189 $296 forward 7 unknown #
coedge $-1 $183 $297 $117 $192 reversed $113 $-1 #
edge $-1 $298 -57.958311716055789 $196 57.958311716055789 $191 $299 forward 7 unknown #
coedge $-1 $186 $118 $297 $300 forward $195 $-1 #
coedge $-1 $118 $186 $293 $301 reversed $195 $-1 #
loop $-1 $-1 $193 $277 #
vertex $-1 $119 $302 #
vertex $-1 $119 $303 #
straight-curve $-1 57.958311716055789 0 11.1191245373246 0 1 0 I I #
face $-1 $304 $305 $28 $-1 $306 reversed single #
loop $-1 $-1 $205 $120 #
plane-surface $-1 57.958311716055789 0 0 -1 0 0 0 0 1 forward_v I I I I #
coedge $-1 $307 $308 $203 $309 forward $121 $-1 #
coedge $-1 $310 $123 $202 $309 reversed $77 $-1 #
coedge $-1 $123 $310 $124 $208 reversed $77 $-1 #
coedge $-1 $126 $311 $123 $206 forward $200 $-1 #
edge $-1 $312 -6.9024458859535232 $212 -1.5309114167886309 $205 $313 forward 7 unknown #
coedge $-1 $125 $124 $314 $315 reversed $49 $-1 #
edge $-1 $212 -57.958311716055789 $316 57.958311716055789 $204 $317 forward 7 unknown #
coedge $-1 $318 $319 $125 $210 forward $305 $-1 #
edge $-1 $213 -57.958311716055789 $320 57.958311716055789 $209 $321 forward 7 unknown #
coedge $-1 $311 $126 $319 $322 forward $200 $-1 #
vertex $-1 $127 $323 #
vertex $-1 $322 $324 #
straight-curve $-1 57.958311716055789 -9.7025363127097233 -5.7475900681597079 0 -1 0 I I #
face $-1 $325 $326 $29 $-1 $327 reversed single #
loop $-1 $-1 $328 $128 #
plane-surface $-1 0 0 -11.1191245373246 0 0 1 1 0 0 forward_v I I I I #
coedge $-1 $329 $131 $328 $330 reversed $81 $-1 #
coedge $-1 $131 $329 $133 $225 reversed $81 $-1 #
coedge $-1 $331 $332 $131 $221 forward $326 $-1 #
edge $-1 $333 -6.9024458859535232 $334 -1.5309114167886309 $220 $335 forward 7 unknown #
coedge $-1 $133 $132 $331 $336 reversed $52 $-1 #
coedge $-1 $337 $338 $132 $224 forward $339 $-1 #
edge $-1 $340 -57.958311716055789 $228 57.958311716055789 $223 $341 forward 7 unknown #
edge $-1 $334 -57.958311716055789 $229 57.958311716055789 $219 $342 forward 7 unknown #
coedge $-1 $343 $134 $329 $344 forward $129 $-1 #
coedge $-1 $134 $343 $337 $345 reversed $129 $-1 #
vertex $-1 $345 $346 #
vertex $-1 $135 $347 #
straight-curve $-1 57.958311716055789 9.7025363127097233 -5.7475900681597079 0 -1 0 I I #
face $-1 $-1 $348 $30 $-1 $349 forward single #
loop $-1 $-1 $142 $136 #
plane-surface $-1 -57.958311716055789 0 0 1 0 0 0 0 -1 forward_v I I I I #
coedge $-1 $350 $351 $352 $353 reversed $137 $-1 #
coedge $-1 $354 $139 $141 $241 forward $85 $-1 #
coedge $-1 $139 $354 $350 $355 forward $85 $-1 #
coedge $-1 $352 $142 $139 $238 forward $232 $-1 #
edge $-1 $244 -5.8262319810301992 $356 0.68303323893797163 $237 $357 forward 7 unknown #
coedge $-1 $358 $359 $140 $240 forward $348 $-1 #
edge $-1 $360 -7.2579033682954375 $243 -3.8824744308385561e-007 $239 $361 forward 7 unknown #
edge $-1 $244 -1.6303764080091705e-014 $360 8.3807045159925302 $141 $362 forward 7 unknown #
coedge $-1 $142 $352 $358 $363 reversed $232 $-1 #
vertex $-1 $363 $364 #
vertex $-1 $143 $365 #
straight-curve $-1 -57.958311716055789 8.397831352076313 53.65775619400091 0 0 -1 I I #
coedge $-1 $246 $246 $-1 $366 reversed $146 $-1 #
edge $-1 $367 0 $367 6.2831853071796004 $147 $368 forward 7 unknown #
vertex $-1 $150 $369 #
ellipse-curve $-1 -54.329360226031795 3.748356194956191 9.0239483802563978 -0.50000000669873634 0 0.8660253999169214 0.4330126999584607 0 0.25000000334936817 1 I I #
coedge $-1 $250 $250 $-1 $370 reversed $153 $-1 #
edge $-1 $371 0 $371 6.2831853071796004 $154 $372 forward 7 unknown #
vertex $-1 $157 $373 #
ellipse-curve $-1 -54.329360226031795 6.5380412892282642 9.0239483802563978 -0.50000000669873634 0 0.8660253999169214 0.4330126999584607 0 0.25000000334936817 1 I I #
face $-1 $-1 $374 $33 $-1 $375 reversed single #
loop $-1 $-1 $164 $158 #
plane-surface $-1 0 0 11.1191245373246 0 0 1 1 0 0 forward_v I I I I #
coedge $-1 $376 $377 $378 $379 reversed $159 $-1 #
coedge $-1 $380 $161 $163 $264 forward $99 $-1 #
coedge $-1 $161 $380 $376 $381 forward $99 $-1 #
coedge $-1 $378 $164 $161 $261 forward $255 $-1 #
edge $-1 $267 -2.2254650131056657 $382 4.8197172781090778 $260 $383 forward 7 unknown #
coedge $-1 $384 $385 $162 $263 forward $374 $-1 #
edge $-1 $386 -80.047547617018097 $266 -69.181905681142581 $262 $387 forward 7 unknown #
edge $-1 $267 102.9608309583256 $386 115.91662343211161 $163 $388 forward 7 unknown #
coedge $-1 $164 $378 $384 $389 forward $255 $-1 #
vertex $-1 $165 $390 #
vertex $-1 $165 $391 #
straight-curve $-1 46.020728276244242 0.92833888060395964 11.119124537324595 -1 0 0 I I #
coedge $-1 $269 $269 $-1 $392 reversed $168 $-1 #
edge $-1 $393 0 $393 6.2831853071796004 $169 $394 forward 7 unknown #
vertex $-1 $172 $395 #
ellipse-curve $-1 54.430196640510708 -4.103934184549427 5.6863035693868458 0.83867057594974714 0 0.54463902268945019 0.54463902268945019 0 -0.83867057594974714 1 I I #
coedge $-1 $273 $273 $-1 $396 reversed $175 $-1 #
edge $-1 $397 0 $397 6.2831853071796004 $176 $398 forward 7 unknown #
vertex $-1 $179 $399 #
ellipse-curve $-1 54.430196640510708 -1.0845703454573936 5.6863035693868458 0.83867057594974714 0 0.54463902268945019 0.54463902268945019 0 -0.83867057594974714 1 I I #
face $-1 $-1 $195 $27 $-1 $400 reversed single #
loop $-1 $-1 $293 $180 #
plane-surface $-1 0 26.31357232105179 0 0 -1 0 0 0 -1 forward_v I I I I #
coedge $-1 $401 $291 $294 $402 forward $181 $-1 #
coedge $-1 $297 $183 $184 $285 reversed $113 $-1 #
coedge $-1 $291 $401 $183 $283 reversed $181 $-1 #
edge $-1 $298 -11.1191245373246 $403 11.1191245373246 $282 $404 forward 7 unknown #
coedge $-1 $185 $184 $401 $405 forward $73 $-1 #
edge $-1 $289 -57.958311716055789 $403 57.958311716055789 $281 $406 forward 7 unknown #
coedge $-1 $294 $293 $185 $287 reversed $278 $-1 #
edge $-1 $407 -57.958311716055789 $288 57.958311716055789 $286 $408 forward 7 unknown #
vertex $-1 $187 $409 #
vertex $-1 $300 $410 #
straight-curve $-1 57.958311716055789 0 -11.1191245373246 0 -1 0 I I #
coedge $-1 $280 $282 $188 $292 reversed $181 $-1 #
edge $-1 $295 -26.31357232105179 $298 26.31357232105179 $291 $411 forward 7 unknown #
coedge $-1 $286 $189 $194 $301 forward $278 $-1 #
coedge $-1 $189 $286 $280 $402 reversed $278 $-1 #
vertex $-1 $190 $412 #
straight-curve $-1 0 26.31357232105179 11.1191245373246 -1 0 0 I I #
coedge $-1 $191 $281 $193 $300 reversed $113 $-1 #
vertex $-1 $292 $413 #
straight-curve $-1 0 -26.31357232105179 11.1191245373246 1 0 0 I I #
edge $-1 $196 -11.1191245373246 $289 11.1191245373246 $193 $414 forward 7 unknown #
edge $-1 $197 -11.1191245373246 $288 11.1191245373246 $194 $415 forward 7 unknown #
point $-1 57.958311716055789 -26.31357232105179 11.1191245373246 #
point $-1 57.958311716055789 26.31357232105179 11.1191245373246 #
face $-1 $-1 $416 $28 $-1 $417 reversed single #
loop $-1 $-1 $209 $199 #
plane-surface $-1 0 -26.31357232105179 0 0 1 0 0 0 1 forward_v I I I I #
coedge $-1 $418 $202 $311 $419 forward $121 $-1 #
coedge $-1 $202 $418 $420 $421 forward $121 $-1 #
edge $-1 $422 -57.958311716055789 $312 57.958311716055789 $202 $423 forward 7 unknown #
coedge $-1 $204 $203 $424 $425 reversed $77 $-1 #
coedge $-1 $205 $211 $307 $419 reversed $200 $-1 #
vertex $-1 $419 $426 #
straight-curve $-1 57.958311716055789 -12.496572929787103 -4.216678651371077 0 0 1 I I #
coedge $-1 $424 $427 $207 $315 forward $416 $-1 #
edge $-1 $320 -16.611036008342069 $316 -2.7940366170773796 $314 $428 forward 7 unknown #
vertex $-1 $315 $429 #
straight-curve $-1 0 -12.496572929787103 -5.7475900681597079 -1 0 0 I I #
coedge $-1 $430 $209 $427 $431 forward $305 $-1 #
coedge $-1 $209 $430 $211 $322 reversed $305 $-1 #
vertex $-1 $431 $432 #
straight-curve $-1 0 -26.31357232105179 -5.7475900681597079 -1 0 0 I I #
edge $-1 $213 5.7475900681597079 $433 11.1191245373246 $211 $434 forward 7 unknown #
point $-1 57.958311716055789 -12.496572929787103 -5.7475900681597079 #
point $-1 57.958311716055789 -26.31357232105179 -5.7475900681597079 #
face $-1 $-1 $339 $29 $-1 $435 reversed single #
loop $-1 $-1 $331 $215 #
plane-surface $-1 -57.958311716055789 0 0 1 0 0 0 0 -1 forward_v I I I I #
coedge $-1 $436 $437 $218 $330 forward $216 $-1 #
coedge $-1 $219 $218 $226 $344 reversed $81 $-1 #
edge $-1 $438 -57.958311716055789 $333 57.958311716055789 $328 $439 forward 7 unknown #
coedge $-1 $440 $220 $222 $336 forward $326 $-1 #
coedge $-1 $220 $440 $436 $441 reversed $326 $-1 #
vertex $-1 $441 $442 #
vertex $-1 $336 $443 #
straight-curve $-1 -57.958311716055789 12.496572929787103 -4.216678651371077 0 0 1 I I #
edge $-1 $334 2.7940366170773796 $340 16.611036008342069 $331 $444 forward 7 unknown #
coedge $-1 $445 $223 $227 $345 forward $339 $-1 #
coedge $-1 $223 $445 $440 $446 reversed $339 $-1 #
loop $-1 $-1 $223 $325 #
vertex $-1 $446 $447 #
straight-curve $-1 0 26.31357232105179 -5.7475900681597079 1 0 0 I I #
straight-curve $-1 0 12.496572929787103 -5.7475900681597079 1 0 0 I I #
coedge $-1 $227 $226 $437 $448 reversed $129 $-1 #
edge $-1 $229 1.5309114167886309 $438 6.9024458859535232 $226 $449 forward 7 unknown #
edge $-1 $228 5.7475900681597079 $450 11.1191245373246 $227 $451 forward 7 unknown #
point $-1 57.958311716055789 26.31357232105179 -5.7475900681597079 #
point $-1 57.958311716055789 12.496572929787103 -5.7475900681597079 #
loop $-1 $-1 $239 $231 #
plane-surface $-1 0 0 11.1191245373246 0 0 1 1 0 0 forward_v I I I I #
coedge $-1 $351 $234 $236 $355 reversed $137 $-1 #
coedge $-1 $234 $350 $452 $453 reversed $137 $-1 #
coedge $-1 $242 $237 $234 $353 forward $232 $-1 #
edge $-1 $356 -46.728983970812713 $454 -42.538631656676309 $352 $455 forward 7 unknown #
coedge $-1 $236 $235 $359 $456 reversed $85 $-1 #
edge $-1 $457 -8.3807045159925302 $356 1.6303764080091705e-014 $350 $458 forward 7 unknown #
vertex $-1 $238 $459 #
straight-curve $-1 -57.958311716055789 2.5715993710461138 6.9287722231881972 0 -1 0 I I #
coedge $-1 $452 $239 $242 $363 forward $348 $-1 #
coedge $-1 $239 $452 $354 $456 forward $348 $-1 #
vertex $-1 $240 $460 #
straight-curve $-1 -57.958312104303232 8.397831352076313 11.119124537324602 -1 0 0 I I #
straight-curve $-1 -57.958311716055775 8.397831352076313 6.9287722231882043 0.8660253999169214 0 0.50000000669873634 I I #
edge $-1 $243 -8.397831352076313 $454 -1.8885661321081422 $242 $461 forward 7 unknown #
point $-1 -57.958311716055789 8.397831352076313 11.1191245373246 #
point $-1 -57.958311716055789 8.397831352076313 6.9287722231881963 #
edge $-1 $462 1 $462 0 $246 $-1 forward 7 unknown #
vertex $-1 $247 $463 #
ellipse-curve $-1 -53.829360219333061 3.748356194956191 8.1579229803394764 -0.50000000669873634 0 0.8660253999169214 0.4330126999584607 0 0.25000000334936817 1 I I #
point $-1 -53.896347526073335 3.748356194956191 9.2739483836057666 #
edge $-1 $464 1 $464 0 $250 $-1 forward 7 unknown #
vertex $-1 $251 $465 #
ellipse-curve $-1 -53.829360219333061 6.5380412892282642 8.1579229803394764 -0.50000000669873634 0 0.8660253999169214 0.4330126999584607 0 0.25000000334936817 1 I I #
point $-1 -53.896347526073335 6.5380412892282642 9.2739483836057666 #
loop $-1 $-1 $262 $254 #
plane-surface $-1 57.958311716055789 0 0 -1 0 0 0 0 1 forward_v I I I I #
coedge $-1 $377 $257 $259 $381 reversed $159 $-1 #
coedge $-1 $257 $376 $466 $467 reversed $159 $-1 #
coedge $-1 $265 $260 $257 $379 forward $255 $-1 #
edge $-1 $382 4.8813532887213995 $468 11.937583439811547 $378 $469 forward 7 unknown #
coedge $-1 $259 $258 $385 $470 reversed $99 $-1 #
edge $-1 $471 -115.91662343211161 $382 -102.9608309583256 $376 $472 forward 7 unknown #
vertex $-1 $261 $473 #
straight-curve $-1 50.902081564965641 -1.2971261325017061 11.119124537324595 0 -1 0 I I #
coedge $-1 $466 $262 $265 $389 reversed $374 $-1 #
coedge $-1 $262 $466 $380 $470 forward $374 $-1 #
vertex $-1 $263 $474 #
straight-curve $-1 57.958311716055789 0.92833888060395964 80.301030218467176 0 0 1 I I #
straight-curve $-1 -5.1744047834704929 0.92833888060395964 97.46934393740807 0.54463902268945019 0 -0.83867057594974714 I I #
edge $-1 $468 -6.1168434106107838 $266 0.92833888060395964 $384 $475 forward 7 unknown #
point $-1 57.958311716055789 0.92833888060395964 11.1191245373246 #
point $-1 50.902081564965641 0.92833888060395964 11.119124537324595 #
edge $-1 $476 1 $476 0 $269 $-1 forward 7 unknown #
vertex $-1 $270 $477 #
ellipse-curve $-1 53.391885252389955 -4.103934184549427 5.0120162915328317 0.83867057594974714 0 0.54463902268945019 0.54463902268945019 0 -0.83867057594974714 1 I I #
point $-1 54.974835663200182 -4.103934184549427 4.8476329934371121 #
edge $-1 $478 1 $478 0 $273 $-1 forward 7 unknown #
vertex $-1 $274 $479 #
ellipse-curve $-1 53.391885252389955 -1.0845703454573936 5.0120162915328317 0.83867057594974714 0 0.54463902268945019 0.54463902268945019 0 -0.83867057594974714 1 I I #
point $-1 54.974835663200182 -1.0845703454573936 4.8476329934371121 #
plane-surface $-1 57.958311716055789 0 0 -1 0 0 0 0 1 forward_v I I I I #
coedge $-1 $282 $280 $284 $405 reversed $181 $-1 #
edge $-1 $295 -11.1191245373246 $407 11.1191245373246 $294 $480 forward 7 unknown #
vertex $-1 $405 $481 #
straight-curve $-1 -57.958311716055789 -26.31357232105179 0 0 0 -1 I I #
edge $-1 $403 -26.31357232105179 $407 26.31357232105179 $401 $482 forward 7 unknown #
straight-curve $-1 0 -26.31357232105179 -11.1191245373246 -1 0 0 I I #
vertex $-1 $287 $483 #
straight-curve $-1 0 26.31357232105179 -11.1191245373246 1 0 0 I I #
point $-1 57.958311716055789 26.31357232105179 -11.1191245373246 #
point $-1 57.958311716055789 -26.31357232105179 -11.1191245373246 #
straight-curve $-1 -57.958311716055789 0 11.1191245373246 0 -1 0 I I #
point $-1 -57.958311716055789 26.31357232105179 11.1191245373246 #
point $-1 -57.958311716055789 -26.31357232105179 11.1191245373246 #
straight-curve $-1 57.958311716055789 -26.31357232105179 0 0 0 -1 I I #
straight-curve $-1 57.958311716055789 26.31357232105179 0 0 0 -1 I I #
loop $-1 $-1 $424 $304 #
plane-surface $-1 -57.958311716055789 0 0 1 0 0 0 0 -1 forward_v I I I I #
coedge $-1 $308 $307 $430 $484 forward $121 $-1 #
edge $-1 $312 12.496572929787103 $433 26.31357232105179 $311 $485 forward 7 unknown #
coedge $-1 $427 $424 $308 $421 reversed $416 $-1 #
edge $-1 $486 -26.31357232105179 $422 -12.496572929787103 $420 $487 forward 7 unknown #
vertex $-1 $425 $488 #
straight-curve $-1 0 -12.496572929787103 -11.1191245373246 1 0 0 I I #
coedge $-1 $420 $314 $310 $425 forward $416 $-1 #
edge $-1 $316 1.5309114167886309 $422 6.9024458859535232 $424 $489 forward 7 unknown #
point $-1 57.958311716055789 -12.496572929787103 -11.1191245373246 #
coedge $-1 $314 $420 $318 $431 reversed $416 $-1 #
straight-curve $-1 -57.958311716055789 -9.7025363127097233 -5.7475900681597079 0 1 0 I I #
point $-1 -57.958311716055789 -12.496572929787103 -5.7475900681597079 #
coedge $-1 $319 $318 $418 $484 reversed $305 $-1 #
edge $-1 $320 5.7475900681597079 $486 11.1191245373246 $427 $490 forward 7 unknown #
point $-1 -57.958311716055789 -26.31357232105179 -5.7475900681597079 #
vertex $-1 $322 $491 #
straight-curve $-1 57.958311716055789 -26.31357232105179 0 0 0 -1 I I #
plane-surface $-1 0 26.31357232105179 0 0 -1 0 0 0 -1 forward_v I I I I #
coedge $-1 $492 $328 $332 $441 forward $216 $-1 #
coedge $-1 $328 $492 $343 $448 forward $216 $-1 #
vertex $-1 $330 $493 #
straight-curve $-1 0 12.496572929787103 -11.1191245373246 -1 0 0 I I #
coedge $-1 $332 $331 $338 $446 forward $326 $-1 #
edge $-1 $333 12.496572929787103 $494 26.31357232105179 $332 $495 forward 7 unknown #
point $-1 -57.958311716055789 12.496572929787103 -11.1191245373246 #
point $-1 -57.958311716055789 12.496572929787103 -5.7475900681597079 #
straight-curve $-1 -57.958311716055789 9.7025363127097233 -5.7475900681597079 0 1 0 I I #
coedge $-1 $338 $337 $492 $496 reversed $339 $-1 #
edge $-1 $340 5.7475900681597079 $494 11.1191245373246 $338 $497 forward 7 unknown #
point $-1 -57.958311716055789 26.31357232105179 -5.7475900681597079 #
edge $-1 $450 -26.31357232105179 $438 -12.496572929787103 $343 $498 forward 7 unknown #
straight-curve $-1 57.958311716055789 12.496572929787103 -4.216678651371077 0 0 -1 I I #
vertex $-1 $448 $499 #
straight-curve $-1 57.958311716055789 26.31357232105179 0 0 0 -1 I I #
coedge $-1 $359 $358 $351 $453 forward $348 $-1 #
edge $-1 $454 3.8824744308385561e-007 $457 7.2579033682954375 $452 $500 forward 7 unknown #
vertex $-1 $453 $501 #
straight-curve $-1 -57.958311716055789 1.8885661321081422 53.65775619400091 0 0 1 I I #
edge $-1 $457 -0.68303323893797163 $360 5.8262319810301992 $359 $502 forward 7 unknown #
vertex $-1 $456 $503 #
straight-curve $-1 -57.958311716055775 1.8885661321081422 6.9287722231882043 -0.8660253999169214 0 -0.50000000669873634 I I #
point $-1 -57.958311716055789 1.8885661321081422 6.9287722231881963 #
point $-1 -50.700408736007795 8.397831352076313 11.1191245373246 #
straight-curve $-1 -57.958311716055789 0 11.1191245373246 0 -1 0 I I #
vertex $-1 $366 $504 #
point $-1 -53.396347519374601 3.748356194956191 8.4079229836888452 #
vertex $-1 $370 $505 #
point $-1 -53.396347519374601 6.5380412892282642 8.4079229836888452 #
coedge $-1 $385 $384 $377 $467 forward $374 $-1 #
edge $-1 $468 69.181905681142581 $471 80.047547617018097 $466 $506 forward 7 unknown #
vertex $-1 $389 $507 #
straight-curve $-1 46.020728276244242 -6.1168434106107838 11.119124537324595 1 0 0 I I #
edge $-1 $471 -4.8197172781090778 $386 2.2254650131056657 $385 $508 forward 7 unknown #
vertex $-1 $470 $509 #
straight-curve $-1 -5.1744047834704929 -6.1168434106107838 97.46934393740807 -0.54463902268945019 0 0.83867057594974714 I I #
point $-1 50.902081564965641 -6.1168434106107838 11.119124537324595 #
point $-1 57.958311716055789 0.92833888060395964 0.25348260144907897 #
straight-curve $-1 57.958311716055789 0 11.1191245373246 0 1 0 I I #
vertex $-1 $392 $510 #
point $-1 53.936524275079407 -4.103934184549427 4.1733457155830846 #
vertex $-1 $396 $511 #
point $-1 53.936524275079407 -1.0845703454573936 4.1733457155830846 #
straight-curve $-1 -57.958311716055789 26.31357232105179 0 0 0 -1 I I #
point $-1 -57.958311716055789 -26.31357232105179 -11.1191245373246 #
straight-curve $-1 -57.958311716055789 0 -11.1191245373246 0 1 0 I I #
point $-1 -57.958311716055789 26.31357232105179 -11.1191245373246 #
edge $-1 $433 -57.958311716055789 $486 57.958311716055789 $430 $512 forward 7 unknown #
straight-curve $-1 57.958311716055789 0 -11.1191245373246 0 -1 0 I I #
vertex $-1 $421 $513 #
straight-curve $-1 -57.958311716055789 0 -11.1191245373246 0 1 0 I I #
point $-1 -57.958311716055789 -12.496572929787103 -11.1191245373246 #
straight-curve $-1 -57.958311716055789 -12.496572929787103 -4.216678651371077 0 0 -1 I I #
straight-curve $-1 -57.958311716055789 -26.31357232105179 0 0 0 -1 I I #
point $-1 57.958311716055789 -26.31357232105179 -11.1191245373246 #
coedge $-1 $437 $436 $445 $496 forward $216 $-1 #
point $-1 57.958311716055789 12.496572929787103 -11.1191245373246 #
vertex $-1 $496 $514 #
straight-curve $-1 -57.958311716055789 0 -11.1191245373246 0 1 0 I I #
edge $-1 $494 -57.958311716055789 $450 57.958311716055789 $445 $515 forward 7 unknown #
straight-curve $-1 -57.958311716055789 26.31357232105179 0 0 0 -1 I I #
straight-curve $-1 57.958311716055789 0 -11.1191245373246 0 -1 0 I I #
point $-1 57.958311716055789 26.31357232105179 -11.1191245373246 #
straight-curve $-1 -57.958312104303232 1.8885661321081422 11.119124537324602 1 0 0 I I #
point $-1 -57.958311716055789 1.8885661321081422 11.1191245373246 #
straight-curve $-1 -50.700408736007795 2.5715993710461138 11.119124537324602 0 1 0 I I #
point $-1 -50.700408736007795 1.8885661321081422 11.1191245373246 #
point $-1 -53.579360215983691 3.748356194956191 7.7249102803810157 #
point $-1 -53.579360215983691 6.5380412892282642 7.7249102803810157 #
straight-curve $-1 57.958311716055789 -6.1168434106107838 80.301030218467176 0 0 -1 I I #
point $-1 57.958311716055789 -6.1168434106107838 11.1191245373246 #
straight-curve $-1 57.958311716055789 -1.2971261325017061 0.25348260144909318 0 1 0 I I #
point $-1 57.958311716055789 -6.1168434106107838 0.25348260144907897 #
point $-1 52.553214676440206 -4.103934184549427 4.4673772688433813 #
point $-1 52.553214676440206 -1.0845703454573936 4.4673772688433813 #
straight-curve $-1 0 -26.31357232105179 -11.1191245373246 -1 0 0 I I #
point $-1 -57.958311716055789 -26.31357232105179 -11.1191245373246 #
point $-1 -57.958311716055789 26.31357232105179 -11.1191245373246 #
straight-curve $-1 0 26.31357232105179 -11.1191245373246 1 0 0 I I #
End-of-ACIS-data 