500 0 9 0           
7 Unknown 11 ACIS 5.0 NT 24 Fri Mar 26 00:38:42 1999 
-1 9.9999999999999995e-007 1e-010 
body $-1 $9 $-1 $10 #
body $-1 $11 $-1 $12 #
body $-1 $13 $-1 $14 #
body $-1 $15 $-1 $16 #
body $-1 $17 $-1 $18 #
body $-1 $19 $-1 $20 #
body $-1 $21 $-1 $22 #
body $-1 $23 $-1 $24 #
body $-1 $25 $-1 $26 #
lump $-1 $-1 $27 $0 #
transform $-1 1 0 0 0 1 0 0 0 1 70.967741935483872 31.249890477929704 14.620985166144131 1 rotate no_reflect no_shear #
lump $-1 $-1 $28 $1 #
transform $-1 1 0 0 0 1 0 0 0 1 70.967741935483872 31.249890477929704 14.620985166144131 1 rotate no_reflect no_shear #
lump $-1 $-1 $29 $2 #
transform $-1 1 0 0 0 1 0 0 0 1 70.967741935483872 31.249890477929704 14.620985166144131 1 rotate no_reflect no_shear #
lump $-1 $-1 $30 $3 #
transform $-1 1 0 0 0 1 0 0 0 1 70.967741935483872 31.249890477929704 14.620985166144131 1 rotate no_reflect no_shear #
lump $-1 $-1 $31 $4 #
transform $-1 1 0 0 0 1 0 0 0 1 70.967741935483872 31.249890477929704 14.620985166144131 1 rotate no_reflect no_shear #
lump $-1 $-1 $32 $5 #
transform $-1 1 0 0 0 1 0 0 0 1 70.967741935483872 31.249890477929704 14.620985166144131 1 rotate no_reflect no_shear #
lump $-1 $-1 $33 $6 #
transform $-1 1 0 0 0 1 0 0 0 1 70.967741935483872 31.249890477929704 14.620985166144131 1 rotate no_reflect no_shear #
lump $-1 $-1 $34 $7 #
transform $-1 1 0 0 0 1 0 0 0 1 70.967741935483872 31.249890477929704 14.620985166144131 1 rotate no_reflect no_shear #
lump $-1 $-1 $35 $8 #
transform $-1 1 0 0 0 1 0 0 0 1 70.967741935483872 31.249890477929704 14.620985166144131 1 rotate no_reflect no_shear #
shell $-1 $-1 $-1 $36 $-1 $9 #
shell $-1 $-1 $-1 $37 $-1 $11 #
shell $-1 $-1 $-1 $38 $-1 $13 #
shell $-1 $-1 $-1 $39 $-1 $15 #
shell $-1 $-1 $-1 $40 $-1 $17 #
shell $-1 $-1 $-1 $41 $-1 $19 #
shell $-1 $-1 $-1 $42 $-1 $21 #
shell $-1 $-1 $-1 $43 $-1 $23 #
shell $-1 $-1 $-1 $44 $-1 $25 #
face $-1 $45 $46 $27 $-1 $47 forward single #
face $-1 $48 $49 $28 $-1 $50 forward single #
face $-1 $51 $52 $29 $-1 $53 forward single #
face $-1 $54 $55 $30 $-1 $56 reversed single #
face $-1 $57 $58 $31 $-1 $59 forward single #
face $-1 $60 $61 $32 $-1 $62 forward single #
face $-1 $63 $64 $33 $-1 $65 reversed single #
face $-1 $66 $67 $34 $-1 $68 forward single #
face $-1 $69 $70 $35 $-1 $71 forward single #
face $-1 $72 $73 $27 $-1 $74 reversed single #
loop $-1 $-1 $75 $36 #
plane-surface $-1 0 0 14.620985166144131 0 0 1 1 0 0 forward_v I I I I #
face $-1 $76 $77 $28 $-1 $78 reversed single #
loop $-1 $-1 $79 $37 #
plane-surface $-1 0 -31.249890477929704 0 0 1 0 0 0 1 forward_v I I I I #
face $-1 $80 $81 $29 $-1 $82 reversed single #
loop $-1 $-1 $83 $38 #
plane-surface $-1 0 31.249890477929704 0 0 -1 0 0 0 -1 forward_v I I I I #
face $-1 $84 $85 $30 $-1 $86 reversed single #
loop $-1 $-1 $87 $39 #
plane-surface $-1 112.70125272081637 15.459440679617725 196.37263618934088 0 -1 0 -0.83867057594974714 0 -0.54463902268945019 forward_v I I I I #
face $-1 $88 $89 $31 $-1 $90 forward single #
loop $-1 $91 $92 $40 #
cone-surface $-1 65.401787595242524 8.9450738333802349 6.7882040360654798 -0.83867057594974714 0 -0.54463902268945019 0.54463902268945019 0 -0.83867057594974714 1 I I 0 1 1 forward I I I I #
face $-1 $93 $94 $32 $-1 $95 forward single #
loop $-1 $96 $97 $41 #
cone-surface $-1 65.401787595242524 12.853693941122728 6.7882040360654798 -0.83867057594974714 0 -0.54463902268945019 0.54463902268945019 0 -0.83867057594974714 1 I I 0 1 1 forward I I I I #
face $-1 $98 $99 $33 $-1 $100 reversed single #
loop $-1 $-1 $101 $42 #
plane-surface $-1 -190.00485594125445 6.3393270948852383 77.335522183570305 0 1 0 -0.83867057594974714 0 0.54463902268945019 forward_v I I I I #
face $-1 $102 $103 $34 $-1 $104 forward single #
loop $-1 $105 $106 $43 #
cone-surface $-1 -65.401787595242553 8.9450738333802349 6.7882040360654834 0.83867057594974714 0 -0.54463902268945019 0.54463902268945019 0 0.83867057594974714 1 I I 0 1 1 forward I I I I #
face $-1 $107 $108 $35 $-1 $109 forward single #
loop $-1 $110 $111 $44 #
cone-surface $-1 -65.401787595242553 12.853693941122728 6.7882040360654834 0.83867057594974714 0 -0.54463902268945019 0.54463902268945019 0 0.83867057594974714 1 I I 0 1 1 forward I I I I #
face $-1 $112 $113 $27 $-1 $114 reversed single #
loop $-1 $-1 $115 $45 #
plane-surface $-1 0 0 -14.620985166144131 0 0 1 1 0 0 forward_v I I I I #
coedge $-1 $116 $117 $118 $119 forward $46 $-1 #
face $-1 $120 $121 $28 $-1 $122 reversed single #
loop $-1 $-1 $123 $48 #
plane-surface $-1 0 0 -14.620985166144131 0 0 1 1 0 0 forward_v I I I I #
coedge $-1 $124 $125 $126 $127 forward $49 $-1 #
face $-1 $128 $129 $29 $-1 $130 forward single #
loop $-1 $-1 $131 $51 #
plane-surface $-1 -70.967741935483872 0 0 1 0 0 0 0 -1 forward_v I I I I #
coedge $-1 $132 $133 $134 $135 forward $52 $-1 #
face $-1 $136 $137 $30 $-1 $138 reversed single #
loop $-1 $-1 $139 $54 #
plane-surface $-1 -6.3358612849541913 10.899383887251481 119.06903296890279 0.83867057594974714 0 0.54463902268945019 0.54463902268945019 0 -0.83867057594974714 forward_v I I I I #
coedge $-1 $140 $141 $142 $143 reversed $55 $-1 #
face $-1 $-1 $144 $31 $-1 $145 forward single #
loop $-1 $146 $147 $57 #
cone-surface $-1 64.153622999558905 8.9450738333802349 5.9776364961480724 -0.83867057594974714 0 -0.54463902268945019 0.2723195113447251 0 -0.41933528797487357 1 I I -0.70710678118654813 0.70710678118654691 0.5 forward I I I I #
loop $-1 $-1 $148 $40 #
coedge $-1 $92 $92 $149 $150 reversed $58 $-1 #
face $-1 $-1 $151 $32 $-1 $152 forward single #
loop $-1 $153 $154 $60 #
cone-surface $-1 64.153622999558905 12.853693941122728 5.9776364961480724 -0.83867057594974714 0 -0.54463902268945019 0.2723195113447251 0 -0.41933528797487357 1 I I -0.70710678118654813 0.70710678118654691 0.5 forward I I I I #
loop $-1 $-1 $155 $41 #
coedge $-1 $97 $97 $156 $157 reversed $61 $-1 #
face $-1 $158 $159 $33 $-1 $160 reversed single #
loop $-1 $-1 $161 $63 #
plane-surface $-1 -70.967741935483886 10.899383887251481 0.031918963132213207 -0.83867057594974714 0 0.54463902268945019 0.54463902268945019 0 0.83867057594974714 forward_v I I I I #
coedge $-1 $162 $163 $164 $165 reversed $64 $-1 #
face $-1 $-1 $166 $34 $-1 $167 forward single #
loop $-1 $168 $169 $66 #
cone-surface $-1 -64.153622999558934 8.9450738333802349 5.9776364961480759 0.83867057594974714 0 -0.54463902268945019 0.2723195113447251 0 0.41933528797487357 1 I I -0.70710678118654813 0.70710678118654691 0.5 forward I I I I #
loop $-1 $-1 $170 $43 #
coedge $-1 $106 $106 $171 $172 reversed $67 $-1 #
face $-1 $-1 $173 $35 $-1 $174 forward single #
loop $-1 $175 $176 $69 #
cone-surface $-1 -64.153622999558934 12.853693941122728 5.9776364961480759 0.83867057594974714 0 -0.54463902268945019 0.2723195113447251 0 0.41933528797487357 1 I I -0.70710678118654813 0.70710678118654691 0.5 forward I I I I #
loop $-1 $-1 $177 $44 #
coedge $-1 $111 $111 $178 $179 reversed $70 $-1 #
face $-1 $180 $181 $27 $-1 $182 reversed single #
loop $-1 $-1 $183 $72 #
plane-surface $-1 0 -31.249890477929704 0 0 1 0 0 0 1 forward_v I I I I #
coedge $-1 $184 $185 $186 $187 forward $73 $-1 #
coedge $-1 $188 $75 $189 $190 forward $46 $-1 #
coedge $-1 $75 $188 $191 $192 forward $46 $-1 #
coedge $-1 $193 $194 $75 $119 reversed $195 $-1 #
edge $-1 $196 -31.249890477929704 $197 31.249890477929704 $118 $198 forward 7 unknown #
face $-1 $199 $200 $28 $-1 $201 forward single #
loop $-1 $-1 $202 $76 #
plane-surface $-1 70.967741935483872 0 0 -1 0 0 0 0 1 forward_v I I I I #
coedge $-1 $203 $204 $205 $206 forward $77 $-1 #
coedge $-1 $205 $79 $202 $207 reversed $49 $-1 #
coedge $-1 $79 $205 $208 $209 reversed $49 $-1 #
coedge $-1 $210 $211 $79 $127 reversed $200 $-1 #
edge $-1 $212 -70.967741935483872 $213 70.967741935483872 $126 $214 forward 7 unknown #
face $-1 $215 $216 $29 $-1 $217 reversed single #
loop $-1 $-1 $218 $80 #
plane-surface $-1 0 39.145115377085695 -8.0526747977040891 0 0 1 1 0 0 forward_v I I I I #
coedge $-1 $219 $220 $132 $221 forward $81 $-1 #
coedge $-1 $222 $83 $131 $221 reversed $52 $-1 #
coedge $-1 $83 $222 $223 $224 reversed $52 $-1 #
coedge $-1 $218 $225 $83 $135 reversed $129 $-1 #
edge $-1 $226 -70.967741935483872 $227 70.967741935483872 $134 $228 forward 7 unknown #
face $-1 $229 $230 $30 $-1 $231 forward single #
loop $-1 $-1 $232 $84 #
plane-surface $-1 112.70125272081637 6.3393270948852383 196.37263618934088 0 1 0 0.83867057594974714 0 0.54463902268945019 forward_v I I I I #
coedge $-1 $233 $234 $235 $236 reversed $85 $-1 #
coedge $-1 $141 $87 $237 $238 reversed $55 $-1 #
coedge $-1 $87 $140 $233 $239 reversed $55 $-1 #
coedge $-1 $235 $240 $87 $143 forward $230 $-1 #
edge $-1 $241 -14.617115575075687 $242 -5.1428655100105942 $142 $243 forward 7 unknown #
loop $-1 $-1 $149 $88 #
plane-surface $-1 -6.3358612849541913 10.899383887251481 119.06903296890279 0.83867057594974714 0 0.54463902268945019 0.54463902268945019 0 -0.83867057594974714 forward_v I I I I #
loop $-1 $-1 $244 $57 #
coedge $-1 $147 $147 $148 $245 reversed $89 $-1 #
coedge $-1 $148 $148 $147 $245 forward $91 $-1 #
coedge $-1 $149 $149 $92 $150 forward $144 $-1 #
edge $-1 $246 0 $246 6.2831853071796004 $149 $247 forward 7 unknown #
loop $-1 $-1 $156 $93 #
plane-surface $-1 -6.3358612849541913 10.899383887251481 119.06903296890279 0.83867057594974714 0 0.54463902268945019 0.54463902268945019 0 -0.83867057594974714 forward_v I I I I #
loop $-1 $-1 $248 $60 #
coedge $-1 $154 $154 $155 $249 reversed $94 $-1 #
coedge $-1 $155 $155 $154 $249 forward $96 $-1 #
coedge $-1 $156 $156 $97 $157 forward $151 $-1 #
edge $-1 $250 0 $250 6.2831853071796004 $156 $251 forward 7 unknown #
face $-1 $252 $253 $33 $-1 $254 reversed single #
loop $-1 $-1 $255 $98 #
plane-surface $-1 -190.00485594125445 15.459440679617725 77.335522183570305 0 -1 0 0.83867057594974714 0 -0.54463902268945019 forward_v I I I I #
coedge $-1 $256 $257 $258 $259 reversed $99 $-1 #
coedge $-1 $163 $101 $260 $261 reversed $64 $-1 #
coedge $-1 $101 $162 $256 $262 reversed $64 $-1 #
coedge $-1 $258 $263 $101 $165 forward $264 $-1 #
edge $-1 $265 24.034686035143352 $266 33.508936100208466 $164 $267 forward 7 unknown #
loop $-1 $-1 $171 $102 #
plane-surface $-1 -70.967741935483886 10.899383887251481 0.031918963132213207 -0.83867057594974714 0 0.54463902268945019 0.54463902268945019 0 0.83867057594974714 forward_v I I I I #
loop $-1 $-1 $268 $66 #
coedge $-1 $169 $169 $170 $269 reversed $103 $-1 #
coedge $-1 $170 $170 $169 $269 forward $105 $-1 #
coedge $-1 $171 $171 $106 $172 forward $166 $-1 #
edge $-1 $270 0 $270 6.2831853071796004 $171 $271 forward 7 unknown #
loop $-1 $-1 $178 $107 #
plane-surface $-1 -70.967741935483886 10.899383887251481 0.031918963132213207 -0.83867057594974714 0 0.54463902268945019 0.54463902268945019 0 0.83867057594974714 forward_v I I I I #
loop $-1 $-1 $272 $69 #
coedge $-1 $176 $176 $177 $273 reversed $108 $-1 #
coedge $-1 $177 $177 $176 $273 forward $110 $-1 #
coedge $-1 $178 $178 $111 $179 forward $173 $-1 #
edge $-1 $274 0 $274 6.2831853071796004 $178 $275 forward 7 unknown #
face $-1 $276 $277 $27 $-1 $278 reversed single #
loop $-1 $-1 $279 $112 #
plane-surface $-1 -70.967741935483872 0 0 1 0 0 0 0 -1 forward_v I I I I #
coedge $-1 $280 $191 $281 $282 forward $113 $-1 #
coedge $-1 $283 $115 $280 $284 forward $73 $-1 #
coedge $-1 $115 $283 $285 $286 forward $73 $-1 #
coedge $-1 $194 $193 $115 $187 reversed $195 $-1 #
edge $-1 $287 -31.249890477929704 $288 31.249890477929704 $186 $289 forward 7 unknown #
coedge $-1 $117 $116 $290 $291 forward $46 $-1 #
coedge $-1 $292 $293 $116 $190 reversed $277 $-1 #
edge $-1 $197 -70.967741935483872 $294 70.967741935483872 $189 $295 forward 7 unknown #
coedge $-1 $183 $296 $117 $192 reversed $113 $-1 #
edge $-1 $297 -70.967741935483872 $196 70.967741935483872 $191 $298 forward 7 unknown #
coedge $-1 $186 $118 $296 $299 forward $195 $-1 #
coedge $-1 $118 $186 $292 $300 reversed $195 $-1 #
loop $-1 $-1 $193 $276 #
vertex $-1 $119 $301 #
vertex $-1 $119 $302 #
straight-curve $-1 70.967741935483872 0 14.620985166144131 0 1 0 I I #
face $-1 $303 $304 $28 $-1 $305 reversed single #
loop $-1 $-1 $211 $120 #
plane-surface $-1 0 -39.145115377085695 -8.0526747977040891 0 0 1 1 0 0 forward_v I I I I #
coedge $-1 $306 $307 $124 $207 forward $121 $-1 #
coedge $-1 $308 $123 $307 $309 forward $77 $-1 #
coedge $-1 $123 $308 $310 $311 forward $77 $-1 #
coedge $-1 $125 $124 $123 $206 reversed $49 $-1 #
edge $-1 $312 -70.967741935483872 $313 70.967741935483872 $123 $314 forward 7 unknown #
edge $-1 $313 -14.620985166144131 $213 -8.0526747977040891 $202 $315 forward 7 unknown #
coedge $-1 $310 $316 $125 $209 forward $317 $-1 #
edge $-1 $212 8.0526747977040891 $312 14.620985166144131 $208 $318 forward 7 unknown #
coedge $-1 $319 $126 $316 $320 forward $200 $-1 #
coedge $-1 $126 $319 $306 $321 forward $200 $-1 #
vertex $-1 $209 $322 #
vertex $-1 $321 $323 #
straight-curve $-1 0 -31.249890477929704 -8.0526747977040891 1 0 0 I I #
face $-1 $324 $325 $29 $-1 $326 reversed single #
loop $-1 $-1 $327 $128 #
plane-surface $-1 0 47.040340276241686 -11.33682998192411 0 -1 0 0 0 -1 forward_v I I I I #
coedge $-1 $328 $134 $329 $330 forward $129 $-1 #
coedge $-1 $331 $131 $225 $332 reversed $81 $-1 #
coedge $-1 $131 $331 $333 $334 reversed $81 $-1 #
edge $-1 $335 -14.620985166144131 $227 -8.0526747977040891 $131 $336 forward 7 unknown #
coedge $-1 $133 $132 $337 $338 reversed $52 $-1 #
coedge $-1 $339 $329 $133 $224 forward $340 $-1 #
edge $-1 $226 8.0526747977040891 $341 14.620985166144131 $223 $342 forward 7 unknown #
coedge $-1 $134 $328 $219 $332 forward $129 $-1 #
vertex $-1 $224 $343 #
vertex $-1 $332 $344 #
straight-curve $-1 0 31.249890477929704 -8.0526747977040891 -1 0 0 I I #
face $-1 $-1 $345 $30 $-1 $346 reversed single #
loop $-1 $-1 $142 $136 #
plane-surface $-1 0 0 14.620985166144131 0 0 1 1 0 0 forward_v I I I I #
coedge $-1 $347 $348 $349 $350 reversed $137 $-1 #
coedge $-1 $351 $139 $141 $239 forward $85 $-1 #
coedge $-1 $139 $351 $347 $352 forward $85 $-1 #
coedge $-1 $349 $142 $139 $236 forward $230 $-1 #
edge $-1 $242 -10.009748735991984 $353 -0.88963515125949755 $235 $354 forward 7 unknown #
coedge $-1 $355 $356 $140 $238 forward $345 $-1 #
edge $-1 $357 -98.15439913153817 $241 -83.565332928526317 $237 $358 forward 7 unknown #
edge $-1 $242 124.54001701976622 $357 141.93548387096769 $141 $359 forward 7 unknown #
coedge $-1 $142 $349 $355 $360 forward $230 $-1 #
vertex $-1 $238 $361 #
vertex $-1 $143 $362 #
straight-curve $-1 56.350626360408185 15.459440679617725 14.620985166144123 -1 0 0 I I #
coedge $-1 $244 $244 $-1 $363 reversed $146 $-1 #
edge $-1 $364 0 $364 6.2831853071796004 $147 $365 forward 7 unknown #
vertex $-1 $150 $366 #
ellipse-curve $-1 66.230616902951326 8.9450738333802349 7.3264520646381985 0.83867057594974714 0 0.54463902268945019 0.54463902268945019 0 -0.83867057594974714 1 I I #
coedge $-1 $248 $248 $-1 $367 reversed $153 $-1 #
edge $-1 $368 0 $368 6.2831853071796004 $154 $369 forward 7 unknown #
vertex $-1 $157 $370 #
ellipse-curve $-1 66.230616902951326 12.853693941122728 7.3264520646381985 0.83867057594974714 0 0.54463902268945019 0.54463902268945019 0 -0.83867057594974714 1 I I #
face $-1 $-1 $264 $33 $-1 $371 forward single #
loop $-1 $-1 $372 $158 #
plane-surface $-1 -70.967741935483872 0 0 1 0 0 0 0 -1 forward_v I I I I #
coedge $-1 $373 $374 $375 $376 reversed $159 $-1 #
coedge $-1 $377 $161 $163 $262 forward $99 $-1 #
coedge $-1 $161 $377 $373 $378 forward $99 $-1 #
coedge $-1 $375 $164 $161 $259 forward $264 $-1 #
edge $-1 $266 0.88963515125949755 $379 10.009748735991984 $258 $380 forward 7 unknown #
coedge $-1 $381 $382 $162 $261 forward $253 $-1 #
edge $-1 $383 -38.635842128652918 $265 -24.046775925641022 $260 $384 forward 7 unknown #
edge $-1 $266 -17.395466851201526 $383 -2.6094319170815565e-014 $163 $385 forward 7 unknown #
coedge $-1 $164 $375 $381 $386 forward $264 $-1 #
loop $-1 $-1 $375 $252 #
vertex $-1 $261 $387 #
vertex $-1 $165 $388 #
straight-curve $-1 -95.002427970627224 6.3393270948852383 14.620985166144131 1 0 0 I I #
coedge $-1 $268 $268 $-1 $389 reversed $168 $-1 #
edge $-1 $390 0 $390 6.2831853071796004 $169 $391 forward 7 unknown #
vertex $-1 $172 $392 #
ellipse-curve $-1 -66.230616902951326 8.9450738333802349 7.3264520646381772 -0.83867057594974714 0 0.54463902268945019 0.54463902268945019 0 0.83867057594974714 1 I I #
coedge $-1 $272 $272 $-1 $393 reversed $175 $-1 #
edge $-1 $394 0 $394 6.2831853071796004 $176 $395 forward 7 unknown #
vertex $-1 $179 $396 #
ellipse-curve $-1 -66.230616902951326 12.853693941122728 7.3264520646381772 -0.83867057594974714 0 0.54463902268945019 0.54463902268945019 0 0.83867057594974714 1 I I #
face $-1 $-1 $195 $27 $-1 $397 reversed single #
loop $-1 $-1 $292 $180 #
plane-surface $-1 0 31.249890477929704 0 0 -1 0 0 0 -1 forward_v I I I I #
coedge $-1 $398 $290 $293 $399 forward $181 $-1 #
coedge $-1 $296 $183 $184 $284 reversed $113 $-1 #
coedge $-1 $290 $398 $183 $282 reversed $181 $-1 #
edge $-1 $297 -14.620985166144131 $400 14.620985166144131 $281 $401 forward 7 unknown #
coedge $-1 $185 $184 $398 $402 forward $73 $-1 #
edge $-1 $288 -70.967741935483872 $400 70.967741935483872 $280 $403 forward 7 unknown #
coedge $-1 $293 $292 $185 $286 reversed $277 $-1 #
edge $-1 $404 -70.967741935483872 $287 70.967741935483872 $285 $405 forward 7 unknown #
vertex $-1 $187 $406 #
vertex $-1 $299 $407 #
straight-curve $-1 70.967741935483872 0 -14.620985166144131 0 -1 0 I I #
coedge $-1 $279 $281 $188 $291 reversed $181 $-1 #
edge $-1 $294 -31.249890477929704 $297 31.249890477929704 $290 $408 forward 7 unknown #
coedge $-1 $285 $189 $194 $300 forward $277 $-1 #
coedge $-1 $189 $285 $279 $399 reversed $277 $-1 #
vertex $-1 $190 $409 #
straight-curve $-1 0 31.249890477929704 14.620985166144131 -1 0 0 I I #
coedge $-1 $191 $280 $193 $299 reversed $113 $-1 #
vertex $-1 $291 $410 #
straight-curve $-1 0 -31.249890477929704 14.620985166144131 1 0 0 I I #
edge $-1 $196 -14.620985166144131 $288 14.620985166144131 $193 $411 forward 7 unknown #
edge $-1 $197 -14.620985166144131 $287 14.620985166144131 $194 $412 forward 7 unknown #
point $-1 70.967741935483872 -31.249890477929704 14.620985166144131 #
point $-1 70.967741935483872 31.249890477929704 14.620985166144131 #
face $-1 $-1 $317 $28 $-1 $413 reversed single #
loop $-1 $-1 $414 $199 #
plane-surface $-1 0 -47.040340276241686 -11.33682998192411 0 1 0 0 0 1 forward_v I I I I #
coedge $-1 $415 $202 $211 $321 reversed $121 $-1 #
coedge $-1 $202 $415 $203 $309 reversed $121 $-1 #
coedge $-1 $204 $203 $416 $417 forward $77 $-1 #
edge $-1 $313 31.249890477929704 $418 47.040340276241686 $307 $419 forward 7 unknown #
coedge $-1 $420 $208 $204 $311 reversed $317 $-1 #
edge $-1 $421 -47.040340276241686 $312 -31.249890477929704 $310 $422 forward 7 unknown #
vertex $-1 $209 $423 #
vertex $-1 $309 $424 #
straight-curve $-1 0 -31.249890477929704 -14.620985166144131 1 0 0 I I #
straight-curve $-1 70.967741935483872 -31.249890477929704 0 0 0 1 I I #
coedge $-1 $208 $420 $210 $320 reversed $317 $-1 #
loop $-1 $-1 $208 $303 #
straight-curve $-1 -70.967741935483872 -31.249890477929704 0 0 0 -1 I I #
coedge $-1 $211 $210 $425 $426 forward $200 $-1 #
edge $-1 $212 -7.8952248991559877 $427 7.8952248991559912 $316 $428 forward 7 unknown #
edge $-1 $429 -7.8952248991559912 $213 7.8952248991559877 $306 $430 forward 7 unknown #
point $-1 -70.967741935483872 -31.249890477929707 -8.0526747977040891 #
point $-1 70.967741935483872 -31.249890477929707 -8.0526747977040891 #
face $-1 $-1 $340 $29 $-1 $431 reversed single #
loop $-1 $-1 $337 $215 #
plane-surface $-1 0 0 -14.620985166144131 0 0 1 1 0 0 forward_v I I I I #
coedge $-1 $432 $433 $434 $435 forward $216 $-1 #
coedge $-1 $225 $218 $433 $436 forward $129 $-1 #
coedge $-1 $223 $434 $218 $330 reversed $340 $-1 #
edge $-1 $226 -7.8952248991559912 $437 7.8952248991559912 $329 $438 forward 7 unknown #
coedge $-1 $220 $219 $439 $440 forward $81 $-1 #
edge $-1 $441 -7.8952248991559912 $227 7.8952248991559912 $219 $442 forward 7 unknown #
coedge $-1 $443 $337 $220 $334 forward $325 $-1 #
edge $-1 $335 -7.8952248991559912 $444 7.8952248991559912 $220 $445 forward 7 unknown #
vertex $-1 $334 $446 #
straight-curve $-1 -70.967741935483872 31.249890477929704 0 0 0 1 I I #
coedge $-1 $333 $447 $222 $338 forward $325 $-1 #
edge $-1 $341 -70.967741935483872 $335 70.967741935483872 $337 $448 forward 7 unknown #
coedge $-1 $434 $223 $447 $449 reversed $340 $-1 #
loop $-1 $-1 $223 $324 #
vertex $-1 $224 $450 #
straight-curve $-1 70.967741935483872 31.249890477929704 0 0 0 -1 I I #
point $-1 70.967741935483872 31.249890477929704 -8.0526747977040891 #
point $-1 -70.967741935483872 31.249890477929704 -8.0526747977040891 #
loop $-1 $-1 $237 $229 #
plane-surface $-1 70.967741935483872 0 0 -1 0 0 0 0 1 forward_v I I I I #
coedge $-1 $348 $232 $234 $352 reversed $137 $-1 #
coedge $-1 $232 $347 $451 $452 reversed $137 $-1 #
coedge $-1 $240 $235 $232 $350 forward $230 $-1 #
edge $-1 $353 5.1428655100105942 $453 14.617115575075687 $349 $454 forward 7 unknown #
coedge $-1 $234 $233 $356 $455 reversed $85 $-1 #
edge $-1 $456 -141.93548387096769 $353 -124.54001701976622 $347 $457 forward 7 unknown #
vertex $-1 $236 $458 #
straight-curve $-1 61.493491870418779 5.4496919436257407 14.620985166144138 0 -1 0 I I #
coedge $-1 $451 $237 $240 $360 reversed $345 $-1 #
coedge $-1 $237 $451 $351 $455 forward $345 $-1 #
vertex $-1 $238 $459 #
straight-curve $-1 70.967741935483872 15.459440679617725 98.18631809467044 0 0 1 I I #
straight-curve $-1 -6.3358612849541913 15.459440679617725 119.06903296890279 0.54463902268945019 0 -0.83867057594974714 I I #
edge $-1 $453 6.3393270948852383 $241 15.459440679617725 $355 $460 forward 7 unknown #
point $-1 70.967741935483872 15.459440679617725 14.620985166144131 #
point $-1 61.493491870418779 15.459440679617725 14.620985166144138 #
edge $-1 $461 1 $461 0 $244 $-1 forward 7 unknown #
vertex $-1 $245 $462 #
ellipse-curve $-1 64.57295828753378 8.9450738333802349 6.2499560074927967 0.83867057594974714 0 0.54463902268945019 0.54463902268945019 0 -0.83867057594974714 1 I I #
point $-1 66.775255925640735 8.9450738333802349 6.4877814886884169 #
edge $-1 $463 1 $463 0 $248 $-1 forward 7 unknown #
vertex $-1 $249 $464 #
ellipse-curve $-1 64.57295828753378 12.853693941122728 6.2499560074927967 0.83867057594974714 0 0.54463902268945019 0.54463902268945019 0 -0.83867057594974714 1 I I #
point $-1 66.775255925640735 12.853693941122728 6.4877814886884169 #
plane-surface $-1 0 0 14.620985166144131 0 0 1 1 0 0 forward_v I I I I #
coedge $-1 $382 $381 $374 $465 forward $253 $-1 #
coedge $-1 $374 $255 $257 $378 reversed $159 $-1 #
coedge $-1 $255 $373 $372 $465 reversed $159 $-1 #
coedge $-1 $263 $258 $255 $376 forward $264 $-1 #
edge $-1 $379 -33.508936100208466 $466 -24.034686035143352 $375 $467 forward 7 unknown #
coedge $-1 $257 $256 $382 $468 reversed $99 $-1 #
edge $-1 $469 2.6094319170815565e-014 $379 17.395466851201526 $373 $470 forward 7 unknown #
vertex $-1 $259 $471 #
straight-curve $-1 -61.493491870418765 5.4496919436257407 14.620985166144131 0 1 0 I I #
coedge $-1 $372 $260 $263 $386 reversed $253 $-1 #
coedge $-1 $260 $372 $377 $468 forward $253 $-1 #
vertex $-1 $261 $472 #
straight-curve $-1 -70.967741935483872 6.3393270948852383 38.667761091785152 0 0 1 I I #
straight-curve $-1 -70.967741935483886 6.3393270948852383 0.031918963132213207 -0.54463902268945019 0 -0.83867057594974714 I I #
edge $-1 $466 -15.459440679617725 $265 -6.3393270948852383 $381 $473 forward 7 unknown #
point $-1 -70.967741935483872 6.3393270948852383 14.620985166144131 #
point $-1 -61.493491870418758 6.3393270948852383 14.620985166144131 #
edge $-1 $474 1 $474 0 $268 $-1 forward 7 unknown #
vertex $-1 $269 $475 #
ellipse-curve $-1 -64.572958287533808 8.9450738333802349 6.2499560074928002 -0.83867057594974714 0 0.54463902268945019 0.54463902268945019 0 0.83867057594974714 1 I I #
point $-1 -65.685977880261859 8.9450738333802349 8.1651226405879136 #
edge $-1 $476 1 $476 0 $272 $-1 forward 7 unknown #
vertex $-1 $273 $477 #
ellipse-curve $-1 -64.572958287533808 12.853693941122728 6.2499560074928002 -0.83867057594974714 0 0.54463902268945019 0.54463902268945019 0 0.83867057594974714 1 I I #
point $-1 -65.685977880261859 12.853693941122728 8.1651226405879136 #
plane-surface $-1 70.967741935483872 0 0 -1 0 0 0 0 1 forward_v I I I I #
coedge $-1 $281 $279 $283 $402 reversed $181 $-1 #
edge $-1 $294 -14.620985166144131 $404 14.620985166144131 $293 $478 forward 7 unknown #
vertex $-1 $402 $479 #
straight-curve $-1 -70.967741935483872 -31.249890477929704 0 0 0 -1 I I #
edge $-1 $400 -31.249890477929704 $404 31.249890477929704 $398 $480 forward 7 unknown #
straight-curve $-1 0 -31.249890477929704 -14.620985166144131 -1 0 0 I I #
vertex $-1 $286 $481 #
straight-curve $-1 0 31.249890477929704 -14.620985166144131 1 0 0 I I #
point $-1 70.967741935483872 31.249890477929704 -14.620985166144131 #
point $-1 70.967741935483872 -31.249890477929704 -14.620985166144131 #
straight-curve $-1 -70.967741935483872 0 14.620985166144131 0 -1 0 I I #
point $-1 -70.967741935483872 31.249890477929704 14.620985166144131 #
point $-1 -70.967741935483872 -31.249890477929704 14.620985166144131 #
straight-curve $-1 70.967741935483872 -31.249890477929704 0 0 0 -1 I I #
straight-curve $-1 70.967741935483872 31.249890477929704 0 0 0 -1 I I #
plane-surface $-1 -70.967741935483872 0 0 1 0 0 0 0 -1 forward_v I I I I #
coedge $-1 $416 $425 $420 $482 forward $304 $-1 #
coedge $-1 $307 $306 $483 $484 forward $121 $-1 #
coedge $-1 $483 $414 $308 $417 reversed $304 $-1 #
edge $-1 $418 -70.967741935483872 $421 70.967741935483872 $416 $485 forward 7 unknown #
vertex $-1 $484 $486 #
straight-curve $-1 70.967741935483872 0 -14.620985166144131 0 -1 0 I I #
coedge $-1 $316 $310 $414 $482 reversed $317 $-1 #
vertex $-1 $311 $487 #
straight-curve $-1 -70.967741935483872 0 -14.620985166144131 0 1 0 I I #
point $-1 -70.967741935483872 -31.249890477929704 -14.620985166144131 #
point $-1 70.967741935483872 -31.249890477929704 -14.620985166144131 #
coedge $-1 $414 $483 $319 $426 reversed $304 $-1 #
edge $-1 $427 -70.967741935483872 $429 70.967741935483872 $425 $488 forward 7 unknown #
vertex $-1 $320 $489 #
straight-curve $-1 -70.967741935483872 -39.145115377085695 -8.0526747977040891 0 -1 0 I I #
vertex $-1 $321 $490 #
straight-curve $-1 70.967741935483872 -39.145115377085695 -8.0526747977040891 0 1 0 I I #
plane-surface $-1 70.967741935483872 0 0 -1 0 0 0 0 1 forward_v I I I I #
coedge $-1 $439 $327 $443 $491 reversed $216 $-1 #
coedge $-1 $327 $439 $328 $436 reversed $216 $-1 #
coedge $-1 $329 $339 $327 $435 reversed $340 $-1 #
edge $-1 $437 -3.2841551842200207 $492 3.2841551842200207 $434 $493 forward 7 unknown #
edge $-1 $437 -70.967741935483872 $441 70.967741935483872 $433 $494 forward 7 unknown #
vertex $-1 $330 $495 #
straight-curve $-1 70.967741935483872 39.145115377085695 -8.0526747977040891 0 1 0 I I #
coedge $-1 $433 $432 $331 $440 reversed $216 $-1 #
edge $-1 $441 -3.2841551842200207 $444 3.2841551842200207 $439 $496 forward 7 unknown #
vertex $-1 $436 $497 #
straight-curve $-1 -70.967741935483872 39.145115377085695 -8.0526747977040891 0 -1 0 I I #
coedge $-1 $447 $333 $432 $491 forward $325 $-1 #
vertex $-1 $491 $498 #
straight-curve $-1 -70.967741935483872 39.145115377085695 -14.620985166144131 0 1 0 I I #
point $-1 -70.967741935483872 31.249890477929704 -14.620985166144131 #
coedge $-1 $337 $443 $339 $449 forward $325 $-1 #
straight-curve $-1 0 31.249890477929704 -14.620985166144131 -1 0 0 I I #
edge $-1 $492 -47.040340276241686 $341 -31.249890477929704 $339 $499 forward 7 unknown #
point $-1 70.967741935483872 31.249890477929704 -14.620985166144131 #
coedge $-1 $356 $355 $348 $452 forward $345 $-1 #
edge $-1 $453 83.565332928526317 $456 98.15439913153817 $451 $500 forward 7 unknown #
vertex $-1 $360 $501 #
straight-curve $-1 56.350626360408185 6.3393270948852383 14.620985166144123 1 0 0 I I #
edge $-1 $456 0.88963515125949755 $357 10.009748735991984 $356 $502 forward 7 unknown #
vertex $-1 $455 $503 #
straight-curve $-1 -6.3358612849541913 6.3393270948852383 119.06903296890279 -0.54463902268945019 0 0.83867057594974714 I I #
point $-1 61.493491870418779 6.3393270948852383 14.620985166144138 #
point $-1 70.967741935483872 15.459440679617725 0.031918963132270051 #
straight-curve $-1 70.967741935483872 0 14.620985166144131 0 1 0 I I #
vertex $-1 $363 $504 #
point $-1 65.117597310223232 8.9450738333802349 5.4112854315430496 #
vertex $-1 $367 $505 #
point $-1 65.117597310223232 12.853693941122728 5.4112854315430496 #
edge $-1 $466 24.046775925641022 $469 38.635842128652918 $372 $506 forward 7 unknown #
vertex $-1 $386 $507 #
straight-curve $-1 -95.002427970627224 15.459440679617725 14.620985166144131 -1 0 0 I I #
edge $-1 $469 -10.009748735991984 $383 -0.88963515125949755 $382 $508 forward 7 unknown #
vertex $-1 $468 $509 #
straight-curve $-1 -70.967741935483886 15.459440679617725 0.031918963132213207 0.54463902268945019 0 0.83867057594974714 I I #
point $-1 -61.493491870418758 15.459440679617725 14.620985166144131 #
point $-1 -70.967741935483872 6.3393270948852383 0.031918963132235093 #
straight-curve $-1 -70.967741935483872 0 14.620985166144131 0 -1 0 I I #
vertex $-1 $389 $510 #
point $-1 -64.028319264844356 8.9450738333802349 7.0886265834425473 #
vertex $-1 $393 $511 #
point $-1 -64.028319264844356 12.853693941122728 7.0886265834425473 #
straight-curve $-1 -70.967741935483872 31.249890477929704 0 0 0 -1 I I #
point $-1 -70.967741935483872 -31.249890477929704 -14.620985166144131 #
straight-curve $-1 -70.967741935483872 0 -14.620985166144131 0 1 0 I I #
point $-1 -70.967741935483872 31.249890477929704 -14.620985166144131 #
edge $-1 $427 -3.2841551842200207 $421 3.2841551842200207 $420 $512 forward 7 unknown #
coedge $-1 $425 $416 $415 $484 reversed $304 $-1 #
edge $-1 $429 -3.2841551842200207 $418 3.2841551842200207 $415 $513 forward 7 unknown #
straight-curve $-1 0 -47.040340276241686 -14.620985166144131 -1 0 0 I I #
point $-1 70.967741935483872 -47.040340276241686 -14.620985166144131 #
point $-1 -70.967741935483872 -47.040340276241686 -14.620985166144131 #
straight-curve $-1 0 -47.040340276241686 -8.0526747977040891 1 0 0 I I #
point $-1 -70.967741935483872 -47.040340276241686 -8.0526747977040891 #
point $-1 70.967741935483872 -47.040340276241686 -8.0526747977040891 #
edge $-1 $444 -70.967741935483872 $492 70.967741935483872 $432 $514 forward 7 unknown #
vertex $-1 $449 $515 #
straight-curve $-1 70.967741935483872 47.040340276241686 -11.33682998192411 0 0 -1 I I #
straight-curve $-1 0 47.040340276241686 -8.0526747977040891 -1 0 0 I I #
point $-1 70.967741935483872 47.040340276241686 -8.0526747977040891 #
straight-curve $-1 -70.967741935483872 47.040340276241686 -11.33682998192411 0 0 -1 I I #
point $-1 -70.967741935483872 47.040340276241686 -8.0526747977040891 #
point $-1 -70.967741935483872 47.040340276241686 -14.620985166144131 #
straight-curve $-1 70.967741935483872 0 -14.620985166144131 0 -1 0 I I #
straight-curve $-1 70.967741935483872 6.3393270948852383 98.18631809467044 0 0 -1 I I #
point $-1 70.967741935483872 6.3393270948852383 14.620985166144131 #
straight-curve $-1 70.967741935483872 5.4496919436257407 0.031918963132284262 0 1 0 I I #
point $-1 70.967741935483872 6.3393270948852383 0.031918963132270051 #
point $-1 63.734287711584031 8.9450738333802349 5.705316984803348 #
point $-1 63.734287711584031 12.853693941122728 5.705316984803348 #
straight-curve $-1 -70.967741935483872 15.459440679617725 38.667761091785152 0 0 -1 I I #
point $-1 -70.967741935483872 15.459440679617725 14.620985166144131 #
straight-curve $-1 -70.967741935483872 5.4496919436257407 0.031918963132229305 0 -1 0 I I #
point $-1 -70.967741935483872 15.459440679617725 0.031918963132235093 #
point $-1 -63.734287711584059 8.9450738333802349 5.7053169848033516 #
point $-1 -63.734287711584059 12.853693941122728 5.7053169848033516 #
straight-curve $-1 -70.967741935483872 -47.040340276241686 -11.33682998192411 0 0 -1 I I #
straight-curve $-1 70.967741935483872 -47.040340276241686 -11.33682998192411 0 0 -1 I I #
straight-curve $-1 0 47.040340276241686 -14.620985166144131 1 0 0 I I #
point $-1 70.967741935483872 47.040340276241686 -14.620985166144131 #
End-of-ACIS-data 