500 0 8 0           
7 Unknown 11 ACIS 5.0 NT 24 Thu Mar 25 20:50:09 1999 
-1 9.9999999999999995e-007 1e-010 
body $-1 $8 $-1 $9 #
body $-1 $10 $-1 $11 #
body $-1 $12 $-1 $13 #
body $-1 $14 $-1 $15 #
body $-1 $16 $-1 $17 #
body $-1 $18 $-1 $19 #
body $-1 $20 $-1 $21 #
body $-1 $22 $-1 $23 #
lump $-1 $-1 $24 $0 #
transform $-1 1 0 0 0 1 0 0 0 1 57.938779869991151 36.076337105363798 9.3034165025887052 1 rotate no_reflect no_shear #
lump $-1 $-1 $25 $1 #
transform $-1 1 0 0 0 1 0 0 0 1 57.938779869991151 36.076337105363798 9.3034165025887052 1 rotate no_reflect no_shear #
lump $-1 $-1 $26 $2 #
transform $-1 1 0 0 0 1 0 0 0 1 57.938779869991151 36.076337105363798 9.3034165025887052 1 rotate no_reflect no_shear #
lump $-1 $-1 $27 $3 #
transform $-1 1 0 0 0 1 0 0 0 1 57.938779869991151 36.076337105363798 9.3034165025887052 1 rotate no_reflect no_shear #
lump $-1 $-1 $28 $4 #
transform $-1 1 0 0 0 1 0 0 0 1 57.938779869991151 36.076337105363798 9.3034165025887052 1 rotate no_reflect no_shear #
lump $-1 $-1 $29 $5 #
transform $-1 1 0 0 0 1 0 0 0 1 57.938779869991151 36.076337105363798 9.3034165025887052 1 rotate no_reflect no_shear #
lump $-1 $-1 $30 $6 #
transform $-1 1 0 0 0 1 0 0 0 1 57.938779869991151 36.076337105363798 9.3034165025887052 1 rotate no_reflect no_shear #
lump $-1 $-1 $31 $7 #
transform $-1 1 0 0 0 1 0 0 0 1 57.938779869991151 36.076337105363798 9.3034165025887052 1 rotate no_reflect no_shear #
shell $-1 $-1 $-1 $32 $-1 $8 #
shell $-1 $-1 $-1 $33 $-1 $10 #
shell $-1 $-1 $-1 $34 $-1 $12 #
shell $-1 $-1 $-1 $35 $-1 $14 #
shell $-1 $-1 $-1 $36 $-1 $16 #
shell $-1 $-1 $-1 $37 $-1 $18 #
shell $-1 $-1 $-1 $38 $-1 $20 #
shell $-1 $-1 $-1 $39 $-1 $22 #
face $-1 $40 $41 $24 $-1 $42 forward single #
face $-1 $43 $44 $25 $-1 $45 reversed single #
face $-1 $46 $47 $26 $-1 $48 reversed single #
face $-1 $49 $50 $27 $-1 $51 forward single #
face $-1 $52 $53 $28 $-1 $54 reversed single #
face $-1 $55 $56 $29 $-1 $57 forward single #
face $-1 $58 $59 $30 $-1 $60 reversed single #
face $-1 $61 $62 $31 $-1 $63 forward single #
face $-1 $64 $65 $24 $-1 $66 reversed single #
loop $-1 $-1 $67 $32 #
plane-surface $-1 0 0 9.3034165025887052 0 0 1 1 0 0 forward_v I I I I #
face $-1 $68 $69 $25 $-1 $70 reversed single #
loop $-1 $-1 $71 $33 #
plane-surface $-1 -54.186922412355642 -32.463487176202129 0 0 -1 0 0 0 -1 forward_v I I I I #
face $-1 $72 $73 $26 $-1 $74 reversed single #
loop $-1 $-1 $75 $34 #
plane-surface $-1 22.098714713475957 52.927290305776303 139.38586954400043 1 0 0 0 -0.62932039886446345 -0.77714595512881146 forward_v I I I I #
face $-1 $76 $77 $27 $-1 $78 forward single #
loop $-1 $79 $80 $35 #
cone-surface $-1 37.155855960973113 30.715430291289127 4.0950191641394955 0 -0.62932039886446345 -0.77714595512881146 2 0 0 1 I I 0 1 2 forward I I I I #
face $-1 $81 $82 $28 $-1 $83 reversed single #
loop $-1 $-1 $84 $36 #
plane-surface $-1 3.7518574576355128 -97.482089114708984 101.44443998911194 -1 0 0 0 -0.52991927123019833 0.84804809178421925 forward_v I I I I #
face $-1 $85 $86 $29 $-1 $87 forward single #
loop $-1 $88 $89 $37 #
cone-surface $-1 -6.8440035402833459 -30.545964988166801 5.2366531845569675 0 0.52991927123019833 -0.84804809178421925 2 0 0 1 I I 0 1 2 forward I I I I #
face $-1 $90 $91 $30 $-1 $92 reversed single #
loop $-1 $-1 $93 $38 #
plane-surface $-1 47.342918872072303 -36.076337105363791 3.1746965710080843 0 -0.52991927123019833 0.84804809178421925 1 0 0 forward_v I I I I #
face $-1 $94 $95 $31 $-1 $96 forward single #
loop $-1 $97 $98 $39 #
cone-surface $-1 47.342918872072289 -30.545964988166801 5.2366531845569675 0 0.52991927123019833 -0.84804809178421925 2 0 0 1 I I 0 1 2 forward I I I I #
face $-1 $99 $100 $24 $-1 $101 reversed single #
loop $-1 $-1 $102 $40 #
plane-surface $-1 0 0 -9.3034165025887052 0 0 1 1 0 0 forward_v I I I I #
coedge $-1 $103 $104 $105 $106 forward $41 $-1 #
face $-1 $107 $108 $25 $-1 $109 forward single #
loop $-1 $-1 $110 $43 #
plane-surface $-1 -50.435064954720133 -34.269912140782964 0 -1 0 0 0 0 1 forward_v I I I I #
coedge $-1 $111 $112 $113 $114 forward $44 $-1 #
face $-1 $115 $116 $26 $-1 $117 reversed single #
loop $-1 $-1 $118 $46 #
plane-surface $-1 37.155855960973113 -19.996821809230049 49.332092701875979 0 0.62932039886446345 0.77714595512881146 1 0 0 forward_v I I I I #
coedge $-1 $119 $120 $121 $122 reversed $47 $-1 #
face $-1 $-1 $123 $27 $-1 $124 forward single #
loop $-1 $125 $126 $49 #
cone-surface $-1 37.155855960973113 28.046133834629082 0.79871262763424333 0 -0.62932039886446345 -0.77714595512881146 1 0 0 1 I I -0.70710678118654735 0.70710678118654768 1 forward I I I I #
loop $-1 $-1 $127 $35 #
coedge $-1 $80 $80 $128 $129 reversed $50 $-1 #
face $-1 $130 $131 $28 $-1 $132 reversed single #
loop $-1 $-1 $133 $52 #
plane-surface $-1 -6.8440035402833388 -36.076337105363791 3.1746965710080843 0 -0.52991927123019833 0.84804809178421925 1 0 0 forward_v I I I I #
coedge $-1 $134 $135 $136 $137 reversed $53 $-1 #
face $-1 $-1 $138 $29 $-1 $139 forward single #
loop $-1 $140 $141 $55 #
cone-surface $-1 -6.8440035402833459 -29.389674572369909 3.3862017405313285 0 0.52991927123019833 -0.84804809178421925 1 0 0 1 I I -0.70710678118654746 0.70710678118654746 1 forward I I I I #
loop $-1 $-1 $142 $37 #
coedge $-1 $89 $89 $143 $144 reversed $56 $-1 #
face $-1 $145 $146 $30 $-1 $147 reversed single #
loop $-1 $-1 $148 $58 #
plane-surface $-1 36.747057874153455 -97.482089114708984 101.44443998911194 1 0 0 0 0.52991927123019833 -0.84804809178421925 forward_v I I I I #
coedge $-1 $149 $150 $151 $152 reversed $59 $-1 #
face $-1 $-1 $153 $31 $-1 $154 forward single #
loop $-1 $155 $156 $61 #
cone-surface $-1 47.342918872072289 -29.389674572369909 3.3862017405313285 0 0.52991927123019833 -0.84804809178421925 1 0 0 1 I I -0.70710678118654746 0.70710678118654746 1 forward I I I I #
loop $-1 $-1 $157 $39 #
coedge $-1 $98 $98 $158 $159 reversed $62 $-1 #
face $-1 $160 $161 $24 $-1 $162 reversed single #
loop $-1 $-1 $163 $64 #
plane-surface $-1 0 -36.076337105363798 0 0 1 0 0 0 1 forward_v I I I I #
coedge $-1 $164 $165 $166 $167 forward $65 $-1 #
coedge $-1 $168 $67 $169 $170 forward $41 $-1 #
coedge $-1 $67 $168 $171 $172 forward $41 $-1 #
coedge $-1 $173 $174 $67 $106 reversed $175 $-1 #
edge $-1 $176 -36.076337105363798 $177 36.076337105363798 $105 $178 forward 7 unknown #
face $-1 $179 $180 $25 $-1 $181 reversed single #
loop $-1 $-1 $182 $68 #
plane-surface $-1 0 0 9.3034165025887052 0 0 1 1 0 0 forward_v I I I I #
coedge $-1 $183 $184 $185 $186 reversed $69 $-1 #
coedge $-1 $187 $71 $188 $189 reversed $44 $-1 #
coedge $-1 $71 $187 $190 $191 reversed $44 $-1 #
coedge $-1 $184 $183 $71 $114 reversed $69 $-1 #
edge $-1 $192 -9.3034165025887052 $193 9.3034165025887052 $113 $194 forward 7 unknown #
face $-1 $195 $196 $26 $-1 $197 reversed single #
loop $-1 $-1 $198 $72 #
plane-surface $-1 52.21299720847027 52.927290305776303 139.38586954400043 -1 0 0 0 0.62932039886446345 0.77714595512881146 forward_v I I I I #
coedge $-1 $199 $200 $201 $202 reversed $73 $-1 #
coedge $-1 $120 $75 $203 $204 reversed $47 $-1 #
coedge $-1 $75 $119 $199 $205 reversed $47 $-1 #
coedge $-1 $201 $206 $75 $122 forward $207 $-1 #
edge $-1 $208 -9.6126919524756467 $209 -2.9708304399175169 $121 $210 forward 7 unknown #
loop $-1 $-1 $128 $76 #
plane-surface $-1 37.155855960973113 -19.996821809230049 49.332092701875979 0 0.62932039886446345 0.77714595512881146 1 0 0 forward_v I I I I #
loop $-1 $-1 $211 $49 #
coedge $-1 $126 $126 $127 $212 reversed $77 $-1 #
coedge $-1 $127 $127 $126 $212 forward $79 $-1 #
coedge $-1 $128 $128 $80 $129 forward $123 $-1 #
edge $-1 $213 -4.5764803275294441e-016 $213 6.2831853071795996 $128 $214 forward 7 unknown #
face $-1 $215 $216 $28 $-1 $217 forward single #
loop $-1 $-1 $218 $81 #
plane-surface $-1 -17.43986453820219 -97.482089114708984 101.44443998911194 1 0 0 0 0.52991927123019833 -0.84804809178421925 forward_v I I I I #
coedge $-1 $219 $220 $221 $222 reversed $82 $-1 #
coedge $-1 $135 $84 $223 $224 reversed $53 $-1 #
coedge $-1 $84 $134 $219 $225 reversed $53 $-1 #
coedge $-1 $221 $226 $84 $137 forward $216 $-1 #
edge $-1 $227 12.664707451990694 $228 22.472709397251286 $136 $229 forward 7 unknown #
loop $-1 $-1 $143 $85 #
plane-surface $-1 -6.8440035402833388 -36.076337105363791 3.1746965710080843 0 -0.52991927123019833 0.84804809178421925 1 0 0 forward_v I I I I #
loop $-1 $-1 $230 $55 #
coedge $-1 $141 $141 $142 $231 reversed $86 $-1 #
coedge $-1 $142 $142 $141 $231 forward $88 $-1 #
coedge $-1 $143 $143 $89 $144 forward $138 $-1 #
edge $-1 $232 8.9488918195800028e-016 $232 6.2831853071796013 $143 $233 forward 7 unknown #
face $-1 $234 $235 $30 $-1 $236 forward single #
loop $-1 $-1 $237 $90 #
plane-surface $-1 0 -36.076337105363798 0 0 1 0 0 0 1 forward_v I I I I #
coedge $-1 $238 $239 $240 $241 reversed $91 $-1 #
coedge $-1 $242 $93 $243 $244 reversed $59 $-1 #
coedge $-1 $93 $242 $238 $245 forward $59 $-1 #
coedge $-1 $240 $246 $93 $152 forward $235 $-1 #
edge $-1 $247 -34.267320433955 $248 -13.075598438117304 $151 $249 forward 7 unknown #
loop $-1 $-1 $158 $94 #
plane-surface $-1 47.342918872072303 -36.076337105363791 3.1746965710080843 0 -0.52991927123019833 0.84804809178421925 1 0 0 forward_v I I I I #
loop $-1 $-1 $250 $61 #
coedge $-1 $156 $156 $157 $251 reversed $95 $-1 #
coedge $-1 $157 $157 $156 $251 forward $97 $-1 #
coedge $-1 $158 $158 $98 $159 forward $153 $-1 #
edge $-1 $252 8.9488918195800028e-016 $252 6.2831853071796013 $158 $253 forward 7 unknown #
face $-1 $254 $255 $24 $-1 $256 reversed single #
loop $-1 $-1 $257 $99 #
plane-surface $-1 -57.938779869991151 0 0 1 0 0 0 0 -1 forward_v I I I I #
coedge $-1 $258 $171 $259 $260 forward $100 $-1 #
coedge $-1 $261 $102 $258 $262 forward $65 $-1 #
coedge $-1 $102 $261 $263 $264 forward $65 $-1 #
coedge $-1 $174 $173 $102 $167 reversed $175 $-1 #
edge $-1 $265 -36.076337105363798 $266 36.076337105363798 $166 $267 forward 7 unknown #
coedge $-1 $104 $103 $268 $269 forward $41 $-1 #
coedge $-1 $270 $271 $103 $170 reversed $255 $-1 #
edge $-1 $177 -57.938779869991151 $272 57.938779869991151 $169 $273 forward 7 unknown #
coedge $-1 $163 $274 $104 $172 reversed $100 $-1 #
edge $-1 $275 -57.938779869991151 $176 57.938779869991151 $171 $276 forward 7 unknown #
coedge $-1 $166 $105 $274 $277 forward $175 $-1 #
coedge $-1 $105 $166 $270 $278 reversed $175 $-1 #
loop $-1 $-1 $173 $254 #
vertex $-1 $106 $279 #
vertex $-1 $106 $280 #
straight-curve $-1 57.938779869991151 0 9.3034165025887052 0 1 0 I I #
face $-1 $281 $282 $25 $-1 $283 reversed single #
loop $-1 $-1 $284 $107 #
plane-surface $-1 -57.938779869991151 0 0 1 0 0 0 0 -1 forward_v I I I I #
coedge $-1 $190 $285 $184 $286 forward $108 $-1 #
coedge $-1 $113 $110 $287 $288 reversed $69 $-1 #
coedge $-1 $110 $113 $182 $286 reversed $69 $-1 #
coedge $-1 $289 $290 $110 $186 forward $291 $-1 #
edge $-1 $292 -9.3034165025887052 $293 9.3034165025887052 $185 $294 forward 7 unknown #
coedge $-1 $112 $111 $284 $295 reversed $44 $-1 #
coedge $-1 $287 $296 $111 $189 forward $282 $-1 #
edge $-1 $297 -30.84531866381333 $193 -23.341603748542312 $188 $298 forward 7 unknown #
coedge $-1 $299 $182 $112 $191 forward $108 $-1 #
edge $-1 $192 23.341603748542312 $300 30.84531866381333 $190 $301 forward 7 unknown #
vertex $-1 $191 $302 #
vertex $-1 $189 $303 #
straight-curve $-1 -50.435064954720133 -32.463487176202129 0 0 0 -1 I I #
face $-1 $-1 $207 $26 $-1 $304 forward single #
loop $-1 $-1 $305 $115 #
plane-surface $-1 0 36.076337105363798 0 0 -1 0 0 0 -1 forward_v I I I I #
coedge $-1 $306 $307 $308 $309 reversed $116 $-1 #
coedge $-1 $310 $118 $120 $205 forward $73 $-1 #
coedge $-1 $118 $310 $306 $311 forward $73 $-1 #
coedge $-1 $308 $121 $118 $202 forward $207 $-1 #
edge $-1 $209 3.5207867329894 $312 33.635069227983713 $201 $313 forward 7 unknown #
coedge $-1 $314 $315 $119 $204 forward $196 $-1 #
edge $-1 $316 -65.767991783556994 $208 -60.389518269411511 $203 $317 forward 7 unknown #
edge $-1 $209 63.606195304513307 $316 72.152674210727582 $120 $318 forward 7 unknown #
coedge $-1 $121 $308 $314 $319 forward $207 $-1 #
loop $-1 $-1 $308 $195 #
vertex $-1 $204 $320 #
vertex $-1 $122 $321 #
straight-curve $-1 22.098714713475957 26.463645152888152 9.3034165025887035 0 -1 0 I I #
coedge $-1 $211 $211 $-1 $322 reversed $125 $-1 #
edge $-1 $323 0 $323 6.2831853071796004 $126 $324 forward 7 unknown #
vertex $-1 $129 $325 #
ellipse-curve $-1 37.155855960973113 32.75540634908473 6.6141797455159619 0 0.62932039886446345 0.77714595512881146 2 0 0 1 I I #
face $-1 $-1 $326 $28 $-1 $327 reversed single #
loop $-1 $-1 $136 $130 #
plane-surface $-1 0 0 9.3034165025887052 0 0 1 1 0 0 forward_v I I I I #
coedge $-1 $328 $329 $330 $331 reversed $131 $-1 #
coedge $-1 $332 $133 $135 $225 forward $82 $-1 #
coedge $-1 $133 $332 $328 $333 forward $82 $-1 #
coedge $-1 $330 $136 $133 $222 forward $216 $-1 #
edge $-1 $228 -7.1738592277771822 $334 14.017862768060521 $221 $335 forward 7 unknown #
coedge $-1 $336 $337 $134 $224 forward $326 $-1 #
edge $-1 $338 -47.547523423547894 $227 -41.418803491967267 $223 $339 forward 7 unknown #
edge $-1 $228 -11.565384133611344 $338 8.3790584163743152e-015 $135 $340 forward 7 unknown #
coedge $-1 $136 $330 $336 $341 forward $216 $-1 #
vertex $-1 $137 $342 #
vertex $-1 $137 $343 #
straight-curve $-1 3.7518574576355128 -48.741044557354492 9.3034165025887035 0 1 0 I I #
coedge $-1 $230 $230 $-1 $344 reversed $140 $-1 #
edge $-1 $345 0 $345 6.2831853071796004 $141 $346 forward 7 unknown #
vertex $-1 $144 $347 #
ellipse-curve $-1 -6.8440035402833459 -31.172336132733498 6.2390565367983948 0 -0.52991927123019833 0.84804809178421925 2 0 0 1 I I #
face $-1 $-1 $348 $30 $-1 $349 reversed single #
loop $-1 $-1 $240 $145 #
plane-surface $-1 0 0 9.3034165025887052 0 0 1 1 0 0 forward_v I I I I #
coedge $-1 $350 $351 $239 $352 forward $146 $-1 #
coedge $-1 $239 $148 $150 $245 reversed $91 $-1 #
coedge $-1 $148 $238 $237 $352 reversed $91 $-1 #
coedge $-1 $353 $151 $148 $241 forward $235 $-1 #
edge $-1 $248 -22.472709397251286 $354 -12.664707451990694 $240 $355 forward 7 unknown #
coedge $-1 $150 $149 $350 $356 reversed $59 $-1 #
coedge $-1 $357 $358 $149 $244 forward $348 $-1 #
edge $-1 $359 -14.456067973741195 $247 -2.8906838401298436 $243 $360 forward 7 unknown #
edge $-1 $361 -8.3790584163743152e-015 $248 11.565384133611344 $238 $362 forward 7 unknown #
coedge $-1 $151 $353 $357 $363 forward $235 $-1 #
vertex $-1 $244 $364 #
vertex $-1 $152 $365 #
straight-curve $-1 23.671459436036152 -26.268335160103209 9.3034165025887052 -1 0 0 I I #
coedge $-1 $250 $250 $-1 $366 reversed $155 $-1 #
edge $-1 $367 0 $367 6.2831853071796004 $156 $368 forward 7 unknown #
vertex $-1 $159 $369 #
ellipse-curve $-1 47.342918872072289 -31.172336132733498 6.2390565367983948 0 -0.52991927123019833 0.84804809178421925 2 0 0 1 I I #
face $-1 $-1 $175 $24 $-1 $370 reversed single #
loop $-1 $-1 $270 $160 #
plane-surface $-1 0 36.076337105363798 0 0 -1 0 0 0 -1 forward_v I I I I #
coedge $-1 $371 $268 $271 $372 forward $161 $-1 #
coedge $-1 $274 $163 $164 $262 reversed $100 $-1 #
coedge $-1 $268 $371 $163 $260 reversed $161 $-1 #
edge $-1 $275 -9.3034165025887052 $373 9.3034165025887052 $259 $374 forward 7 unknown #
coedge $-1 $165 $164 $371 $375 forward $65 $-1 #
edge $-1 $266 -57.938779869991151 $373 57.938779869991151 $258 $376 forward 7 unknown #
coedge $-1 $271 $270 $165 $264 reversed $255 $-1 #
edge $-1 $377 -57.938779869991151 $265 57.938779869991151 $263 $378 forward 7 unknown #
vertex $-1 $167 $379 #
vertex $-1 $277 $380 #
straight-curve $-1 57.938779869991151 0 -9.3034165025887052 0 -1 0 I I #
coedge $-1 $257 $259 $168 $269 reversed $161 $-1 #
edge $-1 $272 -36.076337105363798 $275 36.076337105363798 $268 $381 forward 7 unknown #
coedge $-1 $263 $169 $174 $278 forward $255 $-1 #
coedge $-1 $169 $263 $257 $372 reversed $255 $-1 #
vertex $-1 $170 $382 #
straight-curve $-1 0 36.076337105363798 9.3034165025887052 -1 0 0 I I #
coedge $-1 $171 $258 $173 $277 reversed $100 $-1 #
vertex $-1 $269 $383 #
straight-curve $-1 0 -36.076337105363798 9.3034165025887052 1 0 0 I I #
edge $-1 $176 -9.3034165025887052 $266 9.3034165025887052 $173 $384 forward 7 unknown #
edge $-1 $177 -9.3034165025887052 $265 9.3034165025887052 $174 $385 forward 7 unknown #
point $-1 57.938779869991151 -36.076337105363798 9.3034165025887052 #
point $-1 57.938779869991151 36.076337105363798 9.3034165025887052 #
face $-1 $-1 $291 $25 $-1 $386 reversed single #
loop $-1 $-1 $287 $179 #
plane-surface $-1 0 0 -9.3034165025887052 0 0 1 1 0 0 forward_v I I I I #
coedge $-1 $387 $388 $187 $295 forward $180 $-1 #
coedge $-1 $182 $299 $289 $389 forward $108 $-1 #
edge $-1 $293 -18.941381034972316 $192 -15.328531105810647 $182 $390 forward 7 unknown #
coedge $-1 $391 $188 $183 $288 forward $282 $-1 #
edge $-1 $193 15.328531105810647 $292 18.941381034972316 $287 $392 forward 7 unknown #
coedge $-1 $393 $185 $285 $389 reversed $291 $-1 #
coedge $-1 $185 $393 $391 $394 reversed $291 $-1 #
loop $-1 $-1 $185 $281 #
vertex $-1 $394 $395 #
vertex $-1 $186 $396 #
straight-curve $-1 -50.435064954720133 -36.076337105363798 0 0 0 1 I I #
edge $-1 $300 -9.3034165025887052 $297 9.3034165025887052 $284 $397 forward 7 unknown #
coedge $-1 $188 $391 $387 $398 forward $282 $-1 #
vertex $-1 $189 $399 #
straight-curve $-1 -27.093461206177821 -32.463487176202129 -9.3034165025887052 1 0 0 I I #
coedge $-1 $285 $190 $388 $400 forward $108 $-1 #
vertex $-1 $400 $401 #
straight-curve $-1 -27.093461206177821 -32.463487176202129 9.3034165025887052 -1 0 0 I I #
point $-1 -50.435064954720133 -32.463487176202129 9.3034165025887052 #
point $-1 -50.435064954720133 -32.463487176202129 -9.3034165025887052 #
plane-surface $-1 0 0 9.3034165025887052 0 0 1 1 0 0 forward_v I I I I #
coedge $-1 $315 $314 $307 $402 forward $196 $-1 #
coedge $-1 $307 $198 $200 $311 reversed $116 $-1 #
coedge $-1 $198 $306 $305 $402 reversed $116 $-1 #
coedge $-1 $206 $201 $198 $309 forward $207 $-1 #
edge $-1 $312 2.9708304399175169 $403 9.6126919524756467 $308 $404 forward 7 unknown #
coedge $-1 $200 $199 $315 $405 reversed $73 $-1 #
edge $-1 $406 -72.152674210727582 $312 -63.606195304513307 $306 $407 forward 7 unknown #
vertex $-1 $202 $408 #
straight-curve $-1 18.577927980486557 29.434475592805668 9.3034165025887035 1 0 0 I I #
coedge $-1 $305 $203 $206 $319 reversed $196 $-1 #
coedge $-1 $203 $305 $310 $405 forward $196 $-1 #
vertex $-1 $204 $409 #
straight-curve $-1 22.098714713475957 36.076337105363798 69.692934772000214 0 0 1 I I #
straight-curve $-1 22.098714713475957 -19.996821809230049 49.332092701875979 0 0.77714595512881146 -0.62932039886446345 I I #
edge $-1 $403 -52.21299720847027 $208 -22.098714713475957 $314 $410 forward 7 unknown #
point $-1 22.098714713475957 36.076337105363798 9.3034165025887052 #
point $-1 22.098714713475957 29.434475592805668 9.3034165025887035 #
edge $-1 $411 1 $411 0 $211 $-1 forward 7 unknown #
vertex $-1 $212 $412 #
ellipse-curve $-1 37.155855960973113 28.675454233493546 1.5758585827630551 0 0.62932039886446345 0.77714595512881146 2 0 0 1 I I #
point $-1 39.155855960973113 32.755406349084708 6.614179745515937 #
loop $-1 $-1 $223 $215 #
plane-surface $-1 0 -36.076337105363798 0 0 1 0 0 0 1 forward_v I I I I #
coedge $-1 $329 $218 $220 $333 reversed $131 $-1 #
coedge $-1 $218 $328 $413 $414 reversed $131 $-1 #
coedge $-1 $226 $221 $218 $331 forward $216 $-1 #
edge $-1 $334 -22.472709397251286 $415 -12.664707451990694 $330 $416 forward 7 unknown #
coedge $-1 $220 $219 $337 $417 reversed $82 $-1 #
edge $-1 $418 -8.3790584163743152e-015 $334 11.565384133611344 $328 $419 forward 7 unknown #
vertex $-1 $222 $420 #
straight-curve $-1 -3.4220017701416694 -26.268335160103209 9.3034165025887052 -1 0 0 I I #
coedge $-1 $413 $223 $226 $341 reversed $326 $-1 #
coedge $-1 $223 $413 $332 $417 forward $326 $-1 #
vertex $-1 $224 $421 #
straight-curve $-1 3.7518574576355128 -36.076337105363798 50.722219994555971 0 0 1 I I #
straight-curve $-1 3.7518574576355128 -36.076337105363791 3.1746965710080843 0 -0.84804809178421925 -0.52991927123019833 I I #
edge $-1 $415 -17.43986453820219 $227 3.7518574576355128 $336 $422 forward 7 unknown #
point $-1 3.7518574576355128 -36.076337105363798 9.3034165025887052 #
point $-1 3.7518574576355128 -26.268335160103206 9.3034165025887052 #
edge $-1 $423 1 $423 0 $230 $-1 forward 7 unknown #
vertex $-1 $231 $424 #
ellipse-curve $-1 -6.8440035402833459 -29.919593843600108 4.2342498323155482 0 -0.52991927123019833 0.84804809178421925 2 0 0 1 I I #
point $-1 -4.8440035402833459 -31.172336132733491 6.2390565367983868 #
loop $-1 $-1 $243 $234 #
plane-surface $-1 57.938779869991151 0 0 -1 0 0 0 0 1 forward_v I I I I #
coedge $-1 $425 $237 $242 $356 forward $146 $-1 #
coedge $-1 $237 $425 $353 $426 reversed $146 $-1 #
edge $-1 $354 41.418803491967267 $361 47.547523423547894 $237 $427 forward 7 unknown #
coedge $-1 $246 $240 $351 $426 forward $235 $-1 #
vertex $-1 $426 $428 #
straight-curve $-1 36.747057874153455 -48.741044557354492 9.3034165025887035 0 -1 0 I I #
edge $-1 $361 13.075598438117304 $359 34.267320433955 $350 $429 forward 7 unknown #
coedge $-1 $358 $243 $246 $363 reversed $348 $-1 #
coedge $-1 $243 $357 $425 $430 forward $348 $-1 #
vertex $-1 $356 $431 #
straight-curve $-1 57.938779869991151 -23.816896245529612 10.835245576507223 0 0.84804809178421925 0.52991927123019833 I I #
vertex $-1 $356 $432 #
straight-curve $-1 36.747057874153455 -36.076337105363791 3.1746965710080843 0 0.84804809178421925 0.52991927123019833 I I #
edge $-1 $433 -36.076337105363798 $247 -26.268335160103206 $357 $434 forward 7 unknown #
point $-1 57.938779869991151 -26.268335160103206 9.3034165025887052 #
point $-1 36.747057874153455 -26.268335160103206 9.3034165025887052 #
edge $-1 $435 1 $435 0 $250 $-1 forward 7 unknown #
vertex $-1 $251 $436 #
ellipse-curve $-1 47.342918872072289 -29.919593843600108 4.2342498323155482 0 -0.52991927123019833 0.84804809178421925 2 0 0 1 I I #
point $-1 49.342918872072289 -31.172336132733491 6.2390565367983868 #
plane-surface $-1 57.938779869991151 0 0 -1 0 0 0 0 1 forward_v I I I I #
coedge $-1 $259 $257 $261 $375 reversed $161 $-1 #
edge $-1 $272 -9.3034165025887052 $377 9.3034165025887052 $271 $437 forward 7 unknown #
vertex $-1 $375 $438 #
straight-curve $-1 -57.938779869991151 -36.076337105363798 0 0 0 -1 I I #
edge $-1 $373 -36.076337105363798 $377 36.076337105363798 $371 $439 forward 7 unknown #
straight-curve $-1 0 -36.076337105363798 -9.3034165025887052 -1 0 0 I I #
vertex $-1 $264 $440 #
straight-curve $-1 0 36.076337105363798 -9.3034165025887052 1 0 0 I I #
point $-1 57.938779869991151 36.076337105363798 -9.3034165025887052 #
point $-1 57.938779869991151 -36.076337105363798 -9.3034165025887052 #
straight-curve $-1 -57.938779869991151 0 9.3034165025887052 0 -1 0 I I #
point $-1 -57.938779869991151 36.076337105363798 9.3034165025887052 #
point $-1 -57.938779869991151 -36.076337105363798 9.3034165025887052 #
straight-curve $-1 57.938779869991151 -36.076337105363798 0 0 0 -1 I I #
straight-curve $-1 57.938779869991151 36.076337105363798 0 0 0 -1 I I #
plane-surface $-1 0 -36.076337105363798 0 0 1 0 0 0 1 forward_v I I I I #
coedge $-1 $441 $284 $296 $398 reversed $180 $-1 #
coedge $-1 $284 $441 $299 $400 reversed $180 $-1 #
edge $-1 $442 -57.938779869991151 $293 -50.435064954720133 $289 $443 forward 7 unknown #
straight-curve $-1 -50.435064954720133 -17.134956070391482 9.3034165025887052 0 1 0 I I #
coedge $-1 $296 $287 $290 $394 forward $282 $-1 #
straight-curve $-1 -50.435064954720133 -17.134956070391482 -9.3034165025887052 0 -1 0 I I #
coedge $-1 $290 $289 $441 $444 forward $291 $-1 #
edge $-1 $292 50.435064954720133 $445 57.938779869991151 $290 $446 forward 7 unknown #
point $-1 -50.435064954720133 -36.076337105363798 -9.3034165025887052 #
point $-1 -50.435064954720133 -36.076337105363798 9.3034165025887052 #
straight-curve $-1 -57.938779869991151 -32.463487176202129 0 0 0 -1 I I #
edge $-1 $445 -36.076337105363798 $297 -32.463487176202129 $387 $447 forward 7 unknown #
point $-1 -57.938779869991151 -32.463487176202129 -9.3034165025887052 #
edge $-1 $300 32.463487176202129 $442 36.076337105363798 $388 $448 forward 7 unknown #
point $-1 -57.938779869991151 -32.463487176202129 9.3034165025887052 #
edge $-1 $403 60.389518269411511 $406 65.767991783556994 $305 $449 forward 7 unknown #
vertex $-1 $319 $450 #
straight-curve $-1 52.21299720847027 26.463645152888152 9.3034165025887035 0 1 0 I I #
edge $-1 $406 -33.635069227983713 $316 -3.5207867329894 $315 $451 forward 7 unknown #
vertex $-1 $405 $452 #
straight-curve $-1 52.21299720847027 -19.996821809230049 49.332092701875979 0 -0.77714595512881146 0.62932039886446345 I I #
point $-1 52.21299720847027 29.434475592805668 9.3034165025887035 #
point $-1 22.098714713475957 36.076337105363798 3.9249429884432132 #
straight-curve $-1 0 36.076337105363798 9.3034165025887052 -1 0 0 I I #
vertex $-1 $322 $453 #
point $-1 39.155855960973113 28.675454233493546 1.5758585827630551 #
coedge $-1 $337 $336 $329 $414 forward $326 $-1 #
edge $-1 $415 41.418803491967267 $418 47.547523423547894 $413 $454 forward 7 unknown #
vertex $-1 $341 $455 #
straight-curve $-1 -17.43986453820219 -48.741044557354492 9.3034165025887035 0 -1 0 I I #
edge $-1 $418 -14.017862768060521 $338 7.1738592277771822 $337 $456 forward 7 unknown #
vertex $-1 $417 $457 #
straight-curve $-1 -17.43986453820219 -36.076337105363791 3.1746965710080843 0 0.84804809178421925 0.52991927123019833 I I #
point $-1 -17.43986453820219 -26.268335160103206 9.3034165025887052 #
point $-1 3.7518574576355128 -36.076337105363798 3.1746965710080799 #
straight-curve $-1 0 -36.076337105363798 9.3034165025887052 1 0 0 I I #
vertex $-1 $344 $458 #
point $-1 -4.8440035402833459 -29.919593843600108 4.2342498323155482 #
coedge $-1 $351 $350 $358 $430 reversed $146 $-1 #
edge $-1 $354 36.747057874153455 $433 57.938779869991151 $351 $459 forward 7 unknown #
straight-curve $-1 36.747057874153455 -36.076337105363798 50.722219994555971 0 0 -1 I I #
point $-1 36.747057874153455 -36.076337105363798 9.3034165025887052 #
straight-curve $-1 23.671459436036152 -36.076337105363798 3.1746965710080781 1 0 0 I I #
edge $-1 $433 -9.3034165025887052 $359 -3.1746965710080799 $358 $460 forward 7 unknown #
point $-1 57.938779869991151 -36.076337105363798 3.1746965710080799 #
point $-1 36.747057874153455 -36.076337105363798 3.1746965710080799 #
vertex $-1 $363 $461 #
straight-curve $-1 57.938779869991151 0 9.3034165025887052 0 1 0 I I #
vertex $-1 $366 $462 #
point $-1 49.342918872072289 -29.919593843600108 4.2342498323155482 #
straight-curve $-1 -57.938779869991151 36.076337105363798 0 0 0 -1 I I #
point $-1 -57.938779869991151 -36.076337105363798 -9.3034165025887052 #
straight-curve $-1 -57.938779869991151 0 -9.3034165025887052 0 1 0 I I #
point $-1 -57.938779869991151 36.076337105363798 -9.3034165025887052 #
coedge $-1 $388 $387 $393 $444 reversed $180 $-1 #
vertex $-1 $400 $463 #
straight-curve $-1 0 -36.076337105363798 9.3034165025887052 1 0 0 I I #
edge $-1 $442 -9.3034165025887052 $445 9.3034165025887052 $441 $464 forward 7 unknown #
vertex $-1 $398 $465 #
straight-curve $-1 0 -36.076337105363798 -9.3034165025887052 -1 0 0 I I #
straight-curve $-1 -57.938779869991151 0 -9.3034165025887052 0 1 0 I I #
straight-curve $-1 -57.938779869991151 0 9.3034165025887052 0 -1 0 I I #
straight-curve $-1 52.21299720847027 36.076337105363798 69.692934772000214 0 0 -1 I I #
point $-1 52.21299720847027 36.076337105363798 9.3034165025887052 #
straight-curve $-1 18.577927980486557 36.076337105363798 3.9249429884432203 -1 0 0 I I #
point $-1 52.21299720847027 36.076337105363798 3.9249429884432132 #
point $-1 37.155855960973113 27.416813435764617 0.021566672505431539 #
straight-curve $-1 -17.43986453820219 -36.076337105363798 50.722219994555971 0 0 -1 I I #
point $-1 -17.43986453820219 -36.076337105363798 9.3034165025887052 #
straight-curve $-1 -3.4220017701416694 -36.076337105363798 3.1746965710080781 1 0 0 I I #
point $-1 -17.43986453820219 -36.076337105363798 3.1746965710080799 #
point $-1 -6.8440035402833459 -28.85975530113971 2.5381536487471092 #
straight-curve $-1 0 -36.076337105363798 9.3034165025887052 1 0 0 I I #
straight-curve $-1 57.938779869991151 -36.076337105363798 0 0 0 -1 I I #
point $-1 57.938779869991151 -36.076337105363798 9.3034165025887052 #
point $-1 47.342918872072289 -28.85975530113971 2.5381536487471092 #
point $-1 -57.938779869991151 -36.076337105363798 9.3034165025887052 #
straight-curve $-1 -57.938779869991151 -36.076337105363798 0 0 0 -1 I I #
point $-1 -57.938779869991151 -36.076337105363798 -9.3034165025887052 #
End-of-ACIS-data 