500 0 2 0           
7 Unknown 11 ACIS 5.0 NT 24 Thu Mar 25 23:47:25 1999 
-1 9.9999999999999995e-007 1e-010 
body $-1 $2 $-1 $3 #
body $-1 $4 $-1 $5 #
lump $-1 $-1 $6 $0 #
transform $-1 1 0 0 0 1 0 0 0 1 76.723532822656949 50.4794344024114 21.783631409452727 1 rotate no_reflect no_shear #
lump $-1 $-1 $7 $1 #
transform $-1 1 0 0 0 1 0 0 0 1 76.723532822656949 50.4794344024114 21.783631409452727 1 rotate no_reflect no_shear #
shell $-1 $-1 $-1 $8 $-1 $2 #
shell $-1 $-1 $-1 $9 $-1 $4 #
face $-1 $10 $11 $6 $-1 $12 forward single #
face $-1 $13 $14 $7 $-1 $15 forward single #
face $-1 $16 $17 $6 $-1 $18 reversed single #
loop $-1 $-1 $19 $8 #
plane-surface $-1 0 0 21.783631409452727 0 0 1 1 0 0 forward_v I I I I #
face $-1 $20 $21 $7 $-1 $22 reversed single #
loop $-1 $-1 $23 $9 #
plane-surface $-1 0 -42.813892379167378 -17.131466247031138 0 0 1 1 0 0 forward_v I I I I #
face $-1 $24 $25 $6 $-1 $26 reversed single #
loop $-1 $-1 $27 $10 #
plane-surface $-1 0 0 -21.783631409452727 0 0 1 1 0 0 forward_v I I I I #
coedge $-1 $28 $29 $30 $31 forward $11 $-1 #
face $-1 $32 $33 $7 $-1 $34 reversed single #
loop $-1 $-1 $35 $13 #
plane-surface $-1 0 -35.148350355923355 -19.457548828241933 0 -1 0 0 0 -1 forward_v I I I I #
coedge $-1 $36 $37 $38 $39 reversed $14 $-1 #
face $-1 $40 $41 $6 $-1 $42 reversed single #
loop $-1 $-1 $43 $16 #
plane-surface $-1 0 -50.4794344024114 0 0 1 0 0 0 1 forward_v I I I I #
coedge $-1 $44 $45 $46 $47 forward $17 $-1 #
coedge $-1 $48 $19 $49 $50 forward $11 $-1 #
coedge $-1 $19 $48 $51 $52 forward $11 $-1 #
coedge $-1 $53 $54 $19 $31 reversed $55 $-1 #
edge $-1 $56 -50.4794344024114 $57 50.4794344024114 $30 $58 forward 7 unknown #
face $-1 $59 $60 $7 $-1 $61 reversed single #
loop $-1 $-1 $62 $20 #
plane-surface $-1 0 0 -21.783631409452727 0 0 1 1 0 0 forward_v I I I I #
coedge $-1 $63 $64 $65 $66 reversed $21 $-1 #
coedge $-1 $67 $23 $64 $68 forward $14 $-1 #
coedge $-1 $23 $67 $69 $70 reversed $14 $-1 #
coedge $-1 $71 $65 $23 $39 forward $60 $-1 #
edge $-1 $72 13.741404166339667 $73 29.072488212827711 $38 $74 forward 7 unknown #
face $-1 $75 $76 $6 $-1 $77 reversed single #
loop $-1 $-1 $78 $24 #
plane-surface $-1 -76.723532822656949 0 0 1 0 0 0 0 -1 forward_v I I I I #
coedge $-1 $79 $51 $80 $81 forward $25 $-1 #
coedge $-1 $82 $27 $79 $83 forward $17 $-1 #
coedge $-1 $27 $82 $84 $85 forward $17 $-1 #
coedge $-1 $54 $53 $27 $47 reversed $55 $-1 #
edge $-1 $86 -50.4794344024114 $87 50.4794344024114 $46 $88 forward 7 unknown #
coedge $-1 $29 $28 $89 $90 forward $11 $-1 #
coedge $-1 $91 $92 $28 $50 reversed $76 $-1 #
edge $-1 $57 -76.723532822656949 $93 76.723532822656949 $49 $94 forward 7 unknown #
coedge $-1 $43 $95 $29 $52 reversed $25 $-1 #
edge $-1 $96 -76.723532822656949 $56 76.723532822656949 $51 $97 forward 7 unknown #
coedge $-1 $46 $30 $95 $98 forward $55 $-1 #
coedge $-1 $30 $46 $91 $99 reversed $55 $-1 #
loop $-1 $-1 $53 $75 #
vertex $-1 $31 $100 #
vertex $-1 $31 $101 #
straight-curve $-1 76.723532822656949 0 21.783631409452727 0 1 0 I I #
face $-1 $102 $103 $7 $-1 $104 reversed single #
loop $-1 $-1 $65 $32 #
plane-surface $-1 76.723532822656949 0 0 -1 0 0 0 0 1 forward_v I I I I #
coedge $-1 $105 $106 $63 $107 forward $33 $-1 #
coedge $-1 $108 $35 $62 $107 reversed $21 $-1 #
coedge $-1 $35 $108 $36 $68 reversed $21 $-1 #
coedge $-1 $38 $109 $35 $66 forward $60 $-1 #
edge $-1 $110 -12.054856995331761 $72 -7.4026918329101719 $65 $111 forward 7 unknown #
coedge $-1 $37 $36 $112 $113 reversed $14 $-1 #
edge $-1 $72 -76.723532822656949 $114 76.723532822656949 $64 $115 forward 7 unknown #
coedge $-1 $116 $117 $37 $70 forward $103 $-1 #
edge $-1 $73 -76.723532822656949 $118 76.723532822656949 $69 $119 forward 7 unknown #
coedge $-1 $109 $38 $117 $120 forward $60 $-1 #
vertex $-1 $39 $121 #
vertex $-1 $120 $122 #
straight-curve $-1 76.723532822656949 -21.406946189583689 -17.131466247031138 0 -1 0 I I #
face $-1 $-1 $55 $6 $-1 $123 reversed single #
loop $-1 $-1 $91 $40 #
plane-surface $-1 0 50.4794344024114 0 0 -1 0 0 0 -1 forward_v I I I I #
coedge $-1 $124 $89 $92 $125 forward $41 $-1 #
coedge $-1 $95 $43 $44 $83 reversed $25 $-1 #
coedge $-1 $89 $124 $43 $81 reversed $41 $-1 #
edge $-1 $96 -21.783631409452727 $126 21.783631409452727 $80 $127 forward 7 unknown #
coedge $-1 $45 $44 $124 $128 forward $17 $-1 #
edge $-1 $87 -76.723532822656949 $126 76.723532822656949 $79 $129 forward 7 unknown #
coedge $-1 $92 $91 $45 $85 reversed $76 $-1 #
edge $-1 $130 -76.723532822656949 $86 76.723532822656949 $84 $131 forward 7 unknown #
vertex $-1 $47 $132 #
vertex $-1 $98 $133 #
straight-curve $-1 76.723532822656949 0 -21.783631409452727 0 -1 0 I I #
coedge $-1 $78 $80 $48 $90 reversed $41 $-1 #
edge $-1 $93 -50.4794344024114 $96 50.4794344024114 $89 $134 forward 7 unknown #
coedge $-1 $84 $49 $54 $99 forward $76 $-1 #
coedge $-1 $49 $84 $78 $125 reversed $76 $-1 #
vertex $-1 $50 $135 #
straight-curve $-1 0 50.4794344024114 21.783631409452727 -1 0 0 I I #
coedge $-1 $51 $79 $53 $98 reversed $25 $-1 #
vertex $-1 $90 $136 #
straight-curve $-1 0 -50.4794344024114 21.783631409452727 1 0 0 I I #
edge $-1 $56 -21.783631409452727 $87 21.783631409452727 $53 $137 forward 7 unknown #
edge $-1 $57 -21.783631409452727 $86 21.783631409452727 $54 $138 forward 7 unknown #
point $-1 76.723532822656949 -50.4794344024114 21.783631409452727 #
point $-1 76.723532822656949 50.4794344024114 21.783631409452727 #
face $-1 $-1 $139 $7 $-1 $140 reversed single #
loop $-1 $-1 $69 $59 #
plane-surface $-1 0 -50.4794344024114 0 0 1 0 0 0 1 forward_v I I I I #
coedge $-1 $141 $62 $109 $142 forward $33 $-1 #
coedge $-1 $62 $141 $143 $144 forward $33 $-1 #
edge $-1 $145 -76.723532822656949 $110 76.723532822656949 $62 $146 forward 7 unknown #
coedge $-1 $64 $63 $147 $148 reversed $21 $-1 #
coedge $-1 $65 $71 $105 $142 reversed $60 $-1 #
vertex $-1 $142 $149 #
straight-curve $-1 76.723532822656949 -35.148350355923355 -9.7287744141209664 0 0 1 I I #
coedge $-1 $147 $150 $67 $113 forward $139 $-1 #
edge $-1 $118 -29.072488212827711 $114 -13.741404166339667 $112 $151 forward 7 unknown #
vertex $-1 $113 $152 #
straight-curve $-1 0 -35.148350355923355 -17.131466247031138 -1 0 0 I I #
coedge $-1 $153 $69 $150 $154 forward $103 $-1 #
coedge $-1 $69 $153 $71 $120 reversed $103 $-1 #
vertex $-1 $154 $155 #
straight-curve $-1 0 -50.4794344024114 -17.131466247031138 -1 0 0 I I #
edge $-1 $73 17.131466247031138 $156 21.783631409452727 $71 $157 forward 7 unknown #
point $-1 76.723532822656949 -35.148350355923355 -17.131466247031138 #
point $-1 76.723532822656949 -50.4794344024114 -17.131466247031138 #
plane-surface $-1 76.723532822656949 0 0 -1 0 0 0 0 1 forward_v I I I I #
coedge $-1 $80 $78 $82 $128 reversed $41 $-1 #
edge $-1 $93 -21.783631409452727 $130 21.783631409452727 $92 $158 forward 7 unknown #
vertex $-1 $128 $159 #
straight-curve $-1 -76.723532822656949 -50.4794344024114 0 0 0 -1 I I #
edge $-1 $126 -50.4794344024114 $130 50.4794344024114 $124 $160 forward 7 unknown #
straight-curve $-1 0 -50.4794344024114 -21.783631409452727 -1 0 0 I I #
vertex $-1 $85 $161 #
straight-curve $-1 0 50.4794344024114 -21.783631409452727 1 0 0 I I #
point $-1 76.723532822656949 50.4794344024114 -21.783631409452727 #
point $-1 76.723532822656949 -50.4794344024114 -21.783631409452727 #
straight-curve $-1 -76.723532822656949 0 21.783631409452727 0 -1 0 I I #
point $-1 -76.723532822656949 50.4794344024114 21.783631409452727 #
point $-1 -76.723532822656949 -50.4794344024114 21.783631409452727 #
straight-curve $-1 76.723532822656949 -50.4794344024114 0 0 0 -1 I I #
straight-curve $-1 76.723532822656949 50.4794344024114 0 0 0 -1 I I #
loop $-1 $-1 $147 $102 #
plane-surface $-1 -76.723532822656949 0 0 1 0 0 0 0 -1 forward_v I I I I #
coedge $-1 $106 $105 $153 $162 forward $33 $-1 #
edge $-1 $110 35.148350355923355 $156 50.4794344024114 $109 $163 forward 7 unknown #
coedge $-1 $150 $147 $106 $144 reversed $139 $-1 #
edge $-1 $164 -50.4794344024114 $145 -35.148350355923355 $143 $165 forward 7 unknown #
vertex $-1 $148 $166 #
straight-curve $-1 0 -35.148350355923355 -21.783631409452727 1 0 0 I I #
coedge $-1 $143 $112 $108 $148 forward $139 $-1 #
edge $-1 $114 7.4026918329101719 $145 12.054856995331761 $147 $167 forward 7 unknown #
point $-1 76.723532822656949 -35.148350355923355 -21.783631409452727 #
coedge $-1 $112 $143 $116 $154 reversed $139 $-1 #
straight-curve $-1 -76.723532822656949 -21.406946189583689 -17.131466247031138 0 1 0 I I #
point $-1 -76.723532822656949 -35.148350355923355 -17.131466247031138 #
coedge $-1 $117 $116 $141 $162 reversed $103 $-1 #
edge $-1 $118 17.131466247031138 $164 21.783631409452727 $150 $168 forward 7 unknown #
point $-1 -76.723532822656949 -50.4794344024114 -17.131466247031138 #
vertex $-1 $120 $169 #
straight-curve $-1 76.723532822656949 -50.4794344024114 0 0 0 -1 I I #
straight-curve $-1 -76.723532822656949 50.4794344024114 0 0 0 -1 I I #
point $-1 -76.723532822656949 -50.4794344024114 -21.783631409452727 #
straight-curve $-1 -76.723532822656949 0 -21.783631409452727 0 1 0 I I #
point $-1 -76.723532822656949 50.4794344024114 -21.783631409452727 #
edge $-1 $156 -76.723532822656949 $164 76.723532822656949 $153 $170 forward 7 unknown #
straight-curve $-1 76.723532822656949 0 -21.783631409452727 0 -1 0 I I #
vertex $-1 $144 $171 #
straight-curve $-1 -76.723532822656949 0 -21.783631409452727 0 1 0 I I #
point $-1 -76.723532822656949 -35.148350355923355 -21.783631409452727 #
straight-curve $-1 -76.723532822656949 -35.148350355923355 -9.7287744141209664 0 0 -1 I I #
straight-curve $-1 -76.723532822656949 -50.4794344024114 0 0 0 -1 I I #
point $-1 76.723532822656949 -50.4794344024114 -21.783631409452727 #
straight-curve $-1 0 -50.4794344024114 -21.783631409452727 -1 0 0 I I #
point $-1 -76.723532822656949 -50.4794344024114 -21.783631409452727 #
End-of-ACIS-data 