500 0 10 0           
7 Unknown 11 ACIS 5.0 NT 24 Thu Mar 25 15:36:00 1999 
-1 9.9999999999999995e-007 1e-010 
body $-1 $10 $-1 $11 #
body $-1 $12 $-1 $13 #
body $-1 $14 $-1 $15 #
body $-1 $16 $-1 $17 #
body $-1 $18 $-1 $19 #
body $-1 $20 $-1 $21 #
body $-1 $22 $-1 $23 #
body $-1 $24 $-1 $25 #
body $-1 $26 $-1 $27 #
body $-1 $28 $-1 $29 #
lump $-1 $-1 $30 $0 #
transform $-1 1 0 0 0 1 0 0 0 1 68.741111484115123 47.829900477573084 18.025509659640935 1 rotate no_reflect no_shear #
lump $-1 $-1 $31 $1 #
transform $-1 1 0 0 0 1 0 0 0 1 68.741111484115123 47.829900477573084 18.025509659640935 1 rotate no_reflect no_shear #
lump $-1 $-1 $32 $2 #
transform $-1 1 0 0 0 1 0 0 0 1 68.741111484115123 47.829900477573084 18.025509659640935 1 rotate no_reflect no_shear #
lump $-1 $-1 $33 $3 #
transform $-1 1 0 0 0 1 0 0 0 1 68.741111484115123 47.829900477573084 18.025509659640935 1 rotate no_reflect no_shear #
lump $-1 $-1 $34 $4 #
transform $-1 1 0 0 0 1 0 0 0 1 68.741111484115123 47.829900477573084 18.025509659640935 1 rotate no_reflect no_shear #
lump $-1 $-1 $35 $5 #
transform $-1 1 0 0 0 1 0 0 0 1 68.741111484115123 47.829900477573084 18.025509659640935 1 rotate no_reflect no_shear #
lump $-1 $-1 $36 $6 #
transform $-1 1 0 0 0 1 0 0 0 1 68.741111484115123 47.829900477573084 18.025509659640935 1 rotate no_reflect no_shear #
lump $-1 $-1 $37 $7 #
transform $-1 1 0 0 0 1 0 0 0 1 68.741111484115123 47.829900477573084 18.025509659640935 1 rotate no_reflect no_shear #
lump $-1 $-1 $38 $8 #
transform $-1 1 0 0 0 1 0 0 0 1 68.741111484115123 47.829900477573084 18.025509659640935 1 rotate no_reflect no_shear #
lump $-1 $-1 $39 $9 #
transform $-1 1 0 0 0 1 0 0 0 1 68.741111484115123 47.829900477573084 18.025509659640935 1 rotate no_reflect no_shear #
shell $-1 $-1 $-1 $40 $-1 $10 #
shell $-1 $-1 $-1 $41 $-1 $12 #
shell $-1 $-1 $-1 $42 $-1 $14 #
shell $-1 $-1 $-1 $43 $-1 $16 #
shell $-1 $-1 $-1 $44 $-1 $18 #
shell $-1 $-1 $-1 $45 $-1 $20 #
shell $-1 $-1 $-1 $46 $-1 $22 #
shell $-1 $-1 $-1 $47 $-1 $24 #
shell $-1 $-1 $-1 $48 $-1 $26 #
shell $-1 $-1 $-1 $49 $-1 $28 #
face $-1 $50 $51 $30 $-1 $52 forward single #
face $-1 $53 $54 $31 $-1 $55 reversed single #
face $-1 $56 $57 $32 $-1 $58 reversed single #
face $-1 $59 $60 $33 $-1 $61 forward single #
face $-1 $62 $63 $34 $-1 $64 forward single #
face $-1 $65 $66 $35 $-1 $67 forward single #
face $-1 $68 $69 $36 $-1 $70 reversed single #
face $-1 $71 $72 $37 $-1 $73 forward single #
face $-1 $74 $75 $38 $-1 $76 forward single #
face $-1 $77 $78 $39 $-1 $79 forward single #
face $-1 $80 $81 $30 $-1 $82 reversed single #
loop $-1 $-1 $83 $40 #
plane-surface $-1 0 0 18.025509659640935 0 0 1 1 0 0 forward_v I I I I #
face $-1 $84 $85 $31 $-1 $86 reversed single #
loop $-1 $-1 $87 $41 #
plane-surface $-1 -64.734923120934639 -29.048460343866804 0 0 -1 0 0 0 -1 forward_v I I I I #
face $-1 $88 $89 $32 $-1 $90 reversed single #
loop $-1 $-1 $91 $42 #
plane-surface $-1 -158.93756628496885 25.979036194587536 103.83527015334288 0 1 0 -0.6560590369687036 0 0.75470957328743171 forward_v I I I I #
face $-1 $92 $93 $33 $-1 $94 forward single #
loop $-1 $95 $96 $43 #
cone-surface $-1 -58.07554236014694 28.904623011894166 8.6581204852660729 0.6560590369687036 0 -0.75470957328743171 0.75470957328743171 0 0.6560590369687036 1 I I 0 1 1 forward I I I I #
face $-1 $97 $98 $34 $-1 $99 forward single #
loop $-1 $100 $101 $44 #
cone-surface $-1 -58.07554236014694 33.293003237854101 8.6581204852660729 0.6560590369687036 0 -0.75470957328743171 0.75470957328743171 0 0.6560590369687036 1 I I 0 1 1 forward I I I I #
face $-1 $102 $103 $35 $-1 $104 forward single #
loop $-1 $105 $106 $45 #
cone-surface $-1 -58.07554236014694 37.681383463814036 8.6581204852660729 0.6560590369687036 0 -0.75470957328743171 0.75470957328743171 0 0.6560590369687036 1 I I 0 1 1 forward I I I I #
face $-1 $107 $108 $36 $-1 $109 reversed single #
loop $-1 $-1 $110 $46 #
plane-surface $-1 58.56547421103906 -12.134376326476072 199.02621254406341 0 -1 0 -0.66913061440640931 0 -0.74314481823134659 forward_v I I I I #
face $-1 $111 $112 $37 $-1 $113 forward single #
loop $-1 $114 $115 $47 #
cone-surface $-1 60.96972041500652 -25.665643540388661 10.930913973924005 -0.66913061440640931 0 -0.74314481823134659 0.3715724091156733 0 -0.33456530720320465 1 I I 0 1 0.5 forward I I I I #
face $-1 $116 $117 $38 $-1 $118 forward single #
loop $-1 $119 $120 $48 #
cone-surface $-1 60.96972041500652 -20.59141833517144 10.930913973924005 -0.66913061440640931 0 -0.74314481823134659 0.3715724091156733 0 -0.33456530720320465 1 I I 0 1 0.5 forward I I I I #
face $-1 $121 $122 $39 $-1 $123 forward single #
loop $-1 $124 $125 $49 #
cone-surface $-1 60.96972041500652 -15.517193129954215 10.930913973924005 -0.66913061440640931 0 -0.74314481823134659 0.3715724091156733 0 -0.33456530720320465 1 I I 0 1 0.5 forward I I I I #
face $-1 $126 $127 $30 $-1 $128 reversed single #
loop $-1 $-1 $129 $50 #
plane-surface $-1 0 0 -18.025509659640935 0 0 1 1 0 0 forward_v I I I I #
coedge $-1 $130 $131 $132 $133 forward $51 $-1 #
face $-1 $134 $135 $31 $-1 $136 forward single #
loop $-1 $-1 $137 $53 #
plane-surface $-1 -60.728734757754147 -38.439180410719942 0 -1 0 0 0 0 1 forward_v I I I I #
coedge $-1 $138 $139 $140 $141 forward $54 $-1 #
face $-1 $142 $143 $32 $-1 $144 reversed single #
loop $-1 $-1 $145 $56 #
plane-surface $-1 -68.741111484115137 33.293003237854101 0.076120322382280392 -0.6560590369687036 0 0.75470957328743171 0.75470957328743171 0 0.6560590369687036 forward_v I I I I #
coedge $-1 $146 $147 $148 $149 reversed $57 $-1 #
face $-1 $-1 $150 $33 $-1 $151 forward single #
loop $-1 $152 $153 $59 #
cone-surface $-1 -57.406148708516497 28.904623011894166 7.8880711928768186 0.6560590369687036 0 -0.75470957328743171 0.37735478664371586 0 0.3280295184843518 1 I I -0.70710678118654746 0.70710678118654746 0.5 forward I I I I #
loop $-1 $-1 $154 $43 #
coedge $-1 $96 $96 $155 $156 reversed $60 $-1 #
face $-1 $-1 $157 $34 $-1 $158 forward single #
loop $-1 $159 $160 $62 #
cone-surface $-1 -57.406148708516497 33.293003237854101 7.8880711928768186 0.6560590369687036 0 -0.75470957328743171 0.37735478664371586 0 0.3280295184843518 1 I I -0.70710678118654746 0.70710678118654746 0.5 forward I I I I #
loop $-1 $-1 $161 $44 #
coedge $-1 $101 $101 $162 $163 reversed $63 $-1 #
face $-1 $-1 $164 $35 $-1 $165 forward single #
loop $-1 $166 $167 $65 #
cone-surface $-1 -57.406148708516497 37.681383463814036 7.8880711928768186 0.6560590369687036 0 -0.75470957328743171 0.37735478664371586 0 0.3280295184843518 1 I I -0.70710678118654746 0.70710678118654746 0.5 forward I I I I #
loop $-1 $-1 $168 $45 #
coedge $-1 $106 $106 $169 $170 reversed $66 $-1 #
face $-1 $171 $172 $36 $-1 $173 reversed single #
loop $-1 $-1 $174 $68 #
plane-surface $-1 -33.428090113651805 -20.59141833517144 96.857010946296484 0.66913061440640931 0 0.74314481823134659 0.74314481823134659 0 -0.66913061440640931 forward_v I I I I #
coedge $-1 $175 $176 $177 $178 reversed $69 $-1 #
face $-1 $-1 $179 $37 $-1 $180 forward single #
loop $-1 $181 $182 $71 #
cone-surface $-1 60.340022498632237 -25.665643540388661 10.231563602666892 -0.66913061440640931 0 -0.74314481823134659 0.18578620455783665 0 -0.16728265360160233 1 I I -0.70710678118654746 0.70710678118654746 0.25 forward I I I I #
loop $-1 $-1 $183 $47 #
coedge $-1 $115 $115 $184 $185 reversed $72 $-1 #
face $-1 $-1 $186 $38 $-1 $187 forward single #
loop $-1 $188 $189 $74 #
cone-surface $-1 60.340022498632237 -20.59141833517144 10.231563602666892 -0.66913061440640931 0 -0.74314481823134659 0.18578620455783665 0 -0.16728265360160233 1 I I -0.70710678118654746 0.70710678118654746 0.25 forward I I I I #
loop $-1 $-1 $190 $48 #
coedge $-1 $120 $120 $191 $192 reversed $75 $-1 #
face $-1 $-1 $193 $39 $-1 $194 forward single #
loop $-1 $195 $196 $77 #
cone-surface $-1 60.340022498632237 -15.517193129954215 10.231563602666892 -0.66913061440640931 0 -0.74314481823134659 0.18578620455783665 0 -0.16728265360160233 1 I I -0.70710678118654746 0.70710678118654746 0.25 forward I I I I #
loop $-1 $-1 $197 $49 #
coedge $-1 $125 $125 $198 $199 reversed $78 $-1 #
face $-1 $200 $201 $30 $-1 $202 reversed single #
loop $-1 $-1 $203 $80 #
plane-surface $-1 0 -47.829900477573084 0 0 1 0 0 0 1 forward_v I I I I #
coedge $-1 $204 $205 $206 $207 forward $81 $-1 #
coedge $-1 $208 $83 $209 $210 forward $51 $-1 #
coedge $-1 $83 $208 $211 $212 forward $51 $-1 #
coedge $-1 $213 $214 $83 $133 reversed $215 $-1 #
edge $-1 $216 -47.829900477573084 $217 47.829900477573084 $132 $218 forward 7 unknown #
face $-1 $219 $220 $31 $-1 $221 reversed single #
loop $-1 $-1 $222 $84 #
plane-surface $-1 0 0 18.025509659640935 0 0 1 1 0 0 forward_v I I I I #
coedge $-1 $223 $224 $225 $226 reversed $85 $-1 #
coedge $-1 $227 $87 $228 $229 reversed $54 $-1 #
coedge $-1 $87 $227 $230 $231 reversed $54 $-1 #
coedge $-1 $224 $223 $87 $141 reversed $85 $-1 #
edge $-1 $232 -18.025509659640935 $233 18.025509659640935 $140 $234 forward 7 unknown #
face $-1 $235 $236 $32 $-1 $237 reversed single #
loop $-1 $-1 $238 $88 #
plane-surface $-1 -158.93756628496885 40.606970281120667 103.83527015334288 0 -1 0 0.6560590369687036 0 -0.75470957328743171 forward_v I I I I #
coedge $-1 $239 $240 $241 $242 reversed $89 $-1 #
coedge $-1 $147 $91 $243 $244 reversed $57 $-1 #
coedge $-1 $91 $146 $239 $245 reversed $57 $-1 #
coedge $-1 $241 $246 $91 $149 forward $247 $-1 #
edge $-1 $248 10.727671658369303 $249 31.376081640013481 $148 $250 forward 7 unknown #
loop $-1 $-1 $155 $92 #
plane-surface $-1 -68.741111484115137 33.293003237854101 0.076120322382280392 -0.6560590369687036 0 0.75470957328743171 0.75470957328743171 0 0.6560590369687036 forward_v I I I I #
loop $-1 $-1 $251 $59 #
coedge $-1 $153 $153 $154 $252 reversed $93 $-1 #
coedge $-1 $154 $154 $153 $252 forward $95 $-1 #
coedge $-1 $155 $155 $96 $156 forward $150 $-1 #
edge $-1 $253 0 $253 6.2831853071796004 $155 $254 forward 7 unknown #
loop $-1 $-1 $162 $97 #
plane-surface $-1 -68.741111484115137 33.293003237854101 0.076120322382280392 -0.6560590369687036 0 0.75470957328743171 0.75470957328743171 0 0.6560590369687036 forward_v I I I I #
loop $-1 $-1 $255 $62 #
coedge $-1 $160 $160 $161 $256 reversed $98 $-1 #
coedge $-1 $161 $161 $160 $256 forward $100 $-1 #
coedge $-1 $162 $162 $101 $163 forward $157 $-1 #
edge $-1 $257 0 $257 6.2831853071796004 $162 $258 forward 7 unknown #
loop $-1 $-1 $169 $102 #
plane-surface $-1 -68.741111484115137 33.293003237854101 0.076120322382280392 -0.6560590369687036 0 0.75470957328743171 0.75470957328743171 0 0.6560590369687036 forward_v I I I I #
loop $-1 $-1 $259 $65 #
coedge $-1 $167 $167 $168 $260 reversed $103 $-1 #
coedge $-1 $168 $168 $167 $260 forward $105 $-1 #
coedge $-1 $169 $169 $106 $170 forward $164 $-1 #
edge $-1 $261 0 $261 6.2831853071796004 $169 $262 forward 7 unknown #
face $-1 $263 $264 $36 $-1 $265 forward single #
loop $-1 $-1 $266 $107 #
plane-surface $-1 58.56547421103906 -29.048460343866807 199.02621254406341 0 1 0 0.66913061440640931 0 0.74314481823134659 forward_v I I I I #
coedge $-1 $267 $268 $269 $270 reversed $108 $-1 #
coedge $-1 $176 $110 $271 $272 reversed $69 $-1 #
coedge $-1 $110 $175 $267 $273 reversed $69 $-1 #
coedge $-1 $269 $274 $110 $178 forward $264 $-1 #
edge $-1 $275 -39.458374378595593 $276 -24.840422765923748 $177 $277 forward 7 unknown #
loop $-1 $-1 $184 $111 #
plane-surface $-1 -33.428090113651805 -20.59141833517144 96.857010946296484 0.66913061440640931 0 0.74314481823134659 0.74314481823134659 0 -0.66913061440640931 forward_v I I I I #
loop $-1 $-1 $278 $71 #
coedge $-1 $182 $182 $183 $279 reversed $112 $-1 #
coedge $-1 $183 $183 $182 $279 forward $114 $-1 #
coedge $-1 $184 $184 $115 $185 forward $179 $-1 #
edge $-1 $280 0 $280 6.2831853071796004 $184 $281 forward 7 unknown #
loop $-1 $-1 $191 $116 #
plane-surface $-1 -33.428090113651805 -20.59141833517144 96.857010946296484 0.66913061440640931 0 0.74314481823134659 0.74314481823134659 0 -0.66913061440640931 forward_v I I I I #
loop $-1 $-1 $282 $74 #
coedge $-1 $189 $189 $190 $283 reversed $117 $-1 #
coedge $-1 $190 $190 $189 $283 forward $119 $-1 #
coedge $-1 $191 $191 $120 $192 forward $186 $-1 #
edge $-1 $284 0 $284 6.2831853071796004 $191 $285 forward 7 unknown #
loop $-1 $-1 $198 $121 #
plane-surface $-1 -33.428090113651805 -20.59141833517144 96.857010946296484 0.66913061440640931 0 0.74314481823134659 0.74314481823134659 0 -0.66913061440640931 forward_v I I I I #
loop $-1 $-1 $286 $77 #
coedge $-1 $196 $196 $197 $287 reversed $122 $-1 #
coedge $-1 $197 $197 $196 $287 forward $124 $-1 #
coedge $-1 $198 $198 $125 $199 forward $193 $-1 #
edge $-1 $288 0 $288 6.2831853071796004 $198 $289 forward 7 unknown #
face $-1 $290 $291 $30 $-1 $292 reversed single #
loop $-1 $-1 $293 $126 #
plane-surface $-1 -68.741111484115123 0 0 1 0 0 0 0 -1 forward_v I I I I #
coedge $-1 $294 $211 $295 $296 forward $127 $-1 #
coedge $-1 $297 $129 $294 $298 forward $81 $-1 #
coedge $-1 $129 $297 $299 $300 forward $81 $-1 #
coedge $-1 $214 $213 $129 $207 reversed $215 $-1 #
edge $-1 $301 -47.829900477573084 $302 47.829900477573084 $206 $303 forward 7 unknown #
coedge $-1 $131 $130 $304 $305 forward $51 $-1 #
coedge $-1 $306 $307 $130 $210 reversed $291 $-1 #
edge $-1 $217 -68.741111484115123 $308 68.741111484115123 $209 $309 forward 7 unknown #
coedge $-1 $203 $310 $131 $212 reversed $127 $-1 #
edge $-1 $311 -68.741111484115123 $216 68.741111484115123 $211 $312 forward 7 unknown #
coedge $-1 $206 $132 $310 $313 forward $215 $-1 #
coedge $-1 $132 $206 $306 $314 reversed $215 $-1 #
loop $-1 $-1 $213 $290 #
vertex $-1 $133 $315 #
vertex $-1 $133 $316 #
straight-curve $-1 68.741111484115123 0 18.025509659640935 0 1 0 I I #
face $-1 $317 $318 $31 $-1 $319 reversed single #
loop $-1 $-1 $320 $134 #
plane-surface $-1 -68.741111484115123 0 0 1 0 0 0 0 -1 forward_v I I I I #
coedge $-1 $230 $321 $224 $322 forward $135 $-1 #
coedge $-1 $140 $137 $323 $324 reversed $85 $-1 #
coedge $-1 $137 $140 $222 $322 reversed $85 $-1 #
coedge $-1 $325 $326 $137 $226 forward $327 $-1 #
edge $-1 $328 -18.025509659640935 $329 18.025509659640935 $225 $330 forward 7 unknown #
coedge $-1 $139 $138 $320 $331 reversed $54 $-1 #
coedge $-1 $323 $332 $138 $229 forward $318 $-1 #
edge $-1 $333 -36.373649923647804 $233 -28.361273197286827 $228 $334 forward 7 unknown #
coedge $-1 $335 $222 $139 $231 forward $135 $-1 #
edge $-1 $232 28.361273197286827 $336 36.373649923647804 $230 $337 forward 7 unknown #
vertex $-1 $231 $338 #
vertex $-1 $229 $339 #
straight-curve $-1 -60.728734757754147 -29.048460343866804 0 0 0 -1 I I #
face $-1 $-1 $247 $32 $-1 $340 forward single #
loop $-1 $-1 $341 $142 #
plane-surface $-1 -68.741111484115123 0 0 1 0 0 0 0 -1 forward_v I I I I #
coedge $-1 $342 $343 $344 $345 reversed $143 $-1 #
coedge $-1 $346 $145 $147 $245 forward $89 $-1 #
coedge $-1 $145 $346 $342 $347 forward $89 $-1 #
coedge $-1 $344 $148 $145 $242 forward $247 $-1 #
edge $-1 $249 9.3325345756604854 $348 23.960468662193616 $241 $349 forward 7 unknown #
coedge $-1 $350 $351 $146 $244 forward $236 $-1 #
edge $-1 $352 -51.841514754289143 $248 -33.892125417030499 $243 $353 forward 7 unknown #
edge $-1 $249 -27.359411769088865 $352 -1.8828204911120975e-014 $147 $354 forward 7 unknown #
coedge $-1 $148 $344 $350 $355 forward $247 $-1 #
loop $-1 $-1 $344 $235 #
vertex $-1 $244 $356 #
vertex $-1 $149 $357 #
straight-curve $-1 -79.468783142484426 25.979036194587536 18.025509659640939 1 0 0 I I #
coedge $-1 $251 $251 $-1 $358 reversed $152 $-1 #
edge $-1 $359 0 $359 6.2831853071796004 $153 $360 forward 7 unknown #
vertex $-1 $156 $361 #
ellipse-curve $-1 -58.416906493293034 28.904623011894166 9.0508149910116149 -0.6560590369687036 0 0.75470957328743171 0.75470957328743171 0 0.6560590369687036 1 I I #
coedge $-1 $255 $255 $-1 $362 reversed $159 $-1 #
edge $-1 $363 0 $363 6.2831853071796004 $160 $364 forward 7 unknown #
vertex $-1 $163 $365 #
ellipse-curve $-1 -58.416906493293034 33.293003237854101 9.0508149910116149 -0.6560590369687036 0 0.75470957328743171 0.75470957328743171 0 0.6560590369687036 1 I I #
coedge $-1 $259 $259 $-1 $366 reversed $166 $-1 #
edge $-1 $367 0 $367 6.2831853071796004 $167 $368 forward 7 unknown #
vertex $-1 $170 $369 #
ellipse-curve $-1 -58.416906493293034 37.681383463814036 9.0508149910116149 -0.6560590369687036 0 0.75470957328743171 0.75470957328743171 0 0.6560590369687036 1 I I #
face $-1 $-1 $370 $36 $-1 $371 reversed single #
loop $-1 $-1 $177 $171 #
plane-surface $-1 0 0 18.025509659640935 0 0 1 1 0 0 forward_v I I I I #
coedge $-1 $372 $373 $374 $375 reversed $172 $-1 #
coedge $-1 $376 $174 $176 $273 forward $108 $-1 #
coedge $-1 $174 $376 $372 $377 forward $108 $-1 #
coedge $-1 $374 $177 $174 $270 forward $264 $-1 #
edge $-1 $276 1.8386671588903525 $378 18.752751176281087 $269 $379 forward 7 unknown #
coedge $-1 $380 $381 $175 $272 forward $370 $-1 #
edge $-1 $382 -94.649659650426088 $275 -81.487596612390774 $271 $383 forward 7 unknown #
edge $-1 $276 117.81182864662014 $382 137.48222296823025 $176 $384 forward 7 unknown #
coedge $-1 $177 $374 $380 $385 forward $264 $-1 #
vertex $-1 $178 $386 #
vertex $-1 $178 $387 #
straight-curve $-1 29.28273710551953 -12.134376326476072 18.025509659640932 -1 0 0 I I #
coedge $-1 $278 $278 $-1 $388 reversed $181 $-1 #
edge $-1 $389 0 $389 6.2831853071796004 $182 $390 forward 7 unknown #
vertex $-1 $185 $391 #
ellipse-curve $-1 61.432135677779193 -25.665643540388661 11.444478140623277 0.66913061440640931 0 0.74314481823134659 0.3715724091156733 0 -0.33456530720320465 1 I I #
coedge $-1 $282 $282 $-1 $392 reversed $188 $-1 #
edge $-1 $393 0 $393 6.2831853071796004 $189 $394 forward 7 unknown #
vertex $-1 $192 $395 #
ellipse-curve $-1 61.432135677779193 -20.59141833517144 11.444478140623277 0.66913061440640931 0 0.74314481823134659 0.3715724091156733 0 -0.33456530720320465 1 I I #
coedge $-1 $286 $286 $-1 $396 reversed $195 $-1 #
edge $-1 $397 0 $397 6.2831853071796004 $196 $398 forward 7 unknown #
vertex $-1 $199 $399 #
ellipse-curve $-1 61.432135677779193 -15.517193129954215 11.444478140623277 0.66913061440640931 0 0.74314481823134659 0.3715724091156733 0 -0.33456530720320465 1 I I #
face $-1 $-1 $215 $30 $-1 $400 reversed single #
loop $-1 $-1 $306 $200 #
plane-surface $-1 0 47.829900477573084 0 0 -1 0 0 0 -1 forward_v I I I I #
coedge $-1 $401 $304 $307 $402 forward $201 $-1 #
coedge $-1 $310 $203 $204 $298 reversed $127 $-1 #
coedge $-1 $304 $401 $203 $296 reversed $201 $-1 #
edge $-1 $311 -18.025509659640935 $403 18.025509659640935 $295 $404 forward 7 unknown #
coedge $-1 $205 $204 $401 $405 forward $81 $-1 #
edge $-1 $302 -68.741111484115123 $403 68.741111484115123 $294 $406 forward 7 unknown #
coedge $-1 $307 $306 $205 $300 reversed $291 $-1 #
edge $-1 $407 -68.741111484115123 $301 68.741111484115123 $299 $408 forward 7 unknown #
vertex $-1 $207 $409 #
vertex $-1 $313 $410 #
straight-curve $-1 68.741111484115123 0 -18.025509659640935 0 -1 0 I I #
coedge $-1 $293 $295 $208 $305 reversed $201 $-1 #
edge $-1 $308 -47.829900477573084 $311 47.829900477573084 $304 $411 forward 7 unknown #
coedge $-1 $299 $209 $214 $314 forward $291 $-1 #
coedge $-1 $209 $299 $293 $402 reversed $291 $-1 #
vertex $-1 $210 $412 #
straight-curve $-1 0 47.829900477573084 18.025509659640935 -1 0 0 I I #
coedge $-1 $211 $294 $213 $313 reversed $127 $-1 #
vertex $-1 $305 $413 #
straight-curve $-1 0 -47.829900477573084 18.025509659640935 1 0 0 I I #
edge $-1 $216 -18.025509659640935 $302 18.025509659640935 $213 $414 forward 7 unknown #
edge $-1 $217 -18.025509659640935 $301 18.025509659640935 $214 $415 forward 7 unknown #
point $-1 68.741111484115123 -47.829900477573084 18.025509659640935 #
point $-1 68.741111484115123 47.829900477573084 18.025509659640935 #
face $-1 $-1 $327 $31 $-1 $416 reversed single #
loop $-1 $-1 $323 $219 #
plane-surface $-1 0 0 -18.025509659640935 0 0 1 1 0 0 forward_v I I I I #
coedge $-1 $417 $418 $227 $331 forward $220 $-1 #
coedge $-1 $222 $335 $325 $419 forward $135 $-1 #
edge $-1 $329 -28.610310272213106 $232 -9.8288701385068329 $222 $420 forward 7 unknown #
coedge $-1 $421 $228 $223 $324 forward $318 $-1 #
edge $-1 $233 9.8288701385068329 $328 28.610310272213106 $323 $422 forward 7 unknown #
coedge $-1 $423 $225 $321 $419 reversed $327 $-1 #
coedge $-1 $225 $423 $421 $424 reversed $327 $-1 #
loop $-1 $-1 $225 $317 #
vertex $-1 $424 $425 #
vertex $-1 $226 $426 #
straight-curve $-1 -60.728734757754147 -47.829900477573084 0 0 0 1 I I #
edge $-1 $336 -18.025509659640935 $333 18.025509659640935 $320 $427 forward 7 unknown #
coedge $-1 $228 $421 $417 $428 forward $318 $-1 #
vertex $-1 $229 $429 #
straight-curve $-1 -32.367461560467319 -29.048460343866804 -18.025509659640935 1 0 0 I I #
coedge $-1 $321 $230 $418 $430 forward $135 $-1 #
vertex $-1 $430 $431 #
straight-curve $-1 -32.367461560467319 -29.048460343866804 18.025509659640935 -1 0 0 I I #
point $-1 -60.728734757754147 -29.048460343866804 18.025509659640935 #
point $-1 -60.728734757754147 -29.048460343866804 -18.025509659640935 #
plane-surface $-1 0 0 18.025509659640935 0 0 1 1 0 0 forward_v I I I I #
coedge $-1 $351 $350 $343 $432 forward $236 $-1 #
coedge $-1 $343 $238 $240 $347 reversed $143 $-1 #
coedge $-1 $238 $342 $341 $432 reversed $143 $-1 #
coedge $-1 $246 $241 $238 $345 forward $247 $-1 #
edge $-1 $348 -31.376081640013481 $433 -10.727671658369303 $344 $434 forward 7 unknown #
coedge $-1 $240 $239 $351 $435 reversed $89 $-1 #
edge $-1 $436 1.8828204911120975e-014 $348 27.359411769088865 $342 $437 forward 7 unknown #
vertex $-1 $242 $438 #
straight-curve $-1 -48.092701502470945 16.646501618927051 18.025509659640935 0 1 0 I I #
coedge $-1 $341 $243 $246 $355 reversed $236 $-1 #
coedge $-1 $243 $341 $346 $435 forward $236 $-1 #
vertex $-1 $244 $439 #
straight-curve $-1 -68.741111484115123 25.979036194587536 51.917635076671438 0 0 1 I I #
straight-curve $-1 -68.741111484115137 25.979036194587536 0.076120322382280392 -0.75470957328743171 0 -0.6560590369687036 I I #
edge $-1 $433 -40.606970281120667 $248 -25.979036194587536 $350 $440 forward 7 unknown #
point $-1 -68.741111484115123 25.979036194587536 18.025509659640935 #
point $-1 -48.092701502470945 25.979036194587536 18.025509659640935 #
edge $-1 $441 1 $441 0 $251 $-1 forward 7 unknown #
vertex $-1 $252 $442 #
ellipse-curve $-1 -57.734178227000847 28.904623011894166 8.2654259795205345 -0.6560590369687036 0 0.75470957328743171 0.75470957328743171 0 0.6560590369687036 1 I I #
point $-1 -57.662196920005599 28.904623011894166 9.7068740279803141 #
edge $-1 $443 1 $443 0 $255 $-1 forward 7 unknown #
vertex $-1 $256 $444 #
ellipse-curve $-1 -57.734178227000847 33.293003237854101 8.2654259795205345 -0.6560590369687036 0 0.75470957328743171 0.75470957328743171 0 0.6560590369687036 1 I I #
point $-1 -57.662196920005599 33.293003237854101 9.7068740279803141 #
edge $-1 $445 1 $445 0 $259 $-1 forward 7 unknown #
vertex $-1 $260 $446 #
ellipse-curve $-1 -57.734178227000847 37.681383463814036 8.2654259795205345 -0.6560590369687036 0 0.75470957328743171 0.75470957328743171 0 0.6560590369687036 1 I I #
point $-1 -57.662196920005599 37.681383463814036 9.7068740279803141 #
loop $-1 $-1 $271 $263 #
plane-surface $-1 68.741111484115123 0 0 -1 0 0 0 0 1 forward_v I I I I #
coedge $-1 $373 $266 $268 $377 reversed $172 $-1 #
coedge $-1 $266 $372 $447 $448 reversed $172 $-1 #
coedge $-1 $274 $269 $266 $375 forward $264 $-1 #
edge $-1 $378 24.840422765923748 $449 39.458374378595593 $374 $450 forward 7 unknown #
coedge $-1 $268 $267 $381 $451 reversed $108 $-1 #
edge $-1 $452 -137.48222296823025 $378 -117.81182864662014 $372 $453 forward 7 unknown #
vertex $-1 $270 $454 #
straight-curve $-1 54.123159871443292 -10.29570916758572 18.025509659640917 0 -1 0 I I #
coedge $-1 $447 $271 $274 $385 reversed $370 $-1 #
coedge $-1 $271 $447 $376 $451 forward $370 $-1 #
vertex $-1 $272 $455 #
straight-curve $-1 68.741111484115123 -12.134376326476072 99.513106272031706 0 0 1 I I #
straight-curve $-1 -33.428090113651805 -12.134376326476072 96.857010946296484 0.74314481823134659 0 -0.66913061440640931 I I #
edge $-1 $449 -29.048460343866807 $275 -12.134376326476072 $380 $456 forward 7 unknown #
point $-1 68.741111484115123 -12.134376326476072 18.025509659640935 #
point $-1 54.123159871443278 -12.134376326476072 18.025509659640932 #
edge $-1 $457 1 $457 0 $278 $-1 forward 7 unknown #
vertex $-1 $279 $458 #
ellipse-curve $-1 60.50730515223384 -25.665643540388661 10.417349807224728 0.66913061440640931 0 0.74314481823134659 0.3715724091156733 0 -0.33456530720320465 1 I I #
point $-1 61.803708086894872 -25.665643540388661 11.109912833420077 #
edge $-1 $459 1 $459 0 $282 $-1 forward 7 unknown #
vertex $-1 $283 $460 #
ellipse-curve $-1 60.50730515223384 -20.59141833517144 10.417349807224728 0.66913061440640931 0 0.74314481823134659 0.3715724091156733 0 -0.33456530720320465 1 I I #
point $-1 61.803708086894872 -20.59141833517144 11.109912833420077 #
edge $-1 $461 1 $461 0 $286 $-1 forward 7 unknown #
vertex $-1 $287 $462 #
ellipse-curve $-1 60.50730515223384 -15.517193129954215 10.417349807224728 0.66913061440640931 0 0.74314481823134659 0.3715724091156733 0 -0.33456530720320465 1 I I #
point $-1 61.803708086894872 -15.517193129954215 11.109912833420077 #
plane-surface $-1 68.741111484115123 0 0 -1 0 0 0 0 1 forward_v I I I I #
coedge $-1 $295 $293 $297 $405 reversed $201 $-1 #
edge $-1 $308 -18.025509659640935 $407 18.025509659640935 $307 $463 forward 7 unknown #
vertex $-1 $405 $464 #
straight-curve $-1 -68.741111484115123 -47.829900477573084 0 0 0 -1 I I #
edge $-1 $403 -47.829900477573084 $407 47.829900477573084 $401 $465 forward 7 unknown #
straight-curve $-1 0 -47.829900477573084 -18.025509659640935 -1 0 0 I I #
vertex $-1 $300 $466 #
straight-curve $-1 0 47.829900477573084 -18.025509659640935 1 0 0 I I #
point $-1 68.741111484115123 47.829900477573084 -18.025509659640935 #
point $-1 68.741111484115123 -47.829900477573084 -18.025509659640935 #
straight-curve $-1 -68.741111484115123 0 18.025509659640935 0 -1 0 I I #
point $-1 -68.741111484115123 47.829900477573084 18.025509659640935 #
point $-1 -68.741111484115123 -47.829900477573084 18.025509659640935 #
straight-curve $-1 68.741111484115123 -47.829900477573084 0 0 0 -1 I I #
straight-curve $-1 68.741111484115123 47.829900477573084 0 0 0 -1 I I #
plane-surface $-1 0 -47.829900477573084 0 0 1 0 0 0 1 forward_v I I I I #
coedge $-1 $467 $320 $332 $428 reversed $220 $-1 #
coedge $-1 $320 $467 $335 $430 reversed $220 $-1 #
edge $-1 $468 -68.741111484115123 $329 -60.728734757754147 $325 $469 forward 7 unknown #
straight-curve $-1 -60.728734757754147 -19.219590205359971 18.025509659640935 0 1 0 I I #
coedge $-1 $332 $323 $326 $424 forward $318 $-1 #
straight-curve $-1 -60.728734757754147 -19.219590205359971 -18.025509659640935 0 -1 0 I I #
coedge $-1 $326 $325 $467 $470 forward $327 $-1 #
edge $-1 $328 60.728734757754147 $471 68.741111484115123 $326 $472 forward 7 unknown #
point $-1 -60.728734757754147 -47.829900477573077 -18.025509659640935 #
point $-1 -60.728734757754147 -47.829900477573077 18.025509659640935 #
straight-curve $-1 -68.741111484115123 -29.048460343866804 0 0 0 -1 I I #
edge $-1 $471 -47.829900477573084 $333 -29.048460343866804 $417 $473 forward 7 unknown #
point $-1 -68.741111484115123 -29.048460343866804 -18.025509659640935 #
edge $-1 $336 29.048460343866804 $468 47.829900477573084 $418 $474 forward 7 unknown #
point $-1 -68.741111484115123 -29.048460343866804 18.025509659640935 #
edge $-1 $433 33.892125417030499 $436 51.841514754289143 $341 $475 forward 7 unknown #
vertex $-1 $355 $476 #
straight-curve $-1 -79.468783142484426 40.606970281120667 18.025509659640939 -1 0 0 I I #
edge $-1 $436 -23.960468662193616 $352 -9.3325345756604854 $351 $477 forward 7 unknown #
vertex $-1 $435 $478 #
straight-curve $-1 -68.741111484115137 40.606970281120667 0.076120322382280392 0.75470957328743171 0 0.6560590369687036 I I #
point $-1 -48.092701502470945 40.606970281120667 18.025509659640935 #
point $-1 -68.741111484115123 25.979036194587536 0.076120322382292743 #
straight-curve $-1 -68.741111484115123 0 18.025509659640935 0 -1 0 I I #
vertex $-1 $358 $479 #
point $-1 -56.979468653713418 28.904623011894166 8.921485016489239 #
vertex $-1 $362 $480 #
point $-1 -56.979468653713418 33.293003237854101 8.921485016489239 #
vertex $-1 $366 $481 #
point $-1 -56.979468653713418 37.681383463814036 8.921485016489239 #
coedge $-1 $381 $380 $373 $448 forward $370 $-1 #
edge $-1 $449 81.487596612390774 $452 94.649659650426088 $447 $482 forward 7 unknown #
vertex $-1 $385 $483 #
straight-curve $-1 29.28273710551953 -29.048460343866807 18.025509659640932 1 0 0 I I #
edge $-1 $452 -18.752751176281087 $382 -1.8386671588903525 $381 $484 forward 7 unknown #
vertex $-1 $451 $485 #
straight-curve $-1 -33.428090113651805 -29.048460343866807 96.857010946296484 -0.74314481823134659 0 0.66913061440640931 I I #
point $-1 54.123159871443278 -29.048460343866807 18.025509659640932 #
point $-1 68.741111484115123 -12.134376326476072 4.8634466216056182 #
straight-curve $-1 68.741111484115123 0 18.025509659640935 0 1 0 I I #
vertex $-1 $388 $486 #
point $-1 60.878877561349512 -25.665643540388661 10.082784500021523 #
vertex $-1 $392 $487 #
point $-1 60.878877561349512 -20.59141833517144 10.082784500021523 #
vertex $-1 $396 $488 #
point $-1 60.878877561349512 -15.517193129954215 10.082784500021523 #
straight-curve $-1 -68.741111484115123 47.829900477573084 0 0 0 -1 I I #
point $-1 -68.741111484115123 -47.829900477573084 -18.025509659640935 #
straight-curve $-1 -68.741111484115123 0 -18.025509659640935 0 1 0 I I #
point $-1 -68.741111484115123 47.829900477573084 -18.025509659640935 #
coedge $-1 $418 $417 $423 $470 reversed $220 $-1 #
vertex $-1 $430 $489 #
straight-curve $-1 0 -47.829900477573084 18.025509659640935 1 0 0 I I #
edge $-1 $468 -18.025509659640935 $471 18.025509659640935 $467 $490 forward 7 unknown #
vertex $-1 $428 $491 #
straight-curve $-1 0 -47.829900477573084 -18.025509659640935 -1 0 0 I I #
straight-curve $-1 -68.741111484115123 0 -18.025509659640935 0 1 0 I I #
straight-curve $-1 -68.741111484115123 0 18.025509659640935 0 -1 0 I I #
straight-curve $-1 -68.741111484115123 40.606970281120667 51.917635076671438 0 0 -1 I I #
point $-1 -68.741111484115123 40.606970281120667 18.025509659640935 #
straight-curve $-1 -68.741111484115123 16.646501618927051 0.076120322382288677 0 -1 0 I I #
point $-1 -68.741111484115123 40.606970281120667 0.076120322382292743 #
point $-1 -57.078119190032147 28.904623011894166 7.5107164062331027 #
point $-1 -57.078119190032147 33.293003237854101 7.5107164062331027 #
point $-1 -57.078119190032147 37.681383463814036 7.5107164062331027 #
straight-curve $-1 68.741111484115123 -29.048460343866807 99.513106272031706 0 0 -1 I I #
point $-1 68.741111484115123 -29.048460343866807 18.025509659640935 #
straight-curve $-1 68.741111484115123 -10.29570916758572 4.8634466216056182 0 1 0 I I #
point $-1 68.741111484115123 -29.048460343866807 4.8634466216056182 #
point $-1 60.172739845030634 -25.665643540388661 10.045777398109056 #
point $-1 60.172739845030634 -20.59141833517144 10.045777398109056 #
point $-1 60.172739845030634 -15.517193129954215 10.045777398109056 #
point $-1 -68.741111484115123 -47.829900477573084 18.025509659640935 #
straight-curve $-1 -68.741111484115123 -47.829900477573084 0 0 0 -1 I I #
point $-1 -68.741111484115123 -47.829900477573084 -18.025509659640935 #
End-of-ACIS-data 