500 0 10 0           
7 Unknown 11 ACIS 5.0 NT 24 Fri Mar 26 19:39:35 1999 
-1 9.9999999999999995e-007 1e-010 
body $-1 $10 $-1 $11 #
body $-1 $12 $-1 $13 #
body $-1 $14 $-1 $15 #
body $-1 $16 $-1 $17 #
body $-1 $18 $-1 $19 #
body $-1 $20 $-1 $21 #
body $-1 $22 $-1 $23 #
body $-1 $24 $-1 $25 #
body $-1 $26 $-1 $27 #
body $-1 $28 $-1 $29 #
lump $-1 $-1 $30 $0 #
transform $-1 1 0 0 0 1 0 0 0 1 54.193548387096776 36.065411994955589 14.788502931736909 1 rotate no_reflect no_shear #
lump $-1 $-1 $31 $1 #
transform $-1 1 0 0 0 1 0 0 0 1 54.193548387096776 36.065411994955589 14.788502931736909 1 rotate no_reflect no_shear #
lump $-1 $-1 $32 $2 #
transform $-1 1 0 0 0 1 0 0 0 1 54.193548387096776 36.065411994955589 14.788502931736909 1 rotate no_reflect no_shear #
lump $-1 $-1 $33 $3 #
transform $-1 1 0 0 0 1 0 0 0 1 54.193548387096776 36.065411994955589 14.788502931736909 1 rotate no_reflect no_shear #
lump $-1 $-1 $34 $4 #
transform $-1 1 0 0 0 1 0 0 0 1 54.193548387096776 36.065411994955589 14.788502931736909 1 rotate no_reflect no_shear #
lump $-1 $-1 $35 $5 #
transform $-1 1 0 0 0 1 0 0 0 1 54.193548387096776 36.065411994955589 14.788502931736909 1 rotate no_reflect no_shear #
lump $-1 $-1 $36 $6 #
transform $-1 1 0 0 0 1 0 0 0 1 54.193548387096776 36.065411994955589 14.788502931736909 1 rotate no_reflect no_shear #
lump $-1 $-1 $37 $7 #
transform $-1 1 0 0 0 1 0 0 0 1 54.193548387096776 36.065411994955589 14.788502931736909 1 rotate no_reflect no_shear #
lump $-1 $-1 $38 $8 #
transform $-1 1 0 0 0 1 0 0 0 1 54.193548387096776 36.065411994955589 14.788502931736909 1 rotate no_reflect no_shear #
lump $-1 $-1 $39 $9 #
transform $-1 1 0 0 0 1 0 0 0 1 54.193548387096776 36.065411994955589 14.788502931736909 1 rotate no_reflect no_shear #
shell $-1 $-1 $-1 $40 $-1 $10 #
shell $-1 $-1 $-1 $41 $-1 $12 #
shell $-1 $-1 $-1 $42 $-1 $14 #
shell $-1 $-1 $-1 $43 $-1 $16 #
shell $-1 $-1 $-1 $44 $-1 $18 #
shell $-1 $-1 $-1 $45 $-1 $20 #
shell $-1 $-1 $-1 $46 $-1 $22 #
shell $-1 $-1 $-1 $47 $-1 $24 #
shell $-1 $-1 $-1 $48 $-1 $26 #
shell $-1 $-1 $-1 $49 $-1 $28 #
face $-1 $50 $51 $30 $-1 $52 forward single #
face $-1 $53 $54 $31 $-1 $55 reversed single #
face $-1 $56 $57 $32 $-1 $58 reversed single #
face $-1 $59 $60 $33 $-1 $61 forward single #
face $-1 $62 $63 $34 $-1 $64 forward single #
face $-1 $65 $66 $35 $-1 $67 forward single #
face $-1 $68 $69 $36 $-1 $70 reversed single #
face $-1 $71 $72 $37 $-1 $73 forward single #
face $-1 $74 $75 $38 $-1 $76 forward single #
face $-1 $77 $78 $39 $-1 $79 forward single #
face $-1 $80 $81 $30 $-1 $82 reversed single #
loop $-1 $-1 $83 $40 #
plane-surface $-1 0 0 14.788502931736909 0 0 1 1 0 0 forward_v I I I I #
face $-1 $84 $85 $31 $-1 $86 reversed single #
loop $-1 $-1 $87 $41 #
plane-surface $-1 -50.204168402218635 -17.919868800853983 0 0 -1 0 0 0 -1 forward_v I I I I #
face $-1 $88 $89 $32 $-1 $90 reversed single #
loop $-1 $-1 $91 $42 #
plane-surface $-1 -123.86343209975726 8.044666847722084 87.199038241542041 0 1 0 -0.64278761758704617 0 0.76604443648966558 forward_v I I I I #
face $-1 $92 $93 $33 $-1 $94 forward single #
loop $-1 $95 $96 $43 #
cone-surface $-1 -47.196263378637283 10.906042697947726 8.6808793619874276 0.64278761758704617 0 -0.76604443648966558 0.76604443648966558 0 0.64278761758704617 1 I I 0 1 1 forward I I I I #
face $-1 $97 $98 $34 $-1 $99 forward single #
loop $-1 $100 $101 $44 #
cone-surface $-1 -47.196263378637283 15.198106473286195 8.6808793619874276 0.64278761758704617 0 -0.76604443648966558 0.76604443648966558 0 0.64278761758704617 1 I I 0 1 1 forward I I I I #
face $-1 $102 $103 $35 $-1 $104 forward single #
loop $-1 $105 $106 $45 #
cone-surface $-1 -47.196263378637283 19.490170248624658 8.6808793619874276 0.64278761758704617 0 -0.76604443648966558 0.76604443648966558 0 0.64278761758704617 1 I I 0 1 1 forward I I I I #
face $-1 $107 $108 $36 $-1 $109 reversed single #
loop $-1 $-1 $110 $46 #
plane-surface $-1 56.868698733701073 20.819781022635695 159.52594729696182 0 1 0 0.71933980857756763 0 0.69465836192734942 forward_v I I I I #
face $-1 $111 $112 $37 $-1 $113 forward single #
loop $-1 $114 $115 $47 #
cone-surface $-1 49.437777931612608 23.868907217099682 9.9085344582515553 -0.71933980857756763 0 -0.69465836192734942 1.0419875428910241 0 -1.0790097128663514 1 I I 0 1 1.5 forward I I I I #
face $-1 $116 $117 $38 $-1 $118 forward single #
loop $-1 $119 $120 $48 #
cone-surface $-1 49.437777931612608 28.442596508795653 9.9085344582515553 -0.71933980857756763 0 -0.69465836192734942 1.0419875428910241 0 -1.0790097128663514 1 I I 0 1 1.5 forward I I I I #
face $-1 $121 $122 $39 $-1 $123 forward single #
loop $-1 $124 $125 $49 #
cone-surface $-1 49.437777931612608 33.016285800491623 9.9085344582515553 -0.71933980857756763 0 -0.69465836192734942 1.0419875428910241 0 -1.0790097128663514 1 I I 0 1 1.5 forward I I I I #
face $-1 $126 $127 $30 $-1 $128 reversed single #
loop $-1 $-1 $129 $50 #
plane-surface $-1 0 0 -14.788502931736909 0 0 1 1 0 0 forward_v I I I I #
coedge $-1 $130 $131 $132 $133 forward $51 $-1 #
face $-1 $134 $135 $31 $-1 $136 forward single #
loop $-1 $-1 $137 $53 #
plane-surface $-1 -46.214788417340493 -26.992640397904786 0 -1 0 0 0 0 1 forward_v I I I I #
coedge $-1 $138 $139 $140 $141 forward $54 $-1 #
face $-1 $142 $143 $32 $-1 $144 reversed single #
loop $-1 $-1 $145 $56 #
plane-surface $-1 -54.193548387096769 15.198106473286195 4.169705770404093 -0.64278761758704617 0 0.76604443648966558 0.76604443648966558 0 0.64278761758704617 forward_v I I I I #
coedge $-1 $146 $147 $148 $149 reversed $57 $-1 #
face $-1 $-1 $150 $33 $-1 $151 forward single #
loop $-1 $152 $153 $59 #
cone-surface $-1 -46.205079261878936 10.906042697947726 7.4996321546595279 0.64278761758704617 0 -0.76604443648966558 0.38302221824483279 0 0.32139380879352308 1 I I -0.70710678118654746 0.70710678118654746 0.5 forward I I I I #
loop $-1 $-1 $154 $43 #
coedge $-1 $96 $96 $155 $156 reversed $60 $-1 #
face $-1 $-1 $157 $34 $-1 $158 forward single #
loop $-1 $159 $160 $62 #
cone-surface $-1 -46.205079261878936 15.198106473286195 7.4996321546595279 0.64278761758704617 0 -0.76604443648966558 0.38302221824483279 0 0.32139380879352308 1 I I -0.70710678118654746 0.70710678118654746 0.5 forward I I I I #
loop $-1 $-1 $161 $44 #
coedge $-1 $101 $101 $162 $163 reversed $63 $-1 #
face $-1 $-1 $164 $35 $-1 $165 forward single #
loop $-1 $166 $167 $65 #
cone-surface $-1 -46.205079261878936 19.490170248624658 7.4996321546595279 0.64278761758704617 0 -0.76604443648966558 0.38302221824483279 0 0.32139380879352308 1 I I -0.70710678118654746 0.70710678118654746 0.5 forward I I I I #
loop $-1 $-1 $168 $45 #
coedge $-1 $106 $106 $169 $170 reversed $66 $-1 #
face $-1 $171 $172 $36 $-1 $173 forward single #
loop $-1 $-1 $174 $68 #
plane-surface $-1 -21.098454712125609 28.442596508795638 84.233944197739433 0.71933980857756763 0 0.69465836192734942 0.69465836192734942 0 -0.71933980857756763 forward_v I I I I #
coedge $-1 $175 $176 $177 $178 reversed $69 $-1 #
face $-1 $-1 $179 $37 $-1 $180 forward single #
loop $-1 $181 $182 $71 #
cone-surface $-1 48.257163419129292 23.868907217099682 8.7684283032327723 -0.71933980857756763 0 -0.69465836192734942 0.52099377144551207 0 -0.53950485643317569 1 I I -0.70710678118654757 0.70710678118654757 0.75 forward I I I I #
loop $-1 $-1 $183 $47 #
coedge $-1 $115 $115 $184 $185 reversed $72 $-1 #
face $-1 $-1 $186 $38 $-1 $187 forward single #
loop $-1 $188 $189 $74 #
cone-surface $-1 48.257163419129292 28.442596508795653 8.7684283032327723 -0.71933980857756763 0 -0.69465836192734942 0.52099377144551207 0 -0.53950485643317569 1 I I -0.70710678118654757 0.70710678118654757 0.75 forward I I I I #
loop $-1 $-1 $190 $48 #
coedge $-1 $120 $120 $191 $192 reversed $75 $-1 #
face $-1 $-1 $193 $39 $-1 $194 forward single #
loop $-1 $195 $196 $77 #
cone-surface $-1 48.257163419129292 33.016285800491623 8.7684283032327723 -0.71933980857756763 0 -0.69465836192734942 0.52099377144551207 0 -0.53950485643317569 1 I I -0.70710678118654757 0.70710678118654757 0.75 forward I I I I #
loop $-1 $-1 $197 $49 #
coedge $-1 $125 $125 $198 $199 reversed $78 $-1 #
face $-1 $200 $201 $30 $-1 $202 reversed single #
loop $-1 $-1 $203 $80 #
plane-surface $-1 0 -36.065411994955589 0 0 1 0 0 0 1 forward_v I I I I #
coedge $-1 $204 $205 $206 $207 forward $81 $-1 #
coedge $-1 $208 $83 $209 $210 forward $51 $-1 #
coedge $-1 $83 $208 $211 $212 forward $51 $-1 #
coedge $-1 $213 $214 $83 $133 reversed $215 $-1 #
edge $-1 $216 -36.065411994955589 $217 36.065411994955589 $132 $218 forward 7 unknown #
face $-1 $219 $220 $31 $-1 $221 reversed single #
loop $-1 $-1 $222 $84 #
plane-surface $-1 0 0 14.788502931736909 0 0 1 1 0 0 forward_v I I I I #
coedge $-1 $223 $224 $225 $226 reversed $85 $-1 #
coedge $-1 $227 $87 $228 $229 reversed $54 $-1 #
coedge $-1 $87 $227 $230 $231 reversed $54 $-1 #
coedge $-1 $224 $223 $87 $141 reversed $85 $-1 #
edge $-1 $232 -14.788502931736909 $233 14.788502931736909 $140 $234 forward 7 unknown #
face $-1 $235 $236 $32 $-1 $237 reversed single #
loop $-1 $-1 $238 $88 #
plane-surface $-1 -123.86343209975726 22.351546098850307 87.199038241542041 0 -1 0 0.64278761758704617 0 -0.76604443648966558 forward_v I I I I #
coedge $-1 $239 $240 $241 $242 reversed $89 $-1 #
coedge $-1 $147 $91 $243 $244 reversed $57 $-1 #
coedge $-1 $91 $146 $239 $245 reversed $57 $-1 #
coedge $-1 $241 $246 $91 $149 forward $247 $-1 #
edge $-1 $248 7.738167662781855 $249 20.393157063771199 $148 $250 forward 7 unknown #
loop $-1 $-1 $155 $92 #
plane-surface $-1 -54.193548387096769 15.198106473286195 4.169705770404093 -0.64278761758704617 0 0.76604443648966558 0.76604443648966558 0 0.64278761758704617 forward_v I I I I #
loop $-1 $-1 $251 $59 #
coedge $-1 $153 $153 $154 $252 reversed $93 $-1 #
coedge $-1 $154 $154 $153 $252 forward $95 $-1 #
coedge $-1 $155 $155 $96 $156 forward $150 $-1 #
edge $-1 $253 0 $253 6.2831853071796004 $155 $254 forward 7 unknown #
loop $-1 $-1 $162 $97 #
plane-surface $-1 -54.193548387096769 15.198106473286195 4.169705770404093 -0.64278761758704617 0 0.76604443648966558 0.76604443648966558 0 0.64278761758704617 forward_v I I I I #
loop $-1 $-1 $255 $62 #
coedge $-1 $160 $160 $161 $256 reversed $98 $-1 #
coedge $-1 $161 $161 $160 $256 forward $100 $-1 #
coedge $-1 $162 $162 $101 $163 forward $157 $-1 #
edge $-1 $257 0 $257 6.2831853071796004 $162 $258 forward 7 unknown #
loop $-1 $-1 $169 $102 #
plane-surface $-1 -54.193548387096769 15.198106473286195 4.169705770404093 -0.64278761758704617 0 0.76604443648966558 0.76604443648966558 0 0.64278761758704617 forward_v I I I I #
loop $-1 $-1 $259 $65 #
coedge $-1 $167 $167 $168 $260 reversed $103 $-1 #
coedge $-1 $168 $168 $167 $260 forward $105 $-1 #
coedge $-1 $169 $169 $106 $170 forward $164 $-1 #
edge $-1 $261 0 $261 6.2831853071796004 $169 $262 forward 7 unknown #
face $-1 $263 $264 $36 $-1 $265 reversed single #
loop $-1 $-1 $266 $107 #
plane-surface $-1 0 0 14.788502931736909 0 0 1 1 0 0 forward_v I I I I #
coedge $-1 $267 $268 $269 $270 reversed $108 $-1 #
coedge $-1 $176 $110 $271 $272 reversed $69 $-1 #
coedge $-1 $110 $175 $267 $273 reversed $69 $-1 #
coedge $-1 $269 $274 $110 $178 forward $275 $-1 #
edge $-1 $276 64.974470716743994 $277 73.496182896568158 $177 $278 forward 7 unknown #
loop $-1 $-1 $184 $111 #
plane-surface $-1 -21.098454712125609 28.442596508795638 84.233944197739433 0.71933980857756763 0 0.69465836192734942 0.69465836192734942 0 -0.71933980857756763 forward_v I I I I #
loop $-1 $-1 $279 $71 #
coedge $-1 $182 $182 $183 $280 reversed $112 $-1 #
coedge $-1 $183 $183 $182 $280 forward $114 $-1 #
coedge $-1 $184 $184 $115 $185 forward $179 $-1 #
edge $-1 $281 0 $281 6.2831853071796004 $184 $282 forward 7 unknown #
loop $-1 $-1 $191 $116 #
plane-surface $-1 -21.098454712125609 28.442596508795638 84.233944197739433 0.71933980857756763 0 0.69465836192734942 0.69465836192734942 0 -0.71933980857756763 forward_v I I I I #
loop $-1 $-1 $283 $74 #
coedge $-1 $189 $189 $190 $284 reversed $117 $-1 #
coedge $-1 $190 $190 $189 $284 forward $119 $-1 #
coedge $-1 $191 $191 $120 $192 forward $186 $-1 #
edge $-1 $285 0 $285 6.2831853071796004 $191 $286 forward 7 unknown #
loop $-1 $-1 $198 $121 #
plane-surface $-1 -21.098454712125609 28.442596508795638 84.233944197739433 0.71933980857756763 0 0.69465836192734942 0.69465836192734942 0 -0.71933980857756763 forward_v I I I I #
loop $-1 $-1 $287 $77 #
coedge $-1 $196 $196 $197 $288 reversed $122 $-1 #
coedge $-1 $197 $197 $196 $288 forward $124 $-1 #
coedge $-1 $198 $198 $125 $199 forward $193 $-1 #
edge $-1 $289 0 $289 6.2831853071796004 $198 $290 forward 7 unknown #
face $-1 $291 $292 $30 $-1 $293 reversed single #
loop $-1 $-1 $294 $126 #
plane-surface $-1 -54.193548387096776 0 0 1 0 0 0 0 -1 forward_v I I I I #
coedge $-1 $295 $211 $296 $297 forward $127 $-1 #
coedge $-1 $298 $129 $295 $299 forward $81 $-1 #
coedge $-1 $129 $298 $300 $301 forward $81 $-1 #
coedge $-1 $214 $213 $129 $207 reversed $215 $-1 #
edge $-1 $302 -36.065411994955589 $303 36.065411994955589 $206 $304 forward 7 unknown #
coedge $-1 $131 $130 $305 $306 forward $51 $-1 #
coedge $-1 $307 $308 $130 $210 reversed $292 $-1 #
edge $-1 $217 -54.193548387096776 $309 54.193548387096776 $209 $310 forward 7 unknown #
coedge $-1 $203 $311 $131 $212 reversed $127 $-1 #
edge $-1 $312 -54.193548387096776 $216 54.193548387096776 $211 $313 forward 7 unknown #
coedge $-1 $206 $132 $311 $314 forward $215 $-1 #
coedge $-1 $132 $206 $307 $315 reversed $215 $-1 #
loop $-1 $-1 $213 $291 #
vertex $-1 $133 $316 #
vertex $-1 $133 $317 #
straight-curve $-1 54.193548387096776 0 14.788502931736909 0 1 0 I I #
face $-1 $318 $319 $31 $-1 $320 reversed single #
loop $-1 $-1 $321 $134 #
plane-surface $-1 -54.193548387096776 0 0 1 0 0 0 0 -1 forward_v I I I I #
coedge $-1 $230 $322 $224 $323 forward $135 $-1 #
coedge $-1 $140 $137 $324 $325 reversed $85 $-1 #
coedge $-1 $137 $140 $222 $323 reversed $85 $-1 #
coedge $-1 $326 $327 $137 $226 forward $328 $-1 #
edge $-1 $329 -14.788502931736909 $330 14.788502931736909 $225 $331 forward 7 unknown #
coedge $-1 $139 $138 $321 $332 reversed $54 $-1 #
coedge $-1 $324 $333 $138 $229 forward $319 $-1 #
edge $-1 $334 -29.091464185987459 $233 -21.112704216231176 $228 $335 forward 7 unknown #
coedge $-1 $336 $222 $139 $231 forward $135 $-1 #
edge $-1 $232 21.112704216231176 $337 29.091464185987459 $230 $338 forward 7 unknown #
vertex $-1 $231 $339 #
vertex $-1 $229 $340 #
straight-curve $-1 -46.214788417340493 -17.919868800853983 0 0 0 -1 I I #
face $-1 $-1 $247 $32 $-1 $341 forward single #
loop $-1 $-1 $342 $142 #
plane-surface $-1 -54.193548387096776 0 0 1 0 0 0 0 -1 forward_v I I I I #
coedge $-1 $343 $344 $345 $346 reversed $143 $-1 #
coedge $-1 $347 $145 $147 $245 forward $89 $-1 #
coedge $-1 $145 $347 $343 $348 forward $89 $-1 #
coedge $-1 $345 $148 $145 $242 forward $247 $-1 #
edge $-1 $249 0.44561361107898634 $349 14.752492862207209 $241 $350 forward 7 unknown #
coedge $-1 $351 $352 $146 $244 forward $236 $-1 #
edge $-1 $353 -39.429813350366935 $248 -28.811016189034113 $243 $354 forward 7 unknown #
edge $-1 $249 -16.519915553436778 $353 9.439443728910611e-015 $147 $355 forward 7 unknown #
coedge $-1 $148 $345 $351 $356 forward $247 $-1 #
loop $-1 $-1 $345 $235 #
vertex $-1 $244 $357 #
vertex $-1 $149 $358 #
straight-curve $-1 -61.931716049878631 8.044666847722084 14.788502931736907 1 0 0 I I #
coedge $-1 $251 $251 $-1 $359 reversed $152 $-1 #
edge $-1 $360 0 $360 6.2831853071796004 $153 $361 forward 7 unknown #
vertex $-1 $156 $362 #
ellipse-curve $-1 -47.866053686602108 10.906042697947726 9.4791043510704966 -0.64278761758704617 0 0.76604443648966558 0.76604443648966558 0 0.64278761758704617 1 I I #
coedge $-1 $255 $255 $-1 $363 reversed $159 $-1 #
edge $-1 $364 0 $364 6.2831853071796004 $160 $365 forward 7 unknown #
vertex $-1 $163 $366 #
ellipse-curve $-1 -47.866053686602108 15.198106473286195 9.4791043510704966 -0.64278761758704617 0 0.76604443648966558 0.76604443648966558 0 0.64278761758704617 1 I I #
coedge $-1 $259 $259 $-1 $367 reversed $166 $-1 #
edge $-1 $368 0 $368 6.2831853071796004 $167 $369 forward 7 unknown #
vertex $-1 $170 $370 #
ellipse-curve $-1 -47.866053686602108 19.490170248624658 9.4791043510704966 -0.64278761758704617 0 0.76604443648966558 0.76604443648966558 0 0.64278761758704617 1 I I #
face $-1 $-1 $275 $36 $-1 $371 reversed single #
loop $-1 $-1 $372 $171 #
plane-surface $-1 0 36.065411994955589 0 0 -1 0 0 0 -1 forward_v I I I I #
coedge $-1 $271 $373 $374 $375 forward $172 $-1 #
coedge $-1 $374 $174 $176 $273 forward $108 $-1 #
coedge $-1 $174 $374 $372 $376 reversed $108 $-1 #
coedge $-1 $377 $177 $174 $270 forward $275 $-1 #
edge $-1 $277 6.5984827682378757 $378 21.84411374055777 $269 $379 forward 7 unknown #
coedge $-1 $380 $266 $175 $272 forward $172 $-1 #
edge $-1 $381 17.529877421378185 $276 25.759199020246239 $271 $382 forward 7 unknown #
edge $-1 $277 -108.38709677419354 $381 -96.54052290436266 $176 $383 forward 7 unknown #
coedge $-1 $177 $377 $380 $384 reversed $275 $-1 #
loop $-1 $-1 $269 $263 #
vertex $-1 $384 $385 #
vertex $-1 $178 $386 #
straight-curve $-1 54.193548387096776 20.819781022635695 79.762973648480909 0 0 -1 I I #
coedge $-1 $279 $279 $-1 $387 reversed $181 $-1 #
edge $-1 $388 0 $388 6.2831853071796004 $182 $389 forward 7 unknown #
vertex $-1 $185 $390 #
ellipse-curve $-1 50.078887587662749 23.868907217099682 10.527646841824827 0.71933980857756763 0 0.69465836192734942 1.0419875428910241 0 -1.0790097128663514 1 I I #
coedge $-1 $283 $283 $-1 $391 reversed $188 $-1 #
edge $-1 $392 0 $392 6.2831853071796004 $189 $393 forward 7 unknown #
vertex $-1 $192 $394 #
ellipse-curve $-1 50.078887587662749 28.442596508795653 10.527646841824827 0.71933980857756763 0 0.69465836192734942 1.0419875428910241 0 -1.0790097128663514 1 I I #
coedge $-1 $287 $287 $-1 $395 reversed $195 $-1 #
edge $-1 $396 0 $396 6.2831853071796004 $196 $397 forward 7 unknown #
vertex $-1 $199 $398 #
ellipse-curve $-1 50.078887587662749 33.016285800491623 10.527646841824827 0.71933980857756763 0 0.69465836192734942 1.0419875428910241 0 -1.0790097128663514 1 I I #
face $-1 $-1 $215 $30 $-1 $399 reversed single #
loop $-1 $-1 $307 $200 #
plane-surface $-1 0 36.065411994955589 0 0 -1 0 0 0 -1 forward_v I I I I #
coedge $-1 $400 $305 $308 $401 forward $201 $-1 #
coedge $-1 $311 $203 $204 $299 reversed $127 $-1 #
coedge $-1 $305 $400 $203 $297 reversed $201 $-1 #
edge $-1 $312 -14.788502931736909 $402 14.788502931736909 $296 $403 forward 7 unknown #
coedge $-1 $205 $204 $400 $404 forward $81 $-1 #
edge $-1 $303 -54.193548387096776 $402 54.193548387096776 $295 $405 forward 7 unknown #
coedge $-1 $308 $307 $205 $301 reversed $292 $-1 #
edge $-1 $406 -54.193548387096776 $302 54.193548387096776 $300 $407 forward 7 unknown #
vertex $-1 $207 $408 #
vertex $-1 $314 $409 #
straight-curve $-1 54.193548387096776 0 -14.788502931736909 0 -1 0 I I #
coedge $-1 $294 $296 $208 $306 reversed $201 $-1 #
edge $-1 $309 -36.065411994955589 $312 36.065411994955589 $305 $410 forward 7 unknown #
coedge $-1 $300 $209 $214 $315 forward $292 $-1 #
coedge $-1 $209 $300 $294 $401 reversed $292 $-1 #
vertex $-1 $210 $411 #
straight-curve $-1 0 36.065411994955589 14.788502931736909 -1 0 0 I I #
coedge $-1 $211 $295 $213 $314 reversed $127 $-1 #
vertex $-1 $306 $412 #
straight-curve $-1 0 -36.065411994955589 14.788502931736909 1 0 0 I I #
edge $-1 $216 -14.788502931736909 $303 14.788502931736909 $213 $413 forward 7 unknown #
edge $-1 $217 -14.788502931736909 $302 14.788502931736909 $214 $414 forward 7 unknown #
point $-1 54.193548387096776 -36.065411994955589 14.788502931736909 #
point $-1 54.193548387096776 36.065411994955589 14.788502931736909 #
face $-1 $-1 $328 $31 $-1 $415 reversed single #
loop $-1 $-1 $324 $219 #
plane-surface $-1 0 0 -14.788502931736909 0 0 1 1 0 0 forward_v I I I I #
coedge $-1 $416 $417 $227 $332 forward $220 $-1 #
coedge $-1 $222 $336 $326 $418 forward $135 $-1 #
edge $-1 $330 -22.569091796003196 $232 -4.4235486019015902 $222 $419 forward 7 unknown #
coedge $-1 $420 $228 $223 $325 forward $319 $-1 #
edge $-1 $233 4.4235486019015902 $329 22.569091796003196 $324 $421 forward 7 unknown #
coedge $-1 $422 $225 $322 $418 reversed $328 $-1 #
coedge $-1 $225 $422 $420 $423 reversed $328 $-1 #
loop $-1 $-1 $225 $318 #
vertex $-1 $423 $424 #
vertex $-1 $226 $425 #
straight-curve $-1 -46.214788417340493 -36.065411994955589 0 0 0 1 I I #
edge $-1 $337 -14.788502931736909 $334 14.788502931736909 $321 $426 forward 7 unknown #
coedge $-1 $228 $420 $416 $427 forward $319 $-1 #
vertex $-1 $229 $428 #
straight-curve $-1 -25.102084201109317 -17.919868800853983 -14.788502931736909 1 0 0 I I #
coedge $-1 $322 $230 $417 $429 forward $135 $-1 #
vertex $-1 $429 $430 #
straight-curve $-1 -25.102084201109317 -17.919868800853983 14.788502931736909 -1 0 0 I I #
point $-1 -46.214788417340493 -17.919868800853983 14.788502931736909 #
point $-1 -46.214788417340493 -17.919868800853983 -14.788502931736909 #
plane-surface $-1 0 0 14.788502931736909 0 0 1 1 0 0 forward_v I I I I #
coedge $-1 $352 $351 $344 $431 forward $236 $-1 #
coedge $-1 $344 $238 $240 $348 reversed $143 $-1 #
coedge $-1 $238 $343 $342 $431 reversed $143 $-1 #
coedge $-1 $246 $241 $238 $346 forward $247 $-1 #
edge $-1 $349 -20.393157063771199 $432 -7.738167662781855 $345 $433 forward 7 unknown #
coedge $-1 $240 $239 $352 $434 reversed $89 $-1 #
edge $-1 $435 -9.439443728910611e-015 $349 16.519915553436778 $343 $436 forward 7 unknown #
vertex $-1 $242 $437 #
straight-curve $-1 -41.538558986107425 7.5990532366430976 14.788502931736911 0 1 0 I I #
coedge $-1 $342 $243 $246 $356 reversed $236 $-1 #
coedge $-1 $243 $342 $347 $434 forward $236 $-1 #
vertex $-1 $244 $438 #
straight-curve $-1 -54.193548387096776 8.044666847722084 43.599519120771021 0 0 1 I I #
straight-curve $-1 -54.193548387096769 8.044666847722084 4.169705770404093 -0.76604443648966558 0 -0.64278761758704617 I I #
edge $-1 $432 -22.351546098850307 $248 -8.044666847722084 $351 $439 forward 7 unknown #
point $-1 -54.193548387096776 8.044666847722084 14.788502931736909 #
point $-1 -41.538558986107432 8.044666847722084 14.788502931736909 #
edge $-1 $440 1 $440 0 $251 $-1 forward 7 unknown #
vertex $-1 $252 $441 #
ellipse-curve $-1 -46.526473070672459 10.906042697947726 7.8826543729043603 -0.64278761758704617 0 0.76604443648966558 0.76604443648966558 0 0.64278761758704617 1 I I #
point $-1 -47.100009250112436 10.906042697947726 10.121891968657543 #
edge $-1 $442 1 $442 0 $255 $-1 forward 7 unknown #
vertex $-1 $256 $443 #
ellipse-curve $-1 -46.526473070672459 15.198106473286195 7.8826543729043603 -0.64278761758704617 0 0.76604443648966558 0.76604443648966558 0 0.64278761758704617 1 I I #
point $-1 -47.100009250112436 15.198106473286195 10.121891968657543 #
edge $-1 $444 1 $444 0 $259 $-1 forward 7 unknown #
vertex $-1 $260 $445 #
ellipse-curve $-1 -46.526473070672459 19.490170248624658 7.8826543729043603 -0.64278761758704617 0 0.76604443648966558 0.76604443648966558 0 0.64278761758704617 1 I I #
point $-1 -47.100009250112436 19.490170248624658 10.121891968657543 #
plane-surface $-1 54.193548387096776 0 0 -1 0 0 0 0 1 forward_v I I I I #
coedge $-1 $446 $447 $268 $376 forward $264 $-1 #
coedge $-1 $266 $380 $446 $448 forward $172 $-1 #
coedge $-1 $268 $267 $266 $375 reversed $108 $-1 #
edge $-1 $449 -21.844113740557763 $381 -6.5984827682378757 $266 $450 forward 7 unknown #
edge $-1 $378 -70.762573131964075 $449 -58.915999262133198 $372 $451 forward 7 unknown #
coedge $-1 $274 $269 $447 $452 reversed $275 $-1 #
vertex $-1 $270 $453 #
straight-curve $-1 54.193548387096769 14.221298254397819 6.266790751912751 0 1 0 I I #
coedge $-1 $373 $271 $274 $384 forward $172 $-1 #
vertex $-1 $272 $454 #
straight-curve $-1 28.434349366850537 20.819781022635695 14.788502931736915 1 0 0 I I #
straight-curve $-1 -21.098454712125609 20.819781022635695 84.233944197739433 -0.69465836192734942 0 0.71933980857756763 I I #
edge $-1 $276 20.819781022635695 $455 36.065411994955589 $274 $456 forward 7 unknown #
point $-1 54.193548387096776 20.819781022635695 14.788502931736909 #
point $-1 54.193548387096776 20.819781022635695 6.266790751912751 #
edge $-1 $457 1 $457 0 $279 $-1 forward 7 unknown #
vertex $-1 $280 $458 #
ellipse-curve $-1 48.796668275562467 23.868907217099682 9.289422074678285 0.71933980857756763 0 0.69465836192734942 1.0419875428910241 0 -1.0790097128663514 1 I I #
point $-1 51.120875130553777 23.868907217099682 9.4486371289584739 #
edge $-1 $459 1 $459 0 $283 $-1 forward 7 unknown #
vertex $-1 $284 $460 #
ellipse-curve $-1 48.796668275562467 28.442596508795653 9.289422074678285 0.71933980857756763 0 0.69465836192734942 1.0419875428910241 0 -1.0790097128663514 1 I I #
point $-1 51.120875130553777 28.442596508795653 9.4486371289584739 #
edge $-1 $461 1 $461 0 $287 $-1 forward 7 unknown #
vertex $-1 $288 $462 #
ellipse-curve $-1 48.796668275562467 33.016285800491623 9.289422074678285 0.71933980857756763 0 0.69465836192734942 1.0419875428910241 0 -1.0790097128663514 1 I I #
point $-1 51.120875130553777 33.016285800491623 9.4486371289584739 #
plane-surface $-1 54.193548387096776 0 0 -1 0 0 0 0 1 forward_v I I I I #
coedge $-1 $296 $294 $298 $404 reversed $201 $-1 #
edge $-1 $309 -14.788502931736909 $406 14.788502931736909 $308 $463 forward 7 unknown #
vertex $-1 $404 $464 #
straight-curve $-1 -54.193548387096776 -36.065411994955589 0 0 0 -1 I I #
edge $-1 $402 -36.065411994955589 $406 36.065411994955589 $400 $465 forward 7 unknown #
straight-curve $-1 0 -36.065411994955589 -14.788502931736909 -1 0 0 I I #
vertex $-1 $301 $466 #
straight-curve $-1 0 36.065411994955589 -14.788502931736909 1 0 0 I I #
point $-1 54.193548387096776 36.065411994955589 -14.788502931736909 #
point $-1 54.193548387096776 -36.065411994955589 -14.788502931736909 #
straight-curve $-1 -54.193548387096776 0 14.788502931736909 0 -1 0 I I #
point $-1 -54.193548387096776 36.065411994955589 14.788502931736909 #
point $-1 -54.193548387096776 -36.065411994955589 14.788502931736909 #
straight-curve $-1 54.193548387096776 -36.065411994955589 0 0 0 -1 I I #
straight-curve $-1 54.193548387096776 36.065411994955589 0 0 0 -1 I I #
plane-surface $-1 0 -36.065411994955589 0 0 1 0 0 0 1 forward_v I I I I #
coedge $-1 $467 $321 $333 $427 reversed $220 $-1 #
coedge $-1 $321 $467 $336 $429 reversed $220 $-1 #
edge $-1 $468 -54.193548387096776 $330 -46.214788417340493 $326 $469 forward 7 unknown #
straight-curve $-1 -46.214788417340493 -13.496320198952393 14.788502931736909 0 1 0 I I #
coedge $-1 $333 $324 $327 $423 forward $319 $-1 #
straight-curve $-1 -46.214788417340493 -13.496320198952393 -14.788502931736909 0 -1 0 I I #
coedge $-1 $327 $326 $467 $470 forward $328 $-1 #
edge $-1 $329 46.214788417340493 $471 54.193548387096776 $327 $472 forward 7 unknown #
point $-1 -46.214788417340493 -36.065411994955589 -14.788502931736909 #
point $-1 -46.214788417340493 -36.065411994955589 14.788502931736909 #
straight-curve $-1 -54.193548387096776 -17.919868800853983 0 0 0 -1 I I #
edge $-1 $471 -36.065411994955589 $334 -17.919868800853983 $416 $473 forward 7 unknown #
point $-1 -54.193548387096776 -17.919868800853983 -14.788502931736909 #
edge $-1 $337 17.919868800853983 $468 36.065411994955589 $417 $474 forward 7 unknown #
point $-1 -54.193548387096776 -17.919868800853983 14.788502931736909 #
edge $-1 $432 28.811016189034113 $435 39.429813350366935 $342 $475 forward 7 unknown #
vertex $-1 $356 $476 #
straight-curve $-1 -61.931716049878631 22.351546098850307 14.788502931736907 -1 0 0 I I #
edge $-1 $435 -14.752492862207209 $353 -0.44561361107898634 $352 $477 forward 7 unknown #
vertex $-1 $434 $478 #
straight-curve $-1 -54.193548387096769 22.351546098850307 4.169705770404093 0.76604443648966558 0 0.64278761758704617 I I #
point $-1 -41.538558986107432 22.351546098850307 14.788502931736909 #
point $-1 -54.193548387096776 8.044666847722084 4.1697057704040867 #
straight-curve $-1 -54.193548387096776 0 14.788502931736909 0 -1 0 I I #
vertex $-1 $359 $479 #
point $-1 -45.760428634182794 10.906042697947726 8.5254419904914069 #
vertex $-1 $363 $480 #
point $-1 -45.760428634182794 15.198106473286195 8.5254419904914069 #
vertex $-1 $367 $481 #
point $-1 -45.760428634182794 19.490170248624658 8.5254419904914069 #
coedge $-1 $447 $372 $373 $448 reversed $264 $-1 #
coedge $-1 $372 $446 $377 $452 forward $264 $-1 #
edge $-1 $455 -54.193548387096776 $449 -45.964226788228721 $446 $482 forward 7 unknown #
vertex $-1 $375 $483 #
straight-curve $-1 45.964226788228714 14.221298254397819 14.788502931736915 0 -1 0 I I #
straight-curve $-1 5.0377352494823455 36.065411994955589 57.169126563115917 -0.69465836192734942 0 0.71933980857756763 I I #
edge $-1 $455 -14.788502931736909 $378 -6.2667907519127457 $377 $484 forward 7 unknown #
point $-1 54.193548387096776 36.065411994955589 6.2667907519127457 #
point $-1 45.964226788228721 20.819781022635695 14.788502931736915 #
vertex $-1 $384 $485 #
straight-curve $-1 54.193548387096776 0 14.788502931736909 0 1 0 I I #
vertex $-1 $387 $486 #
point $-1 49.838655818453489 23.868907217099682 8.2104123618119331 #
vertex $-1 $391 $487 #
point $-1 49.838655818453489 28.442596508795653 8.2104123618119331 #
vertex $-1 $395 $488 #
point $-1 49.838655818453489 33.016285800491623 8.2104123618119331 #
straight-curve $-1 -54.193548387096776 36.065411994955589 0 0 0 -1 I I #
point $-1 -54.193548387096776 -36.065411994955589 -14.788502931736909 #
straight-curve $-1 -54.193548387096776 0 -14.788502931736909 0 1 0 I I #
point $-1 -54.193548387096776 36.065411994955589 -14.788502931736909 #
coedge $-1 $417 $416 $422 $470 reversed $220 $-1 #
vertex $-1 $429 $489 #
straight-curve $-1 0 -36.065411994955589 14.788502931736909 1 0 0 I I #
edge $-1 $468 -14.788502931736909 $471 14.788502931736909 $467 $490 forward 7 unknown #
vertex $-1 $427 $491 #
straight-curve $-1 0 -36.065411994955589 -14.788502931736909 -1 0 0 I I #
straight-curve $-1 -54.193548387096776 0 -14.788502931736909 0 1 0 I I #
straight-curve $-1 -54.193548387096776 0 14.788502931736909 0 -1 0 I I #
straight-curve $-1 -54.193548387096776 22.351546098850307 43.599519120771021 0 0 -1 I I #
point $-1 -54.193548387096776 22.351546098850307 14.788502931736909 #
straight-curve $-1 -54.193548387096776 7.5990532366430976 4.169705770404085 0 -1 0 I I #
point $-1 -54.193548387096776 22.351546098850307 4.1697057704040867 #
point $-1 -45.883685453085413 10.906042697947726 7.1166099364146955 #
point $-1 -45.883685453085413 15.198106473286195 7.1166099364146955 #
point $-1 -45.883685453085413 19.490170248624658 7.1166099364146955 #
straight-curve $-1 0 36.065411994955589 14.788502931736909 -1 0 0 I I #
point $-1 45.964226788228721 36.065411994955582 14.788502931736915 #
straight-curve $-1 54.193548387096776 36.065411994955589 0 0 0 -1 I I #
point $-1 54.193548387096776 36.065411994955589 14.788502931736909 #
point $-1 47.717658562696116 23.868907217099682 8.2474345317872597 #
point $-1 47.717658562696116 28.442596508795653 8.2474345317872597 #
point $-1 47.717658562696116 33.016285800491623 8.2474345317872597 #
point $-1 -54.193548387096776 -36.065411994955589 14.788502931736909 #
straight-curve $-1 -54.193548387096776 -36.065411994955589 0 0 0 -1 I I #
point $-1 -54.193548387096776 -36.065411994955589 -14.788502931736909 #
End-of-ACIS-data 