500 0 10 0           
7 Unknown 11 ACIS 5.0 NT 24 Fri Mar 26 17:13:14 1999 
-1 9.9999999999999995e-007 1e-010 
body $-1 $10 $-1 $11 #
body $-1 $12 $-1 $13 #
body $-1 $14 $-1 $15 #
body $-1 $16 $-1 $17 #
body $-1 $18 $-1 $19 #
body $-1 $20 $-1 $21 #
body $-1 $22 $-1 $23 #
body $-1 $24 $-1 $25 #
body $-1 $26 $-1 $27 #
body $-1 $28 $-1 $29 #
lump $-1 $-1 $30 $0 #
transform $-1 1 0 0 0 1 0 0 0 1 47.389141514328443 31.99573334342303 13.513747111615437 1 rotate no_reflect no_shear #
lump $-1 $-1 $31 $1 #
transform $-1 1 0 0 0 1 0 0 0 1 18.597426564902729 5.9522638897593731 13.513747111615437 1 rotate no_reflect no_shear #
lump $-1 $-1 $32 $2 #
transform $-1 1 0 0 0 1 0 0 0 1 18.597426564902729 58.039202797086688 13.513747111615437 1 rotate no_reflect no_shear #
lump $-1 $-1 $33 $3 #
transform $-1 0.65605901945558964 0 0.75470958851134928 0 1 0 -0.75470958851134928 0 0.65605901945558964 -71.530078984369851 42.452259155414907 84.989642323013811 1 rotate no_reflect no_shear #
lump $-1 $-1 $34 $4 #
transform $-1 0.65605901945558964 0 0.75470958851134928 0 -1 0 0.75470958851134928 0 -0.65605901945558964 2.7767123775650475 40.72956389082848 24.098420784070356 1 rotate no_reflect no_shear #
lump $-1 $-1 $35 $5 #
transform $-1 0.65605901945558964 0 0.75470958851134928 0 -1 0 0.75470958851134928 0 -0.65605901945558964 2.7767123775650475 44.17495442000132 24.098420784070356 1 rotate no_reflect no_shear #
lump $-1 $-1 $36 $6 #
transform $-1 0.75470957328743171 0 -0.6560590369687036 0 1 0 0.6560590369687036 0 0.75470957328743171 85.428354576511666 22.168763213188335 150.55807043228106 1 rotate no_reflect no_shear #
lump $-1 $-1 $37 $7 #
transform $-1 0.75470957328743171 0 -0.6560590369687036 0 -1 0 -0.6560590369687036 0 -0.75470957328743171 86.041210488403834 22.168763213188335 18.622424044849382 1 rotate no_reflect no_shear #
lump $-1 $-1 $38 $8 #
transform $-1 0.75470957328743171 0 -0.6560590369687036 0 1 0 0.6560590369687036 0 0.75470957328743171 85.428354576511666 42.259968777092617 150.55807043228106 1 rotate no_reflect no_shear #
lump $-1 $-1 $39 $9 #
transform $-1 0.75470957328743171 0 -0.6560590369687036 0 -1 0 -0.6560590369687036 0 -0.75470957328743171 86.041210488403834 42.259968777092617 18.622424044849382 1 rotate no_reflect no_shear #
shell $-1 $-1 $-1 $40 $-1 $10 #
shell $-1 $-1 $-1 $41 $-1 $12 #
shell $-1 $-1 $-1 $42 $-1 $14 #
shell $-1 $-1 $-1 $43 $-1 $16 #
shell $-1 $-1 $-1 $44 $-1 $18 #
shell $-1 $-1 $-1 $45 $-1 $20 #
shell $-1 $-1 $-1 $46 $-1 $22 #
shell $-1 $-1 $-1 $47 $-1 $24 #
shell $-1 $-1 $-1 $48 $-1 $26 #
shell $-1 $-1 $-1 $49 $-1 $28 #
face $-1 $50 $51 $30 $-1 $52 forward single #
face $-1 $53 $54 $31 $-1 $55 forward single #
face $-1 $56 $57 $32 $-1 $58 forward single #
face $-1 $59 $60 $33 $-1 $61 forward single #
face $-1 $62 $63 $34 $-1 $64 forward single #
face $-1 $65 $66 $35 $-1 $67 forward single #
face $-1 $68 $69 $36 $-1 $70 forward single #
face $-1 $71 $72 $37 $-1 $73 forward single #
face $-1 $74 $75 $38 $-1 $76 forward single #
face $-1 $77 $78 $39 $-1 $79 forward single #
face $-1 $80 $81 $30 $-1 $82 reversed single #
loop $-1 $-1 $83 $40 #
plane-surface $-1 0 0 13.513747111615437 0 0 1 1 0 0 forward_v I I I I #
face $-1 $84 $85 $31 $-1 $86 reversed single #
loop $-1 $-1 $87 $41 #
plane-surface $-1 0 0 13.513747111615437 0 0 1 1 0 0 forward_v I I I I #
face $-1 $88 $89 $32 $-1 $90 reversed single #
loop $-1 $-1 $91 $42 #
plane-surface $-1 0 0 13.513747111615437 0 0 1 1 0 0 forward_v I I I I #
face $-1 $92 $93 $33 $-1 $94 reversed single #
loop $-1 $-1 $95 $43 #
plane-surface $-1 0 0 94.778283028656887 0 0 1 1 0 0 forward_v I I I I #
face $-1 $96 $97 $34 $-1 $98 forward single #
loop $-1 $99 $100 $44 #
cone-surface $-1 0 0 -0.75 0 0 1 0.5 0 0 1 I I 0 1 0.5 forward I I I I #
face $-1 $101 $102 $35 $-1 $103 forward single #
loop $-1 $104 $105 $45 #
cone-surface $-1 0 0 -0.75 0 0 1 0.5 0 0 1 I I 0 1 0.5 forward I I I I #
face $-1 $106 $107 $36 $-1 $108 reversed single #
loop $-1 $-1 $109 $46 #
plane-surface $-1 0 0 94.778283028656887 0 0 1 1 0 0 forward_v I I I I #
face $-1 $110 $111 $37 $-1 $112 forward single #
loop $-1 $113 $114 $47 #
cone-surface $-1 0 0 -2.6963713492233037 0 0 1 2 0 0 1 I I 0 1 2 forward I I I I #
face $-1 $115 $116 $38 $-1 $117 reversed single #
loop $-1 $-1 $118 $48 #
plane-surface $-1 0 0 94.778283028656887 0 0 1 1 0 0 forward_v I I I I #
face $-1 $119 $120 $39 $-1 $121 forward single #
loop $-1 $122 $123 $49 #
cone-surface $-1 0 0 -2.6963713492233037 0 0 1 2 0 0 1 I I 0 1 2 forward I I I I #
face $-1 $124 $125 $30 $-1 $126 reversed single #
loop $-1 $-1 $127 $50 #
plane-surface $-1 0 0 -13.513747111615437 0 0 1 1 0 0 forward_v I I I I #
coedge $-1 $128 $129 $130 $131 forward $51 $-1 #
face $-1 $132 $133 $31 $-1 $134 reversed single #
loop $-1 $-1 $135 $53 #
plane-surface $-1 0 0 -13.513747111615437 0 0 1 1 0 0 forward_v I I I I #
coedge $-1 $136 $137 $138 $139 forward $54 $-1 #
face $-1 $140 $141 $32 $-1 $142 reversed single #
loop $-1 $-1 $143 $56 #
plane-surface $-1 0 0 -13.513747111615437 0 0 1 1 0 0 forward_v I I I I #
coedge $-1 $144 $145 $146 $147 forward $57 $-1 #
face $-1 $148 $149 $33 $-1 $150 reversed single #
loop $-1 $-1 $151 $59 #
plane-surface $-1 0 0 -94.778283028656887 0 0 1 1 0 0 forward_v I I I I #
coedge $-1 $152 $153 $154 $155 forward $60 $-1 #
face $-1 $-1 $156 $34 $-1 $157 forward single #
loop $-1 $-1 $158 $62 #
plane-surface $-1 0 0 -1.25 0 0 -1 -1 0 0 forward_v I I I I #
loop $-1 $-1 $159 $44 #
coedge $-1 $100 $100 $158 $160 reversed $63 $-1 #
face $-1 $-1 $161 $35 $-1 $162 forward single #
loop $-1 $-1 $163 $65 #
plane-surface $-1 0 0 -1.25 0 0 -1 -1 0 0 forward_v I I I I #
loop $-1 $-1 $164 $45 #
coedge $-1 $105 $105 $163 $165 reversed $66 $-1 #
face $-1 $166 $167 $36 $-1 $168 reversed single #
loop $-1 $-1 $169 $68 #
plane-surface $-1 0 0 -94.778283028656887 0 0 1 1 0 0 forward_v I I I I #
coedge $-1 $170 $171 $172 $173 forward $69 $-1 #
face $-1 $-1 $174 $37 $-1 $175 forward single #
loop $-1 $-1 $176 $71 #
plane-surface $-1 0 0 -4.3927426984466074 0 0 -1 -1 0 0 forward_v I I I I #
loop $-1 $-1 $177 $47 #
coedge $-1 $114 $114 $176 $178 reversed $72 $-1 #
face $-1 $179 $180 $38 $-1 $181 reversed single #
loop $-1 $-1 $182 $74 #
plane-surface $-1 0 0 -94.778283028656887 0 0 1 1 0 0 forward_v I I I I #
coedge $-1 $183 $184 $185 $186 forward $75 $-1 #
face $-1 $-1 $187 $39 $-1 $188 forward single #
loop $-1 $-1 $189 $77 #
plane-surface $-1 0 0 -4.3927426984466074 0 0 -1 -1 0 0 forward_v I I I I #
loop $-1 $-1 $190 $49 #
coedge $-1 $123 $123 $189 $191 reversed $78 $-1 #
face $-1 $192 $193 $30 $-1 $194 reversed single #
loop $-1 $-1 $195 $80 #
plane-surface $-1 0 -31.99573334342303 0 0 1 0 0 0 1 forward_v I I I I #
coedge $-1 $196 $197 $198 $199 forward $81 $-1 #
coedge $-1 $200 $83 $201 $202 forward $51 $-1 #
coedge $-1 $83 $200 $203 $204 forward $51 $-1 #
coedge $-1 $205 $206 $83 $131 reversed $207 $-1 #
edge $-1 $208 -31.99573334342303 $209 31.99573334342303 $130 $210 forward 7 unknown #
face $-1 $211 $212 $31 $-1 $213 reversed single #
loop $-1 $-1 $214 $84 #
plane-surface $-1 0 -5.9522638897593731 0 0 1 0 0 0 1 forward_v I I I I #
coedge $-1 $215 $216 $217 $218 forward $85 $-1 #
coedge $-1 $219 $87 $220 $221 forward $54 $-1 #
coedge $-1 $87 $219 $222 $223 forward $54 $-1 #
coedge $-1 $224 $225 $87 $139 reversed $226 $-1 #
edge $-1 $227 -5.9522638897593731 $228 5.9522638897593731 $138 $229 forward 7 unknown #
face $-1 $230 $231 $32 $-1 $232 reversed single #
loop $-1 $-1 $233 $88 #
plane-surface $-1 0 -5.9522638897593723 0 0 1 0 0 0 1 forward_v I I I I #
coedge $-1 $234 $235 $236 $237 forward $89 $-1 #
coedge $-1 $238 $91 $239 $240 forward $57 $-1 #
coedge $-1 $91 $238 $241 $242 forward $57 $-1 #
coedge $-1 $243 $244 $91 $147 reversed $245 $-1 #
edge $-1 $246 -5.9522638897593723 $247 5.9522638897593723 $146 $248 forward 7 unknown #
face $-1 $249 $250 $33 $-1 $251 reversed single #
loop $-1 $-1 $252 $92 #
plane-surface $-1 0 -4.019622284034984 0 0 1 0 0 0 1 forward_v I I I I #
coedge $-1 $253 $254 $255 $256 forward $93 $-1 #
coedge $-1 $257 $95 $258 $259 forward $60 $-1 #
coedge $-1 $95 $257 $260 $261 forward $60 $-1 #
coedge $-1 $262 $263 $95 $155 reversed $264 $-1 #
edge $-1 $265 -4.019622284034984 $266 4.019622284034984 $154 $267 forward 7 unknown #
loop $-1 $268 $269 $96 #
cone-surface $-1 0 0 0 0 0 1 0.25 0 0 1 I I -0.70710678118654746 0.70710678118654746 0.25 forward I I I I #
coedge $-1 $158 $158 $100 $160 forward $97 $-1 #
coedge $-1 $159 $159 $269 $270 forward $99 $-1 #
edge $-1 $271 0 $271 6.2831853071796004 $158 $272 forward 7 unknown #
loop $-1 $273 $274 $101 #
cone-surface $-1 0 0 0 0 0 1 0.25 0 0 1 I I -0.70710678118654746 0.70710678118654746 0.25 forward I I I I #
coedge $-1 $163 $163 $105 $165 forward $102 $-1 #
coedge $-1 $164 $164 $274 $275 forward $104 $-1 #
edge $-1 $276 0 $276 6.2831853071796004 $163 $277 forward 7 unknown #
face $-1 $278 $279 $36 $-1 $280 reversed single #
loop $-1 $-1 $281 $106 #
plane-surface $-1 0 -4.885507458253187 0 0 1 0 0 0 1 forward_v I I I I #
coedge $-1 $282 $283 $284 $285 forward $107 $-1 #
coedge $-1 $286 $109 $287 $288 forward $69 $-1 #
coedge $-1 $109 $286 $289 $290 forward $69 $-1 #
coedge $-1 $291 $292 $109 $173 reversed $293 $-1 #
edge $-1 $294 -4.885507458253187 $295 4.885507458253187 $172 $296 forward 7 unknown #
loop $-1 $297 $298 $110 #
cone-surface $-1 0 0 0 0 0 1 1 0 0 1 I I -0.70710678118654746 0.70710678118654746 1 forward I I I I #
coedge $-1 $176 $176 $114 $178 forward $111 $-1 #
coedge $-1 $177 $177 $298 $299 forward $113 $-1 #
edge $-1 $300 0 $300 6.2831853071796004 $176 $301 forward 7 unknown #
face $-1 $302 $303 $38 $-1 $304 reversed single #
loop $-1 $-1 $305 $115 #
plane-surface $-1 0 -4.885507458253187 0 0 1 0 0 0 1 forward_v I I I I #
coedge $-1 $306 $307 $308 $309 forward $116 $-1 #
coedge $-1 $310 $118 $311 $312 forward $75 $-1 #
coedge $-1 $118 $310 $313 $314 forward $75 $-1 #
coedge $-1 $315 $316 $118 $186 reversed $317 $-1 #
edge $-1 $318 -4.885507458253187 $319 4.885507458253187 $185 $320 forward 7 unknown #
loop $-1 $321 $322 $119 #
cone-surface $-1 0 0 0 0 0 1 1 0 0 1 I I -0.70710678118654746 0.70710678118654746 1 forward I I I I #
coedge $-1 $189 $189 $123 $191 forward $120 $-1 #
coedge $-1 $190 $190 $322 $323 forward $122 $-1 #
edge $-1 $324 0 $324 6.2831853071796004 $189 $325 forward 7 unknown #
face $-1 $326 $327 $30 $-1 $328 reversed single #
loop $-1 $-1 $329 $124 #
plane-surface $-1 -47.389141514328443 0 0 1 0 0 0 0 -1 forward_v I I I I #
coedge $-1 $330 $203 $331 $332 forward $125 $-1 #
coedge $-1 $333 $127 $330 $334 forward $81 $-1 #
coedge $-1 $127 $333 $335 $336 forward $81 $-1 #
coedge $-1 $206 $205 $127 $199 reversed $207 $-1 #
edge $-1 $337 -31.99573334342303 $338 31.99573334342303 $198 $339 forward 7 unknown #
coedge $-1 $129 $128 $340 $341 forward $51 $-1 #
coedge $-1 $342 $343 $128 $202 reversed $327 $-1 #
edge $-1 $209 -47.389141514328443 $344 47.389141514328443 $201 $345 forward 7 unknown #
coedge $-1 $195 $346 $129 $204 reversed $125 $-1 #
edge $-1 $347 -47.389141514328443 $208 47.389141514328443 $203 $348 forward 7 unknown #
coedge $-1 $198 $130 $346 $349 forward $207 $-1 #
coedge $-1 $130 $198 $342 $350 reversed $207 $-1 #
loop $-1 $-1 $205 $326 #
vertex $-1 $131 $351 #
vertex $-1 $131 $352 #
straight-curve $-1 47.389141514328443 0 13.513747111615437 0 1 0 I I #
face $-1 $353 $354 $31 $-1 $355 reversed single #
loop $-1 $-1 $356 $132 #
plane-surface $-1 -3.9332027597511292 0 0 1 0 0 0 0 -1 forward_v I I I I #
coedge $-1 $357 $222 $358 $359 forward $133 $-1 #
coedge $-1 $360 $135 $357 $361 forward $85 $-1 #
coedge $-1 $135 $360 $362 $363 forward $85 $-1 #
coedge $-1 $225 $224 $135 $218 reversed $226 $-1 #
edge $-1 $364 -5.9522638897593731 $365 5.9522638897593731 $217 $366 forward 7 unknown #
coedge $-1 $137 $136 $367 $368 forward $54 $-1 #
coedge $-1 $369 $370 $136 $221 reversed $354 $-1 #
edge $-1 $228 -3.9332027597511292 $371 3.9332027597511292 $220 $372 forward 7 unknown #
coedge $-1 $214 $373 $137 $223 reversed $133 $-1 #
edge $-1 $374 -3.9332027597511292 $227 3.9332027597511292 $222 $375 forward 7 unknown #
coedge $-1 $217 $138 $373 $376 forward $226 $-1 #
coedge $-1 $138 $217 $369 $377 reversed $226 $-1 #
loop $-1 $-1 $224 $353 #
vertex $-1 $139 $378 #
vertex $-1 $139 $379 #
straight-curve $-1 3.9332027597511292 0 13.513747111615437 0 1 0 I I #
face $-1 $380 $381 $32 $-1 $382 reversed single #
loop $-1 $-1 $383 $140 #
plane-surface $-1 -3.9332027597511292 0 0 1 0 0 0 0 -1 forward_v I I I I #
coedge $-1 $384 $241 $385 $386 forward $141 $-1 #
coedge $-1 $387 $143 $384 $388 forward $89 $-1 #
coedge $-1 $143 $387 $389 $390 forward $89 $-1 #
coedge $-1 $244 $243 $143 $237 reversed $245 $-1 #
edge $-1 $391 -5.9522638897593723 $392 5.9522638897593723 $236 $393 forward 7 unknown #
coedge $-1 $145 $144 $394 $395 forward $57 $-1 #
coedge $-1 $396 $397 $144 $240 reversed $381 $-1 #
edge $-1 $247 -3.9332027597511292 $398 3.9332027597511292 $239 $399 forward 7 unknown #
coedge $-1 $233 $400 $145 $242 reversed $141 $-1 #
edge $-1 $401 -3.9332027597511292 $246 3.9332027597511292 $241 $402 forward 7 unknown #
coedge $-1 $236 $146 $400 $403 forward $245 $-1 #
coedge $-1 $146 $236 $396 $404 reversed $245 $-1 #
loop $-1 $-1 $243 $380 #
vertex $-1 $147 $405 #
vertex $-1 $147 $406 #
straight-curve $-1 3.9332027597511292 0 13.513747111615437 0 1 0 I I #
face $-1 $407 $408 $33 $-1 $409 reversed single #
loop $-1 $-1 $410 $148 #
plane-surface $-1 -189.55656605731377 0 0 1 0 0 0 0 -1 forward_v I I I I #
coedge $-1 $411 $260 $412 $413 forward $149 $-1 #
coedge $-1 $414 $151 $411 $415 forward $93 $-1 #
coedge $-1 $151 $414 $416 $417 forward $93 $-1 #
coedge $-1 $263 $262 $151 $256 reversed $264 $-1 #
edge $-1 $418 -4.019622284034984 $419 4.019622284034984 $255 $420 forward 7 unknown #
coedge $-1 $153 $152 $421 $422 forward $60 $-1 #
coedge $-1 $423 $424 $152 $259 reversed $408 $-1 #
edge $-1 $266 -189.55656605731377 $425 189.55656605731377 $258 $426 forward 7 unknown #
coedge $-1 $252 $427 $153 $261 reversed $149 $-1 #
edge $-1 $428 -189.55656605731377 $265 189.55656605731377 $260 $429 forward 7 unknown #
coedge $-1 $255 $154 $427 $430 forward $264 $-1 #
coedge $-1 $154 $255 $423 $431 reversed $264 $-1 #
loop $-1 $-1 $262 $407 #
vertex $-1 $155 $432 #
vertex $-1 $155 $433 #
straight-curve $-1 189.55656605731377 0 94.778283028656887 0 1 0 I I #
loop $-1 $-1 $434 $96 #
coedge $-1 $269 $269 $159 $270 reversed $156 $-1 #
edge $-1 $435 0 $435 6.2831853071796004 $269 $436 forward 7 unknown #
vertex $-1 $160 $437 #
ellipse-curve $-1 0 0 -1.25 0 0 -1 0.5 0 0 1 I I #
loop $-1 $-1 $438 $101 #
coedge $-1 $274 $274 $164 $275 reversed $161 $-1 #
edge $-1 $439 0 $439 6.2831853071796004 $274 $440 forward 7 unknown #
vertex $-1 $165 $441 #
ellipse-curve $-1 0 0 -1.25 0 0 -1 0.5 0 0 1 I I #
face $-1 $442 $443 $36 $-1 $444 reversed single #
loop $-1 $-1 $445 $166 #
plane-surface $-1 -189.55656605731377 0 0 1 0 0 0 0 -1 forward_v I I I I #
coedge $-1 $446 $289 $447 $448 forward $167 $-1 #
coedge $-1 $449 $169 $446 $450 forward $107 $-1 #
coedge $-1 $169 $449 $451 $452 forward $107 $-1 #
coedge $-1 $292 $291 $169 $285 reversed $293 $-1 #
edge $-1 $453 -4.885507458253187 $454 4.885507458253187 $284 $455 forward 7 unknown #
coedge $-1 $171 $170 $456 $457 forward $69 $-1 #
coedge $-1 $458 $459 $170 $288 reversed $443 $-1 #
edge $-1 $295 -189.55656605731377 $460 189.55656605731377 $287 $461 forward 7 unknown #
coedge $-1 $281 $462 $171 $290 reversed $167 $-1 #
edge $-1 $463 -189.55656605731377 $294 189.55656605731377 $289 $464 forward 7 unknown #
coedge $-1 $284 $172 $462 $465 forward $293 $-1 #
coedge $-1 $172 $284 $458 $466 reversed $293 $-1 #
loop $-1 $-1 $291 $442 #
vertex $-1 $173 $467 #
vertex $-1 $173 $468 #
straight-curve $-1 189.55656605731377 0 94.778283028656887 0 1 0 I I #
loop $-1 $-1 $469 $110 #
coedge $-1 $298 $298 $177 $299 reversed $174 $-1 #
edge $-1 $470 0 $470 6.2831853071796004 $298 $471 forward 7 unknown #
vertex $-1 $178 $472 #
ellipse-curve $-1 0 0 -4.3927426984466074 0 0 -1 2 0 0 1 I I #
face $-1 $473 $474 $38 $-1 $475 reversed single #
loop $-1 $-1 $476 $179 #
plane-surface $-1 -189.55656605731377 0 0 1 0 0 0 0 -1 forward_v I I I I #
coedge $-1 $477 $313 $478 $479 forward $180 $-1 #
coedge $-1 $480 $182 $477 $481 forward $116 $-1 #
coedge $-1 $182 $480 $482 $483 forward $116 $-1 #
coedge $-1 $316 $315 $182 $309 reversed $317 $-1 #
edge $-1 $484 -4.885507458253187 $485 4.885507458253187 $308 $486 forward 7 unknown #
coedge $-1 $184 $183 $487 $488 forward $75 $-1 #
coedge $-1 $489 $490 $183 $312 reversed $474 $-1 #
edge $-1 $319 -189.55656605731377 $491 189.55656605731377 $311 $492 forward 7 unknown #
coedge $-1 $305 $493 $184 $314 reversed $180 $-1 #
edge $-1 $494 -189.55656605731377 $318 189.55656605731377 $313 $495 forward 7 unknown #
coedge $-1 $308 $185 $493 $496 forward $317 $-1 #
coedge $-1 $185 $308 $489 $497 reversed $317 $-1 #
loop $-1 $-1 $315 $473 #
vertex $-1 $186 $498 #
vertex $-1 $186 $499 #
straight-curve $-1 189.55656605731377 0 94.778283028656887 0 1 0 I I #
loop $-1 $-1 $500 $119 #
coedge $-1 $322 $322 $190 $323 reversed $187 $-1 #
edge $-1 $501 0 $501 6.2831853071796004 $322 $502 forward 7 unknown #
vertex $-1 $191 $503 #
ellipse-curve $-1 0 0 -4.3927426984466074 0 0 -1 2 0 0 1 I I #
face $-1 $-1 $207 $30 $-1 $504 reversed single #
loop $-1 $-1 $342 $192 #
plane-surface $-1 0 31.99573334342303 0 0 -1 0 0 0 -1 forward_v I I I I #
coedge $-1 $505 $340 $343 $506 forward $193 $-1 #
coedge $-1 $346 $195 $196 $334 reversed $125 $-1 #
coedge $-1 $340 $505 $195 $332 reversed $193 $-1 #
edge $-1 $347 -13.513747111615437 $507 13.513747111615437 $331 $508 forward 7 unknown #
coedge $-1 $197 $196 $505 $509 forward $81 $-1 #
edge $-1 $338 -47.389141514328443 $507 47.389141514328443 $330 $510 forward 7 unknown #
coedge $-1 $343 $342 $197 $336 reversed $327 $-1 #
edge $-1 $511 -47.389141514328443 $337 47.389141514328443 $335 $512 forward 7 unknown #
vertex $-1 $199 $513 #
vertex $-1 $349 $514 #
straight-curve $-1 47.389141514328443 0 -13.513747111615437 0 -1 0 I I #
coedge $-1 $329 $331 $200 $341 reversed $193 $-1 #
edge $-1 $344 -31.99573334342303 $347 31.99573334342303 $340 $515 forward 7 unknown #
coedge $-1 $335 $201 $206 $350 forward $327 $-1 #
coedge $-1 $201 $335 $329 $506 reversed $327 $-1 #
vertex $-1 $202 $516 #
straight-curve $-1 0 31.99573334342303 13.513747111615437 -1 0 0 I I #
coedge $-1 $203 $330 $205 $349 reversed $125 $-1 #
vertex $-1 $341 $517 #
straight-curve $-1 0 -31.99573334342303 13.513747111615437 1 0 0 I I #
edge $-1 $208 -13.513747111615437 $338 13.513747111615437 $205 $518 forward 7 unknown #
edge $-1 $209 -13.513747111615437 $337 13.513747111615437 $206 $519 forward 7 unknown #
point $-1 47.389141514328443 -31.99573334342303 13.513747111615437 #
point $-1 47.389141514328443 31.99573334342303 13.513747111615437 #
face $-1 $-1 $226 $31 $-1 $520 reversed single #
loop $-1 $-1 $369 $211 #
plane-surface $-1 0 5.9522638897593731 0 0 -1 0 0 0 -1 forward_v I I I I #
coedge $-1 $521 $367 $370 $522 forward $212 $-1 #
coedge $-1 $373 $214 $215 $361 reversed $133 $-1 #
coedge $-1 $367 $521 $214 $359 reversed $212 $-1 #
edge $-1 $374 -13.513747111615437 $523 13.513747111615437 $358 $524 forward 7 unknown #
coedge $-1 $216 $215 $521 $525 forward $85 $-1 #
edge $-1 $365 -3.9332027597511292 $523 3.9332027597511292 $357 $526 forward 7 unknown #
coedge $-1 $370 $369 $216 $363 reversed $354 $-1 #
edge $-1 $527 -3.9332027597511292 $364 3.9332027597511292 $362 $528 forward 7 unknown #
vertex $-1 $218 $529 #
vertex $-1 $376 $530 #
straight-curve $-1 3.9332027597511292 0 -13.513747111615437 0 -1 0 I I #
coedge $-1 $356 $358 $219 $368 reversed $212 $-1 #
edge $-1 $371 -5.9522638897593731 $374 5.9522638897593731 $367 $531 forward 7 unknown #
coedge $-1 $362 $220 $225 $377 forward $354 $-1 #
coedge $-1 $220 $362 $356 $522 reversed $354 $-1 #
vertex $-1 $221 $532 #
straight-curve $-1 0 5.9522638897593731 13.513747111615437 -1 0 0 I I #
coedge $-1 $222 $357 $224 $376 reversed $133 $-1 #
vertex $-1 $368 $533 #
straight-curve $-1 0 -5.9522638897593731 13.513747111615437 1 0 0 I I #
edge $-1 $227 -13.513747111615437 $365 13.513747111615437 $224 $534 forward 7 unknown #
edge $-1 $228 -13.513747111615437 $364 13.513747111615437 $225 $535 forward 7 unknown #
point $-1 3.9332027597511292 -5.9522638897593731 13.513747111615437 #
point $-1 3.9332027597511292 5.9522638897593731 13.513747111615437 #
face $-1 $-1 $245 $32 $-1 $536 reversed single #
loop $-1 $-1 $396 $230 #
plane-surface $-1 0 5.9522638897593723 0 0 -1 0 0 0 -1 forward_v I I I I #
coedge $-1 $537 $394 $397 $538 forward $231 $-1 #
coedge $-1 $400 $233 $234 $388 reversed $141 $-1 #
coedge $-1 $394 $537 $233 $386 reversed $231 $-1 #
edge $-1 $401 -13.513747111615437 $539 13.513747111615437 $385 $540 forward 7 unknown #
coedge $-1 $235 $234 $537 $541 forward $89 $-1 #
edge $-1 $392 -3.9332027597511292 $539 3.9332027597511292 $384 $542 forward 7 unknown #
coedge $-1 $397 $396 $235 $390 reversed $381 $-1 #
edge $-1 $543 -3.9332027597511292 $391 3.9332027597511292 $389 $544 forward 7 unknown #
vertex $-1 $237 $545 #
vertex $-1 $403 $546 #
straight-curve $-1 3.9332027597511292 0 -13.513747111615437 0 -1 0 I I #
coedge $-1 $383 $385 $238 $395 reversed $231 $-1 #
edge $-1 $398 -5.9522638897593723 $401 5.9522638897593723 $394 $547 forward 7 unknown #
coedge $-1 $389 $239 $244 $404 forward $381 $-1 #
coedge $-1 $239 $389 $383 $538 reversed $381 $-1 #
vertex $-1 $240 $548 #
straight-curve $-1 0 5.9522638897593723 13.513747111615437 -1 0 0 I I #
coedge $-1 $241 $384 $243 $403 reversed $141 $-1 #
vertex $-1 $395 $549 #
straight-curve $-1 0 -5.9522638897593723 13.513747111615437 1 0 0 I I #
edge $-1 $246 -13.513747111615437 $392 13.513747111615437 $243 $550 forward 7 unknown #
edge $-1 $247 -13.513747111615437 $391 13.513747111615437 $244 $551 forward 7 unknown #
point $-1 3.9332027597511292 -5.9522638897593723 13.513747111615437 #
point $-1 3.9332027597511292 5.9522638897593723 13.513747111615437 #
face $-1 $-1 $264 $33 $-1 $552 reversed single #
loop $-1 $-1 $423 $249 #
plane-surface $-1 0 4.019622284034984 0 0 -1 0 0 0 -1 forward_v I I I I #
coedge $-1 $553 $421 $424 $554 forward $250 $-1 #
coedge $-1 $427 $252 $253 $415 reversed $149 $-1 #
coedge $-1 $421 $553 $252 $413 reversed $250 $-1 #
edge $-1 $428 -94.778283028656887 $555 94.778283028656887 $412 $556 forward 7 unknown #
coedge $-1 $254 $253 $553 $557 forward $93 $-1 #
edge $-1 $419 -189.55656605731377 $555 189.55656605731377 $411 $558 forward 7 unknown #
coedge $-1 $424 $423 $254 $417 reversed $408 $-1 #
edge $-1 $559 -189.55656605731377 $418 189.55656605731377 $416 $560 forward 7 unknown #
vertex $-1 $256 $561 #
vertex $-1 $430 $562 #
straight-curve $-1 189.55656605731377 0 -94.778283028656887 0 -1 0 I I #
coedge $-1 $410 $412 $257 $422 reversed $250 $-1 #
edge $-1 $425 -4.019622284034984 $428 4.019622284034984 $421 $563 forward 7 unknown #
coedge $-1 $416 $258 $263 $431 forward $408 $-1 #
coedge $-1 $258 $416 $410 $554 reversed $408 $-1 #
vertex $-1 $259 $564 #
straight-curve $-1 0 4.019622284034984 94.778283028656887 -1 0 0 I I #
coedge $-1 $260 $411 $262 $430 reversed $149 $-1 #
vertex $-1 $422 $565 #
straight-curve $-1 0 -4.019622284034984 94.778283028656887 1 0 0 I I #
edge $-1 $265 -94.778283028656887 $419 94.778283028656887 $262 $566 forward 7 unknown #
edge $-1 $266 -94.778283028656887 $418 94.778283028656887 $263 $567 forward 7 unknown #
point $-1 189.55656605731377 -4.019622284034984 94.778283028656887 #
point $-1 189.55656605731377 4.019622284034984 94.778283028656887 #
coedge $-1 $434 $434 $-1 $568 reversed $268 $-1 #
vertex $-1 $270 $569 #
ellipse-curve $-1 0 0 -0.25 0 0 -1 0.5 0 0 1 I I #
point $-1 0.5 0 -1.25 #
coedge $-1 $438 $438 $-1 $570 reversed $273 $-1 #
vertex $-1 $275 $571 #
ellipse-curve $-1 0 0 -0.25 0 0 -1 0.5 0 0 1 I I #
point $-1 0.5 0 -1.25 #
face $-1 $-1 $293 $36 $-1 $572 reversed single #
loop $-1 $-1 $458 $278 #
plane-surface $-1 0 4.885507458253187 0 0 -1 0 0 0 -1 forward_v I I I I #
coedge $-1 $573 $456 $459 $574 forward $279 $-1 #
coedge $-1 $462 $281 $282 $450 reversed $167 $-1 #
coedge $-1 $456 $573 $281 $448 reversed $279 $-1 #
edge $-1 $463 -94.778283028656887 $575 94.778283028656887 $447 $576 forward 7 unknown #
coedge $-1 $283 $282 $573 $577 forward $107 $-1 #
edge $-1 $454 -189.55656605731377 $575 189.55656605731377 $446 $578 forward 7 unknown #
coedge $-1 $459 $458 $283 $452 reversed $443 $-1 #
edge $-1 $579 -189.55656605731377 $453 189.55656605731377 $451 $580 forward 7 unknown #
vertex $-1 $285 $581 #
vertex $-1 $465 $582 #
straight-curve $-1 189.55656605731377 0 -94.778283028656887 0 -1 0 I I #
coedge $-1 $445 $447 $286 $457 reversed $279 $-1 #
edge $-1 $460 -4.885507458253187 $463 4.885507458253187 $456 $583 forward 7 unknown #
coedge $-1 $451 $287 $292 $466 forward $443 $-1 #
coedge $-1 $287 $451 $445 $574 reversed $443 $-1 #
vertex $-1 $288 $584 #
straight-curve $-1 0 4.885507458253187 94.778283028656887 -1 0 0 I I #
coedge $-1 $289 $446 $291 $465 reversed $167 $-1 #
vertex $-1 $457 $585 #
straight-curve $-1 0 -4.885507458253187 94.778283028656887 1 0 0 I I #
edge $-1 $294 -94.778283028656887 $454 94.778283028656887 $291 $586 forward 7 unknown #
edge $-1 $295 -94.778283028656887 $453 94.778283028656887 $292 $587 forward 7 unknown #
point $-1 189.55656605731377 -4.885507458253187 94.778283028656887 #
point $-1 189.55656605731377 4.885507458253187 94.778283028656887 #
coedge $-1 $469 $469 $-1 $588 reversed $297 $-1 #
vertex $-1 $299 $589 #
ellipse-curve $-1 0 0 -1 0 0 -1 2 0 0 1 I I #
point $-1 2 0 -4.3927426984466074 #
face $-1 $-1 $317 $38 $-1 $590 reversed single #
loop $-1 $-1 $489 $302 #
plane-surface $-1 0 4.885507458253187 0 0 -1 0 0 0 -1 forward_v I I I I #
coedge $-1 $591 $487 $490 $592 forward $303 $-1 #
coedge $-1 $493 $305 $306 $481 reversed $180 $-1 #
coedge $-1 $487 $591 $305 $479 reversed $303 $-1 #
edge $-1 $494 -94.778283028656887 $593 94.778283028656887 $478 $594 forward 7 unknown #
coedge $-1 $307 $306 $591 $595 forward $116 $-1 #
edge $-1 $485 -189.55656605731377 $593 189.55656605731377 $477 $596 forward 7 unknown #
coedge $-1 $490 $489 $307 $483 reversed $474 $-1 #
edge $-1 $597 -189.55656605731377 $484 189.55656605731377 $482 $598 forward 7 unknown #
vertex $-1 $309 $599 #
vertex $-1 $496 $600 #
straight-curve $-1 189.55656605731377 0 -94.778283028656887 0 -1 0 I I #
coedge $-1 $476 $478 $310 $488 reversed $303 $-1 #
edge $-1 $491 -4.885507458253187 $494 4.885507458253187 $487 $601 forward 7 unknown #
coedge $-1 $482 $311 $316 $497 forward $474 $-1 #
coedge $-1 $311 $482 $476 $592 reversed $474 $-1 #
vertex $-1 $312 $602 #
straight-curve $-1 0 4.885507458253187 94.778283028656887 -1 0 0 I I #
coedge $-1 $313 $477 $315 $496 reversed $180 $-1 #
vertex $-1 $488 $603 #
straight-curve $-1 0 -4.885507458253187 94.778283028656887 1 0 0 I I #
edge $-1 $318 -94.778283028656887 $485 94.778283028656887 $315 $604 forward 7 unknown #
edge $-1 $319 -94.778283028656887 $484 94.778283028656887 $316 $605 forward 7 unknown #
point $-1 189.55656605731377 -4.885507458253187 94.778283028656887 #
point $-1 189.55656605731377 4.885507458253187 94.778283028656887 #
coedge $-1 $500 $500 $-1 $606 reversed $321 $-1 #
vertex $-1 $323 $607 #
ellipse-curve $-1 0 0 -1 0 0 -1 2 0 0 1 I I #
point $-1 2 0 -4.3927426984466074 #
plane-surface $-1 47.389141514328443 0 0 -1 0 0 0 0 1 forward_v I I I I #
coedge $-1 $331 $329 $333 $509 reversed $193 $-1 #
edge $-1 $344 -13.513747111615437 $511 13.513747111615437 $343 $608 forward 7 unknown #
vertex $-1 $509 $609 #
straight-curve $-1 -47.389141514328443 -31.99573334342303 0 0 0 -1 I I #
edge $-1 $507 -31.99573334342303 $511 31.99573334342303 $505 $610 forward 7 unknown #
straight-curve $-1 0 -31.99573334342303 -13.513747111615437 -1 0 0 I I #
vertex $-1 $336 $611 #
straight-curve $-1 0 31.99573334342303 -13.513747111615437 1 0 0 I I #
point $-1 47.389141514328443 31.99573334342303 -13.513747111615437 #
point $-1 47.389141514328443 -31.99573334342303 -13.513747111615437 #
straight-curve $-1 -47.389141514328443 0 13.513747111615437 0 -1 0 I I #
point $-1 -47.389141514328443 31.99573334342303 13.513747111615437 #
point $-1 -47.389141514328443 -31.99573334342303 13.513747111615437 #
straight-curve $-1 47.389141514328443 -31.99573334342303 0 0 0 -1 I I #
straight-curve $-1 47.389141514328443 31.99573334342303 0 0 0 -1 I I #
plane-surface $-1 3.9332027597511292 0 0 -1 0 0 0 0 1 forward_v I I I I #
coedge $-1 $358 $356 $360 $525 reversed $212 $-1 #
edge $-1 $371 -13.513747111615437 $527 13.513747111615437 $370 $612 forward 7 unknown #
vertex $-1 $525 $613 #
straight-curve $-1 -3.9332027597511292 -5.9522638897593731 0 0 0 -1 I I #
edge $-1 $523 -5.9522638897593731 $527 5.9522638897593731 $521 $614 forward 7 unknown #
straight-curve $-1 0 -5.9522638897593731 -13.513747111615437 -1 0 0 I I #
vertex $-1 $363 $615 #
straight-curve $-1 0 5.9522638897593731 -13.513747111615437 1 0 0 I I #
point $-1 3.9332027597511292 5.9522638897593731 -13.513747111615437 #
point $-1 3.9332027597511292 -5.9522638897593731 -13.513747111615437 #
straight-curve $-1 -3.9332027597511292 0 13.513747111615437 0 -1 0 I I #
point $-1 -3.9332027597511292 5.9522638897593731 13.513747111615437 #
point $-1 -3.9332027597511292 -5.9522638897593731 13.513747111615437 #
straight-curve $-1 3.9332027597511292 -5.9522638897593731 0 0 0 -1 I I #
straight-curve $-1 3.9332027597511292 5.9522638897593731 0 0 0 -1 I I #
plane-surface $-1 3.9332027597511292 0 0 -1 0 0 0 0 1 forward_v I I I I #
coedge $-1 $385 $383 $387 $541 reversed $231 $-1 #
edge $-1 $398 -13.513747111615437 $543 13.513747111615437 $397 $616 forward 7 unknown #
vertex $-1 $541 $617 #
straight-curve $-1 -3.9332027597511292 -5.9522638897593723 0 0 0 -1 I I #
edge $-1 $539 -5.9522638897593723 $543 5.9522638897593723 $537 $618 forward 7 unknown #
straight-curve $-1 0 -5.9522638897593723 -13.513747111615437 -1 0 0 I I #
vertex $-1 $390 $619 #
straight-curve $-1 0 5.9522638897593723 -13.513747111615437 1 0 0 I I #
point $-1 3.9332027597511292 5.9522638897593723 -13.513747111615437 #
point $-1 3.9332027597511292 -5.9522638897593723 -13.513747111615437 #
straight-curve $-1 -3.9332027597511292 0 13.513747111615437 0 -1 0 I I #
point $-1 -3.9332027597511292 5.9522638897593723 13.513747111615437 #
point $-1 -3.9332027597511292 -5.9522638897593723 13.513747111615437 #
straight-curve $-1 3.9332027597511292 -5.9522638897593723 0 0 0 -1 I I #
straight-curve $-1 3.9332027597511292 5.9522638897593723 0 0 0 -1 I I #
plane-surface $-1 189.55656605731377 0 0 -1 0 0 0 0 1 forward_v I I I I #
coedge $-1 $412 $410 $414 $557 reversed $250 $-1 #
edge $-1 $425 -94.778283028656887 $559 94.778283028656887 $424 $620 forward 7 unknown #
vertex $-1 $557 $621 #
straight-curve $-1 -189.55656605731377 -4.019622284034984 0 0 0 -1 I I #
edge $-1 $555 -4.019622284034984 $559 4.019622284034984 $553 $622 forward 7 unknown #
straight-curve $-1 0 -4.019622284034984 -94.778283028656887 -1 0 0 I I #
vertex $-1 $417 $623 #
straight-curve $-1 0 4.019622284034984 -94.778283028656887 1 0 0 I I #
point $-1 189.55656605731377 4.019622284034984 -94.778283028656887 #
point $-1 189.55656605731377 -4.019622284034984 -94.778283028656887 #
straight-curve $-1 -189.55656605731377 0 94.778283028656887 0 -1 0 I I #
point $-1 -189.55656605731377 4.019622284034984 94.778283028656887 #
point $-1 -189.55656605731377 -4.019622284034984 94.778283028656887 #
straight-curve $-1 189.55656605731377 -4.019622284034984 0 0 0 -1 I I #
straight-curve $-1 189.55656605731377 4.019622284034984 0 0 0 -1 I I #
edge $-1 $624 1 $624 0 $434 $-1 forward 7 unknown #
point $-1 0.5 0 -0.25 #
edge $-1 $625 1 $625 0 $438 $-1 forward 7 unknown #
point $-1 0.5 0 -0.25 #
plane-surface $-1 189.55656605731377 0 0 -1 0 0 0 0 1 forward_v I I I I #
coedge $-1 $447 $445 $449 $577 reversed $279 $-1 #
edge $-1 $460 -94.778283028656887 $579 94.778283028656887 $459 $626 forward 7 unknown #
vertex $-1 $577 $627 #
straight-curve $-1 -189.55656605731377 -4.885507458253187 0 0 0 -1 I I #
edge $-1 $575 -4.885507458253187 $579 4.885507458253187 $573 $628 forward 7 unknown #
straight-curve $-1 0 -4.885507458253187 -94.778283028656887 -1 0 0 I I #
vertex $-1 $452 $629 #
straight-curve $-1 0 4.885507458253187 -94.778283028656887 1 0 0 I I #
point $-1 189.55656605731377 4.885507458253187 -94.778283028656887 #
point $-1 189.55656605731377 -4.885507458253187 -94.778283028656887 #
straight-curve $-1 -189.55656605731377 0 94.778283028656887 0 -1 0 I I #
point $-1 -189.55656605731377 4.885507458253187 94.778283028656887 #
point $-1 -189.55656605731377 -4.885507458253187 94.778283028656887 #
straight-curve $-1 189.55656605731377 -4.885507458253187 0 0 0 -1 I I #
straight-curve $-1 189.55656605731377 4.885507458253187 0 0 0 -1 I I #
edge $-1 $630 1 $630 0 $469 $-1 forward 7 unknown #
point $-1 2 0 -1 #
plane-surface $-1 189.55656605731377 0 0 -1 0 0 0 0 1 forward_v I I I I #
coedge $-1 $478 $476 $480 $595 reversed $303 $-1 #
edge $-1 $491 -94.778283028656887 $597 94.778283028656887 $490 $631 forward 7 unknown #
vertex $-1 $595 $632 #
straight-curve $-1 -189.55656605731377 -4.885507458253187 0 0 0 -1 I I #
edge $-1 $593 -4.885507458253187 $597 4.885507458253187 $591 $633 forward 7 unknown #
straight-curve $-1 0 -4.885507458253187 -94.778283028656887 -1 0 0 I I #
vertex $-1 $483 $634 #
straight-curve $-1 0 4.885507458253187 -94.778283028656887 1 0 0 I I #
point $-1 189.55656605731377 4.885507458253187 -94.778283028656887 #
point $-1 189.55656605731377 -4.885507458253187 -94.778283028656887 #
straight-curve $-1 -189.55656605731377 0 94.778283028656887 0 -1 0 I I #
point $-1 -189.55656605731377 4.885507458253187 94.778283028656887 #
point $-1 -189.55656605731377 -4.885507458253187 94.778283028656887 #
straight-curve $-1 189.55656605731377 -4.885507458253187 0 0 0 -1 I I #
straight-curve $-1 189.55656605731377 4.885507458253187 0 0 0 -1 I I #
edge $-1 $635 1 $635 0 $500 $-1 forward 7 unknown #
point $-1 2 0 -1 #
straight-curve $-1 -47.389141514328443 31.99573334342303 0 0 0 -1 I I #
point $-1 -47.389141514328443 -31.99573334342303 -13.513747111615437 #
straight-curve $-1 -47.389141514328443 0 -13.513747111615437 0 1 0 I I #
point $-1 -47.389141514328443 31.99573334342303 -13.513747111615437 #
straight-curve $-1 -3.9332027597511292 5.9522638897593731 0 0 0 -1 I I #
point $-1 -3.9332027597511292 -5.9522638897593731 -13.513747111615437 #
straight-curve $-1 -3.9332027597511292 0 -13.513747111615437 0 1 0 I I #
point $-1 -3.9332027597511292 5.9522638897593731 -13.513747111615437 #
straight-curve $-1 -3.9332027597511292 5.9522638897593723 0 0 0 -1 I I #
point $-1 -3.9332027597511292 -5.9522638897593723 -13.513747111615437 #
straight-curve $-1 -3.9332027597511292 0 -13.513747111615437 0 1 0 I I #
point $-1 -3.9332027597511292 5.9522638897593723 -13.513747111615437 #
straight-curve $-1 -189.55656605731377 4.019622284034984 0 0 0 -1 I I #
point $-1 -189.55656605731377 -4.019622284034984 -94.778283028656887 #
straight-curve $-1 -189.55656605731377 0 -94.778283028656887 0 1 0 I I #
point $-1 -189.55656605731377 4.019622284034984 -94.778283028656887 #
vertex $-1 $568 $636 #
vertex $-1 $570 $637 #
straight-curve $-1 -189.55656605731377 4.885507458253187 0 0 0 -1 I I #
point $-1 -189.55656605731377 -4.885507458253187 -94.778283028656887 #
straight-curve $-1 -189.55656605731377 0 -94.778283028656887 0 1 0 I I #
point $-1 -189.55656605731377 4.885507458253187 -94.778283028656887 #
vertex $-1 $588 $638 #
straight-curve $-1 -189.55656605731377 4.885507458253187 0 0 0 -1 I I #
point $-1 -189.55656605731377 -4.885507458253187 -94.778283028656887 #
straight-curve $-1 -189.55656605731377 0 -94.778283028656887 0 1 0 I I #
point $-1 -189.55656605731377 4.885507458253187 -94.778283028656887 #
vertex $-1 $606 $639 #
point $-1 0 0 0.25 #
point $-1 0 0 0.25 #
point $-1 0 0 1 #
point $-1 0 0 1 #
End-of-ACIS-data 