500 0 3 0           
7 Unknown 11 ACIS 5.0 NT 24 Thu Mar 25 18:51:18 1999 
-1 9.9999999999999995e-007 1e-010 
body $-1 $3 $-1 $4 #
body $-1 $5 $-1 $6 #
body $-1 $7 $-1 $8 #
lump $-1 $-1 $9 $0 #
transform $-1 1 0 0 0 1 0 0 0 1 73.310342722861407 36.163631632550647 17.781840991673523 1 rotate no_reflect no_shear #
lump $-1 $-1 $10 $1 #
transform $-1 1 0 0 0 1 0 0 0 1 73.310342722861407 36.163631632550647 17.781840991673523 1 rotate no_reflect no_shear #
lump $-1 $-1 $11 $2 #
transform $-1 1 0 0 0 1 0 0 0 1 73.310342722861407 36.163631632550647 17.781840991673523 1 rotate no_reflect no_shear #
shell $-1 $-1 $-1 $12 $-1 $3 #
shell $-1 $-1 $-1 $13 $-1 $5 #
shell $-1 $-1 $-1 $14 $-1 $7 #
face $-1 $15 $16 $9 $-1 $17 forward single #
face $-1 $18 $19 $10 $-1 $20 reversed single #
face $-1 $21 $22 $11 $-1 $23 forward single #
face $-1 $24 $25 $9 $-1 $26 reversed single #
loop $-1 $-1 $27 $12 #
plane-surface $-1 0 0 17.781840991673523 0 0 1 1 0 0 forward_v I I I I #
face $-1 $28 $29 $10 $-1 $30 forward single #
loop $-1 $-1 $31 $13 #
plane-surface $-1 0 -24.47274545456419 -13.731421215873088 0 0 1 1 0 0 forward_v I I I I #
face $-1 $32 $33 $11 $-1 $34 forward single #
loop $-1 $-1 $35 $14 #
plane-surface $-1 -41.860193650705028 18.850976836884726 0 0 1 0 0 0 1 forward_v I I I I #
face $-1 $36 $37 $9 $-1 $38 reversed single #
loop $-1 $-1 $39 $15 #
plane-surface $-1 0 0 -17.781840991673523 0 0 1 1 0 0 forward_v I I I I #
coedge $-1 $40 $41 $42 $43 forward $16 $-1 #
face $-1 $44 $45 $10 $-1 $46 reversed single #
loop $-1 $-1 $47 $18 #
plane-surface $-1 0 -12.781859276577734 -15.756631103773305 0 -1 0 0 0 -1 forward_v I I I I #
coedge $-1 $48 $49 $50 $51 reversed $19 $-1 #
face $-1 $52 $53 $11 $-1 $54 forward single #
loop $-1 $-1 $55 $21 #
plane-surface $-1 -45.973726561895688 27.507304234717687 0 1 0 0 0 0 -1 forward_v I I I I #
coedge $-1 $56 $57 $58 $59 reversed $22 $-1 #
face $-1 $60 $61 $9 $-1 $62 reversed single #
loop $-1 $-1 $63 $24 #
plane-surface $-1 0 -36.163631632550647 0 0 1 0 0 0 1 forward_v I I I I #
coedge $-1 $64 $65 $66 $67 forward $25 $-1 #
coedge $-1 $68 $27 $69 $70 forward $16 $-1 #
coedge $-1 $27 $68 $71 $72 forward $16 $-1 #
coedge $-1 $73 $74 $27 $43 reversed $75 $-1 #
edge $-1 $76 -36.163631632550647 $77 36.163631632550647 $42 $78 forward 7 unknown #
face $-1 $79 $80 $10 $-1 $81 reversed single #
loop $-1 $-1 $82 $28 #
plane-surface $-1 0 -36.163631632550647 0 0 1 0 0 0 1 forward_v I I I I #
coedge $-1 $83 $84 $85 $86 reversed $29 $-1 #
coedge $-1 $87 $31 $82 $88 reversed $19 $-1 #
coedge $-1 $31 $87 $83 $89 reversed $19 $-1 #
coedge $-1 $85 $90 $31 $51 forward $91 $-1 #
edge $-1 $92 -23.927258905268552 $93 -0.54548654929563867 $50 $94 forward 7 unknown #
face $-1 $95 $96 $11 $-1 $97 reversed single #
loop $-1 $-1 $98 $32 #
plane-surface $-1 -37.746660739514368 27.507304234717687 0 -1 0 0 0 0 1 forward_v I I I I #
coedge $-1 $99 $100 $101 $102 reversed $33 $-1 #
coedge $-1 $103 $35 $104 $105 reversed $22 $-1 #
coedge $-1 $35 $103 $106 $107 reversed $22 $-1 #
coedge $-1 $100 $99 $35 $59 forward $33 $-1 #
edge $-1 $108 -17.781840991673523 $109 17.781840991673523 $58 $110 forward 7 unknown #
face $-1 $111 $112 $9 $-1 $113 reversed single #
loop $-1 $-1 $114 $36 #
plane-surface $-1 -73.310342722861407 0 0 1 0 0 0 0 -1 forward_v I I I I #
coedge $-1 $115 $71 $116 $117 forward $37 $-1 #
coedge $-1 $118 $39 $115 $119 forward $25 $-1 #
coedge $-1 $39 $118 $120 $121 forward $25 $-1 #
coedge $-1 $74 $73 $39 $67 reversed $75 $-1 #
edge $-1 $122 -36.163631632550647 $123 36.163631632550647 $66 $124 forward 7 unknown #
coedge $-1 $41 $40 $125 $126 forward $16 $-1 #
coedge $-1 $127 $128 $40 $70 reversed $112 $-1 #
edge $-1 $77 -73.310342722861407 $129 73.310342722861407 $69 $130 forward 7 unknown #
coedge $-1 $63 $131 $41 $72 reversed $37 $-1 #
edge $-1 $132 -73.310342722861407 $76 73.310342722861407 $71 $133 forward 7 unknown #
coedge $-1 $66 $42 $131 $134 forward $75 $-1 #
coedge $-1 $42 $66 $127 $135 reversed $75 $-1 #
loop $-1 $-1 $73 $111 #
vertex $-1 $43 $136 #
vertex $-1 $43 $137 #
straight-curve $-1 73.310342722861407 0 17.781840991673523 0 1 0 I I #
face $-1 $138 $139 $10 $-1 $140 forward single #
loop $-1 $-1 $141 $44 #
plane-surface $-1 0 0 -17.781840991673523 0 0 1 1 0 0 forward_v I I I I #
coedge $-1 $142 $143 $48 $88 forward $45 $-1 #
coedge $-1 $144 $47 $49 $89 forward $29 $-1 #
coedge $-1 $47 $144 $141 $145 reversed $29 $-1 #
coedge $-1 $146 $50 $47 $86 forward $91 $-1 #
edge $-1 $93 5.8531056639864349 $147 9.9035254397868702 $85 $148 forward 7 unknown #
coedge $-1 $49 $48 $149 $150 reversed $19 $-1 #
edge $-1 $151 -73.310342722861407 $92 73.310342722861407 $82 $152 forward 7 unknown #
edge $-1 $93 -73.310342722861407 $153 73.310342722861407 $83 $154 forward 7 unknown #
coedge $-1 $50 $155 $142 $156 forward $91 $-1 #
loop $-1 $-1 $85 $157 #
vertex $-1 $88 $158 #
vertex $-1 $51 $159 #
straight-curve $-1 73.310342722861407 -12.236372727282095 -13.731421215873088 0 1 0 I I #
face $-1 $160 $161 $11 $-1 $162 reversed single #
loop $-1 $-1 $163 $52 #
plane-surface $-1 0 0 -17.781840991673523 0 0 1 1 0 0 forward_v I I I I #
coedge $-1 $164 $165 $103 $166 reversed $53 $-1 #
coedge $-1 $58 $55 $167 $168 reversed $33 $-1 #
coedge $-1 $55 $58 $163 $169 reversed $33 $-1 #
coedge $-1 $170 $171 $55 $102 forward $172 $-1 #
edge $-1 $173 -17.781840991673523 $174 17.781840991673523 $101 $175 forward 7 unknown #
coedge $-1 $57 $56 $98 $166 forward $22 $-1 #
coedge $-1 $167 $176 $56 $105 forward $177 $-1 #
edge $-1 $178 16.816563914161854 $108 25.043629736543174 $104 $179 forward 7 unknown #
coedge $-1 $180 $163 $57 $107 forward $96 $-1 #
edge $-1 $109 -25.043629736543174 $181 -16.816563914161854 $106 $182 forward 7 unknown #
vertex $-1 $105 $183 #
vertex $-1 $107 $184 #
straight-curve $-1 -45.973726561895688 18.850976836884726 0 0 0 -1 I I #
face $-1 $-1 $75 $9 $-1 $185 reversed single #
loop $-1 $-1 $127 $60 #
plane-surface $-1 0 36.163631632550647 0 0 -1 0 0 0 -1 forward_v I I I I #
coedge $-1 $186 $125 $128 $187 forward $61 $-1 #
coedge $-1 $131 $63 $64 $119 reversed $37 $-1 #
coedge $-1 $125 $186 $63 $117 reversed $61 $-1 #
edge $-1 $132 -17.781840991673523 $188 17.781840991673523 $116 $189 forward 7 unknown #
coedge $-1 $65 $64 $186 $190 forward $25 $-1 #
edge $-1 $123 -73.310342722861407 $188 73.310342722861407 $115 $191 forward 7 unknown #
coedge $-1 $128 $127 $65 $121 reversed $112 $-1 #
edge $-1 $192 -73.310342722861407 $122 73.310342722861407 $120 $193 forward 7 unknown #
vertex $-1 $67 $194 #
vertex $-1 $134 $195 #
straight-curve $-1 73.310342722861407 0 -17.781840991673523 0 -1 0 I I #
coedge $-1 $114 $116 $68 $126 reversed $61 $-1 #
edge $-1 $129 -36.163631632550647 $132 36.163631632550647 $125 $196 forward 7 unknown #
coedge $-1 $120 $69 $74 $135 forward $112 $-1 #
coedge $-1 $69 $120 $114 $187 reversed $112 $-1 #
vertex $-1 $70 $197 #
straight-curve $-1 0 36.163631632550647 17.781840991673523 -1 0 0 I I #
coedge $-1 $71 $115 $73 $134 reversed $37 $-1 #
vertex $-1 $126 $198 #
straight-curve $-1 0 -36.163631632550647 17.781840991673523 1 0 0 I I #
edge $-1 $76 -17.781840991673523 $123 17.781840991673523 $73 $199 forward 7 unknown #
edge $-1 $77 -17.781840991673523 $122 17.781840991673523 $74 $200 forward 7 unknown #
point $-1 73.310342722861407 -36.163631632550647 17.781840991673523 #
point $-1 73.310342722861407 36.163631632550647 17.781840991673523 #
face $-1 $201 $202 $10 $-1 $203 reversed single #
loop $-1 $-1 $204 $79 #
plane-surface $-1 0 0 17.781840991673523 0 0 1 1 0 0 forward_v I I I I #
coedge $-1 $205 $206 $84 $145 forward $80 $-1 #
coedge $-1 $207 $82 $90 $156 reversed $45 $-1 #
coedge $-1 $82 $207 $208 $209 forward $45 $-1 #
coedge $-1 $84 $83 $210 $211 reversed $29 $-1 #
edge $-1 $147 -73.310342722861407 $212 73.310342722861407 $141 $213 forward 7 unknown #
coedge $-1 $214 $85 $206 $215 reversed $91 $-1 #
vertex $-1 $145 $216 #
straight-curve $-1 73.310342722861407 -12.781859276577734 -7.8783155518866526 0 0 -1 I I #
coedge $-1 $208 $210 $87 $150 forward $202 $-1 #
edge $-1 $153 0.54548654929563867 $151 23.927258905268552 $149 $217 forward 7 unknown #
vertex $-1 $88 $218 #
straight-curve $-1 0 -36.163631632550647 -13.731421215873088 1 0 0 I I #
vertex $-1 $150 $219 #
straight-curve $-1 0 -12.781859276577734 -13.731421215873088 -1 0 0 I I #
coedge $-1 $90 $214 $204 $220 reversed $91 $-1 #
edge $-1 $221 -17.781840991673523 $92 13.731421215873088 $90 $222 forward 7 unknown #
face $-1 $-1 $91 $10 $-1 $223 reversed single #
point $-1 73.310342722861407 -36.163631632550647 -13.731421215873088 #
point $-1 73.310342722861407 -12.781859276577734 -13.731421215873088 #
face $-1 $224 $225 $11 $-1 $226 reversed single #
loop $-1 $-1 $227 $95 #
plane-surface $-1 0 36.163631632550647 0 0 -1 0 0 0 -1 forward_v I I I I #
coedge $-1 $106 $228 $100 $169 forward $96 $-1 #
coedge $-1 $229 $98 $176 $230 reversed $53 $-1 #
coedge $-1 $98 $229 $180 $231 reversed $53 $-1 #
edge $-1 $178 -17.781840991673523 $181 17.781840991673523 $98 $232 forward 7 unknown #
coedge $-1 $233 $104 $99 $168 forward $177 $-1 #
edge $-1 $108 5.0973247195258828 $173 22.409979515191804 $167 $234 forward 7 unknown #
edge $-1 $174 -22.409979515191804 $109 -5.0973247195258828 $163 $235 forward 7 unknown #
coedge $-1 $236 $101 $228 $237 reversed $172 $-1 #
coedge $-1 $101 $236 $233 $238 reversed $172 $-1 #
loop $-1 $-1 $101 $239 #
vertex $-1 $238 $240 #
vertex $-1 $102 $241 #
straight-curve $-1 -45.973726561895688 36.163631632550647 0 0 0 -1 I I #
coedge $-1 $104 $242 $164 $230 forward $177 $-1 #
loop $-1 $-1 $167 $243 #
vertex $-1 $105 $244 #
straight-curve $-1 -20.930096825352514 18.850976836884726 17.781840991673523 -1 0 0 I I #
coedge $-1 $245 $106 $165 $231 forward $96 $-1 #
vertex $-1 $107 $246 #
straight-curve $-1 -20.930096825352514 18.850976836884726 -17.781840991673523 1 0 0 I I #
point $-1 -45.973726561895688 18.850976836884726 17.781840991673523 #
point $-1 -45.973726561895688 18.850976836884726 -17.781840991673523 #
plane-surface $-1 73.310342722861407 0 0 -1 0 0 0 0 1 forward_v I I I I #
coedge $-1 $116 $114 $118 $190 reversed $61 $-1 #
edge $-1 $129 -17.781840991673523 $192 17.781840991673523 $128 $247 forward 7 unknown #
vertex $-1 $190 $248 #
straight-curve $-1 -73.310342722861407 -36.163631632550647 0 0 0 -1 I I #
edge $-1 $188 -36.163631632550647 $192 36.163631632550647 $186 $249 forward 7 unknown #
straight-curve $-1 0 -36.163631632550647 -17.781840991673523 -1 0 0 I I #
vertex $-1 $121 $250 #
straight-curve $-1 0 36.163631632550647 -17.781840991673523 1 0 0 I I #
point $-1 73.310342722861407 36.163631632550647 -17.781840991673523 #
point $-1 73.310342722861407 -36.163631632550647 -17.781840991673523 #
straight-curve $-1 -73.310342722861407 0 17.781840991673523 0 -1 0 I I #
point $-1 -73.310342722861407 36.163631632550647 17.781840991673523 #
point $-1 -73.310342722861407 -36.163631632550647 17.781840991673523 #
straight-curve $-1 73.310342722861407 -36.163631632550647 0 0 0 -1 I I #
straight-curve $-1 73.310342722861407 36.163631632550647 0 0 0 -1 I I #
face $-1 $157 $251 $10 $-1 $252 reversed single #
loop $-1 $-1 $149 $138 #
plane-surface $-1 -73.310342722861407 0 0 1 0 0 0 0 -1 forward_v I I I I #
coedge $-1 $253 $254 $155 $220 forward $139 $-1 #
coedge $-1 $255 $141 $256 $257 forward $80 $-1 #
coedge $-1 $141 $255 $146 $215 forward $80 $-1 #
coedge $-1 $143 $142 $254 $258 reversed $45 $-1 #
coedge $-1 $259 $149 $143 $209 reversed $202 $-1 #
edge $-1 $260 -17.781840991673523 $151 13.731421215873088 $208 $261 forward 7 unknown #
coedge $-1 $149 $256 $144 $211 forward $202 $-1 #
edge $-1 $212 -9.9035254397868702 $153 -5.8531056639864349 $210 $262 forward 7 unknown #
vertex $-1 $257 $263 #
straight-curve $-1 0 -12.781859276577734 -17.781840991673523 -1 0 0 I I #
coedge $-1 $155 $146 $264 $265 reversed $91 $-1 #
edge $-1 $266 -36.163631632550647 $147 12.781859276577734 $146 $267 forward 7 unknown #
point $-1 73.310342722861407 -12.781859276577734 -17.781840991673523 #
straight-curve $-1 -73.310342722861407 -12.236372727282095 -13.731421215873088 0 -1 0 I I #
point $-1 -73.310342722861407 -36.163631632550647 -13.731421215873088 #
point $-1 -73.310342722861407 -12.781859276577734 -13.731421215873088 #
edge $-1 $221 -36.163631632550647 $268 36.163631632550647 $155 $269 forward 7 unknown #
vertex $-1 $220 $270 #
straight-curve $-1 73.310342722861407 -36.163631632550647 0 0 0 -1 I I #
plane-surface $-1 73.310342722861407 0 0 -1 0 0 0 0 1 forward_v I I I I #
face $-1 $271 $272 $11 $-1 $273 forward single #
loop $-1 $-1 $274 $160 #
plane-surface $-1 0 -24.47274545456419 -13.731421215873088 0 0 1 1 0 0 forward_v I I I I #
coedge $-1 $275 $276 $229 $277 forward $161 $-1 #
coedge $-1 $163 $278 $170 $237 forward $96 $-1 #
coedge $-1 $165 $164 $227 $277 reversed $53 $-1 #
edge $-1 $279 -22.409979515191804 $178 -5.0973247195258828 $176 $280 forward 7 unknown #
edge $-1 $181 5.0973247195258828 $281 22.409979515191804 $180 $282 forward 7 unknown #
straight-curve $-1 -37.746660739514368 18.850976836884726 0 0 0 -1 I I #
coedge $-1 $283 $167 $171 $238 forward $177 $-1 #
straight-curve $-1 -45.973726561895688 13.753652117358843 17.781840991673523 0 1 0 I I #
straight-curve $-1 -45.973726561895688 13.753652117358843 -17.781840991673523 0 -1 0 I I #
coedge $-1 $171 $170 $284 $285 reversed $172 $-1 #
edge $-1 $286 -73.310342722861407 $174 -45.973726561895688 $170 $287 forward 7 unknown #
edge $-1 $173 45.973726561895688 $288 73.310342722861407 $171 $289 forward 7 unknown #
face $-1 $290 $172 $11 $-1 $162 reversed single #
point $-1 -45.973726561895688 36.163631632550647 17.781840991673523 #
point $-1 -45.973726561895688 36.163631632550647 -17.781840991673523 #
coedge $-1 $176 $291 $275 $292 forward $177 $-1 #
face $-1 $293 $177 $11 $-1 $294 forward single #
point $-1 -37.746660739514368 18.850976836884726 17.781840991673523 #
coedge $-1 $295 $180 $276 $296 forward $96 $-1 #
point $-1 -37.746660739514368 18.850976836884726 -17.781840991673523 #
straight-curve $-1 -73.310342722861407 36.163631632550647 0 0 0 -1 I I #
point $-1 -73.310342722861407 -36.163631632550647 -17.781840991673523 #
straight-curve $-1 -73.310342722861407 0 -17.781840991673523 0 1 0 I I #
point $-1 -73.310342722861407 36.163631632550647 -17.781840991673523 #
loop $-1 $-1 $264 $201 #
plane-surface $-1 0 36.163631632550647 0 0 -1 0 0 0 -1 forward_v I I I I #
coedge $-1 $297 $204 $298 $299 forward $139 $-1 #
coedge $-1 $204 $297 $207 $258 forward $139 $-1 #
coedge $-1 $206 $205 $300 $301 forward $80 $-1 #
coedge $-1 $210 $302 $205 $257 reversed $202 $-1 #
edge $-1 $212 -12.781859276577734 $303 36.163631632550647 $256 $304 forward 7 unknown #
edge $-1 $260 -73.310342722861407 $221 73.310342722861407 $207 $305 forward 7 unknown #
coedge $-1 $302 $208 $297 $306 reversed $202 $-1 #
vertex $-1 $306 $307 #
straight-curve $-1 -73.310342722861407 -36.163631632550647 0 0 0 -1 I I #
straight-curve $-1 -73.310342722861407 -12.781859276577734 -7.8783155518866526 0 0 1 I I #
point $-1 -73.310342722861407 -12.781859276577734 -17.781840991673523 #
coedge $-1 $300 $298 $214 $265 forward $251 $-1 #
edge $-1 $268 -17.781840991673523 $266 17.781840991673523 $214 $308 forward 7 unknown #
vertex $-1 $215 $309 #
straight-curve $-1 73.310342722861407 0 -17.781840991673523 0 -1 0 I I #
vertex $-1 $220 $310 #
straight-curve $-1 73.310342722861407 0 17.781840991673523 0 1 0 I I #
point $-1 73.310342722861407 -36.163631632550647 17.781840991673523 #
face $-1 $243 $311 $11 $-1 $312 reversed single #
loop $-1 $-1 $313 $224 #
plane-surface $-1 0 -12.781859276577734 -15.756631103773305 0 -1 0 0 0 -1 forward_v I I I I #
coedge $-1 $314 $315 $316 $317 reversed $225 $-1 #
coedge $-1 $318 $227 $242 $292 reversed $161 $-1 #
coedge $-1 $227 $318 $245 $296 reversed $161 $-1 #
edge $-1 $281 -17.781840991673523 $279 17.781840991673523 $227 $319 forward 7 unknown #
coedge $-1 $228 $320 $321 $322 forward $96 $-1 #
vertex $-1 $230 $323 #
straight-curve $-1 -37.746660739514368 13.753652117358843 17.781840991673523 0 -1 0 I I #
vertex $-1 $296 $324 #
straight-curve $-1 -37.746660739514368 13.753652117358843 -17.781840991673523 0 1 0 I I #
coedge $-1 $325 $233 $326 $327 forward $177 $-1 #
coedge $-1 $321 $326 $236 $285 forward $328 $-1 #
edge $-1 $288 -17.781840991673523 $286 17.781840991673523 $236 $329 forward 7 unknown #
vertex $-1 $237 $330 #
straight-curve $-1 0 36.163631632550647 -17.781840991673523 1 0 0 I I #
vertex $-1 $238 $331 #
straight-curve $-1 0 36.163631632550647 17.781840991673523 -1 0 0 I I #
face $-1 $-1 $332 $11 $-1 $333 reversed single #
coedge $-1 $242 $325 $334 $335 forward $177 $-1 #
edge $-1 $336 -73.310342722861407 $279 37.746660739514368 $275 $289 forward 7 unknown #
face $-1 $239 $328 $11 $-1 $337 reversed single #
plane-surface $-1 0 0 17.781840991673523 0 0 1 1 0 0 forward_v I I I I #
coedge $-1 $320 $245 $338 $339 forward $96 $-1 #
edge $-1 $281 -37.746660739514368 $340 73.310342722861407 $276 $287 forward 7 unknown #
coedge $-1 $254 $253 $259 $306 forward $139 $-1 #
coedge $-1 $264 $341 $253 $299 reversed $251 $-1 #
edge $-1 $268 -73.310342722861407 $342 73.310342722861407 $298 $343 forward 7 unknown #
coedge $-1 $341 $264 $255 $301 reversed $251 $-1 #
edge $-1 $303 -73.310342722861407 $266 73.310342722861407 $300 $344 forward 7 unknown #
coedge $-1 $256 $259 $341 $345 forward $202 $-1 #
vertex $-1 $301 $346 #
straight-curve $-1 -73.310342722861407 0 -17.781840991673523 0 1 0 I I #
straight-curve $-1 0 -36.163631632550647 17.781840991673523 1 0 0 I I #
edge $-1 $342 -36.163631632550647 $260 36.163631632550647 $259 $347 forward 7 unknown #
point $-1 -73.310342722861407 -36.163631632550647 17.781840991673523 #
straight-curve $-1 73.310342722861407 36.163631632550647 0 0 0 -1 I I #
point $-1 73.310342722861407 36.163631632550647 -17.781840991673523 #
point $-1 73.310342722861407 36.163631632550647 17.781840991673523 #
loop $-1 $-1 $348 $271 #
plane-surface $-1 0 -36.163631632550647 0 0 1 0 0 0 1 forward_v I I I I #
coedge $-1 $349 $350 $351 $352 reversed $272 $-1 #
coedge $-1 $353 $274 $348 $354 reversed $225 $-1 #
coedge $-1 $274 $353 $349 $355 reversed $225 $-1 #
coedge $-1 $351 $356 $274 $317 forward $332 $-1 #
edge $-1 $357 -23.927258905268552 $358 -0.54548654929563867 $316 $359 forward 7 unknown #
coedge $-1 $276 $275 $360 $361 forward $161 $-1 #
straight-curve $-1 -37.746660739514368 36.163631632550647 0 0 0 1 I I #
coedge $-1 $278 $295 $350 $362 forward $96 $-1 #
coedge $-1 $363 $284 $278 $322 reversed $328 $-1 #
edge $-1 $364 -12.781859276577734 $286 36.163631632550647 $321 $365 forward 7 unknown #
point $-1 -37.746660739514368 36.163631632550647 17.781840991673523 #
point $-1 -37.746660739514368 36.163631632550647 -17.781840991673523 #
coedge $-1 $291 $283 $366 $367 forward $177 $-1 #
coedge $-1 $284 $368 $283 $327 reversed $328 $-1 #
edge $-1 $288 -36.163631632550647 $369 36.163631632550647 $326 $370 forward 7 unknown #
loop $-1 $-1 $371 $293 #
straight-curve $-1 -73.310342722861407 36.163631632550647 0 0 0 -1 I I #
point $-1 -73.310342722861407 36.163631632550647 -17.781840991673523 #
point $-1 -73.310342722861407 36.163631632550647 17.781840991673523 #
loop $-1 $-1 $351 $290 #
plane-surface $-1 73.310342722861407 0 0 -1 0 0 0 0 1 forward_v I I I I #
coedge $-1 $356 $360 $291 $335 reversed $332 $-1 #
edge $-1 $372 -36.163631632550647 $336 36.163631632550647 $334 $373 forward 7 unknown #
vertex $-1 $335 $374 #
plane-surface $-1 -73.310342722861407 0 0 1 0 0 0 0 -1 forward_v I I I I #
coedge $-1 $360 $351 $295 $339 reversed $332 $-1 #
edge $-1 $340 -36.163631632550647 $375 12.781859276577734 $338 $376 forward 7 unknown #
vertex $-1 $339 $377 #
coedge $-1 $298 $300 $302 $345 reversed $251 $-1 #
vertex $-1 $299 $378 #
straight-curve $-1 0 36.163631632550647 17.781840991673523 -1 0 0 I I #
straight-curve $-1 0 36.163631632550647 -17.781840991673523 1 0 0 I I #
edge $-1 $342 -17.781840991673523 $303 17.781840991673523 $341 $379 forward 7 unknown #
point $-1 -73.310342722861407 36.163631632550647 -17.781840991673523 #
straight-curve $-1 -73.310342722861407 0 17.781840991673523 0 -1 0 I I #
coedge $-1 $380 $381 $314 $354 forward $311 $-1 #
coedge $-1 $382 $313 $315 $355 forward $272 $-1 #
coedge $-1 $313 $382 $320 $362 reversed $272 $-1 #
coedge $-1 $338 $316 $313 $352 forward $332 $-1 #
edge $-1 $358 5.8531056639864349 $375 9.9035254397868702 $351 $383 forward 7 unknown #
coedge $-1 $315 $314 $371 $384 reversed $225 $-1 #
edge $-1 $385 -73.310342722861407 $357 73.310342722861407 $348 $386 forward 7 unknown #
edge $-1 $358 -73.310342722861407 $387 73.310342722861407 $349 $388 forward 7 unknown #
coedge $-1 $316 $334 $380 $389 forward $332 $-1 #
vertex $-1 $354 $390 #
vertex $-1 $317 $391 #
straight-curve $-1 73.310342722861407 -12.236372727282095 -13.731421215873088 0 1 0 I I #
coedge $-1 $334 $338 $318 $361 reversed $332 $-1 #
edge $-1 $336 -17.781840991673523 $340 17.781840991673523 $360 $392 forward 7 unknown #
edge $-1 $375 -73.310342722861407 $364 73.310342722861407 $320 $393 forward 7 unknown #
coedge $-1 $371 $321 $382 $394 forward $328 $-1 #
vertex $-1 $322 $395 #
straight-curve $-1 -73.310342722861407 0 -17.781840991673523 0 1 0 I I #
coedge $-1 $381 $380 $325 $367 reversed $311 $-1 #
edge $-1 $369 -73.310342722861407 $372 73.310342722861407 $366 $396 forward 7 unknown #
coedge $-1 $326 $371 $381 $397 reversed $328 $-1 #
vertex $-1 $327 $398 #
straight-curve $-1 -73.310342722861407 0 17.781840991673523 0 -1 0 I I #
coedge $-1 $368 $363 $353 $384 forward $328 $-1 #
vertex $-1 $335 $399 #
straight-curve $-1 73.310342722861407 0 17.781840991673523 0 1 0 I I #
point $-1 73.310342722861407 36.163631632550647 17.781840991673523 #
vertex $-1 $362 $400 #
straight-curve $-1 73.310342722861407 0 -17.781840991673523 0 -1 0 I I #
point $-1 73.310342722861407 36.163631632550647 -17.781840991673523 #
point $-1 -73.310342722861407 36.163631632550647 17.781840991673523 #
straight-curve $-1 -73.310342722861407 36.163631632550647 0 0 0 -1 I I #
coedge $-1 $366 $348 $356 $389 reversed $311 $-1 #
coedge $-1 $348 $366 $368 $397 forward $311 $-1 #
coedge $-1 $350 $349 $363 $394 reversed $272 $-1 #
straight-curve $-1 73.310342722861407 -12.781859276577734 -7.8783155518866526 0 0 -1 I I #
edge $-1 $387 0.54548654929563867 $385 23.927258905268552 $371 $401 forward 7 unknown #
vertex $-1 $354 $402 #
straight-curve $-1 0 -36.163631632550647 -13.731421215873088 1 0 0 I I #
vertex $-1 $384 $403 #
straight-curve $-1 0 -12.781859276577734 -13.731421215873088 -1 0 0 I I #
edge $-1 $372 -17.781840991673523 $357 13.731421215873088 $356 $404 forward 7 unknown #
point $-1 73.310342722861407 -36.163631632550647 -13.731421215873088 #
point $-1 73.310342722861407 -12.781859276577734 -13.731421215873088 #
straight-curve $-1 73.310342722861407 36.163631632550647 0 0 0 -1 I I #
straight-curve $-1 0 -12.781859276577734 -17.781840991673523 -1 0 0 I I #
edge $-1 $364 -9.9035254397868702 $387 -5.8531056639864349 $363 $405 forward 7 unknown #
point $-1 -73.310342722861407 -12.781859276577734 -17.781840991673523 #
straight-curve $-1 0 -36.163631632550647 17.781840991673523 1 0 0 I I #
edge $-1 $369 -17.781840991673523 $385 13.731421215873088 $368 $406 forward 7 unknown #
point $-1 -73.310342722861407 -36.163631632550647 17.781840991673523 #
point $-1 73.310342722861407 -36.163631632550647 17.781840991673523 #
point $-1 73.310342722861407 -12.781859276577734 -17.781840991673523 #
straight-curve $-1 -73.310342722861407 -12.236372727282095 -13.731421215873088 0 -1 0 I I #
point $-1 -73.310342722861407 -36.163631632550647 -13.731421215873088 #
point $-1 -73.310342722861407 -12.781859276577734 -13.731421215873088 #
straight-curve $-1 73.310342722861407 -36.163631632550647 0 0 0 -1 I I #
straight-curve $-1 -73.310342722861407 -12.781859276577734 -7.8783155518866526 0 0 1 I I #
straight-curve $-1 -73.310342722861407 -36.163631632550647 0 0 0 -1 I I #
End-of-ACIS-data 