500 0 14 0           
7 Unknown 11 ACIS 5.0 NT 24 Fri Mar 26 15:30:01 1999 
-1 9.9999999999999995e-007 1e-010 
body $-1 $14 $-1 $15 #
body $-1 $16 $-1 $17 #
body $-1 $18 $-1 $19 #
body $-1 $20 $-1 $21 #
body $-1 $22 $-1 $23 #
body $-1 $24 $-1 $25 #
body $-1 $26 $-1 $27 #
body $-1 $28 $-1 $29 #
body $-1 $30 $-1 $31 #
body $-1 $32 $-1 $33 #
body $-1 $34 $-1 $35 #
body $-1 $36 $-1 $37 #
body $-1 $38 $-1 $39 #
body $-1 $40 $-1 $41 #
lump $-1 $-1 $42 $0 #
transform $-1 1 0 0 0 1 0 0 0 1 41.82622760704367 27.637834781317402 9.9858726694386082 1 rotate no_reflect no_shear #
lump $-1 $-1 $43 $1 #
transform $-1 1 0 0 0 1 0 0 0 1 41.82622760704367 27.637834781317402 9.9858726694386082 1 rotate no_reflect no_shear #
lump $-1 $-1 $44 $2 #
transform $-1 1 0 0 0 1 0 0 0 1 41.82622760704367 27.637834781317402 9.9858726694386082 1 rotate no_reflect no_shear #
lump $-1 $-1 $45 $3 #
transform $-1 1 0 0 0 1 0 0 0 1 41.82622760704367 27.637834781317402 9.9858726694386082 1 rotate no_reflect no_shear #
lump $-1 $-1 $46 $4 #
transform $-1 1 0 0 0 1 0 0 0 1 41.82622760704367 27.637834781317402 9.9858726694386082 1 rotate no_reflect no_shear #
lump $-1 $-1 $47 $5 #
transform $-1 1 0 0 0 1 0 0 0 1 41.82622760704367 27.637834781317402 9.9858726694386082 1 rotate no_reflect no_shear #
lump $-1 $-1 $48 $6 #
transform $-1 1 0 0 0 1 0 0 0 1 41.82622760704367 27.637834781317402 9.9858726694386082 1 rotate no_reflect no_shear #
lump $-1 $-1 $49 $7 #
transform $-1 1 0 0 0 1 0 0 0 1 41.82622760704367 27.637834781317402 9.9858726694386082 1 rotate no_reflect no_shear #
lump $-1 $-1 $50 $8 #
transform $-1 1 0 0 0 1 0 0 0 1 41.82622760704367 27.637834781317402 9.9858726694386082 1 rotate no_reflect no_shear #
lump $-1 $-1 $51 $9 #
transform $-1 1 0 0 0 1 0 0 0 1 41.82622760704367 27.637834781317402 9.9858726694386082 1 rotate no_reflect no_shear #
lump $-1 $-1 $52 $10 #
transform $-1 1 0 0 0 1 0 0 0 1 41.82622760704367 27.637834781317402 9.9858726694386082 1 rotate no_reflect no_shear #
lump $-1 $-1 $53 $11 #
transform $-1 1 0 0 0 1 0 0 0 1 41.82622760704367 27.637834781317402 9.9858726694386082 1 rotate no_reflect no_shear #
lump $-1 $-1 $54 $12 #
transform $-1 1 0 0 0 1 0 0 0 1 41.82622760704367 27.637834781317402 9.9858726694386082 1 rotate no_reflect no_shear #
lump $-1 $-1 $55 $13 #
transform $-1 1 0 0 0 1 0 0 0 1 41.82622760704367 27.637834781317402 9.9858726694386082 1 rotate no_reflect no_shear #
shell $-1 $-1 $-1 $56 $-1 $14 #
shell $-1 $-1 $-1 $57 $-1 $16 #
shell $-1 $-1 $-1 $58 $-1 $18 #
shell $-1 $-1 $-1 $59 $-1 $20 #
shell $-1 $-1 $-1 $60 $-1 $22 #
shell $-1 $-1 $-1 $61 $-1 $24 #
shell $-1 $-1 $-1 $62 $-1 $26 #
shell $-1 $-1 $-1 $63 $-1 $28 #
shell $-1 $-1 $-1 $64 $-1 $30 #
shell $-1 $-1 $-1 $65 $-1 $32 #
shell $-1 $-1 $-1 $66 $-1 $34 #
shell $-1 $-1 $-1 $67 $-1 $36 #
shell $-1 $-1 $-1 $68 $-1 $38 #
shell $-1 $-1 $-1 $69 $-1 $40 #
face $-1 $70 $71 $42 $-1 $72 forward single #
face $-1 $73 $74 $43 $-1 $75 reversed single #
face $-1 $76 $77 $44 $-1 $78 reversed single #
face $-1 $79 $80 $45 $-1 $81 forward single #
face $-1 $82 $83 $46 $-1 $84 forward single #
face $-1 $85 $86 $47 $-1 $87 reversed single #
face $-1 $88 $89 $48 $-1 $90 forward single #
face $-1 $91 $92 $49 $-1 $93 forward single #
face $-1 $94 $95 $50 $-1 $96 reversed single #
face $-1 $97 $98 $51 $-1 $99 forward single #
face $-1 $100 $101 $52 $-1 $102 forward single #
face $-1 $103 $104 $53 $-1 $105 reversed single #
face $-1 $106 $107 $54 $-1 $108 forward single #
face $-1 $109 $110 $55 $-1 $111 forward single #
face $-1 $112 $113 $42 $-1 $114 reversed single #
loop $-1 $-1 $115 $56 #
plane-surface $-1 0 0 9.9858726694386082 0 0 1 1 0 0 forward_v I I I I #
face $-1 $116 $117 $43 $-1 $118 reversed single #
loop $-1 $-1 $119 $57 #
plane-surface $-1 -36.143084527070158 -25.56919396835665 0 0 1 0 0 0 1 forward_v I I I I #
face $-1 $120 $121 $44 $-1 $122 reversed single #
loop $-1 $-1 $123 $58 #
plane-surface $-1 -30.459941447096654 37.324768245000108 106.64122213586515 1 0 0 0 -0.62932039886446345 -0.77714595512881146 forward_v I I I I #
face $-1 $124 $125 $45 $-1 $126 forward single #
loop $-1 $127 $128 $59 #
cone-surface $-1 -28.007788634445824 25.275916605226392 7.8935936188994713 0 -0.62932039886446345 -0.77714595512881146 0.5 0 0 1 I I 0 1 0.5 forward I I I I #
face $-1 $129 $130 $46 $-1 $131 forward single #
loop $-1 $132 $133 $60 #
cone-surface $-1 -24.329559415469582 25.275916605226392 7.8935936188994713 0 -0.62932039886446345 -0.77714595512881146 0.5 0 0 1 I I 0 1 0.5 forward I I I I #
face $-1 $134 $135 $47 $-1 $136 reversed single #
loop $-1 $-1 $137 $61 #
plane-surface $-1 -12.388399183561573 37.324768245000108 106.64122213586515 1 0 0 0 -0.62932039886446345 -0.77714595512881146 forward_v I I I I #
face $-1 $138 $139 $48 $-1 $140 forward single #
loop $-1 $141 $142 $62 #
cone-surface $-1 -9.9362463709107445 25.275916605226392 7.8935936188994713 0 -0.62932039886446345 -0.77714595512881146 0.5 0 0 1 I I 0 1 0.5 forward I I I I #
face $-1 $143 $144 $49 $-1 $145 forward single #
loop $-1 $146 $147 $63 #
cone-surface $-1 -6.2580171519345029 25.275916605226392 7.8935936188994713 0 -0.62932039886446345 -0.77714595512881146 0.5 0 0 1 I I 0 1 0.5 forward I I I I #
face $-1 $148 $149 $50 $-1 $150 reversed single #
loop $-1 $-1 $151 $64 #
plane-surface $-1 5.6831430799735063 37.324768245000108 106.64122213586515 1 0 0 0 -0.62932039886446345 -0.77714595512881146 forward_v I I I I #
face $-1 $152 $153 $51 $-1 $154 forward single #
loop $-1 $155 $156 $65 #
cone-surface $-1 8.1352958926243346 25.275916605226392 7.8935936188994713 0 -0.62932039886446345 -0.77714595512881146 0.5 0 0 1 I I 0 1 0.5 forward I I I I #
face $-1 $157 $158 $52 $-1 $159 forward single #
loop $-1 $160 $161 $66 #
cone-surface $-1 11.813525111600576 25.275916605226392 7.8935936188994713 0 -0.62932039886446345 -0.77714595512881146 0.5 0 0 1 I I 0 1 0.5 forward I I I I #
face $-1 $162 $163 $53 $-1 $164 reversed single #
loop $-1 $-1 $165 $67 #
plane-surface $-1 23.754685343508584 37.324768245000108 106.64122213586515 1 0 0 0 -0.62932039886446345 -0.77714595512881146 forward_v I I I I #
face $-1 $166 $167 $54 $-1 $168 forward single #
loop $-1 $169 $170 $68 #
cone-surface $-1 26.206838156159414 25.275916605226392 7.8935936188994713 0 -0.62932039886446345 -0.77714595512881146 0.5 0 0 1 I I 0 1 0.5 forward I I I I #
face $-1 $171 $172 $55 $-1 $173 forward single #
loop $-1 $174 $175 $69 #
cone-surface $-1 29.885067375135655 25.275916605226392 7.8935936188994713 0 -0.62932039886446345 -0.77714595512881146 0.5 0 0 1 I I 0 1 0.5 forward I I I I #
face $-1 $176 $177 $42 $-1 $178 reversed single #
loop $-1 $-1 $179 $70 #
plane-surface $-1 0 0 -9.9858726694386082 0 0 1 1 0 0 forward_v I I I I #
coedge $-1 $180 $181 $182 $183 forward $71 $-1 #
face $-1 $184 $185 $43 $-1 $186 reversed single #
loop $-1 $-1 $187 $73 #
plane-surface $-1 -36.143084527070158 -19.90070955336315 0 0 -1 0 0 0 -1 forward_v I I I I #
coedge $-1 $188 $189 $190 $191 reversed $74 $-1 #
face $-1 $192 $193 $44 $-1 $194 reversed single #
loop $-1 $-1 $195 $76 #
plane-surface $-1 -26.168674024957703 -15.319428236321002 41.631054929643113 0 0.62932039886446345 0.77714595512881146 1 0 0 forward_v I I I I #
coedge $-1 $196 $197 $198 $199 reversed $77 $-1 #
face $-1 $-1 $200 $45 $-1 $201 forward single #
loop $-1 $202 $203 $79 #
cone-surface $-1 -28.007788634445824 24.696027444393408 7.1774901578046819 0 -0.62932039886446345 -0.77714595512881146 0.25 0 0 1 I I -0.70710678118654746 0.70710678118654746 0.25 forward I I I I #
loop $-1 $-1 $204 $59 #
coedge $-1 $128 $128 $205 $206 reversed $80 $-1 #
face $-1 $-1 $207 $46 $-1 $208 forward single #
loop $-1 $209 $210 $82 #
cone-surface $-1 -24.329559415469582 24.696027444393408 7.1774901578046819 0 -0.62932039886446345 -0.77714595512881146 0.25 0 0 1 I I -0.70710678118654746 0.70710678118654746 0.25 forward I I I I #
loop $-1 $-1 $211 $60 #
coedge $-1 $133 $133 $212 $213 reversed $83 $-1 #
face $-1 $214 $215 $47 $-1 $216 reversed single #
loop $-1 $-1 $217 $85 #
plane-surface $-1 -8.0971317614226237 -15.319428236321002 41.631054929643113 0 0.62932039886446345 0.77714595512881146 1 0 0 forward_v I I I I #
coedge $-1 $218 $219 $220 $221 reversed $86 $-1 #
face $-1 $-1 $222 $48 $-1 $223 forward single #
loop $-1 $224 $225 $88 #
cone-surface $-1 -9.9362463709107445 24.696027444393408 7.1774901578046819 0 -0.62932039886446345 -0.77714595512881146 0.25 0 0 1 I I -0.70710678118654746 0.70710678118654746 0.25 forward I I I I #
loop $-1 $-1 $226 $62 #
coedge $-1 $142 $142 $227 $228 reversed $89 $-1 #
face $-1 $-1 $229 $49 $-1 $230 forward single #
loop $-1 $231 $232 $91 #
cone-surface $-1 -6.2580171519345029 24.696027444393408 7.1774901578046819 0 -0.62932039886446345 -0.77714595512881146 0.25 0 0 1 I I -0.70710678118654746 0.70710678118654746 0.25 forward I I I I #
loop $-1 $-1 $233 $63 #
coedge $-1 $147 $147 $234 $235 reversed $92 $-1 #
face $-1 $236 $237 $50 $-1 $238 reversed single #
loop $-1 $-1 $239 $94 #
plane-surface $-1 9.9744105021124554 -15.319428236321002 41.631054929643113 0 0.62932039886446345 0.77714595512881146 1 0 0 forward_v I I I I #
coedge $-1 $240 $241 $242 $243 reversed $95 $-1 #
face $-1 $-1 $244 $51 $-1 $245 forward single #
loop $-1 $246 $247 $97 #
cone-surface $-1 8.1352958926243346 24.696027444393408 7.1774901578046819 0 -0.62932039886446345 -0.77714595512881146 0.25 0 0 1 I I -0.70710678118654746 0.70710678118654746 0.25 forward I I I I #
loop $-1 $-1 $248 $65 #
coedge $-1 $156 $156 $249 $250 reversed $98 $-1 #
face $-1 $-1 $251 $52 $-1 $252 forward single #
loop $-1 $253 $254 $100 #
cone-surface $-1 11.813525111600576 24.696027444393408 7.1774901578046819 0 -0.62932039886446345 -0.77714595512881146 0.25 0 0 1 I I -0.70710678118654746 0.70710678118654746 0.25 forward I I I I #
loop $-1 $-1 $255 $66 #
coedge $-1 $161 $161 $256 $257 reversed $101 $-1 #
face $-1 $258 $259 $53 $-1 $260 reversed single #
loop $-1 $-1 $261 $103 #
plane-surface $-1 28.045952765647534 -15.319428236321002 41.631054929643113 0 0.62932039886446345 0.77714595512881146 1 0 0 forward_v I I I I #
coedge $-1 $262 $263 $264 $265 reversed $104 $-1 #
face $-1 $-1 $266 $54 $-1 $267 forward single #
loop $-1 $268 $269 $106 #
cone-surface $-1 26.206838156159414 24.696027444393408 7.1774901578046819 0 -0.62932039886446345 -0.77714595512881146 0.25 0 0 1 I I -0.70710678118654746 0.70710678118654746 0.25 forward I I I I #
loop $-1 $-1 $270 $68 #
coedge $-1 $170 $170 $271 $272 reversed $107 $-1 #
face $-1 $-1 $273 $55 $-1 $274 forward single #
loop $-1 $275 $276 $109 #
cone-surface $-1 29.885067375135655 24.696027444393408 7.1774901578046819 0 -0.62932039886446345 -0.77714595512881146 0.25 0 0 1 I I -0.70710678118654746 0.70710678118654746 0.25 forward I I I I #
loop $-1 $-1 $277 $69 #
coedge $-1 $175 $175 $278 $279 reversed $110 $-1 #
face $-1 $280 $281 $42 $-1 $282 reversed single #
loop $-1 $-1 $283 $112 #
plane-surface $-1 0 -27.637834781317402 0 0 1 0 0 0 1 forward_v I I I I #
coedge $-1 $284 $285 $286 $287 forward $113 $-1 #
coedge $-1 $288 $115 $289 $290 forward $71 $-1 #
coedge $-1 $115 $288 $291 $292 forward $71 $-1 #
coedge $-1 $293 $294 $115 $183 reversed $295 $-1 #
edge $-1 $296 -27.637834781317402 $297 27.637834781317402 $182 $298 forward 7 unknown #
face $-1 $299 $300 $43 $-1 $301 reversed single #
loop $-1 $-1 $302 $116 #
plane-surface $-1 -30.459941447096647 -22.7349517608599 0 -1 0 0 0 0 1 forward_v I I I I #
coedge $-1 $303 $304 $305 $306 forward $117 $-1 #
coedge $-1 $307 $119 $308 $309 reversed $74 $-1 #
coedge $-1 $119 $307 $310 $311 reversed $74 $-1 #
coedge $-1 $312 $313 $119 $191 forward $314 $-1 #
edge $-1 $315 -9.9858726694386082 $316 9.9858726694386082 $190 $317 forward 7 unknown #
face $-1 $318 $319 $44 $-1 $320 reversed single #
loop $-1 $-1 $321 $120 #
plane-surface $-1 -21.877406602818752 37.324768245000108 106.64122213586515 -1 0 0 0 0.62932039886446345 0.77714595512881146 forward_v I I I I #
coedge $-1 $322 $323 $324 $325 reversed $121 $-1 #
coedge $-1 $197 $123 $326 $327 reversed $77 $-1 #
coedge $-1 $123 $196 $322 $328 reversed $77 $-1 #
coedge $-1 $324 $329 $123 $199 forward $330 $-1 #
edge $-1 $331 -8.9754506588173477 $332 -5.0967324288690712 $198 $333 forward 7 unknown #
loop $-1 $-1 $205 $124 #
plane-surface $-1 -26.168674024957703 -15.319428236321002 41.631054929643113 0 0.62932039886446345 0.77714595512881146 1 0 0 forward_v I I I I #
loop $-1 $-1 $334 $79 #
coedge $-1 $203 $203 $204 $335 reversed $125 $-1 #
coedge $-1 $204 $204 $203 $335 forward $127 $-1 #
coedge $-1 $205 $205 $128 $206 forward $200 $-1 #
edge $-1 $336 1.0503637516332841e-015 $336 6.2831853071796013 $205 $337 forward 7 unknown #
loop $-1 $-1 $212 $129 #
plane-surface $-1 -26.168674024957703 -15.319428236321002 41.631054929643113 0 0.62932039886446345 0.77714595512881146 1 0 0 forward_v I I I I #
loop $-1 $-1 $338 $82 #
coedge $-1 $210 $210 $211 $339 reversed $130 $-1 #
coedge $-1 $211 $211 $210 $339 forward $132 $-1 #
coedge $-1 $212 $212 $133 $213 forward $207 $-1 #
edge $-1 $340 1.0503637516332841e-015 $340 6.2831853071796013 $212 $341 forward 7 unknown #
face $-1 $342 $343 $47 $-1 $344 forward single #
loop $-1 $-1 $345 $134 #
plane-surface $-1 -3.8058643392836746 37.324768245000108 106.64122213586515 -1 0 0 0 0.62932039886446345 0.77714595512881146 forward_v I I I I #
coedge $-1 $346 $347 $348 $349 reversed $135 $-1 #
coedge $-1 $219 $137 $350 $351 reversed $86 $-1 #
coedge $-1 $137 $218 $346 $352 reversed $86 $-1 #
coedge $-1 $348 $353 $137 $221 forward $343 $-1 #
edge $-1 $354 -8.9754506588173477 $355 -5.0967324288690712 $220 $356 forward 7 unknown #
loop $-1 $-1 $227 $138 #
plane-surface $-1 -8.0971317614226237 -15.319428236321002 41.631054929643113 0 0.62932039886446345 0.77714595512881146 1 0 0 forward_v I I I I #
loop $-1 $-1 $357 $88 #
coedge $-1 $225 $225 $226 $358 reversed $139 $-1 #
coedge $-1 $226 $226 $225 $358 forward $141 $-1 #
coedge $-1 $227 $227 $142 $228 forward $222 $-1 #
edge $-1 $359 1.0503637516332841e-015 $359 6.2831853071796013 $227 $360 forward 7 unknown #
loop $-1 $-1 $234 $143 #
plane-surface $-1 -8.0971317614226237 -15.319428236321002 41.631054929643113 0 0.62932039886446345 0.77714595512881146 1 0 0 forward_v I I I I #
loop $-1 $-1 $361 $91 #
coedge $-1 $232 $232 $233 $362 reversed $144 $-1 #
coedge $-1 $233 $233 $232 $362 forward $146 $-1 #
coedge $-1 $234 $234 $147 $235 forward $229 $-1 #
edge $-1 $363 1.0503637516332841e-015 $363 6.2831853071796013 $234 $364 forward 7 unknown #
face $-1 $365 $366 $50 $-1 $367 forward single #
loop $-1 $-1 $368 $148 #
plane-surface $-1 14.265677924251404 37.324768245000108 106.64122213586515 -1 0 0 0 0.62932039886446345 0.77714595512881146 forward_v I I I I #
coedge $-1 $369 $370 $371 $372 reversed $149 $-1 #
coedge $-1 $241 $151 $373 $374 reversed $95 $-1 #
coedge $-1 $151 $240 $369 $375 reversed $95 $-1 #
coedge $-1 $371 $376 $151 $243 forward $366 $-1 #
edge $-1 $377 -8.9754506588173477 $378 -5.0967324288690712 $242 $379 forward 7 unknown #
loop $-1 $-1 $249 $152 #
plane-surface $-1 9.9744105021124554 -15.319428236321002 41.631054929643113 0 0.62932039886446345 0.77714595512881146 1 0 0 forward_v I I I I #
loop $-1 $-1 $380 $97 #
coedge $-1 $247 $247 $248 $381 reversed $153 $-1 #
coedge $-1 $248 $248 $247 $381 forward $155 $-1 #
coedge $-1 $249 $249 $156 $250 forward $244 $-1 #
edge $-1 $382 1.0503637516332841e-015 $382 6.2831853071796013 $249 $383 forward 7 unknown #
loop $-1 $-1 $256 $157 #
plane-surface $-1 9.9744105021124554 -15.319428236321002 41.631054929643113 0 0.62932039886446345 0.77714595512881146 1 0 0 forward_v I I I I #
loop $-1 $-1 $384 $100 #
coedge $-1 $254 $254 $255 $385 reversed $158 $-1 #
coedge $-1 $255 $255 $254 $385 forward $160 $-1 #
coedge $-1 $256 $256 $161 $257 forward $251 $-1 #
edge $-1 $386 1.0503637516332841e-015 $386 6.2831853071796013 $256 $387 forward 7 unknown #
face $-1 $388 $389 $53 $-1 $390 forward single #
loop $-1 $-1 $391 $162 #
plane-surface $-1 32.337220187786485 37.324768245000108 106.64122213586515 -1 0 0 0 0.62932039886446345 0.77714595512881146 forward_v I I I I #
coedge $-1 $392 $393 $394 $395 reversed $163 $-1 #
coedge $-1 $263 $165 $396 $397 reversed $104 $-1 #
coedge $-1 $165 $262 $392 $398 reversed $104 $-1 #
coedge $-1 $394 $399 $165 $265 forward $389 $-1 #
edge $-1 $400 -8.9754506588173477 $401 -5.0967324288690712 $264 $402 forward 7 unknown #
loop $-1 $-1 $271 $166 #
plane-surface $-1 28.045952765647534 -15.319428236321002 41.631054929643113 0 0.62932039886446345 0.77714595512881146 1 0 0 forward_v I I I I #
loop $-1 $-1 $403 $106 #
coedge $-1 $269 $269 $270 $404 reversed $167 $-1 #
coedge $-1 $270 $270 $269 $404 forward $169 $-1 #
coedge $-1 $271 $271 $170 $272 forward $266 $-1 #
edge $-1 $405 1.0503637516332841e-015 $405 6.2831853071796013 $271 $406 forward 7 unknown #
loop $-1 $-1 $278 $171 #
plane-surface $-1 28.045952765647534 -15.319428236321002 41.631054929643113 0 0.62932039886446345 0.77714595512881146 1 0 0 forward_v I I I I #
loop $-1 $-1 $407 $109 #
coedge $-1 $276 $276 $277 $408 reversed $172 $-1 #
coedge $-1 $277 $277 $276 $408 forward $174 $-1 #
coedge $-1 $278 $278 $175 $279 forward $273 $-1 #
edge $-1 $409 1.0503637516332841e-015 $409 6.2831853071796013 $278 $410 forward 7 unknown #
face $-1 $411 $412 $42 $-1 $413 reversed single #
loop $-1 $-1 $414 $176 #
plane-surface $-1 -41.82622760704367 0 0 1 0 0 0 0 -1 forward_v I I I I #
coedge $-1 $415 $291 $416 $417 forward $177 $-1 #
coedge $-1 $418 $179 $415 $419 forward $113 $-1 #
coedge $-1 $179 $418 $420 $421 forward $113 $-1 #
coedge $-1 $294 $293 $179 $287 reversed $295 $-1 #
edge $-1 $422 -27.637834781317402 $423 27.637834781317402 $286 $424 forward 7 unknown #
coedge $-1 $181 $180 $425 $426 forward $71 $-1 #
coedge $-1 $427 $428 $180 $290 reversed $412 $-1 #
edge $-1 $297 -41.82622760704367 $429 41.82622760704367 $289 $430 forward 7 unknown #
coedge $-1 $283 $431 $181 $292 reversed $177 $-1 #
edge $-1 $432 -41.82622760704367 $296 41.82622760704367 $291 $433 forward 7 unknown #
coedge $-1 $286 $182 $431 $434 forward $295 $-1 #
coedge $-1 $182 $286 $427 $435 reversed $295 $-1 #
loop $-1 $-1 $293 $411 #
vertex $-1 $183 $436 #
vertex $-1 $183 $437 #
straight-curve $-1 41.82622760704367 0 9.9858726694386082 0 1 0 I I #
face $-1 $438 $439 $43 $-1 $440 forward single #
loop $-1 $-1 $441 $184 #
plane-surface $-1 0 0 -9.9858726694386082 0 0 1 1 0 0 forward_v I I I I #
coedge $-1 $442 $443 $307 $444 forward $185 $-1 #
coedge $-1 $445 $187 $441 $446 reversed $117 $-1 #
coedge $-1 $187 $445 $447 $448 reversed $117 $-1 #
coedge $-1 $443 $442 $187 $306 reversed $185 $-1 #
edge $-1 $449 -9.9858726694386082 $450 9.9858726694386082 $305 $451 forward 7 unknown #
coedge $-1 $189 $188 $302 $444 reversed $74 $-1 #
coedge $-1 $452 $453 $188 $309 forward $300 $-1 #
edge $-1 $454 12.388399183561567 $315 23.754685343508591 $308 $455 forward 7 unknown #
coedge $-1 $456 $457 $189 $311 forward $439 $-1 #
edge $-1 $316 -23.754685343508591 $458 -12.388399183561567 $310 $459 forward 7 unknown #
coedge $-1 $460 $190 $457 $461 reversed $314 $-1 #
coedge $-1 $190 $460 $452 $462 reversed $314 $-1 #
loop $-1 $-1 $460 $438 #
vertex $-1 $462 $463 #
vertex $-1 $191 $464 #
straight-curve $-1 -41.82622760704367 -25.56919396835665 0 0 0 1 I I #
face $-1 $-1 $330 $44 $-1 $465 forward single #
loop $-1 $-1 $466 $192 #
plane-surface $-1 0 27.637834781317402 0 0 -1 0 0 0 -1 forward_v I I I I #
coedge $-1 $467 $468 $469 $470 reversed $193 $-1 #
coedge $-1 $471 $195 $197 $328 forward $121 $-1 #
coedge $-1 $195 $471 $467 $472 forward $121 $-1 #
coedge $-1 $469 $198 $195 $325 forward $330 $-1 #
edge $-1 $332 -17.375604434617802 $473 -8.7930695903399005 $324 $474 forward 7 unknown #
coedge $-1 $475 $476 $196 $327 forward $319 $-1 #
edge $-1 $477 -46.475662554947085 $331 -43.334738398493968 $326 $478 forward 7 unknown #
edge $-1 $332 50.284691736204024 $477 55.275669562634818 $197 $479 forward 7 unknown #
coedge $-1 $198 $469 $475 $480 forward $330 $-1 #
loop $-1 $-1 $469 $318 #
vertex $-1 $327 $481 #
vertex $-1 $199 $482 #
straight-curve $-1 -30.459941447096654 18.662384122500054 9.9858726694386064 0 -1 0 I I #
coedge $-1 $334 $334 $-1 $483 reversed $202 $-1 #
edge $-1 $484 0 $484 6.2831853071796004 $203 $485 forward 7 unknown #
vertex $-1 $206 $486 #
ellipse-curve $-1 -28.007788634445824 25.69847566634326 8.4154105912120549 0 0.62932039886446345 0.77714595512881146 0.5 0 0 1 I I #
coedge $-1 $338 $338 $-1 $487 reversed $209 $-1 #
edge $-1 $488 0 $488 6.2831853071796004 $210 $489 forward 7 unknown #
vertex $-1 $213 $490 #
ellipse-curve $-1 -24.329559415469582 25.69847566634326 8.4154105912120549 0 0.62932039886446345 0.77714595512881146 0.5 0 0 1 I I #
face $-1 $-1 $491 $47 $-1 $492 reversed single #
loop $-1 $-1 $220 $214 #
plane-surface $-1 0 0 9.9858726694386082 0 0 1 1 0 0 forward_v I I I I #
coedge $-1 $493 $494 $495 $496 reversed $215 $-1 #
coedge $-1 $497 $217 $219 $352 forward $135 $-1 #
coedge $-1 $217 $497 $493 $498 forward $135 $-1 #
coedge $-1 $495 $220 $217 $349 forward $343 $-1 #
edge $-1 $355 -8.3398333028502609 $499 0.24270154142763722 $348 $500 forward 7 unknown #
coedge $-1 $501 $502 $218 $351 forward $491 $-1 #
edge $-1 $503 -46.475662554947085 $354 -43.334738398493968 $350 $504 forward 7 unknown #
edge $-1 $355 50.284691736204024 $503 55.275669562634818 $219 $505 forward 7 unknown #
coedge $-1 $220 $495 $501 $506 forward $343 $-1 #
vertex $-1 $351 $507 #
vertex $-1 $221 $508 #
straight-curve $-1 -12.388399183561573 18.662384122500054 9.9858726694386064 0 -1 0 I I #
coedge $-1 $357 $357 $-1 $509 reversed $224 $-1 #
edge $-1 $510 0 $510 6.2831853071796004 $225 $511 forward 7 unknown #
vertex $-1 $228 $512 #
ellipse-curve $-1 -9.9362463709107445 25.69847566634326 8.4154105912120549 0 0.62932039886446345 0.77714595512881146 0.5 0 0 1 I I #
coedge $-1 $361 $361 $-1 $513 reversed $231 $-1 #
edge $-1 $514 0 $514 6.2831853071796004 $232 $515 forward 7 unknown #
vertex $-1 $235 $516 #
ellipse-curve $-1 -6.2580171519345029 25.69847566634326 8.4154105912120549 0 0.62932039886446345 0.77714595512881146 0.5 0 0 1 I I #
face $-1 $-1 $517 $50 $-1 $518 reversed single #
loop $-1 $-1 $242 $236 #
plane-surface $-1 0 0 9.9858726694386082 0 0 1 1 0 0 forward_v I I I I #
coedge $-1 $519 $520 $521 $522 reversed $237 $-1 #
coedge $-1 $523 $239 $241 $375 forward $149 $-1 #
coedge $-1 $239 $523 $519 $524 forward $149 $-1 #
coedge $-1 $521 $242 $239 $372 forward $366 $-1 #
edge $-1 $378 0.69593782891727862 $525 9.2784726731951768 $371 $526 forward 7 unknown #
coedge $-1 $527 $528 $240 $374 forward $517 $-1 #
edge $-1 $529 -46.475662554947085 $377 -43.334738398493968 $373 $530 forward 7 unknown #
edge $-1 $378 50.284691736204024 $529 55.275669562634818 $241 $531 forward 7 unknown #
coedge $-1 $242 $521 $527 $532 forward $366 $-1 #
vertex $-1 $243 $533 #
vertex $-1 $243 $534 #
straight-curve $-1 5.6831430799735063 18.662384122500054 9.9858726694386064 0 -1 0 I I #
coedge $-1 $380 $380 $-1 $535 reversed $246 $-1 #
edge $-1 $536 0 $536 6.2831853071796004 $247 $537 forward 7 unknown #
vertex $-1 $250 $538 #
ellipse-curve $-1 8.1352958926243346 25.69847566634326 8.4154105912120549 0 0.62932039886446345 0.77714595512881146 0.5 0 0 1 I I #
coedge $-1 $384 $384 $-1 $539 reversed $253 $-1 #
edge $-1 $540 0 $540 6.2831853071796004 $254 $541 forward 7 unknown #
vertex $-1 $257 $542 #
ellipse-curve $-1 11.813525111600576 25.69847566634326 8.4154105912120549 0 0.62932039886446345 0.77714595512881146 0.5 0 0 1 I I #
face $-1 $-1 $543 $53 $-1 $544 reversed single #
loop $-1 $-1 $264 $258 #
plane-surface $-1 0 0 9.9858726694386082 0 0 1 1 0 0 forward_v I I I I #
coedge $-1 $545 $546 $547 $548 reversed $259 $-1 #
coedge $-1 $549 $261 $263 $398 forward $163 $-1 #
coedge $-1 $261 $549 $545 $550 forward $163 $-1 #
coedge $-1 $547 $264 $261 $395 forward $389 $-1 #
edge $-1 $401 9.7317089606848164 $551 18.314243804962718 $394 $552 forward 7 unknown #
coedge $-1 $553 $554 $262 $397 forward $543 $-1 #
edge $-1 $555 -46.475662554947085 $400 -43.334738398493968 $396 $556 forward 7 unknown #
edge $-1 $401 50.284691736204024 $555 55.275669562634818 $263 $557 forward 7 unknown #
coedge $-1 $264 $547 $553 $558 forward $389 $-1 #
vertex $-1 $265 $559 #
vertex $-1 $265 $560 #
straight-curve $-1 23.754685343508584 18.662384122500054 9.9858726694386064 0 -1 0 I I #
coedge $-1 $403 $403 $-1 $561 reversed $268 $-1 #
edge $-1 $562 0 $562 6.2831853071796004 $269 $563 forward 7 unknown #
vertex $-1 $272 $564 #
ellipse-curve $-1 26.206838156159414 25.69847566634326 8.4154105912120549 0 0.62932039886446345 0.77714595512881146 0.5 0 0 1 I I #
coedge $-1 $407 $407 $-1 $565 reversed $275 $-1 #
edge $-1 $566 0 $566 6.2831853071796004 $276 $567 forward 7 unknown #
vertex $-1 $279 $568 #
ellipse-curve $-1 29.885067375135655 25.69847566634326 8.4154105912120549 0 0.62932039886446345 0.77714595512881146 0.5 0 0 1 I I #
face $-1 $-1 $295 $42 $-1 $569 reversed single #
loop $-1 $-1 $427 $280 #
plane-surface $-1 0 27.637834781317402 0 0 -1 0 0 0 -1 forward_v I I I I #
coedge $-1 $570 $425 $428 $571 forward $281 $-1 #
coedge $-1 $431 $283 $284 $419 reversed $177 $-1 #
coedge $-1 $425 $570 $283 $417 reversed $281 $-1 #
edge $-1 $432 -9.9858726694386082 $572 9.9858726694386082 $416 $573 forward 7 unknown #
coedge $-1 $285 $284 $570 $574 forward $113 $-1 #
edge $-1 $423 -41.82622760704367 $572 41.82622760704367 $415 $575 forward 7 unknown #
coedge $-1 $428 $427 $285 $421 reversed $412 $-1 #
edge $-1 $576 -41.82622760704367 $422 41.82622760704367 $420 $577 forward 7 unknown #
vertex $-1 $287 $578 #
vertex $-1 $434 $579 #
straight-curve $-1 41.82622760704367 0 -9.9858726694386082 0 -1 0 I I #
coedge $-1 $414 $416 $288 $426 reversed $281 $-1 #
edge $-1 $429 -27.637834781317402 $432 27.637834781317402 $425 $580 forward 7 unknown #
coedge $-1 $420 $289 $294 $435 forward $412 $-1 #
coedge $-1 $289 $420 $414 $571 reversed $412 $-1 #
vertex $-1 $290 $581 #
straight-curve $-1 0 27.637834781317402 9.9858726694386082 -1 0 0 I I #
coedge $-1 $291 $415 $293 $434 reversed $177 $-1 #
vertex $-1 $426 $582 #
straight-curve $-1 0 -27.637834781317402 9.9858726694386082 1 0 0 I I #
edge $-1 $296 -9.9858726694386082 $423 9.9858726694386082 $293 $583 forward 7 unknown #
edge $-1 $297 -9.9858726694386082 $422 9.9858726694386082 $294 $584 forward 7 unknown #
point $-1 41.82622760704367 -27.637834781317402 9.9858726694386082 #
point $-1 41.82622760704367 27.637834781317402 9.9858726694386082 #
face $-1 $-1 $314 $43 $-1 $585 reversed single #
loop $-1 $-1 $447 $299 #
plane-surface $-1 0 0 9.9858726694386082 0 0 1 1 0 0 forward_v I I I I #
coedge $-1 $453 $452 $303 $446 forward $300 $-1 #
coedge $-1 $305 $302 $453 $586 reversed $185 $-1 #
coedge $-1 $302 $305 $456 $587 reversed $185 $-1 #
edge $-1 $458 -9.9858726694386082 $454 9.9858726694386082 $302 $588 forward 7 unknown #
coedge $-1 $304 $303 $460 $589 reversed $117 $-1 #
edge $-1 $590 -23.754685343508591 $450 -12.388399183561567 $441 $591 forward 7 unknown #
coedge $-1 $457 $456 $304 $448 forward $439 $-1 #
edge $-1 $449 12.388399183561567 $592 23.754685343508591 $447 $593 forward 7 unknown #
vertex $-1 $448 $594 #
vertex $-1 $446 $595 #
straight-curve $-1 -30.459941447096647 -19.90070955336315 0 0 0 -1 I I #
coedge $-1 $441 $308 $313 $462 forward $300 $-1 #
coedge $-1 $308 $441 $442 $586 forward $300 $-1 #
vertex $-1 $309 $596 #
straight-curve $-1 -18.071542263535079 -25.56919396835665 -9.9858726694386082 -1 0 0 I I #
coedge $-1 $447 $310 $443 $587 forward $439 $-1 #
coedge $-1 $310 $447 $312 $461 forward $439 $-1 #
vertex $-1 $311 $597 #
straight-curve $-1 -18.071542263535079 -25.56919396835665 9.9858726694386082 1 0 0 I I #
coedge $-1 $313 $312 $445 $589 forward $314 $-1 #
edge $-1 $592 19.90070955336315 $316 25.56919396835665 $312 $598 forward 7 unknown #
edge $-1 $315 -25.56919396835665 $590 -19.90070955336315 $313 $599 forward 7 unknown #
point $-1 -41.82622760704367 -25.56919396835665 -9.9858726694386082 #
point $-1 -41.82622760704367 -25.56919396835665 9.9858726694386082 #
plane-surface $-1 0 0 9.9858726694386082 0 0 1 1 0 0 forward_v I I I I #
coedge $-1 $476 $475 $468 $600 forward $319 $-1 #
coedge $-1 $468 $321 $323 $472 reversed $193 $-1 #
coedge $-1 $321 $467 $466 $600 reversed $193 $-1 #
coedge $-1 $329 $324 $321 $470 forward $330 $-1 #
edge $-1 $473 5.0967324288690712 $601 8.9754506588173477 $469 $602 forward 7 unknown #
coedge $-1 $323 $322 $476 $603 reversed $121 $-1 #
edge $-1 $604 -55.275669562634818 $473 -50.284691736204024 $467 $605 forward 7 unknown #
vertex $-1 $325 $606 #
straight-curve $-1 -13.084337012478851 23.759116551369132 9.9858726694386029 1 0 0 I I #
coedge $-1 $466 $326 $329 $480 reversed $319 $-1 #
coedge $-1 $326 $466 $471 $603 forward $319 $-1 #
vertex $-1 $327 $607 #
straight-curve $-1 -30.459941447096654 27.637834781317402 53.320611067932575 0 0 1 I I #
straight-curve $-1 -30.459941447096654 -15.319428236321002 41.631054929643113 0 0.77714595512881146 -0.62932039886446345 I I #
edge $-1 $601 21.877406602818752 $331 30.459941447096654 $475 $608 forward 7 unknown #
point $-1 -30.459941447096654 27.637834781317402 9.9858726694386082 #
point $-1 -30.459941447096654 23.759116551369125 9.9858726694386064 #
edge $-1 $609 1 $609 0 $334 $-1 forward 7 unknown #
vertex $-1 $335 $610 #
ellipse-curve $-1 -28.007788634445824 24.853357544109524 7.371776646586885 0 0.62932039886446345 0.77714595512881146 0.5 0 0 1 I I #
point $-1 -27.507788634445824 25.698475666343263 8.4154105912120585 #
edge $-1 $611 1 $611 0 $338 $-1 forward 7 unknown #
vertex $-1 $339 $612 #
ellipse-curve $-1 -24.329559415469582 24.853357544109524 7.371776646586885 0 0.62932039886446345 0.77714595512881146 0.5 0 0 1 I I #
point $-1 -23.829559415469582 25.698475666343263 8.4154105912120585 #
loop $-1 $-1 $350 $342 #
plane-surface $-1 0 27.637834781317402 0 0 -1 0 0 0 -1 forward_v I I I I #
coedge $-1 $494 $345 $347 $498 reversed $215 $-1 #
coedge $-1 $345 $493 $613 $614 reversed $215 $-1 #
coedge $-1 $353 $348 $345 $496 forward $343 $-1 #
edge $-1 $499 5.0967324288690712 $615 8.9754506588173477 $495 $616 forward 7 unknown #
coedge $-1 $347 $346 $502 $617 reversed $135 $-1 #
edge $-1 $618 -55.275669562634818 $499 -50.284691736204024 $493 $619 forward 7 unknown #
vertex $-1 $349 $620 #
straight-curve $-1 -4.0485658807113118 23.759116551369132 9.9858726694386029 1 0 0 I I #
coedge $-1 $613 $350 $353 $506 reversed $491 $-1 #
coedge $-1 $350 $613 $497 $617 forward $491 $-1 #
vertex $-1 $351 $621 #
straight-curve $-1 -12.388399183561573 27.637834781317402 53.320611067932575 0 0 1 I I #
straight-curve $-1 -12.388399183561573 -15.319428236321002 41.631054929643113 0 0.77714595512881146 -0.62932039886446345 I I #
edge $-1 $615 3.8058643392836746 $354 12.388399183561573 $501 $622 forward 7 unknown #
point $-1 -12.388399183561573 27.637834781317402 9.9858726694386082 #
point $-1 -12.388399183561573 23.759116551369125 9.9858726694386064 #
edge $-1 $623 1 $623 0 $357 $-1 forward 7 unknown #
vertex $-1 $358 $624 #
ellipse-curve $-1 -9.9362463709107445 24.853357544109524 7.371776646586885 0 0.62932039886446345 0.77714595512881146 0.5 0 0 1 I I #
point $-1 -9.4362463709107445 25.698475666343263 8.4154105912120585 #
edge $-1 $625 1 $625 0 $361 $-1 forward 7 unknown #
vertex $-1 $362 $626 #
ellipse-curve $-1 -6.2580171519345029 24.853357544109524 7.371776646586885 0 0.62932039886446345 0.77714595512881146 0.5 0 0 1 I I #
point $-1 -5.7580171519345029 25.698475666343263 8.4154105912120585 #
loop $-1 $-1 $373 $365 #
plane-surface $-1 0 27.637834781317402 0 0 -1 0 0 0 -1 forward_v I I I I #
coedge $-1 $520 $368 $370 $524 reversed $237 $-1 #
coedge $-1 $368 $519 $627 $628 reversed $237 $-1 #
coedge $-1 $376 $371 $368 $522 forward $366 $-1 #
edge $-1 $525 5.0967324288690712 $629 8.9754506588173477 $521 $630 forward 7 unknown #
coedge $-1 $370 $369 $528 $631 reversed $149 $-1 #
edge $-1 $632 -55.275669562634818 $525 -50.284691736204024 $519 $633 forward 7 unknown #
vertex $-1 $372 $634 #
straight-curve $-1 4.9872052510562277 23.759116551369132 9.9858726694386029 1 0 0 I I #
coedge $-1 $627 $373 $376 $532 reversed $517 $-1 #
coedge $-1 $373 $627 $523 $631 forward $517 $-1 #
vertex $-1 $374 $635 #
straight-curve $-1 5.6831430799735063 27.637834781317402 53.320611067932575 0 0 1 I I #
straight-curve $-1 5.6831430799735063 -15.319428236321002 41.631054929643113 0 0.77714595512881146 -0.62932039886446345 I I #
edge $-1 $629 -14.265677924251404 $377 -5.6831430799735063 $527 $636 forward 7 unknown #
point $-1 5.6831430799735063 27.637834781317402 9.9858726694386082 #
point $-1 5.6831430799735063 23.759116551369125 9.9858726694386064 #
edge $-1 $637 1 $637 0 $380 $-1 forward 7 unknown #
vertex $-1 $381 $638 #
ellipse-curve $-1 8.1352958926243346 24.853357544109524 7.371776646586885 0 0.62932039886446345 0.77714595512881146 0.5 0 0 1 I I #
point $-1 8.6352958926243346 25.698475666343263 8.4154105912120585 #
edge $-1 $639 1 $639 0 $384 $-1 forward 7 unknown #
vertex $-1 $385 $640 #
ellipse-curve $-1 11.813525111600576 24.853357544109524 7.371776646586885 0 0.62932039886446345 0.77714595512881146 0.5 0 0 1 I I #
point $-1 12.313525111600576 25.698475666343263 8.4154105912120585 #
loop $-1 $-1 $396 $388 #
plane-surface $-1 0 27.637834781317402 0 0 -1 0 0 0 -1 forward_v I I I I #
coedge $-1 $546 $391 $393 $550 reversed $259 $-1 #
coedge $-1 $391 $545 $641 $642 reversed $259 $-1 #
coedge $-1 $399 $394 $391 $548 forward $389 $-1 #
edge $-1 $551 5.0967324288690712 $643 8.9754506588173477 $547 $644 forward 7 unknown #
coedge $-1 $393 $392 $554 $645 reversed $163 $-1 #
edge $-1 $646 -55.275669562634818 $551 -50.284691736204024 $545 $647 forward 7 unknown #
vertex $-1 $395 $648 #
straight-curve $-1 14.022976382823767 23.759116551369132 9.9858726694386029 1 0 0 I I #
coedge $-1 $641 $396 $399 $558 reversed $543 $-1 #
coedge $-1 $396 $641 $549 $645 forward $543 $-1 #
vertex $-1 $397 $649 #
straight-curve $-1 23.754685343508584 27.637834781317402 53.320611067932575 0 0 1 I I #
straight-curve $-1 23.754685343508584 -15.319428236321002 41.631054929643113 0 0.77714595512881146 -0.62932039886446345 I I #
edge $-1 $643 -32.337220187786485 $400 -23.754685343508584 $553 $650 forward 7 unknown #
point $-1 23.754685343508584 27.637834781317402 9.9858726694386082 #
point $-1 23.754685343508584 23.759116551369125 9.9858726694386064 #
edge $-1 $651 1 $651 0 $403 $-1 forward 7 unknown #
vertex $-1 $404 $652 #
ellipse-curve $-1 26.206838156159414 24.853357544109524 7.371776646586885 0 0.62932039886446345 0.77714595512881146 0.5 0 0 1 I I #
point $-1 26.706838156159414 25.698475666343263 8.4154105912120585 #
edge $-1 $653 1 $653 0 $407 $-1 forward 7 unknown #
vertex $-1 $408 $654 #
ellipse-curve $-1 29.885067375135655 24.853357544109524 7.371776646586885 0 0.62932039886446345 0.77714595512881146 0.5 0 0 1 I I #
point $-1 30.385067375135655 25.698475666343263 8.4154105912120585 #
plane-surface $-1 41.82622760704367 0 0 -1 0 0 0 0 1 forward_v I I I I #
coedge $-1 $416 $414 $418 $574 reversed $281 $-1 #
edge $-1 $429 -9.9858726694386082 $576 9.9858726694386082 $428 $655 forward 7 unknown #
vertex $-1 $574 $656 #
straight-curve $-1 -41.82622760704367 -27.637834781317402 0 0 0 -1 I I #
edge $-1 $572 -27.637834781317402 $576 27.637834781317402 $570 $657 forward 7 unknown #
straight-curve $-1 0 -27.637834781317402 -9.9858726694386082 -1 0 0 I I #
vertex $-1 $421 $658 #
straight-curve $-1 0 27.637834781317402 -9.9858726694386082 1 0 0 I I #
point $-1 41.82622760704367 27.637834781317402 -9.9858726694386082 #
point $-1 41.82622760704367 -27.637834781317402 -9.9858726694386082 #
straight-curve $-1 -41.82622760704367 0 9.9858726694386082 0 -1 0 I I #
point $-1 -41.82622760704367 27.637834781317402 9.9858726694386082 #
point $-1 -41.82622760704367 -27.637834781317402 9.9858726694386082 #
straight-curve $-1 41.82622760704367 -27.637834781317402 0 0 0 -1 I I #
straight-curve $-1 41.82622760704367 27.637834781317402 0 0 0 -1 I I #
plane-surface $-1 -41.82622760704367 0 0 1 0 0 0 0 -1 forward_v I I I I #
edge $-1 $450 8.5332336729331999 $454 14.2017180879267 $453 $659 forward 7 unknown #
edge $-1 $458 -14.2017180879267 $449 -8.5332336729331999 $456 $660 forward 7 unknown #
straight-curve $-1 -30.459941447096647 -25.56919396835665 0 0 0 -1 I I #
edge $-1 $592 -9.9858726694386082 $590 9.9858726694386082 $460 $661 forward 7 unknown #
vertex $-1 $589 $662 #
straight-curve $-1 -18.071542263535079 -19.90070955336315 -9.9858726694386082 1 0 0 I I #
vertex $-1 $461 $663 #
straight-curve $-1 -18.071542263535079 -19.90070955336315 9.9858726694386082 -1 0 0 I I #
point $-1 -30.459941447096647 -19.90070955336315 9.9858726694386082 #
point $-1 -30.459941447096647 -19.90070955336315 -9.9858726694386082 #
point $-1 -30.459941447096647 -25.56919396835665 -9.9858726694386082 #
point $-1 -30.459941447096647 -25.56919396835665 9.9858726694386082 #
straight-curve $-1 -41.82622760704367 0 9.9858726694386082 0 -1 0 I I #
straight-curve $-1 -41.82622760704367 0 -9.9858726694386082 0 1 0 I I #
edge $-1 $601 43.334738398493968 $604 46.475662554947085 $466 $664 forward 7 unknown #
vertex $-1 $480 $665 #
straight-curve $-1 -21.877406602818752 18.662384122500054 9.9858726694386064 0 1 0 I I #
edge $-1 $604 8.7930695903399005 $477 17.375604434617802 $476 $666 forward 7 unknown #
vertex $-1 $603 $667 #
straight-curve $-1 -21.877406602818752 -15.319428236321002 41.631054929643113 0 -0.77714595512881146 0.62932039886446345 I I #
point $-1 -21.877406602818752 23.759116551369125 9.9858726694386064 #
point $-1 -30.459941447096654 27.637834781317402 6.8449485129854892 #
straight-curve $-1 0 27.637834781317402 9.9858726694386082 -1 0 0 I I #
vertex $-1 $483 $668 #
point $-1 -27.507788634445824 24.853357544109524 7.371776646586885 #
vertex $-1 $487 $669 #
point $-1 -23.829559415469582 24.853357544109524 7.371776646586885 #
coedge $-1 $502 $501 $494 $614 forward $491 $-1 #
edge $-1 $615 43.334738398493968 $618 46.475662554947085 $613 $670 forward 7 unknown #
vertex $-1 $506 $671 #
straight-curve $-1 -3.8058643392836746 18.662384122500054 9.9858726694386064 0 1 0 I I #
edge $-1 $618 -0.24270154142763722 $503 8.3398333028502609 $502 $672 forward 7 unknown #
vertex $-1 $617 $673 #
straight-curve $-1 -3.8058643392836746 -15.319428236321002 41.631054929643113 0 -0.77714595512881146 0.62932039886446345 I I #
point $-1 -3.8058643392836746 23.759116551369125 9.9858726694386064 #
point $-1 -12.388399183561573 27.637834781317402 6.8449485129854892 #
straight-curve $-1 0 27.637834781317402 9.9858726694386082 -1 0 0 I I #
vertex $-1 $509 $674 #
point $-1 -9.4362463709107445 24.853357544109524 7.371776646586885 #
vertex $-1 $513 $675 #
point $-1 -5.7580171519345029 24.853357544109524 7.371776646586885 #
coedge $-1 $528 $527 $520 $628 forward $517 $-1 #
edge $-1 $629 43.334738398493968 $632 46.475662554947085 $627 $676 forward 7 unknown #
vertex $-1 $532 $677 #
straight-curve $-1 14.265677924251404 18.662384122500054 9.9858726694386064 0 1 0 I I #
edge $-1 $632 -9.2784726731951768 $529 -0.69593782891727862 $528 $678 forward 7 unknown #
vertex $-1 $631 $679 #
straight-curve $-1 14.265677924251404 -15.319428236321002 41.631054929643113 0 -0.77714595512881146 0.62932039886446345 I I #
point $-1 14.265677924251404 23.759116551369125 9.9858726694386064 #
point $-1 5.6831430799735063 27.637834781317402 6.8449485129854892 #
straight-curve $-1 0 27.637834781317402 9.9858726694386082 -1 0 0 I I #
vertex $-1 $535 $680 #
point $-1 8.6352958926243346 24.853357544109524 7.371776646586885 #
vertex $-1 $539 $681 #
point $-1 12.313525111600576 24.853357544109524 7.371776646586885 #
coedge $-1 $554 $553 $546 $642 forward $543 $-1 #
edge $-1 $643 43.334738398493968 $646 46.475662554947085 $641 $682 forward 7 unknown #
vertex $-1 $558 $683 #
straight-curve $-1 32.337220187786485 18.662384122500054 9.9858726694386064 0 1 0 I I #
edge $-1 $646 -18.314243804962718 $555 -9.7317089606848164 $554 $684 forward 7 unknown #
vertex $-1 $645 $685 #
straight-curve $-1 32.337220187786485 -15.319428236321002 41.631054929643113 0 -0.77714595512881146 0.62932039886446345 I I #
point $-1 32.337220187786485 23.759116551369125 9.9858726694386064 #
point $-1 23.754685343508584 27.637834781317402 6.8449485129854892 #
straight-curve $-1 0 27.637834781317402 9.9858726694386082 -1 0 0 I I #
vertex $-1 $561 $686 #
point $-1 26.706838156159414 24.853357544109524 7.371776646586885 #
vertex $-1 $565 $687 #
point $-1 30.385067375135655 24.853357544109524 7.371776646586885 #
straight-curve $-1 -41.82622760704367 27.637834781317402 0 0 0 -1 I I #
point $-1 -41.82622760704367 -27.637834781317402 -9.9858726694386082 #
straight-curve $-1 -41.82622760704367 0 -9.9858726694386082 0 1 0 I I #
point $-1 -41.82622760704367 27.637834781317402 -9.9858726694386082 #
straight-curve $-1 -30.459941447096647 -11.36747588042995 -9.9858726694386082 0 -1 0 I I #
straight-curve $-1 -30.459941447096647 -11.36747588042995 9.9858726694386082 0 1 0 I I #
straight-curve $-1 -41.82622760704367 -19.90070955336315 0 0 0 -1 I I #
point $-1 -41.82622760704367 -19.90070955336315 -9.9858726694386082 #
point $-1 -41.82622760704367 -19.90070955336315 9.9858726694386082 #
straight-curve $-1 -21.877406602818752 27.637834781317402 53.320611067932575 0 0 -1 I I #
point $-1 -21.877406602818752 27.637834781317402 9.9858726694386082 #
straight-curve $-1 -13.084337012478851 27.637834781317402 6.8449485129854928 -1 0 0 I I #
point $-1 -21.877406602818752 27.637834781317402 6.8449485129854892 #
point $-1 -28.007788634445824 24.538697344677292 6.9832036690224788 #
point $-1 -24.329559415469582 24.538697344677292 6.9832036690224788 #
straight-curve $-1 -3.8058643392836746 27.637834781317402 53.320611067932575 0 0 -1 I I #
point $-1 -3.8058643392836746 27.637834781317402 9.9858726694386082 #
straight-curve $-1 -4.0485658807113118 27.637834781317402 6.8449485129854928 -1 0 0 I I #
point $-1 -3.8058643392836746 27.637834781317402 6.8449485129854892 #
point $-1 -9.9362463709107445 24.538697344677292 6.9832036690224788 #
point $-1 -6.2580171519345029 24.538697344677292 6.9832036690224788 #
straight-curve $-1 14.265677924251404 27.637834781317402 53.320611067932575 0 0 -1 I I #
point $-1 14.265677924251404 27.637834781317402 9.9858726694386082 #
straight-curve $-1 4.9872052510562277 27.637834781317402 6.8449485129854928 -1 0 0 I I #
point $-1 14.265677924251404 27.637834781317402 6.8449485129854892 #
point $-1 8.1352958926243346 24.538697344677292 6.9832036690224788 #
point $-1 11.813525111600576 24.538697344677292 6.9832036690224788 #
straight-curve $-1 32.337220187786485 27.637834781317402 53.320611067932575 0 0 -1 I I #
point $-1 32.337220187786485 27.637834781317402 9.9858726694386082 #
straight-curve $-1 14.022976382823767 27.637834781317402 6.8449485129854928 -1 0 0 I I #
point $-1 32.337220187786485 27.637834781317402 6.8449485129854892 #
point $-1 26.206838156159414 24.538697344677292 6.9832036690224788 #
point $-1 29.885067375135655 24.538697344677292 6.9832036690224788 #
End-of-ACIS-data 