500 0 9 0           
7 Unknown 11 ACIS 5.0 NT 24 Fri Mar 26 02:32:46 1999 
-1 9.9999999999999995e-007 1e-010 
body $-1 $9 $-1 $10 #
body $-1 $11 $-1 $12 #
body $-1 $13 $-1 $14 #
body $-1 $15 $-1 $16 #
body $-1 $17 $-1 $18 #
body $-1 $19 $-1 $20 #
body $-1 $21 $-1 $22 #
body $-1 $23 $-1 $24 #
body $-1 $25 $-1 $26 #
lump $-1 $-1 $27 $0 #
transform $-1 1 0 0 0 1 0 0 0 1 75.226905117954033 45.781725691066271 15.112985390257165 1 rotate no_reflect no_shear #
lump $-1 $-1 $28 $1 #
transform $-1 1 0 0 0 1 0 0 0 1 75.226905117954033 45.781725691066271 15.112985390257165 1 rotate no_reflect no_shear #
lump $-1 $-1 $29 $2 #
transform $-1 1 0 0 0 1 0 0 0 1 75.226905117954033 45.781725691066271 15.112985390257165 1 rotate no_reflect no_shear #
lump $-1 $-1 $30 $3 #
transform $-1 1 0 0 0 1 0 0 0 1 75.226905117954033 45.781725691066271 15.112985390257165 1 rotate no_reflect no_shear #
lump $-1 $-1 $31 $4 #
transform $-1 1 0 0 0 1 0 0 0 1 75.226905117954033 45.781725691066271 15.112985390257165 1 rotate no_reflect no_shear #
lump $-1 $-1 $32 $5 #
transform $-1 1 0 0 0 1 0 0 0 1 75.226905117954033 45.781725691066271 15.112985390257165 1 rotate no_reflect no_shear #
lump $-1 $-1 $33 $6 #
transform $-1 1 0 0 0 1 0 0 0 1 75.226905117954033 45.781725691066271 15.112985390257165 1 rotate no_reflect no_shear #
lump $-1 $-1 $34 $7 #
transform $-1 1 0 0 0 1 0 0 0 1 75.226905117954033 45.781725691066271 15.112985390257165 1 rotate no_reflect no_shear #
lump $-1 $-1 $35 $8 #
transform $-1 1 0 0 0 1 0 0 0 1 75.226905117954033 45.781725691066271 15.112985390257165 1 rotate no_reflect no_shear #
shell $-1 $-1 $-1 $36 $-1 $9 #
shell $-1 $-1 $-1 $37 $-1 $11 #
shell $-1 $-1 $-1 $38 $-1 $13 #
shell $-1 $-1 $-1 $39 $-1 $15 #
shell $-1 $-1 $-1 $40 $-1 $17 #
shell $-1 $-1 $-1 $41 $-1 $19 #
shell $-1 $-1 $-1 $42 $-1 $21 #
shell $-1 $-1 $-1 $43 $-1 $23 #
shell $-1 $-1 $-1 $44 $-1 $25 #
face $-1 $45 $46 $27 $-1 $47 forward single #
face $-1 $48 $49 $28 $-1 $50 reversed single #
face $-1 $51 $52 $29 $-1 $53 reversed single #
face $-1 $54 $55 $30 $-1 $56 forward single #
face $-1 $57 $58 $31 $-1 $59 forward single #
face $-1 $60 $61 $32 $-1 $62 reversed single #
face $-1 $63 $64 $33 $-1 $65 forward single #
face $-1 $66 $67 $34 $-1 $68 forward single #
face $-1 $69 $70 $35 $-1 $71 forward single #
face $-1 $72 $73 $27 $-1 $74 reversed single #
loop $-1 $-1 $75 $36 #
plane-surface $-1 0 0 15.112985390257165 0 0 1 1 0 0 forward_v I I I I #
face $-1 $76 $77 $28 $-1 $78 reversed single #
loop $-1 $-1 $79 $37 #
plane-surface $-1 -69.567484823061079 -40.060219792871749 0 0 -1 0 0 0 -1 forward_v I I I I #
face $-1 $80 $81 $29 $-1 $82 reversed single #
loop $-1 $-1 $83 $38 #
plane-surface $-1 -42.591831135030958 93.370555100470625 174.62754314664738 1 0 0 0 -0.73135370988377701 -0.68199835119979291 forward_v I I I I #
face $-1 $84 $85 $30 $-1 $86 forward single #
loop $-1 $87 $88 $39 #
cone-surface $-1 -37.545050094603504 39.80202715365138 8.8808381152876326 0 -0.73135370988377701 -0.68199835119979291 2.5 0 0 1 I I 0 1 2.5 forward I I I I #
face $-1 $89 $90 $31 $-1 $91 forward single #
loop $-1 $92 $93 $40 #
cone-surface $-1 -29.974878533962311 39.80202715365138 8.8808381152876326 0 -0.73135370988377701 -0.68199835119979291 2.5 0 0 1 I I 0 1 2.5 forward I I I I #
face $-1 $94 $95 $32 $-1 $96 reversed single #
loop $-1 $-1 $97 $41 #
plane-surface $-1 61.434636931789555 -45.781725691066271 9.8099396741006046 0 -0.66913061440640931 0.74314481823134659 1 0 0 forward_v I I I I #
face $-1 $98 $99 $33 $-1 $100 forward single #
loop $-1 $101 $102 $42 #
cone-surface $-1 53.159276020090857 -42.350230925301545 11.920949245015015 0 0.66913061440640931 -0.74314481823134659 1 0 0 1 I I 0 1 1 forward I I I I #
face $-1 $103 $104 $34 $-1 $105 forward single #
loop $-1 $106 $107 $43 #
cone-surface $-1 61.434636931789555 -42.350230925301545 11.920949245015015 0 0.66913061440640931 -0.74314481823134659 1 0 0 1 I I 0 1 1 forward I I I I #
face $-1 $108 $109 $35 $-1 $110 forward single #
loop $-1 $111 $112 $44 #
cone-surface $-1 69.709997843488253 -42.350230925301545 11.920949245015015 0 0.66913061440640931 -0.74314481823134659 1 0 0 1 I I 0 1 1 forward I I I I #
face $-1 $113 $114 $27 $-1 $115 reversed single #
loop $-1 $-1 $116 $45 #
plane-surface $-1 0 0 -15.112985390257165 0 0 1 1 0 0 forward_v I I I I #
coedge $-1 $117 $118 $119 $120 forward $46 $-1 #
face $-1 $121 $122 $28 $-1 $123 forward single #
loop $-1 $-1 $124 $48 #
plane-surface $-1 -63.908064528168119 -42.92097274196901 0 -1 0 0 0 0 1 forward_v I I I I #
coedge $-1 $125 $126 $127 $128 forward $49 $-1 #
face $-1 $129 $130 $29 $-1 $131 reversed single #
loop $-1 $-1 $132 $51 #
plane-surface $-1 -33.759964314282897 -16.664397181710527 72.018292634031553 0 0.73135370988377701 0.68199835119979291 1 0 0 forward_v I I I I #
coedge $-1 $133 $134 $135 $136 reversed $52 $-1 #
face $-1 $-1 $137 $30 $-1 $138 forward single #
loop $-1 $139 $140 $54 #
cone-surface $-1 -37.545050094603504 37.598669816835326 6.8261742084739012 0 -0.73135370988377701 -0.68199835119979291 1.25 0 0 1 I I -0.70710678118654746 0.70710678118654746 1.25 forward I I I I #
loop $-1 $-1 $141 $39 #
coedge $-1 $88 $88 $142 $143 reversed $55 $-1 #
face $-1 $-1 $144 $31 $-1 $145 forward single #
loop $-1 $146 $147 $57 #
cone-surface $-1 -29.974878533962311 37.598669816835326 6.8261742084739012 0 -0.73135370988377701 -0.68199835119979291 1.25 0 0 1 I I -0.70710678118654746 0.70710678118654746 1.25 forward I I I I #
loop $-1 $-1 $148 $40 #
coedge $-1 $93 $93 $149 $150 reversed $58 $-1 #
face $-1 $151 $152 $32 $-1 $153 forward single #
loop $-1 $-1 $154 $60 #
plane-surface $-1 47.642368745625078 -146.45497617400474 121.61890913407802 1 0 0 0 0.66913061440640931 -0.74314481823134659 forward_v I I I I #
coedge $-1 $155 $156 $157 $158 reversed $61 $-1 #
face $-1 $-1 $159 $33 $-1 $160 forward single #
loop $-1 $161 $162 $63 #
cone-surface $-1 53.159276020090857 -41.528985257740644 11.008863548735469 0 0.66913061440640931 -0.74314481823134659 0.5 0 0 1 I I -0.70710678118654746 0.70710678118654746 0.5 forward I I I I #
loop $-1 $-1 $163 $42 #
coedge $-1 $102 $102 $164 $165 reversed $64 $-1 #
face $-1 $-1 $166 $34 $-1 $167 forward single #
loop $-1 $168 $169 $66 #
cone-surface $-1 61.434636931789555 -41.528985257740644 11.008863548735469 0 0.66913061440640931 -0.74314481823134659 0.5 0 0 1 I I -0.70710678118654746 0.70710678118654746 0.5 forward I I I I #
loop $-1 $-1 $170 $43 #
coedge $-1 $107 $107 $171 $172 reversed $67 $-1 #
face $-1 $-1 $173 $35 $-1 $174 forward single #
loop $-1 $175 $176 $69 #
cone-surface $-1 69.709997843488253 -41.528985257740644 11.008863548735469 0 0.66913061440640931 -0.74314481823134659 0.5 0 0 1 I I -0.70710678118654746 0.70710678118654746 0.5 forward I I I I #
loop $-1 $-1 $177 $44 #
coedge $-1 $112 $112 $178 $179 reversed $70 $-1 #
face $-1 $180 $181 $27 $-1 $182 reversed single #
loop $-1 $-1 $183 $72 #
plane-surface $-1 0 -45.781725691066271 0 0 1 0 0 0 1 forward_v I I I I #
coedge $-1 $184 $185 $186 $187 forward $73 $-1 #
coedge $-1 $188 $75 $189 $190 forward $46 $-1 #
coedge $-1 $75 $188 $191 $192 forward $46 $-1 #
coedge $-1 $193 $194 $75 $120 reversed $195 $-1 #
edge $-1 $196 -45.781725691066271 $197 45.781725691066271 $119 $198 forward 7 unknown #
face $-1 $199 $200 $28 $-1 $201 reversed single #
loop $-1 $-1 $202 $76 #
plane-surface $-1 0 0 15.112985390257165 0 0 1 1 0 0 forward_v I I I I #
coedge $-1 $203 $204 $205 $206 reversed $77 $-1 #
coedge $-1 $207 $79 $208 $209 reversed $49 $-1 #
coedge $-1 $79 $207 $210 $211 reversed $49 $-1 #
coedge $-1 $204 $203 $79 $128 reversed $77 $-1 #
edge $-1 $212 -15.112985390257165 $213 15.112985390257165 $127 $214 forward 7 unknown #
face $-1 $215 $216 $29 $-1 $217 reversed single #
loop $-1 $-1 $218 $80 #
plane-surface $-1 -24.928097493534832 93.370555100470625 174.62754314664738 -1 0 0 0 0.73135370988377701 0.68199835119979291 forward_v I I I I #
coedge $-1 $219 $220 $221 $222 reversed $81 $-1 #
coedge $-1 $134 $83 $223 $224 reversed $52 $-1 #
coedge $-1 $83 $133 $219 $225 reversed $52 $-1 #
coedge $-1 $221 $226 $83 $136 forward $227 $-1 #
edge $-1 $228 0.9035518591690419 $229 10.284618535076142 $135 $230 forward 7 unknown #
loop $-1 $-1 $142 $84 #
plane-surface $-1 -33.759964314282897 -16.664397181710527 72.018292634031553 0 0.73135370988377701 0.68199835119979291 1 0 0 forward_v I I I I #
loop $-1 $-1 $231 $54 #
coedge $-1 $140 $140 $141 $232 reversed $85 $-1 #
coedge $-1 $141 $141 $140 $232 forward $87 $-1 #
coedge $-1 $142 $142 $88 $143 forward $137 $-1 #
edge $-1 $233 0 $233 6.2831853071796004 $142 $234 forward 7 unknown #
loop $-1 $-1 $149 $89 #
plane-surface $-1 -33.759964314282897 -16.664397181710527 72.018292634031553 0 0.73135370988377701 0.68199835119979291 1 0 0 forward_v I I I I #
loop $-1 $-1 $235 $57 #
coedge $-1 $147 $147 $148 $236 reversed $90 $-1 #
coedge $-1 $148 $148 $147 $236 forward $92 $-1 #
coedge $-1 $149 $149 $93 $150 forward $144 $-1 #
edge $-1 $237 0 $237 6.2831853071796004 $149 $238 forward 7 unknown #
face $-1 $239 $240 $32 $-1 $241 reversed single #
loop $-1 $-1 $157 $94 #
plane-surface $-1 0 0 15.112985390257165 0 0 1 1 0 0 forward_v I I I I #
coedge $-1 $242 $243 $244 $245 reversed $95 $-1 #
coedge $-1 $246 $97 $247 $248 reversed $61 $-1 #
coedge $-1 $97 $246 $242 $249 forward $61 $-1 #
coedge $-1 $244 $250 $97 $158 forward $152 $-1 #
edge $-1 $251 -44.509586652059255 $252 -16.9250502797303 $157 $253 forward 7 unknown #
loop $-1 $-1 $164 $98 #
plane-surface $-1 61.434636931789555 -45.781725691066271 9.8099396741006046 0 -0.66913061440640931 0.74314481823134659 1 0 0 forward_v I I I I #
loop $-1 $-1 $254 $63 #
coedge $-1 $162 $162 $163 $255 reversed $99 $-1 #
coedge $-1 $163 $163 $162 $255 forward $101 $-1 #
coedge $-1 $164 $164 $102 $165 forward $159 $-1 #
edge $-1 $256 -1.1886147433529169e-015 $256 6.2831853071795996 $164 $257 forward 7 unknown #
loop $-1 $-1 $171 $103 #
plane-surface $-1 61.434636931789555 -45.781725691066271 9.8099396741006046 0 -0.66913061440640931 0.74314481823134659 1 0 0 forward_v I I I I #
loop $-1 $-1 $258 $66 #
coedge $-1 $169 $169 $170 $259 reversed $104 $-1 #
coedge $-1 $170 $170 $169 $259 forward $106 $-1 #
coedge $-1 $171 $171 $107 $172 forward $166 $-1 #
edge $-1 $260 -1.1886147433529169e-015 $260 6.2831853071795996 $171 $261 forward 7 unknown #
loop $-1 $-1 $178 $108 #
plane-surface $-1 61.434636931789555 -45.781725691066271 9.8099396741006046 0 -0.66913061440640931 0.74314481823134659 1 0 0 forward_v I I I I #
loop $-1 $-1 $262 $69 #
coedge $-1 $176 $176 $177 $263 reversed $109 $-1 #
coedge $-1 $177 $177 $176 $263 forward $111 $-1 #
coedge $-1 $178 $178 $112 $179 forward $173 $-1 #
edge $-1 $264 -1.1886147433529169e-015 $264 6.2831853071795996 $178 $265 forward 7 unknown #
face $-1 $266 $267 $27 $-1 $268 reversed single #
loop $-1 $-1 $269 $113 #
plane-surface $-1 -75.226905117954033 0 0 1 0 0 0 0 -1 forward_v I I I I #
coedge $-1 $270 $191 $271 $272 forward $114 $-1 #
coedge $-1 $273 $116 $270 $274 forward $73 $-1 #
coedge $-1 $116 $273 $275 $276 forward $73 $-1 #
coedge $-1 $194 $193 $116 $187 reversed $195 $-1 #
edge $-1 $277 -45.781725691066271 $278 45.781725691066271 $186 $279 forward 7 unknown #
coedge $-1 $118 $117 $280 $281 forward $46 $-1 #
coedge $-1 $282 $283 $117 $190 reversed $267 $-1 #
edge $-1 $197 -75.226905117954033 $284 75.226905117954033 $189 $285 forward 7 unknown #
coedge $-1 $183 $286 $118 $192 reversed $114 $-1 #
edge $-1 $287 -75.226905117954033 $196 75.226905117954033 $191 $288 forward 7 unknown #
coedge $-1 $186 $119 $286 $289 forward $195 $-1 #
coedge $-1 $119 $186 $282 $290 reversed $195 $-1 #
loop $-1 $-1 $193 $266 #
vertex $-1 $120 $291 #
vertex $-1 $120 $292 #
straight-curve $-1 75.226905117954033 0 15.112985390257165 0 1 0 I I #
face $-1 $293 $294 $28 $-1 $295 reversed single #
loop $-1 $-1 $296 $121 #
plane-surface $-1 -75.226905117954033 0 0 1 0 0 0 0 -1 forward_v I I I I #
coedge $-1 $210 $297 $204 $298 forward $122 $-1 #
coedge $-1 $127 $124 $299 $300 reversed $77 $-1 #
coedge $-1 $124 $127 $202 $298 reversed $77 $-1 #
coedge $-1 $301 $302 $124 $206 forward $303 $-1 #
edge $-1 $304 -15.112985390257165 $305 15.112985390257165 $205 $306 forward 7 unknown #
coedge $-1 $126 $125 $296 $307 reversed $49 $-1 #
coedge $-1 $299 $308 $125 $209 forward $294 $-1 #
edge $-1 $309 -40.443162706423493 $213 -29.124322116637579 $208 $310 forward 7 unknown #
coedge $-1 $311 $202 $126 $211 forward $122 $-1 #
edge $-1 $212 29.124322116637579 $312 40.443162706423493 $210 $313 forward 7 unknown #
vertex $-1 $211 $314 #
vertex $-1 $209 $315 #
straight-curve $-1 -63.908064528168119 -40.060219792871749 0 0 0 -1 I I #
face $-1 $-1 $227 $29 $-1 $316 forward single #
loop $-1 $-1 $317 $129 #
plane-surface $-1 0 45.781725691066271 0 0 -1 0 0 0 -1 forward_v I I I I #
coedge $-1 $318 $319 $320 $321 reversed $130 $-1 #
coedge $-1 $322 $132 $134 $225 forward $81 $-1 #
coedge $-1 $132 $322 $318 $323 forward $81 $-1 #
coedge $-1 $320 $135 $132 $222 forward $227 $-1 #
edge $-1 $229 -25.71184897788951 $324 -8.0481153363933835 $221 $325 forward 7 unknown #
coedge $-1 $326 $327 $133 $224 forward $216 $-1 #
edge $-1 $328 -82.26074879737763 $228 -72.200786183066526 $223 $329 forward 7 unknown #
edge $-1 $229 77.808188397400045 $328 91.563451382132541 $134 $330 forward 7 unknown #
coedge $-1 $135 $320 $326 $331 forward $227 $-1 #
loop $-1 $-1 $320 $215 #
vertex $-1 $224 $332 #
vertex $-1 $136 $333 #
straight-curve $-1 -42.591831135030958 46.685277550235313 15.112985390257165 0 -1 0 I I #
coedge $-1 $231 $231 $-1 $334 reversed $139 $-1 #
edge $-1 $335 0 $335 6.2831853071796004 $140 $336 forward 7 unknown #
vertex $-1 $143 $337 #
ellipse-curve $-1 -37.545050094603504 41.091192353112717 10.083004083101624 0 0.73135370988377701 0.68199835119979291 2.5 0 0 1 I I #
coedge $-1 $235 $235 $-1 $338 reversed $146 $-1 #
edge $-1 $339 0 $339 6.2831853071796004 $147 $340 forward 7 unknown #
vertex $-1 $150 $341 #
ellipse-curve $-1 -29.974878533962311 41.091192353112717 10.083004083101624 0 0.73135370988377701 0.68199835119979291 2.5 0 0 1 I I #
face $-1 $-1 $342 $32 $-1 $343 reversed single #
loop $-1 $-1 $344 $151 #
plane-surface $-1 0 -45.781725691066271 0 0 1 0 0 0 1 forward_v I I I I #
coedge $-1 $243 $154 $156 $249 reversed $95 $-1 #
coedge $-1 $154 $242 $345 $346 reversed $95 $-1 #
coedge $-1 $347 $157 $154 $245 forward $152 $-1 #
edge $-1 $252 -33.335391206750138 $348 -27.4457623959361 $244 $349 forward 7 unknown #
coedge $-1 $156 $155 $344 $350 reversed $61 $-1 #
coedge $-1 $351 $352 $155 $248 forward $342 $-1 #
edge $-1 $353 -13.72916062779203 $251 -5.803883257452414 $247 $354 forward 7 unknown #
edge $-1 $355 0 $252 7.9252773703396162 $242 $356 forward 7 unknown #
coedge $-1 $157 $347 $351 $357 forward $152 $-1 #
vertex $-1 $158 $358 #
vertex $-1 $158 $359 #
straight-curve $-1 30.717318465894778 -39.892096880252232 15.112985390257165 -1 0 0 I I #
coedge $-1 $254 $254 $-1 $360 reversed $161 $-1 #
edge $-1 $361 0 $361 6.2831853071796004 $162 $362 forward 7 unknown #
vertex $-1 $165 $363 #
ellipse-curve $-1 53.159276020090857 -42.836911285659248 12.461462532178889 0 -0.66913061440640931 0.74314481823134659 1 0 0 1 I I #
coedge $-1 $258 $258 $-1 $364 reversed $168 $-1 #
edge $-1 $365 0 $365 6.2831853071796004 $169 $366 forward 7 unknown #
vertex $-1 $172 $367 #
ellipse-curve $-1 61.434636931789555 -42.836911285659248 12.461462532178889 0 -0.66913061440640931 0.74314481823134659 1 0 0 1 I I #
coedge $-1 $262 $262 $-1 $368 reversed $175 $-1 #
edge $-1 $369 0 $369 6.2831853071796004 $176 $370 forward 7 unknown #
vertex $-1 $179 $371 #
ellipse-curve $-1 69.709997843488253 -42.836911285659248 12.461462532178889 0 -0.66913061440640931 0.74314481823134659 1 0 0 1 I I #
face $-1 $-1 $195 $27 $-1 $372 reversed single #
loop $-1 $-1 $282 $180 #
plane-surface $-1 0 45.781725691066271 0 0 -1 0 0 0 -1 forward_v I I I I #
coedge $-1 $373 $280 $283 $374 forward $181 $-1 #
coedge $-1 $286 $183 $184 $274 reversed $114 $-1 #
coedge $-1 $280 $373 $183 $272 reversed $181 $-1 #
edge $-1 $287 -15.112985390257165 $375 15.112985390257165 $271 $376 forward 7 unknown #
coedge $-1 $185 $184 $373 $377 forward $73 $-1 #
edge $-1 $278 -75.226905117954033 $375 75.226905117954033 $270 $378 forward 7 unknown #
coedge $-1 $283 $282 $185 $276 reversed $267 $-1 #
edge $-1 $379 -75.226905117954033 $277 75.226905117954033 $275 $380 forward 7 unknown #
vertex $-1 $187 $381 #
vertex $-1 $289 $382 #
straight-curve $-1 75.226905117954033 0 -15.112985390257165 0 -1 0 I I #
coedge $-1 $269 $271 $188 $281 reversed $181 $-1 #
edge $-1 $284 -45.781725691066271 $287 45.781725691066271 $280 $383 forward 7 unknown #
coedge $-1 $275 $189 $194 $290 forward $267 $-1 #
coedge $-1 $189 $275 $269 $374 reversed $267 $-1 #
vertex $-1 $190 $384 #
straight-curve $-1 0 45.781725691066271 15.112985390257165 -1 0 0 I I #
coedge $-1 $191 $270 $193 $289 reversed $114 $-1 #
vertex $-1 $281 $385 #
straight-curve $-1 0 -45.781725691066271 15.112985390257165 1 0 0 I I #
edge $-1 $196 -15.112985390257165 $278 15.112985390257165 $193 $386 forward 7 unknown #
edge $-1 $197 -15.112985390257165 $277 15.112985390257165 $194 $387 forward 7 unknown #
point $-1 75.226905117954033 -45.781725691066271 15.112985390257165 #
point $-1 75.226905117954033 45.781725691066271 15.112985390257165 #
face $-1 $-1 $303 $28 $-1 $388 reversed single #
loop $-1 $-1 $299 $199 #
plane-surface $-1 0 0 -15.112985390257165 0 0 1 1 0 0 forward_v I I I I #
coedge $-1 $389 $390 $207 $307 forward $200 $-1 #
coedge $-1 $202 $311 $301 $391 forward $122 $-1 #
edge $-1 $305 -24.321239320081766 $212 -18.599733421887244 $202 $392 forward 7 unknown #
coedge $-1 $393 $208 $203 $300 forward $294 $-1 #
edge $-1 $213 18.599733421887244 $304 24.321239320081766 $299 $394 forward 7 unknown #
coedge $-1 $395 $205 $297 $391 reversed $303 $-1 #
coedge $-1 $205 $395 $393 $396 reversed $303 $-1 #
loop $-1 $-1 $205 $293 #
vertex $-1 $396 $397 #
vertex $-1 $206 $398 #
straight-curve $-1 -63.908064528168119 -45.781725691066271 0 0 0 1 I I #
edge $-1 $312 -15.112985390257165 $309 15.112985390257165 $296 $399 forward 7 unknown #
coedge $-1 $208 $393 $389 $400 forward $294 $-1 #
vertex $-1 $209 $401 #
straight-curve $-1 -34.78374241153054 -40.060219792871749 -15.112985390257165 1 0 0 I I #
coedge $-1 $297 $210 $390 $402 forward $122 $-1 #
vertex $-1 $402 $403 #
straight-curve $-1 -34.78374241153054 -40.060219792871749 15.112985390257165 -1 0 0 I I #
point $-1 -63.908064528168119 -40.060219792871749 15.112985390257165 #
point $-1 -63.908064528168119 -40.060219792871749 -15.112985390257165 #
plane-surface $-1 0 0 15.112985390257165 0 0 1 1 0 0 forward_v I I I I #
coedge $-1 $327 $326 $319 $404 forward $216 $-1 #
coedge $-1 $319 $218 $220 $323 reversed $130 $-1 #
coedge $-1 $218 $318 $317 $404 reversed $130 $-1 #
coedge $-1 $226 $221 $218 $321 forward $227 $-1 #
edge $-1 $324 -10.284618535076142 $405 -0.9035518591690419 $320 $406 forward 7 unknown #
coedge $-1 $220 $219 $327 $407 reversed $81 $-1 #
edge $-1 $408 -91.563451382132541 $324 -77.808188397400045 $318 $409 forward 7 unknown #
vertex $-1 $222 $410 #
straight-curve $-1 -16.879982157141448 36.400659015159178 15.112985390257165 1 0 0 I I #
coedge $-1 $317 $223 $226 $331 reversed $216 $-1 #
coedge $-1 $223 $317 $322 $407 forward $216 $-1 #
vertex $-1 $224 $411 #
straight-curve $-1 -42.591831135030958 45.781725691066271 87.313771573323692 0 0 1 I I #
straight-curve $-1 -42.591831135030958 -16.664397181710527 72.018292634031553 0 0.68199835119979291 -0.73135370988377701 I I #
edge $-1 $405 24.928097493534832 $228 42.591831135030958 $326 $412 forward 7 unknown #
point $-1 -42.591831135030958 45.781725691066271 15.112985390257165 #
point $-1 -42.591831135030958 36.400659015159171 15.112985390257165 #
edge $-1 $413 1 $413 0 $231 $-1 forward 7 unknown #
vertex $-1 $232 $414 #
ellipse-curve $-1 -37.545050094603504 38.512861954190043 7.6786721474736428 0 0.73135370988377701 0.68199835119979291 2.5 0 0 1 I I #
point $-1 -35.045050094603504 41.091192353112717 10.083004083101624 #
edge $-1 $415 1 $415 0 $235 $-1 forward 7 unknown #
vertex $-1 $236 $416 #
ellipse-curve $-1 -29.974878533962311 38.512861954190043 7.6786721474736428 0 0.73135370988377701 0.68199835119979291 2.5 0 0 1 I I #
point $-1 -27.474878533962311 41.091192353112717 10.083004083101624 #
loop $-1 $-1 $247 $239 #
plane-surface $-1 75.226905117954033 0 0 -1 0 0 0 0 1 forward_v I I I I #
coedge $-1 $417 $345 $246 $350 forward $240 $-1 #
coedge $-1 $344 $418 $243 $346 forward $240 $-1 #
edge $-1 $348 45.696469176781846 $355 50.999514892938407 $345 $419 forward 7 unknown #
coedge $-1 $250 $244 $418 $420 forward $152 $-1 #
vertex $-1 $420 $421 #
straight-curve $-1 47.642368745625078 -73.227488087002371 15.112985390257165 0 -1 0 I I #
edge $-1 $355 16.9250502797303 $353 44.509586652059255 $344 $422 forward 7 unknown #
coedge $-1 $352 $247 $250 $357 reversed $342 $-1 #
coedge $-1 $247 $351 $417 $423 forward $342 $-1 #
vertex $-1 $350 $424 #
straight-curve $-1 75.226905117954033 -35.578971111856802 18.996541360259371 0 0.74314481823134659 0.66913061440640931 I I #
vertex $-1 $350 $425 #
straight-curve $-1 47.642368745625078 -45.781725691066271 9.8099396741006046 0 0.74314481823134659 0.66913061440640931 I I #
edge $-1 $426 -45.781725691066271 $251 -39.892096880252232 $351 $427 forward 7 unknown #
point $-1 75.226905117954033 -39.892096880252232 15.112985390257165 #
point $-1 47.642368745625078 -39.892096880252232 15.112985390257165 #
edge $-1 $428 1 $428 0 $254 $-1 forward 7 unknown #
vertex $-1 $255 $429 #
ellipse-curve $-1 53.159276020090857 -41.86355056494385 11.380435957851143 0 -0.66913061440640931 0.74314481823134659 1 0 0 1 I I #
point $-1 54.159276020090857 -42.836911285659248 12.461462532178887 #
edge $-1 $430 1 $430 0 $258 $-1 forward 7 unknown #
vertex $-1 $259 $431 #
ellipse-curve $-1 61.434636931789555 -41.86355056494385 11.380435957851143 0 -0.66913061440640931 0.74314481823134659 1 0 0 1 I I #
point $-1 62.434636931789555 -42.836911285659248 12.461462532178887 #
edge $-1 $432 1 $432 0 $262 $-1 forward 7 unknown #
vertex $-1 $263 $433 #
ellipse-curve $-1 69.709997843488253 -41.86355056494385 11.380435957851143 0 -0.66913061440640931 0.74314481823134659 1 0 0 1 I I #
point $-1 70.709997843488253 -42.836911285659248 12.461462532178887 #
plane-surface $-1 75.226905117954033 0 0 -1 0 0 0 0 1 forward_v I I I I #
coedge $-1 $271 $269 $273 $377 reversed $181 $-1 #
edge $-1 $284 -15.112985390257165 $379 15.112985390257165 $283 $434 forward 7 unknown #
vertex $-1 $377 $435 #
straight-curve $-1 -75.226905117954033 -45.781725691066271 0 0 0 -1 I I #
edge $-1 $375 -45.781725691066271 $379 45.781725691066271 $373 $436 forward 7 unknown #
straight-curve $-1 0 -45.781725691066271 -15.112985390257165 -1 0 0 I I #
vertex $-1 $276 $437 #
straight-curve $-1 0 45.781725691066271 -15.112985390257165 1 0 0 I I #
point $-1 75.226905117954033 45.781725691066271 -15.112985390257165 #
point $-1 75.226905117954033 -45.781725691066271 -15.112985390257165 #
straight-curve $-1 -75.226905117954033 0 15.112985390257165 0 -1 0 I I #
point $-1 -75.226905117954033 45.781725691066271 15.112985390257165 #
point $-1 -75.226905117954033 -45.781725691066271 15.112985390257165 #
straight-curve $-1 75.226905117954033 -45.781725691066271 0 0 0 -1 I I #
straight-curve $-1 75.226905117954033 45.781725691066271 0 0 0 -1 I I #
plane-surface $-1 0 -45.781725691066271 0 0 1 0 0 0 1 forward_v I I I I #
coedge $-1 $438 $296 $308 $400 reversed $200 $-1 #
coedge $-1 $296 $438 $311 $402 reversed $200 $-1 #
edge $-1 $439 -75.226905117954033 $305 -63.908064528168119 $301 $440 forward 7 unknown #
straight-curve $-1 -63.908064528168119 -21.460486370984505 15.112985390257165 0 1 0 I I #
coedge $-1 $308 $299 $302 $396 forward $294 $-1 #
straight-curve $-1 -63.908064528168119 -21.460486370984505 -15.112985390257165 0 -1 0 I I #
coedge $-1 $302 $301 $438 $441 forward $303 $-1 #
edge $-1 $304 63.908064528168119 $442 75.226905117954033 $302 $443 forward 7 unknown #
point $-1 -63.908064528168119 -45.781725691066271 -15.112985390257165 #
point $-1 -63.908064528168119 -45.781725691066271 15.112985390257165 #
straight-curve $-1 -75.226905117954033 -40.060219792871749 0 0 0 -1 I I #
edge $-1 $442 -45.781725691066271 $309 -40.060219792871749 $389 $444 forward 7 unknown #
point $-1 -75.226905117954033 -40.060219792871749 -15.112985390257165 #
edge $-1 $312 40.060219792871749 $439 45.781725691066271 $390 $445 forward 7 unknown #
point $-1 -75.226905117954033 -40.060219792871749 15.112985390257165 #
edge $-1 $405 72.200786183066526 $408 82.26074879737763 $317 $446 forward 7 unknown #
vertex $-1 $331 $447 #
straight-curve $-1 -24.928097493534832 46.685277550235313 15.112985390257165 0 1 0 I I #
edge $-1 $408 8.0481153363933835 $328 25.71184897788951 $327 $448 forward 7 unknown #
vertex $-1 $407 $449 #
straight-curve $-1 -24.928097493534832 -16.664397181710527 72.018292634031553 0 -0.68199835119979291 0.73135370988377701 I I #
point $-1 -24.928097493534832 36.400659015159171 15.112985390257165 #
point $-1 -42.591831135030958 45.781725691066278 5.0530227759460615 #
straight-curve $-1 0 45.781725691066271 15.112985390257165 -1 0 0 I I #
vertex $-1 $334 $450 #
point $-1 -35.045050094603504 38.512861954190043 7.6786721474736428 #
vertex $-1 $338 $451 #
point $-1 -27.474878533962311 38.512861954190043 7.6786721474736428 #
coedge $-1 $418 $344 $352 $423 reversed $240 $-1 #
coedge $-1 $345 $417 $347 $420 reversed $240 $-1 #
straight-curve $-1 47.642368745625078 -45.781725691066271 60.809454567039012 0 0 -1 I I #
edge $-1 $348 47.642368745625078 $426 75.226905117954033 $418 $452 forward 7 unknown #
point $-1 47.642368745625078 -45.781725691066271 15.112985390257165 #
straight-curve $-1 30.717318465894778 -45.781725691066271 9.8099396741006011 1 0 0 I I #
edge $-1 $426 -15.112985390257165 $353 -9.8099396741006046 $352 $453 forward 7 unknown #
point $-1 75.226905117954033 -45.781725691066271 9.8099396741006046 #
point $-1 47.642368745625078 -45.781725691066271 9.8099396741006046 #
vertex $-1 $357 $454 #
straight-curve $-1 75.226905117954033 0 15.112985390257165 0 1 0 I I #
vertex $-1 $360 $455 #
point $-1 54.159276020090857 -41.86355056494385 11.380435957851143 #
vertex $-1 $364 $456 #
point $-1 62.434636931789555 -41.86355056494385 11.380435957851143 #
vertex $-1 $368 $457 #
point $-1 70.709997843488253 -41.86355056494385 11.380435957851143 #
straight-curve $-1 -75.226905117954033 45.781725691066271 0 0 0 -1 I I #
point $-1 -75.226905117954033 -45.781725691066271 -15.112985390257165 #
straight-curve $-1 -75.226905117954033 0 -15.112985390257165 0 1 0 I I #
point $-1 -75.226905117954033 45.781725691066271 -15.112985390257165 #
coedge $-1 $390 $389 $395 $441 reversed $200 $-1 #
vertex $-1 $402 $458 #
straight-curve $-1 0 -45.781725691066271 15.112985390257165 1 0 0 I I #
edge $-1 $439 -15.112985390257165 $442 15.112985390257165 $438 $459 forward 7 unknown #
vertex $-1 $400 $460 #
straight-curve $-1 0 -45.781725691066271 -15.112985390257165 -1 0 0 I I #
straight-curve $-1 -75.226905117954033 0 -15.112985390257165 0 1 0 I I #
straight-curve $-1 -75.226905117954033 0 15.112985390257165 0 -1 0 I I #
straight-curve $-1 -24.928097493534832 45.781725691066271 87.313771573323692 0 0 -1 I I #
point $-1 -24.928097493534832 45.781725691066271 15.112985390257165 #
straight-curve $-1 -16.879982157141448 45.781725691066271 5.0530227759460686 -1 0 0 I I #
point $-1 -24.928097493534832 45.781725691066278 5.0530227759460615 #
point $-1 -37.545050094603504 36.684477679480608 5.9736762694741596 #
point $-1 -29.974878533962311 36.684477679480608 5.9736762694741596 #
straight-curve $-1 0 -45.781725691066271 15.112985390257165 1 0 0 I I #
straight-curve $-1 75.226905117954033 -45.781725691066271 0 0 0 -1 I I #
point $-1 75.226905117954033 -45.781725691066271 15.112985390257165 #
point $-1 53.159276020090857 -41.194419950537437 10.637291139619796 #
point $-1 61.434636931789555 -41.194419950537437 10.637291139619796 #
point $-1 69.709997843488253 -41.194419950537437 10.637291139619796 #
point $-1 -75.226905117954033 -45.781725691066271 15.112985390257165 #
straight-curve $-1 -75.226905117954033 -45.781725691066271 0 0 0 -1 I I #
point $-1 -75.226905117954033 -45.781725691066271 -15.112985390257165 #
End-of-ACIS-data 