500 0 7 0           
7 Unknown 11 ACIS 5.0 NT 24 Fri Mar 26 19:15:23 1999 
-1 9.9999999999999995e-007 1e-010 
body $-1 $7 $-1 $8 #
body $-1 $9 $-1 $10 #
body $-1 $11 $-1 $12 #
body $-1 $13 $-1 $14 #
body $-1 $15 $-1 $16 #
body $-1 $17 $-1 $18 #
body $-1 $19 $-1 $20 #
lump $-1 $-1 $21 $0 #
transform $-1 1 0 0 0 1 0 0 0 1 76.697897274697112 53.251050233447046 23.215163200317118 1 rotate no_reflect no_shear #
lump $-1 $-1 $22 $1 #
transform $-1 1 0 0 0 1 0 0 0 1 76.697897274697112 53.251050233447046 23.215163200317118 1 rotate no_reflect no_shear #
lump $-1 $-1 $23 $2 #
transform $-1 1 0 0 0 1 0 0 0 1 76.697897274697112 53.251050233447046 23.215163200317118 1 rotate no_reflect no_shear #
lump $-1 $-1 $24 $3 #
transform $-1 1 0 0 0 1 0 0 0 1 76.697897274697112 53.251050233447046 23.215163200317118 1 rotate no_reflect no_shear #
lump $-1 $-1 $25 $4 #
transform $-1 1 0 0 0 1 0 0 0 1 76.697897274697112 53.251050233447046 23.215163200317118 1 rotate no_reflect no_shear #
lump $-1 $-1 $26 $5 #
transform $-1 1 0 0 0 1 0 0 0 1 76.697897274697112 53.251050233447046 23.215163200317118 1 rotate no_reflect no_shear #
lump $-1 $-1 $27 $6 #
transform $-1 1 0 0 0 1 0 0 0 1 76.697897274697112 53.251050233447046 23.215163200317118 1 rotate no_reflect no_shear #
shell $-1 $-1 $-1 $28 $-1 $7 #
shell $-1 $-1 $-1 $29 $-1 $9 #
shell $-1 $-1 $-1 $30 $-1 $11 #
shell $-1 $-1 $-1 $31 $-1 $13 #
shell $-1 $-1 $-1 $32 $-1 $15 #
shell $-1 $-1 $-1 $33 $-1 $17 #
shell $-1 $-1 $-1 $34 $-1 $19 #
face $-1 $35 $36 $21 $-1 $37 forward single #
face $-1 $38 $39 $22 $-1 $40 reversed single #
face $-1 $41 $42 $23 $-1 $43 reversed single #
face $-1 $44 $45 $24 $-1 $46 reversed single #
face $-1 $47 $48 $25 $-1 $49 forward single #
face $-1 $50 $51 $26 $-1 $52 forward single #
face $-1 $53 $54 $27 $-1 $55 forward single #
face $-1 $56 $57 $21 $-1 $58 reversed single #
loop $-1 $-1 $59 $28 #
plane-surface $-1 0 0 23.215163200317118 0 0 1 1 0 0 forward_v I I I I #
face $-1 $60 $61 $22 $-1 $62 reversed single #
loop $-1 $-1 $63 $29 #
plane-surface $-1 -73.289553953435913 -33.796350966914616 0 0 -1 0 0 0 -1 forward_v I I I I #
face $-1 $64 $65 $23 $-1 $66 reversed single #
loop $-1 $-1 $67 $30 #
plane-surface $-1 -73.289553953435913 33.796350966914616 0 0 1 0 0 0 1 forward_v I I I I #
face $-1 $68 $69 $24 $-1 $70 reversed single #
loop $-1 $-1 $71 $31 #
plane-surface $-1 103.13555464348076 33.796350966914609 234.56707383309751 0 -1 0 -0.78801076186113728 0 -0.61566146476048833 forward_v I I I I #
face $-1 $72 $73 $25 $-1 $74 forward single #
loop $-1 $75 $76 $32 #
cone-surface $-1 74.571290335181786 19.78875519593683 20.781209539041846 -0.78801076186113728 0 -0.61566146476048833 0.61566146476048833 0 -0.78801076186113728 1 I I 0 1 1 forward I I I I #
face $-1 $77 $78 $26 $-1 $79 forward single #
loop $-1 $80 $81 $33 #
cone-surface $-1 74.571290335181786 25.0416036100535 20.781209539041846 -0.78801076186113728 0 -0.61566146476048833 0.61566146476048833 0 -0.78801076186113728 1 I I 0 1 1 forward I I I I #
face $-1 $82 $83 $27 $-1 $84 forward single #
loop $-1 $85 $86 $34 #
cone-surface $-1 74.571290335181786 30.29445202417017 20.781209539041846 -0.78801076186113728 0 -0.61566146476048833 0.61566146476048833 0 -0.78801076186113728 1 I I 0 1 1 forward I I I I #
face $-1 $87 $88 $21 $-1 $89 reversed single #
loop $-1 $-1 $90 $35 #
plane-surface $-1 0 0 -23.215163200317118 0 0 1 1 0 0 forward_v I I I I #
coedge $-1 $91 $92 $93 $94 forward $36 $-1 #
face $-1 $95 $96 $22 $-1 $97 forward single #
loop $-1 $-1 $98 $38 #
plane-surface $-1 -69.881210632174714 -43.523700600180831 0 -1 0 0 0 0 1 forward_v I I I I #
coedge $-1 $99 $100 $101 $102 forward $39 $-1 #
face $-1 $103 $104 $23 $-1 $105 reversed single #
loop $-1 $-1 $106 $41 #
plane-surface $-1 -69.881210632174714 43.523700600180831 0 -1 0 0 0 0 1 forward_v I I I I #
coedge $-1 $107 $108 $109 $110 reversed $42 $-1 #
face $-1 $111 $112 $24 $-1 $113 reversed single #
loop $-1 $-1 $114 $44 #
plane-surface $-1 -17.741982285681871 25.0416036100535 140.12719427271853 0.78801076186113728 0 0.61566146476048833 0.61566146476048833 0 -0.78801076186113728 forward_v I I I I #
coedge $-1 $115 $116 $117 $118 reversed $45 $-1 #
face $-1 $-1 $119 $25 $-1 $120 forward single #
loop $-1 $121 $122 $47 #
cone-surface $-1 73.599774335783451 19.78875519593683 20.02217807376697 -0.78801076186113728 0 -0.61566146476048833 0.30783073238024417 0 -0.39400538093056864 1 I I -0.70710678118654746 0.70710678118654746 0.5 forward I I I I #
loop $-1 $-1 $123 $32 #
coedge $-1 $76 $76 $124 $125 reversed $48 $-1 #
face $-1 $-1 $126 $26 $-1 $127 forward single #
loop $-1 $128 $129 $50 #
cone-surface $-1 73.599774335783451 25.0416036100535 20.02217807376697 -0.78801076186113728 0 -0.61566146476048833 0.30783073238024417 0 -0.39400538093056864 1 I I -0.70710678118654746 0.70710678118654746 0.5 forward I I I I #
loop $-1 $-1 $130 $33 #
coedge $-1 $81 $81 $131 $132 reversed $51 $-1 #
face $-1 $-1 $133 $27 $-1 $134 forward single #
loop $-1 $135 $136 $53 #
cone-surface $-1 73.599774335783451 30.29445202417017 20.02217807376697 -0.78801076186113728 0 -0.61566146476048833 0.30783073238024417 0 -0.39400538093056864 1 I I -0.70710678118654746 0.70710678118654746 0.5 forward I I I I #
loop $-1 $-1 $137 $34 #
coedge $-1 $86 $86 $138 $139 reversed $54 $-1 #
face $-1 $140 $141 $21 $-1 $142 reversed single #
loop $-1 $-1 $143 $56 #
plane-surface $-1 0 -53.251050233447046 0 0 1 0 0 0 1 forward_v I I I I #
coedge $-1 $144 $145 $146 $147 forward $57 $-1 #
coedge $-1 $148 $59 $149 $150 forward $36 $-1 #
coedge $-1 $59 $148 $151 $152 forward $36 $-1 #
coedge $-1 $153 $154 $59 $94 reversed $155 $-1 #
edge $-1 $156 -53.251050233447046 $157 53.251050233447046 $93 $158 forward 7 unknown #
face $-1 $159 $160 $22 $-1 $161 reversed single #
loop $-1 $-1 $162 $60 #
plane-surface $-1 0 0 23.215163200317118 0 0 1 1 0 0 forward_v I I I I #
coedge $-1 $163 $164 $165 $166 reversed $61 $-1 #
coedge $-1 $167 $63 $168 $169 reversed $39 $-1 #
coedge $-1 $63 $167 $170 $171 reversed $39 $-1 #
coedge $-1 $164 $163 $63 $102 reversed $61 $-1 #
edge $-1 $172 -23.215163200317118 $173 23.215163200317118 $101 $174 forward 7 unknown #
face $-1 $175 $176 $23 $-1 $177 reversed single #
loop $-1 $-1 $178 $64 #
plane-surface $-1 0 0 -23.215163200317118 0 0 1 1 0 0 forward_v I I I I #
coedge $-1 $179 $180 $181 $182 forward $65 $-1 #
coedge $-1 $181 $67 $183 $184 reversed $42 $-1 #
coedge $-1 $67 $181 $185 $186 reversed $42 $-1 #
coedge $-1 $187 $188 $67 $110 forward $176 $-1 #
edge $-1 $189 -23.215163200317118 $190 23.215163200317118 $109 $191 forward 7 unknown #
face $-1 $192 $193 $24 $-1 $194 reversed single #
loop $-1 $-1 $195 $68 #
plane-surface $-1 103.13555464348076 16.28685625319239 234.56707383309751 0 1 0 0.78801076186113728 0 0.61566146476048833 forward_v I I I I #
coedge $-1 $196 $197 $198 $199 reversed $69 $-1 #
coedge $-1 $116 $71 $200 $201 reversed $45 $-1 #
coedge $-1 $71 $115 $196 $202 reversed $45 $-1 #
coedge $-1 $198 $203 $71 $118 forward $204 $-1 #
edge $-1 $205 -25.130119952956733 $206 -22.031927310861647 $117 $207 forward 7 unknown #
loop $-1 $-1 $124 $72 #
plane-surface $-1 -17.741982285681871 25.0416036100535 140.12719427271853 0.78801076186113728 0 0.61566146476048833 0.61566146476048833 0 -0.78801076186113728 forward_v I I I I #
loop $-1 $-1 $208 $47 #
coedge $-1 $122 $122 $123 $209 reversed $73 $-1 #
coedge $-1 $123 $123 $122 $209 forward $75 $-1 #
coedge $-1 $124 $124 $76 $125 forward $119 $-1 #
edge $-1 $210 0 $210 6.2831853071796004 $124 $211 forward 7 unknown #
loop $-1 $-1 $131 $77 #
plane-surface $-1 -17.741982285681871 25.0416036100535 140.12719427271853 0.78801076186113728 0 0.61566146476048833 0.61566146476048833 0 -0.78801076186113728 forward_v I I I I #
loop $-1 $-1 $212 $50 #
coedge $-1 $129 $129 $130 $213 reversed $78 $-1 #
coedge $-1 $130 $130 $129 $213 forward $80 $-1 #
coedge $-1 $131 $131 $81 $132 forward $126 $-1 #
edge $-1 $214 0 $214 6.2831853071796004 $131 $215 forward 7 unknown #
loop $-1 $-1 $138 $82 #
plane-surface $-1 -17.741982285681871 25.0416036100535 140.12719427271853 0.78801076186113728 0 0.61566146476048833 0.61566146476048833 0 -0.78801076186113728 forward_v I I I I #
loop $-1 $-1 $216 $53 #
coedge $-1 $136 $136 $137 $217 reversed $83 $-1 #
coedge $-1 $137 $137 $136 $217 forward $85 $-1 #
coedge $-1 $138 $138 $86 $139 forward $133 $-1 #
edge $-1 $218 0 $218 6.2831853071796004 $138 $219 forward 7 unknown #
face $-1 $220 $221 $21 $-1 $222 reversed single #
loop $-1 $-1 $223 $87 #
plane-surface $-1 -76.697897274697112 0 0 1 0 0 0 0 -1 forward_v I I I I #
coedge $-1 $224 $151 $225 $226 forward $88 $-1 #
coedge $-1 $227 $90 $224 $228 forward $57 $-1 #
coedge $-1 $90 $227 $229 $230 forward $57 $-1 #
coedge $-1 $154 $153 $90 $147 reversed $155 $-1 #
edge $-1 $231 -53.251050233447046 $232 53.251050233447046 $146 $233 forward 7 unknown #
coedge $-1 $92 $91 $234 $235 forward $36 $-1 #
coedge $-1 $236 $237 $91 $150 reversed $221 $-1 #
edge $-1 $157 -76.697897274697112 $238 76.697897274697112 $149 $239 forward 7 unknown #
coedge $-1 $143 $240 $92 $152 reversed $88 $-1 #
edge $-1 $241 -76.697897274697112 $156 76.697897274697112 $151 $242 forward 7 unknown #
coedge $-1 $146 $93 $240 $243 forward $155 $-1 #
coedge $-1 $93 $146 $236 $244 reversed $155 $-1 #
loop $-1 $-1 $153 $220 #
vertex $-1 $94 $245 #
vertex $-1 $94 $246 #
straight-curve $-1 76.697897274697112 0 23.215163200317118 0 1 0 I I #
face $-1 $247 $248 $22 $-1 $249 reversed single #
loop $-1 $-1 $250 $95 #
plane-surface $-1 -76.697897274697112 0 0 1 0 0 0 0 -1 forward_v I I I I #
coedge $-1 $170 $251 $164 $252 forward $96 $-1 #
coedge $-1 $101 $98 $253 $254 reversed $61 $-1 #
coedge $-1 $98 $101 $162 $252 reversed $61 $-1 #
coedge $-1 $255 $256 $98 $166 forward $257 $-1 #
edge $-1 $258 -23.215163200317118 $259 23.215163200317118 $165 $260 forward 7 unknown #
coedge $-1 $100 $99 $250 $261 reversed $39 $-1 #
coedge $-1 $253 $262 $99 $169 forward $248 $-1 #
edge $-1 $263 -40.053120297979156 $173 -33.236433655456757 $168 $264 forward 7 unknown #
coedge $-1 $265 $162 $100 $171 forward $96 $-1 #
edge $-1 $172 33.236433655456757 $266 40.053120297979156 $170 $267 forward 7 unknown #
vertex $-1 $171 $268 #
vertex $-1 $169 $269 #
straight-curve $-1 -69.881210632174714 -33.796350966914616 0 0 0 -1 I I #
face $-1 $270 $271 $23 $-1 $272 forward single #
loop $-1 $-1 $109 $103 #
plane-surface $-1 -76.697897274697112 0 0 1 0 0 0 0 -1 forward_v I I I I #
coedge $-1 $183 $273 $179 $274 forward $104 $-1 #
coedge $-1 $275 $106 $178 $274 reversed $65 $-1 #
coedge $-1 $106 $275 $276 $277 reversed $65 $-1 #
coedge $-1 $108 $107 $106 $182 reversed $42 $-1 #
edge $-1 $278 -23.215163200317118 $279 23.215163200317118 $106 $280 forward 7 unknown #
coedge $-1 $281 $178 $107 $184 forward $104 $-1 #
edge $-1 $279 33.236433655456757 $189 40.053120297979156 $183 $282 forward 7 unknown #
coedge $-1 $276 $283 $108 $186 forward $271 $-1 #
edge $-1 $190 -40.053120297979156 $278 -33.236433655456757 $185 $284 forward 7 unknown #
coedge $-1 $285 $109 $283 $286 reversed $176 $-1 #
coedge $-1 $109 $285 $281 $287 reversed $176 $-1 #
vertex $-1 $287 $288 #
vertex $-1 $110 $289 #
straight-curve $-1 -76.697897274697112 33.796350966914616 0 0 0 1 I I #
face $-1 $-1 $204 $24 $-1 $290 forward single #
loop $-1 $-1 $291 $111 #
plane-surface $-1 76.697897274697112 0 0 -1 0 0 0 0 1 forward_v I I I I #
coedge $-1 $292 $293 $294 $295 reversed $112 $-1 #
coedge $-1 $296 $114 $116 $202 forward $69 $-1 #
coedge $-1 $114 $296 $292 $297 forward $69 $-1 #
coedge $-1 $294 $117 $114 $199 forward $204 $-1 #
edge $-1 $206 -21.275549161887859 $298 -3.7660544481656402 $198 $299 forward 7 unknown #
coedge $-1 $300 $301 $115 $201 forward $193 $-1 #
edge $-1 $302 -98.033879572992859 $205 -94.068373716231633 $200 $303 forward 7 unknown #
edge $-1 $206 148.36349543790058 $302 153.39579454939422 $116 $304 forward 7 unknown #
coedge $-1 $117 $294 $300 $305 forward $204 $-1 #
loop $-1 $-1 $294 $192 #
vertex $-1 $201 $306 #
vertex $-1 $118 $307 #
straight-curve $-1 51.56777732174038 33.796350966914609 23.215163200317122 -1 0 0 I I #
coedge $-1 $208 $208 $-1 $308 reversed $121 $-1 #
edge $-1 $309 0 $309 6.2831853071796004 $122 $310 forward 7 unknown #
vertex $-1 $125 $311 #
ellipse-curve $-1 75.148800953649584 19.78875519593683 21.232410271936498 0.78801076186113728 0 0.61566146476048833 0.61566146476048833 0 -0.78801076186113728 1 I I #
coedge $-1 $212 $212 $-1 $312 reversed $128 $-1 #
edge $-1 $313 0 $313 6.2831853071796004 $129 $314 forward 7 unknown #
vertex $-1 $132 $315 #
ellipse-curve $-1 75.148800953649584 25.0416036100535 21.232410271936498 0.78801076186113728 0 0.61566146476048833 0.61566146476048833 0 -0.78801076186113728 1 I I #
coedge $-1 $216 $216 $-1 $316 reversed $135 $-1 #
edge $-1 $317 0 $317 6.2831853071796004 $136 $318 forward 7 unknown #
vertex $-1 $139 $319 #
ellipse-curve $-1 75.148800953649584 30.29445202417017 21.232410271936498 0.78801076186113728 0 0.61566146476048833 0.61566146476048833 0 -0.78801076186113728 1 I I #
face $-1 $-1 $155 $21 $-1 $320 reversed single #
loop $-1 $-1 $236 $140 #
plane-surface $-1 0 53.251050233447046 0 0 -1 0 0 0 -1 forward_v I I I I #
coedge $-1 $321 $234 $237 $322 forward $141 $-1 #
coedge $-1 $240 $143 $144 $228 reversed $88 $-1 #
coedge $-1 $234 $321 $143 $226 reversed $141 $-1 #
edge $-1 $241 -23.215163200317118 $323 23.215163200317118 $225 $324 forward 7 unknown #
coedge $-1 $145 $144 $321 $325 forward $57 $-1 #
edge $-1 $232 -76.697897274697112 $323 76.697897274697112 $224 $326 forward 7 unknown #
coedge $-1 $237 $236 $145 $230 reversed $221 $-1 #
edge $-1 $327 -76.697897274697112 $231 76.697897274697112 $229 $328 forward 7 unknown #
vertex $-1 $147 $329 #
vertex $-1 $243 $330 #
straight-curve $-1 76.697897274697112 0 -23.215163200317118 0 -1 0 I I #
coedge $-1 $223 $225 $148 $235 reversed $141 $-1 #
edge $-1 $238 -53.251050233447046 $241 53.251050233447046 $234 $331 forward 7 unknown #
coedge $-1 $229 $149 $154 $244 forward $221 $-1 #
coedge $-1 $149 $229 $223 $322 reversed $221 $-1 #
vertex $-1 $150 $332 #
straight-curve $-1 0 53.251050233447046 23.215163200317118 -1 0 0 I I #
coedge $-1 $151 $224 $153 $243 reversed $88 $-1 #
vertex $-1 $235 $333 #
straight-curve $-1 0 -53.251050233447046 23.215163200317118 1 0 0 I I #
edge $-1 $156 -23.215163200317118 $232 23.215163200317118 $153 $334 forward 7 unknown #
edge $-1 $157 -23.215163200317118 $231 23.215163200317118 $154 $335 forward 7 unknown #
point $-1 76.697897274697112 -53.251050233447046 23.215163200317118 #
point $-1 76.697897274697112 53.251050233447046 23.215163200317118 #
face $-1 $-1 $257 $22 $-1 $336 reversed single #
loop $-1 $-1 $253 $159 #
plane-surface $-1 0 0 -23.215163200317118 0 0 1 1 0 0 forward_v I I I I #
coedge $-1 $337 $338 $167 $261 forward $160 $-1 #
coedge $-1 $162 $265 $255 $339 forward $96 $-1 #
edge $-1 $259 -31.48919993335663 $172 -12.034500666824201 $162 $340 forward 7 unknown #
coedge $-1 $341 $168 $163 $254 forward $248 $-1 #
edge $-1 $173 12.034500666824201 $258 31.48919993335663 $253 $342 forward 7 unknown #
coedge $-1 $343 $165 $251 $339 reversed $257 $-1 #
coedge $-1 $165 $343 $341 $344 reversed $257 $-1 #
loop $-1 $-1 $165 $247 #
vertex $-1 $344 $345 #
vertex $-1 $166 $346 #
straight-curve $-1 -69.881210632174714 -53.251050233447046 0 0 0 1 I I #
edge $-1 $266 -23.215163200317118 $263 23.215163200317118 $250 $347 forward 7 unknown #
coedge $-1 $168 $341 $337 $348 forward $248 $-1 #
vertex $-1 $169 $349 #
straight-curve $-1 -36.644776976717957 -33.796350966914616 -23.215163200317118 1 0 0 I I #
coedge $-1 $251 $170 $338 $350 forward $96 $-1 #
vertex $-1 $350 $351 #
straight-curve $-1 -36.644776976717957 -33.796350966914616 23.215163200317118 -1 0 0 I I #
point $-1 -69.881210632174714 -33.796350966914616 23.215163200317118 #
point $-1 -69.881210632174714 -33.796350966914616 -23.215163200317118 #
face $-1 $-1 $352 $23 $-1 $353 reversed single #
loop $-1 $-1 $276 $175 #
plane-surface $-1 0 0 23.215163200317118 0 0 1 1 0 0 forward_v I I I I #
coedge $-1 $178 $281 $354 $355 forward $104 $-1 #
edge $-1 $356 -31.48919993335663 $279 -12.034500666824201 $178 $357 forward 7 unknown #
coedge $-1 $180 $179 $358 $359 reversed $65 $-1 #
coedge $-1 $360 $185 $180 $277 forward $271 $-1 #
edge $-1 $278 12.034500666824201 $361 31.48919993335663 $276 $362 forward 7 unknown #
vertex $-1 $186 $363 #
vertex $-1 $184 $364 #
straight-curve $-1 -69.881210632174714 33.796350966914616 0 0 0 -1 I I #
coedge $-1 $273 $183 $188 $287 forward $104 $-1 #
straight-curve $-1 -36.644776976717957 33.796350966914616 -23.215163200317118 -1 0 0 I I #
coedge $-1 $185 $360 $187 $286 forward $271 $-1 #
straight-curve $-1 -36.644776976717957 33.796350966914616 23.215163200317118 1 0 0 I I #
coedge $-1 $188 $187 $365 $366 forward $176 $-1 #
edge $-1 $367 -53.251050233447046 $190 -33.796350966914616 $187 $368 forward 7 unknown #
edge $-1 $189 33.796350966914616 $369 53.251050233447046 $188 $370 forward 7 unknown #
point $-1 -76.697897274697112 33.796350966914616 -23.215163200317118 #
point $-1 -76.697897274697112 33.796350966914616 23.215163200317118 #
plane-surface $-1 0 0 23.215163200317118 0 0 1 1 0 0 forward_v I I I I #
coedge $-1 $301 $300 $293 $371 forward $193 $-1 #
coedge $-1 $293 $195 $197 $297 reversed $112 $-1 #
coedge $-1 $195 $292 $291 $371 reversed $112 $-1 #
coedge $-1 $203 $198 $195 $295 forward $204 $-1 #
edge $-1 $298 22.031927310861647 $372 25.130119952956733 $294 $373 forward 7 unknown #
coedge $-1 $197 $196 $301 $374 reversed $69 $-1 #
edge $-1 $375 -153.39579454939422 $298 -148.36349543790058 $292 $376 forward 7 unknown #
vertex $-1 $199 $377 #
straight-curve $-1 73.599704632602027 12.52080180502675 23.215163200317122 0 -1 0 I I #
coedge $-1 $291 $200 $203 $305 reversed $193 $-1 #
coedge $-1 $200 $291 $296 $374 forward $193 $-1 #
vertex $-1 $201 $378 #
straight-curve $-1 76.697897274697112 33.796350966914609 117.28353691654875 0 0 1 I I #
straight-curve $-1 -17.741982285681871 33.796350966914609 140.12719427271853 0.61566146476048833 0 -0.78801076186113728 I I #
edge $-1 $372 16.28685625319239 $205 33.796350966914609 $300 $379 forward 7 unknown #
point $-1 76.697897274697112 33.796350966914609 23.215163200317118 #
point $-1 73.599704632602027 33.796350966914609 23.215163200317122 #
edge $-1 $380 1 $380 0 $208 $-1 forward 7 unknown #
vertex $-1 $209 $381 #
ellipse-curve $-1 73.993779716714016 19.78875519593683 20.330008806147212 0.78801076186113728 0 0.61566146476048833 0.61566146476048833 0 -0.78801076186113728 1 I I #
point $-1 75.764462418410048 19.78875519593683 20.444399510075339 #
edge $-1 $382 1 $382 0 $212 $-1 forward 7 unknown #
vertex $-1 $213 $383 #
ellipse-curve $-1 73.993779716714016 25.0416036100535 20.330008806147212 0.78801076186113728 0 0.61566146476048833 0.61566146476048833 0 -0.78801076186113728 1 I I #
point $-1 75.764462418410048 25.0416036100535 20.444399510075339 #
edge $-1 $384 1 $384 0 $216 $-1 forward 7 unknown #
vertex $-1 $217 $385 #
ellipse-curve $-1 73.993779716714016 30.29445202417017 20.330008806147212 0.78801076186113728 0 0.61566146476048833 0.61566146476048833 0 -0.78801076186113728 1 I I #
point $-1 75.764462418410048 30.29445202417017 20.444399510075339 #
plane-surface $-1 76.697897274697112 0 0 -1 0 0 0 0 1 forward_v I I I I #
coedge $-1 $225 $223 $227 $325 reversed $141 $-1 #
edge $-1 $238 -23.215163200317118 $327 23.215163200317118 $237 $386 forward 7 unknown #
vertex $-1 $325 $387 #
straight-curve $-1 -76.697897274697112 -53.251050233447046 0 0 0 -1 I I #
edge $-1 $323 -53.251050233447046 $327 53.251050233447046 $321 $388 forward 7 unknown #
straight-curve $-1 0 -53.251050233447046 -23.215163200317118 -1 0 0 I I #
vertex $-1 $230 $389 #
straight-curve $-1 0 53.251050233447046 -23.215163200317118 1 0 0 I I #
point $-1 76.697897274697112 53.251050233447046 -23.215163200317118 #
point $-1 76.697897274697112 -53.251050233447046 -23.215163200317118 #
straight-curve $-1 -76.697897274697112 0 23.215163200317118 0 -1 0 I I #
point $-1 -76.697897274697112 53.251050233447046 23.215163200317118 #
point $-1 -76.697897274697112 -53.251050233447046 23.215163200317118 #
straight-curve $-1 76.697897274697112 -53.251050233447046 0 0 0 -1 I I #
straight-curve $-1 76.697897274697112 53.251050233447046 0 0 0 -1 I I #
plane-surface $-1 0 -53.251050233447046 0 0 1 0 0 0 1 forward_v I I I I #
coedge $-1 $390 $250 $262 $348 reversed $160 $-1 #
coedge $-1 $250 $390 $265 $350 reversed $160 $-1 #
edge $-1 $391 -76.697897274697112 $259 -69.881210632174714 $255 $392 forward 7 unknown #
straight-curve $-1 -69.881210632174714 -21.761850300090416 23.215163200317118 0 1 0 I I #
coedge $-1 $262 $253 $256 $344 forward $248 $-1 #
straight-curve $-1 -69.881210632174714 -21.761850300090416 -23.215163200317118 0 -1 0 I I #
coedge $-1 $256 $255 $390 $393 forward $257 $-1 #
edge $-1 $258 69.881210632174714 $394 76.697897274697112 $256 $395 forward 7 unknown #
point $-1 -69.881210632174714 -53.251050233447046 -23.215163200317118 #
point $-1 -69.881210632174714 -53.251050233447046 23.215163200317118 #
straight-curve $-1 -76.697897274697112 -33.796350966914616 0 0 0 -1 I I #
edge $-1 $394 -53.251050233447046 $263 -33.796350966914616 $337 $396 forward 7 unknown #
point $-1 -76.697897274697112 -33.796350966914616 -23.215163200317118 #
edge $-1 $266 33.796350966914616 $391 53.251050233447046 $338 $397 forward 7 unknown #
point $-1 -76.697897274697112 -33.796350966914616 23.215163200317118 #
loop $-1 $-1 $358 $270 #
plane-surface $-1 0 53.251050233447046 0 0 -1 0 0 0 -1 forward_v I I I I #
coedge $-1 $365 $358 $273 $355 reversed $352 $-1 #
edge $-1 $369 -76.697897274697112 $356 -69.881210632174714 $354 $398 forward 7 unknown #
vertex $-1 $274 $399 #
straight-curve $-1 -69.881210632174714 21.761850300090416 -23.215163200317118 0 -1 0 I I #
coedge $-1 $354 $400 $275 $359 forward $352 $-1 #
edge $-1 $361 -23.215163200317118 $356 23.215163200317118 $358 $401 forward 7 unknown #
coedge $-1 $283 $276 $400 $402 forward $271 $-1 #
vertex $-1 $402 $403 #
straight-curve $-1 -69.881210632174714 21.761850300090416 23.215163200317118 0 1 0 I I #
point $-1 -69.881210632174714 33.796350966914616 23.215163200317118 #
point $-1 -69.881210632174714 33.796350966914616 -23.215163200317118 #
coedge $-1 $400 $354 $285 $366 reversed $352 $-1 #
edge $-1 $367 -23.215163200317118 $369 23.215163200317118 $365 $404 forward 7 unknown #
vertex $-1 $402 $405 #
straight-curve $-1 -76.697897274697112 0 23.215163200317118 0 -1 0 I I #
vertex $-1 $355 $406 #
straight-curve $-1 -76.697897274697112 0 -23.215163200317118 0 1 0 I I #
edge $-1 $372 94.068373716231633 $375 98.033879572992859 $291 $407 forward 7 unknown #
vertex $-1 $305 $408 #
straight-curve $-1 51.56777732174038 16.28685625319239 23.215163200317122 1 0 0 I I #
edge $-1 $375 3.7660544481656402 $302 21.275549161887859 $301 $409 forward 7 unknown #
vertex $-1 $374 $410 #
straight-curve $-1 -17.741982285681871 16.28685625319239 140.12719427271853 -0.61566146476048833 0 0.78801076186113728 I I #
point $-1 73.599704632602027 16.28685625319239 23.215163200317122 #
point $-1 76.697897274697112 33.796350966914609 19.249657343555896 #
straight-curve $-1 76.697897274697112 0 23.215163200317118 0 1 0 I I #
vertex $-1 $308 $411 #
point $-1 74.609441181474509 19.78875519593683 19.541998044286075 #
vertex $-1 $312 $412 #
point $-1 74.609441181474509 25.0416036100535 19.541998044286075 #
vertex $-1 $316 $413 #
point $-1 74.609441181474509 30.29445202417017 19.541998044286075 #
straight-curve $-1 -76.697897274697112 53.251050233447046 0 0 0 -1 I I #
point $-1 -76.697897274697112 -53.251050233447046 -23.215163200317118 #
straight-curve $-1 -76.697897274697112 0 -23.215163200317118 0 1 0 I I #
point $-1 -76.697897274697112 53.251050233447046 -23.215163200317118 #
coedge $-1 $338 $337 $343 $393 reversed $160 $-1 #
vertex $-1 $350 $414 #
straight-curve $-1 0 -53.251050233447046 23.215163200317118 1 0 0 I I #
edge $-1 $391 -23.215163200317118 $394 23.215163200317118 $390 $415 forward 7 unknown #
vertex $-1 $348 $416 #
straight-curve $-1 0 -53.251050233447046 -23.215163200317118 -1 0 0 I I #
straight-curve $-1 -76.697897274697112 0 -23.215163200317118 0 1 0 I I #
straight-curve $-1 -76.697897274697112 0 23.215163200317118 0 -1 0 I I #
straight-curve $-1 0 53.251050233447046 -23.215163200317118 1 0 0 I I #
point $-1 -69.881210632174714 53.251050233447046 -23.215163200317118 #
coedge $-1 $358 $365 $360 $402 reversed $352 $-1 #
straight-curve $-1 -69.881210632174714 53.251050233447046 0 0 0 -1 I I #
edge $-1 $361 69.881210632174714 $367 76.697897274697112 $400 $417 forward 7 unknown #
point $-1 -69.881210632174714 53.251050233447046 23.215163200317118 #
straight-curve $-1 -76.697897274697112 53.251050233447046 0 0 0 -1 I I #
point $-1 -76.697897274697112 53.251050233447046 23.215163200317118 #
point $-1 -76.697897274697112 53.251050233447046 -23.215163200317118 #
straight-curve $-1 76.697897274697112 16.28685625319239 117.28353691654875 0 0 -1 I I #
point $-1 76.697897274697112 16.28685625319239 23.215163200317118 #
straight-curve $-1 76.697897274697112 12.52080180502675 19.249657343555874 0 1 0 I I #
point $-1 76.697897274697112 16.28685625319239 19.249657343555896 #
point $-1 73.205768954852886 19.78875519593683 19.714347341386727 #
point $-1 73.205768954852886 25.0416036100535 19.714347341386727 #
point $-1 73.205768954852886 30.29445202417017 19.714347341386727 #
point $-1 -76.697897274697112 -53.251050233447046 23.215163200317118 #
straight-curve $-1 -76.697897274697112 -53.251050233447046 0 0 0 -1 I I #
point $-1 -76.697897274697112 -53.251050233447046 -23.215163200317118 #
straight-curve $-1 0 53.251050233447046 23.215163200317118 -1 0 0 I I #
End-of-ACIS-data 