500 0 13 0           
7 Unknown 11 ACIS 5.0 NT 24 Fri Mar 26 00:09:22 1999 
-1 9.9999999999999995e-007 1e-010 
body $-1 $13 $-1 $14 #
body $-1 $15 $-1 $16 #
body $-1 $17 $-1 $18 #
body $-1 $19 $-1 $20 #
body $-1 $21 $-1 $22 #
body $-1 $23 $-1 $24 #
body $-1 $25 $-1 $26 #
body $-1 $27 $-1 $28 #
body $-1 $29 $-1 $30 #
body $-1 $31 $-1 $32 #
body $-1 $33 $-1 $34 #
body $-1 $35 $-1 $36 #
body $-1 $37 $-1 $38 #
lump $-1 $-1 $39 $0 #
transform $-1 1 0 0 0 1 0 0 0 1 79.454329050569171 48.710908648928914 24.12934484829935 1 rotate no_reflect no_shear #
lump $-1 $-1 $40 $1 #
transform $-1 1 0 0 0 1 0 0 0 1 79.454329050569171 48.710908648928914 24.12934484829935 1 rotate no_reflect no_shear #
lump $-1 $-1 $41 $2 #
transform $-1 1 0 0 0 1 0 0 0 1 79.454329050569171 48.710908648928914 24.12934484829935 1 rotate no_reflect no_shear #
lump $-1 $-1 $42 $3 #
transform $-1 1 0 0 0 1 0 0 0 1 79.454329050569171 48.710908648928914 24.12934484829935 1 rotate no_reflect no_shear #
lump $-1 $-1 $43 $4 #
transform $-1 1 0 0 0 1 0 0 0 1 79.454329050569171 48.710908648928914 24.12934484829935 1 rotate no_reflect no_shear #
lump $-1 $-1 $44 $5 #
transform $-1 1 0 0 0 1 0 0 0 1 79.454329050569171 48.710908648928914 24.12934484829935 1 rotate no_reflect no_shear #
lump $-1 $-1 $45 $6 #
transform $-1 1 0 0 0 1 0 0 0 1 79.454329050569171 48.710908648928914 24.12934484829935 1 rotate no_reflect no_shear #
lump $-1 $-1 $46 $7 #
transform $-1 1 0 0 0 1 0 0 0 1 79.454329050569171 48.710908648928914 24.12934484829935 1 rotate no_reflect no_shear #
lump $-1 $-1 $47 $8 #
transform $-1 1 0 0 0 1 0 0 0 1 79.454329050569171 48.710908648928914 24.12934484829935 1 rotate no_reflect no_shear #
lump $-1 $-1 $48 $9 #
transform $-1 1 0 0 0 1 0 0 0 1 79.454329050569171 48.710908648928914 24.12934484829935 1 rotate no_reflect no_shear #
lump $-1 $-1 $49 $10 #
transform $-1 1 0 0 0 1 0 0 0 1 79.454329050569171 48.710908648928914 24.12934484829935 1 rotate no_reflect no_shear #
lump $-1 $-1 $50 $11 #
transform $-1 1 0 0 0 1 0 0 0 1 79.454329050569171 48.710908648928914 24.12934484829935 1 rotate no_reflect no_shear #
lump $-1 $-1 $51 $12 #
transform $-1 1 0 0 0 1 0 0 0 1 79.454329050569171 48.710908648928914 24.12934484829935 1 rotate no_reflect no_shear #
shell $-1 $-1 $-1 $52 $-1 $13 #
shell $-1 $-1 $-1 $53 $-1 $15 #
shell $-1 $-1 $-1 $54 $-1 $17 #
shell $-1 $-1 $-1 $55 $-1 $19 #
shell $-1 $-1 $-1 $56 $-1 $21 #
shell $-1 $-1 $-1 $57 $-1 $23 #
shell $-1 $-1 $-1 $58 $-1 $25 #
shell $-1 $-1 $-1 $59 $-1 $27 #
shell $-1 $-1 $-1 $60 $-1 $29 #
shell $-1 $-1 $-1 $61 $-1 $31 #
shell $-1 $-1 $-1 $62 $-1 $33 #
shell $-1 $-1 $-1 $63 $-1 $35 #
shell $-1 $-1 $-1 $64 $-1 $37 #
face $-1 $65 $66 $39 $-1 $67 forward single #
face $-1 $68 $69 $40 $-1 $70 reversed single #
face $-1 $71 $72 $41 $-1 $73 reversed single #
face $-1 $74 $75 $42 $-1 $76 forward single #
face $-1 $77 $78 $43 $-1 $79 forward single #
face $-1 $80 $81 $44 $-1 $82 reversed single #
face $-1 $83 $84 $45 $-1 $85 forward single #
face $-1 $86 $87 $46 $-1 $88 reversed single #
face $-1 $89 $90 $47 $-1 $91 forward single #
face $-1 $92 $93 $48 $-1 $94 reversed single #
face $-1 $95 $96 $49 $-1 $97 forward single #
face $-1 $98 $99 $50 $-1 $100 reversed single #
face $-1 $101 $102 $51 $-1 $103 forward single #
face $-1 $104 $105 $39 $-1 $106 reversed single #
loop $-1 $-1 $107 $52 #
plane-surface $-1 0 0 24.12934484829935 0 0 1 1 0 0 forward_v I I I I #
face $-1 $108 $109 $40 $-1 $110 reversed single #
loop $-1 $-1 $111 $53 #
plane-surface $-1 -40.36857544935075 -37.585216568097671 0 1 0 0 0 0 -1 forward_v I I I I #
face $-1 $112 $113 $41 $-1 $114 reversed single #
loop $-1 $-1 $115 $54 #
plane-surface $-1 -197.54647735794046 -19.659999467538192 125.31397556034867 0 1 0 -0.74314483375859142 0 0.66913059716165679 forward_v I I I I #
face $-1 $116 $117 $42 $-1 $118 forward single #
loop $-1 $119 $120 $55 #
cone-surface $-1 -76.280211934444949 -14.932798487270112 20.784357258426283 0.74314483375859142 0 -0.66913059716165679 0.66913059716165679 0 0.74314483375859142 1 I I 0 1 1 forward I I I I #
face $-1 $121 $122 $43 $-1 $123 forward single #
loop $-1 $124 $125 $56 #
cone-surface $-1 -76.280211934444949 -7.8419970168679924 20.784357258426283 0.74314483375859142 0 -0.66913059716165679 0.66913059716165679 0 0.74314483375859142 1 I I 0 1 1 forward I I I I #
face $-1 $126 $127 $44 $-1 $128 reversed single #
loop $-1 $-1 $129 $57 #
plane-surface $-1 133.82162853547504 -11.74480576796482 219.89116245859401 0 -1 0 -0.85716730853699208 0 -0.51503806187062418 forward_v I I I I #
face $-1 $130 $131 $45 $-1 $132 forward single #
loop $-1 $133 $134 $58 #
cone-surface $-1 72.08561839691852 -16.812420965188895 12.579377798165849 -0.85716730853699208 0 -0.51503806187062418 0.77255709280593621 0 -1.2857509628054882 1 I I 0 1 1.5 forward I I I I #
face $-1 $135 $136 $46 $-1 $137 reversed single #
loop $-1 $-1 $138 $59 #
plane-surface $-1 133.82162853547504 6.8806029293819329 219.89116245859401 0 -1 0 -0.85716730853699208 0 -0.51503806187062418 forward_v I I I I #
face $-1 $139 $140 $47 $-1 $141 forward single #
loop $-1 $142 $143 $60 #
cone-surface $-1 72.08561839691852 1.8129877321578576 12.579377798165849 -0.85716730853699208 0 -0.51503806187062418 0.77255709280593621 0 -1.2857509628054882 1 I I 0 1 1.5 forward I I I I #
face $-1 $144 $145 $48 $-1 $146 reversed single #
loop $-1 $-1 $147 $61 #
plane-surface $-1 133.82162853547504 25.506011626728689 219.89116245859401 0 -1 0 -0.85716730853699208 0 -0.51503806187062418 forward_v I I I I #
face $-1 $148 $149 $49 $-1 $150 forward single #
loop $-1 $151 $152 $62 #
cone-surface $-1 72.08561839691852 20.438396429504614 12.579377798165849 -0.85716730853699208 0 -0.51503806187062418 0.77255709280593621 0 -1.2857509628054882 1 I I 0 1 1.5 forward I I I I #
face $-1 $153 $154 $50 $-1 $155 reversed single #
loop $-1 $-1 $156 $63 #
plane-surface $-1 133.82162853547504 44.131420324075449 219.89116245859401 0 -1 0 -0.85716730853699208 0 -0.51503806187062418 forward_v I I I I #
face $-1 $157 $158 $51 $-1 $159 forward single #
loop $-1 $160 $161 $64 #
cone-surface $-1 72.08561839691852 39.063805126851371 12.579377798165849 -0.85716730853699208 0 -0.51503806187062418 0.77255709280593621 0 -1.2857509628054882 1 I I 0 1 1.5 forward I I I I #
face $-1 $162 $163 $39 $-1 $164 reversed single #
loop $-1 $-1 $165 $65 #
plane-surface $-1 0 0 -24.12934484829935 0 0 1 1 0 0 forward_v I I I I #
coedge $-1 $166 $167 $168 $169 forward $66 $-1 #
face $-1 $170 $171 $40 $-1 $172 reversed single #
loop $-1 $-1 $173 $68 #
plane-surface $-1 -35.78210740166061 -26.459524487266428 0 0 -1 0 0 0 -1 forward_v I I I I #
coedge $-1 $174 $175 $176 $177 forward $69 $-1 #
face $-1 $178 $179 $41 $-1 $180 reversed single #
loop $-1 $-1 $181 $71 #
plane-surface $-1 -79.454329050569171 -11.387397752069056 18.98333027097641 -0.74314483375859142 0 0.66913059716165679 0.66913059716165679 0 0.74314483375859142 forward_v I I I I #
coedge $-1 $182 $183 $184 $185 reversed $72 $-1 #
face $-1 $-1 $186 $42 $-1 $187 forward single #
loop $-1 $188 $189 $74 #
cone-surface $-1 -75.051268512499789 -14.932798487270112 19.677811658633846 0.74314483375859142 0 -0.66913059716165679 0.3345652985808284 0 0.37157241687929571 1 I I -0.70710678118654746 0.70710678118654746 0.5 forward I I I I #
loop $-1 $-1 $190 $55 #
coedge $-1 $120 $120 $191 $192 reversed $75 $-1 #
face $-1 $-1 $193 $43 $-1 $194 forward single #
loop $-1 $195 $196 $77 #
cone-surface $-1 -75.051268512499789 -7.8419970168679924 19.677811658633846 0.74314483375859142 0 -0.66913059716165679 0.3345652985808284 0 0.37157241687929571 1 I I -0.70710678118654746 0.70710678118654746 0.5 forward I I I I #
loop $-1 $-1 $197 $56 #
coedge $-1 $125 $125 $198 $199 reversed $78 $-1 #
face $-1 $200 $201 $44 $-1 $202 reversed single #
loop $-1 $-1 $203 $80 #
plane-surface $-1 -2.3896782323027992 -16.812420965188895 138.04715517572205 0.85716730853699208 0 0.51503806187062418 0.51503806187062418 0 -0.85716730853699208 forward_v I I I I #
coedge $-1 $204 $205 $206 $207 reversed $81 $-1 #
face $-1 $-1 $208 $45 $-1 $209 forward single #
loop $-1 $210 $211 $83 #
cone-surface $-1 70.771674066799093 -16.812420965188895 11.789880421806917 -0.85716730853699208 0 -0.51503806187062418 0.3862785464029681 0 -0.64287548140274409 1 I I -0.70710678118654757 0.70710678118654757 0.75 forward I I I I #
loop $-1 $-1 $212 $58 #
coedge $-1 $134 $134 $213 $214 reversed $84 $-1 #
face $-1 $215 $216 $46 $-1 $217 reversed single #
loop $-1 $-1 $218 $86 #
plane-surface $-1 -2.3896782323027992 1.8129877321578576 138.04715517572205 0.85716730853699208 0 0.51503806187062418 0.51503806187062418 0 -0.85716730853699208 forward_v I I I I #
coedge $-1 $219 $220 $221 $222 reversed $87 $-1 #
face $-1 $-1 $223 $47 $-1 $224 forward single #
loop $-1 $225 $226 $89 #
cone-surface $-1 70.771674066799093 1.8129877321578576 11.789880421806917 -0.85716730853699208 0 -0.51503806187062418 0.3862785464029681 0 -0.64287548140274409 1 I I -0.70710678118654757 0.70710678118654757 0.75 forward I I I I #
loop $-1 $-1 $227 $60 #
coedge $-1 $143 $143 $228 $229 reversed $90 $-1 #
face $-1 $230 $231 $48 $-1 $232 reversed single #
loop $-1 $-1 $233 $92 #
plane-surface $-1 -2.3896782323027992 20.438396429504614 138.04715517572205 0.85716730853699208 0 0.51503806187062418 0.51503806187062418 0 -0.85716730853699208 forward_v I I I I #
coedge $-1 $234 $235 $236 $237 reversed $93 $-1 #
face $-1 $-1 $238 $49 $-1 $239 forward single #
loop $-1 $240 $241 $95 #
cone-surface $-1 70.771674066799093 20.438396429504614 11.789880421806917 -0.85716730853699208 0 -0.51503806187062418 0.3862785464029681 0 -0.64287548140274409 1 I I -0.70710678118654757 0.70710678118654757 0.75 forward I I I I #
loop $-1 $-1 $242 $62 #
coedge $-1 $152 $152 $243 $244 reversed $96 $-1 #
face $-1 $245 $246 $50 $-1 $247 reversed single #
loop $-1 $-1 $248 $98 #
plane-surface $-1 -2.3896782323027992 39.063805126851371 138.04715517572205 0.85716730853699208 0 0.51503806187062418 0.51503806187062418 0 -0.85716730853699208 forward_v I I I I #
coedge $-1 $249 $250 $251 $252 reversed $99 $-1 #
face $-1 $-1 $253 $51 $-1 $254 forward single #
loop $-1 $255 $256 $101 #
cone-surface $-1 70.771674066799093 39.063805126851371 11.789880421806917 -0.85716730853699208 0 -0.51503806187062418 0.3862785464029681 0 -0.64287548140274409 1 I I -0.70710678118654757 0.70710678118654757 0.75 forward I I I I #
loop $-1 $-1 $257 $64 #
coedge $-1 $161 $161 $258 $259 reversed $102 $-1 #
face $-1 $260 $261 $39 $-1 $262 reversed single #
loop $-1 $-1 $263 $104 #
plane-surface $-1 0 -48.710908648928914 0 0 1 0 0 0 1 forward_v I I I I #
coedge $-1 $264 $265 $266 $267 forward $105 $-1 #
coedge $-1 $268 $107 $269 $270 forward $66 $-1 #
coedge $-1 $107 $268 $271 $272 forward $66 $-1 #
coedge $-1 $273 $274 $107 $169 reversed $275 $-1 #
edge $-1 $276 -48.710908648928914 $277 48.710908648928914 $168 $278 forward 7 unknown #
face $-1 $279 $280 $40 $-1 $281 forward single #
loop $-1 $-1 $282 $108 #
plane-surface $-1 -31.195639353970471 -37.585216568097671 0 -1 0 0 0 0 1 forward_v I I I I #
coedge $-1 $283 $284 $285 $286 forward $109 $-1 #
coedge $-1 $287 $111 $288 $289 reversed $69 $-1 #
coedge $-1 $111 $287 $290 $291 reversed $69 $-1 #
coedge $-1 $284 $283 $111 $177 reversed $109 $-1 #
edge $-1 $292 -24.12934484829935 $293 24.12934484829935 $176 $294 forward 7 unknown #
face $-1 $295 $296 $41 $-1 $297 reversed single #
loop $-1 $-1 $298 $112 #
plane-surface $-1 -197.54647735794046 -3.1147960365999214 125.31397556034867 0 -1 0 0.74314483375859142 0 -0.66913059716165679 forward_v I I I I #
coedge $-1 $299 $300 $301 $302 reversed $113 $-1 #
coedge $-1 $183 $115 $303 $304 reversed $72 $-1 #
coedge $-1 $115 $182 $299 $305 reversed $72 $-1 #
coedge $-1 $301 $306 $115 $185 forward $307 $-1 #
edge $-1 $308 19.318909628401059 $309 23.95240185051783 $184 $310 forward 7 unknown #
loop $-1 $-1 $191 $116 #
plane-surface $-1 -79.454329050569171 -11.387397752069056 18.98333027097641 -0.74314483375859142 0 0.66913059716165679 0.66913059716165679 0 0.74314483375859142 forward_v I I I I #
loop $-1 $-1 $311 $74 #
coedge $-1 $189 $189 $190 $312 reversed $117 $-1 #
coedge $-1 $190 $190 $189 $312 forward $119 $-1 #
coedge $-1 $191 $191 $120 $192 forward $186 $-1 #
edge $-1 $313 0 $313 6.2831853071796004 $191 $314 forward 7 unknown #
loop $-1 $-1 $198 $121 #
plane-surface $-1 -79.454329050569171 -11.387397752069056 18.98333027097641 -0.74314483375859142 0 0.66913059716165679 0.66913059716165679 0 0.74314483375859142 forward_v I I I I #
loop $-1 $-1 $315 $77 #
coedge $-1 $196 $196 $197 $316 reversed $122 $-1 #
coedge $-1 $197 $197 $196 $316 forward $124 $-1 #
coedge $-1 $198 $198 $125 $199 forward $193 $-1 #
edge $-1 $317 0 $317 6.2831853071796004 $198 $318 forward 7 unknown #
face $-1 $319 $320 $44 $-1 $321 forward single #
loop $-1 $-1 $322 $126 #
plane-surface $-1 133.82162853547504 -21.880036162412971 219.89116245859401 0 1 0 0.85716730853699208 0 0.51503806187062418 forward_v I I I I #
coedge $-1 $323 $324 $325 $326 reversed $127 $-1 #
coedge $-1 $205 $129 $327 $328 reversed $81 $-1 #
coedge $-1 $129 $204 $323 $329 reversed $81 $-1 #
coedge $-1 $325 $330 $129 $207 forward $320 $-1 #
edge $-1 $331 -12.54351478283165 $332 0.8517688270362811 $206 $333 forward 7 unknown #
loop $-1 $-1 $213 $130 #
plane-surface $-1 -2.3896782323027992 -16.812420965188895 138.04715517572205 0.85716730853699208 0 0.51503806187062418 0.51503806187062418 0 -0.85716730853699208 forward_v I I I I #
loop $-1 $-1 $334 $83 #
coedge $-1 $211 $211 $212 $335 reversed $131 $-1 #
coedge $-1 $212 $212 $211 $335 forward $133 $-1 #
coedge $-1 $213 $213 $134 $214 forward $208 $-1 #
edge $-1 $336 0 $336 6.2831853071796004 $213 $337 forward 7 unknown #
face $-1 $338 $339 $46 $-1 $340 reversed single #
loop $-1 $-1 $341 $135 #
plane-surface $-1 133.82162853547504 -3.2546274650662177 219.89116245859401 0 1 0 0.85716730853699208 0 0.51503806187062418 forward_v I I I I #
coedge $-1 $342 $343 $344 $345 reversed $136 $-1 #
coedge $-1 $220 $138 $346 $347 reversed $87 $-1 #
coedge $-1 $138 $219 $342 $348 reversed $87 $-1 #
coedge $-1 $344 $349 $138 $222 forward $350 $-1 #
edge $-1 $351 -12.54351478283165 $352 0.8517688270362811 $221 $353 forward 7 unknown #
loop $-1 $-1 $228 $139 #
plane-surface $-1 -2.3896782323027992 1.8129877321578576 138.04715517572205 0.85716730853699208 0 0.51503806187062418 0.51503806187062418 0 -0.85716730853699208 forward_v I I I I #
loop $-1 $-1 $354 $89 #
coedge $-1 $226 $226 $227 $355 reversed $140 $-1 #
coedge $-1 $227 $227 $226 $355 forward $142 $-1 #
coedge $-1 $228 $228 $143 $229 forward $223 $-1 #
edge $-1 $356 0 $356 6.2831853071796004 $228 $357 forward 7 unknown #
face $-1 $358 $359 $48 $-1 $360 reversed single #
loop $-1 $-1 $361 $144 #
plane-surface $-1 133.82162853547504 15.370781232280539 219.89116245859401 0 1 0 0.85716730853699208 0 0.51503806187062418 forward_v I I I I #
coedge $-1 $362 $363 $364 $365 reversed $145 $-1 #
coedge $-1 $235 $147 $366 $367 reversed $93 $-1 #
coedge $-1 $147 $234 $362 $368 reversed $93 $-1 #
coedge $-1 $364 $369 $147 $237 forward $370 $-1 #
edge $-1 $371 -12.54351478283165 $372 0.8517688270362811 $236 $373 forward 7 unknown #
loop $-1 $-1 $243 $148 #
plane-surface $-1 -2.3896782323027992 20.438396429504614 138.04715517572205 0.85716730853699208 0 0.51503806187062418 0.51503806187062418 0 -0.85716730853699208 forward_v I I I I #
loop $-1 $-1 $374 $95 #
coedge $-1 $241 $241 $242 $375 reversed $149 $-1 #
coedge $-1 $242 $242 $241 $375 forward $151 $-1 #
coedge $-1 $243 $243 $152 $244 forward $238 $-1 #
edge $-1 $376 0 $376 6.2831853071796004 $243 $377 forward 7 unknown #
face $-1 $378 $379 $50 $-1 $380 reversed single #
loop $-1 $-1 $381 $153 #
plane-surface $-1 133.82162853547504 33.996189929627292 219.89116245859401 0 1 0 0.85716730853699208 0 0.51503806187062418 forward_v I I I I #
coedge $-1 $382 $383 $384 $385 reversed $154 $-1 #
coedge $-1 $250 $156 $386 $387 reversed $99 $-1 #
coedge $-1 $156 $249 $382 $388 reversed $99 $-1 #
coedge $-1 $384 $389 $156 $252 forward $390 $-1 #
edge $-1 $391 -12.54351478283165 $392 0.8517688270362811 $251 $393 forward 7 unknown #
loop $-1 $-1 $258 $157 #
plane-surface $-1 -2.3896782323027992 39.063805126851371 138.04715517572205 0.85716730853699208 0 0.51503806187062418 0.51503806187062418 0 -0.85716730853699208 forward_v I I I I #
loop $-1 $-1 $394 $101 #
coedge $-1 $256 $256 $257 $395 reversed $158 $-1 #
coedge $-1 $257 $257 $256 $395 forward $160 $-1 #
coedge $-1 $258 $258 $161 $259 forward $253 $-1 #
edge $-1 $396 0 $396 6.2831853071796004 $258 $397 forward 7 unknown #
face $-1 $398 $399 $39 $-1 $400 reversed single #
loop $-1 $-1 $401 $162 #
plane-surface $-1 -79.454329050569171 0 0 1 0 0 0 0 -1 forward_v I I I I #
coedge $-1 $402 $271 $403 $404 forward $163 $-1 #
coedge $-1 $405 $165 $402 $406 forward $105 $-1 #
coedge $-1 $165 $405 $407 $408 forward $105 $-1 #
coedge $-1 $274 $273 $165 $267 reversed $275 $-1 #
edge $-1 $409 -48.710908648928914 $410 48.710908648928914 $266 $411 forward 7 unknown #
coedge $-1 $167 $166 $412 $413 forward $66 $-1 #
coedge $-1 $414 $415 $166 $270 reversed $399 $-1 #
edge $-1 $277 -79.454329050569171 $416 79.454329050569171 $269 $417 forward 7 unknown #
coedge $-1 $263 $418 $167 $272 reversed $163 $-1 #
edge $-1 $419 -79.454329050569171 $276 79.454329050569171 $271 $420 forward 7 unknown #
coedge $-1 $266 $168 $418 $421 forward $275 $-1 #
coedge $-1 $168 $266 $414 $422 reversed $275 $-1 #
loop $-1 $-1 $273 $398 #
vertex $-1 $169 $423 #
vertex $-1 $169 $424 #
straight-curve $-1 79.454329050569171 0 24.12934484829935 0 1 0 I I #
face $-1 $425 $426 $40 $-1 $427 reversed single #
loop $-1 $-1 $428 $170 #
plane-surface $-1 0 0 24.12934484829935 0 0 1 1 0 0 forward_v I I I I #
coedge $-1 $429 $430 $431 $432 reversed $171 $-1 #
coedge $-1 $176 $173 $433 $434 reversed $109 $-1 #
coedge $-1 $173 $176 $435 $436 reversed $109 $-1 #
coedge $-1 $430 $429 $173 $286 reversed $171 $-1 #
edge $-1 $437 -24.12934484829935 $438 24.12934484829935 $285 $439 forward 7 unknown #
coedge $-1 $175 $174 $440 $441 reversed $69 $-1 #
coedge $-1 $433 $442 $174 $289 forward $426 $-1 #
edge $-1 $443 -29.918300364880078 $293 -7.6669162032175926 $288 $444 forward 7 unknown #
coedge $-1 $445 $435 $175 $291 forward $280 $-1 #
edge $-1 $292 7.6669162032175926 $446 29.918300364880078 $290 $447 forward 7 unknown #
vertex $-1 $291 $448 #
vertex $-1 $289 $449 #
straight-curve $-1 -40.36857544935075 -26.459524487266428 0 0 0 -1 I I #
face $-1 $-1 $307 $41 $-1 $450 forward single #
loop $-1 $-1 $451 $178 #
plane-surface $-1 -79.454329050569171 0 0 1 0 0 0 0 -1 forward_v I I I I #
coedge $-1 $452 $453 $454 $455 reversed $179 $-1 #
coedge $-1 $456 $181 $183 $305 forward $113 $-1 #
coedge $-1 $181 $456 $452 $457 forward $113 $-1 #
coedge $-1 $454 $184 $181 $302 forward $307 $-1 #
edge $-1 $309 -13.966300591503664 $458 2.5789028394346065 $301 $459 forward 7 unknown #
coedge $-1 $460 $461 $182 $304 forward $296 $-1 #
edge $-1 $462 -43.673657509197923 $308 -38.527642931874979 $303 $463 forward 7 unknown #
edge $-1 $309 -6.924645565112832 $462 0 $183 $464 forward 7 unknown #
coedge $-1 $184 $454 $460 $465 forward $307 $-1 #
loop $-1 $-1 $454 $295 #
vertex $-1 $304 $466 #
vertex $-1 $185 $467 #
straight-curve $-1 -98.77323867897023 -19.659999467538192 24.129344848299354 1 0 0 I I #
coedge $-1 $311 $311 $-1 $468 reversed $188 $-1 #
edge $-1 $469 0 $469 6.2831853071796004 $189 $470 forward 7 unknown #
vertex $-1 $192 $471 #
ellipse-curve $-1 -77.137582939510793 -14.932798487270112 21.556337559637875 -0.74314483375859142 0 0.66913059716165679 0.66913059716165679 0 0.74314483375859142 1 I I #
coedge $-1 $315 $315 $-1 $472 reversed $195 $-1 #
edge $-1 $473 0 $473 6.2831853071796004 $196 $474 forward 7 unknown #
vertex $-1 $199 $475 #
ellipse-curve $-1 -77.137582939510793 -7.8419970168679924 21.556337559637875 -0.74314483375859142 0 0.66913059716165679 0.66913059716165679 0 0.74314483375859142 1 I I #
face $-1 $-1 $476 $44 $-1 $477 reversed single #
loop $-1 $-1 $206 $200 #
plane-surface $-1 0 0 24.12934484829935 0 0 1 1 0 0 forward_v I I I I #
coedge $-1 $478 $479 $480 $481 reversed $201 $-1 #
coedge $-1 $482 $203 $205 $329 forward $127 $-1 #
coedge $-1 $203 $482 $478 $483 forward $127 $-1 #
coedge $-1 $480 $206 $203 $326 forward $320 $-1 #
edge $-1 $332 3.3385952853703724 $484 13.473825679818523 $325 $485 forward 7 unknown #
coedge $-1 $486 $487 $204 $328 forward $476 $-1 #
edge $-1 $488 -108.10973282135279 $331 -85.816236380997651 $327 $489 forward 7 unknown #
edge $-1 $332 132.90032085084644 $488 158.9086581011384 $205 $490 forward 7 unknown #
coedge $-1 $206 $480 $486 $491 forward $320 $-1 #
vertex $-1 $328 $492 #
vertex $-1 $207 $493 #
straight-curve $-1 66.910814267737521 -11.74480576796482 24.129344848299354 -1 0 0 I I #
coedge $-1 $334 $334 $-1 $494 reversed $210 $-1 #
edge $-1 $495 0 $495 6.2831853071796004 $211 $496 forward 7 unknown #
vertex $-1 $214 $497 #
ellipse-curve $-1 72.756687245635177 -16.812420965188895 12.982596628121803 0.85716730853699208 0 0.51503806187062418 0.77255709280593621 0 -1.2857509628054882 1 I I #
face $-1 $-1 $350 $46 $-1 $498 forward single #
loop $-1 $-1 $499 $215 #
plane-surface $-1 79.454329050569171 0 0 -1 0 0 0 0 1 forward_v I I I I #
coedge $-1 $500 $501 $502 $503 reversed $216 $-1 #
coedge $-1 $504 $218 $220 $348 forward $136 $-1 #
coedge $-1 $218 $504 $500 $505 forward $136 $-1 #
coedge $-1 $502 $221 $218 $345 forward $350 $-1 #
edge $-1 $352 -5.9741090633030041 $506 4.1611213311451465 $344 $507 forward 7 unknown #
coedge $-1 $508 $509 $219 $347 forward $339 $-1 #
edge $-1 $510 -108.10973282135279 $351 -85.816236380997651 $346 $511 forward 7 unknown #
edge $-1 $352 132.90032085084644 $510 158.9086581011384 $220 $512 forward 7 unknown #
coedge $-1 $221 $502 $508 $513 forward $350 $-1 #
loop $-1 $-1 $502 $338 #
vertex $-1 $347 $514 #
vertex $-1 $222 $515 #
straight-curve $-1 66.910814267737521 6.8806029293819329 24.129344848299354 -1 0 0 I I #
coedge $-1 $354 $354 $-1 $516 reversed $225 $-1 #
edge $-1 $517 0 $517 6.2831853071796004 $226 $518 forward 7 unknown #
vertex $-1 $229 $519 #
ellipse-curve $-1 72.756687245635177 1.8129877321578576 12.982596628121803 0.85716730853699208 0 0.51503806187062418 0.77255709280593621 0 -1.2857509628054882 1 I I #
face $-1 $-1 $370 $48 $-1 $520 forward single #
loop $-1 $-1 $521 $230 #
plane-surface $-1 79.454329050569171 0 0 -1 0 0 0 0 1 forward_v I I I I #
coedge $-1 $522 $523 $524 $525 reversed $231 $-1 #
coedge $-1 $526 $233 $235 $368 forward $145 $-1 #
coedge $-1 $233 $526 $522 $527 forward $145 $-1 #
coedge $-1 $524 $236 $233 $365 forward $370 $-1 #
edge $-1 $372 -15.286813411976382 $528 -5.1515830175282318 $364 $529 forward 7 unknown #
coedge $-1 $530 $531 $234 $367 forward $359 $-1 #
edge $-1 $532 -108.10973282135279 $371 -85.816236380997651 $366 $533 forward 7 unknown #
edge $-1 $372 132.90032085084644 $532 158.9086581011384 $235 $534 forward 7 unknown #
coedge $-1 $236 $524 $530 $535 forward $370 $-1 #
loop $-1 $-1 $524 $358 #
vertex $-1 $367 $536 #
vertex $-1 $237 $537 #
straight-curve $-1 66.910814267737521 25.506011626728689 24.129344848299354 -1 0 0 I I #
coedge $-1 $374 $374 $-1 $538 reversed $240 $-1 #
edge $-1 $539 0 $539 6.2831853071796004 $241 $540 forward 7 unknown #
vertex $-1 $244 $541 #
ellipse-curve $-1 72.756687245635177 20.438396429504614 12.982596628121803 0.85716730853699208 0 0.51503806187062418 0.77255709280593621 0 -1.2857509628054882 1 I I #
face $-1 $-1 $390 $50 $-1 $542 forward single #
loop $-1 $-1 $543 $245 #
plane-surface $-1 79.454329050569171 0 0 -1 0 0 0 0 1 forward_v I I I I #
coedge $-1 $544 $545 $546 $547 reversed $246 $-1 #
coedge $-1 $548 $248 $250 $388 forward $154 $-1 #
coedge $-1 $248 $548 $544 $549 forward $154 $-1 #
coedge $-1 $546 $251 $248 $385 forward $390 $-1 #
edge $-1 $392 -24.599517760649764 $550 -14.464287366201606 $384 $551 forward 7 unknown #
coedge $-1 $552 $553 $249 $387 forward $379 $-1 #
edge $-1 $554 -108.10973282135279 $391 -85.816236380997651 $386 $555 forward 7 unknown #
edge $-1 $392 132.90032085084644 $554 158.9086581011384 $250 $556 forward 7 unknown #
coedge $-1 $251 $546 $552 $557 forward $390 $-1 #
loop $-1 $-1 $546 $378 #
vertex $-1 $387 $558 #
vertex $-1 $252 $559 #
straight-curve $-1 66.910814267737521 44.131420324075449 24.129344848299354 -1 0 0 I I #
coedge $-1 $394 $394 $-1 $560 reversed $255 $-1 #
edge $-1 $561 0 $561 6.2831853071796004 $256 $562 forward 7 unknown #
vertex $-1 $259 $563 #
ellipse-curve $-1 72.756687245635177 39.063805126851371 12.982596628121803 0.85716730853699208 0 0.51503806187062418 0.77255709280593621 0 -1.2857509628054882 1 I I #
face $-1 $-1 $275 $39 $-1 $564 reversed single #
loop $-1 $-1 $414 $260 #
plane-surface $-1 0 48.710908648928914 0 0 -1 0 0 0 -1 forward_v I I I I #
coedge $-1 $565 $412 $415 $566 forward $261 $-1 #
coedge $-1 $418 $263 $264 $406 reversed $163 $-1 #
coedge $-1 $412 $565 $263 $404 reversed $261 $-1 #
edge $-1 $419 -24.12934484829935 $567 24.12934484829935 $403 $568 forward 7 unknown #
coedge $-1 $265 $264 $565 $569 forward $105 $-1 #
edge $-1 $410 -79.454329050569171 $567 79.454329050569171 $402 $570 forward 7 unknown #
coedge $-1 $415 $414 $265 $408 reversed $399 $-1 #
edge $-1 $571 -79.454329050569171 $409 79.454329050569171 $407 $572 forward 7 unknown #
vertex $-1 $267 $573 #
vertex $-1 $421 $574 #
straight-curve $-1 79.454329050569171 0 -24.12934484829935 0 -1 0 I I #
coedge $-1 $401 $403 $268 $413 reversed $261 $-1 #
edge $-1 $416 -48.710908648928914 $419 48.710908648928914 $412 $575 forward 7 unknown #
coedge $-1 $407 $269 $274 $422 forward $399 $-1 #
coedge $-1 $269 $407 $401 $566 reversed $399 $-1 #
vertex $-1 $270 $576 #
straight-curve $-1 0 48.710908648928914 24.12934484829935 -1 0 0 I I #
coedge $-1 $271 $402 $273 $421 reversed $163 $-1 #
vertex $-1 $413 $577 #
straight-curve $-1 0 -48.710908648928914 24.12934484829935 1 0 0 I I #
edge $-1 $276 -24.12934484829935 $410 24.12934484829935 $273 $578 forward 7 unknown #
edge $-1 $277 -24.12934484829935 $409 24.12934484829935 $274 $579 forward 7 unknown #
point $-1 79.454329050569171 -48.710908648928914 24.12934484829935 #
point $-1 79.454329050569171 48.710908648928914 24.12934484829935 #
face $-1 $-1 $580 $40 $-1 $581 reversed single #
loop $-1 $-1 $582 $279 #
plane-surface $-1 0 0 -24.12934484829935 0 0 1 1 0 0 forward_v I I I I #
coedge $-1 $435 $445 $430 $583 forward $280 $-1 #
coedge $-1 $285 $282 $582 $584 reversed $171 $-1 #
coedge $-1 $282 $285 $428 $583 reversed $171 $-1 #
coedge $-1 $585 $586 $282 $432 forward $580 $-1 #
edge $-1 $587 -24.12934484829935 $588 24.12934484829935 $431 $589 forward 7 unknown #
coedge $-1 $582 $288 $283 $434 forward $426 $-1 #
edge $-1 $293 -22.477521748520445 $438 -13.304585653140165 $433 $590 forward 7 unknown #
coedge $-1 $290 $428 $284 $436 forward $280 $-1 #
edge $-1 $437 13.304585653140165 $292 22.477521748520445 $435 $591 forward 7 unknown #
vertex $-1 $436 $592 #
vertex $-1 $434 $593 #
straight-curve $-1 -31.195639353970471 -26.459524487266428 0 0 0 -1 I I #
coedge $-1 $586 $585 $287 $441 forward $580 $-1 #
edge $-1 $446 -24.12934484829935 $443 24.12934484829935 $440 $594 forward 7 unknown #
coedge $-1 $288 $582 $586 $595 forward $426 $-1 #
vertex $-1 $289 $596 #
straight-curve $-1 -40.36857544935075 -18.792608284048836 -24.12934484829935 0 1 0 I I #
coedge $-1 $428 $290 $585 $597 forward $280 $-1 #
vertex $-1 $597 $598 #
straight-curve $-1 -40.36857544935075 -18.792608284048836 24.12934484829935 0 -1 0 I I #
point $-1 -40.36857544935075 -26.459524487266428 24.12934484829935 #
point $-1 -40.36857544935075 -26.459524487266428 -24.12934484829935 #
plane-surface $-1 0 0 24.12934484829935 0 0 1 1 0 0 forward_v I I I I #
coedge $-1 $461 $460 $453 $599 forward $296 $-1 #
coedge $-1 $453 $298 $300 $457 reversed $179 $-1 #
coedge $-1 $298 $452 $451 $599 reversed $179 $-1 #
coedge $-1 $306 $301 $298 $455 forward $307 $-1 #
edge $-1 $458 -23.95240185051783 $600 -19.318909628401059 $454 $601 forward 7 unknown #
coedge $-1 $300 $299 $461 $602 reversed $113 $-1 #
edge $-1 $603 0 $458 6.924645565112832 $452 $604 forward 7 unknown #
vertex $-1 $302 $605 #
straight-curve $-1 -74.8208368284524 -5.693698876034528 24.12934484829935 0 1 0 I I #
coedge $-1 $451 $303 $306 $465 reversed $296 $-1 #
coedge $-1 $303 $451 $456 $602 forward $296 $-1 #
vertex $-1 $304 $606 #
straight-curve $-1 -79.454329050569171 -19.659999467538192 62.656987780174333 0 0 1 I I #
straight-curve $-1 -79.454329050569171 -19.659999467538192 18.98333027097641 -0.66913059716165679 0 -0.74314483375859142 I I #
edge $-1 $600 3.1147960365999214 $308 19.659999467538192 $460 $607 forward 7 unknown #
point $-1 -79.454329050569171 -19.659999467538192 24.12934484829935 #
point $-1 -74.8208368284524 -19.659999467538192 24.12934484829935 #
edge $-1 $608 1 $608 0 $311 $-1 forward 7 unknown #
vertex $-1 $312 $609 #
ellipse-curve $-1 -75.422840929379078 -14.932798487270112 20.012376957214673 -0.74314483375859142 0 0.66913059716165679 0.66913059716165679 0 0.74314483375859142 1 I I #
point $-1 -76.468452342349138 -14.932798487270112 22.299482393396481 #
edge $-1 $610 1 $610 0 $315 $-1 forward 7 unknown #
vertex $-1 $316 $611 #
ellipse-curve $-1 -75.422840929379078 -7.8419970168679924 20.012376957214673 -0.74314483375859142 0 0.66913059716165679 0.66913059716165679 0 0.74314483375859142 1 I I #
point $-1 -76.468452342349138 -7.8419970168679924 22.299482393396481 #
loop $-1 $-1 $327 $319 #
plane-surface $-1 79.454329050569171 0 0 -1 0 0 0 0 1 forward_v I I I I #
coedge $-1 $479 $322 $324 $483 reversed $201 $-1 #
coedge $-1 $322 $478 $612 $613 reversed $201 $-1 #
coedge $-1 $330 $325 $322 $481 forward $320 $-1 #
edge $-1 $484 -0.8517688270362811 $614 12.54351478283165 $480 $615 forward 7 unknown #
coedge $-1 $324 $323 $487 $616 reversed $127 $-1 #
edge $-1 $617 -158.9086581011384 $484 -132.90032085084644 $478 $618 forward 7 unknown #
vertex $-1 $326 $619 #
straight-curve $-1 66.059045440701226 -8.4062104825944477 24.129344848299354 0 -1 0 I I #
coedge $-1 $612 $327 $330 $491 reversed $476 $-1 #
coedge $-1 $327 $612 $482 $616 forward $476 $-1 #
vertex $-1 $328 $620 #
straight-curve $-1 79.454329050569171 -11.74480576796482 109.94558122929701 0 0 1 I I #
straight-curve $-1 -2.3896782323027992 -11.74480576796482 138.04715517572205 0.51503806187062418 0 -0.85716730853699208 I I #
edge $-1 $614 -21.880036162412971 $331 -11.74480576796482 $486 $621 forward 7 unknown #
point $-1 79.454329050569171 -11.74480576796482 24.12934484829935 #
point $-1 66.05904544070124 -11.74480576796482 24.129344848299354 #
edge $-1 $622 1 $622 0 $334 $-1 forward 7 unknown #
vertex $-1 $335 $623 #
ellipse-curve $-1 71.414549548201833 -16.812420965188895 12.176158968209885 0.85716730853699208 0 0.51503806187062418 0.77255709280593621 0 -1.2857509628054882 1 I I #
point $-1 73.529244338441131 -16.812420965188895 11.696845665316328 #
plane-surface $-1 0 0 24.12934484829935 0 0 1 1 0 0 forward_v I I I I #
coedge $-1 $509 $508 $501 $624 forward $339 $-1 #
coedge $-1 $501 $341 $343 $505 reversed $216 $-1 #
coedge $-1 $341 $500 $499 $624 reversed $216 $-1 #
coedge $-1 $349 $344 $341 $503 forward $350 $-1 #
edge $-1 $506 -0.8517688270362811 $625 12.54351478283165 $502 $626 forward 7 unknown #
coedge $-1 $343 $342 $509 $627 reversed $136 $-1 #
edge $-1 $628 -158.9086581011384 $506 -132.90032085084644 $500 $629 forward 7 unknown #
vertex $-1 $345 $630 #
straight-curve $-1 66.059045440701226 0.90649386607892879 24.129344848299354 0 -1 0 I I #
coedge $-1 $499 $346 $349 $513 reversed $339 $-1 #
coedge $-1 $346 $499 $504 $627 forward $339 $-1 #
vertex $-1 $347 $631 #
straight-curve $-1 79.454329050569171 6.8806029293819329 109.94558122929701 0 0 1 I I #
straight-curve $-1 -2.3896782323027992 6.8806029293819329 138.04715517572205 0.51503806187062418 0 -0.85716730853699208 I I #
edge $-1 $625 -3.2546274650662177 $351 6.8806029293819329 $508 $632 forward 7 unknown #
point $-1 79.454329050569171 6.8806029293819329 24.12934484829935 #
point $-1 66.05904544070124 6.8806029293819329 24.129344848299354 #
edge $-1 $633 1 $633 0 $354 $-1 forward 7 unknown #
vertex $-1 $355 $634 #
ellipse-curve $-1 71.414549548201833 1.8129877321578576 12.176158968209885 0.85716730853699208 0 0.51503806187062418 0.77255709280593621 0 -1.2857509628054882 1 I I #
point $-1 73.529244338441131 1.8129877321578576 11.696845665316328 #
plane-surface $-1 0 0 24.12934484829935 0 0 1 1 0 0 forward_v I I I I #
coedge $-1 $531 $530 $523 $635 forward $359 $-1 #
coedge $-1 $523 $361 $363 $527 reversed $231 $-1 #
coedge $-1 $361 $522 $521 $635 reversed $231 $-1 #
coedge $-1 $369 $364 $361 $525 forward $370 $-1 #
edge $-1 $528 -0.8517688270362811 $636 12.54351478283165 $524 $637 forward 7 unknown #
coedge $-1 $363 $362 $531 $638 reversed $145 $-1 #
edge $-1 $639 -158.9086581011384 $528 -132.90032085084644 $522 $640 forward 7 unknown #
vertex $-1 $365 $641 #
straight-curve $-1 66.059045440701226 10.219198214752307 24.129344848299354 0 -1 0 I I #
coedge $-1 $521 $366 $369 $535 reversed $359 $-1 #
coedge $-1 $366 $521 $526 $638 forward $359 $-1 #
vertex $-1 $367 $642 #
straight-curve $-1 79.454329050569171 25.506011626728689 109.94558122929701 0 0 1 I I #
straight-curve $-1 -2.3896782323027992 25.506011626728689 138.04715517572205 0.51503806187062418 0 -0.85716730853699208 I I #
edge $-1 $636 15.370781232280539 $371 25.506011626728689 $530 $643 forward 7 unknown #
point $-1 79.454329050569171 25.506011626728689 24.12934484829935 #
point $-1 66.05904544070124 25.506011626728689 24.129344848299354 #
edge $-1 $644 1 $644 0 $374 $-1 forward 7 unknown #
vertex $-1 $375 $645 #
ellipse-curve $-1 71.414549548201833 20.438396429504614 12.176158968209885 0.85716730853699208 0 0.51503806187062418 0.77255709280593621 0 -1.2857509628054882 1 I I #
point $-1 73.529244338441131 20.438396429504614 11.696845665316328 #
plane-surface $-1 0 0 24.12934484829935 0 0 1 1 0 0 forward_v I I I I #
coedge $-1 $553 $552 $545 $646 forward $379 $-1 #
coedge $-1 $545 $381 $383 $549 reversed $246 $-1 #
coedge $-1 $381 $544 $543 $646 reversed $246 $-1 #
coedge $-1 $389 $384 $381 $547 forward $390 $-1 #
edge $-1 $550 -0.8517688270362811 $647 12.54351478283165 $546 $648 forward 7 unknown #
coedge $-1 $383 $382 $553 $649 reversed $154 $-1 #
edge $-1 $650 -158.9086581011384 $550 -132.90032085084644 $544 $651 forward 7 unknown #
vertex $-1 $385 $652 #
straight-curve $-1 66.059045440701226 19.531902563425685 24.129344848299354 0 -1 0 I I #
coedge $-1 $543 $386 $389 $557 reversed $379 $-1 #
coedge $-1 $386 $543 $548 $649 forward $379 $-1 #
vertex $-1 $387 $653 #
straight-curve $-1 79.454329050569171 44.131420324075449 109.94558122929701 0 0 1 I I #
straight-curve $-1 -2.3896782323027992 44.131420324075449 138.04715517572205 0.51503806187062418 0 -0.85716730853699208 I I #
edge $-1 $647 33.996189929627292 $391 44.131420324075449 $552 $654 forward 7 unknown #
point $-1 79.454329050569171 44.131420324075449 24.12934484829935 #
point $-1 66.05904544070124 44.131420324075449 24.129344848299354 #
edge $-1 $655 1 $655 0 $394 $-1 forward 7 unknown #
vertex $-1 $395 $656 #
ellipse-curve $-1 71.414549548201833 39.063805126851371 12.176158968209885 0.85716730853699208 0 0.51503806187062418 0.77255709280593621 0 -1.2857509628054882 1 I I #
point $-1 73.529244338441131 39.063805126851371 11.696845665316328 #
plane-surface $-1 79.454329050569171 0 0 -1 0 0 0 0 1 forward_v I I I I #
coedge $-1 $403 $401 $405 $569 reversed $261 $-1 #
edge $-1 $416 -24.12934484829935 $571 24.12934484829935 $415 $657 forward 7 unknown #
vertex $-1 $569 $658 #
straight-curve $-1 -79.454329050569171 -48.710908648928914 0 0 0 -1 I I #
edge $-1 $567 -48.710908648928914 $571 48.710908648928914 $565 $659 forward 7 unknown #
straight-curve $-1 0 -48.710908648928914 -24.12934484829935 -1 0 0 I I #
vertex $-1 $408 $660 #
straight-curve $-1 0 48.710908648928914 -24.12934484829935 1 0 0 I I #
point $-1 79.454329050569171 48.710908648928914 -24.12934484829935 #
point $-1 79.454329050569171 -48.710908648928914 -24.12934484829935 #
straight-curve $-1 -79.454329050569171 0 24.12934484829935 0 -1 0 I I #
point $-1 -79.454329050569171 48.710908648928914 24.12934484829935 #
point $-1 -79.454329050569171 -48.710908648928914 24.12934484829935 #
straight-curve $-1 79.454329050569171 -48.710908648928914 0 0 0 -1 I I #
straight-curve $-1 79.454329050569171 48.710908648928914 0 0 0 -1 I I #
loop $-1 $-1 $431 $425 #
plane-surface $-1 0 -48.710908648928914 0 0 1 0 0 0 1 forward_v I I I I #
coedge $-1 $442 $433 $429 $584 forward $426 $-1 #
edge $-1 $588 -29.918300364880078 $437 -7.6669162032175926 $428 $661 forward 7 unknown #
edge $-1 $438 7.6669162032175926 $587 29.918300364880078 $582 $662 forward 7 unknown #
coedge $-1 $440 $431 $445 $597 reversed $580 $-1 #
coedge $-1 $431 $440 $442 $595 reversed $580 $-1 #
vertex $-1 $595 $663 #
vertex $-1 $432 $664 #
straight-curve $-1 -31.195639353970471 -48.710908648928914 0 0 0 1 I I #
straight-curve $-1 -17.891053700830305 -26.459524487266428 -24.12934484829935 1 0 0 I I #
straight-curve $-1 -17.891053700830305 -26.459524487266428 24.12934484829935 -1 0 0 I I #
point $-1 -31.195639353970471 -26.459524487266428 24.12934484829935 #
point $-1 -31.195639353970471 -26.459524487266428 -24.12934484829935 #
straight-curve $-1 -40.36857544935075 -48.710908648928914 0 0 0 -1 I I #
edge $-1 $587 31.195639353970471 $443 40.36857544935075 $586 $665 forward 7 unknown #
point $-1 -40.36857544935075 -48.710908648928914 -24.12934484829935 #
edge $-1 $446 -40.36857544935075 $588 -31.195639353970471 $585 $666 forward 7 unknown #
point $-1 -40.36857544935075 -48.710908648928914 24.12934484829935 #
edge $-1 $600 38.527642931874979 $603 43.673657509197923 $451 $667 forward 7 unknown #
vertex $-1 $465 $668 #
straight-curve $-1 -98.77323867897023 -3.1147960365999214 24.129344848299354 -1 0 0 I I #
edge $-1 $603 -2.5789028394346065 $462 13.966300591503664 $461 $669 forward 7 unknown #
vertex $-1 $602 $670 #
straight-curve $-1 -79.454329050569171 -3.1147960365999214 18.98333027097641 0.66913059716165679 0 0.74314483375859142 I I #
point $-1 -74.8208368284524 -3.1147960365999214 24.12934484829935 #
point $-1 -79.454329050569171 -19.659999467538192 18.98333027097641 #
straight-curve $-1 -79.454329050569171 0 24.12934484829935 0 -1 0 I I #
vertex $-1 $468 $671 #
point $-1 -74.753710332217423 -14.932798487270112 20.755521790973265 #
vertex $-1 $472 $672 #
point $-1 -74.753710332217423 -7.8419970168679924 20.755521790973265 #
coedge $-1 $487 $486 $479 $613 forward $476 $-1 #
edge $-1 $614 85.816236380997651 $617 108.10973282135279 $612 $673 forward 7 unknown #
vertex $-1 $491 $674 #
straight-curve $-1 66.910814267737521 -21.880036162412971 24.129344848299354 1 0 0 I I #
edge $-1 $617 -13.473825679818523 $488 -3.3385952853703724 $487 $675 forward 7 unknown #
vertex $-1 $616 $676 #
straight-curve $-1 -2.3896782323027992 -21.880036162412971 138.04715517572205 -0.51503806187062418 0 0.85716730853699208 I I #
point $-1 66.05904544070124 -21.880036162412971 24.129344848299354 #
point $-1 79.454329050569171 -11.74480576796482 1.8358484079442121 #
straight-curve $-1 79.454329050569171 0 24.12934484829935 0 1 0 I I #
vertex $-1 $494 $677 #
point $-1 72.187106641007773 -16.812420965188895 10.890408005404396 #
edge $-1 $625 85.816236380997651 $628 108.10973282135279 $499 $678 forward 7 unknown #
vertex $-1 $513 $679 #
straight-curve $-1 66.910814267737521 -3.2546274650662177 24.129344848299354 1 0 0 I I #
edge $-1 $628 -4.1611213311451465 $510 5.9741090633030041 $509 $680 forward 7 unknown #
vertex $-1 $627 $681 #
straight-curve $-1 -2.3896782323027992 -3.2546274650662177 138.04715517572205 -0.51503806187062418 0 0.85716730853699208 I I #
point $-1 66.05904544070124 -3.2546274650662177 24.129344848299354 #
point $-1 79.454329050569171 6.8806029293819329 1.8358484079442121 #
straight-curve $-1 79.454329050569171 0 24.12934484829935 0 1 0 I I #
vertex $-1 $516 $682 #
point $-1 72.187106641007773 1.8129877321578576 10.890408005404396 #
edge $-1 $636 85.816236380997651 $639 108.10973282135279 $521 $683 forward 7 unknown #
vertex $-1 $535 $684 #
straight-curve $-1 66.910814267737521 15.370781232280539 24.129344848299354 1 0 0 I I #
edge $-1 $639 5.1515830175282318 $532 15.286813411976382 $531 $685 forward 7 unknown #
vertex $-1 $638 $686 #
straight-curve $-1 -2.3896782323027992 15.370781232280539 138.04715517572205 -0.51503806187062418 0 0.85716730853699208 I I #
point $-1 66.05904544070124 15.370781232280539 24.129344848299354 #
point $-1 79.454329050569171 25.506011626728689 1.8358484079442121 #
straight-curve $-1 79.454329050569171 0 24.12934484829935 0 1 0 I I #
vertex $-1 $538 $687 #
point $-1 72.187106641007773 20.438396429504614 10.890408005404396 #
edge $-1 $647 85.816236380997651 $650 108.10973282135279 $543 $688 forward 7 unknown #
vertex $-1 $557 $689 #
straight-curve $-1 66.910814267737521 33.996189929627292 24.129344848299354 1 0 0 I I #
edge $-1 $650 14.464287366201606 $554 24.599517760649764 $553 $690 forward 7 unknown #
vertex $-1 $649 $691 #
straight-curve $-1 -2.3896782323027992 33.996189929627292 138.04715517572205 -0.51503806187062418 0 0.85716730853699208 I I #
point $-1 66.05904544070124 33.996189929627292 24.129344848299354 #
point $-1 79.454329050569171 44.131420324075449 1.8358484079442121 #
straight-curve $-1 79.454329050569171 0 24.12934484829935 0 1 0 I I #
vertex $-1 $560 $692 #
point $-1 72.187106641007773 39.063805126851371 10.890408005404396 #
straight-curve $-1 -79.454329050569171 48.710908648928914 0 0 0 -1 I I #
point $-1 -79.454329050569171 -48.710908648928914 -24.12934484829935 #
straight-curve $-1 -79.454329050569171 0 -24.12934484829935 0 1 0 I I #
point $-1 -79.454329050569171 48.710908648928914 -24.12934484829935 #
straight-curve $-1 -31.195639353970471 -18.792608284048836 24.12934484829935 0 1 0 I I #
straight-curve $-1 -31.195639353970471 -18.792608284048836 -24.12934484829935 0 -1 0 I I #
point $-1 -31.195639353970471 -48.710908648928914 -24.12934484829935 #
point $-1 -31.195639353970471 -48.710908648928914 24.12934484829935 #
straight-curve $-1 0 -48.710908648928914 -24.12934484829935 -1 0 0 I I #
straight-curve $-1 0 -48.710908648928914 24.12934484829935 1 0 0 I I #
straight-curve $-1 -79.454329050569171 -3.1147960365999214 62.656987780174333 0 0 -1 I I #
point $-1 -79.454329050569171 -3.1147960365999214 24.12934484829935 #
straight-curve $-1 -79.454329050569171 -5.693698876034528 18.983330270976417 0 -1 0 I I #
point $-1 -79.454329050569171 -3.1147960365999214 18.98333027097641 #
point $-1 -74.6796960956205 -14.932798487270112 19.343246360053019 #
point $-1 -74.6796960956205 -7.8419970168679924 19.343246360053019 #
straight-curve $-1 79.454329050569171 -21.880036162412971 109.94558122929701 0 0 -1 I I #
point $-1 79.454329050569171 -21.880036162412971 24.12934484829935 #
straight-curve $-1 79.454329050569171 -8.4062104825944477 1.8358484079441979 0 1 0 I I #
point $-1 79.454329050569171 -21.880036162412971 1.8358484079442121 #
point $-1 70.128798585396353 -16.812420965188895 11.403601875403949 #
straight-curve $-1 79.454329050569171 -3.2546274650662177 109.94558122929701 0 0 -1 I I #
point $-1 79.454329050569171 -3.2546274650662177 24.12934484829935 #
straight-curve $-1 79.454329050569171 0.90649386607892879 1.8358484079441979 0 1 0 I I #
point $-1 79.454329050569171 -3.2546274650662177 1.8358484079442121 #
point $-1 70.128798585396353 1.8129877321578576 11.403601875403949 #
straight-curve $-1 79.454329050569171 15.370781232280539 109.94558122929701 0 0 -1 I I #
point $-1 79.454329050569171 15.370781232280539 24.12934484829935 #
straight-curve $-1 79.454329050569171 10.219198214752307 1.8358484079441979 0 1 0 I I #
point $-1 79.454329050569171 15.370781232280539 1.8358484079442121 #
point $-1 70.128798585396353 20.438396429504614 11.403601875403949 #
straight-curve $-1 79.454329050569171 33.996189929627292 109.94558122929701 0 0 -1 I I #
point $-1 79.454329050569171 33.996189929627292 24.12934484829935 #
straight-curve $-1 79.454329050569171 19.531902563425685 1.8358484079441979 0 1 0 I I #
point $-1 79.454329050569171 33.996189929627292 1.8358484079442121 #
point $-1 70.128798585396353 39.063805126851371 11.403601875403949 #
End-of-ACIS-data 