500 0 9 0           
7 Unknown 11 ACIS 5.0 NT 24 Fri Mar 26 18:49:06 1999 
-1 9.9999999999999995e-007 1e-010 
body $-1 $9 $-1 $10 #
body $-1 $11 $-1 $12 #
body $-1 $13 $-1 $14 #
body $-1 $15 $-1 $16 #
body $-1 $17 $-1 $18 #
body $-1 $19 $-1 $20 #
body $-1 $21 $-1 $22 #
body $-1 $23 $-1 $24 #
body $-1 $25 $-1 $26 #
lump $-1 $-1 $27 $0 #
transform $-1 1 0 0 0 1 0 0 0 1 49.062776573992124 23.023284750959046 8.7473305108833426 1 rotate no_reflect no_shear #
lump $-1 $-1 $28 $1 #
transform $-1 1 0 0 0 1 0 0 0 1 49.062776573992124 23.023284750959046 8.7473305108833426 1 rotate no_reflect no_shear #
lump $-1 $-1 $29 $2 #
transform $-1 1 0 0 0 1 0 0 0 1 49.062776573992124 23.023284750959046 8.7473305108833426 1 rotate no_reflect no_shear #
lump $-1 $-1 $30 $3 #
transform $-1 1 0 0 0 1 0 0 0 1 49.062776573992124 23.023284750959046 8.7473305108833426 1 rotate no_reflect no_shear #
lump $-1 $-1 $31 $4 #
transform $-1 1 0 0 0 1 0 0 0 1 49.062776573992124 23.023284750959046 8.7473305108833426 1 rotate no_reflect no_shear #
lump $-1 $-1 $32 $5 #
transform $-1 1 0 0 0 1 0 0 0 1 49.062776573992124 23.023284750959046 8.7473305108833426 1 rotate no_reflect no_shear #
lump $-1 $-1 $33 $6 #
transform $-1 1 0 0 0 1 0 0 0 1 49.062776573992124 23.023284750959046 8.7473305108833426 1 rotate no_reflect no_shear #
lump $-1 $-1 $34 $7 #
transform $-1 1 0 0 0 1 0 0 0 1 49.062776573992124 23.023284750959046 8.7473305108833426 1 rotate no_reflect no_shear #
lump $-1 $-1 $35 $8 #
transform $-1 1 0 0 0 1 0 0 0 1 49.062776573992124 23.023284750959046 8.7473305108833426 1 rotate no_reflect no_shear #
shell $-1 $-1 $-1 $36 $-1 $9 #
shell $-1 $-1 $-1 $37 $-1 $11 #
shell $-1 $-1 $-1 $38 $-1 $13 #
shell $-1 $-1 $-1 $39 $-1 $15 #
shell $-1 $-1 $-1 $40 $-1 $17 #
shell $-1 $-1 $-1 $41 $-1 $19 #
shell $-1 $-1 $-1 $42 $-1 $21 #
shell $-1 $-1 $-1 $43 $-1 $23 #
shell $-1 $-1 $-1 $44 $-1 $25 #
face $-1 $45 $46 $27 $-1 $47 forward single #
face $-1 $48 $49 $28 $-1 $50 forward single #
face $-1 $51 $52 $29 $-1 $53 reversed single #
face $-1 $54 $55 $30 $-1 $56 forward single #
face $-1 $57 $58 $31 $-1 $59 forward single #
face $-1 $60 $61 $32 $-1 $62 forward single #
face $-1 $63 $64 $33 $-1 $65 reversed single #
face $-1 $66 $67 $34 $-1 $68 forward single #
face $-1 $69 $70 $35 $-1 $71 forward single #
face $-1 $72 $73 $27 $-1 $74 reversed single #
loop $-1 $-1 $75 $36 #
plane-surface $-1 0 0 8.7473305108833426 0 0 1 1 0 0 forward_v I I I I #
face $-1 $76 $77 $28 $-1 $78 reversed single #
loop $-1 $-1 $79 $37 #
plane-surface $-1 0 -19.972103640675325 -5.7473305108833426 0 0 1 1 0 0 forward_v I I I I #
face $-1 $80 $81 $29 $-1 $82 reversed single #
loop $-1 $-1 $83 $38 #
plane-surface $-1 -127.42932856798383 -16.920922530391604 60.961256340742864 0 1 0 -0.79863551827123203 0 0.60181501223851219 forward_v I I I I #
face $-1 $84 $85 $30 $-1 $86 forward single #
loop $-1 $87 $88 $39 #
cone-surface $-1 -46.079221192451854 -15.438512993528262 5.0211926275852692 0.79863551827123203 0 -0.60181501223851219 0.3009075061192561 0 0.39931775913561601 1 I I 0 1 0.5 forward I I I I #
face $-1 $89 $90 $31 $-1 $91 forward single #
loop $-1 $92 $93 $40 #
cone-surface $-1 -46.079221192451854 -13.214898688233252 5.0211926275852692 0.79863551827123203 0 -0.60181501223851219 0.3009075061192561 0 0.39931775913561601 1 I I 0 1 0.5 forward I I I I #
face $-1 $94 $95 $32 $-1 $96 forward single #
loop $-1 $97 $98 $41 #
cone-surface $-1 -46.079221192451854 -10.99128438293824 5.0211926275852692 0.79863551827123203 0 -0.60181501223851219 0.3009075061192561 0 0.39931775913561601 1 I I 0 1 0.5 forward I I I I #
face $-1 $99 $100 $33 $-1 $101 reversed single #
loop $-1 $-1 $102 $42 #
plane-surface $-1 41.800091882862503 9.7081105648439738 143.24945497760672 0 -1 0 -0.66913061440640931 0 -0.74314481823134659 forward_v I I I I #
face $-1 $103 $104 $34 $-1 $105 forward single #
loop $-1 $106 $107 $43 #
cone-surface $-1 45.616032930978598 3.3700999690002504 5.3953805484773412 -0.66913061440640931 0 -0.74314481823134659 0.74314481823134659 0 -0.66913061440640931 1 I I 0 1 1 forward I I I I #
face $-1 $108 $109 $35 $-1 $110 forward single #
loop $-1 $111 $112 $44 #
cone-surface $-1 45.616032930978598 7.1729063265064816 5.3953805484773412 -0.66913061440640931 0 -0.74314481823134659 0.74314481823134659 0 -0.66913061440640931 1 I I 0 1 1 forward I I I I #
face $-1 $113 $114 $27 $-1 $115 reversed single #
loop $-1 $-1 $116 $45 #
plane-surface $-1 0 0 -8.7473305108833426 0 0 1 1 0 0 forward_v I I I I #
coedge $-1 $117 $118 $119 $120 forward $46 $-1 #
face $-1 $121 $122 $28 $-1 $123 reversed single #
loop $-1 $-1 $124 $48 #
plane-surface $-1 0 -16.920922530391604 -7.2473305108833426 0 -1 0 0 0 -1 forward_v I I I I #
coedge $-1 $125 $126 $127 $128 reversed $49 $-1 #
face $-1 $129 $130 $29 $-1 $131 reversed single #
loop $-1 $-1 $132 $51 #
plane-surface $-1 -49.06277657399211 -13.214898688233252 1.9078253720779443 -0.79863551827123203 0 0.60181501223851219 0.60181501223851219 0 0.79863551827123203 forward_v I I I I #
coedge $-1 $133 $134 $135 $136 reversed $52 $-1 #
face $-1 $-1 $137 $30 $-1 $138 forward single #
loop $-1 $139 $140 $54 #
cone-surface $-1 -45.472975257098618 -15.438512993528262 4.5643535606302645 0.79863551827123203 0 -0.60181501223851219 0.15045375305962805 0 0.19965887956780801 1 I I -0.70710678118654746 0.70710678118654746 0.25 forward I I I I #
loop $-1 $-1 $141 $39 #
coedge $-1 $88 $88 $142 $143 reversed $55 $-1 #
face $-1 $-1 $144 $31 $-1 $145 forward single #
loop $-1 $146 $147 $57 #
cone-surface $-1 -45.472975257098618 -13.214898688233252 4.5643535606302645 0.79863551827123203 0 -0.60181501223851219 0.15045375305962805 0 0.19965887956780801 1 I I -0.70710678118654746 0.70710678118654746 0.25 forward I I I I #
loop $-1 $-1 $148 $40 #
coedge $-1 $93 $93 $149 $150 reversed $58 $-1 #
face $-1 $-1 $151 $32 $-1 $152 forward single #
loop $-1 $153 $154 $60 #
cone-surface $-1 -45.472975257098618 -10.99128438293824 4.5643535606302645 0.79863551827123203 0 -0.60181501223851219 0.15045375305962805 0 0.19965887956780801 1 I I -0.70710678118654746 0.70710678118654746 0.25 forward I I I I #
loop $-1 $-1 $155 $41 #
coedge $-1 $98 $98 $156 $157 reversed $61 $-1 #
face $-1 $158 $159 $33 $-1 $160 reversed single #
loop $-1 $-1 $161 $63 #
plane-surface $-1 -23.858719784016969 5.2715031477533678 70.327958619597624 0.66913061440640931 0 0.74314481823134659 0.74314481823134659 0 -0.66913061440640931 forward_v I I I I #
coedge $-1 $162 $163 $164 $165 reversed $64 $-1 #
face $-1 $-1 $166 $34 $-1 $167 forward single #
loop $-1 $168 $169 $66 #
cone-surface $-1 44.099364780178362 3.3700999690002504 3.7109499560382648 -0.66913061440640931 0 -0.74314481823134659 0.3715724091156733 0 -0.33456530720320465 1 I I -0.70710678118654746 0.70710678118654746 0.5 forward I I I I #
loop $-1 $-1 $170 $43 #
coedge $-1 $107 $107 $171 $172 reversed $67 $-1 #
face $-1 $-1 $173 $35 $-1 $174 forward single #
loop $-1 $175 $176 $69 #
cone-surface $-1 44.099364780178362 7.1729063265064816 3.7109499560382648 -0.66913061440640931 0 -0.74314481823134659 0.3715724091156733 0 -0.33456530720320465 1 I I -0.70710678118654746 0.70710678118654746 0.5 forward I I I I #
loop $-1 $-1 $177 $44 #
coedge $-1 $112 $112 $178 $179 reversed $70 $-1 #
face $-1 $180 $181 $27 $-1 $182 reversed single #
loop $-1 $-1 $183 $72 #
plane-surface $-1 0 -23.023284750959046 0 0 1 0 0 0 1 forward_v I I I I #
coedge $-1 $184 $185 $186 $187 forward $73 $-1 #
coedge $-1 $188 $75 $189 $190 forward $46 $-1 #
coedge $-1 $75 $188 $191 $192 forward $46 $-1 #
coedge $-1 $193 $194 $75 $120 reversed $195 $-1 #
edge $-1 $196 -23.023284750959046 $197 23.023284750959046 $119 $198 forward 7 unknown #
face $-1 $199 $200 $28 $-1 $201 reversed single #
loop $-1 $-1 $202 $76 #
plane-surface $-1 0 0 -8.7473305108833426 0 0 1 1 0 0 forward_v I I I I #
coedge $-1 $203 $204 $205 $206 reversed $77 $-1 #
coedge $-1 $207 $79 $204 $208 forward $49 $-1 #
coedge $-1 $79 $207 $209 $210 reversed $49 $-1 #
coedge $-1 $211 $205 $79 $128 forward $200 $-1 #
edge $-1 $212 6.9348707100539411 $213 13.037232930621384 $127 $214 forward 7 unknown #
face $-1 $215 $216 $29 $-1 $217 forward single #
loop $-1 $-1 $218 $80 #
plane-surface $-1 -127.42932856798383 -9.5088748460748995 60.961256340742864 0 -1 0 0.79863551827123203 0 -0.60181501223851219 forward_v I I I I #
coedge $-1 $219 $220 $221 $222 reversed $81 $-1 #
coedge $-1 $134 $83 $223 $224 reversed $52 $-1 #
coedge $-1 $83 $133 $219 $225 reversed $52 $-1 #
coedge $-1 $221 $226 $83 $136 forward $216 $-1 #
edge $-1 $227 14.651887709999791 $228 19.805824361509494 $135 $229 forward 7 unknown #
loop $-1 $-1 $142 $84 #
plane-surface $-1 -49.06277657399211 -13.214898688233252 1.9078253720779443 -0.79863551827123203 0 0.60181501223851219 0.60181501223851219 0 0.79863551827123203 forward_v I I I I #
loop $-1 $-1 $230 $54 #
coedge $-1 $140 $140 $141 $231 reversed $85 $-1 #
coedge $-1 $141 $141 $140 $231 forward $87 $-1 #
coedge $-1 $142 $142 $88 $143 forward $137 $-1 #
edge $-1 $232 0 $232 6.2831853071796004 $142 $233 forward 7 unknown #
loop $-1 $-1 $149 $89 #
plane-surface $-1 -49.06277657399211 -13.214898688233252 1.9078253720779443 -0.79863551827123203 0 0.60181501223851219 0.60181501223851219 0 0.79863551827123203 forward_v I I I I #
loop $-1 $-1 $234 $57 #
coedge $-1 $147 $147 $148 $235 reversed $90 $-1 #
coedge $-1 $148 $148 $147 $235 forward $92 $-1 #
coedge $-1 $149 $149 $93 $150 forward $144 $-1 #
edge $-1 $236 0 $236 6.2831853071796004 $149 $237 forward 7 unknown #
loop $-1 $-1 $156 $94 #
plane-surface $-1 -49.06277657399211 -13.214898688233252 1.9078253720779443 -0.79863551827123203 0 0.60181501223851219 0.60181501223851219 0 0.79863551827123203 forward_v I I I I #
loop $-1 $-1 $238 $60 #
coedge $-1 $154 $154 $155 $239 reversed $95 $-1 #
coedge $-1 $155 $155 $154 $239 forward $97 $-1 #
coedge $-1 $156 $156 $98 $157 forward $151 $-1 #
edge $-1 $240 0 $240 6.2831853071796004 $156 $241 forward 7 unknown #
face $-1 $242 $243 $33 $-1 $244 reversed single #
loop $-1 $-1 $245 $99 #
plane-surface $-1 41.800091882862503 0.83489573066276179 143.24945497760672 0 1 0 0.66913061440640931 0 0.74314481823134659 forward_v I I I I #
coedge $-1 $246 $247 $248 $249 reversed $100 $-1 #
coedge $-1 $163 $102 $250 $251 reversed $64 $-1 #
coedge $-1 $102 $162 $246 $252 reversed $64 $-1 #
coedge $-1 $248 $253 $102 $165 forward $254 $-1 #
edge $-1 $255 -28.162730632560873 $256 -23.633449033727921 $164 $257 forward 7 unknown #
loop $-1 $-1 $171 $103 #
plane-surface $-1 -23.858719784016969 5.2715031477533678 70.327958619597624 0.66913061440640931 0 0.74314481823134659 0.74314481823134659 0 -0.66913061440640931 forward_v I I I I #
loop $-1 $-1 $258 $66 #
coedge $-1 $169 $169 $170 $259 reversed $104 $-1 #
coedge $-1 $170 $170 $169 $259 forward $106 $-1 #
coedge $-1 $171 $171 $107 $172 forward $166 $-1 #
edge $-1 $260 0 $260 6.2831853071796004 $171 $261 forward 7 unknown #
loop $-1 $-1 $178 $108 #
plane-surface $-1 -23.858719784016969 5.2715031477533678 70.327958619597624 0.66913061440640931 0 0.74314481823134659 0.74314481823134659 0 -0.66913061440640931 forward_v I I I I #
loop $-1 $-1 $262 $69 #
coedge $-1 $176 $176 $177 $263 reversed $109 $-1 #
coedge $-1 $177 $177 $176 $263 forward $111 $-1 #
coedge $-1 $178 $178 $112 $179 forward $173 $-1 #
edge $-1 $264 0 $264 6.2831853071796004 $178 $265 forward 7 unknown #
face $-1 $266 $267 $27 $-1 $268 reversed single #
loop $-1 $-1 $269 $113 #
plane-surface $-1 -49.062776573992124 0 0 1 0 0 0 0 -1 forward_v I I I I #
coedge $-1 $270 $191 $271 $272 forward $114 $-1 #
coedge $-1 $273 $116 $270 $274 forward $73 $-1 #
coedge $-1 $116 $273 $275 $276 forward $73 $-1 #
coedge $-1 $194 $193 $116 $187 reversed $195 $-1 #
edge $-1 $277 -23.023284750959046 $278 23.023284750959046 $186 $279 forward 7 unknown #
coedge $-1 $118 $117 $280 $281 forward $46 $-1 #
coedge $-1 $282 $283 $117 $190 reversed $267 $-1 #
edge $-1 $197 -49.062776573992124 $284 49.062776573992124 $189 $285 forward 7 unknown #
coedge $-1 $183 $286 $118 $192 reversed $114 $-1 #
edge $-1 $287 -49.062776573992124 $196 49.062776573992124 $191 $288 forward 7 unknown #
coedge $-1 $186 $119 $286 $289 forward $195 $-1 #
coedge $-1 $119 $186 $282 $290 reversed $195 $-1 #
loop $-1 $-1 $193 $266 #
vertex $-1 $120 $291 #
vertex $-1 $120 $292 #
straight-curve $-1 49.062776573992124 0 8.7473305108833426 0 1 0 I I #
face $-1 $293 $294 $28 $-1 $295 reversed single #
loop $-1 $-1 $205 $121 #
plane-surface $-1 49.062776573992124 0 0 -1 0 0 0 0 1 forward_v I I I I #
coedge $-1 $296 $297 $203 $298 forward $122 $-1 #
coedge $-1 $299 $124 $202 $298 reversed $77 $-1 #
coedge $-1 $124 $299 $125 $208 reversed $77 $-1 #
coedge $-1 $127 $300 $124 $206 forward $200 $-1 #
edge $-1 $301 -5.1236652554416713 $212 -2.1236652554416713 $205 $302 forward 7 unknown #
coedge $-1 $126 $125 $303 $304 reversed $49 $-1 #
edge $-1 $212 -49.062776573992124 $305 49.062776573992124 $204 $306 forward 7 unknown #
coedge $-1 $307 $308 $126 $210 forward $294 $-1 #
edge $-1 $213 -49.062776573992124 $309 49.062776573992124 $209 $310 forward 7 unknown #
coedge $-1 $300 $127 $308 $311 forward $200 $-1 #
vertex $-1 $128 $312 #
vertex $-1 $311 $313 #
straight-curve $-1 49.062776573992124 -9.9860518203376625 -5.7473305108833426 0 -1 0 I I #
face $-1 $-1 $314 $29 $-1 $315 reversed single #
loop $-1 $-1 $135 $129 #
plane-surface $-1 0 0 8.7473305108833426 0 0 1 1 0 0 forward_v I I I I #
coedge $-1 $316 $317 $318 $319 reversed $130 $-1 #
coedge $-1 $320 $132 $134 $225 forward $81 $-1 #
coedge $-1 $132 $320 $316 $321 forward $81 $-1 #
coedge $-1 $318 $135 $132 $222 forward $216 $-1 #
edge $-1 $228 -10.313473186274978 $322 -2.9014255019582738 $221 $323 forward 7 unknown #
coedge $-1 $324 $325 $133 $224 forward $314 $-1 #
edge $-1 $326 -28.572802798293505 $227 -21.733297659488088 $223 $327 forward 7 unknown #
edge $-1 $228 -8.5639881802534212 $326 2.3625585895707848e-014 $134 $328 forward 7 unknown #
coedge $-1 $135 $318 $324 $329 forward $216 $-1 #
vertex $-1 $224 $330 #
vertex $-1 $136 $331 #
straight-curve $-1 -63.714664283991915 -16.920922530391604 8.7473305108833443 1 0 0 I I #
coedge $-1 $230 $230 $-1 $332 reversed $139 $-1 #
edge $-1 $333 0 $333 6.2831853071796004 $140 $334 forward 7 unknown #
vertex $-1 $143 $335 #
ellipse-curve $-1 -46.485808248237269 -15.438512993528262 5.3275779414806372 -0.79863551827123203 0 0.60181501223851219 0.3009075061192561 0 0.39931775913561601 1 I I #
coedge $-1 $234 $234 $-1 $336 reversed $146 $-1 #
edge $-1 $337 0 $337 6.2831853071796004 $147 $338 forward 7 unknown #
vertex $-1 $150 $339 #
ellipse-curve $-1 -46.485808248237269 -13.214898688233252 5.3275779414806372 -0.79863551827123203 0 0.60181501223851219 0.3009075061192561 0 0.39931775913561601 1 I I #
coedge $-1 $238 $238 $-1 $340 reversed $153 $-1 #
edge $-1 $341 0 $341 6.2831853071796004 $154 $342 forward 7 unknown #
vertex $-1 $157 $343 #
ellipse-curve $-1 -46.485808248237269 -10.99128438293824 5.3275779414806372 -0.79863551827123203 0 0.60181501223851219 0.3009075061192561 0 0.39931775913561601 1 I I #
face $-1 $-1 $254 $33 $-1 $344 forward single #
loop $-1 $-1 $345 $158 #
plane-surface $-1 49.062776573992124 0 0 -1 0 0 0 0 1 forward_v I I I I #
coedge $-1 $346 $347 $348 $349 reversed $159 $-1 #
coedge $-1 $350 $161 $163 $252 forward $100 $-1 #
coedge $-1 $161 $350 $346 $351 forward $100 $-1 #
coedge $-1 $348 $164 $161 $249 forward $254 $-1 #
edge $-1 $256 -7.0723589909672899 $352 1.8008558432139221 $248 $353 forward 7 unknown #
coedge $-1 $354 $355 $162 $251 forward $243 $-1 #
edge $-1 $356 -66.955580536085208 $255 -62.877396977920014 $250 $357 forward 7 unknown #
edge $-1 $256 92.030803527563762 $356 98.125553147984249 $163 $358 forward 7 unknown #
coedge $-1 $164 $348 $354 $359 forward $254 $-1 #
loop $-1 $-1 $348 $242 #
vertex $-1 $251 $360 #
vertex $-1 $165 $361 #
straight-curve $-1 20.900045941431252 9.7081105648439738 8.7473305108833443 -1 0 0 I I #
coedge $-1 $258 $258 $-1 $362 reversed $168 $-1 #
edge $-1 $363 0 $363 6.2831853071796004 $169 $364 forward 7 unknown #
vertex $-1 $172 $365 #
ellipse-curve $-1 46.798135774575641 3.3700999690002504 6.7082387318007601 0.66913061440640931 0 0.74314481823134659 0.74314481823134659 0 -0.66913061440640931 1 I I #
coedge $-1 $262 $262 $-1 $366 reversed $175 $-1 #
edge $-1 $367 0 $367 6.2831853071796004 $176 $368 forward 7 unknown #
vertex $-1 $179 $369 #
ellipse-curve $-1 46.798135774575641 7.1729063265064816 6.7082387318007601 0.66913061440640931 0 0.74314481823134659 0.74314481823134659 0 -0.66913061440640931 1 I I #
face $-1 $-1 $195 $27 $-1 $370 reversed single #
loop $-1 $-1 $282 $180 #
plane-surface $-1 0 23.023284750959046 0 0 -1 0 0 0 -1 forward_v I I I I #
coedge $-1 $371 $280 $283 $372 forward $181 $-1 #
coedge $-1 $286 $183 $184 $274 reversed $114 $-1 #
coedge $-1 $280 $371 $183 $272 reversed $181 $-1 #
edge $-1 $287 -8.7473305108833426 $373 8.7473305108833426 $271 $374 forward 7 unknown #
coedge $-1 $185 $184 $371 $375 forward $73 $-1 #
edge $-1 $278 -49.062776573992124 $373 49.062776573992124 $270 $376 forward 7 unknown #
coedge $-1 $283 $282 $185 $276 reversed $267 $-1 #
edge $-1 $377 -49.062776573992124 $277 49.062776573992124 $275 $378 forward 7 unknown #
vertex $-1 $187 $379 #
vertex $-1 $289 $380 #
straight-curve $-1 49.062776573992124 0 -8.7473305108833426 0 -1 0 I I #
coedge $-1 $269 $271 $188 $281 reversed $181 $-1 #
edge $-1 $284 -23.023284750959046 $287 23.023284750959046 $280 $381 forward 7 unknown #
coedge $-1 $275 $189 $194 $290 forward $267 $-1 #
coedge $-1 $189 $275 $269 $372 reversed $267 $-1 #
vertex $-1 $190 $382 #
straight-curve $-1 0 23.023284750959046 8.7473305108833426 -1 0 0 I I #
coedge $-1 $191 $270 $193 $289 reversed $114 $-1 #
vertex $-1 $281 $383 #
straight-curve $-1 0 -23.023284750959046 8.7473305108833426 1 0 0 I I #
edge $-1 $196 -8.7473305108833426 $278 8.7473305108833426 $193 $384 forward 7 unknown #
edge $-1 $197 -8.7473305108833426 $277 8.7473305108833426 $194 $385 forward 7 unknown #
point $-1 49.062776573992124 -23.023284750959046 8.7473305108833426 #
point $-1 49.062776573992124 23.023284750959046 8.7473305108833426 #
face $-1 $-1 $386 $28 $-1 $387 reversed single #
loop $-1 $-1 $209 $199 #
plane-surface $-1 0 -23.023284750959046 0 0 1 0 0 0 1 forward_v I I I I #
coedge $-1 $388 $202 $300 $389 forward $122 $-1 #
coedge $-1 $202 $388 $390 $391 forward $122 $-1 #
edge $-1 $392 -49.062776573992124 $301 49.062776573992124 $202 $393 forward 7 unknown #
coedge $-1 $204 $203 $394 $395 reversed $77 $-1 #
coedge $-1 $205 $211 $296 $389 reversed $200 $-1 #
vertex $-1 $389 $396 #
straight-curve $-1 49.062776573992124 -16.920922530391604 -3.6236652554416713 0 0 1 I I #
coedge $-1 $394 $397 $207 $304 forward $386 $-1 #
edge $-1 $309 -13.037232930621384 $305 -6.9348707100539411 $303 $398 forward 7 unknown #
vertex $-1 $304 $399 #
straight-curve $-1 0 -16.920922530391604 -5.7473305108833426 -1 0 0 I I #
coedge $-1 $400 $209 $397 $401 forward $294 $-1 #
coedge $-1 $209 $400 $211 $311 reversed $294 $-1 #
vertex $-1 $401 $402 #
straight-curve $-1 0 -23.023284750959046 -5.7473305108833426 -1 0 0 I I #
edge $-1 $213 5.7473305108833426 $403 8.7473305108833426 $211 $404 forward 7 unknown #
point $-1 49.062776573992124 -16.920922530391604 -5.7473305108833426 #
point $-1 49.062776573992124 -23.023284750959046 -5.7473305108833426 #
loop $-1 $-1 $223 $215 #
plane-surface $-1 -49.062776573992124 0 0 1 0 0 0 0 -1 forward_v I I I I #
coedge $-1 $317 $218 $220 $321 reversed $130 $-1 #
coedge $-1 $218 $316 $405 $406 reversed $130 $-1 #
coedge $-1 $226 $221 $218 $319 forward $216 $-1 #
edge $-1 $322 -19.805824361509494 $407 -14.651887709999791 $318 $408 forward 7 unknown #
coedge $-1 $220 $219 $325 $409 reversed $81 $-1 #
edge $-1 $410 -2.3625585895707848e-014 $322 8.5639881802534212 $316 $411 forward 7 unknown #
vertex $-1 $222 $412 #
straight-curve $-1 -43.908839922482422 -6.6074493441166258 8.7473305108833426 0 1 0 I I #
coedge $-1 $405 $223 $226 $329 reversed $314 $-1 #
coedge $-1 $223 $405 $320 $409 forward $314 $-1 #
vertex $-1 $224 $413 #
straight-curve $-1 -49.062776573992124 -16.920922530391604 30.480628170371432 0 0 1 I I #
straight-curve $-1 -49.06277657399211 -16.920922530391604 1.9078253720779443 -0.60181501223851219 0 -0.79863551827123203 I I #
edge $-1 $407 9.5088748460748995 $227 16.920922530391604 $324 $414 forward 7 unknown #
point $-1 -49.062776573992124 -16.920922530391604 8.7473305108833426 #
point $-1 -43.908839922482422 -16.920922530391604 8.7473305108833408 #
edge $-1 $415 1 $415 0 $230 $-1 forward 7 unknown #
vertex $-1 $231 $416 #
ellipse-curve $-1 -45.672634136666424 -15.438512993528262 4.7148073136898923 -0.79863551827123203 0 0.60181501223851219 0.3009075061192561 0 0.39931775913561601 1 I I #
point $-1 -46.184900742118025 -15.438512993528262 5.7268957006162609 #
edge $-1 $417 1 $417 0 $234 $-1 forward 7 unknown #
vertex $-1 $235 $418 #
ellipse-curve $-1 -45.672634136666424 -13.214898688233252 4.7148073136898923 -0.79863551827123203 0 0.60181501223851219 0.3009075061192561 0 0.39931775913561601 1 I I #
point $-1 -46.184900742118025 -13.214898688233252 5.7268957006162609 #
edge $-1 $419 1 $419 0 $238 $-1 forward 7 unknown #
vertex $-1 $239 $420 #
ellipse-curve $-1 -45.672634136666424 -10.99128438293824 4.7148073136898923 -0.79863551827123203 0 0.60181501223851219 0.3009075061192561 0 0.39931775913561601 1 I I #
point $-1 -46.184900742118025 -10.99128438293824 5.7268957006162609 #
plane-surface $-1 0 0 8.7473305108833426 0 0 1 1 0 0 forward_v I I I I #
coedge $-1 $355 $354 $347 $421 forward $243 $-1 #
coedge $-1 $347 $245 $247 $351 reversed $159 $-1 #
coedge $-1 $245 $346 $345 $421 reversed $159 $-1 #
coedge $-1 $253 $248 $245 $349 forward $254 $-1 #
edge $-1 $352 23.633449033727921 $422 28.162730632560873 $348 $423 forward 7 unknown #
coedge $-1 $247 $246 $355 $424 reversed $100 $-1 #
edge $-1 $425 -98.125553147984249 $352 -92.030803527563762 $346 $426 forward 7 unknown #
vertex $-1 $249 $427 #
straight-curve $-1 44.533494975159179 2.6357515738766839 8.7473305108833372 0 -1 0 I I #
coedge $-1 $345 $250 $253 $359 reversed $243 $-1 #
coedge $-1 $250 $345 $350 $424 forward $243 $-1 #
vertex $-1 $251 $428 #
straight-curve $-1 49.062776573992124 9.7081105648439738 71.624727488803359 0 0 1 I I #
straight-curve $-1 -23.858719784016969 9.7081105648439738 70.327958619597624 0.74314481823134659 0 -0.66913061440640931 I I #
edge $-1 $422 0.83489573066276179 $255 9.7081105648439738 $354 $429 forward 7 unknown #
point $-1 49.062776573992124 9.7081105648439738 8.7473305108833426 #
point $-1 44.533494975159172 9.7081105648439738 8.7473305108833443 #
edge $-1 $430 1 $430 0 $258 $-1 forward 7 unknown #
vertex $-1 $259 $431 #
ellipse-curve $-1 44.433930087381569 3.3700999690002504 4.0825223651539382 0.66913061440640931 0 0.74314481823134659 0.74314481823134659 0 -0.66913061440640931 1 I I #
point $-1 47.54128059280697 3.3700999690002504 6.0391081173943348 #
edge $-1 $432 1 $432 0 $262 $-1 forward 7 unknown #
vertex $-1 $263 $433 #
ellipse-curve $-1 44.433930087381569 7.1729063265064816 4.0825223651539382 0.66913061440640931 0 0.74314481823134659 0.74314481823134659 0 -0.66913061440640931 1 I I #
point $-1 47.54128059280697 7.1729063265064816 6.0391081173943348 #
plane-surface $-1 49.062776573992124 0 0 -1 0 0 0 0 1 forward_v I I I I #
coedge $-1 $271 $269 $273 $375 reversed $181 $-1 #
edge $-1 $284 -8.7473305108833426 $377 8.7473305108833426 $283 $434 forward 7 unknown #
vertex $-1 $375 $435 #
straight-curve $-1 -49.062776573992124 -23.023284750959046 0 0 0 -1 I I #
edge $-1 $373 -23.023284750959046 $377 23.023284750959046 $371 $436 forward 7 unknown #
straight-curve $-1 0 -23.023284750959046 -8.7473305108833426 -1 0 0 I I #
vertex $-1 $276 $437 #
straight-curve $-1 0 23.023284750959046 -8.7473305108833426 1 0 0 I I #
point $-1 49.062776573992124 23.023284750959046 -8.7473305108833426 #
point $-1 49.062776573992124 -23.023284750959046 -8.7473305108833426 #
straight-curve $-1 -49.062776573992124 0 8.7473305108833426 0 -1 0 I I #
point $-1 -49.062776573992124 23.023284750959046 8.7473305108833426 #
point $-1 -49.062776573992124 -23.023284750959046 8.7473305108833426 #
straight-curve $-1 49.062776573992124 -23.023284750959046 0 0 0 -1 I I #
straight-curve $-1 49.062776573992124 23.023284750959046 0 0 0 -1 I I #
loop $-1 $-1 $394 $293 #
plane-surface $-1 -49.062776573992124 0 0 1 0 0 0 0 -1 forward_v I I I I #
coedge $-1 $297 $296 $400 $438 forward $122 $-1 #
edge $-1 $301 16.920922530391604 $403 23.023284750959046 $300 $439 forward 7 unknown #
coedge $-1 $397 $394 $297 $391 reversed $386 $-1 #
edge $-1 $440 -23.023284750959046 $392 -16.920922530391604 $390 $441 forward 7 unknown #
vertex $-1 $395 $442 #
straight-curve $-1 0 -16.920922530391604 -8.7473305108833426 1 0 0 I I #
coedge $-1 $390 $303 $299 $395 forward $386 $-1 #
edge $-1 $305 2.1236652554416713 $392 5.1236652554416713 $394 $443 forward 7 unknown #
point $-1 49.062776573992124 -16.920922530391604 -8.7473305108833426 #
coedge $-1 $303 $390 $307 $401 reversed $386 $-1 #
straight-curve $-1 -49.062776573992124 -9.9860518203376625 -5.7473305108833426 0 1 0 I I #
point $-1 -49.062776573992124 -16.920922530391604 -5.7473305108833426 #
coedge $-1 $308 $307 $388 $438 reversed $294 $-1 #
edge $-1 $309 5.7473305108833426 $440 8.7473305108833426 $397 $444 forward 7 unknown #
point $-1 -49.062776573992124 -23.023284750959046 -5.7473305108833426 #
vertex $-1 $311 $445 #
straight-curve $-1 49.062776573992124 -23.023284750959046 0 0 0 -1 I I #
coedge $-1 $325 $324 $317 $406 forward $314 $-1 #
edge $-1 $407 21.733297659488088 $410 28.572802798293505 $405 $446 forward 7 unknown #
vertex $-1 $329 $447 #
straight-curve $-1 -63.714664283991915 -9.5088748460748995 8.7473305108833443 -1 0 0 I I #
edge $-1 $410 2.9014255019582738 $326 10.313473186274978 $325 $448 forward 7 unknown #
vertex $-1 $409 $449 #
straight-curve $-1 -49.06277657399211 -9.5088748460748995 1.9078253720779443 0.60181501223851219 0 0.79863551827123203 I I #
point $-1 -43.908839922482422 -9.5088748460748995 8.7473305108833408 #
point $-1 -49.062776573992124 -16.920922530391604 1.9078253720779255 #
straight-curve $-1 -49.062776573992124 0 8.7473305108833426 0 -1 0 I I #
vertex $-1 $332 $450 #
point $-1 -45.371726630547172 -15.438512993528262 5.1141250728255088 #
vertex $-1 $336 $451 #
point $-1 -45.371726630547172 -13.214898688233252 5.1141250728255088 #
vertex $-1 $340 $452 #
point $-1 -45.371726630547172 -10.99128438293824 5.1141250728255088 #
edge $-1 $422 62.877396977920014 $425 66.955580536085208 $345 $453 forward 7 unknown #
vertex $-1 $359 $454 #
straight-curve $-1 20.900045941431252 0.83489573066276179 8.7473305108833443 1 0 0 I I #
edge $-1 $425 -1.8008558432139221 $356 7.0723589909672899 $355 $455 forward 7 unknown #
vertex $-1 $424 $456 #
straight-curve $-1 -23.858719784016969 0.83489573066276179 70.327958619597624 -0.74314481823134659 0 0.66913061440640931 I I #
point $-1 44.533494975159172 0.83489573066276179 8.7473305108833443 #
point $-1 49.062776573992124 9.7081105648439738 4.6691469527181511 #
straight-curve $-1 49.062776573992124 0 8.7473305108833426 0 1 0 I I #
vertex $-1 $362 $457 #
point $-1 45.177074905612912 3.3700999690002504 3.4133917507475289 #
vertex $-1 $366 $458 #
point $-1 45.177074905612912 7.1729063265064816 3.4133917507475289 #
straight-curve $-1 -49.062776573992124 23.023284750959046 0 0 0 -1 I I #
point $-1 -49.062776573992124 -23.023284750959046 -8.7473305108833426 #
straight-curve $-1 -49.062776573992124 0 -8.7473305108833426 0 1 0 I I #
point $-1 -49.062776573992124 23.023284750959046 -8.7473305108833426 #
edge $-1 $403 -49.062776573992124 $440 49.062776573992124 $400 $459 forward 7 unknown #
straight-curve $-1 49.062776573992124 0 -8.7473305108833426 0 -1 0 I I #
vertex $-1 $391 $460 #
straight-curve $-1 -49.062776573992124 0 -8.7473305108833426 0 1 0 I I #
point $-1 -49.062776573992124 -16.920922530391604 -8.7473305108833426 #
straight-curve $-1 -49.062776573992124 -16.920922530391604 -3.6236652554416713 0 0 -1 I I #
straight-curve $-1 -49.062776573992124 -23.023284750959046 0 0 0 -1 I I #
point $-1 49.062776573992124 -23.023284750959046 -8.7473305108833426 #
straight-curve $-1 -49.062776573992124 -9.5088748460748995 30.480628170371432 0 0 -1 I I #
point $-1 -49.062776573992124 -9.5088748460748995 8.7473305108833426 #
straight-curve $-1 -49.062776573992124 -6.6074493441166258 1.9078253720779224 0 -1 0 I I #
point $-1 -49.062776573992124 -9.5088748460748995 1.9078253720779255 #
point $-1 -45.273316377530811 -15.438512993528262 4.4138998075706368 #
point $-1 -45.273316377530811 -13.214898688233252 4.4138998075706368 #
point $-1 -45.273316377530811 -10.99128438293824 4.4138998075706368 #
straight-curve $-1 49.062776573992124 0.83489573066276179 71.624727488803359 0 0 -1 I I #
point $-1 49.062776573992124 0.83489573066276179 8.7473305108833426 #
straight-curve $-1 49.062776573992117 2.6357515738766839 4.6691469527181546 0 1 0 I I #
point $-1 49.062776573992124 0.83489573066276179 4.6691469527181511 #
point $-1 43.764799472975156 3.3700999690002504 3.3393775469225915 #
point $-1 43.764799472975156 7.1729063265064816 3.3393775469225915 #
straight-curve $-1 0 -23.023284750959046 -8.7473305108833426 -1 0 0 I I #
point $-1 -49.062776573992124 -23.023284750959046 -8.7473305108833426 #
End-of-ACIS-data 