500 0 6 0           
7 Unknown 11 ACIS 5.0 NT 24 Fri Mar 26 20:32:13 1999 
-1 9.9999999999999995e-007 1e-010 
body $-1 $6 $-1 $7 #
body $-1 $8 $-1 $9 #
body $-1 $10 $-1 $11 #
body $-1 $12 $-1 $13 #
body $-1 $14 $-1 $15 #
body $-1 $16 $-1 $17 #
lump $-1 $-1 $18 $0 #
transform $-1 1 0 0 0 1 0 0 0 1 66.300851466414372 41.164113963217069 15.810753388594268 1 rotate no_reflect no_shear #
lump $-1 $-1 $19 $1 #
transform $-1 1 0 0 0 1 0 0 0 1 66.300851466414372 41.164113963217069 15.810753388594268 1 rotate no_reflect no_shear #
lump $-1 $-1 $20 $2 #
transform $-1 1 0 0 0 1 0 0 0 1 66.300851466414372 41.164113963217069 15.810753388594268 1 rotate no_reflect no_shear #
lump $-1 $-1 $21 $3 #
transform $-1 1 0 0 0 1 0 0 0 1 66.300851466414372 41.164113963217069 15.810753388594268 1 rotate no_reflect no_shear #
lump $-1 $-1 $22 $4 #
transform $-1 1 0 0 0 1 0 0 0 1 66.300851466414372 41.164113963217069 15.810753388594268 1 rotate no_reflect no_shear #
lump $-1 $-1 $23 $5 #
transform $-1 1 0 0 0 1 0 0 0 1 66.300851466414372 41.164113963217069 15.810753388594268 1 rotate no_reflect no_shear #
shell $-1 $-1 $-1 $24 $-1 $6 #
shell $-1 $-1 $-1 $25 $-1 $8 #
shell $-1 $-1 $-1 $26 $-1 $10 #
shell $-1 $-1 $-1 $27 $-1 $12 #
shell $-1 $-1 $-1 $28 $-1 $14 #
shell $-1 $-1 $-1 $29 $-1 $16 #
face $-1 $30 $31 $18 $-1 $32 forward single #
face $-1 $33 $34 $19 $-1 $35 reversed single #
face $-1 $36 $37 $20 $-1 $38 reversed single #
face $-1 $39 $40 $21 $-1 $41 reversed single #
face $-1 $42 $43 $22 $-1 $44 forward single #
face $-1 $45 $46 $23 $-1 $47 forward single #
face $-1 $48 $49 $18 $-1 $50 reversed single #
loop $-1 $-1 $51 $24 #
plane-surface $-1 0 0 15.810753388594268 0 0 1 1 0 0 forward_v I I I I #
face $-1 $52 $53 $19 $-1 $54 reversed single #
loop $-1 $-1 $55 $25 #
plane-surface $-1 -62.993703340248224 -28.465695822798558 0 0 -1 0 0 0 -1 forward_v I I I I #
face $-1 $56 $57 $20 $-1 $58 reversed single #
loop $-1 $-1 $59 $26 #
plane-surface $-1 -62.993703340248224 28.465695822798558 0 0 1 0 0 0 1 forward_v I I I I #
face $-1 $60 $61 $21 $-1 $62 reversed single #
loop $-1 $-1 $63 $27 #
plane-surface $-1 49.956787381843782 -0.27490444791879654 198.80247426808654 0 -1 0 -0.64278761758704617 0 -0.76604443648966558 forward_v I I I I #
face $-1 $64 $65 $22 $-1 $66 forward single #
loop $-1 $67 $68 $28 #
cone-surface $-1 63.47238215559306 -11.358426736830832 13.243023301442587 -0.64278761758704617 0 -0.76604443648966558 0.38302221824483279 0 -0.32139380879352308 1 I I 0 1 0.5 forward I I I I #
face $-1 $69 $70 $23 $-1 $71 forward single #
loop $-1 $72 $73 $29 #
cone-surface $-1 63.47238215559306 -4.7083133634836116 13.243023301442587 -0.64278761758704617 0 -0.76604443648966558 0.38302221824483279 0 -0.32139380879352308 1 I I 0 1 0.5 forward I I I I #
face $-1 $74 $75 $18 $-1 $76 reversed single #
loop $-1 $-1 $77 $30 #
plane-surface $-1 0 0 -15.810753388594268 0 0 1 1 0 0 forward_v I I I I #
coedge $-1 $78 $79 $80 $81 forward $31 $-1 #
face $-1 $82 $83 $19 $-1 $84 forward single #
loop $-1 $-1 $85 $33 #
plane-surface $-1 -59.686555214082077 -34.814904893007814 0 -1 0 0 0 0 1 forward_v I I I I #
coedge $-1 $86 $87 $88 $89 forward $34 $-1 #
face $-1 $90 $91 $20 $-1 $92 reversed single #
loop $-1 $-1 $93 $36 #
plane-surface $-1 -59.686555214082077 34.814904893007814 0 -1 0 0 0 0 1 forward_v I I I I #
coedge $-1 $94 $95 $96 $97 reversed $37 $-1 #
face $-1 $98 $99 $21 $-1 $100 reversed single #
loop $-1 $-1 $101 $39 #
plane-surface $-1 -35.277945334334433 -8.0333700501572238 97.223677467337708 0.64278761758704617 0 0.76604443648966558 0.76604443648966558 0 -0.64278761758704617 forward_v I I I I #
coedge $-1 $102 $103 $104 $105 reversed $40 $-1 #
face $-1 $-1 $106 $22 $-1 $107 forward single #
loop $-1 $108 $109 $42 #
cone-surface $-1 62.760542979611699 -11.358426736830832 12.394686423885883 -0.64278761758704617 0 -0.76604443648966558 0.1915111091224164 0 -0.16069690439676154 1 I I -0.70710678118654746 0.70710678118654746 0.25 forward I I I I #
loop $-1 $-1 $110 $28 #
coedge $-1 $68 $68 $111 $112 reversed $43 $-1 #
face $-1 $-1 $113 $23 $-1 $114 forward single #
loop $-1 $115 $116 $45 #
cone-surface $-1 62.760542979611699 -4.7083133634836116 12.394686423885883 -0.64278761758704617 0 -0.76604443648966558 0.1915111091224164 0 -0.16069690439676154 1 I I -0.70710678118654746 0.70710678118654746 0.25 forward I I I I #
loop $-1 $-1 $117 $29 #
coedge $-1 $73 $73 $118 $119 reversed $46 $-1 #
face $-1 $120 $121 $18 $-1 $122 reversed single #
loop $-1 $-1 $123 $48 #
plane-surface $-1 0 -41.164113963217069 0 0 1 0 0 0 1 forward_v I I I I #
coedge $-1 $124 $125 $126 $127 forward $49 $-1 #
coedge $-1 $128 $51 $129 $130 forward $31 $-1 #
coedge $-1 $51 $128 $131 $132 forward $31 $-1 #
coedge $-1 $133 $134 $51 $81 reversed $135 $-1 #
edge $-1 $136 -41.164113963217069 $137 41.164113963217069 $80 $138 forward 7 unknown #
face $-1 $139 $140 $19 $-1 $141 reversed single #
loop $-1 $-1 $142 $52 #
plane-surface $-1 0 0 15.810753388594268 0 0 1 1 0 0 forward_v I I I I #
coedge $-1 $143 $144 $145 $146 reversed $53 $-1 #
coedge $-1 $147 $55 $148 $149 reversed $34 $-1 #
coedge $-1 $55 $147 $150 $151 reversed $34 $-1 #
coedge $-1 $144 $143 $55 $89 reversed $53 $-1 #
edge $-1 $152 -15.810753388594268 $153 15.810753388594268 $88 $154 forward 7 unknown #
face $-1 $155 $156 $20 $-1 $157 reversed single #
loop $-1 $-1 $158 $56 #
plane-surface $-1 0 0 -15.810753388594268 0 0 1 1 0 0 forward_v I I I I #
coedge $-1 $159 $160 $161 $162 forward $57 $-1 #
coedge $-1 $161 $59 $163 $164 reversed $37 $-1 #
coedge $-1 $59 $161 $165 $166 reversed $37 $-1 #
coedge $-1 $167 $168 $59 $97 forward $156 $-1 #
edge $-1 $169 -15.810753388594268 $170 15.810753388594268 $96 $171 forward 7 unknown #
face $-1 $172 $173 $21 $-1 $174 reversed single #
loop $-1 $-1 $175 $60 #
plane-surface $-1 49.956787381843782 -15.791835652395651 198.80247426808654 0 1 0 0.64278761758704617 0 0.76604443648966558 forward_v I I I I #
coedge $-1 $176 $177 $178 $179 reversed $61 $-1 #
coedge $-1 $103 $63 $180 $181 reversed $40 $-1 #
coedge $-1 $63 $102 $176 $182 reversed $40 $-1 #
coedge $-1 $178 $183 $63 $105 forward $184 $-1 #
edge $-1 $185 -41.322457775492481 $186 -36.767803697019076 $104 $187 forward 7 unknown #
loop $-1 $-1 $111 $64 #
plane-surface $-1 -35.277945334334433 -8.0333700501572238 97.223677467337708 0.64278761758704617 0 0.76604443648966558 0.76604443648966558 0 -0.64278761758704617 forward_v I I I I #
loop $-1 $-1 $188 $42 #
coedge $-1 $109 $109 $110 $189 reversed $65 $-1 #
coedge $-1 $110 $110 $109 $189 forward $67 $-1 #
coedge $-1 $111 $111 $68 $112 forward $106 $-1 #
edge $-1 $190 0 $190 6.2831853071796004 $111 $191 forward 7 unknown #
loop $-1 $-1 $118 $69 #
plane-surface $-1 -35.277945334334433 -8.0333700501572238 97.223677467337708 0.64278761758704617 0 0.76604443648966558 0.76604443648966558 0 -0.64278761758704617 forward_v I I I I #
loop $-1 $-1 $192 $45 #
coedge $-1 $116 $116 $117 $193 reversed $70 $-1 #
coedge $-1 $117 $117 $116 $193 forward $72 $-1 #
coedge $-1 $118 $118 $73 $119 forward $113 $-1 #
edge $-1 $194 0 $194 6.2831853071796004 $118 $195 forward 7 unknown #
face $-1 $196 $197 $18 $-1 $198 reversed single #
loop $-1 $-1 $199 $74 #
plane-surface $-1 -66.300851466414372 0 0 1 0 0 0 0 -1 forward_v I I I I #
coedge $-1 $200 $131 $201 $202 forward $75 $-1 #
coedge $-1 $203 $77 $200 $204 forward $49 $-1 #
coedge $-1 $77 $203 $205 $206 forward $49 $-1 #
coedge $-1 $134 $133 $77 $127 reversed $135 $-1 #
edge $-1 $207 -41.164113963217069 $208 41.164113963217069 $126 $209 forward 7 unknown #
coedge $-1 $79 $78 $210 $211 forward $31 $-1 #
coedge $-1 $212 $213 $78 $130 reversed $197 $-1 #
edge $-1 $137 -66.300851466414372 $214 66.300851466414372 $129 $215 forward 7 unknown #
coedge $-1 $123 $216 $79 $132 reversed $75 $-1 #
edge $-1 $217 -66.300851466414372 $136 66.300851466414372 $131 $218 forward 7 unknown #
coedge $-1 $126 $80 $216 $219 forward $135 $-1 #
coedge $-1 $80 $126 $212 $220 reversed $135 $-1 #
loop $-1 $-1 $133 $196 #
vertex $-1 $81 $221 #
vertex $-1 $81 $222 #
straight-curve $-1 66.300851466414372 0 15.810753388594268 0 1 0 I I #
face $-1 $223 $224 $19 $-1 $225 reversed single #
loop $-1 $-1 $226 $82 #
plane-surface $-1 -66.300851466414372 0 0 1 0 0 0 0 -1 forward_v I I I I #
coedge $-1 $150 $227 $144 $228 forward $83 $-1 #
coedge $-1 $88 $85 $229 $230 reversed $53 $-1 #
coedge $-1 $85 $88 $142 $228 reversed $53 $-1 #
coedge $-1 $231 $232 $85 $146 forward $233 $-1 #
edge $-1 $234 -15.810753388594268 $235 15.810753388594268 $145 $236 forward 7 unknown #
coedge $-1 $87 $86 $226 $237 reversed $34 $-1 #
coedge $-1 $229 $238 $86 $149 forward $224 $-1 #
edge $-1 $239 -34.803999796290256 $153 -28.189703543957965 $148 $240 forward 7 unknown #
coedge $-1 $241 $142 $87 $151 forward $83 $-1 #
edge $-1 $152 28.189703543957965 $242 34.803999796290256 $150 $243 forward 7 unknown #
vertex $-1 $151 $244 #
vertex $-1 $149 $245 #
straight-curve $-1 -59.686555214082077 -28.465695822798558 0 0 0 -1 I I #
face $-1 $246 $247 $20 $-1 $248 forward single #
loop $-1 $-1 $96 $90 #
plane-surface $-1 -66.300851466414372 0 0 1 0 0 0 0 -1 forward_v I I I I #
coedge $-1 $163 $249 $159 $250 forward $91 $-1 #
coedge $-1 $251 $93 $158 $250 reversed $57 $-1 #
coedge $-1 $93 $251 $252 $253 reversed $57 $-1 #
coedge $-1 $95 $94 $93 $162 reversed $37 $-1 #
edge $-1 $254 -15.810753388594268 $255 15.810753388594268 $93 $256 forward 7 unknown #
coedge $-1 $257 $158 $94 $164 forward $91 $-1 #
edge $-1 $255 28.189703543957965 $169 34.803999796290256 $163 $258 forward 7 unknown #
coedge $-1 $252 $259 $95 $166 forward $247 $-1 #
edge $-1 $170 -34.803999796290256 $254 -28.189703543957965 $165 $260 forward 7 unknown #
coedge $-1 $261 $96 $259 $262 reversed $156 $-1 #
coedge $-1 $96 $261 $257 $263 reversed $156 $-1 #
vertex $-1 $263 $264 #
vertex $-1 $97 $265 #
straight-curve $-1 -66.300851466414372 28.465695822798558 0 0 0 1 I I #
face $-1 $-1 $184 $21 $-1 $266 forward single #
loop $-1 $-1 $267 $98 #
plane-surface $-1 66.300851466414372 0 0 -1 0 0 0 0 1 forward_v I I I I #
coedge $-1 $268 $269 $270 $271 reversed $99 $-1 #
coedge $-1 $272 $101 $103 $182 forward $61 $-1 #
coedge $-1 $101 $272 $268 $273 forward $61 $-1 #
coedge $-1 $270 $104 $101 $179 forward $184 $-1 #
edge $-1 $186 -3.7417805771598154 $274 11.775150627317039 $178 $275 forward 7 unknown #
coedge $-1 $276 $277 $102 $181 forward $173 $-1 #
edge $-1 $278 -87.412292382883763 $185 -83.590483745449006 $180 $279 forward 7 unknown #
edge $-1 $186 126.6560242469489 $278 132.60170293282869 $103 $280 forward 7 unknown #
coedge $-1 $104 $270 $276 $281 forward $184 $-1 #
loop $-1 $-1 $270 $172 #
vertex $-1 $181 $282 #
vertex $-1 $105 $283 #
straight-curve $-1 24.978393690921891 -0.27490444791879654 15.810753388594264 -1 0 0 I I #
coedge $-1 $188 $188 $-1 $284 reversed $108 $-1 #
edge $-1 $285 0 $285 6.2831853071796004 $109 $286 forward 7 unknown #
vertex $-1 $112 $287 #
ellipse-curve $-1 64.023524427177676 -11.358426736830832 13.899849069876893 0.64278761758704617 0 0.76604443648966558 0.38302221824483279 0 -0.32139380879352308 1 I I #
coedge $-1 $192 $192 $-1 $288 reversed $115 $-1 #
edge $-1 $289 0 $289 6.2831853071796004 $116 $290 forward 7 unknown #
vertex $-1 $119 $291 #
ellipse-curve $-1 64.023524427177676 -4.7083133634836116 13.899849069876893 0.64278761758704617 0 0.76604443648966558 0.38302221824483279 0 -0.32139380879352308 1 I I #
face $-1 $-1 $135 $18 $-1 $292 reversed single #
loop $-1 $-1 $212 $120 #
plane-surface $-1 0 41.164113963217069 0 0 -1 0 0 0 -1 forward_v I I I I #
coedge $-1 $293 $210 $213 $294 forward $121 $-1 #
coedge $-1 $216 $123 $124 $204 reversed $75 $-1 #
coedge $-1 $210 $293 $123 $202 reversed $121 $-1 #
edge $-1 $217 -15.810753388594268 $295 15.810753388594268 $201 $296 forward 7 unknown #
coedge $-1 $125 $124 $293 $297 forward $49 $-1 #
edge $-1 $208 -66.300851466414372 $295 66.300851466414372 $200 $298 forward 7 unknown #
coedge $-1 $213 $212 $125 $206 reversed $197 $-1 #
edge $-1 $299 -66.300851466414372 $207 66.300851466414372 $205 $300 forward 7 unknown #
vertex $-1 $127 $301 #
vertex $-1 $219 $302 #
straight-curve $-1 66.300851466414372 0 -15.810753388594268 0 -1 0 I I #
coedge $-1 $199 $201 $128 $211 reversed $121 $-1 #
edge $-1 $214 -41.164113963217069 $217 41.164113963217069 $210 $303 forward 7 unknown #
coedge $-1 $205 $129 $134 $220 forward $197 $-1 #
coedge $-1 $129 $205 $199 $294 reversed $197 $-1 #
vertex $-1 $130 $304 #
straight-curve $-1 0 41.164113963217069 15.810753388594268 -1 0 0 I I #
coedge $-1 $131 $200 $133 $219 reversed $75 $-1 #
vertex $-1 $211 $305 #
straight-curve $-1 0 -41.164113963217069 15.810753388594268 1 0 0 I I #
edge $-1 $136 -15.810753388594268 $208 15.810753388594268 $133 $306 forward 7 unknown #
edge $-1 $137 -15.810753388594268 $207 15.810753388594268 $134 $307 forward 7 unknown #
point $-1 66.300851466414372 -41.164113963217069 15.810753388594268 #
point $-1 66.300851466414372 41.164113963217069 15.810753388594268 #
face $-1 $-1 $233 $19 $-1 $308 reversed single #
loop $-1 $-1 $229 $139 #
plane-surface $-1 0 0 -15.810753388594268 0 0 1 1 0 0 forward_v I I I I #
coedge $-1 $309 $310 $147 $237 forward $140 $-1 #
coedge $-1 $142 $241 $231 $311 forward $83 $-1 #
edge $-1 $235 -23.756661516713162 $152 -11.058243376294651 $142 $312 forward 7 unknown #
coedge $-1 $313 $148 $143 $230 forward $224 $-1 #
edge $-1 $153 11.058243376294651 $234 23.756661516713162 $229 $314 forward 7 unknown #
coedge $-1 $315 $145 $227 $311 reversed $233 $-1 #
coedge $-1 $145 $315 $313 $316 reversed $233 $-1 #
loop $-1 $-1 $145 $223 #
vertex $-1 $316 $317 #
vertex $-1 $146 $318 #
straight-curve $-1 -59.686555214082077 -41.164113963217069 0 0 0 1 I I #
edge $-1 $242 -15.810753388594268 $239 15.810753388594268 $226 $319 forward 7 unknown #
coedge $-1 $148 $313 $309 $320 forward $224 $-1 #
vertex $-1 $149 $321 #
straight-curve $-1 -31.496851670124112 -28.465695822798558 -15.810753388594268 1 0 0 I I #
coedge $-1 $227 $150 $310 $322 forward $83 $-1 #
vertex $-1 $322 $323 #
straight-curve $-1 -31.496851670124112 -28.465695822798558 15.810753388594268 -1 0 0 I I #
point $-1 -59.686555214082077 -28.465695822798558 15.810753388594268 #
point $-1 -59.686555214082077 -28.465695822798558 -15.810753388594268 #
face $-1 $-1 $324 $20 $-1 $325 reversed single #
loop $-1 $-1 $252 $155 #
plane-surface $-1 0 0 15.810753388594268 0 0 1 1 0 0 forward_v I I I I #
coedge $-1 $158 $257 $326 $327 forward $91 $-1 #
edge $-1 $328 -23.756661516713162 $255 -11.058243376294651 $158 $329 forward 7 unknown #
coedge $-1 $160 $159 $330 $331 reversed $57 $-1 #
coedge $-1 $332 $165 $160 $253 forward $247 $-1 #
edge $-1 $254 11.058243376294651 $333 23.756661516713162 $252 $334 forward 7 unknown #
vertex $-1 $166 $335 #
vertex $-1 $164 $336 #
straight-curve $-1 -59.686555214082077 28.465695822798558 0 0 0 -1 I I #
coedge $-1 $249 $163 $168 $263 forward $91 $-1 #
straight-curve $-1 -31.496851670124112 28.465695822798558 -15.810753388594268 -1 0 0 I I #
coedge $-1 $165 $332 $167 $262 forward $247 $-1 #
straight-curve $-1 -31.496851670124112 28.465695822798558 15.810753388594268 1 0 0 I I #
coedge $-1 $168 $167 $337 $338 forward $156 $-1 #
edge $-1 $339 -41.164113963217069 $170 -28.465695822798558 $167 $340 forward 7 unknown #
edge $-1 $169 28.465695822798558 $341 41.164113963217069 $168 $342 forward 7 unknown #
point $-1 -66.300851466414372 28.465695822798558 -15.810753388594268 #
point $-1 -66.300851466414372 28.465695822798558 15.810753388594268 #
plane-surface $-1 0 0 15.810753388594268 0 0 1 1 0 0 forward_v I I I I #
coedge $-1 $277 $276 $269 $343 forward $173 $-1 #
coedge $-1 $269 $175 $177 $273 reversed $99 $-1 #
coedge $-1 $175 $268 $267 $343 reversed $99 $-1 #
coedge $-1 $183 $178 $175 $271 forward $184 $-1 #
edge $-1 $274 36.767803697019076 $344 41.322457775492481 $270 $345 forward 7 unknown #
coedge $-1 $177 $176 $277 $346 reversed $61 $-1 #
edge $-1 $347 -132.60170293282869 $274 -126.6560242469489 $268 $348 forward 7 unknown #
vertex $-1 $179 $349 #
straight-curve $-1 61.746197387940967 -4.0166850250786119 15.810753388594271 0 -1 0 I I #
coedge $-1 $267 $180 $183 $281 reversed $173 $-1 #
coedge $-1 $180 $267 $272 $346 forward $173 $-1 #
vertex $-1 $181 $350 #
straight-curve $-1 66.300851466414372 -0.27490444791879654 99.401237134043271 0 0 1 I I #
straight-curve $-1 -35.277945334334433 -0.27490444791879654 97.223677467337708 0.76604443648966558 0 -0.64278761758704617 I I #
edge $-1 $344 -15.791835652395651 $185 -0.27490444791879654 $276 $351 forward 7 unknown #
point $-1 66.300851466414372 -0.27490444791879654 15.810753388594268 #
point $-1 61.746197387940967 -0.27490444791879654 15.810753388594264 #
edge $-1 $352 1 $352 0 $188 $-1 forward 7 unknown #
vertex $-1 $189 $353 #
ellipse-curve $-1 62.921239884008457 -11.358426736830832 12.586197533008299 0.64278761758704617 0 0.76604443648966558 0.38302221824483279 0 -0.32139380879352308 1 I I #
point $-1 64.40654664542248 -11.358426736830832 13.57845526108335 #
edge $-1 $354 1 $354 0 $192 $-1 forward 7 unknown #
vertex $-1 $193 $355 #
ellipse-curve $-1 62.921239884008457 -4.7083133634836116 12.586197533008299 0.64278761758704617 0 0.76604443648966558 0.38302221824483279 0 -0.32139380879352308 1 I I #
point $-1 64.40654664542248 -4.7083133634836116 13.57845526108335 #
plane-surface $-1 66.300851466414372 0 0 -1 0 0 0 0 1 forward_v I I I I #
coedge $-1 $201 $199 $203 $297 reversed $121 $-1 #
edge $-1 $214 -15.810753388594268 $299 15.810753388594268 $213 $356 forward 7 unknown #
vertex $-1 $297 $357 #
straight-curve $-1 -66.300851466414372 -41.164113963217069 0 0 0 -1 I I #
edge $-1 $295 -41.164113963217069 $299 41.164113963217069 $293 $358 forward 7 unknown #
straight-curve $-1 0 -41.164113963217069 -15.810753388594268 -1 0 0 I I #
vertex $-1 $206 $359 #
straight-curve $-1 0 41.164113963217069 -15.810753388594268 1 0 0 I I #
point $-1 66.300851466414372 41.164113963217069 -15.810753388594268 #
point $-1 66.300851466414372 -41.164113963217069 -15.810753388594268 #
straight-curve $-1 -66.300851466414372 0 15.810753388594268 0 -1 0 I I #
point $-1 -66.300851466414372 41.164113963217069 15.810753388594268 #
point $-1 -66.300851466414372 -41.164113963217069 15.810753388594268 #
straight-curve $-1 66.300851466414372 -41.164113963217069 0 0 0 -1 I I #
straight-curve $-1 66.300851466414372 41.164113963217069 0 0 0 -1 I I #
plane-surface $-1 0 -41.164113963217069 0 0 1 0 0 0 1 forward_v I I I I #
coedge $-1 $360 $226 $238 $320 reversed $140 $-1 #
coedge $-1 $226 $360 $241 $322 reversed $140 $-1 #
edge $-1 $361 -66.300851466414372 $235 -59.686555214082077 $231 $362 forward 7 unknown #
straight-curve $-1 -59.686555214082077 -17.407452446503907 15.810753388594268 0 1 0 I I #
coedge $-1 $238 $229 $232 $316 forward $224 $-1 #
straight-curve $-1 -59.686555214082077 -17.407452446503907 -15.810753388594268 0 -1 0 I I #
coedge $-1 $232 $231 $360 $363 forward $233 $-1 #
edge $-1 $234 59.686555214082077 $364 66.300851466414372 $232 $365 forward 7 unknown #
point $-1 -59.686555214082077 -41.164113963217069 -15.810753388594268 #
point $-1 -59.686555214082077 -41.164113963217069 15.810753388594268 #
straight-curve $-1 -66.300851466414372 -28.465695822798558 0 0 0 -1 I I #
edge $-1 $364 -41.164113963217069 $239 -28.465695822798558 $309 $366 forward 7 unknown #
point $-1 -66.300851466414372 -28.465695822798558 -15.810753388594268 #
edge $-1 $242 28.465695822798558 $361 41.164113963217069 $310 $367 forward 7 unknown #
point $-1 -66.300851466414372 -28.465695822798558 15.810753388594268 #
loop $-1 $-1 $330 $246 #
plane-surface $-1 0 41.164113963217069 0 0 -1 0 0 0 -1 forward_v I I I I #
coedge $-1 $337 $330 $249 $327 reversed $324 $-1 #
edge $-1 $341 -66.300851466414372 $328 -59.686555214082077 $326 $368 forward 7 unknown #
vertex $-1 $250 $369 #
straight-curve $-1 -59.686555214082077 17.407452446503907 -15.810753388594268 0 -1 0 I I #
coedge $-1 $326 $370 $251 $331 forward $324 $-1 #
edge $-1 $333 -15.810753388594268 $328 15.810753388594268 $330 $371 forward 7 unknown #
coedge $-1 $259 $252 $370 $372 forward $247 $-1 #
vertex $-1 $372 $373 #
straight-curve $-1 -59.686555214082077 17.407452446503907 15.810753388594268 0 1 0 I I #
point $-1 -59.686555214082077 28.465695822798558 15.810753388594268 #
point $-1 -59.686555214082077 28.465695822798558 -15.810753388594268 #
coedge $-1 $370 $326 $261 $338 reversed $324 $-1 #
edge $-1 $339 -15.810753388594268 $341 15.810753388594268 $337 $374 forward 7 unknown #
vertex $-1 $372 $375 #
straight-curve $-1 -66.300851466414372 0 15.810753388594268 0 -1 0 I I #
vertex $-1 $327 $376 #
straight-curve $-1 -66.300851466414372 0 -15.810753388594268 0 1 0 I I #
edge $-1 $344 83.590483745449006 $347 87.412292382883763 $267 $377 forward 7 unknown #
vertex $-1 $281 $378 #
straight-curve $-1 24.978393690921891 -15.791835652395651 15.810753388594264 1 0 0 I I #
edge $-1 $347 -11.775150627317039 $278 3.7417805771598154 $277 $379 forward 7 unknown #
vertex $-1 $346 $380 #
straight-curve $-1 -35.277945334334433 -15.791835652395651 97.223677467337708 -0.76604443648966558 0 0.64278761758704617 I I #
point $-1 61.746197387940967 -15.791835652395651 15.810753388594264 #
point $-1 66.300851466414372 -0.27490444791879654 11.988944751159508 #
straight-curve $-1 66.300851466414372 0 15.810753388594268 0 1 0 I I #
vertex $-1 $284 $381 #
point $-1 63.304262102253297 -11.358426736830832 12.264803724214776 #
vertex $-1 $288 $382 #
point $-1 63.304262102253297 -4.7083133634836116 12.264803724214776 #
straight-curve $-1 -66.300851466414372 41.164113963217069 0 0 0 -1 I I #
point $-1 -66.300851466414372 -41.164113963217069 -15.810753388594268 #
straight-curve $-1 -66.300851466414372 0 -15.810753388594268 0 1 0 I I #
point $-1 -66.300851466414372 41.164113963217069 -15.810753388594268 #
coedge $-1 $310 $309 $315 $363 reversed $140 $-1 #
vertex $-1 $322 $383 #
straight-curve $-1 0 -41.164113963217069 15.810753388594268 1 0 0 I I #
edge $-1 $361 -15.810753388594268 $364 15.810753388594268 $360 $384 forward 7 unknown #
vertex $-1 $320 $385 #
straight-curve $-1 0 -41.164113963217069 -15.810753388594268 -1 0 0 I I #
straight-curve $-1 -66.300851466414372 0 -15.810753388594268 0 1 0 I I #
straight-curve $-1 -66.300851466414372 0 15.810753388594268 0 -1 0 I I #
straight-curve $-1 0 41.164113963217069 -15.810753388594268 1 0 0 I I #
point $-1 -59.686555214082077 41.164113963217069 -15.810753388594268 #
coedge $-1 $330 $337 $332 $372 reversed $324 $-1 #
straight-curve $-1 -59.686555214082077 41.164113963217069 0 0 0 -1 I I #
edge $-1 $333 59.686555214082077 $339 66.300851466414372 $370 $386 forward 7 unknown #
point $-1 -59.686555214082077 41.164113963217069 15.810753388594268 #
straight-curve $-1 -66.300851466414372 41.164113963217069 0 0 0 -1 I I #
point $-1 -66.300851466414372 41.164113963217069 15.810753388594268 #
point $-1 -66.300851466414372 41.164113963217069 -15.810753388594268 #
straight-curve $-1 66.300851466414372 -15.791835652395651 99.401237134043271 0 0 -1 I I #
point $-1 66.300851466414372 -15.791835652395651 15.810753388594268 #
straight-curve $-1 66.300851466414372 -4.0166850250786119 11.988944751159522 0 1 0 I I #
point $-1 66.300851466414372 -15.791835652395651 11.988944751159508 #
point $-1 62.599846075214941 -11.358426736830832 12.203175314763467 #
point $-1 62.599846075214941 -4.7083133634836116 12.203175314763467 #
point $-1 -66.300851466414372 -41.164113963217069 15.810753388594268 #
straight-curve $-1 -66.300851466414372 -41.164113963217069 0 0 0 -1 I I #
point $-1 -66.300851466414372 -41.164113963217069 -15.810753388594268 #
straight-curve $-1 0 41.164113963217069 15.810753388594268 -1 0 0 I I #
End-of-ACIS-data 