500 0 9 0           
7 Unknown 11 ACIS 5.0 NT 24 Fri Mar 26 18:39:37 1999 
-1 9.9999999999999995e-007 1e-010 
body $-1 $9 $-1 $10 #
body $-1 $11 $-1 $12 #
body $-1 $13 $-1 $14 #
body $-1 $15 $-1 $16 #
body $-1 $17 $-1 $18 #
body $-1 $19 $-1 $20 #
body $-1 $21 $-1 $22 #
body $-1 $23 $-1 $24 #
body $-1 $25 $-1 $26 #
lump $-1 $-1 $27 $0 #
transform $-1 1 0 0 0 1 0 0 0 1 54.5524460585345 31.923511396459645 10.980179769021245 1 rotate no_reflect no_shear #
lump $-1 $-1 $28 $1 #
transform $-1 1 0 0 0 1 0 0 0 1 54.5524460585345 31.923511396459645 10.980179769021245 1 rotate no_reflect no_shear #
lump $-1 $-1 $29 $2 #
transform $-1 1 0 0 0 1 0 0 0 1 54.5524460585345 31.923511396459645 10.980179769021245 1 rotate no_reflect no_shear #
lump $-1 $-1 $30 $3 #
transform $-1 1 0 0 0 1 0 0 0 1 54.5524460585345 31.923511396459645 10.980179769021245 1 rotate no_reflect no_shear #
lump $-1 $-1 $31 $4 #
transform $-1 1 0 0 0 1 0 0 0 1 54.5524460585345 31.923511396459645 10.980179769021245 1 rotate no_reflect no_shear #
lump $-1 $-1 $32 $5 #
transform $-1 1 0 0 0 1 0 0 0 1 54.5524460585345 31.923511396459645 10.980179769021245 1 rotate no_reflect no_shear #
lump $-1 $-1 $33 $6 #
transform $-1 1 0 0 0 1 0 0 0 1 54.5524460585345 31.923511396459645 10.980179769021245 1 rotate no_reflect no_shear #
lump $-1 $-1 $34 $7 #
transform $-1 1 0 0 0 1 0 0 0 1 54.5524460585345 31.923511396459645 10.980179769021245 1 rotate no_reflect no_shear #
lump $-1 $-1 $35 $8 #
transform $-1 1 0 0 0 1 0 0 0 1 54.5524460585345 31.923511396459645 10.980179769021245 1 rotate no_reflect no_shear #
shell $-1 $-1 $-1 $36 $-1 $9 #
shell $-1 $-1 $-1 $37 $-1 $11 #
shell $-1 $-1 $-1 $38 $-1 $13 #
shell $-1 $-1 $-1 $39 $-1 $15 #
shell $-1 $-1 $-1 $40 $-1 $17 #
shell $-1 $-1 $-1 $41 $-1 $19 #
shell $-1 $-1 $-1 $42 $-1 $21 #
shell $-1 $-1 $-1 $43 $-1 $23 #
shell $-1 $-1 $-1 $44 $-1 $25 #
face $-1 $45 $46 $27 $-1 $47 forward single #
face $-1 $48 $49 $28 $-1 $50 forward single #
face $-1 $51 $52 $29 $-1 $53 reversed single #
face $-1 $54 $55 $30 $-1 $56 forward single #
face $-1 $57 $58 $31 $-1 $59 forward single #
face $-1 $60 $61 $32 $-1 $62 forward single #
face $-1 $63 $64 $33 $-1 $65 reversed single #
face $-1 $66 $67 $34 $-1 $68 forward single #
face $-1 $69 $70 $35 $-1 $71 forward single #
face $-1 $72 $73 $27 $-1 $74 reversed single #
loop $-1 $-1 $75 $36 #
plane-surface $-1 0 0 10.980179769021245 0 0 1 1 0 0 forward_v I I I I #
face $-1 $76 $77 $28 $-1 $78 reversed single #
loop $-1 $-1 $79 $37 #
plane-surface $-1 -54.5524460585345 0 0 1 0 0 0 0 -1 forward_v I I I I #
face $-1 $80 $81 $29 $-1 $82 reversed single #
loop $-1 $-1 $83 $38 #
plane-surface $-1 -16.204446103536874 -100.58544562163776 90.436487411387233 -1 0 0 0 -0.62932039886446345 0.77714595512881146 forward_v I I I I #
face $-1 $84 $85 $30 $-1 $86 forward single #
loop $-1 $87 $88 $39 #
cone-surface $-1 -35.430737387910192 -27.422750973469331 6.8223320508381944 0 0.62932039886446345 -0.77714595512881146 1 0 0 1 I I 0 1 1 forward I I I I #
face $-1 $89 $90 $31 $-1 $91 forward single #
loop $-1 $92 $93 $40 #
cone-surface $-1 -28.220878156270196 -27.422750973469331 6.8223320508381944 0 0.62932039886446345 -0.77714595512881146 1 0 0 1 I I 0 1 1 forward I I I I #
face $-1 $94 $95 $32 $-1 $96 forward single #
loop $-1 $97 $98 $41 #
cone-surface $-1 -21.0110189246302 -27.422750973469331 6.8223320508381944 0 0.62932039886446345 -0.77714595512881146 1 0 0 1 I I 0 1 1 forward I I I I #
face $-1 $99 $100 $33 $-1 $101 reversed single #
loop $-1 $-1 $102 $42 #
plane-surface $-1 15.65633068605451 72.37860446202663 120.13198488685399 1 0 0 0 -0.75470958851134928 -0.65605901945558964 forward_v I I I I #
face $-1 $103 $104 $34 $-1 $105 forward single #
loop $-1 $106 $107 $43 #
cone-surface $-1 23.515190771930392 25.175118289640182 3.8172485406921508 0 -0.75470958851134928 -0.65605901945558964 1.5 0 0 1 I I 0 1 1.5 forward I I I I #
face $-1 $108 $109 $35 $-1 $110 forward single #
loop $-1 $111 $112 $44 #
cone-surface $-1 35.303480900744205 25.175118289640182 3.8172485406921508 0 -0.75470958851134928 -0.65605901945558964 1.5 0 0 1 I I 0 1 1.5 forward I I I I #
face $-1 $113 $114 $27 $-1 $115 reversed single #
loop $-1 $-1 $116 $45 #
plane-surface $-1 0 0 -10.980179769021245 0 0 1 1 0 0 forward_v I I I I #
coedge $-1 $117 $118 $119 $120 forward $46 $-1 #
face $-1 $121 $122 $28 $-1 $123 forward single #
loop $-1 $-1 $124 $48 #
plane-surface $-1 0 31.923511396459645 0 0 -1 0 0 0 -1 forward_v I I I I #
coedge $-1 $125 $126 $127 $128 forward $49 $-1 #
face $-1 $129 $130 $29 $-1 $131 reversed single #
loop $-1 $-1 $132 $51 #
plane-surface $-1 -28.220878156270196 -31.923511396459645 5.6460618178417121 0 -0.62932039886446345 0.77714595512881146 1 0 0 forward_v I I I I #
coedge $-1 $133 $134 $135 $136 reversed $52 $-1 #
face $-1 $-1 $137 $30 $-1 $138 forward single #
loop $-1 $139 $140 $54 #
cone-surface $-1 -35.430737387910192 -25.900873828597351 4.9429703306805042 0 0.62932039886446345 -0.77714595512881146 0.5 0 0 1 I I -0.70710678118654746 0.70710678118654746 0.5 forward I I I I #
loop $-1 $-1 $141 $39 #
coedge $-1 $88 $88 $142 $143 reversed $55 $-1 #
face $-1 $-1 $144 $31 $-1 $145 forward single #
loop $-1 $146 $147 $57 #
cone-surface $-1 -28.220878156270196 -25.900873828597351 4.9429703306805042 0 0.62932039886446345 -0.77714595512881146 0.5 0 0 1 I I -0.70710678118654746 0.70710678118654746 0.5 forward I I I I #
loop $-1 $-1 $148 $40 #
coedge $-1 $93 $93 $149 $150 reversed $58 $-1 #
face $-1 $-1 $151 $32 $-1 $152 forward single #
loop $-1 $153 $154 $60 #
cone-surface $-1 -21.0110189246302 -25.900873828597351 4.9429703306805042 0 0.62932039886446345 -0.77714595512881146 0.5 0 0 1 I I -0.70710678118654746 0.70710678118654746 0.5 forward I I I I #
loop $-1 $-1 $155 $41 #
coedge $-1 $98 $98 $156 $157 reversed $61 $-1 #
face $-1 $158 $159 $33 $-1 $160 reversed single #
loop $-1 $-1 $161 $63 #
plane-surface $-1 29.409335836337291 -9.9639037722216699 48.552736346721801 0 0.75470958851134928 0.65605901945558964 1 0 0 forward_v I I I I #
coedge $-1 $162 $163 $164 $165 reversed $64 $-1 #
face $-1 $-1 $166 $34 $-1 $167 forward single #
loop $-1 $168 $169 $66 #
cone-surface $-1 23.515190771930392 22.473738423050207 1.4689749087805062 0 -0.75470958851134928 -0.65605901945558964 0.75 0 0 1 I I -0.70710678118654757 0.70710678118654757 0.75 forward I I I I #
loop $-1 $-1 $170 $43 #
coedge $-1 $107 $107 $171 $172 reversed $67 $-1 #
face $-1 $-1 $173 $35 $-1 $174 forward single #
loop $-1 $175 $176 $69 #
cone-surface $-1 35.303480900744205 22.473738423050207 1.4689749087805062 0 -0.75470958851134928 -0.65605901945558964 0.75 0 0 1 I I -0.70710678118654757 0.70710678118654757 0.75 forward I I I I #
loop $-1 $-1 $177 $44 #
coedge $-1 $112 $112 $178 $179 reversed $70 $-1 #
face $-1 $180 $181 $27 $-1 $182 reversed single #
loop $-1 $-1 $183 $72 #
plane-surface $-1 0 -31.923511396459645 0 0 1 0 0 0 1 forward_v I I I I #
coedge $-1 $184 $185 $186 $187 forward $73 $-1 #
coedge $-1 $188 $75 $189 $190 forward $46 $-1 #
coedge $-1 $75 $188 $191 $192 forward $46 $-1 #
coedge $-1 $193 $194 $75 $120 reversed $195 $-1 #
edge $-1 $196 -31.923511396459645 $197 31.923511396459645 $119 $198 forward 7 unknown #
face $-1 $199 $200 $28 $-1 $201 reversed single #
loop $-1 $-1 $127 $76 #
plane-surface $-1 -61.710013983299987 0 -5.6665193607638544 0 0 1 1 0 0 forward_v I I I I #
coedge $-1 $202 $203 $126 $204 forward $77 $-1 #
coedge $-1 $205 $79 $206 $207 reversed $49 $-1 #
coedge $-1 $79 $205 $124 $204 reversed $49 $-1 #
coedge $-1 $208 $209 $79 $128 reversed $122 $-1 #
edge $-1 $210 -31.923511396459645 $211 31.923511396459645 $127 $212 forward 7 unknown #
face $-1 $213 $214 $29 $-1 $215 reversed single #
loop $-1 $-1 $216 $80 #
plane-surface $-1 -40.237310209003518 -100.58544562163776 90.436487411387233 1 0 0 0 0.62932039886446345 -0.77714595512881146 forward_v I I I I #
coedge $-1 $217 $218 $219 $220 reversed $81 $-1 #
coedge $-1 $134 $83 $221 $222 reversed $52 $-1 #
coedge $-1 $83 $133 $217 $223 reversed $52 $-1 #
coedge $-1 $219 $224 $83 $136 forward $225 $-1 #
edge $-1 $226 18.369211414359235 $227 24.956298369460377 $135 $228 forward 7 unknown #
loop $-1 $-1 $142 $84 #
plane-surface $-1 -28.220878156270196 -31.923511396459645 5.6460618178417121 0 -0.62932039886446345 0.77714595512881146 1 0 0 forward_v I I I I #
loop $-1 $-1 $229 $54 #
coedge $-1 $140 $140 $141 $230 reversed $85 $-1 #
coedge $-1 $141 $141 $140 $230 forward $87 $-1 #
coedge $-1 $142 $142 $88 $143 forward $137 $-1 #
edge $-1 $231 1.1178975946969833e-015 $231 6.2831853071796013 $142 $232 forward 7 unknown #
loop $-1 $-1 $149 $89 #
plane-surface $-1 -28.220878156270196 -31.923511396459645 5.6460618178417121 0 -0.62932039886446345 0.77714595512881146 1 0 0 forward_v I I I I #
loop $-1 $-1 $233 $57 #
coedge $-1 $147 $147 $148 $234 reversed $90 $-1 #
coedge $-1 $148 $148 $147 $234 forward $92 $-1 #
coedge $-1 $149 $149 $93 $150 forward $144 $-1 #
edge $-1 $235 1.1178975946969833e-015 $235 6.2831853071796013 $149 $236 forward 7 unknown #
loop $-1 $-1 $156 $94 #
plane-surface $-1 -28.220878156270196 -31.923511396459645 5.6460618178417121 0 -0.62932039886446345 0.77714595512881146 1 0 0 forward_v I I I I #
loop $-1 $-1 $237 $60 #
coedge $-1 $154 $154 $155 $238 reversed $95 $-1 #
coedge $-1 $155 $155 $154 $238 forward $97 $-1 #
coedge $-1 $156 $156 $98 $157 forward $151 $-1 #
edge $-1 $239 1.1178975946969833e-015 $239 6.2831853071796013 $156 $240 forward 7 unknown #
face $-1 $241 $242 $33 $-1 $243 forward single #
loop $-1 $-1 $244 $99 #
plane-surface $-1 43.162340986620073 72.37860446202663 120.13198488685399 -1 0 0 0 0.75470958851134928 0.65605901945558964 forward_v I I I I #
coedge $-1 $245 $246 $247 $248 reversed $100 $-1 #
coedge $-1 $163 $102 $249 $250 reversed $64 $-1 #
coedge $-1 $102 $162 $245 $251 reversed $64 $-1 #
coedge $-1 $247 $252 $102 $165 forward $242 $-1 #
edge $-1 $253 4.2657908345536697 $254 13.491881697779696 $164 $255 forward 7 unknown #
loop $-1 $-1 $171 $103 #
plane-surface $-1 29.409335836337291 -9.9639037722216699 48.552736346721801 0 0.75470958851134928 0.65605901945558964 1 0 0 forward_v I I I I #
loop $-1 $-1 $256 $66 #
coedge $-1 $169 $169 $170 $257 reversed $104 $-1 #
coedge $-1 $170 $170 $169 $257 forward $106 $-1 #
coedge $-1 $171 $171 $107 $172 forward $166 $-1 #
edge $-1 $258 -1.3610586610165239e-015 $258 6.2831853071795987 $171 $259 forward 7 unknown #
loop $-1 $-1 $178 $108 #
plane-surface $-1 29.409335836337291 -9.9639037722216699 48.552736346721801 0 0.75470958851134928 0.65605901945558964 1 0 0 forward_v I I I I #
loop $-1 $-1 $260 $69 #
coedge $-1 $176 $176 $177 $261 reversed $109 $-1 #
coedge $-1 $177 $177 $176 $261 forward $111 $-1 #
coedge $-1 $178 $178 $112 $179 forward $173 $-1 #
edge $-1 $262 -1.3610586610165239e-015 $262 6.2831853071795987 $178 $263 forward 7 unknown #
face $-1 $264 $265 $27 $-1 $266 reversed single #
loop $-1 $-1 $267 $113 #
plane-surface $-1 -54.5524460585345 0 0 1 0 0 0 0 -1 forward_v I I I I #
coedge $-1 $268 $191 $267 $269 forward $114 $-1 #
coedge $-1 $270 $116 $268 $271 forward $73 $-1 #
coedge $-1 $116 $270 $272 $273 forward $73 $-1 #
coedge $-1 $194 $193 $116 $187 reversed $195 $-1 #
edge $-1 $274 -31.923511396459645 $275 31.923511396459645 $186 $276 forward 7 unknown #
coedge $-1 $118 $117 $277 $278 forward $46 $-1 #
coedge $-1 $279 $280 $117 $190 reversed $265 $-1 #
edge $-1 $197 -54.5524460585345 $281 54.5524460585345 $189 $282 forward 7 unknown #
coedge $-1 $183 $283 $118 $192 reversed $114 $-1 #
edge $-1 $284 -54.5524460585345 $196 54.5524460585345 $191 $285 forward 7 unknown #
coedge $-1 $186 $119 $283 $286 forward $195 $-1 #
coedge $-1 $119 $186 $279 $287 reversed $195 $-1 #
loop $-1 $-1 $193 $264 #
vertex $-1 $120 $288 #
vertex $-1 $120 $289 #
straight-curve $-1 54.5524460585345 0 10.980179769021245 0 1 0 I I #
face $-1 $290 $291 $28 $-1 $292 reversed single #
loop $-1 $-1 $293 $121 #
plane-surface $-1 -68.867581908065475 0 -8.3233495648925491 1 0 0 0 0 -1 forward_v I I I I #
coedge $-1 $294 $124 $295 $296 reversed $77 $-1 #
coedge $-1 $124 $294 $208 $297 reversed $77 $-1 #
edge $-1 $210 5.6665193607638544 $298 10.980179769021245 $124 $299 forward 7 unknown #
coedge $-1 $126 $125 $300 $301 reversed $49 $-1 #
coedge $-1 $302 $303 $125 $207 forward $304 $-1 #
edge $-1 $305 -10.980179769021245 $211 -5.6665193607638544 $206 $306 forward 7 unknown #
coedge $-1 $307 $127 $203 $297 forward $122 $-1 #
coedge $-1 $127 $307 $302 $308 forward $122 $-1 #
vertex $-1 $204 $309 #
vertex $-1 $308 $310 #
straight-curve $-1 -54.5524460585345 0 -5.6665193607638544 0 -1 0 I I #
face $-1 $-1 $225 $29 $-1 $311 forward single #
loop $-1 $-1 $312 $129 #
plane-surface $-1 0 -31.923511396459645 0 0 1 0 0 0 1 forward_v I I I I #
coedge $-1 $313 $314 $315 $316 reversed $130 $-1 #
coedge $-1 $317 $132 $134 $223 forward $81 $-1 #
coedge $-1 $132 $317 $313 $318 forward $81 $-1 #
coedge $-1 $315 $135 $132 $220 forward $225 $-1 #
edge $-1 $227 2.0940070254017762 $319 26.12687113086842 $219 $320 forward 7 unknown #
coedge $-1 $321 $322 $133 $222 forward $214 $-1 #
edge $-1 $323 -39.572181887851904 $226 -34.238063936672376 $221 $324 forward 7 unknown #
edge $-1 $227 -8.4759972198650111 $323 0 $134 $325 forward 7 unknown #
coedge $-1 $135 $315 $321 $326 forward $225 $-1 #
loop $-1 $-1 $315 $213 #
vertex $-1 $222 $327 #
vertex $-1 $136 $328 #
straight-curve $-1 -16.204446103536874 -50.29272281081888 10.980179769021241 0 1 0 I I #
coedge $-1 $229 $229 $-1 $329 reversed $139 $-1 #
edge $-1 $330 0 $330 6.2831853071796004 $140 $331 forward 7 unknown #
vertex $-1 $143 $332 #
ellipse-curve $-1 -35.430737387910192 -28.629967918909074 8.3131207934314766 0 -0.62932039886446345 0.77714595512881146 1 0 0 1 I I #
coedge $-1 $233 $233 $-1 $333 reversed $146 $-1 #
edge $-1 $334 0 $334 6.2831853071796004 $147 $335 forward 7 unknown #
vertex $-1 $150 $336 #
ellipse-curve $-1 -28.220878156270196 -28.629967918909074 8.3131207934314766 0 -0.62932039886446345 0.77714595512881146 1 0 0 1 I I #
coedge $-1 $237 $237 $-1 $337 reversed $153 $-1 #
edge $-1 $338 0 $338 6.2831853071796004 $154 $339 forward 7 unknown #
vertex $-1 $157 $340 #
ellipse-curve $-1 -21.0110189246302 -28.629967918909074 8.3131207934314766 0 -0.62932039886446345 0.77714595512881146 1 0 0 1 I I #
face $-1 $-1 $341 $33 $-1 $342 reversed single #
loop $-1 $-1 $164 $158 #
plane-surface $-1 0 0 10.980179769021245 0 0 1 1 0 0 forward_v I I I I #
coedge $-1 $343 $344 $345 $346 reversed $159 $-1 #
coedge $-1 $347 $161 $163 $251 forward $100 $-1 #
coedge $-1 $161 $347 $343 $348 forward $100 $-1 #
coedge $-1 $345 $164 $161 $248 forward $242 $-1 #
edge $-1 $254 0.95166276788586401 $349 28.457673068451427 $247 $350 forward 7 unknown #
coedge $-1 $351 $352 $162 $250 forward $341 $-1 #
edge $-1 $353 -59.699216396424049 $253 -49.085812674405744 $249 $354 forward 7 unknown #
edge $-1 $254 49.784125112033799 $353 63.847022792919297 $163 $355 forward 7 unknown #
coedge $-1 $164 $345 $351 $356 forward $242 $-1 #
vertex $-1 $250 $357 #
vertex $-1 $165 $358 #
straight-curve $-1 15.65633068605451 36.189302231013315 10.980179769021248 0 -1 0 I I #
coedge $-1 $256 $256 $-1 $359 reversed $168 $-1 #
edge $-1 $360 0 $360 6.2831853071796004 $169 $361 forward 7 unknown #
vertex $-1 $172 $362 #
ellipse-curve $-1 23.515190771930392 27.310465964846632 5.6734779080120941 0 0.75470958851134928 0.65605901945558964 1.5 0 0 1 I I #
coedge $-1 $260 $260 $-1 $363 reversed $175 $-1 #
edge $-1 $364 0 $364 6.2831853071796004 $176 $365 forward 7 unknown #
vertex $-1 $179 $366 #
ellipse-curve $-1 35.303480900744205 27.310465964846632 5.6734779080120941 0 0.75470958851134928 0.65605901945558964 1.5 0 0 1 I I #
face $-1 $-1 $195 $27 $-1 $367 reversed single #
loop $-1 $-1 $279 $180 #
plane-surface $-1 0 31.923511396459645 0 0 -1 0 0 0 -1 forward_v I I I I #
coedge $-1 $277 $368 $183 $269 reversed $181 $-1 #
coedge $-1 $283 $183 $184 $271 reversed $114 $-1 #
edge $-1 $284 -10.980179769021245 $369 10.980179769021245 $267 $370 forward 7 unknown #
coedge $-1 $185 $184 $368 $371 forward $73 $-1 #
edge $-1 $275 -54.5524460585345 $369 54.5524460585345 $268 $372 forward 7 unknown #
coedge $-1 $280 $279 $185 $273 reversed $265 $-1 #
edge $-1 $373 -54.5524460585345 $274 54.5524460585345 $272 $374 forward 7 unknown #
vertex $-1 $187 $375 #
vertex $-1 $286 $376 #
straight-curve $-1 54.5524460585345 0 -10.980179769021245 0 -1 0 I I #
coedge $-1 $377 $267 $188 $278 reversed $181 $-1 #
edge $-1 $281 -31.923511396459645 $284 31.923511396459645 $277 $378 forward 7 unknown #
coedge $-1 $272 $189 $194 $287 forward $265 $-1 #
coedge $-1 $189 $272 $377 $379 reversed $265 $-1 #
vertex $-1 $190 $380 #
straight-curve $-1 0 31.923511396459645 10.980179769021245 -1 0 0 I I #
coedge $-1 $191 $268 $193 $286 reversed $114 $-1 #
vertex $-1 $278 $381 #
straight-curve $-1 0 -31.923511396459645 10.980179769021245 1 0 0 I I #
edge $-1 $196 -10.980179769021245 $275 10.980179769021245 $193 $382 forward 7 unknown #
edge $-1 $197 -10.980179769021245 $274 10.980179769021245 $194 $383 forward 7 unknown #
point $-1 54.5524460585345 -31.923511396459645 10.980179769021245 #
point $-1 54.5524460585345 31.923511396459645 10.980179769021245 #
face $-1 $-1 $304 $28 $-1 $384 reversed single #
loop $-1 $-1 $300 $199 #
plane-surface $-1 0 0 -10.980179769021245 0 0 1 1 0 0 forward_v I I I I #
coedge $-1 $385 $386 $294 $387 forward $200 $-1 #
coedge $-1 $203 $202 $293 $387 reversed $77 $-1 #
coedge $-1 $300 $388 $202 $296 forward $291 $-1 #
edge $-1 $389 -68.867581908065475 $298 -54.5524460585345 $202 $390 forward 7 unknown #
edge $-1 $210 -7.1575679247654875 $391 7.1575679247654875 $203 $392 forward 7 unknown #
vertex $-1 $204 $393 #
straight-curve $-1 -54.5524460585345 31.923511396459645 0 0 0 -1 I I #
coedge $-1 $394 $295 $205 $301 forward $291 $-1 #
edge $-1 $298 -31.923511396459645 $305 31.923511396459645 $300 $395 forward 7 unknown #
coedge $-1 $396 $206 $209 $308 reversed $304 $-1 #
coedge $-1 $206 $396 $394 $397 reversed $304 $-1 #
loop $-1 $-1 $206 $290 #
vertex $-1 $397 $398 #
straight-curve $-1 -54.5524460585345 -31.923511396459645 0 0 0 1 I I #
coedge $-1 $209 $208 $386 $399 forward $122 $-1 #
edge $-1 $400 -7.1575679247654875 $211 7.1575679247654875 $302 $401 forward 7 unknown #
point $-1 -54.5524460585345 31.923511396459645 -5.6665193607638544 #
point $-1 -54.5524460585345 -31.923511396459645 -5.6665193607638544 #
plane-surface $-1 0 0 10.980179769021245 0 0 1 1 0 0 forward_v I I I I #
coedge $-1 $322 $321 $314 $402 forward $214 $-1 #
coedge $-1 $314 $216 $218 $318 reversed $130 $-1 #
coedge $-1 $216 $313 $312 $402 reversed $130 $-1 #
coedge $-1 $224 $219 $216 $316 forward $225 $-1 #
edge $-1 $319 -24.956298369460377 $403 -18.369211414359235 $315 $404 forward 7 unknown #
coedge $-1 $218 $217 $322 $405 reversed $81 $-1 #
edge $-1 $406 0 $319 8.4759972198650111 $313 $407 forward 7 unknown #
vertex $-1 $220 $408 #
straight-curve $-1 -14.110439078135098 -25.336424441358499 10.980179769021245 -1 0 0 I I #
coedge $-1 $312 $221 $224 $326 reversed $214 $-1 #
coedge $-1 $221 $312 $317 $405 forward $214 $-1 #
vertex $-1 $222 $409 #
straight-curve $-1 -16.204446103536874 -31.923511396459645 45.218243705693617 0 0 1 I I #
straight-curve $-1 -16.204446103536874 -31.923511396459645 5.6460618178417121 0 -0.77714595512881146 -0.62932039886446345 I I #
edge $-1 $403 -40.237310209003518 $226 -16.204446103536874 $321 $410 forward 7 unknown #
point $-1 -16.204446103536874 -31.923511396459645 10.980179769021245 #
point $-1 -16.204446103536874 -25.336424441358503 10.980179769021245 #
edge $-1 $411 1 $411 0 $229 $-1 forward 7 unknown #
vertex $-1 $230 $412 #
ellipse-curve $-1 -35.430737387910192 -26.215534028029584 5.3315433082449095 0 -0.62932039886446345 0.77714595512881146 1 0 0 1 I I #
point $-1 -34.430737387910192 -28.629967918909074 8.3131207934314784 #
edge $-1 $413 1 $413 0 $233 $-1 forward 7 unknown #
vertex $-1 $234 $414 #
ellipse-curve $-1 -28.220878156270196 -26.215534028029584 5.3315433082449095 0 -0.62932039886446345 0.77714595512881146 1 0 0 1 I I #
point $-1 -27.220878156270196 -28.629967918909074 8.3131207934314784 #
edge $-1 $415 1 $415 0 $237 $-1 forward 7 unknown #
vertex $-1 $238 $416 #
ellipse-curve $-1 -21.0110189246302 -26.215534028029584 5.3315433082449095 0 -0.62932039886446345 0.77714595512881146 1 0 0 1 I I #
point $-1 -20.0110189246302 -28.629967918909074 8.3131207934314784 #
loop $-1 $-1 $249 $241 #
plane-surface $-1 0 31.923511396459645 0 0 -1 0 0 0 -1 forward_v I I I I #
coedge $-1 $344 $244 $246 $348 reversed $159 $-1 #
coedge $-1 $244 $343 $417 $418 reversed $159 $-1 #
coedge $-1 $252 $247 $244 $346 forward $242 $-1 #
edge $-1 $349 -13.491881697779696 $419 -4.2657908345536697 $345 $420 forward 7 unknown #
coedge $-1 $246 $245 $352 $421 reversed $100 $-1 #
edge $-1 $422 -63.847022792919297 $349 -49.784125112033799 $343 $423 forward 7 unknown #
vertex $-1 $248 $424 #
straight-curve $-1 14.704667918168646 22.697420533233618 10.980179769021245 1 0 0 I I #
coedge $-1 $417 $249 $252 $356 reversed $341 $-1 #
coedge $-1 $249 $417 $347 $421 forward $341 $-1 #
vertex $-1 $250 $425 #
straight-curve $-1 15.65633068605451 31.923511396459645 60.065992443426993 0 0 1 I I #
straight-curve $-1 15.65633068605451 -9.9639037722216699 48.552736346721801 0 0.65605901945558964 -0.75470958851134928 I I #
edge $-1 $419 -43.162340986620073 $253 -15.65633068605451 $351 $426 forward 7 unknown #
point $-1 15.65633068605451 31.923511396459645 10.980179769021245 #
point $-1 15.65633068605451 22.697420533233618 10.980179769021248 #
edge $-1 $427 1 $427 0 $256 $-1 forward 7 unknown #
vertex $-1 $257 $428 #
ellipse-curve $-1 23.515190771930392 23.039770614433721 1.9610191733721984 0 0.75470958851134928 0.65605901945558964 1.5 0 0 1 I I #
point $-1 25.015190771930392 27.310465964846639 5.6734779080121029 #
edge $-1 $429 1 $429 0 $260 $-1 forward 7 unknown #
vertex $-1 $261 $430 #
ellipse-curve $-1 35.303480900744205 23.039770614433721 1.9610191733721984 0 0.75470958851134928 0.65605901945558964 1.5 0 0 1 I I #
point $-1 36.803480900744205 27.310465964846639 5.6734779080121029 #
plane-surface $-1 54.5524460585345 0 0 -1 0 0 0 0 1 forward_v I I I I #
coedge $-1 $267 $377 $270 $371 reversed $181 $-1 #
vertex $-1 $371 $431 #
straight-curve $-1 -54.5524460585345 -31.923511396459645 0 0 0 -1 I I #
edge $-1 $369 -31.923511396459645 $373 31.923511396459645 $368 $432 forward 7 unknown #
straight-curve $-1 0 -31.923511396459645 -10.980179769021245 -1 0 0 I I #
vertex $-1 $273 $433 #
straight-curve $-1 0 31.923511396459645 -10.980179769021245 1 0 0 I I #
point $-1 54.5524460585345 31.923511396459645 -10.980179769021245 #
point $-1 54.5524460585345 -31.923511396459645 -10.980179769021245 #
coedge $-1 $368 $277 $280 $379 forward $181 $-1 #
straight-curve $-1 -54.5524460585345 0 10.980179769021245 0 -1 0 I I #
edge $-1 $281 -10.980179769021245 $373 10.980179769021245 $280 $434 forward 7 unknown #
point $-1 -54.5524460585345 31.923511396459645 10.980179769021245 #
point $-1 -54.5524460585345 -31.923511396459645 10.980179769021245 #
straight-curve $-1 54.5524460585345 -31.923511396459645 0 0 0 -1 I I #
straight-curve $-1 54.5524460585345 31.923511396459645 0 0 0 -1 I I #
plane-surface $-1 0 -31.923511396459645 0 0 1 0 0 0 1 forward_v I I I I #
coedge $-1 $435 $293 $388 $436 reversed $200 $-1 #
coedge $-1 $293 $435 $307 $399 reversed $200 $-1 #
edge $-1 $391 -2.6568302041286946 $389 2.6568302041286955 $294 $437 forward 7 unknown #
coedge $-1 $295 $394 $385 $436 forward $291 $-1 #
vertex $-1 $296 $438 #
straight-curve $-1 0 31.923511396459645 -10.980179769021245 1 0 0 I I #
vertex $-1 $297 $439 #
straight-curve $-1 -61.710013983299987 31.923511396459645 -5.6665193607638544 -1 0 0 I I #
point $-1 -54.5524460585345 31.923511396459645 -10.980179769021245 #
coedge $-1 $388 $300 $303 $397 forward $291 $-1 #
straight-curve $-1 -54.5524460585345 0 -10.980179769021245 0 -1 0 I I #
coedge $-1 $303 $302 $435 $440 forward $304 $-1 #
edge $-1 $305 -7.1575679247654875 $441 7.1575679247654875 $303 $442 forward 7 unknown #
point $-1 -54.5524460585345 -31.923511396459645 -10.980179769021245 #
edge $-1 $391 -31.923511396459645 $400 31.923511396459645 $386 $443 forward 7 unknown #
vertex $-1 $399 $444 #
straight-curve $-1 -61.710013983299987 -31.923511396459645 -5.6665193607638544 1 0 0 I I #
edge $-1 $403 34.238063936672376 $406 39.572181887851904 $312 $445 forward 7 unknown #
vertex $-1 $326 $446 #
straight-curve $-1 -40.237310209003518 -50.29272281081888 10.980179769021241 0 -1 0 I I #
edge $-1 $406 -26.12687113086842 $323 -2.0940070254017762 $322 $447 forward 7 unknown #
vertex $-1 $405 $448 #
straight-curve $-1 -40.237310209003518 -31.923511396459645 5.6460618178417121 0 0.77714595512881146 0.62932039886446345 I I #
point $-1 -40.237310209003518 -25.336424441358503 10.980179769021245 #
point $-1 -16.204446103536874 -31.923511396459645 5.6460618178417121 #
straight-curve $-1 0 -31.923511396459645 10.980179769021245 1 0 0 I I #
vertex $-1 $329 $449 #
point $-1 -34.430737387910192 -26.215534028029584 5.3315433082449095 #
vertex $-1 $333 $450 #
point $-1 -27.220878156270196 -26.215534028029584 5.3315433082449095 #
vertex $-1 $337 $451 #
point $-1 -20.0110189246302 -26.215534028029584 5.3315433082449095 #
coedge $-1 $352 $351 $344 $418 forward $341 $-1 #
edge $-1 $419 49.085812674405744 $422 59.699216396424049 $417 $452 forward 7 unknown #
vertex $-1 $356 $453 #
straight-curve $-1 43.162340986620073 36.189302231013315 10.980179769021248 0 1 0 I I #
edge $-1 $422 -28.457673068451427 $353 -0.95166276788586401 $352 $454 forward 7 unknown #
vertex $-1 $421 $455 #
straight-curve $-1 43.162340986620073 -9.9639037722216699 48.552736346721801 0 -0.65605901945558964 0.75470958851134928 I I #
point $-1 43.162340986620073 22.697420533233618 10.980179769021248 #
point $-1 15.65633068605451 31.923511396459645 0.36677604700294353 #
straight-curve $-1 0 31.923511396459645 10.980179769021245 -1 0 0 I I #
vertex $-1 $359 $456 #
point $-1 25.015190771930392 23.039770614433721 1.9610191733721984 #
vertex $-1 $363 $457 #
point $-1 36.803480900744205 23.039770614433721 1.9610191733721984 #
point $-1 -54.5524460585345 -31.923511396459645 -10.980179769021245 #
straight-curve $-1 -54.5524460585345 0 -10.980179769021245 0 1 0 I I #
point $-1 -54.5524460585345 31.923511396459645 -10.980179769021245 #
straight-curve $-1 -54.5524460585345 31.923511396459645 0 0 0 -1 I I #
coedge $-1 $386 $385 $396 $440 reversed $200 $-1 #
edge $-1 $441 -31.923511396459645 $389 31.923511396459645 $385 $458 forward 7 unknown #
straight-curve $-1 -68.867581908065475 31.923511396459645 -8.3233495648925491 0 0 -1 I I #
point $-1 -68.867581908065475 31.923511396459645 -10.980179769021245 #
point $-1 -68.867581908065475 31.923511396459645 -5.6665193607638544 #
edge $-1 $400 -2.6568302041286946 $441 2.6568302041286955 $435 $459 forward 7 unknown #
vertex $-1 $436 $460 #
straight-curve $-1 -61.710013983299987 -31.923511396459645 -10.980179769021245 -1 0 0 I I #
straight-curve $-1 -68.867581908065475 0 -5.6665193607638544 0 -1 0 I I #
point $-1 -68.867581908065475 -31.923511396459645 -5.6665193607638544 #
straight-curve $-1 -40.237310209003518 -31.923511396459645 45.218243705693617 0 0 -1 I I #
point $-1 -40.237310209003518 -31.923511396459645 10.980179769021245 #
straight-curve $-1 -14.110439078135098 -31.923511396459645 5.6460618178417112 1 0 0 I I #
point $-1 -40.237310209003518 -31.923511396459645 5.6460618178417121 #
point $-1 -35.430737387910192 -25.586213629165119 4.5543973531160988 #
point $-1 -28.220878156270196 -25.586213629165119 4.5543973531160988 #
point $-1 -21.0110189246302 -25.586213629165119 4.5543973531160988 #
straight-curve $-1 43.162340986620073 31.923511396459645 60.065992443426993 0 0 -1 I I #
point $-1 43.162340986620073 31.923511396459645 10.980179769021245 #
straight-curve $-1 14.704667918168646 31.923511396459645 0.36677604700293998 -1 0 0 I I #
point $-1 43.162340986620073 31.923511396459645 0.36677604700294353 #
point $-1 23.515190771930392 21.907706231666694 0.97693064418881392 #
point $-1 35.303480900744205 21.907706231666694 0.97693064418881392 #
straight-curve $-1 -68.867581908065475 0 -10.980179769021245 0 1 0 I I #
straight-curve $-1 -68.867581908065475 -31.923511396459645 -8.3233495648925491 0 0 -1 I I #
point $-1 -68.867581908065475 -31.923511396459645 -10.980179769021245 #
End-of-ACIS-data 