500 0 10 0           
7 Unknown 11 ACIS 5.0 NT 24 Fri Mar 26 18:11:35 1999 
-1 9.9999999999999995e-007 1e-010 
body $-1 $10 $-1 $11 #
body $-1 $12 $-1 $13 #
body $-1 $14 $-1 $15 #
body $-1 $16 $-1 $17 #
body $-1 $18 $-1 $19 #
body $-1 $20 $-1 $21 #
body $-1 $22 $-1 $23 #
body $-1 $24 $-1 $25 #
body $-1 $26 $-1 $27 #
body $-1 $28 $-1 $29 #
lump $-1 $-1 $30 $0 #
transform $-1 1 0 0 0 1 0 0 0 1 54.872280037842955 25.27822443138632 7.7713163131203116 1 rotate no_reflect no_shear #
lump $-1 $-1 $31 $1 #
transform $-1 1 0 0 0 1 0 0 0 1 54.872280037842955 25.27822443138632 7.7713163131203116 1 rotate no_reflect no_shear #
lump $-1 $-1 $32 $2 #
transform $-1 1 0 0 0 1 0 0 0 1 54.872280037842955 25.27822443138632 7.7713163131203116 1 rotate no_reflect no_shear #
lump $-1 $-1 $33 $3 #
transform $-1 1 0 0 0 1 0 0 0 1 54.872280037842955 25.27822443138632 7.7713163131203116 1 rotate no_reflect no_shear #
lump $-1 $-1 $34 $4 #
transform $-1 1 0 0 0 1 0 0 0 1 54.872280037842955 25.27822443138632 7.7713163131203116 1 rotate no_reflect no_shear #
lump $-1 $-1 $35 $5 #
transform $-1 1 0 0 0 1 0 0 0 1 54.872280037842955 25.27822443138632 7.7713163131203116 1 rotate no_reflect no_shear #
lump $-1 $-1 $36 $6 #
transform $-1 1 0 0 0 1 0 0 0 1 54.872280037842955 25.27822443138632 7.7713163131203116 1 rotate no_reflect no_shear #
lump $-1 $-1 $37 $7 #
transform $-1 1 0 0 0 1 0 0 0 1 54.872280037842955 25.27822443138632 7.7713163131203116 1 rotate no_reflect no_shear #
lump $-1 $-1 $38 $8 #
transform $-1 1 0 0 0 1 0 0 0 1 54.872280037842955 25.27822443138632 7.7713163131203116 1 rotate no_reflect no_shear #
lump $-1 $-1 $39 $9 #
transform $-1 1 0 0 0 1 0 0 0 1 54.872280037842955 25.27822443138632 7.7713163131203116 1 rotate no_reflect no_shear #
shell $-1 $-1 $-1 $40 $-1 $10 #
shell $-1 $-1 $-1 $41 $-1 $12 #
shell $-1 $-1 $-1 $42 $-1 $14 #
shell $-1 $-1 $-1 $43 $-1 $16 #
shell $-1 $-1 $-1 $44 $-1 $18 #
shell $-1 $-1 $-1 $45 $-1 $20 #
shell $-1 $-1 $-1 $46 $-1 $22 #
shell $-1 $-1 $-1 $47 $-1 $24 #
shell $-1 $-1 $-1 $48 $-1 $26 #
shell $-1 $-1 $-1 $49 $-1 $28 #
face $-1 $50 $51 $30 $-1 $52 forward single #
face $-1 $53 $54 $31 $-1 $55 forward single #
face $-1 $56 $57 $32 $-1 $58 reversed single #
face $-1 $59 $60 $33 $-1 $61 forward single #
face $-1 $62 $63 $34 $-1 $64 forward single #
face $-1 $65 $66 $35 $-1 $67 forward single #
face $-1 $68 $69 $36 $-1 $70 reversed single #
face $-1 $71 $72 $37 $-1 $73 forward single #
face $-1 $74 $75 $38 $-1 $76 forward single #
face $-1 $77 $78 $39 $-1 $79 forward single #
face $-1 $80 $81 $30 $-1 $82 reversed single #
loop $-1 $-1 $83 $40 #
plane-surface $-1 0 0 7.7713163131203116 0 0 1 1 0 0 forward_v I I I I #
face $-1 $84 $85 $31 $-1 $86 reversed single #
loop $-1 $-1 $87 $41 #
plane-surface $-1 0 -20.986834167634651 5.93319497545719 0 0 1 1 0 0 forward_v I I I I #
face $-1 $88 $89 $32 $-1 $90 reversed single #
loop $-1 $-1 $91 $42 #
plane-surface $-1 95.041579271869153 16.037197206911802 153.19743993980455 0 1 0 0.86602541151947299 0 0.49999998660252726 forward_v I I I I #
face $-1 $92 $93 $33 $-1 $94 forward single #
loop $-1 $95 $96 $43 #
cone-surface $-1 52.756706034680583 17.885402651806707 5.0539781689547816 -0.86602541151947299 0 -0.49999998660252726 0.24999999330126363 0 -0.43301270575973649 1 I I 0 1 0.5 forward I I I I #
face $-1 $97 $98 $34 $-1 $99 forward single #
loop $-1 $100 $101 $44 #
cone-surface $-1 52.756706034680583 20.657710819149059 5.0539781689547816 -0.86602541151947299 0 -0.49999998660252726 0.24999999330126363 0 -0.43301270575973649 1 I I 0 1 0.5 forward I I I I #
face $-1 $102 $103 $35 $-1 $104 forward single #
loop $-1 $105 $106 $45 #
cone-surface $-1 52.756706034680583 23.430018986491419 5.0539781689547816 -0.86602541151947299 0 -0.49999998660252726 0.24999999330126363 0 -0.43301270575973649 1 I I 0 1 0.5 forward I I I I #
face $-1 $107 $108 $36 $-1 $109 reversed single #
loop $-1 $-1 $110 $46 #
plane-surface $-1 -149.91385783941237 16.037197206911802 58.15586213823515 0 1 0 -0.86602541151947299 0 0.49999998660252726 forward_v I I I I #
face $-1 $111 $112 $37 $-1 $113 forward single #
loop $-1 $114 $115 $47 #
cone-surface $-1 -52.75670603468059 17.885402651806707 5.0539781689547905 0.86602541151947299 0 -0.49999998660252726 0.24999999330126363 0 0.43301270575973649 1 I I 0 1 0.5 forward I I I I #
face $-1 $116 $117 $38 $-1 $118 forward single #
loop $-1 $119 $120 $48 #
cone-surface $-1 -52.75670603468059 20.657710819149059 5.0539781689547905 0.86602541151947299 0 -0.49999998660252726 0.24999999330126363 0 0.43301270575973649 1 I I 0 1 0.5 forward I I I I #
face $-1 $121 $122 $39 $-1 $123 forward single #
loop $-1 $124 $125 $49 #
cone-surface $-1 -52.75670603468059 23.430018986491419 5.0539781689547905 0.86602541151947299 0 -0.49999998660252726 0.24999999330126363 0 0.43301270575973649 1 I I 0 1 0.5 forward I I I I #
face $-1 $126 $127 $30 $-1 $128 reversed single #
loop $-1 $-1 $129 $50 #
plane-surface $-1 0 0 -7.7713163131203116 0 0 1 1 0 0 forward_v I I I I #
coedge $-1 $130 $131 $132 $133 forward $51 $-1 #
face $-1 $134 $135 $31 $-1 $136 reversed single #
loop $-1 $-1 $137 $53 #
plane-surface $-1 0 -20.986834167634651 2.93319497545719 0 0 1 1 0 0 forward_v I I I I #
coedge $-1 $138 $139 $140 $141 reversed $54 $-1 #
face $-1 $142 $143 $32 $-1 $144 forward single #
loop $-1 $-1 $145 $56 #
plane-surface $-1 1.4702997361837333e-006 20.657710819149059 98.325161372261348 0.86602541151947299 0 0.49999998660252726 0.49999998660252726 0 -0.86602541151947299 forward_v I I I I #
coedge $-1 $146 $147 $148 $149 reversed $57 $-1 #
face $-1 $-1 $150 $33 $-1 $151 forward single #
loop $-1 $152 $153 $59 #
cone-surface $-1 51.720122485800715 17.885402651806707 4.455506399352811 -0.86602541151947299 0 -0.49999998660252726 0.12499999665063181 0 -0.21650635287986825 1 I I -0.70710678118654746 0.70710678118654746 0.25 forward I I I I #
loop $-1 $-1 $154 $43 #
coedge $-1 $96 $96 $155 $156 reversed $60 $-1 #
face $-1 $-1 $157 $34 $-1 $158 forward single #
loop $-1 $159 $160 $62 #
cone-surface $-1 51.720122485800715 20.657710819149059 4.455506399352811 -0.86602541151947299 0 -0.49999998660252726 0.12499999665063181 0 -0.21650635287986825 1 I I -0.70710678118654746 0.70710678118654746 0.25 forward I I I I #
loop $-1 $-1 $161 $44 #
coedge $-1 $101 $101 $162 $163 reversed $63 $-1 #
face $-1 $-1 $164 $35 $-1 $165 forward single #
loop $-1 $166 $167 $65 #
cone-surface $-1 51.720122485800715 23.430018986491419 4.455506399352811 -0.86602541151947299 0 -0.49999998660252726 0.12499999665063181 0 -0.21650635287986825 1 I I -0.70710678118654746 0.70710678118654746 0.25 forward I I I I #
loop $-1 $-1 $168 $45 #
coedge $-1 $106 $106 $169 $170 reversed $66 $-1 #
face $-1 $171 $172 $36 $-1 $173 reversed single #
loop $-1 $-1 $174 $68 #
plane-surface $-1 -54.872280037842955 20.657710819149059 3.2835835706919454 -0.86602541151947299 0 0.49999998660252726 0.49999998660252726 0 0.86602541151947299 forward_v I I I I #
coedge $-1 $175 $176 $177 $178 reversed $69 $-1 #
face $-1 $-1 $179 $37 $-1 $180 forward single #
loop $-1 $181 $182 $71 #
cone-surface $-1 -51.720122485800722 17.885402651806707 4.4555063993528199 0.86602541151947299 0 -0.49999998660252726 0.12499999665063181 0 0.21650635287986825 1 I I -0.70710678118654746 0.70710678118654746 0.25 forward I I I I #
loop $-1 $-1 $183 $47 #
coedge $-1 $115 $115 $184 $185 reversed $72 $-1 #
face $-1 $-1 $186 $38 $-1 $187 forward single #
loop $-1 $188 $189 $74 #
cone-surface $-1 -51.720122485800722 20.657710819149059 4.4555063993528199 0.86602541151947299 0 -0.49999998660252726 0.12499999665063181 0 0.21650635287986825 1 I I -0.70710678118654746 0.70710678118654746 0.25 forward I I I I #
loop $-1 $-1 $190 $48 #
coedge $-1 $120 $120 $191 $192 reversed $75 $-1 #
face $-1 $-1 $193 $39 $-1 $194 forward single #
loop $-1 $195 $196 $77 #
cone-surface $-1 -51.720122485800722 23.430018986491419 4.4555063993528199 0.86602541151947299 0 -0.49999998660252726 0.12499999665063181 0 0.21650635287986825 1 I I -0.70710678118654746 0.70710678118654746 0.25 forward I I I I #
loop $-1 $-1 $197 $49 #
coedge $-1 $125 $125 $198 $199 reversed $78 $-1 #
face $-1 $200 $201 $30 $-1 $202 reversed single #
loop $-1 $-1 $203 $80 #
plane-surface $-1 0 -25.27822443138632 0 0 1 0 0 0 1 forward_v I I I I #
coedge $-1 $204 $205 $206 $207 forward $81 $-1 #
coedge $-1 $208 $83 $209 $210 forward $51 $-1 #
coedge $-1 $83 $208 $211 $212 forward $51 $-1 #
coedge $-1 $213 $214 $83 $133 reversed $215 $-1 #
edge $-1 $216 -25.27822443138632 $217 25.27822443138632 $132 $218 forward 7 unknown #
face $-1 $219 $220 $31 $-1 $221 reversed single #
loop $-1 $-1 $222 $84 #
plane-surface $-1 0 -16.695443903882982 4.43319497545719 0 -1 0 0 0 -1 forward_v I I I I #
coedge $-1 $223 $224 $225 $226 reversed $85 $-1 #
coedge $-1 $227 $87 $228 $229 forward $54 $-1 #
coedge $-1 $87 $227 $230 $231 reversed $54 $-1 #
coedge $-1 $232 $233 $87 $141 forward $234 $-1 #
edge $-1 $235 6.2020268200656563 $236 14.784807347568995 $140 $237 forward 7 unknown #
face $-1 $238 $239 $32 $-1 $240 reversed single #
loop $-1 $-1 $241 $88 #
plane-surface $-1 0 0 7.7713163131203116 0 0 1 1 0 0 forward_v I I I I #
coedge $-1 $242 $243 $244 $245 reversed $89 $-1 #
coedge $-1 $147 $91 $246 $247 reversed $57 $-1 #
coedge $-1 $91 $146 $242 $248 reversed $57 $-1 #
coedge $-1 $244 $249 $91 $149 forward $239 $-1 #
edge $-1 $250 68.827403656781968 $251 73.315136399210374 $148 $252 forward 7 unknown #
loop $-1 $-1 $155 $92 #
plane-surface $-1 1.4702997361837333e-006 20.657710819149059 98.325161372261348 0.86602541151947299 0 0.49999998660252726 0.49999998660252726 0 -0.86602541151947299 forward_v I I I I #
loop $-1 $-1 $253 $59 #
coedge $-1 $153 $153 $154 $254 reversed $93 $-1 #
coedge $-1 $154 $154 $153 $254 forward $95 $-1 #
coedge $-1 $155 $155 $96 $156 forward $150 $-1 #
edge $-1 $255 0 $255 6.2831853071796004 $155 $256 forward 7 unknown #
loop $-1 $-1 $162 $97 #
plane-surface $-1 1.4702997361837333e-006 20.657710819149059 98.325161372261348 0.86602541151947299 0 0.49999998660252726 0.49999998660252726 0 -0.86602541151947299 forward_v I I I I #
loop $-1 $-1 $257 $62 #
coedge $-1 $160 $160 $161 $258 reversed $98 $-1 #
coedge $-1 $161 $161 $160 $258 forward $100 $-1 #
coedge $-1 $162 $162 $101 $163 forward $157 $-1 #
edge $-1 $259 0 $259 6.2831853071796004 $162 $260 forward 7 unknown #
loop $-1 $-1 $169 $102 #
plane-surface $-1 1.4702997361837333e-006 20.657710819149059 98.325161372261348 0.86602541151947299 0 0.49999998660252726 0.49999998660252726 0 -0.86602541151947299 forward_v I I I I #
loop $-1 $-1 $261 $65 #
coedge $-1 $167 $167 $168 $262 reversed $103 $-1 #
coedge $-1 $168 $168 $167 $262 forward $105 $-1 #
coedge $-1 $169 $169 $106 $170 forward $164 $-1 #
edge $-1 $263 0 $263 6.2831853071796004 $169 $264 forward 7 unknown #
face $-1 $265 $266 $36 $-1 $267 forward single #
loop $-1 $-1 $268 $107 #
plane-surface $-1 0 25.27822443138632 0 0 -1 0 0 0 -1 forward_v I I I I #
coedge $-1 $269 $270 $271 $272 reversed $108 $-1 #
coedge $-1 $176 $110 $273 $274 reversed $69 $-1 #
coedge $-1 $110 $175 $269 $275 reversed $69 $-1 #
coedge $-1 $271 $276 $110 $178 forward $266 $-1 #
edge $-1 $277 20.084648881863231 $278 22.675642496187969 $177 $279 forward 7 unknown #
loop $-1 $-1 $184 $111 #
plane-surface $-1 -54.872280037842955 20.657710819149059 3.2835835706919454 -0.86602541151947299 0 0.49999998660252726 0.49999998660252726 0 0.86602541151947299 forward_v I I I I #
loop $-1 $-1 $280 $71 #
coedge $-1 $182 $182 $183 $281 reversed $112 $-1 #
coedge $-1 $183 $183 $182 $281 forward $114 $-1 #
coedge $-1 $184 $184 $115 $185 forward $179 $-1 #
edge $-1 $282 0 $282 6.2831853071796004 $184 $283 forward 7 unknown #
loop $-1 $-1 $191 $116 #
plane-surface $-1 -54.872280037842955 20.657710819149059 3.2835835706919454 -0.86602541151947299 0 0.49999998660252726 0.49999998660252726 0 0.86602541151947299 forward_v I I I I #
loop $-1 $-1 $284 $74 #
coedge $-1 $189 $189 $190 $285 reversed $117 $-1 #
coedge $-1 $190 $190 $189 $285 forward $119 $-1 #
coedge $-1 $191 $191 $120 $192 forward $186 $-1 #
edge $-1 $286 0 $286 6.2831853071796004 $191 $287 forward 7 unknown #
loop $-1 $-1 $198 $121 #
plane-surface $-1 -54.872280037842955 20.657710819149059 3.2835835706919454 -0.86602541151947299 0 0.49999998660252726 0.49999998660252726 0 0.86602541151947299 forward_v I I I I #
loop $-1 $-1 $288 $77 #
coedge $-1 $196 $196 $197 $289 reversed $122 $-1 #
coedge $-1 $197 $197 $196 $289 forward $124 $-1 #
coedge $-1 $198 $198 $125 $199 forward $193 $-1 #
edge $-1 $290 0 $290 6.2831853071796004 $198 $291 forward 7 unknown #
face $-1 $292 $293 $30 $-1 $294 reversed single #
loop $-1 $-1 $295 $126 #
plane-surface $-1 -54.872280037842955 0 0 1 0 0 0 0 -1 forward_v I I I I #
coedge $-1 $296 $211 $297 $298 forward $127 $-1 #
coedge $-1 $299 $129 $296 $300 forward $81 $-1 #
coedge $-1 $129 $299 $301 $302 forward $81 $-1 #
coedge $-1 $214 $213 $129 $207 reversed $215 $-1 #
edge $-1 $303 -25.27822443138632 $304 25.27822443138632 $206 $305 forward 7 unknown #
coedge $-1 $131 $130 $306 $307 forward $51 $-1 #
coedge $-1 $308 $309 $130 $210 reversed $293 $-1 #
edge $-1 $217 -54.872280037842955 $310 54.872280037842955 $209 $311 forward 7 unknown #
coedge $-1 $203 $312 $131 $212 reversed $127 $-1 #
edge $-1 $313 -54.872280037842955 $216 54.872280037842955 $211 $314 forward 7 unknown #
coedge $-1 $206 $132 $312 $315 forward $215 $-1 #
coedge $-1 $132 $206 $308 $316 reversed $215 $-1 #
loop $-1 $-1 $213 $292 #
vertex $-1 $133 $317 #
vertex $-1 $133 $318 #
straight-curve $-1 54.872280037842955 0 7.7713163131203116 0 1 0 I I #
face $-1 $319 $320 $31 $-1 $321 reversed single #
loop $-1 $-1 $322 $134 #
plane-surface $-1 -54.872280037842955 0 0 1 0 0 0 0 -1 forward_v I I I I #
coedge $-1 $323 $228 $233 $324 reversed $135 $-1 #
coedge $-1 $325 $137 $326 $327 reversed $85 $-1 #
coedge $-1 $137 $325 $323 $328 forward $85 $-1 #
coedge $-1 $233 $232 $137 $226 forward $234 $-1 #
edge $-1 $329 -14.784807347568995 $330 -6.2020268200656563 $225 $331 forward 7 unknown #
coedge $-1 $139 $138 $322 $332 reversed $54 $-1 #
coedge $-1 $222 $333 $138 $229 reversed $135 $-1 #
edge $-1 $235 -54.872280037842955 $334 54.872280037842955 $228 $335 forward 7 unknown #
coedge $-1 $336 $337 $139 $231 forward $320 $-1 #
edge $-1 $236 -54.872280037842955 $338 54.872280037842955 $230 $339 forward 7 unknown #
coedge $-1 $225 $140 $337 $340 forward $234 $-1 #
coedge $-1 $140 $225 $222 $324 forward $234 $-1 #
loop $-1 $-1 $140 $319 #
vertex $-1 $141 $341 #
vertex $-1 $340 $342 #
straight-curve $-1 54.872280037842955 -10.493417083817326 5.93319497545719 0 -1 0 I I #
face $-1 $-1 $343 $32 $-1 $344 reversed single #
loop $-1 $-1 $148 $142 #
plane-surface $-1 54.872280037842955 0 0 -1 0 0 0 0 1 forward_v I I I I #
coedge $-1 $246 $345 $346 $347 forward $143 $-1 #
coedge $-1 $346 $145 $147 $248 forward $89 $-1 #
coedge $-1 $145 $346 $348 $349 reversed $89 $-1 #
coedge $-1 $350 $148 $145 $245 forward $239 $-1 #
edge $-1 $251 5.7083417973372725 $351 14.949369021811787 $244 $352 forward 7 unknown #
coedge $-1 $353 $241 $146 $247 forward $143 $-1 #
edge $-1 $354 4.7604967875836195 $250 7.3514904019083787 $246 $355 forward 7 unknown #
edge $-1 $251 -109.74456007568594 $354 -104.56257270818534 $147 $356 forward 7 unknown #
coedge $-1 $148 $350 $353 $357 reversed $239 $-1 #
vertex $-1 $357 $358 #
vertex $-1 $149 $359 #
straight-curve $-1 54.872280037842955 16.037197206911802 76.598719969902277 0 0 -1 I I #
coedge $-1 $253 $253 $-1 $360 reversed $152 $-1 #
edge $-1 $361 0 $361 6.2831853071796004 $153 $362 forward 7 unknown #
vertex $-1 $156 $363 #
ellipse-curve $-1 53.576783230680569 17.885402651806707 5.5274499419061138 0.86602541151947299 0 0.49999998660252726 0.24999999330126363 0 -0.43301270575973649 1 I I #
coedge $-1 $257 $257 $-1 $364 reversed $159 $-1 #
edge $-1 $365 0 $365 6.2831853071796004 $160 $366 forward 7 unknown #
vertex $-1 $163 $367 #
ellipse-curve $-1 53.576783230680569 20.657710819149059 5.5274499419061138 0.86602541151947299 0 0.49999998660252726 0.24999999330126363 0 -0.43301270575973649 1 I I #
coedge $-1 $261 $261 $-1 $368 reversed $166 $-1 #
edge $-1 $369 0 $369 6.2831853071796004 $167 $370 forward 7 unknown #
vertex $-1 $170 $371 #
ellipse-curve $-1 53.576783230680569 23.430018986491419 5.5274499419061138 0.86602541151947299 0 0.49999998660252726 0.24999999330126363 0 -0.43301270575973649 1 I I #
face $-1 $-1 $372 $36 $-1 $373 reversed single #
loop $-1 $-1 $271 $171 #
plane-surface $-1 0 0 7.7713163131203116 0 0 1 1 0 0 forward_v I I I I #
coedge $-1 $374 $375 $270 $376 forward $172 $-1 #
coedge $-1 $377 $174 $176 $275 forward $108 $-1 #
coedge $-1 $174 $377 $268 $376 reversed $108 $-1 #
coedge $-1 $378 $177 $174 $272 forward $266 $-1 #
edge $-1 $278 5.7083417973372725 $379 14.949369021811787 $271 $380 forward 7 unknown #
coedge $-1 $381 $382 $175 $274 forward $372 $-1 #
edge $-1 $383 -25.79434749842563 $277 -21.306614755997263 $273 $384 forward 7 unknown #
edge $-1 $278 -5.1819873675005415 $383 0 $176 $385 forward 7 unknown #
coedge $-1 $177 $378 $381 $386 forward $266 $-1 #
vertex $-1 $274 $387 #
vertex $-1 $178 $388 #
straight-curve $-1 -74.956928919706186 16.037197206911802 7.7713163131203125 1 0 0 I I #
coedge $-1 $280 $280 $-1 $389 reversed $181 $-1 #
edge $-1 $390 0 $390 6.2831853071796004 $182 $391 forward 7 unknown #
vertex $-1 $185 $392 #
ellipse-curve $-1 -53.57678323068059 17.885402651806707 5.527449941906128 -0.86602541151947299 0 0.49999998660252726 0.24999999330126363 0 0.43301270575973649 1 I I #
coedge $-1 $284 $284 $-1 $393 reversed $188 $-1 #
edge $-1 $394 0 $394 6.2831853071796004 $189 $395 forward 7 unknown #
vertex $-1 $192 $396 #
ellipse-curve $-1 -53.57678323068059 20.657710819149059 5.527449941906128 -0.86602541151947299 0 0.49999998660252726 0.24999999330126363 0 0.43301270575973649 1 I I #
coedge $-1 $288 $288 $-1 $397 reversed $195 $-1 #
edge $-1 $398 0 $398 6.2831853071796004 $196 $399 forward 7 unknown #
vertex $-1 $199 $400 #
ellipse-curve $-1 -53.57678323068059 23.430018986491419 5.527449941906128 -0.86602541151947299 0 0.49999998660252726 0.24999999330126363 0 0.43301270575973649 1 I I #
face $-1 $-1 $215 $30 $-1 $401 reversed single #
loop $-1 $-1 $308 $200 #
plane-surface $-1 0 25.27822443138632 0 0 -1 0 0 0 -1 forward_v I I I I #
coedge $-1 $402 $306 $309 $403 forward $201 $-1 #
coedge $-1 $312 $203 $204 $300 reversed $127 $-1 #
coedge $-1 $306 $402 $203 $298 reversed $201 $-1 #
edge $-1 $313 -7.7713163131203116 $404 7.7713163131203116 $297 $405 forward 7 unknown #
coedge $-1 $205 $204 $402 $406 forward $81 $-1 #
edge $-1 $304 -54.872280037842955 $404 54.872280037842955 $296 $407 forward 7 unknown #
coedge $-1 $309 $308 $205 $302 reversed $293 $-1 #
edge $-1 $408 -54.872280037842955 $303 54.872280037842955 $301 $409 forward 7 unknown #
vertex $-1 $207 $410 #
vertex $-1 $315 $411 #
straight-curve $-1 54.872280037842955 0 -7.7713163131203116 0 -1 0 I I #
coedge $-1 $295 $297 $208 $307 reversed $201 $-1 #
edge $-1 $310 -25.27822443138632 $313 25.27822443138632 $306 $412 forward 7 unknown #
coedge $-1 $301 $209 $214 $316 forward $293 $-1 #
coedge $-1 $209 $301 $295 $403 reversed $293 $-1 #
vertex $-1 $210 $413 #
straight-curve $-1 0 25.27822443138632 7.7713163131203116 -1 0 0 I I #
coedge $-1 $211 $296 $213 $315 reversed $127 $-1 #
vertex $-1 $307 $414 #
straight-curve $-1 0 -25.27822443138632 7.7713163131203116 1 0 0 I I #
edge $-1 $216 -7.7713163131203116 $304 7.7713163131203116 $213 $415 forward 7 unknown #
edge $-1 $217 -7.7713163131203116 $303 7.7713163131203116 $214 $416 forward 7 unknown #
point $-1 54.872280037842955 -25.27822443138632 7.7713163131203116 #
point $-1 54.872280037842955 25.27822443138632 7.7713163131203116 #
face $-1 $-1 $234 $31 $-1 $417 reversed single #
loop $-1 $-1 $230 $219 #
plane-surface $-1 0 -25.27822443138632 0 0 1 0 0 0 1 forward_v I I I I #
coedge $-1 $418 $419 $227 $332 forward $220 $-1 #
coedge $-1 $333 $222 $224 $328 reversed $135 $-1 #
edge $-1 $330 0.716597487728595 $235 3.716597487728595 $233 $420 forward 7 unknown #
coedge $-1 $224 $223 $421 $422 reversed $85 $-1 #
coedge $-1 $337 $336 $223 $327 forward $320 $-1 #
edge $-1 $423 -54.872280037842955 $329 54.872280037842955 $326 $424 forward 7 unknown #
edge $-1 $425 -54.872280037842955 $330 54.872280037842955 $323 $426 forward 7 unknown #
vertex $-1 $327 $427 #
vertex $-1 $226 $428 #
straight-curve $-1 54.872280037842955 -10.493417083817326 2.93319497545719 0 1 0 I I #
edge $-1 $338 -14.784807347568995 $334 -6.2020268200656563 $322 $429 forward 7 unknown #
coedge $-1 $228 $323 $418 $430 reversed $135 $-1 #
vertex $-1 $332 $431 #
straight-curve $-1 0 -16.695443903882982 5.93319497545719 -1 0 0 I I #
coedge $-1 $326 $230 $419 $432 forward $320 $-1 #
coedge $-1 $230 $326 $232 $340 reversed $320 $-1 #
vertex $-1 $432 $433 #
straight-curve $-1 0 -25.27822443138632 5.93319497545719 -1 0 0 I I #
edge $-1 $236 -5.93319497545719 $329 -2.93319497545719 $232 $434 forward 7 unknown #
point $-1 54.872280037842955 -16.695443903882982 5.93319497545719 #
point $-1 54.872280037842955 -25.27822443138632 5.93319497545719 #
loop $-1 $-1 $348 $238 #
plane-surface $-1 0 25.27822443138632 0 0 -1 0 0 0 -1 forward_v I I I I #
coedge $-1 $241 $353 $435 $436 forward $143 $-1 #
coedge $-1 $243 $242 $241 $347 reversed $89 $-1 #
edge $-1 $437 -14.949369021811787 $354 -5.7083417973372725 $241 $438 forward 7 unknown #
coedge $-1 $435 $439 $243 $349 forward $343 $-1 #
edge $-1 $351 -67.168516273195252 $437 -61.986528905694662 $348 $440 forward 7 unknown #
coedge $-1 $249 $244 $439 $441 reversed $239 $-1 #
vertex $-1 $349 $442 #
straight-curve $-1 54.872280037842955 10.32885540957453 3.2835835706918957 0 1 0 I I #
coedge $-1 $345 $246 $249 $357 forward $143 $-1 #
vertex $-1 $247 $443 #
straight-curve $-1 47.520789635934577 16.037197206911802 7.7713163131203089 1 0 0 I I #
straight-curve $-1 1.4702997361837333e-006 16.037197206911802 98.325161372261348 -0.49999998660252726 0 0.86602541151947299 I I #
edge $-1 $250 16.037197206911802 $444 25.27822443138632 $249 $445 forward 7 unknown #
point $-1 54.872280037842955 16.037197206911802 7.7713163131203116 #
point $-1 54.872280037842955 16.037197206911802 3.2835835706919028 #
edge $-1 $446 1 $446 0 $253 $-1 forward 7 unknown #
vertex $-1 $254 $447 #
ellipse-curve $-1 51.936628838680583 17.885402651806707 4.5805063960034431 0.86602541151947299 0 0.49999998660252726 0.24999999330126363 0 -0.43301270575973649 1 I I #
point $-1 53.826783223981842 17.885402651806707 5.0944372361463834 #
edge $-1 $448 1 $448 0 $257 $-1 forward 7 unknown #
vertex $-1 $258 $449 #
ellipse-curve $-1 51.936628838680583 20.657710819149059 4.5805063960034431 0.86602541151947299 0 0.49999998660252726 0.24999999330126363 0 -0.43301270575973649 1 I I #
point $-1 53.826783223981842 20.657710819149059 5.0944372361463834 #
edge $-1 $450 1 $450 0 $261 $-1 forward 7 unknown #
vertex $-1 $262 $451 #
ellipse-curve $-1 51.936628838680583 23.430018986491419 4.5805063960034431 0.86602541151947299 0 0.49999998660252726 0.24999999330126363 0 -0.43301270575973649 1 I I #
point $-1 53.826783223981842 23.430018986491419 5.0944372361463834 #
loop $-1 $-1 $273 $265 #
plane-surface $-1 -54.872280037842955 0 0 1 0 0 0 0 -1 forward_v I I I I #
coedge $-1 $375 $268 $452 $453 reversed $172 $-1 #
coedge $-1 $268 $374 $378 $454 reversed $172 $-1 #
edge $-1 $379 7.1142488678517228 $455 12.296236235352264 $268 $456 forward 7 unknown #
coedge $-1 $270 $269 $382 $457 reversed $108 $-1 #
coedge $-1 $276 $271 $375 $454 forward $266 $-1 #
vertex $-1 $454 $458 #
straight-curve $-1 -52.281286423518225 10.32885540957453 7.7713163131203125 0 1 0 I I #
coedge $-1 $452 $273 $276 $386 reversed $372 $-1 #
coedge $-1 $273 $452 $377 $457 forward $372 $-1 #
vertex $-1 $274 $459 #
straight-curve $-1 -54.872280037842955 16.037197206911802 29.077931069117575 0 0 1 I I #
straight-curve $-1 -54.872280037842955 16.037197206911802 3.2835835706919454 -0.49999998660252726 0 -0.86602541151947299 I I #
edge $-1 $460 -25.27822443138632 $277 -16.037197206911802 $381 $461 forward 7 unknown #
point $-1 -54.872280037842955 16.037197206911802 7.7713163131203116 #
point $-1 -52.281286423518218 16.037197206911802 7.7713163131203116 #
edge $-1 $462 1 $462 0 $280 $-1 forward 7 unknown #
vertex $-1 $281 $463 #
ellipse-curve $-1 -51.936628838680591 17.885402651806707 4.580506396003452 -0.86602541151947299 0 0.49999998660252726 0.24999999330126363 0 0.43301270575973649 1 I I #
point $-1 -53.326783237379324 17.885402651806707 5.9604626476658655 #
edge $-1 $464 1 $464 0 $284 $-1 forward 7 unknown #
vertex $-1 $285 $465 #
ellipse-curve $-1 -51.936628838680591 20.657710819149059 4.580506396003452 -0.86602541151947299 0 0.49999998660252726 0.24999999330126363 0 0.43301270575973649 1 I I #
point $-1 -53.326783237379324 20.657710819149059 5.9604626476658655 #
edge $-1 $466 1 $466 0 $288 $-1 forward 7 unknown #
vertex $-1 $289 $467 #
ellipse-curve $-1 -51.936628838680591 23.430018986491419 4.580506396003452 -0.86602541151947299 0 0.49999998660252726 0.24999999330126363 0 0.43301270575973649 1 I I #
point $-1 -53.326783237379324 23.430018986491419 5.9604626476658655 #
plane-surface $-1 54.872280037842955 0 0 -1 0 0 0 0 1 forward_v I I I I #
coedge $-1 $297 $295 $299 $406 reversed $201 $-1 #
edge $-1 $310 -7.7713163131203116 $408 7.7713163131203116 $309 $468 forward 7 unknown #
vertex $-1 $406 $469 #
straight-curve $-1 -54.872280037842955 -25.27822443138632 0 0 0 -1 I I #
edge $-1 $404 -25.27822443138632 $408 25.27822443138632 $402 $470 forward 7 unknown #
straight-curve $-1 0 -25.27822443138632 -7.7713163131203116 -1 0 0 I I #
vertex $-1 $302 $471 #
straight-curve $-1 0 25.27822443138632 -7.7713163131203116 1 0 0 I I #
point $-1 54.872280037842955 25.27822443138632 -7.7713163131203116 #
point $-1 54.872280037842955 -25.27822443138632 -7.7713163131203116 #
straight-curve $-1 -54.872280037842955 0 7.7713163131203116 0 -1 0 I I #
point $-1 -54.872280037842955 25.27822443138632 7.7713163131203116 #
point $-1 -54.872280037842955 -25.27822443138632 7.7713163131203116 #
straight-curve $-1 54.872280037842955 -25.27822443138632 0 0 0 -1 I I #
straight-curve $-1 54.872280037842955 25.27822443138632 0 0 0 -1 I I #
plane-surface $-1 54.872280037842955 0 0 -1 0 0 0 0 1 forward_v I I I I #
coedge $-1 $421 $322 $333 $430 forward $220 $-1 #
coedge $-1 $322 $421 $336 $432 reversed $220 $-1 #
straight-curve $-1 54.872280037842955 -16.695443903882982 2.216597487728595 0 0 1 I I #
coedge $-1 $419 $418 $325 $422 forward $220 $-1 #
edge $-1 $425 6.2020268200656563 $423 14.784807347568995 $421 $472 forward 7 unknown #
vertex $-1 $327 $473 #
straight-curve $-1 0 -25.27822443138632 2.93319497545719 1 0 0 I I #
vertex $-1 $422 $474 #
straight-curve $-1 0 -16.695443903882982 2.93319497545719 1 0 0 I I #
point $-1 54.872280037842955 -25.27822443138632 2.93319497545719 #
point $-1 54.872280037842955 -16.695443903882982 2.93319497545719 #
straight-curve $-1 -54.872280037842955 -10.493417083817326 5.93319497545719 0 1 0 I I #
edge $-1 $334 -3.716597487728595 $425 -0.716597487728595 $418 $475 forward 7 unknown #
point $-1 -54.872280037842955 -16.695443903882982 5.93319497545719 #
edge $-1 $338 -5.93319497545719 $423 -2.93319497545719 $419 $476 forward 7 unknown #
point $-1 -54.872280037842955 -25.27822443138632 5.93319497545719 #
straight-curve $-1 54.872280037842955 -25.27822443138632 0 0 0 -1 I I #
coedge $-1 $439 $348 $345 $436 reversed $343 $-1 #
edge $-1 $444 -54.872280037842955 $437 -52.281286423518196 $435 $477 forward 7 unknown #
vertex $-1 $349 $478 #
straight-curve $-1 52.281286423518196 10.32885540957453 7.771316313120316 0 -1 0 I I #
coedge $-1 $348 $435 $350 $441 forward $343 $-1 #
straight-curve $-1 21.288022801133692 25.27822443138632 61.45322551733824 -0.49999998660252726 0 0.86602541151947299 I I #
edge $-1 $444 -7.7713163131203116 $351 -3.2835835706919028 $350 $479 forward 7 unknown #
point $-1 54.872280037842955 25.278224431386317 3.2835835706919028 #
point $-1 52.281286423518196 16.037197206911802 7.7713163131203089 #
vertex $-1 $357 $480 #
straight-curve $-1 54.872280037842955 0 7.7713163131203116 0 1 0 I I #
vertex $-1 $360 $481 #
point $-1 52.186628831981849 17.885402651806707 4.1474936902437065 #
vertex $-1 $364 $482 #
point $-1 52.186628831981849 20.657710819149059 4.1474936902437065 #
vertex $-1 $368 $483 #
point $-1 52.186628831981849 23.430018986491419 4.1474936902437065 #
coedge $-1 $382 $381 $374 $453 forward $372 $-1 #
edge $-1 $460 -7.7713163131203116 $455 -3.2835835706919454 $374 $484 forward 7 unknown #
edge $-1 $379 52.281286423518218 $460 54.872280037842955 $375 $485 forward 7 unknown #
vertex $-1 $376 $486 #
straight-curve $-1 -48.724162084905316 25.27822443138632 13.932436616553547 -0.49999998660252726 0 -0.86602541151947299 I I #
edge $-1 $455 -14.949369021811787 $383 -5.7083417973372725 $382 $487 forward 7 unknown #
point $-1 -52.281286423518218 25.278224431386317 7.7713163131203116 #
point $-1 -54.872280037842955 16.037197206911802 3.2835835706919454 #
vertex $-1 $454 $488 #
straight-curve $-1 -54.872280037842955 0 7.7713163131203116 0 -1 0 I I #
vertex $-1 $389 $489 #
point $-1 -51.686628845379325 17.885402651806707 5.0135191017631886 #
vertex $-1 $393 $490 #
point $-1 -51.686628845379325 20.657710819149059 5.0135191017631886 #
vertex $-1 $397 $491 #
point $-1 -51.686628845379325 23.430018986491419 5.0135191017631886 #
straight-curve $-1 -54.872280037842955 25.27822443138632 0 0 0 -1 I I #
point $-1 -54.872280037842955 -25.27822443138632 -7.7713163131203116 #
straight-curve $-1 -54.872280037842955 0 -7.7713163131203116 0 1 0 I I #
point $-1 -54.872280037842955 25.27822443138632 -7.7713163131203116 #
straight-curve $-1 -54.872280037842955 -10.493417083817326 2.93319497545719 0 -1 0 I I #
point $-1 -54.872280037842955 -25.27822443138632 2.93319497545719 #
point $-1 -54.872280037842955 -16.695443903882982 2.93319497545719 #
straight-curve $-1 -54.872280037842955 -16.695443903882982 2.216597487728595 0 0 -1 I I #
straight-curve $-1 -54.872280037842955 -25.27822443138632 0 0 0 -1 I I #
straight-curve $-1 0 25.27822443138632 7.7713163131203116 -1 0 0 I I #
point $-1 52.281286423518196 25.278224431386317 7.7713163131203089 #
straight-curve $-1 54.872280037842955 25.27822443138632 0 0 0 -1 I I #
point $-1 54.872280037842955 25.27822443138632 7.7713163131203116 #
point $-1 51.503616132920847 17.885402651806707 4.3305064027021789 #
point $-1 51.503616132920847 20.657710819149059 4.3305064027021789 #
point $-1 51.503616132920847 23.430018986491419 4.3305064027021789 #
straight-curve $-1 -54.872280037842955 25.27822443138632 0 0 0 -1 I I #
straight-curve $-1 0 25.27822443138632 7.7713163131203116 -1 0 0 I I #
point $-1 -54.872280037842955 25.278224431386317 3.2835835706919454 #
straight-curve $-1 -54.872280037842955 10.32885540957453 3.2835835706919436 0 -1 0 I I #
point $-1 -54.872280037842955 25.27822443138632 7.7713163131203116 #
point $-1 -51.503616132920854 17.885402651806707 4.3305064027021878 #
point $-1 -51.503616132920854 20.657710819149059 4.3305064027021878 #
point $-1 -51.503616132920854 23.430018986491419 4.3305064027021878 #
End-of-ACIS-data 