500 0 16 0           
7 Unknown 11 ACIS 5.0 NT 24 Fri Mar 26 00:56:55 1999 
-1 9.9999999999999995e-007 1e-010 
body $-1 $16 $-1 $17 #
body $-1 $18 $-1 $19 #
body $-1 $20 $-1 $21 #
body $-1 $22 $-1 $23 #
body $-1 $24 $-1 $25 #
body $-1 $26 $-1 $27 #
body $-1 $28 $-1 $29 #
body $-1 $30 $-1 $31 #
body $-1 $32 $-1 $33 #
body $-1 $34 $-1 $35 #
body $-1 $36 $-1 $37 #
body $-1 $38 $-1 $39 #
body $-1 $40 $-1 $41 #
body $-1 $42 $-1 $43 #
body $-1 $44 $-1 $45 #
body $-1 $46 $-1 $47 #
lump $-1 $-1 $48 $0 #
transform $-1 1 0 0 0 1 0 0 0 1 78.752403332621242 47.737651026770514 16.340825074360367 1 rotate no_reflect no_shear #
lump $-1 $-1 $49 $1 #
transform $-1 1 0 0 0 1 0 0 0 1 78.752403332621242 47.737651026770514 16.340825074360367 1 rotate no_reflect no_shear #
lump $-1 $-1 $50 $2 #
transform $-1 1 0 0 0 1 0 0 0 1 78.752403332621242 47.737651026770514 16.340825074360367 1 rotate no_reflect no_shear #
lump $-1 $-1 $51 $3 #
transform $-1 1 0 0 0 1 0 0 0 1 78.752403332621242 47.737651026770514 16.340825074360367 1 rotate no_reflect no_shear #
lump $-1 $-1 $52 $4 #
transform $-1 1 0 0 0 1 0 0 0 1 78.752403332621242 47.737651026770514 16.340825074360367 1 rotate no_reflect no_shear #
lump $-1 $-1 $53 $5 #
transform $-1 1 0 0 0 1 0 0 0 1 78.752403332621242 47.737651026770514 16.340825074360367 1 rotate no_reflect no_shear #
lump $-1 $-1 $54 $6 #
transform $-1 1 0 0 0 1 0 0 0 1 78.752403332621242 47.737651026770514 16.340825074360367 1 rotate no_reflect no_shear #
lump $-1 $-1 $55 $7 #
transform $-1 1 0 0 0 1 0 0 0 1 78.752403332621242 47.737651026770514 16.340825074360367 1 rotate no_reflect no_shear #
lump $-1 $-1 $56 $8 #
transform $-1 1 0 0 0 1 0 0 0 1 78.752403332621242 47.737651026770514 16.340825074360367 1 rotate no_reflect no_shear #
lump $-1 $-1 $57 $9 #
transform $-1 1 0 0 0 1 0 0 0 1 78.752403332621242 47.737651026770514 16.340825074360367 1 rotate no_reflect no_shear #
lump $-1 $-1 $58 $10 #
transform $-1 1 0 0 0 1 0 0 0 1 78.752403332621242 47.737651026770514 16.340825074360367 1 rotate no_reflect no_shear #
lump $-1 $-1 $59 $11 #
transform $-1 1 0 0 0 1 0 0 0 1 78.752403332621242 47.737651026770514 16.340825074360367 1 rotate no_reflect no_shear #
lump $-1 $-1 $60 $12 #
transform $-1 1 0 0 0 1 0 0 0 1 78.752403332621242 47.737651026770514 16.340825074360367 1 rotate no_reflect no_shear #
lump $-1 $-1 $61 $13 #
transform $-1 1 0 0 0 1 0 0 0 1 78.752403332621242 47.737651026770514 16.340825074360367 1 rotate no_reflect no_shear #
lump $-1 $-1 $62 $14 #
transform $-1 1 0 0 0 1 0 0 0 1 78.752403332621242 47.737651026770514 16.340825074360367 1 rotate no_reflect no_shear #
lump $-1 $-1 $63 $15 #
transform $-1 1 0 0 0 1 0 0 0 1 78.752403332621242 47.737651026770514 16.340825074360367 1 rotate no_reflect no_shear #
shell $-1 $-1 $-1 $64 $-1 $16 #
shell $-1 $-1 $-1 $65 $-1 $18 #
shell $-1 $-1 $-1 $66 $-1 $20 #
shell $-1 $-1 $-1 $67 $-1 $22 #
shell $-1 $-1 $-1 $68 $-1 $24 #
shell $-1 $-1 $-1 $69 $-1 $26 #
shell $-1 $-1 $-1 $70 $-1 $28 #
shell $-1 $-1 $-1 $71 $-1 $30 #
shell $-1 $-1 $-1 $72 $-1 $32 #
shell $-1 $-1 $-1 $73 $-1 $34 #
shell $-1 $-1 $-1 $74 $-1 $36 #
shell $-1 $-1 $-1 $75 $-1 $38 #
shell $-1 $-1 $-1 $76 $-1 $40 #
shell $-1 $-1 $-1 $77 $-1 $42 #
shell $-1 $-1 $-1 $78 $-1 $44 #
shell $-1 $-1 $-1 $79 $-1 $46 #
face $-1 $80 $81 $48 $-1 $82 forward single #
face $-1 $83 $84 $49 $-1 $85 forward single #
face $-1 $86 $87 $50 $-1 $88 reversed single #
face $-1 $89 $90 $51 $-1 $91 forward single #
face $-1 $92 $93 $52 $-1 $94 forward single #
face $-1 $95 $96 $53 $-1 $97 reversed single #
face $-1 $98 $99 $54 $-1 $100 forward single #
face $-1 $101 $102 $55 $-1 $103 forward single #
face $-1 $104 $105 $56 $-1 $106 reversed single #
face $-1 $107 $108 $57 $-1 $109 forward single #
face $-1 $110 $111 $58 $-1 $112 forward single #
face $-1 $113 $114 $59 $-1 $115 forward single #
face $-1 $116 $117 $60 $-1 $118 reversed single #
face $-1 $119 $120 $61 $-1 $121 forward single #
face $-1 $122 $123 $62 $-1 $124 forward single #
face $-1 $125 $126 $63 $-1 $127 forward single #
face $-1 $128 $129 $48 $-1 $130 reversed single #
loop $-1 $-1 $131 $64 #
plane-surface $-1 0 0 16.340825074360367 0 0 1 1 0 0 forward_v I I I I #
face $-1 $132 $133 $49 $-1 $134 reversed single #
loop $-1 $-1 $135 $65 #
plane-surface $-1 0 -37.515372046913185 -11.877581071231901 0 0 1 1 0 0 forward_v I I I I #
face $-1 $136 $137 $50 $-1 $138 reversed single #
loop $-1 $-1 $139 $66 #
plane-surface $-1 94.290342139164835 -3.4998494187208564 226.6777356293023 0 -1 0 -0.75470958851134928 0 -0.65605901945558964 forward_v I I I I #
face $-1 $140 $141 $51 $-1 $142 forward single #
loop $-1 $143 $144 $67 #
cone-surface $-1 70.906331727480207 -16.024055321647072 8.0706754474656073 -0.75470958851134928 0 -0.65605901945558964 1.6401475486389741 0 -1.8867739712783731 1 I I 0 1 2.5 forward I I I I #
face $-1 $145 $146 $52 $-1 $147 forward single #
loop $-1 $148 $149 $68 #
cone-surface $-1 70.906331727480207 -8.5095317798913399 8.0706754474656073 -0.75470958851134928 0 -0.65605901945558964 1.6401475486389741 0 -1.8867739712783731 1 I I 0 1 2.5 forward I I I I #
face $-1 $150 $151 $53 $-1 $152 reversed single #
loop $-1 $-1 $153 $69 #
plane-surface $-1 94.290342139164835 41.478295642532224 226.6777356293023 0 -1 0 -0.75470958851134928 0 -0.65605901945558964 forward_v I I I I #
face $-1 $154 $155 $54 $-1 $156 forward single #
loop $-1 $157 $158 $70 #
cone-surface $-1 70.906331727480207 28.954089739605998 8.0706754474656073 -0.75470958851134928 0 -0.65605901945558964 1.6401475486389741 0 -1.8867739712783731 1 I I 0 1 2.5 forward I I I I #
face $-1 $159 $160 $55 $-1 $161 forward single #
loop $-1 $162 $163 $71 #
cone-surface $-1 70.906331727480207 36.468613281361733 8.0706754474656073 -0.75470958851134928 0 -0.65605901945558964 1.6401475486389741 0 -1.8867739712783731 1 I I 0 1 2.5 forward I I I I #
face $-1 $164 $165 $56 $-1 $166 reversed single #
loop $-1 $-1 $167 $72 #
plane-surface $-1 -202.86788602969011 -6.9388213042028042 109.76815178023035 0 1 0 -0.78801076186113728 0 0.61566146476048833 forward_v I I I I #
face $-1 $168 $169 $57 $-1 $170 forward single #
loop $-1 $171 $172 $73 #
cone-surface $-1 -75.879755888942626 -4.3842908891183399 13.406437099176621 0.78801076186113728 0 -0.61566146476048833 0.61566146476048833 0 0.78801076186113728 1 I I 0 1 1 forward I I I I #
face $-1 $173 $174 $58 $-1 $175 forward single #
loop $-1 $176 $177 $74 #
cone-surface $-1 -75.879755888942626 -0.55249526649163982 13.406437099176621 0.78801076186113728 0 -0.61566146476048833 0.61566146476048833 0 0.78801076186113728 1 I I 0 1 1 forward I I I I #
face $-1 $178 $179 $59 $-1 $180 forward single #
loop $-1 $181 $182 $75 #
cone-surface $-1 -75.879755888942626 3.2793003561350602 13.406437099176621 0.78801076186113728 0 -0.61566146476048833 0.61566146476048833 0 0.78801076186113728 1 I I 0 1 1 forward I I I I #
face $-1 $183 $184 $60 $-1 $185 reversed single #
loop $-1 $-1 $186 $76 #
plane-surface $-1 -202.86788602969011 14.610727188495133 109.76815178023035 0 1 0 -0.78801076186113728 0 0.61566146476048833 forward_v I I I I #
face $-1 $187 $188 $61 $-1 $189 forward single #
loop $-1 $190 $191 $77 #
cone-surface $-1 -75.879755888942626 17.165257603579597 13.406437099176621 0.78801076186113728 0 -0.61566146476048833 0.61566146476048833 0 0.78801076186113728 1 I I 0 1 1 forward I I I I #
face $-1 $192 $193 $62 $-1 $194 forward single #
loop $-1 $195 $196 $78 #
cone-surface $-1 -75.879755888942626 20.997053226206297 13.406437099176621 0.78801076186113728 0 -0.61566146476048833 0.61566146476048833 0 0.78801076186113728 1 I I 0 1 1 forward I I I I #
face $-1 $197 $198 $63 $-1 $199 forward single #
loop $-1 $200 $201 $79 #
cone-surface $-1 -75.879755888942626 24.828848848832997 13.406437099176621 0.78801076186113728 0 -0.61566146476048833 0.61566146476048833 0 0.78801076186113728 1 I I 0 1 1 forward I I I I #
face $-1 $202 $203 $48 $-1 $204 reversed single #
loop $-1 $-1 $205 $80 #
plane-surface $-1 0 0 -16.340825074360367 0 0 1 1 0 0 forward_v I I I I #
coedge $-1 $206 $207 $208 $209 forward $81 $-1 #
face $-1 $210 $211 $49 $-1 $212 reversed single #
loop $-1 $-1 $213 $83 #
plane-surface $-1 0 -27.293093067055857 -14.109203072796134 0 -1 0 0 0 -1 forward_v I I I I #
coedge $-1 $214 $215 $216 $217 reversed $84 $-1 #
face $-1 $218 $219 $50 $-1 $220 reversed single #
loop $-1 $-1 $221 $86 #
plane-surface $-1 -24.580045687719945 -12.266793550769208 123.3452866089611 0.75470958851134928 0 0.65605901945558964 0.65605901945558964 0 -0.75470958851134928 forward_v I I I I #
coedge $-1 $222 $223 $224 $225 reversed $87 $-1 #
face $-1 $-1 $226 $51 $-1 $227 forward single #
loop $-1 $228 $229 $89 #
cone-surface $-1 67.274319183995772 -16.024055321647072 4.9134151923933729 -0.75470958851134928 0 -0.65605901945558964 0.82007377431948703 0 -0.94338698563918655 1 I I -0.70710678118654746 0.70710678118654746 1.25 forward I I I I #
loop $-1 $-1 $230 $67 #
coedge $-1 $144 $144 $231 $232 reversed $90 $-1 #
face $-1 $-1 $233 $52 $-1 $234 forward single #
loop $-1 $235 $236 $92 #
cone-surface $-1 67.274319183995772 -8.5095317798913399 4.9134151923933729 -0.75470958851134928 0 -0.65605901945558964 0.82007377431948703 0 -0.94338698563918655 1 I I -0.70710678118654746 0.70710678118654746 1.25 forward I I I I #
loop $-1 $-1 $237 $68 #
coedge $-1 $149 $149 $238 $239 reversed $93 $-1 #
face $-1 $240 $241 $53 $-1 $242 reversed single #
loop $-1 $-1 $243 $95 #
plane-surface $-1 -24.580045687719945 32.711351510483873 123.3452866089611 0.75470958851134928 0 0.65605901945558964 0.65605901945558964 0 -0.75470958851134928 forward_v I I I I #
coedge $-1 $244 $245 $246 $247 reversed $96 $-1 #
face $-1 $-1 $248 $54 $-1 $249 forward single #
loop $-1 $250 $251 $98 #
cone-surface $-1 67.274319183995772 28.954089739605998 4.9134151923933729 -0.75470958851134928 0 -0.65605901945558964 0.82007377431948703 0 -0.94338698563918655 1 I I -0.70710678118654746 0.70710678118654746 1.25 forward I I I I #
loop $-1 $-1 $252 $70 #
coedge $-1 $158 $158 $253 $254 reversed $99 $-1 #
face $-1 $-1 $255 $55 $-1 $256 forward single #
loop $-1 $257 $258 $101 #
cone-surface $-1 67.274319183995772 36.468613281361733 4.9134151923933729 -0.75470958851134928 0 -0.65605901945558964 0.82007377431948703 0 -0.94338698563918655 1 I I -0.70710678118654746 0.70710678118654746 1.25 forward I I I I #
loop $-1 $-1 $259 $71 #
coedge $-1 $163 $163 $260 $261 reversed $102 $-1 #
face $-1 $262 $263 $56 $-1 $264 reversed single #
loop $-1 $-1 $265 $104 #
plane-surface $-1 -78.752403332621256 -0.55249526649163982 12.798511801889646 -0.78801076186113728 0 0.61566146476048833 0.61566146476048833 0 0.78801076186113728 forward_v I I I I #
coedge $-1 $266 $267 $268 $269 reversed $105 $-1 #
face $-1 $-1 $270 $57 $-1 $271 forward single #
loop $-1 $272 $273 $107 #
cone-surface $-1 -73.996882248274432 -4.3842908891183399 11.935375027847989 0.78801076186113728 0 -0.61566146476048833 0.30783073238024417 0 0.39400538093056864 1 I I -0.70710678118654746 0.70710678118654746 0.5 forward I I I I #
loop $-1 $-1 $274 $73 #
coedge $-1 $172 $172 $275 $276 reversed $108 $-1 #
face $-1 $-1 $277 $58 $-1 $278 forward single #
loop $-1 $279 $280 $110 #
cone-surface $-1 -73.996882248274432 -0.55249526649163982 11.935375027847989 0.78801076186113728 0 -0.61566146476048833 0.30783073238024417 0 0.39400538093056864 1 I I -0.70710678118654746 0.70710678118654746 0.5 forward I I I I #
loop $-1 $-1 $281 $74 #
coedge $-1 $177 $177 $282 $283 reversed $111 $-1 #
face $-1 $-1 $284 $59 $-1 $285 forward single #
loop $-1 $286 $287 $113 #
cone-surface $-1 -73.996882248274432 3.2793003561350602 11.935375027847989 0.78801076186113728 0 -0.61566146476048833 0.30783073238024417 0 0.39400538093056864 1 I I -0.70710678118654746 0.70710678118654746 0.5 forward I I I I #
loop $-1 $-1 $288 $75 #
coedge $-1 $182 $182 $289 $290 reversed $114 $-1 #
face $-1 $291 $292 $60 $-1 $293 reversed single #
loop $-1 $-1 $294 $116 #
plane-surface $-1 -78.752403332621256 20.997053226206297 12.798511801889646 -0.78801076186113728 0 0.61566146476048833 0.61566146476048833 0 0.78801076186113728 forward_v I I I I #
coedge $-1 $295 $296 $297 $298 reversed $117 $-1 #
face $-1 $-1 $299 $61 $-1 $300 forward single #
loop $-1 $301 $302 $119 #
cone-surface $-1 -73.996882248274432 17.165257603579597 11.935375027847989 0.78801076186113728 0 -0.61566146476048833 0.30783073238024417 0 0.39400538093056864 1 I I -0.70710678118654746 0.70710678118654746 0.5 forward I I I I #
loop $-1 $-1 $303 $77 #
coedge $-1 $191 $191 $304 $305 reversed $120 $-1 #
face $-1 $-1 $306 $62 $-1 $307 forward single #
loop $-1 $308 $309 $122 #
cone-surface $-1 -73.996882248274432 20.997053226206297 11.935375027847989 0.78801076186113728 0 -0.61566146476048833 0.30783073238024417 0 0.39400538093056864 1 I I -0.70710678118654746 0.70710678118654746 0.5 forward I I I I #
loop $-1 $-1 $310 $78 #
coedge $-1 $196 $196 $311 $312 reversed $123 $-1 #
face $-1 $-1 $313 $63 $-1 $314 forward single #
loop $-1 $315 $316 $125 #
cone-surface $-1 -73.996882248274432 24.828848848832997 11.935375027847989 0.78801076186113728 0 -0.61566146476048833 0.30783073238024417 0 0.39400538093056864 1 I I -0.70710678118654746 0.70710678118654746 0.5 forward I I I I #
loop $-1 $-1 $317 $79 #
coedge $-1 $201 $201 $318 $319 reversed $126 $-1 #
face $-1 $320 $321 $48 $-1 $322 reversed single #
loop $-1 $-1 $323 $128 #
plane-surface $-1 0 -47.737651026770514 0 0 1 0 0 0 1 forward_v I I I I #
coedge $-1 $324 $325 $326 $327 forward $129 $-1 #
coedge $-1 $328 $131 $329 $330 forward $81 $-1 #
coedge $-1 $131 $328 $331 $332 forward $81 $-1 #
coedge $-1 $333 $334 $131 $209 reversed $335 $-1 #
edge $-1 $336 -47.737651026770514 $337 47.737651026770514 $208 $338 forward 7 unknown #
face $-1 $339 $340 $49 $-1 $341 reversed single #
loop $-1 $-1 $342 $132 #
plane-surface $-1 0 0 -16.340825074360367 0 0 1 1 0 0 forward_v I I I I #
coedge $-1 $343 $344 $345 $346 reversed $133 $-1 #
coedge $-1 $347 $135 $344 $348 forward $84 $-1 #
coedge $-1 $135 $347 $349 $350 reversed $84 $-1 #
coedge $-1 $351 $345 $135 $217 forward $340 $-1 #
edge $-1 $352 8.5354070435992639 $353 28.979965003313922 $216 $354 forward 7 unknown #
face $-1 $355 $356 $50 $-1 $357 reversed single #
loop $-1 $-1 $358 $136 #
plane-surface $-1 94.290342139164835 -21.033737682817559 226.6777356293023 0 1 0 0.75470958851134928 0 0.65605901945558964 forward_v I I I I #
coedge $-1 $359 $360 $361 $362 reversed $137 $-1 #
coedge $-1 $223 $139 $363 $364 reversed $87 $-1 #
coedge $-1 $139 $222 $359 $365 reversed $87 $-1 #
coedge $-1 $361 $366 $139 $225 forward $367 $-1 #
edge $-1 $368 -31.607232263038824 $369 -21.292340168447268 $224 $370 forward 7 unknown #
loop $-1 $-1 $231 $140 #
plane-surface $-1 -24.580045687719945 -12.266793550769208 123.3452866089611 0.75470958851134928 0 0.65605901945558964 0.65605901945558964 0 -0.75470958851134928 forward_v I I I I #
loop $-1 $-1 $371 $89 #
coedge $-1 $229 $229 $230 $372 reversed $141 $-1 #
coedge $-1 $230 $230 $229 $372 forward $143 $-1 #
coedge $-1 $231 $231 $144 $232 forward $226 $-1 #
edge $-1 $373 0 $373 6.2831853071796004 $231 $374 forward 7 unknown #
loop $-1 $-1 $238 $145 #
plane-surface $-1 -24.580045687719945 -12.266793550769208 123.3452866089611 0.75470958851134928 0 0.65605901945558964 0.65605901945558964 0 -0.75470958851134928 forward_v I I I I #
loop $-1 $-1 $375 $92 #
coedge $-1 $236 $236 $237 $376 reversed $146 $-1 #
coedge $-1 $237 $237 $236 $376 forward $148 $-1 #
coedge $-1 $238 $238 $149 $239 forward $233 $-1 #
edge $-1 $377 0 $377 6.2831853071796004 $238 $378 forward 7 unknown #
face $-1 $379 $380 $53 $-1 $381 reversed single #
loop $-1 $-1 $382 $150 #
plane-surface $-1 94.290342139164835 23.944407378435521 226.6777356293023 0 1 0 0.75470958851134928 0 0.65605901945558964 forward_v I I I I #
coedge $-1 $383 $384 $385 $386 reversed $151 $-1 #
coedge $-1 $245 $153 $387 $388 reversed $96 $-1 #
coedge $-1 $153 $244 $383 $389 reversed $96 $-1 #
coedge $-1 $385 $390 $153 $247 forward $391 $-1 #
edge $-1 $392 -31.607232263038824 $393 -21.292340168447268 $246 $394 forward 7 unknown #
loop $-1 $-1 $253 $154 #
plane-surface $-1 -24.580045687719945 32.711351510483873 123.3452866089611 0.75470958851134928 0 0.65605901945558964 0.65605901945558964 0 -0.75470958851134928 forward_v I I I I #
loop $-1 $-1 $395 $98 #
coedge $-1 $251 $251 $252 $396 reversed $155 $-1 #
coedge $-1 $252 $252 $251 $396 forward $157 $-1 #
coedge $-1 $253 $253 $158 $254 forward $248 $-1 #
edge $-1 $397 0 $397 6.2831853071796004 $253 $398 forward 7 unknown #
loop $-1 $-1 $260 $159 #
plane-surface $-1 -24.580045687719945 32.711351510483873 123.3452866089611 0.75470958851134928 0 0.65605901945558964 0.65605901945558964 0 -0.75470958851134928 forward_v I I I I #
loop $-1 $-1 $399 $101 #
coedge $-1 $258 $258 $259 $400 reversed $160 $-1 #
coedge $-1 $259 $259 $258 $400 forward $162 $-1 #
coedge $-1 $260 $260 $163 $261 forward $255 $-1 #
edge $-1 $401 0 $401 6.2831853071796004 $260 $402 forward 7 unknown #
face $-1 $403 $404 $56 $-1 $405 forward single #
loop $-1 $-1 $406 $164 #
plane-surface $-1 -202.86788602969011 5.8338307712195245 109.76815178023035 0 -1 0 0.78801076186113728 0 -0.61566146476048833 forward_v I I I I #
coedge $-1 $407 $408 $409 $410 reversed $165 $-1 #
coedge $-1 $267 $167 $411 $412 reversed $105 $-1 #
coedge $-1 $167 $266 $407 $413 reversed $105 $-1 #
coedge $-1 $409 $414 $167 $269 forward $404 $-1 #
edge $-1 $415 22.681539682223814 $416 25.449098050105775 $268 $417 forward 7 unknown #
loop $-1 $-1 $275 $168 #
plane-surface $-1 -78.752403332621256 -0.55249526649163982 12.798511801889646 -0.78801076186113728 0 0.61566146476048833 0.61566146476048833 0 0.78801076186113728 forward_v I I I I #
loop $-1 $-1 $418 $107 #
coedge $-1 $273 $273 $274 $419 reversed $169 $-1 #
coedge $-1 $274 $274 $273 $419 forward $171 $-1 #
coedge $-1 $275 $275 $172 $276 forward $270 $-1 #
edge $-1 $420 0 $420 6.2831853071796004 $275 $421 forward 7 unknown #
loop $-1 $-1 $282 $173 #
plane-surface $-1 -78.752403332621256 -0.55249526649163982 12.798511801889646 -0.78801076186113728 0 0.61566146476048833 0.61566146476048833 0 0.78801076186113728 forward_v I I I I #
loop $-1 $-1 $422 $110 #
coedge $-1 $280 $280 $281 $423 reversed $174 $-1 #
coedge $-1 $281 $281 $280 $423 forward $176 $-1 #
coedge $-1 $282 $282 $177 $283 forward $277 $-1 #
edge $-1 $424 0 $424 6.2831853071796004 $282 $425 forward 7 unknown #
loop $-1 $-1 $289 $178 #
plane-surface $-1 -78.752403332621256 -0.55249526649163982 12.798511801889646 -0.78801076186113728 0 0.61566146476048833 0.61566146476048833 0 0.78801076186113728 forward_v I I I I #
loop $-1 $-1 $426 $113 #
coedge $-1 $287 $287 $288 $427 reversed $179 $-1 #
coedge $-1 $288 $288 $287 $427 forward $181 $-1 #
coedge $-1 $289 $289 $182 $290 forward $284 $-1 #
edge $-1 $428 0 $428 6.2831853071796004 $289 $429 forward 7 unknown #
face $-1 $430 $431 $60 $-1 $432 forward single #
loop $-1 $-1 $433 $183 #
plane-surface $-1 -202.86788602969011 27.383379263917462 109.76815178023035 0 -1 0 0.78801076186113728 0 -0.61566146476048833 forward_v I I I I #
coedge $-1 $434 $435 $436 $437 reversed $184 $-1 #
coedge $-1 $296 $186 $438 $439 reversed $117 $-1 #
coedge $-1 $186 $295 $434 $440 reversed $117 $-1 #
coedge $-1 $436 $441 $186 $298 forward $431 $-1 #
edge $-1 $442 22.681539682223814 $443 25.449098050105775 $297 $444 forward 7 unknown #
loop $-1 $-1 $304 $187 #
plane-surface $-1 -78.752403332621256 20.997053226206297 12.798511801889646 -0.78801076186113728 0 0.61566146476048833 0.61566146476048833 0 0.78801076186113728 forward_v I I I I #
loop $-1 $-1 $445 $119 #
coedge $-1 $302 $302 $303 $446 reversed $188 $-1 #
coedge $-1 $303 $303 $302 $446 forward $190 $-1 #
coedge $-1 $304 $304 $191 $305 forward $299 $-1 #
edge $-1 $447 0 $447 6.2831853071796004 $304 $448 forward 7 unknown #
loop $-1 $-1 $311 $192 #
plane-surface $-1 -78.752403332621256 20.997053226206297 12.798511801889646 -0.78801076186113728 0 0.61566146476048833 0.61566146476048833 0 0.78801076186113728 forward_v I I I I #
loop $-1 $-1 $449 $122 #
coedge $-1 $309 $309 $310 $450 reversed $193 $-1 #
coedge $-1 $310 $310 $309 $450 forward $195 $-1 #
coedge $-1 $311 $311 $196 $312 forward $306 $-1 #
edge $-1 $451 0 $451 6.2831853071796004 $311 $452 forward 7 unknown #
loop $-1 $-1 $318 $197 #
plane-surface $-1 -78.752403332621256 20.997053226206297 12.798511801889646 -0.78801076186113728 0 0.61566146476048833 0.61566146476048833 0 0.78801076186113728 forward_v I I I I #
loop $-1 $-1 $453 $125 #
coedge $-1 $316 $316 $317 $454 reversed $198 $-1 #
coedge $-1 $317 $317 $316 $454 forward $200 $-1 #
coedge $-1 $318 $318 $201 $319 forward $313 $-1 #
edge $-1 $455 0 $455 6.2831853071796004 $318 $456 forward 7 unknown #
face $-1 $457 $458 $48 $-1 $459 reversed single #
loop $-1 $-1 $460 $202 #
plane-surface $-1 -78.752403332621242 0 0 1 0 0 0 0 -1 forward_v I I I I #
coedge $-1 $461 $331 $462 $463 forward $203 $-1 #
coedge $-1 $464 $205 $461 $465 forward $129 $-1 #
coedge $-1 $205 $464 $466 $467 forward $129 $-1 #
coedge $-1 $334 $333 $205 $327 reversed $335 $-1 #
edge $-1 $468 -47.737651026770514 $469 47.737651026770514 $326 $470 forward 7 unknown #
coedge $-1 $207 $206 $471 $472 forward $81 $-1 #
coedge $-1 $473 $474 $206 $330 reversed $458 $-1 #
edge $-1 $337 -78.752403332621242 $475 78.752403332621242 $329 $476 forward 7 unknown #
coedge $-1 $323 $477 $207 $332 reversed $203 $-1 #
edge $-1 $478 -78.752403332621242 $336 78.752403332621242 $331 $479 forward 7 unknown #
coedge $-1 $326 $208 $477 $480 forward $335 $-1 #
coedge $-1 $208 $326 $473 $481 reversed $335 $-1 #
loop $-1 $-1 $333 $457 #
vertex $-1 $209 $482 #
vertex $-1 $209 $483 #
straight-curve $-1 78.752403332621242 0 16.340825074360367 0 1 0 I I #
face $-1 $484 $485 $49 $-1 $486 reversed single #
loop $-1 $-1 $345 $210 #
plane-surface $-1 78.752403332621242 0 0 -1 0 0 0 0 1 forward_v I I I I #
coedge $-1 $487 $488 $343 $489 forward $211 $-1 #
coedge $-1 $490 $213 $342 $489 reversed $133 $-1 #
coedge $-1 $213 $490 $214 $348 reversed $133 $-1 #
coedge $-1 $216 $491 $213 $346 forward $340 $-1 #
edge $-1 $492 -9.2862235379623002 $352 -4.8229795348338342 $345 $493 forward 7 unknown #
coedge $-1 $215 $214 $494 $495 reversed $84 $-1 #
edge $-1 $352 -78.752403332621242 $496 78.752403332621242 $344 $497 forward 7 unknown #
coedge $-1 $498 $499 $215 $350 forward $485 $-1 #
edge $-1 $353 -78.752403332621242 $500 78.752403332621242 $349 $501 forward 7 unknown #
coedge $-1 $491 $216 $499 $502 forward $340 $-1 #
vertex $-1 $217 $503 #
vertex $-1 $502 $504 #
straight-curve $-1 78.752403332621242 -18.757686023456593 -11.877581071231901 0 -1 0 I I #
face $-1 $-1 $367 $50 $-1 $505 forward single #
loop $-1 $-1 $506 $218 #
plane-surface $-1 78.752403332621242 0 0 -1 0 0 0 0 1 forward_v I I I I #
coedge $-1 $507 $508 $509 $510 reversed $219 $-1 #
coedge $-1 $511 $221 $223 $365 forward $137 $-1 #
coedge $-1 $221 $511 $507 $512 forward $137 $-1 #
coedge $-1 $509 $224 $221 $362 forward $367 $-1 #
edge $-1 $369 -2.6335473566637475 $513 14.900340907432955 $361 $514 forward 7 unknown #
coedge $-1 $515 $516 $222 $364 forward $356 $-1 #
edge $-1 $517 -108.8639690325748 $368 -96.998042740290785 $363 $518 forward 7 unknown #
edge $-1 $369 141.78230032251886 $517 157.50480666524251 $223 $519 forward 7 unknown #
coedge $-1 $224 $509 $515 $520 forward $367 $-1 #
loop $-1 $-1 $509 $355 #
vertex $-1 $364 $521 #
vertex $-1 $225 $522 #
straight-curve $-1 47.145171069582418 -3.4998494187208564 16.340825074360367 -1 0 0 I I #
coedge $-1 $371 $371 $-1 $523 reversed $228 $-1 #
edge $-1 $524 0 $524 6.2831853071796004 $229 $525 forward 7 unknown #
vertex $-1 $232 $526 #
ellipse-curve $-1 73.594957285325464 -16.024055321647072 10.40786192821836 0.75470958851134928 0 0.65605901945558964 1.6401475486389741 0 -1.8867739712783731 1 I I #
coedge $-1 $375 $375 $-1 $527 reversed $235 $-1 #
edge $-1 $528 0 $528 6.2831853071796004 $236 $529 forward 7 unknown #
vertex $-1 $239 $530 #
ellipse-curve $-1 73.594957285325464 -8.5095317798913399 10.40786192821836 0.75470958851134928 0 0.65605901945558964 1.6401475486389741 0 -1.8867739712783731 1 I I #
face $-1 $-1 $391 $53 $-1 $531 forward single #
loop $-1 $-1 $532 $240 #
plane-surface $-1 78.752403332621242 0 0 -1 0 0 0 0 1 forward_v I I I I #
coedge $-1 $533 $534 $535 $536 reversed $241 $-1 #
coedge $-1 $537 $243 $245 $389 forward $151 $-1 #
coedge $-1 $243 $537 $533 $538 forward $151 $-1 #
coedge $-1 $535 $246 $243 $386 forward $391 $-1 #
edge $-1 $393 -25.122619887290288 $539 -7.5887316231935849 $385 $540 forward 7 unknown #
coedge $-1 $541 $542 $244 $388 forward $380 $-1 #
edge $-1 $543 -108.8639690325748 $392 -96.998042740290785 $387 $544 forward 7 unknown #
edge $-1 $393 141.78230032251886 $543 157.50480666524251 $245 $545 forward 7 unknown #
coedge $-1 $246 $535 $541 $546 forward $391 $-1 #
loop $-1 $-1 $535 $379 #
vertex $-1 $388 $547 #
vertex $-1 $247 $548 #
straight-curve $-1 47.145171069582418 41.478295642532224 16.340825074360367 -1 0 0 I I #
coedge $-1 $395 $395 $-1 $549 reversed $250 $-1 #
edge $-1 $550 0 $550 6.2831853071796004 $251 $551 forward 7 unknown #
vertex $-1 $254 $552 #
ellipse-curve $-1 73.594957285325464 28.954089739605998 10.40786192821836 0.75470958851134928 0 0.65605901945558964 1.6401475486389741 0 -1.8867739712783731 1 I I #
coedge $-1 $399 $399 $-1 $553 reversed $257 $-1 #
edge $-1 $554 0 $554 6.2831853071796004 $258 $555 forward 7 unknown #
vertex $-1 $261 $556 #
ellipse-curve $-1 73.594957285325464 36.468613281361733 10.40786192821836 0.75470958851134928 0 0.65605901945558964 1.6401475486389741 0 -1.8867739712783731 1 I I #
face $-1 $-1 $557 $56 $-1 $558 reversed single #
loop $-1 $-1 $268 $262 #
plane-surface $-1 0 0 16.340825074360367 0 0 1 1 0 0 forward_v I I I I #
coedge $-1 $559 $560 $561 $562 reversed $263 $-1 #
coedge $-1 $563 $265 $267 $413 forward $165 $-1 #
coedge $-1 $265 $563 $559 $564 forward $165 $-1 #
coedge $-1 $561 $268 $265 $410 forward $404 $-1 #
edge $-1 $416 -6.6625736709569843 $565 6.1100784044653444 $409 $566 forward 7 unknown #
coedge $-1 $567 $568 $266 $412 forward $557 $-1 #
edge $-1 $569 -42.08556408822551 $415 -38.54325081575481 $411 $570 forward 7 unknown #
edge $-1 $416 -4.4952600191708347 $569 -2.274695869299009e-014 $267 $571 forward 7 unknown #
coedge $-1 $268 $561 $567 $572 forward $404 $-1 #
vertex $-1 $412 $573 #
vertex $-1 $269 $574 #
straight-curve $-1 -101.43394301484506 -6.9388213042028042 16.340825074360367 1 0 0 I I #
coedge $-1 $418 $418 $-1 $575 reversed $272 $-1 #
edge $-1 $576 0 $576 6.2831853071796004 $273 $577 forward 7 unknown #
vertex $-1 $276 $578 #
ellipse-curve $-1 -77.368624148680269 -4.3842908891183399 14.569668438125012 -0.78801076186113728 0 0.61566146476048833 0.61566146476048833 0 0.78801076186113728 1 I I #
coedge $-1 $422 $422 $-1 $579 reversed $279 $-1 #
edge $-1 $580 0 $580 6.2831853071796004 $280 $581 forward 7 unknown #
vertex $-1 $283 $582 #
ellipse-curve $-1 -77.368624148680269 -0.55249526649163982 14.569668438125012 -0.78801076186113728 0 0.61566146476048833 0.61566146476048833 0 0.78801076186113728 1 I I #
coedge $-1 $426 $426 $-1 $583 reversed $286 $-1 #
edge $-1 $584 0 $584 6.2831853071796004 $287 $585 forward 7 unknown #
vertex $-1 $290 $586 #
ellipse-curve $-1 -77.368624148680269 3.2793003561350602 14.569668438125012 -0.78801076186113728 0 0.61566146476048833 0.61566146476048833 0 0.78801076186113728 1 I I #
face $-1 $-1 $587 $60 $-1 $588 reversed single #
loop $-1 $-1 $297 $291 #
plane-surface $-1 0 0 16.340825074360367 0 0 1 1 0 0 forward_v I I I I #
coedge $-1 $589 $590 $591 $592 reversed $292 $-1 #
coedge $-1 $593 $294 $296 $440 forward $184 $-1 #
coedge $-1 $294 $593 $589 $594 forward $184 $-1 #
coedge $-1 $591 $297 $294 $437 forward $431 $-1 #
edge $-1 $443 4.1122005753919844 $595 16.884852650814313 $436 $596 forward 7 unknown #
coedge $-1 $597 $598 $295 $439 forward $587 $-1 #
edge $-1 $599 -42.08556408822551 $442 -38.54325081575481 $438 $600 forward 7 unknown #
edge $-1 $443 -4.4952600191708347 $599 -2.274695869299009e-014 $296 $601 forward 7 unknown #
coedge $-1 $297 $591 $597 $602 forward $431 $-1 #
vertex $-1 $298 $603 #
vertex $-1 $298 $604 #
straight-curve $-1 -101.43394301484506 14.610727188495133 16.340825074360367 1 0 0 I I #
coedge $-1 $445 $445 $-1 $605 reversed $301 $-1 #
edge $-1 $606 0 $606 6.2831853071796004 $302 $607 forward 7 unknown #
vertex $-1 $305 $608 #
ellipse-curve $-1 -77.368624148680269 17.165257603579597 14.569668438125012 -0.78801076186113728 0 0.61566146476048833 0.61566146476048833 0 0.78801076186113728 1 I I #
coedge $-1 $449 $449 $-1 $609 reversed $308 $-1 #
edge $-1 $610 0 $610 6.2831853071796004 $309 $611 forward 7 unknown #
vertex $-1 $312 $612 #
ellipse-curve $-1 -77.368624148680269 20.997053226206297 14.569668438125012 -0.78801076186113728 0 0.61566146476048833 0.61566146476048833 0 0.78801076186113728 1 I I #
coedge $-1 $453 $453 $-1 $613 reversed $315 $-1 #
edge $-1 $614 0 $614 6.2831853071796004 $316 $615 forward 7 unknown #
vertex $-1 $319 $616 #
ellipse-curve $-1 -77.368624148680269 24.828848848832997 14.569668438125012 -0.78801076186113728 0 0.61566146476048833 0.61566146476048833 0 0.78801076186113728 1 I I #
face $-1 $-1 $335 $48 $-1 $617 reversed single #
loop $-1 $-1 $473 $320 #
plane-surface $-1 0 47.737651026770514 0 0 -1 0 0 0 -1 forward_v I I I I #
coedge $-1 $618 $471 $474 $619 forward $321 $-1 #
coedge $-1 $477 $323 $324 $465 reversed $203 $-1 #
coedge $-1 $471 $618 $323 $463 reversed $321 $-1 #
edge $-1 $478 -16.340825074360367 $620 16.340825074360367 $462 $621 forward 7 unknown #
coedge $-1 $325 $324 $618 $622 forward $129 $-1 #
edge $-1 $469 -78.752403332621242 $620 78.752403332621242 $461 $623 forward 7 unknown #
coedge $-1 $474 $473 $325 $467 reversed $458 $-1 #
edge $-1 $624 -78.752403332621242 $468 78.752403332621242 $466 $625 forward 7 unknown #
vertex $-1 $327 $626 #
vertex $-1 $480 $627 #
straight-curve $-1 78.752403332621242 0 -16.340825074360367 0 -1 0 I I #
coedge $-1 $460 $462 $328 $472 reversed $321 $-1 #
edge $-1 $475 -47.737651026770514 $478 47.737651026770514 $471 $628 forward 7 unknown #
coedge $-1 $466 $329 $334 $481 forward $458 $-1 #
coedge $-1 $329 $466 $460 $619 reversed $458 $-1 #
vertex $-1 $330 $629 #
straight-curve $-1 0 47.737651026770514 16.340825074360367 -1 0 0 I I #
coedge $-1 $331 $461 $333 $480 reversed $203 $-1 #
vertex $-1 $472 $630 #
straight-curve $-1 0 -47.737651026770514 16.340825074360367 1 0 0 I I #
edge $-1 $336 -16.340825074360367 $469 16.340825074360367 $333 $631 forward 7 unknown #
edge $-1 $337 -16.340825074360367 $468 16.340825074360367 $334 $632 forward 7 unknown #
point $-1 78.752403332621242 -47.737651026770514 16.340825074360367 #
point $-1 78.752403332621242 47.737651026770514 16.340825074360367 #
face $-1 $-1 $633 $49 $-1 $634 reversed single #
loop $-1 $-1 $349 $339 #
plane-surface $-1 0 -47.737651026770514 0 0 1 0 0 0 1 forward_v I I I I #
coedge $-1 $635 $342 $491 $636 forward $211 $-1 #
coedge $-1 $342 $635 $637 $638 forward $211 $-1 #
edge $-1 $639 -78.752403332621242 $492 78.752403332621242 $342 $640 forward 7 unknown #
coedge $-1 $344 $343 $641 $642 reversed $133 $-1 #
coedge $-1 $345 $351 $487 $636 reversed $340 $-1 #
vertex $-1 $636 $643 #
straight-curve $-1 78.752403332621242 -27.293093067055857 -7.0546015363980672 0 0 1 I I #
coedge $-1 $641 $644 $347 $495 forward $633 $-1 #
edge $-1 $500 -28.979965003313922 $496 -8.5354070435992639 $494 $645 forward 7 unknown #
vertex $-1 $495 $646 #
straight-curve $-1 0 -27.293093067055857 -11.877581071231901 -1 0 0 I I #
coedge $-1 $647 $349 $644 $648 forward $485 $-1 #
coedge $-1 $349 $647 $351 $502 reversed $485 $-1 #
vertex $-1 $648 $649 #
straight-curve $-1 0 -47.737651026770514 -11.877581071231901 -1 0 0 I I #
edge $-1 $353 11.877581071231901 $650 16.340825074360367 $351 $651 forward 7 unknown #
point $-1 78.752403332621242 -27.293093067055857 -11.877581071231901 #
point $-1 78.752403332621242 -47.737651026770514 -11.877581071231901 #
plane-surface $-1 0 0 16.340825074360367 0 0 1 1 0 0 forward_v I I I I #
coedge $-1 $516 $515 $508 $652 forward $356 $-1 #
coedge $-1 $508 $358 $360 $512 reversed $219 $-1 #
coedge $-1 $358 $507 $506 $652 reversed $219 $-1 #
coedge $-1 $366 $361 $358 $510 forward $367 $-1 #
edge $-1 $513 21.292340168447268 $653 31.607232263038824 $509 $654 forward 7 unknown #
coedge $-1 $360 $359 $516 $655 reversed $137 $-1 #
edge $-1 $656 -157.50480666524251 $513 -141.78230032251886 $507 $657 forward 7 unknown #
vertex $-1 $362 $658 #
straight-curve $-1 68.4375112380297 -6.1333967753846039 16.340825074360367 0 -1 0 I I #
coedge $-1 $506 $363 $366 $520 reversed $356 $-1 #
coedge $-1 $363 $506 $511 $655 forward $356 $-1 #
vertex $-1 $364 $659 #
straight-curve $-1 78.752403332621242 -3.4998494187208564 113.33886781465115 0 0 1 I I #
straight-curve $-1 -24.580045687719945 -3.4998494187208564 123.3452866089611 0.65605901945558964 0 -0.75470958851134928 I I #
edge $-1 $653 -21.033737682817559 $368 -3.4998494187208564 $515 $660 forward 7 unknown #
point $-1 78.752403332621242 -3.4998494187208564 16.340825074360367 #
point $-1 68.437511238029686 -3.4998494187208564 16.340825074360367 #
edge $-1 $661 1 $661 0 $371 $-1 forward 7 unknown #
vertex $-1 $372 $662 #
ellipse-curve $-1 68.217706169634965 -16.024055321647072 5.7334889667128603 0.75470958851134928 0 0.65605901945558964 1.6401475486389741 0 -1.8867739712783731 1 I I #
point $-1 75.235104833964442 -16.024055321647072 8.5210879569399829 #
edge $-1 $663 1 $663 0 $375 $-1 forward 7 unknown #
vertex $-1 $376 $664 #
ellipse-curve $-1 68.217706169634965 -8.5095317798913399 5.7334889667128603 0.75470958851134928 0 0.65605901945558964 1.6401475486389741 0 -1.8867739712783731 1 I I #
point $-1 75.235104833964442 -8.5095317798913399 8.5210879569399829 #
plane-surface $-1 0 0 16.340825074360367 0 0 1 1 0 0 forward_v I I I I #
coedge $-1 $542 $541 $534 $665 forward $380 $-1 #
coedge $-1 $534 $382 $384 $538 reversed $241 $-1 #
coedge $-1 $382 $533 $532 $665 reversed $241 $-1 #
coedge $-1 $390 $385 $382 $536 forward $391 $-1 #
edge $-1 $539 21.292340168447268 $666 31.607232263038824 $535 $667 forward 7 unknown #
coedge $-1 $384 $383 $542 $668 reversed $151 $-1 #
edge $-1 $669 -157.50480666524251 $539 -141.78230032251886 $533 $670 forward 7 unknown #
vertex $-1 $386 $671 #
straight-curve $-1 68.4375112380297 16.355675755241936 16.340825074360367 0 -1 0 I I #
coedge $-1 $532 $387 $390 $546 reversed $380 $-1 #
coedge $-1 $387 $532 $537 $668 forward $380 $-1 #
vertex $-1 $388 $672 #
straight-curve $-1 78.752403332621242 41.478295642532224 113.33886781465115 0 0 1 I I #
straight-curve $-1 -24.580045687719945 41.478295642532224 123.3452866089611 0.65605901945558964 0 -0.75470958851134928 I I #
edge $-1 $666 23.944407378435521 $392 41.478295642532224 $541 $673 forward 7 unknown #
point $-1 78.752403332621242 41.478295642532224 16.340825074360367 #
point $-1 68.437511238029686 41.478295642532224 16.340825074360367 #
edge $-1 $674 1 $674 0 $395 $-1 forward 7 unknown #
vertex $-1 $396 $675 #
ellipse-curve $-1 68.217706169634965 28.954089739605998 5.7334889667128603 0.75470958851134928 0 0.65605901945558964 1.6401475486389741 0 -1.8867739712783731 1 I I #
point $-1 75.235104833964442 28.954089739605998 8.5210879569399829 #
edge $-1 $676 1 $676 0 $399 $-1 forward 7 unknown #
vertex $-1 $400 $677 #
ellipse-curve $-1 68.217706169634965 36.468613281361733 5.7334889667128603 0.75470958851134928 0 0.65605901945558964 1.6401475486389741 0 -1.8867739712783731 1 I I #
point $-1 75.235104833964442 36.468613281361733 8.5210879569399829 #
loop $-1 $-1 $411 $403 #
plane-surface $-1 -78.752403332621242 0 0 1 0 0 0 0 -1 forward_v I I I I #
coedge $-1 $560 $406 $408 $564 reversed $263 $-1 #
coedge $-1 $406 $559 $678 $679 reversed $263 $-1 #
coedge $-1 $414 $409 $406 $562 forward $404 $-1 #
edge $-1 $565 -25.449098050105775 $680 -22.681539682223814 $561 $681 forward 7 unknown #
coedge $-1 $408 $407 $568 $682 reversed $165 $-1 #
edge $-1 $683 2.274695869299009e-014 $565 4.4952600191708347 $559 $684 forward 7 unknown #
vertex $-1 $410 $685 #
straight-curve $-1 -75.984844964739267 -0.27624763324581991 16.340825074360367 0 1 0 I I #
coedge $-1 $678 $411 $414 $572 reversed $557 $-1 #
coedge $-1 $411 $678 $563 $682 forward $557 $-1 #
vertex $-1 $412 $686 #
straight-curve $-1 -78.752403332621242 -6.9388213042028042 54.884075890115177 0 0 1 I I #
straight-curve $-1 -78.752403332621256 -6.9388213042028042 12.798511801889646 -0.61566146476048833 0 -0.78801076186113728 I I #
edge $-1 $680 -5.8338307712195245 $415 6.9388213042028042 $567 $687 forward 7 unknown #
point $-1 -78.752403332621242 -6.9388213042028042 16.340825074360367 #
point $-1 -75.984844964739281 -6.9388213042028042 16.340825074360367 #
edge $-1 $688 1 $688 0 $418 $-1 forward 7 unknown #
vertex $-1 $419 $689 #
ellipse-curve $-1 -74.390887629204997 -4.3842908891183399 12.243205760228234 -0.78801076186113728 0 0.61566146476048833 0.61566146476048833 0 0.78801076186113728 1 I I #
point $-1 -76.752962683919776 -4.3842908891183399 15.357679199986146 #
edge $-1 $690 1 $690 0 $422 $-1 forward 7 unknown #
vertex $-1 $423 $691 #
ellipse-curve $-1 -74.390887629204997 -0.55249526649163982 12.243205760228234 -0.78801076186113728 0 0.61566146476048833 0.61566146476048833 0 0.78801076186113728 1 I I #
point $-1 -76.752962683919776 -0.55249526649163982 15.357679199986146 #
edge $-1 $692 1 $692 0 $426 $-1 forward 7 unknown #
vertex $-1 $427 $693 #
ellipse-curve $-1 -74.390887629204997 3.2793003561350602 12.243205760228234 -0.78801076186113728 0 0.61566146476048833 0.61566146476048833 0 0.78801076186113728 1 I I #
point $-1 -76.752962683919776 3.2793003561350602 15.357679199986146 #
loop $-1 $-1 $438 $430 #
plane-surface $-1 -78.752403332621242 0 0 1 0 0 0 0 -1 forward_v I I I I #
coedge $-1 $590 $433 $435 $594 reversed $292 $-1 #
coedge $-1 $433 $589 $694 $695 reversed $292 $-1 #
coedge $-1 $441 $436 $433 $592 forward $431 $-1 #
edge $-1 $595 -25.449098050105775 $696 -22.681539682223814 $591 $697 forward 7 unknown #
coedge $-1 $435 $434 $598 $698 reversed $184 $-1 #
edge $-1 $699 2.274695869299009e-014 $595 4.4952600191708347 $589 $700 forward 7 unknown #
vertex $-1 $437 $701 #
straight-curve $-1 -75.984844964739267 10.498526613103149 16.340825074360367 0 1 0 I I #
coedge $-1 $694 $438 $441 $602 reversed $587 $-1 #
coedge $-1 $438 $694 $593 $698 forward $587 $-1 #
vertex $-1 $439 $702 #
straight-curve $-1 -78.752403332621242 14.610727188495133 54.884075890115177 0 0 1 I I #
straight-curve $-1 -78.752403332621256 14.610727188495133 12.798511801889646 -0.61566146476048833 0 -0.78801076186113728 I I #
edge $-1 $696 -27.383379263917462 $442 -14.610727188495133 $597 $703 forward 7 unknown #
point $-1 -78.752403332621242 14.610727188495133 16.340825074360367 #
point $-1 -75.984844964739281 14.610727188495133 16.340825074360367 #
edge $-1 $704 1 $704 0 $445 $-1 forward 7 unknown #
vertex $-1 $446 $705 #
ellipse-curve $-1 -74.390887629204997 17.165257603579597 12.243205760228234 -0.78801076186113728 0 0.61566146476048833 0.61566146476048833 0 0.78801076186113728 1 I I #
point $-1 -76.752962683919776 17.165257603579597 15.357679199986146 #
edge $-1 $706 1 $706 0 $449 $-1 forward 7 unknown #
vertex $-1 $450 $707 #
ellipse-curve $-1 -74.390887629204997 20.997053226206297 12.243205760228234 -0.78801076186113728 0 0.61566146476048833 0.61566146476048833 0 0.78801076186113728 1 I I #
point $-1 -76.752962683919776 20.997053226206297 15.357679199986146 #
edge $-1 $708 1 $708 0 $453 $-1 forward 7 unknown #
vertex $-1 $454 $709 #
ellipse-curve $-1 -74.390887629204997 24.828848848832997 12.243205760228234 -0.78801076186113728 0 0.61566146476048833 0.61566146476048833 0 0.78801076186113728 1 I I #
point $-1 -76.752962683919776 24.828848848832997 15.357679199986146 #
plane-surface $-1 78.752403332621242 0 0 -1 0 0 0 0 1 forward_v I I I I #
coedge $-1 $462 $460 $464 $622 reversed $321 $-1 #
edge $-1 $475 -16.340825074360367 $624 16.340825074360367 $474 $710 forward 7 unknown #
vertex $-1 $622 $711 #
straight-curve $-1 -78.752403332621242 -47.737651026770514 0 0 0 -1 I I #
edge $-1 $620 -47.737651026770514 $624 47.737651026770514 $618 $712 forward 7 unknown #
straight-curve $-1 0 -47.737651026770514 -16.340825074360367 -1 0 0 I I #
vertex $-1 $467 $713 #
straight-curve $-1 0 47.737651026770514 -16.340825074360367 1 0 0 I I #
point $-1 78.752403332621242 47.737651026770514 -16.340825074360367 #
point $-1 78.752403332621242 -47.737651026770514 -16.340825074360367 #
straight-curve $-1 -78.752403332621242 0 16.340825074360367 0 -1 0 I I #
point $-1 -78.752403332621242 47.737651026770514 16.340825074360367 #
point $-1 -78.752403332621242 -47.737651026770514 16.340825074360367 #
straight-curve $-1 78.752403332621242 -47.737651026770514 0 0 0 -1 I I #
straight-curve $-1 78.752403332621242 47.737651026770514 0 0 0 -1 I I #
loop $-1 $-1 $641 $484 #
plane-surface $-1 -78.752403332621242 0 0 1 0 0 0 0 -1 forward_v I I I I #
coedge $-1 $488 $487 $647 $714 forward $211 $-1 #
edge $-1 $492 27.293093067055857 $650 47.737651026770514 $491 $715 forward 7 unknown #
coedge $-1 $644 $641 $488 $638 reversed $633 $-1 #
edge $-1 $716 -47.737651026770514 $639 -27.293093067055857 $637 $717 forward 7 unknown #
vertex $-1 $642 $718 #
straight-curve $-1 0 -27.293093067055857 -16.340825074360367 1 0 0 I I #
coedge $-1 $637 $494 $490 $642 forward $633 $-1 #
edge $-1 $496 4.8229795348338342 $639 9.2862235379623002 $641 $719 forward 7 unknown #
point $-1 78.752403332621242 -27.293093067055857 -16.340825074360367 #
coedge $-1 $494 $637 $498 $648 reversed $633 $-1 #
straight-curve $-1 -78.752403332621242 -18.757686023456593 -11.877581071231901 0 1 0 I I #
point $-1 -78.752403332621242 -27.293093067055857 -11.877581071231901 #
coedge $-1 $499 $498 $635 $714 reversed $485 $-1 #
edge $-1 $500 11.877581071231901 $716 16.340825074360367 $644 $720 forward 7 unknown #
point $-1 -78.752403332621242 -47.737651026770514 -11.877581071231901 #
vertex $-1 $502 $721 #
straight-curve $-1 78.752403332621242 -47.737651026770514 0 0 0 -1 I I #
edge $-1 $653 96.998042740290785 $656 108.8639690325748 $506 $722 forward 7 unknown #
vertex $-1 $520 $723 #
straight-curve $-1 47.145171069582418 -21.033737682817559 16.340825074360367 1 0 0 I I #
edge $-1 $656 -14.900340907432955 $517 2.6335473566637475 $516 $724 forward 7 unknown #
vertex $-1 $655 $725 #
straight-curve $-1 -24.580045687719945 -21.033737682817559 123.3452866089611 -0.65605901945558964 0 0.75470958851134928 I I #
point $-1 68.437511238029686 -21.033737682817559 16.340825074360367 #
point $-1 78.752403332621242 -3.4998494187208564 4.4748987820763517 #
straight-curve $-1 78.752403332621242 0 16.340825074360367 0 1 0 I I #
vertex $-1 $523 $726 #
point $-1 69.85785371827393 -16.024055321647072 3.8467149954344868 #
vertex $-1 $527 $727 #
point $-1 69.85785371827393 -8.5095317798913399 3.8467149954344868 #
edge $-1 $666 96.998042740290785 $669 108.8639690325748 $532 $728 forward 7 unknown #
vertex $-1 $546 $729 #
straight-curve $-1 47.145171069582418 23.944407378435521 16.340825074360367 1 0 0 I I #
edge $-1 $669 7.5887316231935849 $543 25.122619887290288 $542 $730 forward 7 unknown #
vertex $-1 $668 $731 #
straight-curve $-1 -24.580045687719945 23.944407378435521 123.3452866089611 -0.65605901945558964 0 0.75470958851134928 I I #
point $-1 68.437511238029686 23.944407378435521 16.340825074360367 #
point $-1 78.752403332621242 41.478295642532224 4.4748987820763517 #
straight-curve $-1 78.752403332621242 0 16.340825074360367 0 1 0 I I #
vertex $-1 $549 $732 #
point $-1 69.85785371827393 28.954089739605998 3.8467149954344868 #
vertex $-1 $553 $733 #
point $-1 69.85785371827393 36.468613281361733 3.8467149954344868 #
coedge $-1 $568 $567 $560 $679 forward $557 $-1 #
edge $-1 $680 38.54325081575481 $683 42.08556408822551 $678 $734 forward 7 unknown #
vertex $-1 $572 $735 #
straight-curve $-1 -101.43394301484506 5.8338307712195245 16.340825074360367 -1 0 0 I I #
edge $-1 $683 -6.1100784044653444 $569 6.6625736709569843 $568 $736 forward 7 unknown #
vertex $-1 $682 $737 #
straight-curve $-1 -78.752403332621256 5.8338307712195245 12.798511801889646 0.61566146476048833 0 0.78801076186113728 I I #
point $-1 -75.984844964739281 5.8338307712195245 16.340825074360367 #
point $-1 -78.752403332621242 -6.9388213042028042 12.798511801889664 #
straight-curve $-1 -78.752403332621242 0 16.340825074360367 0 -1 0 I I #
vertex $-1 $575 $738 #
point $-1 -73.775226164444518 -4.3842908891183399 13.031216522089371 #
vertex $-1 $579 $739 #
point $-1 -73.775226164444518 -0.55249526649163982 13.031216522089371 #
vertex $-1 $583 $740 #
point $-1 -73.775226164444518 3.2793003561350602 13.031216522089371 #
coedge $-1 $598 $597 $590 $695 forward $587 $-1 #
edge $-1 $696 38.54325081575481 $699 42.08556408822551 $694 $741 forward 7 unknown #
vertex $-1 $602 $742 #
straight-curve $-1 -101.43394301484506 27.383379263917462 16.340825074360367 -1 0 0 I I #
edge $-1 $699 -16.884852650814313 $599 -4.1122005753919844 $598 $743 forward 7 unknown #
vertex $-1 $698 $744 #
straight-curve $-1 -78.752403332621256 27.383379263917462 12.798511801889646 0.61566146476048833 0 0.78801076186113728 I I #
point $-1 -75.984844964739281 27.383379263917462 16.340825074360367 #
point $-1 -78.752403332621242 14.610727188495133 12.798511801889664 #
straight-curve $-1 -78.752403332621242 0 16.340825074360367 0 -1 0 I I #
vertex $-1 $605 $745 #
point $-1 -73.775226164444518 17.165257603579597 13.031216522089371 #
vertex $-1 $609 $746 #
point $-1 -73.775226164444518 20.997053226206297 13.031216522089371 #
vertex $-1 $613 $747 #
point $-1 -73.775226164444518 24.828848848832997 13.031216522089371 #
straight-curve $-1 -78.752403332621242 47.737651026770514 0 0 0 -1 I I #
point $-1 -78.752403332621242 -47.737651026770514 -16.340825074360367 #
straight-curve $-1 -78.752403332621242 0 -16.340825074360367 0 1 0 I I #
point $-1 -78.752403332621242 47.737651026770514 -16.340825074360367 #
edge $-1 $650 -78.752403332621242 $716 78.752403332621242 $647 $748 forward 7 unknown #
straight-curve $-1 78.752403332621242 0 -16.340825074360367 0 -1 0 I I #
vertex $-1 $638 $749 #
straight-curve $-1 -78.752403332621242 0 -16.340825074360367 0 1 0 I I #
point $-1 -78.752403332621242 -27.293093067055857 -16.340825074360367 #
straight-curve $-1 -78.752403332621242 -27.293093067055857 -7.0546015363980672 0 0 -1 I I #
straight-curve $-1 -78.752403332621242 -47.737651026770514 0 0 0 -1 I I #
point $-1 78.752403332621242 -47.737651026770514 -16.340825074360367 #
straight-curve $-1 78.752403332621242 -21.033737682817559 113.33886781465115 0 0 -1 I I #
point $-1 78.752403332621242 -21.033737682817559 16.340825074360367 #
straight-curve $-1 78.752403332621242 -6.1333967753846039 4.4748987820763446 0 1 0 I I #
point $-1 78.752403332621242 -21.033737682817559 4.4748987820763517 #
point $-1 66.330932198356578 -16.024055321647072 4.0933414180738854 #
point $-1 66.330932198356578 -8.5095317798913399 4.0933414180738854 #
straight-curve $-1 78.752403332621242 23.944407378435521 113.33886781465115 0 0 -1 I I #
point $-1 78.752403332621242 23.944407378435521 16.340825074360367 #
straight-curve $-1 78.752403332621242 16.355675755241936 4.4748987820763446 0 1 0 I I #
point $-1 78.752403332621242 23.944407378435521 4.4748987820763517 #
point $-1 66.330932198356578 28.954089739605998 4.0933414180738854 #
point $-1 66.330932198356578 36.468613281361733 4.0933414180738854 #
straight-curve $-1 -78.752403332621242 5.8338307712195245 54.884075890115177 0 0 -1 I I #
point $-1 -78.752403332621242 5.8338307712195245 16.340825074360367 #
straight-curve $-1 -78.752403332621242 -0.27624763324581991 12.798511801889658 0 -1 0 I I #
point $-1 -78.752403332621242 5.8338307712195245 12.798511801889664 #
point $-1 -73.602876867343866 -4.3842908891183399 11.627544295467745 #
point $-1 -73.602876867343866 -0.55249526649163982 11.627544295467745 #
point $-1 -73.602876867343866 3.2793003561350602 11.627544295467745 #
straight-curve $-1 -78.752403332621242 27.383379263917462 54.884075890115177 0 0 -1 I I #
point $-1 -78.752403332621242 27.383379263917462 16.340825074360367 #
straight-curve $-1 -78.752403332621242 10.498526613103149 12.798511801889658 0 -1 0 I I #
point $-1 -78.752403332621242 27.383379263917462 12.798511801889664 #
point $-1 -73.602876867343866 17.165257603579597 11.627544295467745 #
point $-1 -73.602876867343866 20.997053226206297 11.627544295467745 #
point $-1 -73.602876867343866 24.828848848832997 11.627544295467745 #
straight-curve $-1 0 -47.737651026770514 -16.340825074360367 -1 0 0 I I #
point $-1 -78.752403332621242 -47.737651026770514 -16.340825074360367 #
End-of-ACIS-data 