500 0 3 0           
7 Unknown 11 ACIS 5.0 NT 24 Thu Mar 25 19:02:43 1999 
-1 9.9999999999999995e-007 1e-010 
body $-1 $3 $-1 $4 #
body $-1 $5 $-1 $6 #
body $-1 $7 $-1 $8 #
lump $-1 $-1 $9 $0 #
transform $-1 1 0 0 0 1 0 0 0 1 58.964201788384656 35.576825923553578 17.332722973675484 1 rotate no_reflect no_shear #
lump $-1 $-1 $10 $1 #
transform $-1 1 0 0 0 1 0 0 0 1 58.964201788384656 35.576825923553578 17.332722973675484 1 rotate no_reflect no_shear #
lump $-1 $-1 $11 $2 #
transform $-1 1 0 0 0 1 0 0 0 1 58.964201788384656 35.576825923553578 17.332722973675484 1 rotate no_reflect no_shear #
shell $-1 $-1 $-1 $12 $-1 $3 #
shell $-1 $-1 $-1 $13 $-1 $5 #
shell $-1 $-1 $-1 $14 $-1 $7 #
face $-1 $15 $16 $9 $-1 $17 forward single #
face $-1 $18 $19 $10 $-1 $20 forward single #
face $-1 $21 $22 $11 $-1 $23 forward single #
face $-1 $24 $25 $9 $-1 $26 reversed single #
loop $-1 $-1 $27 $12 #
plane-surface $-1 0 0 17.332722973675484 0 0 1 1 0 0 forward_v I I I I #
face $-1 $28 $29 $10 $-1 $30 forward single #
loop $-1 $-1 $31 $13 #
plane-surface $-1 -45.249798895867762 -27.073323372509016 0 1 0 0 0 0 -1 forward_v I I I I #
face $-1 $32 $33 $11 $-1 $34 reversed single #
loop $-1 $-1 $35 $14 #
plane-surface $-1 0 43.089702022712068 -10.725372814546468 0 0 1 1 0 0 forward_v I I I I #
face $-1 $36 $37 $9 $-1 $38 reversed single #
loop $-1 $-1 $39 $15 #
plane-surface $-1 0 0 -17.332722973675484 0 0 1 1 0 0 forward_v I I I I #
coedge $-1 $40 $41 $42 $43 forward $16 $-1 #
face $-1 $44 $45 $10 $-1 $46 forward single #
loop $-1 $-1 $47 $18 #
plane-surface $-1 -40.352869578908603 -18.569820821464454 0 0 -1 0 0 0 -1 forward_v I I I I #
coedge $-1 $48 $49 $50 $51 reversed $19 $-1 #
face $-1 $52 $53 $11 $-1 $54 forward single #
loop $-1 $-1 $55 $21 #
plane-surface $-1 0 50.602578121870557 -14.029047894110976 0 -1 0 0 0 -1 forward_v I I I I #
coedge $-1 $56 $57 $58 $59 forward $22 $-1 #
face $-1 $60 $61 $9 $-1 $62 reversed single #
loop $-1 $-1 $63 $24 #
plane-surface $-1 0 -35.576825923553578 0 0 1 0 0 0 1 forward_v I I I I #
coedge $-1 $64 $65 $66 $67 forward $25 $-1 #
coedge $-1 $68 $27 $69 $70 forward $16 $-1 #
coedge $-1 $27 $68 $71 $72 forward $16 $-1 #
coedge $-1 $73 $74 $27 $43 reversed $75 $-1 #
edge $-1 $76 -35.576825923553578 $77 35.576825923553578 $42 $78 forward 7 unknown #
face $-1 $79 $80 $10 $-1 $81 forward single #
loop $-1 $-1 $82 $28 #
plane-surface $-1 -35.455940261949443 -27.073323372509016 0 -1 0 0 0 0 1 forward_v I I I I #
coedge $-1 $83 $84 $85 $86 reversed $29 $-1 #
coedge $-1 $87 $31 $88 $89 reversed $19 $-1 #
coedge $-1 $31 $87 $90 $91 reversed $19 $-1 #
coedge $-1 $84 $83 $31 $51 forward $29 $-1 #
edge $-1 $92 -17.332722973675484 $93 17.332722973675484 $50 $94 forward 7 unknown #
face $-1 $95 $96 $11 $-1 $97 forward single #
loop $-1 $-1 $98 $32 #
plane-surface $-1 -45.249798895867762 -27.073323372509016 0 1 0 0 0 0 -1 forward_v I I I I #
coedge $-1 $99 $100 $101 $102 forward $33 $-1 #
coedge $-1 $103 $35 $100 $104 forward $22 $-1 #
coedge $-1 $35 $103 $105 $106 reversed $22 $-1 #
coedge $-1 $107 $101 $35 $59 reversed $108 $-1 #
edge $-1 $109 -7.5128760991584898 $110 7.5128760991584898 $58 $111 forward 7 unknown #
face $-1 $112 $113 $9 $-1 $114 reversed single #
loop $-1 $-1 $115 $36 #
plane-surface $-1 -58.964201788384656 0 0 1 0 0 0 0 -1 forward_v I I I I #
coedge $-1 $116 $71 $117 $118 forward $37 $-1 #
coedge $-1 $119 $39 $116 $120 forward $25 $-1 #
coedge $-1 $39 $119 $121 $122 forward $25 $-1 #
coedge $-1 $74 $73 $39 $67 reversed $75 $-1 #
edge $-1 $123 -35.576825923553578 $124 35.576825923553578 $66 $125 forward 7 unknown #
coedge $-1 $41 $40 $126 $127 forward $16 $-1 #
coedge $-1 $128 $129 $40 $70 reversed $113 $-1 #
edge $-1 $77 -58.964201788384656 $130 58.964201788384656 $69 $131 forward 7 unknown #
coedge $-1 $63 $132 $41 $72 reversed $37 $-1 #
edge $-1 $133 -58.964201788384656 $76 58.964201788384656 $71 $134 forward 7 unknown #
coedge $-1 $66 $42 $132 $135 forward $75 $-1 #
coedge $-1 $42 $66 $128 $136 reversed $75 $-1 #
loop $-1 $-1 $73 $112 #
vertex $-1 $43 $137 #
vertex $-1 $43 $138 #
straight-curve $-1 58.964201788384656 0 17.332722973675484 0 1 0 I I #
face $-1 $139 $140 $10 $-1 $141 reversed single #
loop $-1 $-1 $88 $44 #
plane-surface $-1 0 0 17.332722973675484 0 0 1 1 0 0 forward_v I I I I #
coedge $-1 $142 $143 $144 $145 reversed $45 $-1 #
coedge $-1 $50 $47 $146 $147 reversed $29 $-1 #
coedge $-1 $47 $50 $148 $149 reversed $29 $-1 #
coedge $-1 $143 $142 $47 $86 forward $45 $-1 #
edge $-1 $150 -17.332722973675484 $151 17.332722973675484 $85 $152 forward 7 unknown #
coedge $-1 $49 $48 $153 $154 reversed $19 $-1 #
coedge $-1 $146 $155 $48 $89 forward $80 $-1 #
edge $-1 $156 -22.04016423729907 $92 -5.0331591352099458 $88 $157 forward 7 unknown #
coedge $-1 $158 $148 $49 $91 forward $159 $-1 #
edge $-1 $93 5.0331591352099458 $160 22.04016423729907 $90 $161 forward 7 unknown #
vertex $-1 $89 $162 #
vertex $-1 $91 $163 #
straight-curve $-1 -45.249798895867762 -18.569820821464454 0 0 0 -1 I I #
face $-1 $164 $165 $11 $-1 $166 forward single #
loop $-1 $-1 $167 $52 #
plane-surface $-1 -40.352869578908603 -18.569820821464454 0 0 -1 0 0 0 -1 forward_v I I I I #
coedge $-1 $168 $169 $170 $171 reversed $53 $-1 #
coedge $-1 $172 $55 $173 $174 reversed $33 $-1 #
coedge $-1 $55 $172 $56 $104 reversed $33 $-1 #
coedge $-1 $58 $175 $55 $102 reversed $108 $-1 #
edge $-1 $110 -3.303675079564508 $176 3.303675079564508 $101 $177 forward 7 unknown #
coedge $-1 $57 $56 $178 $179 forward $22 $-1 #
edge $-1 $110 -58.964201788384656 $180 58.964201788384656 $100 $181 forward 7 unknown #
coedge $-1 $182 $183 $57 $106 forward $184 $-1 #
edge $-1 $109 -58.964201788384656 $185 58.964201788384656 $105 $186 forward 7 unknown #
coedge $-1 $187 $58 $183 $188 reversed $108 $-1 #
loop $-1 $-1 $189 $190 #
vertex $-1 $188 $191 #
vertex $-1 $59 $192 #
straight-curve $-1 58.964201788384656 43.089702022712068 -10.725372814546468 0 1 0 I I #
face $-1 $-1 $75 $9 $-1 $193 reversed single #
loop $-1 $-1 $128 $60 #
plane-surface $-1 0 35.576825923553578 0 0 -1 0 0 0 -1 forward_v I I I I #
coedge $-1 $194 $126 $129 $195 forward $61 $-1 #
coedge $-1 $132 $63 $64 $120 reversed $37 $-1 #
coedge $-1 $126 $194 $63 $118 reversed $61 $-1 #
edge $-1 $133 -17.332722973675484 $196 17.332722973675484 $117 $197 forward 7 unknown #
coedge $-1 $65 $64 $194 $198 forward $25 $-1 #
edge $-1 $124 -58.964201788384656 $196 58.964201788384656 $116 $199 forward 7 unknown #
coedge $-1 $129 $128 $65 $122 reversed $113 $-1 #
edge $-1 $200 -58.964201788384656 $123 58.964201788384656 $121 $201 forward 7 unknown #
vertex $-1 $67 $202 #
vertex $-1 $135 $203 #
straight-curve $-1 58.964201788384656 0 -17.332722973675484 0 -1 0 I I #
coedge $-1 $115 $117 $68 $127 reversed $61 $-1 #
edge $-1 $130 -35.576825923553578 $133 35.576825923553578 $126 $204 forward 7 unknown #
coedge $-1 $121 $69 $74 $136 forward $113 $-1 #
coedge $-1 $69 $121 $115 $195 reversed $113 $-1 #
vertex $-1 $70 $205 #
straight-curve $-1 0 35.576825923553578 17.332722973675484 -1 0 0 I I #
coedge $-1 $71 $116 $73 $135 reversed $37 $-1 #
vertex $-1 $127 $206 #
straight-curve $-1 0 -35.576825923553578 17.332722973675484 1 0 0 I I #
edge $-1 $76 -17.332722973675484 $124 17.332722973675484 $73 $207 forward 7 unknown #
edge $-1 $77 -17.332722973675484 $123 17.332722973675484 $74 $208 forward 7 unknown #
point $-1 58.964201788384656 -35.576825923553578 17.332722973675484 #
point $-1 58.964201788384656 35.576825923553578 17.332722973675484 #
face $-1 $209 $159 $10 $-1 $210 reversed single #
loop $-1 $-1 $144 $79 #
plane-surface $-1 0 -35.576825923553578 0 0 1 0 0 0 1 forward_v I I I I #
coedge $-1 $85 $82 $211 $212 reversed $45 $-1 #
coedge $-1 $82 $85 $213 $214 reversed $45 $-1 #
coedge $-1 $215 $216 $82 $145 forward $140 $-1 #
edge $-1 $217 -17.332722973675484 $218 17.332722973675484 $144 $219 forward 7 unknown #
coedge $-1 $211 $88 $83 $147 forward $80 $-1 #
edge $-1 $92 -25.073364106413461 $150 -15.279505472495142 $146 $220 forward 7 unknown #
coedge $-1 $90 $213 $84 $149 forward $159 $-1 #
edge $-1 $151 15.279505472495142 $93 25.073364106413461 $148 $221 forward 7 unknown #
vertex $-1 $147 $222 #
vertex $-1 $149 $223 #
straight-curve $-1 -35.455940261949443 -18.569820821464454 0 0 0 -1 I I #
coedge $-1 $224 $225 $87 $154 forward $226 $-1 #
edge $-1 $160 -17.332722973675484 $156 17.332722973675484 $153 $227 forward 7 unknown #
coedge $-1 $88 $228 $224 $229 forward $80 $-1 #
vertex $-1 $154 $230 #
straight-curve $-1 -45.249798895867762 -13.536661686254508 17.332722973675484 0 1 0 I I #
coedge $-1 $231 $90 $225 $232 forward $159 $-1 #
loop $-1 $-1 $90 $139 #
vertex $-1 $232 $233 #
straight-curve $-1 -45.249798895867762 -13.536661686254508 -17.332722973675484 0 -1 0 I I #
point $-1 -45.249798895867762 -18.569820821464454 17.332722973675484 #
point $-1 -45.249798895867762 -18.569820821464454 -17.332722973675484 #
face $-1 $234 $235 $11 $-1 $236 forward single #
loop $-1 $-1 $237 $95 #
plane-surface $-1 -35.455940261949443 -27.073323372509016 0 -1 0 0 0 0 1 forward_v I I I I #
coedge $-1 $238 $239 $240 $241 reversed $96 $-1 #
coedge $-1 $242 $98 $243 $244 reversed $53 $-1 #
coedge $-1 $98 $242 $245 $246 reversed $53 $-1 #
coedge $-1 $239 $238 $98 $171 forward $96 $-1 #
edge $-1 $247 -17.332722973675484 $248 17.332722973675484 $170 $249 forward 7 unknown #
coedge $-1 $100 $99 $250 $251 reversed $33 $-1 #
coedge $-1 $252 $253 $99 $174 forward $254 $-1 #
edge $-1 $255 -58.964201788384656 $176 58.964201788384656 $99 $256 forward 7 unknown #
coedge $-1 $101 $189 $252 $257 reversed $108 $-1 #
vertex $-1 $257 $258 #
straight-curve $-1 58.964201788384656 50.602578121870557 -14.029047894110976 0 0 -1 I I #
coedge $-1 $250 $259 $103 $179 reversed $260 $-1 #
edge $-1 $180 -7.5128760991584898 $185 7.5128760991584898 $178 $261 forward 7 unknown #
vertex $-1 $104 $262 #
straight-curve $-1 0 50.602578121870557 -10.725372814546468 -1 0 0 I I #
coedge $-1 $263 $105 $259 $264 reversed $184 $-1 #
coedge $-1 $105 $263 $107 $188 forward $184 $-1 #
loop $-1 $-1 $105 $265 #
vertex $-1 $179 $266 #
straight-curve $-1 0 35.576825923553578 -10.725372814546468 -1 0 0 I I #
coedge $-1 $189 $107 $267 $268 reversed $108 $-1 #
edge $-1 $269 -17.332722973675484 $109 10.725372814546468 $107 $270 forward 7 unknown #
coedge $-1 $175 $187 $271 $272 forward $108 $-1 #
face $-1 $-1 $108 $11 $-1 $273 reversed single #
point $-1 58.964201788384656 35.576825923553578 -10.725372814546468 #
point $-1 58.964201788384656 50.602578121870557 -10.725372814546468 #
plane-surface $-1 58.964201788384656 0 0 -1 0 0 0 0 1 forward_v I I I I #
coedge $-1 $117 $115 $119 $198 reversed $61 $-1 #
edge $-1 $130 -17.332722973675484 $200 17.332722973675484 $129 $274 forward 7 unknown #
vertex $-1 $198 $275 #
straight-curve $-1 -58.964201788384656 -35.576825923553578 0 0 0 -1 I I #
edge $-1 $196 -35.576825923553578 $200 35.576825923553578 $194 $276 forward 7 unknown #
straight-curve $-1 0 -35.576825923553578 -17.332722973675484 -1 0 0 I I #
vertex $-1 $122 $277 #
straight-curve $-1 0 35.576825923553578 -17.332722973675484 1 0 0 I I #
point $-1 58.964201788384656 35.576825923553578 -17.332722973675484 #
point $-1 58.964201788384656 -35.576825923553578 -17.332722973675484 #
straight-curve $-1 -58.964201788384656 0 17.332722973675484 0 -1 0 I I #
point $-1 -58.964201788384656 35.576825923553578 17.332722973675484 #
point $-1 -58.964201788384656 -35.576825923553578 17.332722973675484 #
straight-curve $-1 58.964201788384656 -35.576825923553578 0 0 0 -1 I I #
straight-curve $-1 58.964201788384656 35.576825923553578 0 0 0 -1 I I #
face $-1 $278 $226 $10 $-1 $141 reversed single #
plane-surface $-1 0 0 -17.332722973675484 0 0 1 1 0 0 forward_v I I I I #
coedge $-1 $279 $146 $142 $212 forward $80 $-1 #
edge $-1 $150 5.0331591352099458 $217 22.04016423729907 $211 $280 forward 7 unknown #
coedge $-1 $148 $281 $143 $214 forward $159 $-1 #
edge $-1 $218 -22.04016423729907 $151 -5.0331591352099458 $213 $282 forward 7 unknown #
coedge $-1 $283 $144 $281 $284 reversed $140 $-1 #
coedge $-1 $144 $283 $279 $285 reversed $140 $-1 #
vertex $-1 $285 $286 #
vertex $-1 $145 $287 #
straight-curve $-1 -35.455940261949443 -35.576825923553578 0 0 0 -1 I I #
straight-curve $-1 -20.176434789454301 -18.569820821464454 17.332722973675484 1 0 0 I I #
straight-curve $-1 -20.176434789454301 -18.569820821464454 -17.332722973675484 -1 0 0 I I #
point $-1 -35.455940261949443 -18.569820821464454 17.332722973675484 #
point $-1 -35.455940261949443 -18.569820821464454 -17.332722973675484 #
coedge $-1 $288 $153 $155 $229 reversed $226 $-1 #
coedge $-1 $153 $288 $158 $232 reversed $226 $-1 #
loop $-1 $-1 $153 $209 #
straight-curve $-1 -45.249798895867762 -35.576825923553578 0 0 0 1 I I #
coedge $-1 $155 $289 $290 $291 forward $80 $-1 #
edge $-1 $292 -58.964201788384656 $156 -45.249798895867762 $224 $293 forward 7 unknown #
point $-1 -45.249798895867762 -35.576825923553578 17.332722973675484 #
coedge $-1 $294 $158 $295 $296 forward $159 $-1 #
edge $-1 $160 45.249798895867762 $297 58.964201788384656 $225 $298 forward 7 unknown #
point $-1 -45.249798895867762 -35.576825923553578 -17.332722973675484 #
face $-1 $299 $300 $11 $-1 $301 reversed single #
loop $-1 $-1 $243 $164 #
plane-surface $-1 0 0 17.332722973675484 0 0 1 1 0 0 forward_v I I I I #
coedge $-1 $302 $303 $304 $305 reversed $165 $-1 #
coedge $-1 $170 $167 $306 $307 reversed $96 $-1 #
coedge $-1 $167 $170 $308 $309 reversed $96 $-1 #
coedge $-1 $303 $302 $167 $241 forward $165 $-1 #
edge $-1 $310 -17.332722973675484 $311 17.332722973675484 $240 $312 forward 7 unknown #
coedge $-1 $169 $168 $313 $314 reversed $53 $-1 #
coedge $-1 $306 $315 $168 $244 forward $235 $-1 #
edge $-1 $316 -22.04016423729907 $247 -5.0331591352099458 $243 $317 forward 7 unknown #
coedge $-1 $318 $308 $169 $246 forward $254 $-1 #
edge $-1 $248 5.0331591352099458 $319 22.04016423729907 $245 $320 forward 7 unknown #
vertex $-1 $244 $321 #
vertex $-1 $246 $322 #
straight-curve $-1 -45.249798895867762 -18.569820821464454 0 0 0 -1 I I #
coedge $-1 $323 $178 $172 $251 forward $260 $-1 #
edge $-1 $180 -3.303675079564508 $255 3.303675079564508 $172 $324 forward 7 unknown #
coedge $-1 $325 $173 $175 $257 forward $254 $-1 #
coedge $-1 $173 $318 $323 $326 forward $254 $-1 #
loop $-1 $-1 $245 $299 #
vertex $-1 $174 $327 #
straight-curve $-1 0 50.602578121870557 -17.332722973675484 1 0 0 I I #
edge $-1 $176 -50.602578121870557 $328 35.576825923553578 $175 $329 forward 7 unknown #
point $-1 58.964201788384656 50.602578121870557 -17.332722973675484 #
coedge $-1 $178 $330 $182 $264 forward $260 $-1 #
loop $-1 $-1 $259 $331 #
straight-curve $-1 -58.964201788384656 43.089702022712068 -10.725372814546468 0 -1 0 I I #
point $-1 -58.964201788384656 50.602578121870557 -10.725372814546468 #
coedge $-1 $183 $182 $332 $333 reversed $184 $-1 #
edge $-1 $334 -17.332722973675484 $185 10.725372814546468 $182 $335 forward 7 unknown #
face $-1 $190 $184 $11 $-1 $336 reversed single #
point $-1 -58.964201788384656 35.576825923553578 -10.725372814546468 #
coedge $-1 $332 $337 $187 $268 forward $235 $-1 #
edge $-1 $338 -35.576825923553578 $269 35.576825923553578 $187 $339 forward 7 unknown #
vertex $-1 $268 $340 #
straight-curve $-1 58.964201788384656 35.576825923553578 0 0 0 -1 I I #
coedge $-1 $341 $342 $189 $272 reversed $300 $-1 #
edge $-1 $338 -17.332722973675484 $328 17.332722973675484 $189 $343 forward 7 unknown #
plane-surface $-1 58.964201788384656 0 0 -1 0 0 0 0 1 forward_v I I I I #
straight-curve $-1 -58.964201788384656 35.576825923553578 0 0 0 -1 I I #
point $-1 -58.964201788384656 -35.576825923553578 -17.332722973675484 #
straight-curve $-1 -58.964201788384656 0 -17.332722973675484 0 1 0 I I #
point $-1 -58.964201788384656 35.576825923553578 -17.332722973675484 #
face $-1 $344 $345 $10 $-1 $346 reversed single #
coedge $-1 $347 $211 $216 $285 forward $80 $-1 #
straight-curve $-1 -35.455940261949443 -13.536661686254508 17.332722973675484 0 -1 0 I I #
coedge $-1 $213 $348 $215 $284 forward $159 $-1 #
straight-curve $-1 -35.455940261949443 -13.536661686254508 -17.332722973675484 0 1 0 I I #
coedge $-1 $216 $215 $349 $350 reversed $140 $-1 #
edge $-1 $351 -58.964201788384656 $218 35.455940261949443 $215 $298 forward 7 unknown #
edge $-1 $217 -35.455940261949443 $352 58.964201788384656 $216 $293 forward 7 unknown #
point $-1 -35.455940261949443 -35.576825923553578 17.332722973675484 #
point $-1 -35.455940261949443 -35.576825923553578 -17.332722973675484 #
coedge $-1 $225 $224 $353 $354 forward $226 $-1 #
coedge $-1 $228 $347 $355 $356 forward $80 $-1 #
coedge $-1 $357 $353 $228 $291 reversed $345 $-1 #
edge $-1 $358 -35.576825923553578 $292 35.576825923553578 $290 $359 forward 7 unknown #
vertex $-1 $291 $360 #
straight-curve $-1 0 -35.576825923553578 17.332722973675484 1 0 0 I I #
coedge $-1 $348 $231 $361 $362 forward $159 $-1 #
coedge $-1 $353 $357 $231 $296 reversed $345 $-1 #
edge $-1 $297 -35.576825923553578 $363 35.576825923553578 $295 $364 forward 7 unknown #
vertex $-1 $296 $365 #
straight-curve $-1 0 -35.576825923553578 -17.332722973675484 -1 0 0 I I #
face $-1 $366 $254 $11 $-1 $367 reversed single #
loop $-1 $-1 $304 $234 #
plane-surface $-1 0 -35.576825923553578 0 0 1 0 0 0 1 forward_v I I I I #
coedge $-1 $240 $237 $368 $369 reversed $165 $-1 #
coedge $-1 $237 $240 $370 $371 reversed $165 $-1 #
coedge $-1 $342 $341 $237 $305 forward $300 $-1 #
edge $-1 $372 -17.332722973675484 $373 17.332722973675484 $304 $374 forward 7 unknown #
coedge $-1 $368 $243 $238 $307 forward $235 $-1 #
edge $-1 $247 -25.073364106413461 $310 -15.279505472495142 $306 $375 forward 7 unknown #
coedge $-1 $245 $370 $239 $309 forward $254 $-1 #
edge $-1 $311 15.279505472495142 $248 25.073364106413461 $308 $376 forward 7 unknown #
vertex $-1 $307 $377 #
vertex $-1 $309 $378 #
straight-curve $-1 -35.455940261949443 -18.569820821464454 0 0 0 -1 I I #
coedge $-1 $379 $380 $242 $314 forward $381 $-1 #
edge $-1 $319 -17.332722973675484 $316 17.332722973675484 $313 $382 forward 7 unknown #
coedge $-1 $243 $383 $379 $384 forward $235 $-1 #
vertex $-1 $314 $385 #
straight-curve $-1 -45.249798895867762 -13.536661686254508 17.332722973675484 0 1 0 I I #
coedge $-1 $253 $245 $380 $386 forward $254 $-1 #
vertex $-1 $386 $387 #
straight-curve $-1 -45.249798895867762 -13.536661686254508 -17.332722973675484 0 -1 0 I I #
point $-1 -45.249798895867762 -18.569820821464454 17.332722973675484 #
point $-1 -45.249798895867762 -18.569820821464454 -17.332722973675484 #
coedge $-1 $388 $250 $253 $326 reversed $260 $-1 #
straight-curve $-1 -58.964201788384656 50.602578121870557 -14.029047894110976 0 0 -1 I I #
coedge $-1 $370 $252 $342 $389 forward $254 $-1 #
edge $-1 $390 -78.666527946265646 $255 7.5128760991584898 $323 $391 forward 7 unknown #
point $-1 -58.964201788384656 50.602578121870557 -17.332722973675484 #
vertex $-1 $272 $392 #
straight-curve $-1 58.964201788384656 0 -17.332722973675484 0 -1 0 I I #
coedge $-1 $259 $388 $383 $393 reversed $260 $-1 #
face $-1 $265 $260 $11 $-1 $394 reversed single #
coedge $-1 $383 $267 $263 $333 forward $235 $-1 #
edge $-1 $269 -58.964201788384656 $334 58.964201788384656 $263 $395 forward 7 unknown #
vertex $-1 $333 $396 #
straight-curve $-1 -58.964201788384656 35.576825923553578 0 0 0 -1 I I #
plane-surface $-1 0 35.576825923553578 0 0 -1 0 0 0 -1 forward_v I I I I #
coedge $-1 $267 $368 $341 $397 forward $235 $-1 #
vertex $-1 $268 $398 #
straight-curve $-1 58.964201788384656 0 17.332722973675484 0 1 0 I I #
point $-1 58.964201788384656 35.576825923553578 17.332722973675484 #
coedge $-1 $304 $271 $337 $397 reversed $300 $-1 #
coedge $-1 $271 $304 $325 $389 reversed $300 $-1 #
straight-curve $-1 58.964201788384656 -35.576825923553578 0 0 0 -1 I I #
face $-1 $399 $400 $10 $-1 $401 reversed single #
loop $-1 $-1 $357 $278 #
plane-surface $-1 -58.964201788384656 0 0 1 0 0 0 0 -1 forward_v I I I I #
coedge $-1 $289 $279 $402 $403 forward $80 $-1 #
coedge $-1 $281 $294 $404 $405 forward $159 $-1 #
coedge $-1 $404 $402 $283 $350 forward $406 $-1 #
edge $-1 $352 -17.332722973675484 $351 17.332722973675484 $349 $407 forward 7 unknown #
vertex $-1 $350 $408 #
vertex $-1 $403 $409 #
coedge $-1 $290 $295 $288 $354 reversed $345 $-1 #
edge $-1 $292 -17.332722973675484 $297 17.332722973675484 $353 $410 forward 7 unknown #
coedge $-1 $411 $412 $289 $356 reversed $400 $-1 #
edge $-1 $413 -58.964201788384656 $358 58.964201788384656 $355 $414 forward 7 unknown #
coedge $-1 $295 $290 $412 $415 forward $345 $-1 #
vertex $-1 $356 $416 #
straight-curve $-1 -58.964201788384656 0 17.332722973675484 0 -1 0 I I #
point $-1 -58.964201788384656 -35.576825923553578 17.332722973675484 #
coedge $-1 $412 $411 $294 $362 reversed $400 $-1 #
edge $-1 $363 -58.964201788384656 $417 58.964201788384656 $361 $418 forward 7 unknown #
vertex $-1 $362 $419 #
straight-curve $-1 -58.964201788384656 0 -17.332722973675484 0 1 0 I I #
point $-1 -58.964201788384656 -35.576825923553578 -17.332722973675484 #
face $-1 $331 $381 $11 $-1 $301 reversed single #
plane-surface $-1 0 0 -17.332722973675484 0 0 1 1 0 0 forward_v I I I I #
coedge $-1 $337 $306 $302 $369 forward $235 $-1 #
edge $-1 $310 5.0331591352099458 $372 22.04016423729907 $368 $420 forward 7 unknown #
coedge $-1 $308 $325 $303 $371 forward $254 $-1 #
edge $-1 $373 -22.04016423729907 $311 -5.0331591352099458 $370 $421 forward 7 unknown #
vertex $-1 $397 $422 #
vertex $-1 $305 $423 #
straight-curve $-1 -35.455940261949443 -35.576825923553578 0 0 0 -1 I I #
straight-curve $-1 -20.176434789454301 -18.569820821464454 17.332722973675484 1 0 0 I I #
straight-curve $-1 -20.176434789454301 -18.569820821464454 -17.332722973675484 -1 0 0 I I #
point $-1 -35.455940261949443 -18.569820821464454 17.332722973675484 #
point $-1 -35.455940261949443 -18.569820821464454 -17.332722973675484 #
coedge $-1 $424 $313 $315 $384 reversed $381 $-1 #
coedge $-1 $313 $424 $318 $386 reversed $381 $-1 #
loop $-1 $-1 $313 $366 #
straight-curve $-1 -45.249798895867762 -35.576825923553578 0 0 0 1 I I #
coedge $-1 $315 $332 $330 $393 forward $235 $-1 #
edge $-1 $425 -58.964201788384656 $316 -45.249798895867762 $379 $426 forward 7 unknown #
point $-1 -45.249798895867762 -35.576825923553578 17.332722973675484 #
edge $-1 $319 45.249798895867762 $390 58.964201788384656 $380 $427 forward 7 unknown #
point $-1 -45.249798895867762 -35.576825923553578 -17.332722973675484 #
coedge $-1 $330 $323 $424 $428 reversed $260 $-1 #
edge $-1 $328 -58.964201788384656 $373 35.455940261949443 $342 $427 forward 7 unknown #
vertex $-1 $326 $429 #
straight-curve $-1 -58.964201788384656 43.089702022712068 -17.332722973675484 0 1 0 I I #
point $-1 58.964201788384656 -35.576825923553578 -17.332722973675484 #
edge $-1 $334 -35.576825923553578 $425 35.576825923553578 $330 $430 forward 7 unknown #
plane-surface $-1 -58.964201788384656 0 0 1 0 0 0 0 -1 forward_v I I I I #
straight-curve $-1 0 35.576825923553578 17.332722973675484 -1 0 0 I I #
point $-1 -58.964201788384656 35.576825923553578 17.332722973675484 #
edge $-1 $372 -35.455940261949443 $338 58.964201788384656 $341 $426 forward 7 unknown #
point $-1 58.964201788384656 -35.576825923553578 17.332722973675484 #
face $-1 $-1 $406 $10 $-1 $431 reversed single #
loop $-1 $-1 $411 $344 #
plane-surface $-1 0 35.576825923553578 0 0 -1 0 0 0 -1 forward_v I I I I #
coedge $-1 $349 $432 $347 $403 reversed $406 $-1 #
edge $-1 $352 -35.576825923553578 $413 35.576825923553578 $402 $433 forward 7 unknown #
coedge $-1 $432 $349 $348 $405 reversed $406 $-1 #
edge $-1 $417 -35.576825923553578 $351 35.576825923553578 $404 $434 forward 7 unknown #
loop $-1 $-1 $349 $399 #
straight-curve $-1 58.964201788384656 -35.576825923553578 0 0 0 -1 I I #
point $-1 58.964201788384656 -35.576825923553578 -17.332722973675484 #
point $-1 58.964201788384656 -35.576825923553578 17.332722973675484 #
straight-curve $-1 -58.964201788384656 -35.576825923553578 0 0 0 -1 I I #
coedge $-1 $361 $355 $432 $435 forward $400 $-1 #
coedge $-1 $355 $361 $357 $415 reversed $400 $-1 #
vertex $-1 $403 $436 #
straight-curve $-1 0 35.576825923553578 17.332722973675484 -1 0 0 I I #
edge $-1 $358 -17.332722973675484 $363 17.332722973675484 $412 $437 forward 7 unknown #
point $-1 -58.964201788384656 35.576825923553578 17.332722973675484 #
vertex $-1 $405 $438 #
straight-curve $-1 0 35.576825923553578 -17.332722973675484 1 0 0 I I #
point $-1 -58.964201788384656 35.576825923553578 -17.332722973675484 #
straight-curve $-1 -35.455940261949443 -13.536661686254508 17.332722973675484 0 -1 0 I I #
straight-curve $-1 -35.455940261949443 -13.536661686254508 -17.332722973675484 0 1 0 I I #
point $-1 -35.455940261949443 -35.576825923553578 17.332722973675484 #
point $-1 -35.455940261949443 -35.576825923553578 -17.332722973675484 #
coedge $-1 $380 $379 $388 $428 forward $381 $-1 #
vertex $-1 $393 $439 #
straight-curve $-1 0 -35.576825923553578 17.332722973675484 1 0 0 I I #
straight-curve $-1 0 -35.576825923553578 -17.332722973675484 -1 0 0 I I #
edge $-1 $425 -17.332722973675484 $390 17.332722973675484 $388 $440 forward 7 unknown #
point $-1 -58.964201788384656 -35.576825923553578 -17.332722973675484 #
straight-curve $-1 -58.964201788384656 0 17.332722973675484 0 -1 0 I I #
plane-surface $-1 58.964201788384656 0 0 -1 0 0 0 0 1 forward_v I I I I #
coedge $-1 $402 $404 $411 $435 reversed $406 $-1 #
straight-curve $-1 58.964201788384656 0 17.332722973675484 0 1 0 I I #
straight-curve $-1 58.964201788384656 0 -17.332722973675484 0 -1 0 I I #
edge $-1 $413 -17.332722973675484 $417 17.332722973675484 $432 $441 forward 7 unknown #
point $-1 58.964201788384656 35.576825923553578 17.332722973675484 #
straight-curve $-1 -58.964201788384656 35.576825923553578 0 0 0 -1 I I #
point $-1 58.964201788384656 35.576825923553578 -17.332722973675484 #
point $-1 -58.964201788384656 -35.576825923553578 17.332722973675484 #
straight-curve $-1 -58.964201788384656 -35.576825923553578 0 0 0 -1 I I #
straight-curve $-1 58.964201788384656 35.576825923553578 0 0 0 -1 I I #
End-of-ACIS-data 