500 0 10 0           
7 Unknown 11 ACIS 5.0 NT 24 Thu Mar 25 18:09:09 1999 
-1 9.9999999999999995e-007 1e-010 
body $-1 $10 $-1 $11 #
body $-1 $12 $-1 $13 #
body $-1 $14 $-1 $15 #
body $-1 $16 $-1 $17 #
body $-1 $18 $-1 $19 #
body $-1 $20 $-1 $21 #
body $-1 $22 $-1 $23 #
body $-1 $24 $-1 $25 #
body $-1 $26 $-1 $27 #
body $-1 $28 $-1 $29 #
lump $-1 $-1 $30 $0 #
transform $-1 1 0 0 0 1 0 0 0 1 71.559801019318215 38.556945798399767 11.313857788538284 1 rotate no_reflect no_shear #
lump $-1 $-1 $31 $1 #
transform $-1 1 0 0 0 1 0 0 0 1 71.559801019318215 38.556945798399767 11.313857788538284 1 rotate no_reflect no_shear #
lump $-1 $-1 $32 $2 #
transform $-1 1 0 0 0 1 0 0 0 1 71.559801019318215 38.556945798399767 11.313857788538284 1 rotate no_reflect no_shear #
lump $-1 $-1 $33 $3 #
transform $-1 1 0 0 0 1 0 0 0 1 71.559801019318215 38.556945798399767 11.313857788538284 1 rotate no_reflect no_shear #
lump $-1 $-1 $34 $4 #
transform $-1 1 0 0 0 1 0 0 0 1 71.559801019318215 38.556945798399767 11.313857788538284 1 rotate no_reflect no_shear #
lump $-1 $-1 $35 $5 #
transform $-1 1 0 0 0 1 0 0 0 1 71.559801019318215 38.556945798399767 11.313857788538284 1 rotate no_reflect no_shear #
lump $-1 $-1 $36 $6 #
transform $-1 1 0 0 0 1 0 0 0 1 71.559801019318215 38.556945798399767 11.313857788538284 1 rotate no_reflect no_shear #
lump $-1 $-1 $37 $7 #
transform $-1 1 0 0 0 1 0 0 0 1 71.559801019318215 38.556945798399767 11.313857788538284 1 rotate no_reflect no_shear #
lump $-1 $-1 $38 $8 #
transform $-1 1 0 0 0 1 0 0 0 1 71.559801019318215 38.556945798399767 11.313857788538284 1 rotate no_reflect no_shear #
lump $-1 $-1 $39 $9 #
transform $-1 1 0 0 0 1 0 0 0 1 71.559801019318215 38.556945798399767 11.313857788538284 1 rotate no_reflect no_shear #
shell $-1 $-1 $-1 $40 $-1 $10 #
shell $-1 $-1 $-1 $41 $-1 $12 #
shell $-1 $-1 $-1 $42 $-1 $14 #
shell $-1 $-1 $-1 $43 $-1 $16 #
shell $-1 $-1 $-1 $44 $-1 $18 #
shell $-1 $-1 $-1 $45 $-1 $20 #
shell $-1 $-1 $-1 $46 $-1 $22 #
shell $-1 $-1 $-1 $47 $-1 $24 #
shell $-1 $-1 $-1 $48 $-1 $26 #
shell $-1 $-1 $-1 $49 $-1 $28 #
face $-1 $50 $51 $30 $-1 $52 forward single #
face $-1 $53 $54 $31 $-1 $55 reversed single #
face $-1 $56 $57 $32 $-1 $58 reversed single #
face $-1 $59 $60 $33 $-1 $61 forward single #
face $-1 $62 $63 $34 $-1 $64 forward single #
face $-1 $65 $66 $35 $-1 $67 forward single #
face $-1 $68 $69 $36 $-1 $70 reversed single #
face $-1 $71 $72 $37 $-1 $73 forward single #
face $-1 $74 $75 $38 $-1 $76 forward single #
face $-1 $77 $78 $39 $-1 $79 forward single #
face $-1 $80 $81 $30 $-1 $82 reversed single #
loop $-1 $-1 $83 $40 #
plane-surface $-1 0 0 11.313857788538284 0 0 1 1 0 0 forward_v I I I I #
face $-1 $84 $85 $31 $-1 $86 reversed single #
loop $-1 $-1 $87 $41 #
plane-surface $-1 -62.572956477144814 -33.079587753463343 0 1 0 0 0 0 -1 forward_v I I I I #
face $-1 $88 $89 $32 $-1 $90 reversed single #
loop $-1 $-1 $91 $42 #
plane-surface $-1 64.496086419883071 14.999349174338256 203.86392188326869 0 -1 0 -0.68199836817093118 0 -0.7313536940579346 forward_v I I I I #
face $-1 $92 $93 $33 $-1 $94 forward single #
loop $-1 $95 $96 $43 #
cone-surface $-1 65.872850814055141 8.118488021545339 5.9448509589322249 -0.68199836817093118 0 -0.7313536940579346 0.3656768470289673 0 -0.34099918408546559 1 I I 0 1 0.5 forward I I I I #
face $-1 $97 $98 $34 $-1 $99 forward single #
loop $-1 $100 $101 $44 #
cone-surface $-1 65.872850814055141 10.698810953842681 5.9448509589322249 -0.68199836817093118 0 -0.7313536940579346 0.3656768470289673 0 -0.34099918408546559 1 I I 0 1 0.5 forward I I I I #
face $-1 $102 $103 $35 $-1 $104 forward single #
loop $-1 $105 $106 $45 #
cone-surface $-1 65.872850814055141 13.279133886140023 5.9448509589322249 -0.68199836817093118 0 -0.7313536940579346 0.3656768470289673 0 -0.34099918408546559 1 I I 0 1 0.5 forward I I I I #
face $-1 $107 $108 $36 $-1 $109 reversed single #
loop $-1 $-1 $110 $46 #
plane-surface $-1 -190.21132963402576 23.915591350678625 86.493371811249744 0 1 0 -0.82903758062907751 0 0.55919289150049634 forward_v I I I I #
face $-1 $111 $112 $37 $-1 $113 forward single #
loop $-1 $114 $115 $47 #
cone-surface $-1 -69.392316537434169 26.843862240222848 8.5296218081146744 0.82903758062907751 0 -0.55919289150049634 0.55919289150049634 0 0.82903758062907751 1 I I 0 1 1 forward I I I I #
face $-1 $116 $117 $38 $-1 $118 forward single #
loop $-1 $119 $120 $48 #
cone-surface $-1 -69.392316537434169 31.236268574539196 8.5296218081146744 0.82903758062907751 0 -0.55919289150049634 0.55919289150049634 0 0.82903758062907751 1 I I 0 1 1 forward I I I I #
face $-1 $121 $122 $39 $-1 $123 forward single #
loop $-1 $124 $125 $49 #
cone-surface $-1 -69.392316537434169 35.628674908855544 8.5296218081146744 0.82903758062907751 0 -0.55919289150049634 0.55919289150049634 0 0.82903758062907751 1 I I 0 1 1 forward I I I I #
face $-1 $126 $127 $30 $-1 $128 reversed single #
loop $-1 $-1 $129 $50 #
plane-surface $-1 0 0 -11.313857788538284 0 0 1 1 0 0 forward_v I I I I #
coedge $-1 $130 $131 $132 $133 forward $51 $-1 #
face $-1 $134 $135 $31 $-1 $136 reversed single #
loop $-1 $-1 $137 $53 #
plane-surface $-1 -60.475747674941296 -27.602229708526917 0 0 -1 0 0 0 -1 forward_v I I I I #
coedge $-1 $138 $139 $140 $141 forward $54 $-1 #
face $-1 $142 $143 $32 $-1 $144 reversed single #
loop $-1 $-1 $145 $56 #
plane-surface $-1 -33.111248623740053 10.698810953842681 99.192872240210434 0.68199836817093118 0 0.7313536940579346 0.7313536940579346 0 -0.68199836817093118 forward_v I I I I #
coedge $-1 $146 $147 $148 $149 reversed $57 $-1 #
face $-1 $-1 $150 $33 $-1 $151 forward single #
loop $-1 $152 $153 $59 #
cone-surface $-1 65.231574202753208 8.118488021545339 5.2571660017871711 -0.68199836817093118 0 -0.7313536940579346 0.18283842351448365 0 -0.17049959204273279 1 I I -0.70710678118654746 0.70710678118654746 0.25 forward I I I I #
loop $-1 $-1 $154 $43 #
coedge $-1 $96 $96 $155 $156 reversed $60 $-1 #
face $-1 $-1 $157 $34 $-1 $158 forward single #
loop $-1 $159 $160 $62 #
cone-surface $-1 65.231574202753208 10.698810953842681 5.2571660017871711 -0.68199836817093118 0 -0.7313536940579346 0.18283842351448365 0 -0.17049959204273279 1 I I -0.70710678118654746 0.70710678118654746 0.25 forward I I I I #
loop $-1 $-1 $161 $44 #
coedge $-1 $101 $101 $162 $163 reversed $63 $-1 #
face $-1 $-1 $164 $35 $-1 $165 forward single #
loop $-1 $166 $167 $65 #
cone-surface $-1 65.231574202753208 13.279133886140023 5.2571660017871711 -0.68199836817093118 0 -0.7313536940579346 0.18283842351448365 0 -0.17049959204273279 1 I I -0.70710678118654746 0.70710678118654746 0.25 forward I I I I #
loop $-1 $-1 $168 $45 #
coedge $-1 $106 $106 $169 $170 reversed $66 $-1 #
face $-1 $171 $172 $36 $-1 $173 forward single #
loop $-1 $-1 $174 $68 #
plane-surface $-1 -71.559801019318229 31.236268574539196 6.4619077168643031 -0.82903758062907751 0 0.55919289150049634 0.55919289150049634 0 0.82903758062907751 forward_v I I I I #
coedge $-1 $175 $176 $177 $178 reversed $69 $-1 #
face $-1 $-1 $179 $37 $-1 $180 forward single #
loop $-1 $181 $182 $71 #
cone-surface $-1 -68.446654037590335 26.843862240222848 7.8917644177778019 0.82903758062907751 0 -0.55919289150049634 0.27959644575024817 0 0.41451879031453875 1 I I -0.70710678118654746 0.70710678118654746 0.5 forward I I I I #
loop $-1 $-1 $183 $47 #
coedge $-1 $115 $115 $184 $185 reversed $72 $-1 #
face $-1 $-1 $186 $38 $-1 $187 forward single #
loop $-1 $188 $189 $74 #
cone-surface $-1 -68.446654037590335 31.236268574539196 7.8917644177778019 0.82903758062907751 0 -0.55919289150049634 0.27959644575024817 0 0.41451879031453875 1 I I -0.70710678118654746 0.70710678118654746 0.5 forward I I I I #
loop $-1 $-1 $190 $48 #
coedge $-1 $120 $120 $191 $192 reversed $75 $-1 #
face $-1 $-1 $193 $39 $-1 $194 forward single #
loop $-1 $195 $196 $77 #
cone-surface $-1 -68.446654037590335 35.628674908855544 7.8917644177778019 0.82903758062907751 0 -0.55919289150049634 0.27959644575024817 0 0.41451879031453875 1 I I -0.70710678118654746 0.70710678118654746 0.5 forward I I I I #
loop $-1 $-1 $197 $49 #
coedge $-1 $125 $125 $198 $199 reversed $78 $-1 #
face $-1 $200 $201 $30 $-1 $202 reversed single #
loop $-1 $-1 $203 $80 #
plane-surface $-1 0 -38.556945798399767 0 0 1 0 0 0 1 forward_v I I I I #
coedge $-1 $204 $205 $206 $207 forward $81 $-1 #
coedge $-1 $208 $83 $209 $210 forward $51 $-1 #
coedge $-1 $83 $208 $211 $212 forward $51 $-1 #
coedge $-1 $213 $214 $83 $133 reversed $215 $-1 #
edge $-1 $216 -38.556945798399767 $217 38.556945798399767 $132 $218 forward 7 unknown #
face $-1 $219 $220 $31 $-1 $221 forward single #
loop $-1 $-1 $222 $84 #
plane-surface $-1 -58.378538872737778 -33.079587753463343 0 -1 0 0 0 0 1 forward_v I I I I #
coedge $-1 $223 $224 $225 $226 forward $85 $-1 #
coedge $-1 $227 $87 $228 $229 reversed $54 $-1 #
coedge $-1 $87 $227 $230 $231 reversed $54 $-1 #
coedge $-1 $224 $223 $87 $141 reversed $85 $-1 #
edge $-1 $232 -11.313857788538284 $233 11.313857788538284 $140 $234 forward 7 unknown #
face $-1 $235 $236 $32 $-1 $237 reversed single #
loop $-1 $-1 $238 $88 #
plane-surface $-1 64.496086419883071 6.3982727333471061 203.86392188326869 0 1 0 0.68199836817093118 0 0.7313536940579346 forward_v I I I I #
coedge $-1 $239 $240 $241 $242 reversed $89 $-1 #
coedge $-1 $147 $91 $243 $244 reversed $57 $-1 #
coedge $-1 $91 $146 $239 $245 reversed $57 $-1 #
coedge $-1 $241 $246 $91 $149 forward $247 $-1 #
edge $-1 $248 -39.31175780937668 $249 -28.879411437368923 $148 $250 forward 7 unknown #
loop $-1 $-1 $155 $92 #
plane-surface $-1 -33.111248623740053 10.698810953842681 99.192872240210434 0.68199836817093118 0 0.7313536940579346 0.7313536940579346 0 -0.68199836817093118 forward_v I I I I #
loop $-1 $-1 $251 $59 #
coedge $-1 $153 $153 $154 $252 reversed $93 $-1 #
coedge $-1 $154 $154 $153 $252 forward $95 $-1 #
coedge $-1 $155 $155 $96 $156 forward $150 $-1 #
edge $-1 $253 0 $253 6.2831853071796004 $155 $254 forward 7 unknown #
loop $-1 $-1 $162 $97 #
plane-surface $-1 -33.111248623740053 10.698810953842681 99.192872240210434 0.68199836817093118 0 0.7313536940579346 0.7313536940579346 0 -0.68199836817093118 forward_v I I I I #
loop $-1 $-1 $255 $62 #
coedge $-1 $160 $160 $161 $256 reversed $98 $-1 #
coedge $-1 $161 $161 $160 $256 forward $100 $-1 #
coedge $-1 $162 $162 $101 $163 forward $157 $-1 #
edge $-1 $257 0 $257 6.2831853071796004 $162 $258 forward 7 unknown #
loop $-1 $-1 $169 $102 #
plane-surface $-1 -33.111248623740053 10.698810953842681 99.192872240210434 0.68199836817093118 0 0.7313536940579346 0.7313536940579346 0 -0.68199836817093118 forward_v I I I I #
loop $-1 $-1 $259 $65 #
coedge $-1 $167 $167 $168 $260 reversed $103 $-1 #
coedge $-1 $168 $168 $167 $260 forward $105 $-1 #
coedge $-1 $169 $169 $106 $170 forward $164 $-1 #
edge $-1 $261 0 $261 6.2831853071796004 $169 $262 forward 7 unknown #
face $-1 $263 $264 $36 $-1 $265 reversed single #
loop $-1 $-1 $177 $107 #
plane-surface $-1 0 0 11.313857788538284 0 0 1 1 0 0 forward_v I I I I #
coedge $-1 $266 $267 $268 $269 reversed $108 $-1 #
coedge $-1 $176 $110 $270 $271 reversed $69 $-1 #
coedge $-1 $110 $175 $266 $272 reversed $69 $-1 #
coedge $-1 $268 $273 $110 $178 forward $172 $-1 #
edge $-1 $274 23.545863797694665 $275 26.818545342404178 $177 $276 forward 7 unknown #
loop $-1 $-1 $184 $111 #
plane-surface $-1 -71.559801019318229 31.236268574539196 6.4619077168643031 -0.82903758062907751 0 0.55919289150049634 0.55919289150049634 0 0.82903758062907751 forward_v I I I I #
loop $-1 $-1 $277 $71 #
coedge $-1 $182 $182 $183 $278 reversed $112 $-1 #
coedge $-1 $183 $183 $182 $278 forward $114 $-1 #
coedge $-1 $184 $184 $115 $185 forward $179 $-1 #
edge $-1 $279 0 $279 6.2831853071796004 $184 $280 forward 7 unknown #
loop $-1 $-1 $191 $116 #
plane-surface $-1 -71.559801019318229 31.236268574539196 6.4619077168643031 -0.82903758062907751 0 0.55919289150049634 0.55919289150049634 0 0.82903758062907751 forward_v I I I I #
loop $-1 $-1 $281 $74 #
coedge $-1 $189 $189 $190 $282 reversed $117 $-1 #
coedge $-1 $190 $190 $189 $282 forward $119 $-1 #
coedge $-1 $191 $191 $120 $192 forward $186 $-1 #
edge $-1 $283 0 $283 6.2831853071796004 $191 $284 forward 7 unknown #
loop $-1 $-1 $198 $121 #
plane-surface $-1 -71.559801019318229 31.236268574539196 6.4619077168643031 -0.82903758062907751 0 0.55919289150049634 0.55919289150049634 0 0.82903758062907751 forward_v I I I I #
loop $-1 $-1 $285 $77 #
coedge $-1 $196 $196 $197 $286 reversed $122 $-1 #
coedge $-1 $197 $197 $196 $286 forward $124 $-1 #
coedge $-1 $198 $198 $125 $199 forward $193 $-1 #
edge $-1 $287 0 $287 6.2831853071796004 $198 $288 forward 7 unknown #
face $-1 $289 $290 $30 $-1 $291 reversed single #
loop $-1 $-1 $292 $126 #
plane-surface $-1 -71.559801019318215 0 0 1 0 0 0 0 -1 forward_v I I I I #
coedge $-1 $293 $211 $294 $295 forward $127 $-1 #
coedge $-1 $296 $129 $293 $297 forward $81 $-1 #
coedge $-1 $129 $296 $298 $299 forward $81 $-1 #
coedge $-1 $214 $213 $129 $207 reversed $215 $-1 #
edge $-1 $300 -38.556945798399767 $301 38.556945798399767 $206 $302 forward 7 unknown #
coedge $-1 $131 $130 $303 $304 forward $51 $-1 #
coedge $-1 $305 $306 $130 $210 reversed $290 $-1 #
edge $-1 $217 -71.559801019318215 $307 71.559801019318215 $209 $308 forward 7 unknown #
coedge $-1 $203 $309 $131 $212 reversed $127 $-1 #
edge $-1 $310 -71.559801019318215 $216 71.559801019318215 $211 $311 forward 7 unknown #
coedge $-1 $206 $132 $309 $312 forward $215 $-1 #
coedge $-1 $132 $206 $305 $313 reversed $215 $-1 #
loop $-1 $-1 $213 $289 #
vertex $-1 $133 $314 #
vertex $-1 $133 $315 #
straight-curve $-1 71.559801019318215 0 11.313857788538284 0 1 0 I I #
face $-1 $316 $317 $31 $-1 $318 reversed single #
loop $-1 $-1 $319 $134 #
plane-surface $-1 0 0 11.313857788538284 0 0 1 1 0 0 forward_v I I I I #
coedge $-1 $320 $321 $322 $323 reversed $135 $-1 #
coedge $-1 $140 $137 $324 $325 reversed $85 $-1 #
coedge $-1 $137 $140 $326 $327 reversed $85 $-1 #
coedge $-1 $321 $320 $137 $226 reversed $135 $-1 #
edge $-1 $328 -11.313857788538284 $329 11.313857788538284 $225 $330 forward 7 unknown #
coedge $-1 $139 $138 $331 $332 reversed $54 $-1 #
coedge $-1 $324 $333 $138 $229 forward $317 $-1 #
edge $-1 $334 -22.017151921668095 $233 -11.062435831795245 $228 $335 forward 7 unknown #
coedge $-1 $336 $326 $139 $231 forward $220 $-1 #
edge $-1 $232 11.062435831795245 $337 22.017151921668095 $230 $338 forward 7 unknown #
vertex $-1 $231 $339 #
vertex $-1 $229 $340 #
straight-curve $-1 -62.572956477144814 -27.602229708526917 0 0 0 -1 I I #
face $-1 $-1 $247 $32 $-1 $341 forward single #
loop $-1 $-1 $342 $142 #
plane-surface $-1 71.559801019318215 0 0 -1 0 0 0 0 1 forward_v I I I I #
coedge $-1 $343 $344 $345 $346 reversed $143 $-1 #
coedge $-1 $347 $145 $147 $245 forward $89 $-1 #
coedge $-1 $145 $347 $343 $348 forward $89 $-1 #
coedge $-1 $345 $148 $145 $242 forward $247 $-1 #
edge $-1 $249 -9.6499436974169157 $349 -1.0488672564257655 $241 $350 forward 7 unknown #
coedge $-1 $351 $352 $146 $244 forward $236 $-1 #
edge $-1 $353 -100.34642374504703 $248 -90.618103153096058 $243 $354 forward 7 unknown #
edge $-1 $249 128.85516821302244 $353 143.11960203863643 $147 $355 forward 7 unknown #
coedge $-1 $148 $345 $351 $356 forward $247 $-1 #
loop $-1 $-1 $345 $235 #
vertex $-1 $244 $357 #
vertex $-1 $149 $358 #
straight-curve $-1 32.248043209941535 14.999349174338256 11.313857788538286 -1 0 0 I I #
coedge $-1 $251 $251 $-1 $359 reversed $152 $-1 #
edge $-1 $360 0 $360 6.2831853071796004 $153 $361 forward 7 unknown #
vertex $-1 $156 $362 #
ellipse-curve $-1 66.343627833314343 8.118488021545339 6.4496974925627963 0.68199836817093118 0 0.7313536940579346 0.3656768470289673 0 -0.34099918408546559 1 I I #
coedge $-1 $255 $255 $-1 $363 reversed $159 $-1 #
edge $-1 $364 0 $364 6.2831853071796004 $160 $365 forward 7 unknown #
vertex $-1 $163 $366 #
ellipse-curve $-1 66.343627833314343 10.698810953842681 6.4496974925627963 0.68199836817093118 0 0.7313536940579346 0.3656768470289673 0 -0.34099918408546559 1 I I #
coedge $-1 $259 $259 $-1 $367 reversed $166 $-1 #
edge $-1 $368 0 $368 6.2831853071796004 $167 $369 forward 7 unknown #
vertex $-1 $170 $370 #
ellipse-curve $-1 66.343627833314343 13.279133886140023 6.4496974925627963 0.68199836817093118 0 0.7313536940579346 0.3656768470289673 0 -0.34099918408546559 1 I I #
face $-1 $-1 $371 $36 $-1 $372 reversed single #
loop $-1 $-1 $373 $171 #
plane-surface $-1 0 38.556945798399767 0 0 -1 0 0 0 -1 forward_v I I I I #
coedge $-1 $374 $174 $176 $272 forward $108 $-1 #
coedge $-1 $174 $374 $373 $375 reversed $108 $-1 #
coedge $-1 $376 $177 $174 $269 forward $172 $-1 #
edge $-1 $275 8.297457063409027 $377 22.938811511130169 $268 $378 forward 7 unknown #
coedge $-1 $379 $380 $175 $271 forward $371 $-1 #
edge $-1 $381 -36.784778188760548 $274 -31.932828117086586 $270 $382 forward 7 unknown #
edge $-1 $275 -5.8525092047001079 $381 -2.5618607856530852e-014 $176 $383 forward 7 unknown #
coedge $-1 $177 $376 $379 $384 forward $172 $-1 #
vertex $-1 $271 $385 #
vertex $-1 $178 $386 #
straight-curve $-1 -95.10566481701288 23.915591350678625 11.313857788538286 1 0 0 I I #
coedge $-1 $277 $277 $-1 $387 reversed $181 $-1 #
edge $-1 $388 0 $388 6.2831853071796004 $182 $389 forward 7 unknown #
vertex $-1 $185 $390 #
ellipse-curve $-1 -69.923460246963458 26.843862240222848 8.8878827527013016 -0.82903758062907751 0 0.55919289150049634 0.55919289150049634 0 0.82903758062907751 1 I I #
coedge $-1 $281 $281 $-1 $391 reversed $188 $-1 #
edge $-1 $392 0 $392 6.2831853071796004 $189 $393 forward 7 unknown #
vertex $-1 $192 $394 #
ellipse-curve $-1 -69.923460246963458 31.236268574539196 8.8878827527013016 -0.82903758062907751 0 0.55919289150049634 0.55919289150049634 0 0.82903758062907751 1 I I #
coedge $-1 $285 $285 $-1 $395 reversed $195 $-1 #
edge $-1 $396 0 $396 6.2831853071796004 $196 $397 forward 7 unknown #
vertex $-1 $199 $398 #
ellipse-curve $-1 -69.923460246963458 35.628674908855544 8.8878827527013016 -0.82903758062907751 0 0.55919289150049634 0.55919289150049634 0 0.82903758062907751 1 I I #
face $-1 $-1 $215 $30 $-1 $399 reversed single #
loop $-1 $-1 $305 $200 #
plane-surface $-1 0 38.556945798399767 0 0 -1 0 0 0 -1 forward_v I I I I #
coedge $-1 $400 $303 $306 $401 forward $201 $-1 #
coedge $-1 $309 $203 $204 $297 reversed $127 $-1 #
coedge $-1 $303 $400 $203 $295 reversed $201 $-1 #
edge $-1 $310 -11.313857788538284 $402 11.313857788538284 $294 $403 forward 7 unknown #
coedge $-1 $205 $204 $400 $404 forward $81 $-1 #
edge $-1 $301 -71.559801019318215 $402 71.559801019318215 $293 $405 forward 7 unknown #
coedge $-1 $306 $305 $205 $299 reversed $290 $-1 #
edge $-1 $406 -71.559801019318215 $300 71.559801019318215 $298 $407 forward 7 unknown #
vertex $-1 $207 $408 #
vertex $-1 $312 $409 #
straight-curve $-1 71.559801019318215 0 -11.313857788538284 0 -1 0 I I #
coedge $-1 $292 $294 $208 $304 reversed $201 $-1 #
edge $-1 $307 -38.556945798399767 $310 38.556945798399767 $303 $410 forward 7 unknown #
coedge $-1 $298 $209 $214 $313 forward $290 $-1 #
coedge $-1 $209 $298 $292 $401 reversed $290 $-1 #
vertex $-1 $210 $411 #
straight-curve $-1 0 38.556945798399767 11.313857788538284 -1 0 0 I I #
coedge $-1 $211 $293 $213 $312 reversed $127 $-1 #
vertex $-1 $304 $412 #
straight-curve $-1 0 -38.556945798399767 11.313857788538284 1 0 0 I I #
edge $-1 $216 -11.313857788538284 $301 11.313857788538284 $213 $413 forward 7 unknown #
edge $-1 $217 -11.313857788538284 $300 11.313857788538284 $214 $414 forward 7 unknown #
point $-1 71.559801019318215 -38.556945798399767 11.313857788538284 #
point $-1 71.559801019318215 38.556945798399767 11.313857788538284 #
face $-1 $-1 $415 $31 $-1 $416 reversed single #
loop $-1 $-1 $417 $219 #
plane-surface $-1 0 0 -11.313857788538284 0 0 1 1 0 0 forward_v I I I I #
coedge $-1 $326 $336 $321 $418 forward $220 $-1 #
coedge $-1 $225 $222 $417 $419 reversed $135 $-1 #
coedge $-1 $222 $225 $319 $418 reversed $135 $-1 #
coedge $-1 $420 $421 $222 $323 forward $415 $-1 #
edge $-1 $422 -11.313857788538284 $423 11.313857788538284 $322 $424 forward 7 unknown #
coedge $-1 $417 $228 $223 $325 forward $317 $-1 #
edge $-1 $233 -32.33508263967417 $329 -28.14066503526713 $324 $425 forward 7 unknown #
coedge $-1 $230 $319 $224 $327 forward $220 $-1 #
edge $-1 $328 28.14066503526713 $232 32.33508263967417 $326 $426 forward 7 unknown #
vertex $-1 $327 $427 #
vertex $-1 $325 $428 #
straight-curve $-1 -58.378538872737778 -27.602229708526917 0 0 0 -1 I I #
coedge $-1 $421 $420 $227 $332 forward $415 $-1 #
edge $-1 $337 -11.313857788538284 $334 11.313857788538284 $331 $429 forward 7 unknown #
coedge $-1 $228 $417 $421 $430 forward $317 $-1 #
vertex $-1 $229 $431 #
straight-curve $-1 -62.572956477144814 -16.539793876731672 -11.313857788538284 0 1 0 I I #
coedge $-1 $319 $230 $420 $432 forward $220 $-1 #
vertex $-1 $432 $433 #
straight-curve $-1 -62.572956477144814 -16.539793876731672 11.313857788538284 0 -1 0 I I #
point $-1 -62.572956477144814 -27.602229708526917 11.313857788538284 #
point $-1 -62.572956477144814 -27.602229708526917 -11.313857788538284 #
plane-surface $-1 0 0 11.313857788538284 0 0 1 1 0 0 forward_v I I I I #
coedge $-1 $352 $351 $344 $434 forward $236 $-1 #
coedge $-1 $344 $238 $240 $348 reversed $143 $-1 #
coedge $-1 $238 $343 $342 $434 reversed $143 $-1 #
coedge $-1 $246 $241 $238 $346 forward $247 $-1 #
edge $-1 $349 28.879411437368923 $435 39.31175780937668 $345 $436 forward 7 unknown #
coedge $-1 $240 $239 $352 $437 reversed $89 $-1 #
edge $-1 $438 -143.11960203863643 $349 -128.85516821302244 $343 $439 forward 7 unknown #
vertex $-1 $242 $440 #
straight-curve $-1 61.127454647310472 5.3494054769213406 11.313857788538286 0 -1 0 I I #
coedge $-1 $342 $243 $246 $356 reversed $236 $-1 #
coedge $-1 $243 $342 $347 $437 forward $236 $-1 #
vertex $-1 $244 $441 #
straight-curve $-1 71.559801019318215 14.999349174338256 101.93196094163434 0 0 1 I I #
straight-curve $-1 -33.111248623740053 14.999349174338256 99.192872240210434 0.7313536940579346 0 -0.68199836817093118 I I #
edge $-1 $435 6.3982727333471061 $248 14.999349174338256 $351 $442 forward 7 unknown #
point $-1 71.559801019318215 14.999349174338256 11.313857788538284 #
point $-1 61.127454647310458 14.999349174338256 11.313857788538286 #
edge $-1 $443 1 $443 0 $251 $-1 forward 7 unknown #
vertex $-1 $252 $444 #
ellipse-curve $-1 65.402073794795939 8.118488021545339 5.4400044253016544 0.68199836817093118 0 0.7313536940579346 0.3656768470289673 0 -0.34099918408546559 1 I I #
point $-1 66.709304680343308 8.118488021545339 6.1086983084773303 #
edge $-1 $445 1 $445 0 $255 $-1 forward 7 unknown #
vertex $-1 $256 $446 #
ellipse-curve $-1 65.402073794795939 10.698810953842681 5.4400044253016544 0.68199836817093118 0 0.7313536940579346 0.3656768470289673 0 -0.34099918408546559 1 I I #
point $-1 66.709304680343308 10.698810953842681 6.1086983084773303 #
edge $-1 $447 1 $447 0 $259 $-1 forward 7 unknown #
vertex $-1 $260 $448 #
ellipse-curve $-1 65.402073794795939 13.279133886140023 5.4400044253016544 0.68199836817093118 0 0.7313536940579346 0.3656768470289673 0 -0.34099918408546559 1 I I #
point $-1 66.709304680343308 13.279133886140023 6.1086983084773303 #
loop $-1 $-1 $270 $263 #
plane-surface $-1 -71.559801019318215 0 0 1 0 0 0 0 -1 forward_v I I I I #
coedge $-1 $449 $450 $267 $375 forward $264 $-1 #
coedge $-1 $267 $266 $380 $451 reversed $108 $-1 #
edge $-1 $377 11.47677464897748 $452 17.329283853677559 $373 $453 forward 7 unknown #
coedge $-1 $273 $268 $450 $454 forward $172 $-1 #
vertex $-1 $454 $455 #
straight-curve $-1 -68.287119474608701 15.618134287269598 11.313857788538284 0 1 0 I I #
coedge $-1 $456 $270 $273 $384 reversed $371 $-1 #
coedge $-1 $270 $456 $374 $451 forward $371 $-1 #
vertex $-1 $271 $457 #
straight-curve $-1 -71.559801019318215 23.915591350678625 43.246685905624872 0 0 1 I I #
straight-curve $-1 -71.559801019318229 23.915591350678625 6.4619077168643031 -0.55919289150049634 0 -0.82903758062907751 I I #
edge $-1 $458 -38.556945798399767 $274 -23.915591350678625 $379 $459 forward 7 unknown #
point $-1 -71.559801019318215 23.915591350678625 11.313857788538284 #
point $-1 -68.287119474608701 23.915591350678625 11.313857788538284 #
edge $-1 $460 1 $460 0 $277 $-1 forward 7 unknown #
vertex $-1 $278 $461 #
ellipse-curve $-1 -68.86117282790488 26.843862240222848 8.1713608635280508 -0.82903758062907751 0 0.55919289150049634 0.55919289150049634 0 0.82903758062907751 1 I I #
point $-1 -69.364267355462957 26.843862240222848 9.7169203333303749 #
edge $-1 $462 1 $462 0 $281 $-1 forward 7 unknown #
vertex $-1 $282 $463 #
ellipse-curve $-1 -68.86117282790488 31.236268574539196 8.1713608635280508 -0.82903758062907751 0 0.55919289150049634 0.55919289150049634 0 0.82903758062907751 1 I I #
point $-1 -69.364267355462957 31.236268574539196 9.7169203333303749 #
edge $-1 $464 1 $464 0 $285 $-1 forward 7 unknown #
vertex $-1 $286 $465 #
ellipse-curve $-1 -68.86117282790488 35.628674908855544 8.1713608635280508 -0.82903758062907751 0 0.55919289150049634 0.55919289150049634 0 0.82903758062907751 1 I I #
point $-1 -69.364267355462957 35.628674908855544 9.7169203333303749 #
plane-surface $-1 71.559801019318215 0 0 -1 0 0 0 0 1 forward_v I I I I #
coedge $-1 $294 $292 $296 $404 reversed $201 $-1 #
edge $-1 $307 -11.313857788538284 $406 11.313857788538284 $306 $466 forward 7 unknown #
vertex $-1 $404 $467 #
straight-curve $-1 -71.559801019318215 -38.556945798399767 0 0 0 -1 I I #
edge $-1 $402 -38.556945798399767 $406 38.556945798399767 $400 $468 forward 7 unknown #
straight-curve $-1 0 -38.556945798399767 -11.313857788538284 -1 0 0 I I #
vertex $-1 $299 $469 #
straight-curve $-1 0 38.556945798399767 -11.313857788538284 1 0 0 I I #
point $-1 71.559801019318215 38.556945798399767 -11.313857788538284 #
point $-1 71.559801019318215 -38.556945798399767 -11.313857788538284 #
straight-curve $-1 -71.559801019318215 0 11.313857788538284 0 -1 0 I I #
point $-1 -71.559801019318215 38.556945798399767 11.313857788538284 #
point $-1 -71.559801019318215 -38.556945798399767 11.313857788538284 #
straight-curve $-1 71.559801019318215 -38.556945798399767 0 0 0 -1 I I #
straight-curve $-1 71.559801019318215 38.556945798399767 0 0 0 -1 I I #
loop $-1 $-1 $322 $316 #
plane-surface $-1 0 -38.556945798399767 0 0 1 0 0 0 1 forward_v I I I I #
coedge $-1 $333 $324 $320 $419 forward $317 $-1 #
edge $-1 $423 -22.017151921668095 $328 -11.062435831795245 $319 $470 forward 7 unknown #
edge $-1 $329 11.062435831795245 $422 22.017151921668095 $417 $471 forward 7 unknown #
coedge $-1 $331 $322 $336 $432 reversed $415 $-1 #
coedge $-1 $322 $331 $333 $430 reversed $415 $-1 #
vertex $-1 $430 $472 #
vertex $-1 $323 $473 #
straight-curve $-1 -58.378538872737778 -38.556945798399767 0 0 0 1 I I #
straight-curve $-1 -30.237873837470648 -27.602229708526917 -11.313857788538284 1 0 0 I I #
straight-curve $-1 -30.237873837470648 -27.602229708526917 11.313857788538284 -1 0 0 I I #
point $-1 -58.378538872737778 -27.602229708526917 11.313857788538284 #
point $-1 -58.378538872737778 -27.602229708526917 -11.313857788538284 #
straight-curve $-1 -62.572956477144814 -38.556945798399767 0 0 0 -1 I I #
edge $-1 $422 58.378538872737778 $334 62.572956477144814 $421 $474 forward 7 unknown #
point $-1 -62.572956477144814 -38.556945798399767 -11.313857788538284 #
edge $-1 $337 -62.572956477144814 $423 -58.378538872737778 $420 $475 forward 7 unknown #
point $-1 -62.572956477144814 -38.556945798399767 11.313857788538284 #
edge $-1 $435 90.618103153096058 $438 100.34642374504703 $342 $476 forward 7 unknown #
vertex $-1 $356 $477 #
straight-curve $-1 32.248043209941535 6.3982727333471061 11.313857788538286 1 0 0 I I #
edge $-1 $438 1.0488672564257655 $353 9.6499436974169157 $352 $478 forward 7 unknown #
vertex $-1 $437 $479 #
straight-curve $-1 -33.111248623740053 6.3982727333471061 99.192872240210434 -0.7313536940579346 0 0.68199836817093118 I I #
point $-1 61.127454647310458 6.3982727333471061 11.313857788538286 #
point $-1 71.559801019318201 14.999349174338256 1.5855371965873104 #
straight-curve $-1 71.559801019318215 0 11.313857788538284 0 1 0 I I #
vertex $-1 $359 $480 #
point $-1 65.767750641824904 8.118488021545339 5.0990052412161893 #
vertex $-1 $363 $481 #
point $-1 65.767750641824904 10.698810953842681 5.0990052412161893 #
vertex $-1 $367 $482 #
point $-1 65.767750641824904 13.279133886140023 5.0990052412161893 #
coedge $-1 $450 $373 $456 $483 reversed $264 $-1 #
coedge $-1 $373 $449 $376 $454 reversed $264 $-1 #
edge $-1 $452 -22.938811511130169 $381 -8.297457063409027 $380 $484 forward 7 unknown #
vertex $-1 $375 $485 #
straight-curve $-1 -61.869388673547398 38.556945798399767 20.828535276951708 -0.55919289150049634 0 -0.82903758062907751 I I #
edge $-1 $377 68.287119474608701 $458 71.559801019318215 $450 $486 forward 7 unknown #
point $-1 -68.287119474608701 38.556945798399767 11.313857788538284 #
coedge $-1 $380 $379 $449 $483 forward $371 $-1 #
point $-1 -71.559801019318215 23.915591350678625 6.4619077168643244 #
vertex $-1 $454 $487 #
straight-curve $-1 -71.559801019318215 0 11.313857788538284 0 -1 0 I I #
vertex $-1 $387 $488 #
point $-1 -68.301979936404379 26.843862240222848 9.0003984441571276 #
vertex $-1 $391 $489 #
point $-1 -68.301979936404379 31.236268574539196 9.0003984441571276 #
vertex $-1 $395 $490 #
point $-1 -68.301979936404379 35.628674908855544 9.0003984441571276 #
straight-curve $-1 -71.559801019318215 38.556945798399767 0 0 0 -1 I I #
point $-1 -71.559801019318215 -38.556945798399767 -11.313857788538284 #
straight-curve $-1 -71.559801019318215 0 -11.313857788538284 0 1 0 I I #
point $-1 -71.559801019318215 38.556945798399767 -11.313857788538284 #
straight-curve $-1 -58.378538872737778 -16.539793876731672 11.313857788538284 0 1 0 I I #
straight-curve $-1 -58.378538872737778 -16.539793876731672 -11.313857788538284 0 -1 0 I I #
point $-1 -58.378538872737778 -38.556945798399767 -11.313857788538284 #
point $-1 -58.378538872737778 -38.556945798399767 11.313857788538284 #
straight-curve $-1 0 -38.556945798399767 -11.313857788538284 -1 0 0 I I #
straight-curve $-1 0 -38.556945798399767 11.313857788538284 1 0 0 I I #
straight-curve $-1 71.559801019318215 6.3982727333471061 101.93196094163434 0 0 -1 I I #
point $-1 71.559801019318215 6.3982727333471061 11.313857788538284 #
straight-curve $-1 71.559801019318215 5.3494054769213406 1.5855371965873104 0 1 0 I I #
point $-1 71.559801019318201 6.3982727333471061 1.5855371965873104 #
point $-1 65.061074610710477 8.118488021545339 5.0743275782726878 #
point $-1 65.061074610710477 10.698810953842681 5.0743275782726878 #
point $-1 65.061074610710477 13.279133886140023 5.0743275782726878 #
edge $-1 $458 -11.313857788538284 $452 -6.4619077168643244 $449 $491 forward 7 unknown #
straight-curve $-1 -71.559801019318215 15.618134287269598 6.461907716864328 0 -1 0 I I #
point $-1 -71.559801019318215 38.556945798399767 6.4619077168643244 #
straight-curve $-1 0 38.556945798399767 11.313857788538284 -1 0 0 I I #
point $-1 -71.559801019318215 38.556945798399767 11.313857788538284 #
point $-1 -68.032135247275789 26.843862240222848 7.6121679720275539 #
point $-1 -68.032135247275789 31.236268574539196 7.6121679720275539 #
point $-1 -68.032135247275789 35.628674908855544 7.6121679720275539 #
straight-curve $-1 -71.559801019318215 38.556945798399767 0 0 0 -1 I I #
End-of-ACIS-data 