500 0 6 0           
7 Unknown 11 ACIS 5.0 NT 24 Fri Mar 26 03:04:11 1999 
-1 9.9999999999999995e-007 1e-010 
body $-1 $6 $-1 $7 #
body $-1 $8 $-1 $9 #
body $-1 $10 $-1 $11 #
body $-1 $12 $-1 $13 #
body $-1 $14 $-1 $15 #
body $-1 $16 $-1 $17 #
lump $-1 $-1 $18 $0 #
transform $-1 1 0 0 0 1 0 0 0 1 62.077089754936367 33.100329501641809 14.727005026568969 1 rotate no_reflect no_shear #
lump $-1 $-1 $19 $1 #
transform $-1 1 0 0 0 1 0 0 0 1 62.077089754936367 33.100329501641809 14.727005026568969 1 rotate no_reflect no_shear #
lump $-1 $-1 $20 $2 #
transform $-1 1 0 0 0 1 0 0 0 1 62.077089754936367 33.100329501641809 14.727005026568969 1 rotate no_reflect no_shear #
lump $-1 $-1 $21 $3 #
transform $-1 1 0 0 0 1 0 0 0 1 62.077089754936367 33.100329501641809 14.727005026568969 1 rotate no_reflect no_shear #
lump $-1 $-1 $22 $4 #
transform $-1 1 0 0 0 1 0 0 0 1 62.077089754936367 33.100329501641809 14.727005026568969 1 rotate no_reflect no_shear #
lump $-1 $-1 $23 $5 #
transform $-1 1 0 0 0 1 0 0 0 1 62.077089754936367 33.100329501641809 14.727005026568969 1 rotate no_reflect no_shear #
shell $-1 $-1 $-1 $24 $-1 $6 #
shell $-1 $-1 $-1 $25 $-1 $8 #
shell $-1 $-1 $-1 $26 $-1 $10 #
shell $-1 $-1 $-1 $27 $-1 $12 #
shell $-1 $-1 $-1 $28 $-1 $14 #
shell $-1 $-1 $-1 $29 $-1 $16 #
face $-1 $30 $31 $18 $-1 $32 forward single #
face $-1 $33 $34 $19 $-1 $35 forward single #
face $-1 $36 $37 $20 $-1 $38 forward single #
face $-1 $39 $40 $21 $-1 $41 reversed single #
face $-1 $42 $43 $22 $-1 $44 forward single #
face $-1 $45 $46 $23 $-1 $47 forward single #
face $-1 $48 $49 $18 $-1 $50 reversed single #
loop $-1 $-1 $51 $24 #
plane-surface $-1 0 0 14.727005026568969 0 0 1 1 0 0 forward_v I I I I #
face $-1 $52 $53 $19 $-1 $54 reversed single #
loop $-1 $-1 $55 $25 #
plane-surface $-1 0 -26.579116213495173 -9.6276778489071084 0 0 1 1 0 0 forward_v I I I I #
face $-1 $56 $57 $20 $-1 $58 reversed single #
loop $-1 $-1 $59 $26 #
plane-surface $-1 0 26.579116213495169 -9.6276778489071084 0 0 1 1 0 0 forward_v I I I I #
face $-1 $60 $61 $21 $-1 $62 reversed single #
loop $-1 $-1 $63 $27 #
plane-surface $-1 -151.38613347767318 -10.876118340601948 90.851866126450034 0 -1 0 0.71933980857756763 0 -0.69465836192734942 forward_v I I I I #
face $-1 $64 $65 $22 $-1 $66 forward single #
loop $-1 $67 $68 $28 #
cone-surface $-1 -56.831093738358476 -15.744734865008724 9.3197369131646823 0.71933980857756763 0 -0.69465836192734942 0.34732918096367471 0 0.35966990428878381 1 I I 0 1 0.5 forward I I I I #
face $-1 $69 $70 $23 $-1 $71 forward single #
loop $-1 $72 $73 $29 #
cone-surface $-1 -56.831093738358476 -12.823564950364656 9.3197369131646823 0.71933980857756763 0 -0.69465836192734942 0.34732918096367471 0 0.35966990428878381 1 I I 0 1 0.5 forward I I I I #
face $-1 $74 $75 $18 $-1 $76 reversed single #
loop $-1 $-1 $77 $30 #
plane-surface $-1 0 0 -14.727005026568969 0 0 1 1 0 0 forward_v I I I I #
coedge $-1 $78 $79 $80 $81 forward $31 $-1 #
face $-1 $82 $83 $19 $-1 $84 reversed single #
loop $-1 $-1 $85 $33 #
plane-surface $-1 0 -20.057902925348536 -12.17734143773804 0 -1 0 0 0 -1 forward_v I I I I #
coedge $-1 $86 $87 $88 $89 reversed $34 $-1 #
face $-1 $90 $91 $20 $-1 $92 reversed single #
loop $-1 $-1 $93 $36 #
plane-surface $-1 0 20.057902925348532 -12.17734143773804 0 1 0 0 0 1 forward_v I I I I #
coedge $-1 $94 $95 $96 $97 reversed $37 $-1 #
face $-1 $98 $99 $21 $-1 $100 reversed single #
loop $-1 $-1 $101 $39 #
plane-surface $-1 -62.077089754936367 -14.284149907686693 4.6071271616877567 -0.71933980857756763 0 0.69465836192734942 0.69465836192734942 0 0.71933980857756763 forward_v I I I I #
coedge $-1 $102 $103 $104 $105 reversed $40 $-1 #
face $-1 $-1 $106 $22 $-1 $107 forward single #
loop $-1 $108 $109 $42 #
cone-surface $-1 -56.2915888819253 -15.744734865008724 8.7987431417191697 0.71933980857756763 0 -0.69465836192734942 0.17366459048183736 0 0.17983495214439191 1 I I -0.70710678118654746 0.70710678118654746 0.25 forward I I I I #
loop $-1 $-1 $110 $28 #
coedge $-1 $68 $68 $111 $112 reversed $43 $-1 #
face $-1 $-1 $113 $23 $-1 $114 forward single #
loop $-1 $115 $116 $45 #
cone-surface $-1 -56.2915888819253 -12.823564950364656 8.7987431417191697 0.71933980857756763 0 -0.69465836192734942 0.17366459048183736 0 0.17983495214439191 1 I I -0.70710678118654746 0.70710678118654746 0.25 forward I I I I #
loop $-1 $-1 $117 $29 #
coedge $-1 $73 $73 $118 $119 reversed $46 $-1 #
face $-1 $120 $121 $18 $-1 $122 reversed single #
loop $-1 $-1 $123 $48 #
plane-surface $-1 0 -33.100329501641809 0 0 1 0 0 0 1 forward_v I I I I #
coedge $-1 $124 $125 $126 $127 forward $49 $-1 #
coedge $-1 $128 $51 $129 $130 forward $31 $-1 #
coedge $-1 $51 $128 $131 $132 forward $31 $-1 #
coedge $-1 $133 $134 $51 $81 reversed $135 $-1 #
edge $-1 $136 -33.100329501641809 $137 33.100329501641809 $80 $138 forward 7 unknown #
face $-1 $139 $140 $19 $-1 $141 reversed single #
loop $-1 $-1 $142 $52 #
plane-surface $-1 0 0 -14.727005026568969 0 0 1 1 0 0 forward_v I I I I #
coedge $-1 $143 $144 $145 $146 reversed $53 $-1 #
coedge $-1 $147 $55 $144 $148 forward $34 $-1 #
coedge $-1 $55 $147 $149 $150 reversed $34 $-1 #
coedge $-1 $151 $145 $55 $89 forward $140 $-1 #
edge $-1 $152 6.7683448186009496 $153 19.810771394894225 $88 $154 forward 7 unknown #
face $-1 $155 $156 $20 $-1 $157 reversed single #
loop $-1 $-1 $96 $56 #
plane-surface $-1 62.077089754936367 0 0 -1 0 0 0 0 1 forward_v I I I I #
coedge $-1 $158 $159 $160 $161 reversed $57 $-1 #
coedge $-1 $162 $59 $163 $164 reversed $37 $-1 #
coedge $-1 $59 $162 $159 $165 forward $37 $-1 #
coedge $-1 $166 $167 $59 $97 forward $91 $-1 #
edge $-1 $168 -19.810771394894225 $169 -6.7683448186009478 $96 $170 forward 7 unknown #
face $-1 $171 $172 $21 $-1 $173 reversed single #
loop $-1 $-1 $174 $60 #
plane-surface $-1 -151.38613347767318 -17.692181474771438 90.851866126450034 0 1 0 -0.71933980857756763 0 0.69465836192734942 forward_v I I I I #
coedge $-1 $175 $176 $177 $178 reversed $61 $-1 #
coedge $-1 $103 $63 $179 $180 reversed $40 $-1 #
coedge $-1 $63 $102 $175 $181 reversed $40 $-1 #
coedge $-1 $177 $182 $63 $105 forward $172 $-1 #
edge $-1 $183 30.698928036656049 $184 40.81880590153726 $104 $185 forward 7 unknown #
loop $-1 $-1 $111 $64 #
plane-surface $-1 -62.077089754936367 -14.284149907686693 4.6071271616877567 -0.71933980857756763 0 0.69465836192734942 0.69465836192734942 0 0.71933980857756763 forward_v I I I I #
loop $-1 $-1 $186 $42 #
coedge $-1 $109 $109 $110 $187 reversed $65 $-1 #
coedge $-1 $110 $110 $109 $187 forward $67 $-1 #
coedge $-1 $111 $111 $68 $112 forward $106 $-1 #
edge $-1 $188 0 $188 6.2831853071796004 $111 $189 forward 7 unknown #
loop $-1 $-1 $118 $69 #
plane-surface $-1 -62.077089754936367 -14.284149907686693 4.6071271616877567 -0.71933980857756763 0 0.69465836192734942 0.69465836192734942 0 0.71933980857756763 forward_v I I I I #
loop $-1 $-1 $190 $45 #
coedge $-1 $116 $116 $117 $191 reversed $70 $-1 #
coedge $-1 $117 $117 $116 $191 forward $72 $-1 #
coedge $-1 $118 $118 $73 $119 forward $113 $-1 #
edge $-1 $192 0 $192 6.2831853071796004 $118 $193 forward 7 unknown #
face $-1 $194 $195 $18 $-1 $196 reversed single #
loop $-1 $-1 $197 $74 #
plane-surface $-1 -62.077089754936367 0 0 1 0 0 0 0 -1 forward_v I I I I #
coedge $-1 $198 $131 $199 $200 forward $75 $-1 #
coedge $-1 $201 $77 $198 $202 forward $49 $-1 #
coedge $-1 $77 $201 $203 $204 forward $49 $-1 #
coedge $-1 $134 $133 $77 $127 reversed $135 $-1 #
edge $-1 $205 -33.100329501641809 $206 33.100329501641809 $126 $207 forward 7 unknown #
coedge $-1 $79 $78 $208 $209 forward $31 $-1 #
coedge $-1 $210 $211 $78 $130 reversed $195 $-1 #
edge $-1 $137 -62.077089754936367 $212 62.077089754936367 $129 $213 forward 7 unknown #
coedge $-1 $123 $214 $79 $132 reversed $75 $-1 #
edge $-1 $215 -62.077089754936367 $136 62.077089754936367 $131 $216 forward 7 unknown #
coedge $-1 $126 $80 $214 $217 forward $135 $-1 #
coedge $-1 $80 $126 $210 $218 reversed $135 $-1 #
loop $-1 $-1 $133 $194 #
vertex $-1 $81 $219 #
vertex $-1 $81 $220 #
straight-curve $-1 62.077089754936367 0 14.727005026568969 0 1 0 I I #
face $-1 $221 $222 $19 $-1 $223 reversed single #
loop $-1 $-1 $145 $82 #
plane-surface $-1 62.077089754936367 0 0 -1 0 0 0 0 1 forward_v I I I I #
coedge $-1 $224 $225 $143 $226 forward $83 $-1 #
coedge $-1 $227 $85 $142 $226 reversed $53 $-1 #
coedge $-1 $85 $227 $86 $148 reversed $53 $-1 #
coedge $-1 $88 $228 $85 $146 forward $140 $-1 #
edge $-1 $229 -8.6383343076999513 $152 -3.5390071300380885 $145 $230 forward 7 unknown #
coedge $-1 $87 $86 $231 $232 reversed $34 $-1 #
edge $-1 $152 -62.077089754936367 $233 62.077089754936367 $144 $234 forward 7 unknown #
coedge $-1 $235 $236 $87 $150 forward $222 $-1 #
edge $-1 $153 -62.077089754936367 $237 62.077089754936367 $149 $238 forward 7 unknown #
coedge $-1 $228 $88 $236 $239 forward $140 $-1 #
vertex $-1 $89 $240 #
vertex $-1 $239 $241 #
straight-curve $-1 62.077089754936367 -13.289558106747586 -9.6276778489071084 0 -1 0 I I #
face $-1 $242 $243 $20 $-1 $244 reversed single #
loop $-1 $-1 $245 $90 #
plane-surface $-1 0 0 -14.727005026568969 0 0 1 1 0 0 forward_v I I I I #
coedge $-1 $246 $93 $245 $247 reversed $57 $-1 #
coedge $-1 $93 $246 $95 $165 reversed $57 $-1 #
coedge $-1 $248 $249 $93 $161 forward $243 $-1 #
edge $-1 $250 -8.6383343076999513 $251 -3.5390071300380885 $160 $252 forward 7 unknown #
coedge $-1 $95 $94 $248 $253 reversed $37 $-1 #
coedge $-1 $254 $255 $94 $164 forward $256 $-1 #
edge $-1 $257 -62.077089754936367 $168 62.077089754936367 $163 $258 forward 7 unknown #
edge $-1 $251 -62.077089754936367 $169 62.077089754936367 $159 $259 forward 7 unknown #
coedge $-1 $260 $96 $246 $261 forward $91 $-1 #
coedge $-1 $96 $260 $254 $262 reversed $91 $-1 #
vertex $-1 $262 $263 #
vertex $-1 $97 $264 #
straight-curve $-1 62.077089754936367 13.289558106747585 -9.6276778489071084 0 -1 0 I I #
face $-1 $-1 $265 $21 $-1 $266 forward single #
loop $-1 $-1 $104 $98 #
plane-surface $-1 -62.077089754936367 0 0 1 0 0 0 0 -1 forward_v I I I I #
coedge $-1 $267 $268 $269 $270 reversed $99 $-1 #
coedge $-1 $271 $101 $103 $181 forward $61 $-1 #
coedge $-1 $101 $271 $267 $272 forward $61 $-1 #
coedge $-1 $269 $104 $101 $178 forward $172 $-1 #
edge $-1 $184 3.7340433867586018 $273 10.550106520928091 $177 $274 forward 7 unknown #
coedge $-1 $275 $276 $102 $180 forward $265 $-1 #
edge $-1 $277 -23.388629208478427 $183 -13.615976983900225 $179 $278 forward 7 unknown #
edge $-1 $184 0 $277 14.068285592163177 $103 $279 forward 7 unknown #
coedge $-1 $104 $269 $275 $280 reversed $172 $-1 #
vertex $-1 $280 $281 #
vertex $-1 $105 $282 #
straight-curve $-1 -62.077089754936367 -10.876118340601948 45.425933063225017 0 0 -1 I I #
coedge $-1 $186 $186 $-1 $283 reversed $108 $-1 #
edge $-1 $284 0 $284 6.2831853071796004 $109 $285 forward 7 unknown #
vertex $-1 $112 $286 #
ellipse-curve $-1 -57.190763642647262 -15.744734865008724 9.6670660941283622 -0.71933980857756763 0 0.69465836192734942 0.34732918096367471 0 0.35966990428878381 1 I I #
coedge $-1 $190 $190 $-1 $287 reversed $115 $-1 #
edge $-1 $288 0 $288 6.2831853071796004 $116 $289 forward 7 unknown #
vertex $-1 $119 $290 #
ellipse-curve $-1 -57.190763642647262 -12.823564950364656 9.6670660941283622 -0.71933980857756763 0 0.69465836192734942 0.34732918096367471 0 0.35966990428878381 1 I I #
face $-1 $-1 $135 $18 $-1 $291 reversed single #
loop $-1 $-1 $210 $120 #
plane-surface $-1 0 33.100329501641809 0 0 -1 0 0 0 -1 forward_v I I I I #
coedge $-1 $292 $208 $211 $293 forward $121 $-1 #
coedge $-1 $214 $123 $124 $202 reversed $75 $-1 #
coedge $-1 $208 $292 $123 $200 reversed $121 $-1 #
edge $-1 $215 -14.727005026568969 $294 14.727005026568969 $199 $295 forward 7 unknown #
coedge $-1 $125 $124 $292 $296 forward $49 $-1 #
edge $-1 $206 -62.077089754936367 $294 62.077089754936367 $198 $297 forward 7 unknown #
coedge $-1 $211 $210 $125 $204 reversed $195 $-1 #
edge $-1 $298 -62.077089754936367 $205 62.077089754936367 $203 $299 forward 7 unknown #
vertex $-1 $127 $300 #
vertex $-1 $217 $301 #
straight-curve $-1 62.077089754936367 0 -14.727005026568969 0 -1 0 I I #
coedge $-1 $197 $199 $128 $209 reversed $121 $-1 #
edge $-1 $212 -33.100329501641809 $215 33.100329501641809 $208 $302 forward 7 unknown #
coedge $-1 $203 $129 $134 $218 forward $195 $-1 #
coedge $-1 $129 $203 $197 $293 reversed $195 $-1 #
vertex $-1 $130 $303 #
straight-curve $-1 0 33.100329501641809 14.727005026568969 -1 0 0 I I #
coedge $-1 $131 $198 $133 $217 reversed $75 $-1 #
vertex $-1 $209 $304 #
straight-curve $-1 0 -33.100329501641809 14.727005026568969 1 0 0 I I #
edge $-1 $136 -14.727005026568969 $206 14.727005026568969 $133 $305 forward 7 unknown #
edge $-1 $137 -14.727005026568969 $205 14.727005026568969 $134 $306 forward 7 unknown #
point $-1 62.077089754936367 -33.100329501641809 14.727005026568969 #
point $-1 62.077089754936367 33.100329501641809 14.727005026568969 #
face $-1 $-1 $307 $19 $-1 $308 reversed single #
loop $-1 $-1 $149 $139 #
plane-surface $-1 0 -33.100329501641809 0 0 1 0 0 0 1 forward_v I I I I #
coedge $-1 $309 $142 $228 $310 forward $83 $-1 #
coedge $-1 $142 $309 $311 $312 forward $83 $-1 #
edge $-1 $313 -62.077089754936367 $229 62.077089754936367 $142 $314 forward 7 unknown #
coedge $-1 $144 $143 $315 $316 reversed $53 $-1 #
coedge $-1 $145 $151 $224 $310 reversed $140 $-1 #
vertex $-1 $310 $317 #
straight-curve $-1 62.077089754936367 -20.057902925348536 -6.0886707188690199 0 0 1 I I #
coedge $-1 $315 $318 $147 $232 forward $307 $-1 #
edge $-1 $237 -19.810771394894225 $233 -6.7683448186009496 $231 $319 forward 7 unknown #
vertex $-1 $232 $320 #
straight-curve $-1 0 -20.057902925348536 -9.6276778489071084 -1 0 0 I I #
coedge $-1 $321 $149 $318 $322 forward $222 $-1 #
coedge $-1 $149 $321 $151 $239 reversed $222 $-1 #
vertex $-1 $322 $323 #
straight-curve $-1 0 -33.100329501641809 -9.6276778489071084 -1 0 0 I I #
edge $-1 $153 9.6276778489071084 $324 14.727005026568969 $151 $325 forward 7 unknown #
point $-1 62.077089754936367 -20.057902925348536 -9.6276778489071084 #
point $-1 62.077089754936367 -33.100329501641809 -9.6276778489071084 #
face $-1 $-1 $256 $20 $-1 $326 reversed single #
loop $-1 $-1 $248 $155 #
plane-surface $-1 -62.077089754936367 0 0 1 0 0 0 0 -1 forward_v I I I I #
coedge $-1 $327 $328 $158 $247 forward $156 $-1 #
coedge $-1 $159 $158 $166 $261 reversed $57 $-1 #
edge $-1 $329 -62.077089754936367 $250 62.077089754936367 $245 $330 forward 7 unknown #
coedge $-1 $331 $160 $162 $253 forward $243 $-1 #
coedge $-1 $160 $331 $327 $332 reversed $243 $-1 #
vertex $-1 $332 $333 #
vertex $-1 $253 $334 #
straight-curve $-1 -62.077089754936367 20.057902925348532 -6.0886707188690199 0 0 1 I I #
edge $-1 $251 6.7683448186009478 $257 19.810771394894225 $248 $335 forward 7 unknown #
coedge $-1 $336 $163 $167 $262 forward $256 $-1 #
coedge $-1 $163 $336 $331 $337 reversed $256 $-1 #
loop $-1 $-1 $163 $242 #
vertex $-1 $337 $338 #
straight-curve $-1 0 33.100329501641809 -9.6276778489071084 1 0 0 I I #
straight-curve $-1 0 20.057902925348532 -9.6276778489071084 1 0 0 I I #
coedge $-1 $167 $166 $328 $339 reversed $91 $-1 #
edge $-1 $169 3.5390071300380885 $329 8.6383343076999513 $166 $340 forward 7 unknown #
edge $-1 $168 9.6276778489071084 $341 14.727005026568969 $167 $342 forward 7 unknown #
point $-1 62.077089754936367 33.100329501641809 -9.6276778489071084 #
point $-1 62.077089754936367 20.057902925348532 -9.6276778489071084 #
loop $-1 $-1 $179 $171 #
plane-surface $-1 0 0 14.727005026568969 0 0 1 1 0 0 forward_v I I I I #
coedge $-1 $268 $174 $176 $272 reversed $99 $-1 #
coedge $-1 $174 $267 $343 $344 reversed $99 $-1 #
coedge $-1 $182 $177 $174 $270 forward $172 $-1 #
edge $-1 $273 -40.81880590153726 $345 -30.698928036656049 $269 $346 forward 7 unknown #
coedge $-1 $176 $175 $276 $347 reversed $61 $-1 #
edge $-1 $348 -14.068285592163177 $273 0 $267 $349 forward 7 unknown #
vertex $-1 $178 $350 #
straight-curve $-1 -62.077089754936367 -7.1420749538433466 4.6071271616877603 0 -1 0 I I #
coedge $-1 $343 $179 $182 $280 forward $265 $-1 #
coedge $-1 $179 $343 $271 $347 forward $265 $-1 #
vertex $-1 $180 $351 #
straight-curve $-1 -75.693066738836592 -10.876118340601948 14.727005026568968 -1 0 0 I I #
straight-curve $-1 -62.077089754936367 -10.876118340601948 4.6071271616877567 0.69465836192734942 0 0.71933980857756763 I I #
edge $-1 $183 10.876118340601948 $345 17.692181474771438 $182 $352 forward 7 unknown #
point $-1 -62.077089754936367 -10.876118340601948 14.727005026568969 #
point $-1 -62.077089754936367 -10.876118340601948 4.6071271616877567 #
edge $-1 $353 1 $353 0 $186 $-1 forward 7 unknown #
vertex $-1 $187 $354 #
ellipse-curve $-1 -56.471423834069689 -15.744734865008724 8.9724077322010078 -0.71933980857756763 0 0.69465836192734942 0.34732918096367471 0 0.35966990428878381 1 I I #
point $-1 -56.843434461683586 -15.744734865008724 10.02673599841714 #
edge $-1 $355 1 $355 0 $190 $-1 forward 7 unknown #
vertex $-1 $191 $356 #
ellipse-curve $-1 -56.471423834069689 -12.823564950364656 8.9724077322010078 -0.71933980857756763 0 0.69465836192734942 0.34732918096367471 0 0.35966990428878381 1 I I #
point $-1 -56.843434461683586 -12.823564950364656 10.02673599841714 #
plane-surface $-1 62.077089754936367 0 0 -1 0 0 0 0 1 forward_v I I I I #
coedge $-1 $199 $197 $201 $296 reversed $121 $-1 #
edge $-1 $212 -14.727005026568969 $298 14.727005026568969 $211 $357 forward 7 unknown #
vertex $-1 $296 $358 #
straight-curve $-1 -62.077089754936367 -33.100329501641809 0 0 0 -1 I I #
edge $-1 $294 -33.100329501641809 $298 33.100329501641809 $292 $359 forward 7 unknown #
straight-curve $-1 0 -33.100329501641809 -14.727005026568969 -1 0 0 I I #
vertex $-1 $204 $360 #
straight-curve $-1 0 33.100329501641809 -14.727005026568969 1 0 0 I I #
point $-1 62.077089754936367 33.100329501641809 -14.727005026568969 #
point $-1 62.077089754936367 -33.100329501641809 -14.727005026568969 #
straight-curve $-1 -62.077089754936367 0 14.727005026568969 0 -1 0 I I #
point $-1 -62.077089754936367 33.100329501641809 14.727005026568969 #
point $-1 -62.077089754936367 -33.100329501641809 14.727005026568969 #
straight-curve $-1 62.077089754936367 -33.100329501641809 0 0 0 -1 I I #
straight-curve $-1 62.077089754936367 33.100329501641809 0 0 0 -1 I I #
loop $-1 $-1 $315 $221 #
plane-surface $-1 -62.077089754936367 0 0 1 0 0 0 0 -1 forward_v I I I I #
coedge $-1 $225 $224 $321 $361 forward $83 $-1 #
edge $-1 $229 20.057902925348536 $324 33.100329501641809 $228 $362 forward 7 unknown #
coedge $-1 $318 $315 $225 $312 reversed $307 $-1 #
edge $-1 $363 -33.100329501641809 $313 -20.057902925348536 $311 $364 forward 7 unknown #
vertex $-1 $316 $365 #
straight-curve $-1 0 -20.057902925348536 -14.727005026568969 1 0 0 I I #
coedge $-1 $311 $231 $227 $316 forward $307 $-1 #
edge $-1 $233 3.5390071300380885 $313 8.6383343076999513 $315 $366 forward 7 unknown #
point $-1 62.077089754936367 -20.057902925348536 -14.727005026568971 #
coedge $-1 $231 $311 $235 $322 reversed $307 $-1 #
straight-curve $-1 -62.077089754936367 -13.289558106747586 -9.6276778489071084 0 1 0 I I #
point $-1 -62.077089754936367 -20.057902925348536 -9.6276778489071084 #
coedge $-1 $236 $235 $309 $361 reversed $222 $-1 #
edge $-1 $237 9.6276778489071084 $363 14.727005026568969 $318 $367 forward 7 unknown #
point $-1 -62.077089754936367 -33.100329501641809 -9.6276778489071084 #
vertex $-1 $239 $368 #
straight-curve $-1 62.077089754936367 -33.100329501641809 0 0 0 -1 I I #
plane-surface $-1 0 33.100329501641809 0 0 -1 0 0 0 -1 forward_v I I I I #
coedge $-1 $369 $245 $249 $332 forward $156 $-1 #
coedge $-1 $245 $369 $260 $339 forward $156 $-1 #
vertex $-1 $247 $370 #
straight-curve $-1 0 20.057902925348532 -14.727005026568969 -1 0 0 I I #
coedge $-1 $249 $248 $255 $337 forward $243 $-1 #
edge $-1 $250 20.057902925348532 $371 33.100329501641809 $249 $372 forward 7 unknown #
point $-1 -62.077089754936367 20.057902925348532 -14.727005026568971 #
point $-1 -62.077089754936367 20.057902925348532 -9.6276778489071084 #
straight-curve $-1 -62.077089754936367 13.289558106747585 -9.6276778489071084 0 1 0 I I #
coedge $-1 $255 $254 $369 $373 reversed $256 $-1 #
edge $-1 $257 9.6276778489071084 $371 14.727005026568969 $255 $374 forward 7 unknown #
point $-1 -62.077089754936367 33.100329501641809 -9.6276778489071084 #
edge $-1 $341 -33.100329501641809 $329 -20.057902925348532 $260 $375 forward 7 unknown #
straight-curve $-1 62.077089754936367 20.057902925348532 -6.0886707188690199 0 0 -1 I I #
vertex $-1 $339 $376 #
straight-curve $-1 62.077089754936367 33.100329501641809 0 0 0 -1 I I #
coedge $-1 $276 $275 $268 $344 forward $265 $-1 #
edge $-1 $345 13.615976983900225 $348 23.388629208478427 $343 $377 forward 7 unknown #
vertex $-1 $344 $378 #
straight-curve $-1 -62.077089754936367 -17.692181474771438 45.425933063225017 0 0 1 I I #
edge $-1 $348 -10.550106520928091 $277 -3.7340433867586018 $276 $379 forward 7 unknown #
vertex $-1 $347 $380 #
straight-curve $-1 -62.077089754936367 -17.692181474771438 4.6071271616877567 -0.69465836192734942 0 -0.71933980857756763 I I #
point $-1 -62.077089754936367 -17.692181474771438 4.6071271616877567 #
point $-1 -52.304437530358165 -10.876118340601948 14.727005026568969 #
straight-curve $-1 -62.077089754936367 0 14.727005026568969 0 -1 0 I I #
vertex $-1 $283 $381 #
point $-1 -56.12409465310602 -15.744734865008724 9.3320776364897906 #
vertex $-1 $287 $382 #
point $-1 -56.12409465310602 -12.823564950364656 9.3320776364897906 #
straight-curve $-1 -62.077089754936367 33.100329501641809 0 0 0 -1 I I #
point $-1 -62.077089754936367 -33.100329501641809 -14.727005026568969 #
straight-curve $-1 -62.077089754936367 0 -14.727005026568969 0 1 0 I I #
point $-1 -62.077089754936367 33.100329501641809 -14.727005026568969 #
edge $-1 $324 -62.077089754936367 $363 62.077089754936367 $321 $383 forward 7 unknown #
straight-curve $-1 62.077089754936367 0 -14.727005026568969 0 -1 0 I I #
vertex $-1 $312 $384 #
straight-curve $-1 -62.077089754936367 0 -14.727005026568969 0 1 0 I I #
point $-1 -62.077089754936367 -20.057902925348536 -14.727005026568971 #
straight-curve $-1 -62.077089754936367 -20.057902925348536 -6.0886707188690199 0 0 -1 I I #
straight-curve $-1 -62.077089754936367 -33.100329501641809 0 0 0 -1 I I #
point $-1 62.077089754936367 -33.100329501641809 -14.727005026568969 #
coedge $-1 $328 $327 $336 $373 forward $156 $-1 #
point $-1 62.077089754936367 20.057902925348532 -14.727005026568971 #
vertex $-1 $373 $385 #
straight-curve $-1 -62.077089754936367 0 -14.727005026568969 0 1 0 I I #
edge $-1 $371 -62.077089754936367 $341 62.077089754936367 $336 $386 forward 7 unknown #
straight-curve $-1 -62.077089754936367 33.100329501641809 0 0 0 -1 I I #
straight-curve $-1 62.077089754936367 0 -14.727005026568969 0 -1 0 I I #
point $-1 62.077089754936367 33.100329501641809 -14.727005026568969 #
straight-curve $-1 -75.693066738836592 -17.692181474771438 14.727005026568968 1 0 0 I I #
point $-1 -62.077089754936367 -17.692181474771438 14.727005026568969 #
straight-curve $-1 -52.304437530358165 -7.1420749538433466 14.727005026568971 0 1 0 I I #
point $-1 -52.304437530358165 -17.692181474771438 14.727005026568969 #
point $-1 -56.11175392978091 -15.744734865008724 8.6250785512373316 #
point $-1 -56.11175392978091 -12.823564950364656 8.6250785512373316 #
straight-curve $-1 0 -33.100329501641809 -14.727005026568969 -1 0 0 I I #
point $-1 -62.077089754936367 -33.100329501641809 -14.727005026568969 #
point $-1 -62.077089754936367 33.100329501641809 -14.727005026568969 #
straight-curve $-1 0 33.100329501641809 -14.727005026568969 1 0 0 I I #
End-of-ACIS-data 