500 0 5 0           
7 Unknown 11 ACIS 5.0 NT 24 Thu Mar 25 17:44:32 1999 
-1 9.9999999999999995e-007 1e-010 
body $-1 $5 $-1 $6 #
body $-1 $7 $-1 $8 #
body $-1 $9 $-1 $10 #
body $-1 $11 $-1 $12 #
body $-1 $13 $-1 $14 #
lump $-1 $-1 $15 $0 #
transform $-1 1 0 0 0 1 0 0 0 1 69.402752769554738 29.327412813900747 6.6812119258157994 1 rotate no_reflect no_shear #
lump $-1 $-1 $16 $1 #
transform $-1 1 0 0 0 1 0 0 0 1 69.402752769554738 29.327412813900747 6.6812119258157994 1 rotate no_reflect no_shear #
lump $-1 $-1 $17 $2 #
transform $-1 1 0 0 0 1 0 0 0 1 69.402752769554738 29.327412813900747 6.6812119258157994 1 rotate no_reflect no_shear #
lump $-1 $-1 $18 $3 #
transform $-1 1 0 0 0 1 0 0 0 1 69.402752769554738 29.327412813900747 6.6812119258157994 1 rotate no_reflect no_shear #
lump $-1 $-1 $19 $4 #
transform $-1 1 0 0 0 1 0 0 0 1 69.402752769554738 29.327412813900747 6.6812119258157994 1 rotate no_reflect no_shear #
shell $-1 $-1 $-1 $20 $-1 $5 #
shell $-1 $-1 $-1 $21 $-1 $7 #
shell $-1 $-1 $-1 $22 $-1 $9 #
shell $-1 $-1 $-1 $23 $-1 $11 #
shell $-1 $-1 $-1 $24 $-1 $13 #
face $-1 $25 $26 $15 $-1 $27 forward single #
face $-1 $28 $29 $16 $-1 $30 forward single #
face $-1 $31 $32 $17 $-1 $33 forward single #
face $-1 $34 $35 $18 $-1 $36 reversed single #
face $-1 $37 $38 $19 $-1 $39 reversed single #
face $-1 $40 $41 $15 $-1 $42 reversed single #
loop $-1 $-1 $43 $20 #
plane-surface $-1 0 0 6.6812119258157994 0 0 1 1 0 0 forward_v I I I I #
face $-1 $44 $45 $16 $-1 $46 reversed single #
loop $-1 $-1 $47 $21 #
plane-surface $-1 -72.020696160504357 0 3.9081677383792797 0 0 1 1 0 0 forward_v I I I I #
face $-1 $48 $49 $17 $-1 $50 forward single #
loop $-1 $-1 $51 $22 #
plane-surface $-1 100.11093927006716 20.266960627105881 196.0123318436091 0 -1 0 -0.80901700255871778 0 -0.5877852410284794 forward_v I I I I #
face $-1 $52 $53 $18 $-1 $54 reversed single #
loop $-1 $55 $56 $23 #
cone-surface $-1 66.260616471022104 13.872975962204361 3.32356448259352 -0.80901700255871778 0 -0.5877852410284794 0.5877852410284794 0 -0.80901700255871778 1 I I 0 1 1 forward I I I I #
face $-1 $57 $58 $19 $-1 $59 reversed single #
loop $-1 $60 $61 $24 #
cone-surface $-1 66.260616471022104 17.709366761145272 3.32356448259352 -0.80901700255871778 0 -0.5877852410284794 0.5877852410284794 0 -0.80901700255871778 1 I I 0 1 1 forward I I I I #
face $-1 $62 $63 $15 $-1 $64 reversed single #
loop $-1 $-1 $65 $25 #
plane-surface $-1 0 0 -6.6812119258157994 0 0 1 1 0 0 forward_v I I I I #
coedge $-1 $66 $67 $68 $69 forward $26 $-1 #
face $-1 $70 $71 $16 $-1 $72 reversed single #
loop $-1 $-1 $73 $28 #
plane-surface $-1 -72.020696160504357 0 0.1083979479697903 0 0 1 1 0 0 forward_v I I I I #
coedge $-1 $74 $75 $76 $77 reversed $29 $-1 #
face $-1 $78 $79 $17 $-1 $80 forward single #
loop $-1 $-1 $81 $31 #
plane-surface $-1 -12.185074759830684 15.791171361674817 114.42450431422371 0.80901700255871778 0 0.5877852410284794 0.5877852410284794 0 -0.80901700255871778 forward_v I I I I #
coedge $-1 $82 $83 $84 $85 reversed $32 $-1 #
face $-1 $86 $87 $18 $-1 $88 forward single #
loop $-1 $89 $90 $34 #
cone-surface $-1 64.36784456814253 13.872975962204361 1.9483852396019499 -0.80901700255871778 0 -0.5877852410284794 0.2938926205142397 0 -0.40450850127935889 1 I I -0.70710678118654746 0.70710678118654746 0.5 forward I I I I #
loop $-1 $-1 $91 $23 #
coedge $-1 $56 $56 $92 $93 reversed $35 $-1 #
face $-1 $94 $95 $19 $-1 $96 reversed single #
loop $-1 $97 $98 $37 #
cone-surface $-1 64.36784456814253 17.709366761145272 1.9483852396019499 -0.80901700255871778 0 -0.5877852410284794 0.2938926205142397 0 -0.40450850127935889 1 I I -0.70710678118654746 0.70710678118654746 0.5 forward I I I I #
loop $-1 $-1 $99 $24 #
coedge $-1 $61 $61 $100 $101 reversed $38 $-1 #
face $-1 $102 $103 $15 $-1 $104 reversed single #
loop $-1 $-1 $105 $40 #
plane-surface $-1 0 -29.327412813900747 0 0 1 0 0 0 1 forward_v I I I I #
coedge $-1 $106 $107 $108 $109 forward $41 $-1 #
coedge $-1 $110 $43 $111 $112 forward $26 $-1 #
coedge $-1 $43 $110 $113 $114 forward $26 $-1 #
coedge $-1 $115 $116 $43 $69 reversed $117 $-1 #
edge $-1 $118 -29.327412813900747 $119 29.327412813900747 $68 $120 forward 7 unknown #
face $-1 $121 $122 $16 $-1 $123 reversed single #
loop $-1 $-1 $124 $44 #
plane-surface $-1 -74.638639551453977 0 2.008282843174535 1 0 0 0 0 -1 forward_v I I I I #
coedge $-1 $125 $126 $127 $128 reversed $45 $-1 #
coedge $-1 $129 $47 $130 $131 forward $29 $-1 #
coedge $-1 $47 $129 $132 $133 forward $29 $-1 #
coedge $-1 $134 $135 $47 $77 forward $136 $-1 #
edge $-1 $137 -29.327412813900747 $138 29.327412813900747 $76 $139 forward 7 unknown #
face $-1 $140 $141 $17 $-1 $142 forward single #
loop $-1 $-1 $143 $48 #
plane-surface $-1 100.11093927006716 11.315382096243752 196.0123318436091 0 1 0 0.80901700255871778 0 0.5877852410284794 forward_v I I I I #
coedge $-1 $144 $145 $146 $147 reversed $49 $-1 #
coedge $-1 $83 $51 $145 $148 forward $32 $-1 #
coedge $-1 $51 $82 $149 $150 reversed $32 $-1 #
coedge $-1 $151 $146 $51 $85 forward $141 $-1 #
edge $-1 $152 16.039537340656288 $153 19.347283134521156 $84 $154 forward 7 unknown #
face $-1 $155 $156 $18 $-1 $157 forward single #
loop $-1 $-1 $158 $52 #
plane-surface $-1 100.11093927006716 20.266960627105881 196.0123318436091 0 -1 0 -0.80901700255871778 0 -0.5877852410284794 forward_v I I I I #
loop $-1 $-1 $159 $34 #
coedge $-1 $90 $90 $91 $160 forward $53 $-1 #
coedge $-1 $91 $91 $90 $160 reversed $55 $-1 #
coedge $-1 $92 $92 $56 $93 forward $156 $-1 #
edge $-1 $161 0 $161 6.2831853071796004 $92 $162 forward 7 unknown #
face $-1 $163 $164 $19 $-1 $165 reversed single #
loop $-1 $166 $167 $57 #
cone-surface $-1 66.260616471022104 13.872975962204361 3.32356448259352 -0.80901700255871778 0 -0.5877852410284794 0.5877852410284794 0 -0.80901700255871778 1 I I 0 1 1 forward I I I I #
loop $-1 $-1 $168 $37 #
coedge $-1 $98 $98 $99 $169 forward $58 $-1 #
coedge $-1 $99 $99 $98 $169 reversed $60 $-1 #
coedge $-1 $100 $100 $61 $101 forward $170 $-1 #
edge $-1 $171 0 $171 6.2831853071796004 $100 $172 forward 7 unknown #
face $-1 $173 $174 $15 $-1 $175 reversed single #
loop $-1 $-1 $176 $62 #
plane-surface $-1 -69.402752769554738 0 0 1 0 0 0 0 -1 forward_v I I I I #
coedge $-1 $177 $113 $178 $179 forward $63 $-1 #
coedge $-1 $180 $65 $177 $181 forward $41 $-1 #
coedge $-1 $65 $180 $182 $183 forward $41 $-1 #
coedge $-1 $116 $115 $65 $109 reversed $117 $-1 #
edge $-1 $184 -29.327412813900747 $185 29.327412813900747 $108 $186 forward 7 unknown #
coedge $-1 $67 $66 $187 $188 forward $26 $-1 #
coedge $-1 $189 $190 $66 $112 reversed $174 $-1 #
edge $-1 $119 -69.402752769554738 $191 69.402752769554738 $111 $192 forward 7 unknown #
coedge $-1 $105 $193 $67 $114 reversed $63 $-1 #
edge $-1 $194 -69.402752769554738 $118 69.402752769554738 $113 $195 forward 7 unknown #
coedge $-1 $108 $68 $193 $196 forward $117 $-1 #
coedge $-1 $68 $108 $189 $197 reversed $117 $-1 #
loop $-1 $-1 $115 $173 #
vertex $-1 $69 $198 #
vertex $-1 $69 $199 #
straight-curve $-1 69.402752769554738 0 6.6812119258157994 0 1 0 I I #
face $-1 $200 $136 $16 $-1 $123 reversed single #
loop $-1 $-1 $127 $70 #
plane-surface $-1 -69.402752769554738 0 0 1 0 0 0 0 -1 forward_v I I I I #
coedge $-1 $201 $202 $203 $204 forward $71 $-1 #
coedge $-1 $205 $73 $206 $207 forward $45 $-1 #
coedge $-1 $73 $205 $208 $209 forward $45 $-1 #
coedge $-1 $210 $211 $73 $128 forward $122 $-1 #
edge $-1 $212 -29.327412813900747 $213 29.327412813900747 $127 $214 forward 7 unknown #
coedge $-1 $75 $74 $202 $215 forward $29 $-1 #
coedge $-1 $216 $203 $74 $131 reversed $217 $-1 #
edge $-1 $137 -2.6179433909496197 $218 2.6179433909496197 $130 $219 forward 7 unknown #
coedge $-1 $220 $221 $75 $133 reversed $222 $-1 #
edge $-1 $223 -2.6179433909496197 $138 2.6179433909496197 $132 $224 forward 7 unknown #
coedge $-1 $225 $76 $221 $226 reversed $136 $-1 #
coedge $-1 $76 $225 $216 $227 forward $136 $-1 #
loop $-1 $-1 $76 $121 #
vertex $-1 $227 $228 #
vertex $-1 $133 $229 #
straight-curve $-1 -69.402752769554738 0 3.9081677383792797 0 -1 0 I I #
face $-1 $230 $231 $17 $-1 $232 forward single #
loop $-1 $-1 $233 $78 #
plane-surface $-1 0 0 6.6812119258157994 0 0 1 1 0 0 forward_v I I I I #
coedge $-1 $234 $235 $233 $236 reversed $79 $-1 #
coedge $-1 $237 $81 $235 $238 reversed $49 $-1 #
coedge $-1 $81 $237 $82 $148 reversed $49 $-1 #
coedge $-1 $84 $233 $81 $147 forward $141 $-1 #
edge $-1 $239 3.4197964154063438 $152 12.371374946268473 $146 $240 forward 7 unknown #
edge $-1 $152 133.17803216451929 $241 138.80550553910953 $82 $242 forward 7 unknown #
coedge $-1 $243 $244 $83 $150 forward $245 $-1 #
edge $-1 $153 91.32495399598875 $241 95.877675637478731 $149 $246 forward 7 unknown #
coedge $-1 $247 $84 $244 $248 forward $141 $-1 #
vertex $-1 $147 $249 #
vertex $-1 $248 $250 #
straight-curve $-1 50.055469635033582 20.266960627105881 6.681211925815802 1 0 0 I I #
face $-1 $251 $252 $18 $-1 $253 forward single #
loop $-1 $254 $92 $86 #
plane-surface $-1 -12.185074759830684 15.791171361674817 114.42450431422371 0.80901700255871778 0 0.5877852410284794 0.5877852410284794 0 -0.80901700255871778 forward_v I I I I #
coedge $-1 $255 $256 $257 $258 reversed $87 $-1 #
coedge $-1 $159 $159 $-1 $259 forward $89 $-1 #
edge $-1 $260 0 $260 6.2831853071796004 $90 $261 forward 7 unknown #
vertex $-1 $93 $262 #
ellipse-curve $-1 67.748879872622297 13.872975962204361 4.4048511050708319 -0.80901700255871778 0 -0.5877852410284794 0.5877852410284794 0 -0.80901700255871778 1 I I #
face $-1 $263 $264 $19 $-1 $265 forward single #
loop $-1 $266 $267 $94 #
cone-surface $-1 64.36784456814253 13.872975962204361 1.9483852396019499 -0.80901700255871778 0 -0.5877852410284794 0.2938926205142397 0 -0.40450850127935889 1 I I -0.70710678118654746 0.70710678118654746 0.5 forward I I I I #
loop $-1 $-1 $268 $57 #
coedge $-1 $167 $167 $269 $270 reversed $95 $-1 #
coedge $-1 $168 $168 $-1 $271 forward $97 $-1 #
edge $-1 $272 0 $272 6.2831853071796004 $98 $273 forward 7 unknown #
loop $-1 $274 $100 $263 #
vertex $-1 $101 $275 #
ellipse-curve $-1 67.748879872622297 17.709366761145272 4.4048511050708319 -0.80901700255871778 0 -0.5877852410284794 0.5877852410284794 0 -0.80901700255871778 1 I I #
face $-1 $-1 $117 $15 $-1 $276 reversed single #
loop $-1 $-1 $189 $102 #
plane-surface $-1 0 29.327412813900747 0 0 -1 0 0 0 -1 forward_v I I I I #
coedge $-1 $277 $187 $190 $278 forward $103 $-1 #
coedge $-1 $193 $105 $106 $181 reversed $63 $-1 #
coedge $-1 $187 $277 $105 $179 reversed $103 $-1 #
edge $-1 $194 -6.6812119258157994 $279 6.6812119258157994 $178 $280 forward 7 unknown #
coedge $-1 $107 $106 $277 $281 forward $41 $-1 #
edge $-1 $185 -69.402752769554738 $279 69.402752769554738 $177 $282 forward 7 unknown #
coedge $-1 $190 $189 $107 $183 reversed $174 $-1 #
edge $-1 $283 -69.402752769554738 $184 69.402752769554738 $182 $284 forward 7 unknown #
vertex $-1 $109 $285 #
vertex $-1 $196 $286 #
straight-curve $-1 69.402752769554738 0 -6.6812119258157994 0 -1 0 I I #
coedge $-1 $176 $178 $110 $188 reversed $103 $-1 #
edge $-1 $191 -29.327412813900747 $194 29.327412813900747 $187 $287 forward 7 unknown #
coedge $-1 $182 $111 $116 $197 forward $174 $-1 #
coedge $-1 $111 $182 $176 $278 reversed $174 $-1 #
vertex $-1 $112 $288 #
straight-curve $-1 0 29.327412813900747 6.6812119258157994 -1 0 0 I I #
coedge $-1 $113 $177 $115 $196 reversed $63 $-1 #
vertex $-1 $188 $289 #
straight-curve $-1 0 -29.327412813900747 6.6812119258157994 1 0 0 I I #
edge $-1 $118 -6.6812119258157994 $185 6.6812119258157994 $115 $290 forward 7 unknown #
edge $-1 $119 -6.6812119258157994 $184 6.6812119258157994 $116 $291 forward 7 unknown #
point $-1 69.402752769554738 -29.327412813900747 6.6812119258157994 #
point $-1 69.402752769554738 29.327412813900747 6.6812119258157994 #
face $-1 $292 $293 $16 $-1 $294 forward single #
coedge $-1 $295 $124 $205 $296 reversed $71 $-1 #
coedge $-1 $124 $295 $129 $215 reversed $71 $-1 #
coedge $-1 $130 $208 $124 $204 reversed $217 $-1 #
edge $-1 $218 -1.8998848952047447 $297 1.8998848952047447 $203 $298 forward 7 unknown #
coedge $-1 $126 $125 $201 $296 forward $45 $-1 #
coedge $-1 $299 $220 $125 $207 reversed $222 $-1 #
edge $-1 $212 -2.6179433909496197 $300 2.6179433909496197 $206 $301 forward 7 unknown #
coedge $-1 $203 $302 $126 $209 reversed $217 $-1 #
edge $-1 $297 -2.6179433909496197 $213 2.6179433909496197 $208 $303 forward 7 unknown #
coedge $-1 $304 $127 $302 $305 forward $122 $-1 #
coedge $-1 $127 $304 $299 $306 reversed $122 $-1 #
vertex $-1 $306 $307 #
vertex $-1 $305 $308 #
straight-curve $-1 -69.402752769554738 0 0.1083979479697903 0 1 0 I I #
edge $-1 $218 -29.327412813900747 $223 29.327412813900747 $202 $309 forward 7 unknown #
coedge $-1 $310 $130 $135 $227 reversed $217 $-1 #
loop $-1 $-1 $311 $312 #
vertex $-1 $131 $313 #
straight-curve $-1 -72.020696160504357 29.327412813900747 3.9081677383792797 -1 0 0 I I #
coedge $-1 $206 $132 $295 $314 forward $222 $-1 #
coedge $-1 $132 $315 $134 $226 forward $222 $-1 #
loop $-1 $-1 $221 $316 #
vertex $-1 $215 $317 #
straight-curve $-1 -72.020696160504357 -29.327412813900747 3.9081677383792797 1 0 0 I I #
coedge $-1 $135 $134 $318 $319 reversed $136 $-1 #
edge $-1 $320 -6.6812119258157994 $138 -3.9081677383792797 $134 $321 forward 7 unknown #
edge $-1 $322 -6.6812119258157994 $137 -3.9081677383792797 $216 $323 forward 7 unknown #
point $-1 -69.402752769554738 29.327412813900747 3.9081677383792797 #
point $-1 -69.402752769554738 -29.327412813900747 3.9081677383792797 #
face $-1 $324 $325 $17 $-1 $326 reversed single #
loop $-1 $-1 $327 $140 #
plane-surface $-1 -72.020696160504357 0 3.9081677383792797 0 0 1 1 0 0 forward_v I I I I #
coedge $-1 $146 $328 $143 $236 forward $141 $-1 #
coedge $-1 $235 $143 $329 $330 reversed $79 $-1 #
coedge $-1 $143 $234 $144 $238 forward $79 $-1 #
edge $-1 $331 -19.347283134521156 $239 -16.039537340656288 $233 $332 forward 7 unknown #
coedge $-1 $145 $144 $243 $333 reversed $49 $-1 #
edge $-1 $334 -138.80550553910953 $239 -133.17803216451929 $235 $335 forward 7 unknown #
vertex $-1 $147 $336 #
straight-curve $-1 66.09500697568987 7.8955856808374083 6.681211925815802 0 1 0 I I #
vertex $-1 $333 $337 #
straight-curve $-1 -12.185074759830684 20.266960627105881 114.42450431422371 0.5877852410284794 0 -0.80901700255871778 I I #
coedge $-1 $329 $149 $237 $333 forward $245 $-1 #
coedge $-1 $149 $338 $151 $248 reversed $245 $-1 #
loop $-1 $-1 $329 $339 #
straight-curve $-1 69.402752769554738 20.266960627105881 98.006165921804552 0 0 -1 I I #
coedge $-1 $340 $151 $341 $342 forward $141 $-1 #
edge $-1 $153 20.266960627105881 $343 29.327412813900747 $244 $344 forward 7 unknown #
point $-1 66.09500697568987 20.266960627105881 6.681211925815802 #
point $-1 69.402752769554738 20.266960627105881 6.6812119258157994 #
face $-1 $345 $346 $18 $-1 $347 forward single #
loop $-1 $-1 $348 $155 #
plane-surface $-1 100.11093927006716 11.315382096243752 196.0123318436091 0 1 0 0.80901700255871778 0 0.5877852410284794 forward_v I I I I #
loop $-1 $-1 $349 $86 #
coedge $-1 $256 $158 $350 $351 forward $87 $-1 #
coedge $-1 $158 $255 $352 $353 reversed $87 $-1 #
coedge $-1 $354 $355 $158 $258 forward $346 $-1 #
edge $-1 $356 16.039537340656288 $357 19.347283134521156 $257 $358 forward 7 unknown #
edge $-1 $359 1 $359 0 $159 $-1 forward 7 unknown #
vertex $-1 $160 $360 #
ellipse-curve $-1 64.772353069421882 13.872975962204361 2.2422778601161895 0.80901700255871778 0 0.5877852410284794 0.5877852410284794 0 -0.80901700255871778 1 I I #
point $-1 68.33666511365081 13.872975962204361 3.5958341025121321 #
face $-1 $361 $170 $19 $-1 $362 forward single #
loop $-1 $-1 $363 $163 #
plane-surface $-1 100.11093927006716 20.266960627105881 196.0123318436091 0 -1 0 -0.80901700255871778 0 -0.5877852410284794 forward_v I I I I #
loop $-1 $-1 $364 $94 #
coedge $-1 $267 $267 $268 $365 forward $164 $-1 #
coedge $-1 $268 $268 $267 $365 reversed $166 $-1 #
coedge $-1 $269 $269 $167 $270 forward $274 $-1 #
edge $-1 $366 0 $366 6.2831853071796004 $269 $367 forward 7 unknown #
edge $-1 $368 1 $368 0 $168 $-1 forward 7 unknown #
vertex $-1 $169 $369 #
ellipse-curve $-1 64.772353069421882 17.709366761145272 2.2422778601161895 0.80901700255871778 0 0.5877852410284794 0.5877852410284794 0 -0.80901700255871778 1 I I #
loop $-1 $370 $269 $263 #
point $-1 68.33666511365081 17.709366761145272 3.5958341025121321 #
plane-surface $-1 69.402752769554738 0 0 -1 0 0 0 0 1 forward_v I I I I #
coedge $-1 $178 $176 $180 $281 reversed $103 $-1 #
edge $-1 $191 -6.6812119258157994 $283 6.6812119258157994 $190 $371 forward 7 unknown #
vertex $-1 $281 $372 #
straight-curve $-1 -69.402752769554738 -29.327412813900747 0 0 0 -1 I I #
edge $-1 $279 -29.327412813900747 $283 29.327412813900747 $277 $373 forward 7 unknown #
straight-curve $-1 0 -29.327412813900747 -6.6812119258157994 -1 0 0 I I #
vertex $-1 $183 $374 #
straight-curve $-1 0 29.327412813900747 -6.6812119258157994 1 0 0 I I #
point $-1 69.402752769554738 29.327412813900747 -6.6812119258157994 #
point $-1 69.402752769554738 -29.327412813900747 -6.6812119258157994 #
straight-curve $-1 -69.402752769554738 0 6.6812119258157994 0 -1 0 I I #
point $-1 -69.402752769554738 29.327412813900747 6.6812119258157994 #
point $-1 -69.402752769554738 -29.327412813900747 6.6812119258157994 #
straight-curve $-1 69.402752769554738 -29.327412813900747 0 0 0 -1 I I #
straight-curve $-1 69.402752769554738 29.327412813900747 0 0 0 -1 I I #
face $-1 $316 $375 $16 $-1 $376 reversed single #
loop $-1 $-1 $377 $200 #
plane-surface $-1 0 0 6.6812119258157994 0 0 1 1 0 0 forward_v I I I I #
coedge $-1 $202 $201 $220 $314 reversed $71 $-1 #
edge $-1 $300 -29.327412813900747 $297 29.327412813900747 $201 $378 forward 7 unknown #
vertex $-1 $209 $379 #
straight-curve $-1 -74.638639551453977 29.327412813900747 2.008282843174535 0 0 -1 I I #
coedge $-1 $380 $206 $211 $306 forward $222 $-1 #
vertex $-1 $296 $381 #
straight-curve $-1 -72.020696160504357 -29.327412813900747 0.1083979479697903 -1 0 0 I I #
coedge $-1 $208 $382 $210 $305 reversed $217 $-1 #
straight-curve $-1 -72.020696160504357 29.327412813900747 0.1083979479697903 1 0 0 I I #
coedge $-1 $211 $210 $383 $384 reversed $122 $-1 #
edge $-1 $213 -0.1083979479697903 $385 6.6812119258157994 $302 $323 forward 7 unknown #
edge $-1 $212 -0.1083979479697903 $386 6.6812119258157994 $211 $321 forward 7 unknown #
point $-1 -69.402752769554738 -29.327412813900747 0.1083979479697903 #
point $-1 -69.402752769554738 29.327412813900747 0.1083979479697903 #
straight-curve $-1 -74.638639551453977 0 3.9081677383792797 0 -1 0 I I #
coedge $-1 $311 $216 $387 $388 reversed $217 $-1 #
coedge $-1 $382 $310 $389 $390 forward $217 $-1 #
face $-1 $391 $217 $16 $-1 $392 reversed single #
point $-1 -74.638639551453977 29.327412813900747 3.9081677383792797 #
edge $-1 $223 -1.8998848952047447 $300 1.8998848952047447 $295 $393 forward 7 unknown #
coedge $-1 $221 $394 $395 $396 reversed $222 $-1 #
face $-1 $312 $222 $16 $-1 $397 reversed single #
point $-1 -74.638639551453977 -29.327412813900747 3.9081677383792797 #
coedge $-1 $395 $387 $225 $319 forward $293 $-1 #
edge $-1 $322 -29.327412813900747 $320 29.327412813900747 $225 $398 forward 7 unknown #
vertex $-1 $319 $399 #
straight-curve $-1 -69.402752769554738 -29.327412813900747 0 0 0 -1 I I #
vertex $-1 $388 $400 #
straight-curve $-1 -69.402752769554738 29.327412813900747 0 0 0 -1 I I #
face $-1 $401 $402 $17 $-1 $403 reversed single #
loop $-1 $-1 $404 $230 #
plane-surface $-1 -72.020696160504357 0 0.1083979479697903 0 0 1 1 0 0 forward_v I I I I #
coedge $-1 $405 $406 $407 $408 reversed $231 $-1 #
coedge $-1 $233 $409 $410 $411 forward $141 $-1 #
coedge $-1 $410 $243 $234 $330 forward $245 $-1 #
edge $-1 $334 -95.877675637478731 $331 -91.32495399598875 $329 $412 forward 7 unknown #
vertex $-1 $330 $413 #
straight-curve $-1 50.055469635033582 11.315382096243752 6.681211925815802 -1 0 0 I I #
edge $-1 $241 -12.371374946268473 $334 -3.4197964154063438 $243 $414 forward 7 unknown #
vertex $-1 $333 $415 #
straight-curve $-1 -12.185074759830684 11.315382096243752 114.42450431422371 -0.5877852410284794 0 0.80901700255871778 I I #
point $-1 66.09500697568987 11.315382096243752 6.681211925815802 #
point $-1 69.402752769554752 20.266960627105881 2.1284902843258209 #
coedge $-1 $244 $416 $417 $418 reversed $245 $-1 #
face $-1 $-1 $245 $17 $-1 $419 reversed single #
coedge $-1 $409 $247 $420 $421 forward $141 $-1 #
coedge $-1 $417 $422 $247 $342 reversed $423 $-1 #
edge $-1 $343 -69.402752769554738 $424 69.402752769554738 $341 $425 forward 7 unknown #
vertex $-1 $248 $426 #
straight-curve $-1 69.402752769554738 0 6.6812119258157994 0 1 0 I I #
face $-1 $427 $428 $18 $-1 $429 forward single #
loop $-1 $-1 $430 $251 #
plane-surface $-1 0 0 6.6812119258157994 0 0 1 1 0 0 forward_v I I I I #
coedge $-1 $431 $432 $430 $433 reversed $252 $-1 #
coedge $-1 $434 $350 $355 $435 reversed $254 $-1 #
coedge $-1 $349 $436 $255 $351 reversed $254 $-1 #
edge $-1 $356 133.17803216451929 $437 138.80550553910953 $255 $438 forward 7 unknown #
coedge $-1 $439 $440 $256 $353 forward $441 $-1 #
edge $-1 $357 91.32495399598875 $437 95.877675637478731 $352 $442 forward 7 unknown #
coedge $-1 $443 $257 $440 $444 forward $346 $-1 #
coedge $-1 $257 $430 $349 $435 forward $346 $-1 #
vertex $-1 $435 $445 #
vertex $-1 $444 $446 #
straight-curve $-1 50.055469635033582 20.266960627105881 6.681211925815802 1 0 0 I I #
vertex $-1 $259 $447 #
point $-1 65.360138310450367 13.872975962204361 1.4332608575574719 #
face $-1 $448 $449 $19 $-1 $450 forward single #
plane-surface $-1 -12.185074759830684 15.791171361674817 114.42450431422371 0.80901700255871778 0 0.5877852410284794 0.5877852410284794 0 -0.80901700255871778 forward_v I I I I #
coedge $-1 $451 $452 $453 $454 reversed $264 $-1 #
coedge $-1 $364 $364 $-1 $455 forward $266 $-1 #
edge $-1 $456 0 $456 6.2831853071796004 $267 $457 forward 7 unknown #
vertex $-1 $270 $458 #
ellipse-curve $-1 67.748879872622297 13.872975962204361 4.4048511050708319 -0.80901700255871778 0 -0.5877852410284794 0.5877852410284794 0 -0.80901700255871778 1 I I #
vertex $-1 $271 $459 #
point $-1 65.360138310450367 17.709366761145272 1.4332608575574719 #
loop $-1 $-1 $460 $263 #
straight-curve $-1 -69.402752769554738 29.327412813900747 0 0 0 -1 I I #
point $-1 -69.402752769554738 -29.327412813900747 -6.6812119258157994 #
straight-curve $-1 -69.402752769554738 0 -6.6812119258157994 0 1 0 I I #
point $-1 -69.402752769554738 29.327412813900747 -6.6812119258157994 #
loop $-1 $-1 $461 $292 #
plane-surface $-1 0 0 -6.6812119258157994 0 0 1 1 0 0 forward_v I I I I #
coedge $-1 $387 $395 $462 $463 forward $293 $-1 #
straight-curve $-1 -74.638639551453977 0 0.1083979479697903 0 1 0 I I #
point $-1 -74.638639551453977 29.327412813900747 0.1083979479697903 #
coedge $-1 $394 $299 $464 $465 reversed $222 $-1 #
point $-1 -74.638639551453977 -29.327412813900747 0.1083979479697903 #
coedge $-1 $302 $311 $466 $467 reversed $217 $-1 #
coedge $-1 $466 $464 $304 $384 forward $375 $-1 #
edge $-1 $386 -29.327412813900747 $385 29.327412813900747 $304 $468 forward 7 unknown #
vertex $-1 $467 $469 #
vertex $-1 $384 $470 #
coedge $-1 $318 $377 $310 $388 forward $293 $-1 #
edge $-1 $471 -69.402752769554738 $322 69.402752769554738 $310 $472 forward 7 unknown #
coedge $-1 $462 $473 $311 $390 reversed $474 $-1 #
edge $-1 $471 -6.6812119258157994 $475 6.6812119258157994 $389 $476 forward 7 unknown #
face $-1 $-1 $474 $16 $-1 $477 reversed single #
plane-surface $-1 0 29.327412813900747 0 0 -1 0 0 0 -1 forward_v I I I I #
straight-curve $-1 -74.638639551453977 -29.327412813900747 2.008282843174535 0 0 -1 I I #
coedge $-1 $315 $380 $478 $479 reversed $222 $-1 #
coedge $-1 $377 $318 $315 $396 forward $293 $-1 #
edge $-1 $320 -69.402752769554738 $480 69.402752769554738 $315 $481 forward 7 unknown #
plane-surface $-1 0 -29.327412813900747 0 0 1 0 0 0 1 forward_v I I I I #
straight-curve $-1 -69.402752769554738 0 6.6812119258157994 0 -1 0 I I #
point $-1 -69.402752769554738 -29.327412813900747 6.6812119258157994 #
point $-1 -69.402752769554738 29.327412813900747 6.6812119258157994 #
face $-1 $482 $483 $17 $-1 $484 reversed single #
loop $-1 $-1 $485 $324 #
plane-surface $-1 -74.638639551453977 0 2.008282843174535 1 0 0 0 0 -1 forward_v I I I I #
coedge $-1 $486 $487 $488 $489 reversed $325 $-1 #
coedge $-1 $490 $327 $491 $492 forward $231 $-1 #
coedge $-1 $327 $490 $493 $494 forward $231 $-1 #
coedge $-1 $495 $496 $327 $408 forward $497 $-1 #
edge $-1 $498 -29.327412813900747 $499 29.327412813900747 $407 $500 forward 7 unknown #
coedge $-1 $328 $340 $501 $502 forward $141 $-1 #
coedge $-1 $503 $329 $328 $411 reversed $245 $-1 #
edge $-1 $504 -29.327412813900747 $331 11.315382096243752 $410 $344 forward 7 unknown #
straight-curve $-1 69.402752769554738 11.315382096243752 98.006165921804552 0 0 1 I I #
point $-1 69.402752769554738 11.315382096243752 6.6812119258157994 #
straight-curve $-1 69.402752769554738 7.8955856808374083 2.1284902843258351 0 -1 0 I I #
point $-1 69.402752769554752 11.315382096243752 2.1284902843258209 #
coedge $-1 $338 $503 $505 $506 reversed $245 $-1 #
coedge $-1 $507 $341 $338 $418 forward $423 $-1 #
edge $-1 $343 -6.6812119258157994 $508 6.6812119258157994 $338 $509 forward 7 unknown #
plane-surface $-1 69.402752769554738 0 0 -1 0 0 0 0 1 forward_v I I I I #
coedge $-1 $496 $495 $340 $421 reversed $497 $-1 #
edge $-1 $424 -29.327412813900747 $510 29.327412813900747 $420 $511 forward 7 unknown #
coedge $-1 $341 $491 $496 $512 reversed $423 $-1 #
loop $-1 $-1 $417 $513 #
vertex $-1 $342 $514 #
straight-curve $-1 0 29.327412813900747 6.6812119258157994 -1 0 0 I I #
point $-1 69.402752769554738 29.327412813900747 6.6812119258157994 #
face $-1 $515 $516 $18 $-1 $517 reversed single #
loop $-1 $-1 $518 $345 #
plane-surface $-1 -72.020696160504357 0 3.9081677383792797 0 0 1 1 0 0 forward_v I I I I #
coedge $-1 $355 $519 $348 $433 forward $346 $-1 #
coedge $-1 $432 $348 $520 $521 reversed $252 $-1 #
coedge $-1 $348 $431 $434 $522 forward $252 $-1 #
edge $-1 $523 -19.347283134521156 $524 -16.039537340656288 $430 $525 forward 7 unknown #
coedge $-1 $436 $349 $432 $522 reversed $254 $-1 #
edge $-1 $524 3.4197964154063438 $356 12.371374946268473 $355 $526 forward 7 unknown #
coedge $-1 $350 $434 $439 $527 reversed $254 $-1 #
vertex $-1 $527 $528 #
straight-curve $-1 -12.185074759830684 20.266960627105881 114.42450431422371 0.5877852410284794 0 -0.80901700255871778 I I #
coedge $-1 $520 $352 $436 $527 forward $441 $-1 #
coedge $-1 $352 $529 $354 $444 reversed $441 $-1 #
loop $-1 $-1 $520 $530 #
straight-curve $-1 69.402752769554738 20.266960627105881 98.006165921804552 0 0 -1 I I #
coedge $-1 $531 $354 $532 $533 forward $346 $-1 #
edge $-1 $357 20.266960627105881 $534 29.327412813900747 $440 $535 forward 7 unknown #
point $-1 66.09500697568987 20.266960627105881 6.681211925815802 #
point $-1 69.402752769554738 20.266960627105881 6.6812119258157994 #
point $-1 63.963336066863171 13.872975962204361 1.6544926190877103 #
face $-1 $536 $537 $19 $-1 $538 forward single #
loop $-1 $-1 $539 $361 #
plane-surface $-1 100.11093927006716 11.315382096243752 196.0123318436091 0 1 0 0.80901700255871778 0 0.5877852410284794 forward_v I I I I #
coedge $-1 $452 $363 $540 $541 forward $264 $-1 #
coedge $-1 $363 $451 $542 $543 reversed $264 $-1 #
coedge $-1 $544 $545 $363 $454 forward $537 $-1 #
edge $-1 $546 16.039537340656288 $547 19.347283134521156 $453 $548 forward 7 unknown #
edge $-1 $549 1 $549 0 $364 $-1 forward 7 unknown #
vertex $-1 $365 $550 #
ellipse-curve $-1 64.772353069421882 13.872975962204361 2.2422778601161895 0.80901700255871778 0 0.5877852410284794 0.5877852410284794 0 -0.80901700255871778 1 I I #
point $-1 68.33666511365081 13.872975962204361 3.5958341025121321 #
point $-1 63.963336066863171 17.709366761145272 1.6544926190877103 #
coedge $-1 $551 $540 $545 $552 reversed $370 $-1 #
coedge $-1 $464 $466 $473 $553 forward $375 $-1 #
coedge $-1 $478 $389 $377 $463 reversed $474 $-1 #
edge $-1 $480 -29.327412813900747 $471 29.327412813900747 $462 $554 forward 7 unknown #
coedge $-1 $383 $461 $380 $465 forward $375 $-1 #
edge $-1 $555 -69.402752769554738 $386 69.402752769554738 $380 $556 forward 7 unknown #
coedge $-1 $461 $383 $382 $467 forward $375 $-1 #
edge $-1 $385 -69.402752769554738 $475 69.402752769554738 $382 $557 forward 7 unknown #
straight-curve $-1 -69.402752769554738 0 -6.6812119258157994 0 1 0 I I #
point $-1 -69.402752769554738 29.327412813900747 -6.6812119258157994 #
point $-1 -69.402752769554738 -29.327412813900747 -6.6812119258157994 #
vertex $-1 $463 $558 #
straight-curve $-1 0 29.327412813900747 6.6812119258157994 -1 0 0 I I #
coedge $-1 $389 $478 $461 $553 reversed $474 $-1 #
loop $-1 $-1 $478 $391 #
vertex $-1 $553 $559 #
straight-curve $-1 69.402752769554738 29.327412813900747 0 0 0 -1 I I #
plane-surface $-1 69.402752769554738 0 0 -1 0 0 0 0 1 forward_v I I I I #
coedge $-1 $473 $462 $394 $479 forward $474 $-1 #
edge $-1 $480 -6.6812119258157994 $555 6.6812119258157994 $478 $560 forward 7 unknown #
vertex $-1 $463 $561 #
straight-curve $-1 0 -29.327412813900747 6.6812119258157994 1 0 0 I I #
face $-1 $562 $497 $17 $-1 $484 reversed single #
loop $-1 $-1 $488 $401 #
plane-surface $-1 -69.402752769554738 0 0 1 0 0 0 0 -1 forward_v I I I I #
coedge $-1 $563 $564 $565 $566 forward $402 $-1 #
coedge $-1 $567 $404 $568 $569 forward $325 $-1 #
coedge $-1 $404 $567 $570 $571 forward $325 $-1 #
coedge $-1 $572 $573 $404 $489 forward $483 $-1 #
edge $-1 $574 -29.327412813900747 $575 29.327412813900747 $488 $576 forward 7 unknown #
coedge $-1 $406 $405 $564 $577 forward $231 $-1 #
coedge $-1 $422 $565 $405 $492 reversed $423 $-1 #
edge $-1 $498 -2.6179433909496197 $578 2.6179433909496197 $491 $579 forward 7 unknown #
coedge $-1 $580 $581 $406 $494 reversed $582 $-1 #
edge $-1 $583 -2.6179433909496197 $499 2.6179433909496197 $493 $584 forward 7 unknown #
coedge $-1 $420 $407 $581 $585 reversed $497 $-1 #
coedge $-1 $407 $420 $422 $512 forward $497 $-1 #
loop $-1 $-1 $407 $482 #
vertex $-1 $512 $586 #
vertex $-1 $494 $587 #
straight-curve $-1 -69.402752769554738 0 3.9081677383792797 0 -1 0 I I #
coedge $-1 $581 $588 $409 $502 reversed $582 $-1 #
edge $-1 $510 -69.402752769554738 $504 69.402752769554738 $501 $589 forward 7 unknown #
coedge $-1 $416 $410 $588 $590 forward $245 $-1 #
vertex $-1 $411 $591 #
coedge $-1 $592 $593 $416 $506 forward $594 $-1 #
edge $-1 $508 -29.327412813900747 $595 29.327412813900747 $416 $596 forward 7 unknown #
coedge $-1 $597 $417 $593 $598 reversed $423 $-1 #
vertex $-1 $506 $599 #
straight-curve $-1 69.402752769554738 29.327412813900747 0 0 0 -1 I I #
vertex $-1 $421 $600 #
straight-curve $-1 -69.402752769554738 0 6.6812119258157994 0 -1 0 I I #
edge $-1 $424 -6.6812119258157994 $498 -3.9081677383792797 $422 $601 forward 7 unknown #
face $-1 $339 $423 $17 $-1 $602 reversed single #
point $-1 -69.402752769554738 29.327412813900747 6.6812119258157994 #
face $-1 $603 $604 $18 $-1 $605 reversed single #
loop $-1 $-1 $606 $427 #
plane-surface $-1 -72.020696160504357 0 0.1083979479697903 0 0 1 1 0 0 forward_v I I I I #
coedge $-1 $607 $608 $609 $610 reversed $428 $-1 #
coedge $-1 $430 $611 $612 $613 forward $346 $-1 #
coedge $-1 $612 $439 $431 $521 forward $441 $-1 #
edge $-1 $614 -95.877675637478731 $523 -91.32495399598875 $520 $615 forward 7 unknown #
edge $-1 $614 -138.80550553910953 $524 -133.17803216451929 $432 $616 forward 7 unknown #
vertex $-1 $521 $617 #
vertex $-1 $435 $618 #
straight-curve $-1 50.055469635033582 11.315382096243752 6.681211925815802 -1 0 0 I I #
straight-curve $-1 66.09500697568987 7.8955856808374083 6.681211925815802 0 1 0 I I #
edge $-1 $437 -12.371374946268473 $614 -3.4197964154063438 $439 $619 forward 7 unknown #
point $-1 69.402752769554752 20.266960627105881 2.1284902843258209 #
coedge $-1 $440 $620 $621 $622 reversed $441 $-1 #
face $-1 $-1 $441 $18 $-1 $623 reversed single #
coedge $-1 $611 $443 $624 $625 forward $346 $-1 #
coedge $-1 $621 $626 $443 $533 reversed $627 $-1 #
edge $-1 $534 -69.402752769554738 $628 69.402752769554738 $532 $629 forward 7 unknown #
vertex $-1 $444 $630 #
straight-curve $-1 69.402752769554738 0 6.6812119258157994 0 1 0 I I #
face $-1 $631 $632 $19 $-1 $633 forward single #
loop $-1 $-1 $634 $448 #
plane-surface $-1 0 0 6.6812119258157994 0 0 1 1 0 0 forward_v I I I I #
coedge $-1 $635 $636 $634 $637 reversed $449 $-1 #
coedge $-1 $460 $638 $451 $541 reversed $370 $-1 #
edge $-1 $546 133.17803216451929 $639 138.80550553910953 $451 $640 forward 7 unknown #
coedge $-1 $641 $642 $452 $543 forward $643 $-1 #
edge $-1 $547 91.32495399598875 $639 95.877675637478731 $542 $644 forward 7 unknown #
coedge $-1 $645 $453 $642 $646 forward $537 $-1 #
coedge $-1 $453 $634 $460 $552 forward $537 $-1 #
vertex $-1 $552 $647 #
vertex $-1 $646 $648 #
straight-curve $-1 50.055469635033582 20.266960627105881 6.681211925815802 1 0 0 I I #
vertex $-1 $455 $649 #
point $-1 65.360138310450367 13.872975962204361 1.4332608575574719 #
coedge $-1 $638 $460 $636 $650 reversed $370 $-1 #
edge $-1 $651 3.4197964154063438 $546 12.371374946268473 $545 $652 forward 7 unknown #
edge $-1 $475 -29.327412813900747 $555 29.327412813900747 $473 $653 forward 7 unknown #
straight-curve $-1 69.402752769554738 0 6.6812119258157994 0 1 0 I I #
vertex $-1 $479 $654 #
straight-curve $-1 0 -29.327412813900747 -6.6812119258157994 -1 0 0 I I #
straight-curve $-1 0 29.327412813900747 -6.6812119258157994 1 0 0 I I #
point $-1 69.402752769554738 29.327412813900747 6.6812119258157994 #
point $-1 69.402752769554738 29.327412813900747 -6.6812119258157994 #
straight-curve $-1 69.402752769554738 -29.327412813900747 0 0 0 -1 I I #
point $-1 69.402752769554738 -29.327412813900747 6.6812119258157994 #
face $-1 $655 $594 $17 $-1 $656 reversed single #
coedge $-1 $657 $485 $567 $658 reversed $402 $-1 #
coedge $-1 $485 $657 $490 $577 reversed $402 $-1 #
coedge $-1 $491 $570 $485 $566 reversed $423 $-1 #
edge $-1 $578 -1.8998848952047447 $659 1.8998848952047447 $565 $660 forward 7 unknown #
coedge $-1 $487 $486 $563 $658 forward $325 $-1 #
coedge $-1 $661 $580 $486 $569 reversed $582 $-1 #
edge $-1 $574 -2.6179433909496197 $662 2.6179433909496197 $568 $663 forward 7 unknown #
coedge $-1 $565 $597 $487 $571 reversed $423 $-1 #
edge $-1 $659 -2.6179433909496197 $575 2.6179433909496197 $570 $664 forward 7 unknown #
coedge $-1 $665 $488 $597 $666 forward $483 $-1 #
coedge $-1 $488 $665 $661 $667 reversed $483 $-1 #
vertex $-1 $667 $668 #
vertex $-1 $666 $669 #
straight-curve $-1 -69.402752769554738 0 0.1083979479697903 0 1 0 I I #
edge $-1 $578 -29.327412813900747 $583 29.327412813900747 $564 $670 forward 7 unknown #
vertex $-1 $492 $671 #
straight-curve $-1 -72.020696160504357 29.327412813900747 3.9081677383792797 -1 0 0 I I #
coedge $-1 $568 $493 $657 $672 forward $582 $-1 #
coedge $-1 $493 $501 $495 $585 forward $582 $-1 #
loop $-1 $-1 $581 $655 #
vertex $-1 $577 $673 #
straight-curve $-1 -72.020696160504357 -29.327412813900747 3.9081677383792797 1 0 0 I I #
edge $-1 $510 -6.6812119258157994 $499 -3.9081677383792797 $495 $674 forward 7 unknown #
point $-1 -69.402752769554738 29.327412813900747 3.9081677383792797 #
point $-1 -69.402752769554738 -29.327412813900747 3.9081677383792797 #
coedge $-1 $501 $675 $503 $590 reversed $582 $-1 #
straight-curve $-1 0 -29.327412813900747 6.6812119258157994 1 0 0 I I #
edge $-1 $504 -6.6812119258157994 $595 6.6812119258157994 $503 $676 forward 7 unknown #
point $-1 69.402752769554738 -29.327412813900747 6.6812119258157994 #
coedge $-1 $677 $505 $675 $678 forward $594 $-1 #
coedge $-1 $505 $677 $507 $598 forward $594 $-1 #
loop $-1 $-1 $505 $562 #
vertex $-1 $590 $679 #
straight-curve $-1 69.402752769554738 0 -6.6812119258157994 0 -1 0 I I #
coedge $-1 $570 $507 $572 $666 reversed $423 $-1 #
edge $-1 $680 -69.402752769554738 $508 69.402752769554738 $507 $681 forward 7 unknown #
point $-1 69.402752769554738 29.327412813900747 -6.6812119258157994 #
point $-1 -69.402752769554738 -29.327412813900747 6.6812119258157994 #
straight-curve $-1 -69.402752769554738 29.327412813900747 0 0 0 -1 I I #
plane-surface $-1 0 29.327412813900747 0 0 -1 0 0 0 -1 forward_v I I I I #
face $-1 $682 $683 $18 $-1 $684 reversed single #
loop $-1 $-1 $685 $515 #
plane-surface $-1 -74.638639551453977 0 2.008282843174535 1 0 0 0 0 -1 forward_v I I I I #
coedge $-1 $686 $687 $688 $689 reversed $516 $-1 #
coedge $-1 $690 $518 $691 $692 forward $428 $-1 #
coedge $-1 $518 $690 $693 $694 forward $428 $-1 #
coedge $-1 $695 $696 $518 $610 forward $697 $-1 #
edge $-1 $698 -29.327412813900747 $699 29.327412813900747 $609 $700 forward 7 unknown #
coedge $-1 $519 $531 $701 $702 forward $346 $-1 #
coedge $-1 $703 $520 $519 $613 reversed $441 $-1 #
edge $-1 $704 -29.327412813900747 $523 11.315382096243752 $612 $535 forward 7 unknown #
vertex $-1 $527 $705 #
straight-curve $-1 69.402752769554738 11.315382096243752 98.006165921804552 0 0 1 I I #
straight-curve $-1 -12.185074759830684 11.315382096243752 114.42450431422371 -0.5877852410284794 0 0.80901700255871778 I I #
point $-1 69.402752769554738 11.315382096243752 6.6812119258157994 #
point $-1 66.09500697568987 11.315382096243752 6.681211925815802 #
straight-curve $-1 69.402752769554738 7.8955856808374083 2.1284902843258351 0 -1 0 I I #
coedge $-1 $529 $703 $706 $707 reversed $441 $-1 #
coedge $-1 $708 $532 $529 $622 forward $627 $-1 #
edge $-1 $534 -6.6812119258157994 $709 6.6812119258157994 $529 $710 forward 7 unknown #
plane-surface $-1 69.402752769554738 0 0 -1 0 0 0 0 1 forward_v I I I I #
coedge $-1 $696 $695 $531 $625 reversed $697 $-1 #
edge $-1 $628 -29.327412813900747 $711 29.327412813900747 $624 $712 forward 7 unknown #
coedge $-1 $532 $691 $696 $713 reversed $627 $-1 #
loop $-1 $-1 $621 $714 #
vertex $-1 $533 $715 #
straight-curve $-1 0 29.327412813900747 6.6812119258157994 -1 0 0 I I #
point $-1 69.402752769554738 29.327412813900747 6.6812119258157994 #
face $-1 $716 $717 $19 $-1 $718 reversed single #
loop $-1 $-1 $719 $536 #
plane-surface $-1 -72.020696160504357 0 3.9081677383792797 0 0 1 1 0 0 forward_v I I I I #
coedge $-1 $545 $720 $539 $637 forward $537 $-1 #
coedge $-1 $636 $539 $721 $722 reversed $449 $-1 #
coedge $-1 $539 $635 $551 $650 forward $449 $-1 #
edge $-1 $723 -19.347283134521156 $651 -16.039537340656288 $634 $724 forward 7 unknown #
coedge $-1 $540 $551 $641 $725 reversed $370 $-1 #
vertex $-1 $725 $726 #
straight-curve $-1 -12.185074759830684 20.266960627105881 114.42450431422371 0.5877852410284794 0 -0.80901700255871778 I I #
coedge $-1 $721 $542 $638 $725 forward $643 $-1 #
coedge $-1 $542 $727 $544 $646 reversed $643 $-1 #
loop $-1 $-1 $721 $728 #
straight-curve $-1 69.402752769554738 20.266960627105881 98.006165921804552 0 0 -1 I I #
coedge $-1 $729 $544 $730 $731 forward $537 $-1 #
edge $-1 $547 20.266960627105881 $732 29.327412813900747 $642 $733 forward 7 unknown #
point $-1 66.09500697568987 20.266960627105881 6.681211925815802 #
point $-1 69.402752769554738 20.266960627105881 6.6812119258157994 #
point $-1 63.963336066863171 13.872975962204361 1.6544926190877103 #
edge $-1 $734 -138.80550553910953 $651 -133.17803216451929 $636 $735 forward 7 unknown #
vertex $-1 $552 $736 #
straight-curve $-1 66.09500697568987 7.8955856808374083 6.681211925815802 0 1 0 I I #
straight-curve $-1 69.402752769554738 0 -6.6812119258157994 0 -1 0 I I #
point $-1 69.402752769554738 -29.327412813900747 -6.6812119258157994 #
face $-1 $513 $582 $17 $-1 $737 reversed single #
plane-surface $-1 0 0 -6.6812119258157994 0 0 1 1 0 0 forward_v I I I I #
coedge $-1 $564 $563 $580 $672 reversed $402 $-1 #
edge $-1 $662 -29.327412813900747 $659 29.327412813900747 $563 $738 forward 7 unknown #
vertex $-1 $571 $739 #
straight-curve $-1 -74.638639551453977 29.327412813900747 2.008282843174535 0 0 -1 I I #
coedge $-1 $675 $568 $573 $667 forward $582 $-1 #
vertex $-1 $658 $740 #
straight-curve $-1 -72.020696160504357 -29.327412813900747 0.1083979479697903 -1 0 0 I I #
straight-curve $-1 -72.020696160504357 29.327412813900747 0.1083979479697903 1 0 0 I I #
coedge $-1 $573 $572 $677 $741 reversed $483 $-1 #
edge $-1 $575 -0.1083979479697903 $680 6.6812119258157994 $597 $601 forward 7 unknown #
edge $-1 $574 -0.1083979479697903 $742 6.6812119258157994 $573 $674 forward 7 unknown #
point $-1 -69.402752769554738 -29.327412813900747 0.1083979479697903 #
point $-1 -69.402752769554738 29.327412813900747 0.1083979479697903 #
straight-curve $-1 -74.638639551453977 0 3.9081677383792797 0 -1 0 I I #
point $-1 -74.638639551453977 29.327412813900747 3.9081677383792797 #
edge $-1 $583 -1.8998848952047447 $662 1.8998848952047447 $657 $743 forward 7 unknown #
point $-1 -74.638639551453977 -29.327412813900747 3.9081677383792797 #
straight-curve $-1 -69.402752769554738 -29.327412813900747 0 0 0 -1 I I #
coedge $-1 $588 $661 $592 $678 reversed $582 $-1 #
straight-curve $-1 69.402752769554738 -29.327412813900747 0 0 0 -1 I I #
coedge $-1 $593 $592 $665 $741 forward $594 $-1 #
edge $-1 $595 -69.402752769554738 $742 69.402752769554738 $675 $744 forward 7 unknown #
point $-1 69.402752769554738 -29.327412813900747 -6.6812119258157994 #
vertex $-1 $598 $745 #
straight-curve $-1 0 29.327412813900747 -6.6812119258157994 1 0 0 I I #
face $-1 $746 $697 $18 $-1 $684 reversed single #
loop $-1 $-1 $688 $603 #
plane-surface $-1 -69.402752769554738 0 0 1 0 0 0 0 -1 forward_v I I I I #
coedge $-1 $747 $748 $749 $750 forward $604 $-1 #
coedge $-1 $751 $606 $752 $753 forward $516 $-1 #
coedge $-1 $606 $751 $754 $755 forward $516 $-1 #
coedge $-1 $756 $757 $606 $689 forward $683 $-1 #
edge $-1 $758 -29.327412813900747 $759 29.327412813900747 $688 $760 forward 7 unknown #
coedge $-1 $608 $607 $748 $761 forward $428 $-1 #
coedge $-1 $626 $749 $607 $692 reversed $627 $-1 #
edge $-1 $698 -2.6179433909496197 $762 2.6179433909496197 $691 $763 forward 7 unknown #
coedge $-1 $764 $765 $608 $694 reversed $766 $-1 #
edge $-1 $767 -2.6179433909496197 $699 2.6179433909496197 $693 $768 forward 7 unknown #
coedge $-1 $624 $609 $765 $769 reversed $697 $-1 #
coedge $-1 $609 $624 $626 $713 forward $697 $-1 #
loop $-1 $-1 $609 $682 #
vertex $-1 $713 $770 #
vertex $-1 $694 $771 #
straight-curve $-1 -69.402752769554738 0 3.9081677383792797 0 -1 0 I I #
coedge $-1 $765 $772 $611 $702 reversed $766 $-1 #
edge $-1 $711 -69.402752769554738 $704 69.402752769554738 $701 $773 forward 7 unknown #
coedge $-1 $620 $612 $772 $774 forward $441 $-1 #
vertex $-1 $613 $775 #
point $-1 69.402752769554752 11.315382096243752 2.1284902843258209 #
coedge $-1 $776 $777 $620 $707 forward $778 $-1 #
edge $-1 $709 -29.327412813900747 $779 29.327412813900747 $620 $780 forward 7 unknown #
coedge $-1 $781 $621 $777 $782 reversed $627 $-1 #
vertex $-1 $707 $783 #
straight-curve $-1 69.402752769554738 29.327412813900747 0 0 0 -1 I I #
vertex $-1 $625 $784 #
straight-curve $-1 -69.402752769554738 0 6.6812119258157994 0 -1 0 I I #
edge $-1 $628 -6.6812119258157994 $698 -3.9081677383792797 $626 $785 forward 7 unknown #
face $-1 $530 $627 $18 $-1 $786 reversed single #
point $-1 -69.402752769554738 29.327412813900747 6.6812119258157994 #
face $-1 $787 $788 $19 $-1 $789 reversed single #
loop $-1 $-1 $790 $631 #
plane-surface $-1 -72.020696160504357 0 0.1083979479697903 0 0 1 1 0 0 forward_v I I I I #
coedge $-1 $791 $792 $793 $794 reversed $632 $-1 #
coedge $-1 $634 $795 $796 $797 forward $537 $-1 #
coedge $-1 $796 $641 $635 $722 forward $643 $-1 #
edge $-1 $734 -95.877675637478731 $723 -91.32495399598875 $721 $798 forward 7 unknown #
vertex $-1 $722 $799 #
straight-curve $-1 50.055469635033582 11.315382096243752 6.681211925815802 -1 0 0 I I #
edge $-1 $639 -12.371374946268473 $734 -3.4197964154063438 $641 $800 forward 7 unknown #
point $-1 69.402752769554752 20.266960627105881 2.1284902843258209 #
coedge $-1 $642 $801 $802 $803 reversed $643 $-1 #
face $-1 $-1 $643 $19 $-1 $804 reversed single #
coedge $-1 $795 $645 $805 $806 forward $537 $-1 #
coedge $-1 $802 $807 $645 $731 reversed $808 $-1 #
edge $-1 $732 -69.402752769554738 $809 69.402752769554738 $730 $810 forward 7 unknown #
vertex $-1 $646 $811 #
straight-curve $-1 69.402752769554738 0 6.6812119258157994 0 1 0 I I #
vertex $-1 $725 $812 #
straight-curve $-1 -12.185074759830684 11.315382096243752 114.42450431422371 -0.5877852410284794 0 0.80901700255871778 I I #
point $-1 66.09500697568987 11.315382096243752 6.681211925815802 #
plane-surface $-1 0 -29.327412813900747 0 0 1 0 0 0 1 forward_v I I I I #
straight-curve $-1 -74.638639551453977 0 0.1083979479697903 0 1 0 I I #
point $-1 -74.638639551453977 29.327412813900747 0.1083979479697903 #
point $-1 -74.638639551453977 -29.327412813900747 0.1083979479697903 #
edge $-1 $742 -29.327412813900747 $680 29.327412813900747 $665 $813 forward 7 unknown #
vertex $-1 $741 $814 #
straight-curve $-1 -74.638639551453977 -29.327412813900747 2.008282843174535 0 0 -1 I I #
straight-curve $-1 0 -29.327412813900747 -6.6812119258157994 -1 0 0 I I #
point $-1 -69.402752769554738 29.327412813900747 -6.6812119258157994 #
face $-1 $815 $778 $18 $-1 $816 reversed single #
coedge $-1 $817 $685 $751 $818 reversed $604 $-1 #
coedge $-1 $685 $817 $690 $761 reversed $604 $-1 #
coedge $-1 $691 $754 $685 $750 reversed $627 $-1 #
edge $-1 $762 -1.8998848952047447 $819 1.8998848952047447 $749 $820 forward 7 unknown #
coedge $-1 $687 $686 $747 $818 forward $516 $-1 #
coedge $-1 $821 $764 $686 $753 reversed $766 $-1 #
edge $-1 $758 -2.6179433909496197 $822 2.6179433909496197 $752 $823 forward 7 unknown #
coedge $-1 $749 $781 $687 $755 reversed $627 $-1 #
edge $-1 $819 -2.6179433909496197 $759 2.6179433909496197 $754 $824 forward 7 unknown #
coedge $-1 $825 $688 $781 $826 forward $683 $-1 #
coedge $-1 $688 $825 $821 $827 reversed $683 $-1 #
vertex $-1 $827 $828 #
vertex $-1 $826 $829 #
straight-curve $-1 -69.402752769554738 0 0.1083979479697903 0 1 0 I I #
edge $-1 $762 -29.327412813900747 $767 29.327412813900747 $748 $830 forward 7 unknown #
vertex $-1 $692 $831 #
straight-curve $-1 -72.020696160504357 29.327412813900747 3.9081677383792797 -1 0 0 I I #
coedge $-1 $752 $693 $817 $832 forward $766 $-1 #
coedge $-1 $693 $701 $695 $769 forward $766 $-1 #
loop $-1 $-1 $765 $815 #
vertex $-1 $761 $833 #
straight-curve $-1 -72.020696160504357 -29.327412813900747 3.9081677383792797 1 0 0 I I #
edge $-1 $711 -6.6812119258157994 $699 -3.9081677383792797 $695 $834 forward 7 unknown #
point $-1 -69.402752769554738 29.327412813900747 3.9081677383792797 #
point $-1 -69.402752769554738 -29.327412813900747 3.9081677383792797 #
coedge $-1 $701 $835 $703 $774 reversed $766 $-1 #
straight-curve $-1 0 -29.327412813900747 6.6812119258157994 1 0 0 I I #
edge $-1 $704 -6.6812119258157994 $779 6.6812119258157994 $703 $836 forward 7 unknown #
point $-1 69.402752769554738 -29.327412813900747 6.6812119258157994 #
coedge $-1 $837 $706 $835 $838 forward $778 $-1 #
coedge $-1 $706 $837 $708 $782 forward $778 $-1 #
loop $-1 $-1 $706 $746 #
vertex $-1 $774 $839 #
straight-curve $-1 69.402752769554738 0 -6.6812119258157994 0 -1 0 I I #
coedge $-1 $754 $708 $756 $826 reversed $627 $-1 #
edge $-1 $840 -69.402752769554738 $709 69.402752769554738 $708 $841 forward 7 unknown #
point $-1 69.402752769554738 29.327412813900747 -6.6812119258157994 #
point $-1 -69.402752769554738 -29.327412813900747 6.6812119258157994 #
straight-curve $-1 -69.402752769554738 29.327412813900747 0 0 0 -1 I I #
plane-surface $-1 0 29.327412813900747 0 0 -1 0 0 0 -1 forward_v I I I I #
face $-1 $842 $843 $19 $-1 $844 reversed single #
loop $-1 $-1 $845 $716 #
plane-surface $-1 -74.638639551453977 0 2.008282843174535 1 0 0 0 0 -1 forward_v I I I I #
coedge $-1 $846 $847 $848 $849 reversed $717 $-1 #
coedge $-1 $850 $719 $851 $852 forward $632 $-1 #
coedge $-1 $719 $850 $853 $854 forward $632 $-1 #
coedge $-1 $855 $856 $719 $794 forward $857 $-1 #
edge $-1 $858 -29.327412813900747 $859 29.327412813900747 $793 $860 forward 7 unknown #
coedge $-1 $720 $729 $861 $862 forward $537 $-1 #
coedge $-1 $863 $721 $720 $797 reversed $643 $-1 #
edge $-1 $864 -29.327412813900747 $723 11.315382096243752 $796 $733 forward 7 unknown #
straight-curve $-1 69.402752769554738 11.315382096243752 98.006165921804552 0 0 1 I I #
point $-1 69.402752769554738 11.315382096243752 6.6812119258157994 #
straight-curve $-1 69.402752769554738 7.8955856808374083 2.1284902843258351 0 -1 0 I I #
coedge $-1 $727 $863 $865 $866 reversed $643 $-1 #
coedge $-1 $867 $730 $727 $803 forward $808 $-1 #
edge $-1 $732 -6.6812119258157994 $868 6.6812119258157994 $727 $869 forward 7 unknown #
plane-surface $-1 69.402752769554738 0 0 -1 0 0 0 0 1 forward_v I I I I #
coedge $-1 $856 $855 $729 $806 reversed $857 $-1 #
edge $-1 $809 -29.327412813900747 $870 29.327412813900747 $805 $871 forward 7 unknown #
coedge $-1 $730 $851 $856 $872 reversed $808 $-1 #
loop $-1 $-1 $802 $873 #
vertex $-1 $731 $874 #
straight-curve $-1 0 29.327412813900747 6.6812119258157994 -1 0 0 I I #
point $-1 69.402752769554738 29.327412813900747 6.6812119258157994 #
point $-1 69.402752769554752 11.315382096243752 2.1284902843258209 #
straight-curve $-1 -69.402752769554738 0 -6.6812119258157994 0 1 0 I I #
point $-1 -69.402752769554738 -29.327412813900747 -6.6812119258157994 #
face $-1 $714 $766 $18 $-1 $875 reversed single #
plane-surface $-1 0 0 -6.6812119258157994 0 0 1 1 0 0 forward_v I I I I #
coedge $-1 $748 $747 $764 $832 reversed $604 $-1 #
edge $-1 $822 -29.327412813900747 $819 29.327412813900747 $747 $876 forward 7 unknown #
vertex $-1 $755 $877 #
straight-curve $-1 -74.638639551453977 29.327412813900747 2.008282843174535 0 0 -1 I I #
coedge $-1 $835 $752 $757 $827 forward $766 $-1 #
vertex $-1 $818 $878 #
straight-curve $-1 -72.020696160504357 -29.327412813900747 0.1083979479697903 -1 0 0 I I #
straight-curve $-1 -72.020696160504357 29.327412813900747 0.1083979479697903 1 0 0 I I #
coedge $-1 $757 $756 $837 $879 reversed $683 $-1 #
edge $-1 $759 -0.1083979479697903 $840 6.6812119258157994 $781 $785 forward 7 unknown #
edge $-1 $758 -0.1083979479697903 $880 6.6812119258157994 $757 $834 forward 7 unknown #
point $-1 -69.402752769554738 -29.327412813900747 0.1083979479697903 #
point $-1 -69.402752769554738 29.327412813900747 0.1083979479697903 #
straight-curve $-1 -74.638639551453977 0 3.9081677383792797 0 -1 0 I I #
point $-1 -74.638639551453977 29.327412813900747 3.9081677383792797 #
edge $-1 $767 -1.8998848952047447 $822 1.8998848952047447 $817 $881 forward 7 unknown #
point $-1 -74.638639551453977 -29.327412813900747 3.9081677383792797 #
straight-curve $-1 -69.402752769554738 -29.327412813900747 0 0 0 -1 I I #
coedge $-1 $772 $821 $776 $838 reversed $766 $-1 #
straight-curve $-1 69.402752769554738 -29.327412813900747 0 0 0 -1 I I #
coedge $-1 $777 $776 $825 $879 forward $778 $-1 #
edge $-1 $779 -69.402752769554738 $880 69.402752769554738 $835 $882 forward 7 unknown #
point $-1 69.402752769554738 -29.327412813900747 -6.6812119258157994 #
vertex $-1 $782 $883 #
straight-curve $-1 0 29.327412813900747 -6.6812119258157994 1 0 0 I I #
face $-1 $884 $857 $19 $-1 $844 reversed single #
loop $-1 $-1 $848 $787 #
plane-surface $-1 -69.402752769554738 0 0 1 0 0 0 0 -1 forward_v I I I I #
coedge $-1 $885 $886 $887 $888 forward $788 $-1 #
coedge $-1 $889 $790 $890 $891 forward $717 $-1 #
coedge $-1 $790 $889 $892 $893 forward $717 $-1 #
coedge $-1 $894 $895 $790 $849 forward $843 $-1 #
edge $-1 $896 -29.327412813900747 $897 29.327412813900747 $848 $898 forward 7 unknown #
coedge $-1 $792 $791 $886 $899 forward $632 $-1 #
coedge $-1 $807 $887 $791 $852 reversed $808 $-1 #
edge $-1 $858 -2.6179433909496197 $900 2.6179433909496197 $851 $901 forward 7 unknown #
coedge $-1 $902 $903 $792 $854 reversed $904 $-1 #
edge $-1 $905 -2.6179433909496197 $859 2.6179433909496197 $853 $906 forward 7 unknown #
coedge $-1 $805 $793 $903 $907 reversed $857 $-1 #
coedge $-1 $793 $805 $807 $872 forward $857 $-1 #
loop $-1 $-1 $793 $842 #
vertex $-1 $872 $908 #
vertex $-1 $854 $909 #
straight-curve $-1 -69.402752769554738 0 3.9081677383792797 0 -1 0 I I #
coedge $-1 $903 $910 $795 $862 reversed $904 $-1 #
edge $-1 $870 -69.402752769554738 $864 69.402752769554738 $861 $911 forward 7 unknown #
coedge $-1 $801 $796 $910 $912 forward $643 $-1 #
vertex $-1 $797 $913 #
coedge $-1 $914 $915 $801 $866 forward $916 $-1 #
edge $-1 $868 -29.327412813900747 $917 29.327412813900747 $801 $918 forward 7 unknown #
coedge $-1 $919 $802 $915 $920 reversed $808 $-1 #
vertex $-1 $866 $921 #
straight-curve $-1 69.402752769554738 29.327412813900747 0 0 0 -1 I I #
vertex $-1 $806 $922 #
straight-curve $-1 -69.402752769554738 0 6.6812119258157994 0 -1 0 I I #
edge $-1 $809 -6.6812119258157994 $858 -3.9081677383792797 $807 $923 forward 7 unknown #
face $-1 $728 $808 $19 $-1 $924 reversed single #
point $-1 -69.402752769554738 29.327412813900747 6.6812119258157994 #
plane-surface $-1 0 -29.327412813900747 0 0 1 0 0 0 1 forward_v I I I I #
straight-curve $-1 -74.638639551453977 0 0.1083979479697903 0 1 0 I I #
point $-1 -74.638639551453977 29.327412813900747 0.1083979479697903 #
point $-1 -74.638639551453977 -29.327412813900747 0.1083979479697903 #
edge $-1 $880 -29.327412813900747 $840 29.327412813900747 $825 $925 forward 7 unknown #
vertex $-1 $879 $926 #
straight-curve $-1 -74.638639551453977 -29.327412813900747 2.008282843174535 0 0 -1 I I #
straight-curve $-1 0 -29.327412813900747 -6.6812119258157994 -1 0 0 I I #
point $-1 -69.402752769554738 29.327412813900747 -6.6812119258157994 #
face $-1 $927 $916 $19 $-1 $928 reversed single #
coedge $-1 $929 $845 $889 $930 reversed $788 $-1 #
coedge $-1 $845 $929 $850 $899 reversed $788 $-1 #
coedge $-1 $851 $892 $845 $888 reversed $808 $-1 #
edge $-1 $900 -1.8998848952047447 $931 1.8998848952047447 $887 $932 forward 7 unknown #
coedge $-1 $847 $846 $885 $930 forward $717 $-1 #
coedge $-1 $933 $902 $846 $891 reversed $904 $-1 #
edge $-1 $896 -2.6179433909496197 $934 2.6179433909496197 $890 $935 forward 7 unknown #
coedge $-1 $887 $919 $847 $893 reversed $808 $-1 #
edge $-1 $931 -2.6179433909496197 $897 2.6179433909496197 $892 $936 forward 7 unknown #
coedge $-1 $937 $848 $919 $938 forward $843 $-1 #
coedge $-1 $848 $937 $933 $939 reversed $843 $-1 #
vertex $-1 $939 $940 #
vertex $-1 $938 $941 #
straight-curve $-1 -69.402752769554738 0 0.1083979479697903 0 1 0 I I #
edge $-1 $900 -29.327412813900747 $905 29.327412813900747 $886 $942 forward 7 unknown #
vertex $-1 $852 $943 #
straight-curve $-1 -72.020696160504357 29.327412813900747 3.9081677383792797 -1 0 0 I I #
coedge $-1 $890 $853 $929 $944 forward $904 $-1 #
coedge $-1 $853 $861 $855 $907 forward $904 $-1 #
loop $-1 $-1 $903 $927 #
vertex $-1 $899 $945 #
straight-curve $-1 -72.020696160504357 -29.327412813900747 3.9081677383792797 1 0 0 I I #
edge $-1 $870 -6.6812119258157994 $859 -3.9081677383792797 $855 $946 forward 7 unknown #
point $-1 -69.402752769554738 29.327412813900747 3.9081677383792797 #
point $-1 -69.402752769554738 -29.327412813900747 3.9081677383792797 #
coedge $-1 $861 $947 $863 $912 reversed $904 $-1 #
straight-curve $-1 0 -29.327412813900747 6.6812119258157994 1 0 0 I I #
edge $-1 $864 -6.6812119258157994 $917 6.6812119258157994 $863 $948 forward 7 unknown #
point $-1 69.402752769554738 -29.327412813900747 6.6812119258157994 #
coedge $-1 $949 $865 $947 $950 forward $916 $-1 #
coedge $-1 $865 $949 $867 $920 forward $916 $-1 #
loop $-1 $-1 $865 $884 #
vertex $-1 $912 $951 #
straight-curve $-1 69.402752769554738 0 -6.6812119258157994 0 -1 0 I I #
coedge $-1 $892 $867 $894 $938 reversed $808 $-1 #
edge $-1 $952 -69.402752769554738 $868 69.402752769554738 $867 $953 forward 7 unknown #
point $-1 69.402752769554738 29.327412813900747 -6.6812119258157994 #
point $-1 -69.402752769554738 -29.327412813900747 6.6812119258157994 #
straight-curve $-1 -69.402752769554738 29.327412813900747 0 0 0 -1 I I #
plane-surface $-1 0 29.327412813900747 0 0 -1 0 0 0 -1 forward_v I I I I #
straight-curve $-1 -69.402752769554738 0 -6.6812119258157994 0 1 0 I I #
point $-1 -69.402752769554738 -29.327412813900747 -6.6812119258157994 #
face $-1 $873 $904 $19 $-1 $954 reversed single #
plane-surface $-1 0 0 -6.6812119258157994 0 0 1 1 0 0 forward_v I I I I #
coedge $-1 $886 $885 $902 $944 reversed $788 $-1 #
edge $-1 $934 -29.327412813900747 $931 29.327412813900747 $885 $955 forward 7 unknown #
vertex $-1 $893 $956 #
straight-curve $-1 -74.638639551453977 29.327412813900747 2.008282843174535 0 0 -1 I I #
coedge $-1 $947 $890 $895 $939 forward $904 $-1 #
vertex $-1 $930 $957 #
straight-curve $-1 -72.020696160504357 -29.327412813900747 0.1083979479697903 -1 0 0 I I #
straight-curve $-1 -72.020696160504357 29.327412813900747 0.1083979479697903 1 0 0 I I #
coedge $-1 $895 $894 $949 $958 reversed $843 $-1 #
edge $-1 $897 -0.1083979479697903 $952 6.6812119258157994 $919 $923 forward 7 unknown #
edge $-1 $896 -0.1083979479697903 $959 6.6812119258157994 $895 $946 forward 7 unknown #
point $-1 -69.402752769554738 -29.327412813900747 0.1083979479697903 #
point $-1 -69.402752769554738 29.327412813900747 0.1083979479697903 #
straight-curve $-1 -74.638639551453977 0 3.9081677383792797 0 -1 0 I I #
point $-1 -74.638639551453977 29.327412813900747 3.9081677383792797 #
edge $-1 $905 -1.8998848952047447 $934 1.8998848952047447 $929 $960 forward 7 unknown #
point $-1 -74.638639551453977 -29.327412813900747 3.9081677383792797 #
straight-curve $-1 -69.402752769554738 -29.327412813900747 0 0 0 -1 I I #
coedge $-1 $910 $933 $914 $950 reversed $904 $-1 #
straight-curve $-1 69.402752769554738 -29.327412813900747 0 0 0 -1 I I #
coedge $-1 $915 $914 $937 $958 forward $916 $-1 #
edge $-1 $917 -69.402752769554738 $959 69.402752769554738 $947 $961 forward 7 unknown #
point $-1 69.402752769554738 -29.327412813900747 -6.6812119258157994 #
vertex $-1 $920 $962 #
straight-curve $-1 0 29.327412813900747 -6.6812119258157994 1 0 0 I I #
plane-surface $-1 0 -29.327412813900747 0 0 1 0 0 0 1 forward_v I I I I #
straight-curve $-1 -74.638639551453977 0 0.1083979479697903 0 1 0 I I #
point $-1 -74.638639551453977 29.327412813900747 0.1083979479697903 #
point $-1 -74.638639551453977 -29.327412813900747 0.1083979479697903 #
edge $-1 $959 -29.327412813900747 $952 29.327412813900747 $937 $963 forward 7 unknown #
vertex $-1 $958 $964 #
straight-curve $-1 -74.638639551453977 -29.327412813900747 2.008282843174535 0 0 -1 I I #
straight-curve $-1 0 -29.327412813900747 -6.6812119258157994 -1 0 0 I I #
point $-1 -69.402752769554738 29.327412813900747 -6.6812119258157994 #
straight-curve $-1 -69.402752769554738 0 -6.6812119258157994 0 1 0 I I #
point $-1 -69.402752769554738 -29.327412813900747 -6.6812119258157994 #
End-of-ACIS-data 