500 0 7 0           
7 Unknown 11 ACIS 5.0 NT 24 Fri Mar 26 02:11:31 1999 
-1 9.9999999999999995e-007 1e-010 
body $-1 $7 $-1 $8 #
body $-1 $9 $-1 $10 #
body $-1 $11 $-1 $12 #
body $-1 $13 $-1 $14 #
body $-1 $15 $-1 $16 #
body $-1 $17 $-1 $18 #
body $-1 $19 $-1 $20 #
lump $-1 $-1 $21 $0 #
transform $-1 1 0 0 0 1 0 0 0 1 76.085085604419078 39.793565570674538 18.558226677912192 1 rotate no_reflect no_shear #
lump $-1 $-1 $22 $1 #
transform $-1 1 0 0 0 1 0 0 0 1 76.085085604419078 39.793565570674538 18.558226677912192 1 rotate no_reflect no_shear #
lump $-1 $-1 $23 $2 #
transform $-1 1 0 0 0 1 0 0 0 1 76.085085604419078 39.793565570674538 18.558226677912192 1 rotate no_reflect no_shear #
lump $-1 $-1 $24 $3 #
transform $-1 1 0 0 0 1 0 0 0 1 76.085085604419078 39.793565570674538 18.558226677912192 1 rotate no_reflect no_shear #
lump $-1 $-1 $25 $4 #
transform $-1 1 0 0 0 1 0 0 0 1 76.085085604419078 39.793565570674538 18.558226677912192 1 rotate no_reflect no_shear #
lump $-1 $-1 $26 $5 #
transform $-1 1 0 0 0 1 0 0 0 1 76.085085604419078 39.793565570674538 18.558226677912192 1 rotate no_reflect no_shear #
lump $-1 $-1 $27 $6 #
transform $-1 1 0 0 0 1 0 0 0 1 76.085085604419078 39.793565570674538 18.558226677912192 1 rotate no_reflect no_shear #
shell $-1 $-1 $-1 $28 $-1 $7 #
shell $-1 $-1 $-1 $29 $-1 $9 #
shell $-1 $-1 $-1 $30 $-1 $11 #
shell $-1 $-1 $-1 $31 $-1 $13 #
shell $-1 $-1 $-1 $32 $-1 $15 #
shell $-1 $-1 $-1 $33 $-1 $17 #
shell $-1 $-1 $-1 $34 $-1 $19 #
face $-1 $35 $36 $21 $-1 $37 forward single #
face $-1 $38 $39 $22 $-1 $40 forward single #
face $-1 $41 $42 $23 $-1 $43 forward single #
face $-1 $44 $45 $24 $-1 $46 reversed single #
face $-1 $47 $48 $25 $-1 $49 forward single #
face $-1 $50 $51 $26 $-1 $52 forward single #
face $-1 $53 $54 $27 $-1 $55 forward single #
face $-1 $56 $57 $21 $-1 $58 reversed single #
loop $-1 $-1 $59 $28 #
plane-surface $-1 0 0 18.558226677912192 0 0 1 1 0 0 forward_v I I I I #
face $-1 $60 $61 $22 $-1 $62 reversed single #
loop $-1 $-1 $63 $29 #
plane-surface $-1 -76.085085604419078 0 0 1 0 0 0 0 -1 forward_v I I I I #
face $-1 $64 $65 $23 $-1 $66 reversed single #
loop $-1 $-1 $67 $30 #
plane-surface $-1 64.052901503997788 0 9.3072405350159499 0 0 1 1 0 0 forward_v I I I I #
face $-1 $68 $69 $24 $-1 $70 reversed single #
loop $-1 $-1 $71 $31 #
plane-surface $-1 -30.661899153513527 52.93775710563505 173.6344324064209 -1 0 0 0 0.52991927123019833 0.84804809178421925 forward_v I I I I #
face $-1 $72 $73 $25 $-1 $74 forward single #
loop $-1 $75 $76 $32 #
cone-surface $-1 -55.269587469120573 25.94450268396071 8.9977501359487402 0 -0.52991927123019833 -0.84804809178421925 2.5 0 0 1 I I 0 1 2.5 forward I I I I #
face $-1 $77 $78 $26 $-1 $79 forward single #
loop $-1 $80 $81 $33 #
cone-surface $-1 -46.04170435076793 25.94450268396071 8.9977501359487402 0 -0.52991927123019833 -0.84804809178421925 2.5 0 0 1 I I 0 1 2.5 forward I I I I #
face $-1 $82 $83 $27 $-1 $84 forward single #
loop $-1 $85 $86 $34 #
cone-surface $-1 -36.813821232415286 25.94450268396071 8.9977501359487402 0 -0.52991927123019833 -0.84804809178421925 2.5 0 0 1 I I 0 1 2.5 forward I I I I #
face $-1 $87 $88 $21 $-1 $89 reversed single #
loop $-1 $-1 $90 $35 #
plane-surface $-1 0 0 -18.558226677912192 0 0 1 1 0 0 forward_v I I I I #
coedge $-1 $91 $92 $93 $94 forward $36 $-1 #
face $-1 $95 $96 $22 $-1 $97 reversed single #
loop $-1 $-1 $98 $38 #
plane-surface $-1 0 0 -18.558226677912192 0 0 1 1 0 0 forward_v I I I I #
coedge $-1 $99 $100 $101 $102 forward $39 $-1 #
face $-1 $103 $104 $23 $-1 $105 reversed single #
loop $-1 $-1 $106 $41 #
plane-surface $-1 64.052901503997788 0 4.0888260031714907 0 0 1 1 0 0 forward_v I I I I #
coedge $-1 $107 $108 $109 $110 reversed $42 $-1 #
face $-1 $111 $112 $24 $-1 $113 reversed single #
loop $-1 $-1 $114 $44 #
plane-surface $-1 -46.04170435076793 -27.700149124326977 44.586809086287758 0 0.52991927123019833 0.84804809178421925 1 0 0 forward_v I I I I #
coedge $-1 $115 $116 $117 $118 reversed $45 $-1 #
face $-1 $-1 $119 $25 $-1 $120 forward single #
loop $-1 $121 $122 $47 #
cone-surface $-1 -55.269587469120573 24.35267885303022 6.4502995419301854 0 -0.52991927123019833 -0.84804809178421925 1.25 0 0 1 I I -0.70710678118654746 0.70710678118654746 1.25 forward I I I I #
loop $-1 $-1 $123 $32 #
coedge $-1 $76 $76 $124 $125 reversed $48 $-1 #
face $-1 $-1 $126 $26 $-1 $127 forward single #
loop $-1 $128 $129 $50 #
cone-surface $-1 -46.04170435076793 24.35267885303022 6.4502995419301854 0 -0.52991927123019833 -0.84804809178421925 1.25 0 0 1 I I -0.70710678118654746 0.70710678118654746 1.25 forward I I I I #
loop $-1 $-1 $130 $33 #
coedge $-1 $81 $81 $131 $132 reversed $51 $-1 #
face $-1 $-1 $133 $27 $-1 $134 forward single #
loop $-1 $135 $136 $53 #
cone-surface $-1 -36.813821232415286 24.35267885303022 6.4502995419301854 0 -0.52991927123019833 -0.84804809178421925 1.25 0 0 1 I I -0.70710678118654746 0.70710678118654746 1.25 forward I I I I #
loop $-1 $-1 $137 $34 #
coedge $-1 $86 $86 $138 $139 reversed $54 $-1 #
face $-1 $140 $141 $21 $-1 $142 reversed single #
loop $-1 $-1 $143 $56 #
plane-surface $-1 0 -39.793565570674538 0 0 1 0 0 0 1 forward_v I I I I #
coedge $-1 $144 $145 $146 $147 forward $57 $-1 #
coedge $-1 $148 $59 $149 $150 forward $36 $-1 #
coedge $-1 $59 $148 $151 $152 forward $36 $-1 #
coedge $-1 $153 $154 $59 $94 reversed $155 $-1 #
edge $-1 $156 -39.793565570674538 $157 39.793565570674538 $93 $158 forward 7 unknown #
face $-1 $159 $160 $22 $-1 $161 reversed single #
loop $-1 $-1 $162 $60 #
plane-surface $-1 -83.416873632617452 -21.727744753740346 0 0 1 0 0 0 1 forward_v I I I I #
coedge $-1 $163 $164 $100 $165 forward $61 $-1 #
coedge $-1 $166 $63 $167 $168 reversed $39 $-1 #
coedge $-1 $63 $166 $98 $165 reversed $39 $-1 #
coedge $-1 $169 $170 $63 $102 reversed $171 $-1 #
edge $-1 $172 -18.558226677912192 $173 18.558226677912192 $101 $174 forward 7 unknown #
face $-1 $175 $176 $23 $-1 $177 reversed single #
loop $-1 $-1 $178 $64 #
plane-surface $-1 52.020717403576498 0 6.6980332690937203 1 0 0 0 0 -1 forward_v I I I I #
coedge $-1 $179 $180 $181 $182 reversed $65 $-1 #
coedge $-1 $183 $67 $184 $185 reversed $42 $-1 #
coedge $-1 $67 $183 $186 $187 reversed $42 $-1 #
coedge $-1 $188 $189 $67 $110 forward $176 $-1 #
edge $-1 $190 -39.793565570674538 $191 39.793565570674538 $109 $192 forward 7 unknown #
face $-1 $193 $194 $24 $-1 $195 reversed single #
loop $-1 $-1 $196 $68 #
plane-surface $-1 -61.421509548022328 52.93775710563505 173.6344324064209 1 0 0 0 -0.52991927123019833 -0.84804809178421925 forward_v I I I I #
coedge $-1 $197 $198 $199 $200 reversed $69 $-1 #
coedge $-1 $116 $71 $201 $202 reversed $45 $-1 #
coedge $-1 $71 $115 $197 $203 reversed $45 $-1 #
coedge $-1 $199 $204 $71 $118 forward $194 $-1 #
edge $-1 $205 68.258989525298261 $206 84.405161650648637 $117 $207 forward 7 unknown #
loop $-1 $-1 $124 $72 #
plane-surface $-1 -46.04170435076793 -27.700149124326977 44.586809086287758 0 0.52991927123019833 0.84804809178421925 1 0 0 forward_v I I I I #
loop $-1 $-1 $208 $47 #
coedge $-1 $122 $122 $123 $209 reversed $73 $-1 #
coedge $-1 $123 $123 $122 $209 forward $75 $-1 #
coedge $-1 $124 $124 $76 $125 forward $119 $-1 #
edge $-1 $210 -1.498564199640866e-016 $210 6.2831853071796004 $124 $211 forward 7 unknown #
loop $-1 $-1 $131 $77 #
plane-surface $-1 -46.04170435076793 -27.700149124326977 44.586809086287758 0 0.52991927123019833 0.84804809178421925 1 0 0 forward_v I I I I #
loop $-1 $-1 $212 $50 #
coedge $-1 $129 $129 $130 $213 reversed $78 $-1 #
coedge $-1 $130 $130 $129 $213 forward $80 $-1 #
coedge $-1 $131 $131 $81 $132 forward $126 $-1 #
edge $-1 $214 -1.498564199640866e-016 $214 6.2831853071796004 $131 $215 forward 7 unknown #
loop $-1 $-1 $138 $82 #
plane-surface $-1 -46.04170435076793 -27.700149124326977 44.586809086287758 0 0.52991927123019833 0.84804809178421925 1 0 0 forward_v I I I I #
loop $-1 $-1 $216 $53 #
coedge $-1 $136 $136 $137 $217 reversed $83 $-1 #
coedge $-1 $137 $137 $136 $217 forward $85 $-1 #
coedge $-1 $138 $138 $86 $139 forward $133 $-1 #
edge $-1 $218 -1.498564199640866e-016 $218 6.2831853071796004 $138 $219 forward 7 unknown #
face $-1 $220 $221 $21 $-1 $222 reversed single #
loop $-1 $-1 $223 $87 #
plane-surface $-1 -76.085085604419078 0 0 1 0 0 0 0 -1 forward_v I I I I #
coedge $-1 $224 $151 $225 $226 forward $88 $-1 #
coedge $-1 $227 $90 $224 $228 forward $57 $-1 #
coedge $-1 $90 $227 $229 $230 forward $57 $-1 #
coedge $-1 $154 $153 $90 $147 reversed $155 $-1 #
edge $-1 $231 -39.793565570674538 $232 39.793565570674538 $146 $233 forward 7 unknown #
coedge $-1 $92 $91 $234 $235 forward $36 $-1 #
coedge $-1 $236 $237 $91 $150 reversed $221 $-1 #
edge $-1 $157 -76.085085604419078 $238 76.085085604419078 $149 $239 forward 7 unknown #
coedge $-1 $143 $240 $92 $152 reversed $88 $-1 #
edge $-1 $241 -76.085085604419078 $156 76.085085604419078 $151 $242 forward 7 unknown #
coedge $-1 $146 $93 $240 $243 forward $155 $-1 #
coedge $-1 $93 $146 $236 $244 reversed $155 $-1 #
loop $-1 $-1 $153 $220 #
vertex $-1 $94 $245 #
vertex $-1 $94 $246 #
straight-curve $-1 76.085085604419078 0 18.558226677912192 0 1 0 I I #
face $-1 $247 $171 $22 $-1 $248 reversed single #
loop $-1 $-1 $249 $95 #
plane-surface $-1 -90.748661660815827 -18.717208119124962 0 1 0 0 0 0 -1 forward_v I I I I #
coedge $-1 $250 $251 $252 $253 forward $96 $-1 #
coedge $-1 $254 $98 $250 $255 forward $61 $-1 #
coedge $-1 $98 $254 $169 $256 forward $61 $-1 #
edge $-1 $172 15.706671484509579 $257 21.727744753740346 $98 $258 forward 7 unknown #
coedge $-1 $100 $99 $259 $260 forward $39 $-1 #
coedge $-1 $261 $262 $99 $168 forward $263 $-1 #
edge $-1 $264 -21.727744753740346 $173 -15.706671484509579 $167 $265 forward 7 unknown #
coedge $-1 $266 $101 $164 $256 reversed $171 $-1 #
coedge $-1 $101 $266 $261 $267 reversed $171 $-1 #
loop $-1 $-1 $101 $159 #
vertex $-1 $165 $268 #
vertex $-1 $267 $269 #
straight-curve $-1 -76.085085604419078 -15.706671484509579 0 0 0 1 I I #
face $-1 $270 $271 $23 $-1 $272 reversed single #
loop $-1 $-1 $181 $103 #
plane-surface $-1 76.085085604419078 0 0 -1 0 0 0 0 1 forward_v I I I I #
coedge $-1 $273 $274 $275 $276 reversed $104 $-1 #
coedge $-1 $277 $106 $278 $279 reversed $65 $-1 #
coedge $-1 $106 $277 $280 $281 reversed $65 $-1 #
coedge $-1 $189 $188 $106 $182 forward $176 $-1 #
edge $-1 $282 -39.793565570674538 $283 39.793565570674538 $181 $284 forward 7 unknown #
coedge $-1 $108 $107 $274 $285 forward $42 $-1 #
coedge $-1 $286 $275 $107 $185 forward $271 $-1 #
edge $-1 $287 19.994266651577604 $190 44.058634852420184 $184 $288 forward 7 unknown #
coedge $-1 $289 $290 $108 $187 forward $291 $-1 #
edge $-1 $191 -44.058634852420184 $292 -19.994266651577604 $186 $293 forward 7 unknown #
coedge $-1 $181 $109 $290 $294 forward $176 $-1 #
coedge $-1 $109 $181 $286 $295 reversed $176 $-1 #
vertex $-1 $295 $296 #
vertex $-1 $294 $297 #
straight-curve $-1 76.085085604419078 0 9.3072405350159499 0 -1 0 I I #
face $-1 $-1 $298 $24 $-1 $299 forward single #
loop $-1 $-1 $117 $111 #
plane-surface $-1 0 39.793565570674538 0 0 -1 0 0 0 -1 forward_v I I I I #
coedge $-1 $300 $301 $302 $303 reversed $112 $-1 #
coedge $-1 $304 $114 $116 $203 forward $69 $-1 #
coedge $-1 $114 $304 $300 $305 forward $69 $-1 #
coedge $-1 $302 $117 $114 $200 forward $194 $-1 #
edge $-1 $206 7.6410469781295625 $306 38.400657372638364 $199 $307 forward 7 unknown #
coedge $-1 $308 $309 $115 $202 forward $298 $-1 #
edge $-1 $310 -12.51458927178518 $205 13.324687017857013 $201 $311 forward 7 unknown #
edge $-1 $206 -79.587131141349104 $310 -49.118014425009811 $116 $312 forward 7 unknown #
coedge $-1 $117 $302 $308 $313 reversed $194 $-1 #
vertex $-1 $313 $314 #
vertex $-1 $118 $315 #
straight-curve $-1 -30.661899153513527 39.793565570674538 86.81721620321045 0 0 -1 I I #
coedge $-1 $208 $208 $-1 $316 reversed $121 $-1 #
edge $-1 $317 0 $317 6.2831853071796004 $122 $318 forward 7 unknown #
vertex $-1 $125 $319 #
ellipse-curve $-1 -55.269587469120573 26.873927425853442 10.485140615237002 0 0.52991927123019833 0.84804809178421925 2.5 0 0 1 I I #
coedge $-1 $212 $212 $-1 $320 reversed $128 $-1 #
edge $-1 $321 0 $321 6.2831853071796004 $129 $322 forward 7 unknown #
vertex $-1 $132 $323 #
ellipse-curve $-1 -46.04170435076793 26.873927425853442 10.485140615237002 0 0.52991927123019833 0.84804809178421925 2.5 0 0 1 I I #
coedge $-1 $216 $216 $-1 $324 reversed $135 $-1 #
edge $-1 $325 0 $325 6.2831853071796004 $136 $326 forward 7 unknown #
vertex $-1 $139 $327 #
ellipse-curve $-1 -36.813821232415286 26.873927425853442 10.485140615237002 0 0.52991927123019833 0.84804809178421925 2.5 0 0 1 I I #
face $-1 $-1 $155 $21 $-1 $328 reversed single #
loop $-1 $-1 $236 $140 #
plane-surface $-1 0 39.793565570674538 0 0 -1 0 0 0 -1 forward_v I I I I #
coedge $-1 $329 $234 $237 $330 forward $141 $-1 #
coedge $-1 $240 $143 $144 $228 reversed $88 $-1 #
coedge $-1 $234 $329 $143 $226 reversed $141 $-1 #
edge $-1 $241 -18.558226677912192 $331 18.558226677912192 $225 $332 forward 7 unknown #
coedge $-1 $145 $144 $329 $333 forward $57 $-1 #
edge $-1 $232 -76.085085604419078 $331 76.085085604419078 $224 $334 forward 7 unknown #
coedge $-1 $237 $236 $145 $230 reversed $221 $-1 #
edge $-1 $335 -76.085085604419078 $231 76.085085604419078 $229 $336 forward 7 unknown #
vertex $-1 $147 $337 #
vertex $-1 $243 $338 #
straight-curve $-1 76.085085604419078 0 -18.558226677912192 0 -1 0 I I #
coedge $-1 $223 $225 $148 $235 reversed $141 $-1 #
edge $-1 $238 -39.793565570674538 $241 39.793565570674538 $234 $339 forward 7 unknown #
coedge $-1 $229 $149 $154 $244 forward $221 $-1 #
coedge $-1 $149 $229 $223 $330 reversed $221 $-1 #
vertex $-1 $150 $340 #
straight-curve $-1 0 39.793565570674538 18.558226677912192 -1 0 0 I I #
coedge $-1 $151 $224 $153 $243 reversed $88 $-1 #
vertex $-1 $235 $341 #
straight-curve $-1 0 -39.793565570674538 18.558226677912192 1 0 0 I I #
edge $-1 $156 -18.558226677912192 $232 18.558226677912192 $153 $342 forward 7 unknown #
edge $-1 $157 -18.558226677912192 $231 18.558226677912192 $154 $343 forward 7 unknown #
point $-1 76.085085604419078 -39.793565570674538 18.558226677912192 #
point $-1 76.085085604419078 39.793565570674538 18.558226677912192 #
face $-1 $-1 $263 $22 $-1 $344 forward single #
plane-surface $-1 -83.416873632617452 -15.706671484509579 0 0 -1 0 0 0 -1 forward_v I I I I #
coedge $-1 $345 $346 $266 $347 forward $160 $-1 #
coedge $-1 $259 $162 $163 $255 reversed $96 $-1 #
coedge $-1 $162 $259 $262 $348 reversed $96 $-1 #
coedge $-1 $346 $345 $162 $253 reversed $160 $-1 #
edge $-1 $349 -18.558226677912192 $350 18.558226677912192 $252 $351 forward 7 unknown #
coedge $-1 $164 $163 $345 $352 forward $61 $-1 #
edge $-1 $257 -7.3317880281983747 $350 7.3317880281983747 $250 $353 forward 7 unknown #
edge $-1 $354 -7.3317880281983747 $172 7.3317880281983747 $169 $355 forward 7 unknown #
vertex $-1 $255 $356 #
straight-curve $-1 -76.085085604419078 0 -18.558226677912192 0 -1 0 I I #
coedge $-1 $251 $250 $166 $260 reversed $96 $-1 #
edge $-1 $264 -18.558226677912192 $257 18.558226677912192 $259 $357 forward 7 unknown #
coedge $-1 $358 $167 $170 $267 forward $263 $-1 #
coedge $-1 $167 $358 $251 $348 forward $263 $-1 #
loop $-1 $-1 $167 $247 #
vertex $-1 $168 $359 #
straight-curve $-1 -76.085085604419078 0 18.558226677912192 0 1 0 I I #
coedge $-1 $170 $169 $249 $347 reversed $171 $-1 #
edge $-1 $173 -7.3317880281983747 $360 7.3317880281983747 $170 $361 forward 7 unknown #
point $-1 -76.085085604419078 -15.706671484509579 -18.558226677912192 #
point $-1 -76.085085604419078 -15.706671484509579 18.558226677912192 #
face $-1 $-1 $291 $23 $-1 $362 reversed single #
loop $-1 $-1 $280 $175 #
plane-surface $-1 0 39.793565570674538 0 0 -1 0 0 0 -1 forward_v I I I I #
coedge $-1 $363 $178 $277 $364 reversed $104 $-1 #
coedge $-1 $178 $363 $183 $285 reversed $104 $-1 #
coedge $-1 $184 $280 $178 $276 forward $271 $-1 #
edge $-1 $365 0.73980936862463054 $287 5.9582239004690898 $275 $366 forward 7 unknown #
coedge $-1 $180 $179 $273 $364 forward $65 $-1 #
coedge $-1 $290 $289 $179 $279 forward $291 $-1 #
edge $-1 $367 19.994266651577604 $282 44.058634852420184 $278 $368 forward 7 unknown #
coedge $-1 $275 $286 $180 $281 forward $271 $-1 #
edge $-1 $283 -44.058634852420184 $365 -19.994266651577604 $280 $369 forward 7 unknown #
vertex $-1 $182 $370 #
vertex $-1 $182 $371 #
straight-curve $-1 76.085085604419078 0 4.0888260031714907 0 1 0 I I #
edge $-1 $287 -39.793565570674538 $292 39.793565570674538 $274 $372 forward 7 unknown #
coedge $-1 $280 $184 $189 $295 forward $271 $-1 #
vertex $-1 $185 $373 #
straight-curve $-1 32.026450751998894 39.793565570674538 9.3072405350159499 1 0 0 I I #
coedge $-1 $278 $186 $363 $374 forward $291 $-1 #
coedge $-1 $186 $278 $188 $294 reversed $291 $-1 #
loop $-1 $-1 $278 $270 #
vertex $-1 $187 $375 #
straight-curve $-1 32.026450751998894 -39.793565570674538 9.3072405350159499 -1 0 0 I I #
edge $-1 $191 -9.3072405350159499 $282 -4.0888260031714907 $188 $376 forward 7 unknown #
edge $-1 $190 -9.3072405350159499 $283 -4.0888260031714907 $189 $377 forward 7 unknown #
point $-1 76.085085604419078 39.793565570674538 9.3072405350159499 #
point $-1 76.085085604419078 -39.793565570674538 9.3072405350159499 #
loop $-1 $-1 $201 $193 #
plane-surface $-1 0 0 18.558226677912192 0 0 1 1 0 0 forward_v I I I I #
coedge $-1 $301 $196 $198 $305 reversed $112 $-1 #
coedge $-1 $196 $300 $378 $379 reversed $112 $-1 #
coedge $-1 $204 $199 $196 $303 forward $194 $-1 #
edge $-1 $306 -84.405161650648637 $380 -68.258989525298261 $302 $381 forward 7 unknown #
coedge $-1 $198 $197 $309 $382 reversed $69 $-1 #
edge $-1 $383 49.118014425009811 $306 79.587131141349104 $300 $384 forward 7 unknown #
vertex $-1 $200 $385 #
straight-curve $-1 -23.020852175383965 39.793565570674545 2.4120545525618162 -1 0 0 I I #
coedge $-1 $378 $201 $204 $313 forward $298 $-1 #
coedge $-1 $201 $378 $304 $382 forward $298 $-1 #
vertex $-1 $202 $386 #
straight-curve $-1 -30.661899153513527 26.468878552817525 18.558226677912188 0 1 0 I I #
straight-curve $-1 -30.661899153513527 -27.700149124326977 44.586809086287758 0 -0.84804809178421925 0.52991927123019833 I I #
edge $-1 $205 30.661899153513527 $380 61.421509548022328 $204 $387 forward 7 unknown #
point $-1 -30.661899153513527 39.793565570674538 18.558226677912192 #
point $-1 -30.661899153513527 39.793565570674538 2.4120545525618198 #
edge $-1 $388 1 $388 0 $208 $-1 forward 7 unknown #
vertex $-1 $209 $389 #
ellipse-curve $-1 -55.269587469120573 25.015077942067968 7.5103596566604596 0 0.52991927123019833 0.84804809178421925 2.5 0 0 1 I I #
point $-1 -52.769587469120573 26.873927425853452 10.48514061523702 #
edge $-1 $390 1 $390 0 $212 $-1 forward 7 unknown #
vertex $-1 $213 $391 #
ellipse-curve $-1 -46.04170435076793 25.015077942067968 7.5103596566604596 0 0.52991927123019833 0.84804809178421925 2.5 0 0 1 I I #
point $-1 -43.54170435076793 26.873927425853452 10.48514061523702 #
edge $-1 $392 1 $392 0 $216 $-1 forward 7 unknown #
vertex $-1 $217 $393 #
ellipse-curve $-1 -36.813821232415286 25.015077942067968 7.5103596566604596 0 0.52991927123019833 0.84804809178421925 2.5 0 0 1 I I #
point $-1 -34.313821232415286 26.873927425853452 10.48514061523702 #
plane-surface $-1 76.085085604419078 0 0 -1 0 0 0 0 1 forward_v I I I I #
coedge $-1 $225 $223 $227 $333 reversed $141 $-1 #
edge $-1 $238 -18.558226677912192 $335 18.558226677912192 $237 $394 forward 7 unknown #
vertex $-1 $333 $395 #
straight-curve $-1 -76.085085604419078 -39.793565570674538 0 0 0 -1 I I #
edge $-1 $331 -39.793565570674538 $335 39.793565570674538 $329 $396 forward 7 unknown #
straight-curve $-1 0 -39.793565570674538 -18.558226677912192 -1 0 0 I I #
vertex $-1 $230 $397 #
straight-curve $-1 0 39.793565570674538 -18.558226677912192 1 0 0 I I #
point $-1 76.085085604419078 39.793565570674538 -18.558226677912192 #
point $-1 76.085085604419078 -39.793565570674538 -18.558226677912192 #
straight-curve $-1 -76.085085604419078 0 18.558226677912192 0 -1 0 I I #
point $-1 -76.085085604419078 39.793565570674538 18.558226677912192 #
point $-1 -76.085085604419078 -39.793565570674538 18.558226677912192 #
straight-curve $-1 76.085085604419078 -39.793565570674538 0 0 0 -1 I I #
straight-curve $-1 76.085085604419078 39.793565570674538 0 0 0 -1 I I #
plane-surface $-1 0 0 18.558226677912192 0 0 1 1 0 0 forward_v I I I I #
coedge $-1 $252 $249 $254 $352 reversed $160 $-1 #
coedge $-1 $249 $252 $358 $398 reversed $160 $-1 #
edge $-1 $360 -18.558226677912192 $354 18.558226677912192 $266 $399 forward 7 unknown #
edge $-1 $349 -7.3317880281983747 $264 7.3317880281983747 $251 $400 forward 7 unknown #
vertex $-1 $398 $401 #
vertex $-1 $352 $402 #
straight-curve $-1 -90.748661660815827 -21.727744753740346 0 0 0 -1 I I #
edge $-1 $350 -3.0105366346153843 $354 3.0105366346153826 $345 $403 forward 7 unknown #
straight-curve $-1 -83.416873632617452 -21.727744753740346 -18.558226677912192 -1 0 0 I I #
vertex $-1 $256 $404 #
straight-curve $-1 -83.416873632617452 -15.706671484509579 -18.558226677912192 1 0 0 I I #
point $-1 -76.085085604419078 -21.727744753740346 -18.558226677912192 #
straight-curve $-1 -76.085085604419078 -21.727744753740346 0 0 0 -1 I I #
coedge $-1 $262 $261 $346 $398 forward $263 $-1 #
point $-1 -76.085085604419078 -21.727744753740346 18.558226677912192 #
vertex $-1 $267 $405 #
straight-curve $-1 -83.416873632617452 -15.706671484509579 18.558226677912192 -1 0 0 I I #
plane-surface $-1 0 -39.793565570674538 0 0 1 0 0 0 1 forward_v I I I I #
coedge $-1 $274 $273 $289 $374 reversed $104 $-1 #
edge $-1 $367 -39.793565570674538 $365 39.793565570674538 $273 $406 forward 7 unknown #
vertex $-1 $281 $407 #
straight-curve $-1 52.020717403576498 39.793565570674538 3.3490166345468602 0 0 1 I I #
vertex $-1 $279 $408 #
straight-curve $-1 32.026450751998894 -39.793565570674538 4.0888260031714907 1 0 0 I I #
straight-curve $-1 32.026450751998894 39.793565570674538 4.0888260031714907 -1 0 0 I I #
point $-1 76.085085604419078 -39.793565570674538 4.0888260031714907 #
point $-1 76.085085604419078 39.793565570674538 4.0888260031714907 #
straight-curve $-1 52.020717403576498 0 9.3072405350159499 0 -1 0 I I #
point $-1 52.020717403576498 39.793565570674538 9.3072405350159499 #
edge $-1 $292 -5.9582239004690898 $367 -0.73980936862463054 $289 $409 forward 7 unknown #
point $-1 52.020717403576498 -39.793565570674538 9.3072405350159499 #
straight-curve $-1 76.085085604419078 -39.793565570674538 0 0 0 -1 I I #
straight-curve $-1 76.085085604419078 39.793565570674538 0 0 0 -1 I I #
coedge $-1 $309 $308 $301 $379 forward $298 $-1 #
edge $-1 $380 -13.324687017857013 $383 12.51458927178518 $378 $410 forward 7 unknown #
vertex $-1 $379 $411 #
straight-curve $-1 -61.421509548022328 39.793565570674538 86.81721620321045 0 0 1 I I #
edge $-1 $383 -38.400657372638364 $310 -7.6410469781295625 $309 $412 forward 7 unknown #
vertex $-1 $382 $413 #
straight-curve $-1 -61.421509548022328 -27.700149124326977 44.586809086287758 0 0.84804809178421925 -0.52991927123019833 I I #
point $-1 -61.421509548022328 39.793565570674538 2.4120545525618198 #
point $-1 -30.661899153513527 13.954289281032345 18.558226677912192 #
straight-curve $-1 0 39.793565570674538 18.558226677912192 -1 0 0 I I #
vertex $-1 $316 $414 #
point $-1 -52.769587469120573 25.015077942067968 7.5103596566604596 #
vertex $-1 $320 $415 #
point $-1 -43.54170435076793 25.015077942067968 7.5103596566604596 #
vertex $-1 $324 $416 #
point $-1 -34.313821232415286 25.015077942067968 7.5103596566604596 #
straight-curve $-1 -76.085085604419078 39.793565570674538 0 0 0 -1 I I #
point $-1 -76.085085604419078 -39.793565570674538 -18.558226677912192 #
straight-curve $-1 -76.085085604419078 0 -18.558226677912192 0 1 0 I I #
point $-1 -76.085085604419078 39.793565570674538 -18.558226677912192 #
edge $-1 $360 -3.0105366346153826 $349 3.0105366346153843 $346 $417 forward 7 unknown #
straight-curve $-1 -90.748661660815827 -15.706671484509579 0 0 0 -1 I I #
straight-curve $-1 -83.416873632617452 -21.727744753740346 18.558226677912192 1 0 0 I I #
point $-1 -90.748661660815827 -21.727744753740346 18.558226677912192 #
point $-1 -90.748661660815827 -21.727744753740346 -18.558226677912192 #
straight-curve $-1 -90.748661660815827 -18.717208119124962 -18.558226677912192 0 1 0 I I #
point $-1 -90.748661660815827 -15.706671484509579 -18.558226677912192 #
point $-1 -90.748661660815827 -15.706671484509579 18.558226677912192 #
straight-curve $-1 52.020717403576498 0 4.0888260031714907 0 1 0 I I #
point $-1 52.020717403576498 39.793565570674538 4.0888260031714907 #
point $-1 52.020717403576498 -39.793565570674538 4.0888260031714907 #
straight-curve $-1 52.020717403576498 -39.793565570674538 3.3490166345468602 0 0 -1 I I #
straight-curve $-1 -61.421509548022328 26.468878552817525 18.558226677912188 0 -1 0 I I #
point $-1 -61.421509548022328 39.793565570674538 18.558226677912192 #
straight-curve $-1 -23.020852175383965 13.954289281032352 18.558226677912192 1 0 0 I I #
point $-1 -61.421509548022328 13.954289281032345 18.558226677912192 #
point $-1 -55.269587469120573 23.690279763992471 5.3902394271999112 #
point $-1 -46.04170435076793 23.690279763992471 5.3902394271999112 #
point $-1 -36.813821232415286 23.690279763992471 5.3902394271999112 #
straight-curve $-1 -90.748661660815827 -18.717208119124962 18.558226677912192 0 -1 0 I I #
End-of-ACIS-data 