500 0 7 0           
7 Unknown 11 ACIS 5.0 NT 24 Fri Mar 26 14:55:12 1999 
-1 9.9999999999999995e-007 1e-010 
body $-1 $7 $-1 $8 #
body $-1 $9 $-1 $10 #
body $-1 $11 $-1 $12 #
body $-1 $13 $-1 $14 #
body $-1 $15 $-1 $16 #
body $-1 $17 $-1 $18 #
body $-1 $19 $-1 $20 #
lump $-1 $-1 $21 $0 #
transform $-1 1 0 0 0 1 0 0 0 1 63.667714468825338 28.582173523252685 11.22177635859069 1 rotate no_reflect no_shear #
lump $-1 $-1 $22 $1 #
transform $-1 1 0 0 0 1 0 0 0 1 63.667714468825338 28.582173523252685 11.22177635859069 1 rotate no_reflect no_shear #
lump $-1 $-1 $23 $2 #
transform $-1 1 0 0 0 1 0 0 0 1 63.667714468825338 28.582173523252685 11.22177635859069 1 rotate no_reflect no_shear #
lump $-1 $-1 $24 $3 #
transform $-1 1 0 0 0 1 0 0 0 1 63.667714468825338 28.582173523252685 11.22177635859069 1 rotate no_reflect no_shear #
lump $-1 $-1 $25 $4 #
transform $-1 1 0 0 0 1 0 0 0 1 63.667714468825338 28.582173523252685 11.22177635859069 1 rotate no_reflect no_shear #
lump $-1 $-1 $26 $5 #
transform $-1 1 0 0 0 1 0 0 0 1 63.667714468825338 28.582173523252685 11.22177635859069 1 rotate no_reflect no_shear #
lump $-1 $-1 $27 $6 #
transform $-1 1 0 0 0 1 0 0 0 1 63.667714468825338 28.582173523252685 11.22177635859069 1 rotate no_reflect no_shear #
shell $-1 $-1 $-1 $28 $-1 $7 #
shell $-1 $-1 $-1 $29 $-1 $9 #
shell $-1 $-1 $-1 $30 $-1 $11 #
shell $-1 $-1 $-1 $31 $-1 $13 #
shell $-1 $-1 $-1 $32 $-1 $15 #
shell $-1 $-1 $-1 $33 $-1 $17 #
shell $-1 $-1 $-1 $34 $-1 $19 #
face $-1 $35 $36 $21 $-1 $37 forward single #
face $-1 $38 $39 $22 $-1 $40 forward single #
face $-1 $41 $42 $23 $-1 $43 forward single #
face $-1 $44 $45 $24 $-1 $46 reversed single #
face $-1 $47 $48 $25 $-1 $49 forward single #
face $-1 $50 $51 $26 $-1 $52 reversed single #
face $-1 $53 $54 $27 $-1 $55 forward single #
face $-1 $56 $57 $21 $-1 $58 reversed single #
loop $-1 $-1 $59 $28 #
plane-surface $-1 0 0 11.22177635859069 0 0 1 1 0 0 forward_v I I I I #
face $-1 $60 $61 $22 $-1 $62 reversed single #
loop $-1 $-1 $63 $29 #
plane-surface $-1 -63.667714468825338 0 0 1 0 0 0 0 -1 forward_v I I I I #
face $-1 $64 $65 $23 $-1 $66 reversed single #
loop $-1 $-1 $67 $30 #
plane-surface $-1 63.667714468825338 0 0 -1 0 0 0 0 1 forward_v I I I I #
face $-1 $68 $69 $24 $-1 $70 reversed single #
loop $-1 $-1 $71 $31 #
plane-surface $-1 -9.0286362191894547 -120.17961660040478 88.975773760260793 -1 0 0 0 -0.71933980857756763 0.69465836192734942 forward_v I I I I #
face $-1 $72 $73 $25 $-1 $74 forward single #
loop $-1 $75 $76 $32 #
cone-surface $-1 -18.385718392421893 -21.030378649725691 3.5682399763327122 0 0.71933980857756763 -0.69465836192734942 2 0 0 1 I I 0 1 2 forward I I I I #
face $-1 $77 $78 $26 $-1 $79 reversed single #
loop $-1 $-1 $80 $33 #
plane-surface $-1 -27.742800565654331 80.469924920432845 130.09636422215559 1 0 0 0 -0.71933980857756763 -0.69465836192734942 forward_v I I I I #
face $-1 $81 $82 $27 $-1 $83 forward single #
loop $-1 $84 $85 $34 #
cone-surface $-1 -18.385718392421893 21.030378649725698 3.5682399763327033 0 -0.71933980857756763 -0.69465836192734942 2 0 0 1 I I 0 1 2 forward I I I I #
face $-1 $86 $87 $21 $-1 $88 reversed single #
loop $-1 $-1 $89 $35 #
plane-surface $-1 0 0 -11.22177635859069 0 0 1 1 0 0 forward_v I I I I #
coedge $-1 $90 $91 $92 $93 forward $36 $-1 #
face $-1 $94 $95 $22 $-1 $96 reversed single #
loop $-1 $-1 $97 $38 #
plane-surface $-1 0 0 -11.22177635859069 0 0 1 1 0 0 forward_v I I I I #
coedge $-1 $98 $99 $100 $101 forward $39 $-1 #
face $-1 $102 $103 $23 $-1 $104 reversed single #
loop $-1 $-1 $105 $41 #
plane-surface $-1 0 28.582173523252685 0 0 -1 0 0 0 -1 forward_v I I I I #
coedge $-1 $106 $107 $108 $109 forward $42 $-1 #
face $-1 $110 $111 $24 $-1 $112 reversed single #
loop $-1 $-1 $113 $44 #
plane-surface $-1 -18.385718392421893 -28.582173523252678 0.5211532791159641 0 -0.71933980857756763 0.69465836192734942 1 0 0 forward_v I I I I #
coedge $-1 $114 $115 $116 $117 reversed $45 $-1 #
face $-1 $-1 $118 $25 $-1 $119 forward single #
loop $-1 $120 $121 $47 #
cone-surface $-1 -18.385718392421893 -17.925979640632583 0.57035677188474665 0 0.71933980857756763 -0.69465836192734942 1 0 0 1 I I -0.70710678118654746 0.70710678118654746 1 forward I I I I #
loop $-1 $-1 $122 $32 #
coedge $-1 $76 $76 $123 $124 reversed $48 $-1 #
face $-1 $125 $126 $26 $-1 $127 reversed single #
loop $-1 $-1 $128 $50 #
plane-surface $-1 -18.385718392421893 -11.127518156719262 41.641743741010757 0 0.71933980857756763 0.69465836192734942 1 0 0 forward_v I I I I #
coedge $-1 $129 $130 $131 $132 reversed $51 $-1 #
face $-1 $-1 $133 $27 $-1 $134 forward single #
loop $-1 $135 $136 $53 #
cone-surface $-1 -18.385718392421893 17.92597964063259 0.57035677188473777 0 -0.71933980857756763 -0.69465836192734942 1 0 0 1 I I -0.70710678118654746 0.70710678118654746 1 forward I I I I #
loop $-1 $-1 $137 $34 #
coedge $-1 $85 $85 $138 $139 reversed $54 $-1 #
face $-1 $140 $141 $21 $-1 $142 reversed single #
loop $-1 $-1 $143 $56 #
plane-surface $-1 0 -28.582173523252685 0 0 1 0 0 0 1 forward_v I I I I #
coedge $-1 $144 $145 $146 $147 forward $57 $-1 #
coedge $-1 $148 $59 $149 $150 forward $36 $-1 #
coedge $-1 $59 $148 $151 $152 forward $36 $-1 #
coedge $-1 $153 $154 $59 $93 reversed $155 $-1 #
edge $-1 $156 -28.582173523252685 $157 28.582173523252685 $92 $158 forward 7 unknown #
face $-1 $159 $160 $22 $-1 $161 reversed single #
loop $-1 $-1 $162 $60 #
plane-surface $-1 -69.377946893431513 -25.336339807533143 0 0 1 0 0 0 1 forward_v I I I I #
coedge $-1 $163 $164 $99 $165 forward $61 $-1 #
coedge $-1 $166 $63 $167 $168 reversed $39 $-1 #
coedge $-1 $63 $166 $97 $165 reversed $39 $-1 #
coedge $-1 $169 $170 $63 $101 reversed $171 $-1 #
edge $-1 $172 -11.22177635859069 $173 11.22177635859069 $100 $174 forward 7 unknown #
face $-1 $175 $176 $23 $-1 $177 reversed single #
loop $-1 $-1 $178 $64 #
plane-surface $-1 70.304788838453774 0 4.5251495523340717 0 0 1 1 0 0 forward_v I I I I #
coedge $-1 $179 $180 $107 $181 forward $65 $-1 #
coedge $-1 $182 $67 $183 $184 reversed $42 $-1 #
coedge $-1 $67 $182 $105 $181 reversed $42 $-1 #
coedge $-1 $185 $186 $67 $109 reversed $103 $-1 #
edge $-1 $187 -28.582173523252685 $188 28.582173523252685 $108 $189 forward 7 unknown #
face $-1 $190 $191 $24 $-1 $192 reversed single #
loop $-1 $-1 $193 $68 #
plane-surface $-1 -27.742800565654331 -120.17961660040478 88.975773760260793 1 0 0 0 0.71933980857756763 -0.69465836192734942 forward_v I I I I #
coedge $-1 $194 $195 $196 $197 reversed $69 $-1 #
coedge $-1 $115 $71 $198 $199 reversed $45 $-1 #
coedge $-1 $71 $114 $194 $200 reversed $45 $-1 #
coedge $-1 $196 $201 $71 $117 forward $202 $-1 #
edge $-1 $203 31.507634776949708 $204 41.841106122972626 $116 $205 forward 7 unknown #
loop $-1 $-1 $123 $72 #
plane-surface $-1 -18.385718392421893 -28.582173523252678 0.5211532791159641 0 -0.71933980857756763 0.69465836192734942 1 0 0 forward_v I I I I #
loop $-1 $-1 $206 $47 #
coedge $-1 $121 $121 $122 $207 reversed $73 $-1 #
coedge $-1 $122 $122 $121 $207 forward $75 $-1 #
coedge $-1 $123 $123 $76 $124 forward $118 $-1 #
edge $-1 $208 6.8274515097322222e-016 $208 6.2831853071796013 $123 $209 forward 7 unknown #
face $-1 $210 $211 $26 $-1 $212 forward single #
loop $-1 $-1 $213 $77 #
plane-surface $-1 -9.0286362191894547 80.469924920432845 130.09636422215559 -1 0 0 0 0.71933980857756763 0.69465836192734942 forward_v I I I I #
coedge $-1 $214 $215 $216 $217 reversed $78 $-1 #
coedge $-1 $130 $80 $218 $219 reversed $51 $-1 #
coedge $-1 $80 $129 $214 $220 reversed $51 $-1 #
coedge $-1 $216 $221 $80 $132 forward $211 $-1 #
edge $-1 $222 11.652788936963738 $223 21.986260282986684 $131 $224 forward 7 unknown #
loop $-1 $-1 $138 $81 #
plane-surface $-1 -18.385718392421893 -11.127518156719262 41.641743741010757 0 0.71933980857756763 0.69465836192734942 1 0 0 forward_v I I I I #
loop $-1 $-1 $225 $53 #
coedge $-1 $136 $136 $137 $226 reversed $82 $-1 #
coedge $-1 $137 $137 $136 $226 forward $84 $-1 #
coedge $-1 $138 $138 $85 $139 forward $133 $-1 #
edge $-1 $227 -2.1921528281703778e-016 $227 6.2831853071796004 $138 $228 forward 7 unknown #
face $-1 $229 $230 $21 $-1 $231 reversed single #
loop $-1 $-1 $232 $86 #
plane-surface $-1 -63.667714468825338 0 0 1 0 0 0 0 -1 forward_v I I I I #
coedge $-1 $233 $151 $234 $235 forward $87 $-1 #
coedge $-1 $236 $89 $233 $237 forward $57 $-1 #
coedge $-1 $89 $236 $238 $239 forward $57 $-1 #
coedge $-1 $154 $153 $89 $147 reversed $155 $-1 #
edge $-1 $240 -28.582173523252685 $241 28.582173523252685 $146 $242 forward 7 unknown #
coedge $-1 $91 $90 $243 $244 forward $36 $-1 #
coedge $-1 $245 $246 $90 $150 reversed $230 $-1 #
edge $-1 $157 -63.667714468825338 $247 63.667714468825338 $149 $248 forward 7 unknown #
coedge $-1 $143 $249 $91 $152 reversed $87 $-1 #
edge $-1 $250 -63.667714468825338 $156 63.667714468825338 $151 $251 forward 7 unknown #
coedge $-1 $146 $92 $249 $252 forward $155 $-1 #
coedge $-1 $92 $146 $245 $253 reversed $155 $-1 #
loop $-1 $-1 $153 $229 #
vertex $-1 $93 $254 #
vertex $-1 $93 $255 #
straight-curve $-1 63.667714468825338 0 11.22177635859069 0 1 0 I I #
face $-1 $256 $171 $22 $-1 $257 reversed single #
loop $-1 $-1 $258 $94 #
plane-surface $-1 -75.088179318037689 -23.836339807533143 0 1 0 0 0 0 -1 forward_v I I I I #
coedge $-1 $259 $260 $261 $262 forward $95 $-1 #
coedge $-1 $263 $97 $259 $264 forward $61 $-1 #
coedge $-1 $97 $263 $169 $265 forward $61 $-1 #
edge $-1 $172 22.336339807533143 $266 25.336339807533143 $97 $267 forward 7 unknown #
coedge $-1 $99 $98 $268 $269 forward $39 $-1 #
coedge $-1 $270 $271 $98 $168 forward $272 $-1 #
edge $-1 $273 -25.336339807533143 $173 -22.336339807533143 $167 $274 forward 7 unknown #
coedge $-1 $275 $100 $164 $265 reversed $171 $-1 #
coedge $-1 $100 $275 $270 $276 reversed $171 $-1 #
loop $-1 $-1 $100 $159 #
vertex $-1 $165 $277 #
vertex $-1 $276 $278 #
straight-curve $-1 -63.667714468825338 -22.336339807533143 0 0 0 1 I I #
face $-1 $279 $280 $23 $-1 $281 forward single #
loop $-1 $-1 $282 $102 #
plane-surface $-1 76.941863208082225 0 7.8734629554623812 -1 0 0 0 0 1 forward_v I I I I #
coedge $-1 $186 $185 $283 $284 forward $103 $-1 #
coedge $-1 $285 $105 $286 $287 reversed $65 $-1 #
coedge $-1 $105 $285 $185 $288 reversed $65 $-1 #
edge $-1 $187 4.5251495523340717 $289 11.22177635859069 $105 $290 forward 7 unknown #
coedge $-1 $107 $106 $291 $292 reversed $42 $-1 #
coedge $-1 $293 $294 $106 $184 forward $295 $-1 #
edge $-1 $296 -11.22177635859069 $188 -4.5251495523340717 $183 $297 forward 7 unknown #
coedge $-1 $178 $108 $180 $288 forward $103 $-1 #
coedge $-1 $108 $178 $293 $298 forward $103 $-1 #
vertex $-1 $181 $299 #
vertex $-1 $184 $300 #
straight-curve $-1 63.667714468825338 0 4.5251495523340717 0 -1 0 I I #
face $-1 $-1 $202 $24 $-1 $301 forward single #
loop $-1 $-1 $302 $110 #
plane-surface $-1 0 -28.582173523252685 0 0 1 0 0 0 1 forward_v I I I I #
coedge $-1 $303 $304 $305 $306 reversed $111 $-1 #
coedge $-1 $307 $113 $115 $200 forward $69 $-1 #
coedge $-1 $113 $307 $303 $308 forward $69 $-1 #
coedge $-1 $305 $116 $113 $197 forward $202 $-1 #
edge $-1 $204 -0.1642229770214918 $309 18.549941369443385 $196 $310 forward 7 unknown #
coedge $-1 $311 $312 $114 $199 forward $191 $-1 #
edge $-1 $313 -43.96673360101444 $203 -33.266110521539701 $198 $314 forward 7 unknown #
edge $-1 $204 -14.875616435901531 $313 1.0206786807905858e-014 $115 $315 forward 7 unknown #
coedge $-1 $116 $305 $311 $316 forward $202 $-1 #
loop $-1 $-1 $305 $190 #
vertex $-1 $199 $317 #
vertex $-1 $117 $318 #
straight-curve $-1 -9.0286362191894547 -60.089808300202392 11.221776358590688 0 1 0 I I #
coedge $-1 $206 $206 $-1 $319 reversed $120 $-1 #
edge $-1 $320 0 $320 6.2831853071796004 $121 $321 forward 7 unknown #
vertex $-1 $124 $322 #
ellipse-curve $-1 -18.385718392421893 -23.415437850241226 5.8714648188533225 0 -0.71933980857756763 0.69465836192734942 2 0 0 1 I I #
face $-1 $-1 $323 $26 $-1 $324 reversed single #
loop $-1 $-1 $131 $125 #
plane-surface $-1 0 0 11.22177635859069 0 0 1 1 0 0 forward_v I I I I #
coedge $-1 $325 $326 $327 $328 reversed $126 $-1 #
coedge $-1 $329 $128 $130 $220 forward $78 $-1 #
coedge $-1 $128 $329 $325 $330 forward $78 $-1 #
coedge $-1 $327 $131 $128 $217 forward $211 $-1 #
edge $-1 $223 -18.549941369443385 $331 0.1642229770214918 $216 $332 forward 7 unknown #
coedge $-1 $333 $334 $129 $219 forward $323 $-1 #
edge $-1 $335 -64.527028831961871 $222 -53.826405752487105 $218 $336 forward 7 unknown #
edge $-1 $223 42.288730610603807 $335 57.164347046505384 $130 $337 forward 7 unknown #
coedge $-1 $131 $327 $333 $338 forward $211 $-1 #
vertex $-1 $132 $339 #
vertex $-1 $132 $340 #
straight-curve $-1 -27.742800565654331 40.234962460216423 11.221776358590688 0 -1 0 I I #
coedge $-1 $225 $225 $-1 $341 reversed $135 $-1 #
edge $-1 $342 0 $342 6.2831853071796004 $136 $343 forward 7 unknown #
vertex $-1 $139 $344 #
ellipse-curve $-1 -18.385718392421893 23.415437850241219 5.8714648188533012 0 0.71933980857756763 0.69465836192734942 2 0 0 1 I I #
face $-1 $-1 $155 $21 $-1 $345 reversed single #
loop $-1 $-1 $245 $140 #
plane-surface $-1 0 28.582173523252685 0 0 -1 0 0 0 -1 forward_v I I I I #
coedge $-1 $346 $243 $246 $347 forward $141 $-1 #
coedge $-1 $249 $143 $144 $237 reversed $87 $-1 #
coedge $-1 $243 $346 $143 $235 reversed $141 $-1 #
edge $-1 $250 -11.22177635859069 $348 11.22177635859069 $234 $349 forward 7 unknown #
coedge $-1 $145 $144 $346 $350 forward $57 $-1 #
edge $-1 $241 -63.667714468825338 $348 63.667714468825338 $233 $351 forward 7 unknown #
coedge $-1 $246 $245 $145 $239 reversed $230 $-1 #
edge $-1 $352 -63.667714468825338 $240 63.667714468825338 $238 $353 forward 7 unknown #
vertex $-1 $147 $354 #
vertex $-1 $252 $355 #
straight-curve $-1 63.667714468825338 0 -11.22177635859069 0 -1 0 I I #
coedge $-1 $232 $234 $148 $244 reversed $141 $-1 #
edge $-1 $247 -28.582173523252685 $250 28.582173523252685 $243 $356 forward 7 unknown #
coedge $-1 $238 $149 $154 $253 forward $230 $-1 #
coedge $-1 $149 $238 $232 $347 reversed $230 $-1 #
vertex $-1 $150 $357 #
straight-curve $-1 0 28.582173523252685 11.22177635859069 -1 0 0 I I #
coedge $-1 $151 $233 $153 $252 reversed $87 $-1 #
vertex $-1 $244 $358 #
straight-curve $-1 0 -28.582173523252685 11.22177635859069 1 0 0 I I #
edge $-1 $156 -11.22177635859069 $241 11.22177635859069 $153 $359 forward 7 unknown #
edge $-1 $157 -11.22177635859069 $240 11.22177635859069 $154 $360 forward 7 unknown #
point $-1 63.667714468825338 -28.582173523252685 11.22177635859069 #
point $-1 63.667714468825338 28.582173523252685 11.22177635859069 #
face $-1 $-1 $272 $22 $-1 $361 forward single #
plane-surface $-1 -69.377946893431513 -22.336339807533143 0 0 -1 0 0 0 -1 forward_v I I I I #
coedge $-1 $362 $363 $275 $364 forward $160 $-1 #
coedge $-1 $268 $162 $163 $264 reversed $95 $-1 #
coedge $-1 $162 $268 $271 $365 reversed $95 $-1 #
coedge $-1 $363 $362 $162 $262 reversed $160 $-1 #
edge $-1 $366 -11.22177635859069 $367 11.22177635859069 $261 $368 forward 7 unknown #
coedge $-1 $164 $163 $362 $369 forward $61 $-1 #
edge $-1 $266 -5.7102324246061755 $367 5.7102324246061755 $259 $370 forward 7 unknown #
edge $-1 $371 -5.7102324246061755 $172 5.7102324246061755 $169 $372 forward 7 unknown #
vertex $-1 $264 $373 #
straight-curve $-1 -63.667714468825338 0 -11.22177635859069 0 -1 0 I I #
coedge $-1 $260 $259 $166 $269 reversed $95 $-1 #
edge $-1 $273 -11.22177635859069 $266 11.22177635859069 $268 $374 forward 7 unknown #
coedge $-1 $375 $167 $170 $276 forward $272 $-1 #
coedge $-1 $167 $375 $260 $365 forward $272 $-1 #
loop $-1 $-1 $167 $256 #
vertex $-1 $168 $376 #
straight-curve $-1 -63.667714468825338 0 11.22177635859069 0 1 0 I I #
coedge $-1 $170 $169 $258 $364 reversed $171 $-1 #
edge $-1 $173 -5.7102324246061755 $377 5.7102324246061755 $170 $378 forward 7 unknown #
point $-1 -63.667714468825338 -22.336339807533143 -11.22177635859069 #
point $-1 -63.667714468825338 -22.336339807533143 11.22177635859069 #
face $-1 $-1 $295 $23 $-1 $379 reversed single #
loop $-1 $-1 $291 $175 #
plane-surface $-1 0 0 11.22177635859069 0 0 1 1 0 0 forward_v I I I I #
coedge $-1 $283 $380 $381 $382 forward $176 $-1 #
coedge $-1 $383 $282 $178 $284 reversed $176 $-1 #
edge $-1 $384 -28.582173523252685 $385 28.582173523252685 $283 $386 forward 7 unknown #
coedge $-1 $180 $179 $383 $387 forward $65 $-1 #
coedge $-1 $291 $388 $179 $287 forward $280 $-1 #
edge $-1 $389 -76.941863208082225 $289 -63.667714468825338 $179 $390 forward 7 unknown #
edge $-1 $187 -6.6370743696284507 $384 6.6370743696284507 $180 $391 forward 7 unknown #
vertex $-1 $181 $392 #
straight-curve $-1 63.667714468825338 28.582173523252685 0 0 0 1 I I #
coedge $-1 $393 $286 $182 $292 forward $280 $-1 #
edge $-1 $289 -28.582173523252685 $296 28.582173523252685 $291 $394 forward 7 unknown #
coedge $-1 $381 $183 $186 $298 reversed $295 $-1 #
coedge $-1 $183 $381 $393 $395 reversed $295 $-1 #
loop $-1 $-1 $183 $279 #
vertex $-1 $395 $396 #
straight-curve $-1 63.667714468825338 -28.582173523252685 0 0 0 -1 I I #
edge $-1 $385 -6.6370743696284507 $188 6.6370743696284507 $293 $397 forward 7 unknown #
point $-1 63.667714468825324 28.582173523252685 4.5251495523340717 #
point $-1 63.667714468825324 -28.582173523252685 4.5251495523340717 #
plane-surface $-1 0 0 11.22177635859069 0 0 1 1 0 0 forward_v I I I I #
coedge $-1 $312 $311 $304 $398 forward $191 $-1 #
coedge $-1 $304 $193 $195 $308 reversed $111 $-1 #
coedge $-1 $193 $303 $302 $398 reversed $111 $-1 #
coedge $-1 $201 $196 $193 $306 forward $202 $-1 #
edge $-1 $309 -41.841106122972626 $399 -31.507634776949708 $305 $400 forward 7 unknown #
coedge $-1 $195 $194 $312 $401 reversed $69 $-1 #
edge $-1 $402 -1.0206786807905858e-014 $309 14.875616435901531 $303 $403 forward 7 unknown #
vertex $-1 $197 $404 #
straight-curve $-1 -9.1928591962109465 -18.248702177229767 11.22177635859069 -1 0 0 I I #
coedge $-1 $302 $198 $201 $316 reversed $191 $-1 #
coedge $-1 $198 $302 $307 $401 forward $191 $-1 #
vertex $-1 $199 $405 #
straight-curve $-1 -9.0286362191894547 -28.582173523252685 44.487886880130397 0 0 1 I I #
straight-curve $-1 -9.0286362191894547 -28.582173523252678 0.5211532791159641 0 -0.69465836192734942 -0.71933980857756763 I I #
edge $-1 $399 -98.047589404108109 $203 -79.333425057643225 $311 $406 forward 7 unknown #
point $-1 -9.0286362191894511 -28.582173523252685 11.221776358590692 #
point $-1 -9.0286362191894547 -18.248702177229767 11.22177635859069 #
edge $-1 $407 1 $407 0 $206 $-1 forward 7 unknown #
vertex $-1 $207 $408 #
ellipse-curve $-1 -18.385718392421893 -18.645319449210152 1.2650151338120961 0 -0.71933980857756763 0.69465836192734942 2 0 0 1 I I #
point $-1 -16.385718392421893 -23.415437850241229 5.8714648188533278 #
loop $-1 $-1 $218 $210 #
plane-surface $-1 0 28.582173523252685 0 0 -1 0 0 0 -1 forward_v I I I I #
coedge $-1 $326 $213 $215 $330 reversed $126 $-1 #
coedge $-1 $213 $325 $409 $410 reversed $126 $-1 #
coedge $-1 $221 $216 $213 $328 forward $211 $-1 #
edge $-1 $331 -21.986260282986684 $411 -11.652788936963738 $327 $412 forward 7 unknown #
coedge $-1 $215 $214 $334 $413 reversed $78 $-1 #
edge $-1 $414 -57.164347046505384 $331 -42.288730610603807 $325 $415 forward 7 unknown #
vertex $-1 $217 $416 #
straight-curve $-1 -9.1928591962109465 18.248702177229738 11.221776358590692 1 0 0 I I #
coedge $-1 $409 $218 $221 $338 reversed $323 $-1 #
coedge $-1 $218 $409 $329 $413 forward $323 $-1 #
vertex $-1 $219 $417 #
straight-curve $-1 -27.742800565654331 28.582173523252685 65.048182111077793 0 0 1 I I #
straight-curve $-1 -27.742800565654331 -11.127518156719262 41.641743741010757 0 0.69465836192734942 -0.71933980857756763 I I #
edge $-1 $411 9.0286362191894547 $222 27.742800565654331 $333 $418 forward 7 unknown #
point $-1 -27.742800565654331 28.582173523252685 11.22177635859069 #
point $-1 -27.742800565654331 18.248702177229738 11.221776358590688 #
edge $-1 $419 1 $419 0 $225 $-1 forward 7 unknown #
vertex $-1 $226 $420 #
ellipse-curve $-1 -18.385718392421893 18.645319449210159 1.2650151338120872 0 0.71933980857756763 0.69465836192734942 2 0 0 1 I I #
point $-1 -16.385718392421893 23.415437850241236 5.8714648188533189 #
plane-surface $-1 63.667714468825338 0 0 -1 0 0 0 0 1 forward_v I I I I #
coedge $-1 $234 $232 $236 $350 reversed $141 $-1 #
edge $-1 $247 -11.22177635859069 $352 11.22177635859069 $246 $421 forward 7 unknown #
vertex $-1 $350 $422 #
straight-curve $-1 -63.667714468825338 -28.582173523252685 0 0 0 -1 I I #
edge $-1 $348 -28.582173523252685 $352 28.582173523252685 $346 $423 forward 7 unknown #
straight-curve $-1 0 -28.582173523252685 -11.22177635859069 -1 0 0 I I #
vertex $-1 $239 $424 #
straight-curve $-1 0 28.582173523252685 -11.22177635859069 1 0 0 I I #
point $-1 63.667714468825338 28.582173523252685 -11.22177635859069 #
point $-1 63.667714468825338 -28.582173523252685 -11.22177635859069 #
straight-curve $-1 -63.667714468825338 0 11.22177635859069 0 -1 0 I I #
point $-1 -63.667714468825338 28.582173523252685 11.22177635859069 #
point $-1 -63.667714468825338 -28.582173523252685 11.22177635859069 #
straight-curve $-1 63.667714468825338 -28.582173523252685 0 0 0 -1 I I #
straight-curve $-1 63.667714468825338 28.582173523252685 0 0 0 -1 I I #
plane-surface $-1 0 0 11.22177635859069 0 0 1 1 0 0 forward_v I I I I #
coedge $-1 $261 $258 $263 $369 reversed $160 $-1 #
coedge $-1 $258 $261 $375 $425 reversed $160 $-1 #
edge $-1 $377 -11.22177635859069 $371 11.22177635859069 $275 $426 forward 7 unknown #
edge $-1 $366 -5.7102324246061755 $273 5.7102324246061755 $260 $427 forward 7 unknown #
vertex $-1 $425 $428 #
vertex $-1 $369 $429 #
straight-curve $-1 -75.088179318037689 -25.336339807533143 0 0 0 -1 I I #
edge $-1 $367 -1.5 $371 1.5 $362 $430 forward 7 unknown #
straight-curve $-1 -69.377946893431513 -25.336339807533143 -11.22177635859069 -1 0 0 I I #
vertex $-1 $265 $431 #
straight-curve $-1 -69.377946893431513 -22.336339807533143 -11.22177635859069 1 0 0 I I #
point $-1 -63.667714468825338 -25.336339807533143 -11.22177635859069 #
straight-curve $-1 -63.667714468825338 -25.336339807533143 0 0 0 -1 I I #
coedge $-1 $271 $270 $363 $425 forward $272 $-1 #
point $-1 -63.667714468825338 -25.336339807533143 11.22177635859069 #
vertex $-1 $276 $432 #
straight-curve $-1 -69.377946893431513 -22.336339807533143 11.22177635859069 -1 0 0 I I #
plane-surface $-1 0 -28.582173523252685 0 0 1 0 0 0 1 forward_v I I I I #
coedge $-1 $282 $383 $388 $433 reversed $176 $-1 #
coedge $-1 $294 $293 $282 $382 reversed $295 $-1 #
edge $-1 $434 -3.3483134031283104 $385 3.3483134031283095 $282 $435 forward 7 unknown #
coedge $-1 $380 $283 $285 $387 reversed $176 $-1 #
vertex $-1 $284 $436 #
vertex $-1 $382 $437 #
straight-curve $-1 76.941863208082225 0 4.5251495523340717 0 -1 0 I I #
edge $-1 $389 -3.3483134031283104 $384 3.3483134031283095 $383 $438 forward 7 unknown #
coedge $-1 $286 $393 $380 $433 forward $280 $-1 #
vertex $-1 $433 $439 #
straight-curve $-1 0 28.582173523252685 11.22177635859069 -1 0 0 I I #
straight-curve $-1 70.304788838453774 28.582173523252685 4.5251495523340717 1 0 0 I I #
point $-1 63.667714468825338 28.582173523252685 11.22177635859069 #
coedge $-1 $388 $291 $294 $395 forward $280 $-1 #
straight-curve $-1 63.667714468825338 0 11.22177635859069 0 -1 0 I I #
edge $-1 $296 -6.6370743696284364 $434 6.6370743696284507 $294 $440 forward 7 unknown #
point $-1 63.667714468825338 -28.582173523252685 11.22177635859069 #
straight-curve $-1 70.304788838453774 -28.582173523252685 4.5251495523340717 -1 0 0 I I #
edge $-1 $399 33.266110521539701 $402 43.96673360101444 $302 $441 forward 7 unknown #
vertex $-1 $316 $442 #
straight-curve $-1 -27.742800565654331 -60.089808300202392 11.221776358590688 0 -1 0 I I #
edge $-1 $402 -18.549941369443385 $313 0.1642229770214918 $312 $443 forward 7 unknown #
vertex $-1 $401 $444 #
straight-curve $-1 -27.742800565654331 -28.582173523252678 0.5211532791159641 0 0.69465836192734942 0.71933980857756763 I I #
point $-1 -27.742800565654331 -18.248702177229767 11.22177635859069 #
point $-1 -9.0286362191894547 -28.582173523252685 0.52115327911595677 #
straight-curve $-1 70.304788838453774 -28.582173523252685 11.221776358590692 1 0 0 I I #
vertex $-1 $319 $445 #
point $-1 -16.385718392421893 -18.645319449210152 1.2650151338120961 #
coedge $-1 $334 $333 $326 $410 forward $323 $-1 #
edge $-1 $411 53.826405752487105 $414 64.527028831961871 $409 $446 forward 7 unknown #
vertex $-1 $338 $447 #
straight-curve $-1 -9.0286362191894547 40.234962460216423 11.221776358590688 0 1 0 I I #
edge $-1 $414 -0.1642229770214918 $335 18.549941369443385 $334 $448 forward 7 unknown #
vertex $-1 $413 $449 #
straight-curve $-1 -9.0286362191894547 -11.127518156719262 41.641743741010757 0 -0.69465836192734942 0.71933980857756763 I I #
point $-1 -9.0286362191894547 18.248702177229738 11.221776358590688 #
point $-1 -27.742800565654331 28.582173523252685 0.52115327911592857 #
straight-curve $-1 0 28.582173523252685 11.22177635859069 -1 0 0 I I #
vertex $-1 $341 $450 #
point $-1 -16.385718392421893 18.645319449210159 1.2650151338120872 #
straight-curve $-1 -63.667714468825338 28.582173523252685 0 0 0 -1 I I #
point $-1 -63.667714468825338 -28.582173523252685 -11.22177635859069 #
straight-curve $-1 -63.667714468825338 0 -11.22177635859069 0 1 0 I I #
point $-1 -63.667714468825338 28.582173523252685 -11.22177635859069 #
edge $-1 $377 -1.5 $366 1.5 $363 $451 forward 7 unknown #
straight-curve $-1 -75.088179318037689 -22.336339807533143 0 0 0 -1 I I #
straight-curve $-1 -69.377946893431513 -25.336339807533143 11.22177635859069 1 0 0 I I #
point $-1 -75.088179318037689 -25.336339807533143 11.22177635859069 #
point $-1 -75.088179318037689 -25.336339807533143 -11.22177635859069 #
straight-curve $-1 -75.088179318037689 -23.836339807533143 -11.22177635859069 0 1 0 I I #
point $-1 -75.088179318037689 -22.336339807533143 -11.22177635859069 #
point $-1 -75.088179318037689 -22.336339807533143 11.22177635859069 #
edge $-1 $434 -28.582173523252685 $389 28.582173523252685 $380 $452 forward 7 unknown #
vertex $-1 $433 $453 #
straight-curve $-1 76.941863208082225 -28.582173523252685 7.8734629554623812 0 0 -1 I I #
point $-1 76.941863208082225 28.582173523252685 4.5251495523340717 #
point $-1 76.941863208082225 -28.582173523252685 4.5251495523340717 #
straight-curve $-1 76.941863208082225 28.582173523252685 7.8734629554623812 0 0 -1 I I #
point $-1 76.941863208082225 28.582173523252685 11.221776358590692 #
straight-curve $-1 70.304788838453774 -28.582173523252685 11.221776358590692 1 0 0 I I #
straight-curve $-1 -27.742800565654331 -28.582173523252685 44.487886880130397 0 0 -1 I I #
point $-1 -27.742800565654335 -28.582173523252685 11.221776358590692 #
straight-curve $-1 -9.1928591962109465 -28.582173523252685 0.52115327911595632 1 0 0 I I #
point $-1 -27.742800565654331 -28.582173523252685 0.52115327911595677 #
point $-1 -18.385718392421893 -17.206639832055014 -0.12430159004260277 #
straight-curve $-1 -9.0286362191894547 28.582173523252685 65.048182111077793 0 0 -1 I I #
point $-1 -9.0286362191894547 28.582173523252685 11.22177635859069 #
straight-curve $-1 -9.1928591962109465 28.582173523252685 0.52115327911592857 -1 0 0 I I #
point $-1 -9.0286362191894547 28.582173523252685 0.52115327911592857 #
point $-1 -18.385718392421893 17.206639832055021 -0.12430159004261165 #
straight-curve $-1 -75.088179318037689 -23.836339807533143 11.22177635859069 0 -1 0 I I #
straight-curve $-1 76.941863208082225 0 11.221776358590692 0 1 0 I I #
point $-1 76.941863208082225 -28.582173523252685 11.221776358590692 #
End-of-ACIS-data 