500 0 10 0           
7 Unknown 11 ACIS 5.0 NT 24 Thu Mar 25 17:11:29 1999 
-1 9.9999999999999995e-007 1e-010 
body $-1 $10 $-1 $11 #
body $-1 $12 $-1 $13 #
body $-1 $14 $-1 $15 #
body $-1 $16 $-1 $17 #
body $-1 $18 $-1 $19 #
body $-1 $20 $-1 $21 #
body $-1 $22 $-1 $23 #
body $-1 $24 $-1 $25 #
body $-1 $26 $-1 $27 #
body $-1 $28 $-1 $29 #
lump $-1 $-1 $30 $0 #
transform $-1 1 0 0 0 1 0 0 0 1 64.856715598010197 38.879193145709863 19.201103032943202 1 rotate no_reflect no_shear #
lump $-1 $-1 $31 $1 #
transform $-1 1 0 0 0 1 0 0 0 1 64.856715598010197 38.879193145709863 19.201103032943202 1 rotate no_reflect no_shear #
lump $-1 $-1 $32 $2 #
transform $-1 1 0 0 0 1 0 0 0 1 64.856715598010197 38.879193145709863 19.201103032943202 1 rotate no_reflect no_shear #
lump $-1 $-1 $33 $3 #
transform $-1 1 0 0 0 1 0 0 0 1 64.856715598010197 38.879193145709863 19.201103032943202 1 rotate no_reflect no_shear #
lump $-1 $-1 $34 $4 #
transform $-1 1 0 0 0 1 0 0 0 1 64.856715598010197 38.879193145709863 19.201103032943202 1 rotate no_reflect no_shear #
lump $-1 $-1 $35 $5 #
transform $-1 1 0 0 0 1 0 0 0 1 64.856715598010197 38.879193145709863 19.201103032943202 1 rotate no_reflect no_shear #
lump $-1 $-1 $36 $6 #
transform $-1 1 0 0 0 1 0 0 0 1 64.856715598010197 38.879193145709863 19.201103032943202 1 rotate no_reflect no_shear #
lump $-1 $-1 $37 $7 #
transform $-1 1 0 0 0 1 0 0 0 1 64.856715598010197 38.879193145709863 19.201103032943202 1 rotate no_reflect no_shear #
lump $-1 $-1 $38 $8 #
transform $-1 1 0 0 0 1 0 0 0 1 64.856715598010197 38.879193145709863 19.201103032943202 1 rotate no_reflect no_shear #
lump $-1 $-1 $39 $9 #
transform $-1 1 0 0 0 1 0 0 0 1 64.856715598010197 38.879193145709863 19.201103032943202 1 rotate no_reflect no_shear #
shell $-1 $-1 $-1 $40 $-1 $10 #
shell $-1 $-1 $-1 $41 $-1 $12 #
shell $-1 $-1 $-1 $42 $-1 $14 #
shell $-1 $-1 $-1 $43 $-1 $16 #
shell $-1 $-1 $-1 $44 $-1 $18 #
shell $-1 $-1 $-1 $45 $-1 $20 #
shell $-1 $-1 $-1 $46 $-1 $22 #
shell $-1 $-1 $-1 $47 $-1 $24 #
shell $-1 $-1 $-1 $48 $-1 $26 #
shell $-1 $-1 $-1 $49 $-1 $28 #
face $-1 $50 $51 $30 $-1 $52 forward single #
face $-1 $53 $54 $31 $-1 $55 reversed single #
face $-1 $56 $57 $32 $-1 $58 reversed single #
face $-1 $59 $60 $33 $-1 $61 forward single #
face $-1 $62 $63 $34 $-1 $64 forward single #
face $-1 $65 $66 $35 $-1 $67 forward single #
face $-1 $68 $69 $36 $-1 $70 reversed single #
face $-1 $71 $72 $37 $-1 $73 forward single #
face $-1 $74 $75 $38 $-1 $76 forward single #
face $-1 $77 $78 $39 $-1 $79 forward single #
face $-1 $80 $81 $30 $-1 $82 reversed single #
loop $-1 $-1 $83 $40 #
plane-surface $-1 0 0 19.201103032943202 0 0 1 1 0 0 forward_v I I I I #
face $-1 $84 $85 $31 $-1 $86 reversed single #
loop $-1 $-1 $87 $41 #
plane-surface $-1 -53.670278489870896 0 12.273657742411634 0 0 1 1 0 0 forward_v I I I I #
face $-1 $88 $89 $32 $-1 $90 reversed single #
loop $-1 $-1 $91 $42 #
plane-surface $-1 115.42032225712708 -21.20822064590805 177.47591098381892 0 -1 0 -0.87461971476443456 0 -0.48480960649040278 forward_v I I I I #
face $-1 $92 $93 $33 $-1 $94 forward single #
loop $-1 $95 $96 $43 #
cone-surface $-1 59.340655004651403 -28.434124021924205 9.8875484830964027 -0.87461971476443456 0 -0.48480960649040278 0.24240480324520139 0 -0.43730985738221728 1 I I 0 1 0.5 forward I I I I #
face $-1 $97 $98 $34 $-1 $99 forward single #
loop $-1 $100 $101 $44 #
cone-surface $-1 59.340655004651403 -25.724410255918148 9.8875484830964027 -0.87461971476443456 0 -0.48480960649040278 0.24240480324520139 0 -0.43730985738221728 1 I I 0 1 0.5 forward I I I I #
face $-1 $102 $103 $35 $-1 $104 forward single #
loop $-1 $105 $106 $45 #
cone-surface $-1 59.340655004651403 -23.01469648991209 9.8875484830964027 -0.87461971476443456 0 -0.48480960649040278 0.24240480324520139 0 -0.43730985738221728 1 I I 0 1 0.5 forward I I I I #
face $-1 $107 $108 $36 $-1 $109 reversed single #
loop $-1 $-1 $110 $46 #
plane-surface $-1 115.42032225712708 17.670972499801817 177.47591098381892 0 -1 0 -0.87461971476443456 0 -0.48480960649040278 forward_v I I I I #
face $-1 $111 $112 $37 $-1 $113 forward single #
loop $-1 $114 $115 $47 #
cone-surface $-1 59.340655004651403 10.445069123785657 9.8875484830964027 -0.87461971476443456 0 -0.48480960649040278 0.24240480324520139 0 -0.43730985738221728 1 I I 0 1 0.5 forward I I I I #
face $-1 $116 $117 $38 $-1 $118 forward single #
loop $-1 $119 $120 $48 #
cone-surface $-1 59.340655004651403 13.154782889791719 9.8875484830964027 -0.87461971476443456 0 -0.48480960649040278 0.24240480324520139 0 -0.43730985738221728 1 I I 0 1 0.5 forward I I I I #
face $-1 $121 $122 $39 $-1 $123 forward single #
loop $-1 $124 $125 $49 #
cone-surface $-1 59.340655004651403 15.864496655797772 9.8875484830964027 -0.87461971476443456 0 -0.48480960649040278 0.24240480324520139 0 -0.43730985738221728 1 I I 0 1 0.5 forward I I I I #
face $-1 $126 $127 $30 $-1 $128 reversed single #
loop $-1 $-1 $129 $50 #
plane-surface $-1 0 0 -19.201103032943202 0 0 1 1 0 0 forward_v I I I I #
coedge $-1 $130 $131 $132 $133 forward $51 $-1 #
face $-1 $134 $135 $31 $-1 $136 reversed single #
loop $-1 $-1 $137 $53 #
plane-surface $-1 -42.483841381731594 0 15.737380387677419 -1 0 0 0 0 1 forward_v I I I I #
coedge $-1 $138 $139 $140 $141 forward $54 $-1 #
face $-1 $142 $143 $32 $-1 $144 reversed single #
loop $-1 $-1 $145 $56 #
plane-surface $-1 1.9703980633476164 -25.724410255918148 114.58959344915634 0.87461971476443456 0 0.48480960649040278 0.48480960649040278 0 -0.87461971476443456 forward_v I I I I #
coedge $-1 $146 $147 $148 $149 reversed $57 $-1 #
face $-1 $-1 $150 $33 $-1 $151 forward single #
loop $-1 $152 $153 $59 #
cone-surface $-1 58.611747409485929 -28.434124021924205 9.4835084204101676 -0.87461971476443456 0 -0.48480960649040278 0.12120240162260069 0 -0.21865492869110864 1 I I -0.70710678118654746 0.70710678118654746 0.25 forward I I I I #
loop $-1 $-1 $154 $43 #
coedge $-1 $96 $96 $155 $156 reversed $60 $-1 #
face $-1 $-1 $157 $34 $-1 $158 forward single #
loop $-1 $159 $160 $62 #
cone-surface $-1 58.611747409485929 -25.724410255918148 9.4835084204101676 -0.87461971476443456 0 -0.48480960649040278 0.12120240162260069 0 -0.21865492869110864 1 I I -0.70710678118654746 0.70710678118654746 0.25 forward I I I I #
loop $-1 $-1 $161 $44 #
coedge $-1 $101 $101 $162 $163 reversed $63 $-1 #
face $-1 $-1 $164 $35 $-1 $165 forward single #
loop $-1 $166 $167 $65 #
cone-surface $-1 58.611747409485929 -23.01469648991209 9.4835084204101676 -0.87461971476443456 0 -0.48480960649040278 0.12120240162260069 0 -0.21865492869110864 1 I I -0.70710678118654746 0.70710678118654746 0.25 forward I I I I #
loop $-1 $-1 $168 $45 #
coedge $-1 $106 $106 $169 $170 reversed $66 $-1 #
face $-1 $171 $172 $36 $-1 $173 reversed single #
loop $-1 $-1 $174 $68 #
plane-surface $-1 1.9703980633476164 13.154782889791719 114.58959344915634 0.87461971476443456 0 0.48480960649040278 0.48480960649040278 0 -0.87461971476443456 forward_v I I I I #
coedge $-1 $175 $176 $177 $178 reversed $69 $-1 #
face $-1 $-1 $179 $37 $-1 $180 forward single #
loop $-1 $181 $182 $71 #
cone-surface $-1 58.611747409485929 10.445069123785657 9.4835084204101676 -0.87461971476443456 0 -0.48480960649040278 0.12120240162260069 0 -0.21865492869110864 1 I I -0.70710678118654746 0.70710678118654746 0.25 forward I I I I #
loop $-1 $-1 $183 $47 #
coedge $-1 $115 $115 $184 $185 reversed $72 $-1 #
face $-1 $-1 $186 $38 $-1 $187 forward single #
loop $-1 $188 $189 $74 #
cone-surface $-1 58.611747409485929 13.154782889791719 9.4835084204101676 -0.87461971476443456 0 -0.48480960649040278 0.12120240162260069 0 -0.21865492869110864 1 I I -0.70710678118654746 0.70710678118654746 0.25 forward I I I I #
loop $-1 $-1 $190 $48 #
coedge $-1 $120 $120 $191 $192 reversed $75 $-1 #
face $-1 $-1 $193 $39 $-1 $194 forward single #
loop $-1 $195 $196 $77 #
cone-surface $-1 58.611747409485929 15.864496655797772 9.4835084204101676 -0.87461971476443456 0 -0.48480960649040278 0.12120240162260069 0 -0.21865492869110864 1 I I -0.70710678118654746 0.70710678118654746 0.25 forward I I I I #
loop $-1 $-1 $197 $49 #
coedge $-1 $125 $125 $198 $199 reversed $78 $-1 #
face $-1 $200 $201 $30 $-1 $202 reversed single #
loop $-1 $-1 $203 $80 #
plane-surface $-1 0 -38.879193145709863 0 0 1 0 0 0 1 forward_v I I I I #
coedge $-1 $204 $205 $206 $207 forward $81 $-1 #
coedge $-1 $208 $83 $209 $210 forward $51 $-1 #
coedge $-1 $83 $208 $211 $212 forward $51 $-1 #
coedge $-1 $213 $214 $83 $133 reversed $215 $-1 #
edge $-1 $216 -38.879193145709863 $217 38.879193145709863 $132 $218 forward 7 unknown #
face $-1 $219 $220 $31 $-1 $221 reversed single #
loop $-1 $-1 $222 $84 #
plane-surface $-1 0 38.879193145709863 0 0 -1 0 0 0 -1 forward_v I I I I #
coedge $-1 $140 $223 $224 $225 reversed $85 $-1 #
coedge $-1 $226 $87 $227 $228 reversed $54 $-1 #
coedge $-1 $87 $226 $229 $230 reversed $54 $-1 #
coedge $-1 $231 $137 $87 $141 reversed $85 $-1 #
edge $-1 $232 -38.879193145709863 $233 38.879193145709863 $140 $234 forward 7 unknown #
face $-1 $235 $236 $32 $-1 $237 forward single #
loop $-1 $-1 $238 $88 #
plane-surface $-1 115.42032225712708 -30.240599865928246 177.47591098381892 0 1 0 0.87461971476443456 0 0.48480960649040278 forward_v I I I I #
coedge $-1 $239 $240 $241 $242 reversed $89 $-1 #
coedge $-1 $147 $91 $243 $244 reversed $57 $-1 #
coedge $-1 $91 $146 $239 $245 reversed $57 $-1 #
coedge $-1 $241 $246 $91 $149 forward $236 $-1 #
edge $-1 $247 -7.1465544694466558 $248 2.8650613843221961 $148 $249 forward 7 unknown #
loop $-1 $-1 $155 $92 #
plane-surface $-1 1.9703980633476164 -25.724410255918148 114.58959344915634 0.87461971476443456 0 0.48480960649040278 0.48480960649040278 0 -0.87461971476443456 forward_v I I I I #
loop $-1 $-1 $250 $59 #
coedge $-1 $153 $153 $154 $251 reversed $93 $-1 #
coedge $-1 $154 $154 $153 $251 forward $95 $-1 #
coedge $-1 $155 $155 $96 $156 forward $150 $-1 #
edge $-1 $252 0 $252 6.2831853071796004 $155 $253 forward 7 unknown #
loop $-1 $-1 $162 $97 #
plane-surface $-1 1.9703980633476164 -25.724410255918148 114.58959344915634 0.87461971476443456 0 0.48480960649040278 0.48480960649040278 0 -0.87461971476443456 forward_v I I I I #
loop $-1 $-1 $254 $62 #
coedge $-1 $160 $160 $161 $255 reversed $98 $-1 #
coedge $-1 $161 $161 $160 $255 forward $100 $-1 #
coedge $-1 $162 $162 $101 $163 forward $157 $-1 #
edge $-1 $256 0 $256 6.2831853071796004 $162 $257 forward 7 unknown #
loop $-1 $-1 $169 $102 #
plane-surface $-1 1.9703980633476164 -25.724410255918148 114.58959344915634 0.87461971476443456 0 0.48480960649040278 0.48480960649040278 0 -0.87461971476443456 forward_v I I I I #
loop $-1 $-1 $258 $65 #
coedge $-1 $167 $167 $168 $259 reversed $103 $-1 #
coedge $-1 $168 $168 $167 $259 forward $105 $-1 #
coedge $-1 $169 $169 $106 $170 forward $164 $-1 #
edge $-1 $260 0 $260 6.2831853071796004 $169 $261 forward 7 unknown #
face $-1 $262 $263 $36 $-1 $264 reversed single #
loop $-1 $-1 $265 $107 #
plane-surface $-1 115.42032225712708 8.6385932797816203 177.47591098381892 0 1 0 0.87461971476443456 0 0.48480960649040278 forward_v I I I I #
coedge $-1 $266 $267 $268 $269 reversed $108 $-1 #
coedge $-1 $176 $110 $270 $271 reversed $69 $-1 #
coedge $-1 $110 $175 $266 $272 reversed $69 $-1 #
coedge $-1 $268 $273 $110 $178 forward $274 $-1 #
edge $-1 $275 -7.1465544694466558 $276 2.8650613843221961 $177 $277 forward 7 unknown #
loop $-1 $-1 $184 $111 #
plane-surface $-1 1.9703980633476164 13.154782889791719 114.58959344915634 0.87461971476443456 0 0.48480960649040278 0.48480960649040278 0 -0.87461971476443456 forward_v I I I I #
loop $-1 $-1 $278 $71 #
coedge $-1 $182 $182 $183 $279 reversed $112 $-1 #
coedge $-1 $183 $183 $182 $279 forward $114 $-1 #
coedge $-1 $184 $184 $115 $185 forward $179 $-1 #
edge $-1 $280 0 $280 6.2831853071796004 $184 $281 forward 7 unknown #
loop $-1 $-1 $191 $116 #
plane-surface $-1 1.9703980633476164 13.154782889791719 114.58959344915634 0.87461971476443456 0 0.48480960649040278 0.48480960649040278 0 -0.87461971476443456 forward_v I I I I #
loop $-1 $-1 $282 $74 #
coedge $-1 $189 $189 $190 $283 reversed $117 $-1 #
coedge $-1 $190 $190 $189 $283 forward $119 $-1 #
coedge $-1 $191 $191 $120 $192 forward $186 $-1 #
edge $-1 $284 0 $284 6.2831853071796004 $191 $285 forward 7 unknown #
loop $-1 $-1 $198 $121 #
plane-surface $-1 1.9703980633476164 13.154782889791719 114.58959344915634 0.87461971476443456 0 0.48480960649040278 0.48480960649040278 0 -0.87461971476443456 forward_v I I I I #
loop $-1 $-1 $286 $77 #
coedge $-1 $196 $196 $197 $287 reversed $122 $-1 #
coedge $-1 $197 $197 $196 $287 forward $124 $-1 #
coedge $-1 $198 $198 $125 $199 forward $193 $-1 #
edge $-1 $288 0 $288 6.2831853071796004 $198 $289 forward 7 unknown #
face $-1 $290 $291 $30 $-1 $292 reversed single #
loop $-1 $-1 $293 $126 #
plane-surface $-1 -64.856715598010197 0 0 1 0 0 0 0 -1 forward_v I I I I #
coedge $-1 $294 $211 $295 $296 forward $127 $-1 #
coedge $-1 $297 $129 $294 $298 forward $81 $-1 #
coedge $-1 $129 $297 $299 $300 forward $81 $-1 #
coedge $-1 $214 $213 $129 $207 reversed $215 $-1 #
edge $-1 $301 -38.879193145709863 $302 38.879193145709863 $206 $303 forward 7 unknown #
coedge $-1 $131 $130 $304 $305 forward $51 $-1 #
coedge $-1 $306 $307 $130 $210 reversed $291 $-1 #
edge $-1 $217 -64.856715598010197 $308 64.856715598010197 $209 $309 forward 7 unknown #
coedge $-1 $203 $310 $131 $212 reversed $127 $-1 #
edge $-1 $311 -64.856715598010197 $216 64.856715598010197 $211 $312 forward 7 unknown #
coedge $-1 $206 $132 $310 $313 forward $215 $-1 #
coedge $-1 $132 $206 $306 $314 reversed $215 $-1 #
loop $-1 $-1 $213 $290 #
vertex $-1 $133 $315 #
vertex $-1 $133 $316 #
straight-curve $-1 64.856715598010197 0 19.201103032943202 0 1 0 I I #
face $-1 $317 $318 $31 $-1 $319 forward single #
loop $-1 $-1 $320 $134 #
plane-surface $-1 -64.856715598010197 0 0 1 0 0 0 0 -1 forward_v I I I I #
coedge $-1 $229 $321 $231 $322 forward $135 $-1 #
coedge $-1 $137 $231 $323 $324 reversed $85 $-1 #
coedge $-1 $325 $227 $137 $225 forward $326 $-1 #
edge $-1 $233 4.4049675485729249 $327 11.332412839104492 $224 $328 forward 7 unknown #
coedge $-1 $139 $138 $320 $329 reversed $54 $-1 #
coedge $-1 $224 $330 $138 $228 forward $326 $-1 #
edge $-1 $331 -38.021576353074749 $233 -15.648702136796146 $227 $332 forward 7 unknown #
coedge $-1 $333 $222 $139 $230 forward $135 $-1 #
edge $-1 $232 15.648702136796146 $334 38.021576353074749 $229 $335 forward 7 unknown #
coedge $-1 $223 $140 $222 $322 reversed $85 $-1 #
vertex $-1 $230 $336 #
vertex $-1 $228 $337 #
straight-curve $-1 -42.483841381731594 0 12.273657742411634 0 -1 0 I I #
face $-1 $-1 $338 $32 $-1 $339 reversed single #
loop $-1 $-1 $148 $142 #
plane-surface $-1 0 0 19.201103032943202 0 0 1 1 0 0 forward_v I I I I #
coedge $-1 $340 $341 $342 $343 reversed $143 $-1 #
coedge $-1 $344 $145 $147 $245 forward $89 $-1 #
coedge $-1 $145 $344 $340 $345 forward $89 $-1 #
coedge $-1 $342 $148 $145 $242 forward $236 $-1 #
edge $-1 $248 8.3460155179489757 $346 17.378394737969174 $241 $347 forward 7 unknown #
coedge $-1 $348 $349 $146 $244 forward $338 $-1 #
edge $-1 $350 -87.598286236532587 $247 -69.536852458966251 $243 $351 forward 7 unknown #
edge $-1 $248 109.06281759484985 $350 129.71343119602039 $147 $352 forward 7 unknown #
coedge $-1 $148 $342 $348 $353 forward $236 $-1 #
vertex $-1 $244 $354 #
vertex $-1 $149 $355 #
straight-curve $-1 57.710161128563541 -21.20822064590805 19.201103032943209 -1 0 0 I I #
coedge $-1 $250 $250 $-1 $356 reversed $152 $-1 #
edge $-1 $357 0 $357 6.2831853071796004 $153 $358 forward 7 unknown #
vertex $-1 $156 $359 #
ellipse-curve $-1 59.850907671125768 -28.434124021924205 10.170386144160037 0.87461971476443456 0 0.48480960649040278 0.24240480324520139 0 -0.43730985738221728 1 I I #
coedge $-1 $254 $254 $-1 $360 reversed $159 $-1 #
edge $-1 $361 0 $361 6.2831853071796004 $160 $362 forward 7 unknown #
vertex $-1 $163 $363 #
ellipse-curve $-1 59.850907671125768 -25.724410255918148 10.170386144160037 0.87461971476443456 0 0.48480960649040278 0.24240480324520139 0 -0.43730985738221728 1 I I #
coedge $-1 $258 $258 $-1 $364 reversed $166 $-1 #
edge $-1 $365 0 $365 6.2831853071796004 $167 $366 forward 7 unknown #
vertex $-1 $170 $367 #
ellipse-curve $-1 59.850907671125768 -23.01469648991209 10.170386144160037 0.87461971476443456 0 0.48480960649040278 0.24240480324520139 0 -0.43730985738221728 1 I I #
face $-1 $-1 $274 $36 $-1 $368 forward single #
loop $-1 $-1 $369 $171 #
plane-surface $-1 64.856715598010197 0 0 -1 0 0 0 0 1 forward_v I I I I #
coedge $-1 $370 $371 $372 $373 reversed $172 $-1 #
coedge $-1 $374 $174 $176 $272 forward $108 $-1 #
coedge $-1 $174 $374 $370 $375 forward $108 $-1 #
coedge $-1 $372 $177 $174 $269 forward $274 $-1 #
edge $-1 $276 -11.093581054905957 $376 -2.061201834885761 $268 $377 forward 7 unknown #
coedge $-1 $378 $379 $175 $271 forward $263 $-1 #
edge $-1 $380 -87.598286236532587 $275 -69.536852458966251 $270 $381 forward 7 unknown #
edge $-1 $276 109.06281759484985 $380 129.71343119602039 $176 $382 forward 7 unknown #
coedge $-1 $177 $372 $378 $383 forward $274 $-1 #
loop $-1 $-1 $372 $262 #
vertex $-1 $271 $384 #
vertex $-1 $178 $385 #
straight-curve $-1 57.710161128563541 17.670972499801817 19.201103032943209 -1 0 0 I I #
coedge $-1 $278 $278 $-1 $386 reversed $181 $-1 #
edge $-1 $387 0 $387 6.2831853071796004 $182 $388 forward 7 unknown #
vertex $-1 $185 $389 #
ellipse-curve $-1 59.850907671125768 10.445069123785657 10.170386144160037 0.87461971476443456 0 0.48480960649040278 0.24240480324520139 0 -0.43730985738221728 1 I I #
coedge $-1 $282 $282 $-1 $390 reversed $188 $-1 #
edge $-1 $391 0 $391 6.2831853071796004 $189 $392 forward 7 unknown #
vertex $-1 $192 $393 #
ellipse-curve $-1 59.850907671125768 13.154782889791719 10.170386144160037 0.87461971476443456 0 0.48480960649040278 0.24240480324520139 0 -0.43730985738221728 1 I I #
coedge $-1 $286 $286 $-1 $394 reversed $195 $-1 #
edge $-1 $395 0 $395 6.2831853071796004 $196 $396 forward 7 unknown #
vertex $-1 $199 $397 #
ellipse-curve $-1 59.850907671125768 15.864496655797772 10.170386144160037 0.87461971476443456 0 0.48480960649040278 0.24240480324520139 0 -0.43730985738221728 1 I I #
face $-1 $-1 $215 $30 $-1 $398 reversed single #
loop $-1 $-1 $306 $200 #
plane-surface $-1 0 38.879193145709863 0 0 -1 0 0 0 -1 forward_v I I I I #
coedge $-1 $399 $304 $307 $400 forward $201 $-1 #
coedge $-1 $310 $203 $204 $298 reversed $127 $-1 #
coedge $-1 $304 $399 $203 $296 reversed $201 $-1 #
edge $-1 $311 -19.201103032943202 $401 19.201103032943202 $295 $402 forward 7 unknown #
coedge $-1 $205 $204 $399 $403 forward $81 $-1 #
edge $-1 $302 -64.856715598010197 $401 64.856715598010197 $294 $404 forward 7 unknown #
coedge $-1 $307 $306 $205 $300 reversed $291 $-1 #
edge $-1 $405 -64.856715598010197 $301 64.856715598010197 $299 $406 forward 7 unknown #
vertex $-1 $207 $407 #
vertex $-1 $313 $408 #
straight-curve $-1 64.856715598010197 0 -19.201103032943202 0 -1 0 I I #
coedge $-1 $293 $295 $208 $305 reversed $201 $-1 #
edge $-1 $308 -38.879193145709863 $311 38.879193145709863 $304 $409 forward 7 unknown #
coedge $-1 $299 $209 $214 $314 forward $291 $-1 #
coedge $-1 $209 $299 $293 $400 reversed $291 $-1 #
vertex $-1 $210 $410 #
straight-curve $-1 0 38.879193145709863 19.201103032943202 -1 0 0 I I #
coedge $-1 $211 $294 $213 $313 reversed $127 $-1 #
vertex $-1 $305 $411 #
straight-curve $-1 0 -38.879193145709863 19.201103032943202 1 0 0 I I #
edge $-1 $216 -19.201103032943202 $302 19.201103032943202 $213 $412 forward 7 unknown #
edge $-1 $217 -19.201103032943202 $301 19.201103032943202 $214 $413 forward 7 unknown #
point $-1 64.856715598010197 -38.879193145709863 19.201103032943202 #
point $-1 64.856715598010197 38.879193145709863 19.201103032943202 #
face $-1 $-1 $326 $31 $-1 $414 reversed single #
loop $-1 $-1 $323 $219 #
plane-surface $-1 0 0 19.201103032943202 0 0 1 1 0 0 forward_v I I I I #
coedge $-1 $415 $416 $226 $329 forward $220 $-1 #
coedge $-1 $222 $333 $417 $418 reversed $135 $-1 #
edge $-1 $419 -11.332412839104492 $232 -4.4049675485729249 $222 $420 forward 7 unknown #
coedge $-1 $417 $421 $223 $324 forward $318 $-1 #
edge $-1 $327 -38.879193145709863 $419 38.879193145709863 $323 $422 forward 7 unknown #
coedge $-1 $330 $224 $421 $423 reversed $326 $-1 #
loop $-1 $-1 $224 $317 #
vertex $-1 $225 $424 #
straight-curve $-1 -42.483841381731594 -38.879193145709863 7.8686901938387095 0 0 1 I I #
edge $-1 $334 -38.879193145709863 $331 38.879193145709863 $320 $425 forward 7 unknown #
coedge $-1 $227 $325 $415 $426 forward $326 $-1 #
vertex $-1 $329 $427 #
straight-curve $-1 -26.835139244935448 -38.879193145709863 12.273657742411634 1 0 0 I I #
coedge $-1 $321 $229 $416 $428 reversed $135 $-1 #
vertex $-1 $329 $429 #
straight-curve $-1 -26.835139244935448 38.879193145709863 12.273657742411634 -1 0 0 I I #
point $-1 -42.483841381731594 38.879193145709863 12.273657742411634 #
point $-1 -42.483841381731594 -38.879193145709863 12.273657742411634 #
loop $-1 $-1 $243 $235 #
plane-surface $-1 64.856715598010197 0 0 -1 0 0 0 0 1 forward_v I I I I #
coedge $-1 $341 $238 $240 $345 reversed $143 $-1 #
coedge $-1 $238 $340 $430 $431 reversed $143 $-1 #
coedge $-1 $246 $241 $238 $343 forward $236 $-1 #
edge $-1 $346 -2.8650613843221961 $432 7.1465544694466558 $342 $433 forward 7 unknown #
coedge $-1 $240 $239 $349 $434 reversed $89 $-1 #
edge $-1 $435 -129.71343119602039 $346 -109.06281759484985 $340 $436 forward 7 unknown #
vertex $-1 $242 $437 #
straight-curve $-1 54.845099744241359 -12.862205127959074 19.201103032943209 0 -1 0 I I #
coedge $-1 $430 $243 $246 $353 reversed $338 $-1 #
coedge $-1 $243 $430 $344 $434 forward $338 $-1 #
vertex $-1 $244 $438 #
straight-curve $-1 64.856715598010197 -21.20822064590805 88.73795549190946 0 0 1 I I #
straight-curve $-1 1.9703980633476164 -21.20822064590805 114.58959344915634 0.48480960649040278 0 -0.87461971476443456 I I #
edge $-1 $432 -30.240599865928246 $247 -21.20822064590805 $348 $439 forward 7 unknown #
point $-1 64.856715598010197 -21.20822064590805 19.201103032943202 #
point $-1 54.845099744241345 -21.20822064590805 19.201103032943209 #
edge $-1 $440 1 $440 0 $250 $-1 forward 7 unknown #
vertex $-1 $251 $441 #
ellipse-curve $-1 58.830402338177038 -28.434124021924205 9.6047108220327679 0.87461971476443456 0 0.48480960649040278 0.24240480324520139 0 -0.43730985738221728 1 I I #
point $-1 60.093312474370975 -28.434124021924205 9.7330762867778216 #
edge $-1 $442 1 $442 0 $254 $-1 forward 7 unknown #
vertex $-1 $255 $443 #
ellipse-curve $-1 58.830402338177038 -25.724410255918148 9.6047108220327679 0.87461971476443456 0 0.48480960649040278 0.24240480324520139 0 -0.43730985738221728 1 I I #
point $-1 60.093312474370975 -25.724410255918148 9.7330762867778216 #
edge $-1 $444 1 $444 0 $258 $-1 forward 7 unknown #
vertex $-1 $259 $445 #
ellipse-curve $-1 58.830402338177038 -23.01469648991209 9.6047108220327679 0.87461971476443456 0 0.48480960649040278 0.24240480324520139 0 -0.43730985738221728 1 I I #
point $-1 60.093312474370975 -23.01469648991209 9.7330762867778216 #
plane-surface $-1 0 0 19.201103032943202 0 0 1 1 0 0 forward_v I I I I #
coedge $-1 $379 $378 $371 $446 forward $263 $-1 #
coedge $-1 $371 $265 $267 $375 reversed $172 $-1 #
coedge $-1 $265 $370 $369 $446 reversed $172 $-1 #
coedge $-1 $273 $268 $265 $373 forward $274 $-1 #
edge $-1 $376 -2.8650613843221961 $447 7.1465544694466558 $372 $448 forward 7 unknown #
coedge $-1 $267 $266 $379 $449 reversed $108 $-1 #
edge $-1 $450 -129.71343119602039 $376 -109.06281759484985 $370 $451 forward 7 unknown #
vertex $-1 $269 $452 #
straight-curve $-1 54.845099744241359 6.5773914448958593 19.201103032943209 0 -1 0 I I #
coedge $-1 $369 $270 $273 $383 reversed $263 $-1 #
coedge $-1 $270 $369 $374 $449 forward $263 $-1 #
vertex $-1 $271 $453 #
straight-curve $-1 64.856715598010197 17.670972499801817 88.73795549190946 0 0 1 I I #
straight-curve $-1 1.9703980633476164 17.670972499801817 114.58959344915634 0.48480960649040278 0 -0.87461971476443456 I I #
edge $-1 $447 8.6385932797816203 $275 17.670972499801817 $378 $454 forward 7 unknown #
point $-1 64.856715598010197 17.670972499801817 19.201103032943202 #
point $-1 54.845099744241345 17.670972499801817 19.201103032943209 #
edge $-1 $455 1 $455 0 $278 $-1 forward 7 unknown #
vertex $-1 $279 $456 #
ellipse-curve $-1 58.830402338177038 10.445069123785657 9.6047108220327679 0.87461971476443456 0 0.48480960649040278 0.24240480324520139 0 -0.43730985738221728 1 I I #
point $-1 60.093312474370975 10.445069123785657 9.7330762867778216 #
edge $-1 $457 1 $457 0 $282 $-1 forward 7 unknown #
vertex $-1 $283 $458 #
ellipse-curve $-1 58.830402338177038 13.154782889791719 9.6047108220327679 0.87461971476443456 0 0.48480960649040278 0.24240480324520139 0 -0.43730985738221728 1 I I #
point $-1 60.093312474370975 13.154782889791719 9.7330762867778216 #
edge $-1 $459 1 $459 0 $286 $-1 forward 7 unknown #
vertex $-1 $287 $460 #
ellipse-curve $-1 58.830402338177038 15.864496655797772 9.6047108220327679 0.87461971476443456 0 0.48480960649040278 0.24240480324520139 0 -0.43730985738221728 1 I I #
point $-1 60.093312474370975 15.864496655797772 9.7330762867778216 #
plane-surface $-1 64.856715598010197 0 0 -1 0 0 0 0 1 forward_v I I I I #
coedge $-1 $295 $293 $297 $403 reversed $201 $-1 #
edge $-1 $308 -19.201103032943202 $405 19.201103032943202 $307 $461 forward 7 unknown #
vertex $-1 $403 $462 #
straight-curve $-1 -64.856715598010197 -38.879193145709863 0 0 0 -1 I I #
edge $-1 $401 -38.879193145709863 $405 38.879193145709863 $399 $463 forward 7 unknown #
straight-curve $-1 0 -38.879193145709863 -19.201103032943202 -1 0 0 I I #
vertex $-1 $300 $464 #
straight-curve $-1 0 38.879193145709863 -19.201103032943202 1 0 0 I I #
point $-1 64.856715598010197 38.879193145709863 -19.201103032943202 #
point $-1 64.856715598010197 -38.879193145709863 -19.201103032943202 #
straight-curve $-1 -64.856715598010197 0 19.201103032943202 0 -1 0 I I #
point $-1 -64.856715598010197 38.879193145709863 19.201103032943202 #
point $-1 -64.856715598010197 -38.879193145709863 19.201103032943202 #
straight-curve $-1 64.856715598010197 -38.879193145709863 0 0 0 -1 I I #
straight-curve $-1 64.856715598010197 38.879193145709863 0 0 0 -1 I I #
plane-surface $-1 0 -38.879193145709863 0 0 1 0 0 0 1 forward_v I I I I #
coedge $-1 $465 $320 $330 $426 reversed $220 $-1 #
coedge $-1 $320 $465 $333 $428 forward $220 $-1 #
coedge $-1 $466 $323 $321 $418 forward $318 $-1 #
edge $-1 $419 42.483841381731594 $467 64.856715598010197 $321 $468 forward 7 unknown #
vertex $-1 $418 $469 #
straight-curve $-1 -42.483841381731594 38.879193145709863 7.8686901938387095 0 0 -1 I I #
coedge $-1 $323 $466 $325 $423 forward $318 $-1 #
straight-curve $-1 -42.483841381731594 0 19.201103032943202 0 1 0 I I #
edge $-1 $470 -64.856715598010197 $327 -42.483841381731594 $325 $471 forward 7 unknown #
point $-1 -42.483841381731594 -38.879193145709863 19.201103032943202 #
straight-curve $-1 -64.856715598010197 0 12.273657742411634 0 -1 0 I I #
edge $-1 $470 -19.201103032943202 $331 -12.273657742411634 $415 $472 forward 7 unknown #
point $-1 -64.856715598010197 -38.879193145709863 12.273657742411634 #
edge $-1 $467 -19.201103032943202 $334 -12.273657742411634 $333 $473 forward 7 unknown #
point $-1 -64.856715598010197 38.879193145709863 12.273657742411634 #
coedge $-1 $349 $348 $341 $431 forward $338 $-1 #
edge $-1 $432 69.536852458966251 $435 87.598286236532587 $430 $474 forward 7 unknown #
vertex $-1 $353 $475 #
straight-curve $-1 57.710161128563541 -30.240599865928246 19.201103032943209 1 0 0 I I #
edge $-1 $435 -17.378394737969174 $350 -8.3460155179489757 $349 $476 forward 7 unknown #
vertex $-1 $434 $477 #
straight-curve $-1 1.9703980633476164 -30.240599865928246 114.58959344915634 -0.48480960649040278 0 0.87461971476443456 I I #
point $-1 54.845099744241345 -30.240599865928246 19.201103032943209 #
point $-1 64.856715598010197 -21.20822064590805 1.139669255376873 #
straight-curve $-1 64.856715598010197 0 19.201103032943202 0 1 0 I I #
vertex $-1 $356 $478 #
point $-1 59.072807141422238 -28.434124021924205 9.1674009646505503 #
vertex $-1 $360 $479 #
point $-1 59.072807141422238 -25.724410255918148 9.1674009646505503 #
vertex $-1 $364 $480 #
point $-1 59.072807141422238 -23.01469648991209 9.1674009646505503 #
edge $-1 $447 69.536852458966251 $450 87.598286236532587 $369 $481 forward 7 unknown #
vertex $-1 $383 $482 #
straight-curve $-1 57.710161128563541 8.6385932797816203 19.201103032943209 1 0 0 I I #
edge $-1 $450 2.061201834885761 $380 11.093581054905957 $379 $483 forward 7 unknown #
vertex $-1 $449 $484 #
straight-curve $-1 1.9703980633476164 8.6385932797816203 114.58959344915634 -0.48480960649040278 0 0.87461971476443456 I I #
point $-1 54.845099744241345 8.6385932797816203 19.201103032943209 #
point $-1 64.856715598010197 17.670972499801817 1.139669255376873 #
straight-curve $-1 64.856715598010197 0 19.201103032943202 0 1 0 I I #
vertex $-1 $386 $485 #
point $-1 59.072807141422238 10.445069123785657 9.1674009646505503 #
vertex $-1 $390 $486 #
point $-1 59.072807141422238 13.154782889791719 9.1674009646505503 #
vertex $-1 $394 $487 #
point $-1 59.072807141422238 15.864496655797772 9.1674009646505503 #
straight-curve $-1 -64.856715598010197 38.879193145709863 0 0 0 -1 I I #
point $-1 -64.856715598010197 -38.879193145709863 -19.201103032943202 #
straight-curve $-1 -64.856715598010197 0 -19.201103032943202 0 1 0 I I #
point $-1 -64.856715598010197 38.879193145709863 -19.201103032943202 #
coedge $-1 $416 $415 $466 $488 reversed $220 $-1 #
coedge $-1 $421 $417 $465 $488 forward $318 $-1 #
vertex $-1 $418 $489 #
straight-curve $-1 0 38.879193145709863 19.201103032943202 -1 0 0 I I #
point $-1 -42.483841381731594 38.879193145709863 19.201103032943202 #
vertex $-1 $488 $490 #
straight-curve $-1 0 -38.879193145709863 19.201103032943202 1 0 0 I I #
straight-curve $-1 -64.856715598010197 -38.879193145709863 0 0 0 -1 I I #
straight-curve $-1 -64.856715598010197 38.879193145709863 0 0 0 -1 I I #
straight-curve $-1 64.856715598010197 -30.240599865928246 88.73795549190946 0 0 -1 I I #
point $-1 64.856715598010197 -30.240599865928246 19.201103032943202 #
straight-curve $-1 64.856715598010197 -12.862205127959074 1.1396692553768872 0 1 0 I I #
point $-1 64.856715598010197 -30.240599865928246 1.139669255376873 #
point $-1 58.39309248079482 -28.434124021924205 9.3623060187875673 #
point $-1 58.39309248079482 -25.724410255918148 9.3623060187875673 #
point $-1 58.39309248079482 -23.01469648991209 9.3623060187875673 #
straight-curve $-1 64.856715598010197 8.6385932797816203 88.73795549190946 0 0 -1 I I #
point $-1 64.856715598010197 8.6385932797816203 19.201103032943202 #
straight-curve $-1 64.856715598010197 6.5773914448958593 1.1396692553768872 0 1 0 I I #
point $-1 64.856715598010197 8.6385932797816203 1.139669255376873 #
point $-1 58.39309248079482 10.445069123785657 9.3623060187875673 #
point $-1 58.39309248079482 13.154782889791719 9.3623060187875673 #
point $-1 58.39309248079482 15.864496655797772 9.3623060187875673 #
edge $-1 $467 -38.879193145709863 $470 38.879193145709863 $465 $491 forward 7 unknown #
point $-1 -64.856715598010197 38.879193145709863 19.201103032943202 #
point $-1 -64.856715598010197 -38.879193145709863 19.201103032943202 #
straight-curve $-1 -64.856715598010197 0 19.201103032943202 0 -1 0 I I #
End-of-ACIS-data 