500 0 11 0           
7 Unknown 11 ACIS 5.0 NT 24 Thu Mar 25 17:44:00 1999 
-1 9.9999999999999995e-007 1e-010 
body $-1 $11 $-1 $12 #
body $-1 $13 $-1 $14 #
body $-1 $15 $-1 $16 #
body $-1 $17 $-1 $18 #
body $-1 $19 $-1 $20 #
body $-1 $21 $-1 $22 #
body $-1 $23 $-1 $24 #
body $-1 $25 $-1 $26 #
body $-1 $27 $-1 $28 #
body $-1 $29 $-1 $30 #
body $-1 $31 $-1 $32 #
lump $-1 $-1 $33 $0 #
transform $-1 1 0 0 0 1 0 0 0 1 78.151799066133606 39.416249938253038 12.22821580011345 1 rotate no_reflect no_shear #
lump $-1 $-1 $34 $1 #
transform $-1 1 0 0 0 1 0 0 0 1 78.151799066133606 39.416249938253038 12.22821580011345 1 rotate no_reflect no_shear #
lump $-1 $-1 $35 $2 #
transform $-1 1 0 0 0 1 0 0 0 1 78.151799066133606 39.416249938253038 12.22821580011345 1 rotate no_reflect no_shear #
lump $-1 $-1 $36 $3 #
transform $-1 1 0 0 0 1 0 0 0 1 78.151799066133606 39.416249938253038 12.22821580011345 1 rotate no_reflect no_shear #
lump $-1 $-1 $37 $4 #
transform $-1 1 0 0 0 1 0 0 0 1 78.151799066133606 39.416249938253038 12.22821580011345 1 rotate no_reflect no_shear #
lump $-1 $-1 $38 $5 #
transform $-1 1 0 0 0 1 0 0 0 1 78.151799066133606 39.416249938253038 12.22821580011345 1 rotate no_reflect no_shear #
lump $-1 $-1 $39 $6 #
transform $-1 1 0 0 0 1 0 0 0 1 78.151799066133606 39.416249938253038 12.22821580011345 1 rotate no_reflect no_shear #
lump $-1 $-1 $40 $7 #
transform $-1 1 0 0 0 1 0 0 0 1 78.151799066133606 39.416249938253038 12.22821580011345 1 rotate no_reflect no_shear #
lump $-1 $-1 $41 $8 #
transform $-1 1 0 0 0 1 0 0 0 1 78.151799066133606 39.416249938253038 12.22821580011345 1 rotate no_reflect no_shear #
lump $-1 $-1 $42 $9 #
transform $-1 1 0 0 0 1 0 0 0 1 78.151799066133606 39.416249938253038 12.22821580011345 1 rotate no_reflect no_shear #
lump $-1 $-1 $43 $10 #
transform $-1 1 0 0 0 1 0 0 0 1 78.151799066133606 39.416249938253038 12.22821580011345 1 rotate no_reflect no_shear #
shell $-1 $-1 $-1 $44 $-1 $11 #
shell $-1 $-1 $-1 $45 $-1 $13 #
shell $-1 $-1 $-1 $46 $-1 $15 #
shell $-1 $-1 $-1 $47 $-1 $17 #
shell $-1 $-1 $-1 $48 $-1 $19 #
shell $-1 $-1 $-1 $49 $-1 $21 #
shell $-1 $-1 $-1 $50 $-1 $23 #
shell $-1 $-1 $-1 $51 $-1 $25 #
shell $-1 $-1 $-1 $52 $-1 $27 #
shell $-1 $-1 $-1 $53 $-1 $29 #
shell $-1 $-1 $-1 $54 $-1 $31 #
face $-1 $55 $56 $33 $-1 $57 forward single #
face $-1 $58 $59 $34 $-1 $60 forward single #
face $-1 $61 $62 $35 $-1 $63 reversed single #
face $-1 $64 $65 $36 $-1 $66 forward single #
face $-1 $67 $68 $37 $-1 $69 forward single #
face $-1 $70 $71 $38 $-1 $72 reversed single #
face $-1 $73 $74 $39 $-1 $75 forward single #
face $-1 $76 $77 $40 $-1 $78 forward single #
face $-1 $79 $80 $41 $-1 $81 reversed single #
face $-1 $82 $83 $42 $-1 $84 forward single #
face $-1 $85 $86 $43 $-1 $87 forward single #
face $-1 $88 $89 $33 $-1 $90 reversed single #
loop $-1 $-1 $91 $44 #
plane-surface $-1 0 0 12.22821580011345 0 0 1 1 0 0 forward_v I I I I #
face $-1 $92 $93 $34 $-1 $94 reversed single #
loop $-1 $-1 $95 $45 #
plane-surface $-1 -72.795193439565026 0 6.946603632966462 0 0 1 1 0 0 forward_v I I I I #
face $-1 $96 $97 $35 $-1 $98 reversed single #
loop $-1 $-1 $99 $46 #
plane-surface $-1 -32.008084241101784 116.80327316230265 163.98142647871322 1 0 0 0 -0.79863551827123203 -0.60181501223851219 forward_v I I I I #
face $-1 $100 $101 $36 $-1 $102 forward single #
loop $-1 $103 $104 $47 #
cone-surface $-1 -21.292986207337009 36.580471600833292 8.9523392902026568 0 -0.79863551827123203 -0.60181501223851219 1.5 0 0 1 I I 0 1 1.5 forward I I I I #
face $-1 $105 $106 $37 $-1 $107 forward single #
loop $-1 $108 $109 $48 #
cone-surface $-1 -5.2203391566898318 36.580471600833292 8.9523392902026568 0 -0.79863551827123203 -0.60181501223851219 1.5 0 0 1 I I 0 1 1.5 forward I I I I #
face $-1 $110 $111 $38 $-1 $112 reversed single #
loop $-1 $-1 $113 $49 #
plane-surface $-1 5.3566056265685731 -162.58516738409796 103.67080353271017 -1 0 0 0 -0.78801076186113728 0.61566146476048833 forward_v I I I I #
face $-1 $114 $115 $39 $-1 $116 forward single #
loop $-1 $117 $118 $50 #
cone-surface $-1 -6.4370795959809328 -36.868644097908863 9.3052174435259936 0 0.78801076186113728 -0.61566146476048833 1 0 0 1 I I 0 1 1 forward I I I I #
face $-1 $119 $120 $40 $-1 $121 forward single #
loop $-1 $122 $123 $51 #
cone-surface $-1 0.63913153754876362 -36.868644097908863 9.3052174435259936 0 0.78801076186113728 -0.61566146476048833 1 0 0 1 I I 0 1 1 forward I I I I #
face $-1 $124 $125 $41 $-1 $126 reversed single #
loop $-1 $-1 $127 $52 #
plane-surface $-1 21.86776493813786 -162.58516738409796 103.67080353271017 -1 0 0 0 -0.78801076186113728 0.61566146476048833 forward_v I I I I #
face $-1 $128 $129 $42 $-1 $130 forward single #
loop $-1 $131 $132 $53 #
cone-surface $-1 10.074079715588354 -36.868644097908863 9.3052174435259936 0 0.78801076186113728 -0.61566146476048833 1 0 0 1 I I 0 1 1 forward I I I I #
face $-1 $133 $134 $43 $-1 $135 forward single #
loop $-1 $136 $137 $54 #
cone-surface $-1 17.150290849118051 -36.868644097908863 9.3052174435259936 0 0.78801076186113728 -0.61566146476048833 1 0 0 1 I I 0 1 1 forward I I I I #
face $-1 $138 $139 $33 $-1 $140 reversed single #
loop $-1 $-1 $141 $55 #
plane-surface $-1 0 0 -12.22821580011345 0 0 1 1 0 0 forward_v I I I I #
coedge $-1 $142 $143 $144 $145 forward $56 $-1 #
face $-1 $146 $147 $34 $-1 $148 reversed single #
loop $-1 $-1 $149 $58 #
plane-surface $-1 -72.795193439565026 0 2.8984958394501019 0 0 1 1 0 0 forward_v I I I I #
coedge $-1 $150 $151 $152 $153 forward $59 $-1 #
face $-1 $154 $155 $35 $-1 $156 reversed single #
loop $-1 $-1 $157 $61 #
plane-surface $-1 -13.256662682013413 -8.0263319397189576 69.915574655819327 0 0.79863551827123203 0.60181501223851219 1 0 0 forward_v I I I I #
coedge $-1 $158 $159 $160 $161 reversed $62 $-1 #
face $-1 $-1 $162 $36 $-1 $163 forward single #
loop $-1 $164 $165 $64 #
cone-surface $-1 -21.292986207337009 35.131736728945036 7.8606392910051675 0 -0.79863551827123203 -0.60181501223851219 0.75 0 0 1 I I -0.70710678118654757 0.70710678118654757 0.75 forward I I I I #
loop $-1 $-1 $166 $47 #
coedge $-1 $104 $104 $167 $168 reversed $65 $-1 #
face $-1 $-1 $169 $37 $-1 $170 forward single #
loop $-1 $171 $172 $67 #
cone-surface $-1 -5.2203391566898318 35.131736728945036 7.8606392910051675 0 -0.79863551827123203 -0.60181501223851219 0.75 0 0 1 I I -0.70710678118654757 0.70710678118654757 0.75 forward I I I I #
loop $-1 $-1 $173 $48 #
coedge $-1 $109 $109 $174 $175 reversed $68 $-1 #
face $-1 $176 $177 $38 $-1 $178 reversed single #
loop $-1 $-1 $179 $70 #
plane-surface $-1 -2.8989740292160775 -39.416249938253031 7.4407013592638123 0 -0.78801076186113728 0.61566146476048833 1 0 0 forward_v I I I I #
coedge $-1 $180 $181 $182 $183 reversed $71 $-1 #
face $-1 $-1 $184 $39 $-1 $185 forward single #
loop $-1 $186 $187 $73 #
cone-surface $-1 -6.4370795959809328 -35.797240934614223 8.4681455749831152 0 0.78801076186113728 -0.61566146476048833 0.5 0 0 1 I I -0.70710678118654746 0.70710678118654746 0.5 forward I I I I #
loop $-1 $-1 $188 $50 #
coedge $-1 $118 $118 $189 $190 reversed $74 $-1 #
face $-1 $-1 $191 $40 $-1 $192 forward single #
loop $-1 $193 $194 $76 #
cone-surface $-1 0.63913153754876362 -35.797240934614223 8.4681455749831152 0 0.78801076186113728 -0.61566146476048833 0.5 0 0 1 I I -0.70710678118654746 0.70710678118654746 0.5 forward I I I I #
loop $-1 $-1 $195 $51 #
coedge $-1 $123 $123 $196 $197 reversed $77 $-1 #
face $-1 $198 $199 $41 $-1 $200 reversed single #
loop $-1 $-1 $201 $79 #
plane-surface $-1 -2.8989740292160775 -39.416249938253031 7.4407013592638123 0 -0.78801076186113728 0.61566146476048833 1 0 0 forward_v I I I I #
coedge $-1 $202 $203 $204 $205 reversed $80 $-1 #
face $-1 $-1 $206 $42 $-1 $207 forward single #
loop $-1 $208 $209 $82 #
cone-surface $-1 10.074079715588354 -35.797240934614223 8.4681455749831152 0 0.78801076186113728 -0.61566146476048833 0.5 0 0 1 I I -0.70710678118654746 0.70710678118654746 0.5 forward I I I I #
loop $-1 $-1 $210 $53 #
coedge $-1 $132 $132 $211 $212 reversed $83 $-1 #
face $-1 $-1 $213 $43 $-1 $214 forward single #
loop $-1 $215 $216 $85 #
cone-surface $-1 17.150290849118051 -35.797240934614223 8.4681455749831152 0 0.78801076186113728 -0.61566146476048833 0.5 0 0 1 I I -0.70710678118654746 0.70710678118654746 0.5 forward I I I I #
loop $-1 $-1 $217 $54 #
coedge $-1 $137 $137 $218 $219 reversed $86 $-1 #
face $-1 $220 $221 $33 $-1 $222 reversed single #
loop $-1 $-1 $223 $88 #
plane-surface $-1 0 -39.416249938253038 0 0 1 0 0 0 1 forward_v I I I I #
coedge $-1 $224 $225 $226 $227 forward $89 $-1 #
coedge $-1 $228 $91 $229 $230 forward $56 $-1 #
coedge $-1 $91 $228 $231 $232 forward $56 $-1 #
coedge $-1 $233 $234 $91 $145 reversed $235 $-1 #
edge $-1 $236 -39.416249938253038 $237 39.416249938253038 $144 $238 forward 7 unknown #
face $-1 $239 $240 $34 $-1 $241 reversed single #
loop $-1 $-1 $242 $92 #
plane-surface $-1 -67.438587812996445 0 4.922549736208282 -1 0 0 0 0 1 forward_v I I I I #
coedge $-1 $243 $244 $245 $246 forward $93 $-1 #
coedge $-1 $247 $95 $248 $249 reversed $59 $-1 #
coedge $-1 $95 $247 $250 $251 reversed $59 $-1 #
coedge $-1 $242 $252 $95 $153 reversed $147 $-1 #
edge $-1 $253 -39.416249938253038 $254 39.416249938253038 $152 $255 forward 7 unknown #
face $-1 $256 $257 $35 $-1 $258 forward single #
loop $-1 $-1 $259 $96 #
plane-surface $-1 5.4947588770749611 116.80327316230265 163.98142647871322 -1 0 0 0 0.79863551827123203 0.60181501223851219 forward_v I I I I #
coedge $-1 $260 $261 $262 $263 reversed $97 $-1 #
coedge $-1 $159 $99 $264 $265 reversed $62 $-1 #
coedge $-1 $99 $158 $260 $266 reversed $62 $-1 #
coedge $-1 $262 $267 $99 $161 forward $257 $-1 #
edge $-1 $268 18.985386642898284 $269 22.957426851368076 $160 $270 forward 7 unknown #
loop $-1 $-1 $167 $100 #
plane-surface $-1 -13.256662682013413 -8.0263319397189576 69.915574655819327 0 0.79863551827123203 0.60181501223851219 1 0 0 forward_v I I I I #
loop $-1 $-1 $271 $64 #
coedge $-1 $165 $165 $166 $272 reversed $101 $-1 #
coedge $-1 $166 $166 $165 $272 forward $103 $-1 #
coedge $-1 $167 $167 $104 $168 forward $162 $-1 #
edge $-1 $273 -1.918439362715164e-015 $273 6.2831853071795987 $167 $274 forward 7 unknown #
loop $-1 $-1 $174 $105 #
plane-surface $-1 -13.256662682013413 -8.0263319397189576 69.915574655819327 0 0.79863551827123203 0.60181501223851219 1 0 0 forward_v I I I I #
loop $-1 $-1 $275 $67 #
coedge $-1 $172 $172 $173 $276 reversed $106 $-1 #
coedge $-1 $173 $173 $172 $276 forward $108 $-1 #
coedge $-1 $174 $174 $109 $175 forward $169 $-1 #
edge $-1 $277 -1.918439362715164e-015 $277 6.2831853071795987 $174 $278 forward 7 unknown #
face $-1 $279 $280 $38 $-1 $281 reversed single #
loop $-1 $-1 $282 $110 #
plane-surface $-1 -11.154553685000728 -162.58516738409796 103.67080353271017 1 0 0 0 0.78801076186113728 -0.61566146476048833 forward_v I I I I #
coedge $-1 $283 $284 $285 $286 reversed $111 $-1 #
coedge $-1 $181 $113 $287 $288 reversed $71 $-1 #
coedge $-1 $113 $180 $283 $289 reversed $71 $-1 #
coedge $-1 $285 $290 $113 $183 forward $291 $-1 #
edge $-1 $292 41.87633375379594 $293 45.616749869756156 $182 $294 forward 7 unknown #
loop $-1 $-1 $189 $114 #
plane-surface $-1 -2.8989740292160775 -39.416249938253031 7.4407013592638123 0 -0.78801076186113728 0.61566146476048833 1 0 0 forward_v I I I I #
loop $-1 $-1 $295 $73 #
coedge $-1 $187 $187 $188 $296 reversed $115 $-1 #
coedge $-1 $188 $188 $187 $296 forward $117 $-1 #
coedge $-1 $189 $189 $118 $190 forward $184 $-1 #
edge $-1 $297 -1.5749612020238124e-015 $297 6.2831853071795987 $189 $298 forward 7 unknown #
loop $-1 $-1 $196 $119 #
plane-surface $-1 -2.8989740292160775 -39.416249938253031 7.4407013592638123 0 -0.78801076186113728 0.61566146476048833 1 0 0 forward_v I I I I #
loop $-1 $-1 $299 $76 #
coedge $-1 $194 $194 $195 $300 reversed $120 $-1 #
coedge $-1 $195 $195 $194 $300 forward $122 $-1 #
coedge $-1 $196 $196 $123 $197 forward $191 $-1 #
edge $-1 $301 -1.5749612020238124e-015 $301 6.2831853071795987 $196 $302 forward 7 unknown #
face $-1 $303 $304 $41 $-1 $305 forward single #
loop $-1 $-1 $306 $124 #
plane-surface $-1 0 -39.416249938253038 0 0 1 0 0 0 1 forward_v I I I I #
coedge $-1 $307 $308 $309 $310 reversed $125 $-1 #
coedge $-1 $203 $127 $311 $312 reversed $80 $-1 #
coedge $-1 $127 $202 $313 $314 reversed $80 $-1 #
coedge $-1 $315 $306 $127 $205 forward $199 $-1 #
edge $-1 $316 -44.394700407091278 $317 -39.60718596624163 $204 $318 forward 7 unknown #
loop $-1 $-1 $211 $128 #
plane-surface $-1 -2.8989740292160775 -39.416249938253031 7.4407013592638123 0 -0.78801076186113728 0.61566146476048833 1 0 0 forward_v I I I I #
loop $-1 $-1 $319 $82 #
coedge $-1 $209 $209 $210 $320 reversed $129 $-1 #
coedge $-1 $210 $210 $209 $320 forward $131 $-1 #
coedge $-1 $211 $211 $132 $212 forward $206 $-1 #
edge $-1 $321 -1.5749612020238124e-015 $321 6.2831853071795987 $211 $322 forward 7 unknown #
loop $-1 $-1 $218 $133 #
plane-surface $-1 -2.8989740292160775 -39.416249938253031 7.4407013592638123 0 -0.78801076186113728 0.61566146476048833 1 0 0 forward_v I I I I #
loop $-1 $-1 $323 $85 #
coedge $-1 $216 $216 $217 $324 reversed $134 $-1 #
coedge $-1 $217 $217 $216 $324 forward $136 $-1 #
coedge $-1 $218 $218 $137 $219 forward $213 $-1 #
edge $-1 $325 -1.5749612020238124e-015 $325 6.2831853071795987 $218 $326 forward 7 unknown #
face $-1 $327 $328 $33 $-1 $329 reversed single #
loop $-1 $-1 $330 $138 #
plane-surface $-1 -78.151799066133606 0 0 1 0 0 0 0 -1 forward_v I I I I #
coedge $-1 $331 $231 $332 $333 forward $139 $-1 #
coedge $-1 $334 $141 $331 $335 forward $89 $-1 #
coedge $-1 $141 $334 $336 $337 forward $89 $-1 #
coedge $-1 $234 $233 $141 $227 reversed $235 $-1 #
edge $-1 $338 -39.416249938253038 $339 39.416249938253038 $226 $340 forward 7 unknown #
coedge $-1 $143 $142 $341 $342 forward $56 $-1 #
coedge $-1 $343 $344 $142 $230 reversed $328 $-1 #
edge $-1 $237 -78.151799066133606 $345 78.151799066133606 $229 $346 forward 7 unknown #
coedge $-1 $223 $347 $143 $232 reversed $139 $-1 #
edge $-1 $348 -78.151799066133606 $236 78.151799066133606 $231 $349 forward 7 unknown #
coedge $-1 $226 $144 $347 $350 forward $235 $-1 #
coedge $-1 $144 $226 $343 $351 reversed $235 $-1 #
loop $-1 $-1 $233 $327 #
vertex $-1 $145 $352 #
vertex $-1 $145 $353 #
straight-curve $-1 78.151799066133606 0 12.22821580011345 0 1 0 I I #
face $-1 $354 $355 $34 $-1 $356 reversed single #
loop $-1 $-1 $357 $146 #
plane-surface $-1 0 -39.416249938253038 0 0 1 0 0 0 1 forward_v I I I I #
coedge $-1 $245 $152 $358 $359 reversed $147 $-1 #
coedge $-1 $360 $149 $357 $361 reversed $93 $-1 #
coedge $-1 $149 $360 $362 $363 reversed $93 $-1 #
coedge $-1 $252 $242 $149 $246 reversed $147 $-1 #
edge $-1 $364 -39.416249938253038 $365 39.416249938253038 $245 $366 forward 7 unknown #
coedge $-1 $151 $150 $367 $368 reversed $59 $-1 #
coedge $-1 $369 $370 $150 $249 forward $371 $-1 #
edge $-1 $372 -41.754202346351093 $254 -31.040991093213933 $248 $373 forward 7 unknown #
coedge $-1 $374 $358 $151 $251 forward $240 $-1 #
edge $-1 $253 31.040991093213933 $375 41.754202346351093 $250 $376 forward 7 unknown #
coedge $-1 $152 $245 $369 $377 reversed $147 $-1 #
vertex $-1 $251 $378 #
vertex $-1 $249 $379 #
straight-curve $-1 -67.438587812996445 0 6.946603632966462 0 1 0 I I #
face $-1 $-1 $380 $35 $-1 $381 reversed single #
loop $-1 $-1 $160 $154 #
plane-surface $-1 0 0 12.22821580011345 0 0 1 1 0 0 forward_v I I I I #
coedge $-1 $382 $383 $384 $385 reversed $155 $-1 #
coedge $-1 $386 $157 $159 $266 forward $97 $-1 #
coedge $-1 $157 $386 $382 $387 forward $97 $-1 #
coedge $-1 $384 $160 $157 $263 forward $257 $-1 #
edge $-1 $269 -25.379752900095077 $388 12.123090218081668 $262 $389 forward 7 unknown #
coedge $-1 $390 $391 $158 $265 forward $380 $-1 #
edge $-1 $392 -75.033572979027525 $268 -69.762497439243162 $264 $393 forward 7 unknown #
edge $-1 $269 72.232398304271442 $392 78.832499876506034 $159 $394 forward 7 unknown #
coedge $-1 $160 $384 $390 $395 forward $257 $-1 #
vertex $-1 $265 $396 #
vertex $-1 $161 $397 #
straight-curve $-1 -32.008084241101784 58.401636581151323 12.228215800113446 0 -1 0 I I #
coedge $-1 $271 $271 $-1 $398 reversed $164 $-1 #
edge $-1 $399 0 $399 6.2831853071796004 $165 $400 forward 7 unknown #
vertex $-1 $168 $401 #
ellipse-curve $-1 -21.292986207337009 37.430229834018135 9.5926780302212684 0 0.79863551827123203 0.60181501223851219 1.5 0 0 1 I I #
coedge $-1 $275 $275 $-1 $402 reversed $171 $-1 #
edge $-1 $403 0 $403 6.2831853071796004 $172 $404 forward 7 unknown #
vertex $-1 $175 $405 #
ellipse-curve $-1 -5.2203391566898318 37.430229834018135 9.5926780302212684 0 0.79863551827123203 0.60181501223851219 1.5 0 0 1 I I #
face $-1 $-1 $291 $38 $-1 $406 forward single #
loop $-1 $-1 $407 $176 #
plane-surface $-1 0 -39.416249938253038 0 0 1 0 0 0 1 forward_v I I I I #
coedge $-1 $408 $409 $410 $411 reversed $177 $-1 #
coedge $-1 $412 $179 $181 $289 forward $111 $-1 #
coedge $-1 $179 $412 $408 $413 forward $111 $-1 #
coedge $-1 $410 $182 $179 $286 forward $291 $-1 #
edge $-1 $293 -6.8060926411766118 $414 9.7050666703926893 $285 $415 forward 7 unknown #
coedge $-1 $416 $417 $180 $288 forward $280 $-1 #
edge $-1 $418 -44.394700407091278 $292 -39.60718596624163 $287 $419 forward 7 unknown #
edge $-1 $293 -6.0754429667209173 $418 1.1373479346495045e-014 $181 $420 forward 7 unknown #
coedge $-1 $182 $410 $416 $421 forward $291 $-1 #
loop $-1 $-1 $410 $279 #
vertex $-1 $288 $422 #
vertex $-1 $183 $423 #
straight-curve $-1 5.3566056265685731 -81.292583692048979 12.228215800113453 0 1 0 I I #
coedge $-1 $295 $295 $-1 $424 reversed $186 $-1 #
edge $-1 $425 0 $425 6.2831853071796004 $187 $426 forward 7 unknown #
vertex $-1 $190 $427 #
ellipse-curve $-1 -6.4370795959809328 -37.546041880272931 9.8344585796886257 0 -0.78801076186113728 0.61566146476048833 1 0 0 1 I I #
coedge $-1 $299 $299 $-1 $428 reversed $193 $-1 #
edge $-1 $429 0 $429 6.2831853071796004 $194 $430 forward 7 unknown #
vertex $-1 $197 $431 #
ellipse-curve $-1 0.63913153754876362 -37.546041880272931 9.8344585796886257 0 -0.78801076186113728 0.61566146476048833 1 0 0 1 I I #
face $-1 $-1 $432 $41 $-1 $433 forward single #
loop $-1 $-1 $434 $198 #
plane-surface $-1 5.3566056265685731 -162.58516738409796 103.67080353271017 -1 0 0 0 -0.78801076186113728 0.61566146476048833 forward_v I I I I #
coedge $-1 $204 $435 $308 $436 forward $199 $-1 #
coedge $-1 $311 $201 $437 $438 reversed $125 $-1 #
coedge $-1 $201 $311 $306 $436 reversed $125 $-1 #
coedge $-1 $439 $434 $201 $310 forward $304 $-1 #
edge $-1 $440 -6.0754429667209173 $441 1.1373479346495045e-014 $309 $442 forward 7 unknown #
coedge $-1 $308 $307 $202 $312 forward $125 $-1 #
edge $-1 $443 -6.0754429667209173 $316 1.1373479346495045e-014 $202 $444 forward 7 unknown #
coedge $-1 $437 $445 $203 $314 forward $432 $-1 #
edge $-1 $317 41.87633375379594 $443 45.616749869756156 $313 $446 forward 7 unknown #
coedge $-1 $435 $204 $445 $447 reversed $199 $-1 #
vertex $-1 $205 $448 #
vertex $-1 $205 $449 #
straight-curve $-1 21.86776493813786 -39.416249938253038 51.835401766355083 0 0 1 I I #
coedge $-1 $319 $319 $-1 $450 reversed $208 $-1 #
edge $-1 $451 0 $451 6.2831853071796004 $209 $452 forward 7 unknown #
vertex $-1 $212 $453 #
ellipse-curve $-1 10.074079715588354 -37.546041880272931 9.8344585796886257 0 -0.78801076186113728 0.61566146476048833 1 0 0 1 I I #
coedge $-1 $323 $323 $-1 $454 reversed $215 $-1 #
edge $-1 $455 0 $455 6.2831853071796004 $216 $456 forward 7 unknown #
vertex $-1 $219 $457 #
ellipse-curve $-1 17.150290849118051 -37.546041880272931 9.8344585796886257 0 -0.78801076186113728 0.61566146476048833 1 0 0 1 I I #
face $-1 $-1 $235 $33 $-1 $458 reversed single #
loop $-1 $-1 $343 $220 #
plane-surface $-1 0 39.416249938253038 0 0 -1 0 0 0 -1 forward_v I I I I #
coedge $-1 $459 $341 $344 $460 forward $221 $-1 #
coedge $-1 $347 $223 $224 $335 reversed $139 $-1 #
coedge $-1 $341 $459 $223 $333 reversed $221 $-1 #
edge $-1 $348 -12.22821580011345 $461 12.22821580011345 $332 $462 forward 7 unknown #
coedge $-1 $225 $224 $459 $463 forward $89 $-1 #
edge $-1 $339 -78.151799066133606 $461 78.151799066133606 $331 $464 forward 7 unknown #
coedge $-1 $344 $343 $225 $337 reversed $328 $-1 #
edge $-1 $465 -78.151799066133606 $338 78.151799066133606 $336 $466 forward 7 unknown #
vertex $-1 $227 $467 #
vertex $-1 $350 $468 #
straight-curve $-1 78.151799066133606 0 -12.22821580011345 0 -1 0 I I #
coedge $-1 $330 $332 $228 $342 reversed $221 $-1 #
edge $-1 $345 -39.416249938253038 $348 39.416249938253038 $341 $469 forward 7 unknown #
coedge $-1 $336 $229 $234 $351 forward $328 $-1 #
coedge $-1 $229 $336 $330 $460 reversed $328 $-1 #
vertex $-1 $230 $470 #
straight-curve $-1 0 39.416249938253038 12.22821580011345 -1 0 0 I I #
coedge $-1 $231 $331 $233 $350 reversed $139 $-1 #
vertex $-1 $342 $471 #
straight-curve $-1 0 -39.416249938253038 12.22821580011345 1 0 0 I I #
edge $-1 $236 -12.22821580011345 $339 12.22821580011345 $233 $472 forward 7 unknown #
edge $-1 $237 -12.22821580011345 $338 12.22821580011345 $234 $473 forward 7 unknown #
point $-1 78.151799066133606 -39.416249938253038 12.22821580011345 #
point $-1 78.151799066133606 39.416249938253038 12.22821580011345 #
face $-1 $-1 $371 $34 $-1 $474 reversed single #
loop $-1 $-1 $475 $239 #
plane-surface $-1 -78.151799066133606 0 0 1 0 0 0 0 -1 forward_v I I I I #
coedge $-1 $358 $374 $243 $361 forward $240 $-1 #
coedge $-1 $250 $357 $242 $359 forward $240 $-1 #
edge $-1 $365 0.43722097134596094 $253 4.485328764862321 $358 $476 forward 7 unknown #
coedge $-1 $244 $243 $475 $477 reversed $93 $-1 #
edge $-1 $478 -41.754202346351093 $365 -31.040991093213933 $357 $479 forward 7 unknown #
coedge $-1 $370 $369 $244 $363 forward $371 $-1 #
edge $-1 $364 31.040991093213933 $480 41.754202346351093 $362 $481 forward 7 unknown #
vertex $-1 $363 $482 #
vertex $-1 $361 $483 #
straight-curve $-1 -67.438587812996445 0 2.8984958394501019 0 -1 0 I I #
coedge $-1 $484 $485 $247 $368 forward $355 $-1 #
edge $-1 $375 -39.416249938253038 $372 39.416249938253038 $367 $486 forward 7 unknown #
coedge $-1 $362 $248 $252 $377 forward $371 $-1 #
coedge $-1 $248 $362 $484 $487 reversed $371 $-1 #
loop $-1 $-1 $362 $354 #
vertex $-1 $487 $488 #
straight-curve $-1 -36.397596719782513 39.416249938253038 6.946603632966462 1 0 0 I I #
coedge $-1 $357 $250 $485 $489 forward $240 $-1 #
vertex $-1 $489 $490 #
straight-curve $-1 -36.397596719782513 -39.416249938253038 6.946603632966462 -1 0 0 I I #
edge $-1 $254 -4.485328764862321 $364 -0.43722097134596094 $369 $491 forward 7 unknown #
point $-1 -67.438587812996445 -39.416249938253038 6.946603632966462 #
point $-1 -67.438587812996445 39.416249938253038 6.946603632966462 #
loop $-1 $-1 $264 $256 #
plane-surface $-1 0 39.416249938253038 0 0 -1 0 0 0 -1 forward_v I I I I #
coedge $-1 $383 $259 $261 $387 reversed $155 $-1 #
coedge $-1 $259 $382 $492 $493 reversed $155 $-1 #
coedge $-1 $267 $262 $259 $385 forward $257 $-1 #
edge $-1 $388 -22.957426851368076 $494 -18.985386642898284 $384 $495 forward 7 unknown #
coedge $-1 $261 $260 $391 $496 reversed $97 $-1 #
edge $-1 $497 -78.832499876506034 $388 -72.232398304271442 $382 $498 forward 7 unknown #
vertex $-1 $263 $499 #
straight-curve $-1 -6.6283313410067066 35.444209729783239 12.228215800113446 1 0 0 I I #
coedge $-1 $492 $264 $267 $395 reversed $380 $-1 #
coedge $-1 $264 $492 $386 $496 forward $380 $-1 #
vertex $-1 $265 $500 #
straight-curve $-1 -32.008084241101784 39.416249938253038 81.990713239356609 0 0 1 I I #
straight-curve $-1 -32.008084241101784 -8.0263319397189576 69.915574655819327 0 0.60181501223851219 -0.79863551827123203 I I #
edge $-1 $494 -5.4947588770749611 $268 32.008084241101784 $390 $501 forward 7 unknown #
point $-1 -32.008084241101784 39.416249938253038 12.22821580011345 #
point $-1 -32.008084241101784 35.444209729783246 12.228215800113446 #
edge $-1 $502 1 $502 0 $271 $-1 forward 7 unknown #
vertex $-1 $272 $503 #
ellipse-curve $-1 -21.292986207337009 35.730713367648463 8.3120005501840524 0 0.79863551827123203 0.60181501223851219 1.5 0 0 1 I I #
point $-1 -19.792986207337009 37.430229834018121 9.5926780302212613 #
edge $-1 $504 1 $504 0 $275 $-1 forward 7 unknown #
vertex $-1 $276 $505 #
ellipse-curve $-1 -5.2203391566898318 35.730713367648463 8.3120005501840524 0 0.79863551827123203 0.60181501223851219 1.5 0 0 1 I I #
point $-1 -3.7203391566898318 37.430229834018121 9.5926780302212613 #
plane-surface $-1 0 0 12.22821580011345 0 0 1 1 0 0 forward_v I I I I #
coedge $-1 $417 $416 $409 $506 forward $280 $-1 #
coedge $-1 $409 $282 $284 $413 reversed $177 $-1 #
coedge $-1 $282 $408 $407 $506 reversed $177 $-1 #
coedge $-1 $290 $285 $282 $411 forward $291 $-1 #
edge $-1 $414 -45.616749869756156 $507 -41.87633375379594 $410 $508 forward 7 unknown #
coedge $-1 $284 $283 $417 $509 reversed $111 $-1 #
edge $-1 $510 -1.1373479346495045e-014 $414 6.0754429667209173 $408 $511 forward 7 unknown #
vertex $-1 $286 $512 #
straight-curve $-1 -1.4494870146080387 -35.675833822292823 12.22821580011345 -1 0 0 I I #
coedge $-1 $407 $287 $290 $421 reversed $280 $-1 #
coedge $-1 $287 $407 $412 $509 forward $280 $-1 #
vertex $-1 $288 $513 #
straight-curve $-1 5.3566056265685731 -39.416249938253038 51.835401766355083 0 0 1 I I #
straight-curve $-1 5.3566056265685731 -39.416249938253031 7.4407013592638123 0 -0.61566146476048833 -0.78801076186113728 I I #
edge $-1 $507 -11.154553685000728 $292 5.3566056265685731 $416 $514 forward 7 unknown #
point $-1 5.3566056265685731 -39.416249938253038 12.22821580011345 #
point $-1 5.3566056265685731 -35.675833822292823 12.22821580011345 #
edge $-1 $515 1 $515 0 $295 $-1 forward 7 unknown #
vertex $-1 $296 $516 #
ellipse-curve $-1 -6.4370795959809328 -36.191246315544788 8.7759763073633597 0 -0.78801076186113728 0.61566146476048833 1 0 0 1 I I #
point $-1 -5.4370795959809328 -37.546041880272938 9.8344585796886292 #
edge $-1 $517 1 $517 0 $299 $-1 forward 7 unknown #
vertex $-1 $300 $518 #
ellipse-curve $-1 0.63913153754876362 -36.191246315544788 8.7759763073633597 0 -0.78801076186113728 0.61566146476048833 1 0 0 1 I I #
point $-1 1.6391315375487636 -37.546041880272938 9.8344585796886292 #
loop $-1 $-1 $437 $303 #
plane-surface $-1 0 0 12.22821580011345 0 0 1 1 0 0 forward_v I I I I #
coedge $-1 $309 $439 $519 $520 reversed $304 $-1 #
coedge $-1 $306 $315 $439 $521 forward $199 $-1 #
edge $-1 $441 6.8060926411766118 $316 23.317251952745899 $306 $522 forward 7 unknown #
coedge $-1 $519 $313 $307 $438 forward $432 $-1 #
edge $-1 $443 -23.317251952745899 $440 -6.8060926411766118 $437 $523 forward 7 unknown #
coedge $-1 $434 $309 $435 $521 reversed $304 $-1 #
vertex $-1 $438 $524 #
vertex $-1 $436 $525 #
straight-curve $-1 5.3566056265685731 -39.416249938253031 7.4407013592638123 0 -0.61566146476048833 -0.78801076186113728 I I #
vertex $-1 $314 $526 #
straight-curve $-1 21.86776493813786 -39.416249938253031 7.4407013592638123 0 -0.61566146476048833 -0.78801076186113728 I I #
coedge $-1 $313 $519 $315 $447 forward $432 $-1 #
straight-curve $-1 21.86776493813786 -81.292583692048979 12.228215800113453 0 1 0 I I #
edge $-1 $527 5.3566056265685731 $317 21.86776493813786 $315 $528 forward 7 unknown #
point $-1 21.86776493813786 -39.416249938253038 7.4407013592638034 #
point $-1 21.86776493813786 -39.416249938253038 12.22821580011345 #
edge $-1 $529 1 $529 0 $319 $-1 forward 7 unknown #
vertex $-1 $320 $530 #
ellipse-curve $-1 10.074079715588354 -36.191246315544788 8.7759763073633597 0 -0.78801076186113728 0.61566146476048833 1 0 0 1 I I #
point $-1 11.074079715588354 -37.546041880272938 9.8344585796886292 #
edge $-1 $531 1 $531 0 $323 $-1 forward 7 unknown #
vertex $-1 $324 $532 #
ellipse-curve $-1 17.150290849118051 -36.191246315544788 8.7759763073633597 0 -0.78801076186113728 0.61566146476048833 1 0 0 1 I I #
point $-1 18.150290849118051 -37.546041880272938 9.8344585796886292 #
plane-surface $-1 78.151799066133606 0 0 -1 0 0 0 0 1 forward_v I I I I #
coedge $-1 $332 $330 $334 $463 reversed $221 $-1 #
edge $-1 $345 -12.22821580011345 $465 12.22821580011345 $344 $533 forward 7 unknown #
vertex $-1 $463 $534 #
straight-curve $-1 -78.151799066133606 -39.416249938253038 0 0 0 -1 I I #
edge $-1 $461 -39.416249938253038 $465 39.416249938253038 $459 $535 forward 7 unknown #
straight-curve $-1 0 -39.416249938253038 -12.22821580011345 -1 0 0 I I #
vertex $-1 $337 $536 #
straight-curve $-1 0 39.416249938253038 -12.22821580011345 1 0 0 I I #
point $-1 78.151799066133606 39.416249938253038 -12.22821580011345 #
point $-1 78.151799066133606 -39.416249938253038 -12.22821580011345 #
straight-curve $-1 -78.151799066133606 0 12.22821580011345 0 -1 0 I I #
point $-1 -78.151799066133606 39.416249938253038 12.22821580011345 #
point $-1 -78.151799066133606 -39.416249938253038 12.22821580011345 #
straight-curve $-1 78.151799066133606 -39.416249938253038 0 0 0 -1 I I #
straight-curve $-1 78.151799066133606 39.416249938253038 0 0 0 -1 I I #
plane-surface $-1 0 39.416249938253038 0 0 -1 0 0 0 -1 forward_v I I I I #
coedge $-1 $485 $484 $360 $477 forward $355 $-1 #
straight-curve $-1 -67.438587812996445 -39.416249938253038 2.461274868104141 0 0 1 I I #
edge $-1 $480 -39.416249938253038 $478 39.416249938253038 $475 $537 forward 7 unknown #
vertex $-1 $361 $538 #
straight-curve $-1 -36.397596719782513 -39.416249938253038 2.8984958394501019 1 0 0 I I #
vertex $-1 $363 $539 #
straight-curve $-1 -36.397596719782513 39.416249938253038 2.8984958394501019 -1 0 0 I I #
point $-1 -67.438587812996445 39.416249938253038 2.8984958394501019 #
point $-1 -67.438587812996445 -39.416249938253038 2.8984958394501019 #
coedge $-1 $475 $367 $370 $487 forward $355 $-1 #
coedge $-1 $367 $475 $374 $489 reversed $355 $-1 #
straight-curve $-1 -78.151799066133606 0 6.946603632966462 0 1 0 I I #
edge $-1 $372 -6.946603632966462 $480 -2.8984958394501019 $370 $540 forward 7 unknown #
point $-1 -78.151799066133606 39.416249938253038 6.946603632966462 #
edge $-1 $375 -6.946603632966462 $478 -2.8984958394501019 $485 $541 forward 7 unknown #
point $-1 -78.151799066133606 -39.416249938253038 6.946603632966462 #
straight-curve $-1 -67.438587812996445 39.416249938253038 2.461274868104141 0 0 -1 I I #
coedge $-1 $391 $390 $383 $493 forward $380 $-1 #
edge $-1 $494 69.762497439243162 $497 75.033572979027525 $492 $542 forward 7 unknown #
vertex $-1 $395 $543 #
straight-curve $-1 5.4947588770749611 58.401636581151323 12.228215800113446 0 1 0 I I #
edge $-1 $497 -12.123090218081668 $392 25.379752900095077 $391 $544 forward 7 unknown #
vertex $-1 $496 $545 #
straight-curve $-1 5.4947588770749611 -8.0263319397189576 69.915574655819327 0 -0.60181501223851219 0.79863551827123203 I I #
point $-1 5.4947588770749611 35.444209729783246 12.228215800113446 #
point $-1 -32.008084241101784 39.416249938253038 6.9571402603290835 #
straight-curve $-1 0 39.416249938253038 12.22821580011345 -1 0 0 I I #
vertex $-1 $398 $546 #
point $-1 -19.792986207337009 35.730713367648463 8.3120005501840524 #
vertex $-1 $402 $547 #
point $-1 -3.7203391566898318 35.730713367648463 8.3120005501840524 #
edge $-1 $507 39.60718596624163 $510 44.394700407091278 $407 $548 forward 7 unknown #
vertex $-1 $421 $549 #
straight-curve $-1 -11.154553685000728 -81.292583692048979 12.228215800113453 0 -1 0 I I #
edge $-1 $510 -9.7050666703926893 $418 6.8060926411766118 $417 $550 forward 7 unknown #
vertex $-1 $509 $551 #
straight-curve $-1 -11.154553685000728 -39.416249938253031 7.4407013592638123 0 0.61566146476048833 0.78801076186113728 I I #
point $-1 -11.154553685000728 -35.675833822292823 12.22821580011345 #
point $-1 5.3566056265685731 -39.416249938253038 7.4407013592638034 #
straight-curve $-1 0 -39.416249938253038 12.22821580011345 1 0 0 I I #
vertex $-1 $424 $552 #
point $-1 -5.4370795959809328 -36.191246315544788 8.7759763073633597 #
vertex $-1 $428 $553 #
point $-1 1.6391315375487636 -36.191246315544788 8.7759763073633597 #
coedge $-1 $445 $437 $434 $520 forward $432 $-1 #
edge $-1 $440 -45.616749869756156 $527 -41.87633375379594 $519 $554 forward 7 unknown #
edge $-1 $527 39.60718596624163 $441 44.394700407091278 $435 $555 forward 7 unknown #
straight-curve $-1 -1.4494870146080387 -39.416249938253038 7.4407013592638016 1 0 0 I I #
straight-curve $-1 -1.4494870146080387 -35.675833822292823 12.22821580011345 -1 0 0 I I #
point $-1 5.3566056265685731 -35.675833822292823 12.22821580011345 #
point $-1 5.3566056265685731 -39.416249938253038 7.4407013592638034 #
point $-1 21.86776493813786 -35.675833822292823 12.22821580011345 #
vertex $-1 $447 $556 #
straight-curve $-1 0 -39.416249938253038 12.22821580011345 1 0 0 I I #
vertex $-1 $450 $557 #
point $-1 11.074079715588354 -36.191246315544788 8.7759763073633597 #
vertex $-1 $454 $558 #
point $-1 18.150290849118051 -36.191246315544788 8.7759763073633597 #
straight-curve $-1 -78.151799066133606 39.416249938253038 0 0 0 -1 I I #
point $-1 -78.151799066133606 -39.416249938253038 -12.22821580011345 #
straight-curve $-1 -78.151799066133606 0 -12.22821580011345 0 1 0 I I #
point $-1 -78.151799066133606 39.416249938253038 -12.22821580011345 #
straight-curve $-1 -78.151799066133606 0 2.8984958394501019 0 -1 0 I I #
point $-1 -78.151799066133606 -39.416249938253038 2.8984958394501019 #
point $-1 -78.151799066133606 39.416249938253038 2.8984958394501019 #
straight-curve $-1 -78.151799066133606 39.416249938253038 0 0 0 -1 I I #
straight-curve $-1 -78.151799066133606 -39.416249938253038 0 0 0 -1 I I #
straight-curve $-1 5.4947588770749611 39.416249938253038 81.990713239356609 0 0 -1 I I #
point $-1 5.4947588770749611 39.416249938253038 12.22821580011345 #
straight-curve $-1 -6.6283313410067066 39.416249938253038 6.9571402603290835 -1 0 0 I I #
point $-1 5.4947588770749611 39.416249938253038 6.9571402603290835 #
point $-1 -21.292986207337009 34.532760090241609 7.4092780318262834 #
point $-1 -5.2203391566898318 34.532760090241609 7.4092780318262834 #
straight-curve $-1 -11.154553685000728 -39.416249938253038 51.835401766355083 0 0 -1 I I #
point $-1 -11.154553685000728 -39.416249938253038 12.22821580011345 #
straight-curve $-1 -1.4494870146080387 -39.416249938253038 7.4407013592638016 1 0 0 I I #
point $-1 -11.154553685000728 -39.416249938253038 7.4407013592638034 #
point $-1 -6.4370795959809328 -35.403235553683658 8.1603148426028707 #
point $-1 0.63913153754876362 -35.403235553683658 8.1603148426028707 #
straight-curve $-1 5.3566056265685731 -81.292583692048979 12.228215800113453 0 -1 0 I I #
straight-curve $-1 5.3566056265685731 -39.416249938253038 51.835401766355083 0 0 -1 I I #
point $-1 5.3566056265685731 -39.416249938253038 12.22821580011345 #
point $-1 10.074079715588354 -35.403235553683658 8.1603148426028707 #
point $-1 17.150290849118051 -35.403235553683658 8.1603148426028707 #
End-of-ACIS-data 