500 0 14 0           
7 Unknown 11 ACIS 5.0 NT 24 Thu Mar 25 23:49:38 1999 
-1 9.9999999999999995e-007 1e-010 
body $-1 $14 $-1 $15 #
body $-1 $16 $-1 $17 #
body $-1 $18 $-1 $19 #
body $-1 $20 $-1 $21 #
body $-1 $22 $-1 $23 #
body $-1 $24 $-1 $25 #
body $-1 $26 $-1 $27 #
body $-1 $28 $-1 $29 #
body $-1 $30 $-1 $31 #
body $-1 $32 $-1 $33 #
body $-1 $34 $-1 $35 #
body $-1 $36 $-1 $37 #
body $-1 $38 $-1 $39 #
body $-1 $40 $-1 $41 #
lump $-1 $-1 $42 $0 #
transform $-1 1 0 0 0 1 0 0 0 1 71.907712027344587 43.575410744681164 12.87660236266745 1 rotate no_reflect no_shear #
lump $-1 $-1 $43 $1 #
transform $-1 1 0 0 0 1 0 0 0 1 71.907712027344587 43.575410744681164 12.87660236266745 1 rotate no_reflect no_shear #
lump $-1 $-1 $44 $2 #
transform $-1 1 0 0 0 1 0 0 0 1 71.907712027344587 43.575410744681164 12.87660236266745 1 rotate no_reflect no_shear #
lump $-1 $-1 $45 $3 #
transform $-1 1 0 0 0 1 0 0 0 1 71.907712027344587 43.575410744681164 12.87660236266745 1 rotate no_reflect no_shear #
lump $-1 $-1 $46 $4 #
transform $-1 1 0 0 0 1 0 0 0 1 71.907712027344587 43.575410744681164 12.87660236266745 1 rotate no_reflect no_shear #
lump $-1 $-1 $47 $5 #
transform $-1 1 0 0 0 1 0 0 0 1 71.907712027344587 43.575410744681164 12.87660236266745 1 rotate no_reflect no_shear #
lump $-1 $-1 $48 $6 #
transform $-1 1 0 0 0 1 0 0 0 1 71.907712027344587 43.575410744681164 12.87660236266745 1 rotate no_reflect no_shear #
lump $-1 $-1 $49 $7 #
transform $-1 1 0 0 0 1 0 0 0 1 71.907712027344587 43.575410744681164 12.87660236266745 1 rotate no_reflect no_shear #
lump $-1 $-1 $50 $8 #
transform $-1 1 0 0 0 1 0 0 0 1 71.907712027344587 43.575410744681164 12.87660236266745 1 rotate no_reflect no_shear #
lump $-1 $-1 $51 $9 #
transform $-1 1 0 0 0 1 0 0 0 1 71.907712027344587 43.575410744681164 12.87660236266745 1 rotate no_reflect no_shear #
lump $-1 $-1 $52 $10 #
transform $-1 1 0 0 0 1 0 0 0 1 71.907712027344587 43.575410744681164 12.87660236266745 1 rotate no_reflect no_shear #
lump $-1 $-1 $53 $11 #
transform $-1 1 0 0 0 1 0 0 0 1 71.907712027344587 43.575410744681164 12.87660236266745 1 rotate no_reflect no_shear #
lump $-1 $-1 $54 $12 #
transform $-1 1 0 0 0 1 0 0 0 1 71.907712027344587 43.575410744681164 12.87660236266745 1 rotate no_reflect no_shear #
lump $-1 $-1 $55 $13 #
transform $-1 1 0 0 0 1 0 0 0 1 71.907712027344587 43.575410744681164 12.87660236266745 1 rotate no_reflect no_shear #
shell $-1 $-1 $-1 $56 $-1 $14 #
shell $-1 $-1 $-1 $57 $-1 $16 #
shell $-1 $-1 $-1 $58 $-1 $18 #
shell $-1 $-1 $-1 $59 $-1 $20 #
shell $-1 $-1 $-1 $60 $-1 $22 #
shell $-1 $-1 $-1 $61 $-1 $24 #
shell $-1 $-1 $-1 $62 $-1 $26 #
shell $-1 $-1 $-1 $63 $-1 $28 #
shell $-1 $-1 $-1 $64 $-1 $30 #
shell $-1 $-1 $-1 $65 $-1 $32 #
shell $-1 $-1 $-1 $66 $-1 $34 #
shell $-1 $-1 $-1 $67 $-1 $36 #
shell $-1 $-1 $-1 $68 $-1 $38 #
shell $-1 $-1 $-1 $69 $-1 $40 #
face $-1 $70 $71 $42 $-1 $72 forward single #
face $-1 $73 $74 $43 $-1 $75 forward single #
face $-1 $76 $77 $44 $-1 $78 reversed single #
face $-1 $79 $80 $45 $-1 $81 forward single #
face $-1 $82 $83 $46 $-1 $84 forward single #
face $-1 $85 $86 $47 $-1 $87 reversed single #
face $-1 $88 $89 $48 $-1 $90 forward single #
face $-1 $91 $92 $49 $-1 $93 forward single #
face $-1 $94 $95 $50 $-1 $96 reversed single #
face $-1 $97 $98 $51 $-1 $99 forward single #
face $-1 $100 $101 $52 $-1 $102 forward single #
face $-1 $103 $104 $53 $-1 $105 reversed single #
face $-1 $106 $107 $54 $-1 $108 forward single #
face $-1 $109 $110 $55 $-1 $111 forward single #
face $-1 $112 $113 $42 $-1 $114 reversed single #
loop $-1 $-1 $115 $56 #
plane-surface $-1 0 0 12.87660236266745 0 0 1 1 0 0 forward_v I I I I #
face $-1 $116 $117 $43 $-1 $118 reversed single #
loop $-1 $-1 $119 $57 #
plane-surface $-1 0 -43.575410744681164 0 0 1 0 0 0 1 forward_v I I I I #
face $-1 $120 $121 $44 $-1 $122 reversed single #
loop $-1 $-1 $123 $58 #
plane-surface $-1 -60.970586847076135 121.96330051743138 154.95957967275305 1 0 0 0 -0.85716730853699208 -0.51503806187062418 forward_v I I I I #
face $-1 $124 $125 $45 $-1 $126 forward single #
loop $-1 $127 $128 $59 #
cone-surface $-1 -55.565179966567108 40.342193416190767 8.7964585077758901 0 -0.85716730853699208 -0.51503806187062418 1 0 0 1 I I 0 1 1 forward I I I I #
face $-1 $129 $130 $46 $-1 $131 forward single #
loop $-1 $132 $133 $60 #
cone-surface $-1 -47.457069645803564 40.342193416190767 8.7964585077758901 0 -0.85716730853699208 -0.51503806187062418 1 0 0 1 I I 0 1 1 forward I I I I #
face $-1 $134 $135 $47 $-1 $136 reversed single #
loop $-1 $-1 $137 $61 #
plane-surface $-1 -25.016730833403841 121.96330051743138 154.95957967275305 1 0 0 0 -0.85716730853699208 -0.51503806187062418 forward_v I I I I #
face $-1 $138 $139 $48 $-1 $140 forward single #
loop $-1 $141 $142 $62 #
cone-surface $-1 -19.611323952894814 40.342193416190767 8.7964585077758901 0 -0.85716730853699208 -0.51503806187062418 1 0 0 1 I I 0 1 1 forward I I I I #
face $-1 $143 $144 $49 $-1 $145 forward single #
loop $-1 $146 $147 $63 #
cone-surface $-1 -11.503213632131271 40.342193416190767 8.7964585077758901 0 -0.85716730853699208 -0.51503806187062418 1 0 0 1 I I 0 1 1 forward I I I I #
face $-1 $148 $149 $50 $-1 $150 reversed single #
loop $-1 $-1 $151 $64 #
plane-surface $-1 10.937125180268453 121.96330051743138 154.95957967275305 1 0 0 0 -0.85716730853699208 -0.51503806187062418 forward_v I I I I #
face $-1 $152 $153 $51 $-1 $154 forward single #
loop $-1 $155 $156 $65 #
cone-surface $-1 16.342532060777472 40.342193416190767 8.7964585077758901 0 -0.85716730853699208 -0.51503806187062418 1 0 0 1 I I 0 1 1 forward I I I I #
face $-1 $157 $158 $52 $-1 $159 forward single #
loop $-1 $160 $161 $66 #
cone-surface $-1 24.45064238154103 40.342193416190767 8.7964585077758901 0 -0.85716730853699208 -0.51503806187062418 1 0 0 1 I I 0 1 1 forward I I I I #
face $-1 $162 $163 $53 $-1 $164 reversed single #
loop $-1 $-1 $165 $67 #
plane-surface $-1 46.890981193940746 121.96330051743138 154.95957967275305 1 0 0 0 -0.85716730853699208 -0.51503806187062418 forward_v I I I I #
face $-1 $166 $167 $54 $-1 $168 forward single #
loop $-1 $169 $170 $68 #
cone-surface $-1 52.296388074449766 40.342193416190767 8.7964585077758901 0 -0.85716730853699208 -0.51503806187062418 1 0 0 1 I I 0 1 1 forward I I I I #
face $-1 $171 $172 $55 $-1 $173 forward single #
loop $-1 $174 $175 $69 #
cone-surface $-1 60.404498395213324 40.342193416190767 8.7964585077758901 0 -0.85716730853699208 -0.51503806187062418 1 0 0 1 I I 0 1 1 forward I I I I #
face $-1 $176 $177 $42 $-1 $178 reversed single #
loop $-1 $-1 $179 $70 #
plane-surface $-1 0 0 -12.87660236266745 0 0 1 1 0 0 forward_v I I I I #
coedge $-1 $180 $181 $182 $183 forward $71 $-1 #
face $-1 $184 $185 $43 $-1 $186 reversed single #
loop $-1 $-1 $187 $73 #
plane-surface $-1 0 0 -12.87660236266745 0 0 1 1 0 0 forward_v I I I I #
coedge $-1 $188 $189 $190 $191 forward $74 $-1 #
face $-1 $192 $193 $44 $-1 $194 reversed single #
loop $-1 $-1 $195 $76 #
plane-surface $-1 -51.511124806185336 -1.310579445632726 80.889162400524 0 0.85716730853699208 0.51503806187062418 1 0 0 forward_v I I I I #
coedge $-1 $196 $197 $198 $199 reversed $77 $-1 #
face $-1 $-1 $200 $45 $-1 $201 forward single #
loop $-1 $202 $203 $79 #
cone-surface $-1 -55.565179966567108 38.690353769669315 7.8039331494330266 0 -0.85716730853699208 -0.51503806187062418 0.5 0 0 1 I I -0.70710678118654746 0.70710678118654746 0.5 forward I I I I #
loop $-1 $-1 $204 $59 #
coedge $-1 $128 $128 $205 $206 reversed $80 $-1 #
face $-1 $-1 $207 $46 $-1 $208 forward single #
loop $-1 $209 $210 $82 #
cone-surface $-1 -47.457069645803564 38.690353769669315 7.8039331494330266 0 -0.85716730853699208 -0.51503806187062418 0.5 0 0 1 I I -0.70710678118654746 0.70710678118654746 0.5 forward I I I I #
loop $-1 $-1 $211 $60 #
coedge $-1 $133 $133 $212 $213 reversed $83 $-1 #
face $-1 $214 $215 $47 $-1 $216 reversed single #
loop $-1 $-1 $217 $85 #
plane-surface $-1 -15.557268792513042 -1.310579445632726 80.889162400524 0 0.85716730853699208 0.51503806187062418 1 0 0 forward_v I I I I #
coedge $-1 $218 $219 $220 $221 reversed $86 $-1 #
face $-1 $-1 $222 $48 $-1 $223 forward single #
loop $-1 $224 $225 $88 #
cone-surface $-1 -19.611323952894814 38.690353769669315 7.8039331494330266 0 -0.85716730853699208 -0.51503806187062418 0.5 0 0 1 I I -0.70710678118654746 0.70710678118654746 0.5 forward I I I I #
loop $-1 $-1 $226 $62 #
coedge $-1 $142 $142 $227 $228 reversed $89 $-1 #
face $-1 $-1 $229 $49 $-1 $230 forward single #
loop $-1 $231 $232 $91 #
cone-surface $-1 -11.503213632131271 38.690353769669315 7.8039331494330266 0 -0.85716730853699208 -0.51503806187062418 0.5 0 0 1 I I -0.70710678118654746 0.70710678118654746 0.5 forward I I I I #
loop $-1 $-1 $233 $63 #
coedge $-1 $147 $147 $234 $235 reversed $92 $-1 #
face $-1 $236 $237 $50 $-1 $238 reversed single #
loop $-1 $-1 $239 $94 #
plane-surface $-1 20.396587221159251 -1.310579445632726 80.889162400524 0 0.85716730853699208 0.51503806187062418 1 0 0 forward_v I I I I #
coedge $-1 $240 $241 $242 $243 reversed $95 $-1 #
face $-1 $-1 $244 $51 $-1 $245 forward single #
loop $-1 $246 $247 $97 #
cone-surface $-1 16.342532060777472 38.690353769669315 7.8039331494330266 0 -0.85716730853699208 -0.51503806187062418 0.5 0 0 1 I I -0.70710678118654746 0.70710678118654746 0.5 forward I I I I #
loop $-1 $-1 $248 $65 #
coedge $-1 $156 $156 $249 $250 reversed $98 $-1 #
face $-1 $-1 $251 $52 $-1 $252 forward single #
loop $-1 $253 $254 $100 #
cone-surface $-1 24.45064238154103 38.690353769669315 7.8039331494330266 0 -0.85716730853699208 -0.51503806187062418 0.5 0 0 1 I I -0.70710678118654746 0.70710678118654746 0.5 forward I I I I #
loop $-1 $-1 $255 $66 #
coedge $-1 $161 $161 $256 $257 reversed $101 $-1 #
face $-1 $258 $259 $53 $-1 $260 reversed single #
loop $-1 $-1 $261 $103 #
plane-surface $-1 56.350443234831545 -1.310579445632726 80.889162400524 0 0.85716730853699208 0.51503806187062418 1 0 0 forward_v I I I I #
coedge $-1 $262 $263 $264 $265 reversed $104 $-1 #
face $-1 $-1 $266 $54 $-1 $267 forward single #
loop $-1 $268 $269 $106 #
cone-surface $-1 52.296388074449766 38.690353769669315 7.8039331494330266 0 -0.85716730853699208 -0.51503806187062418 0.5 0 0 1 I I -0.70710678118654746 0.70710678118654746 0.5 forward I I I I #
loop $-1 $-1 $270 $68 #
coedge $-1 $170 $170 $271 $272 reversed $107 $-1 #
face $-1 $-1 $273 $55 $-1 $274 forward single #
loop $-1 $275 $276 $109 #
cone-surface $-1 60.404498395213324 38.690353769669315 7.8039331494330266 0 -0.85716730853699208 -0.51503806187062418 0.5 0 0 1 I I -0.70710678118654746 0.70710678118654746 0.5 forward I I I I #
loop $-1 $-1 $277 $69 #
coedge $-1 $175 $175 $278 $279 reversed $110 $-1 #
face $-1 $280 $281 $42 $-1 $282 reversed single #
loop $-1 $-1 $283 $112 #
plane-surface $-1 0 -43.575410744681164 0 0 1 0 0 0 1 forward_v I I I I #
coedge $-1 $284 $285 $286 $287 forward $113 $-1 #
coedge $-1 $288 $115 $289 $290 forward $71 $-1 #
coedge $-1 $115 $288 $291 $292 forward $71 $-1 #
coedge $-1 $293 $294 $115 $183 reversed $295 $-1 #
edge $-1 $296 -43.575410744681164 $297 43.575410744681164 $182 $298 forward 7 unknown #
face $-1 $299 $300 $43 $-1 $301 forward single #
loop $-1 $-1 $302 $116 #
plane-surface $-1 71.907712027344587 0 0 -1 0 0 0 0 1 forward_v I I I I #
coedge $-1 $303 $304 $305 $306 forward $117 $-1 #
coedge $-1 $305 $119 $302 $307 reversed $74 $-1 #
coedge $-1 $119 $305 $308 $309 reversed $74 $-1 #
coedge $-1 $310 $311 $119 $191 reversed $300 $-1 #
edge $-1 $312 -71.907712027344587 $313 71.907712027344587 $190 $314 forward 7 unknown #
face $-1 $315 $316 $44 $-1 $317 forward single #
loop $-1 $-1 $318 $120 #
plane-surface $-1 -42.051662765294537 121.96330051743138 154.95957967275305 -1 0 0 0 0.85716730853699208 0.51503806187062418 forward_v I I I I #
coedge $-1 $319 $320 $321 $322 reversed $121 $-1 #
coedge $-1 $197 $123 $323 $324 reversed $77 $-1 #
coedge $-1 $123 $196 $319 $325 reversed $77 $-1 #
coedge $-1 $321 $326 $123 $199 forward $316 $-1 #
edge $-1 $327 17.406239514034525 $328 21.426162186509359 $198 $329 forward 7 unknown #
loop $-1 $-1 $205 $124 #
plane-surface $-1 -51.511124806185336 -1.310579445632726 80.889162400524 0 0.85716730853699208 0.51503806187062418 1 0 0 forward_v I I I I #
loop $-1 $-1 $330 $79 #
coedge $-1 $203 $203 $204 $331 reversed $125 $-1 #
coedge $-1 $204 $204 $203 $331 forward $127 $-1 #
coedge $-1 $205 $205 $128 $206 forward $200 $-1 #
edge $-1 $332 -1.5488425537767576e-015 $332 6.2831853071795987 $205 $333 forward 7 unknown #
loop $-1 $-1 $212 $129 #
plane-surface $-1 -51.511124806185336 -1.310579445632726 80.889162400524 0 0.85716730853699208 0.51503806187062418 1 0 0 forward_v I I I I #
loop $-1 $-1 $334 $82 #
coedge $-1 $210 $210 $211 $335 reversed $130 $-1 #
coedge $-1 $211 $211 $210 $335 forward $132 $-1 #
coedge $-1 $212 $212 $133 $213 forward $207 $-1 #
edge $-1 $336 -1.5488425537767576e-015 $336 6.2831853071795987 $212 $337 forward 7 unknown #
face $-1 $338 $339 $47 $-1 $340 forward single #
loop $-1 $-1 $341 $134 #
plane-surface $-1 -6.0978067516222438 121.96330051743138 154.95957967275305 -1 0 0 0 0.85716730853699208 0.51503806187062418 forward_v I I I I #
coedge $-1 $342 $343 $344 $345 reversed $135 $-1 #
coedge $-1 $219 $137 $346 $347 reversed $86 $-1 #
coedge $-1 $137 $218 $342 $348 reversed $86 $-1 #
coedge $-1 $344 $349 $137 $221 forward $339 $-1 #
edge $-1 $350 17.406239514034525 $351 21.426162186509359 $220 $352 forward 7 unknown #
loop $-1 $-1 $227 $138 #
plane-surface $-1 -15.557268792513042 -1.310579445632726 80.889162400524 0 0.85716730853699208 0.51503806187062418 1 0 0 forward_v I I I I #
loop $-1 $-1 $353 $88 #
coedge $-1 $225 $225 $226 $354 reversed $139 $-1 #
coedge $-1 $226 $226 $225 $354 forward $141 $-1 #
coedge $-1 $227 $227 $142 $228 forward $222 $-1 #
edge $-1 $355 -1.5488425537767576e-015 $355 6.2831853071795987 $227 $356 forward 7 unknown #
loop $-1 $-1 $234 $143 #
plane-surface $-1 -15.557268792513042 -1.310579445632726 80.889162400524 0 0.85716730853699208 0.51503806187062418 1 0 0 forward_v I I I I #
loop $-1 $-1 $357 $91 #
coedge $-1 $232 $232 $233 $358 reversed $144 $-1 #
coedge $-1 $233 $233 $232 $358 forward $146 $-1 #
coedge $-1 $234 $234 $147 $235 forward $229 $-1 #
edge $-1 $359 -1.5488425537767576e-015 $359 6.2831853071795987 $234 $360 forward 7 unknown #
face $-1 $361 $362 $50 $-1 $363 forward single #
loop $-1 $-1 $364 $148 #
plane-surface $-1 29.85604926205005 121.96330051743138 154.95957967275305 -1 0 0 0 0.85716730853699208 0.51503806187062418 forward_v I I I I #
coedge $-1 $365 $366 $367 $368 reversed $149 $-1 #
coedge $-1 $241 $151 $369 $370 reversed $95 $-1 #
coedge $-1 $151 $240 $365 $371 reversed $95 $-1 #
coedge $-1 $367 $372 $151 $243 forward $362 $-1 #
edge $-1 $373 17.406239514034525 $374 21.426162186509359 $242 $375 forward 7 unknown #
loop $-1 $-1 $249 $152 #
plane-surface $-1 20.396587221159251 -1.310579445632726 80.889162400524 0 0.85716730853699208 0.51503806187062418 1 0 0 forward_v I I I I #
loop $-1 $-1 $376 $97 #
coedge $-1 $247 $247 $248 $377 reversed $153 $-1 #
coedge $-1 $248 $248 $247 $377 forward $155 $-1 #
coedge $-1 $249 $249 $156 $250 forward $244 $-1 #
edge $-1 $378 -1.5488425537767576e-015 $378 6.2831853071795987 $249 $379 forward 7 unknown #
loop $-1 $-1 $256 $157 #
plane-surface $-1 20.396587221159251 -1.310579445632726 80.889162400524 0 0.85716730853699208 0.51503806187062418 1 0 0 forward_v I I I I #
loop $-1 $-1 $380 $100 #
coedge $-1 $254 $254 $255 $381 reversed $158 $-1 #
coedge $-1 $255 $255 $254 $381 forward $160 $-1 #
coedge $-1 $256 $256 $161 $257 forward $251 $-1 #
edge $-1 $382 -1.5488425537767576e-015 $382 6.2831853071795987 $256 $383 forward 7 unknown #
face $-1 $384 $385 $53 $-1 $386 forward single #
loop $-1 $-1 $387 $162 #
plane-surface $-1 65.809905275722343 121.96330051743138 154.95957967275305 -1 0 0 0 0.85716730853699208 0.51503806187062418 forward_v I I I I #
coedge $-1 $388 $389 $390 $391 reversed $163 $-1 #
coedge $-1 $263 $165 $392 $393 reversed $104 $-1 #
coedge $-1 $165 $262 $388 $394 reversed $104 $-1 #
coedge $-1 $390 $395 $165 $265 forward $385 $-1 #
edge $-1 $396 17.406239514034525 $397 21.426162186509359 $264 $398 forward 7 unknown #
loop $-1 $-1 $271 $166 #
plane-surface $-1 56.350443234831545 -1.310579445632726 80.889162400524 0 0.85716730853699208 0.51503806187062418 1 0 0 forward_v I I I I #
loop $-1 $-1 $399 $106 #
coedge $-1 $269 $269 $270 $400 reversed $167 $-1 #
coedge $-1 $270 $270 $269 $400 forward $169 $-1 #
coedge $-1 $271 $271 $170 $272 forward $266 $-1 #
edge $-1 $401 -1.5488425537767576e-015 $401 6.2831853071795987 $271 $402 forward 7 unknown #
loop $-1 $-1 $278 $171 #
plane-surface $-1 56.350443234831545 -1.310579445632726 80.889162400524 0 0.85716730853699208 0.51503806187062418 1 0 0 forward_v I I I I #
loop $-1 $-1 $403 $109 #
coedge $-1 $276 $276 $277 $404 reversed $172 $-1 #
coedge $-1 $277 $277 $276 $404 forward $174 $-1 #
coedge $-1 $278 $278 $175 $279 forward $273 $-1 #
edge $-1 $405 -1.5488425537767576e-015 $405 6.2831853071795987 $278 $406 forward 7 unknown #
face $-1 $407 $408 $42 $-1 $409 reversed single #
loop $-1 $-1 $410 $176 #
plane-surface $-1 -71.907712027344587 0 0 1 0 0 0 0 -1 forward_v I I I I #
coedge $-1 $291 $411 $293 $412 reversed $177 $-1 #
coedge $-1 $413 $179 $411 $414 forward $113 $-1 #
coedge $-1 $179 $413 $415 $416 forward $113 $-1 #
coedge $-1 $294 $293 $179 $287 reversed $295 $-1 #
edge $-1 $417 -43.575410744681164 $418 43.575410744681164 $286 $419 forward 7 unknown #
coedge $-1 $181 $180 $420 $421 forward $71 $-1 #
coedge $-1 $422 $423 $180 $290 reversed $408 $-1 #
edge $-1 $297 -71.907712027344587 $424 71.907712027344587 $289 $425 forward 7 unknown #
coedge $-1 $426 $283 $181 $292 reversed $177 $-1 #
edge $-1 $427 -71.907712027344587 $296 71.907712027344587 $291 $428 forward 7 unknown #
coedge $-1 $286 $182 $283 $412 forward $295 $-1 #
coedge $-1 $182 $286 $422 $429 reversed $295 $-1 #
loop $-1 $-1 $293 $407 #
vertex $-1 $183 $430 #
vertex $-1 $183 $431 #
straight-curve $-1 71.907712027344587 0 12.87660236266745 0 1 0 I I #
face $-1 $432 $433 $43 $-1 $434 reversed single #
loop $-1 $-1 $311 $184 #
plane-surface $-1 0 -50.074925596782208 -9.3402229363652438 0 0 1 1 0 0 forward_v I I I I #
coedge $-1 $435 $436 $188 $307 forward $185 $-1 #
coedge $-1 $437 $187 $436 $438 forward $117 $-1 #
coedge $-1 $187 $437 $439 $440 forward $117 $-1 #
coedge $-1 $189 $188 $187 $306 reversed $74 $-1 #
edge $-1 $441 -71.907712027344587 $442 71.907712027344587 $187 $443 forward 7 unknown #
edge $-1 $442 -12.87660236266745 $313 -9.3402229363652438 $302 $444 forward 7 unknown #
coedge $-1 $439 $445 $189 $309 forward $446 $-1 #
edge $-1 $312 9.3402229363652438 $441 12.87660236266745 $308 $447 forward 7 unknown #
coedge $-1 $448 $190 $445 $449 forward $300 $-1 #
coedge $-1 $190 $448 $435 $450 forward $300 $-1 #
vertex $-1 $309 $451 #
vertex $-1 $450 $452 #
straight-curve $-1 0 -43.575410744681164 -9.3402229363652438 1 0 0 I I #
face $-1 $-1 $453 $44 $-1 $454 reversed single #
loop $-1 $-1 $198 $192 #
plane-surface $-1 0 0 12.87660236266745 0 0 1 1 0 0 forward_v I I I I #
coedge $-1 $455 $456 $457 $458 reversed $193 $-1 #
coedge $-1 $459 $195 $197 $325 forward $121 $-1 #
coedge $-1 $195 $459 $455 $460 forward $121 $-1 #
coedge $-1 $457 $198 $195 $322 forward $316 $-1 #
edge $-1 $328 -35.215024443983467 $461 -16.296100362201869 $321 $462 forward 7 unknown #
coedge $-1 $463 $464 $196 $324 forward $453 $-1 #
edge $-1 $465 -71.29346252867704 $327 -64.60318747370907 $323 $466 forward 7 unknown #
edge $-1 $328 79.345723245022 $465 87.150821489362301 $197 $467 forward 7 unknown #
coedge $-1 $198 $457 $463 $468 forward $316 $-1 #
vertex $-1 $324 $469 #
vertex $-1 $199 $470 #
straight-curve $-1 -60.970586847076135 60.981650258715689 12.876602362667455 0 -1 0 I I #
coedge $-1 $330 $330 $-1 $471 reversed $202 $-1 #
edge $-1 $472 0 $472 6.2831853071796004 $203 $473 forward 7 unknown #
vertex $-1 $206 $474 #
ellipse-curve $-1 -55.565179966567108 41.565449408443754 9.5314648351834599 0 0.85716730853699208 0.51503806187062418 1 0 0 1 I I #
coedge $-1 $334 $334 $-1 $475 reversed $209 $-1 #
edge $-1 $476 0 $476 6.2831853071796004 $210 $477 forward 7 unknown #
vertex $-1 $213 $478 #
ellipse-curve $-1 -47.457069645803564 41.565449408443754 9.5314648351834599 0 0.85716730853699208 0.51503806187062418 1 0 0 1 I I #
face $-1 $-1 $479 $47 $-1 $480 reversed single #
loop $-1 $-1 $220 $214 #
plane-surface $-1 0 0 12.87660236266745 0 0 1 1 0 0 forward_v I I I I #
coedge $-1 $481 $482 $483 $484 reversed $215 $-1 #
coedge $-1 $485 $217 $219 $348 forward $135 $-1 #
coedge $-1 $217 $485 $481 $486 forward $135 $-1 #
coedge $-1 $483 $220 $217 $345 forward $339 $-1 #
edge $-1 $351 -17.23809643714732 $487 1.6808276446342774 $344 $488 forward 7 unknown #
coedge $-1 $489 $490 $218 $347 forward $479 $-1 #
edge $-1 $491 -71.29346252867704 $350 -64.60318747370907 $346 $492 forward 7 unknown #
edge $-1 $351 79.345723245022 $491 87.150821489362301 $219 $493 forward 7 unknown #
coedge $-1 $220 $483 $489 $494 forward $339 $-1 #
vertex $-1 $221 $495 #
vertex $-1 $221 $496 #
straight-curve $-1 -25.016730833403841 60.981650258715689 12.876602362667455 0 -1 0 I I #
coedge $-1 $353 $353 $-1 $497 reversed $224 $-1 #
edge $-1 $498 0 $498 6.2831853071796004 $225 $499 forward 7 unknown #
vertex $-1 $228 $500 #
ellipse-curve $-1 -19.611323952894814 41.565449408443754 9.5314648351834599 0 0.85716730853699208 0.51503806187062418 1 0 0 1 I I #
coedge $-1 $357 $357 $-1 $501 reversed $231 $-1 #
edge $-1 $502 0 $502 6.2831853071796004 $232 $503 forward 7 unknown #
vertex $-1 $235 $504 #
ellipse-curve $-1 -11.503213632131271 41.565449408443754 9.5314648351834599 0 0.85716730853699208 0.51503806187062418 1 0 0 1 I I #
face $-1 $-1 $505 $50 $-1 $506 reversed single #
loop $-1 $-1 $242 $236 #
plane-surface $-1 0 0 12.87660236266745 0 0 1 1 0 0 forward_v I I I I #
coedge $-1 $507 $508 $509 $510 reversed $237 $-1 #
coedge $-1 $511 $239 $241 $371 forward $149 $-1 #
coedge $-1 $239 $511 $507 $512 forward $149 $-1 #
coedge $-1 $509 $242 $239 $368 forward $362 $-1 #
edge $-1 $374 0.73883156968882702 $513 19.657755651470424 $367 $514 forward 7 unknown #
coedge $-1 $515 $516 $240 $370 forward $505 $-1 #
edge $-1 $517 -71.29346252867704 $373 -64.60318747370907 $369 $518 forward 7 unknown #
edge $-1 $374 79.345723245022 $517 87.150821489362301 $241 $519 forward 7 unknown #
coedge $-1 $242 $509 $515 $520 forward $362 $-1 #
vertex $-1 $243 $521 #
vertex $-1 $243 $522 #
straight-curve $-1 10.937125180268453 60.981650258715689 12.876602362667455 0 -1 0 I I #
coedge $-1 $376 $376 $-1 $523 reversed $246 $-1 #
edge $-1 $524 0 $524 6.2831853071796004 $247 $525 forward 7 unknown #
vertex $-1 $250 $526 #
ellipse-curve $-1 16.342532060777472 41.565449408443754 9.5314648351834599 0 0.85716730853699208 0.51503806187062418 1 0 0 1 I I #
coedge $-1 $380 $380 $-1 $527 reversed $253 $-1 #
edge $-1 $528 0 $528 6.2831853071796004 $254 $529 forward 7 unknown #
vertex $-1 $257 $530 #
ellipse-curve $-1 24.45064238154103 41.565449408443754 9.5314648351834599 0 0.85716730853699208 0.51503806187062418 1 0 0 1 I I #
face $-1 $-1 $531 $53 $-1 $532 reversed single #
loop $-1 $-1 $264 $258 #
plane-surface $-1 0 0 12.87660236266745 0 0 1 1 0 0 forward_v I I I I #
coedge $-1 $533 $534 $535 $536 reversed $259 $-1 #
coedge $-1 $537 $261 $263 $394 forward $163 $-1 #
coedge $-1 $261 $537 $533 $538 forward $163 $-1 #
coedge $-1 $535 $264 $261 $391 forward $385 $-1 #
edge $-1 $397 18.715759576524974 $539 37.634683658306571 $390 $540 forward 7 unknown #
coedge $-1 $541 $542 $262 $393 forward $531 $-1 #
edge $-1 $543 -71.29346252867704 $396 -64.60318747370907 $392 $544 forward 7 unknown #
edge $-1 $397 79.345723245022 $543 87.150821489362301 $263 $545 forward 7 unknown #
coedge $-1 $264 $535 $541 $546 forward $385 $-1 #
vertex $-1 $265 $547 #
vertex $-1 $265 $548 #
straight-curve $-1 46.890981193940746 60.981650258715689 12.876602362667455 0 -1 0 I I #
coedge $-1 $399 $399 $-1 $549 reversed $268 $-1 #
edge $-1 $550 0 $550 6.2831853071796004 $269 $551 forward 7 unknown #
vertex $-1 $272 $552 #
ellipse-curve $-1 52.296388074449766 41.565449408443754 9.5314648351834599 0 0.85716730853699208 0.51503806187062418 1 0 0 1 I I #
coedge $-1 $403 $403 $-1 $553 reversed $275 $-1 #
edge $-1 $554 0 $554 6.2831853071796004 $276 $555 forward 7 unknown #
vertex $-1 $279 $556 #
ellipse-curve $-1 60.404498395213324 41.565449408443754 9.5314648351834599 0 0.85716730853699208 0.51503806187062418 1 0 0 1 I I #
face $-1 $-1 $295 $42 $-1 $557 reversed single #
loop $-1 $-1 $422 $280 #
plane-surface $-1 0 43.575410744681164 0 0 -1 0 0 0 -1 forward_v I I I I #
coedge $-1 $558 $420 $423 $559 forward $281 $-1 #
coedge $-1 $283 $426 $284 $414 reversed $177 $-1 #
edge $-1 $296 -12.87660236266745 $418 12.87660236266745 $293 $560 forward 7 unknown #
coedge $-1 $285 $284 $558 $561 forward $113 $-1 #
edge $-1 $418 -71.907712027344587 $562 71.907712027344587 $411 $563 forward 7 unknown #
coedge $-1 $423 $422 $285 $416 reversed $408 $-1 #
edge $-1 $564 -71.907712027344587 $417 71.907712027344587 $415 $565 forward 7 unknown #
vertex $-1 $287 $566 #
vertex $-1 $412 $567 #
straight-curve $-1 71.907712027344587 0 -12.87660236266745 0 -1 0 I I #
coedge $-1 $410 $568 $288 $421 reversed $281 $-1 #
edge $-1 $424 -43.575410744681164 $427 43.575410744681164 $420 $569 forward 7 unknown #
coedge $-1 $415 $289 $294 $429 forward $408 $-1 #
coedge $-1 $289 $415 $410 $559 reversed $408 $-1 #
vertex $-1 $290 $570 #
straight-curve $-1 0 43.575410744681164 12.87660236266745 -1 0 0 I I #
coedge $-1 $411 $291 $568 $571 forward $177 $-1 #
vertex $-1 $421 $572 #
straight-curve $-1 0 -43.575410744681164 12.87660236266745 1 0 0 I I #
edge $-1 $297 -12.87660236266745 $417 12.87660236266745 $294 $573 forward 7 unknown #
point $-1 71.907712027344587 -43.575410744681164 12.87660236266745 #
point $-1 71.907712027344587 43.575410744681164 12.87660236266745 #
face $-1 $-1 $446 $43 $-1 $574 reversed single #
loop $-1 $-1 $575 $299 #
plane-surface $-1 0 -56.574440448883252 -11.108412649516346 0 1 0 0 0 1 forward_v I I I I #
coedge $-1 $576 $302 $311 $450 reversed $185 $-1 #
coedge $-1 $302 $576 $303 $438 reversed $185 $-1 #
coedge $-1 $304 $303 $577 $578 forward $117 $-1 #
edge $-1 $442 43.575410744681164 $579 56.574440448883252 $436 $580 forward 7 unknown #
coedge $-1 $581 $308 $304 $440 reversed $446 $-1 #
edge $-1 $582 -56.574440448883252 $441 -43.575410744681164 $439 $583 forward 7 unknown #
vertex $-1 $309 $584 #
vertex $-1 $438 $585 #
straight-curve $-1 0 -43.575410744681164 -12.87660236266745 1 0 0 I I #
straight-curve $-1 71.907712027344587 -43.575410744681164 0 0 0 1 I I #
coedge $-1 $308 $581 $310 $449 reversed $446 $-1 #
loop $-1 $-1 $308 $432 #
straight-curve $-1 -71.907712027344587 -43.575410744681164 0 0 0 -1 I I #
coedge $-1 $311 $310 $586 $587 forward $300 $-1 #
edge $-1 $312 -6.4995148521010435 $588 6.4995148521010435 $445 $589 forward 7 unknown #
edge $-1 $590 -6.4995148521010435 $313 6.4995148521010435 $435 $591 forward 7 unknown #
point $-1 -71.907712027344587 -43.575410744681164 -9.3402229363652438 #
point $-1 71.907712027344587 -43.575410744681164 -9.3402229363652438 #
loop $-1 $-1 $323 $315 #
plane-surface $-1 0 43.575410744681164 0 0 -1 0 0 0 -1 forward_v I I I I #
coedge $-1 $456 $318 $320 $460 reversed $193 $-1 #
coedge $-1 $318 $455 $592 $593 reversed $193 $-1 #
coedge $-1 $326 $321 $318 $458 forward $316 $-1 #
edge $-1 $461 -21.426162186509359 $594 -17.406239514034525 $457 $595 forward 7 unknown #
coedge $-1 $320 $319 $464 $596 reversed $121 $-1 #
edge $-1 $597 -87.150821489362301 $461 -79.345723245022 $455 $598 forward 7 unknown #
vertex $-1 $322 $599 #
straight-curve $-1 -25.755562403092668 39.55548807220633 12.876602362667441 1 0 0 I I #
coedge $-1 $592 $323 $326 $468 reversed $453 $-1 #
coedge $-1 $323 $592 $459 $596 forward $453 $-1 #
vertex $-1 $324 $600 #
straight-curve $-1 -60.970586847076135 43.575410744681164 77.479789836376526 0 0 1 I I #
straight-curve $-1 -60.970586847076135 -1.310579445632726 80.889162400524 0 0.51503806187062418 -0.85716730853699208 I I #
edge $-1 $594 42.051662765294537 $327 60.970586847076135 $463 $601 forward 7 unknown #
point $-1 -60.970586847076135 43.575410744681164 12.87660236266745 #
point $-1 -60.970586847076135 39.55548807220633 12.876602362667455 #
edge $-1 $602 1 $602 0 $330 $-1 forward 7 unknown #
vertex $-1 $331 $603 #
ellipse-curve $-1 -55.565179966567108 39.118937423937808 8.0614521803683381 0 0.85716730853699208 0.51503806187062418 1 0 0 1 I I #
point $-1 -54.565179966567108 41.565449408443719 9.5314648351834403 #
edge $-1 $604 1 $604 0 $334 $-1 forward 7 unknown #
vertex $-1 $335 $605 #
ellipse-curve $-1 -47.457069645803564 39.118937423937808 8.0614521803683381 0 0.85716730853699208 0.51503806187062418 1 0 0 1 I I #
point $-1 -46.457069645803564 41.565449408443719 9.5314648351834403 #
loop $-1 $-1 $346 $338 #
plane-surface $-1 0 43.575410744681164 0 0 -1 0 0 0 -1 forward_v I I I I #
coedge $-1 $482 $341 $343 $486 reversed $215 $-1 #
coedge $-1 $341 $481 $606 $607 reversed $215 $-1 #
coedge $-1 $349 $344 $341 $484 forward $339 $-1 #
edge $-1 $487 -21.426162186509359 $608 -17.406239514034525 $483 $609 forward 7 unknown #
coedge $-1 $343 $342 $490 $610 reversed $135 $-1 #
edge $-1 $611 -87.150821489362301 $487 -79.345723245022 $481 $612 forward 7 unknown #
vertex $-1 $345 $613 #
straight-curve $-1 -7.7786343962565212 39.55548807220633 12.876602362667441 1 0 0 I I #
coedge $-1 $606 $346 $349 $494 reversed $479 $-1 #
coedge $-1 $346 $606 $485 $610 forward $479 $-1 #
vertex $-1 $347 $614 #
straight-curve $-1 -25.016730833403841 43.575410744681164 77.479789836376526 0 0 1 I I #
straight-curve $-1 -25.016730833403841 -1.310579445632726 80.889162400524 0 0.51503806187062418 -0.85716730853699208 I I #
edge $-1 $608 6.0978067516222438 $350 25.016730833403841 $489 $615 forward 7 unknown #
point $-1 -25.016730833403841 43.575410744681164 12.87660236266745 #
point $-1 -25.016730833403841 39.55548807220633 12.876602362667455 #
edge $-1 $616 1 $616 0 $353 $-1 forward 7 unknown #
vertex $-1 $354 $617 #
ellipse-curve $-1 -19.611323952894814 39.118937423937808 8.0614521803683381 0 0.85716730853699208 0.51503806187062418 1 0 0 1 I I #
point $-1 -18.611323952894814 41.565449408443719 9.5314648351834403 #
edge $-1 $618 1 $618 0 $357 $-1 forward 7 unknown #
vertex $-1 $358 $619 #
ellipse-curve $-1 -11.503213632131271 39.118937423937808 8.0614521803683381 0 0.85716730853699208 0.51503806187062418 1 0 0 1 I I #
point $-1 -10.503213632131271 41.565449408443719 9.5314648351834403 #
loop $-1 $-1 $369 $361 #
plane-surface $-1 0 43.575410744681164 0 0 -1 0 0 0 -1 forward_v I I I I #
coedge $-1 $508 $364 $366 $512 reversed $237 $-1 #
coedge $-1 $364 $507 $620 $621 reversed $237 $-1 #
coedge $-1 $372 $367 $364 $510 forward $362 $-1 #
edge $-1 $513 -21.426162186509359 $622 -17.406239514034525 $509 $623 forward 7 unknown #
coedge $-1 $366 $365 $516 $624 reversed $149 $-1 #
edge $-1 $625 -87.150821489362301 $513 -79.345723245022 $507 $626 forward 7 unknown #
vertex $-1 $368 $627 #
straight-curve $-1 10.198293610579626 39.55548807220633 12.876602362667441 1 0 0 I I #
coedge $-1 $620 $369 $372 $520 reversed $505 $-1 #
coedge $-1 $369 $620 $511 $624 forward $505 $-1 #
vertex $-1 $370 $628 #
straight-curve $-1 10.937125180268453 43.575410744681164 77.479789836376526 0 0 1 I I #
straight-curve $-1 10.937125180268453 -1.310579445632726 80.889162400524 0 0.51503806187062418 -0.85716730853699208 I I #
edge $-1 $622 -29.85604926205005 $373 -10.937125180268453 $515 $629 forward 7 unknown #
point $-1 10.937125180268453 43.575410744681164 12.87660236266745 #
point $-1 10.937125180268453 39.55548807220633 12.876602362667455 #
edge $-1 $630 1 $630 0 $376 $-1 forward 7 unknown #
vertex $-1 $377 $631 #
ellipse-curve $-1 16.342532060777472 39.118937423937808 8.0614521803683381 0 0.85716730853699208 0.51503806187062418 1 0 0 1 I I #
point $-1 17.342532060777472 41.565449408443719 9.5314648351834403 #
edge $-1 $632 1 $632 0 $380 $-1 forward 7 unknown #
vertex $-1 $381 $633 #
ellipse-curve $-1 24.45064238154103 39.118937423937808 8.0614521803683381 0 0.85716730853699208 0.51503806187062418 1 0 0 1 I I #
point $-1 25.45064238154103 41.565449408443719 9.5314648351834403 #
loop $-1 $-1 $392 $384 #
plane-surface $-1 0 43.575410744681164 0 0 -1 0 0 0 -1 forward_v I I I I #
coedge $-1 $534 $387 $389 $538 reversed $259 $-1 #
coedge $-1 $387 $533 $634 $635 reversed $259 $-1 #
coedge $-1 $395 $390 $387 $536 forward $385 $-1 #
edge $-1 $539 -21.426162186509359 $636 -17.406239514034525 $535 $637 forward 7 unknown #
coedge $-1 $389 $388 $542 $638 reversed $163 $-1 #
edge $-1 $639 -87.150821489362301 $539 -79.345723245022 $533 $640 forward 7 unknown #
vertex $-1 $391 $641 #
straight-curve $-1 28.175221617415772 39.55548807220633 12.876602362667441 1 0 0 I I #
coedge $-1 $634 $392 $395 $546 reversed $531 $-1 #
coedge $-1 $392 $634 $537 $638 forward $531 $-1 #
vertex $-1 $393 $642 #
straight-curve $-1 46.890981193940746 43.575410744681164 77.479789836376526 0 0 1 I I #
straight-curve $-1 46.890981193940746 -1.310579445632726 80.889162400524 0 0.51503806187062418 -0.85716730853699208 I I #
edge $-1 $636 -65.809905275722343 $396 -46.890981193940746 $541 $643 forward 7 unknown #
point $-1 46.890981193940746 43.575410744681164 12.87660236266745 #
point $-1 46.890981193940746 39.55548807220633 12.876602362667455 #
edge $-1 $644 1 $644 0 $399 $-1 forward 7 unknown #
vertex $-1 $400 $645 #
ellipse-curve $-1 52.296388074449766 39.118937423937808 8.0614521803683381 0 0.85716730853699208 0.51503806187062418 1 0 0 1 I I #
point $-1 53.296388074449766 41.565449408443719 9.5314648351834403 #
edge $-1 $646 1 $646 0 $403 $-1 forward 7 unknown #
vertex $-1 $404 $647 #
ellipse-curve $-1 60.404498395213324 39.118937423937808 8.0614521803683381 0 0.85716730853699208 0.51503806187062418 1 0 0 1 I I #
point $-1 61.404498395213324 41.565449408443719 9.5314648351834403 #
plane-surface $-1 71.907712027344587 0 0 -1 0 0 0 0 1 forward_v I I I I #
coedge $-1 $568 $410 $413 $561 reversed $281 $-1 #
edge $-1 $424 -12.87660236266745 $564 12.87660236266745 $423 $648 forward 7 unknown #
straight-curve $-1 71.907712027344587 -43.575410744681164 0 0 0 -1 I I #
edge $-1 $562 -43.575410744681164 $564 43.575410744681164 $558 $649 forward 7 unknown #
vertex $-1 $561 $650 #
straight-curve $-1 0 -43.575410744681164 -12.87660236266745 -1 0 0 I I #
vertex $-1 $416 $651 #
straight-curve $-1 0 43.575410744681164 -12.87660236266745 1 0 0 I I #
point $-1 71.907712027344587 43.575410744681164 -12.87660236266745 #
point $-1 71.907712027344587 -43.575410744681164 -12.87660236266745 #
coedge $-1 $420 $558 $426 $571 reversed $281 $-1 #
straight-curve $-1 -71.907712027344587 0 12.87660236266745 0 -1 0 I I #
point $-1 -71.907712027344587 43.575410744681164 12.87660236266745 #
edge $-1 $427 -12.87660236266745 $562 12.87660236266745 $568 $652 forward 7 unknown #
point $-1 -71.907712027344587 -43.575410744681164 12.87660236266745 #
straight-curve $-1 71.907712027344587 43.575410744681164 0 0 0 -1 I I #
plane-surface $-1 -71.907712027344587 0 0 1 0 0 0 0 -1 forward_v I I I I #
coedge $-1 $577 $586 $581 $653 forward $433 $-1 #
coedge $-1 $436 $435 $654 $655 forward $185 $-1 #
coedge $-1 $654 $575 $437 $578 reversed $433 $-1 #
edge $-1 $579 -71.907712027344587 $582 71.907712027344587 $577 $656 forward 7 unknown #
vertex $-1 $655 $657 #
straight-curve $-1 71.907712027344587 0 -12.87660236266745 0 -1 0 I I #
coedge $-1 $445 $439 $575 $653 reversed $446 $-1 #
vertex $-1 $440 $658 #
straight-curve $-1 -71.907712027344587 0 -12.87660236266745 0 1 0 I I #
point $-1 -71.907712027344587 -43.575410744681164 -12.87660236266745 #
point $-1 71.907712027344587 -43.575410744681164 -12.87660236266745 #
coedge $-1 $575 $654 $448 $587 reversed $433 $-1 #
edge $-1 $588 -71.907712027344587 $590 71.907712027344587 $586 $659 forward 7 unknown #
vertex $-1 $449 $660 #
straight-curve $-1 -71.907712027344587 -50.074925596782208 -9.3402229363652438 0 -1 0 I I #
vertex $-1 $450 $661 #
straight-curve $-1 71.907712027344587 -50.074925596782208 -9.3402229363652438 0 1 0 I I #
coedge $-1 $464 $463 $456 $593 forward $453 $-1 #
edge $-1 $594 64.60318747370907 $597 71.29346252867704 $592 $662 forward 7 unknown #
vertex $-1 $468 $663 #
straight-curve $-1 -42.051662765294537 60.981650258715689 12.876602362667455 0 1 0 I I #
edge $-1 $597 16.296100362201869 $465 35.215024443983467 $464 $664 forward 7 unknown #
vertex $-1 $596 $665 #
straight-curve $-1 -42.051662765294537 -1.310579445632726 80.889162400524 0 -0.51503806187062418 0.85716730853699208 I I #
point $-1 -42.051662765294537 39.55548807220633 12.876602362667455 #
point $-1 -60.970586847076135 43.575410744681164 6.1863273076994858 #
straight-curve $-1 0 43.575410744681164 12.87660236266745 -1 0 0 I I #
vertex $-1 $471 $666 #
point $-1 -54.565179966567108 39.118937423937808 8.0614521803683381 #
vertex $-1 $475 $667 #
point $-1 -46.457069645803564 39.118937423937808 8.0614521803683381 #
coedge $-1 $490 $489 $482 $607 forward $479 $-1 #
edge $-1 $608 64.60318747370907 $611 71.29346252867704 $606 $668 forward 7 unknown #
vertex $-1 $494 $669 #
straight-curve $-1 -6.0978067516222438 60.981650258715689 12.876602362667455 0 1 0 I I #
edge $-1 $611 -1.6808276446342774 $491 17.23809643714732 $490 $670 forward 7 unknown #
vertex $-1 $610 $671 #
straight-curve $-1 -6.0978067516222438 -1.310579445632726 80.889162400524 0 -0.51503806187062418 0.85716730853699208 I I #
point $-1 -6.0978067516222438 39.55548807220633 12.876602362667455 #
point $-1 -25.016730833403841 43.575410744681164 6.1863273076994858 #
straight-curve $-1 0 43.575410744681164 12.87660236266745 -1 0 0 I I #
vertex $-1 $497 $672 #
point $-1 -18.611323952894814 39.118937423937808 8.0614521803683381 #
vertex $-1 $501 $673 #
point $-1 -10.503213632131271 39.118937423937808 8.0614521803683381 #
coedge $-1 $516 $515 $508 $621 forward $505 $-1 #
edge $-1 $622 64.60318747370907 $625 71.29346252867704 $620 $674 forward 7 unknown #
vertex $-1 $520 $675 #
straight-curve $-1 29.85604926205005 60.981650258715689 12.876602362667455 0 1 0 I I #
edge $-1 $625 -19.657755651470424 $517 -0.73883156968882702 $516 $676 forward 7 unknown #
vertex $-1 $624 $677 #
straight-curve $-1 29.85604926205005 -1.310579445632726 80.889162400524 0 -0.51503806187062418 0.85716730853699208 I I #
point $-1 29.85604926205005 39.55548807220633 12.876602362667455 #
point $-1 10.937125180268453 43.575410744681164 6.1863273076994858 #
straight-curve $-1 0 43.575410744681164 12.87660236266745 -1 0 0 I I #
vertex $-1 $523 $678 #
point $-1 17.342532060777472 39.118937423937808 8.0614521803683381 #
vertex $-1 $527 $679 #
point $-1 25.45064238154103 39.118937423937808 8.0614521803683381 #
coedge $-1 $542 $541 $534 $635 forward $531 $-1 #
edge $-1 $636 64.60318747370907 $639 71.29346252867704 $634 $680 forward 7 unknown #
vertex $-1 $546 $681 #
straight-curve $-1 65.809905275722343 60.981650258715689 12.876602362667455 0 1 0 I I #
edge $-1 $639 -37.634683658306571 $543 -18.715759576524974 $542 $682 forward 7 unknown #
vertex $-1 $638 $683 #
straight-curve $-1 65.809905275722343 -1.310579445632726 80.889162400524 0 -0.51503806187062418 0.85716730853699208 I I #
point $-1 65.809905275722343 39.55548807220633 12.876602362667455 #
point $-1 46.890981193940746 43.575410744681164 6.1863273076994858 #
straight-curve $-1 0 43.575410744681164 12.87660236266745 -1 0 0 I I #
vertex $-1 $549 $684 #
point $-1 53.296388074449766 39.118937423937808 8.0614521803683381 #
vertex $-1 $553 $685 #
point $-1 61.404498395213324 39.118937423937808 8.0614521803683381 #
straight-curve $-1 -71.907712027344587 43.575410744681164 0 0 0 -1 I I #
straight-curve $-1 -71.907712027344587 0 -12.87660236266745 0 1 0 I I #
point $-1 -71.907712027344587 -43.575410744681164 -12.87660236266745 #
point $-1 -71.907712027344587 43.575410744681164 -12.87660236266745 #
straight-curve $-1 -71.907712027344587 -43.575410744681164 0 0 0 -1 I I #
edge $-1 $588 -1.7681897131511022 $582 1.7681897131511022 $581 $686 forward 7 unknown #
coedge $-1 $586 $577 $576 $655 reversed $433 $-1 #
edge $-1 $590 -1.7681897131511022 $579 1.7681897131511022 $576 $687 forward 7 unknown #
straight-curve $-1 0 -56.574440448883252 -12.876602362667448 -1 0 0 I I #
point $-1 71.907712027344587 -56.574440448883252 -12.876602362667448 #
point $-1 -71.907712027344587 -56.574440448883252 -12.876602362667448 #
straight-curve $-1 0 -56.574440448883252 -9.3402229363652438 1 0 0 I I #
point $-1 -71.907712027344587 -56.574440448883252 -9.3402229363652438 #
point $-1 71.907712027344587 -56.574440448883252 -9.3402229363652438 #
straight-curve $-1 -42.051662765294537 43.575410744681164 77.479789836376526 0 0 -1 I I #
point $-1 -42.051662765294537 43.575410744681164 12.87660236266745 #
straight-curve $-1 -25.755562403092668 43.575410744681164 6.1863273076995 -1 0 0 I I #
point $-1 -42.051662765294537 43.575410744681164 6.1863273076994858 #
point $-1 -55.565179966567108 38.261770115400822 7.5464141184977143 #
point $-1 -47.457069645803564 38.261770115400822 7.5464141184977143 #
straight-curve $-1 -6.0978067516222438 43.575410744681164 77.479789836376526 0 0 -1 I I #
point $-1 -6.0978067516222438 43.575410744681164 12.87660236266745 #
straight-curve $-1 -7.7786343962565212 43.575410744681164 6.1863273076995 -1 0 0 I I #
point $-1 -6.0978067516222438 43.575410744681164 6.1863273076994858 #
point $-1 -19.611323952894814 38.261770115400822 7.5464141184977143 #
point $-1 -11.503213632131271 38.261770115400822 7.5464141184977143 #
straight-curve $-1 29.85604926205005 43.575410744681164 77.479789836376526 0 0 -1 I I #
point $-1 29.85604926205005 43.575410744681164 12.87660236266745 #
straight-curve $-1 10.198293610579626 43.575410744681164 6.1863273076995 -1 0 0 I I #
point $-1 29.85604926205005 43.575410744681164 6.1863273076994858 #
point $-1 16.342532060777472 38.261770115400822 7.5464141184977143 #
point $-1 24.45064238154103 38.261770115400822 7.5464141184977143 #
straight-curve $-1 65.809905275722343 43.575410744681164 77.479789836376526 0 0 -1 I I #
point $-1 65.809905275722343 43.575410744681164 12.87660236266745 #
straight-curve $-1 28.175221617415772 43.575410744681164 6.1863273076995 -1 0 0 I I #
point $-1 65.809905275722343 43.575410744681164 6.1863273076994858 #
point $-1 52.296388074449766 38.261770115400822 7.5464141184977143 #
point $-1 60.404498395213324 38.261770115400822 7.5464141184977143 #
straight-curve $-1 -71.907712027344587 -56.574440448883252 -11.108412649516346 0 0 -1 I I #
straight-curve $-1 71.907712027344587 -56.574440448883252 -11.108412649516346 0 0 -1 I I #
End-of-ACIS-data 