500 0 8 0           
7 Unknown 11 ACIS 5.0 NT 24 Thu Mar 25 22:27:25 1999 
-1 9.9999999999999995e-007 1e-010 
body $-1 $8 $-1 $9 #
body $-1 $10 $-1 $11 #
body $-1 $12 $-1 $13 #
body $-1 $14 $-1 $15 #
body $-1 $16 $-1 $17 #
body $-1 $18 $-1 $19 #
body $-1 $20 $-1 $21 #
body $-1 $22 $-1 $23 #
lump $-1 $-1 $24 $0 #
transform $-1 1 0 0 0 1 0 0 0 1 61.358073671681879 31.645088967779188 10.817198645021037 1 rotate no_reflect no_shear #
lump $-1 $-1 $25 $1 #
transform $-1 1 0 0 0 1 0 0 0 1 61.358073671681879 31.645088967779188 10.817198645021037 1 rotate no_reflect no_shear #
lump $-1 $-1 $26 $2 #
transform $-1 1 0 0 0 1 0 0 0 1 61.358073671681879 31.645088967779188 10.817198645021037 1 rotate no_reflect no_shear #
lump $-1 $-1 $27 $3 #
transform $-1 1 0 0 0 1 0 0 0 1 61.358073671681879 31.645088967779188 10.817198645021037 1 rotate no_reflect no_shear #
lump $-1 $-1 $28 $4 #
transform $-1 1 0 0 0 1 0 0 0 1 61.358073671681879 31.645088967779188 10.817198645021037 1 rotate no_reflect no_shear #
lump $-1 $-1 $29 $5 #
transform $-1 1 0 0 0 1 0 0 0 1 61.358073671681879 31.645088967779188 10.817198645021037 1 rotate no_reflect no_shear #
lump $-1 $-1 $30 $6 #
transform $-1 1 0 0 0 1 0 0 0 1 61.358073671681879 31.645088967779188 10.817198645021037 1 rotate no_reflect no_shear #
lump $-1 $-1 $31 $7 #
transform $-1 1 0 0 0 1 0 0 0 1 61.358073671681879 31.645088967779188 10.817198645021037 1 rotate no_reflect no_shear #
shell $-1 $-1 $-1 $32 $-1 $8 #
shell $-1 $-1 $-1 $33 $-1 $10 #
shell $-1 $-1 $-1 $34 $-1 $12 #
shell $-1 $-1 $-1 $35 $-1 $14 #
shell $-1 $-1 $-1 $36 $-1 $16 #
shell $-1 $-1 $-1 $37 $-1 $18 #
shell $-1 $-1 $-1 $38 $-1 $20 #
shell $-1 $-1 $-1 $39 $-1 $22 #
face $-1 $40 $41 $24 $-1 $42 forward single #
face $-1 $43 $44 $25 $-1 $45 forward single #
face $-1 $46 $47 $26 $-1 $48 reversed single #
face $-1 $49 $50 $27 $-1 $51 forward single #
face $-1 $52 $53 $28 $-1 $54 forward single #
face $-1 $55 $56 $29 $-1 $57 reversed single #
face $-1 $58 $59 $30 $-1 $60 forward single #
face $-1 $61 $62 $31 $-1 $63 forward single #
face $-1 $64 $65 $24 $-1 $66 reversed single #
loop $-1 $-1 $67 $32 #
plane-surface $-1 0 0 10.817198645021037 0 0 1 1 0 0 forward_v I I I I #
face $-1 $68 $69 $25 $-1 $70 reversed single #
loop $-1 $-1 $71 $33 #
plane-surface $-1 -55.725379046451756 0 -6.1609206821753766 0 0 1 1 0 0 forward_v I I I I #
face $-1 $72 $73 $26 $-1 $74 reversed single #
loop $-1 $-1 $75 $34 #
plane-surface $-1 -50.092684421221641 -134.56351093857211 72.595302843856317 1 0 0 0 0.83867057594974714 -0.54463902268945019 forward_v I I I I #
face $-1 $76 $77 $27 $-1 $78 forward single #
loop $-1 $79 $80 $35 #
cone-surface $-1 -42.142265689537297 -29.151481321736981 7.7354160085078716 0 0.83867057594974714 -0.54463902268945019 1 0 0 1 I I 0 1 1 forward I I I I #
face $-1 $81 $82 $28 $-1 $83 forward single #
loop $-1 $84 $85 $36 #
cone-surface $-1 -30.216637592010784 -29.151481321736981 7.7354160085078716 0 0.83867057594974714 -0.54463902268945019 1 0 0 1 I I 0 1 1 forward I I I I #
face $-1 $86 $87 $29 $-1 $88 reversed single #
loop $-1 $-1 $89 $37 #
plane-surface $-1 -7.7850622355582502 73.665596440663776 132.48108760296861 1 0 0 0 -0.70710678939079041 -0.70710677298230451 forward_v I I I I #
face $-1 $90 $91 $30 $-1 $92 forward single #
loop $-1 $93 $94 $38 #
cone-surface $-1 -0.77943052407210445 24.685879293341735 3.8579889032137276 0 -0.70710678939079041 -0.70710677298230451 2 0 0 1 I I 0 1 2 forward I I I I #
face $-1 $95 $96 $31 $-1 $97 forward single #
loop $-1 $98 $99 $39 #
cone-surface $-1 9.7290170431570999 24.685879293341735 3.8579889032137276 0 -0.70710678939079041 -0.70710677298230451 2 0 0 1 I I 0 1 2 forward I I I I #
face $-1 $100 $101 $24 $-1 $102 reversed single #
loop $-1 $-1 $103 $40 #
plane-surface $-1 0 0 -10.817198645021037 0 0 1 1 0 0 forward_v I I I I #
coedge $-1 $104 $105 $106 $107 forward $41 $-1 #
face $-1 $108 $109 $25 $-1 $110 reversed single #
loop $-1 $-1 $111 $43 #
plane-surface $-1 -50.092684421221634 0 -8.4890596635982067 -1 0 0 0 0 1 forward_v I I I I #
coedge $-1 $112 $113 $114 $115 forward $44 $-1 #
face $-1 $116 $117 $26 $-1 $118 reversed single #
loop $-1 $-1 $119 $46 #
plane-surface $-1 -36.17945164077404 -31.645088967779188 5.7593002865521044 0 -0.83867057594974714 0.54463902268945019 1 0 0 forward_v I I I I #
coedge $-1 $120 $121 $122 $123 reversed $47 $-1 #
face $-1 $-1 $124 $27 $-1 $125 forward single #
loop $-1 $126 $127 $49 #
cone-surface $-1 -42.142265689537297 -27.880857134684113 6.9102630398844482 0 0.83867057594974714 -0.54463902268945019 0.5 0 0 1 I I -0.70710678118654746 0.70710678118654746 0.5 forward I I I I #
loop $-1 $-1 $128 $35 #
coedge $-1 $80 $80 $129 $130 reversed $50 $-1 #
face $-1 $-1 $131 $28 $-1 $132 forward single #
loop $-1 $133 $134 $52 #
cone-surface $-1 -30.216637592010784 -27.880857134684113 6.9102630398844482 0 0.83867057594974714 -0.54463902268945019 0.5 0 0 1 I I -0.70710678118654746 0.70710678118654746 0.5 forward I I I I #
loop $-1 $-1 $135 $36 #
coedge $-1 $85 $85 $136 $137 reversed $53 $-1 #
face $-1 $138 $139 $29 $-1 $140 reversed single #
loop $-1 $-1 $141 $55 #
plane-surface $-1 4.4747932595424942 -13.107824513709346 45.707668662181661 0 0.70710678939079041 0.70710677298230451 1 0 0 forward_v I I I I #
coedge $-1 $142 $143 $144 $145 reversed $56 $-1 #
face $-1 $-1 $146 $30 $-1 $147 forward single #
loop $-1 $148 $149 $58 #
cone-surface $-1 -0.77943052407210445 21.950784966495917 1.1228946398360549 0 -0.70710678939079041 -0.70710677298230451 1 0 0 1 I I -0.70710678118654746 0.70710678118654746 1 forward I I I I #
loop $-1 $-1 $150 $38 #
coedge $-1 $94 $94 $151 $152 reversed $59 $-1 #
face $-1 $-1 $153 $31 $-1 $154 forward single #
loop $-1 $155 $156 $61 #
cone-surface $-1 9.7290170431570999 21.950784966495917 1.1228946398360549 0 -0.70710678939079041 -0.70710677298230451 1 0 0 1 I I -0.70710678118654746 0.70710678118654746 1 forward I I I I #
loop $-1 $-1 $157 $39 #
coedge $-1 $99 $99 $158 $159 reversed $62 $-1 #
face $-1 $160 $161 $24 $-1 $162 reversed single #
loop $-1 $-1 $163 $64 #
plane-surface $-1 0 -31.645088967779188 0 0 1 0 0 0 1 forward_v I I I I #
coedge $-1 $164 $165 $166 $167 forward $65 $-1 #
coedge $-1 $168 $67 $169 $170 forward $41 $-1 #
coedge $-1 $67 $168 $171 $172 forward $41 $-1 #
coedge $-1 $173 $174 $67 $107 reversed $175 $-1 #
edge $-1 $176 -31.645088967779188 $177 31.645088967779188 $106 $178 forward 7 unknown #
face $-1 $179 $180 $25 $-1 $181 reversed single #
loop $-1 $-1 $182 $68 #
plane-surface $-1 0 0 -10.817198645021037 0 0 1 1 0 0 forward_v I I I I #
coedge $-1 $183 $114 $184 $185 reversed $69 $-1 #
coedge $-1 $186 $71 $187 $188 reversed $44 $-1 #
coedge $-1 $71 $186 $189 $190 reversed $44 $-1 #
coedge $-1 $111 $191 $71 $115 reversed $69 $-1 #
edge $-1 $192 -31.645088967779188 $193 31.645088967779188 $114 $194 forward 7 unknown #
face $-1 $195 $196 $26 $-1 $197 forward single #
loop $-1 $-1 $198 $72 #
plane-surface $-1 -22.26621886032644 -134.56351093857211 72.595302843856317 -1 0 0 0 -0.83867057594974714 0.54463902268945019 forward_v I I I I #
coedge $-1 $199 $200 $201 $202 reversed $73 $-1 #
coedge $-1 $121 $75 $203 $204 reversed $47 $-1 #
coedge $-1 $75 $120 $199 $205 reversed $47 $-1 #
coedge $-1 $201 $206 $75 $123 forward $207 $-1 #
edge $-1 $208 25.480452776907121 $209 30.538351135376054 $122 $210 forward 7 unknown #
loop $-1 $-1 $129 $76 #
plane-surface $-1 -36.17945164077404 -31.645088967779188 5.7593002865521044 0 -0.83867057594974714 0.54463902268945019 1 0 0 forward_v I I I I #
loop $-1 $-1 $211 $49 #
coedge $-1 $127 $127 $128 $212 reversed $77 $-1 #
coedge $-1 $128 $128 $127 $212 forward $79 $-1 #
coedge $-1 $129 $129 $80 $130 forward $124 $-1 #
edge $-1 $213 1.4897782135920807e-015 $213 6.2831853071796022 $129 $214 forward 7 unknown #
loop $-1 $-1 $136 $81 #
plane-surface $-1 -36.17945164077404 -31.645088967779188 5.7593002865521044 0 -0.83867057594974714 0.54463902268945019 1 0 0 forward_v I I I I #
loop $-1 $-1 $215 $52 #
coedge $-1 $134 $134 $135 $216 reversed $82 $-1 #
coedge $-1 $135 $135 $134 $216 forward $84 $-1 #
coedge $-1 $136 $136 $85 $137 forward $131 $-1 #
edge $-1 $217 1.4897782135920807e-015 $217 6.2831853071796022 $136 $218 forward 7 unknown #
face $-1 $219 $220 $29 $-1 $221 reversed single #
loop $-1 $-1 $222 $86 #
plane-surface $-1 16.734648754643239 73.665596440663776 132.48108760296861 -1 0 0 0 0.70710678939079041 0.70710677298230451 forward_v I I I I #
coedge $-1 $223 $224 $225 $226 reversed $87 $-1 #
coedge $-1 $143 $89 $227 $228 reversed $56 $-1 #
coedge $-1 $89 $142 $223 $229 reversed $56 $-1 #
coedge $-1 $225 $230 $89 $145 forward $231 $-1 #
edge $-1 $232 5.1877092525527004 $233 15.050153526517562 $144 $234 forward 7 unknown #
loop $-1 $-1 $151 $90 #
plane-surface $-1 4.4747932595424942 -13.107824513709346 45.707668662181661 0 0.70710678939079041 0.70710677298230451 1 0 0 forward_v I I I I #
loop $-1 $-1 $235 $58 #
coedge $-1 $149 $149 $150 $236 reversed $91 $-1 #
coedge $-1 $150 $150 $149 $236 forward $93 $-1 #
coedge $-1 $151 $151 $94 $152 forward $146 $-1 #
edge $-1 $237 3.1401840793819233e-016 $237 6.2831853071796004 $151 $238 forward 7 unknown #
loop $-1 $-1 $158 $95 #
plane-surface $-1 4.4747932595424942 -13.107824513709346 45.707668662181661 0 0.70710678939079041 0.70710677298230451 1 0 0 forward_v I I I I #
loop $-1 $-1 $239 $61 #
coedge $-1 $156 $156 $157 $240 reversed $96 $-1 #
coedge $-1 $157 $157 $156 $240 forward $98 $-1 #
coedge $-1 $158 $158 $99 $159 forward $153 $-1 #
edge $-1 $241 3.1401840793819233e-016 $241 6.2831853071796004 $158 $242 forward 7 unknown #
face $-1 $243 $244 $24 $-1 $245 reversed single #
loop $-1 $-1 $246 $100 #
plane-surface $-1 -61.358073671681879 0 0 1 0 0 0 0 -1 forward_v I I I I #
coedge $-1 $247 $171 $248 $249 forward $101 $-1 #
coedge $-1 $250 $103 $247 $251 forward $65 $-1 #
coedge $-1 $103 $250 $252 $253 forward $65 $-1 #
coedge $-1 $174 $173 $103 $167 reversed $175 $-1 #
edge $-1 $254 -31.645088967779188 $255 31.645088967779188 $166 $256 forward 7 unknown #
coedge $-1 $105 $104 $257 $258 forward $41 $-1 #
coedge $-1 $259 $260 $104 $170 reversed $244 $-1 #
edge $-1 $177 -61.358073671681879 $261 61.358073671681879 $169 $262 forward 7 unknown #
coedge $-1 $163 $263 $105 $172 reversed $101 $-1 #
edge $-1 $264 -61.358073671681879 $176 61.358073671681879 $171 $265 forward 7 unknown #
coedge $-1 $166 $106 $263 $266 forward $175 $-1 #
coedge $-1 $106 $166 $259 $267 reversed $175 $-1 #
loop $-1 $-1 $173 $243 #
vertex $-1 $107 $268 #
vertex $-1 $107 $269 #
straight-curve $-1 61.358073671681879 0 10.817198645021037 0 1 0 I I #
face $-1 $270 $271 $25 $-1 $272 reversed single #
loop $-1 $-1 $184 $108 #
plane-surface $-1 0 -31.645088967779188 0 0 1 0 0 0 1 forward_v I I I I #
coedge $-1 $273 $274 $183 $275 forward $109 $-1 #
coedge $-1 $191 $111 $182 $275 reversed $69 $-1 #
coedge $-1 $189 $276 $111 $185 forward $180 $-1 #
edge $-1 $277 -6.5726688132219335 $192 -1.9163908503762732 $184 $278 forward 7 unknown #
coedge $-1 $113 $112 $279 $280 reversed $44 $-1 #
coedge $-1 $281 $282 $112 $188 forward $283 $-1 #
edge $-1 $284 -33.495384148455997 $193 -22.229994897995756 $187 $285 forward 7 unknown #
coedge $-1 $286 $184 $113 $190 forward $180 $-1 #
edge $-1 $192 22.229994897995756 $287 33.495384148455997 $189 $288 forward 7 unknown #
coedge $-1 $114 $183 $281 $289 reversed $69 $-1 #
vertex $-1 $190 $290 #
vertex $-1 $188 $291 #
straight-curve $-1 -50.092684421221634 0 -6.1609206821753766 0 1 0 I I #
face $-1 $-1 $207 $26 $-1 $292 reversed single #
loop $-1 $-1 $293 $116 #
plane-surface $-1 0 0 10.817198645021037 0 0 1 1 0 0 forward_v I I I I #
coedge $-1 $294 $295 $296 $297 reversed $117 $-1 #
coedge $-1 $298 $119 $121 $205 forward $73 $-1 #
coedge $-1 $119 $298 $294 $299 forward $73 $-1 #
coedge $-1 $296 $122 $119 $202 forward $207 $-1 #
edge $-1 $209 -32.002958600834617 $300 -4.1764930399394196 $201 $301 forward 7 unknown #
coedge $-1 $302 $303 $120 $204 forward $196 $-1 #
edge $-1 $304 -38.921303995435302 $208 -35.636666501506866 $203 $305 forward 7 unknown #
edge $-1 $209 0 $304 6.0308522839747285 $121 $306 forward 7 unknown #
coedge $-1 $122 $296 $302 $307 reversed $207 $-1 #
loop $-1 $-1 $296 $195 #
vertex $-1 $307 $308 #
vertex $-1 $123 $309 #
straight-curve $-1 -50.092684421221641 -31.645088967779188 36.297651421928158 0 0 -1 I I #
coedge $-1 $211 $211 $-1 $310 reversed $126 $-1 #
edge $-1 $311 0 $311 6.2831853071796004 $127 $312 forward 7 unknown #
vertex $-1 $130 $313 #
ellipse-curve $-1 -42.142265689537297 -30.002770220814973 8.2882494657865688 0 -0.83867057594974714 0.54463902268945019 1 0 0 1 I I #
coedge $-1 $215 $215 $-1 $314 reversed $133 $-1 #
edge $-1 $315 0 $315 6.2831853071796004 $134 $316 forward 7 unknown #
vertex $-1 $137 $317 #
ellipse-curve $-1 -30.216637592010784 -30.002770220814973 8.2882494657865688 0 -0.83867057594974714 0.54463902268945019 1 0 0 1 I I #
face $-1 $-1 $231 $29 $-1 $318 forward single #
loop $-1 $-1 $319 $138 #
plane-surface $-1 0 31.645088967779188 0 0 -1 0 0 0 -1 forward_v I I I I #
coedge $-1 $320 $321 $322 $323 reversed $139 $-1 #
coedge $-1 $324 $141 $143 $229 forward $87 $-1 #
coedge $-1 $141 $324 $320 $325 forward $87 $-1 #
coedge $-1 $322 $144 $141 $226 forward $231 $-1 #
edge $-1 $233 -10.022458865329497 $326 14.497252124871991 $225 $327 forward 7 unknown #
coedge $-1 $328 $329 $142 $228 forward $220 $-1 #
edge $-1 $330 -65.285789659287175 $232 -55.42334515646327 $227 $331 forward 7 unknown #
edge $-1 $233 49.342575323340625 $330 63.290177935558397 $143 $332 forward 7 unknown #
coedge $-1 $144 $322 $328 $333 forward $231 $-1 #
loop $-1 $-1 $322 $219 #
vertex $-1 $228 $334 #
vertex $-1 $145 $335 #
straight-curve $-1 -7.7850622355582502 36.832798220331888 10.817198645021037 0 -1 0 I I #
coedge $-1 $235 $235 $-1 $336 reversed $148 $-1 #
edge $-1 $337 0 $337 6.2831853071796004 $149 $338 forward 7 unknown #
vertex $-1 $152 $339 #
ellipse-curve $-1 -0.77943052407210445 26.713866830796754 5.8859763936090861 0 0.70710678939079041 0.70710677298230451 2 0 0 1 I I #
coedge $-1 $239 $239 $-1 $340 reversed $155 $-1 #
edge $-1 $341 0 $341 6.2831853071796004 $156 $342 forward 7 unknown #
vertex $-1 $159 $343 #
ellipse-curve $-1 9.7290170431570999 26.713866830796754 5.8859763936090861 0 0.70710678939079041 0.70710677298230451 2 0 0 1 I I #
face $-1 $-1 $175 $24 $-1 $344 reversed single #
loop $-1 $-1 $259 $160 #
plane-surface $-1 0 31.645088967779188 0 0 -1 0 0 0 -1 forward_v I I I I #
coedge $-1 $345 $257 $260 $346 forward $161 $-1 #
coedge $-1 $263 $163 $164 $251 reversed $101 $-1 #
coedge $-1 $257 $345 $163 $249 reversed $161 $-1 #
edge $-1 $264 -10.817198645021037 $347 10.817198645021037 $248 $348 forward 7 unknown #
coedge $-1 $165 $164 $345 $349 forward $65 $-1 #
edge $-1 $255 -61.358073671681879 $347 61.358073671681879 $247 $350 forward 7 unknown #
coedge $-1 $260 $259 $165 $253 reversed $244 $-1 #
edge $-1 $351 -61.358073671681879 $254 61.358073671681879 $252 $352 forward 7 unknown #
vertex $-1 $167 $353 #
vertex $-1 $266 $354 #
straight-curve $-1 61.358073671681879 0 -10.817198645021037 0 -1 0 I I #
coedge $-1 $246 $248 $168 $258 reversed $161 $-1 #
edge $-1 $261 -31.645088967779188 $264 31.645088967779188 $257 $355 forward 7 unknown #
coedge $-1 $252 $169 $174 $267 forward $244 $-1 #
coedge $-1 $169 $252 $246 $346 reversed $244 $-1 #
vertex $-1 $170 $356 #
straight-curve $-1 0 31.645088967779188 10.817198645021037 -1 0 0 I I #
coedge $-1 $171 $247 $173 $266 reversed $101 $-1 #
vertex $-1 $258 $357 #
straight-curve $-1 0 -31.645088967779188 10.817198645021037 1 0 0 I I #
edge $-1 $176 -10.817198645021037 $255 10.817198645021037 $173 $358 forward 7 unknown #
edge $-1 $177 -10.817198645021037 $254 10.817198645021037 $174 $359 forward 7 unknown #
point $-1 61.358073671681879 -31.645088967779188 10.817198645021037 #
point $-1 61.358073671681879 31.645088967779188 10.817198645021037 #
face $-1 $-1 $283 $25 $-1 $360 reversed single #
loop $-1 $-1 $279 $179 #
plane-surface $-1 -61.358073671681879 0 0 1 0 0 0 0 -1 forward_v I I I I #
coedge $-1 $361 $182 $276 $362 forward $109 $-1 #
coedge $-1 $182 $361 $363 $364 forward $109 $-1 #
edge $-1 $365 -31.645088967779188 $277 31.645088967779188 $182 $366 forward 7 unknown #
coedge $-1 $184 $286 $273 $362 reversed $180 $-1 #
vertex $-1 $362 $367 #
straight-curve $-1 -50.092684421221634 -31.645088967779188 -4.2445298317991034 0 0 1 I I #
coedge $-1 $368 $369 $186 $280 forward $271 $-1 #
edge $-1 $287 -31.645088967779188 $284 31.645088967779188 $279 $370 forward 7 unknown #
coedge $-1 $363 $187 $191 $289 forward $283 $-1 #
coedge $-1 $187 $363 $368 $371 reversed $283 $-1 #
loop $-1 $-1 $281 $270 #
vertex $-1 $371 $372 #
straight-curve $-1 -27.862689523225878 31.645088967779188 -6.1609206821753766 1 0 0 I I #
coedge $-1 $276 $189 $369 $373 forward $180 $-1 #
vertex $-1 $373 $374 #
straight-curve $-1 -27.862689523225878 -31.645088967779188 -6.1609206821753766 -1 0 0 I I #
edge $-1 $193 1.9163908503762732 $365 6.5726688132219335 $281 $375 forward 7 unknown #
point $-1 -50.092684421221634 -31.645088967779188 -6.1609206821753766 #
point $-1 -50.092684421221634 31.645088967779188 -6.1609206821753766 #
plane-surface $-1 0 -31.645088967779188 0 0 1 0 0 0 1 forward_v I I I I #
coedge $-1 $303 $302 $295 $376 forward $196 $-1 #
coedge $-1 $295 $198 $200 $299 reversed $117 $-1 #
coedge $-1 $198 $294 $293 $376 reversed $117 $-1 #
coedge $-1 $206 $201 $198 $297 forward $207 $-1 #
edge $-1 $300 -30.538351135376054 $377 -25.480452776907121 $296 $378 forward 7 unknown #
coedge $-1 $200 $199 $303 $379 reversed $73 $-1 #
edge $-1 $380 -6.0308522839747285 $300 0 $294 $381 forward 7 unknown #
vertex $-1 $202 $382 #
straight-curve $-1 -18.08972582038702 -31.645088967779188 5.7593002865521097 1 0 0 I I #
coedge $-1 $293 $203 $206 $307 forward $196 $-1 #
coedge $-1 $203 $293 $298 $379 forward $196 $-1 #
vertex $-1 $204 $383 #
straight-curve $-1 -50.092684421221641 -67.281755469286054 10.817198645021037 0 -1 0 I I #
straight-curve $-1 -50.092684421221641 -31.645088967779188 5.7593002865521044 0 0.54463902268945019 0.83867057594974714 I I #
edge $-1 $208 -50.092684421221641 $377 -22.26621886032644 $206 $384 forward 7 unknown #
point $-1 -50.092684421221641 -31.645088967779188 10.817198645021037 #
point $-1 -50.092684421221641 -31.645088967779188 5.7593002865521044 #
edge $-1 $385 1 $385 0 $211 $-1 forward 7 unknown #
vertex $-1 $212 $386 #
ellipse-curve $-1 -42.142265689537297 -28.300192422658988 7.1825825512291734 0 -0.83867057594974714 0.54463902268945019 1 0 0 1 I I #
point $-1 -41.142265689537297 -30.002770220814973 8.2882494657865706 #
edge $-1 $387 1 $387 0 $215 $-1 forward 7 unknown #
vertex $-1 $216 $388 #
ellipse-curve $-1 -30.216637592010784 -28.300192422658988 7.1825825512291734 0 -0.83867057594974714 0.54463902268945019 1 0 0 1 I I #
point $-1 -29.216637592010784 -30.002770220814973 8.2882494657865706 #
plane-surface $-1 0 0 10.817198645021037 0 0 1 1 0 0 forward_v I I I I #
coedge $-1 $329 $328 $321 $389 forward $220 $-1 #
coedge $-1 $321 $222 $224 $325 reversed $139 $-1 #
coedge $-1 $222 $320 $319 $389 reversed $139 $-1 #
coedge $-1 $230 $225 $222 $323 forward $231 $-1 #
edge $-1 $326 -15.050153526517562 $390 -5.1877092525527004 $322 $391 forward 7 unknown #
coedge $-1 $224 $223 $329 $392 reversed $87 $-1 #
edge $-1 $393 -63.290177935558397 $326 -49.342575323340625 $320 $394 forward 7 unknown #
vertex $-1 $226 $395 #
straight-curve $-1 2.2373966297712471 21.782644693814326 10.817198645021033 1 0 0 I I #
coedge $-1 $319 $227 $230 $333 reversed $220 $-1 #
coedge $-1 $227 $319 $324 $392 forward $220 $-1 #
vertex $-1 $228 $396 #
straight-curve $-1 -7.7850622355582502 31.645088967779188 66.240543801484307 0 0 1 I I #
straight-curve $-1 -7.7850622355582502 -13.107824513709346 45.707668662181661 0 0.70710677298230451 -0.70710678939079041 I I #
edge $-1 $390 -16.734648754643239 $232 7.7850622355582502 $328 $397 forward 7 unknown #
point $-1 -7.7850622355582502 31.645088967779188 10.817198645021037 #
point $-1 -7.7850622355582502 21.782644693814326 10.817198645021037 #
edge $-1 $398 1 $398 0 $235 $-1 forward 7 unknown #
vertex $-1 $236 $399 #
ellipse-curve $-1 -0.77943052407210445 22.657891755886705 1.8300014128183593 0 0.70710678939079041 0.70710677298230451 2 0 0 1 I I #
point $-1 1.2205694759278956 26.713866830796764 5.8859763936090959 #
edge $-1 $400 1 $400 0 $239 $-1 forward 7 unknown #
vertex $-1 $240 $401 #
ellipse-curve $-1 9.7290170431570999 22.657891755886705 1.8300014128183593 0 0.70710678939079041 0.70710677298230451 2 0 0 1 I I #
point $-1 11.7290170431571 26.713866830796764 5.8859763936090959 #
plane-surface $-1 61.358073671681879 0 0 -1 0 0 0 0 1 forward_v I I I I #
coedge $-1 $248 $246 $250 $349 reversed $161 $-1 #
edge $-1 $261 -10.817198645021037 $351 10.817198645021037 $260 $402 forward 7 unknown #
vertex $-1 $349 $403 #
straight-curve $-1 -61.358073671681879 -31.645088967779188 0 0 0 -1 I I #
edge $-1 $347 -31.645088967779188 $351 31.645088967779188 $345 $404 forward 7 unknown #
straight-curve $-1 0 -31.645088967779188 -10.817198645021037 -1 0 0 I I #
vertex $-1 $253 $405 #
straight-curve $-1 0 31.645088967779188 -10.817198645021037 1 0 0 I I #
point $-1 61.358073671681879 31.645088967779188 -10.817198645021037 #
point $-1 61.358073671681879 -31.645088967779188 -10.817198645021037 #
straight-curve $-1 -61.358073671681879 0 10.817198645021037 0 -1 0 I I #
point $-1 -61.358073671681879 31.645088967779188 10.817198645021037 #
point $-1 -61.358073671681879 -31.645088967779188 10.817198645021037 #
straight-curve $-1 61.358073671681879 -31.645088967779188 0 0 0 -1 I I #
straight-curve $-1 61.358073671681879 31.645088967779188 0 0 0 -1 I I #
plane-surface $-1 0 31.645088967779188 0 0 -1 0 0 0 -1 forward_v I I I I #
coedge $-1 $274 $273 $406 $407 forward $109 $-1 #
edge $-1 $277 50.092684421221634 $408 61.358073671681879 $276 $409 forward 7 unknown #
coedge $-1 $282 $281 $274 $364 reversed $283 $-1 #
edge $-1 $410 -61.358073671681879 $365 -50.092684421221634 $363 $411 forward 7 unknown #
vertex $-1 $289 $412 #
straight-curve $-1 -50.092684421221634 0 -10.817198645021037 0 -1 0 I I #
point $-1 -50.092684421221634 -31.645088967779188 -10.817198645021037 #
coedge $-1 $406 $279 $282 $371 forward $271 $-1 #
coedge $-1 $279 $406 $286 $373 reversed $271 $-1 #
straight-curve $-1 -61.358073671681879 0 -6.1609206821753766 0 1 0 I I #
edge $-1 $284 6.1609206821753766 $410 10.817198645021037 $282 $413 forward 7 unknown #
point $-1 -61.358073671681879 31.645088967779188 -6.1609206821753766 #
edge $-1 $287 6.1609206821753766 $408 10.817198645021037 $369 $414 forward 7 unknown #
point $-1 -61.358073671681879 -31.645088967779188 -6.1609206821753766 #
straight-curve $-1 -50.092684421221634 31.645088967779188 -4.2445298317991034 0 0 -1 I I #
edge $-1 $377 35.636666501506866 $380 38.921303995435302 $293 $415 forward 7 unknown #
vertex $-1 $297 $416 #
straight-curve $-1 -22.26621886032644 -31.645088967779188 36.297651421928158 0 0 1 I I #
edge $-1 $380 4.1764930399394196 $304 32.002958600834617 $303 $417 forward 7 unknown #
vertex $-1 $379 $418 #
straight-curve $-1 -22.26621886032644 -31.645088967779188 5.7593002865521044 0 -0.54463902268945019 -0.83867057594974714 I I #
point $-1 -22.26621886032644 -31.645088967779188 5.7593002865521044 #
point $-1 -50.092684421221641 -28.360451473850752 10.817198645021037 #
straight-curve $-1 0 -31.645088967779188 10.817198645021037 1 0 0 I I #
vertex $-1 $310 $419 #
point $-1 -41.142265689537297 -28.300192422658988 7.1825825512291734 #
vertex $-1 $314 $420 #
point $-1 -29.216637592010784 -28.300192422658988 7.1825825512291734 #
edge $-1 $390 55.42334515646327 $393 65.285789659287175 $319 $421 forward 7 unknown #
vertex $-1 $333 $422 #
straight-curve $-1 16.734648754643239 36.832798220331888 10.817198645021037 0 1 0 I I #
edge $-1 $393 -14.497252124871991 $330 10.022458865329497 $329 $423 forward 7 unknown #
vertex $-1 $392 $424 #
straight-curve $-1 16.734648754643239 -13.107824513709346 45.707668662181661 0 -0.70710677298230451 0.70710678939079041 I I #
point $-1 16.734648754643239 21.782644693814326 10.817198645021037 #
point $-1 -7.7850622355582502 31.645088967779188 0.95475414219713173 #
straight-curve $-1 0 31.645088967779188 10.817198645021037 -1 0 0 I I #
vertex $-1 $336 $425 #
point $-1 1.2205694759278956 22.657891755886705 1.8300014128183593 #
vertex $-1 $340 $426 #
point $-1 11.7290170431571 22.657891755886705 1.8300014128183593 #
straight-curve $-1 -61.358073671681879 31.645088967779188 0 0 0 -1 I I #
point $-1 -61.358073671681879 -31.645088967779188 -10.817198645021037 #
straight-curve $-1 -61.358073671681879 0 -10.817198645021037 0 1 0 I I #
point $-1 -61.358073671681879 31.645088967779188 -10.817198645021037 #
coedge $-1 $369 $368 $361 $407 reversed $271 $-1 #
edge $-1 $408 -31.645088967779188 $410 31.645088967779188 $406 $427 forward 7 unknown #
vertex $-1 $407 $428 #
straight-curve $-1 0 -31.645088967779188 -10.817198645021037 -1 0 0 I I #
vertex $-1 $364 $429 #
straight-curve $-1 0 31.645088967779188 -10.817198645021037 1 0 0 I I #
point $-1 -50.092684421221634 31.645088967779188 -10.817198645021037 #
straight-curve $-1 -61.358073671681879 31.645088967779188 0 0 0 -1 I I #
straight-curve $-1 -61.358073671681879 -31.645088967779188 0 0 0 -1 I I #
straight-curve $-1 -22.26621886032644 -67.281755469286054 10.817198645021037 0 1 0 I I #
point $-1 -22.26621886032644 -31.645088967779188 10.817198645021037 #
straight-curve $-1 -18.08972582038702 -28.360451473850752 10.817198645021037 -1 0 0 I I #
point $-1 -22.26621886032644 -28.360451473850752 10.817198645021037 #
point $-1 -42.142265689537297 -27.461521846709239 6.637943528539723 #
point $-1 -30.216637592010784 -27.461521846709239 6.637943528539723 #
straight-curve $-1 16.734648754643239 31.645088967779188 66.240543801484307 0 0 -1 I I #
point $-1 16.734648754643239 31.645088967779188 10.817198645021037 #
straight-curve $-1 2.2373966297712471 31.645088967779188 0.95475414219713883 -1 0 0 I I #
point $-1 16.734648754643239 31.645088967779188 0.95475414219713173 #
point $-1 -0.77943052407210445 21.243678177105128 0.41578786685375035 #
point $-1 9.7290170431570999 21.243678177105128 0.41578786685375035 #
straight-curve $-1 -61.358073671681879 0 -10.817198645021037 0 1 0 I I #
point $-1 -61.358073671681879 -31.645088967779188 -10.817198645021037 #
point $-1 -61.358073671681879 31.645088967779188 -10.817198645021037 #
End-of-ACIS-data 