500 0 5 0           
7 Unknown 11 ACIS 5.0 NT 24 Fri Mar 26 17:36:33 1999 
-1 9.9999999999999995e-007 1e-010 
body $-1 $5 $-1 $6 #
body $-1 $7 $-1 $8 #
body $-1 $9 $-1 $10 #
body $-1 $11 $-1 $12 #
body $-1 $13 $-1 $14 #
lump $-1 $-1 $15 $0 #
transform $-1 1 0 0 0 1 0 0 0 1 49.306924649800102 25.790469443812036 7.578149322549109 1 rotate no_reflect no_shear #
lump $-1 $-1 $16 $1 #
transform $-1 1 0 0 0 1 0 0 0 1 49.306924649800102 25.790469443812036 7.578149322549109 1 rotate no_reflect no_shear #
lump $-1 $-1 $17 $2 #
transform $-1 1 0 0 0 1 0 0 0 1 49.306924649800102 25.790469443812036 7.578149322549109 1 rotate no_reflect no_shear #
lump $-1 $-1 $18 $3 #
transform $-1 1 0 0 0 1 0 0 0 1 49.306924649800102 25.790469443812036 7.578149322549109 1 rotate no_reflect no_shear #
lump $-1 $-1 $19 $4 #
transform $-1 1 0 0 0 1 0 0 0 1 49.306924649800102 25.790469443812036 7.578149322549109 1 rotate no_reflect no_shear #
shell $-1 $-1 $-1 $20 $-1 $5 #
shell $-1 $-1 $-1 $21 $-1 $7 #
shell $-1 $-1 $-1 $22 $-1 $9 #
shell $-1 $-1 $-1 $23 $-1 $11 #
shell $-1 $-1 $-1 $24 $-1 $13 #
face $-1 $25 $26 $15 $-1 $27 forward single #
face $-1 $28 $29 $16 $-1 $30 reversed single #
face $-1 $31 $32 $17 $-1 $33 forward single #
face $-1 $34 $35 $18 $-1 $36 reversed single #
face $-1 $37 $38 $19 $-1 $39 reversed single #
face $-1 $40 $41 $15 $-1 $42 reversed single #
loop $-1 $-1 $43 $20 #
plane-surface $-1 0 0 7.578149322549109 0 0 1 1 0 0 forward_v I I I I #
face $-1 $44 $45 $16 $-1 $46 reversed single #
loop $-1 $-1 $47 $21 #
plane-surface $-1 -47.53663917998437 -32.906122002780492 0 0 1 0 0 0 1 forward_v I I I I #
face $-1 $48 $49 $17 $-1 $50 forward single #
loop $-1 $-1 $51 $22 #
plane-surface $-1 71.123440241628117 14.756221783942031 139.84568852101879 0 1 0 0.80901700255871778 0 0.5877852410284794 forward_v I I I I #
face $-1 $52 $53 $18 $-1 $54 reversed single #
loop $-1 $55 $56 $23 #
cone-surface $-1 46.376321677525077 17.908863972476318 4.1561137354878905 -0.80901700255871778 0 -0.5877852410284794 0.5877852410284794 0 -0.80901700255871778 1 I I 0 1 1 forward I I I I #
face $-1 $57 $58 $19 $-1 $59 reversed single #
loop $-1 $60 $61 $24 #
cone-surface $-1 46.376321677525077 22.637827255277749 4.1561137354878905 -0.80901700255871778 0 -0.5877852410284794 0.5877852410284794 0 -0.80901700255871778 1 I I 0 1 1 forward I I I I #
face $-1 $62 $63 $15 $-1 $64 reversed single #
loop $-1 $-1 $65 $25 #
plane-surface $-1 0 0 -7.578149322549109 0 0 1 1 0 0 forward_v I I I I #
coedge $-1 $66 $67 $68 $69 forward $26 $-1 #
face $-1 $70 $71 $16 $-1 $72 reversed single #
loop $-1 $-1 $73 $28 #
plane-surface $-1 -45.766353710168637 -29.348295723296264 0 -1 0 0 0 0 1 forward_v I I I I #
coedge $-1 $74 $75 $76 $77 forward $29 $-1 #
face $-1 $78 $79 $17 $-1 $80 reversed single #
loop $-1 $-1 $81 $31 #
plane-surface $-1 -8.6568405295115554 20.273345613877034 81.881923341707136 0.80901700255871778 0 0.5877852410284794 0.5877852410284794 0 -0.80901700255871778 forward_v I I I I #
coedge $-1 $82 $83 $84 $85 reversed $32 $-1 #
face $-1 $86 $87 $18 $-1 $88 forward single #
loop $-1 $89 $90 $34 #
cone-surface $-1 45.030667675832667 17.908863972476318 3.1784389039032419 -0.80901700255871778 0 -0.5877852410284794 0.2938926205142397 0 -0.40450850127935889 1 I I -0.70710678118654746 0.70710678118654746 0.5 forward I I I I #
loop $-1 $-1 $91 $23 #
coedge $-1 $56 $56 $92 $93 reversed $35 $-1 #
face $-1 $94 $95 $19 $-1 $96 reversed single #
loop $-1 $97 $98 $37 #
cone-surface $-1 45.030667675832667 22.637827255277749 3.1784389039032419 -0.80901700255871778 0 -0.5877852410284794 0.2938926205142397 0 -0.40450850127935889 1 I I -0.70710678118654746 0.70710678118654746 0.5 forward I I I I #
loop $-1 $-1 $99 $24 #
coedge $-1 $61 $61 $100 $101 reversed $38 $-1 #
face $-1 $102 $103 $15 $-1 $104 reversed single #
loop $-1 $-1 $105 $40 #
plane-surface $-1 0 -25.790469443812036 0 0 1 0 0 0 1 forward_v I I I I #
coedge $-1 $106 $107 $108 $109 forward $41 $-1 #
coedge $-1 $110 $43 $111 $112 forward $26 $-1 #
coedge $-1 $43 $110 $113 $114 forward $26 $-1 #
coedge $-1 $115 $116 $43 $69 reversed $117 $-1 #
edge $-1 $118 -25.790469443812036 $119 25.790469443812036 $68 $120 forward 7 unknown #
face $-1 $121 $122 $16 $-1 $123 forward single #
loop $-1 $-1 $124 $44 #
plane-surface $-1 0 -25.790469443812036 0 0 1 0 0 0 1 forward_v I I I I #
coedge $-1 $125 $126 $127 $128 forward $45 $-1 #
coedge $-1 $127 $47 $129 $130 reversed $29 $-1 #
coedge $-1 $47 $127 $131 $132 reversed $29 $-1 #
coedge $-1 $133 $134 $47 $77 reversed $135 $-1 #
edge $-1 $136 -7.578149322549109 $137 7.578149322549109 $76 $138 forward 7 unknown #
face $-1 $139 $140 $17 $-1 $141 forward single #
loop $-1 $-1 $142 $48 #
plane-surface $-1 49.306924649800102 0 0 -1 0 0 0 0 1 forward_v I I I I #
coedge $-1 $143 $144 $142 $145 reversed $49 $-1 #
coedge $-1 $83 $51 $144 $146 forward $32 $-1 #
coedge $-1 $51 $82 $147 $148 reversed $32 $-1 #
coedge $-1 $149 $142 $51 $85 forward $79 $-1 #
edge $-1 $150 -67.82120168994193 $151 -62.344694937960284 $84 $152 forward 7 unknown #
face $-1 $153 $154 $18 $-1 $155 forward single #
loop $-1 $-1 $156 $52 #
plane-surface $-1 71.123440241628117 14.756221783942031 139.84568852101879 0 1 0 0.80901700255871778 0 0.5877852410284794 forward_v I I I I #
loop $-1 $-1 $157 $34 #
coedge $-1 $90 $90 $91 $158 forward $53 $-1 #
coedge $-1 $91 $91 $90 $158 reversed $55 $-1 #
coedge $-1 $92 $92 $56 $93 forward $154 $-1 #
edge $-1 $159 0 $159 6.2831853071796004 $92 $160 forward 7 unknown #
face $-1 $161 $162 $19 $-1 $163 reversed single #
loop $-1 $164 $165 $57 #
cone-surface $-1 46.376321677525077 17.908863972476318 4.1561137354878905 -0.80901700255871778 0 -0.5877852410284794 0.5877852410284794 0 -0.80901700255871778 1 I I 0 1 1 forward I I I I #
loop $-1 $-1 $166 $37 #
coedge $-1 $98 $98 $99 $167 forward $58 $-1 #
coedge $-1 $99 $99 $98 $167 reversed $60 $-1 #
coedge $-1 $100 $100 $61 $101 forward $168 $-1 #
edge $-1 $169 0 $169 6.2831853071796004 $100 $170 forward 7 unknown #
face $-1 $171 $172 $15 $-1 $173 reversed single #
loop $-1 $-1 $174 $62 #
plane-surface $-1 -49.306924649800102 0 0 1 0 0 0 0 -1 forward_v I I I I #
coedge $-1 $175 $113 $176 $177 forward $63 $-1 #
coedge $-1 $178 $65 $175 $179 forward $41 $-1 #
coedge $-1 $65 $178 $180 $181 forward $41 $-1 #
coedge $-1 $116 $115 $65 $109 reversed $117 $-1 #
edge $-1 $182 -25.790469443812036 $183 25.790469443812036 $108 $184 forward 7 unknown #
coedge $-1 $67 $66 $185 $186 forward $26 $-1 #
coedge $-1 $187 $188 $66 $112 reversed $172 $-1 #
edge $-1 $119 -49.306924649800102 $189 49.306924649800102 $111 $190 forward 7 unknown #
coedge $-1 $105 $191 $67 $114 reversed $63 $-1 #
edge $-1 $192 -49.306924649800102 $118 49.306924649800102 $113 $193 forward 7 unknown #
coedge $-1 $108 $68 $191 $194 forward $117 $-1 #
coedge $-1 $68 $108 $187 $195 reversed $117 $-1 #
loop $-1 $-1 $115 $171 #
vertex $-1 $69 $196 #
vertex $-1 $69 $197 #
straight-curve $-1 49.306924649800102 0 7.578149322549109 0 1 0 I I #
face $-1 $198 $199 $16 $-1 $200 reversed single #
loop $-1 $-1 $201 $70 #
plane-surface $-1 0 0 7.578149322549109 0 0 1 1 0 0 forward_v I I I I #
coedge $-1 $202 $203 $204 $205 forward $71 $-1 #
coedge $-1 $204 $73 $206 $207 reversed $45 $-1 #
coedge $-1 $73 $204 $208 $209 reversed $45 $-1 #
coedge $-1 $75 $74 $73 $128 reversed $29 $-1 #
edge $-1 $210 -7.578149322549109 $211 7.578149322549109 $73 $212 forward 7 unknown #
coedge $-1 $213 $206 $74 $130 forward $199 $-1 #
edge $-1 $211 -1.7702854698157324 $137 1.7702854698157324 $74 $214 forward 7 unknown #
coedge $-1 $208 $215 $75 $132 forward $122 $-1 #
edge $-1 $136 -1.7702854698157324 $210 1.7702854698157324 $75 $216 forward 7 unknown #
coedge $-1 $217 $76 $215 $218 reversed $135 $-1 #
coedge $-1 $76 $217 $213 $219 reversed $135 $-1 #
loop $-1 $-1 $217 $198 #
vertex $-1 $218 $220 #
vertex $-1 $219 $221 #
straight-curve $-1 -49.306924649800102 -32.906122002780492 0 0 0 -1 I I #
face $-1 $222 $223 $17 $-1 $224 reversed single #
loop $-1 $-1 $147 $78 #
plane-surface $-1 0 0 7.578149322549109 0 0 1 1 0 0 forward_v I I I I #
coedge $-1 $84 $225 $81 $145 forward $79 $-1 #
coedge $-1 $226 $81 $227 $228 reversed $49 $-1 #
coedge $-1 $81 $226 $82 $146 reversed $49 $-1 #
edge $-1 $229 -15.653796636873519 $150 -4.6195489770035145 $142 $230 forward 7 unknown #
edge $-1 $150 -98.613849299600204 $231 -91.844514743390846 $82 $232 forward 7 unknown #
coedge $-1 $233 $234 $83 $148 forward $140 $-1 #
edge $-1 $151 -13.745204528986044 $231 -9.7662895852621077 $147 $235 forward 7 unknown #
coedge $-1 $236 $84 $234 $237 reversed $79 $-1 #
vertex $-1 $145 $238 #
vertex $-1 $148 $239 #
straight-curve $-1 49.306924649800102 14.756221783942031 69.922844260509393 0 0 1 I I #
face $-1 $240 $241 $18 $-1 $242 reversed single #
loop $-1 $243 $92 $86 #
plane-surface $-1 -8.6568405295115554 20.273345613877034 81.881923341707136 0.80901700255871778 0 0.5877852410284794 0.5877852410284794 0 -0.80901700255871778 forward_v I I I I #
coedge $-1 $244 $245 $246 $247 reversed $87 $-1 #
coedge $-1 $157 $157 $-1 $248 forward $89 $-1 #
edge $-1 $249 0 $249 6.2831853071796004 $90 $250 forward 7 unknown #
vertex $-1 $93 $251 #
ellipse-curve $-1 47.317467177938127 17.908863972476318 4.8398959465582969 -0.80901700255871778 0 -0.5877852410284794 0.5877852410284794 0 -0.80901700255871778 1 I I #
face $-1 $252 $253 $19 $-1 $254 forward single #
loop $-1 $255 $256 $94 #
cone-surface $-1 45.030667675832667 17.908863972476318 3.1784389039032419 -0.80901700255871778 0 -0.5877852410284794 0.2938926205142397 0 -0.40450850127935889 1 I I -0.70710678118654746 0.70710678118654746 0.5 forward I I I I #
loop $-1 $-1 $257 $57 #
coedge $-1 $165 $165 $258 $259 reversed $95 $-1 #
coedge $-1 $166 $166 $-1 $260 forward $97 $-1 #
edge $-1 $261 0 $261 6.2831853071796004 $98 $262 forward 7 unknown #
loop $-1 $263 $100 $252 #
vertex $-1 $101 $264 #
ellipse-curve $-1 47.317467177938127 22.637827255277749 4.8398959465582969 -0.80901700255871778 0 -0.5877852410284794 0.5877852410284794 0 -0.80901700255871778 1 I I #
face $-1 $-1 $117 $15 $-1 $265 reversed single #
loop $-1 $-1 $187 $102 #
plane-surface $-1 0 25.790469443812036 0 0 -1 0 0 0 -1 forward_v I I I I #
coedge $-1 $266 $185 $188 $267 forward $103 $-1 #
coedge $-1 $191 $105 $106 $179 reversed $63 $-1 #
coedge $-1 $185 $266 $105 $177 reversed $103 $-1 #
edge $-1 $192 -7.578149322549109 $268 7.578149322549109 $176 $269 forward 7 unknown #
coedge $-1 $107 $106 $266 $270 forward $41 $-1 #
edge $-1 $183 -49.306924649800102 $268 49.306924649800102 $175 $271 forward 7 unknown #
coedge $-1 $188 $187 $107 $181 reversed $172 $-1 #
edge $-1 $272 -49.306924649800102 $182 49.306924649800102 $180 $273 forward 7 unknown #
vertex $-1 $109 $274 #
vertex $-1 $194 $275 #
straight-curve $-1 49.306924649800102 0 -7.578149322549109 0 -1 0 I I #
coedge $-1 $174 $176 $110 $186 reversed $103 $-1 #
edge $-1 $189 -25.790469443812036 $192 25.790469443812036 $185 $276 forward 7 unknown #
coedge $-1 $180 $111 $116 $195 forward $172 $-1 #
coedge $-1 $111 $180 $174 $267 reversed $172 $-1 #
vertex $-1 $112 $277 #
straight-curve $-1 0 25.790469443812036 7.578149322549109 -1 0 0 I I #
coedge $-1 $113 $175 $115 $194 reversed $63 $-1 #
vertex $-1 $186 $278 #
straight-curve $-1 0 -25.790469443812036 7.578149322549109 1 0 0 I I #
edge $-1 $118 -7.578149322549109 $183 7.578149322549109 $115 $279 forward 7 unknown #
edge $-1 $119 -7.578149322549109 $182 7.578149322549109 $116 $280 forward 7 unknown #
point $-1 49.306924649800102 -25.790469443812036 7.578149322549109 #
point $-1 49.306924649800102 25.790469443812036 7.578149322549109 #
face $-1 $281 $135 $16 $-1 $282 reversed single #
loop $-1 $-1 $283 $121 #
plane-surface $-1 0 0 -7.578149322549109 0 0 1 1 0 0 forward_v I I I I #
coedge $-1 $284 $285 $286 $287 forward $122 $-1 #
coedge $-1 $288 $124 $289 $290 reversed $71 $-1 #
coedge $-1 $124 $288 $285 $291 reversed $71 $-1 #
coedge $-1 $126 $125 $124 $205 reversed $45 $-1 #
edge $-1 $292 -7.578149322549109 $293 7.578149322549109 $124 $294 forward 7 unknown #
coedge $-1 $129 $289 $125 $207 forward $199 $-1 #
edge $-1 $293 -3.5578262794842281 $211 3.5578262794842281 $125 $295 forward 7 unknown #
coedge $-1 $285 $131 $126 $209 forward $122 $-1 #
edge $-1 $210 -3.5578262794842281 $292 3.5578262794842281 $126 $296 forward 7 unknown #
vertex $-1 $209 $297 #
vertex $-1 $128 $298 #
straight-curve $-1 -45.766353710168637 -32.906122002780492 0 0 0 -1 I I #
coedge $-1 $299 $129 $134 $219 forward $199 $-1 #
straight-curve $-1 -47.53663917998437 -32.906122002780492 -7.578149322549109 -1 0 0 I I #
coedge $-1 $131 $284 $133 $218 forward $122 $-1 #
straight-curve $-1 -47.53663917998437 -32.906122002780492 7.578149322549109 1 0 0 I I #
coedge $-1 $134 $133 $300 $301 forward $135 $-1 #
edge $-1 $302 -25.790469443812036 $136 32.906122002780492 $133 $303 forward 7 unknown #
edge $-1 $137 -32.906122002780492 $304 25.790469443812036 $134 $305 forward 7 unknown #
point $-1 -49.306924649800102 -32.906122002780492 7.578149322549109 #
point $-1 -49.306924649800102 -32.906122002780492 -7.578149322549109 #
face $-1 $306 $307 $17 $-1 $308 reversed single #
loop $-1 $-1 $309 $139 #
plane-surface $-1 -47.53663917998437 -32.906122002780492 0 0 1 0 0 0 1 forward_v I I I I #
coedge $-1 $142 $310 $311 $312 reversed $79 $-1 #
coedge $-1 $144 $143 $233 $313 reversed $49 $-1 #
coedge $-1 $311 $314 $143 $228 forward $315 $-1 #
edge $-1 $316 56.178399101973518 $229 62.947733658182877 $227 $317 forward 7 unknown #
vertex $-1 $312 $318 #
straight-curve $-1 49.306924649800102 10.136672806938517 2.1016425705674635 0 -1 0 I I #
vertex $-1 $313 $319 #
straight-curve $-1 -8.6568405295115554 14.756221783942031 81.881923341707136 -0.5877852410284794 0 0.80901700255871778 I I #
coedge $-1 $320 $147 $226 $313 forward $140 $-1 #
coedge $-1 $147 $321 $149 $237 forward $140 $-1 #
straight-curve $-1 35.561720120814059 14.756221783942031 7.578149322549109 -1 0 0 I I #
coedge $-1 $310 $149 $322 $323 forward $79 $-1 #
edge $-1 $324 -25.790469443812036 $151 14.756221783942031 $149 $325 forward 7 unknown #
point $-1 49.306924649800102 14.756221783942031 2.1016425705674635 #
point $-1 49.306924649800102 14.756221783942031 7.578149322549109 #
face $-1 $326 $327 $18 $-1 $328 forward single #
loop $-1 $-1 $329 $153 #
plane-surface $-1 49.306924649800102 0 0 -1 0 0 0 0 1 forward_v I I I I #
loop $-1 $-1 $330 $86 #
coedge $-1 $245 $156 $331 $332 forward $87 $-1 #
coedge $-1 $156 $244 $333 $334 reversed $87 $-1 #
coedge $-1 $335 $329 $156 $247 forward $241 $-1 #
edge $-1 $336 -67.82120168994193 $337 -62.344694937960284 $246 $338 forward 7 unknown #
edge $-1 $339 1 $339 0 $157 $-1 forward 7 unknown #
vertex $-1 $158 $340 #
ellipse-curve $-1 45.435176177112027 17.908863972476318 3.4723315244174815 0.80901700255871778 0 0.5877852410284794 0.5877852410284794 0 -0.80901700255871778 1 I I #
point $-1 47.905252418966612 17.908863972476318 4.030878943999582 #
face $-1 $341 $168 $19 $-1 $342 forward single #
loop $-1 $-1 $343 $161 #
plane-surface $-1 71.123440241628117 14.756221783942031 139.84568852101879 0 1 0 0.80901700255871778 0 0.5877852410284794 forward_v I I I I #
loop $-1 $-1 $344 $94 #
coedge $-1 $256 $256 $257 $345 forward $162 $-1 #
coedge $-1 $257 $257 $256 $345 reversed $164 $-1 #
coedge $-1 $258 $258 $165 $259 forward $263 $-1 #
edge $-1 $346 0 $346 6.2831853071796004 $258 $347 forward 7 unknown #
edge $-1 $348 1 $348 0 $166 $-1 forward 7 unknown #
vertex $-1 $167 $349 #
ellipse-curve $-1 45.435176177112027 22.637827255277749 3.4723315244174815 0.80901700255871778 0 0.5877852410284794 0.5877852410284794 0 -0.80901700255871778 1 I I #
loop $-1 $350 $258 $252 #
point $-1 47.905252418966612 22.637827255277749 4.030878943999582 #
plane-surface $-1 49.306924649800102 0 0 -1 0 0 0 0 1 forward_v I I I I #
coedge $-1 $176 $174 $178 $270 reversed $103 $-1 #
edge $-1 $189 -7.578149322549109 $272 7.578149322549109 $188 $351 forward 7 unknown #
vertex $-1 $270 $352 #
straight-curve $-1 -49.306924649800102 -25.790469443812036 0 0 0 -1 I I #
edge $-1 $268 -25.790469443812036 $272 25.790469443812036 $266 $353 forward 7 unknown #
straight-curve $-1 0 -25.790469443812036 -7.578149322549109 -1 0 0 I I #
vertex $-1 $181 $354 #
straight-curve $-1 0 25.790469443812036 -7.578149322549109 1 0 0 I I #
point $-1 49.306924649800102 25.790469443812036 -7.578149322549109 #
point $-1 49.306924649800102 -25.790469443812036 -7.578149322549109 #
straight-curve $-1 -49.306924649800102 0 7.578149322549109 0 -1 0 I I #
point $-1 -49.306924649800102 25.790469443812036 7.578149322549109 #
point $-1 -49.306924649800102 -25.790469443812036 7.578149322549109 #
straight-curve $-1 49.306924649800102 -25.790469443812036 0 0 0 -1 I I #
straight-curve $-1 49.306924649800102 25.790469443812036 0 0 0 -1 I I #
face $-1 $355 $356 $16 $-1 $357 reversed single #
plane-surface $-1 -49.306924649800102 0 0 1 0 0 0 0 -1 forward_v I I I I #
coedge $-1 $289 $299 $358 $359 forward $199 $-1 #
coedge $-1 $215 $201 $360 $361 forward $122 $-1 #
coedge $-1 $201 $208 $203 $291 forward $122 $-1 #
coedge $-1 $362 $363 $201 $287 reversed $364 $-1 #
edge $-1 $365 -25.790469443812036 $366 25.790469443812036 $286 $367 forward 7 unknown #
coedge $-1 $203 $202 $362 $368 reversed $71 $-1 #
coedge $-1 $206 $283 $202 $290 forward $199 $-1 #
edge $-1 $369 -49.306924649800102 $293 45.766353710168637 $202 $370 forward 7 unknown #
edge $-1 $292 -45.766353710168637 $365 49.306924649800102 $203 $371 forward 7 unknown #
vertex $-1 $291 $372 #
vertex $-1 $207 $373 #
straight-curve $-1 -45.766353710168637 -25.790469443812036 0 0 0 -1 I I #
straight-curve $-1 -45.766353710168637 -29.348295723296264 -7.578149322549109 0 -1 0 I I #
straight-curve $-1 -45.766353710168637 -29.348295723296264 7.578149322549109 0 1 0 I I #
point $-1 -45.766353710168637 -32.906122002780492 7.578149322549109 #
point $-1 -45.766353710168637 -32.906122002780492 -7.578149322549109 #
coedge $-1 $283 $213 $374 $375 forward $199 $-1 #
coedge $-1 $360 $374 $217 $301 reversed $356 $-1 #
edge $-1 $302 -7.578149322549109 $304 7.578149322549109 $300 $376 forward 7 unknown #
vertex $-1 $361 $377 #
straight-curve $-1 -49.306924649800102 0 7.578149322549109 0 -1 0 I I #
vertex $-1 $375 $378 #
straight-curve $-1 -49.306924649800102 0 -7.578149322549109 0 1 0 I I #
face $-1 $379 $380 $17 $-1 $381 reversed single #
loop $-1 $-1 $382 $222 #
plane-surface $-1 -45.766353710168637 -29.348295723296264 0 -1 0 0 0 0 1 forward_v I I I I #
coedge $-1 $383 $384 $385 $386 forward $223 $-1 #
coedge $-1 $225 $236 $387 $388 reversed $79 $-1 #
coedge $-1 $389 $227 $225 $312 forward $315 $-1 #
edge $-1 $229 -2.1016425705674675 $390 7.578149322549109 $225 $391 forward 7 unknown #
edge $-1 $231 4.6195489770035145 $316 15.653796636873519 $233 $392 forward 7 unknown #
coedge $-1 $227 $393 $320 $394 reversed $315 $-1 #
loop $-1 $-1 $227 $395 #
vertex $-1 $394 $396 #
straight-curve $-1 12.307175849328555 25.790469443812036 53.027429372575085 0.5877852410284794 0 -0.80901700255871778 I I #
point $-1 49.306924649800102 25.790469443812036 2.1016425705674675 #
point $-1 45.328009706076166 14.756221783942031 7.578149322549109 #
coedge $-1 $397 $233 $314 $394 forward $140 $-1 #
coedge $-1 $234 $398 $399 $400 forward $140 $-1 #
coedge $-1 $399 $401 $236 $323 reversed $380 $-1 #
edge $-1 $324 -7.578149322549109 $402 7.578149322549109 $236 $403 forward 7 unknown #
vertex $-1 $237 $404 #
straight-curve $-1 49.306924649800102 0 7.578149322549109 0 1 0 I I #
face $-1 $405 $406 $18 $-1 $407 reversed single #
loop $-1 $-1 $333 $240 #
plane-surface $-1 0 0 7.578149322549109 0 0 1 1 0 0 forward_v I I I I #
coedge $-1 $246 $408 $330 $409 forward $241 $-1 #
coedge $-1 $410 $331 $329 $409 reversed $243 $-1 #
coedge $-1 $330 $411 $244 $332 reversed $243 $-1 #
edge $-1 $336 -98.613849299600204 $412 -91.844514743390846 $244 $413 forward 7 unknown #
coedge $-1 $414 $415 $245 $334 forward $327 $-1 #
edge $-1 $337 -13.745204528986044 $412 -9.7662895852621077 $333 $416 forward 7 unknown #
coedge $-1 $417 $246 $415 $418 reversed $241 $-1 #
vertex $-1 $409 $419 #
vertex $-1 $334 $420 #
straight-curve $-1 49.306924649800102 14.756221783942031 69.922844260509393 0 0 1 I I #
vertex $-1 $248 $421 #
point $-1 46.022961418140504 17.908863972476318 2.6633145218587639 #
face $-1 $422 $423 $19 $-1 $424 reversed single #
plane-surface $-1 -8.6568405295115554 20.273345613877034 81.881923341707136 0.80901700255871778 0 0.5877852410284794 0.5877852410284794 0 -0.80901700255871778 forward_v I I I I #
coedge $-1 $425 $426 $427 $428 reversed $253 $-1 #
coedge $-1 $344 $344 $-1 $429 forward $255 $-1 #
edge $-1 $430 0 $430 6.2831853071796004 $256 $431 forward 7 unknown #
vertex $-1 $259 $432 #
ellipse-curve $-1 47.317467177938127 17.908863972476318 4.8398959465582969 -0.80901700255871778 0 -0.5877852410284794 0.5877852410284794 0 -0.80901700255871778 1 I I #
vertex $-1 $260 $433 #
point $-1 46.022961418140504 22.637827255277749 2.6633145218587639 #
loop $-1 $-1 $434 $252 #
straight-curve $-1 -49.306924649800102 25.790469443812036 0 0 0 -1 I I #
point $-1 -49.306924649800102 -25.790469443812036 -7.578149322549109 #
straight-curve $-1 -49.306924649800102 0 -7.578149322549109 0 1 0 I I #
point $-1 -49.306924649800102 25.790469443812036 -7.578149322549109 #
face $-1 $-1 $364 $16 $-1 $435 reversed single #
loop $-1 $-1 $436 $281 #
plane-surface $-1 0 25.790469443812036 0 0 -1 0 0 0 -1 forward_v I I I I #
coedge $-1 $363 $362 $283 $359 reversed $364 $-1 #
edge $-1 $437 -25.790469443812036 $369 25.790469443812036 $358 $438 forward 7 unknown #
coedge $-1 $436 $300 $284 $361 reversed $356 $-1 #
edge $-1 $366 -49.306924649800102 $302 49.306924649800102 $360 $439 forward 7 unknown #
coedge $-1 $358 $286 $288 $368 forward $364 $-1 #
coedge $-1 $286 $358 $436 $440 reversed $364 $-1 #
loop $-1 $-1 $362 $355 #
vertex $-1 $287 $441 #
vertex $-1 $287 $442 #
straight-curve $-1 49.306924649800102 0 7.578149322549109 0 1 0 I I #
edge $-1 $365 -7.578149322549109 $369 7.578149322549109 $362 $443 forward 7 unknown #
vertex $-1 $368 $444 #
straight-curve $-1 0 -25.790469443812036 -7.578149322549109 -1 0 0 I I #
straight-curve $-1 0 -25.790469443812036 7.578149322549109 1 0 0 I I #
point $-1 -45.766353710168637 -25.790469443812036 7.578149322549109 #
point $-1 -45.766353710168637 -25.790469443812036 -7.578149322549109 #
coedge $-1 $300 $436 $299 $375 reversed $356 $-1 #
edge $-1 $304 -49.306924649800102 $437 49.306924649800102 $374 $445 forward 7 unknown #
straight-curve $-1 -49.306924649800102 25.790469443812036 0 0 0 -1 I I #
point $-1 -49.306924649800102 25.790469443812036 7.578149322549109 #
point $-1 -49.306924649800102 25.790469443812036 -7.578149322549109 #
face $-1 $446 $447 $17 $-1 $448 reversed single #
loop $-1 $-1 $449 $306 #
plane-surface $-1 0 -25.790469443812036 0 0 1 0 0 0 1 forward_v I I I I #
coedge $-1 $450 $451 $452 $453 forward $307 $-1 #
coedge $-1 $452 $309 $454 $455 reversed $223 $-1 #
coedge $-1 $309 $452 $456 $457 reversed $223 $-1 #
coedge $-1 $458 $459 $309 $386 reversed $460 $-1 #
edge $-1 $461 -7.578149322549109 $462 7.578149322549109 $385 $463 forward 7 unknown #
coedge $-1 $464 $465 $310 $388 forward $447 $-1 #
edge $-1 $390 -25.790469443812036 $402 25.790469443812036 $310 $466 forward 7 unknown #
coedge $-1 $393 $311 $465 $467 reversed $315 $-1 #
vertex $-1 $388 $468 #
straight-curve $-1 49.306924649800102 25.790469443812036 0 0 0 -1 I I #
straight-curve $-1 45.328009706076159 10.136672806938517 7.578149322549109 0 1 0 I I #
coedge $-1 $314 $389 $469 $470 reversed $315 $-1 #
edge $-1 $316 -45.328009706076166 $471 49.306924649800102 $314 $472 forward 7 unknown #
face $-1 $-1 $315 $17 $-1 $473 reversed single #
point $-1 45.328009706076166 25.790469443812036 7.578149322549109 #
coedge $-1 $456 $320 $458 $474 forward $140 $-1 #
coedge $-1 $321 $456 $451 $475 forward $140 $-1 #
coedge $-1 $449 $322 $321 $400 reversed $380 $-1 #
edge $-1 $476 -45.766353710168637 $324 49.306924649800102 $399 $477 forward 7 unknown #
coedge $-1 $322 $449 $464 $478 reversed $380 $-1 #
vertex $-1 $323 $479 #
straight-curve $-1 49.306924649800102 -25.790469443812036 0 0 0 -1 I I #
point $-1 49.306924649800102 -25.790469443812036 7.578149322549109 #
face $-1 $480 $481 $18 $-1 $482 reversed single #
loop $-1 $-1 $483 $326 #
plane-surface $-1 -47.53663917998437 -32.906122002780492 0 0 1 0 0 0 1 forward_v I I I I #
coedge $-1 $329 $484 $485 $486 reversed $241 $-1 #
edge $-1 $487 -15.653796636873519 $336 -4.6195489770035145 $329 $488 forward 7 unknown #
coedge $-1 $411 $330 $489 $490 reversed $243 $-1 #
coedge $-1 $331 $410 $414 $491 reversed $243 $-1 #
vertex $-1 $491 $492 #
straight-curve $-1 -8.6568405295115554 14.756221783942031 81.881923341707136 -0.5877852410284794 0 0.80901700255871778 I I #
coedge $-1 $493 $333 $411 $491 forward $327 $-1 #
coedge $-1 $333 $494 $335 $418 forward $327 $-1 #
straight-curve $-1 35.561720120814059 14.756221783942031 7.578149322549109 -1 0 0 I I #
coedge $-1 $484 $335 $495 $496 forward $241 $-1 #
edge $-1 $497 -25.790469443812036 $337 14.756221783942031 $335 $498 forward 7 unknown #
point $-1 49.306924649800102 14.756221783942031 2.1016425705674635 #
point $-1 49.306924649800102 14.756221783942031 7.578149322549109 #
point $-1 44.626159174553308 17.908863972476318 2.8845462833890023 #
face $-1 $499 $500 $19 $-1 $501 forward single #
loop $-1 $-1 $502 $341 #
plane-surface $-1 49.306924649800102 0 0 -1 0 0 0 0 1 forward_v I I I I #
coedge $-1 $426 $343 $503 $504 forward $253 $-1 #
coedge $-1 $343 $425 $505 $506 reversed $253 $-1 #
coedge $-1 $507 $502 $343 $428 forward $423 $-1 #
edge $-1 $508 -67.82120168994193 $509 -62.344694937960284 $427 $510 forward 7 unknown #
edge $-1 $511 1 $511 0 $344 $-1 forward 7 unknown #
vertex $-1 $345 $512 #
ellipse-curve $-1 45.435176177112027 17.908863972476318 3.4723315244174815 0.80901700255871778 0 0.5877852410284794 0.5877852410284794 0 -0.80901700255871778 1 I I #
point $-1 47.905252418966612 17.908863972476318 4.030878943999582 #
point $-1 44.626159174553308 22.637827255277749 2.8845462833890023 #
coedge $-1 $513 $503 $502 $514 reversed $350 $-1 #
plane-surface $-1 49.306924649800102 0 0 -1 0 0 0 0 1 forward_v I I I I #
coedge $-1 $374 $360 $363 $440 forward $356 $-1 #
vertex $-1 $359 $515 #
straight-curve $-1 49.306924649800102 0 -7.578149322549109 0 -1 0 I I #
straight-curve $-1 0 25.790469443812036 7.578149322549109 -1 0 0 I I #
edge $-1 $366 -7.578149322549109 $437 7.578149322549109 $363 $516 forward 7 unknown #
point $-1 49.306924649800102 -25.790469443812036 7.578149322549109 #
point $-1 49.306924649800102 25.790469443812036 7.578149322549109 #
straight-curve $-1 49.306924649800102 -25.790469443812036 0 0 0 -1 I I #
point $-1 49.306924649800102 -25.790469443812036 -7.578149322549109 #
straight-curve $-1 0 25.790469443812036 -7.578149322549109 1 0 0 I I #
face $-1 $395 $460 $17 $-1 $517 reversed single #
loop $-1 $-1 $387 $379 #
plane-surface $-1 0 0 -7.578149322549109 0 0 1 1 0 0 forward_v I I I I #
coedge $-1 $401 $399 $518 $519 forward $380 $-1 #
coedge $-1 $518 $382 $520 $521 reversed $307 $-1 #
coedge $-1 $382 $518 $398 $475 reversed $307 $-1 #
coedge $-1 $384 $383 $382 $453 reversed $223 $-1 #
edge $-1 $522 -7.578149322549109 $523 7.578149322549109 $382 $524 forward 7 unknown #
coedge $-1 $525 $520 $383 $455 forward $447 $-1 #
edge $-1 $523 -1.7702854698157324 $462 1.7702854698157324 $383 $526 forward 7 unknown #
coedge $-1 $398 $397 $384 $457 forward $140 $-1 #
edge $-1 $461 -1.7702854698157324 $522 1.7702854698157324 $384 $527 forward 7 unknown #
coedge $-1 $469 $385 $397 $474 reversed $460 $-1 #
coedge $-1 $385 $469 $525 $528 reversed $460 $-1 #
loop $-1 $-1 $469 $446 #
vertex $-1 $474 $529 #
vertex $-1 $528 $530 #
straight-curve $-1 -49.306924649800102 -32.906122002780492 0 0 0 -1 I I #
coedge $-1 $520 $387 $401 $478 forward $447 $-1 #
coedge $-1 $387 $525 $389 $467 forward $447 $-1 #
straight-curve $-1 49.306924649800102 0 -7.578149322549109 0 -1 0 I I #
edge $-1 $531 -49.306924649800102 $390 49.306924649800102 $389 $532 forward 7 unknown #
point $-1 49.306924649800102 25.790469443812036 -7.578149322549109 #
coedge $-1 $459 $458 $393 $470 forward $460 $-1 #
edge $-1 $471 -7.578149322549109 $531 7.578149322549109 $393 $533 forward 7 unknown #
vertex $-1 $394 $534 #
straight-curve $-1 0 25.790469443812036 7.578149322549109 -1 0 0 I I #
plane-surface $-1 0 25.790469443812036 0 0 -1 0 0 0 -1 forward_v I I I I #
edge $-1 $471 -25.790469443812036 $461 32.906122002780492 $458 $535 forward 7 unknown #
edge $-1 $522 -3.5578262794842281 $476 3.5578262794842281 $451 $536 forward 7 unknown #
vertex $-1 $400 $537 #
straight-curve $-1 0 -25.790469443812036 7.578149322549109 1 0 0 I I #
edge $-1 $402 -49.306924649800102 $538 45.766353710168637 $401 $539 forward 7 unknown #
point $-1 49.306924649800102 -25.790469443812036 -7.578149322549109 #
face $-1 $540 $541 $18 $-1 $542 reversed single #
loop $-1 $-1 $543 $405 #
plane-surface $-1 -45.766353710168637 -29.348295723296264 0 -1 0 0 0 0 1 forward_v I I I I #
coedge $-1 $544 $545 $546 $547 forward $406 $-1 #
coedge $-1 $408 $417 $548 $549 reversed $241 $-1 #
coedge $-1 $550 $489 $408 $486 forward $551 $-1 #
edge $-1 $487 -2.1016425705674675 $552 7.578149322549109 $408 $553 forward 7 unknown #
vertex $-1 $486 $554 #
straight-curve $-1 49.306924649800102 10.136672806938517 2.1016425705674635 0 -1 0 I I #
coedge $-1 $485 $555 $410 $490 forward $551 $-1 #
edge $-1 $556 56.178399101973518 $487 62.947733658182877 $489 $557 forward 7 unknown #
edge $-1 $412 4.6195489770035145 $556 15.653796636873519 $414 $558 forward 7 unknown #
point $-1 45.328009706076166 14.756221783942031 7.578149322549109 #
coedge $-1 $559 $414 $555 $560 forward $327 $-1 #
coedge $-1 $415 $561 $562 $563 forward $327 $-1 #
coedge $-1 $562 $564 $417 $496 reversed $541 $-1 #
edge $-1 $497 -7.578149322549109 $565 7.578149322549109 $417 $566 forward 7 unknown #
vertex $-1 $418 $567 #
straight-curve $-1 49.306924649800102 0 7.578149322549109 0 1 0 I I #
face $-1 $568 $569 $19 $-1 $570 reversed single #
loop $-1 $-1 $505 $422 #
plane-surface $-1 0 0 7.578149322549109 0 0 1 1 0 0 forward_v I I I I #
coedge $-1 $427 $571 $434 $514 forward $423 $-1 #
coedge $-1 $434 $572 $425 $504 reversed $350 $-1 #
edge $-1 $508 -98.613849299600204 $573 -91.844514743390846 $425 $574 forward 7 unknown #
coedge $-1 $575 $576 $426 $506 forward $500 $-1 #
edge $-1 $509 -13.745204528986044 $573 -9.7662895852621077 $505 $577 forward 7 unknown #
coedge $-1 $578 $427 $576 $579 reversed $423 $-1 #
vertex $-1 $514 $580 #
vertex $-1 $506 $581 #
straight-curve $-1 49.306924649800102 14.756221783942031 69.922844260509393 0 0 1 I I #
vertex $-1 $429 $582 #
point $-1 46.022961418140504 17.908863972476318 2.6633145218587639 #
coedge $-1 $572 $434 $583 $584 reversed $350 $-1 #
edge $-1 $585 -15.653796636873519 $508 -4.6195489770035145 $502 $586 forward 7 unknown #
point $-1 49.306924649800102 25.790469443812036 -7.578149322549109 #
straight-curve $-1 49.306924649800102 25.790469443812036 0 0 0 -1 I I #
plane-surface $-1 -49.306924649800102 0 0 1 0 0 0 0 -1 forward_v I I I I #
coedge $-1 $451 $450 $449 $519 reversed $307 $-1 #
edge $-1 $476 -7.578149322549109 $538 7.578149322549109 $449 $587 forward 7 unknown #
coedge $-1 $454 $464 $450 $521 forward $447 $-1 #
edge $-1 $538 -3.5578262794842281 $523 3.5578262794842281 $450 $588 forward 7 unknown #
vertex $-1 $475 $589 #
vertex $-1 $453 $590 #
straight-curve $-1 -45.766353710168637 -32.906122002780492 0 0 0 -1 I I #
coedge $-1 $465 $454 $459 $528 forward $447 $-1 #
straight-curve $-1 -47.53663917998437 -32.906122002780492 -7.578149322549109 -1 0 0 I I #
straight-curve $-1 -47.53663917998437 -32.906122002780492 7.578149322549109 1 0 0 I I #
edge $-1 $462 -32.906122002780492 $531 25.790469443812036 $459 $591 forward 7 unknown #
point $-1 -49.306924649800102 -32.906122002780492 7.578149322549109 #
point $-1 -49.306924649800102 -32.906122002780492 -7.578149322549109 #
vertex $-1 $467 $592 #
straight-curve $-1 0 25.790469443812036 -7.578149322549109 1 0 0 I I #
straight-curve $-1 -49.306924649800102 25.790469443812036 0 0 0 -1 I I #
point $-1 -49.306924649800102 25.790469443812036 7.578149322549109 #
straight-curve $-1 -49.306924649800102 0 7.578149322549109 0 -1 0 I I #
straight-curve $-1 -45.766353710168637 -29.348295723296264 7.578149322549109 0 1 0 I I #
point $-1 -45.766353710168637 -25.790469443812036 7.578149322549109 #
vertex $-1 $521 $593 #
straight-curve $-1 0 -25.790469443812036 -7.578149322549109 -1 0 0 I I #
face $-1 $594 $595 $18 $-1 $596 reversed single #
loop $-1 $-1 $597 $480 #
plane-surface $-1 0 -25.790469443812036 0 0 1 0 0 0 1 forward_v I I I I #
coedge $-1 $598 $599 $600 $601 forward $481 $-1 #
coedge $-1 $600 $483 $602 $603 reversed $406 $-1 #
coedge $-1 $483 $600 $604 $605 reversed $406 $-1 #
coedge $-1 $606 $607 $483 $547 reversed $608 $-1 #
edge $-1 $609 -7.578149322549109 $610 7.578149322549109 $546 $611 forward 7 unknown #
coedge $-1 $612 $613 $484 $549 forward $595 $-1 #
edge $-1 $552 -25.790469443812036 $565 25.790469443812036 $484 $614 forward 7 unknown #
coedge $-1 $615 $485 $613 $616 reversed $551 $-1 #
loop $-1 $-1 $489 $617 #
vertex $-1 $549 $618 #
straight-curve $-1 49.306924649800102 25.790469443812036 0 0 0 -1 I I #
point $-1 49.306924649800102 25.790469443812036 2.1016425705674675 #
coedge $-1 $489 $615 $493 $560 reversed $551 $-1 #
vertex $-1 $560 $619 #
straight-curve $-1 12.307175849328555 25.790469443812036 53.027429372575085 0.5877852410284794 0 -0.80901700255871778 I I #
straight-curve $-1 45.328009706076159 10.136672806938517 7.578149322549109 0 1 0 I I #
coedge $-1 $604 $493 $606 $620 forward $327 $-1 #
edge $-1 $556 -45.328009706076166 $621 49.306924649800102 $555 $622 forward 7 unknown #
coedge $-1 $494 $604 $599 $623 forward $327 $-1 #
coedge $-1 $597 $495 $494 $563 reversed $541 $-1 #
edge $-1 $624 -45.766353710168637 $497 49.306924649800102 $562 $625 forward 7 unknown #
coedge $-1 $495 $597 $612 $626 reversed $541 $-1 #
vertex $-1 $496 $627 #
straight-curve $-1 49.306924649800102 -25.790469443812036 0 0 0 -1 I I #
point $-1 49.306924649800102 -25.790469443812036 7.578149322549109 #
face $-1 $628 $629 $19 $-1 $630 reversed single #
loop $-1 $-1 $631 $499 #
plane-surface $-1 -47.53663917998437 -32.906122002780492 0 0 1 0 0 0 1 forward_v I I I I #
coedge $-1 $502 $632 $633 $634 reversed $423 $-1 #
coedge $-1 $503 $513 $575 $635 reversed $350 $-1 #
vertex $-1 $635 $636 #
straight-curve $-1 -8.6568405295115554 14.756221783942031 81.881923341707136 -0.5877852410284794 0 0.80901700255871778 I I #
coedge $-1 $637 $505 $572 $635 forward $500 $-1 #
coedge $-1 $505 $638 $507 $579 forward $500 $-1 #
straight-curve $-1 35.561720120814059 14.756221783942031 7.578149322549109 -1 0 0 I I #
coedge $-1 $632 $507 $639 $640 forward $423 $-1 #
edge $-1 $641 -25.790469443812036 $509 14.756221783942031 $507 $642 forward 7 unknown #
point $-1 49.306924649800102 14.756221783942031 2.1016425705674635 #
point $-1 49.306924649800102 14.756221783942031 7.578149322549109 #
point $-1 44.626159174553308 17.908863972476318 2.8845462833890023 #
coedge $-1 $633 $643 $513 $584 forward $644 $-1 #
edge $-1 $645 56.178399101973518 $585 62.947733658182877 $583 $646 forward 7 unknown #
vertex $-1 $634 $647 #
straight-curve $-1 49.306924649800102 10.136672806938517 2.1016425705674635 0 -1 0 I I #
straight-curve $-1 -45.766353710168637 -25.790469443812036 0 0 0 -1 I I #
straight-curve $-1 -45.766353710168637 -29.348295723296264 -7.578149322549109 0 -1 0 I I #
point $-1 -45.766353710168637 -32.906122002780492 7.578149322549109 #
point $-1 -45.766353710168637 -32.906122002780492 -7.578149322549109 #
straight-curve $-1 -49.306924649800102 0 -7.578149322549109 0 1 0 I I #
point $-1 -49.306924649800102 25.790469443812036 -7.578149322549109 #
point $-1 -45.766353710168637 -25.790469443812036 -7.578149322549109 #
face $-1 $617 $608 $18 $-1 $648 reversed single #
loop $-1 $-1 $548 $540 #
plane-surface $-1 0 0 -7.578149322549109 0 0 1 1 0 0 forward_v I I I I #
coedge $-1 $564 $562 $649 $650 forward $541 $-1 #
coedge $-1 $649 $543 $651 $652 reversed $481 $-1 #
coedge $-1 $543 $649 $561 $623 reversed $481 $-1 #
coedge $-1 $545 $544 $543 $601 reversed $406 $-1 #
edge $-1 $653 -7.578149322549109 $654 7.578149322549109 $543 $655 forward 7 unknown #
coedge $-1 $656 $651 $544 $603 forward $595 $-1 #
edge $-1 $654 -1.7702854698157324 $610 1.7702854698157324 $544 $657 forward 7 unknown #
coedge $-1 $561 $559 $545 $605 forward $327 $-1 #
edge $-1 $609 -1.7702854698157324 $653 1.7702854698157324 $545 $658 forward 7 unknown #
coedge $-1 $659 $546 $559 $620 reversed $608 $-1 #
coedge $-1 $546 $659 $656 $660 reversed $608 $-1 #
loop $-1 $-1 $659 $594 #
vertex $-1 $620 $661 #
vertex $-1 $660 $662 #
straight-curve $-1 -49.306924649800102 -32.906122002780492 0 0 0 -1 I I #
coedge $-1 $651 $548 $564 $626 forward $595 $-1 #
coedge $-1 $548 $656 $550 $616 forward $595 $-1 #
straight-curve $-1 49.306924649800102 0 -7.578149322549109 0 -1 0 I I #
coedge $-1 $555 $550 $659 $663 reversed $551 $-1 #
edge $-1 $664 -49.306924649800102 $552 49.306924649800102 $550 $665 forward 7 unknown #
face $-1 $-1 $551 $18 $-1 $666 reversed single #
point $-1 49.306924649800102 25.790469443812036 -7.578149322549109 #
point $-1 45.328009706076166 25.790469443812036 7.578149322549109 #
edge $-1 $621 -25.790469443812036 $609 32.906122002780492 $606 $667 forward 7 unknown #
vertex $-1 $560 $668 #
straight-curve $-1 0 25.790469443812036 7.578149322549109 -1 0 0 I I #
edge $-1 $653 -3.5578262794842281 $624 3.5578262794842281 $599 $669 forward 7 unknown #
vertex $-1 $563 $670 #
straight-curve $-1 0 -25.790469443812036 7.578149322549109 1 0 0 I I #
edge $-1 $565 -49.306924649800102 $671 45.766353710168637 $564 $672 forward 7 unknown #
point $-1 49.306924649800102 -25.790469443812036 -7.578149322549109 #
face $-1 $673 $674 $19 $-1 $675 reversed single #
loop $-1 $-1 $676 $568 #
plane-surface $-1 -45.766353710168637 -29.348295723296264 0 -1 0 0 0 0 1 forward_v I I I I #
coedge $-1 $677 $678 $679 $680 forward $569 $-1 #
coedge $-1 $571 $578 $681 $682 reversed $423 $-1 #
coedge $-1 $683 $583 $571 $634 forward $644 $-1 #
edge $-1 $585 -2.1016425705674675 $684 7.578149322549109 $571 $685 forward 7 unknown #
edge $-1 $573 4.6195489770035145 $645 15.653796636873519 $575 $686 forward 7 unknown #
point $-1 45.328009706076166 14.756221783942031 7.578149322549109 #
coedge $-1 $687 $575 $643 $688 forward $500 $-1 #
coedge $-1 $576 $689 $690 $691 forward $500 $-1 #
coedge $-1 $690 $692 $578 $640 reversed $674 $-1 #
edge $-1 $641 -7.578149322549109 $693 7.578149322549109 $578 $694 forward 7 unknown #
vertex $-1 $579 $695 #
straight-curve $-1 49.306924649800102 0 7.578149322549109 0 1 0 I I #
coedge $-1 $583 $696 $637 $688 reversed $644 $-1 #
loop $-1 $-1 $583 $697 #
vertex $-1 $688 $698 #
straight-curve $-1 12.307175849328555 25.790469443812036 53.027429372575085 0.5877852410284794 0 -0.80901700255871778 I I #
point $-1 49.306924649800102 25.790469443812036 2.1016425705674675 #
plane-surface $-1 -49.306924649800102 0 0 1 0 0 0 0 -1 forward_v I I I I #
coedge $-1 $599 $598 $597 $650 reversed $481 $-1 #
edge $-1 $624 -7.578149322549109 $671 7.578149322549109 $597 $699 forward 7 unknown #
coedge $-1 $602 $612 $598 $652 forward $595 $-1 #
edge $-1 $671 -3.5578262794842281 $654 3.5578262794842281 $598 $700 forward 7 unknown #
vertex $-1 $623 $701 #
vertex $-1 $601 $702 #
straight-curve $-1 -45.766353710168637 -32.906122002780492 0 0 0 -1 I I #
coedge $-1 $613 $602 $607 $660 forward $595 $-1 #
straight-curve $-1 -47.53663917998437 -32.906122002780492 -7.578149322549109 -1 0 0 I I #
straight-curve $-1 -47.53663917998437 -32.906122002780492 7.578149322549109 1 0 0 I I #
coedge $-1 $607 $606 $615 $663 forward $608 $-1 #
edge $-1 $610 -32.906122002780492 $664 25.790469443812036 $607 $703 forward 7 unknown #
point $-1 -49.306924649800102 -32.906122002780492 7.578149322549109 #
point $-1 -49.306924649800102 -32.906122002780492 -7.578149322549109 #
edge $-1 $621 -7.578149322549109 $664 7.578149322549109 $615 $704 forward 7 unknown #
vertex $-1 $616 $705 #
straight-curve $-1 0 25.790469443812036 -7.578149322549109 1 0 0 I I #
plane-surface $-1 0 25.790469443812036 0 0 -1 0 0 0 -1 forward_v I I I I #
straight-curve $-1 -49.306924649800102 0 7.578149322549109 0 -1 0 I I #
point $-1 -49.306924649800102 25.790469443812036 7.578149322549109 #
straight-curve $-1 -45.766353710168637 -29.348295723296264 7.578149322549109 0 1 0 I I #
point $-1 -45.766353710168637 -25.790469443812036 7.578149322549109 #
vertex $-1 $652 $706 #
straight-curve $-1 0 -25.790469443812036 -7.578149322549109 -1 0 0 I I #
face $-1 $707 $708 $19 $-1 $709 reversed single #
loop $-1 $-1 $710 $628 #
plane-surface $-1 0 -25.790469443812036 0 0 1 0 0 0 1 forward_v I I I I #
coedge $-1 $711 $712 $713 $714 forward $629 $-1 #
coedge $-1 $713 $631 $715 $716 reversed $569 $-1 #
coedge $-1 $631 $713 $717 $718 reversed $569 $-1 #
coedge $-1 $719 $720 $631 $680 reversed $721 $-1 #
edge $-1 $722 -7.578149322549109 $723 7.578149322549109 $679 $724 forward 7 unknown #
coedge $-1 $725 $726 $632 $682 forward $708 $-1 #
edge $-1 $684 -25.790469443812036 $693 25.790469443812036 $632 $727 forward 7 unknown #
coedge $-1 $696 $633 $726 $728 reversed $644 $-1 #
vertex $-1 $682 $729 #
straight-curve $-1 49.306924649800102 25.790469443812036 0 0 0 -1 I I #
straight-curve $-1 45.328009706076159 10.136672806938517 7.578149322549109 0 1 0 I I #
coedge $-1 $717 $637 $719 $730 forward $500 $-1 #
edge $-1 $645 -45.328009706076166 $731 49.306924649800102 $643 $732 forward 7 unknown #
coedge $-1 $638 $717 $712 $733 forward $500 $-1 #
coedge $-1 $710 $639 $638 $691 reversed $674 $-1 #
edge $-1 $734 -45.766353710168637 $641 49.306924649800102 $690 $735 forward 7 unknown #
coedge $-1 $639 $710 $725 $736 reversed $674 $-1 #
vertex $-1 $640 $737 #
straight-curve $-1 49.306924649800102 -25.790469443812036 0 0 0 -1 I I #
point $-1 49.306924649800102 -25.790469443812036 7.578149322549109 #
coedge $-1 $643 $683 $738 $739 reversed $644 $-1 #
face $-1 $-1 $644 $19 $-1 $740 reversed single #
point $-1 45.328009706076166 25.790469443812036 7.578149322549109 #
straight-curve $-1 -45.766353710168637 -25.790469443812036 0 0 0 -1 I I #
straight-curve $-1 -45.766353710168637 -29.348295723296264 -7.578149322549109 0 -1 0 I I #
point $-1 -45.766353710168637 -32.906122002780492 7.578149322549109 #
point $-1 -45.766353710168637 -32.906122002780492 -7.578149322549109 #
straight-curve $-1 -49.306924649800102 0 -7.578149322549109 0 1 0 I I #
straight-curve $-1 -49.306924649800102 25.790469443812036 0 0 0 -1 I I #
point $-1 -49.306924649800102 25.790469443812036 -7.578149322549109 #
point $-1 -45.766353710168637 -25.790469443812036 -7.578149322549109 #
face $-1 $697 $721 $19 $-1 $741 reversed single #
loop $-1 $-1 $681 $673 #
plane-surface $-1 0 0 -7.578149322549109 0 0 1 1 0 0 forward_v I I I I #
coedge $-1 $692 $690 $742 $743 forward $674 $-1 #
coedge $-1 $742 $676 $744 $745 reversed $629 $-1 #
coedge $-1 $676 $742 $689 $733 reversed $629 $-1 #
coedge $-1 $678 $677 $676 $714 reversed $569 $-1 #
edge $-1 $746 -7.578149322549109 $747 7.578149322549109 $676 $748 forward 7 unknown #
coedge $-1 $749 $744 $677 $716 forward $708 $-1 #
edge $-1 $747 -1.7702854698157324 $723 1.7702854698157324 $677 $750 forward 7 unknown #
coedge $-1 $689 $687 $678 $718 forward $500 $-1 #
edge $-1 $722 -1.7702854698157324 $746 1.7702854698157324 $678 $751 forward 7 unknown #
coedge $-1 $738 $679 $687 $730 reversed $721 $-1 #
coedge $-1 $679 $738 $749 $752 reversed $721 $-1 #
loop $-1 $-1 $738 $707 #
vertex $-1 $730 $753 #
vertex $-1 $752 $754 #
straight-curve $-1 -49.306924649800102 -32.906122002780492 0 0 0 -1 I I #
coedge $-1 $744 $681 $692 $736 forward $708 $-1 #
coedge $-1 $681 $749 $683 $728 forward $708 $-1 #
straight-curve $-1 49.306924649800102 0 -7.578149322549109 0 -1 0 I I #
edge $-1 $755 -49.306924649800102 $684 49.306924649800102 $683 $756 forward 7 unknown #
point $-1 49.306924649800102 25.790469443812036 -7.578149322549109 #
edge $-1 $731 -25.790469443812036 $722 32.906122002780492 $719 $757 forward 7 unknown #
vertex $-1 $688 $758 #
straight-curve $-1 0 25.790469443812036 7.578149322549109 -1 0 0 I I #
edge $-1 $746 -3.5578262794842281 $734 3.5578262794842281 $712 $759 forward 7 unknown #
vertex $-1 $691 $760 #
straight-curve $-1 0 -25.790469443812036 7.578149322549109 1 0 0 I I #
edge $-1 $693 -49.306924649800102 $761 45.766353710168637 $692 $762 forward 7 unknown #
point $-1 49.306924649800102 -25.790469443812036 -7.578149322549109 #
coedge $-1 $720 $719 $696 $739 forward $721 $-1 #
edge $-1 $731 -7.578149322549109 $755 7.578149322549109 $696 $763 forward 7 unknown #
plane-surface $-1 0 25.790469443812036 0 0 -1 0 0 0 -1 forward_v I I I I #
plane-surface $-1 -49.306924649800102 0 0 1 0 0 0 0 -1 forward_v I I I I #
coedge $-1 $712 $711 $710 $743 reversed $629 $-1 #
edge $-1 $734 -7.578149322549109 $761 7.578149322549109 $710 $764 forward 7 unknown #
coedge $-1 $715 $725 $711 $745 forward $708 $-1 #
edge $-1 $761 -3.5578262794842281 $747 3.5578262794842281 $711 $765 forward 7 unknown #
vertex $-1 $733 $766 #
vertex $-1 $714 $767 #
straight-curve $-1 -45.766353710168637 -32.906122002780492 0 0 0 -1 I I #
coedge $-1 $726 $715 $720 $752 forward $708 $-1 #
straight-curve $-1 -47.53663917998437 -32.906122002780492 -7.578149322549109 -1 0 0 I I #
straight-curve $-1 -47.53663917998437 -32.906122002780492 7.578149322549109 1 0 0 I I #
edge $-1 $723 -32.906122002780492 $755 25.790469443812036 $720 $768 forward 7 unknown #
point $-1 -49.306924649800102 -32.906122002780492 7.578149322549109 #
point $-1 -49.306924649800102 -32.906122002780492 -7.578149322549109 #
vertex $-1 $728 $769 #
straight-curve $-1 0 25.790469443812036 -7.578149322549109 1 0 0 I I #
straight-curve $-1 -49.306924649800102 0 7.578149322549109 0 -1 0 I I #
point $-1 -49.306924649800102 25.790469443812036 7.578149322549109 #
straight-curve $-1 -45.766353710168637 -29.348295723296264 7.578149322549109 0 1 0 I I #
point $-1 -45.766353710168637 -25.790469443812036 7.578149322549109 #
vertex $-1 $745 $770 #
straight-curve $-1 0 -25.790469443812036 -7.578149322549109 -1 0 0 I I #
straight-curve $-1 -49.306924649800102 25.790469443812036 0 0 0 -1 I I #
straight-curve $-1 -45.766353710168637 -25.790469443812036 0 0 0 -1 I I #
straight-curve $-1 -45.766353710168637 -29.348295723296264 -7.578149322549109 0 -1 0 I I #
point $-1 -45.766353710168637 -32.906122002780492 7.578149322549109 #
point $-1 -45.766353710168637 -32.906122002780492 -7.578149322549109 #
straight-curve $-1 -49.306924649800102 0 -7.578149322549109 0 1 0 I I #
point $-1 -49.306924649800102 25.790469443812036 -7.578149322549109 #
point $-1 -45.766353710168637 -25.790469443812036 -7.578149322549109 #
End-of-ACIS-data 