500 0 10 0           
7 Unknown 11 ACIS 5.0 NT 24 Thu Mar 25 15:55:00 1999 
-1 9.9999999999999995e-007 1e-010 
body $-1 $10 $-1 $11 #
body $-1 $12 $-1 $13 #
body $-1 $14 $-1 $15 #
body $-1 $16 $-1 $17 #
body $-1 $18 $-1 $19 #
body $-1 $20 $-1 $21 #
body $-1 $22 $-1 $23 #
body $-1 $24 $-1 $25 #
body $-1 $26 $-1 $27 #
body $-1 $28 $-1 $29 #
lump $-1 $-1 $30 $0 #
transform $-1 1 0 0 0 1 0 0 0 1 58.862880336924349 39.891201728866719 19.733039329295561 1 rotate no_reflect no_shear #
lump $-1 $-1 $31 $1 #
transform $-1 1 0 0 0 1 0 0 0 1 58.862880336924349 39.891201728866719 19.733039329295561 1 rotate no_reflect no_shear #
lump $-1 $-1 $32 $2 #
transform $-1 1 0 0 0 1 0 0 0 1 58.862880336924349 39.891201728866719 19.733039329295561 1 rotate no_reflect no_shear #
lump $-1 $-1 $33 $3 #
transform $-1 1 0 0 0 1 0 0 0 1 58.862880336924349 39.891201728866719 19.733039329295561 1 rotate no_reflect no_shear #
lump $-1 $-1 $34 $4 #
transform $-1 1 0 0 0 1 0 0 0 1 58.862880336924349 39.891201728866719 19.733039329295561 1 rotate no_reflect no_shear #
lump $-1 $-1 $35 $5 #
transform $-1 1 0 0 0 1 0 0 0 1 58.862880336924349 39.891201728866719 19.733039329295561 1 rotate no_reflect no_shear #
lump $-1 $-1 $36 $6 #
transform $-1 1 0 0 0 1 0 0 0 1 58.862880336924349 39.891201728866719 19.733039329295561 1 rotate no_reflect no_shear #
lump $-1 $-1 $37 $7 #
transform $-1 1 0 0 0 1 0 0 0 1 58.862880336924349 39.891201728866719 19.733039329295561 1 rotate no_reflect no_shear #
lump $-1 $-1 $38 $8 #
transform $-1 1 0 0 0 1 0 0 0 1 58.862880336924349 39.891201728866719 19.733039329295561 1 rotate no_reflect no_shear #
lump $-1 $-1 $39 $9 #
transform $-1 1 0 0 0 1 0 0 0 1 58.862880336924349 39.891201728866719 19.733039329295561 1 rotate no_reflect no_shear #
shell $-1 $-1 $-1 $40 $-1 $10 #
shell $-1 $-1 $-1 $41 $-1 $12 #
shell $-1 $-1 $-1 $42 $-1 $14 #
shell $-1 $-1 $-1 $43 $-1 $16 #
shell $-1 $-1 $-1 $44 $-1 $18 #
shell $-1 $-1 $-1 $45 $-1 $20 #
shell $-1 $-1 $-1 $46 $-1 $22 #
shell $-1 $-1 $-1 $47 $-1 $24 #
shell $-1 $-1 $-1 $48 $-1 $26 #
shell $-1 $-1 $-1 $49 $-1 $28 #
face $-1 $50 $51 $30 $-1 $52 forward single #
face $-1 $53 $54 $31 $-1 $55 reversed single #
face $-1 $56 $57 $32 $-1 $58 reversed single #
face $-1 $59 $60 $33 $-1 $61 forward single #
face $-1 $62 $63 $34 $-1 $64 forward single #
face $-1 $65 $66 $35 $-1 $67 forward single #
face $-1 $68 $69 $36 $-1 $70 reversed single #
face $-1 $71 $72 $37 $-1 $73 forward single #
face $-1 $74 $75 $38 $-1 $76 forward single #
face $-1 $77 $78 $39 $-1 $79 forward single #
face $-1 $80 $81 $30 $-1 $82 reversed single #
loop $-1 $-1 $83 $40 #
plane-surface $-1 0 0 19.733039329295561 0 0 1 1 0 0 forward_v I I I I #
face $-1 $84 $85 $31 $-1 $86 reversed single #
loop $-1 $-1 $87 $41 #
plane-surface $-1 -45.922939947294523 -10.821297817479469 0 0 1 0 0 0 1 forward_v I I I I #
face $-1 $88 $89 $32 $-1 $90 reversed single #
loop $-1 $-1 $91 $42 #
plane-surface $-1 -12.79103309760881 -104.00924725875626 101.49175541983163 -1 0 0 0 -0.54463904215088732 0.83867056331134215 forward_v I I I I #
face $-1 $92 $93 $33 $-1 $94 forward single #
loop $-1 $95 $96 $43 #
cone-surface $-1 -28.944606265653515 -26.519461922955514 10.779888632164672 0 0.54463904215088732 -0.83867056331134215 1 0 0 1 I I 0 1 1 forward I I I I #
face $-1 $97 $98 $34 $-1 $99 forward single #
loop $-1 $100 $101 $44 #
cone-surface $-1 -22.887016327636751 -26.519461922955514 10.779888632164672 0 0.54463904215088732 -0.83867056331134215 1 0 0 1 I I 0 1 1 forward I I I I #
face $-1 $102 $103 $35 $-1 $104 forward single #
loop $-1 $105 $106 $45 #
cone-surface $-1 -16.829426389619982 -26.519461922955514 10.779888632164672 0 0.54463904215088732 -0.83867056331134215 1 0 0 1 I I 0 1 1 forward I I I I #
face $-1 $107 $108 $36 $-1 $109 reversed single #
loop $-1 $-1 $110 $46 #
plane-surface $-1 39.845931206859369 51.975852255123101 145.24078190902642 1 0 0 0 -0.62932039886446345 -0.77714595512881146 forward_v I I I I #
face $-1 $111 $112 $37 $-1 $113 forward single #
loop $-1 $114 $115 $47 #
cone-surface $-1 43.649321032872379 28.63639976829467 10.084431948784166 0 -0.62932039886446345 -0.77714595512881146 1 0 0 1 I I 0 1 1 forward I I I I #
face $-1 $116 $117 $38 $-1 $118 forward single #
loop $-1 $119 $120 $48 #
cone-surface $-1 49.354405771891876 28.63639976829467 10.084431948784166 0 -0.62932039886446345 -0.77714595512881146 1 0 0 1 I I 0 1 1 forward I I I I #
face $-1 $121 $122 $39 $-1 $123 forward single #
loop $-1 $124 $125 $49 #
cone-surface $-1 55.059490510911374 28.63639976829467 10.084431948784166 0 -0.62932039886446345 -0.77714595512881146 1 0 0 1 I I 0 1 1 forward I I I I #
face $-1 $126 $127 $30 $-1 $128 reversed single #
loop $-1 $-1 $129 $50 #
plane-surface $-1 0 0 -19.733039329295561 0 0 1 1 0 0 forward_v I I I I #
coedge $-1 $130 $131 $132 $133 forward $51 $-1 #
face $-1 $134 $135 $31 $-1 $136 reversed single #
loop $-1 $-1 $137 $53 #
plane-surface $-1 -45.922939947294523 -0.42512307027559615 0 0 -1 0 0 0 -1 forward_v I I I I #
coedge $-1 $138 $139 $140 $141 reversed $54 $-1 #
face $-1 $142 $143 $32 $-1 $144 reversed single #
loop $-1 $-1 $145 $56 #
plane-surface $-1 -22.887016327636751 -39.891201728866704 2.7586253992386958 0 -0.54463904215088732 0.83867056331134215 1 0 0 forward_v I I I I #
coedge $-1 $146 $147 $148 $149 reversed $57 $-1 #
face $-1 $-1 $150 $33 $-1 $151 forward single #
loop $-1 $152 $153 $59 #
cone-surface $-1 -28.944606265653515 -25.944554998613498 9.8946096184065411 0 0.54463904215088732 -0.83867056331134215 0.5 0 0 1 I I -0.70710678118654746 0.70710678118654746 0.5 forward I I I I #
loop $-1 $-1 $154 $43 #
coedge $-1 $96 $96 $155 $156 reversed $60 $-1 #
face $-1 $-1 $157 $34 $-1 $158 forward single #
loop $-1 $159 $160 $62 #
cone-surface $-1 -22.887016327636751 -25.944554998613498 9.8946096184065411 0 0.54463904215088732 -0.83867056331134215 0.5 0 0 1 I I -0.70710678118654746 0.70710678118654746 0.5 forward I I I I #
loop $-1 $-1 $161 $44 #
coedge $-1 $101 $101 $162 $163 reversed $63 $-1 #
face $-1 $-1 $164 $35 $-1 $165 forward single #
loop $-1 $166 $167 $65 #
cone-surface $-1 -16.829426389619982 -25.944554998613498 9.8946096184065411 0 0.54463904215088732 -0.83867056331134215 0.5 0 0 1 I I -0.70710678118654746 0.70710678118654746 0.5 forward I I I I #
loop $-1 $-1 $168 $45 #
coedge $-1 $106 $106 $169 $170 reversed $66 $-1 #
face $-1 $171 $172 $36 $-1 $173 forward single #
loop $-1 $-1 $174 $68 #
plane-surface $-1 49.354405771891862 -22.111370408765723 53.750683186882412 0 0.62932039886446345 0.77714595512881146 1 0 0 forward_v I I I I #
coedge $-1 $175 $176 $177 $178 reversed $69 $-1 #
face $-1 $-1 $179 $37 $-1 $180 forward single #
loop $-1 $181 $182 $71 #
cone-surface $-1 43.649321032872379 27.064078273081876 8.1427766451081247 0 -0.62932039886446345 -0.77714595512881146 0.5 0 0 1 I I -0.70710678118654746 0.70710678118654746 0.5 forward I I I I #
loop $-1 $-1 $183 $47 #
coedge $-1 $115 $115 $184 $185 reversed $72 $-1 #
face $-1 $-1 $186 $38 $-1 $187 forward single #
loop $-1 $188 $189 $74 #
cone-surface $-1 49.354405771891876 27.064078273081876 8.1427766451081247 0 -0.62932039886446345 -0.77714595512881146 0.5 0 0 1 I I -0.70710678118654746 0.70710678118654746 0.5 forward I I I I #
loop $-1 $-1 $190 $48 #
coedge $-1 $120 $120 $191 $192 reversed $75 $-1 #
face $-1 $-1 $193 $39 $-1 $194 forward single #
loop $-1 $195 $196 $77 #
cone-surface $-1 55.059490510911374 27.064078273081876 8.1427766451081247 0 -0.62932039886446345 -0.77714595512881146 0.5 0 0 1 I I -0.70710678118654746 0.70710678118654746 0.5 forward I I I I #
loop $-1 $-1 $197 $49 #
coedge $-1 $125 $125 $198 $199 reversed $78 $-1 #
face $-1 $200 $201 $30 $-1 $202 reversed single #
loop $-1 $-1 $203 $80 #
plane-surface $-1 0 -39.891201728866719 0 0 1 0 0 0 1 forward_v I I I I #
coedge $-1 $204 $205 $206 $207 forward $81 $-1 #
coedge $-1 $208 $83 $209 $210 forward $51 $-1 #
coedge $-1 $83 $208 $211 $212 forward $51 $-1 #
coedge $-1 $213 $214 $83 $133 reversed $215 $-1 #
edge $-1 $216 -39.891201728866719 $217 39.891201728866719 $132 $218 forward 7 unknown #
face $-1 $219 $220 $31 $-1 $221 reversed single #
loop $-1 $-1 $222 $84 #
plane-surface $-1 -32.982999557664698 -5.6232104438775323 0 -1 0 0 0 0 1 forward_v I I I I #
coedge $-1 $223 $224 $225 $226 forward $85 $-1 #
coedge $-1 $227 $87 $228 $229 reversed $54 $-1 #
coedge $-1 $87 $227 $230 $231 reversed $54 $-1 #
coedge $-1 $232 $233 $87 $141 forward $234 $-1 #
edge $-1 $235 -19.733039329295561 $236 19.733039329295561 $140 $237 forward 7 unknown #
face $-1 $238 $239 $32 $-1 $240 reversed single #
loop $-1 $-1 $241 $88 #
plane-surface $-1 -32.982999557664691 -104.00924725875626 101.49175541983163 1 0 0 0 0.54463904215088732 -0.83867056331134215 forward_v I I I I #
coedge $-1 $242 $243 $244 $245 reversed $89 $-1 #
coedge $-1 $147 $91 $246 $247 reversed $57 $-1 #
coedge $-1 $91 $146 $242 $248 reversed $57 $-1 #
coedge $-1 $244 $249 $91 $149 forward $250 $-1 #
edge $-1 $251 12.113421900511412 $252 38.251726705800699 $148 $253 forward 7 unknown #
loop $-1 $-1 $155 $92 #
plane-surface $-1 -22.887016327636751 -39.891201728866704 2.7586253992386958 0 -0.54463904215088732 0.83867056331134215 1 0 0 forward_v I I I I #
loop $-1 $-1 $254 $59 #
coedge $-1 $153 $153 $154 $255 reversed $93 $-1 #
coedge $-1 $154 $154 $153 $255 forward $95 $-1 #
coedge $-1 $155 $155 $96 $156 forward $150 $-1 #
edge $-1 $256 -2.1663561341466709e-015 $256 6.2831853071795987 $155 $257 forward 7 unknown #
loop $-1 $-1 $162 $97 #
plane-surface $-1 -22.887016327636751 -39.891201728866704 2.7586253992386958 0 -0.54463904215088732 0.83867056331134215 1 0 0 forward_v I I I I #
loop $-1 $-1 $258 $62 #
coedge $-1 $160 $160 $161 $259 reversed $98 $-1 #
coedge $-1 $161 $161 $160 $259 forward $100 $-1 #
coedge $-1 $162 $162 $101 $163 forward $157 $-1 #
edge $-1 $260 -2.1663561341466709e-015 $260 6.2831853071795987 $162 $261 forward 7 unknown #
loop $-1 $-1 $169 $102 #
plane-surface $-1 -22.887016327636751 -39.891201728866704 2.7586253992386958 0 -0.54463904215088732 0.83867056331134215 1 0 0 forward_v I I I I #
loop $-1 $-1 $262 $65 #
coedge $-1 $167 $167 $168 $263 reversed $103 $-1 #
coedge $-1 $168 $168 $167 $263 forward $105 $-1 #
coedge $-1 $169 $169 $106 $170 forward $164 $-1 #
edge $-1 $264 -2.1663561341466709e-015 $264 6.2831853071795987 $169 $265 forward 7 unknown #
face $-1 $266 $267 $36 $-1 $268 reversed single #
loop $-1 $-1 $177 $107 #
plane-surface $-1 0 0 19.733039329295561 0 0 1 1 0 0 forward_v I I I I #
coedge $-1 $269 $270 $271 $272 reversed $108 $-1 #
coedge $-1 $176 $110 $273 $274 reversed $69 $-1 #
coedge $-1 $110 $175 $269 $275 reversed $69 $-1 #
coedge $-1 $271 $276 $110 $178 forward $172 $-1 #
edge $-1 $277 -13.903275601305168 $278 6.0910057282777856 $177 $279 forward 7 unknown #
loop $-1 $-1 $184 $111 #
plane-surface $-1 49.354405771891862 -22.111370408765723 53.750683186882412 0 0.62932039886446345 0.77714595512881146 1 0 0 forward_v I I I I #
loop $-1 $-1 $280 $71 #
coedge $-1 $182 $182 $183 $281 reversed $112 $-1 #
coedge $-1 $183 $183 $182 $281 forward $114 $-1 #
coedge $-1 $184 $184 $115 $185 forward $179 $-1 #
edge $-1 $282 6.6024956194404072e-016 $282 6.2831853071796013 $184 $283 forward 7 unknown #
loop $-1 $-1 $191 $116 #
plane-surface $-1 49.354405771891862 -22.111370408765723 53.750683186882412 0 0.62932039886446345 0.77714595512881146 1 0 0 forward_v I I I I #
loop $-1 $-1 $284 $74 #
coedge $-1 $189 $189 $190 $285 reversed $117 $-1 #
coedge $-1 $190 $190 $189 $285 forward $119 $-1 #
coedge $-1 $191 $191 $120 $192 forward $186 $-1 #
edge $-1 $286 6.6024956194404072e-016 $286 6.2831853071796013 $191 $287 forward 7 unknown #
loop $-1 $-1 $198 $121 #
plane-surface $-1 49.354405771891862 -22.111370408765723 53.750683186882412 0 0.62932039886446345 0.77714595512881146 1 0 0 forward_v I I I I #
loop $-1 $-1 $288 $77 #
coedge $-1 $196 $196 $197 $289 reversed $122 $-1 #
coedge $-1 $197 $197 $196 $289 forward $124 $-1 #
coedge $-1 $198 $198 $125 $199 forward $193 $-1 #
edge $-1 $290 6.6024956194404072e-016 $290 6.2831853071796013 $198 $291 forward 7 unknown #
face $-1 $292 $293 $30 $-1 $294 reversed single #
loop $-1 $-1 $295 $126 #
plane-surface $-1 -58.862880336924349 0 0 1 0 0 0 0 -1 forward_v I I I I #
coedge $-1 $296 $211 $297 $298 forward $127 $-1 #
coedge $-1 $299 $129 $296 $300 forward $81 $-1 #
coedge $-1 $129 $299 $301 $302 forward $81 $-1 #
coedge $-1 $214 $213 $129 $207 reversed $215 $-1 #
edge $-1 $303 -39.891201728866719 $304 39.891201728866719 $206 $305 forward 7 unknown #
coedge $-1 $131 $130 $306 $307 forward $51 $-1 #
coedge $-1 $308 $309 $130 $210 reversed $293 $-1 #
edge $-1 $217 -58.862880336924349 $310 58.862880336924349 $209 $311 forward 7 unknown #
coedge $-1 $203 $312 $131 $212 reversed $127 $-1 #
edge $-1 $313 -58.862880336924349 $216 58.862880336924349 $211 $314 forward 7 unknown #
coedge $-1 $206 $132 $312 $315 forward $215 $-1 #
coedge $-1 $132 $206 $308 $316 reversed $215 $-1 #
loop $-1 $-1 $213 $292 #
vertex $-1 $133 $317 #
vertex $-1 $133 $318 #
straight-curve $-1 58.862880336924349 0 19.733039329295561 0 1 0 I I #
face $-1 $319 $320 $31 $-1 $321 forward single #
loop $-1 $-1 $322 $134 #
plane-surface $-1 0 0 -19.733039329295561 0 0 1 1 0 0 forward_v I I I I #
coedge $-1 $323 $324 $227 $325 forward $135 $-1 #
coedge $-1 $326 $137 $322 $327 reversed $85 $-1 #
coedge $-1 $137 $326 $328 $329 reversed $85 $-1 #
coedge $-1 $324 $323 $137 $226 reversed $135 $-1 #
edge $-1 $330 -19.733039329295561 $331 19.733039329295561 $225 $332 forward 7 unknown #
coedge $-1 $139 $138 $222 $325 reversed $54 $-1 #
coedge $-1 $333 $334 $138 $229 forward $220 $-1 #
edge $-1 $335 10.021529584017436 $235 35.901410363277087 $228 $336 forward 7 unknown #
coedge $-1 $337 $338 $139 $231 forward $320 $-1 #
edge $-1 $236 -35.901410363277087 $339 -10.021529584017436 $230 $340 forward 7 unknown #
coedge $-1 $341 $140 $338 $342 reversed $234 $-1 #
coedge $-1 $140 $341 $333 $343 reversed $234 $-1 #
loop $-1 $-1 $341 $319 #
vertex $-1 $343 $344 #
vertex $-1 $141 $345 #
straight-curve $-1 -58.862880336924349 -10.821297817479469 0 0 0 1 I I #
face $-1 $-1 $250 $32 $-1 $346 forward single #
loop $-1 $-1 $347 $142 #
plane-surface $-1 0 -39.891201728866719 0 0 1 0 0 0 1 forward_v I I I I #
coedge $-1 $348 $349 $350 $351 reversed $143 $-1 #
coedge $-1 $352 $145 $147 $248 forward $89 $-1 #
coedge $-1 $145 $352 $348 $353 forward $89 $-1 #
coedge $-1 $350 $148 $145 $245 forward $250 $-1 #
edge $-1 $252 1.3475249337904351 $354 21.539491393846316 $244 $355 forward 7 unknown #
coedge $-1 $356 $357 $146 $247 forward $239 $-1 #
edge $-1 $358 -47.987252310677128 $251 -31.012838380620256 $246 $359 forward 7 unknown #
edge $-1 $252 -31.166355358994366 $358 1.699746028866204e-014 $147 $360 forward 7 unknown #
coedge $-1 $148 $350 $356 $361 forward $250 $-1 #
loop $-1 $-1 $350 $238 #
vertex $-1 $247 $362 #
vertex $-1 $149 $363 #
straight-curve $-1 -12.79103309760881 -52.004623629378131 19.733039329295565 0 1 0 I I #
coedge $-1 $254 $254 $-1 $364 reversed $152 $-1 #
edge $-1 $365 0 $365 6.2831853071796004 $153 $366 forward 7 unknown #
vertex $-1 $156 $367 #
ellipse-curve $-1 -28.944606265653515 -26.822049326222078 11.24583236426712 0 -0.54463904215088732 0.83867056331134215 1 0 0 1 I I #
coedge $-1 $258 $258 $-1 $368 reversed $159 $-1 #
edge $-1 $369 0 $369 6.2831853071796004 $160 $370 forward 7 unknown #
vertex $-1 $163 $371 #
ellipse-curve $-1 -22.887016327636751 -26.822049326222078 11.24583236426712 0 -0.54463904215088732 0.83867056331134215 1 0 0 1 I I #
coedge $-1 $262 $262 $-1 $372 reversed $166 $-1 #
edge $-1 $373 0 $373 6.2831853071796004 $167 $374 forward 7 unknown #
vertex $-1 $170 $375 #
ellipse-curve $-1 -16.829426389619982 -26.822049326222078 11.24583236426712 0 -0.54463904215088732 0.83867056331134215 1 0 0 1 I I #
face $-1 $-1 $376 $36 $-1 $377 reversed single #
loop $-1 $-1 $378 $171 #
plane-surface $-1 58.862880336924349 0 0 -1 0 0 0 0 1 forward_v I I I I #
coedge $-1 $379 $174 $176 $275 forward $108 $-1 #
coedge $-1 $174 $379 $378 $380 reversed $108 $-1 #
coedge $-1 $381 $177 $174 $272 forward $172 $-1 #
edge $-1 $278 15.168728320913438 $382 34.185677450978424 $271 $383 forward 7 unknown #
coedge $-1 $384 $385 $175 $274 forward $376 $-1 #
edge $-1 $386 -69.078401734017149 $277 -52.887351625217647 $273 $387 forward 7 unknown #
edge $-1 $278 54.054570484236308 $386 79.782403457733437 $176 $388 forward 7 unknown #
coedge $-1 $177 $381 $384 $389 forward $172 $-1 #
vertex $-1 $274 $390 #
vertex $-1 $178 $391 #
straight-curve $-1 39.845931206859369 25.987926127561551 19.733039329295565 0 -1 0 I I #
coedge $-1 $280 $280 $-1 $392 reversed $181 $-1 #
edge $-1 $393 0 $393 6.2831853071796004 $182 $394 forward 7 unknown #
vertex $-1 $185 $395 #
ellipse-curve $-1 43.649321032872379 29.894061064075242 11.637514274895816 0 0.62932039886446345 0.77714595512881146 1 0 0 1 I I #
coedge $-1 $284 $284 $-1 $396 reversed $188 $-1 #
edge $-1 $397 0 $397 6.2831853071796004 $189 $398 forward 7 unknown #
vertex $-1 $192 $399 #
ellipse-curve $-1 49.354405771891876 29.894061064075242 11.637514274895816 0 0.62932039886446345 0.77714595512881146 1 0 0 1 I I #
coedge $-1 $288 $288 $-1 $400 reversed $195 $-1 #
edge $-1 $401 0 $401 6.2831853071796004 $196 $402 forward 7 unknown #
vertex $-1 $199 $403 #
ellipse-curve $-1 55.059490510911374 29.894061064075242 11.637514274895816 0 0.62932039886446345 0.77714595512881146 1 0 0 1 I I #
face $-1 $-1 $215 $30 $-1 $404 reversed single #
loop $-1 $-1 $308 $200 #
plane-surface $-1 0 39.891201728866719 0 0 -1 0 0 0 -1 forward_v I I I I #
coedge $-1 $405 $306 $309 $406 forward $201 $-1 #
coedge $-1 $312 $203 $204 $300 reversed $127 $-1 #
coedge $-1 $306 $405 $203 $298 reversed $201 $-1 #
edge $-1 $313 -19.733039329295561 $407 19.733039329295561 $297 $408 forward 7 unknown #
coedge $-1 $205 $204 $405 $409 forward $81 $-1 #
edge $-1 $304 -58.862880336924349 $407 58.862880336924349 $296 $410 forward 7 unknown #
coedge $-1 $309 $308 $205 $302 reversed $293 $-1 #
edge $-1 $411 -58.862880336924349 $303 58.862880336924349 $301 $412 forward 7 unknown #
vertex $-1 $207 $413 #
vertex $-1 $315 $414 #
straight-curve $-1 58.862880336924349 0 -19.733039329295561 0 -1 0 I I #
coedge $-1 $295 $297 $208 $307 reversed $201 $-1 #
edge $-1 $310 -39.891201728866719 $313 39.891201728866719 $306 $415 forward 7 unknown #
coedge $-1 $301 $209 $214 $316 forward $293 $-1 #
coedge $-1 $209 $301 $295 $406 reversed $293 $-1 #
vertex $-1 $210 $416 #
straight-curve $-1 0 39.891201728866719 19.733039329295561 -1 0 0 I I #
coedge $-1 $211 $296 $213 $315 reversed $127 $-1 #
vertex $-1 $307 $417 #
straight-curve $-1 0 -39.891201728866719 19.733039329295561 1 0 0 I I #
edge $-1 $216 -19.733039329295561 $304 19.733039329295561 $213 $418 forward 7 unknown #
edge $-1 $217 -19.733039329295561 $303 19.733039329295561 $214 $419 forward 7 unknown #
point $-1 58.862880336924349 -39.891201728866719 19.733039329295561 #
point $-1 58.862880336924349 39.891201728866719 19.733039329295561 #
face $-1 $-1 $234 $31 $-1 $420 reversed single #
loop $-1 $-1 $328 $219 #
plane-surface $-1 0 0 19.733039329295561 0 0 1 1 0 0 forward_v I I I I #
coedge $-1 $334 $333 $223 $327 forward $220 $-1 #
coedge $-1 $225 $222 $334 $421 reversed $135 $-1 #
coedge $-1 $222 $225 $337 $422 reversed $135 $-1 #
edge $-1 $339 -19.733039329295561 $335 19.733039329295561 $222 $423 forward 7 unknown #
coedge $-1 $224 $223 $341 $424 reversed $85 $-1 #
edge $-1 $425 -35.901410363277087 $331 -10.021529584017436 $322 $426 forward 7 unknown #
coedge $-1 $338 $337 $224 $329 forward $320 $-1 #
edge $-1 $330 10.021529584017436 $427 35.901410363277087 $328 $428 forward 7 unknown #
vertex $-1 $329 $429 #
vertex $-1 $327 $430 #
straight-curve $-1 -32.982999557664698 -0.42512307027559615 0 0 0 -1 I I #
coedge $-1 $322 $228 $233 $343 forward $220 $-1 #
coedge $-1 $228 $322 $323 $421 forward $220 $-1 #
vertex $-1 $229 $431 #
straight-curve $-1 -22.961469973647262 -10.821297817479469 -19.733039329295561 -1 0 0 I I #
coedge $-1 $328 $230 $324 $422 forward $320 $-1 #
coedge $-1 $230 $328 $232 $342 forward $320 $-1 #
vertex $-1 $231 $432 #
straight-curve $-1 -22.961469973647262 -10.821297817479469 19.733039329295561 1 0 0 I I #
coedge $-1 $233 $232 $326 $424 forward $234 $-1 #
edge $-1 $427 0.42512307027559615 $236 10.821297817479469 $232 $433 forward 7 unknown #
edge $-1 $235 -10.821297817479469 $425 -0.42512307027559615 $233 $434 forward 7 unknown #
point $-1 -58.862880336924349 -10.821297817479469 -19.733039329295561 #
point $-1 -58.862880336924349 -10.821297817479469 19.733039329295561 #
plane-surface $-1 0 0 19.733039329295561 0 0 1 1 0 0 forward_v I I I I #
coedge $-1 $357 $356 $349 $435 forward $239 $-1 #
coedge $-1 $349 $241 $243 $353 reversed $143 $-1 #
coedge $-1 $241 $348 $347 $435 reversed $143 $-1 #
coedge $-1 $249 $244 $241 $351 forward $250 $-1 #
edge $-1 $354 -38.251726705800699 $436 -12.113421900511412 $350 $437 forward 7 unknown #
coedge $-1 $243 $242 $357 $438 reversed $89 $-1 #
edge $-1 $439 -1.699746028866204e-014 $354 31.166355358994366 $348 $440 forward 7 unknown #
vertex $-1 $245 $441 #
straight-curve $-1 -11.443508163818375 -13.752896923577431 19.733039329295561 -1 0 0 I I #
coedge $-1 $347 $246 $249 $361 reversed $239 $-1 #
coedge $-1 $246 $347 $352 $438 forward $239 $-1 #
vertex $-1 $247 $442 #
straight-curve $-1 -12.79103309760881 -39.891201728866719 50.745877709915817 0 0 1 I I #
straight-curve $-1 -12.79103309760881 -39.891201728866704 2.7586253992386958 0 -0.83867056331134215 -0.54463904215088732 I I #
edge $-1 $436 -32.982999557664691 $251 -12.79103309760881 $356 $443 forward 7 unknown #
point $-1 -12.79103309760881 -39.891201728866719 19.733039329295561 #
point $-1 -12.79103309760881 -13.752896923577431 19.733039329295561 #
edge $-1 $444 1 $444 0 $254 $-1 forward 7 unknown #
vertex $-1 $255 $445 #
ellipse-curve $-1 -28.944606265653515 -26.216874519688943 10.313944900062213 0 -0.54463904215088732 0.83867056331134215 1 0 0 1 I I #
point $-1 -27.944606265653515 -26.822049326222089 11.245832364267132 #
edge $-1 $446 1 $446 0 $258 $-1 forward 7 unknown #
vertex $-1 $259 $447 #
ellipse-curve $-1 -22.887016327636751 -26.216874519688943 10.313944900062213 0 -0.54463904215088732 0.83867056331134215 1 0 0 1 I I #
point $-1 -21.887016327636751 -26.822049326222089 11.245832364267132 #
edge $-1 $448 1 $448 0 $262 $-1 forward 7 unknown #
vertex $-1 $263 $449 #
ellipse-curve $-1 -16.829426389619982 -26.216874519688943 10.313944900062213 0 -0.54463904215088732 0.83867056331134215 1 0 0 1 I I #
point $-1 -15.829426389619982 -26.822049326222089 11.245832364267132 #
loop $-1 $-1 $273 $266 #
plane-surface $-1 0 39.891201728866719 0 0 -1 0 0 0 -1 forward_v I I I I #
coedge $-1 $450 $451 $270 $380 forward $267 $-1 #
coedge $-1 $270 $269 $385 $452 reversed $108 $-1 #
edge $-1 $382 28.549488755269593 $453 54.277321728766722 $378 $454 forward 7 unknown #
coedge $-1 $276 $271 $451 $455 forward $172 $-1 #
vertex $-1 $455 $456 #
straight-curve $-1 24.677202885945931 19.896920399283772 19.733039329295558 1 0 0 I I #
coedge $-1 $457 $273 $276 $389 reversed $376 $-1 #
coedge $-1 $273 $457 $379 $452 forward $376 $-1 #
vertex $-1 $274 $458 #
straight-curve $-1 39.845931206859369 39.891201728866719 72.620390954513212 0 0 1 I I #
straight-curve $-1 39.845931206859369 -22.111370408765723 53.750683186882412 0 0.77714595512881146 -0.62932039886446345 I I #
edge $-1 $459 -58.862880336924349 $277 -39.845931206859369 $384 $460 forward 7 unknown #
point $-1 39.845931206859369 39.891201728866719 19.733039329295561 #
point $-1 39.845931206859369 19.896920399283765 19.733039329295565 #
edge $-1 $461 1 $461 0 $280 $-1 forward 7 unknown #
vertex $-1 $281 $462 #
ellipse-curve $-1 43.649321032872379 27.378738472514108 8.5313496226725309 0 0.62932039886446345 0.77714595512881146 1 0 0 1 I I #
point $-1 44.649321032872379 29.894061064075231 11.637514274895802 #
edge $-1 $463 1 $463 0 $284 $-1 forward 7 unknown #
vertex $-1 $285 $464 #
ellipse-curve $-1 49.354405771891876 27.378738472514108 8.5313496226725309 0 0.62932039886446345 0.77714595512881146 1 0 0 1 I I #
point $-1 50.354405771891876 29.894061064075231 11.637514274895802 #
edge $-1 $465 1 $465 0 $288 $-1 forward 7 unknown #
vertex $-1 $289 $466 #
ellipse-curve $-1 55.059490510911374 27.378738472514108 8.5313496226725309 0 0.62932039886446345 0.77714595512881146 1 0 0 1 I I #
point $-1 56.059490510911374 29.894061064075231 11.637514274895802 #
plane-surface $-1 58.862880336924349 0 0 -1 0 0 0 0 1 forward_v I I I I #
coedge $-1 $297 $295 $299 $409 reversed $201 $-1 #
edge $-1 $310 -19.733039329295561 $411 19.733039329295561 $309 $467 forward 7 unknown #
vertex $-1 $409 $468 #
straight-curve $-1 -58.862880336924349 -39.891201728866719 0 0 0 -1 I I #
edge $-1 $407 -39.891201728866719 $411 39.891201728866719 $405 $469 forward 7 unknown #
straight-curve $-1 0 -39.891201728866719 -19.733039329295561 -1 0 0 I I #
vertex $-1 $302 $470 #
straight-curve $-1 0 39.891201728866719 -19.733039329295561 1 0 0 I I #
point $-1 58.862880336924349 39.891201728866719 -19.733039329295561 #
point $-1 58.862880336924349 -39.891201728866719 -19.733039329295561 #
straight-curve $-1 -58.862880336924349 0 19.733039329295561 0 -1 0 I I #
point $-1 -58.862880336924349 39.891201728866719 19.733039329295561 #
point $-1 -58.862880336924349 -39.891201728866719 19.733039329295561 #
straight-curve $-1 58.862880336924349 -39.891201728866719 0 0 0 -1 I I #
straight-curve $-1 58.862880336924349 39.891201728866719 0 0 0 -1 I I #
plane-surface $-1 -58.862880336924349 0 0 1 0 0 0 0 -1 forward_v I I I I #
edge $-1 $331 -2.38648215166317 $335 8.0096925955407023 $334 $471 forward 7 unknown #
edge $-1 $339 -8.0096925955407023 $330 2.38648215166317 $337 $472 forward 7 unknown #
straight-curve $-1 -32.982999557664698 -10.821297817479469 0 0 0 -1 I I #
edge $-1 $427 -19.733039329295561 $425 19.733039329295561 $341 $473 forward 7 unknown #
vertex $-1 $424 $474 #
straight-curve $-1 -22.961469973647262 -0.42512307027559615 -19.733039329295561 1 0 0 I I #
vertex $-1 $342 $475 #
straight-curve $-1 -22.961469973647262 -0.42512307027559615 19.733039329295561 -1 0 0 I I #
point $-1 -32.982999557664698 -0.42512307027559615 19.733039329295561 #
point $-1 -32.982999557664698 -0.42512307027559615 -19.733039329295561 #
point $-1 -32.982999557664698 -10.821297817479469 -19.733039329295561 #
point $-1 -32.982999557664698 -10.821297817479469 19.733039329295561 #
straight-curve $-1 -58.862880336924349 0 19.733039329295561 0 -1 0 I I #
straight-curve $-1 -58.862880336924349 0 -19.733039329295561 0 1 0 I I #
edge $-1 $436 31.012838380620256 $439 47.987252310677128 $347 $476 forward 7 unknown #
vertex $-1 $361 $477 #
straight-curve $-1 -32.982999557664691 -52.004623629378131 19.733039329295565 0 -1 0 I I #
edge $-1 $439 -21.539491393846316 $358 -1.3475249337904351 $357 $478 forward 7 unknown #
vertex $-1 $438 $479 #
straight-curve $-1 -32.982999557664691 -39.891201728866704 2.7586253992386958 0 0.83867056331134215 0.54463904215088732 I I #
point $-1 -32.982999557664691 -13.752896923577431 19.733039329295561 #
point $-1 -12.79103309760881 -39.891201728866719 2.7586253992386864 #
straight-curve $-1 0 -39.891201728866719 19.733039329295561 1 0 0 I I #
vertex $-1 $364 $480 #
point $-1 -27.944606265653515 -26.216874519688943 10.313944900062213 #
vertex $-1 $368 $481 #
point $-1 -21.887016327636751 -26.216874519688943 10.313944900062213 #
vertex $-1 $372 $482 #
point $-1 -15.829426389619982 -26.216874519688943 10.313944900062213 #
coedge $-1 $451 $378 $457 $483 reversed $267 $-1 #
coedge $-1 $378 $450 $381 $455 reversed $267 $-1 #
edge $-1 $453 -34.185677450978424 $386 -15.168728320913438 $385 $484 forward 7 unknown #
vertex $-1 $380 $485 #
straight-curve $-1 58.862880336924349 -2.2901993078694876 37.699814980138342 0 0.77714595512881146 -0.62932039886446345 I I #
edge $-1 $382 19.896920399283765 $459 39.891201728866719 $451 $486 forward 7 unknown #
point $-1 58.862880336924356 19.896920399283765 19.733039329295565 #
coedge $-1 $385 $384 $450 $483 forward $376 $-1 #
point $-1 39.845931206859369 39.891201728866719 3.5419892204960561 #
vertex $-1 $455 $487 #
straight-curve $-1 0 39.891201728866719 19.733039329295561 -1 0 0 I I #
vertex $-1 $392 $488 #
point $-1 44.649321032872379 27.378738472514108 8.5313496226725309 #
vertex $-1 $396 $489 #
point $-1 50.354405771891876 27.378738472514108 8.5313496226725309 #
vertex $-1 $400 $490 #
point $-1 56.059490510911374 27.378738472514108 8.5313496226725309 #
straight-curve $-1 -58.862880336924349 39.891201728866719 0 0 0 -1 I I #
point $-1 -58.862880336924349 -39.891201728866719 -19.733039329295561 #
straight-curve $-1 -58.862880336924349 0 -19.733039329295561 0 1 0 I I #
point $-1 -58.862880336924349 39.891201728866719 -19.733039329295561 #
straight-curve $-1 -32.982999557664698 -2.8116052219387662 -19.733039329295561 0 -1 0 I I #
straight-curve $-1 -32.982999557664698 -2.8116052219387662 19.733039329295561 0 1 0 I I #
straight-curve $-1 -58.862880336924349 -0.42512307027559615 0 0 0 -1 I I #
point $-1 -58.862880336924349 -0.42512307027559615 -19.733039329295561 #
point $-1 -58.862880336924349 -0.42512307027559615 19.733039329295561 #
straight-curve $-1 -32.982999557664691 -39.891201728866719 50.745877709915817 0 0 -1 I I #
point $-1 -32.982999557664691 -39.891201728866719 19.733039329295561 #
straight-curve $-1 -11.443508163818375 -39.891201728866719 2.7586253992386891 1 0 0 I I #
point $-1 -32.982999557664691 -39.891201728866719 2.7586253992386864 #
point $-1 -28.944606265653515 -25.672235477538052 9.4752743367508696 #
point $-1 -22.887016327636751 -25.672235477538052 9.4752743367508696 #
point $-1 -16.829426389619982 -25.672235477538052 9.4752743367508696 #
edge $-1 $459 -19.733039329295561 $453 -3.5419892204960561 $450 $491 forward 7 unknown #
straight-curve $-1 24.677202885945931 39.891201728866719 3.5419892204960632 -1 0 0 I I #
point $-1 58.862880336924356 39.891201728866719 3.5419892204960561 #
straight-curve $-1 58.862880336924349 0 19.733039329295561 0 1 0 I I #
point $-1 58.862880336924349 39.891201728866719 19.733039329295561 #
point $-1 43.649321032872379 26.749418073649643 7.7542036675437194 #
point $-1 49.354405771891876 26.749418073649643 7.7542036675437194 #
point $-1 55.059490510911374 26.749418073649643 7.7542036675437194 #
straight-curve $-1 58.862880336924349 39.891201728866719 0 0 0 -1 I I #
End-of-ACIS-data 