500 0 7 0           
7 Unknown 11 ACIS 5.0 NT 24 Thu Mar 25 20:47:26 1999 
-1 9.9999999999999995e-007 1e-010 
body $-1 $7 $-1 $8 #
body $-1 $9 $-1 $10 #
body $-1 $11 $-1 $12 #
body $-1 $13 $-1 $14 #
body $-1 $15 $-1 $16 #
body $-1 $17 $-1 $18 #
body $-1 $19 $-1 $20 #
lump $-1 $-1 $21 $0 #
transform $-1 1 0 0 0 1 0 0 0 1 52.301400799584947 34.116660083940808 15.959146166406079 1 rotate no_reflect no_shear #
lump $-1 $-1 $22 $1 #
transform $-1 1 0 0 0 1 0 0 0 1 52.301400799584947 34.116660083940808 15.959146166406079 1 rotate no_reflect no_shear #
lump $-1 $-1 $23 $2 #
transform $-1 1 0 0 0 1 0 0 0 1 52.301400799584947 34.116660083940808 15.959146166406079 1 rotate no_reflect no_shear #
lump $-1 $-1 $24 $3 #
transform $-1 1 0 0 0 1 0 0 0 1 52.301400799584947 34.116660083940808 15.959146166406079 1 rotate no_reflect no_shear #
lump $-1 $-1 $25 $4 #
transform $-1 1 0 0 0 1 0 0 0 1 52.301400799584947 34.116660083940808 15.959146166406079 1 rotate no_reflect no_shear #
lump $-1 $-1 $26 $5 #
transform $-1 1 0 0 0 1 0 0 0 1 52.301400799584947 34.116660083940808 15.959146166406079 1 rotate no_reflect no_shear #
lump $-1 $-1 $27 $6 #
transform $-1 1 0 0 0 1 0 0 0 1 52.301400799584947 34.116660083940808 15.959146166406079 1 rotate no_reflect no_shear #
shell $-1 $-1 $-1 $28 $-1 $7 #
shell $-1 $-1 $-1 $29 $-1 $9 #
shell $-1 $-1 $-1 $30 $-1 $11 #
shell $-1 $-1 $-1 $31 $-1 $13 #
shell $-1 $-1 $-1 $32 $-1 $15 #
shell $-1 $-1 $-1 $33 $-1 $17 #
shell $-1 $-1 $-1 $34 $-1 $19 #
face $-1 $35 $36 $21 $-1 $37 forward single #
face $-1 $38 $39 $22 $-1 $40 forward single #
face $-1 $41 $42 $23 $-1 $43 forward single #
face $-1 $44 $45 $24 $-1 $46 reversed single #
face $-1 $47 $48 $25 $-1 $49 forward single #
face $-1 $50 $51 $26 $-1 $52 reversed single #
face $-1 $53 $54 $27 $-1 $55 forward single #
face $-1 $56 $57 $21 $-1 $58 reversed single #
loop $-1 $-1 $59 $28 #
plane-surface $-1 0 0 15.959146166406079 0 0 1 1 0 0 forward_v I I I I #
face $-1 $60 $61 $22 $-1 $62 reversed single #
loop $-1 $-1 $63 $29 #
plane-surface $-1 -52.301400799584947 0 0 1 0 0 0 0 -1 forward_v I I I I #
face $-1 $64 $65 $23 $-1 $66 reversed single #
loop $-1 $-1 $67 $30 #
plane-surface $-1 52.301400799584947 0 0 -1 0 0 0 0 1 forward_v I I I I #
face $-1 $68 $69 $24 $-1 $70 reversed single #
loop $-1 $-1 $71 $31 #
plane-surface $-1 26.753502093853676 -117.65617275171672 72.690571767189397 -1 0 0 0 -0.79863551827123203 0.60181501223851219 forward_v I I I I #
face $-1 $72 $73 $25 $-1 $74 forward single #
loop $-1 $75 $76 $32 #
cone-surface $-1 20.505228434423266 -30.727371224866165 12.061103793866204 0 0.79863551827123203 -0.60181501223851219 1 0 0 1 I I 0 1 1 forward I I I I #
face $-1 $77 $78 $26 $-1 $79 reversed single #
loop $-1 $-1 $80 $33 #
plane-surface $-1 14.75150839499797 88.636005021866708 121.62030604784957 1 0 0 0 -0.85716730853699208 -0.51503806187062418 forward_v I I I I #
face $-1 $81 $82 $27 $-1 $83 forward single #
loop $-1 $84 $85 $34 #
cone-surface $-1 25.648011374890295 29.981471135708869 11.333733044847335 0 -0.85716730853699208 -0.51503806187062418 1.5 0 0 1 I I 0 1 1.5 forward I I I I #
face $-1 $86 $87 $21 $-1 $88 reversed single #
loop $-1 $-1 $89 $35 #
plane-surface $-1 0 0 -15.959146166406079 0 0 1 1 0 0 forward_v I I I I #
coedge $-1 $90 $91 $92 $93 forward $36 $-1 #
face $-1 $94 $95 $22 $-1 $96 forward single #
loop $-1 $-1 $97 $38 #
plane-surface $-1 0 34.116660083940808 0 0 -1 0 0 0 -1 forward_v I I I I #
coedge $-1 $98 $99 $100 $101 forward $39 $-1 #
face $-1 $102 $103 $23 $-1 $104 forward single #
loop $-1 $-1 $105 $41 #
plane-surface $-1 0 -34.116660083940808 0 0 1 0 0 0 1 forward_v I I I I #
coedge $-1 $106 $107 $108 $109 forward $42 $-1 #
face $-1 $110 $111 $24 $-1 $112 reversed single #
loop $-1 $-1 $113 $44 #
plane-surface $-1 20.505228434423266 -34.116660083940815 9.7390354426023009 0 -0.79863551827123203 0.60181501223851219 1 0 0 forward_v I I I I #
coedge $-1 $114 $115 $116 $117 reversed $45 $-1 #
face $-1 $-1 $118 $25 $-1 $119 forward single #
loop $-1 $120 $121 $47 #
cone-surface $-1 20.505228434423266 -29.282359354028234 10.972209277108959 0 0.79863551827123203 -0.60181501223851219 0.5 0 0 1 I I -0.70710678118654746 0.70710678118654746 0.5 forward I I I I #
loop $-1 $-1 $122 $32 #
coedge $-1 $76 $76 $123 $124 reversed $48 $-1 #
face $-1 $125 $126 $26 $-1 $127 reversed single #
loop $-1 $-1 $128 $50 #
plane-surface $-1 25.648011374890295 -1.0260968903227194 67.745881845975674 0 0.85716730853699208 0.51503806187062418 1 0 0 forward_v I I I I #
coedge $-1 $129 $130 $131 $132 reversed $51 $-1 #
face $-1 $-1 $133 $27 $-1 $134 forward single #
loop $-1 $135 $136 $53 #
cone-surface $-1 25.648011374890295 27.216480700390143 9.6723592375237999 0 -0.85716730853699208 -0.51503806187062418 0.75 0 0 1 I I -0.70710678118654757 0.70710678118654757 0.75 forward I I I I #
loop $-1 $-1 $137 $34 #
coedge $-1 $85 $85 $138 $139 reversed $54 $-1 #
face $-1 $140 $141 $21 $-1 $142 reversed single #
loop $-1 $-1 $143 $56 #
plane-surface $-1 0 -34.116660083940808 0 0 1 0 0 0 1 forward_v I I I I #
coedge $-1 $144 $145 $146 $147 forward $57 $-1 #
coedge $-1 $148 $59 $149 $150 forward $36 $-1 #
coedge $-1 $59 $148 $151 $152 forward $36 $-1 #
coedge $-1 $153 $154 $59 $93 reversed $155 $-1 #
edge $-1 $156 -34.116660083940808 $157 34.116660083940808 $92 $158 forward 7 unknown #
face $-1 $159 $160 $22 $-1 $161 reversed single #
loop $-1 $-1 $100 $60 #
plane-surface $-1 -58.963344655261409 0 -2.3236436689564397 0 0 1 1 0 0 forward_v I I I I #
coedge $-1 $162 $163 $99 $164 forward $61 $-1 #
coedge $-1 $165 $63 $166 $167 reversed $39 $-1 #
coedge $-1 $63 $165 $97 $164 reversed $39 $-1 #
coedge $-1 $168 $169 $63 $101 reversed $95 $-1 #
edge $-1 $170 -34.116660083940808 $171 34.116660083940808 $100 $172 forward 7 unknown #
face $-1 $173 $174 $23 $-1 $175 reversed single #
loop $-1 $-1 $176 $64 #
plane-surface $-1 58.963344655261402 0 -2.3236436689564397 0 0 1 1 0 0 forward_v I I I I #
coedge $-1 $177 $178 $107 $179 forward $65 $-1 #
coedge $-1 $180 $67 $181 $182 reversed $42 $-1 #
coedge $-1 $67 $180 $105 $179 reversed $42 $-1 #
coedge $-1 $183 $184 $67 $109 reversed $103 $-1 #
edge $-1 $185 -34.116660083940808 $186 34.116660083940808 $108 $187 forward 7 unknown #
face $-1 $188 $189 $24 $-1 $190 forward single #
loop $-1 $-1 $191 $68 #
plane-surface $-1 14.256954774992856 -117.65617275171672 72.690571767189397 1 0 0 0 0.79863551827123203 -0.60181501223851219 forward_v I I I I #
coedge $-1 $192 $193 $194 $195 reversed $69 $-1 #
coedge $-1 $115 $71 $196 $197 reversed $45 $-1 #
coedge $-1 $71 $114 $192 $198 reversed $45 $-1 #
coedge $-1 $194 $199 $71 $117 forward $189 $-1 #
edge $-1 $200 24.711426291917554 $201 29.398615786662202 $116 $202 forward 7 unknown #
loop $-1 $-1 $123 $72 #
plane-surface $-1 20.505228434423266 -34.116660083940815 9.7390354426023009 0 -0.79863551827123203 0.60181501223851219 1 0 0 forward_v I I I I #
loop $-1 $-1 $203 $47 #
coedge $-1 $121 $121 $122 $204 reversed $73 $-1 #
coedge $-1 $122 $122 $121 $204 forward $75 $-1 #
coedge $-1 $123 $123 $76 $124 forward $118 $-1 #
edge $-1 $205 -1.4186616650690665e-015 $205 6.2831853071795987 $123 $206 forward 7 unknown #
face $-1 $207 $208 $26 $-1 $209 reversed single #
loop $-1 $-1 $210 $77 #
plane-surface $-1 36.544514354782621 88.636005021866708 121.62030604784957 -1 0 0 0 0.85716730853699208 0.51503806187062418 forward_v I I I I #
coedge $-1 $211 $212 $213 $214 reversed $78 $-1 #
coedge $-1 $130 $80 $215 $216 reversed $51 $-1 #
coedge $-1 $80 $129 $211 $217 reversed $51 $-1 #
coedge $-1 $213 $218 $80 $132 forward $219 $-1 #
edge $-1 $220 10.201342426992547 $221 14.227490415624466 $131 $222 forward 7 unknown #
loop $-1 $-1 $138 $81 #
plane-surface $-1 25.648011374890295 -1.0260968903227194 67.745881845975674 0 0.85716730853699208 0.51503806187062418 1 0 0 forward_v I I I I #
loop $-1 $-1 $223 $53 #
coedge $-1 $136 $136 $137 $224 reversed $82 $-1 #
coedge $-1 $137 $137 $136 $224 forward $84 $-1 #
coedge $-1 $138 $138 $85 $139 forward $133 $-1 #
edge $-1 $225 8.1906068394846559e-016 $225 6.2831853071796013 $138 $226 forward 7 unknown #
face $-1 $227 $228 $21 $-1 $229 reversed single #
loop $-1 $-1 $230 $86 #
plane-surface $-1 -52.301400799584947 0 0 1 0 0 0 0 -1 forward_v I I I I #
coedge $-1 $231 $151 $232 $233 forward $87 $-1 #
coedge $-1 $234 $89 $231 $235 forward $57 $-1 #
coedge $-1 $89 $234 $236 $237 forward $57 $-1 #
coedge $-1 $154 $153 $89 $147 reversed $155 $-1 #
edge $-1 $238 -34.116660083940808 $239 34.116660083940808 $146 $240 forward 7 unknown #
coedge $-1 $91 $90 $241 $242 forward $36 $-1 #
coedge $-1 $243 $244 $90 $150 reversed $228 $-1 #
edge $-1 $157 -52.301400799584947 $245 52.301400799584947 $149 $246 forward 7 unknown #
coedge $-1 $143 $247 $91 $152 reversed $87 $-1 #
edge $-1 $248 -52.301400799584947 $156 52.301400799584947 $151 $249 forward 7 unknown #
coedge $-1 $146 $92 $247 $250 forward $155 $-1 #
coedge $-1 $92 $146 $243 $251 reversed $155 $-1 #
loop $-1 $-1 $153 $227 #
vertex $-1 $93 $252 #
vertex $-1 $93 $253 #
straight-curve $-1 52.301400799584947 0 15.959146166406079 0 1 0 I I #
face $-1 $254 $255 $22 $-1 $256 reversed single #
loop $-1 $-1 $257 $94 #
plane-surface $-1 -58.963344655261409 0 -9.5603203732532869 0 0 1 1 0 0 forward_v I I I I #
coedge $-1 $258 $97 $259 $260 reversed $61 $-1 #
coedge $-1 $97 $258 $168 $261 reversed $61 $-1 #
edge $-1 $170 2.3236436689564397 $262 9.5603203732532869 $97 $263 forward 7 unknown #
coedge $-1 $99 $98 $257 $264 forward $39 $-1 #
coedge $-1 $265 $266 $98 $167 forward $267 $-1 #
edge $-1 $268 -9.5603203732532869 $171 -2.3236436689564397 $166 $269 forward 7 unknown #
coedge $-1 $270 $100 $163 $261 forward $95 $-1 #
coedge $-1 $100 $270 $265 $271 forward $95 $-1 #
vertex $-1 $164 $272 #
vertex $-1 $271 $273 #
straight-curve $-1 -52.301400799584947 0 -2.3236436689564397 0 -1 0 I I #
face $-1 $274 $275 $23 $-1 $276 reversed single #
loop $-1 $-1 $277 $102 #
plane-surface $-1 58.963344655261402 0 -9.5603203732532869 0 0 1 1 0 0 forward_v I I I I #
coedge $-1 $184 $183 $278 $279 forward $103 $-1 #
coedge $-1 $280 $105 $281 $282 reversed $65 $-1 #
coedge $-1 $105 $280 $183 $283 reversed $65 $-1 #
edge $-1 $185 2.3236436689564397 $284 9.5603203732532869 $105 $285 forward 7 unknown #
coedge $-1 $107 $106 $286 $287 forward $42 $-1 #
coedge $-1 $288 $289 $106 $182 forward $290 $-1 #
edge $-1 $291 -9.5603203732532869 $186 -2.3236436689564397 $181 $292 forward 7 unknown #
coedge $-1 $176 $108 $178 $283 forward $103 $-1 #
coedge $-1 $108 $176 $288 $293 forward $103 $-1 #
vertex $-1 $179 $294 #
vertex $-1 $293 $295 #
straight-curve $-1 52.301400799584947 0 -2.3236436689564397 0 1 0 I I #
face $-1 $-1 $296 $24 $-1 $297 reversed single #
loop $-1 $-1 $116 $110 #
plane-surface $-1 0 0 15.959146166406079 0 0 1 1 0 0 forward_v I I I I #
coedge $-1 $298 $299 $300 $301 reversed $111 $-1 #
coedge $-1 $302 $113 $115 $198 forward $69 $-1 #
coedge $-1 $113 $302 $298 $303 forward $69 $-1 #
coedge $-1 $300 $116 $113 $195 forward $189 $-1 #
edge $-1 $201 -16.500887876642043 $304 -4.004340557781223 $194 $305 forward 7 unknown #
coedge $-1 $306 $307 $114 $197 forward $296 $-1 #
edge $-1 $308 -26.60625044099239 $200 -20.38613971718862 $196 $309 forward 7 unknown #
edge $-1 $201 -7.7884223547534583 $308 -1.1369461177519839e-014 $115 $310 forward 7 unknown #
coedge $-1 $116 $300 $306 $311 forward $189 $-1 #
vertex $-1 $197 $312 #
vertex $-1 $117 $313 #
straight-curve $-1 26.753502093853676 -58.828086375858362 15.959146166406079 0 1 0 I I #
coedge $-1 $203 $203 $-1 $314 reversed $120 $-1 #
edge $-1 $315 0 $315 6.2831853071796004 $121 $316 forward 7 unknown #
vertex $-1 $124 $317 #
ellipse-curve $-1 20.505228434423266 -31.773065336568482 12.849090804504195 0 -0.79863551827123203 0.60181501223851219 1 0 0 1 I I #
face $-1 $-1 $219 $26 $-1 $318 forward single #
loop $-1 $-1 $319 $125 #
plane-surface $-1 0 34.116660083940808 0 0 -1 0 0 0 -1 forward_v I I I I #
coedge $-1 $320 $321 $322 $323 reversed $126 $-1 #
coedge $-1 $324 $128 $130 $217 forward $78 $-1 #
coedge $-1 $128 $324 $320 $325 forward $78 $-1 #
coedge $-1 $322 $131 $128 $214 forward $219 $-1 #
edge $-1 $221 1.9275027075528222 $326 23.720508667337473 $213 $327 forward 7 unknown #
coedge $-1 $328 $329 $129 $216 forward $208 $-1 #
edge $-1 $330 -51.551642578795061 $220 -44.851006857518705 $215 $331 forward 7 unknown #
edge $-1 $221 60.416134824319059 $330 68.233320167881644 $130 $332 forward 7 unknown #
coedge $-1 $131 $322 $328 $333 forward $219 $-1 #
loop $-1 $-1 $322 $207 #
vertex $-1 $216 $334 #
vertex $-1 $132 $335 #
straight-curve $-1 14.75150839499797 44.318002510933354 15.959146166406079 0 -1 0 I I #
coedge $-1 $223 $223 $-1 $336 reversed $135 $-1 #
edge $-1 $337 0 $337 6.2831853071796004 $136 $338 forward 7 unknown #
vertex $-1 $139 $339 #
ellipse-curve $-1 25.648011374890295 32.103586089624841 12.608828305767897 0 0.85716730853699208 0.51503806187062418 1.5 0 0 1 I I #
face $-1 $-1 $155 $21 $-1 $340 reversed single #
loop $-1 $-1 $243 $140 #
plane-surface $-1 0 34.116660083940808 0 0 -1 0 0 0 -1 forward_v I I I I #
coedge $-1 $341 $241 $244 $342 forward $141 $-1 #
coedge $-1 $247 $143 $144 $235 reversed $87 $-1 #
coedge $-1 $241 $341 $143 $233 reversed $141 $-1 #
edge $-1 $248 -15.959146166406079 $343 15.959146166406079 $232 $344 forward 7 unknown #
coedge $-1 $145 $144 $341 $345 forward $57 $-1 #
edge $-1 $239 -52.301400799584947 $343 52.301400799584947 $231 $346 forward 7 unknown #
coedge $-1 $244 $243 $145 $237 reversed $228 $-1 #
edge $-1 $347 -52.301400799584947 $238 52.301400799584947 $236 $348 forward 7 unknown #
vertex $-1 $147 $349 #
vertex $-1 $250 $350 #
straight-curve $-1 52.301400799584947 0 -15.959146166406079 0 -1 0 I I #
coedge $-1 $230 $232 $148 $242 reversed $141 $-1 #
edge $-1 $245 -34.116660083940808 $248 34.116660083940808 $241 $351 forward 7 unknown #
coedge $-1 $236 $149 $154 $251 forward $228 $-1 #
coedge $-1 $149 $236 $230 $342 reversed $228 $-1 #
vertex $-1 $150 $352 #
straight-curve $-1 0 34.116660083940808 15.959146166406079 -1 0 0 I I #
coedge $-1 $151 $231 $153 $250 reversed $87 $-1 #
vertex $-1 $242 $353 #
straight-curve $-1 0 -34.116660083940808 15.959146166406079 1 0 0 I I #
edge $-1 $156 -15.959146166406079 $239 15.959146166406079 $153 $354 forward 7 unknown #
edge $-1 $157 -15.959146166406079 $238 15.959146166406079 $154 $355 forward 7 unknown #
point $-1 52.301400799584947 -34.116660083940808 15.959146166406079 #
point $-1 52.301400799584947 34.116660083940808 15.959146166406079 #
face $-1 $-1 $267 $22 $-1 $356 reversed single #
loop $-1 $-1 $357 $159 #
plane-surface $-1 -65.625288510937878 0 -5.9419820211048631 1 0 0 0 0 -1 forward_v I I I I #
coedge $-1 $358 $259 $165 $264 reversed $160 $-1 #
coedge $-1 $163 $162 $357 $359 reversed $61 $-1 #
coedge $-1 $257 $360 $162 $260 forward $160 $-1 #
edge $-1 $361 -6.6619438556764692 $262 6.6619438556764621 $162 $362 forward 7 unknown #
edge $-1 $170 -6.6619438556764621 $363 6.6619438556764692 $163 $364 forward 7 unknown #
vertex $-1 $164 $365 #
straight-curve $-1 -52.301400799584947 34.116660083940808 0 0 0 -1 I I #
edge $-1 $268 -34.116660083940808 $262 34.116660083940808 $257 $366 forward 7 unknown #
coedge $-1 $367 $166 $169 $271 reversed $267 $-1 #
coedge $-1 $166 $367 $358 $368 reversed $267 $-1 #
loop $-1 $-1 $166 $254 #
vertex $-1 $167 $369 #
straight-curve $-1 -52.301400799584947 -34.116660083940808 0 0 0 1 I I #
coedge $-1 $169 $168 $370 $371 forward $95 $-1 #
edge $-1 $372 -6.6619438556764692 $171 6.6619438556764621 $265 $373 forward 7 unknown #
point $-1 -52.301400799584947 34.116660083940808 -2.3236436689564397 #
point $-1 -52.301400799584947 -34.116660083940808 -2.3236436689564397 #
face $-1 $-1 $290 $23 $-1 $374 reversed single #
loop $-1 $-1 $375 $173 #
plane-surface $-1 65.625288510937864 0 -5.9419820211048631 -1 0 0 0 0 1 forward_v I I I I #
coedge $-1 $281 $376 $377 $378 forward $174 $-1 #
coedge $-1 $375 $379 $176 $279 reversed $275 $-1 #
edge $-1 $380 -34.116660083940808 $381 34.116660083940808 $278 $382 forward 7 unknown #
coedge $-1 $178 $177 $375 $383 reversed $65 $-1 #
coedge $-1 $286 $277 $177 $282 forward $174 $-1 #
edge $-1 $384 -6.6619438556764621 $284 6.6619438556764621 $177 $385 forward 7 unknown #
edge $-1 $185 -6.6619438556764621 $380 6.6619438556764621 $178 $386 forward 7 unknown #
vertex $-1 $179 $387 #
straight-curve $-1 52.301400799584947 -34.116660083940808 0 0 0 -1 I I #
coedge $-1 $376 $281 $180 $287 reversed $174 $-1 #
edge $-1 $291 -34.116660083940808 $284 34.116660083940808 $286 $388 forward 7 unknown #
coedge $-1 $389 $181 $184 $293 reversed $290 $-1 #
coedge $-1 $181 $389 $376 $390 reversed $290 $-1 #
loop $-1 $-1 $181 $274 #
vertex $-1 $182 $391 #
straight-curve $-1 52.301400799584947 34.116660083940808 0 0 0 1 I I #
edge $-1 $381 -6.6619438556764621 $186 6.6619438556764621 $288 $392 forward 7 unknown #
point $-1 52.30140079958494 -34.116660083940808 -2.3236436689564397 #
point $-1 52.30140079958494 34.116660083940808 -2.3236436689564397 #
loop $-1 $-1 $196 $188 #
plane-surface $-1 0 -34.116660083940808 0 0 1 0 0 0 1 forward_v I I I I #
coedge $-1 $299 $191 $193 $303 reversed $111 $-1 #
coedge $-1 $191 $298 $393 $394 reversed $111 $-1 #
coedge $-1 $199 $194 $191 $301 forward $189 $-1 #
edge $-1 $304 -29.398615786662202 $395 -24.711426291917554 $300 $396 forward 7 unknown #
coedge $-1 $193 $192 $307 $397 reversed $69 $-1 #
edge $-1 $398 1.1369461177519839e-014 $304 7.7884223547534583 $298 $399 forward 7 unknown #
vertex $-1 $195 $400 #
straight-curve $-1 10.252614217211633 -29.429470589196161 15.959146166406079 -1 0 0 I I #
coedge $-1 $393 $196 $199 $311 reversed $296 $-1 #
coedge $-1 $196 $393 $302 $397 forward $296 $-1 #
vertex $-1 $197 $401 #
straight-curve $-1 26.753502093853676 -34.116660083940808 36.345285883594698 0 0 1 I I #
straight-curve $-1 26.753502093853676 -34.116660083940815 9.7390354426023009 0 -0.60181501223851219 -0.79863551827123203 I I #
edge $-1 $395 14.256954774992856 $200 26.753502093853676 $306 $402 forward 7 unknown #
point $-1 26.753502093853676 -34.116660083940808 15.959146166406079 #
point $-1 26.753502093853676 -29.429470589196161 15.959146166406079 #
edge $-1 $403 1 $403 0 $203 $-1 forward 7 unknown #
vertex $-1 $204 $404 #
ellipse-curve $-1 20.505228434423266 -29.68167711316385 11.273116783228215 0 -0.79863551827123203 0.60181501223851219 1 0 0 1 I I #
point $-1 21.505228434423266 -31.773065336568482 12.849090804504193 #
plane-surface $-1 0 0 15.959146166406079 0 0 1 1 0 0 forward_v I I I I #
coedge $-1 $329 $328 $321 $405 forward $208 $-1 #
coedge $-1 $321 $210 $212 $325 reversed $126 $-1 #
coedge $-1 $210 $320 $319 $405 reversed $126 $-1 #
coedge $-1 $218 $213 $210 $323 forward $219 $-1 #
edge $-1 $326 -14.227490415624466 $406 -10.201342426992547 $322 $407 forward 7 unknown #
coedge $-1 $212 $211 $329 $408 reversed $78 $-1 #
edge $-1 $409 -68.233320167881644 $326 -60.416134824319059 $320 $410 forward 7 unknown #
vertex $-1 $214 $411 #
straight-curve $-1 12.824005687445148 30.090512095308881 15.959146166406079 1 0 0 I I #
coedge $-1 $319 $215 $218 $333 reversed $208 $-1 #
coedge $-1 $215 $319 $324 $408 forward $208 $-1 #
vertex $-1 $216 $412 #
straight-curve $-1 14.75150839499797 34.116660083940808 60.810153023924784 0 0 1 I I #
straight-curve $-1 14.75150839499797 -1.0260968903227194 67.745881845975674 0 0.51503806187062418 -0.85716730853699208 I I #
edge $-1 $406 -36.544514354782621 $220 -14.75150839499797 $328 $413 forward 7 unknown #
point $-1 14.75150839499797 34.116660083940808 15.959146166406079 #
point $-1 14.75150839499797 30.090512095308888 15.959146166406079 #
edge $-1 $414 1 $414 0 $223 $-1 forward 7 unknown #
vertex $-1 $224 $415 #
ellipse-curve $-1 25.648011374890295 27.859356181792887 10.058637783926768 0 0.85716730853699208 0.51503806187062418 1.5 0 0 1 I I #
point $-1 27.148011374890295 32.103586089624855 12.608828305767904 #
plane-surface $-1 52.301400799584947 0 0 -1 0 0 0 0 1 forward_v I I I I #
coedge $-1 $232 $230 $234 $345 reversed $141 $-1 #
edge $-1 $245 -15.959146166406079 $347 15.959146166406079 $244 $416 forward 7 unknown #
vertex $-1 $345 $417 #
straight-curve $-1 -52.301400799584947 -34.116660083940808 0 0 0 -1 I I #
edge $-1 $343 -34.116660083940808 $347 34.116660083940808 $341 $418 forward 7 unknown #
straight-curve $-1 0 -34.116660083940808 -15.959146166406079 -1 0 0 I I #
vertex $-1 $237 $419 #
straight-curve $-1 0 34.116660083940808 -15.959146166406079 1 0 0 I I #
point $-1 52.301400799584947 34.116660083940808 -15.959146166406079 #
point $-1 52.301400799584947 -34.116660083940808 -15.959146166406079 #
straight-curve $-1 -52.301400799584947 0 15.959146166406079 0 -1 0 I I #
point $-1 -52.301400799584947 34.116660083940808 15.959146166406079 #
point $-1 -52.301400799584947 -34.116660083940808 15.959146166406079 #
straight-curve $-1 52.301400799584947 -34.116660083940808 0 0 0 -1 I I #
straight-curve $-1 52.301400799584947 34.116660083940808 0 0 0 -1 I I #
plane-surface $-1 0 -34.116660083940808 0 0 1 0 0 0 1 forward_v I I I I #
coedge $-1 $420 $370 $258 $359 forward $255 $-1 #
coedge $-1 $360 $257 $266 $368 forward $160 $-1 #
edge $-1 $363 -3.6183383521484234 $361 3.6183383521484238 $258 $421 forward 7 unknown #
coedge $-1 $259 $358 $420 $422 forward $160 $-1 #
vertex $-1 $260 $423 #
straight-curve $-1 -58.963344655261409 34.116660083940808 -9.5603203732532869 1 0 0 I I #
vertex $-1 $261 $424 #
straight-curve $-1 -58.963344655261409 34.116660083940808 -2.3236436689564397 -1 0 0 I I #
point $-1 -52.301400799584947 34.116660083940808 -9.5603203732532869 #
straight-curve $-1 -52.301400799584947 0 -9.5603203732532869 0 1 0 I I #
coedge $-1 $266 $265 $425 $426 forward $267 $-1 #
edge $-1 $268 -6.6619438556764621 $427 6.6619438556764692 $266 $428 forward 7 unknown #
point $-1 -52.301400799584947 -34.116660083940808 -9.5603203732532869 #
coedge $-1 $357 $425 $270 $371 reversed $255 $-1 #
edge $-1 $363 -34.116660083940808 $372 34.116660083940808 $370 $429 forward 7 unknown #
vertex $-1 $371 $430 #
straight-curve $-1 -58.963344655261409 -34.116660083940808 -2.3236436689564397 1 0 0 I I #
plane-surface $-1 0 34.116660083940808 0 0 -1 0 0 0 -1 forward_v I I I I #
coedge $-1 $377 $278 $280 $383 forward $275 $-1 #
coedge $-1 $277 $286 $289 $390 forward $174 $-1 #
coedge $-1 $379 $375 $277 $378 reversed $275 $-1 #
edge $-1 $431 -34.116660083940808 $384 34.116660083940808 $377 $432 forward 7 unknown #
coedge $-1 $278 $377 $389 $433 reversed $275 $-1 #
vertex $-1 $279 $434 #
vertex $-1 $279 $435 #
straight-curve $-1 65.625288510937864 0 -2.3236436689564397 0 1 0 I I #
edge $-1 $380 -3.6183383521484234 $384 3.6183383521484238 $375 $436 forward 7 unknown #
vertex $-1 $383 $437 #
straight-curve $-1 58.963344655261402 -34.116660083940808 -9.5603203732532869 -1 0 0 I I #
straight-curve $-1 58.963344655261402 -34.116660083940808 -2.3236436689564397 1 0 0 I I #
point $-1 52.30140079958494 -34.116660083940808 -9.5603203732532869 #
straight-curve $-1 52.301400799584947 0 -9.5603203732532869 0 -1 0 I I #
coedge $-1 $289 $288 $379 $433 forward $290 $-1 #
edge $-1 $291 -6.6619438556764621 $431 6.6619438556764621 $289 $438 forward 7 unknown #
point $-1 52.30140079958494 34.116660083940808 -9.5603203732532869 #
straight-curve $-1 58.963344655261402 34.116660083940808 -2.3236436689564397 -1 0 0 I I #
coedge $-1 $307 $306 $299 $394 forward $296 $-1 #
edge $-1 $395 20.38613971718862 $398 26.60625044099239 $393 $439 forward 7 unknown #
vertex $-1 $311 $440 #
straight-curve $-1 14.256954774992856 -58.828086375858362 15.959146166406079 0 -1 0 I I #
edge $-1 $398 4.004340557781223 $308 16.500887876642043 $307 $441 forward 7 unknown #
vertex $-1 $397 $442 #
straight-curve $-1 14.256954774992856 -34.116660083940815 9.7390354426023009 0 0.60181501223851219 0.79863551827123203 I I #
point $-1 14.256954774992856 -29.429470589196161 15.959146166406079 #
point $-1 26.753502093853676 -34.116660083940808 9.7390354426023098 #
straight-curve $-1 0 -34.116660083940808 15.959146166406079 1 0 0 I I #
vertex $-1 $314 $443 #
point $-1 21.505228434423266 -29.68167711316385 11.273116783228215 #
edge $-1 $406 44.851006857518705 $409 51.551642578795061 $319 $444 forward 7 unknown #
vertex $-1 $333 $445 #
straight-curve $-1 36.544514354782621 44.318002510933354 15.959146166406079 0 1 0 I I #
edge $-1 $409 -23.720508667337473 $330 -1.9275027075528222 $329 $446 forward 7 unknown #
vertex $-1 $408 $447 #
straight-curve $-1 36.544514354782621 -1.0260968903227194 67.745881845975674 0 -0.51503806187062418 0.85716730853699208 I I #
point $-1 36.544514354782621 30.090512095308888 15.959146166406079 #
point $-1 14.75150839499797 34.116660083940808 9.2585104451297227 #
straight-curve $-1 0 34.116660083940808 15.959146166406079 -1 0 0 I I #
vertex $-1 $336 $448 #
point $-1 27.148011374890295 27.859356181792887 10.058637783926768 #
straight-curve $-1 -52.301400799584947 34.116660083940808 0 0 0 -1 I I #
point $-1 -52.301400799584947 -34.116660083940808 -15.959146166406079 #
straight-curve $-1 -52.301400799584947 0 -15.959146166406079 0 1 0 I I #
point $-1 -52.301400799584947 34.116660083940808 -15.959146166406079 #
coedge $-1 $425 $357 $360 $422 reversed $255 $-1 #
straight-curve $-1 -65.625288510937878 34.116660083940808 -5.9419820211048631 0 0 -1 I I #
edge $-1 $427 -34.116660083940808 $361 34.116660083940808 $420 $449 forward 7 unknown #
point $-1 -65.625288510937878 34.116660083940808 -9.5603203732532869 #
point $-1 -65.625288510937878 34.116660083940808 -2.3236436689564397 #
coedge $-1 $370 $420 $367 $426 reversed $255 $-1 #
edge $-1 $372 -3.6183383521484234 $427 3.6183383521484238 $425 $450 forward 7 unknown #
vertex $-1 $422 $451 #
straight-curve $-1 -58.963344655261409 -34.116660083940808 -9.5603203732532869 -1 0 0 I I #
straight-curve $-1 -65.625288510937878 0 -2.3236436689564397 0 -1 0 I I #
point $-1 -65.625288510937878 -34.116660083940808 -2.3236436689564397 #
vertex $-1 $378 $452 #
straight-curve $-1 65.625288510937864 0 -9.5603203732532869 0 -1 0 I I #
edge $-1 $381 -3.6183383521484234 $431 3.6183383521484238 $379 $453 forward 7 unknown #
point $-1 65.625288510937864 -34.116660083940808 -2.3236436689564397 #
point $-1 65.625288510937864 34.116660083940808 -2.3236436689564397 #
straight-curve $-1 65.625288510937864 -34.116660083940808 -5.9419820211048631 0 0 -1 I I #
point $-1 65.625288510937864 -34.116660083940808 -9.5603203732532869 #
straight-curve $-1 58.963344655261402 34.116660083940808 -9.5603203732532869 1 0 0 I I #
straight-curve $-1 14.256954774992856 -34.116660083940808 36.345285883594698 0 0 -1 I I #
point $-1 14.256954774992856 -34.116660083940808 15.959146166406079 #
straight-curve $-1 10.252614217211633 -34.116660083940808 9.7390354426023151 1 0 0 I I #
point $-1 14.256954774992856 -34.116660083940808 9.7390354426023098 #
point $-1 20.505228434423266 -28.883041594892617 10.671301770989704 #
straight-curve $-1 36.544514354782621 34.116660083940808 60.810153023924784 0 0 -1 I I #
point $-1 36.544514354782621 34.116660083940808 15.959146166406079 #
straight-curve $-1 12.824005687445148 34.116660083940808 9.258510445129712 -1 0 0 I I #
point $-1 36.544514354782621 34.116660083940808 9.2585104451297227 #
point $-1 25.648011374890295 26.573605218987399 9.2860806911208318 #
straight-curve $-1 -65.625288510937878 0 -9.5603203732532869 0 1 0 I I #
straight-curve $-1 -65.625288510937878 -34.116660083940808 -5.9419820211048631 0 0 -1 I I #
point $-1 -65.625288510937878 -34.116660083940808 -9.5603203732532869 #
point $-1 65.625288510937864 34.116660083940808 -9.5603203732532869 #
straight-curve $-1 65.625288510937864 34.116660083940808 -5.9419820211048631 0 0 -1 I I #
End-of-ACIS-data 