500 0 6 0           
7 Unknown 11 ACIS 5.0 NT 24 Fri Mar 26 16:35:53 1999 
-1 9.9999999999999995e-007 1e-010 
body $-1 $6 $-1 $7 #
body $-1 $8 $-1 $9 #
body $-1 $10 $-1 $11 #
body $-1 $12 $-1 $13 #
body $-1 $14 $-1 $15 #
body $-1 $16 $-1 $17 #
lump $-1 $-1 $18 $0 #
transform $-1 1 0 0 0 1 0 0 0 1 54.805139316995763 23.887494101120087 7.3704441316307348 1 rotate no_reflect no_shear #
lump $-1 $-1 $19 $1 #
transform $-1 1 0 0 0 1 0 0 0 1 54.805139316995763 23.887494101120087 7.3704441316307348 1 rotate no_reflect no_shear #
lump $-1 $-1 $20 $2 #
transform $-1 1 0 0 0 1 0 0 0 1 54.805139316995763 23.887494101120087 7.3704441316307348 1 rotate no_reflect no_shear #
lump $-1 $-1 $21 $3 #
transform $-1 1 0 0 0 1 0 0 0 1 54.805139316995763 23.887494101120087 7.3704441316307348 1 rotate no_reflect no_shear #
lump $-1 $-1 $22 $4 #
transform $-1 1 0 0 0 1 0 0 0 1 54.805139316995763 23.887494101120087 7.3704441316307348 1 rotate no_reflect no_shear #
lump $-1 $-1 $23 $5 #
transform $-1 1 0 0 0 1 0 0 0 1 54.805139316995763 23.887494101120087 7.3704441316307348 1 rotate no_reflect no_shear #
shell $-1 $-1 $-1 $24 $-1 $6 #
shell $-1 $-1 $-1 $25 $-1 $8 #
shell $-1 $-1 $-1 $26 $-1 $10 #
shell $-1 $-1 $-1 $27 $-1 $12 #
shell $-1 $-1 $-1 $28 $-1 $14 #
shell $-1 $-1 $-1 $29 $-1 $16 #
face $-1 $30 $31 $18 $-1 $32 forward single #
face $-1 $33 $34 $19 $-1 $35 forward single #
face $-1 $36 $37 $20 $-1 $38 reversed single #
face $-1 $39 $40 $21 $-1 $41 forward single #
face $-1 $42 $43 $22 $-1 $44 reversed single #
face $-1 $45 $46 $23 $-1 $47 forward single #
face $-1 $48 $49 $18 $-1 $50 reversed single #
loop $-1 $-1 $51 $24 #
plane-surface $-1 0 0 7.3704441316307348 0 0 1 1 0 0 forward_v I I I I #
face $-1 $52 $53 $19 $-1 $54 reversed single #
loop $-1 $-1 $55 $25 #
plane-surface $-1 0 -19.5134289366644 0.16904112509888858 0 0 1 1 0 0 forward_v I I I I #
face $-1 $56 $57 $20 $-1 $58 reversed single #
loop $-1 $-1 $59 $26 #
plane-surface $-1 89.67533148430968 14.322810797840006 151.84619803585505 0 1 0 0.84804810408105047 0 0.52991925155115449 forward_v I I I I #
face $-1 $60 $61 $21 $-1 $62 forward single #
loop $-1 $63 $64 $27 #
cone-surface $-1 51.917740437652363 19.105152449480048 3.5658045491723578 -0.84804810408105047 0 -0.52991925155115449 0.26495962577557725 0 -0.42402405204052523 1 I I 0 1 0.5 forward I I I I #
face $-1 $65 $66 $22 $-1 $67 reversed single #
loop $-1 $-1 $68 $28 #
plane-surface $-1 -132.31131152610746 -12.464958922951549 81.610789316997256 0 1 0 -0.70710678939079041 0 0.70710677298230451 forward_v I I I I #
face $-1 $69 $70 $23 $-1 $71 forward single #
loop $-1 $72 $73 $29 #
cone-surface $-1 -52.145090847798116 -8.3932718935922672 4.7103956483759752 0.70710678939079041 0 -0.70710677298230451 0.70710677298230451 0 0.70710678939079041 1 I I 0 1 1 forward I I I I #
face $-1 $74 $75 $18 $-1 $76 reversed single #
loop $-1 $-1 $77 $30 #
plane-surface $-1 0 0 -7.3704441316307348 0 0 1 1 0 0 forward_v I I I I #
coedge $-1 $78 $79 $80 $81 forward $31 $-1 #
face $-1 $82 $83 $19 $-1 $84 reversed single #
loop $-1 $-1 $85 $33 #
plane-surface $-1 0 -19.5134289366644 -2.8309588749011114 0 0 1 1 0 0 forward_v I I I I #
coedge $-1 $86 $87 $88 $89 reversed $34 $-1 #
face $-1 $90 $91 $20 $-1 $92 forward single #
loop $-1 $-1 $93 $36 #
plane-surface $-1 -3.2794574990425076 19.105152449480041 93.761601219816754 0.84804810408105047 0 0.52991925155115449 0.52991925155115449 0 -0.84804810408105047 forward_v I I I I #
coedge $-1 $94 $95 $96 $97 reversed $37 $-1 #
face $-1 $-1 $98 $21 $-1 $99 forward single #
loop $-1 $100 $101 $39 #
cone-surface $-1 50.869035668300143 19.105152449480048 2.9105011014092801 -0.84804810408105047 0 -0.52991925155115449 0.13247981288778862 0 -0.21201202602026262 1 I I -0.70710678118654746 0.70710678118654746 0.25 forward I I I I #
loop $-1 $-1 $102 $27 #
coedge $-1 $64 $64 $103 $104 reversed $40 $-1 #
face $-1 $105 $106 $22 $-1 $107 reversed single #
loop $-1 $-1 $108 $42 #
plane-surface $-1 -54.805139316995763 -8.3932718935922672 4.104618906424264 -0.70710678939079041 0 0.70710677298230451 0.70710677298230451 0 0.70710678939079041 forward_v I I I I #
coedge $-1 $109 $110 $111 $112 reversed $43 $-1 #
face $-1 $-1 $113 $23 $-1 $114 forward single #
loop $-1 $115 $116 $45 #
cone-surface $-1 -50.764401558616392 -8.3932718935922672 3.32970639123329 0.70710678939079041 0 -0.70710677298230451 0.35355338649115226 0 0.35355339469539521 1 I I -0.70710678118654779 0.70710678118654713 0.5 forward I I I I #
loop $-1 $-1 $117 $29 #
coedge $-1 $73 $73 $118 $119 reversed $46 $-1 #
face $-1 $120 $121 $18 $-1 $122 reversed single #
loop $-1 $-1 $123 $48 #
plane-surface $-1 0 -23.887494101120087 0 0 1 0 0 0 1 forward_v I I I I #
coedge $-1 $124 $125 $126 $127 forward $49 $-1 #
coedge $-1 $128 $51 $129 $130 forward $31 $-1 #
coedge $-1 $51 $128 $131 $132 forward $31 $-1 #
coedge $-1 $133 $134 $51 $81 reversed $135 $-1 #
edge $-1 $136 -23.887494101120087 $137 23.887494101120087 $80 $138 forward 7 unknown #
face $-1 $139 $140 $19 $-1 $141 reversed single #
loop $-1 $-1 $142 $52 #
plane-surface $-1 0 -15.139363772208714 -1.3309588749011114 0 -1 0 0 0 -1 forward_v I I I I #
coedge $-1 $143 $144 $145 $146 reversed $53 $-1 #
coedge $-1 $147 $55 $148 $149 forward $34 $-1 #
coedge $-1 $55 $147 $150 $151 reversed $34 $-1 #
coedge $-1 $152 $153 $55 $89 forward $154 $-1 #
edge $-1 $155 5.382649303876514 $156 14.130779632787887 $88 $157 forward 7 unknown #
face $-1 $158 $159 $20 $-1 $160 reversed single #
loop $-1 $-1 $161 $56 #
plane-surface $-1 0 0 7.3704441316307348 0 0 1 1 0 0 forward_v I I I I #
coedge $-1 $162 $163 $164 $165 reversed $57 $-1 #
coedge $-1 $95 $59 $166 $167 reversed $37 $-1 #
coedge $-1 $59 $94 $162 $168 reversed $37 $-1 #
coedge $-1 $164 $169 $59 $97 forward $159 $-1 #
edge $-1 $170 68.552654886296793 $171 75.116286781462932 $96 $172 forward 7 unknown #
loop $-1 $-1 $103 $60 #
plane-surface $-1 -3.2794574990425076 19.105152449480041 93.761601219816754 0.84804810408105047 0 0.52991925155115449 0.52991925155115449 0 -0.84804810408105047 forward_v I I I I #
loop $-1 $-1 $173 $39 #
coedge $-1 $101 $101 $102 $174 reversed $61 $-1 #
coedge $-1 $102 $102 $101 $174 forward $63 $-1 #
coedge $-1 $103 $103 $64 $104 forward $98 $-1 #
edge $-1 $175 0 $175 6.2831853071796004 $103 $176 forward 7 unknown #
face $-1 $177 $178 $22 $-1 $179 reversed single #
loop $-1 $-1 $180 $65 #
plane-surface $-1 -132.31131152610746 -4.3215848642329853 81.610789316997256 0 -1 0 0.70710678939079041 0 -0.70710677298230451 forward_v I I I I #
coedge $-1 $181 $182 $183 $184 reversed $66 $-1 #
coedge $-1 $110 $68 $185 $186 reversed $43 $-1 #
coedge $-1 $68 $109 $181 $187 reversed $43 $-1 #
coedge $-1 $183 $188 $68 $112 forward $189 $-1 #
edge $-1 $190 11.350516446057966 $191 14.616341595480627 $111 $192 forward 7 unknown #
loop $-1 $-1 $118 $69 #
plane-surface $-1 -54.805139316995763 -8.3932718935922672 4.104618906424264 -0.70710678939079041 0 0.70710677298230451 0.70710677298230451 0 0.70710678939079041 forward_v I I I I #
loop $-1 $-1 $193 $45 #
coedge $-1 $116 $116 $117 $194 reversed $70 $-1 #
coedge $-1 $117 $117 $116 $194 forward $72 $-1 #
coedge $-1 $118 $118 $73 $119 forward $113 $-1 #
edge $-1 $195 0 $195 6.2831853071796004 $118 $196 forward 7 unknown #
face $-1 $197 $198 $18 $-1 $199 reversed single #
loop $-1 $-1 $200 $74 #
plane-surface $-1 -54.805139316995763 0 0 1 0 0 0 0 -1 forward_v I I I I #
coedge $-1 $201 $131 $202 $203 forward $75 $-1 #
coedge $-1 $204 $77 $201 $205 forward $49 $-1 #
coedge $-1 $77 $204 $206 $207 forward $49 $-1 #
coedge $-1 $134 $133 $77 $127 reversed $135 $-1 #
edge $-1 $208 -23.887494101120087 $209 23.887494101120087 $126 $210 forward 7 unknown #
coedge $-1 $79 $78 $211 $212 forward $31 $-1 #
coedge $-1 $213 $214 $78 $130 reversed $198 $-1 #
edge $-1 $137 -54.805139316995763 $215 54.805139316995763 $129 $216 forward 7 unknown #
coedge $-1 $123 $217 $79 $132 reversed $75 $-1 #
edge $-1 $218 -54.805139316995763 $136 54.805139316995763 $131 $219 forward 7 unknown #
coedge $-1 $126 $80 $217 $220 forward $135 $-1 #
coedge $-1 $80 $126 $213 $221 reversed $135 $-1 #
loop $-1 $-1 $133 $197 #
vertex $-1 $81 $222 #
vertex $-1 $81 $223 #
straight-curve $-1 54.805139316995763 0 7.3704441316307348 0 1 0 I I #
face $-1 $224 $225 $19 $-1 $226 reversed single #
loop $-1 $-1 $227 $82 #
plane-surface $-1 -54.805139316995763 0 0 1 0 0 0 0 -1 forward_v I I I I #
coedge $-1 $228 $148 $153 $229 reversed $83 $-1 #
coedge $-1 $230 $85 $231 $232 reversed $53 $-1 #
coedge $-1 $85 $230 $228 $233 forward $53 $-1 #
coedge $-1 $153 $152 $85 $146 forward $154 $-1 #
edge $-1 $234 -14.130779632787887 $235 -5.382649303876514 $145 $236 forward 7 unknown #
coedge $-1 $87 $86 $227 $237 reversed $34 $-1 #
coedge $-1 $142 $238 $86 $149 reversed $83 $-1 #
edge $-1 $155 -54.805139316995763 $239 54.805139316995763 $148 $240 forward 7 unknown #
coedge $-1 $241 $242 $87 $151 forward $225 $-1 #
edge $-1 $156 -54.805139316995763 $243 54.805139316995763 $150 $244 forward 7 unknown #
coedge $-1 $145 $88 $242 $245 forward $154 $-1 #
coedge $-1 $88 $145 $142 $229 forward $154 $-1 #
loop $-1 $-1 $88 $224 #
vertex $-1 $89 $246 #
vertex $-1 $245 $247 #
straight-curve $-1 54.805139316995763 -9.7567144683322002 0.16904112509888858 0 -1 0 I I #
face $-1 $-1 $248 $20 $-1 $249 reversed single #
loop $-1 $-1 $96 $90 #
plane-surface $-1 54.805139316995763 0 0 -1 0 0 0 0 1 forward_v I I I I #
coedge $-1 $166 $250 $251 $252 forward $91 $-1 #
coedge $-1 $251 $93 $95 $168 forward $57 $-1 #
coedge $-1 $93 $251 $253 $254 reversed $57 $-1 #
coedge $-1 $255 $96 $93 $165 forward $159 $-1 #
edge $-1 $171 4.7702345730999856 $256 14.334917876380056 $164 $257 forward 7 unknown #
coedge $-1 $258 $161 $94 $167 forward $91 $-1 #
edge $-1 $259 5.8660613028180819 $170 9.9674735748409233 $166 $260 forward 7 unknown #
edge $-1 $171 -109.61027863399148 $259 -101.87058572791686 $95 $261 forward 7 unknown #
coedge $-1 $96 $255 $258 $262 reversed $159 $-1 #
vertex $-1 $262 $263 #
vertex $-1 $97 $264 #
straight-curve $-1 54.805139316995763 14.322810797840006 75.923099017927527 0 0 -1 I I #
coedge $-1 $173 $173 $-1 $265 reversed $100 $-1 #
edge $-1 $266 0 $266 6.2831853071796004 $101 $267 forward 7 unknown #
vertex $-1 $104 $268 #
ellipse-curve $-1 52.754433180984343 19.105152449480048 4.0886281840476624 0.84804810408105047 0 0.52991925155115449 0.26495962577557725 0 -0.42402405204052523 1 I I #
face $-1 $-1 $189 $22 $-1 $269 forward single #
loop $-1 $-1 $270 $105 #
plane-surface $-1 -54.805139316995763 0 0 1 0 0 0 0 -1 forward_v I I I I #
coedge $-1 $271 $272 $273 $274 reversed $106 $-1 #
coedge $-1 $275 $108 $110 $187 forward $66 $-1 #
coedge $-1 $108 $275 $271 $276 forward $66 $-1 #
coedge $-1 $273 $111 $108 $184 forward $189 $-1 #
edge $-1 $191 -8.2683229761554156 $277 -0.12494891743685166 $183 $278 forward 7 unknown #
coedge $-1 $279 $280 $109 $186 forward $178 $-1 #
edge $-1 $281 -36.700775752074364 $190 -33.434950526867894 $185 $282 forward 7 unknown #
edge $-1 $191 -4.6185742722399139 $281 0 $110 $283 forward 7 unknown #
coedge $-1 $111 $273 $279 $284 forward $189 $-1 #
loop $-1 $-1 $273 $177 #
vertex $-1 $186 $285 #
vertex $-1 $112 $286 #
straight-curve $-1 -66.15565576305373 -12.464958922951549 7.3704441316307339 1 0 0 I I #
coedge $-1 $193 $193 $-1 $287 reversed $115 $-1 #
edge $-1 $288 0 $288 6.2831853071796004 $116 $289 forward 7 unknown #
vertex $-1 $119 $290 #
ellipse-curve $-1 -53.172226742284437 -8.3932718935922672 5.7375315190274989 -0.70710678939079041 0 0.70710677298230451 0.70710677298230451 0 0.70710678939079041 1 I I #
face $-1 $-1 $135 $18 $-1 $291 reversed single #
loop $-1 $-1 $213 $120 #
plane-surface $-1 0 23.887494101120087 0 0 -1 0 0 0 -1 forward_v I I I I #
coedge $-1 $292 $211 $214 $293 forward $121 $-1 #
coedge $-1 $217 $123 $124 $205 reversed $75 $-1 #
coedge $-1 $211 $292 $123 $203 reversed $121 $-1 #
edge $-1 $218 -7.3704441316307348 $294 7.3704441316307348 $202 $295 forward 7 unknown #
coedge $-1 $125 $124 $292 $296 forward $49 $-1 #
edge $-1 $209 -54.805139316995763 $294 54.805139316995763 $201 $297 forward 7 unknown #
coedge $-1 $214 $213 $125 $207 reversed $198 $-1 #
edge $-1 $298 -54.805139316995763 $208 54.805139316995763 $206 $299 forward 7 unknown #
vertex $-1 $127 $300 #
vertex $-1 $220 $301 #
straight-curve $-1 54.805139316995763 0 -7.3704441316307348 0 -1 0 I I #
coedge $-1 $200 $202 $128 $212 reversed $121 $-1 #
edge $-1 $215 -23.887494101120087 $218 23.887494101120087 $211 $302 forward 7 unknown #
coedge $-1 $206 $129 $134 $221 forward $198 $-1 #
coedge $-1 $129 $206 $200 $293 reversed $198 $-1 #
vertex $-1 $130 $303 #
straight-curve $-1 0 23.887494101120087 7.3704441316307348 -1 0 0 I I #
coedge $-1 $131 $201 $133 $220 reversed $75 $-1 #
vertex $-1 $212 $304 #
straight-curve $-1 0 -23.887494101120087 7.3704441316307348 1 0 0 I I #
edge $-1 $136 -7.3704441316307348 $209 7.3704441316307348 $133 $305 forward 7 unknown #
edge $-1 $137 -7.3704441316307348 $208 7.3704441316307348 $134 $306 forward 7 unknown #
point $-1 54.805139316995763 -23.887494101120087 7.3704441316307348 #
point $-1 54.805139316995763 23.887494101120087 7.3704441316307348 #
face $-1 $-1 $154 $19 $-1 $307 reversed single #
loop $-1 $-1 $150 $139 #
plane-surface $-1 0 -23.887494101120087 0 0 1 0 0 0 1 forward_v I I I I #
coedge $-1 $308 $309 $147 $237 forward $140 $-1 #
coedge $-1 $238 $142 $144 $233 reversed $83 $-1 #
edge $-1 $235 -2.1654794374505557 $155 0.83452056254944429 $153 $310 forward 7 unknown #
coedge $-1 $144 $143 $311 $312 reversed $53 $-1 #
coedge $-1 $242 $241 $143 $232 forward $225 $-1 #
edge $-1 $313 -54.805139316995763 $234 54.805139316995763 $231 $314 forward 7 unknown #
edge $-1 $315 -54.805139316995763 $235 54.805139316995763 $228 $316 forward 7 unknown #
vertex $-1 $232 $317 #
vertex $-1 $146 $318 #
straight-curve $-1 54.805139316995763 -9.7567144683322002 -2.8309588749011114 0 1 0 I I #
edge $-1 $243 -14.130779632787887 $239 -5.382649303876514 $227 $319 forward 7 unknown #
coedge $-1 $148 $228 $308 $320 reversed $83 $-1 #
vertex $-1 $237 $321 #
straight-curve $-1 0 -15.139363772208714 0.16904112509888858 -1 0 0 I I #
coedge $-1 $231 $150 $309 $322 forward $225 $-1 #
coedge $-1 $150 $231 $152 $245 reversed $225 $-1 #
vertex $-1 $322 $323 #
straight-curve $-1 0 -23.887494101120087 0.16904112509888858 -1 0 0 I I #
edge $-1 $156 -0.16904112509888858 $234 2.8309588749011114 $152 $324 forward 7 unknown #
point $-1 54.805139316995763 -15.139363772208714 0.16904112509888858 #
point $-1 54.805139316995763 -23.887494101120087 0.16904112509888858 #
loop $-1 $-1 $253 $158 #
plane-surface $-1 0 23.887494101120087 0 0 -1 0 0 0 -1 forward_v I I I I #
coedge $-1 $161 $258 $325 $326 forward $91 $-1 #
coedge $-1 $163 $162 $161 $252 reversed $57 $-1 #
edge $-1 $327 -14.334917876380056 $259 -4.7702345730999856 $161 $328 forward 7 unknown #
coedge $-1 $325 $329 $163 $254 forward $248 $-1 #
edge $-1 $256 -68.98418072726372 $327 -61.244487821189097 $253 $330 forward 7 unknown #
coedge $-1 $169 $164 $329 $331 reversed $159 $-1 #
vertex $-1 $254 $332 #
straight-curve $-1 54.805139316995763 9.5525762247400205 0.80681223646460154 0 1 0 I I #
coedge $-1 $250 $166 $169 $262 forward $91 $-1 #
vertex $-1 $167 $333 #
straight-curve $-1 44.83766574215484 14.322810797840006 7.3704441316307339 1 0 0 I I #
straight-curve $-1 -3.2794574990425076 14.322810797840006 93.761601219816754 -0.52991925155115449 0 0.84804810408105047 I I #
edge $-1 $170 14.322810797840006 $334 23.887494101120087 $169 $335 forward 7 unknown #
point $-1 54.805139316995763 14.322810797840006 7.3704441316307348 #
point $-1 54.805139316995763 14.322810797840006 0.80681223646459443 #
edge $-1 $336 1 $336 0 $173 $-1 forward 7 unknown #
vertex $-1 $174 $337 #
ellipse-curve $-1 51.081047694320404 19.105152449480048 3.0429809142970687 0.84804810408105047 0 0.52991925155115449 0.26495962577557725 0 -0.42402405204052523 1 I I #
point $-1 53.019392806759896 19.105152449480048 3.6646041320071223 #
plane-surface $-1 0 0 7.3704441316307348 0 0 1 1 0 0 forward_v I I I I #
coedge $-1 $280 $279 $272 $338 forward $178 $-1 #
coedge $-1 $272 $180 $182 $276 reversed $106 $-1 #
coedge $-1 $180 $271 $270 $338 reversed $106 $-1 #
coedge $-1 $188 $183 $180 $274 forward $189 $-1 #
edge $-1 $277 -14.616341595480627 $339 -11.350516446057966 $273 $340 forward 7 unknown #
coedge $-1 $182 $181 $280 $341 reversed $66 $-1 #
edge $-1 $342 0 $277 4.6185742722399139 $271 $343 forward 7 unknown #
vertex $-1 $184 $344 #
straight-curve $-1 -51.539314167573103 -4.1966359467961336 7.3704441316307321 0 1 0 I I #
coedge $-1 $270 $185 $188 $284 reversed $178 $-1 #
coedge $-1 $185 $270 $275 $341 forward $178 $-1 #
vertex $-1 $186 $345 #
straight-curve $-1 -54.805139316995763 -12.464958922951549 40.805394658498628 0 0 1 I I #
straight-curve $-1 -54.805139316995763 -12.464958922951549 4.104618906424264 -0.70710677298230451 0 -0.70710678939079041 I I #
edge $-1 $339 4.3215848642329853 $190 12.464958922951549 $279 $346 forward 7 unknown #
point $-1 -54.805139316995763 -12.464958922951549 7.3704441316307348 #
point $-1 -51.539314167573103 -12.464958922951549 7.3704441316307339 #
edge $-1 $347 1 $347 0 $193 $-1 forward 7 unknown #
vertex $-1 $194 $348 #
ellipse-curve $-1 -51.117954953311788 -8.3932718935922672 3.6832597777244418 -0.70710678939079041 0 0.70710677298230451 0.70710677298230451 0 0.70710678939079041 1 I I #
point $-1 -52.465119969302137 -8.3932718935922672 6.4446383084182983 #
plane-surface $-1 54.805139316995763 0 0 -1 0 0 0 0 1 forward_v I I I I #
coedge $-1 $202 $200 $204 $296 reversed $121 $-1 #
edge $-1 $215 -7.3704441316307348 $298 7.3704441316307348 $214 $349 forward 7 unknown #
vertex $-1 $296 $350 #
straight-curve $-1 -54.805139316995763 -23.887494101120087 0 0 0 -1 I I #
edge $-1 $294 -23.887494101120087 $298 23.887494101120087 $292 $351 forward 7 unknown #
straight-curve $-1 0 -23.887494101120087 -7.3704441316307348 -1 0 0 I I #
vertex $-1 $207 $352 #
straight-curve $-1 0 23.887494101120087 -7.3704441316307348 1 0 0 I I #
point $-1 54.805139316995763 23.887494101120087 -7.3704441316307348 #
point $-1 54.805139316995763 -23.887494101120087 -7.3704441316307348 #
straight-curve $-1 -54.805139316995763 0 7.3704441316307348 0 -1 0 I I #
point $-1 -54.805139316995763 23.887494101120087 7.3704441316307348 #
point $-1 -54.805139316995763 -23.887494101120087 7.3704441316307348 #
straight-curve $-1 54.805139316995763 -23.887494101120087 0 0 0 -1 I I #
straight-curve $-1 54.805139316995763 23.887494101120087 0 0 0 -1 I I #
plane-surface $-1 54.805139316995763 0 0 -1 0 0 0 0 1 forward_v I I I I #
coedge $-1 $311 $227 $238 $320 forward $140 $-1 #
coedge $-1 $227 $311 $241 $322 reversed $140 $-1 #
straight-curve $-1 54.805139316995763 -15.139363772208714 -0.66547943745055571 0 0 1 I I #
coedge $-1 $309 $308 $230 $312 forward $140 $-1 #
edge $-1 $315 5.382649303876514 $313 14.130779632787887 $311 $353 forward 7 unknown #
vertex $-1 $232 $354 #
straight-curve $-1 0 -23.887494101120087 -2.8309588749011114 1 0 0 I I #
vertex $-1 $312 $355 #
straight-curve $-1 0 -15.139363772208714 -2.8309588749011114 1 0 0 I I #
point $-1 54.805139316995763 -23.887494101120087 -2.8309588749011114 #
point $-1 54.805139316995763 -15.139363772208714 -2.8309588749011114 #
straight-curve $-1 -54.805139316995763 -9.7567144683322002 0.16904112509888858 0 1 0 I I #
edge $-1 $239 -0.83452056254944429 $315 2.1654794374505557 $308 $356 forward 7 unknown #
point $-1 -54.805139316995763 -15.139363772208714 0.16904112509888858 #
edge $-1 $243 -0.16904112509888858 $313 2.8309588749011114 $309 $357 forward 7 unknown #
point $-1 -54.805139316995763 -23.887494101120087 0.16904112509888858 #
straight-curve $-1 54.805139316995763 -23.887494101120087 0 0 0 -1 I I #
coedge $-1 $329 $253 $250 $326 reversed $248 $-1 #
edge $-1 $334 -54.805139316995763 $327 -50.703727044972922 $325 $358 forward 7 unknown #
vertex $-1 $254 $359 #
straight-curve $-1 50.703727044972915 9.5525762247400205 7.3704441316307339 0 -1 0 I I #
coedge $-1 $253 $325 $255 $331 forward $248 $-1 #
straight-curve $-1 18.249093897134593 23.887494101120087 59.308715913805138 -0.52991925155115449 0 0.84804810408105047 I I #
edge $-1 $334 -7.3704441316307348 $256 -0.80681223646459443 $255 $360 forward 7 unknown #
point $-1 54.805139316995763 23.887494101120076 0.80681223646459443 #
point $-1 50.703727044972922 14.322810797840006 7.3704441316307339 #
vertex $-1 $262 $361 #
straight-curve $-1 54.805139316995763 0 7.3704441316307348 0 1 0 I I #
vertex $-1 $265 $362 #
point $-1 51.346007320095985 19.105152449480048 2.6189568622565433 #
edge $-1 $339 33.434950526867894 $342 36.700775752074364 $270 $363 forward 7 unknown #
vertex $-1 $284 $364 #
straight-curve $-1 -66.15565576305373 -4.3215848642329853 7.3704441316307339 -1 0 0 I I #
edge $-1 $342 0.12494891743685166 $281 8.2683229761554156 $280 $365 forward 7 unknown #
vertex $-1 $341 $366 #
straight-curve $-1 -54.805139316995763 -4.3215848642329853 4.104618906424264 0.70710677298230451 0 0.70710678939079041 I I #
point $-1 -51.539314167573103 -4.3215848642329853 7.3704441316307339 #
point $-1 -54.805139316995763 -12.464958922951549 4.104618906424264 #
straight-curve $-1 -54.805139316995763 0 7.3704441316307348 0 -1 0 I I #
vertex $-1 $287 $367 #
point $-1 -50.410848180329481 -8.3932718935922672 4.3903665671152323 #
straight-curve $-1 -54.805139316995763 23.887494101120087 0 0 0 -1 I I #
point $-1 -54.805139316995763 -23.887494101120087 -7.3704441316307348 #
straight-curve $-1 -54.805139316995763 0 -7.3704441316307348 0 1 0 I I #
point $-1 -54.805139316995763 23.887494101120087 -7.3704441316307348 #
straight-curve $-1 -54.805139316995763 -9.7567144683322002 -2.8309588749011114 0 -1 0 I I #
point $-1 -54.805139316995763 -23.887494101120087 -2.8309588749011114 #
point $-1 -54.805139316995763 -15.139363772208714 -2.8309588749011114 #
straight-curve $-1 -54.805139316995763 -15.139363772208714 -0.66547943745055571 0 0 -1 I I #
straight-curve $-1 -54.805139316995763 -23.887494101120087 0 0 0 -1 I I #
straight-curve $-1 0 23.887494101120087 7.3704441316307348 -1 0 0 I I #
point $-1 50.703727044972922 23.887494101120076 7.3704441316307339 #
straight-curve $-1 54.805139316995763 23.887494101120087 0 0 0 -1 I I #
point $-1 54.805139316995763 23.887494101120087 7.3704441316307348 #
point $-1 50.657023642279881 19.105152449480048 2.7780212885214914 #
straight-curve $-1 -54.805139316995763 -4.3215848642329853 40.805394658498628 0 0 -1 I I #
point $-1 -54.805139316995763 -4.3215848642329853 7.3704441316307348 #
straight-curve $-1 -54.805139316995763 -4.1966359467961336 4.1046189064242649 0 -1 0 I I #
point $-1 -54.805139316995763 -4.3215848642329853 4.104618906424264 #
point $-1 -50.410848163920996 -8.3932718935922672 2.9761530047421383 #
End-of-ACIS-data 