500 0 6 0           
7 Unknown 11 ACIS 5.0 NT 24 Thu Mar 25 23:03:32 1999 
-1 9.9999999999999995e-007 1e-010 
body $-1 $6 $-1 $7 #
body $-1 $8 $-1 $9 #
body $-1 $10 $-1 $11 #
body $-1 $12 $-1 $13 #
body $-1 $14 $-1 $15 #
body $-1 $16 $-1 $17 #
lump $-1 $-1 $18 $0 #
transform $-1 1 0 0 0 1 0 0 0 1 78.803674428540916 33.963717501821449 8.946739940091307 1 rotate no_reflect no_shear #
lump $-1 $-1 $19 $1 #
transform $-1 1 0 0 0 1 0 0 0 1 78.803674428540916 33.963717501821449 8.946739940091307 1 rotate no_reflect no_shear #
lump $-1 $-1 $20 $2 #
transform $-1 1 0 0 0 1 0 0 0 1 78.803674428540916 33.963717501821449 8.946739940091307 1 rotate no_reflect no_shear #
lump $-1 $-1 $21 $3 #
transform $-1 1 0 0 0 1 0 0 0 1 78.803674428540916 33.963717501821449 8.946739940091307 1 rotate no_reflect no_shear #
lump $-1 $-1 $22 $4 #
transform $-1 1 0 0 0 1 0 0 0 1 78.803674428540916 33.963717501821449 8.946739940091307 1 rotate no_reflect no_shear #
lump $-1 $-1 $23 $5 #
transform $-1 1 0 0 0 1 0 0 0 1 78.803674428540916 33.963717501821449 8.946739940091307 1 rotate no_reflect no_shear #
shell $-1 $-1 $-1 $24 $-1 $6 #
shell $-1 $-1 $-1 $25 $-1 $8 #
shell $-1 $-1 $-1 $26 $-1 $10 #
shell $-1 $-1 $-1 $27 $-1 $12 #
shell $-1 $-1 $-1 $28 $-1 $14 #
shell $-1 $-1 $-1 $29 $-1 $16 #
face $-1 $30 $31 $18 $-1 $32 forward single #
face $-1 $33 $34 $19 $-1 $35 reversed single #
face $-1 $36 $37 $20 $-1 $38 forward single #
face $-1 $39 $40 $21 $-1 $41 reversed single #
face $-1 $42 $43 $22 $-1 $44 forward single #
face $-1 $45 $46 $23 $-1 $47 forward single #
face $-1 $48 $49 $18 $-1 $50 reversed single #
loop $-1 $-1 $51 $24 #
plane-surface $-1 0 0 8.946739940091307 0 0 1 1 0 0 forward_v I I I I #
face $-1 $52 $53 $19 $-1 $54 reversed single #
loop $-1 $-1 $55 $25 #
plane-surface $-1 -18.820711590394414 -124.36358016706721 130.34719485279024 -1 0 0 0 -0.57357644374324357 0.81915203911291934 forward_v I I I I #
face $-1 $56 $57 $20 $-1 $58 forward single #
loop $-1 $59 $60 $26 #
cone-surface $-1 -38.478220476669165 -27.274395234559016 3.3979243615994781 0 0.57357644374324357 -0.81915203911291934 2 0 0 1 I I 0 1 2 forward I I I I #
face $-1 $61 $62 $21 $-1 $63 reversed single #
loop $-1 $-1 $64 $27 #
plane-surface $-1 -57.347500947566417 131.62627537239024 142.1067381233768 1 0 0 0 -0.84804810408105047 -0.52991925155115449 forward_v I I I I #
face $-1 $65 $66 $22 $-1 $67 forward single #
loop $-1 $68 $69 $28 #
cone-surface $-1 -46.631913564412429 30.680395262280822 4.4676358876704345 0 -0.84804810408105047 -0.52991925155115449 1 0 0 1 I I 0 1 1 forward I I I I #
face $-1 $70 $71 $23 $-1 $72 forward single #
loop $-1 $73 $74 $29 #
cone-surface $-1 -30.55853248968144 30.680395262280822 4.4676358876704345 0 -0.84804810408105047 -0.52991925155115449 1 0 0 1 I I 0 1 1 forward I I I I #
face $-1 $75 $76 $18 $-1 $77 reversed single #
loop $-1 $-1 $78 $30 #
plane-surface $-1 0 0 -8.946739940091307 0 0 1 1 0 0 forward_v I I I I #
coedge $-1 $79 $80 $81 $82 forward $31 $-1 #
face $-1 $83 $84 $19 $-1 $85 reversed single #
loop $-1 $-1 $86 $33 #
plane-surface $-1 -38.478220476669165 -33.963717501821449 1.24281365733043 0 -0.57357644374324357 0.81915203911291934 1 0 0 forward_v I I I I #
coedge $-1 $87 $88 $89 $90 reversed $34 $-1 #
face $-1 $-1 $91 $20 $-1 $92 forward single #
loop $-1 $93 $94 $36 #
cone-surface $-1 -38.478220476669165 -25.512669900300423 0.88191988537518107 0 0.57357644374324357 -0.81915203911291934 1 0 0 1 I I -0.70710678118654746 0.70710678118654746 1 forward I I I I #
loop $-1 $-1 $95 $26 #
coedge $-1 $60 $60 $96 $97 reversed $37 $-1 #
face $-1 $98 $99 $21 $-1 $100 reversed single #
loop $-1 $-1 $101 $39 #
plane-surface $-1 -38.595223027046927 -2.0323380150987305 58.587569778070289 0 0.84804810408105047 0.52991925155115449 1 0 0 forward_v I I I I #
coedge $-1 $102 $103 $104 $105 reversed $40 $-1 #
face $-1 $-1 $106 $22 $-1 $107 forward single #
loop $-1 $108 $109 $42 #
cone-surface $-1 -46.631913564412429 29.461560660713971 3.7060235254485558 0 -0.84804810408105047 -0.52991925155115449 0.5 0 0 1 I I -0.70710678118654746 0.70710678118654746 0.5 forward I I I I #
loop $-1 $-1 $110 $28 #
coedge $-1 $69 $69 $111 $112 reversed $43 $-1 #
face $-1 $-1 $113 $23 $-1 $114 forward single #
loop $-1 $115 $116 $45 #
cone-surface $-1 -30.55853248968144 29.461560660713971 3.7060235254485558 0 -0.84804810408105047 -0.52991925155115449 0.5 0 0 1 I I -0.70710678118654746 0.70710678118654746 0.5 forward I I I I #
loop $-1 $-1 $117 $29 #
coedge $-1 $74 $74 $118 $119 reversed $46 $-1 #
face $-1 $120 $121 $18 $-1 $122 reversed single #
loop $-1 $-1 $123 $48 #
plane-surface $-1 0 -33.963717501821449 0 0 1 0 0 0 1 forward_v I I I I #
coedge $-1 $124 $125 $126 $127 forward $49 $-1 #
coedge $-1 $128 $51 $129 $130 forward $31 $-1 #
coedge $-1 $51 $128 $131 $132 forward $31 $-1 #
coedge $-1 $133 $134 $51 $82 reversed $135 $-1 #
edge $-1 $136 -33.963717501821449 $137 33.963717501821449 $81 $138 forward 7 unknown #
face $-1 $139 $140 $19 $-1 $141 reversed single #
loop $-1 $-1 $142 $52 #
plane-surface $-1 -58.13572936294392 -124.36358016706721 130.34719485279024 1 0 0 0 0.57357644374324357 -0.81915203911291934 forward_v I I I I #
coedge $-1 $143 $144 $145 $146 reversed $53 $-1 #
coedge $-1 $88 $55 $147 $148 reversed $34 $-1 #
coedge $-1 $55 $87 $143 $149 reversed $34 $-1 #
coedge $-1 $145 $150 $55 $90 forward $151 $-1 #
edge $-1 $152 28.218072581712157 $153 39.220419335206287 $89 $154 forward 7 unknown #
loop $-1 $-1 $96 $56 #
plane-surface $-1 -38.478220476669165 -33.963717501821449 1.24281365733043 0 -0.57357644374324357 0.81915203911291934 1 0 0 forward_v I I I I #
loop $-1 $-1 $155 $36 #
coedge $-1 $94 $94 $95 $156 reversed $57 $-1 #
coedge $-1 $95 $95 $94 $156 forward $59 $-1 #
coedge $-1 $96 $96 $60 $97 forward $91 $-1 #
edge $-1 $157 4.7132400524611849e-016 $157 6.2831853071796013 $96 $158 forward 7 unknown #
face $-1 $159 $160 $21 $-1 $161 reversed single #
loop $-1 $-1 $162 $61 #
plane-surface $-1 -19.842945106527438 131.62627537239024 142.1067381233768 -1 0 0 0 0.84804810408105047 0.52991925155115449 forward_v I I I I #
coedge $-1 $163 $164 $165 $166 reversed $62 $-1 #
coedge $-1 $103 $64 $167 $168 reversed $40 $-1 #
coedge $-1 $64 $102 $163 $169 reversed $40 $-1 #
coedge $-1 $165 $170 $64 $105 forward $171 $-1 #
edge $-1 $172 31.84942018437367 $173 36.826443564402318 $104 $174 forward 7 unknown #
loop $-1 $-1 $111 $65 #
plane-surface $-1 -38.595223027046927 -2.0323380150987305 58.587569778070289 0 0.84804810408105047 0.52991925155115449 1 0 0 forward_v I I I I #
loop $-1 $-1 $175 $42 #
coedge $-1 $109 $109 $110 $176 reversed $66 $-1 #
coedge $-1 $110 $110 $109 $176 forward $68 $-1 #
coedge $-1 $111 $111 $69 $112 forward $106 $-1 #
edge $-1 $177 -1.1333702350878821e-015 $177 6.2831853071795996 $111 $178 forward 7 unknown #
loop $-1 $-1 $118 $70 #
plane-surface $-1 -38.595223027046927 -2.0323380150987305 58.587569778070289 0 0.84804810408105047 0.52991925155115449 1 0 0 forward_v I I I I #
loop $-1 $-1 $179 $45 #
coedge $-1 $116 $116 $117 $180 reversed $71 $-1 #
coedge $-1 $117 $117 $116 $180 forward $73 $-1 #
coedge $-1 $118 $118 $74 $119 forward $113 $-1 #
edge $-1 $181 -1.1333702350878821e-015 $181 6.2831853071795996 $118 $182 forward 7 unknown #
face $-1 $183 $184 $18 $-1 $185 reversed single #
loop $-1 $-1 $186 $75 #
plane-surface $-1 -78.803674428540916 0 0 1 0 0 0 0 -1 forward_v I I I I #
coedge $-1 $187 $131 $188 $189 forward $76 $-1 #
coedge $-1 $190 $78 $187 $191 forward $49 $-1 #
coedge $-1 $78 $190 $192 $193 forward $49 $-1 #
coedge $-1 $134 $133 $78 $127 reversed $135 $-1 #
edge $-1 $194 -33.963717501821449 $195 33.963717501821449 $126 $196 forward 7 unknown #
coedge $-1 $80 $79 $197 $198 forward $31 $-1 #
coedge $-1 $199 $200 $79 $130 reversed $184 $-1 #
edge $-1 $137 -78.803674428540916 $201 78.803674428540916 $129 $202 forward 7 unknown #
coedge $-1 $123 $203 $80 $132 reversed $76 $-1 #
edge $-1 $204 -78.803674428540916 $136 78.803674428540916 $131 $205 forward 7 unknown #
coedge $-1 $126 $81 $203 $206 forward $135 $-1 #
coedge $-1 $81 $126 $199 $207 reversed $135 $-1 #
loop $-1 $-1 $133 $183 #
vertex $-1 $82 $208 #
vertex $-1 $82 $209 #
straight-curve $-1 78.803674428540916 0 8.946739940091307 0 1 0 I I #
face $-1 $-1 $151 $19 $-1 $210 forward single #
loop $-1 $-1 $211 $83 #
plane-surface $-1 0 -33.963717501821449 0 0 1 0 0 0 1 forward_v I I I I #
coedge $-1 $212 $213 $214 $215 reversed $84 $-1 #
coedge $-1 $216 $86 $88 $149 forward $53 $-1 #
coedge $-1 $86 $216 $212 $217 forward $53 $-1 #
coedge $-1 $214 $89 $86 $146 forward $151 $-1 #
edge $-1 $153 -0.4183986479401689 $218 38.896619124609337 $145 $219 forward 7 unknown #
coedge $-1 $220 $221 $87 $148 forward $140 $-1 #
edge $-1 $222 -63.930783769064689 $152 -56.226857486303814 $147 $223 forward 7 unknown #
edge $-1 $153 -13.431385418278214 $222 0 $88 $224 forward 7 unknown #
coedge $-1 $89 $214 $220 $225 forward $151 $-1 #
loop $-1 $-1 $214 $139 #
vertex $-1 $148 $226 #
vertex $-1 $90 $227 #
straight-curve $-1 -18.820711590394414 -62.181790083533606 8.9467399400913052 0 1 0 I I #
coedge $-1 $155 $155 $-1 $228 reversed $93 $-1 #
edge $-1 $229 0 $229 6.2831853071796004 $94 $230 forward 7 unknown #
vertex $-1 $97 $231 #
ellipse-curve $-1 -38.478220476669165 -28.462544125074377 5.0947767987108739 0 -0.57357644374324357 0.81915203911291934 2 0 0 1 I I #
face $-1 $-1 $171 $21 $-1 $232 forward single #
loop $-1 $-1 $233 $98 #
plane-surface $-1 0 33.963717501821449 0 0 -1 0 0 0 -1 forward_v I I I I #
coedge $-1 $234 $235 $236 $237 reversed $99 $-1 #
coedge $-1 $238 $101 $103 $169 forward $62 $-1 #
coedge $-1 $101 $238 $234 $239 forward $62 $-1 #
coedge $-1 $236 $104 $101 $166 forward $171 $-1 #
edge $-1 $173 -38.049889434042953 $240 -0.54533359300397422 $165 $241 forward 7 unknown #
coedge $-1 $242 $243 $102 $168 forward $160 $-1 #
edge $-1 $244 -70.071531753546324 $172 -62.106629121597095 $167 $245 forward 7 unknown #
edge $-1 $173 58.535393922930879 $244 67.927435003642969 $103 $246 forward 7 unknown #
coedge $-1 $104 $236 $242 $247 forward $171 $-1 #
loop $-1 $-1 $236 $159 #
vertex $-1 $168 $248 #
vertex $-1 $105 $249 #
straight-curve $-1 -57.347500947566417 65.81313768619512 8.9467399400913052 0 -1 0 I I #
coedge $-1 $175 $175 $-1 $250 reversed $108 $-1 #
edge $-1 $251 0 $251 6.2831853071796004 $109 $252 forward 7 unknown #
vertex $-1 $112 $253 #
ellipse-curve $-1 -46.631913564412429 31.475205811807111 4.9642886241167146 0 0.84804810408105047 0.52991925155115449 1 0 0 1 I I #
coedge $-1 $179 $179 $-1 $254 reversed $115 $-1 #
edge $-1 $255 0 $255 6.2831853071796004 $116 $256 forward 7 unknown #
vertex $-1 $119 $257 #
ellipse-curve $-1 -30.55853248968144 31.475205811807111 4.9642886241167146 0 0.84804810408105047 0.52991925155115449 1 0 0 1 I I #
face $-1 $-1 $135 $18 $-1 $258 reversed single #
loop $-1 $-1 $199 $120 #
plane-surface $-1 0 33.963717501821449 0 0 -1 0 0 0 -1 forward_v I I I I #
coedge $-1 $259 $197 $200 $260 forward $121 $-1 #
coedge $-1 $203 $123 $124 $191 reversed $76 $-1 #
coedge $-1 $197 $259 $123 $189 reversed $121 $-1 #
edge $-1 $204 -8.946739940091307 $261 8.946739940091307 $188 $262 forward 7 unknown #
coedge $-1 $125 $124 $259 $263 forward $49 $-1 #
edge $-1 $195 -78.803674428540916 $261 78.803674428540916 $187 $264 forward 7 unknown #
coedge $-1 $200 $199 $125 $193 reversed $184 $-1 #
edge $-1 $265 -78.803674428540916 $194 78.803674428540916 $192 $266 forward 7 unknown #
vertex $-1 $127 $267 #
vertex $-1 $206 $268 #
straight-curve $-1 78.803674428540916 0 -8.946739940091307 0 -1 0 I I #
coedge $-1 $186 $188 $128 $198 reversed $121 $-1 #
edge $-1 $201 -33.963717501821449 $204 33.963717501821449 $197 $269 forward 7 unknown #
coedge $-1 $192 $129 $134 $207 forward $184 $-1 #
coedge $-1 $129 $192 $186 $260 reversed $184 $-1 #
vertex $-1 $130 $270 #
straight-curve $-1 0 33.963717501821449 8.946739940091307 -1 0 0 I I #
coedge $-1 $131 $187 $133 $206 reversed $76 $-1 #
vertex $-1 $198 $271 #
straight-curve $-1 0 -33.963717501821449 8.946739940091307 1 0 0 I I #
edge $-1 $136 -8.946739940091307 $195 8.946739940091307 $133 $272 forward 7 unknown #
edge $-1 $137 -8.946739940091307 $194 8.946739940091307 $134 $273 forward 7 unknown #
point $-1 78.803674428540916 -33.963717501821449 8.946739940091307 #
point $-1 78.803674428540916 33.963717501821449 8.946739940091307 #
plane-surface $-1 0 0 8.946739940091307 0 0 1 1 0 0 forward_v I I I I #
coedge $-1 $221 $220 $213 $274 forward $140 $-1 #
coedge $-1 $213 $142 $144 $217 reversed $84 $-1 #
coedge $-1 $142 $212 $211 $274 reversed $84 $-1 #
coedge $-1 $150 $145 $142 $215 forward $151 $-1 #
edge $-1 $218 -39.220419335206287 $275 -28.218072581712157 $214 $276 forward 7 unknown #
coedge $-1 $144 $143 $221 $277 reversed $53 $-1 #
edge $-1 $278 0 $218 13.431385418278214 $212 $279 forward 7 unknown #
vertex $-1 $146 $280 #
straight-curve $-1 -19.239110238334582 -22.961370748327315 8.946739940091307 -1 0 0 I I #
coedge $-1 $211 $147 $150 $225 reversed $140 $-1 #
coedge $-1 $147 $211 $216 $277 forward $140 $-1 #
vertex $-1 $148 $281 #
straight-curve $-1 -18.820711590394414 -33.963717501821449 65.173597426395119 0 0 1 I I #
straight-curve $-1 -18.820711590394414 -33.963717501821449 1.24281365733043 0 -0.81915203911291934 -0.57357644374324357 I I #
edge $-1 $275 -58.13572936294392 $152 -18.820711590394414 $220 $282 forward 7 unknown #
point $-1 -18.820711590394414 -33.963717501821449 8.946739940091307 #
point $-1 -18.820711590394414 -22.961370748327319 8.946739940091307 #
edge $-1 $283 1 $283 0 $155 $-1 forward 7 unknown #
vertex $-1 $156 $284 #
ellipse-curve $-1 -38.478220476669165 -26.086246344043666 1.7010719244881005 0 -0.57357644374324357 0.81915203911291934 2 0 0 1 I I #
point $-1 -36.478220476669165 -28.462544125074363 5.0947767987108552 #
plane-surface $-1 0 0 8.946739940091307 0 0 1 1 0 0 forward_v I I I I #
coedge $-1 $243 $242 $235 $285 forward $160 $-1 #
coedge $-1 $235 $162 $164 $239 reversed $99 $-1 #
coedge $-1 $162 $234 $233 $285 reversed $99 $-1 #
coedge $-1 $170 $165 $162 $237 forward $171 $-1 #
edge $-1 $240 -36.826443564402318 $286 -31.84942018437367 $236 $287 forward 7 unknown #
coedge $-1 $164 $163 $243 $288 reversed $62 $-1 #
edge $-1 $289 -67.927435003642969 $240 -58.535393922930879 $234 $290 forward 7 unknown #
vertex $-1 $166 $291 #
straight-curve $-1 -19.297611513523464 28.986694121792802 8.9467399400913052 1 0 0 I I #
coedge $-1 $233 $167 $170 $247 reversed $160 $-1 #
coedge $-1 $167 $233 $238 $288 forward $160 $-1 #
vertex $-1 $168 $292 #
straight-curve $-1 -57.347500947566417 33.963717501821449 71.0533690616884 0 0 1 I I #
straight-curve $-1 -57.347500947566417 -2.0323380150987305 58.587569778070289 0 0.52991925155115449 -0.84804810408105047 I I #
edge $-1 $286 19.842945106527438 $172 57.347500947566417 $242 $293 forward 7 unknown #
point $-1 -57.347500947566417 33.963717501821449 8.946739940091307 #
point $-1 -57.347500947566417 28.986694121792802 8.9467399400913052 #
edge $-1 $294 1 $294 0 $175 $-1 forward 7 unknown #
vertex $-1 $176 $295 #
ellipse-curve $-1 -46.631913564412429 29.885584712754497 3.9709831512241331 0 0.84804810408105047 0.52991925155115449 1 0 0 1 I I #
point $-1 -45.631913564412429 31.475205811807143 4.9642886241167359 #
edge $-1 $296 1 $296 0 $179 $-1 forward 7 unknown #
vertex $-1 $180 $297 #
ellipse-curve $-1 -30.55853248968144 29.885584712754497 3.9709831512241331 0 0.84804810408105047 0.52991925155115449 1 0 0 1 I I #
point $-1 -29.55853248968144 31.475205811807143 4.9642886241167359 #
plane-surface $-1 78.803674428540916 0 0 -1 0 0 0 0 1 forward_v I I I I #
coedge $-1 $188 $186 $190 $263 reversed $121 $-1 #
edge $-1 $201 -8.946739940091307 $265 8.946739940091307 $200 $298 forward 7 unknown #
vertex $-1 $263 $299 #
straight-curve $-1 -78.803674428540916 -33.963717501821449 0 0 0 -1 I I #
edge $-1 $261 -33.963717501821449 $265 33.963717501821449 $259 $300 forward 7 unknown #
straight-curve $-1 0 -33.963717501821449 -8.946739940091307 -1 0 0 I I #
vertex $-1 $193 $301 #
straight-curve $-1 0 33.963717501821449 -8.946739940091307 1 0 0 I I #
point $-1 78.803674428540916 33.963717501821449 -8.946739940091307 #
point $-1 78.803674428540916 -33.963717501821449 -8.946739940091307 #
straight-curve $-1 -78.803674428540916 0 8.946739940091307 0 -1 0 I I #
point $-1 -78.803674428540916 33.963717501821449 8.946739940091307 #
point $-1 -78.803674428540916 -33.963717501821449 8.946739940091307 #
straight-curve $-1 78.803674428540916 -33.963717501821449 0 0 0 -1 I I #
straight-curve $-1 78.803674428540916 33.963717501821449 0 0 0 -1 I I #
edge $-1 $275 56.226857486303814 $278 63.930783769064689 $211 $302 forward 7 unknown #
vertex $-1 $225 $303 #
straight-curve $-1 -58.13572936294392 -62.181790083533606 8.9467399400913052 0 -1 0 I I #
edge $-1 $278 -38.896619124609337 $222 0.4183986479401689 $221 $304 forward 7 unknown #
vertex $-1 $277 $305 #
straight-curve $-1 -58.13572936294392 -33.963717501821449 1.24281365733043 0 0.81915203911291934 0.57357644374324357 I I #
point $-1 -58.13572936294392 -22.961370748327319 8.946739940091307 #
point $-1 -18.820711590394414 -33.963717501821449 1.24281365733043 #
straight-curve $-1 0 -33.963717501821449 8.946739940091307 1 0 0 I I #
vertex $-1 $228 $306 #
point $-1 -36.478220476669165 -26.086246344043666 1.7010719244881005 #
edge $-1 $286 62.106629121597095 $289 70.071531753546324 $233 $307 forward 7 unknown #
vertex $-1 $247 $308 #
straight-curve $-1 -19.842945106527438 65.81313768619512 8.9467399400913052 0 1 0 I I #
edge $-1 $289 0.54533359300397422 $244 38.049889434042953 $243 $309 forward 7 unknown #
vertex $-1 $288 $310 #
straight-curve $-1 -19.842945106527438 -2.0323380150987305 58.587569778070289 0 -0.52991925155115449 0.84804810408105047 I I #
point $-1 -19.842945106527438 28.986694121792802 8.9467399400913052 #
point $-1 -57.347500947566417 33.963717501821449 0.98183730814207593 #
straight-curve $-1 0 33.963717501821449 8.946739940091307 -1 0 0 I I #
vertex $-1 $250 $311 #
point $-1 -45.631913564412429 29.885584712754497 3.9709831512241331 #
vertex $-1 $254 $312 #
point $-1 -29.55853248968144 29.885584712754497 3.9709831512241331 #
straight-curve $-1 -78.803674428540916 33.963717501821449 0 0 0 -1 I I #
point $-1 -78.803674428540916 -33.963717501821449 -8.946739940091307 #
straight-curve $-1 -78.803674428540916 0 -8.946739940091307 0 1 0 I I #
point $-1 -78.803674428540916 33.963717501821449 -8.946739940091307 #
straight-curve $-1 -58.13572936294392 -33.963717501821449 65.173597426395119 0 0 -1 I I #
point $-1 -58.13572936294392 -33.963717501821449 8.946739940091307 #
straight-curve $-1 -19.239110238334582 -33.963717501821449 1.2428136573304287 1 0 0 I I #
point $-1 -58.13572936294392 -33.963717501821449 1.24281365733043 #
point $-1 -38.478220476669165 -24.939093456557181 0.062767846262261728 #
straight-curve $-1 -19.842945106527438 33.963717501821449 71.0533690616884 0 0 -1 I I #
point $-1 -19.842945106527438 33.963717501821449 8.946739940091307 #
straight-curve $-1 -19.297611513523464 33.963717501821449 0.98183730814208303 -1 0 0 I I #
point $-1 -19.842945106527438 33.963717501821449 0.98183730814207593 #
point $-1 -46.631913564412429 29.037536608673445 3.4410638996729785 #
point $-1 -30.55853248968144 29.037536608673445 3.4410638996729785 #
End-of-ACIS-data 