500 0 18 0           
7 Unknown 11 ACIS 5.0 NT 24 Fri Mar 26 17:51:10 1999 
-1 9.9999999999999995e-007 1e-010 
body $-1 $18 $-1 $19 #
body $-1 $20 $-1 $21 #
body $-1 $22 $-1 $23 #
body $-1 $24 $-1 $25 #
body $-1 $26 $-1 $27 #
body $-1 $28 $-1 $29 #
body $-1 $30 $-1 $31 #
body $-1 $32 $-1 $33 #
body $-1 $34 $-1 $35 #
body $-1 $36 $-1 $37 #
body $-1 $38 $-1 $39 #
body $-1 $40 $-1 $41 #
body $-1 $42 $-1 $43 #
body $-1 $44 $-1 $45 #
body $-1 $46 $-1 $47 #
body $-1 $48 $-1 $49 #
body $-1 $50 $-1 $51 #
body $-1 $52 $-1 $53 #
lump $-1 $-1 $54 $0 #
transform $-1 1 0 0 0 1 0 0 0 1 69.151280251472514 42.126629863575204 10.007822652272973 1 rotate no_reflect no_shear #
lump $-1 $-1 $55 $1 #
transform $-1 1 0 0 0 1 0 0 0 1 69.151280251472514 42.126629863575204 10.007822652272973 1 rotate no_reflect no_shear #
lump $-1 $-1 $56 $2 #
transform $-1 1 0 0 0 1 0 0 0 1 69.151280251472514 42.126629863575204 10.007822652272973 1 rotate no_reflect no_shear #
lump $-1 $-1 $57 $3 #
transform $-1 1 0 0 0 1 0 0 0 1 69.151280251472514 42.126629863575204 10.007822652272973 1 rotate no_reflect no_shear #
lump $-1 $-1 $58 $4 #
transform $-1 1 0 0 0 1 0 0 0 1 69.151280251472514 42.126629863575204 10.007822652272973 1 rotate no_reflect no_shear #
lump $-1 $-1 $59 $5 #
transform $-1 1 0 0 0 1 0 0 0 1 69.151280251472514 42.126629863575204 10.007822652272973 1 rotate no_reflect no_shear #
lump $-1 $-1 $60 $6 #
transform $-1 1 0 0 0 1 0 0 0 1 69.151280251472514 42.126629863575204 10.007822652272973 1 rotate no_reflect no_shear #
lump $-1 $-1 $61 $7 #
transform $-1 1 0 0 0 1 0 0 0 1 69.151280251472514 42.126629863575204 10.007822652272973 1 rotate no_reflect no_shear #
lump $-1 $-1 $62 $8 #
transform $-1 1 0 0 0 1 0 0 0 1 69.151280251472514 42.126629863575204 10.007822652272973 1 rotate no_reflect no_shear #
lump $-1 $-1 $63 $9 #
transform $-1 1 0 0 0 1 0 0 0 1 69.151280251472514 42.126629863575204 10.007822652272973 1 rotate no_reflect no_shear #
lump $-1 $-1 $64 $10 #
transform $-1 1 0 0 0 1 0 0 0 1 69.151280251472514 42.126629863575204 10.007822652272973 1 rotate no_reflect no_shear #
lump $-1 $-1 $65 $11 #
transform $-1 1 0 0 0 1 0 0 0 1 69.151280251472514 42.126629863575204 10.007822652272973 1 rotate no_reflect no_shear #
lump $-1 $-1 $66 $12 #
transform $-1 1 0 0 0 1 0 0 0 1 69.151280251472514 42.126629863575204 10.007822652272973 1 rotate no_reflect no_shear #
lump $-1 $-1 $67 $13 #
transform $-1 1 0 0 0 1 0 0 0 1 69.151280251472514 42.126629863575204 10.007822652272973 1 rotate no_reflect no_shear #
lump $-1 $-1 $68 $14 #
transform $-1 1 0 0 0 1 0 0 0 1 69.151280251472514 42.126629863575204 10.007822652272973 1 rotate no_reflect no_shear #
lump $-1 $-1 $69 $15 #
transform $-1 1 0 0 0 1 0 0 0 1 69.151280251472514 42.126629863575204 10.007822652272973 1 rotate no_reflect no_shear #
lump $-1 $-1 $70 $16 #
transform $-1 1 0 0 0 1 0 0 0 1 69.151280251472514 42.126629863575204 10.007822652272973 1 rotate no_reflect no_shear #
lump $-1 $-1 $71 $17 #
transform $-1 1 0 0 0 1 0 0 0 1 69.151280251472514 42.126629863575204 10.007822652272973 1 rotate no_reflect no_shear #
shell $-1 $-1 $-1 $72 $-1 $18 #
shell $-1 $-1 $-1 $73 $-1 $20 #
shell $-1 $-1 $-1 $74 $-1 $22 #
shell $-1 $-1 $-1 $75 $-1 $24 #
shell $-1 $-1 $-1 $76 $-1 $26 #
shell $-1 $-1 $-1 $77 $-1 $28 #
shell $-1 $-1 $-1 $78 $-1 $30 #
shell $-1 $-1 $-1 $79 $-1 $32 #
shell $-1 $-1 $-1 $80 $-1 $34 #
shell $-1 $-1 $-1 $81 $-1 $36 #
shell $-1 $-1 $-1 $82 $-1 $38 #
shell $-1 $-1 $-1 $83 $-1 $40 #
shell $-1 $-1 $-1 $84 $-1 $42 #
shell $-1 $-1 $-1 $85 $-1 $44 #
shell $-1 $-1 $-1 $86 $-1 $46 #
shell $-1 $-1 $-1 $87 $-1 $48 #
shell $-1 $-1 $-1 $88 $-1 $50 #
shell $-1 $-1 $-1 $89 $-1 $52 #
face $-1 $90 $91 $54 $-1 $92 forward single #
face $-1 $93 $94 $55 $-1 $95 reversed single #
face $-1 $96 $97 $56 $-1 $98 reversed single #
face $-1 $99 $100 $57 $-1 $101 forward single #
face $-1 $102 $103 $58 $-1 $104 forward single #
face $-1 $105 $106 $59 $-1 $107 forward single #
face $-1 $108 $109 $60 $-1 $110 reversed single #
face $-1 $111 $112 $61 $-1 $113 forward single #
face $-1 $114 $115 $62 $-1 $116 forward single #
face $-1 $117 $118 $63 $-1 $119 reversed single #
face $-1 $120 $121 $64 $-1 $122 forward single #
face $-1 $123 $124 $65 $-1 $125 forward single #
face $-1 $126 $127 $66 $-1 $128 reversed single #
face $-1 $129 $130 $67 $-1 $131 forward single #
face $-1 $132 $133 $68 $-1 $134 forward single #
face $-1 $135 $136 $69 $-1 $137 reversed single #
face $-1 $138 $139 $70 $-1 $140 forward single #
face $-1 $141 $142 $71 $-1 $143 forward single #
face $-1 $144 $145 $54 $-1 $146 reversed single #
loop $-1 $-1 $147 $72 #
plane-surface $-1 0 0 10.007822652272973 0 0 1 1 0 0 forward_v I I I I #
face $-1 $148 $149 $55 $-1 $150 reversed single #
loop $-1 $-1 $151 $73 #
plane-surface $-1 -64.789369066589714 -37.844774069237936 0 1 0 0 0 0 -1 forward_v I I I I #
face $-1 $152 $153 $56 $-1 $154 reversed single #
loop $-1 $-1 $155 $74 #
plane-surface $-1 -187.69971380155641 -26.115215714175655 75.449634970516186 0 1 0 -0.85716730853699208 0 0.51503806187062418 forward_v I I I I #
face $-1 $156 $157 $57 $-1 $158 forward single #
loop $-1 $159 $160 $75 #
cone-surface $-1 -66.745124681057604 -23.995298544199617 6.7124835358833153 0.85716730853699208 0 -0.51503806187062418 0.51503806187062418 0 0.85716730853699208 1 I I 0 1 1 forward I I I I #
face $-1 $161 $162 $58 $-1 $163 forward single #
loop $-1 $164 $165 $76 #
cone-surface $-1 -66.745124681057604 -20.815422789235559 6.7124835358833153 0.85716730853699208 0 -0.51503806187062418 0.51503806187062418 0 0.85716730853699208 1 I I 0 1 1 forward I I I I #
face $-1 $166 $167 $59 $-1 $168 forward single #
loop $-1 $169 $170 $77 #
cone-surface $-1 -66.745124681057604 -17.6355470342715 6.7124835358833153 0.85716730853699208 0 -0.51503806187062418 0.51503806187062418 0 0.85716730853699208 1 I I 0 1 1 forward I I I I #
face $-1 $171 $172 $60 $-1 $173 reversed single #
loop $-1 $-1 $174 $78 #
plane-surface $-1 35.187546614811183 -16.852793567244454 194.72836766871774 0 -1 0 -0.57357644374324357 0 -0.81915203911291934 forward_v I I I I #
face $-1 $175 $176 $61 $-1 $177 forward single #
loop $-1 $178 $179 $79 #
cone-surface $-1 63.085392829565414 -25.630535897216937 5.4499171047903854 -0.57357644374324357 0 -0.81915203911291934 0.81915203911291934 0 -0.57357644374324357 1 I I 0 1 1 forward I I I I #
face $-1 $180 $181 $62 $-1 $182 forward single #
loop $-1 $183 $184 $80 #
cone-surface $-1 63.085392829565414 -20.363890499233449 5.4499171047903854 -0.57357644374324357 0 -0.81915203911291934 0.81915203911291934 0 -0.57357644374324357 1 I I 0 1 1 forward I I I I #
face $-1 $185 $186 $63 $-1 $187 reversed single #
loop $-1 $-1 $188 $81 #
plane-surface $-1 35.187546614811183 1.333252427797186 194.72836766871774 0 -1 0 -0.57357644374324357 0 -0.81915203911291934 forward_v I I I I #
face $-1 $189 $190 $64 $-1 $191 forward single #
loop $-1 $192 $193 $82 #
cone-surface $-1 63.085392829565414 -7.4444899021752988 5.4499171047903854 -0.57357644374324357 0 -0.81915203911291934 0.81915203911291934 0 -0.57357644374324357 1 I I 0 1 1 forward I I I I #
face $-1 $194 $195 $65 $-1 $196 forward single #
loop $-1 $197 $198 $83 #
cone-surface $-1 63.085392829565414 -2.1778445041918104 5.4499171047903854 -0.57357644374324357 0 -0.81915203911291934 0.81915203911291934 0 -0.57357644374324357 1 I I 0 1 1 forward I I I I #
face $-1 $199 $200 $66 $-1 $201 reversed single #
loop $-1 $-1 $202 $84 #
plane-surface $-1 35.187546614811183 19.519298422838823 194.72836766871774 0 -1 0 -0.57357644374324357 0 -0.81915203911291934 forward_v I I I I #
face $-1 $203 $204 $67 $-1 $205 forward single #
loop $-1 $206 $207 $85 #
cone-surface $-1 63.085392829565414 10.74155609286634 5.4499171047903854 -0.57357644374324357 0 -0.81915203911291934 0.81915203911291934 0 -0.57357644374324357 1 I I 0 1 1 forward I I I I #
face $-1 $208 $209 $68 $-1 $210 forward single #
loop $-1 $211 $212 $86 #
cone-surface $-1 63.085392829565414 16.008201490849828 5.4499171047903854 -0.57357644374324357 0 -0.81915203911291934 0.81915203911291934 0 -0.57357644374324357 1 I I 0 1 1 forward I I I I #
face $-1 $213 $214 $69 $-1 $215 reversed single #
loop $-1 $-1 $216 $87 #
plane-surface $-1 35.187546614811183 37.705344417880468 194.72836766871774 0 -1 0 -0.57357644374324357 0 -0.81915203911291934 forward_v I I I I #
face $-1 $217 $218 $70 $-1 $219 forward single #
loop $-1 $220 $221 $88 #
cone-surface $-1 63.085392829565414 28.927602087907985 5.4499171047903854 -0.57357644374324357 0 -0.81915203911291934 0.81915203911291934 0 -0.57357644374324357 1 I I 0 1 1 forward I I I I #
face $-1 $222 $223 $71 $-1 $224 forward single #
loop $-1 $225 $226 $89 #
cone-surface $-1 63.085392829565414 34.194247485891466 5.4499171047903854 -0.57357644374324357 0 -0.81915203911291934 0.81915203911291934 0 -0.57357644374324357 1 I I 0 1 1 forward I I I I #
face $-1 $227 $228 $54 $-1 $229 reversed single #
loop $-1 $-1 $230 $90 #
plane-surface $-1 0 0 -10.007822652272973 0 0 1 1 0 0 forward_v I I I I #
coedge $-1 $231 $232 $233 $234 forward $91 $-1 #
face $-1 $235 $236 $55 $-1 $237 reversed single #
loop $-1 $-1 $238 $93 #
plane-surface $-1 -63.253789674248857 -33.562918274900667 0 0 -1 0 0 0 -1 forward_v I I I I #
coedge $-1 $239 $240 $241 $242 forward $94 $-1 #
face $-1 $243 $244 $56 $-1 $245 reversed single #
loop $-1 $-1 $246 $96 #
plane-surface $-1 -69.151280251472514 -20.815422789235559 4.2185522573346361 -0.85716730853699208 0 0.51503806187062418 0.51503806187062418 0 0.85716730853699208 forward_v I I I I #
coedge $-1 $247 $248 $249 $250 reversed $97 $-1 #
face $-1 $-1 $251 $57 $-1 $252 forward single #
loop $-1 $253 $254 $99 #
cone-surface $-1 -65.64965769305293 -23.995298544199617 6.0542605860275085 0.85716730853699208 0 -0.51503806187062418 0.25751903093531209 0 0.42858365426849604 1 I I -0.70710678118654746 0.70710678118654746 0.5 forward I I I I #
loop $-1 $-1 $255 $75 #
coedge $-1 $160 $160 $256 $257 reversed $100 $-1 #
face $-1 $-1 $258 $58 $-1 $259 forward single #
loop $-1 $260 $261 $102 #
cone-surface $-1 -65.64965769305293 -20.815422789235559 6.0542605860275085 0.85716730853699208 0 -0.51503806187062418 0.25751903093531209 0 0.42858365426849604 1 I I -0.70710678118654746 0.70710678118654746 0.5 forward I I I I #
loop $-1 $-1 $262 $76 #
coedge $-1 $165 $165 $263 $264 reversed $103 $-1 #
face $-1 $-1 $265 $59 $-1 $266 forward single #
loop $-1 $267 $268 $105 #
cone-surface $-1 -65.64965769305293 -17.6355470342715 6.0542605860275085 0.85716730853699208 0 -0.51503806187062418 0.25751903093531209 0 0.42858365426849604 1 I I -0.70710678118654746 0.70710678118654746 0.5 forward I I I I #
loop $-1 $-1 $269 $77 #
coedge $-1 $170 $170 $270 $271 reversed $106 $-1 #
face $-1 $272 $273 $60 $-1 $274 reversed single #
loop $-1 $-1 $275 $108 #
plane-surface $-1 -44.139544199052807 -22.99721319822519 81.437543218192417 0.57357644374324357 0 0.81915203911291934 0.81915203911291934 0 -0.57357644374324357 forward_v I I I I #
coedge $-1 $276 $277 $278 $279 reversed $109 $-1 #
face $-1 $-1 $280 $61 $-1 $281 forward single #
loop $-1 $282 $283 $111 #
cone-surface $-1 62.372023866527343 -25.630535897216937 4.4311206617236163 -0.57357644374324357 0 -0.81915203911291934 0.40957601955645967 0 -0.28678822187162178 1 I I -0.70710678118654746 0.70710678118654746 0.5 forward I I I I #
loop $-1 $-1 $284 $79 #
coedge $-1 $179 $179 $285 $286 reversed $112 $-1 #
face $-1 $-1 $287 $62 $-1 $288 forward single #
loop $-1 $289 $290 $114 #
cone-surface $-1 62.372023866527343 -20.363890499233449 4.4311206617236163 -0.57357644374324357 0 -0.81915203911291934 0.40957601955645967 0 -0.28678822187162178 1 I I -0.70710678118654746 0.70710678118654746 0.5 forward I I I I #
loop $-1 $-1 $291 $80 #
coedge $-1 $184 $184 $292 $293 reversed $115 $-1 #
face $-1 $294 $295 $63 $-1 $296 reversed single #
loop $-1 $-1 $297 $117 #
plane-surface $-1 -44.139544199052807 -4.8111672031835511 81.437543218192417 0.57357644374324357 0 0.81915203911291934 0.81915203911291934 0 -0.57357644374324357 forward_v I I I I #
coedge $-1 $298 $299 $300 $301 reversed $118 $-1 #
face $-1 $-1 $302 $64 $-1 $303 forward single #
loop $-1 $304 $305 $120 #
cone-surface $-1 62.372023866527343 -7.4444899021752988 4.4311206617236163 -0.57357644374324357 0 -0.81915203911291934 0.40957601955645967 0 -0.28678822187162178 1 I I -0.70710678118654746 0.70710678118654746 0.5 forward I I I I #
loop $-1 $-1 $306 $82 #
coedge $-1 $193 $193 $307 $308 reversed $121 $-1 #
face $-1 $-1 $309 $65 $-1 $310 forward single #
loop $-1 $311 $312 $123 #
cone-surface $-1 62.372023866527343 -2.1778445041918104 4.4311206617236163 -0.57357644374324357 0 -0.81915203911291934 0.40957601955645967 0 -0.28678822187162178 1 I I -0.70710678118654746 0.70710678118654746 0.5 forward I I I I #
loop $-1 $-1 $313 $83 #
coedge $-1 $198 $198 $314 $315 reversed $124 $-1 #
face $-1 $316 $317 $66 $-1 $318 reversed single #
loop $-1 $-1 $319 $126 #
plane-surface $-1 -44.139544199052807 13.374878791858087 81.437543218192417 0.57357644374324357 0 0.81915203911291934 0.81915203911291934 0 -0.57357644374324357 forward_v I I I I #
coedge $-1 $320 $321 $322 $323 reversed $127 $-1 #
face $-1 $-1 $324 $67 $-1 $325 forward single #
loop $-1 $326 $327 $129 #
cone-surface $-1 62.372023866527343 10.74155609286634 4.4311206617236163 -0.57357644374324357 0 -0.81915203911291934 0.40957601955645967 0 -0.28678822187162178 1 I I -0.70710678118654746 0.70710678118654746 0.5 forward I I I I #
loop $-1 $-1 $328 $85 #
coedge $-1 $207 $207 $329 $330 reversed $130 $-1 #
face $-1 $-1 $331 $68 $-1 $332 forward single #
loop $-1 $333 $334 $132 #
cone-surface $-1 62.372023866527343 16.008201490849828 4.4311206617236163 -0.57357644374324357 0 -0.81915203911291934 0.40957601955645967 0 -0.28678822187162178 1 I I -0.70710678118654746 0.70710678118654746 0.5 forward I I I I #
loop $-1 $-1 $335 $86 #
coedge $-1 $212 $212 $336 $337 reversed $133 $-1 #
face $-1 $338 $339 $69 $-1 $340 reversed single #
loop $-1 $-1 $341 $135 #
plane-surface $-1 -44.139544199052807 31.560924786899733 81.437543218192417 0.57357644374324357 0 0.81915203911291934 0.81915203911291934 0 -0.57357644374324357 forward_v I I I I #
coedge $-1 $342 $343 $344 $345 reversed $136 $-1 #
face $-1 $-1 $346 $70 $-1 $347 forward single #
loop $-1 $348 $349 $138 #
cone-surface $-1 62.372023866527343 28.927602087907985 4.4311206617236163 -0.57357644374324357 0 -0.81915203911291934 0.40957601955645967 0 -0.28678822187162178 1 I I -0.70710678118654746 0.70710678118654746 0.5 forward I I I I #
loop $-1 $-1 $350 $88 #
coedge $-1 $221 $221 $351 $352 reversed $139 $-1 #
face $-1 $-1 $353 $71 $-1 $354 forward single #
loop $-1 $355 $356 $141 #
cone-surface $-1 62.372023866527343 34.194247485891466 4.4311206617236163 -0.57357644374324357 0 -0.81915203911291934 0.40957601955645967 0 -0.28678822187162178 1 I I -0.70710678118654746 0.70710678118654746 0.5 forward I I I I #
loop $-1 $-1 $357 $89 #
coedge $-1 $226 $226 $358 $359 reversed $142 $-1 #
face $-1 $360 $361 $54 $-1 $362 reversed single #
loop $-1 $-1 $363 $144 #
plane-surface $-1 0 -42.126629863575204 0 0 1 0 0 0 1 forward_v I I I I #
coedge $-1 $364 $365 $366 $367 forward $145 $-1 #
coedge $-1 $368 $147 $369 $370 forward $91 $-1 #
coedge $-1 $147 $368 $371 $372 forward $91 $-1 #
coedge $-1 $373 $374 $147 $234 reversed $375 $-1 #
edge $-1 $376 -42.126629863575204 $377 42.126629863575204 $233 $378 forward 7 unknown #
face $-1 $379 $380 $55 $-1 $381 forward single #
loop $-1 $-1 $382 $148 #
plane-surface $-1 -61.718210281908 -37.844774069237936 0 -1 0 0 0 0 1 forward_v I I I I #
coedge $-1 $383 $384 $385 $386 forward $149 $-1 #
coedge $-1 $387 $151 $388 $389 reversed $94 $-1 #
coedge $-1 $151 $387 $390 $391 reversed $94 $-1 #
coedge $-1 $384 $383 $151 $242 reversed $149 $-1 #
edge $-1 $392 -10.007822652272973 $393 10.007822652272973 $241 $394 forward 7 unknown #
face $-1 $395 $396 $56 $-1 $397 reversed single #
loop $-1 $-1 $398 $152 #
plane-surface $-1 -187.69971380155641 -15.515629864295462 75.449634970516186 0 -1 0 0.85716730853699208 0 -0.51503806187062418 forward_v I I I I #
coedge $-1 $399 $400 $401 $402 reversed $153 $-1 #
coedge $-1 $248 $155 $403 $404 reversed $97 $-1 #
coedge $-1 $155 $247 $399 $405 reversed $97 $-1 #
coedge $-1 $401 $406 $155 $250 forward $407 $-1 #
edge $-1 $408 24.698576649305693 $409 28.177121122663138 $249 $410 forward 7 unknown #
loop $-1 $-1 $256 $156 #
plane-surface $-1 -69.151280251472514 -20.815422789235559 4.2185522573346361 -0.85716730853699208 0 0.51503806187062418 0.51503806187062418 0 0.85716730853699208 forward_v I I I I #
loop $-1 $-1 $411 $99 #
coedge $-1 $254 $254 $255 $412 reversed $157 $-1 #
coedge $-1 $255 $255 $254 $412 forward $159 $-1 #
coedge $-1 $256 $256 $160 $257 forward $251 $-1 #
edge $-1 $413 0 $413 6.2831853071796004 $256 $414 forward 7 unknown #
loop $-1 $-1 $263 $161 #
plane-surface $-1 -69.151280251472514 -20.815422789235559 4.2185522573346361 -0.85716730853699208 0 0.51503806187062418 0.51503806187062418 0 0.85716730853699208 forward_v I I I I #
loop $-1 $-1 $415 $102 #
coedge $-1 $261 $261 $262 $416 reversed $162 $-1 #
coedge $-1 $262 $262 $261 $416 forward $164 $-1 #
coedge $-1 $263 $263 $165 $264 forward $258 $-1 #
edge $-1 $417 0 $417 6.2831853071796004 $263 $418 forward 7 unknown #
loop $-1 $-1 $270 $166 #
plane-surface $-1 -69.151280251472514 -20.815422789235559 4.2185522573346361 -0.85716730853699208 0 0.51503806187062418 0.51503806187062418 0 0.85716730853699208 forward_v I I I I #
loop $-1 $-1 $419 $105 #
coedge $-1 $268 $268 $269 $420 reversed $167 $-1 #
coedge $-1 $269 $269 $268 $420 forward $169 $-1 #
coedge $-1 $270 $270 $170 $271 forward $265 $-1 #
edge $-1 $421 0 $421 6.2831853071796004 $270 $422 forward 7 unknown #
face $-1 $423 $424 $60 $-1 $425 forward single #
loop $-1 $-1 $426 $171 #
plane-surface $-1 35.187546614811183 -29.141632829205925 194.72836766871774 0 1 0 0.57357644374324357 0 0.81915203911291934 forward_v I I I I #
coedge $-1 $427 $428 $429 $430 reversed $172 $-1 #
coedge $-1 $277 $174 $431 $432 reversed $109 $-1 #
coedge $-1 $174 $276 $427 $433 reversed $109 $-1 #
coedge $-1 $429 $434 $174 $279 forward $424 $-1 #
edge $-1 $435 -51.557506944066922 $436 -40.278893582585617 $278 $437 forward 7 unknown #
loop $-1 $-1 $285 $175 #
plane-surface $-1 -44.139544199052807 -22.99721319822519 81.437543218192417 0.57357644374324357 0 0.81915203911291934 0.81915203911291934 0 -0.57357644374324357 forward_v I I I I #
loop $-1 $-1 $438 $111 #
coedge $-1 $283 $283 $284 $439 reversed $176 $-1 #
coedge $-1 $284 $284 $283 $439 forward $178 $-1 #
coedge $-1 $285 $285 $179 $286 forward $280 $-1 #
edge $-1 $440 0 $440 6.2831853071796004 $285 $441 forward 7 unknown #
loop $-1 $-1 $292 $180 #
plane-surface $-1 -44.139544199052807 -22.99721319822519 81.437543218192417 0.57357644374324357 0 0.81915203911291934 0.81915203911291934 0 -0.57357644374324357 forward_v I I I I #
loop $-1 $-1 $442 $114 #
coedge $-1 $290 $290 $291 $443 reversed $181 $-1 #
coedge $-1 $291 $291 $290 $443 forward $183 $-1 #
coedge $-1 $292 $292 $184 $293 forward $287 $-1 #
edge $-1 $444 0 $444 6.2831853071796004 $292 $445 forward 7 unknown #
face $-1 $446 $447 $63 $-1 $448 reversed single #
loop $-1 $-1 $449 $185 #
plane-surface $-1 35.187546614811183 -10.955586834164288 194.72836766871774 0 1 0 0.57357644374324357 0 0.81915203911291934 forward_v I I I I #
coedge $-1 $450 $451 $452 $453 reversed $186 $-1 #
coedge $-1 $299 $188 $454 $455 reversed $118 $-1 #
coedge $-1 $188 $298 $450 $456 reversed $118 $-1 #
coedge $-1 $452 $457 $188 $301 forward $458 $-1 #
edge $-1 $459 -51.557506944066922 $460 -40.278893582585617 $300 $461 forward 7 unknown #
loop $-1 $-1 $307 $189 #
plane-surface $-1 -44.139544199052807 -4.8111672031835511 81.437543218192417 0.57357644374324357 0 0.81915203911291934 0.81915203911291934 0 -0.57357644374324357 forward_v I I I I #
loop $-1 $-1 $462 $120 #
coedge $-1 $305 $305 $306 $463 reversed $190 $-1 #
coedge $-1 $306 $306 $305 $463 forward $192 $-1 #
coedge $-1 $307 $307 $193 $308 forward $302 $-1 #
edge $-1 $464 0 $464 6.2831853071796004 $307 $465 forward 7 unknown #
loop $-1 $-1 $314 $194 #
plane-surface $-1 -44.139544199052807 -4.8111672031835511 81.437543218192417 0.57357644374324357 0 0.81915203911291934 0.81915203911291934 0 -0.57357644374324357 forward_v I I I I #
loop $-1 $-1 $466 $123 #
coedge $-1 $312 $312 $313 $467 reversed $195 $-1 #
coedge $-1 $313 $313 $312 $467 forward $197 $-1 #
coedge $-1 $314 $314 $198 $315 forward $309 $-1 #
edge $-1 $468 0 $468 6.2831853071796004 $314 $469 forward 7 unknown #
face $-1 $470 $471 $66 $-1 $472 reversed single #
loop $-1 $-1 $473 $199 #
plane-surface $-1 35.187546614811183 7.2304591608773503 194.72836766871774 0 1 0 0.57357644374324357 0 0.81915203911291934 forward_v I I I I #
coedge $-1 $474 $475 $476 $477 reversed $200 $-1 #
coedge $-1 $321 $202 $478 $479 reversed $127 $-1 #
coedge $-1 $202 $320 $474 $480 reversed $127 $-1 #
coedge $-1 $476 $481 $202 $323 forward $482 $-1 #
edge $-1 $483 -51.557506944066922 $484 -40.278893582585617 $322 $485 forward 7 unknown #
loop $-1 $-1 $329 $203 #
plane-surface $-1 -44.139544199052807 13.374878791858087 81.437543218192417 0.57357644374324357 0 0.81915203911291934 0.81915203911291934 0 -0.57357644374324357 forward_v I I I I #
loop $-1 $-1 $486 $129 #
coedge $-1 $327 $327 $328 $487 reversed $204 $-1 #
coedge $-1 $328 $328 $327 $487 forward $206 $-1 #
coedge $-1 $329 $329 $207 $330 forward $324 $-1 #
edge $-1 $488 0 $488 6.2831853071796004 $329 $489 forward 7 unknown #
loop $-1 $-1 $336 $208 #
plane-surface $-1 -44.139544199052807 13.374878791858087 81.437543218192417 0.57357644374324357 0 0.81915203911291934 0.81915203911291934 0 -0.57357644374324357 forward_v I I I I #
loop $-1 $-1 $490 $132 #
coedge $-1 $334 $334 $335 $491 reversed $209 $-1 #
coedge $-1 $335 $335 $334 $491 forward $211 $-1 #
coedge $-1 $336 $336 $212 $337 forward $331 $-1 #
edge $-1 $492 0 $492 6.2831853071796004 $336 $493 forward 7 unknown #
face $-1 $494 $495 $69 $-1 $496 reversed single #
loop $-1 $-1 $497 $213 #
plane-surface $-1 35.187546614811183 25.416505155918998 194.72836766871774 0 1 0 0.57357644374324357 0 0.81915203911291934 forward_v I I I I #
coedge $-1 $498 $499 $500 $501 reversed $214 $-1 #
coedge $-1 $343 $216 $502 $503 reversed $136 $-1 #
coedge $-1 $216 $342 $498 $504 reversed $136 $-1 #
coedge $-1 $500 $505 $216 $345 forward $506 $-1 #
edge $-1 $507 -51.557506944066922 $508 -40.278893582585617 $344 $509 forward 7 unknown #
loop $-1 $-1 $351 $217 #
plane-surface $-1 -44.139544199052807 31.560924786899733 81.437543218192417 0.57357644374324357 0 0.81915203911291934 0.81915203911291934 0 -0.57357644374324357 forward_v I I I I #
loop $-1 $-1 $510 $138 #
coedge $-1 $349 $349 $350 $511 reversed $218 $-1 #
coedge $-1 $350 $350 $349 $511 forward $220 $-1 #
coedge $-1 $351 $351 $221 $352 forward $346 $-1 #
edge $-1 $512 0 $512 6.2831853071796004 $351 $513 forward 7 unknown #
loop $-1 $-1 $358 $222 #
plane-surface $-1 -44.139544199052807 31.560924786899733 81.437543218192417 0.57357644374324357 0 0.81915203911291934 0.81915203911291934 0 -0.57357644374324357 forward_v I I I I #
loop $-1 $-1 $514 $141 #
coedge $-1 $356 $356 $357 $515 reversed $223 $-1 #
coedge $-1 $357 $357 $356 $515 forward $225 $-1 #
coedge $-1 $358 $358 $226 $359 forward $353 $-1 #
edge $-1 $516 0 $516 6.2831853071796004 $358 $517 forward 7 unknown #
face $-1 $518 $519 $54 $-1 $520 reversed single #
loop $-1 $-1 $521 $227 #
plane-surface $-1 -69.151280251472514 0 0 1 0 0 0 0 -1 forward_v I I I I #
coedge $-1 $522 $371 $523 $524 forward $228 $-1 #
coedge $-1 $525 $230 $522 $526 forward $145 $-1 #
coedge $-1 $230 $525 $527 $528 forward $145 $-1 #
coedge $-1 $374 $373 $230 $367 reversed $375 $-1 #
edge $-1 $529 -42.126629863575204 $530 42.126629863575204 $366 $531 forward 7 unknown #
coedge $-1 $232 $231 $532 $533 forward $91 $-1 #
coedge $-1 $534 $535 $231 $370 reversed $519 $-1 #
edge $-1 $377 -69.151280251472514 $536 69.151280251472514 $369 $537 forward 7 unknown #
coedge $-1 $363 $538 $232 $372 reversed $228 $-1 #
edge $-1 $539 -69.151280251472514 $376 69.151280251472514 $371 $540 forward 7 unknown #
coedge $-1 $366 $233 $538 $541 forward $375 $-1 #
coedge $-1 $233 $366 $534 $542 reversed $375 $-1 #
loop $-1 $-1 $373 $518 #
vertex $-1 $234 $543 #
vertex $-1 $234 $544 #
straight-curve $-1 69.151280251472514 0 10.007822652272973 0 1 0 I I #
face $-1 $545 $546 $55 $-1 $547 reversed single #
loop $-1 $-1 $548 $235 #
plane-surface $-1 0 0 10.007822652272973 0 0 1 1 0 0 forward_v I I I I #
coedge $-1 $549 $550 $551 $552 reversed $236 $-1 #
coedge $-1 $241 $238 $553 $554 reversed $149 $-1 #
coedge $-1 $238 $241 $555 $556 reversed $149 $-1 #
coedge $-1 $550 $549 $238 $386 reversed $236 $-1 #
edge $-1 $557 -10.007822652272973 $558 10.007822652272973 $385 $559 forward 7 unknown #
coedge $-1 $240 $239 $560 $561 reversed $94 $-1 #
coedge $-1 $553 $562 $239 $389 forward $546 $-1 #
edge $-1 $563 -23.204242828956236 $393 -14.6405312402817 $388 $564 forward 7 unknown #
coedge $-1 $565 $555 $240 $391 forward $380 $-1 #
edge $-1 $392 14.6405312402817 $566 23.204242828956236 $390 $567 forward 7 unknown #
vertex $-1 $391 $568 #
vertex $-1 $389 $569 #
straight-curve $-1 -64.789369066589714 -33.562918274900667 0 0 0 -1 I I #
face $-1 $-1 $407 $56 $-1 $570 forward single #
loop $-1 $-1 $571 $243 #
plane-surface $-1 -69.151280251472514 0 0 1 0 0 0 0 -1 forward_v I I I I #
coedge $-1 $572 $573 $574 $575 reversed $244 $-1 #
coedge $-1 $576 $246 $248 $405 forward $153 $-1 #
coedge $-1 $246 $576 $572 $577 forward $153 $-1 #
coedge $-1 $574 $249 $246 $402 forward $407 $-1 #
edge $-1 $409 -15.707504319557875 $578 -5.1079184696776831 $401 $579 forward 7 unknown #
coedge $-1 $580 $581 $247 $404 forward $396 $-1 #
edge $-1 $582 -33.506265227923457 $408 -27.716994832985122 $403 $583 forward 7 unknown #
edge $-1 $409 -6.7539561265109747 $582 0 $248 $584 forward 7 unknown #
coedge $-1 $249 $574 $580 $585 forward $407 $-1 #
loop $-1 $-1 $574 $395 #
vertex $-1 $404 $586 #
vertex $-1 $250 $587 #
straight-curve $-1 -93.849856900778207 -26.115215714175655 10.007822652272971 1 0 0 I I #
coedge $-1 $411 $411 $-1 $588 reversed $253 $-1 #
edge $-1 $589 0 $589 6.2831853071796004 $254 $590 forward 7 unknown #
vertex $-1 $257 $591 #
ellipse-curve $-1 -67.412008014793784 -23.995298544199617 7.1131874548038105 -0.85716730853699208 0 0.51503806187062418 0.51503806187062418 0 0.85716730853699208 1 I I #
coedge $-1 $415 $415 $-1 $592 reversed $260 $-1 #
edge $-1 $593 0 $593 6.2831853071796004 $261 $594 forward 7 unknown #
vertex $-1 $264 $595 #
ellipse-curve $-1 -67.412008014793784 -20.815422789235559 7.1131874548038105 -0.85716730853699208 0 0.51503806187062418 0.51503806187062418 0 0.85716730853699208 1 I I #
coedge $-1 $419 $419 $-1 $596 reversed $267 $-1 #
edge $-1 $597 0 $597 6.2831853071796004 $268 $598 forward 7 unknown #
vertex $-1 $271 $599 #
ellipse-curve $-1 -67.412008014793784 -17.6355470342715 7.1131874548038105 -0.85716730853699208 0 0.51503806187062418 0.51503806187062418 0 0.85716730853699208 1 I I #
face $-1 $-1 $600 $60 $-1 $601 reversed single #
loop $-1 $-1 $278 $272 #
plane-surface $-1 0 0 10.007822652272973 0 0 1 1 0 0 forward_v I I I I #
coedge $-1 $602 $603 $604 $605 reversed $273 $-1 #
coedge $-1 $606 $275 $277 $433 forward $172 $-1 #
coedge $-1 $275 $606 $602 $607 forward $172 $-1 #
coedge $-1 $604 $278 $275 $430 forward $424 $-1 #
edge $-1 $436 5.3541869681318595 $608 17.64302623009333 $429 $609 forward 7 unknown #
coedge $-1 $610 $611 $276 $432 forward $600 $-1 #
edge $-1 $612 -95.253731430030442 $435 -87.356361182085891 $431 $613 forward 7 unknown #
edge $-1 $436 124.53391582778167 $612 138.30256050294503 $277 $614 forward 7 unknown #
coedge $-1 $278 $604 $610 $615 forward $424 $-1 #
vertex $-1 $432 $616 #
vertex $-1 $279 $617 #
straight-curve $-1 17.593773307405591 -16.852793567244454 10.007822652272978 -1 0 0 I I #
coedge $-1 $438 $438 $-1 $618 reversed $282 $-1 #
edge $-1 $619 0 $619 6.2831853071796004 $283 $620 forward 7 unknown #
vertex $-1 $286 $621 #
ellipse-curve $-1 63.511973570731861 -25.630535897216937 6.0591375283006945 0.57357644374324357 0 0.81915203911291934 0.81915203911291934 0 -0.57357644374324357 1 I I #
coedge $-1 $442 $442 $-1 $622 reversed $289 $-1 #
edge $-1 $623 0 $623 6.2831853071796004 $290 $624 forward 7 unknown #
vertex $-1 $293 $625 #
ellipse-curve $-1 63.511973570731861 -20.363890499233449 6.0591375283006945 0.57357644374324357 0 0.81915203911291934 0.81915203911291934 0 -0.57357644374324357 1 I I #
face $-1 $-1 $458 $63 $-1 $626 forward single #
loop $-1 $-1 $627 $294 #
plane-surface $-1 69.151280251472514 0 0 -1 0 0 0 0 1 forward_v I I I I #
coedge $-1 $628 $629 $630 $631 reversed $295 $-1 #
coedge $-1 $632 $297 $299 $456 forward $186 $-1 #
coedge $-1 $297 $632 $628 $633 forward $186 $-1 #
coedge $-1 $630 $300 $297 $453 forward $458 $-1 #
edge $-1 $460 -3.7388360293889615 $634 8.5500032325725126 $452 $635 forward 7 unknown #
coedge $-1 $636 $637 $298 $455 forward $447 $-1 #
edge $-1 $638 -95.253731430030442 $459 -87.356361182085891 $454 $639 forward 7 unknown #
edge $-1 $460 124.53391582778167 $638 138.30256050294503 $299 $640 forward 7 unknown #
coedge $-1 $300 $630 $636 $641 forward $458 $-1 #
loop $-1 $-1 $630 $446 #
vertex $-1 $455 $642 #
vertex $-1 $301 $643 #
straight-curve $-1 17.593773307405591 1.333252427797186 10.007822652272978 -1 0 0 I I #
coedge $-1 $462 $462 $-1 $644 reversed $304 $-1 #
edge $-1 $645 0 $645 6.2831853071796004 $305 $646 forward 7 unknown #
vertex $-1 $308 $647 #
ellipse-curve $-1 63.511973570731861 -7.4444899021752988 6.0591375283006945 0.57357644374324357 0 0.81915203911291934 0.81915203911291934 0 -0.57357644374324357 1 I I #
coedge $-1 $466 $466 $-1 $648 reversed $311 $-1 #
edge $-1 $649 0 $649 6.2831853071796004 $312 $650 forward 7 unknown #
vertex $-1 $315 $651 #
ellipse-curve $-1 63.511973570731861 -2.1778445041918104 6.0591375283006945 0.57357644374324357 0 0.81915203911291934 0.81915203911291934 0 -0.57357644374324357 1 I I #
face $-1 $-1 $482 $66 $-1 $652 forward single #
loop $-1 $-1 $653 $316 #
plane-surface $-1 69.151280251472514 0 0 -1 0 0 0 0 1 forward_v I I I I #
coedge $-1 $654 $655 $656 $657 reversed $317 $-1 #
coedge $-1 $658 $319 $321 $480 forward $200 $-1 #
coedge $-1 $319 $658 $654 $659 forward $200 $-1 #
coedge $-1 $656 $322 $319 $477 forward $482 $-1 #
edge $-1 $484 -12.831859026909779 $660 -0.54301976494830662 $476 $661 forward 7 unknown #
coedge $-1 $662 $663 $320 $479 forward $471 $-1 #
edge $-1 $664 -95.253731430030442 $483 -87.356361182085891 $478 $665 forward 7 unknown #
edge $-1 $484 124.53391582778167 $664 138.30256050294503 $321 $666 forward 7 unknown #
coedge $-1 $322 $656 $662 $667 forward $482 $-1 #
loop $-1 $-1 $656 $470 #
vertex $-1 $479 $668 #
vertex $-1 $323 $669 #
straight-curve $-1 17.593773307405591 19.519298422838823 10.007822652272978 -1 0 0 I I #
coedge $-1 $486 $486 $-1 $670 reversed $326 $-1 #
edge $-1 $671 0 $671 6.2831853071796004 $327 $672 forward 7 unknown #
vertex $-1 $330 $673 #
ellipse-curve $-1 63.511973570731861 10.74155609286634 6.0591375283006945 0.57357644374324357 0 0.81915203911291934 0.81915203911291934 0 -0.57357644374324357 1 I I #
coedge $-1 $490 $490 $-1 $674 reversed $333 $-1 #
edge $-1 $675 0 $675 6.2831853071796004 $334 $676 forward 7 unknown #
vertex $-1 $337 $677 #
ellipse-curve $-1 63.511973570731861 16.008201490849828 6.0591375283006945 0.57357644374324357 0 0.81915203911291934 0.81915203911291934 0 -0.57357644374324357 1 I I #
face $-1 $-1 $506 $69 $-1 $678 forward single #
loop $-1 $-1 $679 $338 #
plane-surface $-1 69.151280251472514 0 0 -1 0 0 0 0 1 forward_v I I I I #
coedge $-1 $680 $681 $682 $683 reversed $339 $-1 #
coedge $-1 $684 $341 $343 $504 forward $214 $-1 #
coedge $-1 $341 $684 $680 $685 forward $214 $-1 #
coedge $-1 $682 $344 $341 $501 forward $506 $-1 #
edge $-1 $508 -21.924882024430602 $686 -9.6360427624691312 $500 $687 forward 7 unknown #
coedge $-1 $688 $689 $342 $503 forward $495 $-1 #
edge $-1 $690 -95.253731430030442 $507 -87.356361182085891 $502 $691 forward 7 unknown #
edge $-1 $508 124.53391582778167 $690 138.30256050294503 $343 $692 forward 7 unknown #
coedge $-1 $344 $682 $688 $693 forward $506 $-1 #
loop $-1 $-1 $682 $494 #
vertex $-1 $503 $694 #
vertex $-1 $345 $695 #
straight-curve $-1 17.593773307405591 37.705344417880468 10.007822652272978 -1 0 0 I I #
coedge $-1 $510 $510 $-1 $696 reversed $348 $-1 #
edge $-1 $697 0 $697 6.2831853071796004 $349 $698 forward 7 unknown #
vertex $-1 $352 $699 #
ellipse-curve $-1 63.511973570731861 28.927602087907985 6.0591375283006945 0.57357644374324357 0 0.81915203911291934 0.81915203911291934 0 -0.57357644374324357 1 I I #
coedge $-1 $514 $514 $-1 $700 reversed $355 $-1 #
edge $-1 $701 0 $701 6.2831853071796004 $356 $702 forward 7 unknown #
vertex $-1 $359 $703 #
ellipse-curve $-1 63.511973570731861 34.194247485891466 6.0591375283006945 0.57357644374324357 0 0.81915203911291934 0.81915203911291934 0 -0.57357644374324357 1 I I #
face $-1 $-1 $375 $54 $-1 $704 reversed single #
loop $-1 $-1 $534 $360 #
plane-surface $-1 0 42.126629863575204 0 0 -1 0 0 0 -1 forward_v I I I I #
coedge $-1 $705 $532 $535 $706 forward $361 $-1 #
coedge $-1 $538 $363 $364 $526 reversed $228 $-1 #
coedge $-1 $532 $705 $363 $524 reversed $361 $-1 #
edge $-1 $539 -10.007822652272973 $707 10.007822652272973 $523 $708 forward 7 unknown #
coedge $-1 $365 $364 $705 $709 forward $145 $-1 #
edge $-1 $530 -69.151280251472514 $707 69.151280251472514 $522 $710 forward 7 unknown #
coedge $-1 $535 $534 $365 $528 reversed $519 $-1 #
edge $-1 $711 -69.151280251472514 $529 69.151280251472514 $527 $712 forward 7 unknown #
vertex $-1 $367 $713 #
vertex $-1 $541 $714 #
straight-curve $-1 69.151280251472514 0 -10.007822652272973 0 -1 0 I I #
coedge $-1 $521 $523 $368 $533 reversed $361 $-1 #
edge $-1 $536 -42.126629863575204 $539 42.126629863575204 $532 $715 forward 7 unknown #
coedge $-1 $527 $369 $374 $542 forward $519 $-1 #
coedge $-1 $369 $527 $521 $706 reversed $519 $-1 #
vertex $-1 $370 $716 #
straight-curve $-1 0 42.126629863575204 10.007822652272973 -1 0 0 I I #
coedge $-1 $371 $522 $373 $541 reversed $228 $-1 #
vertex $-1 $533 $717 #
straight-curve $-1 0 -42.126629863575204 10.007822652272973 1 0 0 I I #
edge $-1 $376 -10.007822652272973 $530 10.007822652272973 $373 $718 forward 7 unknown #
edge $-1 $377 -10.007822652272973 $529 10.007822652272973 $374 $719 forward 7 unknown #
point $-1 69.151280251472514 -42.126629863575204 10.007822652272973 #
point $-1 69.151280251472514 42.126629863575204 10.007822652272973 #
face $-1 $-1 $720 $55 $-1 $721 reversed single #
loop $-1 $-1 $722 $379 #
plane-surface $-1 0 0 -10.007822652272973 0 0 1 1 0 0 forward_v I I I I #
coedge $-1 $555 $565 $550 $723 forward $380 $-1 #
coedge $-1 $385 $382 $722 $724 reversed $236 $-1 #
coedge $-1 $382 $385 $548 $723 reversed $236 $-1 #
coedge $-1 $725 $726 $382 $552 forward $720 $-1 #
edge $-1 $727 -10.007822652272973 $728 10.007822652272973 $551 $729 forward 7 unknown #
coedge $-1 $722 $388 $383 $554 forward $546 $-1 #
edge $-1 $393 -33.162474229465289 $558 -30.091315444783572 $553 $730 forward 7 unknown #
coedge $-1 $390 $548 $384 $556 forward $380 $-1 #
edge $-1 $557 30.091315444783572 $392 33.162474229465289 $555 $731 forward 7 unknown #
vertex $-1 $556 $732 #
vertex $-1 $554 $733 #
straight-curve $-1 -61.718210281908 -33.562918274900667 0 0 0 -1 I I #
coedge $-1 $726 $725 $387 $561 forward $720 $-1 #
edge $-1 $566 -10.007822652272973 $563 10.007822652272973 $560 $734 forward 7 unknown #
coedge $-1 $388 $722 $726 $735 forward $546 $-1 #
vertex $-1 $389 $736 #
straight-curve $-1 -64.789369066589714 -18.922387034618968 -10.007822652272973 0 1 0 I I #
coedge $-1 $548 $390 $725 $737 forward $380 $-1 #
vertex $-1 $737 $738 #
straight-curve $-1 -64.789369066589714 -18.922387034618968 10.007822652272973 0 -1 0 I I #
point $-1 -64.789369066589714 -33.562918274900667 10.007822652272973 #
point $-1 -64.789369066589714 -33.562918274900667 -10.007822652272973 #
plane-surface $-1 0 0 10.007822652272973 0 0 1 1 0 0 forward_v I I I I #
coedge $-1 $581 $580 $573 $739 forward $396 $-1 #
coedge $-1 $573 $398 $400 $577 reversed $244 $-1 #
coedge $-1 $398 $572 $571 $739 reversed $244 $-1 #
coedge $-1 $406 $401 $398 $575 forward $407 $-1 #
edge $-1 $578 -28.177121122663138 $740 -24.698576649305693 $574 $741 forward 7 unknown #
coedge $-1 $400 $399 $581 $742 reversed $153 $-1 #
edge $-1 $743 0 $578 6.7539561265109747 $572 $744 forward 7 unknown #
vertex $-1 $402 $745 #
straight-curve $-1 -65.672735778115069 -10.407711394617779 10.007822652272973 0 1 0 I I #
coedge $-1 $571 $403 $406 $585 reversed $396 $-1 #
coedge $-1 $403 $571 $576 $742 forward $396 $-1 #
vertex $-1 $404 $746 #
straight-curve $-1 -69.151280251472514 -26.115215714175655 37.724817485258093 0 0 1 I I #
straight-curve $-1 -69.151280251472514 -26.115215714175655 4.2185522573346361 -0.51503806187062418 0 -0.85716730853699208 I I #
edge $-1 $740 15.515629864295462 $408 26.115215714175655 $580 $747 forward 7 unknown #
point $-1 -69.151280251472514 -26.115215714175655 10.007822652272973 #
point $-1 -65.672735778115069 -26.115215714175655 10.007822652272973 #
edge $-1 $748 1 $748 0 $411 $-1 forward 7 unknown #
vertex $-1 $412 $749 #
ellipse-curve $-1 -66.078241347321423 -23.995298544199617 6.3117796169628209 -0.85716730853699208 0 0.51503806187062418 0.51503806187062418 0 0.85716730853699208 1 I I #
point $-1 -66.896969952923172 -23.995298544199617 7.9703547633408007 #
edge $-1 $750 1 $750 0 $415 $-1 forward 7 unknown #
vertex $-1 $416 $751 #
ellipse-curve $-1 -66.078241347321423 -20.815422789235559 6.3117796169628209 -0.85716730853699208 0 0.51503806187062418 0.51503806187062418 0 0.85716730853699208 1 I I #
point $-1 -66.896969952923172 -20.815422789235559 7.9703547633408007 #
edge $-1 $752 1 $752 0 $419 $-1 forward 7 unknown #
vertex $-1 $420 $753 #
ellipse-curve $-1 -66.078241347321423 -17.6355470342715 6.3117796169628209 -0.85716730853699208 0 0.51503806187062418 0.51503806187062418 0 0.85716730853699208 1 I I #
point $-1 -66.896969952923172 -17.6355470342715 7.9703547633408007 #
loop $-1 $-1 $431 $423 #
plane-surface $-1 69.151280251472514 0 0 -1 0 0 0 0 1 forward_v I I I I #
coedge $-1 $603 $426 $428 $607 reversed $273 $-1 #
coedge $-1 $426 $602 $754 $755 reversed $273 $-1 #
coedge $-1 $434 $429 $426 $605 forward $424 $-1 #
edge $-1 $608 40.278893582585617 $756 51.557506944066922 $604 $757 forward 7 unknown #
coedge $-1 $428 $427 $611 $758 reversed $172 $-1 #
edge $-1 $759 -138.30256050294503 $608 -124.53391582778167 $602 $760 forward 7 unknown #
vertex $-1 $430 $761 #
straight-curve $-1 57.872666889991201 -11.498606599112595 10.007822652272971 0 -1 0 I I #
coedge $-1 $754 $431 $434 $615 reversed $600 $-1 #
coedge $-1 $431 $754 $606 $758 forward $600 $-1 #
vertex $-1 $432 $762 #
straight-curve $-1 69.151280251472514 -16.852793567244454 97.364183834358869 0 0 1 I I #
straight-curve $-1 -44.139544199052807 -16.852793567244454 81.437543218192417 0.81915203911291934 0 -0.57357644374324357 I I #
edge $-1 $756 -29.141632829205925 $435 -16.852793567244454 $610 $763 forward 7 unknown #
point $-1 69.151280251472514 -16.852793567244454 10.007822652272973 #
point $-1 57.872666889991208 -16.852793567244454 10.007822652272978 #
edge $-1 $764 1 $764 0 $438 $-1 forward 7 unknown #
vertex $-1 $439 $765 #
ellipse-curve $-1 62.658812088398967 -25.630535897216937 4.8406966812800762 0.57357644374324357 0 0.81915203911291934 0.81915203911291934 0 -0.57357644374324357 1 I I #
point $-1 64.331125609844776 -25.630535897216937 5.4855610845574505 #
edge $-1 $766 1 $766 0 $442 $-1 forward 7 unknown #
vertex $-1 $443 $767 #
ellipse-curve $-1 62.658812088398967 -20.363890499233449 4.8406966812800762 0.57357644374324357 0 0.81915203911291934 0.81915203911291934 0 -0.57357644374324357 1 I I #
point $-1 64.331125609844776 -20.363890499233449 5.4855610845574505 #
plane-surface $-1 0 0 10.007822652272973 0 0 1 1 0 0 forward_v I I I I #
coedge $-1 $637 $636 $629 $768 forward $447 $-1 #
coedge $-1 $629 $449 $451 $633 reversed $295 $-1 #
coedge $-1 $449 $628 $627 $768 reversed $295 $-1 #
coedge $-1 $457 $452 $449 $631 forward $458 $-1 #
edge $-1 $634 40.278893582585617 $769 51.557506944066922 $630 $770 forward 7 unknown #
coedge $-1 $451 $450 $637 $771 reversed $186 $-1 #
edge $-1 $772 -138.30256050294503 $634 -124.53391582778167 $628 $773 forward 7 unknown #
vertex $-1 $453 $774 #
straight-curve $-1 57.872666889991201 -2.4055836015917755 10.007822652272971 0 -1 0 I I #
coedge $-1 $627 $454 $457 $641 reversed $447 $-1 #
coedge $-1 $454 $627 $632 $771 forward $447 $-1 #
vertex $-1 $455 $775 #
straight-curve $-1 69.151280251472514 1.333252427797186 97.364183834358869 0 0 1 I I #
straight-curve $-1 -44.139544199052807 1.333252427797186 81.437543218192417 0.81915203911291934 0 -0.57357644374324357 I I #
edge $-1 $769 -10.955586834164288 $459 1.333252427797186 $636 $776 forward 7 unknown #
point $-1 69.151280251472514 1.333252427797186 10.007822652272973 #
point $-1 57.872666889991208 1.333252427797186 10.007822652272978 #
edge $-1 $777 1 $777 0 $462 $-1 forward 7 unknown #
vertex $-1 $463 $778 #
ellipse-curve $-1 62.658812088398967 -7.4444899021752988 4.8406966812800762 0.57357644374324357 0 0.81915203911291934 0.81915203911291934 0 -0.57357644374324357 1 I I #
point $-1 64.331125609844776 -7.4444899021752988 5.4855610845574505 #
edge $-1 $779 1 $779 0 $466 $-1 forward 7 unknown #
vertex $-1 $467 $780 #
ellipse-curve $-1 62.658812088398967 -2.1778445041918104 4.8406966812800762 0.57357644374324357 0 0.81915203911291934 0.81915203911291934 0 -0.57357644374324357 1 I I #
point $-1 64.331125609844776 -2.1778445041918104 5.4855610845574505 #
plane-surface $-1 0 0 10.007822652272973 0 0 1 1 0 0 forward_v I I I I #
coedge $-1 $663 $662 $655 $781 forward $471 $-1 #
coedge $-1 $655 $473 $475 $659 reversed $317 $-1 #
coedge $-1 $473 $654 $653 $781 reversed $317 $-1 #
coedge $-1 $481 $476 $473 $657 forward $482 $-1 #
edge $-1 $660 40.278893582585617 $782 51.557506944066922 $656 $783 forward 7 unknown #
coedge $-1 $475 $474 $663 $784 reversed $200 $-1 #
edge $-1 $785 -138.30256050294503 $660 -124.53391582778167 $654 $786 forward 7 unknown #
vertex $-1 $477 $787 #
straight-curve $-1 57.872666889991201 6.6874393959290437 10.007822652272971 0 -1 0 I I #
coedge $-1 $653 $478 $481 $667 reversed $471 $-1 #
coedge $-1 $478 $653 $658 $784 forward $471 $-1 #
vertex $-1 $479 $788 #
straight-curve $-1 69.151280251472514 19.519298422838823 97.364183834358869 0 0 1 I I #
straight-curve $-1 -44.139544199052807 19.519298422838823 81.437543218192417 0.81915203911291934 0 -0.57357644374324357 I I #
edge $-1 $782 7.2304591608773503 $483 19.519298422838823 $662 $789 forward 7 unknown #
point $-1 69.151280251472514 19.519298422838823 10.007822652272973 #
point $-1 57.872666889991208 19.519298422838823 10.007822652272978 #
edge $-1 $790 1 $790 0 $486 $-1 forward 7 unknown #
vertex $-1 $487 $791 #
ellipse-curve $-1 62.658812088398967 10.74155609286634 4.8406966812800762 0.57357644374324357 0 0.81915203911291934 0.81915203911291934 0 -0.57357644374324357 1 I I #
point $-1 64.331125609844776 10.74155609286634 5.4855610845574505 #
edge $-1 $792 1 $792 0 $490 $-1 forward 7 unknown #
vertex $-1 $491 $793 #
ellipse-curve $-1 62.658812088398967 16.008201490849828 4.8406966812800762 0.57357644374324357 0 0.81915203911291934 0.81915203911291934 0 -0.57357644374324357 1 I I #
point $-1 64.331125609844776 16.008201490849828 5.4855610845574505 #
plane-surface $-1 0 0 10.007822652272973 0 0 1 1 0 0 forward_v I I I I #
coedge $-1 $689 $688 $681 $794 forward $495 $-1 #
coedge $-1 $681 $497 $499 $685 reversed $339 $-1 #
coedge $-1 $497 $680 $679 $794 reversed $339 $-1 #
coedge $-1 $505 $500 $497 $683 forward $506 $-1 #
edge $-1 $686 40.278893582585617 $795 51.557506944066922 $682 $796 forward 7 unknown #
coedge $-1 $499 $498 $689 $797 reversed $214 $-1 #
edge $-1 $798 -138.30256050294503 $686 -124.53391582778167 $680 $799 forward 7 unknown #
vertex $-1 $501 $800 #
straight-curve $-1 57.872666889991201 15.780462393449866 10.007822652272971 0 -1 0 I I #
coedge $-1 $679 $502 $505 $693 reversed $495 $-1 #
coedge $-1 $502 $679 $684 $797 forward $495 $-1 #
vertex $-1 $503 $801 #
straight-curve $-1 69.151280251472514 37.705344417880468 97.364183834358869 0 0 1 I I #
straight-curve $-1 -44.139544199052807 37.705344417880468 81.437543218192417 0.81915203911291934 0 -0.57357644374324357 I I #
edge $-1 $795 25.416505155918998 $507 37.705344417880468 $688 $802 forward 7 unknown #
point $-1 69.151280251472514 37.705344417880468 10.007822652272973 #
point $-1 57.872666889991208 37.705344417880468 10.007822652272978 #
edge $-1 $803 1 $803 0 $510 $-1 forward 7 unknown #
vertex $-1 $511 $804 #
ellipse-curve $-1 62.658812088398967 28.927602087907985 4.8406966812800762 0.57357644374324357 0 0.81915203911291934 0.81915203911291934 0 -0.57357644374324357 1 I I #
point $-1 64.331125609844776 28.927602087907985 5.4855610845574505 #
edge $-1 $805 1 $805 0 $514 $-1 forward 7 unknown #
vertex $-1 $515 $806 #
ellipse-curve $-1 62.658812088398967 34.194247485891466 4.8406966812800762 0.57357644374324357 0 0.81915203911291934 0.81915203911291934 0 -0.57357644374324357 1 I I #
point $-1 64.331125609844776 34.194247485891466 5.4855610845574505 #
plane-surface $-1 69.151280251472514 0 0 -1 0 0 0 0 1 forward_v I I I I #
coedge $-1 $523 $521 $525 $709 reversed $361 $-1 #
edge $-1 $536 -10.007822652272973 $711 10.007822652272973 $535 $807 forward 7 unknown #
vertex $-1 $709 $808 #
straight-curve $-1 -69.151280251472514 -42.126629863575204 0 0 0 -1 I I #
edge $-1 $707 -42.126629863575204 $711 42.126629863575204 $705 $809 forward 7 unknown #
straight-curve $-1 0 -42.126629863575204 -10.007822652272973 -1 0 0 I I #
vertex $-1 $528 $810 #
straight-curve $-1 0 42.126629863575204 -10.007822652272973 1 0 0 I I #
point $-1 69.151280251472514 42.126629863575204 -10.007822652272973 #
point $-1 69.151280251472514 -42.126629863575204 -10.007822652272973 #
straight-curve $-1 -69.151280251472514 0 10.007822652272973 0 -1 0 I I #
point $-1 -69.151280251472514 42.126629863575204 10.007822652272973 #
point $-1 -69.151280251472514 -42.126629863575204 10.007822652272973 #
straight-curve $-1 69.151280251472514 -42.126629863575204 0 0 0 -1 I I #
straight-curve $-1 69.151280251472514 42.126629863575204 0 0 0 -1 I I #
loop $-1 $-1 $551 $545 #
plane-surface $-1 0 -42.126629863575204 0 0 1 0 0 0 1 forward_v I I I I #
coedge $-1 $562 $553 $549 $724 forward $546 $-1 #
edge $-1 $728 -23.204242828956236 $557 -14.6405312402817 $548 $811 forward 7 unknown #
edge $-1 $558 14.6405312402817 $727 23.204242828956236 $722 $812 forward 7 unknown #
coedge $-1 $560 $551 $565 $737 reversed $720 $-1 #
coedge $-1 $551 $560 $562 $735 reversed $720 $-1 #
vertex $-1 $735 $813 #
vertex $-1 $552 $814 #
straight-curve $-1 -61.718210281908 -42.126629863575204 0 0 0 1 I I #
straight-curve $-1 -31.626894837124429 -33.562918274900667 -10.007822652272973 1 0 0 I I #
straight-curve $-1 -31.626894837124429 -33.562918274900667 10.007822652272973 -1 0 0 I I #
point $-1 -61.718210281908 -33.562918274900667 10.007822652272973 #
point $-1 -61.718210281908 -33.562918274900667 -10.007822652272973 #
straight-curve $-1 -64.789369066589714 -42.126629863575204 0 0 0 -1 I I #
edge $-1 $727 61.718210281908 $563 64.789369066589714 $726 $815 forward 7 unknown #
point $-1 -64.789369066589714 -42.126629863575204 -10.007822652272973 #
edge $-1 $566 -64.789369066589714 $728 -61.718210281908 $725 $816 forward 7 unknown #
point $-1 -64.789369066589714 -42.126629863575204 10.007822652272973 #
edge $-1 $740 27.716994832985122 $743 33.506265227923457 $571 $817 forward 7 unknown #
vertex $-1 $585 $818 #
straight-curve $-1 -93.849856900778207 -15.515629864295462 10.007822652272971 -1 0 0 I I #
edge $-1 $743 5.1079184696776831 $582 15.707504319557875 $581 $819 forward 7 unknown #
vertex $-1 $742 $820 #
straight-curve $-1 -69.151280251472514 -15.515629864295462 4.2185522573346361 0.51503806187062418 0 0.85716730853699208 I I #
point $-1 -65.672735778115069 -15.515629864295462 10.007822652272973 #
point $-1 -69.151280251472514 -26.115215714175655 4.2185522573346361 #
straight-curve $-1 -69.151280251472514 0 10.007822652272973 0 -1 0 I I #
vertex $-1 $588 $821 #
point $-1 -65.563203285450797 -23.995298544199617 7.1689469254998128 #
vertex $-1 $592 $822 #
point $-1 -65.563203285450797 -20.815422789235559 7.1689469254998128 #
vertex $-1 $596 $823 #
point $-1 -65.563203285450797 -17.6355470342715 7.1689469254998128 #
coedge $-1 $611 $610 $603 $755 forward $600 $-1 #
edge $-1 $756 87.356361182085891 $759 95.253731430030442 $754 $824 forward 7 unknown #
vertex $-1 $615 $825 #
straight-curve $-1 17.593773307405591 -29.141632829205925 10.007822652272978 1 0 0 I I #
edge $-1 $759 -17.64302623009333 $612 -5.3541869681318595 $611 $826 forward 7 unknown #
vertex $-1 $758 $827 #
straight-curve $-1 -44.139544199052807 -29.141632829205925 81.437543218192417 -0.81915203911291934 0 0.57357644374324357 I I #
point $-1 57.872666889991208 -29.141632829205925 10.007822652272978 #
point $-1 69.151280251472514 -16.852793567244454 2.1104524043284272 #
straight-curve $-1 69.151280251472514 0 10.007822652272973 0 1 0 I I #
vertex $-1 $618 $828 #
point $-1 63.477964127511882 -25.630535897216937 4.2671202375368322 #
vertex $-1 $622 $829 #
point $-1 63.477964127511882 -20.363890499233449 4.2671202375368322 #
edge $-1 $769 87.356361182085891 $772 95.253731430030442 $627 $830 forward 7 unknown #
vertex $-1 $641 $831 #
straight-curve $-1 17.593773307405591 -10.955586834164288 10.007822652272978 1 0 0 I I #
edge $-1 $772 -8.5500032325725126 $638 3.7388360293889615 $637 $832 forward 7 unknown #
vertex $-1 $771 $833 #
straight-curve $-1 -44.139544199052807 -10.955586834164288 81.437543218192417 -0.81915203911291934 0 0.57357644374324357 I I #
point $-1 57.872666889991208 -10.955586834164288 10.007822652272978 #
point $-1 69.151280251472514 1.333252427797186 2.1104524043284272 #
straight-curve $-1 69.151280251472514 0 10.007822652272973 0 1 0 I I #
vertex $-1 $644 $834 #
point $-1 63.477964127511882 -7.4444899021752988 4.2671202375368322 #
vertex $-1 $648 $835 #
point $-1 63.477964127511882 -2.1778445041918104 4.2671202375368322 #
edge $-1 $782 87.356361182085891 $785 95.253731430030442 $653 $836 forward 7 unknown #
vertex $-1 $667 $837 #
straight-curve $-1 17.593773307405591 7.2304591608773503 10.007822652272978 1 0 0 I I #
edge $-1 $785 0.54301976494830662 $664 12.831859026909779 $663 $838 forward 7 unknown #
vertex $-1 $784 $839 #
straight-curve $-1 -44.139544199052807 7.2304591608773503 81.437543218192417 -0.81915203911291934 0 0.57357644374324357 I I #
point $-1 57.872666889991208 7.2304591608773503 10.007822652272978 #
point $-1 69.151280251472514 19.519298422838823 2.1104524043284272 #
straight-curve $-1 69.151280251472514 0 10.007822652272973 0 1 0 I I #
vertex $-1 $670 $840 #
point $-1 63.477964127511882 10.74155609286634 4.2671202375368322 #
vertex $-1 $674 $841 #
point $-1 63.477964127511882 16.008201490849828 4.2671202375368322 #
edge $-1 $795 87.356361182085891 $798 95.253731430030442 $679 $842 forward 7 unknown #
vertex $-1 $693 $843 #
straight-curve $-1 17.593773307405591 25.416505155918998 10.007822652272978 1 0 0 I I #
edge $-1 $798 9.6360427624691312 $690 21.924882024430602 $689 $844 forward 7 unknown #
vertex $-1 $797 $845 #
straight-curve $-1 -44.139544199052807 25.416505155918998 81.437543218192417 -0.81915203911291934 0 0.57357644374324357 I I #
point $-1 57.872666889991208 25.416505155918998 10.007822652272978 #
point $-1 69.151280251472514 37.705344417880468 2.1104524043284272 #
straight-curve $-1 69.151280251472514 0 10.007822652272973 0 1 0 I I #
vertex $-1 $696 $846 #
point $-1 63.477964127511882 28.927602087907985 4.2671202375368322 #
vertex $-1 $700 $847 #
point $-1 63.477964127511882 34.194247485891466 4.2671202375368322 #
straight-curve $-1 -69.151280251472514 42.126629863575204 0 0 0 -1 I I #
point $-1 -69.151280251472514 -42.126629863575204 -10.007822652272973 #
straight-curve $-1 -69.151280251472514 0 -10.007822652272973 0 1 0 I I #
point $-1 -69.151280251472514 42.126629863575204 -10.007822652272973 #
straight-curve $-1 -61.718210281908 -18.922387034618968 10.007822652272973 0 1 0 I I #
straight-curve $-1 -61.718210281908 -18.922387034618968 -10.007822652272973 0 -1 0 I I #
point $-1 -61.718210281908 -42.126629863575204 -10.007822652272973 #
point $-1 -61.718210281908 -42.126629863575204 10.007822652272973 #
straight-curve $-1 0 -42.126629863575204 -10.007822652272973 -1 0 0 I I #
straight-curve $-1 0 -42.126629863575204 10.007822652272973 1 0 0 I I #
straight-curve $-1 -69.151280251472514 -15.515629864295462 37.724817485258093 0 0 -1 I I #
point $-1 -69.151280251472514 -15.515629864295462 10.007822652272973 #
straight-curve $-1 -69.151280251472514 -10.407711394617779 4.2185522573346255 0 -1 0 I I #
point $-1 -69.151280251472514 -15.515629864295462 4.2185522573346361 #
point $-1 -65.221074038784437 -23.995298544199617 5.7967415550921961 #
point $-1 -65.221074038784437 -20.815422789235559 5.7967415550921961 #
point $-1 -65.221074038784437 -17.6355470342715 5.7967415550921961 #
straight-curve $-1 69.151280251472514 -29.141632829205925 97.364183834358869 0 0 -1 I I #
point $-1 69.151280251472514 -29.141632829205925 10.007822652272973 #
straight-curve $-1 69.151280251472528 -11.498606599112595 2.1104524043284201 0 1 0 I I #
point $-1 69.151280251472514 -29.141632829205925 2.1104524043284272 #
point $-1 62.085235644655718 -25.630535897216937 4.0215446421671563 #
point $-1 62.085235644655718 -20.363890499233449 4.0215446421671563 #
straight-curve $-1 69.151280251472514 -10.955586834164288 97.364183834358869 0 0 -1 I I #
point $-1 69.151280251472514 -10.955586834164288 10.007822652272973 #
straight-curve $-1 69.151280251472528 -2.4055836015917755 2.1104524043284201 0 1 0 I I #
point $-1 69.151280251472514 -10.955586834164288 2.1104524043284272 #
point $-1 62.085235644655718 -7.4444899021752988 4.0215446421671563 #
point $-1 62.085235644655718 -2.1778445041918104 4.0215446421671563 #
straight-curve $-1 69.151280251472514 7.2304591608773503 97.364183834358869 0 0 -1 I I #
point $-1 69.151280251472514 7.2304591608773503 10.007822652272973 #
straight-curve $-1 69.151280251472528 6.6874393959290437 2.1104524043284201 0 1 0 I I #
point $-1 69.151280251472514 7.2304591608773503 2.1104524043284272 #
point $-1 62.085235644655718 10.74155609286634 4.0215446421671563 #
point $-1 62.085235644655718 16.008201490849828 4.0215446421671563 #
straight-curve $-1 69.151280251472514 25.416505155918998 97.364183834358869 0 0 -1 I I #
point $-1 69.151280251472514 25.416505155918998 10.007822652272973 #
straight-curve $-1 69.151280251472528 15.780462393449866 2.1104524043284201 0 1 0 I I #
point $-1 69.151280251472514 25.416505155918998 2.1104524043284272 #
point $-1 62.085235644655718 28.927602087907985 4.0215446421671563 #
point $-1 62.085235644655718 34.194247485891466 4.0215446421671563 #
End-of-ACIS-data 