500 0 5 0           
7 Unknown 11 ACIS 5.0 NT 24 Fri Mar 26 01:07:09 1999 
-1 9.9999999999999995e-007 1e-010 
body $-1 $5 $-1 $6 #
body $-1 $7 $-1 $8 #
body $-1 $9 $-1 $10 #
body $-1 $11 $-1 $12 #
body $-1 $13 $-1 $14 #
lump $-1 $-1 $15 $0 #
transform $-1 1 0 0 0 1 0 0 0 1 53.297524948881495 31.803497003555417 12.202906778981928 1 rotate no_reflect no_shear #
lump $-1 $-1 $16 $1 #
transform $-1 1 0 0 0 1 0 0 0 1 53.297524948881495 31.803497003555417 12.202906778981928 1 rotate no_reflect no_shear #
lump $-1 $-1 $17 $2 #
transform $-1 1 0 0 0 1 0 0 0 1 53.297524948881495 31.803497003555417 12.202906778981928 1 rotate no_reflect no_shear #
lump $-1 $-1 $18 $3 #
transform $-1 1 0 0 0 1 0 0 0 1 53.297524948881495 31.803497003555417 12.202906778981928 1 rotate no_reflect no_shear #
lump $-1 $-1 $19 $4 #
transform $-1 1 0 0 0 1 0 0 0 1 53.297524948881495 31.803497003555417 12.202906778981928 1 rotate no_reflect no_shear #
shell $-1 $-1 $-1 $20 $-1 $5 #
shell $-1 $-1 $-1 $21 $-1 $7 #
shell $-1 $-1 $-1 $22 $-1 $9 #
shell $-1 $-1 $-1 $23 $-1 $11 #
shell $-1 $-1 $-1 $24 $-1 $13 #
face $-1 $25 $26 $15 $-1 $27 forward single #
face $-1 $28 $29 $16 $-1 $30 reversed single #
face $-1 $31 $32 $17 $-1 $33 forward single #
face $-1 $34 $35 $18 $-1 $36 reversed single #
face $-1 $37 $38 $19 $-1 $39 forward single #
face $-1 $40 $41 $15 $-1 $42 reversed single #
loop $-1 $-1 $43 $20 #
plane-surface $-1 0 0 12.202906778981928 0 0 1 1 0 0 forward_v I I I I #
face $-1 $44 $45 $16 $-1 $46 reversed single #
loop $-1 $-1 $47 $21 #
plane-surface $-1 -32.121662576381986 -25.154534674271734 0 1 0 0 0 0 -1 forward_v I I I I #
face $-1 $48 $49 $17 $-1 $50 reversed single #
loop $-1 $-1 $51 $22 #
plane-surface $-1 0 31.803497003555417 0 0 -1 0 0 0 -1 forward_v I I I I #
face $-1 $52 $53 $18 $-1 $54 reversed single #
loop $-1 $-1 $55 $23 #
plane-surface $-1 34.925946496645672 22.628513977881642 153.28775537068756 0 -1 0 -0.61566148304635926 0 -0.78801074757464917 forward_v I I I I #
face $-1 $56 $57 $19 $-1 $58 forward single #
loop $-1 $59 $60 $24 #
cone-surface $-1 46.880164631126476 18.356966552691009 6.714282420977959 -0.61566148304635926 0 -0.78801074757464917 1.1820161213619738 0 -0.92349222456953894 1 I I 0 1 1.5 forward I I I I #
face $-1 $61 $62 $15 $-1 $63 reversed single #
loop $-1 $-1 $64 $25 #
plane-surface $-1 0 0 -12.202906778981928 0 0 1 1 0 0 forward_v I I I I #
coedge $-1 $65 $66 $67 $68 forward $26 $-1 #
face $-1 $69 $70 $16 $-1 $71 reversed single #
loop $-1 $-1 $72 $28 #
plane-surface $-1 -30.506686983649814 -18.50557234498805 0 0 -1 0 0 0 -1 forward_v I I I I #
coedge $-1 $73 $74 $75 $76 forward $29 $-1 #
face $-1 $77 $78 $17 $-1 $79 forward single #
loop $-1 $-1 $80 $31 #
plane-surface $-1 -53.297524948881495 0 0 1 0 0 0 0 -1 forward_v I I I I #
coedge $-1 $81 $82 $83 $84 forward $32 $-1 #
face $-1 $85 $86 $18 $-1 $87 reversed single #
loop $-1 $-1 $88 $34 #
plane-surface $-1 -30.700520008811758 18.356966552691009 69.289710412994324 0.61566148304635926 0 0.78801074757464917 0.78801074757464917 0 -0.61566148304635926 forward_v I I I I #
coedge $-1 $89 $90 $91 $92 reversed $35 $-1 #
face $-1 $-1 $93 $19 $-1 $94 forward single #
loop $-1 $95 $96 $37 #
cone-surface $-1 45.466193107744608 18.356966552691009 4.9044814380155213 -0.61566148304635926 0 -0.78801074757464917 0.59100806068098688 0 -0.46174611228476947 1 I I -0.70710678118654757 0.70710678118654757 0.75 forward I I I I #
loop $-1 $-1 $97 $24 #
coedge $-1 $60 $60 $98 $99 reversed $38 $-1 #
face $-1 $100 $101 $15 $-1 $102 reversed single #
loop $-1 $-1 $103 $40 #
plane-surface $-1 0 -31.803497003555417 0 0 1 0 0 0 1 forward_v I I I I #
coedge $-1 $104 $105 $106 $107 forward $41 $-1 #
coedge $-1 $108 $43 $109 $110 forward $26 $-1 #
coedge $-1 $43 $108 $111 $112 forward $26 $-1 #
coedge $-1 $113 $114 $43 $68 reversed $115 $-1 #
edge $-1 $116 -31.803497003555417 $117 31.803497003555417 $67 $118 forward 7 unknown #
face $-1 $119 $120 $16 $-1 $121 forward single #
loop $-1 $-1 $122 $44 #
plane-surface $-1 -28.891711390917642 -25.154534674271734 0 -1 0 0 0 0 1 forward_v I I I I #
coedge $-1 $123 $124 $125 $126 forward $45 $-1 #
coedge $-1 $127 $47 $128 $129 reversed $29 $-1 #
coedge $-1 $47 $127 $130 $131 reversed $29 $-1 #
coedge $-1 $124 $123 $47 $76 reversed $45 $-1 #
edge $-1 $132 -12.202906778981928 $133 12.202906778981928 $75 $134 forward 7 unknown #
face $-1 $135 $136 $17 $-1 $137 reversed single #
loop $-1 $-1 $138 $48 #
plane-surface $-1 0 0 12.202906778981928 0 0 1 1 0 0 forward_v I I I I #
coedge $-1 $139 $140 $82 $141 forward $49 $-1 #
coedge $-1 $142 $51 $143 $144 reversed $32 $-1 #
coedge $-1 $51 $142 $80 $141 reversed $32 $-1 #
coedge $-1 $145 $146 $51 $84 reversed $136 $-1 #
edge $-1 $147 -53.297524948881495 $148 53.297524948881495 $83 $149 forward 7 unknown #
face $-1 $150 $151 $18 $-1 $152 reversed single #
loop $-1 $-1 $153 $52 #
plane-surface $-1 34.925946496645672 14.085419127500376 153.28775537068756 0 1 0 0.61566148304635926 0 0.78801074757464917 forward_v I I I I #
coedge $-1 $154 $155 $156 $157 reversed $53 $-1 #
coedge $-1 $90 $55 $158 $159 reversed $35 $-1 #
coedge $-1 $55 $89 $154 $160 reversed $35 $-1 #
coedge $-1 $156 $161 $55 $92 forward $162 $-1 #
edge $-1 $163 -35.834551700558663 $164 -24.904281887242814 $91 $165 forward 7 unknown #
loop $-1 $-1 $98 $56 #
plane-surface $-1 -30.700520008811758 18.356966552691009 69.289710412994324 0.61566148304635926 0 0.78801074757464917 0.78801074757464917 0 -0.61566148304635926 forward_v I I I I #
loop $-1 $-1 $166 $37 #
coedge $-1 $96 $96 $97 $167 reversed $57 $-1 #
coedge $-1 $97 $97 $96 $167 forward $59 $-1 #
coedge $-1 $98 $98 $60 $99 forward $93 $-1 #
edge $-1 $168 0 $168 6.2831853071796004 $98 $169 forward 7 unknown #
face $-1 $170 $171 $15 $-1 $172 reversed single #
loop $-1 $-1 $173 $61 #
plane-surface $-1 -53.297524948881495 0 0 1 0 0 0 0 -1 forward_v I I I I #
coedge $-1 $174 $111 $175 $176 forward $62 $-1 #
coedge $-1 $177 $64 $174 $178 forward $41 $-1 #
coedge $-1 $64 $177 $179 $180 forward $41 $-1 #
coedge $-1 $114 $113 $64 $107 reversed $115 $-1 #
edge $-1 $181 -31.803497003555417 $182 31.803497003555417 $106 $183 forward 7 unknown #
coedge $-1 $66 $65 $184 $185 forward $26 $-1 #
coedge $-1 $186 $187 $65 $110 reversed $171 $-1 #
edge $-1 $117 -53.297524948881495 $188 53.297524948881495 $109 $189 forward 7 unknown #
coedge $-1 $103 $190 $66 $112 reversed $62 $-1 #
edge $-1 $191 -53.297524948881495 $116 53.297524948881495 $111 $192 forward 7 unknown #
coedge $-1 $106 $67 $190 $193 forward $115 $-1 #
coedge $-1 $67 $106 $186 $194 reversed $115 $-1 #
loop $-1 $-1 $113 $170 #
vertex $-1 $68 $195 #
vertex $-1 $68 $196 #
straight-curve $-1 53.297524948881495 0 12.202906778981928 0 1 0 I I #
face $-1 $197 $198 $16 $-1 $199 reversed single #
loop $-1 $-1 $200 $69 #
plane-surface $-1 0 0 12.202906778981928 0 0 1 1 0 0 forward_v I I I I #
coedge $-1 $201 $202 $203 $204 reversed $70 $-1 #
coedge $-1 $75 $72 $205 $206 reversed $45 $-1 #
coedge $-1 $72 $75 $207 $208 reversed $45 $-1 #
coedge $-1 $202 $201 $72 $126 reversed $70 $-1 #
edge $-1 $209 -12.202906778981928 $210 12.202906778981928 $125 $211 forward 7 unknown #
coedge $-1 $74 $73 $212 $213 reversed $29 $-1 #
coedge $-1 $205 $214 $73 $129 forward $198 $-1 #
edge $-1 $215 -19.226229666419549 $133 -5.9283050078521828 $128 $216 forward 7 unknown #
coedge $-1 $217 $207 $74 $131 forward $120 $-1 #
edge $-1 $132 5.9283050078521828 $218 19.226229666419549 $130 $219 forward 7 unknown #
vertex $-1 $131 $220 #
vertex $-1 $129 $221 #
straight-curve $-1 -32.121662576381986 -18.50557234498805 0 0 0 -1 I I #
face $-1 $222 $223 $17 $-1 $224 reversed single #
loop $-1 $-1 $146 $77 #
plane-surface $-1 0 36.390988516392298 6.887136315349851 0 0 1 1 0 0 forward_v I I I I #
coedge $-1 $225 $226 $142 $227 forward $78 $-1 #
coedge $-1 $228 $80 $226 $229 reversed $49 $-1 #
coedge $-1 $80 $228 $145 $230 reversed $49 $-1 #
edge $-1 $147 6.887136315349851 $231 12.202906778981928 $80 $232 forward 7 unknown #
coedge $-1 $82 $81 $138 $227 reversed $32 $-1 #
coedge $-1 $233 $234 $81 $144 forward $235 $-1 #
edge $-1 $236 -12.202906778981928 $148 -6.887136315349851 $143 $237 forward 7 unknown #
coedge $-1 $238 $83 $140 $230 forward $136 $-1 #
coedge $-1 $83 $238 $233 $239 forward $136 $-1 #
vertex $-1 $141 $240 #
vertex $-1 $144 $241 #
straight-curve $-1 0 31.803497003555417 6.887136315349851 1 0 0 I I #
face $-1 $-1 $162 $18 $-1 $242 forward single #
loop $-1 $-1 $243 $85 #
plane-surface $-1 53.297524948881495 0 0 -1 0 0 0 0 1 forward_v I I I I #
coedge $-1 $244 $245 $246 $247 reversed $86 $-1 #
coedge $-1 $248 $88 $90 $160 forward $53 $-1 #
coedge $-1 $88 $248 $244 $249 forward $53 $-1 #
coedge $-1 $246 $91 $88 $157 forward $162 $-1 #
edge $-1 $164 -13.450030701536138 $250 -4.9069358511548717 $156 $251 forward 7 unknown #
coedge $-1 $252 $253 $89 $159 forward $151 $-1 #
edge $-1 $254 -72.980633777806901 $163 -64.440970906361855 $158 $255 forward 7 unknown #
edge $-1 $164 92.72433830282958 $254 106.595049897763 $90 $256 forward 7 unknown #
coedge $-1 $91 $246 $252 $257 forward $162 $-1 #
loop $-1 $-1 $246 $150 #
vertex $-1 $159 $258 #
vertex $-1 $92 $259 #
straight-curve $-1 17.462973248322836 22.628513977881642 12.202906778981927 -1 0 0 I I #
coedge $-1 $166 $166 $-1 $260 reversed $95 $-1 #
edge $-1 $261 0 $261 6.2831853071796004 $96 $262 forward 7 unknown #
vertex $-1 $99 $263 #
ellipse-curve $-1 47.832390042223579 18.356966552691009 7.9330753432594099 0.61566148304635926 0 0.78801074757464917 1.1820161213619738 0 -0.92349222456953894 1 I I #
face $-1 $-1 $115 $15 $-1 $264 reversed single #
loop $-1 $-1 $186 $100 #
plane-surface $-1 0 31.803497003555417 0 0 -1 0 0 0 -1 forward_v I I I I #
coedge $-1 $265 $184 $187 $266 forward $101 $-1 #
coedge $-1 $190 $103 $104 $178 reversed $62 $-1 #
coedge $-1 $184 $265 $103 $176 reversed $101 $-1 #
edge $-1 $191 -12.202906778981928 $267 12.202906778981928 $175 $268 forward 7 unknown #
coedge $-1 $105 $104 $265 $269 forward $41 $-1 #
edge $-1 $182 -53.297524948881495 $267 53.297524948881495 $174 $270 forward 7 unknown #
coedge $-1 $187 $186 $105 $180 reversed $171 $-1 #
edge $-1 $271 -53.297524948881495 $181 53.297524948881495 $179 $272 forward 7 unknown #
vertex $-1 $107 $273 #
vertex $-1 $193 $274 #
straight-curve $-1 53.297524948881495 0 -12.202906778981928 0 -1 0 I I #
coedge $-1 $173 $175 $108 $185 reversed $101 $-1 #
edge $-1 $188 -31.803497003555417 $191 31.803497003555417 $184 $275 forward 7 unknown #
coedge $-1 $179 $109 $114 $194 forward $171 $-1 #
coedge $-1 $109 $179 $173 $266 reversed $171 $-1 #
vertex $-1 $110 $276 #
straight-curve $-1 0 31.803497003555417 12.202906778981928 -1 0 0 I I #
coedge $-1 $111 $174 $113 $193 reversed $62 $-1 #
vertex $-1 $185 $277 #
straight-curve $-1 0 -31.803497003555417 12.202906778981928 1 0 0 I I #
edge $-1 $116 -12.202906778981928 $182 12.202906778981928 $113 $278 forward 7 unknown #
edge $-1 $117 -12.202906778981928 $181 12.202906778981928 $114 $279 forward 7 unknown #
point $-1 53.297524948881495 -31.803497003555417 12.202906778981928 #
point $-1 53.297524948881495 31.803497003555417 12.202906778981928 #
face $-1 $-1 $280 $16 $-1 $281 reversed single #
loop $-1 $-1 $282 $119 #
plane-surface $-1 0 0 -12.202906778981928 0 0 1 1 0 0 forward_v I I I I #
coedge $-1 $207 $217 $202 $283 forward $120 $-1 #
coedge $-1 $125 $122 $282 $284 reversed $70 $-1 #
coedge $-1 $122 $125 $200 $283 reversed $70 $-1 #
coedge $-1 $285 $286 $122 $204 forward $280 $-1 #
edge $-1 $287 -12.202906778981928 $288 12.202906778981928 $203 $289 forward 7 unknown #
coedge $-1 $282 $128 $123 $206 forward $198 $-1 #
edge $-1 $133 -16.868319084557079 $210 -13.638367899092735 $205 $290 forward 7 unknown #
coedge $-1 $130 $200 $124 $208 forward $120 $-1 #
edge $-1 $209 13.638367899092735 $132 16.868319084557079 $207 $291 forward 7 unknown #
vertex $-1 $208 $292 #
vertex $-1 $206 $293 #
straight-curve $-1 -28.891711390917642 -18.50557234498805 0 0 0 -1 I I #
coedge $-1 $286 $285 $127 $213 forward $280 $-1 #
edge $-1 $218 -12.202906778981928 $215 12.202906778981928 $212 $294 forward 7 unknown #
coedge $-1 $128 $282 $286 $295 forward $198 $-1 #
vertex $-1 $129 $296 #
straight-curve $-1 -32.121662576381986 -12.577267337135867 -12.202906778981928 0 1 0 I I #
coedge $-1 $200 $130 $285 $297 forward $120 $-1 #
vertex $-1 $297 $298 #
straight-curve $-1 -32.121662576381986 -12.577267337135867 12.202906778981928 0 -1 0 I I #
point $-1 -32.121662576381986 -18.50557234498805 12.202906778981928 #
point $-1 -32.121662576381986 -18.50557234498805 -12.202906778981928 #
face $-1 $-1 $235 $17 $-1 $299 reversed single #
loop $-1 $-1 $300 $135 #
plane-surface $-1 0 40.978480029229189 9.5450215471658897 0 -1 0 0 0 -1 forward_v I I I I #
coedge $-1 $301 $138 $234 $302 forward $78 $-1 #
coedge $-1 $138 $301 $139 $229 forward $78 $-1 #
edge $-1 $231 -53.297524948881495 $236 53.297524948881495 $138 $303 forward 7 unknown #
coedge $-1 $140 $139 $304 $305 forward $49 $-1 #
edge $-1 $306 -40.978480029229189 $231 -31.803497003555417 $139 $307 forward 7 unknown #
edge $-1 $147 -4.5874915128368876 $308 4.5874915128368912 $140 $309 forward 7 unknown #
vertex $-1 $227 $310 #
straight-curve $-1 -53.297524948881495 31.803497003555417 0 0 0 1 I I #
coedge $-1 $311 $143 $146 $239 reversed $235 $-1 #
coedge $-1 $143 $311 $225 $302 reversed $235 $-1 #
loop $-1 $-1 $143 $222 #
vertex $-1 $302 $312 #
straight-curve $-1 53.297524948881495 31.803497003555417 0 0 0 -1 I I #
coedge $-1 $146 $145 $313 $314 forward $136 $-1 #
edge $-1 $315 -4.5874915128368912 $148 4.5874915128368876 $233 $316 forward 7 unknown #
point $-1 -53.297524948881495 31.80349700355541 6.887136315349851 #
point $-1 53.297524948881495 31.80349700355541 6.887136315349851 #
plane-surface $-1 0 0 12.202906778981928 0 0 1 1 0 0 forward_v I I I I #
coedge $-1 $253 $252 $245 $317 forward $151 $-1 #
coedge $-1 $245 $153 $155 $249 reversed $86 $-1 #
coedge $-1 $153 $244 $243 $317 reversed $86 $-1 #
coedge $-1 $161 $156 $153 $247 forward $162 $-1 #
edge $-1 $250 24.904281887242814 $318 35.834551700558663 $246 $319 forward 7 unknown #
coedge $-1 $155 $154 $253 $320 reversed $53 $-1 #
edge $-1 $321 -106.595049897763 $250 -92.72433830282958 $244 $322 forward 7 unknown #
vertex $-1 $157 $323 #
straight-curve $-1 42.367255135565664 9.1784832763455046 12.202906778981927 0 -1 0 I I #
coedge $-1 $243 $158 $161 $257 reversed $151 $-1 #
coedge $-1 $158 $243 $248 $320 forward $151 $-1 #
vertex $-1 $159 $324 #
straight-curve $-1 53.297524948881495 22.628513977881642 76.643877685343782 0 0 1 I I #
straight-curve $-1 -30.700520008811758 22.628513977881642 69.289710412994324 0.78801074757464917 0 -0.61566148304635926 I I #
edge $-1 $318 14.085419127500376 $163 22.628513977881642 $252 $325 forward 7 unknown #
point $-1 53.297524948881495 22.628513977881642 12.202906778981928 #
point $-1 42.367255135565649 22.628513977881642 12.202906778981934 #
edge $-1 $326 1 $326 0 $166 $-1 forward 7 unknown #
vertex $-1 $167 $327 #
ellipse-curve $-1 45.92793922002938 18.356966552691009 5.4954894986965082 0.61566148304635926 0 0.78801074757464917 1.1820161213619738 0 -0.92349222456953894 1 I I #
point $-1 49.014406163585555 18.356966552691009 7.0095831186898714 #
plane-surface $-1 53.297524948881495 0 0 -1 0 0 0 0 1 forward_v I I I I #
coedge $-1 $175 $173 $177 $269 reversed $101 $-1 #
edge $-1 $188 -12.202906778981928 $271 12.202906778981928 $187 $328 forward 7 unknown #
vertex $-1 $269 $329 #
straight-curve $-1 -53.297524948881495 -31.803497003555417 0 0 0 -1 I I #
edge $-1 $267 -31.803497003555417 $271 31.803497003555417 $265 $330 forward 7 unknown #
straight-curve $-1 0 -31.803497003555417 -12.202906778981928 -1 0 0 I I #
vertex $-1 $180 $331 #
straight-curve $-1 0 31.803497003555417 -12.202906778981928 1 0 0 I I #
point $-1 53.297524948881495 31.803497003555417 -12.202906778981928 #
point $-1 53.297524948881495 -31.803497003555417 -12.202906778981928 #
straight-curve $-1 -53.297524948881495 0 12.202906778981928 0 -1 0 I I #
point $-1 -53.297524948881495 31.803497003555417 12.202906778981928 #
point $-1 -53.297524948881495 -31.803497003555417 12.202906778981928 #
straight-curve $-1 53.297524948881495 -31.803497003555417 0 0 0 -1 I I #
straight-curve $-1 53.297524948881495 31.803497003555417 0 0 0 -1 I I #
loop $-1 $-1 $203 $197 #
plane-surface $-1 0 -31.803497003555417 0 0 1 0 0 0 1 forward_v I I I I #
coedge $-1 $214 $205 $201 $284 forward $198 $-1 #
edge $-1 $288 -19.226229666419549 $209 -5.9283050078521828 $200 $332 forward 7 unknown #
edge $-1 $210 5.9283050078521828 $287 19.226229666419549 $282 $333 forward 7 unknown #
coedge $-1 $212 $203 $217 $297 reversed $280 $-1 #
coedge $-1 $203 $212 $214 $295 reversed $280 $-1 #
vertex $-1 $295 $334 #
vertex $-1 $204 $335 #
straight-curve $-1 -28.891711390917642 -31.803497003555417 0 0 0 1 I I #
straight-curve $-1 -15.253343491824907 -18.50557234498805 -12.202906778981928 1 0 0 I I #
straight-curve $-1 -15.253343491824907 -18.50557234498805 12.202906778981928 -1 0 0 I I #
point $-1 -28.891711390917642 -18.50557234498805 12.202906778981928 #
point $-1 -28.891711390917642 -18.50557234498805 -12.202906778981928 #
straight-curve $-1 -32.121662576381986 -31.803497003555417 0 0 0 -1 I I #
edge $-1 $287 28.891711390917642 $215 32.121662576381986 $286 $336 forward 7 unknown #
point $-1 -32.121662576381986 -31.803497003555417 -12.202906778981928 #
edge $-1 $218 -32.121662576381986 $288 -28.891711390917642 $285 $337 forward 7 unknown #
point $-1 -32.121662576381986 -31.803497003555417 12.202906778981928 #
plane-surface $-1 53.297524948881495 0 0 -1 0 0 0 0 1 forward_v I I I I #
coedge $-1 $313 $338 $311 $339 forward $223 $-1 #
coedge $-1 $226 $225 $338 $340 forward $78 $-1 #
edge $-1 $236 31.803497003555417 $341 40.978480029229189 $234 $342 forward 7 unknown #
straight-curve $-1 0 31.803497003555417 12.202906778981928 1 0 0 I I #
coedge $-1 $338 $313 $228 $305 reversed $223 $-1 #
edge $-1 $306 -2.6578852318160386 $308 2.6578852318160386 $304 $343 forward 7 unknown #
vertex $-1 $340 $344 #
straight-curve $-1 -53.297524948881495 0 12.202906778981928 0 -1 0 I I #
vertex $-1 $314 $345 #
straight-curve $-1 -53.297524948881495 36.390988516392298 6.887136315349851 0 1 0 I I #
point $-1 -53.297524948881495 31.803497003555417 12.202906778981928 #
coedge $-1 $234 $233 $300 $339 reversed $235 $-1 #
point $-1 53.297524948881495 31.803497003555417 12.202906778981928 #
coedge $-1 $304 $300 $238 $314 reversed $223 $-1 #
edge $-1 $308 -53.297524948881495 $315 53.297524948881495 $313 $346 forward 7 unknown #
vertex $-1 $239 $347 #
straight-curve $-1 53.297524948881495 36.390988516392298 6.887136315349851 0 -1 0 I I #
edge $-1 $318 64.440970906361855 $321 72.980633777806901 $243 $348 forward 7 unknown #
vertex $-1 $257 $349 #
straight-curve $-1 17.462973248322836 14.085419127500376 12.202906778981927 1 0 0 I I #
edge $-1 $321 4.9069358511548717 $254 13.450030701536138 $253 $350 forward 7 unknown #
vertex $-1 $320 $351 #
straight-curve $-1 -30.700520008811758 14.085419127500376 69.289710412994324 -0.78801074757464917 0 0.61566148304635926 I I #
point $-1 42.367255135565649 14.085419127500376 12.202906778981934 #
point $-1 53.297524948881495 22.628513977881642 3.6632439075368808 #
straight-curve $-1 53.297524948881495 0 12.202906778981928 0 1 0 I I #
vertex $-1 $260 $352 #
point $-1 47.109955341391348 18.356966552691009 4.5719972741269697 #
straight-curve $-1 -53.297524948881495 31.803497003555417 0 0 0 -1 I I #
point $-1 -53.297524948881495 -31.803497003555417 -12.202906778981928 #
straight-curve $-1 -53.297524948881495 0 -12.202906778981928 0 1 0 I I #
point $-1 -53.297524948881495 31.803497003555417 -12.202906778981928 #
straight-curve $-1 -28.891711390917642 -12.577267337135867 12.202906778981928 0 1 0 I I #
straight-curve $-1 -28.891711390917642 -12.577267337135867 -12.202906778981928 0 -1 0 I I #
point $-1 -28.891711390917642 -31.803497003555417 -12.202906778981928 #
point $-1 -28.891711390917642 -31.803497003555417 12.202906778981928 #
straight-curve $-1 0 -31.803497003555417 -12.202906778981928 -1 0 0 I I #
straight-curve $-1 0 -31.803497003555417 12.202906778981928 1 0 0 I I #
coedge $-1 $300 $304 $301 $340 reversed $223 $-1 #
edge $-1 $341 -2.6578852318160386 $315 2.6578852318160386 $311 $353 forward 7 unknown #
edge $-1 $341 -53.297524948881495 $306 53.297524948881495 $338 $354 forward 7 unknown #
vertex $-1 $302 $355 #
straight-curve $-1 53.297524948881495 0 12.202906778981928 0 1 0 I I #
straight-curve $-1 -53.297524948881495 40.978480029229189 9.5450215471658897 0 0 -1 I I #
point $-1 -53.297524948881495 40.978480029229189 12.202906778981928 #
point $-1 -53.297524948881495 40.978480029229189 6.887136315349851 #
straight-curve $-1 0 40.978480029229189 6.887136315349851 1 0 0 I I #
point $-1 53.297524948881495 40.978480029229189 6.887136315349851 #
straight-curve $-1 53.297524948881495 14.085419127500376 76.643877685343782 0 0 -1 I I #
point $-1 53.297524948881495 14.085419127500376 12.202906778981928 #
straight-curve $-1 53.297524948881502 9.1784832763455046 3.6632439075368879 0 1 0 I I #
point $-1 53.297524948881495 14.085419127500376 3.6632439075368808 #
point $-1 45.004446995459837 18.356966552691009 4.3134733773345344 #
straight-curve $-1 53.297524948881495 40.978480029229189 9.5450215471658897 0 0 -1 I I #
straight-curve $-1 0 40.978480029229189 12.202906778981928 -1 0 0 I I #
point $-1 53.297524948881495 40.978480029229189 12.202906778981928 #
End-of-ACIS-data 