500 0 8 0           
7 Unknown 11 ACIS 5.0 NT 24 Thu Mar 25 21:24:43 1999 
-1 9.9999999999999995e-007 1e-010 
body $-1 $8 $-1 $9 #
body $-1 $10 $-1 $11 #
body $-1 $12 $-1 $13 #
body $-1 $14 $-1 $15 #
body $-1 $16 $-1 $17 #
body $-1 $18 $-1 $19 #
body $-1 $20 $-1 $21 #
body $-1 $22 $-1 $23 #
lump $-1 $-1 $24 $0 #
transform $-1 1 0 0 0 1 0 0 0 1 70.315866573076562 38.833706102268216 12.331571256590808 1 rotate no_reflect no_shear #
lump $-1 $-1 $25 $1 #
transform $-1 1 0 0 0 1 0 0 0 1 70.315866573076562 38.833706102268216 12.331571256590808 1 rotate no_reflect no_shear #
lump $-1 $-1 $26 $2 #
transform $-1 1 0 0 0 1 0 0 0 1 70.315866573076562 38.833706102268216 12.331571256590808 1 rotate no_reflect no_shear #
lump $-1 $-1 $27 $3 #
transform $-1 1 0 0 0 1 0 0 0 1 70.315866573076562 38.833706102268216 12.331571256590808 1 rotate no_reflect no_shear #
lump $-1 $-1 $28 $4 #
transform $-1 1 0 0 0 1 0 0 0 1 70.315866573076562 38.833706102268216 12.331571256590808 1 rotate no_reflect no_shear #
lump $-1 $-1 $29 $5 #
transform $-1 1 0 0 0 1 0 0 0 1 70.315866573076562 38.833706102268216 12.331571256590808 1 rotate no_reflect no_shear #
lump $-1 $-1 $30 $6 #
transform $-1 1 0 0 0 1 0 0 0 1 70.315866573076562 38.833706102268216 12.331571256590808 1 rotate no_reflect no_shear #
lump $-1 $-1 $31 $7 #
transform $-1 1 0 0 0 1 0 0 0 1 70.315866573076562 38.833706102268216 12.331571256590808 1 rotate no_reflect no_shear #
shell $-1 $-1 $-1 $32 $-1 $8 #
shell $-1 $-1 $-1 $33 $-1 $10 #
shell $-1 $-1 $-1 $34 $-1 $12 #
shell $-1 $-1 $-1 $35 $-1 $14 #
shell $-1 $-1 $-1 $36 $-1 $16 #
shell $-1 $-1 $-1 $37 $-1 $18 #
shell $-1 $-1 $-1 $38 $-1 $20 #
shell $-1 $-1 $-1 $39 $-1 $22 #
face $-1 $40 $41 $24 $-1 $42 forward single #
face $-1 $43 $44 $25 $-1 $45 forward single #
face $-1 $46 $47 $26 $-1 $48 reversed single #
face $-1 $49 $50 $27 $-1 $51 forward single #
face $-1 $52 $53 $28 $-1 $54 forward single #
face $-1 $55 $56 $29 $-1 $57 reversed single #
face $-1 $58 $59 $30 $-1 $60 forward single #
face $-1 $61 $62 $31 $-1 $63 forward single #
face $-1 $64 $65 $24 $-1 $66 reversed single #
loop $-1 $-1 $67 $32 #
plane-surface $-1 0 0 12.331571256590808 0 0 1 1 0 0 forward_v I I I I #
face $-1 $68 $69 $25 $-1 $70 reversed single #
loop $-1 $-1 $71 $33 #
plane-surface $-1 0 -32.275716519230052 9.3238067079392692 0 0 1 1 0 0 forward_v I I I I #
face $-1 $72 $73 $26 $-1 $74 reversed single #
loop $-1 $-1 $75 $34 #
plane-surface $-1 91.104835343651587 4.2147654400828003 203.41034299828124 0 1 0 0.77714596973225614 0 0.62932038083071107 forward_v I I I I #
face $-1 $76 $77 $27 $-1 $78 forward single #
loop $-1 $79 $80 $35 #
cone-surface $-1 67.208432129325317 6.418535136733027 8.6593966913131535 -0.77714596973225614 0 -0.62932038083071107 0.15733009520767777 0 -0.19428649243306403 1 I I 0 1 0.25 forward I I I I #
face $-1 $81 $82 $28 $-1 $83 forward single #
loop $-1 $84 $85 $36 #
cone-surface $-1 67.208432129325317 9.7241896817083671 8.6593966913131535 -0.77714596973225614 0 -0.62932038083071107 0.15733009520767777 0 -0.19428649243306403 1 I I 0 1 0.25 forward I I I I #
face $-1 $86 $87 $29 $-1 $88 reversed single #
loop $-1 $-1 $89 $37 #
plane-surface $-1 -178.04602544124276 26.335349321790829 95.844568396449972 0 1 0 -0.7660444514056185 0 0.64278759981090561 forward_v I I I I #
face $-1 $90 $91 $30 $-1 $92 forward single #
loop $-1 $93 $94 $38 #
cone-surface $-1 -66.755906955163027 29.906308401927227 8.3259800440202252 0.7660444514056185 0 -0.64278759981090561 0.96418139971635841 0 1.1490666771084277 1 I I 0 1 1.5 forward I I I I #
face $-1 $95 $96 $31 $-1 $97 forward single #
loop $-1 $98 $99 $39 #
cone-surface $-1 -66.755906955163027 35.262747022131812 8.3259800440202252 0.7660444514056185 0 -0.64278759981090561 0.96418139971635841 0 1.1490666771084277 1 I I 0 1 1.5 forward I I I I #
face $-1 $100 $101 $24 $-1 $102 reversed single #
loop $-1 $-1 $103 $40 #
plane-surface $-1 0 0 -12.331571256590808 0 0 1 1 0 0 forward_v I I I I #
coedge $-1 $104 $105 $106 $107 forward $41 $-1 #
face $-1 $108 $109 $25 $-1 $110 reversed single #
loop $-1 $-1 $111 $43 #
plane-surface $-1 0 -32.275716519230052 3.4367017191746596 0 0 1 1 0 0 forward_v I I I I #
coedge $-1 $112 $113 $114 $115 reversed $44 $-1 #
face $-1 $116 $117 $26 $-1 $118 reversed single #
loop $-1 $-1 $119 $46 #
plane-surface $-1 -18.186549287343453 8.071362409220697 114.90792713786122 0.77714596973225614 0 0.62932038083071107 0.62932038083071107 0 -0.77714596973225614 forward_v I I I I #
coedge $-1 $120 $121 $122 $123 reversed $47 $-1 #
face $-1 $-1 $124 $27 $-1 $125 forward single #
loop $-1 $126 $127 $49 #
cone-surface $-1 66.722715898242654 6.418535136733027 8.266071453293959 -0.77714596973225614 0 -0.62932038083071107 0.078665047603838884 0 -0.097143246216532017 1 I I -0.70710678118654746 0.70710678118654746 0.125 forward I I I I #
loop $-1 $-1 $128 $35 #
coedge $-1 $80 $80 $129 $130 reversed $50 $-1 #
face $-1 $-1 $131 $28 $-1 $132 forward single #
loop $-1 $133 $134 $52 #
cone-surface $-1 66.722715898242654 9.7241896817083671 8.266071453293959 -0.77714596973225614 0 -0.62932038083071107 0.078665047603838884 0 -0.097143246216532017 1 I I -0.70710678118654746 0.70710678118654746 0.125 forward I I I I #
loop $-1 $-1 $135 $36 #
coedge $-1 $85 $85 $136 $137 reversed $53 $-1 #
face $-1 $138 $139 $29 $-1 $140 forward single #
loop $-1 $-1 $141 $55 #
plane-surface $-1 -70.315866573076562 32.584527712029519 5.448234190186426 -0.7660444514056185 0 0.64278759981090561 0.64278759981090561 0 0.7660444514056185 forward_v I I I I #
coedge $-1 $142 $143 $144 $145 reversed $56 $-1 #
face $-1 $-1 $146 $30 $-1 $147 forward single #
loop $-1 $148 $149 $58 #
cone-surface $-1 -65.509316719930922 29.906308401927227 7.279966664793653 0.7660444514056185 0 -0.64278759981090561 0.48209069985817921 0 0.57453333855421385 1 I I -0.70710678118654757 0.70710678118654757 0.75 forward I I I I #
loop $-1 $-1 $150 $38 #
coedge $-1 $94 $94 $151 $152 reversed $59 $-1 #
face $-1 $-1 $153 $31 $-1 $154 forward single #
loop $-1 $155 $156 $61 #
cone-surface $-1 -65.509316719930922 35.262747022131812 7.279966664793653 0.7660444514056185 0 -0.64278759981090561 0.48209069985817921 0 0.57453333855421385 1 I I -0.70710678118654757 0.70710678118654757 0.75 forward I I I I #
loop $-1 $-1 $157 $39 #
coedge $-1 $99 $99 $158 $159 reversed $62 $-1 #
face $-1 $160 $161 $24 $-1 $162 reversed single #
loop $-1 $-1 $163 $64 #
plane-surface $-1 0 -38.833706102268216 0 0 1 0 0 0 1 forward_v I I I I #
coedge $-1 $164 $165 $166 $167 forward $65 $-1 #
coedge $-1 $168 $67 $169 $170 forward $41 $-1 #
coedge $-1 $67 $168 $171 $172 forward $41 $-1 #
coedge $-1 $173 $174 $67 $107 reversed $175 $-1 #
edge $-1 $176 -38.833706102268216 $177 38.833706102268216 $106 $178 forward 7 unknown #
face $-1 $179 $180 $25 $-1 $181 reversed single #
loop $-1 $-1 $182 $68 #
plane-surface $-1 0 -25.717726936191884 6.3802542135569649 0 -1 0 0 0 -1 forward_v I I I I #
coedge $-1 $183 $184 $185 $186 reversed $69 $-1 #
coedge $-1 $187 $71 $188 $189 forward $44 $-1 #
coedge $-1 $71 $187 $190 $191 reversed $44 $-1 #
coedge $-1 $192 $193 $71 $115 forward $194 $-1 #
edge $-1 $195 9.5798686765768579 $196 22.69584784265319 $114 $197 forward 7 unknown #
face $-1 $198 $199 $26 $-1 $200 forward single #
loop $-1 $-1 $201 $72 #
plane-surface $-1 91.104835343651587 11.927959378358594 203.41034299828124 0 -1 0 -0.77714596973225614 0 -0.62932038083071107 forward_v I I I I #
coedge $-1 $202 $203 $204 $205 reversed $73 $-1 #
coedge $-1 $121 $75 $206 $207 reversed $47 $-1 #
coedge $-1 $75 $120 $202 $208 reversed $47 $-1 #
coedge $-1 $204 $209 $75 $123 forward $210 $-1 #
edge $-1 $211 89.373600242549813 $212 96.088628992274437 $122 $213 forward 7 unknown #
loop $-1 $-1 $129 $76 #
plane-surface $-1 -18.186549287343453 8.071362409220697 114.90792713786122 0.77714596973225614 0 0.62932038083071107 0.62932038083071107 0 -0.77714596973225614 forward_v I I I I #
loop $-1 $-1 $214 $49 #
coedge $-1 $127 $127 $128 $215 reversed $77 $-1 #
coedge $-1 $128 $128 $127 $215 forward $79 $-1 #
coedge $-1 $129 $129 $80 $130 forward $124 $-1 #
edge $-1 $216 0 $216 6.2831853071796004 $129 $217 forward 7 unknown #
loop $-1 $-1 $136 $81 #
plane-surface $-1 -18.186549287343453 8.071362409220697 114.90792713786122 0.77714596973225614 0 0.62932038083071107 0.62932038083071107 0 -0.77714596973225614 forward_v I I I I #
loop $-1 $-1 $218 $52 #
coedge $-1 $134 $134 $135 $219 reversed $82 $-1 #
coedge $-1 $135 $135 $134 $219 forward $84 $-1 #
coedge $-1 $136 $136 $85 $137 forward $131 $-1 #
edge $-1 $220 0 $220 6.2831853071796004 $136 $221 forward 7 unknown #
face $-1 $222 $223 $29 $-1 $224 reversed single #
loop $-1 $-1 $144 $86 #
plane-surface $-1 0 0 12.331571256590808 0 0 1 1 0 0 forward_v I I I I #
coedge $-1 $225 $226 $227 $228 reversed $87 $-1 #
coedge $-1 $143 $89 $229 $230 reversed $56 $-1 #
coedge $-1 $89 $142 $225 $231 reversed $56 $-1 #
coedge $-1 $227 $232 $89 $145 forward $139 $-1 #
edge $-1 $233 18.707146147544819 $234 24.482951590016114 $144 $235 forward 7 unknown #
loop $-1 $-1 $151 $90 #
plane-surface $-1 -70.315866573076562 32.584527712029519 5.448234190186426 -0.7660444514056185 0 0.64278759981090561 0.64278759981090561 0 0.7660444514056185 forward_v I I I I #
loop $-1 $-1 $236 $58 #
coedge $-1 $149 $149 $150 $237 reversed $91 $-1 #
coedge $-1 $150 $150 $149 $237 forward $93 $-1 #
coedge $-1 $151 $151 $94 $152 forward $146 $-1 #
edge $-1 $238 0 $238 6.2831853071796004 $151 $239 forward 7 unknown #
loop $-1 $-1 $158 $95 #
plane-surface $-1 -70.315866573076562 32.584527712029519 5.448234190186426 -0.7660444514056185 0 0.64278759981090561 0.64278759981090561 0 0.7660444514056185 forward_v I I I I #
loop $-1 $-1 $240 $61 #
coedge $-1 $156 $156 $157 $241 reversed $96 $-1 #
coedge $-1 $157 $157 $156 $241 forward $98 $-1 #
coedge $-1 $158 $158 $99 $159 forward $153 $-1 #
edge $-1 $242 0 $242 6.2831853071796004 $158 $243 forward 7 unknown #
face $-1 $244 $245 $24 $-1 $246 reversed single #
loop $-1 $-1 $247 $100 #
plane-surface $-1 -70.315866573076562 0 0 1 0 0 0 0 -1 forward_v I I I I #
coedge $-1 $248 $171 $249 $250 forward $101 $-1 #
coedge $-1 $251 $103 $248 $252 forward $65 $-1 #
coedge $-1 $103 $251 $253 $254 forward $65 $-1 #
coedge $-1 $174 $173 $103 $167 reversed $175 $-1 #
edge $-1 $255 -38.833706102268216 $256 38.833706102268216 $166 $257 forward 7 unknown #
coedge $-1 $105 $104 $258 $259 forward $41 $-1 #
coedge $-1 $260 $261 $104 $170 reversed $245 $-1 #
edge $-1 $177 -70.315866573076562 $262 70.315866573076562 $169 $263 forward 7 unknown #
coedge $-1 $163 $264 $105 $172 reversed $101 $-1 #
edge $-1 $265 -70.315866573076562 $176 70.315866573076562 $171 $266 forward 7 unknown #
coedge $-1 $166 $106 $264 $267 forward $175 $-1 #
coedge $-1 $106 $166 $260 $268 reversed $175 $-1 #
loop $-1 $-1 $173 $244 #
vertex $-1 $107 $269 #
vertex $-1 $107 $270 #
straight-curve $-1 70.315866573076562 0 12.331571256590808 0 1 0 I I #
face $-1 $271 $272 $25 $-1 $273 reversed single #
loop $-1 $-1 $274 $108 #
plane-surface $-1 -70.315866573076562 0 0 1 0 0 0 0 -1 forward_v I I I I #
coedge $-1 $275 $188 $193 $276 reversed $109 $-1 #
coedge $-1 $277 $111 $278 $279 reversed $69 $-1 #
coedge $-1 $111 $277 $275 $280 forward $69 $-1 #
coedge $-1 $193 $192 $111 $186 forward $194 $-1 #
edge $-1 $281 -22.69584784265319 $282 -9.5798686765768579 $185 $283 forward 7 unknown #
coedge $-1 $113 $112 $274 $284 reversed $44 $-1 #
coedge $-1 $182 $285 $112 $189 reversed $109 $-1 #
edge $-1 $195 -70.315866573076562 $286 70.315866573076562 $188 $287 forward 7 unknown #
coedge $-1 $288 $289 $113 $191 forward $272 $-1 #
edge $-1 $196 -70.315866573076562 $290 70.315866573076562 $190 $291 forward 7 unknown #
coedge $-1 $185 $114 $289 $292 forward $194 $-1 #
coedge $-1 $114 $185 $182 $276 forward $194 $-1 #
loop $-1 $-1 $114 $271 #
vertex $-1 $115 $293 #
vertex $-1 $292 $294 #
straight-curve $-1 70.315866573076562 -16.137858259615026 9.3238067079392692 0 -1 0 I I #
face $-1 $-1 $210 $26 $-1 $295 reversed single #
loop $-1 $-1 $296 $116 #
plane-surface $-1 0 0 12.331571256590808 0 0 1 1 0 0 forward_v I I I I #
coedge $-1 $297 $298 $299 $300 reversed $117 $-1 #
coedge $-1 $301 $119 $121 $208 forward $73 $-1 #
coedge $-1 $119 $301 $297 $302 forward $73 $-1 #
coedge $-1 $299 $122 $119 $205 forward $210 $-1 #
edge $-1 $212 0.17908423547245178 $303 7.8922781737482453 $204 $304 forward 7 unknown #
coedge $-1 $305 $306 $120 $207 forward $199 $-1 #
edge $-1 $307 19.325725983480524 $211 24.763448901250769 $206 $308 forward 7 unknown #
edge $-1 $212 -140.63173314615312 $307 -131.99110575920534 $121 $309 forward 7 unknown #
coedge $-1 $122 $299 $305 $310 reversed $210 $-1 #
loop $-1 $-1 $299 $198 #
vertex $-1 $310 $311 #
vertex $-1 $123 $312 #
straight-curve $-1 70.315866573076562 4.2147654400828003 101.70517149914062 0 0 -1 I I #
coedge $-1 $214 $214 $-1 $313 reversed $126 $-1 #
edge $-1 $314 0 $314 6.2831853071796004 $127 $315 forward 7 unknown #
vertex $-1 $130 $316 #
ellipse-curve $-1 67.597005114191433 6.418535136733027 8.9740568817285009 0.77714596973225614 0 0.62932038083071107 0.15733009520767777 0 -0.19428649243306403 1 I I #
coedge $-1 $218 $218 $-1 $317 reversed $133 $-1 #
edge $-1 $318 0 $318 6.2831853071796004 $134 $319 forward 7 unknown #
vertex $-1 $137 $320 #
ellipse-curve $-1 67.597005114191433 9.7241896817083671 8.9740568817285009 0.77714596973225614 0 0.62932038083071107 0.15733009520767777 0 -0.19428649243306403 1 I I #
face $-1 $-1 $321 $29 $-1 $322 reversed single #
loop $-1 $-1 $323 $138 #
plane-surface $-1 0 38.833706102268216 0 0 -1 0 0 0 -1 forward_v I I I I #
coedge $-1 $324 $141 $143 $231 forward $87 $-1 #
coedge $-1 $141 $324 $323 $325 reversed $87 $-1 #
coedge $-1 $326 $144 $141 $228 forward $139 $-1 #
edge $-1 $234 10.04308546577607 $327 22.54144224625345 $227 $328 forward 7 unknown #
coedge $-1 $329 $330 $142 $230 forward $321 $-1 #
edge $-1 $331 -42.47405000803856 $233 -35.59071294163418 $229 $332 forward 7 unknown #
edge $-1 $234 -8.985558284214596 $331 0 $143 $333 forward 7 unknown #
coedge $-1 $144 $326 $329 $334 forward $139 $-1 #
vertex $-1 $230 $335 #
vertex $-1 $145 $336 #
straight-curve $-1 -89.023012720621381 26.335349321790829 12.331571256590806 1 0 0 I I #
coedge $-1 $236 $236 $-1 $337 reversed $148 $-1 #
edge $-1 $338 0 $338 6.2831853071796004 $149 $339 forward 7 unknown #
vertex $-1 $152 $340 #
ellipse-curve $-1 -67.427963851840914 29.906308401927227 8.8899027233886141 -0.7660444514056185 0 0.64278759981090561 0.96418139971635841 0 1.1490666771084277 1 I I #
coedge $-1 $240 $240 $-1 $341 reversed $155 $-1 #
edge $-1 $342 0 $342 6.2831853071796004 $156 $343 forward 7 unknown #
vertex $-1 $159 $344 #
ellipse-curve $-1 -67.427963851840914 35.262747022131812 8.8899027233886141 -0.7660444514056185 0 0.64278759981090561 0.96418139971635841 0 1.1490666771084277 1 I I #
face $-1 $-1 $175 $24 $-1 $345 reversed single #
loop $-1 $-1 $260 $160 #
plane-surface $-1 0 38.833706102268216 0 0 -1 0 0 0 -1 forward_v I I I I #
coedge $-1 $346 $258 $261 $347 forward $161 $-1 #
coedge $-1 $264 $163 $164 $252 reversed $101 $-1 #
coedge $-1 $258 $346 $163 $250 reversed $161 $-1 #
edge $-1 $265 -12.331571256590808 $348 12.331571256590808 $249 $349 forward 7 unknown #
coedge $-1 $165 $164 $346 $350 forward $65 $-1 #
edge $-1 $256 -70.315866573076562 $348 70.315866573076562 $248 $351 forward 7 unknown #
coedge $-1 $261 $260 $165 $254 reversed $245 $-1 #
edge $-1 $352 -70.315866573076562 $255 70.315866573076562 $253 $353 forward 7 unknown #
vertex $-1 $167 $354 #
vertex $-1 $267 $355 #
straight-curve $-1 70.315866573076562 0 -12.331571256590808 0 -1 0 I I #
coedge $-1 $247 $249 $168 $259 reversed $161 $-1 #
edge $-1 $262 -38.833706102268216 $265 38.833706102268216 $258 $356 forward 7 unknown #
coedge $-1 $253 $169 $174 $268 forward $245 $-1 #
coedge $-1 $169 $253 $247 $347 reversed $245 $-1 #
vertex $-1 $170 $357 #
straight-curve $-1 0 38.833706102268216 12.331571256590808 -1 0 0 I I #
coedge $-1 $171 $248 $173 $267 reversed $101 $-1 #
vertex $-1 $259 $358 #
straight-curve $-1 0 -38.833706102268216 12.331571256590808 1 0 0 I I #
edge $-1 $176 -12.331571256590808 $256 12.331571256590808 $173 $359 forward 7 unknown #
edge $-1 $177 -12.331571256590808 $255 12.331571256590808 $174 $360 forward 7 unknown #
point $-1 70.315866573076562 -38.833706102268216 12.331571256590808 #
point $-1 70.315866573076562 38.833706102268216 12.331571256590808 #
face $-1 $-1 $194 $25 $-1 $361 reversed single #
loop $-1 $-1 $190 $179 #
plane-surface $-1 0 -38.833706102268216 0 0 1 0 0 0 1 forward_v I I I I #
coedge $-1 $362 $363 $187 $284 forward $180 $-1 #
coedge $-1 $285 $182 $184 $280 reversed $109 $-1 #
edge $-1 $282 0.24657461239617717 $195 6.1336796011607868 $193 $364 forward 7 unknown #
coedge $-1 $184 $183 $365 $366 reversed $69 $-1 #
coedge $-1 $289 $288 $183 $279 forward $272 $-1 #
edge $-1 $367 -70.315866573076562 $281 70.315866573076562 $278 $368 forward 7 unknown #
edge $-1 $369 -70.315866573076562 $282 70.315866573076562 $275 $370 forward 7 unknown #
vertex $-1 $279 $371 #
vertex $-1 $186 $372 #
straight-curve $-1 70.315866573076562 -16.137858259615026 3.4367017191746596 0 1 0 I I #
edge $-1 $290 -22.69584784265319 $286 -9.5798686765768579 $274 $373 forward 7 unknown #
coedge $-1 $188 $275 $362 $374 reversed $109 $-1 #
vertex $-1 $284 $375 #
straight-curve $-1 0 -25.717726936191884 9.3238067079392692 -1 0 0 I I #
coedge $-1 $278 $190 $363 $376 forward $272 $-1 #
coedge $-1 $190 $278 $192 $292 reversed $272 $-1 #
vertex $-1 $376 $377 #
straight-curve $-1 0 -38.833706102268216 9.3238067079392692 -1 0 0 I I #
edge $-1 $196 -9.3238067079392692 $281 -3.4367017191746596 $192 $378 forward 7 unknown #
point $-1 70.315866573076562 -25.717726936191884 9.3238067079392692 #
point $-1 70.315866573076562 -38.833706102268216 9.3238067079392692 #
plane-surface $-1 70.315866573076562 0 0 -1 0 0 0 0 1 forward_v I I I I #
coedge $-1 $306 $305 $298 $379 forward $199 $-1 #
coedge $-1 $298 $201 $203 $302 reversed $117 $-1 #
coedge $-1 $201 $297 $296 $379 reversed $117 $-1 #
coedge $-1 $209 $204 $201 $300 forward $210 $-1 #
edge $-1 $303 -96.088628992274437 $380 -89.373600242549813 $299 $381 forward 7 unknown #
coedge $-1 $203 $202 $306 $382 reversed $73 $-1 #
edge $-1 $383 131.99110575920534 $303 140.63173314615312 $297 $384 forward 7 unknown #
vertex $-1 $205 $385 #
straight-curve $-1 70.315866573076562 4.0356812046103485 5.616542506866196 0 1 0 I I #
coedge $-1 $296 $206 $209 $310 forward $199 $-1 #
coedge $-1 $206 $296 $301 $382 forward $199 $-1 #
vertex $-1 $207 $386 #
straight-curve $-1 45.552417671825793 4.2147654400828003 12.331571256590806 1 0 0 I I #
straight-curve $-1 -18.186549287343453 4.2147654400828003 114.90792713786122 -0.62932038083071107 0 0.77714596973225614 I I #
edge $-1 $211 4.2147654400828003 $380 11.927959378358594 $209 $387 forward 7 unknown #
point $-1 70.315866573076562 4.2147654400828003 12.331571256590808 #
point $-1 70.315866573076562 4.2147654400828003 5.6165425068661818 #
edge $-1 $388 1 $388 0 $214 $-1 forward 7 unknown #
vertex $-1 $215 $389 #
ellipse-curve $-1 66.819859144459187 6.418535136733027 8.3447365008977972 0.77714596973225614 0 0.62932038083071107 0.15733009520767777 0 -0.19428649243306403 1 I I #
point $-1 67.754335209399116 6.418535136733027 8.7797703892954448 #
edge $-1 $390 1 $390 0 $218 $-1 forward 7 unknown #
vertex $-1 $219 $391 #
ellipse-curve $-1 66.819859144459187 9.7241896817083671 8.3447365008977972 0.77714596973225614 0 0.62932038083071107 0.15733009520767777 0 -0.19428649243306403 1 I I #
point $-1 67.754335209399116 9.7241896817083671 8.7797703892954448 #
loop $-1 $-1 $229 $222 #
plane-surface $-1 -70.315866573076562 0 0 1 0 0 0 0 -1 forward_v I I I I #
coedge $-1 $392 $393 $226 $325 forward $223 $-1 #
coedge $-1 $226 $225 $330 $394 reversed $87 $-1 #
edge $-1 $327 11.526730481675948 $395 20.512288765890542 $323 $396 forward 7 unknown #
coedge $-1 $232 $227 $393 $397 forward $139 $-1 #
vertex $-1 $397 $398 #
straight-curve $-1 -64.540061130605253 16.29226385601476 12.331571256590808 0 1 0 I I #
coedge $-1 $399 $229 $232 $334 reversed $321 $-1 #
coedge $-1 $229 $399 $324 $394 forward $321 $-1 #
vertex $-1 $230 $400 #
straight-curve $-1 -70.315866573076562 26.335349321790829 47.922284198224986 0 0 1 I I #
straight-curve $-1 -70.315866573076562 26.335349321790829 5.448234190186426 -0.64278759981090561 0 -0.7660444514056185 I I #
edge $-1 $401 -38.833706102268216 $233 -26.335349321790829 $329 $402 forward 7 unknown #
point $-1 -70.315866573076562 26.335349321790829 12.331571256590808 #
point $-1 -64.540061130605267 26.335349321790829 12.331571256590808 #
edge $-1 $403 1 $403 0 $236 $-1 forward 7 unknown #
vertex $-1 $237 $404 #
ellipse-curve $-1 -66.08385005848514 29.906308401927227 7.7620573646518318 -0.7660444514056185 0 0.64278759981090561 0.96418139971635841 0 1.1490666771084277 1 I I #
point $-1 -66.463782452124562 29.906308401927227 10.038969400497047 #
edge $-1 $405 1 $405 0 $240 $-1 forward 7 unknown #
vertex $-1 $241 $406 #
ellipse-curve $-1 -66.08385005848514 35.262747022131812 7.7620573646518318 -0.7660444514056185 0 0.64278759981090561 0.96418139971635841 0 1.1490666771084277 1 I I #
point $-1 -66.463782452124562 35.262747022131812 10.038969400497047 #
plane-surface $-1 70.315866573076562 0 0 -1 0 0 0 0 1 forward_v I I I I #
coedge $-1 $249 $247 $251 $350 reversed $161 $-1 #
edge $-1 $262 -12.331571256590808 $352 12.331571256590808 $261 $407 forward 7 unknown #
vertex $-1 $350 $408 #
straight-curve $-1 -70.315866573076562 -38.833706102268216 0 0 0 -1 I I #
edge $-1 $348 -38.833706102268216 $352 38.833706102268216 $346 $409 forward 7 unknown #
straight-curve $-1 0 -38.833706102268216 -12.331571256590808 -1 0 0 I I #
vertex $-1 $254 $410 #
straight-curve $-1 0 38.833706102268216 -12.331571256590808 1 0 0 I I #
point $-1 70.315866573076562 38.833706102268216 -12.331571256590808 #
point $-1 70.315866573076562 -38.833706102268216 -12.331571256590808 #
straight-curve $-1 -70.315866573076562 0 12.331571256590808 0 -1 0 I I #
point $-1 -70.315866573076562 38.833706102268216 12.331571256590808 #
point $-1 -70.315866573076562 -38.833706102268216 12.331571256590808 #
straight-curve $-1 70.315866573076562 -38.833706102268216 0 0 0 -1 I I #
straight-curve $-1 70.315866573076562 38.833706102268216 0 0 0 -1 I I #
plane-surface $-1 70.315866573076562 0 0 -1 0 0 0 0 1 forward_v I I I I #
coedge $-1 $365 $274 $285 $374 forward $180 $-1 #
coedge $-1 $274 $365 $288 $376 reversed $180 $-1 #
straight-curve $-1 70.315866573076562 -25.717726936191884 3.1901271067784824 0 0 1 I I #
coedge $-1 $363 $362 $277 $366 forward $180 $-1 #
edge $-1 $369 9.5798686765768579 $367 22.69584784265319 $365 $411 forward 7 unknown #
vertex $-1 $279 $412 #
straight-curve $-1 0 -38.833706102268216 3.4367017191746596 1 0 0 I I #
vertex $-1 $366 $413 #
straight-curve $-1 0 -25.717726936191884 3.4367017191746596 1 0 0 I I #
point $-1 70.315866573076562 -38.833706102268216 3.4367017191746596 #
point $-1 70.315866573076562 -25.717726936191884 3.4367017191746596 #
straight-curve $-1 -70.315866573076562 -16.137858259615026 9.3238067079392692 0 1 0 I I #
edge $-1 $286 -6.1336796011607868 $369 -0.24657461239617717 $362 $414 forward 7 unknown #
point $-1 -70.315866573076562 -25.717726936191884 9.3238067079392692 #
edge $-1 $290 -9.3238067079392692 $367 -3.4367017191746596 $363 $415 forward 7 unknown #
point $-1 -70.315866573076562 -38.833706102268216 9.3238067079392692 #
straight-curve $-1 70.315866573076562 -38.833706102268216 0 0 0 -1 I I #
edge $-1 $380 -24.763448901250769 $383 -19.325725983480524 $296 $416 forward 7 unknown #
vertex $-1 $379 $417 #
straight-curve $-1 70.315866573076562 11.927959378358594 101.70517149914062 0 0 1 I I #
edge $-1 $383 -7.8922781737482453 $307 -0.17908423547245178 $306 $418 forward 7 unknown #
vertex $-1 $382 $419 #
straight-curve $-1 -18.186549287343453 11.927959378358594 114.90792713786122 0.62932038083071107 0 -0.77714596973225614 I I #
point $-1 70.315866573076562 11.927959378358594 5.6165425068661818 #
point $-1 64.878143655306317 4.2147654400828003 12.331571256590806 #
straight-curve $-1 70.315866573076562 0 12.331571256590808 0 1 0 I I #
vertex $-1 $313 $420 #
point $-1 66.97718923966687 6.418535136733027 8.150450008464734 #
vertex $-1 $317 $421 #
point $-1 66.97718923966687 9.7241896817083671 8.150450008464734 #
coedge $-1 $393 $323 $399 $422 reversed $223 $-1 #
coedge $-1 $323 $392 $326 $397 reversed $223 $-1 #
edge $-1 $395 -22.54144224625345 $331 -10.04308546577607 $330 $423 forward 7 unknown #
vertex $-1 $325 $424 #
straight-curve $-1 -57.130821710621575 38.833706102268216 21.161559184926674 -0.64278759981090572 0 -0.76604445140561861 I I #
edge $-1 $327 64.540061130605267 $401 70.315866573076562 $393 $425 forward 7 unknown #
point $-1 -64.540061130605267 38.833706102268209 12.331571256590808 #
coedge $-1 $330 $329 $392 $422 forward $321 $-1 #
point $-1 -70.315866573076562 26.335349321790829 5.448234190186426 #
vertex $-1 $397 $426 #
straight-curve $-1 -70.315866573076562 0 12.331571256590808 0 -1 0 I I #
vertex $-1 $337 $427 #
point $-1 -65.119668658768774 29.906308401927227 8.9111240417602602 #
vertex $-1 $341 $428 #
point $-1 -65.119668658768774 35.262747022131812 8.9111240417602602 #
straight-curve $-1 -70.315866573076562 38.833706102268216 0 0 0 -1 I I #
point $-1 -70.315866573076562 -38.833706102268216 -12.331571256590808 #
straight-curve $-1 -70.315866573076562 0 -12.331571256590808 0 1 0 I I #
point $-1 -70.315866573076562 38.833706102268216 -12.331571256590808 #
straight-curve $-1 -70.315866573076562 -16.137858259615026 3.4367017191746596 0 -1 0 I I #
point $-1 -70.315866573076562 -38.833706102268216 3.4367017191746596 #
point $-1 -70.315866573076562 -25.717726936191884 3.4367017191746596 #
straight-curve $-1 -70.315866573076562 -25.717726936191884 3.1901271067784824 0 0 -1 I I #
straight-curve $-1 -70.315866573076562 -38.833706102268216 0 0 0 -1 I I #
straight-curve $-1 45.552417671825793 11.927959378358594 12.331571256590806 -1 0 0 I I #
point $-1 70.315866573076562 11.927959378358594 12.331571256590808 #
straight-curve $-1 64.878143655306317 4.0356812046103485 12.33157125659082 0 -1 0 I I #
point $-1 64.878143655306317 11.927959378358594 12.331571256590806 #
point $-1 66.625572652026122 6.418535136733027 8.1874064056901208 #
point $-1 66.625572652026122 9.7241896817083671 8.1874064056901208 #
edge $-1 $401 -12.331571256590808 $395 -5.448234190186426 $392 $429 forward 7 unknown #
straight-curve $-1 -70.315866573076562 16.29226385601476 5.4482341901864197 0 -1 0 I I #
point $-1 -70.315866573076562 38.833706102268209 5.448234190186426 #
straight-curve $-1 0 38.833706102268216 12.331571256590808 -1 0 0 I I #
point $-1 -70.315866573076562 38.833706102268216 12.331571256590808 #
point $-1 -64.934783381376704 29.906308401927227 6.7978759649354741 #
point $-1 -64.934783381376704 35.262747022131812 6.7978759649354741 #
straight-curve $-1 -70.315866573076562 38.833706102268216 0 0 0 -1 I I #
End-of-ACIS-data 