500 0 21 0           
7 Unknown 11 ACIS 5.0 NT 24 Fri Mar 26 00:06:36 1999 
-1 9.9999999999999995e-007 1e-010 
body $-1 $21 $-1 $22 #
body $-1 $23 $-1 $24 #
body $-1 $25 $-1 $26 #
body $-1 $27 $-1 $28 #
body $-1 $29 $-1 $30 #
body $-1 $31 $-1 $32 #
body $-1 $33 $-1 $34 #
body $-1 $35 $-1 $36 #
body $-1 $37 $-1 $38 #
body $-1 $39 $-1 $40 #
body $-1 $41 $-1 $42 #
body $-1 $43 $-1 $44 #
body $-1 $45 $-1 $46 #
body $-1 $47 $-1 $48 #
body $-1 $49 $-1 $50 #
body $-1 $51 $-1 $52 #
body $-1 $53 $-1 $54 #
body $-1 $55 $-1 $56 #
body $-1 $57 $-1 $58 #
body $-1 $59 $-1 $60 #
body $-1 $61 $-1 $62 #
lump $-1 $-1 $63 $0 #
transform $-1 1 0 0 0 1 0 0 0 1 44.204229865413375 18.163301799430911 8.724781680730695 1 rotate no_reflect no_shear #
lump $-1 $-1 $64 $1 #
transform $-1 1 0 0 0 1 0 0 0 1 44.204229865413375 18.163301799430911 8.724781680730695 1 rotate no_reflect no_shear #
lump $-1 $-1 $65 $2 #
transform $-1 1 0 0 0 1 0 0 0 1 44.204229865413375 18.163301799430911 8.724781680730695 1 rotate no_reflect no_shear #
lump $-1 $-1 $66 $3 #
transform $-1 1 0 0 0 1 0 0 0 1 44.204229865413375 18.163301799430911 8.724781680730695 1 rotate no_reflect no_shear #
lump $-1 $-1 $67 $4 #
transform $-1 1 0 0 0 1 0 0 0 1 44.204229865413375 18.163301799430911 8.724781680730695 1 rotate no_reflect no_shear #
lump $-1 $-1 $68 $5 #
transform $-1 1 0 0 0 1 0 0 0 1 44.204229865413375 18.163301799430911 8.724781680730695 1 rotate no_reflect no_shear #
lump $-1 $-1 $69 $6 #
transform $-1 1 0 0 0 1 0 0 0 1 44.204229865413375 18.163301799430911 8.724781680730695 1 rotate no_reflect no_shear #
lump $-1 $-1 $70 $7 #
transform $-1 1 0 0 0 1 0 0 0 1 44.204229865413375 18.163301799430911 8.724781680730695 1 rotate no_reflect no_shear #
lump $-1 $-1 $71 $8 #
transform $-1 1 0 0 0 1 0 0 0 1 44.204229865413375 18.163301799430911 8.724781680730695 1 rotate no_reflect no_shear #
lump $-1 $-1 $72 $9 #
transform $-1 1 0 0 0 1 0 0 0 1 44.204229865413375 18.163301799430911 8.724781680730695 1 rotate no_reflect no_shear #
lump $-1 $-1 $73 $10 #
transform $-1 1 0 0 0 1 0 0 0 1 44.204229865413375 18.163301799430911 8.724781680730695 1 rotate no_reflect no_shear #
lump $-1 $-1 $74 $11 #
transform $-1 1 0 0 0 1 0 0 0 1 44.204229865413375 18.163301799430911 8.724781680730695 1 rotate no_reflect no_shear #
lump $-1 $-1 $75 $12 #
transform $-1 1 0 0 0 1 0 0 0 1 44.204229865413375 18.163301799430911 8.724781680730695 1 rotate no_reflect no_shear #
lump $-1 $-1 $76 $13 #
transform $-1 1 0 0 0 1 0 0 0 1 44.204229865413375 18.163301799430911 8.724781680730695 1 rotate no_reflect no_shear #
lump $-1 $-1 $77 $14 #
transform $-1 1 0 0 0 1 0 0 0 1 44.204229865413375 18.163301799430911 8.724781680730695 1 rotate no_reflect no_shear #
lump $-1 $-1 $78 $15 #
transform $-1 1 0 0 0 1 0 0 0 1 44.204229865413375 18.163301799430911 8.724781680730695 1 rotate no_reflect no_shear #
lump $-1 $-1 $79 $16 #
transform $-1 1 0 0 0 1 0 0 0 1 44.204229865413375 18.163301799430911 8.724781680730695 1 rotate no_reflect no_shear #
lump $-1 $-1 $80 $17 #
transform $-1 1 0 0 0 1 0 0 0 1 44.204229865413375 18.163301799430911 8.724781680730695 1 rotate no_reflect no_shear #
lump $-1 $-1 $81 $18 #
transform $-1 1 0 0 0 1 0 0 0 1 44.204229865413375 18.163301799430911 8.724781680730695 1 rotate no_reflect no_shear #
lump $-1 $-1 $82 $19 #
transform $-1 1 0 0 0 1 0 0 0 1 44.204229865413375 18.163301799430911 8.724781680730695 1 rotate no_reflect no_shear #
lump $-1 $-1 $83 $20 #
transform $-1 1 0 0 0 1 0 0 0 1 44.204229865413375 18.163301799430911 8.724781680730695 1 rotate no_reflect no_shear #
shell $-1 $-1 $-1 $84 $-1 $21 #
shell $-1 $-1 $-1 $85 $-1 $23 #
shell $-1 $-1 $-1 $86 $-1 $25 #
shell $-1 $-1 $-1 $87 $-1 $27 #
shell $-1 $-1 $-1 $88 $-1 $29 #
shell $-1 $-1 $-1 $89 $-1 $31 #
shell $-1 $-1 $-1 $90 $-1 $33 #
shell $-1 $-1 $-1 $91 $-1 $35 #
shell $-1 $-1 $-1 $92 $-1 $37 #
shell $-1 $-1 $-1 $93 $-1 $39 #
shell $-1 $-1 $-1 $94 $-1 $41 #
shell $-1 $-1 $-1 $95 $-1 $43 #
shell $-1 $-1 $-1 $96 $-1 $45 #
shell $-1 $-1 $-1 $97 $-1 $47 #
shell $-1 $-1 $-1 $98 $-1 $49 #
shell $-1 $-1 $-1 $99 $-1 $51 #
shell $-1 $-1 $-1 $100 $-1 $53 #
shell $-1 $-1 $-1 $101 $-1 $55 #
shell $-1 $-1 $-1 $102 $-1 $57 #
shell $-1 $-1 $-1 $103 $-1 $59 #
shell $-1 $-1 $-1 $104 $-1 $61 #
face $-1 $105 $106 $63 $-1 $107 forward single #
face $-1 $108 $109 $64 $-1 $110 reversed single #
face $-1 $111 $112 $65 $-1 $113 reversed single #
face $-1 $114 $115 $66 $-1 $116 forward single #
face $-1 $117 $118 $67 $-1 $119 forward single #
face $-1 $120 $121 $68 $-1 $122 forward single #
face $-1 $123 $124 $69 $-1 $125 reversed single #
face $-1 $126 $127 $70 $-1 $128 forward single #
face $-1 $129 $130 $71 $-1 $131 forward single #
face $-1 $132 $133 $72 $-1 $134 forward single #
face $-1 $135 $136 $73 $-1 $137 reversed single #
face $-1 $138 $139 $74 $-1 $140 forward single #
face $-1 $141 $142 $75 $-1 $143 forward single #
face $-1 $144 $145 $76 $-1 $146 forward single #
face $-1 $147 $148 $77 $-1 $149 reversed single #
face $-1 $150 $151 $78 $-1 $152 forward single #
face $-1 $153 $154 $79 $-1 $155 forward single #
face $-1 $156 $157 $80 $-1 $158 forward single #
face $-1 $159 $160 $81 $-1 $161 reversed single #
face $-1 $162 $163 $82 $-1 $164 forward single #
face $-1 $165 $166 $83 $-1 $167 forward single #
face $-1 $168 $169 $63 $-1 $170 reversed single #
loop $-1 $-1 $171 $84 #
plane-surface $-1 0 0 8.724781680730695 0 0 1 1 0 0 forward_v I I I I #
face $-1 $172 $173 $64 $-1 $174 reversed single #
loop $-1 $-1 $175 $85 #
plane-surface $-1 -39.455040459291411 -4.7064170872983198 0 0 1 0 0 0 1 forward_v I I I I #
face $-1 $176 $177 $65 $-1 $178 reversed single #
loop $-1 $-1 $179 $86 #
plane-surface $-1 -34.705851053169447 48.748435249244835 92.522362404582367 1 0 0 0 -0.6560590369687036 -0.75470957328743171 forward_v I I I I #
face $-1 $180 $181 $66 $-1 $182 forward single #
loop $-1 $183 $184 $87 #
cone-surface $-1 -32.059556564257008 13.881811676588121 4.8920052216411829 0 -0.6560590369687036 -0.75470957328743171 0.5 0 0 1 I I 0 1 0.5 forward I I I I #
face $-1 $185 $186 $67 $-1 $187 forward single #
loop $-1 $188 $189 $88 #
cone-surface $-1 -28.090114830888346 13.881811676588121 4.8920052216411829 0 -0.6560590369687036 -0.75470957328743171 0.5 0 0 1 I I 0 1 0.5 forward I I I I #
face $-1 $190 $191 $68 $-1 $192 forward single #
loop $-1 $193 $194 $89 #
cone-surface $-1 -24.120673097519688 13.881811676588121 4.8920052216411829 0 -0.6560590369687036 -0.75470957328743171 0.5 0 0 1 I I 0 1 0.5 forward I I I I #
face $-1 $195 $196 $69 $-1 $197 reversed single #
loop $-1 $-1 $198 $90 #
plane-surface $-1 -12.81298156182924 48.748435249244835 92.522362404582367 1 0 0 0 -0.6560590369687036 -0.75470957328743171 forward_v I I I I #
face $-1 $199 $200 $70 $-1 $201 forward single #
loop $-1 $202 $203 $91 #
cone-surface $-1 -10.166687072916794 13.881811676588121 4.8920052216411829 0 -0.6560590369687036 -0.75470957328743171 0.5 0 0 1 I I 0 1 0.5 forward I I I I #
face $-1 $204 $205 $71 $-1 $206 forward single #
loop $-1 $207 $208 $92 #
cone-surface $-1 -6.1972453395481395 13.881811676588121 4.8920052216411829 0 -0.6560590369687036 -0.75470957328743171 0.5 0 0 1 I I 0 1 0.5 forward I I I I #
face $-1 $209 $210 $72 $-1 $211 forward single #
loop $-1 $212 $213 $93 #
cone-surface $-1 -2.227803606179485 13.881811676588121 4.8920052216411829 0 -0.6560590369687036 -0.75470957328743171 0.5 0 0 1 I I 0 1 0.5 forward I I I I #
face $-1 $214 $215 $73 $-1 $216 reversed single #
loop $-1 $-1 $217 $94 #
plane-surface $-1 9.0798879295109671 48.748435249244835 92.522362404582367 1 0 0 0 -0.6560590369687036 -0.75470957328743171 forward_v I I I I #
face $-1 $218 $219 $74 $-1 $220 forward single #
loop $-1 $221 $222 $95 #
cone-surface $-1 11.726182418423413 13.881811676588121 4.8920052216411829 0 -0.6560590369687036 -0.75470957328743171 0.5 0 0 1 I I 0 1 0.5 forward I I I I #
face $-1 $223 $224 $75 $-1 $225 forward single #
loop $-1 $226 $227 $96 #
cone-surface $-1 15.695624151792067 13.881811676588121 4.8920052216411829 0 -0.6560590369687036 -0.75470957328743171 0.5 0 0 1 I I 0 1 0.5 forward I I I I #
face $-1 $228 $229 $76 $-1 $230 forward single #
loop $-1 $231 $232 $97 #
cone-surface $-1 19.665065885160722 13.881811676588121 4.8920052216411829 0 -0.6560590369687036 -0.75470957328743171 0.5 0 0 1 I I 0 1 0.5 forward I I I I #
face $-1 $233 $234 $77 $-1 $235 reversed single #
loop $-1 $-1 $236 $98 #
plane-surface $-1 30.972757420851174 48.748435249244835 92.522362404582367 1 0 0 0 -0.6560590369687036 -0.75470957328743171 forward_v I I I I #
face $-1 $237 $238 $78 $-1 $239 forward single #
loop $-1 $240 $241 $99 #
cone-surface $-1 33.61905190976362 13.881811676588121 4.8920052216411829 0 -0.6560590369687036 -0.75470957328743171 0.5 0 0 1 I I 0 1 0.5 forward I I I I #
face $-1 $242 $243 $79 $-1 $244 forward single #
loop $-1 $245 $246 $100 #
cone-surface $-1 37.588493643132274 13.881811676588121 4.8920052216411829 0 -0.6560590369687036 -0.75470957328743171 0.5 0 0 1 I I 0 1 0.5 forward I I I I #
face $-1 $247 $248 $80 $-1 $249 forward single #
loop $-1 $250 $251 $101 #
cone-surface $-1 41.557935376500929 13.881811676588121 4.8920052216411829 0 -0.6560590369687036 -0.75470957328743171 0.5 0 0 1 I I 0 1 0.5 forward I I I I #
face $-1 $252 $253 $81 $-1 $254 reversed single #
loop $-1 $-1 $255 $102 #
plane-surface $-1 -12.495489446702798 -81.759026298841434 63.787135674087544 -1 0 0 0 -0.71933980857756763 0.69465836192734942 forward_v I I I I #
face $-1 $256 $257 $82 $-1 $258 forward single #
loop $-1 $259 $260 $103 #
cone-surface $-1 -18.436391366066562 -14.366932997828034 4.8444878361782964 0 0.71933980857756763 -0.69465836192734942 1 0 0 1 I I 0 1 1 forward I I I I #
face $-1 $261 $262 $83 $-1 $263 forward single #
loop $-1 $264 $265 $104 #
cone-surface $-1 -14.871850214448301 -14.366932997828034 4.8444878361782964 0 0.71933980857756763 -0.69465836192734942 1 0 0 1 I I 0 1 1 forward I I I I #
face $-1 $266 $267 $63 $-1 $268 reversed single #
loop $-1 $-1 $269 $105 #
plane-surface $-1 0 0 -8.724781680730695 0 0 1 1 0 0 forward_v I I I I #
coedge $-1 $270 $271 $272 $273 forward $106 $-1 #
face $-1 $274 $275 $64 $-1 $276 reversed single #
loop $-1 $-1 $277 $108 #
plane-surface $-1 -39.455040459291411 -0.7137384379695213 0 0 -1 0 0 0 -1 forward_v I I I I #
coedge $-1 $278 $279 $280 $281 reversed $109 $-1 #
face $-1 $282 $283 $65 $-1 $284 reversed single #
loop $-1 $-1 $285 $111 #
plane-surface $-1 -28.090114830888346 -9.2527337016477773 25.799651486131026 0 0.6560590369687036 0.75470957328743171 1 0 0 forward_v I I I I #
coedge $-1 $286 $287 $288 $289 reversed $112 $-1 #
face $-1 $-1 $290 $66 $-1 $291 forward single #
loop $-1 $292 $293 $114 #
cone-surface $-1 -32.059556564257008 13.323129363954795 4.2493147532362077 0 -0.6560590369687036 -0.75470957328743171 0.25 0 0 1 I I -0.70710678118654746 0.70710678118654746 0.25 forward I I I I #
loop $-1 $-1 $294 $87 #
coedge $-1 $184 $184 $295 $296 reversed $115 $-1 #
face $-1 $-1 $297 $67 $-1 $298 forward single #
loop $-1 $299 $300 $117 #
cone-surface $-1 -28.090114830888346 13.323129363954795 4.2493147532362077 0 -0.6560590369687036 -0.75470957328743171 0.25 0 0 1 I I -0.70710678118654746 0.70710678118654746 0.25 forward I I I I #
loop $-1 $-1 $301 $88 #
coedge $-1 $189 $189 $302 $303 reversed $118 $-1 #
face $-1 $-1 $304 $68 $-1 $305 forward single #
loop $-1 $306 $307 $120 #
cone-surface $-1 -24.120673097519688 13.323129363954795 4.2493147532362077 0 -0.6560590369687036 -0.75470957328743171 0.25 0 0 1 I I -0.70710678118654746 0.70710678118654746 0.25 forward I I I I #
loop $-1 $-1 $308 $89 #
coedge $-1 $194 $194 $309 $310 reversed $121 $-1 #
face $-1 $311 $312 $69 $-1 $313 reversed single #
loop $-1 $-1 $314 $123 #
plane-surface $-1 -6.1972453395481395 -9.2527337016477773 25.799651486131026 0 0.6560590369687036 0.75470957328743171 1 0 0 forward_v I I I I #
coedge $-1 $315 $316 $317 $318 reversed $124 $-1 #
face $-1 $-1 $319 $70 $-1 $320 forward single #
loop $-1 $321 $322 $126 #
cone-surface $-1 -10.166687072916794 13.323129363954795 4.2493147532362077 0 -0.6560590369687036 -0.75470957328743171 0.25 0 0 1 I I -0.70710678118654746 0.70710678118654746 0.25 forward I I I I #
loop $-1 $-1 $323 $91 #
coedge $-1 $203 $203 $324 $325 reversed $127 $-1 #
face $-1 $-1 $326 $71 $-1 $327 forward single #
loop $-1 $328 $329 $129 #
cone-surface $-1 -6.1972453395481395 13.323129363954795 4.2493147532362077 0 -0.6560590369687036 -0.75470957328743171 0.25 0 0 1 I I -0.70710678118654746 0.70710678118654746 0.25 forward I I I I #
loop $-1 $-1 $330 $92 #
coedge $-1 $208 $208 $331 $332 reversed $130 $-1 #
face $-1 $-1 $333 $72 $-1 $334 forward single #
loop $-1 $335 $336 $132 #
cone-surface $-1 -2.227803606179485 13.323129363954795 4.2493147532362077 0 -0.6560590369687036 -0.75470957328743171 0.25 0 0 1 I I -0.70710678118654746 0.70710678118654746 0.25 forward I I I I #
loop $-1 $-1 $337 $93 #
coedge $-1 $213 $213 $338 $339 reversed $133 $-1 #
face $-1 $340 $341 $73 $-1 $342 reversed single #
loop $-1 $-1 $343 $135 #
plane-surface $-1 15.695624151792067 -9.2527337016477773 25.799651486131026 0 0.6560590369687036 0.75470957328743171 1 0 0 forward_v I I I I #
coedge $-1 $344 $345 $346 $347 reversed $136 $-1 #
face $-1 $-1 $348 $74 $-1 $349 forward single #
loop $-1 $350 $351 $138 #
cone-surface $-1 11.726182418423413 13.323129363954795 4.2493147532362077 0 -0.6560590369687036 -0.75470957328743171 0.25 0 0 1 I I -0.70710678118654746 0.70710678118654746 0.25 forward I I I I #
loop $-1 $-1 $352 $95 #
coedge $-1 $222 $222 $353 $354 reversed $139 $-1 #
face $-1 $-1 $355 $75 $-1 $356 forward single #
loop $-1 $357 $358 $141 #
cone-surface $-1 15.695624151792067 13.323129363954795 4.2493147532362077 0 -0.6560590369687036 -0.75470957328743171 0.25 0 0 1 I I -0.70710678118654746 0.70710678118654746 0.25 forward I I I I #
loop $-1 $-1 $359 $96 #
coedge $-1 $227 $227 $360 $361 reversed $142 $-1 #
face $-1 $-1 $362 $76 $-1 $363 forward single #
loop $-1 $364 $365 $144 #
cone-surface $-1 19.665065885160722 13.323129363954795 4.2493147532362077 0 -0.6560590369687036 -0.75470957328743171 0.25 0 0 1 I I -0.70710678118654746 0.70710678118654746 0.25 forward I I I I #
loop $-1 $-1 $366 $97 #
coedge $-1 $232 $232 $367 $368 reversed $145 $-1 #
face $-1 $369 $370 $77 $-1 $371 forward single #
loop $-1 $-1 $372 $147 #
plane-surface $-1 37.588493643132274 -9.2527337016477773 25.799651486131026 0 0.6560590369687036 0.75470957328743171 1 0 0 forward_v I I I I #
coedge $-1 $373 $374 $375 $376 reversed $148 $-1 #
face $-1 $-1 $377 $78 $-1 $378 forward single #
loop $-1 $379 $380 $150 #
cone-surface $-1 33.61905190976362 13.323129363954795 4.2493147532362077 0 -0.6560590369687036 -0.75470957328743171 0.25 0 0 1 I I -0.70710678118654746 0.70710678118654746 0.25 forward I I I I #
loop $-1 $-1 $381 $99 #
coedge $-1 $241 $241 $382 $383 reversed $151 $-1 #
face $-1 $-1 $384 $79 $-1 $385 forward single #
loop $-1 $386 $387 $153 #
cone-surface $-1 37.588493643132274 13.323129363954795 4.2493147532362077 0 -0.6560590369687036 -0.75470957328743171 0.25 0 0 1 I I -0.70710678118654746 0.70710678118654746 0.25 forward I I I I #
loop $-1 $-1 $388 $100 #
coedge $-1 $246 $246 $389 $390 reversed $154 $-1 #
face $-1 $-1 $391 $80 $-1 $392 forward single #
loop $-1 $393 $394 $156 #
cone-surface $-1 41.557935376500929 13.323129363954795 4.2493147532362077 0 -0.6560590369687036 -0.75470957328743171 0.25 0 0 1 I I -0.70710678118654746 0.70710678118654746 0.25 forward I I I I #
loop $-1 $-1 $395 $101 #
coedge $-1 $251 $251 $396 $397 reversed $157 $-1 #
face $-1 $398 $399 $81 $-1 $400 reversed single #
loop $-1 $-1 $401 $159 #
plane-surface $-1 -16.654120790257434 -18.163301799430926 2.3734598569513992 0 -0.71933980857756763 0.69465836192734942 1 0 0 forward_v I I I I #
coedge $-1 $402 $403 $404 $405 reversed $160 $-1 #
face $-1 $-1 $406 $82 $-1 $407 forward single #
loop $-1 $408 $409 $162 #
cone-surface $-1 -18.436391366066562 -13.277594314352969 3.7925257225518738 0 0.71933980857756763 -0.69465836192734942 0.5 0 0 1 I I -0.70710678118654746 0.70710678118654746 0.5 forward I I I I #
loop $-1 $-1 $410 $103 #
coedge $-1 $260 $260 $411 $412 reversed $163 $-1 #
face $-1 $-1 $413 $83 $-1 $414 forward single #
loop $-1 $415 $416 $165 #
cone-surface $-1 -14.871850214448301 -13.277594314352969 3.7925257225518738 0 0.71933980857756763 -0.69465836192734942 0.5 0 0 1 I I -0.70710678118654746 0.70710678118654746 0.5 forward I I I I #
loop $-1 $-1 $417 $104 #
coedge $-1 $265 $265 $418 $419 reversed $166 $-1 #
face $-1 $420 $421 $63 $-1 $422 reversed single #
loop $-1 $-1 $423 $168 #
plane-surface $-1 0 -18.163301799430911 0 0 1 0 0 0 1 forward_v I I I I #
coedge $-1 $424 $425 $426 $427 forward $169 $-1 #
coedge $-1 $428 $171 $429 $430 forward $106 $-1 #
coedge $-1 $171 $428 $431 $432 forward $106 $-1 #
coedge $-1 $433 $434 $171 $273 reversed $435 $-1 #
edge $-1 $436 -18.163301799430911 $437 18.163301799430911 $272 $438 forward 7 unknown #
face $-1 $439 $440 $64 $-1 $441 reversed single #
loop $-1 $-1 $442 $172 #
plane-surface $-1 -34.705851053169447 -2.7100777626339205 0 -1 0 0 0 0 1 forward_v I I I I #
coedge $-1 $443 $444 $445 $446 forward $173 $-1 #
coedge $-1 $447 $175 $448 $449 reversed $109 $-1 #
coedge $-1 $175 $447 $450 $451 reversed $109 $-1 #
coedge $-1 $452 $453 $175 $281 forward $454 $-1 #
edge $-1 $455 -8.724781680730695 $456 8.724781680730695 $280 $457 forward 7 unknown #
face $-1 $458 $459 $65 $-1 $460 reversed single #
loop $-1 $-1 $461 $176 #
plane-surface $-1 -21.474378608607246 48.748435249244835 92.522362404582367 -1 0 0 0 0.6560590369687036 0.75470957328743171 forward_v I I I I #
coedge $-1 $462 $463 $464 $465 reversed $177 $-1 #
coedge $-1 $287 $179 $466 $467 reversed $112 $-1 #
coedge $-1 $179 $286 $462 $468 reversed $112 $-1 #
coedge $-1 $464 $469 $179 $289 forward $470 $-1 #
edge $-1 $471 6.2109158251915062 $472 13.984560964094797 $288 $473 forward 7 unknown #
loop $-1 $-1 $295 $180 #
plane-surface $-1 -28.090114830888346 -9.2527337016477773 25.799651486131026 0 0.6560590369687036 0.75470957328743171 1 0 0 forward_v I I I I #
loop $-1 $-1 $474 $114 #
coedge $-1 $293 $293 $294 $475 reversed $181 $-1 #
coedge $-1 $294 $294 $293 $475 forward $183 $-1 #
coedge $-1 $295 $295 $184 $296 forward $290 $-1 #
edge $-1 $476 -1.2793585853377437e-015 $476 6.2831853071795996 $295 $477 forward 7 unknown #
loop $-1 $-1 $302 $185 #
plane-surface $-1 -28.090114830888346 -9.2527337016477773 25.799651486131026 0 0.6560590369687036 0.75470957328743171 1 0 0 forward_v I I I I #
loop $-1 $-1 $478 $117 #
coedge $-1 $300 $300 $301 $479 reversed $186 $-1 #
coedge $-1 $301 $301 $300 $479 forward $188 $-1 #
coedge $-1 $302 $302 $189 $303 forward $297 $-1 #
edge $-1 $480 -1.2793585853377437e-015 $480 6.2831853071795996 $302 $481 forward 7 unknown #
loop $-1 $-1 $309 $190 #
plane-surface $-1 -28.090114830888346 -9.2527337016477773 25.799651486131026 0 0.6560590369687036 0.75470957328743171 1 0 0 forward_v I I I I #
loop $-1 $-1 $482 $120 #
coedge $-1 $307 $307 $308 $483 reversed $191 $-1 #
coedge $-1 $308 $308 $307 $483 forward $193 $-1 #
coedge $-1 $309 $309 $194 $310 forward $304 $-1 #
edge $-1 $484 -1.2793585853377437e-015 $484 6.2831853071795996 $309 $485 forward 7 unknown #
face $-1 $486 $487 $69 $-1 $488 forward single #
loop $-1 $-1 $489 $195 #
plane-surface $-1 0.41849088273295987 48.748435249244835 92.522362404582367 -1 0 0 0 0.6560590369687036 0.75470957328743171 forward_v I I I I #
coedge $-1 $490 $491 $492 $493 reversed $196 $-1 #
coedge $-1 $316 $198 $494 $495 reversed $124 $-1 #
coedge $-1 $198 $315 $490 $496 reversed $124 $-1 #
coedge $-1 $492 $497 $198 $318 forward $487 $-1 #
edge $-1 $498 6.2109158251915062 $499 13.984560964094797 $317 $500 forward 7 unknown #
loop $-1 $-1 $324 $199 #
plane-surface $-1 -6.1972453395481395 -9.2527337016477773 25.799651486131026 0 0.6560590369687036 0.75470957328743171 1 0 0 forward_v I I I I #
loop $-1 $-1 $501 $126 #
coedge $-1 $322 $322 $323 $502 reversed $200 $-1 #
coedge $-1 $323 $323 $322 $502 forward $202 $-1 #
coedge $-1 $324 $324 $203 $325 forward $319 $-1 #
edge $-1 $503 -1.2793585853377437e-015 $503 6.2831853071795996 $324 $504 forward 7 unknown #
loop $-1 $-1 $331 $204 #
plane-surface $-1 -6.1972453395481395 -9.2527337016477773 25.799651486131026 0 0.6560590369687036 0.75470957328743171 1 0 0 forward_v I I I I #
loop $-1 $-1 $505 $129 #
coedge $-1 $329 $329 $330 $506 reversed $205 $-1 #
coedge $-1 $330 $330 $329 $506 forward $207 $-1 #
coedge $-1 $331 $331 $208 $332 forward $326 $-1 #
edge $-1 $507 -1.2793585853377437e-015 $507 6.2831853071795996 $331 $508 forward 7 unknown #
loop $-1 $-1 $338 $209 #
plane-surface $-1 -6.1972453395481395 -9.2527337016477773 25.799651486131026 0 0.6560590369687036 0.75470957328743171 1 0 0 forward_v I I I I #
loop $-1 $-1 $509 $132 #
coedge $-1 $336 $336 $337 $510 reversed $210 $-1 #
coedge $-1 $337 $337 $336 $510 forward $212 $-1 #
coedge $-1 $338 $338 $213 $339 forward $333 $-1 #
edge $-1 $511 -1.2793585853377437e-015 $511 6.2831853071795996 $338 $512 forward 7 unknown #
face $-1 $513 $514 $73 $-1 $515 forward single #
loop $-1 $-1 $516 $214 #
plane-surface $-1 22.311360374073168 48.748435249244835 92.522362404582367 -1 0 0 0 0.6560590369687036 0.75470957328743171 forward_v I I I I #
coedge $-1 $517 $518 $519 $520 reversed $215 $-1 #
coedge $-1 $345 $217 $521 $522 reversed $136 $-1 #
coedge $-1 $217 $344 $517 $523 reversed $136 $-1 #
coedge $-1 $519 $524 $217 $347 forward $514 $-1 #
edge $-1 $525 6.2109158251915062 $526 13.984560964094797 $346 $527 forward 7 unknown #
loop $-1 $-1 $353 $218 #
plane-surface $-1 15.695624151792067 -9.2527337016477773 25.799651486131026 0 0.6560590369687036 0.75470957328743171 1 0 0 forward_v I I I I #
loop $-1 $-1 $528 $138 #
coedge $-1 $351 $351 $352 $529 reversed $219 $-1 #
coedge $-1 $352 $352 $351 $529 forward $221 $-1 #
coedge $-1 $353 $353 $222 $354 forward $348 $-1 #
edge $-1 $530 -1.2793585853377437e-015 $530 6.2831853071795996 $353 $531 forward 7 unknown #
loop $-1 $-1 $360 $223 #
plane-surface $-1 15.695624151792067 -9.2527337016477773 25.799651486131026 0 0.6560590369687036 0.75470957328743171 1 0 0 forward_v I I I I #
loop $-1 $-1 $532 $141 #
coedge $-1 $358 $358 $359 $533 reversed $224 $-1 #
coedge $-1 $359 $359 $358 $533 forward $226 $-1 #
coedge $-1 $360 $360 $227 $361 forward $355 $-1 #
edge $-1 $534 -1.2793585853377437e-015 $534 6.2831853071795996 $360 $535 forward 7 unknown #
loop $-1 $-1 $367 $228 #
plane-surface $-1 15.695624151792067 -9.2527337016477773 25.799651486131026 0 0.6560590369687036 0.75470957328743171 1 0 0 forward_v I I I I #
loop $-1 $-1 $536 $144 #
coedge $-1 $365 $365 $366 $537 reversed $229 $-1 #
coedge $-1 $366 $366 $365 $537 forward $231 $-1 #
coedge $-1 $367 $367 $232 $368 forward $362 $-1 #
edge $-1 $538 -1.2793585853377437e-015 $538 6.2831853071795996 $367 $539 forward 7 unknown #
face $-1 $540 $541 $77 $-1 $542 reversed single #
loop $-1 $-1 $375 $233 #
plane-surface $-1 0 0 8.724781680730695 0 0 1 1 0 0 forward_v I I I I #
coedge $-1 $543 $544 $545 $546 reversed $234 $-1 #
coedge $-1 $374 $236 $547 $548 reversed $148 $-1 #
coedge $-1 $236 $373 $543 $549 reversed $148 $-1 #
coedge $-1 $545 $550 $236 $376 forward $370 $-1 #
edge $-1 $551 6.2109158251915062 $552 13.984560964094797 $375 $553 forward 7 unknown #
loop $-1 $-1 $382 $237 #
plane-surface $-1 37.588493643132274 -9.2527337016477773 25.799651486131026 0 0.6560590369687036 0.75470957328743171 1 0 0 forward_v I I I I #
loop $-1 $-1 $554 $150 #
coedge $-1 $380 $380 $381 $555 reversed $238 $-1 #
coedge $-1 $381 $381 $380 $555 forward $240 $-1 #
coedge $-1 $382 $382 $241 $383 forward $377 $-1 #
edge $-1 $556 -1.2793585853377437e-015 $556 6.2831853071795996 $382 $557 forward 7 unknown #
loop $-1 $-1 $389 $242 #
plane-surface $-1 37.588493643132274 -9.2527337016477773 25.799651486131026 0 0.6560590369687036 0.75470957328743171 1 0 0 forward_v I I I I #
loop $-1 $-1 $558 $153 #
coedge $-1 $387 $387 $388 $559 reversed $243 $-1 #
coedge $-1 $388 $388 $387 $559 forward $245 $-1 #
coedge $-1 $389 $389 $246 $390 forward $384 $-1 #
edge $-1 $560 -1.2793585853377437e-015 $560 6.2831853071795996 $389 $561 forward 7 unknown #
loop $-1 $-1 $396 $247 #
plane-surface $-1 37.588493643132274 -9.2527337016477773 25.799651486131026 0 0.6560590369687036 0.75470957328743171 1 0 0 forward_v I I I I #
loop $-1 $-1 $562 $156 #
coedge $-1 $394 $394 $395 $563 reversed $248 $-1 #
coedge $-1 $395 $395 $394 $563 forward $250 $-1 #
coedge $-1 $396 $396 $251 $397 forward $391 $-1 #
edge $-1 $564 -1.2793585853377437e-015 $564 6.2831853071795996 $396 $565 forward 7 unknown #
face $-1 $566 $567 $81 $-1 $568 reversed single #
loop $-1 $-1 $569 $252 #
plane-surface $-1 -20.812752133812069 -81.759026298841434 63.787135674087544 1 0 0 0 0.71933980857756763 -0.69465836192734942 forward_v I I I I #
coedge $-1 $570 $571 $572 $573 reversed $253 $-1 #
coedge $-1 $403 $255 $574 $575 reversed $160 $-1 #
coedge $-1 $255 $402 $570 $576 reversed $160 $-1 #
coedge $-1 $572 $577 $255 $405 forward $578 $-1 #
edge $-1 $579 22.716211349989806 $580 28.849611394822979 $404 $581 forward 7 unknown #
loop $-1 $-1 $411 $256 #
plane-surface $-1 -16.654120790257434 -18.163301799430926 2.3734598569513992 0 -0.71933980857756763 0.69465836192734942 1 0 0 forward_v I I I I #
loop $-1 $-1 $582 $162 #
coedge $-1 $409 $409 $410 $583 reversed $257 $-1 #
coedge $-1 $410 $410 $409 $583 forward $259 $-1 #
coedge $-1 $411 $411 $260 $412 forward $406 $-1 #
edge $-1 $584 -8.1427432066344457e-016 $584 6.2831853071795996 $411 $585 forward 7 unknown #
loop $-1 $-1 $418 $261 #
plane-surface $-1 -16.654120790257434 -18.163301799430926 2.3734598569513992 0 -0.71933980857756763 0.69465836192734942 1 0 0 forward_v I I I I #
loop $-1 $-1 $586 $165 #
coedge $-1 $416 $416 $417 $587 reversed $262 $-1 #
coedge $-1 $417 $417 $416 $587 forward $264 $-1 #
coedge $-1 $418 $418 $265 $419 forward $413 $-1 #
edge $-1 $588 -8.1427432066344457e-016 $588 6.2831853071795996 $418 $589 forward 7 unknown #
face $-1 $590 $591 $63 $-1 $592 reversed single #
loop $-1 $-1 $593 $266 #
plane-surface $-1 -44.204229865413375 0 0 1 0 0 0 0 -1 forward_v I I I I #
coedge $-1 $594 $431 $595 $596 forward $267 $-1 #
coedge $-1 $597 $269 $594 $598 forward $169 $-1 #
coedge $-1 $269 $597 $599 $600 forward $169 $-1 #
coedge $-1 $434 $433 $269 $427 reversed $435 $-1 #
edge $-1 $601 -18.163301799430911 $602 18.163301799430911 $426 $603 forward 7 unknown #
coedge $-1 $271 $270 $604 $605 forward $106 $-1 #
coedge $-1 $606 $607 $270 $430 reversed $591 $-1 #
edge $-1 $437 -44.204229865413375 $608 44.204229865413375 $429 $609 forward 7 unknown #
coedge $-1 $423 $610 $271 $432 reversed $267 $-1 #
edge $-1 $611 -44.204229865413375 $436 44.204229865413375 $431 $612 forward 7 unknown #
coedge $-1 $426 $272 $610 $613 forward $435 $-1 #
coedge $-1 $272 $426 $606 $614 reversed $435 $-1 #
loop $-1 $-1 $433 $590 #
vertex $-1 $273 $615 #
vertex $-1 $273 $616 #
straight-curve $-1 44.204229865413375 0 8.724781680730695 0 1 0 I I #
face $-1 $617 $618 $64 $-1 $619 forward single #
loop $-1 $-1 $620 $274 #
plane-surface $-1 0 0 -8.724781680730695 0 0 1 1 0 0 forward_v I I I I #
coedge $-1 $621 $622 $447 $623 forward $275 $-1 #
coedge $-1 $624 $277 $620 $625 reversed $173 $-1 #
coedge $-1 $277 $624 $626 $627 reversed $173 $-1 #
coedge $-1 $622 $621 $277 $446 reversed $275 $-1 #
edge $-1 $628 -8.724781680730695 $629 8.724781680730695 $445 $630 forward 7 unknown #
coedge $-1 $279 $278 $442 $623 reversed $109 $-1 #
coedge $-1 $631 $632 $278 $449 forward $440 $-1 #
edge $-1 $633 14.978330823523741 $455 24.476709635767669 $448 $634 forward 7 unknown #
coedge $-1 $635 $636 $279 $451 forward $618 $-1 #
edge $-1 $456 -24.476709635767669 $637 -14.978330823523741 $450 $638 forward 7 unknown #
coedge $-1 $639 $280 $636 $640 reversed $454 $-1 #
coedge $-1 $280 $639 $631 $641 reversed $454 $-1 #
loop $-1 $-1 $639 $617 #
vertex $-1 $641 $642 #
vertex $-1 $281 $643 #
straight-curve $-1 -44.204229865413375 -4.7064170872983198 0 0 0 1 I I #
face $-1 $-1 $470 $65 $-1 $644 forward single #
loop $-1 $-1 $645 $282 #
plane-surface $-1 0 18.163301799430911 0 0 -1 0 0 0 -1 forward_v I I I I #
coedge $-1 $646 $647 $648 $649 reversed $283 $-1 #
coedge $-1 $650 $285 $287 $468 forward $177 $-1 #
coedge $-1 $285 $650 $646 $651 forward $177 $-1 #
coedge $-1 $648 $288 $285 $465 forward $470 $-1 #
edge $-1 $472 -20.660793637725273 $652 -7.4293211931630729 $464 $653 forward 7 unknown #
coedge $-1 $654 $655 $286 $467 forward $459 $-1 #
edge $-1 $656 -44.293926289573292 $471 -37.53639952156049 $466 $657 forward 7 unknown #
edge $-1 $472 26.026422689479496 $656 36.326603598861823 $287 $658 forward 7 unknown #
coedge $-1 $288 $648 $654 $659 forward $470 $-1 #
loop $-1 $-1 $648 $458 #
vertex $-1 $467 $660 #
vertex $-1 $289 $661 #
straight-curve $-1 -34.705851053169447 24.374217624622418 8.7247816807306933 0 -1 0 I I #
coedge $-1 $474 $474 $-1 $662 reversed $292 $-1 #
edge $-1 $663 0 $663 6.2831853071796004 $293 $664 forward 7 unknown #
vertex $-1 $296 $665 #
ellipse-curve $-1 -32.059556564257008 14.276479229979266 5.346018296724294 0 0.6560590369687036 0.75470957328743171 0.5 0 0 1 I I #
coedge $-1 $478 $478 $-1 $666 reversed $299 $-1 #
edge $-1 $667 0 $667 6.2831853071796004 $300 $668 forward 7 unknown #
vertex $-1 $303 $669 #
ellipse-curve $-1 -28.090114830888346 14.276479229979266 5.346018296724294 0 0.6560590369687036 0.75470957328743171 0.5 0 0 1 I I #
coedge $-1 $482 $482 $-1 $670 reversed $306 $-1 #
edge $-1 $671 0 $671 6.2831853071796004 $307 $672 forward 7 unknown #
vertex $-1 $310 $673 #
ellipse-curve $-1 -24.120673097519688 14.276479229979266 5.346018296724294 0 0.6560590369687036 0.75470957328743171 0.5 0 0 1 I I #
face $-1 $-1 $674 $69 $-1 $675 reversed single #
loop $-1 $-1 $317 $311 #
plane-surface $-1 0 0 8.724781680730695 0 0 1 1 0 0 forward_v I I I I #
coedge $-1 $676 $677 $678 $679 reversed $312 $-1 #
coedge $-1 $680 $314 $316 $496 forward $196 $-1 #
coedge $-1 $314 $680 $676 $681 forward $196 $-1 #
coedge $-1 $678 $317 $314 $493 forward $487 $-1 #
edge $-1 $499 -9.71435889205517 $682 3.5171135525070296 $492 $683 forward 7 unknown #
coedge $-1 $684 $685 $315 $495 forward $674 $-1 #
edge $-1 $686 -44.293926289573292 $498 -37.53639952156049 $494 $687 forward 7 unknown #
edge $-1 $499 26.026422689479496 $686 36.326603598861823 $316 $688 forward 7 unknown #
coedge $-1 $317 $678 $684 $689 forward $487 $-1 #
vertex $-1 $495 $690 #
vertex $-1 $318 $691 #
straight-curve $-1 -12.81298156182924 24.374217624622418 8.7247816807306933 0 -1 0 I I #
coedge $-1 $501 $501 $-1 $692 reversed $321 $-1 #
edge $-1 $693 0 $693 6.2831853071796004 $322 $694 forward 7 unknown #
vertex $-1 $325 $695 #
ellipse-curve $-1 -10.166687072916794 14.276479229979266 5.346018296724294 0 0.6560590369687036 0.75470957328743171 0.5 0 0 1 I I #
coedge $-1 $505 $505 $-1 $696 reversed $328 $-1 #
edge $-1 $697 0 $697 6.2831853071796004 $329 $698 forward 7 unknown #
vertex $-1 $332 $699 #
ellipse-curve $-1 -6.1972453395481395 14.276479229979266 5.346018296724294 0 0.6560590369687036 0.75470957328743171 0.5 0 0 1 I I #
coedge $-1 $509 $509 $-1 $700 reversed $335 $-1 #
edge $-1 $701 0 $701 6.2831853071796004 $336 $702 forward 7 unknown #
vertex $-1 $339 $703 #
ellipse-curve $-1 -2.227803606179485 14.276479229979266 5.346018296724294 0 0.6560590369687036 0.75470957328743171 0.5 0 0 1 I I #
face $-1 $-1 $704 $73 $-1 $705 reversed single #
loop $-1 $-1 $346 $340 #
plane-surface $-1 0 0 8.724781680730695 0 0 1 1 0 0 forward_v I I I I #
coedge $-1 $706 $707 $708 $709 reversed $341 $-1 #
coedge $-1 $710 $343 $345 $523 forward $215 $-1 #
coedge $-1 $343 $710 $706 $711 forward $215 $-1 #
coedge $-1 $708 $346 $343 $520 forward $514 $-1 #
edge $-1 $526 1.2320758536149334 $712 14.463548298177134 $519 $713 forward 7 unknown #
coedge $-1 $714 $715 $344 $522 forward $704 $-1 #
edge $-1 $716 -44.293926289573292 $525 -37.53639952156049 $521 $717 forward 7 unknown #
edge $-1 $526 26.026422689479496 $716 36.326603598861823 $345 $718 forward 7 unknown #
coedge $-1 $346 $708 $714 $719 forward $514 $-1 #
vertex $-1 $347 $720 #
vertex $-1 $347 $721 #
straight-curve $-1 9.0798879295109671 24.374217624622418 8.7247816807306933 0 -1 0 I I #
coedge $-1 $528 $528 $-1 $722 reversed $350 $-1 #
edge $-1 $723 0 $723 6.2831853071796004 $351 $724 forward 7 unknown #
vertex $-1 $354 $725 #
ellipse-curve $-1 11.726182418423413 14.276479229979266 5.346018296724294 0 0.6560590369687036 0.75470957328743171 0.5 0 0 1 I I #
coedge $-1 $532 $532 $-1 $726 reversed $357 $-1 #
edge $-1 $727 0 $727 6.2831853071796004 $358 $728 forward 7 unknown #
vertex $-1 $361 $729 #
ellipse-curve $-1 15.695624151792067 14.276479229979266 5.346018296724294 0 0.6560590369687036 0.75470957328743171 0.5 0 0 1 I I #
coedge $-1 $536 $536 $-1 $730 reversed $364 $-1 #
edge $-1 $731 0 $731 6.2831853071796004 $365 $732 forward 7 unknown #
vertex $-1 $368 $733 #
ellipse-curve $-1 19.665065885160722 14.276479229979266 5.346018296724294 0 0.6560590369687036 0.75470957328743171 0.5 0 0 1 I I #
face $-1 $-1 $734 $77 $-1 $735 reversed single #
loop $-1 $-1 $736 $369 #
plane-surface $-1 44.204229865413375 0 0 -1 0 0 0 0 1 forward_v I I I I #
coedge $-1 $737 $372 $374 $549 forward $234 $-1 #
coedge $-1 $372 $737 $736 $738 reversed $234 $-1 #
coedge $-1 $739 $375 $372 $546 forward $370 $-1 #
edge $-1 $552 12.178510599285037 $740 25.409983043847237 $545 $741 forward 7 unknown #
coedge $-1 $742 $743 $373 $548 forward $734 $-1 #
edge $-1 $744 -44.293926289573292 $551 -37.53639952156049 $547 $745 forward 7 unknown #
edge $-1 $552 26.026422689479496 $744 36.326603598861823 $374 $746 forward 7 unknown #
coedge $-1 $375 $739 $742 $747 forward $370 $-1 #
vertex $-1 $548 $748 #
vertex $-1 $376 $749 #
straight-curve $-1 30.972757420851174 24.374217624622418 8.7247816807306933 0 -1 0 I I #
coedge $-1 $554 $554 $-1 $750 reversed $379 $-1 #
edge $-1 $751 0 $751 6.2831853071796004 $380 $752 forward 7 unknown #
vertex $-1 $383 $753 #
ellipse-curve $-1 33.61905190976362 14.276479229979266 5.346018296724294 0 0.6560590369687036 0.75470957328743171 0.5 0 0 1 I I #
coedge $-1 $558 $558 $-1 $754 reversed $386 $-1 #
edge $-1 $755 0 $755 6.2831853071796004 $387 $756 forward 7 unknown #
vertex $-1 $390 $757 #
ellipse-curve $-1 37.588493643132274 14.276479229979266 5.346018296724294 0 0.6560590369687036 0.75470957328743171 0.5 0 0 1 I I #
coedge $-1 $562 $562 $-1 $758 reversed $393 $-1 #
edge $-1 $759 0 $759 6.2831853071796004 $394 $760 forward 7 unknown #
vertex $-1 $397 $761 #
ellipse-curve $-1 41.557935376500929 14.276479229979266 5.346018296724294 0 0.6560590369687036 0.75470957328743171 0.5 0 0 1 I I #
face $-1 $-1 $578 $81 $-1 $762 forward single #
loop $-1 $-1 $763 $398 #
plane-surface $-1 0 -18.163301799430911 0 0 1 0 0 0 1 forward_v I I I I #
coedge $-1 $764 $765 $766 $767 reversed $399 $-1 #
coedge $-1 $768 $401 $403 $576 forward $253 $-1 #
coedge $-1 $401 $768 $764 $769 forward $253 $-1 #
coedge $-1 $766 $404 $401 $573 forward $578 $-1 #
edge $-1 $580 4.1684290515740816 $770 12.485691738683352 $572 $771 forward 7 unknown #
coedge $-1 $772 $773 $402 $575 forward $567 $-1 #
edge $-1 $774 -29.520107980092359 $579 -23.168786156313075 $574 $775 forward 7 unknown #
edge $-1 $580 -8.8293762531208806 $774 -2.0413573615811715e-014 $403 $776 forward 7 unknown #
coedge $-1 $404 $766 $772 $777 forward $578 $-1 #
loop $-1 $-1 $766 $566 #
vertex $-1 $575 $778 #
vertex $-1 $405 $779 #
straight-curve $-1 -12.495489446702798 -40.879513149420717 8.7247816807306933 0 1 0 I I #
coedge $-1 $582 $582 $-1 $780 reversed $408 $-1 #
edge $-1 $781 0 $781 6.2831853071796004 $409 $782 forward 7 unknown #
vertex $-1 $412 $783 #
ellipse-curve $-1 -18.436391366066562 -15.096601777014325 5.5491207688410533 0 -0.71933980857756763 0.69465836192734942 1 0 0 1 I I #
coedge $-1 $586 $586 $-1 $784 reversed $415 $-1 #
edge $-1 $785 0 $785 6.2831853071796004 $416 $786 forward 7 unknown #
vertex $-1 $419 $787 #
ellipse-curve $-1 -14.871850214448301 -15.096601777014325 5.5491207688410533 0 -0.71933980857756763 0.69465836192734942 1 0 0 1 I I #
face $-1 $-1 $435 $63 $-1 $788 reversed single #
loop $-1 $-1 $606 $420 #
plane-surface $-1 0 18.163301799430911 0 0 -1 0 0 0 -1 forward_v I I I I #
coedge $-1 $789 $604 $607 $790 forward $421 $-1 #
coedge $-1 $610 $423 $424 $598 reversed $267 $-1 #
coedge $-1 $604 $789 $423 $596 reversed $421 $-1 #
edge $-1 $611 -8.724781680730695 $791 8.724781680730695 $595 $792 forward 7 unknown #
coedge $-1 $425 $424 $789 $793 forward $169 $-1 #
edge $-1 $602 -44.204229865413375 $791 44.204229865413375 $594 $794 forward 7 unknown #
coedge $-1 $607 $606 $425 $600 reversed $591 $-1 #
edge $-1 $795 -44.204229865413375 $601 44.204229865413375 $599 $796 forward 7 unknown #
vertex $-1 $427 $797 #
vertex $-1 $613 $798 #
straight-curve $-1 44.204229865413375 0 -8.724781680730695 0 -1 0 I I #
coedge $-1 $593 $595 $428 $605 reversed $421 $-1 #
edge $-1 $608 -18.163301799430911 $611 18.163301799430911 $604 $799 forward 7 unknown #
coedge $-1 $599 $429 $434 $614 forward $591 $-1 #
coedge $-1 $429 $599 $593 $790 reversed $591 $-1 #
vertex $-1 $430 $800 #
straight-curve $-1 0 18.163301799430911 8.724781680730695 -1 0 0 I I #
coedge $-1 $431 $594 $433 $613 reversed $267 $-1 #
vertex $-1 $605 $801 #
straight-curve $-1 0 -18.163301799430911 8.724781680730695 1 0 0 I I #
edge $-1 $436 -8.724781680730695 $602 8.724781680730695 $433 $802 forward 7 unknown #
edge $-1 $437 -8.724781680730695 $601 8.724781680730695 $434 $803 forward 7 unknown #
point $-1 44.204229865413375 -18.163301799430911 8.724781680730695 #
point $-1 44.204229865413375 18.163301799430911 8.724781680730695 #
face $-1 $-1 $454 $64 $-1 $804 reversed single #
loop $-1 $-1 $626 $439 #
plane-surface $-1 0 0 8.724781680730695 0 0 1 1 0 0 forward_v I I I I #
coedge $-1 $632 $631 $443 $625 forward $440 $-1 #
coedge $-1 $445 $442 $632 $805 reversed $275 $-1 #
coedge $-1 $442 $445 $635 $806 reversed $275 $-1 #
edge $-1 $637 -8.724781680730695 $633 8.724781680730695 $442 $807 forward 7 unknown #
coedge $-1 $444 $443 $639 $808 reversed $173 $-1 #
edge $-1 $809 -24.476709635767669 $629 -14.978330823523741 $620 $810 forward 7 unknown #
coedge $-1 $636 $635 $444 $627 forward $618 $-1 #
edge $-1 $628 14.978330823523741 $811 24.476709635767669 $626 $812 forward 7 unknown #
vertex $-1 $627 $813 #
vertex $-1 $625 $814 #
straight-curve $-1 -34.705851053169447 -0.7137384379695213 0 0 0 -1 I I #
coedge $-1 $620 $448 $453 $641 forward $440 $-1 #
coedge $-1 $448 $620 $621 $805 forward $440 $-1 #
vertex $-1 $449 $815 #
straight-curve $-1 -19.727520229645705 -4.7064170872983198 -8.724781680730695 -1 0 0 I I #
coedge $-1 $626 $450 $622 $806 forward $618 $-1 #
coedge $-1 $450 $626 $452 $640 forward $618 $-1 #
vertex $-1 $451 $816 #
straight-curve $-1 -19.727520229645705 -4.7064170872983198 8.724781680730695 1 0 0 I I #
coedge $-1 $453 $452 $624 $808 forward $454 $-1 #
edge $-1 $811 0.7137384379695213 $456 4.7064170872983198 $452 $817 forward 7 unknown #
edge $-1 $455 -4.7064170872983198 $809 -0.7137384379695213 $453 $818 forward 7 unknown #
point $-1 -44.204229865413375 -4.7064170872983198 -8.724781680730695 #
point $-1 -44.204229865413375 -4.7064170872983198 8.724781680730695 #
plane-surface $-1 0 0 8.724781680730695 0 0 1 1 0 0 forward_v I I I I #
coedge $-1 $655 $654 $647 $819 forward $459 $-1 #
coedge $-1 $647 $461 $463 $651 reversed $283 $-1 #
coedge $-1 $461 $646 $645 $819 reversed $283 $-1 #
coedge $-1 $469 $464 $461 $649 forward $470 $-1 #
edge $-1 $652 -13.984560964094797 $820 -6.2109158251915062 $648 $821 forward 7 unknown #
coedge $-1 $463 $462 $655 $822 reversed $177 $-1 #
edge $-1 $823 -36.326603598861823 $652 -26.026422689479496 $646 $824 forward 7 unknown #
vertex $-1 $465 $825 #
straight-curve $-1 -14.045057415444173 10.389656660527619 8.7247816807306986 1 0 0 I I #
coedge $-1 $645 $466 $469 $659 reversed $459 $-1 #
coedge $-1 $466 $645 $650 $822 forward $459 $-1 #
vertex $-1 $467 $826 #
straight-curve $-1 -34.705851053169447 18.163301799430911 46.261181202291183 0 0 1 I I #
straight-curve $-1 -34.705851053169447 -9.2527337016477773 25.799651486131026 0 0.75470957328743171 -0.6560590369687036 I I #
edge $-1 $820 21.474378608607246 $471 34.705851053169447 $654 $827 forward 7 unknown #
point $-1 -34.705851053169447 18.163301799430911 8.724781680730695 #
point $-1 -34.705851053169447 10.389656660527621 8.7247816807306933 #
edge $-1 $828 1 $828 0 $474 $-1 forward 7 unknown #
vertex $-1 $475 $829 #
ellipse-curve $-1 -32.059556564257008 13.487144123196972 4.4379921465580656 0 0.6560590369687036 0.75470957328743171 0.5 0 0 1 I I #
point $-1 -31.559556564257008 14.276479229979271 5.3460182967243011 #
edge $-1 $830 1 $830 0 $478 $-1 forward 7 unknown #
vertex $-1 $479 $831 #
ellipse-curve $-1 -28.090114830888346 13.487144123196972 4.4379921465580656 0 0.6560590369687036 0.75470957328743171 0.5 0 0 1 I I #
point $-1 -27.590114830888346 14.276479229979271 5.3460182967243011 #
edge $-1 $832 1 $832 0 $482 $-1 forward 7 unknown #
vertex $-1 $483 $833 #
ellipse-curve $-1 -24.120673097519688 13.487144123196972 4.4379921465580656 0 0.6560590369687036 0.75470957328743171 0.5 0 0 1 I I #
point $-1 -23.620673097519688 14.276479229979271 5.3460182967243011 #
loop $-1 $-1 $494 $486 #
plane-surface $-1 0 18.163301799430911 0 0 -1 0 0 0 -1 forward_v I I I I #
coedge $-1 $677 $489 $491 $681 reversed $312 $-1 #
coedge $-1 $489 $676 $834 $835 reversed $312 $-1 #
coedge $-1 $497 $492 $489 $679 forward $487 $-1 #
edge $-1 $682 -13.984560964094797 $836 -6.2109158251915062 $678 $837 forward 7 unknown #
coedge $-1 $491 $490 $685 $838 reversed $196 $-1 #
edge $-1 $839 -36.326603598861823 $682 -26.026422689479496 $676 $840 forward 7 unknown #
vertex $-1 $493 $841 #
straight-curve $-1 -3.0986226697740697 10.389656660527619 8.7247816807306986 1 0 0 I I #
coedge $-1 $834 $494 $497 $689 reversed $674 $-1 #
coedge $-1 $494 $834 $680 $838 forward $674 $-1 #
vertex $-1 $495 $842 #
straight-curve $-1 -12.81298156182924 18.163301799430911 46.261181202291183 0 0 1 I I #
straight-curve $-1 -12.81298156182924 -9.2527337016477773 25.799651486131026 0 0.75470957328743171 -0.6560590369687036 I I #
edge $-1 $836 -0.41849088273295987 $498 12.81298156182924 $684 $843 forward 7 unknown #
point $-1 -12.81298156182924 18.163301799430911 8.724781680730695 #
point $-1 -12.81298156182924 10.389656660527621 8.7247816807306933 #
edge $-1 $844 1 $844 0 $501 $-1 forward 7 unknown #
vertex $-1 $502 $845 #
ellipse-curve $-1 -10.166687072916794 13.487144123196972 4.4379921465580656 0 0.6560590369687036 0.75470957328743171 0.5 0 0 1 I I #
point $-1 -9.666687072916794 14.276479229979271 5.3460182967243011 #
edge $-1 $846 1 $846 0 $505 $-1 forward 7 unknown #
vertex $-1 $506 $847 #
ellipse-curve $-1 -6.1972453395481395 13.487144123196972 4.4379921465580656 0 0.6560590369687036 0.75470957328743171 0.5 0 0 1 I I #
point $-1 -5.6972453395481395 14.276479229979271 5.3460182967243011 #
edge $-1 $848 1 $848 0 $509 $-1 forward 7 unknown #
vertex $-1 $510 $849 #
ellipse-curve $-1 -2.227803606179485 13.487144123196972 4.4379921465580656 0 0.6560590369687036 0.75470957328743171 0.5 0 0 1 I I #
point $-1 -1.727803606179485 14.276479229979271 5.3460182967243011 #
loop $-1 $-1 $521 $513 #
plane-surface $-1 0 18.163301799430911 0 0 -1 0 0 0 -1 forward_v I I I I #
coedge $-1 $707 $516 $518 $711 reversed $341 $-1 #
coedge $-1 $516 $706 $850 $851 reversed $341 $-1 #
coedge $-1 $524 $519 $516 $709 forward $514 $-1 #
edge $-1 $712 -13.984560964094797 $852 -6.2109158251915062 $708 $853 forward 7 unknown #
coedge $-1 $518 $517 $715 $854 reversed $215 $-1 #
edge $-1 $855 -36.326603598861823 $712 -26.026422689479496 $706 $856 forward 7 unknown #
vertex $-1 $520 $857 #
straight-curve $-1 7.8478120758960337 10.389656660527619 8.7247816807306986 1 0 0 I I #
coedge $-1 $850 $521 $524 $719 reversed $704 $-1 #
coedge $-1 $521 $850 $710 $854 forward $704 $-1 #
vertex $-1 $522 $858 #
straight-curve $-1 9.0798879295109671 18.163301799430911 46.261181202291183 0 0 1 I I #
straight-curve $-1 9.0798879295109671 -9.2527337016477773 25.799651486131026 0 0.75470957328743171 -0.6560590369687036 I I #
edge $-1 $852 -22.311360374073168 $525 -9.0798879295109671 $714 $859 forward 7 unknown #
point $-1 9.0798879295109671 18.163301799430911 8.724781680730695 #
point $-1 9.0798879295109671 10.389656660527621 8.7247816807306933 #
edge $-1 $860 1 $860 0 $528 $-1 forward 7 unknown #
vertex $-1 $529 $861 #
ellipse-curve $-1 11.726182418423413 13.487144123196972 4.4379921465580656 0 0.6560590369687036 0.75470957328743171 0.5 0 0 1 I I #
point $-1 12.226182418423413 14.276479229979271 5.3460182967243011 #
edge $-1 $862 1 $862 0 $532 $-1 forward 7 unknown #
vertex $-1 $533 $863 #
ellipse-curve $-1 15.695624151792067 13.487144123196972 4.4379921465580656 0 0.6560590369687036 0.75470957328743171 0.5 0 0 1 I I #
point $-1 16.195624151792067 14.276479229979271 5.3460182967243011 #
edge $-1 $864 1 $864 0 $536 $-1 forward 7 unknown #
vertex $-1 $537 $865 #
ellipse-curve $-1 19.665065885160722 13.487144123196972 4.4379921465580656 0 0.6560590369687036 0.75470957328743171 0.5 0 0 1 I I #
point $-1 20.165065885160722 14.276479229979271 5.3460182967243011 #
loop $-1 $-1 $547 $540 #
plane-surface $-1 0 18.163301799430911 0 0 -1 0 0 0 -1 forward_v I I I I #
coedge $-1 $866 $867 $544 $738 forward $541 $-1 #
coedge $-1 $544 $543 $743 $868 reversed $234 $-1 #
edge $-1 $740 14.071812083563424 $869 24.371992992945756 $736 $870 forward 7 unknown #
coedge $-1 $550 $545 $867 $871 forward $370 $-1 #
vertex $-1 $871 $872 #
straight-curve $-1 18.794246821566137 10.389656660527619 8.7247816807306986 1 0 0 I I #
coedge $-1 $873 $547 $550 $747 reversed $734 $-1 #
coedge $-1 $547 $873 $737 $868 forward $734 $-1 #
vertex $-1 $548 $874 #
straight-curve $-1 30.972757420851174 18.163301799430911 46.261181202291183 0 0 1 I I #
straight-curve $-1 30.972757420851174 -9.2527337016477773 25.799651486131026 0 0.75470957328743171 -0.6560590369687036 I I #
edge $-1 $875 -44.204229865413375 $551 -30.972757420851174 $742 $876 forward 7 unknown #
point $-1 30.972757420851174 18.163301799430911 8.724781680730695 #
point $-1 30.972757420851174 10.389656660527621 8.7247816807306933 #
edge $-1 $877 1 $877 0 $554 $-1 forward 7 unknown #
vertex $-1 $555 $878 #
ellipse-curve $-1 33.61905190976362 13.487144123196972 4.4379921465580656 0 0.6560590369687036 0.75470957328743171 0.5 0 0 1 I I #
point $-1 34.11905190976362 14.276479229979271 5.3460182967243011 #
edge $-1 $879 1 $879 0 $558 $-1 forward 7 unknown #
vertex $-1 $559 $880 #
ellipse-curve $-1 37.588493643132274 13.487144123196972 4.4379921465580656 0 0.6560590369687036 0.75470957328743171 0.5 0 0 1 I I #
point $-1 38.088493643132274 14.276479229979271 5.3460182967243011 #
edge $-1 $881 1 $881 0 $562 $-1 forward 7 unknown #
vertex $-1 $563 $882 #
ellipse-curve $-1 41.557935376500929 13.487144123196972 4.4379921465580656 0 0.6560590369687036 0.75470957328743171 0.5 0 0 1 I I #
point $-1 42.057935376500929 14.276479229979271 5.3460182967243011 #
plane-surface $-1 0 0 8.724781680730695 0 0 1 1 0 0 forward_v I I I I #
coedge $-1 $773 $772 $765 $883 forward $567 $-1 #
coedge $-1 $765 $569 $571 $769 reversed $399 $-1 #
coedge $-1 $569 $764 $763 $883 reversed $399 $-1 #
coedge $-1 $577 $572 $569 $767 forward $578 $-1 #
edge $-1 $770 -28.849611394822979 $884 -22.716211349989806 $766 $885 forward 7 unknown #
coedge $-1 $571 $570 $773 $886 reversed $253 $-1 #
edge $-1 $887 2.0413573615811715e-014 $770 8.8293762531208806 $764 $888 forward 7 unknown #
vertex $-1 $573 $889 #
straight-curve $-1 -8.3270603951287168 -12.029901754597736 8.724781680730695 -1 0 0 I I #
coedge $-1 $763 $574 $577 $777 reversed $567 $-1 #
coedge $-1 $574 $763 $768 $886 forward $567 $-1 #
vertex $-1 $575 $890 #
straight-curve $-1 -12.495489446702798 -18.163301799430911 31.893567837043772 0 0 1 I I #
straight-curve $-1 -12.495489446702798 -18.163301799430926 2.3734598569513992 0 -0.69465836192734942 -0.71933980857756763 I I #
edge $-1 $884 -20.812752133812069 $579 -12.495489446702798 $772 $891 forward 7 unknown #
point $-1 -12.495489446702798 -18.163301799430911 8.724781680730695 #
point $-1 -12.495489446702798 -12.029901754597738 8.724781680730695 #
edge $-1 $892 1 $892 0 $582 $-1 forward 7 unknown #
vertex $-1 $583 $893 #
ellipse-curve $-1 -18.436391366066562 -13.637264218641754 4.1398549035155483 0 -0.71933980857756763 0.69465836192734942 1 0 0 1 I I #
point $-1 -17.436391366066562 -15.096601777014317 5.5491207688410453 #
edge $-1 $894 1 $894 0 $586 $-1 forward 7 unknown #
vertex $-1 $587 $895 #
ellipse-curve $-1 -14.871850214448301 -13.637264218641754 4.1398549035155483 0 -0.71933980857756763 0.69465836192734942 1 0 0 1 I I #
point $-1 -13.871850214448301 -15.096601777014317 5.5491207688410453 #
plane-surface $-1 44.204229865413375 0 0 -1 0 0 0 0 1 forward_v I I I I #
coedge $-1 $595 $593 $597 $793 reversed $421 $-1 #
edge $-1 $608 -8.724781680730695 $795 8.724781680730695 $607 $896 forward 7 unknown #
vertex $-1 $793 $897 #
straight-curve $-1 -44.204229865413375 -18.163301799430911 0 0 0 -1 I I #
edge $-1 $791 -18.163301799430911 $795 18.163301799430911 $789 $898 forward 7 unknown #
straight-curve $-1 0 -18.163301799430911 -8.724781680730695 -1 0 0 I I #
vertex $-1 $600 $899 #
straight-curve $-1 0 18.163301799430911 -8.724781680730695 1 0 0 I I #
point $-1 44.204229865413375 18.163301799430911 -8.724781680730695 #
point $-1 44.204229865413375 -18.163301799430911 -8.724781680730695 #
straight-curve $-1 -44.204229865413375 0 8.724781680730695 0 -1 0 I I #
point $-1 -44.204229865413375 18.163301799430911 8.724781680730695 #
point $-1 -44.204229865413375 -18.163301799430911 8.724781680730695 #
straight-curve $-1 44.204229865413375 -18.163301799430911 0 0 0 -1 I I #
straight-curve $-1 44.204229865413375 18.163301799430911 0 0 0 -1 I I #
plane-surface $-1 -44.204229865413375 0 0 1 0 0 0 0 -1 forward_v I I I I #
edge $-1 $629 -0.64130044334743896 $633 3.3513782059813595 $632 $900 forward 7 unknown #
edge $-1 $637 -3.3513782059813595 $628 0.64130044334743896 $635 $901 forward 7 unknown #
straight-curve $-1 -34.705851053169447 -4.7064170872983198 0 0 0 -1 I I #
edge $-1 $811 -8.724781680730695 $809 8.724781680730695 $639 $902 forward 7 unknown #
vertex $-1 $808 $903 #
straight-curve $-1 -19.727520229645705 -0.7137384379695213 -8.724781680730695 1 0 0 I I #
vertex $-1 $640 $904 #
straight-curve $-1 -19.727520229645705 -0.7137384379695213 8.724781680730695 -1 0 0 I I #
point $-1 -34.705851053169447 -0.7137384379695213 8.724781680730695 #
point $-1 -34.705851053169447 -0.7137384379695213 -8.724781680730695 #
point $-1 -34.705851053169447 -4.7064170872983198 -8.724781680730695 #
point $-1 -34.705851053169447 -4.7064170872983198 8.724781680730695 #
straight-curve $-1 -44.204229865413375 0 8.724781680730695 0 -1 0 I I #
straight-curve $-1 -44.204229865413375 0 -8.724781680730695 0 1 0 I I #
edge $-1 $820 37.53639952156049 $823 44.293926289573292 $645 $905 forward 7 unknown #
vertex $-1 $659 $906 #
straight-curve $-1 -21.474378608607246 24.374217624622418 8.7247816807306933 0 1 0 I I #
edge $-1 $823 7.4293211931630729 $656 20.660793637725273 $655 $907 forward 7 unknown #
vertex $-1 $822 $908 #
straight-curve $-1 -21.474378608607246 -9.2527337016477773 25.799651486131026 0 -0.75470957328743171 0.6560590369687036 I I #
point $-1 -21.474378608607246 10.389656660527621 8.7247816807306933 #
point $-1 -34.705851053169447 18.163301799430911 1.9672549127178947 #
straight-curve $-1 0 18.163301799430911 8.724781680730695 -1 0 0 I I #
vertex $-1 $662 $909 #
point $-1 -31.559556564257008 13.487144123196972 4.4379921465580656 #
vertex $-1 $666 $910 #
point $-1 -27.590114830888346 13.487144123196972 4.4379921465580656 #
vertex $-1 $670 $911 #
point $-1 -23.620673097519688 13.487144123196972 4.4379921465580656 #
coedge $-1 $685 $684 $677 $835 forward $674 $-1 #
edge $-1 $836 37.53639952156049 $839 44.293926289573292 $834 $912 forward 7 unknown #
vertex $-1 $689 $913 #
straight-curve $-1 0.41849088273295987 24.374217624622418 8.7247816807306933 0 1 0 I I #
edge $-1 $839 -3.5171135525070296 $686 9.71435889205517 $685 $914 forward 7 unknown #
vertex $-1 $838 $915 #
straight-curve $-1 0.41849088273295987 -9.2527337016477773 25.799651486131026 0 -0.75470957328743171 0.6560590369687036 I I #
point $-1 0.41849088273295987 10.389656660527621 8.7247816807306933 #
point $-1 -12.81298156182924 18.163301799430911 1.9672549127178947 #
straight-curve $-1 0 18.163301799430911 8.724781680730695 -1 0 0 I I #
vertex $-1 $692 $916 #
point $-1 -9.666687072916794 13.487144123196972 4.4379921465580656 #
vertex $-1 $696 $917 #
point $-1 -5.6972453395481395 13.487144123196972 4.4379921465580656 #
vertex $-1 $700 $918 #
point $-1 -1.727803606179485 13.487144123196972 4.4379921465580656 #
coedge $-1 $715 $714 $707 $851 forward $704 $-1 #
edge $-1 $852 37.53639952156049 $855 44.293926289573292 $850 $919 forward 7 unknown #
vertex $-1 $719 $920 #
straight-curve $-1 22.311360374073168 24.374217624622418 8.7247816807306933 0 1 0 I I #
edge $-1 $855 -14.463548298177134 $716 -1.2320758536149334 $715 $921 forward 7 unknown #
vertex $-1 $854 $922 #
straight-curve $-1 22.311360374073168 -9.2527337016477773 25.799651486131026 0 -0.75470957328743171 0.6560590369687036 I I #
point $-1 22.311360374073168 10.389656660527621 8.7247816807306933 #
point $-1 9.0798879295109671 18.163301799430911 1.9672549127178947 #
straight-curve $-1 0 18.163301799430911 8.724781680730695 -1 0 0 I I #
vertex $-1 $722 $923 #
point $-1 12.226182418423413 13.487144123196972 4.4379921465580656 #
vertex $-1 $726 $924 #
point $-1 16.195624151792067 13.487144123196972 4.4379921465580656 #
vertex $-1 $730 $925 #
point $-1 20.165065885160722 13.487144123196972 4.4379921465580656 #
coedge $-1 $867 $736 $873 $926 reversed $541 $-1 #
coedge $-1 $736 $866 $739 $871 reversed $541 $-1 #
edge $-1 $869 -25.409983043847237 $744 -12.178510599285037 $743 $927 forward 7 unknown #
vertex $-1 $738 $928 #
straight-curve $-1 44.204229865413375 -0.23047463243945732 17.95672116467788 0 0.75470957328743171 -0.6560590369687036 I I #
edge $-1 $740 10.389656660527621 $875 18.163301799430911 $867 $929 forward 7 unknown #
point $-1 44.204229865413375 10.389656660527621 8.7247816807306933 #
coedge $-1 $743 $742 $866 $926 forward $734 $-1 #
point $-1 30.972757420851174 18.163301799430911 1.9672549127178947 #
vertex $-1 $871 $930 #
straight-curve $-1 0 18.163301799430911 8.724781680730695 -1 0 0 I I #
vertex $-1 $750 $931 #
point $-1 34.11905190976362 13.487144123196972 4.4379921465580656 #
vertex $-1 $754 $932 #
point $-1 38.088493643132274 13.487144123196972 4.4379921465580656 #
vertex $-1 $758 $933 #
point $-1 42.057935376500929 13.487144123196972 4.4379921465580656 #
edge $-1 $884 23.168786156313075 $887 29.520107980092359 $763 $934 forward 7 unknown #
vertex $-1 $777 $935 #
straight-curve $-1 -20.812752133812069 -40.879513149420717 8.7247816807306933 0 -1 0 I I #
edge $-1 $887 -12.485691738683352 $774 -4.1684290515740816 $773 $936 forward 7 unknown #
vertex $-1 $886 $937 #
straight-curve $-1 -20.812752133812069 -18.163301799430926 2.3734598569513992 0 0.69465836192734942 0.71933980857756763 I I #
point $-1 -20.812752133812069 -12.029901754597738 8.724781680730695 #
point $-1 -12.495489446702798 -18.163301799430911 2.3734598569514138 #
straight-curve $-1 0 -18.163301799430911 8.724781680730695 1 0 0 I I #
vertex $-1 $780 $938 #
point $-1 -17.436391366066562 -13.637264218641754 4.1398549035155483 #
vertex $-1 $784 $939 #
point $-1 -13.871850214448301 -13.637264218641754 4.1398549035155483 #
straight-curve $-1 -44.204229865413375 18.163301799430911 0 0 0 -1 I I #
point $-1 -44.204229865413375 -18.163301799430911 -8.724781680730695 #
straight-curve $-1 -44.204229865413375 0 -8.724781680730695 0 1 0 I I #
point $-1 -44.204229865413375 18.163301799430911 -8.724781680730695 #
straight-curve $-1 -34.705851053169447 -1.3550388813169603 -8.724781680730695 0 -1 0 I I #
straight-curve $-1 -34.705851053169447 -1.3550388813169603 8.724781680730695 0 1 0 I I #
straight-curve $-1 -44.204229865413375 -0.7137384379695213 0 0 0 -1 I I #
point $-1 -44.204229865413375 -0.7137384379695213 -8.724781680730695 #
point $-1 -44.204229865413375 -0.7137384379695213 8.724781680730695 #
straight-curve $-1 -21.474378608607246 18.163301799430911 46.261181202291183 0 0 -1 I I #
point $-1 -21.474378608607246 18.163301799430911 8.724781680730695 #
straight-curve $-1 -14.045057415444173 18.163301799430911 1.9672549127178947 -1 0 0 I I #
point $-1 -21.474378608607246 18.163301799430911 1.9672549127178947 #
point $-1 -32.059556564257008 13.159114604712618 4.0606373599143497 #
point $-1 -28.090114830888346 13.159114604712618 4.0606373599143497 #
point $-1 -24.120673097519688 13.159114604712618 4.0606373599143497 #
straight-curve $-1 0.41849088273295987 18.163301799430911 46.261181202291183 0 0 -1 I I #
point $-1 0.41849088273295987 18.163301799430911 8.724781680730695 #
straight-curve $-1 -3.0986226697740697 18.163301799430911 1.9672549127178947 -1 0 0 I I #
point $-1 0.41849088273295987 18.163301799430911 1.9672549127178947 #
point $-1 -10.166687072916794 13.159114604712618 4.0606373599143497 #
point $-1 -6.1972453395481395 13.159114604712618 4.0606373599143497 #
point $-1 -2.227803606179485 13.159114604712618 4.0606373599143497 #
straight-curve $-1 22.311360374073168 18.163301799430911 46.261181202291183 0 0 -1 I I #
point $-1 22.311360374073168 18.163301799430911 8.724781680730695 #
straight-curve $-1 7.8478120758960337 18.163301799430911 1.9672549127178947 -1 0 0 I I #
point $-1 22.311360374073168 18.163301799430911 1.9672549127178947 #
point $-1 11.726182418423413 13.159114604712618 4.0606373599143497 #
point $-1 15.695624151792067 13.159114604712618 4.0606373599143497 #
point $-1 19.665065885160722 13.159114604712618 4.0606373599143497 #
edge $-1 $875 -8.724781680730695 $869 -1.9672549127178947 $866 $940 forward 7 unknown #
straight-curve $-1 18.794246821566137 18.163301799430911 1.9672549127178947 -1 0 0 I I #
point $-1 44.204229865413375 18.163301799430911 1.9672549127178947 #
straight-curve $-1 44.204229865413375 0 8.724781680730695 0 1 0 I I #
point $-1 44.204229865413375 18.163301799430911 8.724781680730695 #
point $-1 33.61905190976362 13.159114604712618 4.0606373599143497 #
point $-1 37.588493643132274 13.159114604712618 4.0606373599143497 #
point $-1 41.557935376500929 13.159114604712618 4.0606373599143497 #
straight-curve $-1 -20.812752133812069 -18.163301799430911 31.893567837043772 0 0 -1 I I #
point $-1 -20.812752133812069 -18.163301799430911 8.724781680730695 #
straight-curve $-1 -8.3270603951287168 -18.163301799430911 2.3734598569514125 1 0 0 I I #
point $-1 -20.812752133812069 -18.163301799430911 2.3734598569514138 #
point $-1 -18.436391366066562 -12.917924410064185 3.4451965415881993 #
point $-1 -14.871850214448301 -12.917924410064185 3.4451965415881993 #
straight-curve $-1 44.204229865413375 18.163301799430911 0 0 0 -1 I I #
End-of-ACIS-data 