500 0 17 0           
7 Unknown 11 ACIS 5.0 NT 24 Thu Mar 25 22:44:39 1999 
-1 9.9999999999999995e-007 1e-010 
body $-1 $17 $-1 $18 #
body $-1 $19 $-1 $20 #
body $-1 $21 $-1 $22 #
body $-1 $23 $-1 $24 #
body $-1 $25 $-1 $26 #
body $-1 $27 $-1 $28 #
body $-1 $29 $-1 $30 #
body $-1 $31 $-1 $32 #
body $-1 $33 $-1 $34 #
body $-1 $35 $-1 $36 #
body $-1 $37 $-1 $38 #
body $-1 $39 $-1 $40 #
body $-1 $41 $-1 $42 #
body $-1 $43 $-1 $44 #
body $-1 $45 $-1 $46 #
body $-1 $47 $-1 $48 #
body $-1 $49 $-1 $50 #
lump $-1 $-1 $51 $0 #
transform $-1 1 0 0 0 1 0 0 0 1 46.565141758476514 28.489192369600701 8.3085290445613342 1 rotate no_reflect no_shear #
lump $-1 $-1 $52 $1 #
transform $-1 1 0 0 0 1 0 0 0 1 46.565141758476514 28.489192369600701 8.3085290445613342 1 rotate no_reflect no_shear #
lump $-1 $-1 $53 $2 #
transform $-1 1 0 0 0 1 0 0 0 1 46.565141758476514 28.489192369600701 8.3085290445613342 1 rotate no_reflect no_shear #
lump $-1 $-1 $54 $3 #
transform $-1 1 0 0 0 1 0 0 0 1 46.565141758476514 28.489192369600701 8.3085290445613342 1 rotate no_reflect no_shear #
lump $-1 $-1 $55 $4 #
transform $-1 1 0 0 0 1 0 0 0 1 46.565141758476514 28.489192369600701 8.3085290445613342 1 rotate no_reflect no_shear #
lump $-1 $-1 $56 $5 #
transform $-1 1 0 0 0 1 0 0 0 1 46.565141758476514 28.489192369600701 8.3085290445613342 1 rotate no_reflect no_shear #
lump $-1 $-1 $57 $6 #
transform $-1 1 0 0 0 1 0 0 0 1 46.565141758476514 28.489192369600701 8.3085290445613342 1 rotate no_reflect no_shear #
lump $-1 $-1 $58 $7 #
transform $-1 1 0 0 0 1 0 0 0 1 46.565141758476514 28.489192369600701 8.3085290445613342 1 rotate no_reflect no_shear #
lump $-1 $-1 $59 $8 #
transform $-1 1 0 0 0 1 0 0 0 1 46.565141758476514 28.489192369600701 8.3085290445613342 1 rotate no_reflect no_shear #
lump $-1 $-1 $60 $9 #
transform $-1 1 0 0 0 1 0 0 0 1 46.565141758476514 28.489192369600701 8.3085290445613342 1 rotate no_reflect no_shear #
lump $-1 $-1 $61 $10 #
transform $-1 1 0 0 0 1 0 0 0 1 46.565141758476514 28.489192369600701 8.3085290445613342 1 rotate no_reflect no_shear #
lump $-1 $-1 $62 $11 #
transform $-1 1 0 0 0 1 0 0 0 1 46.565141758476514 28.489192369600701 8.3085290445613342 1 rotate no_reflect no_shear #
lump $-1 $-1 $63 $12 #
transform $-1 1 0 0 0 1 0 0 0 1 46.565141758476514 28.489192369600701 8.3085290445613342 1 rotate no_reflect no_shear #
lump $-1 $-1 $64 $13 #
transform $-1 1 0 0 0 1 0 0 0 1 46.565141758476514 28.489192369600701 8.3085290445613342 1 rotate no_reflect no_shear #
lump $-1 $-1 $65 $14 #
transform $-1 1 0 0 0 1 0 0 0 1 46.565141758476514 28.489192369600701 8.3085290445613342 1 rotate no_reflect no_shear #
lump $-1 $-1 $66 $15 #
transform $-1 1 0 0 0 1 0 0 0 1 46.565141758476514 28.489192369600701 8.3085290445613342 1 rotate no_reflect no_shear #
lump $-1 $-1 $67 $16 #
transform $-1 1 0 0 0 1 0 0 0 1 46.565141758476514 28.489192369600701 8.3085290445613342 1 rotate no_reflect no_shear #
shell $-1 $-1 $-1 $68 $-1 $17 #
shell $-1 $-1 $-1 $69 $-1 $19 #
shell $-1 $-1 $-1 $70 $-1 $21 #
shell $-1 $-1 $-1 $71 $-1 $23 #
shell $-1 $-1 $-1 $72 $-1 $25 #
shell $-1 $-1 $-1 $73 $-1 $27 #
shell $-1 $-1 $-1 $74 $-1 $29 #
shell $-1 $-1 $-1 $75 $-1 $31 #
shell $-1 $-1 $-1 $76 $-1 $33 #
shell $-1 $-1 $-1 $77 $-1 $35 #
shell $-1 $-1 $-1 $78 $-1 $37 #
shell $-1 $-1 $-1 $79 $-1 $39 #
shell $-1 $-1 $-1 $80 $-1 $41 #
shell $-1 $-1 $-1 $81 $-1 $43 #
shell $-1 $-1 $-1 $82 $-1 $45 #
shell $-1 $-1 $-1 $83 $-1 $47 #
shell $-1 $-1 $-1 $84 $-1 $49 #
face $-1 $85 $86 $51 $-1 $87 forward single #
face $-1 $88 $89 $52 $-1 $90 forward single #
face $-1 $91 $92 $53 $-1 $93 reversed single #
face $-1 $94 $95 $54 $-1 $96 forward single #
face $-1 $97 $98 $55 $-1 $99 forward single #
face $-1 $100 $101 $56 $-1 $102 reversed single #
face $-1 $103 $104 $57 $-1 $105 forward single #
face $-1 $106 $107 $58 $-1 $108 forward single #
face $-1 $109 $110 $59 $-1 $111 reversed single #
face $-1 $112 $113 $60 $-1 $114 forward single #
face $-1 $115 $116 $61 $-1 $117 forward single #
face $-1 $118 $119 $62 $-1 $120 reversed single #
face $-1 $121 $122 $63 $-1 $123 forward single #
face $-1 $124 $125 $64 $-1 $126 forward single #
face $-1 $127 $128 $65 $-1 $129 reversed single #
face $-1 $130 $131 $66 $-1 $132 forward single #
face $-1 $133 $134 $67 $-1 $135 forward single #
face $-1 $136 $137 $51 $-1 $138 reversed single #
loop $-1 $-1 $139 $68 #
plane-surface $-1 0 0 8.3085290445613342 0 0 1 1 0 0 forward_v I I I I #
face $-1 $140 $141 $52 $-1 $142 reversed single #
loop $-1 $-1 $143 $69 #
plane-surface $-1 -42.977696563918947 0 -5.3085290445613342 0 0 1 1 0 0 forward_v I I I I #
face $-1 $144 $145 $53 $-1 $146 reversed single #
loop $-1 $-1 $147 $70 #
plane-surface $-1 -4.4471435368800094 27.614826935347693 113.89714003083233 1 0 0 0 -0.51503808176128008 -0.85716729658548041 forward_v I I I I #
face $-1 $148 $149 $54 $-1 $150 forward single #
loop $-1 $151 $152 $71 #
cone-surface $-1 2.2787444635900087 24.947787563845875 5.5876394169174368 0 -0.51503808176128008 -0.85716729658548041 1 0 0 1 I I 0 1 1 forward I I I I #
face $-1 $153 $154 $55 $-1 $155 forward single #
loop $-1 $156 $157 $72 #
cone-surface $-1 12.367576464295041 24.947787563845875 5.5876394169174368 0 -0.51503808176128008 -0.85716729658548041 1 0 0 1 I I 0 1 1 forward I I I I #
face $-1 $158 $159 $56 $-1 $160 reversed single #
loop $-1 $-1 $161 $73 #
plane-surface $-1 -17.90140308740191 -92.003893755458833 69.945597923482808 -1 0 0 0 -0.68199836817093118 0.7313536940579346 forward_v I I I I #
face $-1 $162 $163 $57 $-1 $164 forward single #
loop $-1 $165 $166 $74 #
cone-surface $-1 -27.818385385646724 -23.70852632587976 3.6673683561116688 0 0.68199836817093118 -0.7313536940579346 1.5 0 0 1 I I 0 1 1.5 forward I I I I #
face $-1 $167 $168 $58 $-1 $169 forward single #
loop $-1 $170 $171 $75 #
cone-surface $-1 -21.868196006699836 -23.70852632587976 3.6673683561116688 0 0.68199836817093118 -0.7313536940579346 1.5 0 0 1 I I 0 1 1.5 forward I I I I #
face $-1 $172 $173 $59 $-1 $174 reversed single #
loop $-1 $-1 $175 $76 #
plane-surface $-1 1.0524208397519841 -92.003893755458833 69.945597923482808 -1 0 0 0 -0.68199836817093118 0.7313536940579346 forward_v I I I I #
face $-1 $176 $177 $60 $-1 $178 forward single #
loop $-1 $179 $180 $77 #
cone-surface $-1 -8.8645614584928296 -23.70852632587976 3.6673683561116688 0 0.68199836817093118 -0.7313536940579346 1.5 0 0 1 I I 0 1 1.5 forward I I I I #
face $-1 $181 $182 $61 $-1 $183 forward single #
loop $-1 $184 $185 $78 #
cone-surface $-1 -2.9143720795459416 -23.70852632587976 3.6673683561116688 0 0.68199836817093118 -0.7313536940579346 1.5 0 0 1 I I 0 1 1.5 forward I I I I #
face $-1 $186 $187 $62 $-1 $188 reversed single #
loop $-1 $-1 $189 $79 #
plane-surface $-1 20.006244766905883 -92.003893755458833 69.945597923482808 -1 0 0 0 -0.68199836817093118 0.7313536940579346 forward_v I I I I #
face $-1 $190 $191 $63 $-1 $192 forward single #
loop $-1 $193 $194 $80 #
cone-surface $-1 10.089262468661062 -23.70852632587976 3.6673683561116688 0 0.68199836817093118 -0.7313536940579346 1.5 0 0 1 I I 0 1 1.5 forward I I I I #
face $-1 $195 $196 $64 $-1 $197 forward single #
loop $-1 $198 $199 $81 #
cone-surface $-1 16.03945184760795 -23.70852632587976 3.6673683561116688 0 0.68199836817093118 -0.7313536940579346 1.5 0 0 1 I I 0 1 1.5 forward I I I I #
face $-1 $200 $201 $65 $-1 $202 reversed single #
loop $-1 $-1 $203 $82 #
plane-surface $-1 38.960068694059771 -92.003893755458833 69.945597923482808 -1 0 0 0 -0.68199836817093118 0.7313536940579346 forward_v I I I I #
face $-1 $204 $205 $66 $-1 $206 forward single #
loop $-1 $207 $208 $83 #
cone-surface $-1 29.043086395814953 -23.70852632587976 3.6673683561116688 0 0.68199836817093118 -0.7313536940579346 1.5 0 0 1 I I 0 1 1.5 forward I I I I #
face $-1 $209 $210 $67 $-1 $211 forward single #
loop $-1 $212 $213 $84 #
cone-surface $-1 34.993275774761841 -23.70852632587976 3.6673683561116688 0 0.68199836817093118 -0.7313536940579346 1.5 0 0 1 I I 0 1 1.5 forward I I I I #
face $-1 $214 $215 $51 $-1 $216 reversed single #
loop $-1 $-1 $217 $85 #
plane-surface $-1 0 0 -8.3085290445613342 0 0 1 1 0 0 forward_v I I I I #
coedge $-1 $218 $219 $220 $221 forward $86 $-1 #
face $-1 $222 $223 $52 $-1 $224 reversed single #
loop $-1 $-1 $225 $88 #
plane-surface $-1 -39.39025136936138 0 -6.8085290445613342 -1 0 0 0 0 1 forward_v I I I I #
coedge $-1 $226 $227 $228 $229 forward $89 $-1 #
face $-1 $230 $231 $53 $-1 $232 reversed single #
loop $-1 $-1 $233 $91 #
plane-surface $-1 7.3231604639425285 -20.350815641107957 34.068906678366375 0 0.51503808176128008 0.85716729658548041 1 0 0 forward_v I I I I #
coedge $-1 $234 $235 $236 $237 reversed $92 $-1 #
face $-1 $-1 $238 $54 $-1 $239 forward single #
loop $-1 $240 $241 $94 #
cone-surface $-1 2.2787444635900087 24.132634133895593 4.2309963130455142 0 -0.51503808176128008 -0.85716729658548041 0.5 0 0 1 I I -0.70710678118654746 0.70710678118654746 0.5 forward I I I I #
loop $-1 $-1 $242 $71 #
coedge $-1 $152 $152 $243 $244 reversed $95 $-1 #
face $-1 $-1 $245 $55 $-1 $246 forward single #
loop $-1 $247 $248 $97 #
cone-surface $-1 12.367576464295041 24.132634133895593 4.2309963130455142 0 -0.51503808176128008 -0.85716729658548041 0.5 0 0 1 I I -0.70710678118654746 0.70710678118654746 0.5 forward I I I I #
loop $-1 $-1 $249 $72 #
coedge $-1 $157 $157 $250 $251 reversed $98 $-1 #
face $-1 $252 $253 $56 $-1 $254 reversed single #
loop $-1 $-1 $255 $100 #
plane-surface $-1 -24.84329069617328 -28.489192369600701 1.8344210446964269 0 -0.68199836817093118 0.7313536940579346 1 0 0 forward_v I I I I #
coedge $-1 $256 $257 $258 $259 reversed $101 $-1 #
face $-1 $-1 $260 $57 $-1 $261 forward single #
loop $-1 $262 $263 $103 #
cone-surface $-1 -27.818385385646724 -21.887676851058334 1.7147463970510035 0 0.68199836817093118 -0.7313536940579346 0.75 0 0 1 I I -0.70710678118654757 0.70710678118654757 0.75 forward I I I I #
loop $-1 $-1 $264 $74 #
coedge $-1 $166 $166 $265 $266 reversed $104 $-1 #
face $-1 $-1 $267 $58 $-1 $268 forward single #
loop $-1 $269 $270 $106 #
cone-surface $-1 -21.868196006699836 -21.887676851058334 1.7147463970510035 0 0.68199836817093118 -0.7313536940579346 0.75 0 0 1 I I -0.70710678118654757 0.70710678118654757 0.75 forward I I I I #
loop $-1 $-1 $271 $75 #
coedge $-1 $171 $171 $272 $273 reversed $107 $-1 #
face $-1 $274 $275 $59 $-1 $276 reversed single #
loop $-1 $-1 $277 $109 #
plane-surface $-1 -5.8894667690193856 -28.489192369600701 1.8344210446964269 0 -0.68199836817093118 0.7313536940579346 1 0 0 forward_v I I I I #
coedge $-1 $278 $279 $280 $281 reversed $110 $-1 #
face $-1 $-1 $282 $60 $-1 $283 forward single #
loop $-1 $284 $285 $112 #
cone-surface $-1 -8.8645614584928296 -21.887676851058334 1.7147463970510035 0 0.68199836817093118 -0.7313536940579346 0.75 0 0 1 I I -0.70710678118654757 0.70710678118654757 0.75 forward I I I I #
loop $-1 $-1 $286 $77 #
coedge $-1 $180 $180 $287 $288 reversed $113 $-1 #
face $-1 $-1 $289 $61 $-1 $290 forward single #
loop $-1 $291 $292 $115 #
cone-surface $-1 -2.9143720795459416 -21.887676851058334 1.7147463970510035 0 0.68199836817093118 -0.7313536940579346 0.75 0 0 1 I I -0.70710678118654757 0.70710678118654757 0.75 forward I I I I #
loop $-1 $-1 $293 $78 #
coedge $-1 $185 $185 $294 $295 reversed $116 $-1 #
face $-1 $296 $297 $62 $-1 $298 reversed single #
loop $-1 $-1 $299 $118 #
plane-surface $-1 13.064357158134513 -28.489192369600701 1.8344210446964269 0 -0.68199836817093118 0.7313536940579346 1 0 0 forward_v I I I I #
coedge $-1 $300 $301 $302 $303 reversed $119 $-1 #
face $-1 $-1 $304 $63 $-1 $305 forward single #
loop $-1 $306 $307 $121 #
cone-surface $-1 10.089262468661062 -21.887676851058334 1.7147463970510035 0 0.68199836817093118 -0.7313536940579346 0.75 0 0 1 I I -0.70710678118654757 0.70710678118654757 0.75 forward I I I I #
loop $-1 $-1 $308 $80 #
coedge $-1 $194 $194 $309 $310 reversed $122 $-1 #
face $-1 $-1 $311 $64 $-1 $312 forward single #
loop $-1 $313 $314 $124 #
cone-surface $-1 16.03945184760795 -21.887676851058334 1.7147463970510035 0 0.68199836817093118 -0.7313536940579346 0.75 0 0 1 I I -0.70710678118654757 0.70710678118654757 0.75 forward I I I I #
loop $-1 $-1 $315 $81 #
coedge $-1 $199 $199 $316 $317 reversed $125 $-1 #
face $-1 $318 $319 $65 $-1 $320 reversed single #
loop $-1 $-1 $321 $127 #
plane-surface $-1 32.018181085288404 -28.489192369600701 1.8344210446964269 0 -0.68199836817093118 0.7313536940579346 1 0 0 forward_v I I I I #
coedge $-1 $322 $323 $324 $325 reversed $128 $-1 #
face $-1 $-1 $326 $66 $-1 $327 forward single #
loop $-1 $328 $329 $130 #
cone-surface $-1 29.043086395814953 -21.887676851058334 1.7147463970510035 0 0.68199836817093118 -0.7313536940579346 0.75 0 0 1 I I -0.70710678118654757 0.70710678118654757 0.75 forward I I I I #
loop $-1 $-1 $330 $83 #
coedge $-1 $208 $208 $331 $332 reversed $131 $-1 #
face $-1 $-1 $333 $67 $-1 $334 forward single #
loop $-1 $335 $336 $133 #
cone-surface $-1 34.993275774761841 -21.887676851058334 1.7147463970510035 0 0.68199836817093118 -0.7313536940579346 0.75 0 0 1 I I -0.70710678118654757 0.70710678118654757 0.75 forward I I I I #
loop $-1 $-1 $337 $84 #
coedge $-1 $213 $213 $338 $339 reversed $134 $-1 #
face $-1 $340 $341 $51 $-1 $342 reversed single #
loop $-1 $-1 $343 $136 #
plane-surface $-1 0 -28.489192369600701 0 0 1 0 0 0 1 forward_v I I I I #
coedge $-1 $344 $345 $346 $347 forward $137 $-1 #
coedge $-1 $348 $139 $349 $350 forward $86 $-1 #
coedge $-1 $139 $348 $351 $352 forward $86 $-1 #
coedge $-1 $353 $354 $139 $221 reversed $355 $-1 #
edge $-1 $356 -28.489192369600701 $357 28.489192369600701 $220 $358 forward 7 unknown #
face $-1 $359 $360 $52 $-1 $361 reversed single #
loop $-1 $-1 $362 $140 #
plane-surface $-1 0 0 -8.3085290445613342 0 0 1 1 0 0 forward_v I I I I #
coedge $-1 $363 $228 $364 $365 reversed $141 $-1 #
coedge $-1 $366 $143 $367 $368 reversed $89 $-1 #
coedge $-1 $143 $366 $369 $370 reversed $89 $-1 #
coedge $-1 $225 $371 $143 $229 reversed $141 $-1 #
edge $-1 $372 -28.489192369600701 $373 28.489192369600701 $228 $374 forward 7 unknown #
face $-1 $375 $376 $53 $-1 $377 reversed single #
loop $-1 $-1 $378 $144 #
plane-surface $-1 19.093464464765066 27.614826935347693 113.89714003083233 -1 0 0 0 0.51503808176128008 0.85716729658548041 forward_v I I I I #
coedge $-1 $379 $380 $381 $382 reversed $145 $-1 #
coedge $-1 $235 $147 $383 $384 reversed $92 $-1 #
coedge $-1 $147 $234 $379 $385 reversed $92 $-1 #
coedge $-1 $381 $386 $147 $237 forward $387 $-1 #
edge $-1 $388 -14.681778901926855 $389 -8.7142380685564618 $236 $390 forward 7 unknown #
loop $-1 $-1 $243 $148 #
plane-surface $-1 7.3231604639425285 -20.350815641107957 34.068906678366375 0 0.51503808176128008 0.85716729658548041 1 0 0 forward_v I I I I #
loop $-1 $-1 $391 $94 #
coedge $-1 $241 $241 $242 $392 reversed $149 $-1 #
coedge $-1 $242 $242 $241 $392 forward $151 $-1 #
coedge $-1 $243 $243 $152 $244 forward $238 $-1 #
edge $-1 $393 -1.2285913935065173e-015 $393 6.2831853071795996 $243 $394 forward 7 unknown #
loop $-1 $-1 $250 $153 #
plane-surface $-1 7.3231604639425285 -20.350815641107957 34.068906678366375 0 0.51503808176128008 0.85716729658548041 1 0 0 forward_v I I I I #
loop $-1 $-1 $395 $97 #
coedge $-1 $248 $248 $249 $396 reversed $154 $-1 #
coedge $-1 $249 $249 $248 $396 forward $156 $-1 #
coedge $-1 $250 $250 $157 $251 forward $245 $-1 #
edge $-1 $397 -1.2285913935065173e-015 $397 6.2831853071795996 $250 $398 forward 7 unknown #
face $-1 $399 $400 $56 $-1 $401 forward single #
loop $-1 $-1 $402 $158 #
plane-surface $-1 -31.785178304944651 -92.003893755458833 69.945597923482808 1 0 0 0 0.68199836817093118 -0.7313536940579346 forward_v I I I I #
coedge $-1 $403 $404 $405 $406 reversed $159 $-1 #
coedge $-1 $257 $161 $407 $408 reversed $101 $-1 #
coedge $-1 $161 $256 $403 $409 reversed $101 $-1 #
coedge $-1 $405 $410 $161 $259 forward $400 $-1 #
edge $-1 $411 17.512754508128715 $412 24.455385198184143 $258 $413 forward 7 unknown #
loop $-1 $-1 $265 $162 #
plane-surface $-1 -24.84329069617328 -28.489192369600701 1.8344210446964269 0 -0.68199836817093118 0.7313536940579346 1 0 0 forward_v I I I I #
loop $-1 $-1 $414 $103 #
coedge $-1 $263 $263 $264 $415 reversed $163 $-1 #
coedge $-1 $264 $264 $263 $415 forward $165 $-1 #
coedge $-1 $265 $265 $166 $266 forward $260 $-1 #
edge $-1 $416 -9.2454520477377154e-016 $416 6.2831853071795996 $265 $417 forward 7 unknown #
loop $-1 $-1 $272 $167 #
plane-surface $-1 -24.84329069617328 -28.489192369600701 1.8344210446964269 0 -0.68199836817093118 0.7313536940579346 1 0 0 forward_v I I I I #
loop $-1 $-1 $418 $106 #
coedge $-1 $270 $270 $271 $419 reversed $168 $-1 #
coedge $-1 $271 $271 $270 $419 forward $170 $-1 #
coedge $-1 $272 $272 $171 $273 forward $267 $-1 #
edge $-1 $420 -9.2454520477377154e-016 $420 6.2831853071795996 $272 $421 forward 7 unknown #
face $-1 $422 $423 $59 $-1 $424 reversed single #
loop $-1 $-1 $425 $172 #
plane-surface $-1 -12.831354377790756 -92.003893755458833 69.945597923482808 1 0 0 0 0.68199836817093118 -0.7313536940579346 forward_v I I I I #
coedge $-1 $426 $427 $428 $429 reversed $173 $-1 #
coedge $-1 $279 $175 $430 $431 reversed $110 $-1 #
coedge $-1 $175 $278 $426 $432 reversed $110 $-1 #
coedge $-1 $428 $433 $175 $281 forward $434 $-1 #
edge $-1 $435 17.512754508128715 $436 24.455385198184143 $280 $437 forward 7 unknown #
loop $-1 $-1 $287 $176 #
plane-surface $-1 -5.8894667690193856 -28.489192369600701 1.8344210446964269 0 -0.68199836817093118 0.7313536940579346 1 0 0 forward_v I I I I #
loop $-1 $-1 $438 $112 #
coedge $-1 $285 $285 $286 $439 reversed $177 $-1 #
coedge $-1 $286 $286 $285 $439 forward $179 $-1 #
coedge $-1 $287 $287 $180 $288 forward $282 $-1 #
edge $-1 $440 -9.2454520477377154e-016 $440 6.2831853071795996 $287 $441 forward 7 unknown #
loop $-1 $-1 $294 $181 #
plane-surface $-1 -5.8894667690193856 -28.489192369600701 1.8344210446964269 0 -0.68199836817093118 0.7313536940579346 1 0 0 forward_v I I I I #
loop $-1 $-1 $442 $115 #
coedge $-1 $292 $292 $293 $443 reversed $182 $-1 #
coedge $-1 $293 $293 $292 $443 forward $184 $-1 #
coedge $-1 $294 $294 $185 $295 forward $289 $-1 #
edge $-1 $444 -9.2454520477377154e-016 $444 6.2831853071795996 $294 $445 forward 7 unknown #
face $-1 $446 $447 $62 $-1 $448 reversed single #
loop $-1 $-1 $449 $186 #
plane-surface $-1 6.1224695493631431 -92.003893755458833 69.945597923482808 1 0 0 0 0.68199836817093118 -0.7313536940579346 forward_v I I I I #
coedge $-1 $450 $451 $452 $453 reversed $187 $-1 #
coedge $-1 $301 $189 $454 $455 reversed $119 $-1 #
coedge $-1 $189 $300 $450 $456 reversed $119 $-1 #
coedge $-1 $452 $457 $189 $303 forward $458 $-1 #
edge $-1 $459 17.512754508128715 $460 24.455385198184143 $302 $461 forward 7 unknown #
loop $-1 $-1 $309 $190 #
plane-surface $-1 13.064357158134513 -28.489192369600701 1.8344210446964269 0 -0.68199836817093118 0.7313536940579346 1 0 0 forward_v I I I I #
loop $-1 $-1 $462 $121 #
coedge $-1 $307 $307 $308 $463 reversed $191 $-1 #
coedge $-1 $308 $308 $307 $463 forward $193 $-1 #
coedge $-1 $309 $309 $194 $310 forward $304 $-1 #
edge $-1 $464 -9.2454520477377154e-016 $464 6.2831853071795996 $309 $465 forward 7 unknown #
loop $-1 $-1 $316 $195 #
plane-surface $-1 13.064357158134513 -28.489192369600701 1.8344210446964269 0 -0.68199836817093118 0.7313536940579346 1 0 0 forward_v I I I I #
loop $-1 $-1 $466 $124 #
coedge $-1 $314 $314 $315 $467 reversed $196 $-1 #
coedge $-1 $315 $315 $314 $467 forward $198 $-1 #
coedge $-1 $316 $316 $199 $317 forward $311 $-1 #
edge $-1 $468 -9.2454520477377154e-016 $468 6.2831853071795996 $316 $469 forward 7 unknown #
face $-1 $470 $471 $65 $-1 $472 reversed single #
loop $-1 $-1 $473 $200 #
plane-surface $-1 25.076293476517034 -92.003893755458833 69.945597923482808 1 0 0 0 0.68199836817093118 -0.7313536940579346 forward_v I I I I #
coedge $-1 $474 $475 $476 $477 reversed $201 $-1 #
coedge $-1 $323 $203 $478 $479 reversed $128 $-1 #
coedge $-1 $203 $322 $474 $480 reversed $128 $-1 #
coedge $-1 $476 $481 $203 $325 forward $482 $-1 #
edge $-1 $483 17.512754508128715 $484 24.455385198184143 $324 $485 forward 7 unknown #
loop $-1 $-1 $331 $204 #
plane-surface $-1 32.018181085288404 -28.489192369600701 1.8344210446964269 0 -0.68199836817093118 0.7313536940579346 1 0 0 forward_v I I I I #
loop $-1 $-1 $486 $130 #
coedge $-1 $329 $329 $330 $487 reversed $205 $-1 #
coedge $-1 $330 $330 $329 $487 forward $207 $-1 #
coedge $-1 $331 $331 $208 $332 forward $326 $-1 #
edge $-1 $488 -9.2454520477377154e-016 $488 6.2831853071795996 $331 $489 forward 7 unknown #
loop $-1 $-1 $338 $209 #
plane-surface $-1 32.018181085288404 -28.489192369600701 1.8344210446964269 0 -0.68199836817093118 0.7313536940579346 1 0 0 forward_v I I I I #
loop $-1 $-1 $490 $133 #
coedge $-1 $336 $336 $337 $491 reversed $210 $-1 #
coedge $-1 $337 $337 $336 $491 forward $212 $-1 #
coedge $-1 $338 $338 $213 $339 forward $333 $-1 #
edge $-1 $492 -9.2454520477377154e-016 $492 6.2831853071795996 $338 $493 forward 7 unknown #
face $-1 $494 $495 $51 $-1 $496 reversed single #
loop $-1 $-1 $497 $214 #
plane-surface $-1 -46.565141758476514 0 0 1 0 0 0 0 -1 forward_v I I I I #
coedge $-1 $498 $351 $499 $500 forward $215 $-1 #
coedge $-1 $501 $217 $498 $502 forward $137 $-1 #
coedge $-1 $217 $501 $503 $504 forward $137 $-1 #
coedge $-1 $354 $353 $217 $347 reversed $355 $-1 #
edge $-1 $505 -28.489192369600701 $506 28.489192369600701 $346 $507 forward 7 unknown #
coedge $-1 $219 $218 $508 $509 forward $86 $-1 #
coedge $-1 $510 $511 $218 $350 reversed $495 $-1 #
edge $-1 $357 -46.565141758476514 $512 46.565141758476514 $349 $513 forward 7 unknown #
coedge $-1 $343 $514 $219 $352 reversed $215 $-1 #
edge $-1 $515 -46.565141758476514 $356 46.565141758476514 $351 $516 forward 7 unknown #
coedge $-1 $346 $220 $514 $517 forward $355 $-1 #
coedge $-1 $220 $346 $510 $518 reversed $355 $-1 #
loop $-1 $-1 $353 $494 #
vertex $-1 $221 $519 #
vertex $-1 $221 $520 #
straight-curve $-1 46.565141758476514 0 8.3085290445613342 0 1 0 I I #
face $-1 $521 $522 $52 $-1 $523 reversed single #
loop $-1 $-1 $364 $222 #
plane-surface $-1 0 -28.489192369600701 0 0 1 0 0 0 1 forward_v I I I I #
coedge $-1 $524 $525 $363 $526 forward $223 $-1 #
coedge $-1 $371 $225 $362 $526 reversed $141 $-1 #
coedge $-1 $369 $527 $225 $365 forward $360 $-1 #
edge $-1 $528 -4.9042645222806671 $372 -1.9042645222806671 $364 $529 forward 7 unknown #
coedge $-1 $227 $226 $530 $531 reversed $89 $-1 #
coedge $-1 $532 $533 $226 $368 forward $534 $-1 #
edge $-1 $535 -25.076293476517041 $373 -17.901403087401906 $367 $536 forward 7 unknown #
coedge $-1 $537 $364 $227 $370 forward $360 $-1 #
edge $-1 $372 17.901403087401906 $538 25.076293476517041 $369 $539 forward 7 unknown #
coedge $-1 $228 $363 $532 $540 reversed $141 $-1 #
vertex $-1 $370 $541 #
vertex $-1 $368 $542 #
straight-curve $-1 -39.39025136936138 0 -5.3085290445613342 0 1 0 I I #
face $-1 $-1 $387 $53 $-1 $543 forward single #
loop $-1 $-1 $544 $230 #
plane-surface $-1 0 28.489192369600701 0 0 -1 0 0 0 -1 forward_v I I I I #
coedge $-1 $545 $546 $547 $548 reversed $231 $-1 #
coedge $-1 $549 $233 $235 $385 forward $145 $-1 #
coedge $-1 $233 $549 $545 $550 forward $145 $-1 #
coedge $-1 $547 $236 $233 $382 forward $387 $-1 #
edge $-1 $389 -8.1087237688512737 $551 15.431884232793802 $381 $552 forward 7 unknown #
coedge $-1 $553 $554 $234 $384 forward $376 $-1 #
edge $-1 $555 -52.225701314984278 $388 -48.640040970854834 $383 $556 forward 7 unknown #
edge $-1 $389 50.016452270309912 $555 56.978384739201395 $235 $557 forward 7 unknown #
coedge $-1 $236 $547 $553 $558 forward $387 $-1 #
loop $-1 $-1 $547 $375 #
vertex $-1 $384 $559 #
vertex $-1 $237 $560 #
straight-curve $-1 -4.4471435368800094 13.807413467673847 8.3085290445613325 0 -1 0 I I #
coedge $-1 $391 $391 $-1 $561 reversed $240 $-1 #
edge $-1 $562 0 $562 6.2831853071796004 $241 $563 forward 7 unknown #
vertex $-1 $244 $564 #
ellipse-curve $-1 2.2787444635900087 25.505421952915508 6.5156988724966052 0 0.51503808176128008 0.85716729658548041 1 0 0 1 I I #
coedge $-1 $395 $395 $-1 $565 reversed $247 $-1 #
edge $-1 $566 0 $566 6.2831853071796004 $248 $567 forward 7 unknown #
vertex $-1 $251 $568 #
ellipse-curve $-1 12.367576464295041 25.505421952915508 6.5156988724966052 0 0.51503808176128008 0.85716729658548041 1 0 0 1 I I #
face $-1 $-1 $569 $56 $-1 $570 reversed single #
loop $-1 $-1 $258 $252 #
plane-surface $-1 0 0 8.3085290445613342 0 0 1 1 0 0 forward_v I I I I #
coedge $-1 $571 $572 $573 $574 reversed $253 $-1 #
coedge $-1 $575 $255 $257 $409 forward $159 $-1 #
coedge $-1 $255 $575 $571 $576 forward $159 $-1 #
coedge $-1 $573 $258 $255 $406 forward $400 $-1 #
edge $-1 $412 5.4797577393152697 $577 19.363532956858009 $405 $578 forward 7 unknown #
coedge $-1 $579 $580 $256 $408 forward $569 $-1 #
edge $-1 $581 -33.138377917044977 $411 -26.664269917180071 $407 $582 forward 7 unknown #
edge $-1 $412 -9.4928496929222632 $581 0 $257 $583 forward 7 unknown #
coedge $-1 $258 $573 $579 $584 forward $400 $-1 #
vertex $-1 $259 $585 #
vertex $-1 $259 $586 #
straight-curve $-1 -17.90140308740191 -46.001946877729416 8.3085290445613325 0 1 0 I I #
coedge $-1 $414 $414 $-1 $587 reversed $262 $-1 #
edge $-1 $588 0 $588 6.2831853071796004 $263 $589 forward 7 unknown #
vertex $-1 $266 $590 #
ellipse-curve $-1 -27.818385385646724 -25.017877024572986 5.0714750446288814 0 -0.68199836817093118 0.7313536940579346 1.5 0 0 1 I I #
coedge $-1 $418 $418 $-1 $591 reversed $269 $-1 #
edge $-1 $592 0 $592 6.2831853071796004 $270 $593 forward 7 unknown #
vertex $-1 $273 $594 #
ellipse-curve $-1 -21.868196006699836 -25.017877024572986 5.0714750446288814 0 -0.68199836817093118 0.7313536940579346 1.5 0 0 1 I I #
face $-1 $-1 $434 $59 $-1 $595 forward single #
loop $-1 $-1 $596 $274 #
plane-surface $-1 0 -28.489192369600701 0 0 1 0 0 0 1 forward_v I I I I #
coedge $-1 $597 $598 $599 $600 reversed $275 $-1 #
coedge $-1 $601 $277 $279 $432 forward $173 $-1 #
coedge $-1 $277 $601 $597 $602 forward $173 $-1 #
coedge $-1 $599 $280 $277 $429 forward $434 $-1 #
edge $-1 $436 -3.9971542242616769 $603 9.8866209932810634 $428 $604 forward 7 unknown #
coedge $-1 $605 $606 $278 $431 forward $423 $-1 #
edge $-1 $607 -33.138377917044977 $435 -26.664269917180071 $430 $608 forward 7 unknown #
edge $-1 $436 -9.4928496929222632 $607 0 $279 $609 forward 7 unknown #
coedge $-1 $280 $599 $605 $610 forward $434 $-1 #
loop $-1 $-1 $599 $422 #
vertex $-1 $431 $611 #
vertex $-1 $281 $612 #
straight-curve $-1 1.0524208397519841 -46.001946877729416 8.3085290445613325 0 1 0 I I #
coedge $-1 $438 $438 $-1 $613 reversed $284 $-1 #
edge $-1 $614 0 $614 6.2831853071796004 $285 $615 forward 7 unknown #
vertex $-1 $288 $616 #
ellipse-curve $-1 -8.8645614584928296 -25.017877024572986 5.0714750446288814 0 -0.68199836817093118 0.7313536940579346 1.5 0 0 1 I I #
coedge $-1 $442 $442 $-1 $617 reversed $291 $-1 #
edge $-1 $618 0 $618 6.2831853071796004 $292 $619 forward 7 unknown #
vertex $-1 $295 $620 #
ellipse-curve $-1 -2.9143720795459416 -25.017877024572986 5.0714750446288814 0 -0.68199836817093118 0.7313536940579346 1.5 0 0 1 I I #
face $-1 $-1 $458 $62 $-1 $621 forward single #
loop $-1 $-1 $622 $296 #
plane-surface $-1 0 -28.489192369600701 0 0 1 0 0 0 1 forward_v I I I I #
coedge $-1 $623 $624 $625 $626 reversed $297 $-1 #
coedge $-1 $627 $299 $301 $456 forward $187 $-1 #
coedge $-1 $299 $627 $623 $628 forward $187 $-1 #
coedge $-1 $625 $302 $299 $453 forward $458 $-1 #
edge $-1 $460 -13.474066187838627 $629 0.40970902970411327 $452 $630 forward 7 unknown #
coedge $-1 $631 $632 $300 $455 forward $447 $-1 #
edge $-1 $633 -33.138377917044977 $459 -26.664269917180071 $454 $634 forward 7 unknown #
edge $-1 $460 -9.4928496929222632 $633 0 $301 $635 forward 7 unknown #
coedge $-1 $302 $625 $631 $636 forward $458 $-1 #
loop $-1 $-1 $625 $446 #
vertex $-1 $455 $637 #
vertex $-1 $303 $638 #
straight-curve $-1 20.006244766905883 -46.001946877729416 8.3085290445613325 0 1 0 I I #
coedge $-1 $462 $462 $-1 $639 reversed $306 $-1 #
edge $-1 $640 0 $640 6.2831853071796004 $307 $641 forward 7 unknown #
vertex $-1 $310 $642 #
ellipse-curve $-1 10.089262468661062 -25.017877024572986 5.0714750446288814 0 -0.68199836817093118 0.7313536940579346 1.5 0 0 1 I I #
coedge $-1 $466 $466 $-1 $643 reversed $313 $-1 #
edge $-1 $644 0 $644 6.2831853071796004 $314 $645 forward 7 unknown #
vertex $-1 $317 $646 #
ellipse-curve $-1 16.03945184760795 -25.017877024572986 5.0714750446288814 0 -0.68199836817093118 0.7313536940579346 1.5 0 0 1 I I #
face $-1 $-1 $482 $65 $-1 $647 forward single #
loop $-1 $-1 $648 $318 #
plane-surface $-1 0 -28.489192369600701 0 0 1 0 0 0 1 forward_v I I I I #
coedge $-1 $649 $650 $651 $652 reversed $319 $-1 #
coedge $-1 $653 $321 $323 $480 forward $201 $-1 #
coedge $-1 $321 $653 $649 $654 forward $201 $-1 #
coedge $-1 $651 $324 $321 $477 forward $482 $-1 #
edge $-1 $484 -22.950978151415569 $655 -9.0672029338728315 $476 $656 forward 7 unknown #
coedge $-1 $657 $658 $322 $479 forward $471 $-1 #
edge $-1 $659 -33.138377917044977 $483 -26.664269917180071 $478 $660 forward 7 unknown #
edge $-1 $484 -9.4928496929222632 $659 0 $323 $661 forward 7 unknown #
coedge $-1 $324 $651 $657 $662 forward $482 $-1 #
loop $-1 $-1 $651 $470 #
vertex $-1 $479 $663 #
vertex $-1 $325 $664 #
straight-curve $-1 38.960068694059771 -46.001946877729416 8.3085290445613325 0 1 0 I I #
coedge $-1 $486 $486 $-1 $665 reversed $328 $-1 #
edge $-1 $666 0 $666 6.2831853071796004 $329 $667 forward 7 unknown #
vertex $-1 $332 $668 #
ellipse-curve $-1 29.043086395814953 -25.017877024572986 5.0714750446288814 0 -0.68199836817093118 0.7313536940579346 1.5 0 0 1 I I #
coedge $-1 $490 $490 $-1 $669 reversed $335 $-1 #
edge $-1 $670 0 $670 6.2831853071796004 $336 $671 forward 7 unknown #
vertex $-1 $339 $672 #
ellipse-curve $-1 34.993275774761841 -25.017877024572986 5.0714750446288814 0 -0.68199836817093118 0.7313536940579346 1.5 0 0 1 I I #
face $-1 $-1 $355 $51 $-1 $673 reversed single #
loop $-1 $-1 $510 $340 #
plane-surface $-1 0 28.489192369600701 0 0 -1 0 0 0 -1 forward_v I I I I #
coedge $-1 $674 $508 $511 $675 forward $341 $-1 #
coedge $-1 $514 $343 $344 $502 reversed $215 $-1 #
coedge $-1 $508 $674 $343 $500 reversed $341 $-1 #
edge $-1 $515 -8.3085290445613342 $676 8.3085290445613342 $499 $677 forward 7 unknown #
coedge $-1 $345 $344 $674 $678 forward $137 $-1 #
edge $-1 $506 -46.565141758476514 $676 46.565141758476514 $498 $679 forward 7 unknown #
coedge $-1 $511 $510 $345 $504 reversed $495 $-1 #
edge $-1 $680 -46.565141758476514 $505 46.565141758476514 $503 $681 forward 7 unknown #
vertex $-1 $347 $682 #
vertex $-1 $517 $683 #
straight-curve $-1 46.565141758476514 0 -8.3085290445613342 0 -1 0 I I #
coedge $-1 $497 $499 $348 $509 reversed $341 $-1 #
edge $-1 $512 -28.489192369600701 $515 28.489192369600701 $508 $684 forward 7 unknown #
coedge $-1 $503 $349 $354 $518 forward $495 $-1 #
coedge $-1 $349 $503 $497 $675 reversed $495 $-1 #
vertex $-1 $350 $685 #
straight-curve $-1 0 28.489192369600701 8.3085290445613342 -1 0 0 I I #
coedge $-1 $351 $498 $353 $517 reversed $215 $-1 #
vertex $-1 $509 $686 #
straight-curve $-1 0 -28.489192369600701 8.3085290445613342 1 0 0 I I #
edge $-1 $356 -8.3085290445613342 $506 8.3085290445613342 $353 $687 forward 7 unknown #
edge $-1 $357 -8.3085290445613342 $505 8.3085290445613342 $354 $688 forward 7 unknown #
point $-1 46.565141758476514 -28.489192369600701 8.3085290445613342 #
point $-1 46.565141758476514 28.489192369600701 8.3085290445613342 #
face $-1 $-1 $534 $52 $-1 $689 reversed single #
loop $-1 $-1 $530 $359 #
plane-surface $-1 -46.565141758476514 0 0 1 0 0 0 0 -1 forward_v I I I I #
coedge $-1 $690 $362 $527 $691 forward $223 $-1 #
coedge $-1 $362 $690 $692 $693 forward $223 $-1 #
edge $-1 $694 -28.489192369600701 $528 28.489192369600701 $362 $695 forward 7 unknown #
coedge $-1 $364 $537 $524 $691 reversed $360 $-1 #
vertex $-1 $691 $696 #
straight-curve $-1 -39.39025136936138 -28.489192369600701 -3.4042645222806671 0 0 1 I I #
coedge $-1 $697 $698 $366 $531 forward $522 $-1 #
edge $-1 $538 -28.489192369600701 $535 28.489192369600701 $530 $699 forward 7 unknown #
coedge $-1 $692 $367 $371 $540 forward $534 $-1 #
coedge $-1 $367 $692 $697 $700 reversed $534 $-1 #
loop $-1 $-1 $532 $521 #
vertex $-1 $700 $701 #
straight-curve $-1 -21.488848281959473 28.489192369600701 -5.3085290445613342 1 0 0 I I #
coedge $-1 $527 $369 $698 $702 forward $360 $-1 #
vertex $-1 $702 $703 #
straight-curve $-1 -21.488848281959473 -28.489192369600701 -5.3085290445613342 -1 0 0 I I #
edge $-1 $373 1.9042645222806671 $694 4.9042645222806671 $532 $704 forward 7 unknown #
point $-1 -39.39025136936138 -28.489192369600701 -5.3085290445613342 #
point $-1 -39.39025136936138 28.489192369600701 -5.3085290445613342 #
plane-surface $-1 0 0 8.3085290445613342 0 0 1 1 0 0 forward_v I I I I #
coedge $-1 $554 $553 $546 $705 forward $376 $-1 #
coedge $-1 $546 $378 $380 $550 reversed $231 $-1 #
coedge $-1 $378 $545 $544 $705 reversed $231 $-1 #
coedge $-1 $386 $381 $378 $548 forward $387 $-1 #
edge $-1 $551 8.7142380685564618 $706 14.681778901926855 $547 $707 forward 7 unknown #
coedge $-1 $380 $379 $554 $708 reversed $145 $-1 #
edge $-1 $709 -56.978384739201395 $551 -50.016452270309912 $545 $710 forward 7 unknown #
vertex $-1 $382 $711 #
straight-curve $-1 3.6615802319712643 22.521651536230312 8.3085290445613325 1 0 0 I I #
coedge $-1 $544 $383 $386 $558 reversed $376 $-1 #
coedge $-1 $383 $544 $549 $708 forward $376 $-1 #
vertex $-1 $384 $712 #
straight-curve $-1 -4.4471435368800094 28.489192369600701 56.948570015416166 0 0 1 I I #
straight-curve $-1 -4.4471435368800094 -20.350815641107957 34.068906678366375 0 0.85716729658548041 -0.51503808176128008 I I #
edge $-1 $706 -19.093464464765066 $388 4.4471435368800094 $553 $713 forward 7 unknown #
point $-1 -4.4471435368800094 28.489192369600701 8.3085290445613342 #
point $-1 -4.4471435368800094 22.521651536230308 8.3085290445613325 #
edge $-1 $714 1 $714 0 $391 $-1 forward 7 unknown #
vertex $-1 $392 $715 #
ellipse-curve $-1 2.2787444635900087 24.390153174776234 4.6595799613382543 0 0.51503808176128008 0.85716729658548041 1 0 0 1 I I #
point $-1 3.2787444635900087 25.505421952915516 6.5156988724966194 #
edge $-1 $716 1 $716 0 $395 $-1 forward 7 unknown #
vertex $-1 $396 $717 #
ellipse-curve $-1 12.367576464295041 24.390153174776234 4.6595799613382543 0 0.51503808176128008 0.85716729658548041 1 0 0 1 I I #
point $-1 13.367576464295041 25.505421952915516 6.5156988724966194 #
loop $-1 $-1 $407 $399 #
plane-surface $-1 0 -28.489192369600701 0 0 1 0 0 0 1 forward_v I I I I #
coedge $-1 $572 $402 $404 $576 reversed $253 $-1 #
coedge $-1 $402 $571 $718 $719 reversed $253 $-1 #
coedge $-1 $410 $405 $402 $574 forward $400 $-1 #
edge $-1 $577 -24.455385198184143 $720 -17.512754508128715 $573 $721 forward 7 unknown #
coedge $-1 $404 $403 $580 $722 reversed $159 $-1 #
edge $-1 $723 0 $577 9.4928496929222632 $571 $724 forward 7 unknown #
vertex $-1 $406 $725 #
straight-curve $-1 -12.42164534808664 -21.546561679545277 8.3085290445613342 -1 0 0 I I #
coedge $-1 $718 $407 $410 $584 reversed $569 $-1 #
coedge $-1 $407 $718 $575 $722 forward $569 $-1 #
vertex $-1 $408 $726 #
straight-curve $-1 -17.90140308740191 -28.489192369600701 34.972798961741404 0 0 1 I I #
straight-curve $-1 -17.90140308740191 -28.489192369600701 1.8344210446964269 0 -0.7313536940579346 -0.68199836817093118 I I #
edge $-1 $720 -31.785178304944651 $411 -17.90140308740191 $579 $727 forward 7 unknown #
point $-1 -17.90140308740191 -28.489192369600701 8.3085290445613342 #
point $-1 -17.90140308740191 -21.546561679545274 8.3085290445613342 #
edge $-1 $728 1 $728 0 $414 $-1 forward 7 unknown #
vertex $-1 $415 $729 #
ellipse-curve $-1 -27.818385385646724 -22.399175627186533 2.2632616675944544 0 -0.68199836817093118 0.7313536940579346 1.5 0 0 1 I I #
point $-1 -26.318385385646724 -25.017877024572989 5.0714750446288832 #
edge $-1 $730 1 $730 0 $418 $-1 forward 7 unknown #
vertex $-1 $419 $731 #
ellipse-curve $-1 -21.868196006699836 -22.399175627186533 2.2632616675944544 0 -0.68199836817093118 0.7313536940579346 1.5 0 0 1 I I #
point $-1 -20.368196006699836 -25.017877024572989 5.0714750446288832 #
plane-surface $-1 0 0 8.3085290445613342 0 0 1 1 0 0 forward_v I I I I #
coedge $-1 $606 $605 $598 $732 forward $423 $-1 #
coedge $-1 $598 $425 $427 $602 reversed $275 $-1 #
coedge $-1 $425 $597 $596 $732 reversed $275 $-1 #
coedge $-1 $433 $428 $425 $600 forward $434 $-1 #
edge $-1 $603 -24.455385198184143 $733 -17.512754508128715 $599 $734 forward 7 unknown #
coedge $-1 $427 $426 $606 $735 reversed $173 $-1 #
edge $-1 $736 0 $603 9.4928496929222632 $597 $737 forward 7 unknown #
vertex $-1 $429 $738 #
straight-curve $-1 -2.9447333845096928 -21.546561679545277 8.3085290445613342 -1 0 0 I I #
coedge $-1 $596 $430 $433 $610 reversed $423 $-1 #
coedge $-1 $430 $596 $601 $735 forward $423 $-1 #
vertex $-1 $431 $739 #
straight-curve $-1 1.0524208397519841 -28.489192369600701 34.972798961741404 0 0 1 I I #
straight-curve $-1 1.0524208397519841 -28.489192369600701 1.8344210446964269 0 -0.7313536940579346 -0.68199836817093118 I I #
edge $-1 $733 -12.831354377790756 $435 1.0524208397519841 $605 $740 forward 7 unknown #
point $-1 1.0524208397519841 -28.489192369600701 8.3085290445613342 #
point $-1 1.0524208397519841 -21.546561679545274 8.3085290445613342 #
edge $-1 $741 1 $741 0 $438 $-1 forward 7 unknown #
vertex $-1 $439 $742 #
ellipse-curve $-1 -8.8645614584928296 -22.399175627186533 2.2632616675944544 0 -0.68199836817093118 0.7313536940579346 1.5 0 0 1 I I #
point $-1 -7.3645614584928296 -25.017877024572989 5.0714750446288832 #
edge $-1 $743 1 $743 0 $442 $-1 forward 7 unknown #
vertex $-1 $443 $744 #
ellipse-curve $-1 -2.9143720795459416 -22.399175627186533 2.2632616675944544 0 -0.68199836817093118 0.7313536940579346 1.5 0 0 1 I I #
point $-1 -1.4143720795459416 -25.017877024572989 5.0714750446288832 #
plane-surface $-1 0 0 8.3085290445613342 0 0 1 1 0 0 forward_v I I I I #
coedge $-1 $632 $631 $624 $745 forward $447 $-1 #
coedge $-1 $624 $449 $451 $628 reversed $297 $-1 #
coedge $-1 $449 $623 $622 $745 reversed $297 $-1 #
coedge $-1 $457 $452 $449 $626 forward $458 $-1 #
edge $-1 $629 -24.455385198184143 $746 -17.512754508128715 $625 $747 forward 7 unknown #
coedge $-1 $451 $450 $632 $748 reversed $187 $-1 #
edge $-1 $749 0 $629 9.4928496929222632 $623 $750 forward 7 unknown #
vertex $-1 $453 $751 #
straight-curve $-1 6.5321785790672564 -21.546561679545277 8.3085290445613342 -1 0 0 I I #
coedge $-1 $622 $454 $457 $636 reversed $447 $-1 #
coedge $-1 $454 $622 $627 $748 forward $447 $-1 #
vertex $-1 $455 $752 #
straight-curve $-1 20.006244766905883 -28.489192369600701 34.972798961741404 0 0 1 I I #
straight-curve $-1 20.006244766905883 -28.489192369600701 1.8344210446964269 0 -0.7313536940579346 -0.68199836817093118 I I #
edge $-1 $746 6.1224695493631431 $459 20.006244766905883 $631 $753 forward 7 unknown #
point $-1 20.006244766905883 -28.489192369600701 8.3085290445613342 #
point $-1 20.006244766905883 -21.546561679545274 8.3085290445613342 #
edge $-1 $754 1 $754 0 $462 $-1 forward 7 unknown #
vertex $-1 $463 $755 #
ellipse-curve $-1 10.089262468661062 -22.399175627186533 2.2632616675944544 0 -0.68199836817093118 0.7313536940579346 1.5 0 0 1 I I #
point $-1 11.589262468661062 -25.017877024572989 5.0714750446288832 #
edge $-1 $756 1 $756 0 $466 $-1 forward 7 unknown #
vertex $-1 $467 $757 #
ellipse-curve $-1 16.03945184760795 -22.399175627186533 2.2632616675944544 0 -0.68199836817093118 0.7313536940579346 1.5 0 0 1 I I #
point $-1 17.53945184760795 -25.017877024572989 5.0714750446288832 #
plane-surface $-1 0 0 8.3085290445613342 0 0 1 1 0 0 forward_v I I I I #
coedge $-1 $658 $657 $650 $758 forward $471 $-1 #
coedge $-1 $650 $473 $475 $654 reversed $319 $-1 #
coedge $-1 $473 $649 $648 $758 reversed $319 $-1 #
coedge $-1 $481 $476 $473 $652 forward $482 $-1 #
edge $-1 $655 -24.455385198184143 $759 -17.512754508128715 $651 $760 forward 7 unknown #
coedge $-1 $475 $474 $658 $761 reversed $201 $-1 #
edge $-1 $762 0 $655 9.4928496929222632 $649 $763 forward 7 unknown #
vertex $-1 $477 $764 #
straight-curve $-1 16.009090542644202 -21.546561679545277 8.3085290445613342 -1 0 0 I I #
coedge $-1 $648 $478 $481 $662 reversed $471 $-1 #
coedge $-1 $478 $648 $653 $761 forward $471 $-1 #
vertex $-1 $479 $765 #
straight-curve $-1 38.960068694059771 -28.489192369600701 34.972798961741404 0 0 1 I I #
straight-curve $-1 38.960068694059771 -28.489192369600701 1.8344210446964269 0 -0.7313536940579346 -0.68199836817093118 I I #
edge $-1 $759 25.076293476517034 $483 38.960068694059771 $657 $766 forward 7 unknown #
point $-1 38.960068694059771 -28.489192369600701 8.3085290445613342 #
point $-1 38.960068694059771 -21.546561679545274 8.3085290445613342 #
edge $-1 $767 1 $767 0 $486 $-1 forward 7 unknown #
vertex $-1 $487 $768 #
ellipse-curve $-1 29.043086395814953 -22.399175627186533 2.2632616675944544 0 -0.68199836817093118 0.7313536940579346 1.5 0 0 1 I I #
point $-1 30.543086395814953 -25.017877024572989 5.0714750446288832 #
edge $-1 $769 1 $769 0 $490 $-1 forward 7 unknown #
vertex $-1 $491 $770 #
ellipse-curve $-1 34.993275774761841 -22.399175627186533 2.2632616675944544 0 -0.68199836817093118 0.7313536940579346 1.5 0 0 1 I I #
point $-1 36.493275774761841 -25.017877024572989 5.0714750446288832 #
plane-surface $-1 46.565141758476514 0 0 -1 0 0 0 0 1 forward_v I I I I #
coedge $-1 $499 $497 $501 $678 reversed $341 $-1 #
edge $-1 $512 -8.3085290445613342 $680 8.3085290445613342 $511 $771 forward 7 unknown #
vertex $-1 $678 $772 #
straight-curve $-1 -46.565141758476514 -28.489192369600701 0 0 0 -1 I I #
edge $-1 $676 -28.489192369600701 $680 28.489192369600701 $674 $773 forward 7 unknown #
straight-curve $-1 0 -28.489192369600701 -8.3085290445613342 -1 0 0 I I #
vertex $-1 $504 $774 #
straight-curve $-1 0 28.489192369600701 -8.3085290445613342 1 0 0 I I #
point $-1 46.565141758476514 28.489192369600701 -8.3085290445613342 #
point $-1 46.565141758476514 -28.489192369600701 -8.3085290445613342 #
straight-curve $-1 -46.565141758476514 0 8.3085290445613342 0 -1 0 I I #
point $-1 -46.565141758476514 28.489192369600701 8.3085290445613342 #
point $-1 -46.565141758476514 -28.489192369600701 8.3085290445613342 #
straight-curve $-1 46.565141758476514 -28.489192369600701 0 0 0 -1 I I #
straight-curve $-1 46.565141758476514 28.489192369600701 0 0 0 -1 I I #
plane-surface $-1 0 28.489192369600701 0 0 -1 0 0 0 -1 forward_v I I I I #
coedge $-1 $525 $524 $775 $776 forward $223 $-1 #
edge $-1 $528 39.39025136936138 $777 46.565141758476514 $527 $778 forward 7 unknown #
coedge $-1 $533 $532 $525 $693 reversed $534 $-1 #
edge $-1 $779 -46.565141758476514 $694 -39.39025136936138 $692 $780 forward 7 unknown #
vertex $-1 $540 $781 #
straight-curve $-1 -39.39025136936138 0 -8.3085290445613342 0 -1 0 I I #
point $-1 -39.39025136936138 -28.489192369600701 -8.3085290445613342 #
coedge $-1 $775 $530 $533 $700 forward $522 $-1 #
coedge $-1 $530 $775 $537 $702 reversed $522 $-1 #
straight-curve $-1 -46.565141758476514 0 -5.3085290445613342 0 1 0 I I #
edge $-1 $535 5.3085290445613342 $779 8.3085290445613342 $533 $782 forward 7 unknown #
point $-1 -46.565141758476514 28.489192369600701 -5.3085290445613342 #
edge $-1 $538 5.3085290445613342 $777 8.3085290445613342 $698 $783 forward 7 unknown #
point $-1 -46.565141758476514 -28.489192369600701 -5.3085290445613342 #
straight-curve $-1 -39.39025136936138 28.489192369600701 -3.4042645222806671 0 0 -1 I I #
edge $-1 $706 48.640040970854834 $709 52.225701314984278 $544 $784 forward 7 unknown #
vertex $-1 $558 $785 #
straight-curve $-1 19.093464464765066 13.807413467673847 8.3085290445613325 0 1 0 I I #
edge $-1 $709 -15.431884232793802 $555 8.1087237688512737 $554 $786 forward 7 unknown #
vertex $-1 $708 $787 #
straight-curve $-1 19.093464464765066 -20.350815641107957 34.068906678366375 0 -0.85716729658548041 0.51503808176128008 I I #
point $-1 19.093464464765066 22.521651536230308 8.3085290445613325 #
point $-1 -4.4471435368800094 28.489192369600701 4.7228687004318886 #
straight-curve $-1 0 28.489192369600701 8.3085290445613342 -1 0 0 I I #
vertex $-1 $561 $788 #
point $-1 3.2787444635900087 24.390153174776234 4.6595799613382543 #
vertex $-1 $565 $789 #
point $-1 13.367576464295041 24.390153174776234 4.6595799613382543 #
coedge $-1 $580 $579 $572 $719 forward $569 $-1 #
edge $-1 $720 26.664269917180071 $723 33.138377917044977 $718 $790 forward 7 unknown #
vertex $-1 $584 $791 #
straight-curve $-1 -31.785178304944651 -46.001946877729416 8.3085290445613325 0 -1 0 I I #
edge $-1 $723 -19.363532956858009 $581 -5.4797577393152697 $580 $792 forward 7 unknown #
vertex $-1 $722 $793 #
straight-curve $-1 -31.785178304944651 -28.489192369600701 1.8344210446964269 0 0.7313536940579346 0.68199836817093118 I I #
point $-1 -31.785178304944651 -21.546561679545274 8.3085290445613342 #
point $-1 -17.90140308740191 -28.489192369600701 1.8344210446964269 #
straight-curve $-1 0 -28.489192369600701 8.3085290445613342 1 0 0 I I #
vertex $-1 $587 $794 #
point $-1 -26.318385385646724 -22.399175627186533 2.2632616675944544 #
vertex $-1 $591 $795 #
point $-1 -20.368196006699836 -22.399175627186533 2.2632616675944544 #
edge $-1 $733 26.664269917180071 $736 33.138377917044977 $596 $796 forward 7 unknown #
vertex $-1 $610 $797 #
straight-curve $-1 -12.831354377790756 -46.001946877729416 8.3085290445613325 0 -1 0 I I #
edge $-1 $736 -9.8866209932810634 $607 3.9971542242616769 $606 $798 forward 7 unknown #
vertex $-1 $735 $799 #
straight-curve $-1 -12.831354377790756 -28.489192369600701 1.8344210446964269 0 0.7313536940579346 0.68199836817093118 I I #
point $-1 -12.831354377790756 -21.546561679545274 8.3085290445613342 #
point $-1 1.0524208397519841 -28.489192369600701 1.8344210446964269 #
straight-curve $-1 0 -28.489192369600701 8.3085290445613342 1 0 0 I I #
vertex $-1 $613 $800 #
point $-1 -7.3645614584928296 -22.399175627186533 2.2632616675944544 #
vertex $-1 $617 $801 #
point $-1 -1.4143720795459416 -22.399175627186533 2.2632616675944544 #
edge $-1 $746 26.664269917180071 $749 33.138377917044977 $622 $802 forward 7 unknown #
vertex $-1 $636 $803 #
straight-curve $-1 6.1224695493631431 -46.001946877729416 8.3085290445613325 0 -1 0 I I #
edge $-1 $749 -0.40970902970411327 $633 13.474066187838627 $632 $804 forward 7 unknown #
vertex $-1 $748 $805 #
straight-curve $-1 6.1224695493631431 -28.489192369600701 1.8344210446964269 0 0.7313536940579346 0.68199836817093118 I I #
point $-1 6.1224695493631431 -21.546561679545274 8.3085290445613342 #
point $-1 20.006244766905883 -28.489192369600701 1.8344210446964269 #
straight-curve $-1 0 -28.489192369600701 8.3085290445613342 1 0 0 I I #
vertex $-1 $639 $806 #
point $-1 11.589262468661062 -22.399175627186533 2.2632616675944544 #
vertex $-1 $643 $807 #
point $-1 17.53945184760795 -22.399175627186533 2.2632616675944544 #
edge $-1 $759 26.664269917180071 $762 33.138377917044977 $648 $808 forward 7 unknown #
vertex $-1 $662 $809 #
straight-curve $-1 25.076293476517034 -46.001946877729416 8.3085290445613325 0 -1 0 I I #
edge $-1 $762 9.0672029338728315 $659 22.950978151415569 $658 $810 forward 7 unknown #
vertex $-1 $761 $811 #
straight-curve $-1 25.076293476517034 -28.489192369600701 1.8344210446964269 0 0.7313536940579346 0.68199836817093118 I I #
point $-1 25.076293476517034 -21.546561679545274 8.3085290445613342 #
point $-1 38.960068694059771 -28.489192369600701 1.8344210446964269 #
straight-curve $-1 0 -28.489192369600701 8.3085290445613342 1 0 0 I I #
vertex $-1 $665 $812 #
point $-1 30.543086395814953 -22.399175627186533 2.2632616675944544 #
vertex $-1 $669 $813 #
point $-1 36.493275774761841 -22.399175627186533 2.2632616675944544 #
straight-curve $-1 -46.565141758476514 28.489192369600701 0 0 0 -1 I I #
point $-1 -46.565141758476514 -28.489192369600701 -8.3085290445613342 #
straight-curve $-1 -46.565141758476514 0 -8.3085290445613342 0 1 0 I I #
point $-1 -46.565141758476514 28.489192369600701 -8.3085290445613342 #
coedge $-1 $698 $697 $690 $776 reversed $522 $-1 #
edge $-1 $777 -28.489192369600701 $779 28.489192369600701 $775 $814 forward 7 unknown #
vertex $-1 $776 $815 #
straight-curve $-1 0 -28.489192369600701 -8.3085290445613342 -1 0 0 I I #
vertex $-1 $693 $816 #
straight-curve $-1 0 28.489192369600701 -8.3085290445613342 1 0 0 I I #
point $-1 -39.39025136936138 28.489192369600701 -8.3085290445613342 #
straight-curve $-1 -46.565141758476514 28.489192369600701 0 0 0 -1 I I #
straight-curve $-1 -46.565141758476514 -28.489192369600701 0 0 0 -1 I I #
straight-curve $-1 19.093464464765066 28.489192369600701 56.948570015416166 0 0 -1 I I #
point $-1 19.093464464765066 28.489192369600701 8.3085290445613342 #
straight-curve $-1 3.6615802319712643 28.489192369600694 4.7228687004318939 -1 0 0 I I #
point $-1 19.093464464765066 28.489192369600701 4.7228687004318886 #
point $-1 2.2787444635900087 23.875115093014951 3.8024126647527741 #
point $-1 12.367576464295041 23.875115093014951 3.8024126647527741 #
straight-curve $-1 -31.785178304944651 -28.489192369600701 34.972798961741404 0 0 -1 I I #
point $-1 -31.785178304944651 -28.489192369600701 8.3085290445613342 #
straight-curve $-1 -12.42164534808664 -28.489192369600701 1.834421044696428 1 0 0 I I #
point $-1 -31.785178304944651 -28.489192369600701 1.8344210446964269 #
point $-1 -27.818385385646724 -21.376178074930134 1.1662311265075527 #
point $-1 -21.868196006699836 -21.376178074930134 1.1662311265075527 #
straight-curve $-1 -12.831354377790756 -28.489192369600701 34.972798961741404 0 0 -1 I I #
point $-1 -12.831354377790756 -28.489192369600701 8.3085290445613342 #
straight-curve $-1 -2.9447333845096928 -28.489192369600701 1.834421044696428 1 0 0 I I #
point $-1 -12.831354377790756 -28.489192369600701 1.8344210446964269 #
point $-1 -8.8645614584928296 -21.376178074930134 1.1662311265075527 #
point $-1 -2.9143720795459416 -21.376178074930134 1.1662311265075527 #
straight-curve $-1 6.1224695493631431 -28.489192369600701 34.972798961741404 0 0 -1 I I #
point $-1 6.1224695493631431 -28.489192369600701 8.3085290445613342 #
straight-curve $-1 6.5321785790672564 -28.489192369600701 1.834421044696428 1 0 0 I I #
point $-1 6.1224695493631431 -28.489192369600701 1.8344210446964269 #
point $-1 10.089262468661062 -21.376178074930134 1.1662311265075527 #
point $-1 16.03945184760795 -21.376178074930134 1.1662311265075527 #
straight-curve $-1 25.076293476517034 -28.489192369600701 34.972798961741404 0 0 -1 I I #
point $-1 25.076293476517034 -28.489192369600701 8.3085290445613342 #
straight-curve $-1 16.009090542644202 -28.489192369600701 1.834421044696428 1 0 0 I I #
point $-1 25.076293476517034 -28.489192369600701 1.8344210446964269 #
point $-1 29.043086395814953 -21.376178074930134 1.1662311265075527 #
point $-1 34.993275774761841 -21.376178074930134 1.1662311265075527 #
straight-curve $-1 -46.565141758476514 0 -8.3085290445613342 0 1 0 I I #
point $-1 -46.565141758476514 -28.489192369600701 -8.3085290445613342 #
point $-1 -46.565141758476514 28.489192369600701 -8.3085290445613342 #
End-of-ACIS-data 