500 0 5 0           
7 Unknown 11 ACIS 5.0 NT 24 Thu Mar 25 15:09:26 1999 
-1 9.9999999999999995e-007 1e-010 
body $-1 $5 $-1 $6 #
body $-1 $7 $-1 $8 #
body $-1 $9 $-1 $10 #
body $-1 $11 $-1 $12 #
body $-1 $13 $-1 $14 #
lump $-1 $-1 $15 $0 #
transform $-1 1 0 0 0 1 0 0 0 1 69.439374980925933 40.73499758547802 9.9326909301569355 1 rotate no_reflect no_shear #
lump $-1 $-1 $16 $1 #
transform $-1 1 0 0 0 1 0 0 0 1 69.439374980925933 40.73499758547802 9.9326909301569355 1 rotate no_reflect no_shear #
lump $-1 $-1 $17 $2 #
transform $-1 1 0 0 0 1 0 0 0 1 69.439374980925933 40.73499758547802 9.9326909301569355 1 rotate no_reflect no_shear #
lump $-1 $-1 $18 $3 #
transform $-1 1 0 0 0 1 0 0 0 1 69.439374980925933 40.73499758547802 9.9326909301569355 1 rotate no_reflect no_shear #
lump $-1 $-1 $19 $4 #
transform $-1 1 0 0 0 1 0 0 0 1 69.439374980925933 40.73499758547802 9.9326909301569355 1 rotate no_reflect no_shear #
shell $-1 $-1 $-1 $20 $-1 $5 #
shell $-1 $-1 $-1 $21 $-1 $7 #
shell $-1 $-1 $-1 $22 $-1 $9 #
shell $-1 $-1 $-1 $23 $-1 $11 #
shell $-1 $-1 $-1 $24 $-1 $13 #
face $-1 $25 $26 $15 $-1 $27 forward single #
face $-1 $28 $29 $16 $-1 $30 forward single #
face $-1 $31 $32 $17 $-1 $33 forward single #
face $-1 $34 $35 $18 $-1 $36 reversed single #
face $-1 $37 $38 $19 $-1 $39 forward single #
face $-1 $40 $41 $15 $-1 $42 reversed single #
loop $-1 $-1 $43 $20 #
plane-surface $-1 0 0 9.9326909301569355 0 0 1 1 0 0 forward_v I I I I #
face $-1 $44 $45 $16 $-1 $46 reversed single #
loop $-1 $-1 $47 $21 #
plane-surface $-1 0 -35.352110826174979 -4.9934150564375503 0 0 1 1 0 0 forward_v I I I I #
face $-1 $48 $49 $17 $-1 $50 reversed single #
loop $-1 $-1 $51 $22 #
plane-surface $-1 0 35.352110826174972 -4.9934150564375503 0 0 1 1 0 0 forward_v I I I I #
face $-1 $52 $53 $18 $-1 $54 reversed single #
loop $-1 $-1 $55 $23 #
plane-surface $-1 21.924897300711123 0.22674407761689253 196.06012595524811 0 -1 0 -0.51503808176128008 0 -0.85716729658548041 forward_v I I I I #
face $-1 $56 $57 $19 $-1 $58 forward single #
loop $-1 $59 $60 $24 #
cone-surface $-1 65.308028375950002 -8.3252328556272275 6.9884077193805307 -0.51503808176128008 0 -0.85716729658548041 0.85716729658548041 0 -0.51503808176128008 1 I I 0 1 1 forward I I I I #
face $-1 $61 $62 $15 $-1 $63 reversed single #
loop $-1 $-1 $64 $25 #
plane-surface $-1 0 0 -9.9326909301569355 0 0 1 1 0 0 forward_v I I I I #
coedge $-1 $65 $66 $67 $68 forward $26 $-1 #
face $-1 $69 $70 $16 $-1 $71 reversed single #
loop $-1 $-1 $72 $28 #
plane-surface $-1 0 -29.969224066871938 -7.4630529932972429 0 -1 0 0 0 -1 forward_v I I I I #
coedge $-1 $73 $74 $75 $76 reversed $29 $-1 #
face $-1 $77 $78 $17 $-1 $79 reversed single #
loop $-1 $-1 $80 $31 #
plane-surface $-1 0 29.969224066871931 -7.4630529932972429 0 1 0 0 0 1 forward_v I I I I #
coedge $-1 $81 $82 $83 $84 reversed $32 $-1 #
face $-1 $85 $86 $18 $-1 $87 reversed single #
loop $-1 $-1 $88 $34 #
plane-surface $-1 -49.602947677045506 -8.3252328556272275 77.017803297276657 0.51503808176128008 0 0.85716729658548041 0.85716729658548041 0 -0.51503808176128008 forward_v I I I I #
coedge $-1 $89 $90 $91 $92 reversed $35 $-1 #
face $-1 $-1 $93 $19 $-1 $94 forward single #
loop $-1 $95 $96 $37 #
cone-surface $-1 64.616137027886126 -8.3252328556272275 5.836907165629869 -0.51503808176128008 0 -0.85716729658548041 0.4285836482927402 0 -0.25751904088064004 1 I I -0.70710678118654746 0.70710678118654746 0.5 forward I I I I #
loop $-1 $-1 $97 $24 #
coedge $-1 $60 $60 $98 $99 reversed $38 $-1 #
face $-1 $100 $101 $15 $-1 $102 reversed single #
loop $-1 $-1 $103 $40 #
plane-surface $-1 0 -40.73499758547802 0 0 1 0 0 0 1 forward_v I I I I #
coedge $-1 $104 $105 $106 $107 forward $41 $-1 #
coedge $-1 $108 $43 $109 $110 forward $26 $-1 #
coedge $-1 $43 $108 $111 $112 forward $26 $-1 #
coedge $-1 $113 $114 $43 $68 reversed $115 $-1 #
edge $-1 $116 -40.73499758547802 $117 40.73499758547802 $67 $118 forward 7 unknown #
face $-1 $119 $120 $16 $-1 $121 reversed single #
loop $-1 $-1 $122 $44 #
plane-surface $-1 0 0 -9.9326909301569355 0 0 1 1 0 0 forward_v I I I I #
coedge $-1 $123 $124 $125 $126 reversed $45 $-1 #
coedge $-1 $127 $47 $124 $128 forward $29 $-1 #
coedge $-1 $47 $127 $129 $130 reversed $29 $-1 #
coedge $-1 $131 $125 $47 $76 forward $120 $-1 #
edge $-1 $132 12.293168653784448 $133 23.05894217239053 $75 $134 forward 7 unknown #
face $-1 $135 $136 $17 $-1 $137 reversed single #
loop $-1 $-1 $83 $48 #
plane-surface $-1 69.439374980925933 0 0 -1 0 0 0 0 1 forward_v I I I I #
coedge $-1 $138 $139 $140 $141 reversed $49 $-1 #
coedge $-1 $142 $51 $143 $144 reversed $32 $-1 #
coedge $-1 $51 $142 $139 $145 forward $32 $-1 #
coedge $-1 $146 $147 $51 $84 forward $78 $-1 #
edge $-1 $148 -23.058942172390527 $149 -12.293168653784445 $83 $150 forward 7 unknown #
face $-1 $151 $152 $18 $-1 $153 forward single #
loop $-1 $-1 $154 $52 #
plane-surface $-1 21.924897300711123 -16.877209788871347 196.06012595524811 0 1 0 0.51503808176128008 0 0.85716729658548041 forward_v I I I I #
coedge $-1 $155 $156 $157 $158 reversed $53 $-1 #
coedge $-1 $90 $55 $159 $160 reversed $35 $-1 #
coedge $-1 $55 $89 $155 $161 reversed $35 $-1 #
coedge $-1 $157 $162 $55 $92 forward $152 $-1 #
edge $-1 $163 -58.476926330570372 $164 -51.082977734985029 $91 $165 forward 7 unknown #
loop $-1 $-1 $98 $56 #
plane-surface $-1 -49.602947677045506 -8.3252328556272275 77.017803297276657 0.51503808176128008 0 0.85716729658548041 0.85716729658548041 0 -0.51503808176128008 forward_v I I I I #
loop $-1 $-1 $166 $37 #
coedge $-1 $96 $96 $97 $167 reversed $57 $-1 #
coedge $-1 $97 $97 $96 $167 forward $59 $-1 #
coedge $-1 $98 $98 $60 $99 forward $93 $-1 #
edge $-1 $168 0 $168 6.2831853071796004 $98 $169 forward 7 unknown #
face $-1 $170 $171 $15 $-1 $172 reversed single #
loop $-1 $-1 $173 $61 #
plane-surface $-1 -69.439374980925933 0 0 1 0 0 0 0 -1 forward_v I I I I #
coedge $-1 $174 $111 $175 $176 forward $62 $-1 #
coedge $-1 $177 $64 $174 $178 forward $41 $-1 #
coedge $-1 $64 $177 $179 $180 forward $41 $-1 #
coedge $-1 $114 $113 $64 $107 reversed $115 $-1 #
edge $-1 $181 -40.73499758547802 $182 40.73499758547802 $106 $183 forward 7 unknown #
coedge $-1 $66 $65 $184 $185 forward $26 $-1 #
coedge $-1 $186 $187 $65 $110 reversed $171 $-1 #
edge $-1 $117 -69.439374980925933 $188 69.439374980925933 $109 $189 forward 7 unknown #
coedge $-1 $103 $190 $66 $112 reversed $62 $-1 #
edge $-1 $191 -69.439374980925933 $116 69.439374980925933 $111 $192 forward 7 unknown #
coedge $-1 $106 $67 $190 $193 forward $115 $-1 #
coedge $-1 $67 $106 $186 $194 reversed $115 $-1 #
loop $-1 $-1 $113 $170 #
vertex $-1 $68 $195 #
vertex $-1 $68 $196 #
straight-curve $-1 69.439374980925933 0 9.9326909301569355 0 1 0 I I #
face $-1 $197 $198 $16 $-1 $199 reversed single #
loop $-1 $-1 $125 $69 #
plane-surface $-1 69.439374980925933 0 0 -1 0 0 0 0 1 forward_v I I I I #
coedge $-1 $200 $201 $123 $202 forward $70 $-1 #
coedge $-1 $203 $72 $122 $202 reversed $45 $-1 #
coedge $-1 $72 $203 $73 $128 reversed $45 $-1 #
coedge $-1 $75 $204 $72 $126 forward $120 $-1 #
edge $-1 $205 -6.201164433508314 $132 -1.2618885597889289 $125 $206 forward 7 unknown #
coedge $-1 $74 $73 $207 $208 reversed $29 $-1 #
edge $-1 $132 -69.439374980925933 $209 69.439374980925933 $124 $210 forward 7 unknown #
coedge $-1 $211 $212 $74 $130 forward $198 $-1 #
edge $-1 $133 -69.439374980925933 $213 69.439374980925933 $129 $214 forward 7 unknown #
coedge $-1 $204 $75 $212 $215 forward $120 $-1 #
vertex $-1 $76 $216 #
vertex $-1 $215 $217 #
straight-curve $-1 69.439374980925933 -17.676055413087489 -4.9934150564375503 0 -1 0 I I #
face $-1 $218 $219 $17 $-1 $220 reversed single #
loop $-1 $-1 $221 $77 #
plane-surface $-1 0 0 -9.9326909301569355 0 0 1 1 0 0 forward_v I I I I #
coedge $-1 $222 $80 $221 $223 reversed $49 $-1 #
coedge $-1 $80 $222 $82 $145 reversed $49 $-1 #
coedge $-1 $224 $225 $80 $141 forward $219 $-1 #
edge $-1 $226 -6.201164433508314 $227 -1.2618885597889289 $140 $228 forward 7 unknown #
coedge $-1 $82 $81 $224 $229 reversed $32 $-1 #
coedge $-1 $230 $231 $81 $144 forward $232 $-1 #
edge $-1 $233 -69.439374980925933 $148 69.439374980925933 $143 $234 forward 7 unknown #
edge $-1 $227 -69.439374980925933 $149 69.439374980925933 $139 $235 forward 7 unknown #
coedge $-1 $236 $83 $222 $237 forward $78 $-1 #
coedge $-1 $83 $236 $230 $238 reversed $78 $-1 #
vertex $-1 $238 $239 #
vertex $-1 $84 $240 #
straight-curve $-1 69.439374980925933 17.676055413087486 -4.9934150564375503 0 -1 0 I I #
face $-1 $-1 $241 $18 $-1 $242 reversed single #
loop $-1 $-1 $91 $85 #
plane-surface $-1 0 0 9.9326909301569355 0 0 1 1 0 0 forward_v I I I I #
coedge $-1 $243 $244 $245 $246 reversed $86 $-1 #
coedge $-1 $247 $88 $90 $161 forward $53 $-1 #
coedge $-1 $88 $247 $243 $248 forward $53 $-1 #
coedge $-1 $245 $91 $88 $158 forward $152 $-1 #
edge $-1 $164 -4.3893605054305063 $249 12.714593361057734 $157 $250 forward 7 unknown #
coedge $-1 $251 $252 $89 $160 forward $241 $-1 #
edge $-1 $253 -92.540104658104013 $163 -88.097372047467118 $159 $254 forward 7 unknown #
edge $-1 $164 130.25272255152123 $253 138.87874996185184 $90 $255 forward 7 unknown #
coedge $-1 $91 $245 $251 $256 forward $152 $-1 #
vertex $-1 $160 $257 #
vertex $-1 $92 $258 #
straight-curve $-1 10.962448650355562 0.22674407761689253 9.9326909301569373 -1 0 0 I I #
coedge $-1 $166 $166 $-1 $259 reversed $95 $-1 #
edge $-1 $260 0 $260 6.2831853071796004 $96 $261 forward 7 unknown #
vertex $-1 $99 $262 #
ellipse-curve $-1 65.742400683133255 -8.3252328556272275 7.7113246248384879 0.51503808176128008 0 0.85716729658548041 0.85716729658548041 0 -0.51503808176128008 1 I I #
face $-1 $-1 $115 $15 $-1 $263 reversed single #
loop $-1 $-1 $186 $100 #
plane-surface $-1 0 40.73499758547802 0 0 -1 0 0 0 -1 forward_v I I I I #
coedge $-1 $264 $184 $187 $265 forward $101 $-1 #
coedge $-1 $190 $103 $104 $178 reversed $62 $-1 #
coedge $-1 $184 $264 $103 $176 reversed $101 $-1 #
edge $-1 $191 -9.9326909301569355 $266 9.9326909301569355 $175 $267 forward 7 unknown #
coedge $-1 $105 $104 $264 $268 forward $41 $-1 #
edge $-1 $182 -69.439374980925933 $266 69.439374980925933 $174 $269 forward 7 unknown #
coedge $-1 $187 $186 $105 $180 reversed $171 $-1 #
edge $-1 $270 -69.439374980925933 $181 69.439374980925933 $179 $271 forward 7 unknown #
vertex $-1 $107 $272 #
vertex $-1 $193 $273 #
straight-curve $-1 69.439374980925933 0 -9.9326909301569355 0 -1 0 I I #
coedge $-1 $173 $175 $108 $185 reversed $101 $-1 #
edge $-1 $188 -40.73499758547802 $191 40.73499758547802 $184 $274 forward 7 unknown #
coedge $-1 $179 $109 $114 $194 forward $171 $-1 #
coedge $-1 $109 $179 $173 $265 reversed $171 $-1 #
vertex $-1 $110 $275 #
straight-curve $-1 0 40.73499758547802 9.9326909301569355 -1 0 0 I I #
coedge $-1 $111 $174 $113 $193 reversed $62 $-1 #
vertex $-1 $185 $276 #
straight-curve $-1 0 -40.73499758547802 9.9326909301569355 1 0 0 I I #
edge $-1 $116 -9.9326909301569355 $182 9.9326909301569355 $113 $277 forward 7 unknown #
edge $-1 $117 -9.9326909301569355 $181 9.9326909301569355 $114 $278 forward 7 unknown #
point $-1 69.439374980925933 -40.73499758547802 9.9326909301569355 #
point $-1 69.439374980925933 40.73499758547802 9.9326909301569355 #
face $-1 $-1 $279 $16 $-1 $280 reversed single #
loop $-1 $-1 $129 $119 #
plane-surface $-1 0 -40.73499758547802 0 0 1 0 0 0 1 forward_v I I I I #
coedge $-1 $281 $122 $204 $282 forward $70 $-1 #
coedge $-1 $122 $281 $283 $284 forward $70 $-1 #
edge $-1 $285 -69.439374980925933 $205 69.439374980925933 $122 $286 forward 7 unknown #
coedge $-1 $124 $123 $287 $288 reversed $45 $-1 #
coedge $-1 $125 $131 $200 $282 reversed $120 $-1 #
vertex $-1 $282 $289 #
straight-curve $-1 69.439374980925933 -29.969224066871938 -3.7315264966486215 0 0 1 I I #
coedge $-1 $287 $290 $127 $208 forward $279 $-1 #
edge $-1 $213 -23.05894217239053 $209 -12.293168653784448 $207 $291 forward 7 unknown #
vertex $-1 $208 $292 #
straight-curve $-1 0 -29.969224066871938 -4.9934150564375503 -1 0 0 I I #
coedge $-1 $293 $129 $290 $294 forward $198 $-1 #
coedge $-1 $129 $293 $131 $215 reversed $198 $-1 #
vertex $-1 $294 $295 #
straight-curve $-1 0 -40.73499758547802 -4.9934150564375503 -1 0 0 I I #
edge $-1 $133 4.9934150564375503 $296 9.9326909301569355 $131 $297 forward 7 unknown #
point $-1 69.439374980925933 -29.969224066871938 -4.9934150564375503 #
point $-1 69.439374980925933 -40.73499758547802 -4.9934150564375503 #
face $-1 $-1 $232 $17 $-1 $298 reversed single #
loop $-1 $-1 $224 $135 #
plane-surface $-1 -69.439374980925933 0 0 1 0 0 0 0 -1 forward_v I I I I #
coedge $-1 $299 $300 $138 $223 forward $136 $-1 #
coedge $-1 $139 $138 $146 $237 reversed $49 $-1 #
edge $-1 $301 -69.439374980925933 $226 69.439374980925933 $221 $302 forward 7 unknown #
coedge $-1 $303 $140 $142 $229 forward $219 $-1 #
coedge $-1 $140 $303 $299 $304 reversed $219 $-1 #
vertex $-1 $304 $305 #
vertex $-1 $229 $306 #
straight-curve $-1 -69.439374980925933 29.969224066871931 -3.7315264966486215 0 0 1 I I #
edge $-1 $227 12.293168653784445 $233 23.058942172390527 $224 $307 forward 7 unknown #
coedge $-1 $308 $143 $147 $238 forward $232 $-1 #
coedge $-1 $143 $308 $303 $309 reversed $232 $-1 #
loop $-1 $-1 $143 $218 #
vertex $-1 $309 $310 #
straight-curve $-1 0 40.73499758547802 -4.9934150564375503 1 0 0 I I #
straight-curve $-1 0 29.969224066871931 -4.9934150564375503 1 0 0 I I #
coedge $-1 $147 $146 $300 $311 reversed $78 $-1 #
edge $-1 $149 1.2618885597889289 $301 6.201164433508314 $146 $312 forward 7 unknown #
edge $-1 $148 4.9934150564375503 $313 9.9326909301569355 $147 $314 forward 7 unknown #
point $-1 69.439374980925933 40.734997585478013 -4.9934150564375503 #
point $-1 69.439374980925933 29.969224066871931 -4.9934150564375503 #
loop $-1 $-1 $159 $151 #
plane-surface $-1 69.439374980925933 0 0 -1 0 0 0 0 1 forward_v I I I I #
coedge $-1 $244 $154 $156 $248 reversed $86 $-1 #
coedge $-1 $154 $243 $315 $316 reversed $86 $-1 #
coedge $-1 $162 $157 $154 $246 forward $152 $-1 #
edge $-1 $249 51.082977734985029 $317 58.476926330570372 $245 $318 forward 7 unknown #
coedge $-1 $156 $155 $252 $319 reversed $53 $-1 #
edge $-1 $320 -138.87874996185184 $249 -130.25272255152123 $243 $321 forward 7 unknown #
vertex $-1 $158 $322 #
straight-curve $-1 62.045426385340591 -4.1626164278136137 9.9326909301569373 0 -1 0 I I #
coedge $-1 $315 $159 $162 $256 reversed $241 $-1 #
coedge $-1 $159 $315 $247 $319 forward $241 $-1 #
vertex $-1 $160 $323 #
straight-curve $-1 69.439374980925933 0.22674407761689253 98.030062977624056 0 0 1 I I #
straight-curve $-1 -49.602947677045506 0.22674407761689253 77.017803297276657 0.85716729658548041 0 -0.51503808176128008 I I #
edge $-1 $317 -16.877209788871347 $163 0.22674407761689253 $251 $324 forward 7 unknown #
point $-1 69.439374980925933 0.22674407761689253 9.9326909301569355 #
point $-1 62.045426385340591 0.22674407761689253 9.9326909301569373 #
edge $-1 $325 1 $325 0 $166 $-1 forward 7 unknown #
vertex $-1 $167 $326 #
ellipse-curve $-1 64.873656068766763 -8.3252328556272275 6.2654908139226091 0.51503808176128008 0 0.85716729658548041 0.85716729658548041 0 -0.51503808176128008 1 I I #
point $-1 66.599567979718714 -8.3252328556272275 7.1962865430771732 #
plane-surface $-1 69.439374980925933 0 0 -1 0 0 0 0 1 forward_v I I I I #
coedge $-1 $175 $173 $177 $268 reversed $101 $-1 #
edge $-1 $188 -9.9326909301569355 $270 9.9326909301569355 $187 $327 forward 7 unknown #
vertex $-1 $268 $328 #
straight-curve $-1 -69.439374980925933 -40.73499758547802 0 0 0 -1 I I #
edge $-1 $266 -40.73499758547802 $270 40.73499758547802 $264 $329 forward 7 unknown #
straight-curve $-1 0 -40.73499758547802 -9.9326909301569355 -1 0 0 I I #
vertex $-1 $180 $330 #
straight-curve $-1 0 40.73499758547802 -9.9326909301569355 1 0 0 I I #
point $-1 69.439374980925933 40.73499758547802 -9.9326909301569355 #
point $-1 69.439374980925933 -40.73499758547802 -9.9326909301569355 #
straight-curve $-1 -69.439374980925933 0 9.9326909301569355 0 -1 0 I I #
point $-1 -69.439374980925933 40.73499758547802 9.9326909301569355 #
point $-1 -69.439374980925933 -40.73499758547802 9.9326909301569355 #
straight-curve $-1 69.439374980925933 -40.73499758547802 0 0 0 -1 I I #
straight-curve $-1 69.439374980925933 40.73499758547802 0 0 0 -1 I I #
loop $-1 $-1 $287 $197 #
plane-surface $-1 -69.439374980925933 0 0 1 0 0 0 0 -1 forward_v I I I I #
coedge $-1 $201 $200 $293 $331 forward $70 $-1 #
edge $-1 $205 29.969224066871938 $296 40.73499758547802 $204 $332 forward 7 unknown #
coedge $-1 $290 $287 $201 $284 reversed $279 $-1 #
edge $-1 $333 -40.73499758547802 $285 -29.969224066871938 $283 $334 forward 7 unknown #
vertex $-1 $288 $335 #
straight-curve $-1 0 -29.969224066871938 -9.9326909301569355 1 0 0 I I #
coedge $-1 $283 $207 $203 $288 forward $279 $-1 #
edge $-1 $209 1.2618885597889289 $285 6.201164433508314 $287 $336 forward 7 unknown #
point $-1 69.439374980925933 -29.969224066871938 -9.9326909301569355 #
coedge $-1 $207 $283 $211 $294 reversed $279 $-1 #
straight-curve $-1 -69.439374980925933 -17.676055413087489 -4.9934150564375503 0 1 0 I I #
point $-1 -69.439374980925933 -29.969224066871938 -4.9934150564375503 #
coedge $-1 $212 $211 $281 $331 reversed $198 $-1 #
edge $-1 $213 4.9934150564375503 $333 9.9326909301569355 $290 $337 forward 7 unknown #
point $-1 -69.439374980925933 -40.73499758547802 -4.9934150564375503 #
vertex $-1 $215 $338 #
straight-curve $-1 69.439374980925933 -40.73499758547802 0 0 0 -1 I I #
plane-surface $-1 0 40.73499758547802 0 0 -1 0 0 0 -1 forward_v I I I I #
coedge $-1 $339 $221 $225 $304 forward $136 $-1 #
coedge $-1 $221 $339 $236 $311 forward $136 $-1 #
vertex $-1 $223 $340 #
straight-curve $-1 0 29.969224066871931 -9.9326909301569355 -1 0 0 I I #
coedge $-1 $225 $224 $231 $309 forward $219 $-1 #
edge $-1 $226 29.969224066871931 $341 40.73499758547802 $225 $342 forward 7 unknown #
point $-1 -69.439374980925933 29.969224066871931 -9.9326909301569355 #
point $-1 -69.439374980925933 29.969224066871931 -4.9934150564375503 #
straight-curve $-1 -69.439374980925933 17.676055413087486 -4.9934150564375503 0 1 0 I I #
coedge $-1 $231 $230 $339 $343 reversed $232 $-1 #
edge $-1 $233 4.9934150564375503 $341 9.9326909301569355 $231 $344 forward 7 unknown #
point $-1 -69.439374980925933 40.734997585478013 -4.9934150564375503 #
edge $-1 $313 -40.73499758547802 $301 -29.969224066871931 $236 $345 forward 7 unknown #
straight-curve $-1 69.439374980925933 29.969224066871931 -3.7315264966486215 0 0 -1 I I #
vertex $-1 $311 $346 #
straight-curve $-1 69.439374980925933 40.73499758547802 0 0 0 -1 I I #
coedge $-1 $252 $251 $244 $316 forward $241 $-1 #
edge $-1 $317 88.097372047467118 $320 92.540104658104013 $315 $347 forward 7 unknown #
vertex $-1 $256 $348 #
straight-curve $-1 10.962448650355562 -16.877209788871347 9.9326909301569373 1 0 0 I I #
edge $-1 $320 -12.714593361057734 $253 4.3893605054305063 $252 $349 forward 7 unknown #
vertex $-1 $319 $350 #
straight-curve $-1 -49.602947677045506 -16.877209788871347 77.017803297276657 -0.85716729658548041 0 0.51503808176128008 I I #
point $-1 62.045426385340591 -16.877209788871347 9.9326909301569373 #
point $-1 69.439374980925919 0.22674407761689253 5.4899583195200421 #
straight-curve $-1 69.439374980925933 0 9.9326909301569355 0 1 0 I I #
vertex $-1 $259 $351 #
point $-1 65.730823365352251 -8.3252328556272275 5.750452732161329 #
straight-curve $-1 -69.439374980925933 40.73499758547802 0 0 0 -1 I I #
point $-1 -69.439374980925933 -40.73499758547802 -9.9326909301569355 #
straight-curve $-1 -69.439374980925933 0 -9.9326909301569355 0 1 0 I I #
point $-1 -69.439374980925933 40.73499758547802 -9.9326909301569355 #
edge $-1 $296 -69.439374980925933 $333 69.439374980925933 $293 $352 forward 7 unknown #
straight-curve $-1 69.439374980925933 0 -9.9326909301569355 0 -1 0 I I #
vertex $-1 $284 $353 #
straight-curve $-1 -69.439374980925933 0 -9.9326909301569355 0 1 0 I I #
point $-1 -69.439374980925933 -29.969224066871938 -9.9326909301569355 #
straight-curve $-1 -69.439374980925933 -29.969224066871938 -3.7315264966486215 0 0 -1 I I #
straight-curve $-1 -69.439374980925933 -40.73499758547802 0 0 0 -1 I I #
point $-1 69.439374980925933 -40.73499758547802 -9.9326909301569355 #
coedge $-1 $300 $299 $308 $343 forward $136 $-1 #
point $-1 69.439374980925933 29.969224066871931 -9.9326909301569355 #
vertex $-1 $343 $354 #
straight-curve $-1 -69.439374980925933 0 -9.9326909301569355 0 1 0 I I #
edge $-1 $341 -69.439374980925933 $313 69.439374980925933 $308 $355 forward 7 unknown #
straight-curve $-1 -69.439374980925933 40.73499758547802 0 0 0 -1 I I #
straight-curve $-1 69.439374980925933 0 -9.9326909301569355 0 -1 0 I I #
point $-1 69.439374980925933 40.73499758547802 -9.9326909301569355 #
straight-curve $-1 69.439374980925933 -16.877209788871347 98.030062977624056 0 0 -1 I I #
point $-1 69.439374980925933 -16.877209788871347 9.9326909301569355 #
straight-curve $-1 69.439374980925933 -4.1626164278136137 5.489958319520035 0 1 0 I I #
point $-1 69.439374980925919 -16.877209788871347 5.4899583195200421 #
point $-1 64.358617987005488 -8.3252328556272275 5.4083235173371289 #
straight-curve $-1 0 -40.73499758547802 -9.9326909301569355 -1 0 0 I I #
point $-1 -69.439374980925933 -40.73499758547802 -9.9326909301569355 #
point $-1 -69.439374980925933 40.73499758547802 -9.9326909301569355 #
straight-curve $-1 0 40.73499758547802 -9.9326909301569355 1 0 0 I I #
End-of-ACIS-data 