500 0 6 0           
7 Unknown 11 ACIS 5.0 NT 24 Fri Mar 26 19:31:53 1999 
-1 9.9999999999999995e-007 1e-010 
body $-1 $6 $-1 $7 #
body $-1 $8 $-1 $9 #
body $-1 $10 $-1 $11 #
body $-1 $12 $-1 $13 #
body $-1 $14 $-1 $15 #
body $-1 $16 $-1 $17 #
lump $-1 $-1 $18 $0 #
transform $-1 1 0 0 0 1 0 0 0 1 42.171697134311962 25.648711137738463 10.65665709925837 1 rotate no_reflect no_shear #
lump $-1 $-1 $19 $1 #
transform $-1 1 0 0 0 1 0 0 0 1 42.171697134311962 25.648711137738463 10.65665709925837 1 rotate no_reflect no_shear #
lump $-1 $-1 $20 $2 #
transform $-1 1 0 0 0 1 0 0 0 1 42.171697134311962 25.648711137738463 10.65665709925837 1 rotate no_reflect no_shear #
lump $-1 $-1 $21 $3 #
transform $-1 1 0 0 0 1 0 0 0 1 42.171697134311962 25.648711137738463 10.65665709925837 1 rotate no_reflect no_shear #
lump $-1 $-1 $22 $4 #
transform $-1 1 0 0 0 1 0 0 0 1 42.171697134311962 25.648711137738463 10.65665709925837 1 rotate no_reflect no_shear #
lump $-1 $-1 $23 $5 #
transform $-1 1 0 0 0 1 0 0 0 1 42.171697134311962 25.648711137738463 10.65665709925837 1 rotate no_reflect no_shear #
shell $-1 $-1 $-1 $24 $-1 $6 #
shell $-1 $-1 $-1 $25 $-1 $8 #
shell $-1 $-1 $-1 $26 $-1 $10 #
shell $-1 $-1 $-1 $27 $-1 $12 #
shell $-1 $-1 $-1 $28 $-1 $14 #
shell $-1 $-1 $-1 $29 $-1 $16 #
face $-1 $30 $31 $18 $-1 $32 forward single #
face $-1 $33 $34 $19 $-1 $35 forward single #
face $-1 $36 $37 $20 $-1 $38 reversed single #
face $-1 $39 $40 $21 $-1 $41 forward single #
face $-1 $42 $43 $22 $-1 $44 reversed single #
face $-1 $45 $46 $23 $-1 $47 forward single #
face $-1 $48 $49 $18 $-1 $50 reversed single #
loop $-1 $-1 $51 $24 #
plane-surface $-1 0 0 10.65665709925837 0 0 1 1 0 0 forward_v I I I I #
face $-1 $52 $53 $19 $-1 $54 reversed single #
loop $-1 $-1 $55 $25 #
plane-surface $-1 -36.649108266314968 0 -7.152614772562929 0 0 1 1 0 0 forward_v I I I I #
face $-1 $56 $57 $20 $-1 $58 reversed single #
loop $-1 $-1 $59 $26 #
plane-surface $-1 -9.2017454368852825 -71.585416603956446 75.671661031090025 1 0 0 0 0.54463904215088732 -0.83867056331134215 forward_v I I I I #
face $-1 $60 $61 $21 $-1 $62 forward single #
loop $-1 $63 $64 $27 #
cone-surface $-1 -2.2051178310643849 -20.864104089285846 7.2114984149711008 0 0.54463904215088732 -0.83867056331134215 1 0 0 1 I I 0 1 1 forward I I I I #
face $-1 $65 $66 $22 $-1 $67 reversed single #
loop $-1 $-1 $68 $28 #
plane-surface $-1 -9.2017454368852825 28.563778567762416 103.61023996401536 1 0 0 0 -0.54463904215088732 -0.83867056331134215 forward_v I I I I #
face $-1 $69 $70 $23 $-1 $71 forward single #
loop $-1 $72 $73 $29 #
cone-surface $-1 -2.2051178310643849 20.864104089285838 7.2114984149711008 0 -0.54463904215088732 -0.83867056331134215 1 0 0 1 I I 0 1 1 forward I I I I #
face $-1 $74 $75 $18 $-1 $76 reversed single #
loop $-1 $-1 $77 $30 #
plane-surface $-1 0 0 -10.65665709925837 0 0 1 1 0 0 forward_v I I I I #
coedge $-1 $78 $79 $80 $81 forward $31 $-1 #
face $-1 $82 $83 $19 $-1 $84 reversed single #
loop $-1 $-1 $85 $33 #
plane-surface $-1 -31.126519398317974 0 -8.9046359359106493 -1 0 0 0 0 1 forward_v I I I I #
coedge $-1 $86 $87 $88 $89 forward $34 $-1 #
face $-1 $90 $91 $20 $-1 $92 reversed single #
loop $-1 $-1 $93 $36 #
plane-surface $-1 -2.2051178310643849 -25.648711137738474 4.9353390482325636 0 -0.54463904215088732 0.83867056331134215 1 0 0 forward_v I I I I #
coedge $-1 $94 $95 $96 $97 reversed $37 $-1 #
face $-1 $-1 $98 $21 $-1 $99 forward single #
loop $-1 $100 $101 $39 #
cone-surface $-1 -2.2051178310643849 -20.212206044510378 6.2076634745410697 0 0.54463904215088732 -0.83867056331134215 0.5 0 0 1 I I -0.70710678118654746 0.70710678118654746 0.5 forward I I I I #
loop $-1 $-1 $102 $27 #
coedge $-1 $64 $64 $103 $104 reversed $40 $-1 #
face $-1 $105 $106 $22 $-1 $107 reversed single #
loop $-1 $-1 $108 $42 #
plane-surface $-1 -2.2051178310643849 -17.372926898455557 32.873917981157902 0 0.54463904215088732 0.83867056331134215 1 0 0 forward_v I I I I #
coedge $-1 $109 $110 $111 $112 reversed $43 $-1 #
face $-1 $-1 $113 $23 $-1 $114 forward single #
loop $-1 $115 $116 $45 #
cone-surface $-1 -2.2051178310643849 20.212206044510371 6.2076634745410697 0 -0.54463904215088732 -0.83867056331134215 0.5 0 0 1 I I -0.70710678118654746 0.70710678118654746 0.5 forward I I I I #
loop $-1 $-1 $117 $29 #
coedge $-1 $73 $73 $118 $119 reversed $46 $-1 #
face $-1 $120 $121 $18 $-1 $122 reversed single #
loop $-1 $-1 $123 $48 #
plane-surface $-1 0 -25.648711137738463 0 0 1 0 0 0 1 forward_v I I I I #
coedge $-1 $124 $125 $126 $127 forward $49 $-1 #
coedge $-1 $128 $51 $129 $130 forward $31 $-1 #
coedge $-1 $51 $128 $131 $132 forward $31 $-1 #
coedge $-1 $133 $134 $51 $81 reversed $135 $-1 #
edge $-1 $136 -25.648711137738463 $137 25.648711137738463 $80 $138 forward 7 unknown #
face $-1 $139 $140 $19 $-1 $141 reversed single #
loop $-1 $-1 $142 $52 #
plane-surface $-1 0 0 -10.65665709925837 0 0 1 1 0 0 forward_v I I I I #
coedge $-1 $143 $88 $144 $145 reversed $53 $-1 #
coedge $-1 $146 $55 $147 $148 reversed $34 $-1 #
coedge $-1 $55 $146 $149 $150 reversed $34 $-1 #
coedge $-1 $85 $151 $55 $89 reversed $53 $-1 #
edge $-1 $152 -25.648711137738463 $153 25.648711137738463 $88 $154 forward 7 unknown #
face $-1 $155 $156 $20 $-1 $157 forward single #
loop $-1 $-1 $158 $56 #
plane-surface $-1 4.7915097747565127 -71.585416603956446 75.671661031090025 -1 0 0 0 -0.54463904215088732 0.83867056331134215 forward_v I I I I #
coedge $-1 $159 $160 $161 $162 reversed $57 $-1 #
coedge $-1 $95 $59 $163 $164 reversed $37 $-1 #
coedge $-1 $59 $94 $159 $165 reversed $37 $-1 #
coedge $-1 $161 $166 $59 $97 forward $167 $-1 #
edge $-1 $168 27.179173416286645 $169 32.900491467312442 $96 $170 forward 7 unknown #
loop $-1 $-1 $103 $60 #
plane-surface $-1 -2.2051178310643849 -25.648711137738474 4.9353390482325636 0 -0.54463904215088732 0.83867056331134215 1 0 0 forward_v I I I I #
loop $-1 $-1 $171 $39 #
coedge $-1 $101 $101 $102 $172 reversed $61 $-1 #
coedge $-1 $102 $102 $101 $172 forward $63 $-1 #
coedge $-1 $103 $103 $64 $104 forward $98 $-1 #
edge $-1 $173 -1.2969368919014205e-015 $173 6.2831853071795996 $103 $174 forward 7 unknown #
face $-1 $175 $176 $22 $-1 $177 reversed single #
loop $-1 $-1 $178 $65 #
plane-surface $-1 4.7915097747565127 28.563778567762416 103.61023996401536 -1 0 0 0 0.54463904215088732 0.83867056331134215 forward_v I I I I #
coedge $-1 $179 $180 $181 $182 reversed $66 $-1 #
coedge $-1 $110 $68 $183 $184 reversed $43 $-1 #
coedge $-1 $68 $109 $179 $185 reversed $43 $-1 #
coedge $-1 $181 $186 $68 $112 forward $187 $-1 #
edge $-1 $188 -11.366821853857255 $189 -2.5567648043520936 $111 $190 forward 7 unknown #
loop $-1 $-1 $118 $69 #
plane-surface $-1 -2.2051178310643849 -17.372926898455557 32.873917981157902 0 0.54463904215088732 0.83867056331134215 1 0 0 forward_v I I I I #
loop $-1 $-1 $191 $45 #
coedge $-1 $116 $116 $117 $192 reversed $70 $-1 #
coedge $-1 $117 $117 $116 $192 forward $72 $-1 #
coedge $-1 $118 $118 $73 $119 forward $113 $-1 #
edge $-1 $193 -2.3140955908841011e-016 $193 6.2831853071796004 $118 $194 forward 7 unknown #
face $-1 $195 $196 $18 $-1 $197 reversed single #
loop $-1 $-1 $198 $74 #
plane-surface $-1 -42.171697134311962 0 0 1 0 0 0 0 -1 forward_v I I I I #
coedge $-1 $199 $131 $200 $201 forward $75 $-1 #
coedge $-1 $202 $77 $199 $203 forward $49 $-1 #
coedge $-1 $77 $202 $204 $205 forward $49 $-1 #
coedge $-1 $134 $133 $77 $127 reversed $135 $-1 #
edge $-1 $206 -25.648711137738463 $207 25.648711137738463 $126 $208 forward 7 unknown #
coedge $-1 $79 $78 $209 $210 forward $31 $-1 #
coedge $-1 $211 $212 $78 $130 reversed $196 $-1 #
edge $-1 $137 -42.171697134311962 $213 42.171697134311962 $129 $214 forward 7 unknown #
coedge $-1 $123 $215 $79 $132 reversed $75 $-1 #
edge $-1 $216 -42.171697134311962 $136 42.171697134311962 $131 $217 forward 7 unknown #
coedge $-1 $126 $80 $215 $218 forward $135 $-1 #
coedge $-1 $80 $126 $211 $219 reversed $135 $-1 #
loop $-1 $-1 $133 $195 #
vertex $-1 $81 $220 #
vertex $-1 $81 $221 #
straight-curve $-1 42.171697134311962 0 10.65665709925837 0 1 0 I I #
face $-1 $222 $223 $19 $-1 $224 reversed single #
loop $-1 $-1 $144 $82 #
plane-surface $-1 0 -25.648711137738463 0 0 1 0 0 0 1 forward_v I I I I #
coedge $-1 $225 $226 $143 $227 forward $83 $-1 #
coedge $-1 $151 $85 $142 $227 reversed $53 $-1 #
coedge $-1 $149 $228 $85 $145 forward $140 $-1 #
edge $-1 $229 -6.2043391313030449 $152 -2.7002968046076044 $144 $230 forward 7 unknown #
coedge $-1 $87 $86 $231 $232 reversed $34 $-1 #
coedge $-1 $233 $234 $86 $148 forward $235 $-1 #
edge $-1 $236 -23.847143001154478 $153 -12.80196526516049 $147 $237 forward 7 unknown #
coedge $-1 $238 $144 $87 $150 forward $140 $-1 #
edge $-1 $152 12.80196526516049 $239 23.847143001154478 $149 $240 forward 7 unknown #
coedge $-1 $88 $143 $233 $241 reversed $53 $-1 #
vertex $-1 $150 $242 #
vertex $-1 $148 $243 #
straight-curve $-1 -31.126519398317974 0 -7.152614772562929 0 1 0 I I #
face $-1 $-1 $167 $20 $-1 $244 reversed single #
loop $-1 $-1 $245 $90 #
plane-surface $-1 0 0 10.65665709925837 0 0 1 1 0 0 forward_v I I I I #
coedge $-1 $246 $247 $248 $249 reversed $91 $-1 #
coedge $-1 $250 $93 $95 $165 forward $57 $-1 #
coedge $-1 $93 $250 $246 $251 forward $57 $-1 #
coedge $-1 $248 $96 $93 $162 forward $167 $-1 #
edge $-1 $169 -8.09918652135309 $252 5.8940686902887052 $161 $253 forward 7 unknown #
coedge $-1 $254 $255 $94 $164 forward $156 $-1 #
edge $-1 $256 -18.954054213744911 $168 -10.14399716423976 $163 $257 forward 7 unknown #
edge $-1 $169 1.2808562296967101e-014 $256 10.504788691664832 $95 $258 forward 7 unknown #
coedge $-1 $96 $248 $254 $259 reversed $167 $-1 #
loop $-1 $-1 $248 $155 #
vertex $-1 $259 $260 #
vertex $-1 $97 $261 #
straight-curve $-1 -9.2017454368852825 -25.648711137738463 37.835830515545013 0 0 -1 I I #
coedge $-1 $171 $171 $-1 $262 reversed $100 $-1 #
edge $-1 $263 0 $263 6.2831853071796004 $101 $264 forward 7 unknown #
vertex $-1 $104 $265 #
ellipse-curve $-1 -2.2051178310643849 -21.243682612985879 7.7959980737454746 0 -0.54463904215088732 0.83867056331134215 1 0 0 1 I I #
face $-1 $-1 $187 $22 $-1 $266 forward single #
loop $-1 $-1 $267 $105 #
plane-surface $-1 0 25.648711137738463 0 0 -1 0 0 0 -1 forward_v I I I I #
coedge $-1 $268 $269 $270 $271 reversed $106 $-1 #
coedge $-1 $272 $108 $110 $185 forward $66 $-1 #
coedge $-1 $108 $272 $268 $273 forward $66 $-1 #
coedge $-1 $270 $111 $108 $182 forward $187 $-1 #
edge $-1 $189 -8.09918652135309 $274 5.8940686902887052 $181 $275 forward 7 unknown #
coedge $-1 $276 $277 $109 $184 forward $176 $-1 #
edge $-1 $278 -46.869780933775118 $188 -41.148462882749314 $183 $279 forward 7 unknown #
edge $-1 $189 40.792633583812091 $278 51.297422275476919 $110 $280 forward 7 unknown #
coedge $-1 $111 $270 $276 $281 forward $187 $-1 #
loop $-1 $-1 $270 $175 #
vertex $-1 $184 $282 #
vertex $-1 $112 $283 #
straight-curve $-1 -9.2017454368852825 14.281889283881208 10.656657099258368 0 -1 0 I I #
coedge $-1 $191 $191 $-1 $284 reversed $115 $-1 #
edge $-1 $285 0 $285 6.2831853071796004 $116 $286 forward 7 unknown #
vertex $-1 $119 $287 #
ellipse-curve $-1 -2.2051178310643849 21.243682612985875 7.7959980737454773 0 0.54463904215088732 0.83867056331134215 1 0 0 1 I I #
face $-1 $-1 $135 $18 $-1 $288 reversed single #
loop $-1 $-1 $211 $120 #
plane-surface $-1 0 25.648711137738463 0 0 -1 0 0 0 -1 forward_v I I I I #
coedge $-1 $289 $209 $212 $290 forward $121 $-1 #
coedge $-1 $215 $123 $124 $203 reversed $75 $-1 #
coedge $-1 $209 $289 $123 $201 reversed $121 $-1 #
edge $-1 $216 -10.65665709925837 $291 10.65665709925837 $200 $292 forward 7 unknown #
coedge $-1 $125 $124 $289 $293 forward $49 $-1 #
edge $-1 $207 -42.171697134311962 $291 42.171697134311962 $199 $294 forward 7 unknown #
coedge $-1 $212 $211 $125 $205 reversed $196 $-1 #
edge $-1 $295 -42.171697134311962 $206 42.171697134311962 $204 $296 forward 7 unknown #
vertex $-1 $127 $297 #
vertex $-1 $218 $298 #
straight-curve $-1 42.171697134311962 0 -10.65665709925837 0 -1 0 I I #
coedge $-1 $198 $200 $128 $210 reversed $121 $-1 #
edge $-1 $213 -25.648711137738463 $216 25.648711137738463 $209 $299 forward 7 unknown #
coedge $-1 $204 $129 $134 $219 forward $196 $-1 #
coedge $-1 $129 $204 $198 $290 reversed $196 $-1 #
vertex $-1 $130 $300 #
straight-curve $-1 0 25.648711137738463 10.65665709925837 -1 0 0 I I #
coedge $-1 $131 $199 $133 $218 reversed $75 $-1 #
vertex $-1 $210 $301 #
straight-curve $-1 0 -25.648711137738463 10.65665709925837 1 0 0 I I #
edge $-1 $136 -10.65665709925837 $207 10.65665709925837 $133 $302 forward 7 unknown #
edge $-1 $137 -10.65665709925837 $206 10.65665709925837 $134 $303 forward 7 unknown #
point $-1 42.171697134311962 -25.648711137738463 10.65665709925837 #
point $-1 42.171697134311962 25.648711137738463 10.65665709925837 #
face $-1 $-1 $235 $19 $-1 $304 reversed single #
loop $-1 $-1 $231 $139 #
plane-surface $-1 -42.171697134311962 0 0 1 0 0 0 0 -1 forward_v I I I I #
coedge $-1 $305 $142 $228 $306 forward $83 $-1 #
coedge $-1 $142 $305 $307 $308 forward $83 $-1 #
edge $-1 $309 -25.648711137738463 $229 25.648711137738463 $142 $310 forward 7 unknown #
coedge $-1 $144 $238 $225 $306 reversed $140 $-1 #
vertex $-1 $306 $311 #
straight-curve $-1 -31.126519398317974 -25.648711137738463 -4.4523179679553246 0 0 1 I I #
coedge $-1 $312 $313 $146 $232 forward $223 $-1 #
edge $-1 $239 -25.648711137738463 $236 25.648711137738463 $231 $314 forward 7 unknown #
coedge $-1 $307 $147 $151 $241 forward $235 $-1 #
coedge $-1 $147 $307 $312 $315 reversed $235 $-1 #
loop $-1 $-1 $233 $222 #
vertex $-1 $315 $316 #
straight-curve $-1 -18.324554133157484 25.648711137738463 -7.152614772562929 1 0 0 I I #
coedge $-1 $228 $149 $313 $317 forward $140 $-1 #
vertex $-1 $317 $318 #
straight-curve $-1 -18.324554133157484 -25.648711137738463 -7.152614772562929 -1 0 0 I I #
edge $-1 $153 2.7002968046076044 $309 6.2043391313030449 $233 $319 forward 7 unknown #
point $-1 -31.126519398317974 -25.648711137738463 -7.152614772562929 #
point $-1 -31.126519398317974 25.648711137738463 -7.152614772562929 #
plane-surface $-1 0 -25.648711137738463 0 0 1 0 0 0 1 forward_v I I I I #
coedge $-1 $255 $254 $247 $320 forward $156 $-1 #
coedge $-1 $247 $158 $160 $251 reversed $91 $-1 #
coedge $-1 $158 $246 $245 $320 reversed $91 $-1 #
coedge $-1 $166 $161 $158 $249 forward $167 $-1 #
edge $-1 $252 -32.900491467312442 $321 -27.179173416286645 $248 $322 forward 7 unknown #
coedge $-1 $160 $159 $255 $323 reversed $57 $-1 #
edge $-1 $324 -10.504788691664832 $252 -1.2808562296967101e-014 $246 $325 forward 7 unknown #
vertex $-1 $162 $326 #
straight-curve $-1 -1.1025589155321924 -25.648711137738463 4.935339048232569 1 0 0 I I #
coedge $-1 $245 $163 $166 $259 forward $156 $-1 #
coedge $-1 $163 $245 $250 $323 forward $156 $-1 #
vertex $-1 $164 $327 #
straight-curve $-1 -9.2017454368852825 -35.792708301978223 10.656657099258368 0 -1 0 I I #
straight-curve $-1 -9.2017454368852825 -25.648711137738474 4.9353390482325636 0 0.83867056331134215 0.54463904215088732 I I #
edge $-1 $168 -9.2017454368852825 $321 4.7915097747565127 $166 $328 forward 7 unknown #
point $-1 -9.2017454368852825 -25.648711137738463 10.65665709925837 #
point $-1 -9.2017454368852825 -25.648711137738463 4.9353390482325707 #
edge $-1 $329 1 $329 0 $171 $-1 forward 7 unknown #
vertex $-1 $172 $330 #
ellipse-curve $-1 -2.2051178310643849 -20.48452556558582 6.6269987561967412 0 -0.54463904215088732 0.83867056331134215 1 0 0 1 I I #
point $-1 -1.2051178310643849 -21.243682612985872 7.7959980737454613 #
plane-surface $-1 0 0 10.65665709925837 0 0 1 1 0 0 forward_v I I I I #
coedge $-1 $277 $276 $269 $331 forward $176 $-1 #
coedge $-1 $269 $178 $180 $273 reversed $106 $-1 #
coedge $-1 $178 $268 $267 $331 reversed $106 $-1 #
coedge $-1 $186 $181 $178 $271 forward $187 $-1 #
edge $-1 $274 2.5567648043520936 $332 11.366821853857255 $270 $333 forward 7 unknown #
coedge $-1 $180 $179 $277 $334 reversed $66 $-1 #
edge $-1 $335 -51.297422275476919 $274 -40.792633583812091 $268 $336 forward 7 unknown #
vertex $-1 $182 $337 #
straight-curve $-1 -1.1025589155321924 16.838654088233298 10.656657099258368 1 0 0 I I #
coedge $-1 $267 $183 $186 $281 reversed $176 $-1 #
coedge $-1 $183 $267 $272 $334 forward $176 $-1 #
vertex $-1 $184 $338 #
straight-curve $-1 -9.2017454368852825 25.648711137738463 51.805119982007682 0 0 1 I I #
straight-curve $-1 -9.2017454368852825 -17.372926898455557 32.873917981157902 0 0.83867056331134215 -0.54463904215088732 I I #
edge $-1 $332 -4.7915097747565127 $188 9.2017454368852825 $276 $339 forward 7 unknown #
point $-1 -9.2017454368852825 25.648711137738463 10.65665709925837 #
point $-1 -9.2017454368852825 16.838654088233302 10.656657099258368 #
edge $-1 $340 1 $340 0 $191 $-1 forward 7 unknown #
vertex $-1 $192 $341 #
ellipse-curve $-1 -2.2051178310643849 20.484525565585813 6.6269987561967412 0 0.54463904215088732 0.83867056331134215 1 0 0 1 I I #
point $-1 -1.2051178310643849 21.243682612985864 7.7959980737454613 #
plane-surface $-1 42.171697134311962 0 0 -1 0 0 0 0 1 forward_v I I I I #
coedge $-1 $200 $198 $202 $293 reversed $121 $-1 #
edge $-1 $213 -10.65665709925837 $295 10.65665709925837 $212 $342 forward 7 unknown #
vertex $-1 $293 $343 #
straight-curve $-1 -42.171697134311962 -25.648711137738463 0 0 0 -1 I I #
edge $-1 $291 -25.648711137738463 $295 25.648711137738463 $289 $344 forward 7 unknown #
straight-curve $-1 0 -25.648711137738463 -10.65665709925837 -1 0 0 I I #
vertex $-1 $205 $345 #
straight-curve $-1 0 25.648711137738463 -10.65665709925837 1 0 0 I I #
point $-1 42.171697134311962 25.648711137738463 -10.65665709925837 #
point $-1 42.171697134311962 -25.648711137738463 -10.65665709925837 #
straight-curve $-1 -42.171697134311962 0 10.65665709925837 0 -1 0 I I #
point $-1 -42.171697134311962 25.648711137738463 10.65665709925837 #
point $-1 -42.171697134311962 -25.648711137738463 10.65665709925837 #
straight-curve $-1 42.171697134311962 -25.648711137738463 0 0 0 -1 I I #
straight-curve $-1 42.171697134311962 25.648711137738463 0 0 0 -1 I I #
plane-surface $-1 0 25.648711137738463 0 0 -1 0 0 0 -1 forward_v I I I I #
coedge $-1 $226 $225 $346 $347 forward $83 $-1 #
edge $-1 $229 31.126519398317974 $348 42.171697134311962 $228 $349 forward 7 unknown #
coedge $-1 $234 $233 $226 $308 reversed $235 $-1 #
edge $-1 $350 -42.171697134311962 $309 -31.126519398317974 $307 $351 forward 7 unknown #
vertex $-1 $241 $352 #
straight-curve $-1 -31.126519398317974 0 -10.65665709925837 0 -1 0 I I #
point $-1 -31.126519398317974 -25.648711137738463 -10.65665709925837 #
coedge $-1 $346 $231 $234 $315 forward $223 $-1 #
coedge $-1 $231 $346 $238 $317 reversed $223 $-1 #
straight-curve $-1 -42.171697134311962 0 -7.152614772562929 0 1 0 I I #
edge $-1 $236 7.152614772562929 $350 10.65665709925837 $234 $353 forward 7 unknown #
point $-1 -42.171697134311962 25.648711137738463 -7.152614772562929 #
edge $-1 $239 7.152614772562929 $348 10.65665709925837 $313 $354 forward 7 unknown #
point $-1 -42.171697134311962 -25.648711137738463 -7.152614772562929 #
straight-curve $-1 -31.126519398317974 25.648711137738463 -4.4523179679553246 0 0 -1 I I #
edge $-1 $321 10.14399716423976 $324 18.954054213744911 $245 $355 forward 7 unknown #
vertex $-1 $249 $356 #
straight-curve $-1 4.7915097747565127 -25.648711137738463 37.835830515545013 0 0 1 I I #
edge $-1 $324 -5.8940686902887052 $256 8.09918652135309 $255 $357 forward 7 unknown #
vertex $-1 $323 $358 #
straight-curve $-1 4.7915097747565127 -25.648711137738474 4.9353390482325636 0 -0.83867056331134215 -0.54463904215088732 I I #
point $-1 4.7915097747565127 -25.648711137738463 4.9353390482325707 #
point $-1 -9.2017454368852825 -16.838654088233312 10.65665709925837 #
straight-curve $-1 0 -25.648711137738463 10.65665709925837 1 0 0 I I #
vertex $-1 $262 $359 #
point $-1 -1.2051178310643849 -20.48452556558582 6.6269987561967412 #
edge $-1 $332 41.148462882749314 $335 46.869780933775118 $267 $360 forward 7 unknown #
vertex $-1 $281 $361 #
straight-curve $-1 4.7915097747565127 14.281889283881208 10.656657099258368 0 1 0 I I #
edge $-1 $335 -5.8940686902887052 $278 8.09918652135309 $277 $362 forward 7 unknown #
vertex $-1 $334 $363 #
straight-curve $-1 4.7915097747565127 -17.372926898455557 32.873917981157902 0 -0.83867056331134215 0.54463904215088732 I I #
point $-1 4.7915097747565127 16.838654088233302 10.656657099258368 #
point $-1 -9.2017454368852825 25.648711137738463 4.9353390482325636 #
straight-curve $-1 0 25.648711137738463 10.65665709925837 -1 0 0 I I #
vertex $-1 $284 $364 #
point $-1 -1.2051178310643849 20.484525565585813 6.6269987561967412 #
straight-curve $-1 -42.171697134311962 25.648711137738463 0 0 0 -1 I I #
point $-1 -42.171697134311962 -25.648711137738463 -10.65665709925837 #
straight-curve $-1 -42.171697134311962 0 -10.65665709925837 0 1 0 I I #
point $-1 -42.171697134311962 25.648711137738463 -10.65665709925837 #
coedge $-1 $313 $312 $305 $347 reversed $223 $-1 #
edge $-1 $348 -25.648711137738463 $350 25.648711137738463 $346 $365 forward 7 unknown #
vertex $-1 $347 $366 #
straight-curve $-1 0 -25.648711137738463 -10.65665709925837 -1 0 0 I I #
vertex $-1 $308 $367 #
straight-curve $-1 0 25.648711137738463 -10.65665709925837 1 0 0 I I #
point $-1 -31.126519398317974 25.648711137738463 -10.65665709925837 #
straight-curve $-1 -42.171697134311962 25.648711137738463 0 0 0 -1 I I #
straight-curve $-1 -42.171697134311962 -25.648711137738463 0 0 0 -1 I I #
straight-curve $-1 4.7915097747565127 -35.792708301978223 10.656657099258368 0 1 0 I I #
point $-1 4.7915097747565127 -25.648711137738463 10.65665709925837 #
straight-curve $-1 -1.1025589155321924 -16.838654088233316 10.65665709925837 -1 0 0 I I #
point $-1 4.7915097747565127 -16.838654088233312 10.65665709925837 #
point $-1 -2.2051178310643849 -19.939886523434936 5.7883281928853982 #
straight-curve $-1 4.7915097747565127 25.648711137738463 51.805119982007682 0 0 -1 I I #
point $-1 4.7915097747565127 25.648711137738463 10.65665709925837 #
straight-curve $-1 -1.1025589155321924 25.648711137738463 4.9353390482325636 -1 0 0 I I #
point $-1 4.7915097747565127 25.648711137738463 4.9353390482325636 #
point $-1 -2.2051178310643849 19.939886523434929 5.7883281928853982 #
straight-curve $-1 -42.171697134311962 0 -10.65665709925837 0 1 0 I I #
point $-1 -42.171697134311962 -25.648711137738463 -10.65665709925837 #
point $-1 -42.171697134311962 25.648711137738463 -10.65665709925837 #
End-of-ACIS-data 