500 0 4 0           
7 Unknown 11 ACIS 5.0 NT 24 Thu Mar 25 18:21:26 1999 
-1 9.9999999999999995e-007 1e-010 
body $-1 $4 $-1 $5 #
body $-1 $6 $-1 $7 #
body $-1 $8 $-1 $9 #
body $-1 $10 $-1 $11 #
lump $-1 $-1 $12 $0 #
transform $-1 1 0 0 0 1 0 0 0 1 51.223487044892728 22.97357839481915 6.8375264314644255 1 rotate no_reflect no_shear #
lump $-1 $-1 $13 $1 #
transform $-1 1 0 0 0 1 0 0 0 1 51.223487044892728 22.97357839481915 6.8375264314644255 1 rotate no_reflect no_shear #
lump $-1 $-1 $14 $2 #
transform $-1 1 0 0 0 1 0 0 0 1 51.223487044892728 22.97357839481915 6.8375264314644255 1 rotate no_reflect no_shear #
lump $-1 $-1 $15 $3 #
transform $-1 1 0 0 0 1 0 0 0 1 51.223487044892728 22.97357839481915 6.8375264314644255 1 rotate no_reflect no_shear #
shell $-1 $-1 $-1 $16 $-1 $4 #
shell $-1 $-1 $-1 $17 $-1 $6 #
shell $-1 $-1 $-1 $18 $-1 $8 #
shell $-1 $-1 $-1 $19 $-1 $10 #
face $-1 $20 $21 $12 $-1 $22 forward single #
face $-1 $23 $24 $13 $-1 $25 reversed single #
face $-1 $26 $27 $14 $-1 $28 forward single #
face $-1 $29 $30 $15 $-1 $31 forward single #
face $-1 $32 $33 $12 $-1 $34 reversed single #
loop $-1 $-1 $35 $16 #
plane-surface $-1 0 0 6.8375264314644255 0 0 1 1 0 0 forward_v I I I I #
face $-1 $36 $37 $13 $-1 $38 reversed single #
loop $-1 $-1 $39 $17 #
plane-surface $-1 -103.9875800623434 -11.003743765974406 88.259352169190464 0 1 0 -0.51503808176128008 0 0.85716729658548041 forward_v I I I I #
face $-1 $40 $41 $14 $-1 $42 forward single #
loop $-1 $43 $44 $18 #
cone-surface $-1 -45.567521097092467 -7.3996976934787106 3.0811102160472705 0.51503808176128008 0 -0.85716729658548041 0.85716729658548041 0 0.51503808176128008 1 I I 0 1 1 forward I I I I #
face $-1 $45 $46 $15 $-1 $47 forward single #
loop $-1 $48 $49 $19 #
cone-surface $-1 -45.567521097092467 -1.9936285847351627 3.0811102160472705 0.51503808176128008 0 -0.85716729658548041 0.85716729658548041 0 0.51503808176128008 1 I I 0 1 1 forward I I I I #
face $-1 $50 $51 $12 $-1 $52 reversed single #
loop $-1 $-1 $53 $20 #
plane-surface $-1 0 0 -6.8375264314644255 0 0 1 1 0 0 forward_v I I I I #
coedge $-1 $54 $55 $56 $57 forward $21 $-1 #
face $-1 $58 $59 $13 $-1 $60 reversed single #
loop $-1 $-1 $61 $23 #
plane-surface $-1 -51.223487044892735 -4.6966631391069349 0.44515634528630699 -0.51503808176128008 0 0.85716729658548041 0.85716729658548041 0 0.51503808176128008 forward_v I I I I #
coedge $-1 $62 $63 $64 $65 reversed $24 $-1 #
face $-1 $-1 $66 $14 $-1 $67 forward single #
loop $-1 $68 $69 $26 #
cone-surface $-1 -44.973381201113725 -7.3996976934787106 2.0922953954264365 0.51503808176128008 0 -0.85716729658548041 0.4285836482927402 0 0.25751904088064004 1 I I -0.70710678118654746 0.70710678118654746 0.5 forward I I I I #
loop $-1 $-1 $70 $18 #
coedge $-1 $44 $44 $71 $72 reversed $27 $-1 #
face $-1 $-1 $73 $15 $-1 $74 forward single #
loop $-1 $75 $76 $29 #
cone-surface $-1 -44.973381201113725 -1.9936285847351627 2.0922953954264365 0.51503808176128008 0 -0.85716729658548041 0.4285836482927402 0 0.25751904088064004 1 I I -0.70710678118654746 0.70710678118654746 0.5 forward I I I I #
loop $-1 $-1 $77 $19 #
coedge $-1 $49 $49 $78 $79 reversed $30 $-1 #
face $-1 $80 $81 $12 $-1 $82 reversed single #
loop $-1 $-1 $83 $32 #
plane-surface $-1 0 -22.97357839481915 0 0 1 0 0 0 1 forward_v I I I I #
coedge $-1 $84 $85 $86 $87 forward $33 $-1 #
coedge $-1 $88 $35 $89 $90 forward $21 $-1 #
coedge $-1 $35 $88 $91 $92 forward $21 $-1 #
coedge $-1 $93 $94 $35 $57 reversed $95 $-1 #
edge $-1 $96 -22.97357839481915 $97 22.97357839481915 $56 $98 forward 7 unknown #
face $-1 $99 $100 $13 $-1 $101 reversed single #
loop $-1 $-1 $102 $36 #
plane-surface $-1 -103.9875800623434 1.6104174877605368 88.259352169190464 0 -1 0 0.51503808176128008 0 -0.85716729658548041 forward_v I I I I #
coedge $-1 $103 $104 $105 $106 reversed $37 $-1 #
coedge $-1 $63 $39 $107 $108 reversed $24 $-1 #
coedge $-1 $39 $62 $103 $109 reversed $24 $-1 #
coedge $-1 $105 $110 $39 $65 forward $111 $-1 #
edge $-1 $112 0.77030298627897054 $113 11.408993171683271 $64 $114 forward 7 unknown #
loop $-1 $-1 $71 $40 #
plane-surface $-1 -51.223487044892735 -4.6966631391069349 0.44515634528630699 -0.51503808176128008 0 0.85716729658548041 0.85716729658548041 0 0.51503808176128008 forward_v I I I I #
loop $-1 $-1 $115 $26 #
coedge $-1 $69 $69 $70 $116 reversed $41 $-1 #
coedge $-1 $70 $70 $69 $116 forward $43 $-1 #
coedge $-1 $71 $71 $44 $72 forward $66 $-1 #
edge $-1 $117 0 $117 6.2831853071796004 $71 $118 forward 7 unknown #
loop $-1 $-1 $78 $45 #
plane-surface $-1 -51.223487044892735 -4.6966631391069349 0.44515634528630699 -0.51503808176128008 0 0.85716729658548041 0.85716729658548041 0 0.51503808176128008 forward_v I I I I #
loop $-1 $-1 $119 $29 #
coedge $-1 $76 $76 $77 $120 reversed $46 $-1 #
coedge $-1 $77 $77 $76 $120 forward $48 $-1 #
coedge $-1 $78 $78 $49 $79 forward $73 $-1 #
edge $-1 $121 0 $121 6.2831853071796004 $78 $122 forward 7 unknown #
face $-1 $123 $124 $12 $-1 $125 reversed single #
loop $-1 $-1 $126 $50 #
plane-surface $-1 -51.223487044892728 0 0 1 0 0 0 0 -1 forward_v I I I I #
coedge $-1 $127 $91 $128 $129 forward $51 $-1 #
coedge $-1 $130 $53 $127 $131 forward $33 $-1 #
coedge $-1 $53 $130 $132 $133 forward $33 $-1 #
coedge $-1 $94 $93 $53 $87 reversed $95 $-1 #
edge $-1 $134 -22.97357839481915 $135 22.97357839481915 $86 $136 forward 7 unknown #
coedge $-1 $55 $54 $137 $138 forward $21 $-1 #
coedge $-1 $139 $140 $54 $90 reversed $124 $-1 #
edge $-1 $97 -51.223487044892728 $141 51.223487044892728 $89 $142 forward 7 unknown #
coedge $-1 $83 $143 $55 $92 reversed $51 $-1 #
edge $-1 $144 -51.223487044892728 $96 51.223487044892728 $91 $145 forward 7 unknown #
coedge $-1 $86 $56 $143 $146 forward $95 $-1 #
coedge $-1 $56 $86 $139 $147 reversed $95 $-1 #
loop $-1 $-1 $93 $123 #
vertex $-1 $57 $148 #
vertex $-1 $57 $149 #
straight-curve $-1 51.223487044892728 0 6.8375264314644255 0 1 0 I I #
face $-1 $-1 $111 $13 $-1 $150 forward single #
loop $-1 $-1 $151 $58 #
plane-surface $-1 -51.223487044892728 0 0 1 0 0 0 0 -1 forward_v I I I I #
coedge $-1 $152 $153 $154 $155 reversed $59 $-1 #
coedge $-1 $156 $61 $63 $109 forward $37 $-1 #
coedge $-1 $61 $156 $152 $157 forward $37 $-1 #
coedge $-1 $154 $64 $61 $106 forward $111 $-1 #
edge $-1 $113 -8.6554121964209383 $158 3.9587490573140043 $105 $159 forward 7 unknown #
coedge $-1 $160 $161 $62 $108 forward $100 $-1 #
edge $-1 $162 -43.684519739308918 $112 -37.292149653130807 $107 $163 forward 7 unknown #
edge $-1 $113 -12.411451332526861 $162 -8.2919974363804304e-015 $63 $164 forward 7 unknown #
coedge $-1 $64 $154 $160 $165 forward $111 $-1 #
loop $-1 $-1 $154 $99 #
vertex $-1 $108 $166 #
vertex $-1 $65 $167 #
straight-curve $-1 -51.993790031171699 -11.003743765974406 6.8375264314644255 1 0 0 I I #
coedge $-1 $115 $115 $-1 $168 reversed $68 $-1 #
edge $-1 $169 0 $169 6.2831853071796004 $69 $170 forward 7 unknown #
vertex $-1 $72 $171 #
ellipse-curve $-1 -45.904141952190571 -7.3996976934787106 3.6413413883753698 -0.51503808176128008 0 0.85716729658548041 0.85716729658548041 0 0.51503808176128008 1 I I #
coedge $-1 $119 $119 $-1 $172 reversed $75 $-1 #
edge $-1 $173 0 $173 6.2831853071796004 $76 $174 forward 7 unknown #
vertex $-1 $79 $175 #
ellipse-curve $-1 -45.904141952190571 -1.9936285847351627 3.6413413883753698 -0.51503808176128008 0 0.85716729658548041 0.85716729658548041 0 0.51503808176128008 1 I I #
face $-1 $-1 $95 $12 $-1 $176 reversed single #
loop $-1 $-1 $139 $80 #
plane-surface $-1 0 22.97357839481915 0 0 -1 0 0 0 -1 forward_v I I I I #
coedge $-1 $177 $137 $140 $178 forward $81 $-1 #
coedge $-1 $143 $83 $84 $131 reversed $51 $-1 #
coedge $-1 $137 $177 $83 $129 reversed $81 $-1 #
edge $-1 $144 -6.8375264314644255 $179 6.8375264314644255 $128 $180 forward 7 unknown #
coedge $-1 $85 $84 $177 $181 forward $33 $-1 #
edge $-1 $135 -51.223487044892728 $179 51.223487044892728 $127 $182 forward 7 unknown #
coedge $-1 $140 $139 $85 $133 reversed $124 $-1 #
edge $-1 $183 -51.223487044892728 $134 51.223487044892728 $132 $184 forward 7 unknown #
vertex $-1 $87 $185 #
vertex $-1 $146 $186 #
straight-curve $-1 51.223487044892728 0 -6.8375264314644255 0 -1 0 I I #
coedge $-1 $126 $128 $88 $138 reversed $81 $-1 #
edge $-1 $141 -22.97357839481915 $144 22.97357839481915 $137 $187 forward 7 unknown #
coedge $-1 $132 $89 $94 $147 forward $124 $-1 #
coedge $-1 $89 $132 $126 $178 reversed $124 $-1 #
vertex $-1 $90 $188 #
straight-curve $-1 0 22.97357839481915 6.8375264314644255 -1 0 0 I I #
coedge $-1 $91 $127 $93 $146 reversed $51 $-1 #
vertex $-1 $138 $189 #
straight-curve $-1 0 -22.97357839481915 6.8375264314644255 1 0 0 I I #
edge $-1 $96 -6.8375264314644255 $135 6.8375264314644255 $93 $190 forward 7 unknown #
edge $-1 $97 -6.8375264314644255 $134 6.8375264314644255 $94 $191 forward 7 unknown #
point $-1 51.223487044892728 -22.97357839481915 6.8375264314644255 #
point $-1 51.223487044892728 22.97357839481915 6.8375264314644255 #
plane-surface $-1 0 0 6.8375264314644255 0 0 1 1 0 0 forward_v I I I I #
coedge $-1 $161 $160 $153 $192 forward $100 $-1 #
coedge $-1 $153 $102 $104 $157 reversed $59 $-1 #
coedge $-1 $102 $152 $151 $192 reversed $59 $-1 #
coedge $-1 $110 $105 $102 $155 forward $111 $-1 #
edge $-1 $158 -11.408993171683271 $193 -0.77030298627897054 $154 $194 forward 7 unknown #
coedge $-1 $104 $103 $161 $195 reversed $37 $-1 #
edge $-1 $196 8.2919974363804304e-015 $158 12.411451332526861 $152 $197 forward 7 unknown #
vertex $-1 $106 $198 #
straight-curve $-1 -40.584796859488428 -2.3483315695534674 6.8375264314644255 0 1 0 I I #
coedge $-1 $151 $107 $110 $165 reversed $100 $-1 #
coedge $-1 $107 $151 $156 $195 forward $100 $-1 #
vertex $-1 $108 $199 #
straight-curve $-1 -51.223487044892728 -11.003743765974406 44.129676084595232 0 0 1 I I #
straight-curve $-1 -51.223487044892735 -11.003743765974406 0.44515634528630699 -0.85716729658548041 0 -0.51503808176128008 I I #
edge $-1 $193 -1.6104174877605368 $112 11.003743765974406 $160 $200 forward 7 unknown #
point $-1 -51.223487044892728 -11.003743765974406 6.8375264314644255 #
point $-1 -40.584796859488428 -11.003743765974406 6.8375264314644255 #
edge $-1 $201 1 $201 0 $115 $-1 forward 7 unknown #
vertex $-1 $116 $202 #
ellipse-curve $-1 -45.230900241994362 -7.3996976934787106 2.5208790437191766 -0.51503808176128008 0 0.85716729658548041 0.85716729658548041 0 0.51503808176128008 1 I I #
point $-1 -45.046974655605091 -7.3996976934787106 4.1563794701366445 #
edge $-1 $203 1 $203 0 $119 $-1 forward 7 unknown #
vertex $-1 $120 $204 #
ellipse-curve $-1 -45.230900241994362 -1.9936285847351627 2.5208790437191766 -0.51503808176128008 0 0.85716729658548041 0.85716729658548041 0 0.51503808176128008 1 I I #
point $-1 -45.046974655605091 -1.9936285847351627 4.1563794701366445 #
plane-surface $-1 51.223487044892728 0 0 -1 0 0 0 0 1 forward_v I I I I #
coedge $-1 $128 $126 $130 $181 reversed $81 $-1 #
edge $-1 $141 -6.8375264314644255 $183 6.8375264314644255 $140 $205 forward 7 unknown #
vertex $-1 $181 $206 #
straight-curve $-1 -51.223487044892728 -22.97357839481915 0 0 0 -1 I I #
edge $-1 $179 -22.97357839481915 $183 22.97357839481915 $177 $207 forward 7 unknown #
straight-curve $-1 0 -22.97357839481915 -6.8375264314644255 -1 0 0 I I #
vertex $-1 $133 $208 #
straight-curve $-1 0 22.97357839481915 -6.8375264314644255 1 0 0 I I #
point $-1 51.223487044892728 22.97357839481915 -6.8375264314644255 #
point $-1 51.223487044892728 -22.97357839481915 -6.8375264314644255 #
straight-curve $-1 -51.223487044892728 0 6.8375264314644255 0 -1 0 I I #
point $-1 -51.223487044892728 22.97357839481915 6.8375264314644255 #
point $-1 -51.223487044892728 -22.97357839481915 6.8375264314644255 #
straight-curve $-1 51.223487044892728 -22.97357839481915 0 0 0 -1 I I #
straight-curve $-1 51.223487044892728 22.97357839481915 0 0 0 -1 I I #
edge $-1 $193 37.292149653130807 $196 43.684519739308918 $151 $209 forward 7 unknown #
vertex $-1 $165 $210 #
straight-curve $-1 -51.993790031171699 1.6104174877605368 6.8375264314644255 -1 0 0 I I #
edge $-1 $196 -3.9587490573140043 $162 8.6554121964209383 $161 $211 forward 7 unknown #
vertex $-1 $195 $212 #
straight-curve $-1 -51.223487044892735 1.6104174877605368 0.44515634528630699 0.85716729658548041 0 0.51503808176128008 I I #
point $-1 -40.584796859488428 1.6104174877605368 6.8375264314644255 #
point $-1 -51.223487044892728 -11.003743765974406 0.44515634528631126 #
straight-curve $-1 -51.223487044892728 0 6.8375264314644255 0 -1 0 I I #
vertex $-1 $168 $213 #
point $-1 -44.373732945408882 -7.3996976934787106 3.0359171254804567 #
vertex $-1 $172 $214 #
point $-1 -44.373732945408882 -1.9936285847351627 3.0359171254804567 #
straight-curve $-1 -51.223487044892728 22.97357839481915 0 0 0 -1 I I #
point $-1 -51.223487044892728 -22.97357839481915 -6.8375264314644255 #
straight-curve $-1 -51.223487044892728 0 -6.8375264314644255 0 1 0 I I #
point $-1 -51.223487044892728 22.97357839481915 -6.8375264314644255 #
straight-curve $-1 -51.223487044892728 1.6104174877605368 44.129676084595232 0 0 -1 I I #
point $-1 -51.223487044892728 1.6104174877605368 6.8375264314644255 #
straight-curve $-1 -51.223487044892728 -2.3483315695534674 0.44515634528631542 0 -1 0 I I #
point $-1 -51.223487044892728 1.6104174877605368 0.44515634528631126 #
point $-1 -44.715862160233087 -7.3996976934787106 1.6637117471336964 #
point $-1 -44.715862160233087 -1.9936285847351627 1.6637117471336964 #
End-of-ACIS-data 