500 0 11 0           
7 Unknown 11 ACIS 5.0 NT 24 Thu Mar 25 22:57:53 1999 
-1 9.9999999999999995e-007 1e-010 
body $-1 $11 $-1 $12 #
body $-1 $13 $-1 $14 #
body $-1 $15 $-1 $16 #
body $-1 $17 $-1 $18 #
body $-1 $19 $-1 $20 #
body $-1 $21 $-1 $22 #
body $-1 $23 $-1 $24 #
body $-1 $25 $-1 $26 #
body $-1 $27 $-1 $28 #
body $-1 $29 $-1 $30 #
body $-1 $31 $-1 $32 #
lump $-1 $-1 $33 $0 #
transform $-1 1 0 0 0 1 0 0 0 1 43.598742637409586 18.328849134154623 8.5003974420077313 1 rotate no_reflect no_shear #
lump $-1 $-1 $34 $1 #
transform $-1 1 0 0 0 1 0 0 0 1 43.598742637409586 18.328849134154623 8.5003974420077313 1 rotate no_reflect no_shear #
lump $-1 $-1 $35 $2 #
transform $-1 1 0 0 0 1 0 0 0 1 43.598742637409586 18.328849134154623 8.5003974420077313 1 rotate no_reflect no_shear #
lump $-1 $-1 $36 $3 #
transform $-1 1 0 0 0 1 0 0 0 1 43.598742637409586 18.328849134154623 8.5003974420077313 1 rotate no_reflect no_shear #
lump $-1 $-1 $37 $4 #
transform $-1 1 0 0 0 1 0 0 0 1 43.598742637409586 18.328849134154623 8.5003974420077313 1 rotate no_reflect no_shear #
lump $-1 $-1 $38 $5 #
transform $-1 1 0 0 0 1 0 0 0 1 43.598742637409586 18.328849134154623 8.5003974420077313 1 rotate no_reflect no_shear #
lump $-1 $-1 $39 $6 #
transform $-1 1 0 0 0 1 0 0 0 1 43.598742637409586 18.328849134154623 8.5003974420077313 1 rotate no_reflect no_shear #
lump $-1 $-1 $40 $7 #
transform $-1 1 0 0 0 1 0 0 0 1 43.598742637409586 18.328849134154623 8.5003974420077313 1 rotate no_reflect no_shear #
lump $-1 $-1 $41 $8 #
transform $-1 1 0 0 0 1 0 0 0 1 43.598742637409586 18.328849134154623 8.5003974420077313 1 rotate no_reflect no_shear #
lump $-1 $-1 $42 $9 #
transform $-1 1 0 0 0 1 0 0 0 1 43.598742637409586 18.328849134154623 8.5003974420077313 1 rotate no_reflect no_shear #
lump $-1 $-1 $43 $10 #
transform $-1 1 0 0 0 1 0 0 0 1 43.598742637409586 18.328849134154623 8.5003974420077313 1 rotate no_reflect no_shear #
shell $-1 $-1 $-1 $44 $-1 $11 #
shell $-1 $-1 $-1 $45 $-1 $13 #
shell $-1 $-1 $-1 $46 $-1 $15 #
shell $-1 $-1 $-1 $47 $-1 $17 #
shell $-1 $-1 $-1 $48 $-1 $19 #
shell $-1 $-1 $-1 $49 $-1 $21 #
shell $-1 $-1 $-1 $50 $-1 $23 #
shell $-1 $-1 $-1 $51 $-1 $25 #
shell $-1 $-1 $-1 $52 $-1 $27 #
shell $-1 $-1 $-1 $53 $-1 $29 #
shell $-1 $-1 $-1 $54 $-1 $31 #
face $-1 $55 $56 $33 $-1 $57 forward single #
face $-1 $58 $59 $34 $-1 $60 forward single #
face $-1 $61 $62 $35 $-1 $63 forward single #
face $-1 $64 $65 $36 $-1 $66 reversed single #
face $-1 $67 $68 $37 $-1 $69 forward single #
face $-1 $70 $71 $38 $-1 $72 forward single #
face $-1 $73 $74 $39 $-1 $75 forward single #
face $-1 $76 $77 $40 $-1 $78 reversed single #
face $-1 $79 $80 $41 $-1 $81 forward single #
face $-1 $82 $83 $42 $-1 $84 forward single #
face $-1 $85 $86 $43 $-1 $87 forward single #
face $-1 $88 $89 $33 $-1 $90 reversed single #
loop $-1 $-1 $91 $44 #
plane-surface $-1 0 0 8.5003974420077313 0 0 1 1 0 0 forward_v I I I I #
face $-1 $92 $93 $34 $-1 $94 reversed single #
loop $-1 $-1 $95 $45 #
plane-surface $-1 0 -18.328849134154623 0 0 1 0 0 0 1 forward_v I I I I #
face $-1 $96 $97 $35 $-1 $98 reversed single #
loop $-1 $-1 $99 $46 #
plane-surface $-1 0 18.328849134154623 0 0 -1 0 0 0 -1 forward_v I I I I #
face $-1 $100 $101 $36 $-1 $102 reversed single #
loop $-1 $-1 $103 $47 #
plane-surface $-1 -100.80544085290018 -9.3043517457331397 66.657832668798648 0 1 0 -0.6560590369687036 0 0.75470957328743171 forward_v I I I I #
face $-1 $104 $105 $37 $-1 $106 forward single #
loop $-1 $107 $108 $48 #
cone-surface $-1 -38.869782344018596 -8.152410006795149 4.2973718170115243 0.6560590369687036 0 -0.75470957328743171 0.37735478664371586 0 0.3280295184843518 1 I I 0 1 0.5 forward I I I I #
face $-1 $109 $110 $38 $-1 $111 forward single #
loop $-1 $112 $113 $49 #
cone-surface $-1 -38.869782344018596 -6.4244973983881604 4.2973718170115243 0.6560590369687036 0 -0.75470957328743171 0.37735478664371586 0 0.3280295184843518 1 I I 0 1 0.5 forward I I I I #
face $-1 $114 $115 $39 $-1 $116 forward single #
loop $-1 $117 $118 $50 #
cone-surface $-1 -38.869782344018596 -4.6965847899811717 4.2973718170115243 0.6560590369687036 0 -0.75470957328743171 0.37735478664371586 0 0.3280295184843518 1 I I 0 1 0.5 forward I I I I #
face $-1 $119 $120 $40 $-1 $121 reversed single #
loop $-1 $-1 $122 $51 #
plane-surface $-1 34.996663949404294 -3.5446430510431766 123.8645308842892 0 -1 0 -0.6560590369687036 0 -0.75470957328743171 forward_v I I I I #
face $-1 $123 $124 $41 $-1 $125 forward single #
loop $-1 $126 $127 $52 #
cone-surface $-1 38.869782344018596 -8.152410006795149 4.2973718170115296 -0.6560590369687036 0 -0.75470957328743171 0.37735478664371586 0 -0.3280295184843518 1 I I 0 1 0.5 forward I I I I #
face $-1 $128 $129 $42 $-1 $130 forward single #
loop $-1 $131 $132 $53 #
cone-surface $-1 38.869782344018596 -6.4244973983881604 4.2973718170115296 -0.6560590369687036 0 -0.75470957328743171 0.37735478664371586 0 -0.3280295184843518 1 I I 0 1 0.5 forward I I I I #
face $-1 $133 $134 $43 $-1 $135 forward single #
loop $-1 $136 $137 $54 #
cone-surface $-1 38.869782344018596 -4.6965847899811717 4.2973718170115296 -0.6560590369687036 0 -0.75470957328743171 0.37735478664371586 0 -0.3280295184843518 1 I I 0 1 0.5 forward I I I I #
face $-1 $138 $139 $33 $-1 $140 reversed single #
loop $-1 $-1 $141 $55 #
plane-surface $-1 0 0 -8.5003974420077313 0 0 1 1 0 0 forward_v I I I I #
coedge $-1 $142 $143 $144 $145 forward $56 $-1 #
face $-1 $146 $147 $34 $-1 $148 reversed single #
loop $-1 $-1 $149 $58 #
plane-surface $-1 0 0 -8.5003974420077313 0 0 1 1 0 0 forward_v I I I I #
coedge $-1 $150 $151 $152 $153 forward $59 $-1 #
face $-1 $154 $155 $35 $-1 $156 forward single #
loop $-1 $-1 $157 $61 #
plane-surface $-1 -43.598742637409586 0 0 1 0 0 0 0 -1 forward_v I I I I #
coedge $-1 $158 $159 $160 $161 forward $62 $-1 #
face $-1 $162 $163 $36 $-1 $164 reversed single #
loop $-1 $-1 $165 $64 #
plane-surface $-1 -43.5987426374096 -6.4244973983881586 0.84905576530276505 -0.6560590369687036 0 0.75470957328743171 0.75470957328743171 0 0.6560590369687036 forward_v I I I I #
coedge $-1 $166 $167 $168 $169 reversed $65 $-1 #
face $-1 $-1 $170 $37 $-1 $171 forward single #
loop $-1 $172 $173 $67 #
cone-surface $-1 -38.377738066292068 -8.152410006795149 3.7313396370459504 0.6560590369687036 0 -0.75470957328743171 0.18867739332185793 0 0.1640147592421759 1 I I -0.70710678118654746 0.70710678118654746 0.25 forward I I I I #
loop $-1 $-1 $174 $48 #
coedge $-1 $108 $108 $175 $176 reversed $68 $-1 #
face $-1 $-1 $177 $38 $-1 $178 forward single #
loop $-1 $179 $180 $70 #
cone-surface $-1 -38.377738066292068 -6.4244973983881604 3.7313396370459504 0.6560590369687036 0 -0.75470957328743171 0.18867739332185793 0 0.1640147592421759 1 I I -0.70710678118654746 0.70710678118654746 0.25 forward I I I I #
loop $-1 $-1 $181 $49 #
coedge $-1 $113 $113 $182 $183 reversed $71 $-1 #
face $-1 $-1 $184 $39 $-1 $185 forward single #
loop $-1 $186 $187 $73 #
cone-surface $-1 -38.377738066292068 -4.6965847899811717 3.7313396370459504 0.6560590369687036 0 -0.75470957328743171 0.18867739332185793 0 0.1640147592421759 1 I I -0.70710678118654746 0.70710678118654746 0.25 forward I I I I #
loop $-1 $-1 $188 $50 #
coedge $-1 $118 $118 $189 $190 reversed $74 $-1 #
face $-1 $191 $192 $40 $-1 $193 reversed single #
loop $-1 $-1 $194 $76 #
plane-surface $-1 -22.210034266086282 -6.4244973983881586 58.055753980793313 0.6560590369687036 0 0.75470957328743171 0.75470957328743171 0 -0.6560590369687036 forward_v I I I I #
coedge $-1 $195 $196 $197 $198 reversed $77 $-1 #
face $-1 $-1 $199 $41 $-1 $200 forward single #
loop $-1 $201 $202 $79 #
cone-surface $-1 38.377738066292068 -8.152410006795149 3.7313396370459557 -0.6560590369687036 0 -0.75470957328743171 0.18867739332185793 0 -0.1640147592421759 1 I I -0.70710678118654746 0.70710678118654746 0.25 forward I I I I #
loop $-1 $-1 $203 $52 #
coedge $-1 $127 $127 $204 $205 reversed $80 $-1 #
face $-1 $-1 $206 $42 $-1 $207 forward single #
loop $-1 $208 $209 $82 #
cone-surface $-1 38.377738066292068 -6.4244973983881604 3.7313396370459557 -0.6560590369687036 0 -0.75470957328743171 0.18867739332185793 0 -0.1640147592421759 1 I I -0.70710678118654746 0.70710678118654746 0.25 forward I I I I #
loop $-1 $-1 $210 $53 #
coedge $-1 $132 $132 $211 $212 reversed $83 $-1 #
face $-1 $-1 $213 $43 $-1 $214 forward single #
loop $-1 $215 $216 $85 #
cone-surface $-1 38.377738066292068 -4.6965847899811717 3.7313396370459557 -0.6560590369687036 0 -0.75470957328743171 0.18867739332185793 0 -0.1640147592421759 1 I I -0.70710678118654746 0.70710678118654746 0.25 forward I I I I #
loop $-1 $-1 $217 $54 #
coedge $-1 $137 $137 $218 $219 reversed $86 $-1 #
face $-1 $220 $221 $33 $-1 $222 reversed single #
loop $-1 $-1 $223 $88 #
plane-surface $-1 0 -18.328849134154623 0 0 1 0 0 0 1 forward_v I I I I #
coedge $-1 $224 $225 $226 $227 forward $89 $-1 #
coedge $-1 $228 $91 $229 $230 forward $56 $-1 #
coedge $-1 $91 $228 $231 $232 forward $56 $-1 #
coedge $-1 $233 $234 $91 $145 reversed $235 $-1 #
edge $-1 $236 -18.328849134154623 $237 18.328849134154623 $144 $238 forward 7 unknown #
face $-1 $239 $240 $34 $-1 $241 forward single #
loop $-1 $-1 $242 $92 #
plane-surface $-1 43.598742637409586 0 0 -1 0 0 0 0 1 forward_v I I I I #
coedge $-1 $243 $244 $245 $246 forward $93 $-1 #
coedge $-1 $245 $95 $242 $247 reversed $59 $-1 #
coedge $-1 $95 $245 $248 $249 reversed $59 $-1 #
coedge $-1 $250 $251 $95 $153 reversed $240 $-1 #
edge $-1 $252 -43.598742637409586 $253 43.598742637409586 $152 $254 forward 7 unknown #
face $-1 $255 $256 $35 $-1 $257 reversed single #
loop $-1 $-1 $258 $96 #
plane-surface $-1 0 22.841097828365363 -3.925742802527378 0 0 1 1 0 0 forward_v I I I I #
coedge $-1 $259 $260 $158 $261 forward $97 $-1 #
coedge $-1 $262 $99 $157 $261 reversed $62 $-1 #
coedge $-1 $99 $262 $263 $264 reversed $62 $-1 #
coedge $-1 $258 $265 $99 $161 reversed $155 $-1 #
edge $-1 $266 -43.598742637409586 $267 43.598742637409586 $160 $268 forward 7 unknown #
face $-1 $269 $270 $36 $-1 $271 reversed single #
loop $-1 $-1 $272 $100 #
plane-surface $-1 -100.80544085290018 -3.5446430510431766 66.657832668798648 0 -1 0 0.6560590369687036 0 -0.75470957328743171 forward_v I I I I #
coedge $-1 $273 $274 $275 $276 reversed $101 $-1 #
coedge $-1 $167 $103 $277 $278 reversed $65 $-1 #
coedge $-1 $103 $166 $273 $279 reversed $65 $-1 #
coedge $-1 $275 $280 $103 $169 forward $281 $-1 #
edge $-1 $282 6.803977789040502 $283 15.605839338853748 $168 $284 forward 7 unknown #
loop $-1 $-1 $175 $104 #
plane-surface $-1 -43.5987426374096 -6.4244973983881586 0.84905576530276505 -0.6560590369687036 0 0.75470957328743171 0.75470957328743171 0 0.6560590369687036 forward_v I I I I #
loop $-1 $-1 $285 $67 #
coedge $-1 $173 $173 $174 $286 reversed $105 $-1 #
coedge $-1 $174 $174 $173 $286 forward $107 $-1 #
coedge $-1 $175 $175 $108 $176 forward $170 $-1 #
edge $-1 $287 0 $287 6.2831853071796004 $175 $288 forward 7 unknown #
loop $-1 $-1 $182 $109 #
plane-surface $-1 -43.5987426374096 -6.4244973983881586 0.84905576530276505 -0.6560590369687036 0 0.75470957328743171 0.75470957328743171 0 0.6560590369687036 forward_v I I I I #
loop $-1 $-1 $289 $70 #
coedge $-1 $180 $180 $181 $290 reversed $110 $-1 #
coedge $-1 $181 $181 $180 $290 forward $112 $-1 #
coedge $-1 $182 $182 $113 $183 forward $177 $-1 #
edge $-1 $291 0 $291 6.2831853071796004 $182 $292 forward 7 unknown #
loop $-1 $-1 $189 $114 #
plane-surface $-1 -43.5987426374096 -6.4244973983881586 0.84905576530276505 -0.6560590369687036 0 0.75470957328743171 0.75470957328743171 0 0.6560590369687036 forward_v I I I I #
loop $-1 $-1 $293 $73 #
coedge $-1 $187 $187 $188 $294 reversed $115 $-1 #
coedge $-1 $188 $188 $187 $294 forward $117 $-1 #
coedge $-1 $189 $189 $118 $190 forward $184 $-1 #
edge $-1 $295 0 $295 6.2831853071796004 $189 $296 forward 7 unknown #
face $-1 $297 $298 $40 $-1 $299 forward single #
loop $-1 $-1 $300 $119 #
plane-surface $-1 34.996663949404294 -9.3043517457331397 123.8645308842892 0 1 0 0.6560590369687036 0 0.75470957328743171 forward_v I I I I #
coedge $-1 $301 $302 $303 $304 reversed $120 $-1 #
coedge $-1 $196 $122 $305 $306 reversed $77 $-1 #
coedge $-1 $122 $195 $301 $307 reversed $77 $-1 #
coedge $-1 $303 $308 $122 $198 forward $298 $-1 #
edge $-1 $309 -26.100410662707439 $310 -17.298549112894165 $197 $311 forward 7 unknown #
loop $-1 $-1 $204 $123 #
plane-surface $-1 -22.210034266086282 -6.4244973983881586 58.055753980793313 0.6560590369687036 0 0.75470957328743171 0.75470957328743171 0 -0.6560590369687036 forward_v I I I I #
loop $-1 $-1 $312 $79 #
coedge $-1 $202 $202 $203 $313 reversed $124 $-1 #
coedge $-1 $203 $203 $202 $313 forward $126 $-1 #
coedge $-1 $204 $204 $127 $205 forward $199 $-1 #
edge $-1 $314 0 $314 6.2831853071796004 $204 $315 forward 7 unknown #
loop $-1 $-1 $211 $128 #
plane-surface $-1 -22.210034266086282 -6.4244973983881586 58.055753980793313 0.6560590369687036 0 0.75470957328743171 0.75470957328743171 0 -0.6560590369687036 forward_v I I I I #
loop $-1 $-1 $316 $82 #
coedge $-1 $209 $209 $210 $317 reversed $129 $-1 #
coedge $-1 $210 $210 $209 $317 forward $131 $-1 #
coedge $-1 $211 $211 $132 $212 forward $206 $-1 #
edge $-1 $318 0 $318 6.2831853071796004 $211 $319 forward 7 unknown #
loop $-1 $-1 $218 $133 #
plane-surface $-1 -22.210034266086282 -6.4244973983881586 58.055753980793313 0.6560590369687036 0 0.75470957328743171 0.75470957328743171 0 -0.6560590369687036 forward_v I I I I #
loop $-1 $-1 $320 $85 #
coedge $-1 $216 $216 $217 $321 reversed $134 $-1 #
coedge $-1 $217 $217 $216 $321 forward $136 $-1 #
coedge $-1 $218 $218 $137 $219 forward $213 $-1 #
edge $-1 $322 0 $322 6.2831853071796004 $218 $323 forward 7 unknown #
face $-1 $324 $325 $33 $-1 $326 reversed single #
loop $-1 $-1 $327 $138 #
plane-surface $-1 -43.598742637409586 0 0 1 0 0 0 0 -1 forward_v I I I I #
coedge $-1 $231 $328 $233 $329 reversed $139 $-1 #
coedge $-1 $330 $141 $328 $331 forward $89 $-1 #
coedge $-1 $141 $330 $332 $333 forward $89 $-1 #
coedge $-1 $234 $233 $141 $227 reversed $235 $-1 #
edge $-1 $334 -18.328849134154623 $335 18.328849134154623 $226 $336 forward 7 unknown #
coedge $-1 $143 $142 $337 $338 forward $56 $-1 #
coedge $-1 $339 $340 $142 $230 reversed $325 $-1 #
edge $-1 $237 -43.598742637409586 $341 43.598742637409586 $229 $342 forward 7 unknown #
coedge $-1 $343 $223 $143 $232 reversed $139 $-1 #
edge $-1 $344 -43.598742637409586 $236 43.598742637409586 $231 $345 forward 7 unknown #
coedge $-1 $226 $144 $223 $329 forward $235 $-1 #
coedge $-1 $144 $226 $339 $346 reversed $235 $-1 #
loop $-1 $-1 $233 $324 #
vertex $-1 $145 $347 #
vertex $-1 $145 $348 #
straight-curve $-1 43.598742637409586 0 8.5003974420077313 0 1 0 I I #
face $-1 $349 $350 $34 $-1 $351 reversed single #
loop $-1 $-1 $251 $146 #
plane-surface $-1 0 -22.841097828365363 -3.925742802527378 0 0 1 1 0 0 forward_v I I I I #
coedge $-1 $352 $353 $150 $247 forward $147 $-1 #
coedge $-1 $354 $149 $353 $355 forward $93 $-1 #
coedge $-1 $149 $354 $356 $357 forward $93 $-1 #
coedge $-1 $151 $150 $149 $246 reversed $59 $-1 #
edge $-1 $358 -43.598742637409586 $359 43.598742637409586 $149 $360 forward 7 unknown #
edge $-1 $359 -8.5003974420077313 $253 -3.925742802527378 $242 $361 forward 7 unknown #
coedge $-1 $356 $362 $151 $249 forward $363 $-1 #
edge $-1 $252 3.925742802527378 $358 8.5003974420077313 $248 $364 forward 7 unknown #
coedge $-1 $365 $152 $362 $366 forward $240 $-1 #
coedge $-1 $152 $365 $352 $367 forward $240 $-1 #
vertex $-1 $249 $368 #
vertex $-1 $367 $369 #
straight-curve $-1 0 -18.328849134154623 -3.925742802527378 1 0 0 I I #
face $-1 $370 $371 $35 $-1 $372 reversed single #
loop $-1 $-1 $373 $154 #
plane-surface $-1 0 27.353346522576103 -6.2130701222675544 0 -1 0 0 0 -1 forward_v I I I I #
coedge $-1 $374 $160 $375 $376 forward $155 $-1 #
coedge $-1 $377 $157 $265 $378 reversed $97 $-1 #
coedge $-1 $157 $377 $379 $380 reversed $97 $-1 #
edge $-1 $381 -8.5003974420077313 $267 -3.925742802527378 $157 $382 forward 7 unknown #
coedge $-1 $159 $158 $383 $384 reversed $62 $-1 #
coedge $-1 $385 $375 $159 $264 forward $386 $-1 #
edge $-1 $266 3.925742802527378 $387 8.5003974420077313 $263 $388 forward 7 unknown #
coedge $-1 $160 $374 $259 $378 forward $155 $-1 #
vertex $-1 $264 $389 #
vertex $-1 $378 $390 #
straight-curve $-1 0 18.328849134154623 -3.925742802527378 -1 0 0 I I #
face $-1 $-1 $281 $36 $-1 $391 forward single #
loop $-1 $-1 $392 $162 #
plane-surface $-1 -43.598742637409586 0 0 1 0 0 0 0 -1 forward_v I I I I #
coedge $-1 $393 $394 $395 $396 reversed $163 $-1 #
coedge $-1 $397 $165 $167 $279 forward $101 $-1 #
coedge $-1 $165 $397 $393 $398 forward $101 $-1 #
coedge $-1 $395 $168 $165 $276 forward $281 $-1 #
edge $-1 $283 -6.0921030465390604 $399 -0.33239435184909727 $275 $400 forward 7 unknown #
coedge $-1 $401 $402 $166 $278 forward $270 $-1 #
edge $-1 $403 -32.479860569096545 $282 -24.828518892391592 $277 $404 forward 7 unknown #
edge $-1 $283 -11.662581026332184 $403 -1.8809995614912076e-014 $167 $405 forward 7 unknown #
coedge $-1 $168 $395 $401 $406 forward $281 $-1 #
loop $-1 $-1 $395 $269 #
vertex $-1 $278 $407 #
vertex $-1 $169 $408 #
straight-curve $-1 -50.402720426450088 -9.3043517457331397 8.5003974420077313 1 0 0 I I #
coedge $-1 $285 $285 $-1 $409 reversed $172 $-1 #
edge $-1 $410 0 $410 6.2831853071796004 $173 $411 forward 7 unknown #
vertex $-1 $176 $412 #
ellipse-curve $-1 -39.197811862502959 -8.152410006795149 4.6747266036552562 -0.6560590369687036 0 0.75470957328743171 0.37735478664371586 0 0.3280295184843518 1 I I #
coedge $-1 $289 $289 $-1 $413 reversed $179 $-1 #
edge $-1 $414 0 $414 6.2831853071796004 $180 $415 forward 7 unknown #
vertex $-1 $183 $416 #
ellipse-curve $-1 -39.197811862502959 -6.4244973983881604 4.6747266036552562 -0.6560590369687036 0 0.75470957328743171 0.37735478664371586 0 0.3280295184843518 1 I I #
coedge $-1 $293 $293 $-1 $417 reversed $186 $-1 #
edge $-1 $418 0 $418 6.2831853071796004 $187 $419 forward 7 unknown #
vertex $-1 $190 $420 #
ellipse-curve $-1 -39.197811862502959 -4.6965847899811717 4.6747266036552562 -0.6560590369687036 0 0.75470957328743171 0.37735478664371586 0 0.3280295184843518 1 I I #
face $-1 $-1 $421 $40 $-1 $422 reversed single #
loop $-1 $-1 $197 $191 #
plane-surface $-1 0 0 8.5003974420077313 0 0 1 1 0 0 forward_v I I I I #
coedge $-1 $423 $424 $425 $426 reversed $192 $-1 #
coedge $-1 $427 $194 $196 $307 forward $120 $-1 #
coedge $-1 $194 $427 $423 $428 forward $120 $-1 #
coedge $-1 $425 $197 $194 $304 forward $298 $-1 #
edge $-1 $310 0.33239435184909727 $429 6.0921030465390604 $303 $430 forward 7 unknown #
coedge $-1 $431 $432 $195 $306 forward $421 $-1 #
edge $-1 $433 -61.083209676841847 $309 -53.431868000136866 $305 $434 forward 7 unknown #
edge $-1 $310 75.534904248486953 $433 87.197485274819144 $196 $435 forward 7 unknown #
coedge $-1 $197 $425 $431 $436 forward $298 $-1 #
vertex $-1 $306 $437 #
vertex $-1 $198 $438 #
straight-curve $-1 17.498331974702147 -3.5446430510431766 8.5003974420077313 -1 0 0 I I #
coedge $-1 $312 $312 $-1 $439 reversed $201 $-1 #
edge $-1 $440 0 $440 6.2831853071796004 $202 $441 forward 7 unknown #
vertex $-1 $205 $442 #
ellipse-curve $-1 39.197811862502945 -8.152410006795149 4.6747266036552402 0.6560590369687036 0 0.75470957328743171 0.37735478664371586 0 -0.3280295184843518 1 I I #
coedge $-1 $316 $316 $-1 $443 reversed $208 $-1 #
edge $-1 $444 0 $444 6.2831853071796004 $209 $445 forward 7 unknown #
vertex $-1 $212 $446 #
ellipse-curve $-1 39.197811862502945 -6.4244973983881604 4.6747266036552402 0.6560590369687036 0 0.75470957328743171 0.37735478664371586 0 -0.3280295184843518 1 I I #
coedge $-1 $320 $320 $-1 $447 reversed $215 $-1 #
edge $-1 $448 0 $448 6.2831853071796004 $216 $449 forward 7 unknown #
vertex $-1 $219 $450 #
ellipse-curve $-1 39.197811862502945 -4.6965847899811717 4.6747266036552402 0.6560590369687036 0 0.75470957328743171 0.37735478664371586 0 -0.3280295184843518 1 I I #
face $-1 $-1 $235 $33 $-1 $451 reversed single #
loop $-1 $-1 $340 $220 #
plane-surface $-1 0 18.328849134154623 0 0 -1 0 0 0 -1 forward_v I I I I #
coedge $-1 $452 $337 $340 $453 forward $221 $-1 #
coedge $-1 $223 $343 $224 $331 reversed $139 $-1 #
edge $-1 $236 -8.5003974420077313 $335 8.5003974420077313 $233 $454 forward 7 unknown #
coedge $-1 $225 $224 $452 $455 forward $89 $-1 #
edge $-1 $335 -43.598742637409586 $456 43.598742637409586 $328 $457 forward 7 unknown #
coedge $-1 $340 $339 $225 $333 reversed $325 $-1 #
edge $-1 $458 -43.598742637409586 $334 43.598742637409586 $332 $459 forward 7 unknown #
vertex $-1 $227 $460 #
vertex $-1 $329 $461 #
straight-curve $-1 43.598742637409586 0 -8.5003974420077313 0 -1 0 I I #
coedge $-1 $327 $462 $228 $338 reversed $221 $-1 #
edge $-1 $341 -18.328849134154623 $344 18.328849134154623 $337 $463 forward 7 unknown #
coedge $-1 $332 $229 $234 $346 forward $325 $-1 #
coedge $-1 $229 $332 $327 $453 reversed $325 $-1 #
vertex $-1 $230 $464 #
straight-curve $-1 0 18.328849134154623 8.5003974420077313 -1 0 0 I I #
coedge $-1 $328 $231 $462 $465 forward $139 $-1 #
vertex $-1 $338 $466 #
straight-curve $-1 0 -18.328849134154623 8.5003974420077313 1 0 0 I I #
edge $-1 $237 -8.5003974420077313 $334 8.5003974420077313 $234 $467 forward 7 unknown #
point $-1 43.598742637409586 -18.328849134154623 8.5003974420077313 #
point $-1 43.598742637409586 18.328849134154623 8.5003974420077313 #
face $-1 $-1 $363 $34 $-1 $468 reversed single #
loop $-1 $-1 $469 $239 #
plane-surface $-1 0 -27.353346522576103 -6.2130701222675544 0 1 0 0 0 1 forward_v I I I I #
coedge $-1 $470 $242 $251 $367 reversed $147 $-1 #
coedge $-1 $242 $470 $243 $355 reversed $147 $-1 #
coedge $-1 $244 $243 $471 $472 forward $93 $-1 #
edge $-1 $359 18.328849134154623 $473 27.353346522576103 $353 $474 forward 7 unknown #
coedge $-1 $475 $248 $244 $357 reversed $363 $-1 #
edge $-1 $476 -27.353346522576103 $358 -18.328849134154623 $356 $477 forward 7 unknown #
vertex $-1 $249 $478 #
vertex $-1 $355 $479 #
straight-curve $-1 0 -18.328849134154623 -8.5003974420077313 1 0 0 I I #
straight-curve $-1 43.598742637409586 -18.328849134154623 0 0 0 1 I I #
coedge $-1 $248 $475 $250 $366 reversed $363 $-1 #
loop $-1 $-1 $248 $349 #
straight-curve $-1 -43.598742637409586 -18.328849134154623 0 0 0 -1 I I #
coedge $-1 $251 $250 $480 $481 forward $240 $-1 #
edge $-1 $252 -4.51224869421074 $482 4.51224869421074 $362 $483 forward 7 unknown #
edge $-1 $484 -4.51224869421074 $253 4.51224869421074 $352 $485 forward 7 unknown #
point $-1 -43.598742637409586 -18.328849134154623 -3.925742802527378 #
point $-1 43.598742637409586 -18.328849134154623 -3.925742802527378 #
face $-1 $-1 $386 $35 $-1 $486 reversed single #
loop $-1 $-1 $383 $255 #
plane-surface $-1 0 0 -8.5003974420077313 0 0 1 1 0 0 forward_v I I I I #
coedge $-1 $487 $488 $489 $490 forward $256 $-1 #
coedge $-1 $265 $258 $488 $491 forward $155 $-1 #
coedge $-1 $263 $489 $258 $376 reversed $386 $-1 #
edge $-1 $266 -4.51224869421074 $492 4.51224869421074 $375 $493 forward 7 unknown #
coedge $-1 $260 $259 $494 $495 forward $97 $-1 #
edge $-1 $496 -4.51224869421074 $267 4.51224869421074 $259 $497 forward 7 unknown #
coedge $-1 $498 $383 $260 $380 forward $371 $-1 #
edge $-1 $381 -4.51224869421074 $499 4.51224869421074 $260 $500 forward 7 unknown #
vertex $-1 $380 $501 #
straight-curve $-1 -43.598742637409586 18.328849134154623 0 0 0 1 I I #
coedge $-1 $379 $502 $262 $384 forward $371 $-1 #
edge $-1 $387 -43.598742637409586 $381 43.598742637409586 $383 $503 forward 7 unknown #
coedge $-1 $489 $263 $502 $504 reversed $386 $-1 #
loop $-1 $-1 $263 $370 #
vertex $-1 $264 $505 #
straight-curve $-1 43.598742637409586 18.328849134154623 0 0 0 -1 I I #
point $-1 43.598742637409586 18.328849134154623 -3.925742802527378 #
point $-1 -43.598742637409586 18.328849134154623 -3.925742802527378 #
plane-surface $-1 0 0 8.5003974420077313 0 0 1 1 0 0 forward_v I I I I #
coedge $-1 $402 $401 $394 $506 forward $270 $-1 #
coedge $-1 $394 $272 $274 $398 reversed $163 $-1 #
coedge $-1 $272 $393 $392 $506 reversed $163 $-1 #
coedge $-1 $280 $275 $272 $396 forward $281 $-1 #
edge $-1 $399 -15.605839338853748 $507 -6.803977789040502 $395 $508 forward 7 unknown #
coedge $-1 $274 $273 $402 $509 reversed $101 $-1 #
edge $-1 $510 1.8809995614912076e-014 $399 11.662581026332184 $393 $511 forward 7 unknown #
vertex $-1 $276 $512 #
straight-curve $-1 -34.79688108759634 -3.2122486991940793 8.5003974420077313 0 1 0 I I #
coedge $-1 $392 $277 $280 $406 reversed $270 $-1 #
coedge $-1 $277 $392 $397 $509 forward $270 $-1 #
vertex $-1 $278 $513 #
straight-curve $-1 -43.598742637409586 -9.3043517457331397 33.328916334399324 0 0 1 I I #
straight-curve $-1 -43.5987426374096 -9.3043517457331397 0.84905576530276505 -0.75470957328743171 0 -0.6560590369687036 I I #
edge $-1 $507 3.5446430510431766 $282 9.3043517457331397 $401 $514 forward 7 unknown #
point $-1 -43.598742637409586 -9.3043517457331397 8.5003974420077313 #
point $-1 -34.79688108759634 -9.3043517457331397 8.5003974420077313 #
edge $-1 $515 1 $515 0 $285 $-1 forward 7 unknown #
vertex $-1 $286 $516 #
ellipse-curve $-1 -38.541752825534246 -8.152410006795149 3.9200170303678084 -0.6560590369687036 0 0.75470957328743171 0.37735478664371586 0 0.3280295184843518 1 I I #
point $-1 -38.820457075859231 -8.152410006795149 5.0027561221395924 #
edge $-1 $517 1 $517 0 $289 $-1 forward 7 unknown #
vertex $-1 $290 $518 #
ellipse-curve $-1 -38.541752825534246 -6.4244973983881604 3.9200170303678084 -0.6560590369687036 0 0.75470957328743171 0.37735478664371586 0 0.3280295184843518 1 I I #
point $-1 -38.820457075859231 -6.4244973983881604 5.0027561221395924 #
edge $-1 $519 1 $519 0 $293 $-1 forward 7 unknown #
vertex $-1 $294 $520 #
ellipse-curve $-1 -38.541752825534246 -4.6965847899811717 3.9200170303678084 -0.6560590369687036 0 0.75470957328743171 0.37735478664371586 0 0.3280295184843518 1 I I #
point $-1 -38.820457075859231 -4.6965847899811717 5.0027561221395924 #
loop $-1 $-1 $305 $297 #
plane-surface $-1 43.598742637409586 0 0 -1 0 0 0 0 1 forward_v I I I I #
coedge $-1 $424 $300 $302 $428 reversed $192 $-1 #
coedge $-1 $300 $423 $521 $522 reversed $192 $-1 #
coedge $-1 $308 $303 $300 $426 forward $298 $-1 #
edge $-1 $429 17.298549112894165 $523 26.100410662707439 $425 $524 forward 7 unknown #
coedge $-1 $302 $301 $432 $525 reversed $120 $-1 #
edge $-1 $526 -87.197485274819144 $429 -75.534904248486953 $423 $527 forward 7 unknown #
vertex $-1 $304 $528 #
straight-curve $-1 34.796881087596304 -3.2122486991940793 8.5003974420077384 0 -1 0 I I #
coedge $-1 $521 $305 $308 $436 reversed $421 $-1 #
coedge $-1 $305 $521 $427 $525 forward $421 $-1 #
vertex $-1 $306 $529 #
straight-curve $-1 43.598742637409586 -3.5446430510431766 61.932265442144598 0 0 1 I I #
straight-curve $-1 -22.210034266086282 -3.5446430510431766 58.055753980793313 0.75470957328743171 0 -0.6560590369687036 I I #
edge $-1 $523 -9.3043517457331397 $309 -3.5446430510431766 $431 $530 forward 7 unknown #
point $-1 43.598742637409586 -3.5446430510431766 8.5003974420077313 #
point $-1 34.796881087596311 -3.5446430510431766 8.5003974420077313 #
edge $-1 $531 1 $531 0 $312 $-1 forward 7 unknown #
vertex $-1 $313 $532 #
ellipse-curve $-1 38.541752825534246 -8.152410006795149 3.9200170303678137 0.6560590369687036 0 0.75470957328743171 0.37735478664371586 0 -0.3280295184843518 1 I I #
point $-1 39.575166649146666 -8.152410006795149 4.3466970851708933 #
edge $-1 $533 1 $533 0 $316 $-1 forward 7 unknown #
vertex $-1 $317 $534 #
ellipse-curve $-1 38.541752825534246 -6.4244973983881604 3.9200170303678137 0.6560590369687036 0 0.75470957328743171 0.37735478664371586 0 -0.3280295184843518 1 I I #
point $-1 39.575166649146666 -6.4244973983881604 4.3466970851708933 #
edge $-1 $535 1 $535 0 $320 $-1 forward 7 unknown #
vertex $-1 $321 $536 #
ellipse-curve $-1 38.541752825534246 -4.6965847899811717 3.9200170303678137 0.6560590369687036 0 0.75470957328743171 0.37735478664371586 0 -0.3280295184843518 1 I I #
point $-1 39.575166649146666 -4.6965847899811717 4.3466970851708933 #
plane-surface $-1 43.598742637409586 0 0 -1 0 0 0 0 1 forward_v I I I I #
coedge $-1 $462 $327 $330 $455 reversed $221 $-1 #
edge $-1 $341 -8.5003974420077313 $458 8.5003974420077313 $340 $537 forward 7 unknown #
straight-curve $-1 43.598742637409586 -18.328849134154623 0 0 0 -1 I I #
edge $-1 $456 -18.328849134154623 $458 18.328849134154623 $452 $538 forward 7 unknown #
vertex $-1 $455 $539 #
straight-curve $-1 0 -18.328849134154623 -8.5003974420077313 -1 0 0 I I #
vertex $-1 $333 $540 #
straight-curve $-1 0 18.328849134154623 -8.5003974420077313 1 0 0 I I #
point $-1 43.598742637409586 18.328849134154623 -8.5003974420077313 #
point $-1 43.598742637409586 -18.328849134154623 -8.5003974420077313 #
coedge $-1 $337 $452 $343 $465 reversed $221 $-1 #
straight-curve $-1 -43.598742637409586 0 8.5003974420077313 0 -1 0 I I #
point $-1 -43.598742637409586 18.328849134154623 8.5003974420077313 #
edge $-1 $344 -8.5003974420077313 $456 8.5003974420077313 $462 $541 forward 7 unknown #
point $-1 -43.598742637409586 -18.328849134154623 8.5003974420077313 #
straight-curve $-1 43.598742637409586 18.328849134154623 0 0 0 -1 I I #
plane-surface $-1 -43.598742637409586 0 0 1 0 0 0 0 -1 forward_v I I I I #
coedge $-1 $471 $480 $475 $542 forward $350 $-1 #
coedge $-1 $353 $352 $543 $544 forward $147 $-1 #
coedge $-1 $543 $469 $354 $472 reversed $350 $-1 #
edge $-1 $473 -43.598742637409586 $476 43.598742637409586 $471 $545 forward 7 unknown #
vertex $-1 $544 $546 #
straight-curve $-1 43.598742637409586 0 -8.5003974420077313 0 -1 0 I I #
coedge $-1 $362 $356 $469 $542 reversed $363 $-1 #
vertex $-1 $357 $547 #
straight-curve $-1 -43.598742637409586 0 -8.5003974420077313 0 1 0 I I #
point $-1 -43.598742637409586 -18.328849134154623 -8.5003974420077313 #
point $-1 43.598742637409586 -18.328849134154623 -8.5003974420077313 #
coedge $-1 $469 $543 $365 $481 reversed $350 $-1 #
edge $-1 $482 -43.598742637409586 $484 43.598742637409586 $480 $548 forward 7 unknown #
vertex $-1 $366 $549 #
straight-curve $-1 -43.598742637409586 -22.841097828365363 -3.925742802527378 0 -1 0 I I #
vertex $-1 $367 $550 #
straight-curve $-1 43.598742637409586 -22.841097828365363 -3.925742802527378 0 1 0 I I #
plane-surface $-1 43.598742637409586 0 0 -1 0 0 0 0 1 forward_v I I I I #
coedge $-1 $494 $373 $498 $551 reversed $256 $-1 #
coedge $-1 $373 $494 $374 $491 reversed $256 $-1 #
coedge $-1 $375 $385 $373 $490 reversed $386 $-1 #
edge $-1 $492 -2.2873273197401764 $552 2.2873273197401769 $489 $553 forward 7 unknown #
edge $-1 $492 -43.598742637409586 $496 43.598742637409586 $488 $554 forward 7 unknown #
vertex $-1 $376 $555 #
straight-curve $-1 43.598742637409586 22.841097828365363 -3.925742802527378 0 1 0 I I #
coedge $-1 $488 $487 $377 $495 reversed $256 $-1 #
edge $-1 $496 -2.2873273197401764 $499 2.2873273197401769 $494 $556 forward 7 unknown #
vertex $-1 $491 $557 #
straight-curve $-1 -43.598742637409586 22.841097828365363 -3.925742802527378 0 -1 0 I I #
coedge $-1 $502 $379 $487 $551 forward $371 $-1 #
vertex $-1 $551 $558 #
straight-curve $-1 -43.598742637409586 22.841097828365363 -8.5003974420077313 0 1 0 I I #
point $-1 -43.598742637409586 18.328849134154623 -8.5003974420077313 #
coedge $-1 $383 $498 $385 $504 forward $371 $-1 #
straight-curve $-1 0 18.328849134154623 -8.5003974420077313 -1 0 0 I I #
edge $-1 $552 -27.353346522576103 $387 -18.328849134154623 $385 $559 forward 7 unknown #
point $-1 43.598742637409586 18.328849134154623 -8.5003974420077313 #
edge $-1 $507 24.828518892391592 $510 32.479860569096545 $392 $560 forward 7 unknown #
vertex $-1 $406 $561 #
straight-curve $-1 -50.402720426450088 -3.5446430510431766 8.5003974420077313 -1 0 0 I I #
edge $-1 $510 0.33239435184909727 $403 6.0921030465390604 $402 $562 forward 7 unknown #
vertex $-1 $509 $563 #
straight-curve $-1 -43.5987426374096 -3.5446430510431766 0.84905576530276505 0.75470957328743171 0 0.6560590369687036 I I #
point $-1 -34.79688108759634 -3.5446430510431766 8.5003974420077313 #
point $-1 -43.598742637409586 -9.3043517457331397 0.84905576530277738 #
straight-curve $-1 -43.598742637409586 0 8.5003974420077313 0 -1 0 I I #
vertex $-1 $409 $564 #
point $-1 -38.164398038890525 -8.152410006795149 4.2480465488521606 #
vertex $-1 $413 $565 #
point $-1 -38.164398038890525 -6.4244973983881604 4.2480465488521606 #
vertex $-1 $417 $566 #
point $-1 -38.164398038890525 -4.6965847899811717 4.2480465488521606 #
coedge $-1 $432 $431 $424 $522 forward $421 $-1 #
edge $-1 $523 53.431868000136866 $526 61.083209676841847 $521 $567 forward 7 unknown #
vertex $-1 $436 $568 #
straight-curve $-1 17.498331974702147 -9.3043517457331397 8.5003974420077313 1 0 0 I I #
edge $-1 $526 -6.0921030465390604 $433 -0.33239435184909727 $432 $569 forward 7 unknown #
vertex $-1 $525 $570 #
straight-curve $-1 -22.210034266086282 -9.3043517457331397 58.055753980793313 -0.75470957328743171 0 0.6560590369687036 I I #
point $-1 34.796881087596311 -9.3043517457331397 8.5003974420077313 #
point $-1 43.598742637409586 -3.5446430510431766 0.84905576530275084 #
straight-curve $-1 43.598742637409586 0 8.5003974420077313 0 1 0 I I #
vertex $-1 $439 $571 #
point $-1 38.91910761217796 -8.152410006795149 3.5919875118834619 #
vertex $-1 $443 $572 #
point $-1 38.91910761217796 -6.4244973983881604 3.5919875118834619 #
vertex $-1 $447 $573 #
point $-1 38.91910761217796 -4.6965847899811717 3.5919875118834619 #
straight-curve $-1 -43.598742637409586 18.328849134154623 0 0 0 -1 I I #
straight-curve $-1 -43.598742637409586 0 -8.5003974420077313 0 1 0 I I #
point $-1 -43.598742637409586 -18.328849134154623 -8.5003974420077313 #
point $-1 -43.598742637409586 18.328849134154623 -8.5003974420077313 #
straight-curve $-1 -43.598742637409586 -18.328849134154623 0 0 0 -1 I I #
edge $-1 $482 -2.2873273197401764 $476 2.2873273197401769 $475 $574 forward 7 unknown #
coedge $-1 $480 $471 $470 $544 reversed $350 $-1 #
edge $-1 $484 -2.2873273197401764 $473 2.2873273197401769 $470 $575 forward 7 unknown #
straight-curve $-1 0 -27.353346522576103 -8.5003974420077313 -1 0 0 I I #
point $-1 43.598742637409586 -27.353346522576103 -8.5003974420077313 #
point $-1 -43.598742637409586 -27.353346522576103 -8.5003974420077313 #
straight-curve $-1 0 -27.353346522576103 -3.925742802527378 1 0 0 I I #
point $-1 -43.598742637409586 -27.353346522576103 -3.925742802527378 #
point $-1 43.598742637409586 -27.353346522576103 -3.925742802527378 #
edge $-1 $499 -43.598742637409586 $552 43.598742637409586 $487 $576 forward 7 unknown #
vertex $-1 $504 $577 #
straight-curve $-1 43.598742637409586 27.353346522576103 -6.2130701222675544 0 0 -1 I I #
straight-curve $-1 0 27.353346522576103 -3.925742802527378 -1 0 0 I I #
point $-1 43.598742637409586 27.353346522576103 -3.925742802527378 #
straight-curve $-1 -43.598742637409586 27.353346522576103 -6.2130701222675544 0 0 -1 I I #
point $-1 -43.598742637409586 27.353346522576103 -3.925742802527378 #
point $-1 -43.598742637409586 27.353346522576103 -8.5003974420077313 #
straight-curve $-1 43.598742637409586 0 -8.5003974420077313 0 -1 0 I I #
straight-curve $-1 -43.598742637409586 -3.5446430510431766 33.328916334399324 0 0 -1 I I #
point $-1 -43.598742637409586 -3.5446430510431766 8.5003974420077313 #
straight-curve $-1 -43.598742637409586 -3.2122486991940793 0.84905576530277982 0 -1 0 I I #
point $-1 -43.598742637409586 -3.5446430510431766 0.84905576530277738 #
point $-1 -38.213723307049889 -8.152410006795149 3.5426622437240924 #
point $-1 -38.213723307049889 -6.4244973983881604 3.5426622437240924 #
point $-1 -38.213723307049889 -4.6965847899811717 3.5426622437240924 #
straight-curve $-1 43.598742637409586 -9.3043517457331397 61.932265442144598 0 0 -1 I I #
point $-1 43.598742637409586 -9.3043517457331397 8.5003974420077313 #
straight-curve $-1 43.598742637409586 -3.2122486991940793 0.84905576530274729 0 1 0 I I #
point $-1 43.598742637409586 -9.3043517457331397 0.84905576530275084 #
point $-1 38.213723307049889 -8.152410006795149 3.5426622437240978 #
point $-1 38.213723307049889 -6.4244973983881604 3.5426622437240978 #
point $-1 38.213723307049889 -4.6965847899811717 3.5426622437240978 #
straight-curve $-1 -43.598742637409586 -27.353346522576103 -6.2130701222675544 0 0 -1 I I #
straight-curve $-1 43.598742637409586 -27.353346522576103 -6.2130701222675544 0 0 -1 I I #
straight-curve $-1 0 27.353346522576103 -8.5003974420077313 1 0 0 I I #
point $-1 43.598742637409586 27.353346522576103 -8.5003974420077313 #
End-of-ACIS-data 