500 0 7 0           
7 Unknown 11 ACIS 5.0 NT 24 Fri Mar 26 19:27:43 1999 
-1 9.9999999999999995e-007 1e-010 
body $-1 $7 $-1 $8 #
body $-1 $9 $-1 $10 #
body $-1 $11 $-1 $12 #
body $-1 $13 $-1 $14 #
body $-1 $15 $-1 $16 #
body $-1 $17 $-1 $18 #
body $-1 $19 $-1 $20 #
lump $-1 $-1 $21 $0 #
transform $-1 1 0 0 0 1 0 0 0 1 60.255745109408856 29.244457535002898 12.234173863896991 1 rotate no_reflect no_shear #
lump $-1 $-1 $22 $1 #
transform $-1 1 0 0 0 1 0 0 0 1 60.255745109408856 29.244457535002898 12.234173863896991 1 rotate no_reflect no_shear #
lump $-1 $-1 $23 $2 #
transform $-1 1 0 0 0 1 0 0 0 1 60.255745109408856 29.244457535002898 12.234173863896991 1 rotate no_reflect no_shear #
lump $-1 $-1 $24 $3 #
transform $-1 1 0 0 0 1 0 0 0 1 60.255745109408856 29.244457535002898 12.234173863896991 1 rotate no_reflect no_shear #
lump $-1 $-1 $25 $4 #
transform $-1 1 0 0 0 1 0 0 0 1 60.255745109408856 29.244457535002898 12.234173863896991 1 rotate no_reflect no_shear #
lump $-1 $-1 $26 $5 #
transform $-1 1 0 0 0 1 0 0 0 1 60.255745109408856 29.244457535002898 12.234173863896991 1 rotate no_reflect no_shear #
lump $-1 $-1 $27 $6 #
transform $-1 1 0 0 0 1 0 0 0 1 60.255745109408856 29.244457535002898 12.234173863896991 1 rotate no_reflect no_shear #
shell $-1 $-1 $-1 $28 $-1 $7 #
shell $-1 $-1 $-1 $29 $-1 $9 #
shell $-1 $-1 $-1 $30 $-1 $11 #
shell $-1 $-1 $-1 $31 $-1 $13 #
shell $-1 $-1 $-1 $32 $-1 $15 #
shell $-1 $-1 $-1 $33 $-1 $17 #
shell $-1 $-1 $-1 $34 $-1 $19 #
face $-1 $35 $36 $21 $-1 $37 forward single #
face $-1 $38 $39 $22 $-1 $40 reversed single #
face $-1 $41 $42 $23 $-1 $43 reversed single #
face $-1 $44 $45 $24 $-1 $46 forward single #
face $-1 $47 $48 $25 $-1 $49 forward single #
face $-1 $50 $51 $26 $-1 $52 reversed single #
face $-1 $53 $54 $27 $-1 $55 forward single #
face $-1 $56 $57 $21 $-1 $58 reversed single #
loop $-1 $-1 $59 $28 #
plane-surface $-1 0 0 12.234173863896991 0 0 1 1 0 0 forward_v I I I I #
face $-1 $60 $61 $22 $-1 $62 reversed single #
loop $-1 $-1 $63 $29 #
plane-surface $-1 -54.167362767036963 0 7.3880714972151296 0 0 1 1 0 0 forward_v I I I I #
face $-1 $64 $65 $23 $-1 $66 reversed single #
loop $-1 $-1 $67 $30 #
plane-surface $-1 -35.104403459628102 86.091210158754123 130.02984418637854 -1 0 0 0 0.77714596973225614 0.62932038083071107 forward_v I I I I #
face $-1 $68 $69 $24 $-1 $70 forward single #
loop $-1 $71 $72 $31 #
cone-surface $-1 -44.371958434654502 27.156876395014148 9.9414032123881064 0 -0.77714596973225614 -0.62932038083071107 0.5 0 0 1 I I 0 1 0.5 forward I I I I #
face $-1 $73 $74 $25 $-1 $75 forward single #
loop $-1 $76 $77 $32 #
cone-surface $-1 -38.811425449638655 27.156876395014148 9.9414032123881064 0 -0.77714596973225614 -0.62932038083071107 0.5 0 0 1 I I 0 1 0.5 forward I I I I #
face $-1 $78 $79 $26 $-1 $80 reversed single #
loop $-1 $-1 $81 $33 #
plane-surface $-1 52.825497141945384 -115.93316984040464 89.771044168266599 -1 0 0 0 -0.71933980857756763 0.69465836192734942 forward_v I I I I #
face $-1 $82 $83 $27 $-1 $84 forward single #
loop $-1 $85 $86 $34 #
cone-surface $-1 37.681217011170453 -25.642041024132673 8.5470411773574035 0 0.71933980857756763 -0.69465836192734942 1.5 0 0 1 I I 0 1 1.5 forward I I I I #
face $-1 $87 $88 $21 $-1 $89 reversed single #
loop $-1 $-1 $90 $35 #
plane-surface $-1 0 0 -12.234173863896991 0 0 1 1 0 0 forward_v I I I I #
coedge $-1 $91 $92 $93 $94 forward $36 $-1 #
face $-1 $95 $96 $22 $-1 $97 reversed single #
loop $-1 $-1 $98 $38 #
plane-surface $-1 -48.078980424665062 0 9.8111226805560605 -1 0 0 0 0 1 forward_v I I I I #
coedge $-1 $99 $100 $101 $102 forward $39 $-1 #
face $-1 $103 $104 $23 $-1 $105 forward single #
loop $-1 $-1 $106 $41 #
plane-surface $-1 -41.591691942146582 -7.5638087712282811 54.189507267395655 0 0.77714596973225614 0.62932038083071107 1 0 0 forward_v I I I I #
coedge $-1 $107 $108 $109 $110 reversed $42 $-1 #
face $-1 $-1 $111 $24 $-1 $112 forward single #
loop $-1 $113 $114 $44 #
cone-surface $-1 -44.371958434654502 26.291762823678543 9.2408480742558083 0 -0.77714596973225614 -0.62932038083071107 0.25 0 0 1 I I -0.70710678118654746 0.70710678118654746 0.25 forward I I I I #
loop $-1 $-1 $115 $31 #
coedge $-1 $72 $72 $116 $117 reversed $45 $-1 #
face $-1 $-1 $118 $25 $-1 $119 forward single #
loop $-1 $120 $121 $47 #
cone-surface $-1 -38.811425449638655 26.291762823678543 9.2408480742558083 0 -0.77714596973225614 -0.62932038083071107 0.25 0 0 1 I I -0.70710678118654746 0.70710678118654746 0.25 forward I I I I #
loop $-1 $-1 $122 $32 #
coedge $-1 $77 $77 $123 $124 reversed $48 $-1 #
face $-1 $125 $126 $26 $-1 $127 reversed single #
loop $-1 $-1 $128 $50 #
plane-surface $-1 37.681217011170453 -29.244457535002894 6.0567297794388821 0 -0.71933980857756763 0.69465836192734942 1 0 0 forward_v I I I I #
coedge $-1 $129 $130 $131 $132 reversed $51 $-1 #
face $-1 $-1 $133 $27 $-1 $134 forward single #
loop $-1 $135 $136 $53 #
cone-surface $-1 37.681217011170453 -24.482863790712926 7.4276367616013559 0 0.71933980857756763 -0.69465836192734942 0.75 0 0 1 I I -0.70710678118654757 0.70710678118654757 0.75 forward I I I I #
loop $-1 $-1 $137 $34 #
coedge $-1 $86 $86 $138 $139 reversed $54 $-1 #
face $-1 $140 $141 $21 $-1 $142 reversed single #
loop $-1 $-1 $143 $56 #
plane-surface $-1 0 -29.244457535002898 0 0 1 0 0 0 1 forward_v I I I I #
coedge $-1 $144 $145 $146 $147 forward $57 $-1 #
coedge $-1 $148 $59 $149 $150 forward $36 $-1 #
coedge $-1 $59 $148 $151 $152 forward $36 $-1 #
coedge $-1 $153 $154 $59 $94 reversed $155 $-1 #
edge $-1 $156 -29.244457535002898 $157 29.244457535002898 $93 $158 forward 7 unknown #
face $-1 $159 $160 $22 $-1 $161 reversed single #
loop $-1 $-1 $162 $60 #
plane-surface $-1 0 29.244457535002898 0 0 -1 0 0 0 -1 forward_v I I I I #
coedge $-1 $101 $163 $164 $165 reversed $61 $-1 #
coedge $-1 $166 $63 $167 $168 reversed $39 $-1 #
coedge $-1 $63 $166 $169 $170 reversed $39 $-1 #
coedge $-1 $171 $98 $63 $102 reversed $61 $-1 #
edge $-1 $172 -29.244457535002898 $173 29.244457535002898 $101 $174 forward 7 unknown #
face $-1 $175 $176 $23 $-1 $177 forward single #
loop $-1 $-1 $178 $64 #
plane-surface $-1 -48.078980424665062 0 9.8111226805560605 -1 0 0 0 0 1 forward_v I I I I #
coedge $-1 $179 $180 $181 $182 reversed $65 $-1 #
coedge $-1 $108 $67 $183 $184 reversed $42 $-1 #
coedge $-1 $67 $107 $179 $185 reversed $42 $-1 #
coedge $-1 $181 $186 $67 $110 forward $187 $-1 #
edge $-1 $188 52.780748229292278 $189 56.279839446460855 $109 $190 forward 7 unknown #
loop $-1 $-1 $116 $68 #
plane-surface $-1 -41.591691942146582 -7.5638087712282811 54.189507267395655 0 0.77714596973225614 0.62932038083071107 1 0 0 forward_v I I I I #
loop $-1 $-1 $191 $44 #
coedge $-1 $114 $114 $115 $192 reversed $69 $-1 #
coedge $-1 $115 $115 $114 $192 forward $71 $-1 #
coedge $-1 $116 $116 $72 $117 forward $111 $-1 #
edge $-1 $193 -3.5412067841146369e-015 $193 6.2831853071795969 $116 $194 forward 7 unknown #
loop $-1 $-1 $123 $73 #
plane-surface $-1 -41.591691942146582 -7.5638087712282811 54.189507267395655 0 0.77714596973225614 0.62932038083071107 1 0 0 forward_v I I I I #
loop $-1 $-1 $195 $47 #
coedge $-1 $121 $121 $122 $196 reversed $74 $-1 #
coedge $-1 $122 $122 $121 $196 forward $76 $-1 #
coedge $-1 $123 $123 $77 $124 forward $118 $-1 #
edge $-1 $197 -3.5412067841146369e-015 $197 6.2831853071795969 $123 $198 forward 7 unknown #
face $-1 $199 $200 $26 $-1 $201 reversed single #
loop $-1 $-1 $202 $78 #
plane-surface $-1 22.536936880395523 -115.93316984040464 89.771044168266599 1 0 0 0 0.71933980857756763 -0.69465836192734942 forward_v I I I I #
coedge $-1 $203 $204 $205 $206 reversed $79 $-1 #
coedge $-1 $130 $81 $207 $208 reversed $51 $-1 #
coedge $-1 $81 $129 $203 $209 reversed $51 $-1 #
coedge $-1 $205 $210 $81 $132 forward $211 $-1 #
edge $-1 $212 28.722127385199425 $213 34.687615652966741 $131 $214 forward 7 unknown #
loop $-1 $-1 $138 $82 #
plane-surface $-1 37.681217011170453 -29.244457535002894 6.0567297794388821 0 -0.71933980857756763 0.69465836192734942 1 0 0 forward_v I I I I #
loop $-1 $-1 $215 $53 #
coedge $-1 $136 $136 $137 $216 reversed $83 $-1 #
coedge $-1 $137 $137 $136 $216 forward $85 $-1 #
coedge $-1 $138 $138 $86 $139 forward $133 $-1 #
edge $-1 $217 9.1032686796429603e-016 $217 6.2831853071796013 $138 $218 forward 7 unknown #
face $-1 $219 $220 $21 $-1 $221 reversed single #
loop $-1 $-1 $222 $87 #
plane-surface $-1 -60.255745109408856 0 0 1 0 0 0 0 -1 forward_v I I I I #
coedge $-1 $223 $151 $224 $225 forward $88 $-1 #
coedge $-1 $226 $90 $223 $227 forward $57 $-1 #
coedge $-1 $90 $226 $228 $229 forward $57 $-1 #
coedge $-1 $154 $153 $90 $147 reversed $155 $-1 #
edge $-1 $230 -29.244457535002898 $231 29.244457535002898 $146 $232 forward 7 unknown #
coedge $-1 $92 $91 $233 $234 forward $36 $-1 #
coedge $-1 $235 $236 $91 $150 reversed $220 $-1 #
edge $-1 $157 -60.255745109408856 $237 60.255745109408856 $149 $238 forward 7 unknown #
coedge $-1 $143 $239 $92 $152 reversed $88 $-1 #
edge $-1 $240 -60.255745109408856 $156 60.255745109408856 $151 $241 forward 7 unknown #
coedge $-1 $146 $93 $239 $242 forward $155 $-1 #
coedge $-1 $93 $146 $235 $243 reversed $155 $-1 #
loop $-1 $-1 $153 $219 #
vertex $-1 $94 $244 #
vertex $-1 $94 $245 #
straight-curve $-1 60.255745109408856 0 12.234173863896991 0 1 0 I I #
face $-1 $246 $247 $22 $-1 $248 forward single #
loop $-1 $-1 $249 $95 #
plane-surface $-1 -60.255745109408856 0 0 1 0 0 0 0 -1 forward_v I I I I #
coedge $-1 $169 $250 $171 $251 forward $96 $-1 #
coedge $-1 $98 $171 $252 $253 reversed $61 $-1 #
coedge $-1 $254 $167 $98 $165 forward $255 $-1 #
edge $-1 $173 2.4825101569370993 $256 7.3286125236189612 $164 $257 forward 7 unknown #
coedge $-1 $100 $99 $249 $258 reversed $39 $-1 #
coedge $-1 $164 $259 $99 $168 forward $255 $-1 #
edge $-1 $260 -33.172063725890382 $173 -20.995299041146581 $167 $261 forward 7 unknown #
coedge $-1 $262 $162 $100 $170 forward $96 $-1 #
edge $-1 $172 20.995299041146581 $263 33.172063725890382 $169 $264 forward 7 unknown #
coedge $-1 $163 $101 $162 $251 reversed $61 $-1 #
vertex $-1 $170 $265 #
vertex $-1 $168 $266 #
straight-curve $-1 -48.078980424665062 0 7.3880714972151296 0 -1 0 I I #
face $-1 $-1 $187 $23 $-1 $267 reversed single #
loop $-1 $-1 $268 $103 #
plane-surface $-1 0 0 12.234173863896991 0 0 1 1 0 0 forward_v I I I I #
coedge $-1 $269 $270 $180 $271 forward $104 $-1 #
coedge $-1 $272 $106 $108 $185 forward $65 $-1 #
coedge $-1 $106 $272 $178 $271 reversed $65 $-1 #
coedge $-1 $273 $109 $106 $182 forward $187 $-1 #
edge $-1 $189 14.308557488554811 $274 27.283134453591771 $181 $275 forward 7 unknown #
coedge $-1 $276 $268 $107 $184 forward $176 $-1 #
edge $-1 $277 -16.634655666546607 $188 -13.801147544374164 $183 $278 forward 7 unknown #
edge $-1 $189 -58.488915070005817 $277 -53.986426022325247 $108 $279 forward 7 unknown #
coedge $-1 $109 $273 $276 $280 reversed $187 $-1 #
loop $-1 $-1 $181 $175 #
vertex $-1 $280 $281 #
vertex $-1 $110 $282 #
straight-curve $-1 -35.104403459628102 29.244457535002898 65.01492209318927 0 0 -1 I I #
coedge $-1 $191 $191 $-1 $283 reversed $113 $-1 #
edge $-1 $284 0 $284 6.2831853071796004 $114 $285 forward 7 unknown #
vertex $-1 $117 $286 #
ellipse-curve $-1 -44.371958434654502 27.827703473916667 10.484628255312709 0 0.77714596973225614 0.62932038083071107 0.5 0 0 1 I I #
coedge $-1 $195 $195 $-1 $287 reversed $120 $-1 #
edge $-1 $288 0 $288 6.2831853071796004 $121 $289 forward 7 unknown #
vertex $-1 $124 $290 #
ellipse-curve $-1 -38.811425449638655 27.827703473916667 10.484628255312709 0 0.77714596973225614 0.62932038083071107 0.5 0 0 1 I I #
face $-1 $-1 $211 $26 $-1 $291 forward single #
loop $-1 $-1 $292 $125 #
plane-surface $-1 0 -29.244457535002898 0 0 1 0 0 0 1 forward_v I I I I #
coedge $-1 $293 $294 $295 $296 reversed $126 $-1 #
coedge $-1 $297 $128 $130 $209 forward $79 $-1 #
coedge $-1 $128 $297 $293 $298 forward $79 $-1 #
coedge $-1 $295 $131 $128 $206 forward $211 $-1 #
edge $-1 $213 -33.984888636360154 $299 -3.696328374810296 $205 $300 forward 7 unknown #
coedge $-1 $301 $302 $129 $208 forward $200 $-1 #
edge $-1 $303 -38.828792304694417 $212 -32.651348220236308 $207 $304 forward 7 unknown #
edge $-1 $213 -8.5876577533967868 $303 5.0235306421517022e-015 $130 $305 forward 7 unknown #
coedge $-1 $131 $295 $301 $306 forward $211 $-1 #
loop $-1 $-1 $295 $199 #
vertex $-1 $208 $307 #
vertex $-1 $132 $308 #
straight-curve $-1 52.825497141945384 -57.966584920202322 12.234173863896991 0 1 0 I I #
coedge $-1 $215 $215 $-1 $309 reversed $135 $-1 #
edge $-1 $310 0 $310 6.2831853071796004 $136 $311 forward 7 unknown #
vertex $-1 $139 $312 #
ellipse-curve $-1 37.681217011170453 -26.261713401119241 9.1454518216679332 0 -0.71933980857756763 0.69465836192734942 1.5 0 0 1 I I #
face $-1 $-1 $155 $21 $-1 $313 reversed single #
loop $-1 $-1 $235 $140 #
plane-surface $-1 0 29.244457535002898 0 0 -1 0 0 0 -1 forward_v I I I I #
coedge $-1 $314 $233 $236 $315 forward $141 $-1 #
coedge $-1 $239 $143 $144 $227 reversed $88 $-1 #
coedge $-1 $233 $314 $143 $225 reversed $141 $-1 #
edge $-1 $240 -12.234173863896991 $316 12.234173863896991 $224 $317 forward 7 unknown #
coedge $-1 $145 $144 $314 $318 forward $57 $-1 #
edge $-1 $231 -60.255745109408856 $316 60.255745109408856 $223 $319 forward 7 unknown #
coedge $-1 $236 $235 $145 $229 reversed $220 $-1 #
edge $-1 $320 -60.255745109408856 $230 60.255745109408856 $228 $321 forward 7 unknown #
vertex $-1 $147 $322 #
vertex $-1 $242 $323 #
straight-curve $-1 60.255745109408856 0 -12.234173863896991 0 -1 0 I I #
coedge $-1 $222 $224 $148 $234 reversed $141 $-1 #
edge $-1 $237 -29.244457535002898 $240 29.244457535002898 $233 $324 forward 7 unknown #
coedge $-1 $228 $149 $154 $243 forward $220 $-1 #
coedge $-1 $149 $228 $222 $315 reversed $220 $-1 #
vertex $-1 $150 $325 #
straight-curve $-1 0 29.244457535002898 12.234173863896991 -1 0 0 I I #
coedge $-1 $151 $223 $153 $242 reversed $88 $-1 #
vertex $-1 $234 $326 #
straight-curve $-1 0 -29.244457535002898 12.234173863896991 1 0 0 I I #
edge $-1 $156 -12.234173863896991 $231 12.234173863896991 $153 $327 forward 7 unknown #
edge $-1 $157 -12.234173863896991 $230 12.234173863896991 $154 $328 forward 7 unknown #
point $-1 60.255745109408856 -29.244457535002898 12.234173863896991 #
point $-1 60.255745109408856 29.244457535002898 12.234173863896991 #
face $-1 $-1 $255 $22 $-1 $329 reversed single #
loop $-1 $-1 $252 $159 #
plane-surface $-1 0 0 12.234173863896991 0 0 1 1 0 0 forward_v I I I I #
coedge $-1 $330 $331 $166 $258 forward $160 $-1 #
coedge $-1 $162 $262 $332 $333 reversed $96 $-1 #
edge $-1 $334 -7.3286125236189612 $172 -2.4825101569370993 $162 $335 forward 7 unknown #
coedge $-1 $332 $336 $163 $253 forward $247 $-1 #
edge $-1 $256 -29.244457535002898 $334 29.244457535002898 $252 $337 forward 7 unknown #
coedge $-1 $259 $164 $336 $338 reversed $255 $-1 #
loop $-1 $-1 $164 $246 #
vertex $-1 $165 $339 #
straight-curve $-1 -48.078980424665062 -29.244457535002898 4.9055613402780303 0 0 1 I I #
edge $-1 $263 -29.244457535002898 $260 29.244457535002898 $249 $340 forward 7 unknown #
coedge $-1 $167 $254 $330 $341 forward $255 $-1 #
vertex $-1 $258 $342 #
straight-curve $-1 -27.083681383518481 -29.244457535002898 7.3880714972151296 1 0 0 I I #
coedge $-1 $250 $169 $331 $343 reversed $96 $-1 #
vertex $-1 $258 $344 #
straight-curve $-1 -27.083681383518481 29.244457535002898 7.3880714972151296 -1 0 0 I I #
point $-1 -48.078980424665062 29.244457535002898 7.3880714972151296 #
point $-1 -48.078980424665062 -29.244457535002898 7.3880714972151296 #
plane-surface $-1 0 29.244457535002898 0 0 -1 0 0 0 -1 forward_v I I I I #
coedge $-1 $183 $345 $272 $346 forward $176 $-1 #
coedge $-1 $270 $178 $345 $347 reversed $104 $-1 #
coedge $-1 $178 $269 $273 $348 reversed $104 $-1 #
edge $-1 $274 -38.86464419934056 $349 -34.362155151659991 $178 $350 forward 7 unknown #
coedge $-1 $180 $179 $268 $346 reversed $65 $-1 #
coedge $-1 $186 $181 $270 $348 forward $187 $-1 #
vertex $-1 $348 $351 #
straight-curve $-1 -20.795845971073291 29.244457535002898 8.7350826467284186 -1 0 0 I I #
coedge $-1 $345 $183 $186 $280 forward $176 $-1 #
vertex $-1 $184 $352 #
straight-curve $-1 -35.104403459628102 43.045605079377061 12.234173863896991 0 1 0 I I #
straight-curve $-1 -35.104403459628102 -7.5638087712282811 54.189507267395655 0 -0.62932038083071107 0.77714596973225614 I I #
edge $-1 $188 35.104403459628102 $353 48.078980424665062 $186 $354 forward 7 unknown #
point $-1 -35.104403459628102 29.244457535002898 12.234173863896991 #
point $-1 -35.104403459628102 29.244457535002894 8.7350826467284151 #
edge $-1 $355 1 $355 0 $191 $-1 forward 7 unknown #
vertex $-1 $192 $356 #
ellipse-curve $-1 -44.371958434654502 26.486049316111608 9.3981781694634865 0 0.77714596973225614 0.62932038083071107 0.5 0 0 1 I I #
point $-1 -43.871958434654502 27.827703473916689 10.484628255312728 #
edge $-1 $357 1 $357 0 $195 $-1 forward 7 unknown #
vertex $-1 $196 $358 #
ellipse-curve $-1 -38.811425449638655 26.486049316111608 9.3981781694634865 0 0.77714596973225614 0.62932038083071107 0.5 0 0 1 I I #
point $-1 -38.311425449638655 27.827703473916689 10.484628255312728 #
plane-surface $-1 0 0 12.234173863896991 0 0 1 1 0 0 forward_v I I I I #
coedge $-1 $302 $301 $294 $359 forward $200 $-1 #
coedge $-1 $294 $202 $204 $298 reversed $126 $-1 #
coedge $-1 $202 $293 $292 $359 reversed $126 $-1 #
coedge $-1 $210 $205 $202 $296 forward $211 $-1 #
edge $-1 $299 -34.687615652966741 $360 -28.722127385199425 $295 $361 forward 7 unknown #
coedge $-1 $204 $203 $302 $362 reversed $79 $-1 #
edge $-1 $363 -5.0235306421517022e-015 $299 8.5876577533967868 $293 $364 forward 7 unknown #
vertex $-1 $206 $365 #
straight-curve $-1 18.840608505585227 -23.278969267235581 12.234173863896991 -1 0 0 I I #
coedge $-1 $292 $207 $210 $306 reversed $200 $-1 #
coedge $-1 $207 $292 $297 $362 forward $200 $-1 #
vertex $-1 $208 $366 #
straight-curve $-1 52.825497141945384 -29.244457535002894 44.885522084133299 0 0 1 I I #
straight-curve $-1 52.825497141945384 -29.244457535002894 6.0567297794388821 0 -0.69465836192734942 -0.71933980857756763 I I #
edge $-1 $360 22.536936880395523 $212 52.825497141945384 $301 $367 forward 7 unknown #
point $-1 52.825497141945384 -29.244457535002898 12.234173863896991 #
point $-1 52.825497141945384 -23.278969267235581 12.234173863896991 #
edge $-1 $368 1 $368 0 $215 $-1 forward 7 unknown #
vertex $-1 $216 $369 #
ellipse-curve $-1 37.681217011170453 -25.022368647146102 7.9486305330468676 0 -0.71933980857756763 0.69465836192734942 1.5 0 0 1 I I #
point $-1 39.181217011170453 -26.261713401119245 9.1454518216679386 #
plane-surface $-1 60.255745109408856 0 0 -1 0 0 0 0 1 forward_v I I I I #
coedge $-1 $224 $222 $226 $318 reversed $141 $-1 #
edge $-1 $237 -12.234173863896991 $320 12.234173863896991 $236 $370 forward 7 unknown #
vertex $-1 $318 $371 #
straight-curve $-1 -60.255745109408856 -29.244457535002898 0 0 0 -1 I I #
edge $-1 $316 -29.244457535002898 $320 29.244457535002898 $314 $372 forward 7 unknown #
straight-curve $-1 0 -29.244457535002898 -12.234173863896991 -1 0 0 I I #
vertex $-1 $229 $373 #
straight-curve $-1 0 29.244457535002898 -12.234173863896991 1 0 0 I I #
point $-1 60.255745109408856 29.244457535002898 -12.234173863896991 #
point $-1 60.255745109408856 -29.244457535002898 -12.234173863896991 #
straight-curve $-1 -60.255745109408856 0 12.234173863896991 0 -1 0 I I #
point $-1 -60.255745109408856 29.244457535002898 12.234173863896991 #
point $-1 -60.255745109408856 -29.244457535002898 12.234173863896991 #
straight-curve $-1 60.255745109408856 -29.244457535002898 0 0 0 -1 I I #
straight-curve $-1 60.255745109408856 29.244457535002898 0 0 0 -1 I I #
plane-surface $-1 0 -29.244457535002898 0 0 1 0 0 0 1 forward_v I I I I #
coedge $-1 $374 $249 $259 $341 reversed $160 $-1 #
coedge $-1 $249 $374 $262 $343 forward $160 $-1 #
coedge $-1 $375 $252 $250 $333 forward $247 $-1 #
edge $-1 $334 48.078980424665062 $376 60.255745109408856 $250 $377 forward 7 unknown #
vertex $-1 $333 $378 #
straight-curve $-1 -48.078980424665062 29.244457535002898 4.9055613402780303 0 0 -1 I I #
coedge $-1 $252 $375 $254 $338 forward $247 $-1 #
straight-curve $-1 -48.078980424665062 0 12.234173863896991 0 1 0 I I #
edge $-1 $379 -60.255745109408856 $256 -48.078980424665062 $254 $380 forward 7 unknown #
point $-1 -48.078980424665062 -29.244457535002898 12.234173863896991 #
straight-curve $-1 -60.255745109408856 0 7.3880714972151296 0 -1 0 I I #
edge $-1 $379 -12.234173863896991 $260 -7.3880714972151296 $330 $381 forward 7 unknown #
point $-1 -60.255745109408863 -29.244457535002898 7.3880714972151296 #
edge $-1 $376 -12.234173863896991 $263 -7.3880714972151296 $262 $382 forward 7 unknown #
point $-1 -60.255745109408863 29.244457535002898 7.3880714972151296 #
coedge $-1 $268 $276 $269 $347 forward $176 $-1 #
edge $-1 $349 -27.283134453591771 $277 -14.308557488554811 $268 $383 forward 7 unknown #
edge $-1 $353 -29.244457535002898 $349 -26.410949412830458 $345 $384 forward 7 unknown #
edge $-1 $274 3.8295213064503884 $353 7.3286125236189612 $273 $385 forward 7 unknown #
vertex $-1 $271 $386 #
straight-curve $-1 -48.078980424665062 4.7861448466238112 38.938584251324038 0 -0.62932038083071107 0.77714596973225614 I I #
point $-1 -48.078980424665062 29.244457535002898 8.7350826467284186 #
point $-1 -35.104403459628102 26.410949412830455 12.234173863896991 #
vertex $-1 $347 $387 #
straight-curve $-1 0 29.244457535002898 12.234173863896991 -1 0 0 I I #
vertex $-1 $283 $388 #
point $-1 -43.871958434654502 26.486049316111608 9.3981781694634865 #
vertex $-1 $287 $389 #
point $-1 -38.311425449638655 26.486049316111608 9.3981781694634865 #
edge $-1 $360 32.651348220236308 $363 38.828792304694417 $292 $390 forward 7 unknown #
vertex $-1 $306 $391 #
straight-curve $-1 22.536936880395523 -57.966584920202322 12.234173863896991 0 -1 0 I I #
edge $-1 $363 3.696328374810296 $303 33.984888636360154 $302 $392 forward 7 unknown #
vertex $-1 $362 $393 #
straight-curve $-1 22.536936880395523 -29.244457535002894 6.0567297794388821 0 0.69465836192734942 0.71933980857756763 I I #
point $-1 22.536936880395523 -23.278969267235581 12.234173863896991 #
point $-1 52.825497141945384 -29.244457535002898 6.0567297794388786 #
straight-curve $-1 0 -29.244457535002898 12.234173863896991 1 0 0 I I #
vertex $-1 $309 $394 #
point $-1 39.181217011170453 -25.022368647146102 7.9486305330468676 #
straight-curve $-1 -60.255745109408856 29.244457535002898 0 0 0 -1 I I #
point $-1 -60.255745109408856 -29.244457535002898 -12.234173863896991 #
straight-curve $-1 -60.255745109408856 0 -12.234173863896991 0 1 0 I I #
point $-1 -60.255745109408856 29.244457535002898 -12.234173863896991 #
coedge $-1 $331 $330 $375 $395 reversed $160 $-1 #
coedge $-1 $336 $332 $374 $395 forward $247 $-1 #
vertex $-1 $333 $396 #
straight-curve $-1 0 29.244457535002898 12.234173863896991 -1 0 0 I I #
point $-1 -48.078980424665062 29.244457535002898 12.234173863896991 #
vertex $-1 $395 $397 #
straight-curve $-1 0 -29.244457535002898 12.234173863896991 1 0 0 I I #
straight-curve $-1 -60.255745109408856 -29.244457535002898 0 0 0 -1 I I #
straight-curve $-1 -60.255745109408856 29.244457535002898 0 0 0 -1 I I #
straight-curve $-1 -20.795845971073291 26.410949412830458 12.234173863896991 1 0 0 I I #
straight-curve $-1 -48.078980424665062 0 12.234173863896991 0 -1 0 I I #
straight-curve $-1 -48.078980424665062 29.244457535002898 4.9055613402780303 0 0 1 I I #
point $-1 -48.078980424665062 26.410949412830458 12.234173863896991 #
point $-1 -48.078980424665062 29.244457535002898 12.234173863896991 #
point $-1 -44.371958434654502 26.097476331245478 9.0835179790481302 #
point $-1 -38.811425449638655 26.097476331245478 9.0835179790481302 #
straight-curve $-1 22.536936880395523 -29.244457535002894 44.885522084133299 0 0 -1 I I #
point $-1 22.536936880395523 -29.244457535002898 12.234173863896991 #
straight-curve $-1 18.840608505585227 -29.244457535002898 6.0567297794388777 1 0 0 I I #
point $-1 22.536936880395523 -29.244457535002898 6.0567297794388786 #
point $-1 37.681217011170453 -23.94335893427975 6.9066429901558442 #
edge $-1 $376 -29.244457535002898 $379 29.244457535002898 $374 $398 forward 7 unknown #
point $-1 -60.255745109408856 29.244457535002898 12.234173863896991 #
point $-1 -60.255745109408856 -29.244457535002898 12.234173863896991 #
straight-curve $-1 -60.255745109408856 0 12.234173863896991 0 -1 0 I I #
End-of-ACIS-data 