500 0 6 0           
7 Unknown 11 ACIS 5.0 NT 24 Fri Mar 26 19:05:15 1999 
-1 9.9999999999999995e-007 1e-010 
body $-1 $6 $-1 $7 #
body $-1 $8 $-1 $9 #
body $-1 $10 $-1 $11 #
body $-1 $12 $-1 $13 #
body $-1 $14 $-1 $15 #
body $-1 $16 $-1 $17 #
lump $-1 $-1 $18 $0 #
transform $-1 1 0 0 0 1 0 0 0 1 58.319650868251593 34.616068657543011 11.937985187866857 1 rotate no_reflect no_shear #
lump $-1 $-1 $19 $1 #
transform $-1 1 0 0 0 1 0 0 0 1 58.319650868251593 34.616068657543011 11.937985187866857 1 rotate no_reflect no_shear #
lump $-1 $-1 $20 $2 #
transform $-1 1 0 0 0 1 0 0 0 1 58.319650868251593 34.616068657543011 11.937985187866857 1 rotate no_reflect no_shear #
lump $-1 $-1 $21 $3 #
transform $-1 1 0 0 0 1 0 0 0 1 58.319650868251593 34.616068657543011 11.937985187866857 1 rotate no_reflect no_shear #
lump $-1 $-1 $22 $4 #
transform $-1 1 0 0 0 1 0 0 0 1 58.319650868251593 34.616068657543011 11.937985187866857 1 rotate no_reflect no_shear #
lump $-1 $-1 $23 $5 #
transform $-1 1 0 0 0 1 0 0 0 1 58.319650868251593 34.616068657543011 11.937985187866857 1 rotate no_reflect no_shear #
shell $-1 $-1 $-1 $24 $-1 $6 #
shell $-1 $-1 $-1 $25 $-1 $8 #
shell $-1 $-1 $-1 $26 $-1 $10 #
shell $-1 $-1 $-1 $27 $-1 $12 #
shell $-1 $-1 $-1 $28 $-1 $14 #
shell $-1 $-1 $-1 $29 $-1 $16 #
face $-1 $30 $31 $18 $-1 $32 forward single #
face $-1 $33 $34 $19 $-1 $35 forward single #
face $-1 $36 $37 $20 $-1 $38 reversed single #
face $-1 $39 $40 $21 $-1 $41 forward single #
face $-1 $42 $43 $22 $-1 $44 reversed single #
face $-1 $45 $46 $23 $-1 $47 forward single #
face $-1 $48 $49 $18 $-1 $50 reversed single #
loop $-1 $-1 $51 $24 #
plane-surface $-1 0 0 11.937985187866857 0 0 1 1 0 0 forward_v I I I I #
face $-1 $52 $53 $19 $-1 $54 reversed single #
loop $-1 $-1 $55 $25 #
plane-surface $-1 -58.319650868251593 0 0 1 0 0 0 0 -1 forward_v I I I I #
face $-1 $56 $57 $20 $-1 $58 reversed single #
loop $-1 $-1 $59 $26 #
plane-surface $-1 -40.549713324379127 88.285618410286048 125.08492467682252 1 0 0 0 -0.80901700255871778 -0.5877852410284794 forward_v I I I I #
face $-1 $60 $61 $21 $-1 $62 forward single #
loop $-1 $63 $64 $27 #
cone-surface $-1 -32.758450408255683 27.986650360895464 4.4250867454672544 0 -0.80901700255871778 -0.5877852410284794 2.5 0 0 1 I I 0 1 2.5 forward I I I I #
face $-1 $65 $66 $22 $-1 $67 reversed single #
loop $-1 $-1 $68 $28 #
plane-surface $-1 36.52573806426512 88.285618410286048 125.08492467682252 1 0 0 0 -0.80901700255871778 -0.5877852410284794 forward_v I I I I #
face $-1 $69 $70 $23 $-1 $71 forward single #
loop $-1 $72 $73 $29 #
cone-surface $-1 44.317000980388563 27.986650360895464 4.4250867454672544 0 -0.80901700255871778 -0.5877852410284794 2.5 0 0 1 I I 0 1 2.5 forward I I I I #
face $-1 $74 $75 $18 $-1 $76 reversed single #
loop $-1 $-1 $77 $30 #
plane-surface $-1 0 0 -11.937985187866857 0 0 1 1 0 0 forward_v I I I I #
coedge $-1 $78 $79 $80 $81 forward $31 $-1 #
face $-1 $82 $83 $19 $-1 $84 forward single #
loop $-1 $-1 $85 $33 #
plane-surface $-1 0 34.616068657543011 0 0 -1 0 0 0 -1 forward_v I I I I #
coedge $-1 $86 $87 $88 $89 forward $34 $-1 #
face $-1 $90 $91 $20 $-1 $92 reversed single #
loop $-1 $-1 $93 $36 #
plane-surface $-1 -32.758450408255683 -6.0775598611215997 56.52606459223847 0 0.80901700255871778 0.5877852410284794 1 0 0 forward_v I I I I #
coedge $-1 $94 $95 $96 $97 reversed $37 $-1 #
face $-1 $-1 $98 $21 $-1 $99 forward single #
loop $-1 $100 $101 $39 #
cone-surface $-1 -32.758450408255683 24.495207579954837 1.88840515528846 0 -0.80901700255871778 -0.5877852410284794 1.25 0 0 1 I I -0.70710678118654746 0.70710678118654746 1.25 forward I I I I #
loop $-1 $-1 $102 $27 #
coedge $-1 $64 $64 $103 $104 reversed $40 $-1 #
face $-1 $105 $106 $22 $-1 $107 reversed single #
loop $-1 $-1 $108 $42 #
plane-surface $-1 44.317000980388563 -6.0775598611215997 56.52606459223847 0 0.80901700255871778 0.5877852410284794 1 0 0 forward_v I I I I #
coedge $-1 $109 $110 $111 $112 reversed $43 $-1 #
face $-1 $-1 $113 $23 $-1 $114 forward single #
loop $-1 $115 $116 $45 #
cone-surface $-1 44.317000980388563 24.495207579954837 1.88840515528846 0 -0.80901700255871778 -0.5877852410284794 1.25 0 0 1 I I -0.70710678118654746 0.70710678118654746 1.25 forward I I I I #
loop $-1 $-1 $117 $29 #
coedge $-1 $73 $73 $118 $119 reversed $46 $-1 #
face $-1 $120 $121 $18 $-1 $122 reversed single #
loop $-1 $-1 $123 $48 #
plane-surface $-1 0 -34.616068657543011 0 0 1 0 0 0 1 forward_v I I I I #
coedge $-1 $124 $125 $126 $127 forward $49 $-1 #
coedge $-1 $128 $51 $129 $130 forward $31 $-1 #
coedge $-1 $51 $128 $131 $132 forward $31 $-1 #
coedge $-1 $133 $134 $51 $81 reversed $135 $-1 #
edge $-1 $136 -34.616068657543011 $137 34.616068657543011 $80 $138 forward 7 unknown #
face $-1 $139 $140 $19 $-1 $141 reversed single #
loop $-1 $-1 $88 $52 #
plane-surface $-1 -64.098926154318022 0 10.414033616506799 0 0 1 1 0 0 forward_v I I I I #
coedge $-1 $142 $143 $87 $144 forward $53 $-1 #
coedge $-1 $145 $55 $146 $147 reversed $34 $-1 #
coedge $-1 $55 $145 $85 $144 reversed $34 $-1 #
coedge $-1 $148 $149 $55 $89 reversed $83 $-1 #
edge $-1 $150 -34.616068657543011 $151 34.616068657543011 $88 $152 forward 7 unknown #
face $-1 $153 $154 $20 $-1 $155 forward single #
loop $-1 $-1 $156 $56 #
plane-surface $-1 -24.96718749213224 88.285618410286048 125.08492467682252 -1 0 0 0 0.80901700255871778 0.5877852410284794 forward_v I I I I #
coedge $-1 $157 $158 $159 $160 reversed $57 $-1 #
coedge $-1 $95 $59 $161 $162 reversed $37 $-1 #
coedge $-1 $59 $94 $157 $163 reversed $37 $-1 #
coedge $-1 $159 $164 $59 $97 forward $154 $-1 #
edge $-1 $165 9.5267405476000135 $166 17.825234085410656 $96 $167 forward 7 unknown #
loop $-1 $-1 $103 $60 #
plane-surface $-1 -32.758450408255683 -6.0775598611215997 56.52606459223847 0 0.80901700255871778 0.5877852410284794 1 0 0 forward_v I I I I #
loop $-1 $-1 $168 $39 #
coedge $-1 $101 $101 $102 $169 reversed $61 $-1 #
coedge $-1 $102 $102 $101 $169 forward $63 $-1 #
coedge $-1 $103 $103 $64 $104 forward $98 $-1 #
edge $-1 $170 -8.6226173141176088e-016 $170 6.2831853071795996 $103 $171 forward 7 unknown #
face $-1 $172 $173 $22 $-1 $174 forward single #
loop $-1 $-1 $175 $65 #
plane-surface $-1 52.108263896512007 88.285618410286048 125.08492467682252 -1 0 0 0 0.80901700255871778 0.5877852410284794 forward_v I I I I #
coedge $-1 $176 $177 $178 $179 reversed $66 $-1 #
coedge $-1 $110 $68 $180 $181 reversed $43 $-1 #
coedge $-1 $68 $109 $176 $182 reversed $43 $-1 #
coedge $-1 $178 $183 $68 $112 forward $173 $-1 #
edge $-1 $184 9.5267405476000135 $185 17.825234085410656 $111 $186 forward 7 unknown #
loop $-1 $-1 $118 $69 #
plane-surface $-1 44.317000980388563 -6.0775598611215997 56.52606459223847 0 0.80901700255871778 0.5877852410284794 1 0 0 forward_v I I I I #
loop $-1 $-1 $187 $45 #
coedge $-1 $116 $116 $117 $188 reversed $70 $-1 #
coedge $-1 $117 $117 $116 $188 forward $72 $-1 #
coedge $-1 $118 $118 $73 $119 forward $113 $-1 #
edge $-1 $189 -8.6226173141176088e-016 $189 6.2831853071795996 $118 $190 forward 7 unknown #
face $-1 $191 $192 $18 $-1 $193 reversed single #
loop $-1 $-1 $194 $74 #
plane-surface $-1 -58.319650868251593 0 0 1 0 0 0 0 -1 forward_v I I I I #
coedge $-1 $195 $131 $194 $196 forward $75 $-1 #
coedge $-1 $197 $77 $195 $198 forward $49 $-1 #
coedge $-1 $77 $197 $199 $200 forward $49 $-1 #
coedge $-1 $134 $133 $77 $127 reversed $135 $-1 #
edge $-1 $201 -34.616068657543011 $202 34.616068657543011 $126 $203 forward 7 unknown #
coedge $-1 $79 $78 $204 $205 forward $31 $-1 #
coedge $-1 $206 $207 $78 $130 reversed $192 $-1 #
edge $-1 $137 -58.319650868251593 $208 58.319650868251593 $129 $209 forward 7 unknown #
coedge $-1 $123 $210 $79 $132 reversed $75 $-1 #
edge $-1 $211 -58.319650868251593 $136 58.319650868251593 $131 $212 forward 7 unknown #
coedge $-1 $126 $80 $210 $213 forward $135 $-1 #
coedge $-1 $80 $126 $206 $214 reversed $135 $-1 #
loop $-1 $-1 $133 $191 #
vertex $-1 $81 $215 #
vertex $-1 $81 $216 #
straight-curve $-1 58.319650868251593 0 11.937985187866857 0 1 0 I I #
face $-1 $217 $218 $19 $-1 $219 reversed single #
loop $-1 $-1 $220 $82 #
plane-surface $-1 -64.098926154318022 0 7.4140336165067993 0 0 1 1 0 0 forward_v I I I I #
coedge $-1 $221 $85 $222 $223 reversed $53 $-1 #
coedge $-1 $85 $221 $148 $224 reversed $53 $-1 #
edge $-1 $150 -10.414033616506799 $225 -7.4140336165067993 $85 $226 forward 7 unknown #
coedge $-1 $87 $86 $220 $227 forward $34 $-1 #
coedge $-1 $228 $229 $86 $147 forward $230 $-1 #
edge $-1 $231 7.4140336165067993 $151 10.414033616506799 $146 $232 forward 7 unknown #
coedge $-1 $233 $88 $143 $224 forward $83 $-1 #
coedge $-1 $88 $233 $228 $234 forward $83 $-1 #
vertex $-1 $144 $235 #
vertex $-1 $234 $236 #
straight-curve $-1 -58.319650868251593 0 10.414033616506799 0 -1 0 I I #
face $-1 $-1 $237 $20 $-1 $238 reversed single #
loop $-1 $-1 $96 $90 #
plane-surface $-1 0 0 11.937985187866857 0 0 1 1 0 0 forward_v I I I I #
coedge $-1 $239 $240 $241 $242 reversed $91 $-1 #
coedge $-1 $243 $93 $95 $163 forward $57 $-1 #
coedge $-1 $93 $243 $239 $244 forward $57 $-1 #
coedge $-1 $241 $96 $93 $160 forward $154 $-1 #
edge $-1 $166 -24.170488120251285 $245 -8.5879622880043982 $159 $246 forward 7 unknown #
coedge $-1 $247 $248 $94 $162 forward $237 $-1 #
edge $-1 $249 -62.026373957557226 $165 -50.604477150544405 $161 $250 forward 7 unknown #
edge $-1 $166 55.113896572446194 $249 69.232137315086007 $95 $251 forward 7 unknown #
coedge $-1 $96 $241 $247 $252 forward $154 $-1 #
vertex $-1 $162 $253 #
vertex $-1 $97 $254 #
straight-curve $-1 -40.549713324379127 44.142809205143024 11.937985187866857 0 -1 0 I I #
coedge $-1 $168 $168 $-1 $255 reversed $100 $-1 #
edge $-1 $256 0 $256 6.2831853071796004 $101 $257 forward 7 unknown #
vertex $-1 $104 $258 #
ellipse-curve $-1 -32.758450408255683 30.466821888637689 6.2270367843604468 0 0.80901700255871778 0.5877852410284794 2.5 0 0 1 I I #
face $-1 $-1 $259 $22 $-1 $260 reversed single #
loop $-1 $-1 $111 $105 #
plane-surface $-1 0 0 11.937985187866857 0 0 1 1 0 0 forward_v I I I I #
coedge $-1 $261 $262 $263 $264 reversed $106 $-1 #
coedge $-1 $265 $108 $110 $182 forward $66 $-1 #
coedge $-1 $108 $265 $261 $266 forward $66 $-1 #
coedge $-1 $263 $111 $108 $179 forward $173 $-1 #
edge $-1 $185 14.367237574070838 $267 29.949763406317725 $178 $268 forward 7 unknown #
coedge $-1 $269 $270 $109 $181 forward $259 $-1 #
edge $-1 $271 -62.026373957557226 $184 -50.604477150544405 $180 $272 forward 7 unknown #
edge $-1 $185 55.113896572446194 $271 69.232137315086007 $110 $273 forward 7 unknown #
coedge $-1 $111 $263 $269 $274 forward $173 $-1 #
vertex $-1 $112 $275 #
vertex $-1 $112 $276 #
straight-curve $-1 36.52573806426512 44.142809205143024 11.937985187866857 0 -1 0 I I #
coedge $-1 $187 $187 $-1 $277 reversed $115 $-1 #
edge $-1 $278 0 $278 6.2831853071796004 $116 $279 forward 7 unknown #
vertex $-1 $119 $280 #
ellipse-curve $-1 44.317000980388563 30.466821888637689 6.2270367843604468 0 0.80901700255871778 0.5877852410284794 2.5 0 0 1 I I #
face $-1 $-1 $135 $18 $-1 $281 reversed single #
loop $-1 $-1 $206 $120 #
plane-surface $-1 0 34.616068657543011 0 0 -1 0 0 0 -1 forward_v I I I I #
coedge $-1 $204 $282 $123 $196 reversed $121 $-1 #
coedge $-1 $210 $123 $124 $198 reversed $75 $-1 #
edge $-1 $211 -11.937985187866857 $283 11.937985187866857 $194 $284 forward 7 unknown #
coedge $-1 $125 $124 $282 $285 forward $49 $-1 #
edge $-1 $202 -58.319650868251593 $283 58.319650868251593 $195 $286 forward 7 unknown #
coedge $-1 $207 $206 $125 $200 reversed $192 $-1 #
edge $-1 $287 -58.319650868251593 $201 58.319650868251593 $199 $288 forward 7 unknown #
vertex $-1 $127 $289 #
vertex $-1 $213 $290 #
straight-curve $-1 58.319650868251593 0 -11.937985187866857 0 -1 0 I I #
coedge $-1 $291 $194 $128 $205 reversed $121 $-1 #
edge $-1 $208 -34.616068657543011 $211 34.616068657543011 $204 $292 forward 7 unknown #
coedge $-1 $199 $129 $134 $214 forward $192 $-1 #
coedge $-1 $129 $199 $291 $293 reversed $192 $-1 #
vertex $-1 $130 $294 #
straight-curve $-1 0 34.616068657543011 11.937985187866857 -1 0 0 I I #
coedge $-1 $131 $195 $133 $213 reversed $75 $-1 #
vertex $-1 $205 $295 #
straight-curve $-1 0 -34.616068657543011 11.937985187866857 1 0 0 I I #
edge $-1 $136 -11.937985187866857 $202 11.937985187866857 $133 $296 forward 7 unknown #
edge $-1 $137 -11.937985187866857 $201 11.937985187866857 $134 $297 forward 7 unknown #
point $-1 58.319650868251593 -34.616068657543011 11.937985187866857 #
point $-1 58.319650868251593 34.616068657543011 11.937985187866857 #
face $-1 $-1 $230 $19 $-1 $298 reversed single #
loop $-1 $-1 $299 $139 #
plane-surface $-1 -69.878201440384458 0 8.9140336165067993 1 0 0 0 0 -1 forward_v I I I I #
coedge $-1 $300 $222 $145 $227 reversed $140 $-1 #
coedge $-1 $143 $142 $299 $301 reversed $53 $-1 #
coedge $-1 $220 $302 $142 $223 forward $140 $-1 #
edge $-1 $303 -5.7792752860664365 $225 5.7792752860664294 $142 $304 forward 7 unknown #
edge $-1 $150 -5.7792752860664294 $305 5.7792752860664365 $143 $306 forward 7 unknown #
vertex $-1 $144 $307 #
straight-curve $-1 -58.319650868251593 34.616068657543011 0 0 0 -1 I I #
edge $-1 $231 -34.616068657543011 $225 34.616068657543011 $220 $308 forward 7 unknown #
coedge $-1 $309 $146 $149 $234 reversed $230 $-1 #
coedge $-1 $146 $309 $300 $310 reversed $230 $-1 #
loop $-1 $-1 $146 $217 #
vertex $-1 $147 $311 #
straight-curve $-1 -58.319650868251593 -34.616068657543011 0 0 0 1 I I #
coedge $-1 $149 $148 $312 $313 forward $83 $-1 #
edge $-1 $314 -5.7792752860664365 $151 5.7792752860664294 $228 $315 forward 7 unknown #
point $-1 -58.319650868251593 34.616068657543011 10.414033616506799 #
point $-1 -58.319650868251593 -34.616068657543011 10.414033616506799 #
loop $-1 $-1 $161 $153 #
plane-surface $-1 0 34.616068657543011 0 0 -1 0 0 0 -1 forward_v I I I I #
coedge $-1 $240 $156 $158 $244 reversed $91 $-1 #
coedge $-1 $156 $239 $316 $317 reversed $91 $-1 #
coedge $-1 $164 $159 $156 $242 forward $154 $-1 #
edge $-1 $245 -17.825234085410656 $318 -9.5267405476000135 $241 $319 forward 7 unknown #
coedge $-1 $158 $157 $248 $320 reversed $57 $-1 #
edge $-1 $321 -69.232137315086007 $245 -55.113896572446194 $239 $322 forward 7 unknown #
vertex $-1 $160 $323 #
straight-curve $-1 -16.379225204127842 26.317575119732375 11.937985187866861 1 0 0 I I #
coedge $-1 $316 $161 $164 $252 reversed $237 $-1 #
coedge $-1 $161 $316 $243 $320 forward $237 $-1 #
vertex $-1 $162 $324 #
straight-curve $-1 -40.549713324379127 34.616068657543011 62.542462338411262 0 0 1 I I #
straight-curve $-1 -40.549713324379127 -6.0775598611215997 56.52606459223847 0 0.5877852410284794 -0.80901700255871778 I I #
edge $-1 $318 24.96718749213224 $165 40.549713324379127 $247 $325 forward 7 unknown #
point $-1 -40.549713324379127 34.616068657543011 11.937985187866857 #
point $-1 -40.549713324379127 26.317575119732368 11.937985187866857 #
edge $-1 $326 1 $326 0 $168 $-1 forward 7 unknown #
vertex $-1 $169 $327 #
ellipse-curve $-1 -32.758450408255683 25.506478833153235 2.6231367065740594 0 0.80901700255871778 0.5877852410284794 2.5 0 0 1 I I #
point $-1 -30.258450408255683 30.466821888637689 6.2270367843604495 #
loop $-1 $-1 $180 $172 #
plane-surface $-1 0 34.616068657543011 0 0 -1 0 0 0 -1 forward_v I I I I #
coedge $-1 $262 $175 $177 $266 reversed $106 $-1 #
coedge $-1 $175 $261 $328 $329 reversed $106 $-1 #
coedge $-1 $183 $178 $175 $264 forward $173 $-1 #
edge $-1 $267 -17.825234085410656 $330 -9.5267405476000135 $263 $331 forward 7 unknown #
coedge $-1 $177 $176 $270 $332 reversed $66 $-1 #
edge $-1 $333 -69.232137315086007 $267 -55.113896572446194 $261 $334 forward 7 unknown #
vertex $-1 $179 $335 #
straight-curve $-1 22.158500490194282 26.317575119732375 11.937985187866861 1 0 0 I I #
coedge $-1 $328 $180 $183 $274 reversed $259 $-1 #
coedge $-1 $180 $328 $265 $332 forward $259 $-1 #
vertex $-1 $181 $336 #
straight-curve $-1 36.52573806426512 34.616068657543011 62.542462338411262 0 0 1 I I #
straight-curve $-1 36.52573806426512 -6.0775598611215997 56.52606459223847 0 0.5877852410284794 -0.80901700255871778 I I #
edge $-1 $330 -52.108263896512007 $184 -36.52573806426512 $269 $337 forward 7 unknown #
point $-1 36.52573806426512 34.616068657543011 11.937985187866857 #
point $-1 36.52573806426512 26.317575119732368 11.937985187866857 #
edge $-1 $338 1 $338 0 $187 $-1 forward 7 unknown #
vertex $-1 $188 $339 #
ellipse-curve $-1 44.317000980388563 25.506478833153235 2.6231367065740594 0 0.80901700255871778 0.5877852410284794 2.5 0 0 1 I I #
point $-1 46.817000980388563 30.466821888637689 6.2270367843604495 #
plane-surface $-1 58.319650868251593 0 0 -1 0 0 0 0 1 forward_v I I I I #
coedge $-1 $194 $291 $197 $285 reversed $121 $-1 #
vertex $-1 $285 $340 #
straight-curve $-1 -58.319650868251593 -34.616068657543011 0 0 0 -1 I I #
edge $-1 $283 -34.616068657543011 $287 34.616068657543011 $282 $341 forward 7 unknown #
straight-curve $-1 0 -34.616068657543011 -11.937985187866857 -1 0 0 I I #
vertex $-1 $200 $342 #
straight-curve $-1 0 34.616068657543011 -11.937985187866857 1 0 0 I I #
point $-1 58.319650868251593 34.616068657543011 -11.937985187866857 #
point $-1 58.319650868251593 -34.616068657543011 -11.937985187866857 #
coedge $-1 $282 $204 $207 $293 forward $121 $-1 #
straight-curve $-1 -58.319650868251593 0 11.937985187866857 0 -1 0 I I #
edge $-1 $208 -11.937985187866857 $287 11.937985187866857 $207 $343 forward 7 unknown #
point $-1 -58.319650868251593 34.616068657543011 11.937985187866857 #
point $-1 -58.319650868251593 -34.616068657543011 11.937985187866857 #
straight-curve $-1 58.319650868251593 -34.616068657543011 0 0 0 -1 I I #
straight-curve $-1 58.319650868251593 34.616068657543011 0 0 0 -1 I I #
plane-surface $-1 0 -34.616068657543011 0 0 1 0 0 0 1 forward_v I I I I #
coedge $-1 $344 $312 $221 $301 forward $218 $-1 #
coedge $-1 $302 $220 $229 $310 forward $140 $-1 #
edge $-1 $305 -1.5 $303 1.5 $221 $345 forward 7 unknown #
coedge $-1 $222 $300 $344 $346 forward $140 $-1 #
vertex $-1 $223 $347 #
straight-curve $-1 -64.098926154318022 34.616068657543011 7.4140336165067993 1 0 0 I I #
vertex $-1 $224 $348 #
straight-curve $-1 -64.098926154318022 34.616068657543011 10.414033616506799 -1 0 0 I I #
point $-1 -58.319650868251593 34.616068657543011 7.4140336165067993 #
straight-curve $-1 -58.319650868251593 0 7.4140336165067993 0 1 0 I I #
coedge $-1 $229 $228 $349 $350 forward $230 $-1 #
edge $-1 $231 -5.7792752860664294 $351 5.7792752860664365 $229 $352 forward 7 unknown #
point $-1 -58.319650868251593 -34.616068657543011 7.4140336165067993 #
coedge $-1 $299 $349 $233 $313 reversed $218 $-1 #
edge $-1 $305 -34.616068657543011 $314 34.616068657543011 $312 $353 forward 7 unknown #
vertex $-1 $313 $354 #
straight-curve $-1 -64.098926154318022 -34.616068657543011 10.414033616506799 1 0 0 I I #
coedge $-1 $248 $247 $240 $317 forward $237 $-1 #
edge $-1 $318 50.604477150544405 $321 62.026373957557226 $316 $355 forward 7 unknown #
vertex $-1 $252 $356 #
straight-curve $-1 -24.96718749213224 44.142809205143024 11.937985187866857 0 1 0 I I #
edge $-1 $321 8.5879622880043982 $249 24.170488120251285 $248 $357 forward 7 unknown #
vertex $-1 $320 $358 #
straight-curve $-1 -24.96718749213224 -6.0775598611215997 56.52606459223847 0 -0.5877852410284794 0.80901700255871778 I I #
point $-1 -24.96718749213224 26.317575119732368 11.937985187866857 #
point $-1 -40.549713324379127 34.616068657543011 0.51608838085403619 #
straight-curve $-1 0 34.616068657543011 11.937985187866857 -1 0 0 I I #
vertex $-1 $255 $359 #
point $-1 -30.258450408255683 25.506478833153235 2.6231367065740594 #
coedge $-1 $270 $269 $262 $329 forward $259 $-1 #
edge $-1 $330 50.604477150544405 $333 62.026373957557226 $328 $360 forward 7 unknown #
vertex $-1 $274 $361 #
straight-curve $-1 52.108263896512007 44.142809205143024 11.937985187866857 0 1 0 I I #
edge $-1 $333 -29.949763406317725 $271 -14.367237574070838 $270 $362 forward 7 unknown #
vertex $-1 $332 $363 #
straight-curve $-1 52.108263896512007 -6.0775598611215997 56.52606459223847 0 -0.5877852410284794 0.80901700255871778 I I #
point $-1 52.108263896512007 26.317575119732368 11.937985187866857 #
point $-1 36.52573806426512 34.616068657543011 0.51608838085403619 #
straight-curve $-1 0 34.616068657543011 11.937985187866857 -1 0 0 I I #
vertex $-1 $277 $364 #
point $-1 46.817000980388563 25.506478833153235 2.6231367065740594 #
point $-1 -58.319650868251593 -34.616068657543011 -11.937985187866857 #
straight-curve $-1 -58.319650868251593 0 -11.937985187866857 0 1 0 I I #
point $-1 -58.319650868251593 34.616068657543011 -11.937985187866857 #
straight-curve $-1 -58.319650868251593 34.616068657543011 0 0 0 -1 I I #
coedge $-1 $349 $299 $302 $346 reversed $218 $-1 #
straight-curve $-1 -69.878201440384458 34.616068657543011 8.9140336165067993 0 0 -1 I I #
edge $-1 $351 -34.616068657543011 $303 34.616068657543011 $344 $365 forward 7 unknown #
point $-1 -69.878201440384458 34.616068657543011 7.4140336165067993 #
point $-1 -69.878201440384458 34.616068657543011 10.414033616506799 #
coedge $-1 $312 $344 $309 $350 reversed $218 $-1 #
edge $-1 $314 -1.5 $351 1.5 $349 $366 forward 7 unknown #
vertex $-1 $346 $367 #
straight-curve $-1 -64.098926154318022 -34.616068657543011 7.4140336165067993 -1 0 0 I I #
straight-curve $-1 -69.878201440384458 0 10.414033616506799 0 -1 0 I I #
point $-1 -69.878201440384458 -34.616068657543011 10.414033616506799 #
straight-curve $-1 -24.96718749213224 34.616068657543011 62.542462338411262 0 0 -1 I I #
point $-1 -24.96718749213224 34.616068657543011 11.937985187866857 #
straight-curve $-1 -16.379225204127842 34.616068657543011 0.51608838085403264 -1 0 0 I I #
point $-1 -24.96718749213224 34.616068657543011 0.51608838085403619 #
point $-1 -32.758450408255683 23.483936326756439 1.1536736040028608 #
straight-curve $-1 52.108263896512007 34.616068657543011 62.542462338411262 0 0 -1 I I #
point $-1 52.108263896512007 34.616068657543011 11.937985187866857 #
straight-curve $-1 22.158500490194282 34.616068657543011 0.51608838085403264 -1 0 0 I I #
point $-1 52.108263896512007 34.616068657543011 0.51608838085403619 #
point $-1 44.317000980388563 23.483936326756439 1.1536736040028608 #
straight-curve $-1 -69.878201440384458 0 7.4140336165067993 0 1 0 I I #
straight-curve $-1 -69.878201440384458 -34.616068657543011 8.9140336165067993 0 0 -1 I I #
point $-1 -69.878201440384458 -34.616068657543011 7.4140336165067993 #
End-of-ACIS-data 