500 0 9 0           
7 Unknown 11 ACIS 5.0 NT 24 Fri Mar 26 20:35:19 1999 
-1 9.9999999999999995e-007 1e-010 
body $-1 $9 $-1 $10 #
body $-1 $11 $-1 $12 #
body $-1 $13 $-1 $14 #
body $-1 $15 $-1 $16 #
body $-1 $17 $-1 $18 #
body $-1 $19 $-1 $20 #
body $-1 $21 $-1 $22 #
body $-1 $23 $-1 $24 #
body $-1 $25 $-1 $26 #
lump $-1 $-1 $27 $0 #
transform $-1 1 0 0 0 1 0 0 0 1 66.546220282601396 46.494619686995804 21.96685252956788 1 rotate no_reflect no_shear #
lump $-1 $-1 $28 $1 #
transform $-1 1 0 0 0 1 0 0 0 1 66.546220282601396 46.494619686995804 21.96685252956788 1 rotate no_reflect no_shear #
lump $-1 $-1 $29 $2 #
transform $-1 1 0 0 0 1 0 0 0 1 66.546220282601396 46.494619686995804 21.96685252956788 1 rotate no_reflect no_shear #
lump $-1 $-1 $30 $3 #
transform $-1 1 0 0 0 1 0 0 0 1 66.546220282601396 46.494619686995804 21.96685252956788 1 rotate no_reflect no_shear #
lump $-1 $-1 $31 $4 #
transform $-1 1 0 0 0 1 0 0 0 1 66.546220282601396 46.494619686995804 21.96685252956788 1 rotate no_reflect no_shear #
lump $-1 $-1 $32 $5 #
transform $-1 1 0 0 0 1 0 0 0 1 66.546220282601396 46.494619686995804 21.96685252956788 1 rotate no_reflect no_shear #
lump $-1 $-1 $33 $6 #
transform $-1 1 0 0 0 1 0 0 0 1 66.546220282601396 46.494619686995804 21.96685252956788 1 rotate no_reflect no_shear #
lump $-1 $-1 $34 $7 #
transform $-1 1 0 0 0 1 0 0 0 1 66.546220282601396 46.494619686995804 21.96685252956788 1 rotate no_reflect no_shear #
lump $-1 $-1 $35 $8 #
transform $-1 1 0 0 0 1 0 0 0 1 66.546220282601396 46.494619686995804 21.96685252956788 1 rotate no_reflect no_shear #
shell $-1 $-1 $-1 $36 $-1 $9 #
shell $-1 $-1 $-1 $37 $-1 $11 #
shell $-1 $-1 $-1 $38 $-1 $13 #
shell $-1 $-1 $-1 $39 $-1 $15 #
shell $-1 $-1 $-1 $40 $-1 $17 #
shell $-1 $-1 $-1 $41 $-1 $19 #
shell $-1 $-1 $-1 $42 $-1 $21 #
shell $-1 $-1 $-1 $43 $-1 $23 #
shell $-1 $-1 $-1 $44 $-1 $25 #
face $-1 $45 $46 $27 $-1 $47 forward single #
face $-1 $48 $49 $28 $-1 $50 reversed single #
face $-1 $51 $52 $29 $-1 $53 reversed single #
face $-1 $54 $55 $30 $-1 $56 forward single #
face $-1 $57 $58 $31 $-1 $59 reversed single #
face $-1 $60 $61 $32 $-1 $62 forward single #
face $-1 $63 $64 $33 $-1 $65 reversed single #
face $-1 $66 $67 $34 $-1 $68 forward single #
face $-1 $69 $70 $35 $-1 $71 forward single #
face $-1 $72 $73 $27 $-1 $74 reversed single #
loop $-1 $-1 $75 $36 #
plane-surface $-1 0 0 21.96685252956788 0 0 1 1 0 0 forward_v I I I I #
face $-1 $76 $77 $28 $-1 $78 reversed single #
loop $-1 $-1 $79 $37 #
plane-surface $-1 -63.540769781325544 -25.969291994008277 0 0 -1 0 0 0 -1 forward_v I I I I #
face $-1 $80 $81 $29 $-1 $82 reversed single #
loop $-1 $-1 $83 $38 #
plane-surface $-1 -158.99999925216446 -12.650368855179117 112.10191847465941 0 -1 0 0.69465837861970381 0 -0.71933979245794832 forward_v I I I I #
face $-1 $84 $85 $30 $-1 $86 forward single #
loop $-1 $87 $88 $39 #
cone-surface $-1 -62.561007652779274 -19.309830424593699 18.042679487685533 0.69465837861970381 0 -0.71933979245794832 1.0790096886869225 0 1.0419875679295556 1 I I 0 1 1.5 forward I I I I #
face $-1 $89 $90 $31 $-1 $91 reversed single #
loop $-1 $-1 $92 $40 #
plane-surface $-1 -158.99999925216446 10.262663846493759 112.10191847465941 0 1 0 -0.69465837861970381 0 0.71933979245794832 forward_v I I I I #
face $-1 $93 $94 $32 $-1 $95 forward single #
loop $-1 $96 $97 $41 #
cone-surface $-1 -62.561007652779274 16.92212541590834 18.042679487685533 0.69465837861970381 0 -0.71933979245794832 1.0790096886869225 0 1.0419875679295556 1 I I 0 1 1.5 forward I I I I #
face $-1 $98 $99 $33 $-1 $100 reversed single #
loop $-1 $-1 $101 $42 #
plane-surface $-1 37.101949523920368 32.578829486848107 195.71689595311042 0 -1 0 -0.5877852598018023 0 -0.80901698891910034 forward_v I I I I #
face $-1 $102 $103 $34 $-1 $104 forward single #
loop $-1 $105 $106 $43 #
cone-surface $-1 57.139884113716057 20.61987827366373 14.455475534191651 -0.5877852598018023 0 -0.80901698891910034 0.80901698891910034 0 -0.5877852598018023 1 I I 0 1 1 forward I I I I #
face $-1 $107 $108 $35 $-1 $109 forward single #
loop $-1 $110 $111 $44 #
cone-surface $-1 57.139884113716057 27.795249001574362 14.455475534191651 -0.5877852598018023 0 -0.80901698891910034 0.80901698891910034 0 -0.5877852598018023 1 I I 0 1 1 forward I I I I #
face $-1 $112 $113 $27 $-1 $114 reversed single #
loop $-1 $-1 $115 $45 #
plane-surface $-1 0 0 -21.96685252956788 0 0 1 1 0 0 forward_v I I I I #
coedge $-1 $116 $117 $118 $119 forward $46 $-1 #
face $-1 $120 $121 $28 $-1 $122 forward single #
loop $-1 $-1 $123 $48 #
plane-surface $-1 -60.535319280049691 -36.231955840502039 0 -1 0 0 0 0 1 forward_v I I I I #
coedge $-1 $124 $125 $126 $127 forward $49 $-1 #
face $-1 $128 $129 $29 $-1 $130 reversed single #
loop $-1 $-1 $131 $51 #
plane-surface $-1 -66.546220282601396 -19.309830424593699 16.363229900764608 -0.69465837861970381 0 0.71933979245794832 0.71933979245794832 0 0.69465837861970381 forward_v I I I I #
coedge $-1 $132 $133 $134 $135 reversed $52 $-1 #
face $-1 $-1 $136 $30 $-1 $137 forward single #
loop $-1 $138 $139 $54 #
cone-surface $-1 -60.956161722706305 -19.309830424593699 16.380812915861348 0.69465837861970381 0 -0.71933979245794832 0.53950484434346124 0 0.5209937839647778 1 I I -0.70710678118654757 0.70710678118654757 0.75 forward I I I I #
loop $-1 $-1 $140 $39 #
coedge $-1 $88 $88 $141 $142 reversed $55 $-1 #
face $-1 $143 $144 $31 $-1 $145 reversed single #
loop $-1 $-1 $146 $57 #
plane-surface $-1 -66.546220282601396 16.92212541590834 16.363229900764608 -0.69465837861970381 0 0.71933979245794832 0.71933979245794832 0 0.69465837861970381 forward_v I I I I #
coedge $-1 $147 $148 $149 $150 reversed $58 $-1 #
face $-1 $-1 $151 $32 $-1 $152 forward single #
loop $-1 $153 $154 $60 #
cone-surface $-1 -60.956161722706305 16.92212541590834 16.380812915861348 0.69465837861970381 0 -0.71933979245794832 0.53950484434346124 0 0.5209937839647778 1 I I -0.70710678118654757 0.70710678118654757 0.75 forward I I I I #
loop $-1 $-1 $155 $41 #
coedge $-1 $97 $97 $156 $157 reversed $61 $-1 #
face $-1 $158 $159 $33 $-1 $160 reversed single #
loop $-1 $-1 $161 $63 #
plane-surface $-1 -41.127825231353285 24.207563637619046 88.042850439155728 0.5877852598018023 0 0.80901698891910034 0.80901698891910034 0 -0.5877852598018023 forward_v I I I I #
coedge $-1 $162 $163 $164 $165 reversed $64 $-1 #
face $-1 $-1 $166 $34 $-1 $167 forward single #
loop $-1 $168 $169 $66 #
cone-surface $-1 55.803774509588507 20.61987827366373 12.616478467198768 -0.5877852598018023 0 -0.80901698891910034 0.40450849445955017 0 -0.29389262990090115 1 I I -0.70710678118654746 0.70710678118654746 0.5 forward I I I I #
loop $-1 $-1 $170 $43 #
coedge $-1 $106 $106 $171 $172 reversed $67 $-1 #
face $-1 $-1 $173 $35 $-1 $174 forward single #
loop $-1 $175 $176 $69 #
cone-surface $-1 55.803774509588507 27.795249001574362 12.616478467198768 -0.5877852598018023 0 -0.80901698891910034 0.40450849445955017 0 -0.29389262990090115 1 I I -0.70710678118654746 0.70710678118654746 0.5 forward I I I I #
loop $-1 $-1 $177 $44 #
coedge $-1 $111 $111 $178 $179 reversed $70 $-1 #
face $-1 $180 $181 $27 $-1 $182 reversed single #
loop $-1 $-1 $183 $72 #
plane-surface $-1 0 -46.494619686995804 0 0 1 0 0 0 1 forward_v I I I I #
coedge $-1 $184 $185 $186 $187 forward $73 $-1 #
coedge $-1 $188 $75 $189 $190 forward $46 $-1 #
coedge $-1 $75 $188 $191 $192 forward $46 $-1 #
coedge $-1 $193 $194 $75 $119 reversed $195 $-1 #
edge $-1 $196 -46.494619686995804 $197 46.494619686995804 $118 $198 forward 7 unknown #
face $-1 $199 $200 $28 $-1 $201 reversed single #
loop $-1 $-1 $202 $76 #
plane-surface $-1 0 0 21.96685252956788 0 0 1 1 0 0 forward_v I I I I #
coedge $-1 $203 $204 $205 $206 reversed $77 $-1 #
coedge $-1 $207 $79 $208 $209 reversed $49 $-1 #
coedge $-1 $79 $207 $210 $211 reversed $49 $-1 #
coedge $-1 $204 $203 $79 $127 reversed $77 $-1 #
edge $-1 $212 -21.96685252956788 $213 21.96685252956788 $126 $214 forward 7 unknown #
face $-1 $215 $216 $29 $-1 $217 forward single #
loop $-1 $-1 $134 $80 #
plane-surface $-1 -66.546220282601396 0 0 1 0 0 0 0 -1 forward_v I I I I #
coedge $-1 $218 $219 $220 $221 reversed $81 $-1 #
coedge $-1 $133 $83 $222 $223 reversed $52 $-1 #
coedge $-1 $83 $132 $218 $224 reversed $52 $-1 #
coedge $-1 $220 $225 $83 $135 forward $129 $-1 #
edge $-1 $226 34.084106707761826 $227 39.687729336565098 $134 $228 forward 7 unknown #
loop $-1 $-1 $141 $84 #
plane-surface $-1 -66.546220282601396 -19.309830424593699 16.363229900764608 -0.69465837861970381 0 0.71933979245794832 0.71933979245794832 0 0.69465837861970381 forward_v I I I I #
loop $-1 $-1 $229 $54 #
coedge $-1 $139 $139 $140 $230 reversed $85 $-1 #
coedge $-1 $140 $140 $139 $230 forward $87 $-1 #
coedge $-1 $141 $141 $88 $142 forward $136 $-1 #
edge $-1 $231 0 $231 6.2831853071796004 $141 $232 forward 7 unknown #
face $-1 $233 $234 $31 $-1 $235 reversed single #
loop $-1 $-1 $236 $89 #
plane-surface $-1 -158.99999925216446 23.581586985322922 112.10191847465941 0 -1 0 0.69465837861970381 0 -0.71933979245794832 forward_v I I I I #
coedge $-1 $237 $238 $239 $240 reversed $90 $-1 #
coedge $-1 $148 $92 $241 $242 reversed $58 $-1 #
coedge $-1 $92 $147 $237 $243 reversed $58 $-1 #
coedge $-1 $239 $244 $92 $150 forward $245 $-1 #
edge $-1 $246 12.953779343480832 $247 18.756500310908713 $149 $248 forward 7 unknown #
loop $-1 $-1 $156 $93 #
plane-surface $-1 -66.546220282601396 16.92212541590834 16.363229900764608 -0.69465837861970381 0 0.71933979245794832 0.71933979245794832 0 0.69465837861970381 forward_v I I I I #
loop $-1 $-1 $249 $60 #
coedge $-1 $154 $154 $155 $250 reversed $94 $-1 #
coedge $-1 $155 $155 $154 $250 forward $96 $-1 #
coedge $-1 $156 $156 $97 $157 forward $151 $-1 #
edge $-1 $251 0 $251 6.2831853071796004 $156 $252 forward 7 unknown #
face $-1 $253 $254 $33 $-1 $255 forward single #
loop $-1 $-1 $256 $98 #
plane-surface $-1 37.101949523920368 15.836297788389981 195.71689595311042 0 1 0 0.5877852598018023 0 0.80901698891910034 forward_v I I I I #
coedge $-1 $257 $258 $259 $260 reversed $99 $-1 #
coedge $-1 $163 $101 $261 $262 reversed $64 $-1 #
coedge $-1 $101 $162 $257 $263 reversed $64 $-1 #
coedge $-1 $259 $264 $101 $165 forward $254 $-1 #
edge $-1 $265 -47.995245520641213 $266 -31.267007131323815 $164 $267 forward 7 unknown #
loop $-1 $-1 $171 $102 #
plane-surface $-1 -41.127825231353285 24.207563637619046 88.042850439155728 0.5877852598018023 0 0.80901698891910034 0.80901698891910034 0 -0.5877852598018023 forward_v I I I I #
loop $-1 $-1 $268 $66 #
coedge $-1 $169 $169 $170 $269 reversed $103 $-1 #
coedge $-1 $170 $170 $169 $269 forward $105 $-1 #
coedge $-1 $171 $171 $106 $172 forward $166 $-1 #
edge $-1 $270 0 $270 6.2831853071796004 $171 $271 forward 7 unknown #
loop $-1 $-1 $178 $107 #
plane-surface $-1 -41.127825231353285 24.207563637619046 88.042850439155728 0.5877852598018023 0 0.80901698891910034 0.80901698891910034 0 -0.5877852598018023 forward_v I I I I #
loop $-1 $-1 $272 $69 #
coedge $-1 $176 $176 $177 $273 reversed $108 $-1 #
coedge $-1 $177 $177 $176 $273 forward $110 $-1 #
coedge $-1 $178 $178 $111 $179 forward $173 $-1 #
edge $-1 $274 0 $274 6.2831853071796004 $178 $275 forward 7 unknown #
face $-1 $276 $277 $27 $-1 $278 reversed single #
loop $-1 $-1 $279 $112 #
plane-surface $-1 -66.546220282601396 0 0 1 0 0 0 0 -1 forward_v I I I I #
coedge $-1 $280 $191 $281 $282 forward $113 $-1 #
coedge $-1 $283 $115 $280 $284 forward $73 $-1 #
coedge $-1 $115 $283 $285 $286 forward $73 $-1 #
coedge $-1 $194 $193 $115 $187 reversed $195 $-1 #
edge $-1 $287 -46.494619686995804 $288 46.494619686995804 $186 $289 forward 7 unknown #
coedge $-1 $117 $116 $290 $291 forward $46 $-1 #
coedge $-1 $292 $293 $116 $190 reversed $277 $-1 #
edge $-1 $197 -66.546220282601396 $294 66.546220282601396 $189 $295 forward 7 unknown #
coedge $-1 $183 $296 $117 $192 reversed $113 $-1 #
edge $-1 $297 -66.546220282601396 $196 66.546220282601396 $191 $298 forward 7 unknown #
coedge $-1 $186 $118 $296 $299 forward $195 $-1 #
coedge $-1 $118 $186 $292 $300 reversed $195 $-1 #
loop $-1 $-1 $193 $276 #
vertex $-1 $119 $301 #
vertex $-1 $119 $302 #
straight-curve $-1 66.546220282601396 0 21.96685252956788 0 1 0 I I #
face $-1 $303 $304 $28 $-1 $305 reversed single #
loop $-1 $-1 $306 $120 #
plane-surface $-1 -66.546220282601396 0 0 1 0 0 0 0 -1 forward_v I I I I #
coedge $-1 $210 $307 $204 $308 forward $121 $-1 #
coedge $-1 $126 $123 $309 $310 reversed $77 $-1 #
coedge $-1 $123 $126 $202 $308 reversed $77 $-1 #
coedge $-1 $311 $312 $123 $206 forward $313 $-1 #
edge $-1 $314 -21.96685252956788 $315 21.96685252956788 $205 $316 forward 7 unknown #
coedge $-1 $125 $124 $306 $317 reversed $49 $-1 #
coedge $-1 $309 $318 $124 $209 forward $304 $-1 #
edge $-1 $319 -34.775835391938628 $213 -28.764934389386919 $208 $320 forward 7 unknown #
coedge $-1 $321 $202 $125 $211 forward $121 $-1 #
edge $-1 $212 28.764934389386919 $322 34.775835391938628 $210 $323 forward 7 unknown #
vertex $-1 $211 $324 #
vertex $-1 $209 $325 #
straight-curve $-1 -60.535319280049691 -25.969291994008277 0 0 0 -1 I I #
face $-1 $-1 $326 $29 $-1 $327 forward single #
loop $-1 $-1 $328 $128 #
plane-surface $-1 -63.540769781325544 -25.969291994008277 0 0 -1 0 0 0 -1 forward_v I I I I #
coedge $-1 $329 $131 $133 $224 forward $81 $-1 #
coedge $-1 $131 $329 $328 $330 reversed $81 $-1 #
coedge $-1 $331 $134 $131 $221 forward $129 $-1 #
edge $-1 $227 2.9954536428822678 $332 16.314376781711427 $220 $333 forward 7 unknown #
coedge $-1 $334 $335 $132 $223 forward $326 $-1 #
edge $-1 $336 -18.756500310908713 $226 -12.953779343480832 $222 $337 forward 7 unknown #
edge $-1 $227 0 $336 8.066731506122121 $133 $338 forward 7 unknown #
coedge $-1 $134 $331 $334 $339 reversed $129 $-1 #
vertex $-1 $339 $340 #
vertex $-1 $135 $341 #
straight-curve $-1 -66.546220282601396 -12.650368855179117 56.050959237329707 0 0 -1 I I #
coedge $-1 $229 $229 $-1 $342 reversed $138 $-1 #
edge $-1 $343 0 $343 6.2831853071796004 $139 $344 forward 7 unknown #
vertex $-1 $142 $345 #
ellipse-curve $-1 -63.64485979888746 -19.309830424593699 19.165041215166244 -0.69465837861970381 0 0.71933979245794832 1.0790096886869225 0 1.0419875679295556 1 I I #
face $-1 $-1 $245 $31 $-1 $346 forward single #
loop $-1 $-1 $347 $143 #
plane-surface $-1 -66.546220282601396 0 0 1 0 0 0 0 -1 forward_v I I I I #
coedge $-1 $348 $349 $350 $351 reversed $144 $-1 #
coedge $-1 $352 $146 $148 $243 forward $90 $-1 #
coedge $-1 $146 $352 $348 $353 forward $90 $-1 #
coedge $-1 $350 $149 $146 $240 forward $245 $-1 #
edge $-1 $247 1.8016011385395885 $354 15.120524277368752 $239 $355 forward 7 unknown #
coedge $-1 $356 $357 $147 $242 forward $234 $-1 #
edge $-1 $358 -39.687729336565098 $246 -34.084106707761826 $241 $359 forward 7 unknown #
edge $-1 $247 -8.066731506122121 $358 0 $148 $360 forward 7 unknown #
coedge $-1 $149 $350 $356 $361 forward $245 $-1 #
loop $-1 $-1 $350 $233 #
vertex $-1 $242 $362 #
vertex $-1 $150 $363 #
straight-curve $-1 -79.499999626082229 10.262663846493759 21.96685252956788 1 0 0 I I #
coedge $-1 $249 $249 $-1 $364 reversed $153 $-1 #
edge $-1 $365 0 $365 6.2831853071796004 $154 $366 forward 7 unknown #
vertex $-1 $157 $367 #
ellipse-curve $-1 -63.64485979888746 16.92212541590834 19.165041215166244 -0.69465837861970381 0 0.71933979245794832 1.0790096886869225 0 1.0419875679295556 1 I I #
face $-1 $-1 $368 $33 $-1 $369 reversed single #
loop $-1 $-1 $164 $158 #
plane-surface $-1 0 0 21.96685252956788 0 0 1 1 0 0 forward_v I I I I #
coedge $-1 $370 $371 $372 $373 reversed $159 $-1 #
coedge $-1 $374 $161 $163 $263 forward $99 $-1 #
coedge $-1 $161 $374 $370 $375 forward $99 $-1 #
coedge $-1 $372 $164 $161 $260 forward $254 $-1 #
edge $-1 $266 -20.475047668038584 $376 -3.7325159695804579 $259 $377 forward 7 unknown #
coedge $-1 $378 $379 $162 $262 forward $368 $-1 #
edge $-1 $380 -88.045372292673136 $265 -75.891595446987338 $261 $381 forward 7 unknown #
edge $-1 $266 112.41520063274176 $380 133.09244056520279 $163 $382 forward 7 unknown #
coedge $-1 $164 $372 $378 $383 forward $254 $-1 #
vertex $-1 $262 $384 #
vertex $-1 $165 $385 #
straight-curve $-1 18.550974761960184 32.578829486848107 21.966852529567888 -1 0 0 I I #
coedge $-1 $268 $268 $-1 $386 reversed $168 $-1 #
edge $-1 $387 0 $387 6.2831853071796004 $169 $388 forward 7 unknown #
vertex $-1 $172 $389 #
ellipse-curve $-1 58.182101087942712 20.61987827366373 15.889964106724983 0.5877852598018023 0 0.80901698891910034 0.80901698891910034 0 -0.5877852598018023 1 I I #
coedge $-1 $272 $272 $-1 $390 reversed $175 $-1 #
edge $-1 $391 0 $391 6.2831853071796004 $176 $392 forward 7 unknown #
vertex $-1 $179 $393 #
ellipse-curve $-1 58.182101087942712 27.795249001574362 15.889964106724983 0.5877852598018023 0 0.80901698891910034 0.80901698891910034 0 -0.5877852598018023 1 I I #
face $-1 $-1 $195 $27 $-1 $394 reversed single #
loop $-1 $-1 $292 $180 #
plane-surface $-1 0 46.494619686995804 0 0 -1 0 0 0 -1 forward_v I I I I #
coedge $-1 $395 $290 $293 $396 forward $181 $-1 #
coedge $-1 $296 $183 $184 $284 reversed $113 $-1 #
coedge $-1 $290 $395 $183 $282 reversed $181 $-1 #
edge $-1 $297 -21.96685252956788 $397 21.96685252956788 $281 $398 forward 7 unknown #
coedge $-1 $185 $184 $395 $399 forward $73 $-1 #
edge $-1 $288 -66.546220282601396 $397 66.546220282601396 $280 $400 forward 7 unknown #
coedge $-1 $293 $292 $185 $286 reversed $277 $-1 #
edge $-1 $401 -66.546220282601396 $287 66.546220282601396 $285 $402 forward 7 unknown #
vertex $-1 $187 $403 #
vertex $-1 $299 $404 #
straight-curve $-1 66.546220282601396 0 -21.96685252956788 0 -1 0 I I #
coedge $-1 $279 $281 $188 $291 reversed $181 $-1 #
edge $-1 $294 -46.494619686995804 $297 46.494619686995804 $290 $405 forward 7 unknown #
coedge $-1 $285 $189 $194 $300 forward $277 $-1 #
coedge $-1 $189 $285 $279 $396 reversed $277 $-1 #
vertex $-1 $190 $406 #
straight-curve $-1 0 46.494619686995804 21.96685252956788 -1 0 0 I I #
coedge $-1 $191 $280 $193 $299 reversed $113 $-1 #
vertex $-1 $291 $407 #
straight-curve $-1 0 -46.494619686995804 21.96685252956788 1 0 0 I I #
edge $-1 $196 -21.96685252956788 $288 21.96685252956788 $193 $408 forward 7 unknown #
edge $-1 $197 -21.96685252956788 $287 21.96685252956788 $194 $409 forward 7 unknown #
point $-1 66.546220282601396 -46.494619686995804 21.96685252956788 #
point $-1 66.546220282601396 46.494619686995804 21.96685252956788 #
face $-1 $-1 $313 $28 $-1 $410 reversed single #
loop $-1 $-1 $309 $199 #
plane-surface $-1 0 0 -21.96685252956788 0 0 1 1 0 0 forward_v I I I I #
coedge $-1 $411 $412 $207 $317 forward $200 $-1 #
coedge $-1 $202 $321 $311 $413 forward $121 $-1 #
edge $-1 $315 -28.378641766744785 $212 -7.8533140737572573 $202 $414 forward 7 unknown #
coedge $-1 $415 $208 $203 $310 forward $304 $-1 #
edge $-1 $213 7.8533140737572573 $314 28.378641766744785 $309 $416 forward 7 unknown #
coedge $-1 $417 $205 $307 $413 reversed $313 $-1 #
coedge $-1 $205 $417 $415 $418 reversed $313 $-1 #
loop $-1 $-1 $205 $303 #
vertex $-1 $418 $419 #
vertex $-1 $206 $420 #
straight-curve $-1 -60.535319280049691 -46.494619686995804 0 0 0 1 I I #
edge $-1 $322 -21.96685252956788 $319 21.96685252956788 $306 $421 forward 7 unknown #
coedge $-1 $208 $415 $411 $422 forward $304 $-1 #
vertex $-1 $209 $423 #
straight-curve $-1 -31.770384890662772 -25.969291994008277 -21.96685252956788 1 0 0 I I #
coedge $-1 $307 $210 $412 $424 forward $121 $-1 #
vertex $-1 $424 $425 #
straight-curve $-1 -31.770384890662772 -25.969291994008277 21.96685252956788 -1 0 0 I I #
point $-1 -60.535319280049691 -25.969291994008277 21.96685252956788 #
point $-1 -60.535319280049691 -25.969291994008277 -21.96685252956788 #
loop $-1 $-1 $222 $215 #
plane-surface $-1 0 0 21.96685252956788 0 0 1 1 0 0 forward_v I I I I #
coedge $-1 $426 $427 $219 $330 forward $216 $-1 #
coedge $-1 $219 $218 $335 $428 reversed $81 $-1 #
edge $-1 $332 4.6024573060080982 $429 12.669188812130214 $328 $430 forward 7 unknown #
coedge $-1 $225 $220 $427 $431 forward $129 $-1 #
vertex $-1 $431 $432 #
straight-curve $-1 -66.546220282601396 -9.6549152122968493 16.363229900764612 0 -1 0 I I #
coedge $-1 $433 $222 $225 $339 forward $326 $-1 #
coedge $-1 $222 $433 $329 $428 forward $326 $-1 #
vertex $-1 $223 $434 #
straight-curve $-1 -79.499999626082229 -12.650368855179117 21.96685252956788 -1 0 0 I I #
straight-curve $-1 -66.546220282601396 -12.650368855179117 16.363229900764608 0.71933979245794832 0 0.69465837861970381 I I #
edge $-1 $226 12.650368855179117 $435 25.969291994008277 $225 $436 forward 7 unknown #
point $-1 -66.546220282601396 -12.650368855179117 21.96685252956788 #
point $-1 -66.546220282601396 -12.650368855179117 16.363229900764608 #
edge $-1 $437 1 $437 0 $229 $-1 forward 7 unknown #
vertex $-1 $230 $438 #
ellipse-curve $-1 -61.477155506671082 -19.309830424593699 16.92031776020481 -0.69465837861970381 0 0.71933979245794832 1.0790096886869225 0 1.0419875679295556 1 I I #
point $-1 -62.565850110200543 -19.309830424593699 20.207028783095808 #
plane-surface $-1 0 0 21.96685252956788 0 0 1 1 0 0 forward_v I I I I #
coedge $-1 $357 $356 $349 $439 forward $234 $-1 #
coedge $-1 $349 $236 $238 $353 reversed $144 $-1 #
coedge $-1 $236 $348 $347 $439 reversed $144 $-1 #
coedge $-1 $244 $239 $236 $351 forward $245 $-1 #
edge $-1 $354 -18.756500310908713 $440 -12.953779343480832 $350 $441 forward 7 unknown #
coedge $-1 $238 $237 $357 $442 reversed $90 $-1 #
edge $-1 $443 0 $354 8.066731506122121 $348 $444 forward 7 unknown #
vertex $-1 $240 $445 #
straight-curve $-1 -60.743499315173516 8.46106270795417 21.96685252956788 0 1 0 I I #
coedge $-1 $347 $241 $244 $361 reversed $234 $-1 #
coedge $-1 $241 $347 $352 $442 forward $234 $-1 #
vertex $-1 $242 $446 #
straight-curve $-1 -66.546220282601396 10.262663846493759 56.050959237329707 0 0 1 I I #
straight-curve $-1 -66.546220282601396 10.262663846493759 16.363229900764608 -0.71933979245794832 0 -0.69465837861970381 I I #
edge $-1 $440 -23.581586985322922 $246 -10.262663846493759 $356 $447 forward 7 unknown #
point $-1 -66.546220282601396 10.262663846493759 21.96685252956788 #
point $-1 -60.743499315173516 10.262663846493759 21.96685252956788 #
edge $-1 $448 1 $448 0 $249 $-1 forward 7 unknown #
vertex $-1 $250 $449 #
ellipse-curve $-1 -61.477155506671082 16.92212541590834 16.92031776020481 -0.69465837861970381 0 0.71933979245794832 1.0790096886869225 0 1.0419875679295556 1 I I #
point $-1 -62.565850110200543 16.92212541590834 20.207028783095808 #
loop $-1 $-1 $261 $253 #
plane-surface $-1 66.546220282601396 0 0 -1 0 0 0 0 1 forward_v I I I I #
coedge $-1 $371 $256 $258 $375 reversed $159 $-1 #
coedge $-1 $256 $370 $450 $451 reversed $159 $-1 #
coedge $-1 $264 $259 $256 $373 forward $254 $-1 #
edge $-1 $376 31.267007131323815 $452 47.995245520641213 $372 $453 forward 7 unknown #
coedge $-1 $258 $257 $379 $454 reversed $99 $-1 #
edge $-1 $455 -133.09244056520279 $376 -112.41520063274176 $370 $456 forward 7 unknown #
vertex $-1 $260 $457 #
straight-curve $-1 49.817981893283999 12.103781818809523 21.966852529567873 0 -1 0 I I #
coedge $-1 $450 $261 $264 $383 reversed $368 $-1 #
coedge $-1 $261 $450 $374 $454 forward $368 $-1 #
vertex $-1 $262 $458 #
straight-curve $-1 66.546220282601396 32.578829486848107 97.858447976555212 0 0 1 I I #
straight-curve $-1 -41.127825231353285 32.578829486848107 88.042850439155728 0.80901698891910034 0 -0.5877852598018023 I I #
edge $-1 $452 15.836297788389981 $265 32.578829486848107 $378 $459 forward 7 unknown #
point $-1 66.546220282601396 32.578829486848107 21.96685252956788 #
point $-1 49.817981893283999 32.578829486848107 21.966852529567888 #
edge $-1 $460 1 $460 0 $268 $-1 forward 7 unknown #
vertex $-1 $269 $461 #
ellipse-curve $-1 56.09766713948941 20.61987827366373 13.020986961658318 0.5877852598018023 0 0.80901698891910034 0.80901698891910034 0 -0.5877852598018023 1 I I #
point $-1 58.99111807686181 20.61987827366373 15.30217884692318 #
edge $-1 $462 1 $462 0 $272 $-1 forward 7 unknown #
vertex $-1 $273 $463 #
ellipse-curve $-1 56.09766713948941 27.795249001574362 13.020986961658318 0.5877852598018023 0 0.80901698891910034 0.80901698891910034 0 -0.5877852598018023 1 I I #
point $-1 58.99111807686181 27.795249001574362 15.30217884692318 #
plane-surface $-1 66.546220282601396 0 0 -1 0 0 0 0 1 forward_v I I I I #
coedge $-1 $281 $279 $283 $399 reversed $181 $-1 #
edge $-1 $294 -21.96685252956788 $401 21.96685252956788 $293 $464 forward 7 unknown #
vertex $-1 $399 $465 #
straight-curve $-1 -66.546220282601396 -46.494619686995804 0 0 0 -1 I I #
edge $-1 $397 -46.494619686995804 $401 46.494619686995804 $395 $466 forward 7 unknown #
straight-curve $-1 0 -46.494619686995804 -21.96685252956788 -1 0 0 I I #
vertex $-1 $286 $467 #
straight-curve $-1 0 46.494619686995804 -21.96685252956788 1 0 0 I I #
point $-1 66.546220282601396 46.494619686995804 -21.96685252956788 #
point $-1 66.546220282601396 -46.494619686995804 -21.96685252956788 #
straight-curve $-1 -66.546220282601396 0 21.96685252956788 0 -1 0 I I #
point $-1 -66.546220282601396 46.494619686995804 21.96685252956788 #
point $-1 -66.546220282601396 -46.494619686995804 21.96685252956788 #
straight-curve $-1 66.546220282601396 -46.494619686995804 0 0 0 -1 I I #
straight-curve $-1 66.546220282601396 46.494619686995804 0 0 0 -1 I I #
plane-surface $-1 0 -46.494619686995804 0 0 1 0 0 0 1 forward_v I I I I #
coedge $-1 $468 $306 $318 $422 reversed $200 $-1 #
coedge $-1 $306 $468 $321 $424 reversed $200 $-1 #
edge $-1 $469 -66.546220282601396 $315 -60.535319280049691 $311 $470 forward 7 unknown #
straight-curve $-1 -60.535319280049691 -18.115977920251019 21.96685252956788 0 1 0 I I #
coedge $-1 $318 $309 $312 $418 forward $304 $-1 #
straight-curve $-1 -60.535319280049691 -18.115977920251019 -21.96685252956788 0 -1 0 I I #
coedge $-1 $312 $311 $468 $471 forward $313 $-1 #
edge $-1 $314 60.535319280049691 $472 66.546220282601396 $312 $473 forward 7 unknown #
point $-1 -60.535319280049691 -46.494619686995804 -21.96685252956788 #
point $-1 -60.535319280049691 -46.494619686995804 21.96685252956788 #
straight-curve $-1 -66.546220282601396 -25.969291994008277 0 0 0 -1 I I #
edge $-1 $472 -46.494619686995804 $319 -25.969291994008277 $411 $474 forward 7 unknown #
point $-1 -66.546220282601396 -25.969291994008277 -21.96685252956788 #
edge $-1 $322 25.969291994008277 $469 46.494619686995804 $412 $475 forward 7 unknown #
point $-1 -66.546220282601396 -25.969291994008277 21.96685252956788 #
coedge $-1 $427 $328 $433 $476 reversed $216 $-1 #
coedge $-1 $328 $426 $331 $431 reversed $216 $-1 #
edge $-1 $429 -16.314376781711427 $336 -2.9954536428822678 $335 $477 forward 7 unknown #
vertex $-1 $330 $478 #
straight-curve $-1 -69.856950965901831 -25.969291994008277 13.166094370906613 0.71933979245794832 0 0.69465837861970381 I I #
edge $-1 $332 16.363229900764608 $435 21.96685252956788 $331 $479 forward 7 unknown #
point $-1 -66.546220282601396 -25.969291994008277 16.363229900764608 #
coedge $-1 $335 $334 $426 $476 forward $326 $-1 #
point $-1 -60.743499315173516 -12.650368855179117 21.96685252956788 #
vertex $-1 $431 $480 #
straight-curve $-1 -66.546220282601396 0 21.96685252956788 0 -1 0 I I #
vertex $-1 $342 $481 #
point $-1 -60.398145817984158 -19.309830424593699 17.962305328134367 #
edge $-1 $440 34.084106707761826 $443 39.687729336565098 $347 $482 forward 7 unknown #
vertex $-1 $361 $483 #
straight-curve $-1 -79.499999626082229 23.581586985322922 21.96685252956788 -1 0 0 I I #
edge $-1 $443 -15.120524277368752 $358 -1.8016011385395885 $357 $484 forward 7 unknown #
vertex $-1 $442 $485 #
straight-curve $-1 -66.546220282601396 23.581586985322922 16.363229900764608 0.71933979245794832 0 0.69465837861970381 I I #
point $-1 -60.743499315173516 23.581586985322922 21.96685252956788 #
point $-1 -66.546220282601396 10.262663846493759 16.363229900764608 #
straight-curve $-1 -66.546220282601396 0 21.96685252956788 0 -1 0 I I #
vertex $-1 $364 $486 #
point $-1 -60.398145817984158 16.92212541590834 17.962305328134367 #
coedge $-1 $379 $378 $371 $451 forward $368 $-1 #
edge $-1 $452 75.891595446987338 $455 88.045372292673136 $450 $487 forward 7 unknown #
vertex $-1 $383 $488 #
straight-curve $-1 18.550974761960184 15.836297788389981 21.966852529567888 1 0 0 I I #
edge $-1 $455 3.7325159695804579 $380 20.475047668038584 $379 $489 forward 7 unknown #
vertex $-1 $454 $490 #
straight-curve $-1 -41.127825231353285 15.836297788389981 88.042850439155728 -0.80901698891910034 0 0.5877852598018023 I I #
point $-1 49.817981893283999 15.836297788389981 21.966852529567888 #
point $-1 66.546220282601411 32.578829486848107 9.8130756838820759 #
straight-curve $-1 66.546220282601396 0 21.96685252956788 0 1 0 I I #
vertex $-1 $386 $491 #
point $-1 56.906684128408507 20.61987827366373 12.433201701856515 #
vertex $-1 $390 $492 #
point $-1 56.906684128408507 27.795249001574362 12.433201701856515 #
straight-curve $-1 -66.546220282601396 46.494619686995804 0 0 0 -1 I I #
point $-1 -66.546220282601396 -46.494619686995804 -21.96685252956788 #
straight-curve $-1 -66.546220282601396 0 -21.96685252956788 0 1 0 I I #
point $-1 -66.546220282601396 46.494619686995804 -21.96685252956788 #
coedge $-1 $412 $411 $417 $471 reversed $200 $-1 #
vertex $-1 $424 $493 #
straight-curve $-1 0 -46.494619686995804 21.96685252956788 1 0 0 I I #
edge $-1 $469 -21.96685252956788 $472 21.96685252956788 $468 $494 forward 7 unknown #
vertex $-1 $422 $495 #
straight-curve $-1 0 -46.494619686995804 -21.96685252956788 -1 0 0 I I #
straight-curve $-1 -66.546220282601396 0 -21.96685252956788 0 1 0 I I #
straight-curve $-1 -66.546220282601396 0 21.96685252956788 0 -1 0 I I #
edge $-1 $435 -34.775835391938628 $429 -28.973114424510751 $433 $496 forward 7 unknown #
straight-curve $-1 -60.743499315173516 -9.6549152122968493 21.96685252956788 0 1 0 I I #
point $-1 -60.743499315173523 -25.969291994008277 21.96685252956788 #
straight-curve $-1 -66.546220282601396 -25.969291994008277 0 0 0 1 I I #
point $-1 -66.546220282601396 -25.969291994008277 21.96685252956788 #
point $-1 -60.435167938741529 -19.309830424593699 15.841308071517886 #
straight-curve $-1 -66.546220282601396 23.581586985322922 56.050959237329707 0 0 -1 I I #
point $-1 -66.546220282601396 23.581586985322922 21.96685252956788 #
straight-curve $-1 -66.546220282601396 8.46106270795417 16.363229900764612 0 -1 0 I I #
point $-1 -66.546220282601396 23.581586985322922 16.363229900764608 #
point $-1 -60.435167938741529 16.92212541590834 15.841308071517886 #
straight-curve $-1 66.546220282601396 15.836297788389981 97.858447976555212 0 0 -1 I I #
point $-1 66.546220282601396 15.836297788389981 21.96685252956788 #
straight-curve $-1 66.546220282601382 12.103781818809523 9.813075683882083 0 1 0 I I #
point $-1 66.546220282601411 15.836297788389981 9.8130756838820759 #
point $-1 55.509881879687605 20.61987827366373 12.211969972739217 #
point $-1 55.509881879687605 27.795249001574362 12.211969972739217 #
point $-1 -66.546220282601396 -46.494619686995804 21.96685252956788 #
straight-curve $-1 -66.546220282601396 -46.494619686995804 0 0 0 -1 I I #
point $-1 -66.546220282601396 -46.494619686995804 -21.96685252956788 #
straight-curve $-1 -31.770384890662772 -25.969291994008277 21.96685252956788 1 0 0 I I #
End-of-ACIS-data 