500 0 8 0           
7 Unknown 11 ACIS 5.0 NT 24 Thu Mar 25 22:37:37 1999 
-1 9.9999999999999995e-007 1e-010 
body $-1 $8 $-1 $9 #
body $-1 $10 $-1 $11 #
body $-1 $12 $-1 $13 #
body $-1 $14 $-1 $15 #
body $-1 $16 $-1 $17 #
body $-1 $18 $-1 $19 #
body $-1 $20 $-1 $21 #
body $-1 $22 $-1 $23 #
lump $-1 $-1 $24 $0 #
transform $-1 1 0 0 0 1 0 0 0 1 61.15176854762413 31.057752819574468 9.1520231910142886 1 rotate no_reflect no_shear #
lump $-1 $-1 $25 $1 #
transform $-1 1 0 0 0 1 0 0 0 1 61.15176854762413 31.057752819574468 9.1520231910142886 1 rotate no_reflect no_shear #
lump $-1 $-1 $26 $2 #
transform $-1 1 0 0 0 1 0 0 0 1 61.15176854762413 31.057752819574468 9.1520231910142886 1 rotate no_reflect no_shear #
lump $-1 $-1 $27 $3 #
transform $-1 1 0 0 0 1 0 0 0 1 61.15176854762413 31.057752819574468 9.1520231910142886 1 rotate no_reflect no_shear #
lump $-1 $-1 $28 $4 #
transform $-1 1 0 0 0 1 0 0 0 1 61.15176854762413 31.057752819574468 9.1520231910142886 1 rotate no_reflect no_shear #
lump $-1 $-1 $29 $5 #
transform $-1 1 0 0 0 1 0 0 0 1 61.15176854762413 31.057752819574468 9.1520231910142886 1 rotate no_reflect no_shear #
lump $-1 $-1 $30 $6 #
transform $-1 1 0 0 0 1 0 0 0 1 61.15176854762413 31.057752819574468 9.1520231910142886 1 rotate no_reflect no_shear #
lump $-1 $-1 $31 $7 #
transform $-1 1 0 0 0 1 0 0 0 1 61.15176854762413 31.057752819574468 9.1520231910142886 1 rotate no_reflect no_shear #
shell $-1 $-1 $-1 $32 $-1 $8 #
shell $-1 $-1 $-1 $33 $-1 $10 #
shell $-1 $-1 $-1 $34 $-1 $12 #
shell $-1 $-1 $-1 $35 $-1 $14 #
shell $-1 $-1 $-1 $36 $-1 $16 #
shell $-1 $-1 $-1 $37 $-1 $18 #
shell $-1 $-1 $-1 $38 $-1 $20 #
shell $-1 $-1 $-1 $39 $-1 $22 #
face $-1 $40 $41 $24 $-1 $42 forward single #
face $-1 $43 $44 $25 $-1 $45 forward single #
face $-1 $46 $47 $26 $-1 $48 reversed single #
face $-1 $49 $50 $27 $-1 $51 forward single #
face $-1 $52 $53 $28 $-1 $54 forward single #
face $-1 $55 $56 $29 $-1 $57 reversed single #
face $-1 $58 $59 $30 $-1 $60 forward single #
face $-1 $61 $62 $31 $-1 $63 forward single #
face $-1 $64 $65 $24 $-1 $66 reversed single #
loop $-1 $-1 $67 $32 #
plane-surface $-1 0 0 9.1520231910142886 0 0 1 1 0 0 forward_v I I I I #
face $-1 $68 $69 $25 $-1 $70 forward single #
loop $-1 $-1 $71 $33 #
plane-surface $-1 0 -31.057752819574468 0 0 1 0 0 0 1 forward_v I I I I #
face $-1 $72 $73 $26 $-1 $74 reversed single #
loop $-1 $-1 $75 $34 #
plane-surface $-1 82.230697198913305 -12.219706711031279 175.88569920503949 0 -1 0 -0.78801076186113728 0 -0.61566146476048833 forward_v I I I I #
face $-1 $76 $77 $27 $-1 $78 forward single #
loop $-1 $79 $80 $35 #
cone-surface $-1 57.85882770868313 -21.282056658415669 5.6169233391186522 -0.78801076186113728 0 -0.61566146476048833 0.61566146476048833 0 -0.78801076186113728 1 I I 0 1 1 forward I I I I #
face $-1 $81 $82 $28 $-1 $83 forward single #
loop $-1 $84 $85 $36 #
cone-surface $-1 57.85882770868313 -15.844646689985035 5.6169233391186522 -0.78801076186113728 0 -0.61566146476048833 0.61566146476048833 0 -0.78801076186113728 1 I I 0 1 1 forward I I I I #
face $-1 $86 $87 $29 $-1 $88 reversed single #
loop $-1 $-1 $89 $37 #
plane-surface $-1 -134.75587548799479 -24.906996637369428 98.969173008096462 0 1 0 -0.6018150307709319 0 0.79863550430605224 forward_v I I I I #
face $-1 $90 $91 $30 $-1 $92 forward single #
loop $-1 $93 $94 $38 #
cone-surface $-1 -55.380550710183876 -22.676592488105676 4.4838191093000486 0.6018150307709319 0 -0.79863550430605224 0.39931775215302612 0 0.30090751538546595 1 I I 0 1 0.5 forward I I I I #
face $-1 $95 $96 $31 $-1 $97 forward single #
loop $-1 $98 $99 $39 #
cone-surface $-1 -55.380550710183876 -19.330986264210058 4.4838191093000486 0.6018150307709319 0 -0.79863550430605224 0.39931775215302612 0 0.30090751538546595 1 I I 0 1 0.5 forward I I I I #
face $-1 $100 $101 $24 $-1 $102 reversed single #
loop $-1 $-1 $103 $40 #
plane-surface $-1 0 0 -9.1520231910142886 0 0 1 1 0 0 forward_v I I I I #
coedge $-1 $104 $105 $106 $107 forward $41 $-1 #
face $-1 $108 $109 $25 $-1 $110 reversed single #
loop $-1 $-1 $111 $43 #
plane-surface $-1 0 0 9.1520231910142886 0 0 1 1 0 0 forward_v I I I I #
coedge $-1 $112 $113 $114 $115 forward $44 $-1 #
face $-1 $116 $117 $26 $-1 $118 reversed single #
loop $-1 $-1 $119 $46 #
plane-surface $-1 -14.145806245825142 -18.563351674200351 100.58812441159023 0.78801076186113728 0 0.61566146476048833 0.61566146476048833 0 -0.78801076186113728 forward_v I I I I #
coedge $-1 $120 $121 $122 $123 reversed $47 $-1 #
face $-1 $-1 $124 $27 $-1 $125 forward single #
loop $-1 $126 $127 $49 #
cone-surface $-1 56.101814058926522 -21.282056658415669 4.2441938669240269 -0.78801076186113728 0 -0.61566146476048833 0.30783073238024417 0 -0.39400538093056864 1 I I -0.70710678118654746 0.70710678118654746 0.5 forward I I I I #
loop $-1 $-1 $128 $35 #
coedge $-1 $80 $80 $129 $130 reversed $50 $-1 #
face $-1 $-1 $131 $28 $-1 $132 forward single #
loop $-1 $133 $134 $52 #
cone-surface $-1 56.101814058926522 -15.844646689985035 4.2441938669240269 -0.78801076186113728 0 -0.61566146476048833 0.30783073238024417 0 -0.39400538093056864 1 I I -0.70710678118654746 0.70710678118654746 0.5 forward I I I I #
loop $-1 $-1 $135 $36 #
coedge $-1 $85 $85 $136 $137 reversed $53 $-1 #
face $-1 $138 $139 $29 $-1 $140 reversed single #
loop $-1 $-1 $141 $55 #
plane-surface $-1 -61.151768547624144 -21.003789376157869 1.2932259816189031 -0.6018150307709319 0 0.79863550430605224 0.79863550430605224 0 0.6018150307709319 forward_v I I I I #
coedge $-1 $142 $143 $144 $145 reversed $56 $-1 #
face $-1 $-1 $146 $30 $-1 $147 forward single #
loop $-1 $148 $149 $58 #
cone-surface $-1 -54.673367081996858 -22.676592488105676 3.54535475620699 0.6018150307709319 0 -0.79863550430605224 0.19965887607651306 0 0.15045375769273298 1 I I -0.70710678118654746 0.70710678118654746 0.25 forward I I I I #
loop $-1 $-1 $150 $38 #
coedge $-1 $94 $94 $151 $152 reversed $59 $-1 #
face $-1 $-1 $153 $31 $-1 $154 forward single #
loop $-1 $155 $156 $61 #
cone-surface $-1 -54.673367081996858 -19.330986264210058 3.54535475620699 0.6018150307709319 0 -0.79863550430605224 0.19965887607651306 0 0.15045375769273298 1 I I -0.70710678118654746 0.70710678118654746 0.25 forward I I I I #
loop $-1 $-1 $157 $39 #
coedge $-1 $99 $99 $158 $159 reversed $62 $-1 #
face $-1 $160 $161 $24 $-1 $162 reversed single #
loop $-1 $-1 $163 $64 #
plane-surface $-1 0 -31.057752819574468 0 0 1 0 0 0 1 forward_v I I I I #
coedge $-1 $164 $165 $166 $167 forward $65 $-1 #
coedge $-1 $168 $67 $169 $170 forward $41 $-1 #
coedge $-1 $67 $168 $171 $172 forward $41 $-1 #
coedge $-1 $173 $174 $67 $107 reversed $175 $-1 #
edge $-1 $176 -31.057752819574468 $177 31.057752819574468 $106 $178 forward 7 unknown #
face $-1 $179 $180 $25 $-1 $181 reversed single #
loop $-1 $-1 $182 $68 #
plane-surface $-1 -61.15176854762413 0 0 1 0 0 0 0 -1 forward_v I I I I #
coedge $-1 $183 $184 $113 $185 forward $69 $-1 #
coedge $-1 $186 $71 $187 $188 reversed $44 $-1 #
coedge $-1 $71 $186 $111 $185 reversed $44 $-1 #
coedge $-1 $189 $190 $71 $115 reversed $191 $-1 #
edge $-1 $192 -9.1520231910142886 $193 9.1520231910142886 $114 $194 forward 7 unknown #
face $-1 $195 $196 $26 $-1 $197 forward single #
loop $-1 $-1 $198 $72 #
plane-surface $-1 82.230697198913305 -24.906996637369424 175.88569920503949 0 1 0 0.78801076186113728 0 0.61566146476048833 forward_v I I I I #
coedge $-1 $199 $200 $201 $202 reversed $73 $-1 #
coedge $-1 $121 $75 $203 $204 reversed $47 $-1 #
coedge $-1 $75 $120 $199 $205 reversed $47 $-1 #
coedge $-1 $201 $206 $75 $123 forward $196 $-1 #
edge $-1 $207 -20.036419948167477 $208 -16.176554807937492 $122 $209 forward 7 unknown #
loop $-1 $-1 $129 $76 #
plane-surface $-1 -14.145806245825142 -18.563351674200351 100.58812441159023 0.78801076186113728 0 0.61566146476048833 0.61566146476048833 0 -0.78801076186113728 forward_v I I I I #
loop $-1 $-1 $210 $49 #
coedge $-1 $127 $127 $128 $211 reversed $77 $-1 #
coedge $-1 $128 $128 $127 $211 forward $79 $-1 #
coedge $-1 $129 $129 $80 $130 forward $124 $-1 #
edge $-1 $212 0 $212 6.2831853071796004 $129 $213 forward 7 unknown #
loop $-1 $-1 $136 $81 #
plane-surface $-1 -14.145806245825142 -18.563351674200351 100.58812441159023 0.78801076186113728 0 0.61566146476048833 0.61566146476048833 0 -0.78801076186113728 forward_v I I I I #
loop $-1 $-1 $214 $52 #
coedge $-1 $134 $134 $135 $215 reversed $82 $-1 #
coedge $-1 $135 $135 $134 $215 forward $84 $-1 #
coedge $-1 $136 $136 $85 $137 forward $131 $-1 #
edge $-1 $216 0 $216 6.2831853071796004 $136 $217 forward 7 unknown #
face $-1 $218 $219 $29 $-1 $220 reversed single #
loop $-1 $-1 $221 $86 #
plane-surface $-1 -134.75587548799479 -17.10058211494631 98.969173008096462 0 -1 0 0.6018150307709319 0 -0.79863550430605224 forward_v I I I I #
coedge $-1 $222 $223 $224 $225 reversed $87 $-1 #
coedge $-1 $143 $89 $226 $227 reversed $56 $-1 #
coedge $-1 $89 $142 $222 $228 reversed $56 $-1 #
coedge $-1 $224 $229 $89 $145 forward $230 $-1 #
edge $-1 $231 6.226169196373263 $232 16.655145130265176 $144 $233 forward 7 unknown #
loop $-1 $-1 $151 $90 #
plane-surface $-1 -61.151768547624144 -21.003789376157869 1.2932259816189031 -0.6018150307709319 0 0.79863550430605224 0.79863550430605224 0 0.6018150307709319 forward_v I I I I #
loop $-1 $-1 $234 $58 #
coedge $-1 $149 $149 $150 $235 reversed $91 $-1 #
coedge $-1 $150 $150 $149 $235 forward $93 $-1 #
coedge $-1 $151 $151 $94 $152 forward $146 $-1 #
edge $-1 $236 0 $236 6.2831853071796004 $151 $237 forward 7 unknown #
loop $-1 $-1 $158 $95 #
plane-surface $-1 -61.151768547624144 -21.003789376157869 1.2932259816189031 -0.6018150307709319 0 0.79863550430605224 0.79863550430605224 0 0.6018150307709319 forward_v I I I I #
loop $-1 $-1 $238 $61 #
coedge $-1 $156 $156 $157 $239 reversed $96 $-1 #
coedge $-1 $157 $157 $156 $239 forward $98 $-1 #
coedge $-1 $158 $158 $99 $159 forward $153 $-1 #
edge $-1 $240 0 $240 6.2831853071796004 $158 $241 forward 7 unknown #
face $-1 $242 $243 $24 $-1 $244 reversed single #
loop $-1 $-1 $245 $100 #
plane-surface $-1 -61.15176854762413 0 0 1 0 0 0 0 -1 forward_v I I I I #
coedge $-1 $246 $171 $247 $248 forward $101 $-1 #
coedge $-1 $249 $103 $246 $250 forward $65 $-1 #
coedge $-1 $103 $249 $251 $252 forward $65 $-1 #
coedge $-1 $174 $173 $103 $167 reversed $175 $-1 #
edge $-1 $253 -31.057752819574468 $254 31.057752819574468 $166 $255 forward 7 unknown #
coedge $-1 $105 $104 $256 $257 forward $41 $-1 #
coedge $-1 $258 $259 $104 $170 reversed $243 $-1 #
edge $-1 $177 -61.15176854762413 $260 61.15176854762413 $169 $261 forward 7 unknown #
coedge $-1 $163 $262 $105 $172 reversed $101 $-1 #
edge $-1 $263 -61.15176854762413 $176 61.15176854762413 $171 $264 forward 7 unknown #
coedge $-1 $166 $106 $262 $265 forward $175 $-1 #
coedge $-1 $106 $166 $258 $266 reversed $175 $-1 #
loop $-1 $-1 $173 $242 #
vertex $-1 $107 $267 #
vertex $-1 $107 $268 #
straight-curve $-1 61.15176854762413 0 9.1520231910142886 0 1 0 I I #
face $-1 $269 $191 $25 $-1 $270 reversed single #
loop $-1 $-1 $271 $108 #
plane-surface $-1 -59.238549648850096 -37.208509001779511 0 0 1 0 0 0 1 forward_v I I I I #
coedge $-1 $272 $273 $186 $274 forward $109 $-1 #
coedge $-1 $275 $111 $273 $276 forward $69 $-1 #
coedge $-1 $111 $275 $189 $277 forward $69 $-1 #
edge $-1 $192 57.325330750076063 $278 61.15176854762413 $111 $279 forward 7 unknown #
coedge $-1 $113 $112 $182 $274 reversed $44 $-1 #
coedge $-1 $280 $281 $112 $188 forward $282 $-1 #
edge $-1 $283 -61.15176854762413 $193 -57.325330750076063 $187 $284 forward 7 unknown #
coedge $-1 $285 $114 $184 $277 reversed $191 $-1 #
coedge $-1 $114 $285 $280 $286 reversed $191 $-1 #
loop $-1 $-1 $285 $179 #
vertex $-1 $185 $287 #
vertex $-1 $286 $288 #
straight-curve $-1 -57.325330750076063 -31.057752819574468 0 0 0 -1 I I #
face $-1 $-1 $289 $26 $-1 $290 reversed single #
loop $-1 $-1 $122 $116 #
plane-surface $-1 0 0 9.1520231910142886 0 0 1 1 0 0 forward_v I I I I #
coedge $-1 $291 $292 $293 $294 reversed $117 $-1 #
coedge $-1 $295 $119 $121 $205 forward $73 $-1 #
coedge $-1 $119 $295 $291 $296 forward $73 $-1 #
coedge $-1 $293 $122 $119 $202 forward $196 $-1 #
edge $-1 $208 2.938030873931103 $297 15.625320800269249 $201 $298 forward 7 unknown #
coedge $-1 $299 $300 $120 $204 forward $289 $-1 #
edge $-1 $301 -83.731228635667975 $207 -78.790826411505449 $203 $302 forward 7 unknown #
edge $-1 $208 116.03407674867357 $301 122.30353709524829 $121 $303 forward 7 unknown #
coedge $-1 $122 $293 $299 $304 forward $196 $-1 #
vertex $-1 $204 $305 #
vertex $-1 $123 $306 #
straight-curve $-1 41.115348599456652 -12.219706711031279 9.152023191014294 -1 0 0 I I #
coedge $-1 $210 $210 $-1 $307 reversed $126 $-1 #
edge $-1 $308 0 $308 6.2831853071796004 $127 $309 forward 7 unknown #
vertex $-1 $130 $310 #
ellipse-curve $-1 59.221835977509144 -21.282056658415669 6.6818220789330161 0.78801076186113728 0 0.61566146476048833 0.61566146476048833 0 -0.78801076186113728 1 I I #
coedge $-1 $214 $214 $-1 $311 reversed $133 $-1 #
edge $-1 $312 0 $312 6.2831853071796004 $134 $313 forward 7 unknown #
vertex $-1 $137 $314 #
ellipse-curve $-1 59.221835977509144 -15.844646689985035 6.6818220789330161 0.78801076186113728 0 0.61566146476048833 0.61566146476048833 0 -0.78801076186113728 1 I I #
face $-1 $-1 $230 $29 $-1 $315 forward single #
loop $-1 $-1 $316 $138 #
plane-surface $-1 -61.15176854762413 0 0 1 0 0 0 0 -1 forward_v I I I I #
coedge $-1 $317 $318 $319 $320 reversed $139 $-1 #
coedge $-1 $321 $141 $143 $228 forward $87 $-1 #
coedge $-1 $141 $321 $317 $322 forward $87 $-1 #
coedge $-1 $319 $144 $141 $225 forward $230 $-1 #
edge $-1 $232 -14.405101949290493 $323 -6.5986874268673752 $224 $324 forward 7 unknown #
coedge $-1 $325 $326 $142 $227 forward $219 $-1 #
edge $-1 $327 -48.191360522429321 $231 -40.332563313033944 $226 $328 forward 7 unknown #
edge $-1 $232 -13.058492738754259 $327 -1.7763522597878294e-014 $143 $329 forward 7 unknown #
coedge $-1 $144 $319 $325 $330 forward $230 $-1 #
loop $-1 $-1 $319 $218 #
vertex $-1 $227 $331 #
vertex $-1 $145 $332 #
straight-curve $-1 -67.377937743997393 -24.906996637369428 9.1520231910142869 1 0 0 I I #
coedge $-1 $234 $234 $-1 $333 reversed $148 $-1 #
edge $-1 $334 0 $334 6.2831853071796004 $149 $335 forward 7 unknown #
vertex $-1 $152 $336 #
ellipse-curve $-1 -55.93728058067817 -22.676592488105676 5.2226245863166048 -0.6018150307709319 0 0.79863550430605224 0.39931775215302612 0 0.30090751538546595 1 I I #
coedge $-1 $238 $238 $-1 $337 reversed $155 $-1 #
edge $-1 $338 0 $338 6.2831853071796004 $156 $339 forward 7 unknown #
vertex $-1 $159 $340 #
ellipse-curve $-1 -55.93728058067817 -19.330986264210058 5.2226245863166048 -0.6018150307709319 0 0.79863550430605224 0.39931775215302612 0 0.30090751538546595 1 I I #
face $-1 $-1 $175 $24 $-1 $341 reversed single #
loop $-1 $-1 $258 $160 #
plane-surface $-1 0 31.057752819574468 0 0 -1 0 0 0 -1 forward_v I I I I #
coedge $-1 $342 $256 $259 $343 forward $161 $-1 #
coedge $-1 $262 $163 $164 $250 reversed $101 $-1 #
coedge $-1 $256 $342 $163 $248 reversed $161 $-1 #
edge $-1 $263 -9.1520231910142886 $344 9.1520231910142886 $247 $345 forward 7 unknown #
coedge $-1 $165 $164 $342 $346 forward $65 $-1 #
edge $-1 $254 -61.15176854762413 $344 61.15176854762413 $246 $347 forward 7 unknown #
coedge $-1 $259 $258 $165 $252 reversed $243 $-1 #
edge $-1 $348 -61.15176854762413 $253 61.15176854762413 $251 $349 forward 7 unknown #
vertex $-1 $167 $350 #
vertex $-1 $265 $351 #
straight-curve $-1 61.15176854762413 0 -9.1520231910142886 0 -1 0 I I #
coedge $-1 $245 $247 $168 $257 reversed $161 $-1 #
edge $-1 $260 -31.057752819574468 $263 31.057752819574468 $256 $352 forward 7 unknown #
coedge $-1 $251 $169 $174 $266 forward $243 $-1 #
coedge $-1 $169 $251 $245 $343 reversed $243 $-1 #
vertex $-1 $170 $353 #
straight-curve $-1 0 31.057752819574468 9.1520231910142886 -1 0 0 I I #
coedge $-1 $171 $246 $173 $265 reversed $101 $-1 #
vertex $-1 $257 $354 #
straight-curve $-1 0 -31.057752819574468 9.1520231910142886 1 0 0 I I #
edge $-1 $176 -9.1520231910142886 $254 9.1520231910142886 $173 $355 forward 7 unknown #
edge $-1 $177 -9.1520231910142886 $253 9.1520231910142886 $174 $356 forward 7 unknown #
point $-1 61.15176854762413 -31.057752819574468 9.1520231910142886 #
point $-1 61.15176854762413 31.057752819574468 9.1520231910142886 #
face $-1 $-1 $282 $25 $-1 $357 reversed single #
plane-surface $-1 -57.325330750076063 -34.133130910676989 0 -1 0 0 0 0 1 forward_v I I I I #
coedge $-1 $358 $359 $360 $361 forward $180 $-1 #
coedge $-1 $360 $182 $281 $362 reversed $109 $-1 #
coedge $-1 $182 $360 $183 $276 reversed $109 $-1 #
edge $-1 $278 -9.1520231910142886 $283 9.1520231910142886 $182 $363 forward 7 unknown #
coedge $-1 $184 $183 $359 $364 forward $69 $-1 #
edge $-1 $278 31.057752819574468 $365 37.208509001779511 $273 $366 forward 7 unknown #
edge $-1 $367 -3.0753780911025217 $192 3.0753780911025217 $189 $368 forward 7 unknown #
vertex $-1 $276 $369 #
straight-curve $-1 0 -31.057752819574468 9.1520231910142886 -1 0 0 I I #
coedge $-1 $370 $187 $190 $286 forward $282 $-1 #
coedge $-1 $187 $370 $272 $362 forward $282 $-1 #
loop $-1 $-1 $187 $269 #
vertex $-1 $274 $371 #
straight-curve $-1 0 -31.057752819574468 -9.1520231910142886 1 0 0 I I #
coedge $-1 $190 $189 $372 $373 forward $191 $-1 #
edge $-1 $193 -3.0753780911025217 $374 3.0753780911025217 $190 $375 forward 7 unknown #
point $-1 -57.325330750076063 -31.057752819574468 9.1520231910142886 #
point $-1 -57.325330750076063 -31.057752819574468 -9.1520231910142886 #
loop $-1 $-1 $203 $195 #
plane-surface $-1 61.15176854762413 0 0 -1 0 0 0 0 1 forward_v I I I I #
coedge $-1 $292 $198 $200 $296 reversed $117 $-1 #
coedge $-1 $198 $291 $376 $377 reversed $117 $-1 #
coedge $-1 $206 $201 $198 $294 forward $196 $-1 #
edge $-1 $297 16.176554807937492 $378 20.036419948167477 $293 $379 forward 7 unknown #
coedge $-1 $200 $199 $300 $380 reversed $73 $-1 #
edge $-1 $381 -122.30353709524829 $297 -116.03407674867357 $291 $382 forward 7 unknown #
vertex $-1 $202 $383 #
straight-curve $-1 57.291903407394152 -9.2816758371001757 9.152023191014294 0 -1 0 I I #
coedge $-1 $376 $203 $206 $304 reversed $289 $-1 #
coedge $-1 $203 $376 $295 $380 forward $289 $-1 #
vertex $-1 $204 $384 #
straight-curve $-1 61.15176854762413 -12.219706711031279 87.942849602519743 0 0 1 I I #
straight-curve $-1 -14.145806245825142 -12.219706711031279 100.58812441159023 0.61566146476048833 0 -0.78801076186113728 I I #
edge $-1 $378 -24.906996637369424 $207 -12.219706711031279 $299 $385 forward 7 unknown #
point $-1 61.15176854762413 -12.219706711031279 9.1520231910142886 #
point $-1 57.291903407394145 -12.219706711031279 9.152023191014294 #
edge $-1 $386 1 $386 0 $210 $-1 forward 7 unknown #
vertex $-1 $211 $387 #
ellipse-curve $-1 56.495819439857087 -21.282056658415669 4.5520245993042714 0.78801076186113728 0 0.61566146476048833 0.61566146476048833 0 -0.78801076186113728 1 I I #
point $-1 59.837497442269651 -21.282056658415669 5.8938113170718962 #
edge $-1 $388 1 $388 0 $214 $-1 forward 7 unknown #
vertex $-1 $215 $389 #
ellipse-curve $-1 56.495819439857087 -15.844646689985035 4.5520245993042714 0.78801076186113728 0 0.61566146476048833 0.61566146476048833 0 -0.78801076186113728 1 I I #
point $-1 59.837497442269651 -15.844646689985035 5.8938113170718962 #
plane-surface $-1 0 0 9.1520231910142886 0 0 1 1 0 0 forward_v I I I I #
coedge $-1 $326 $325 $318 $390 forward $219 $-1 #
coedge $-1 $318 $221 $223 $322 reversed $139 $-1 #
coedge $-1 $221 $317 $316 $390 reversed $139 $-1 #
coedge $-1 $229 $224 $221 $320 forward $230 $-1 #
edge $-1 $323 -16.655145130265176 $391 -6.226169196373263 $319 $392 forward 7 unknown #
coedge $-1 $223 $222 $326 $393 reversed $87 $-1 #
edge $-1 $394 1.7763522597878294e-014 $323 13.058492738754259 $317 $395 forward 7 unknown #
vertex $-1 $225 $396 #
straight-curve $-1 -50.722792613732217 -10.501894688078934 9.1520231910142869 0 1 0 I I #
coedge $-1 $316 $226 $229 $330 reversed $219 $-1 #
coedge $-1 $226 $316 $321 $393 forward $219 $-1 #
vertex $-1 $227 $397 #
straight-curve $-1 -61.15176854762413 -24.906996637369428 49.484586504048231 0 0 1 I I #
straight-curve $-1 -61.151768547624144 -24.906996637369428 1.2932259816189031 -0.79863550430605224 0 -0.6018150307709319 I I #
edge $-1 $391 17.10058211494631 $231 24.906996637369428 $325 $398 forward 7 unknown #
point $-1 -61.15176854762413 -24.906996637369428 9.1520231910142886 #
point $-1 -50.722792613732217 -24.906996637369428 9.1520231910142886 #
edge $-1 $399 1 $399 0 $234 $-1 forward 7 unknown #
vertex $-1 $235 $400 #
ellipse-curve $-1 -54.823820839689589 -22.676592488105676 3.745013632283503 -0.6018150307709319 0 0.79863550430605224 0.39931775215302612 0 0.30090751538546595 1 I I #
point $-1 -55.537962828525131 -22.676592488105676 5.5235321017020595 #
edge $-1 $401 1 $401 0 $238 $-1 forward 7 unknown #
vertex $-1 $239 $402 #
ellipse-curve $-1 -54.823820839689589 -19.330986264210058 3.745013632283503 -0.6018150307709319 0 0.79863550430605224 0.39931775215302612 0 0.30090751538546595 1 I I #
point $-1 -55.537962828525131 -19.330986264210058 5.5235321017020595 #
plane-surface $-1 61.15176854762413 0 0 -1 0 0 0 0 1 forward_v I I I I #
coedge $-1 $247 $245 $249 $346 reversed $161 $-1 #
edge $-1 $260 -9.1520231910142886 $348 9.1520231910142886 $259 $403 forward 7 unknown #
vertex $-1 $346 $404 #
straight-curve $-1 -61.15176854762413 -31.057752819574468 0 0 0 -1 I I #
edge $-1 $344 -31.057752819574468 $348 31.057752819574468 $342 $405 forward 7 unknown #
straight-curve $-1 0 -31.057752819574468 -9.1520231910142886 -1 0 0 I I #
vertex $-1 $252 $406 #
straight-curve $-1 0 31.057752819574468 -9.1520231910142886 1 0 0 I I #
point $-1 61.15176854762413 31.057752819574468 -9.1520231910142886 #
point $-1 61.15176854762413 -31.057752819574468 -9.1520231910142886 #
straight-curve $-1 -61.15176854762413 0 9.1520231910142886 0 -1 0 I I #
point $-1 -61.15176854762413 31.057752819574468 9.1520231910142886 #
point $-1 -61.15176854762413 -31.057752819574468 9.1520231910142886 #
straight-curve $-1 61.15176854762413 -31.057752819574468 0 0 0 -1 I I #
straight-curve $-1 61.15176854762413 31.057752819574468 0 0 0 -1 I I #
plane-surface $-1 0 0 -9.1520231910142886 0 0 1 1 0 0 forward_v I I I I #
coedge $-1 $372 $271 $370 $407 reversed $180 $-1 #
coedge $-1 $271 $372 $275 $364 reversed $180 $-1 #
coedge $-1 $273 $272 $271 $361 reversed $109 $-1 #
edge $-1 $365 -9.1520231910142886 $408 9.1520231910142886 $360 $409 forward 7 unknown #
edge $-1 $408 -37.208509001779511 $283 -31.057752819574468 $272 $410 forward 7 unknown #
straight-curve $-1 -61.15176854762413 -31.057752819574468 0 0 0 -1 I I #
edge $-1 $365 -1.9132188987740335 $367 1.9132188987740335 $359 $411 forward 7 unknown #
vertex $-1 $276 $412 #
straight-curve $-1 -61.15176854762413 0 9.1520231910142886 0 -1 0 I I #
vertex $-1 $277 $413 #
straight-curve $-1 -57.325330750076063 -34.133130910676989 9.1520231910142886 0 1 0 I I #
point $-1 -61.15176854762413 -31.057752819574468 9.1520231910142886 #
coedge $-1 $281 $280 $358 $407 forward $282 $-1 #
point $-1 -61.15176854762413 -31.057752819574468 -9.1520231910142886 #
coedge $-1 $359 $358 $285 $373 reversed $180 $-1 #
edge $-1 $367 -9.1520231910142886 $374 9.1520231910142886 $285 $414 forward 7 unknown #
vertex $-1 $373 $415 #
straight-curve $-1 -57.325330750076063 -34.133130910676989 -9.1520231910142886 0 -1 0 I I #
coedge $-1 $300 $299 $292 $377 forward $289 $-1 #
edge $-1 $378 78.790826411505449 $381 83.731228635667975 $376 $416 forward 7 unknown #
vertex $-1 $304 $417 #
straight-curve $-1 41.115348599456652 -24.906996637369424 9.152023191014294 1 0 0 I I #
edge $-1 $381 -15.625320800269249 $301 -2.938030873931103 $300 $418 forward 7 unknown #
vertex $-1 $380 $419 #
straight-curve $-1 -14.145806245825142 -24.906996637369424 100.58812441159023 -0.61566146476048833 0 0.78801076186113728 I I #
point $-1 57.291903407394145 -24.906996637369424 9.152023191014294 #
point $-1 61.15176854762413 -12.219706711031279 4.2116209668517683 #
straight-curve $-1 61.15176854762413 0 9.1520231910142886 0 1 0 I I #
vertex $-1 $307 $420 #
point $-1 57.111480904617579 -21.282056658415669 3.7640138374431338 #
vertex $-1 $311 $421 #
point $-1 57.111480904617579 -15.844646689985035 3.7640138374431338 #
edge $-1 $391 40.332563313033944 $394 48.191360522429321 $316 $422 forward 7 unknown #
vertex $-1 $330 $423 #
straight-curve $-1 -67.377937743997393 -17.10058211494631 9.1520231910142869 -1 0 0 I I #
edge $-1 $394 6.5986874268673752 $327 14.405101949290493 $326 $424 forward 7 unknown #
vertex $-1 $393 $425 #
straight-curve $-1 -61.151768547624144 -17.10058211494631 1.2932259816189031 0.79863550430605224 0 0.6018150307709319 I I #
point $-1 -50.722792613732217 -17.10058211494631 9.1520231910142886 #
point $-1 -61.15176854762413 -24.906996637369428 1.2932259816189138 #
straight-curve $-1 -61.15176854762413 0 9.1520231910142886 0 -1 0 I I #
vertex $-1 $333 $426 #
point $-1 -54.424503087536564 -22.676592488105676 4.0459211476689694 #
vertex $-1 $337 $427 #
point $-1 -54.424503087536564 -19.330986264210058 4.0459211476689694 #
straight-curve $-1 -61.15176854762413 31.057752819574468 0 0 0 -1 I I #
point $-1 -61.15176854762413 -31.057752819574468 -9.1520231910142886 #
straight-curve $-1 -61.15176854762413 0 -9.1520231910142886 0 1 0 I I #
point $-1 -61.15176854762413 31.057752819574468 -9.1520231910142886 #
edge $-1 $374 -1.9132188987740335 $408 1.9132188987740335 $358 $428 forward 7 unknown #
vertex $-1 $362 $429 #
straight-curve $-1 -61.15176854762413 -37.208509001779511 0 0 0 -1 I I #
straight-curve $-1 -61.15176854762413 0 -9.1520231910142886 0 1 0 I I #
straight-curve $-1 -59.238549648850096 -37.208509001779511 9.1520231910142886 1 0 0 I I #
point $-1 -61.15176854762413 -37.208509001779511 9.1520231910142886 #
point $-1 -57.325330750076063 -37.208509001779511 9.1520231910142886 #
straight-curve $-1 -57.325330750076063 -37.208509001779511 0 0 0 -1 I I #
point $-1 -57.325330750076063 -37.208509001779511 -9.1520231910142886 #
straight-curve $-1 61.15176854762413 -24.906996637369424 87.942849602519743 0 0 -1 I I #
point $-1 61.15176854762413 -24.906996637369424 9.1520231910142886 #
straight-curve $-1 61.151768547624137 -9.2816758371001757 4.2116209668517683 0 1 0 I I #
point $-1 61.15176854762413 -24.906996637369424 4.2116209668517683 #
point $-1 55.707808677995956 -21.282056658415669 3.9363631345437828 #
point $-1 55.707808677995956 -15.844646689985035 3.9363631345437828 #
straight-curve $-1 -61.15176854762413 -17.10058211494631 49.484586504048231 0 0 -1 I I #
point $-1 -61.15176854762413 -17.10058211494631 9.1520231910142886 #
straight-curve $-1 -61.15176854762413 -10.501894688078934 1.2932259816189122 0 -1 0 I I #
point $-1 -61.15176854762413 -17.10058211494631 1.2932259816189138 #
point $-1 -54.522913324304128 -22.676592488105676 3.345695880130477 #
point $-1 -54.522913324304128 -19.330986264210058 3.345695880130477 #
straight-curve $-1 -59.238549648850096 -37.208509001779511 -9.1520231910142886 -1 0 0 I I #
point $-1 -61.15176854762413 -37.208509001779511 -9.1520231910142886 #
End-of-ACIS-data 