500 0 12 0           
7 Unknown 11 ACIS 5.0 NT 24 Thu Mar 25 21:33:39 1999 
-1 9.9999999999999995e-007 1e-010 
body $-1 $12 $-1 $13 #
body $-1 $14 $-1 $15 #
body $-1 $16 $-1 $17 #
body $-1 $18 $-1 $19 #
body $-1 $20 $-1 $21 #
body $-1 $22 $-1 $23 #
body $-1 $24 $-1 $25 #
body $-1 $26 $-1 $27 #
body $-1 $28 $-1 $29 #
body $-1 $30 $-1 $31 #
body $-1 $32 $-1 $33 #
body $-1 $34 $-1 $35 #
lump $-1 $-1 $36 $0 #
transform $-1 1 0 0 0 1 0 0 0 1 67.996459852900784 32.868102907318651 8.7932481980692998 1 rotate no_reflect no_shear #
lump $-1 $-1 $37 $1 #
transform $-1 1 0 0 0 1 0 0 0 1 67.996459852900784 32.868102907318651 8.7932481980692998 1 rotate no_reflect no_shear #
lump $-1 $-1 $38 $2 #
transform $-1 1 0 0 0 1 0 0 0 1 67.996459852900784 32.868102907318651 8.7932481980692998 1 rotate no_reflect no_shear #
lump $-1 $-1 $39 $3 #
transform $-1 1 0 0 0 1 0 0 0 1 67.996459852900784 32.868102907318651 8.7932481980692998 1 rotate no_reflect no_shear #
lump $-1 $-1 $40 $4 #
transform $-1 1 0 0 0 1 0 0 0 1 67.996459852900784 32.868102907318651 8.7932481980692998 1 rotate no_reflect no_shear #
lump $-1 $-1 $41 $5 #
transform $-1 1 0 0 0 1 0 0 0 1 67.996459852900784 32.868102907318651 8.7932481980692998 1 rotate no_reflect no_shear #
lump $-1 $-1 $42 $6 #
transform $-1 1 0 0 0 1 0 0 0 1 67.996459852900784 32.868102907318651 8.7932481980692998 1 rotate no_reflect no_shear #
lump $-1 $-1 $43 $7 #
transform $-1 1 0 0 0 1 0 0 0 1 67.996459852900784 32.868102907318651 8.7932481980692998 1 rotate no_reflect no_shear #
lump $-1 $-1 $44 $8 #
transform $-1 1 0 0 0 1 0 0 0 1 67.996459852900784 32.868102907318651 8.7932481980692998 1 rotate no_reflect no_shear #
lump $-1 $-1 $45 $9 #
transform $-1 1 0 0 0 1 0 0 0 1 67.996459852900784 32.868102907318651 8.7932481980692998 1 rotate no_reflect no_shear #
lump $-1 $-1 $46 $10 #
transform $-1 1 0 0 0 1 0 0 0 1 67.996459852900784 32.868102907318651 8.7932481980692998 1 rotate no_reflect no_shear #
lump $-1 $-1 $47 $11 #
transform $-1 1 0 0 0 1 0 0 0 1 67.996459852900784 32.868102907318651 8.7932481980692998 1 rotate no_reflect no_shear #
shell $-1 $-1 $-1 $48 $-1 $12 #
shell $-1 $-1 $-1 $49 $-1 $14 #
shell $-1 $-1 $-1 $50 $-1 $16 #
shell $-1 $-1 $-1 $51 $-1 $18 #
shell $-1 $-1 $-1 $52 $-1 $20 #
shell $-1 $-1 $-1 $53 $-1 $22 #
shell $-1 $-1 $-1 $54 $-1 $24 #
shell $-1 $-1 $-1 $55 $-1 $26 #
shell $-1 $-1 $-1 $56 $-1 $28 #
shell $-1 $-1 $-1 $57 $-1 $30 #
shell $-1 $-1 $-1 $58 $-1 $32 #
shell $-1 $-1 $-1 $59 $-1 $34 #
face $-1 $60 $61 $36 $-1 $62 forward single #
face $-1 $63 $64 $37 $-1 $65 reversed single #
face $-1 $66 $67 $38 $-1 $68 reversed single #
face $-1 $69 $70 $39 $-1 $71 forward single #
face $-1 $72 $73 $40 $-1 $74 forward single #
face $-1 $75 $76 $41 $-1 $77 reversed single #
face $-1 $78 $79 $42 $-1 $80 forward single #
face $-1 $81 $82 $43 $-1 $83 forward single #
face $-1 $84 $85 $44 $-1 $86 reversed single #
face $-1 $87 $88 $45 $-1 $89 forward single #
face $-1 $90 $91 $46 $-1 $92 reversed single #
face $-1 $93 $94 $47 $-1 $95 forward single #
face $-1 $96 $97 $36 $-1 $98 reversed single #
loop $-1 $-1 $99 $48 #
plane-surface $-1 0 0 8.7932481980692998 0 0 1 1 0 0 forward_v I I I I #
face $-1 $100 $101 $37 $-1 $102 reversed single #
loop $-1 $-1 $103 $49 #
plane-surface $-1 -67.496459852900784 -27.49087612141718 0 1 0 0 0 0 -1 forward_v I I I I #
face $-1 $104 $105 $38 $-1 $106 reversed single #
loop $-1 $-1 $107 $50 #
plane-surface $-1 28.010254804752364 -11.959520837975722 189.80169246717037 0 -1 0 -0.54463904215088732 0 -0.83867056331134215 forward_v I I I I #
face $-1 $108 $109 $39 $-1 $110 forward single #
loop $-1 $111 $112 $51 #
cone-surface $-1 62.145017251919931 -19.212469764790001 4.6586566750665277 -0.54463904215088732 0 -0.83867056331134215 0.41933528165567108 0 -0.27231952107544366 1 I I 0 1 0.5 forward I I I I #
face $-1 $113 $114 $40 $-1 $115 forward single #
loop $-1 $116 $117 $52 #
cone-surface $-1 62.145017251919931 -14.860700408701437 4.6586566750665277 -0.54463904215088732 0 -0.83867056331134215 0.41933528165567108 0 -0.27231952107544366 1 I I 0 1 0.5 forward I I I I #
face $-1 $118 $119 $41 $-1 $120 reversed single #
loop $-1 $-1 $121 $53 #
plane-surface $-1 28.010254804752364 15.531355283441458 189.80169246717037 0 -1 0 -0.54463904215088732 0 -0.83867056331134215 forward_v I I I I #
face $-1 $122 $123 $42 $-1 $124 forward single #
loop $-1 $125 $126 $54 #
cone-surface $-1 62.145017251919931 8.2784063566271797 4.6586566750665277 -0.54463904215088732 0 -0.83867056331134215 0.41933528165567108 0 -0.27231952107544366 1 I I 0 1 0.5 forward I I I I #
face $-1 $127 $128 $43 $-1 $129 forward single #
loop $-1 $130 $131 $55 #
cone-surface $-1 62.145017251919931 12.630175712715747 4.6586566750665277 -0.54463904215088732 0 -0.83867056331134215 0.41933528165567108 0 -0.27231952107544366 1 I I 0 1 0.5 forward I I I I #
face $-1 $132 $133 $44 $-1 $134 reversed single #
loop $-1 $-1 $135 $56 #
plane-surface $-1 -135.99292061678227 -8.9918735682831485 121.81075716156212 0 1 0 -0.50000000669873634 0 0.8660253999169214 forward_v I I I I #
face $-1 $136 $137 $45 $-1 $138 forward single #
loop $-1 $139 $140 $57 #
cone-surface $-1 -63.17730545041816 -3.8376315025991481 5.2020415282857 0.50000000669873634 0 -0.8660253999169214 0.8660253999169214 0 0.50000000669873634 1 I I 0 1 1 forward I I I I #
face $-1 $141 $142 $46 $-1 $143 reversed single #
loop $-1 $-1 $144 $58 #
plane-surface $-1 -135.99292061678227 18.499002553134034 121.81075716156212 0 1 0 -0.50000000669873634 0 0.8660253999169214 forward_v I I I I #
face $-1 $145 $146 $47 $-1 $147 forward single #
loop $-1 $148 $149 $59 #
cone-surface $-1 -63.17730545041816 23.653244618818029 5.2020415282857 0.50000000669873634 0 -0.8660253999169214 0.8660253999169214 0 0.50000000669873634 1 I I 0 1 1 forward I I I I #
face $-1 $150 $151 $36 $-1 $152 reversed single #
loop $-1 $-1 $153 $60 #
plane-surface $-1 0 0 -8.7932481980692998 0 0 1 1 0 0 forward_v I I I I #
coedge $-1 $154 $155 $156 $157 forward $61 $-1 #
face $-1 $158 $159 $37 $-1 $160 reversed single #
loop $-1 $-1 $161 $63 #
plane-surface $-1 -65.38333767857732 -22.11364933551571 0 0 -1 0 0 0 -1 forward_v I I I I #
coedge $-1 $162 $163 $164 $165 forward $64 $-1 #
face $-1 $166 $167 $38 $-1 $168 reversed single #
loop $-1 $-1 $169 $66 #
plane-surface $-1 -46.056798723117936 -17.036585086745717 75.748433891151649 0.54463904215088732 0 0.83867056331134215 0.83867056331134215 0 -0.54463904215088732 forward_v I I I I #
coedge $-1 $170 $171 $172 $173 reversed $67 $-1 #
face $-1 $-1 $174 $39 $-1 $175 forward single #
loop $-1 $176 $177 $69 #
cone-surface $-1 61.633072841438434 -19.212469764790001 3.8703314286298891 -0.54463904215088732 0 -0.83867056331134215 0.20966764082783554 0 -0.13615976053772183 1 I I -0.70710678118654746 0.70710678118654746 0.25 forward I I I I #
loop $-1 $-1 $178 $51 #
coedge $-1 $112 $112 $179 $180 reversed $70 $-1 #
face $-1 $-1 $181 $40 $-1 $182 forward single #
loop $-1 $183 $184 $72 #
cone-surface $-1 61.633072841438434 -14.860700408701437 3.8703314286298891 -0.54463904215088732 0 -0.83867056331134215 0.20966764082783554 0 -0.13615976053772183 1 I I -0.70710678118654746 0.70710678118654746 0.25 forward I I I I #
loop $-1 $-1 $185 $52 #
coedge $-1 $117 $117 $186 $187 reversed $73 $-1 #
face $-1 $188 $189 $41 $-1 $190 reversed single #
loop $-1 $-1 $191 $75 #
plane-surface $-1 -46.056798723117936 10.454291034671463 75.748433891151649 0.54463904215088732 0 0.83867056331134215 0.83867056331134215 0 -0.54463904215088732 forward_v I I I I #
coedge $-1 $192 $193 $194 $195 reversed $76 $-1 #
face $-1 $-1 $196 $42 $-1 $197 forward single #
loop $-1 $198 $199 $78 #
cone-surface $-1 61.633072841438434 8.2784063566271797 3.8703314286298891 -0.54463904215088732 0 -0.83867056331134215 0.20966764082783554 0 -0.13615976053772183 1 I I -0.70710678118654746 0.70710678118654746 0.25 forward I I I I #
loop $-1 $-1 $200 $54 #
coedge $-1 $126 $126 $201 $202 reversed $79 $-1 #
face $-1 $-1 $203 $43 $-1 $204 forward single #
loop $-1 $205 $206 $81 #
cone-surface $-1 61.633072841438434 12.630175712715747 3.8703314286298891 -0.54463904215088732 0 -0.83867056331134215 0.20966764082783554 0 -0.13615976053772183 1 I I -0.70710678118654746 0.70710678118654746 0.25 forward I I I I #
loop $-1 $-1 $207 $55 #
coedge $-1 $131 $131 $208 $209 reversed $82 $-1 #
face $-1 $210 $211 $44 $-1 $212 reversed single #
loop $-1 $-1 $213 $84 #
plane-surface $-1 -67.99645985290077 -3.8376315025991445 4.0374344874755366 -0.50000000669873634 0 0.8660253999169214 0.8660253999169214 0 0.50000000669873634 forward_v I I I I #
coedge $-1 $214 $215 $216 $217 reversed $85 $-1 #
face $-1 $-1 $218 $45 $-1 $219 forward single #
loop $-1 $220 $221 $87 #
cone-surface $-1 -62.226806460053943 -3.8376315025991481 3.5557290138405246 0.50000000669873634 0 -0.8660253999169214 0.4330126999584607 0 0.25000000334936817 1 I I -0.70710678118654746 0.70710678118654746 0.5 forward I I I I #
loop $-1 $-1 $222 $57 #
coedge $-1 $140 $140 $223 $224 reversed $88 $-1 #
face $-1 $225 $226 $46 $-1 $227 reversed single #
loop $-1 $-1 $228 $90 #
plane-surface $-1 -67.99645985290077 23.653244618818036 4.0374344874755366 -0.50000000669873634 0 0.8660253999169214 0.8660253999169214 0 0.50000000669873634 forward_v I I I I #
coedge $-1 $229 $230 $231 $232 reversed $91 $-1 #
face $-1 $-1 $233 $47 $-1 $234 forward single #
loop $-1 $235 $236 $93 #
cone-surface $-1 -62.226806460053943 23.653244618818029 3.5557290138405246 0.50000000669873634 0 -0.8660253999169214 0.4330126999584607 0 0.25000000334936817 1 I I -0.70710678118654746 0.70710678118654746 0.5 forward I I I I #
loop $-1 $-1 $237 $59 #
coedge $-1 $149 $149 $238 $239 reversed $94 $-1 #
face $-1 $240 $241 $36 $-1 $242 reversed single #
loop $-1 $-1 $243 $96 #
plane-surface $-1 0 -32.868102907318651 0 0 1 0 0 0 1 forward_v I I I I #
coedge $-1 $244 $245 $246 $247 forward $97 $-1 #
coedge $-1 $248 $99 $249 $250 forward $61 $-1 #
coedge $-1 $99 $248 $251 $252 forward $61 $-1 #
coedge $-1 $253 $254 $99 $157 reversed $255 $-1 #
edge $-1 $256 -32.868102907318651 $257 32.868102907318651 $156 $258 forward 7 unknown #
face $-1 $259 $260 $37 $-1 $261 forward single #
loop $-1 $-1 $262 $100 #
plane-surface $-1 -63.270215504253855 -27.49087612141718 0 -1 0 0 0 0 1 forward_v I I I I #
coedge $-1 $263 $264 $265 $266 forward $101 $-1 #
coedge $-1 $267 $103 $268 $269 reversed $64 $-1 #
coedge $-1 $103 $267 $270 $271 reversed $64 $-1 #
coedge $-1 $264 $263 $103 $165 reversed $101 $-1 #
edge $-1 $272 -8.7932481980692998 $273 8.7932481980692998 $164 $274 forward 7 unknown #
face $-1 $275 $276 $38 $-1 $277 reversed single #
loop $-1 $-1 $278 $104 #
plane-surface $-1 28.010254804752364 -22.11364933551571 189.80169246717037 0 1 0 0.54463904215088732 0 0.83867056331134215 forward_v I I I I #
coedge $-1 $279 $280 $281 $282 reversed $105 $-1 #
coedge $-1 $171 $107 $283 $284 reversed $67 $-1 #
coedge $-1 $107 $170 $279 $285 reversed $67 $-1 #
coedge $-1 $281 $286 $107 $173 forward $287 $-1 #
edge $-1 $288 -53.991332450524602 $289 -43.040016548450488 $172 $290 forward 7 unknown #
loop $-1 $-1 $179 $108 #
plane-surface $-1 -46.056798723117936 -17.036585086745717 75.748433891151649 0.54463904215088732 0 0.83867056331134215 0.83867056331134215 0 -0.54463904215088732 forward_v I I I I #
loop $-1 $-1 $291 $69 #
coedge $-1 $177 $177 $178 $292 reversed $109 $-1 #
coedge $-1 $178 $178 $177 $292 forward $111 $-1 #
coedge $-1 $179 $179 $112 $180 forward $174 $-1 #
edge $-1 $293 0 $293 6.2831853071796004 $179 $294 forward 7 unknown #
loop $-1 $-1 $186 $113 #
plane-surface $-1 -46.056798723117936 -17.036585086745717 75.748433891151649 0.54463904215088732 0 0.83867056331134215 0.83867056331134215 0 -0.54463904215088732 forward_v I I I I #
loop $-1 $-1 $295 $72 #
coedge $-1 $184 $184 $185 $296 reversed $114 $-1 #
coedge $-1 $185 $185 $184 $296 forward $116 $-1 #
coedge $-1 $186 $186 $117 $187 forward $181 $-1 #
edge $-1 $297 0 $297 6.2831853071796004 $186 $298 forward 7 unknown #
face $-1 $299 $300 $41 $-1 $301 reversed single #
loop $-1 $-1 $302 $118 #
plane-surface $-1 28.010254804752364 5.3772267859014686 189.80169246717037 0 1 0 0.54463904215088732 0 0.83867056331134215 forward_v I I I I #
coedge $-1 $303 $304 $305 $306 reversed $119 $-1 #
coedge $-1 $193 $121 $307 $308 reversed $76 $-1 #
coedge $-1 $121 $192 $303 $309 reversed $76 $-1 #
coedge $-1 $305 $310 $121 $195 forward $311 $-1 #
edge $-1 $312 -53.991332450524602 $313 -43.040016548450488 $194 $314 forward 7 unknown #
loop $-1 $-1 $201 $122 #
plane-surface $-1 -46.056798723117936 10.454291034671463 75.748433891151649 0.54463904215088732 0 0.83867056331134215 0.83867056331134215 0 -0.54463904215088732 forward_v I I I I #
loop $-1 $-1 $315 $78 #
coedge $-1 $199 $199 $200 $316 reversed $123 $-1 #
coedge $-1 $200 $200 $199 $316 forward $125 $-1 #
coedge $-1 $201 $201 $126 $202 forward $196 $-1 #
edge $-1 $317 0 $317 6.2831853071796004 $201 $318 forward 7 unknown #
loop $-1 $-1 $208 $127 #
plane-surface $-1 -46.056798723117936 10.454291034671463 75.748433891151649 0.54463904215088732 0 0.83867056331134215 0.83867056331134215 0 -0.54463904215088732 forward_v I I I I #
loop $-1 $-1 $319 $81 #
coedge $-1 $206 $206 $207 $320 reversed $128 $-1 #
coedge $-1 $207 $207 $206 $320 forward $130 $-1 #
coedge $-1 $208 $208 $131 $209 forward $203 $-1 #
edge $-1 $321 0 $321 6.2831853071796004 $208 $322 forward 7 unknown #
face $-1 $323 $324 $44 $-1 $325 reversed single #
loop $-1 $-1 $326 $132 #
plane-surface $-1 -135.99292061678227 1.3166105630848595 121.81075716156212 0 -1 0 0.50000000669873634 0 -0.8660253999169214 forward_v I I I I #
coedge $-1 $327 $328 $329 $330 reversed $133 $-1 #
coedge $-1 $215 $135 $331 $332 reversed $85 $-1 #
coedge $-1 $135 $214 $327 $333 reversed $85 $-1 #
coedge $-1 $329 $334 $135 $217 forward $335 $-1 #
edge $-1 $336 4.5549035121439374e-007 $337 8.2373112864258999 $216 $338 forward 7 unknown #
loop $-1 $-1 $223 $136 #
plane-surface $-1 -67.99645985290077 -3.8376315025991445 4.0374344874755366 -0.50000000669873634 0 0.8660253999169214 0.8660253999169214 0 0.50000000669873634 forward_v I I I I #
loop $-1 $-1 $339 $87 #
coedge $-1 $221 $221 $222 $340 reversed $137 $-1 #
coedge $-1 $222 $222 $221 $340 forward $139 $-1 #
coedge $-1 $223 $223 $140 $224 forward $218 $-1 #
edge $-1 $341 0 $341 6.2831853071796004 $223 $342 forward 7 unknown #
face $-1 $343 $344 $46 $-1 $345 forward single #
loop $-1 $-1 $346 $141 #
plane-surface $-1 -135.99292061678227 28.807486684502038 121.81075716156212 0 -1 0 0.50000000669873634 0 -0.8660253999169214 forward_v I I I I #
coedge $-1 $347 $348 $349 $350 reversed $142 $-1 #
coedge $-1 $230 $144 $351 $352 reversed $91 $-1 #
coedge $-1 $144 $229 $347 $353 reversed $91 $-1 #
coedge $-1 $349 $354 $144 $232 forward $344 $-1 #
edge $-1 $355 4.5549035121439374e-007 $356 8.2373112864258999 $231 $357 forward 7 unknown #
loop $-1 $-1 $238 $145 #
plane-surface $-1 -67.99645985290077 23.653244618818036 4.0374344874755366 -0.50000000669873634 0 0.8660253999169214 0.8660253999169214 0 0.50000000669873634 forward_v I I I I #
loop $-1 $-1 $358 $93 #
coedge $-1 $236 $236 $237 $359 reversed $146 $-1 #
coedge $-1 $237 $237 $236 $359 forward $148 $-1 #
coedge $-1 $238 $238 $149 $239 forward $233 $-1 #
edge $-1 $360 0 $360 6.2831853071796004 $238 $361 forward 7 unknown #
face $-1 $362 $363 $36 $-1 $364 reversed single #
loop $-1 $-1 $365 $150 #
plane-surface $-1 -67.996459852900784 0 0 1 0 0 0 0 -1 forward_v I I I I #
coedge $-1 $366 $251 $367 $368 forward $151 $-1 #
coedge $-1 $369 $153 $366 $370 forward $97 $-1 #
coedge $-1 $153 $369 $371 $372 forward $97 $-1 #
coedge $-1 $254 $253 $153 $247 reversed $255 $-1 #
edge $-1 $373 -32.868102907318651 $374 32.868102907318651 $246 $375 forward 7 unknown #
coedge $-1 $155 $154 $376 $377 forward $61 $-1 #
coedge $-1 $378 $379 $154 $250 reversed $363 $-1 #
edge $-1 $257 -67.996459852900784 $380 67.996459852900784 $249 $381 forward 7 unknown #
coedge $-1 $243 $382 $155 $252 reversed $151 $-1 #
edge $-1 $383 -67.996459852900784 $256 67.996459852900784 $251 $384 forward 7 unknown #
coedge $-1 $246 $156 $382 $385 forward $255 $-1 #
coedge $-1 $156 $246 $378 $386 reversed $255 $-1 #
loop $-1 $-1 $253 $362 #
vertex $-1 $157 $387 #
vertex $-1 $157 $388 #
straight-curve $-1 67.996459852900784 0 8.7932481980692998 0 1 0 I I #
face $-1 $389 $390 $37 $-1 $391 reversed single #
loop $-1 $-1 $392 $158 #
plane-surface $-1 0 0 8.7932481980692998 0 0 1 1 0 0 forward_v I I I I #
coedge $-1 $393 $394 $395 $396 reversed $159 $-1 #
coedge $-1 $164 $161 $397 $398 reversed $101 $-1 #
coedge $-1 $161 $164 $399 $400 reversed $101 $-1 #
coedge $-1 $394 $393 $161 $266 reversed $159 $-1 #
edge $-1 $401 -8.7932481980692998 $402 8.7932481980692998 $265 $403 forward 7 unknown #
coedge $-1 $163 $162 $404 $405 reversed $64 $-1 #
coedge $-1 $397 $406 $162 $269 forward $390 $-1 #
edge $-1 $407 -19.122664846610061 $273 -8.3682112748071198 $268 $408 forward 7 unknown #
coedge $-1 $409 $399 $163 $271 forward $260 $-1 #
edge $-1 $272 8.3682112748071198 $410 19.122664846610061 $270 $411 forward 7 unknown #
vertex $-1 $271 $412 #
vertex $-1 $269 $413 #
straight-curve $-1 -67.496459852900784 -22.11364933551571 0 0 0 -1 I I #
face $-1 $-1 $287 $38 $-1 $414 forward single #
loop $-1 $-1 $415 $166 #
plane-surface $-1 67.996459852900784 0 0 -1 0 0 0 0 1 forward_v I I I I #
coedge $-1 $416 $417 $418 $419 reversed $167 $-1 #
coedge $-1 $420 $169 $171 $285 forward $105 $-1 #
coedge $-1 $169 $420 $416 $421 forward $105 $-1 #
coedge $-1 $418 $172 $169 $282 forward $287 $-1 #
edge $-1 $289 3.4412282946028636 $422 13.595356792142852 $281 $423 forward 7 unknown #
coedge $-1 $424 $425 $170 $284 forward $276 $-1 #
edge $-1 $426 -93.219465870303836 $288 -86.107598035515878 $283 $427 forward 7 unknown #
edge $-1 $289 122.93497254376599 $426 135.99291970580157 $171 $428 forward 7 unknown #
coedge $-1 $172 $418 $424 $429 forward $287 $-1 #
loop $-1 $-1 $418 $275 #
vertex $-1 $284 $430 #
vertex $-1 $173 $431 #
straight-curve $-1 14.005127402376182 -11.959520837975722 8.7932481980693069 -1 0 0 I I #
coedge $-1 $291 $291 $-1 $432 reversed $176 $-1 #
edge $-1 $433 0 $433 6.2831853071796004 $177 $434 forward 7 unknown #
vertex $-1 $180 $435 #
ellipse-curve $-1 62.520801901863713 -19.212469764790001 5.2373142806753386 0.54463904215088732 0 0.83867056331134215 0.41933528165567108 0 -0.27231952107544366 1 I I #
coedge $-1 $295 $295 $-1 $436 reversed $183 $-1 #
edge $-1 $437 0 $437 6.2831853071796004 $184 $438 forward 7 unknown #
vertex $-1 $187 $439 #
ellipse-curve $-1 62.520801901863713 -14.860700408701437 5.2373142806753386 0.54463904215088732 0 0.83867056331134215 0.41933528165567108 0 -0.27231952107544366 1 I I #
face $-1 $-1 $311 $41 $-1 $440 forward single #
loop $-1 $-1 $441 $188 #
plane-surface $-1 67.996459852900784 0 0 -1 0 0 0 0 1 forward_v I I I I #
coedge $-1 $442 $443 $444 $445 reversed $189 $-1 #
coedge $-1 $446 $191 $193 $309 forward $119 $-1 #
coedge $-1 $191 $446 $442 $447 forward $119 $-1 #
coedge $-1 $444 $194 $191 $306 forward $311 $-1 #
edge $-1 $313 -10.304209766105727 $448 -0.15008126856573689 $305 $449 forward 7 unknown #
coedge $-1 $450 $451 $192 $308 forward $300 $-1 #
edge $-1 $452 -93.219465870303836 $312 -86.107598035515878 $307 $453 forward 7 unknown #
edge $-1 $313 122.93497254376599 $452 135.99291970580157 $193 $454 forward 7 unknown #
coedge $-1 $194 $444 $450 $455 forward $311 $-1 #
loop $-1 $-1 $444 $299 #
vertex $-1 $308 $456 #
vertex $-1 $195 $457 #
straight-curve $-1 14.005127402376182 15.531355283441458 8.7932481980693069 -1 0 0 I I #
coedge $-1 $315 $315 $-1 $458 reversed $198 $-1 #
edge $-1 $459 0 $459 6.2831853071796004 $199 $460 forward 7 unknown #
vertex $-1 $202 $461 #
ellipse-curve $-1 62.520801901863713 8.2784063566271797 5.2373142806753386 0.54463904215088732 0 0.83867056331134215 0.41933528165567108 0 -0.27231952107544366 1 I I #
coedge $-1 $319 $319 $-1 $462 reversed $205 $-1 #
edge $-1 $463 0 $463 6.2831853071796004 $206 $464 forward 7 unknown #
vertex $-1 $209 $465 #
ellipse-curve $-1 62.520801901863713 12.630175712715747 5.2373142806753386 0.54463904215088732 0 0.83867056331134215 0.41933528165567108 0 -0.27231952107544366 1 I I #
face $-1 $-1 $335 $44 $-1 $466 forward single #
loop $-1 $-1 $467 $210 #
plane-surface $-1 -67.996459852900784 0 0 1 0 0 0 0 -1 forward_v I I I I #
coedge $-1 $468 $469 $470 $471 reversed $211 $-1 #
coedge $-1 $472 $213 $215 $333 forward $133 $-1 #
coedge $-1 $213 $472 $468 $473 forward $133 $-1 #
coedge $-1 $470 $216 $213 $330 forward $335 $-1 #
edge $-1 $337 -7.0730578169835763 $474 3.2354263143844317 $329 $475 forward 7 unknown #
coedge $-1 $476 $477 $214 $332 forward $324 $-1 #
edge $-1 $478 -56.867944093305532 $336 -52.112130382711761 $331 $479 forward 7 unknown #
edge $-1 $337 -9.5116272937557582 $478 1.6303764080091705e-014 $215 $480 forward 7 unknown #
coedge $-1 $216 $470 $476 $481 forward $335 $-1 #
loop $-1 $-1 $470 $323 #
vertex $-1 $332 $482 #
vertex $-1 $217 $483 #
straight-curve $-1 -67.996460308391136 -8.9918735682831485 8.7932481980692998 1 0 0 I I #
coedge $-1 $339 $339 $-1 $484 reversed $220 $-1 #
edge $-1 $485 0 $485 6.2831853071796004 $221 $486 forward 7 unknown #
vertex $-1 $224 $487 #
ellipse-curve $-1 -63.877804437433007 -3.8376315025991481 6.4153413427724146 -0.50000000669873634 0 0.8660253999169214 0.8660253999169214 0 0.50000000669873634 1 I I #
face $-1 $-1 $488 $46 $-1 $489 reversed single #
loop $-1 $-1 $231 $225 #
plane-surface $-1 0 0 8.7932481980692998 0 0 1 1 0 0 forward_v I I I I #
coedge $-1 $490 $491 $492 $493 reversed $226 $-1 #
coedge $-1 $494 $228 $230 $353 forward $142 $-1 #
coedge $-1 $228 $494 $490 $495 forward $142 $-1 #
coedge $-1 $492 $231 $228 $350 forward $344 $-1 #
edge $-1 $356 6.6723802437250157 $496 16.98086437509302 $349 $497 forward 7 unknown #
coedge $-1 $498 $499 $229 $352 forward $488 $-1 #
edge $-1 $500 -56.867944093305532 $355 -52.112130382711761 $351 $501 forward 7 unknown #
edge $-1 $356 -9.5116272937557582 $500 1.6303764080091705e-014 $230 $502 forward 7 unknown #
coedge $-1 $231 $492 $498 $503 forward $344 $-1 #
vertex $-1 $352 $504 #
vertex $-1 $232 $505 #
straight-curve $-1 -67.996460308391136 18.499002553134034 8.7932481980692998 1 0 0 I I #
coedge $-1 $358 $358 $-1 $506 reversed $235 $-1 #
edge $-1 $507 0 $507 6.2831853071796004 $236 $508 forward 7 unknown #
vertex $-1 $239 $509 #
ellipse-curve $-1 -63.877804437433007 23.653244618818029 6.4153413427724146 -0.50000000669873634 0 0.8660253999169214 0.8660253999169214 0 0.50000000669873634 1 I I #
face $-1 $-1 $255 $36 $-1 $510 reversed single #
loop $-1 $-1 $378 $240 #
plane-surface $-1 0 32.868102907318651 0 0 -1 0 0 0 -1 forward_v I I I I #
coedge $-1 $511 $376 $379 $512 forward $241 $-1 #
coedge $-1 $382 $243 $244 $370 reversed $151 $-1 #
coedge $-1 $376 $511 $243 $368 reversed $241 $-1 #
edge $-1 $383 -8.7932481980692998 $513 8.7932481980692998 $367 $514 forward 7 unknown #
coedge $-1 $245 $244 $511 $515 forward $97 $-1 #
edge $-1 $374 -67.996459852900784 $513 67.996459852900784 $366 $516 forward 7 unknown #
coedge $-1 $379 $378 $245 $372 reversed $363 $-1 #
edge $-1 $517 -67.996459852900784 $373 67.996459852900784 $371 $518 forward 7 unknown #
vertex $-1 $247 $519 #
vertex $-1 $385 $520 #
straight-curve $-1 67.996459852900784 0 -8.7932481980692998 0 -1 0 I I #
coedge $-1 $365 $367 $248 $377 reversed $241 $-1 #
edge $-1 $380 -32.868102907318651 $383 32.868102907318651 $376 $521 forward 7 unknown #
coedge $-1 $371 $249 $254 $386 forward $363 $-1 #
coedge $-1 $249 $371 $365 $512 reversed $363 $-1 #
vertex $-1 $250 $522 #
straight-curve $-1 0 32.868102907318651 8.7932481980692998 -1 0 0 I I #
coedge $-1 $251 $366 $253 $385 reversed $151 $-1 #
vertex $-1 $377 $523 #
straight-curve $-1 0 -32.868102907318651 8.7932481980692998 1 0 0 I I #
edge $-1 $256 -8.7932481980692998 $374 8.7932481980692998 $253 $524 forward 7 unknown #
edge $-1 $257 -8.7932481980692998 $373 8.7932481980692998 $254 $525 forward 7 unknown #
point $-1 67.996459852900784 -32.868102907318651 8.7932481980692998 #
point $-1 67.996459852900784 32.868102907318651 8.7932481980692998 #
face $-1 $-1 $526 $37 $-1 $527 reversed single #
loop $-1 $-1 $528 $259 #
plane-surface $-1 0 0 -8.7932481980692998 0 0 1 1 0 0 forward_v I I I I #
coedge $-1 $399 $409 $394 $529 forward $260 $-1 #
coedge $-1 $265 $262 $528 $530 reversed $159 $-1 #
coedge $-1 $262 $265 $392 $529 reversed $159 $-1 #
coedge $-1 $531 $532 $262 $396 forward $526 $-1 #
edge $-1 $533 -8.7932481980692998 $534 8.7932481980692998 $395 $535 forward 7 unknown #
coedge $-1 $528 $268 $263 $398 forward $390 $-1 #
edge $-1 $273 -34.804791013612125 $402 -30.578546664965195 $397 $536 forward 7 unknown #
coedge $-1 $270 $392 $264 $400 forward $260 $-1 #
edge $-1 $401 30.578546664965195 $272 34.804791013612125 $399 $537 forward 7 unknown #
vertex $-1 $400 $538 #
vertex $-1 $398 $539 #
straight-curve $-1 -63.270215504253855 -22.11364933551571 0 0 0 -1 I I #
coedge $-1 $532 $531 $267 $405 forward $526 $-1 #
edge $-1 $410 -8.7932481980692998 $407 8.7932481980692998 $404 $540 forward 7 unknown #
coedge $-1 $268 $528 $532 $541 forward $390 $-1 #
vertex $-1 $269 $542 #
straight-curve $-1 -67.496459852900784 -13.74543806070859 -8.7932481980692998 0 1 0 I I #
coedge $-1 $392 $270 $531 $543 forward $260 $-1 #
vertex $-1 $543 $544 #
straight-curve $-1 -67.496459852900784 -13.74543806070859 8.7932481980692998 0 -1 0 I I #
point $-1 -67.496459852900784 -22.11364933551571 8.7932481980692998 #
point $-1 -67.496459852900784 -22.11364933551571 -8.7932481980692998 #
plane-surface $-1 0 0 8.7932481980692998 0 0 1 1 0 0 forward_v I I I I #
coedge $-1 $425 $424 $417 $545 forward $276 $-1 #
coedge $-1 $417 $278 $280 $421 reversed $167 $-1 #
coedge $-1 $278 $416 $415 $545 reversed $167 $-1 #
coedge $-1 $286 $281 $278 $419 forward $287 $-1 #
edge $-1 $422 43.040016548450488 $546 53.991332450524602 $418 $547 forward 7 unknown #
coedge $-1 $280 $279 $425 $548 reversed $105 $-1 #
edge $-1 $549 -135.99291970580157 $422 -122.93497254376599 $416 $550 forward 7 unknown #
vertex $-1 $282 $551 #
straight-curve $-1 57.045143950826692 -8.5182925433728585 8.7932481980692927 0 -1 0 I I #
coedge $-1 $415 $283 $286 $429 reversed $276 $-1 #
coedge $-1 $283 $415 $420 $548 forward $276 $-1 #
vertex $-1 $284 $552 #
straight-curve $-1 67.996459852900784 -11.959520837975722 94.900846233585185 0 0 1 I I #
straight-curve $-1 -46.056798723117936 -11.959520837975722 75.748433891151649 0.83867056331134215 0 -0.54463904215088732 I I #
edge $-1 $546 -22.11364933551571 $288 -11.959520837975722 $424 $553 forward 7 unknown #
point $-1 67.996459852900784 -11.959520837975722 8.7932481980692998 #
point $-1 57.04514395082667 -11.959520837975722 8.7932481980693069 #
edge $-1 $554 1 $554 0 $291 $-1 forward 7 unknown #
vertex $-1 $292 $555 #
ellipse-curve $-1 61.769232601976157 -19.212469764790001 4.0799990694577248 0.54463904215088732 0 0.83867056331134215 0.41933528165567108 0 -0.27231952107544366 1 I I #
point $-1 62.940137183519383 -19.212469764790001 4.9649947595998869 #
edge $-1 $556 1 $556 0 $295 $-1 forward 7 unknown #
vertex $-1 $296 $557 #
ellipse-curve $-1 61.769232601976157 -14.860700408701437 4.0799990694577248 0.54463904215088732 0 0.83867056331134215 0.41933528165567108 0 -0.27231952107544366 1 I I #
point $-1 62.940137183519383 -14.860700408701437 4.9649947595998869 #
plane-surface $-1 0 0 8.7932481980692998 0 0 1 1 0 0 forward_v I I I I #
coedge $-1 $451 $450 $443 $558 forward $300 $-1 #
coedge $-1 $443 $302 $304 $447 reversed $189 $-1 #
coedge $-1 $302 $442 $441 $558 reversed $189 $-1 #
coedge $-1 $310 $305 $302 $445 forward $311 $-1 #
edge $-1 $448 43.040016548450488 $559 53.991332450524602 $444 $560 forward 7 unknown #
coedge $-1 $304 $303 $451 $561 reversed $119 $-1 #
edge $-1 $562 -135.99291970580157 $448 -122.93497254376599 $442 $563 forward 7 unknown #
vertex $-1 $306 $564 #
straight-curve $-1 57.045143950826692 5.2271455173357317 8.7932481980692927 0 -1 0 I I #
coedge $-1 $441 $307 $310 $455 reversed $300 $-1 #
coedge $-1 $307 $441 $446 $561 forward $300 $-1 #
vertex $-1 $308 $565 #
straight-curve $-1 67.996459852900784 15.531355283441458 94.900846233585185 0 0 1 I I #
straight-curve $-1 -46.056798723117936 15.531355283441458 75.748433891151649 0.83867056331134215 0 -0.54463904215088732 I I #
edge $-1 $559 5.3772267859014686 $312 15.531355283441458 $450 $566 forward 7 unknown #
point $-1 67.996459852900784 15.531355283441458 8.7932481980692998 #
point $-1 57.04514395082667 15.531355283441458 8.7932481980693069 #
edge $-1 $567 1 $567 0 $315 $-1 forward 7 unknown #
vertex $-1 $316 $568 #
ellipse-curve $-1 61.769232601976157 8.2784063566271797 4.0799990694577248 0.54463904215088732 0 0.83867056331134215 0.41933528165567108 0 -0.27231952107544366 1 I I #
point $-1 62.940137183519383 8.2784063566271797 4.9649947595998869 #
edge $-1 $569 1 $569 0 $319 $-1 forward 7 unknown #
vertex $-1 $320 $570 #
ellipse-curve $-1 61.769232601976157 12.630175712715747 4.0799990694577248 0.54463904215088732 0 0.83867056331134215 0.41933528165567108 0 -0.27231952107544366 1 I I #
point $-1 62.940137183519383 12.630175712715747 4.9649947595998869 #
plane-surface $-1 0 0 8.7932481980692998 0 0 1 1 0 0 forward_v I I I I #
coedge $-1 $477 $476 $469 $571 forward $324 $-1 #
coedge $-1 $469 $326 $328 $473 reversed $211 $-1 #
coedge $-1 $326 $468 $467 $571 reversed $211 $-1 #
coedge $-1 $334 $329 $326 $471 forward $335 $-1 #
edge $-1 $474 -8.2373112864258999 $572 -4.5549035121439374e-007 $470 $573 forward 7 unknown #
coedge $-1 $328 $327 $477 $574 reversed $133 $-1 #
edge $-1 $575 -1.6303764080091705e-014 $474 9.5116272937557582 $468 $576 forward 7 unknown #
vertex $-1 $330 $577 #
straight-curve $-1 -59.759149021965236 -1.9188157512995723 8.7932481980692998 0 1 0 I I #
coedge $-1 $467 $331 $334 $481 reversed $324 $-1 #
coedge $-1 $331 $467 $472 $574 forward $324 $-1 #
vertex $-1 $332 $578 #
straight-curve $-1 -67.996459852900784 -8.9918735682831485 60.905378580781061 0 0 1 I I #
straight-curve $-1 -67.99645985290077 -8.9918735682831485 4.0374344874755366 -0.8660253999169214 0 -0.50000000669873634 I I #
edge $-1 $572 -1.3166105630848595 $336 8.9918735682831485 $476 $579 forward 7 unknown #
point $-1 -67.996459852900784 -8.9918735682831485 8.7932481980692998 #
point $-1 -59.759149021965236 -8.9918735682831485 8.7932481980692998 #
edge $-1 $580 1 $580 0 $339 $-1 forward 7 unknown #
vertex $-1 $340 $581 #
ellipse-curve $-1 -62.476806463403314 -3.8376315025991481 3.9887417137989853 -0.50000000669873634 0 0.8660253999169214 0.8660253999169214 0 0.50000000669873634 1 I I #
point $-1 -63.011779037516085 -3.8376315025991481 6.9153413494711504 #
loop $-1 $-1 $351 $343 #
plane-surface $-1 -67.996459852900784 0 0 1 0 0 0 0 -1 forward_v I I I I #
coedge $-1 $491 $346 $348 $495 reversed $226 $-1 #
coedge $-1 $346 $490 $582 $583 reversed $226 $-1 #
coedge $-1 $354 $349 $346 $493 forward $344 $-1 #
edge $-1 $496 -8.2373112864258999 $584 -4.5549035121439374e-007 $492 $585 forward 7 unknown #
coedge $-1 $348 $347 $499 $586 reversed $142 $-1 #
edge $-1 $587 -1.6303764080091705e-014 $496 9.5116272937557582 $490 $588 forward 7 unknown #
vertex $-1 $350 $589 #
straight-curve $-1 -59.759149021965236 11.826622309409018 8.7932481980692998 0 1 0 I I #
coedge $-1 $582 $351 $354 $503 reversed $488 $-1 #
coedge $-1 $351 $582 $494 $586 forward $488 $-1 #
vertex $-1 $352 $590 #
straight-curve $-1 -67.996459852900784 18.499002553134034 60.905378580781061 0 0 1 I I #
straight-curve $-1 -67.99645985290077 18.499002553134034 4.0374344874755366 -0.8660253999169214 0 -0.50000000669873634 I I #
edge $-1 $584 -28.807486684502038 $355 -18.499002553134034 $498 $591 forward 7 unknown #
point $-1 -67.996459852900784 18.499002553134034 8.7932481980692998 #
point $-1 -59.759149021965236 18.499002553134034 8.7932481980692998 #
edge $-1 $592 1 $592 0 $358 $-1 forward 7 unknown #
vertex $-1 $359 $593 #
ellipse-curve $-1 -62.476806463403314 23.653244618818029 3.9887417137989853 -0.50000000669873634 0 0.8660253999169214 0.8660253999169214 0 0.50000000669873634 1 I I #
point $-1 -63.011779037516085 23.653244618818029 6.9153413494711504 #
plane-surface $-1 67.996459852900784 0 0 -1 0 0 0 0 1 forward_v I I I I #
coedge $-1 $367 $365 $369 $515 reversed $241 $-1 #
edge $-1 $380 -8.7932481980692998 $517 8.7932481980692998 $379 $594 forward 7 unknown #
vertex $-1 $515 $595 #
straight-curve $-1 -67.996459852900784 -32.868102907318651 0 0 0 -1 I I #
edge $-1 $513 -32.868102907318651 $517 32.868102907318651 $511 $596 forward 7 unknown #
straight-curve $-1 0 -32.868102907318651 -8.7932481980692998 -1 0 0 I I #
vertex $-1 $372 $597 #
straight-curve $-1 0 32.868102907318651 -8.7932481980692998 1 0 0 I I #
point $-1 67.996459852900784 32.868102907318651 -8.7932481980692998 #
point $-1 67.996459852900784 -32.868102907318651 -8.7932481980692998 #
straight-curve $-1 -67.996459852900784 0 8.7932481980692998 0 -1 0 I I #
point $-1 -67.996459852900784 32.868102907318651 8.7932481980692998 #
point $-1 -67.996459852900784 -32.868102907318651 8.7932481980692998 #
straight-curve $-1 67.996459852900784 -32.868102907318651 0 0 0 -1 I I #
straight-curve $-1 67.996459852900784 32.868102907318651 0 0 0 -1 I I #
loop $-1 $-1 $395 $389 #
plane-surface $-1 0 -32.868102907318651 0 0 1 0 0 0 1 forward_v I I I I #
coedge $-1 $406 $397 $393 $530 forward $390 $-1 #
edge $-1 $534 -19.122664846610061 $401 -8.3682112748071198 $392 $598 forward 7 unknown #
edge $-1 $402 8.3682112748071198 $533 19.122664846610061 $528 $599 forward 7 unknown #
coedge $-1 $404 $395 $409 $543 reversed $526 $-1 #
coedge $-1 $395 $404 $406 $541 reversed $526 $-1 #
vertex $-1 $541 $600 #
vertex $-1 $396 $601 #
straight-curve $-1 -63.270215504253855 -32.868102907318651 0 0 0 1 I I #
straight-curve $-1 -32.69166883928866 -22.11364933551571 -8.7932481980692998 1 0 0 I I #
straight-curve $-1 -32.69166883928866 -22.11364933551571 8.7932481980692998 -1 0 0 I I #
point $-1 -63.270215504253855 -22.11364933551571 8.7932481980692998 #
point $-1 -63.270215504253855 -22.11364933551571 -8.7932481980692998 #
straight-curve $-1 -67.496459852900784 -32.868102907318651 0 0 0 -1 I I #
edge $-1 $533 63.270215504253855 $407 67.496459852900784 $532 $602 forward 7 unknown #
point $-1 -67.496459852900784 -32.868102907318651 -8.7932481980692998 #
edge $-1 $410 -67.496459852900784 $534 -63.270215504253855 $531 $603 forward 7 unknown #
point $-1 -67.496459852900784 -32.868102907318651 8.7932481980692998 #
edge $-1 $546 86.107598035515878 $549 93.219465870303836 $415 $604 forward 7 unknown #
vertex $-1 $429 $605 #
straight-curve $-1 14.005127402376182 -22.11364933551571 8.7932481980693069 1 0 0 I I #
edge $-1 $549 -13.595356792142852 $426 -3.4412282946028636 $425 $606 forward 7 unknown #
vertex $-1 $548 $607 #
straight-curve $-1 -46.056798723117936 -22.11364933551571 75.748433891151649 -0.83867056331134215 0 0.54463904215088732 I I #
point $-1 57.04514395082667 -22.11364933551571 8.7932481980693069 #
point $-1 67.996459852900784 -11.959520837975722 1.6813803632813489 #
straight-curve $-1 67.996459852900784 0 8.7932481980692998 0 1 0 I I #
vertex $-1 $432 $608 #
point $-1 62.188567883631826 -19.212469764790001 3.8076795483822812 #
vertex $-1 $436 $609 #
point $-1 62.188567883631826 -14.860700408701437 3.8076795483822812 #
edge $-1 $559 86.107598035515878 $562 93.219465870303836 $441 $610 forward 7 unknown #
vertex $-1 $455 $611 #
straight-curve $-1 14.005127402376182 5.3772267859014686 8.7932481980693069 1 0 0 I I #
edge $-1 $562 0.15008126856573689 $452 10.304209766105727 $451 $612 forward 7 unknown #
vertex $-1 $561 $613 #
straight-curve $-1 -46.056798723117936 5.3772267859014686 75.748433891151649 -0.83867056331134215 0 0.54463904215088732 I I #
point $-1 57.04514395082667 5.3772267859014686 8.7932481980693069 #
point $-1 67.996459852900784 15.531355283441458 1.6813803632813489 #
straight-curve $-1 67.996459852900784 0 8.7932481980692998 0 1 0 I I #
vertex $-1 $458 $614 #
point $-1 62.188567883631826 8.2784063566271797 3.8076795483822812 #
vertex $-1 $462 $615 #
point $-1 62.188567883631826 12.630175712715747 3.8076795483822812 #
edge $-1 $572 52.112130382711761 $575 56.867944093305532 $467 $616 forward 7 unknown #
vertex $-1 $481 $617 #
straight-curve $-1 -67.996460308391136 1.3166105630848595 8.7932481980692998 -1 0 0 I I #
edge $-1 $575 -3.2354263143844317 $478 7.0730578169835763 $477 $618 forward 7 unknown #
vertex $-1 $574 $619 #
straight-curve $-1 -67.99645985290077 1.3166105630848595 4.0374344874755366 0.8660253999169214 0 0.50000000669873634 I I #
point $-1 -59.759149021965236 1.3166105630848595 8.7932481980692998 #
point $-1 -67.996459852900784 -8.9918735682831485 4.0374344874755286 #
straight-curve $-1 -67.996459852900784 0 8.7932481980692998 0 -1 0 I I #
vertex $-1 $484 $620 #
point $-1 -61.610781063486392 -3.8376315025991481 4.488741720497722 #
coedge $-1 $499 $498 $491 $583 forward $488 $-1 #
edge $-1 $584 52.112130382711761 $587 56.867944093305532 $582 $621 forward 7 unknown #
vertex $-1 $503 $622 #
straight-curve $-1 -67.996460308391136 28.807486684502038 8.7932481980692998 -1 0 0 I I #
edge $-1 $587 -16.98086437509302 $500 -6.6723802437250157 $499 $623 forward 7 unknown #
vertex $-1 $586 $624 #
straight-curve $-1 -67.99645985290077 28.807486684502038 4.0374344874755366 0.8660253999169214 0 0.50000000669873634 I I #
point $-1 -59.759149021965236 28.807486684502038 8.7932481980692998 #
point $-1 -67.996459852900784 18.499002553134034 4.0374344874755286 #
straight-curve $-1 -67.996459852900784 0 8.7932481980692998 0 -1 0 I I #
vertex $-1 $506 $625 #
point $-1 -61.610781063486392 23.653244618818029 4.488741720497722 #
straight-curve $-1 -67.996459852900784 32.868102907318651 0 0 0 -1 I I #
point $-1 -67.996459852900784 -32.868102907318651 -8.7932481980692998 #
straight-curve $-1 -67.996459852900784 0 -8.7932481980692998 0 1 0 I I #
point $-1 -67.996459852900784 32.868102907318651 -8.7932481980692998 #
straight-curve $-1 -63.270215504253855 -13.74543806070859 8.7932481980692998 0 1 0 I I #
straight-curve $-1 -63.270215504253855 -13.74543806070859 -8.7932481980692998 0 -1 0 I I #
point $-1 -63.270215504253855 -32.868102907318651 -8.7932481980692998 #
point $-1 -63.270215504253855 -32.868102907318651 8.7932481980692998 #
straight-curve $-1 0 -32.868102907318651 -8.7932481980692998 -1 0 0 I I #
straight-curve $-1 0 -32.868102907318651 8.7932481980692998 1 0 0 I I #
straight-curve $-1 67.996459852900784 -22.11364933551571 94.900846233585185 0 0 -1 I I #
point $-1 67.996459852900784 -22.11364933551571 8.7932481980692998 #
straight-curve $-1 67.996459852900784 -8.5182925433728585 1.681380363281356 0 1 0 I I #
point $-1 67.996459852900784 -22.11364933551571 1.6813803632813489 #
point $-1 61.496913080900711 -19.212469764790001 3.6606637878020534 #
point $-1 61.496913080900711 -14.860700408701437 3.6606637878020534 #
straight-curve $-1 67.996459852900784 5.3772267859014686 94.900846233585185 0 0 -1 I I #
point $-1 67.996459852900784 5.3772267859014686 8.7932481980692998 #
straight-curve $-1 67.996459852900784 5.2271455173357317 1.681380363281356 0 1 0 I I #
point $-1 67.996459852900784 5.3772267859014686 1.6813803632813489 #
point $-1 61.496913080900711 8.2784063566271797 3.6606637878020534 #
point $-1 61.496913080900711 12.630175712715747 3.6606637878020534 #
straight-curve $-1 -67.996459852900784 1.3166105630848595 60.905378580781061 0 0 -1 I I #
point $-1 -67.996459852900784 1.3166105630848595 8.7932481980692998 #
straight-curve $-1 -67.996459852900784 -1.9188157512995723 4.0374344874755339 0 -1 0 I I #
point $-1 -67.996459852900784 1.3166105630848595 4.0374344874755286 #
point $-1 -61.976806456704573 -3.8376315025991481 3.1227163138820639 #
straight-curve $-1 -67.996459852900784 28.807486684502038 60.905378580781061 0 0 -1 I I #
point $-1 -67.996459852900784 28.807486684502038 8.7932481980692998 #
straight-curve $-1 -67.996459852900784 11.826622309409018 4.0374344874755339 0 -1 0 I I #
point $-1 -67.996459852900784 28.807486684502038 4.0374344874755286 #
point $-1 -61.976806456704573 23.653244618818029 3.1227163138820639 #
End-of-ACIS-data 