500 0 8 0           
7 Unknown 11 ACIS 5.0 NT 24 Thu Mar 25 17:04:41 1999 
-1 9.9999999999999995e-007 1e-010 
body $-1 $8 $-1 $9 #
body $-1 $10 $-1 $11 #
body $-1 $12 $-1 $13 #
body $-1 $14 $-1 $15 #
body $-1 $16 $-1 $17 #
body $-1 $18 $-1 $19 #
body $-1 $20 $-1 $21 #
body $-1 $22 $-1 $23 #
lump $-1 $-1 $24 $0 #
transform $-1 1 0 0 0 1 0 0 0 1 65.470748008667258 26.990324358369065 5.5337289978319415 1 rotate no_reflect no_shear #
lump $-1 $-1 $25 $1 #
transform $-1 1 0 0 0 1 0 0 0 1 65.470748008667258 26.990324358369065 5.5337289978319415 1 rotate no_reflect no_shear #
lump $-1 $-1 $26 $2 #
transform $-1 1 0 0 0 1 0 0 0 1 65.470748008667258 26.990324358369065 5.5337289978319415 1 rotate no_reflect no_shear #
lump $-1 $-1 $27 $3 #
transform $-1 1 0 0 0 1 0 0 0 1 65.470748008667258 26.990324358369065 5.5337289978319415 1 rotate no_reflect no_shear #
lump $-1 $-1 $28 $4 #
transform $-1 1 0 0 0 1 0 0 0 1 65.470748008667258 26.990324358369065 5.5337289978319415 1 rotate no_reflect no_shear #
lump $-1 $-1 $29 $5 #
transform $-1 1 0 0 0 1 0 0 0 1 65.470748008667258 26.990324358369065 5.5337289978319415 1 rotate no_reflect no_shear #
lump $-1 $-1 $30 $6 #
transform $-1 1 0 0 0 1 0 0 0 1 65.470748008667258 26.990324358369065 5.5337289978319415 1 rotate no_reflect no_shear #
lump $-1 $-1 $31 $7 #
transform $-1 1 0 0 0 1 0 0 0 1 65.470748008667258 26.990324358369065 5.5337289978319415 1 rotate no_reflect no_shear #
shell $-1 $-1 $-1 $32 $-1 $8 #
shell $-1 $-1 $-1 $33 $-1 $10 #
shell $-1 $-1 $-1 $34 $-1 $12 #
shell $-1 $-1 $-1 $35 $-1 $14 #
shell $-1 $-1 $-1 $36 $-1 $16 #
shell $-1 $-1 $-1 $37 $-1 $18 #
shell $-1 $-1 $-1 $38 $-1 $20 #
shell $-1 $-1 $-1 $39 $-1 $22 #
face $-1 $40 $41 $24 $-1 $42 forward single #
face $-1 $43 $44 $25 $-1 $45 reversed single #
face $-1 $46 $47 $26 $-1 $48 reversed single #
face $-1 $49 $50 $27 $-1 $51 reversed single #
face $-1 $52 $53 $28 $-1 $54 forward single #
face $-1 $55 $56 $29 $-1 $57 forward single #
face $-1 $58 $59 $30 $-1 $60 reversed single #
face $-1 $61 $62 $31 $-1 $63 forward single #
face $-1 $64 $65 $24 $-1 $66 reversed single #
loop $-1 $-1 $67 $32 #
plane-surface $-1 0 0 5.5337289978319415 0 0 1 1 0 0 forward_v I I I I #
face $-1 $68 $69 $25 $-1 $70 reversed single #
loop $-1 $-1 $71 $33 #
plane-surface $-1 -57.403290013003371 -25.16324636577211 0 1 0 0 0 0 -1 forward_v I I I I #
face $-1 $72 $73 $26 $-1 $74 reversed single #
loop $-1 $-1 $75 $34 #
plane-surface $-1 -55.903290013003371 23.336168373175155 0 0 1 0 0 0 1 forward_v I I I I #
face $-1 $76 $77 $27 $-1 $78 reversed single #
loop $-1 $-1 $79 $35 #
plane-surface $-1 81.610184550865554 8.5389999212765204 186.39325734094592 0 -1 0 -0.7660444514056185 0 -0.64278759981090561 forward_v I I I I #
face $-1 $80 $81 $28 $-1 $82 forward single #
loop $-1 $83 $84 $36 #
cone-surface $-1 63.571033067219297 3.1924111139967515 3.4048111577526092 -0.7660444514056185 0 -0.64278759981090561 0.3213937999054528 0 -0.38302222570280925 1 I I 0 1 0.5 forward I I I I #
face $-1 $85 $86 $29 $-1 $87 forward single #
loop $-1 $88 $89 $37 #
cone-surface $-1 63.571033067219297 6.4003643983646157 3.4048111577526092 -0.7660444514056185 0 -0.64278759981090561 0.3213937999054528 0 -0.38302222570280925 1 I I 0 1 0.5 forward I I I I #
face $-1 $90 $91 $30 $-1 $92 reversed single #
loop $-1 $-1 $93 $38 #
plane-surface $-1 -138.692304303041 -2.15155498185886 110.33676995733782 0 1 0 -0.55919291073839883 0 0.82903756765294845 forward_v I I I I #
face $-1 $94 $95 $31 $-1 $96 forward single #
loop $-1 $97 $98 $39 #
cone-surface $-1 -61.795450683985656 0.87665011681544414 2.3325269044929939 0.55919291073839883 0 -0.82903756765294845 0.82903756765294845 0 0.55919291073839883 1 I I 0 1 1 forward I I I I #
face $-1 $99 $100 $24 $-1 $101 reversed single #
loop $-1 $-1 $102 $40 #
plane-surface $-1 0 0 -5.5337289978319415 0 0 1 1 0 0 forward_v I I I I #
coedge $-1 $103 $104 $105 $106 forward $41 $-1 #
face $-1 $107 $108 $25 $-1 $109 reversed single #
loop $-1 $-1 $110 $43 #
plane-surface $-1 -55.903290013003371 -23.336168373175155 0 0 -1 0 0 0 -1 forward_v I I I I #
coedge $-1 $111 $112 $113 $114 forward $44 $-1 #
face $-1 $115 $116 $26 $-1 $117 reversed single #
loop $-1 $-1 $118 $46 #
plane-surface $-1 -57.403290013003371 25.16324636577211 0 1 0 0 0 0 -1 forward_v I I I I #
coedge $-1 $119 $120 $121 $122 forward $47 $-1 #
face $-1 $123 $124 $27 $-1 $125 reversed single #
loop $-1 $-1 $126 $49 #
plane-surface $-1 -18.69682193196445 4.7963877561806818 102.22568740031421 0.7660444514056185 0 0.64278759981090561 0.64278759981090561 0 -0.7660444514056185 forward_v I I I I #
coedge $-1 $127 $128 $129 $130 reversed $50 $-1 #
face $-1 $-1 $131 $28 $-1 $132 forward single #
loop $-1 $133 $134 $52 #
cone-surface $-1 62.996499728665086 3.1924111139967515 2.9227204578944299 -0.7660444514056185 0 -0.64278759981090561 0.1606968999527264 0 -0.19151111285140462 1 I I -0.70710678118654746 0.70710678118654746 0.25 forward I I I I #
loop $-1 $-1 $135 $36 #
coedge $-1 $84 $84 $136 $137 reversed $53 $-1 #
face $-1 $-1 $138 $29 $-1 $139 forward single #
loop $-1 $140 $141 $55 #
cone-surface $-1 62.996499728665086 6.4003643983646157 2.9227204578944299 -0.7660444514056185 0 -0.64278759981090561 0.1606968999527264 0 -0.19151111285140462 1 I I -0.70710678118654746 0.70710678118654746 0.25 forward I I I I #
loop $-1 $-1 $142 $37 #
coedge $-1 $89 $89 $143 $144 reversed $56 $-1 #
face $-1 $145 $146 $30 $-1 $147 reversed single #
loop $-1 $-1 $148 $58 #
plane-surface $-1 -65.470748008667258 0.87665011681544769 1.7813505942885826 -0.55919291073839883 0 0.82903756765294845 0.82903756765294845 0 0.55919291073839883 forward_v I I I I #
coedge $-1 $149 $150 $151 $152 reversed $59 $-1 #
face $-1 $-1 $153 $31 $-1 $154 forward single #
loop $-1 $155 $156 $61 #
cone-surface $-1 -60.62212173142813 0.87665011681544414 0.59299522909924463 0.55919291073839883 0 -0.82903756765294845 0.41451878382647422 0 0.27959645536919941 1 I I -0.70710678118654746 0.70710678118654746 0.5 forward I I I I #
loop $-1 $-1 $157 $39 #
coedge $-1 $98 $98 $158 $159 reversed $62 $-1 #
face $-1 $160 $161 $24 $-1 $162 reversed single #
loop $-1 $-1 $163 $64 #
plane-surface $-1 0 -26.990324358369065 0 0 1 0 0 0 1 forward_v I I I I #
coedge $-1 $164 $165 $166 $167 forward $65 $-1 #
coedge $-1 $168 $67 $169 $170 forward $41 $-1 #
coedge $-1 $67 $168 $171 $172 forward $41 $-1 #
coedge $-1 $173 $174 $67 $106 reversed $175 $-1 #
edge $-1 $176 -26.990324358369065 $177 26.990324358369065 $105 $178 forward 7 unknown #
face $-1 $179 $180 $25 $-1 $181 forward single #
loop $-1 $-1 $182 $68 #
plane-surface $-1 -54.403290013003371 -25.16324636577211 0 -1 0 0 0 0 1 forward_v I I I I #
coedge $-1 $183 $184 $185 $186 forward $69 $-1 #
coedge $-1 $187 $71 $188 $189 reversed $44 $-1 #
coedge $-1 $71 $187 $190 $191 reversed $44 $-1 #
coedge $-1 $184 $183 $71 $114 reversed $69 $-1 #
edge $-1 $192 -5.5337289978319415 $193 5.5337289978319415 $113 $194 forward 7 unknown #
face $-1 $195 $196 $26 $-1 $197 reversed single #
loop $-1 $-1 $198 $72 #
plane-surface $-1 -54.403290013003371 25.16324636577211 0 -1 0 0 0 0 1 forward_v I I I I #
coedge $-1 $199 $200 $201 $202 reversed $73 $-1 #
coedge $-1 $203 $75 $204 $205 reversed $47 $-1 #
coedge $-1 $75 $203 $206 $207 reversed $47 $-1 #
coedge $-1 $200 $199 $75 $122 reversed $73 $-1 #
edge $-1 $208 -5.5337289978319415 $209 5.5337289978319415 $121 $210 forward 7 unknown #
face $-1 $211 $212 $27 $-1 $213 forward single #
loop $-1 $-1 $214 $76 #
plane-surface $-1 81.610184550865554 1.0537755910848432 186.39325734094592 0 1 0 0.7660444514056185 0 0.64278759981090561 forward_v I I I I #
coedge $-1 $215 $216 $217 $218 reversed $77 $-1 #
coedge $-1 $128 $79 $219 $220 reversed $50 $-1 #
coedge $-1 $79 $127 $215 $221 reversed $50 $-1 #
coedge $-1 $217 $222 $79 $130 forward $212 $-1 #
edge $-1 $223 -24.66565573323448 $224 -21.632270301744235 $129 $225 forward 7 unknown #
loop $-1 $-1 $136 $80 #
plane-surface $-1 -18.69682193196445 4.7963877561806818 102.22568740031421 0.7660444514056185 0 0.64278759981090561 0.64278759981090561 0 -0.7660444514056185 forward_v I I I I #
loop $-1 $-1 $226 $52 #
coedge $-1 $134 $134 $135 $227 reversed $81 $-1 #
coedge $-1 $135 $135 $134 $227 forward $83 $-1 #
coedge $-1 $136 $136 $84 $137 forward $131 $-1 #
edge $-1 $228 0 $228 6.2831853071796004 $136 $229 forward 7 unknown #
loop $-1 $-1 $143 $85 #
plane-surface $-1 -18.69682193196445 4.7963877561806818 102.22568740031421 0.7660444514056185 0 0.64278759981090561 0.64278759981090561 0 -0.7660444514056185 forward_v I I I I #
loop $-1 $-1 $230 $55 #
coedge $-1 $141 $141 $142 $231 reversed $86 $-1 #
coedge $-1 $142 $142 $141 $231 forward $88 $-1 #
coedge $-1 $143 $143 $89 $144 forward $138 $-1 #
edge $-1 $232 0 $232 6.2831853071796004 $143 $233 forward 7 unknown #
face $-1 $234 $235 $30 $-1 $236 reversed single #
loop $-1 $-1 $237 $90 #
plane-surface $-1 -138.692304303041 3.9048552154897553 110.33676995733782 0 -1 0 0.55919291073839883 0 -0.82903756765294845 forward_v I I I I #
coedge $-1 $238 $239 $240 $241 reversed $91 $-1 #
coedge $-1 $150 $93 $242 $243 reversed $59 $-1 #
coedge $-1 $93 $149 $238 $244 reversed $59 $-1 #
coedge $-1 $240 $245 $93 $152 forward $246 $-1 #
edge $-1 $247 3.8754041428532418 $248 9.4385337978398027 $151 $249 forward 7 unknown #
loop $-1 $-1 $158 $94 #
plane-surface $-1 -65.470748008667258 0.87665011681544769 1.7813505942885826 -0.55919291073839883 0 0.82903756765294845 0.82903756765294845 0 0.55919291073839883 forward_v I I I I #
loop $-1 $-1 $250 $61 #
coedge $-1 $156 $156 $157 $251 reversed $95 $-1 #
coedge $-1 $157 $157 $156 $251 forward $97 $-1 #
coedge $-1 $158 $158 $98 $159 forward $153 $-1 #
edge $-1 $252 0 $252 6.2831853071796004 $158 $253 forward 7 unknown #
face $-1 $254 $255 $24 $-1 $256 reversed single #
loop $-1 $-1 $257 $99 #
plane-surface $-1 -65.470748008667258 0 0 1 0 0 0 0 -1 forward_v I I I I #
coedge $-1 $258 $171 $259 $260 forward $100 $-1 #
coedge $-1 $261 $102 $258 $262 forward $65 $-1 #
coedge $-1 $102 $261 $263 $264 forward $65 $-1 #
coedge $-1 $174 $173 $102 $167 reversed $175 $-1 #
edge $-1 $265 -26.990324358369065 $266 26.990324358369065 $166 $267 forward 7 unknown #
coedge $-1 $104 $103 $268 $269 forward $41 $-1 #
coedge $-1 $270 $271 $103 $170 reversed $255 $-1 #
edge $-1 $177 -65.470748008667258 $272 65.470748008667258 $169 $273 forward 7 unknown #
coedge $-1 $163 $274 $104 $172 reversed $100 $-1 #
edge $-1 $275 -65.470748008667258 $176 65.470748008667258 $171 $276 forward 7 unknown #
coedge $-1 $166 $105 $274 $277 forward $175 $-1 #
coedge $-1 $105 $166 $270 $278 reversed $175 $-1 #
loop $-1 $-1 $173 $254 #
vertex $-1 $106 $279 #
vertex $-1 $106 $280 #
straight-curve $-1 65.470748008667258 0 5.5337289978319415 0 1 0 I I #
face $-1 $281 $282 $25 $-1 $283 reversed single #
loop $-1 $-1 $284 $107 #
plane-surface $-1 0 0 5.5337289978319415 0 0 1 1 0 0 forward_v I I I I #
coedge $-1 $285 $286 $287 $288 reversed $108 $-1 #
coedge $-1 $113 $110 $289 $290 reversed $69 $-1 #
coedge $-1 $110 $113 $291 $292 reversed $69 $-1 #
coedge $-1 $286 $285 $110 $186 reversed $108 $-1 #
edge $-1 $293 -5.5337289978319415 $294 5.5337289978319415 $185 $295 forward 7 unknown #
coedge $-1 $112 $111 $296 $297 reversed $44 $-1 #
coedge $-1 $289 $298 $111 $189 forward $282 $-1 #
edge $-1 $299 -14.40870117548301 $193 -10.7545451902891 $188 $300 forward 7 unknown #
coedge $-1 $301 $291 $112 $191 forward $180 $-1 #
edge $-1 $192 10.7545451902891 $302 14.40870117548301 $190 $303 forward 7 unknown #
vertex $-1 $191 $304 #
vertex $-1 $189 $305 #
straight-curve $-1 -57.403290013003371 -23.336168373175155 0 0 0 -1 I I #
face $-1 $306 $307 $26 $-1 $308 forward single #
loop $-1 $-1 $309 $115 #
plane-surface $-1 0 0 -5.5337289978319415 0 0 1 1 0 0 forward_v I I I I #
coedge $-1 $310 $311 $203 $312 forward $116 $-1 #
coedge $-1 $121 $118 $313 $314 reversed $73 $-1 #
coedge $-1 $118 $121 $315 $316 reversed $73 $-1 #
coedge $-1 $317 $318 $118 $202 forward $319 $-1 #
edge $-1 $320 -5.5337289978319415 $321 5.5337289978319415 $201 $322 forward 7 unknown #
coedge $-1 $120 $119 $198 $312 reversed $47 $-1 #
coedge $-1 $313 $309 $119 $205 forward $196 $-1 #
edge $-1 $323 26.451645006501685 $209 29.451645006501685 $204 $324 forward 7 unknown #
coedge $-1 $325 $315 $120 $207 forward $307 $-1 #
edge $-1 $208 -29.451645006501685 $326 -26.451645006501685 $206 $327 forward 7 unknown #
vertex $-1 $207 $328 #
vertex $-1 $205 $329 #
straight-curve $-1 -57.403290013003371 23.336168373175155 0 0 0 -1 I I #
face $-1 $-1 $330 $27 $-1 $331 reversed single #
loop $-1 $-1 $129 $123 #
plane-surface $-1 0 0 5.5337289978319415 0 0 1 1 0 0 forward_v I I I I #
coedge $-1 $332 $333 $334 $335 reversed $124 $-1 #
coedge $-1 $336 $126 $128 $221 forward $77 $-1 #
coedge $-1 $126 $336 $332 $337 forward $77 $-1 #
coedge $-1 $334 $129 $126 $218 forward $212 $-1 #
edge $-1 $224 -6.1408060431861795 $338 1.3444182870054977 $217 $339 forward 7 unknown #
coedge $-1 $340 $341 $127 $220 forward $330 $-1 #
edge $-1 $342 -91.277947752988737 $223 -87.662899672641018 $219 $343 forward 7 unknown #
edge $-1 $224 126.22238595301066 $342 130.94149601733457 $128 $344 forward 7 unknown #
coedge $-1 $129 $334 $340 $345 forward $212 $-1 #
vertex $-1 $130 $346 #
vertex $-1 $130 $347 #
straight-curve $-1 40.805092275432777 8.5389999212765204 5.5337289978319433 -1 0 0 I I #
coedge $-1 $226 $226 $-1 $348 reversed $133 $-1 #
edge $-1 $349 0 $349 6.2831853071796004 $134 $350 forward 7 unknown #
vertex $-1 $137 $351 #
ellipse-curve $-1 63.954055292922135 3.1924111139967515 3.7262049576580849 0.7660444514056185 0 0.64278759981090561 0.3213937999054528 0 -0.38302222570280925 1 I I #
coedge $-1 $230 $230 $-1 $352 reversed $140 $-1 #
edge $-1 $353 0 $353 6.2831853071796004 $141 $354 forward 7 unknown #
vertex $-1 $144 $355 #
ellipse-curve $-1 63.954055292922135 6.4003643983646157 3.7262049576580849 0.7660444514056185 0 0.64278759981090561 0.3213937999054528 0 -0.38302222570280925 1 I I #
face $-1 $-1 $246 $30 $-1 $356 forward single #
loop $-1 $-1 $357 $145 #
plane-surface $-1 -65.470748008667258 0 0 1 0 0 0 0 -1 forward_v I I I I #
coedge $-1 $358 $359 $360 $361 reversed $146 $-1 #
coedge $-1 $362 $148 $150 $244 forward $91 $-1 #
coedge $-1 $148 $362 $358 $363 forward $91 $-1 #
coedge $-1 $360 $151 $148 $241 forward $246 $-1 #
edge $-1 $248 -2.5898800402665838 $364 3.4665301570820315 $240 $365 forward 7 unknown #
coedge $-1 $366 $367 $149 $243 forward $235 $-1 #
edge $-1 $368 -53.387034384380328 $247 -49.634655980836968 $242 $369 forward 7 unknown #
edge $-1 $248 -6.7103468793773615 $368 0 $150 $370 forward 7 unknown #
coedge $-1 $151 $360 $366 $371 forward $246 $-1 #
loop $-1 $-1 $360 $234 #
vertex $-1 $243 $372 #
vertex $-1 $152 $373 #
straight-curve $-1 -69.346152151520499 -2.15155498185886 5.5337289978319433 1 0 0 I I #
coedge $-1 $250 $250 $-1 $374 reversed $155 $-1 #
edge $-1 $375 0 $375 6.2831853071796004 $156 $376 forward 7 unknown #
vertex $-1 $159 $377 #
ellipse-curve $-1 -62.689183181173981 0.87665011681544414 3.6575397960602607 -0.55919291073839883 0 0.82903756765294845 0.82903756765294845 0 0.55919291073839883 1 I I #
face $-1 $-1 $175 $24 $-1 $378 reversed single #
loop $-1 $-1 $270 $160 #
plane-surface $-1 0 26.990324358369065 0 0 -1 0 0 0 -1 forward_v I I I I #
coedge $-1 $379 $268 $271 $380 forward $161 $-1 #
coedge $-1 $274 $163 $164 $262 reversed $100 $-1 #
coedge $-1 $268 $379 $163 $260 reversed $161 $-1 #
edge $-1 $275 -5.5337289978319415 $381 5.5337289978319415 $259 $382 forward 7 unknown #
coedge $-1 $165 $164 $379 $383 forward $65 $-1 #
edge $-1 $266 -65.470748008667258 $381 65.470748008667258 $258 $384 forward 7 unknown #
coedge $-1 $271 $270 $165 $264 reversed $255 $-1 #
edge $-1 $385 -65.470748008667258 $265 65.470748008667258 $263 $386 forward 7 unknown #
vertex $-1 $167 $387 #
vertex $-1 $277 $388 #
straight-curve $-1 65.470748008667258 0 -5.5337289978319415 0 -1 0 I I #
coedge $-1 $257 $259 $168 $269 reversed $161 $-1 #
edge $-1 $272 -26.990324358369065 $275 26.990324358369065 $268 $389 forward 7 unknown #
coedge $-1 $263 $169 $174 $278 forward $255 $-1 #
coedge $-1 $169 $263 $257 $380 reversed $255 $-1 #
vertex $-1 $170 $390 #
straight-curve $-1 0 26.990324358369065 5.5337289978319415 -1 0 0 I I #
coedge $-1 $171 $258 $173 $277 reversed $100 $-1 #
vertex $-1 $269 $391 #
straight-curve $-1 0 -26.990324358369065 5.5337289978319415 1 0 0 I I #
edge $-1 $176 -5.5337289978319415 $266 5.5337289978319415 $173 $392 forward 7 unknown #
edge $-1 $177 -5.5337289978319415 $265 5.5337289978319415 $174 $393 forward 7 unknown #
point $-1 65.470748008667258 -26.990324358369065 5.5337289978319415 #
point $-1 65.470748008667258 26.990324358369065 5.5337289978319415 #
face $-1 $-1 $394 $25 $-1 $395 reversed single #
loop $-1 $-1 $396 $179 #
plane-surface $-1 0 0 -5.5337289978319415 0 0 1 1 0 0 forward_v I I I I #
coedge $-1 $291 $301 $286 $397 forward $180 $-1 #
coedge $-1 $185 $182 $396 $398 reversed $108 $-1 #
coedge $-1 $182 $185 $284 $397 reversed $108 $-1 #
coedge $-1 $399 $400 $182 $288 forward $394 $-1 #
edge $-1 $401 -5.5337289978319415 $402 5.5337289978319415 $287 $403 forward 7 unknown #
coedge $-1 $396 $188 $183 $290 forward $282 $-1 #
edge $-1 $193 -29.451645006501685 $294 -26.451645006501685 $289 $404 forward 7 unknown #
coedge $-1 $190 $284 $184 $292 forward $180 $-1 #
edge $-1 $293 26.451645006501685 $192 29.451645006501685 $291 $405 forward 7 unknown #
vertex $-1 $292 $406 #
vertex $-1 $290 $407 #
straight-curve $-1 -54.403290013003371 -23.336168373175155 0 0 0 -1 I I #
coedge $-1 $400 $399 $187 $297 forward $394 $-1 #
edge $-1 $302 -5.5337289978319415 $299 5.5337289978319415 $296 $408 forward 7 unknown #
coedge $-1 $188 $396 $400 $409 forward $282 $-1 #
vertex $-1 $189 $410 #
straight-curve $-1 -57.403290013003371 -12.581623182886055 -5.5337289978319415 0 1 0 I I #
coedge $-1 $284 $190 $399 $411 forward $180 $-1 #
vertex $-1 $411 $412 #
straight-curve $-1 -57.403290013003371 -12.581623182886055 5.5337289978319415 0 -1 0 I I #
point $-1 -57.403290013003371 -23.336168373175155 5.5337289978319415 #
point $-1 -57.403290013003371 -23.336168373175155 -5.5337289978319415 #
face $-1 $-1 $319 $26 $-1 $413 reversed single #
loop $-1 $-1 $325 $195 #
plane-surface $-1 0 0 5.5337289978319415 0 0 1 1 0 0 forward_v I I I I #
coedge $-1 $204 $414 $310 $415 forward $196 $-1 #
coedge $-1 $416 $198 $309 $415 reversed $116 $-1 #
coedge $-1 $198 $416 $325 $417 reversed $116 $-1 #
edge $-1 $326 -5.5337289978319415 $323 5.5337289978319415 $198 $418 forward 7 unknown #
coedge $-1 $414 $204 $199 $314 forward $196 $-1 #
edge $-1 $209 10.7545451902891 $320 14.40870117548301 $313 $419 forward 7 unknown #
coedge $-1 $206 $420 $200 $316 forward $307 $-1 #
edge $-1 $321 -14.40870117548301 $208 -10.7545451902891 $315 $421 forward 7 unknown #
coedge $-1 $422 $201 $420 $423 reversed $319 $-1 #
coedge $-1 $201 $422 $414 $424 reversed $319 $-1 #
loop $-1 $-1 $422 $306 #
vertex $-1 $424 $425 #
vertex $-1 $202 $426 #
straight-curve $-1 -57.403290013003371 26.990324358369065 0 0 0 1 I I #
vertex $-1 $205 $427 #
straight-curve $-1 -27.951645006501685 23.336168373175155 -5.5337289978319415 -1 0 0 I I #
coedge $-1 $420 $206 $311 $417 forward $307 $-1 #
vertex $-1 $207 $428 #
straight-curve $-1 -27.951645006501685 23.336168373175155 5.5337289978319415 1 0 0 I I #
point $-1 -57.403290013003371 23.336168373175155 5.5337289978319415 #
point $-1 -57.403290013003371 23.336168373175155 -5.5337289978319415 #
loop $-1 $-1 $219 $211 #
plane-surface $-1 65.470748008667258 0 0 -1 0 0 0 0 1 forward_v I I I I #
coedge $-1 $333 $214 $216 $337 reversed $124 $-1 #
coedge $-1 $214 $332 $429 $430 reversed $124 $-1 #
coedge $-1 $222 $217 $214 $335 forward $212 $-1 #
edge $-1 $338 21.632270301744235 $431 24.66565573323448 $334 $432 forward 7 unknown #
coedge $-1 $216 $215 $341 $433 reversed $77 $-1 #
edge $-1 $434 -130.94149601733457 $338 -126.22238595301066 $332 $435 forward 7 unknown #
vertex $-1 $218 $436 #
straight-curve $-1 62.437362577177026 2.3981938780903409 5.5337289978319362 0 -1 0 I I #
coedge $-1 $429 $219 $222 $345 reversed $330 $-1 #
coedge $-1 $219 $429 $336 $433 forward $330 $-1 #
vertex $-1 $220 $437 #
straight-curve $-1 65.470748008667258 8.5389999212765204 93.196628670472961 0 0 1 I I #
straight-curve $-1 -18.69682193196445 8.5389999212765204 102.22568740031421 0.64278759981090561 0 -0.7660444514056185 I I #
edge $-1 $431 1.0537755910848432 $223 8.5389999212765204 $340 $438 forward 7 unknown #
point $-1 65.470748008667258 8.5389999212765204 5.5337289978319415 #
point $-1 62.437362577177012 8.5389999212765204 5.5337289978319433 #
edge $-1 $439 1 $439 0 $226 $-1 forward 7 unknown #
vertex $-1 $227 $440 #
ellipse-curve $-1 63.188010841516487 3.1924111139967515 3.0834173578471562 0.7660444514056185 0 0.64278759981090561 0.3213937999054528 0 -0.38302222570280925 1 I I #
point $-1 64.275449092827557 3.1924111139967515 3.3431827319552525 #
edge $-1 $441 1 $441 0 $230 $-1 forward 7 unknown #
vertex $-1 $231 $442 #
ellipse-curve $-1 63.188010841516487 6.4003643983646157 3.0834173578471562 0.7660444514056185 0 0.64278759981090561 0.3213937999054528 0 -0.38302222570280925 1 I I #
point $-1 64.275449092827557 6.4003643983646157 3.3431827319552525 #
plane-surface $-1 0 0 5.5337289978319415 0 0 1 1 0 0 forward_v I I I I #
coedge $-1 $367 $366 $359 $443 forward $235 $-1 #
coedge $-1 $359 $237 $239 $363 reversed $146 $-1 #
coedge $-1 $237 $358 $357 $443 reversed $146 $-1 #
coedge $-1 $245 $240 $237 $361 forward $246 $-1 #
edge $-1 $364 -9.4385337978398027 $444 -3.8754041428532418 $360 $445 forward 7 unknown #
coedge $-1 $239 $238 $367 $446 reversed $91 $-1 #
edge $-1 $447 0 $364 6.7103468793773615 $358 $448 forward 7 unknown #
vertex $-1 $241 $449 #
straight-curve $-1 -59.907618353680689 0.43832505840772384 5.5337289978319415 0 1 0 I I #
coedge $-1 $357 $242 $245 $371 reversed $235 $-1 #
coedge $-1 $242 $357 $362 $446 forward $235 $-1 #
vertex $-1 $243 $450 #
straight-curve $-1 -65.470748008667258 -2.15155498185886 55.168384978668911 0 0 1 I I #
straight-curve $-1 -65.470748008667258 -2.15155498185886 1.7813505942885826 -0.82903756765294845 0 -0.55919291073839883 I I #
edge $-1 $444 -3.9048552154897553 $247 2.15155498185886 $366 $451 forward 7 unknown #
point $-1 -65.470748008667258 -2.15155498185886 5.5337289978319415 #
point $-1 -59.907618353680697 -2.15155498185886 5.5337289978319415 #
edge $-1 $452 1 $452 0 $250 $-1 forward 7 unknown #
vertex $-1 $251 $453 #
ellipse-curve $-1 -60.901718186797332 0.87665011681544414 1.0075140129257187 -0.55919291073839883 0 0.82903756765294845 0.82903756765294845 0 0.55919291073839883 1 I I #
point $-1 -61.860145613521034 0.87665011681544414 4.216732706798668 #
plane-surface $-1 65.470748008667258 0 0 -1 0 0 0 0 1 forward_v I I I I #
coedge $-1 $259 $257 $261 $383 reversed $161 $-1 #
edge $-1 $272 -5.5337289978319415 $385 5.5337289978319415 $271 $454 forward 7 unknown #
vertex $-1 $383 $455 #
straight-curve $-1 -65.470748008667258 -26.990324358369065 0 0 0 -1 I I #
edge $-1 $381 -26.990324358369065 $385 26.990324358369065 $379 $456 forward 7 unknown #
straight-curve $-1 0 -26.990324358369065 -5.5337289978319415 -1 0 0 I I #
vertex $-1 $264 $457 #
straight-curve $-1 0 26.990324358369065 -5.5337289978319415 1 0 0 I I #
point $-1 65.470748008667258 26.990324358369065 -5.5337289978319415 #
point $-1 65.470748008667258 -26.990324358369065 -5.5337289978319415 #
straight-curve $-1 -65.470748008667258 0 5.5337289978319415 0 -1 0 I I #
point $-1 -65.470748008667258 26.990324358369065 5.5337289978319415 #
point $-1 -65.470748008667258 -26.990324358369065 5.5337289978319415 #
straight-curve $-1 65.470748008667258 -26.990324358369065 0 0 0 -1 I I #
straight-curve $-1 65.470748008667258 26.990324358369065 0 0 0 -1 I I #
loop $-1 $-1 $287 $281 #
plane-surface $-1 0 -26.990324358369065 0 0 1 0 0 0 1 forward_v I I I I #
coedge $-1 $298 $289 $285 $398 forward $282 $-1 #
edge $-1 $402 -14.40870117548301 $293 -10.7545451902891 $284 $458 forward 7 unknown #
edge $-1 $294 10.7545451902891 $401 14.40870117548301 $396 $459 forward 7 unknown #
coedge $-1 $296 $287 $301 $411 reversed $394 $-1 #
coedge $-1 $287 $296 $298 $409 reversed $394 $-1 #
vertex $-1 $409 $460 #
vertex $-1 $288 $461 #
straight-curve $-1 -54.403290013003371 -26.990324358369065 0 0 0 1 I I #
straight-curve $-1 -27.951645006501685 -23.336168373175155 -5.5337289978319415 1 0 0 I I #
straight-curve $-1 -27.951645006501685 -23.336168373175155 5.5337289978319415 -1 0 0 I I #
point $-1 -54.403290013003371 -23.336168373175155 5.5337289978319415 #
point $-1 -54.403290013003371 -23.336168373175155 -5.5337289978319415 #
straight-curve $-1 -57.403290013003371 -26.990324358369065 0 0 0 -1 I I #
edge $-1 $401 54.403290013003371 $299 57.403290013003371 $400 $462 forward 7 unknown #
point $-1 -57.403290013003371 -26.990324358369065 -5.5337289978319415 #
edge $-1 $302 -57.403290013003371 $402 -54.403290013003371 $399 $463 forward 7 unknown #
point $-1 -57.403290013003371 -26.990324358369065 5.5337289978319415 #
plane-surface $-1 0 26.990324358369065 0 0 -1 0 0 0 -1 forward_v I I I I #
coedge $-1 $309 $313 $318 $424 forward $196 $-1 #
edge $-1 $464 -14.40870117548301 $323 -10.7545451902891 $309 $465 forward 7 unknown #
coedge $-1 $311 $310 $422 $466 reversed $116 $-1 #
edge $-1 $326 10.7545451902891 $467 14.40870117548301 $325 $468 forward 7 unknown #
straight-curve $-1 -54.403290013003371 23.336168373175155 0 0 0 -1 I I #
straight-curve $-1 -57.403290013003371 12.581623182886055 -5.5337289978319415 0 1 0 I I #
coedge $-1 $315 $325 $317 $423 forward $307 $-1 #
straight-curve $-1 -57.403290013003371 12.581623182886055 5.5337289978319415 0 -1 0 I I #
coedge $-1 $318 $317 $416 $466 forward $319 $-1 #
edge $-1 $467 54.403290013003371 $321 57.403290013003371 $317 $469 forward 7 unknown #
edge $-1 $320 -57.403290013003371 $464 -54.403290013003371 $318 $470 forward 7 unknown #
point $-1 -57.403290013003371 26.990324358369065 -5.5337289978319415 #
point $-1 -57.403290013003371 26.990324358369065 5.5337289978319415 #
point $-1 -54.403290013003371 23.336168373175155 -5.5337289978319415 #
point $-1 -54.403290013003371 23.336168373175155 5.5337289978319415 #
coedge $-1 $341 $340 $333 $430 forward $330 $-1 #
edge $-1 $431 87.662899672641018 $434 91.277947752988737 $429 $471 forward 7 unknown #
vertex $-1 $345 $472 #
straight-curve $-1 40.805092275432777 1.0537755910848432 5.5337289978319433 1 0 0 I I #
edge $-1 $434 -1.3444182870054977 $342 6.1408060431861795 $341 $473 forward 7 unknown #
vertex $-1 $433 $474 #
straight-curve $-1 -18.69682193196445 1.0537755910848432 102.22568740031421 -0.64278759981090561 0 0.7660444514056185 I I #
point $-1 62.437362577177012 1.0537755910848432 5.5337289978319433 #
point $-1 65.470748008667258 8.5389999212765204 1.9186809174842239 #
straight-curve $-1 65.470748008667258 0 5.5337289978319415 0 1 0 I I #
vertex $-1 $348 $475 #
point $-1 63.509404641421945 3.1924111139967515 2.7003951321443469 #
vertex $-1 $352 $476 #
point $-1 63.509404641421945 6.4003643983646157 2.7003951321443469 #
edge $-1 $444 49.634655980836968 $447 53.387034384380328 $357 $477 forward 7 unknown #
vertex $-1 $371 $478 #
straight-curve $-1 -69.346152151520499 3.9048552154897553 5.5337289978319433 -1 0 0 I I #
edge $-1 $447 -3.4665301570820315 $368 2.5898800402665838 $367 $479 forward 7 unknown #
vertex $-1 $446 $480 #
straight-curve $-1 -65.470748008667258 3.9048552154897553 1.7813505942885826 0.82903756765294845 0 0.55919291073839883 I I #
point $-1 -59.907618353680697 3.9048552154897553 5.5337289978319415 #
point $-1 -65.470748008667258 -2.15155498185886 1.7813505942885826 #
straight-curve $-1 -65.470748008667258 0 5.5337289978319415 0 -1 0 I I #
vertex $-1 $374 $481 #
point $-1 -60.072680619144379 0.87665011681544414 1.5667069236641176 #
straight-curve $-1 -65.470748008667258 26.990324358369065 0 0 0 -1 I I #
point $-1 -65.470748008667258 -26.990324358369065 -5.5337289978319415 #
straight-curve $-1 -65.470748008667258 0 -5.5337289978319415 0 1 0 I I #
point $-1 -65.470748008667258 26.990324358369065 -5.5337289978319415 #
straight-curve $-1 -54.403290013003371 -12.581623182886055 5.5337289978319415 0 1 0 I I #
straight-curve $-1 -54.403290013003371 -12.581623182886055 -5.5337289978319415 0 -1 0 I I #
point $-1 -54.403290013003371 -26.990324358369065 -5.5337289978319415 #
point $-1 -54.403290013003371 -26.990324358369065 5.5337289978319415 #
straight-curve $-1 0 -26.990324358369065 -5.5337289978319415 -1 0 0 I I #
straight-curve $-1 0 -26.990324358369065 5.5337289978319415 1 0 0 I I #
vertex $-1 $466 $482 #
straight-curve $-1 -54.403290013003371 12.581623182886055 -5.5337289978319415 0 -1 0 I I #
edge $-1 $467 -5.5337289978319415 $464 5.5337289978319415 $422 $483 forward 7 unknown #
vertex $-1 $423 $484 #
straight-curve $-1 -54.403290013003371 12.581623182886055 5.5337289978319415 0 1 0 I I #
straight-curve $-1 0 26.990324358369065 5.5337289978319415 -1 0 0 I I #
straight-curve $-1 0 26.990324358369065 -5.5337289978319415 1 0 0 I I #
straight-curve $-1 65.470748008667258 1.0537755910848432 93.196628670472961 0 0 -1 I I #
point $-1 65.470748008667258 1.0537755910848432 5.5337289978319415 #
straight-curve $-1 65.470748008667243 2.3981938780903409 1.9186809174842239 0 1 0 I I #
point $-1 65.470748008667258 1.0537755910848432 1.9186809174842239 #
point $-1 62.804988615813684 3.1924111139967515 2.7620235579417036 #
point $-1 62.804988615813684 6.4003643983646157 2.7620235579417036 #
straight-curve $-1 -65.470748008667258 3.9048552154897553 55.168384978668911 0 0 -1 I I #
point $-1 -65.470748008667258 3.9048552154897553 5.5337289978319415 #
straight-curve $-1 -65.470748008667258 0.43832505840772384 1.7813505942885863 0 -1 0 I I #
point $-1 -65.470748008667258 3.9048552154897553 1.7813505942885826 #
point $-1 -60.342525276058929 0.87665011681544414 0.1784764452727704 #
point $-1 -54.403290013003371 26.990324358369065 -5.5337289978319415 #
straight-curve $-1 -54.403290013003371 26.990324358369065 0 0 0 -1 I I #
point $-1 -54.403290013003371 26.990324358369065 5.5337289978319415 #
End-of-ACIS-data 