500 0 5 0           
7 Unknown 11 ACIS 5.0 NT 24 Fri Mar 26 02:09:49 1999 
-1 9.9999999999999995e-007 1e-010 
body $-1 $5 $-1 $6 #
body $-1 $7 $-1 $8 #
body $-1 $9 $-1 $10 #
body $-1 $11 $-1 $12 #
body $-1 $13 $-1 $14 #
lump $-1 $-1 $15 $0 #
transform $-1 1 0 0 0 1 0 0 0 1 65.686819055757312 43.222756869505567 16.86026525098298 1 rotate no_reflect no_shear #
lump $-1 $-1 $16 $1 #
transform $-1 1 0 0 0 1 0 0 0 1 65.686819055757312 43.222756869505567 16.86026525098298 1 rotate no_reflect no_shear #
lump $-1 $-1 $17 $2 #
transform $-1 1 0 0 0 1 0 0 0 1 65.686819055757312 43.222756869505567 16.86026525098298 1 rotate no_reflect no_shear #
lump $-1 $-1 $18 $3 #
transform $-1 1 0 0 0 1 0 0 0 1 65.686819055757312 43.222756869505567 16.86026525098298 1 rotate no_reflect no_shear #
lump $-1 $-1 $19 $4 #
transform $-1 1 0 0 0 1 0 0 0 1 65.686819055757312 43.222756869505567 16.86026525098298 1 rotate no_reflect no_shear #
shell $-1 $-1 $-1 $20 $-1 $5 #
shell $-1 $-1 $-1 $21 $-1 $7 #
shell $-1 $-1 $-1 $22 $-1 $9 #
shell $-1 $-1 $-1 $23 $-1 $11 #
shell $-1 $-1 $-1 $24 $-1 $13 #
face $-1 $25 $26 $15 $-1 $27 forward single #
face $-1 $28 $29 $16 $-1 $30 forward single #
face $-1 $31 $32 $17 $-1 $33 forward single #
face $-1 $34 $35 $18 $-1 $36 reversed single #
face $-1 $37 $38 $19 $-1 $39 forward single #
face $-1 $40 $41 $15 $-1 $42 reversed single #
loop $-1 $-1 $43 $20 #
plane-surface $-1 0 0 16.86026525098298 0 0 1 1 0 0 forward_v I I I I #
face $-1 $44 $45 $16 $-1 $46 forward single #
loop $-1 $-1 $47 $21 #
plane-surface $-1 0 -43.222756869505567 0 0 1 0 0 0 1 forward_v I I I I #
face $-1 $48 $49 $17 $-1 $50 reversed single #
loop $-1 $-1 $51 $22 #
plane-surface $-1 0 43.222756869505567 0 0 -1 0 0 0 -1 forward_v I I I I #
face $-1 $52 $53 $18 $-1 $54 reversed single #
loop $-1 $-1 $55 $23 #
plane-surface $-1 72.170812086371043 28.911305643874687 192.86176609624346 0 -1 0 -0.73135370988377701 0 -0.68199835119979291 forward_v I I I I #
face $-1 $56 $57 $19 $-1 $58 forward single #
loop $-1 $59 $60 $24 #
cone-surface $-1 59.960693943204873 22.171595989127773 10.889635856788964 -0.73135370988377701 0 -0.68199835119979291 1.7049958779994823 0 -1.8283842747094425 1 I I 0 1 2.5 forward I I I I #
face $-1 $61 $62 $15 $-1 $63 reversed single #
loop $-1 $-1 $64 $25 #
plane-surface $-1 0 0 -16.86026525098298 0 0 1 1 0 0 forward_v I I I I #
coedge $-1 $65 $66 $67 $68 forward $26 $-1 #
face $-1 $69 $70 $16 $-1 $71 reversed single #
loop $-1 $-1 $72 $28 #
plane-surface $-1 0 0 16.86026525098298 0 0 1 1 0 0 forward_v I I I I #
coedge $-1 $73 $74 $75 $76 forward $29 $-1 #
face $-1 $77 $78 $17 $-1 $79 reversed single #
loop $-1 $-1 $80 $31 #
plane-surface $-1 65.686819055757312 0 0 -1 0 0 0 0 1 forward_v I I I I #
coedge $-1 $81 $82 $83 $84 forward $32 $-1 #
face $-1 $85 $86 $18 $-1 $87 reversed single #
loop $-1 $-1 $88 $34 #
plane-surface $-1 -23.909785527413931 22.171595989127773 103.26516151307221 0.73135370988377701 0 0.68199835119979291 0.68199835119979291 0 -0.73135370988377701 forward_v I I I I #
coedge $-1 $89 $90 $91 $92 reversed $35 $-1 #
face $-1 $-1 $93 $19 $-1 $94 forward single #
loop $-1 $95 $96 $37 #
cone-surface $-1 57.831745323400597 22.171595989127773 8.9043591994430606 -0.73135370988377701 0 -0.68199835119979291 0.85249793899974113 0 -0.91419213735472127 1 I I -0.70710678118654746 0.70710678118654746 1.25 forward I I I I #
loop $-1 $-1 $97 $24 #
coedge $-1 $60 $60 $98 $99 reversed $38 $-1 #
face $-1 $100 $101 $15 $-1 $102 reversed single #
loop $-1 $-1 $103 $40 #
plane-surface $-1 0 -43.222756869505567 0 0 1 0 0 0 1 forward_v I I I I #
coedge $-1 $104 $105 $106 $107 forward $41 $-1 #
coedge $-1 $108 $43 $109 $110 forward $26 $-1 #
coedge $-1 $43 $108 $111 $112 forward $26 $-1 #
coedge $-1 $113 $114 $43 $68 reversed $115 $-1 #
edge $-1 $116 -43.222756869505567 $117 43.222756869505567 $67 $118 forward 7 unknown #
face $-1 $119 $120 $16 $-1 $121 reversed single #
loop $-1 $-1 $122 $44 #
plane-surface $-1 -65.686819055757312 0 0 1 0 0 0 0 -1 forward_v I I I I #
coedge $-1 $123 $124 $125 $126 forward $45 $-1 #
coedge $-1 $125 $47 $122 $127 reversed $29 $-1 #
coedge $-1 $47 $125 $128 $129 reversed $29 $-1 #
coedge $-1 $130 $131 $47 $76 reversed $120 $-1 #
edge $-1 $132 -65.686819055757312 $133 65.686819055757312 $75 $134 forward 7 unknown #
face $-1 $135 $136 $17 $-1 $137 reversed single #
loop $-1 $-1 $138 $48 #
plane-surface $-1 0 49.262937762404796 11.360032719049709 0 0 1 1 0 0 forward_v I I I I #
coedge $-1 $139 $140 $81 $141 forward $49 $-1 #
coedge $-1 $142 $51 $80 $141 reversed $32 $-1 #
coedge $-1 $51 $142 $143 $144 reversed $32 $-1 #
coedge $-1 $145 $138 $51 $84 reversed $78 $-1 #
edge $-1 $146 -65.686819055757312 $147 65.686819055757312 $83 $148 forward 7 unknown #
face $-1 $149 $150 $18 $-1 $151 forward single #
loop $-1 $-1 $152 $52 #
plane-surface $-1 72.170812086371043 15.431886334380859 192.86176609624346 0 1 0 0.73135370988377701 0 0.68199835119979291 forward_v I I I I #
coedge $-1 $153 $154 $155 $156 reversed $53 $-1 #
coedge $-1 $90 $55 $157 $158 reversed $35 $-1 #
coedge $-1 $55 $89 $153 $159 reversed $35 $-1 #
coedge $-1 $155 $160 $55 $92 forward $150 $-1 #
edge $-1 $161 -29.60141301257179 $162 -20.578675752365989 $91 $163 forward 7 unknown #
loop $-1 $-1 $98 $56 #
plane-surface $-1 -23.909785527413931 22.171595989127773 103.26516151307221 0.73135370988377701 0 0.68199835119979291 0.68199835119979291 0 -0.73135370988377701 forward_v I I I I #
loop $-1 $-1 $164 $37 #
coedge $-1 $96 $96 $97 $165 reversed $57 $-1 #
coedge $-1 $97 $97 $96 $165 forward $59 $-1 #
coedge $-1 $98 $98 $60 $99 forward $93 $-1 #
edge $-1 $166 0 $166 6.2831853071796004 $98 $167 forward 7 unknown #
face $-1 $168 $169 $15 $-1 $170 reversed single #
loop $-1 $-1 $171 $61 #
plane-surface $-1 -65.686819055757312 0 0 1 0 0 0 0 -1 forward_v I I I I #
coedge $-1 $172 $111 $173 $174 forward $62 $-1 #
coedge $-1 $175 $64 $172 $176 forward $41 $-1 #
coedge $-1 $64 $175 $177 $178 forward $41 $-1 #
coedge $-1 $114 $113 $64 $107 reversed $115 $-1 #
edge $-1 $179 -43.222756869505567 $180 43.222756869505567 $106 $181 forward 7 unknown #
coedge $-1 $66 $65 $182 $183 forward $26 $-1 #
coedge $-1 $184 $185 $65 $110 reversed $169 $-1 #
edge $-1 $117 -65.686819055757312 $186 65.686819055757312 $109 $187 forward 7 unknown #
coedge $-1 $103 $188 $66 $112 reversed $62 $-1 #
edge $-1 $189 -65.686819055757312 $116 65.686819055757312 $111 $190 forward 7 unknown #
coedge $-1 $106 $67 $188 $191 forward $115 $-1 #
coedge $-1 $67 $106 $184 $192 reversed $115 $-1 #
loop $-1 $-1 $113 $168 #
vertex $-1 $68 $193 #
vertex $-1 $68 $194 #
straight-curve $-1 65.686819055757312 0 16.86026525098298 0 1 0 I I #
face $-1 $195 $196 $16 $-1 $197 reversed single #
loop $-1 $-1 $130 $69 #
plane-surface $-1 0 -49.262937762404796 11.360032719049709 0 0 1 1 0 0 forward_v I I I I #
coedge $-1 $198 $199 $73 $127 forward $70 $-1 #
coedge $-1 $200 $72 $199 $201 forward $45 $-1 #
coedge $-1 $72 $200 $202 $203 forward $45 $-1 #
coedge $-1 $74 $73 $72 $126 reversed $29 $-1 #
edge $-1 $204 -65.686819055757312 $205 65.686819055757312 $72 $206 forward 7 unknown #
edge $-1 $205 -16.86026525098298 $133 -11.360032719049709 $122 $207 forward 7 unknown #
coedge $-1 $202 $208 $74 $129 forward $209 $-1 #
edge $-1 $132 11.360032719049709 $204 16.86026525098298 $128 $210 forward 7 unknown #
coedge $-1 $211 $75 $208 $212 forward $120 $-1 #
coedge $-1 $75 $211 $198 $213 forward $120 $-1 #
vertex $-1 $129 $214 #
vertex $-1 $127 $215 #
straight-curve $-1 0 -43.222756869505567 11.360032719049709 -1 0 0 I I #
face $-1 $216 $217 $17 $-1 $218 forward single #
loop $-1 $-1 $219 $77 #
plane-surface $-1 0 55.303118655304026 14.110148985016345 0 -1 0 0 0 -1 forward_v I I I I #
coedge $-1 $83 $220 $139 $221 forward $78 $-1 #
coedge $-1 $222 $80 $138 $221 reversed $49 $-1 #
coedge $-1 $80 $222 $223 $224 reversed $49 $-1 #
edge $-1 $225 -16.86026525098298 $147 -11.360032719049709 $80 $226 forward 7 unknown #
coedge $-1 $82 $81 $227 $228 reversed $32 $-1 #
coedge $-1 $229 $230 $82 $144 forward $231 $-1 #
edge $-1 $146 11.360032719049709 $232 16.86026525098298 $143 $233 forward 7 unknown #
coedge $-1 $220 $83 $230 $234 forward $78 $-1 #
vertex $-1 $144 $235 #
vertex $-1 $141 $236 #
straight-curve $-1 0 43.222756869505567 11.360032719049709 1 0 0 I I #
face $-1 $-1 $237 $18 $-1 $238 reversed single #
loop $-1 $-1 $91 $85 #
plane-surface $-1 0 0 16.86026525098298 0 0 1 1 0 0 forward_v I I I I #
coedge $-1 $239 $240 $241 $242 reversed $86 $-1 #
coedge $-1 $243 $88 $90 $159 forward $53 $-1 #
coedge $-1 $88 $243 $239 $244 forward $53 $-1 #
coedge $-1 $241 $91 $88 $156 forward $150 $-1 #
edge $-1 $162 -17.825507649310801 $245 -4.3460883398169727 $155 $246 forward 7 unknown #
coedge $-1 $247 $248 $89 $158 forward $237 $-1 #
edge $-1 $249 -89.246319148834488 $161 -79.570617797138752 $157 $250 forward 7 unknown #
edge $-1 $162 118.14378609745518 $249 131.37363811151459 $90 $251 forward 7 unknown #
coedge $-1 $91 $241 $247 $252 forward $150 $-1 #
vertex $-1 $158 $253 #
vertex $-1 $92 $254 #
straight-curve $-1 36.085406043185522 28.911305643874687 16.860265250982977 -1 0 0 I I #
coedge $-1 $164 $164 $-1 $255 reversed $95 $-1 #
edge $-1 $256 0 $256 6.2831853071796004 $96 $257 forward 7 unknown #
vertex $-1 $99 $258 #
ellipse-curve $-1 61.175450425654418 22.171595989127773 12.022414575135114 0.73135370988377701 0 0.68199835119979291 1.7049958779994823 0 -1.8283842747094425 1 I I #
face $-1 $-1 $115 $15 $-1 $259 reversed single #
loop $-1 $-1 $184 $100 #
plane-surface $-1 0 43.222756869505567 0 0 -1 0 0 0 -1 forward_v I I I I #
coedge $-1 $260 $182 $185 $261 forward $101 $-1 #
coedge $-1 $188 $103 $104 $176 reversed $62 $-1 #
coedge $-1 $182 $260 $103 $174 reversed $101 $-1 #
edge $-1 $189 -16.86026525098298 $262 16.86026525098298 $173 $263 forward 7 unknown #
coedge $-1 $105 $104 $260 $264 forward $41 $-1 #
edge $-1 $180 -65.686819055757312 $262 65.686819055757312 $172 $265 forward 7 unknown #
coedge $-1 $185 $184 $105 $178 reversed $169 $-1 #
edge $-1 $266 -65.686819055757312 $179 65.686819055757312 $177 $267 forward 7 unknown #
vertex $-1 $107 $268 #
vertex $-1 $191 $269 #
straight-curve $-1 65.686819055757312 0 -16.86026525098298 0 -1 0 I I #
coedge $-1 $171 $173 $108 $183 reversed $101 $-1 #
edge $-1 $186 -43.222756869505567 $189 43.222756869505567 $182 $270 forward 7 unknown #
coedge $-1 $177 $109 $114 $192 forward $169 $-1 #
coedge $-1 $109 $177 $171 $261 reversed $169 $-1 #
vertex $-1 $110 $271 #
straight-curve $-1 0 43.222756869505567 16.86026525098298 -1 0 0 I I #
coedge $-1 $111 $172 $113 $191 reversed $62 $-1 #
vertex $-1 $183 $272 #
straight-curve $-1 0 -43.222756869505567 16.86026525098298 1 0 0 I I #
edge $-1 $116 -16.86026525098298 $180 16.86026525098298 $113 $273 forward 7 unknown #
edge $-1 $117 -16.86026525098298 $179 16.86026525098298 $114 $274 forward 7 unknown #
point $-1 65.686819055757312 -43.222756869505567 16.86026525098298 #
point $-1 65.686819055757312 43.222756869505567 16.86026525098298 #
face $-1 $-1 $209 $16 $-1 $275 reversed single #
loop $-1 $-1 $276 $119 #
plane-surface $-1 0 -55.303118655304026 14.110148985016345 0 1 0 0 0 1 forward_v I I I I #
coedge $-1 $277 $122 $131 $213 reversed $70 $-1 #
coedge $-1 $122 $277 $123 $201 reversed $70 $-1 #
coedge $-1 $124 $123 $278 $279 forward $45 $-1 #
edge $-1 $205 43.222756869505567 $280 55.303118655304026 $199 $281 forward 7 unknown #
coedge $-1 $282 $128 $124 $203 reversed $209 $-1 #
edge $-1 $283 -55.303118655304026 $204 -43.222756869505567 $202 $284 forward 7 unknown #
vertex $-1 $129 $285 #
vertex $-1 $201 $286 #
straight-curve $-1 0 -43.222756869505567 16.86026525098298 -1 0 0 I I #
straight-curve $-1 -65.686819055757312 -43.222756869505567 0 0 0 -1 I I #
coedge $-1 $128 $282 $130 $212 reversed $209 $-1 #
loop $-1 $-1 $128 $195 #
straight-curve $-1 65.686819055757312 -43.222756869505567 0 0 0 1 I I #
coedge $-1 $131 $130 $287 $288 forward $120 $-1 #
edge $-1 $132 -6.0401808928992295 $289 6.0401808928992295 $208 $290 forward 7 unknown #
edge $-1 $291 -6.0401808928992295 $133 6.0401808928992295 $198 $292 forward 7 unknown #
point $-1 65.686819055757312 -43.222756869505567 11.360032719049709 #
point $-1 -65.686819055757312 -43.222756869505567 11.360032719049709 #
face $-1 $-1 $231 $17 $-1 $293 reversed single #
loop $-1 $-1 $227 $135 #
plane-surface $-1 0 0 16.86026525098298 0 0 1 1 0 0 forward_v I I I I #
coedge $-1 $294 $295 $222 $296 forward $136 $-1 #
coedge $-1 $138 $145 $294 $297 forward $78 $-1 #
edge $-1 $298 -6.0401808928992295 $147 6.0401808928992295 $139 $299 forward 7 unknown #
coedge $-1 $140 $139 $219 $296 reversed $49 $-1 #
coedge $-1 $300 $227 $140 $224 forward $217 $-1 #
edge $-1 $225 43.222756869505567 $301 55.303118655304026 $140 $302 forward 7 unknown #
vertex $-1 $224 $303 #
straight-curve $-1 65.686819055757312 43.222756869505567 0 0 0 -1 I I #
coedge $-1 $223 $304 $142 $228 forward $217 $-1 #
edge $-1 $232 -65.686819055757312 $225 65.686819055757312 $227 $305 forward 7 unknown #
coedge $-1 $306 $143 $304 $307 reversed $231 $-1 #
coedge $-1 $143 $306 $145 $234 reversed $231 $-1 #
loop $-1 $-1 $143 $216 #
vertex $-1 $144 $308 #
straight-curve $-1 -65.686819055757312 43.222756869505567 0 0 0 1 I I #
edge $-1 $146 -6.0401808928992295 $309 6.0401808928992295 $230 $310 forward 7 unknown #
point $-1 -65.686819055757312 43.222756869505567 11.360032719049709 #
point $-1 65.686819055757312 43.222756869505567 11.360032719049709 #
loop $-1 $-1 $157 $149 #
plane-surface $-1 65.686819055757312 0 0 -1 0 0 0 0 1 forward_v I I I I #
coedge $-1 $240 $152 $154 $244 reversed $86 $-1 #
coedge $-1 $152 $239 $311 $312 reversed $86 $-1 #
coedge $-1 $160 $155 $152 $242 forward $150 $-1 #
edge $-1 $245 20.578675752365989 $313 29.60141301257179 $241 $314 forward 7 unknown #
coedge $-1 $154 $153 $248 $315 reversed $53 $-1 #
edge $-1 $316 -131.37363811151459 $245 -118.14378609745518 $239 $317 forward 7 unknown #
vertex $-1 $156 $318 #
straight-curve $-1 56.664081795551503 11.085797994563887 16.860265250982977 0 -1 0 I I #
coedge $-1 $311 $157 $160 $252 reversed $237 $-1 #
coedge $-1 $157 $311 $243 $315 forward $237 $-1 #
vertex $-1 $158 $319 #
straight-curve $-1 65.686819055757312 28.911305643874687 96.430883048121729 0 0 1 I I #
straight-curve $-1 -23.909785527413931 28.911305643874687 103.26516151307221 0.68199835119979291 0 -0.73135370988377701 I I #
edge $-1 $313 15.431886334380859 $161 28.911305643874687 $247 $320 forward 7 unknown #
point $-1 65.686819055757312 28.911305643874687 16.86026525098298 #
point $-1 56.66408179555151 28.911305643874687 16.860265250982977 #
edge $-1 $321 1 $321 0 $164 $-1 forward 7 unknown #
vertex $-1 $165 $322 #
ellipse-curve $-1 58.745937460755314 22.171595989127773 9.7568571384428022 0.73135370988377701 0 0.68199835119979291 1.7049958779994823 0 -1.8283842747094425 1 I I #
point $-1 62.880446303653912 22.171595989127773 10.194030300425684 #
plane-surface $-1 65.686819055757312 0 0 -1 0 0 0 0 1 forward_v I I I I #
coedge $-1 $173 $171 $175 $264 reversed $101 $-1 #
edge $-1 $186 -16.86026525098298 $266 16.86026525098298 $185 $323 forward 7 unknown #
vertex $-1 $264 $324 #
straight-curve $-1 -65.686819055757312 -43.222756869505567 0 0 0 -1 I I #
edge $-1 $262 -43.222756869505567 $266 43.222756869505567 $260 $325 forward 7 unknown #
straight-curve $-1 0 -43.222756869505567 -16.86026525098298 -1 0 0 I I #
vertex $-1 $178 $326 #
straight-curve $-1 0 43.222756869505567 -16.86026525098298 1 0 0 I I #
point $-1 65.686819055757312 43.222756869505567 -16.86026525098298 #
point $-1 65.686819055757312 -43.222756869505567 -16.86026525098298 #
straight-curve $-1 -65.686819055757312 0 16.86026525098298 0 -1 0 I I #
point $-1 -65.686819055757312 43.222756869505567 16.86026525098298 #
point $-1 -65.686819055757312 -43.222756869505567 16.86026525098298 #
straight-curve $-1 65.686819055757312 -43.222756869505567 0 0 0 -1 I I #
straight-curve $-1 65.686819055757312 43.222756869505567 0 0 0 -1 I I #
plane-surface $-1 65.686819055757312 0 0 -1 0 0 0 0 1 forward_v I I I I #
coedge $-1 $287 $278 $277 $327 forward $196 $-1 #
coedge $-1 $199 $198 $276 $327 reversed $70 $-1 #
coedge $-1 $276 $328 $200 $279 reversed $196 $-1 #
edge $-1 $280 -65.686819055757312 $283 65.686819055757312 $278 $329 forward 7 unknown #
vertex $-1 $201 $330 #
straight-curve $-1 -65.686819055757312 0 16.86026525098298 0 -1 0 I I #
coedge $-1 $208 $202 $328 $331 forward $209 $-1 #
vertex $-1 $203 $332 #
straight-curve $-1 65.686819055757312 0 16.86026525098298 0 1 0 I I #
point $-1 65.686819055757312 -43.222756869505567 16.86026525098298 #
point $-1 -65.686819055757312 -43.222756869505567 16.86026525098298 #
coedge $-1 $328 $276 $211 $288 reversed $196 $-1 #
edge $-1 $289 -65.686819055757312 $291 65.686819055757312 $287 $333 forward 7 unknown #
vertex $-1 $331 $334 #
straight-curve $-1 65.686819055757312 -49.262937762404796 11.360032719049709 0 -1 0 I I #
vertex $-1 $213 $335 #
straight-curve $-1 -65.686819055757312 -49.262937762404796 11.360032719049709 0 1 0 I I #
plane-surface $-1 -65.686819055757312 0 0 1 0 0 0 0 -1 forward_v I I I I #
coedge $-1 $336 $219 $220 $297 reversed $136 $-1 #
coedge $-1 $219 $336 $300 $337 reversed $136 $-1 #
edge $-1 $301 -2.7501162659666356 $298 2.7501162659666356 $222 $338 forward 7 unknown #
edge $-1 $309 -65.686819055757312 $298 65.686819055757312 $294 $339 forward 7 unknown #
vertex $-1 $221 $340 #
straight-curve $-1 65.686819055757312 49.262937762404796 11.360032719049709 0 -1 0 I I #
coedge $-1 $304 $223 $295 $337 forward $217 $-1 #
vertex $-1 $224 $341 #
straight-curve $-1 65.686819055757312 0 16.86026525098298 0 1 0 I I #
point $-1 65.686819055757312 43.222756869505567 16.86026525098298 #
coedge $-1 $227 $300 $229 $307 forward $217 $-1 #
straight-curve $-1 0 43.222756869505567 16.86026525098298 1 0 0 I I #
coedge $-1 $230 $229 $336 $342 forward $231 $-1 #
edge $-1 $343 -55.303118655304026 $232 -43.222756869505567 $229 $344 forward 7 unknown #
point $-1 -65.686819055757312 43.222756869505567 16.86026525098298 #
vertex $-1 $297 $345 #
straight-curve $-1 -65.686819055757312 49.262937762404796 11.360032719049709 0 1 0 I I #
coedge $-1 $248 $247 $240 $312 forward $237 $-1 #
edge $-1 $313 79.570617797138752 $316 89.246319148834488 $311 $346 forward 7 unknown #
vertex $-1 $252 $347 #
straight-curve $-1 36.085406043185522 15.431886334380859 16.860265250982977 1 0 0 I I #
edge $-1 $316 4.3460883398169727 $249 17.825507649310801 $248 $348 forward 7 unknown #
vertex $-1 $315 $349 #
straight-curve $-1 -23.909785527413931 15.431886334380859 103.26516151307221 -0.68199835119979291 0 0.73135370988377701 I I #
point $-1 56.66408179555151 15.431886334380859 16.860265250982977 #
point $-1 65.686819055757312 28.911305643874687 7.1845638992872409 #
straight-curve $-1 65.686819055757312 0 16.86026525098298 0 1 0 I I #
vertex $-1 $255 $350 #
point $-1 60.450933338754801 22.171595989127773 7.9284728637333597 #
straight-curve $-1 -65.686819055757312 43.222756869505567 0 0 0 -1 I I #
point $-1 -65.686819055757312 -43.222756869505567 -16.86026525098298 #
straight-curve $-1 -65.686819055757312 0 -16.86026525098298 0 1 0 I I #
point $-1 -65.686819055757312 43.222756869505567 -16.86026525098298 #
edge $-1 $280 -2.7501162659666356 $291 2.7501162659666356 $277 $351 forward 7 unknown #
coedge $-1 $278 $287 $282 $331 reversed $196 $-1 #
straight-curve $-1 0 -55.303118655304026 16.86026525098298 1 0 0 I I #
point $-1 -65.686819055757312 -55.303118655304026 16.86026525098298 #
edge $-1 $283 -2.7501162659666356 $289 2.7501162659666356 $282 $352 forward 7 unknown #
point $-1 65.686819055757312 -55.303118655304026 16.86026525098298 #
straight-curve $-1 0 -55.303118655304026 11.360032719049709 -1 0 0 I I #
point $-1 65.686819055757312 -55.303118655304026 11.360032719049709 #
point $-1 -65.686819055757312 -55.303118655304026 11.360032719049709 #
coedge $-1 $295 $294 $306 $342 reversed $136 $-1 #
edge $-1 $301 -65.686819055757312 $343 65.686819055757312 $295 $353 forward 7 unknown #
straight-curve $-1 65.686819055757312 55.303118655304026 14.110148985016345 0 0 -1 I I #
straight-curve $-1 0 55.303118655304026 11.360032719049709 1 0 0 I I #
point $-1 65.686819055757312 55.303118655304026 11.360032719049709 #
point $-1 65.686819055757312 55.303118655304026 16.86026525098298 #
edge $-1 $343 -2.7501162659666356 $309 2.7501162659666356 $336 $354 forward 7 unknown #
vertex $-1 $337 $355 #
straight-curve $-1 -65.686819055757312 0 16.86026525098298 0 -1 0 I I #
point $-1 -65.686819055757312 55.303118655304026 11.360032719049709 #
straight-curve $-1 65.686819055757312 15.431886334380859 96.430883048121729 0 0 -1 I I #
point $-1 65.686819055757312 15.431886334380859 16.86026525098298 #
straight-curve $-1 65.686819055757297 11.085797994563887 7.1845638992872551 0 1 0 I I #
point $-1 65.686819055757312 15.431886334380859 7.1845638992872409 #
point $-1 56.917553186045879 22.171595989127773 8.0518612604433191 #
straight-curve $-1 -65.686819055757312 -55.303118655304026 14.110148985016345 0 0 -1 I I #
straight-curve $-1 65.686819055757312 -55.303118655304026 14.110148985016345 0 0 -1 I I #
straight-curve $-1 0 55.303118655304026 16.86026525098298 -1 0 0 I I #
straight-curve $-1 -65.686819055757312 55.303118655304026 14.110148985016345 0 0 -1 I I #
point $-1 -65.686819055757312 55.303118655304026 16.86026525098298 #
End-of-ACIS-data 