500 0 5 0           
7 Unknown 11 ACIS 5.0 NT 24 Fri Mar 26 17:14:47 1999 
-1 9.9999999999999995e-007 1e-010 
body $-1 $5 $-1 $6 #
body $-1 $7 $-1 $8 #
body $-1 $9 $-1 $10 #
body $-1 $11 $-1 $12 #
body $-1 $13 $-1 $14 #
lump $-1 $-1 $15 $0 #
transform $-1 1 0 0 0 1 0 0 0 1 43.844111453596604 26.26686038700441 9.9157057270134903 1 rotate no_reflect no_shear #
lump $-1 $-1 $16 $1 #
transform $-1 1 0 0 0 1 0 0 0 1 43.844111453596604 26.26686038700441 9.9157057270134903 1 rotate no_reflect no_shear #
lump $-1 $-1 $17 $2 #
transform $-1 1 0 0 0 1 0 0 0 1 43.844111453596604 26.26686038700441 9.9157057270134903 1 rotate no_reflect no_shear #
lump $-1 $-1 $18 $3 #
transform $-1 1 0 0 0 1 0 0 0 1 43.844111453596604 26.26686038700441 9.9157057270134903 1 rotate no_reflect no_shear #
lump $-1 $-1 $19 $4 #
transform $-1 1 0 0 0 1 0 0 0 1 43.844111453596604 26.26686038700441 9.9157057270134903 1 rotate no_reflect no_shear #
shell $-1 $-1 $-1 $20 $-1 $5 #
shell $-1 $-1 $-1 $21 $-1 $7 #
shell $-1 $-1 $-1 $22 $-1 $9 #
shell $-1 $-1 $-1 $23 $-1 $11 #
shell $-1 $-1 $-1 $24 $-1 $13 #
face $-1 $25 $26 $15 $-1 $27 forward single #
face $-1 $28 $29 $16 $-1 $30 forward single #
face $-1 $31 $32 $17 $-1 $33 forward single #
face $-1 $34 $35 $18 $-1 $36 reversed single #
face $-1 $37 $38 $19 $-1 $39 reversed single #
face $-1 $40 $41 $15 $-1 $42 reversed single #
loop $-1 $-1 $43 $20 #
plane-surface $-1 0 0 9.9157057270134903 0 0 1 1 0 0 forward_v I I I I #
face $-1 $44 $45 $16 $-1 $46 reversed single #
loop $-1 $-1 $47 $21 #
plane-surface $-1 -47.806241900089901 0 -6.1728120274029354 0 0 1 1 0 0 forward_v I I I I #
face $-1 $48 $49 $17 $-1 $50 forward single #
loop $-1 $-1 $51 $22 #
plane-surface $-1 1.332018612117551 -19.391796080756041 77.537654516280227 0.87461971476443456 0 0.48480960649040278 0.48480960649040278 0 -0.87461971476443456 forward_v I I I I #
face $-1 $52 $53 $18 $-1 $54 reversed single #
loop $-1 $55 $56 $23 #
cone-surface $-1 39.243446302219411 -22.338252212005344 4.2232747840788862 -0.87461971476443456 0 -0.48480960649040278 0.72721440973560414 0 -1.311929572146652 1 I I 0 1 1.5 forward I I I I #
face $-1 $57 $58 $19 $-1 $59 reversed single #
loop $-1 $60 $61 $24 #
cone-surface $-1 39.243446302219411 -16.445339949506739 4.2232747840788862 -0.87461971476443456 0 -0.48480960649040278 0.72721440973560414 0 -1.311929572146652 1 I I 0 1 1.5 forward I I I I #
face $-1 $62 $63 $15 $-1 $64 reversed single #
loop $-1 $-1 $65 $25 #
plane-surface $-1 0 0 -9.9157057270134903 0 0 1 1 0 0 forward_v I I I I #
coedge $-1 $66 $67 $68 $69 forward $26 $-1 #
face $-1 $70 $71 $16 $-1 $72 forward single #
loop $-1 $-1 $73 $28 #
plane-surface $-1 -51.768372346583199 0 -8.0442588772082129 1 0 0 0 0 -1 forward_v I I I I #
coedge $-1 $74 $75 $76 $77 reversed $29 $-1 #
face $-1 $78 $79 $17 $-1 $80 reversed single #
loop $-1 $-1 $81 $31 #
plane-surface $-1 78.025867119407025 -12.516731774507672 120.04974735775929 0 -1 0 -0.87461971476443456 0 -0.48480960649040278 forward_v I I I I #
coedge $-1 $82 $83 $84 $85 reversed $32 $-1 #
face $-1 $86 $87 $18 $-1 $88 forward single #
loop $-1 $89 $90 $34 #
cone-surface $-1 36.501134335293706 -22.338252212005344 2.7031864952878504 -0.87461971476443456 0 -0.48480960649040278 0.36360720486780207 0 -0.65596478607332598 1 I I -0.70710678118654757 0.70710678118654757 0.75 forward I I I I #
loop $-1 $-1 $91 $23 #
coedge $-1 $56 $56 $92 $93 reversed $35 $-1 #
face $-1 $94 $95 $19 $-1 $96 reversed single #
loop $-1 $97 $98 $37 #
cone-surface $-1 36.501134335293706 -16.445339949506739 2.7031864952878504 -0.87461971476443456 0 -0.48480960649040278 0.36360720486780207 0 -0.65596478607332598 1 I I -0.70710678118654757 0.70710678118654757 0.75 forward I I I I #
loop $-1 $-1 $99 $24 #
coedge $-1 $61 $61 $100 $101 reversed $38 $-1 #
face $-1 $102 $103 $15 $-1 $104 reversed single #
loop $-1 $-1 $105 $40 #
plane-surface $-1 0 -26.26686038700441 0 0 1 0 0 0 1 forward_v I I I I #
coedge $-1 $106 $107 $108 $109 forward $41 $-1 #
coedge $-1 $110 $43 $111 $112 forward $26 $-1 #
coedge $-1 $43 $110 $113 $114 forward $26 $-1 #
coedge $-1 $115 $116 $43 $69 reversed $117 $-1 #
edge $-1 $118 -26.26686038700441 $119 26.26686038700441 $68 $120 forward 7 unknown #
face $-1 $121 $122 $16 $-1 $123 reversed single #
loop $-1 $-1 $124 $44 #
plane-surface $-1 0 0 9.9157057270134903 0 0 1 1 0 0 forward_v I I I I #
coedge $-1 $125 $126 $127 $128 forward $45 $-1 #
coedge $-1 $129 $47 $130 $131 forward $29 $-1 #
coedge $-1 $47 $129 $132 $133 forward $29 $-1 #
coedge $-1 $134 $135 $47 $77 forward $136 $-1 #
edge $-1 $137 -26.26686038700441 $138 26.26686038700441 $76 $139 forward 7 unknown #
face $-1 $140 $141 $17 $-1 $142 reversed single #
loop $-1 $-1 $143 $48 #
plane-surface $-1 43.844111453596604 0 0 -1 0 0 0 0 1 forward_v I I I I #
coedge $-1 $144 $145 $143 $146 reversed $49 $-1 #
coedge $-1 $147 $51 $145 $148 reversed $32 $-1 #
coedge $-1 $51 $147 $149 $150 reversed $32 $-1 #
coedge $-1 $151 $143 $51 $85 forward $79 $-1 #
edge $-1 $152 2.8208337341296517 $153 16.570962346626388 $84 $154 forward 7 unknown #
face $-1 $155 $156 $18 $-1 $157 forward single #
loop $-1 $158 $92 $52 #
plane-surface $-1 1.332018612117551 -19.391796080756041 77.537654516280227 0.87461971476443456 0 0.48480960649040278 0.48480960649040278 0 -0.87461971476443456 forward_v I I I I #
loop $-1 $-1 $159 $34 #
coedge $-1 $90 $90 $91 $160 forward $53 $-1 #
coedge $-1 $91 $91 $90 $160 reversed $55 $-1 #
coedge $-1 $92 $92 $56 $93 forward $87 $-1 #
edge $-1 $161 0 $161 6.2831853071796004 $92 $162 forward 7 unknown #
face $-1 $163 $164 $19 $-1 $165 reversed single #
loop $-1 $166 $167 $57 #
cone-surface $-1 39.243446302219411 -22.338252212005344 4.2232747840788862 -0.87461971476443456 0 -0.48480960649040278 0.72721440973560414 0 -1.311929572146652 1 I I 0 1 1.5 forward I I I I #
loop $-1 $-1 $168 $37 #
coedge $-1 $98 $98 $99 $169 forward $58 $-1 #
coedge $-1 $99 $99 $98 $169 reversed $60 $-1 #
coedge $-1 $100 $100 $61 $101 forward $170 $-1 #
edge $-1 $171 0 $171 6.2831853071796004 $100 $172 forward 7 unknown #
face $-1 $173 $174 $15 $-1 $175 reversed single #
loop $-1 $-1 $176 $62 #
plane-surface $-1 -43.844111453596604 0 0 1 0 0 0 0 -1 forward_v I I I I #
coedge $-1 $177 $113 $178 $179 forward $63 $-1 #
coedge $-1 $180 $65 $177 $181 forward $41 $-1 #
coedge $-1 $65 $180 $182 $183 forward $41 $-1 #
coedge $-1 $116 $115 $65 $109 reversed $117 $-1 #
edge $-1 $184 -26.26686038700441 $185 26.26686038700441 $108 $186 forward 7 unknown #
coedge $-1 $67 $66 $187 $188 forward $26 $-1 #
coedge $-1 $189 $190 $66 $112 reversed $174 $-1 #
edge $-1 $119 -43.844111453596604 $191 43.844111453596604 $111 $192 forward 7 unknown #
coedge $-1 $105 $193 $67 $114 reversed $63 $-1 #
edge $-1 $194 -43.844111453596604 $118 43.844111453596604 $113 $195 forward 7 unknown #
coedge $-1 $108 $68 $193 $196 forward $117 $-1 #
coedge $-1 $68 $108 $189 $197 reversed $117 $-1 #
loop $-1 $-1 $115 $173 #
vertex $-1 $69 $198 #
vertex $-1 $69 $199 #
straight-curve $-1 43.844111453596604 0 9.9157057270134903 0 1 0 I I #
face $-1 $200 $201 $16 $-1 $202 reversed single #
loop $-1 $-1 $203 $70 #
plane-surface $-1 0 0 -9.9157057270134903 0 0 1 1 0 0 forward_v I I I I #
coedge $-1 $204 $205 $206 $207 forward $71 $-1 #
coedge $-1 $208 $73 $209 $210 reversed $45 $-1 #
coedge $-1 $73 $208 $129 $211 reversed $45 $-1 #
coedge $-1 $130 $212 $73 $128 reversed $213 $-1 #
edge $-1 $214 -1.8714468498052774 $215 1.8714468498052774 $127 $216 forward 7 unknown #
coedge $-1 $75 $74 $126 $211 forward $29 $-1 #
coedge $-1 $217 $127 $74 $131 reversed $213 $-1 #
edge $-1 $137 -3.9621304464932976 $214 3.9621304464932976 $130 $218 forward 7 unknown #
coedge $-1 $219 $220 $75 $133 reversed $201 $-1 #
edge $-1 $221 -3.9621304464932976 $138 3.9621304464932976 $132 $222 forward 7 unknown #
coedge $-1 $223 $76 $220 $224 reversed $136 $-1 #
coedge $-1 $76 $223 $217 $225 forward $136 $-1 #
loop $-1 $-1 $76 $200 #
vertex $-1 $225 $226 #
vertex $-1 $133 $227 #
straight-curve $-1 -43.844111453596604 0 -6.1728120274029354 0 -1 0 I I #
face $-1 $228 $229 $17 $-1 $230 forward single #
loop $-1 $-1 $149 $78 #
plane-surface $-1 0 -26.26686038700441 0 0 1 0 0 0 1 forward_v I I I I #
coedge $-1 $84 $231 $81 $146 forward $79 $-1 #
coedge $-1 $145 $81 $232 $233 reversed $49 $-1 #
coedge $-1 $81 $144 $82 $148 forward $49 $-1 #
edge $-1 $234 50.109167951866155 $152 59.18106766988889 $143 $235 forward 7 unknown #
coedge $-1 $83 $82 $236 $237 reversed $32 $-1 #
edge $-1 $238 77.315829551680849 $152 87.688222907193207 $145 $239 forward 7 unknown #
coedge $-1 $240 $241 $83 $150 forward $141 $-1 #
edge $-1 $153 -54.103129978516364 $242 -43.730736623004006 $149 $243 forward 7 unknown #
coedge $-1 $244 $84 $241 $245 forward $79 $-1 #
vertex $-1 $85 $246 #
vertex $-1 $245 $247 #
straight-curve $-1 43.844111453596604 -9.6958980403780206 0.84380600899075375 0 -1 0 I I #
face $-1 $248 $249 $18 $-1 $250 reversed single #
loop $-1 $-1 $251 $86 #
plane-surface $-1 78.025867119407025 -12.516731774507672 120.04974735775929 0 -1 0 -0.87461971476443456 0 -0.48480960649040278 forward_v I I I I #
loop $-1 $-1 $252 $52 #
coedge $-1 $159 $159 $-1 $253 forward $89 $-1 #
edge $-1 $254 0 $254 6.2831853071796004 $90 $255 forward 7 unknown #
vertex $-1 $93 $256 #
ellipse-curve $-1 41.329793483071796 -22.338252212005344 5.3797558680021247 -0.87461971476443456 0 -0.48480960649040278 0.72721440973560414 0 -1.311929572146652 1 I I #
face $-1 $257 $170 $19 $-1 $258 forward single #
loop $-1 $259 $260 $94 #
cone-surface $-1 36.501134335293706 -22.338252212005344 2.7031864952878504 -0.87461971476443456 0 -0.48480960649040278 0.36360720486780207 0 -0.65596478607332598 1 I I -0.70710678118654757 0.70710678118654757 0.75 forward I I I I #
loop $-1 $-1 $261 $57 #
coedge $-1 $167 $167 $262 $263 reversed $95 $-1 #
coedge $-1 $168 $168 $-1 $264 forward $97 $-1 #
edge $-1 $265 0 $265 6.2831853071796004 $98 $266 forward 7 unknown #
loop $-1 $267 $100 $163 #
vertex $-1 $101 $268 #
ellipse-curve $-1 41.329793483071796 -16.445339949506739 5.3797558680021247 -0.87461971476443456 0 -0.48480960649040278 0.72721440973560414 0 -1.311929572146652 1 I I #
face $-1 $-1 $117 $15 $-1 $269 reversed single #
loop $-1 $-1 $189 $102 #
plane-surface $-1 0 26.26686038700441 0 0 -1 0 0 0 -1 forward_v I I I I #
coedge $-1 $270 $187 $190 $271 forward $103 $-1 #
coedge $-1 $193 $105 $106 $181 reversed $63 $-1 #
coedge $-1 $187 $270 $105 $179 reversed $103 $-1 #
edge $-1 $194 -9.9157057270134903 $272 9.9157057270134903 $178 $273 forward 7 unknown #
coedge $-1 $107 $106 $270 $274 forward $41 $-1 #
edge $-1 $185 -43.844111453596604 $272 43.844111453596604 $177 $275 forward 7 unknown #
coedge $-1 $190 $189 $107 $183 reversed $174 $-1 #
edge $-1 $276 -43.844111453596604 $184 43.844111453596604 $182 $277 forward 7 unknown #
vertex $-1 $109 $278 #
vertex $-1 $196 $279 #
straight-curve $-1 43.844111453596604 0 -9.9157057270134903 0 -1 0 I I #
coedge $-1 $176 $178 $110 $188 reversed $103 $-1 #
edge $-1 $191 -26.26686038700441 $194 26.26686038700441 $187 $280 forward 7 unknown #
coedge $-1 $182 $111 $116 $197 forward $174 $-1 #
coedge $-1 $111 $182 $176 $271 reversed $174 $-1 #
vertex $-1 $112 $281 #
straight-curve $-1 0 26.26686038700441 9.9157057270134903 -1 0 0 I I #
coedge $-1 $113 $177 $115 $196 reversed $63 $-1 #
vertex $-1 $188 $282 #
straight-curve $-1 0 -26.26686038700441 9.9157057270134903 1 0 0 I I #
edge $-1 $118 -9.9157057270134903 $185 9.9157057270134903 $115 $283 forward 7 unknown #
edge $-1 $119 -9.9157057270134903 $184 9.9157057270134903 $116 $284 forward 7 unknown #
point $-1 43.844111453596604 -26.26686038700441 9.9157057270134903 #
point $-1 43.844111453596604 26.26686038700441 9.9157057270134903 #
face $-1 $285 $136 $16 $-1 $286 reversed single #
loop $-1 $-1 $220 $121 #
plane-surface $-1 0 -26.26686038700441 0 0 1 0 0 0 1 forward_v I I I I #
coedge $-1 $287 $288 $289 $290 forward $122 $-1 #
coedge $-1 $291 $124 $292 $293 forward $71 $-1 #
coedge $-1 $124 $291 $294 $295 forward $71 $-1 #
coedge $-1 $296 $297 $124 $207 reversed $298 $-1 #
edge $-1 $299 -26.26686038700441 $300 26.26686038700441 $206 $301 forward 7 unknown #
coedge $-1 $126 $125 $219 $302 reversed $45 $-1 #
coedge $-1 $288 $287 $125 $210 forward $122 $-1 #
edge $-1 $303 -26.26686038700441 $215 26.26686038700441 $125 $304 forward 7 unknown #
edge $-1 $214 -26.26686038700441 $221 26.26686038700441 $126 $305 forward 7 unknown #
coedge $-1 $127 $306 $288 $307 reversed $213 $-1 #
loop $-1 $-1 $306 $285 #
vertex $-1 $131 $308 #
vertex $-1 $307 $309 #
straight-curve $-1 -51.768372346583199 26.26686038700441 -8.0442588772082129 0 0 -1 I I #
coedge $-1 $292 $130 $135 $225 reversed $213 $-1 #
straight-curve $-1 -47.806241900089901 26.26686038700441 -6.1728120274029354 -1 0 0 I I #
coedge $-1 $310 $132 $208 $302 forward $201 $-1 #
coedge $-1 $132 $294 $134 $224 forward $201 $-1 #
vertex $-1 $211 $311 #
straight-curve $-1 -47.806241900089901 -26.26686038700441 -6.1728120274029354 1 0 0 I I #
coedge $-1 $135 $134 $291 $312 reversed $136 $-1 #
edge $-1 $313 -9.9157057270134903 $138 6.1728120274029354 $134 $314 forward 7 unknown #
edge $-1 $315 -9.9157057270134903 $137 6.1728120274029354 $217 $316 forward 7 unknown #
point $-1 -43.844111453596604 26.26686038700441 -6.1728120274029354 #
point $-1 -43.844111453596604 -26.26686038700441 -6.1728120274029354 #
face $-1 $317 $318 $17 $-1 $319 reversed single #
loop $-1 $-1 $320 $140 #
plane-surface $-1 -47.806241900089901 0 -6.1728120274029354 0 0 1 1 0 0 forward_v I I I I #
coedge $-1 $143 $321 $322 $323 reversed $79 $-1 #
coedge $-1 $322 $236 $144 $233 forward $324 $-1 #
edge $-1 $238 -0.19745804715652326 $234 4.8311778938930914 $232 $325 forward 7 unknown #
vertex $-1 $323 $326 #
straight-curve $-1 43.844111453596604 -12.516731774507672 60.024873678879644 0 0 -1 I I #
coedge $-1 $232 $327 $147 $237 forward $324 $-1 #
edge $-1 $242 -16.570962346626388 $238 -2.8208337341296517 $236 $328 forward 7 unknown #
vertex $-1 $237 $329 #
straight-curve $-1 1.332018612117551 -12.516731774507672 77.537654516280227 0.48480960649040278 0 -0.87461971476443456 I I #
coedge $-1 $330 $149 $327 $331 reversed $141 $-1 #
coedge $-1 $149 $332 $151 $245 reversed $141 $-1 #
vertex $-1 $237 $333 #
straight-curve $-1 17.614394298812979 -26.26686038700441 48.163470118663867 -0.48480960649040278 0 0.87461971476443456 I I #
coedge $-1 $321 $151 $334 $335 reversed $79 $-1 #
edge $-1 $153 -0.84380600899075819 $336 9.9157057270134903 $151 $337 forward 7 unknown #
point $-1 43.844111453596604 -12.516731774507672 0.84380600899075375 #
point $-1 43.844111453596604 -26.26686038700441 0.84380600899075819 #
face $-1 $338 $339 $18 $-1 $340 reversed single #
loop $-1 $-1 $341 $155 #
plane-surface $-1 43.844111453596604 0 0 -1 0 0 0 0 1 forward_v I I I I #
coedge $-1 $342 $343 $341 $344 reversed $156 $-1 #
coedge $-1 $345 $346 $347 $348 reversed $158 $-1 #
edge $-1 $349 1 $349 0 $159 $-1 forward 7 unknown #
vertex $-1 $160 $350 #
ellipse-curve $-1 37.157099121367033 -22.338252212005344 3.0667937001556522 0.87461971476443456 0 0.48480960649040278 0.72721440973560414 0 -1.311929572146652 1 I I #
point $-1 42.057007892807391 -22.338252212005344 4.0678262958554683 #
face $-1 $351 $352 $19 $-1 $353 forward single #
plane-surface $-1 1.332018612117551 -19.391796080756041 77.537654516280227 0.87461971476443456 0 0.48480960649040278 0.48480960649040278 0 -0.87461971476443456 forward_v I I I I #
loop $-1 $-1 $354 $94 #
coedge $-1 $260 $260 $261 $355 forward $164 $-1 #
coedge $-1 $261 $261 $260 $355 reversed $166 $-1 #
coedge $-1 $262 $262 $167 $263 forward $267 $-1 #
edge $-1 $356 0 $356 6.2831853071796004 $262 $357 forward 7 unknown #
edge $-1 $358 1 $358 0 $168 $-1 forward 7 unknown #
vertex $-1 $169 $359 #
ellipse-curve $-1 37.157099121367033 -16.445339949506739 3.0667937001556522 0.87461971476443456 0 0.48480960649040278 0.72721440973560414 0 -1.311929572146652 1 I I #
loop $-1 $360 $262 $163 #
point $-1 42.057007892807391 -16.445339949506739 4.0678262958554683 #
plane-surface $-1 43.844111453596604 0 0 -1 0 0 0 0 1 forward_v I I I I #
coedge $-1 $178 $176 $180 $274 reversed $103 $-1 #
edge $-1 $191 -9.9157057270134903 $276 9.9157057270134903 $190 $361 forward 7 unknown #
vertex $-1 $274 $362 #
straight-curve $-1 -43.844111453596604 -26.26686038700441 0 0 0 -1 I I #
edge $-1 $272 -26.26686038700441 $276 26.26686038700441 $270 $363 forward 7 unknown #
straight-curve $-1 0 -26.26686038700441 -9.9157057270134903 -1 0 0 I I #
vertex $-1 $183 $364 #
straight-curve $-1 0 26.26686038700441 -9.9157057270134903 1 0 0 I I #
point $-1 43.844111453596604 26.26686038700441 -9.9157057270134903 #
point $-1 43.844111453596604 -26.26686038700441 -9.9157057270134903 #
straight-curve $-1 -43.844111453596604 0 9.9157057270134903 0 -1 0 I I #
point $-1 -43.844111453596604 26.26686038700441 9.9157057270134903 #
point $-1 -43.844111453596604 -26.26686038700441 9.9157057270134903 #
straight-curve $-1 43.844111453596604 -26.26686038700441 0 0 0 -1 I I #
straight-curve $-1 43.844111453596604 26.26686038700441 0 0 0 -1 I I #
face $-1 $365 $213 $16 $-1 $366 reversed single #
plane-surface $-1 -43.844111453596604 0 0 1 0 0 0 0 -1 forward_v I I I I #
coedge $-1 $209 $203 $310 $367 forward $122 $-1 #
coedge $-1 $203 $209 $212 $307 forward $122 $-1 #
coedge $-1 $297 $296 $203 $290 reversed $298 $-1 #
edge $-1 $368 -26.26686038700441 $369 26.26686038700441 $289 $370 forward 7 unknown #
coedge $-1 $205 $204 $223 $312 forward $71 $-1 #
coedge $-1 $306 $217 $204 $293 reversed $213 $-1 #
edge $-1 $300 -43.844111453596604 $315 43.844111453596604 $292 $371 forward 7 unknown #
coedge $-1 $220 $372 $205 $295 reversed $201 $-1 #
edge $-1 $313 -43.844111453596604 $299 43.844111453596604 $294 $373 forward 7 unknown #
coedge $-1 $289 $206 $372 $374 forward $298 $-1 #
coedge $-1 $206 $289 $306 $375 reversed $298 $-1 #
loop $-1 $-1 $296 $365 #
vertex $-1 $207 $376 #
vertex $-1 $207 $377 #
straight-curve $-1 43.844111453596604 0 9.9157057270134903 0 1 0 I I #
edge $-1 $221 -1.8714468498052774 $303 1.8714468498052774 $208 $378 forward 7 unknown #
vertex $-1 $210 $379 #
straight-curve $-1 -51.768372346583199 0 -9.9157057270134903 0 1 0 I I #
straight-curve $-1 -51.768372346583199 0 -6.1728120274029354 0 -1 0 I I #
coedge $-1 $212 $292 $297 $375 forward $213 $-1 #
edge $-1 $215 -51.768372346583199 $368 43.844111453596604 $212 $380 forward 7 unknown #
point $-1 -51.768372346583199 26.26686038700441 -6.1728120274029354 #
point $-1 -51.768372346583199 26.26686038700441 -9.9157057270134903 #
coedge $-1 $372 $219 $287 $367 reversed $201 $-1 #
point $-1 -51.768372346583199 -26.26686038700441 -6.1728120274029354 #
edge $-1 $315 -26.26686038700441 $313 26.26686038700441 $223 $381 forward 7 unknown #
vertex $-1 $312 $382 #
straight-curve $-1 -43.844111453596604 -26.26686038700441 0 0 0 -1 I I #
vertex $-1 $293 $383 #
straight-curve $-1 -43.844111453596604 26.26686038700441 0 0 0 -1 I I #
face $-1 $384 $324 $17 $-1 $385 forward single #
loop $-1 $-1 $386 $228 #
plane-surface $-1 -51.768372346583199 0 -8.0442588772082129 1 0 0 0 0 -1 forward_v I I I I #
coedge $-1 $387 $388 $389 $390 reversed $229 $-1 #
coedge $-1 $231 $244 $391 $392 reversed $79 $-1 #
coedge $-1 $393 $232 $231 $323 forward $324 $-1 #
edge $-1 $234 -12.516731774507672 $394 26.26686038700441 $231 $395 forward 7 unknown #
loop $-1 $-1 $232 $317 #
straight-curve $-1 39.012933559703512 -12.516731774507672 9.9157057270134885 1 0 0 I I #
point $-1 43.844111453596604 -12.516731774507672 9.9157057270134903 #
coedge $-1 $236 $396 $240 $331 forward $324 $-1 #
straight-curve $-1 38.815475512546996 -9.6958980403780206 9.9157057270134956 0 1 0 I I #
point $-1 38.815475512546989 -12.516731774507672 9.9157057270134885 #
coedge $-1 $397 $240 $398 $399 forward $141 $-1 #
edge $-1 $400 -43.844111453596604 $242 38.815475512546989 $240 $401 forward 7 unknown #
coedge $-1 $241 $402 $403 $404 reversed $141 $-1 #
point $-1 38.815475512546989 -26.26686038700441 9.9157057270134885 #
coedge $-1 $403 $405 $244 $335 forward $406 $-1 #
edge $-1 $407 -26.26686038700441 $336 26.26686038700441 $244 $408 forward 7 unknown #
vertex $-1 $245 $409 #
straight-curve $-1 43.844111453596604 -26.26686038700441 0 0 0 -1 I I #
face $-1 $410 $411 $18 $-1 $412 forward single #
loop $-1 $-1 $413 $248 #
plane-surface $-1 0 -26.26686038700441 0 0 1 0 0 0 1 forward_v I I I I #
coedge $-1 $347 $414 $251 $344 forward $249 $-1 #
coedge $-1 $343 $251 $415 $416 reversed $156 $-1 #
coedge $-1 $251 $342 $345 $417 forward $156 $-1 #
edge $-1 $418 50.109167951866155 $419 59.18106766988889 $341 $420 forward 7 unknown #
coedge $-1 $421 $252 $343 $417 reversed $158 $-1 #
coedge $-1 $252 $421 $413 $422 reversed $158 $-1 #
coedge $-1 $423 $341 $252 $348 forward $249 $-1 #
edge $-1 $419 2.8208337341296517 $424 16.570962346626388 $347 $425 forward 7 unknown #
vertex $-1 $253 $426 #
point $-1 37.884313531102634 -22.338252212005344 1.7548641280090005 #
face $-1 $427 $428 $19 $-1 $429 reversed single #
loop $-1 $-1 $430 $257 #
plane-surface $-1 78.025867119407025 -12.516731774507672 120.04974735775929 0 -1 0 -0.87461971476443456 0 -0.48480960649040278 forward_v I I I I #
coedge $-1 $354 $354 $-1 $431 forward $259 $-1 #
edge $-1 $432 0 $432 6.2831853071796004 $260 $433 forward 7 unknown #
vertex $-1 $263 $434 #
ellipse-curve $-1 41.329793483071796 -22.338252212005344 5.3797558680021247 -0.87461971476443456 0 -0.48480960649040278 0.72721440973560414 0 -1.311929572146652 1 I I #
vertex $-1 $264 $435 #
point $-1 37.884313531102634 -16.445339949506739 1.7548641280090005 #
loop $-1 $-1 $436 $163 #
straight-curve $-1 -43.844111453596604 26.26686038700441 0 0 0 -1 I I #
point $-1 -43.844111453596604 -26.26686038700441 -9.9157057270134903 #
straight-curve $-1 -43.844111453596604 0 -9.9157057270134903 0 1 0 I I #
point $-1 -43.844111453596604 26.26686038700441 -9.9157057270134903 #
face $-1 $-1 $298 $16 $-1 $437 reversed single #
plane-surface $-1 0 26.26686038700441 0 0 -1 0 0 0 -1 forward_v I I I I #
edge $-1 $369 -91.650353353686512 $303 3.9621304464932976 $310 $438 forward 7 unknown #
vertex $-1 $290 $439 #
vertex $-1 $374 $440 #
straight-curve $-1 43.844111453596604 0 -9.9157057270134903 0 -1 0 I I #
straight-curve $-1 0 26.26686038700441 9.9157057270134903 -1 0 0 I I #
coedge $-1 $294 $310 $296 $374 reversed $201 $-1 #
straight-curve $-1 0 -26.26686038700441 9.9157057270134903 1 0 0 I I #
edge $-1 $299 -9.9157057270134903 $369 9.9157057270134903 $296 $441 forward 7 unknown #
edge $-1 $300 -9.9157057270134903 $368 9.9157057270134903 $297 $442 forward 7 unknown #
point $-1 43.844111453596604 -26.26686038700441 9.9157057270134903 #
point $-1 43.844111453596604 26.26686038700441 9.9157057270134903 #
straight-curve $-1 -51.768372346583199 -26.26686038700441 -8.0442588772082129 0 0 -1 I I #
point $-1 -51.768372346583199 -26.26686038700441 -9.9157057270134903 #
straight-curve $-1 0 26.26686038700441 -9.9157057270134903 1 0 0 I I #
straight-curve $-1 -43.844111453596604 0 9.9157057270134903 0 -1 0 I I #
point $-1 -43.844111453596604 -26.26686038700441 9.9157057270134903 #
point $-1 -43.844111453596604 26.26686038700441 9.9157057270134903 #
face $-1 $443 $406 $17 $-1 $444 reversed single #
plane-surface $-1 0 0 9.9157057270134903 0 0 1 1 0 0 forward_v I I I I #
coedge $-1 $445 $446 $447 $448 forward $318 $-1 #
coedge $-1 $449 $320 $450 $451 forward $229 $-1 #
coedge $-1 $320 $449 $397 $452 forward $229 $-1 #
coedge $-1 $398 $453 $320 $390 forward $454 $-1 #
edge $-1 $455 -26.26686038700441 $456 26.26686038700441 $389 $457 forward 7 unknown #
coedge $-1 $458 $459 $321 $392 forward $460 $-1 #
edge $-1 $394 -9.9157057270134903 $407 9.9157057270134903 $321 $461 forward 7 unknown #
coedge $-1 $396 $322 $459 $462 forward $324 $-1 #
vertex $-1 $323 $463 #
straight-curve $-1 43.844111453596604 0 9.9157057270134903 0 1 0 I I #
coedge $-1 $327 $393 $464 $465 forward $324 $-1 #
coedge $-1 $402 $330 $388 $452 reversed $141 $-1 #
coedge $-1 $464 $389 $330 $399 reversed $454 $-1 #
edge $-1 $400 -9.9157057270134903 $456 6.1728120274029354 $398 $466 forward 7 unknown #
vertex $-1 $465 $467 #
straight-curve $-1 0 -26.26686038700441 9.9157057270134903 1 0 0 I I #
coedge $-1 $332 $397 $468 $469 forward $141 $-1 #
coedge $-1 $470 $334 $332 $404 forward $406 $-1 #
edge $-1 $336 -91.650353353686512 $471 3.9621304464932976 $332 $472 forward 7 unknown #
coedge $-1 $334 $470 $458 $473 forward $406 $-1 #
loop $-1 $-1 $334 $384 #
vertex $-1 $335 $474 #
straight-curve $-1 43.844111453596604 0 -9.9157057270134903 0 -1 0 I I #
point $-1 43.844111453596604 -26.26686038700441 -9.9157057270134903 #
face $-1 $475 $476 $18 $-1 $477 reversed single #
loop $-1 $-1 $478 $338 #
plane-surface $-1 -47.806241900089901 0 -6.1728120274029354 0 0 1 1 0 0 forward_v I I I I #
coedge $-1 $479 $480 $346 $422 forward $339 $-1 #
coedge $-1 $341 $481 $482 $483 reversed $249 $-1 #
coedge $-1 $482 $484 $342 $416 forward $485 $-1 #
edge $-1 $486 -0.19745804715652326 $418 4.8311778938930914 $415 $487 forward 7 unknown #
edge $-1 $486 77.315829551680849 $419 87.688222907193207 $343 $488 forward 7 unknown #
vertex $-1 $483 $489 #
vertex $-1 $348 $490 #
straight-curve $-1 43.844111453596604 -12.516731774507672 60.024873678879644 0 0 -1 I I #
coedge $-1 $346 $345 $484 $491 reversed $158 $-1 #
edge $-1 $424 -54.103129978516364 $492 -43.730736623004006 $413 $493 forward 7 unknown #
coedge $-1 $494 $347 $480 $495 forward $249 $-1 #
vertex $-1 $495 $496 #
straight-curve $-1 43.844111453596604 -9.6958980403780206 0.84380600899075375 0 -1 0 I I #
point $-1 35.84516954922038 -22.338252212005344 2.3395792904200485 #
face $-1 $497 $498 $19 $-1 $499 reversed single #
loop $-1 $-1 $500 $351 #
plane-surface $-1 43.844111453596604 0 0 -1 0 0 0 0 1 forward_v I I I I #
coedge $-1 $501 $502 $500 $503 reversed $352 $-1 #
edge $-1 $504 1 $504 0 $354 $-1 forward 7 unknown #
vertex $-1 $355 $505 #
ellipse-curve $-1 37.157099121367033 -22.338252212005344 3.0667937001556522 0.87461971476443456 0 0.48480960649040278 0.72721440973560414 0 -1.311929572146652 1 I I #
point $-1 42.057007892807391 -22.338252212005344 4.0678262958554683 #
point $-1 35.84516954922038 -16.445339949506739 2.3395792904200485 #
coedge $-1 $506 $507 $508 $509 reversed $360 $-1 #
plane-surface $-1 43.844111453596604 0 0 -1 0 0 0 0 1 forward_v I I I I #
straight-curve $-1 -47.806241900089901 -26.26686038700441 -9.9157057270134903 -1 0 0 I I #
point $-1 43.844111453596604 26.26686038700441 -9.9157057270134903 #
point $-1 43.844111453596604 -26.26686038700441 -9.9157057270134903 #
straight-curve $-1 43.844111453596604 -26.26686038700441 0 0 0 -1 I I #
straight-curve $-1 43.844111453596604 26.26686038700441 0 0 0 -1 I I #
face $-1 $510 $454 $17 $-1 $511 reversed single #
plane-surface $-1 0 0 -9.9157057270134903 0 0 1 1 0 0 forward_v I I I I #
coedge $-1 $468 $386 $470 $512 reversed $318 $-1 #
coedge $-1 $386 $468 $449 $513 reversed $318 $-1 #
coedge $-1 $450 $458 $386 $448 reversed $460 $-1 #
edge $-1 $514 -1.8714468498052774 $515 1.8714468498052774 $447 $516 forward 7 unknown #
coedge $-1 $388 $387 $446 $513 forward $229 $-1 #
coedge $-1 $517 $447 $387 $451 reversed $460 $-1 #
edge $-1 $455 -3.9621304464932976 $514 3.9621304464932976 $450 $518 forward 7 unknown #
edge $-1 $519 -3.9621304464932976 $456 3.9621304464932976 $397 $520 forward 7 unknown #
coedge $-1 $389 $464 $517 $521 forward $454 $-1 #
loop $-1 $-1 $389 $443 #
vertex $-1 $521 $522 #
vertex $-1 $452 $523 #
straight-curve $-1 -43.844111453596604 0 -6.1728120274029354 0 -1 0 I I #
coedge $-1 $447 $391 $405 $473 reversed $460 $-1 #
coedge $-1 $391 $517 $393 $462 reversed $460 $-1 #
loop $-1 $-1 $391 $510 #
straight-curve $-1 43.844111453596604 26.26686038700441 0 0 0 -1 I I #
edge $-1 $394 -43.844111453596604 $524 43.844111453596604 $459 $525 forward 7 unknown #
point $-1 43.844111453596604 26.26686038700441 9.9157057270134903 #
coedge $-1 $453 $398 $396 $465 reversed $454 $-1 #
edge $-1 $524 -26.26686038700441 $400 26.26686038700441 $464 $526 forward 7 unknown #
straight-curve $-1 -43.844111453596604 -26.26686038700441 0 0 0 -1 I I #
point $-1 -43.844111453596604 -26.26686038700441 9.9157057270134903 #
coedge $-1 $446 $445 $402 $469 reversed $318 $-1 #
edge $-1 $519 -1.8714468498052774 $471 1.8714468498052774 $468 $527 forward 7 unknown #
coedge $-1 $405 $403 $445 $512 forward $406 $-1 #
vertex $-1 $512 $528 #
straight-curve $-1 -47.806241900089901 -26.26686038700441 -9.9157057270134903 -1 0 0 I I #
edge $-1 $515 -51.768372346583199 $407 43.844111453596604 $458 $529 forward 7 unknown #
point $-1 43.844111453596604 26.26686038700441 -9.9157057270134903 #
face $-1 $530 $485 $18 $-1 $531 forward single #
loop $-1 $-1 $532 $410 #
plane-surface $-1 -51.768372346583199 0 -8.0442588772082129 1 0 0 0 0 -1 forward_v I I I I #
coedge $-1 $533 $534 $535 $536 reversed $411 $-1 #
coedge $-1 $537 $413 $538 $539 reversed $339 $-1 #
coedge $-1 $413 $540 $423 $495 reversed $339 $-1 #
coedge $-1 $414 $494 $541 $542 reversed $249 $-1 #
coedge $-1 $543 $415 $414 $483 forward $485 $-1 #
edge $-1 $418 -12.516731774507672 $544 26.26686038700441 $414 $545 forward 7 unknown #
coedge $-1 $415 $538 $421 $491 forward $485 $-1 #
loop $-1 $-1 $415 $475 #
vertex $-1 $491 $546 #
straight-curve $-1 39.012933559703512 -12.516731774507672 9.9157057270134885 1 0 0 I I #
straight-curve $-1 1.332018612117551 -12.516731774507672 77.537654516280227 0.48480960649040278 0 -0.87461971476443456 I I #
point $-1 43.844111453596604 -12.516731774507672 9.9157057270134903 #
point $-1 43.844111453596604 -12.516731774507672 0.84380600899075375 #
edge $-1 $492 -16.570962346626388 $486 -2.8208337341296517 $484 $547 forward 7 unknown #
vertex $-1 $491 $548 #
straight-curve $-1 17.614394298812979 -26.26686038700441 48.163470118663867 -0.48480960649040278 0 0.87461971476443456 I I #
coedge $-1 $481 $423 $549 $550 reversed $249 $-1 #
edge $-1 $424 -0.84380600899075819 $551 9.9157057270134903 $423 $552 forward 7 unknown #
point $-1 43.844111453596604 -26.26686038700441 0.84380600899075819 #
face $-1 $553 $554 $19 $-1 $555 forward single #
loop $-1 $-1 $556 $427 #
plane-surface $-1 0 -26.26686038700441 0 0 1 0 0 0 1 forward_v I I I I #
coedge $-1 $508 $557 $430 $503 forward $428 $-1 #
coedge $-1 $502 $430 $558 $559 reversed $352 $-1 #
coedge $-1 $430 $501 $506 $560 forward $352 $-1 #
edge $-1 $561 50.109167951866155 $562 59.18106766988889 $500 $563 forward 7 unknown #
vertex $-1 $431 $564 #
point $-1 37.884313531102634 -22.338252212005344 1.7548641280090005 #
coedge $-1 $565 $436 $502 $560 reversed $360 $-1 #
coedge $-1 $436 $565 $556 $566 reversed $360 $-1 #
coedge $-1 $567 $500 $436 $509 forward $428 $-1 #
edge $-1 $562 2.8208337341296517 $568 16.570962346626388 $508 $569 forward 7 unknown #
face $-1 $-1 $460 $17 $-1 $570 reversed single #
plane-surface $-1 -43.844111453596604 0 0 1 0 0 0 0 -1 forward_v I I I I #
edge $-1 $471 -26.26686038700441 $515 26.26686038700441 $445 $571 forward 7 unknown #
edge $-1 $514 -26.26686038700441 $519 26.26686038700441 $446 $572 forward 7 unknown #
vertex $-1 $451 $573 #
vertex $-1 $473 $574 #
straight-curve $-1 -51.768372346583199 26.26686038700441 -8.0442588772082129 0 0 -1 I I #
coedge $-1 $459 $450 $453 $521 reversed $460 $-1 #
straight-curve $-1 -47.806241900089901 26.26686038700441 -6.1728120274029354 -1 0 0 I I #
vertex $-1 $513 $575 #
straight-curve $-1 -47.806241900089901 -26.26686038700441 -6.1728120274029354 1 0 0 I I #
edge $-1 $524 -9.9157057270134903 $455 6.1728120274029354 $517 $576 forward 7 unknown #
point $-1 -43.844111453596604 26.26686038700441 -6.1728120274029354 #
point $-1 -43.844111453596604 -26.26686038700441 -6.1728120274029354 #
vertex $-1 $462 $577 #
straight-curve $-1 0 26.26686038700441 9.9157057270134903 -1 0 0 I I #
straight-curve $-1 -43.844111453596604 0 9.9157057270134903 0 -1 0 I I #
straight-curve $-1 -51.768372346583199 -26.26686038700441 -8.0442588772082129 0 0 -1 I I #
point $-1 -51.768372346583199 -26.26686038700441 -9.9157057270134903 #
straight-curve $-1 0 26.26686038700441 -9.9157057270134903 1 0 0 I I #
face $-1 $578 $579 $18 $-1 $580 reversed single #
plane-surface $-1 0 0 9.9157057270134903 0 0 1 1 0 0 forward_v I I I I #
coedge $-1 $581 $582 $583 $584 forward $476 $-1 #
coedge $-1 $585 $478 $586 $587 forward $411 $-1 #
coedge $-1 $478 $585 $588 $589 forward $411 $-1 #
coedge $-1 $590 $591 $478 $536 forward $592 $-1 #
edge $-1 $593 -26.26686038700441 $594 26.26686038700441 $535 $595 forward 7 unknown #
coedge $-1 $588 $479 $590 $596 forward $339 $-1 #
coedge $-1 $484 $597 $479 $539 forward $485 $-1 #
edge $-1 $598 -43.844111453596604 $492 38.815475512546989 $479 $599 forward 7 unknown #
coedge $-1 $480 $600 $601 $602 reversed $339 $-1 #
coedge $-1 $603 $604 $481 $542 forward $605 $-1 #
edge $-1 $544 -9.9157057270134903 $606 9.9157057270134903 $481 $607 forward 7 unknown #
coedge $-1 $597 $482 $604 $608 forward $485 $-1 #
vertex $-1 $483 $609 #
straight-curve $-1 43.844111453596604 0 9.9157057270134903 0 1 0 I I #
point $-1 38.815475512546989 -12.516731774507672 9.9157057270134885 #
straight-curve $-1 38.815475512546996 -9.6958980403780206 9.9157057270134956 0 1 0 I I #
point $-1 38.815475512546989 -26.26686038700441 9.9157057270134885 #
coedge $-1 $601 $610 $494 $550 forward $579 $-1 #
edge $-1 $606 -26.26686038700441 $551 26.26686038700441 $494 $611 forward 7 unknown #
vertex $-1 $495 $612 #
straight-curve $-1 43.844111453596604 -26.26686038700441 0 0 0 -1 I I #
face $-1 $613 $614 $19 $-1 $615 reversed single #
loop $-1 $-1 $616 $497 #
plane-surface $-1 -47.806241900089901 0 -6.1728120274029354 0 0 1 1 0 0 forward_v I I I I #
coedge $-1 $617 $618 $507 $566 forward $498 $-1 #
coedge $-1 $500 $619 $620 $621 reversed $428 $-1 #
coedge $-1 $620 $622 $501 $559 forward $623 $-1 #
edge $-1 $624 -0.19745804715652326 $561 4.8311778938930914 $558 $625 forward 7 unknown #
edge $-1 $624 77.315829551680849 $562 87.688222907193207 $502 $626 forward 7 unknown #
vertex $-1 $621 $627 #
vertex $-1 $509 $628 #
straight-curve $-1 43.844111453596604 -12.516731774507672 60.024873678879644 0 0 -1 I I #
point $-1 35.84516954922038 -22.338252212005344 2.3395792904200485 #
coedge $-1 $507 $506 $622 $629 reversed $360 $-1 #
edge $-1 $568 -54.103129978516364 $630 -43.730736623004006 $556 $631 forward 7 unknown #
coedge $-1 $632 $508 $618 $633 forward $428 $-1 #
vertex $-1 $633 $634 #
straight-curve $-1 43.844111453596604 -9.6958980403780206 0.84380600899075375 0 -1 0 I I #
plane-surface $-1 0 26.26686038700441 0 0 -1 0 0 0 -1 forward_v I I I I #
straight-curve $-1 -51.768372346583199 0 -9.9157057270134903 0 1 0 I I #
straight-curve $-1 -51.768372346583199 0 -6.1728120274029354 0 -1 0 I I #
point $-1 -51.768372346583199 26.26686038700441 -6.1728120274029354 #
point $-1 -51.768372346583199 26.26686038700441 -9.9157057270134903 #
point $-1 -51.768372346583199 -26.26686038700441 -6.1728120274029354 #
straight-curve $-1 -43.844111453596604 26.26686038700441 0 0 0 -1 I I #
point $-1 -43.844111453596604 26.26686038700441 9.9157057270134903 #
face $-1 $635 $592 $18 $-1 $636 reversed single #
loop $-1 $-1 $549 $530 #
plane-surface $-1 0 0 -9.9157057270134903 0 0 1 1 0 0 forward_v I I I I #
coedge $-1 $637 $532 $638 $639 reversed $476 $-1 #
coedge $-1 $532 $637 $585 $640 reversed $476 $-1 #
coedge $-1 $586 $603 $532 $584 reversed $605 $-1 #
edge $-1 $641 -1.8714468498052774 $642 1.8714468498052774 $583 $643 forward 7 unknown #
coedge $-1 $534 $533 $582 $640 forward $411 $-1 #
coedge $-1 $644 $583 $533 $587 reversed $605 $-1 #
edge $-1 $593 -3.9621304464932976 $641 3.9621304464932976 $586 $645 forward 7 unknown #
coedge $-1 $600 $537 $534 $589 reversed $339 $-1 #
edge $-1 $646 -3.9621304464932976 $594 3.9621304464932976 $588 $647 forward 7 unknown #
coedge $-1 $648 $535 $537 $596 reversed $592 $-1 #
coedge $-1 $535 $648 $644 $649 forward $592 $-1 #
loop $-1 $-1 $535 $578 #
vertex $-1 $649 $650 #
vertex $-1 $589 $651 #
straight-curve $-1 -43.844111453596604 0 -6.1728120274029354 0 -1 0 I I #
edge $-1 $598 -9.9157057270134903 $594 6.1728120274029354 $590 $652 forward 7 unknown #
coedge $-1 $538 $543 $648 $653 forward $485 $-1 #
vertex $-1 $653 $654 #
straight-curve $-1 0 -26.26686038700441 9.9157057270134903 1 0 0 I I #
coedge $-1 $540 $588 $637 $655 forward $339 $-1 #
coedge $-1 $638 $549 $540 $602 forward $579 $-1 #
edge $-1 $551 -91.650353353686512 $656 3.9621304464932976 $540 $657 forward 7 unknown #
coedge $-1 $583 $541 $610 $658 reversed $605 $-1 #
coedge $-1 $541 $644 $543 $608 reversed $605 $-1 #
loop $-1 $-1 $541 $635 #
vertex $-1 $550 $659 #
straight-curve $-1 43.844111453596604 26.26686038700441 0 0 0 -1 I I #
edge $-1 $544 -43.844111453596604 $660 43.844111453596604 $604 $661 forward 7 unknown #
point $-1 43.844111453596604 26.26686038700441 9.9157057270134903 #
coedge $-1 $549 $638 $603 $658 forward $579 $-1 #
straight-curve $-1 43.844111453596604 0 -9.9157057270134903 0 -1 0 I I #
point $-1 43.844111453596604 -26.26686038700441 -9.9157057270134903 #
face $-1 $662 $623 $19 $-1 $663 forward single #
loop $-1 $-1 $664 $553 #
plane-surface $-1 -51.768372346583199 0 -8.0442588772082129 1 0 0 0 0 -1 forward_v I I I I #
coedge $-1 $665 $666 $667 $668 reversed $554 $-1 #
coedge $-1 $669 $556 $670 $671 reversed $498 $-1 #
coedge $-1 $556 $672 $567 $633 reversed $498 $-1 #
coedge $-1 $557 $632 $673 $674 reversed $428 $-1 #
coedge $-1 $675 $558 $557 $621 forward $623 $-1 #
edge $-1 $561 -12.516731774507672 $676 26.26686038700441 $557 $677 forward 7 unknown #
coedge $-1 $558 $670 $565 $629 forward $623 $-1 #
loop $-1 $-1 $558 $613 #
vertex $-1 $629 $678 #
straight-curve $-1 39.012933559703512 -12.516731774507672 9.9157057270134885 1 0 0 I I #
straight-curve $-1 1.332018612117551 -12.516731774507672 77.537654516280227 0.48480960649040278 0 -0.87461971476443456 I I #
point $-1 43.844111453596604 -12.516731774507672 9.9157057270134903 #
point $-1 43.844111453596604 -12.516731774507672 0.84380600899075375 #
edge $-1 $630 -16.570962346626388 $624 -2.8208337341296517 $622 $679 forward 7 unknown #
vertex $-1 $629 $680 #
straight-curve $-1 17.614394298812979 -26.26686038700441 48.163470118663867 -0.48480960649040278 0 0.87461971476443456 I I #
coedge $-1 $619 $567 $681 $682 reversed $428 $-1 #
edge $-1 $568 -0.84380600899075819 $683 9.9157057270134903 $567 $684 forward 7 unknown #
point $-1 43.844111453596604 -26.26686038700441 0.84380600899075819 #
face $-1 $-1 $605 $18 $-1 $685 reversed single #
plane-surface $-1 -43.844111453596604 0 0 1 0 0 0 0 -1 forward_v I I I I #
coedge $-1 $582 $581 $600 $655 reversed $476 $-1 #
coedge $-1 $610 $601 $581 $639 forward $579 $-1 #
edge $-1 $656 -26.26686038700441 $642 26.26686038700441 $581 $686 forward 7 unknown #
edge $-1 $641 -26.26686038700441 $646 26.26686038700441 $582 $687 forward 7 unknown #
vertex $-1 $587 $688 #
vertex $-1 $658 $689 #
straight-curve $-1 -51.768372346583199 26.26686038700441 -8.0442588772082129 0 0 -1 I I #
coedge $-1 $604 $586 $591 $649 reversed $605 $-1 #
straight-curve $-1 -47.806241900089901 26.26686038700441 -6.1728120274029354 -1 0 0 I I #
vertex $-1 $640 $690 #
straight-curve $-1 -47.806241900089901 -26.26686038700441 -6.1728120274029354 1 0 0 I I #
coedge $-1 $591 $590 $597 $653 reversed $592 $-1 #
edge $-1 $660 -9.9157057270134903 $593 6.1728120274029354 $644 $691 forward 7 unknown #
point $-1 -43.844111453596604 26.26686038700441 -6.1728120274029354 #
point $-1 -43.844111453596604 -26.26686038700441 -6.1728120274029354 #
straight-curve $-1 -43.844111453596604 -26.26686038700441 0 0 0 -1 I I #
edge $-1 $660 -26.26686038700441 $598 26.26686038700441 $648 $692 forward 7 unknown #
point $-1 -43.844111453596604 -26.26686038700441 9.9157057270134903 #
edge $-1 $646 -1.8714468498052774 $656 1.8714468498052774 $637 $693 forward 7 unknown #
vertex $-1 $639 $694 #
straight-curve $-1 -47.806241900089901 -26.26686038700441 -9.9157057270134903 -1 0 0 I I #
edge $-1 $642 -51.768372346583199 $606 43.844111453596604 $603 $695 forward 7 unknown #
point $-1 43.844111453596604 26.26686038700441 -9.9157057270134903 #
vertex $-1 $608 $696 #
straight-curve $-1 0 26.26686038700441 9.9157057270134903 -1 0 0 I I #
face $-1 $697 $698 $19 $-1 $699 reversed single #
plane-surface $-1 0 0 9.9157057270134903 0 0 1 1 0 0 forward_v I I I I #
coedge $-1 $700 $701 $702 $703 forward $614 $-1 #
coedge $-1 $704 $616 $705 $706 forward $554 $-1 #
coedge $-1 $616 $704 $707 $708 forward $554 $-1 #
coedge $-1 $709 $710 $616 $668 forward $711 $-1 #
edge $-1 $712 -26.26686038700441 $713 26.26686038700441 $667 $714 forward 7 unknown #
coedge $-1 $707 $617 $709 $715 forward $498 $-1 #
coedge $-1 $622 $716 $617 $671 forward $623 $-1 #
edge $-1 $717 -43.844111453596604 $630 38.815475512546989 $617 $718 forward 7 unknown #
coedge $-1 $618 $719 $720 $721 reversed $498 $-1 #
coedge $-1 $722 $723 $619 $674 forward $724 $-1 #
edge $-1 $676 -9.9157057270134903 $725 9.9157057270134903 $619 $726 forward 7 unknown #
coedge $-1 $716 $620 $723 $727 forward $623 $-1 #
vertex $-1 $621 $728 #
straight-curve $-1 43.844111453596604 0 9.9157057270134903 0 1 0 I I #
point $-1 38.815475512546989 -12.516731774507672 9.9157057270134885 #
straight-curve $-1 38.815475512546996 -9.6958980403780206 9.9157057270134956 0 1 0 I I #
point $-1 38.815475512546989 -26.26686038700441 9.9157057270134885 #
coedge $-1 $720 $729 $632 $682 forward $698 $-1 #
edge $-1 $725 -26.26686038700441 $683 26.26686038700441 $632 $730 forward 7 unknown #
vertex $-1 $633 $731 #
straight-curve $-1 43.844111453596604 -26.26686038700441 0 0 0 -1 I I #
plane-surface $-1 0 26.26686038700441 0 0 -1 0 0 0 -1 forward_v I I I I #
straight-curve $-1 -51.768372346583199 0 -9.9157057270134903 0 1 0 I I #
straight-curve $-1 -51.768372346583199 0 -6.1728120274029354 0 -1 0 I I #
point $-1 -51.768372346583199 26.26686038700441 -6.1728120274029354 #
point $-1 -51.768372346583199 26.26686038700441 -9.9157057270134903 #
point $-1 -51.768372346583199 -26.26686038700441 -6.1728120274029354 #
straight-curve $-1 -43.844111453596604 26.26686038700441 0 0 0 -1 I I #
straight-curve $-1 -43.844111453596604 0 9.9157057270134903 0 -1 0 I I #
straight-curve $-1 -51.768372346583199 -26.26686038700441 -8.0442588772082129 0 0 -1 I I #
point $-1 -51.768372346583199 -26.26686038700441 -9.9157057270134903 #
straight-curve $-1 0 26.26686038700441 -9.9157057270134903 1 0 0 I I #
point $-1 -43.844111453596604 26.26686038700441 9.9157057270134903 #
face $-1 $732 $711 $19 $-1 $733 reversed single #
loop $-1 $-1 $681 $662 #
plane-surface $-1 0 0 -9.9157057270134903 0 0 1 1 0 0 forward_v I I I I #
coedge $-1 $734 $664 $735 $736 reversed $614 $-1 #
coedge $-1 $664 $734 $704 $737 reversed $614 $-1 #
coedge $-1 $705 $722 $664 $703 reversed $724 $-1 #
edge $-1 $738 -1.8714468498052774 $739 1.8714468498052774 $702 $740 forward 7 unknown #
coedge $-1 $666 $665 $701 $737 forward $554 $-1 #
coedge $-1 $741 $702 $665 $706 reversed $724 $-1 #
edge $-1 $712 -3.9621304464932976 $738 3.9621304464932976 $705 $742 forward 7 unknown #
coedge $-1 $719 $669 $666 $708 reversed $498 $-1 #
edge $-1 $743 -3.9621304464932976 $713 3.9621304464932976 $707 $744 forward 7 unknown #
coedge $-1 $745 $667 $669 $715 reversed $711 $-1 #
coedge $-1 $667 $745 $741 $746 forward $711 $-1 #
loop $-1 $-1 $667 $697 #
vertex $-1 $746 $747 #
vertex $-1 $708 $748 #
straight-curve $-1 -43.844111453596604 0 -6.1728120274029354 0 -1 0 I I #
edge $-1 $717 -9.9157057270134903 $713 6.1728120274029354 $709 $749 forward 7 unknown #
coedge $-1 $670 $675 $745 $750 forward $623 $-1 #
vertex $-1 $750 $751 #
straight-curve $-1 0 -26.26686038700441 9.9157057270134903 1 0 0 I I #
coedge $-1 $672 $707 $734 $752 forward $498 $-1 #
coedge $-1 $735 $681 $672 $721 forward $698 $-1 #
edge $-1 $683 -91.650353353686512 $753 3.9621304464932976 $672 $754 forward 7 unknown #
coedge $-1 $702 $673 $729 $755 reversed $724 $-1 #
coedge $-1 $673 $741 $675 $727 reversed $724 $-1 #
loop $-1 $-1 $673 $732 #
vertex $-1 $682 $756 #
straight-curve $-1 43.844111453596604 26.26686038700441 0 0 0 -1 I I #
edge $-1 $676 -43.844111453596604 $757 43.844111453596604 $723 $758 forward 7 unknown #
point $-1 43.844111453596604 26.26686038700441 9.9157057270134903 #
coedge $-1 $681 $735 $722 $755 forward $698 $-1 #
straight-curve $-1 43.844111453596604 0 -9.9157057270134903 0 -1 0 I I #
point $-1 43.844111453596604 -26.26686038700441 -9.9157057270134903 #
face $-1 $-1 $724 $19 $-1 $759 reversed single #
plane-surface $-1 -43.844111453596604 0 0 1 0 0 0 0 -1 forward_v I I I I #
coedge $-1 $701 $700 $719 $752 reversed $614 $-1 #
coedge $-1 $729 $720 $700 $736 forward $698 $-1 #
edge $-1 $753 -26.26686038700441 $739 26.26686038700441 $700 $760 forward 7 unknown #
edge $-1 $738 -26.26686038700441 $743 26.26686038700441 $701 $761 forward 7 unknown #
vertex $-1 $706 $762 #
vertex $-1 $755 $763 #
straight-curve $-1 -51.768372346583199 26.26686038700441 -8.0442588772082129 0 0 -1 I I #
coedge $-1 $723 $705 $710 $746 reversed $724 $-1 #
straight-curve $-1 -47.806241900089901 26.26686038700441 -6.1728120274029354 -1 0 0 I I #
vertex $-1 $737 $764 #
straight-curve $-1 -47.806241900089901 -26.26686038700441 -6.1728120274029354 1 0 0 I I #
coedge $-1 $710 $709 $716 $750 reversed $711 $-1 #
edge $-1 $757 -9.9157057270134903 $712 6.1728120274029354 $741 $765 forward 7 unknown #
point $-1 -43.844111453596604 26.26686038700441 -6.1728120274029354 #
point $-1 -43.844111453596604 -26.26686038700441 -6.1728120274029354 #
straight-curve $-1 -43.844111453596604 -26.26686038700441 0 0 0 -1 I I #
edge $-1 $757 -26.26686038700441 $717 26.26686038700441 $745 $766 forward 7 unknown #
point $-1 -43.844111453596604 -26.26686038700441 9.9157057270134903 #
edge $-1 $743 -1.8714468498052774 $753 1.8714468498052774 $734 $767 forward 7 unknown #
vertex $-1 $736 $768 #
straight-curve $-1 -47.806241900089901 -26.26686038700441 -9.9157057270134903 -1 0 0 I I #
edge $-1 $739 -51.768372346583199 $725 43.844111453596604 $722 $769 forward 7 unknown #
point $-1 43.844111453596604 26.26686038700441 -9.9157057270134903 #
vertex $-1 $727 $770 #
straight-curve $-1 0 26.26686038700441 9.9157057270134903 -1 0 0 I I #
plane-surface $-1 0 26.26686038700441 0 0 -1 0 0 0 -1 forward_v I I I I #
straight-curve $-1 -51.768372346583199 0 -9.9157057270134903 0 1 0 I I #
straight-curve $-1 -51.768372346583199 0 -6.1728120274029354 0 -1 0 I I #
point $-1 -51.768372346583199 26.26686038700441 -6.1728120274029354 #
point $-1 -51.768372346583199 26.26686038700441 -9.9157057270134903 #
point $-1 -51.768372346583199 -26.26686038700441 -6.1728120274029354 #
straight-curve $-1 -43.844111453596604 26.26686038700441 0 0 0 -1 I I #
straight-curve $-1 -43.844111453596604 0 9.9157057270134903 0 -1 0 I I #
straight-curve $-1 -51.768372346583199 -26.26686038700441 -8.0442588772082129 0 0 -1 I I #
point $-1 -51.768372346583199 -26.26686038700441 -9.9157057270134903 #
straight-curve $-1 0 26.26686038700441 -9.9157057270134903 1 0 0 I I #
point $-1 -43.844111453596604 26.26686038700441 9.9157057270134903 #
End-of-ACIS-data 