500 0 5 0           
7 Unknown 11 ACIS 5.0 NT 24 Fri Mar 26 03:01:58 1999 
-1 9.9999999999999995e-007 1e-010 
body $-1 $5 $-1 $6 #
body $-1 $7 $-1 $8 #
body $-1 $9 $-1 $10 #
body $-1 $11 $-1 $12 #
body $-1 $13 $-1 $14 #
lump $-1 $-1 $15 $0 #
transform $-1 1 0 0 0 1 0 0 0 1 43.055513168736837 20.293394296984424 8.4379198968423914 1 rotate no_reflect no_shear #
lump $-1 $-1 $16 $1 #
transform $-1 1 0 0 0 1 0 0 0 1 43.055513168736837 20.293394296984424 8.4379198968423914 1 rotate no_reflect no_shear #
lump $-1 $-1 $17 $2 #
transform $-1 1 0 0 0 1 0 0 0 1 43.055513168736837 20.293394296984424 8.4379198968423914 1 rotate no_reflect no_shear #
lump $-1 $-1 $18 $3 #
transform $-1 1 0 0 0 1 0 0 0 1 43.055513168736837 20.293394296984424 8.4379198968423914 1 rotate no_reflect no_shear #
lump $-1 $-1 $19 $4 #
transform $-1 1 0 0 0 1 0 0 0 1 43.055513168736837 20.293394296984424 8.4379198968423914 1 rotate no_reflect no_shear #
shell $-1 $-1 $-1 $20 $-1 $5 #
shell $-1 $-1 $-1 $21 $-1 $7 #
shell $-1 $-1 $-1 $22 $-1 $9 #
shell $-1 $-1 $-1 $23 $-1 $11 #
shell $-1 $-1 $-1 $24 $-1 $13 #
face $-1 $25 $26 $15 $-1 $27 forward single #
face $-1 $28 $29 $16 $-1 $30 forward single #
face $-1 $31 $32 $17 $-1 $33 forward single #
face $-1 $34 $35 $18 $-1 $36 reversed single #
face $-1 $37 $38 $19 $-1 $39 reversed single #
face $-1 $40 $41 $15 $-1 $42 reversed single #
loop $-1 $-1 $43 $20 #
plane-surface $-1 0 0 8.4379198968423914 0 0 1 1 0 0 forward_v I I I I #
face $-1 $44 $45 $16 $-1 $46 forward single #
loop $-1 $-1 $47 $21 #
plane-surface $-1 -40.106309906107604 -8.0991875886774309 0 0 1 0 0 0 1 forward_v I I I I #
face $-1 $48 $49 $17 $-1 $50 forward single #
loop $-1 $-1 $51 $22 #
plane-surface $-1 19.818912810141512 18.173992259809133 119.75221907218618 0 -1 0 -0.55919291073839883 0 -0.82903756765294845 forward_v I I I I #
face $-1 $52 $53 $18 $-1 $54 reversed single #
loop $-1 $55 $56 $23 #
cone-surface $-1 36.622265873297344 10.671269702796945 3.828548633824159 -0.55919291073839883 0 -0.82903756765294845 0.82903756765294845 0 -0.55919291073839883 1 I I 0 1 1 forward I I I I #
face $-1 $57 $58 $19 $-1 $59 reversed single #
loop $-1 $60 $61 $24 #
cone-surface $-1 36.622265873297344 15.172903237004256 3.828548633824159 -0.55919291073839883 0 -0.82903756765294845 0.82903756765294845 0 -0.55919291073839883 1 I I 0 1 1 forward I I I I #
face $-1 $62 $63 $15 $-1 $64 reversed single #
loop $-1 $-1 $65 $25 #
plane-surface $-1 0 0 -8.4379198968423914 0 0 1 1 0 0 forward_v I I I I #
coedge $-1 $66 $67 $68 $69 forward $26 $-1 #
face $-1 $70 $71 $16 $-1 $72 forward single #
loop $-1 $-1 $73 $28 #
plane-surface $-1 -40.106309906107604 -3.4175545032996411 0 0 -1 0 0 0 -1 forward_v I I I I #
coedge $-1 $74 $75 $76 $77 reversed $29 $-1 #
face $-1 $78 $79 $17 $-1 $80 forward single #
loop $-1 $-1 $81 $31 #
plane-surface $-1 -28.333762654181314 12.922086469900599 48.362943249268028 0.55919291073839883 0 0.82903756765294845 0.82903756765294845 0 -0.55919291073839883 forward_v I I I I #
coedge $-1 $82 $83 $84 $85 reversed $32 $-1 #
face $-1 $86 $87 $18 $-1 $88 forward single #
loop $-1 $89 $90 $34 #
cone-surface $-1 36.008419948958689 10.671269702796945 2.9184846429280533 -0.55919291073839883 0 -0.82903756765294845 0.41451878382647422 0 -0.27959645536919941 1 I I -0.70710678118654746 0.70710678118654746 0.5 forward I I I I #
loop $-1 $-1 $91 $23 #
coedge $-1 $56 $56 $92 $93 reversed $35 $-1 #
face $-1 $94 $95 $19 $-1 $96 reversed single #
loop $-1 $97 $98 $37 #
cone-surface $-1 36.008419948958689 15.172903237004256 2.9184846429280533 -0.55919291073839883 0 -0.82903756765294845 0.41451878382647422 0 -0.27959645536919941 1 I I -0.70710678118654746 0.70710678118654746 0.5 forward I I I I #
loop $-1 $-1 $99 $24 #
coedge $-1 $61 $61 $100 $101 reversed $38 $-1 #
face $-1 $102 $103 $15 $-1 $104 reversed single #
loop $-1 $-1 $105 $40 #
plane-surface $-1 0 -20.293394296984424 0 0 1 0 0 0 1 forward_v I I I I #
coedge $-1 $106 $107 $108 $109 forward $41 $-1 #
coedge $-1 $110 $43 $111 $112 forward $26 $-1 #
coedge $-1 $43 $110 $113 $114 forward $26 $-1 #
coedge $-1 $115 $116 $43 $69 reversed $117 $-1 #
edge $-1 $118 -20.293394296984424 $119 20.293394296984424 $68 $120 forward 7 unknown #
face $-1 $121 $122 $16 $-1 $123 forward single #
loop $-1 $-1 $124 $44 #
plane-surface $-1 -37.157106643478372 -5.758371045988536 0 -1 0 0 0 0 1 forward_v I I I I #
coedge $-1 $125 $126 $127 $128 reversed $45 $-1 #
coedge $-1 $129 $47 $130 $131 reversed $29 $-1 #
coedge $-1 $47 $129 $132 $133 reversed $29 $-1 #
coedge $-1 $134 $135 $47 $77 forward $136 $-1 #
edge $-1 $137 -8.4379198968423914 $138 8.4379198968423914 $76 $139 forward 7 unknown #
face $-1 $140 $141 $17 $-1 $142 forward single #
loop $-1 $-1 $143 $48 #
plane-surface $-1 19.818912810141512 7.6701806799920664 119.75221907218618 0 1 0 0.55919291073839883 0 0.82903756765294845 forward_v I I I I #
coedge $-1 $144 $145 $146 $147 reversed $49 $-1 #
coedge $-1 $83 $51 $145 $148 forward $32 $-1 #
coedge $-1 $51 $82 $149 $150 reversed $32 $-1 #
coedge $-1 $151 $146 $51 $85 forward $141 $-1 #
edge $-1 $152 20.948061110726023 $153 33.146056763666081 $84 $154 forward 7 unknown #
face $-1 $155 $156 $18 $-1 $157 forward single #
loop $-1 $-1 $158 $52 #
plane-surface $-1 19.818912810141512 18.173992259809133 119.75221907218618 0 -1 0 -0.55919291073839883 0 -0.82903756765294845 forward_v I I I I #
loop $-1 $-1 $159 $34 #
coedge $-1 $90 $90 $91 $160 forward $53 $-1 #
coedge $-1 $91 $91 $90 $160 reversed $55 $-1 #
coedge $-1 $92 $92 $56 $93 forward $156 $-1 #
edge $-1 $161 0 $161 6.2831853071796004 $92 $162 forward 7 unknown #
face $-1 $163 $164 $19 $-1 $165 reversed single #
loop $-1 $166 $167 $57 #
cone-surface $-1 36.622265873297344 10.671269702796945 3.828548633824159 -0.55919291073839883 0 -0.82903756765294845 0.82903756765294845 0 -0.55919291073839883 1 I I 0 1 1 forward I I I I #
loop $-1 $-1 $168 $37 #
coedge $-1 $98 $98 $99 $169 forward $58 $-1 #
coedge $-1 $99 $99 $98 $169 reversed $60 $-1 #
coedge $-1 $100 $100 $61 $101 forward $170 $-1 #
edge $-1 $171 0 $171 6.2831853071796004 $100 $172 forward 7 unknown #
face $-1 $173 $174 $15 $-1 $175 reversed single #
loop $-1 $-1 $176 $62 #
plane-surface $-1 -43.055513168736837 0 0 1 0 0 0 0 -1 forward_v I I I I #
coedge $-1 $177 $113 $178 $179 forward $63 $-1 #
coedge $-1 $180 $65 $177 $181 forward $41 $-1 #
coedge $-1 $65 $180 $182 $183 forward $41 $-1 #
coedge $-1 $116 $115 $65 $109 reversed $117 $-1 #
edge $-1 $184 -20.293394296984424 $185 20.293394296984424 $108 $186 forward 7 unknown #
coedge $-1 $67 $66 $187 $188 forward $26 $-1 #
coedge $-1 $189 $190 $66 $112 reversed $174 $-1 #
edge $-1 $119 -43.055513168736837 $191 43.055513168736837 $111 $192 forward 7 unknown #
coedge $-1 $105 $193 $67 $114 reversed $63 $-1 #
edge $-1 $194 -43.055513168736837 $118 43.055513168736837 $113 $195 forward 7 unknown #
coedge $-1 $108 $68 $193 $196 forward $117 $-1 #
coedge $-1 $68 $108 $189 $197 reversed $117 $-1 #
loop $-1 $-1 $115 $173 #
vertex $-1 $69 $198 #
vertex $-1 $69 $199 #
straight-curve $-1 43.055513168736837 0 8.4379198968423914 0 1 0 I I #
face $-1 $200 $136 $16 $-1 $201 reversed single #
loop $-1 $-1 $202 $70 #
plane-surface $-1 0 0 8.4379198968423914 0 0 1 1 0 0 forward_v I I I I #
coedge $-1 $203 $204 $129 $205 reversed $71 $-1 #
coedge $-1 $206 $73 $202 $207 reversed $45 $-1 #
coedge $-1 $73 $206 $208 $209 reversed $45 $-1 #
coedge $-1 $204 $203 $73 $128 forward $71 $-1 #
edge $-1 $210 -8.4379198968423914 $211 8.4379198968423914 $127 $212 forward 7 unknown #
coedge $-1 $75 $74 $124 $205 forward $29 $-1 #
coedge $-1 $213 $214 $74 $131 forward $122 $-1 #
edge $-1 $215 17.103951690424569 $137 23.002358215683035 $130 $216 forward 7 unknown #
coedge $-1 $217 $218 $75 $133 forward $219 $-1 #
edge $-1 $138 -23.002358215683035 $220 -17.103951690424569 $132 $221 forward 7 unknown #
coedge $-1 $222 $76 $218 $223 reversed $136 $-1 #
coedge $-1 $76 $222 $213 $224 reversed $136 $-1 #
loop $-1 $-1 $76 $121 #
vertex $-1 $224 $225 #
vertex $-1 $77 $226 #
straight-curve $-1 -43.055513168736837 -8.0991875886774309 0 0 0 -1 I I #
face $-1 $227 $228 $17 $-1 $229 forward single #
loop $-1 $-1 $230 $78 #
plane-surface $-1 0 0 8.4379198968423914 0 0 1 1 0 0 forward_v I I I I #
coedge $-1 $231 $232 $230 $233 reversed $79 $-1 #
coedge $-1 $234 $81 $232 $235 reversed $49 $-1 #
coedge $-1 $81 $234 $82 $148 reversed $49 $-1 #
coedge $-1 $84 $230 $81 $147 forward $141 $-1 #
edge $-1 $236 1.2091374450417671 $152 11.712949024858833 $146 $237 forward 7 unknown #
edge $-1 $152 71.39758495812427 $238 86.11102633747366 $82 $239 forward 7 unknown #
coedge $-1 $240 $241 $83 $150 forward $242 $-1 #
edge $-1 $153 51.438189639250695 $238 59.66584175114788 $149 $243 forward 7 unknown #
coedge $-1 $244 $84 $241 $245 forward $141 $-1 #
vertex $-1 $147 $246 #
vertex $-1 $245 $247 #
straight-curve $-1 9.9094564050707561 18.173992259809133 8.4379198968423879 1 0 0 I I #
face $-1 $248 $249 $18 $-1 $250 forward single #
loop $-1 $251 $92 $86 #
plane-surface $-1 -28.333762654181314 12.922086469900599 48.362943249268028 0.55919291073839883 0 0.82903756765294845 0.82903756765294845 0 -0.55919291073839883 forward_v I I I I #
coedge $-1 $252 $253 $254 $255 reversed $87 $-1 #
coedge $-1 $159 $159 $-1 $256 forward $89 $-1 #
edge $-1 $257 0 $257 6.2831853071796004 $90 $258 forward 7 unknown #
vertex $-1 $93 $259 #
ellipse-curve $-1 36.956515342266812 10.671269702796945 4.3240938408938066 -0.55919291073839883 0 -0.82903756765294845 0.82903756765294845 0 -0.55919291073839883 1 I I #
face $-1 $260 $261 $19 $-1 $262 forward single #
loop $-1 $263 $264 $94 #
cone-surface $-1 36.008419948958689 10.671269702796945 2.9184846429280533 -0.55919291073839883 0 -0.82903756765294845 0.41451878382647422 0 -0.27959645536919941 1 I I -0.70710678118654746 0.70710678118654746 0.5 forward I I I I #
loop $-1 $-1 $265 $57 #
coedge $-1 $167 $167 $266 $267 reversed $95 $-1 #
coedge $-1 $168 $168 $-1 $268 forward $97 $-1 #
edge $-1 $269 0 $269 6.2831853071796004 $98 $270 forward 7 unknown #
loop $-1 $271 $100 $260 #
vertex $-1 $101 $272 #
ellipse-curve $-1 36.956515342266812 15.172903237004256 4.3240938408938066 -0.55919291073839883 0 -0.82903756765294845 0.82903756765294845 0 -0.55919291073839883 1 I I #
face $-1 $-1 $117 $15 $-1 $273 reversed single #
loop $-1 $-1 $189 $102 #
plane-surface $-1 0 20.293394296984424 0 0 -1 0 0 0 -1 forward_v I I I I #
coedge $-1 $274 $187 $190 $275 forward $103 $-1 #
coedge $-1 $193 $105 $106 $181 reversed $63 $-1 #
coedge $-1 $187 $274 $105 $179 reversed $103 $-1 #
edge $-1 $194 -8.4379198968423914 $276 8.4379198968423914 $178 $277 forward 7 unknown #
coedge $-1 $107 $106 $274 $278 forward $41 $-1 #
edge $-1 $185 -43.055513168736837 $276 43.055513168736837 $177 $279 forward 7 unknown #
coedge $-1 $190 $189 $107 $183 reversed $174 $-1 #
edge $-1 $280 -43.055513168736837 $184 43.055513168736837 $182 $281 forward 7 unknown #
vertex $-1 $109 $282 #
vertex $-1 $196 $283 #
straight-curve $-1 43.055513168736837 0 -8.4379198968423914 0 -1 0 I I #
coedge $-1 $176 $178 $110 $188 reversed $103 $-1 #
edge $-1 $191 -20.293394296984424 $194 20.293394296984424 $187 $284 forward 7 unknown #
coedge $-1 $182 $111 $116 $197 forward $174 $-1 #
coedge $-1 $111 $182 $176 $275 reversed $174 $-1 #
vertex $-1 $112 $285 #
straight-curve $-1 0 20.293394296984424 8.4379198968423914 -1 0 0 I I #
coedge $-1 $113 $177 $115 $196 reversed $63 $-1 #
vertex $-1 $188 $286 #
straight-curve $-1 0 -20.293394296984424 8.4379198968423914 1 0 0 I I #
edge $-1 $118 -8.4379198968423914 $185 8.4379198968423914 $115 $287 forward 7 unknown #
edge $-1 $119 -8.4379198968423914 $184 8.4379198968423914 $116 $288 forward 7 unknown #
point $-1 43.055513168736837 -20.293394296984424 8.4379198968423914 #
point $-1 43.055513168736837 20.293394296984424 8.4379198968423914 #
face $-1 $289 $219 $16 $-1 $290 reversed single #
plane-surface $-1 -43.055513168736837 0 0 1 0 0 0 0 -1 forward_v I I I I #
coedge $-1 $214 $291 $125 $207 forward $122 $-1 #
coedge $-1 $127 $124 $214 $292 reversed $71 $-1 #
coedge $-1 $124 $127 $217 $293 reversed $71 $-1 #
edge $-1 $215 -8.4379198968423914 $220 8.4379198968423914 $124 $294 forward 7 unknown #
coedge $-1 $126 $125 $295 $296 reversed $45 $-1 #
edge $-1 $297 -23.002358215683035 $210 -17.103951690424569 $202 $298 forward 7 unknown #
coedge $-1 $299 $217 $126 $209 forward $219 $-1 #
edge $-1 $211 17.103951690424569 $300 23.002358215683035 $208 $301 forward 7 unknown #
vertex $-1 $207 $302 #
vertex $-1 $209 $303 #
straight-curve $-1 -37.157106643478372 -3.4175545032996411 0 0 0 -1 I I #
coedge $-1 $304 $130 $135 $224 forward $122 $-1 #
coedge $-1 $130 $202 $203 $292 forward $122 $-1 #
vertex $-1 $131 $305 #
straight-curve $-1 -20.053154953053802 -8.0991875886774309 8.4379198968423914 -1 0 0 I I #
coedge $-1 $208 $132 $204 $293 forward $219 $-1 #
coedge $-1 $132 $306 $134 $223 forward $219 $-1 #
loop $-1 $-1 $208 $200 #
vertex $-1 $133 $307 #
straight-curve $-1 -20.053154953053802 -8.0991875886774309 -8.4379198968423914 1 0 0 I I #
coedge $-1 $135 $134 $308 $309 reversed $136 $-1 #
edge $-1 $310 -20.293394296984424 $138 -8.0991875886774309 $134 $311 forward 7 unknown #
edge $-1 $137 8.0991875886774309 $312 20.293394296984424 $135 $313 forward 7 unknown #
point $-1 -43.055513168736837 -8.0991875886774309 8.4379198968423914 #
point $-1 -43.055513168736837 -8.0991875886774309 -8.4379198968423914 #
face $-1 $314 $315 $17 $-1 $316 forward single #
loop $-1 $-1 $317 $140 #
plane-surface $-1 -40.106309906107604 -8.0991875886774309 0 0 1 0 0 0 1 forward_v I I I I #
coedge $-1 $146 $318 $143 $233 forward $141 $-1 #
coedge $-1 $232 $143 $319 $320 reversed $79 $-1 #
coedge $-1 $143 $231 $144 $235 forward $79 $-1 #
edge $-1 $321 -33.146056763666081 $236 -20.948061110726023 $230 $322 forward 7 unknown #
coedge $-1 $145 $144 $240 $323 reversed $49 $-1 #
edge $-1 $324 -86.11102633747366 $236 -71.39758495812427 $232 $325 forward 7 unknown #
vertex $-1 $147 $326 #
straight-curve $-1 30.857517515796786 6.4610432349502993 8.4379198968423879 0 1 0 I I #
vertex $-1 $323 $327 #
straight-curve $-1 -28.333762654181314 18.173992259809133 48.362943249268028 0.82903756765294845 0 -0.55919291073839883 I I #
coedge $-1 $319 $149 $234 $323 forward $242 $-1 #
coedge $-1 $149 $328 $151 $245 reversed $242 $-1 #
loop $-1 $-1 $319 $329 #
straight-curve $-1 43.055513168736837 18.173992259809133 59.87610953609309 0 0 -1 I I #
coedge $-1 $330 $151 $331 $332 forward $141 $-1 #
edge $-1 $153 18.173992259809133 $333 20.293394296984424 $241 $334 forward 7 unknown #
point $-1 30.857517515796779 18.173992259809133 8.4379198968423879 #
point $-1 43.055513168736837 18.173992259809133 8.4379198968423914 #
face $-1 $335 $336 $18 $-1 $337 forward single #
loop $-1 $-1 $338 $155 #
plane-surface $-1 19.818912810141512 7.6701806799920664 119.75221907218618 0 1 0 0.55919291073839883 0 0.82903756765294845 forward_v I I I I #
loop $-1 $-1 $339 $86 #
coedge $-1 $253 $158 $340 $341 forward $87 $-1 #
coedge $-1 $158 $252 $342 $343 reversed $87 $-1 #
coedge $-1 $344 $345 $158 $255 forward $336 $-1 #
edge $-1 $346 20.948061110726023 $347 33.146056763666081 $254 $348 forward 7 unknown #
edge $-1 $349 1 $349 0 $159 $-1 forward 7 unknown #
vertex $-1 $160 $350 #
ellipse-curve $-1 36.288016404327891 10.671269702796945 3.3330034267545274 0.55919291073839883 0 0.82903756765294845 0.82903756765294845 0 -0.55919291073839883 1 I I #
point $-1 37.785552909919758 10.671269702796945 3.7649009301553926 #
face $-1 $351 $170 $19 $-1 $352 forward single #
loop $-1 $-1 $353 $163 #
plane-surface $-1 19.818912810141512 18.173992259809133 119.75221907218618 0 -1 0 -0.55919291073839883 0 -0.82903756765294845 forward_v I I I I #
loop $-1 $-1 $354 $94 #
coedge $-1 $264 $264 $265 $355 forward $164 $-1 #
coedge $-1 $265 $265 $264 $355 reversed $166 $-1 #
coedge $-1 $266 $266 $167 $267 forward $271 $-1 #
edge $-1 $356 0 $356 6.2831853071796004 $266 $357 forward 7 unknown #
edge $-1 $358 1 $358 0 $168 $-1 forward 7 unknown #
vertex $-1 $169 $359 #
ellipse-curve $-1 36.288016404327891 15.172903237004256 3.3330034267545274 0.55919291073839883 0 0.82903756765294845 0.82903756765294845 0 -0.55919291073839883 1 I I #
loop $-1 $360 $266 $260 #
point $-1 37.785552909919758 15.172903237004256 3.7649009301553926 #
plane-surface $-1 43.055513168736837 0 0 -1 0 0 0 0 1 forward_v I I I I #
coedge $-1 $178 $176 $180 $278 reversed $103 $-1 #
edge $-1 $191 -8.4379198968423914 $280 8.4379198968423914 $190 $361 forward 7 unknown #
vertex $-1 $278 $362 #
straight-curve $-1 -43.055513168736837 -20.293394296984424 0 0 0 -1 I I #
edge $-1 $276 -20.293394296984424 $280 20.293394296984424 $274 $363 forward 7 unknown #
straight-curve $-1 0 -20.293394296984424 -8.4379198968423914 -1 0 0 I I #
vertex $-1 $183 $364 #
straight-curve $-1 0 20.293394296984424 -8.4379198968423914 1 0 0 I I #
point $-1 43.055513168736837 20.293394296984424 -8.4379198968423914 #
point $-1 43.055513168736837 -20.293394296984424 -8.4379198968423914 #
straight-curve $-1 -43.055513168736837 0 8.4379198968423914 0 -1 0 I I #
point $-1 -43.055513168736837 20.293394296984424 8.4379198968423914 #
point $-1 -43.055513168736837 -20.293394296984424 8.4379198968423914 #
straight-curve $-1 43.055513168736837 -20.293394296984424 0 0 0 -1 I I #
straight-curve $-1 43.055513168736837 20.293394296984424 0 0 0 -1 I I #
face $-1 $365 $366 $16 $-1 $367 reversed single #
plane-surface $-1 0 0 -8.4379198968423914 0 0 1 1 0 0 forward_v I I I I #
coedge $-1 $202 $368 $369 $370 forward $122 $-1 #
edge $-1 $210 0.53836898030537306 $215 5.2200020656831629 $214 $371 forward 7 unknown #
edge $-1 $220 -5.2200020656831629 $211 -0.53836898030537306 $217 $372 forward 7 unknown #
straight-curve $-1 -37.157106643478372 -8.0991875886774309 0 0 0 -1 I I #
coedge $-1 $369 $373 $206 $296 forward $374 $-1 #
edge $-1 $300 -8.4379198968423914 $297 8.4379198968423914 $295 $375 forward 7 unknown #
vertex $-1 $296 $376 #
straight-curve $-1 -20.053154953053802 -3.4175545032996411 8.4379198968423914 1 0 0 I I #
coedge $-1 $377 $208 $373 $378 forward $219 $-1 #
vertex $-1 $378 $379 #
straight-curve $-1 -20.053154953053802 -3.4175545032996411 -8.4379198968423914 -1 0 0 I I #
point $-1 -37.157106643478372 -3.4175545032996411 8.4379198968423914 #
point $-1 -37.157106643478372 -3.4175545032996411 -8.4379198968423914 #
coedge $-1 $380 $213 $381 $382 forward $122 $-1 #
point $-1 -37.157106643478372 -8.0991875886774309 8.4379198968423914 #
coedge $-1 $218 $383 $384 $385 forward $219 $-1 #
point $-1 -37.157106643478372 -8.0991875886774309 -8.4379198968423914 #
coedge $-1 $384 $381 $222 $309 forward $366 $-1 #
edge $-1 $312 -8.4379198968423914 $310 8.4379198968423914 $222 $386 forward 7 unknown #
vertex $-1 $223 $387 #
straight-curve $-1 -43.055513168736837 0 -8.4379198968423914 0 1 0 I I #
vertex $-1 $224 $388 #
straight-curve $-1 -43.055513168736837 0 8.4379198968423914 0 -1 0 I I #
face $-1 $389 $390 $17 $-1 $391 forward single #
loop $-1 $-1 $392 $227 #
plane-surface $-1 -40.106309906107604 -3.4175545032996411 0 0 -1 0 0 0 -1 forward_v I I I I #
coedge $-1 $393 $394 $395 $396 reversed $228 $-1 #
coedge $-1 $230 $397 $398 $399 forward $141 $-1 #
coedge $-1 $398 $240 $231 $320 forward $242 $-1 #
edge $-1 $324 -59.66584175114788 $321 -51.438189639250695 $319 $400 forward 7 unknown #
vertex $-1 $320 $401 #
straight-curve $-1 9.9094564050707561 7.6701806799920664 8.4379198968423879 -1 0 0 I I #
edge $-1 $238 -11.712949024858833 $324 -1.2091374450417671 $240 $402 forward 7 unknown #
vertex $-1 $323 $403 #
straight-curve $-1 -28.333762654181314 7.6701806799920664 48.362943249268028 -0.82903756765294845 0 0.55919291073839883 I I #
point $-1 30.857517515796779 7.6701806799920664 8.4379198968423879 #
point $-1 43.055513168736837 18.173992259809133 0.21026778494520926 #
coedge $-1 $241 $404 $405 $406 reversed $242 $-1 #
face $-1 $-1 $242 $17 $-1 $407 reversed single #
coedge $-1 $408 $244 $409 $410 forward $141 $-1 #
coedge $-1 $405 $411 $244 $332 reversed $412 $-1 #
edge $-1 $333 -43.055513168736837 $413 43.055513168736837 $331 $414 forward 7 unknown #
vertex $-1 $245 $415 #
straight-curve $-1 43.055513168736837 0 8.4379198968423914 0 1 0 I I #
face $-1 $416 $417 $18 $-1 $418 forward single #
loop $-1 $-1 $419 $248 #
plane-surface $-1 0 0 8.4379198968423914 0 0 1 1 0 0 forward_v I I I I #
coedge $-1 $420 $421 $419 $422 reversed $249 $-1 #
coedge $-1 $423 $340 $345 $424 reversed $251 $-1 #
coedge $-1 $339 $425 $252 $341 reversed $251 $-1 #
edge $-1 $346 71.39758495812427 $426 86.11102633747366 $252 $427 forward 7 unknown #
coedge $-1 $428 $429 $253 $343 forward $430 $-1 #
edge $-1 $347 51.438189639250695 $426 59.66584175114788 $342 $431 forward 7 unknown #
coedge $-1 $432 $254 $429 $433 forward $336 $-1 #
coedge $-1 $254 $419 $339 $424 forward $336 $-1 #
vertex $-1 $424 $434 #
vertex $-1 $433 $435 #
straight-curve $-1 9.9094564050707561 18.173992259809133 8.4379198968423879 1 0 0 I I #
vertex $-1 $256 $436 #
point $-1 37.117053971980837 10.671269702796945 2.7738105160161286 #
face $-1 $437 $438 $19 $-1 $439 forward single #
plane-surface $-1 -28.333762654181314 12.922086469900599 48.362943249268028 0.55919291073839883 0 0.82903756765294845 0.82903756765294845 0 -0.55919291073839883 forward_v I I I I #
coedge $-1 $440 $441 $442 $443 reversed $261 $-1 #
coedge $-1 $354 $354 $-1 $444 forward $263 $-1 #
edge $-1 $445 0 $445 6.2831853071796004 $264 $446 forward 7 unknown #
vertex $-1 $267 $447 #
ellipse-curve $-1 36.956515342266812 10.671269702796945 4.3240938408938066 -0.55919291073839883 0 -0.82903756765294845 0.82903756765294845 0 -0.55919291073839883 1 I I #
vertex $-1 $268 $448 #
point $-1 37.117053971980837 15.172903237004256 2.7738105160161286 #
loop $-1 $-1 $449 $260 #
straight-curve $-1 -43.055513168736837 20.293394296984424 0 0 0 -1 I I #
point $-1 -43.055513168736837 -20.293394296984424 -8.4379198968423914 #
straight-curve $-1 -43.055513168736837 0 -8.4379198968423914 0 1 0 I I #
point $-1 -43.055513168736837 20.293394296984424 -8.4379198968423914 #
face $-1 $450 $374 $16 $-1 $201 reversed single #
loop $-1 $-1 $308 $289 #
plane-surface $-1 0 -20.293394296984424 0 0 1 0 0 0 1 forward_v I I I I #
coedge $-1 $291 $380 $451 $452 forward $122 $-1 #
coedge $-1 $453 $295 $291 $370 reversed $374 $-1 #
edge $-1 $454 -20.293394296984424 $297 3.4175545032996411 $369 $313 forward 7 unknown #
straight-curve $-1 -37.157106643478372 -2.879185522994268 8.4379198968423914 0 -1 0 I I #
straight-curve $-1 -37.157106643478372 -2.879185522994268 -8.4379198968423914 0 1 0 I I #
coedge $-1 $295 $453 $299 $378 reversed $374 $-1 #
loop $-1 $-1 $295 $365 #
straight-curve $-1 -43.055513168736837 -3.4175545032996411 0 0 0 1 I I #
point $-1 -43.055513168736837 -3.4175545032996411 8.4379198968423914 #
coedge $-1 $383 $299 $455 $456 forward $219 $-1 #
edge $-1 $300 -3.4175545032996411 $457 20.293394296984424 $373 $311 forward 7 unknown #
point $-1 -43.055513168736837 -3.4175545032996411 -8.4379198968423914 #
coedge $-1 $368 $304 $458 $459 forward $122 $-1 #
coedge $-1 $308 $460 $304 $382 reversed $366 $-1 #
edge $-1 $312 -43.055513168736837 $461 43.055513168736837 $381 $462 forward 7 unknown #
coedge $-1 $306 $377 $463 $464 forward $219 $-1 #
coedge $-1 $460 $308 $306 $385 reversed $366 $-1 #
edge $-1 $465 -43.055513168736837 $310 43.055513168736837 $384 $466 forward 7 unknown #
straight-curve $-1 -43.055513168736837 -20.293394296984424 0 0 0 -1 I I #
point $-1 -43.055513168736837 -20.293394296984424 -8.4379198968423914 #
point $-1 -43.055513168736837 -20.293394296984424 8.4379198968423914 #
face $-1 $467 $468 $17 $-1 $469 reversed single #
loop $-1 $-1 $470 $314 #
plane-surface $-1 -37.157106643478372 -5.758371045988536 0 -1 0 0 0 0 1 forward_v I I I I #
coedge $-1 $471 $472 $473 $474 reversed $315 $-1 #
coedge $-1 $475 $317 $476 $477 reversed $228 $-1 #
coedge $-1 $317 $475 $478 $479 reversed $228 $-1 #
coedge $-1 $480 $481 $317 $396 forward $468 $-1 #
edge $-1 $482 -8.4379198968423914 $483 8.4379198968423914 $395 $484 forward 7 unknown #
coedge $-1 $318 $485 $486 $487 forward $141 $-1 #
coedge $-1 $488 $319 $318 $399 reversed $242 $-1 #
edge $-1 $489 -20.293394296984424 $321 7.6701806799920664 $398 $334 forward 7 unknown #
straight-curve $-1 43.055513168736837 7.6701806799920664 59.87610953609309 0 0 1 I I #
point $-1 43.055513168736837 7.6701806799920664 8.4379198968423914 #
straight-curve $-1 43.055513168736837 6.4610432349502993 0.2102677849452057 0 -1 0 I I #
point $-1 43.055513168736837 7.6701806799920664 0.21026778494520926 #
coedge $-1 $328 $488 $490 $491 reversed $242 $-1 #
coedge $-1 $492 $331 $328 $406 forward $412 $-1 #
edge $-1 $333 -8.4379198968423914 $493 8.4379198968423914 $328 $494 forward 7 unknown #
plane-surface $-1 43.055513168736837 0 0 -1 0 0 0 0 1 forward_v I I I I #
coedge $-1 $495 $330 $471 $496 forward $141 $-1 #
coedge $-1 $497 $498 $330 $410 reversed $499 $-1 #
edge $-1 $413 -20.293394296984424 $500 3.4175545032996411 $409 $501 forward 7 unknown #
coedge $-1 $331 $492 $497 $502 reversed $412 $-1 #
loop $-1 $-1 $405 $503 #
vertex $-1 $332 $504 #
straight-curve $-1 0 20.293394296984424 8.4379198968423914 -1 0 0 I I #
point $-1 43.055513168736837 20.293394296984424 8.4379198968423914 #
face $-1 $505 $506 $18 $-1 $507 forward single #
loop $-1 $-1 $508 $335 #
plane-surface $-1 -40.106309906107604 -8.0991875886774309 0 0 1 0 0 0 1 forward_v I I I I #
coedge $-1 $345 $509 $338 $422 forward $336 $-1 #
coedge $-1 $421 $338 $510 $511 reversed $249 $-1 #
coedge $-1 $338 $420 $423 $512 forward $249 $-1 #
edge $-1 $513 -33.146056763666081 $514 -20.948061110726023 $419 $515 forward 7 unknown #
coedge $-1 $425 $339 $421 $512 reversed $251 $-1 #
edge $-1 $514 1.2091374450417671 $346 11.712949024858833 $345 $516 forward 7 unknown #
coedge $-1 $340 $423 $428 $517 reversed $251 $-1 #
vertex $-1 $517 $518 #
straight-curve $-1 -28.333762654181314 18.173992259809133 48.362943249268028 0.82903756765294845 0 -0.55919291073839883 I I #
coedge $-1 $510 $342 $425 $517 forward $430 $-1 #
coedge $-1 $342 $519 $344 $433 reversed $430 $-1 #
loop $-1 $-1 $510 $520 #
straight-curve $-1 43.055513168736837 18.173992259809133 59.87610953609309 0 0 -1 I I #
coedge $-1 $521 $344 $522 $523 forward $336 $-1 #
edge $-1 $347 18.173992259809133 $524 20.293394296984424 $429 $525 forward 7 unknown #
point $-1 30.857517515796779 18.173992259809133 8.4379198968423879 #
point $-1 43.055513168736837 18.173992259809133 8.4379198968423914 #
point $-1 35.728823493589488 10.671269702796945 2.5039658591015792 #
face $-1 $526 $527 $19 $-1 $528 forward single #
loop $-1 $-1 $529 $351 #
plane-surface $-1 19.818912810141512 7.6701806799920664 119.75221907218618 0 1 0 0.55919291073839883 0 0.82903756765294845 forward_v I I I I #
coedge $-1 $441 $353 $530 $531 forward $261 $-1 #
coedge $-1 $353 $440 $532 $533 reversed $261 $-1 #
coedge $-1 $534 $535 $353 $443 forward $527 $-1 #
edge $-1 $536 20.948061110726023 $537 33.146056763666081 $442 $538 forward 7 unknown #
edge $-1 $539 1 $539 0 $354 $-1 forward 7 unknown #
vertex $-1 $355 $540 #
ellipse-curve $-1 36.288016404327891 10.671269702796945 3.3330034267545274 0.55919291073839883 0 0.82903756765294845 0.82903756765294845 0 -0.55919291073839883 1 I I #
point $-1 37.785552909919758 10.671269702796945 3.7649009301553926 #
point $-1 35.728823493589488 15.172903237004256 2.5039658591015792 #
coedge $-1 $541 $530 $535 $542 reversed $360 $-1 #
face $-1 $543 $544 $16 $-1 $545 reversed single #
coedge $-1 $546 $547 $368 $452 reversed $544 $-1 #
edge $-1 $548 -43.055513168736837 $454 43.055513168736837 $451 $549 forward 7 unknown #
coedge $-1 $373 $369 $547 $550 forward $374 $-1 #
vertex $-1 $452 $551 #
coedge $-1 $547 $546 $377 $456 reversed $544 $-1 #
edge $-1 $457 -43.055513168736837 $552 43.055513168736837 $455 $553 forward 7 unknown #
vertex $-1 $456 $554 #
coedge $-1 $555 $556 $380 $459 reversed $557 $-1 #
edge $-1 $461 -20.293394296984424 $548 20.293394296984424 $458 $558 forward 7 unknown #
coedge $-1 $381 $384 $555 $559 reversed $366 $-1 #
vertex $-1 $459 $560 #
straight-curve $-1 0 -20.293394296984424 8.4379198968423914 1 0 0 I I #
coedge $-1 $556 $555 $383 $464 reversed $557 $-1 #
edge $-1 $552 -20.293394296984424 $465 20.293394296984424 $463 $561 forward 7 unknown #
vertex $-1 $559 $562 #
straight-curve $-1 0 -20.293394296984424 -8.4379198968423914 -1 0 0 I I #
face $-1 $563 $564 $17 $-1 $565 reversed single #
loop $-1 $-1 $395 $389 #
plane-surface $-1 -43.055513168736837 0 0 1 0 0 0 0 -1 forward_v I I I I #
coedge $-1 $566 $567 $475 $568 reversed $390 $-1 #
coedge $-1 $569 $392 $408 $496 reversed $315 $-1 #
coedge $-1 $392 $569 $570 $571 reversed $315 $-1 #
coedge $-1 $567 $566 $392 $474 forward $390 $-1 #
edge $-1 $572 -8.4379198968423914 $573 8.4379198968423914 $473 $574 forward 7 unknown #
coedge $-1 $394 $393 $470 $568 forward $228 $-1 #
coedge $-1 $485 $495 $393 $477 forward $141 $-1 #
edge $-1 $575 17.103951690424569 $482 23.002358215683035 $476 $576 forward 7 unknown #
coedge $-1 $577 $578 $394 $479 forward $564 $-1 #
edge $-1 $483 -23.002358215683035 $579 -17.103951690424569 $478 $580 forward 7 unknown #
coedge $-1 $581 $395 $578 $582 reversed $468 $-1 #
coedge $-1 $395 $581 $485 $583 reversed $468 $-1 #
vertex $-1 $583 $584 #
vertex $-1 $396 $585 #
straight-curve $-1 -43.055513168736837 -8.0991875886774309 0 0 0 -1 I I #
coedge $-1 $397 $476 $481 $583 forward $141 $-1 #
coedge $-1 $586 $587 $397 $487 reversed $588 $-1 #
edge $-1 $589 -43.055513168736837 $489 43.055513168736837 $486 $590 forward 7 unknown #
coedge $-1 $404 $398 $587 $591 forward $242 $-1 #
vertex $-1 $399 $592 #
coedge $-1 $593 $594 $404 $491 forward $564 $-1 #
edge $-1 $493 -20.293394296984424 $595 20.293394296984424 $404 $596 forward 7 unknown #
coedge $-1 $411 $405 $594 $597 reversed $412 $-1 #
vertex $-1 $491 $598 #
straight-curve $-1 43.055513168736837 20.293394296984424 0 0 0 -1 I I #
coedge $-1 $476 $408 $566 $599 forward $141 $-1 #
edge $-1 $500 -23.002358215683035 $572 -17.103951690424569 $408 $600 forward 7 unknown #
coedge $-1 $601 $409 $411 $502 forward $499 $-1 #
coedge $-1 $409 $601 $569 $602 forward $499 $-1 #
loop $-1 $-1 $498 $603 #
vertex $-1 $602 $604 #
straight-curve $-1 -43.055513168736837 0 8.4379198968423914 0 -1 0 I I #
edge $-1 $413 -8.4379198968423914 $605 8.4379198968423914 $411 $606 forward 7 unknown #
face $-1 $329 $412 $17 $-1 $607 reversed single #
point $-1 -43.055513168736837 20.293394296984424 8.4379198968423914 #
face $-1 $608 $609 $18 $-1 $610 forward single #
loop $-1 $-1 $611 $416 #
plane-surface $-1 -40.106309906107604 -3.4175545032996411 0 0 -1 0 0 0 -1 forward_v I I I I #
coedge $-1 $612 $613 $614 $615 reversed $417 $-1 #
coedge $-1 $419 $616 $617 $618 forward $336 $-1 #
coedge $-1 $617 $428 $420 $511 forward $430 $-1 #
edge $-1 $619 -59.66584175114788 $513 -51.438189639250695 $510 $620 forward 7 unknown #
edge $-1 $619 -86.11102633747366 $514 -71.39758495812427 $421 $621 forward 7 unknown #
vertex $-1 $511 $622 #
vertex $-1 $424 $623 #
straight-curve $-1 9.9094564050707561 7.6701806799920664 8.4379198968423879 -1 0 0 I I #
straight-curve $-1 30.857517515796786 6.4610432349502993 8.4379198968423879 0 1 0 I I #
edge $-1 $426 -11.712949024858833 $619 -1.2091374450417671 $428 $624 forward 7 unknown #
point $-1 43.055513168736837 18.173992259809133 0.21026778494520926 #
coedge $-1 $429 $625 $626 $627 reversed $430 $-1 #
face $-1 $-1 $430 $18 $-1 $628 reversed single #
coedge $-1 $629 $432 $630 $631 forward $336 $-1 #
coedge $-1 $626 $632 $432 $523 reversed $633 $-1 #
edge $-1 $524 -43.055513168736837 $634 43.055513168736837 $522 $635 forward 7 unknown #
vertex $-1 $433 $636 #
straight-curve $-1 43.055513168736837 0 8.4379198968423914 0 1 0 I I #
face $-1 $637 $638 $19 $-1 $639 forward single #
loop $-1 $-1 $640 $437 #
plane-surface $-1 0 0 8.4379198968423914 0 0 1 1 0 0 forward_v I I I I #
coedge $-1 $641 $642 $640 $643 reversed $438 $-1 #
coedge $-1 $449 $644 $440 $531 reversed $360 $-1 #
edge $-1 $536 71.39758495812427 $645 86.11102633747366 $440 $646 forward 7 unknown #
coedge $-1 $647 $648 $441 $533 forward $649 $-1 #
edge $-1 $537 51.438189639250695 $645 59.66584175114788 $532 $650 forward 7 unknown #
coedge $-1 $651 $442 $648 $652 forward $527 $-1 #
coedge $-1 $442 $640 $449 $542 forward $527 $-1 #
vertex $-1 $542 $653 #
vertex $-1 $652 $654 #
straight-curve $-1 9.9094564050707561 18.173992259809133 8.4379198968423879 1 0 0 I I #
vertex $-1 $444 $655 #
point $-1 37.117053971980837 10.671269702796945 2.7738105160161286 #
coedge $-1 $644 $449 $642 $656 reversed $360 $-1 #
edge $-1 $657 1.2091374450417671 $536 11.712949024858833 $535 $658 forward 7 unknown #
face $-1 $-1 $557 $16 $-1 $659 reversed single #
loop $-1 $-1 $546 $450 #
plane-surface $-1 0 20.293394296984424 0 0 -1 0 0 0 -1 forward_v I I I I #
coedge $-1 $455 $451 $556 $660 forward $544 $-1 #
coedge $-1 $451 $455 $453 $550 reversed $544 $-1 #
vertex $-1 $459 $661 #
straight-curve $-1 0 20.293394296984424 8.4379198968423914 -1 0 0 I I #
edge $-1 $454 -8.4379198968423914 $457 8.4379198968423914 $547 $662 forward 7 unknown #
point $-1 -43.055513168736837 20.293394296984424 8.4379198968423914 #
vertex $-1 $464 $663 #
straight-curve $-1 0 20.293394296984424 -8.4379198968423914 1 0 0 I I #
point $-1 -43.055513168736837 20.293394296984424 -8.4379198968423914 #
coedge $-1 $463 $458 $460 $559 forward $557 $-1 #
coedge $-1 $458 $463 $546 $660 reversed $557 $-1 #
loop $-1 $-1 $555 $543 #
straight-curve $-1 43.055513168736837 0 8.4379198968423914 0 1 0 I I #
edge $-1 $461 -8.4379198968423914 $465 8.4379198968423914 $555 $664 forward 7 unknown #
point $-1 43.055513168736837 -20.293394296984424 8.4379198968423914 #
straight-curve $-1 43.055513168736837 0 -8.4379198968423914 0 -1 0 I I #
point $-1 43.055513168736837 -20.293394296984424 -8.4379198968423914 #
face $-1 $603 $588 $17 $-1 $665 reversed single #
loop $-1 $-1 $570 $467 #
plane-surface $-1 0 0 -8.4379198968423914 0 0 1 1 0 0 forward_v I I I I #
coedge $-1 $473 $470 $495 $599 reversed $390 $-1 #
coedge $-1 $470 $473 $577 $666 reversed $390 $-1 #
edge $-1 $575 -8.4379198968423914 $579 8.4379198968423914 $470 $667 forward 7 unknown #
coedge $-1 $472 $471 $498 $602 reversed $315 $-1 #
coedge $-1 $668 $577 $472 $571 forward $564 $-1 #
edge $-1 $573 17.103951690424569 $669 23.002358215683035 $570 $670 forward 7 unknown #
vertex $-1 $496 $671 #
vertex $-1 $571 $672 #
straight-curve $-1 -37.157106643478372 -3.4175545032996411 0 0 0 -1 I I #
vertex $-1 $477 $673 #
straight-curve $-1 -20.053154953053802 -8.0991875886774309 8.4379198968423914 -1 0 0 I I #
coedge $-1 $570 $478 $567 $666 forward $564 $-1 #
coedge $-1 $478 $593 $480 $582 forward $564 $-1 #
vertex $-1 $479 $674 #
straight-curve $-1 -20.053154953053802 -8.0991875886774309 -8.4379198968423914 1 0 0 I I #
coedge $-1 $481 $480 $586 $675 reversed $468 $-1 #
edge $-1 $676 -20.293394296984424 $483 -8.0991875886774309 $480 $677 forward 7 unknown #
edge $-1 $482 8.0991875886774309 $589 20.293394296984424 $481 $501 forward 7 unknown #
point $-1 -43.055513168736837 -8.0991875886774309 8.4379198968423914 #
point $-1 -43.055513168736837 -8.0991875886774309 -8.4379198968423914 #
coedge $-1 $678 $486 $581 $675 forward $588 $-1 #
coedge $-1 $486 $678 $488 $591 reversed $588 $-1 #
loop $-1 $-1 $586 $563 #
vertex $-1 $583 $679 #
straight-curve $-1 0 -20.293394296984424 8.4379198968423914 1 0 0 I I #
edge $-1 $489 -8.4379198968423914 $595 8.4379198968423914 $488 $680 forward 7 unknown #
point $-1 43.055513168736837 -20.293394296984424 8.4379198968423914 #
coedge $-1 $578 $490 $678 $681 forward $564 $-1 #
coedge $-1 $490 $668 $492 $597 forward $564 $-1 #
vertex $-1 $591 $682 #
straight-curve $-1 43.055513168736837 0 -8.4379198968423914 0 -1 0 I I #
edge $-1 $605 -43.055513168736837 $493 43.055513168736837 $492 $683 forward 7 unknown #
point $-1 43.055513168736837 20.293394296984424 -8.4379198968423914 #
edge $-1 $572 0.53836898030537306 $575 5.2200020656831629 $495 $684 forward 7 unknown #
straight-curve $-1 -20.053154953053802 -3.4175545032996411 8.4379198968423914 1 0 0 I I #
coedge $-1 $498 $497 $668 $685 reversed $499 $-1 #
edge $-1 $669 -8.4379198968423914 $500 8.4379198968423914 $498 $686 forward 7 unknown #
face $-1 $503 $499 $17 $-1 $469 reversed single #
point $-1 -43.055513168736837 -3.4175545032996411 8.4379198968423914 #
vertex $-1 $597 $687 #
straight-curve $-1 -43.055513168736837 20.293394296984424 0 0 0 -1 I I #
plane-surface $-1 0 20.293394296984424 0 0 -1 0 0 0 -1 forward_v I I I I #
face $-1 $688 $689 $18 $-1 $690 reversed single #
loop $-1 $-1 $691 $505 #
plane-surface $-1 -37.157106643478372 -5.758371045988536 0 -1 0 0 0 0 1 forward_v I I I I #
coedge $-1 $692 $693 $694 $695 reversed $506 $-1 #
coedge $-1 $696 $508 $697 $698 reversed $417 $-1 #
coedge $-1 $508 $696 $699 $700 reversed $417 $-1 #
coedge $-1 $701 $702 $508 $615 forward $689 $-1 #
edge $-1 $703 -8.4379198968423914 $704 8.4379198968423914 $614 $705 forward 7 unknown #
coedge $-1 $509 $706 $707 $708 forward $336 $-1 #
coedge $-1 $709 $510 $509 $618 reversed $430 $-1 #
edge $-1 $710 -20.293394296984424 $513 7.6701806799920664 $617 $525 forward 7 unknown #
vertex $-1 $517 $711 #
straight-curve $-1 43.055513168736837 7.6701806799920664 59.87610953609309 0 0 1 I I #
straight-curve $-1 -28.333762654181314 7.6701806799920664 48.362943249268028 -0.82903756765294845 0 0.55919291073839883 I I #
point $-1 43.055513168736837 7.6701806799920664 8.4379198968423914 #
point $-1 30.857517515796779 7.6701806799920664 8.4379198968423879 #
straight-curve $-1 43.055513168736837 6.4610432349502993 0.2102677849452057 0 -1 0 I I #
coedge $-1 $519 $709 $712 $713 reversed $430 $-1 #
coedge $-1 $714 $522 $519 $627 forward $633 $-1 #
edge $-1 $524 -8.4379198968423914 $715 8.4379198968423914 $519 $716 forward 7 unknown #
plane-surface $-1 43.055513168736837 0 0 -1 0 0 0 0 1 forward_v I I I I #
coedge $-1 $717 $521 $692 $718 forward $336 $-1 #
coedge $-1 $719 $720 $521 $631 reversed $721 $-1 #
edge $-1 $634 -20.293394296984424 $722 3.4175545032996411 $630 $723 forward 7 unknown #
coedge $-1 $522 $714 $719 $724 reversed $633 $-1 #
loop $-1 $-1 $626 $725 #
vertex $-1 $523 $726 #
straight-curve $-1 0 20.293394296984424 8.4379198968423914 -1 0 0 I I #
point $-1 43.055513168736837 20.293394296984424 8.4379198968423914 #
face $-1 $727 $728 $19 $-1 $729 forward single #
loop $-1 $-1 $730 $526 #
plane-surface $-1 -40.106309906107604 -8.0991875886774309 0 0 1 0 0 0 1 forward_v I I I I #
coedge $-1 $535 $731 $529 $643 forward $527 $-1 #
coedge $-1 $642 $529 $732 $733 reversed $438 $-1 #
coedge $-1 $529 $641 $541 $656 forward $438 $-1 #
edge $-1 $734 -33.146056763666081 $657 -20.948061110726023 $640 $735 forward 7 unknown #
coedge $-1 $530 $541 $647 $736 reversed $360 $-1 #
vertex $-1 $736 $737 #
straight-curve $-1 -28.333762654181314 18.173992259809133 48.362943249268028 0.82903756765294845 0 -0.55919291073839883 I I #
coedge $-1 $732 $532 $644 $736 forward $649 $-1 #
coedge $-1 $532 $738 $534 $652 reversed $649 $-1 #
loop $-1 $-1 $732 $739 #
straight-curve $-1 43.055513168736837 18.173992259809133 59.87610953609309 0 0 -1 I I #
coedge $-1 $740 $534 $741 $742 forward $527 $-1 #
edge $-1 $537 18.173992259809133 $743 20.293394296984424 $648 $744 forward 7 unknown #
point $-1 30.857517515796779 18.173992259809133 8.4379198968423879 #
point $-1 43.055513168736837 18.173992259809133 8.4379198968423914 #
point $-1 35.728823493589488 10.671269702796945 2.5039658591015792 #
edge $-1 $745 -86.11102633747366 $657 -71.39758495812427 $642 $746 forward 7 unknown #
vertex $-1 $542 $747 #
straight-curve $-1 30.857517515796786 6.4610432349502993 8.4379198968423879 0 1 0 I I #
plane-surface $-1 43.055513168736837 0 0 -1 0 0 0 0 1 forward_v I I I I #
edge $-1 $548 -8.4379198968423914 $552 8.4379198968423914 $556 $748 forward 7 unknown #
point $-1 43.055513168736837 20.293394296984424 8.4379198968423914 #
straight-curve $-1 -43.055513168736837 20.293394296984424 0 0 0 -1 I I #
point $-1 43.055513168736837 20.293394296984424 -8.4379198968423914 #
straight-curve $-1 43.055513168736837 -20.293394296984424 0 0 0 -1 I I #
plane-surface $-1 0 -20.293394296984424 0 0 1 0 0 0 1 forward_v I I I I #
edge $-1 $579 -5.2200020656831629 $573 -0.53836898030537306 $577 $749 forward 7 unknown #
straight-curve $-1 -37.157106643478372 -8.0991875886774309 0 0 0 -1 I I #
coedge $-1 $594 $570 $601 $685 forward $564 $-1 #
vertex $-1 $685 $750 #
straight-curve $-1 -20.053154953053802 -3.4175545032996411 -8.4379198968423914 -1 0 0 I I #
point $-1 -37.157106643478372 -3.4175545032996411 8.4379198968423914 #
point $-1 -37.157106643478372 -3.4175545032996411 -8.4379198968423914 #
point $-1 -37.157106643478372 -8.0991875886774309 8.4379198968423914 #
point $-1 -37.157106643478372 -8.0991875886774309 -8.4379198968423914 #
edge $-1 $589 -8.4379198968423914 $676 8.4379198968423914 $581 $751 forward 7 unknown #
vertex $-1 $582 $752 #
straight-curve $-1 -43.055513168736837 0 -8.4379198968423914 0 1 0 I I #
coedge $-1 $587 $586 $593 $681 reversed $588 $-1 #
point $-1 -43.055513168736837 -20.293394296984424 8.4379198968423914 #
straight-curve $-1 43.055513168736837 -20.293394296984424 0 0 0 -1 I I #
edge $-1 $595 -43.055513168736837 $676 43.055513168736837 $678 $753 forward 7 unknown #
point $-1 43.055513168736837 -20.293394296984424 -8.4379198968423914 #
straight-curve $-1 0 20.293394296984424 -8.4379198968423914 1 0 0 I I #
straight-curve $-1 -37.157106643478372 -2.879185522994268 8.4379198968423914 0 -1 0 I I #
edge $-1 $669 -3.4175545032996411 $605 20.293394296984424 $601 $677 forward 7 unknown #
straight-curve $-1 -43.055513168736837 -3.4175545032996411 0 0 0 1 I I #
point $-1 -43.055513168736837 20.293394296984424 -8.4379198968423914 #
face $-1 $754 $755 $18 $-1 $756 reversed single #
loop $-1 $-1 $614 $608 #
plane-surface $-1 -43.055513168736837 0 0 1 0 0 0 0 -1 forward_v I I I I #
coedge $-1 $757 $758 $696 $759 reversed $609 $-1 #
coedge $-1 $760 $611 $629 $718 reversed $506 $-1 #
coedge $-1 $611 $760 $761 $762 reversed $506 $-1 #
coedge $-1 $758 $757 $611 $695 forward $609 $-1 #
edge $-1 $763 -8.4379198968423914 $764 8.4379198968423914 $694 $765 forward 7 unknown #
coedge $-1 $613 $612 $691 $759 forward $417 $-1 #
coedge $-1 $706 $717 $612 $698 forward $336 $-1 #
edge $-1 $766 17.103951690424569 $703 23.002358215683035 $697 $767 forward 7 unknown #
coedge $-1 $768 $769 $613 $700 forward $755 $-1 #
edge $-1 $704 -23.002358215683035 $770 -17.103951690424569 $699 $771 forward 7 unknown #
coedge $-1 $772 $614 $769 $773 reversed $689 $-1 #
coedge $-1 $614 $772 $706 $774 reversed $689 $-1 #
vertex $-1 $774 $775 #
vertex $-1 $615 $776 #
straight-curve $-1 -43.055513168736837 -8.0991875886774309 0 0 0 -1 I I #
coedge $-1 $616 $697 $702 $774 forward $336 $-1 #
coedge $-1 $777 $778 $616 $708 reversed $779 $-1 #
edge $-1 $780 -43.055513168736837 $710 43.055513168736837 $707 $781 forward 7 unknown #
coedge $-1 $625 $617 $778 $782 forward $430 $-1 #
vertex $-1 $618 $783 #
point $-1 43.055513168736837 7.6701806799920664 0.21026778494520926 #
coedge $-1 $784 $785 $625 $713 forward $755 $-1 #
edge $-1 $715 -20.293394296984424 $786 20.293394296984424 $625 $787 forward 7 unknown #
coedge $-1 $632 $626 $785 $788 reversed $633 $-1 #
vertex $-1 $713 $789 #
straight-curve $-1 43.055513168736837 20.293394296984424 0 0 0 -1 I I #
coedge $-1 $697 $629 $757 $790 forward $336 $-1 #
edge $-1 $722 -23.002358215683035 $763 -17.103951690424569 $629 $791 forward 7 unknown #
coedge $-1 $792 $630 $632 $724 forward $721 $-1 #
coedge $-1 $630 $792 $760 $793 forward $721 $-1 #
loop $-1 $-1 $720 $794 #
vertex $-1 $793 $795 #
straight-curve $-1 -43.055513168736837 0 8.4379198968423914 0 -1 0 I I #
edge $-1 $634 -8.4379198968423914 $796 8.4379198968423914 $632 $797 forward 7 unknown #
face $-1 $520 $633 $18 $-1 $798 reversed single #
point $-1 -43.055513168736837 20.293394296984424 8.4379198968423914 #
face $-1 $799 $800 $19 $-1 $801 forward single #
loop $-1 $-1 $802 $637 #
plane-surface $-1 -40.106309906107604 -3.4175545032996411 0 0 -1 0 0 0 -1 forward_v I I I I #
coedge $-1 $803 $804 $805 $806 reversed $638 $-1 #
coedge $-1 $640 $807 $808 $809 forward $527 $-1 #
coedge $-1 $808 $647 $641 $733 forward $649 $-1 #
edge $-1 $745 -59.66584175114788 $734 -51.438189639250695 $732 $810 forward 7 unknown #
vertex $-1 $733 $811 #
straight-curve $-1 9.9094564050707561 7.6701806799920664 8.4379198968423879 -1 0 0 I I #
edge $-1 $645 -11.712949024858833 $745 -1.2091374450417671 $647 $812 forward 7 unknown #
point $-1 43.055513168736837 18.173992259809133 0.21026778494520926 #
coedge $-1 $648 $813 $814 $815 reversed $649 $-1 #
face $-1 $-1 $649 $19 $-1 $816 reversed single #
coedge $-1 $817 $651 $818 $819 forward $527 $-1 #
coedge $-1 $814 $820 $651 $742 reversed $821 $-1 #
edge $-1 $743 -43.055513168736837 $822 43.055513168736837 $741 $823 forward 7 unknown #
vertex $-1 $652 $824 #
straight-curve $-1 43.055513168736837 0 8.4379198968423914 0 1 0 I I #
vertex $-1 $736 $825 #
straight-curve $-1 -28.333762654181314 7.6701806799920664 48.362943249268028 -0.82903756765294845 0 0.55919291073839883 I I #
point $-1 30.857517515796779 7.6701806799920664 8.4379198968423879 #
straight-curve $-1 43.055513168736837 20.293394296984424 0 0 0 -1 I I #
straight-curve $-1 -37.157106643478372 -2.879185522994268 -8.4379198968423914 0 1 0 I I #
point $-1 -43.055513168736837 -3.4175545032996411 -8.4379198968423914 #
straight-curve $-1 -43.055513168736837 -20.293394296984424 0 0 0 -1 I I #
point $-1 -43.055513168736837 -20.293394296984424 -8.4379198968423914 #
straight-curve $-1 0 -20.293394296984424 -8.4379198968423914 -1 0 0 I I #
face $-1 $794 $779 $18 $-1 $826 reversed single #
loop $-1 $-1 $761 $688 #
plane-surface $-1 0 0 -8.4379198968423914 0 0 1 1 0 0 forward_v I I I I #
coedge $-1 $694 $691 $717 $790 reversed $609 $-1 #
coedge $-1 $691 $694 $768 $827 reversed $609 $-1 #
edge $-1 $766 -8.4379198968423914 $770 8.4379198968423914 $691 $828 forward 7 unknown #
coedge $-1 $693 $692 $720 $793 reversed $506 $-1 #
coedge $-1 $829 $768 $693 $762 forward $755 $-1 #
edge $-1 $764 17.103951690424569 $830 23.002358215683035 $761 $831 forward 7 unknown #
vertex $-1 $718 $832 #
vertex $-1 $762 $833 #
straight-curve $-1 -37.157106643478372 -3.4175545032996411 0 0 0 -1 I I #
vertex $-1 $698 $834 #
straight-curve $-1 -20.053154953053802 -8.0991875886774309 8.4379198968423914 -1 0 0 I I #
coedge $-1 $761 $699 $758 $827 forward $755 $-1 #
coedge $-1 $699 $784 $701 $773 forward $755 $-1 #
vertex $-1 $700 $835 #
straight-curve $-1 -20.053154953053802 -8.0991875886774309 -8.4379198968423914 1 0 0 I I #
coedge $-1 $702 $701 $777 $836 reversed $689 $-1 #
edge $-1 $837 -20.293394296984424 $704 -8.0991875886774309 $701 $838 forward 7 unknown #
edge $-1 $703 8.0991875886774309 $780 20.293394296984424 $702 $723 forward 7 unknown #
point $-1 -43.055513168736837 -8.0991875886774309 8.4379198968423914 #
point $-1 -43.055513168736837 -8.0991875886774309 -8.4379198968423914 #
coedge $-1 $839 $707 $772 $836 forward $779 $-1 #
coedge $-1 $707 $839 $709 $782 reversed $779 $-1 #
loop $-1 $-1 $777 $754 #
vertex $-1 $774 $840 #
straight-curve $-1 0 -20.293394296984424 8.4379198968423914 1 0 0 I I #
edge $-1 $710 -8.4379198968423914 $786 8.4379198968423914 $709 $841 forward 7 unknown #
point $-1 43.055513168736837 -20.293394296984424 8.4379198968423914 #
coedge $-1 $769 $712 $839 $842 forward $755 $-1 #
coedge $-1 $712 $829 $714 $788 forward $755 $-1 #
vertex $-1 $782 $843 #
straight-curve $-1 43.055513168736837 0 -8.4379198968423914 0 -1 0 I I #
edge $-1 $796 -43.055513168736837 $715 43.055513168736837 $714 $844 forward 7 unknown #
point $-1 43.055513168736837 20.293394296984424 -8.4379198968423914 #
edge $-1 $763 0.53836898030537306 $766 5.2200020656831629 $717 $845 forward 7 unknown #
straight-curve $-1 -20.053154953053802 -3.4175545032996411 8.4379198968423914 1 0 0 I I #
coedge $-1 $720 $719 $829 $846 reversed $721 $-1 #
edge $-1 $830 -8.4379198968423914 $722 8.4379198968423914 $720 $847 forward 7 unknown #
face $-1 $725 $721 $18 $-1 $690 reversed single #
point $-1 -43.055513168736837 -3.4175545032996411 8.4379198968423914 #
vertex $-1 $788 $848 #
straight-curve $-1 -43.055513168736837 20.293394296984424 0 0 0 -1 I I #
plane-surface $-1 0 20.293394296984424 0 0 -1 0 0 0 -1 forward_v I I I I #
face $-1 $849 $850 $19 $-1 $851 reversed single #
loop $-1 $-1 $852 $727 #
plane-surface $-1 -37.157106643478372 -5.758371045988536 0 -1 0 0 0 0 1 forward_v I I I I #
coedge $-1 $853 $854 $855 $856 reversed $728 $-1 #
coedge $-1 $857 $730 $858 $859 reversed $638 $-1 #
coedge $-1 $730 $857 $860 $861 reversed $638 $-1 #
coedge $-1 $862 $863 $730 $806 forward $850 $-1 #
edge $-1 $864 -8.4379198968423914 $865 8.4379198968423914 $805 $866 forward 7 unknown #
coedge $-1 $731 $867 $868 $869 forward $527 $-1 #
coedge $-1 $870 $732 $731 $809 reversed $649 $-1 #
edge $-1 $871 -20.293394296984424 $734 7.6701806799920664 $808 $744 forward 7 unknown #
straight-curve $-1 43.055513168736837 7.6701806799920664 59.87610953609309 0 0 1 I I #
point $-1 43.055513168736837 7.6701806799920664 8.4379198968423914 #
straight-curve $-1 43.055513168736837 6.4610432349502993 0.2102677849452057 0 -1 0 I I #
coedge $-1 $738 $870 $872 $873 reversed $649 $-1 #
coedge $-1 $874 $741 $738 $815 forward $821 $-1 #
edge $-1 $743 -8.4379198968423914 $875 8.4379198968423914 $738 $876 forward 7 unknown #
plane-surface $-1 43.055513168736837 0 0 -1 0 0 0 0 1 forward_v I I I I #
coedge $-1 $877 $740 $853 $878 forward $527 $-1 #
coedge $-1 $879 $880 $740 $819 reversed $881 $-1 #
edge $-1 $822 -20.293394296984424 $882 3.4175545032996411 $818 $883 forward 7 unknown #
coedge $-1 $741 $874 $879 $884 reversed $821 $-1 #
loop $-1 $-1 $814 $885 #
vertex $-1 $742 $886 #
straight-curve $-1 0 20.293394296984424 8.4379198968423914 -1 0 0 I I #
point $-1 43.055513168736837 20.293394296984424 8.4379198968423914 #
point $-1 43.055513168736837 7.6701806799920664 0.21026778494520926 #
plane-surface $-1 0 -20.293394296984424 0 0 1 0 0 0 1 forward_v I I I I #
edge $-1 $770 -5.2200020656831629 $764 -0.53836898030537306 $768 $887 forward 7 unknown #
straight-curve $-1 -37.157106643478372 -8.0991875886774309 0 0 0 -1 I I #
coedge $-1 $785 $761 $792 $846 forward $755 $-1 #
vertex $-1 $846 $888 #
straight-curve $-1 -20.053154953053802 -3.4175545032996411 -8.4379198968423914 -1 0 0 I I #
point $-1 -37.157106643478372 -3.4175545032996411 8.4379198968423914 #
point $-1 -37.157106643478372 -3.4175545032996411 -8.4379198968423914 #
point $-1 -37.157106643478372 -8.0991875886774309 8.4379198968423914 #
point $-1 -37.157106643478372 -8.0991875886774309 -8.4379198968423914 #
edge $-1 $780 -8.4379198968423914 $837 8.4379198968423914 $772 $889 forward 7 unknown #
vertex $-1 $773 $890 #
straight-curve $-1 -43.055513168736837 0 -8.4379198968423914 0 1 0 I I #
coedge $-1 $778 $777 $784 $842 reversed $779 $-1 #
point $-1 -43.055513168736837 -20.293394296984424 8.4379198968423914 #
straight-curve $-1 43.055513168736837 -20.293394296984424 0 0 0 -1 I I #
edge $-1 $786 -43.055513168736837 $837 43.055513168736837 $839 $891 forward 7 unknown #
point $-1 43.055513168736837 -20.293394296984424 -8.4379198968423914 #
straight-curve $-1 0 20.293394296984424 -8.4379198968423914 1 0 0 I I #
straight-curve $-1 -37.157106643478372 -2.879185522994268 8.4379198968423914 0 -1 0 I I #
edge $-1 $830 -3.4175545032996411 $796 20.293394296984424 $792 $838 forward 7 unknown #
straight-curve $-1 -43.055513168736837 -3.4175545032996411 0 0 0 1 I I #
point $-1 -43.055513168736837 20.293394296984424 -8.4379198968423914 #
face $-1 $892 $893 $19 $-1 $894 reversed single #
loop $-1 $-1 $805 $799 #
plane-surface $-1 -43.055513168736837 0 0 1 0 0 0 0 -1 forward_v I I I I #
coedge $-1 $895 $896 $857 $897 reversed $800 $-1 #
coedge $-1 $898 $802 $817 $878 reversed $728 $-1 #
coedge $-1 $802 $898 $899 $900 reversed $728 $-1 #
coedge $-1 $896 $895 $802 $856 forward $800 $-1 #
edge $-1 $901 -8.4379198968423914 $902 8.4379198968423914 $855 $903 forward 7 unknown #
coedge $-1 $804 $803 $852 $897 forward $638 $-1 #
coedge $-1 $867 $877 $803 $859 forward $527 $-1 #
edge $-1 $904 17.103951690424569 $864 23.002358215683035 $858 $905 forward 7 unknown #
coedge $-1 $906 $907 $804 $861 forward $893 $-1 #
edge $-1 $865 -23.002358215683035 $908 -17.103951690424569 $860 $909 forward 7 unknown #
coedge $-1 $910 $805 $907 $911 reversed $850 $-1 #
coedge $-1 $805 $910 $867 $912 reversed $850 $-1 #
vertex $-1 $912 $913 #
vertex $-1 $806 $914 #
straight-curve $-1 -43.055513168736837 -8.0991875886774309 0 0 0 -1 I I #
coedge $-1 $807 $858 $863 $912 forward $527 $-1 #
coedge $-1 $915 $916 $807 $869 reversed $917 $-1 #
edge $-1 $918 -43.055513168736837 $871 43.055513168736837 $868 $919 forward 7 unknown #
coedge $-1 $813 $808 $916 $920 forward $649 $-1 #
vertex $-1 $809 $921 #
coedge $-1 $922 $923 $813 $873 forward $893 $-1 #
edge $-1 $875 -20.293394296984424 $924 20.293394296984424 $813 $925 forward 7 unknown #
coedge $-1 $820 $814 $923 $926 reversed $821 $-1 #
vertex $-1 $873 $927 #
straight-curve $-1 43.055513168736837 20.293394296984424 0 0 0 -1 I I #
coedge $-1 $858 $817 $895 $928 forward $527 $-1 #
edge $-1 $882 -23.002358215683035 $901 -17.103951690424569 $817 $929 forward 7 unknown #
coedge $-1 $930 $818 $820 $884 forward $881 $-1 #
coedge $-1 $818 $930 $898 $931 forward $881 $-1 #
loop $-1 $-1 $880 $932 #
vertex $-1 $931 $933 #
straight-curve $-1 -43.055513168736837 0 8.4379198968423914 0 -1 0 I I #
edge $-1 $822 -8.4379198968423914 $934 8.4379198968423914 $820 $935 forward 7 unknown #
face $-1 $739 $821 $19 $-1 $936 reversed single #
point $-1 -43.055513168736837 20.293394296984424 8.4379198968423914 #
straight-curve $-1 -37.157106643478372 -2.879185522994268 -8.4379198968423914 0 1 0 I I #
point $-1 -43.055513168736837 -3.4175545032996411 -8.4379198968423914 #
straight-curve $-1 -43.055513168736837 -20.293394296984424 0 0 0 -1 I I #
point $-1 -43.055513168736837 -20.293394296984424 -8.4379198968423914 #
straight-curve $-1 0 -20.293394296984424 -8.4379198968423914 -1 0 0 I I #
face $-1 $932 $917 $19 $-1 $937 reversed single #
loop $-1 $-1 $899 $849 #
plane-surface $-1 0 0 -8.4379198968423914 0 0 1 1 0 0 forward_v I I I I #
coedge $-1 $855 $852 $877 $928 reversed $800 $-1 #
coedge $-1 $852 $855 $906 $938 reversed $800 $-1 #
edge $-1 $904 -8.4379198968423914 $908 8.4379198968423914 $852 $939 forward 7 unknown #
coedge $-1 $854 $853 $880 $931 reversed $728 $-1 #
coedge $-1 $940 $906 $854 $900 forward $893 $-1 #
edge $-1 $902 17.103951690424569 $941 23.002358215683035 $899 $942 forward 7 unknown #
vertex $-1 $878 $943 #
vertex $-1 $900 $944 #
straight-curve $-1 -37.157106643478372 -3.4175545032996411 0 0 0 -1 I I #
vertex $-1 $859 $945 #
straight-curve $-1 -20.053154953053802 -8.0991875886774309 8.4379198968423914 -1 0 0 I I #
coedge $-1 $899 $860 $896 $938 forward $893 $-1 #
coedge $-1 $860 $922 $862 $911 forward $893 $-1 #
vertex $-1 $861 $946 #
straight-curve $-1 -20.053154953053802 -8.0991875886774309 -8.4379198968423914 1 0 0 I I #
coedge $-1 $863 $862 $915 $947 reversed $850 $-1 #
edge $-1 $948 -20.293394296984424 $865 -8.0991875886774309 $862 $949 forward 7 unknown #
edge $-1 $864 8.0991875886774309 $918 20.293394296984424 $863 $883 forward 7 unknown #
point $-1 -43.055513168736837 -8.0991875886774309 8.4379198968423914 #
point $-1 -43.055513168736837 -8.0991875886774309 -8.4379198968423914 #
coedge $-1 $950 $868 $910 $947 forward $917 $-1 #
coedge $-1 $868 $950 $870 $920 reversed $917 $-1 #
loop $-1 $-1 $915 $892 #
vertex $-1 $912 $951 #
straight-curve $-1 0 -20.293394296984424 8.4379198968423914 1 0 0 I I #
edge $-1 $871 -8.4379198968423914 $924 8.4379198968423914 $870 $952 forward 7 unknown #
point $-1 43.055513168736837 -20.293394296984424 8.4379198968423914 #
coedge $-1 $907 $872 $950 $953 forward $893 $-1 #
coedge $-1 $872 $940 $874 $926 forward $893 $-1 #
vertex $-1 $920 $954 #
straight-curve $-1 43.055513168736837 0 -8.4379198968423914 0 -1 0 I I #
edge $-1 $934 -43.055513168736837 $875 43.055513168736837 $874 $955 forward 7 unknown #
point $-1 43.055513168736837 20.293394296984424 -8.4379198968423914 #
edge $-1 $901 0.53836898030537306 $904 5.2200020656831629 $877 $956 forward 7 unknown #
straight-curve $-1 -20.053154953053802 -3.4175545032996411 8.4379198968423914 1 0 0 I I #
coedge $-1 $880 $879 $940 $957 reversed $881 $-1 #
edge $-1 $941 -8.4379198968423914 $882 8.4379198968423914 $880 $958 forward 7 unknown #
face $-1 $885 $881 $19 $-1 $851 reversed single #
point $-1 -43.055513168736837 -3.4175545032996411 8.4379198968423914 #
vertex $-1 $926 $959 #
straight-curve $-1 -43.055513168736837 20.293394296984424 0 0 0 -1 I I #
plane-surface $-1 0 20.293394296984424 0 0 -1 0 0 0 -1 forward_v I I I I #
plane-surface $-1 0 -20.293394296984424 0 0 1 0 0 0 1 forward_v I I I I #
edge $-1 $908 -5.2200020656831629 $902 -0.53836898030537306 $906 $960 forward 7 unknown #
straight-curve $-1 -37.157106643478372 -8.0991875886774309 0 0 0 -1 I I #
coedge $-1 $923 $899 $930 $957 forward $893 $-1 #
vertex $-1 $957 $961 #
straight-curve $-1 -20.053154953053802 -3.4175545032996411 -8.4379198968423914 -1 0 0 I I #
point $-1 -37.157106643478372 -3.4175545032996411 8.4379198968423914 #
point $-1 -37.157106643478372 -3.4175545032996411 -8.4379198968423914 #
point $-1 -37.157106643478372 -8.0991875886774309 8.4379198968423914 #
point $-1 -37.157106643478372 -8.0991875886774309 -8.4379198968423914 #
edge $-1 $918 -8.4379198968423914 $948 8.4379198968423914 $910 $962 forward 7 unknown #
vertex $-1 $911 $963 #
straight-curve $-1 -43.055513168736837 0 -8.4379198968423914 0 1 0 I I #
coedge $-1 $916 $915 $922 $953 reversed $917 $-1 #
point $-1 -43.055513168736837 -20.293394296984424 8.4379198968423914 #
straight-curve $-1 43.055513168736837 -20.293394296984424 0 0 0 -1 I I #
edge $-1 $924 -43.055513168736837 $948 43.055513168736837 $950 $964 forward 7 unknown #
point $-1 43.055513168736837 -20.293394296984424 -8.4379198968423914 #
straight-curve $-1 0 20.293394296984424 -8.4379198968423914 1 0 0 I I #
straight-curve $-1 -37.157106643478372 -2.879185522994268 8.4379198968423914 0 -1 0 I I #
edge $-1 $941 -3.4175545032996411 $934 20.293394296984424 $930 $949 forward 7 unknown #
straight-curve $-1 -43.055513168736837 -3.4175545032996411 0 0 0 1 I I #
point $-1 -43.055513168736837 20.293394296984424 -8.4379198968423914 #
straight-curve $-1 -37.157106643478372 -2.879185522994268 -8.4379198968423914 0 1 0 I I #
point $-1 -43.055513168736837 -3.4175545032996411 -8.4379198968423914 #
straight-curve $-1 -43.055513168736837 -20.293394296984424 0 0 0 -1 I I #
point $-1 -43.055513168736837 -20.293394296984424 -8.4379198968423914 #
straight-curve $-1 0 -20.293394296984424 -8.4379198968423914 -1 0 0 I I #
End-of-ACIS-data 