500 0 6 0           
7 Unknown 11 ACIS 5.0 NT 24 Fri Mar 26 00:45:28 1999 
-1 9.9999999999999995e-007 1e-010 
body $-1 $6 $-1 $7 #
body $-1 $8 $-1 $9 #
body $-1 $10 $-1 $11 #
body $-1 $12 $-1 $13 #
body $-1 $14 $-1 $15 #
body $-1 $16 $-1 $17 #
lump $-1 $-1 $18 $0 #
transform $-1 1 0 0 0 1 0 0 0 1 53.871272927030248 34.710612408802106 16.626602622260027 1 rotate no_reflect no_shear #
lump $-1 $-1 $19 $1 #
transform $-1 1 0 0 0 1 0 0 0 1 53.871272927030248 34.710612408802106 16.626602622260027 1 rotate no_reflect no_shear #
lump $-1 $-1 $20 $2 #
transform $-1 1 0 0 0 1 0 0 0 1 53.871272927030248 34.710612408802106 16.626602622260027 1 rotate no_reflect no_shear #
lump $-1 $-1 $21 $3 #
transform $-1 1 0 0 0 1 0 0 0 1 53.871272927030248 34.710612408802106 16.626602622260027 1 rotate no_reflect no_shear #
lump $-1 $-1 $22 $4 #
transform $-1 1 0 0 0 1 0 0 0 1 53.871272927030248 34.710612408802106 16.626602622260027 1 rotate no_reflect no_shear #
lump $-1 $-1 $23 $5 #
transform $-1 1 0 0 0 1 0 0 0 1 53.871272927030248 34.710612408802106 16.626602622260027 1 rotate no_reflect no_shear #
shell $-1 $-1 $-1 $24 $-1 $6 #
shell $-1 $-1 $-1 $25 $-1 $8 #
shell $-1 $-1 $-1 $26 $-1 $10 #
shell $-1 $-1 $-1 $27 $-1 $12 #
shell $-1 $-1 $-1 $28 $-1 $14 #
shell $-1 $-1 $-1 $29 $-1 $16 #
face $-1 $30 $31 $18 $-1 $32 forward single #
face $-1 $33 $34 $19 $-1 $35 forward single #
face $-1 $36 $37 $20 $-1 $38 reversed single #
face $-1 $39 $40 $21 $-1 $41 forward single #
face $-1 $42 $43 $22 $-1 $44 reversed single #
face $-1 $45 $46 $23 $-1 $47 forward single #
face $-1 $48 $49 $18 $-1 $50 reversed single #
loop $-1 $-1 $51 $24 #
plane-surface $-1 0 0 16.626602622260027 0 0 1 1 0 0 forward_v I I I I #
face $-1 $52 $53 $19 $-1 $54 reversed single #
loop $-1 $-1 $55 $25 #
plane-surface $-1 0 -34.710612408802106 0 0 1 0 0 0 1 forward_v I I I I #
face $-1 $56 $57 $20 $-1 $58 reversed single #
loop $-1 $-1 $59 $26 #
plane-surface $-1 -133.93958925447345 -19.376700612935011 77.542894814263931 0 1 0 -0.74314483375859142 0 0.66913059716165679 forward_v I I I I #
face $-1 $60 $61 $21 $-1 $62 forward single #
loop $-1 $63 $64 $27 #
cone-surface $-1 -46.253269879573189 -13.816953232299422 8.7095208500290227 0.74314483375859142 0 -0.66913059716165679 1.6728264929041421 0 1.8578620843964786 1 I I 0 1 2.5 forward I I I I #
face $-1 $65 $66 $22 $-1 $67 reversed single #
loop $-1 $-1 $68 $28 #
plane-surface $-1 61.845755207428752 -8.2572058516638336 157.61121114170712 0 -1 0 -0.74314483375859142 0 -0.66913059716165679 forward_v I I I I #
face $-1 $69 $70 $23 $-1 $71 forward single #
loop $-1 $72 $73 $29 #
cone-surface $-1 46.253269879573189 -13.816953232299422 8.7095208500290084 -0.74314483375859142 0 -0.66913059716165679 1.6728264929041421 0 -1.8578620843964786 1 I I 0 1 2.5 forward I I I I #
face $-1 $74 $75 $18 $-1 $76 reversed single #
loop $-1 $-1 $77 $30 #
plane-surface $-1 0 0 -16.626602622260027 0 0 1 1 0 0 forward_v I I I I #
coedge $-1 $78 $79 $80 $81 forward $31 $-1 #
face $-1 $82 $83 $19 $-1 $84 reversed single #
loop $-1 $-1 $85 $33 #
plane-surface $-1 0 0 -16.626602622260027 0 0 1 1 0 0 forward_v I I I I #
coedge $-1 $86 $87 $88 $89 forward $34 $-1 #
face $-1 $90 $91 $20 $-1 $92 reversed single #
loop $-1 $-1 $93 $36 #
plane-surface $-1 -53.871272927030248 -13.816953232299422 5.4490607672192368 -0.74314483375859142 0 0.66913059716165679 0.66913059716165679 0 0.74314483375859142 forward_v I I I I #
coedge $-1 $94 $95 $96 $97 reversed $37 $-1 #
face $-1 $-1 $98 $21 $-1 $99 forward single #
loop $-1 $100 $101 $39 #
cone-surface $-1 -42.738487610468979 -13.816953232299422 5.5447967588663367 0.74314483375859142 0 -0.66913059716165679 0.83641324645207105 0 0.9289310421982393 1 I I -0.70710678118654746 0.70710678118654746 1.25 forward I I I I #
loop $-1 $-1 $102 $27 #
coedge $-1 $64 $64 $103 $104 reversed $40 $-1 #
face $-1 $105 $106 $22 $-1 $107 reversed single #
loop $-1 $-1 $108 $42 #
plane-surface $-1 -18.222561120014447 -13.816953232299422 85.517377094662422 0.74314483375859142 0 0.66913059716165679 0.66913059716165679 0 -0.74314483375859142 forward_v I I I I #
coedge $-1 $109 $110 $111 $112 reversed $43 $-1 #
face $-1 $-1 $113 $23 $-1 $114 forward single #
loop $-1 $115 $116 $45 #
cone-surface $-1 42.738487610468979 -13.816953232299422 5.5447967588663225 -0.74314483375859142 0 -0.66913059716165679 0.83641324645207105 0 -0.9289310421982393 1 I I -0.70710678118654746 0.70710678118654746 1.25 forward I I I I #
loop $-1 $-1 $117 $29 #
coedge $-1 $73 $73 $118 $119 reversed $46 $-1 #
face $-1 $120 $121 $18 $-1 $122 reversed single #
loop $-1 $-1 $123 $48 #
plane-surface $-1 0 -34.710612408802106 0 0 1 0 0 0 1 forward_v I I I I #
coedge $-1 $124 $125 $126 $127 forward $49 $-1 #
coedge $-1 $128 $51 $129 $130 forward $31 $-1 #
coedge $-1 $51 $128 $131 $132 forward $31 $-1 #
coedge $-1 $133 $134 $51 $81 reversed $135 $-1 #
edge $-1 $136 -34.710612408802106 $137 34.710612408802106 $80 $138 forward 7 unknown #
face $-1 $139 $140 $19 $-1 $141 reversed single #
loop $-1 $-1 $142 $52 #
plane-surface $-1 -37.825721459971376 -50.044524204669202 0 0 1 0 0 0 1 forward_v I I I I #
coedge $-1 $143 $144 $87 $145 forward $53 $-1 #
coedge $-1 $146 $55 $147 $148 reversed $34 $-1 #
coedge $-1 $55 $146 $85 $145 reversed $34 $-1 #
coedge $-1 $149 $150 $55 $89 reversed $140 $-1 #
edge $-1 $151 -16.626602622260027 $152 16.626602622260027 $88 $153 forward 7 unknown #
face $-1 $154 $155 $20 $-1 $156 reversed single #
loop $-1 $-1 $157 $56 #
plane-surface $-1 -133.93958925447345 -8.2572058516638336 77.542894814263931 0 -1 0 0.74314483375859142 0 -0.66913059716165679 forward_v I I I I #
coedge $-1 $158 $159 $160 $161 reversed $57 $-1 #
coedge $-1 $95 $59 $162 $163 reversed $37 $-1 #
coedge $-1 $59 $94 $158 $164 reversed $37 $-1 #
coedge $-1 $160 $165 $59 $97 forward $166 $-1 #
edge $-1 $167 13.098521700206476 $168 23.162825341308647 $96 $169 forward 7 unknown #
loop $-1 $-1 $103 $60 #
plane-surface $-1 -53.871272927030248 -13.816953232299422 5.4490607672192368 -0.74314483375859142 0 0.66913059716165679 0.66913059716165679 0 0.74314483375859142 forward_v I I I I #
loop $-1 $-1 $170 $39 #
coedge $-1 $101 $101 $102 $171 reversed $61 $-1 #
coedge $-1 $102 $102 $101 $171 forward $63 $-1 #
coedge $-1 $103 $103 $64 $104 forward $98 $-1 #
edge $-1 $172 0 $172 6.2831853071796004 $103 $173 forward 7 unknown #
face $-1 $174 $175 $22 $-1 $176 forward single #
loop $-1 $-1 $177 $65 #
plane-surface $-1 61.845755207428752 -19.376700612935011 157.61121114170712 0 1 0 0.74314483375859142 0 0.66913059716165679 forward_v I I I I #
coedge $-1 $178 $179 $180 $181 reversed $66 $-1 #
coedge $-1 $110 $68 $182 $183 reversed $43 $-1 #
coedge $-1 $68 $109 $178 $184 reversed $43 $-1 #
coedge $-1 $180 $185 $68 $112 forward $175 $-1 #
edge $-1 $186 -22.948395323315872 $187 -12.884091682213693 $111 $188 forward 7 unknown #
loop $-1 $-1 $118 $69 #
plane-surface $-1 -18.222561120014447 -13.816953232299422 85.517377094662422 0.74314483375859142 0 0.66913059716165679 0.66913059716165679 0 -0.74314483375859142 forward_v I I I I #
loop $-1 $-1 $189 $45 #
coedge $-1 $116 $116 $117 $190 reversed $70 $-1 #
coedge $-1 $117 $117 $116 $190 forward $72 $-1 #
coedge $-1 $118 $118 $73 $119 forward $113 $-1 #
edge $-1 $191 0 $191 6.2831853071796004 $118 $192 forward 7 unknown #
face $-1 $193 $194 $18 $-1 $195 reversed single #
loop $-1 $-1 $196 $74 #
plane-surface $-1 -53.871272927030248 0 0 1 0 0 0 0 -1 forward_v I I I I #
coedge $-1 $197 $131 $198 $199 forward $75 $-1 #
coedge $-1 $200 $77 $197 $201 forward $49 $-1 #
coedge $-1 $77 $200 $202 $203 forward $49 $-1 #
coedge $-1 $134 $133 $77 $127 reversed $135 $-1 #
edge $-1 $204 -34.710612408802106 $205 34.710612408802106 $126 $206 forward 7 unknown #
coedge $-1 $79 $78 $207 $208 forward $31 $-1 #
coedge $-1 $209 $210 $78 $130 reversed $194 $-1 #
edge $-1 $137 -53.871272927030248 $211 53.871272927030248 $129 $212 forward 7 unknown #
coedge $-1 $123 $213 $79 $132 reversed $75 $-1 #
edge $-1 $214 -53.871272927030248 $136 53.871272927030248 $131 $215 forward 7 unknown #
coedge $-1 $126 $80 $213 $216 forward $135 $-1 #
coedge $-1 $80 $126 $209 $217 reversed $135 $-1 #
loop $-1 $-1 $133 $193 #
vertex $-1 $81 $218 #
vertex $-1 $81 $219 #
straight-curve $-1 53.871272927030248 0 16.626602622260027 0 1 0 I I #
face $-1 $220 $221 $19 $-1 $222 reversed single #
loop $-1 $-1 $88 $82 #
plane-surface $-1 -39.519537256759797 -42.377568306735654 0 1 0 0 0 0 -1 forward_v I I I I #
coedge $-1 $223 $224 $225 $226 forward $83 $-1 #
coedge $-1 $227 $85 $228 $229 forward $53 $-1 #
coedge $-1 $85 $227 $149 $230 forward $53 $-1 #
edge $-1 $151 -39.519537256759797 $231 -36.131905663182955 $85 $232 forward 7 unknown #
coedge $-1 $87 $86 $233 $234 forward $34 $-1 #
coedge $-1 $235 $236 $86 $148 forward $237 $-1 #
edge $-1 $238 36.131905663182955 $152 39.519537256759797 $147 $239 forward 7 unknown #
coedge $-1 $225 $88 $144 $230 reversed $140 $-1 #
coedge $-1 $88 $225 $235 $240 reversed $140 $-1 #
vertex $-1 $145 $241 #
vertex $-1 $240 $242 #
straight-curve $-1 -39.519537256759797 -34.710612408802106 0 0 0 1 I I #
face $-1 $-1 $166 $20 $-1 $243 forward single #
loop $-1 $-1 $244 $90 #
plane-surface $-1 -53.871272927030248 0 0 1 0 0 0 0 -1 forward_v I I I I #
coedge $-1 $245 $246 $247 $248 reversed $91 $-1 #
coedge $-1 $249 $93 $95 $164 forward $57 $-1 #
coedge $-1 $93 $249 $245 $250 forward $57 $-1 #
coedge $-1 $247 $96 $93 $161 forward $166 $-1 #
edge $-1 $168 -12.4682239967853 $251 -1.3487292355141225 $160 $252 forward 7 unknown #
coedge $-1 $253 $254 $94 $163 forward $155 $-1 #
edge $-1 $255 -33.322386639912729 $167 -22.144844784871939 $162 $256 forward 7 unknown #
edge $-1 $168 -15.040865989080917 $255 0 $95 $257 forward 7 unknown #
coedge $-1 $96 $247 $253 $258 forward $166 $-1 #
loop $-1 $-1 $247 $154 #
vertex $-1 $163 $259 #
vertex $-1 $97 $260 #
straight-curve $-1 -66.969794627236723 -19.376700612935011 16.626602622260027 1 0 0 I I #
coedge $-1 $170 $170 $-1 $261 reversed $100 $-1 #
edge $-1 $262 0 $262 6.2831853071796004 $101 $263 forward 7 unknown #
vertex $-1 $104 $264 #
ellipse-curve $-1 -48.839121106479162 -13.816953232299422 11.037831694739637 -0.74314483375859142 0 0.66913059716165679 1.6728264929041421 0 1.8578620843964786 1 I I #
face $-1 $-1 $265 $22 $-1 $266 reversed single #
loop $-1 $-1 $111 $105 #
plane-surface $-1 0 0 16.626602622260027 0 0 1 1 0 0 forward_v I I I I #
coedge $-1 $267 $268 $269 $270 reversed $106 $-1 #
coedge $-1 $271 $108 $110 $184 forward $66 $-1 #
coedge $-1 $108 $271 $267 $272 forward $66 $-1 #
coedge $-1 $269 $111 $108 $181 forward $175 $-1 #
edge $-1 $187 1.3487292355141225 $273 12.4682239967853 $180 $274 forward 7 unknown #
coedge $-1 $275 $276 $109 $183 forward $265 $-1 #
edge $-1 $277 -73.35654480363435 $186 -62.179002948593535 $182 $278 forward 7 unknown #
edge $-1 $187 92.701679864979553 $277 107.7425458540605 $110 $279 forward 7 unknown #
coedge $-1 $111 $269 $275 $280 forward $175 $-1 #
vertex $-1 $112 $281 #
vertex $-1 $112 $282 #
straight-curve $-1 30.922877603714376 -8.2572058516638336 16.626602622260023 -1 0 0 I I #
coedge $-1 $189 $189 $-1 $283 reversed $115 $-1 #
edge $-1 $284 0 $284 6.2831853071796004 $116 $285 forward 7 unknown #
vertex $-1 $119 $286 #
ellipse-curve $-1 48.839121106479162 -13.816953232299422 11.037831694739625 0.74314483375859142 0 0.66913059716165679 1.6728264929041421 0 -1.8578620843964786 1 I I #
face $-1 $-1 $135 $18 $-1 $287 reversed single #
loop $-1 $-1 $209 $120 #
plane-surface $-1 0 34.710612408802106 0 0 -1 0 0 0 -1 forward_v I I I I #
coedge $-1 $288 $207 $210 $289 forward $121 $-1 #
coedge $-1 $213 $123 $124 $201 reversed $75 $-1 #
coedge $-1 $207 $288 $123 $199 reversed $121 $-1 #
edge $-1 $214 -16.626602622260027 $290 16.626602622260027 $198 $291 forward 7 unknown #
coedge $-1 $125 $124 $288 $292 forward $49 $-1 #
edge $-1 $205 -53.871272927030248 $290 53.871272927030248 $197 $293 forward 7 unknown #
coedge $-1 $210 $209 $125 $203 reversed $194 $-1 #
edge $-1 $294 -53.871272927030248 $204 53.871272927030248 $202 $295 forward 7 unknown #
vertex $-1 $127 $296 #
vertex $-1 $216 $297 #
straight-curve $-1 53.871272927030248 0 -16.626602622260027 0 -1 0 I I #
coedge $-1 $196 $198 $128 $208 reversed $121 $-1 #
edge $-1 $211 -34.710612408802106 $214 34.710612408802106 $207 $298 forward 7 unknown #
coedge $-1 $202 $129 $134 $217 forward $194 $-1 #
coedge $-1 $129 $202 $196 $289 reversed $194 $-1 #
vertex $-1 $130 $299 #
straight-curve $-1 0 34.710612408802106 16.626602622260027 -1 0 0 I I #
coedge $-1 $131 $197 $133 $216 reversed $75 $-1 #
vertex $-1 $208 $300 #
straight-curve $-1 0 -34.710612408802106 16.626602622260027 1 0 0 I I #
edge $-1 $136 -16.626602622260027 $205 16.626602622260027 $133 $301 forward 7 unknown #
edge $-1 $137 -16.626602622260027 $204 16.626602622260027 $134 $302 forward 7 unknown #
point $-1 53.871272927030248 -34.710612408802106 16.626602622260027 #
point $-1 53.871272927030248 34.710612408802106 16.626602622260027 #
face $-1 $-1 $237 $19 $-1 $303 forward single #
loop $-1 $-1 $304 $139 #
plane-surface $-1 -36.131905663182955 -42.377568306735654 0 -1 0 0 0 0 1 forward_v I I I I #
coedge $-1 $305 $142 $227 $306 reversed $83 $-1 #
coedge $-1 $142 $305 $307 $308 reversed $83 $-1 #
coedge $-1 $150 $149 $142 $226 reversed $140 $-1 #
edge $-1 $309 -16.626602622260027 $310 16.626602622260027 $225 $311 forward 7 unknown #
coedge $-1 $144 $143 $223 $306 forward $53 $-1 #
coedge $-1 $233 $304 $143 $229 reversed $221 $-1 #
edge $-1 $231 -7.6669558979335477 $312 7.6669558979335477 $228 $313 forward 7 unknown #
edge $-1 $310 -7.6669558979335477 $151 7.6669558979335477 $149 $314 forward 7 unknown #
vertex $-1 $229 $315 #
straight-curve $-1 0 -34.710612408802106 -16.626602622260027 1 0 0 I I #
coedge $-1 $316 $228 $146 $234 reversed $221 $-1 #
edge $-1 $238 -16.626602622260027 $231 16.626602622260027 $233 $317 forward 7 unknown #
coedge $-1 $307 $147 $150 $240 forward $237 $-1 #
coedge $-1 $147 $307 $316 $318 forward $237 $-1 #
loop $-1 $-1 $147 $220 #
vertex $-1 $148 $319 #
straight-curve $-1 0 -34.710612408802106 16.626602622260027 -1 0 0 I I #
edge $-1 $152 -7.6669558979335477 $309 7.6669558979335477 $150 $320 forward 7 unknown #
point $-1 -39.519537256759797 -34.710612408802106 -16.626602622260027 #
point $-1 -39.519537256759797 -34.710612408802106 16.626602622260027 #
plane-surface $-1 0 0 16.626602622260027 0 0 1 1 0 0 forward_v I I I I #
coedge $-1 $254 $253 $246 $321 forward $155 $-1 #
coedge $-1 $246 $157 $159 $250 reversed $91 $-1 #
coedge $-1 $157 $245 $244 $321 reversed $91 $-1 #
coedge $-1 $165 $160 $157 $248 forward $166 $-1 #
edge $-1 $251 -23.162825341308647 $322 -13.098521700206476 $247 $323 forward 7 unknown #
coedge $-1 $159 $158 $254 $324 reversed $57 $-1 #
edge $-1 $325 0 $251 15.040865989080917 $245 $326 forward 7 unknown #
vertex $-1 $161 $327 #
straight-curve $-1 -43.806969285928076 -6.9084766161497111 16.626602622260027 0 1 0 I I #
coedge $-1 $244 $162 $165 $258 reversed $155 $-1 #
coedge $-1 $162 $244 $249 $324 forward $155 $-1 #
vertex $-1 $163 $328 #
straight-curve $-1 -53.871272927030248 -19.376700612935011 38.771447407131966 0 0 1 I I #
straight-curve $-1 -53.871272927030248 -19.376700612935011 5.4490607672192368 -0.66913059716165679 0 -0.74314483375859142 I I #
edge $-1 $322 8.2572058516638336 $167 19.376700612935011 $253 $329 forward 7 unknown #
point $-1 -53.871272927030248 -19.376700612935011 16.626602622260027 #
point $-1 -43.806969285928076 -19.376700612935011 16.626602622260027 #
edge $-1 $330 1 $330 0 $170 $-1 forward 7 unknown #
vertex $-1 $171 $331 #
ellipse-curve $-1 -43.667418652667216 -13.816953232299422 6.3812100053184082 -0.74314483375859142 0 0.66913059716165679 1.6728264929041421 0 1.8578620843964786 1 I I #
point $-1 -47.166294613575019 -13.816953232299422 12.895693779136117 #
loop $-1 $-1 $182 $174 #
plane-surface $-1 53.871272927030248 0 0 -1 0 0 0 0 1 forward_v I I I I #
coedge $-1 $268 $177 $179 $272 reversed $106 $-1 #
coedge $-1 $177 $267 $332 $333 reversed $106 $-1 #
coedge $-1 $185 $180 $177 $270 forward $175 $-1 #
edge $-1 $273 12.884091682213693 $334 22.948395323315872 $269 $335 forward 7 unknown #
coedge $-1 $179 $178 $276 $336 reversed $66 $-1 #
edge $-1 $337 -107.7425458540605 $273 -92.701679864979553 $267 $338 forward 7 unknown #
vertex $-1 $181 $339 #
straight-curve $-1 43.806969285928055 -6.9084766161497111 16.626602622260023 0 -1 0 I I #
coedge $-1 $332 $182 $185 $280 reversed $265 $-1 #
coedge $-1 $182 $332 $271 $336 forward $265 $-1 #
vertex $-1 $183 $340 #
straight-curve $-1 53.871272927030248 -8.2572058516638336 78.805605570853558 0 0 1 I I #
straight-curve $-1 -18.222561120014447 -8.2572058516638336 85.517377094662422 0.66913059716165679 0 -0.74314483375859142 I I #
edge $-1 $334 -19.376700612935011 $186 -8.2572058516638336 $275 $341 forward 7 unknown #
point $-1 53.871272927030248 -8.2572058516638336 16.626602622260027 #
point $-1 43.806969285928069 -8.2572058516638336 16.626602622260023 #
edge $-1 $342 1 $342 0 $189 $-1 forward 7 unknown #
vertex $-1 $190 $343 #
ellipse-curve $-1 43.667418652667216 -13.816953232299422 6.381210005318394 0.74314483375859142 0 0.66913059716165679 1.6728264929041421 0 -1.8578620843964786 1 I I #
point $-1 50.511947599383305 -13.816953232299422 9.1799696103431447 #
plane-surface $-1 53.871272927030248 0 0 -1 0 0 0 0 1 forward_v I I I I #
coedge $-1 $198 $196 $200 $292 reversed $121 $-1 #
edge $-1 $211 -16.626602622260027 $294 16.626602622260027 $210 $344 forward 7 unknown #
vertex $-1 $292 $345 #
straight-curve $-1 -53.871272927030248 -34.710612408802106 0 0 0 -1 I I #
edge $-1 $290 -34.710612408802106 $294 34.710612408802106 $288 $346 forward 7 unknown #
straight-curve $-1 0 -34.710612408802106 -16.626602622260027 -1 0 0 I I #
vertex $-1 $203 $347 #
straight-curve $-1 0 34.710612408802106 -16.626602622260027 1 0 0 I I #
point $-1 53.871272927030248 34.710612408802106 -16.626602622260027 #
point $-1 53.871272927030248 -34.710612408802106 -16.626602622260027 #
straight-curve $-1 -53.871272927030248 0 16.626602622260027 0 -1 0 I I #
point $-1 -53.871272927030248 34.710612408802106 16.626602622260027 #
point $-1 -53.871272927030248 -34.710612408802106 16.626602622260027 #
straight-curve $-1 53.871272927030248 -34.710612408802106 0 0 0 -1 I I #
straight-curve $-1 53.871272927030248 34.710612408802106 0 0 0 -1 I I #
plane-surface $-1 0 0 16.626602622260027 0 0 1 1 0 0 forward_v I I I I #
coedge $-1 $228 $316 $305 $348 forward $221 $-1 #
coedge $-1 $224 $223 $304 $348 reversed $83 $-1 #
edge $-1 $312 -1.6938157967884209 $310 1.6938157967884209 $223 $349 forward 7 unknown #
coedge $-1 $236 $235 $224 $308 forward $237 $-1 #
edge $-1 $309 -1.6938157967884209 $350 1.6938157967884209 $224 $351 forward 7 unknown #
vertex $-1 $240 $352 #
vertex $-1 $230 $353 #
straight-curve $-1 -39.519537256759797 -50.044524204669202 0 0 0 -1 I I #
vertex $-1 $348 $354 #
straight-curve $-1 -36.131905663182955 -42.377568306735654 -16.626602622260027 0 -1 0 I I #
straight-curve $-1 -39.519537256759797 -42.377568306735654 -16.626602622260027 0 1 0 I I #
point $-1 -36.131905663182955 -34.710612408802106 -16.626602622260027 #
coedge $-1 $304 $233 $236 $318 reversed $221 $-1 #
straight-curve $-1 -36.131905663182955 -34.710612408802106 0 0 0 -1 I I #
edge $-1 $350 -7.6669558979335477 $238 7.6669558979335477 $316 $355 forward 7 unknown #
point $-1 -36.131905663182955 -34.710612408802106 16.626602622260027 #
straight-curve $-1 -39.519537256759797 -42.377568306735654 16.626602622260027 0 -1 0 I I #
edge $-1 $322 22.144844784871939 $325 33.322386639912729 $244 $356 forward 7 unknown #
vertex $-1 $258 $357 #
straight-curve $-1 -66.969794627236723 -8.2572058516638336 16.626602622260027 -1 0 0 I I #
edge $-1 $325 1.3487292355141225 $255 12.4682239967853 $254 $358 forward 7 unknown #
vertex $-1 $324 $359 #
straight-curve $-1 -53.871272927030248 -8.2572058516638336 5.4490607672192368 0.66913059716165679 0 0.74314483375859142 I I #
point $-1 -43.806969285928076 -8.2572058516638336 16.626602622260027 #
point $-1 -53.871272927030248 -19.376700612935011 5.4490607672192368 #
straight-curve $-1 -53.871272927030248 0 16.626602622260027 0 -1 0 I I #
vertex $-1 $261 $360 #
point $-1 -41.99459215976308 -13.816953232299422 8.2390720897148864 #
coedge $-1 $276 $275 $268 $333 forward $265 $-1 #
edge $-1 $334 62.179002948593535 $337 73.35654480363435 $332 $361 forward 7 unknown #
vertex $-1 $280 $362 #
straight-curve $-1 30.922877603714376 -19.376700612935011 16.626602622260023 1 0 0 I I #
edge $-1 $337 -12.4682239967853 $277 -1.3487292355141225 $276 $363 forward 7 unknown #
vertex $-1 $336 $364 #
straight-curve $-1 -18.222561120014447 -19.376700612935011 85.517377094662422 -0.66913059716165679 0 0.74314483375859142 I I #
point $-1 43.806969285928069 -19.376700612935011 16.626602622260023 #
point $-1 53.871272927030248 -8.2572058516638336 5.4490607672192084 #
straight-curve $-1 53.871272927030248 0 16.626602622260027 0 1 0 I I #
vertex $-1 $283 $365 #
point $-1 45.340245145571359 -13.816953232299422 4.523347920921915 #
straight-curve $-1 -53.871272927030248 34.710612408802106 0 0 0 -1 I I #
point $-1 -53.871272927030248 -34.710612408802106 -16.626602622260027 #
straight-curve $-1 -53.871272927030248 0 -16.626602622260027 0 1 0 I I #
point $-1 -53.871272927030248 34.710612408802106 -16.626602622260027 #
edge $-1 $350 -16.626602622260027 $312 16.626602622260027 $304 $366 forward 7 unknown #
straight-curve $-1 -37.825721459971376 -50.044524204669202 -16.626602622260027 -1 0 0 I I #
vertex $-1 $318 $367 #
straight-curve $-1 -37.825721459971376 -50.044524204669202 16.626602622260027 1 0 0 I I #
point $-1 -39.519537256759797 -50.044524204669202 16.626602622260027 #
point $-1 -39.519537256759797 -50.044524204669202 -16.626602622260027 #
point $-1 -36.131905663182955 -50.044524204669202 -16.626602622260027 #
straight-curve $-1 -36.131905663182955 -42.377568306735654 16.626602622260027 0 1 0 I I #
straight-curve $-1 -53.871272927030248 -8.2572058516638336 38.771447407131966 0 0 -1 I I #
point $-1 -53.871272927030248 -8.2572058516638336 16.626602622260027 #
straight-curve $-1 -53.871272927030248 -6.9084766161497111 5.4490607672192377 0 -1 0 I I #
point $-1 -53.871272927030248 -8.2572058516638336 5.4490607672192368 #
point $-1 -41.809556568270743 -13.816953232299422 4.7083835124142652 #
straight-curve $-1 53.871272927030248 -19.376700612935011 78.805605570853558 0 0 -1 I I #
point $-1 53.871272927030248 -19.376700612935011 16.626602622260027 #
straight-curve $-1 53.871272927030248 -6.9084766161497111 5.4490607672192155 0 1 0 I I #
point $-1 53.871272927030248 -19.376700612935011 5.4490607672192084 #
point $-1 41.809556568270743 -13.816953232299422 4.708383512414251 #
straight-curve $-1 -36.131905663182955 -50.044524204669202 0 0 0 -1 I I #
point $-1 -36.131905663182955 -50.044524204669202 16.626602622260027 #
End-of-ACIS-data 