500 0 5 0           
7 Unknown 11 ACIS 5.0 NT 24 Fri Mar 26 00:56:41 1999 
-1 9.9999999999999995e-007 1e-010 
body $-1 $5 $-1 $6 #
body $-1 $7 $-1 $8 #
body $-1 $9 $-1 $10 #
body $-1 $11 $-1 $12 #
body $-1 $13 $-1 $14 #
lump $-1 $-1 $15 $0 #
transform $-1 1 0 0 0 1 0 0 0 1 57.797173986022521 39.064730133013107 13.694293928216448 1 rotate no_reflect no_shear #
lump $-1 $-1 $16 $1 #
transform $-1 1 0 0 0 1 0 0 0 1 57.797173986022521 39.064730133013107 13.694293928216448 1 rotate no_reflect no_shear #
lump $-1 $-1 $17 $2 #
transform $-1 1 0 0 0 1 0 0 0 1 57.797173986022521 39.064730133013107 13.694293928216448 1 rotate no_reflect no_shear #
lump $-1 $-1 $18 $3 #
transform $-1 1 0 0 0 1 0 0 0 1 57.797173986022521 39.064730133013107 13.694293928216448 1 rotate no_reflect no_shear #
lump $-1 $-1 $19 $4 #
transform $-1 1 0 0 0 1 0 0 0 1 57.797173986022521 39.064730133013107 13.694293928216448 1 rotate no_reflect no_shear #
shell $-1 $-1 $-1 $20 $-1 $5 #
shell $-1 $-1 $-1 $21 $-1 $7 #
shell $-1 $-1 $-1 $22 $-1 $9 #
shell $-1 $-1 $-1 $23 $-1 $11 #
shell $-1 $-1 $-1 $24 $-1 $13 #
face $-1 $25 $26 $15 $-1 $27 forward single #
face $-1 $28 $29 $16 $-1 $30 reversed single #
face $-1 $31 $32 $17 $-1 $33 reversed single #
face $-1 $34 $35 $18 $-1 $36 forward single #
face $-1 $37 $38 $19 $-1 $39 forward single #
face $-1 $40 $41 $15 $-1 $42 reversed single #
loop $-1 $-1 $43 $20 #
plane-surface $-1 0 0 13.694293928216448 0 0 1 1 0 0 forward_v I I I I #
face $-1 $44 $45 $16 $-1 $46 reversed single #
loop $-1 $-1 $47 $21 #
plane-surface $-1 -50.539858532581448 -31.427069635007321 0 0 -1 0 0 0 -1 forward_v I I I I #
face $-1 $48 $49 $17 $-1 $50 reversed single #
loop $-1 $-1 $51 $22 #
plane-surface $-1 -15.668084043429335 -114.9014467425782 94.118491198049895 -1 0 0 0 -0.6560590369687036 0.75470957328743171 forward_v I I I I #
face $-1 $52 $53 $18 $-1 $54 forward single #
loop $-1 $55 $56 $23 #
cone-surface $-1 -24.162968557058527 -34.62456590738843 9.6884315237317971 0 0.6560590369687036 -0.75470957328743171 1 0 0 1 I I 0 1 1 forward I I I I #
face $-1 $57 $58 $19 $-1 $59 forward single #
loop $-1 $60 $61 $24 #
cone-surface $-1 -19.066037848881017 -34.62456590738843 9.6884315237317971 0 0.6560590369687036 -0.75470957328743171 1 0 0 1 I I 0 1 1 forward I I I I #
face $-1 $62 $63 $15 $-1 $64 reversed single #
loop $-1 $-1 $65 $25 #
plane-surface $-1 0 0 -13.694293928216448 0 0 1 1 0 0 forward_v I I I I #
coedge $-1 $66 $67 $68 $69 forward $26 $-1 #
face $-1 $70 $71 $16 $-1 $72 forward single #
loop $-1 $-1 $73 $28 #
plane-surface $-1 -43.282543079140375 -35.245899884010214 0 -1 0 0 0 0 1 forward_v I I I I #
coedge $-1 $74 $75 $76 $77 forward $29 $-1 #
face $-1 $78 $79 $17 $-1 $80 reversed single #
loop $-1 $-1 $81 $31 #
plane-surface $-1 -21.614503202969765 -39.064730133013114 6.8783301656288813 0 -0.6560590369687036 0.75470957328743171 1 0 0 forward_v I I I I #
coedge $-1 $82 $83 $84 $85 reversed $32 $-1 #
face $-1 $-1 $86 $18 $-1 $87 forward single #
loop $-1 $88 $89 $34 #
cone-surface $-1 -24.162968557058527 -33.776806768199293 8.7131962138972145 0 0.6560590369687036 -0.75470957328743171 0.5 0 0 1 I I -0.70710678118654746 0.70710678118654746 0.5 forward I I I I #
loop $-1 $-1 $90 $23 #
coedge $-1 $56 $56 $91 $92 reversed $35 $-1 #
face $-1 $-1 $93 $19 $-1 $94 forward single #
loop $-1 $95 $96 $37 #
cone-surface $-1 -19.066037848881017 -33.776806768199293 8.7131962138972145 0 0.6560590369687036 -0.75470957328743171 0.5 0 0 1 I I -0.70710678118654746 0.70710678118654746 0.5 forward I I I I #
loop $-1 $-1 $97 $24 #
coedge $-1 $61 $61 $98 $99 reversed $38 $-1 #
face $-1 $100 $101 $15 $-1 $102 reversed single #
loop $-1 $-1 $103 $40 #
plane-surface $-1 0 -39.064730133013107 0 0 1 0 0 0 1 forward_v I I I I #
coedge $-1 $104 $105 $106 $107 forward $41 $-1 #
coedge $-1 $108 $43 $109 $110 forward $26 $-1 #
coedge $-1 $43 $108 $111 $112 forward $26 $-1 #
coedge $-1 $113 $114 $43 $69 reversed $115 $-1 #
edge $-1 $116 -39.064730133013107 $117 39.064730133013107 $68 $118 forward 7 unknown #
face $-1 $119 $120 $16 $-1 $121 reversed single #
loop $-1 $-1 $122 $44 #
plane-surface $-1 0 0 13.694293928216448 0 0 1 1 0 0 forward_v I I I I #
coedge $-1 $123 $124 $125 $126 reversed $45 $-1 #
coedge $-1 $127 $47 $128 $129 reversed $29 $-1 #
coedge $-1 $47 $127 $130 $131 reversed $29 $-1 #
coedge $-1 $124 $123 $47 $77 reversed $45 $-1 #
edge $-1 $132 -13.694293928216448 $133 13.694293928216448 $76 $134 forward 7 unknown #
face $-1 $135 $136 $17 $-1 $137 forward single #
loop $-1 $-1 $138 $48 #
plane-surface $-1 -27.560922362510194 -114.9014467425782 94.118491198049895 1 0 0 0 0.6560590369687036 -0.75470957328743171 forward_v I I I I #
coedge $-1 $139 $140 $141 $142 reversed $49 $-1 #
coedge $-1 $83 $51 $143 $144 reversed $32 $-1 #
coedge $-1 $51 $82 $139 $145 reversed $32 $-1 #
coedge $-1 $141 $146 $51 $85 forward $136 $-1 #
edge $-1 $147 18.385993238275994 $148 26.226862448115789 $84 $149 forward 7 unknown #
loop $-1 $-1 $91 $52 #
plane-surface $-1 -21.614503202969765 -39.064730133013114 6.8783301656288813 0 -0.6560590369687036 0.75470957328743171 1 0 0 forward_v I I I I #
loop $-1 $-1 $150 $34 #
coedge $-1 $89 $89 $90 $151 reversed $53 $-1 #
coedge $-1 $90 $90 $89 $151 forward $55 $-1 #
coedge $-1 $91 $91 $56 $92 forward $86 $-1 #
edge $-1 $152 0 $152 6.2831853071796004 $91 $153 forward 7 unknown #
loop $-1 $-1 $98 $57 #
plane-surface $-1 -21.614503202969765 -39.064730133013114 6.8783301656288813 0 -0.6560590369687036 0.75470957328743171 1 0 0 forward_v I I I I #
loop $-1 $-1 $154 $37 #
coedge $-1 $96 $96 $97 $155 reversed $58 $-1 #
coedge $-1 $97 $97 $96 $155 forward $60 $-1 #
coedge $-1 $98 $98 $61 $99 forward $93 $-1 #
edge $-1 $156 0 $156 6.2831853071796004 $98 $157 forward 7 unknown #
face $-1 $158 $159 $15 $-1 $160 reversed single #
loop $-1 $-1 $161 $62 #
plane-surface $-1 -57.797173986022521 0 0 1 0 0 0 0 -1 forward_v I I I I #
coedge $-1 $162 $111 $163 $164 forward $63 $-1 #
coedge $-1 $165 $65 $162 $166 forward $41 $-1 #
coedge $-1 $65 $165 $167 $168 forward $41 $-1 #
coedge $-1 $114 $113 $65 $107 reversed $115 $-1 #
edge $-1 $169 -39.064730133013107 $170 39.064730133013107 $106 $171 forward 7 unknown #
coedge $-1 $67 $66 $172 $173 forward $26 $-1 #
coedge $-1 $174 $175 $66 $110 reversed $159 $-1 #
edge $-1 $117 -57.797173986022521 $176 57.797173986022521 $109 $177 forward 7 unknown #
coedge $-1 $103 $178 $67 $112 reversed $63 $-1 #
edge $-1 $179 -57.797173986022521 $116 57.797173986022521 $111 $180 forward 7 unknown #
coedge $-1 $106 $68 $178 $181 forward $115 $-1 #
coedge $-1 $68 $106 $174 $182 reversed $115 $-1 #
loop $-1 $-1 $113 $158 #
vertex $-1 $69 $183 #
vertex $-1 $69 $184 #
straight-curve $-1 57.797173986022521 0 13.694293928216448 0 1 0 I I #
face $-1 $185 $186 $16 $-1 $187 reversed single #
loop $-1 $-1 $188 $70 #
plane-surface $-1 -57.797173986022521 0 0 1 0 0 0 0 -1 forward_v I I I I #
coedge $-1 $130 $189 $124 $190 forward $71 $-1 #
coedge $-1 $76 $73 $191 $192 reversed $45 $-1 #
coedge $-1 $73 $76 $122 $190 reversed $45 $-1 #
coedge $-1 $193 $194 $73 $126 forward $195 $-1 #
edge $-1 $196 -13.694293928216448 $197 13.694293928216448 $125 $198 forward 7 unknown #
coedge $-1 $75 $74 $188 $199 reversed $29 $-1 #
coedge $-1 $191 $200 $74 $129 forward $186 $-1 #
edge $-1 $201 -32.527244719731797 $133 -18.012613812849651 $128 $202 forward 7 unknown #
coedge $-1 $203 $122 $75 $131 forward $71 $-1 #
edge $-1 $132 18.012613812849651 $204 32.527244719731797 $130 $205 forward 7 unknown #
vertex $-1 $131 $206 #
vertex $-1 $129 $207 #
straight-curve $-1 -43.282543079140375 -31.427069635007321 0 0 0 -1 I I #
face $-1 $-1 $208 $17 $-1 $209 reversed single #
loop $-1 $-1 $84 $78 #
plane-surface $-1 0 0 13.694293928216448 0 0 1 1 0 0 forward_v I I I I #
coedge $-1 $210 $211 $212 $213 reversed $79 $-1 #
coedge $-1 $214 $81 $83 $145 forward $49 $-1 #
coedge $-1 $81 $214 $210 $215 forward $49 $-1 #
coedge $-1 $212 $84 $81 $142 forward $136 $-1 #
edge $-1 $148 4.8608324419444529 $216 16.753670761025312 $141 $217 forward 7 unknown #
coedge $-1 $218 $219 $82 $144 forward $208 $-1 #
edge $-1 $220 -40.180915433396059 $147 -33.364951670808502 $143 $221 forward 7 unknown #
edge $-1 $148 -10.389253677657539 $220 -9.44141639987384e-015 $83 $222 forward 7 unknown #
coedge $-1 $84 $212 $218 $223 forward $136 $-1 #
vertex $-1 $144 $224 #
vertex $-1 $85 $225 #
straight-curve $-1 -15.668084043429335 -57.450723371289101 13.694293928216446 0 1 0 I I #
coedge $-1 $150 $150 $-1 $226 reversed $88 $-1 #
edge $-1 $227 0 $227 6.2831853071796004 $89 $228 forward 7 unknown #
vertex $-1 $92 $229 #
ellipse-curve $-1 -24.162968557058527 -35.14429552809321 10.286312046922665 0 -0.6560590369687036 0.75470957328743171 1 0 0 1 I I #
coedge $-1 $154 $154 $-1 $230 reversed $95 $-1 #
edge $-1 $231 0 $231 6.2831853071796004 $96 $232 forward 7 unknown #
vertex $-1 $99 $233 #
ellipse-curve $-1 -19.066037848881017 -35.14429552809321 10.286312046922665 0 -0.6560590369687036 0.75470957328743171 1 0 0 1 I I #
face $-1 $-1 $115 $15 $-1 $234 reversed single #
loop $-1 $-1 $174 $100 #
plane-surface $-1 0 39.064730133013107 0 0 -1 0 0 0 -1 forward_v I I I I #
coedge $-1 $235 $172 $175 $236 forward $101 $-1 #
coedge $-1 $178 $103 $104 $166 reversed $63 $-1 #
coedge $-1 $172 $235 $103 $164 reversed $101 $-1 #
edge $-1 $179 -13.694293928216448 $237 13.694293928216448 $163 $238 forward 7 unknown #
coedge $-1 $105 $104 $235 $239 forward $41 $-1 #
edge $-1 $170 -57.797173986022521 $237 57.797173986022521 $162 $240 forward 7 unknown #
coedge $-1 $175 $174 $105 $168 reversed $159 $-1 #
edge $-1 $241 -57.797173986022521 $169 57.797173986022521 $167 $242 forward 7 unknown #
vertex $-1 $107 $243 #
vertex $-1 $181 $244 #
straight-curve $-1 57.797173986022521 0 -13.694293928216448 0 -1 0 I I #
coedge $-1 $161 $163 $108 $173 reversed $101 $-1 #
edge $-1 $176 -39.064730133013107 $179 39.064730133013107 $172 $245 forward 7 unknown #
coedge $-1 $167 $109 $114 $182 forward $159 $-1 #
coedge $-1 $109 $167 $161 $236 reversed $159 $-1 #
vertex $-1 $110 $246 #
straight-curve $-1 0 39.064730133013107 13.694293928216448 -1 0 0 I I #
coedge $-1 $111 $162 $113 $181 reversed $63 $-1 #
vertex $-1 $173 $247 #
straight-curve $-1 0 -39.064730133013107 13.694293928216448 1 0 0 I I #
edge $-1 $116 -13.694293928216448 $170 13.694293928216448 $113 $248 forward 7 unknown #
edge $-1 $117 -13.694293928216448 $169 13.694293928216448 $114 $249 forward 7 unknown #
point $-1 57.797173986022521 -39.064730133013107 13.694293928216448 #
point $-1 57.797173986022521 39.064730133013107 13.694293928216448 #
face $-1 $-1 $195 $16 $-1 $250 reversed single #
loop $-1 $-1 $191 $119 #
plane-surface $-1 0 0 -13.694293928216448 0 0 1 1 0 0 forward_v I I I I #
coedge $-1 $251 $252 $127 $199 forward $120 $-1 #
coedge $-1 $122 $203 $193 $253 forward $71 $-1 #
edge $-1 $197 -21.441780191008 $132 -13.804119693002214 $122 $254 forward 7 unknown #
coedge $-1 $255 $128 $123 $192 forward $186 $-1 #
edge $-1 $133 13.804119693002214 $196 21.441780191008 $191 $256 forward 7 unknown #
coedge $-1 $257 $125 $189 $253 reversed $195 $-1 #
coedge $-1 $125 $257 $255 $258 reversed $195 $-1 #
loop $-1 $-1 $125 $185 #
vertex $-1 $258 $259 #
vertex $-1 $126 $260 #
straight-curve $-1 -43.282543079140375 -39.064730133013107 0 0 0 1 I I #
edge $-1 $204 -13.694293928216448 $201 13.694293928216448 $188 $261 forward 7 unknown #
coedge $-1 $128 $255 $251 $262 forward $186 $-1 #
vertex $-1 $129 $263 #
straight-curve $-1 -25.269929266290724 -31.427069635007321 -13.694293928216448 1 0 0 I I #
coedge $-1 $189 $130 $252 $264 forward $71 $-1 #
vertex $-1 $264 $265 #
straight-curve $-1 -25.269929266290724 -31.427069635007321 13.694293928216448 -1 0 0 I I #
point $-1 -43.282543079140375 -31.427069635007321 13.694293928216448 #
point $-1 -43.282543079140375 -31.427069635007321 -13.694293928216448 #
loop $-1 $-1 $143 $135 #
plane-surface $-1 0 -39.064730133013107 0 0 1 0 0 0 1 forward_v I I I I #
coedge $-1 $211 $138 $140 $215 reversed $79 $-1 #
coedge $-1 $138 $210 $266 $267 reversed $79 $-1 #
coedge $-1 $146 $141 $138 $213 forward $136 $-1 #
edge $-1 $216 -26.226862448115789 $268 -18.385993238275994 $212 $269 forward 7 unknown #
coedge $-1 $140 $139 $219 $270 reversed $49 $-1 #
edge $-1 $271 9.44141639987384e-015 $216 10.389253677657539 $210 $272 forward 7 unknown #
vertex $-1 $142 $273 #
straight-curve $-1 -10.807251601484882 -31.223860923173312 13.694293928216448 -1 0 0 I I #
coedge $-1 $266 $143 $146 $223 reversed $208 $-1 #
coedge $-1 $143 $266 $214 $270 forward $208 $-1 #
vertex $-1 $144 $274 #
straight-curve $-1 -15.668084043429335 -39.064730133013107 47.059245599024948 0 0 1 I I #
straight-curve $-1 -15.668084043429335 -39.064730133013114 6.8783301656288813 0 -0.75470957328743171 -0.6560590369687036 I I #
edge $-1 $268 -27.560922362510194 $147 -15.668084043429335 $218 $275 forward 7 unknown #
point $-1 -15.668084043429335 -39.064730133013107 13.694293928216448 #
point $-1 -15.668084043429335 -31.223860923173312 13.694293928216448 #
edge $-1 $276 1 $276 0 $150 $-1 forward 7 unknown #
vertex $-1 $151 $277 #
ellipse-curve $-1 -24.162968557058527 -34.104836286683643 9.0905510005409305 0 -0.6560590369687036 0.75470957328743171 1 0 0 1 I I #
point $-1 -23.162968557058527 -35.14429552809321 10.286312046922665 #
edge $-1 $278 1 $278 0 $154 $-1 forward 7 unknown #
vertex $-1 $155 $279 #
ellipse-curve $-1 -19.066037848881017 -34.104836286683643 9.0905510005409305 0 -0.6560590369687036 0.75470957328743171 1 0 0 1 I I #
point $-1 -18.066037848881017 -35.14429552809321 10.286312046922665 #
plane-surface $-1 57.797173986022521 0 0 -1 0 0 0 0 1 forward_v I I I I #
coedge $-1 $163 $161 $165 $239 reversed $101 $-1 #
edge $-1 $176 -13.694293928216448 $241 13.694293928216448 $175 $280 forward 7 unknown #
vertex $-1 $239 $281 #
straight-curve $-1 -57.797173986022521 -39.064730133013107 0 0 0 -1 I I #
edge $-1 $237 -39.064730133013107 $241 39.064730133013107 $235 $282 forward 7 unknown #
straight-curve $-1 0 -39.064730133013107 -13.694293928216448 -1 0 0 I I #
vertex $-1 $168 $283 #
straight-curve $-1 0 39.064730133013107 -13.694293928216448 1 0 0 I I #
point $-1 57.797173986022521 39.064730133013107 -13.694293928216448 #
point $-1 57.797173986022521 -39.064730133013107 -13.694293928216448 #
straight-curve $-1 -57.797173986022521 0 13.694293928216448 0 -1 0 I I #
point $-1 -57.797173986022521 39.064730133013107 13.694293928216448 #
point $-1 -57.797173986022521 -39.064730133013107 13.694293928216448 #
straight-curve $-1 57.797173986022521 -39.064730133013107 0 0 0 -1 I I #
straight-curve $-1 57.797173986022521 39.064730133013107 0 0 0 -1 I I #
plane-surface $-1 0 -39.064730133013107 0 0 1 0 0 0 1 forward_v I I I I #
coedge $-1 $284 $188 $200 $262 reversed $120 $-1 #
coedge $-1 $188 $284 $203 $264 reversed $120 $-1 #
edge $-1 $285 -57.797173986022521 $197 -43.282543079140375 $193 $286 forward 7 unknown #
straight-curve $-1 -43.282543079140375 -17.622949942005107 13.694293928216448 0 1 0 I I #
coedge $-1 $200 $191 $194 $258 forward $186 $-1 #
straight-curve $-1 -43.282543079140375 -17.622949942005107 -13.694293928216448 0 -1 0 I I #
coedge $-1 $194 $193 $284 $287 forward $195 $-1 #
edge $-1 $196 43.282543079140375 $288 57.797173986022521 $194 $289 forward 7 unknown #
point $-1 -43.282543079140375 -39.064730133013107 -13.694293928216448 #
point $-1 -43.282543079140375 -39.064730133013107 13.694293928216448 #
straight-curve $-1 -57.797173986022521 -31.427069635007321 0 0 0 -1 I I #
edge $-1 $288 -39.064730133013107 $201 -31.427069635007321 $251 $290 forward 7 unknown #
point $-1 -57.797173986022521 -31.427069635007321 -13.694293928216448 #
edge $-1 $204 31.427069635007321 $285 39.064730133013107 $252 $291 forward 7 unknown #
point $-1 -57.797173986022521 -31.427069635007321 13.694293928216448 #
coedge $-1 $219 $218 $211 $267 forward $208 $-1 #
edge $-1 $268 33.364951670808502 $271 40.180915433396059 $266 $292 forward 7 unknown #
vertex $-1 $223 $293 #
straight-curve $-1 -27.560922362510194 -57.450723371289101 13.694293928216446 0 -1 0 I I #
edge $-1 $271 -16.753670761025312 $220 -4.8608324419444529 $219 $294 forward 7 unknown #
vertex $-1 $270 $295 #
straight-curve $-1 -27.560922362510194 -39.064730133013114 6.8783301656288813 0 0.75470957328743171 0.6560590369687036 I I #
point $-1 -27.560922362510194 -31.223860923173312 13.694293928216448 #
point $-1 -15.668084043429335 -39.064730133013107 6.8783301656288875 #
straight-curve $-1 0 -39.064730133013107 13.694293928216448 1 0 0 I I #
vertex $-1 $226 $296 #
point $-1 -23.162968557058527 -34.104836286683643 9.0905510005409305 #
vertex $-1 $230 $297 #
point $-1 -18.066037848881017 -34.104836286683643 9.0905510005409305 #
straight-curve $-1 -57.797173986022521 39.064730133013107 0 0 0 -1 I I #
point $-1 -57.797173986022521 -39.064730133013107 -13.694293928216448 #
straight-curve $-1 -57.797173986022521 0 -13.694293928216448 0 1 0 I I #
point $-1 -57.797173986022521 39.064730133013107 -13.694293928216448 #
coedge $-1 $252 $251 $257 $287 reversed $120 $-1 #
vertex $-1 $264 $298 #
straight-curve $-1 0 -39.064730133013107 13.694293928216448 1 0 0 I I #
edge $-1 $285 -13.694293928216448 $288 13.694293928216448 $284 $299 forward 7 unknown #
vertex $-1 $262 $300 #
straight-curve $-1 0 -39.064730133013107 -13.694293928216448 -1 0 0 I I #
straight-curve $-1 -57.797173986022521 0 -13.694293928216448 0 1 0 I I #
straight-curve $-1 -57.797173986022521 0 13.694293928216448 0 -1 0 I I #
straight-curve $-1 -27.560922362510194 -39.064730133013107 47.059245599024948 0 0 -1 I I #
point $-1 -27.560922362510194 -39.064730133013107 13.694293928216448 #
straight-curve $-1 -10.807251601484882 -39.064730133013107 6.8783301656288884 1 0 0 I I #
point $-1 -27.560922362510194 -39.064730133013107 6.8783301656288875 #
point $-1 -24.162968557058527 -33.448777249714944 8.3358414272534986 #
point $-1 -19.066037848881017 -33.448777249714944 8.3358414272534986 #
point $-1 -57.797173986022521 -39.064730133013107 13.694293928216448 #
straight-curve $-1 -57.797173986022521 -39.064730133013107 0 0 0 -1 I I #
point $-1 -57.797173986022521 -39.064730133013107 -13.694293928216448 #
End-of-ACIS-data 