500 0 11 0           
7 Unknown 11 ACIS 5.0 NT 24 Fri Mar 26 20:00:48 1999 
-1 9.9999999999999995e-007 1e-010 
body $-1 $11 $-1 $12 #
body $-1 $13 $-1 $14 #
body $-1 $15 $-1 $16 #
body $-1 $17 $-1 $18 #
body $-1 $19 $-1 $20 #
body $-1 $21 $-1 $22 #
body $-1 $23 $-1 $24 #
body $-1 $25 $-1 $26 #
body $-1 $27 $-1 $28 #
body $-1 $29 $-1 $30 #
body $-1 $31 $-1 $32 #
lump $-1 $-1 $33 $0 #
transform $-1 1 0 0 0 1 0 0 0 1 74.363841669972842 43.100934948559718 9.4027043456156942 1 rotate no_reflect no_shear #
lump $-1 $-1 $34 $1 #
transform $-1 1 0 0 0 1 0 0 0 1 74.363841669972842 43.100934948559718 9.4027043456156942 1 rotate no_reflect no_shear #
lump $-1 $-1 $35 $2 #
transform $-1 1 0 0 0 1 0 0 0 1 74.363841669972842 43.100934948559718 9.4027043456156942 1 rotate no_reflect no_shear #
lump $-1 $-1 $36 $3 #
transform $-1 1 0 0 0 1 0 0 0 1 74.363841669972842 43.100934948559718 9.4027043456156942 1 rotate no_reflect no_shear #
lump $-1 $-1 $37 $4 #
transform $-1 1 0 0 0 1 0 0 0 1 74.363841669972842 43.100934948559718 9.4027043456156942 1 rotate no_reflect no_shear #
lump $-1 $-1 $38 $5 #
transform $-1 1 0 0 0 1 0 0 0 1 74.363841669972842 43.100934948559718 9.4027043456156942 1 rotate no_reflect no_shear #
lump $-1 $-1 $39 $6 #
transform $-1 1 0 0 0 1 0 0 0 1 74.363841669972842 43.100934948559718 9.4027043456156942 1 rotate no_reflect no_shear #
lump $-1 $-1 $40 $7 #
transform $-1 1 0 0 0 1 0 0 0 1 74.363841669972842 43.100934948559718 9.4027043456156942 1 rotate no_reflect no_shear #
lump $-1 $-1 $41 $8 #
transform $-1 1 0 0 0 1 0 0 0 1 74.363841669972842 43.100934948559718 9.4027043456156942 1 rotate no_reflect no_shear #
lump $-1 $-1 $42 $9 #
transform $-1 1 0 0 0 1 0 0 0 1 74.363841669972842 43.100934948559718 9.4027043456156942 1 rotate no_reflect no_shear #
lump $-1 $-1 $43 $10 #
transform $-1 1 0 0 0 1 0 0 0 1 74.363841669972842 43.100934948559718 9.4027043456156942 1 rotate no_reflect no_shear #
shell $-1 $-1 $-1 $44 $-1 $11 #
shell $-1 $-1 $-1 $45 $-1 $13 #
shell $-1 $-1 $-1 $46 $-1 $15 #
shell $-1 $-1 $-1 $47 $-1 $17 #
shell $-1 $-1 $-1 $48 $-1 $19 #
shell $-1 $-1 $-1 $49 $-1 $21 #
shell $-1 $-1 $-1 $50 $-1 $23 #
shell $-1 $-1 $-1 $51 $-1 $25 #
shell $-1 $-1 $-1 $52 $-1 $27 #
shell $-1 $-1 $-1 $53 $-1 $29 #
shell $-1 $-1 $-1 $54 $-1 $31 #
face $-1 $55 $56 $33 $-1 $57 forward single #
face $-1 $58 $59 $34 $-1 $60 forward single #
face $-1 $61 $62 $35 $-1 $63 reversed single #
face $-1 $64 $65 $36 $-1 $66 forward single #
face $-1 $67 $68 $37 $-1 $69 forward single #
face $-1 $70 $71 $38 $-1 $72 reversed single #
face $-1 $73 $74 $39 $-1 $75 forward single #
face $-1 $76 $77 $40 $-1 $78 forward single #
face $-1 $79 $80 $41 $-1 $81 reversed single #
face $-1 $82 $83 $42 $-1 $84 forward single #
face $-1 $85 $86 $43 $-1 $87 forward single #
face $-1 $88 $89 $33 $-1 $90 reversed single #
loop $-1 $-1 $91 $44 #
plane-surface $-1 0 0 9.4027043456156942 0 0 1 1 0 0 forward_v I I I I #
face $-1 $92 $93 $34 $-1 $94 reversed single #
loop $-1 $-1 $95 $45 #
plane-surface $-1 0 -43.100934948559718 0 0 1 0 0 0 1 forward_v I I I I #
face $-1 $96 $97 $35 $-1 $98 reversed single #
loop $-1 $-1 $99 $46 #
plane-surface $-1 -169.96415491329714 -12.888411713084952 116.94158047250129 0 1 0 -0.64278761758704617 0 0.76604443648966558 forward_v I I I I #
face $-1 $100 $101 $36 $-1 $102 forward single #
loop $-1 $103 $104 $47 #
cone-surface $-1 -68.89153492686016 -7.8294853109122187 4.2245063555686135 0.64278761758704617 0 -0.76604443648966558 1.1490666547344983 0 0.96418142638056925 1 I I 0 1 1.5 forward I I I I #
face $-1 $105 $106 $37 $-1 $107 forward single #
loop $-1 $108 $109 $48 #
cone-surface $-1 -68.89153492686016 -0.24109570765312327 4.2245063555686135 0.64278761758704617 0 -0.76604443648966558 1.1490666547344983 0 0.96418142638056925 1 I I 0 1 1.5 forward I I I I #
face $-1 $110 $111 $38 $-1 $112 reversed single #
loop $-1 $-1 $113 $49 #
plane-surface $-1 -74.363841669972828 -4.0352905092826816 3.009566097939171 -0.64278761758704617 0 0.76604443648966558 0.76604443648966558 0 0.64278761758704617 forward_v I I I I #
face $-1 $114 $115 $39 $-1 $116 forward single #
loop $-1 $117 $118 $50 #
cone-surface $-1 -68.89153492686016 9.876757096692323 4.2245063555686135 0.64278761758704617 0 -0.76604443648966558 1.1490666547344983 0 0.96418142638056925 1 I I 0 1 1.5 forward I I I I #
face $-1 $119 $120 $40 $-1 $121 forward single #
loop $-1 $122 $123 $51 #
cone-surface $-1 -68.89153492686016 17.465146699951418 4.2245063555686135 0.64278761758704617 0 -0.76604443648966558 1.1490666547344983 0 0.96418142638056925 1 I I 0 1 1.5 forward I I I I #
face $-1 $124 $125 $41 $-1 $126 reversed single #
loop $-1 $-1 $127 $52 #
plane-surface $-1 128.8019551613894 28.378863959844555 206.54036799953047 0 -1 0 -0.86602541151947299 0 -0.49999998660252726 forward_v I I I I #
face $-1 $128 $129 $42 $-1 $130 forward single #
loop $-1 $131 $132 $53 #
cone-surface $-1 71.60669148497891 17.826888173907179 5.8014865317636941 -0.86602541151947299 0 -0.49999998660252726 0.49999998660252726 0 -0.86602541151947299 1 I I 0 1 1 forward I I I I #
face $-1 $133 $134 $43 $-1 $135 forward single #
loop $-1 $136 $137 $54 #
cone-surface $-1 71.60669148497891 24.158073645469607 5.8014865317636941 -0.86602541151947299 0 -0.49999998660252726 0.49999998660252726 0 -0.86602541151947299 1 I I 0 1 1 forward I I I I #
face $-1 $138 $139 $33 $-1 $140 reversed single #
loop $-1 $-1 $141 $55 #
plane-surface $-1 0 0 -9.4027043456156942 0 0 1 1 0 0 forward_v I I I I #
coedge $-1 $142 $143 $144 $145 forward $56 $-1 #
face $-1 $146 $147 $34 $-1 $148 reversed single #
loop $-1 $-1 $149 $58 #
plane-surface $-1 0 0 -9.4027043456156942 0 0 1 1 0 0 forward_v I I I I #
coedge $-1 $150 $151 $152 $153 forward $59 $-1 #
face $-1 $154 $155 $35 $-1 $156 reversed single #
loop $-1 $-1 $157 $61 #
plane-surface $-1 -74.363841669972828 -4.0352905092826816 3.009566097939171 -0.64278761758704617 0 0.76604443648966558 0.76604443648966558 0 0.64278761758704617 forward_v I I I I #
coedge $-1 $158 $159 $160 $161 reversed $62 $-1 #
face $-1 $-1 $162 $36 $-1 $163 forward single #
loop $-1 $164 $165 $64 #
cone-surface $-1 -66.746660128076854 -7.8294853109122187 1.668344161992545 0.64278761758704617 0 -0.76604443648966558 0.57453332736724916 0 0.48209071319028463 1 I I -0.70710678118654757 0.70710678118654757 0.75 forward I I I I #
loop $-1 $-1 $166 $47 #
coedge $-1 $104 $104 $167 $168 reversed $65 $-1 #
face $-1 $-1 $169 $37 $-1 $170 forward single #
loop $-1 $171 $172 $67 #
cone-surface $-1 -66.746660128076854 -0.24109570765312327 1.668344161992545 0.64278761758704617 0 -0.76604443648966558 0.57453332736724916 0 0.48209071319028463 1 I I -0.70710678118654757 0.70710678118654757 0.75 forward I I I I #
loop $-1 $-1 $173 $48 #
coedge $-1 $109 $109 $174 $175 reversed $68 $-1 #
face $-1 $176 $177 $38 $-1 $178 forward single #
loop $-1 $-1 $179 $70 #
plane-surface $-1 -169.96415491329714 22.524073102124131 116.94158047250129 0 -1 0 0.64278761758704617 0 -0.76604443648966558 forward_v I I I I #
coedge $-1 $180 $181 $182 $183 reversed $71 $-1 #
face $-1 $-1 $184 $39 $-1 $185 forward single #
loop $-1 $186 $187 $73 #
cone-surface $-1 -66.746660128076854 9.876757096692323 1.668344161992545 0.64278761758704617 0 -0.76604443648966558 0.57453332736724916 0 0.48209071319028463 1 I I -0.70710678118654757 0.70710678118654757 0.75 forward I I I I #
loop $-1 $-1 $188 $50 #
coedge $-1 $118 $118 $189 $190 reversed $74 $-1 #
face $-1 $-1 $191 $40 $-1 $192 forward single #
loop $-1 $193 $194 $76 #
cone-surface $-1 -66.746660128076854 17.465146699951418 1.668344161992545 0.64278761758704617 0 -0.76604443648966558 0.57453332736724916 0 0.48209071319028463 1 I I -0.70710678118654757 0.70710678118654757 0.75 forward I I I I #
loop $-1 $-1 $195 $51 #
coedge $-1 $123 $123 $196 $197 reversed $77 $-1 #
face $-1 $198 $199 $41 $-1 $200 reversed single #
loop $-1 $-1 $201 $79 #
plane-surface $-1 1.9925750507354678e-006 20.992480909688389 132.1765283221327 0.86602541151947299 0 0.49999998660252726 0.49999998660252726 0 -0.86602541151947299 forward_v I I I I #
coedge $-1 $202 $203 $204 $205 reversed $80 $-1 #
face $-1 $-1 $206 $42 $-1 $207 forward single #
loop $-1 $208 $209 $82 #
cone-surface $-1 70.156699537996232 17.826888173907179 4.9643333207590903 -0.86602541151947299 0 -0.49999998660252726 0.24999999330126363 0 -0.43301270575973649 1 I I -0.70710678118654746 0.70710678118654746 0.5 forward I I I I #
loop $-1 $-1 $210 $53 #
coedge $-1 $132 $132 $211 $212 reversed $83 $-1 #
face $-1 $-1 $213 $43 $-1 $214 forward single #
loop $-1 $215 $216 $85 #
cone-surface $-1 70.156699537996232 24.158073645469607 4.9643333207590903 -0.86602541151947299 0 -0.49999998660252726 0.24999999330126363 0 -0.43301270575973649 1 I I -0.70710678118654746 0.70710678118654746 0.5 forward I I I I #
loop $-1 $-1 $217 $54 #
coedge $-1 $137 $137 $218 $219 reversed $86 $-1 #
face $-1 $220 $221 $33 $-1 $222 reversed single #
loop $-1 $-1 $223 $88 #
plane-surface $-1 0 -43.100934948559718 0 0 1 0 0 0 1 forward_v I I I I #
coedge $-1 $224 $225 $226 $227 forward $89 $-1 #
coedge $-1 $228 $91 $229 $230 forward $56 $-1 #
coedge $-1 $91 $228 $231 $232 forward $56 $-1 #
coedge $-1 $233 $234 $91 $145 reversed $235 $-1 #
edge $-1 $236 -43.100934948559718 $237 43.100934948559718 $144 $238 forward 7 unknown #
face $-1 $239 $240 $34 $-1 $241 reversed single #
loop $-1 $-1 $242 $92 #
plane-surface $-1 -64.080004172227831 -52.736596337598904 0 0 1 0 0 0 1 forward_v I I I I #
coedge $-1 $243 $244 $151 $245 forward $93 $-1 #
coedge $-1 $246 $95 $247 $248 reversed $59 $-1 #
coedge $-1 $95 $246 $149 $245 reversed $59 $-1 #
coedge $-1 $249 $250 $95 $153 reversed $240 $-1 #
edge $-1 $251 -9.4027043456156942 $252 9.4027043456156942 $152 $253 forward 7 unknown #
face $-1 $254 $255 $35 $-1 $256 reversed single #
loop $-1 $-1 $257 $96 #
plane-surface $-1 -169.96415491329714 4.8178306945195892 116.94158047250129 0 -1 0 0.64278761758704617 0 -0.76604443648966558 forward_v I I I I #
coedge $-1 $258 $259 $260 $261 reversed $97 $-1 #
coedge $-1 $159 $99 $262 $263 reversed $62 $-1 #
coedge $-1 $99 $158 $258 $264 reversed $62 $-1 #
coedge $-1 $260 $265 $99 $161 forward $266 $-1 #
edge $-1 $267 10.618235786675726 $268 18.237281101715098 $160 $269 forward 7 unknown #
loop $-1 $-1 $167 $100 #
plane-surface $-1 -74.363841669972828 -4.0352905092826816 3.009566097939171 -0.64278761758704617 0 0.76604443648966558 0.76604443648966558 0 0.64278761758704617 forward_v I I I I #
loop $-1 $-1 $270 $64 #
coedge $-1 $165 $165 $166 $271 reversed $101 $-1 #
coedge $-1 $166 $166 $165 $271 forward $103 $-1 #
coedge $-1 $167 $167 $104 $168 forward $162 $-1 #
edge $-1 $272 0 $272 6.2831853071796004 $167 $273 forward 7 unknown #
loop $-1 $-1 $174 $105 #
plane-surface $-1 -74.363841669972828 -4.0352905092826816 3.009566097939171 -0.64278761758704617 0 0.76604443648966558 0.76604443648966558 0 0.64278761758704617 forward_v I I I I #
loop $-1 $-1 $274 $67 #
coedge $-1 $172 $172 $173 $275 reversed $106 $-1 #
coedge $-1 $173 $173 $172 $275 forward $108 $-1 #
coedge $-1 $174 $174 $109 $175 forward $169 $-1 #
edge $-1 $276 0 $276 6.2831853071796004 $174 $277 forward 7 unknown #
face $-1 $278 $279 $38 $-1 $280 forward single #
loop $-1 $-1 $281 $110 #
plane-surface $-1 0 0 9.4027043456156942 0 0 1 1 0 0 forward_v I I I I #
coedge $-1 $282 $283 $284 $285 reversed $111 $-1 #
coedge $-1 $286 $113 $287 $288 reversed $71 $-1 #
coedge $-1 $113 $286 $281 $289 reversed $71 $-1 #
coedge $-1 $290 $291 $113 $183 forward $279 $-1 #
edge $-1 $292 -1.8593432412625586e-014 $293 9.9459573780771677 $182 $294 forward 7 unknown #
loop $-1 $-1 $189 $114 #
plane-surface $-1 -74.363841669972828 -4.0352905092826816 3.009566097939171 -0.64278761758704617 0 0.76604443648966558 0.76604443648966558 0 0.64278761758704617 forward_v I I I I #
loop $-1 $-1 $295 $73 #
coedge $-1 $187 $187 $188 $296 reversed $115 $-1 #
coedge $-1 $188 $188 $187 $296 forward $117 $-1 #
coedge $-1 $189 $189 $118 $190 forward $184 $-1 #
edge $-1 $297 0 $297 6.2831853071796004 $189 $298 forward 7 unknown #
loop $-1 $-1 $196 $119 #
plane-surface $-1 -74.363841669972828 -4.0352905092826816 3.009566097939171 -0.64278761758704617 0 0.76604443648966558 0.76604443648966558 0 0.64278761758704617 forward_v I I I I #
loop $-1 $-1 $299 $76 #
coedge $-1 $194 $194 $195 $300 reversed $120 $-1 #
coedge $-1 $195 $195 $194 $300 forward $122 $-1 #
coedge $-1 $196 $196 $123 $197 forward $191 $-1 #
edge $-1 $301 0 $301 6.2831853071796004 $196 $302 forward 7 unknown #
face $-1 $303 $304 $41 $-1 $305 forward single #
loop $-1 $-1 $306 $124 #
plane-surface $-1 128.8019551613894 13.606097859532223 206.54036799953047 0 1 0 0.86602541151947299 0 0.49999998660252726 forward_v I I I I #
coedge $-1 $307 $308 $309 $310 reversed $125 $-1 #
coedge $-1 $203 $127 $311 $312 reversed $80 $-1 #
coedge $-1 $127 $202 $307 $313 reversed $80 $-1 #
coedge $-1 $309 $314 $127 $205 forward $304 $-1 #
edge $-1 $315 -9.9628640892781419 $316 -6.4825222017361739 $204 $317 forward 7 unknown #
loop $-1 $-1 $211 $128 #
plane-surface $-1 1.9925750507354678e-006 20.992480909688389 132.1765283221327 0.86602541151947299 0 0.49999998660252726 0.49999998660252726 0 -0.86602541151947299 forward_v I I I I #
loop $-1 $-1 $318 $82 #
coedge $-1 $209 $209 $210 $319 reversed $129 $-1 #
coedge $-1 $210 $210 $209 $319 forward $131 $-1 #
coedge $-1 $211 $211 $132 $212 forward $206 $-1 #
edge $-1 $320 0 $320 6.2831853071796004 $211 $321 forward 7 unknown #
loop $-1 $-1 $218 $133 #
plane-surface $-1 1.9925750507354678e-006 20.992480909688389 132.1765283221327 0.86602541151947299 0 0.49999998660252726 0.49999998660252726 0 -0.86602541151947299 forward_v I I I I #
loop $-1 $-1 $322 $85 #
coedge $-1 $216 $216 $217 $323 reversed $134 $-1 #
coedge $-1 $217 $217 $216 $323 forward $136 $-1 #
coedge $-1 $218 $218 $137 $219 forward $213 $-1 #
edge $-1 $324 0 $324 6.2831853071796004 $218 $325 forward 7 unknown #
face $-1 $326 $327 $33 $-1 $328 reversed single #
loop $-1 $-1 $329 $138 #
plane-surface $-1 -74.363841669972842 0 0 1 0 0 0 0 -1 forward_v I I I I #
coedge $-1 $330 $231 $331 $332 forward $139 $-1 #
coedge $-1 $333 $141 $330 $334 forward $89 $-1 #
coedge $-1 $141 $333 $335 $336 forward $89 $-1 #
coedge $-1 $234 $233 $141 $227 reversed $235 $-1 #
edge $-1 $337 -43.100934948559718 $338 43.100934948559718 $226 $339 forward 7 unknown #
coedge $-1 $143 $142 $340 $341 forward $56 $-1 #
coedge $-1 $342 $343 $142 $230 reversed $327 $-1 #
edge $-1 $237 -74.363841669972842 $344 74.363841669972842 $229 $345 forward 7 unknown #
coedge $-1 $223 $346 $143 $232 reversed $139 $-1 #
edge $-1 $347 -74.363841669972842 $236 74.363841669972842 $231 $348 forward 7 unknown #
coedge $-1 $226 $144 $346 $349 forward $235 $-1 #
coedge $-1 $144 $226 $342 $350 reversed $235 $-1 #
loop $-1 $-1 $233 $326 #
vertex $-1 $145 $351 #
vertex $-1 $145 $352 #
straight-curve $-1 74.363841669972842 0 9.4027043456156942 0 1 0 I I #
face $-1 $353 $354 $34 $-1 $355 reversed single #
loop $-1 $-1 $152 $146 #
plane-surface $-1 -65.997074606559778 -47.918765643079311 0 1 0 0 0 0 -1 forward_v I I I I #
coedge $-1 $356 $357 $358 $359 forward $147 $-1 #
coedge $-1 $360 $149 $361 $362 forward $93 $-1 #
coedge $-1 $149 $360 $249 $363 forward $93 $-1 #
edge $-1 $251 -65.997074606559778 $364 -62.162933737895891 $149 $365 forward 7 unknown #
coedge $-1 $151 $150 $366 $367 forward $59 $-1 #
coedge $-1 $368 $369 $150 $248 forward $370 $-1 #
edge $-1 $371 62.162933737895891 $252 65.997074606559778 $247 $372 forward 7 unknown #
coedge $-1 $358 $152 $244 $363 reversed $240 $-1 #
coedge $-1 $152 $358 $368 $373 reversed $240 $-1 #
vertex $-1 $245 $374 #
vertex $-1 $373 $375 #
straight-curve $-1 -65.997074606559778 -43.100934948559718 0 0 0 1 I I #
face $-1 $-1 $266 $35 $-1 $376 forward single #
loop $-1 $-1 $377 $154 #
plane-surface $-1 -74.363841669972842 0 0 1 0 0 0 0 -1 forward_v I I I I #
coedge $-1 $378 $379 $380 $381 reversed $155 $-1 #
coedge $-1 $382 $157 $159 $264 forward $97 $-1 #
coedge $-1 $157 $382 $378 $383 forward $97 $-1 #
coedge $-1 $380 $160 $157 $261 forward $266 $-1 #
edge $-1 $268 -10.870766458443612 $384 6.83547594916093 $260 $385 forward 7 unknown #
coedge $-1 $386 $387 $158 $263 forward $255 $-1 #
edge $-1 $388 -55.461224138311486 $267 -49.068085890634947 $262 $389 forward 7 unknown #
edge $-1 $268 -9.9459573780771677 $388 1.8593432412625586e-014 $159 $390 forward 7 unknown #
coedge $-1 $160 $380 $386 $391 forward $266 $-1 #
loop $-1 $-1 $380 $254 #
vertex $-1 $263 $392 #
vertex $-1 $161 $393 #
straight-curve $-1 -84.982077456648568 -12.888411713084952 9.402704345615696 1 0 0 I I #
coedge $-1 $270 $270 $-1 $394 reversed $164 $-1 #
edge $-1 $395 0 $395 6.2831853071796004 $165 $396 forward 7 unknown #
vertex $-1 $168 $397 #
ellipse-curve $-1 -70.554319012453163 -7.8294853109122187 6.2061352217774202 -0.64278761758704617 0 0.76604443648966558 1.1490666547344983 0 0.96418142638056925 1 I I #
coedge $-1 $274 $274 $-1 $398 reversed $171 $-1 #
edge $-1 $399 0 $399 6.2831853071796004 $172 $400 forward 7 unknown #
vertex $-1 $175 $401 #
ellipse-curve $-1 -70.554319012453163 -0.24109570765312327 6.2061352217774202 -0.64278761758704617 0 0.76604443648966558 1.1490666547344983 0 0.96418142638056925 1 I I #
face $-1 $-1 $402 $38 $-1 $403 reversed single #
loop $-1 $-1 $290 $176 #
plane-surface $-1 -169.96415491329714 4.8178306945195892 116.94158047250129 0 -1 0 0.64278761758704617 0 -0.76604443648966558 forward_v I I I I #
coedge $-1 $284 $404 $181 $289 forward $177 $-1 #
coedge $-1 $283 $179 $286 $405 reversed $111 $-1 #
coedge $-1 $179 $282 $406 $407 reversed $111 $-1 #
coedge $-1 $408 $281 $179 $285 forward $177 $-1 #
edge $-1 $409 -18.237281101715098 $410 -10.618235786675726 $284 $411 forward 7 unknown #
coedge $-1 $181 $180 $282 $405 forward $71 $-1 #
coedge $-1 $412 $406 $180 $288 forward $402 $-1 #
edge $-1 $413 -24.541718356765472 $292 -6.83547594916093 $287 $414 forward 7 unknown #
edge $-1 $293 6.83547594916093 $409 24.541718356765472 $281 $415 forward 7 unknown #
coedge $-1 $291 $182 $404 $416 reversed $279 $-1 #
coedge $-1 $182 $290 $412 $417 reversed $279 $-1 #
vertex $-1 $288 $418 #
vertex $-1 $289 $419 #
straight-curve $-1 -74.363841669972828 4.8178306945195892 3.009566097939171 0.76604443648966558 0 0.64278761758704617 I I #
coedge $-1 $295 $295 $-1 $420 reversed $186 $-1 #
edge $-1 $421 0 $421 6.2831853071796004 $187 $422 forward 7 unknown #
vertex $-1 $190 $423 #
ellipse-curve $-1 -70.554319012453163 9.876757096692323 6.2061352217774202 -0.64278761758704617 0 0.76604443648966558 1.1490666547344983 0 0.96418142638056925 1 I I #
coedge $-1 $299 $299 $-1 $424 reversed $193 $-1 #
edge $-1 $425 0 $425 6.2831853071796004 $194 $426 forward 7 unknown #
vertex $-1 $197 $427 #
ellipse-curve $-1 -70.554319012453163 17.465146699951418 6.2061352217774202 -0.64278761758704617 0 0.76604443648966558 1.1490666547344983 0 0.96418142638056925 1 I I #
face $-1 $-1 $428 $41 $-1 $429 reversed single #
loop $-1 $-1 $204 $198 #
plane-surface $-1 0 0 9.4027043456156942 0 0 1 1 0 0 forward_v I I I I #
coedge $-1 $430 $431 $432 $433 reversed $199 $-1 #
coedge $-1 $434 $201 $203 $313 forward $125 $-1 #
coedge $-1 $201 $434 $430 $435 forward $125 $-1 #
coedge $-1 $432 $204 $201 $310 forward $304 $-1 #
edge $-1 $316 -17.88262350500036 $436 -3.1098574046880287 $309 $437 forward 7 unknown #
coedge $-1 $438 $439 $202 $312 forward $428 $-1 #
edge $-1 $440 -99.895608846446919 $315 -93.867479654149548 $311 $441 forward 7 unknown #
edge $-1 $316 141.76699937835068 $440 148.72768333994574 $203 $442 forward 7 unknown #
coedge $-1 $204 $432 $438 $443 forward $304 $-1 #
vertex $-1 $205 $444 #
vertex $-1 $205 $445 #
straight-curve $-1 64.4009775806947 28.378863959844555 9.4027043456156889 -1 0 0 I I #
coedge $-1 $318 $318 $-1 $446 reversed $208 $-1 #
edge $-1 $447 0 $447 6.2831853071796004 $209 $448 forward 7 unknown #
vertex $-1 $212 $449 #
ellipse-curve $-1 72.623670726201837 17.826888173907179 6.3886397494670284 0.86602541151947299 0 0.49999998660252726 0.49999998660252726 0 -0.86602541151947299 1 I I #
coedge $-1 $322 $322 $-1 $450 reversed $215 $-1 #
edge $-1 $451 0 $451 6.2831853071796004 $216 $452 forward 7 unknown #
vertex $-1 $219 $453 #
ellipse-curve $-1 72.623670726201837 24.158073645469607 6.3886397494670284 0.86602541151947299 0 0.49999998660252726 0.49999998660252726 0 -0.86602541151947299 1 I I #
face $-1 $-1 $235 $33 $-1 $454 reversed single #
loop $-1 $-1 $342 $220 #
plane-surface $-1 0 43.100934948559718 0 0 -1 0 0 0 -1 forward_v I I I I #
coedge $-1 $455 $340 $343 $456 forward $221 $-1 #
coedge $-1 $346 $223 $224 $334 reversed $139 $-1 #
coedge $-1 $340 $455 $223 $332 reversed $221 $-1 #
edge $-1 $347 -9.4027043456156942 $457 9.4027043456156942 $331 $458 forward 7 unknown #
coedge $-1 $225 $224 $455 $459 forward $89 $-1 #
edge $-1 $338 -74.363841669972842 $457 74.363841669972842 $330 $460 forward 7 unknown #
coedge $-1 $343 $342 $225 $336 reversed $327 $-1 #
edge $-1 $461 -74.363841669972842 $337 74.363841669972842 $335 $462 forward 7 unknown #
vertex $-1 $227 $463 #
vertex $-1 $349 $464 #
straight-curve $-1 74.363841669972842 0 -9.4027043456156942 0 -1 0 I I #
coedge $-1 $329 $331 $228 $341 reversed $221 $-1 #
edge $-1 $344 -43.100934948559718 $347 43.100934948559718 $340 $465 forward 7 unknown #
coedge $-1 $335 $229 $234 $350 forward $327 $-1 #
coedge $-1 $229 $335 $329 $456 reversed $327 $-1 #
vertex $-1 $230 $466 #
straight-curve $-1 0 43.100934948559718 9.4027043456156942 -1 0 0 I I #
coedge $-1 $231 $330 $233 $349 reversed $139 $-1 #
vertex $-1 $341 $467 #
straight-curve $-1 0 -43.100934948559718 9.4027043456156942 1 0 0 I I #
edge $-1 $236 -9.4027043456156942 $338 9.4027043456156942 $233 $468 forward 7 unknown #
edge $-1 $237 -9.4027043456156942 $337 9.4027043456156942 $234 $469 forward 7 unknown #
point $-1 74.363841669972842 -43.100934948559718 9.4027043456156942 #
point $-1 74.363841669972842 43.100934948559718 9.4027043456156942 #
face $-1 $-1 $370 $34 $-1 $470 forward single #
loop $-1 $-1 $471 $239 #
plane-surface $-1 -62.162933737895891 -47.918765643079311 0 -1 0 0 0 0 1 forward_v I I I I #
coedge $-1 $472 $242 $360 $473 reversed $147 $-1 #
coedge $-1 $242 $472 $474 $475 reversed $147 $-1 #
coedge $-1 $250 $249 $242 $359 reversed $240 $-1 #
edge $-1 $476 -9.4027043456156942 $477 9.4027043456156942 $358 $478 forward 7 unknown #
coedge $-1 $244 $243 $356 $473 forward $93 $-1 #
coedge $-1 $366 $471 $243 $362 reversed $354 $-1 #
edge $-1 $364 -4.8178306945195928 $479 4.8178306945195928 $361 $480 forward 7 unknown #
edge $-1 $477 -4.8178306945195928 $251 4.8178306945195928 $249 $481 forward 7 unknown #
vertex $-1 $362 $482 #
straight-curve $-1 0 -43.100934948559718 -9.4027043456156942 1 0 0 I I #
coedge $-1 $483 $361 $246 $367 reversed $354 $-1 #
edge $-1 $371 -9.4027043456156942 $364 9.4027043456156942 $366 $484 forward 7 unknown #
coedge $-1 $474 $247 $250 $373 forward $370 $-1 #
coedge $-1 $247 $474 $483 $485 forward $370 $-1 #
loop $-1 $-1 $247 $353 #
vertex $-1 $248 $486 #
straight-curve $-1 0 -43.100934948559718 9.4027043456156942 -1 0 0 I I #
edge $-1 $252 -4.8178306945195928 $476 4.8178306945195928 $250 $487 forward 7 unknown #
point $-1 -65.997074606559778 -43.100934948559718 -9.4027043456156942 #
point $-1 -65.997074606559778 -43.100934948559718 9.4027043456156942 #
plane-surface $-1 0 0 9.4027043456156942 0 0 1 1 0 0 forward_v I I I I #
coedge $-1 $387 $386 $379 $488 forward $255 $-1 #
coedge $-1 $379 $257 $259 $383 reversed $155 $-1 #
coedge $-1 $257 $378 $377 $488 reversed $155 $-1 #
coedge $-1 $265 $260 $257 $381 forward $266 $-1 #
edge $-1 $384 -18.237281101715098 $489 -10.618235786675726 $380 $490 forward 7 unknown #
coedge $-1 $259 $258 $387 $491 reversed $97 $-1 #
edge $-1 $492 -1.8593432412625586e-014 $384 9.9459573780771677 $378 $493 forward 7 unknown #
vertex $-1 $261 $494 #
straight-curve $-1 -66.74479635493347 -2.0176452546413408 9.402704345615696 0 1 0 I I #
coedge $-1 $377 $262 $265 $391 reversed $255 $-1 #
coedge $-1 $262 $377 $382 $491 forward $255 $-1 #
vertex $-1 $263 $495 #
straight-curve $-1 -74.363841669972842 -12.888411713084952 58.470790236250643 0 0 1 I I #
straight-curve $-1 -74.363841669972828 -12.888411713084952 3.009566097939171 -0.76604443648966558 0 -0.64278761758704617 I I #
edge $-1 $489 -4.8178306945195892 $267 12.888411713084952 $386 $496 forward 7 unknown #
point $-1 -74.363841669972842 -12.888411713084952 9.4027043456156942 #
point $-1 -66.74479635493347 -12.888411713084952 9.4027043456156942 #
edge $-1 $497 1 $497 0 $270 $-1 forward 7 unknown #
vertex $-1 $271 $498 #
ellipse-curve $-1 -67.228750841267143 -7.8294853109122187 2.242877489359794 -0.64278761758704617 0 0.76604443648966558 1.1490666547344983 0 0.96418142638056925 1 I I #
point $-1 -69.40525235771868 -7.8294853109122187 7.1703166481580025 #
edge $-1 $499 1 $499 0 $274 $-1 forward 7 unknown #
vertex $-1 $275 $500 #
ellipse-curve $-1 -67.228750841267143 -0.24109570765312327 2.242877489359794 -0.64278761758704617 0 0.76604443648966558 1.1490666547344983 0 0.96418142638056925 1 I I #
point $-1 -69.40525235771868 -0.24109570765312327 7.1703166481580025 #
loop $-1 $-1 $287 $278 #
plane-surface $-1 -74.363841669972842 0 0 1 0 0 0 0 -1 forward_v I I I I #
coedge $-1 $281 $408 $290 $416 forward $177 $-1 #
edge $-1 $413 -1.8593432412625586e-014 $409 9.9459573780771677 $282 $501 forward 7 unknown #
coedge $-1 $287 $502 $283 $407 forward $402 $-1 #
edge $-1 $410 49.068085890634947 $413 55.461224138311486 $406 $503 forward 7 unknown #
coedge $-1 $404 $284 $502 $504 forward $177 $-1 #
vertex $-1 $285 $505 #
vertex $-1 $504 $506 #
straight-curve $-1 -84.982077456648568 22.524073102124131 9.402704345615696 -1 0 0 I I #
coedge $-1 $502 $287 $291 $417 forward $402 $-1 #
vertex $-1 $407 $507 #
straight-curve $-1 -74.363841669972842 -2.0176452546413408 3.0095660979391505 0 -1 0 I I #
straight-curve $-1 -66.74479635493347 -2.0176452546413408 9.402704345615696 0 1 0 I I #
edge $-1 $508 10.618235786675726 $293 18.237281101715098 $404 $509 forward 7 unknown #
edge $-1 $292 -55.461224138311486 $508 -49.068085890634947 $412 $510 forward 7 unknown #
point $-1 -74.363841669972842 4.8178306945195892 3.009566097939159 #
point $-1 -66.74479635493347 4.8178306945195892 9.4027043456156942 #
edge $-1 $511 1 $511 0 $295 $-1 forward 7 unknown #
vertex $-1 $296 $512 #
ellipse-curve $-1 -67.228750841267143 9.876757096692323 2.242877489359794 -0.64278761758704617 0 0.76604443648966558 1.1490666547344983 0 0.96418142638056925 1 I I #
point $-1 -69.40525235771868 9.876757096692323 7.1703166481580025 #
edge $-1 $513 1 $513 0 $299 $-1 forward 7 unknown #
vertex $-1 $300 $514 #
ellipse-curve $-1 -67.228750841267143 17.465146699951418 2.242877489359794 -0.64278761758704617 0 0.76604443648966558 1.1490666547344983 0 0.96418142638056925 1 I I #
point $-1 -69.40525235771868 17.465146699951418 7.1703166481580025 #
loop $-1 $-1 $311 $303 #
plane-surface $-1 74.363841669972842 0 0 -1 0 0 0 0 1 forward_v I I I I #
coedge $-1 $431 $306 $308 $435 reversed $199 $-1 #
coedge $-1 $306 $430 $515 $516 reversed $199 $-1 #
coedge $-1 $314 $309 $306 $433 forward $304 $-1 #
edge $-1 $436 6.4825222017361739 $517 9.9628640892781419 $432 $518 forward 7 unknown #
coedge $-1 $308 $307 $439 $519 reversed $125 $-1 #
edge $-1 $520 -148.72768333994574 $436 -141.76699937835068 $430 $521 forward 7 unknown #
vertex $-1 $310 $522 #
straight-curve $-1 70.883499782430874 10.496240454844195 9.4027043456156889 0 -1 0 I I #
coedge $-1 $515 $311 $314 $443 reversed $428 $-1 #
coedge $-1 $311 $515 $434 $519 forward $428 $-1 #
vertex $-1 $312 $523 #
straight-curve $-1 74.363841669972842 28.378863959844555 103.27018399976524 0 0 1 I I #
straight-curve $-1 1.9925750507354678e-006 28.378863959844555 132.1765283221327 0.49999998660252726 0 -0.86602541151947299 I I #
edge $-1 $517 13.606097859532223 $315 28.378863959844555 $438 $524 forward 7 unknown #
point $-1 74.363841669972842 28.378863959844555 9.4027043456156942 #
point $-1 70.883499782430874 28.378863959844555 9.4027043456156889 #
edge $-1 $525 1 $525 0 $318 $-1 forward 7 unknown #
vertex $-1 $319 $526 #
ellipse-curve $-1 70.589712243755969 17.826888173907179 5.2143333140603536 0.86602541151947299 0 0.49999998660252726 0.49999998660252726 0 -0.86602541151947299 1 I I #
point $-1 73.123670712804369 17.826888173907179 5.5226143379475614 #
edge $-1 $527 1 $527 0 $322 $-1 forward 7 unknown #
vertex $-1 $323 $528 #
ellipse-curve $-1 70.589712243755969 24.158073645469607 5.2143333140603536 0.86602541151947299 0 0.49999998660252726 0.49999998660252726 0 -0.86602541151947299 1 I I #
point $-1 73.123670712804369 24.158073645469607 5.5226143379475614 #
plane-surface $-1 74.363841669972842 0 0 -1 0 0 0 0 1 forward_v I I I I #
coedge $-1 $331 $329 $333 $459 reversed $221 $-1 #
edge $-1 $344 -9.4027043456156942 $461 9.4027043456156942 $343 $529 forward 7 unknown #
vertex $-1 $459 $530 #
straight-curve $-1 -74.363841669972842 -43.100934948559718 0 0 0 -1 I I #
edge $-1 $457 -43.100934948559718 $461 43.100934948559718 $455 $531 forward 7 unknown #
straight-curve $-1 0 -43.100934948559718 -9.4027043456156942 -1 0 0 I I #
vertex $-1 $336 $532 #
straight-curve $-1 0 43.100934948559718 -9.4027043456156942 1 0 0 I I #
point $-1 74.363841669972842 43.100934948559718 -9.4027043456156942 #
point $-1 74.363841669972842 -43.100934948559718 -9.4027043456156942 #
straight-curve $-1 -74.363841669972842 0 9.4027043456156942 0 -1 0 I I #
point $-1 -74.363841669972842 43.100934948559718 9.4027043456156942 #
point $-1 -74.363841669972842 -43.100934948559718 9.4027043456156942 #
straight-curve $-1 74.363841669972842 -43.100934948559718 0 0 0 -1 I I #
straight-curve $-1 74.363841669972842 43.100934948559718 0 0 0 -1 I I #
plane-surface $-1 0 0 9.4027043456156942 0 0 1 1 0 0 forward_v I I I I #
coedge $-1 $361 $483 $472 $533 forward $354 $-1 #
coedge $-1 $357 $356 $471 $533 reversed $147 $-1 #
edge $-1 $479 -1.91707043433194 $477 1.9170704343319471 $356 $534 forward 7 unknown #
coedge $-1 $369 $368 $357 $475 forward $370 $-1 #
edge $-1 $476 -1.9170704343319471 $535 1.91707043433194 $357 $536 forward 7 unknown #
vertex $-1 $373 $537 #
vertex $-1 $363 $538 #
straight-curve $-1 -65.997074606559778 -52.736596337598904 0 0 0 -1 I I #
vertex $-1 $533 $539 #
straight-curve $-1 -62.162933737895891 -47.918765643079311 -9.4027043456156942 0 -1 0 I I #
straight-curve $-1 -65.997074606559778 -47.918765643079311 -9.4027043456156942 0 1 0 I I #
point $-1 -62.162933737895891 -43.100934948559718 -9.4027043456156942 #
coedge $-1 $471 $366 $369 $485 reversed $354 $-1 #
straight-curve $-1 -62.162933737895891 -43.100934948559718 0 0 0 -1 I I #
edge $-1 $535 -4.8178306945195928 $371 4.8178306945195928 $483 $540 forward 7 unknown #
point $-1 -62.162933737895891 -43.100934948559718 9.4027043456156942 #
straight-curve $-1 -65.997074606559778 -47.918765643079311 9.4027043456156942 0 -1 0 I I #
edge $-1 $489 49.068085890634947 $492 55.461224138311486 $377 $541 forward 7 unknown #
vertex $-1 $391 $542 #
straight-curve $-1 -84.982077456648568 4.8178306945195892 9.402704345615696 -1 0 0 I I #
edge $-1 $492 -6.83547594916093 $388 10.870766458443612 $387 $543 forward 7 unknown #
vertex $-1 $491 $544 #
straight-curve $-1 -74.363841669972828 4.8178306945195892 3.009566097939171 0.76604443648966558 0 0.64278761758704617 I I #
point $-1 -66.74479635493347 4.8178306945195892 9.4027043456156942 #
point $-1 -74.363841669972842 -12.888411713084952 3.009566097939159 #
straight-curve $-1 -74.363841669972842 0 9.4027043456156942 0 -1 0 I I #
vertex $-1 $394 $545 #
point $-1 -66.079684186532646 -7.8294853109122187 3.2070589157403635 #
vertex $-1 $398 $546 #
point $-1 -66.079684186532646 -0.24109570765312327 3.2070589157403635 #
straight-curve $-1 -74.363841669972828 22.524073102124131 3.009566097939171 0.76604443648966558 0 0.64278761758704617 I I #
coedge $-1 $406 $412 $408 $504 reversed $402 $-1 #
straight-curve $-1 -74.363841669972842 22.524073102124131 58.470790236250643 0 0 -1 I I #
edge $-1 $410 -22.524073102124131 $508 -4.8178306945195892 $502 $547 forward 7 unknown #
point $-1 -66.74479635493347 22.524073102124131 9.4027043456156942 #
point $-1 -74.363841669972842 22.524073102124131 9.4027043456156942 #
point $-1 -74.363841669972842 22.524073102124131 3.009566097939159 #
vertex $-1 $417 $548 #
straight-curve $-1 -84.982077456648568 4.8178306945195892 9.402704345615696 1 0 0 I I #
straight-curve $-1 -74.363841669972842 4.8178306945195892 58.470790236250643 0 0 1 I I #
vertex $-1 $420 $549 #
point $-1 -66.079684186532646 9.876757096692323 3.2070589157403635 #
vertex $-1 $424 $550 #
point $-1 -66.079684186532646 17.465146699951418 3.2070589157403635 #
coedge $-1 $439 $438 $431 $516 forward $428 $-1 #
edge $-1 $517 93.867479654149548 $520 99.895608846446919 $515 $551 forward 7 unknown #
vertex $-1 $443 $552 #
straight-curve $-1 64.4009775806947 13.606097859532223 9.4027043456156889 1 0 0 I I #
edge $-1 $520 3.1098574046880287 $440 17.88262350500036 $439 $553 forward 7 unknown #
vertex $-1 $519 $554 #
straight-curve $-1 1.9925750507354678e-006 13.606097859532223 132.1765283221327 -0.49999998660252726 0 0.86602541151947299 I I #
point $-1 70.883499782430874 13.606097859532223 9.4027043456156889 #
point $-1 74.363841669972842 28.378863959844555 3.3745751533183181 #
straight-curve $-1 74.363841669972842 0 9.4027043456156942 0 1 0 I I #
vertex $-1 $446 $555 #
point $-1 71.089712230358501 17.826888173907179 4.3483079025408813 #
vertex $-1 $450 $556 #
point $-1 71.089712230358501 24.158073645469607 4.3483079025408813 #
straight-curve $-1 -74.363841669972842 43.100934948559718 0 0 0 -1 I I #
point $-1 -74.363841669972842 -43.100934948559718 -9.4027043456156942 #
straight-curve $-1 -74.363841669972842 0 -9.4027043456156942 0 1 0 I I #
point $-1 -74.363841669972842 43.100934948559718 -9.4027043456156942 #
edge $-1 $535 -9.4027043456156942 $479 9.4027043456156942 $471 $557 forward 7 unknown #
straight-curve $-1 -64.080004172227831 -52.736596337598904 -9.4027043456156942 -1 0 0 I I #
vertex $-1 $485 $558 #
straight-curve $-1 -64.080004172227831 -52.736596337598904 9.4027043456156942 1 0 0 I I #
point $-1 -65.997074606559778 -52.736596337598904 9.4027043456156942 #
point $-1 -65.997074606559778 -52.736596337598904 -9.4027043456156942 #
point $-1 -62.162933737895891 -52.736596337598904 -9.4027043456156942 #
straight-curve $-1 -62.162933737895891 -47.918765643079311 9.4027043456156942 0 1 0 I I #
straight-curve $-1 -74.363841669972842 4.8178306945195892 58.470790236250643 0 0 -1 I I #
point $-1 -74.363841669972842 4.8178306945195892 9.4027043456156942 #
straight-curve $-1 -74.363841669972842 -2.0176452546413408 3.0095660979391505 0 -1 0 I I #
point $-1 -74.363841669972842 4.8178306945195892 3.009566097939159 #
point $-1 -66.264569414886566 -7.8294853109122187 1.0938108346252959 #
point $-1 -66.264569414886566 -0.24109570765312327 1.0938108346252959 #
straight-curve $-1 -74.363841669972842 0 9.4027043456156942 0 -1 0 I I #
point $-1 -74.363841669972842 4.8178306945195892 9.4027043456156942 #
point $-1 -66.264569414886566 9.876757096692323 1.0938108346252959 #
point $-1 -66.264569414886566 17.465146699951418 1.0938108346252959 #
straight-curve $-1 74.363841669972842 13.606097859532223 103.27018399976524 0 0 -1 I I #
point $-1 74.363841669972842 13.606097859532223 9.4027043456156942 #
straight-curve $-1 74.363841669972857 10.496240454844195 3.3745751533183039 0 1 0 I I #
point $-1 74.363841669972842 13.606097859532223 3.3745751533183181 #
point $-1 69.723686832236496 17.826888173907179 4.714333327457827 #
point $-1 69.723686832236496 24.158073645469607 4.714333327457827 #
straight-curve $-1 -62.162933737895891 -52.736596337598904 0 0 0 -1 I I #
point $-1 -62.162933737895891 -52.736596337598904 9.4027043456156942 #
End-of-ACIS-data 