500 0 11 0           
7 Unknown 11 ACIS 5.0 NT 24 Fri Mar 26 14:59:54 1999 
-1 9.9999999999999995e-007 1e-010 
body $-1 $11 $-1 $12 #
body $-1 $13 $-1 $14 #
body $-1 $15 $-1 $16 #
body $-1 $17 $-1 $18 #
body $-1 $19 $-1 $20 #
body $-1 $21 $-1 $22 #
body $-1 $23 $-1 $24 #
body $-1 $25 $-1 $26 #
body $-1 $27 $-1 $28 #
body $-1 $29 $-1 $30 #
body $-1 $31 $-1 $32 #
lump $-1 $-1 $33 $0 #
transform $-1 1 0 0 0 1 0 0 0 1 64.058351390118105 33.718656797123323 15.962826008911897 1 rotate no_reflect no_shear #
lump $-1 $-1 $34 $1 #
transform $-1 1 0 0 0 1 0 0 0 1 64.058351390118105 33.718656797123323 15.962826008911897 1 rotate no_reflect no_shear #
lump $-1 $-1 $35 $2 #
transform $-1 1 0 0 0 1 0 0 0 1 64.058351390118105 33.718656797123323 15.962826008911897 1 rotate no_reflect no_shear #
lump $-1 $-1 $36 $3 #
transform $-1 1 0 0 0 1 0 0 0 1 64.058351390118105 33.718656797123323 15.962826008911897 1 rotate no_reflect no_shear #
lump $-1 $-1 $37 $4 #
transform $-1 1 0 0 0 1 0 0 0 1 64.058351390118105 33.718656797123323 15.962826008911897 1 rotate no_reflect no_shear #
lump $-1 $-1 $38 $5 #
transform $-1 1 0 0 0 1 0 0 0 1 64.058351390118105 33.718656797123323 15.962826008911897 1 rotate no_reflect no_shear #
lump $-1 $-1 $39 $6 #
transform $-1 1 0 0 0 1 0 0 0 1 64.058351390118105 33.718656797123323 15.962826008911897 1 rotate no_reflect no_shear #
lump $-1 $-1 $40 $7 #
transform $-1 1 0 0 0 1 0 0 0 1 64.058351390118105 33.718656797123323 15.962826008911897 1 rotate no_reflect no_shear #
lump $-1 $-1 $41 $8 #
transform $-1 1 0 0 0 1 0 0 0 1 64.058351390118105 33.718656797123323 15.962826008911897 1 rotate no_reflect no_shear #
lump $-1 $-1 $42 $9 #
transform $-1 1 0 0 0 1 0 0 0 1 64.058351390118105 33.718656797123323 15.962826008911897 1 rotate no_reflect no_shear #
lump $-1 $-1 $43 $10 #
transform $-1 1 0 0 0 1 0 0 0 1 64.058351390118105 33.718656797123323 15.962826008911897 1 rotate no_reflect no_shear #
shell $-1 $-1 $-1 $44 $-1 $11 #
shell $-1 $-1 $-1 $45 $-1 $13 #
shell $-1 $-1 $-1 $46 $-1 $15 #
shell $-1 $-1 $-1 $47 $-1 $17 #
shell $-1 $-1 $-1 $48 $-1 $19 #
shell $-1 $-1 $-1 $49 $-1 $21 #
shell $-1 $-1 $-1 $50 $-1 $23 #
shell $-1 $-1 $-1 $51 $-1 $25 #
shell $-1 $-1 $-1 $52 $-1 $27 #
shell $-1 $-1 $-1 $53 $-1 $29 #
shell $-1 $-1 $-1 $54 $-1 $31 #
face $-1 $55 $56 $33 $-1 $57 forward single #
face $-1 $58 $59 $34 $-1 $60 reversed single #
face $-1 $61 $62 $35 $-1 $63 forward single #
face $-1 $64 $65 $36 $-1 $66 forward single #
face $-1 $67 $68 $37 $-1 $69 reversed single #
face $-1 $70 $71 $38 $-1 $72 forward single #
face $-1 $73 $74 $39 $-1 $75 forward single #
face $-1 $76 $77 $40 $-1 $78 reversed single #
face $-1 $79 $80 $41 $-1 $81 forward single #
face $-1 $82 $83 $42 $-1 $84 forward single #
face $-1 $85 $86 $43 $-1 $87 forward single #
face $-1 $88 $89 $33 $-1 $90 reversed single #
loop $-1 $-1 $91 $44 #
plane-surface $-1 0 0 15.962826008911897 0 0 1 1 0 0 forward_v I I I I #
face $-1 $92 $93 $34 $-1 $94 reversed single #
loop $-1 $-1 $95 $45 #
plane-surface $-1 -34.785676914580719 71.773510614188979 151.09410832475953 -1 0 0 0 0.68199836817093118 0.7313536940579346 forward_v I I I I #
face $-1 $96 $97 $35 $-1 $98 forward single #
loop $-1 $99 $100 $46 #
cone-surface $-1 -55.694730111393142 29.260019168538264 11.523425677414128 0 -0.68199836817093118 -0.7313536940579346 1.5 0 0 1 I I 0 1 1.5 forward I I I I #
face $-1 $101 $102 $36 $-1 $103 forward single #
loop $-1 $104 $105 $47 #
cone-surface $-1 -43.14929819330569 29.260019168538264 11.523425677414128 0 -0.68199836817093118 -0.7313536940579346 1.5 0 0 1 I I 0 1 1.5 forward I I I I #
face $-1 $106 $107 $37 $-1 $108 reversed single #
loop $-1 $-1 $109 $48 #
plane-surface $-1 49.422014152349405 -15.601871617372325 57.395484475911317 0 0.68199836817093118 0.7313536940579346 1 0 0 forward_v I I I I #
face $-1 $110 $111 $38 $-1 $112 forward single #
loop $-1 $113 $114 $49 #
cone-surface $-1 43.149298193305683 29.260019168538264 11.523425677414128 0 -0.68199836817093118 -0.7313536940579346 1.5 0 0 1 I I 0 1 1.5 forward I I I I #
face $-1 $115 $116 $39 $-1 $117 forward single #
loop $-1 $118 $119 $50 #
cone-surface $-1 55.694730111393142 29.260019168538264 11.523425677414128 0 -0.68199836817093118 -0.7313536940579346 1.5 0 0 1 I I 0 1 1.5 forward I I I I #
face $-1 $120 $121 $40 $-1 $122 reversed single #
loop $-1 $-1 $123 $51 #
plane-surface $-1 -19.94382092250035 -107.20337956192134 111.47258141462558 -1 0 0 0 -0.57357644374324357 0.81915203911291934 forward_v I I I I #
face $-1 $124 $125 $41 $-1 $126 forward single #
loop $-1 $127 $128 $52 #
cone-surface $-1 -46.501009352690225 -23.58655229597391 6.3982228806947186 0 0.57357644374324357 -0.81915203911291934 3 0 0 1 I I 0 1 3 forward I I I I #
face $-1 $129 $130 $42 $-1 $131 forward single #
loop $-1 $132 $133 $53 #
cone-surface $-1 -36.542063691369023 -23.58655229597391 6.3982228806947186 0 0.57357644374324357 -0.81915203911291934 3 0 0 1 I I 0 1 3 forward I I I I #
face $-1 $134 $135 $43 $-1 $136 forward single #
loop $-1 $137 $138 $54 #
cone-surface $-1 -26.583118030047821 -23.58655229597391 6.3982228806947186 0 0.57357644374324357 -0.81915203911291934 3 0 0 1 I I 0 1 3 forward I I I I #
face $-1 $139 $140 $33 $-1 $141 reversed single #
loop $-1 $-1 $142 $55 #
plane-surface $-1 0 0 -15.962826008911897 0 0 1 1 0 0 forward_v I I I I #
coedge $-1 $143 $144 $145 $146 forward $56 $-1 #
face $-1 $147 $148 $34 $-1 $149 reversed single #
loop $-1 $-1 $150 $58 #
plane-surface $-1 -49.422014152349412 -15.601871617372325 57.395484475911317 0 0.68199836817093118 0.7313536940579346 1 0 0 forward_v I I I I #
coedge $-1 $151 $152 $153 $154 reversed $59 $-1 #
face $-1 $-1 $155 $35 $-1 $156 forward single #
loop $-1 $157 $158 $61 #
cone-surface $-1 -55.694730111393142 26.734604208303274 8.8152497544269934 0 -0.68199836817093118 -0.7313536940579346 0.75 0 0 1 I I -0.70710678118654757 0.70710678118654757 0.75 forward I I I I #
loop $-1 $-1 $159 $46 #
coedge $-1 $100 $100 $160 $161 reversed $62 $-1 #
face $-1 $-1 $162 $36 $-1 $163 forward single #
loop $-1 $164 $165 $64 #
cone-surface $-1 -43.14929819330569 26.734604208303274 8.8152497544269934 0 -0.68199836817093118 -0.7313536940579346 0.75 0 0 1 I I -0.70710678118654757 0.70710678118654757 0.75 forward I I I I #
loop $-1 $-1 $166 $47 #
coedge $-1 $105 $105 $167 $168 reversed $65 $-1 #
face $-1 $169 $170 $37 $-1 $171 forward single #
loop $-1 $-1 $172 $67 #
plane-surface $-1 34.785676914580712 71.773510614188979 151.09410832475953 1 0 0 0 -0.68199836817093118 -0.7313536940579346 forward_v I I I I #
coedge $-1 $173 $174 $175 $176 reversed $68 $-1 #
face $-1 $-1 $177 $38 $-1 $178 forward single #
loop $-1 $179 $180 $70 #
cone-surface $-1 43.149298193305683 26.734604208303274 8.8152497544269934 0 -0.68199836817093118 -0.7313536940579346 0.75 0 0 1 I I -0.70710678118654757 0.70710678118654757 0.75 forward I I I I #
loop $-1 $-1 $181 $49 #
coedge $-1 $114 $114 $182 $183 reversed $71 $-1 #
face $-1 $-1 $184 $39 $-1 $185 forward single #
loop $-1 $186 $187 $73 #
cone-surface $-1 55.694730111393142 26.734604208303274 8.8152497544269934 0 -0.68199836817093118 -0.7313536940579346 0.75 0 0 1 I I -0.70710678118654757 0.70710678118654757 0.75 forward I I I I #
loop $-1 $-1 $188 $50 #
coedge $-1 $119 $119 $189 $190 reversed $74 $-1 #
face $-1 $191 $192 $40 $-1 $193 reversed single #
loop $-1 $-1 $194 $76 #
plane-surface $-1 -36.542063691369023 -33.71865679712333 6.525523087771262 0 -0.57357644374324357 0.81915203911291934 1 0 0 forward_v I I I I #
coedge $-1 $195 $196 $197 $198 reversed $77 $-1 #
face $-1 $-1 $199 $41 $-1 $200 forward single #
loop $-1 $201 $202 $79 #
cone-surface $-1 -46.501009352690225 -19.333015677701084 0.32354315437846282 0 0.57357644374324357 -0.81915203911291934 1.5 0 0 1 I I -0.70710678118654757 0.70710678118654757 1.5 forward I I I I #
loop $-1 $-1 $203 $52 #
coedge $-1 $128 $128 $204 $205 reversed $80 $-1 #
face $-1 $-1 $206 $42 $-1 $207 forward single #
loop $-1 $208 $209 $82 #
cone-surface $-1 -36.542063691369023 -19.333015677701084 0.32354315437846282 0 0.57357644374324357 -0.81915203911291934 1.5 0 0 1 I I -0.70710678118654757 0.70710678118654757 1.5 forward I I I I #
loop $-1 $-1 $210 $53 #
coedge $-1 $133 $133 $211 $212 reversed $83 $-1 #
face $-1 $-1 $213 $43 $-1 $214 forward single #
loop $-1 $215 $216 $85 #
cone-surface $-1 -26.583118030047821 -19.333015677701084 0.32354315437846282 0 0.57357644374324357 -0.81915203911291934 1.5 0 0 1 I I -0.70710678118654757 0.70710678118654757 1.5 forward I I I I #
loop $-1 $-1 $217 $54 #
coedge $-1 $138 $138 $218 $219 reversed $86 $-1 #
face $-1 $220 $221 $33 $-1 $222 reversed single #
loop $-1 $-1 $223 $88 #
plane-surface $-1 0 -33.718656797123323 0 0 1 0 0 0 1 forward_v I I I I #
coedge $-1 $224 $225 $226 $227 forward $89 $-1 #
coedge $-1 $228 $91 $229 $230 forward $56 $-1 #
coedge $-1 $91 $228 $231 $232 forward $56 $-1 #
coedge $-1 $233 $234 $91 $146 reversed $235 $-1 #
edge $-1 $236 -33.718656797123323 $237 33.718656797123323 $145 $238 forward 7 unknown #
face $-1 $239 $240 $34 $-1 $241 forward single #
loop $-1 $-1 $153 $92 #
plane-surface $-1 0 33.718656797123323 0 0 -1 0 0 0 -1 forward_v I I I I #
coedge $-1 $242 $243 $244 $245 reversed $93 $-1 #
coedge $-1 $152 $95 $246 $247 reversed $59 $-1 #
coedge $-1 $95 $151 $242 $248 reversed $59 $-1 #
coedge $-1 $244 $249 $95 $154 forward $148 $-1 #
edge $-1 $250 59.584228153467869 $251 64.143707511575997 $153 $252 forward 7 unknown #
loop $-1 $-1 $160 $96 #
plane-surface $-1 -49.422014152349412 -15.601871617372325 57.395484475911317 0 0.68199836817093118 0.7313536940579346 1 0 0 forward_v I I I I #
loop $-1 $-1 $253 $61 #
coedge $-1 $158 $158 $159 $254 reversed $97 $-1 #
coedge $-1 $159 $159 $158 $254 forward $99 $-1 #
coedge $-1 $160 $160 $100 $161 forward $155 $-1 #
edge $-1 $255 -7.0138136560165516e-016 $255 6.2831853071795996 $160 $256 forward 7 unknown #
loop $-1 $-1 $167 $101 #
plane-surface $-1 -49.422014152349412 -15.601871617372325 57.395484475911317 0 0.68199836817093118 0.7313536940579346 1 0 0 forward_v I I I I #
loop $-1 $-1 $257 $64 #
coedge $-1 $165 $165 $166 $258 reversed $102 $-1 #
coedge $-1 $166 $166 $165 $258 forward $104 $-1 #
coedge $-1 $167 $167 $105 $168 forward $162 $-1 #
edge $-1 $259 -7.0138136560165516e-016 $259 6.2831853071795996 $167 $260 forward 7 unknown #
face $-1 $261 $262 $37 $-1 $263 reversed single #
loop $-1 $-1 $264 $106 #
plane-surface $-1 0 0 15.962826008911897 0 0 1 1 0 0 forward_v I I I I #
coedge $-1 $265 $266 $267 $268 reversed $107 $-1 #
coedge $-1 $269 $109 $270 $271 reversed $68 $-1 #
coedge $-1 $109 $269 $265 $272 forward $68 $-1 #
coedge $-1 $267 $273 $109 $176 forward $274 $-1 #
edge $-1 $275 -39.347344313943388 $276 -10.07466983840601 $175 $277 forward 7 unknown #
loop $-1 $-1 $182 $110 #
plane-surface $-1 49.422014152349405 -15.601871617372325 57.395484475911317 0 0.68199836817093118 0.7313536940579346 1 0 0 forward_v I I I I #
loop $-1 $-1 $278 $70 #
coedge $-1 $180 $180 $181 $279 reversed $111 $-1 #
coedge $-1 $181 $181 $180 $279 forward $113 $-1 #
coedge $-1 $182 $182 $114 $183 forward $177 $-1 #
edge $-1 $280 -7.0138136560165516e-016 $280 6.2831853071795996 $182 $281 forward 7 unknown #
loop $-1 $-1 $189 $115 #
plane-surface $-1 49.422014152349405 -15.601871617372325 57.395484475911317 0 0.68199836817093118 0.7313536940579346 1 0 0 forward_v I I I I #
loop $-1 $-1 $282 $73 #
coedge $-1 $187 $187 $188 $283 reversed $116 $-1 #
coedge $-1 $188 $188 $187 $283 forward $118 $-1 #
coedge $-1 $189 $189 $119 $190 forward $184 $-1 #
edge $-1 $284 -7.0138136560165516e-016 $284 6.2831853071795996 $189 $285 forward 7 unknown #
face $-1 $286 $287 $40 $-1 $288 reversed single #
loop $-1 $-1 $289 $120 #
plane-surface $-1 -53.140306460237696 -107.20337956192134 111.47258141462558 1 0 0 0 0.57357644374324357 -0.81915203911291934 forward_v I I I I #
coedge $-1 $290 $291 $292 $293 reversed $121 $-1 #
coedge $-1 $196 $123 $294 $295 reversed $77 $-1 #
coedge $-1 $123 $195 $290 $296 reversed $77 $-1 #
coedge $-1 $292 $297 $123 $198 forward $298 $-1 #
edge $-1 $299 19.883032983837346 $300 33.360898080820277 $197 $301 forward 7 unknown #
loop $-1 $-1 $204 $124 #
plane-surface $-1 -36.542063691369023 -33.71865679712333 6.525523087771262 0 -0.57357644374324357 0.81915203911291934 1 0 0 forward_v I I I I #
loop $-1 $-1 $302 $79 #
coedge $-1 $202 $202 $203 $303 reversed $125 $-1 #
coedge $-1 $203 $203 $202 $303 forward $127 $-1 #
coedge $-1 $204 $204 $128 $205 forward $199 $-1 #
edge $-1 $304 -8.2365422287850405e-016 $304 6.2831853071795996 $204 $305 forward 7 unknown #
loop $-1 $-1 $211 $129 #
plane-surface $-1 -36.542063691369023 -33.71865679712333 6.525523087771262 0 -0.57357644374324357 0.81915203911291934 1 0 0 forward_v I I I I #
loop $-1 $-1 $306 $82 #
coedge $-1 $209 $209 $210 $307 reversed $130 $-1 #
coedge $-1 $210 $210 $209 $307 forward $132 $-1 #
coedge $-1 $211 $211 $133 $212 forward $206 $-1 #
edge $-1 $308 -8.2365422287850405e-016 $308 6.2831853071795996 $211 $309 forward 7 unknown #
loop $-1 $-1 $218 $134 #
plane-surface $-1 -36.542063691369023 -33.71865679712333 6.525523087771262 0 -0.57357644374324357 0.81915203911291934 1 0 0 forward_v I I I I #
loop $-1 $-1 $310 $85 #
coedge $-1 $216 $216 $217 $311 reversed $135 $-1 #
coedge $-1 $217 $217 $216 $311 forward $137 $-1 #
coedge $-1 $218 $218 $138 $219 forward $213 $-1 #
edge $-1 $312 -8.2365422287850405e-016 $312 6.2831853071795996 $218 $313 forward 7 unknown #
face $-1 $314 $315 $33 $-1 $316 reversed single #
loop $-1 $-1 $317 $139 #
plane-surface $-1 -64.058351390118105 0 0 1 0 0 0 0 -1 forward_v I I I I #
coedge $-1 $318 $231 $319 $320 forward $140 $-1 #
coedge $-1 $321 $142 $318 $322 forward $89 $-1 #
coedge $-1 $142 $321 $323 $324 forward $89 $-1 #
coedge $-1 $234 $233 $142 $227 reversed $235 $-1 #
edge $-1 $325 -33.718656797123323 $326 33.718656797123323 $226 $327 forward 7 unknown #
coedge $-1 $144 $143 $328 $329 forward $56 $-1 #
coedge $-1 $330 $331 $143 $230 reversed $315 $-1 #
edge $-1 $237 -64.058351390118105 $332 64.058351390118105 $229 $333 forward 7 unknown #
coedge $-1 $223 $334 $144 $232 reversed $140 $-1 #
edge $-1 $335 -64.058351390118105 $236 64.058351390118105 $231 $336 forward 7 unknown #
coedge $-1 $226 $145 $334 $337 forward $235 $-1 #
coedge $-1 $145 $226 $330 $338 reversed $235 $-1 #
loop $-1 $-1 $233 $314 #
vertex $-1 $146 $339 #
vertex $-1 $146 $340 #
straight-curve $-1 64.058351390118105 0 15.962826008911897 0 1 0 I I #
face $-1 $-1 $341 $34 $-1 $342 reversed single #
loop $-1 $-1 $246 $147 #
plane-surface $-1 0 0 15.962826008911897 0 0 1 1 0 0 forward_v I I I I #
coedge $-1 $343 $150 $152 $248 forward $93 $-1 #
coedge $-1 $150 $343 $344 $345 reversed $93 $-1 #
coedge $-1 $346 $153 $150 $245 forward $148 $-1 #
edge $-1 $251 10.074669838406013 $347 39.347344313943395 $244 $348 forward 7 unknown #
coedge $-1 $349 $350 $151 $247 forward $240 $-1 #
edge $-1 $351 -7.0575413989276541 $250 -2.1680985099711663 $246 $352 forward 7 unknown #
edge $-1 $251 -67.437313594246632 $351 -60.751843993584217 $152 $353 forward 7 unknown #
coedge $-1 $153 $346 $349 $354 reversed $148 $-1 #
vertex $-1 $354 $355 #
vertex $-1 $154 $356 #
straight-curve $-1 -34.785676914580719 33.718656797123323 75.547054162379766 0 0 -1 I I #
coedge $-1 $253 $253 $-1 $357 reversed $157 $-1 #
edge $-1 $358 0 $358 6.2831853071796004 $158 $359 forward 7 unknown #
vertex $-1 $161 $360 #
ellipse-curve $-1 -55.694730111393142 31.273935352645076 13.683086329857835 0 0.68199836817093118 0.7313536940579346 1.5 0 0 1 I I #
coedge $-1 $257 $257 $-1 $361 reversed $164 $-1 #
edge $-1 $362 0 $362 6.2831853071796004 $165 $363 forward 7 unknown #
vertex $-1 $168 $364 #
ellipse-curve $-1 -43.14929819330569 31.273935352645076 13.683086329857835 0 0.68199836817093118 0.7313536940579346 1.5 0 0 1 I I #
face $-1 $-1 $274 $37 $-1 $365 reversed single #
loop $-1 $-1 $270 $169 #
plane-surface $-1 64.058351390118105 0 0 -1 0 0 0 0 1 forward_v I I I I #
coedge $-1 $366 $367 $266 $368 forward $170 $-1 #
coedge $-1 $266 $172 $174 $272 reversed $107 $-1 #
coedge $-1 $172 $265 $264 $368 reversed $107 $-1 #
coedge $-1 $369 $175 $172 $268 forward $274 $-1 #
edge $-1 $276 -64.143707511575997 $370 -59.584228153467869 $267 $371 forward 7 unknown #
coedge $-1 $174 $173 $366 $372 reversed $68 $-1 #
coedge $-1 $373 $374 $173 $271 forward $262 $-1 #
edge $-1 $375 35.474787396316998 $275 42.16025699697942 $270 $376 forward 7 unknown #
edge $-1 $377 60.751843993584217 $276 67.437313594246632 $265 $378 forward 7 unknown #
coedge $-1 $175 $369 $373 $379 forward $274 $-1 #
loop $-1 $-1 $267 $261 #
vertex $-1 $271 $380 #
vertex $-1 $176 $381 #
straight-curve $-1 24.711007076174702 33.718656797123316 11.403346650803755 -1 0 0 I I #
coedge $-1 $278 $278 $-1 $382 reversed $179 $-1 #
edge $-1 $383 0 $383 6.2831853071796004 $180 $384 forward 7 unknown #
vertex $-1 $183 $385 #
ellipse-curve $-1 43.149298193305683 31.273935352645076 13.683086329857835 0 0.68199836817093118 0.7313536940579346 1.5 0 0 1 I I #
coedge $-1 $282 $282 $-1 $386 reversed $186 $-1 #
edge $-1 $387 0 $387 6.2831853071796004 $187 $388 forward 7 unknown #
vertex $-1 $190 $389 #
ellipse-curve $-1 55.694730111393142 31.273935352645076 13.683086329857835 0 0.68199836817093118 0.7313536940579346 1.5 0 0 1 I I #
face $-1 $-1 $298 $40 $-1 $390 forward single #
loop $-1 $-1 $391 $191 #
plane-surface $-1 0 -33.718656797123323 0 0 1 0 0 0 1 forward_v I I I I #
coedge $-1 $392 $393 $394 $395 reversed $192 $-1 #
coedge $-1 $396 $194 $196 $296 forward $121 $-1 #
coedge $-1 $194 $396 $392 $397 forward $121 $-1 #
coedge $-1 $394 $197 $194 $293 forward $298 $-1 #
edge $-1 $300 1.6727890768158389 $398 34.869274614553184 $292 $399 forward 7 unknown #
coedge $-1 $400 $401 $195 $295 forward $287 $-1 #
edge $-1 $402 -49.210767619541521 $299 -39.773464698400893 $294 $403 forward 7 unknown #
edge $-1 $300 -16.453435325117987 $402 -8.8770546250341341e-015 $196 $404 forward 7 unknown #
coedge $-1 $197 $394 $400 $405 forward $298 $-1 #
loop $-1 $-1 $394 $286 #
vertex $-1 $295 $406 #
vertex $-1 $198 $407 #
straight-curve $-1 -19.94382092250035 -53.601689780960669 15.962826008911897 0 1 0 I I #
coedge $-1 $302 $302 $-1 $408 reversed $201 $-1 #
edge $-1 $409 0 $409 6.2831853071796004 $202 $410 forward 7 unknown #
vertex $-1 $205 $411 #
ellipse-curve $-1 -46.501009352690225 -26.979724248631861 11.244174548341579 0 -0.57357644374324357 0.81915203911291934 3 0 0 1 I I #
coedge $-1 $306 $306 $-1 $412 reversed $208 $-1 #
edge $-1 $413 0 $413 6.2831853071796004 $209 $414 forward 7 unknown #
vertex $-1 $212 $415 #
ellipse-curve $-1 -36.542063691369023 -26.979724248631861 11.244174548341579 0 -0.57357644374324357 0.81915203911291934 3 0 0 1 I I #
coedge $-1 $310 $310 $-1 $416 reversed $215 $-1 #
edge $-1 $417 0 $417 6.2831853071796004 $216 $418 forward 7 unknown #
vertex $-1 $219 $419 #
ellipse-curve $-1 -26.583118030047821 -26.979724248631861 11.244174548341579 0 -0.57357644374324357 0.81915203911291934 3 0 0 1 I I #
face $-1 $-1 $235 $33 $-1 $420 reversed single #
loop $-1 $-1 $330 $220 #
plane-surface $-1 0 33.718656797123323 0 0 -1 0 0 0 -1 forward_v I I I I #
coedge $-1 $421 $328 $331 $422 forward $221 $-1 #
coedge $-1 $334 $223 $224 $322 reversed $140 $-1 #
coedge $-1 $328 $421 $223 $320 reversed $221 $-1 #
edge $-1 $335 -15.962826008911897 $423 15.962826008911897 $319 $424 forward 7 unknown #
coedge $-1 $225 $224 $421 $425 forward $89 $-1 #
edge $-1 $326 -64.058351390118105 $423 64.058351390118105 $318 $426 forward 7 unknown #
coedge $-1 $331 $330 $225 $324 reversed $315 $-1 #
edge $-1 $427 -64.058351390118105 $325 64.058351390118105 $323 $428 forward 7 unknown #
vertex $-1 $227 $429 #
vertex $-1 $337 $430 #
straight-curve $-1 64.058351390118105 0 -15.962826008911897 0 -1 0 I I #
coedge $-1 $317 $319 $228 $329 reversed $221 $-1 #
edge $-1 $332 -33.718656797123323 $335 33.718656797123323 $328 $431 forward 7 unknown #
coedge $-1 $323 $229 $234 $338 forward $315 $-1 #
coedge $-1 $229 $323 $317 $422 reversed $315 $-1 #
vertex $-1 $230 $432 #
straight-curve $-1 0 33.718656797123323 15.962826008911897 -1 0 0 I I #
coedge $-1 $231 $318 $233 $337 reversed $140 $-1 #
vertex $-1 $329 $433 #
straight-curve $-1 0 -33.718656797123323 15.962826008911897 1 0 0 I I #
edge $-1 $236 -15.962826008911897 $326 15.962826008911897 $233 $434 forward 7 unknown #
edge $-1 $237 -15.962826008911897 $325 15.962826008911897 $234 $435 forward 7 unknown #
point $-1 64.058351390118105 -33.718656797123323 15.962826008911897 #
point $-1 64.058351390118105 33.718656797123323 15.962826008911897 #
loop $-1 $-1 $344 $239 #
plane-surface $-1 -64.058351390118105 0 0 1 0 0 0 0 -1 forward_v I I I I #
coedge $-1 $243 $242 $350 $436 reversed $93 $-1 #
coedge $-1 $437 $438 $243 $345 forward $341 $-1 #
edge $-1 $347 -42.160256996979427 $439 -35.474787396316998 $344 $440 forward 7 unknown #
coedge $-1 $249 $244 $438 $441 reversed $148 $-1 #
vertex $-1 $245 $442 #
straight-curve $-1 -24.711007076174706 33.718656797123316 11.403346650803755 -1 0 0 I I #
coedge $-1 $443 $246 $249 $354 forward $240 $-1 #
coedge $-1 $246 $443 $343 $436 forward $240 $-1 #
vertex $-1 $247 $444 #
straight-curve $-1 -34.785676914580719 35.886755307094489 15.962826008911904 0 1 0 I I #
straight-curve $-1 -34.785676914580719 -15.601871617372325 57.395484475911317 0 -0.7313536940579346 0.68199836817093118 I I #
edge $-1 $250 34.785676914580719 $445 64.058351390118105 $249 $446 forward 7 unknown #
point $-1 -34.785676914580719 33.718656797123323 15.962826008911897 #
point $-1 -34.785676914580719 33.718656797123323 11.403346650803762 #
edge $-1 $447 1 $447 0 $253 $-1 forward 7 unknown #
vertex $-1 $254 $448 #
ellipse-curve $-1 -55.694730111393142 27.246102984431474 9.3637650249704443 0 0.68199836817093118 0.7313536940579346 1.5 0 0 1 I I #
point $-1 -54.194730111393142 31.273935352645054 13.683086329857813 #
edge $-1 $449 1 $449 0 $257 $-1 forward 7 unknown #
vertex $-1 $258 $450 #
ellipse-curve $-1 -43.14929819330569 27.246102984431474 9.3637650249704443 0 0.68199836817093118 0.7313536940579346 1.5 0 0 1 I I #
point $-1 -41.64929819330569 31.273935352645054 13.683086329857813 #
plane-surface $-1 0 33.718656797123323 0 0 -1 0 0 0 -1 forward_v I I I I #
coedge $-1 $451 $264 $269 $372 forward $170 $-1 #
coedge $-1 $264 $451 $369 $452 forward $170 $-1 #
edge $-1 $370 2.1680985099711663 $377 7.0575413989276541 $264 $453 forward 7 unknown #
coedge $-1 $273 $267 $367 $452 reversed $274 $-1 #
vertex $-1 $268 $454 #
straight-curve $-1 34.785676914580712 33.718656797123323 75.547054162379766 0 0 1 I I #
edge $-1 $377 10.07466983840601 $375 39.347344313943388 $366 $455 forward 7 unknown #
coedge $-1 $374 $270 $273 $379 reversed $262 $-1 #
coedge $-1 $270 $373 $451 $456 reversed $262 $-1 #
vertex $-1 $456 $457 #
straight-curve $-1 64.058351390118105 2.8845970999505379 40.156573124410812 0 0.7313536940579346 -0.68199836817093118 I I #
vertex $-1 $372 $458 #
straight-curve $-1 34.785676914580712 -15.601871617372325 57.395484475911317 0 0.7313536940579346 -0.68199836817093118 I I #
edge $-1 $459 -15.962826008911897 $275 -11.403346650803762 $373 $460 forward 7 unknown #
point $-1 64.058351390118091 33.718656797123323 11.403346650803762 #
point $-1 34.785676914580712 33.718656797123323 11.403346650803762 #
edge $-1 $461 1 $461 0 $278 $-1 forward 7 unknown #
vertex $-1 $279 $462 #
ellipse-curve $-1 43.149298193305683 27.246102984431474 9.3637650249704443 0 0.68199836817093118 0.7313536940579346 1.5 0 0 1 I I #
point $-1 44.649298193305683 31.273935352645054 13.683086329857813 #
edge $-1 $463 1 $463 0 $282 $-1 forward 7 unknown #
vertex $-1 $283 $464 #
ellipse-curve $-1 55.694730111393142 27.246102984431474 9.3637650249704443 0 0.68199836817093118 0.7313536940579346 1.5 0 0 1 I I #
point $-1 57.194730111393142 31.273935352645054 13.683086329857813 #
plane-surface $-1 0 0 15.962826008911897 0 0 1 1 0 0 forward_v I I I I #
coedge $-1 $401 $400 $393 $465 forward $287 $-1 #
coedge $-1 $393 $289 $291 $397 reversed $192 $-1 #
coedge $-1 $289 $392 $391 $465 reversed $192 $-1 #
coedge $-1 $297 $292 $289 $395 forward $298 $-1 #
edge $-1 $398 -33.360898080820277 $466 -19.883032983837346 $394 $467 forward 7 unknown #
coedge $-1 $291 $290 $401 $468 reversed $121 $-1 #
edge $-1 $469 8.8770546250341341e-015 $398 16.453435325117987 $392 $470 forward 7 unknown #
vertex $-1 $293 $471 #
straight-curve $-1 -18.271031845684512 -20.240791700140388 15.962826008911897 -1 0 0 I I #
coedge $-1 $391 $294 $297 $405 reversed $287 $-1 #
coedge $-1 $294 $391 $396 $468 forward $287 $-1 #
vertex $-1 $295 $472 #
straight-curve $-1 -19.94382092250035 -33.718656797123323 55.73629070731279 0 0 1 I I #
straight-curve $-1 -19.94382092250035 -33.71865679712333 6.525523087771262 0 -0.81915203911291934 -0.57357644374324357 I I #
edge $-1 $466 -53.140306460237696 $299 -19.94382092250035 $400 $473 forward 7 unknown #
point $-1 -19.94382092250035 -33.718656797123323 15.962826008911897 #
point $-1 -19.94382092250035 -20.240791700140392 15.962826008911897 #
edge $-1 $474 1 $474 0 $302 $-1 forward 7 unknown #
vertex $-1 $303 $475 #
ellipse-curve $-1 -46.501009352690225 -20.193380343315951 1.5522712130478418 0 -0.57357644374324357 0.81915203911291934 3 0 0 1 I I #
point $-1 -43.501009352690225 -26.979724248631875 11.244174548341595 #
edge $-1 $476 1 $476 0 $306 $-1 forward 7 unknown #
vertex $-1 $307 $477 #
ellipse-curve $-1 -36.542063691369023 -20.193380343315951 1.5522712130478418 0 -0.57357644374324357 0.81915203911291934 3 0 0 1 I I #
point $-1 -33.542063691369023 -26.979724248631875 11.244174548341595 #
edge $-1 $478 1 $478 0 $310 $-1 forward 7 unknown #
vertex $-1 $311 $479 #
ellipse-curve $-1 -26.583118030047821 -20.193380343315951 1.5522712130478418 0 -0.57357644374324357 0.81915203911291934 3 0 0 1 I I #
point $-1 -23.583118030047821 -26.979724248631875 11.244174548341595 #
plane-surface $-1 64.058351390118105 0 0 -1 0 0 0 0 1 forward_v I I I I #
coedge $-1 $319 $317 $321 $425 reversed $221 $-1 #
edge $-1 $332 -15.962826008911897 $427 15.962826008911897 $331 $480 forward 7 unknown #
vertex $-1 $425 $481 #
straight-curve $-1 -64.058351390118105 -33.718656797123323 0 0 0 -1 I I #
edge $-1 $423 -33.718656797123323 $427 33.718656797123323 $421 $482 forward 7 unknown #
straight-curve $-1 0 -33.718656797123323 -15.962826008911897 -1 0 0 I I #
vertex $-1 $324 $483 #
straight-curve $-1 0 33.718656797123323 -15.962826008911897 1 0 0 I I #
point $-1 64.058351390118105 33.718656797123323 -15.962826008911897 #
point $-1 64.058351390118105 -33.718656797123323 -15.962826008911897 #
straight-curve $-1 -64.058351390118105 0 15.962826008911897 0 -1 0 I I #
point $-1 -64.058351390118105 33.718656797123323 15.962826008911897 #
point $-1 -64.058351390118105 -33.718656797123323 15.962826008911897 #
straight-curve $-1 64.058351390118105 -33.718656797123323 0 0 0 -1 I I #
straight-curve $-1 64.058351390118105 33.718656797123323 0 0 0 -1 I I #
edge $-1 $439 -39.347344313943395 $351 -10.074669838406013 $350 $484 forward 7 unknown #
coedge $-1 $438 $344 $443 $485 reversed $341 $-1 #
coedge $-1 $344 $437 $346 $441 forward $341 $-1 #
vertex $-1 $345 $486 #
straight-curve $-1 -64.058351390118105 2.8845970999505379 40.156573124410812 0 -0.7313536940579346 0.68199836817093118 I I #
edge $-1 $445 -15.962826008911897 $347 -11.403346650803755 $346 $487 forward 7 unknown #
point $-1 -64.058351390118105 33.718656797123323 11.403346650803755 #
coedge $-1 $350 $349 $437 $485 forward $240 $-1 #
point $-1 -34.785676914580719 28.829213908166835 15.962826008911897 #
vertex $-1 $354 $488 #
straight-curve $-1 0 33.718656797123323 15.962826008911897 -1 0 0 I I #
vertex $-1 $357 $489 #
point $-1 -54.194730111393142 27.246102984431474 9.3637650249704443 #
vertex $-1 $361 $490 #
point $-1 -41.64929819330569 27.246102984431474 9.3637650249704443 #
coedge $-1 $367 $366 $374 $456 forward $170 $-1 #
edge $-1 $459 -64.058351390118105 $370 -34.785676914580712 $369 $491 forward 7 unknown #
straight-curve $-1 34.785676914580712 35.886755307094489 15.962826008911904 0 -1 0 I I #
point $-1 34.785676914580712 33.718656797123323 15.962826008911897 #
straight-curve $-1 24.711007076174702 28.829213908166846 15.962826008911893 1 0 0 I I #
edge $-1 $375 28.829213908166835 $459 33.718656797123323 $374 $492 forward 7 unknown #
point $-1 64.058351390118091 28.829213908166835 15.962826008911897 #
point $-1 34.785676914580712 28.829213908166835 15.962826008911897 #
vertex $-1 $456 $493 #
straight-curve $-1 64.058351390118105 33.718656797123323 0 0 0 -1 I I #
vertex $-1 $382 $494 #
point $-1 44.649298193305683 27.246102984431474 9.3637650249704443 #
vertex $-1 $386 $495 #
point $-1 57.194730111393142 27.246102984431474 9.3637650249704443 #
edge $-1 $466 39.773464698400893 $469 49.210767619541521 $391 $496 forward 7 unknown #
vertex $-1 $405 $497 #
straight-curve $-1 -53.140306460237696 -53.601689780960669 15.962826008911897 0 -1 0 I I #
edge $-1 $469 -34.869274614553184 $402 -1.6727890768158389 $401 $498 forward 7 unknown #
vertex $-1 $468 $499 #
straight-curve $-1 -53.140306460237696 -33.71865679712333 6.525523087771262 0 0.81915203911291934 0.57357644374324357 I I #
point $-1 -53.140306460237696 -20.240791700140392 15.962826008911897 #
point $-1 -19.94382092250035 -33.718656797123323 6.5255230877712673 #
straight-curve $-1 0 -33.718656797123323 15.962826008911897 1 0 0 I I #
vertex $-1 $408 $500 #
point $-1 -43.501009352690225 -20.193380343315951 1.5522712130478418 #
vertex $-1 $412 $501 #
point $-1 -33.542063691369023 -20.193380343315951 1.5522712130478418 #
vertex $-1 $416 $502 #
point $-1 -23.583118030047821 -20.193380343315951 1.5522712130478418 #
straight-curve $-1 -64.058351390118105 33.718656797123323 0 0 0 -1 I I #
point $-1 -64.058351390118105 -33.718656797123323 -15.962826008911897 #
straight-curve $-1 -64.058351390118105 0 -15.962826008911897 0 1 0 I I #
point $-1 -64.058351390118105 33.718656797123323 -15.962826008911897 #
straight-curve $-1 -24.711007076174706 28.829213908166846 15.962826008911893 1 0 0 I I #
edge $-1 $445 -33.718656797123323 $439 -28.829213908166835 $437 $503 forward 7 unknown #
point $-1 -64.058351390118105 28.829213908166835 15.962826008911897 #
straight-curve $-1 -64.058351390118105 33.718656797123323 0 0 0 -1 I I #
point $-1 -64.058351390118105 33.718656797123323 15.962826008911897 #
point $-1 -55.694730111393142 26.223105432175075 8.2667344838835426 #
point $-1 -43.14929819330569 26.223105432175075 8.2667344838835426 #
straight-curve $-1 0 33.718656797123323 15.962826008911897 -1 0 0 I I #
straight-curve $-1 64.058351390118105 0 15.962826008911897 0 1 0 I I #
point $-1 64.058351390118105 33.718656797123323 15.962826008911897 #
point $-1 43.149298193305683 26.223105432175075 8.2667344838835426 #
point $-1 55.694730111393142 26.223105432175075 8.2667344838835426 #
straight-curve $-1 -53.140306460237696 -33.718656797123323 55.73629070731279 0 0 -1 I I #
point $-1 -53.140306460237696 -33.718656797123323 15.962826008911897 #
straight-curve $-1 -18.271031845684512 -33.718656797123323 6.5255230877712709 1 0 0 I I #
point $-1 -53.140306460237696 -33.718656797123323 6.5255230877712673 #
point $-1 -46.501009352690225 -18.472651012086217 -0.90518490429091614 #
point $-1 -36.542063691369023 -18.472651012086217 -0.90518490429091614 #
point $-1 -26.583118030047821 -18.472651012086217 -0.90518490429091614 #
straight-curve $-1 -64.058351390118105 0 15.962826008911897 0 -1 0 I I #
End-of-ACIS-data 