500 0 7 0           
7 Unknown 11 ACIS 5.0 NT 24 Thu Mar 25 15:27:07 1999 
-1 9.9999999999999995e-007 1e-010 
body $-1 $7 $-1 $8 #
body $-1 $9 $-1 $10 #
body $-1 $11 $-1 $12 #
body $-1 $13 $-1 $14 #
body $-1 $15 $-1 $16 #
body $-1 $17 $-1 $18 #
body $-1 $19 $-1 $20 #
lump $-1 $-1 $21 $0 #
transform $-1 1 0 0 0 1 0 0 0 1 43.269142735068819 23.38583138814198 7.3370574791563472 1 rotate no_reflect no_shear #
lump $-1 $-1 $22 $1 #
transform $-1 1 0 0 0 1 0 0 0 1 43.269142735068819 23.38583138814198 7.3370574791563472 1 rotate no_reflect no_shear #
lump $-1 $-1 $23 $2 #
transform $-1 1 0 0 0 1 0 0 0 1 43.269142735068819 23.38583138814198 7.3370574791563472 1 rotate no_reflect no_shear #
lump $-1 $-1 $24 $3 #
transform $-1 1 0 0 0 1 0 0 0 1 43.269142735068819 23.38583138814198 7.3370574791563472 1 rotate no_reflect no_shear #
lump $-1 $-1 $25 $4 #
transform $-1 1 0 0 0 1 0 0 0 1 43.269142735068819 23.38583138814198 7.3370574791563472 1 rotate no_reflect no_shear #
lump $-1 $-1 $26 $5 #
transform $-1 1 0 0 0 1 0 0 0 1 43.269142735068819 23.38583138814198 7.3370574791563472 1 rotate no_reflect no_shear #
lump $-1 $-1 $27 $6 #
transform $-1 1 0 0 0 1 0 0 0 1 43.269142735068819 23.38583138814198 7.3370574791563472 1 rotate no_reflect no_shear #
shell $-1 $-1 $-1 $28 $-1 $7 #
shell $-1 $-1 $-1 $29 $-1 $9 #
shell $-1 $-1 $-1 $30 $-1 $11 #
shell $-1 $-1 $-1 $31 $-1 $13 #
shell $-1 $-1 $-1 $32 $-1 $15 #
shell $-1 $-1 $-1 $33 $-1 $17 #
shell $-1 $-1 $-1 $34 $-1 $19 #
face $-1 $35 $36 $21 $-1 $37 forward single #
face $-1 $38 $39 $22 $-1 $40 forward single #
face $-1 $41 $42 $23 $-1 $43 forward single #
face $-1 $44 $45 $24 $-1 $46 reversed single #
face $-1 $47 $48 $25 $-1 $49 forward single #
face $-1 $50 $51 $26 $-1 $52 reversed single #
face $-1 $53 $54 $27 $-1 $55 forward single #
face $-1 $56 $57 $21 $-1 $58 reversed single #
loop $-1 $-1 $59 $28 #
plane-surface $-1 0 0 7.3370574791563472 0 0 1 1 0 0 forward_v I I I I #
face $-1 $60 $61 $22 $-1 $62 reversed single #
loop $-1 $-1 $63 $29 #
plane-surface $-1 0 -18.665147960992222 -4.3370574791563472 0 0 1 1 0 0 forward_v I I I I #
face $-1 $64 $65 $23 $-1 $66 reversed single #
loop $-1 $-1 $67 $30 #
plane-surface $-1 0 18.665147960992222 -4.3370574791563472 0 0 1 1 0 0 forward_v I I I I #
face $-1 $68 $69 $24 $-1 $70 reversed single #
loop $-1 $-1 $71 $31 #
plane-surface $-1 -94.135071342936214 13.94446453384246 71.750954661702039 0 -1 0 0.5877852598018023 0 -0.80901698891910034 forward_v I I I I #
face $-1 $72 $73 $25 $-1 $74 forward single #
loop $-1 $75 $76 $32 #
cone-surface $-1 -38.630490864219915 10.753928370502344 3.4555758720064684 0.5877852598018023 0 -0.80901698891910034 1.2135254833786506 0 0.88167788970270344 1 I I 0 1 1.5 forward I I I I #
face $-1 $77 $78 $26 $-1 $79 reversed single #
loop $-1 $-1 $80 $33 #
plane-surface $-1 24.124128205663929 13.94446453384246 122.61688326956941 0 -1 0 -0.5877852598018023 0 -0.80901698891910034 forward_v I I I I #
face $-1 $81 $82 $27 $-1 $83 forward single #
loop $-1 $84 $85 $34 #
cone-surface $-1 38.630490864219915 10.753928370502344 3.4555758720064649 -0.5877852598018023 0 -0.80901698891910034 1.2135254833786506 0 -0.88167788970270344 1 I I 0 1 1.5 forward I I I I #
face $-1 $86 $87 $21 $-1 $88 reversed single #
loop $-1 $-1 $89 $35 #
plane-surface $-1 0 0 -7.3370574791563472 0 0 1 1 0 0 forward_v I I I I #
coedge $-1 $90 $91 $92 $93 forward $36 $-1 #
face $-1 $94 $95 $22 $-1 $96 reversed single #
loop $-1 $-1 $97 $38 #
plane-surface $-1 0 -13.944464533842462 -5.8370574791563472 0 -1 0 0 0 -1 forward_v I I I I #
coedge $-1 $98 $99 $100 $101 reversed $39 $-1 #
face $-1 $102 $103 $23 $-1 $104 reversed single #
loop $-1 $-1 $105 $41 #
plane-surface $-1 0 13.944464533842464 -5.8370574791563472 0 1 0 0 0 1 forward_v I I I I #
coedge $-1 $106 $107 $108 $109 reversed $42 $-1 #
face $-1 $110 $111 $24 $-1 $112 reversed single #
loop $-1 $-1 $113 $44 #
plane-surface $-1 -43.269142735068819 10.753928370502337 1.7400115244297467 -0.5877852598018023 0 0.80901698891910034 0.80901698891910034 0 0.5877852598018023 forward_v I I I I #
coedge $-1 $114 $115 $116 $117 reversed $45 $-1 #
face $-1 $-1 $118 $25 $-1 $119 forward single #
loop $-1 $120 $121 $47 #
cone-surface $-1 -37.402836403400009 10.753928370502344 1.7658545005305646 0.5877852598018023 0 -0.80901698891910034 0.60676274168932531 0 0.44083894485135172 1 I I -0.70710678118654757 0.70710678118654757 0.75 forward I I I I #
loop $-1 $-1 $122 $32 #
coedge $-1 $76 $76 $123 $124 reversed $48 $-1 #
face $-1 $125 $126 $26 $-1 $127 reversed single #
loop $-1 $-1 $128 $50 #
plane-surface $-1 -26.741800402203467 10.753928370502337 52.605940132297121 0.5877852598018023 0 0.80901698891910034 0.80901698891910034 0 -0.5877852598018023 forward_v I I I I #
coedge $-1 $129 $130 $131 $132 reversed $51 $-1 #
face $-1 $-1 $133 $27 $-1 $134 forward single #
loop $-1 $135 $136 $53 #
cone-surface $-1 37.402836403400009 10.753928370502344 1.765854500530561 -0.5877852598018023 0 -0.80901698891910034 0.60676274168932531 0 -0.44083894485135172 1 I I -0.70710678118654757 0.70710678118654757 0.75 forward I I I I #
loop $-1 $-1 $137 $34 #
coedge $-1 $85 $85 $138 $139 reversed $54 $-1 #
face $-1 $140 $141 $21 $-1 $142 reversed single #
loop $-1 $-1 $143 $56 #
plane-surface $-1 0 -23.38583138814198 0 0 1 0 0 0 1 forward_v I I I I #
coedge $-1 $144 $145 $146 $147 forward $57 $-1 #
coedge $-1 $148 $59 $149 $150 forward $36 $-1 #
coedge $-1 $59 $148 $151 $152 forward $36 $-1 #
coedge $-1 $153 $154 $59 $93 reversed $155 $-1 #
edge $-1 $156 -23.38583138814198 $157 23.38583138814198 $92 $158 forward 7 unknown #
face $-1 $159 $160 $22 $-1 $161 reversed single #
loop $-1 $-1 $162 $60 #
plane-surface $-1 0 0 -7.3370574791563472 0 0 1 1 0 0 forward_v I I I I #
coedge $-1 $163 $164 $165 $166 reversed $61 $-1 #
coedge $-1 $167 $63 $164 $168 forward $39 $-1 #
coedge $-1 $63 $167 $169 $170 reversed $39 $-1 #
coedge $-1 $171 $165 $63 $101 forward $160 $-1 #
edge $-1 $172 4.6118905533463508 $173 14.053257407645869 $100 $174 forward 7 unknown #
face $-1 $175 $176 $23 $-1 $177 reversed single #
loop $-1 $-1 $108 $64 #
plane-surface $-1 43.269142735068819 0 0 -1 0 0 0 0 1 forward_v I I I I #
coedge $-1 $178 $179 $180 $181 reversed $65 $-1 #
coedge $-1 $182 $67 $183 $184 reversed $42 $-1 #
coedge $-1 $67 $182 $179 $185 forward $42 $-1 #
coedge $-1 $186 $187 $67 $109 forward $103 $-1 #
edge $-1 $188 -14.053257407645869 $189 -4.6118905533463526 $108 $190 forward 7 unknown #
face $-1 $191 $192 $24 $-1 $193 reversed single #
loop $-1 $-1 $194 $68 #
plane-surface $-1 -94.135071342936214 7.5633922071622131 71.750954661702039 0 1 0 -0.5877852598018023 0 0.80901698891910034 forward_v I I I I #
coedge $-1 $195 $196 $197 $198 reversed $69 $-1 #
coedge $-1 $115 $71 $199 $200 reversed $45 $-1 #
coedge $-1 $71 $114 $195 $201 reversed $45 $-1 #
coedge $-1 $197 $202 $71 $117 forward $192 $-1 #
edge $-1 $203 28.538419851694673 $204 34.135465806421273 $116 $205 forward 7 unknown #
loop $-1 $-1 $123 $72 #
plane-surface $-1 -43.269142735068819 10.753928370502337 1.7400115244297467 -0.5877852598018023 0 0.80901698891910034 0.80901698891910034 0 0.5877852598018023 forward_v I I I I #
loop $-1 $-1 $206 $47 #
coedge $-1 $121 $121 $122 $207 reversed $73 $-1 #
coedge $-1 $122 $122 $121 $207 forward $75 $-1 #
coedge $-1 $123 $123 $76 $124 forward $118 $-1 #
edge $-1 $208 0 $208 6.2831853071796004 $123 $209 forward 7 unknown #
face $-1 $210 $211 $26 $-1 $212 forward single #
loop $-1 $-1 $213 $77 #
plane-surface $-1 24.124128205663929 7.5633922071622131 122.61688326956941 0 1 0 0.5877852598018023 0 0.80901698891910034 forward_v I I I I #
coedge $-1 $214 $215 $216 $217 reversed $78 $-1 #
coedge $-1 $130 $80 $218 $219 reversed $51 $-1 #
coedge $-1 $80 $129 $214 $220 reversed $51 $-1 #
coedge $-1 $216 $221 $80 $132 forward $211 $-1 #
edge $-1 $222 -31.207078632236854 $223 -23.503405922476137 $131 $224 forward 7 unknown #
loop $-1 $-1 $138 $81 #
plane-surface $-1 -26.741800402203467 10.753928370502337 52.605940132297121 0.5877852598018023 0 0.80901698891910034 0.80901698891910034 0 -0.5877852598018023 forward_v I I I I #
loop $-1 $-1 $225 $53 #
coedge $-1 $136 $136 $137 $226 reversed $82 $-1 #
coedge $-1 $137 $137 $136 $226 forward $84 $-1 #
coedge $-1 $138 $138 $85 $139 forward $133 $-1 #
edge $-1 $227 0 $227 6.2831853071796004 $138 $228 forward 7 unknown #
face $-1 $229 $230 $21 $-1 $231 reversed single #
loop $-1 $-1 $232 $86 #
plane-surface $-1 -43.269142735068819 0 0 1 0 0 0 0 -1 forward_v I I I I #
coedge $-1 $233 $151 $234 $235 forward $87 $-1 #
coedge $-1 $236 $89 $233 $237 forward $57 $-1 #
coedge $-1 $89 $236 $238 $239 forward $57 $-1 #
coedge $-1 $154 $153 $89 $147 reversed $155 $-1 #
edge $-1 $240 -23.38583138814198 $241 23.38583138814198 $146 $242 forward 7 unknown #
coedge $-1 $91 $90 $243 $244 forward $36 $-1 #
coedge $-1 $245 $246 $90 $150 reversed $230 $-1 #
edge $-1 $157 -43.269142735068819 $247 43.269142735068819 $149 $248 forward 7 unknown #
coedge $-1 $143 $249 $91 $152 reversed $87 $-1 #
edge $-1 $250 -43.269142735068819 $156 43.269142735068819 $151 $251 forward 7 unknown #
coedge $-1 $146 $92 $249 $252 forward $155 $-1 #
coedge $-1 $92 $146 $245 $253 reversed $155 $-1 #
loop $-1 $-1 $153 $229 #
vertex $-1 $93 $254 #
vertex $-1 $93 $255 #
straight-curve $-1 43.269142735068819 0 7.3370574791563472 0 1 0 I I #
face $-1 $256 $257 $22 $-1 $258 reversed single #
loop $-1 $-1 $165 $94 #
plane-surface $-1 43.269142735068819 0 0 -1 0 0 0 0 1 forward_v I I I I #
coedge $-1 $259 $260 $163 $261 forward $95 $-1 #
coedge $-1 $262 $97 $162 $261 reversed $61 $-1 #
coedge $-1 $97 $262 $98 $168 reversed $61 $-1 #
coedge $-1 $100 $263 $97 $166 forward $160 $-1 #
edge $-1 $264 -4.4185287395781732 $172 -1.4185287395781736 $165 $265 forward 7 unknown #
coedge $-1 $99 $98 $266 $267 reversed $39 $-1 #
edge $-1 $172 -43.269142735068819 $268 43.269142735068819 $164 $269 forward 7 unknown #
coedge $-1 $270 $271 $99 $170 forward $257 $-1 #
edge $-1 $173 -43.269142735068819 $272 43.269142735068819 $169 $273 forward 7 unknown #
coedge $-1 $263 $100 $271 $274 forward $160 $-1 #
vertex $-1 $101 $275 #
vertex $-1 $274 $276 #
straight-curve $-1 43.269142735068819 -9.332573980496111 -4.3370574791563472 0 -1 0 I I #
face $-1 $277 $278 $23 $-1 $279 reversed single #
loop $-1 $-1 $280 $102 #
plane-surface $-1 0 0 -7.3370574791563472 0 0 1 1 0 0 forward_v I I I I #
coedge $-1 $281 $105 $280 $282 reversed $65 $-1 #
coedge $-1 $105 $281 $107 $185 reversed $65 $-1 #
coedge $-1 $283 $284 $105 $181 forward $278 $-1 #
edge $-1 $285 -4.4185287395781732 $286 -1.4185287395781736 $180 $287 forward 7 unknown #
coedge $-1 $107 $106 $283 $288 reversed $42 $-1 #
coedge $-1 $289 $290 $106 $184 forward $291 $-1 #
edge $-1 $292 -43.269142735068819 $188 43.269142735068819 $183 $293 forward 7 unknown #
edge $-1 $286 -43.269142735068819 $189 43.269142735068819 $179 $294 forward 7 unknown #
coedge $-1 $295 $108 $281 $296 forward $103 $-1 #
coedge $-1 $108 $295 $289 $297 reversed $103 $-1 #
vertex $-1 $297 $298 #
vertex $-1 $109 $299 #
straight-curve $-1 43.269142735068819 9.332573980496111 -4.3370574791563472 0 -1 0 I I #
face $-1 $-1 $300 $24 $-1 $301 forward single #
loop $-1 $-1 $116 $110 #
plane-surface $-1 -43.269142735068819 0 0 1 0 0 0 0 -1 forward_v I I I I #
coedge $-1 $302 $303 $304 $305 reversed $111 $-1 #
coedge $-1 $306 $113 $115 $201 forward $69 $-1 #
coedge $-1 $113 $306 $302 $307 forward $69 $-1 #
coedge $-1 $304 $116 $113 $198 forward $192 $-1 #
edge $-1 $204 -8.5675003485912917 $308 -2.1864280219110448 $197 $309 forward 7 unknown #
coedge $-1 $310 $311 $114 $200 forward $300 $-1 #
edge $-1 $312 -11.502065646159984 $203 -3.7983929363992885 $199 $313 forward 7 unknown #
edge $-1 $204 0 $312 9.5222632098904452 $115 $314 forward 7 unknown #
coedge $-1 $116 $304 $310 $315 reversed $192 $-1 #
vertex $-1 $315 $316 #
vertex $-1 $117 $317 #
straight-curve $-1 -43.269142735068819 13.94446453384246 35.87547733085102 0 0 -1 I I #
coedge $-1 $206 $206 $-1 $318 reversed $120 $-1 #
edge $-1 $319 0 $319 6.2831853071796004 $121 $320 forward 7 unknown #
vertex $-1 $124 $321 #
ellipse-curve $-1 -39.417306380188471 10.753928370502344 4.5385345017930474 -0.5877852598018023 0 0.80901698891910034 1.2135254833786506 0 0.88167788970270344 1 I I #
face $-1 $-1 $322 $26 $-1 $323 reversed single #
loop $-1 $-1 $131 $125 #
plane-surface $-1 0 0 7.3370574791563472 0 0 1 1 0 0 forward_v I I I I #
coedge $-1 $324 $325 $326 $327 reversed $126 $-1 #
coedge $-1 $328 $128 $130 $220 forward $78 $-1 #
coedge $-1 $128 $328 $324 $329 forward $78 $-1 #
coedge $-1 $326 $131 $128 $217 forward $211 $-1 #
edge $-1 $223 -8.5675003485912917 $330 -2.1864280219110448 $216 $331 forward 7 unknown #
coedge $-1 $332 $333 $129 $219 forward $322 $-1 #
edge $-1 $334 -59.568430110354967 $222 -53.971384155628357 $218 $335 forward 7 unknown #
edge $-1 $223 77.016022260247169 $334 86.538285470137623 $130 $336 forward 7 unknown #
coedge $-1 $131 $326 $332 $337 forward $211 $-1 #
vertex $-1 $132 $338 #
vertex $-1 $132 $339 #
straight-curve $-1 12.062064102831965 13.94446453384246 7.3370574791563499 -1 0 0 I I #
coedge $-1 $225 $225 $-1 $340 reversed $135 $-1 #
edge $-1 $341 0 $341 6.2831853071796004 $136 $342 forward 7 unknown #
vertex $-1 $139 $343 #
ellipse-curve $-1 39.417306380188464 10.753928370502344 4.5385345017930359 0.5877852598018023 0 0.80901698891910034 1.2135254833786506 0 -0.88167788970270344 1 I I #
face $-1 $-1 $155 $21 $-1 $344 reversed single #
loop $-1 $-1 $245 $140 #
plane-surface $-1 0 23.38583138814198 0 0 -1 0 0 0 -1 forward_v I I I I #
coedge $-1 $345 $243 $246 $346 forward $141 $-1 #
coedge $-1 $249 $143 $144 $237 reversed $87 $-1 #
coedge $-1 $243 $345 $143 $235 reversed $141 $-1 #
edge $-1 $250 -7.3370574791563472 $347 7.3370574791563472 $234 $348 forward 7 unknown #
coedge $-1 $145 $144 $345 $349 forward $57 $-1 #
edge $-1 $241 -43.269142735068819 $347 43.269142735068819 $233 $350 forward 7 unknown #
coedge $-1 $246 $245 $145 $239 reversed $230 $-1 #
edge $-1 $351 -43.269142735068819 $240 43.269142735068819 $238 $352 forward 7 unknown #
vertex $-1 $147 $353 #
vertex $-1 $252 $354 #
straight-curve $-1 43.269142735068819 0 -7.3370574791563472 0 -1 0 I I #
coedge $-1 $232 $234 $148 $244 reversed $141 $-1 #
edge $-1 $247 -23.38583138814198 $250 23.38583138814198 $243 $355 forward 7 unknown #
coedge $-1 $238 $149 $154 $253 forward $230 $-1 #
coedge $-1 $149 $238 $232 $346 reversed $230 $-1 #
vertex $-1 $150 $356 #
straight-curve $-1 0 23.38583138814198 7.3370574791563472 -1 0 0 I I #
coedge $-1 $151 $233 $153 $252 reversed $87 $-1 #
vertex $-1 $244 $357 #
straight-curve $-1 0 -23.38583138814198 7.3370574791563472 1 0 0 I I #
edge $-1 $156 -7.3370574791563472 $241 7.3370574791563472 $153 $358 forward 7 unknown #
edge $-1 $157 -7.3370574791563472 $240 7.3370574791563472 $154 $359 forward 7 unknown #
point $-1 43.269142735068819 -23.38583138814198 7.3370574791563472 #
point $-1 43.269142735068819 23.38583138814198 7.3370574791563472 #
face $-1 $-1 $360 $22 $-1 $361 reversed single #
loop $-1 $-1 $169 $159 #
plane-surface $-1 0 -23.38583138814198 0 0 1 0 0 0 1 forward_v I I I I #
coedge $-1 $362 $162 $263 $363 forward $95 $-1 #
coedge $-1 $162 $362 $364 $365 forward $95 $-1 #
edge $-1 $366 -43.269142735068819 $264 43.269142735068819 $162 $367 forward 7 unknown #
coedge $-1 $164 $163 $368 $369 reversed $61 $-1 #
coedge $-1 $165 $171 $259 $363 reversed $160 $-1 #
vertex $-1 $363 $370 #
straight-curve $-1 43.269142735068819 -13.944464533842462 -2.9185287395781736 0 0 1 I I #
coedge $-1 $368 $371 $167 $267 forward $360 $-1 #
edge $-1 $272 -14.053257407645869 $268 -4.6118905533463508 $266 $372 forward 7 unknown #
vertex $-1 $267 $373 #
straight-curve $-1 0 -13.944464533842462 -4.3370574791563472 -1 0 0 I I #
coedge $-1 $374 $169 $371 $375 forward $257 $-1 #
coedge $-1 $169 $374 $171 $274 reversed $257 $-1 #
vertex $-1 $375 $376 #
straight-curve $-1 0 -23.38583138814198 -4.3370574791563472 -1 0 0 I I #
edge $-1 $173 4.3370574791563472 $377 7.3370574791563472 $171 $378 forward 7 unknown #
point $-1 43.269142735068819 -13.944464533842462 -4.3370574791563472 #
point $-1 43.269142735068819 -23.38583138814198 -4.3370574791563472 #
face $-1 $-1 $291 $23 $-1 $379 reversed single #
loop $-1 $-1 $283 $175 #
plane-surface $-1 -43.269142735068819 0 0 1 0 0 0 0 -1 forward_v I I I I #
coedge $-1 $380 $381 $178 $282 forward $176 $-1 #
coedge $-1 $179 $178 $186 $296 reversed $65 $-1 #
edge $-1 $382 -43.269142735068819 $285 43.269142735068819 $280 $383 forward 7 unknown #
coedge $-1 $384 $180 $182 $288 forward $278 $-1 #
coedge $-1 $180 $384 $380 $385 reversed $278 $-1 #
vertex $-1 $385 $386 #
vertex $-1 $288 $387 #
straight-curve $-1 -43.269142735068819 13.944464533842464 -2.9185287395781736 0 0 1 I I #
edge $-1 $286 4.6118905533463526 $292 14.053257407645869 $283 $388 forward 7 unknown #
coedge $-1 $389 $183 $187 $297 forward $291 $-1 #
coedge $-1 $183 $389 $384 $390 reversed $291 $-1 #
loop $-1 $-1 $183 $277 #
vertex $-1 $390 $391 #
straight-curve $-1 0 23.38583138814198 -4.3370574791563472 1 0 0 I I #
straight-curve $-1 0 13.944464533842464 -4.3370574791563472 1 0 0 I I #
coedge $-1 $187 $186 $381 $392 reversed $103 $-1 #
edge $-1 $189 1.4185287395781736 $382 4.4185287395781732 $186 $393 forward 7 unknown #
edge $-1 $188 4.3370574791563472 $394 7.3370574791563472 $187 $395 forward 7 unknown #
point $-1 43.269142735068819 23.38583138814198 -4.3370574791563472 #
point $-1 43.269142735068819 13.944464533842464 -4.3370574791563472 #
loop $-1 $-1 $199 $191 #
plane-surface $-1 0 0 7.3370574791563472 0 0 1 1 0 0 forward_v I I I I #
coedge $-1 $303 $194 $196 $307 reversed $111 $-1 #
coedge $-1 $194 $302 $396 $397 reversed $111 $-1 #
coedge $-1 $202 $197 $194 $305 forward $192 $-1 #
edge $-1 $308 -34.135465806421273 $398 -28.538419851694673 $304 $399 forward 7 unknown #
coedge $-1 $196 $195 $311 $400 reversed $69 $-1 #
edge $-1 $401 -9.5222632098904452 $308 0 $302 $402 forward 7 unknown #
vertex $-1 $198 $403 #
straight-curve $-1 -43.269142735068819 5.3769641852511683 1.7400115244297458 0 -1 0 I I #
coedge $-1 $396 $199 $202 $315 forward $300 $-1 #
coedge $-1 $199 $396 $306 $400 forward $300 $-1 #
vertex $-1 $200 $404 #
straight-curve $-1 -47.067535671468107 13.94446453384246 7.3370574791563499 -1 0 0 I I #
straight-curve $-1 -43.269142735068819 13.94446453384246 1.7400115244297467 0.80901698891910034 0 0.5877852598018023 I I #
edge $-1 $203 -13.94446453384246 $398 -7.5633922071622131 $202 $405 forward 7 unknown #
point $-1 -43.269142735068819 13.94446453384246 7.3370574791563472 #
point $-1 -43.269142735068819 13.94446453384246 1.7400115244297467 #
edge $-1 $406 1 $406 0 $206 $-1 forward 7 unknown #
vertex $-1 $207 $407 #
ellipse-curve $-1 -37.843675348251359 10.753928370502344 2.3726172422198899 -0.5877852598018023 0 0.80901698891910034 1.2135254833786506 0 0.88167788970270344 1 I I #
point $-1 -38.203780896809818 10.753928370502344 5.4202123914957498 #
loop $-1 $-1 $218 $210 #
plane-surface $-1 43.269142735068819 0 0 -1 0 0 0 0 1 forward_v I I I I #
coedge $-1 $325 $213 $215 $329 reversed $126 $-1 #
coedge $-1 $213 $324 $408 $409 reversed $126 $-1 #
coedge $-1 $221 $216 $213 $327 forward $211 $-1 #
edge $-1 $330 23.503405922476137 $410 31.207078632236854 $326 $411 forward 7 unknown #
coedge $-1 $215 $214 $333 $412 reversed $78 $-1 #
edge $-1 $413 -86.538285470137623 $330 -77.016022260247169 $324 $414 forward 7 unknown #
vertex $-1 $217 $415 #
straight-curve $-1 35.565470025308102 5.3769641852511683 7.3370574791563463 0 -1 0 I I #
coedge $-1 $408 $218 $221 $337 reversed $322 $-1 #
coedge $-1 $218 $408 $328 $412 forward $322 $-1 #
vertex $-1 $219 $416 #
straight-curve $-1 43.269142735068819 13.94446453384246 61.308441634784707 0 0 1 I I #
straight-curve $-1 -26.741800402203467 13.94446453384246 52.605940132297121 0.80901698891910034 0 -0.5877852598018023 I I #
edge $-1 $410 7.5633922071622131 $222 13.94446453384246 $332 $417 forward 7 unknown #
point $-1 43.269142735068819 13.94446453384246 7.3370574791563472 #
point $-1 35.565470025308102 13.94446453384246 7.3370574791563499 #
edge $-1 $418 1 $418 0 $225 $-1 forward 7 unknown #
vertex $-1 $226 $419 #
ellipse-curve $-1 37.843675348251359 10.753928370502344 2.3726172422198863 0.5877852598018023 0 0.80901698891910034 1.2135254833786506 0 -0.88167788970270344 1 I I #
point $-1 40.630831863567117 10.753928370502344 3.6568566120903396 #
plane-surface $-1 43.269142735068819 0 0 -1 0 0 0 0 1 forward_v I I I I #
coedge $-1 $234 $232 $236 $349 reversed $141 $-1 #
edge $-1 $247 -7.3370574791563472 $351 7.3370574791563472 $246 $420 forward 7 unknown #
vertex $-1 $349 $421 #
straight-curve $-1 -43.269142735068819 -23.38583138814198 0 0 0 -1 I I #
edge $-1 $347 -23.38583138814198 $351 23.38583138814198 $345 $422 forward 7 unknown #
straight-curve $-1 0 -23.38583138814198 -7.3370574791563472 -1 0 0 I I #
vertex $-1 $239 $423 #
straight-curve $-1 0 23.38583138814198 -7.3370574791563472 1 0 0 I I #
point $-1 43.269142735068819 23.38583138814198 -7.3370574791563472 #
point $-1 43.269142735068819 -23.38583138814198 -7.3370574791563472 #
straight-curve $-1 -43.269142735068819 0 7.3370574791563472 0 -1 0 I I #
point $-1 -43.269142735068819 23.38583138814198 7.3370574791563472 #
point $-1 -43.269142735068819 -23.38583138814198 7.3370574791563472 #
straight-curve $-1 43.269142735068819 -23.38583138814198 0 0 0 -1 I I #
straight-curve $-1 43.269142735068819 23.38583138814198 0 0 0 -1 I I #
loop $-1 $-1 $368 $256 #
plane-surface $-1 -43.269142735068819 0 0 1 0 0 0 0 -1 forward_v I I I I #
coedge $-1 $260 $259 $374 $424 forward $95 $-1 #
edge $-1 $264 13.944464533842462 $377 23.38583138814198 $263 $425 forward 7 unknown #
coedge $-1 $371 $368 $260 $365 reversed $360 $-1 #
edge $-1 $426 -23.38583138814198 $366 -13.944464533842462 $364 $427 forward 7 unknown #
vertex $-1 $369 $428 #
straight-curve $-1 0 -13.944464533842462 -7.3370574791563472 1 0 0 I I #
coedge $-1 $364 $266 $262 $369 forward $360 $-1 #
edge $-1 $268 1.4185287395781736 $366 4.4185287395781732 $368 $429 forward 7 unknown #
point $-1 43.269142735068819 -13.944464533842462 -7.3370574791563472 #
coedge $-1 $266 $364 $270 $375 reversed $360 $-1 #
straight-curve $-1 -43.269142735068819 -9.332573980496111 -4.3370574791563472 0 1 0 I I #
point $-1 -43.269142735068819 -13.944464533842462 -4.3370574791563472 #
coedge $-1 $271 $270 $362 $424 reversed $257 $-1 #
edge $-1 $272 4.3370574791563472 $426 7.3370574791563472 $371 $430 forward 7 unknown #
point $-1 -43.269142735068819 -23.38583138814198 -4.3370574791563472 #
vertex $-1 $274 $431 #
straight-curve $-1 43.269142735068819 -23.38583138814198 0 0 0 -1 I I #
plane-surface $-1 0 23.38583138814198 0 0 -1 0 0 0 -1 forward_v I I I I #
coedge $-1 $432 $280 $284 $385 forward $176 $-1 #
coedge $-1 $280 $432 $295 $392 forward $176 $-1 #
vertex $-1 $282 $433 #
straight-curve $-1 0 13.944464533842464 -7.3370574791563472 -1 0 0 I I #
coedge $-1 $284 $283 $290 $390 forward $278 $-1 #
edge $-1 $285 13.944464533842464 $434 23.38583138814198 $284 $435 forward 7 unknown #
point $-1 -43.269142735068819 13.944464533842464 -7.3370574791563472 #
point $-1 -43.269142735068819 13.944464533842464 -4.3370574791563472 #
straight-curve $-1 -43.269142735068819 9.332573980496111 -4.3370574791563472 0 1 0 I I #
coedge $-1 $290 $289 $432 $436 reversed $291 $-1 #
edge $-1 $292 4.3370574791563472 $434 7.3370574791563472 $290 $437 forward 7 unknown #
point $-1 -43.269142735068819 23.38583138814198 -4.3370574791563472 #
edge $-1 $394 -23.38583138814198 $382 -13.944464533842464 $295 $438 forward 7 unknown #
straight-curve $-1 43.269142735068819 13.944464533842464 -2.9185287395781736 0 0 -1 I I #
vertex $-1 $392 $439 #
straight-curve $-1 43.269142735068819 23.38583138814198 0 0 0 -1 I I #
coedge $-1 $311 $310 $303 $397 forward $300 $-1 #
edge $-1 $398 3.7983929363992885 $401 11.502065646159984 $396 $440 forward 7 unknown #
vertex $-1 $397 $441 #
straight-curve $-1 -43.269142735068819 7.5633922071622131 35.87547733085102 0 0 1 I I #
edge $-1 $401 2.1864280219110448 $312 8.5675003485912917 $311 $442 forward 7 unknown #
vertex $-1 $400 $443 #
straight-curve $-1 -43.269142735068819 7.5633922071622131 1.7400115244297467 -0.80901698891910034 0 -0.5877852598018023 I I #
point $-1 -43.269142735068819 7.5633922071622131 1.7400115244297467 #
point $-1 -35.565470025308123 13.94446453384246 7.3370574791563472 #
straight-curve $-1 -43.269142735068819 0 7.3370574791563472 0 -1 0 I I #
vertex $-1 $318 $444 #
point $-1 -36.630149864872713 10.753928370502344 3.2542951319225932 #
coedge $-1 $333 $332 $325 $409 forward $322 $-1 #
edge $-1 $410 53.971384155628357 $413 59.568430110354967 $408 $445 forward 7 unknown #
vertex $-1 $337 $446 #
straight-curve $-1 12.062064102831965 7.5633922071622131 7.3370574791563499 1 0 0 I I #
edge $-1 $413 2.1864280219110448 $334 8.5675003485912917 $333 $447 forward 7 unknown #
vertex $-1 $412 $448 #
straight-curve $-1 -26.741800402203467 7.5633922071622131 52.605940132297121 -0.80901698891910034 0 0.5877852598018023 I I #
point $-1 35.565470025308102 7.5633922071622131 7.3370574791563499 #
point $-1 43.269142735068812 13.94446453384246 1.7400115244297396 #
straight-curve $-1 43.269142735068819 0 7.3370574791563472 0 1 0 I I #
vertex $-1 $340 $449 #
point $-1 39.057200831630013 10.753928370502344 1.490939352517183 #
straight-curve $-1 -43.269142735068819 23.38583138814198 0 0 0 -1 I I #
point $-1 -43.269142735068819 -23.38583138814198 -7.3370574791563472 #
straight-curve $-1 -43.269142735068819 0 -7.3370574791563472 0 1 0 I I #
point $-1 -43.269142735068819 23.38583138814198 -7.3370574791563472 #
edge $-1 $377 -43.269142735068819 $426 43.269142735068819 $374 $450 forward 7 unknown #
straight-curve $-1 43.269142735068819 0 -7.3370574791563472 0 -1 0 I I #
vertex $-1 $365 $451 #
straight-curve $-1 -43.269142735068819 0 -7.3370574791563472 0 1 0 I I #
point $-1 -43.269142735068819 -13.944464533842462 -7.3370574791563472 #
straight-curve $-1 -43.269142735068819 -13.944464533842462 -2.9185287395781736 0 0 -1 I I #
straight-curve $-1 -43.269142735068819 -23.38583138814198 0 0 0 -1 I I #
point $-1 43.269142735068819 -23.38583138814198 -7.3370574791563472 #
coedge $-1 $381 $380 $389 $436 forward $176 $-1 #
point $-1 43.269142735068819 13.944464533842464 -7.3370574791563472 #
vertex $-1 $436 $452 #
straight-curve $-1 -43.269142735068819 0 -7.3370574791563472 0 1 0 I I #
edge $-1 $434 -43.269142735068819 $394 43.269142735068819 $389 $453 forward 7 unknown #
straight-curve $-1 -43.269142735068819 23.38583138814198 0 0 0 -1 I I #
straight-curve $-1 43.269142735068819 0 -7.3370574791563472 0 -1 0 I I #
point $-1 43.269142735068819 23.38583138814198 -7.3370574791563472 #
straight-curve $-1 -47.067535671468107 7.5633922071622131 7.3370574791563499 1 0 0 I I #
point $-1 -43.269142735068819 7.5633922071622131 7.3370574791563472 #
straight-curve $-1 -35.565470025308123 5.3769641852511683 7.3370574791563472 0 1 0 I I #
point $-1 -35.565470025308123 7.5633922071622131 7.3370574791563472 #
point $-1 -36.961997458548659 10.753928370502344 1.1590917588412393 #
straight-curve $-1 43.269142735068819 7.5633922071622131 61.308441634784707 0 0 -1 I I #
point $-1 43.269142735068819 7.5633922071622131 7.3370574791563472 #
straight-curve $-1 43.269142735068819 5.3769641852511683 1.7400115244297325 0 1 0 I I #
point $-1 43.269142735068812 7.5633922071622131 1.7400115244297396 #
point $-1 36.961997458548659 10.753928370502344 1.1590917588412357 #
straight-curve $-1 0 -23.38583138814198 -7.3370574791563472 -1 0 0 I I #
point $-1 -43.269142735068819 -23.38583138814198 -7.3370574791563472 #
point $-1 -43.269142735068819 23.38583138814198 -7.3370574791563472 #
straight-curve $-1 0 23.38583138814198 -7.3370574791563472 1 0 0 I I #
End-of-ACIS-data 