500 0 7 0           
7 Unknown 11 ACIS 5.0 NT 24 Fri Mar 26 16:33:17 1999 
-1 9.9999999999999995e-007 1e-010 
body $-1 $7 $-1 $8 #
body $-1 $9 $-1 $10 #
body $-1 $11 $-1 $12 #
body $-1 $13 $-1 $14 #
body $-1 $15 $-1 $16 #
body $-1 $17 $-1 $18 #
body $-1 $19 $-1 $20 #
lump $-1 $-1 $21 $0 #
transform $-1 1 0 0 0 1 0 0 0 1 57.394329660939363 35.602806014839729 7.9641544092401579 1 rotate no_reflect no_shear #
lump $-1 $-1 $22 $1 #
transform $-1 1 0 0 0 1 0 0 0 1 57.394329660939363 35.602806014839729 7.9641544092401579 1 rotate no_reflect no_shear #
lump $-1 $-1 $23 $2 #
transform $-1 1 0 0 0 1 0 0 0 1 57.394329660939363 35.602806014839729 7.9641544092401579 1 rotate no_reflect no_shear #
lump $-1 $-1 $24 $3 #
transform $-1 1 0 0 0 1 0 0 0 1 57.394329660939363 35.602806014839729 7.9641544092401579 1 rotate no_reflect no_shear #
lump $-1 $-1 $25 $4 #
transform $-1 1 0 0 0 1 0 0 0 1 57.394329660939363 35.602806014839729 7.9641544092401579 1 rotate no_reflect no_shear #
lump $-1 $-1 $26 $5 #
transform $-1 1 0 0 0 1 0 0 0 1 57.394329660939363 35.602806014839729 7.9641544092401579 1 rotate no_reflect no_shear #
lump $-1 $-1 $27 $6 #
transform $-1 1 0 0 0 1 0 0 0 1 57.394329660939363 35.602806014839729 7.9641544092401579 1 rotate no_reflect no_shear #
shell $-1 $-1 $-1 $28 $-1 $7 #
shell $-1 $-1 $-1 $29 $-1 $9 #
shell $-1 $-1 $-1 $30 $-1 $11 #
shell $-1 $-1 $-1 $31 $-1 $13 #
shell $-1 $-1 $-1 $32 $-1 $15 #
shell $-1 $-1 $-1 $33 $-1 $17 #
shell $-1 $-1 $-1 $34 $-1 $19 #
face $-1 $35 $36 $21 $-1 $37 forward single #
face $-1 $38 $39 $22 $-1 $40 reversed single #
face $-1 $41 $42 $23 $-1 $43 reversed single #
face $-1 $44 $45 $24 $-1 $46 reversed single #
face $-1 $47 $48 $25 $-1 $49 forward single #
face $-1 $50 $51 $26 $-1 $52 reversed single #
face $-1 $53 $54 $27 $-1 $55 forward single #
face $-1 $56 $57 $21 $-1 $58 reversed single #
loop $-1 $-1 $59 $28 #
plane-surface $-1 0 0 7.9641544092401579 0 0 1 1 0 0 forward_v I I I I #
face $-1 $60 $61 $22 $-1 $62 reversed single #
loop $-1 $-1 $63 $29 #
plane-surface $-1 -53.367333624068188 0 3.3819522724671538 0 0 1 1 0 0 forward_v I I I I #
face $-1 $64 $65 $23 $-1 $66 reversed single #
loop $-1 $-1 $67 $30 #
plane-surface $-1 53.367333624068195 0 3.3819522724671538 0 0 1 1 0 0 forward_v I I I I #
face $-1 $68 $69 $24 $-1 $70 reversed single #
loop $-1 $-1 $71 $31 #
plane-surface $-1 -36.513837462025258 -9.2083368649619928 58.649671155409521 0 0.77714596973225614 0.62932038083071107 1 0 0 forward_v I I I I #
face $-1 $72 $73 $25 $-1 $74 forward single #
loop $-1 $75 $76 $32 #
cone-surface $-1 -36.513837462025258 32.446758402631346 4.6077747181005098 0 -0.77714596973225614 -0.62932038083071107 1 0 0 1 I I 0 1 1 forward I I I I #
face $-1 $77 $78 $26 $-1 $79 reversed single #
loop $-1 $-1 $80 $33 #
plane-surface $-1 -23.687337336853503 -124.81034997780675 75.551359543716941 -1 0 0 0 -0.77714596973225614 0.62932038083071107 forward_v I I I I #
face $-1 $81 $82 $27 $-1 $83 forward single #
loop $-1 $84 $85 $34 #
cone-surface $-1 -36.513837462025258 -32.446758402631353 4.6077747181005098 0 0.77714596973225614 -0.62932038083071107 1 0 0 1 I I 0 1 1 forward I I I I #
face $-1 $86 $87 $21 $-1 $88 reversed single #
loop $-1 $-1 $89 $35 #
plane-surface $-1 0 0 -7.9641544092401579 0 0 1 1 0 0 forward_v I I I I #
coedge $-1 $90 $91 $92 $93 forward $36 $-1 #
face $-1 $94 $95 $22 $-1 $96 reversed single #
loop $-1 $-1 $97 $38 #
plane-surface $-1 -49.340337587197013 0 5.673053340853655 -1 0 0 0 0 1 forward_v I I I I #
coedge $-1 $98 $99 $100 $101 forward $39 $-1 #
face $-1 $102 $103 $23 $-1 $104 forward single #
loop $-1 $-1 $105 $41 #
plane-surface $-1 49.34033758719702 0 5.673053340853655 1 0 0 0 0 -1 forward_v I I I I #
coedge $-1 $106 $107 $108 $109 reversed $42 $-1 #
face $-1 $110 $111 $24 $-1 $112 reversed single #
loop $-1 $-1 $113 $44 #
plane-surface $-1 -23.687337336853503 79.99920709800503 130.88851395490099 -1 0 0 0 0.77714596973225614 0.62932038083071107 forward_v I I I I #
coedge $-1 $114 $115 $116 $117 reversed $45 $-1 #
face $-1 $-1 $118 $25 $-1 $119 forward single #
loop $-1 $120 $121 $47 #
cone-surface $-1 -36.513837462025258 30.785548709586919 3.26255366905285 0 -0.77714596973225614 -0.62932038083071107 0.5 0 0 1 I I -0.70710678118654779 0.70710678118654713 0.5 forward I I I I #
loop $-1 $-1 $122 $32 #
coedge $-1 $76 $76 $123 $124 reversed $48 $-1 #
face $-1 $125 $126 $26 $-1 $127 forward single #
loop $-1 $-1 $128 $50 #
plane-surface $-1 -36.513837462025258 -35.602806014839729 3.3125167442254764 0 -0.77714596973225614 0.62932038083071107 1 0 0 forward_v I I I I #
coedge $-1 $129 $130 $131 $132 reversed $51 $-1 #
face $-1 $-1 $133 $27 $-1 $134 forward single #
loop $-1 $135 $136 $53 #
cone-surface $-1 -36.513837462025258 -30.785548709586926 3.26255366905285 0 0.77714596973225614 -0.62932038083071107 0.5 0 0 1 I I -0.70710678118654779 0.70710678118654713 0.5 forward I I I I #
loop $-1 $-1 $137 $34 #
coedge $-1 $85 $85 $138 $139 reversed $54 $-1 #
face $-1 $140 $141 $21 $-1 $142 reversed single #
loop $-1 $-1 $143 $56 #
plane-surface $-1 0 -35.602806014839729 0 0 1 0 0 0 1 forward_v I I I I #
coedge $-1 $144 $145 $146 $147 forward $57 $-1 #
coedge $-1 $148 $59 $149 $150 forward $36 $-1 #
coedge $-1 $59 $148 $151 $152 forward $36 $-1 #
coedge $-1 $153 $154 $59 $93 reversed $155 $-1 #
edge $-1 $156 -35.602806014839729 $157 35.602806014839729 $92 $158 forward 7 unknown #
face $-1 $159 $160 $22 $-1 $161 reversed single #
loop $-1 $-1 $162 $60 #
plane-surface $-1 0 35.602806014839729 0 0 -1 0 0 0 -1 forward_v I I I I #
coedge $-1 $100 $163 $164 $165 reversed $61 $-1 #
coedge $-1 $166 $63 $167 $168 reversed $39 $-1 #
coedge $-1 $63 $166 $169 $170 reversed $39 $-1 #
coedge $-1 $171 $97 $63 $101 reversed $61 $-1 #
edge $-1 $172 -35.602806014839729 $173 35.602806014839729 $100 $174 forward 7 unknown #
face $-1 $175 $176 $23 $-1 $177 reversed single #
loop $-1 $-1 $178 $64 #
plane-surface $-1 0 0 7.9641544092401579 0 0 1 1 0 0 forward_v I I I I #
coedge $-1 $179 $180 $181 $182 reversed $65 $-1 #
coedge $-1 $183 $67 $184 $185 reversed $42 $-1 #
coedge $-1 $67 $183 $186 $187 reversed $42 $-1 #
coedge $-1 $188 $189 $67 $109 forward $190 $-1 #
edge $-1 $191 -35.602806014839729 $192 35.602806014839729 $108 $193 forward 7 unknown #
face $-1 $194 $195 $24 $-1 $196 forward single #
loop $-1 $-1 $197 $68 #
plane-surface $-1 0 35.602806014839729 0 0 -1 0 0 0 -1 forward_v I I I I #
coedge $-1 $198 $199 $200 $201 reversed $69 $-1 #
coedge $-1 $202 $71 $203 $204 reversed $45 $-1 #
coedge $-1 $71 $202 $198 $205 forward $45 $-1 #
coedge $-1 $200 $206 $71 $117 forward $195 $-1 #
edge $-1 $207 -31.083418856184384 $208 -5.4304186058408739 $116 $209 forward 7 unknown #
loop $-1 $-1 $123 $72 #
plane-surface $-1 -36.513837462025258 -9.2083368649619928 58.649671155409521 0 0.77714596973225614 0.62932038083071107 1 0 0 forward_v I I I I #
loop $-1 $-1 $210 $47 #
coedge $-1 $121 $121 $122 $211 reversed $73 $-1 #
coedge $-1 $122 $122 $121 $211 forward $75 $-1 #
coedge $-1 $123 $123 $76 $124 forward $118 $-1 #
edge $-1 $212 -6.602491500234327e-016 $212 6.2831853071795996 $123 $213 forward 7 unknown #
face $-1 $214 $215 $26 $-1 $216 forward single #
loop $-1 $-1 $131 $77 #
plane-surface $-1 0 0 7.9641544092401579 0 0 1 1 0 0 forward_v I I I I #
coedge $-1 $217 $218 $219 $220 reversed $78 $-1 #
coedge $-1 $130 $80 $221 $222 reversed $51 $-1 #
coedge $-1 $80 $129 $217 $223 reversed $51 $-1 #
coedge $-1 $219 $224 $80 $132 forward $126 $-1 #
edge $-1 $225 26.802368974063647 $226 30.569190782123801 $131 $227 forward 7 unknown #
loop $-1 $-1 $138 $81 #
plane-surface $-1 -36.513837462025258 -35.602806014839729 3.3125167442254764 0 -0.77714596973225614 0.62932038083071107 1 0 0 forward_v I I I I #
loop $-1 $-1 $228 $53 #
coedge $-1 $136 $136 $137 $229 reversed $82 $-1 #
coedge $-1 $137 $137 $136 $229 forward $84 $-1 #
coedge $-1 $138 $138 $85 $139 forward $133 $-1 #
edge $-1 $230 -1.380488558546233e-015 $230 6.2831853071795987 $138 $231 forward 7 unknown #
face $-1 $232 $233 $21 $-1 $234 reversed single #
loop $-1 $-1 $235 $86 #
plane-surface $-1 -57.394329660939363 0 0 1 0 0 0 0 -1 forward_v I I I I #
coedge $-1 $236 $151 $237 $238 forward $87 $-1 #
coedge $-1 $239 $89 $236 $240 forward $57 $-1 #
coedge $-1 $89 $239 $241 $242 forward $57 $-1 #
coedge $-1 $154 $153 $89 $147 reversed $155 $-1 #
edge $-1 $243 -35.602806014839729 $244 35.602806014839729 $146 $245 forward 7 unknown #
coedge $-1 $91 $90 $246 $247 forward $36 $-1 #
coedge $-1 $248 $249 $90 $150 reversed $233 $-1 #
edge $-1 $157 -57.394329660939363 $250 57.394329660939363 $149 $251 forward 7 unknown #
coedge $-1 $143 $252 $91 $152 reversed $87 $-1 #
edge $-1 $253 -57.394329660939363 $156 57.394329660939363 $151 $254 forward 7 unknown #
coedge $-1 $146 $92 $252 $255 forward $155 $-1 #
coedge $-1 $92 $146 $248 $256 reversed $155 $-1 #
loop $-1 $-1 $153 $232 #
vertex $-1 $93 $257 #
vertex $-1 $93 $258 #
straight-curve $-1 57.394329660939363 0 7.9641544092401579 0 1 0 I I #
face $-1 $259 $260 $22 $-1 $261 forward single #
loop $-1 $-1 $262 $94 #
plane-surface $-1 -57.394329660939363 0 0 1 0 0 0 0 -1 forward_v I I I I #
coedge $-1 $169 $263 $171 $264 forward $95 $-1 #
coedge $-1 $97 $171 $265 $266 reversed $61 $-1 #
coedge $-1 $267 $167 $97 $165 forward $268 $-1 #
edge $-1 $173 0.54542560204032631 $269 5.1276277388133291 $164 $270 forward 7 unknown #
coedge $-1 $99 $98 $262 $271 reversed $39 $-1 #
coedge $-1 $164 $272 $98 $168 forward $268 $-1 #
edge $-1 $273 -30.710662848905269 $173 -22.656670775162919 $167 $274 forward 7 unknown #
coedge $-1 $275 $162 $99 $170 forward $95 $-1 #
edge $-1 $172 22.656670775162919 $276 30.710662848905269 $169 $277 forward 7 unknown #
coedge $-1 $163 $100 $162 $264 reversed $61 $-1 #
vertex $-1 $170 $278 #
vertex $-1 $168 $279 #
straight-curve $-1 -49.340337587197013 0 3.3819522724671538 0 -1 0 I I #
face $-1 $280 $281 $23 $-1 $282 reversed single #
loop $-1 $-1 $283 $102 #
plane-surface $-1 0 -35.602806014839729 0 0 1 0 0 0 1 forward_v I I I I #
coedge $-1 $284 $285 $180 $286 forward $103 $-1 #
coedge $-1 $287 $105 $183 $288 reversed $65 $-1 #
coedge $-1 $105 $287 $178 $286 reversed $65 $-1 #
coedge $-1 $289 $186 $105 $182 forward $281 $-1 #
edge $-1 $290 0.54542560204032631 $291 5.1276277388133291 $181 $292 forward 7 unknown #
coedge $-1 $107 $106 $179 $288 forward $42 $-1 #
coedge $-1 $293 $283 $106 $185 forward $176 $-1 #
edge $-1 $294 22.656670775162922 $191 30.710662848905272 $184 $295 forward 7 unknown #
coedge $-1 $181 $296 $107 $187 forward $281 $-1 #
edge $-1 $192 -30.710662848905272 $290 -22.656670775162922 $186 $297 forward 7 unknown #
coedge $-1 $298 $108 $296 $299 reversed $190 $-1 #
coedge $-1 $108 $298 $293 $300 forward $190 $-1 #
loop $-1 $-1 $108 $280 #
vertex $-1 $185 $301 #
vertex $-1 $109 $302 #
straight-curve $-1 57.394329660939363 0 3.3819522724671538 0 1 0 I I #
face $-1 $-1 $303 $24 $-1 $304 forward single #
loop $-1 $-1 $200 $110 #
plane-surface $-1 0 0 7.9641544092401579 0 0 1 1 0 0 forward_v I I I I #
coedge $-1 $305 $306 $199 $307 forward $111 $-1 #
coedge $-1 $199 $113 $115 $205 reversed $69 $-1 #
coedge $-1 $113 $198 $197 $307 reversed $69 $-1 #
coedge $-1 $308 $116 $113 $201 forward $195 $-1 #
edge $-1 $208 -8.1636193422229226 $309 -4.3967975341627863 $200 $310 forward 7 unknown #
coedge $-1 $115 $114 $305 $311 reversed $45 $-1 #
coedge $-1 $312 $313 $114 $204 forward $303 $-1 #
edge $-1 $314 -47.722832486027684 $207 -41.737293287236952 $203 $315 forward 7 unknown #
edge $-1 $316 -71.205612029679429 $208 -65.220072830888697 $198 $317 forward 7 unknown #
coedge $-1 $116 $308 $312 $318 forward $195 $-1 #
vertex $-1 $204 $319 #
vertex $-1 $117 $320 #
straight-curve $-1 -18.256918731012629 31.835984206779578 7.9641544092401588 1 0 0 I I #
coedge $-1 $210 $210 $-1 $321 reversed $120 $-1 #
edge $-1 $322 0 $322 6.2831853071796004 $121 $323 forward 7 unknown #
vertex $-1 $124 $324 #
ellipse-curve $-1 -36.513837462025258 33.719395110809657 5.6383355767328247 0 0.77714596973225614 0.62932038083071107 1 0 0 1 I I #
face $-1 $-1 $325 $26 $-1 $326 reversed single #
loop $-1 $-1 $327 $125 #
plane-surface $-1 -49.340337587197013 0 5.673053340853655 -1 0 0 0 0 1 forward_v I I I I #
coedge $-1 $328 $128 $130 $223 forward $78 $-1 #
coedge $-1 $128 $328 $327 $329 forward $78 $-1 #
coedge $-1 $330 $131 $128 $220 forward $126 $-1 #
edge $-1 $226 5.4304186058408739 $331 31.083418856184384 $219 $332 forward 7 unknown #
coedge $-1 $333 $334 $129 $222 forward $325 $-1 #
edge $-1 $335 -34.463163027632994 $225 -29.811525362618312 $221 $336 forward 7 unknown #
edge $-1 $226 -5.9855391987907662 $335 0 $130 $337 forward 7 unknown #
coedge $-1 $131 $330 $333 $338 forward $126 $-1 #
vertex $-1 $222 $339 #
vertex $-1 $132 $340 #
straight-curve $-1 -23.687337336853503 -62.405174988903376 7.9641544092401588 0 1 0 I I #
coedge $-1 $228 $228 $-1 $341 reversed $135 $-1 #
edge $-1 $342 0 $342 6.2831853071796004 $136 $343 forward 7 unknown #
vertex $-1 $139 $344 #
ellipse-curve $-1 -36.513837462025258 -33.71939511080965 5.6383355767328158 0 -0.77714596973225614 0.62932038083071107 1 0 0 1 I I #
face $-1 $-1 $155 $21 $-1 $345 reversed single #
loop $-1 $-1 $248 $140 #
plane-surface $-1 0 35.602806014839729 0 0 -1 0 0 0 -1 forward_v I I I I #
coedge $-1 $346 $246 $249 $347 forward $141 $-1 #
coedge $-1 $252 $143 $144 $240 reversed $87 $-1 #
coedge $-1 $246 $346 $143 $238 reversed $141 $-1 #
edge $-1 $253 -7.9641544092401579 $348 7.9641544092401579 $237 $349 forward 7 unknown #
coedge $-1 $145 $144 $346 $350 forward $57 $-1 #
edge $-1 $244 -57.394329660939363 $348 57.394329660939363 $236 $351 forward 7 unknown #
coedge $-1 $249 $248 $145 $242 reversed $233 $-1 #
edge $-1 $352 -57.394329660939363 $243 57.394329660939363 $241 $353 forward 7 unknown #
vertex $-1 $147 $354 #
vertex $-1 $255 $355 #
straight-curve $-1 57.394329660939363 0 -7.9641544092401579 0 -1 0 I I #
coedge $-1 $235 $237 $148 $247 reversed $141 $-1 #
edge $-1 $250 -35.602806014839729 $253 35.602806014839729 $246 $356 forward 7 unknown #
coedge $-1 $241 $149 $154 $256 forward $233 $-1 #
coedge $-1 $149 $241 $235 $347 reversed $233 $-1 #
vertex $-1 $150 $357 #
straight-curve $-1 0 35.602806014839729 7.9641544092401579 -1 0 0 I I #
coedge $-1 $151 $236 $153 $255 reversed $87 $-1 #
vertex $-1 $247 $358 #
straight-curve $-1 0 -35.602806014839729 7.9641544092401579 1 0 0 I I #
edge $-1 $156 -7.9641544092401579 $244 7.9641544092401579 $153 $359 forward 7 unknown #
edge $-1 $157 -7.9641544092401579 $243 7.9641544092401579 $154 $360 forward 7 unknown #
point $-1 57.394329660939363 -35.602806014839729 7.9641544092401579 #
point $-1 57.394329660939363 35.602806014839729 7.9641544092401579 #
face $-1 $-1 $268 $22 $-1 $361 reversed single #
loop $-1 $-1 $265 $159 #
plane-surface $-1 0 0 7.9641544092401579 0 0 1 1 0 0 forward_v I I I I #
coedge $-1 $362 $363 $166 $271 forward $160 $-1 #
coedge $-1 $162 $275 $364 $365 reversed $95 $-1 #
edge $-1 $366 -5.1276277388133291 $172 -0.54542560204032631 $162 $367 forward 7 unknown #
coedge $-1 $364 $368 $163 $266 forward $260 $-1 #
edge $-1 $269 -35.602806014839729 $366 35.602806014839729 $265 $369 forward 7 unknown #
coedge $-1 $272 $164 $368 $370 reversed $268 $-1 #
loop $-1 $-1 $164 $259 #
vertex $-1 $165 $371 #
straight-curve $-1 -49.340337587197013 -35.602806014839729 2.8365266704268275 0 0 1 I I #
edge $-1 $276 -35.602806014839729 $273 35.602806014839729 $262 $372 forward 7 unknown #
coedge $-1 $167 $267 $362 $373 forward $268 $-1 #
vertex $-1 $271 $374 #
straight-curve $-1 -26.683666812034094 -35.602806014839729 3.3819522724671538 1 0 0 I I #
coedge $-1 $263 $169 $363 $375 reversed $95 $-1 #
vertex $-1 $271 $376 #
straight-curve $-1 -26.683666812034094 35.602806014839729 3.3819522724671538 -1 0 0 I I #
point $-1 -49.340337587197013 35.602806014839729 3.3819522724671538 #
point $-1 -49.340337587197013 -35.602806014839729 3.3819522724671538 #
face $-1 $-1 $190 $23 $-1 $377 reversed single #
loop $-1 $-1 $181 $175 #
plane-surface $-1 0 35.602806014839729 0 0 -1 0 0 0 -1 forward_v I I I I #
coedge $-1 $184 $378 $287 $379 forward $176 $-1 #
coedge $-1 $380 $178 $378 $381 forward $103 $-1 #
coedge $-1 $178 $380 $289 $382 forward $103 $-1 #
edge $-1 $291 -35.602806014839729 $383 35.602806014839729 $178 $384 forward 7 unknown #
coedge $-1 $180 $179 $283 $379 reversed $65 $-1 #
edge $-1 $294 -35.602806014839729 $290 35.602806014839729 $179 $385 forward 7 unknown #
coedge $-1 $296 $181 $285 $382 reversed $281 $-1 #
vertex $-1 $187 $386 #
vertex $-1 $182 $387 #
straight-curve $-1 49.34033758719702 35.602806014839729 2.8365266704268275 0 0 1 I I #
coedge $-1 $378 $184 $189 $300 reversed $176 $-1 #
vertex $-1 $185 $388 #
straight-curve $-1 26.683666812034097 -35.602806014839729 3.3819522724671538 1 0 0 I I #
coedge $-1 $186 $289 $188 $299 forward $281 $-1 #
straight-curve $-1 26.683666812034097 35.602806014839729 3.3819522724671538 -1 0 0 I I #
coedge $-1 $189 $188 $380 $389 reversed $190 $-1 #
edge $-1 $390 -7.9641544092401579 $192 -3.3819522724671538 $188 $391 forward 7 unknown #
edge $-1 $392 -7.9641544092401579 $191 -3.3819522724671538 $189 $393 forward 7 unknown #
point $-1 57.39432966093937 -35.602806014839729 3.3819522724671538 #
point $-1 57.39432966093937 35.602806014839729 3.3819522724671538 #
loop $-1 $-1 $203 $194 #
plane-surface $-1 -49.340337587197013 0 5.673053340853655 -1 0 0 0 0 1 forward_v I I I I #
coedge $-1 $394 $197 $202 $311 forward $111 $-1 #
coedge $-1 $197 $394 $308 $395 reversed $111 $-1 #
edge $-1 $309 57.480102568210334 $316 62.131740233224996 $197 $396 forward 7 unknown #
coedge $-1 $206 $200 $306 $395 forward $195 $-1 #
vertex $-1 $395 $397 #
straight-curve $-1 -23.687337336853503 39.999603549002515 7.9641544092401588 0 1 0 I I #
edge $-1 $316 5.4304186058408739 $314 31.083418856184384 $305 $398 forward 7 unknown #
coedge $-1 $313 $203 $206 $318 reversed $303 $-1 #
coedge $-1 $203 $312 $394 $399 reversed $303 $-1 #
vertex $-1 $399 $400 #
straight-curve $-1 -49.340337587197013 5.5698549004125546 40.400123674949498 0 -0.62932038083071107 0.77714596973225614 I I #
vertex $-1 $311 $401 #
straight-curve $-1 -23.687337336853503 -9.2083368649619928 58.649671155409521 0 -0.62932038083071107 0.77714596973225614 I I #
edge $-1 $402 -35.602806014839729 $207 -31.835984206779592 $206 $403 forward 7 unknown #
point $-1 -49.340337587197013 31.835984206779592 7.9641544092401517 #
point $-1 -23.687337336853503 31.835984206779592 7.9641544092401517 #
edge $-1 $404 1 $404 0 $210 $-1 forward 7 unknown #
vertex $-1 $211 $405 #
ellipse-curve $-1 -36.513837462025258 31.174121694453046 3.5772138594682055 0 0.77714596973225614 0.62932038083071107 1 0 0 1 I I #
point $-1 -35.513837462025258 33.719395110809643 5.638335576732814 #
loop $-1 $-1 $221 $214 #
plane-surface $-1 0 -35.602806014839729 0 0 1 0 0 0 1 forward_v I I I I #
coedge $-1 $406 $407 $218 $329 reversed $215 $-1 #
coedge $-1 $218 $217 $334 $408 reversed $78 $-1 #
edge $-1 $409 0 $331 5.9855391987907662 $327 $410 forward 7 unknown #
coedge $-1 $224 $219 $407 $411 forward $126 $-1 #
vertex $-1 $411 $412 #
straight-curve $-1 -18.256918731012629 -31.835984206779575 7.9641544092401579 -1 0 0 I I #
coedge $-1 $413 $221 $224 $338 reversed $325 $-1 #
coedge $-1 $221 $413 $328 $408 forward $325 $-1 #
vertex $-1 $222 $414 #
straight-curve $-1 -23.687337336853503 -35.602806014839729 37.775679771858471 0 0 1 I I #
straight-curve $-1 -23.687337336853503 -35.602806014839729 3.3125167442254764 0 -0.62932038083071107 -0.77714596973225614 I I #
edge $-1 $415 -49.340337587197013 $225 -23.687337336853503 $333 $416 forward 7 unknown #
point $-1 -23.687337336853503 -35.602806014839729 7.9641544092401579 #
point $-1 -23.687337336853503 -31.835984206779575 7.9641544092401579 #
edge $-1 $417 1 $417 0 $228 $-1 forward 7 unknown #
vertex $-1 $229 $418 #
ellipse-curve $-1 -36.513837462025258 -31.174121694453053 3.5772138594682055 0 -0.77714596973225614 0.62932038083071107 1 0 0 1 I I #
point $-1 -35.513837462025258 -33.71939511080965 5.638335576732814 #
plane-surface $-1 57.394329660939363 0 0 -1 0 0 0 0 1 forward_v I I I I #
coedge $-1 $237 $235 $239 $350 reversed $141 $-1 #
edge $-1 $250 -7.9641544092401579 $352 7.9641544092401579 $249 $419 forward 7 unknown #
vertex $-1 $350 $420 #
straight-curve $-1 -57.394329660939363 -35.602806014839729 0 0 0 -1 I I #
edge $-1 $348 -35.602806014839729 $352 35.602806014839729 $346 $421 forward 7 unknown #
straight-curve $-1 0 -35.602806014839729 -7.9641544092401579 -1 0 0 I I #
vertex $-1 $242 $422 #
straight-curve $-1 0 35.602806014839729 -7.9641544092401579 1 0 0 I I #
point $-1 57.394329660939363 35.602806014839729 -7.9641544092401579 #
point $-1 57.394329660939363 -35.602806014839729 -7.9641544092401579 #
straight-curve $-1 -57.394329660939363 0 7.9641544092401579 0 -1 0 I I #
point $-1 -57.394329660939363 35.602806014839729 7.9641544092401579 #
point $-1 -57.394329660939363 -35.602806014839729 7.9641544092401579 #
straight-curve $-1 57.394329660939363 -35.602806014839729 0 0 0 -1 I I #
straight-curve $-1 57.394329660939363 35.602806014839729 0 0 0 -1 I I #
plane-surface $-1 0 -35.602806014839729 0 0 1 0 0 0 1 forward_v I I I I #
coedge $-1 $423 $262 $272 $373 reversed $160 $-1 #
coedge $-1 $262 $423 $275 $375 forward $160 $-1 #
coedge $-1 $424 $265 $263 $365 forward $260 $-1 #
edge $-1 $366 49.340337587197013 $425 57.394329660939363 $263 $426 forward 7 unknown #
vertex $-1 $365 $427 #
straight-curve $-1 -49.340337587197013 35.602806014839729 2.8365266704268275 0 0 -1 I I #
coedge $-1 $265 $424 $267 $370 forward $260 $-1 #
straight-curve $-1 -49.340337587197013 0 7.9641544092401579 0 1 0 I I #
edge $-1 $428 -57.394329660939363 $269 -49.340337587197013 $267 $429 forward 7 unknown #
point $-1 -49.340337587197013 -35.602806014839729 7.9641544092401562 #
straight-curve $-1 -57.394329660939363 0 3.3819522724671538 0 -1 0 I I #
edge $-1 $428 -7.9641544092401579 $273 -3.3819522724671538 $362 $430 forward 7 unknown #
point $-1 -57.394329660939363 -35.602806014839729 3.3819522724671538 #
edge $-1 $425 -7.9641544092401579 $276 -3.3819522724671538 $275 $431 forward 7 unknown #
point $-1 -57.394329660939363 35.602806014839729 3.3819522724671538 #
plane-surface $-1 57.394329660939363 0 0 -1 0 0 0 0 1 forward_v I I I I #
coedge $-1 $283 $293 $284 $381 reversed $176 $-1 #
edge $-1 $383 -5.1276277388133291 $294 -0.54542560204032631 $283 $432 forward 7 unknown #
coedge $-1 $285 $284 $298 $389 forward $103 $-1 #
edge $-1 $383 49.34033758719702 $392 57.394329660939363 $378 $433 forward 7 unknown #
edge $-1 $390 -57.394329660939363 $291 -49.34033758719702 $289 $434 forward 7 unknown #
vertex $-1 $381 $435 #
straight-curve $-1 49.34033758719702 0 7.9641544092401579 0 -1 0 I I #
straight-curve $-1 49.34033758719702 0 3.3819522724671538 0 1 0 I I #
point $-1 49.34033758719702 35.602806014839729 3.3819522724671538 #
point $-1 49.34033758719702 35.602806014839729 7.9641544092401562 #
point $-1 49.34033758719702 -35.602806014839729 3.3819522724671538 #
edge $-1 $392 -35.602806014839729 $390 35.602806014839729 $298 $436 forward 7 unknown #
vertex $-1 $389 $437 #
straight-curve $-1 57.394329660939363 35.602806014839729 0 0 0 -1 I I #
vertex $-1 $389 $438 #
straight-curve $-1 57.394329660939363 -35.602806014839729 0 0 0 -1 I I #
coedge $-1 $306 $305 $313 $399 forward $111 $-1 #
edge $-1 $309 23.687337336853503 $402 49.340337587197013 $306 $439 forward 7 unknown #
straight-curve $-1 -23.687337336853503 35.602806014839729 65.444256977450493 0 0 -1 I I #
point $-1 -23.687337336853503 35.602806014839729 7.9641544092401579 #
straight-curve $-1 -18.256918731012629 35.602806014839722 3.3125167442254977 -1 0 0 I I #
edge $-1 $314 -62.131740233224996 $402 -57.480102568210334 $394 $440 forward 7 unknown #
point $-1 -49.340337587197013 35.602806014839729 3.3125167442254977 #
point $-1 -23.687337336853503 35.602806014839729 3.3125167442254977 #
vertex $-1 $318 $441 #
straight-curve $-1 -49.340337587197013 0 7.9641544092401579 0 -1 0 I I #
vertex $-1 $321 $442 #
point $-1 -35.513837462025258 31.174121694453046 3.5772138594682055 #
coedge $-1 $407 $327 $413 $443 reversed $215 $-1 #
coedge $-1 $327 $406 $330 $411 reversed $215 $-1 #
edge $-1 $409 -31.083418856184384 $335 -5.4304186058408739 $334 $444 forward 7 unknown #
vertex $-1 $443 $445 #
straight-curve $-1 -49.340337587197013 -35.602806014839729 3.3125167442254764 0 0.62932038083071107 0.77714596973225614 I I #
edge $-1 $331 31.835984206779575 $415 35.602806014839729 $330 $446 forward 7 unknown #
point $-1 -49.340337587197013 -31.835984206779575 7.9641544092401579 #
coedge $-1 $334 $333 $406 $443 forward $325 $-1 #
point $-1 -23.687337336853503 -35.602806014839729 3.3125167442254764 #
vertex $-1 $338 $447 #
straight-curve $-1 0 -35.602806014839729 7.9641544092401579 1 0 0 I I #
vertex $-1 $341 $448 #
point $-1 -35.513837462025258 -31.174121694453053 3.5772138594682055 #
straight-curve $-1 -57.394329660939363 35.602806014839729 0 0 0 -1 I I #
point $-1 -57.394329660939363 -35.602806014839729 -7.9641544092401579 #
straight-curve $-1 -57.394329660939363 0 -7.9641544092401579 0 1 0 I I #
point $-1 -57.394329660939363 35.602806014839729 -7.9641544092401579 #
coedge $-1 $363 $362 $424 $449 reversed $160 $-1 #
coedge $-1 $368 $364 $423 $449 forward $260 $-1 #
vertex $-1 $365 $450 #
straight-curve $-1 0 35.602806014839729 7.9641544092401579 -1 0 0 I I #
point $-1 -49.340337587197013 35.602806014839729 7.9641544092401562 #
vertex $-1 $449 $451 #
straight-curve $-1 0 -35.602806014839729 7.9641544092401579 1 0 0 I I #
straight-curve $-1 -57.394329660939363 -35.602806014839729 0 0 0 -1 I I #
straight-curve $-1 -57.394329660939363 35.602806014839729 0 0 0 -1 I I #
straight-curve $-1 49.34033758719702 -35.602806014839729 2.8365266704268275 0 0 -1 I I #
straight-curve $-1 0 -35.602806014839729 7.9641544092401579 1 0 0 I I #
straight-curve $-1 0 35.602806014839729 7.9641544092401579 -1 0 0 I I #
point $-1 49.34033758719702 -35.602806014839729 7.9641544092401562 #
straight-curve $-1 57.394329660939363 0 7.9641544092401579 0 1 0 I I #
point $-1 57.394329660939363 35.602806014839729 7.9641544092401579 #
point $-1 57.394329660939363 -35.602806014839729 7.9641544092401579 #
straight-curve $-1 0 35.602806014839729 7.9641544092401579 -1 0 0 I I #
straight-curve $-1 -49.340337587197013 35.602806014839729 65.444256977450493 0 0 1 I I #
point $-1 -49.340337587197013 35.602806014839729 7.9641544092401562 #
point $-1 -36.513837462025258 30.396975724720793 2.9478934786374946 #
edge $-1 $415 29.811525362618315 $409 34.463163027632994 $413 $452 forward 7 unknown #
straight-curve $-1 -18.256918731012629 -35.602806014839729 3.3125167442254764 1 0 0 I I #
point $-1 -49.340337587197013 -35.602806014839729 3.3125167442254764 #
straight-curve $-1 -49.340337587197013 0 7.9641544092401579 0 -1 0 I I #
point $-1 -49.340337587197013 -35.602806014839729 7.9641544092401562 #
point $-1 -36.513837462025258 -30.3969757247208 2.9478934786374946 #
edge $-1 $425 -35.602806014839729 $428 35.602806014839729 $423 $453 forward 7 unknown #
point $-1 -57.394329660939363 35.602806014839729 7.9641544092401579 #
point $-1 -57.394329660939363 -35.602806014839729 7.9641544092401579 #
straight-curve $-1 -49.340337587197013 -35.602806014839729 37.775679771858471 0 0 -1 I I #
straight-curve $-1 -57.394329660939363 0 7.9641544092401579 0 -1 0 I I #
End-of-ACIS-data 