500 0 6 0           
7 Unknown 11 ACIS 5.0 NT 24 Fri Mar 26 03:27:12 1999 
-1 9.9999999999999995e-007 1e-010 
body $-1 $6 $-1 $7 #
body $-1 $8 $-1 $9 #
body $-1 $10 $-1 $11 #
body $-1 $12 $-1 $13 #
body $-1 $14 $-1 $15 #
body $-1 $16 $-1 $17 #
lump $-1 $-1 $18 $0 #
transform $-1 1 0 0 0 1 0 0 0 1 49.682912686544391 28.807810641704503 12.319741500324747 1 rotate no_reflect no_shear #
lump $-1 $-1 $19 $1 #
transform $-1 1 0 0 0 1 0 0 0 1 49.682912686544391 28.807810641704503 12.319741500324747 1 rotate no_reflect no_shear #
lump $-1 $-1 $20 $2 #
transform $-1 1 0 0 0 1 0 0 0 1 49.682912686544391 28.807810641704503 12.319741500324747 1 rotate no_reflect no_shear #
lump $-1 $-1 $21 $3 #
transform $-1 1 0 0 0 1 0 0 0 1 49.682912686544391 28.807810641704503 12.319741500324747 1 rotate no_reflect no_shear #
lump $-1 $-1 $22 $4 #
transform $-1 1 0 0 0 1 0 0 0 1 49.682912686544391 28.807810641704503 12.319741500324747 1 rotate no_reflect no_shear #
lump $-1 $-1 $23 $5 #
transform $-1 1 0 0 0 1 0 0 0 1 49.682912686544391 28.807810641704503 12.319741500324747 1 rotate no_reflect no_shear #
shell $-1 $-1 $-1 $24 $-1 $6 #
shell $-1 $-1 $-1 $25 $-1 $8 #
shell $-1 $-1 $-1 $26 $-1 $10 #
shell $-1 $-1 $-1 $27 $-1 $12 #
shell $-1 $-1 $-1 $28 $-1 $14 #
shell $-1 $-1 $-1 $29 $-1 $16 #
face $-1 $30 $31 $18 $-1 $32 forward single #
face $-1 $33 $34 $19 $-1 $35 forward single #
face $-1 $36 $37 $20 $-1 $38 reversed single #
face $-1 $39 $40 $21 $-1 $41 forward single #
face $-1 $42 $43 $22 $-1 $44 reversed single #
face $-1 $45 $46 $23 $-1 $47 forward single #
face $-1 $48 $49 $18 $-1 $50 reversed single #
loop $-1 $-1 $51 $24 #
plane-surface $-1 0 0 12.319741500324747 0 0 1 1 0 0 forward_v I I I I #
face $-1 $52 $53 $19 $-1 $54 reversed single #
loop $-1 $-1 $55 $25 #
plane-surface $-1 0 -28.807810641704503 0 0 1 0 0 0 1 forward_v I I I I #
face $-1 $56 $57 $20 $-1 $58 reversed single #
loop $-1 $-1 $59 $26 #
plane-surface $-1 64.371724339009347 4.9929480469336962 148.10653430404105 0 -1 0 -0.77714596973225614 0 -0.62932038083071107 forward_v I I I I #
face $-1 $60 $61 $21 $-1 $62 forward single #
loop $-1 $63 $64 $27 #
cone-surface $-1 47.102295621549388 1.7061247347774788 9.5470250818812303 -0.77714596973225614 0 -0.62932038083071107 0.62932038083071107 0 -0.77714596973225614 1 I I 0 1 1 forward I I I I #
face $-1 $65 $66 $22 $-1 $67 reversed single #
loop $-1 $-1 $68 $28 #
plane-surface $-1 -126.9046634043595 -1.5806985773787385 70.884783586225922 0 1 0 -0.77714596973225614 0 0.62932038083071107 forward_v I I I I #
face $-1 $69 $70 $23 $-1 $71 forward single #
loop $-1 $72 $73 $29 #
cone-surface $-1 -47.102295621549388 1.7061247347774788 9.5470250818812232 0.77714596973225614 0 -0.62932038083071107 0.62932038083071107 0 0.77714596973225614 1 I I 0 1 1 forward I I I I #
face $-1 $74 $75 $18 $-1 $76 reversed single #
loop $-1 $-1 $77 $30 #
plane-surface $-1 0 0 -12.319741500324747 0 0 1 1 0 0 forward_v I I I I #
coedge $-1 $78 $79 $80 $81 forward $31 $-1 #
face $-1 $82 $83 $19 $-1 $84 reversed single #
loop $-1 $-1 $85 $33 #
plane-surface $-1 0 0 -12.319741500324747 0 0 1 1 0 0 forward_v I I I I #
coedge $-1 $86 $87 $88 $89 forward $34 $-1 #
face $-1 $90 $91 $20 $-1 $92 reversed single #
loop $-1 $-1 $93 $36 #
plane-surface $-1 -12.850026378805751 1.7061247347774788 85.573595238690885 0.77714596973225614 0 0.62932038083071107 0.62932038083071107 0 -0.77714596973225614 forward_v I I I I #
coedge $-1 $94 $95 $96 $97 reversed $37 $-1 #
face $-1 $-1 $98 $21 $-1 $99 forward single #
loop $-1 $100 $101 $39 #
cone-surface $-1 45.739675338153212 1.7061247347774788 8.4435969627468435 -0.77714596973225614 0 -0.62932038083071107 0.31466019041535553 0 -0.38857298486612807 1 I I -0.70710678118654746 0.70710678118654746 0.5 forward I I I I #
loop $-1 $-1 $102 $27 #
coedge $-1 $64 $64 $103 $104 reversed $40 $-1 #
face $-1 $105 $106 $22 $-1 $107 reversed single #
loop $-1 $-1 $108 $42 #
plane-surface $-1 -49.682912686544398 1.7061247347774788 8.3518445208757583 -0.77714596973225614 0 0.62932038083071107 0.62932038083071107 0 0.77714596973225614 forward_v I I I I #
coedge $-1 $109 $110 $111 $112 reversed $43 $-1 #
face $-1 $-1 $113 $23 $-1 $114 forward single #
loop $-1 $115 $116 $45 #
cone-surface $-1 -45.739675338153212 1.7061247347774788 8.4435969627468364 0.77714596973225614 0 -0.62932038083071107 0.31466019041535553 0 0.38857298486612807 1 I I -0.70710678118654746 0.70710678118654746 0.5 forward I I I I #
loop $-1 $-1 $117 $29 #
coedge $-1 $73 $73 $118 $119 reversed $46 $-1 #
face $-1 $120 $121 $18 $-1 $122 reversed single #
loop $-1 $-1 $123 $48 #
plane-surface $-1 0 -28.807810641704503 0 0 1 0 0 0 1 forward_v I I I I #
coedge $-1 $124 $125 $126 $127 forward $49 $-1 #
coedge $-1 $128 $51 $129 $130 forward $31 $-1 #
coedge $-1 $51 $128 $131 $132 forward $31 $-1 #
coedge $-1 $133 $134 $51 $81 reversed $135 $-1 #
edge $-1 $136 -28.807810641704503 $137 28.807810641704503 $80 $138 forward 7 unknown #
face $-1 $139 $140 $19 $-1 $141 reversed single #
loop $-1 $-1 $142 $52 #
plane-surface $-1 -44.471437895942557 -42.472515846054385 0 0 1 0 0 0 1 forward_v I I I I #
coedge $-1 $143 $144 $87 $145 forward $53 $-1 #
coedge $-1 $146 $55 $147 $148 reversed $34 $-1 #
coedge $-1 $55 $146 $85 $145 reversed $34 $-1 #
coedge $-1 $149 $150 $55 $89 reversed $140 $-1 #
edge $-1 $151 -12.319741500324747 $152 12.319741500324747 $88 $153 forward 7 unknown #
face $-1 $154 $155 $20 $-1 $156 forward single #
loop $-1 $-1 $157 $56 #
plane-surface $-1 64.371724339009347 -1.5806985773787385 148.10653430404105 0 1 0 0.77714596973225614 0 0.62932038083071107 forward_v I I I I #
coedge $-1 $158 $159 $160 $161 reversed $57 $-1 #
coedge $-1 $95 $59 $162 $163 reversed $37 $-1 #
coedge $-1 $59 $94 $158 $164 reversed $37 $-1 #
coedge $-1 $160 $165 $59 $97 forward $155 $-1 #
edge $-1 $166 -17.497050517039717 $167 -14.283910984109845 $96 $168 forward 7 unknown #
loop $-1 $-1 $103 $60 #
plane-surface $-1 -12.850026378805751 1.7061247347774788 85.573595238690885 0.77714596973225614 0 0.62932038083071107 0.62932038083071107 0 -0.77714596973225614 forward_v I I I I #
loop $-1 $-1 $169 $39 #
coedge $-1 $101 $101 $102 $170 reversed $61 $-1 #
coedge $-1 $102 $102 $101 $170 forward $63 $-1 #
coedge $-1 $103 $103 $64 $104 forward $98 $-1 #
edge $-1 $171 0 $171 6.2831853071796004 $103 $172 forward 7 unknown #
face $-1 $173 $174 $22 $-1 $175 reversed single #
loop $-1 $-1 $176 $65 #
plane-surface $-1 -126.9046634043595 4.9929480469336962 70.884783586225922 0 -1 0 0.77714596973225614 0 -0.62932038083071107 forward_v I I I I #
coedge $-1 $177 $178 $179 $180 reversed $66 $-1 #
coedge $-1 $110 $68 $181 $182 reversed $43 $-1 #
coedge $-1 $68 $109 $177 $183 reversed $43 $-1 #
coedge $-1 $179 $184 $68 $112 forward $185 $-1 #
edge $-1 $186 13.769419015635357 $187 16.982558548565265 $111 $188 forward 7 unknown #
loop $-1 $-1 $118 $69 #
plane-surface $-1 -49.682912686544398 1.7061247347774788 8.3518445208757583 -0.77714596973225614 0 0.62932038083071107 0.62932038083071107 0 0.77714596973225614 forward_v I I I I #
loop $-1 $-1 $189 $45 #
coedge $-1 $116 $116 $117 $190 reversed $70 $-1 #
coedge $-1 $117 $117 $116 $190 forward $72 $-1 #
coedge $-1 $118 $118 $73 $119 forward $113 $-1 #
edge $-1 $191 0 $191 6.2831853071796004 $118 $192 forward 7 unknown #
face $-1 $193 $194 $18 $-1 $195 reversed single #
loop $-1 $-1 $196 $74 #
plane-surface $-1 -49.682912686544391 0 0 1 0 0 0 0 -1 forward_v I I I I #
coedge $-1 $197 $131 $198 $199 forward $75 $-1 #
coedge $-1 $200 $77 $197 $201 forward $49 $-1 #
coedge $-1 $77 $200 $202 $203 forward $49 $-1 #
coedge $-1 $134 $133 $77 $127 reversed $135 $-1 #
edge $-1 $204 -28.807810641704503 $205 28.807810641704503 $126 $206 forward 7 unknown #
coedge $-1 $79 $78 $207 $208 forward $31 $-1 #
coedge $-1 $209 $210 $78 $130 reversed $194 $-1 #
edge $-1 $137 -49.682912686544391 $211 49.682912686544391 $129 $212 forward 7 unknown #
coedge $-1 $123 $213 $79 $132 reversed $75 $-1 #
edge $-1 $214 -49.682912686544391 $136 49.682912686544391 $131 $215 forward 7 unknown #
coedge $-1 $126 $80 $213 $216 forward $135 $-1 #
coedge $-1 $80 $126 $209 $217 reversed $135 $-1 #
loop $-1 $-1 $133 $193 #
vertex $-1 $81 $218 #
vertex $-1 $81 $219 #
straight-curve $-1 49.682912686544391 0 12.319741500324747 0 1 0 I I #
face $-1 $220 $221 $19 $-1 $222 reversed single #
loop $-1 $-1 $88 $82 #
plane-surface $-1 -45.971437895942557 -35.640163243879442 0 1 0 0 0 0 -1 forward_v I I I I #
coedge $-1 $223 $224 $225 $226 forward $83 $-1 #
coedge $-1 $227 $85 $228 $229 forward $53 $-1 #
coedge $-1 $85 $227 $149 $230 forward $53 $-1 #
edge $-1 $151 -45.971437895942557 $231 -42.971437895942557 $85 $232 forward 7 unknown #
coedge $-1 $87 $86 $233 $234 forward $34 $-1 #
coedge $-1 $235 $236 $86 $148 forward $237 $-1 #
edge $-1 $238 42.971437895942557 $152 45.971437895942557 $147 $239 forward 7 unknown #
coedge $-1 $225 $88 $144 $230 reversed $140 $-1 #
coedge $-1 $88 $225 $235 $240 reversed $140 $-1 #
vertex $-1 $145 $241 #
vertex $-1 $240 $242 #
straight-curve $-1 -45.971437895942557 -28.807810641704503 0 0 0 1 I I #
face $-1 $-1 $243 $20 $-1 $244 reversed single #
loop $-1 $-1 $96 $90 #
plane-surface $-1 0 0 12.319741500324747 0 0 1 1 0 0 forward_v I I I I #
coedge $-1 $245 $246 $247 $248 reversed $91 $-1 #
coedge $-1 $249 $93 $95 $164 forward $57 $-1 #
coedge $-1 $93 $249 $245 $250 forward $57 $-1 #
coedge $-1 $247 $96 $93 $161 forward $155 $-1 #
edge $-1 $167 -4.1398856795449568 $251 2.433760944767478 $160 $252 forward 7 unknown #
coedge $-1 $253 $254 $94 $163 forward $243 $-1 #
edge $-1 $255 -65.701422631144709 $166 -61.733525651695778 $162 $256 forward 7 unknown #
edge $-1 $167 94.260096032671569 $255 99.36582537308874 $95 $257 forward 7 unknown #
coedge $-1 $96 $247 $253 $258 forward $155 $-1 #
vertex $-1 $97 $259 #
vertex $-1 $97 $260 #
straight-curve $-1 32.185862169504674 4.9929480469336962 12.319741500324753 -1 0 0 I I #
coedge $-1 $169 $169 $-1 $261 reversed $100 $-1 #
edge $-1 $262 0 $262 6.2831853071796004 $101 $263 forward 7 unknown #
vertex $-1 $104 $264 #
ellipse-curve $-1 48.076342920079448 1.7061247347774788 10.335793010600273 0.77714596973225614 0 0.62932038083071107 0.62932038083071107 0 -0.77714596973225614 1 I I #
face $-1 $-1 $185 $22 $-1 $265 forward single #
loop $-1 $-1 $266 $105 #
plane-surface $-1 -49.682912686544391 0 0 1 0 0 0 0 -1 forward_v I I I I #
coedge $-1 $267 $268 $269 $270 reversed $106 $-1 #
coedge $-1 $271 $108 $110 $183 forward $66 $-1 #
coedge $-1 $108 $271 $267 $272 forward $66 $-1 #
coedge $-1 $269 $111 $108 $180 forward $185 $-1 #
edge $-1 $187 -2.433760944767478 $273 4.1398856795449568 $179 $274 forward 7 unknown #
coedge $-1 $275 $276 $109 $182 forward $174 $-1 #
edge $-1 $277 -27.090547272237195 $186 -23.122650292788215 $181 $278 forward 7 unknown #
edge $-1 $187 -5.1057293404172412 $277 -1.1374033043381581e-014 $110 $279 forward 7 unknown #
coedge $-1 $111 $269 $275 $280 forward $185 $-1 #
loop $-1 $-1 $269 $173 #
vertex $-1 $182 $281 #
vertex $-1 $112 $282 #
straight-curve $-1 -63.452331702179748 -1.5806985773787385 12.319741500324746 1 0 0 I I #
coedge $-1 $189 $189 $-1 $283 reversed $115 $-1 #
edge $-1 $284 0 $284 6.2831853071796004 $116 $285 forward 7 unknown #
vertex $-1 $119 $286 #
ellipse-curve $-1 -48.076342920079441 1.7061247347774788 10.335793010600257 -0.77714596973225614 0 0.62932038083071107 0.62932038083071107 0 0.77714596973225614 1 I I #
face $-1 $-1 $135 $18 $-1 $287 reversed single #
loop $-1 $-1 $209 $120 #
plane-surface $-1 0 28.807810641704503 0 0 -1 0 0 0 -1 forward_v I I I I #
coedge $-1 $288 $207 $210 $289 forward $121 $-1 #
coedge $-1 $213 $123 $124 $201 reversed $75 $-1 #
coedge $-1 $207 $288 $123 $199 reversed $121 $-1 #
edge $-1 $214 -12.319741500324747 $290 12.319741500324747 $198 $291 forward 7 unknown #
coedge $-1 $125 $124 $288 $292 forward $49 $-1 #
edge $-1 $205 -49.682912686544391 $290 49.682912686544391 $197 $293 forward 7 unknown #
coedge $-1 $210 $209 $125 $203 reversed $194 $-1 #
edge $-1 $294 -49.682912686544391 $204 49.682912686544391 $202 $295 forward 7 unknown #
vertex $-1 $127 $296 #
vertex $-1 $216 $297 #
straight-curve $-1 49.682912686544391 0 -12.319741500324747 0 -1 0 I I #
coedge $-1 $196 $198 $128 $208 reversed $121 $-1 #
edge $-1 $211 -28.807810641704503 $214 28.807810641704503 $207 $298 forward 7 unknown #
coedge $-1 $202 $129 $134 $217 forward $194 $-1 #
coedge $-1 $129 $202 $196 $289 reversed $194 $-1 #
vertex $-1 $130 $299 #
straight-curve $-1 0 28.807810641704503 12.319741500324747 -1 0 0 I I #
coedge $-1 $131 $197 $133 $216 reversed $75 $-1 #
vertex $-1 $208 $300 #
straight-curve $-1 0 -28.807810641704503 12.319741500324747 1 0 0 I I #
edge $-1 $136 -12.319741500324747 $205 12.319741500324747 $133 $301 forward 7 unknown #
edge $-1 $137 -12.319741500324747 $204 12.319741500324747 $134 $302 forward 7 unknown #
point $-1 49.682912686544391 -28.807810641704503 12.319741500324747 #
point $-1 49.682912686544391 28.807810641704503 12.319741500324747 #
face $-1 $-1 $237 $19 $-1 $303 forward single #
loop $-1 $-1 $304 $139 #
plane-surface $-1 -42.971437895942557 -35.640163243879442 0 -1 0 0 0 0 1 forward_v I I I I #
coedge $-1 $305 $142 $227 $306 reversed $83 $-1 #
coedge $-1 $142 $305 $307 $308 reversed $83 $-1 #
coedge $-1 $150 $149 $142 $226 reversed $140 $-1 #
edge $-1 $309 -12.319741500324747 $310 12.319741500324747 $225 $311 forward 7 unknown #
coedge $-1 $144 $143 $223 $306 forward $53 $-1 #
coedge $-1 $233 $304 $143 $229 reversed $221 $-1 #
edge $-1 $231 -6.832352602174943 $312 6.832352602174943 $228 $313 forward 7 unknown #
edge $-1 $310 -6.832352602174943 $151 6.832352602174943 $149 $314 forward 7 unknown #
vertex $-1 $229 $315 #
straight-curve $-1 0 -28.807810641704503 -12.319741500324747 1 0 0 I I #
coedge $-1 $316 $228 $146 $234 reversed $221 $-1 #
edge $-1 $238 -12.319741500324747 $231 12.319741500324747 $233 $317 forward 7 unknown #
coedge $-1 $307 $147 $150 $240 forward $237 $-1 #
coedge $-1 $147 $307 $316 $318 forward $237 $-1 #
loop $-1 $-1 $147 $220 #
vertex $-1 $148 $319 #
straight-curve $-1 0 -28.807810641704503 12.319741500324747 -1 0 0 I I #
edge $-1 $152 -6.832352602174943 $309 6.832352602174943 $150 $320 forward 7 unknown #
point $-1 -45.971437895942557 -28.807810641704499 -12.319741500324747 #
point $-1 -45.971437895942557 -28.807810641704499 12.319741500324747 #
loop $-1 $-1 $162 $154 #
plane-surface $-1 49.682912686544391 0 0 -1 0 0 0 0 1 forward_v I I I I #
coedge $-1 $246 $157 $159 $250 reversed $91 $-1 #
coedge $-1 $157 $245 $321 $322 reversed $91 $-1 #
coedge $-1 $165 $160 $157 $248 forward $155 $-1 #
edge $-1 $251 14.283910984109845 $323 17.497050517039717 $247 $324 forward 7 unknown #
coedge $-1 $159 $158 $254 $325 reversed $57 $-1 #
edge $-1 $326 -99.36582537308874 $251 -94.260096032671569 $245 $327 forward 7 unknown #
vertex $-1 $161 $328 #
straight-curve $-1 46.469773153614526 0.85306236738873942 12.319741500324746 0 -1 0 I I #
coedge $-1 $321 $162 $165 $258 reversed $243 $-1 #
coedge $-1 $162 $321 $249 $325 forward $243 $-1 #
vertex $-1 $163 $329 #
straight-curve $-1 49.682912686544391 4.9929480469336962 74.053267152020524 0 0 1 I I #
straight-curve $-1 -12.850026378805751 4.9929480469336962 85.573595238690885 0.62932038083071107 0 -0.77714596973225614 I I #
edge $-1 $323 -1.5806985773787385 $166 4.9929480469336962 $253 $330 forward 7 unknown #
point $-1 49.682912686544391 4.9929480469336962 12.319741500324747 #
point $-1 46.469773153614518 4.9929480469336962 12.319741500324753 #
edge $-1 $331 1 $331 0 $169 $-1 forward 7 unknown #
vertex $-1 $170 $332 #
ellipse-curve $-1 46.128248323019342 1.7061247347774788 8.7582571531621998 0.77714596973225614 0 0.62932038083071107 0.62932038083071107 0 -0.77714596973225614 1 I I #
point $-1 48.705663300910146 1.7061247347774788 9.5586470408680029 #
plane-surface $-1 0 0 12.319741500324747 0 0 1 1 0 0 forward_v I I I I #
coedge $-1 $276 $275 $268 $333 forward $174 $-1 #
coedge $-1 $268 $176 $178 $272 reversed $106 $-1 #
coedge $-1 $176 $267 $266 $333 reversed $106 $-1 #
coedge $-1 $184 $179 $176 $270 forward $185 $-1 #
edge $-1 $273 -16.982558548565265 $334 -13.769419015635357 $269 $335 forward 7 unknown #
coedge $-1 $178 $177 $276 $336 reversed $66 $-1 #
edge $-1 $337 1.1374033043381581e-014 $273 5.1057293404172412 $267 $338 forward 7 unknown #
vertex $-1 $180 $339 #
straight-curve $-1 -46.469773153614483 0.85306236738873942 12.319741500324747 0 1 0 I I #
coedge $-1 $266 $181 $184 $280 reversed $174 $-1 #
coedge $-1 $181 $266 $271 $336 forward $174 $-1 #
vertex $-1 $182 $340 #
straight-curve $-1 -49.682912686544391 -1.5806985773787385 35.442391793112961 0 0 1 I I #
straight-curve $-1 -49.682912686544398 -1.5806985773787385 8.3518445208757583 -0.62932038083071107 0 -0.77714596973225614 I I #
edge $-1 $334 -4.9929480469336962 $186 1.5806985773787385 $275 $341 forward 7 unknown #
point $-1 -49.682912686544391 -1.5806985773787385 12.319741500324747 #
point $-1 -46.469773153614483 -1.5806985773787385 12.319741500324747 #
edge $-1 $342 1 $342 0 $189 $-1 forward 7 unknown #
vertex $-1 $190 $343 #
ellipse-curve $-1 -46.128248323019342 1.7061247347774788 8.7582571531621927 -0.77714596973225614 0 0.62932038083071107 0.62932038083071107 0 0.77714596973225614 1 I I #
point $-1 -47.447022539248721 1.7061247347774788 11.112938980332508 #
plane-surface $-1 49.682912686544391 0 0 -1 0 0 0 0 1 forward_v I I I I #
coedge $-1 $198 $196 $200 $292 reversed $121 $-1 #
edge $-1 $211 -12.319741500324747 $294 12.319741500324747 $210 $344 forward 7 unknown #
vertex $-1 $292 $345 #
straight-curve $-1 -49.682912686544391 -28.807810641704503 0 0 0 -1 I I #
edge $-1 $290 -28.807810641704503 $294 28.807810641704503 $288 $346 forward 7 unknown #
straight-curve $-1 0 -28.807810641704503 -12.319741500324747 -1 0 0 I I #
vertex $-1 $203 $347 #
straight-curve $-1 0 28.807810641704503 -12.319741500324747 1 0 0 I I #
point $-1 49.682912686544391 28.807810641704503 -12.319741500324747 #
point $-1 49.682912686544391 -28.807810641704503 -12.319741500324747 #
straight-curve $-1 -49.682912686544391 0 12.319741500324747 0 -1 0 I I #
point $-1 -49.682912686544391 28.807810641704503 12.319741500324747 #
point $-1 -49.682912686544391 -28.807810641704503 12.319741500324747 #
straight-curve $-1 49.682912686544391 -28.807810641704503 0 0 0 -1 I I #
straight-curve $-1 49.682912686544391 28.807810641704503 0 0 0 -1 I I #
plane-surface $-1 0 0 12.319741500324747 0 0 1 1 0 0 forward_v I I I I #
coedge $-1 $228 $316 $305 $348 forward $221 $-1 #
coedge $-1 $224 $223 $304 $348 reversed $83 $-1 #
edge $-1 $312 -1.5 $310 1.5 $223 $349 forward 7 unknown #
coedge $-1 $236 $235 $224 $308 forward $237 $-1 #
edge $-1 $309 -1.5 $350 1.5 $224 $351 forward 7 unknown #
vertex $-1 $240 $352 #
vertex $-1 $230 $353 #
straight-curve $-1 -45.971437895942557 -42.472515846054385 0 0 0 -1 I I #
vertex $-1 $348 $354 #
straight-curve $-1 -42.971437895942557 -35.640163243879442 -12.319741500324747 0 -1 0 I I #
straight-curve $-1 -45.971437895942557 -35.640163243879442 -12.319741500324747 0 1 0 I I #
point $-1 -42.971437895942557 -28.807810641704499 -12.319741500324747 #
coedge $-1 $304 $233 $236 $318 reversed $221 $-1 #
straight-curve $-1 -42.971437895942557 -28.807810641704503 0 0 0 -1 I I #
edge $-1 $350 -6.832352602174943 $238 6.832352602174943 $316 $355 forward 7 unknown #
point $-1 -42.971437895942557 -28.807810641704499 12.319741500324747 #
straight-curve $-1 -45.971437895942557 -35.640163243879442 12.319741500324747 0 -1 0 I I #
coedge $-1 $254 $253 $246 $322 forward $243 $-1 #
edge $-1 $323 61.733525651695778 $326 65.701422631144709 $321 $356 forward 7 unknown #
vertex $-1 $258 $357 #
straight-curve $-1 32.185862169504674 -1.5806985773787385 12.319741500324753 1 0 0 I I #
edge $-1 $326 -2.433760944767478 $255 4.1398856795449568 $254 $358 forward 7 unknown #
vertex $-1 $325 $359 #
straight-curve $-1 -12.850026378805751 -1.5806985773787385 85.573595238690885 -0.62932038083071107 0 0.77714596973225614 I I #
point $-1 46.469773153614518 -1.5806985773787385 12.319741500324753 #
point $-1 49.682912686544384 4.9929480469336962 8.3518445208758152 #
straight-curve $-1 49.682912686544391 0 12.319741500324747 0 1 0 I I #
vertex $-1 $261 $360 #
point $-1 46.757568703850055 1.7061247347774788 7.9811111834299426 #
edge $-1 $334 23.122650292788215 $337 27.090547272237195 $266 $361 forward 7 unknown #
vertex $-1 $280 $362 #
straight-curve $-1 -63.452331702179748 4.9929480469336962 12.319741500324746 -1 0 0 I I #
edge $-1 $337 -4.1398856795449568 $277 2.433760944767478 $276 $363 forward 7 unknown #
vertex $-1 $336 $364 #
straight-curve $-1 -49.682912686544398 4.9929480469336962 8.3518445208757583 0.62932038083071107 0 0.77714596973225614 I I #
point $-1 -46.469773153614483 4.9929480469336962 12.319741500324747 #
point $-1 -49.682912686544391 -1.5806985773787385 8.3518445208757672 #
straight-curve $-1 -49.682912686544391 0 12.319741500324747 0 -1 0 I I #
vertex $-1 $283 $365 #
point $-1 -45.498927942188629 1.7061247347774788 9.5354031228944471 #
straight-curve $-1 -49.682912686544391 28.807810641704503 0 0 0 -1 I I #
point $-1 -49.682912686544391 -28.807810641704503 -12.319741500324747 #
straight-curve $-1 -49.682912686544391 0 -12.319741500324747 0 1 0 I I #
point $-1 -49.682912686544391 28.807810641704503 -12.319741500324747 #
edge $-1 $350 -12.319741500324747 $312 12.319741500324747 $304 $366 forward 7 unknown #
straight-curve $-1 -44.471437895942557 -42.472515846054385 -12.319741500324747 -1 0 0 I I #
vertex $-1 $318 $367 #
straight-curve $-1 -44.471437895942557 -42.472515846054385 12.319741500324747 1 0 0 I I #
point $-1 -45.971437895942557 -42.472515846054385 12.319741500324747 #
point $-1 -45.971437895942557 -42.472515846054385 -12.319741500324747 #
point $-1 -42.971437895942557 -42.472515846054385 -12.319741500324747 #
straight-curve $-1 -42.971437895942557 -35.640163243879442 12.319741500324747 0 1 0 I I #
straight-curve $-1 49.682912686544391 -1.5806985773787385 74.053267152020524 0 0 -1 I I #
point $-1 49.682912686544391 -1.5806985773787385 12.319741500324747 #
straight-curve $-1 49.682912686544391 0.85306236738873942 8.3518445208758152 0 1 0 I I #
point $-1 49.682912686544384 -1.5806985773787385 8.3518445208758152 #
point $-1 45.351102353287082 1.7061247347774788 8.1289367723314871 #
straight-curve $-1 -49.682912686544391 4.9929480469336962 35.442391793112961 0 0 -1 I I #
point $-1 -49.682912686544391 4.9929480469336962 12.319741500324747 #
straight-curve $-1 -49.682912686544391 0.85306236738873942 8.3518445208757761 0 -1 0 I I #
point $-1 -49.682912686544391 4.9929480469336962 8.3518445208757672 #
point $-1 -45.351102353287082 1.7061247347774788 8.12893677233148 #
straight-curve $-1 -42.971437895942557 -42.472515846054385 0 0 0 -1 I I #
point $-1 -42.971437895942557 -42.472515846054385 12.319741500324747 #
End-of-ACIS-data 