500 0 10 0           
7 Unknown 11 ACIS 5.0 NT 24 Thu Mar 25 21:42:02 1999 
-1 9.9999999999999995e-007 1e-010 
body $-1 $10 $-1 $11 #
body $-1 $12 $-1 $13 #
body $-1 $14 $-1 $15 #
body $-1 $16 $-1 $17 #
body $-1 $18 $-1 $19 #
body $-1 $20 $-1 $21 #
body $-1 $22 $-1 $23 #
body $-1 $24 $-1 $25 #
body $-1 $26 $-1 $27 #
body $-1 $28 $-1 $29 #
lump $-1 $-1 $30 $0 #
transform $-1 1 0 0 0 1 0 0 0 1 73.558153019806511 39.741427006590065 13.861288699918084 1 rotate no_reflect no_shear #
lump $-1 $-1 $31 $1 #
transform $-1 1 0 0 0 1 0 0 0 1 73.558153019806511 39.741427006590065 13.861288699918084 1 rotate no_reflect no_shear #
lump $-1 $-1 $32 $2 #
transform $-1 1 0 0 0 1 0 0 0 1 73.558153019806511 39.741427006590065 13.861288699918084 1 rotate no_reflect no_shear #
lump $-1 $-1 $33 $3 #
transform $-1 1 0 0 0 1 0 0 0 1 73.558153019806511 39.741427006590065 13.861288699918084 1 rotate no_reflect no_shear #
lump $-1 $-1 $34 $4 #
transform $-1 1 0 0 0 1 0 0 0 1 73.558153019806511 39.741427006590065 13.861288699918084 1 rotate no_reflect no_shear #
lump $-1 $-1 $35 $5 #
transform $-1 1 0 0 0 1 0 0 0 1 73.558153019806511 39.741427006590065 13.861288699918084 1 rotate no_reflect no_shear #
lump $-1 $-1 $36 $6 #
transform $-1 1 0 0 0 1 0 0 0 1 73.558153019806511 39.741427006590065 13.861288699918084 1 rotate no_reflect no_shear #
lump $-1 $-1 $37 $7 #
transform $-1 1 0 0 0 1 0 0 0 1 73.558153019806511 39.741427006590065 13.861288699918084 1 rotate no_reflect no_shear #
lump $-1 $-1 $38 $8 #
transform $-1 1 0 0 0 1 0 0 0 1 73.558153019806511 39.741427006590065 13.861288699918084 1 rotate no_reflect no_shear #
lump $-1 $-1 $39 $9 #
transform $-1 1 0 0 0 1 0 0 0 1 73.558153019806511 39.741427006590065 13.861288699918084 1 rotate no_reflect no_shear #
shell $-1 $-1 $-1 $40 $-1 $10 #
shell $-1 $-1 $-1 $41 $-1 $12 #
shell $-1 $-1 $-1 $42 $-1 $14 #
shell $-1 $-1 $-1 $43 $-1 $16 #
shell $-1 $-1 $-1 $44 $-1 $18 #
shell $-1 $-1 $-1 $45 $-1 $20 #
shell $-1 $-1 $-1 $46 $-1 $22 #
shell $-1 $-1 $-1 $47 $-1 $24 #
shell $-1 $-1 $-1 $48 $-1 $26 #
shell $-1 $-1 $-1 $49 $-1 $28 #
face $-1 $50 $51 $30 $-1 $52 reversed single #
face $-1 $53 $54 $31 $-1 $55 forward single #
face $-1 $56 $57 $32 $-1 $58 reversed single #
face $-1 $59 $60 $33 $-1 $61 forward single #
face $-1 $62 $63 $34 $-1 $64 forward single #
face $-1 $65 $66 $35 $-1 $67 forward single #
face $-1 $68 $69 $36 $-1 $70 reversed single #
face $-1 $71 $72 $37 $-1 $73 forward single #
face $-1 $74 $75 $38 $-1 $76 forward single #
face $-1 $77 $78 $39 $-1 $79 forward single #
face $-1 $80 $81 $30 $-1 $82 forward single #
loop $-1 $-1 $83 $40 #
plane-surface $-1 -73.558153019806511 0 0 1 0 0 0 0 -1 forward_v I I I I #
face $-1 $84 $85 $31 $-1 $86 reversed single #
loop $-1 $-1 $87 $41 #
plane-surface $-1 -73.558153019806511 0 0 1 0 0 0 0 -1 forward_v I I I I #
face $-1 $88 $89 $32 $-1 $90 reversed single #
loop $-1 $-1 $91 $42 #
plane-surface $-1 1.9709867302708517e-006 -32.942316143336086 135.18374811610732 0.86602541151947299 0 0.49999998660252726 0.49999998660252726 0 -0.86602541151947299 forward_v I I I I #
face $-1 $92 $93 $33 $-1 $94 forward single #
loop $-1 $95 $96 $43 #
cone-surface $-1 70.160708035816953 -37.021782661288469 9.8717729004823678 -0.86602541151947299 0 -0.49999998660252726 0.49999998660252726 0 -0.86602541151947299 1 I I 0 1 1 forward I I I I #
face $-1 $97 $98 $34 $-1 $99 forward single #
loop $-1 $100 $101 $44 #
cone-surface $-1 70.160708035816953 -32.942316143336079 9.8717729004823678 -0.86602541151947299 0 -0.49999998660252726 0.49999998660252726 0 -0.86602541151947299 1 I I 0 1 1 forward I I I I #
face $-1 $102 $103 $35 $-1 $104 forward single #
loop $-1 $105 $106 $45 #
cone-surface $-1 70.160708035816953 -28.862849625383692 9.8717729004823678 -0.86602541151947299 0 -0.49999998660252726 0.49999998660252726 0 -0.86602541151947299 1 I I 0 1 1 forward I I I I #
face $-1 $107 $108 $36 $-1 $109 reversed single #
loop $-1 $-1 $110 $46 #
plane-surface $-1 127.40646145016733 -3.5527136788005009e-015 208.74189916492713 0 1 0 0.86602541151947299 0 0.49999998660252726 forward_v I I I I #
face $-1 $111 $112 $37 $-1 $113 forward single #
loop $-1 $114 $115 $47 #
cone-surface $-1 70.160708035816953 2.7196443453015959 9.8717729004823678 -0.86602541151947299 0 -0.49999998660252726 0.49999998660252726 0 -0.86602541151947299 1 I I 0 1 1 forward I I I I #
face $-1 $116 $117 $38 $-1 $118 forward single #
loop $-1 $119 $120 $48 #
cone-surface $-1 70.160708035816953 6.7991108632539863 9.8717729004823678 -0.86602541151947299 0 -0.49999998660252726 0.49999998660252726 0 -0.86602541151947299 1 I I 0 1 1 forward I I I I #
face $-1 $121 $122 $39 $-1 $123 forward single #
loop $-1 $124 $125 $49 #
cone-surface $-1 70.160708035816953 10.878577381206377 9.8717729004823678 -0.86602541151947299 0 -0.49999998660252726 0.49999998660252726 0 -0.86602541151947299 1 I I 0 1 1 forward I I I I #
face $-1 $126 $127 $30 $-1 $128 reversed single #
loop $-1 $-1 $129 $50 #
plane-surface $-1 0 0 13.861288699918084 0 0 1 1 0 0 forward_v I I I I #
coedge $-1 $130 $131 $132 $133 reversed $51 $-1 #
face $-1 $134 $135 $31 $-1 $136 reversed single #
loop $-1 $-1 $137 $53 #
plane-surface $-1 0 0 -13.861288699918084 0 0 1 1 0 0 forward_v I I I I #
coedge $-1 $138 $139 $140 $141 forward $54 $-1 #
face $-1 $142 $143 $32 $-1 $144 reversed single #
loop $-1 $-1 $145 $56 #
plane-surface $-1 127.40646145016733 -26.143205280082103 208.74189916492713 0 -1 0 -0.86602541151947299 0 -0.49999998660252726 forward_v I I I I #
coedge $-1 $146 $147 $148 $149 reversed $57 $-1 #
face $-1 $-1 $150 $33 $-1 $151 forward single #
loop $-1 $152 $153 $59 #
cone-surface $-1 68.086549820379915 -37.021782661288469 8.6742571392410852 -0.86602541151947299 0 -0.49999998660252726 0.24999999330126363 0 -0.43301270575973649 1 I I -0.70710678118654746 0.70710678118654746 0.5 forward I I I I #
loop $-1 $-1 $154 $43 #
coedge $-1 $96 $96 $155 $156 reversed $60 $-1 #
face $-1 $-1 $157 $34 $-1 $158 forward single #
loop $-1 $159 $160 $62 #
cone-surface $-1 68.086549820379915 -32.942316143336079 8.6742571392410852 -0.86602541151947299 0 -0.49999998660252726 0.24999999330126363 0 -0.43301270575973649 1 I I -0.70710678118654746 0.70710678118654746 0.5 forward I I I I #
loop $-1 $-1 $161 $44 #
coedge $-1 $101 $101 $162 $163 reversed $63 $-1 #
face $-1 $-1 $164 $35 $-1 $165 forward single #
loop $-1 $166 $167 $65 #
cone-surface $-1 68.086549820379915 -28.862849625383692 8.6742571392410852 -0.86602541151947299 0 -0.49999998660252726 0.24999999330126363 0 -0.43301270575973649 1 I I -0.70710678118654746 0.70710678118654746 0.5 forward I I I I #
loop $-1 $-1 $168 $45 #
coedge $-1 $106 $106 $169 $170 reversed $66 $-1 #
face $-1 $171 $172 $36 $-1 $173 reversed single #
loop $-1 $-1 $174 $68 #
plane-surface $-1 1.9709867302708517e-006 6.7991108632539792 135.18374811610732 0.86602541151947299 0 0.49999998660252726 0.49999998660252726 0 -0.86602541151947299 forward_v I I I I #
coedge $-1 $175 $176 $177 $178 reversed $69 $-1 #
face $-1 $-1 $179 $37 $-1 $180 forward single #
loop $-1 $181 $182 $71 #
cone-surface $-1 68.086549820379915 2.7196443453015959 8.6742571392410852 -0.86602541151947299 0 -0.49999998660252726 0.24999999330126363 0 -0.43301270575973649 1 I I -0.70710678118654746 0.70710678118654746 0.5 forward I I I I #
loop $-1 $-1 $183 $47 #
coedge $-1 $115 $115 $184 $185 reversed $72 $-1 #
face $-1 $-1 $186 $38 $-1 $187 forward single #
loop $-1 $188 $189 $74 #
cone-surface $-1 68.086549820379915 6.7991108632539863 8.6742571392410852 -0.86602541151947299 0 -0.49999998660252726 0.24999999330126363 0 -0.43301270575973649 1 I I -0.70710678118654746 0.70710678118654746 0.5 forward I I I I #
loop $-1 $-1 $190 $48 #
coedge $-1 $120 $120 $191 $192 reversed $75 $-1 #
face $-1 $-1 $193 $39 $-1 $194 forward single #
loop $-1 $195 $196 $77 #
cone-surface $-1 68.086549820379915 10.878577381206377 8.6742571392410852 -0.86602541151947299 0 -0.49999998660252726 0.24999999330126363 0 -0.43301270575973649 1 I I -0.70710678118654746 0.70710678118654746 0.5 forward I I I I #
loop $-1 $-1 $197 $49 #
coedge $-1 $125 $125 $198 $199 reversed $78 $-1 #
face $-1 $200 $201 $30 $-1 $202 reversed single #
loop $-1 $-1 $203 $80 #
plane-surface $-1 0 0 -13.861288699918084 0 0 1 1 0 0 forward_v I I I I #
coedge $-1 $204 $205 $206 $207 forward $81 $-1 #
coedge $-1 $208 $83 $209 $210 reversed $51 $-1 #
coedge $-1 $83 $208 $211 $212 forward $51 $-1 #
coedge $-1 $213 $214 $83 $133 forward $127 $-1 #
edge $-1 $215 -39.741427006590065 $216 39.741427006590065 $83 $217 forward 7 unknown #
face $-1 $218 $219 $31 $-1 $220 reversed single #
loop $-1 $-1 $221 $84 #
plane-surface $-1 -80.006907449342208 -19.062314956385421 0 0 1 0 0 0 1 forward_v I I I I #
coedge $-1 $222 $223 $139 $224 forward $85 $-1 #
coedge $-1 $225 $87 $226 $227 reversed $54 $-1 #
coedge $-1 $87 $225 $137 $224 reversed $54 $-1 #
coedge $-1 $228 $229 $87 $141 reversed $230 $-1 #
edge $-1 $231 -13.861288699918084 $232 13.861288699918084 $140 $233 forward 7 unknown #
face $-1 $234 $235 $32 $-1 $236 reversed single #
loop $-1 $-1 $237 $88 #
plane-surface $-1 0 -39.741427006590065 0 0 1 0 0 0 1 forward_v I I I I #
coedge $-1 $238 $239 $240 $241 reversed $89 $-1 #
coedge $-1 $242 $91 $237 $243 reversed $57 $-1 #
coedge $-1 $91 $242 $238 $244 forward $57 $-1 #
coedge $-1 $240 $245 $91 $149 forward $235 $-1 #
edge $-1 $246 -23.270268934922022 $247 -9.6720472084140603 $148 $248 forward 7 unknown #
loop $-1 $-1 $155 $92 #
plane-surface $-1 1.9709867302708517e-006 -32.942316143336086 135.18374811610732 0.86602541151947299 0 0.49999998660252726 0.49999998660252726 0 -0.86602541151947299 forward_v I I I I #
loop $-1 $-1 $249 $59 #
coedge $-1 $153 $153 $154 $250 reversed $93 $-1 #
coedge $-1 $154 $154 $153 $250 forward $95 $-1 #
coedge $-1 $155 $155 $96 $156 forward $150 $-1 #
edge $-1 $251 0 $251 6.2831853071796004 $155 $252 forward 7 unknown #
loop $-1 $-1 $162 $97 #
plane-surface $-1 1.9709867302708517e-006 -32.942316143336086 135.18374811610732 0.86602541151947299 0 0.49999998660252726 0.49999998660252726 0 -0.86602541151947299 forward_v I I I I #
loop $-1 $-1 $253 $62 #
coedge $-1 $160 $160 $161 $254 reversed $98 $-1 #
coedge $-1 $161 $161 $160 $254 forward $100 $-1 #
coedge $-1 $162 $162 $101 $163 forward $157 $-1 #
edge $-1 $255 0 $255 6.2831853071796004 $162 $256 forward 7 unknown #
loop $-1 $-1 $169 $102 #
plane-surface $-1 1.9709867302708517e-006 -32.942316143336086 135.18374811610732 0.86602541151947299 0 0.49999998660252726 0.49999998660252726 0 -0.86602541151947299 forward_v I I I I #
loop $-1 $-1 $257 $65 #
coedge $-1 $167 $167 $168 $258 reversed $103 $-1 #
coedge $-1 $168 $168 $167 $258 forward $105 $-1 #
coedge $-1 $169 $169 $106 $170 forward $164 $-1 #
edge $-1 $259 0 $259 6.2831853071796004 $169 $260 forward 7 unknown #
face $-1 $261 $262 $36 $-1 $263 reversed single #
loop $-1 $-1 $264 $107 #
plane-surface $-1 127.40646145016733 13.598221726507962 208.74189916492713 0 -1 0 -0.86602541151947299 0 -0.49999998660252726 forward_v I I I I #
coedge $-1 $265 $266 $267 $268 reversed $108 $-1 #
coedge $-1 $176 $110 $269 $270 reversed $69 $-1 #
coedge $-1 $110 $175 $265 $271 reversed $69 $-1 #
coedge $-1 $267 $272 $110 $178 forward $262 $-1 #
edge $-1 $273 90.509660882545489 $274 96.593660945536783 $177 $275 forward 7 unknown #
loop $-1 $-1 $184 $111 #
plane-surface $-1 1.9709867302708517e-006 6.7991108632539792 135.18374811610732 0.86602541151947299 0 0.49999998660252726 0.49999998660252726 0 -0.86602541151947299 forward_v I I I I #
loop $-1 $-1 $276 $71 #
coedge $-1 $182 $182 $183 $277 reversed $112 $-1 #
coedge $-1 $183 $183 $182 $277 forward $114 $-1 #
coedge $-1 $184 $184 $115 $185 forward $179 $-1 #
edge $-1 $278 0 $278 6.2831853071796004 $184 $279 forward 7 unknown #
loop $-1 $-1 $191 $116 #
plane-surface $-1 1.9709867302708517e-006 6.7991108632539792 135.18374811610732 0.86602541151947299 0 0.49999998660252726 0.49999998660252726 0 -0.86602541151947299 forward_v I I I I #
loop $-1 $-1 $280 $74 #
coedge $-1 $189 $189 $190 $281 reversed $117 $-1 #
coedge $-1 $190 $190 $189 $281 forward $119 $-1 #
coedge $-1 $191 $191 $120 $192 forward $186 $-1 #
edge $-1 $282 0 $282 6.2831853071796004 $191 $283 forward 7 unknown #
loop $-1 $-1 $198 $121 #
plane-surface $-1 1.9709867302708517e-006 6.7991108632539792 135.18374811610732 0.86602541151947299 0 0.49999998660252726 0.49999998660252726 0 -0.86602541151947299 forward_v I I I I #
loop $-1 $-1 $284 $77 #
coedge $-1 $196 $196 $197 $285 reversed $122 $-1 #
coedge $-1 $197 $197 $196 $285 forward $124 $-1 #
coedge $-1 $198 $198 $125 $199 forward $193 $-1 #
edge $-1 $286 0 $286 6.2831853071796004 $198 $287 forward 7 unknown #
face $-1 $288 $289 $30 $-1 $290 reversed single #
loop $-1 $-1 $209 $126 #
plane-surface $-1 0 -39.741427006590065 0 0 1 0 0 0 1 forward_v I I I I #
coedge $-1 $214 $213 $291 $292 forward $127 $-1 #
coedge $-1 $293 $129 $294 $295 forward $81 $-1 #
coedge $-1 $129 $293 $296 $297 forward $81 $-1 #
coedge $-1 $298 $299 $129 $207 reversed $300 $-1 #
edge $-1 $301 -39.741427006590065 $302 39.741427006590065 $206 $303 forward 7 unknown #
coedge $-1 $131 $130 $293 $304 reversed $51 $-1 #
coedge $-1 $305 $296 $130 $210 forward $201 $-1 #
edge $-1 $306 -13.861288699918084 $215 13.861288699918084 $130 $307 forward 7 unknown #
coedge $-1 $294 $308 $131 $212 reversed $289 $-1 #
edge $-1 $309 -13.861288699918084 $216 13.861288699918084 $211 $310 forward 7 unknown #
coedge $-1 $203 $132 $308 $311 forward $127 $-1 #
coedge $-1 $132 $203 $305 $312 forward $127 $-1 #
vertex $-1 $133 $313 #
vertex $-1 $311 $314 #
straight-curve $-1 -73.558153019806511 0 -13.861288699918084 0 1 0 I I #
face $-1 $315 $230 $31 $-1 $316 reversed single #
loop $-1 $-1 $317 $134 #
plane-surface $-1 -86.455661878877905 -15.540582281569659 0 1 0 0 0 0 -1 forward_v I I I I #
coedge $-1 $318 $319 $320 $321 forward $135 $-1 #
coedge $-1 $322 $137 $318 $323 forward $85 $-1 #
coedge $-1 $137 $322 $228 $324 forward $85 $-1 #
edge $-1 $231 12.018849606753896 $325 19.062314956385421 $137 $326 forward 7 unknown #
coedge $-1 $139 $138 $327 $328 forward $54 $-1 #
coedge $-1 $329 $330 $138 $227 forward $331 $-1 #
edge $-1 $332 -19.062314956385421 $232 -12.018849606753896 $226 $333 forward 7 unknown #
coedge $-1 $334 $140 $223 $324 reversed $230 $-1 #
coedge $-1 $140 $334 $329 $335 reversed $230 $-1 #
loop $-1 $-1 $140 $218 #
vertex $-1 $224 $336 #
vertex $-1 $335 $337 #
straight-curve $-1 -73.558153019806511 -12.018849606753896 0 0 0 1 I I #
face $-1 $-1 $338 $32 $-1 $339 forward single #
loop $-1 $-1 $148 $142 #
plane-surface $-1 73.558153019806511 0 0 -1 0 0 0 0 1 forward_v I I I I #
coedge $-1 $340 $341 $146 $243 forward $143 $-1 #
coedge $-1 $239 $145 $147 $244 reversed $89 $-1 #
coedge $-1 $145 $238 $342 $343 reversed $89 $-1 #
coedge $-1 $344 $148 $145 $241 forward $235 $-1 #
edge $-1 $247 -96.593660945536783 $345 -90.509660882545489 $240 $346 forward 7 unknown #
coedge $-1 $147 $146 $347 $348 reversed $57 $-1 #
edge $-1 $349 81.554827900372459 $246 88.580025985861326 $237 $350 forward 7 unknown #
edge $-1 $351 140.09110795412411 $247 147.11630603961297 $238 $352 forward 7 unknown #
coedge $-1 $148 $344 $340 $353 forward $235 $-1 #
vertex $-1 $149 $354 #
vertex $-1 $149 $355 #
straight-curve $-1 73.558153019806511 -16.471158071668043 7.7772886369267837 0 1 0 I I #
coedge $-1 $249 $249 $-1 $356 reversed $152 $-1 #
edge $-1 $357 0 $357 6.2831853071796004 $153 $358 forward 7 unknown #
vertex $-1 $156 $359 #
ellipse-curve $-1 71.801853545494268 -37.021782661288469 10.819288668422397 0.86602541151947299 0 0.49999998660252726 0.49999998660252726 0 -0.86602541151947299 1 I I #
coedge $-1 $253 $253 $-1 $360 reversed $159 $-1 #
edge $-1 $361 0 $361 6.2831853071796004 $160 $362 forward 7 unknown #
vertex $-1 $163 $363 #
ellipse-curve $-1 71.801853545494268 -32.942316143336079 10.819288668422397 0.86602541151947299 0 0.49999998660252726 0.49999998660252726 0 -0.86602541151947299 1 I I #
coedge $-1 $257 $257 $-1 $364 reversed $166 $-1 #
edge $-1 $365 0 $365 6.2831853071796004 $167 $366 forward 7 unknown #
vertex $-1 $170 $367 #
ellipse-curve $-1 71.801853545494268 -28.862849625383692 10.819288668422397 0.86602541151947299 0 0.49999998660252726 0.49999998660252726 0 -0.86602541151947299 1 I I #
face $-1 $-1 $368 $36 $-1 $369 forward single #
loop $-1 $-1 $177 $171 #
plane-surface $-1 73.558153019806511 0 0 -1 0 0 0 0 1 forward_v I I I I #
coedge $-1 $370 $371 $372 $373 reversed $172 $-1 #
coedge $-1 $374 $174 $176 $271 forward $108 $-1 #
coedge $-1 $174 $374 $370 $375 forward $108 $-1 #
coedge $-1 $372 $177 $174 $268 forward $262 $-1 #
edge $-1 $274 -3.3995554316269931 $376 10.198666294880972 $267 $377 forward 7 unknown #
coedge $-1 $378 $379 $175 $270 forward $368 $-1 #
edge $-1 $380 6.3423233460983184 $273 9.8549222947228472 $269 $381 forward 7 unknown #
edge $-1 $274 -147.11630603961297 $380 -140.09110795412411 $176 $382 forward 7 unknown #
coedge $-1 $177 $372 $378 $383 reversed $262 $-1 #
vertex $-1 $383 $384 #
vertex $-1 $178 $385 #
straight-curve $-1 73.558153019806511 -3.5527136788005009e-015 104.37094958246357 0 0 -1 I I #
coedge $-1 $276 $276 $-1 $386 reversed $181 $-1 #
edge $-1 $387 0 $387 6.2831853071796004 $182 $388 forward 7 unknown #
vertex $-1 $185 $389 #
ellipse-curve $-1 71.801853545494268 2.7196443453015959 10.819288668422397 0.86602541151947299 0 0.49999998660252726 0.49999998660252726 0 -0.86602541151947299 1 I I #
coedge $-1 $280 $280 $-1 $390 reversed $188 $-1 #
edge $-1 $391 0 $391 6.2831853071796004 $189 $392 forward 7 unknown #
vertex $-1 $192 $393 #
ellipse-curve $-1 71.801853545494268 6.7991108632539863 10.819288668422397 0.86602541151947299 0 0.49999998660252726 0.49999998660252726 0 -0.86602541151947299 1 I I #
coedge $-1 $284 $284 $-1 $394 reversed $195 $-1 #
edge $-1 $395 0 $395 6.2831853071796004 $196 $396 forward 7 unknown #
vertex $-1 $199 $397 #
ellipse-curve $-1 71.801853545494268 10.878577381206377 10.819288668422397 0.86602541151947299 0 0.49999998660252726 0.49999998660252726 0 -0.86602541151947299 1 I I #
face $-1 $-1 $300 $30 $-1 $398 reversed single #
loop $-1 $-1 $399 $200 #
plane-surface $-1 0 39.741427006590065 0 0 -1 0 0 0 -1 forward_v I I I I #
coedge $-1 $299 $298 $203 $292 reversed $300 $-1 #
edge $-1 $400 -39.741427006590065 $401 39.741427006590065 $291 $402 forward 7 unknown #
coedge $-1 $205 $204 $208 $304 forward $81 $-1 #
coedge $-1 $399 $211 $204 $295 reversed $289 $-1 #
edge $-1 $302 -73.558153019806511 $309 73.558153019806511 $294 $403 forward 7 unknown #
coedge $-1 $209 $404 $205 $297 reversed $201 $-1 #
edge $-1 $306 -73.558153019806511 $301 73.558153019806511 $296 $405 forward 7 unknown #
coedge $-1 $291 $206 $404 $406 forward $300 $-1 #
coedge $-1 $206 $291 $399 $407 reversed $300 $-1 #
loop $-1 $-1 $298 $288 #
vertex $-1 $207 $408 #
vertex $-1 $207 $409 #
straight-curve $-1 73.558153019806511 0 13.861288699918084 0 1 0 I I #
edge $-1 $309 -39.741427006590065 $306 39.741427006590065 $208 $410 forward 7 unknown #
coedge $-1 $404 $209 $214 $312 reversed $201 $-1 #
vertex $-1 $304 $411 #
straight-curve $-1 -73.558153019806511 -39.741427006590065 0 0 0 -1 I I #
coedge $-1 $211 $399 $213 $311 reversed $289 $-1 #
vertex $-1 $295 $412 #
straight-curve $-1 -73.558153019806511 39.741427006590065 0 0 0 -1 I I #
edge $-1 $216 -73.558153019806511 $400 73.558153019806511 $308 $413 forward 7 unknown #
edge $-1 $401 -73.558153019806511 $215 73.558153019806511 $305 $414 forward 7 unknown #
point $-1 -73.558153019806511 -39.741427006590065 -13.861288699918084 #
point $-1 -73.558153019806511 39.741427006590065 -13.861288699918084 #
face $-1 $-1 $331 $31 $-1 $415 forward single #
plane-surface $-1 -80.006907449342208 -12.018849606753896 0 0 -1 0 0 0 -1 forward_v I I I I #
coedge $-1 $416 $417 $334 $418 forward $219 $-1 #
coedge $-1 $327 $221 $222 $323 reversed $135 $-1 #
coedge $-1 $221 $327 $330 $419 reversed $135 $-1 #
coedge $-1 $417 $416 $221 $321 reversed $219 $-1 #
edge $-1 $420 -13.861288699918084 $421 13.861288699918084 $320 $422 forward 7 unknown #
coedge $-1 $223 $222 $416 $423 forward $85 $-1 #
edge $-1 $325 -6.4487544295356969 $421 6.4487544295356969 $318 $424 forward 7 unknown #
edge $-1 $425 -6.4487544295356969 $231 6.4487544295356969 $228 $426 forward 7 unknown #
vertex $-1 $323 $427 #
straight-curve $-1 -73.558153019806511 0 -13.861288699918084 0 -1 0 I I #
coedge $-1 $319 $318 $225 $328 reversed $135 $-1 #
edge $-1 $332 -13.861288699918084 $325 13.861288699918084 $327 $428 forward 7 unknown #
coedge $-1 $429 $226 $229 $335 forward $331 $-1 #
coedge $-1 $226 $429 $319 $419 forward $331 $-1 #
loop $-1 $-1 $226 $315 #
vertex $-1 $227 $430 #
straight-curve $-1 -73.558153019806511 0 13.861288699918084 0 1 0 I I #
coedge $-1 $229 $228 $317 $418 reversed $230 $-1 #
edge $-1 $232 -6.4487544295356969 $431 6.4487544295356969 $229 $432 forward 7 unknown #
point $-1 -73.558153019806511 -12.018849606753896 -13.861288699918084 #
point $-1 -73.558153019806511 -12.018849606753896 13.861288699918084 #
loop $-1 $-1 $347 $234 #
plane-surface $-1 0 0 13.861288699918084 0 0 1 1 0 0 forward_v I I I I #
coedge $-1 $341 $237 $245 $353 reversed $143 $-1 #
coedge $-1 $237 $340 $433 $434 reversed $143 $-1 #
coedge $-1 $347 $435 $239 $343 forward $338 $-1 #
edge $-1 $345 -9.8549222947228472 $351 -6.3423233460983184 $342 $436 forward 7 unknown #
coedge $-1 $245 $240 $435 $437 reversed $235 $-1 #
vertex $-1 $241 $438 #
straight-curve $-1 73.558153019806511 -26.143205280082103 104.37094958246357 0 0 1 I I #
coedge $-1 $433 $342 $242 $348 forward $338 $-1 #
edge $-1 $351 9.6720472084140603 $349 23.270268934922029 $347 $439 forward 7 unknown #
vertex $-1 $434 $440 #
straight-curve $-1 29.268141213624332 -39.741427006590065 84.489842093737934 0.49999998660252726 0 -0.86602541151947299 I I #
vertex $-1 $348 $441 #
straight-curve $-1 1.9709867302708517e-006 -26.143205280082103 135.18374811610732 0.49999998660252726 0 -0.86602541151947299 I I #
edge $-1 $442 -13.861288699918084 $246 -7.7772886369267713 $245 $443 forward 7 unknown #
point $-1 73.558153019806511 -39.741427006590065 7.7772886369267713 #
point $-1 73.558153019806511 -26.143205280082103 7.7772886369267837 #
edge $-1 $444 1 $444 0 $249 $-1 forward 7 unknown #
vertex $-1 $250 $445 #
ellipse-curve $-1 68.519562526139651 -37.021782661288469 8.9242571325423494 0.86602541151947299 0 0.49999998660252726 0.49999998660252726 0 -0.86602541151947299 1 I I #
point $-1 72.301853532096771 -37.021782661288469 9.9532632569029147 #
edge $-1 $446 1 $446 0 $253 $-1 forward 7 unknown #
vertex $-1 $254 $447 #
ellipse-curve $-1 68.519562526139651 -32.942316143336079 8.9242571325423494 0.86602541151947299 0 0.49999998660252726 0.49999998660252726 0 -0.86602541151947299 1 I I #
point $-1 72.301853532096771 -32.942316143336079 9.9532632569029147 #
edge $-1 $448 1 $448 0 $257 $-1 forward 7 unknown #
vertex $-1 $258 $449 #
ellipse-curve $-1 68.519562526139651 -28.862849625383692 8.9242571325423494 0.86602541151947299 0 0.49999998660252726 0.49999998660252726 0 -0.86602541151947299 1 I I #
point $-1 72.301853532096771 -28.862849625383692 9.9532632569029147 #
loop $-1 $-1 $269 $261 #
plane-surface $-1 0 0 13.861288699918084 0 0 1 1 0 0 forward_v I I I I #
coedge $-1 $371 $264 $266 $375 reversed $172 $-1 #
coedge $-1 $264 $370 $450 $451 reversed $172 $-1 #
coedge $-1 $272 $267 $264 $373 forward $262 $-1 #
edge $-1 $376 -96.593660945536783 $452 -90.509660882545489 $372 $453 forward 7 unknown #
coedge $-1 $266 $265 $379 $454 reversed $108 $-1 #
edge $-1 $455 140.09110795412411 $376 147.11630603961297 $370 $456 forward 7 unknown #
vertex $-1 $268 $457 #
straight-curve $-1 73.558153019806511 3.3995554316269896 7.7772886369267837 0 1 0 I I #
coedge $-1 $450 $269 $272 $383 forward $368 $-1 #
coedge $-1 $269 $450 $374 $454 forward $368 $-1 #
vertex $-1 $270 $458 #
straight-curve $-1 63.703230725083664 -3.5527136788005009e-015 13.861288699918077 1 0 0 I I #
straight-curve $-1 1.9709867302708517e-006 -3.5527136788005009e-015 135.18374811610732 -0.49999998660252726 0 0.86602541151947299 I I #
edge $-1 $273 -3.5527136788005009e-015 $452 13.598221726507962 $272 $459 forward 7 unknown #
point $-1 73.558153019806511 -3.5527136788005009e-015 13.861288699918084 #
point $-1 73.558153019806511 -3.5527136788005009e-015 7.7772886369267837 #
edge $-1 $460 1 $460 0 $276 $-1 forward 7 unknown #
vertex $-1 $277 $461 #
ellipse-curve $-1 68.519562526139651 2.7196443453015959 8.9242571325423494 0.86602541151947299 0 0.49999998660252726 0.49999998660252726 0 -0.86602541151947299 1 I I #
point $-1 72.301853532096771 2.7196443453015959 9.9532632569029147 #
edge $-1 $462 1 $462 0 $280 $-1 forward 7 unknown #
vertex $-1 $281 $463 #
ellipse-curve $-1 68.519562526139651 6.7991108632539863 8.9242571325423494 0.86602541151947299 0 0.49999998660252726 0.49999998660252726 0 -0.86602541151947299 1 I I #
point $-1 72.301853532096771 6.7991108632539863 9.9532632569029147 #
edge $-1 $464 1 $464 0 $284 $-1 forward 7 unknown #
vertex $-1 $285 $465 #
ellipse-curve $-1 68.519562526139651 10.878577381206377 8.9242571325423494 0.86602541151947299 0 0.49999998660252726 0.49999998660252726 0 -0.86602541151947299 1 I I #
point $-1 72.301853532096771 10.878577381206377 9.9532632569029147 #
plane-surface $-1 73.558153019806511 0 0 -1 0 0 0 0 1 forward_v I I I I #
coedge $-1 $308 $294 $299 $407 forward $289 $-1 #
vertex $-1 $292 $466 #
vertex $-1 $406 $467 #
straight-curve $-1 73.558153019806511 0 -13.861288699918084 0 -1 0 I I #
straight-curve $-1 0 39.741427006590065 13.861288699918084 -1 0 0 I I #
coedge $-1 $296 $305 $298 $406 reversed $201 $-1 #
straight-curve $-1 0 -39.741427006590065 13.861288699918084 1 0 0 I I #
edge $-1 $301 -13.861288699918084 $401 13.861288699918084 $298 $468 forward 7 unknown #
edge $-1 $302 -13.861288699918084 $400 13.861288699918084 $299 $469 forward 7 unknown #
point $-1 73.558153019806511 -39.741427006590065 13.861288699918084 #
point $-1 73.558153019806511 39.741427006590065 13.861288699918084 #
straight-curve $-1 -73.558153019806511 0 13.861288699918084 0 -1 0 I I #
point $-1 -73.558153019806511 -39.741427006590065 13.861288699918084 #
point $-1 -73.558153019806511 39.741427006590065 13.861288699918084 #
straight-curve $-1 0 39.741427006590065 -13.861288699918084 1 0 0 I I #
straight-curve $-1 0 -39.741427006590065 -13.861288699918084 -1 0 0 I I #
plane-surface $-1 0 0 13.861288699918084 0 0 1 1 0 0 forward_v I I I I #
coedge $-1 $320 $317 $322 $423 reversed $219 $-1 #
coedge $-1 $317 $320 $429 $470 reversed $219 $-1 #
edge $-1 $431 -13.861288699918084 $425 13.861288699918084 $334 $471 forward 7 unknown #
edge $-1 $420 -6.4487544295356969 $332 6.4487544295356969 $319 $472 forward 7 unknown #
vertex $-1 $470 $473 #
vertex $-1 $423 $474 #
straight-curve $-1 -86.455661878877905 -19.062314956385421 0 0 0 -1 I I #
edge $-1 $421 -3.5217326748157625 $425 3.5217326748157625 $416 $475 forward 7 unknown #
straight-curve $-1 -80.006907449342208 -19.062314956385421 -13.861288699918084 -1 0 0 I I #
vertex $-1 $324 $476 #
straight-curve $-1 -80.006907449342208 -12.018849606753896 -13.861288699918084 1 0 0 I I #
point $-1 -73.558153019806511 -19.062314956385421 -13.861288699918084 #
straight-curve $-1 -73.558153019806511 -19.062314956385421 0 0 0 -1 I I #
coedge $-1 $330 $329 $417 $470 forward $331 $-1 #
point $-1 -73.558153019806511 -19.062314956385421 13.861288699918084 #
vertex $-1 $335 $477 #
straight-curve $-1 -80.006907449342208 -12.018849606753896 13.861288699918084 -1 0 0 I I #
coedge $-1 $435 $347 $341 $434 forward $338 $-1 #
edge $-1 $349 70.045554071181982 $442 73.558153019806511 $341 $478 forward 7 unknown #
coedge $-1 $342 $433 $344 $437 forward $338 $-1 #
straight-curve $-1 63.703230725083664 -26.143205280082103 13.861288699918077 -1 0 0 I I #
edge $-1 $442 -39.741427006590065 $345 -26.143205280082103 $344 $479 forward 7 unknown #
point $-1 73.558153019806511 -26.143205280082103 13.861288699918084 #
straight-curve $-1 70.045554071181982 -16.471158071668043 13.861288699918077 0 -1 0 I I #
point $-1 70.045554071181982 -39.741427006590072 13.861288699918077 #
point $-1 70.045554071181982 -26.143205280082103 13.861288699918077 #
vertex $-1 $437 $480 #
straight-curve $-1 73.558153019806511 -39.741427006590065 0 0 0 -1 I I #
vertex $-1 $356 $481 #
point $-1 69.019562512742183 -37.021782661288469 8.0582317210228762 #
vertex $-1 $360 $482 #
point $-1 69.019562512742183 -32.942316143336079 8.0582317210228762 #
vertex $-1 $364 $483 #
point $-1 69.019562512742183 -28.862849625383692 8.0582317210228762 #
coedge $-1 $379 $378 $371 $451 forward $368 $-1 #
edge $-1 $452 -9.8549222947228472 $455 -6.3423233460983184 $450 $484 forward 7 unknown #
vertex $-1 $451 $485 #
straight-curve $-1 73.558153019806511 13.598221726507962 104.37094958246357 0 0 1 I I #
edge $-1 $455 -10.198666294880972 $380 3.3995554316269931 $379 $486 forward 7 unknown #
vertex $-1 $454 $487 #
straight-curve $-1 1.9709867302708517e-006 13.598221726507962 135.18374811610732 0.49999998660252726 0 -0.86602541151947299 I I #
point $-1 73.558153019806511 13.598221726507962 7.7772886369267837 #
point $-1 70.045554071181982 -3.5527136788005009e-015 13.861288699918077 #
straight-curve $-1 73.558153019806511 0 13.861288699918084 0 1 0 I I #
vertex $-1 $386 $488 #
point $-1 69.019562512742183 2.7196443453015959 8.0582317210228762 #
vertex $-1 $390 $489 #
point $-1 69.019562512742183 6.7991108632539863 8.0582317210228762 #
vertex $-1 $394 $490 #
point $-1 69.019562512742183 10.878577381206377 8.0582317210228762 #
point $-1 73.558153019806511 39.741427006590065 -13.861288699918084 #
point $-1 73.558153019806511 -39.741427006590065 -13.861288699918084 #
straight-curve $-1 73.558153019806511 -39.741427006590065 0 0 0 -1 I I #
straight-curve $-1 73.558153019806511 39.741427006590065 0 0 0 -1 I I #
edge $-1 $431 -3.5217326748157625 $420 3.5217326748157625 $417 $491 forward 7 unknown #
straight-curve $-1 -86.455661878877905 -12.018849606753896 0 0 0 -1 I I #
straight-curve $-1 -80.006907449342208 -19.062314956385421 13.861288699918084 1 0 0 I I #
point $-1 -86.455661878877905 -19.062314956385421 13.861288699918084 #
point $-1 -86.455661878877905 -19.062314956385421 -13.861288699918084 #
straight-curve $-1 -86.455661878877905 -15.540582281569659 -13.861288699918084 0 1 0 I I #
point $-1 -86.455661878877905 -12.018849606753896 -13.861288699918084 #
point $-1 -86.455661878877905 -12.018849606753896 13.861288699918084 #
straight-curve $-1 0 -39.741427006590065 13.861288699918084 1 0 0 I I #
straight-curve $-1 73.558153019806511 0 13.861288699918084 0 1 0 I I #
point $-1 73.558153019806511 -39.741427006590065 13.861288699918084 #
point $-1 67.653537114620178 -37.021782661288469 8.424257145939821 #
point $-1 67.653537114620178 -32.942316143336079 8.424257145939821 #
point $-1 67.653537114620178 -28.862849625383692 8.424257145939821 #
straight-curve $-1 63.703230725083664 13.598221726507962 13.861288699918077 -1 0 0 I I #
point $-1 73.558153019806511 13.598221726507962 13.861288699918084 #
straight-curve $-1 70.045554071181982 3.3995554316269896 13.861288699918077 0 -1 0 I I #
point $-1 70.045554071181982 13.598221726507962 13.861288699918077 #
point $-1 67.653537114620178 2.7196443453015959 8.424257145939821 #
point $-1 67.653537114620178 6.7991108632539863 8.424257145939821 #
point $-1 67.653537114620178 10.878577381206377 8.424257145939821 #
straight-curve $-1 -86.455661878877905 -15.540582281569659 13.861288699918084 0 -1 0 I I #
End-of-ACIS-data 