500 0 12 0           
7 Unknown 11 ACIS 5.0 NT 24 Thu Mar 25 16:23:39 1999 
-1 9.9999999999999995e-007 1e-010 
body $-1 $12 $-1 $13 #
body $-1 $14 $-1 $15 #
body $-1 $16 $-1 $17 #
body $-1 $18 $-1 $19 #
body $-1 $20 $-1 $21 #
body $-1 $22 $-1 $23 #
body $-1 $24 $-1 $25 #
body $-1 $26 $-1 $27 #
body $-1 $28 $-1 $29 #
body $-1 $30 $-1 $31 #
body $-1 $32 $-1 $33 #
body $-1 $34 $-1 $35 #
lump $-1 $-1 $36 $0 #
transform $-1 1 0 0 0 1 0 0 0 1 63.971678823206275 32.499885343002113 9.1452358414446451 1 rotate no_reflect no_shear #
lump $-1 $-1 $37 $1 #
transform $-1 1 0 0 0 1 0 0 0 1 63.971678823206275 32.499885343002113 9.1452358414446451 1 rotate no_reflect no_shear #
lump $-1 $-1 $38 $2 #
transform $-1 1 0 0 0 1 0 0 0 1 63.971678823206275 32.499885343002113 9.1452358414446451 1 rotate no_reflect no_shear #
lump $-1 $-1 $39 $3 #
transform $-1 1 0 0 0 1 0 0 0 1 63.971678823206275 32.499885343002113 9.1452358414446451 1 rotate no_reflect no_shear #
lump $-1 $-1 $40 $4 #
transform $-1 1 0 0 0 1 0 0 0 1 63.971678823206275 32.499885343002113 9.1452358414446451 1 rotate no_reflect no_shear #
lump $-1 $-1 $41 $5 #
transform $-1 1 0 0 0 1 0 0 0 1 63.971678823206275 32.499885343002113 9.1452358414446451 1 rotate no_reflect no_shear #
lump $-1 $-1 $42 $6 #
transform $-1 1 0 0 0 1 0 0 0 1 63.971678823206275 32.499885343002113 9.1452358414446451 1 rotate no_reflect no_shear #
lump $-1 $-1 $43 $7 #
transform $-1 1 0 0 0 1 0 0 0 1 63.971678823206275 32.499885343002113 9.1452358414446451 1 rotate no_reflect no_shear #
lump $-1 $-1 $44 $8 #
transform $-1 1 0 0 0 1 0 0 0 1 63.971678823206275 32.499885343002113 9.1452358414446451 1 rotate no_reflect no_shear #
lump $-1 $-1 $45 $9 #
transform $-1 1 0 0 0 1 0 0 0 1 63.971678823206275 32.499885343002113 9.1452358414446451 1 rotate no_reflect no_shear #
lump $-1 $-1 $46 $10 #
transform $-1 1 0 0 0 1 0 0 0 1 63.971678823206275 32.499885343002113 9.1452358414446451 1 rotate no_reflect no_shear #
lump $-1 $-1 $47 $11 #
transform $-1 1 0 0 0 1 0 0 0 1 63.971678823206275 32.499885343002113 9.1452358414446451 1 rotate no_reflect no_shear #
shell $-1 $-1 $-1 $48 $-1 $12 #
shell $-1 $-1 $-1 $49 $-1 $14 #
shell $-1 $-1 $-1 $50 $-1 $16 #
shell $-1 $-1 $-1 $51 $-1 $18 #
shell $-1 $-1 $-1 $52 $-1 $20 #
shell $-1 $-1 $-1 $53 $-1 $22 #
shell $-1 $-1 $-1 $54 $-1 $24 #
shell $-1 $-1 $-1 $55 $-1 $26 #
shell $-1 $-1 $-1 $56 $-1 $28 #
shell $-1 $-1 $-1 $57 $-1 $30 #
shell $-1 $-1 $-1 $58 $-1 $32 #
shell $-1 $-1 $-1 $59 $-1 $34 #
face $-1 $60 $61 $36 $-1 $62 forward single #
face $-1 $63 $64 $37 $-1 $65 reversed single #
face $-1 $66 $67 $38 $-1 $68 reversed single #
face $-1 $69 $70 $39 $-1 $71 forward single #
face $-1 $72 $73 $40 $-1 $74 forward single #
face $-1 $75 $76 $41 $-1 $77 reversed single #
face $-1 $78 $79 $42 $-1 $80 forward single #
face $-1 $81 $82 $43 $-1 $83 forward single #
face $-1 $84 $85 $44 $-1 $86 reversed single #
face $-1 $87 $88 $45 $-1 $89 forward single #
face $-1 $90 $91 $46 $-1 $92 reversed single #
face $-1 $93 $94 $47 $-1 $95 forward single #
face $-1 $96 $97 $36 $-1 $98 reversed single #
loop $-1 $-1 $99 $48 #
plane-surface $-1 0 0 9.1452358414446451 0 0 1 1 0 0 forward_v I I I I #
face $-1 $100 $101 $37 $-1 $102 reversed single #
loop $-1 $-1 $103 $49 #
plane-surface $-1 -50.409087816207489 -27.352175628451491 0 1 0 0 0 0 -1 forward_v I I I I #
face $-1 $104 $105 $38 $-1 $106 reversed single #
loop $-1 $-1 $107 $50 #
plane-surface $-1 -146.21208487083121 -14.006368702989574 103.95467412991073 0 1 0 -0.64278761758704617 0 0.76604443648966558 forward_v I I I I #
face $-1 $108 $109 $39 $-1 $110 forward single #
loop $-1 $111 $112 $51 #
cone-surface $-1 -61.742967434709477 -10.169863191559031 7.1617841120119232 0.64278761758704617 0 -0.76604443648966558 0.38302221824483279 0 0.32139380879352308 1 I I 0 1 0.5 forward I I I I #
face $-1 $113 $114 $40 $-1 $115 forward single #
loop $-1 $116 $117 $52 #
cone-surface $-1 -61.742967434709477 -4.415104924413221 7.1617841120119232 0.64278761758704617 0 -0.76604443648966558 0.38302221824483279 0 0.32139380879352308 1 I I 0 1 0.5 forward I I I I #
face $-1 $118 $119 $41 $-1 $120 reversed single #
loop $-1 $-1 $121 $53 #
plane-surface $-1 -146.21208487083121 13.345806925461924 103.95467412991073 0 1 0 -0.64278761758704617 0 0.76604443648966558 forward_v I I I I #
face $-1 $122 $123 $42 $-1 $124 forward single #
loop $-1 $125 $126 $54 #
cone-surface $-1 -61.742967434709477 17.182312436892467 7.1617841120119232 0.64278761758704617 0 -0.76604443648966558 0.38302221824483279 0 0.32139380879352308 1 I I 0 1 0.5 forward I I I I #
face $-1 $127 $128 $43 $-1 $129 forward single #
loop $-1 $130 $131 $55 #
cone-surface $-1 -61.742967434709477 22.93707070403827 7.1617841120119232 0.64278761758704617 0 -0.76604443648966558 0.38302221824483279 0 0.32139380879352308 1 I I 0 1 0.5 forward I I I I #
face $-1 $132 $133 $44 $-1 $134 reversed single #
loop $-1 $-1 $135 $56 #
plane-surface $-1 23.269209357431762 -1.2431587301235112 180.82194310016487 0 -1 0 -0.52991927123019833 0 -0.84804809178421925 forward_v I I I I #
face $-1 $136 $137 $45 $-1 $138 forward single #
loop $-1 $139 $140 $57 #
cone-surface $-1 58.694034231393104 -7.7638937305812519 4.3092645508134559 -0.52991927123019833 0 -0.84804809178421925 1.6960961835684385 0 -1.0598385424603967 1 I I 0 1 2 forward I I I I #
face $-1 $141 $142 $46 $-1 $143 reversed single #
loop $-1 $-1 $144 $58 #
plane-surface $-1 23.269209357431762 26.10901689832798 180.82194310016487 0 -1 0 -0.52991927123019833 0 -0.84804809178421925 forward_v I I I I #
face $-1 $145 $146 $47 $-1 $147 forward single #
loop $-1 $148 $149 $59 #
cone-surface $-1 58.694034231393104 19.588281897870239 4.3092645508134559 -0.52991927123019833 0 -0.84804809178421925 1.6960961835684385 0 -1.0598385424603967 1 I I 0 1 2 forward I I I I #
face $-1 $150 $151 $36 $-1 $152 reversed single #
loop $-1 $-1 $153 $60 #
plane-surface $-1 0 0 -9.1452358414446451 0 0 1 1 0 0 forward_v I I I I #
coedge $-1 $154 $155 $156 $157 forward $61 $-1 #
face $-1 $158 $159 $37 $-1 $160 reversed single #
loop $-1 $-1 $161 $63 #
plane-surface $-1 -48.045147478262237 -22.204465913900869 0 0 -1 0 0 0 -1 forward_v I I I I #
coedge $-1 $162 $163 $164 $165 forward $64 $-1 #
face $-1 $166 $167 $38 $-1 $168 reversed single #
loop $-1 $-1 $169 $66 #
plane-surface $-1 -63.97167882320629 -7.2924840579861296 5.9443768190688786 -0.64278761758704617 0 0.76604443648966558 0.76604443648966558 0 0.64278761758704617 forward_v I I I I #
coedge $-1 $170 $171 $172 $173 reversed $67 $-1 #
face $-1 $-1 $174 $39 $-1 $175 forward single #
loop $-1 $176 $177 $69 #
cone-surface $-1 -61.260876721519196 -10.169863191559031 6.5872507846446737 0.64278761758704617 0 -0.76604443648966558 0.1915111091224164 0 0.16069690439676154 1 I I -0.70710678118654746 0.70710678118654746 0.25 forward I I I I #
loop $-1 $-1 $178 $51 #
coedge $-1 $112 $112 $179 $180 reversed $70 $-1 #
face $-1 $-1 $181 $40 $-1 $182 forward single #
loop $-1 $183 $184 $72 #
cone-surface $-1 -61.260876721519196 -4.415104924413221 6.5872507846446737 0.64278761758704617 0 -0.76604443648966558 0.1915111091224164 0 0.16069690439676154 1 I I -0.70710678118654746 0.70710678118654746 0.25 forward I I I I #
loop $-1 $-1 $185 $52 #
coedge $-1 $117 $117 $186 $187 reversed $73 $-1 #
face $-1 $188 $189 $41 $-1 $190 reversed single #
loop $-1 $-1 $191 $75 #
plane-surface $-1 -63.97167882320629 20.059691570465368 5.9443768190688786 -0.64278761758704617 0 0.76604443648966558 0.76604443648966558 0 0.64278761758704617 forward_v I I I I #
coedge $-1 $192 $193 $194 $195 reversed $76 $-1 #
face $-1 $-1 $196 $42 $-1 $197 forward single #
loop $-1 $198 $199 $78 #
cone-surface $-1 -61.260876721519196 17.182312436892467 6.5872507846446737 0.64278761758704617 0 -0.76604443648966558 0.1915111091224164 0 0.16069690439676154 1 I I -0.70710678118654746 0.70710678118654746 0.25 forward I I I I #
loop $-1 $-1 $200 $54 #
coedge $-1 $126 $126 $201 $202 reversed $79 $-1 #
face $-1 $-1 $203 $43 $-1 $204 forward single #
loop $-1 $205 $206 $81 #
cone-surface $-1 -61.260876721519196 22.93707070403827 6.5872507846446737 0.64278761758704617 0 -0.76604443648966558 0.1915111091224164 0 0.16069690439676154 1 I I -0.70710678118654746 0.70710678118654746 0.25 forward I I I I #
loop $-1 $-1 $207 $55 #
coedge $-1 $131 $131 $208 $209 reversed $82 $-1 #
face $-1 $210 $211 $44 $-1 $212 reversed single #
loop $-1 $-1 $213 $84 #
plane-surface $-1 -44.530441485299804 -7.7638937305812519 72.319822791658808 0.52991927123019833 0 0.84804809178421925 0.84804809178421925 0 -0.52991927123019833 forward_v I I I I #
coedge $-1 $214 $215 $216 $217 reversed $85 $-1 #
face $-1 $-1 $218 $45 $-1 $219 forward single #
loop $-1 $220 $221 $87 #
cone-surface $-1 56.587295023512752 -7.7638937305812519 0.93777711465675395 -0.52991927123019833 0 -0.84804809178421925 0.84804809178421925 0 -0.52991927123019833 1 I I -0.70710678118654746 0.70710678118654746 1 forward I I I I #
loop $-1 $-1 $222 $57 #
coedge $-1 $140 $140 $223 $224 reversed $88 $-1 #
face $-1 $225 $226 $46 $-1 $227 reversed single #
loop $-1 $-1 $228 $90 #
plane-surface $-1 -44.530441485299804 19.588281897870239 72.319822791658808 0.52991927123019833 0 0.84804809178421925 0.84804809178421925 0 -0.52991927123019833 forward_v I I I I #
coedge $-1 $229 $230 $231 $232 reversed $91 $-1 #
face $-1 $-1 $233 $47 $-1 $234 forward single #
loop $-1 $235 $236 $93 #
cone-surface $-1 56.587295023512752 19.588281897870239 0.93777711465675395 -0.52991927123019833 0 -0.84804809178421925 0.84804809178421925 0 -0.52991927123019833 1 I I -0.70710678118654746 0.70710678118654746 1 forward I I I I #
loop $-1 $-1 $237 $59 #
coedge $-1 $149 $149 $238 $239 reversed $94 $-1 #
face $-1 $240 $241 $36 $-1 $242 reversed single #
loop $-1 $-1 $243 $96 #
plane-surface $-1 0 -32.499885343002113 0 0 1 0 0 0 1 forward_v I I I I #
coedge $-1 $244 $245 $246 $247 forward $97 $-1 #
coedge $-1 $248 $99 $249 $250 forward $61 $-1 #
coedge $-1 $99 $248 $251 $252 forward $61 $-1 #
coedge $-1 $253 $254 $99 $157 reversed $255 $-1 #
edge $-1 $256 -32.499885343002113 $257 32.499885343002113 $156 $258 forward 7 unknown #
face $-1 $259 $260 $37 $-1 $261 forward single #
loop $-1 $-1 $262 $100 #
plane-surface $-1 -45.681207140316985 -27.352175628451491 0 -1 0 0 0 0 1 forward_v I I I I #
coedge $-1 $263 $264 $265 $266 forward $101 $-1 #
coedge $-1 $267 $103 $268 $269 reversed $64 $-1 #
coedge $-1 $103 $267 $270 $271 reversed $64 $-1 #
coedge $-1 $264 $263 $103 $165 reversed $101 $-1 #
edge $-1 $272 -9.1452358414446451 $273 9.1452358414446451 $164 $274 forward 7 unknown #
face $-1 $275 $276 $38 $-1 $277 reversed single #
loop $-1 $-1 $278 $104 #
plane-surface $-1 -146.21208487083121 -0.57859941298268502 103.95467412991073 0 -1 0 0.64278761758704617 0 -0.76604443648966558 forward_v I I I I #
coedge $-1 $279 $280 $281 $282 reversed $105 $-1 #
coedge $-1 $171 $107 $283 $284 reversed $67 $-1 #
coedge $-1 $107 $170 $279 $285 reversed $67 $-1 #
coedge $-1 $281 $286 $107 $173 forward $287 $-1 #
edge $-1 $288 9.1343636122093272 $289 12.948998771615841 $172 $290 forward 7 unknown #
loop $-1 $-1 $179 $108 #
plane-surface $-1 -63.97167882320629 -7.2924840579861296 5.9443768190688786 -0.64278761758704617 0 0.76604443648966558 0.76604443648966558 0 0.64278761758704617 forward_v I I I I #
loop $-1 $-1 $291 $69 #
coedge $-1 $177 $177 $178 $292 reversed $109 $-1 #
coedge $-1 $178 $178 $177 $292 forward $111 $-1 #
coedge $-1 $179 $179 $112 $180 forward $174 $-1 #
edge $-1 $293 0 $293 6.2831853071796004 $179 $294 forward 7 unknown #
loop $-1 $-1 $186 $113 #
plane-surface $-1 -63.97167882320629 -7.2924840579861296 5.9443768190688786 -0.64278761758704617 0 0.76604443648966558 0.76604443648966558 0 0.64278761758704617 forward_v I I I I #
loop $-1 $-1 $295 $72 #
coedge $-1 $184 $184 $185 $296 reversed $114 $-1 #
coedge $-1 $185 $185 $184 $296 forward $116 $-1 #
coedge $-1 $186 $186 $117 $187 forward $181 $-1 #
edge $-1 $297 0 $297 6.2831853071796004 $186 $298 forward 7 unknown #
face $-1 $299 $300 $41 $-1 $301 forward single #
loop $-1 $-1 $302 $118 #
plane-surface $-1 -146.21208487083121 26.773576215468815 103.95467412991073 0 -1 0 0.64278761758704617 0 -0.76604443648966558 forward_v I I I I #
coedge $-1 $303 $304 $305 $306 reversed $119 $-1 #
coedge $-1 $193 $121 $307 $308 reversed $76 $-1 #
coedge $-1 $121 $192 $303 $309 reversed $76 $-1 #
coedge $-1 $305 $310 $121 $195 forward $300 $-1 #
edge $-1 $311 9.1343636122093272 $312 12.948998771615841 $194 $313 forward 7 unknown #
loop $-1 $-1 $201 $122 #
plane-surface $-1 -63.97167882320629 20.059691570465368 5.9443768190688786 -0.64278761758704617 0 0.76604443648966558 0.76604443648966558 0 0.64278761758704617 forward_v I I I I #
loop $-1 $-1 $314 $78 #
coedge $-1 $199 $199 $200 $315 reversed $123 $-1 #
coedge $-1 $200 $200 $199 $315 forward $125 $-1 #
coedge $-1 $201 $201 $126 $202 forward $196 $-1 #
edge $-1 $316 0 $316 6.2831853071796004 $201 $317 forward 7 unknown #
loop $-1 $-1 $208 $127 #
plane-surface $-1 -63.97167882320629 20.059691570465368 5.9443768190688786 -0.64278761758704617 0 0.76604443648966558 0.76604443648966558 0 0.64278761758704617 forward_v I I I I #
loop $-1 $-1 $318 $81 #
coedge $-1 $206 $206 $207 $319 reversed $128 $-1 #
coedge $-1 $207 $207 $206 $319 forward $130 $-1 #
coedge $-1 $208 $208 $131 $209 forward $203 $-1 #
edge $-1 $320 0 $320 6.2831853071796004 $208 $321 forward 7 unknown #
face $-1 $322 $323 $44 $-1 $324 forward single #
loop $-1 $-1 $325 $132 #
plane-surface $-1 23.269209357431762 -14.284628731038993 180.82194310016487 0 1 0 0.52991927123019833 0 0.84804809178421925 forward_v I I I I #
coedge $-1 $326 $327 $328 $329 reversed $133 $-1 #
coedge $-1 $215 $135 $330 $331 reversed $85 $-1 #
coedge $-1 $135 $214 $326 $332 reversed $85 $-1 #
coedge $-1 $328 $333 $135 $217 forward $323 $-1 #
edge $-1 $334 -52.337074144490394 $335 -44.93542483416433 $216 $336 forward 7 unknown #
loop $-1 $-1 $223 $136 #
plane-surface $-1 -44.530441485299804 -7.7638937305812519 72.319822791658808 0.52991927123019833 0 0.84804809178421925 0.84804809178421925 0 -0.52991927123019833 forward_v I I I I #
loop $-1 $-1 $337 $87 #
coedge $-1 $221 $221 $222 $338 reversed $137 $-1 #
coedge $-1 $222 $222 $221 $338 forward $139 $-1 #
coedge $-1 $223 $223 $140 $224 forward $218 $-1 #
edge $-1 $339 0 $339 6.2831853071796004 $223 $340 forward 7 unknown #
face $-1 $341 $342 $46 $-1 $343 reversed single #
loop $-1 $-1 $344 $141 #
plane-surface $-1 23.269209357431762 13.067546897412498 180.82194310016487 0 1 0 0.52991927123019833 0 0.84804809178421925 forward_v I I I I #
coedge $-1 $345 $346 $347 $348 reversed $142 $-1 #
coedge $-1 $230 $144 $349 $350 reversed $91 $-1 #
coedge $-1 $144 $229 $345 $351 reversed $91 $-1 #
coedge $-1 $347 $352 $144 $232 forward $353 $-1 #
edge $-1 $354 -52.337074144490394 $355 -44.93542483416433 $231 $356 forward 7 unknown #
loop $-1 $-1 $238 $145 #
plane-surface $-1 -44.530441485299804 19.588281897870239 72.319822791658808 0.52991927123019833 0 0.84804809178421925 0.84804809178421925 0 -0.52991927123019833 forward_v I I I I #
loop $-1 $-1 $357 $93 #
coedge $-1 $236 $236 $237 $358 reversed $146 $-1 #
coedge $-1 $237 $237 $236 $358 forward $148 $-1 #
coedge $-1 $238 $238 $149 $239 forward $233 $-1 #
edge $-1 $359 0 $359 6.2831853071796004 $238 $360 forward 7 unknown #
face $-1 $361 $362 $36 $-1 $363 reversed single #
loop $-1 $-1 $364 $150 #
plane-surface $-1 -63.971678823206275 0 0 1 0 0 0 0 -1 forward_v I I I I #
coedge $-1 $365 $251 $366 $367 forward $151 $-1 #
coedge $-1 $368 $153 $365 $369 forward $97 $-1 #
coedge $-1 $153 $368 $370 $371 forward $97 $-1 #
coedge $-1 $254 $253 $153 $247 reversed $255 $-1 #
edge $-1 $372 -32.499885343002113 $373 32.499885343002113 $246 $374 forward 7 unknown #
coedge $-1 $155 $154 $375 $376 forward $61 $-1 #
coedge $-1 $377 $378 $154 $250 reversed $362 $-1 #
edge $-1 $257 -63.971678823206275 $379 63.971678823206275 $249 $380 forward 7 unknown #
coedge $-1 $243 $381 $155 $252 reversed $151 $-1 #
edge $-1 $382 -63.971678823206275 $256 63.971678823206275 $251 $383 forward 7 unknown #
coedge $-1 $246 $156 $381 $384 forward $255 $-1 #
coedge $-1 $156 $246 $377 $385 reversed $255 $-1 #
loop $-1 $-1 $253 $361 #
vertex $-1 $157 $386 #
vertex $-1 $157 $387 #
straight-curve $-1 63.971678823206275 0 9.1452358414446451 0 1 0 I I #
face $-1 $388 $389 $37 $-1 $390 reversed single #
loop $-1 $-1 $391 $158 #
plane-surface $-1 0 0 9.1452358414446451 0 0 1 1 0 0 forward_v I I I I #
coedge $-1 $392 $393 $394 $395 reversed $159 $-1 #
coedge $-1 $164 $161 $396 $397 reversed $101 $-1 #
coedge $-1 $161 $164 $398 $399 reversed $101 $-1 #
coedge $-1 $393 $392 $161 $266 reversed $159 $-1 #
edge $-1 $400 -9.1452358414446451 $401 9.1452358414446451 $265 $402 forward 7 unknown #
coedge $-1 $163 $162 $403 $404 reversed $64 $-1 #
coedge $-1 $396 $405 $162 $269 forward $389 $-1 #
edge $-1 $406 -18.823797528776367 $273 -8.5283780996751233 $268 $407 forward 7 unknown #
coedge $-1 $408 $398 $163 $271 forward $260 $-1 #
edge $-1 $272 8.5283780996751233 $409 18.823797528776367 $270 $410 forward 7 unknown #
vertex $-1 $271 $411 #
vertex $-1 $269 $412 #
straight-curve $-1 -50.409087816207489 -22.204465913900869 0 0 0 -1 I I #
face $-1 $-1 $287 $38 $-1 $413 forward single #
loop $-1 $-1 $414 $166 #
plane-surface $-1 -63.971678823206275 0 0 1 0 0 0 0 -1 forward_v I I I I #
coedge $-1 $415 $416 $417 $418 reversed $167 $-1 #
coedge $-1 $419 $169 $171 $285 forward $105 $-1 #
coedge $-1 $169 $419 $415 $420 forward $105 $-1 #
coedge $-1 $417 $172 $169 $282 forward $287 $-1 #
edge $-1 $289 -10.360126673996509 $421 3.0676426160103798 $281 $422 forward 7 unknown #
coedge $-1 $423 $424 $170 $284 forward $276 $-1 #
edge $-1 $425 -46.032960245886471 $288 -42.832101223510719 $283 $426 forward 7 unknown #
edge $-1 $289 -4.9796525863261598 $425 -1.8307977367429951e-014 $171 $427 forward 7 unknown #
coedge $-1 $172 $417 $423 $428 forward $287 $-1 #
loop $-1 $-1 $417 $275 #
vertex $-1 $284 $429 #
vertex $-1 $173 $430 #
straight-curve $-1 -73.106042435415603 -14.006368702989574 9.1452358414446451 1 0 0 I I #
coedge $-1 $291 $291 $-1 $431 reversed $176 $-1 #
edge $-1 $432 0 $432 6.2831853071796004 $177 $433 forward 7 unknown #
vertex $-1 $180 $434 #
ellipse-curve $-1 -62.064361243503015 -10.169863191559031 7.5448063302567716 -0.64278761758704617 0 0.76604443648966558 0.38302221824483279 0 0.32139380879352308 1 I I #
coedge $-1 $295 $295 $-1 $435 reversed $183 $-1 #
edge $-1 $436 0 $436 6.2831853071796004 $184 $437 forward 7 unknown #
vertex $-1 $187 $438 #
ellipse-curve $-1 -62.064361243503015 -4.415104924413221 7.5448063302567716 -0.64278761758704617 0 0.76604443648966558 0.38302221824483279 0 0.32139380879352308 1 I I #
face $-1 $-1 $439 $41 $-1 $440 reversed single #
loop $-1 $-1 $194 $188 #
plane-surface $-1 0 0 9.1452358414446451 0 0 1 1 0 0 forward_v I I I I #
coedge $-1 $441 $442 $443 $444 reversed $189 $-1 #
coedge $-1 $445 $191 $193 $309 forward $119 $-1 #
coedge $-1 $191 $445 $441 $446 forward $119 $-1 #
coedge $-1 $443 $194 $191 $306 forward $300 $-1 #
edge $-1 $312 3.3159611402292395 $447 16.743730430236131 $305 $448 forward 7 unknown #
coedge $-1 $449 $450 $192 $308 forward $439 $-1 #
edge $-1 $451 -46.032960245886471 $311 -42.832101223510719 $307 $452 forward 7 unknown #
edge $-1 $312 -4.9796525863261598 $451 -1.8307977367429951e-014 $193 $453 forward 7 unknown #
coedge $-1 $194 $443 $449 $454 forward $300 $-1 #
vertex $-1 $308 $455 #
vertex $-1 $195 $456 #
straight-curve $-1 -73.106042435415603 13.345806925461924 9.1452358414446451 1 0 0 I I #
coedge $-1 $314 $314 $-1 $457 reversed $198 $-1 #
edge $-1 $458 0 $458 6.2831853071796004 $199 $459 forward 7 unknown #
vertex $-1 $202 $460 #
ellipse-curve $-1 -62.064361243503015 17.182312436892467 7.5448063302567716 -0.64278761758704617 0 0.76604443648966558 0.38302221824483279 0 0.32139380879352308 1 I I #
coedge $-1 $318 $318 $-1 $461 reversed $205 $-1 #
edge $-1 $462 0 $462 6.2831853071796004 $206 $463 forward 7 unknown #
vertex $-1 $209 $464 #
ellipse-curve $-1 -62.064361243503015 22.93707070403827 7.5448063302567716 -0.64278761758704617 0 0.76604443648966558 0.38302221824483279 0 0.32139380879352308 1 I I #
face $-1 $-1 $465 $44 $-1 $466 reversed single #
loop $-1 $-1 $216 $210 #
plane-surface $-1 0 0 9.1452358414446451 0 0 1 1 0 0 forward_v I I I I #
coedge $-1 $467 $468 $469 $470 reversed $211 $-1 #
coedge $-1 $471 $213 $215 $332 forward $133 $-1 #
coedge $-1 $213 $471 $467 $472 forward $133 $-1 #
coedge $-1 $469 $216 $213 $329 forward $323 $-1 #
edge $-1 $335 -2.6387881351671147 $473 10.402681865748367 $328 $474 forward 7 unknown #
coedge $-1 $475 $476 $214 $331 forward $465 $-1 #
edge $-1 $477 -85.890799601155209 $334 -81.265735708637791 $330 $478 forward 7 unknown #
edge $-1 $335 119.21549258541864 $477 127.94335764641258 $215 $479 forward 7 unknown #
coedge $-1 $216 $469 $475 $480 forward $323 $-1 #
vertex $-1 $331 $481 #
vertex $-1 $217 $482 #
straight-curve $-1 11.634604678715881 -1.2431587301235112 9.1452358414446451 -1 0 0 I I #
coedge $-1 $337 $337 $-1 $483 reversed $220 $-1 #
edge $-1 $484 0 $484 6.2831853071796004 $221 $485 forward 7 unknown #
vertex $-1 $224 $486 #
ellipse-curve $-1 60.270854168043257 -7.7638937305812519 6.83270389518594 0.52991927123019833 0 0.84804809178421925 1.6960961835684385 0 -1.0598385424603967 1 I I #
face $-1 $-1 $353 $46 $-1 $487 forward single #
loop $-1 $-1 $488 $225 #
plane-surface $-1 63.971678823206275 0 0 -1 0 0 0 0 1 forward_v I I I I #
coedge $-1 $489 $490 $491 $492 reversed $226 $-1 #
coedge $-1 $493 $228 $230 $351 forward $142 $-1 #
coedge $-1 $228 $493 $489 $494 forward $142 $-1 #
coedge $-1 $491 $231 $228 $348 forward $353 $-1 #
edge $-1 $355 -16.31487594939286 $495 -3.2734059484773788 $347 $496 forward 7 unknown #
coedge $-1 $497 $498 $229 $350 forward $342 $-1 #
edge $-1 $499 -85.890799601155209 $354 -81.265735708637791 $349 $500 forward 7 unknown #
edge $-1 $355 119.21549258541864 $499 127.94335764641258 $230 $501 forward 7 unknown #
coedge $-1 $231 $491 $497 $502 forward $353 $-1 #
loop $-1 $-1 $491 $341 #
vertex $-1 $350 $503 #
vertex $-1 $232 $504 #
straight-curve $-1 11.634604678715881 26.10901689832798 9.1452358414446451 -1 0 0 I I #
coedge $-1 $357 $357 $-1 $505 reversed $235 $-1 #
edge $-1 $506 0 $506 6.2831853071796004 $236 $507 forward 7 unknown #
vertex $-1 $239 $508 #
ellipse-curve $-1 60.270854168043257 19.588281897870239 6.83270389518594 0.52991927123019833 0 0.84804809178421925 1.6960961835684385 0 -1.0598385424603967 1 I I #
face $-1 $-1 $255 $36 $-1 $509 reversed single #
loop $-1 $-1 $377 $240 #
plane-surface $-1 0 32.499885343002113 0 0 -1 0 0 0 -1 forward_v I I I I #
coedge $-1 $510 $375 $378 $511 forward $241 $-1 #
coedge $-1 $381 $243 $244 $369 reversed $151 $-1 #
coedge $-1 $375 $510 $243 $367 reversed $241 $-1 #
edge $-1 $382 -9.1452358414446451 $512 9.1452358414446451 $366 $513 forward 7 unknown #
coedge $-1 $245 $244 $510 $514 forward $97 $-1 #
edge $-1 $373 -63.971678823206275 $512 63.971678823206275 $365 $515 forward 7 unknown #
coedge $-1 $378 $377 $245 $371 reversed $362 $-1 #
edge $-1 $516 -63.971678823206275 $372 63.971678823206275 $370 $517 forward 7 unknown #
vertex $-1 $247 $518 #
vertex $-1 $384 $519 #
straight-curve $-1 63.971678823206275 0 -9.1452358414446451 0 -1 0 I I #
coedge $-1 $364 $366 $248 $376 reversed $241 $-1 #
edge $-1 $379 -32.499885343002113 $382 32.499885343002113 $375 $520 forward 7 unknown #
coedge $-1 $370 $249 $254 $385 forward $362 $-1 #
coedge $-1 $249 $370 $364 $511 reversed $362 $-1 #
vertex $-1 $250 $521 #
straight-curve $-1 0 32.499885343002113 9.1452358414446451 -1 0 0 I I #
coedge $-1 $251 $365 $253 $384 reversed $151 $-1 #
vertex $-1 $376 $522 #
straight-curve $-1 0 -32.499885343002113 9.1452358414446451 1 0 0 I I #
edge $-1 $256 -9.1452358414446451 $373 9.1452358414446451 $253 $523 forward 7 unknown #
edge $-1 $257 -9.1452358414446451 $372 9.1452358414446451 $254 $524 forward 7 unknown #
point $-1 63.971678823206275 -32.499885343002113 9.1452358414446451 #
point $-1 63.971678823206275 32.499885343002113 9.1452358414446451 #
face $-1 $-1 $525 $37 $-1 $526 reversed single #
loop $-1 $-1 $527 $259 #
plane-surface $-1 0 0 -9.1452358414446451 0 0 1 1 0 0 forward_v I I I I #
coedge $-1 $398 $408 $393 $528 forward $260 $-1 #
coedge $-1 $265 $262 $527 $529 reversed $159 $-1 #
coedge $-1 $262 $265 $391 $528 reversed $159 $-1 #
coedge $-1 $530 $531 $262 $395 forward $525 $-1 #
edge $-1 $532 -9.1452358414446451 $533 9.1452358414446451 $394 $534 forward 7 unknown #
coedge $-1 $527 $268 $263 $397 forward $389 $-1 #
edge $-1 $273 -26.38651407707637 $401 -21.658633401185867 $396 $535 forward 7 unknown #
coedge $-1 $270 $391 $264 $399 forward $260 $-1 #
edge $-1 $400 21.658633401185867 $272 26.38651407707637 $398 $536 forward 7 unknown #
vertex $-1 $399 $537 #
vertex $-1 $397 $538 #
straight-curve $-1 -45.681207140316985 -22.204465913900869 0 0 0 -1 I I #
coedge $-1 $531 $530 $267 $404 forward $525 $-1 #
edge $-1 $409 -9.1452358414446451 $406 9.1452358414446451 $403 $539 forward 7 unknown #
coedge $-1 $268 $527 $531 $540 forward $389 $-1 #
vertex $-1 $269 $541 #
straight-curve $-1 -50.409087816207489 -13.676087814225745 -9.1452358414446451 0 1 0 I I #
coedge $-1 $391 $270 $530 $542 forward $260 $-1 #
vertex $-1 $542 $543 #
straight-curve $-1 -50.409087816207489 -13.676087814225745 9.1452358414446451 0 -1 0 I I #
point $-1 -50.409087816207489 -22.204465913900869 9.1452358414446451 #
point $-1 -50.409087816207489 -22.204465913900869 -9.1452358414446451 #
plane-surface $-1 0 0 9.1452358414446451 0 0 1 1 0 0 forward_v I I I I #
coedge $-1 $424 $423 $416 $544 forward $276 $-1 #
coedge $-1 $416 $278 $280 $420 reversed $167 $-1 #
coedge $-1 $278 $415 $414 $544 reversed $167 $-1 #
coedge $-1 $286 $281 $278 $418 forward $287 $-1 #
edge $-1 $421 -12.948998771615841 $545 -9.1343636122093272 $417 $546 forward 7 unknown #
coedge $-1 $280 $279 $424 $547 reversed $105 $-1 #
edge $-1 $548 1.8307977367429951e-014 $421 4.9796525863261598 $415 $549 forward 7 unknown #
vertex $-1 $282 $550 #
straight-curve $-1 -60.157043663799755 -3.6462420289930648 9.1452358414446469 0 1 0 I I #
coedge $-1 $414 $283 $286 $428 reversed $276 $-1 #
coedge $-1 $283 $414 $419 $547 forward $276 $-1 #
vertex $-1 $284 $551 #
straight-curve $-1 -63.971678823206275 -14.006368702989574 51.977337064955364 0 0 1 I I #
straight-curve $-1 -63.97167882320629 -14.006368702989574 5.9443768190688786 -0.76604443648966558 0 -0.64278761758704617 I I #
edge $-1 $545 0.57859941298268502 $288 14.006368702989574 $423 $552 forward 7 unknown #
point $-1 -63.971678823206275 -14.006368702989574 9.1452358414446451 #
point $-1 -60.157043663799762 -14.006368702989574 9.1452358414446451 #
edge $-1 $553 1 $553 0 $291 $-1 forward 7 unknown #
vertex $-1 $292 $554 #
ellipse-curve $-1 -61.421573625915954 -10.169863191559031 6.7787618937670899 -0.64278761758704617 0 0.76604443648966558 0.38302221824483279 0 0.32139380879352308 1 I I #
point $-1 -61.681339025258168 -10.169863191559031 7.8662001390502789 #
edge $-1 $555 1 $555 0 $295 $-1 forward 7 unknown #
vertex $-1 $296 $556 #
ellipse-curve $-1 -61.421573625915954 -4.415104924413221 6.7787618937670899 -0.64278761758704617 0 0.76604443648966558 0.38302221824483279 0 0.32139380879352308 1 I I #
point $-1 -61.681339025258168 -4.415104924413221 7.8662001390502789 #
loop $-1 $-1 $307 $299 #
plane-surface $-1 -63.971678823206275 0 0 1 0 0 0 0 -1 forward_v I I I I #
coedge $-1 $442 $302 $304 $446 reversed $189 $-1 #
coedge $-1 $302 $441 $557 $558 reversed $189 $-1 #
coedge $-1 $310 $305 $302 $444 forward $300 $-1 #
edge $-1 $447 -12.948998771615841 $559 -9.1343636122093272 $443 $560 forward 7 unknown #
coedge $-1 $304 $303 $450 $561 reversed $119 $-1 #
edge $-1 $562 1.8307977367429951e-014 $447 4.9796525863261598 $441 $563 forward 7 unknown #
vertex $-1 $306 $564 #
straight-curve $-1 -60.157043663799755 10.029845785232684 9.1452358414446469 0 1 0 I I #
coedge $-1 $557 $307 $310 $454 reversed $439 $-1 #
coedge $-1 $307 $557 $445 $561 forward $439 $-1 #
vertex $-1 $308 $565 #
straight-curve $-1 -63.971678823206275 13.345806925461924 51.977337064955364 0 0 1 I I #
straight-curve $-1 -63.97167882320629 13.345806925461924 5.9443768190688786 -0.76604443648966558 0 -0.64278761758704617 I I #
edge $-1 $559 -26.773576215468815 $311 -13.345806925461924 $449 $566 forward 7 unknown #
point $-1 -63.971678823206275 13.345806925461924 9.1452358414446451 #
point $-1 -60.157043663799762 13.345806925461924 9.1452358414446451 #
edge $-1 $567 1 $567 0 $314 $-1 forward 7 unknown #
vertex $-1 $315 $568 #
ellipse-curve $-1 -61.421573625915954 17.182312436892467 6.7787618937670899 -0.64278761758704617 0 0.76604443648966558 0.38302221824483279 0 0.32139380879352308 1 I I #
point $-1 -61.681339025258168 17.182312436892467 7.8662001390502789 #
edge $-1 $569 1 $569 0 $318 $-1 forward 7 unknown #
vertex $-1 $319 $570 #
ellipse-curve $-1 -61.421573625915954 22.93707070403827 6.7787618937670899 -0.64278761758704617 0 0.76604443648966558 0.38302221824483279 0 0.32139380879352308 1 I I #
point $-1 -61.681339025258168 22.93707070403827 7.8662001390502789 #
loop $-1 $-1 $330 $322 #
plane-surface $-1 63.971678823206275 0 0 -1 0 0 0 0 1 forward_v I I I I #
coedge $-1 $468 $325 $327 $472 reversed $211 $-1 #
coedge $-1 $325 $467 $571 $572 reversed $211 $-1 #
coedge $-1 $333 $328 $325 $470 forward $323 $-1 #
edge $-1 $473 44.93542483416433 $573 52.337074144490394 $469 $574 forward 7 unknown #
coedge $-1 $327 $326 $476 $575 reversed $133 $-1 #
edge $-1 $576 -127.94335764641258 $473 -119.21549258541864 $467 $577 forward 7 unknown #
vertex $-1 $329 $578 #
straight-curve $-1 56.57002951288024 -3.8819468652906259 9.145235841444638 0 -1 0 I I #
coedge $-1 $571 $330 $333 $480 reversed $465 $-1 #
coedge $-1 $330 $571 $471 $575 forward $465 $-1 #
vertex $-1 $331 $579 #
straight-curve $-1 63.971678823206275 -1.2431587301235112 90.410971550082436 0 0 1 I I #
straight-curve $-1 -44.530441485299804 -1.2431587301235112 72.319822791658808 0.84804809178421925 0 -0.52991927123019833 I I #
edge $-1 $573 -14.284628731038993 $334 -1.2431587301235112 $475 $580 forward 7 unknown #
point $-1 63.971678823206275 -1.2431587301235112 9.1452358414446451 #
point $-1 56.570029512880211 -1.2431587301235112 9.1452358414446451 #
edge $-1 $581 1 $581 0 $337 $-1 forward 7 unknown #
vertex $-1 $338 $582 #
ellipse-curve $-1 57.117214294742951 -7.7638937305812519 1.7858252064409732 0.52991927123019833 0 0.84804809178421925 1.6960961835684385 0 -1.0598385424603967 1 I I #
point $-1 61.966950351611693 -7.7638937305812519 5.7728653527255425 #
plane-surface $-1 0 0 9.1452358414446451 0 0 1 1 0 0 forward_v I I I I #
coedge $-1 $498 $497 $490 $583 forward $342 $-1 #
coedge $-1 $490 $344 $346 $494 reversed $226 $-1 #
coedge $-1 $344 $489 $488 $583 reversed $226 $-1 #
coedge $-1 $352 $347 $344 $492 forward $353 $-1 #
edge $-1 $495 44.93542483416433 $584 52.337074144490394 $491 $585 forward 7 unknown #
coedge $-1 $346 $345 $498 $586 reversed $142 $-1 #
edge $-1 $587 -127.94335764641258 $495 -119.21549258541864 $489 $588 forward 7 unknown #
vertex $-1 $348 $589 #
straight-curve $-1 56.57002951288024 9.7941409489351194 9.145235841444638 0 -1 0 I I #
coedge $-1 $488 $349 $352 $502 reversed $342 $-1 #
coedge $-1 $349 $488 $493 $586 forward $342 $-1 #
vertex $-1 $350 $590 #
straight-curve $-1 63.971678823206275 26.10901689832798 90.410971550082436 0 0 1 I I #
straight-curve $-1 -44.530441485299804 26.10901689832798 72.319822791658808 0.84804809178421925 0 -0.52991927123019833 I I #
edge $-1 $584 13.067546897412498 $354 26.10901689832798 $497 $591 forward 7 unknown #
point $-1 63.971678823206275 26.10901689832798 9.1452358414446451 #
point $-1 56.570029512880211 26.10901689832798 9.1452358414446451 #
edge $-1 $592 1 $592 0 $357 $-1 forward 7 unknown #
vertex $-1 $358 $593 #
ellipse-curve $-1 57.117214294742951 19.588281897870239 1.7858252064409732 0.52991927123019833 0 0.84804809178421925 1.6960961835684385 0 -1.0598385424603967 1 I I #
point $-1 61.966950351611693 19.588281897870239 5.7728653527255425 #
plane-surface $-1 63.971678823206275 0 0 -1 0 0 0 0 1 forward_v I I I I #
coedge $-1 $366 $364 $368 $514 reversed $241 $-1 #
edge $-1 $379 -9.1452358414446451 $516 9.1452358414446451 $378 $594 forward 7 unknown #
vertex $-1 $514 $595 #
straight-curve $-1 -63.971678823206275 -32.499885343002113 0 0 0 -1 I I #
edge $-1 $512 -32.499885343002113 $516 32.499885343002113 $510 $596 forward 7 unknown #
straight-curve $-1 0 -32.499885343002113 -9.1452358414446451 -1 0 0 I I #
vertex $-1 $371 $597 #
straight-curve $-1 0 32.499885343002113 -9.1452358414446451 1 0 0 I I #
point $-1 63.971678823206275 32.499885343002113 -9.1452358414446451 #
point $-1 63.971678823206275 -32.499885343002113 -9.1452358414446451 #
straight-curve $-1 -63.971678823206275 0 9.1452358414446451 0 -1 0 I I #
point $-1 -63.971678823206275 32.499885343002113 9.1452358414446451 #
point $-1 -63.971678823206275 -32.499885343002113 9.1452358414446451 #
straight-curve $-1 63.971678823206275 -32.499885343002113 0 0 0 -1 I I #
straight-curve $-1 63.971678823206275 32.499885343002113 0 0 0 -1 I I #
loop $-1 $-1 $394 $388 #
plane-surface $-1 0 -32.499885343002113 0 0 1 0 0 0 1 forward_v I I I I #
coedge $-1 $405 $396 $392 $529 forward $389 $-1 #
edge $-1 $533 -18.823797528776367 $400 -8.5283780996751233 $391 $598 forward 7 unknown #
edge $-1 $401 8.5283780996751233 $532 18.823797528776367 $527 $599 forward 7 unknown #
coedge $-1 $403 $394 $408 $542 reversed $525 $-1 #
coedge $-1 $394 $403 $405 $540 reversed $525 $-1 #
vertex $-1 $540 $600 #
vertex $-1 $395 $601 #
straight-curve $-1 -45.681207140316985 -32.499885343002113 0 0 0 1 I I #
straight-curve $-1 -24.022573739131118 -22.204465913900869 -9.1452358414446451 1 0 0 I I #
straight-curve $-1 -24.022573739131118 -22.204465913900869 9.1452358414446451 -1 0 0 I I #
point $-1 -45.681207140316985 -22.204465913900869 9.1452358414446451 #
point $-1 -45.681207140316985 -22.204465913900869 -9.1452358414446451 #
straight-curve $-1 -50.409087816207489 -32.499885343002113 0 0 0 -1 I I #
edge $-1 $532 45.681207140316985 $406 50.409087816207489 $531 $602 forward 7 unknown #
point $-1 -50.409087816207489 -32.499885343002113 -9.1452358414446451 #
edge $-1 $409 -50.409087816207489 $533 -45.681207140316985 $530 $603 forward 7 unknown #
point $-1 -50.409087816207489 -32.499885343002113 9.1452358414446451 #
edge $-1 $545 42.832101223510719 $548 46.032960245886471 $414 $604 forward 7 unknown #
vertex $-1 $428 $605 #
straight-curve $-1 -73.106042435415603 -0.57859941298268502 9.1452358414446451 -1 0 0 I I #
edge $-1 $548 -3.0676426160103798 $425 10.360126673996509 $424 $606 forward 7 unknown #
vertex $-1 $547 $607 #
straight-curve $-1 -63.97167882320629 -0.57859941298268502 5.9443768190688786 0.76604443648966558 0 0.64278761758704617 I I #
point $-1 -60.157043663799762 -0.57859941298268502 9.1452358414446451 #
point $-1 -63.971678823206275 -14.006368702989574 5.9443768190688901 #
straight-curve $-1 -63.971678823206275 0 9.1452358414446451 0 -1 0 I I #
vertex $-1 $431 $608 #
point $-1 -61.038551407671122 -10.169863191559031 7.1001557025606132 #
vertex $-1 $435 $609 #
point $-1 -61.038551407671122 -4.415104924413221 7.1001557025606132 #
coedge $-1 $450 $449 $442 $558 forward $439 $-1 #
edge $-1 $559 42.832101223510719 $562 46.032960245886471 $557 $610 forward 7 unknown #
vertex $-1 $454 $611 #
straight-curve $-1 -73.106042435415603 26.773576215468815 9.1452358414446451 -1 0 0 I I #
edge $-1 $562 -16.743730430236131 $451 -3.3159611402292395 $450 $612 forward 7 unknown #
vertex $-1 $561 $613 #
straight-curve $-1 -63.97167882320629 26.773576215468815 5.9443768190688786 0.76604443648966558 0 0.64278761758704617 I I #
point $-1 -60.157043663799762 26.773576215468815 9.1452358414446451 #
point $-1 -63.971678823206275 13.345806925461924 5.9443768190688901 #
straight-curve $-1 -63.971678823206275 0 9.1452358414446451 0 -1 0 I I #
vertex $-1 $457 $614 #
point $-1 -61.038551407671122 17.182312436892467 7.1001557025606132 #
vertex $-1 $461 $615 #
point $-1 -61.038551407671122 22.93707070403827 7.1001557025606132 #
coedge $-1 $476 $475 $468 $572 forward $465 $-1 #
edge $-1 $573 81.265735708637791 $576 85.890799601155209 $571 $616 forward 7 unknown #
vertex $-1 $480 $617 #
straight-curve $-1 11.634604678715881 -14.284628731038993 9.1452358414446451 1 0 0 I I #
edge $-1 $576 -10.402681865748367 $477 2.6387881351671147 $476 $618 forward 7 unknown #
vertex $-1 $575 $619 #
straight-curve $-1 -44.530441485299804 -14.284628731038993 72.319822791658808 -0.84804809178421925 0 0.52991927123019833 I I #
point $-1 56.570029512880211 -14.284628731038993 9.1452358414446451 #
point $-1 63.971678823206275 -1.2431587301235112 4.5201719489272278 #
straight-curve $-1 63.971678823206275 0 9.1452358414446451 0 1 0 I I #
vertex $-1 $483 $620 #
point $-1 58.813310478311386 -7.7638937305812519 0.72598666398057654 #
edge $-1 $584 81.265735708637791 $587 85.890799601155209 $488 $621 forward 7 unknown #
vertex $-1 $502 $622 #
straight-curve $-1 11.634604678715881 13.067546897412498 9.1452358414446451 1 0 0 I I #
edge $-1 $587 3.2734059484773788 $499 16.31487594939286 $498 $623 forward 7 unknown #
vertex $-1 $586 $624 #
straight-curve $-1 -44.530441485299804 13.067546897412498 72.319822791658808 -0.84804809178421925 0 0.52991927123019833 I I #
point $-1 56.570029512880211 13.067546897412498 9.1452358414446451 #
point $-1 63.971678823206275 26.10901689832798 4.5201719489272278 #
straight-curve $-1 63.971678823206275 0 9.1452358414446451 0 1 0 I I #
vertex $-1 $505 $625 #
point $-1 58.813310478311386 19.588281897870239 0.72598666398057654 #
straight-curve $-1 -63.971678823206275 32.499885343002113 0 0 0 -1 I I #
point $-1 -63.971678823206275 -32.499885343002113 -9.1452358414446451 #
straight-curve $-1 -63.971678823206275 0 -9.1452358414446451 0 1 0 I I #
point $-1 -63.971678823206275 32.499885343002113 -9.1452358414446451 #
straight-curve $-1 -45.681207140316985 -13.676087814225745 9.1452358414446451 0 1 0 I I #
straight-curve $-1 -45.681207140316985 -13.676087814225745 -9.1452358414446451 0 -1 0 I I #
point $-1 -45.681207140316985 -32.499885343002113 -9.1452358414446451 #
point $-1 -45.681207140316985 -32.499885343002113 9.1452358414446451 #
straight-curve $-1 0 -32.499885343002113 -9.1452358414446451 -1 0 0 I I #
straight-curve $-1 0 -32.499885343002113 9.1452358414446451 1 0 0 I I #
straight-curve $-1 -63.971678823206275 -0.57859941298268502 51.977337064955364 0 0 -1 I I #
point $-1 -63.971678823206275 -0.57859941298268502 9.1452358414446451 #
straight-curve $-1 -63.971678823206275 -3.6462420289930648 5.944376819068891 0 -1 0 I I #
point $-1 -63.971678823206275 -0.57859941298268502 5.9443768190688901 #
point $-1 -61.100179817122438 -10.169863191559031 6.3957396755222575 #
point $-1 -61.100179817122438 -4.415104924413221 6.3957396755222575 #
straight-curve $-1 -63.971678823206275 26.773576215468815 51.977337064955364 0 0 -1 I I #
point $-1 -63.971678823206275 26.773576215468815 9.1452358414446451 #
straight-curve $-1 -63.971678823206275 10.029845785232684 5.944376819068891 0 -1 0 I I #
point $-1 -63.971678823206275 26.773576215468815 5.9443768190688901 #
point $-1 -61.100179817122438 17.182312436892467 6.3957396755222575 #
point $-1 -61.100179817122438 22.93707070403827 6.3957396755222575 #
straight-curve $-1 63.971678823206275 -14.284628731038993 90.410971550082436 0 0 -1 I I #
point $-1 63.971678823206275 -14.284628731038993 9.1452358414446451 #
straight-curve $-1 63.971678823206283 -3.8819468652906259 4.520171948927235 0 1 0 I I #
point $-1 63.971678823206275 -14.284628731038993 4.5201719489272278 #
point $-1 56.057375752282553 -7.7638937305812519 0.089729022872534703 #
straight-curve $-1 63.971678823206275 13.067546897412498 90.410971550082436 0 0 -1 I I #
point $-1 63.971678823206275 13.067546897412498 9.1452358414446451 #
straight-curve $-1 63.971678823206283 9.7941409489351194 4.520171948927235 0 1 0 I I #
point $-1 63.971678823206275 13.067546897412498 4.5201719489272278 #
point $-1 56.057375752282553 19.588281897870239 0.089729022872534703 #
End-of-ACIS-data 