500 0 6 0           
7 Unknown 11 ACIS 5.0 NT 24 Fri Mar 26 03:17:55 1999 
-1 9.9999999999999995e-007 1e-010 
body $-1 $6 $-1 $7 #
body $-1 $8 $-1 $9 #
body $-1 $10 $-1 $11 #
body $-1 $12 $-1 $13 #
body $-1 $14 $-1 $15 #
body $-1 $16 $-1 $17 #
lump $-1 $-1 $18 $0 #
transform $-1 1 0 0 0 1 0 0 0 1 73.68511001922667 45.661740912302115 19.16324339517239 1 rotate no_reflect no_shear #
lump $-1 $-1 $19 $1 #
transform $-1 1 0 0 0 1 0 0 0 1 73.68511001922667 45.661740912302115 19.16324339517239 1 rotate no_reflect no_shear #
lump $-1 $-1 $20 $2 #
transform $-1 1 0 0 0 1 0 0 0 1 73.68511001922667 45.661740912302115 19.16324339517239 1 rotate no_reflect no_shear #
lump $-1 $-1 $21 $3 #
transform $-1 1 0 0 0 1 0 0 0 1 73.68511001922667 45.661740912302115 19.16324339517239 1 rotate no_reflect no_shear #
lump $-1 $-1 $22 $4 #
transform $-1 1 0 0 0 1 0 0 0 1 73.68511001922667 45.661740912302115 19.16324339517239 1 rotate no_reflect no_shear #
lump $-1 $-1 $23 $5 #
transform $-1 1 0 0 0 1 0 0 0 1 73.68511001922667 45.661740912302115 19.16324339517239 1 rotate no_reflect no_shear #
shell $-1 $-1 $-1 $24 $-1 $6 #
shell $-1 $-1 $-1 $25 $-1 $8 #
shell $-1 $-1 $-1 $26 $-1 $10 #
shell $-1 $-1 $-1 $27 $-1 $12 #
shell $-1 $-1 $-1 $28 $-1 $14 #
shell $-1 $-1 $-1 $29 $-1 $16 #
face $-1 $30 $31 $18 $-1 $32 forward single #
face $-1 $33 $34 $19 $-1 $35 forward single #
face $-1 $36 $37 $20 $-1 $38 forward single #
face $-1 $39 $40 $21 $-1 $41 reversed single #
face $-1 $42 $43 $22 $-1 $44 forward single #
face $-1 $45 $46 $23 $-1 $47 forward single #
face $-1 $48 $49 $18 $-1 $50 reversed single #
loop $-1 $-1 $51 $24 #
plane-surface $-1 0 0 19.16324339517239 0 0 1 1 0 0 forward_v I I I I #
face $-1 $52 $53 $19 $-1 $54 reversed single #
loop $-1 $-1 $55 $25 #
plane-surface $-1 0 -45.661740912302115 0 0 1 0 0 0 1 forward_v I I I I #
face $-1 $56 $57 $20 $-1 $58 reversed single #
loop $-1 $-1 $59 $26 #
plane-surface $-1 0 45.661740912302115 0 0 -1 0 0 0 -1 forward_v I I I I #
face $-1 $60 $61 $21 $-1 $62 reversed single #
loop $-1 $-1 $63 $27 #
plane-surface $-1 19.743867281001343 -23.172047326247871 204.34265865540183 0 -1 0 -0.50000000669873634 0 -0.8660253999169214 forward_v I I I I #
face $-1 $64 $65 $22 $-1 $66 forward single #
loop $-1 $67 $68 $28 #
cone-surface $-1 59.464345591267964 -27.493189685518281 10.664205949795081 -0.50000000669873634 0 -0.8660253999169214 0.21650634997923035 0 -0.12500000167468409 1 I I 0 1 0.25 forward I I I I #
face $-1 $69 $70 $23 $-1 $71 forward single #
loop $-1 $72 $73 $29 #
cone-surface $-1 59.464345591267964 -24.900504269956034 10.664205949795081 -0.50000000669873634 0 -0.8660253999169214 0.21650634997923035 0 -0.12500000167468409 1 I I 0 1 0.25 forward I I I I #
face $-1 $74 $75 $18 $-1 $76 reversed single #
loop $-1 $-1 $77 $30 #
plane-surface $-1 0 0 -19.16324339517239 0 0 1 1 0 0 forward_v I I I I #
coedge $-1 $78 $79 $80 $81 forward $31 $-1 #
face $-1 $82 $83 $19 $-1 $84 forward single #
loop $-1 $-1 $85 $33 #
plane-surface $-1 -73.68511001922667 0 0 1 0 0 0 0 -1 forward_v I I I I #
coedge $-1 $86 $87 $88 $89 forward $34 $-1 #
face $-1 $90 $91 $20 $-1 $92 forward single #
loop $-1 $-1 $93 $36 #
plane-surface $-1 73.68511001922667 0 0 -1 0 0 0 0 1 forward_v I I I I #
coedge $-1 $94 $95 $96 $97 forward $37 $-1 #
face $-1 $98 $99 $21 $-1 $100 reversed single #
loop $-1 $-1 $101 $39 #
plane-surface $-1 -53.941243725419582 -26.19684697773716 76.716304910755582 0.50000000669873634 0 0.8660253999169214 0.8660253999169214 0 -0.50000000669873634 forward_v I I I I #
coedge $-1 $102 $103 $104 $105 reversed $40 $-1 #
face $-1 $-1 $106 $22 $-1 $107 forward single #
loop $-1 $108 $109 $42 #
cone-surface $-1 59.151845587081255 -27.493189685518281 10.122940074847005 -0.50000000669873634 0 -0.8660253999169214 0.10825317498961518 0 -0.062500000837342043 1 I I -0.70710678118654746 0.70710678118654746 0.125 forward I I I I #
loop $-1 $-1 $110 $28 #
coedge $-1 $68 $68 $111 $112 reversed $43 $-1 #
face $-1 $-1 $113 $23 $-1 $114 forward single #
loop $-1 $115 $116 $45 #
cone-surface $-1 59.151845587081255 -24.900504269956034 10.122940074847005 -0.50000000669873634 0 -0.8660253999169214 0.10825317498961518 0 -0.062500000837342043 1 I I -0.70710678118654746 0.70710678118654746 0.125 forward I I I I #
loop $-1 $-1 $117 $29 #
coedge $-1 $73 $73 $118 $119 reversed $46 $-1 #
face $-1 $120 $121 $18 $-1 $122 reversed single #
loop $-1 $-1 $123 $48 #
plane-surface $-1 0 -45.661740912302115 0 0 1 0 0 0 1 forward_v I I I I #
coedge $-1 $124 $125 $126 $127 forward $49 $-1 #
coedge $-1 $128 $51 $129 $130 forward $31 $-1 #
coedge $-1 $51 $128 $131 $132 forward $31 $-1 #
coedge $-1 $133 $134 $51 $81 reversed $135 $-1 #
edge $-1 $136 -45.661740912302115 $137 45.661740912302115 $80 $138 forward 7 unknown #
face $-1 $139 $140 $19 $-1 $141 reversed single #
loop $-1 $-1 $142 $52 #
plane-surface $-1 0 -53.881788053839948 -5.1845457390890886 0 0 1 1 0 0 forward_v I I I I #
coedge $-1 $143 $144 $87 $145 forward $53 $-1 #
coedge $-1 $146 $55 $147 $148 reversed $34 $-1 #
coedge $-1 $55 $146 $85 $145 reversed $34 $-1 #
coedge $-1 $149 $142 $55 $89 reversed $83 $-1 #
edge $-1 $150 -73.68511001922667 $151 73.68511001922667 $88 $152 forward 7 unknown #
face $-1 $153 $154 $20 $-1 $155 reversed single #
loop $-1 $-1 $156 $56 #
plane-surface $-1 0 54.028078336834064 9.2637005506693644 0 0 1 1 0 0 forward_v I I I I #
coedge $-1 $157 $158 $95 $159 forward $57 $-1 #
coedge $-1 $160 $59 $161 $162 reversed $37 $-1 #
coedge $-1 $59 $160 $93 $159 reversed $37 $-1 #
coedge $-1 $156 $163 $59 $97 reversed $91 $-1 #
edge $-1 $164 -73.68511001922667 $165 73.68511001922667 $96 $166 forward 7 unknown #
face $-1 $167 $168 $21 $-1 $169 forward single #
loop $-1 $-1 $170 $60 #
plane-surface $-1 19.743867281001343 -29.221646629226449 204.34265865540183 0 1 0 0.50000000669873634 0 0.8660253999169214 forward_v I I I I #
coedge $-1 $171 $172 $173 $174 reversed $61 $-1 #
coedge $-1 $103 $63 $175 $176 reversed $40 $-1 #
coedge $-1 $63 $102 $171 $177 reversed $40 $-1 #
coedge $-1 $173 $178 $63 $105 forward $168 $-1 #
edge $-1 $179 -63.813176378725998 $180 -35.871647529507257 $104 $181 forward 7 unknown #
loop $-1 $-1 $111 $64 #
plane-surface $-1 -53.941243725419582 -26.19684697773716 76.716304910755582 0.50000000669873634 0 0.8660253999169214 0.8660253999169214 0 -0.50000000669873634 forward_v I I I I #
loop $-1 $-1 $182 $42 #
coedge $-1 $109 $109 $110 $183 reversed $65 $-1 #
coedge $-1 $110 $110 $109 $183 forward $67 $-1 #
coedge $-1 $111 $111 $68 $112 forward $106 $-1 #
edge $-1 $184 0 $184 6.2831853071796004 $111 $185 forward 7 unknown #
loop $-1 $-1 $118 $69 #
plane-surface $-1 -53.941243725419582 -26.19684697773716 76.716304910755582 0.50000000669873634 0 0.8660253999169214 0.8660253999169214 0 -0.50000000669873634 forward_v I I I I #
loop $-1 $-1 $186 $45 #
coedge $-1 $116 $116 $117 $187 reversed $70 $-1 #
coedge $-1 $117 $117 $116 $187 forward $72 $-1 #
coedge $-1 $118 $118 $73 $119 forward $113 $-1 #
edge $-1 $188 0 $188 6.2831853071796004 $118 $189 forward 7 unknown #
face $-1 $190 $191 $18 $-1 $192 reversed single #
loop $-1 $-1 $193 $74 #
plane-surface $-1 -73.68511001922667 0 0 1 0 0 0 0 -1 forward_v I I I I #
coedge $-1 $194 $131 $195 $196 forward $75 $-1 #
coedge $-1 $197 $77 $194 $198 forward $49 $-1 #
coedge $-1 $77 $197 $199 $200 forward $49 $-1 #
coedge $-1 $134 $133 $77 $127 reversed $135 $-1 #
edge $-1 $201 -45.661740912302115 $202 45.661740912302115 $126 $203 forward 7 unknown #
coedge $-1 $79 $78 $204 $205 forward $31 $-1 #
coedge $-1 $206 $207 $78 $130 reversed $191 $-1 #
edge $-1 $137 -73.68511001922667 $208 73.68511001922667 $129 $209 forward 7 unknown #
coedge $-1 $123 $210 $79 $132 reversed $75 $-1 #
edge $-1 $211 -73.68511001922667 $136 73.68511001922667 $131 $212 forward 7 unknown #
coedge $-1 $126 $80 $210 $213 forward $135 $-1 #
coedge $-1 $80 $126 $206 $214 reversed $135 $-1 #
loop $-1 $-1 $133 $190 #
vertex $-1 $81 $215 #
vertex $-1 $81 $216 #
straight-curve $-1 73.68511001922667 0 19.16324339517239 0 1 0 I I #
face $-1 $217 $218 $19 $-1 $219 reversed single #
loop $-1 $-1 $220 $82 #
plane-surface $-1 0 -53.881788053839948 -15.807580672973494 0 0 1 1 0 0 forward_v I I I I #
coedge $-1 $88 $221 $222 $223 forward $83 $-1 #
coedge $-1 $224 $85 $225 $226 reversed $53 $-1 #
coedge $-1 $85 $224 $149 $227 reversed $53 $-1 #
edge $-1 $150 5.1845457390890886 $228 15.807580672973494 $85 $229 forward 7 unknown #
coedge $-1 $87 $86 $230 $231 forward $34 $-1 #
coedge $-1 $222 $232 $86 $148 forward $233 $-1 #
edge $-1 $234 -15.807580672973494 $151 -5.1845457390890886 $147 $235 forward 7 unknown #
coedge $-1 $221 $88 $144 $227 forward $83 $-1 #
vertex $-1 $145 $236 #
vertex $-1 $223 $237 #
straight-curve $-1 0 -45.661740912302115 -5.1845457390890886 1 0 0 I I #
face $-1 $238 $239 $20 $-1 $240 reversed single #
loop $-1 $-1 $241 $90 #
plane-surface $-1 0 54.028078336834064 -0.34148994201022909 0 0 1 1 0 0 forward_v I I I I #
coedge $-1 $242 $96 $158 $243 forward $91 $-1 #
coedge $-1 $244 $93 $241 $245 reversed $57 $-1 #
coedge $-1 $93 $244 $156 $243 reversed $57 $-1 #
edge $-1 $164 -9.2637005506693644 $246 0.34148994201022909 $93 $247 forward 7 unknown #
coedge $-1 $95 $94 $248 $249 forward $37 $-1 #
coedge $-1 $250 $251 $94 $162 forward $252 $-1 #
edge $-1 $253 -0.34148994201022909 $165 9.2637005506693644 $161 $254 forward 7 unknown #
coedge $-1 $96 $242 $250 $255 forward $91 $-1 #
vertex $-1 $159 $256 #
vertex $-1 $255 $257 #
straight-curve $-1 0 45.661740912302115 9.2637005506693644 -1 0 0 I I #
face $-1 $-1 $258 $21 $-1 $259 reversed single #
loop $-1 $-1 $104 $98 #
plane-surface $-1 0 0 19.16324339517239 0 0 1 1 0 0 forward_v I I I I #
coedge $-1 $260 $261 $262 $263 reversed $99 $-1 #
coedge $-1 $264 $101 $103 $177 forward $61 $-1 #
coedge $-1 $101 $264 $260 $265 forward $61 $-1 #
coedge $-1 $262 $104 $101 $174 forward $168 $-1 #
edge $-1 $180 10.073623837379291 $266 16.123223140357869 $173 $267 forward 7 unknown #
coedge $-1 $268 $269 $102 $176 forward $258 $-1 #
edge $-1 $270 -99.14013542336626 $179 -83.00808593252853 $175 $271 forward 7 unknown #
edge $-1 $180 115.10612148903527 $270 147.37022003845334 $103 $272 forward 7 unknown #
coedge $-1 $104 $262 $268 $273 forward $168 $-1 #
vertex $-1 $176 $274 #
vertex $-1 $105 $275 #
straight-curve $-1 9.8719336405006715 -23.172047326247871 19.163243395172387 -1 0 0 I I #
coedge $-1 $182 $182 $-1 $276 reversed $108 $-1 #
edge $-1 $277 0 $277 6.2831853071796004 $109 $278 forward 7 unknown #
vertex $-1 $112 $279 #
ellipse-curve $-1 59.714345594617321 -27.493189685518281 11.097218649753517 0.50000000669873634 0 0.8660253999169214 0.21650634997923035 0 -0.12500000167468409 1 I I #
coedge $-1 $186 $186 $-1 $280 reversed $115 $-1 #
edge $-1 $281 0 $281 6.2831853071796004 $116 $282 forward 7 unknown #
vertex $-1 $119 $283 #
ellipse-curve $-1 59.714345594617321 -24.900504269956034 11.097218649753517 0.50000000669873634 0 0.8660253999169214 0.21650634997923035 0 -0.12500000167468409 1 I I #
face $-1 $-1 $135 $18 $-1 $284 reversed single #
loop $-1 $-1 $207 $120 #
plane-surface $-1 0 45.661740912302115 0 0 -1 0 0 0 -1 forward_v I I I I #
coedge $-1 $285 $204 $207 $286 forward $121 $-1 #
coedge $-1 $210 $123 $124 $198 reversed $75 $-1 #
coedge $-1 $204 $285 $123 $196 reversed $121 $-1 #
edge $-1 $211 -19.16324339517239 $287 19.16324339517239 $195 $288 forward 7 unknown #
coedge $-1 $125 $124 $285 $289 forward $49 $-1 #
edge $-1 $202 -73.68511001922667 $287 73.68511001922667 $194 $290 forward 7 unknown #
coedge $-1 $207 $206 $125 $200 reversed $191 $-1 #
edge $-1 $291 -73.68511001922667 $201 73.68511001922667 $199 $292 forward 7 unknown #
vertex $-1 $127 $293 #
vertex $-1 $213 $294 #
straight-curve $-1 73.68511001922667 0 -19.16324339517239 0 -1 0 I I #
coedge $-1 $193 $195 $128 $205 reversed $121 $-1 #
edge $-1 $208 -45.661740912302115 $211 45.661740912302115 $204 $295 forward 7 unknown #
coedge $-1 $199 $129 $134 $214 forward $191 $-1 #
coedge $-1 $129 $199 $193 $286 reversed $191 $-1 #
vertex $-1 $130 $296 #
straight-curve $-1 0 45.661740912302115 19.16324339517239 -1 0 0 I I #
coedge $-1 $131 $194 $133 $213 reversed $75 $-1 #
vertex $-1 $205 $297 #
straight-curve $-1 0 -45.661740912302115 19.16324339517239 1 0 0 I I #
edge $-1 $136 -19.16324339517239 $202 19.16324339517239 $133 $298 forward 7 unknown #
edge $-1 $137 -19.16324339517239 $201 19.16324339517239 $134 $299 forward 7 unknown #
point $-1 73.68511001922667 -45.661740912302115 19.16324339517239 #
point $-1 73.68511001922667 45.661740912302115 19.16324339517239 #
face $-1 $-1 $233 $19 $-1 $300 reversed single #
loop $-1 $-1 $301 $139 #
plane-surface $-1 0 -62.101835195377781 -10.496063206031291 0 1 0 0 0 1 forward_v I I I I #
coedge $-1 $302 $230 $232 $303 forward $140 $-1 #
coedge $-1 $142 $149 $304 $305 forward $83 $-1 #
coedge $-1 $306 $147 $142 $223 reversed $233 $-1 #
edge $-1 $307 -8.2200471415378331 $151 8.2200471415378331 $222 $308 forward 7 unknown #
coedge $-1 $144 $143 $301 $309 reversed $53 $-1 #
coedge $-1 $230 $302 $143 $226 forward $140 $-1 #
edge $-1 $310 -8.2200471415378331 $228 8.2200471415378331 $143 $311 forward 7 unknown #
edge $-1 $150 -8.2200471415378331 $312 8.2200471415378331 $144 $313 forward 7 unknown #
vertex $-1 $145 $314 #
straight-curve $-1 -73.68511001922667 -45.661740912302115 0 0 0 -1 I I #
coedge $-1 $220 $225 $146 $231 reversed $140 $-1 #
edge $-1 $234 -73.68511001922667 $228 73.68511001922667 $230 $315 forward 7 unknown #
coedge $-1 $147 $306 $220 $303 reversed $233 $-1 #
loop $-1 $-1 $147 $217 #
vertex $-1 $148 $316 #
straight-curve $-1 73.68511001922667 -45.661740912302115 0 0 0 1 I I #
point $-1 -73.68511001922667 -45.661740912302115 -5.1845457390890886 #
point $-1 73.68511001922667 -45.661740912302115 -5.1845457390890886 #
face $-1 $-1 $252 $20 $-1 $317 reversed single #
loop $-1 $-1 $318 $153 #
plane-surface $-1 0 62.39441576136602 4.4611053043295676 0 -1 0 0 0 -1 forward_v I I I I #
coedge $-1 $248 $319 $157 $245 forward $154 $-1 #
coedge $-1 $163 $156 $320 $321 forward $91 $-1 #
edge $-1 $164 -8.3663374245319559 $322 8.3663374245319559 $158 $323 forward 7 unknown #
coedge $-1 $158 $157 $318 $324 reversed $57 $-1 #
edge $-1 $325 -8.3663374245319559 $246 8.3663374245319559 $157 $326 forward 7 unknown #
vertex $-1 $159 $327 #
straight-curve $-1 73.68511001922667 45.661740912302115 0 0 0 -1 I I #
coedge $-1 $328 $241 $160 $249 reversed $154 $-1 #
edge $-1 $253 -73.68511001922667 $246 73.68511001922667 $248 $329 forward 7 unknown #
coedge $-1 $330 $161 $163 $255 reversed $252 $-1 #
coedge $-1 $161 $330 $328 $331 reversed $252 $-1 #
loop $-1 $-1 $161 $238 #
vertex $-1 $162 $332 #
straight-curve $-1 -73.68511001922667 45.661740912302115 0 0 0 1 I I #
edge $-1 $333 -8.3663374245319559 $165 8.3663374245319559 $250 $334 forward 7 unknown #
point $-1 73.68511001922667 45.661740912302108 9.2637005506693644 #
point $-1 -73.68511001922667 45.661740912302108 9.2637005506693644 #
loop $-1 $-1 $175 $167 #
plane-surface $-1 73.68511001922667 0 0 -1 0 0 0 0 1 forward_v I I I I #
coedge $-1 $261 $170 $172 $265 reversed $99 $-1 #
coedge $-1 $170 $260 $335 $336 reversed $99 $-1 #
coedge $-1 $178 $173 $170 $263 forward $168 $-1 #
edge $-1 $266 35.871647529507257 $337 63.813176378725998 $262 $338 forward 7 unknown #
coedge $-1 $172 $171 $269 $339 reversed $61 $-1 #
edge $-1 $340 -147.37022003845334 $266 -115.10612148903527 $260 $341 forward 7 unknown #
vertex $-1 $174 $342 #
straight-curve $-1 45.743581170007928 -13.09842348886858 19.163243395172394 0 -1 0 I I #
coedge $-1 $335 $175 $178 $273 reversed $258 $-1 #
coedge $-1 $175 $335 $264 $339 forward $258 $-1 #
vertex $-1 $176 $343 #
straight-curve $-1 73.68511001922667 -23.172047326247871 102.17132932770092 0 0 1 I I #
straight-curve $-1 -53.941243725419582 -23.172047326247871 76.716304910755582 0.8660253999169214 0 -0.50000000669873634 I I #
edge $-1 $337 -29.221646629226449 $179 -23.172047326247871 $268 $344 forward 7 unknown #
point $-1 73.68511001922667 -23.172047326247871 19.16324339517239 #
point $-1 45.743581170007928 -23.172047326247871 19.163243395172387 #
edge $-1 $345 1 $345 0 $182 $-1 forward 7 unknown #
vertex $-1 $183 $346 #
ellipse-curve $-1 59.214345587918594 -27.493189685518281 10.23119324983662 0.50000000669873634 0 0.8660253999169214 0.21650634997923035 0 -0.12500000167468409 1 I I #
point $-1 59.930851944596562 -27.493189685518281 10.972218648078858 #
edge $-1 $347 1 $347 0 $186 $-1 forward 7 unknown #
vertex $-1 $187 $348 #
ellipse-curve $-1 59.214345587918594 -24.900504269956034 10.23119324983662 0.50000000669873634 0 0.8660253999169214 0.21650634997923035 0 -0.12500000167468409 1 I I #
point $-1 59.930851944596562 -24.900504269956034 10.972218648078858 #
plane-surface $-1 73.68511001922667 0 0 -1 0 0 0 0 1 forward_v I I I I #
coedge $-1 $195 $193 $197 $289 reversed $121 $-1 #
edge $-1 $208 -19.16324339517239 $291 19.16324339517239 $207 $349 forward 7 unknown #
vertex $-1 $289 $350 #
straight-curve $-1 -73.68511001922667 -45.661740912302115 0 0 0 -1 I I #
edge $-1 $287 -45.661740912302115 $291 45.661740912302115 $285 $351 forward 7 unknown #
straight-curve $-1 0 -45.661740912302115 -19.16324339517239 -1 0 0 I I #
vertex $-1 $200 $352 #
straight-curve $-1 0 45.661740912302115 -19.16324339517239 1 0 0 I I #
point $-1 73.68511001922667 45.661740912302115 -19.16324339517239 #
point $-1 73.68511001922667 -45.661740912302115 -19.16324339517239 #
straight-curve $-1 -73.68511001922667 0 19.16324339517239 0 -1 0 I I #
point $-1 -73.68511001922667 45.661740912302115 19.16324339517239 #
point $-1 -73.68511001922667 -45.661740912302115 19.16324339517239 #
straight-curve $-1 73.68511001922667 -45.661740912302115 0 0 0 -1 I I #
straight-curve $-1 73.68511001922667 45.661740912302115 0 0 0 -1 I I #
plane-surface $-1 73.68511001922667 0 0 -1 0 0 0 0 1 forward_v I I I I #
coedge $-1 $353 $304 $224 $309 forward $218 $-1 #
coedge $-1 $225 $220 $353 $354 forward $140 $-1 #
edge $-1 $234 -8.2200471415378331 $355 8.2200471415378331 $232 $356 forward 7 unknown #
coedge $-1 $301 $357 $221 $305 reversed $218 $-1 #
edge $-1 $312 -73.68511001922667 $307 73.68511001922667 $304 $358 forward 7 unknown #
coedge $-1 $232 $222 $357 $359 forward $233 $-1 #
vertex $-1 $223 $360 #
straight-curve $-1 73.68511001922667 -53.881788053839948 -5.1845457390890886 0 1 0 I I #
edge $-1 $312 -5.3115174669422025 $310 5.3115174669422025 $224 $361 forward 7 unknown #
vertex $-1 $226 $362 #
straight-curve $-1 -73.68511001922667 -53.881788053839948 -15.807580672973494 0 1 0 I I #
vertex $-1 $227 $363 #
straight-curve $-1 -73.68511001922667 -53.881788053839948 -5.1845457390890886 0 -1 0 I I #
point $-1 -73.68511001922667 -45.661740912302115 -15.807580672973494 #
straight-curve $-1 0 -45.661740912302115 -15.807580672973494 -1 0 0 I I #
point $-1 73.68511001922667 -45.661740912302115 -15.807580672973494 #
plane-surface $-1 -73.68511001922667 0 0 1 0 0 0 0 -1 forward_v I I I I #
coedge $-1 $364 $320 $244 $324 forward $239 $-1 #
coedge $-1 $241 $328 $364 $365 forward $154 $-1 #
coedge $-1 $318 $366 $242 $321 reversed $239 $-1 #
edge $-1 $322 -73.68511001922667 $333 73.68511001922667 $320 $367 forward 7 unknown #
vertex $-1 $243 $368 #
straight-curve $-1 73.68511001922667 54.028078336834064 9.2637005506693644 0 1 0 I I #
edge $-1 $322 -4.8025952463397967 $325 4.8025952463397967 $244 $369 forward 7 unknown #
vertex $-1 $245 $370 #
straight-curve $-1 73.68511001922667 54.028078336834064 -0.34148994201022909 0 -1 0 I I #
point $-1 73.68511001922667 45.661740912302108 -0.34148994201022909 #
coedge $-1 $319 $248 $251 $331 forward $154 $-1 #
straight-curve $-1 0 45.661740912302115 -0.34148994201022909 1 0 0 I I #
coedge $-1 $251 $250 $366 $371 forward $252 $-1 #
edge $-1 $253 -8.3663374245319559 $372 8.3663374245319559 $251 $373 forward 7 unknown #
point $-1 -73.68511001922667 45.661740912302108 -0.34148994201022909 #
vertex $-1 $321 $374 #
straight-curve $-1 -73.68511001922667 54.028078336834064 9.2637005506693644 0 -1 0 I I #
coedge $-1 $269 $268 $261 $336 forward $258 $-1 #
edge $-1 $337 83.00808593252853 $340 99.14013542336626 $335 $375 forward 7 unknown #
vertex $-1 $273 $376 #
straight-curve $-1 9.8719336405006715 -29.221646629226449 19.163243395172387 1 0 0 I I #
edge $-1 $340 -16.123223140357869 $270 -10.073623837379291 $269 $377 forward 7 unknown #
vertex $-1 $339 $378 #
straight-curve $-1 -53.941243725419582 -29.221646629226449 76.716304910755582 -0.8660253999169214 0 0.50000000669873634 I I #
point $-1 45.743581170007928 -29.221646629226449 19.163243395172387 #
point $-1 73.68511001922667 -23.172047326247871 3.031193904334657 #
straight-curve $-1 73.68511001922667 0 19.16324339517239 0 1 0 I I #
vertex $-1 $276 $379 #
point $-1 59.430851937897827 -27.493189685518281 10.106193248161937 #
vertex $-1 $280 $380 #
point $-1 59.430851937897827 -24.900504269956034 10.106193248161937 #
straight-curve $-1 -73.68511001922667 45.661740912302115 0 0 0 -1 I I #
point $-1 -73.68511001922667 -45.661740912302115 -19.16324339517239 #
straight-curve $-1 -73.68511001922667 0 -19.16324339517239 0 1 0 I I #
point $-1 -73.68511001922667 45.661740912302115 -19.16324339517239 #
coedge $-1 $357 $301 $302 $354 reversed $218 $-1 #
edge $-1 $355 -73.68511001922667 $310 73.68511001922667 $353 $381 forward 7 unknown #
vertex $-1 $359 $382 #
straight-curve $-1 73.68511001922667 -53.881788053839948 -15.807580672973494 0 -1 0 I I #
coedge $-1 $304 $353 $306 $359 reversed $218 $-1 #
straight-curve $-1 0 -62.101835195377781 -5.1845457390890886 1 0 0 I I #
edge $-1 $307 -5.3115174669422025 $355 5.3115174669422025 $306 $383 forward 7 unknown #
point $-1 73.68511001922667 -62.101835195377781 -5.1845457390890886 #
straight-curve $-1 -73.68511001922667 -62.101835195377781 -10.496063206031291 0 0 -1 I I #
point $-1 -73.68511001922667 -62.101835195377781 -15.807580672973494 #
point $-1 -73.68511001922667 -62.101835195377781 -5.1845457390890886 #
coedge $-1 $366 $318 $319 $365 reversed $239 $-1 #
edge $-1 $372 -73.68511001922667 $325 73.68511001922667 $364 $384 forward 7 unknown #
coedge $-1 $320 $364 $330 $371 reversed $239 $-1 #
straight-curve $-1 0 62.39441576136602 9.2637005506693644 -1 0 0 I I #
point $-1 73.68511001922667 62.39441576136602 9.2637005506693644 #
straight-curve $-1 73.68511001922667 62.39441576136602 4.4611053043295676 0 0 -1 I I #
point $-1 73.68511001922667 62.39441576136602 -0.34148994201022909 #
edge $-1 $333 -4.8025952463397967 $372 4.8025952463397967 $366 $385 forward 7 unknown #
vertex $-1 $365 $386 #
straight-curve $-1 -73.68511001922667 54.028078336834064 -0.34148994201022909 0 1 0 I I #
point $-1 -73.68511001922667 62.39441576136602 9.2637005506693644 #
straight-curve $-1 73.68511001922667 -29.221646629226449 102.17132932770092 0 0 -1 I I #
point $-1 73.68511001922667 -29.221646629226449 19.16324339517239 #
straight-curve $-1 73.68511001922667 -13.09842348886858 3.0311939043346712 0 1 0 I I #
point $-1 73.68511001922667 -29.221646629226449 3.031193904334657 #
point $-1 59.089345586243915 -27.493189685518281 10.01468689985739 #
point $-1 59.089345586243915 -24.900504269956034 10.01468689985739 #
straight-curve $-1 0 -62.101835195377781 -15.807580672973494 -1 0 0 I I #
point $-1 73.68511001922667 -62.101835195377781 -15.807580672973494 #
straight-curve $-1 73.68511001922667 -62.101835195377781 -10.496063206031291 0 0 -1 I I #
straight-curve $-1 0 62.39441576136602 -0.34148994201022909 1 0 0 I I #
straight-curve $-1 -73.68511001922667 62.39441576136602 4.4611053043295676 0 0 -1 I I #
point $-1 -73.68511001922667 62.39441576136602 -0.34148994201022909 #
End-of-ACIS-data 