500 0 9 0           
7 Unknown 11 ACIS 5.0 NT 24 Thu Mar 25 18:48:40 1999 
-1 9.9999999999999995e-007 1e-010 
body $-1 $9 $-1 $10 #
body $-1 $11 $-1 $12 #
body $-1 $13 $-1 $14 #
body $-1 $15 $-1 $16 #
body $-1 $17 $-1 $18 #
body $-1 $19 $-1 $20 #
body $-1 $21 $-1 $22 #
body $-1 $23 $-1 $24 #
body $-1 $25 $-1 $26 #
lump $-1 $-1 $27 $0 #
transform $-1 1 0 0 0 1 0 0 0 1 47.651600695822019 19.103395399653838 9.4539274001802642 1 rotate no_reflect no_shear #
lump $-1 $-1 $28 $1 #
transform $-1 1 0 0 0 1 0 0 0 1 47.651600695822019 19.103395399653838 9.4539274001802642 1 rotate no_reflect no_shear #
lump $-1 $-1 $29 $2 #
transform $-1 1 0 0 0 1 0 0 0 1 47.651600695822019 19.103395399653838 9.4539274001802642 1 rotate no_reflect no_shear #
lump $-1 $-1 $30 $3 #
transform $-1 1 0 0 0 1 0 0 0 1 47.651600695822019 19.103395399653838 9.4539274001802642 1 rotate no_reflect no_shear #
lump $-1 $-1 $31 $4 #
transform $-1 1 0 0 0 1 0 0 0 1 47.651600695822019 19.103395399653838 9.4539274001802642 1 rotate no_reflect no_shear #
lump $-1 $-1 $32 $5 #
transform $-1 1 0 0 0 1 0 0 0 1 47.651600695822019 19.103395399653838 9.4539274001802642 1 rotate no_reflect no_shear #
lump $-1 $-1 $33 $6 #
transform $-1 1 0 0 0 1 0 0 0 1 47.651600695822019 19.103395399653838 9.4539274001802642 1 rotate no_reflect no_shear #
lump $-1 $-1 $34 $7 #
transform $-1 1 0 0 0 1 0 0 0 1 47.651600695822019 19.103395399653838 9.4539274001802642 1 rotate no_reflect no_shear #
lump $-1 $-1 $35 $8 #
transform $-1 1 0 0 0 1 0 0 0 1 47.651600695822019 19.103395399653838 9.4539274001802642 1 rotate no_reflect no_shear #
shell $-1 $-1 $-1 $36 $-1 $9 #
shell $-1 $-1 $-1 $37 $-1 $11 #
shell $-1 $-1 $-1 $38 $-1 $13 #
shell $-1 $-1 $-1 $39 $-1 $15 #
shell $-1 $-1 $-1 $40 $-1 $17 #
shell $-1 $-1 $-1 $41 $-1 $19 #
shell $-1 $-1 $-1 $42 $-1 $21 #
shell $-1 $-1 $-1 $43 $-1 $23 #
shell $-1 $-1 $-1 $44 $-1 $25 #
face $-1 $45 $46 $27 $-1 $47 forward single #
face $-1 $48 $49 $28 $-1 $50 forward single #
face $-1 $51 $52 $29 $-1 $53 reversed single #
face $-1 $54 $55 $30 $-1 $56 forward single #
face $-1 $57 $58 $31 $-1 $59 forward single #
face $-1 $60 $61 $32 $-1 $62 reversed single #
face $-1 $63 $64 $33 $-1 $65 forward single #
face $-1 $66 $67 $34 $-1 $68 forward single #
face $-1 $69 $70 $35 $-1 $71 forward single #
face $-1 $72 $73 $27 $-1 $74 reversed single #
loop $-1 $-1 $75 $36 #
plane-surface $-1 0 0 9.4539274001802642 0 0 1 1 0 0 forward_v I I I I #
face $-1 $76 $77 $28 $-1 $78 reversed single #
loop $-1 $-1 $79 $37 #
plane-surface $-1 0 -13.245696742601748 -4.1669179688211759 0 0 1 1 0 0 forward_v I I I I #
face $-1 $80 $81 $29 $-1 $82 reversed single #
loop $-1 $-1 $83 $38 #
plane-surface $-1 -130.18659490014377 -0.43090750918218923 48.359094985315103 0 1 0 -0.86602541151947299 0 0.49999998660252726 forward_v I I I I #
face $-1 $84 $85 $30 $-1 $86 forward single #
loop $-1 $87 $88 $39 #
cone-surface $-1 -44.580531662106075 1.516505631630281 4.7653675480955204 0.86602541151947299 0 -0.49999998660252726 0.24999999330126363 0 0.43301270575973649 1 I I 0 1 0.5 forward I I I I #
face $-1 $89 $90 $31 $-1 $91 forward single #
loop $-1 $92 $93 $40 #
cone-surface $-1 -44.580531662106075 4.4376253428489854 4.7653675480955204 0.86602541151947299 0 -0.49999998660252726 0.24999999330126363 0 0.43301270575973649 1 I I 0 1 0.5 forward I I I I #
face $-1 $94 $95 $32 $-1 $96 reversed single #
loop $-1 $-1 $97 $41 #
plane-surface $-1 77.970298796971321 11.271300087843436 136.0786294106571 0 -1 0 -0.84804810408105047 0 -0.52991925155115449 forward_v I I I I #
face $-1 $98 $99 $33 $-1 $100 forward single #
loop $-1 $101 $102 $42 #
cone-surface $-1 45.759134217288704 6.2451245418921104 6.8389685771794948 -0.84804810408105047 0 -0.52991925155115449 0.26495962577557725 0 -0.42402405204052523 1 I I 0 1 0.5 forward I I I I #
face $-1 $103 $104 $34 $-1 $105 forward single #
loop $-1 $106 $107 $43 #
cone-surface $-1 45.759134217288704 8.1299403716238565 6.8389685771794948 -0.84804810408105047 0 -0.52991925155115449 0.26495962577557725 0 -0.42402405204052523 1 I I 0 1 0.5 forward I I I I #
face $-1 $108 $109 $35 $-1 $110 forward single #
loop $-1 $111 $112 $44 #
cone-surface $-1 45.759134217288704 10.014756201355603 6.8389685771794948 -0.84804810408105047 0 -0.52991925155115449 0.26495962577557725 0 -0.42402405204052523 1 I I 0 1 0.5 forward I I I I #
face $-1 $113 $114 $27 $-1 $115 reversed single #
loop $-1 $-1 $116 $45 #
plane-surface $-1 0 0 -9.4539274001802642 0 0 1 1 0 0 forward_v I I I I #
coedge $-1 $117 $118 $119 $120 forward $46 $-1 #
face $-1 $121 $122 $28 $-1 $123 reversed single #
loop $-1 $-1 $124 $48 #
plane-surface $-1 0 -7.3879980855496568 -6.8104226845007201 0 -1 0 0 0 -1 forward_v I I I I #
coedge $-1 $125 $126 $127 $128 reversed $49 $-1 #
face $-1 $129 $130 $29 $-1 $131 reversed single #
loop $-1 $-1 $132 $51 #
plane-surface $-1 -47.65160069582204 2.9770654872396314 0.70749556631512434 -0.86602541151947299 0 0.49999998660252726 0.49999998660252726 0 0.86602541151947299 forward_v I I I I #
coedge $-1 $133 $134 $135 $136 reversed $52 $-1 #
face $-1 $-1 $137 $30 $-1 $138 forward single #
loop $-1 $139 $140 $54 #
cone-surface $-1 -43.817833572170372 1.516505631630281 4.325023616292718 0.86602541151947299 0 -0.49999998660252726 0.12499999665063181 0 0.21650635287986825 1 I I -0.70710678118654746 0.70710678118654746 0.25 forward I I I I #
loop $-1 $-1 $141 $39 #
coedge $-1 $88 $88 $142 $143 reversed $55 $-1 #
face $-1 $-1 $144 $31 $-1 $145 forward single #
loop $-1 $146 $147 $57 #
cone-surface $-1 -43.817833572170372 4.4376253428489854 4.325023616292718 0.86602541151947299 0 -0.49999998660252726 0.12499999665063181 0 0.21650635287986825 1 I I -0.70710678118654746 0.70710678118654746 0.25 forward I I I I #
loop $-1 $-1 $148 $40 #
coedge $-1 $93 $93 $149 $150 reversed $58 $-1 #
face $-1 $151 $152 $32 $-1 $153 reversed single #
loop $-1 $-1 $154 $60 #
plane-surface $-1 -2.8514004560669406 8.1299403716238565 85.575628258768148 0.84804810408105047 0 0.52991925155115449 0.52991925155115449 0 -0.84804810408105047 forward_v I I I I #
coedge $-1 $155 $156 $157 $158 reversed $61 $-1 #
face $-1 $-1 $159 $33 $-1 $160 forward single #
loop $-1 $161 $162 $63 #
cone-surface $-1 45.123098139227913 6.2451245418921104 6.4415291385161293 -0.84804810408105047 0 -0.52991925155115449 0.13247981288778862 0 -0.21201202602026262 1 I I -0.70710678118654746 0.70710678118654746 0.25 forward I I I I #
loop $-1 $-1 $163 $42 #
coedge $-1 $102 $102 $164 $165 reversed $64 $-1 #
face $-1 $-1 $166 $34 $-1 $167 forward single #
loop $-1 $168 $169 $66 #
cone-surface $-1 45.123098139227913 8.1299403716238565 6.4415291385161293 -0.84804810408105047 0 -0.52991925155115449 0.13247981288778862 0 -0.21201202602026262 1 I I -0.70710678118654746 0.70710678118654746 0.25 forward I I I I #
loop $-1 $-1 $170 $43 #
coedge $-1 $107 $107 $171 $172 reversed $67 $-1 #
face $-1 $-1 $173 $35 $-1 $174 forward single #
loop $-1 $175 $176 $69 #
cone-surface $-1 45.123098139227913 10.014756201355603 6.4415291385161293 -0.84804810408105047 0 -0.52991925155115449 0.13247981288778862 0 -0.21201202602026262 1 I I -0.70710678118654746 0.70710678118654746 0.25 forward I I I I #
loop $-1 $-1 $177 $44 #
coedge $-1 $112 $112 $178 $179 reversed $70 $-1 #
face $-1 $180 $181 $27 $-1 $182 reversed single #
loop $-1 $-1 $183 $72 #
plane-surface $-1 0 -19.103395399653838 0 0 1 0 0 0 1 forward_v I I I I #
coedge $-1 $184 $185 $186 $187 forward $73 $-1 #
coedge $-1 $188 $75 $189 $190 forward $46 $-1 #
coedge $-1 $75 $188 $191 $192 forward $46 $-1 #
coedge $-1 $193 $194 $75 $120 reversed $195 $-1 #
edge $-1 $196 -19.103395399653838 $197 19.103395399653838 $119 $198 forward 7 unknown #
face $-1 $199 $200 $28 $-1 $201 reversed single #
loop $-1 $-1 $202 $76 #
plane-surface $-1 0 0 -9.4539274001802642 0 0 1 1 0 0 forward_v I I I I #
coedge $-1 $203 $204 $205 $206 reversed $77 $-1 #
coedge $-1 $207 $79 $204 $208 forward $49 $-1 #
coedge $-1 $79 $207 $209 $210 reversed $49 $-1 #
coedge $-1 $211 $205 $79 $128 forward $200 $-1 #
edge $-1 $212 0.76514971424878286 $213 12.480547028352964 $127 $214 forward 7 unknown #
face $-1 $215 $216 $29 $-1 $217 forward single #
loop $-1 $-1 $218 $80 #
plane-surface $-1 -130.18659490014377 6.385038483661452 48.359094985315103 0 -1 0 0.86602541151947299 0 -0.49999998660252726 forward_v I I I I #
coedge $-1 $219 $220 $221 $222 reversed $81 $-1 #
coedge $-1 $134 $83 $223 $224 reversed $52 $-1 #
coedge $-1 $83 $133 $219 $225 reversed $52 $-1 #
coedge $-1 $221 $226 $83 $136 forward $216 $-1 #
edge $-1 $227 17.441696754249868 $228 22.491451347570063 $135 $229 forward 7 unknown #
loop $-1 $-1 $142 $84 #
plane-surface $-1 -47.65160069582204 2.9770654872396314 0.70749556631512434 -0.86602541151947299 0 0.49999998660252726 0.49999998660252726 0 0.86602541151947299 forward_v I I I I #
loop $-1 $-1 $230 $54 #
coedge $-1 $140 $140 $141 $231 reversed $85 $-1 #
coedge $-1 $141 $141 $140 $231 forward $87 $-1 #
coedge $-1 $142 $142 $88 $143 forward $137 $-1 #
edge $-1 $232 0 $232 6.2831853071796004 $142 $233 forward 7 unknown #
loop $-1 $-1 $149 $89 #
plane-surface $-1 -47.65160069582204 2.9770654872396314 0.70749556631512434 -0.86602541151947299 0 0.49999998660252726 0.49999998660252726 0 0.86602541151947299 forward_v I I I I #
loop $-1 $-1 $234 $57 #
coedge $-1 $147 $147 $148 $235 reversed $90 $-1 #
coedge $-1 $148 $148 $147 $235 forward $92 $-1 #
coedge $-1 $149 $149 $93 $150 forward $144 $-1 #
edge $-1 $236 0 $236 6.2831853071796004 $149 $237 forward 7 unknown #
face $-1 $238 $239 $32 $-1 $240 reversed single #
loop $-1 $-1 $241 $94 #
plane-surface $-1 77.970298796971321 4.9885806554042773 136.0786294106571 0 1 0 0.84804810408105047 0 0.52991925155115449 forward_v I I I I #
coedge $-1 $242 $243 $244 $245 reversed $95 $-1 #
coedge $-1 $156 $97 $246 $247 reversed $61 $-1 #
coedge $-1 $97 $155 $242 $248 reversed $61 $-1 #
coedge $-1 $244 $249 $97 $158 forward $250 $-1 #
edge $-1 $251 -8.6664512973363586 $252 -5.7295664443507803 $157 $253 forward 7 unknown #
loop $-1 $-1 $164 $98 #
plane-surface $-1 -2.8514004560669406 8.1299403716238565 85.575628258768148 0.84804810408105047 0 0.52991925155115449 0.52991925155115449 0 -0.84804810408105047 forward_v I I I I #
loop $-1 $-1 $254 $63 #
coedge $-1 $162 $162 $163 $255 reversed $99 $-1 #
coedge $-1 $163 $163 $162 $255 forward $101 $-1 #
coedge $-1 $164 $164 $102 $165 forward $159 $-1 #
edge $-1 $256 0 $256 6.2831853071796004 $164 $257 forward 7 unknown #
loop $-1 $-1 $171 $103 #
plane-surface $-1 -2.8514004560669406 8.1299403716238565 85.575628258768148 0.84804810408105047 0 0.52991925155115449 0.52991925155115449 0 -0.84804810408105047 forward_v I I I I #
loop $-1 $-1 $258 $66 #
coedge $-1 $169 $169 $170 $259 reversed $104 $-1 #
coedge $-1 $170 $170 $169 $259 forward $106 $-1 #
coedge $-1 $171 $171 $107 $172 forward $166 $-1 #
edge $-1 $260 0 $260 6.2831853071796004 $171 $261 forward 7 unknown #
loop $-1 $-1 $178 $108 #
plane-surface $-1 -2.8514004560669406 8.1299403716238565 85.575628258768148 0.84804810408105047 0 0.52991925155115449 0.52991925155115449 0 -0.84804810408105047 forward_v I I I I #
loop $-1 $-1 $262 $69 #
coedge $-1 $176 $176 $177 $263 reversed $109 $-1 #
coedge $-1 $177 $177 $176 $263 forward $111 $-1 #
coedge $-1 $178 $178 $112 $179 forward $173 $-1 #
edge $-1 $264 0 $264 6.2831853071796004 $178 $265 forward 7 unknown #
face $-1 $266 $267 $27 $-1 $268 reversed single #
loop $-1 $-1 $269 $113 #
plane-surface $-1 -47.651600695822019 0 0 1 0 0 0 0 -1 forward_v I I I I #
coedge $-1 $270 $191 $271 $272 forward $114 $-1 #
coedge $-1 $273 $116 $270 $274 forward $73 $-1 #
coedge $-1 $116 $273 $275 $276 forward $73 $-1 #
coedge $-1 $194 $193 $116 $187 reversed $195 $-1 #
edge $-1 $277 -19.103395399653838 $278 19.103395399653838 $186 $279 forward 7 unknown #
coedge $-1 $118 $117 $280 $281 forward $46 $-1 #
coedge $-1 $282 $283 $117 $190 reversed $267 $-1 #
edge $-1 $197 -47.651600695822019 $284 47.651600695822019 $189 $285 forward 7 unknown #
coedge $-1 $183 $286 $118 $192 reversed $114 $-1 #
edge $-1 $287 -47.651600695822019 $196 47.651600695822019 $191 $288 forward 7 unknown #
coedge $-1 $186 $119 $286 $289 forward $195 $-1 #
coedge $-1 $119 $186 $282 $290 reversed $195 $-1 #
loop $-1 $-1 $193 $266 #
vertex $-1 $120 $291 #
vertex $-1 $120 $292 #
straight-curve $-1 47.651600695822019 0 9.4539274001802642 0 1 0 I I #
face $-1 $293 $294 $28 $-1 $295 reversed single #
loop $-1 $-1 $205 $121 #
plane-surface $-1 47.651600695822019 0 0 -1 0 0 0 0 1 forward_v I I I I #
coedge $-1 $296 $297 $203 $298 forward $122 $-1 #
coedge $-1 $299 $124 $202 $298 reversed $77 $-1 #
coedge $-1 $124 $299 $125 $208 reversed $77 $-1 #
coedge $-1 $127 $300 $124 $206 forward $200 $-1 #
edge $-1 $301 -6.0487160579299042 $212 -0.76170662657081589 $205 $302 forward 7 unknown #
coedge $-1 $126 $125 $303 $304 reversed $49 $-1 #
edge $-1 $212 -47.651600695822019 $305 47.651600695822019 $204 $306 forward 7 unknown #
coedge $-1 $307 $308 $126 $210 forward $294 $-1 #
edge $-1 $213 -47.651600695822019 $309 47.651600695822019 $209 $310 forward 7 unknown #
coedge $-1 $300 $127 $308 $311 forward $200 $-1 #
vertex $-1 $128 $312 #
vertex $-1 $311 $313 #
straight-curve $-1 47.651600695822019 -6.6228483713008739 -4.1669179688211759 0 -1 0 I I #
face $-1 $-1 $314 $29 $-1 $315 reversed single #
loop $-1 $-1 $135 $129 #
plane-surface $-1 0 0 9.4539274001802642 0 0 1 1 0 0 forward_v I I I I #
coedge $-1 $316 $317 $318 $319 reversed $130 $-1 #
coedge $-1 $320 $132 $134 $225 forward $81 $-1 #
coedge $-1 $132 $320 $316 $321 forward $81 $-1 #
coedge $-1 $318 $135 $132 $222 forward $216 $-1 #
edge $-1 $228 -1.9194402528020049 $322 4.8965057400416363 $221 $323 forward 7 unknown #
coedge $-1 $324 $325 $133 $224 forward $314 $-1 #
edge $-1 $326 -23.472051926342392 $227 -14.725620092477287 $223 $327 forward 7 unknown #
edge $-1 $228 -10.099509457256236 $326 -4.2675469765071053e-014 $134 $328 forward 7 unknown #
coedge $-1 $135 $318 $324 $329 forward $216 $-1 #
vertex $-1 $224 $330 #
vertex $-1 $136 $331 #
straight-curve $-1 -65.093297450071887 -0.43090750918218923 9.453927400180266 1 0 0 I I #
coedge $-1 $230 $230 $-1 $332 reversed $139 $-1 #
edge $-1 $333 0 $333 6.2831853071796004 $140 $334 forward 7 unknown #
vertex $-1 $143 $335 #
ellipse-curve $-1 -45.126723399161925 1.516505631630281 5.0807114832477014 -0.86602541151947299 0 0.49999998660252726 0.24999999330126363 0 0.43301270575973649 1 I I #
coedge $-1 $234 $234 $-1 $336 reversed $146 $-1 #
edge $-1 $337 0 $337 6.2831853071796004 $147 $338 forward 7 unknown #
vertex $-1 $150 $339 #
ellipse-curve $-1 -45.126723399161925 4.4376253428489854 5.0807114832477014 -0.86602541151947299 0 0.49999998660252726 0.24999999330126363 0 0.43301270575973649 1 I I #
face $-1 $-1 $250 $32 $-1 $340 forward single #
loop $-1 $-1 $341 $151 #
plane-surface $-1 47.651600695822019 0 0 -1 0 0 0 0 1 forward_v I I I I #
coedge $-1 $342 $343 $344 $345 reversed $152 $-1 #
coedge $-1 $346 $154 $156 $248 forward $95 $-1 #
coedge $-1 $154 $346 $342 $347 forward $95 $-1 #
coedge $-1 $344 $157 $154 $245 forward $250 $-1 #
edge $-1 $252 -7.2063299020315075 $348 -0.92361046959234905 $244 $349 forward 7 unknown #
coedge $-1 $350 $351 $155 $247 forward $239 $-1 #
edge $-1 $352 -63.285385699598677 $251 -58.585387305148288 $246 $353 forward 7 unknown #
edge $-1 $252 89.761064840860385 $352 95.303201391644052 $156 $354 forward 7 unknown #
coedge $-1 $157 $344 $350 $355 forward $250 $-1 #
loop $-1 $-1 $344 $238 #
vertex $-1 $247 $356 #
vertex $-1 $158 $357 #
straight-curve $-1 38.98514939848566 11.271300087843436 9.4539274001802625 -1 0 0 I I #
coedge $-1 $254 $254 $-1 $358 reversed $161 $-1 #
edge $-1 $359 0 $359 6.2831853071796004 $162 $360 forward 7 unknown #
vertex $-1 $165 $361 #
ellipse-curve $-1 46.183158269329226 6.2451245418921104 7.1039282029550721 0.84804810408105047 0 0.52991925155115449 0.26495962577557725 0 -0.42402405204052523 1 I I #
coedge $-1 $258 $258 $-1 $362 reversed $168 $-1 #
edge $-1 $363 0 $363 6.2831853071796004 $169 $364 forward 7 unknown #
vertex $-1 $172 $365 #
ellipse-curve $-1 46.183158269329226 8.1299403716238565 7.1039282029550721 0.84804810408105047 0 0.52991925155115449 0.26495962577557725 0 -0.42402405204052523 1 I I #
coedge $-1 $262 $262 $-1 $366 reversed $175 $-1 #
edge $-1 $367 0 $367 6.2831853071796004 $176 $368 forward 7 unknown #
vertex $-1 $179 $369 #
ellipse-curve $-1 46.183158269329226 10.014756201355603 7.1039282029550721 0.84804810408105047 0 0.52991925155115449 0.26495962577557725 0 -0.42402405204052523 1 I I #
face $-1 $-1 $195 $27 $-1 $370 reversed single #
loop $-1 $-1 $282 $180 #
plane-surface $-1 0 19.103395399653838 0 0 -1 0 0 0 -1 forward_v I I I I #
coedge $-1 $371 $280 $283 $372 forward $181 $-1 #
coedge $-1 $286 $183 $184 $274 reversed $114 $-1 #
coedge $-1 $280 $371 $183 $272 reversed $181 $-1 #
edge $-1 $287 -9.4539274001802642 $373 9.4539274001802642 $271 $374 forward 7 unknown #
coedge $-1 $185 $184 $371 $375 forward $73 $-1 #
edge $-1 $278 -47.651600695822019 $373 47.651600695822019 $270 $376 forward 7 unknown #
coedge $-1 $283 $282 $185 $276 reversed $267 $-1 #
edge $-1 $377 -47.651600695822019 $277 47.651600695822019 $275 $378 forward 7 unknown #
vertex $-1 $187 $379 #
vertex $-1 $289 $380 #
straight-curve $-1 47.651600695822019 0 -9.4539274001802642 0 -1 0 I I #
coedge $-1 $269 $271 $188 $281 reversed $181 $-1 #
edge $-1 $284 -19.103395399653838 $287 19.103395399653838 $280 $381 forward 7 unknown #
coedge $-1 $275 $189 $194 $290 forward $267 $-1 #
coedge $-1 $189 $275 $269 $372 reversed $267 $-1 #
vertex $-1 $190 $382 #
straight-curve $-1 0 19.103395399653838 9.4539274001802642 -1 0 0 I I #
coedge $-1 $191 $270 $193 $289 reversed $114 $-1 #
vertex $-1 $281 $383 #
straight-curve $-1 0 -19.103395399653838 9.4539274001802642 1 0 0 I I #
edge $-1 $196 -9.4539274001802642 $278 9.4539274001802642 $193 $384 forward 7 unknown #
edge $-1 $197 -9.4539274001802642 $277 9.4539274001802642 $194 $385 forward 7 unknown #
point $-1 47.651600695822019 -19.103395399653838 9.4539274001802642 #
point $-1 47.651600695822019 19.103395399653838 9.4539274001802642 #
face $-1 $-1 $386 $28 $-1 $387 reversed single #
loop $-1 $-1 $209 $199 #
plane-surface $-1 0 -19.103395399653838 0 0 1 0 0 0 1 forward_v I I I I #
coedge $-1 $388 $202 $300 $389 forward $122 $-1 #
coedge $-1 $202 $388 $390 $391 forward $122 $-1 #
edge $-1 $392 -47.651600695822019 $301 47.651600695822019 $202 $393 forward 7 unknown #
coedge $-1 $204 $203 $394 $395 reversed $77 $-1 #
coedge $-1 $205 $211 $296 $389 reversed $200 $-1 #
vertex $-1 $389 $396 #
straight-curve $-1 47.651600695822019 -7.3879980855496568 -3.40521134225036 0 0 1 I I #
coedge $-1 $394 $397 $207 $304 forward $386 $-1 #
edge $-1 $309 -12.480547028352964 $305 -0.76514971424878286 $303 $398 forward 7 unknown #
vertex $-1 $304 $399 #
straight-curve $-1 0 -7.3879980855496568 -4.1669179688211759 -1 0 0 I I #
coedge $-1 $400 $209 $397 $401 forward $294 $-1 #
coedge $-1 $209 $400 $211 $311 reversed $294 $-1 #
vertex $-1 $401 $402 #
straight-curve $-1 0 -19.103395399653838 -4.1669179688211759 -1 0 0 I I #
edge $-1 $213 4.1669179688211759 $403 9.4539274001802642 $211 $404 forward 7 unknown #
point $-1 47.651600695822019 -7.3879980855496568 -4.1669179688211759 #
point $-1 47.651600695822019 -19.103395399653838 -4.1669179688211759 #
loop $-1 $-1 $223 $215 #
plane-surface $-1 -47.651600695822019 0 0 1 0 0 0 0 -1 forward_v I I I I #
coedge $-1 $317 $218 $220 $321 reversed $130 $-1 #
coedge $-1 $218 $316 $405 $406 reversed $130 $-1 #
coedge $-1 $226 $221 $218 $319 forward $216 $-1 #
edge $-1 $322 -22.491451347570063 $407 -17.441696754249868 $318 $408 forward 7 unknown #
coedge $-1 $220 $219 $325 $409 reversed $81 $-1 #
edge $-1 $410 4.2675469765071053e-014 $322 10.099509457256236 $316 $411 forward 7 unknown #
vertex $-1 $222 $412 #
straight-curve $-1 -42.601846102501824 1.4885327436198157 9.4539274001802642 0 1 0 I I #
coedge $-1 $405 $223 $226 $329 reversed $314 $-1 #
coedge $-1 $223 $405 $320 $409 forward $314 $-1 #
vertex $-1 $224 $413 #
straight-curve $-1 -47.651600695822019 -0.43090750918218923 24.179547492657552 0 0 1 I I #
straight-curve $-1 -47.65160069582204 -0.43090750918218923 0.70749556631512434 -0.49999998660252726 0 -0.86602541151947299 I I #
edge $-1 $407 -6.385038483661452 $227 0.43090750918218923 $324 $414 forward 7 unknown #
point $-1 -47.651600695822019 -0.43090750918218923 9.4539274001802642 #
point $-1 -42.601846102501824 -0.43090750918218923 9.4539274001802642 #
edge $-1 $415 1 $415 0 $230 $-1 forward 7 unknown #
vertex $-1 $231 $416 #
ellipse-curve $-1 -44.03433992505024 1.516505631630281 4.4500236129433501 -0.86602541151947299 0 0.49999998660252726 0.24999999330126363 0 0.43301270575973649 1 I I #
point $-1 -44.876723405860645 1.516505631630281 5.5137241890074273 #
edge $-1 $417 1 $417 0 $234 $-1 forward 7 unknown #
vertex $-1 $235 $418 #
ellipse-curve $-1 -44.03433992505024 4.4376253428489854 4.4500236129433501 -0.86602541151947299 0 0.49999998660252726 0.24999999330126363 0 0.43301270575973649 1 I I #
point $-1 -44.876723405860645 4.4376253428489854 5.5137241890074273 #
plane-surface $-1 0 0 9.4539274001802642 0 0 1 1 0 0 forward_v I I I I #
coedge $-1 $351 $350 $343 $419 forward $239 $-1 #
coedge $-1 $343 $241 $243 $347 reversed $152 $-1 #
coedge $-1 $241 $342 $341 $419 reversed $152 $-1 #
coedge $-1 $249 $244 $241 $345 forward $250 $-1 #
edge $-1 $348 5.7295664443507803 $420 8.6664512973363586 $344 $421 forward 7 unknown #
coedge $-1 $243 $242 $351 $422 reversed $95 $-1 #
edge $-1 $423 -95.303201391644052 $348 -89.761064840860385 $342 $424 forward 7 unknown #
vertex $-1 $245 $425 #
straight-curve $-1 44.714715842836441 4.0649701858119283 9.4539274001802696 0 -1 0 I I #
coedge $-1 $341 $246 $249 $355 reversed $239 $-1 #
coedge $-1 $246 $341 $346 $422 forward $239 $-1 #
vertex $-1 $247 $426 #
straight-curve $-1 47.651600695822019 11.271300087843436 68.03931470532855 0 0 1 I I #
straight-curve $-1 -2.8514004560669406 11.271300087843436 85.575628258768148 0.52991925155115449 0 -0.84804810408105047 I I #
edge $-1 $420 4.9885806554042773 $251 11.271300087843436 $350 $427 forward 7 unknown #
point $-1 47.651600695822019 11.271300087843436 9.4539274001802642 #
point $-1 44.714715842836441 11.271300087843436 9.4539274001802625 #
edge $-1 $428 1 $428 0 $254 $-1 forward 7 unknown #
vertex $-1 $255 $429 #
ellipse-curve $-1 45.335110165248174 6.2451245418921104 6.5740089514039175 0.84804810408105047 0 0.52991925155115449 0.26495962577557725 0 -0.42402405204052523 1 I I #
point $-1 46.448117895104801 6.2451245418921104 6.6799041509145471 #
edge $-1 $430 1 $430 0 $258 $-1 forward 7 unknown #
vertex $-1 $259 $431 #
ellipse-curve $-1 45.335110165248174 8.1299403716238565 6.5740089514039175 0.84804810408105047 0 0.52991925155115449 0.26495962577557725 0 -0.42402405204052523 1 I I #
point $-1 46.448117895104801 8.1299403716238565 6.6799041509145471 #
edge $-1 $432 1 $432 0 $262 $-1 forward 7 unknown #
vertex $-1 $263 $433 #
ellipse-curve $-1 45.335110165248174 10.014756201355603 6.5740089514039175 0.84804810408105047 0 0.52991925155115449 0.26495962577557725 0 -0.42402405204052523 1 I I #
point $-1 46.448117895104801 10.014756201355603 6.6799041509145471 #
plane-surface $-1 47.651600695822019 0 0 -1 0 0 0 0 1 forward_v I I I I #
coedge $-1 $271 $269 $273 $375 reversed $181 $-1 #
edge $-1 $284 -9.4539274001802642 $377 9.4539274001802642 $283 $434 forward 7 unknown #
vertex $-1 $375 $435 #
straight-curve $-1 -47.651600695822019 -19.103395399653838 0 0 0 -1 I I #
edge $-1 $373 -19.103395399653838 $377 19.103395399653838 $371 $436 forward 7 unknown #
straight-curve $-1 0 -19.103395399653838 -9.4539274001802642 -1 0 0 I I #
vertex $-1 $276 $437 #
straight-curve $-1 0 19.103395399653838 -9.4539274001802642 1 0 0 I I #
point $-1 47.651600695822019 19.103395399653838 -9.4539274001802642 #
point $-1 47.651600695822019 -19.103395399653838 -9.4539274001802642 #
straight-curve $-1 -47.651600695822019 0 9.4539274001802642 0 -1 0 I I #
point $-1 -47.651600695822019 19.103395399653838 9.4539274001802642 #
point $-1 -47.651600695822019 -19.103395399653838 9.4539274001802642 #
straight-curve $-1 47.651600695822019 -19.103395399653838 0 0 0 -1 I I #
straight-curve $-1 47.651600695822019 19.103395399653838 0 0 0 -1 I I #
loop $-1 $-1 $394 $293 #
plane-surface $-1 -47.651600695822019 0 0 1 0 0 0 0 -1 forward_v I I I I #
coedge $-1 $297 $296 $400 $438 forward $122 $-1 #
edge $-1 $301 7.3879980855496568 $403 19.103395399653838 $300 $439 forward 7 unknown #
coedge $-1 $397 $394 $297 $391 reversed $386 $-1 #
edge $-1 $440 -19.103395399653838 $392 -7.3879980855496568 $390 $441 forward 7 unknown #
vertex $-1 $395 $442 #
straight-curve $-1 0 -7.3879980855496568 -9.4539274001802642 1 0 0 I I #
coedge $-1 $390 $303 $299 $395 forward $386 $-1 #
edge $-1 $305 0.76170662657081589 $392 6.0487160579299042 $394 $443 forward 7 unknown #
point $-1 47.651600695822019 -7.3879980855496568 -9.4539274001802642 #
coedge $-1 $303 $390 $307 $401 reversed $386 $-1 #
straight-curve $-1 -47.651600695822019 -6.6228483713008739 -4.1669179688211759 0 1 0 I I #
point $-1 -47.651600695822019 -7.3879980855496568 -4.1669179688211759 #
coedge $-1 $308 $307 $388 $438 reversed $294 $-1 #
edge $-1 $309 4.1669179688211759 $440 9.4539274001802642 $397 $444 forward 7 unknown #
point $-1 -47.651600695822019 -19.103395399653838 -4.1669179688211759 #
vertex $-1 $311 $445 #
straight-curve $-1 47.651600695822019 -19.103395399653838 0 0 0 -1 I I #
coedge $-1 $325 $324 $317 $406 forward $314 $-1 #
edge $-1 $407 14.725620092477287 $410 23.472051926342392 $405 $446 forward 7 unknown #
vertex $-1 $329 $447 #
straight-curve $-1 -65.093297450071887 6.385038483661452 9.453927400180266 -1 0 0 I I #
edge $-1 $410 -4.8965057400416363 $326 1.9194402528020049 $325 $448 forward 7 unknown #
vertex $-1 $409 $449 #
straight-curve $-1 -47.65160069582204 6.385038483661452 0.70749556631512434 0.49999998660252726 0 0.86602541151947299 I I #
point $-1 -42.601846102501824 6.385038483661452 9.4539274001802642 #
point $-1 -47.651600695822019 -0.43090750918218923 0.70749556631516131 #
straight-curve $-1 -47.651600695822019 0 9.4539274001802642 0 -1 0 I I #
vertex $-1 $332 $450 #
point $-1 -43.784339931748974 1.516505631630281 4.8830363187030859 #
vertex $-1 $336 $451 #
point $-1 -43.784339931748974 4.4376253428489854 4.8830363187030859 #
edge $-1 $420 58.585387305148288 $423 63.285385699598677 $341 $452 forward 7 unknown #
vertex $-1 $355 $453 #
straight-curve $-1 38.98514939848566 4.9885806554042773 9.4539274001802625 1 0 0 I I #
edge $-1 $423 0.92361046959234905 $352 7.2063299020315075 $351 $454 forward 7 unknown #
vertex $-1 $422 $455 #
straight-curve $-1 -2.8514004560669406 4.9885806554042773 85.575628258768148 -0.52991925155115449 0 0.84804810408105047 I I #
point $-1 44.714715842836441 4.9885806554042773 9.4539274001802625 #
point $-1 47.651600695822019 11.271300087843436 4.7539290057298729 #
straight-curve $-1 47.651600695822019 0 9.4539274001802642 0 1 0 I I #
vertex $-1 $358 $456 #
point $-1 45.600069791023756 6.2451245418921104 6.1499848993633925 #
vertex $-1 $362 $457 #
point $-1 45.600069791023756 8.1299403716238565 6.1499848993633925 #
vertex $-1 $366 $458 #
point $-1 45.600069791023756 10.014756201355603 6.1499848993633925 #
straight-curve $-1 -47.651600695822019 19.103395399653838 0 0 0 -1 I I #
point $-1 -47.651600695822019 -19.103395399653838 -9.4539274001802642 #
straight-curve $-1 -47.651600695822019 0 -9.4539274001802642 0 1 0 I I #
point $-1 -47.651600695822019 19.103395399653838 -9.4539274001802642 #
edge $-1 $403 -47.651600695822019 $440 47.651600695822019 $400 $459 forward 7 unknown #
straight-curve $-1 47.651600695822019 0 -9.4539274001802642 0 -1 0 I I #
vertex $-1 $391 $460 #
straight-curve $-1 -47.651600695822019 0 -9.4539274001802642 0 1 0 I I #
point $-1 -47.651600695822019 -7.3879980855496568 -9.4539274001802642 #
straight-curve $-1 -47.651600695822019 -7.3879980855496568 -3.40521134225036 0 0 -1 I I #
straight-curve $-1 -47.651600695822019 -19.103395399653838 0 0 0 -1 I I #
point $-1 47.651600695822019 -19.103395399653838 -9.4539274001802642 #
straight-curve $-1 -47.651600695822019 6.385038483661452 24.179547492657552 0 0 -1 I I #
point $-1 -47.651600695822019 6.385038483661452 9.4539274001802642 #
straight-curve $-1 -47.651600695822019 1.4885327436198157 0.70749556631515365 0 -1 0 I I #
point $-1 -47.651600695822019 6.385038483661452 0.70749556631516131 #
point $-1 -43.601327219290503 1.516505631630281 4.2000236196420859 #
point $-1 -43.601327219290503 4.4376253428489854 4.2000236196420859 #
straight-curve $-1 47.651600695822019 4.9885806554042773 68.03931470532855 0 0 -1 I I #
point $-1 47.651600695822019 4.9885806554042773 9.4539274001802642 #
straight-curve $-1 47.651600695822012 4.0649701858119283 4.7539290057298871 0 1 0 I I #
point $-1 47.651600695822019 4.9885806554042773 4.7539290057298729 #
point $-1 44.911086113207652 6.2451245418921104 6.3090493256283411 #
point $-1 44.911086113207652 8.1299403716238565 6.3090493256283411 #
point $-1 44.911086113207652 10.014756201355603 6.3090493256283411 #
straight-curve $-1 0 -19.103395399653838 -9.4539274001802642 -1 0 0 I I #
point $-1 -47.651600695822019 -19.103395399653838 -9.4539274001802642 #
End-of-ACIS-data 