500 0 13 0           
7 Unknown 11 ACIS 5.0 NT 24 Fri Mar 26 00:30:46 1999 
-1 9.9999999999999995e-007 1e-010 
body $-1 $13 $-1 $14 #
body $-1 $15 $-1 $16 #
body $-1 $17 $-1 $18 #
body $-1 $19 $-1 $20 #
body $-1 $21 $-1 $22 #
body $-1 $23 $-1 $24 #
body $-1 $25 $-1 $26 #
body $-1 $27 $-1 $28 #
body $-1 $29 $-1 $30 #
body $-1 $31 $-1 $32 #
body $-1 $33 $-1 $34 #
body $-1 $35 $-1 $36 #
body $-1 $37 $-1 $38 #
lump $-1 $-1 $39 $0 #
transform $-1 1 0 0 0 1 0 0 0 1 50.22614215521714 34.6156787523134 15.829064171911934 1 rotate no_reflect no_shear #
lump $-1 $-1 $40 $1 #
transform $-1 1 0 0 0 1 0 0 0 1 50.22614215521714 34.6156787523134 15.829064171911934 1 rotate no_reflect no_shear #
lump $-1 $-1 $41 $2 #
transform $-1 1 0 0 0 1 0 0 0 1 50.22614215521714 34.6156787523134 15.829064171911934 1 rotate no_reflect no_shear #
lump $-1 $-1 $42 $3 #
transform $-1 1 0 0 0 1 0 0 0 1 50.22614215521714 34.6156787523134 15.829064171911934 1 rotate no_reflect no_shear #
lump $-1 $-1 $43 $4 #
transform $-1 1 0 0 0 1 0 0 0 1 50.22614215521714 34.6156787523134 15.829064171911934 1 rotate no_reflect no_shear #
lump $-1 $-1 $44 $5 #
transform $-1 1 0 0 0 1 0 0 0 1 50.22614215521714 34.6156787523134 15.829064171911934 1 rotate no_reflect no_shear #
lump $-1 $-1 $45 $6 #
transform $-1 1 0 0 0 1 0 0 0 1 50.22614215521714 34.6156787523134 15.829064171911934 1 rotate no_reflect no_shear #
lump $-1 $-1 $46 $7 #
transform $-1 1 0 0 0 1 0 0 0 1 50.22614215521714 34.6156787523134 15.829064171911934 1 rotate no_reflect no_shear #
lump $-1 $-1 $47 $8 #
transform $-1 1 0 0 0 1 0 0 0 1 50.22614215521714 34.6156787523134 15.829064171911934 1 rotate no_reflect no_shear #
lump $-1 $-1 $48 $9 #
transform $-1 1 0 0 0 1 0 0 0 1 50.22614215521714 34.6156787523134 15.829064171911934 1 rotate no_reflect no_shear #
lump $-1 $-1 $49 $10 #
transform $-1 1 0 0 0 1 0 0 0 1 50.22614215521714 34.6156787523134 15.829064171911934 1 rotate no_reflect no_shear #
lump $-1 $-1 $50 $11 #
transform $-1 1 0 0 0 1 0 0 0 1 50.22614215521714 34.6156787523134 15.829064171911934 1 rotate no_reflect no_shear #
lump $-1 $-1 $51 $12 #
transform $-1 1 0 0 0 1 0 0 0 1 50.22614215521714 34.6156787523134 15.829064171911934 1 rotate no_reflect no_shear #
shell $-1 $-1 $-1 $52 $-1 $13 #
shell $-1 $-1 $-1 $53 $-1 $15 #
shell $-1 $-1 $-1 $54 $-1 $17 #
shell $-1 $-1 $-1 $55 $-1 $19 #
shell $-1 $-1 $-1 $56 $-1 $21 #
shell $-1 $-1 $-1 $57 $-1 $23 #
shell $-1 $-1 $-1 $58 $-1 $25 #
shell $-1 $-1 $-1 $59 $-1 $27 #
shell $-1 $-1 $-1 $60 $-1 $29 #
shell $-1 $-1 $-1 $61 $-1 $31 #
shell $-1 $-1 $-1 $62 $-1 $33 #
shell $-1 $-1 $-1 $63 $-1 $35 #
shell $-1 $-1 $-1 $64 $-1 $37 #
face $-1 $65 $66 $39 $-1 $67 forward single #
face $-1 $68 $69 $40 $-1 $70 reversed single #
face $-1 $71 $72 $41 $-1 $73 reversed single #
face $-1 $74 $75 $42 $-1 $76 forward single #
face $-1 $77 $78 $43 $-1 $79 forward single #
face $-1 $80 $81 $44 $-1 $82 reversed single #
face $-1 $83 $84 $45 $-1 $85 forward single #
face $-1 $86 $87 $46 $-1 $88 forward single #
face $-1 $89 $90 $47 $-1 $91 forward single #
face $-1 $92 $93 $48 $-1 $94 reversed single #
face $-1 $95 $96 $49 $-1 $97 forward single #
face $-1 $98 $99 $50 $-1 $100 forward single #
face $-1 $101 $102 $51 $-1 $103 forward single #
face $-1 $104 $105 $39 $-1 $106 reversed single #
loop $-1 $-1 $107 $52 #
plane-surface $-1 0 0 15.829064171911934 0 0 1 1 0 0 forward_v I I I I #
face $-1 $108 $109 $40 $-1 $110 reversed single #
loop $-1 $-1 $111 $53 #
plane-surface $-1 -44.740630134241414 -27.041476135308265 0 0 -1 0 0 0 -1 forward_v I I I I #
face $-1 $112 $113 $41 $-1 $114 reversed single #
loop $-1 $-1 $115 $54 #
plane-surface $-1 -26.560833059460268 -113.77315984247028 73.230115988880314 -1 0 0 0 -0.78801076186113728 0.61566146476048833 forward_v I I I I #
face $-1 $116 $117 $42 $-1 $118 forward single #
loop $-1 $119 $120 $55 #
cone-surface $-1 -35.628179526464137 -32.324801534624697 13.173647485097172 0 0.78801076186113728 -0.61566146476048833 1 0 0 1 I I 0 1 1 forward I I I I #
face $-1 $121 $122 $43 $-1 $123 forward single #
loop $-1 $124 $125 $56 #
cone-surface $-1 -30.187771646261815 -32.324801534624697 13.173647485097172 0 0.78801076186113728 -0.61566146476048833 1 0 0 1 I I 0 1 1 forward I I I I #
face $-1 $126 $127 $44 $-1 $128 reversed single #
loop $-1 $-1 $129 $57 #
plane-surface $-1 -30.891467158846716 46.15086701834764 122.14066345052359 1 0 0 0 -0.64278761758704617 -0.76604443648966558 forward_v I I I I #
face $-1 $130 $131 $45 $-1 $132 forward single #
loop $-1 $133 $134 $58 #
cone-surface $-1 -27.039133279164616 23.892918107962483 6.2317480317433178 0 -0.64278761758704617 -0.76604443648966558 1.5 0 0 1 I I 0 1 1.5 forward I I I I #
face $-1 $135 $136 $46 $-1 $137 forward single #
loop $-1 $138 $139 $59 #
cone-surface $-1 -21.260632459641464 23.892918107962483 6.2317480317433178 0 -0.64278761758704617 -0.76604443648966558 1.5 0 0 1 I I 0 1 1.5 forward I I I I #
face $-1 $140 $141 $47 $-1 $142 forward single #
loop $-1 $143 $144 $60 #
cone-surface $-1 -15.482131640118311 23.892918107962483 6.2317480317433178 0 -0.64278761758704617 -0.76604443648966558 1.5 0 0 1 I I 0 1 1.5 forward I I I I #
face $-1 $145 $146 $48 $-1 $147 reversed single #
loop $-1 $-1 $148 $61 #
plane-surface $-1 13.849162975394698 46.15086701834764 122.14066345052359 1 0 0 0 -0.64278761758704617 -0.76604443648966558 forward_v I I I I #
face $-1 $149 $150 $49 $-1 $151 forward single #
loop $-1 $152 $153 $62 #
cone-surface $-1 17.701496855076805 23.892918107962483 6.2317480317433178 0 -0.64278761758704617 -0.76604443648966558 1.5 0 0 1 I I 0 1 1.5 forward I I I I #
face $-1 $154 $155 $50 $-1 $156 forward single #
loop $-1 $157 $158 $63 #
cone-surface $-1 23.47999767459995 23.892918107962483 6.2317480317433178 0 -0.64278761758704617 -0.76604443648966558 1.5 0 0 1 I I 0 1 1.5 forward I I I I #
face $-1 $159 $160 $51 $-1 $161 forward single #
loop $-1 $162 $163 $64 #
cone-surface $-1 29.258498494123096 23.892918107962483 6.2317480317433178 0 -0.64278761758704617 -0.76604443648966558 1.5 0 0 1 I I 0 1 1.5 forward I I I I #
face $-1 $164 $165 $39 $-1 $166 reversed single #
loop $-1 $-1 $167 $65 #
plane-surface $-1 0 0 -15.829064171911934 0 0 1 1 0 0 forward_v I I I I #
coedge $-1 $168 $169 $170 $171 forward $66 $-1 #
face $-1 $172 $173 $40 $-1 $174 forward single #
loop $-1 $-1 $175 $68 #
plane-surface $-1 -39.255118113265688 -30.828577443810833 0 -1 0 0 0 0 1 forward_v I I I I #
coedge $-1 $176 $177 $178 $179 forward $69 $-1 #
face $-1 $180 $181 $41 $-1 $182 forward single #
loop $-1 $-1 $183 $71 #
plane-surface $-1 -32.90797558636298 -34.615678752313386 11.385515491781319 0 -0.78801076186113728 0.61566146476048833 1 0 0 forward_v I I I I #
coedge $-1 $184 $185 $186 $187 reversed $72 $-1 #
face $-1 $-1 $188 $42 $-1 $189 forward single #
loop $-1 $190 $191 $74 #
cone-surface $-1 -35.628179526464137 -31.37575924526876 12.432174405967466 0 0.78801076186113728 -0.61566146476048833 0.5 0 0 1 I I -0.70710678118654746 0.70710678118654746 0.5 forward I I I I #
loop $-1 $-1 $192 $55 #
coedge $-1 $120 $120 $193 $194 reversed $75 $-1 #
face $-1 $-1 $195 $43 $-1 $196 forward single #
loop $-1 $197 $198 $77 #
cone-surface $-1 -30.187771646261815 -31.37575924526876 12.432174405967466 0 0.78801076186113728 -0.61566146476048833 0.5 0 0 1 I I -0.70710678118654746 0.70710678118654746 0.5 forward I I I I #
loop $-1 $-1 $199 $56 #
coedge $-1 $125 $125 $200 $201 reversed $78 $-1 #
face $-1 $202 $203 $44 $-1 $204 reversed single #
loop $-1 $-1 $205 $80 #
plane-surface $-1 -21.260632459641464 -18.418617494733027 45.18974992183729 0 0.64278761758704617 0.76604443648966558 1 0 0 forward_v I I I I #
coedge $-1 $206 $207 $208 $209 reversed $81 $-1 #
face $-1 $-1 $210 $45 $-1 $211 forward single #
loop $-1 $212 $213 $83 #
cone-surface $-1 -27.039133279164616 21.709863878632326 3.630085365602838 0 -0.64278761758704617 -0.76604443648966558 0.75 0 0 1 I I -0.70710678118654757 0.70710678118654757 0.75 forward I I I I #
loop $-1 $-1 $214 $58 #
coedge $-1 $134 $134 $215 $216 reversed $84 $-1 #
face $-1 $-1 $217 $46 $-1 $218 forward single #
loop $-1 $219 $220 $86 #
cone-surface $-1 -21.260632459641464 21.709863878632326 3.630085365602838 0 -0.64278761758704617 -0.76604443648966558 0.75 0 0 1 I I -0.70710678118654757 0.70710678118654757 0.75 forward I I I I #
loop $-1 $-1 $221 $59 #
coedge $-1 $139 $139 $222 $223 reversed $87 $-1 #
face $-1 $-1 $224 $47 $-1 $225 forward single #
loop $-1 $226 $227 $89 #
cone-surface $-1 -15.482131640118311 21.709863878632326 3.630085365602838 0 -0.64278761758704617 -0.76604443648966558 0.75 0 0 1 I I -0.70710678118654757 0.70710678118654757 0.75 forward I I I I #
loop $-1 $-1 $228 $60 #
coedge $-1 $144 $144 $229 $230 reversed $90 $-1 #
face $-1 $231 $232 $48 $-1 $233 reversed single #
loop $-1 $-1 $234 $92 #
plane-surface $-1 23.47999767459995 -18.418617494733027 45.18974992183729 0 0.64278761758704617 0.76604443648966558 1 0 0 forward_v I I I I #
coedge $-1 $235 $236 $237 $238 reversed $93 $-1 #
face $-1 $-1 $239 $49 $-1 $240 forward single #
loop $-1 $241 $242 $95 #
cone-surface $-1 17.701496855076805 21.709863878632326 3.630085365602838 0 -0.64278761758704617 -0.76604443648966558 0.75 0 0 1 I I -0.70710678118654757 0.70710678118654757 0.75 forward I I I I #
loop $-1 $-1 $243 $62 #
coedge $-1 $153 $153 $244 $245 reversed $96 $-1 #
face $-1 $-1 $246 $50 $-1 $247 forward single #
loop $-1 $248 $249 $98 #
cone-surface $-1 23.47999767459995 21.709863878632326 3.630085365602838 0 -0.64278761758704617 -0.76604443648966558 0.75 0 0 1 I I -0.70710678118654757 0.70710678118654757 0.75 forward I I I I #
loop $-1 $-1 $250 $63 #
coedge $-1 $158 $158 $251 $252 reversed $99 $-1 #
face $-1 $-1 $253 $51 $-1 $254 forward single #
loop $-1 $255 $256 $101 #
cone-surface $-1 29.258498494123096 21.709863878632326 3.630085365602838 0 -0.64278761758704617 -0.76604443648966558 0.75 0 0 1 I I -0.70710678118654757 0.70710678118654757 0.75 forward I I I I #
loop $-1 $-1 $257 $64 #
coedge $-1 $163 $163 $258 $259 reversed $102 $-1 #
face $-1 $260 $261 $39 $-1 $262 reversed single #
loop $-1 $-1 $263 $104 #
plane-surface $-1 0 -34.6156787523134 0 0 1 0 0 0 1 forward_v I I I I #
coedge $-1 $264 $265 $266 $267 forward $105 $-1 #
coedge $-1 $268 $107 $269 $270 forward $66 $-1 #
coedge $-1 $107 $268 $271 $272 forward $66 $-1 #
coedge $-1 $273 $274 $107 $171 reversed $275 $-1 #
edge $-1 $276 -34.6156787523134 $277 34.6156787523134 $170 $278 forward 7 unknown #
face $-1 $279 $280 $40 $-1 $281 reversed single #
loop $-1 $-1 $282 $108 #
plane-surface $-1 0 0 15.829064171911934 0 0 1 1 0 0 forward_v I I I I #
coedge $-1 $283 $284 $285 $286 reversed $109 $-1 #
coedge $-1 $287 $111 $288 $289 reversed $69 $-1 #
coedge $-1 $111 $287 $290 $291 reversed $69 $-1 #
coedge $-1 $284 $283 $111 $179 reversed $109 $-1 #
edge $-1 $292 -15.829064171911934 $293 15.829064171911934 $178 $294 forward 7 unknown #
face $-1 $295 $296 $41 $-1 $297 forward single #
loop $-1 $-1 $186 $112 #
plane-surface $-1 0 0 15.829064171911934 0 0 1 1 0 0 forward_v I I I I #
coedge $-1 $298 $299 $300 $301 reversed $113 $-1 #
coedge $-1 $185 $115 $302 $303 reversed $72 $-1 #
coedge $-1 $115 $184 $298 $304 reversed $72 $-1 #
coedge $-1 $300 $305 $115 $187 forward $181 $-1 #
edge $-1 $306 22.270901168921739 $307 25.74258178744843 $186 $308 forward 7 unknown #
loop $-1 $-1 $193 $116 #
plane-surface $-1 -32.90797558636298 -34.615678752313386 11.385515491781319 0 -0.78801076186113728 0.61566146476048833 1 0 0 forward_v I I I I #
loop $-1 $-1 $309 $74 #
coedge $-1 $191 $191 $192 $310 reversed $117 $-1 #
coedge $-1 $192 $192 $191 $310 forward $119 $-1 #
coedge $-1 $193 $193 $120 $194 forward $188 $-1 #
edge $-1 $311 1.0494425150114762e-015 $311 6.2831853071796013 $193 $312 forward 7 unknown #
loop $-1 $-1 $200 $121 #
plane-surface $-1 -32.90797558636298 -34.615678752313386 11.385515491781319 0 -0.78801076186113728 0.61566146476048833 1 0 0 forward_v I I I I #
loop $-1 $-1 $313 $77 #
coedge $-1 $198 $198 $199 $314 reversed $122 $-1 #
coedge $-1 $199 $199 $198 $314 forward $124 $-1 #
coedge $-1 $200 $200 $125 $201 forward $195 $-1 #
edge $-1 $315 1.0494425150114762e-015 $315 6.2831853071796013 $200 $316 forward 7 unknown #
face $-1 $317 $318 $44 $-1 $319 reversed single #
loop $-1 $-1 $320 $126 #
plane-surface $-1 -11.629797760436212 46.15086701834764 122.14066345052359 -1 0 0 0 0.64278761758704617 0.76604443648966558 forward_v I I I I #
coedge $-1 $321 $322 $323 $324 reversed $127 $-1 #
coedge $-1 $207 $129 $325 $326 reversed $81 $-1 #
coedge $-1 $129 $206 $321 $327 reversed $81 $-1 #
coedge $-1 $323 $328 $129 $209 forward $329 $-1 #
edge $-1 $330 -11.54024524313958 $331 6.5033490132825236 $208 $332 forward 7 unknown #
loop $-1 $-1 $215 $130 #
plane-surface $-1 -21.260632459641464 -18.418617494733027 45.18974992183729 0 0.64278761758704617 0.76604443648966558 1 0 0 forward_v I I I I #
loop $-1 $-1 $333 $83 #
coedge $-1 $213 $213 $214 $334 reversed $131 $-1 #
coedge $-1 $214 $214 $213 $334 forward $133 $-1 #
coedge $-1 $215 $215 $134 $216 forward $210 $-1 #
edge $-1 $335 -4.6928266284118009e-016 $335 6.2831853071795996 $215 $336 forward 7 unknown #
loop $-1 $-1 $222 $135 #
plane-surface $-1 -21.260632459641464 -18.418617494733027 45.18974992183729 0 0.64278761758704617 0.76604443648966558 1 0 0 forward_v I I I I #
loop $-1 $-1 $337 $86 #
coedge $-1 $220 $220 $221 $338 reversed $136 $-1 #
coedge $-1 $221 $221 $220 $338 forward $138 $-1 #
coedge $-1 $222 $222 $139 $223 forward $217 $-1 #
edge $-1 $339 -4.6928266284118009e-016 $339 6.2831853071795996 $222 $340 forward 7 unknown #
loop $-1 $-1 $229 $140 #
plane-surface $-1 -21.260632459641464 -18.418617494733027 45.18974992183729 0 0.64278761758704617 0.76604443648966558 1 0 0 forward_v I I I I #
loop $-1 $-1 $341 $89 #
coedge $-1 $227 $227 $228 $342 reversed $141 $-1 #
coedge $-1 $228 $228 $227 $342 forward $143 $-1 #
coedge $-1 $229 $229 $144 $230 forward $224 $-1 #
edge $-1 $343 -4.6928266284118009e-016 $343 6.2831853071795996 $229 $344 forward 7 unknown #
face $-1 $345 $346 $48 $-1 $347 forward single #
loop $-1 $-1 $348 $145 #
plane-surface $-1 33.110832373805202 46.15086701834764 122.14066345052359 -1 0 0 0 0.64278761758704617 0.76604443648966558 forward_v I I I I #
coedge $-1 $349 $350 $351 $352 reversed $146 $-1 #
coedge $-1 $236 $148 $353 $354 reversed $93 $-1 #
coedge $-1 $148 $235 $349 $355 reversed $93 $-1 #
coedge $-1 $351 $356 $148 $238 forward $346 $-1 #
edge $-1 $357 -11.54024524313958 $358 6.5033490132825236 $237 $359 forward 7 unknown #
loop $-1 $-1 $244 $149 #
plane-surface $-1 23.47999767459995 -18.418617494733027 45.18974992183729 0 0.64278761758704617 0.76604443648966558 1 0 0 forward_v I I I I #
loop $-1 $-1 $360 $95 #
coedge $-1 $242 $242 $243 $361 reversed $150 $-1 #
coedge $-1 $243 $243 $242 $361 forward $152 $-1 #
coedge $-1 $244 $244 $153 $245 forward $239 $-1 #
edge $-1 $362 -4.6928266284118009e-016 $362 6.2831853071795996 $244 $363 forward 7 unknown #
loop $-1 $-1 $251 $154 #
plane-surface $-1 23.47999767459995 -18.418617494733027 45.18974992183729 0 0.64278761758704617 0.76604443648966558 1 0 0 forward_v I I I I #
loop $-1 $-1 $364 $98 #
coedge $-1 $249 $249 $250 $365 reversed $155 $-1 #
coedge $-1 $250 $250 $249 $365 forward $157 $-1 #
coedge $-1 $251 $251 $158 $252 forward $246 $-1 #
edge $-1 $366 -4.6928266284118009e-016 $366 6.2831853071795996 $251 $367 forward 7 unknown #
loop $-1 $-1 $258 $159 #
plane-surface $-1 23.47999767459995 -18.418617494733027 45.18974992183729 0 0.64278761758704617 0.76604443648966558 1 0 0 forward_v I I I I #
loop $-1 $-1 $368 $101 #
coedge $-1 $256 $256 $257 $369 reversed $160 $-1 #
coedge $-1 $257 $257 $256 $369 forward $162 $-1 #
coedge $-1 $258 $258 $163 $259 forward $253 $-1 #
edge $-1 $370 -4.6928266284118009e-016 $370 6.2831853071795996 $258 $371 forward 7 unknown #
face $-1 $372 $373 $39 $-1 $374 reversed single #
loop $-1 $-1 $375 $164 #
plane-surface $-1 -50.22614215521714 0 0 1 0 0 0 0 -1 forward_v I I I I #
coedge $-1 $376 $271 $377 $378 forward $165 $-1 #
coedge $-1 $379 $167 $376 $380 forward $105 $-1 #
coedge $-1 $167 $379 $381 $382 forward $105 $-1 #
coedge $-1 $274 $273 $167 $267 reversed $275 $-1 #
edge $-1 $383 -34.6156787523134 $384 34.6156787523134 $266 $385 forward 7 unknown #
coedge $-1 $169 $168 $386 $387 forward $66 $-1 #
coedge $-1 $388 $389 $168 $270 reversed $373 $-1 #
edge $-1 $277 -50.22614215521714 $390 50.22614215521714 $269 $391 forward 7 unknown #
coedge $-1 $263 $392 $169 $272 reversed $165 $-1 #
edge $-1 $393 -50.22614215521714 $276 50.22614215521714 $271 $394 forward 7 unknown #
coedge $-1 $266 $170 $392 $395 forward $275 $-1 #
coedge $-1 $170 $266 $388 $396 reversed $275 $-1 #
loop $-1 $-1 $273 $372 #
vertex $-1 $171 $397 #
vertex $-1 $171 $398 #
straight-curve $-1 50.22614215521714 0 15.829064171911934 0 1 0 I I #
face $-1 $399 $400 $40 $-1 $401 reversed single #
loop $-1 $-1 $402 $172 #
plane-surface $-1 -50.22614215521714 0 0 1 0 0 0 0 -1 forward_v I I I I #
coedge $-1 $290 $403 $284 $404 forward $173 $-1 #
coedge $-1 $178 $175 $405 $406 reversed $109 $-1 #
coedge $-1 $175 $178 $282 $404 reversed $109 $-1 #
coedge $-1 $407 $408 $175 $286 forward $409 $-1 #
edge $-1 $410 -15.829064171911934 $411 15.829064171911934 $285 $412 forward 7 unknown #
coedge $-1 $177 $176 $402 $413 reversed $69 $-1 #
coedge $-1 $405 $414 $176 $289 forward $400 $-1 #
edge $-1 $415 -27.855827088096433 $293 -16.884803046144981 $288 $416 forward 7 unknown #
coedge $-1 $417 $282 $177 $291 forward $173 $-1 #
edge $-1 $292 16.884803046144981 $418 27.855827088096433 $290 $419 forward 7 unknown #
vertex $-1 $291 $420 #
vertex $-1 $289 $421 #
straight-curve $-1 -39.255118113265688 -27.041476135308265 0 0 0 -1 I I #
face $-1 $-1 $422 $41 $-1 $423 reversed single #
loop $-1 $-1 $424 $180 #
plane-surface $-1 -39.255118113265688 -30.828577443810833 0 -1 0 0 0 0 1 forward_v I I I I #
coedge $-1 $425 $183 $185 $304 forward $113 $-1 #
coedge $-1 $183 $425 $424 $426 reversed $113 $-1 #
coedge $-1 $427 $186 $183 $301 forward $181 $-1 #
edge $-1 $307 10.106845266278778 $428 22.801130320084198 $300 $429 forward 7 unknown #
coedge $-1 $430 $431 $184 $303 forward $422 $-1 #
edge $-1 $432 -25.229542502658855 $306 -20.785993822528223 $302 $433 forward 7 unknown #
edge $-1 $307 -5.6389441555795088 $432 2.274695869299009e-014 $185 $434 forward 7 unknown #
coedge $-1 $186 $427 $430 $435 forward $181 $-1 #
vertex $-1 $187 $436 #
vertex $-1 $187 $437 #
straight-curve $-1 -26.560833059460268 -56.886579921235139 15.829064171911934 0 1 0 I I #
coedge $-1 $309 $309 $-1 $438 reversed $190 $-1 #
edge $-1 $439 0 $439 6.2831853071796004 $191 $440 forward 7 unknown #
vertex $-1 $194 $441 #
ellipse-curve $-1 -35.628179526464137 -32.879838443050055 13.607289831846623 0 -0.78801076186113728 0.61566146476048833 1 0 0 1 I I #
coedge $-1 $313 $313 $-1 $442 reversed $197 $-1 #
edge $-1 $443 0 $443 6.2831853071796004 $198 $444 forward 7 unknown #
vertex $-1 $201 $445 #
ellipse-curve $-1 -30.187771646261815 -32.879838443050055 13.607289831846623 0 -0.78801076186113728 0.61566146476048833 1 0 0 1 I I #
face $-1 $-1 $329 $44 $-1 $446 forward single #
loop $-1 $-1 $447 $202 #
plane-surface $-1 0 34.6156787523134 0 0 -1 0 0 0 -1 forward_v I I I I #
coedge $-1 $448 $449 $450 $451 reversed $203 $-1 #
coedge $-1 $452 $205 $207 $327 forward $127 $-1 #
coedge $-1 $205 $452 $448 $453 forward $127 $-1 #
coedge $-1 $450 $208 $205 $324 forward $329 $-1 #
edge $-1 $331 -20.261150929025984 $454 -0.99948153061547984 $323 $455 forward 7 unknown #
coedge $-1 $456 $457 $206 $326 forward $318 $-1 #
edge $-1 $458 -60.381641156140645 $330 -45.241267553349857 $325 $459 forward 7 unknown #
edge $-1 $331 45.677117832702081 $458 69.231357504626814 $207 $460 forward 7 unknown #
coedge $-1 $208 $450 $456 $461 forward $329 $-1 #
loop $-1 $-1 $450 $317 #
vertex $-1 $326 $462 #
vertex $-1 $209 $463 #
straight-curve $-1 -30.891467158846716 23.07543350917382 15.829064171911938 0 -1 0 I I #
coedge $-1 $333 $333 $-1 $464 reversed $212 $-1 #
edge $-1 $465 0 $465 6.2831853071796004 $213 $466 forward 7 unknown #
vertex $-1 $216 $467 #
ellipse-curve $-1 -27.039133279164616 25.593881624102352 8.2588773705165419 0 0.64278761758704617 0.76604443648966558 1.5 0 0 1 I I #
coedge $-1 $337 $337 $-1 $468 reversed $219 $-1 #
edge $-1 $469 0 $469 6.2831853071796004 $220 $470 forward 7 unknown #
vertex $-1 $223 $471 #
ellipse-curve $-1 -21.260632459641464 25.593881624102352 8.2588773705165419 0 0.64278761758704617 0.76604443648966558 1.5 0 0 1 I I #
coedge $-1 $341 $341 $-1 $472 reversed $226 $-1 #
edge $-1 $473 0 $473 6.2831853071796004 $227 $474 forward 7 unknown #
vertex $-1 $230 $475 #
ellipse-curve $-1 -15.482131640118311 25.593881624102352 8.2588773705165419 0 0.64278761758704617 0.76604443648966558 1.5 0 0 1 I I #
face $-1 $-1 $476 $48 $-1 $477 reversed single #
loop $-1 $-1 $237 $231 #
plane-surface $-1 0 0 15.829064171911934 0 0 1 1 0 0 forward_v I I I I #
coedge $-1 $478 $479 $480 $481 reversed $232 $-1 #
coedge $-1 $482 $234 $236 $355 forward $146 $-1 #
coedge $-1 $234 $482 $478 $483 forward $146 $-1 #
coedge $-1 $480 $237 $234 $352 forward $346 $-1 #
edge $-1 $358 2.109164138094723 $484 21.370833536505227 $351 $485 forward 7 unknown #
coedge $-1 $486 $487 $235 $354 forward $476 $-1 #
edge $-1 $488 -60.381641156140645 $357 -45.241267553349857 $353 $489 forward 7 unknown #
edge $-1 $358 45.677117832702081 $488 69.231357504626814 $236 $490 forward 7 unknown #
coedge $-1 $237 $480 $486 $491 forward $346 $-1 #
vertex $-1 $354 $492 #
vertex $-1 $238 $493 #
straight-curve $-1 13.849162975394698 23.07543350917382 15.829064171911938 0 -1 0 I I #
coedge $-1 $360 $360 $-1 $494 reversed $241 $-1 #
edge $-1 $495 0 $495 6.2831853071796004 $242 $496 forward 7 unknown #
vertex $-1 $245 $497 #
ellipse-curve $-1 17.701496855076805 25.593881624102352 8.2588773705165419 0 0.64278761758704617 0.76604443648966558 1.5 0 0 1 I I #
coedge $-1 $364 $364 $-1 $498 reversed $248 $-1 #
edge $-1 $499 0 $499 6.2831853071796004 $249 $500 forward 7 unknown #
vertex $-1 $252 $501 #
ellipse-curve $-1 23.47999767459995 25.593881624102352 8.2588773705165419 0 0.64278761758704617 0.76604443648966558 1.5 0 0 1 I I #
coedge $-1 $368 $368 $-1 $502 reversed $255 $-1 #
edge $-1 $503 0 $503 6.2831853071796004 $256 $504 forward 7 unknown #
vertex $-1 $259 $505 #
ellipse-curve $-1 29.258498494123096 25.593881624102352 8.2588773705165419 0 0.64278761758704617 0.76604443648966558 1.5 0 0 1 I I #
face $-1 $-1 $275 $39 $-1 $506 reversed single #
loop $-1 $-1 $388 $260 #
plane-surface $-1 0 34.6156787523134 0 0 -1 0 0 0 -1 forward_v I I I I #
coedge $-1 $507 $386 $389 $508 forward $261 $-1 #
coedge $-1 $392 $263 $264 $380 reversed $165 $-1 #
coedge $-1 $386 $507 $263 $378 reversed $261 $-1 #
edge $-1 $393 -15.829064171911934 $509 15.829064171911934 $377 $510 forward 7 unknown #
coedge $-1 $265 $264 $507 $511 forward $105 $-1 #
edge $-1 $384 -50.22614215521714 $509 50.22614215521714 $376 $512 forward 7 unknown #
coedge $-1 $389 $388 $265 $382 reversed $373 $-1 #
edge $-1 $513 -50.22614215521714 $383 50.22614215521714 $381 $514 forward 7 unknown #
vertex $-1 $267 $515 #
vertex $-1 $395 $516 #
straight-curve $-1 50.22614215521714 0 -15.829064171911934 0 -1 0 I I #
coedge $-1 $375 $377 $268 $387 reversed $261 $-1 #
edge $-1 $390 -34.6156787523134 $393 34.6156787523134 $386 $517 forward 7 unknown #
coedge $-1 $381 $269 $274 $396 forward $373 $-1 #
coedge $-1 $269 $381 $375 $508 reversed $373 $-1 #
vertex $-1 $270 $518 #
straight-curve $-1 0 34.6156787523134 15.829064171911934 -1 0 0 I I #
coedge $-1 $271 $376 $273 $395 reversed $165 $-1 #
vertex $-1 $387 $519 #
straight-curve $-1 0 -34.6156787523134 15.829064171911934 1 0 0 I I #
edge $-1 $276 -15.829064171911934 $384 15.829064171911934 $273 $520 forward 7 unknown #
edge $-1 $277 -15.829064171911934 $383 15.829064171911934 $274 $521 forward 7 unknown #
point $-1 50.22614215521714 -34.6156787523134 15.829064171911934 #
point $-1 50.22614215521714 34.6156787523134 15.829064171911934 #
face $-1 $-1 $409 $40 $-1 $522 reversed single #
loop $-1 $-1 $405 $279 #
plane-surface $-1 0 0 -15.829064171911934 0 0 1 1 0 0 forward_v I I I I #
coedge $-1 $523 $524 $287 $413 forward $280 $-1 #
coedge $-1 $282 $417 $407 $525 forward $173 $-1 #
edge $-1 $411 -19.201390030407985 $292 -11.627187413402849 $282 $526 forward 7 unknown #
coedge $-1 $527 $288 $283 $406 forward $400 $-1 #
edge $-1 $293 11.627187413402849 $410 19.201390030407985 $405 $528 forward 7 unknown #
coedge $-1 $529 $285 $403 $525 reversed $409 $-1 #
coedge $-1 $285 $529 $527 $530 reversed $409 $-1 #
loop $-1 $-1 $285 $399 #
vertex $-1 $530 $531 #
vertex $-1 $286 $532 #
straight-curve $-1 -39.255118113265688 -34.6156787523134 0 0 0 1 I I #
edge $-1 $418 -15.829064171911934 $415 15.829064171911934 $402 $533 forward 7 unknown #
coedge $-1 $288 $527 $523 $534 forward $400 $-1 #
vertex $-1 $289 $535 #
straight-curve $-1 -22.370315067120707 -27.041476135308265 -15.829064171911934 1 0 0 I I #
coedge $-1 $403 $290 $524 $536 forward $173 $-1 #
vertex $-1 $536 $537 #
straight-curve $-1 -22.370315067120707 -27.041476135308265 15.829064171911934 -1 0 0 I I #
point $-1 -39.255118113265688 -27.041476135308265 15.829064171911934 #
point $-1 -39.255118113265688 -27.041476135308265 -15.829064171911934 #
loop $-1 $-1 $302 $295 #
plane-surface $-1 0 -34.6156787523134 0 0 1 0 0 0 1 forward_v I I I I #
coedge $-1 $538 $539 $299 $426 forward $296 $-1 #
coedge $-1 $299 $298 $431 $540 reversed $113 $-1 #
edge $-1 $428 -8.9591123546151721 $541 -3.3201681990356446 $424 $542 forward 7 unknown #
coedge $-1 $305 $300 $539 $543 forward $181 $-1 #
vertex $-1 $543 $544 #
straight-curve $-1 -16.45398779318149 -31.143998133786717 15.829064171911934 -1 0 0 I I #
coedge $-1 $545 $302 $305 $435 reversed $422 $-1 #
coedge $-1 $302 $545 $425 $540 forward $422 $-1 #
vertex $-1 $303 $546 #
straight-curve $-1 -26.560833059460268 -34.6156787523134 36.615057994440157 0 0 1 I I #
straight-curve $-1 -26.560833059460268 -34.615678752313386 11.385515491781319 0 -0.61566146476048833 -0.78801076186113728 I I #
edge $-1 $547 -39.255118113265688 $306 -26.560833059460268 $430 $548 forward 7 unknown #
point $-1 -26.560833059460268 -34.6156787523134 15.829064171911934 #
point $-1 -26.560833059460268 -31.14399813378671 15.829064171911934 #
edge $-1 $549 1 $549 0 $309 $-1 forward 7 unknown #
vertex $-1 $310 $550 #
ellipse-curve $-1 -35.628179526464137 -31.769764626199329 12.74000513834771 0 -0.78801076186113728 0.61566146476048833 1 0 0 1 I I #
point $-1 -34.628179526464137 -32.879838443050069 13.607289831846636 #
edge $-1 $551 1 $551 0 $313 $-1 forward 7 unknown #
vertex $-1 $314 $552 #
ellipse-curve $-1 -30.187771646261815 -31.769764626199329 12.74000513834771 0 -0.78801076186113728 0.61566146476048833 1 0 0 1 I I #
point $-1 -29.187771646261815 -32.879838443050069 13.607289831846636 #
plane-surface $-1 0 0 15.829064171911934 0 0 1 1 0 0 forward_v I I I I #
coedge $-1 $457 $456 $449 $553 forward $318 $-1 #
coedge $-1 $449 $320 $322 $453 reversed $203 $-1 #
coedge $-1 $320 $448 $447 $553 reversed $203 $-1 #
coedge $-1 $328 $323 $320 $451 forward $329 $-1 #
edge $-1 $454 -6.5033490132825236 $554 11.54024524313958 $450 $555 forward 7 unknown #
coedge $-1 $322 $321 $457 $556 reversed $127 $-1 #
edge $-1 $557 -69.231357504626814 $454 -45.677117832702081 $448 $558 forward 7 unknown #
vertex $-1 $324 $559 #
straight-curve $-1 -10.630316229820732 16.5720844958913 15.829064171911934 1 0 0 I I #
coedge $-1 $447 $325 $328 $461 reversed $318 $-1 #
coedge $-1 $325 $447 $452 $556 forward $318 $-1 #
vertex $-1 $326 $560 #
straight-curve $-1 -30.891467158846716 34.6156787523134 61.070331725261795 0 0 1 I I #
straight-curve $-1 -30.891467158846716 -18.418617494733027 45.18974992183729 0 0.76604443648966558 -0.64278761758704617 I I #
edge $-1 $554 11.629797760436212 $330 30.891467158846716 $456 $561 forward 7 unknown #
point $-1 -30.891467158846716 34.6156787523134 15.829064171911934 #
point $-1 -30.891467158846716 16.572084495891296 15.829064171911934 #
edge $-1 $562 1 $562 0 $333 $-1 forward 7 unknown #
vertex $-1 $334 $563 #
ellipse-curve $-1 -27.039133279164616 22.191954591822611 4.2046186929700875 0 0.64278761758704617 0.76604443648966558 1.5 0 0 1 I I #
point $-1 -25.539133279164616 25.593881624102355 8.2588773705165472 #
edge $-1 $564 1 $564 0 $337 $-1 forward 7 unknown #
vertex $-1 $338 $565 #
ellipse-curve $-1 -21.260632459641464 22.191954591822611 4.2046186929700875 0 0.64278761758704617 0.76604443648966558 1.5 0 0 1 I I #
point $-1 -19.760632459641464 25.593881624102355 8.2588773705165472 #
edge $-1 $566 1 $566 0 $341 $-1 forward 7 unknown #
vertex $-1 $342 $567 #
ellipse-curve $-1 -15.482131640118311 22.191954591822611 4.2046186929700875 0 0.64278761758704617 0.76604443648966558 1.5 0 0 1 I I #
point $-1 -13.982131640118311 25.593881624102355 8.2588773705165472 #
loop $-1 $-1 $353 $345 #
plane-surface $-1 0 34.6156787523134 0 0 -1 0 0 0 -1 forward_v I I I I #
coedge $-1 $479 $348 $350 $483 reversed $232 $-1 #
coedge $-1 $348 $478 $568 $569 reversed $232 $-1 #
coedge $-1 $356 $351 $348 $481 forward $346 $-1 #
edge $-1 $484 -6.5033490132825236 $570 11.54024524313958 $480 $571 forward 7 unknown #
coedge $-1 $350 $349 $487 $572 reversed $146 $-1 #
edge $-1 $573 -69.231357504626814 $484 -45.677117832702081 $478 $574 forward 7 unknown #
vertex $-1 $352 $575 #
straight-curve $-1 11.739998837299975 16.5720844958913 15.829064171911934 1 0 0 I I #
coedge $-1 $568 $353 $356 $491 reversed $476 $-1 #
coedge $-1 $353 $568 $482 $572 forward $476 $-1 #
vertex $-1 $354 $576 #
straight-curve $-1 13.849162975394698 34.6156787523134 61.070331725261795 0 0 1 I I #
straight-curve $-1 13.849162975394698 -18.418617494733027 45.18974992183729 0 0.76604443648966558 -0.64278761758704617 I I #
edge $-1 $570 -33.110832373805202 $357 -13.849162975394698 $486 $577 forward 7 unknown #
point $-1 13.849162975394698 34.6156787523134 15.829064171911934 #
point $-1 13.849162975394698 16.572084495891296 15.829064171911934 #
edge $-1 $578 1 $578 0 $360 $-1 forward 7 unknown #
vertex $-1 $361 $579 #
ellipse-curve $-1 17.701496855076805 22.191954591822611 4.2046186929700875 0 0.64278761758704617 0.76604443648966558 1.5 0 0 1 I I #
point $-1 19.201496855076805 25.593881624102355 8.2588773705165472 #
edge $-1 $580 1 $580 0 $364 $-1 forward 7 unknown #
vertex $-1 $365 $581 #
ellipse-curve $-1 23.47999767459995 22.191954591822611 4.2046186929700875 0 0.64278761758704617 0.76604443648966558 1.5 0 0 1 I I #
point $-1 24.97999767459995 25.593881624102355 8.2588773705165472 #
edge $-1 $582 1 $582 0 $368 $-1 forward 7 unknown #
vertex $-1 $369 $583 #
ellipse-curve $-1 29.258498494123096 22.191954591822611 4.2046186929700875 0 0.64278761758704617 0.76604443648966558 1.5 0 0 1 I I #
point $-1 30.758498494123096 25.593881624102355 8.2588773705165472 #
plane-surface $-1 50.22614215521714 0 0 -1 0 0 0 0 1 forward_v I I I I #
coedge $-1 $377 $375 $379 $511 reversed $261 $-1 #
edge $-1 $390 -15.829064171911934 $513 15.829064171911934 $389 $584 forward 7 unknown #
vertex $-1 $511 $585 #
straight-curve $-1 -50.22614215521714 -34.6156787523134 0 0 0 -1 I I #
edge $-1 $509 -34.6156787523134 $513 34.6156787523134 $507 $586 forward 7 unknown #
straight-curve $-1 0 -34.6156787523134 -15.829064171911934 -1 0 0 I I #
vertex $-1 $382 $587 #
straight-curve $-1 0 34.6156787523134 -15.829064171911934 1 0 0 I I #
point $-1 50.22614215521714 34.6156787523134 -15.829064171911934 #
point $-1 50.22614215521714 -34.6156787523134 -15.829064171911934 #
straight-curve $-1 -50.22614215521714 0 15.829064171911934 0 -1 0 I I #
point $-1 -50.22614215521714 34.6156787523134 15.829064171911934 #
point $-1 -50.22614215521714 -34.6156787523134 15.829064171911934 #
straight-curve $-1 50.22614215521714 -34.6156787523134 0 0 0 -1 I I #
straight-curve $-1 50.22614215521714 34.6156787523134 0 0 0 -1 I I #
plane-surface $-1 0 -34.6156787523134 0 0 1 0 0 0 1 forward_v I I I I #
coedge $-1 $588 $402 $414 $534 reversed $280 $-1 #
coedge $-1 $402 $588 $417 $536 reversed $280 $-1 #
edge $-1 $589 -50.22614215521714 $411 -39.255118113265688 $407 $590 forward 7 unknown #
straight-curve $-1 -39.255118113265688 -15.414288721905416 15.829064171911934 0 1 0 I I #
coedge $-1 $414 $405 $408 $530 forward $400 $-1 #
straight-curve $-1 -39.255118113265688 -15.414288721905416 -15.829064171911934 0 -1 0 I I #
coedge $-1 $408 $407 $588 $591 forward $409 $-1 #
edge $-1 $410 39.255118113265688 $592 50.22614215521714 $408 $593 forward 7 unknown #
point $-1 -39.255118113265688 -34.6156787523134 -15.829064171911934 #
point $-1 -39.255118113265688 -34.6156787523134 15.829064171911934 #
straight-curve $-1 -50.22614215521714 -27.041476135308265 0 0 0 -1 I I #
edge $-1 $592 -34.6156787523134 $415 -27.041476135308265 $523 $594 forward 7 unknown #
point $-1 -50.22614215521714 -27.041476135308265 -15.829064171911934 #
edge $-1 $418 27.041476135308265 $589 34.6156787523134 $524 $595 forward 7 unknown #
point $-1 -50.22614215521714 -27.041476135308265 15.829064171911934 #
coedge $-1 $539 $424 $545 $596 reversed $296 $-1 #
coedge $-1 $424 $538 $427 $543 reversed $296 $-1 #
edge $-1 $541 -22.801130320084198 $432 -10.106845266278778 $431 $597 forward 7 unknown #
vertex $-1 $426 $598 #
straight-curve $-1 -39.255118113265688 -36.659778368982877 8.7691872197521032 0 -0.61566146476048833 -0.78801076186113728 I I #
edge $-1 $428 15.7297094118813 $547 19.201390030407985 $427 $599 forward 7 unknown #
point $-1 -39.255118113265688 -31.143998133786717 15.829064171911934 #
coedge $-1 $431 $430 $538 $596 forward $422 $-1 #
point $-1 -26.560833059460268 -34.6156787523134 11.385515491781302 #
vertex $-1 $435 $600 #
straight-curve $-1 0 -34.6156787523134 15.829064171911934 1 0 0 I I #
vertex $-1 $438 $601 #
point $-1 -34.628179526464137 -31.769764626199329 12.74000513834771 #
vertex $-1 $442 $602 #
point $-1 -29.187771646261815 -31.769764626199329 12.74000513834771 #
edge $-1 $554 45.241267553349857 $557 60.381641156140645 $447 $603 forward 7 unknown #
vertex $-1 $461 $604 #
straight-curve $-1 -11.629797760436212 23.07543350917382 15.829064171911938 0 1 0 I I #
edge $-1 $557 0.99948153061547984 $458 20.261150929025984 $457 $605 forward 7 unknown #
vertex $-1 $556 $606 #
straight-curve $-1 -11.629797760436212 -18.418617494733027 45.18974992183729 0 -0.76604443648966558 0.64278761758704617 I I #
point $-1 -11.629797760436212 16.572084495891296 15.829064171911934 #
point $-1 -30.891467158846716 34.6156787523134 0.68869056912114957 #
straight-curve $-1 0 34.6156787523134 15.829064171911934 -1 0 0 I I #
vertex $-1 $464 $607 #
point $-1 -25.539133279164616 22.191954591822611 4.2046186929700875 #
vertex $-1 $468 $608 #
point $-1 -19.760632459641464 22.191954591822611 4.2046186929700875 #
vertex $-1 $472 $609 #
point $-1 -13.982131640118311 22.191954591822611 4.2046186929700875 #
coedge $-1 $487 $486 $479 $569 forward $476 $-1 #
edge $-1 $570 45.241267553349857 $573 60.381641156140645 $568 $610 forward 7 unknown #
vertex $-1 $491 $611 #
straight-curve $-1 33.110832373805202 23.07543350917382 15.829064171911938 0 1 0 I I #
edge $-1 $573 -21.370833536505227 $488 -2.109164138094723 $487 $612 forward 7 unknown #
vertex $-1 $572 $613 #
straight-curve $-1 33.110832373805202 -18.418617494733027 45.18974992183729 0 -0.76604443648966558 0.64278761758704617 I I #
point $-1 33.110832373805202 16.572084495891296 15.829064171911934 #
point $-1 13.849162975394698 34.6156787523134 0.68869056912114957 #
straight-curve $-1 0 34.6156787523134 15.829064171911934 -1 0 0 I I #
vertex $-1 $494 $614 #
point $-1 19.201496855076805 22.191954591822611 4.2046186929700875 #
vertex $-1 $498 $615 #
point $-1 24.97999767459995 22.191954591822611 4.2046186929700875 #
vertex $-1 $502 $616 #
point $-1 30.758498494123096 22.191954591822611 4.2046186929700875 #
straight-curve $-1 -50.22614215521714 34.6156787523134 0 0 0 -1 I I #
point $-1 -50.22614215521714 -34.6156787523134 -15.829064171911934 #
straight-curve $-1 -50.22614215521714 0 -15.829064171911934 0 1 0 I I #
point $-1 -50.22614215521714 34.6156787523134 -15.829064171911934 #
coedge $-1 $524 $523 $529 $591 reversed $280 $-1 #
vertex $-1 $536 $617 #
straight-curve $-1 0 -34.6156787523134 15.829064171911934 1 0 0 I I #
edge $-1 $589 -15.829064171911934 $592 15.829064171911934 $588 $618 forward 7 unknown #
vertex $-1 $534 $619 #
straight-curve $-1 0 -34.6156787523134 -15.829064171911934 -1 0 0 I I #
straight-curve $-1 -50.22614215521714 0 -15.829064171911934 0 1 0 I I #
straight-curve $-1 -50.22614215521714 0 15.829064171911934 0 -1 0 I I #
edge $-1 $547 -15.829064171911934 $541 -11.385515491781302 $545 $620 forward 7 unknown #
straight-curve $-1 -16.45398779318149 -34.6156787523134 11.385515491781305 1 0 0 I I #
point $-1 -39.255118113265688 -34.6156787523134 11.385515491781302 #
straight-curve $-1 -39.255118113265688 -15.414288721905416 15.829064171911934 0 -1 0 I I #
point $-1 -39.255118113265688 -34.6156787523134 15.829064171911934 #
point $-1 -35.628179526464137 -30.981753864338192 12.124343673587221 #
point $-1 -30.187771646261815 -30.981753864338192 12.124343673587221 #
straight-curve $-1 -11.629797760436212 34.6156787523134 61.070331725261795 0 0 -1 I I #
point $-1 -11.629797760436212 34.6156787523134 15.829064171911934 #
straight-curve $-1 -10.630316229820732 34.6156787523134 0.68869056912115312 -1 0 0 I I #
point $-1 -11.629797760436212 34.6156787523134 0.68869056912114957 #
point $-1 -27.039133279164616 21.227773165442041 3.055552038235589 #
point $-1 -21.260632459641464 21.227773165442041 3.055552038235589 #
point $-1 -15.482131640118311 21.227773165442041 3.055552038235589 #
straight-curve $-1 33.110832373805202 34.6156787523134 61.070331725261795 0 0 -1 I I #
point $-1 33.110832373805202 34.6156787523134 15.829064171911934 #
straight-curve $-1 11.739998837299975 34.6156787523134 0.68869056912115312 -1 0 0 I I #
point $-1 33.110832373805202 34.6156787523134 0.68869056912114957 #
point $-1 17.701496855076805 21.227773165442041 3.055552038235589 #
point $-1 23.47999767459995 21.227773165442041 3.055552038235589 #
point $-1 29.258498494123096 21.227773165442041 3.055552038235589 #
point $-1 -50.22614215521714 -34.6156787523134 15.829064171911934 #
straight-curve $-1 -50.22614215521714 -34.6156787523134 0 0 0 -1 I I #
point $-1 -50.22614215521714 -34.6156787523134 -15.829064171911934 #
straight-curve $-1 -39.255118113265688 -34.6156787523134 0 0 0 -1 I I #
End-of-ACIS-data 