500 0 4 0           
7 Unknown 11 ACIS 5.0 NT 24 Fri Mar 26 20:11:17 1999 
-1 9.9999999999999995e-007 1e-010 
body $-1 $4 $-1 $5 #
body $-1 $6 $-1 $7 #
body $-1 $8 $-1 $9 #
body $-1 $10 $-1 $11 #
lump $-1 $-1 $12 $0 #
transform $-1 1 0 0 0 1 0 0 0 1 50.82064271980957 30.274319212426978 7.2935729024573446 1 rotate no_reflect no_shear #
lump $-1 $-1 $13 $1 #
transform $-1 1 0 0 0 1 0 0 0 1 50.82064271980957 30.274319212426978 7.2935729024573446 1 rotate no_reflect no_shear #
lump $-1 $-1 $14 $2 #
transform $-1 1 0 0 0 1 0 0 0 1 50.82064271980957 30.274319212426978 7.2935729024573446 1 rotate no_reflect no_shear #
lump $-1 $-1 $15 $3 #
transform $-1 1 0 0 0 1 0 0 0 1 50.82064271980957 30.274319212426978 7.2935729024573446 1 rotate no_reflect no_shear #
shell $-1 $-1 $-1 $16 $-1 $4 #
shell $-1 $-1 $-1 $17 $-1 $6 #
shell $-1 $-1 $-1 $18 $-1 $8 #
shell $-1 $-1 $-1 $19 $-1 $10 #
face $-1 $20 $21 $12 $-1 $22 forward single #
face $-1 $23 $24 $13 $-1 $25 forward single #
face $-1 $26 $27 $14 $-1 $28 reversed single #
face $-1 $29 $30 $15 $-1 $31 forward single #
face $-1 $32 $33 $12 $-1 $34 reversed single #
loop $-1 $-1 $35 $16 #
plane-surface $-1 0 0 7.2935729024573446 0 0 1 1 0 0 forward_v I I I I #
face $-1 $36 $37 $13 $-1 $38 reversed single #
loop $-1 $-1 $39 $17 #
plane-surface $-1 0 -27.139654342524906 6.2990203081123184 0 0 1 1 0 0 forward_v I I I I #
face $-1 $40 $41 $14 $-1 $42 reversed single #
loop $-1 $-1 $43 $18 #
plane-surface $-1 30.815556788865393 14.490797166108514 144.50118929029378 0 1 0 0.6018150307709319 0 0.79863550430605224 forward_v I I I I #
face $-1 $44 $45 $15 $-1 $46 forward single #
loop $-1 $47 $48 $19 #
cone-surface $-1 46.424184826687146 22.382558189267744 3.4136382563343419 -0.6018150307709319 0 -0.79863550430605224 1.1979532564590785 0 -0.90272254615639791 1 I I 0 1 1.5 forward I I I I #
face $-1 $49 $50 $12 $-1 $51 reversed single #
loop $-1 $-1 $52 $20 #
plane-surface $-1 0 0 -7.2935729024573446 0 0 1 1 0 0 forward_v I I I I #
coedge $-1 $53 $54 $55 $56 forward $21 $-1 #
face $-1 $57 $58 $13 $-1 $59 reversed single #
loop $-1 $-1 $60 $23 #
plane-surface $-1 0 -27.139654342524906 3.0627992189425033 0 0 1 1 0 0 forward_v I I I I #
coedge $-1 $61 $62 $63 $64 reversed $24 $-1 #
face $-1 $65 $66 $14 $-1 $67 forward single #
loop $-1 $-1 $68 $26 #
plane-surface $-1 -30.35369653557607 22.382558189267751 63.326850034908148 0.6018150307709319 0 0.79863550430605224 0.79863550430605224 0 -0.6018150307709319 forward_v I I I I #
coedge $-1 $69 $70 $71 $72 reversed $27 $-1 #
face $-1 $-1 $73 $15 $-1 $74 forward single #
loop $-1 $75 $76 $29 #
cone-surface $-1 44.984200897619004 22.382558189267744 1.5027150779771121 -0.6018150307709319 0 -0.79863550430605224 0.59897662822953923 0 -0.45136127307819895 1 I I -0.70710678118654757 0.70710678118654757 0.75 forward I I I I #
loop $-1 $-1 $77 $19 #
coedge $-1 $48 $48 $78 $79 reversed $30 $-1 #
face $-1 $80 $81 $12 $-1 $82 reversed single #
loop $-1 $-1 $83 $32 #
plane-surface $-1 0 -30.274319212426978 0 0 1 0 0 0 1 forward_v I I I I #
coedge $-1 $84 $85 $86 $87 forward $33 $-1 #
coedge $-1 $88 $35 $89 $90 forward $21 $-1 #
coedge $-1 $35 $88 $91 $92 forward $21 $-1 #
coedge $-1 $93 $94 $35 $56 reversed $95 $-1 #
edge $-1 $96 -30.274319212426978 $97 30.274319212426978 $55 $98 forward 7 unknown #
face $-1 $99 $100 $13 $-1 $101 reversed single #
loop $-1 $-1 $102 $36 #
plane-surface $-1 0 -24.004989472622835 4.6809097635274108 0 -1 0 0 0 -1 forward_v I I I I #
coedge $-1 $103 $104 $105 $106 reversed $37 $-1 #
coedge $-1 $107 $39 $108 $109 forward $24 $-1 #
coedge $-1 $39 $107 $110 $111 reversed $24 $-1 #
coedge $-1 $112 $113 $39 $64 forward $114 $-1 #
edge $-1 $115 10.435162301360382 $116 16.704492041164524 $63 $117 forward 7 unknown #
face $-1 $118 $119 $14 $-1 $120 reversed single #
loop $-1 $-1 $121 $40 #
plane-surface $-1 0 0 7.2935729024573446 0 0 1 1 0 0 forward_v I I I I #
coedge $-1 $122 $123 $124 $125 reversed $41 $-1 #
coedge $-1 $70 $43 $126 $127 reversed $27 $-1 #
coedge $-1 $43 $69 $122 $128 reversed $27 $-1 #
coedge $-1 $124 $129 $43 $72 forward $119 $-1 #
edge $-1 $130 64.957021742689548 $131 70.092997934680199 $71 $132 forward 7 unknown #
loop $-1 $-1 $78 $44 #
plane-surface $-1 -30.35369653557607 22.382558189267751 63.326850034908148 0.6018150307709319 0 0.79863550430605224 0.79863550430605224 0 -0.6018150307709319 forward_v I I I I #
loop $-1 $-1 $133 $29 #
coedge $-1 $76 $76 $77 $134 reversed $45 $-1 #
coedge $-1 $77 $77 $76 $134 forward $47 $-1 #
coedge $-1 $78 $78 $48 $79 forward $73 $-1 #
edge $-1 $135 0 $135 6.2831853071796004 $78 $136 forward 7 unknown #
face $-1 $137 $138 $12 $-1 $139 reversed single #
loop $-1 $-1 $140 $49 #
plane-surface $-1 -50.82064271980957 0 0 1 0 0 0 0 -1 forward_v I I I I #
coedge $-1 $141 $91 $142 $143 forward $50 $-1 #
coedge $-1 $144 $52 $141 $145 forward $33 $-1 #
coedge $-1 $52 $144 $146 $147 forward $33 $-1 #
coedge $-1 $94 $93 $52 $87 reversed $95 $-1 #
edge $-1 $148 -30.274319212426978 $149 30.274319212426978 $86 $150 forward 7 unknown #
coedge $-1 $54 $53 $151 $152 forward $21 $-1 #
coedge $-1 $153 $154 $53 $90 reversed $138 $-1 #
edge $-1 $97 -50.82064271980957 $155 50.82064271980957 $89 $156 forward 7 unknown #
coedge $-1 $83 $157 $54 $92 reversed $50 $-1 #
edge $-1 $158 -50.82064271980957 $96 50.82064271980957 $91 $159 forward 7 unknown #
coedge $-1 $86 $55 $157 $160 forward $95 $-1 #
coedge $-1 $55 $86 $153 $161 reversed $95 $-1 #
loop $-1 $-1 $93 $137 #
vertex $-1 $56 $162 #
vertex $-1 $56 $163 #
straight-curve $-1 50.82064271980957 0 7.2935729024573446 0 1 0 I I #
face $-1 $164 $165 $13 $-1 $166 reversed single #
loop $-1 $-1 $167 $57 #
plane-surface $-1 -50.82064271980957 0 0 1 0 0 0 0 -1 forward_v I I I I #
coedge $-1 $168 $108 $113 $169 reversed $58 $-1 #
coedge $-1 $170 $60 $171 $172 reversed $37 $-1 #
coedge $-1 $60 $170 $168 $173 forward $37 $-1 #
coedge $-1 $113 $112 $60 $106 forward $114 $-1 #
edge $-1 $174 -16.704492041164524 $175 -10.435162301360382 $105 $176 forward 7 unknown #
coedge $-1 $62 $61 $167 $177 reversed $24 $-1 #
coedge $-1 $102 $178 $61 $109 reversed $58 $-1 #
edge $-1 $115 -50.82064271980957 $179 50.82064271980957 $108 $180 forward 7 unknown #
coedge $-1 $181 $182 $62 $111 forward $165 $-1 #
edge $-1 $116 -50.82064271980957 $183 50.82064271980957 $110 $184 forward 7 unknown #
coedge $-1 $105 $63 $182 $185 forward $114 $-1 #
coedge $-1 $63 $105 $102 $169 forward $114 $-1 #
loop $-1 $-1 $63 $164 #
vertex $-1 $64 $186 #
vertex $-1 $185 $187 #
straight-curve $-1 50.82064271980957 -13.569827171262453 6.2990203081123184 0 -1 0 I I #
face $-1 $-1 $188 $14 $-1 $189 reversed single #
loop $-1 $-1 $71 $65 #
plane-surface $-1 50.82064271980957 0 0 -1 0 0 0 0 1 forward_v I I I I #
coedge $-1 $126 $190 $191 $192 forward $66 $-1 #
coedge $-1 $191 $68 $70 $128 forward $41 $-1 #
coedge $-1 $68 $191 $193 $194 reversed $41 $-1 #
coedge $-1 $195 $71 $68 $125 forward $119 $-1 #
edge $-1 $131 3.2995180714746386 $196 19.083040117793111 $124 $197 forward 7 unknown #
coedge $-1 $198 $121 $69 $127 forward $66 $-1 #
edge $-1 $199 28.597193851111847 $130 35.412864325376873 $126 $200 forward 7 unknown #
edge $-1 $131 -101.64128543961914 $199 -93.107141343199004 $70 $201 forward 7 unknown #
coedge $-1 $71 $195 $198 $202 reversed $119 $-1 #
vertex $-1 $202 $203 #
vertex $-1 $72 $204 #
straight-curve $-1 50.82064271980957 14.490797166108514 72.25059464514689 0 0 -1 I I #
coedge $-1 $133 $133 $-1 $205 reversed $75 $-1 #
edge $-1 $206 0 $206 6.2831853071796004 $76 $207 forward 7 unknown #
vertex $-1 $79 $208 #
ellipse-curve $-1 47.412807482677067 22.382558189267744 4.7255848064620061 0.6018150307709319 0 0.79863550430605224 1.1979532564590785 0 -0.90272254615639791 1 I I #
face $-1 $-1 $95 $12 $-1 $209 reversed single #
loop $-1 $-1 $153 $80 #
plane-surface $-1 0 30.274319212426978 0 0 -1 0 0 0 -1 forward_v I I I I #
coedge $-1 $210 $151 $154 $211 forward $81 $-1 #
coedge $-1 $157 $83 $84 $145 reversed $50 $-1 #
coedge $-1 $151 $210 $83 $143 reversed $81 $-1 #
edge $-1 $158 -7.2935729024573446 $212 7.2935729024573446 $142 $213 forward 7 unknown #
coedge $-1 $85 $84 $210 $214 forward $33 $-1 #
edge $-1 $149 -50.82064271980957 $212 50.82064271980957 $141 $215 forward 7 unknown #
coedge $-1 $154 $153 $85 $147 reversed $138 $-1 #
edge $-1 $216 -50.82064271980957 $148 50.82064271980957 $146 $217 forward 7 unknown #
vertex $-1 $87 $218 #
vertex $-1 $160 $219 #
straight-curve $-1 50.82064271980957 0 -7.2935729024573446 0 -1 0 I I #
coedge $-1 $140 $142 $88 $152 reversed $81 $-1 #
edge $-1 $155 -30.274319212426978 $158 30.274319212426978 $151 $220 forward 7 unknown #
coedge $-1 $146 $89 $94 $161 forward $138 $-1 #
coedge $-1 $89 $146 $140 $211 reversed $138 $-1 #
vertex $-1 $90 $221 #
straight-curve $-1 0 30.274319212426978 7.2935729024573446 -1 0 0 I I #
coedge $-1 $91 $141 $93 $160 reversed $50 $-1 #
vertex $-1 $152 $222 #
straight-curve $-1 0 -30.274319212426978 7.2935729024573446 1 0 0 I I #
edge $-1 $96 -7.2935729024573446 $149 7.2935729024573446 $93 $223 forward 7 unknown #
edge $-1 $97 -7.2935729024573446 $148 7.2935729024573446 $94 $224 forward 7 unknown #
point $-1 50.82064271980957 -30.274319212426978 7.2935729024573446 #
point $-1 50.82064271980957 30.274319212426978 7.2935729024573446 #
face $-1 $-1 $114 $13 $-1 $225 reversed single #
loop $-1 $-1 $110 $99 #
plane-surface $-1 0 -30.274319212426978 0 0 1 0 0 0 1 forward_v I I I I #
coedge $-1 $226 $227 $107 $177 forward $100 $-1 #
coedge $-1 $178 $102 $104 $173 reversed $58 $-1 #
edge $-1 $175 0.72234433717879787 $115 3.958565426348613 $113 $228 forward 7 unknown #
coedge $-1 $104 $103 $229 $230 reversed $37 $-1 #
coedge $-1 $182 $181 $103 $172 forward $165 $-1 #
edge $-1 $231 -50.82064271980957 $174 50.82064271980957 $171 $232 forward 7 unknown #
edge $-1 $233 -50.82064271980957 $175 50.82064271980957 $168 $234 forward 7 unknown #
vertex $-1 $172 $235 #
vertex $-1 $106 $236 #
straight-curve $-1 50.82064271980957 -13.569827171262453 3.0627992189425033 0 1 0 I I #
edge $-1 $183 -16.704492041164524 $179 -10.435162301360382 $167 $237 forward 7 unknown #
coedge $-1 $108 $168 $226 $238 reversed $58 $-1 #
vertex $-1 $177 $239 #
straight-curve $-1 0 -24.004989472622835 6.2990203081123184 -1 0 0 I I #
coedge $-1 $171 $110 $227 $240 forward $165 $-1 #
coedge $-1 $110 $171 $112 $185 reversed $165 $-1 #
vertex $-1 $240 $241 #
straight-curve $-1 0 -30.274319212426978 6.2990203081123184 -1 0 0 I I #
edge $-1 $116 -6.2990203081123184 $174 -3.0627992189425033 $112 $242 forward 7 unknown #
point $-1 50.82064271980957 -24.004989472622835 6.2990203081123184 #
point $-1 50.82064271980957 -30.274319212426978 6.2990203081123184 #
loop $-1 $-1 $193 $118 #
plane-surface $-1 0 30.274319212426978 0 0 -1 0 0 0 -1 forward_v I I I I #
coedge $-1 $121 $198 $243 $244 forward $66 $-1 #
coedge $-1 $123 $122 $121 $192 reversed $41 $-1 #
edge $-1 $245 -19.083040117793111 $199 -3.2995180714746386 $121 $246 forward 7 unknown #
coedge $-1 $243 $247 $123 $194 forward $188 $-1 #
edge $-1 $196 -70.464990468305601 $245 -61.930846371885451 $193 $248 forward 7 unknown #
coedge $-1 $129 $124 $247 $249 reversed $119 $-1 #
vertex $-1 $194 $250 #
straight-curve $-1 50.82064271980957 11.191279094633876 2.157596710466688 0 1 0 I I #
coedge $-1 $190 $126 $129 $202 forward $66 $-1 #
vertex $-1 $127 $251 #
straight-curve $-1 15.407778394432697 14.490797166108514 7.2935729024573419 1 0 0 I I #
straight-curve $-1 -30.35369653557607 14.490797166108514 63.326850034908148 -0.79863550430605224 0 0.6018150307709319 I I #
edge $-1 $130 14.490797166108514 $252 30.274319212426978 $129 $253 forward 7 unknown #
point $-1 50.82064271980957 14.490797166108514 7.2935729024573446 #
point $-1 50.820642719809562 14.490797166108514 2.1575967104666844 #
edge $-1 $254 1 $254 0 $133 $-1 forward 7 unknown #
vertex $-1 $134 $255 #
ellipse-curve $-1 45.435562170697203 22.382558189267744 2.1016917062066511 0.6018150307709319 0 0.79863550430605224 1.1979532564590785 0 -0.90272254615639791 1 I I #
point $-1 48.610760739136161 22.382558189267744 3.8228622603056346 #
plane-surface $-1 50.82064271980957 0 0 -1 0 0 0 0 1 forward_v I I I I #
coedge $-1 $142 $140 $144 $214 reversed $81 $-1 #
edge $-1 $155 -7.2935729024573446 $216 7.2935729024573446 $154 $256 forward 7 unknown #
vertex $-1 $214 $257 #
straight-curve $-1 -50.82064271980957 -30.274319212426978 0 0 0 -1 I I #
edge $-1 $212 -30.274319212426978 $216 30.274319212426978 $210 $258 forward 7 unknown #
straight-curve $-1 0 -30.274319212426978 -7.2935729024573446 -1 0 0 I I #
vertex $-1 $147 $259 #
straight-curve $-1 0 30.274319212426978 -7.2935729024573446 1 0 0 I I #
point $-1 50.82064271980957 30.274319212426978 -7.2935729024573446 #
point $-1 50.82064271980957 -30.274319212426978 -7.2935729024573446 #
straight-curve $-1 -50.82064271980957 0 7.2935729024573446 0 -1 0 I I #
point $-1 -50.82064271980957 30.274319212426978 7.2935729024573446 #
point $-1 -50.82064271980957 -30.274319212426978 7.2935729024573446 #
straight-curve $-1 50.82064271980957 -30.274319212426978 0 0 0 -1 I I #
straight-curve $-1 50.82064271980957 30.274319212426978 0 0 0 -1 I I #
plane-surface $-1 50.82064271980957 0 0 -1 0 0 0 0 1 forward_v I I I I #
coedge $-1 $229 $167 $178 $238 forward $100 $-1 #
coedge $-1 $167 $229 $181 $240 reversed $100 $-1 #
straight-curve $-1 50.82064271980957 -24.004989472622835 2.3404548817637054 0 0 1 I I #
coedge $-1 $227 $226 $170 $230 forward $100 $-1 #
edge $-1 $233 10.435162301360382 $231 16.704492041164524 $229 $260 forward 7 unknown #
vertex $-1 $172 $261 #
straight-curve $-1 0 -30.274319212426978 3.0627992189425033 1 0 0 I I #
vertex $-1 $230 $262 #
straight-curve $-1 0 -24.004989472622835 3.0627992189425033 1 0 0 I I #
point $-1 50.82064271980957 -30.274319212426978 3.0627992189425033 #
point $-1 50.82064271980957 -24.004989472622835 3.0627992189425033 #
straight-curve $-1 -50.82064271980957 -13.569827171262453 6.2990203081123184 0 1 0 I I #
edge $-1 $179 -3.958565426348613 $233 -0.72234433717879787 $226 $263 forward 7 unknown #
point $-1 -50.82064271980957 -24.004989472622835 6.2990203081123184 #
edge $-1 $183 -6.2990203081123184 $231 -3.0627992189425033 $227 $264 forward 7 unknown #
point $-1 -50.82064271980957 -30.274319212426978 6.2990203081123184 #
straight-curve $-1 50.82064271980957 -30.274319212426978 0 0 0 -1 I I #
coedge $-1 $247 $193 $190 $244 reversed $188 $-1 #
edge $-1 $252 -50.82064271980957 $245 -44.004972245544543 $243 $265 forward 7 unknown #
vertex $-1 $194 $266 #
straight-curve $-1 44.00497224554455 11.191279094633876 7.2935729024573419 0 -1 0 I I #
coedge $-1 $193 $243 $195 $249 forward $188 $-1 #
straight-curve $-1 -5.455200478766832 30.274319212426978 44.56448711742344 -0.79863550430605224 0 0.6018150307709319 I I #
edge $-1 $252 -7.2935729024573446 $196 -2.1575967104666844 $195 $267 forward 7 unknown #
point $-1 50.820642719809562 30.274319212426988 2.1575967104666844 #
point $-1 44.004972245544543 14.490797166108514 7.2935729024573419 #
vertex $-1 $202 $268 #
straight-curve $-1 50.82064271980957 0 7.2935729024573446 0 1 0 I I #
vertex $-1 $205 $269 #
point $-1 46.633515427156283 22.382558189267744 1.1989691600502534 #
straight-curve $-1 -50.82064271980957 30.274319212426978 0 0 0 -1 I I #
point $-1 -50.82064271980957 -30.274319212426978 -7.2935729024573446 #
straight-curve $-1 -50.82064271980957 0 -7.2935729024573446 0 1 0 I I #
point $-1 -50.82064271980957 30.274319212426978 -7.2935729024573446 #
straight-curve $-1 -50.82064271980957 -13.569827171262453 3.0627992189425033 0 -1 0 I I #
point $-1 -50.82064271980957 -30.274319212426978 3.0627992189425033 #
point $-1 -50.82064271980957 -24.004989472622835 3.0627992189425033 #
straight-curve $-1 -50.82064271980957 -24.004989472622835 2.3404548817637054 0 0 -1 I I #
straight-curve $-1 -50.82064271980957 -30.274319212426978 0 0 0 -1 I I #
straight-curve $-1 0 30.274319212426978 7.2935729024573446 -1 0 0 I I #
point $-1 44.004972245544543 30.274319212426988 7.2935729024573419 #
straight-curve $-1 50.82064271980957 30.274319212426978 0 0 0 -1 I I #
point $-1 50.82064271980957 30.274319212426978 7.2935729024573446 #
point $-1 44.532839624540806 22.382558189267744 0.90373844974757289 #
End-of-ACIS-data 