500 0 5 0           
7 Unknown 11 ACIS 5.0 NT 24 Fri Mar 26 03:04:57 1999 
-1 9.9999999999999995e-007 1e-010 
body $-1 $5 $-1 $6 #
body $-1 $7 $-1 $8 #
body $-1 $9 $-1 $10 #
body $-1 $11 $-1 $12 #
body $-1 $13 $-1 $14 #
lump $-1 $-1 $15 $0 #
transform $-1 1 0 0 0 1 0 0 0 1 53.603930784020505 36.405260014082323 12.348701527528288 1 rotate no_reflect no_shear #
lump $-1 $-1 $16 $1 #
transform $-1 1 0 0 0 1 0 0 0 1 53.603930784020505 36.405260014082323 12.348701527528288 1 rotate no_reflect no_shear #
lump $-1 $-1 $17 $2 #
transform $-1 1 0 0 0 1 0 0 0 1 53.603930784020505 36.405260014082323 12.348701527528288 1 rotate no_reflect no_shear #
lump $-1 $-1 $18 $3 #
transform $-1 1 0 0 0 1 0 0 0 1 53.603930784020505 36.405260014082323 12.348701527528288 1 rotate no_reflect no_shear #
lump $-1 $-1 $19 $4 #
transform $-1 1 0 0 0 1 0 0 0 1 53.603930784020505 36.405260014082323 12.348701527528288 1 rotate no_reflect no_shear #
shell $-1 $-1 $-1 $20 $-1 $5 #
shell $-1 $-1 $-1 $21 $-1 $7 #
shell $-1 $-1 $-1 $22 $-1 $9 #
shell $-1 $-1 $-1 $23 $-1 $11 #
shell $-1 $-1 $-1 $24 $-1 $13 #
face $-1 $25 $26 $15 $-1 $27 forward single #
face $-1 $28 $29 $16 $-1 $30 forward single #
face $-1 $31 $32 $17 $-1 $33 reversed single #
face $-1 $34 $35 $18 $-1 $36 forward single #
face $-1 $37 $38 $19 $-1 $39 forward single #
face $-1 $40 $41 $15 $-1 $42 reversed single #
loop $-1 $-1 $43 $20 #
plane-surface $-1 0 0 12.348701527528288 0 0 1 1 0 0 forward_v I I I I #
face $-1 $44 $45 $16 $-1 $46 reversed single #
loop $-1 $-1 $47 $21 #
plane-surface $-1 -49.430983939694023 0 -5.5116797253456262 0 0 1 1 0 0 forward_v I I I I #
face $-1 $48 $49 $17 $-1 $50 reversed single #
loop $-1 $-1 $51 $22 #
plane-surface $-1 -45.258037095367541 38.254278043654132 134.9368915954619 1 0 0 0 -0.57357644374324357 -0.81915203911291934 forward_v I I I I #
face $-1 $52 $53 $18 $-1 $54 forward single #
loop $-1 $55 $56 $23 #
cone-surface $-1 -39.668693168915723 30.372044813215378 7.3677506316544168 0 -0.57357644374324357 -0.81915203911291934 1.5 0 0 1 I I 0 1 1.5 forward I I I I #
face $-1 $57 $58 $19 $-1 $59 forward single #
loop $-1 $60 $61 $24 #
cone-surface $-1 -31.284677279237982 30.372044813215378 7.3677506316544168 0 -0.57357644374324357 -0.81915203911291934 1.5 0 0 1 I I 0 1 1.5 forward I I I I #
face $-1 $62 $63 $15 $-1 $64 reversed single #
loop $-1 $-1 $65 $25 #
plane-surface $-1 0 0 -12.348701527528288 0 0 1 1 0 0 forward_v I I I I #
coedge $-1 $66 $67 $68 $69 forward $26 $-1 #
face $-1 $70 $71 $16 $-1 $72 reversed single #
loop $-1 $-1 $73 $28 #
plane-surface $-1 -49.430983939694023 0 -8.8798637224198576 0 0 1 1 0 0 forward_v I I I I #
coedge $-1 $74 $75 $76 $77 forward $29 $-1 #
face $-1 $78 $79 $17 $-1 $80 reversed single #
loop $-1 $-1 $81 $31 #
plane-surface $-1 -35.476685224076853 -23.237625935860784 47.117353183065532 0 0.57357644374324357 0.81915203911291934 1 0 0 forward_v I I I I #
coedge $-1 $82 $83 $84 $85 reversed $32 $-1 #
face $-1 $-1 $86 $18 $-1 $87 forward single #
loop $-1 $88 $89 $34 #
cone-surface $-1 -39.668693168915723 28.90270045188209 5.2693094511026892 0 -0.57357644374324357 -0.81915203911291934 0.75 0 0 1 I I -0.70710678118654757 0.70710678118654757 0.75 forward I I I I #
loop $-1 $-1 $90 $23 #
coedge $-1 $56 $56 $91 $92 reversed $35 $-1 #
face $-1 $-1 $93 $19 $-1 $94 forward single #
loop $-1 $95 $96 $37 #
cone-surface $-1 -31.284677279237982 28.90270045188209 5.2693094511026892 0 -0.57357644374324357 -0.81915203911291934 0.75 0 0 1 I I -0.70710678118654757 0.70710678118654757 0.75 forward I I I I #
loop $-1 $-1 $97 $24 #
coedge $-1 $61 $61 $98 $99 reversed $38 $-1 #
face $-1 $100 $101 $15 $-1 $102 reversed single #
loop $-1 $-1 $103 $40 #
plane-surface $-1 0 -36.405260014082323 0 0 1 0 0 0 1 forward_v I I I I #
coedge $-1 $104 $105 $106 $107 forward $41 $-1 #
coedge $-1 $108 $43 $109 $110 forward $26 $-1 #
coedge $-1 $43 $108 $111 $112 forward $26 $-1 #
coedge $-1 $113 $114 $43 $69 reversed $115 $-1 #
edge $-1 $116 -36.405260014082323 $117 36.405260014082323 $68 $118 forward 7 unknown #
face $-1 $119 $120 $16 $-1 $121 reversed single #
loop $-1 $-1 $122 $44 #
plane-surface $-1 -45.258037095367541 0 -7.1957717238827419 -1 0 0 0 0 1 forward_v I I I I #
coedge $-1 $123 $124 $125 $126 forward $45 $-1 #
coedge $-1 $127 $47 $128 $129 reversed $29 $-1 #
coedge $-1 $47 $127 $130 $131 reversed $29 $-1 #
coedge $-1 $122 $132 $47 $77 reversed $71 $-1 #
edge $-1 $133 -36.405260014082323 $134 36.405260014082323 $76 $135 forward 7 unknown #
face $-1 $136 $137 $17 $-1 $138 forward single #
loop $-1 $-1 $139 $48 #
plane-surface $-1 -25.695333352786161 38.254278043654132 134.9368915954619 -1 0 0 0 0.57357644374324357 0.81915203911291934 forward_v I I I I #
coedge $-1 $140 $141 $142 $143 reversed $49 $-1 #
coedge $-1 $83 $51 $144 $145 reversed $32 $-1 #
coedge $-1 $51 $82 $140 $146 reversed $32 $-1 #
coedge $-1 $142 $147 $51 $85 forward $137 $-1 #
edge $-1 $148 -17.278120992255257 $149 -7.2900146475730914 $84 $150 forward 7 unknown #
loop $-1 $-1 $91 $52 #
plane-surface $-1 -35.476685224076853 -23.237625935860784 47.117353183065532 0 0.57357644374324357 0.81915203911291934 1 0 0 forward_v I I I I #
loop $-1 $-1 $151 $34 #
coedge $-1 $89 $89 $90 $152 reversed $53 $-1 #
coedge $-1 $90 $90 $89 $152 forward $55 $-1 #
coedge $-1 $91 $91 $56 $92 forward $86 $-1 #
edge $-1 $153 -2.8880652740743036e-016 $153 6.2831853071796004 $91 $154 forward 7 unknown #
loop $-1 $-1 $98 $57 #
plane-surface $-1 -35.476685224076853 -23.237625935860784 47.117353183065532 0 0.57357644374324357 0.81915203911291934 1 0 0 forward_v I I I I #
loop $-1 $-1 $155 $37 #
coedge $-1 $96 $96 $97 $156 reversed $58 $-1 #
coedge $-1 $97 $97 $96 $156 forward $60 $-1 #
coedge $-1 $98 $98 $61 $99 forward $93 $-1 #
edge $-1 $157 -2.8880652740743036e-016 $157 6.2831853071796004 $98 $158 forward 7 unknown #
face $-1 $159 $160 $15 $-1 $161 reversed single #
loop $-1 $-1 $162 $62 #
plane-surface $-1 -53.603930784020505 0 0 1 0 0 0 0 -1 forward_v I I I I #
coedge $-1 $163 $111 $164 $165 forward $63 $-1 #
coedge $-1 $166 $65 $163 $167 forward $41 $-1 #
coedge $-1 $65 $166 $168 $169 forward $41 $-1 #
coedge $-1 $114 $113 $65 $107 reversed $115 $-1 #
edge $-1 $170 -36.405260014082323 $171 36.405260014082323 $106 $172 forward 7 unknown #
coedge $-1 $67 $66 $173 $174 forward $26 $-1 #
coedge $-1 $175 $176 $66 $110 reversed $160 $-1 #
edge $-1 $117 -53.603930784020505 $177 53.603930784020505 $109 $178 forward 7 unknown #
coedge $-1 $103 $179 $67 $112 reversed $63 $-1 #
edge $-1 $180 -53.603930784020505 $116 53.603930784020505 $111 $181 forward 7 unknown #
coedge $-1 $106 $68 $179 $182 forward $115 $-1 #
coedge $-1 $68 $106 $175 $183 reversed $115 $-1 #
loop $-1 $-1 $113 $159 #
vertex $-1 $69 $184 #
vertex $-1 $69 $185 #
straight-curve $-1 53.603930784020505 0 12.348701527528288 0 1 0 I I #
face $-1 $186 $187 $16 $-1 $188 reversed single #
loop $-1 $-1 $189 $70 #
plane-surface $-1 0 -36.405260014082323 0 0 1 0 0 0 1 forward_v I I I I #
coedge $-1 $125 $76 $190 $191 reversed $71 $-1 #
coedge $-1 $192 $73 $189 $193 reversed $45 $-1 #
coedge $-1 $73 $192 $194 $195 reversed $45 $-1 #
coedge $-1 $132 $122 $73 $126 reversed $71 $-1 #
edge $-1 $196 -36.405260014082323 $197 36.405260014082323 $125 $198 forward 7 unknown #
coedge $-1 $75 $74 $199 $200 reversed $29 $-1 #
coedge $-1 $201 $202 $74 $129 forward $203 $-1 #
edge $-1 $204 -28.888438814173494 $134 -20.54254512552053 $128 $205 forward 7 unknown #
coedge $-1 $206 $190 $75 $131 forward $120 $-1 #
edge $-1 $133 20.54254512552053 $207 28.888438814173494 $130 $208 forward 7 unknown #
coedge $-1 $76 $125 $201 $209 reversed $71 $-1 #
vertex $-1 $131 $210 #
vertex $-1 $129 $211 #
straight-curve $-1 -45.258037095367541 0 -5.5116797253456262 0 1 0 I I #
face $-1 $-1 $212 $17 $-1 $213 reversed single #
loop $-1 $-1 $84 $78 #
plane-surface $-1 0 0 12.348701527528288 0 0 1 1 0 0 forward_v I I I I #
coedge $-1 $214 $215 $216 $217 reversed $79 $-1 #
coedge $-1 $218 $81 $83 $146 forward $49 $-1 #
coedge $-1 $81 $218 $214 $219 forward $49 $-1 #
coedge $-1 $216 $84 $81 $143 forward $137 $-1 #
edge $-1 $149 -27.519694483329115 $220 -7.9569907407477345 $142 $221 forward 7 unknown #
coedge $-1 $222 $223 $82 $145 forward $212 $-1 #
edge $-1 $224 -62.1134917595163 $148 -55.119744270202659 $144 $225 forward 7 unknown #
edge $-1 $149 60.617293535682791 $224 72.810520028164632 $83 $226 forward 7 unknown #
coedge $-1 $84 $216 $222 $227 forward $137 $-1 #
vertex $-1 $145 $228 #
vertex $-1 $85 $229 #
straight-curve $-1 -45.258037095367541 19.127139021827066 12.348701527528291 0 -1 0 I I #
coedge $-1 $151 $151 $-1 $230 reversed $88 $-1 #
edge $-1 $231 0 $231 6.2831853071796004 $89 $232 forward 7 unknown #
vertex $-1 $92 $233 #
ellipse-curve $-1 -39.668693168915723 31.411206841741247 8.8518277828714744 0 0.57357644374324357 0.81915203911291934 1.5 0 0 1 I I #
coedge $-1 $155 $155 $-1 $234 reversed $95 $-1 #
edge $-1 $235 0 $235 6.2831853071796004 $96 $236 forward 7 unknown #
vertex $-1 $99 $237 #
ellipse-curve $-1 -31.284677279237982 31.411206841741247 8.8518277828714744 0 0.57357644374324357 0.81915203911291934 1.5 0 0 1 I I #
face $-1 $-1 $115 $15 $-1 $238 reversed single #
loop $-1 $-1 $175 $100 #
plane-surface $-1 0 36.405260014082323 0 0 -1 0 0 0 -1 forward_v I I I I #
coedge $-1 $239 $173 $176 $240 forward $101 $-1 #
coedge $-1 $179 $103 $104 $167 reversed $63 $-1 #
coedge $-1 $173 $239 $103 $165 reversed $101 $-1 #
edge $-1 $180 -12.348701527528288 $241 12.348701527528288 $164 $242 forward 7 unknown #
coedge $-1 $105 $104 $239 $243 forward $41 $-1 #
edge $-1 $171 -53.603930784020505 $241 53.603930784020505 $163 $244 forward 7 unknown #
coedge $-1 $176 $175 $105 $169 reversed $160 $-1 #
edge $-1 $245 -53.603930784020505 $170 53.603930784020505 $168 $246 forward 7 unknown #
vertex $-1 $107 $247 #
vertex $-1 $182 $248 #
straight-curve $-1 53.603930784020505 0 -12.348701527528288 0 -1 0 I I #
coedge $-1 $162 $164 $108 $174 reversed $101 $-1 #
edge $-1 $177 -36.405260014082323 $180 36.405260014082323 $173 $249 forward 7 unknown #
coedge $-1 $168 $109 $114 $183 forward $160 $-1 #
coedge $-1 $109 $168 $162 $240 reversed $160 $-1 #
vertex $-1 $110 $250 #
straight-curve $-1 0 36.405260014082323 12.348701527528288 -1 0 0 I I #
coedge $-1 $111 $163 $113 $182 reversed $63 $-1 #
vertex $-1 $174 $251 #
straight-curve $-1 0 -36.405260014082323 12.348701527528288 1 0 0 I I #
edge $-1 $116 -12.348701527528288 $171 12.348701527528288 $113 $252 forward 7 unknown #
edge $-1 $117 -12.348701527528288 $170 12.348701527528288 $114 $253 forward 7 unknown #
point $-1 53.603930784020505 -36.405260014082323 12.348701527528288 #
point $-1 53.603930784020505 36.405260014082323 12.348701527528288 #
face $-1 $-1 $203 $16 $-1 $254 reversed single #
loop $-1 $-1 $255 $119 #
plane-surface $-1 -53.603930784020505 0 0 1 0 0 0 0 -1 forward_v I I I I #
coedge $-1 $190 $206 $123 $193 forward $120 $-1 #
coedge $-1 $130 $189 $122 $191 forward $120 $-1 #
edge $-1 $197 -5.2819778604784862 $133 -1.9137938634042553 $190 $256 forward 7 unknown #
coedge $-1 $124 $123 $255 $257 reversed $45 $-1 #
edge $-1 $258 -28.888438814173494 $197 -20.54254512552053 $189 $259 forward 7 unknown #
coedge $-1 $202 $201 $124 $195 forward $203 $-1 #
edge $-1 $196 20.54254512552053 $260 28.888438814173494 $194 $261 forward 7 unknown #
vertex $-1 $195 $262 #
vertex $-1 $193 $263 #
straight-curve $-1 -45.258037095367541 0 -8.8798637224198576 0 -1 0 I I #
coedge $-1 $264 $265 $127 $200 forward $187 $-1 #
edge $-1 $207 -36.405260014082323 $204 36.405260014082323 $199 $266 forward 7 unknown #
coedge $-1 $194 $128 $132 $209 forward $203 $-1 #
coedge $-1 $128 $194 $264 $267 reversed $203 $-1 #
loop $-1 $-1 $194 $186 #
vertex $-1 $267 $268 #
straight-curve $-1 -24.715491969847012 36.405260014082323 -5.5116797253456262 1 0 0 I I #
coedge $-1 $189 $130 $265 $269 forward $120 $-1 #
vertex $-1 $269 $270 #
straight-curve $-1 -24.715491969847012 -36.405260014082323 -5.5116797253456262 -1 0 0 I I #
edge $-1 $134 1.9137938634042553 $196 5.2819778604784862 $201 $271 forward 7 unknown #
point $-1 -45.258037095367541 -36.405260014082323 -5.5116797253456262 #
point $-1 -45.258037095367541 36.405260014082323 -5.5116797253456262 #
loop $-1 $-1 $144 $136 #
plane-surface $-1 0 36.405260014082323 0 0 -1 0 0 0 -1 forward_v I I I I #
coedge $-1 $215 $139 $141 $219 reversed $79 $-1 #
coedge $-1 $139 $214 $272 $273 reversed $79 $-1 #
coedge $-1 $147 $142 $139 $217 forward $137 $-1 #
edge $-1 $220 7.2900146475730914 $274 17.278120992255257 $216 $275 forward 7 unknown #
coedge $-1 $141 $140 $223 $276 reversed $49 $-1 #
edge $-1 $277 -72.810520028164632 $220 -60.617293535682791 $214 $278 forward 7 unknown #
vertex $-1 $143 $279 #
straight-curve $-1 -17.738342612038426 26.417153669400157 12.348701527528295 1 0 0 I I #
coedge $-1 $272 $144 $147 $227 reversed $212 $-1 #
coedge $-1 $144 $272 $218 $276 forward $212 $-1 #
vertex $-1 $145 $280 #
straight-curve $-1 -45.258037095367541 36.405260014082323 67.468445797730951 0 0 1 I I #
straight-curve $-1 -45.258037095367541 -23.237625935860784 47.117353183065532 0 0.81915203911291934 -0.57357644374324357 I I #
edge $-1 $274 25.695333352786161 $148 45.258037095367541 $222 $281 forward 7 unknown #
point $-1 -45.258037095367541 36.405260014082323 12.348701527528288 #
point $-1 -45.258037095367541 26.417153669400157 12.348701527528291 #
edge $-1 $282 1 $282 0 $151 $-1 forward 7 unknown #
vertex $-1 $152 $283 #
ellipse-curve $-1 -39.668693168915723 29.332882784689524 5.8836734804373787 0 0.57357644374324357 0.81915203911291934 1.5 0 0 1 I I #
point $-1 -38.168693168915723 31.411206841741233 8.8518277828714549 #
edge $-1 $284 1 $284 0 $155 $-1 forward 7 unknown #
vertex $-1 $156 $285 #
ellipse-curve $-1 -31.284677279237982 29.332882784689524 5.8836734804373787 0 0.57357644374324357 0.81915203911291934 1.5 0 0 1 I I #
point $-1 -29.784677279237982 31.411206841741233 8.8518277828714549 #
plane-surface $-1 53.603930784020505 0 0 -1 0 0 0 0 1 forward_v I I I I #
coedge $-1 $164 $162 $166 $243 reversed $101 $-1 #
edge $-1 $177 -12.348701527528288 $245 12.348701527528288 $176 $286 forward 7 unknown #
vertex $-1 $243 $287 #
straight-curve $-1 -53.603930784020505 -36.405260014082323 0 0 0 -1 I I #
edge $-1 $241 -36.405260014082323 $245 36.405260014082323 $239 $288 forward 7 unknown #
straight-curve $-1 0 -36.405260014082323 -12.348701527528288 -1 0 0 I I #
vertex $-1 $169 $289 #
straight-curve $-1 0 36.405260014082323 -12.348701527528288 1 0 0 I I #
point $-1 53.603930784020505 36.405260014082323 -12.348701527528288 #
point $-1 53.603930784020505 -36.405260014082323 -12.348701527528288 #
straight-curve $-1 -53.603930784020505 0 12.348701527528288 0 -1 0 I I #
point $-1 -53.603930784020505 36.405260014082323 12.348701527528288 #
point $-1 -53.603930784020505 -36.405260014082323 12.348701527528288 #
straight-curve $-1 53.603930784020505 -36.405260014082323 0 0 0 -1 I I #
straight-curve $-1 53.603930784020505 36.405260014082323 0 0 0 -1 I I #
plane-surface $-1 0 36.405260014082323 0 0 -1 0 0 0 -1 forward_v I I I I #
coedge $-1 $265 $264 $192 $257 forward $187 $-1 #
straight-curve $-1 -45.258037095367541 -36.405260014082323 -3.5978858619413709 0 0 1 I I #
edge $-1 $260 -36.405260014082323 $258 36.405260014082323 $255 $290 forward 7 unknown #
vertex $-1 $193 $291 #
straight-curve $-1 -24.715491969847012 -36.405260014082323 -8.8798637224198576 1 0 0 I I #
vertex $-1 $195 $292 #
straight-curve $-1 -24.715491969847012 36.405260014082323 -8.8798637224198576 -1 0 0 I I #
point $-1 -45.258037095367541 36.405260014082323 -8.8798637224198576 #
point $-1 -45.258037095367541 -36.405260014082323 -8.8798637224198576 #
coedge $-1 $255 $199 $202 $267 forward $187 $-1 #
coedge $-1 $199 $255 $206 $269 reversed $187 $-1 #
straight-curve $-1 -53.603930784020505 0 -5.5116797253456262 0 1 0 I I #
edge $-1 $204 5.5116797253456262 $260 8.8798637224198576 $202 $293 forward 7 unknown #
point $-1 -53.603930784020505 36.405260014082323 -5.5116797253456262 #
edge $-1 $207 5.5116797253456262 $258 8.8798637224198576 $265 $294 forward 7 unknown #
point $-1 -53.603930784020505 -36.405260014082323 -5.5116797253456262 #
straight-curve $-1 -45.258037095367541 36.405260014082323 -3.5978858619413709 0 0 -1 I I #
coedge $-1 $223 $222 $215 $273 forward $212 $-1 #
edge $-1 $274 55.119744270202659 $277 62.1134917595163 $272 $295 forward 7 unknown #
vertex $-1 $227 $296 #
straight-curve $-1 -25.695333352786161 19.127139021827066 12.348701527528291 0 1 0 I I #
edge $-1 $277 7.9569907407477345 $224 27.519694483329115 $223 $297 forward 7 unknown #
vertex $-1 $276 $298 #
straight-curve $-1 -25.695333352786161 -23.237625935860784 47.117353183065532 0 -0.81915203911291934 0.57357644374324357 I I #
point $-1 -25.695333352786161 26.417153669400157 12.348701527528291 #
point $-1 -45.258037095367541 36.40526001408233 5.3549540382146503 #
straight-curve $-1 0 36.405260014082323 12.348701527528288 -1 0 0 I I #
vertex $-1 $230 $299 #
point $-1 -38.168693168915723 29.332882784689524 5.8836734804373787 #
vertex $-1 $234 $300 #
point $-1 -29.784677279237982 29.332882784689524 5.8836734804373787 #
straight-curve $-1 -53.603930784020505 36.405260014082323 0 0 0 -1 I I #
point $-1 -53.603930784020505 -36.405260014082323 -12.348701527528288 #
straight-curve $-1 -53.603930784020505 0 -12.348701527528288 0 1 0 I I #
point $-1 -53.603930784020505 36.405260014082323 -12.348701527528288 #
straight-curve $-1 -53.603930784020505 0 -8.8798637224198576 0 -1 0 I I #
point $-1 -53.603930784020505 -36.405260014082323 -8.8798637224198576 #
point $-1 -53.603930784020505 36.405260014082323 -8.8798637224198576 #
straight-curve $-1 -53.603930784020505 36.405260014082323 0 0 0 -1 I I #
straight-curve $-1 -53.603930784020505 -36.405260014082323 0 0 0 -1 I I #
straight-curve $-1 -25.695333352786161 36.405260014082323 67.468445797730951 0 0 -1 I I #
point $-1 -25.695333352786161 36.405260014082323 12.348701527528288 #
straight-curve $-1 -17.738342612038426 36.405260014082323 5.3549540382146574 -1 0 0 I I #
point $-1 -25.695333352786161 36.40526001408233 5.3549540382146503 #
point $-1 -39.668693168915723 28.472518119074657 4.6549454217679997 #
point $-1 -31.284677279237982 28.472518119074657 4.6549454217679997 #
End-of-ACIS-data 