500 0 7 0           
7 Unknown 11 ACIS 5.0 NT 24 Fri Mar 26 16:28:27 1999 
-1 9.9999999999999995e-007 1e-010 
body $-1 $7 $-1 $8 #
body $-1 $9 $-1 $10 #
body $-1 $11 $-1 $12 #
body $-1 $13 $-1 $14 #
body $-1 $15 $-1 $16 #
body $-1 $17 $-1 $18 #
body $-1 $19 $-1 $20 #
lump $-1 $-1 $21 $0 #
transform $-1 1 0 0 0 1 0 0 0 1 71.792962431714841 48.956897786163189 10.654217426781551 1 rotate no_reflect no_shear #
lump $-1 $-1 $22 $1 #
transform $-1 1 0 0 0 1 0 0 0 1 71.792962431714841 48.956897786163189 10.654217426781551 1 rotate no_reflect no_shear #
lump $-1 $-1 $23 $2 #
transform $-1 1 0 0 0 1 0 0 0 1 71.792962431714841 48.956897786163189 10.654217426781551 1 rotate no_reflect no_shear #
lump $-1 $-1 $24 $3 #
transform $-1 1 0 0 0 1 0 0 0 1 71.792962431714841 48.956897786163189 10.654217426781551 1 rotate no_reflect no_shear #
lump $-1 $-1 $25 $4 #
transform $-1 1 0 0 0 1 0 0 0 1 71.792962431714841 48.956897786163189 10.654217426781551 1 rotate no_reflect no_shear #
lump $-1 $-1 $26 $5 #
transform $-1 1 0 0 0 1 0 0 0 1 71.792962431714841 48.956897786163189 10.654217426781551 1 rotate no_reflect no_shear #
lump $-1 $-1 $27 $6 #
transform $-1 1 0 0 0 1 0 0 0 1 71.792962431714841 48.956897786163189 10.654217426781551 1 rotate no_reflect no_shear #
shell $-1 $-1 $-1 $28 $-1 $7 #
shell $-1 $-1 $-1 $29 $-1 $9 #
shell $-1 $-1 $-1 $30 $-1 $11 #
shell $-1 $-1 $-1 $31 $-1 $13 #
shell $-1 $-1 $-1 $32 $-1 $15 #
shell $-1 $-1 $-1 $33 $-1 $17 #
shell $-1 $-1 $-1 $34 $-1 $19 #
face $-1 $35 $36 $21 $-1 $37 forward single #
face $-1 $38 $39 $22 $-1 $40 reversed single #
face $-1 $41 $42 $23 $-1 $43 forward single #
face $-1 $44 $45 $24 $-1 $46 forward single #
face $-1 $47 $48 $25 $-1 $49 reversed single #
face $-1 $50 $51 $26 $-1 $52 forward single #
face $-1 $53 $54 $27 $-1 $55 forward single #
face $-1 $56 $57 $21 $-1 $58 reversed single #
loop $-1 $-1 $59 $28 #
plane-surface $-1 0 0 10.654217426781551 0 0 1 1 0 0 forward_v I I I I #
face $-1 $60 $61 $22 $-1 $62 reversed single #
loop $-1 $-1 $63 $29 #
plane-surface $-1 100.05361682251117 -2.5695752023163259 203.30180411282214 0 -1 0 -0.79863551827123203 0 -0.60181501223851219 forward_v I I I I #
face $-1 $64 $65 $23 $-1 $66 forward single #
loop $-1 $67 $68 $30 #
cone-surface $-1 67.832900632570087 -14.439278792541344 5.8469594525228938 -0.79863551827123203 0 -0.60181501223851219 0.90272251835776829 0 -1.197953277406848 1 I I 0 1 1.5 forward I I I I #
face $-1 $69 $70 $24 $-1 $71 forward single #
loop $-1 $72 $73 $31 #
cone-surface $-1 67.832900632570087 -7.317456638406334 5.8469594525228938 -0.79863551827123203 0 -0.60181501223851219 0.90272251835776829 0 -1.197953277406848 1 I I 0 1 1.5 forward I I I I #
face $-1 $74 $75 $25 $-1 $76 reversed single #
loop $-1 $-1 $77 $32 #
plane-surface $-1 -176.80506126767739 -14.191153687165013 99.986141811332999 0 1 0 -0.73135370988377701 0 0.68199835119979291 forward_v I I I I #
face $-1 $78 $79 $26 $-1 $80 forward single #
loop $-1 $81 $82 $33 #
cone-surface $-1 -67.124367867160089 -7.303562399583619 5.7403231352353608 0.73135370988377701 0 -0.68199835119979291 0.68199835119979291 0 0.73135370988377701 1 I I 0 1 1 forward I I I I #
face $-1 $83 $84 $27 $-1 $85 forward single #
loop $-1 $86 $87 $34 #
cone-surface $-1 -67.124367867160089 3.0278245317884753 5.7403231352353608 0.73135370988377701 0 -0.68199835119979291 0.68199835119979291 0 0.73135370988377701 1 I I 0 1 1 forward I I I I #
face $-1 $88 $89 $21 $-1 $90 reversed single #
loop $-1 $-1 $91 $35 #
plane-surface $-1 0 0 -10.654217426781551 0 0 1 1 0 0 forward_v I I I I #
coedge $-1 $92 $93 $94 $95 forward $36 $-1 #
face $-1 $96 $97 $22 $-1 $98 reversed single #
loop $-1 $-1 $99 $38 #
plane-surface $-1 -14.61920269724817 -10.878367715473836 116.88963898385911 0.79863551827123203 0 0.60181501223851219 0.60181501223851219 0 -0.79863551827123203 forward_v I I I I #
coedge $-1 $100 $101 $102 $103 reversed $39 $-1 #
face $-1 $-1 $104 $23 $-1 $105 forward single #
loop $-1 $106 $107 $41 #
cone-surface $-1 66.452879807890497 -14.439278792541344 4.8070392004262512 -0.79863551827123203 0 -0.60181501223851219 0.45136125917888414 0 -0.59897663870342399 1 I I -0.70710678118654757 0.70710678118654757 0.75 forward I I I I #
loop $-1 $-1 $108 $30 #
coedge $-1 $68 $68 $109 $110 reversed $42 $-1 #
face $-1 $-1 $111 $24 $-1 $112 forward single #
loop $-1 $113 $114 $44 #
cone-surface $-1 66.452879807890497 -7.317456638406334 4.8070392004262512 -0.79863551827123203 0 -0.60181501223851219 0.45136125917888414 0 -0.59897663870342399 1 I I -0.70710678118654757 0.70710678118654757 0.75 forward I I I I #
loop $-1 $-1 $115 $31 #
coedge $-1 $73 $73 $116 $117 reversed $45 $-1 #
face $-1 $118 $119 $25 $-1 $120 reversed single #
loop $-1 $-1 $121 $47 #
plane-surface $-1 -71.792962431714827 -2.1378689338975718 2.0607777989766021 -0.73135370988377701 0 0.68199835119979291 0.68199835119979291 0 0.73135370988377701 forward_v I I I I #
coedge $-1 $122 $123 $124 $125 reversed $48 $-1 #
face $-1 $-1 $126 $26 $-1 $127 forward single #
loop $-1 $128 $129 $50 #
cone-surface $-1 -66.096852397687456 -7.303562399583619 4.7821494819917412 0.73135370988377701 0 -0.68199835119979291 0.34099917559989645 0 0.36567685494188851 1 I I -0.70710678118654746 0.70710678118654746 0.5 forward I I I I #
loop $-1 $-1 $130 $33 #
coedge $-1 $82 $82 $131 $132 reversed $51 $-1 #
face $-1 $-1 $133 $27 $-1 $134 forward single #
loop $-1 $135 $136 $53 #
cone-surface $-1 -66.096852397687456 3.0278245317884753 4.7821494819917412 0.73135370988377701 0 -0.68199835119979291 0.34099917559989645 0 0.36567685494188851 1 I I -0.70710678118654746 0.70710678118654746 0.5 forward I I I I #
loop $-1 $-1 $137 $34 #
coedge $-1 $87 $87 $138 $139 reversed $54 $-1 #
face $-1 $140 $141 $21 $-1 $142 reversed single #
loop $-1 $-1 $143 $56 #
plane-surface $-1 0 -48.956897786163189 0 0 1 0 0 0 1 forward_v I I I I #
coedge $-1 $144 $145 $146 $147 forward $57 $-1 #
coedge $-1 $148 $59 $149 $150 forward $36 $-1 #
coedge $-1 $59 $148 $151 $152 forward $36 $-1 #
coedge $-1 $153 $154 $59 $95 reversed $155 $-1 #
edge $-1 $156 -48.956897786163189 $157 48.956897786163189 $94 $158 forward 7 unknown #
face $-1 $159 $160 $22 $-1 $161 forward single #
loop $-1 $-1 $162 $60 #
plane-surface $-1 100.05361682251117 -19.187160228631345 203.30180411282214 0 1 0 0.79863551827123203 0 0.60181501223851219 forward_v I I I I #
coedge $-1 $163 $164 $165 $166 reversed $61 $-1 #
coedge $-1 $101 $63 $167 $168 reversed $39 $-1 #
coedge $-1 $63 $100 $163 $169 reversed $39 $-1 #
coedge $-1 $165 $170 $63 $103 forward $160 $-1 #
edge $-1 $171 -21.766154020459254 $172 -15.408118794122089 $102 $173 forward 7 unknown #
loop $-1 $-1 $109 $64 #
plane-surface $-1 -14.61920269724817 -10.878367715473836 116.88963898385911 0.79863551827123203 0 0.60181501223851219 0.60181501223851219 0 -0.79863551827123203 forward_v I I I I #
loop $-1 $-1 $174 $41 #
coedge $-1 $107 $107 $108 $175 reversed $65 $-1 #
coedge $-1 $108 $108 $107 $175 forward $67 $-1 #
coedge $-1 $109 $109 $68 $110 forward $104 $-1 #
edge $-1 $176 0 $176 6.2831853071796004 $109 $177 forward 7 unknown #
loop $-1 $-1 $116 $69 #
plane-surface $-1 -14.61920269724817 -10.878367715473836 116.88963898385911 0.79863551827123203 0 0.60181501223851219 0.60181501223851219 0 -0.79863551827123203 forward_v I I I I #
loop $-1 $-1 $178 $44 #
coedge $-1 $114 $114 $115 $179 reversed $70 $-1 #
coedge $-1 $115 $115 $114 $179 forward $72 $-1 #
coedge $-1 $116 $116 $73 $117 forward $111 $-1 #
edge $-1 $180 0 $180 6.2831853071796004 $116 $181 forward 7 unknown #
face $-1 $182 $183 $25 $-1 $184 reversed single #
loop $-1 $-1 $185 $74 #
plane-surface $-1 -176.80506126767739 9.9154158193698692 99.986141811332999 0 -1 0 0.73135370988377701 0 -0.68199835119979291 forward_v I I I I #
coedge $-1 $186 $187 $188 $189 reversed $75 $-1 #
coedge $-1 $123 $77 $190 $191 reversed $48 $-1 #
coedge $-1 $77 $122 $186 $192 reversed $48 $-1 #
coedge $-1 $188 $193 $77 $125 forward $194 $-1 #
edge $-1 $195 16.609568202123853 $196 24.623080102171919 $124 $197 forward 7 unknown #
loop $-1 $-1 $131 $78 #
plane-surface $-1 -71.792962431714827 -2.1378689338975718 2.0607777989766021 -0.73135370988377701 0 0.68199835119979291 0.68199835119979291 0 0.73135370988377701 forward_v I I I I #
loop $-1 $-1 $198 $50 #
coedge $-1 $129 $129 $130 $199 reversed $79 $-1 #
coedge $-1 $130 $130 $129 $199 forward $81 $-1 #
coedge $-1 $131 $131 $82 $132 forward $126 $-1 #
edge $-1 $200 0 $200 6.2831853071796004 $131 $201 forward 7 unknown #
loop $-1 $-1 $138 $83 #
plane-surface $-1 -71.792962431714827 -2.1378689338975718 2.0607777989766021 -0.73135370988377701 0 0.68199835119979291 0.68199835119979291 0 0.73135370988377701 forward_v I I I I #
loop $-1 $-1 $202 $53 #
coedge $-1 $136 $136 $137 $203 reversed $84 $-1 #
coedge $-1 $137 $137 $136 $203 forward $86 $-1 #
coedge $-1 $138 $138 $87 $139 forward $133 $-1 #
edge $-1 $204 0 $204 6.2831853071796004 $138 $205 forward 7 unknown #
face $-1 $206 $207 $21 $-1 $208 reversed single #
loop $-1 $-1 $209 $88 #
plane-surface $-1 -71.792962431714841 0 0 1 0 0 0 0 -1 forward_v I I I I #
coedge $-1 $210 $151 $211 $212 forward $89 $-1 #
coedge $-1 $213 $91 $210 $214 forward $57 $-1 #
coedge $-1 $91 $213 $215 $216 forward $57 $-1 #
coedge $-1 $154 $153 $91 $147 reversed $155 $-1 #
edge $-1 $217 -48.956897786163189 $218 48.956897786163189 $146 $219 forward 7 unknown #
coedge $-1 $93 $92 $220 $221 forward $36 $-1 #
coedge $-1 $222 $223 $92 $150 reversed $207 $-1 #
edge $-1 $157 -71.792962431714841 $224 71.792962431714841 $149 $225 forward 7 unknown #
coedge $-1 $143 $226 $93 $152 reversed $89 $-1 #
edge $-1 $227 -71.792962431714841 $156 71.792962431714841 $151 $228 forward 7 unknown #
coedge $-1 $146 $94 $226 $229 forward $155 $-1 #
coedge $-1 $94 $146 $222 $230 reversed $155 $-1 #
loop $-1 $-1 $153 $206 #
vertex $-1 $95 $231 #
vertex $-1 $95 $232 #
straight-curve $-1 71.792962431714841 0 10.654217426781551 0 1 0 I I #
face $-1 $-1 $233 $22 $-1 $234 reversed single #
loop $-1 $-1 $102 $96 #
plane-surface $-1 0 0 10.654217426781551 0 0 1 1 0 0 forward_v I I I I #
coedge $-1 $235 $236 $237 $238 reversed $97 $-1 #
coedge $-1 $239 $99 $101 $169 forward $61 $-1 #
coedge $-1 $99 $239 $235 $240 forward $61 $-1 #
coedge $-1 $237 $102 $99 $166 forward $160 $-1 #
edge $-1 $172 -2.869608655420592 $241 13.747976370894428 $165 $242 forward 7 unknown #
coedge $-1 $243 $244 $100 $168 forward $233 $-1 #
edge $-1 $245 -99.43408259231127 $171 -90.996684629629513 $167 $246 forward 7 unknown #
edge $-1 $172 133.02115812109167 $245 143.58592486342965 $101 $247 forward 7 unknown #
coedge $-1 $102 $237 $243 $248 forward $160 $-1 #
vertex $-1 $168 $249 #
vertex $-1 $103 $250 #
straight-curve $-1 50.026808411255587 -2.5695752023163259 10.654217426781557 -1 0 0 I I #
coedge $-1 $174 $174 $-1 $251 reversed $106 $-1 #
edge $-1 $252 0 $252 6.2831853071796004 $107 $253 forward 7 unknown #
vertex $-1 $110 $254 #
ellipse-curve $-1 68.613944818546273 -14.439278792541344 6.4355184454406649 0.79863551827123203 0 0.60181501223851219 0.90272251835776829 0 -1.197953277406848 1 I I #
coedge $-1 $178 $178 $-1 $255 reversed $113 $-1 #
edge $-1 $256 0 $256 6.2831853071796004 $114 $257 forward 7 unknown #
vertex $-1 $117 $258 #
ellipse-curve $-1 68.613944818546273 -7.317456638406334 6.4355184454406649 0.79863551827123203 0 0.60181501223851219 0.90272251835776829 0 -1.197953277406848 1 I I #
face $-1 $-1 $194 $25 $-1 $259 forward single #
loop $-1 $-1 $260 $118 #
plane-surface $-1 -71.792962431714841 0 0 1 0 0 0 0 -1 forward_v I I I I #
coedge $-1 $261 $262 $263 $264 reversed $119 $-1 #
coedge $-1 $265 $121 $123 $192 forward $75 $-1 #
coedge $-1 $121 $265 $261 $266 forward $75 $-1 #
coedge $-1 $263 $124 $121 $189 forward $194 $-1 #
edge $-1 $196 -13.122219220216227 $267 10.984350286318655 $188 $268 forward 7 unknown #
coedge $-1 $269 $270 $122 $191 forward $183 $-1 #
edge $-1 $271 -47.932293106689912 $195 -39.33885347888495 $190 $272 forward 7 unknown #
edge $-1 $196 -11.750045855610104 $271 2.0734513383776317e-014 $123 $273 forward 7 unknown #
coedge $-1 $124 $263 $269 $274 forward $194 $-1 #
loop $-1 $-1 $263 $182 #
vertex $-1 $191 $275 #
vertex $-1 $125 $276 #
straight-curve $-1 -88.402530633838694 -14.191153687165013 10.65421742678155 1 0 0 I I #
coedge $-1 $198 $198 $-1 $277 reversed $128 $-1 #
edge $-1 $278 0 $278 6.2831853071796004 $129 $279 forward 7 unknown #
vertex $-1 $132 $280 #
ellipse-curve $-1 -67.786206481690812 -7.303562399583619 6.357497612879067 -0.73135370988377701 0 0.68199835119979291 0.68199835119979291 0 0.73135370988377701 1 I I #
coedge $-1 $202 $202 $-1 $281 reversed $135 $-1 #
edge $-1 $282 0 $282 6.2831853071796004 $136 $283 forward 7 unknown #
vertex $-1 $139 $284 #
ellipse-curve $-1 -67.786206481690812 3.0278245317884753 6.357497612879067 -0.73135370988377701 0 0.68199835119979291 0.68199835119979291 0 0.73135370988377701 1 I I #
face $-1 $-1 $155 $21 $-1 $285 reversed single #
loop $-1 $-1 $222 $140 #
plane-surface $-1 0 48.956897786163189 0 0 -1 0 0 0 -1 forward_v I I I I #
coedge $-1 $286 $220 $223 $287 forward $141 $-1 #
coedge $-1 $226 $143 $144 $214 reversed $89 $-1 #
coedge $-1 $220 $286 $143 $212 reversed $141 $-1 #
edge $-1 $227 -10.654217426781551 $288 10.654217426781551 $211 $289 forward 7 unknown #
coedge $-1 $145 $144 $286 $290 forward $57 $-1 #
edge $-1 $218 -71.792962431714841 $288 71.792962431714841 $210 $291 forward 7 unknown #
coedge $-1 $223 $222 $145 $216 reversed $207 $-1 #
edge $-1 $292 -71.792962431714841 $217 71.792962431714841 $215 $293 forward 7 unknown #
vertex $-1 $147 $294 #
vertex $-1 $229 $295 #
straight-curve $-1 71.792962431714841 0 -10.654217426781551 0 -1 0 I I #
coedge $-1 $209 $211 $148 $221 reversed $141 $-1 #
edge $-1 $224 -48.956897786163189 $227 48.956897786163189 $220 $296 forward 7 unknown #
coedge $-1 $215 $149 $154 $230 forward $207 $-1 #
coedge $-1 $149 $215 $209 $287 reversed $207 $-1 #
vertex $-1 $150 $297 #
straight-curve $-1 0 48.956897786163189 10.654217426781551 -1 0 0 I I #
coedge $-1 $151 $210 $153 $229 reversed $89 $-1 #
vertex $-1 $221 $298 #
straight-curve $-1 0 -48.956897786163189 10.654217426781551 1 0 0 I I #
edge $-1 $156 -10.654217426781551 $218 10.654217426781551 $153 $299 forward 7 unknown #
edge $-1 $157 -10.654217426781551 $217 10.654217426781551 $154 $300 forward 7 unknown #
point $-1 71.792962431714841 -48.956897786163189 10.654217426781551 #
point $-1 71.792962431714841 48.956897786163189 10.654217426781551 #
loop $-1 $-1 $167 $159 #
plane-surface $-1 71.792962431714841 0 0 -1 0 0 0 0 1 forward_v I I I I #
coedge $-1 $236 $162 $164 $240 reversed $97 $-1 #
coedge $-1 $162 $235 $301 $302 reversed $97 $-1 #
coedge $-1 $170 $165 $162 $238 forward $160 $-1 #
edge $-1 $241 15.408118794122089 $303 21.766154020459254 $237 $304 forward 7 unknown #
coedge $-1 $164 $163 $244 $305 reversed $61 $-1 #
edge $-1 $306 -143.58592486342965 $241 -133.02115812109167 $235 $307 forward 7 unknown #
vertex $-1 $166 $308 #
straight-curve $-1 65.434927205377676 -5.4391838577369178 10.654217426781557 0 -1 0 I I #
coedge $-1 $301 $167 $170 $248 reversed $233 $-1 #
coedge $-1 $167 $301 $239 $305 forward $233 $-1 #
vertex $-1 $168 $309 #
straight-curve $-1 71.792962431714841 -2.5695752023163259 101.65090205641107 0 0 1 I I #
straight-curve $-1 -14.61920269724817 -2.5695752023163259 116.88963898385911 0.60181501223851219 0 -0.79863551827123203 I I #
edge $-1 $303 -19.187160228631345 $171 -2.5695752023163259 $243 $310 forward 7 unknown #
point $-1 71.792962431714841 -2.5695752023163259 10.654217426781551 #
point $-1 65.434927205377676 -2.5695752023163259 10.654217426781557 #
edge $-1 $311 1 $311 0 $174 $-1 forward 7 unknown #
vertex $-1 $175 $312 #
ellipse-curve $-1 67.051856446593916 -14.439278792541344 5.2584004596051352 0.79863551827123203 0 0.60181501223851219 0.90272251835776829 0 -1.197953277406848 1 I I #
point $-1 69.516667336904035 -14.439278792541344 5.2375651680338038 #
edge $-1 $313 1 $313 0 $178 $-1 forward 7 unknown #
vertex $-1 $179 $314 #
ellipse-curve $-1 67.051856446593916 -7.317456638406334 5.2584004596051352 0.79863551827123203 0 0.60181501223851219 0.90272251835776829 0 -1.197953277406848 1 I I #
point $-1 69.516667336904035 -7.317456638406334 5.2375651680338038 #
plane-surface $-1 0 0 10.654217426781551 0 0 1 1 0 0 forward_v I I I I #
coedge $-1 $270 $269 $262 $315 forward $183 $-1 #
coedge $-1 $262 $185 $187 $266 reversed $119 $-1 #
coedge $-1 $185 $261 $260 $315 reversed $119 $-1 #
coedge $-1 $193 $188 $185 $264 forward $194 $-1 #
edge $-1 $267 -24.623080102171919 $316 -16.609568202123853 $263 $317 forward 7 unknown #
coedge $-1 $187 $186 $270 $318 reversed $75 $-1 #
edge $-1 $319 -2.0734513383776317e-014 $267 11.750045855610104 $261 $320 forward 7 unknown #
vertex $-1 $189 $321 #
straight-curve $-1 -63.779450531666775 -1.0689344669487859 10.654217426781551 0 1 0 I I #
coedge $-1 $260 $190 $193 $274 reversed $183 $-1 #
coedge $-1 $190 $260 $265 $318 forward $183 $-1 #
vertex $-1 $191 $322 #
straight-curve $-1 -71.792962431714841 -14.191153687165013 49.993070905666499 0 0 1 I I #
straight-curve $-1 -71.792962431714827 -14.191153687165013 2.0607777989766021 -0.68199835119979291 0 -0.73135370988377701 I I #
edge $-1 $316 -9.9154158193698692 $195 14.191153687165013 $269 $323 forward 7 unknown #
point $-1 -71.792962431714841 -14.191153687165013 10.654217426781551 #
point $-1 -63.779450531666775 -14.191153687165013 10.654217426781551 #
edge $-1 $324 1 $324 0 $198 $-1 forward 7 unknown #
vertex $-1 $199 $325 #
ellipse-curve $-1 -66.462529252629338 -7.303562399583619 5.1231486575916376 -0.73135370988377701 0 0.68199835119979291 0.68199835119979291 0 0.73135370988377701 1 I I #
point $-1 -67.104208130491031 -7.303562399583619 7.08885132276286 #
edge $-1 $326 1 $326 0 $202 $-1 forward 7 unknown #
vertex $-1 $203 $327 #
ellipse-curve $-1 -66.462529252629338 3.0278245317884753 5.1231486575916376 -0.73135370988377701 0 0.68199835119979291 0.68199835119979291 0 0.73135370988377701 1 I I #
point $-1 -67.104208130491031 3.0278245317884753 7.08885132276286 #
plane-surface $-1 71.792962431714841 0 0 -1 0 0 0 0 1 forward_v I I I I #
coedge $-1 $211 $209 $213 $290 reversed $141 $-1 #
edge $-1 $224 -10.654217426781551 $292 10.654217426781551 $223 $328 forward 7 unknown #
vertex $-1 $290 $329 #
straight-curve $-1 -71.792962431714841 -48.956897786163189 0 0 0 -1 I I #
edge $-1 $288 -48.956897786163189 $292 48.956897786163189 $286 $330 forward 7 unknown #
straight-curve $-1 0 -48.956897786163189 -10.654217426781551 -1 0 0 I I #
vertex $-1 $216 $331 #
straight-curve $-1 0 48.956897786163189 -10.654217426781551 1 0 0 I I #
point $-1 71.792962431714841 48.956897786163189 -10.654217426781551 #
point $-1 71.792962431714841 -48.956897786163189 -10.654217426781551 #
straight-curve $-1 -71.792962431714841 0 10.654217426781551 0 -1 0 I I #
point $-1 -71.792962431714841 48.956897786163189 10.654217426781551 #
point $-1 -71.792962431714841 -48.956897786163189 10.654217426781551 #
straight-curve $-1 71.792962431714841 -48.956897786163189 0 0 0 -1 I I #
straight-curve $-1 71.792962431714841 48.956897786163189 0 0 0 -1 I I #
coedge $-1 $244 $243 $236 $302 forward $233 $-1 #
edge $-1 $303 90.996684629629513 $306 99.43408259231127 $301 $332 forward 7 unknown #
vertex $-1 $248 $333 #
straight-curve $-1 50.026808411255587 -19.187160228631345 10.654217426781557 1 0 0 I I #
edge $-1 $306 -13.747976370894428 $245 2.869608655420592 $244 $334 forward 7 unknown #
vertex $-1 $305 $335 #
straight-curve $-1 -14.61920269724817 -19.187160228631345 116.88963898385911 -0.60181501223851219 0 0.79863551827123203 I I #
point $-1 65.434927205377676 -19.187160228631345 10.654217426781557 #
point $-1 71.792962431714841 -2.5695752023163259 2.2168194640997996 #
straight-curve $-1 71.792962431714841 0 10.654217426781551 0 1 0 I I #
vertex $-1 $251 $336 #
point $-1 67.954578964951693 -14.439278792541344 4.0604471821982875 #
vertex $-1 $255 $337 #
point $-1 67.954578964951693 -7.317456638406334 4.0604471821982875 #
edge $-1 $316 39.33885347888495 $319 47.932293106689912 $260 $338 forward 7 unknown #
vertex $-1 $274 $339 #
straight-curve $-1 -88.402530633838694 9.9154158193698692 10.65421742678155 -1 0 0 I I #
edge $-1 $319 -10.984350286318655 $271 13.122219220216227 $270 $340 forward 7 unknown #
vertex $-1 $318 $341 #
straight-curve $-1 -71.792962431714827 9.9154158193698692 2.0607777989766021 0.68199835119979291 0 0.73135370988377701 I I #
point $-1 -63.779450531666775 9.9154158193698692 10.654217426781551 #
point $-1 -71.792962431714841 -14.191153687165013 2.060777798976587 #
straight-curve $-1 -71.792962431714841 0 10.654217426781551 0 -1 0 I I #
vertex $-1 $277 $342 #
point $-1 -65.780530901429557 -7.303562399583619 5.8545023674754146 #
vertex $-1 $281 $343 #
point $-1 -65.780530901429557 3.0278245317884753 5.8545023674754146 #
straight-curve $-1 -71.792962431714841 48.956897786163189 0 0 0 -1 I I #
point $-1 -71.792962431714841 -48.956897786163189 -10.654217426781551 #
straight-curve $-1 -71.792962431714841 0 -10.654217426781551 0 1 0 I I #
point $-1 -71.792962431714841 48.956897786163189 -10.654217426781551 #
straight-curve $-1 71.792962431714841 -19.187160228631345 101.65090205641107 0 0 -1 I I #
point $-1 71.792962431714841 -19.187160228631345 10.654217426781551 #
straight-curve $-1 71.792962431714841 -5.4391838577369178 2.2168194640997925 0 1 0 I I #
point $-1 71.792962431714841 -19.187160228631345 2.2168194640997996 #
point $-1 65.853903169187078 -14.439278792541344 4.3556779412473672 #
point $-1 65.853903169187078 -7.317456638406334 4.3556779412473672 #
straight-curve $-1 -71.792962431714841 9.9154158193698692 49.993070905666499 0 0 -1 I I #
point $-1 -71.792962431714841 9.9154158193698692 10.654217426781551 #
straight-curve $-1 -71.792962431714841 -1.0689344669487859 2.0607777989765879 0 -1 0 I I #
point $-1 -71.792962431714841 9.9154158193698692 2.060777798976587 #
point $-1 -65.731175542745575 -7.303562399583619 4.4411503063918447 #
point $-1 -65.731175542745575 3.0278245317884753 4.4411503063918447 #
End-of-ACIS-data 