500 0 5 0           
7 Unknown 11 ACIS 5.0 NT 24 Fri Mar 26 02:50:30 1999 
-1 9.9999999999999995e-007 1e-010 
body $-1 $5 $-1 $6 #
body $-1 $7 $-1 $8 #
body $-1 $9 $-1 $10 #
body $-1 $11 $-1 $12 #
body $-1 $13 $-1 $14 #
lump $-1 $-1 $15 $0 #
transform $-1 1 0 0 0 1 0 0 0 1 70.780968657490774 47.710783859919999 22.142189369775 1 rotate no_reflect no_shear #
lump $-1 $-1 $16 $1 #
transform $-1 1 0 0 0 1 0 0 0 1 70.780968657490774 47.710783859919999 22.142189369775 1 rotate no_reflect no_shear #
lump $-1 $-1 $17 $2 #
transform $-1 1 0 0 0 1 0 0 0 1 70.780968657490774 47.710783859919999 22.142189369775 1 rotate no_reflect no_shear #
lump $-1 $-1 $18 $3 #
transform $-1 1 0 0 0 1 0 0 0 1 70.780968657490774 47.710783859919999 22.142189369775 1 rotate no_reflect no_shear #
lump $-1 $-1 $19 $4 #
transform $-1 1 0 0 0 1 0 0 0 1 70.780968657490774 47.710783859919999 22.142189369775 1 rotate no_reflect no_shear #
shell $-1 $-1 $-1 $20 $-1 $5 #
shell $-1 $-1 $-1 $21 $-1 $7 #
shell $-1 $-1 $-1 $22 $-1 $9 #
shell $-1 $-1 $-1 $23 $-1 $11 #
shell $-1 $-1 $-1 $24 $-1 $13 #
face $-1 $25 $26 $15 $-1 $27 forward single #
face $-1 $28 $29 $16 $-1 $30 reversed single #
face $-1 $31 $32 $17 $-1 $33 forward single #
face $-1 $34 $35 $18 $-1 $36 forward single #
face $-1 $37 $38 $19 $-1 $39 forward single #
face $-1 $40 $41 $15 $-1 $42 reversed single #
loop $-1 $-1 $43 $20 #
plane-surface $-1 0 0 22.142189369775 0 0 1 1 0 0 forward_v I I I I #
face $-1 $44 $45 $16 $-1 $46 reversed single #
loop $-1 $-1 $47 $21 #
plane-surface $-1 -42.275420540601246 -41.784174663318773 99.916885452738555 0.6018150307709319 0 0.79863550430605224 0.79863550430605224 0 -0.6018150307709319 forward_v I I I I #
face $-1 $48 $49 $17 $-1 $50 forward single #
loop $-1 $51 $52 $22 #
cone-surface $-1 65.322427664280752 -45.340140181279509 17.721722430205588 -0.6018150307709319 0 -0.79863550430605224 0.39931775215302612 0 -0.30090751538546595 1 I I 0 1 0.5 forward I I I I #
face $-1 $53 $54 $18 $-1 $55 forward single #
loop $-1 $56 $57 $23 #
cone-surface $-1 65.322427664280752 -41.784174663318773 17.721722430205588 -0.6018150307709319 0 -0.79863550430605224 0.39931775215302612 0 -0.30090751538546595 1 I I 0 1 0.5 forward I I I I #
face $-1 $58 $59 $19 $-1 $60 forward single #
loop $-1 $61 $62 $24 #
cone-surface $-1 65.322427664280752 -38.228209145358036 17.721722430205588 -0.6018150307709319 0 -0.79863550430605224 0.39931775215302612 0 -0.30090751538546595 1 I I 0 1 0.5 forward I I I I #
face $-1 $63 $64 $15 $-1 $65 reversed single #
loop $-1 $-1 $66 $25 #
plane-surface $-1 0 0 -22.142189369775 0 0 1 1 0 0 forward_v I I I I #
coedge $-1 $67 $68 $69 $70 forward $26 $-1 #
face $-1 $71 $72 $16 $-1 $73 forward single #
loop $-1 $-1 $74 $28 #
plane-surface $-1 42.918681120607104 -35.857565466717546 212.9732746508306 0 -1 0 -0.6018150307709319 0 -0.79863550430605224 forward_v I I I I #
coedge $-1 $75 $76 $77 $78 reversed $29 $-1 #
face $-1 $-1 $79 $17 $-1 $80 forward single #
loop $-1 $81 $82 $31 #
cone-surface $-1 64.63637469171988 -45.340140181279509 16.811299403682067 -0.6018150307709319 0 -0.79863550430605224 0.19965887607651306 0 -0.15045375769273298 1 I I -0.70710678118654746 0.70710678118654746 0.25 forward I I I I #
loop $-1 $-1 $83 $22 #
coedge $-1 $52 $52 $84 $85 reversed $32 $-1 #
face $-1 $-1 $86 $18 $-1 $87 forward single #
loop $-1 $88 $89 $34 #
cone-surface $-1 64.63637469171988 -41.784174663318773 16.811299403682067 -0.6018150307709319 0 -0.79863550430605224 0.19965887607651306 0 -0.15045375769273298 1 I I -0.70710678118654746 0.70710678118654746 0.25 forward I I I I #
loop $-1 $-1 $90 $23 #
coedge $-1 $57 $57 $91 $92 reversed $35 $-1 #
face $-1 $-1 $93 $19 $-1 $94 forward single #
loop $-1 $95 $96 $37 #
cone-surface $-1 64.63637469171988 -38.228209145358036 16.811299403682067 -0.6018150307709319 0 -0.79863550430605224 0.19965887607651306 0 -0.15045375769273298 1 I I -0.70710678118654746 0.70710678118654746 0.25 forward I I I I #
loop $-1 $-1 $97 $24 #
coedge $-1 $62 $62 $98 $99 reversed $38 $-1 #
face $-1 $100 $101 $15 $-1 $102 reversed single #
loop $-1 $-1 $103 $40 #
plane-surface $-1 0 -47.710783859919999 0 0 1 0 0 0 1 forward_v I I I I #
coedge $-1 $104 $105 $106 $107 forward $41 $-1 #
coedge $-1 $108 $43 $109 $110 forward $26 $-1 #
coedge $-1 $43 $108 $111 $112 forward $26 $-1 #
coedge $-1 $113 $114 $43 $70 reversed $115 $-1 #
edge $-1 $116 -47.710783859919999 $117 47.710783859919999 $69 $118 forward 7 unknown #
face $-1 $119 $120 $16 $-1 $121 reversed single #
loop $-1 $-1 $122 $44 #
plane-surface $-1 0 0 22.142189369775 0 0 1 1 0 0 forward_v I I I I #
coedge $-1 $123 $124 $125 $126 reversed $45 $-1 #
coedge $-1 $127 $47 $128 $129 reversed $29 $-1 #
coedge $-1 $47 $127 $123 $130 forward $29 $-1 #
coedge $-1 $125 $131 $47 $78 forward $132 $-1 #
edge $-1 $133 -26.818696528260613 $134 -14.965478135058159 $77 $135 forward 7 unknown #
loop $-1 $-1 $84 $48 #
plane-surface $-1 -42.275420540601246 -41.784174663318773 99.916885452738555 0.6018150307709319 0 0.79863550430605224 0.79863550430605224 0 -0.6018150307709319 forward_v I I I I #
loop $-1 $-1 $136 $31 #
coedge $-1 $82 $82 $83 $137 reversed $49 $-1 #
coedge $-1 $83 $83 $82 $137 forward $51 $-1 #
coedge $-1 $84 $84 $52 $85 forward $79 $-1 #
edge $-1 $138 0 $138 6.2831853071796004 $84 $139 forward 7 unknown #
loop $-1 $-1 $91 $53 #
plane-surface $-1 -42.275420540601246 -41.784174663318773 99.916885452738555 0.6018150307709319 0 0.79863550430605224 0.79863550430605224 0 -0.6018150307709319 forward_v I I I I #
loop $-1 $-1 $140 $34 #
coedge $-1 $89 $89 $90 $141 reversed $54 $-1 #
coedge $-1 $90 $90 $89 $141 forward $56 $-1 #
coedge $-1 $91 $91 $57 $92 forward $86 $-1 #
edge $-1 $142 0 $142 6.2831853071796004 $91 $143 forward 7 unknown #
loop $-1 $-1 $98 $58 #
plane-surface $-1 -42.275420540601246 -41.784174663318773 99.916885452738555 0.6018150307709319 0 0.79863550430605224 0.79863550430605224 0 -0.6018150307709319 forward_v I I I I #
loop $-1 $-1 $144 $37 #
coedge $-1 $96 $96 $97 $145 reversed $59 $-1 #
coedge $-1 $97 $97 $96 $145 forward $61 $-1 #
coedge $-1 $98 $98 $62 $99 forward $93 $-1 #
edge $-1 $146 0 $146 6.2831853071796004 $98 $147 forward 7 unknown #
face $-1 $148 $149 $15 $-1 $150 reversed single #
loop $-1 $-1 $151 $63 #
plane-surface $-1 -70.780968657490774 0 0 1 0 0 0 0 -1 forward_v I I I I #
coedge $-1 $152 $111 $153 $154 forward $64 $-1 #
coedge $-1 $155 $66 $152 $156 forward $41 $-1 #
coedge $-1 $66 $155 $157 $158 forward $41 $-1 #
coedge $-1 $114 $113 $66 $107 reversed $115 $-1 #
edge $-1 $159 -47.710783859919999 $160 47.710783859919999 $106 $161 forward 7 unknown #
coedge $-1 $68 $67 $162 $163 forward $26 $-1 #
coedge $-1 $164 $165 $67 $110 reversed $149 $-1 #
edge $-1 $117 -70.780968657490774 $166 70.780968657490774 $109 $167 forward 7 unknown #
coedge $-1 $103 $168 $68 $112 reversed $64 $-1 #
edge $-1 $169 -70.780968657490774 $116 70.780968657490774 $111 $170 forward 7 unknown #
coedge $-1 $106 $69 $168 $171 forward $115 $-1 #
coedge $-1 $69 $106 $164 $172 reversed $115 $-1 #
loop $-1 $-1 $113 $148 #
vertex $-1 $70 $173 #
vertex $-1 $70 $174 #
straight-curve $-1 70.780968657490774 0 22.142189369775 0 1 0 I I #
face $-1 $-1 $132 $16 $-1 $175 reversed single #
loop $-1 $-1 $128 $71 #
plane-surface $-1 0 -47.710783859919999 0 0 1 0 0 0 1 forward_v I I I I #
coedge $-1 $176 $177 $124 $178 forward $72 $-1 #
coedge $-1 $124 $74 $76 $130 reversed $45 $-1 #
coedge $-1 $74 $123 $122 $178 reversed $45 $-1 #
coedge $-1 $179 $77 $74 $126 forward $132 $-1 #
edge $-1 $134 -91.763853533885083 $180 -84.344447955640305 $125 $181 forward 7 unknown #
coedge $-1 $76 $75 $176 $182 reversed $29 $-1 #
coedge $-1 $183 $184 $75 $129 forward $120 $-1 #
edge $-1 $185 82.286487690742803 $133 94.614869666747012 $128 $186 forward 7 unknown #
edge $-1 $187 129.23355533897734 $134 141.56193731498155 $123 $188 forward 7 unknown #
coedge $-1 $77 $179 $183 $189 forward $132 $-1 #
loop $-1 $-1 $125 $119 #
vertex $-1 $129 $190 #
vertex $-1 $78 $191 #
straight-curve $-1 70.780968657490774 -20.892087331659386 14.722783791530226 0 1 0 I I #
coedge $-1 $136 $136 $-1 $192 reversed $81 $-1 #
edge $-1 $193 0 $193 6.2831853071796004 $82 $194 forward 7 unknown #
vertex $-1 $85 $195 #
ellipse-curve $-1 65.858026879148895 -45.340140181279509 18.432486580652601 0.6018150307709319 0 0.79863550430605224 0.39931775215302612 0 -0.30090751538546595 1 I I #
coedge $-1 $140 $140 $-1 $196 reversed $88 $-1 #
edge $-1 $197 0 $197 6.2831853071796004 $89 $198 forward 7 unknown #
vertex $-1 $92 $199 #
ellipse-curve $-1 65.858026879148895 -41.784174663318773 18.432486580652601 0.6018150307709319 0 0.79863550430605224 0.39931775215302612 0 -0.30090751538546595 1 I I #
coedge $-1 $144 $144 $-1 $200 reversed $95 $-1 #
edge $-1 $201 0 $201 6.2831853071796004 $96 $202 forward 7 unknown #
vertex $-1 $99 $203 #
ellipse-curve $-1 65.858026879148895 -38.228209145358036 18.432486580652601 0.6018150307709319 0 0.79863550430605224 0.39931775215302612 0 -0.30090751538546595 1 I I #
face $-1 $-1 $115 $15 $-1 $204 reversed single #
loop $-1 $-1 $164 $100 #
plane-surface $-1 0 47.710783859919999 0 0 -1 0 0 0 -1 forward_v I I I I #
coedge $-1 $205 $162 $165 $206 forward $101 $-1 #
coedge $-1 $168 $103 $104 $156 reversed $64 $-1 #
coedge $-1 $162 $205 $103 $154 reversed $101 $-1 #
edge $-1 $169 -22.142189369775 $207 22.142189369775 $153 $208 forward 7 unknown #
coedge $-1 $105 $104 $205 $209 forward $41 $-1 #
edge $-1 $160 -70.780968657490774 $207 70.780968657490774 $152 $210 forward 7 unknown #
coedge $-1 $165 $164 $105 $158 reversed $149 $-1 #
edge $-1 $211 -70.780968657490774 $159 70.780968657490774 $157 $212 forward 7 unknown #
vertex $-1 $107 $213 #
vertex $-1 $171 $214 #
straight-curve $-1 70.780968657490774 0 -22.142189369775 0 -1 0 I I #
coedge $-1 $151 $153 $108 $163 reversed $101 $-1 #
edge $-1 $166 -47.710783859919999 $169 47.710783859919999 $162 $215 forward 7 unknown #
coedge $-1 $157 $109 $114 $172 forward $149 $-1 #
coedge $-1 $109 $157 $151 $206 reversed $149 $-1 #
vertex $-1 $110 $216 #
straight-curve $-1 0 47.710783859919999 22.142189369775 -1 0 0 I I #
coedge $-1 $111 $152 $113 $171 reversed $64 $-1 #
vertex $-1 $163 $217 #
straight-curve $-1 0 -47.710783859919999 22.142189369775 1 0 0 I I #
edge $-1 $116 -22.142189369775 $160 22.142189369775 $113 $218 forward 7 unknown #
edge $-1 $117 -22.142189369775 $159 22.142189369775 $114 $219 forward 7 unknown #
point $-1 70.780968657490774 -47.710783859919999 22.142189369775 #
point $-1 70.780968657490774 47.710783859919999 22.142189369775 #
plane-surface $-1 70.780968657490774 0 0 -1 0 0 0 0 1 forward_v I I I I #
coedge $-1 $220 $122 $127 $182 forward $72 $-1 #
coedge $-1 $122 $220 $179 $221 forward $72 $-1 #
edge $-1 $180 -49.321628097187222 $187 -39.475744540503463 $122 $222 forward 7 unknown #
coedge $-1 $131 $125 $177 $221 reversed $132 $-1 #
vertex $-1 $126 $223 #
straight-curve $-1 70.780968657490774 -35.857565466717546 106.4866373254153 0 0 1 I I #
edge $-1 $187 14.965478135058159 $185 26.818696528260613 $176 $224 forward 7 unknown #
coedge $-1 $184 $128 $131 $189 reversed $120 $-1 #
coedge $-1 $128 $183 $220 $225 reversed $120 $-1 #
vertex $-1 $225 $226 #
straight-curve $-1 -4.781825493663117 -47.710783859919999 71.66343449141128 0.79863550430605224 0 -0.6018150307709319 I I #
vertex $-1 $182 $227 #
straight-curve $-1 -42.275420540601246 -35.857565466717546 99.916885452738555 0.79863550430605224 0 -0.6018150307709319 I I #
edge $-1 $228 -22.142189369775 $133 -14.722783791530228 $131 $229 forward 7 unknown #
point $-1 70.780968657490774 -47.710783859919999 14.722783791530228 #
point $-1 70.780968657490774 -35.857565466717546 14.722783791530219 #
edge $-1 $230 1 $230 0 $136 $-1 forward 7 unknown #
vertex $-1 $137 $231 #
ellipse-curve $-1 64.78682844941261 -45.340140181279509 17.010958279758579 0.6018150307709319 0 0.79863550430605224 0.39931775215302612 0 -0.30090751538546595 1 I I #
point $-1 66.257344631301919 -45.340140181279509 18.131579065267125 #
edge $-1 $232 1 $232 0 $140 $-1 forward 7 unknown #
vertex $-1 $141 $233 #
ellipse-curve $-1 64.78682844941261 -41.784174663318773 17.010958279758579 0.6018150307709319 0 0.79863550430605224 0.39931775215302612 0 -0.30090751538546595 1 I I #
point $-1 66.257344631301919 -41.784174663318773 18.131579065267125 #
edge $-1 $234 1 $234 0 $144 $-1 forward 7 unknown #
vertex $-1 $145 $235 #
ellipse-curve $-1 64.78682844941261 -38.228209145358036 17.010958279758579 0.6018150307709319 0 0.79863550430605224 0.39931775215302612 0 -0.30090751538546595 1 I I #
point $-1 66.257344631301919 -38.228209145358036 18.131579065267125 #
plane-surface $-1 70.780968657490774 0 0 -1 0 0 0 0 1 forward_v I I I I #
coedge $-1 $153 $151 $155 $209 reversed $101 $-1 #
edge $-1 $166 -22.142189369775 $211 22.142189369775 $165 $236 forward 7 unknown #
vertex $-1 $209 $237 #
straight-curve $-1 -70.780968657490774 -47.710783859919999 0 0 0 -1 I I #
edge $-1 $207 -47.710783859919999 $211 47.710783859919999 $205 $238 forward 7 unknown #
straight-curve $-1 0 -47.710783859919999 -22.142189369775 -1 0 0 I I #
vertex $-1 $158 $239 #
straight-curve $-1 0 47.710783859919999 -22.142189369775 1 0 0 I I #
point $-1 70.780968657490774 47.710783859919999 -22.142189369775 #
point $-1 70.780968657490774 -47.710783859919999 -22.142189369775 #
straight-curve $-1 -70.780968657490774 0 22.142189369775 0 -1 0 I I #
point $-1 -70.780968657490774 47.710783859919999 22.142189369775 #
point $-1 -70.780968657490774 -47.710783859919999 22.142189369775 #
straight-curve $-1 70.780968657490774 -47.710783859919999 0 0 0 -1 I I #
straight-curve $-1 70.780968657490774 47.710783859919999 0 0 0 -1 I I #
coedge $-1 $177 $176 $184 $225 forward $72 $-1 #
edge $-1 $228 -47.710783859919999 $180 -35.857565466717546 $179 $240 forward 7 unknown #
straight-curve $-1 21.459340560303552 -35.857565466717546 22.142189369774997 -1 0 0 I I #
point $-1 70.780968657490774 -35.857565466717546 22.142189369775 #
straight-curve $-1 60.935085100807015 -20.892087331659386 22.142189369774989 0 -1 0 I I #
edge $-1 $185 60.935085100807015 $228 70.780968657490774 $184 $241 forward 7 unknown #
point $-1 60.935085100807015 -47.710783859919999 22.142189369774997 #
point $-1 60.935085100807015 -35.857565466717546 22.142189369774997 #
vertex $-1 $221 $242 #
straight-curve $-1 70.780968657490774 -47.710783859919999 0 0 0 -1 I I #
vertex $-1 $192 $243 #
point $-1 65.186146201565634 -45.340140181279509 16.710050764373115 #
vertex $-1 $196 $244 #
point $-1 65.186146201565634 -41.784174663318773 16.710050764373115 #
vertex $-1 $200 $245 #
point $-1 65.186146201565634 -38.228209145358036 16.710050764373115 #
straight-curve $-1 -70.780968657490774 47.710783859919999 0 0 0 -1 I I #
point $-1 -70.780968657490774 -47.710783859919999 -22.142189369775 #
straight-curve $-1 -70.780968657490774 0 -22.142189369775 0 1 0 I I #
point $-1 -70.780968657490774 47.710783859919999 -22.142189369775 #
straight-curve $-1 70.780968657490774 0 22.142189369775 0 1 0 I I #
straight-curve $-1 0 -47.710783859919999 22.142189369775 1 0 0 I I #
point $-1 70.780968657490774 -47.710783859919999 22.142189369775 #
point $-1 64.485920934027149 -45.340140181279509 16.611640527605555 #
point $-1 64.485920934027149 -41.784174663318773 16.611640527605555 #
point $-1 64.485920934027149 -38.228209145358036 16.611640527605555 #
End-of-ACIS-data 