500 0 6 0           
7 Unknown 11 ACIS 5.0 NT 24 Fri Mar 26 15:22:06 1999 
-1 9.9999999999999995e-007 1e-010 
body $-1 $6 $-1 $7 #
body $-1 $8 $-1 $9 #
body $-1 $10 $-1 $11 #
body $-1 $12 $-1 $13 #
body $-1 $14 $-1 $15 #
body $-1 $16 $-1 $17 #
lump $-1 $-1 $18 $0 #
transform $-1 1 0 0 0 1 0 0 0 1 52.446668904690696 24.576643178528833 8.8796033589271879 1 rotate no_reflect no_shear #
lump $-1 $-1 $19 $1 #
transform $-1 1 0 0 0 1 0 0 0 1 52.446668904690696 24.576643178528833 8.8796033589271879 1 rotate no_reflect no_shear #
lump $-1 $-1 $20 $2 #
transform $-1 1 0 0 0 1 0 0 0 1 52.446668904690696 24.576643178528833 8.8796033589271879 1 rotate no_reflect no_shear #
lump $-1 $-1 $21 $3 #
transform $-1 1 0 0 0 1 0 0 0 1 52.446668904690696 24.576643178528833 8.8796033589271879 1 rotate no_reflect no_shear #
lump $-1 $-1 $22 $4 #
transform $-1 1 0 0 0 1 0 0 0 1 52.446668904690696 24.576643178528833 8.8796033589271879 1 rotate no_reflect no_shear #
lump $-1 $-1 $23 $5 #
transform $-1 1 0 0 0 1 0 0 0 1 52.446668904690696 24.576643178528833 8.8796033589271879 1 rotate no_reflect no_shear #
shell $-1 $-1 $-1 $24 $-1 $6 #
shell $-1 $-1 $-1 $25 $-1 $8 #
shell $-1 $-1 $-1 $26 $-1 $10 #
shell $-1 $-1 $-1 $27 $-1 $12 #
shell $-1 $-1 $-1 $28 $-1 $14 #
shell $-1 $-1 $-1 $29 $-1 $16 #
face $-1 $30 $31 $18 $-1 $32 forward single #
face $-1 $33 $34 $19 $-1 $35 reversed single #
face $-1 $36 $37 $20 $-1 $38 reversed single #
face $-1 $39 $40 $21 $-1 $41 forward single #
face $-1 $42 $43 $22 $-1 $44 forward single #
face $-1 $45 $46 $23 $-1 $47 forward single #
face $-1 $48 $49 $18 $-1 $50 reversed single #
loop $-1 $-1 $51 $24 #
plane-surface $-1 0 0 8.8796033589271879 0 0 1 1 0 0 forward_v I I I I #
face $-1 $52 $53 $19 $-1 $54 reversed single #
loop $-1 $-1 $55 $25 #
plane-surface $-1 -49.69499820431006 -20.132725126647195 0 1 0 0 0 0 -1 forward_v I I I I #
face $-1 $56 $57 $20 $-1 $58 reversed single #
loop $-1 $-1 $59 $26 #
plane-surface $-1 29.240934408236384 16.68913050944014 151.04997518938259 0 1 0 0.5877852598018023 0 0.80901698891910034 forward_v I I I I #
face $-1 $60 $61 $21 $-1 $62 forward single #
loop $-1 $63 $64 $27 #
cone-surface $-1 49.162670365471143 18.266633043257876 6.3026557157027465 -0.5877852598018023 0 -0.80901698891910034 0.20225424722977509 0 -0.14694631495045057 1 I I 0 1 0.25 forward I I I I #
face $-1 $65 $66 $22 $-1 $67 forward single #
loop $-1 $68 $69 $28 #
cone-surface $-1 49.162670365471143 20.632886843984487 6.3026557157027465 -0.5877852598018023 0 -0.80901698891910034 0.20225424722977509 0 -0.14694631495045057 1 I I 0 1 0.25 forward I I I I #
face $-1 $70 $71 $23 $-1 $72 forward single #
loop $-1 $73 $74 $29 #
cone-surface $-1 49.162670365471143 22.999140644711098 6.3026557157027465 -0.5877852598018023 0 -0.80901698891910034 0.20225424722977509 0 -0.14694631495045057 1 I I 0 1 0.25 forward I I I I #
face $-1 $75 $76 $18 $-1 $77 reversed single #
loop $-1 $-1 $78 $30 #
plane-surface $-1 0 0 -8.8796033589271879 0 0 1 1 0 0 forward_v I I I I #
coedge $-1 $79 $80 $81 $82 forward $31 $-1 #
face $-1 $83 $84 $19 $-1 $85 reversed single #
loop $-1 $-1 $86 $33 #
plane-surface $-1 -48.19499820431006 -15.688807074765554 0 0 -1 0 0 0 -1 forward_v I I I I #
coedge $-1 $87 $88 $89 $90 forward $34 $-1 #
face $-1 $91 $92 $20 $-1 $93 reversed single #
loop $-1 $-1 $94 $36 #
plane-surface $-1 -32.413823407529073 20.632886843984487 66.189482877162831 0.5877852598018023 0 0.80901698891910034 0.80901698891910034 0 -0.5877852598018023 forward_v I I I I #
coedge $-1 $95 $96 $97 $98 reversed $37 $-1 #
face $-1 $-1 $99 $21 $-1 $100 forward single #
loop $-1 $101 $102 $39 #
cone-surface $-1 48.795304578095013 18.266633043257876 5.7970200976283088 -0.5877852598018023 0 -0.80901698891910034 0.10112712361488754 0 -0.073473157475225287 1 I I -0.70710678118654746 0.70710678118654746 0.125 forward I I I I #
loop $-1 $-1 $103 $27 #
coedge $-1 $64 $64 $104 $105 reversed $40 $-1 #
face $-1 $-1 $106 $22 $-1 $107 forward single #
loop $-1 $108 $109 $42 #
cone-surface $-1 48.795304578095013 20.632886843984487 5.7970200976283088 -0.5877852598018023 0 -0.80901698891910034 0.10112712361488754 0 -0.073473157475225287 1 I I -0.70710678118654746 0.70710678118654746 0.125 forward I I I I #
loop $-1 $-1 $110 $28 #
coedge $-1 $69 $69 $111 $112 reversed $43 $-1 #
face $-1 $-1 $113 $23 $-1 $114 forward single #
loop $-1 $115 $116 $45 #
cone-surface $-1 48.795304578095013 22.999140644711098 5.7970200976283088 -0.5877852598018023 0 -0.80901698891910034 0.10112712361488754 0 -0.073473157475225287 1 I I -0.70710678118654746 0.70710678118654746 0.125 forward I I I I #
loop $-1 $-1 $117 $29 #
coedge $-1 $74 $74 $118 $119 reversed $46 $-1 #
face $-1 $120 $121 $18 $-1 $122 reversed single #
loop $-1 $-1 $123 $48 #
plane-surface $-1 0 -24.576643178528833 0 0 1 0 0 0 1 forward_v I I I I #
coedge $-1 $124 $125 $126 $127 forward $49 $-1 #
coedge $-1 $128 $51 $129 $130 forward $31 $-1 #
coedge $-1 $51 $128 $131 $132 forward $31 $-1 #
coedge $-1 $133 $134 $51 $82 reversed $135 $-1 #
edge $-1 $136 -24.576643178528833 $137 24.576643178528833 $81 $138 forward 7 unknown #
face $-1 $139 $140 $19 $-1 $141 forward single #
loop $-1 $-1 $142 $52 #
plane-surface $-1 -46.69499820431006 -20.132725126647195 0 -1 0 0 0 0 1 forward_v I I I I #
coedge $-1 $143 $144 $145 $146 forward $53 $-1 #
coedge $-1 $147 $55 $148 $149 reversed $34 $-1 #
coedge $-1 $55 $147 $150 $151 reversed $34 $-1 #
coedge $-1 $144 $143 $55 $90 reversed $53 $-1 #
edge $-1 $152 -8.8796033589271879 $153 8.8796033589271879 $89 $154 forward 7 unknown #
face $-1 $155 $156 $20 $-1 $157 reversed single #
loop $-1 $-1 $97 $56 #
plane-surface $-1 52.446668904690696 0 0 -1 0 0 0 0 1 forward_v I I I I #
coedge $-1 $158 $159 $160 $161 reversed $57 $-1 #
coedge $-1 $96 $59 $162 $163 reversed $37 $-1 #
coedge $-1 $59 $95 $158 $164 reversed $37 $-1 #
coedge $-1 $160 $165 $59 $98 forward $92 $-1 #
edge $-1 $166 66.645384235764112 $167 70.990262533293929 $97 $168 forward 7 unknown #
loop $-1 $-1 $104 $60 #
plane-surface $-1 -32.413823407529073 20.632886843984487 66.189482877162831 0.5877852598018023 0 0.80901698891910034 0.80901698891910034 0 -0.5877852598018023 forward_v I I I I #
loop $-1 $-1 $169 $39 #
coedge $-1 $102 $102 $103 $170 reversed $61 $-1 #
coedge $-1 $103 $103 $102 $170 forward $63 $-1 #
coedge $-1 $104 $104 $64 $105 forward $99 $-1 #
edge $-1 $171 0 $171 6.2831853071796004 $104 $172 forward 7 unknown #
loop $-1 $-1 $111 $65 #
plane-surface $-1 -32.413823407529073 20.632886843984487 66.189482877162831 0.5877852598018023 0 0.80901698891910034 0.80901698891910034 0 -0.5877852598018023 forward_v I I I I #
loop $-1 $-1 $173 $42 #
coedge $-1 $109 $109 $110 $174 reversed $66 $-1 #
coedge $-1 $110 $110 $109 $174 forward $68 $-1 #
coedge $-1 $111 $111 $69 $112 forward $106 $-1 #
edge $-1 $175 0 $175 6.2831853071796004 $111 $176 forward 7 unknown #
loop $-1 $-1 $118 $70 #
plane-surface $-1 -32.413823407529073 20.632886843984487 66.189482877162831 0.5877852598018023 0 0.80901698891910034 0.80901698891910034 0 -0.5877852598018023 forward_v I I I I #
loop $-1 $-1 $177 $45 #
coedge $-1 $116 $116 $117 $178 reversed $71 $-1 #
coedge $-1 $117 $117 $116 $178 forward $73 $-1 #
coedge $-1 $118 $118 $74 $119 forward $113 $-1 #
edge $-1 $179 0 $179 6.2831853071796004 $118 $180 forward 7 unknown #
face $-1 $181 $182 $18 $-1 $183 reversed single #
loop $-1 $-1 $184 $75 #
plane-surface $-1 -52.446668904690696 0 0 1 0 0 0 0 -1 forward_v I I I I #
coedge $-1 $185 $131 $186 $187 forward $76 $-1 #
coedge $-1 $188 $78 $185 $189 forward $49 $-1 #
coedge $-1 $78 $188 $190 $191 forward $49 $-1 #
coedge $-1 $134 $133 $78 $127 reversed $135 $-1 #
edge $-1 $192 -24.576643178528833 $193 24.576643178528833 $126 $194 forward 7 unknown #
coedge $-1 $80 $79 $195 $196 forward $31 $-1 #
coedge $-1 $197 $198 $79 $130 reversed $182 $-1 #
edge $-1 $137 -52.446668904690696 $199 52.446668904690696 $129 $200 forward 7 unknown #
coedge $-1 $123 $201 $80 $132 reversed $76 $-1 #
edge $-1 $202 -52.446668904690696 $136 52.446668904690696 $131 $203 forward 7 unknown #
coedge $-1 $126 $81 $201 $204 forward $135 $-1 #
coedge $-1 $81 $126 $197 $205 reversed $135 $-1 #
loop $-1 $-1 $133 $181 #
vertex $-1 $82 $206 #
vertex $-1 $82 $207 #
straight-curve $-1 52.446668904690696 0 8.8796033589271879 0 1 0 I I #
face $-1 $208 $209 $19 $-1 $210 reversed single #
loop $-1 $-1 $211 $83 #
plane-surface $-1 0 0 8.8796033589271879 0 0 1 1 0 0 forward_v I I I I #
coedge $-1 $212 $213 $214 $215 reversed $84 $-1 #
coedge $-1 $89 $86 $216 $217 reversed $53 $-1 #
coedge $-1 $86 $89 $218 $219 reversed $53 $-1 #
coedge $-1 $213 $212 $86 $146 reversed $84 $-1 #
edge $-1 $220 -8.8796033589271879 $221 8.8796033589271879 $145 $222 forward 7 unknown #
coedge $-1 $88 $87 $223 $224 reversed $34 $-1 #
coedge $-1 $216 $225 $87 $149 forward $209 $-1 #
edge $-1 $226 -14.510280615205236 $153 -5.622444511441957 $148 $227 forward 7 unknown #
coedge $-1 $228 $218 $88 $151 forward $140 $-1 #
edge $-1 $152 5.622444511441957 $229 14.510280615205236 $150 $230 forward 7 unknown #
vertex $-1 $151 $231 #
vertex $-1 $149 $232 #
straight-curve $-1 -49.69499820431006 -15.688807074765554 0 0 0 -1 I I #
face $-1 $-1 $233 $20 $-1 $234 forward single #
loop $-1 $-1 $235 $91 #
plane-surface $-1 0 24.576643178528833 0 0 -1 0 0 0 -1 forward_v I I I I #
coedge $-1 $236 $94 $96 $164 forward $57 $-1 #
coedge $-1 $94 $236 $235 $237 reversed $57 $-1 #
coedge $-1 $238 $97 $94 $161 forward $92 $-1 #
edge $-1 $167 6.3726870874478969 $239 14.26019975653659 $160 $240 forward 7 unknown #
coedge $-1 $241 $242 $95 $163 forward $233 $-1 #
edge $-1 $243 31.845989881935225 $166 37.826201700572504 $162 $244 forward 7 unknown #
edge $-1 $167 -104.89333780938142 $243 -97.501389431848281 $96 $245 forward 7 unknown #
coedge $-1 $97 $238 $241 $246 reversed $92 $-1 #
vertex $-1 $246 $247 #
vertex $-1 $98 $248 #
straight-curve $-1 52.446668904690696 16.68913050944014 75.524987594691297 0 0 -1 I I #
coedge $-1 $169 $169 $-1 $249 reversed $101 $-1 #
edge $-1 $250 0 $250 6.2831853071796004 $102 $251 forward 7 unknown #
vertex $-1 $105 $252 #
ellipse-curve $-1 49.456562995372039 18.266633043257876 6.7071642101622908 0.5877852598018023 0 0.80901698891910034 0.20225424722977509 0 -0.14694631495045057 1 I I #
coedge $-1 $173 $173 $-1 $253 reversed $108 $-1 #
edge $-1 $254 0 $254 6.2831853071796004 $109 $255 forward 7 unknown #
vertex $-1 $112 $256 #
ellipse-curve $-1 49.456562995372039 20.632886843984487 6.7071642101622908 0.5877852598018023 0 0.80901698891910034 0.20225424722977509 0 -0.14694631495045057 1 I I #
coedge $-1 $177 $177 $-1 $257 reversed $115 $-1 #
edge $-1 $258 0 $258 6.2831853071796004 $116 $259 forward 7 unknown #
vertex $-1 $119 $260 #
ellipse-curve $-1 49.456562995372039 22.999140644711098 6.7071642101622908 0.5877852598018023 0 0.80901698891910034 0.20225424722977509 0 -0.14694631495045057 1 I I #
face $-1 $-1 $135 $18 $-1 $261 reversed single #
loop $-1 $-1 $197 $120 #
plane-surface $-1 0 24.576643178528833 0 0 -1 0 0 0 -1 forward_v I I I I #
coedge $-1 $262 $195 $198 $263 forward $121 $-1 #
coedge $-1 $201 $123 $124 $189 reversed $76 $-1 #
coedge $-1 $195 $262 $123 $187 reversed $121 $-1 #
edge $-1 $202 -8.8796033589271879 $264 8.8796033589271879 $186 $265 forward 7 unknown #
coedge $-1 $125 $124 $262 $266 forward $49 $-1 #
edge $-1 $193 -52.446668904690696 $264 52.446668904690696 $185 $267 forward 7 unknown #
coedge $-1 $198 $197 $125 $191 reversed $182 $-1 #
edge $-1 $268 -52.446668904690696 $192 52.446668904690696 $190 $269 forward 7 unknown #
vertex $-1 $127 $270 #
vertex $-1 $204 $271 #
straight-curve $-1 52.446668904690696 0 -8.8796033589271879 0 -1 0 I I #
coedge $-1 $184 $186 $128 $196 reversed $121 $-1 #
edge $-1 $199 -24.576643178528833 $202 24.576643178528833 $195 $272 forward 7 unknown #
coedge $-1 $190 $129 $134 $205 forward $182 $-1 #
coedge $-1 $129 $190 $184 $263 reversed $182 $-1 #
vertex $-1 $130 $273 #
straight-curve $-1 0 24.576643178528833 8.8796033589271879 -1 0 0 I I #
coedge $-1 $131 $185 $133 $204 reversed $76 $-1 #
vertex $-1 $196 $274 #
straight-curve $-1 0 -24.576643178528833 8.8796033589271879 1 0 0 I I #
edge $-1 $136 -8.8796033589271879 $193 8.8796033589271879 $133 $275 forward 7 unknown #
edge $-1 $137 -8.8796033589271879 $192 8.8796033589271879 $134 $276 forward 7 unknown #
point $-1 52.446668904690696 -24.576643178528833 8.8796033589271879 #
point $-1 52.446668904690696 24.576643178528833 8.8796033589271879 #
face $-1 $-1 $277 $19 $-1 $278 reversed single #
loop $-1 $-1 $279 $139 #
plane-surface $-1 0 0 -8.8796033589271879 0 0 1 1 0 0 forward_v I I I I #
coedge $-1 $218 $228 $213 $280 forward $140 $-1 #
coedge $-1 $145 $142 $279 $281 reversed $84 $-1 #
coedge $-1 $142 $145 $211 $280 reversed $84 $-1 #
coedge $-1 $282 $283 $142 $215 forward $277 $-1 #
edge $-1 $284 -8.8796033589271879 $285 8.8796033589271879 $214 $286 forward 7 unknown #
coedge $-1 $279 $148 $143 $217 forward $209 $-1 #
edge $-1 $153 -25.59749910215503 $221 -22.59749910215503 $216 $287 forward 7 unknown #
coedge $-1 $150 $211 $144 $219 forward $140 $-1 #
edge $-1 $220 22.59749910215503 $152 25.59749910215503 $218 $288 forward 7 unknown #
vertex $-1 $219 $289 #
vertex $-1 $217 $290 #
straight-curve $-1 -46.69499820431006 -15.688807074765554 0 0 0 -1 I I #
coedge $-1 $283 $282 $147 $224 forward $277 $-1 #
edge $-1 $229 -8.8796033589271879 $226 8.8796033589271879 $223 $291 forward 7 unknown #
coedge $-1 $148 $279 $283 $292 forward $209 $-1 #
vertex $-1 $149 $293 #
straight-curve $-1 -49.69499820431006 -10.066362563323597 -8.8796033589271879 0 1 0 I I #
coedge $-1 $211 $150 $282 $294 forward $140 $-1 #
vertex $-1 $294 $295 #
straight-curve $-1 -49.69499820431006 -10.066362563323597 8.8796033589271879 0 -1 0 I I #
point $-1 -49.69499820431006 -15.688807074765554 8.8796033589271879 #
point $-1 -49.69499820431006 -15.688807074765554 -8.8796033589271879 #
loop $-1 $-1 $162 $155 #
plane-surface $-1 0 0 8.8796033589271879 0 0 1 1 0 0 forward_v I I I I #
coedge $-1 $296 $297 $159 $237 forward $156 $-1 #
coedge $-1 $159 $158 $242 $298 reversed $57 $-1 #
edge $-1 $239 -72.329069708574039 $299 -64.937121331040913 $235 $300 forward 7 unknown #
coedge $-1 $165 $160 $297 $301 reversed $92 $-1 #
vertex $-1 $237 $302 #
straight-curve $-1 52.446668904690696 10.316443421992243 4.5347250613973635 0 1 0 I I #
coedge $-1 $303 $162 $165 $246 forward $233 $-1 #
coedge $-1 $162 $303 $236 $298 forward $233 $-1 #
vertex $-1 $163 $304 #
straight-curve $-1 14.620467204118192 16.68913050944014 8.8796033589271843 1 0 0 I I #
straight-curve $-1 -32.413823407529073 16.68913050944014 66.189482877162831 -0.80901698891910034 0 0.5877852598018023 I I #
edge $-1 $166 16.68913050944014 $305 24.576643178528833 $165 $306 forward 7 unknown #
point $-1 52.446668904690696 16.68913050944014 8.8796033589271879 #
point $-1 52.446668904690704 16.68913050944014 4.53472506139736 #
edge $-1 $307 1 $307 0 $169 $-1 forward 7 unknown #
vertex $-1 $170 $308 #
ellipse-curve $-1 48.868777735570241 18.266633043257876 5.898147221243196 0.5877852598018023 0 0.80901698891910034 0.20225424722977509 0 -0.14694631495045057 1 I I #
point $-1 49.658817242601813 18.266633043257876 6.5602178952118457 #
edge $-1 $309 1 $309 0 $173 $-1 forward 7 unknown #
vertex $-1 $174 $310 #
ellipse-curve $-1 48.868777735570241 20.632886843984487 5.898147221243196 0.5877852598018023 0 0.80901698891910034 0.20225424722977509 0 -0.14694631495045057 1 I I #
point $-1 49.658817242601813 20.632886843984487 6.5602178952118457 #
edge $-1 $311 1 $311 0 $177 $-1 forward 7 unknown #
vertex $-1 $178 $312 #
ellipse-curve $-1 48.868777735570241 22.999140644711098 5.898147221243196 0.5877852598018023 0 0.80901698891910034 0.20225424722977509 0 -0.14694631495045057 1 I I #
point $-1 49.658817242601813 22.999140644711098 6.5602178952118457 #
plane-surface $-1 52.446668904690696 0 0 -1 0 0 0 0 1 forward_v I I I I #
coedge $-1 $186 $184 $188 $266 reversed $121 $-1 #
edge $-1 $199 -8.8796033589271879 $268 8.8796033589271879 $198 $313 forward 7 unknown #
vertex $-1 $266 $314 #
straight-curve $-1 -52.446668904690696 -24.576643178528833 0 0 0 -1 I I #
edge $-1 $264 -24.576643178528833 $268 24.576643178528833 $262 $315 forward 7 unknown #
straight-curve $-1 0 -24.576643178528833 -8.8796033589271879 -1 0 0 I I #
vertex $-1 $191 $316 #
straight-curve $-1 0 24.576643178528833 -8.8796033589271879 1 0 0 I I #
point $-1 52.446668904690696 24.576643178528833 -8.8796033589271879 #
point $-1 52.446668904690696 -24.576643178528833 -8.8796033589271879 #
straight-curve $-1 -52.446668904690696 0 8.8796033589271879 0 -1 0 I I #
point $-1 -52.446668904690696 24.576643178528833 8.8796033589271879 #
point $-1 -52.446668904690696 -24.576643178528833 8.8796033589271879 #
straight-curve $-1 52.446668904690696 -24.576643178528833 0 0 0 -1 I I #
straight-curve $-1 52.446668904690696 24.576643178528833 0 0 0 -1 I I #
loop $-1 $-1 $214 $208 #
plane-surface $-1 0 -24.576643178528833 0 0 1 0 0 0 1 forward_v I I I I #
coedge $-1 $225 $216 $212 $281 forward $209 $-1 #
edge $-1 $285 -14.510280615205236 $220 -5.622444511441957 $211 $317 forward 7 unknown #
edge $-1 $221 5.622444511441957 $284 14.510280615205236 $279 $318 forward 7 unknown #
coedge $-1 $223 $214 $228 $294 reversed $277 $-1 #
coedge $-1 $214 $223 $225 $292 reversed $277 $-1 #
vertex $-1 $292 $319 #
vertex $-1 $215 $320 #
straight-curve $-1 -46.69499820431006 -24.576643178528833 0 0 0 1 I I #
straight-curve $-1 -24.09749910215503 -15.688807074765554 -8.8796033589271879 1 0 0 I I #
straight-curve $-1 -24.09749910215503 -15.688807074765554 8.8796033589271879 -1 0 0 I I #
point $-1 -46.69499820431006 -15.688807074765554 8.8796033589271879 #
point $-1 -46.69499820431006 -15.688807074765554 -8.8796033589271879 #
straight-curve $-1 -49.69499820431006 -24.576643178528833 0 0 0 -1 I I #
edge $-1 $284 46.69499820431006 $226 49.69499820431006 $283 $321 forward 7 unknown #
point $-1 -49.69499820431006 -24.576643178528833 -8.8796033589271879 #
edge $-1 $229 -49.69499820431006 $285 -46.69499820431006 $282 $322 forward 7 unknown #
point $-1 -49.69499820431006 -24.576643178528833 8.8796033589271879 #
coedge $-1 $297 $235 $303 $323 reversed $156 $-1 #
coedge $-1 $235 $296 $238 $301 forward $156 $-1 #
edge $-1 $299 -14.26019975653659 $243 -6.3726870874478969 $242 $324 forward 7 unknown #
vertex $-1 $237 $325 #
straight-curve $-1 -6.0687772822595889 24.576643178528833 47.048686091274234 -0.80901698891910034 0 0.5877852598018023 I I #
edge $-1 $305 -8.8796033589271879 $239 -4.5347250613973644 $238 $326 forward 7 unknown #
point $-1 52.446668904690696 24.576643178528833 4.5347250613973644 #
coedge $-1 $242 $241 $296 $323 forward $233 $-1 #
point $-1 46.466457086053417 16.68913050944014 8.8796033589271914 #
vertex $-1 $246 $327 #
straight-curve $-1 52.446668904690696 0 8.8796033589271879 0 1 0 I I #
vertex $-1 $249 $328 #
point $-1 49.071031982800015 18.266633043257876 5.7512009062927456 #
vertex $-1 $253 $329 #
point $-1 49.071031982800015 20.632886843984487 5.7512009062927456 #
vertex $-1 $257 $330 #
point $-1 49.071031982800015 22.999140644711098 5.7512009062927456 #
straight-curve $-1 -52.446668904690696 24.576643178528833 0 0 0 -1 I I #
point $-1 -52.446668904690696 -24.576643178528833 -8.8796033589271879 #
straight-curve $-1 -52.446668904690696 0 -8.8796033589271879 0 1 0 I I #
point $-1 -52.446668904690696 24.576643178528833 -8.8796033589271879 #
straight-curve $-1 -46.69499820431006 -10.066362563323597 8.8796033589271879 0 1 0 I I #
straight-curve $-1 -46.69499820431006 -10.066362563323597 -8.8796033589271879 0 -1 0 I I #
point $-1 -46.69499820431006 -24.576643178528833 -8.8796033589271879 #
point $-1 -46.69499820431006 -24.576643178528833 8.8796033589271879 #
straight-curve $-1 0 -24.576643178528833 -8.8796033589271879 -1 0 0 I I #
straight-curve $-1 0 -24.576643178528833 8.8796033589271879 1 0 0 I I #
edge $-1 $305 -52.446668904690696 $299 -46.466457086053417 $296 $331 forward 7 unknown #
straight-curve $-1 46.466457086053424 10.316443421992243 8.8796033589271843 0 -1 0 I I #
point $-1 46.466457086053417 24.576643178528833 8.8796033589271914 #
straight-curve $-1 52.446668904690696 24.576643178528833 0 0 0 -1 I I #
point $-1 52.446668904690696 24.576643178528833 8.8796033589271879 #
point $-1 48.721831420619786 18.266633043257876 5.6958929740134217 #
point $-1 48.721831420619786 20.632886843984487 5.6958929740134217 #
point $-1 48.721831420619786 22.999140644711098 5.6958929740134217 #
straight-curve $-1 0 24.576643178528833 8.8796033589271879 -1 0 0 I I #
End-of-ACIS-data 