500 0 9 0           
7 Unknown 11 ACIS 5.0 NT 24 Fri Mar 26 02:25:25 1999 
-1 9.9999999999999995e-007 1e-010 
body $-1 $9 $-1 $10 #
body $-1 $11 $-1 $12 #
body $-1 $13 $-1 $14 #
body $-1 $15 $-1 $16 #
body $-1 $17 $-1 $18 #
body $-1 $19 $-1 $20 #
body $-1 $21 $-1 $22 #
body $-1 $23 $-1 $24 #
body $-1 $25 $-1 $26 #
lump $-1 $-1 $27 $0 #
transform $-1 1 0 0 0 1 0 0 0 1 69.74822229682303 46.837122230609303 20.845213810035144 1 rotate no_reflect no_shear #
lump $-1 $-1 $28 $1 #
transform $-1 1 0 0 0 1 0 0 0 1 69.74822229682303 46.837122230609303 20.845213810035144 1 rotate no_reflect no_shear #
lump $-1 $-1 $29 $2 #
transform $-1 1 0 0 0 1 0 0 0 1 69.74822229682303 46.837122230609303 20.845213810035144 1 rotate no_reflect no_shear #
lump $-1 $-1 $30 $3 #
transform $-1 1 0 0 0 1 0 0 0 1 69.74822229682303 46.837122230609303 20.845213810035144 1 rotate no_reflect no_shear #
lump $-1 $-1 $31 $4 #
transform $-1 1 0 0 0 1 0 0 0 1 69.74822229682303 46.837122230609303 20.845213810035144 1 rotate no_reflect no_shear #
lump $-1 $-1 $32 $5 #
transform $-1 1 0 0 0 1 0 0 0 1 69.74822229682303 46.837122230609303 20.845213810035144 1 rotate no_reflect no_shear #
lump $-1 $-1 $33 $6 #
transform $-1 1 0 0 0 1 0 0 0 1 69.74822229682303 46.837122230609303 20.845213810035144 1 rotate no_reflect no_shear #
lump $-1 $-1 $34 $7 #
transform $-1 1 0 0 0 1 0 0 0 1 69.74822229682303 46.837122230609303 20.845213810035144 1 rotate no_reflect no_shear #
lump $-1 $-1 $35 $8 #
transform $-1 1 0 0 0 1 0 0 0 1 69.74822229682303 46.837122230609303 20.845213810035144 1 rotate no_reflect no_shear #
shell $-1 $-1 $-1 $36 $-1 $9 #
shell $-1 $-1 $-1 $37 $-1 $11 #
shell $-1 $-1 $-1 $38 $-1 $13 #
shell $-1 $-1 $-1 $39 $-1 $15 #
shell $-1 $-1 $-1 $40 $-1 $17 #
shell $-1 $-1 $-1 $41 $-1 $19 #
shell $-1 $-1 $-1 $42 $-1 $21 #
shell $-1 $-1 $-1 $43 $-1 $23 #
shell $-1 $-1 $-1 $44 $-1 $25 #
face $-1 $45 $46 $27 $-1 $47 forward single #
face $-1 $48 $49 $28 $-1 $50 reversed single #
face $-1 $51 $52 $29 $-1 $53 forward single #
face $-1 $54 $55 $30 $-1 $56 reversed single #
face $-1 $57 $58 $31 $-1 $59 forward single #
face $-1 $60 $61 $32 $-1 $62 reversed single #
face $-1 $63 $64 $33 $-1 $65 forward single #
face $-1 $66 $67 $34 $-1 $68 forward single #
face $-1 $69 $70 $35 $-1 $71 forward single #
face $-1 $72 $73 $27 $-1 $74 reversed single #
loop $-1 $-1 $75 $36 #
plane-surface $-1 0 0 20.845213810035144 0 0 1 1 0 0 forward_v I I I I #
face $-1 $76 $77 $28 $-1 $78 reversed single #
loop $-1 $-1 $79 $37 #
plane-surface $-1 0 -28.721882663654206 15.42095417225126 0 -1 0 0 0 -1 forward_v I I I I #
face $-1 $80 $81 $29 $-1 $82 reversed single #
loop $-1 $-1 $83 $38 #
plane-surface $-1 0 34.197811610976693 17.422544825488721 0 0 1 1 0 0 forward_v I I I I #
face $-1 $84 $85 $30 $-1 $86 reversed single #
loop $-1 $-1 $87 $39 #
plane-surface $-1 42.292466015435963 10.782596857081039 211.34378804097562 0 1 0 0.6018150307709319 0 0.79863550430605224 forward_v I I I I #
face $-1 $88 $89 $31 $-1 $90 forward single #
loop $-1 $91 $92 $40 #
cone-surface $-1 65.75752727069532 16.170548924212554 17.3984613186208 -0.6018150307709319 0 -0.79863550430605224 0.79863550430605224 0 -0.6018150307709319 1 I I 0 1 1 forward I I I I #
face $-1 $93 $94 $32 $-1 $95 reversed single #
loop $-1 $-1 $96 $41 #
plane-surface $-1 -69.748222296823002 -23.28181066982382 2.0673370043913906 -0.85716730853699208 0 0.51503806187062418 0.51503806187062418 0 0.85716730853699208 forward_v I I I I #
face $-1 $97 $98 $33 $-1 $99 forward single #
loop $-1 $100 $101 $42 #
cone-surface $-1 -63.678195496215316 -26.545853866122048 11.198756376277965 0.85716730853699208 0 -0.51503806187062418 0.25751903093531209 0 0.42858365426849604 1 I I 0 1 0.5 forward I I I I #
face $-1 $102 $103 $34 $-1 $104 forward single #
loop $-1 $105 $106 $43 #
cone-surface $-1 -63.678195496215316 -23.281810669823816 11.198756376277965 0.85716730853699208 0 -0.51503806187062418 0.25751903093531209 0 0.42858365426849604 1 I I 0 1 0.5 forward I I I I #
face $-1 $107 $108 $35 $-1 $109 forward single #
loop $-1 $110 $111 $44 #
cone-surface $-1 -63.678195496215316 -20.017767473525584 11.198756376277965 0.85716730853699208 0 -0.51503806187062418 0.25751903093531209 0 0.42858365426849604 1 I I 0 1 0.5 forward I I I I #
face $-1 $112 $113 $27 $-1 $114 reversed single #
loop $-1 $-1 $115 $45 #
plane-surface $-1 0 0 -20.845213810035144 0 0 1 1 0 0 forward_v I I I I #
coedge $-1 $116 $117 $118 $119 forward $46 $-1 #
face $-1 $120 $121 $28 $-1 $122 reversed single #
loop $-1 $-1 $123 $48 #
plane-surface $-1 0 -37.779502447131755 9.9966945344673732 0 0 1 1 0 0 forward_v I I I I #
coedge $-1 $124 $125 $126 $127 reversed $49 $-1 #
face $-1 $128 $129 $29 $-1 $130 reversed single #
loop $-1 $-1 $131 $51 #
plane-surface $-1 0 34.197811610976693 11.39208369719357 0 0 1 1 0 0 forward_v I I I I #
coedge $-1 $132 $133 $134 $135 reversed $52 $-1 #
face $-1 $136 $137 $30 $-1 $138 reversed single #
loop $-1 $-1 $139 $54 #
plane-surface $-1 -41.658591080124737 16.170548924212554 99.936974664027829 0.6018150307709319 0 0.79863550430605224 0.79863550430605224 0 -0.6018150307709319 forward_v I I I I #
coedge $-1 $140 $141 $142 $143 reversed $55 $-1 #
face $-1 $-1 $144 $31 $-1 $145 forward single #
loop $-1 $146 $147 $57 #
cone-surface $-1 64.690176622231263 16.170548924212554 15.982039195837455 -0.6018150307709319 0 -0.79863550430605224 0.39931775215302612 0 -0.30090751538546595 1 I I -0.70710678118654746 0.70710678118654746 0.5 forward I I I I #
loop $-1 $-1 $148 $40 #
coedge $-1 $92 $92 $149 $150 reversed $58 $-1 #
face $-1 $151 $152 $32 $-1 $153 reversed single #
loop $-1 $-1 $154 $60 #
plane-surface $-1 -189.32001425963824 -17.841738675993433 73.913315465745768 0 -1 0 0.85716730853699208 0 -0.51503806187062418 forward_v I I I I #
coedge $-1 $155 $156 $157 $158 reversed $61 $-1 #
face $-1 $-1 $159 $33 $-1 $160 forward single #
loop $-1 $161 $162 $63 #
cone-surface $-1 -63.035320014812569 -26.545853866122048 10.812477829874997 0.85716730853699208 0 -0.51503806187062418 0.12875951546765604 0 0.21429182713424802 1 I I -0.70710678118654746 0.70710678118654746 0.25 forward I I I I #
loop $-1 $-1 $163 $42 #
coedge $-1 $101 $101 $164 $165 reversed $64 $-1 #
face $-1 $-1 $166 $34 $-1 $167 forward single #
loop $-1 $168 $169 $66 #
cone-surface $-1 -63.035320014812569 -23.281810669823816 10.812477829874997 0.85716730853699208 0 -0.51503806187062418 0.12875951546765604 0 0.21429182713424802 1 I I -0.70710678118654746 0.70710678118654746 0.25 forward I I I I #
loop $-1 $-1 $170 $43 #
coedge $-1 $106 $106 $171 $172 reversed $67 $-1 #
face $-1 $-1 $173 $35 $-1 $174 forward single #
loop $-1 $175 $176 $69 #
cone-surface $-1 -63.035320014812569 -20.017767473525584 10.812477829874997 0.85716730853699208 0 -0.51503806187062418 0.12875951546765604 0 0.21429182713424802 1 I I -0.70710678118654746 0.70710678118654746 0.25 forward I I I I #
loop $-1 $-1 $177 $44 #
coedge $-1 $111 $111 $178 $179 reversed $70 $-1 #
face $-1 $180 $181 $27 $-1 $182 reversed single #
loop $-1 $-1 $183 $72 #
plane-surface $-1 0 -46.837122230609303 0 0 1 0 0 0 1 forward_v I I I I #
coedge $-1 $184 $185 $186 $187 forward $73 $-1 #
coedge $-1 $188 $75 $189 $190 forward $46 $-1 #
coedge $-1 $75 $188 $191 $192 forward $46 $-1 #
coedge $-1 $193 $194 $75 $119 reversed $195 $-1 #
edge $-1 $196 -46.837122230609303 $197 46.837122230609303 $118 $198 forward 7 unknown #
face $-1 $199 $200 $28 $-1 $201 reversed single #
loop $-1 $-1 $202 $76 #
plane-surface $-1 -69.74822229682303 0 0 1 0 0 0 0 -1 forward_v I I I I #
coedge $-1 $203 $204 $205 $206 reversed $77 $-1 #
coedge $-1 $207 $79 $208 $209 reversed $49 $-1 #
coedge $-1 $79 $207 $202 $210 reversed $49 $-1 #
coedge $-1 $211 $212 $79 $127 forward $213 $-1 #
edge $-1 $214 -69.74822229682303 $215 69.74822229682303 $126 $216 forward 7 unknown #
face $-1 $217 $218 $29 $-1 $219 reversed single #
loop $-1 $-1 $220 $80 #
plane-surface $-1 0 21.558500991344076 14.407314261341146 0 1 0 0 0 1 forward_v I I I I #
coedge $-1 $221 $222 $223 $224 reversed $81 $-1 #
coedge $-1 $225 $83 $226 $227 reversed $52 $-1 #
coedge $-1 $83 $225 $220 $228 forward $52 $-1 #
coedge $-1 $229 $230 $83 $135 forward $218 $-1 #
edge $-1 $231 -29.738216425120964 $232 -4.4595951858557292 $134 $233 forward 7 unknown #
face $-1 $234 $235 $30 $-1 $236 forward single #
loop $-1 $-1 $237 $84 #
plane-surface $-1 69.74822229682303 0 0 -1 0 0 0 0 1 forward_v I I I I #
coedge $-1 $238 $239 $240 $241 reversed $85 $-1 #
coedge $-1 $141 $87 $242 $243 reversed $55 $-1 #
coedge $-1 $87 $140 $238 $244 reversed $55 $-1 #
coedge $-1 $240 $245 $87 $143 forward $137 $-1 #
edge $-1 $246 84.826680210452665 $247 89.685976452020668 $142 $248 forward 7 unknown #
loop $-1 $-1 $149 $88 #
plane-surface $-1 -41.658591080124737 16.170548924212554 99.936974664027829 0.6018150307709319 0 0.79863550430605224 0.79863550430605224 0 -0.6018150307709319 forward_v I I I I #
loop $-1 $-1 $249 $57 #
coedge $-1 $147 $147 $148 $250 reversed $89 $-1 #
coedge $-1 $148 $148 $147 $250 forward $91 $-1 #
coedge $-1 $149 $149 $92 $150 forward $144 $-1 #
edge $-1 $251 0 $251 6.2831853071796004 $149 $252 forward 7 unknown #
face $-1 $253 $254 $32 $-1 $255 forward single #
loop $-1 $-1 $256 $93 #
plane-surface $-1 -69.74822229682303 0 0 1 0 0 0 0 -1 forward_v I I I I #
coedge $-1 $257 $258 $259 $260 reversed $94 $-1 #
coedge $-1 $261 $96 $262 $263 reversed $61 $-1 #
coedge $-1 $96 $261 $257 $264 forward $61 $-1 #
coedge $-1 $259 $265 $96 $158 forward $266 $-1 #
edge $-1 $267 -17.080977328742296 $268 -6.2008333410815233 $157 $269 forward 7 unknown #
loop $-1 $-1 $164 $97 #
plane-surface $-1 -69.748222296823002 -23.28181066982382 2.0673370043913906 -0.85716730853699208 0 0.51503806187062418 0.51503806187062418 0 0.85716730853699208 forward_v I I I I #
loop $-1 $-1 $270 $63 #
coedge $-1 $162 $162 $163 $271 reversed $98 $-1 #
coedge $-1 $163 $163 $162 $271 forward $100 $-1 #
coedge $-1 $164 $164 $101 $165 forward $159 $-1 #
edge $-1 $272 0 $272 6.2831853071796004 $164 $273 forward 7 unknown #
loop $-1 $-1 $171 $102 #
plane-surface $-1 -69.748222296823002 -23.28181066982382 2.0673370043913906 -0.85716730853699208 0 0.51503806187062418 0.51503806187062418 0 0.85716730853699208 forward_v I I I I #
loop $-1 $-1 $274 $66 #
coedge $-1 $169 $169 $170 $275 reversed $103 $-1 #
coedge $-1 $170 $170 $169 $275 forward $105 $-1 #
coedge $-1 $171 $171 $106 $172 forward $166 $-1 #
edge $-1 $276 0 $276 6.2831853071796004 $171 $277 forward 7 unknown #
loop $-1 $-1 $178 $107 #
plane-surface $-1 -69.748222296823002 -23.28181066982382 2.0673370043913906 -0.85716730853699208 0 0.51503806187062418 0.51503806187062418 0 0.85716730853699208 forward_v I I I I #
loop $-1 $-1 $278 $69 #
coedge $-1 $176 $176 $177 $279 reversed $108 $-1 #
coedge $-1 $177 $177 $176 $279 forward $110 $-1 #
coedge $-1 $178 $178 $111 $179 forward $173 $-1 #
edge $-1 $280 0 $280 6.2831853071796004 $178 $281 forward 7 unknown #
face $-1 $282 $283 $27 $-1 $284 reversed single #
loop $-1 $-1 $285 $112 #
plane-surface $-1 -69.74822229682303 0 0 1 0 0 0 0 -1 forward_v I I I I #
coedge $-1 $286 $191 $287 $288 forward $113 $-1 #
coedge $-1 $289 $115 $286 $290 forward $73 $-1 #
coedge $-1 $115 $289 $291 $292 forward $73 $-1 #
coedge $-1 $194 $193 $115 $187 reversed $195 $-1 #
edge $-1 $293 -46.837122230609303 $294 46.837122230609303 $186 $295 forward 7 unknown #
coedge $-1 $117 $116 $296 $297 forward $46 $-1 #
coedge $-1 $298 $299 $116 $190 reversed $283 $-1 #
edge $-1 $197 -69.74822229682303 $300 69.74822229682303 $189 $301 forward 7 unknown #
coedge $-1 $183 $302 $117 $192 reversed $113 $-1 #
edge $-1 $303 -69.74822229682303 $196 69.74822229682303 $191 $304 forward 7 unknown #
coedge $-1 $186 $118 $302 $305 forward $195 $-1 #
coedge $-1 $118 $186 $298 $306 reversed $195 $-1 #
loop $-1 $-1 $193 $282 #
vertex $-1 $119 $307 #
vertex $-1 $119 $308 #
straight-curve $-1 69.74822229682303 0 20.845213810035144 0 1 0 I I #
face $-1 $309 $213 $28 $-1 $310 forward single #
loop $-1 $-1 $311 $120 #
plane-surface $-1 0 -46.837122230609303 0 0 1 0 0 0 1 forward_v I I I I #
coedge $-1 $312 $313 $125 $210 forward $121 $-1 #
coedge $-1 $314 $123 $311 $315 reversed $77 $-1 #
coedge $-1 $123 $314 $207 $316 forward $77 $-1 #
coedge $-1 $208 $317 $123 $206 forward $318 $-1 #
edge $-1 $319 -27.947371007043426 $320 -9.8321314400883288 $205 $321 forward 7 unknown #
coedge $-1 $125 $124 $204 $316 reversed $49 $-1 #
coedge $-1 $322 $205 $124 $209 forward $318 $-1 #
edge $-1 $320 2.286217448341743 $214 13.134736723909517 $208 $323 forward 7 unknown #
edge $-1 $215 -13.134736723909517 $324 -2.286217448341743 $202 $325 forward 7 unknown #
coedge $-1 $326 $126 $313 $327 forward $213 $-1 #
coedge $-1 $126 $326 $322 $328 forward $213 $-1 #
loop $-1 $-1 $126 $199 #
vertex $-1 $209 $329 #
vertex $-1 $327 $330 #
straight-curve $-1 0 -28.721882663654206 20.845213810035144 -1 0 0 I I #
face $-1 $331 $332 $29 $-1 $333 reversed single #
loop $-1 $-1 $134 $128 #
plane-surface $-1 69.74822229682303 0 0 -1 0 0 0 0 1 forward_v I I I I #
coedge $-1 $334 $335 $133 $228 reversed $129 $-1 #
coedge $-1 $336 $131 $337 $338 forward $81 $-1 #
coedge $-1 $131 $336 $339 $340 reversed $81 $-1 #
coedge $-1 $230 $229 $131 $224 forward $218 $-1 #
edge $-1 $341 4.4595951858557292 $342 29.738216425120964 $223 $343 forward 7 unknown #
coedge $-1 $133 $132 $344 $345 reversed $52 $-1 #
coedge $-1 $346 $347 $132 $227 forward $348 $-1 #
edge $-1 $349 -69.74822229682303 $231 69.74822229682303 $226 $350 forward 7 unknown #
edge $-1 $351 -69.74822229682303 $232 69.74822229682303 $220 $352 forward 7 unknown #
coedge $-1 $223 $134 $335 $353 forward $218 $-1 #
coedge $-1 $134 $223 $346 $354 reversed $218 $-1 #
vertex $-1 $354 $355 #
vertex $-1 $135 $356 #
straight-curve $-1 69.74822229682303 17.098905805488346 17.422544825488721 0 -1 0 I I #
face $-1 $-1 $357 $30 $-1 $358 forward single #
loop $-1 $-1 $359 $136 #
plane-surface $-1 0 0 20.845213810035144 0 0 1 1 0 0 forward_v I I I I #
coedge $-1 $245 $240 $360 $361 forward $137 $-1 #
coedge $-1 $362 $139 $141 $244 forward $85 $-1 #
coedge $-1 $139 $362 $363 $364 forward $85 $-1 #
coedge $-1 $237 $142 $139 $241 forward $137 $-1 #
edge $-1 $247 2.697322394974762 $365 13.473226529237799 $240 $366 forward 7 unknown #
coedge $-1 $367 $368 $140 $243 forward $235 $-1 #
edge $-1 $369 42.153485503006848 $246 48.601989289105049 $242 $370 forward 7 unknown #
edge $-1 $247 -139.49644459364603 $369 -131.42204300327171 $141 $371 forward 7 unknown #
coedge $-1 $142 $237 $367 $372 reversed $137 $-1 #
vertex $-1 $372 $373 #
vertex $-1 $143 $374 #
straight-curve $-1 69.74822229682303 10.782596857081039 105.67189402048781 0 0 -1 I I #
coedge $-1 $249 $249 $-1 $375 reversed $146 $-1 #
edge $-1 $376 0 $376 6.2831853071796004 $147 $377 forward 7 unknown #
vertex $-1 $150 $378 #
ellipse-curve $-1 66.52397040377393 16.170548924212554 18.415565689251139 0.6018150307709319 0 0.79863550430605224 0.79863550430605224 0 -0.6018150307709319 1 I I #
face $-1 $-1 $266 $32 $-1 $379 forward single #
loop $-1 $-1 $262 $151 #
plane-surface $-1 0 -28.721882663654206 15.42095417225126 0 -1 0 0 0 -1 forward_v I I I I #
coedge $-1 $380 $381 $258 $382 forward $152 $-1 #
coedge $-1 $258 $154 $156 $264 reversed $94 $-1 #
coedge $-1 $154 $257 $256 $382 reversed $94 $-1 #
coedge $-1 $383 $157 $154 $260 forward $266 $-1 #
edge $-1 $268 -36.194671125674567 $384 -24.911784832996091 $259 $385 forward 7 unknown #
coedge $-1 $156 $155 $380 $386 reversed $61 $-1 #
coedge $-1 $387 $388 $155 $263 forward $254 $-1 #
edge $-1 $389 -23.684636658842553 $267 -1.7777386488218929 $262 $390 forward 7 unknown #
edge $-1 $391 -5.5368748685137586e-014 $268 21.906898010020612 $257 $392 forward 7 unknown #
coedge $-1 $157 $383 $387 $393 forward $266 $-1 #
loop $-1 $-1 $259 $253 #
vertex $-1 $263 $394 #
vertex $-1 $158 $395 #
straight-curve $-1 -58.465336004144547 -11.64090533491191 20.845213810035144 0 1 0 I I #
coedge $-1 $270 $270 $-1 $396 reversed $161 $-1 #
edge $-1 $397 0 $397 6.2831853071796004 $162 $398 forward 7 unknown #
vertex $-1 $165 $399 #
ellipse-curve $-1 -64.106779150483788 -26.545853866122048 11.456275407213258 -0.85716730853699208 0 0.51503806187062418 0.25751903093531209 0 0.42858365426849604 1 I I #
coedge $-1 $274 $274 $-1 $400 reversed $168 $-1 #
edge $-1 $401 0 $401 6.2831853071796004 $169 $402 forward 7 unknown #
vertex $-1 $172 $403 #
ellipse-curve $-1 -64.106779150483788 -23.281810669823816 11.456275407213258 -0.85716730853699208 0 0.51503806187062418 0.25751903093531209 0 0.42858365426849604 1 I I #
coedge $-1 $278 $278 $-1 $404 reversed $175 $-1 #
edge $-1 $405 0 $405 6.2831853071796004 $176 $406 forward 7 unknown #
vertex $-1 $179 $407 #
ellipse-curve $-1 -64.106779150483788 -20.017767473525584 11.456275407213258 -0.85716730853699208 0 0.51503806187062418 0.25751903093531209 0 0.42858365426849604 1 I I #
face $-1 $-1 $195 $27 $-1 $408 reversed single #
loop $-1 $-1 $298 $180 #
plane-surface $-1 0 46.837122230609303 0 0 -1 0 0 0 -1 forward_v I I I I #
coedge $-1 $409 $296 $299 $410 forward $181 $-1 #
coedge $-1 $302 $183 $184 $290 reversed $113 $-1 #
coedge $-1 $296 $409 $183 $288 reversed $181 $-1 #
edge $-1 $303 -20.845213810035144 $411 20.845213810035144 $287 $412 forward 7 unknown #
coedge $-1 $185 $184 $409 $413 forward $73 $-1 #
edge $-1 $294 -69.74822229682303 $411 69.74822229682303 $286 $414 forward 7 unknown #
coedge $-1 $299 $298 $185 $292 reversed $283 $-1 #
edge $-1 $415 -69.74822229682303 $293 69.74822229682303 $291 $416 forward 7 unknown #
vertex $-1 $187 $417 #
vertex $-1 $305 $418 #
straight-curve $-1 69.74822229682303 0 -20.845213810035144 0 -1 0 I I #
coedge $-1 $285 $287 $188 $297 reversed $181 $-1 #
edge $-1 $300 -46.837122230609303 $303 46.837122230609303 $296 $419 forward 7 unknown #
coedge $-1 $291 $189 $194 $306 forward $283 $-1 #
coedge $-1 $189 $291 $285 $410 reversed $283 $-1 #
vertex $-1 $190 $420 #
straight-curve $-1 0 46.837122230609303 20.845213810035144 -1 0 0 I I #
coedge $-1 $191 $286 $193 $305 reversed $113 $-1 #
vertex $-1 $297 $421 #
straight-curve $-1 0 -46.837122230609303 20.845213810035144 1 0 0 I I #
edge $-1 $196 -20.845213810035144 $294 20.845213810035144 $193 $422 forward 7 unknown #
edge $-1 $197 -20.845213810035144 $293 20.845213810035144 $194 $423 forward 7 unknown #
point $-1 69.74822229682303 -46.837122230609303 20.845213810035144 #
point $-1 69.74822229682303 46.837122230609303 20.845213810035144 #
face $-1 $-1 $318 $28 $-1 $424 reversed single #
plane-surface $-1 0 0 20.845213810035144 0 0 1 1 0 0 forward_v I I I I #
coedge $-1 $425 $426 $203 $315 forward $200 $-1 #
coedge $-1 $427 $202 $314 $428 forward $121 $-1 #
coedge $-1 $202 $427 $211 $327 reversed $121 $-1 #
coedge $-1 $204 $203 $312 $428 reversed $77 $-1 #
edge $-1 $429 -69.74822229682303 $319 69.74822229682303 $311 $430 forward 7 unknown #
edge $-1 $324 -69.74822229682303 $320 69.74822229682303 $207 $431 forward 7 unknown #
coedge $-1 $205 $322 $425 $432 forward $318 $-1 #
loop $-1 $-1 $208 $309 #
vertex $-1 $315 $433 #
vertex $-1 $206 $434 #
straight-curve $-1 69.74822229682303 -18.889751223565877 9.9966945344673732 0 1 0 I I #
coedge $-1 $317 $208 $212 $328 reversed $318 $-1 #
straight-curve $-1 69.74822229682303 -28.721882663654206 7.7104770861256302 0 0 1 I I #
vertex $-1 $428 $435 #
straight-curve $-1 -69.74822229682303 -28.721882663654206 7.7104770861256302 0 0 -1 I I #
coedge $-1 $212 $211 $436 $437 forward $213 $-1 #
edge $-1 $215 28.721882663654206 $438 46.837122230609303 $313 $439 forward 7 unknown #
edge $-1 $440 -46.837122230609303 $214 -28.721882663654206 $322 $441 forward 7 unknown #
point $-1 69.74822229682303 -28.721882663654206 20.845213810035148 #
point $-1 -69.74822229682303 -28.721882663654206 20.845213810035148 #
face $-1 $-1 $348 $29 $-1 $442 reversed single #
loop $-1 $-1 $344 $217 #
plane-surface $-1 -69.74822229682303 0 0 1 0 0 0 0 -1 forward_v I I I I #
coedge $-1 $337 $220 $443 $444 reversed $129 $-1 #
coedge $-1 $220 $337 $229 $353 reversed $129 $-1 #
coedge $-1 $222 $221 $445 $446 reversed $81 $-1 #
coedge $-1 $335 $334 $221 $338 reversed $129 $-1 #
edge $-1 $341 -69.74822229682303 $447 69.74822229682303 $337 $448 forward 7 unknown #
coedge $-1 $347 $346 $222 $340 forward $348 $-1 #
edge $-1 $342 -69.74822229682303 $449 69.74822229682303 $339 $450 forward 7 unknown #
vertex $-1 $224 $451 #
vertex $-1 $340 $452 #
straight-curve $-1 69.74822229682303 17.098905805488346 11.39208369719357 0 1 0 I I #
coedge $-1 $453 $443 $225 $345 forward $332 $-1 #
edge $-1 $351 4.4595951858557292 $349 29.738216425120964 $344 $454 forward 7 unknown #
coedge $-1 $339 $226 $230 $354 forward $348 $-1 #
coedge $-1 $226 $339 $453 $455 reversed $348 $-1 #
loop $-1 $-1 $226 $331 #
vertex $-1 $455 $456 #
straight-curve $-1 0 46.837122230609303 17.422544825488721 1 0 0 I I #
vertex $-1 $345 $457 #
straight-curve $-1 0 21.558500991344076 17.422544825488721 1 0 0 I I #
edge $-1 $232 -10.218887694818148 $341 -4.1884265665229972 $229 $458 forward 7 unknown #
edge $-1 $231 -17.422544825488721 $342 -11.39208369719357 $230 $459 forward 7 unknown #
point $-1 69.74822229682303 46.83712223060931 17.422544825488721 #
point $-1 69.74822229682303 21.558500991344076 17.422544825488721 #
loop $-1 $-1 $363 $234 #
plane-surface $-1 0 21.558500991344076 14.407314261341146 0 1 0 0 0 1 forward_v I I I I #
coedge $-1 $368 $367 $460 $461 forward $235 $-1 #
coedge $-1 $363 $460 $237 $361 reversed $357 $-1 #
edge $-1 $365 -89.685976452020668 $462 -84.826680210452665 $237 $463 forward 7 unknown #
coedge $-1 $239 $238 $368 $464 reversed $85 $-1 #
coedge $-1 $460 $360 $239 $364 reversed $357 $-1 #
edge $-1 $465 131.42204300327171 $365 139.49644459364603 $363 $466 forward 7 unknown #
vertex $-1 $361 $467 #
straight-curve $-1 69.74822229682303 8.0852744621062769 15.985917568467151 0 1 0 I I #
coedge $-1 $359 $242 $245 $372 forward $235 $-1 #
coedge $-1 $242 $359 $362 $464 forward $235 $-1 #
vertex $-1 $243 $468 #
straight-curve $-1 21.146233007717981 10.782596857081039 20.845213810035148 1 0 0 I I #
straight-curve $-1 -41.658591080124737 10.782596857081039 99.936974664027829 -0.79863550430605224 0 0.6018150307709319 I I #
edge $-1 $246 10.782596857081039 $462 21.558500991344069 $245 $469 forward 7 unknown #
point $-1 69.74822229682303 10.782596857081039 20.845213810035144 #
point $-1 69.74822229682303 10.782596857081039 15.985917568467144 #
edge $-1 $470 1 $470 0 $249 $-1 forward 7 unknown #
vertex $-1 $250 $471 #
ellipse-curve $-1 64.991084137616724 16.170548924212554 16.381356947990483 0.6018150307709319 0 0.79863550430605224 0.79863550430605224 0 -0.6018150307709319 1 I I #
point $-1 67.322605908079979 16.170548924212554 17.813750658480188 #
plane-surface $-1 0 0 20.845213810035144 0 0 1 1 0 0 forward_v I I I I #
coedge $-1 $472 $256 $261 $386 forward $152 $-1 #
coedge $-1 $256 $472 $383 $473 reversed $152 $-1 #
edge $-1 $384 16.11144392283774 $391 34.889320728481543 $256 $474 forward 7 unknown #
coedge $-1 $265 $259 $381 $473 forward $266 $-1 #
vertex $-1 $473 $475 #
straight-curve $-1 -94.660007129819121 -17.841738675993433 20.845213810035144 -1 0 0 I I #
edge $-1 $391 6.2008333410815233 $389 17.080977328742296 $380 $476 forward 7 unknown #
coedge $-1 $388 $262 $265 $393 reversed $254 $-1 #
coedge $-1 $262 $387 $472 $477 reversed $254 $-1 #
vertex $-1 $386 $478 #
straight-curve $-1 -57.549732935942821 -28.721882663654206 22.369033262927989 0.51503806187062429 0 0.85716730853699219 I I #
vertex $-1 $386 $479 #
straight-curve $-1 -69.748222296823002 -17.841738675993433 2.0673370043913906 0.51503806187062418 0 0.85716730853699208 I I #
edge $-1 $480 -69.74822229682303 $267 -58.465336004144561 $265 $481 forward 7 unknown #
point $-1 -58.465336004144561 -28.721882663654206 20.845213810035144 #
point $-1 -58.465336004144554 -17.841738675993433 20.845213810035144 #
edge $-1 $482 1 $482 0 $270 $-1 forward 7 unknown #
vertex $-1 $271 $483 #
ellipse-curve $-1 -63.249611841946816 -26.545853866122048 10.941237345342653 -0.85716730853699208 0 0.51503806187062418 0.25751903093531209 0 0.42858365426849604 1 I I #
point $-1 -63.849260119548497 -26.545853866122048 11.884859061481773 #
edge $-1 $484 1 $484 0 $274 $-1 forward 7 unknown #
vertex $-1 $275 $485 #
ellipse-curve $-1 -63.249611841946816 -23.281810669823816 10.941237345342653 -0.85716730853699208 0 0.51503806187062418 0.25751903093531209 0 0.42858365426849604 1 I I #
point $-1 -63.849260119548497 -23.281810669823816 11.884859061481773 #
edge $-1 $486 1 $486 0 $278 $-1 forward 7 unknown #
vertex $-1 $279 $487 #
ellipse-curve $-1 -63.249611841946816 -20.017767473525584 10.941237345342653 -0.85716730853699208 0 0.51503806187062418 0.25751903093531209 0 0.42858365426849604 1 I I #
point $-1 -63.849260119548497 -20.017767473525584 11.884859061481773 #
plane-surface $-1 69.74822229682303 0 0 -1 0 0 0 0 1 forward_v I I I I #
coedge $-1 $287 $285 $289 $413 reversed $181 $-1 #
edge $-1 $300 -20.845213810035144 $415 20.845213810035144 $299 $488 forward 7 unknown #
vertex $-1 $413 $489 #
straight-curve $-1 -69.74822229682303 -46.837122230609303 0 0 0 -1 I I #
edge $-1 $411 -46.837122230609303 $415 46.837122230609303 $409 $490 forward 7 unknown #
straight-curve $-1 0 -46.837122230609303 -20.845213810035144 -1 0 0 I I #
vertex $-1 $292 $491 #
straight-curve $-1 0 46.837122230609303 -20.845213810035144 1 0 0 I I #
point $-1 69.74822229682303 46.837122230609303 -20.845213810035144 #
point $-1 69.74822229682303 -46.837122230609303 -20.845213810035144 #
straight-curve $-1 -69.74822229682303 0 20.845213810035144 0 -1 0 I I #
point $-1 -69.74822229682303 46.837122230609303 20.845213810035144 #
point $-1 -69.74822229682303 -46.837122230609303 20.845213810035144 #
straight-curve $-1 69.74822229682303 -46.837122230609303 0 0 0 -1 I I #
straight-curve $-1 69.74822229682303 46.837122230609303 0 0 0 -1 I I #
plane-surface $-1 69.74822229682303 0 0 -1 0 0 0 0 1 forward_v I I I I #
coedge $-1 $436 $311 $317 $432 reversed $200 $-1 #
coedge $-1 $311 $436 $427 $492 forward $200 $-1 #
coedge $-1 $313 $312 $426 $492 reversed $121 $-1 #
edge $-1 $324 9.8321314400883288 $429 27.947371007043426 $312 $493 forward 7 unknown #
vertex $-1 $315 $494 #
straight-curve $-1 0 -46.837122230609303 9.9966945344673732 1 0 0 I I #
straight-curve $-1 0 -28.721882663654206 9.9966945344673732 1 0 0 I I #
edge $-1 $440 -20.845213810035144 $319 -9.9966945344673732 $317 $495 forward 7 unknown #
point $-1 69.74822229682303 -46.837122230609303 9.9966945344673732 #
point $-1 69.74822229682303 -28.721882663654206 9.9966945344673732 #
point $-1 -69.74822229682303 -28.721882663654206 9.9966945344673732 #
coedge $-1 $426 $425 $326 $437 reversed $200 $-1 #
edge $-1 $438 -69.74822229682303 $440 69.74822229682303 $436 $496 forward 7 unknown #
vertex $-1 $327 $497 #
straight-curve $-1 -69.74822229682303 0 20.845213810035144 0 -1 0 I I #
vertex $-1 $328 $498 #
straight-curve $-1 69.74822229682303 0 20.845213810035144 0 1 0 I I #
plane-surface $-1 0 46.837122230609303 0 0 -1 0 0 0 -1 forward_v I I I I #
coedge $-1 $344 $445 $334 $444 forward $332 $-1 #
edge $-1 $447 4.1884265665229972 $351 10.218887694818148 $443 $499 forward 7 unknown #
coedge $-1 $443 $453 $336 $446 forward $332 $-1 #
edge $-1 $449 -29.738216425120964 $447 -4.4595951858557292 $445 $500 forward 7 unknown #
vertex $-1 $446 $501 #
straight-curve $-1 0 21.558500991344076 11.39208369719357 -1 0 0 I I #
vertex $-1 $340 $502 #
straight-curve $-1 0 46.837122230609303 11.39208369719357 -1 0 0 I I #
point $-1 69.74822229682303 21.558500991344076 11.39208369719357 #
point $-1 69.74822229682303 46.83712223060931 11.39208369719357 #
coedge $-1 $445 $344 $347 $455 forward $332 $-1 #
straight-curve $-1 -69.74822229682303 17.098905805488346 17.422544825488721 0 1 0 I I #
edge $-1 $349 -17.422544825488721 $449 -11.39208369719357 $347 $503 forward 7 unknown #
point $-1 -69.74822229682303 46.83712223060931 17.422544825488721 #
point $-1 -69.74822229682303 21.558500991344076 17.422544825488721 #
straight-curve $-1 69.74822229682303 21.558500991344076 7.2036571306705728 0 0 -1 I I #
straight-curve $-1 69.74822229682303 46.837122230609303 0 0 0 -1 I I #
coedge $-1 $360 $363 $359 $461 reversed $357 $-1 #
edge $-1 $462 -48.601989289105049 $465 -42.153485503006848 $359 $504 forward 7 unknown #
vertex $-1 $361 $505 #
straight-curve $-1 69.74822229682303 21.558500991344069 105.67189402048781 0 0 1 I I #
edge $-1 $465 -13.473226529237792 $369 -2.697322394974762 $368 $506 forward 7 unknown #
vertex $-1 $464 $507 #
straight-curve $-1 -41.658591080124737 21.558500991344069 99.936974664027829 0.79863550430605224 0 -0.6018150307709319 I I #
point $-1 69.74822229682303 21.558500991344076 15.985917568467142 #
point $-1 63.29971851072483 10.782596857081039 20.845213810035148 #
straight-curve $-1 69.74822229682303 0 20.845213810035144 0 1 0 I I #
vertex $-1 $375 $508 #
point $-1 65.789719641922787 16.170548924212554 15.77954191721955 #
coedge $-1 $381 $380 $388 $477 forward $152 $-1 #
edge $-1 $384 17.841738675993433 $480 28.721882663654206 $381 $509 forward 7 unknown #
straight-curve $-1 -69.74822229682303 -17.841738675993433 36.956657732872884 0 0 -1 I I #
point $-1 -69.74822229682303 -17.841738675993433 20.845213810035144 #
straight-curve $-1 -69.74822229682303 -11.64090533491191 2.0673370043913364 0 -1 0 I I #
edge $-1 $389 -34.889320728481543 $480 -16.111443922837736 $472 $510 forward 7 unknown #
point $-1 -69.74822229682303 -28.721882663654206 2.067337004391343 #
point $-1 -69.74822229682303 -17.841738675993433 2.067337004391343 #
vertex $-1 $477 $511 #
straight-curve $-1 0 -28.721882663654206 20.845213810035144 1 0 0 I I #
vertex $-1 $396 $512 #
point $-1 -62.992092811011503 -26.545853866122048 11.369820999611148 #
vertex $-1 $400 $513 #
point $-1 -62.992092811011503 -23.281810669823816 11.369820999611148 #
vertex $-1 $404 $514 #
point $-1 -62.992092811011503 -20.017767473525584 11.369820999611148 #
straight-curve $-1 -69.74822229682303 46.837122230609303 0 0 0 -1 I I #
point $-1 -69.74822229682303 -46.837122230609303 -20.845213810035144 #
straight-curve $-1 -69.74822229682303 0 -20.845213810035144 0 1 0 I I #
point $-1 -69.74822229682303 46.837122230609303 -20.845213810035144 #
edge $-1 $438 -20.845213810035144 $429 -9.9966945344673732 $427 $515 forward 7 unknown #
straight-curve $-1 -69.74822229682303 -18.889751223565877 9.9966945344673732 0 -1 0 I I #
point $-1 -69.74822229682303 -46.837122230609303 9.9966945344673732 #
straight-curve $-1 69.74822229682303 -46.837122230609303 0 0 0 -1 I I #
straight-curve $-1 0 -46.837122230609303 20.845213810035144 1 0 0 I I #
point $-1 -69.74822229682303 -46.837122230609303 20.845213810035144 #
point $-1 69.74822229682303 -46.837122230609303 20.845213810035144 #
straight-curve $-1 -69.74822229682303 21.558500991344076 7.2036571306705728 0 0 1 I I #
straight-curve $-1 -69.74822229682303 17.098905805488346 11.39208369719357 0 -1 0 I I #
point $-1 -69.74822229682303 21.558500991344076 11.39208369719357 #
point $-1 -69.74822229682303 46.83712223060931 11.39208369719357 #
straight-curve $-1 -69.74822229682303 46.837122230609303 0 0 0 -1 I I #
straight-curve $-1 21.146233007717981 21.558500991344069 20.845213810035148 -1 0 0 I I #
point $-1 69.74822229682303 21.558500991344069 20.845213810035144 #
straight-curve $-1 63.299718510724816 8.0852744621062769 20.845213810035148 0 -1 0 I I #
point $-1 63.29971851072483 21.558500991344069 20.845213810035148 #
point $-1 64.389269106845802 16.170548924212554 15.582721443684429 #
straight-curve $-1 -69.74822229682303 0 20.845213810035144 0 -1 0 I I #
straight-curve $-1 -69.74822229682303 -28.721882663654206 36.956657732872884 0 0 1 I I #
point $-1 -69.74822229682303 -28.721882663654206 20.845213810035148 #
point $-1 -62.821028187678323 -26.545853866122048 10.68371831440734 #
point $-1 -62.821028187678323 -23.281810669823816 10.68371831440734 #
point $-1 -62.821028187678323 -20.017767473525584 10.68371831440734 #
straight-curve $-1 -69.74822229682303 -46.837122230609303 0 0 0 -1 I I #
End-of-ACIS-data 