500 0 12 0           
7 Unknown 11 ACIS 5.0 NT 24 Fri Mar 26 18:15:22 1999 
-1 9.9999999999999995e-007 1e-010 
body $-1 $12 $-1 $13 #
body $-1 $14 $-1 $15 #
body $-1 $16 $-1 $17 #
body $-1 $18 $-1 $19 #
body $-1 $20 $-1 $21 #
body $-1 $22 $-1 $23 #
body $-1 $24 $-1 $25 #
body $-1 $26 $-1 $27 #
body $-1 $28 $-1 $29 #
body $-1 $30 $-1 $31 #
body $-1 $32 $-1 $33 #
body $-1 $34 $-1 $35 #
lump $-1 $-1 $36 $0 #
transform $-1 1 0 0 0 1 0 0 0 1 69.10367137668996 33.135049091132529 6.9121773295549582 1 rotate no_reflect no_shear #
lump $-1 $-1 $37 $1 #
transform $-1 1 0 0 0 1 0 0 0 1 69.10367137668996 33.135049091132529 6.9121773295549582 1 rotate no_reflect no_shear #
lump $-1 $-1 $38 $2 #
transform $-1 1 0 0 0 1 0 0 0 1 69.10367137668996 33.135049091132529 6.9121773295549582 1 rotate no_reflect no_shear #
lump $-1 $-1 $39 $3 #
transform $-1 1 0 0 0 1 0 0 0 1 69.10367137668996 33.135049091132529 6.9121773295549582 1 rotate no_reflect no_shear #
lump $-1 $-1 $40 $4 #
transform $-1 1 0 0 0 1 0 0 0 1 69.10367137668996 33.135049091132529 6.9121773295549582 1 rotate no_reflect no_shear #
lump $-1 $-1 $41 $5 #
transform $-1 1 0 0 0 1 0 0 0 1 69.10367137668996 33.135049091132529 6.9121773295549582 1 rotate no_reflect no_shear #
lump $-1 $-1 $42 $6 #
transform $-1 1 0 0 0 1 0 0 0 1 69.10367137668996 33.135049091132529 6.9121773295549582 1 rotate no_reflect no_shear #
lump $-1 $-1 $43 $7 #
transform $-1 1 0 0 0 1 0 0 0 1 69.10367137668996 33.135049091132529 6.9121773295549582 1 rotate no_reflect no_shear #
lump $-1 $-1 $44 $8 #
transform $-1 1 0 0 0 1 0 0 0 1 69.10367137668996 33.135049091132529 6.9121773295549582 1 rotate no_reflect no_shear #
lump $-1 $-1 $45 $9 #
transform $-1 1 0 0 0 1 0 0 0 1 69.10367137668996 33.135049091132529 6.9121773295549582 1 rotate no_reflect no_shear #
lump $-1 $-1 $46 $10 #
transform $-1 1 0 0 0 1 0 0 0 1 69.10367137668996 33.135049091132529 6.9121773295549582 1 rotate no_reflect no_shear #
lump $-1 $-1 $47 $11 #
transform $-1 1 0 0 0 1 0 0 0 1 69.10367137668996 33.135049091132529 6.9121773295549582 1 rotate no_reflect no_shear #
shell $-1 $-1 $-1 $48 $-1 $12 #
shell $-1 $-1 $-1 $49 $-1 $14 #
shell $-1 $-1 $-1 $50 $-1 $16 #
shell $-1 $-1 $-1 $51 $-1 $18 #
shell $-1 $-1 $-1 $52 $-1 $20 #
shell $-1 $-1 $-1 $53 $-1 $22 #
shell $-1 $-1 $-1 $54 $-1 $24 #
shell $-1 $-1 $-1 $55 $-1 $26 #
shell $-1 $-1 $-1 $56 $-1 $28 #
shell $-1 $-1 $-1 $57 $-1 $30 #
shell $-1 $-1 $-1 $58 $-1 $32 #
shell $-1 $-1 $-1 $59 $-1 $34 #
face $-1 $60 $61 $36 $-1 $62 forward single #
face $-1 $63 $64 $37 $-1 $65 reversed single #
face $-1 $66 $67 $38 $-1 $68 reversed single #
face $-1 $69 $70 $39 $-1 $71 forward single #
face $-1 $72 $73 $40 $-1 $74 forward single #
face $-1 $75 $76 $41 $-1 $77 forward single #
face $-1 $78 $79 $42 $-1 $80 reversed single #
face $-1 $81 $82 $43 $-1 $83 forward single #
face $-1 $84 $85 $44 $-1 $86 forward single #
face $-1 $87 $88 $45 $-1 $89 reversed single #
face $-1 $90 $91 $46 $-1 $92 forward single #
face $-1 $93 $94 $47 $-1 $95 forward single #
face $-1 $96 $97 $36 $-1 $98 reversed single #
loop $-1 $-1 $99 $48 #
plane-surface $-1 0 0 6.9121773295549582 0 0 1 1 0 0 forward_v I I I I #
face $-1 $100 $101 $37 $-1 $102 reversed single #
loop $-1 $-1 $103 $49 #
plane-surface $-1 -65.431292125055606 -25.731397959812256 0 0 1 0 0 0 1 forward_v I I I I #
face $-1 $104 $105 $38 $-1 $106 reversed single #
loop $-1 $-1 $107 $50 #
plane-surface $-1 2.1090519894861366 -149.04548083859379 78.2857763685724 -1 0 0 0 -0.83867057594974714 0.54463902268945019 forward_v I I I I #
face $-1 $108 $109 $39 $-1 $110 forward single #
loop $-1 $111 $112 $51 #
cone-surface $-1 -16.425374414965177 -31.097609031347289 4.4615630019956836 0 0.83867057594974714 -0.54463902268945019 0.5 0 0 1 I I 0 1 0.5 forward I I I I #
face $-1 $113 $114 $40 $-1 $115 forward single #
loop $-1 $116 $117 $52 #
cone-surface $-1 -9.4749645132959373 -31.097609031347289 4.4615630019956836 0 0.83867057594974714 -0.54463902268945019 0.5 0 0 1 I I 0 1 0.5 forward I I I I #
face $-1 $118 $119 $41 $-1 $120 forward single #
loop $-1 $121 $122 $53 #
cone-surface $-1 -2.5245546116266979 -31.097609031347289 4.4615630019956836 0 0.83867057594974714 -0.54463902268945019 0.5 0 0 1 I I 0 1 0.5 forward I I I I #
face $-1 $123 $124 $42 $-1 $125 reversed single #
loop $-1 $-1 $126 $54 #
plane-surface $-1 -11.0690809935757 119.69107177086052 129.68020814122272 1 0 0 0 -0.86602541151947299 -0.49999998660252726 forward_v I I I I #
face $-1 $127 $128 $43 $-1 $129 forward single #
loop $-1 $130 $131 $55 #
cone-surface $-1 -6.8572352092299695 31.390787111037227 4.6627179430260881 0 -0.86602541151947299 -0.49999998660252726 1 0 0 1 I I 0 1 1 forward I I I I #
face $-1 $132 $133 $44 $-1 $134 forward single #
loop $-1 $135 $136 $56 #
cone-surface $-1 -0.53946653271137279 31.390787111037227 4.6627179430260881 0 -0.86602541151947299 -0.49999998660252726 1 0 0 1 I I 0 1 1 forward I I I I #
face $-1 $137 $138 $45 $-1 $139 reversed single #
loop $-1 $-1 $140 $57 #
plane-surface $-1 -3.6983508709706712 8.8785182583706046e-007 60.576538616161869 0 0.86602541151947299 0.49999998660252726 1 0 0 forward_v I I I I #
face $-1 $141 $142 $46 $-1 $143 forward single #
loop $-1 $144 $145 $58 #
cone-surface $-1 7.8842250359800943 31.390787111037227 4.6627179430260881 0 -0.86602541151947299 -0.49999998660252726 1 0 0 1 I I 0 1 1 forward I I I I #
face $-1 $146 $147 $47 $-1 $148 forward single #
loop $-1 $149 $150 $59 #
cone-surface $-1 14.201993712498691 31.390787111037227 4.6627179430260881 0 -0.86602541151947299 -0.49999998660252726 1 0 0 1 I I 0 1 1 forward I I I I #
face $-1 $151 $152 $36 $-1 $153 reversed single #
loop $-1 $-1 $154 $60 #
plane-surface $-1 0 0 -6.9121773295549582 0 0 1 1 0 0 forward_v I I I I #
coedge $-1 $155 $156 $157 $158 forward $61 $-1 #
face $-1 $159 $160 $37 $-1 $161 reversed single #
loop $-1 $-1 $162 $63 #
plane-surface $-1 -65.431292125055606 -22.731397959812256 0 0 -1 0 0 0 -1 forward_v I I I I #
coedge $-1 $163 $164 $165 $166 reversed $64 $-1 #
face $-1 $167 $168 $38 $-1 $169 reversed single #
loop $-1 $-1 $170 $66 #
plane-surface $-1 -9.4749645132959301 -33.135049091132544 3.0126642828656998 0 -0.83867057594974714 0.54463902268945019 1 0 0 forward_v I I I I #
coedge $-1 $171 $172 $173 $174 reversed $67 $-1 #
face $-1 $-1 $175 $39 $-1 $176 forward single #
loop $-1 $177 $178 $69 #
cone-surface $-1 -16.425374414965177 -30.116687977981705 3.8245454421086782 0 0.83867057594974714 -0.54463902268945019 0.25 0 0 1 I I -0.70710678118654813 0.70710678118654691 0.25 forward I I I I #
loop $-1 $-1 $179 $51 #
coedge $-1 $112 $112 $180 $181 reversed $70 $-1 #
face $-1 $-1 $182 $40 $-1 $183 forward single #
loop $-1 $184 $185 $72 #
cone-surface $-1 -9.4749645132959373 -30.116687977981705 3.8245454421086782 0 0.83867057594974714 -0.54463902268945019 0.25 0 0 1 I I -0.70710678118654813 0.70710678118654691 0.25 forward I I I I #
loop $-1 $-1 $186 $52 #
coedge $-1 $117 $117 $187 $188 reversed $73 $-1 #
face $-1 $-1 $189 $41 $-1 $190 forward single #
loop $-1 $191 $192 $75 #
cone-surface $-1 -2.5245546116266979 -30.116687977981705 3.8245454421086782 0 0.83867057594974714 -0.54463902268945019 0.25 0 0 1 I I -0.70710678118654813 0.70710678118654691 0.25 forward I I I I #
loop $-1 $-1 $193 $53 #
coedge $-1 $122 $122 $194 $195 reversed $76 $-1 #
face $-1 $196 $197 $42 $-1 $198 reversed single #
loop $-1 $-1 $199 $78 #
plane-surface $-1 -3.6983508709706712 8.8785182583706046e-007 60.576538616161869 0 0.86602541151947299 0.49999998660252726 1 0 0 forward_v I I I I #
coedge $-1 $200 $201 $202 $203 reversed $79 $-1 #
face $-1 $-1 $204 $43 $-1 $205 forward single #
loop $-1 $206 $207 $81 #
cone-surface $-1 -6.8572352092299695 30.289470362927524 4.026872444758502 0 -0.86602541151947299 -0.49999998660252726 0.5 0 0 1 I I -0.70710678118654746 0.70710678118654746 0.5 forward I I I I #
loop $-1 $-1 $208 $55 #
coedge $-1 $131 $131 $209 $210 reversed $82 $-1 #
face $-1 $-1 $211 $44 $-1 $212 forward single #
loop $-1 $213 $214 $84 #
cone-surface $-1 -0.53946653271137279 30.289470362927524 4.026872444758502 0 -0.86602541151947299 -0.49999998660252726 0.5 0 0 1 I I -0.70710678118654746 0.70710678118654746 0.5 forward I I I I #
loop $-1 $-1 $215 $56 #
coedge $-1 $136 $136 $216 $217 reversed $85 $-1 #
face $-1 $218 $219 $45 $-1 $220 reversed single #
loop $-1 $-1 $221 $87 #
plane-surface $-1 18.413839496844421 119.69107177086052 129.68020814122272 -1 0 0 0 0.86602541151947299 0.49999998660252726 forward_v I I I I #
coedge $-1 $222 $223 $224 $225 reversed $88 $-1 #
face $-1 $-1 $226 $46 $-1 $227 forward single #
loop $-1 $228 $229 $90 #
cone-surface $-1 7.8842250359800943 30.289470362927524 4.026872444758502 0 -0.86602541151947299 -0.49999998660252726 0.5 0 0 1 I I -0.70710678118654746 0.70710678118654746 0.5 forward I I I I #
loop $-1 $-1 $230 $58 #
coedge $-1 $145 $145 $231 $232 reversed $91 $-1 #
face $-1 $-1 $233 $47 $-1 $234 forward single #
loop $-1 $235 $236 $93 #
cone-surface $-1 14.201993712498691 30.289470362927524 4.026872444758502 0 -0.86602541151947299 -0.49999998660252726 0.5 0 0 1 I I -0.70710678118654746 0.70710678118654746 0.5 forward I I I I #
loop $-1 $-1 $237 $59 #
coedge $-1 $150 $150 $238 $239 reversed $94 $-1 #
face $-1 $240 $241 $36 $-1 $242 reversed single #
loop $-1 $-1 $243 $96 #
plane-surface $-1 0 -33.135049091132529 0 0 1 0 0 0 1 forward_v I I I I #
coedge $-1 $244 $245 $246 $247 forward $97 $-1 #
coedge $-1 $248 $99 $249 $250 forward $61 $-1 #
coedge $-1 $99 $248 $251 $252 forward $61 $-1 #
coedge $-1 $253 $254 $99 $158 reversed $255 $-1 #
edge $-1 $256 -33.135049091132529 $257 33.135049091132529 $157 $258 forward 7 unknown #
face $-1 $259 $260 $37 $-1 $261 reversed single #
loop $-1 $-1 $262 $100 #
plane-surface $-1 -61.758912873421252 -24.231397959812256 0 -1 0 0 0 0 1 forward_v I I I I #
coedge $-1 $263 $264 $265 $266 forward $101 $-1 #
coedge $-1 $267 $103 $268 $269 reversed $64 $-1 #
coedge $-1 $103 $267 $270 $271 reversed $64 $-1 #
coedge $-1 $272 $273 $103 $166 forward $274 $-1 #
edge $-1 $275 -6.9121773295549582 $276 6.9121773295549582 $165 $277 forward 7 unknown #
face $-1 $278 $279 $38 $-1 $280 reversed single #
loop $-1 $-1 $281 $104 #
plane-surface $-1 -21.058981016077997 -149.04548083859379 78.2857763685724 1 0 0 0 0.83867057594974714 -0.54463902268945019 forward_v I I I I #
coedge $-1 $282 $283 $284 $285 reversed $105 $-1 #
coedge $-1 $172 $107 $286 $287 reversed $67 $-1 #
coedge $-1 $107 $171 $282 $288 reversed $67 $-1 #
coedge $-1 $284 $289 $107 $174 forward $290 $-1 #
edge $-1 $291 41.387691328164365 $292 43.920064628978537 $173 $293 forward 7 unknown #
loop $-1 $-1 $180 $108 #
plane-surface $-1 -9.4749645132959301 -33.135049091132544 3.0126642828656998 0 -0.83867057594974714 0.54463902268945019 1 0 0 forward_v I I I I #
loop $-1 $-1 $294 $69 #
coedge $-1 $178 $178 $179 $295 reversed $109 $-1 #
coedge $-1 $179 $179 $178 $295 forward $111 $-1 #
coedge $-1 $180 $180 $112 $181 forward $175 $-1 #
edge $-1 $296 1.1812315403595133e-015 $296 6.2831853071796013 $180 $297 forward 7 unknown #
loop $-1 $-1 $187 $113 #
plane-surface $-1 -9.4749645132959301 -33.135049091132544 3.0126642828656998 0 -0.83867057594974714 0.54463902268945019 1 0 0 forward_v I I I I #
loop $-1 $-1 $298 $72 #
coedge $-1 $185 $185 $186 $299 reversed $114 $-1 #
coedge $-1 $186 $186 $185 $299 forward $116 $-1 #
coedge $-1 $187 $187 $117 $188 forward $182 $-1 #
edge $-1 $300 1.1812315403595133e-015 $300 6.2831853071796013 $187 $301 forward 7 unknown #
loop $-1 $-1 $194 $118 #
plane-surface $-1 -9.4749645132959301 -33.135049091132544 3.0126642828656998 0 -0.83867057594974714 0.54463902268945019 1 0 0 forward_v I I I I #
loop $-1 $-1 $302 $75 #
coedge $-1 $192 $192 $193 $303 reversed $119 $-1 #
coedge $-1 $193 $193 $192 $303 forward $121 $-1 #
coedge $-1 $194 $194 $122 $195 forward $189 $-1 #
edge $-1 $304 1.1812315403595133e-015 $304 6.2831853071796013 $194 $305 forward 7 unknown #
face $-1 $306 $307 $42 $-1 $308 reversed single #
loop $-1 $-1 $309 $123 #
plane-surface $-1 3.6723792516343572 119.69107177086052 129.68020814122272 -1 0 0 0 0.86602541151947299 0.49999998660252726 forward_v I I I I #
coedge $-1 $310 $311 $312 $313 reversed $124 $-1 #
coedge $-1 $201 $126 $314 $315 reversed $79 $-1 #
coedge $-1 $126 $200 $310 $316 reversed $79 $-1 #
coedge $-1 $312 $317 $126 $203 forward $318 $-1 #
edge $-1 $319 26.710486794297729 $320 28.862402669788416 $202 $321 forward 7 unknown #
loop $-1 $-1 $209 $127 #
plane-surface $-1 -3.6983508709706712 8.8785182583706046e-007 60.576538616161869 0 0.86602541151947299 0.49999998660252726 1 0 0 forward_v I I I I #
loop $-1 $-1 $322 $81 #
coedge $-1 $207 $207 $208 $323 reversed $128 $-1 #
coedge $-1 $208 $208 $207 $323 forward $130 $-1 #
coedge $-1 $209 $209 $131 $210 forward $204 $-1 #
edge $-1 $324 -1.5383701628470323e-015 $324 6.2831853071795987 $209 $325 forward 7 unknown #
loop $-1 $-1 $216 $132 #
plane-surface $-1 -3.6983508709706712 8.8785182583706046e-007 60.576538616161869 0 0.86602541151947299 0.49999998660252726 1 0 0 forward_v I I I I #
loop $-1 $-1 $326 $84 #
coedge $-1 $214 $214 $215 $327 reversed $133 $-1 #
coedge $-1 $215 $215 $214 $327 forward $135 $-1 #
coedge $-1 $216 $216 $136 $217 forward $211 $-1 #
edge $-1 $328 -1.5383701628470323e-015 $328 6.2831853071795987 $216 $329 forward 7 unknown #
face $-1 $330 $331 $45 $-1 $332 forward single #
loop $-1 $-1 $333 $137 #
plane-surface $-1 0 33.135049091132529 0 0 -1 0 0 0 -1 forward_v I I I I #
coedge $-1 $334 $335 $336 $337 reversed $138 $-1 #
coedge $-1 $338 $140 $339 $340 reversed $88 $-1 #
coedge $-1 $140 $338 $341 $342 reversed $88 $-1 #
coedge $-1 $343 $344 $140 $225 forward $331 $-1 #
edge $-1 $345 -66.270098182265073 $346 -61.966266315962763 $224 $347 forward 7 unknown #
loop $-1 $-1 $231 $141 #
plane-surface $-1 -3.6983508709706712 8.8785182583706046e-007 60.576538616161869 0 0.86602541151947299 0.49999998660252726 1 0 0 forward_v I I I I #
loop $-1 $-1 $348 $90 #
coedge $-1 $229 $229 $230 $349 reversed $142 $-1 #
coedge $-1 $230 $230 $229 $349 forward $144 $-1 #
coedge $-1 $231 $231 $145 $232 forward $226 $-1 #
edge $-1 $350 -1.5383701628470323e-015 $350 6.2831853071795987 $231 $351 forward 7 unknown #
loop $-1 $-1 $238 $146 #
plane-surface $-1 -3.6983508709706712 8.8785182583706046e-007 60.576538616161869 0 0.86602541151947299 0.49999998660252726 1 0 0 forward_v I I I I #
loop $-1 $-1 $352 $93 #
coedge $-1 $236 $236 $237 $353 reversed $147 $-1 #
coedge $-1 $237 $237 $236 $353 forward $149 $-1 #
coedge $-1 $238 $238 $150 $239 forward $233 $-1 #
edge $-1 $354 -1.5383701628470323e-015 $354 6.2831853071795987 $238 $355 forward 7 unknown #
face $-1 $356 $357 $36 $-1 $358 reversed single #
loop $-1 $-1 $359 $151 #
plane-surface $-1 -69.10367137668996 0 0 1 0 0 0 0 -1 forward_v I I I I #
coedge $-1 $360 $251 $361 $362 forward $152 $-1 #
coedge $-1 $363 $154 $360 $364 forward $97 $-1 #
coedge $-1 $154 $363 $365 $366 forward $97 $-1 #
coedge $-1 $254 $253 $154 $247 reversed $255 $-1 #
edge $-1 $367 -33.135049091132529 $368 33.135049091132529 $246 $369 forward 7 unknown #
coedge $-1 $156 $155 $370 $371 forward $61 $-1 #
coedge $-1 $372 $373 $155 $250 reversed $357 $-1 #
edge $-1 $257 -69.10367137668996 $374 69.10367137668996 $249 $375 forward 7 unknown #
coedge $-1 $243 $376 $156 $252 reversed $152 $-1 #
edge $-1 $377 -69.10367137668996 $256 69.10367137668996 $251 $378 forward 7 unknown #
coedge $-1 $246 $157 $376 $379 forward $255 $-1 #
coedge $-1 $157 $246 $372 $380 reversed $255 $-1 #
loop $-1 $-1 $253 $356 #
vertex $-1 $158 $381 #
vertex $-1 $158 $382 #
straight-curve $-1 69.10367137668996 0 6.9121773295549582 0 1 0 I I #
face $-1 $383 $384 $37 $-1 $385 forward single #
loop $-1 $-1 $386 $159 #
plane-surface $-1 0 0 -6.9121773295549582 0 0 1 1 0 0 forward_v I I I I #
coedge $-1 $387 $388 $267 $389 forward $160 $-1 #
coedge $-1 $390 $162 $386 $391 reversed $101 $-1 #
coedge $-1 $162 $390 $392 $393 reversed $101 $-1 #
coedge $-1 $388 $387 $162 $266 reversed $160 $-1 #
edge $-1 $394 -6.9121773295549582 $395 6.9121773295549582 $265 $396 forward 7 unknown #
coedge $-1 $164 $163 $262 $389 reversed $64 $-1 #
coedge $-1 $397 $398 $163 $269 forward $260 $-1 #
edge $-1 $399 29.043266810893449 $275 36.388025314162157 $268 $400 forward 7 unknown #
coedge $-1 $401 $402 $164 $271 forward $384 $-1 #
edge $-1 $276 -36.388025314162157 $403 -29.043266810893449 $270 $404 forward 7 unknown #
coedge $-1 $405 $165 $402 $406 reversed $274 $-1 #
coedge $-1 $165 $405 $397 $407 reversed $274 $-1 #
loop $-1 $-1 $405 $383 #
vertex $-1 $407 $408 #
vertex $-1 $166 $409 #
straight-curve $-1 -69.10367137668996 -25.731397959812256 0 0 0 1 I I #
face $-1 $-1 $290 $38 $-1 $410 forward single #
loop $-1 $-1 $411 $167 #
plane-surface $-1 0 -33.135049091132529 0 0 1 0 0 0 1 forward_v I I I I #
coedge $-1 $412 $413 $414 $415 reversed $168 $-1 #
coedge $-1 $416 $170 $172 $288 forward $105 $-1 #
coedge $-1 $170 $416 $412 $417 forward $105 $-1 #
coedge $-1 $414 $173 $170 $285 forward $290 $-1 #
edge $-1 $292 -6.8465342461341017 $418 16.321498759430032 $284 $419 forward 7 unknown #
coedge $-1 $420 $421 $171 $287 forward $279 $-1 #
edge $-1 $422 -36.130223901420479 $291 -32.230710854731242 $286 $423 forward 7 unknown #
edge $-1 $292 -4.6496361724307311 $422 -2.5989569140172373e-014 $172 $424 forward 7 unknown #
coedge $-1 $173 $414 $420 $425 forward $290 $-1 #
loop $-1 $-1 $414 $278 #
vertex $-1 $287 $426 #
vertex $-1 $174 $427 #
straight-curve $-1 2.1090519894861366 -74.522740419296895 6.9121773295549573 0 1 0 I I #
coedge $-1 $294 $294 $-1 $428 reversed $177 $-1 #
edge $-1 $429 0 $429 6.2831853071796004 $178 $430 forward 7 unknown #
vertex $-1 $181 $431 #
ellipse-curve $-1 -16.425374414965177 -31.868862440725447 4.962420806210333 0 -0.83867057594974714 0.54463902268945019 0.5 0 0 1 I I #
coedge $-1 $298 $298 $-1 $432 reversed $184 $-1 #
edge $-1 $433 0 $433 6.2831853071796004 $185 $434 forward 7 unknown #
vertex $-1 $188 $435 #
ellipse-curve $-1 -9.4749645132959373 -31.868862440725447 4.962420806210333 0 -0.83867057594974714 0.54463902268945019 0.5 0 0 1 I I #
coedge $-1 $302 $302 $-1 $436 reversed $191 $-1 #
edge $-1 $437 0 $437 6.2831853071796004 $192 $438 forward 7 unknown #
vertex $-1 $195 $439 #
ellipse-curve $-1 -2.5245546116266979 -31.868862440725447 4.962420806210333 0 -0.83867057594974714 0.54463902268945019 0.5 0 0 1 I I #
face $-1 $-1 $318 $42 $-1 $440 forward single #
loop $-1 $-1 $441 $196 #
plane-surface $-1 0 33.135049091132529 0 0 -1 0 0 0 -1 forward_v I I I I #
coedge $-1 $442 $443 $444 $445 reversed $197 $-1 #
coedge $-1 $446 $199 $201 $316 forward $124 $-1 #
coedge $-1 $199 $446 $442 $447 forward $124 $-1 #
coedge $-1 $444 $202 $199 $313 forward $318 $-1 #
edge $-1 $320 -9.2199055580903639 $448 5.5215546871196928 $312 $449 forward 7 unknown #
coedge $-1 $450 $451 $200 $315 forward $307 $-1 #
edge $-1 $452 -61.655154504181482 $319 -57.927926741056403 $314 $453 forward 7 unknown #
edge $-1 $320 61.966266315962763 $452 66.270098182265073 $201 $454 forward 7 unknown #
coedge $-1 $202 $444 $450 $455 forward $318 $-1 #
loop $-1 $-1 $444 $306 #
vertex $-1 $315 $456 #
vertex $-1 $203 $457 #
straight-curve $-1 -11.0690809935757 59.845535885430259 6.9121773295549573 0 -1 0 I I #
coedge $-1 $322 $322 $-1 $458 reversed $206 $-1 #
edge $-1 $459 0 $459 6.2831853071796004 $207 $460 forward 7 unknown #
vertex $-1 $210 $461 #
ellipse-curve $-1 -6.8572352092299695 32.059091153387193 5.0485634479924091 0 0.86602541151947299 0.49999998660252726 1 0 0 1 I I #
coedge $-1 $326 $326 $-1 $462 reversed $213 $-1 #
edge $-1 $463 0 $463 6.2831853071796004 $214 $464 forward 7 unknown #
vertex $-1 $217 $465 #
ellipse-curve $-1 -0.53946653271137279 32.059091153387193 5.0485634479924091 0 0.86602541151947299 0.49999998660252726 1 0 0 1 I I #
face $-1 $-1 $466 $45 $-1 $467 forward single #
loop $-1 $-1 $343 $218 #
plane-surface $-1 3.6723792516343572 119.69107177086052 129.68020814122272 -1 0 0 0 0.86602541151947299 0.49999998660252726 forward_v I I I I #
coedge $-1 $339 $468 $335 $469 forward $219 $-1 #
coedge $-1 $335 $221 $338 $470 reversed $138 $-1 #
coedge $-1 $221 $334 $333 $469 reversed $138 $-1 #
coedge $-1 $471 $341 $221 $337 forward $466 $-1 #
edge $-1 $472 -28.862402669788416 $473 -26.710486794297729 $336 $474 forward 7 unknown #
coedge $-1 $223 $222 $334 $470 forward $88 $-1 #
coedge $-1 $475 $333 $222 $340 forward $219 $-1 #
edge $-1 $476 -20.263014932329757 $345 -5.5215546871196928 $339 $477 forward 7 unknown #
coedge $-1 $336 $478 $223 $342 forward $466 $-1 #
edge $-1 $346 5.5215546871196928 $472 20.263014932329757 $341 $479 forward 7 unknown #
coedge $-1 $344 $224 $478 $480 reversed $331 $-1 #
coedge $-1 $224 $343 $475 $481 reversed $331 $-1 #
vertex $-1 $340 $482 #
vertex $-1 $342 $483 #
straight-curve $-1 3.6723792516343572 8.8785182583706046e-007 60.576538616161869 0 -0.49999998660252726 0.86602541151947299 I I #
coedge $-1 $348 $348 $-1 $484 reversed $228 $-1 #
edge $-1 $485 0 $485 6.2831853071796004 $229 $486 forward 7 unknown #
vertex $-1 $232 $487 #
ellipse-curve $-1 7.8842250359800943 32.059091153387193 5.0485634479924091 0 0.86602541151947299 0.49999998660252726 1 0 0 1 I I #
coedge $-1 $352 $352 $-1 $488 reversed $235 $-1 #
edge $-1 $489 0 $489 6.2831853071796004 $236 $490 forward 7 unknown #
vertex $-1 $239 $491 #
ellipse-curve $-1 14.201993712498691 32.059091153387193 5.0485634479924091 0 0.86602541151947299 0.49999998660252726 1 0 0 1 I I #
face $-1 $-1 $255 $36 $-1 $492 reversed single #
loop $-1 $-1 $372 $240 #
plane-surface $-1 0 33.135049091132529 0 0 -1 0 0 0 -1 forward_v I I I I #
coedge $-1 $493 $370 $373 $494 forward $241 $-1 #
coedge $-1 $376 $243 $244 $364 reversed $152 $-1 #
coedge $-1 $370 $493 $243 $362 reversed $241 $-1 #
edge $-1 $377 -6.9121773295549582 $495 6.9121773295549582 $361 $496 forward 7 unknown #
coedge $-1 $245 $244 $493 $497 forward $97 $-1 #
edge $-1 $368 -69.10367137668996 $495 69.10367137668996 $360 $498 forward 7 unknown #
coedge $-1 $373 $372 $245 $366 reversed $357 $-1 #
edge $-1 $499 -69.10367137668996 $367 69.10367137668996 $365 $500 forward 7 unknown #
vertex $-1 $247 $501 #
vertex $-1 $379 $502 #
straight-curve $-1 69.10367137668996 0 -6.9121773295549582 0 -1 0 I I #
coedge $-1 $359 $361 $248 $371 reversed $241 $-1 #
edge $-1 $374 -33.135049091132529 $377 33.135049091132529 $370 $503 forward 7 unknown #
coedge $-1 $365 $249 $254 $380 forward $357 $-1 #
coedge $-1 $249 $365 $359 $494 reversed $357 $-1 #
vertex $-1 $250 $504 #
straight-curve $-1 0 33.135049091132529 6.9121773295549582 -1 0 0 I I #
coedge $-1 $251 $360 $253 $379 reversed $152 $-1 #
vertex $-1 $371 $505 #
straight-curve $-1 0 -33.135049091132529 6.9121773295549582 1 0 0 I I #
edge $-1 $256 -6.9121773295549582 $368 6.9121773295549582 $253 $506 forward 7 unknown #
edge $-1 $257 -6.9121773295549582 $367 6.9121773295549582 $254 $507 forward 7 unknown #
point $-1 69.10367137668996 -33.135049091132529 6.9121773295549582 #
point $-1 69.10367137668996 33.135049091132529 6.9121773295549582 #
face $-1 $-1 $274 $37 $-1 $508 reversed single #
loop $-1 $-1 $392 $259 #
plane-surface $-1 0 0 6.9121773295549582 0 0 1 1 0 0 forward_v I I I I #
coedge $-1 $398 $397 $263 $391 forward $260 $-1 #
coedge $-1 $265 $262 $398 $509 reversed $160 $-1 #
coedge $-1 $262 $265 $401 $510 reversed $160 $-1 #
edge $-1 $403 -6.9121773295549582 $399 6.9121773295549582 $262 $511 forward 7 unknown #
coedge $-1 $264 $263 $405 $512 reversed $101 $-1 #
edge $-1 $513 -36.388025314162157 $395 -29.043266810893449 $386 $514 forward 7 unknown #
coedge $-1 $402 $401 $264 $393 forward $384 $-1 #
edge $-1 $394 29.043266810893449 $515 36.388025314162157 $392 $516 forward 7 unknown #
vertex $-1 $393 $517 #
vertex $-1 $391 $518 #
straight-curve $-1 -61.758912873421252 -22.731397959812256 0 0 0 -1 I I #
coedge $-1 $386 $268 $273 $407 forward $260 $-1 #
coedge $-1 $268 $386 $387 $509 forward $260 $-1 #
vertex $-1 $269 $519 #
straight-curve $-1 -32.715646062527803 -25.731397959812256 -6.9121773295549582 -1 0 0 I I #
coedge $-1 $392 $270 $388 $510 forward $384 $-1 #
coedge $-1 $270 $392 $272 $406 forward $384 $-1 #
vertex $-1 $271 $520 #
straight-curve $-1 -32.715646062527803 -25.731397959812256 6.9121773295549582 1 0 0 I I #
coedge $-1 $273 $272 $390 $512 forward $274 $-1 #
edge $-1 $515 22.731397959812256 $276 25.731397959812256 $272 $521 forward 7 unknown #
edge $-1 $275 -25.731397959812256 $513 -22.731397959812256 $273 $522 forward 7 unknown #
point $-1 -69.10367137668996 -25.731397959812256 -6.9121773295549582 #
point $-1 -69.10367137668996 -25.731397959812256 6.9121773295549582 #
plane-surface $-1 0 0 6.9121773295549582 0 0 1 1 0 0 forward_v I I I I #
coedge $-1 $421 $420 $413 $523 forward $279 $-1 #
coedge $-1 $413 $281 $283 $417 reversed $168 $-1 #
coedge $-1 $281 $412 $411 $523 reversed $168 $-1 #
coedge $-1 $289 $284 $281 $415 forward $290 $-1 #
edge $-1 $418 -43.920064628978537 $524 -41.387691328164365 $414 $525 forward 7 unknown #
coedge $-1 $283 $282 $421 $526 reversed $105 $-1 #
edge $-1 $527 2.5989569140172373e-014 $418 4.6496361724307311 $412 $528 forward 7 unknown #
vertex $-1 $285 $529 #
straight-curve $-1 -4.7374822566479651 -30.602675790318354 6.9121773295549582 -1 0 0 I I #
coedge $-1 $411 $286 $289 $425 reversed $279 $-1 #
coedge $-1 $286 $411 $416 $526 forward $279 $-1 #
vertex $-1 $287 $530 #
straight-curve $-1 2.1090519894861366 -33.135049091132529 39.1428881842862 0 0 1 I I #
straight-curve $-1 2.1090519894861366 -33.135049091132544 3.0126642828656998 0 -0.54463902268945019 -0.83867057594974714 I I #
edge $-1 $524 -21.058981016077997 $291 2.1090519894861366 $420 $531 forward 7 unknown #
point $-1 2.1090519894861366 -33.135049091132529 6.9121773295549582 #
point $-1 2.1090519894861366 -30.602675790318354 6.9121773295549582 #
edge $-1 $532 1 $532 0 $294 $-1 forward 7 unknown #
vertex $-1 $295 $533 #
ellipse-curve $-1 -16.425374414965177 -30.326355621969142 3.9607051977810404 0 -0.83867057594974714 0.54463902268945019 0.5 0 0 1 I I #
point $-1 -15.925374414965177 -31.868862440725437 4.9624208062103268 #
edge $-1 $534 1 $534 0 $298 $-1 forward 7 unknown #
vertex $-1 $299 $535 #
ellipse-curve $-1 -9.4749645132959373 -30.326355621969142 3.9607051977810404 0 -0.83867057594974714 0.54463902268945019 0.5 0 0 1 I I #
point $-1 -8.9749645132959373 -31.868862440725437 4.9624208062103268 #
edge $-1 $536 1 $536 0 $302 $-1 forward 7 unknown #
vertex $-1 $303 $537 #
ellipse-curve $-1 -2.5245546116266979 -30.326355621969142 3.9607051977810404 0 -0.83867057594974714 0.54463902268945019 0.5 0 0 1 I I #
point $-1 -2.0245546116266979 -31.868862440725437 4.9624208062103268 #
plane-surface $-1 0 0 6.9121773295549582 0 0 1 1 0 0 forward_v I I I I #
coedge $-1 $451 $450 $443 $538 forward $307 $-1 #
coedge $-1 $443 $309 $311 $447 reversed $197 $-1 #
coedge $-1 $309 $442 $441 $538 reversed $197 $-1 #
coedge $-1 $317 $312 $309 $445 forward $318 $-1 #
edge $-1 $448 -28.862402669788416 $539 -26.710486794297729 $444 $540 forward 7 unknown #
coedge $-1 $311 $310 $451 $541 reversed $124 $-1 #
edge $-1 $542 -66.270098182265073 $448 -61.966266315962763 $442 $543 forward 7 unknown #
vertex $-1 $313 $544 #
straight-curve $-1 -1.8491754354853356 30.983133215641846 6.9121773295549573 1 0 0 I I #
coedge $-1 $441 $314 $317 $455 reversed $307 $-1 #
coedge $-1 $314 $441 $446 $541 forward $307 $-1 #
vertex $-1 $315 $545 #
straight-curve $-1 -11.0690809935757 33.135049091132529 64.84010407061136 0 0 1 I I #
straight-curve $-1 -11.0690809935757 8.8785182583706046e-007 60.576538616161869 0 0.49999998660252726 -0.86602541151947299 I I #
edge $-1 $539 -3.6723792516343572 $319 11.0690809935757 $450 $546 forward 7 unknown #
point $-1 -11.0690809935757 33.135049091132529 6.9121773295549582 #
point $-1 -11.0690809935757 30.983133215641843 6.9121773295549573 #
edge $-1 $547 1 $547 0 $322 $-1 forward 7 unknown #
vertex $-1 $323 $548 #
ellipse-curve $-1 -6.8572352092299695 30.722483068687261 4.2768724380597654 0 0.86602541151947299 0.49999998660252726 1 0 0 1 I I #
point $-1 -5.8572352092299695 32.059091153387193 5.0485634479924109 #
edge $-1 $549 1 $549 0 $326 $-1 forward 7 unknown #
vertex $-1 $327 $550 #
ellipse-curve $-1 -0.53946653271137279 30.722483068687261 4.2768724380597654 0 0.86602541151947299 0.49999998660252726 1 0 0 1 I I #
point $-1 0.46053346728862721 32.059091153387193 5.0485634479924109 #
loop $-1 $-1 $336 $330 #
plane-surface $-1 0 0 6.9121773295549582 0 0 1 1 0 0 forward_v I I I I #
coedge $-1 $333 $475 $471 $551 reversed $219 $-1 #
edge $-1 $473 57.927926741056403 $476 61.655154504181482 $333 $552 forward 7 unknown #
edge $-1 $476 -66.270098182265073 $472 -61.966266315962763 $334 $553 forward 7 unknown #
coedge $-1 $478 $336 $468 $551 forward $466 $-1 #
vertex $-1 $337 $554 #
vertex $-1 $551 $555 #
straight-curve $-1 18.413839496844421 59.845535885430259 6.9121773295549573 0 1 0 I I #
coedge $-1 $468 $339 $344 $481 forward $219 $-1 #
vertex $-1 $469 $556 #
straight-curve $-1 -1.8491754354853356 33.135049091132529 3.1849495664298786 -1 0 0 I I #
coedge $-1 $341 $471 $343 $480 forward $466 $-1 #
straight-curve $-1 -1.8491754354853356 30.983133215641846 6.9121773295549573 1 0 0 I I #
edge $-1 $557 26.710486794297729 $346 28.862402669788416 $478 $558 forward 7 unknown #
edge $-1 $345 -61.655154504181482 $557 -57.927926741056403 $475 $559 forward 7 unknown #
point $-1 3.6723792516343572 33.135049091132529 3.1849495664298786 #
point $-1 3.6723792516343572 30.983133215641843 6.9121773295549573 #
edge $-1 $560 1 $560 0 $348 $-1 forward 7 unknown #
vertex $-1 $349 $561 #
ellipse-curve $-1 7.8842250359800943 30.722483068687261 4.2768724380597654 0 0.86602541151947299 0.49999998660252726 1 0 0 1 I I #
point $-1 8.8842250359800943 32.059091153387193 5.0485634479924109 #
edge $-1 $562 1 $562 0 $352 $-1 forward 7 unknown #
vertex $-1 $353 $563 #
ellipse-curve $-1 14.201993712498691 30.722483068687261 4.2768724380597654 0 0.86602541151947299 0.49999998660252726 1 0 0 1 I I #
point $-1 15.201993712498691 32.059091153387193 5.0485634479924109 #
plane-surface $-1 69.10367137668996 0 0 -1 0 0 0 0 1 forward_v I I I I #
coedge $-1 $361 $359 $363 $497 reversed $241 $-1 #
edge $-1 $374 -6.9121773295549582 $499 6.9121773295549582 $373 $564 forward 7 unknown #
vertex $-1 $497 $565 #
straight-curve $-1 -69.10367137668996 -33.135049091132529 0 0 0 -1 I I #
edge $-1 $495 -33.135049091132529 $499 33.135049091132529 $493 $566 forward 7 unknown #
straight-curve $-1 0 -33.135049091132529 -6.9121773295549582 -1 0 0 I I #
vertex $-1 $366 $567 #
straight-curve $-1 0 33.135049091132529 -6.9121773295549582 1 0 0 I I #
point $-1 69.10367137668996 33.135049091132529 -6.9121773295549582 #
point $-1 69.10367137668996 -33.135049091132529 -6.9121773295549582 #
straight-curve $-1 -69.10367137668996 0 6.9121773295549582 0 -1 0 I I #
point $-1 -69.10367137668996 33.135049091132529 6.9121773295549582 #
point $-1 -69.10367137668996 -33.135049091132529 6.9121773295549582 #
straight-curve $-1 69.10367137668996 -33.135049091132529 0 0 0 -1 I I #
straight-curve $-1 69.10367137668996 33.135049091132529 0 0 0 -1 I I #
plane-surface $-1 -69.10367137668996 0 0 1 0 0 0 0 -1 forward_v I I I I #
edge $-1 $395 10.615698979906128 $399 13.615698979906128 $398 $568 forward 7 unknown #
edge $-1 $403 -13.615698979906128 $394 -10.615698979906128 $401 $569 forward 7 unknown #
straight-curve $-1 -61.758912873421252 -25.731397959812256 0 0 0 -1 I I #
edge $-1 $515 -6.9121773295549582 $513 6.9121773295549582 $405 $570 forward 7 unknown #
vertex $-1 $512 $571 #
straight-curve $-1 -32.715646062527803 -22.731397959812256 -6.9121773295549582 1 0 0 I I #
vertex $-1 $406 $572 #
straight-curve $-1 -32.715646062527803 -22.731397959812256 6.9121773295549582 -1 0 0 I I #
point $-1 -61.758912873421252 -22.731397959812256 6.9121773295549582 #
point $-1 -61.758912873421252 -22.731397959812256 -6.9121773295549582 #
point $-1 -61.758912873421252 -25.731397959812256 -6.9121773295549582 #
point $-1 -61.758912873421252 -25.731397959812256 6.9121773295549582 #
straight-curve $-1 -69.10367137668996 0 6.9121773295549582 0 -1 0 I I #
straight-curve $-1 -69.10367137668996 0 -6.9121773295549582 0 1 0 I I #
edge $-1 $524 32.230710854731242 $527 36.130223901420479 $411 $573 forward 7 unknown #
vertex $-1 $425 $574 #
straight-curve $-1 -21.058981016077997 -74.522740419296895 6.9121773295549573 0 -1 0 I I #
edge $-1 $527 -16.321498759430032 $422 6.8465342461341017 $421 $575 forward 7 unknown #
vertex $-1 $526 $576 #
straight-curve $-1 -21.058981016077997 -33.135049091132544 3.0126642828656998 0 0.54463902268945019 0.83867057594974714 I I #
point $-1 -21.058981016077997 -30.602675790318354 6.9121773295549582 #
point $-1 2.1090519894861366 -33.135049091132529 3.0126642828657215 #
straight-curve $-1 0 -33.135049091132529 6.9121773295549582 1 0 0 I I #
vertex $-1 $428 $577 #
point $-1 -15.925374414965177 -30.326355621969142 3.9607051977810404 #
vertex $-1 $432 $578 #
point $-1 -8.9749645132959373 -30.326355621969142 3.9607051977810404 #
vertex $-1 $436 $579 #
point $-1 -2.0245546116266979 -30.326355621969142 3.9607051977810404 #
edge $-1 $539 57.927926741056403 $542 61.655154504181482 $441 $580 forward 7 unknown #
vertex $-1 $455 $581 #
straight-curve $-1 3.6723792516343572 59.845535885430259 6.9121773295549573 0 1 0 I I #
edge $-1 $542 -5.5215546871196928 $452 9.2199055580903639 $451 $582 forward 7 unknown #
vertex $-1 $541 $583 #
straight-curve $-1 3.6723792516343572 8.8785182583706046e-007 60.576538616161869 0 -0.49999998660252726 0.86602541151947299 I I #
point $-1 3.6723792516343572 30.983133215641843 6.9121773295549573 #
point $-1 -11.0690809935757 33.135049091132529 3.1849495664298786 #
straight-curve $-1 0 33.135049091132529 6.9121773295549582 -1 0 0 I I #
vertex $-1 $458 $584 #
point $-1 -5.8572352092299695 30.722483068687261 4.2768724380597654 #
vertex $-1 $462 $585 #
point $-1 0.46053346728862721 30.722483068687261 4.2768724380597654 #
edge $-1 $473 -18.413839496844421 $557 -3.6723792516343572 $468 $586 forward 7 unknown #
straight-curve $-1 18.413839496844421 33.135049091132529 64.84010407061136 0 0 -1 I I #
straight-curve $-1 18.413839496844421 8.8785182583706046e-007 60.576538616161869 0 -0.49999998660252726 0.86602541151947299 I I #
point $-1 18.413839496844421 30.983133215641843 6.9121773295549573 #
point $-1 18.413839496844421 33.135049091132529 6.9121773295549582 #
point $-1 18.413839496844421 33.135049091132529 3.1849495664298786 #
vertex $-1 $481 $587 #
straight-curve $-1 3.6723792516343572 59.845535885430259 6.9121773295549573 0 -1 0 I I #
straight-curve $-1 3.6723792516343572 33.135049091132529 64.84010407061136 0 0 1 I I #
vertex $-1 $484 $588 #
point $-1 8.8842250359800943 30.722483068687261 4.2768724380597654 #
vertex $-1 $488 $589 #
point $-1 15.201993712498691 30.722483068687261 4.2768724380597654 #
straight-curve $-1 -69.10367137668996 33.135049091132529 0 0 0 -1 I I #
point $-1 -69.10367137668996 -33.135049091132529 -6.9121773295549582 #
straight-curve $-1 -69.10367137668996 0 -6.9121773295549582 0 1 0 I I #
point $-1 -69.10367137668996 33.135049091132529 -6.9121773295549582 #
straight-curve $-1 -61.758912873421252 -12.115698979906128 -6.9121773295549582 0 -1 0 I I #
straight-curve $-1 -61.758912873421252 -12.115698979906128 6.9121773295549582 0 1 0 I I #
straight-curve $-1 -69.10367137668996 -22.731397959812256 0 0 0 -1 I I #
point $-1 -69.10367137668996 -22.731397959812256 -6.9121773295549582 #
point $-1 -69.10367137668996 -22.731397959812256 6.9121773295549582 #
straight-curve $-1 -21.058981016077997 -33.135049091132529 39.1428881842862 0 0 -1 I I #
point $-1 -21.058981016077997 -33.135049091132529 6.9121773295549582 #
straight-curve $-1 -4.7374822566479651 -33.135049091132529 3.0126642828657233 1 0 0 I I #
point $-1 -21.058981016077997 -33.135049091132529 3.0126642828657215 #
point $-1 -16.425374414965177 -29.907020333994268 3.688385686436316 #
point $-1 -9.4749645132959373 -29.907020333994268 3.688385686436316 #
point $-1 -2.5245546116266979 -29.907020333994268 3.688385686436316 #
straight-curve $-1 3.6723792516343572 33.135049091132529 64.84010407061136 0 0 -1 I I #
point $-1 3.6723792516343572 33.135049091132529 6.9121773295549582 #
straight-curve $-1 -1.8491754354853356 33.135049091132529 3.1849495664298786 -1 0 0 I I #
point $-1 3.6723792516343572 33.135049091132529 3.1849495664298786 #
point $-1 -6.8572352092299695 29.856457657167788 3.7768724514572383 #
point $-1 -0.53946653271137279 29.856457657167788 3.7768724514572383 #
straight-curve $-1 0 33.135049091132529 6.9121773295549582 -1 0 0 I I #
point $-1 3.6723792516343572 33.135049091132529 6.9121773295549582 #
point $-1 7.8842250359800943 29.856457657167788 3.7768724514572383 #
point $-1 14.201993712498691 29.856457657167788 3.7768724514572383 #
End-of-ACIS-data 