500 0 5 0           
7 Unknown 11 ACIS 5.0 NT 24 Fri Mar 26 17:01:40 1999 
-1 9.9999999999999995e-007 1e-010 
body $-1 $5 $-1 $6 #
body $-1 $7 $-1 $8 #
body $-1 $9 $-1 $10 #
body $-1 $11 $-1 $12 #
body $-1 $13 $-1 $14 #
lump $-1 $-1 $15 $0 #
transform $-1 1 0 0 0 1 0 0 0 1 72.413098544267086 32.982247054167736 14.799483633311649 1 rotate no_reflect no_shear #
lump $-1 $-1 $16 $1 #
transform $-1 1 0 0 0 0.61566146476048833 0.78801076186113728 0 -0.78801076186113728 0.61566146476048833 18.024490280980768 -114.12460190518703 109.9259719981472 1 rotate no_reflect no_shear #
lump $-1 $-1 $17 $2 #
transform $-1 1 0 0 0 -0.61566146476048833 -0.78801076186113728 0 0.78801076186113728 -0.61566146476048833 7.2097961123923069 7.4016019873717891 22.094805097296703 1 rotate no_reflect no_shear #
lump $-1 $-1 $18 $3 #
transform $-1 1 0 0 0 -0.61566146476048833 -0.78801076186113728 0 0.78801076186113728 -0.61566146476048833 18.024490280980768 7.4016019873717891 22.094805097296703 1 rotate no_reflect no_shear #
lump $-1 $-1 $19 $4 #
transform $-1 1 0 0 0 -0.61566146476048833 -0.78801076186113728 0 0.78801076186113728 -0.61566146476048833 28.839184449569228 7.4016019873717891 22.094805097296703 1 rotate no_reflect no_shear #
shell $-1 $-1 $-1 $20 $-1 $5 #
shell $-1 $-1 $-1 $21 $-1 $7 #
shell $-1 $-1 $-1 $22 $-1 $9 #
shell $-1 $-1 $-1 $23 $-1 $11 #
shell $-1 $-1 $-1 $24 $-1 $13 #
face $-1 $25 $26 $15 $-1 $27 forward single #
face $-1 $28 $29 $16 $-1 $30 forward single #
face $-1 $31 $32 $17 $-1 $33 forward single #
face $-1 $34 $35 $18 $-1 $36 forward single #
face $-1 $37 $38 $19 $-1 $39 forward single #
face $-1 $40 $41 $15 $-1 $42 reversed single #
loop $-1 $-1 $43 $20 #
plane-surface $-1 0 0 14.799483633311649 0 0 1 1 0 0 forward_v I I I I #
face $-1 $44 $45 $16 $-1 $46 reversed single #
loop $-1 $-1 $47 $21 #
plane-surface $-1 0 0 144.82619708853417 0 0 1 1 0 0 forward_v I I I I #
face $-1 $48 $49 $17 $-1 $50 forward single #
loop $-1 $51 $52 $22 #
cone-surface $-1 0 0 -3.0060121463667713 0 0 1 2 0 0 1 I I 0 1 2 forward I I I I #
face $-1 $53 $54 $18 $-1 $55 forward single #
loop $-1 $56 $57 $23 #
cone-surface $-1 0 0 -3.0060121463667713 0 0 1 2 0 0 1 I I 0 1 2 forward I I I I #
face $-1 $58 $59 $19 $-1 $60 forward single #
loop $-1 $61 $62 $24 #
cone-surface $-1 0 0 -3.0060121463667713 0 0 1 2 0 0 1 I I 0 1 2 forward I I I I #
face $-1 $63 $64 $15 $-1 $65 reversed single #
loop $-1 $-1 $66 $25 #
plane-surface $-1 0 0 -14.799483633311649 0 0 1 1 0 0 forward_v I I I I #
coedge $-1 $67 $68 $69 $70 forward $26 $-1 #
face $-1 $71 $72 $16 $-1 $73 reversed single #
loop $-1 $-1 $74 $28 #
plane-surface $-1 0 0 -144.82619708853417 0 0 1 1 0 0 forward_v I I I I #
coedge $-1 $75 $76 $77 $78 forward $29 $-1 #
face $-1 $-1 $79 $17 $-1 $80 forward single #
loop $-1 $-1 $81 $31 #
plane-surface $-1 0 0 -5.0120242927335426 0 0 -1 -1 0 0 forward_v I I I I #
loop $-1 $-1 $82 $22 #
coedge $-1 $52 $52 $81 $83 reversed $32 $-1 #
face $-1 $-1 $84 $18 $-1 $85 forward single #
loop $-1 $-1 $86 $34 #
plane-surface $-1 0 0 -5.0120242927335426 0 0 -1 -1 0 0 forward_v I I I I #
loop $-1 $-1 $87 $23 #
coedge $-1 $57 $57 $86 $88 reversed $35 $-1 #
face $-1 $-1 $89 $19 $-1 $90 forward single #
loop $-1 $-1 $91 $37 #
plane-surface $-1 0 0 -5.0120242927335426 0 0 -1 -1 0 0 forward_v I I I I #
loop $-1 $-1 $92 $24 #
coedge $-1 $62 $62 $91 $93 reversed $38 $-1 #
face $-1 $94 $95 $15 $-1 $96 reversed single #
loop $-1 $-1 $97 $40 #
plane-surface $-1 0 -32.982247054167736 0 0 1 0 0 0 1 forward_v I I I I #
coedge $-1 $98 $99 $100 $101 forward $41 $-1 #
coedge $-1 $102 $43 $103 $104 forward $26 $-1 #
coedge $-1 $43 $102 $105 $106 forward $26 $-1 #
coedge $-1 $107 $108 $43 $70 reversed $109 $-1 #
edge $-1 $110 -32.982247054167736 $111 32.982247054167736 $69 $112 forward 7 unknown #
face $-1 $113 $114 $16 $-1 $115 reversed single #
loop $-1 $-1 $116 $44 #
plane-surface $-1 0 -289.65239417706835 0 0 1 0 0 0 1 forward_v I I I I #
coedge $-1 $117 $118 $119 $120 forward $45 $-1 #
coedge $-1 $121 $47 $122 $123 forward $29 $-1 #
coedge $-1 $47 $121 $124 $125 forward $29 $-1 #
coedge $-1 $126 $127 $47 $78 reversed $128 $-1 #
edge $-1 $129 -289.65239417706835 $130 289.65239417706835 $77 $131 forward 7 unknown #
loop $-1 $132 $133 $48 #
cone-surface $-1 0 0 0 0 0 1 1 0 0 1 I I -0.70710678118654746 0.70710678118654746 1 forward I I I I #
coedge $-1 $81 $81 $52 $83 forward $49 $-1 #
coedge $-1 $82 $82 $133 $134 forward $51 $-1 #
edge $-1 $135 0 $135 6.2831853071796004 $81 $136 forward 7 unknown #
loop $-1 $137 $138 $53 #
cone-surface $-1 0 0 0 0 0 1 1 0 0 1 I I -0.70710678118654746 0.70710678118654746 1 forward I I I I #
coedge $-1 $86 $86 $57 $88 forward $54 $-1 #
coedge $-1 $87 $87 $138 $139 forward $56 $-1 #
edge $-1 $140 0 $140 6.2831853071796004 $86 $141 forward 7 unknown #
loop $-1 $142 $143 $58 #
cone-surface $-1 0 0 0 0 0 1 1 0 0 1 I I -0.70710678118654746 0.70710678118654746 1 forward I I I I #
coedge $-1 $91 $91 $62 $93 forward $59 $-1 #
coedge $-1 $92 $92 $143 $144 forward $61 $-1 #
edge $-1 $145 0 $145 6.2831853071796004 $91 $146 forward 7 unknown #
face $-1 $147 $148 $15 $-1 $149 reversed single #
loop $-1 $-1 $150 $63 #
plane-surface $-1 -72.413098544267086 0 0 1 0 0 0 0 -1 forward_v I I I I #
coedge $-1 $151 $105 $152 $153 forward $64 $-1 #
coedge $-1 $154 $66 $151 $155 forward $41 $-1 #
coedge $-1 $66 $154 $156 $157 forward $41 $-1 #
coedge $-1 $108 $107 $66 $101 reversed $109 $-1 #
edge $-1 $158 -32.982247054167736 $159 32.982247054167736 $100 $160 forward 7 unknown #
coedge $-1 $68 $67 $161 $162 forward $26 $-1 #
coedge $-1 $163 $164 $67 $104 reversed $148 $-1 #
edge $-1 $111 -72.413098544267086 $165 72.413098544267086 $103 $166 forward 7 unknown #
coedge $-1 $97 $167 $68 $106 reversed $64 $-1 #
edge $-1 $168 -72.413098544267086 $110 72.413098544267086 $105 $169 forward 7 unknown #
coedge $-1 $100 $69 $167 $170 forward $109 $-1 #
coedge $-1 $69 $100 $163 $171 reversed $109 $-1 #
loop $-1 $-1 $107 $147 #
vertex $-1 $70 $172 #
vertex $-1 $70 $173 #
straight-curve $-1 72.413098544267086 0 14.799483633311649 0 1 0 I I #
face $-1 $174 $175 $16 $-1 $176 reversed single #
loop $-1 $-1 $177 $71 #
plane-surface $-1 -18.024490280980768 0 0 1 0 0 0 0 -1 forward_v I I I I #
coedge $-1 $178 $124 $179 $180 forward $72 $-1 #
coedge $-1 $181 $74 $178 $182 forward $45 $-1 #
coedge $-1 $74 $181 $183 $184 forward $45 $-1 #
coedge $-1 $127 $126 $74 $120 reversed $128 $-1 #
edge $-1 $185 -289.65239417706835 $186 289.65239417706835 $119 $187 forward 7 unknown #
coedge $-1 $76 $75 $188 $189 forward $29 $-1 #
coedge $-1 $190 $191 $75 $123 reversed $175 $-1 #
edge $-1 $130 -18.024490280980768 $192 18.024490280980768 $122 $193 forward 7 unknown #
coedge $-1 $116 $194 $76 $125 reversed $72 $-1 #
edge $-1 $195 -18.024490280980768 $129 18.024490280980768 $124 $196 forward 7 unknown #
coedge $-1 $119 $77 $194 $197 forward $128 $-1 #
coedge $-1 $77 $119 $190 $198 reversed $128 $-1 #
loop $-1 $-1 $126 $174 #
vertex $-1 $78 $199 #
vertex $-1 $78 $200 #
straight-curve $-1 18.024490280980768 0 144.82619708853417 0 1 0 I I #
loop $-1 $-1 $201 $48 #
coedge $-1 $133 $133 $82 $134 reversed $79 $-1 #
edge $-1 $202 0 $202 6.2831853071796004 $133 $203 forward 7 unknown #
vertex $-1 $83 $204 #
ellipse-curve $-1 0 0 -5.0120242927335426 0 0 -1 2 0 0 1 I I #
loop $-1 $-1 $205 $53 #
coedge $-1 $138 $138 $87 $139 reversed $84 $-1 #
edge $-1 $206 0 $206 6.2831853071796004 $138 $207 forward 7 unknown #
vertex $-1 $88 $208 #
ellipse-curve $-1 0 0 -5.0120242927335426 0 0 -1 2 0 0 1 I I #
loop $-1 $-1 $209 $58 #
coedge $-1 $143 $143 $92 $144 reversed $89 $-1 #
edge $-1 $210 0 $210 6.2831853071796004 $143 $211 forward 7 unknown #
vertex $-1 $93 $212 #
ellipse-curve $-1 0 0 -5.0120242927335426 0 0 -1 2 0 0 1 I I #
face $-1 $-1 $109 $15 $-1 $213 reversed single #
loop $-1 $-1 $163 $94 #
plane-surface $-1 0 32.982247054167736 0 0 -1 0 0 0 -1 forward_v I I I I #
coedge $-1 $214 $161 $164 $215 forward $95 $-1 #
coedge $-1 $167 $97 $98 $155 reversed $64 $-1 #
coedge $-1 $161 $214 $97 $153 reversed $95 $-1 #
edge $-1 $168 -14.799483633311649 $216 14.799483633311649 $152 $217 forward 7 unknown #
coedge $-1 $99 $98 $214 $218 forward $41 $-1 #
edge $-1 $159 -72.413098544267086 $216 72.413098544267086 $151 $219 forward 7 unknown #
coedge $-1 $164 $163 $99 $157 reversed $148 $-1 #
edge $-1 $220 -72.413098544267086 $158 72.413098544267086 $156 $221 forward 7 unknown #
vertex $-1 $101 $222 #
vertex $-1 $170 $223 #
straight-curve $-1 72.413098544267086 0 -14.799483633311649 0 -1 0 I I #
coedge $-1 $150 $152 $102 $162 reversed $95 $-1 #
edge $-1 $165 -32.982247054167736 $168 32.982247054167736 $161 $224 forward 7 unknown #
coedge $-1 $156 $103 $108 $171 forward $148 $-1 #
coedge $-1 $103 $156 $150 $215 reversed $148 $-1 #
vertex $-1 $104 $225 #
straight-curve $-1 0 32.982247054167736 14.799483633311649 -1 0 0 I I #
coedge $-1 $105 $151 $107 $170 reversed $64 $-1 #
vertex $-1 $162 $226 #
straight-curve $-1 0 -32.982247054167736 14.799483633311649 1 0 0 I I #
edge $-1 $110 -14.799483633311649 $159 14.799483633311649 $107 $227 forward 7 unknown #
edge $-1 $111 -14.799483633311649 $158 14.799483633311649 $108 $228 forward 7 unknown #
point $-1 72.413098544267086 -32.982247054167736 14.799483633311649 #
point $-1 72.413098544267086 32.982247054167736 14.799483633311649 #
face $-1 $-1 $128 $16 $-1 $229 reversed single #
loop $-1 $-1 $190 $113 #
plane-surface $-1 0 289.65239417706835 0 0 -1 0 0 0 -1 forward_v I I I I #
coedge $-1 $230 $188 $191 $231 forward $114 $-1 #
coedge $-1 $194 $116 $117 $182 reversed $72 $-1 #
coedge $-1 $188 $230 $116 $180 reversed $114 $-1 #
edge $-1 $195 -144.82619708853417 $232 144.82619708853417 $179 $233 forward 7 unknown #
coedge $-1 $118 $117 $230 $234 forward $45 $-1 #
edge $-1 $186 -18.024490280980768 $232 18.024490280980768 $178 $235 forward 7 unknown #
coedge $-1 $191 $190 $118 $184 reversed $175 $-1 #
edge $-1 $236 -18.024490280980768 $185 18.024490280980768 $183 $237 forward 7 unknown #
vertex $-1 $120 $238 #
vertex $-1 $197 $239 #
straight-curve $-1 18.024490280980768 0 -144.82619708853417 0 -1 0 I I #
coedge $-1 $177 $179 $121 $189 reversed $114 $-1 #
edge $-1 $192 -289.65239417706835 $195 289.65239417706835 $188 $240 forward 7 unknown #
coedge $-1 $183 $122 $127 $198 forward $175 $-1 #
coedge $-1 $122 $183 $177 $231 reversed $175 $-1 #
vertex $-1 $123 $241 #
straight-curve $-1 0 289.65239417706835 144.82619708853417 -1 0 0 I I #
coedge $-1 $124 $178 $126 $197 reversed $72 $-1 #
vertex $-1 $189 $242 #
straight-curve $-1 0 -289.65239417706835 144.82619708853417 1 0 0 I I #
edge $-1 $129 -144.82619708853417 $186 144.82619708853417 $126 $243 forward 7 unknown #
edge $-1 $130 -144.82619708853417 $185 144.82619708853417 $127 $244 forward 7 unknown #
point $-1 18.024490280980768 -289.65239417706835 144.82619708853417 #
point $-1 18.024490280980768 289.65239417706835 144.82619708853417 #
coedge $-1 $201 $201 $-1 $245 reversed $132 $-1 #
vertex $-1 $134 $246 #
ellipse-curve $-1 0 0 -1 0 0 -1 2 0 0 1 I I #
point $-1 2 0 -5.0120242927335426 #
coedge $-1 $205 $205 $-1 $247 reversed $137 $-1 #
vertex $-1 $139 $248 #
ellipse-curve $-1 0 0 -1 0 0 -1 2 0 0 1 I I #
point $-1 2 0 -5.0120242927335426 #
coedge $-1 $209 $209 $-1 $249 reversed $142 $-1 #
vertex $-1 $144 $250 #
ellipse-curve $-1 0 0 -1 0 0 -1 2 0 0 1 I I #
point $-1 2 0 -5.0120242927335426 #
plane-surface $-1 72.413098544267086 0 0 -1 0 0 0 0 1 forward_v I I I I #
coedge $-1 $152 $150 $154 $218 reversed $95 $-1 #
edge $-1 $165 -14.799483633311649 $220 14.799483633311649 $164 $251 forward 7 unknown #
vertex $-1 $218 $252 #
straight-curve $-1 -72.413098544267086 -32.982247054167736 0 0 0 -1 I I #
edge $-1 $216 -32.982247054167736 $220 32.982247054167736 $214 $253 forward 7 unknown #
straight-curve $-1 0 -32.982247054167736 -14.799483633311649 -1 0 0 I I #
vertex $-1 $157 $254 #
straight-curve $-1 0 32.982247054167736 -14.799483633311649 1 0 0 I I #
point $-1 72.413098544267086 32.982247054167736 -14.799483633311649 #
point $-1 72.413098544267086 -32.982247054167736 -14.799483633311649 #
straight-curve $-1 -72.413098544267086 0 14.799483633311649 0 -1 0 I I #
point $-1 -72.413098544267086 32.982247054167736 14.799483633311649 #
point $-1 -72.413098544267086 -32.982247054167736 14.799483633311649 #
straight-curve $-1 72.413098544267086 -32.982247054167736 0 0 0 -1 I I #
straight-curve $-1 72.413098544267086 32.982247054167736 0 0 0 -1 I I #
plane-surface $-1 18.024490280980768 0 0 -1 0 0 0 0 1 forward_v I I I I #
coedge $-1 $179 $177 $181 $234 reversed $114 $-1 #
edge $-1 $192 -144.82619708853417 $236 144.82619708853417 $191 $255 forward 7 unknown #
vertex $-1 $234 $256 #
straight-curve $-1 -18.024490280980768 -289.65239417706835 0 0 0 -1 I I #
edge $-1 $232 -289.65239417706835 $236 289.65239417706835 $230 $257 forward 7 unknown #
straight-curve $-1 0 -289.65239417706835 -144.82619708853417 -1 0 0 I I #
vertex $-1 $184 $258 #
straight-curve $-1 0 289.65239417706835 -144.82619708853417 1 0 0 I I #
point $-1 18.024490280980768 289.65239417706835 -144.82619708853417 #
point $-1 18.024490280980768 -289.65239417706835 -144.82619708853417 #
straight-curve $-1 -18.024490280980768 0 144.82619708853417 0 -1 0 I I #
point $-1 -18.024490280980768 289.65239417706835 144.82619708853417 #
point $-1 -18.024490280980768 -289.65239417706835 144.82619708853417 #
straight-curve $-1 18.024490280980768 -289.65239417706835 0 0 0 -1 I I #
straight-curve $-1 18.024490280980768 289.65239417706835 0 0 0 -1 I I #
edge $-1 $259 1 $259 0 $201 $-1 forward 7 unknown #
point $-1 2 0 -1 #
edge $-1 $260 1 $260 0 $205 $-1 forward 7 unknown #
point $-1 2 0 -1 #
edge $-1 $261 1 $261 0 $209 $-1 forward 7 unknown #
point $-1 2 0 -1 #
straight-curve $-1 -72.413098544267086 32.982247054167736 0 0 0 -1 I I #
point $-1 -72.413098544267086 -32.982247054167736 -14.799483633311649 #
straight-curve $-1 -72.413098544267086 0 -14.799483633311649 0 1 0 I I #
point $-1 -72.413098544267086 32.982247054167736 -14.799483633311649 #
straight-curve $-1 -18.024490280980768 289.65239417706835 0 0 0 -1 I I #
point $-1 -18.024490280980768 -289.65239417706835 -144.82619708853417 #
straight-curve $-1 -18.024490280980768 0 -144.82619708853417 0 1 0 I I #
point $-1 -18.024490280980768 289.65239417706835 -144.82619708853417 #
vertex $-1 $245 $262 #
vertex $-1 $247 $263 #
vertex $-1 $249 $264 #
point $-1 0 0 1 #
point $-1 0 0 1 #
point $-1 0 0 1 #
End-of-ACIS-data 