500 0 9 0           
7 Unknown 11 ACIS 5.0 NT 24 Fri Mar 26 17:12:49 1999 
-1 9.9999999999999995e-007 1e-010 
body $-1 $9 $-1 $10 #
body $-1 $11 $-1 $12 #
body $-1 $13 $-1 $14 #
body $-1 $15 $-1 $16 #
body $-1 $17 $-1 $18 #
body $-1 $19 $-1 $20 #
body $-1 $21 $-1 $22 #
body $-1 $23 $-1 $24 #
body $-1 $25 $-1 $26 #
lump $-1 $-1 $27 $0 #
transform $-1 1 0 0 0 1 0 0 0 1 58.294015320291756 35.077992744980882 15.571579914873757 1 rotate no_reflect no_shear #
lump $-1 $-1 $28 $1 #
transform $-1 1 0 0 0 1 0 0 0 1 58.294015320291756 35.077992744980882 15.571579914873757 1 rotate no_reflect no_shear #
lump $-1 $-1 $29 $2 #
transform $-1 1 0 0 0 1 0 0 0 1 58.294015320291756 35.077992744980882 15.571579914873757 1 rotate no_reflect no_shear #
lump $-1 $-1 $30 $3 #
transform $-1 1 0 0 0 1 0 0 0 1 58.294015320291756 35.077992744980882 15.571579914873757 1 rotate no_reflect no_shear #
lump $-1 $-1 $31 $4 #
transform $-1 1 0 0 0 1 0 0 0 1 58.294015320291756 35.077992744980882 15.571579914873757 1 rotate no_reflect no_shear #
lump $-1 $-1 $32 $5 #
transform $-1 1 0 0 0 1 0 0 0 1 58.294015320291756 35.077992744980882 15.571579914873757 1 rotate no_reflect no_shear #
lump $-1 $-1 $33 $6 #
transform $-1 1 0 0 0 1 0 0 0 1 58.294015320291756 35.077992744980882 15.571579914873757 1 rotate no_reflect no_shear #
lump $-1 $-1 $34 $7 #
transform $-1 1 0 0 0 1 0 0 0 1 58.294015320291756 35.077992744980882 15.571579914873757 1 rotate no_reflect no_shear #
lump $-1 $-1 $35 $8 #
transform $-1 1 0 0 0 1 0 0 0 1 58.294015320291756 35.077992744980882 15.571579914873757 1 rotate no_reflect no_shear #
shell $-1 $-1 $-1 $36 $-1 $9 #
shell $-1 $-1 $-1 $37 $-1 $11 #
shell $-1 $-1 $-1 $38 $-1 $13 #
shell $-1 $-1 $-1 $39 $-1 $15 #
shell $-1 $-1 $-1 $40 $-1 $17 #
shell $-1 $-1 $-1 $41 $-1 $19 #
shell $-1 $-1 $-1 $42 $-1 $21 #
shell $-1 $-1 $-1 $43 $-1 $23 #
shell $-1 $-1 $-1 $44 $-1 $25 #
face $-1 $45 $46 $27 $-1 $47 forward single #
face $-1 $48 $49 $28 $-1 $50 reversed single #
face $-1 $51 $52 $29 $-1 $53 reversed single #
face $-1 $54 $55 $30 $-1 $56 forward single #
face $-1 $57 $58 $31 $-1 $59 reversed single #
face $-1 $60 $61 $32 $-1 $62 forward single #
face $-1 $63 $64 $33 $-1 $65 reversed single #
face $-1 $66 $67 $34 $-1 $68 forward single #
face $-1 $69 $70 $35 $-1 $71 forward single #
face $-1 $72 $73 $27 $-1 $74 reversed single #
loop $-1 $-1 $75 $36 #
plane-surface $-1 0 0 15.571579914873757 0 0 1 1 0 0 forward_v I I I I #
face $-1 $76 $77 $28 $-1 $78 reversed single #
loop $-1 $-1 $79 $37 #
plane-surface $-1 -36.420239165326144 -28.556505585619075 0 1 0 0 0 0 -1 forward_v I I I I #
face $-1 $80 $81 $29 $-1 $82 reversed single #
loop $-1 $-1 $83 $38 #
plane-surface $-1 72.66428891067801 6.5214871593618042 173.61938950167018 0 -1 0 -0.7660444514056185 0 -0.64278759981090561 forward_v I I I I #
face $-1 $84 $85 $30 $-1 $86 forward single #
loop $-1 $87 $88 $39 #
cone-surface $-1 54.156817441732088 1.495062230282997 11.181970870816583 -0.7660444514056185 0 -0.64278759981090561 0.96418139971635841 0 -1.1490666771084277 1 I I 0 1 1.5 forward I I I I #
face $-1 $89 $90 $31 $-1 $91 reversed single #
loop $-1 $-1 $92 $40 #
plane-surface $-1 72.66428891067801 25.025142886823261 173.61938950167018 0 1 0 0.7660444514056185 0 0.64278759981090561 forward_v I I I I #
face $-1 $93 $94 $32 $-1 $95 forward single #
loop $-1 $96 $97 $41 #
cone-surface $-1 54.156817441732088 30.051567815902068 11.181970870816583 -0.7660444514056185 0 -0.64278759981090561 0.96418139971635841 0 -1.1490666771084277 1 I I 0 1 1.5 forward I I I I #
face $-1 $98 $99 $33 $-1 $100 reversed single #
loop $-1 $-1 $101 $42 #
plane-surface $-1 -158.22946375210907 21.903663835991455 61.090077202345647 0 1 0 -0.85716730853699208 0 0.51503806187062418 forward_v I I I I #
face $-1 $102 $103 $34 $-1 $104 forward single #
loop $-1 $105 $106 $43 #
cone-surface $-1 -51.448447994446433 25.66775780998843 6.8166473436995378 0.85716730853699208 0 -0.51503806187062418 0.77255709280593621 0 1.2857509628054882 1 I I 0 1 1.5 forward I I I I #
face $-1 $107 $108 $35 $-1 $109 forward single #
loop $-1 $110 $111 $44 #
cone-surface $-1 -51.448447994446433 31.313898770983904 6.8166473436995378 0.85716730853699208 0 -0.51503806187062418 0.77255709280593621 0 1.2857509628054882 1 I I 0 1 1.5 forward I I I I #
face $-1 $112 $113 $27 $-1 $114 reversed single #
loop $-1 $-1 $115 $45 #
plane-surface $-1 0 0 -15.571579914873757 0 0 1 1 0 0 forward_v I I I I #
coedge $-1 $116 $117 $118 $119 forward $46 $-1 #
face $-1 $120 $121 $28 $-1 $122 reversed single #
loop $-1 $-1 $123 $48 #
plane-surface $-1 -31.785547327935191 -22.035018426257267 0 0 -1 0 0 0 -1 forward_v I I I I #
coedge $-1 $124 $125 $126 $127 forward $49 $-1 #
face $-1 $128 $129 $29 $-1 $130 reversed single #
loop $-1 $-1 $131 $51 #
plane-surface $-1 -16.647325061849216 1.495062230282997 98.678049119529192 0.7660444514056185 0 0.64278759981090561 0.64278759981090561 0 -0.7660444514056185 forward_v I I I I #
coedge $-1 $132 $133 $134 $135 reversed $52 $-1 #
face $-1 $-1 $136 $30 $-1 $137 forward single #
loop $-1 $138 $139 $54 #
cone-surface $-1 52.04845349952037 1.495062230282997 9.4128435108371296 -0.7660444514056185 0 -0.64278759981090561 0.48209069985817921 0 -0.57453333855421385 1 I I -0.70710678118654757 0.70710678118654757 0.75 forward I I I I #
loop $-1 $-1 $140 $39 #
coedge $-1 $88 $88 $141 $142 reversed $55 $-1 #
face $-1 $143 $144 $31 $-1 $145 reversed single #
loop $-1 $-1 $146 $57 #
plane-surface $-1 -16.647325061849216 30.051567815902068 98.678049119529192 0.7660444514056185 0 0.64278759981090561 0.64278759981090561 0 -0.7660444514056185 forward_v I I I I #
coedge $-1 $147 $148 $149 $150 reversed $58 $-1 #
face $-1 $-1 $151 $32 $-1 $152 forward single #
loop $-1 $153 $154 $60 #
cone-surface $-1 52.04845349952037 30.051567815902068 9.4128435108371296 -0.7660444514056185 0 -0.64278759981090561 0.48209069985817921 0 -0.57453333855421385 1 I I -0.70710678118654757 0.70710678118654757 0.75 forward I I I I #
loop $-1 $-1 $155 $41 #
coedge $-1 $97 $97 $156 $157 reversed $61 $-1 #
face $-1 $158 $159 $33 $-1 $160 forward single #
loop $-1 $-1 $161 $63 #
plane-surface $-1 -58.294015320291734 28.490828290486171 1.0428038639065704 -0.85716730853699208 0 0.51503806187062418 0.51503806187062418 0 0.85716730853699208 forward_v I I I I #
coedge $-1 $162 $163 $164 $165 reversed $64 $-1 #
face $-1 $-1 $166 $34 $-1 $167 forward single #
loop $-1 $168 $169 $66 #
cone-surface $-1 -48.324889722642325 25.66775780998843 4.9398242516059394 0.85716730853699208 0 -0.51503806187062418 0.3862785464029681 0 0.64287548140274409 1 I I -0.70710678118654757 0.70710678118654757 0.75 forward I I I I #
loop $-1 $-1 $170 $43 #
coedge $-1 $106 $106 $171 $172 reversed $67 $-1 #
face $-1 $-1 $173 $35 $-1 $174 forward single #
loop $-1 $175 $176 $69 #
cone-surface $-1 -48.324889722642325 31.313898770983904 4.9398242516059394 0.85716730853699208 0 -0.51503806187062418 0.3862785464029681 0 0.64287548140274409 1 I I -0.70710678118654757 0.70710678118654757 0.75 forward I I I I #
loop $-1 $-1 $177 $44 #
coedge $-1 $111 $111 $178 $179 reversed $70 $-1 #
face $-1 $180 $181 $27 $-1 $182 reversed single #
loop $-1 $-1 $183 $72 #
plane-surface $-1 0 -35.077992744980882 0 0 1 0 0 0 1 forward_v I I I I #
coedge $-1 $184 $185 $186 $187 forward $73 $-1 #
coedge $-1 $188 $75 $189 $190 forward $46 $-1 #
coedge $-1 $75 $188 $191 $192 forward $46 $-1 #
coedge $-1 $193 $194 $75 $119 reversed $195 $-1 #
edge $-1 $196 -35.077992744980882 $197 35.077992744980882 $118 $198 forward 7 unknown #
face $-1 $199 $200 $28 $-1 $201 forward single #
loop $-1 $-1 $202 $76 #
plane-surface $-1 -27.150855490544238 -28.556505585619075 0 -1 0 0 0 0 1 forward_v I I I I #
coedge $-1 $203 $204 $205 $206 forward $77 $-1 #
coedge $-1 $207 $79 $208 $209 reversed $49 $-1 #
coedge $-1 $79 $207 $210 $211 reversed $49 $-1 #
coedge $-1 $204 $203 $79 $127 reversed $77 $-1 #
edge $-1 $212 -15.571579914873757 $213 15.571579914873757 $126 $214 forward 7 unknown #
face $-1 $215 $216 $29 $-1 $217 reversed single #
loop $-1 $-1 $218 $80 #
plane-surface $-1 72.66428891067801 -3.5313626987958102 173.61938950167018 0 1 0 0.7660444514056185 0 0.64278759981090561 forward_v I I I I #
coedge $-1 $219 $220 $221 $222 reversed $81 $-1 #
coedge $-1 $133 $83 $223 $224 reversed $52 $-1 #
coedge $-1 $83 $132 $219 $225 reversed $52 $-1 #
coedge $-1 $221 $226 $83 $135 forward $227 $-1 #
edge $-1 $228 -21.961870864952751 $229 -16.755136315148476 $134 $230 forward 7 unknown #
loop $-1 $-1 $141 $84 #
plane-surface $-1 -16.647325061849216 1.495062230282997 98.678049119529192 0.7660444514056185 0 0.64278759981090561 0.64278759981090561 0 -0.7660444514056185 forward_v I I I I #
loop $-1 $-1 $231 $54 #
coedge $-1 $139 $139 $140 $232 reversed $85 $-1 #
coedge $-1 $140 $140 $139 $232 forward $87 $-1 #
coedge $-1 $141 $141 $88 $142 forward $136 $-1 #
edge $-1 $233 0 $233 6.2831853071796004 $141 $234 forward 7 unknown #
face $-1 $235 $236 $31 $-1 $237 reversed single #
loop $-1 $-1 $149 $89 #
plane-surface $-1 58.294015320291756 0 0 -1 0 0 0 0 1 forward_v I I I I #
coedge $-1 $238 $239 $240 $241 reversed $90 $-1 #
coedge $-1 $148 $92 $242 $243 reversed $58 $-1 #
coedge $-1 $92 $147 $238 $244 reversed $58 $-1 #
coedge $-1 $240 $245 $92 $150 forward $144 $-1 #
edge $-1 $246 71.238114835961341 $247 77.443259603833098 $149 $248 forward 7 unknown #
loop $-1 $-1 $156 $93 #
plane-surface $-1 -16.647325061849216 30.051567815902068 98.678049119529192 0.7660444514056185 0 0.64278759981090561 0.64278759981090561 0 -0.7660444514056185 forward_v I I I I #
loop $-1 $-1 $249 $60 #
coedge $-1 $154 $154 $155 $250 reversed $94 $-1 #
coedge $-1 $155 $155 $154 $250 forward $96 $-1 #
coedge $-1 $156 $156 $97 $157 forward $151 $-1 #
edge $-1 $251 0 $251 6.2831853071796004 $156 $252 forward 7 unknown #
face $-1 $253 $254 $33 $-1 $255 reversed single #
loop $-1 $-1 $164 $98 #
plane-surface $-1 0 0 15.571579914873757 0 0 1 1 0 0 forward_v I I I I #
coedge $-1 $256 $257 $258 $259 reversed $99 $-1 #
coedge $-1 $163 $101 $260 $261 reversed $64 $-1 #
coedge $-1 $101 $162 $256 $262 reversed $64 $-1 #
coedge $-1 $258 $263 $101 $165 forward $159 $-1 #
edge $-1 $264 20.820716555762779 $265 29.550485626650726 $164 $266 forward 7 unknown #
loop $-1 $-1 $171 $102 #
plane-surface $-1 -58.294015320291734 28.490828290486171 1.0428038639065704 -0.85716730853699208 0 0.51503806187062418 0.51503806187062418 0 0.85716730853699208 forward_v I I I I #
loop $-1 $-1 $267 $66 #
coedge $-1 $169 $169 $170 $268 reversed $103 $-1 #
coedge $-1 $170 $170 $169 $268 forward $105 $-1 #
coedge $-1 $171 $171 $106 $172 forward $166 $-1 #
edge $-1 $269 0 $269 6.2831853071796004 $171 $270 forward 7 unknown #
loop $-1 $-1 $178 $107 #
plane-surface $-1 -58.294015320291734 28.490828290486171 1.0428038639065704 -0.85716730853699208 0 0.51503806187062418 0.51503806187062418 0 0.85716730853699208 forward_v I I I I #
loop $-1 $-1 $271 $69 #
coedge $-1 $176 $176 $177 $272 reversed $108 $-1 #
coedge $-1 $177 $177 $176 $272 forward $110 $-1 #
coedge $-1 $178 $178 $111 $179 forward $173 $-1 #
edge $-1 $273 0 $273 6.2831853071796004 $178 $274 forward 7 unknown #
face $-1 $275 $276 $27 $-1 $277 reversed single #
loop $-1 $-1 $278 $112 #
plane-surface $-1 -58.294015320291756 0 0 1 0 0 0 0 -1 forward_v I I I I #
coedge $-1 $279 $191 $280 $281 forward $113 $-1 #
coedge $-1 $282 $115 $279 $283 forward $73 $-1 #
coedge $-1 $115 $282 $284 $285 forward $73 $-1 #
coedge $-1 $194 $193 $115 $187 reversed $195 $-1 #
edge $-1 $286 -35.077992744980882 $287 35.077992744980882 $186 $288 forward 7 unknown #
coedge $-1 $117 $116 $289 $290 forward $46 $-1 #
coedge $-1 $291 $292 $116 $190 reversed $276 $-1 #
edge $-1 $197 -58.294015320291756 $293 58.294015320291756 $189 $294 forward 7 unknown #
coedge $-1 $183 $295 $117 $192 reversed $113 $-1 #
edge $-1 $296 -58.294015320291756 $196 58.294015320291756 $191 $297 forward 7 unknown #
coedge $-1 $186 $118 $295 $298 forward $195 $-1 #
coedge $-1 $118 $186 $291 $299 reversed $195 $-1 #
loop $-1 $-1 $193 $275 #
vertex $-1 $119 $300 #
vertex $-1 $119 $301 #
straight-curve $-1 58.294015320291756 0 15.571579914873757 0 1 0 I I #
face $-1 $302 $303 $28 $-1 $304 reversed single #
loop $-1 $-1 $305 $120 #
plane-surface $-1 0 0 15.571579914873757 0 0 1 1 0 0 forward_v I I I I #
coedge $-1 $306 $307 $308 $309 reversed $121 $-1 #
coedge $-1 $126 $123 $310 $311 reversed $77 $-1 #
coedge $-1 $123 $126 $312 $313 reversed $77 $-1 #
coedge $-1 $307 $306 $123 $206 reversed $121 $-1 #
edge $-1 $314 -15.571579914873757 $315 15.571579914873757 $205 $316 forward 7 unknown #
coedge $-1 $125 $124 $317 $318 reversed $49 $-1 #
coedge $-1 $310 $319 $124 $209 forward $303 $-1 #
edge $-1 $320 -20.799739952171343 $213 -7.7567656334477295 $208 $321 forward 7 unknown #
coedge $-1 $322 $312 $125 $211 forward $200 $-1 #
edge $-1 $212 7.7567656334477295 $323 20.799739952171343 $210 $324 forward 7 unknown #
vertex $-1 $211 $325 #
vertex $-1 $209 $326 #
straight-curve $-1 -36.420239165326144 -22.035018426257267 0 0 0 -1 I I #
face $-1 $-1 $227 $29 $-1 $327 forward single #
loop $-1 $-1 $328 $128 #
plane-surface $-1 58.294015320291756 0 0 -1 0 0 0 0 1 forward_v I I I I #
coedge $-1 $329 $330 $331 $332 reversed $129 $-1 #
coedge $-1 $333 $131 $133 $225 forward $81 $-1 #
coedge $-1 $131 $333 $329 $334 forward $81 $-1 #
coedge $-1 $331 $134 $131 $222 forward $227 $-1 #
edge $-1 $229 -5.7739560442203057 $335 4.2788938139373087 $221 $336 forward 7 unknown #
coedge $-1 $337 $338 $132 $224 forward $216 $-1 #
edge $-1 $339 -77.443259603833098 $228 -71.238114835961341 $223 $340 forward 7 unknown #
edge $-1 $229 108.48778951686553 $339 116.58803064058348 $133 $341 forward 7 unknown #
coedge $-1 $134 $331 $337 $342 forward $227 $-1 #
loop $-1 $-1 $331 $215 #
vertex $-1 $224 $343 #
vertex $-1 $135 $344 #
straight-curve $-1 36.332144455339005 6.5214871593618042 15.571579914873752 -1 0 0 I I #
coedge $-1 $231 $231 $-1 $345 reversed $138 $-1 #
edge $-1 $346 0 $346 6.2831853071796004 $139 $347 forward 7 unknown #
vertex $-1 $142 $348 #
ellipse-curve $-1 55.690648045389615 1.495062230282997 12.469007530937876 0.7660444514056185 0 0.64278759981090561 0.96418139971635841 0 -1.1490666771084277 1 I I #
face $-1 $-1 $349 $31 $-1 $350 forward single #
loop $-1 $-1 $351 $143 #
plane-surface $-1 0 35.077992744980882 0 0 -1 0 0 0 -1 forward_v I I I I #
coedge $-1 $352 $146 $148 $244 forward $90 $-1 #
coedge $-1 $146 $352 $351 $353 reversed $90 $-1 #
coedge $-1 $354 $149 $146 $241 forward $144 $-1 #
edge $-1 $247 9.9993589788722268 $355 20.052208837029848 $240 $356 forward 7 unknown #
coedge $-1 $357 $358 $147 $243 forward $349 $-1 #
edge $-1 $359 16.755136315148476 $246 21.961870864952751 $242 $360 forward 7 unknown #
edge $-1 $247 -116.58803064058348 $359 -108.48778951686553 $148 $361 forward 7 unknown #
coedge $-1 $149 $354 $357 $362 reversed $144 $-1 #
vertex $-1 $362 $363 #
vertex $-1 $150 $364 #
straight-curve $-1 58.294015320291756 25.025142886823261 86.809694750835092 0 0 -1 I I #
coedge $-1 $249 $249 $-1 $365 reversed $153 $-1 #
edge $-1 $366 0 $366 6.2831853071796004 $154 $367 forward 7 unknown #
vertex $-1 $157 $368 #
ellipse-curve $-1 55.690648045389615 30.051567815902068 12.469007530937876 0.7660444514056185 0 0.64278759981090561 0.96418139971635841 0 -1.1490666771084277 1 I I #
face $-1 $-1 $369 $33 $-1 $370 reversed single #
loop $-1 $-1 $371 $158 #
plane-surface $-1 0 35.077992744980882 0 0 -1 0 0 0 -1 forward_v I I I I #
coedge $-1 $372 $161 $163 $262 forward $99 $-1 #
coedge $-1 $161 $372 $371 $373 reversed $99 $-1 #
coedge $-1 $374 $164 $161 $259 forward $159 $-1 #
edge $-1 $265 7.6582496907483701 $375 20.832578599737804 $258 $376 forward 7 unknown #
coedge $-1 $377 $378 $162 $261 forward $369 $-1 #
edge $-1 $379 -29.502234737266289 $264 -14.973458686299066 $260 $380 forward 7 unknown #
edge $-1 $265 -16.949755206792496 $379 4.1431396825663817e-014 $163 $381 forward 7 unknown #
coedge $-1 $164 $374 $377 $382 forward $159 $-1 #
vertex $-1 $261 $383 #
vertex $-1 $165 $384 #
straight-curve $-1 -79.114731876054535 21.903663835991455 15.571579914873759 1 0 0 I I #
coedge $-1 $267 $267 $-1 $385 reversed $168 $-1 #
edge $-1 $386 0 $386 6.2831853071796004 $169 $387 forward 7 unknown #
vertex $-1 $172 $388 #
ellipse-curve $-1 -53.929130784847779 25.66775780998843 8.3071918893901557 -0.85716730853699208 0 0.51503806187062418 0.77255709280593621 0 1.2857509628054882 1 I I #
coedge $-1 $271 $271 $-1 $389 reversed $175 $-1 #
edge $-1 $390 0 $390 6.2831853071796004 $176 $391 forward 7 unknown #
vertex $-1 $179 $392 #
ellipse-curve $-1 -53.929130784847779 31.313898770983904 8.3071918893901557 -0.85716730853699208 0 0.51503806187062418 0.77255709280593621 0 1.2857509628054882 1 I I #
face $-1 $-1 $195 $27 $-1 $393 reversed single #
loop $-1 $-1 $291 $180 #
plane-surface $-1 0 35.077992744980882 0 0 -1 0 0 0 -1 forward_v I I I I #
coedge $-1 $394 $289 $292 $395 forward $181 $-1 #
coedge $-1 $295 $183 $184 $283 reversed $113 $-1 #
coedge $-1 $289 $394 $183 $281 reversed $181 $-1 #
edge $-1 $296 -15.571579914873757 $396 15.571579914873757 $280 $397 forward 7 unknown #
coedge $-1 $185 $184 $394 $398 forward $73 $-1 #
edge $-1 $287 -58.294015320291756 $396 58.294015320291756 $279 $399 forward 7 unknown #
coedge $-1 $292 $291 $185 $285 reversed $276 $-1 #
edge $-1 $400 -58.294015320291756 $286 58.294015320291756 $284 $401 forward 7 unknown #
vertex $-1 $187 $402 #
vertex $-1 $298 $403 #
straight-curve $-1 58.294015320291756 0 -15.571579914873757 0 -1 0 I I #
coedge $-1 $278 $280 $188 $290 reversed $181 $-1 #
edge $-1 $293 -35.077992744980882 $296 35.077992744980882 $289 $404 forward 7 unknown #
coedge $-1 $284 $189 $194 $299 forward $276 $-1 #
coedge $-1 $189 $284 $278 $395 reversed $276 $-1 #
vertex $-1 $190 $405 #
straight-curve $-1 0 35.077992744980882 15.571579914873757 -1 0 0 I I #
coedge $-1 $191 $279 $193 $298 reversed $113 $-1 #
vertex $-1 $290 $406 #
straight-curve $-1 0 -35.077992744980882 15.571579914873757 1 0 0 I I #
edge $-1 $196 -15.571579914873757 $287 15.571579914873757 $193 $407 forward 7 unknown #
edge $-1 $197 -15.571579914873757 $286 15.571579914873757 $194 $408 forward 7 unknown #
point $-1 58.294015320291756 -35.077992744980882 15.571579914873757 #
point $-1 58.294015320291756 35.077992744980882 15.571579914873757 #
face $-1 $-1 $409 $28 $-1 $410 reversed single #
loop $-1 $-1 $411 $199 #
plane-surface $-1 0 0 -15.571579914873757 0 0 1 1 0 0 forward_v I I I I #
coedge $-1 $312 $322 $307 $412 forward $200 $-1 #
coedge $-1 $205 $202 $411 $413 reversed $121 $-1 #
coedge $-1 $202 $205 $305 $412 reversed $121 $-1 #
coedge $-1 $414 $415 $202 $309 forward $409 $-1 #
edge $-1 $416 -15.571579914873757 $417 15.571579914873757 $308 $418 forward 7 unknown #
coedge $-1 $411 $208 $203 $311 forward $303 $-1 #
edge $-1 $213 -20.527465501358549 $315 -11.258081826576642 $310 $419 forward 7 unknown #
coedge $-1 $210 $305 $204 $313 forward $200 $-1 #
edge $-1 $314 11.258081826576642 $212 20.527465501358549 $312 $420 forward 7 unknown #
vertex $-1 $313 $421 #
vertex $-1 $311 $422 #
straight-curve $-1 -27.150855490544238 -22.035018426257267 0 0 0 -1 I I #
coedge $-1 $415 $414 $207 $318 forward $409 $-1 #
edge $-1 $323 -15.571579914873757 $320 15.571579914873757 $317 $423 forward 7 unknown #
coedge $-1 $208 $411 $415 $424 forward $303 $-1 #
vertex $-1 $209 $425 #
straight-curve $-1 -36.420239165326144 -14.278252792809537 -15.571579914873757 0 1 0 I I #
coedge $-1 $305 $210 $414 $426 forward $200 $-1 #
vertex $-1 $426 $427 #
straight-curve $-1 -36.420239165326144 -14.278252792809537 15.571579914873757 0 -1 0 I I #
point $-1 -36.420239165326144 -22.035018426257267 15.571579914873757 #
point $-1 -36.420239165326144 -22.035018426257267 -15.571579914873757 #
plane-surface $-1 0 0 15.571579914873757 0 0 1 1 0 0 forward_v I I I I #
coedge $-1 $338 $337 $330 $428 forward $216 $-1 #
coedge $-1 $330 $218 $220 $334 reversed $129 $-1 #
coedge $-1 $218 $329 $328 $428 reversed $129 $-1 #
coedge $-1 $226 $221 $218 $332 forward $227 $-1 #
edge $-1 $335 16.755136315148476 $429 21.961870864952751 $331 $430 forward 7 unknown #
coedge $-1 $220 $219 $338 $431 reversed $81 $-1 #
edge $-1 $432 -116.58803064058348 $335 -108.48778951686553 $329 $433 forward 7 unknown #
vertex $-1 $222 $434 #
straight-curve $-1 53.087280770487482 0.7475311151414985 15.571579914873759 0 -1 0 I I #
coedge $-1 $328 $223 $226 $342 reversed $216 $-1 #
coedge $-1 $223 $328 $333 $431 forward $216 $-1 #
vertex $-1 $224 $435 #
straight-curve $-1 58.294015320291756 6.5214871593618042 86.809694750835092 0 0 1 I I #
straight-curve $-1 -16.647325061849216 6.5214871593618042 98.678049119529192 0.64278759981090561 0 -0.7660444514056185 I I #
edge $-1 $429 -3.5313626987958102 $228 6.5214871593618042 $337 $436 forward 7 unknown #
point $-1 58.294015320291756 6.5214871593618042 15.571579914873757 #
point $-1 53.087280770487482 6.5214871593618042 15.571579914873752 #
edge $-1 $437 1 $437 0 $231 $-1 forward 7 unknown #
vertex $-1 $232 $438 #
ellipse-curve $-1 52.622986838074581 1.495062230282997 9.8949342106953093 0.7660444514056185 0 0.64278759981090561 0.96418139971635841 0 -1.1490666771084277 1 I I #
point $-1 56.654829445105953 1.495062230282997 11.319940853829429 #
loop $-1 $-1 $242 $235 #
plane-surface $-1 0 0 15.571579914873757 0 0 1 1 0 0 forward_v I I I I #
coedge $-1 $439 $440 $239 $353 forward $236 $-1 #
coedge $-1 $239 $238 $358 $441 reversed $90 $-1 #
edge $-1 $355 -73.441797578921268 $442 -65.341556455203289 $351 $443 forward 7 unknown #
coedge $-1 $245 $240 $440 $444 reversed $144 $-1 #
vertex $-1 $353 $445 #
straight-curve $-1 58.294015320291749 15.025783907951034 9.3664351470019866 0 1 0 I I #
coedge $-1 $446 $242 $245 $362 forward $349 $-1 #
coedge $-1 $242 $446 $352 $441 forward $349 $-1 #
vertex $-1 $243 $447 #
straight-curve $-1 36.332144455339005 25.025142886823261 15.571579914873752 1 0 0 I I #
straight-curve $-1 -16.647325061849216 25.025142886823261 98.678049119529192 -0.64278759981090561 0 0.7660444514056185 I I #
edge $-1 $246 25.025142886823261 $448 35.077992744980882 $245 $449 forward 7 unknown #
point $-1 58.294015320291756 25.025142886823261 15.571579914873757 #
point $-1 58.294015320291749 25.025142886823261 9.3664351470019938 #
edge $-1 $450 1 $450 0 $249 $-1 forward 7 unknown #
vertex $-1 $250 $451 #
ellipse-curve $-1 52.622986838074581 30.051567815902068 9.8949342106953093 0.7660444514056185 0 0.64278759981090561 0.96418139971635841 0 -1.1490666771084277 1 I I #
point $-1 56.654829445105953 30.051567815902068 11.319940853829429 #
loop $-1 $-1 $260 $253 #
plane-surface $-1 -58.294015320291756 0 0 1 0 0 0 0 -1 forward_v I I I I #
coedge $-1 $452 $453 $257 $373 forward $254 $-1 #
coedge $-1 $257 $256 $378 $454 reversed $99 $-1 #
edge $-1 $375 -2.3848655628611084 $455 14.564889643931425 $371 $456 forward 7 unknown #
coedge $-1 $263 $258 $453 $457 forward $159 $-1 #
vertex $-1 $457 $458 #
straight-curve $-1 -49.564246249403809 14.245414145243085 15.571579914873757 0 1 0 I I #
coedge $-1 $459 $260 $263 $382 reversed $369 $-1 #
coedge $-1 $260 $459 $372 $454 forward $369 $-1 #
vertex $-1 $261 $460 #
straight-curve $-1 -58.294015320291756 21.903663835991455 30.545038601172823 0 0 1 I I #
straight-curve $-1 -58.294015320291734 21.903663835991455 1.0428038639065704 -0.51503806187062418 0 -0.85716730853699208 I I #
edge $-1 $461 -35.077992744980882 $264 -21.903663835991455 $377 $462 forward 7 unknown #
point $-1 -58.294015320291756 21.903663835991455 15.571579914873757 #
point $-1 -49.564246249403809 21.903663835991455 15.571579914873757 #
edge $-1 $463 1 $463 0 $267 $-1 forward 7 unknown #
vertex $-1 $268 $464 #
ellipse-curve $-1 -48.967765204045072 25.66775780998843 5.3261027980089075 -0.85716730853699208 0 0.51503806187062418 0.77255709280593621 0 1.2857509628054882 1 I I #
point $-1 -53.15657369204186 25.66775780998843 9.5929428521956552 #
edge $-1 $465 1 $465 0 $271 $-1 forward 7 unknown #
vertex $-1 $272 $466 #
ellipse-curve $-1 -48.967765204045072 31.313898770983904 5.3261027980089075 -0.85716730853699208 0 0.51503806187062418 0.77255709280593621 0 1.2857509628054882 1 I I #
point $-1 -53.15657369204186 31.313898770983904 9.5929428521956552 #
plane-surface $-1 58.294015320291756 0 0 -1 0 0 0 0 1 forward_v I I I I #
coedge $-1 $280 $278 $282 $398 reversed $181 $-1 #
edge $-1 $293 -15.571579914873757 $400 15.571579914873757 $292 $467 forward 7 unknown #
vertex $-1 $398 $468 #
straight-curve $-1 -58.294015320291756 -35.077992744980882 0 0 0 -1 I I #
edge $-1 $396 -35.077992744980882 $400 35.077992744980882 $394 $469 forward 7 unknown #
straight-curve $-1 0 -35.077992744980882 -15.571579914873757 -1 0 0 I I #
vertex $-1 $285 $470 #
straight-curve $-1 0 35.077992744980882 -15.571579914873757 1 0 0 I I #
point $-1 58.294015320291756 35.077992744980882 -15.571579914873757 #
point $-1 58.294015320291756 -35.077992744980882 -15.571579914873757 #
straight-curve $-1 -58.294015320291756 0 15.571579914873757 0 -1 0 I I #
point $-1 -58.294015320291756 35.077992744980882 15.571579914873757 #
point $-1 -58.294015320291756 -35.077992744980882 15.571579914873757 #
straight-curve $-1 58.294015320291756 -35.077992744980882 0 0 0 -1 I I #
straight-curve $-1 58.294015320291756 35.077992744980882 0 0 0 -1 I I #
loop $-1 $-1 $308 $302 #
plane-surface $-1 0 -35.077992744980882 0 0 1 0 0 0 1 forward_v I I I I #
coedge $-1 $319 $310 $306 $413 forward $303 $-1 #
edge $-1 $417 -20.799739952171343 $314 -7.7567656334477295 $305 $471 forward 7 unknown #
edge $-1 $315 7.7567656334477295 $416 20.799739952171343 $411 $472 forward 7 unknown #
coedge $-1 $317 $308 $322 $426 reversed $409 $-1 #
coedge $-1 $308 $317 $319 $424 reversed $409 $-1 #
vertex $-1 $424 $473 #
vertex $-1 $309 $474 #
straight-curve $-1 -27.150855490544238 -35.077992744980882 0 0 0 1 I I #
straight-curve $-1 -15.892773663967596 -22.035018426257267 -15.571579914873757 1 0 0 I I #
straight-curve $-1 -15.892773663967596 -22.035018426257267 15.571579914873757 -1 0 0 I I #
point $-1 -27.150855490544238 -22.035018426257267 15.571579914873757 #
point $-1 -27.150855490544238 -22.035018426257267 -15.571579914873757 #
straight-curve $-1 -36.420239165326144 -35.077992744980882 0 0 0 -1 I I #
edge $-1 $416 27.150855490544238 $320 36.420239165326144 $415 $475 forward 7 unknown #
point $-1 -36.420239165326144 -35.077992744980882 -15.571579914873757 #
edge $-1 $323 -36.420239165326144 $417 -27.150855490544238 $414 $476 forward 7 unknown #
point $-1 -36.420239165326144 -35.077992744980882 15.571579914873757 #
edge $-1 $429 71.238114835961341 $432 77.443259603833098 $328 $477 forward 7 unknown #
vertex $-1 $342 $478 #
straight-curve $-1 36.332144455339005 -3.5313626987958102 15.571579914873752 1 0 0 I I #
edge $-1 $432 -4.2788938139373087 $339 5.7739560442203057 $338 $479 forward 7 unknown #
vertex $-1 $431 $480 #
straight-curve $-1 -16.647325061849216 -3.5313626987958102 98.678049119529192 -0.64278759981090561 0 0.7660444514056185 I I #
point $-1 53.087280770487482 -3.5313626987958102 15.571579914873752 #
point $-1 58.294015320291749 6.5214871593618042 9.3664351470019938 #
straight-curve $-1 58.294015320291756 0 15.571579914873757 0 1 0 I I #
vertex $-1 $345 $481 #
point $-1 53.587168237790941 1.495062230282997 8.7458675335868818 #
coedge $-1 $440 $351 $446 $482 reversed $236 $-1 #
coedge $-1 $351 $439 $354 $444 forward $236 $-1 #
edge $-1 $442 -20.052208837029841 $359 -9.9993589788722268 $358 $483 forward 7 unknown #
vertex $-1 $353 $484 #
straight-curve $-1 11.086538528738576 35.077992744980882 65.626116683589203 -0.64278759981090572 0 0.76604445140561861 I I #
edge $-1 $448 -15.571579914873757 $355 -9.3664351470019849 $354 $485 forward 7 unknown #
point $-1 58.294015320291756 35.077992744980882 9.3664351470019849 #
coedge $-1 $358 $357 $439 $482 forward $349 $-1 #
point $-1 53.087280770487482 25.025142886823261 15.571579914873752 #
vertex $-1 $362 $486 #
straight-curve $-1 58.294015320291756 0 15.571579914873757 0 1 0 I I #
vertex $-1 $365 $487 #
point $-1 53.587168237790941 30.051567815902068 8.7458675335868818 #
coedge $-1 $453 $371 $459 $488 reversed $254 $-1 #
coedge $-1 $371 $452 $374 $457 reversed $254 $-1 #
edge $-1 $455 -20.832578599737804 $379 -7.6582496907483701 $378 $489 forward 7 unknown #
vertex $-1 $373 $490 #
straight-curve $-1 -50.792542786721782 35.077992744980882 13.527351119133538 -0.51503806187062429 0 -0.85716730853699219 I I #
edge $-1 $375 49.564246249403809 $461 58.294015320291756 $453 $491 forward 7 unknown #
point $-1 -49.564246249403809 35.077992744980889 15.571579914873757 #
coedge $-1 $378 $377 $452 $488 forward $369 $-1 #
point $-1 -58.294015320291756 21.903663835991455 1.0428038639065349 #
vertex $-1 $457 $492 #
straight-curve $-1 -58.294015320291756 0 15.571579914873757 0 -1 0 I I #
vertex $-1 $385 $493 #
point $-1 -48.195208111239133 25.66775780998843 6.6118537608143955 #
vertex $-1 $389 $494 #
point $-1 -48.195208111239133 31.313898770983904 6.6118537608143955 #
straight-curve $-1 -58.294015320291756 35.077992744980882 0 0 0 -1 I I #
point $-1 -58.294015320291756 -35.077992744980882 -15.571579914873757 #
straight-curve $-1 -58.294015320291756 0 -15.571579914873757 0 1 0 I I #
point $-1 -58.294015320291756 35.077992744980882 -15.571579914873757 #
straight-curve $-1 -27.150855490544238 -14.278252792809537 15.571579914873757 0 1 0 I I #
straight-curve $-1 -27.150855490544238 -14.278252792809537 -15.571579914873757 0 -1 0 I I #
point $-1 -27.150855490544238 -35.077992744980882 -15.571579914873757 #
point $-1 -27.150855490544238 -35.077992744980882 15.571579914873757 #
straight-curve $-1 0 -35.077992744980882 -15.571579914873757 -1 0 0 I I #
straight-curve $-1 0 -35.077992744980882 15.571579914873757 1 0 0 I I #
straight-curve $-1 58.294015320291756 -3.5313626987958102 86.809694750835092 0 0 -1 I I #
point $-1 58.294015320291756 -3.5313626987958102 15.571579914873757 #
straight-curve $-1 58.294015320291749 0.7475311151414985 9.3664351470019866 0 1 0 I I #
point $-1 58.294015320291749 -3.5313626987958102 9.3664351470019938 #
point $-1 51.473920160966159 1.495062230282997 8.9307528109789498 #
edge $-1 $448 -58.294015320291756 $442 -53.087280770487482 $439 $495 forward 7 unknown #
straight-curve $-1 53.087280770487482 15.025783907951034 15.571579914873759 0 -1 0 I I #
point $-1 53.087280770487482 35.077992744980875 15.571579914873752 #
straight-curve $-1 58.294015320291756 35.077992744980882 0 0 0 -1 I I #
point $-1 58.294015320291756 35.077992744980882 15.571579914873757 #
point $-1 51.473920160966159 30.051567815902068 8.9307528109789498 #
edge $-1 $461 -15.571579914873757 $455 -1.0428038639065349 $452 $496 forward 7 unknown #
straight-curve $-1 -58.294015320291756 14.245414145243085 1.042803863906544 0 -1 0 I I #
point $-1 -58.294015320291756 35.077992744980889 1.0428038639065349 #
straight-curve $-1 0 35.077992744980882 15.571579914873757 -1 0 0 I I #
point $-1 -58.294015320291756 35.077992744980882 15.571579914873757 #
point $-1 -47.682014241239578 25.66775780998843 4.5535457052029713 #
point $-1 -47.682014241239578 31.313898770983904 4.5535457052029713 #
straight-curve $-1 0 35.077992744980882 15.571579914873757 -1 0 0 I I #
straight-curve $-1 -58.294015320291756 35.077992744980882 0 0 0 -1 I I #
End-of-ACIS-data 