500 0 6 0           
7 Unknown 11 ACIS 5.0 NT 24 Fri Mar 26 00:50:45 1999 
-1 9.9999999999999995e-007 1e-010 
body $-1 $6 $-1 $7 #
body $-1 $8 $-1 $9 #
body $-1 $10 $-1 $11 #
body $-1 $12 $-1 $13 #
body $-1 $14 $-1 $15 #
body $-1 $16 $-1 $17 #
lump $-1 $-1 $18 $0 #
transform $-1 1 0 0 0 1 0 0 0 1 71.044648579363383 49.69352772956691 17.332905924290298 1 rotate no_reflect no_shear #
lump $-1 $-1 $19 $1 #
transform $-1 1 0 0 0 1 0 0 0 1 71.044648579363383 49.69352772956691 17.332905924290298 1 rotate no_reflect no_shear #
lump $-1 $-1 $20 $2 #
transform $-1 1 0 0 0 1 0 0 0 1 71.044648579363383 49.69352772956691 17.332905924290298 1 rotate no_reflect no_shear #
lump $-1 $-1 $21 $3 #
transform $-1 1 0 0 0 1 0 0 0 1 71.044648579363383 49.69352772956691 17.332905924290298 1 rotate no_reflect no_shear #
lump $-1 $-1 $22 $4 #
transform $-1 1 0 0 0 1 0 0 0 1 71.044648579363383 49.69352772956691 17.332905924290298 1 rotate no_reflect no_shear #
lump $-1 $-1 $23 $5 #
transform $-1 1 0 0 0 1 0 0 0 1 71.044648579363383 49.69352772956691 17.332905924290298 1 rotate no_reflect no_shear #
shell $-1 $-1 $-1 $24 $-1 $6 #
shell $-1 $-1 $-1 $25 $-1 $8 #
shell $-1 $-1 $-1 $26 $-1 $10 #
shell $-1 $-1 $-1 $27 $-1 $12 #
shell $-1 $-1 $-1 $28 $-1 $14 #
shell $-1 $-1 $-1 $29 $-1 $16 #
face $-1 $30 $31 $18 $-1 $32 forward single #
face $-1 $33 $34 $19 $-1 $35 forward single #
face $-1 $36 $37 $20 $-1 $38 reversed single #
face $-1 $39 $40 $21 $-1 $41 forward single #
face $-1 $42 $43 $22 $-1 $44 forward single #
face $-1 $45 $46 $23 $-1 $47 forward single #
face $-1 $48 $49 $18 $-1 $50 reversed single #
loop $-1 $-1 $51 $24 #
plane-surface $-1 0 0 17.332905924290298 0 0 1 1 0 0 forward_v I I I I #
face $-1 $52 $53 $19 $-1 $54 reversed single #
loop $-1 $-1 $55 $25 #
plane-surface $-1 0 -49.69352772956691 0 0 1 0 0 0 1 forward_v I I I I #
face $-1 $56 $57 $20 $-1 $58 reversed single #
loop $-1 $-1 $59 $26 #
plane-surface $-1 29.756058140909545 114.72957166072624 174.64111100914553 1 0 0 0 -0.83867057594974714 -0.54463902268945019 forward_v I I I I #
face $-1 $60 $61 $21 $-1 $62 forward single #
loop $-1 $63 $64 $27 #
cone-surface $-1 38.013776228600307 47.740764125142491 15.072406343728801 0 -0.83867057594974714 -0.54463902268945019 0.5 0 0 1 I I 0 1 0.5 forward I I I I #
face $-1 $65 $66 $22 $-1 $67 forward single #
loop $-1 $68 $69 $28 #
cone-surface $-1 50.40035336013645 47.740764125142491 15.072406343728801 0 -0.83867057594974714 -0.54463902268945019 0.5 0 0 1 I I 0 1 0.5 forward I I I I #
face $-1 $70 $71 $23 $-1 $72 forward single #
loop $-1 $73 $74 $29 #
cone-surface $-1 62.786930491672592 47.740764125142491 15.072406343728801 0 -0.83867057594974714 -0.54463902268945019 0.5 0 0 1 I I 0 1 0.5 forward I I I I #
face $-1 $75 $76 $18 $-1 $77 reversed single #
loop $-1 $-1 $78 $30 #
plane-surface $-1 0 0 -17.332905924290298 0 0 1 1 0 0 forward_v I I I I #
coedge $-1 $79 $80 $81 $82 forward $31 $-1 #
face $-1 $83 $84 $19 $-1 $85 forward single #
loop $-1 $-1 $86 $33 #
plane-surface $-1 -71.044648579363383 0 0 1 0 0 0 0 -1 forward_v I I I I #
coedge $-1 $87 $88 $89 $90 forward $34 $-1 #
face $-1 $91 $92 $20 $-1 $93 forward single #
loop $-1 $-1 $94 $36 #
plane-surface $-1 50.400353360136464 -4.4365410236779041 97.253735069985709 0 0.83867057594974714 0.54463902268945019 1 0 0 forward_v I I I I #
coedge $-1 $95 $96 $97 $98 reversed $37 $-1 #
face $-1 $-1 $99 $21 $-1 $100 forward single #
loop $-1 $101 $102 $39 #
cone-surface $-1 38.013776228600307 46.692771437380216 14.39183195657785 0 -0.83867057594974714 -0.54463902268945019 0.25 0 0 1 I I -0.70710678118654746 0.70710678118654746 0.25 forward I I I I #
loop $-1 $-1 $103 $27 #
coedge $-1 $64 $64 $104 $105 reversed $40 $-1 #
face $-1 $-1 $106 $22 $-1 $107 forward single #
loop $-1 $108 $109 $42 #
cone-surface $-1 50.40035336013645 46.692771437380216 14.39183195657785 0 -0.83867057594974714 -0.54463902268945019 0.25 0 0 1 I I -0.70710678118654746 0.70710678118654746 0.25 forward I I I I #
loop $-1 $-1 $110 $28 #
coedge $-1 $69 $69 $111 $112 reversed $43 $-1 #
face $-1 $-1 $113 $23 $-1 $114 forward single #
loop $-1 $115 $116 $45 #
cone-surface $-1 62.786930491672592 46.692771437380216 14.39183195657785 0 -0.83867057594974714 -0.54463902268945019 0.25 0 0 1 I I -0.70710678118654746 0.70710678118654746 0.25 forward I I I I #
loop $-1 $-1 $117 $29 #
coedge $-1 $74 $74 $118 $119 reversed $46 $-1 #
face $-1 $120 $121 $18 $-1 $122 reversed single #
loop $-1 $-1 $123 $48 #
plane-surface $-1 0 -49.69352772956691 0 0 1 0 0 0 1 forward_v I I I I #
coedge $-1 $124 $125 $126 $127 forward $49 $-1 #
coedge $-1 $128 $51 $129 $130 forward $31 $-1 #
coedge $-1 $51 $128 $131 $132 forward $31 $-1 #
coedge $-1 $133 $134 $51 $82 reversed $135 $-1 #
edge $-1 $136 -49.69352772956691 $137 49.69352772956691 $81 $138 forward 7 unknown #
face $-1 $139 $140 $19 $-1 $141 reversed single #
loop $-1 $-1 $142 $52 #
plane-surface $-1 0 -55.435206880797708 13.318466629039323 0 0 1 1 0 0 forward_v I I I I #
coedge $-1 $143 $144 $88 $145 forward $53 $-1 #
coedge $-1 $146 $55 $147 $148 reversed $34 $-1 #
coedge $-1 $55 $146 $86 $145 reversed $34 $-1 #
coedge $-1 $149 $142 $55 $90 reversed $84 $-1 #
edge $-1 $150 -71.044648579363383 $151 71.044648579363383 $89 $152 forward 7 unknown #
face $-1 $153 $154 $20 $-1 $155 reversed single #
loop $-1 $-1 $97 $56 #
plane-surface $-1 0 0 17.332905924290298 0 0 1 1 0 0 forward_v I I I I #
coedge $-1 $156 $157 $158 $159 reversed $57 $-1 #
coedge $-1 $96 $59 $160 $161 reversed $37 $-1 #
coedge $-1 $59 $95 $156 $162 reversed $37 $-1 #
coedge $-1 $158 $163 $59 $98 forward $92 $-1 #
edge $-1 $164 7.6712581007962086 $165 9.9001352220953507 $97 $166 forward 7 unknown #
loop $-1 $-1 $104 $60 #
plane-surface $-1 50.400353360136464 -4.4365410236779041 97.253735069985709 0 0.83867057594974714 0.54463902268945019 1 0 0 forward_v I I I I #
loop $-1 $-1 $167 $39 #
coedge $-1 $102 $102 $103 $168 reversed $61 $-1 #
coedge $-1 $103 $103 $102 $168 forward $63 $-1 #
coedge $-1 $104 $104 $64 $105 forward $99 $-1 #
edge $-1 $169 -2.3624630807190266e-015 $169 6.2831853071795978 $104 $170 forward 7 unknown #
loop $-1 $-1 $111 $65 #
plane-surface $-1 50.400353360136464 -4.4365410236779041 97.253735069985709 0 0.83867057594974714 0.54463902268945019 1 0 0 forward_v I I I I #
loop $-1 $-1 $171 $42 #
coedge $-1 $109 $109 $110 $172 reversed $66 $-1 #
coedge $-1 $110 $110 $109 $172 forward $68 $-1 #
coedge $-1 $111 $111 $69 $112 forward $106 $-1 #
edge $-1 $173 -2.3624630807190266e-015 $173 6.2831853071795978 $111 $174 forward 7 unknown #
loop $-1 $-1 $118 $70 #
plane-surface $-1 50.400353360136464 -4.4365410236779041 97.253735069985709 0 0.83867057594974714 0.54463902268945019 1 0 0 forward_v I I I I #
loop $-1 $-1 $175 $45 #
coedge $-1 $116 $116 $117 $176 reversed $71 $-1 #
coedge $-1 $117 $117 $116 $176 forward $73 $-1 #
coedge $-1 $118 $118 $74 $119 forward $113 $-1 #
edge $-1 $177 -2.3624630807190266e-015 $177 6.2831853071795978 $118 $178 forward 7 unknown #
face $-1 $179 $180 $18 $-1 $181 reversed single #
loop $-1 $-1 $182 $75 #
plane-surface $-1 -71.044648579363383 0 0 1 0 0 0 0 -1 forward_v I I I I #
coedge $-1 $183 $131 $184 $185 forward $76 $-1 #
coedge $-1 $186 $78 $183 $187 forward $49 $-1 #
coedge $-1 $78 $186 $188 $189 forward $49 $-1 #
coedge $-1 $134 $133 $78 $127 reversed $135 $-1 #
edge $-1 $190 -49.69352772956691 $191 49.69352772956691 $126 $192 forward 7 unknown #
coedge $-1 $80 $79 $193 $194 forward $31 $-1 #
coedge $-1 $195 $196 $79 $130 reversed $180 $-1 #
edge $-1 $137 -71.044648579363383 $197 71.044648579363383 $129 $198 forward 7 unknown #
coedge $-1 $123 $199 $80 $132 reversed $76 $-1 #
edge $-1 $200 -71.044648579363383 $136 71.044648579363383 $131 $201 forward 7 unknown #
coedge $-1 $126 $81 $199 $202 forward $135 $-1 #
coedge $-1 $81 $126 $195 $203 reversed $135 $-1 #
loop $-1 $-1 $133 $179 #
vertex $-1 $82 $204 #
vertex $-1 $82 $205 #
straight-curve $-1 71.044648579363383 0 17.332905924290298 0 1 0 I I #
face $-1 $206 $207 $19 $-1 $208 reversed single #
loop $-1 $-1 $209 $83 #
plane-surface $-1 0 -55.435206880797708 7.4236811119304544 0 0 1 1 0 0 forward_v I I I I #
coedge $-1 $89 $210 $211 $212 forward $84 $-1 #
coedge $-1 $213 $86 $214 $215 reversed $53 $-1 #
coedge $-1 $86 $213 $149 $216 reversed $53 $-1 #
edge $-1 $150 -13.318466629039323 $217 -7.4236811119304544 $86 $218 forward 7 unknown #
coedge $-1 $88 $87 $219 $220 forward $34 $-1 #
coedge $-1 $211 $221 $87 $148 forward $222 $-1 #
edge $-1 $223 7.4236811119304544 $151 13.318466629039323 $147 $224 forward 7 unknown #
coedge $-1 $210 $89 $144 $216 forward $84 $-1 #
vertex $-1 $145 $225 #
vertex $-1 $212 $226 #
straight-curve $-1 0 -49.69352772956691 13.318466629039323 1 0 0 I I #
face $-1 $-1 $227 $20 $-1 $228 reversed single #
loop $-1 $-1 $229 $91 #
plane-surface $-1 71.044648579363383 0 0 -1 0 0 0 0 1 forward_v I I I I #
coedge $-1 $230 $94 $96 $162 forward $57 $-1 #
coedge $-1 $94 $230 $229 $231 reversed $57 $-1 #
coedge $-1 $232 $97 $94 $159 forward $92 $-1 #
edge $-1 $165 4.555881460841313 $233 45.844471899295151 $158 $234 forward 7 unknown #
coedge $-1 $235 $236 $95 $161 forward $227 $-1 #
edge $-1 $237 -73.419819478448261 $164 -69.987649580282465 $160 $238 forward 7 unknown #
edge $-1 $165 95.294662096842472 $237 99.387055459133791 $96 $239 forward 7 unknown #
coedge $-1 $97 $232 $235 $240 forward $92 $-1 #
vertex $-1 $161 $241 #
vertex $-1 $98 $242 #
straight-curve $-1 29.756058140909545 57.364785830363118 17.332905924290301 0 -1 0 I I #
coedge $-1 $167 $167 $-1 $243 reversed $101 $-1 #
edge $-1 $244 0 $244 6.2831853071796004 $102 $245 forward 7 unknown #
vertex $-1 $105 $246 #
ellipse-curve $-1 38.013776228600307 48.579089168917342 15.616820975207402 0 0.83867057594974714 0.54463902268945019 0.5 0 0 1 I I #
coedge $-1 $171 $171 $-1 $247 reversed $108 $-1 #
edge $-1 $248 0 $248 6.2831853071796004 $109 $249 forward 7 unknown #
vertex $-1 $112 $250 #
ellipse-curve $-1 50.40035336013645 48.579089168917342 15.616820975207402 0 0.83867057594974714 0.54463902268945019 0.5 0 0 1 I I #
coedge $-1 $175 $175 $-1 $251 reversed $115 $-1 #
edge $-1 $252 0 $252 6.2831853071796004 $116 $253 forward 7 unknown #
vertex $-1 $119 $254 #
ellipse-curve $-1 62.786930491672592 48.579089168917342 15.616820975207402 0 0.83867057594974714 0.54463902268945019 0.5 0 0 1 I I #
face $-1 $-1 $135 $18 $-1 $255 reversed single #
loop $-1 $-1 $195 $120 #
plane-surface $-1 0 49.69352772956691 0 0 -1 0 0 0 -1 forward_v I I I I #
coedge $-1 $256 $193 $196 $257 forward $121 $-1 #
coedge $-1 $199 $123 $124 $187 reversed $76 $-1 #
coedge $-1 $193 $256 $123 $185 reversed $121 $-1 #
edge $-1 $200 -17.332905924290298 $258 17.332905924290298 $184 $259 forward 7 unknown #
coedge $-1 $125 $124 $256 $260 forward $49 $-1 #
edge $-1 $191 -71.044648579363383 $258 71.044648579363383 $183 $261 forward 7 unknown #
coedge $-1 $196 $195 $125 $189 reversed $180 $-1 #
edge $-1 $262 -71.044648579363383 $190 71.044648579363383 $188 $263 forward 7 unknown #
vertex $-1 $127 $264 #
vertex $-1 $202 $265 #
straight-curve $-1 71.044648579363383 0 -17.332905924290298 0 -1 0 I I #
coedge $-1 $182 $184 $128 $194 reversed $121 $-1 #
edge $-1 $197 -49.69352772956691 $200 49.69352772956691 $193 $266 forward 7 unknown #
coedge $-1 $188 $129 $134 $203 forward $180 $-1 #
coedge $-1 $129 $188 $182 $257 reversed $180 $-1 #
vertex $-1 $130 $267 #
straight-curve $-1 0 49.69352772956691 17.332905924290298 -1 0 0 I I #
coedge $-1 $131 $183 $133 $202 reversed $76 $-1 #
vertex $-1 $194 $268 #
straight-curve $-1 0 -49.69352772956691 17.332905924290298 1 0 0 I I #
edge $-1 $136 -17.332905924290298 $191 17.332905924290298 $133 $269 forward 7 unknown #
edge $-1 $137 -17.332905924290298 $190 17.332905924290298 $134 $270 forward 7 unknown #
point $-1 71.044648579363383 -49.69352772956691 17.332905924290298 #
point $-1 71.044648579363383 49.69352772956691 17.332905924290298 #
face $-1 $-1 $222 $19 $-1 $271 reversed single #
loop $-1 $-1 $272 $139 #
plane-surface $-1 0 -61.176886032028506 10.371073870484889 0 1 0 0 0 1 forward_v I I I I #
coedge $-1 $273 $219 $221 $274 forward $140 $-1 #
coedge $-1 $142 $149 $275 $276 forward $84 $-1 #
coedge $-1 $277 $147 $142 $212 reversed $222 $-1 #
edge $-1 $278 -5.7416791512307981 $151 5.7416791512307981 $211 $279 forward 7 unknown #
coedge $-1 $144 $143 $272 $280 reversed $53 $-1 #
coedge $-1 $219 $273 $143 $215 forward $140 $-1 #
edge $-1 $281 -5.7416791512307981 $217 5.7416791512307981 $143 $282 forward 7 unknown #
edge $-1 $150 -5.7416791512307981 $283 5.7416791512307981 $144 $284 forward 7 unknown #
vertex $-1 $145 $285 #
straight-curve $-1 -71.044648579363383 -49.69352772956691 0 0 0 -1 I I #
coedge $-1 $209 $214 $146 $220 reversed $140 $-1 #
edge $-1 $223 -71.044648579363383 $217 71.044648579363383 $219 $286 forward 7 unknown #
coedge $-1 $147 $277 $209 $274 reversed $222 $-1 #
loop $-1 $-1 $147 $206 #
vertex $-1 $148 $287 #
straight-curve $-1 71.044648579363383 -49.69352772956691 0 0 0 1 I I #
point $-1 -71.044648579363383 -49.69352772956691 13.318466629039323 #
point $-1 71.044648579363383 -49.69352772956691 13.318466629039323 #
loop $-1 $-1 $160 $153 #
plane-surface $-1 0 49.69352772956691 0 0 -1 0 0 0 -1 forward_v I I I I #
coedge $-1 $288 $289 $157 $231 forward $154 $-1 #
coedge $-1 $157 $156 $236 $290 reversed $57 $-1 #
edge $-1 $233 53.304582411009157 $291 57.39697577330049 $229 $292 forward 7 unknown #
coedge $-1 $163 $158 $289 $293 forward $92 $-1 #
vertex $-1 $293 $294 #
straight-curve $-1 25.200176680068232 47.464650608267767 17.332905924290301 1 0 0 I I #
coedge $-1 $295 $160 $163 $240 reversed $227 $-1 #
coedge $-1 $160 $295 $230 $290 forward $227 $-1 #
vertex $-1 $161 $296 #
straight-curve $-1 29.756058140909545 49.69352772956691 87.320555504572766 0 0 1 I I #
straight-curve $-1 29.756058140909545 -4.4365410236779041 97.253735069985709 0 0.54463902268945019 -0.83867057594974714 I I #
edge $-1 $297 -71.044648579363383 $164 -29.756058140909545 $235 $298 forward 7 unknown #
point $-1 29.756058140909545 49.69352772956691 17.332905924290298 #
point $-1 29.756058140909545 47.464650608267767 17.332905924290301 #
edge $-1 $299 1 $299 0 $167 $-1 forward 7 unknown #
vertex $-1 $168 $300 #
ellipse-curve $-1 38.013776228600307 46.902439081367653 14.527991712250213 0 0.83867057594974714 0.54463902268945019 0.5 0 0 1 I I #
point $-1 38.513776228600307 48.579089168917321 15.616820975207389 #
edge $-1 $301 1 $301 0 $171 $-1 forward 7 unknown #
vertex $-1 $172 $302 #
ellipse-curve $-1 50.40035336013645 46.902439081367653 14.527991712250213 0 0.83867057594974714 0.54463902268945019 0.5 0 0 1 I I #
point $-1 50.90035336013645 48.579089168917321 15.616820975207389 #
edge $-1 $303 1 $303 0 $175 $-1 forward 7 unknown #
vertex $-1 $176 $304 #
ellipse-curve $-1 62.786930491672592 46.902439081367653 14.527991712250213 0 0.83867057594974714 0.54463902268945019 0.5 0 0 1 I I #
point $-1 63.286930491672592 48.579089168917321 15.616820975207389 #
plane-surface $-1 71.044648579363383 0 0 -1 0 0 0 0 1 forward_v I I I I #
coedge $-1 $184 $182 $186 $260 reversed $121 $-1 #
edge $-1 $197 -17.332905924290298 $262 17.332905924290298 $196 $305 forward 7 unknown #
vertex $-1 $260 $306 #
straight-curve $-1 -71.044648579363383 -49.69352772956691 0 0 0 -1 I I #
edge $-1 $258 -49.69352772956691 $262 49.69352772956691 $256 $307 forward 7 unknown #
straight-curve $-1 0 -49.69352772956691 -17.332905924290298 -1 0 0 I I #
vertex $-1 $189 $308 #
straight-curve $-1 0 49.69352772956691 -17.332905924290298 1 0 0 I I #
point $-1 71.044648579363383 49.69352772956691 -17.332905924290298 #
point $-1 71.044648579363383 -49.69352772956691 -17.332905924290298 #
straight-curve $-1 -71.044648579363383 0 17.332905924290298 0 -1 0 I I #
point $-1 -71.044648579363383 49.69352772956691 17.332905924290298 #
point $-1 -71.044648579363383 -49.69352772956691 17.332905924290298 #
straight-curve $-1 71.044648579363383 -49.69352772956691 0 0 0 -1 I I #
straight-curve $-1 71.044648579363383 49.69352772956691 0 0 0 -1 I I #
plane-surface $-1 71.044648579363383 0 0 -1 0 0 0 0 1 forward_v I I I I #
coedge $-1 $309 $275 $213 $280 forward $207 $-1 #
coedge $-1 $214 $209 $309 $310 forward $140 $-1 #
edge $-1 $223 -5.7416791512307981 $311 5.7416791512307981 $221 $312 forward 7 unknown #
coedge $-1 $272 $313 $210 $276 reversed $207 $-1 #
edge $-1 $283 -71.044648579363383 $278 71.044648579363383 $275 $314 forward 7 unknown #
coedge $-1 $221 $211 $313 $315 forward $222 $-1 #
vertex $-1 $212 $316 #
straight-curve $-1 71.044648579363383 -55.435206880797708 13.318466629039323 0 1 0 I I #
edge $-1 $283 -2.9473927585544342 $281 2.9473927585544342 $213 $317 forward 7 unknown #
vertex $-1 $215 $318 #
straight-curve $-1 -71.044648579363383 -55.435206880797708 7.4236811119304544 0 1 0 I I #
vertex $-1 $216 $319 #
straight-curve $-1 -71.044648579363383 -55.435206880797708 13.318466629039323 0 -1 0 I I #
point $-1 -71.044648579363383 -49.69352772956691 7.4236811119304544 #
straight-curve $-1 0 -49.69352772956691 7.4236811119304544 -1 0 0 I I #
point $-1 71.044648579363383 -49.69352772956691 7.4236811119304544 #
coedge $-1 $289 $229 $295 $320 reversed $154 $-1 #
coedge $-1 $229 $288 $232 $293 reversed $154 $-1 #
edge $-1 $291 -45.844471899295151 $237 -4.555881460841313 $236 $321 forward 7 unknown #
vertex $-1 $231 $322 #
straight-curve $-1 71.044648579363383 18.432894939066486 62.037890755692111 0 0.54463902268945019 -0.83867057594974714 I I #
edge $-1 $233 47.464650608267767 $297 49.69352772956691 $289 $323 forward 7 unknown #
point $-1 71.044648579363383 47.464650608267767 17.332905924290301 #
coedge $-1 $236 $235 $288 $320 forward $227 $-1 #
point $-1 29.756058140909545 49.69352772956691 13.900736026124505 #
vertex $-1 $293 $324 #
straight-curve $-1 0 49.69352772956691 17.332905924290298 -1 0 0 I I #
vertex $-1 $243 $325 #
point $-1 38.513776228600307 46.902439081367653 14.527991712250213 #
vertex $-1 $247 $326 #
point $-1 50.90035336013645 46.902439081367653 14.527991712250213 #
vertex $-1 $251 $327 #
point $-1 63.286930491672592 46.902439081367653 14.527991712250213 #
straight-curve $-1 -71.044648579363383 49.69352772956691 0 0 0 -1 I I #
point $-1 -71.044648579363383 -49.69352772956691 -17.332905924290298 #
straight-curve $-1 -71.044648579363383 0 -17.332905924290298 0 1 0 I I #
point $-1 -71.044648579363383 49.69352772956691 -17.332905924290298 #
coedge $-1 $313 $272 $273 $310 reversed $207 $-1 #
edge $-1 $311 -71.044648579363383 $281 71.044648579363383 $309 $328 forward 7 unknown #
vertex $-1 $315 $329 #
straight-curve $-1 71.044648579363383 -55.435206880797708 7.4236811119304544 0 -1 0 I I #
coedge $-1 $275 $309 $277 $315 reversed $207 $-1 #
straight-curve $-1 0 -61.176886032028506 13.318466629039323 1 0 0 I I #
edge $-1 $278 -2.9473927585544342 $311 2.9473927585544342 $277 $330 forward 7 unknown #
point $-1 71.044648579363383 -61.176886032028506 13.318466629039323 #
straight-curve $-1 -71.044648579363383 -61.176886032028506 10.371073870484889 0 0 -1 I I #
point $-1 -71.044648579363383 -61.176886032028506 7.4236811119304544 #
point $-1 -71.044648579363383 -61.176886032028506 13.318466629039323 #
edge $-1 $297 -17.332905924290298 $291 -13.900736026124505 $288 $331 forward 7 unknown #
straight-curve $-1 25.200176680068232 49.69352772956691 13.900736026124513 -1 0 0 I I #
point $-1 71.044648579363383 49.69352772956691 13.900736026124505 #
straight-curve $-1 71.044648579363383 0 17.332905924290298 0 1 0 I I #
point $-1 71.044648579363383 49.69352772956691 17.332905924290298 #
point $-1 38.013776228600307 46.483103793392779 14.255672200905487 #
point $-1 50.40035336013645 46.483103793392779 14.255672200905487 #
point $-1 62.786930491672592 46.483103793392779 14.255672200905487 #
straight-curve $-1 0 -61.176886032028506 7.4236811119304544 -1 0 0 I I #
point $-1 71.044648579363383 -61.176886032028506 7.4236811119304544 #
straight-curve $-1 71.044648579363383 -61.176886032028506 10.371073870484889 0 0 -1 I I #
straight-curve $-1 71.044648579363383 49.69352772956691 0 0 0 -1 I I #
End-of-ACIS-data 