500 0 8 0           
7 Unknown 11 ACIS 5.0 NT 24 Thu Mar 25 21:19:17 1999 
-1 9.9999999999999995e-007 1e-010 
body $-1 $8 $-1 $9 #
body $-1 $10 $-1 $11 #
body $-1 $12 $-1 $13 #
body $-1 $14 $-1 $15 #
body $-1 $16 $-1 $17 #
body $-1 $18 $-1 $19 #
body $-1 $20 $-1 $21 #
body $-1 $22 $-1 $23 #
lump $-1 $-1 $24 $0 #
transform $-1 1 0 0 0 1 0 0 0 1 68.394421216467791 40.856519103031061 8.8105792301378756 1 rotate no_reflect no_shear #
lump $-1 $-1 $25 $1 #
transform $-1 1 0 0 0 1 0 0 0 1 68.394421216467791 40.856519103031061 8.8105792301378756 1 rotate no_reflect no_shear #
lump $-1 $-1 $26 $2 #
transform $-1 1 0 0 0 1 0 0 0 1 68.394421216467791 40.856519103031061 8.8105792301378756 1 rotate no_reflect no_shear #
lump $-1 $-1 $27 $3 #
transform $-1 1 0 0 0 1 0 0 0 1 68.394421216467791 40.856519103031061 8.8105792301378756 1 rotate no_reflect no_shear #
lump $-1 $-1 $28 $4 #
transform $-1 1 0 0 0 1 0 0 0 1 68.394421216467791 40.856519103031061 8.8105792301378756 1 rotate no_reflect no_shear #
lump $-1 $-1 $29 $5 #
transform $-1 1 0 0 0 1 0 0 0 1 68.394421216467791 40.856519103031061 8.8105792301378756 1 rotate no_reflect no_shear #
lump $-1 $-1 $30 $6 #
transform $-1 1 0 0 0 1 0 0 0 1 68.394421216467791 40.856519103031061 8.8105792301378756 1 rotate no_reflect no_shear #
lump $-1 $-1 $31 $7 #
transform $-1 1 0 0 0 1 0 0 0 1 68.394421216467791 40.856519103031061 8.8105792301378756 1 rotate no_reflect no_shear #
shell $-1 $-1 $-1 $32 $-1 $8 #
shell $-1 $-1 $-1 $33 $-1 $10 #
shell $-1 $-1 $-1 $34 $-1 $12 #
shell $-1 $-1 $-1 $35 $-1 $14 #
shell $-1 $-1 $-1 $36 $-1 $16 #
shell $-1 $-1 $-1 $37 $-1 $18 #
shell $-1 $-1 $-1 $38 $-1 $20 #
shell $-1 $-1 $-1 $39 $-1 $22 #
face $-1 $40 $41 $24 $-1 $42 forward single #
face $-1 $43 $44 $25 $-1 $45 forward single #
face $-1 $46 $47 $26 $-1 $48 reversed single #
face $-1 $49 $50 $27 $-1 $51 forward single #
face $-1 $52 $53 $28 $-1 $54 forward single #
face $-1 $55 $56 $29 $-1 $57 forward single #
face $-1 $58 $59 $30 $-1 $60 reversed single #
face $-1 $61 $62 $31 $-1 $63 forward single #
face $-1 $64 $65 $24 $-1 $66 reversed single #
loop $-1 $-1 $67 $32 #
plane-surface $-1 0 0 8.8105792301378756 0 0 1 1 0 0 forward_v I I I I #
face $-1 $68 $69 $25 $-1 $70 reversed single #
loop $-1 $-1 $71 $33 #
plane-surface $-1 0 -36.277843892546926 -5.8105792301378756 0 0 1 1 0 0 forward_v I I I I #
face $-1 $72 $73 $26 $-1 $74 reversed single #
loop $-1 $-1 $75 $34 #
plane-surface $-1 28.17418979813398 25.566172386443995 191.78214532551067 0 1 0 0.54463904215088732 0 0.83867056331134215 forward_v I I I I #
face $-1 $76 $77 $27 $-1 $78 forward single #
loop $-1 $79 $80 $35 #
cone-surface $-1 63.258354209679226 28.624241729761408 5.186510843733978 -0.54463904215088732 0 -0.83867056331134215 0.83867056331134215 0 -0.54463904215088732 1 I I 0 1 1 forward I I I I #
face $-1 $81 $82 $28 $-1 $83 forward single #
loop $-1 $84 $85 $36 #
cone-surface $-1 63.258354209679226 33.211345744737528 5.186510843733978 -0.54463904215088732 0 -0.83867056331134215 0.83867056331134215 0 -0.54463904215088732 1 I I 0 1 1 forward I I I I #
face $-1 $86 $87 $29 $-1 $88 forward single #
loop $-1 $89 $90 $37 #
cone-surface $-1 63.258354209679226 37.798449759713648 5.186510843733978 -0.54463904215088732 0 -0.83867056331134215 0.83867056331134215 0 -0.54463904215088732 1 I I 0 1 1 forward I I I I #
face $-1 $91 $92 $30 $-1 $93 reversed single #
loop $-1 $-1 $94 $38 #
plane-surface $-1 -146.85327900290588 -14.607250340937263 116.85668542577378 0 1 0 -0.57357644374324357 0 0.81915203911291934 forward_v I I I I #
face $-1 $95 $96 $31 $-1 $97 forward single #
loop $-1 $98 $99 $39 #
cone-surface $-1 -64.524955239639723 -6.2176321987651733 5.366093146967355 0.57357644374324357 0 -0.81915203911291934 0.81915203911291934 0 0.57357644374324357 1 I I 0 1 1 forward I I I I #
face $-1 $100 $101 $24 $-1 $102 reversed single #
loop $-1 $-1 $103 $40 #
plane-surface $-1 0 0 -8.8105792301378756 0 0 1 1 0 0 forward_v I I I I #
coedge $-1 $104 $105 $106 $107 forward $41 $-1 #
face $-1 $108 $109 $25 $-1 $110 reversed single #
loop $-1 $-1 $111 $43 #
plane-surface $-1 0 -31.69916868206279 -7.3105792301378756 0 -1 0 0 0 -1 forward_v I I I I #
coedge $-1 $112 $113 $114 $115 reversed $44 $-1 #
face $-1 $116 $117 $26 $-1 $118 forward single #
loop $-1 $-1 $119 $46 #
plane-surface $-1 -46.326354321468699 33.211345744737528 77.061369787574165 0.54463904215088732 0 0.83867056331134215 0.83867056331134215 0 -0.54463904215088732 forward_v I I I I #
coedge $-1 $120 $121 $122 $123 reversed $47 $-1 #
face $-1 $-1 $124 $27 $-1 $125 forward single #
loop $-1 $126 $127 $49 #
cone-surface $-1 62.661855863609432 28.624241729761408 4.2679839567576252 -0.54463904215088732 0 -0.83867056331134215 0.41933528165567108 0 -0.27231952107544366 1 I I -0.70710678118654746 0.70710678118654746 0.5 forward I I I I #
loop $-1 $-1 $128 $35 #
coedge $-1 $80 $80 $129 $130 reversed $50 $-1 #
face $-1 $-1 $131 $28 $-1 $132 forward single #
loop $-1 $133 $134 $52 #
cone-surface $-1 62.661855863609432 33.211345744737528 4.2679839567576252 -0.54463904215088732 0 -0.83867056331134215 0.41933528165567108 0 -0.27231952107544366 1 I I -0.70710678118654746 0.70710678118654746 0.5 forward I I I I #
loop $-1 $-1 $135 $36 #
coedge $-1 $85 $85 $136 $137 reversed $53 $-1 #
face $-1 $-1 $138 $29 $-1 $139 forward single #
loop $-1 $140 $141 $55 #
cone-surface $-1 62.661855863609432 37.798449759713648 4.2679839567576252 -0.54463904215088732 0 -0.83867056331134215 0.41933528165567108 0 -0.27231952107544366 1 I I -0.70710678118654746 0.70710678118654746 0.5 forward I I I I #
loop $-1 $-1 $142 $37 #
coedge $-1 $90 $90 $143 $144 reversed $56 $-1 #
face $-1 $145 $146 $30 $-1 $147 reversed single #
loop $-1 $-1 $148 $58 #
plane-surface $-1 -68.394421216467791 -6.2176321987651733 4.8058262189387619 -0.57357644374324357 0 0.81915203911291934 0.81915203911291934 0 0.57357644374324357 forward_v I I I I #
coedge $-1 $149 $150 $151 $152 reversed $59 $-1 #
face $-1 $-1 $153 $31 $-1 $154 forward single #
loop $-1 $155 $156 $61 #
cone-surface $-1 -63.228391001234002 -6.2176321987651733 3.5144075498399285 0.57357644374324357 0 -0.81915203911291934 0.40957601955645967 0 0.28678822187162178 1 I I -0.70710678118654746 0.70710678118654746 0.5 forward I I I I #
loop $-1 $-1 $157 $39 #
coedge $-1 $99 $99 $158 $159 reversed $62 $-1 #
face $-1 $160 $161 $24 $-1 $162 reversed single #
loop $-1 $-1 $163 $64 #
plane-surface $-1 0 -40.856519103031061 0 0 1 0 0 0 1 forward_v I I I I #
coedge $-1 $164 $165 $166 $167 forward $65 $-1 #
coedge $-1 $168 $67 $169 $170 forward $41 $-1 #
coedge $-1 $67 $168 $171 $172 forward $41 $-1 #
coedge $-1 $173 $174 $67 $107 reversed $175 $-1 #
edge $-1 $176 -40.856519103031061 $177 40.856519103031061 $106 $178 forward 7 unknown #
face $-1 $179 $180 $25 $-1 $181 reversed single #
loop $-1 $-1 $182 $68 #
plane-surface $-1 0 0 -8.8105792301378756 0 0 1 1 0 0 forward_v I I I I #
coedge $-1 $183 $184 $185 $186 reversed $69 $-1 #
coedge $-1 $187 $71 $184 $188 forward $44 $-1 #
coedge $-1 $71 $187 $189 $190 reversed $44 $-1 #
coedge $-1 $191 $185 $71 $115 forward $180 $-1 #
edge $-1 $192 13.560246735789327 $193 22.717597156757598 $114 $194 forward 7 unknown #
face $-1 $195 $196 $26 $-1 $197 reversed single #
loop $-1 $-1 $198 $72 #
plane-surface $-1 0 0 8.8105792301378756 0 0 1 1 0 0 forward_v I I I I #
coedge $-1 $199 $200 $201 $202 reversed $73 $-1 #
coedge $-1 $121 $75 $203 $204 reversed $47 $-1 #
coedge $-1 $75 $120 $199 $205 reversed $47 $-1 #
coedge $-1 $201 $206 $75 $123 forward $207 $-1 #
edge $-1 $208 87.080493432617459 $209 93.330246994783835 $122 $210 forward 7 unknown #
loop $-1 $-1 $129 $76 #
plane-surface $-1 -46.326354321468699 33.211345744737528 77.061369787574165 0.54463904215088732 0 0.83867056331134215 0.83867056331134215 0 -0.54463904215088732 forward_v I I I I #
loop $-1 $-1 $211 $49 #
coedge $-1 $127 $127 $128 $212 reversed $77 $-1 #
coedge $-1 $128 $128 $127 $212 forward $79 $-1 #
coedge $-1 $129 $129 $80 $130 forward $124 $-1 #
edge $-1 $213 0 $213 6.2831853071796004 $129 $214 forward 7 unknown #
loop $-1 $-1 $136 $81 #
plane-surface $-1 -46.326354321468699 33.211345744737528 77.061369787574165 0.54463904215088732 0 0.83867056331134215 0.83867056331134215 0 -0.54463904215088732 forward_v I I I I #
loop $-1 $-1 $215 $52 #
coedge $-1 $134 $134 $135 $216 reversed $82 $-1 #
coedge $-1 $135 $135 $134 $216 forward $84 $-1 #
coedge $-1 $136 $136 $85 $137 forward $131 $-1 #
edge $-1 $217 0 $217 6.2831853071796004 $136 $218 forward 7 unknown #
loop $-1 $-1 $143 $86 #
plane-surface $-1 -46.326354321468699 33.211345744737528 77.061369787574165 0.54463904215088732 0 0.83867056331134215 0.83867056331134215 0 -0.54463904215088732 forward_v I I I I #
loop $-1 $-1 $219 $55 #
coedge $-1 $141 $141 $142 $220 reversed $87 $-1 #
coedge $-1 $142 $142 $141 $220 forward $89 $-1 #
coedge $-1 $143 $143 $90 $144 forward $138 $-1 #
edge $-1 $221 0 $221 6.2831853071796004 $143 $222 forward 7 unknown #
face $-1 $223 $224 $30 $-1 $225 reversed single #
loop $-1 $-1 $226 $91 #
plane-surface $-1 -146.85327900290588 2.1719859434069164 116.85668542577378 0 -1 0 0.57357644374324357 0 -0.81915203911291934 forward_v I I I I #
coedge $-1 $227 $228 $229 $230 reversed $92 $-1 #
coedge $-1 $150 $94 $231 $232 reversed $59 $-1 #
coedge $-1 $94 $149 $227 $233 reversed $59 $-1 #
coedge $-1 $229 $234 $94 $152 forward $235 $-1 #
edge $-1 $236 5.0322182849851487 $237 10.75159820557311 $151 $238 forward 7 unknown #
loop $-1 $-1 $158 $95 #
plane-surface $-1 -68.394421216467791 -6.2176321987651733 4.8058262189387619 -0.57357644374324357 0 0.81915203911291934 0.81915203911291934 0 0.57357644374324357 forward_v I I I I #
loop $-1 $-1 $239 $61 #
coedge $-1 $156 $156 $157 $240 reversed $96 $-1 #
coedge $-1 $157 $157 $156 $240 forward $98 $-1 #
coedge $-1 $158 $158 $99 $159 forward $153 $-1 #
edge $-1 $241 0 $241 6.2831853071796004 $158 $242 forward 7 unknown #
face $-1 $243 $244 $24 $-1 $245 reversed single #
loop $-1 $-1 $246 $100 #
plane-surface $-1 -68.394421216467791 0 0 1 0 0 0 0 -1 forward_v I I I I #
coedge $-1 $247 $171 $248 $249 forward $101 $-1 #
coedge $-1 $250 $103 $247 $251 forward $65 $-1 #
coedge $-1 $103 $250 $252 $253 forward $65 $-1 #
coedge $-1 $174 $173 $103 $167 reversed $175 $-1 #
edge $-1 $254 -40.856519103031061 $255 40.856519103031061 $166 $256 forward 7 unknown #
coedge $-1 $105 $104 $257 $258 forward $41 $-1 #
coedge $-1 $259 $260 $104 $170 reversed $244 $-1 #
edge $-1 $177 -68.394421216467791 $261 68.394421216467791 $169 $262 forward 7 unknown #
coedge $-1 $163 $263 $105 $172 reversed $101 $-1 #
edge $-1 $264 -68.394421216467791 $176 68.394421216467791 $171 $265 forward 7 unknown #
coedge $-1 $166 $106 $263 $266 forward $175 $-1 #
coedge $-1 $106 $166 $259 $267 reversed $175 $-1 #
loop $-1 $-1 $173 $243 #
vertex $-1 $107 $268 #
vertex $-1 $107 $269 #
straight-curve $-1 68.394421216467791 0 8.8105792301378756 0 1 0 I I #
face $-1 $270 $271 $25 $-1 $272 reversed single #
loop $-1 $-1 $185 $108 #
plane-surface $-1 68.394421216467791 0 0 -1 0 0 0 0 1 forward_v I I I I #
coedge $-1 $273 $274 $183 $275 forward $109 $-1 #
coedge $-1 $276 $111 $182 $275 reversed $69 $-1 #
coedge $-1 $111 $276 $112 $188 reversed $69 $-1 #
coedge $-1 $114 $277 $111 $186 forward $180 $-1 #
edge $-1 $278 -5.1552896150689378 $192 -2.1552896150689378 $185 $279 forward 7 unknown #
coedge $-1 $113 $112 $280 $281 reversed $44 $-1 #
edge $-1 $192 -68.394421216467791 $282 68.394421216467791 $184 $283 forward 7 unknown #
coedge $-1 $284 $285 $113 $190 forward $271 $-1 #
edge $-1 $193 -68.394421216467791 $286 68.394421216467791 $189 $287 forward 7 unknown #
coedge $-1 $277 $114 $285 $288 forward $180 $-1 #
vertex $-1 $115 $289 #
vertex $-1 $288 $290 #
straight-curve $-1 68.394421216467791 -18.138921946273463 -5.8105792301378756 0 -1 0 I I #
face $-1 $-1 $207 $26 $-1 $291 reversed single #
loop $-1 $-1 $292 $116 #
plane-surface $-1 0 40.856519103031061 0 0 -1 0 0 0 -1 forward_v I I I I #
coedge $-1 $203 $293 $294 $295 forward $117 $-1 #
coedge $-1 $294 $119 $121 $205 forward $73 $-1 #
coedge $-1 $119 $294 $292 $296 reversed $73 $-1 #
coedge $-1 $297 $122 $119 $202 forward $207 $-1 #
edge $-1 $209 8.9604995140752308 $298 24.250846230662297 $201 $299 forward 7 unknown #
coedge $-1 $300 $198 $120 $204 forward $117 $-1 #
edge $-1 $301 44.683549953812381 $208 54.307326317400801 $203 $302 forward 7 unknown #
edge $-1 $209 -136.78884243293555 $301 -125.31380469512507 $121 $303 forward 7 unknown #
coedge $-1 $122 $297 $300 $304 reversed $207 $-1 #
loop $-1 $-1 $201 $195 #
vertex $-1 $304 $305 #
vertex $-1 $123 $306 #
straight-curve $-1 68.394421216467791 25.566172386443995 95.891072662755334 0 0 -1 I I #
coedge $-1 $211 $211 $-1 $307 reversed $126 $-1 #
edge $-1 $308 0 $308 6.2831853071796004 $127 $309 forward 7 unknown #
vertex $-1 $130 $310 #
ellipse-curve $-1 63.582533034673581 28.624241729761408 5.685702449054669 0.54463904215088732 0 0.83867056331134215 0.83867056331134215 0 -0.54463904215088732 1 I I #
coedge $-1 $215 $215 $-1 $311 reversed $133 $-1 #
edge $-1 $312 0 $312 6.2831853071796004 $134 $313 forward 7 unknown #
vertex $-1 $137 $314 #
ellipse-curve $-1 63.582533034673581 33.211345744737528 5.685702449054669 0.54463904215088732 0 0.83867056331134215 0.83867056331134215 0 -0.54463904215088732 1 I I #
coedge $-1 $219 $219 $-1 $315 reversed $140 $-1 #
edge $-1 $316 0 $316 6.2831853071796004 $141 $317 forward 7 unknown #
vertex $-1 $144 $318 #
ellipse-curve $-1 63.582533034673581 37.798449759713648 5.685702449054669 0.54463904215088732 0 0.83867056331134215 0.83867056331134215 0 -0.54463904215088732 1 I I #
face $-1 $-1 $235 $30 $-1 $319 forward single #
loop $-1 $-1 $320 $145 #
plane-surface $-1 -68.394421216467791 0 0 1 0 0 0 0 -1 forward_v I I I I #
coedge $-1 $321 $322 $323 $324 reversed $146 $-1 #
coedge $-1 $325 $148 $150 $233 forward $92 $-1 #
coedge $-1 $148 $325 $321 $326 forward $92 $-1 #
coedge $-1 $323 $151 $148 $230 forward $235 $-1 #
edge $-1 $237 -11.498434241554676 $327 5.280802042789503 $229 $328 forward 7 unknown #
coedge $-1 $329 $330 $149 $232 forward $224 $-1 #
edge $-1 $331 -53.622516493948126 $236 -49.617763482749012 $231 $332 forward 7 unknown #
edge $-1 $237 -6.9820737146447485 $331 0 $150 $333 forward 7 unknown #
coedge $-1 $151 $323 $329 $334 forward $235 $-1 #
loop $-1 $-1 $323 $223 #
vertex $-1 $232 $335 #
vertex $-1 $152 $336 #
straight-curve $-1 -73.426639501452939 -14.607250340937263 8.8105792301378756 1 0 0 I I #
coedge $-1 $239 $239 $-1 $337 reversed $155 $-1 #
edge $-1 $338 0 $338 6.2831853071796004 $156 $339 forward 7 unknown #
vertex $-1 $159 $340 #
ellipse-curve $-1 -65.534731256173814 -6.2176321987651733 6.8082027245383152 -0.57357644374324357 0 0.81915203911291934 0.81915203911291934 0 0.57357644374324357 1 I I #
face $-1 $-1 $175 $24 $-1 $341 reversed single #
loop $-1 $-1 $259 $160 #
plane-surface $-1 0 40.856519103031061 0 0 -1 0 0 0 -1 forward_v I I I I #
coedge $-1 $342 $257 $260 $343 forward $161 $-1 #
coedge $-1 $263 $163 $164 $251 reversed $101 $-1 #
coedge $-1 $257 $342 $163 $249 reversed $161 $-1 #
edge $-1 $264 -8.8105792301378756 $344 8.8105792301378756 $248 $345 forward 7 unknown #
coedge $-1 $165 $164 $342 $346 forward $65 $-1 #
edge $-1 $255 -68.394421216467791 $344 68.394421216467791 $247 $347 forward 7 unknown #
coedge $-1 $260 $259 $165 $253 reversed $244 $-1 #
edge $-1 $348 -68.394421216467791 $254 68.394421216467791 $252 $349 forward 7 unknown #
vertex $-1 $167 $350 #
vertex $-1 $266 $351 #
straight-curve $-1 68.394421216467791 0 -8.8105792301378756 0 -1 0 I I #
coedge $-1 $246 $248 $168 $258 reversed $161 $-1 #
edge $-1 $261 -40.856519103031061 $264 40.856519103031061 $257 $352 forward 7 unknown #
coedge $-1 $252 $169 $174 $267 forward $244 $-1 #
coedge $-1 $169 $252 $246 $343 reversed $244 $-1 #
vertex $-1 $170 $353 #
straight-curve $-1 0 40.856519103031061 8.8105792301378756 -1 0 0 I I #
coedge $-1 $171 $247 $173 $266 reversed $101 $-1 #
vertex $-1 $258 $354 #
straight-curve $-1 0 -40.856519103031061 8.8105792301378756 1 0 0 I I #
edge $-1 $176 -8.8105792301378756 $255 8.8105792301378756 $173 $355 forward 7 unknown #
edge $-1 $177 -8.8105792301378756 $254 8.8105792301378756 $174 $356 forward 7 unknown #
point $-1 68.394421216467791 -40.856519103031061 8.8105792301378756 #
point $-1 68.394421216467791 40.856519103031061 8.8105792301378756 #
face $-1 $-1 $357 $25 $-1 $358 reversed single #
loop $-1 $-1 $189 $179 #
plane-surface $-1 0 -40.856519103031061 0 0 1 0 0 0 1 forward_v I I I I #
coedge $-1 $359 $182 $277 $360 forward $109 $-1 #
coedge $-1 $182 $359 $361 $362 forward $109 $-1 #
edge $-1 $363 -68.394421216467791 $278 68.394421216467791 $182 $364 forward 7 unknown #
coedge $-1 $184 $183 $365 $366 reversed $69 $-1 #
coedge $-1 $185 $191 $273 $360 reversed $180 $-1 #
vertex $-1 $360 $367 #
straight-curve $-1 68.394421216467791 -31.69916868206279 -3.6552896150689378 0 0 1 I I #
coedge $-1 $365 $368 $187 $281 forward $357 $-1 #
edge $-1 $286 -22.717597156757598 $282 -13.560246735789327 $280 $369 forward 7 unknown #
vertex $-1 $281 $370 #
straight-curve $-1 0 -31.69916868206279 -5.8105792301378756 -1 0 0 I I #
coedge $-1 $371 $189 $368 $372 forward $271 $-1 #
coedge $-1 $189 $371 $191 $288 reversed $271 $-1 #
vertex $-1 $372 $373 #
straight-curve $-1 0 -40.856519103031061 -5.8105792301378756 -1 0 0 I I #
edge $-1 $193 5.8105792301378756 $374 8.8105792301378756 $191 $375 forward 7 unknown #
point $-1 68.394421216467791 -31.69916868206279 -5.8105792301378756 #
point $-1 68.394421216467791 -40.856519103031061 -5.8105792301378756 #
plane-surface $-1 68.394421216467791 0 0 -1 0 0 0 0 1 forward_v I I I I #
coedge $-1 $376 $377 $200 $296 forward $196 $-1 #
coedge $-1 $198 $300 $376 $378 forward $117 $-1 #
coedge $-1 $200 $199 $198 $295 reversed $73 $-1 #
edge $-1 $379 -24.250846230662297 $301 -8.9604995140752308 $198 $380 forward 7 unknown #
edge $-1 $298 -96.377252281492204 $379 -84.902214543681737 $292 $381 forward 7 unknown #
coedge $-1 $206 $201 $377 $382 reversed $207 $-1 #
vertex $-1 $202 $383 #
straight-curve $-1 68.394421216467777 16.605672872368764 2.5608256679714927 0 1 0 I I #
coedge $-1 $293 $203 $206 $304 forward $117 $-1 #
vertex $-1 $204 $384 #
straight-curve $-1 14.08709489906699 25.566172386443995 8.8105792301378756 1 0 0 I I #
straight-curve $-1 -46.326354321468699 25.566172386443995 77.061369787574165 -0.83867056331134215 0 0.54463904215088732 I I #
edge $-1 $208 25.566172386443995 $385 40.856519103031061 $206 $386 forward 7 unknown #
point $-1 68.394421216467791 25.566172386443995 8.8105792301378756 #
point $-1 68.394421216467791 25.566172386443995 2.5608256679714998 #
edge $-1 $387 1 $387 0 $211 $-1 forward 7 unknown #
vertex $-1 $212 $388 #
ellipse-curve $-1 62.934175384684877 28.624241729761408 4.6873192384132967 0.54463904215088732 0 0.83867056331134215 0.83867056331134215 0 -0.54463904215088732 1 I I #
point $-1 64.421203597984913 28.624241729761408 5.1410634069037719 #
edge $-1 $389 1 $389 0 $215 $-1 forward 7 unknown #
vertex $-1 $216 $390 #
ellipse-curve $-1 62.934175384684877 33.211345744737528 4.6873192384132967 0.54463904215088732 0 0.83867056331134215 0.83867056331134215 0 -0.54463904215088732 1 I I #
point $-1 64.421203597984913 33.211345744737528 5.1410634069037719 #
edge $-1 $391 1 $391 0 $219 $-1 forward 7 unknown #
vertex $-1 $220 $392 #
ellipse-curve $-1 62.934175384684877 37.798449759713648 4.6873192384132967 0.54463904215088732 0 0.83867056331134215 0.83867056331134215 0 -0.54463904215088732 1 I I #
point $-1 64.421203597984913 37.798449759713648 5.1410634069037719 #
plane-surface $-1 0 0 8.8105792301378756 0 0 1 1 0 0 forward_v I I I I #
coedge $-1 $330 $329 $322 $393 forward $224 $-1 #
coedge $-1 $322 $226 $228 $326 reversed $146 $-1 #
coedge $-1 $226 $321 $320 $393 reversed $146 $-1 #
coedge $-1 $234 $229 $226 $324 forward $235 $-1 #
edge $-1 $327 -10.75159820557311 $394 -5.0322182849851487 $323 $395 forward 7 unknown #
coedge $-1 $228 $227 $330 $396 reversed $92 $-1 #
edge $-1 $397 0 $327 6.9820737146447485 $321 $398 forward 7 unknown #
vertex $-1 $230 $399 #
straight-curve $-1 -62.675041295879829 -3.1088160993825866 8.8105792301378756 0 1 0 I I #
coedge $-1 $320 $231 $234 $334 reversed $224 $-1 #
coedge $-1 $231 $320 $325 $396 forward $224 $-1 #
vertex $-1 $232 $400 #
straight-curve $-1 -68.394421216467791 -14.607250340937263 58.428342712886888 0 0 1 I I #
straight-curve $-1 -68.394421216467791 -14.607250340937263 4.8058262189387619 -0.81915203911291934 0 -0.57357644374324357 I I #
edge $-1 $394 -2.1719859434069164 $236 14.607250340937263 $329 $401 forward 7 unknown #
point $-1 -68.394421216467791 -14.607250340937263 8.8105792301378756 #
point $-1 -62.675041295879829 -14.607250340937263 8.8105792301378756 #
edge $-1 $402 1 $402 0 $239 $-1 forward 7 unknown #
vertex $-1 $240 $403 #
ellipse-curve $-1 -63.515179223105626 -6.2176321987651733 3.923983569396388 -0.57357644374324357 0 0.81915203911291934 0.81915203911291934 0 0.57357644374324357 1 I I #
point $-1 -64.715579217060892 -6.2176321987651733 7.3817791682815646 #
plane-surface $-1 68.394421216467791 0 0 -1 0 0 0 0 1 forward_v I I I I #
coedge $-1 $248 $246 $250 $346 reversed $161 $-1 #
edge $-1 $261 -8.8105792301378756 $348 8.8105792301378756 $260 $404 forward 7 unknown #
vertex $-1 $346 $405 #
straight-curve $-1 -68.394421216467791 -40.856519103031061 0 0 0 -1 I I #
edge $-1 $344 -40.856519103031061 $348 40.856519103031061 $342 $406 forward 7 unknown #
straight-curve $-1 0 -40.856519103031061 -8.8105792301378756 -1 0 0 I I #
vertex $-1 $253 $407 #
straight-curve $-1 0 40.856519103031061 -8.8105792301378756 1 0 0 I I #
point $-1 68.394421216467791 40.856519103031061 -8.8105792301378756 #
point $-1 68.394421216467791 -40.856519103031061 -8.8105792301378756 #
straight-curve $-1 -68.394421216467791 0 8.8105792301378756 0 -1 0 I I #
point $-1 -68.394421216467791 40.856519103031061 8.8105792301378756 #
point $-1 -68.394421216467791 -40.856519103031061 8.8105792301378756 #
straight-curve $-1 68.394421216467791 -40.856519103031061 0 0 0 -1 I I #
straight-curve $-1 68.394421216467791 40.856519103031061 0 0 0 -1 I I #
loop $-1 $-1 $365 $270 #
plane-surface $-1 -68.394421216467791 0 0 1 0 0 0 0 -1 forward_v I I I I #
coedge $-1 $274 $273 $371 $408 forward $109 $-1 #
edge $-1 $278 31.69916868206279 $374 40.856519103031061 $277 $409 forward 7 unknown #
coedge $-1 $368 $365 $274 $362 reversed $357 $-1 #
edge $-1 $410 -40.856519103031061 $363 -31.69916868206279 $361 $411 forward 7 unknown #
vertex $-1 $366 $412 #
straight-curve $-1 0 -31.69916868206279 -8.8105792301378756 1 0 0 I I #
coedge $-1 $361 $280 $276 $366 forward $357 $-1 #
edge $-1 $282 2.1552896150689378 $363 5.1552896150689378 $365 $413 forward 7 unknown #
point $-1 68.394421216467791 -31.69916868206279 -8.8105792301378756 #
coedge $-1 $280 $361 $284 $372 reversed $357 $-1 #
straight-curve $-1 -68.394421216467791 -18.138921946273463 -5.8105792301378756 0 1 0 I I #
point $-1 -68.394421216467791 -31.69916868206279 -5.8105792301378756 #
coedge $-1 $285 $284 $359 $408 reversed $271 $-1 #
edge $-1 $286 5.8105792301378756 $410 8.8105792301378756 $368 $414 forward 7 unknown #
point $-1 -68.394421216467791 -40.856519103031061 -5.8105792301378756 #
vertex $-1 $288 $415 #
straight-curve $-1 68.394421216467791 -40.856519103031061 0 0 0 -1 I I #
coedge $-1 $377 $292 $293 $378 reversed $196 $-1 #
coedge $-1 $292 $376 $297 $382 forward $196 $-1 #
edge $-1 $385 -68.394421216467791 $379 -58.770644852879371 $376 $416 forward 7 unknown #
vertex $-1 $295 $417 #
straight-curve $-1 58.770644852879379 16.605672872368764 8.8105792301378685 0 -1 0 I I #
straight-curve $-1 -12.434343244850616 40.856519103031061 55.051640035697829 -0.83867056331134215 0 0.54463904215088732 I I #
edge $-1 $385 -8.8105792301378756 $298 -2.5608256679714816 $297 $418 forward 7 unknown #
point $-1 68.394421216467791 40.856519103031061 2.5608256679714816 #
point $-1 58.770644852879371 25.566172386443995 8.8105792301378756 #
vertex $-1 $304 $419 #
straight-curve $-1 68.394421216467791 0 8.8105792301378756 0 1 0 I I #
vertex $-1 $307 $420 #
point $-1 63.772845947996217 28.624241729761408 4.1426801962624094 #
vertex $-1 $311 $421 #
point $-1 63.772845947996217 33.211345744737528 4.1426801962624094 #
vertex $-1 $315 $422 #
point $-1 63.772845947996217 37.798449759713648 4.1426801962624094 #
edge $-1 $394 49.617763482749012 $397 53.622516493948126 $320 $423 forward 7 unknown #
vertex $-1 $334 $424 #
straight-curve $-1 -73.426639501452939 2.1719859434069164 8.8105792301378756 -1 0 0 I I #
edge $-1 $397 -5.280802042789503 $331 11.498434241554676 $330 $425 forward 7 unknown #
vertex $-1 $396 $426 #
straight-curve $-1 -68.394421216467791 2.1719859434069164 4.8058262189387619 0.81915203911291934 0 0.57357644374324357 I I #
point $-1 -62.675041295879829 2.1719859434069164 8.8105792301378756 #
point $-1 -68.394421216467791 -14.607250340937263 4.8058262189387619 #
straight-curve $-1 -68.394421216467791 0 8.8105792301378756 0 -1 0 I I #
vertex $-1 $337 $427 #
point $-1 -62.696027183992705 -6.2176321987651733 4.4975600131396316 #
straight-curve $-1 -68.394421216467791 40.856519103031061 0 0 0 -1 I I #
point $-1 -68.394421216467791 -40.856519103031061 -8.8105792301378756 #
straight-curve $-1 -68.394421216467791 0 -8.8105792301378756 0 1 0 I I #
point $-1 -68.394421216467791 40.856519103031061 -8.8105792301378756 #
edge $-1 $374 -68.394421216467791 $410 68.394421216467791 $371 $428 forward 7 unknown #
straight-curve $-1 68.394421216467791 0 -8.8105792301378756 0 -1 0 I I #
vertex $-1 $362 $429 #
straight-curve $-1 -68.394421216467791 0 -8.8105792301378756 0 1 0 I I #
point $-1 -68.394421216467791 -31.69916868206279 -8.8105792301378756 #
straight-curve $-1 -68.394421216467791 -31.69916868206279 -3.6552896150689378 0 0 -1 I I #
straight-curve $-1 -68.394421216467791 -40.856519103031061 0 0 0 -1 I I #
point $-1 68.394421216467791 -40.856519103031061 -8.8105792301378756 #
straight-curve $-1 0 40.856519103031061 8.8105792301378756 -1 0 0 I I #
point $-1 58.770644852879371 40.856519103031061 8.8105792301378756 #
straight-curve $-1 68.394421216467791 40.856519103031061 0 0 0 -1 I I #
point $-1 68.394421216467791 40.856519103031061 8.8105792301378756 #
point $-1 62.389536342533987 28.624241729761408 3.8486486751019542 #
point $-1 62.389536342533987 33.211345744737528 3.8486486751019542 #
point $-1 62.389536342533987 37.798449759713648 3.8486486751019542 #
straight-curve $-1 -68.394421216467791 2.1719859434069164 58.428342712886888 0 0 -1 I I #
point $-1 -68.394421216467791 2.1719859434069164 8.8105792301378756 #
straight-curve $-1 -68.394421216467791 -3.1088160993825866 4.8058262189387584 0 -1 0 I I #
point $-1 -68.394421216467791 2.1719859434069164 4.8058262189387619 #
point $-1 -62.941602779362377 -6.2176321987651733 3.104831530283469 #
straight-curve $-1 0 -40.856519103031061 -8.8105792301378756 -1 0 0 I I #
point $-1 -68.394421216467791 -40.856519103031061 -8.8105792301378756 #
End-of-ACIS-data 