500 0 8 0           
7 Unknown 11 ACIS 5.0 NT 24 Fri Mar 26 01:40:32 1999 
-1 9.9999999999999995e-007 1e-010 
body $-1 $8 $-1 $9 #
body $-1 $10 $-1 $11 #
body $-1 $12 $-1 $13 #
body $-1 $14 $-1 $15 #
body $-1 $16 $-1 $17 #
body $-1 $18 $-1 $19 #
body $-1 $20 $-1 $21 #
body $-1 $22 $-1 $23 #
lump $-1 $-1 $24 $0 #
transform $-1 1 0 0 0 1 0 0 0 1 40.747093111972411 24.567013989446497 6.0641170247334566 1 rotate no_reflect no_shear #
lump $-1 $-1 $25 $1 #
transform $-1 1 0 0 0 1 0 0 0 1 40.747093111972411 24.567013989446497 6.0641170247334566 1 rotate no_reflect no_shear #
lump $-1 $-1 $26 $2 #
transform $-1 1 0 0 0 1 0 0 0 1 40.747093111972411 24.567013989446497 6.0641170247334566 1 rotate no_reflect no_shear #
lump $-1 $-1 $27 $3 #
transform $-1 1 0 0 0 1 0 0 0 1 40.747093111972411 24.567013989446497 6.0641170247334566 1 rotate no_reflect no_shear #
lump $-1 $-1 $28 $4 #
transform $-1 1 0 0 0 1 0 0 0 1 40.747093111972411 24.567013989446497 6.0641170247334566 1 rotate no_reflect no_shear #
lump $-1 $-1 $29 $5 #
transform $-1 1 0 0 0 1 0 0 0 1 40.747093111972411 24.567013989446497 6.0641170247334566 1 rotate no_reflect no_shear #
lump $-1 $-1 $30 $6 #
transform $-1 1 0 0 0 1 0 0 0 1 40.747093111972411 24.567013989446497 6.0641170247334566 1 rotate no_reflect no_shear #
lump $-1 $-1 $31 $7 #
transform $-1 1 0 0 0 1 0 0 0 1 40.747093111972411 24.567013989446497 6.0641170247334566 1 rotate no_reflect no_shear #
shell $-1 $-1 $-1 $32 $-1 $8 #
shell $-1 $-1 $-1 $33 $-1 $10 #
shell $-1 $-1 $-1 $34 $-1 $12 #
shell $-1 $-1 $-1 $35 $-1 $14 #
shell $-1 $-1 $-1 $36 $-1 $16 #
shell $-1 $-1 $-1 $37 $-1 $18 #
shell $-1 $-1 $-1 $38 $-1 $20 #
shell $-1 $-1 $-1 $39 $-1 $22 #
face $-1 $40 $41 $24 $-1 $42 forward single #
face $-1 $43 $44 $25 $-1 $45 forward single #
face $-1 $46 $47 $26 $-1 $48 forward single #
face $-1 $49 $50 $27 $-1 $51 reversed single #
face $-1 $52 $53 $28 $-1 $54 forward single #
face $-1 $55 $56 $29 $-1 $57 forward single #
face $-1 $58 $59 $30 $-1 $60 reversed single #
face $-1 $61 $62 $31 $-1 $63 forward single #
face $-1 $64 $65 $24 $-1 $66 reversed single #
loop $-1 $-1 $67 $32 #
plane-surface $-1 0 0 6.0641170247334566 0 0 1 1 0 0 forward_v I I I I #
face $-1 $68 $69 $25 $-1 $70 forward single #
loop $-1 $-1 $71 $33 #
plane-surface $-1 0 -24.567013989446497 0 0 1 0 0 0 1 forward_v I I I I #
face $-1 $72 $73 $26 $-1 $74 reversed single #
loop $-1 $-1 $75 $34 #
plane-surface $-1 0 24.567013989446497 0 0 -1 0 0 0 -1 forward_v I I I I #
face $-1 $76 $77 $27 $-1 $78 reversed single #
loop $-1 $-1 $79 $35 #
plane-surface $-1 28.700169701107392 18.021642922736131 117.07408951068828 0 -1 0 -0.62932039886446345 0 -0.77714595512881146 forward_v I I I I #
face $-1 $80 $81 $28 $-1 $82 forward single #
loop $-1 $83 $84 $36 #
cone-surface $-1 38.204148418187081 13.467443563983007 3.8711148051261572 -0.62932039886446345 0 -0.77714595512881146 0.38857297756440573 0 -0.31466019943223172 1 I I 0 1 0.5 forward I I I I #
face $-1 $85 $86 $29 $-1 $87 forward single #
loop $-1 $88 $89 $37 #
cone-surface $-1 38.204148418187081 16.199963179234881 3.8711148051261572 -0.62932039886446345 0 -0.77714595512881146 0.38857297756440573 0 -0.31466019943223172 1 I I 0 1 0.5 forward I I I I #
face $-1 $90 $91 $30 $-1 $92 reversed single #
loop $-1 $-1 $93 $38 #
plane-surface $-1 -105.83124476302487 -18.021642922736131 51.484066668874632 0 1 0 -0.79863551827123203 0 0.60181501223851219 forward_v I I I I #
face $-1 $94 $95 $31 $-1 $96 forward single #
loop $-1 $97 $98 $39 #
cone-surface $-1 -38.982156470381312 -13.570784840470569 3.9509720008193145 0.79863551827123203 0 -0.60181501223851219 0.3009075061192561 0 0.39931775913561601 1 I I 0 1 0.5 forward I I I I #
face $-1 $99 $100 $24 $-1 $101 reversed single #
loop $-1 $-1 $102 $40 #
plane-surface $-1 0 0 -6.0641170247334566 0 0 1 1 0 0 forward_v I I I I #
coedge $-1 $103 $104 $105 $106 forward $41 $-1 #
face $-1 $107 $108 $25 $-1 $109 reversed single #
loop $-1 $-1 $110 $43 #
plane-surface $-1 0 0 6.0641170247334566 0 0 1 1 0 0 forward_v I I I I #
coedge $-1 $111 $112 $113 $114 forward $44 $-1 #
face $-1 $115 $116 $26 $-1 $117 reversed single #
loop $-1 $-1 $118 $46 #
plane-surface $-1 40.747093111972411 0 0 -1 0 0 0 0 1 forward_v I I I I #
coedge $-1 $119 $120 $121 $122 forward $47 $-1 #
face $-1 $123 $124 $27 $-1 $125 reversed single #
loop $-1 $-1 $126 $49 #
plane-surface $-1 -22.58578407848043 14.833703371608944 53.741212320235455 0.62932039886446345 0 0.77714595512881146 0.77714595512881146 0 -0.62932039886446345 forward_v I I I I #
coedge $-1 $127 $128 $129 $130 reversed $50 $-1 #
face $-1 $-1 $131 $28 $-1 $132 forward single #
loop $-1 $133 $134 $52 #
cone-surface $-1 37.732158119038736 13.467443563983007 3.2882553387795488 -0.62932039886446345 0 -0.77714595512881146 0.19428648878220287 0 -0.15733009971611586 1 I I -0.70710678118654746 0.70710678118654746 0.25 forward I I I I #
loop $-1 $-1 $135 $36 #
coedge $-1 $84 $84 $136 $137 reversed $53 $-1 #
face $-1 $-1 $138 $29 $-1 $139 forward single #
loop $-1 $140 $141 $55 #
cone-surface $-1 37.732158119038736 16.199963179234881 3.2882553387795488 -0.62932039886446345 0 -0.77714595512881146 0.19428648878220287 0 -0.15733009971611586 1 I I -0.70710678118654746 0.70710678118654746 0.25 forward I I I I #
loop $-1 $-1 $142 $37 #
coedge $-1 $89 $89 $143 $144 reversed $56 $-1 #
face $-1 $145 $146 $30 $-1 $147 reversed single #
loop $-1 $-1 $148 $58 #
plane-surface $-1 -40.74709311197239 -13.570784840470569 2.4396419891436807 -0.79863551827123203 0 0.60181501223851219 0.60181501223851219 0 0.79863551827123203 forward_v I I I I #
coedge $-1 $149 $150 $151 $152 reversed $59 $-1 #
face $-1 $-1 $153 $31 $-1 $154 forward single #
loop $-1 $155 $156 $61 #
cone-surface $-1 -38.383179831677886 -13.570784840470569 3.4996107416404305 0.79863551827123203 0 -0.60181501223851219 0.15045375305962805 0 0.19965887956780801 1 I I -0.70710678118654746 0.70710678118654746 0.25 forward I I I I #
loop $-1 $-1 $157 $39 #
coedge $-1 $98 $98 $158 $159 reversed $62 $-1 #
face $-1 $160 $161 $24 $-1 $162 reversed single #
loop $-1 $-1 $163 $64 #
plane-surface $-1 0 -24.567013989446497 0 0 1 0 0 0 1 forward_v I I I I #
coedge $-1 $164 $165 $166 $167 forward $65 $-1 #
coedge $-1 $168 $67 $169 $170 forward $41 $-1 #
coedge $-1 $67 $168 $171 $172 forward $41 $-1 #
coedge $-1 $173 $174 $67 $106 reversed $175 $-1 #
edge $-1 $176 -24.567013989446497 $177 24.567013989446497 $105 $178 forward 7 unknown #
face $-1 $179 $180 $25 $-1 $181 reversed single #
loop $-1 $-1 $182 $68 #
plane-surface $-1 -40.747093111972411 0 0 1 0 0 0 0 -1 forward_v I I I I #
coedge $-1 $183 $184 $185 $186 forward $69 $-1 #
coedge $-1 $185 $71 $182 $187 reversed $44 $-1 #
coedge $-1 $71 $185 $188 $189 reversed $44 $-1 #
coedge $-1 $190 $191 $71 $114 reversed $180 $-1 #
edge $-1 $192 -40.747093111972411 $193 40.747093111972411 $113 $194 forward 7 unknown #
face $-1 $195 $196 $26 $-1 $197 reversed single #
loop $-1 $-1 $198 $72 #
plane-surface $-1 0 27.839699522801677 3.0641170247334566 0 0 1 1 0 0 forward_v I I I I #
coedge $-1 $199 $200 $119 $201 forward $73 $-1 #
coedge $-1 $202 $75 $118 $201 reversed $47 $-1 #
coedge $-1 $75 $202 $203 $204 reversed $47 $-1 #
coedge $-1 $205 $198 $75 $122 reversed $116 $-1 #
edge $-1 $206 -40.747093111972411 $207 40.747093111972411 $121 $208 forward 7 unknown #
face $-1 $209 $210 $27 $-1 $211 forward single #
loop $-1 $-1 $212 $76 #
plane-surface $-1 28.700169701107392 11.645763820481758 117.07408951068828 0 1 0 0.62932039886446345 0 0.77714595512881146 forward_v I I I I #
coedge $-1 $213 $214 $215 $216 reversed $77 $-1 #
coedge $-1 $128 $79 $217 $218 reversed $50 $-1 #
coedge $-1 $79 $127 $213 $219 reversed $50 $-1 #
coedge $-1 $215 $220 $79 $130 forward $210 $-1 #
edge $-1 $221 -26.397008261418716 $222 -21.940439272712499 $129 $223 forward 7 unknown #
loop $-1 $-1 $136 $80 #
plane-surface $-1 -22.58578407848043 14.833703371608944 53.741212320235455 0.62932039886446345 0 0.77714595512881146 0.77714595512881146 0 -0.62932039886446345 forward_v I I I I #
loop $-1 $-1 $224 $52 #
coedge $-1 $134 $134 $135 $225 reversed $81 $-1 #
coedge $-1 $135 $135 $134 $225 forward $83 $-1 #
coedge $-1 $136 $136 $84 $137 forward $131 $-1 #
edge $-1 $226 0 $226 6.2831853071796004 $136 $227 forward 7 unknown #
loop $-1 $-1 $143 $85 #
plane-surface $-1 -22.58578407848043 14.833703371608944 53.741212320235455 0.62932039886446345 0 0.77714595512881146 0.77714595512881146 0 -0.62932039886446345 forward_v I I I I #
loop $-1 $-1 $228 $55 #
coedge $-1 $141 $141 $142 $229 reversed $86 $-1 #
coedge $-1 $142 $142 $141 $229 forward $88 $-1 #
coedge $-1 $143 $143 $89 $144 forward $138 $-1 #
edge $-1 $230 0 $230 6.2831853071796004 $143 $231 forward 7 unknown #
face $-1 $232 $233 $30 $-1 $234 reversed single #
loop $-1 $-1 $235 $90 #
plane-surface $-1 -105.83124476302487 -9.1199267582050076 51.484066668874632 0 -1 0 0.79863551827123203 0 -0.60181501223851219 forward_v I I I I #
coedge $-1 $236 $237 $238 $239 reversed $91 $-1 #
coedge $-1 $150 $93 $240 $241 reversed $59 $-1 #
coedge $-1 $93 $149 $236 $242 reversed $59 $-1 #
coedge $-1 $238 $243 $93 $152 forward $244 $-1 #
edge $-1 $245 12.168529269540024 $246 14.899767034451024 $151 $247 forward 7 unknown #
loop $-1 $-1 $158 $94 #
plane-surface $-1 -40.74709311197239 -13.570784840470569 2.4396419891436807 -0.79863551827123203 0 0.60181501223851219 0.60181501223851219 0 0.79863551827123203 forward_v I I I I #
loop $-1 $-1 $248 $61 #
coedge $-1 $156 $156 $157 $249 reversed $95 $-1 #
coedge $-1 $157 $157 $156 $249 forward $97 $-1 #
coedge $-1 $158 $158 $98 $159 forward $153 $-1 #
edge $-1 $250 0 $250 6.2831853071796004 $158 $251 forward 7 unknown #
face $-1 $252 $253 $24 $-1 $254 reversed single #
loop $-1 $-1 $255 $99 #
plane-surface $-1 -40.747093111972411 0 0 1 0 0 0 0 -1 forward_v I I I I #
coedge $-1 $256 $171 $257 $258 forward $100 $-1 #
coedge $-1 $259 $102 $256 $260 forward $65 $-1 #
coedge $-1 $102 $259 $261 $262 forward $65 $-1 #
coedge $-1 $174 $173 $102 $167 reversed $175 $-1 #
edge $-1 $263 -24.567013989446497 $264 24.567013989446497 $166 $265 forward 7 unknown #
coedge $-1 $104 $103 $266 $267 forward $41 $-1 #
coedge $-1 $268 $269 $103 $170 reversed $253 $-1 #
edge $-1 $177 -40.747093111972411 $270 40.747093111972411 $169 $271 forward 7 unknown #
coedge $-1 $163 $272 $104 $172 reversed $100 $-1 #
edge $-1 $273 -40.747093111972411 $176 40.747093111972411 $171 $274 forward 7 unknown #
coedge $-1 $166 $105 $272 $275 forward $175 $-1 #
coedge $-1 $105 $166 $268 $276 reversed $175 $-1 #
loop $-1 $-1 $173 $252 #
vertex $-1 $106 $277 #
vertex $-1 $106 $278 #
straight-curve $-1 40.747093111972411 0 6.0641170247334566 0 1 0 I I #
face $-1 $279 $280 $25 $-1 $281 reversed single #
loop $-1 $-1 $190 $107 #
plane-surface $-1 0 -27.839699522801681 3.0641170247334566 0 0 1 1 0 0 forward_v I I I I #
coedge $-1 $282 $283 $111 $187 forward $108 $-1 #
coedge $-1 $284 $110 $283 $285 forward $69 $-1 #
coedge $-1 $110 $284 $286 $287 forward $69 $-1 #
coedge $-1 $112 $111 $110 $186 reversed $44 $-1 #
edge $-1 $288 -40.747093111972411 $289 40.747093111972411 $110 $290 forward 7 unknown #
edge $-1 $289 -6.0641170247334566 $193 -3.0641170247334566 $182 $291 forward 7 unknown #
coedge $-1 $286 $292 $112 $189 forward $293 $-1 #
edge $-1 $192 3.0641170247334566 $288 6.0641170247334566 $188 $294 forward 7 unknown #
coedge $-1 $295 $113 $292 $296 forward $180 $-1 #
coedge $-1 $113 $295 $282 $297 forward $180 $-1 #
vertex $-1 $189 $298 #
vertex $-1 $187 $299 #
straight-curve $-1 0 -24.567013989446497 3.0641170247334566 -1 0 0 I I #
face $-1 $300 $301 $26 $-1 $302 forward single #
loop $-1 $-1 $303 $115 #
plane-surface $-1 0 31.11238505615686 4.5641170247334566 0 -1 0 0 0 -1 forward_v I I I I #
coedge $-1 $121 $304 $199 $305 forward $116 $-1 #
coedge $-1 $306 $118 $198 $305 reversed $73 $-1 #
coedge $-1 $118 $306 $307 $308 reversed $73 $-1 #
edge $-1 $309 -6.0641170247334566 $207 -3.0641170247334566 $118 $310 forward 7 unknown #
coedge $-1 $120 $119 $311 $312 reversed $47 $-1 #
coedge $-1 $313 $314 $120 $204 forward $315 $-1 #
edge $-1 $206 3.0641170247334566 $316 6.0641170247334566 $203 $317 forward 7 unknown #
coedge $-1 $304 $121 $314 $318 forward $116 $-1 #
vertex $-1 $204 $319 #
vertex $-1 $201 $320 #
straight-curve $-1 0 24.567013989446497 3.0641170247334566 1 0 0 I I #
face $-1 $-1 $321 $27 $-1 $322 reversed single #
loop $-1 $-1 $129 $123 #
plane-surface $-1 0 0 6.0641170247334566 0 0 1 1 0 0 forward_v I I I I #
coedge $-1 $323 $324 $325 $326 reversed $124 $-1 #
coedge $-1 $327 $126 $128 $219 forward $77 $-1 #
coedge $-1 $126 $327 $323 $328 forward $77 $-1 #
coedge $-1 $325 $129 $126 $216 forward $210 $-1 #
edge $-1 $222 -10.604791236931659 $329 -4.2289121346772856 $215 $330 forward 7 unknown #
coedge $-1 $331 $332 $127 $218 forward $321 $-1 #
edge $-1 $333 -56.081786214696514 $221 -52.472927730610685 $217 $334 forward 7 unknown #
edge $-1 $222 75.759653399969011 $333 81.494186223944837 $128 $335 forward 7 unknown #
coedge $-1 $129 $325 $331 $336 forward $210 $-1 #
vertex $-1 $218 $337 #
vertex $-1 $130 $338 #
straight-curve $-1 14.350084850553696 18.021642922736131 6.0641170247334557 -1 0 0 I I #
coedge $-1 $224 $224 $-1 $339 reversed $133 $-1 #
edge $-1 $340 0 $340 6.2831853071796004 $134 $341 forward 7 unknown #
vertex $-1 $137 $342 #
ellipse-curve $-1 38.5188086176193 13.467443563983007 4.2596877826905466 0.62932039886446345 0 0.77714595512881146 0.38857297756440573 0 -0.31466019943223172 1 I I #
coedge $-1 $228 $228 $-1 $343 reversed $140 $-1 #
edge $-1 $344 0 $344 6.2831853071796004 $141 $345 forward 7 unknown #
vertex $-1 $144 $346 #
ellipse-curve $-1 38.5188086176193 16.199963179234881 4.2596877826905466 0.62932039886446345 0 0.77714595512881146 0.38857297756440573 0 -0.31466019943223172 1 I I #
face $-1 $-1 $244 $30 $-1 $347 forward single #
loop $-1 $-1 $348 $145 #
plane-surface $-1 -40.747093111972411 0 0 1 0 0 0 0 -1 forward_v I I I I #
coedge $-1 $349 $350 $351 $352 reversed $146 $-1 #
coedge $-1 $353 $148 $150 $242 forward $91 $-1 #
coedge $-1 $148 $353 $349 $354 forward $91 $-1 #
coedge $-1 $351 $151 $148 $239 forward $244 $-1 #
edge $-1 $246 -11.236250502500846 $355 -2.334534337969723 $238 $356 forward 7 unknown #
coedge $-1 $357 $358 $149 $241 forward $233 $-1 #
edge $-1 $359 -23.302391345293664 $245 -19.677916309703861 $240 $360 forward 7 unknown #
edge $-1 $246 -4.5383343874255697 $359 3.5527045197628586e-014 $150 $361 forward 7 unknown #
coedge $-1 $151 $351 $357 $362 forward $244 $-1 #
loop $-1 $-1 $351 $232 #
vertex $-1 $241 $363 #
vertex $-1 $152 $364 #
straight-curve $-1 -52.915622381512435 -18.021642922736131 6.0641170247334557 1 0 0 I I #
coedge $-1 $248 $248 $-1 $365 reversed $155 $-1 #
edge $-1 $366 0 $366 6.2831853071796004 $156 $367 forward 7 unknown #
vertex $-1 $159 $368 #
ellipse-curve $-1 -39.381474229516911 -13.570784840470569 4.2518795069385558 -0.79863551827123203 0 0.60181501223851219 0.3009075061192561 0 0.39931775913561601 1 I I #
face $-1 $-1 $175 $24 $-1 $369 reversed single #
loop $-1 $-1 $268 $160 #
plane-surface $-1 0 24.567013989446497 0 0 -1 0 0 0 -1 forward_v I I I I #
coedge $-1 $370 $266 $269 $371 forward $161 $-1 #
coedge $-1 $272 $163 $164 $260 reversed $100 $-1 #
coedge $-1 $266 $370 $163 $258 reversed $161 $-1 #
edge $-1 $273 -6.0641170247334566 $372 6.0641170247334566 $257 $373 forward 7 unknown #
coedge $-1 $165 $164 $370 $374 forward $65 $-1 #
edge $-1 $264 -40.747093111972411 $372 40.747093111972411 $256 $375 forward 7 unknown #
coedge $-1 $269 $268 $165 $262 reversed $253 $-1 #
edge $-1 $376 -40.747093111972411 $263 40.747093111972411 $261 $377 forward 7 unknown #
vertex $-1 $167 $378 #
vertex $-1 $275 $379 #
straight-curve $-1 40.747093111972411 0 -6.0641170247334566 0 -1 0 I I #
coedge $-1 $255 $257 $168 $267 reversed $161 $-1 #
edge $-1 $270 -24.567013989446497 $273 24.567013989446497 $266 $380 forward 7 unknown #
coedge $-1 $261 $169 $174 $276 forward $253 $-1 #
coedge $-1 $169 $261 $255 $371 reversed $253 $-1 #
vertex $-1 $170 $381 #
straight-curve $-1 0 24.567013989446497 6.0641170247334566 -1 0 0 I I #
coedge $-1 $171 $256 $173 $275 reversed $100 $-1 #
vertex $-1 $267 $382 #
straight-curve $-1 0 -24.567013989446497 6.0641170247334566 1 0 0 I I #
edge $-1 $176 -6.0641170247334566 $264 6.0641170247334566 $173 $383 forward 7 unknown #
edge $-1 $177 -6.0641170247334566 $263 6.0641170247334566 $174 $384 forward 7 unknown #
point $-1 40.747093111972411 -24.567013989446497 6.0641170247334566 #
point $-1 40.747093111972411 24.567013989446497 6.0641170247334566 #
face $-1 $-1 $293 $25 $-1 $385 reversed single #
loop $-1 $-1 $386 $179 #
plane-surface $-1 0 -31.112385056156864 4.5641170247334566 0 1 0 0 0 1 forward_v I I I I #
coedge $-1 $387 $182 $191 $297 reversed $108 $-1 #
coedge $-1 $182 $387 $183 $285 reversed $108 $-1 #
coedge $-1 $184 $183 $388 $389 forward $69 $-1 #
edge $-1 $289 24.567013989446497 $390 31.112385056156864 $283 $391 forward 7 unknown #
coedge $-1 $392 $188 $184 $287 reversed $293 $-1 #
edge $-1 $393 -31.112385056156864 $288 -24.567013989446497 $286 $394 forward 7 unknown #
vertex $-1 $189 $395 #
vertex $-1 $285 $396 #
straight-curve $-1 0 -24.567013989446497 6.0641170247334566 -1 0 0 I I #
straight-curve $-1 -40.747093111972411 -24.567013989446497 0 0 0 -1 I I #
coedge $-1 $188 $392 $190 $296 reversed $293 $-1 #
loop $-1 $-1 $188 $279 #
straight-curve $-1 40.747093111972411 -24.567013989446497 0 0 0 1 I I #
coedge $-1 $191 $190 $397 $398 forward $180 $-1 #
edge $-1 $192 -3.2726855333551832 $399 3.2726855333551832 $292 $400 forward 7 unknown #
edge $-1 $401 -3.2726855333551832 $193 3.2726855333551832 $282 $402 forward 7 unknown #
point $-1 40.747093111972411 -24.567013989446497 3.0641170247334566 #
point $-1 -40.747093111972411 -24.567013989446497 3.0641170247334566 #
face $-1 $-1 $315 $26 $-1 $403 reversed single #
loop $-1 $-1 $311 $195 #
plane-surface $-1 0 0 6.0641170247334566 0 0 1 1 0 0 forward_v I I I I #
coedge $-1 $404 $405 $306 $406 forward $196 $-1 #
coedge $-1 $198 $205 $404 $407 forward $116 $-1 #
edge $-1 $408 -3.2726855333551832 $207 3.2726855333551832 $199 $409 forward 7 unknown #
coedge $-1 $200 $199 $303 $406 reversed $73 $-1 #
coedge $-1 $410 $311 $200 $308 forward $301 $-1 #
edge $-1 $309 24.567013989446497 $411 31.11238505615686 $200 $412 forward 7 unknown #
vertex $-1 $308 $413 #
straight-curve $-1 40.747093111972411 24.567013989446497 0 0 0 -1 I I #
coedge $-1 $307 $414 $202 $312 forward $301 $-1 #
edge $-1 $316 -40.747093111972411 $309 40.747093111972411 $311 $415 forward 7 unknown #
coedge $-1 $416 $203 $414 $417 reversed $315 $-1 #
coedge $-1 $203 $416 $205 $318 reversed $315 $-1 #
loop $-1 $-1 $203 $300 #
vertex $-1 $204 $418 #
straight-curve $-1 -40.747093111972411 24.567013989446497 0 0 0 1 I I #
edge $-1 $206 -3.2726855333551832 $419 3.2726855333551832 $314 $420 forward 7 unknown #
point $-1 -40.747093111972411 24.567013989446494 3.0641170247334566 #
point $-1 40.747093111972411 24.567013989446494 3.0641170247334566 #
loop $-1 $-1 $217 $209 #
plane-surface $-1 40.747093111972411 0 0 -1 0 0 0 0 1 forward_v I I I I #
coedge $-1 $324 $212 $214 $328 reversed $124 $-1 #
coedge $-1 $212 $323 $421 $422 reversed $124 $-1 #
coedge $-1 $220 $215 $212 $326 forward $210 $-1 #
edge $-1 $329 21.940439272712499 $423 26.397008261418716 $325 $424 forward 7 unknown #
coedge $-1 $214 $213 $332 $425 reversed $77 $-1 #
edge $-1 $426 -81.494186223944837 $329 -75.759653399969011 $323 $427 forward 7 unknown #
vertex $-1 $216 $428 #
straight-curve $-1 36.290524123266202 7.4168516858044722 6.0641170247334486 0 -1 0 I I #
coedge $-1 $421 $217 $220 $336 reversed $321 $-1 #
coedge $-1 $217 $421 $327 $425 forward $321 $-1 #
vertex $-1 $218 $429 #
straight-curve $-1 40.747093111972411 18.021642922736131 58.537044755344141 0 0 1 I I #
straight-curve $-1 -22.58578407848043 18.021642922736131 53.741212320235455 0.77714595512881146 0 -0.62932039886446345 I I #
edge $-1 $423 11.645763820481758 $221 18.021642922736131 $331 $430 forward 7 unknown #
point $-1 40.747093111972411 18.021642922736131 6.0641170247334566 #
point $-1 36.290524123266195 18.021642922736131 6.0641170247334557 #
edge $-1 $431 1 $431 0 $224 $-1 forward 7 unknown #
vertex $-1 $225 $432 #
ellipse-curve $-1 37.889488218754849 13.467443563983007 3.4825418275617515 0.62932039886446345 0 0.77714595512881146 0.38857297756440573 0 -0.31466019943223172 1 I I #
point $-1 38.907381595183722 13.467443563983007 3.9450275832583315 #
edge $-1 $433 1 $433 0 $228 $-1 forward 7 unknown #
vertex $-1 $229 $434 #
ellipse-curve $-1 37.889488218754849 16.199963179234881 3.4825418275617515 0.62932039886446345 0 0.77714595512881146 0.38857297756440573 0 -0.31466019943223172 1 I I #
point $-1 38.907381595183722 16.199963179234881 3.9450275832583315 #
plane-surface $-1 0 0 6.0641170247334566 0 0 1 1 0 0 forward_v I I I I #
coedge $-1 $358 $357 $350 $435 forward $233 $-1 #
coedge $-1 $350 $235 $237 $354 reversed $146 $-1 #
coedge $-1 $235 $349 $348 $435 reversed $146 $-1 #
coedge $-1 $243 $238 $235 $352 forward $244 $-1 #
edge $-1 $355 -14.899767034451024 $436 -12.168529269540024 $351 $437 forward 7 unknown #
coedge $-1 $237 $236 $358 $438 reversed $91 $-1 #
edge $-1 $439 -3.5527045197628586e-014 $355 4.5383343874255697 $349 $440 forward 7 unknown #
vertex $-1 $239 $441 #
straight-curve $-1 -38.015855347061411 -6.7853924202352847 6.0641170247334575 0 1 0 I I #
coedge $-1 $348 $240 $243 $362 reversed $233 $-1 #
coedge $-1 $240 $348 $353 $438 forward $233 $-1 #
vertex $-1 $241 $442 #
straight-curve $-1 -40.747093111972411 -18.021642922736131 25.742033334437316 0 0 1 I I #
straight-curve $-1 -40.74709311197239 -18.021642922736131 2.4396419891436807 -0.60181501223851219 0 -0.79863551827123203 I I #
edge $-1 $436 9.1199267582050076 $245 18.021642922736131 $357 $443 forward 7 unknown #
point $-1 -40.747093111972411 -18.021642922736131 6.0641170247334566 #
point $-1 -38.015855347061411 -18.021642922736131 6.0641170247334557 #
edge $-1 $444 1 $444 0 $248 $-1 forward 7 unknown #
vertex $-1 $249 $445 #
ellipse-curve $-1 -38.582838711245692 -13.570784840470569 3.6500644947000587 -0.79863551827123203 0 0.60181501223851219 0.3009075061192561 0 0.39931775913561601 1 I I #
point $-1 -39.080566723397666 -13.570784840470569 4.6511972660741865 #
plane-surface $-1 40.747093111972411 0 0 -1 0 0 0 0 1 forward_v I I I I #
coedge $-1 $257 $255 $259 $374 reversed $161 $-1 #
edge $-1 $270 -6.0641170247334566 $376 6.0641170247334566 $269 $446 forward 7 unknown #
vertex $-1 $374 $447 #
straight-curve $-1 -40.747093111972411 -24.567013989446497 0 0 0 -1 I I #
edge $-1 $372 -24.567013989446497 $376 24.567013989446497 $370 $448 forward 7 unknown #
straight-curve $-1 0 -24.567013989446497 -6.0641170247334566 -1 0 0 I I #
vertex $-1 $262 $449 #
straight-curve $-1 0 24.567013989446497 -6.0641170247334566 1 0 0 I I #
point $-1 40.747093111972411 24.567013989446497 -6.0641170247334566 #
point $-1 40.747093111972411 -24.567013989446497 -6.0641170247334566 #
straight-curve $-1 -40.747093111972411 0 6.0641170247334566 0 -1 0 I I #
point $-1 -40.747093111972411 24.567013989446497 6.0641170247334566 #
point $-1 -40.747093111972411 -24.567013989446497 6.0641170247334566 #
straight-curve $-1 40.747093111972411 -24.567013989446497 0 0 0 -1 I I #
straight-curve $-1 40.747093111972411 24.567013989446497 0 0 0 -1 I I #
plane-surface $-1 40.747093111972411 0 0 -1 0 0 0 0 1 forward_v I I I I #
coedge $-1 $397 $388 $387 $450 forward $280 $-1 #
coedge $-1 $283 $282 $386 $450 reversed $108 $-1 #
coedge $-1 $386 $451 $284 $389 reversed $280 $-1 #
edge $-1 $390 -40.747093111972411 $393 40.747093111972411 $388 $452 forward 7 unknown #
vertex $-1 $285 $453 #
straight-curve $-1 -40.747093111972411 0 6.0641170247334566 0 -1 0 I I #
coedge $-1 $292 $286 $451 $454 forward $293 $-1 #
vertex $-1 $287 $455 #
straight-curve $-1 40.747093111972411 0 6.0641170247334566 0 1 0 I I #
point $-1 40.747093111972411 -24.567013989446497 6.0641170247334566 #
point $-1 -40.747093111972411 -24.567013989446497 6.0641170247334566 #
coedge $-1 $451 $386 $295 $398 reversed $280 $-1 #
edge $-1 $399 -40.747093111972411 $401 40.747093111972411 $397 $456 forward 7 unknown #
vertex $-1 $454 $457 #
straight-curve $-1 40.747093111972411 -27.839699522801681 3.0641170247334566 0 -1 0 I I #
vertex $-1 $297 $458 #
straight-curve $-1 -40.747093111972411 -27.839699522801681 3.0641170247334566 0 1 0 I I #
plane-surface $-1 -40.747093111972411 0 0 1 0 0 0 0 -1 forward_v I I I I #
coedge $-1 $459 $303 $304 $407 reversed $196 $-1 #
coedge $-1 $303 $459 $410 $460 reversed $196 $-1 #
edge $-1 $411 -1.5 $408 1.5 $306 $461 forward 7 unknown #
edge $-1 $419 -40.747093111972411 $408 40.747093111972411 $404 $462 forward 7 unknown #
vertex $-1 $305 $463 #
straight-curve $-1 40.747093111972411 27.839699522801677 3.0641170247334566 0 -1 0 I I #
coedge $-1 $414 $307 $405 $460 forward $301 $-1 #
vertex $-1 $308 $464 #
straight-curve $-1 40.747093111972411 0 6.0641170247334566 0 1 0 I I #
point $-1 40.747093111972411 24.567013989446497 6.0641170247334566 #
coedge $-1 $311 $410 $313 $417 forward $301 $-1 #
straight-curve $-1 0 24.567013989446497 6.0641170247334566 1 0 0 I I #
coedge $-1 $314 $313 $459 $465 forward $315 $-1 #
edge $-1 $466 -31.11238505615686 $316 -24.567013989446497 $313 $467 forward 7 unknown #
point $-1 -40.747093111972411 24.567013989446497 6.0641170247334566 #
vertex $-1 $407 $468 #
straight-curve $-1 -40.747093111972411 27.839699522801677 3.0641170247334566 0 1 0 I I #
coedge $-1 $332 $331 $324 $422 forward $321 $-1 #
edge $-1 $423 52.472927730610685 $426 56.081786214696514 $421 $469 forward 7 unknown #
vertex $-1 $336 $470 #
straight-curve $-1 14.350084850553696 11.645763820481758 6.0641170247334557 1 0 0 I I #
edge $-1 $426 4.2289121346772856 $333 10.604791236931659 $332 $471 forward 7 unknown #
vertex $-1 $425 $472 #
straight-curve $-1 -22.58578407848043 11.645763820481758 53.741212320235455 -0.77714595512881146 0 0.62932039886446345 I I #
point $-1 36.290524123266195 11.645763820481758 6.0641170247334557 #
point $-1 40.747093111972411 18.021642922736131 2.4552585406476268 #
straight-curve $-1 40.747093111972411 0 6.0641170247334566 0 1 0 I I #
vertex $-1 $339 $473 #
point $-1 38.278061196319257 13.467443563983007 3.1678816281295199 #
vertex $-1 $343 $474 #
point $-1 38.278061196319257 16.199963179234881 3.1678816281295199 #
edge $-1 $436 19.677916309703861 $439 23.302391345293664 $348 $475 forward 7 unknown #
vertex $-1 $362 $476 #
straight-curve $-1 -52.915622381512435 -9.1199267582050076 6.0641170247334557 -1 0 0 I I #
edge $-1 $439 2.334534337969723 $359 11.236250502500846 $358 $477 forward 7 unknown #
vertex $-1 $438 $478 #
straight-curve $-1 -40.74709311197239 -9.1199267582050076 2.4396419891436807 0.60181501223851219 0 0.79863551827123203 I I #
point $-1 -38.015855347061411 -9.1199267582050076 6.0641170247334557 #
point $-1 -40.747093111972411 -18.021642922736131 2.4396419891436523 #
straight-curve $-1 -40.747093111972411 0 6.0641170247334566 0 -1 0 I I #
vertex $-1 $365 $479 #
point $-1 -38.28193120512644 -13.570784840470569 4.0493822538356747 #
straight-curve $-1 -40.747093111972411 24.567013989446497 0 0 0 -1 I I #
point $-1 -40.747093111972411 -24.567013989446497 -6.0641170247334566 #
straight-curve $-1 -40.747093111972411 0 -6.0641170247334566 0 1 0 I I #
point $-1 -40.747093111972411 24.567013989446497 -6.0641170247334566 #
edge $-1 $390 -1.5 $401 1.5 $387 $480 forward 7 unknown #
coedge $-1 $388 $397 $392 $454 reversed $280 $-1 #
straight-curve $-1 0 -31.112385056156864 6.0641170247334566 1 0 0 I I #
point $-1 -40.747093111972411 -31.112385056156864 6.0641170247334566 #
edge $-1 $393 -1.5 $399 1.5 $392 $481 forward 7 unknown #
point $-1 40.747093111972411 -31.112385056156864 6.0641170247334566 #
straight-curve $-1 0 -31.112385056156864 3.0641170247334566 -1 0 0 I I #
point $-1 40.747093111972411 -31.112385056156864 3.0641170247334566 #
point $-1 -40.747093111972411 -31.112385056156864 3.0641170247334566 #
coedge $-1 $405 $404 $416 $465 reversed $196 $-1 #
edge $-1 $411 -40.747093111972411 $466 40.747093111972411 $405 $482 forward 7 unknown #
straight-curve $-1 40.747093111972411 31.11238505615686 4.5641170247334566 0 0 -1 I I #
straight-curve $-1 0 31.11238505615686 3.0641170247334566 1 0 0 I I #
point $-1 40.747093111972411 31.11238505615686 3.0641170247334566 #
point $-1 40.747093111972411 31.11238505615686 6.0641170247334566 #
edge $-1 $466 -1.5 $419 1.5 $459 $483 forward 7 unknown #
vertex $-1 $460 $484 #
straight-curve $-1 -40.747093111972411 0 6.0641170247334566 0 -1 0 I I #
point $-1 -40.747093111972411 31.11238505615686 3.0641170247334566 #
straight-curve $-1 40.747093111972411 11.645763820481758 58.537044755344141 0 0 -1 I I #
point $-1 40.747093111972411 11.645763820481758 6.0641170247334566 #
straight-curve $-1 40.747093111972411 7.4168516858044722 2.4552585406476233 0 1 0 I I #
point $-1 40.747093111972411 11.645763820481758 2.4552585406476268 #
point $-1 37.574828019322624 13.467443563983007 3.0939688499973461 #
point $-1 37.574828019322624 16.199963179234881 3.0939688499973461 #
straight-curve $-1 -40.747093111972411 -9.1199267582050076 25.742033334437316 0 0 -1 I I #
point $-1 -40.747093111972411 -9.1199267582050076 6.0641170247334566 #
straight-curve $-1 -40.747093111972411 -6.7853924202352847 2.439641989143654 0 -1 0 I I #
point $-1 -40.747093111972411 -9.1199267582050076 2.4396419891436523 #
point $-1 -38.183520952110079 -13.570784840470569 3.3491569885808024 #
straight-curve $-1 -40.747093111972411 -31.112385056156864 4.5641170247334566 0 0 -1 I I #
straight-curve $-1 40.747093111972411 -31.112385056156864 4.5641170247334566 0 0 -1 I I #
straight-curve $-1 0 31.11238505615686 6.0641170247334566 -1 0 0 I I #
straight-curve $-1 -40.747093111972411 31.11238505615686 4.5641170247334566 0 0 -1 I I #
point $-1 -40.747093111972411 31.11238505615686 6.0641170247334566 #
End-of-ACIS-data 