500 0 13 0           
7 Unknown 11 ACIS 5.0 NT 24 Fri Mar 26 14:42:59 1999 
-1 9.9999999999999995e-007 1e-010 
body $-1 $13 $-1 $14 #
body $-1 $15 $-1 $16 #
body $-1 $17 $-1 $18 #
body $-1 $19 $-1 $20 #
body $-1 $21 $-1 $22 #
body $-1 $23 $-1 $24 #
body $-1 $25 $-1 $26 #
body $-1 $27 $-1 $28 #
body $-1 $29 $-1 $30 #
body $-1 $31 $-1 $32 #
body $-1 $33 $-1 $34 #
body $-1 $35 $-1 $36 #
body $-1 $37 $-1 $38 #
lump $-1 $-1 $39 $0 #
transform $-1 1 0 0 0 1 0 0 0 1 51.178319650868254 21.87468246120503 9.4286710778855358 1 rotate no_reflect no_shear #
lump $-1 $-1 $40 $1 #
transform $-1 1 0 0 0 1 0 0 0 1 51.178319650868254 21.87468246120503 9.4286710778855358 1 rotate no_reflect no_shear #
lump $-1 $-1 $41 $2 #
transform $-1 1 0 0 0 1 0 0 0 1 51.178319650868254 21.87468246120503 9.4286710778855358 1 rotate no_reflect no_shear #
lump $-1 $-1 $42 $3 #
transform $-1 1 0 0 0 1 0 0 0 1 51.178319650868254 21.87468246120503 9.4286710778855358 1 rotate no_reflect no_shear #
lump $-1 $-1 $43 $4 #
transform $-1 1 0 0 0 1 0 0 0 1 51.178319650868254 21.87468246120503 9.4286710778855358 1 rotate no_reflect no_shear #
lump $-1 $-1 $44 $5 #
transform $-1 1 0 0 0 1 0 0 0 1 51.178319650868254 21.87468246120503 9.4286710778855358 1 rotate no_reflect no_shear #
lump $-1 $-1 $45 $6 #
transform $-1 1 0 0 0 1 0 0 0 1 51.178319650868254 21.87468246120503 9.4286710778855358 1 rotate no_reflect no_shear #
lump $-1 $-1 $46 $7 #
transform $-1 1 0 0 0 1 0 0 0 1 51.178319650868254 21.87468246120503 9.4286710778855358 1 rotate no_reflect no_shear #
lump $-1 $-1 $47 $8 #
transform $-1 1 0 0 0 1 0 0 0 1 51.178319650868254 21.87468246120503 9.4286710778855358 1 rotate no_reflect no_shear #
lump $-1 $-1 $48 $9 #
transform $-1 1 0 0 0 1 0 0 0 1 51.178319650868254 21.87468246120503 9.4286710778855358 1 rotate no_reflect no_shear #
lump $-1 $-1 $49 $10 #
transform $-1 1 0 0 0 1 0 0 0 1 51.178319650868254 21.87468246120503 9.4286710778855358 1 rotate no_reflect no_shear #
lump $-1 $-1 $50 $11 #
transform $-1 1 0 0 0 1 0 0 0 1 51.178319650868254 21.87468246120503 9.4286710778855358 1 rotate no_reflect no_shear #
lump $-1 $-1 $51 $12 #
transform $-1 1 0 0 0 1 0 0 0 1 51.178319650868254 21.87468246120503 9.4286710778855358 1 rotate no_reflect no_shear #
shell $-1 $-1 $-1 $52 $-1 $13 #
shell $-1 $-1 $-1 $53 $-1 $15 #
shell $-1 $-1 $-1 $54 $-1 $17 #
shell $-1 $-1 $-1 $55 $-1 $19 #
shell $-1 $-1 $-1 $56 $-1 $21 #
shell $-1 $-1 $-1 $57 $-1 $23 #
shell $-1 $-1 $-1 $58 $-1 $25 #
shell $-1 $-1 $-1 $59 $-1 $27 #
shell $-1 $-1 $-1 $60 $-1 $29 #
shell $-1 $-1 $-1 $61 $-1 $31 #
shell $-1 $-1 $-1 $62 $-1 $33 #
shell $-1 $-1 $-1 $63 $-1 $35 #
shell $-1 $-1 $-1 $64 $-1 $37 #
face $-1 $65 $66 $39 $-1 $67 forward single #
face $-1 $68 $69 $40 $-1 $70 reversed single #
face $-1 $71 $72 $41 $-1 $73 reversed single #
face $-1 $74 $75 $42 $-1 $76 forward single #
face $-1 $77 $78 $43 $-1 $79 forward single #
face $-1 $80 $81 $44 $-1 $82 forward single #
face $-1 $83 $84 $45 $-1 $85 reversed single #
face $-1 $86 $87 $46 $-1 $88 forward single #
face $-1 $89 $90 $47 $-1 $91 forward single #
face $-1 $92 $93 $48 $-1 $94 forward single #
face $-1 $95 $96 $49 $-1 $97 reversed single #
face $-1 $98 $99 $50 $-1 $100 forward single #
face $-1 $101 $102 $51 $-1 $103 forward single #
face $-1 $104 $105 $39 $-1 $106 reversed single #
loop $-1 $-1 $107 $52 #
plane-surface $-1 0 0 9.4286710778855358 0 0 1 1 0 0 forward_v I I I I #
face $-1 $108 $109 $40 $-1 $110 reversed single #
loop $-1 $-1 $111 $53 #
plane-surface $-1 0 -18.232980191005254 6.4286710778855358 0 0 1 1 0 0 forward_v I I I I #
face $-1 $112 $113 $41 $-1 $114 reversed single #
loop $-1 $-1 $115 $54 #
plane-surface $-1 -136.03582025890302 -4.8210924480516617 58.071712070884402 0 1 0 -0.82903758062907751 0 0.55919289150049634 forward_v I I I I #
face $-1 $116 $117 $42 $-1 $118 forward single #
loop $-1 $119 $120 $55 #
cone-surface $-1 -47.86541623514141 -3.1285335044013713 4.8520425809290391 0.82903758062907751 0 -0.55919289150049634 0.13979822287512408 0 0.20725939515726938 1 I I 0 1 0.25 forward I I I I #
face $-1 $121 $122 $43 $-1 $123 forward single #
loop $-1 $124 $125 $56 #
cone-surface $-1 -47.86541623514141 -0.58969508892593936 4.8520425809290391 0.82903758062907751 0 -0.55919289150049634 0.13979822287512408 0 0.20725939515726938 1 I I 0 1 0.25 forward I I I I #
face $-1 $126 $127 $44 $-1 $128 forward single #
loop $-1 $129 $130 $57 #
cone-surface $-1 -47.86541623514141 1.9491433265494926 4.8520425809290391 0.82903758062907751 0 -0.55919289150049634 0.13979822287512408 0 0.20725939515726938 1 I I 0 1 0.25 forward I I I I #
face $-1 $131 $132 $45 $-1 $133 reversed single #
loop $-1 $-1 $134 $58 #
plane-surface $-1 -51.178319650868232 -0.58969508892593936 0.83460697547302232 -0.82903758062907751 0 0.55919289150049634 0.55919289150049634 0 0.82903758062907751 forward_v I I I I #
face $-1 $135 $136 $46 $-1 $137 forward single #
loop $-1 $138 $139 $59 #
cone-surface $-1 -47.86541623514141 5.3342612138500698 4.8520425809290391 0.82903758062907751 0 -0.55919289150049634 0.13979822287512408 0 0.20725939515726938 1 I I 0 1 0.25 forward I I I I #
face $-1 $140 $141 $47 $-1 $142 forward single #
loop $-1 $143 $144 $60 #
cone-surface $-1 -47.86541623514141 7.8730996293255018 4.8520425809290391 0.82903758062907751 0 -0.55919289150049634 0.13979822287512408 0 0.20725939515726938 1 I I 0 1 0.25 forward I I I I #
face $-1 $145 $146 $48 $-1 $147 forward single #
loop $-1 $148 $149 $61 #
cone-surface $-1 -47.86541623514141 10.41193804480093 4.8520425809290391 0.82903758062907751 0 -0.55919289150049634 0.13979822287512408 0 0.20725939515726938 1 I I 0 1 0.25 forward I I I I #
face $-1 $150 $151 $49 $-1 $152 reversed single #
loop $-1 $-1 $153 $62 #
plane-surface $-1 56.230168297292657 15.828974691111618 145.06992945520719 0 -1 0 -0.73135370988377701 0 -0.68199835119979291 forward_v I I I I #
face $-1 $154 $155 $50 $-1 $156 forward single #
loop $-1 $157 $158 $63 #
cone-surface $-1 46.337736504090088 10.457932300747505 4.3262727201470321 -0.73135370988377701 0 -0.68199835119979291 0.68199835119979291 0 -0.73135370988377701 1 I I 0 1 1 forward I I I I #
face $-1 $159 $160 $51 $-1 $161 forward single #
loop $-1 $162 $163 $64 #
cone-surface $-1 46.337736504090088 13.680557734965969 4.3262727201470321 -0.73135370988377701 0 -0.68199835119979291 0.68199835119979291 0 -0.73135370988377701 1 I I 0 1 1 forward I I I I #
face $-1 $164 $165 $39 $-1 $166 reversed single #
loop $-1 $-1 $167 $65 #
plane-surface $-1 0 0 -9.4286710778855358 0 0 1 1 0 0 forward_v I I I I #
coedge $-1 $168 $169 $170 $171 forward $66 $-1 #
face $-1 $172 $173 $40 $-1 $174 reversed single #
loop $-1 $-1 $175 $68 #
plane-surface $-1 0 -14.591277920805476 7.9286710778855358 0 -1 0 0 0 -1 forward_v I I I I #
coedge $-1 $176 $177 $178 $179 reversed $69 $-1 #
face $-1 $180 $181 $41 $-1 $182 reversed single #
loop $-1 $-1 $183 $71 #
plane-surface $-1 -51.178319650868232 -0.58969508892593936 0.83460697547302232 -0.82903758062907751 0 0.55919289150049634 0.55919289150049634 0 0.82903758062907751 forward_v I I I I #
coedge $-1 $184 $185 $186 $187 reversed $72 $-1 #
face $-1 $-1 $188 $42 $-1 $189 forward single #
loop $-1 $190 $191 $74 #
cone-surface $-1 -47.347267747248239 -3.1285335044013713 4.5025470237412293 0.82903758062907751 0 -0.55919289150049634 0.069899111437562042 0 0.10362969757863469 1 I I -0.70710678118654746 0.70710678118654746 0.125 forward I I I I #
loop $-1 $-1 $192 $55 #
coedge $-1 $120 $120 $193 $194 reversed $75 $-1 #
face $-1 $-1 $195 $43 $-1 $196 forward single #
loop $-1 $197 $198 $77 #
cone-surface $-1 -47.347267747248239 -0.58969508892593936 4.5025470237412293 0.82903758062907751 0 -0.55919289150049634 0.069899111437562042 0 0.10362969757863469 1 I I -0.70710678118654746 0.70710678118654746 0.125 forward I I I I #
loop $-1 $-1 $199 $56 #
coedge $-1 $125 $125 $200 $201 reversed $78 $-1 #
face $-1 $-1 $202 $44 $-1 $203 forward single #
loop $-1 $204 $205 $80 #
cone-surface $-1 -47.347267747248239 1.9491433265494926 4.5025470237412293 0.82903758062907751 0 -0.55919289150049634 0.069899111437562042 0 0.10362969757863469 1 I I -0.70710678118654746 0.70710678118654746 0.125 forward I I I I #
loop $-1 $-1 $206 $57 #
coedge $-1 $130 $130 $207 $208 reversed $81 $-1 #
face $-1 $209 $210 $45 $-1 $211 forward single #
loop $-1 $-1 $212 $83 #
plane-surface $-1 -136.03582025890302 12.104496988451224 58.071712070884402 0 -1 0 0.82903758062907751 0 -0.55919289150049634 forward_v I I I I #
coedge $-1 $213 $214 $215 $216 reversed $84 $-1 #
face $-1 $-1 $217 $46 $-1 $218 forward single #
loop $-1 $219 $220 $86 #
cone-surface $-1 -47.347267747248239 5.3342612138500698 4.5025470237412293 0.82903758062907751 0 -0.55919289150049634 0.069899111437562042 0 0.10362969757863469 1 I I -0.70710678118654746 0.70710678118654746 0.125 forward I I I I #
loop $-1 $-1 $221 $59 #
coedge $-1 $139 $139 $222 $223 reversed $87 $-1 #
face $-1 $-1 $224 $47 $-1 $225 forward single #
loop $-1 $226 $227 $89 #
cone-surface $-1 -47.347267747248239 7.8730996293255018 4.5025470237412293 0.82903758062907751 0 -0.55919289150049634 0.069899111437562042 0 0.10362969757863469 1 I I -0.70710678118654746 0.70710678118654746 0.125 forward I I I I #
loop $-1 $-1 $228 $60 #
coedge $-1 $144 $144 $229 $230 reversed $90 $-1 #
face $-1 $-1 $231 $48 $-1 $232 forward single #
loop $-1 $233 $234 $92 #
cone-surface $-1 -47.347267747248239 10.41193804480093 4.5025470237412293 0.82903758062907751 0 -0.55919289150049634 0.069899111437562042 0 0.10362969757863469 1 I I -0.70710678118654746 0.70710678118654746 0.125 forward I I I I #
loop $-1 $-1 $235 $61 #
coedge $-1 $149 $149 $236 $237 reversed $93 $-1 #
face $-1 $238 $239 $49 $-1 $240 reversed single #
loop $-1 $-1 $241 $95 #
plane-surface $-1 -18.628739587267951 12.069245017856741 75.262870217070969 0.73135370988377701 0 0.68199835119979291 0.68199835119979291 0 -0.73135370988377701 forward_v I I I I #
coedge $-1 $242 $243 $244 $245 reversed $96 $-1 #
face $-1 $-1 $246 $50 $-1 $247 forward single #
loop $-1 $248 $249 $98 #
cone-surface $-1 45.339314926668415 10.457932300747505 3.395229559496233 -0.73135370988377701 0 -0.68199835119979291 0.34099917559989645 0 -0.36567685494188851 1 I I -0.70710678118654746 0.70710678118654746 0.5 forward I I I I #
loop $-1 $-1 $250 $63 #
coedge $-1 $158 $158 $251 $252 reversed $99 $-1 #
face $-1 $-1 $253 $51 $-1 $254 forward single #
loop $-1 $255 $256 $101 #
cone-surface $-1 45.339314926668415 13.680557734965969 3.395229559496233 -0.73135370988377701 0 -0.68199835119979291 0.34099917559989645 0 -0.36567685494188851 1 I I -0.70710678118654746 0.70710678118654746 0.5 forward I I I I #
loop $-1 $-1 $257 $64 #
coedge $-1 $163 $163 $258 $259 reversed $102 $-1 #
face $-1 $260 $261 $39 $-1 $262 reversed single #
loop $-1 $-1 $263 $104 #
plane-surface $-1 0 -21.87468246120503 0 0 1 0 0 0 1 forward_v I I I I #
coedge $-1 $264 $265 $266 $267 forward $105 $-1 #
coedge $-1 $268 $107 $269 $270 forward $66 $-1 #
coedge $-1 $107 $268 $271 $272 forward $66 $-1 #
coedge $-1 $273 $274 $107 $171 reversed $275 $-1 #
edge $-1 $276 -21.87468246120503 $277 21.87468246120503 $170 $278 forward 7 unknown #
face $-1 $279 $280 $40 $-1 $281 reversed single #
loop $-1 $-1 $282 $108 #
plane-surface $-1 -51.178319650868254 0 0 1 0 0 0 0 -1 forward_v I I I I #
coedge $-1 $283 $284 $285 $286 reversed $109 $-1 #
coedge $-1 $287 $111 $288 $289 reversed $69 $-1 #
coedge $-1 $111 $287 $283 $290 forward $69 $-1 #
coedge $-1 $285 $291 $111 $179 forward $292 $-1 #
edge $-1 $293 -12.758192365702406 $294 -5.4747878253028492 $178 $295 forward 7 unknown #
face $-1 $296 $297 $41 $-1 $298 forward single #
loop $-1 $-1 $299 $112 #
plane-surface $-1 -136.03582025890302 3.641702270199783 58.071712070884402 0 -1 0 0.82903758062907751 0 -0.55919289150049634 forward_v I I I I #
coedge $-1 $300 $301 $302 $303 reversed $113 $-1 #
coedge $-1 $185 $115 $304 $305 reversed $72 $-1 #
coedge $-1 $115 $184 $300 $306 reversed $72 $-1 #
coedge $-1 $302 $307 $115 $187 forward $297 $-1 #
edge $-1 $308 16.839590478583254 $309 22.636359729407893 $186 $310 forward 7 unknown #
loop $-1 $-1 $193 $116 #
plane-surface $-1 -51.178319650868232 -0.58969508892593936 0.83460697547302232 -0.82903758062907751 0 0.55919289150049634 0.55919289150049634 0 0.82903758062907751 forward_v I I I I #
loop $-1 $-1 $311 $74 #
coedge $-1 $191 $191 $192 $312 reversed $117 $-1 #
coedge $-1 $192 $192 $191 $312 forward $119 $-1 #
coedge $-1 $193 $193 $120 $194 forward $188 $-1 #
edge $-1 $313 0 $313 6.2831853071796004 $193 $314 forward 7 unknown #
loop $-1 $-1 $200 $121 #
plane-surface $-1 -51.178319650868232 -0.58969508892593936 0.83460697547302232 -0.82903758062907751 0 0.55919289150049634 0.55919289150049634 0 0.82903758062907751 forward_v I I I I #
loop $-1 $-1 $315 $77 #
coedge $-1 $198 $198 $199 $316 reversed $122 $-1 #
coedge $-1 $199 $199 $198 $316 forward $124 $-1 #
coedge $-1 $200 $200 $125 $201 forward $195 $-1 #
edge $-1 $317 0 $317 6.2831853071796004 $200 $318 forward 7 unknown #
loop $-1 $-1 $207 $126 #
plane-surface $-1 -51.178319650868232 -0.58969508892593936 0.83460697547302232 -0.82903758062907751 0 0.55919289150049634 0.55919289150049634 0 0.82903758062907751 forward_v I I I I #
loop $-1 $-1 $319 $80 #
coedge $-1 $205 $205 $206 $320 reversed $127 $-1 #
coedge $-1 $206 $206 $205 $320 forward $129 $-1 #
coedge $-1 $207 $207 $130 $208 forward $202 $-1 #
edge $-1 $321 0 $321 6.2831853071796004 $207 $322 forward 7 unknown #
face $-1 $323 $324 $45 $-1 $325 forward single #
loop $-1 $-1 $326 $131 #
plane-surface $-1 0 0 9.4286710778855358 0 0 1 1 0 0 forward_v I I I I #
coedge $-1 $327 $328 $329 $330 reversed $132 $-1 #
coedge $-1 $331 $134 $332 $333 reversed $84 $-1 #
coedge $-1 $134 $331 $326 $334 reversed $84 $-1 #
coedge $-1 $335 $336 $134 $216 forward $324 $-1 #
edge $-1 $337 -3.8151786801708093e-014 $338 10.366314269965059 $215 $339 forward 7 unknown #
loop $-1 $-1 $222 $135 #
plane-surface $-1 -51.178319650868232 -0.58969508892593936 0.83460697547302232 -0.82903758062907751 0 0.55919289150049634 0.55919289150049634 0 0.82903758062907751 forward_v I I I I #
loop $-1 $-1 $340 $86 #
coedge $-1 $220 $220 $221 $341 reversed $136 $-1 #
coedge $-1 $221 $221 $220 $341 forward $138 $-1 #
coedge $-1 $222 $222 $139 $223 forward $217 $-1 #
edge $-1 $342 0 $342 6.2831853071796004 $222 $343 forward 7 unknown #
loop $-1 $-1 $229 $140 #
plane-surface $-1 -51.178319650868232 -0.58969508892593936 0.83460697547302232 -0.82903758062907751 0 0.55919289150049634 0.55919289150049634 0 0.82903758062907751 forward_v I I I I #
loop $-1 $-1 $344 $89 #
coedge $-1 $227 $227 $228 $345 reversed $141 $-1 #
coedge $-1 $228 $228 $227 $345 forward $143 $-1 #
coedge $-1 $229 $229 $144 $230 forward $224 $-1 #
edge $-1 $346 0 $346 6.2831853071796004 $229 $347 forward 7 unknown #
loop $-1 $-1 $236 $145 #
plane-surface $-1 -51.178319650868232 -0.58969508892593936 0.83460697547302232 -0.82903758062907751 0 0.55919289150049634 0.55919289150049634 0 0.82903758062907751 forward_v I I I I #
loop $-1 $-1 $348 $92 #
coedge $-1 $234 $234 $235 $349 reversed $146 $-1 #
coedge $-1 $235 $235 $234 $349 forward $148 $-1 #
coedge $-1 $236 $236 $149 $237 forward $231 $-1 #
edge $-1 $350 0 $350 6.2831853071796004 $236 $351 forward 7 unknown #
face $-1 $352 $353 $49 $-1 $354 reversed single #
loop $-1 $-1 $355 $150 #
plane-surface $-1 56.230168297292657 8.3095153446018628 145.06992945520719 0 1 0 0.73135370988377701 0 0.68199835119979291 forward_v I I I I #
coedge $-1 $356 $357 $358 $359 reversed $151 $-1 #
coedge $-1 $243 $153 $360 $361 reversed $96 $-1 #
coedge $-1 $153 $242 $356 $362 reversed $96 $-1 #
coedge $-1 $358 $363 $153 $245 forward $364 $-1 #
edge $-1 $365 -23.063235502221925 $366 -14.647558653625222 $244 $367 forward 7 unknown #
loop $-1 $-1 $251 $154 #
plane-surface $-1 -18.628739587267951 12.069245017856741 75.262870217070969 0.73135370988377701 0 0.68199835119979291 0.68199835119979291 0 -0.73135370988377701 forward_v I I I I #
loop $-1 $-1 $368 $98 #
coedge $-1 $249 $249 $250 $369 reversed $155 $-1 #
coedge $-1 $250 $250 $249 $369 forward $157 $-1 #
coedge $-1 $251 $251 $158 $252 forward $246 $-1 #
edge $-1 $370 0 $370 6.2831853071796004 $251 $371 forward 7 unknown #
loop $-1 $-1 $258 $159 #
plane-surface $-1 -18.628739587267951 12.069245017856741 75.262870217070969 0.73135370988377701 0 0.68199835119979291 0.68199835119979291 0 -0.73135370988377701 forward_v I I I I #
loop $-1 $-1 $372 $101 #
coedge $-1 $256 $256 $257 $373 reversed $160 $-1 #
coedge $-1 $257 $257 $256 $373 forward $162 $-1 #
coedge $-1 $258 $258 $163 $259 forward $253 $-1 #
edge $-1 $374 0 $374 6.2831853071796004 $258 $375 forward 7 unknown #
face $-1 $376 $377 $39 $-1 $378 reversed single #
loop $-1 $-1 $379 $164 #
plane-surface $-1 -51.178319650868254 0 0 1 0 0 0 0 -1 forward_v I I I I #
coedge $-1 $380 $271 $381 $382 forward $165 $-1 #
coedge $-1 $383 $167 $380 $384 forward $105 $-1 #
coedge $-1 $167 $383 $385 $386 forward $105 $-1 #
coedge $-1 $274 $273 $167 $267 reversed $275 $-1 #
edge $-1 $387 -21.87468246120503 $388 21.87468246120503 $266 $389 forward 7 unknown #
coedge $-1 $169 $168 $390 $391 forward $66 $-1 #
coedge $-1 $392 $393 $168 $270 reversed $377 $-1 #
edge $-1 $277 -51.178319650868254 $394 51.178319650868254 $269 $395 forward 7 unknown #
coedge $-1 $263 $396 $169 $272 reversed $165 $-1 #
edge $-1 $397 -51.178319650868254 $276 51.178319650868254 $271 $398 forward 7 unknown #
coedge $-1 $266 $170 $396 $399 forward $275 $-1 #
coedge $-1 $170 $266 $392 $400 reversed $275 $-1 #
loop $-1 $-1 $273 $376 #
vertex $-1 $171 $401 #
vertex $-1 $171 $402 #
straight-curve $-1 51.178319650868254 0 9.4286710778855358 0 1 0 I I #
face $-1 $403 $404 $40 $-1 $405 forward single #
loop $-1 $-1 $288 $172 #
plane-surface $-1 0 -21.87468246120503 0 0 1 0 0 0 1 forward_v I I I I #
coedge $-1 $406 $407 $408 $409 forward $173 $-1 #
coedge $-1 $408 $175 $177 $290 reversed $109 $-1 #
coedge $-1 $175 $408 $410 $411 reversed $109 $-1 #
coedge $-1 $412 $178 $175 $286 forward $292 $-1 #
edge $-1 $294 2.4643355389427679 $413 5.4643355389427679 $285 $414 forward 7 unknown #
coedge $-1 $177 $176 $406 $415 reversed $69 $-1 #
coedge $-1 $416 $417 $176 $289 forward $280 $-1 #
edge $-1 $418 -51.178319650868254 $293 51.178319650868254 $288 $419 forward 7 unknown #
edge $-1 $420 -51.178319650868254 $294 51.178319650868254 $283 $421 forward 7 unknown #
coedge $-1 $178 $412 $416 $422 forward $292 $-1 #
loop $-1 $-1 $285 $403 #
vertex $-1 $289 $423 #
vertex $-1 $179 $424 #
straight-curve $-1 51.178319650868254 -9.1164900955026269 6.4286710778855358 0 1 0 I I #
face $-1 $-1 $425 $41 $-1 $426 reversed single #
loop $-1 $-1 $186 $180 #
plane-surface $-1 0 0 9.4286710778855358 0 0 1 1 0 0 forward_v I I I I #
coedge $-1 $427 $428 $429 $430 reversed $181 $-1 #
coedge $-1 $431 $183 $185 $306 forward $113 $-1 #
coedge $-1 $183 $431 $427 $432 forward $113 $-1 #
coedge $-1 $429 $186 $183 $303 forward $297 $-1 #
edge $-1 $309 -4.526244903588692 $433 3.9365498146627527 $302 $434 forward 7 unknown #
coedge $-1 $435 $436 $184 $305 forward $425 $-1 #
edge $-1 $437 -28.201249059969211 $308 -19.607184957556665 $304 $438 forward 7 unknown #
edge $-1 $309 -10.366314269965059 $437 3.8151786801708093e-014 $185 $439 forward 7 unknown #
coedge $-1 $186 $429 $435 $440 forward $297 $-1 #
vertex $-1 $305 $441 #
vertex $-1 $187 $442 #
straight-curve $-1 -68.017910129451508 -4.8210924480516617 9.4286710778855358 1 0 0 I I #
coedge $-1 $311 $311 $-1 $443 reversed $190 $-1 #
edge $-1 $444 0 $444 6.2831853071796004 $191 $445 forward 7 unknown #
vertex $-1 $194 $446 #
ellipse-curve $-1 -48.279935025455927 -3.1285335044013713 5.1316390266792729 -0.82903758062907751 0 0.55919289150049634 0.13979822287512408 0 0.20725939515726938 1 I I #
coedge $-1 $315 $315 $-1 $447 reversed $197 $-1 #
edge $-1 $448 0 $448 6.2831853071796004 $198 $449 forward 7 unknown #
vertex $-1 $201 $450 #
ellipse-curve $-1 -48.279935025455927 -0.58969508892593936 5.1316390266792729 -0.82903758062907751 0 0.55919289150049634 0.13979822287512408 0 0.20725939515726938 1 I I #
coedge $-1 $319 $319 $-1 $451 reversed $204 $-1 #
edge $-1 $452 0 $452 6.2831853071796004 $205 $453 forward 7 unknown #
vertex $-1 $208 $454 #
ellipse-curve $-1 -48.279935025455927 1.9491433265494926 5.1316390266792729 -0.82903758062907751 0 0.55919289150049634 0.13979822287512408 0 0.20725939515726938 1 I I #
face $-1 $-1 $455 $45 $-1 $456 reversed single #
loop $-1 $-1 $335 $209 #
plane-surface $-1 -136.03582025890302 3.641702270199783 58.071712070884402 0 -1 0 0.82903758062907751 0 -0.55919289150049634 forward_v I I I I #
coedge $-1 $329 $457 $214 $334 forward $210 $-1 #
coedge $-1 $328 $212 $331 $458 reversed $132 $-1 #
coedge $-1 $212 $327 $459 $460 reversed $132 $-1 #
coedge $-1 $461 $326 $212 $330 forward $210 $-1 #
edge $-1 $462 -22.636359729407893 $463 -16.839590478583254 $329 $464 forward 7 unknown #
coedge $-1 $214 $213 $327 $458 forward $84 $-1 #
coedge $-1 $465 $459 $213 $333 forward $455 $-1 #
edge $-1 $466 -12.399344532914194 $337 -3.9365498146627527 $332 $467 forward 7 unknown #
edge $-1 $338 3.9365498146627527 $462 12.399344532914194 $326 $468 forward 7 unknown #
coedge $-1 $336 $215 $457 $469 reversed $324 $-1 #
coedge $-1 $215 $335 $465 $470 reversed $324 $-1 #
vertex $-1 $333 $471 #
vertex $-1 $334 $472 #
straight-curve $-1 -51.178319650868232 3.641702270199783 0.83460697547302232 0.55919289150049634 0 0.82903758062907751 I I #
coedge $-1 $340 $340 $-1 $473 reversed $219 $-1 #
edge $-1 $474 0 $474 6.2831853071796004 $220 $475 forward 7 unknown #
vertex $-1 $223 $476 #
ellipse-curve $-1 -48.279935025455927 5.3342612138500698 5.1316390266792729 -0.82903758062907751 0 0.55919289150049634 0.13979822287512408 0 0.20725939515726938 1 I I #
coedge $-1 $344 $344 $-1 $477 reversed $226 $-1 #
edge $-1 $478 0 $478 6.2831853071796004 $227 $479 forward 7 unknown #
vertex $-1 $230 $480 #
ellipse-curve $-1 -48.279935025455927 7.8730996293255018 5.1316390266792729 -0.82903758062907751 0 0.55919289150049634 0.13979822287512408 0 0.20725939515726938 1 I I #
coedge $-1 $348 $348 $-1 $481 reversed $233 $-1 #
edge $-1 $482 0 $482 6.2831853071796004 $234 $483 forward 7 unknown #
vertex $-1 $237 $484 #
ellipse-curve $-1 -48.279935025455927 10.41193804480093 5.1316390266792729 -0.82903758062907751 0 0.55919289150049634 0.13979822287512408 0 0.20725939515726938 1 I I #
face $-1 $-1 $364 $49 $-1 $485 forward single #
loop $-1 $-1 $486 $238 #
plane-surface $-1 51.178319650868254 0 0 -1 0 0 0 0 1 forward_v I I I I #
coedge $-1 $487 $488 $489 $490 reversed $239 $-1 #
coedge $-1 $491 $241 $243 $362 forward $151 $-1 #
coedge $-1 $241 $491 $487 $492 forward $151 $-1 #
coedge $-1 $489 $244 $241 $359 forward $364 $-1 #
edge $-1 $366 -9.794352182183248 $493 -2.2748928356734925 $358 $494 forward 7 unknown #
coedge $-1 $495 $496 $242 $361 forward $353 $-1 #
edge $-1 $497 -72.131002395093219 $365 -63.106293649718054 $360 $498 forward 7 unknown #
edge $-1 $366 90.016907345212559 $497 102.35663930173648 $243 $499 forward 7 unknown #
coedge $-1 $244 $489 $495 $500 forward $364 $-1 #
loop $-1 $-1 $489 $352 #
vertex $-1 $361 $501 #
vertex $-1 $245 $502 #
straight-curve $-1 28.115084148646329 15.828974691111618 9.4286710778855394 -1 0 0 I I #
coedge $-1 $368 $368 $-1 $503 reversed $248 $-1 #
edge $-1 $504 0 $504 6.2831853071796004 $249 $505 forward 7 unknown #
vertex $-1 $252 $506 #
ellipse-curve $-1 46.970481226569902 10.457932300747505 4.9163167051979615 0.73135370988377701 0 0.68199835119979291 0.68199835119979291 0 -0.73135370988377701 1 I I #
coedge $-1 $372 $372 $-1 $507 reversed $255 $-1 #
edge $-1 $508 0 $508 6.2831853071796004 $256 $509 forward 7 unknown #
vertex $-1 $259 $510 #
ellipse-curve $-1 46.970481226569902 13.680557734965969 4.9163167051979615 0.73135370988377701 0 0.68199835119979291 0.68199835119979291 0 -0.73135370988377701 1 I I #
face $-1 $-1 $275 $39 $-1 $511 reversed single #
loop $-1 $-1 $392 $260 #
plane-surface $-1 0 21.87468246120503 0 0 -1 0 0 0 -1 forward_v I I I I #
coedge $-1 $512 $390 $393 $513 forward $261 $-1 #
coedge $-1 $396 $263 $264 $384 reversed $165 $-1 #
coedge $-1 $390 $512 $263 $382 reversed $261 $-1 #
edge $-1 $397 -9.4286710778855358 $514 9.4286710778855358 $381 $515 forward 7 unknown #
coedge $-1 $265 $264 $512 $516 forward $105 $-1 #
edge $-1 $388 -51.178319650868254 $514 51.178319650868254 $380 $517 forward 7 unknown #
coedge $-1 $393 $392 $265 $386 reversed $377 $-1 #
edge $-1 $518 -51.178319650868254 $387 51.178319650868254 $385 $519 forward 7 unknown #
vertex $-1 $267 $520 #
vertex $-1 $399 $521 #
straight-curve $-1 51.178319650868254 0 -9.4286710778855358 0 -1 0 I I #
coedge $-1 $379 $381 $268 $391 reversed $261 $-1 #
edge $-1 $394 -21.87468246120503 $397 21.87468246120503 $390 $522 forward 7 unknown #
coedge $-1 $385 $269 $274 $400 forward $377 $-1 #
coedge $-1 $269 $385 $379 $513 reversed $377 $-1 #
vertex $-1 $270 $523 #
straight-curve $-1 0 21.87468246120503 9.4286710778855358 -1 0 0 I I #
coedge $-1 $271 $380 $273 $399 reversed $165 $-1 #
vertex $-1 $391 $524 #
straight-curve $-1 0 -21.87468246120503 9.4286710778855358 1 0 0 I I #
edge $-1 $276 -9.4286710778855358 $388 9.4286710778855358 $273 $525 forward 7 unknown #
edge $-1 $277 -9.4286710778855358 $387 9.4286710778855358 $274 $526 forward 7 unknown #
point $-1 51.178319650868254 -21.87468246120503 9.4286710778855358 #
point $-1 51.178319650868254 21.87468246120503 9.4286710778855358 #
face $-1 $-1 $292 $40 $-1 $527 reversed single #
loop $-1 $-1 $410 $279 #
plane-surface $-1 0 0 9.4286710778855358 0 0 1 1 0 0 forward_v I I I I #
coedge $-1 $528 $282 $287 $415 forward $173 $-1 #
coedge $-1 $282 $528 $529 $530 reversed $173 $-1 #
coedge $-1 $284 $283 $282 $409 reversed $109 $-1 #
edge $-1 $531 -5.4643355389427679 $420 -2.4643355389427679 $282 $532 forward 7 unknown #
coedge $-1 $529 $533 $284 $411 forward $404 $-1 #
edge $-1 $413 -51.178319650868254 $531 51.178319650868254 $410 $534 forward 7 unknown #
coedge $-1 $291 $285 $533 $535 reversed $292 $-1 #
vertex $-1 $286 $536 #
straight-curve $-1 51.178319650868254 -14.591277920805476 3.9643355389427679 0 0 1 I I #
edge $-1 $420 5.4747878253028492 $418 12.758192365702406 $406 $537 forward 7 unknown #
coedge $-1 $538 $288 $291 $422 reversed $280 $-1 #
coedge $-1 $288 $538 $528 $539 forward $280 $-1 #
vertex $-1 $289 $540 #
straight-curve $-1 0 -21.87468246120503 6.4286710778855358 1 0 0 I I #
vertex $-1 $415 $541 #
straight-curve $-1 0 -14.591277920805476 6.4286710778855358 1 0 0 I I #
edge $-1 $542 -9.4286710778855358 $293 -6.4286710778855358 $291 $543 forward 7 unknown #
point $-1 51.178319650868254 -21.874682461205033 6.4286710778855358 #
point $-1 51.178319650868254 -14.591277920805476 6.4286710778855358 #
loop $-1 $-1 $304 $296 #
plane-surface $-1 -51.178319650868254 0 0 1 0 0 0 0 -1 forward_v I I I I #
coedge $-1 $428 $299 $301 $432 reversed $181 $-1 #
coedge $-1 $299 $427 $544 $545 reversed $181 $-1 #
coedge $-1 $307 $302 $299 $430 forward $297 $-1 #
edge $-1 $433 -22.636359729407893 $546 -16.839590478583254 $429 $547 forward 7 unknown #
coedge $-1 $301 $300 $436 $548 reversed $113 $-1 #
edge $-1 $549 -3.8151786801708093e-014 $433 10.366314269965059 $427 $550 forward 7 unknown #
vertex $-1 $303 $551 #
straight-curve $-1 -45.381550400043622 -0.29484754446296968 9.4286710778855358 0 1 0 I I #
coedge $-1 $544 $304 $307 $440 reversed $425 $-1 #
coedge $-1 $304 $544 $431 $548 forward $425 $-1 #
vertex $-1 $305 $552 #
straight-curve $-1 -51.178319650868254 -4.8210924480516617 29.035856035442201 0 0 1 I I #
straight-curve $-1 -51.178319650868232 -4.8210924480516617 0.83460697547302232 -0.55919289150049634 0 -0.82903758062907751 I I #
edge $-1 $546 -3.641702270199783 $308 4.8210924480516617 $435 $553 forward 7 unknown #
point $-1 -51.178319650868254 -4.8210924480516617 9.4286710778855358 #
point $-1 -45.381550400043615 -4.8210924480516617 9.4286710778855358 #
edge $-1 $554 1 $554 0 $311 $-1 forward 7 unknown #
vertex $-1 $312 $555 #
ellipse-curve $-1 -47.450897444826872 -3.1285335044013713 4.5724461351787911 -0.82903758062907751 0 0.55919289150049634 0.13979822287512408 0 0.20725939515726938 1 I I #
point $-1 -48.140136802580827 -3.1285335044013713 5.3388984218365572 #
edge $-1 $556 1 $556 0 $315 $-1 forward 7 unknown #
vertex $-1 $316 $557 #
ellipse-curve $-1 -47.450897444826872 -0.58969508892593936 4.5724461351787911 -0.82903758062907751 0 0.55919289150049634 0.13979822287512408 0 0.20725939515726938 1 I I #
point $-1 -48.140136802580827 -0.58969508892593936 5.3388984218365572 #
edge $-1 $558 1 $558 0 $319 $-1 forward 7 unknown #
vertex $-1 $320 $559 #
ellipse-curve $-1 -47.450897444826872 1.9491433265494926 4.5724461351787911 -0.82903758062907751 0 0.55919289150049634 0.13979822287512408 0 0.20725939515726938 1 I I #
point $-1 -48.140136802580827 1.9491433265494926 5.3388984218365572 #
loop $-1 $-1 $332 $323 #
plane-surface $-1 -51.178319650868254 0 0 1 0 0 0 0 -1 forward_v I I I I #
coedge $-1 $326 $461 $335 $469 forward $210 $-1 #
edge $-1 $466 -3.8151786801708093e-014 $462 10.366314269965059 $327 $560 forward 7 unknown #
coedge $-1 $332 $561 $328 $460 forward $455 $-1 #
edge $-1 $463 19.607184957556665 $466 28.201249059969211 $459 $562 forward 7 unknown #
coedge $-1 $457 $329 $561 $563 forward $210 $-1 #
vertex $-1 $330 $564 #
vertex $-1 $563 $565 #
straight-curve $-1 -68.017910129451508 12.104496988451224 9.4286710778855358 -1 0 0 I I #
coedge $-1 $561 $332 $336 $470 forward $455 $-1 #
vertex $-1 $460 $566 #
straight-curve $-1 -51.178319650868254 -0.29484754446296968 0.83460697547299678 0 -1 0 I I #
straight-curve $-1 -45.381550400043622 -0.29484754446296968 9.4286710778855358 0 1 0 I I #
edge $-1 $567 16.839590478583254 $338 22.636359729407893 $457 $568 forward 7 unknown #
edge $-1 $337 -28.201249059969211 $567 -19.607184957556665 $465 $569 forward 7 unknown #
point $-1 -51.178319650868254 3.641702270199783 0.83460697547299068 #
point $-1 -45.381550400043615 3.641702270199783 9.4286710778855358 #
edge $-1 $570 1 $570 0 $340 $-1 forward 7 unknown #
vertex $-1 $341 $571 #
ellipse-curve $-1 -47.450897444826872 5.3342612138500698 4.5724461351787911 -0.82903758062907751 0 0.55919289150049634 0.13979822287512408 0 0.20725939515726938 1 I I #
point $-1 -48.140136802580827 5.3342612138500698 5.3388984218365572 #
edge $-1 $572 1 $572 0 $344 $-1 forward 7 unknown #
vertex $-1 $345 $573 #
ellipse-curve $-1 -47.450897444826872 7.8730996293255018 4.5724461351787911 -0.82903758062907751 0 0.55919289150049634 0.13979822287512408 0 0.20725939515726938 1 I I #
point $-1 -48.140136802580827 7.8730996293255018 5.3388984218365572 #
edge $-1 $574 1 $574 0 $348 $-1 forward 7 unknown #
vertex $-1 $349 $575 #
ellipse-curve $-1 -47.450897444826872 10.41193804480093 4.5724461351787911 -0.82903758062907751 0 0.55919289150049634 0.13979822287512408 0 0.20725939515726938 1 I I #
point $-1 -48.140136802580827 10.41193804480093 5.3388984218365572 #
plane-surface $-1 0 0 9.4286710778855358 0 0 1 1 0 0 forward_v I I I I #
coedge $-1 $496 $495 $488 $576 forward $353 $-1 #
coedge $-1 $488 $355 $357 $492 reversed $239 $-1 #
coedge $-1 $355 $487 $486 $576 reversed $239 $-1 #
coedge $-1 $363 $358 $355 $490 forward $364 $-1 #
edge $-1 $493 14.647558653625222 $577 23.063235502221925 $489 $578 forward 7 unknown #
coedge $-1 $357 $356 $496 $579 reversed $151 $-1 #
edge $-1 $580 -102.35663930173648 $493 -90.016907345212559 $487 $581 forward 7 unknown #
vertex $-1 $359 $582 #
straight-curve $-1 42.762642802271543 6.0346225089283703 9.4286710778855394 0 -1 0 I I #
coedge $-1 $486 $360 $363 $500 reversed $353 $-1 #
coedge $-1 $360 $486 $491 $579 forward $353 $-1 #
vertex $-1 $361 $583 #
straight-curve $-1 51.178319650868254 15.828974691111618 72.534964727603594 0 0 1 I I #
straight-curve $-1 -18.628739587267951 15.828974691111618 75.262870217070969 0.68199835119979291 0 -0.73135370988377701 I I #
edge $-1 $577 8.3095153446018628 $365 15.828974691111618 $495 $584 forward 7 unknown #
point $-1 51.178319650868254 15.828974691111618 9.4286710778855358 #
point $-1 42.76264280227155 15.828974691111618 9.4286710778855394 #
edge $-1 $585 1 $585 0 $368 $-1 forward 7 unknown #
vertex $-1 $369 $586 #
ellipse-curve $-1 45.704991781610303 10.457932300747505 3.7362287350961294 0.73135370988377701 0 0.68199835119979291 0.68199835119979291 0 -0.73135370988377701 1 I I #
point $-1 47.652479577769668 10.457932300747505 4.1849629953141587 #
edge $-1 $587 1 $587 0 $372 $-1 forward 7 unknown #
vertex $-1 $373 $588 #
ellipse-curve $-1 45.704991781610303 13.680557734965969 3.7362287350961294 0.73135370988377701 0 0.68199835119979291 0.68199835119979291 0 -0.73135370988377701 1 I I #
point $-1 47.652479577769668 13.680557734965969 4.1849629953141587 #
plane-surface $-1 51.178319650868254 0 0 -1 0 0 0 0 1 forward_v I I I I #
coedge $-1 $381 $379 $383 $516 reversed $261 $-1 #
edge $-1 $394 -9.4286710778855358 $518 9.4286710778855358 $393 $589 forward 7 unknown #
vertex $-1 $516 $590 #
straight-curve $-1 -51.178319650868254 -21.87468246120503 0 0 0 -1 I I #
edge $-1 $514 -21.87468246120503 $518 21.87468246120503 $512 $591 forward 7 unknown #
straight-curve $-1 0 -21.87468246120503 -9.4286710778855358 -1 0 0 I I #
vertex $-1 $386 $592 #
straight-curve $-1 0 21.87468246120503 -9.4286710778855358 1 0 0 I I #
point $-1 51.178319650868254 21.87468246120503 -9.4286710778855358 #
point $-1 51.178319650868254 -21.87468246120503 -9.4286710778855358 #
straight-curve $-1 -51.178319650868254 0 9.4286710778855358 0 -1 0 I I #
point $-1 -51.178319650868254 21.87468246120503 9.4286710778855358 #
point $-1 -51.178319650868254 -21.87468246120503 9.4286710778855358 #
straight-curve $-1 51.178319650868254 -21.87468246120503 0 0 0 -1 I I #
straight-curve $-1 51.178319650868254 21.87468246120503 0 0 0 -1 I I #
plane-surface $-1 51.178319650868254 0 0 -1 0 0 0 0 1 forward_v I I I I #
coedge $-1 $407 $406 $417 $539 reversed $173 $-1 #
coedge $-1 $593 $410 $407 $530 forward $404 $-1 #
edge $-1 $531 14.591277920805476 $594 21.87468246120503 $407 $595 forward 7 unknown #
vertex $-1 $530 $596 #
straight-curve $-1 -51.178319650868254 -14.591277920805476 3.9643355389427679 0 0 -1 I I #
coedge $-1 $410 $593 $412 $535 forward $404 $-1 #
straight-curve $-1 0 -14.591277920805476 9.4286710778855358 -1 0 0 I I #
edge $-1 $542 -21.87468246120503 $413 -14.591277920805476 $412 $597 forward 7 unknown #
point $-1 51.178319650868254 -14.591277920805476 9.4286710778855358 #
straight-curve $-1 -51.178319650868254 -9.1164900955026269 6.4286710778855358 0 -1 0 I I #
coedge $-1 $417 $416 $593 $598 reversed $280 $-1 #
edge $-1 $594 -9.4286710778855358 $418 -6.4286710778855358 $528 $599 forward 7 unknown #
point $-1 -51.178319650868254 -21.874682461205033 6.4286710778855358 #
point $-1 -51.178319650868254 -14.591277920805476 6.4286710778855358 #
vertex $-1 $535 $600 #
straight-curve $-1 51.178319650868254 -21.87468246120503 0 0 0 -1 I I #
coedge $-1 $436 $435 $428 $545 forward $425 $-1 #
edge $-1 $546 19.607184957556665 $549 28.201249059969211 $544 $601 forward 7 unknown #
vertex $-1 $440 $602 #
straight-curve $-1 -68.017910129451508 3.641702270199783 9.4286710778855358 -1 0 0 I I #
edge $-1 $549 -3.9365498146627527 $437 4.526244903588692 $436 $603 forward 7 unknown #
vertex $-1 $548 $604 #
straight-curve $-1 -51.178319650868232 3.641702270199783 0.83460697547302232 0.55919289150049634 0 0.82903758062907751 I I #
point $-1 -45.381550400043615 3.641702270199783 9.4286710778855358 #
point $-1 -51.178319650868254 -4.8210924480516617 0.83460697547299068 #
straight-curve $-1 -51.178319650868254 0 9.4286710778855358 0 -1 0 I I #
vertex $-1 $443 $605 #
point $-1 -47.31109922195175 -3.1285335044013713 4.7797055303360612 #
vertex $-1 $447 $606 #
point $-1 -47.31109922195175 -0.58969508892593936 4.7797055303360612 #
vertex $-1 $451 $607 #
point $-1 -47.31109922195175 1.9491433265494926 4.7797055303360612 #
straight-curve $-1 -51.178319650868232 12.104496988451224 0.83460697547302232 0.55919289150049634 0 0.82903758062907751 I I #
coedge $-1 $459 $465 $461 $563 reversed $455 $-1 #
straight-curve $-1 -51.178319650868254 12.104496988451224 29.035856035442201 0 0 -1 I I #
edge $-1 $463 -12.104496988451224 $567 -3.641702270199783 $561 $608 forward 7 unknown #
point $-1 -45.381550400043615 12.104496988451224 9.4286710778855358 #
point $-1 -51.178319650868254 12.104496988451224 9.4286710778855358 #
point $-1 -51.178319650868254 12.104496988451224 0.83460697547299068 #
vertex $-1 $470 $609 #
straight-curve $-1 -68.017910129451508 3.641702270199783 9.4286710778855358 1 0 0 I I #
straight-curve $-1 -51.178319650868254 3.641702270199783 29.035856035442201 0 0 1 I I #
vertex $-1 $473 $610 #
point $-1 -47.31109922195175 5.3342612138500698 4.7797055303360612 #
vertex $-1 $477 $611 #
point $-1 -47.31109922195175 7.8730996293255018 4.7797055303360612 #
vertex $-1 $481 $612 #
point $-1 -47.31109922195175 10.41193804480093 4.7797055303360612 #
edge $-1 $577 63.106293649718054 $580 72.131002395093219 $486 $613 forward 7 unknown #
vertex $-1 $500 $614 #
straight-curve $-1 28.115084148646329 8.3095153446018628 9.4286710778855394 1 0 0 I I #
edge $-1 $580 2.2748928356734925 $497 9.794352182183248 $496 $615 forward 7 unknown #
vertex $-1 $579 $616 #
straight-curve $-1 -18.628739587267951 8.3095153446018628 75.262870217070969 -0.68199835119979291 0 0.73135370988377701 I I #
point $-1 42.76264280227155 8.3095153446018628 9.4286710778855394 #
point $-1 51.178319650868254 15.828974691111618 0.40396233251037472 #
straight-curve $-1 51.178319650868254 0 9.4286710778855358 0 1 0 I I #
vertex $-1 $503 $617 #
point $-1 46.386990132810098 10.457932300747505 3.0048750252123524 #
vertex $-1 $507 $618 #
point $-1 46.386990132810098 13.680557734965969 3.0048750252123524 #
straight-curve $-1 -51.178319650868254 21.87468246120503 0 0 0 -1 I I #
point $-1 -51.178319650868254 -21.87468246120503 -9.4286710778855358 #
straight-curve $-1 -51.178319650868254 0 -9.4286710778855358 0 1 0 I I #
point $-1 -51.178319650868254 21.87468246120503 -9.4286710778855358 #
coedge $-1 $533 $529 $538 $598 forward $404 $-1 #
vertex $-1 $530 $619 #
straight-curve $-1 -51.178319650868254 0 9.4286710778855358 0 -1 0 I I #
point $-1 -51.178319650868254 -14.591277920805476 9.4286710778855358 #
straight-curve $-1 51.178319650868254 0 9.4286710778855358 0 1 0 I I #
edge $-1 $594 -51.178319650868254 $542 51.178319650868254 $538 $620 forward 7 unknown #
straight-curve $-1 -51.178319650868254 -21.87468246120503 0 0 0 -1 I I #
point $-1 51.178319650868254 -21.87468246120503 9.4286710778855358 #
straight-curve $-1 -51.178319650868254 3.641702270199783 29.035856035442201 0 0 -1 I I #
point $-1 -51.178319650868254 3.641702270199783 9.4286710778855358 #
straight-curve $-1 -51.178319650868254 -0.29484754446296968 0.83460697547299678 0 -1 0 I I #
point $-1 -51.178319650868254 3.641702270199783 0.83460697547299068 #
point $-1 -47.243638049669606 -3.1285335044013713 4.4326479123036675 #
point $-1 -47.243638049669606 -0.58969508892593936 4.4326479123036675 #
point $-1 -47.243638049669606 1.9491433265494926 4.4326479123036675 #
straight-curve $-1 -51.178319650868254 0 9.4286710778855358 0 -1 0 I I #
point $-1 -51.178319650868254 3.641702270199783 9.4286710778855358 #
point $-1 -47.243638049669606 5.3342612138500698 4.4326479123036675 #
point $-1 -47.243638049669606 7.8730996293255018 4.4326479123036675 #
point $-1 -47.243638049669606 10.41193804480093 4.4326479123036675 #
straight-curve $-1 51.178319650868254 8.3095153446018628 72.534964727603594 0 0 -1 I I #
point $-1 51.178319650868254 8.3095153446018628 9.4286710778855358 #
straight-curve $-1 51.178319650868247 6.0346225089283703 0.40396233251038183 0 1 0 I I #
point $-1 51.178319650868254 8.3095153446018628 0.40396233251037472 #
point $-1 44.973638071726526 10.457932300747505 3.0542303838963365 #
point $-1 44.973638071726526 13.680557734965969 3.0542303838963365 #
point $-1 -51.178319650868254 -21.87468246120503 9.4286710778855358 #
straight-curve $-1 0 -21.87468246120503 9.4286710778855358 1 0 0 I I #
End-of-ACIS-data 