500 0 18 0           
7 Unknown 11 ACIS 5.0 NT 24 Thu Mar 25 23:16:58 1999 
-1 9.9999999999999995e-007 1e-010 
body $-1 $18 $-1 $19 #
body $-1 $20 $-1 $21 #
body $-1 $22 $-1 $23 #
body $-1 $24 $-1 $25 #
body $-1 $26 $-1 $27 #
body $-1 $28 $-1 $29 #
body $-1 $30 $-1 $31 #
body $-1 $32 $-1 $33 #
body $-1 $34 $-1 $35 #
body $-1 $36 $-1 $37 #
body $-1 $38 $-1 $39 #
body $-1 $40 $-1 $41 #
body $-1 $42 $-1 $43 #
body $-1 $44 $-1 $45 #
body $-1 $46 $-1 $47 #
body $-1 $48 $-1 $49 #
body $-1 $50 $-1 $51 #
body $-1 $52 $-1 $53 #
lump $-1 $-1 $54 $0 #
transform $-1 1 0 0 0 1 0 0 0 1 75.826288644062629 41.0341781516235 18.657044982406607 1 rotate no_reflect no_shear #
lump $-1 $-1 $55 $1 #
transform $-1 1 0 0 0 1 0 0 0 1 75.826288644062629 41.0341781516235 18.657044982406607 1 rotate no_reflect no_shear #
lump $-1 $-1 $56 $2 #
transform $-1 1 0 0 0 1 0 0 0 1 75.826288644062629 41.0341781516235 18.657044982406607 1 rotate no_reflect no_shear #
lump $-1 $-1 $57 $3 #
transform $-1 1 0 0 0 1 0 0 0 1 75.826288644062629 41.0341781516235 18.657044982406607 1 rotate no_reflect no_shear #
lump $-1 $-1 $58 $4 #
transform $-1 1 0 0 0 1 0 0 0 1 75.826288644062629 41.0341781516235 18.657044982406607 1 rotate no_reflect no_shear #
lump $-1 $-1 $59 $5 #
transform $-1 1 0 0 0 1 0 0 0 1 75.826288644062629 41.0341781516235 18.657044982406607 1 rotate no_reflect no_shear #
lump $-1 $-1 $60 $6 #
transform $-1 1 0 0 0 1 0 0 0 1 75.826288644062629 41.0341781516235 18.657044982406607 1 rotate no_reflect no_shear #
lump $-1 $-1 $61 $7 #
transform $-1 1 0 0 0 1 0 0 0 1 75.826288644062629 41.0341781516235 18.657044982406607 1 rotate no_reflect no_shear #
lump $-1 $-1 $62 $8 #
transform $-1 1 0 0 0 1 0 0 0 1 75.826288644062629 41.0341781516235 18.657044982406607 1 rotate no_reflect no_shear #
lump $-1 $-1 $63 $9 #
transform $-1 1 0 0 0 1 0 0 0 1 75.826288644062629 41.0341781516235 18.657044982406607 1 rotate no_reflect no_shear #
lump $-1 $-1 $64 $10 #
transform $-1 1 0 0 0 1 0 0 0 1 75.826288644062629 41.0341781516235 18.657044982406607 1 rotate no_reflect no_shear #
lump $-1 $-1 $65 $11 #
transform $-1 1 0 0 0 1 0 0 0 1 75.826288644062629 41.0341781516235 18.657044982406607 1 rotate no_reflect no_shear #
lump $-1 $-1 $66 $12 #
transform $-1 1 0 0 0 1 0 0 0 1 75.826288644062629 41.0341781516235 18.657044982406607 1 rotate no_reflect no_shear #
lump $-1 $-1 $67 $13 #
transform $-1 1 0 0 0 1 0 0 0 1 75.826288644062629 41.0341781516235 18.657044982406607 1 rotate no_reflect no_shear #
lump $-1 $-1 $68 $14 #
transform $-1 1 0 0 0 1 0 0 0 1 75.826288644062629 41.0341781516235 18.657044982406607 1 rotate no_reflect no_shear #
lump $-1 $-1 $69 $15 #
transform $-1 1 0 0 0 1 0 0 0 1 75.826288644062629 41.0341781516235 18.657044982406607 1 rotate no_reflect no_shear #
lump $-1 $-1 $70 $16 #
transform $-1 1 0 0 0 1 0 0 0 1 75.826288644062629 41.0341781516235 18.657044982406607 1 rotate no_reflect no_shear #
lump $-1 $-1 $71 $17 #
transform $-1 1 0 0 0 1 0 0 0 1 75.826288644062629 41.0341781516235 18.657044982406607 1 rotate no_reflect no_shear #
shell $-1 $-1 $-1 $72 $-1 $18 #
shell $-1 $-1 $-1 $73 $-1 $20 #
shell $-1 $-1 $-1 $74 $-1 $22 #
shell $-1 $-1 $-1 $75 $-1 $24 #
shell $-1 $-1 $-1 $76 $-1 $26 #
shell $-1 $-1 $-1 $77 $-1 $28 #
shell $-1 $-1 $-1 $78 $-1 $30 #
shell $-1 $-1 $-1 $79 $-1 $32 #
shell $-1 $-1 $-1 $80 $-1 $34 #
shell $-1 $-1 $-1 $81 $-1 $36 #
shell $-1 $-1 $-1 $82 $-1 $38 #
shell $-1 $-1 $-1 $83 $-1 $40 #
shell $-1 $-1 $-1 $84 $-1 $42 #
shell $-1 $-1 $-1 $85 $-1 $44 #
shell $-1 $-1 $-1 $86 $-1 $46 #
shell $-1 $-1 $-1 $87 $-1 $48 #
shell $-1 $-1 $-1 $88 $-1 $50 #
shell $-1 $-1 $-1 $89 $-1 $52 #
face $-1 $90 $91 $54 $-1 $92 forward single #
face $-1 $93 $94 $55 $-1 $95 forward single #
face $-1 $96 $97 $56 $-1 $98 reversed single #
face $-1 $99 $100 $57 $-1 $101 forward single #
face $-1 $102 $103 $58 $-1 $104 forward single #
face $-1 $105 $106 $59 $-1 $107 reversed single #
face $-1 $108 $109 $60 $-1 $110 forward single #
face $-1 $111 $112 $61 $-1 $113 forward single #
face $-1 $114 $115 $62 $-1 $116 reversed single #
face $-1 $117 $118 $63 $-1 $119 forward single #
face $-1 $120 $121 $64 $-1 $122 forward single #
face $-1 $123 $124 $65 $-1 $125 reversed single #
face $-1 $126 $127 $66 $-1 $128 forward single #
face $-1 $129 $130 $67 $-1 $131 forward single #
face $-1 $132 $133 $68 $-1 $134 reversed single #
face $-1 $135 $136 $69 $-1 $137 forward single #
face $-1 $138 $139 $70 $-1 $140 forward single #
face $-1 $141 $142 $71 $-1 $143 forward single #
face $-1 $144 $145 $54 $-1 $146 reversed single #
loop $-1 $-1 $147 $72 #
plane-surface $-1 0 0 18.657044982406607 0 0 1 1 0 0 forward_v I I I I #
face $-1 $148 $149 $55 $-1 $150 reversed single #
loop $-1 $-1 $151 $73 #
plane-surface $-1 0 -33.110368815873727 -9.0183783705356539 0 0 1 1 0 0 forward_v I I I I #
face $-1 $152 $153 $56 $-1 $154 reversed single #
loop $-1 $-1 $155 $74 #
plane-surface $-1 134.94199621678271 -11.362280283164289 209.28071016173809 0 -1 0 -0.87461971476443456 0 -0.48480960649040278 forward_v I I I I #
face $-1 $156 $157 $57 $-1 $158 forward single #
loop $-1 $159 $160 $75 #
cone-surface $-1 70.189736746482566 -17.35568447149862 10.150988843398761 -0.87461971476443456 0 -0.48480960649040278 0.48480960649040278 0 -0.87461971476443456 1 I I 0 1 1 forward I I I I #
face $-1 $161 $162 $58 $-1 $163 forward single #
loop $-1 $164 $165 $76 #
cone-surface $-1 70.189736746482566 -13.759641958498019 10.150988843398761 -0.87461971476443456 0 -0.48480960649040278 0.48480960649040278 0 -0.87461971476443456 1 I I 0 1 1 forward I I I I #
face $-1 $166 $167 $59 $-1 $168 reversed single #
loop $-1 $-1 $169 $77 #
plane-surface $-1 134.94199621678271 4.2920347506677743 209.28071016173809 0 -1 0 -0.87461971476443456 0 -0.48480960649040278 forward_v I I I I #
face $-1 $170 $171 $60 $-1 $172 forward single #
loop $-1 $173 $174 $78 #
cone-surface $-1 70.189736746482566 -1.7013694376665569 10.150988843398761 -0.87461971476443456 0 -0.48480960649040278 0.48480960649040278 0 -0.87461971476443456 1 I I 0 1 1 forward I I I I #
face $-1 $175 $176 $61 $-1 $177 forward single #
loop $-1 $178 $179 $79 #
cone-surface $-1 70.189736746482566 1.8946730753340475 10.150988843398761 -0.87461971476443456 0 -0.48480960649040278 0.48480960649040278 0 -0.87461971476443456 1 I I 0 1 1 forward I I I I #
face $-1 $180 $181 $62 $-1 $182 reversed single #
loop $-1 $-1 $183 $80 #
plane-surface $-1 134.94199621678271 19.946349784499837 209.28071016173809 0 -1 0 -0.87461971476443456 0 -0.48480960649040278 forward_v I I I I #
face $-1 $184 $185 $63 $-1 $186 forward single #
loop $-1 $187 $188 $81 #
cone-surface $-1 70.189736746482566 13.952945596165506 10.150988843398761 -0.87461971476443456 0 -0.48480960649040278 0.48480960649040278 0 -0.87461971476443456 1 I I 0 1 1 forward I I I I #
face $-1 $189 $190 $64 $-1 $191 forward single #
loop $-1 $192 $193 $82 #
cone-surface $-1 70.189736746482566 17.54898810916611 10.150988843398761 -0.87461971476443456 0 -0.48480960649040278 0.48480960649040278 0 -0.87461971476443456 1 I I 0 1 1 forward I I I I #
face $-1 $194 $195 $65 $-1 $196 reversed single #
loop $-1 $-1 $197 $83 #
plane-surface $-1 134.94199621678271 35.6006648183319 209.28071016173809 0 -1 0 -0.87461971476443456 0 -0.48480960649040278 forward_v I I I I #
face $-1 $198 $199 $66 $-1 $200 forward single #
loop $-1 $201 $202 $84 #
cone-surface $-1 70.189736746482566 29.607260629997576 10.150988843398761 -0.87461971476443456 0 -0.48480960649040278 0.48480960649040278 0 -0.87461971476443456 1 I I 0 1 1 forward I I I I #
face $-1 $203 $204 $67 $-1 $205 forward single #
loop $-1 $206 $207 $85 #
cone-surface $-1 70.189736746482566 33.203303142998173 10.150988843398761 -0.87461971476443456 0 -0.48480960649040278 0.48480960649040278 0 -0.87461971476443456 1 I I 0 1 1 forward I I I I #
face $-1 $208 $209 $68 $-1 $210 reversed single #
loop $-1 $-1 $211 $86 #
plane-surface $-1 -164.96543818497622 -8.7611997119276701 136.36547458657347 0 1 0 -0.5877852598018023 0 0.80901698891910034 forward_v I I I I #
face $-1 $212 $213 $69 $-1 $214 forward single #
loop $-1 $215 $216 $87 #
cone-surface $-1 -71.205665048705143 -5.5915692762185714 14.524909661442551 0.5877852598018023 0 -0.80901698891910034 1.2135254833786506 0 0.88167788970270344 1 I I 0 1 1.5 forward I I I I #
face $-1 $217 $218 $70 $-1 $219 forward single #
loop $-1 $220 $221 $88 #
cone-surface $-1 -71.205665048705143 -0.83712362265492146 14.524909661442551 0.5877852598018023 0 -0.80901698891910034 1.2135254833786506 0 0.88167788970270344 1 I I 0 1 1.5 forward I I I I #
face $-1 $222 $223 $71 $-1 $224 forward single #
loop $-1 $225 $226 $89 #
cone-surface $-1 -71.205665048705143 3.9173220309087284 14.524909661442551 0.5877852598018023 0 -0.80901698891910034 1.2135254833786506 0 0.88167788970270344 1 I I 0 1 1.5 forward I I I I #
face $-1 $227 $228 $54 $-1 $229 reversed single #
loop $-1 $-1 $230 $90 #
plane-surface $-1 0 0 -18.657044982406607 0 0 1 1 0 0 forward_v I I I I #
coedge $-1 $231 $232 $233 $234 forward $91 $-1 #
face $-1 $235 $236 $55 $-1 $237 reversed single #
loop $-1 $-1 $238 $93 #
plane-surface $-1 0 -25.186559480123954 -13.83771167647113 0 -1 0 0 0 -1 forward_v I I I I #
coedge $-1 $239 $240 $241 $242 reversed $94 $-1 #
face $-1 $243 $244 $56 $-1 $245 reversed single #
loop $-1 $-1 $246 $96 #
plane-surface $-1 2.303662325751219 -15.557663214998321 135.75808384342668 0.87461971476443456 0 0.48480960649040278 0.48480960649040278 0 -0.87461971476443456 forward_v I I I I #
coedge $-1 $247 $248 $249 $250 reversed $97 $-1 #
face $-1 $-1 $251 $57 $-1 $252 forward single #
loop $-1 $253 $254 $99 #
cone-surface $-1 68.422106466907223 -17.35568447149862 9.1711754161514101 -0.87461971476443456 0 -0.48480960649040278 0.24240480324520139 0 -0.43730985738221728 1 I I -0.70710678118654746 0.70710678118654746 0.5 forward I I I I #
loop $-1 $-1 $255 $75 #
coedge $-1 $160 $160 $256 $257 reversed $100 $-1 #
face $-1 $-1 $258 $58 $-1 $259 forward single #
loop $-1 $260 $261 $102 #
cone-surface $-1 68.422106466907223 -13.759641958498019 9.1711754161514101 -0.87461971476443456 0 -0.48480960649040278 0.24240480324520139 0 -0.43730985738221728 1 I I -0.70710678118654746 0.70710678118654746 0.5 forward I I I I #
loop $-1 $-1 $262 $76 #
coedge $-1 $165 $165 $263 $264 reversed $103 $-1 #
face $-1 $265 $266 $59 $-1 $267 reversed single #
loop $-1 $-1 $268 $105 #
plane-surface $-1 2.303662325751219 0.096651818833741743 135.75808384342668 0.87461971476443456 0 0.48480960649040278 0.48480960649040278 0 -0.87461971476443456 forward_v I I I I #
coedge $-1 $269 $270 $271 $272 reversed $106 $-1 #
face $-1 $-1 $273 $60 $-1 $274 forward single #
loop $-1 $275 $276 $108 #
cone-surface $-1 68.422106466907223 -1.7013694376665569 9.1711754161514101 -0.87461971476443456 0 -0.48480960649040278 0.24240480324520139 0 -0.43730985738221728 1 I I -0.70710678118654746 0.70710678118654746 0.5 forward I I I I #
loop $-1 $-1 $277 $78 #
coedge $-1 $174 $174 $278 $279 reversed $109 $-1 #
face $-1 $-1 $280 $61 $-1 $281 forward single #
loop $-1 $282 $283 $111 #
cone-surface $-1 68.422106466907223 1.8946730753340475 9.1711754161514101 -0.87461971476443456 0 -0.48480960649040278 0.24240480324520139 0 -0.43730985738221728 1 I I -0.70710678118654746 0.70710678118654746 0.5 forward I I I I #
loop $-1 $-1 $284 $79 #
coedge $-1 $179 $179 $285 $286 reversed $112 $-1 #
face $-1 $287 $288 $62 $-1 $289 reversed single #
loop $-1 $-1 $290 $114 #
plane-surface $-1 2.303662325751219 15.750966852665805 135.75808384342668 0.87461971476443456 0 0.48480960649040278 0.48480960649040278 0 -0.87461971476443456 forward_v I I I I #
coedge $-1 $291 $292 $293 $294 reversed $115 $-1 #
face $-1 $-1 $295 $63 $-1 $296 forward single #
loop $-1 $297 $298 $117 #
cone-surface $-1 68.422106466907223 13.952945596165506 9.1711754161514101 -0.87461971476443456 0 -0.48480960649040278 0.24240480324520139 0 -0.43730985738221728 1 I I -0.70710678118654746 0.70710678118654746 0.5 forward I I I I #
loop $-1 $-1 $299 $81 #
coedge $-1 $188 $188 $300 $301 reversed $118 $-1 #
face $-1 $-1 $302 $64 $-1 $303 forward single #
loop $-1 $304 $305 $120 #
cone-surface $-1 68.422106466907223 17.54898810916611 9.1711754161514101 -0.87461971476443456 0 -0.48480960649040278 0.24240480324520139 0 -0.43730985738221728 1 I I -0.70710678118654746 0.70710678118654746 0.5 forward I I I I #
loop $-1 $-1 $306 $82 #
coedge $-1 $193 $193 $307 $308 reversed $121 $-1 #
face $-1 $309 $310 $65 $-1 $311 reversed single #
loop $-1 $-1 $312 $123 #
plane-surface $-1 2.303662325751219 31.405281886497868 135.75808384342668 0.87461971476443456 0 0.48480960649040278 0.48480960649040278 0 -0.87461971476443456 forward_v I I I I #
coedge $-1 $313 $314 $315 $316 reversed $124 $-1 #
face $-1 $-1 $317 $66 $-1 $318 forward single #
loop $-1 $319 $320 $126 #
cone-surface $-1 68.422106466907223 29.607260629997576 9.1711754161514101 -0.87461971476443456 0 -0.48480960649040278 0.24240480324520139 0 -0.43730985738221728 1 I I -0.70710678118654746 0.70710678118654746 0.5 forward I I I I #
loop $-1 $-1 $321 $84 #
coedge $-1 $202 $202 $322 $323 reversed $127 $-1 #
face $-1 $-1 $324 $67 $-1 $325 forward single #
loop $-1 $326 $327 $129 #
cone-surface $-1 68.422106466907223 33.203303142998173 9.1711754161514101 -0.87461971476443456 0 -0.48480960649040278 0.24240480324520139 0 -0.43730985738221728 1 I I -0.70710678118654746 0.70710678118654746 0.5 forward I I I I #
loop $-1 $-1 $328 $85 #
coedge $-1 $207 $207 $329 $330 reversed $130 $-1 #
face $-1 $331 $332 $68 $-1 $333 reversed single #
loop $-1 $-1 $334 $132 #
plane-surface $-1 -75.826288644062615 -0.83712362265492146 13.675963147113222 -0.5877852598018023 0 0.80901698891910034 0.80901698891910034 0 0.5877852598018023 forward_v I I I I #
coedge $-1 $335 $336 $337 $338 reversed $133 $-1 #
face $-1 $-1 $339 $69 $-1 $340 forward single #
loop $-1 $341 $342 $135 #
cone-surface $-1 -69.572137932827545 -5.5915692762185714 12.276552516435853 0.5877852598018023 0 -0.80901698891910034 0.60676274168932531 0 0.44083894485135172 1 I I -0.70710678118654757 0.70710678118654757 0.75 forward I I I I #
loop $-1 $-1 $343 $87 #
coedge $-1 $216 $216 $344 $345 reversed $136 $-1 #
face $-1 $-1 $346 $70 $-1 $347 forward single #
loop $-1 $348 $349 $138 #
cone-surface $-1 -69.572137932827545 -0.83712362265492146 12.276552516435853 0.5877852598018023 0 -0.80901698891910034 0.60676274168932531 0 0.44083894485135172 1 I I -0.70710678118654757 0.70710678118654757 0.75 forward I I I I #
loop $-1 $-1 $350 $88 #
coedge $-1 $221 $221 $351 $352 reversed $139 $-1 #
face $-1 $-1 $353 $71 $-1 $354 forward single #
loop $-1 $355 $356 $141 #
cone-surface $-1 -69.572137932827545 3.9173220309087284 12.276552516435853 0.5877852598018023 0 -0.80901698891910034 0.60676274168932531 0 0.44083894485135172 1 I I -0.70710678118654757 0.70710678118654757 0.75 forward I I I I #
loop $-1 $-1 $357 $89 #
coedge $-1 $226 $226 $358 $359 reversed $142 $-1 #
face $-1 $360 $361 $54 $-1 $362 reversed single #
loop $-1 $-1 $363 $144 #
plane-surface $-1 0 -41.0341781516235 0 0 1 0 0 0 1 forward_v I I I I #
coedge $-1 $364 $365 $366 $367 forward $145 $-1 #
coedge $-1 $368 $147 $369 $370 forward $91 $-1 #
coedge $-1 $147 $368 $371 $372 forward $91 $-1 #
coedge $-1 $373 $374 $147 $234 reversed $375 $-1 #
edge $-1 $376 -41.0341781516235 $377 41.0341781516235 $233 $378 forward 7 unknown #
face $-1 $379 $380 $55 $-1 $381 reversed single #
loop $-1 $-1 $382 $148 #
plane-surface $-1 0 0 -18.657044982406607 0 0 1 1 0 0 forward_v I I I I #
coedge $-1 $383 $384 $385 $386 reversed $149 $-1 #
coedge $-1 $387 $151 $384 $388 forward $94 $-1 #
coedge $-1 $151 $387 $389 $390 reversed $94 $-1 #
coedge $-1 $391 $385 $151 $242 forward $380 $-1 #
edge $-1 $392 8.6313750721870903 $393 24.478993743686637 $241 $394 forward 7 unknown #
face $-1 $395 $396 $56 $-1 $397 reversed single #
loop $-1 $-1 $398 $152 #
plane-surface $-1 134.94199621678271 -19.753046146832354 209.28071016173809 0 1 0 0.87461971476443456 0 0.48480960649040278 forward_v I I I I #
coedge $-1 $399 $400 $401 $402 reversed $153 $-1 #
coedge $-1 $248 $155 $403 $404 reversed $97 $-1 #
coedge $-1 $155 $247 $399 $405 reversed $97 $-1 #
coedge $-1 $401 $406 $155 $250 forward $407 $-1 #
edge $-1 $408 -8.3552905356712728 $409 0.25717241510263023 $249 $410 forward 7 unknown #
loop $-1 $-1 $256 $156 #
plane-surface $-1 2.303662325751219 -15.557663214998321 135.75808384342668 0.87461971476443456 0 0.48480960649040278 0.48480960649040278 0 -0.87461971476443456 forward_v I I I I #
loop $-1 $-1 $411 $99 #
coedge $-1 $254 $254 $255 $412 reversed $157 $-1 #
coedge $-1 $255 $255 $254 $412 forward $159 $-1 #
coedge $-1 $256 $256 $160 $257 forward $251 $-1 #
edge $-1 $413 0 $413 6.2831853071796004 $256 $414 forward 7 unknown #
loop $-1 $-1 $263 $161 #
plane-surface $-1 2.303662325751219 -15.557663214998321 135.75808384342668 0.87461971476443456 0 0.48480960649040278 0.48480960649040278 0 -0.87461971476443456 forward_v I I I I #
loop $-1 $-1 $415 $102 #
coedge $-1 $261 $261 $262 $416 reversed $162 $-1 #
coedge $-1 $262 $262 $261 $416 forward $164 $-1 #
coedge $-1 $263 $263 $165 $264 forward $258 $-1 #
edge $-1 $417 0 $417 6.2831853071796004 $263 $418 forward 7 unknown #
face $-1 $419 $420 $59 $-1 $421 reversed single #
loop $-1 $-1 $422 $166 #
plane-surface $-1 134.94199621678271 -4.0987311130002908 209.28071016173809 0 1 0 0.87461971476443456 0 0.48480960649040278 forward_v I I I I #
coedge $-1 $423 $424 $425 $426 reversed $167 $-1 #
coedge $-1 $270 $169 $427 $428 reversed $106 $-1 #
coedge $-1 $169 $269 $423 $429 reversed $106 $-1 #
coedge $-1 $425 $430 $169 $272 forward $431 $-1 #
edge $-1 $432 -8.3552905356712728 $433 0.25717241510263023 $271 $434 forward 7 unknown #
loop $-1 $-1 $278 $170 #
plane-surface $-1 2.303662325751219 0.096651818833741743 135.75808384342668 0.87461971476443456 0 0.48480960649040278 0.48480960649040278 0 -0.87461971476443456 forward_v I I I I #
loop $-1 $-1 $435 $108 #
coedge $-1 $276 $276 $277 $436 reversed $171 $-1 #
coedge $-1 $277 $277 $276 $436 forward $173 $-1 #
coedge $-1 $278 $278 $174 $279 forward $273 $-1 #
edge $-1 $437 0 $437 6.2831853071796004 $278 $438 forward 7 unknown #
loop $-1 $-1 $285 $175 #
plane-surface $-1 2.303662325751219 0.096651818833741743 135.75808384342668 0.87461971476443456 0 0.48480960649040278 0.48480960649040278 0 -0.87461971476443456 forward_v I I I I #
loop $-1 $-1 $439 $111 #
coedge $-1 $283 $283 $284 $440 reversed $176 $-1 #
coedge $-1 $284 $284 $283 $440 forward $178 $-1 #
coedge $-1 $285 $285 $179 $286 forward $280 $-1 #
edge $-1 $441 0 $441 6.2831853071796004 $285 $442 forward 7 unknown #
face $-1 $443 $444 $62 $-1 $445 reversed single #
loop $-1 $-1 $446 $180 #
plane-surface $-1 134.94199621678271 11.555583920831772 209.28071016173809 0 1 0 0.87461971476443456 0 0.48480960649040278 forward_v I I I I #
coedge $-1 $447 $448 $449 $450 reversed $181 $-1 #
coedge $-1 $292 $183 $451 $452 reversed $115 $-1 #
coedge $-1 $183 $291 $447 $453 reversed $115 $-1 #
coedge $-1 $449 $454 $183 $294 forward $455 $-1 #
edge $-1 $456 -8.3552905356712728 $457 0.25717241510263023 $293 $458 forward 7 unknown #
loop $-1 $-1 $300 $184 #
plane-surface $-1 2.303662325751219 15.750966852665805 135.75808384342668 0.87461971476443456 0 0.48480960649040278 0.48480960649040278 0 -0.87461971476443456 forward_v I I I I #
loop $-1 $-1 $459 $117 #
coedge $-1 $298 $298 $299 $460 reversed $185 $-1 #
coedge $-1 $299 $299 $298 $460 forward $187 $-1 #
coedge $-1 $300 $300 $188 $301 forward $295 $-1 #
edge $-1 $461 0 $461 6.2831853071796004 $300 $462 forward 7 unknown #
loop $-1 $-1 $307 $189 #
plane-surface $-1 2.303662325751219 15.750966852665805 135.75808384342668 0.87461971476443456 0 0.48480960649040278 0.48480960649040278 0 -0.87461971476443456 forward_v I I I I #
loop $-1 $-1 $463 $120 #
coedge $-1 $305 $305 $306 $464 reversed $190 $-1 #
coedge $-1 $306 $306 $305 $464 forward $192 $-1 #
coedge $-1 $307 $307 $193 $308 forward $302 $-1 #
edge $-1 $465 0 $465 6.2831853071796004 $307 $466 forward 7 unknown #
face $-1 $467 $468 $65 $-1 $469 reversed single #
loop $-1 $-1 $470 $194 #
plane-surface $-1 134.94199621678271 27.209898954663835 209.28071016173809 0 1 0 0.87461971476443456 0 0.48480960649040278 forward_v I I I I #
coedge $-1 $471 $472 $473 $474 reversed $195 $-1 #
coedge $-1 $314 $197 $475 $476 reversed $124 $-1 #
coedge $-1 $197 $313 $471 $477 reversed $124 $-1 #
coedge $-1 $473 $478 $197 $316 forward $479 $-1 #
edge $-1 $480 -8.3552905356712728 $481 0.25717241510263023 $315 $482 forward 7 unknown #
loop $-1 $-1 $322 $198 #
plane-surface $-1 2.303662325751219 31.405281886497868 135.75808384342668 0.87461971476443456 0 0.48480960649040278 0.48480960649040278 0 -0.87461971476443456 forward_v I I I I #
loop $-1 $-1 $483 $126 #
coedge $-1 $320 $320 $321 $484 reversed $199 $-1 #
coedge $-1 $321 $321 $320 $484 forward $201 $-1 #
coedge $-1 $322 $322 $202 $323 forward $317 $-1 #
edge $-1 $485 0 $485 6.2831853071796004 $322 $486 forward 7 unknown #
loop $-1 $-1 $329 $203 #
plane-surface $-1 2.303662325751219 31.405281886497868 135.75808384342668 0.87461971476443456 0 0.48480960649040278 0.48480960649040278 0 -0.87461971476443456 forward_v I I I I #
loop $-1 $-1 $487 $129 #
coedge $-1 $327 $327 $328 $488 reversed $204 $-1 #
coedge $-1 $328 $328 $327 $488 forward $206 $-1 #
coedge $-1 $329 $329 $207 $330 forward $324 $-1 #
edge $-1 $489 0 $489 6.2831853071796004 $329 $490 forward 7 unknown #
face $-1 $491 $492 $68 $-1 $493 forward single #
loop $-1 $-1 $494 $208 #
plane-surface $-1 -164.96543818497622 7.0869524666178272 136.36547458657347 0 -1 0 0.5877852598018023 0 -0.80901698891910034 forward_v I I I I #
coedge $-1 $495 $496 $497 $498 reversed $209 $-1 #
coedge $-1 $336 $211 $499 $500 reversed $133 $-1 #
coedge $-1 $211 $335 $495 $501 reversed $133 $-1 #
coedge $-1 $497 $502 $211 $338 forward $492 $-1 #
edge $-1 $503 6.6564304484254819 $504 13.512301297087973 $337 $505 forward 7 unknown #
loop $-1 $-1 $344 $212 #
plane-surface $-1 -75.826288644062615 -0.83712362265492146 13.675963147113222 -0.5877852598018023 0 0.80901698891910034 0.80901698891910034 0 0.5877852598018023 forward_v I I I I #
loop $-1 $-1 $506 $135 #
coedge $-1 $342 $342 $343 $507 reversed $213 $-1 #
coedge $-1 $343 $343 $342 $507 forward $215 $-1 #
coedge $-1 $344 $344 $216 $345 forward $339 $-1 #
edge $-1 $508 0 $508 6.2831853071796004 $344 $509 forward 7 unknown #
loop $-1 $-1 $351 $217 #
plane-surface $-1 -75.826288644062615 -0.83712362265492146 13.675963147113222 -0.5877852598018023 0 0.80901698891910034 0.80901698891910034 0 0.5877852598018023 forward_v I I I I #
loop $-1 $-1 $510 $138 #
coedge $-1 $349 $349 $350 $511 reversed $218 $-1 #
coedge $-1 $350 $350 $349 $511 forward $220 $-1 #
coedge $-1 $351 $351 $221 $352 forward $346 $-1 #
edge $-1 $512 0 $512 6.2831853071796004 $351 $513 forward 7 unknown #
loop $-1 $-1 $358 $222 #
plane-surface $-1 -75.826288644062615 -0.83712362265492146 13.675963147113222 -0.5877852598018023 0 0.80901698891910034 0.80901698891910034 0 0.5877852598018023 forward_v I I I I #
loop $-1 $-1 $514 $141 #
coedge $-1 $356 $356 $357 $515 reversed $223 $-1 #
coedge $-1 $357 $357 $356 $515 forward $225 $-1 #
coedge $-1 $358 $358 $226 $359 forward $353 $-1 #
edge $-1 $516 0 $516 6.2831853071796004 $358 $517 forward 7 unknown #
face $-1 $518 $519 $54 $-1 $520 reversed single #
loop $-1 $-1 $521 $227 #
plane-surface $-1 -75.826288644062629 0 0 1 0 0 0 0 -1 forward_v I I I I #
coedge $-1 $522 $371 $523 $524 forward $228 $-1 #
coedge $-1 $525 $230 $522 $526 forward $145 $-1 #
coedge $-1 $230 $525 $527 $528 forward $145 $-1 #
coedge $-1 $374 $373 $230 $367 reversed $375 $-1 #
edge $-1 $529 -41.0341781516235 $530 41.0341781516235 $366 $531 forward 7 unknown #
coedge $-1 $232 $231 $532 $533 forward $91 $-1 #
coedge $-1 $534 $535 $231 $370 reversed $519 $-1 #
edge $-1 $377 -75.826288644062629 $536 75.826288644062629 $369 $537 forward 7 unknown #
coedge $-1 $363 $538 $232 $372 reversed $228 $-1 #
edge $-1 $539 -75.826288644062629 $376 75.826288644062629 $371 $540 forward 7 unknown #
coedge $-1 $366 $233 $538 $541 forward $375 $-1 #
coedge $-1 $233 $366 $534 $542 reversed $375 $-1 #
loop $-1 $-1 $373 $518 #
vertex $-1 $234 $543 #
vertex $-1 $234 $544 #
straight-curve $-1 75.826288644062629 0 18.657044982406607 0 1 0 I I #
face $-1 $545 $546 $55 $-1 $547 reversed single #
loop $-1 $-1 $385 $235 #
plane-surface $-1 75.826288644062629 0 0 -1 0 0 0 0 1 forward_v I I I I #
coedge $-1 $548 $549 $383 $550 forward $236 $-1 #
coedge $-1 $551 $238 $382 $550 reversed $149 $-1 #
coedge $-1 $238 $551 $239 $388 reversed $149 $-1 #
coedge $-1 $241 $552 $238 $386 forward $380 $-1 #
edge $-1 $553 -11.738189144171042 $392 -2.0995225323000888 $385 $554 forward 7 unknown #
coedge $-1 $240 $239 $555 $556 reversed $94 $-1 #
edge $-1 $392 -75.826288644062629 $557 75.826288644062629 $384 $558 forward 7 unknown #
coedge $-1 $559 $560 $240 $390 forward $546 $-1 #
edge $-1 $393 -75.826288644062629 $561 75.826288644062629 $389 $562 forward 7 unknown #
coedge $-1 $552 $241 $560 $563 forward $380 $-1 #
vertex $-1 $242 $564 #
vertex $-1 $563 $565 #
straight-curve $-1 75.826288644062629 -16.555184407936864 -9.0183783705356539 0 -1 0 I I #
face $-1 $-1 $407 $56 $-1 $566 forward single #
loop $-1 $-1 $567 $243 #
plane-surface $-1 75.826288644062629 0 0 -1 0 0 0 0 1 forward_v I I I I #
coedge $-1 $568 $569 $570 $571 reversed $244 $-1 #
coedge $-1 $572 $246 $248 $405 forward $153 $-1 #
coedge $-1 $246 $572 $568 $573 forward $153 $-1 #
coedge $-1 $570 $249 $246 $402 forward $407 $-1 #
edge $-1 $409 3.583448675665128 $574 11.974214539333193 $401 $575 forward 7 unknown #
coedge $-1 $576 $577 $247 $404 forward $396 $-1 #
edge $-1 $578 -101.52060512847386 $408 -85.983310098462439 $403 $579 forward 7 unknown #
edge $-1 $409 133.88794796668796 $578 151.65257728812529 $248 $580 forward 7 unknown #
coedge $-1 $249 $570 $576 $581 forward $407 $-1 #
loop $-1 $-1 $570 $395 #
vertex $-1 $404 $582 #
vertex $-1 $250 $583 #
straight-curve $-1 67.470998108391356 -11.362280283164289 18.657044982406603 -1 0 0 I I #
coedge $-1 $411 $411 $-1 $584 reversed $253 $-1 #
edge $-1 $585 0 $585 6.2831853071796004 $254 $586 forward 7 unknown #
vertex $-1 $257 $587 #
ellipse-curve $-1 71.520057168675663 -17.35568447149862 10.8883974674009 0.87461971476443456 0 0.48480960649040278 0.48480960649040278 0 -0.87461971476443456 1 I I #
coedge $-1 $415 $415 $-1 $588 reversed $260 $-1 #
edge $-1 $589 0 $589 6.2831853071796004 $261 $590 forward 7 unknown #
vertex $-1 $264 $591 #
ellipse-curve $-1 71.520057168675663 -13.759641958498019 10.8883974674009 0.87461971476443456 0 0.48480960649040278 0.48480960649040278 0 -0.87461971476443456 1 I I #
face $-1 $-1 $431 $59 $-1 $592 forward single #
loop $-1 $-1 $593 $265 #
plane-surface $-1 75.826288644062629 0 0 -1 0 0 0 0 1 forward_v I I I I #
coedge $-1 $594 $595 $596 $597 reversed $266 $-1 #
coedge $-1 $598 $268 $270 $429 forward $167 $-1 #
coedge $-1 $268 $598 $594 $599 forward $167 $-1 #
coedge $-1 $596 $271 $268 $426 forward $431 $-1 #
edge $-1 $433 -4.2437088412509034 $600 4.1470570224171617 $425 $601 forward 7 unknown #
coedge $-1 $602 $603 $269 $428 forward $420 $-1 #
edge $-1 $604 -101.52060512847386 $432 -85.983310098462439 $427 $605 forward 7 unknown #
edge $-1 $433 133.88794796668796 $604 151.65257728812529 $270 $606 forward 7 unknown #
coedge $-1 $271 $596 $602 $607 forward $431 $-1 #
loop $-1 $-1 $596 $419 #
vertex $-1 $428 $608 #
vertex $-1 $272 $609 #
straight-curve $-1 67.470998108391356 4.2920347506677743 18.657044982406603 -1 0 0 I I #
coedge $-1 $435 $435 $-1 $610 reversed $275 $-1 #
edge $-1 $611 0 $611 6.2831853071796004 $276 $612 forward 7 unknown #
vertex $-1 $279 $613 #
ellipse-curve $-1 71.520057168675663 -1.7013694376665569 10.8883974674009 0.87461971476443456 0 0.48480960649040278 0.48480960649040278 0 -0.87461971476443456 1 I I #
coedge $-1 $439 $439 $-1 $614 reversed $282 $-1 #
edge $-1 $615 0 $615 6.2831853071796004 $283 $616 forward 7 unknown #
vertex $-1 $286 $617 #
ellipse-curve $-1 71.520057168675663 1.8946730753340475 10.8883974674009 0.87461971476443456 0 0.48480960649040278 0.48480960649040278 0 -0.87461971476443456 1 I I #
face $-1 $-1 $455 $62 $-1 $618 forward single #
loop $-1 $-1 $619 $287 #
plane-surface $-1 75.826288644062629 0 0 -1 0 0 0 0 1 forward_v I I I I #
coedge $-1 $620 $621 $622 $623 reversed $288 $-1 #
coedge $-1 $624 $290 $292 $453 forward $181 $-1 #
coedge $-1 $290 $624 $620 $625 forward $181 $-1 #
coedge $-1 $622 $293 $290 $450 forward $455 $-1 #
edge $-1 $457 -12.070866358166935 $626 -3.6801004944988698 $449 $627 forward 7 unknown #
coedge $-1 $628 $629 $291 $452 forward $444 $-1 #
edge $-1 $630 -101.52060512847386 $456 -85.983310098462439 $451 $631 forward 7 unknown #
edge $-1 $457 133.88794796668796 $630 151.65257728812529 $292 $632 forward 7 unknown #
coedge $-1 $293 $622 $628 $633 forward $455 $-1 #
loop $-1 $-1 $622 $443 #
vertex $-1 $452 $634 #
vertex $-1 $294 $635 #
straight-curve $-1 67.470998108391356 19.946349784499837 18.657044982406603 -1 0 0 I I #
coedge $-1 $459 $459 $-1 $636 reversed $297 $-1 #
edge $-1 $637 0 $637 6.2831853071796004 $298 $638 forward 7 unknown #
vertex $-1 $301 $639 #
ellipse-curve $-1 71.520057168675663 13.952945596165506 10.8883974674009 0.87461971476443456 0 0.48480960649040278 0.48480960649040278 0 -0.87461971476443456 1 I I #
coedge $-1 $463 $463 $-1 $640 reversed $304 $-1 #
edge $-1 $641 0 $641 6.2831853071796004 $305 $642 forward 7 unknown #
vertex $-1 $308 $643 #
ellipse-curve $-1 71.520057168675663 17.54898810916611 10.8883974674009 0.87461971476443456 0 0.48480960649040278 0.48480960649040278 0 -0.87461971476443456 1 I I #
face $-1 $-1 $479 $65 $-1 $644 forward single #
loop $-1 $-1 $645 $309 #
plane-surface $-1 75.826288644062629 0 0 -1 0 0 0 0 1 forward_v I I I I #
coedge $-1 $646 $647 $648 $649 reversed $310 $-1 #
coedge $-1 $650 $312 $314 $477 forward $195 $-1 #
coedge $-1 $312 $650 $646 $651 forward $195 $-1 #
coedge $-1 $648 $315 $312 $474 forward $479 $-1 #
edge $-1 $481 -19.898023875082966 $652 -11.507258011414901 $473 $653 forward 7 unknown #
coedge $-1 $654 $655 $313 $476 forward $468 $-1 #
edge $-1 $656 -101.52060512847386 $480 -85.983310098462439 $475 $657 forward 7 unknown #
edge $-1 $481 133.88794796668796 $656 151.65257728812529 $314 $658 forward 7 unknown #
coedge $-1 $315 $648 $654 $659 forward $479 $-1 #
loop $-1 $-1 $648 $467 #
vertex $-1 $476 $660 #
vertex $-1 $316 $661 #
straight-curve $-1 67.470998108391356 35.6006648183319 18.657044982406603 -1 0 0 I I #
coedge $-1 $483 $483 $-1 $662 reversed $319 $-1 #
edge $-1 $663 0 $663 6.2831853071796004 $320 $664 forward 7 unknown #
vertex $-1 $323 $665 #
ellipse-curve $-1 71.520057168675663 29.607260629997576 10.8883974674009 0.87461971476443456 0 0.48480960649040278 0.48480960649040278 0 -0.87461971476443456 1 I I #
coedge $-1 $487 $487 $-1 $666 reversed $326 $-1 #
edge $-1 $667 0 $667 6.2831853071796004 $327 $668 forward 7 unknown #
vertex $-1 $330 $669 #
ellipse-curve $-1 71.520057168675663 33.203303142998173 10.8883974674009 0.87461971476443456 0 0.48480960649040278 0.48480960649040278 0 -0.87461971476443456 1 I I #
face $-1 $-1 $670 $68 $-1 $671 reversed single #
loop $-1 $-1 $337 $331 #
plane-surface $-1 0 0 18.657044982406607 0 0 1 1 0 0 forward_v I I I I #
coedge $-1 $672 $673 $674 $675 reversed $332 $-1 #
coedge $-1 $676 $334 $336 $501 forward $209 $-1 #
coedge $-1 $334 $676 $672 $677 forward $209 $-1 #
coedge $-1 $674 $337 $334 $498 forward $492 $-1 #
edge $-1 $504 -8.3426379006002094 $678 7.5055142779452879 $497 $679 forward 7 unknown #
coedge $-1 $680 $681 $335 $500 forward $670 $-1 #
edge $-1 $682 -54.506774146173527 $503 -49.525692310880132 $499 $683 forward 7 unknown #
edge $-1 $504 -8.4743224710551139 $682 1.7761521089745031e-014 $336 $684 forward 7 unknown #
coedge $-1 $337 $674 $680 $685 forward $492 $-1 #
vertex $-1 $500 $686 #
vertex $-1 $338 $687 #
straight-curve $-1 -82.482719092488111 -8.7611997119276701 18.657044982406603 1 0 0 I I #
coedge $-1 $506 $506 $-1 $688 reversed $341 $-1 #
edge $-1 $689 0 $689 6.2831853071796004 $342 $690 forward 7 unknown #
vertex $-1 $345 $691 #
ellipse-curve $-1 -72.398353219731376 -5.5915692762185714 16.166504064759909 -0.5877852598018023 0 0.80901698891910034 1.2135254833786506 0 0.88167788970270344 1 I I #
coedge $-1 $510 $510 $-1 $692 reversed $348 $-1 #
edge $-1 $693 0 $693 6.2831853071796004 $349 $694 forward 7 unknown #
vertex $-1 $352 $695 #
ellipse-curve $-1 -72.398353219731376 -0.83712362265492146 16.166504064759909 -0.5877852598018023 0 0.80901698891910034 1.2135254833786506 0 0.88167788970270344 1 I I #
coedge $-1 $514 $514 $-1 $696 reversed $355 $-1 #
edge $-1 $697 0 $697 6.2831853071796004 $356 $698 forward 7 unknown #
vertex $-1 $359 $699 #
ellipse-curve $-1 -72.398353219731376 3.9173220309087284 16.166504064759909 -0.5877852598018023 0 0.80901698891910034 1.2135254833786506 0 0.88167788970270344 1 I I #
face $-1 $-1 $375 $54 $-1 $700 reversed single #
loop $-1 $-1 $534 $360 #
plane-surface $-1 0 41.0341781516235 0 0 -1 0 0 0 -1 forward_v I I I I #
coedge $-1 $701 $532 $535 $702 forward $361 $-1 #
coedge $-1 $538 $363 $364 $526 reversed $228 $-1 #
coedge $-1 $532 $701 $363 $524 reversed $361 $-1 #
edge $-1 $539 -18.657044982406607 $703 18.657044982406607 $523 $704 forward 7 unknown #
coedge $-1 $365 $364 $701 $705 forward $145 $-1 #
edge $-1 $530 -75.826288644062629 $703 75.826288644062629 $522 $706 forward 7 unknown #
coedge $-1 $535 $534 $365 $528 reversed $519 $-1 #
edge $-1 $707 -75.826288644062629 $529 75.826288644062629 $527 $708 forward 7 unknown #
vertex $-1 $367 $709 #
vertex $-1 $541 $710 #
straight-curve $-1 75.826288644062629 0 -18.657044982406607 0 -1 0 I I #
coedge $-1 $521 $523 $368 $533 reversed $361 $-1 #
edge $-1 $536 -41.0341781516235 $539 41.0341781516235 $532 $711 forward 7 unknown #
coedge $-1 $527 $369 $374 $542 forward $519 $-1 #
coedge $-1 $369 $527 $521 $702 reversed $519 $-1 #
vertex $-1 $370 $712 #
straight-curve $-1 0 41.0341781516235 18.657044982406607 -1 0 0 I I #
coedge $-1 $371 $522 $373 $541 reversed $228 $-1 #
vertex $-1 $533 $713 #
straight-curve $-1 0 -41.0341781516235 18.657044982406607 1 0 0 I I #
edge $-1 $376 -18.657044982406607 $530 18.657044982406607 $373 $714 forward 7 unknown #
edge $-1 $377 -18.657044982406607 $529 18.657044982406607 $374 $715 forward 7 unknown #
point $-1 75.826288644062629 -41.0341781516235 18.657044982406607 #
point $-1 75.826288644062629 41.0341781516235 18.657044982406607 #
face $-1 $-1 $716 $55 $-1 $717 reversed single #
loop $-1 $-1 $389 $379 #
plane-surface $-1 0 -41.0341781516235 0 0 1 0 0 0 1 forward_v I I I I #
coedge $-1 $718 $382 $552 $719 forward $236 $-1 #
coedge $-1 $382 $718 $720 $721 forward $236 $-1 #
edge $-1 $722 -75.826288644062629 $553 75.826288644062629 $382 $723 forward 7 unknown #
coedge $-1 $384 $383 $724 $725 reversed $149 $-1 #
coedge $-1 $385 $391 $548 $719 reversed $380 $-1 #
vertex $-1 $719 $726 #
straight-curve $-1 75.826288644062629 -25.186559480123954 -6.9188558382355652 0 0 1 I I #
coedge $-1 $724 $727 $387 $556 forward $716 $-1 #
edge $-1 $561 -24.478993743686637 $557 -8.6313750721870903 $555 $728 forward 7 unknown #
vertex $-1 $556 $729 #
straight-curve $-1 0 -25.186559480123954 -9.0183783705356539 -1 0 0 I I #
coedge $-1 $730 $389 $727 $731 forward $546 $-1 #
coedge $-1 $389 $730 $391 $563 reversed $546 $-1 #
vertex $-1 $731 $732 #
straight-curve $-1 0 -41.0341781516235 -9.0183783705356539 -1 0 0 I I #
edge $-1 $393 9.0183783705356539 $733 18.657044982406607 $391 $734 forward 7 unknown #
point $-1 75.826288644062629 -25.186559480123954 -9.0183783705356539 #
point $-1 75.826288644062629 -41.0341781516235 -9.0183783705356539 #
plane-surface $-1 0 0 18.657044982406607 0 0 1 1 0 0 forward_v I I I I #
coedge $-1 $577 $576 $569 $735 forward $396 $-1 #
coedge $-1 $569 $398 $400 $573 reversed $244 $-1 #
coedge $-1 $398 $568 $567 $735 reversed $244 $-1 #
coedge $-1 $406 $401 $398 $571 forward $407 $-1 #
edge $-1 $574 -0.25717241510263023 $736 8.3552905356712728 $570 $737 forward 7 unknown #
coedge $-1 $400 $399 $577 $738 reversed $153 $-1 #
edge $-1 $739 -151.65257728812529 $574 -133.88794796668796 $568 $740 forward 7 unknown #
vertex $-1 $402 $741 #
straight-curve $-1 67.213825693288726 -7.7788316074991606 18.657044982406603 0 -1 0 I I #
coedge $-1 $567 $403 $406 $581 reversed $396 $-1 #
coedge $-1 $403 $567 $572 $738 forward $396 $-1 #
vertex $-1 $404 $742 #
straight-curve $-1 75.826288644062629 -11.362280283164289 104.64035508086904 0 0 1 I I #
straight-curve $-1 2.303662325751219 -11.362280283164289 135.75808384342668 0.48480960649040278 0 -0.87461971476443456 I I #
edge $-1 $736 -19.753046146832354 $408 -11.362280283164289 $576 $743 forward 7 unknown #
point $-1 75.826288644062629 -11.362280283164289 18.657044982406607 #
point $-1 67.213825693288726 -11.362280283164289 18.657044982406589 #
edge $-1 $744 1 $744 0 $411 $-1 forward 7 unknown #
vertex $-1 $412 $745 #
ellipse-curve $-1 68.859416324289441 -17.35568447149862 9.4135802193966107 0.87461971476443456 0 0.48480960649040278 0.48480960649040278 0 -0.87461971476443456 1 I I #
point $-1 72.004866775166093 -17.35568447149862 10.013777752636475 #
edge $-1 $746 1 $746 0 $415 $-1 forward 7 unknown #
vertex $-1 $416 $747 #
ellipse-curve $-1 68.859416324289441 -13.759641958498019 9.4135802193966107 0.87461971476443456 0 0.48480960649040278 0.48480960649040278 0 -0.87461971476443456 1 I I #
point $-1 72.004866775166093 -13.759641958498019 10.013777752636475 #
plane-surface $-1 0 0 18.657044982406607 0 0 1 1 0 0 forward_v I I I I #
coedge $-1 $603 $602 $595 $748 forward $420 $-1 #
coedge $-1 $595 $422 $424 $599 reversed $266 $-1 #
coedge $-1 $422 $594 $593 $748 reversed $266 $-1 #
coedge $-1 $430 $425 $422 $597 forward $431 $-1 #
edge $-1 $600 -0.25717241510263023 $749 8.3552905356712728 $596 $750 forward 7 unknown #
coedge $-1 $424 $423 $603 $751 reversed $167 $-1 #
edge $-1 $752 -151.65257728812529 $600 -133.88794796668796 $594 $753 forward 7 unknown #
vertex $-1 $426 $754 #
straight-curve $-1 67.213825693288726 0.048325909416870871 18.657044982406603 0 -1 0 I I #
coedge $-1 $593 $427 $430 $607 reversed $420 $-1 #
coedge $-1 $427 $593 $598 $751 forward $420 $-1 #
vertex $-1 $428 $755 #
straight-curve $-1 75.826288644062629 4.2920347506677743 104.64035508086904 0 0 1 I I #
straight-curve $-1 2.303662325751219 4.2920347506677743 135.75808384342668 0.48480960649040278 0 -0.87461971476443456 I I #
edge $-1 $749 -4.0987311130002908 $432 4.2920347506677743 $602 $756 forward 7 unknown #
point $-1 75.826288644062629 4.2920347506677743 18.657044982406607 #
point $-1 67.213825693288726 4.2920347506677743 18.657044982406589 #
edge $-1 $757 1 $757 0 $435 $-1 forward 7 unknown #
vertex $-1 $436 $758 #
ellipse-curve $-1 68.859416324289441 -1.7013694376665569 9.4135802193966107 0.87461971476443456 0 0.48480960649040278 0.48480960649040278 0 -0.87461971476443456 1 I I #
point $-1 72.004866775166093 -1.7013694376665569 10.013777752636475 #
edge $-1 $759 1 $759 0 $439 $-1 forward 7 unknown #
vertex $-1 $440 $760 #
ellipse-curve $-1 68.859416324289441 1.8946730753340475 9.4135802193966107 0.87461971476443456 0 0.48480960649040278 0.48480960649040278 0 -0.87461971476443456 1 I I #
point $-1 72.004866775166093 1.8946730753340475 10.013777752636475 #
plane-surface $-1 0 0 18.657044982406607 0 0 1 1 0 0 forward_v I I I I #
coedge $-1 $629 $628 $621 $761 forward $444 $-1 #
coedge $-1 $621 $446 $448 $625 reversed $288 $-1 #
coedge $-1 $446 $620 $619 $761 reversed $288 $-1 #
coedge $-1 $454 $449 $446 $623 forward $455 $-1 #
edge $-1 $626 -0.25717241510263023 $762 8.3552905356712728 $622 $763 forward 7 unknown #
coedge $-1 $448 $447 $629 $764 reversed $181 $-1 #
edge $-1 $765 -151.65257728812529 $626 -133.88794796668796 $620 $766 forward 7 unknown #
vertex $-1 $450 $767 #
straight-curve $-1 67.213825693288726 7.8754834263329023 18.657044982406603 0 -1 0 I I #
coedge $-1 $619 $451 $454 $633 reversed $444 $-1 #
coedge $-1 $451 $619 $624 $764 forward $444 $-1 #
vertex $-1 $452 $768 #
straight-curve $-1 75.826288644062629 19.946349784499837 104.64035508086904 0 0 1 I I #
straight-curve $-1 2.303662325751219 19.946349784499837 135.75808384342668 0.48480960649040278 0 -0.87461971476443456 I I #
edge $-1 $762 11.555583920831772 $456 19.946349784499837 $628 $769 forward 7 unknown #
point $-1 75.826288644062629 19.946349784499837 18.657044982406607 #
point $-1 67.213825693288726 19.946349784499837 18.657044982406589 #
edge $-1 $770 1 $770 0 $459 $-1 forward 7 unknown #
vertex $-1 $460 $771 #
ellipse-curve $-1 68.859416324289441 13.952945596165506 9.4135802193966107 0.87461971476443456 0 0.48480960649040278 0.48480960649040278 0 -0.87461971476443456 1 I I #
point $-1 72.004866775166093 13.952945596165506 10.013777752636475 #
edge $-1 $772 1 $772 0 $463 $-1 forward 7 unknown #
vertex $-1 $464 $773 #
ellipse-curve $-1 68.859416324289441 17.54898810916611 9.4135802193966107 0.87461971476443456 0 0.48480960649040278 0.48480960649040278 0 -0.87461971476443456 1 I I #
point $-1 72.004866775166093 17.54898810916611 10.013777752636475 #
plane-surface $-1 0 0 18.657044982406607 0 0 1 1 0 0 forward_v I I I I #
coedge $-1 $655 $654 $647 $774 forward $468 $-1 #
coedge $-1 $647 $470 $472 $651 reversed $310 $-1 #
coedge $-1 $470 $646 $645 $774 reversed $310 $-1 #
coedge $-1 $478 $473 $470 $649 forward $479 $-1 #
edge $-1 $652 -0.25717241510263023 $775 8.3552905356712728 $648 $776 forward 7 unknown #
coedge $-1 $472 $471 $655 $777 reversed $195 $-1 #
edge $-1 $778 -151.65257728812529 $652 -133.88794796668796 $646 $779 forward 7 unknown #
vertex $-1 $474 $780 #
straight-curve $-1 67.213825693288726 15.702640943248934 18.657044982406603 0 -1 0 I I #
coedge $-1 $645 $475 $478 $659 reversed $468 $-1 #
coedge $-1 $475 $645 $650 $777 forward $468 $-1 #
vertex $-1 $476 $781 #
straight-curve $-1 75.826288644062629 35.6006648183319 104.64035508086904 0 0 1 I I #
straight-curve $-1 2.303662325751219 35.6006648183319 135.75808384342668 0.48480960649040278 0 -0.87461971476443456 I I #
edge $-1 $775 27.209898954663835 $480 35.6006648183319 $654 $782 forward 7 unknown #
point $-1 75.826288644062629 35.6006648183319 18.657044982406607 #
point $-1 67.213825693288726 35.6006648183319 18.657044982406589 #
edge $-1 $783 1 $783 0 $483 $-1 forward 7 unknown #
vertex $-1 $484 $784 #
ellipse-curve $-1 68.859416324289441 29.607260629997576 9.4135802193966107 0.87461971476443456 0 0.48480960649040278 0.48480960649040278 0 -0.87461971476443456 1 I I #
point $-1 72.004866775166093 29.607260629997576 10.013777752636475 #
edge $-1 $785 1 $785 0 $487 $-1 forward 7 unknown #
vertex $-1 $488 $786 #
ellipse-curve $-1 68.859416324289441 33.203303142998173 9.4135802193966107 0.87461971476443456 0 0.48480960649040278 0.48480960649040278 0 -0.87461971476443456 1 I I #
point $-1 72.004866775166093 33.203303142998173 10.013777752636475 #
loop $-1 $-1 $499 $491 #
plane-surface $-1 -75.826288644062629 0 0 1 0 0 0 0 -1 forward_v I I I I #
coedge $-1 $673 $494 $496 $677 reversed $332 $-1 #
coedge $-1 $494 $672 $787 $788 reversed $332 $-1 #
coedge $-1 $502 $497 $494 $675 forward $492 $-1 #
edge $-1 $678 -13.512301297087973 $789 -6.6564304484254819 $674 $790 forward 7 unknown #
coedge $-1 $496 $495 $681 $791 reversed $209 $-1 #
edge $-1 $792 -1.7761521089745031e-014 $678 8.4743224710551139 $672 $793 forward 7 unknown #
vertex $-1 $498 $794 #
straight-curve $-1 -68.970417795400124 -0.41856181132746073 18.657044982406607 0 1 0 I I #
coedge $-1 $787 $499 $502 $685 reversed $670 $-1 #
coedge $-1 $499 $787 $676 $791 forward $670 $-1 #
vertex $-1 $500 $795 #
straight-curve $-1 -75.826288644062629 -8.7611997119276701 68.182737293286735 0 0 1 I I #
straight-curve $-1 -75.826288644062615 -8.7611997119276701 13.675963147113222 -0.80901698891910034 0 -0.5877852598018023 I I #
edge $-1 $789 -7.0869524666178272 $503 8.7611997119276701 $680 $796 forward 7 unknown #
point $-1 -75.826288644062629 -8.7611997119276701 18.657044982406607 #
point $-1 -68.970417795400138 -8.7611997119276701 18.657044982406607 #
edge $-1 $797 1 $797 0 $506 $-1 forward 7 unknown #
vertex $-1 $507 $798 #
ellipse-curve $-1 -70.012976877678895 -5.5915692762185714 12.883315258125178 -0.5877852598018023 0 0.80901698891910034 1.2135254833786506 0 0.88167788970270344 1 I I #
point $-1 -71.184827736352744 -5.5915692762185714 17.048181954462628 #
edge $-1 $799 1 $799 0 $510 $-1 forward 7 unknown #
vertex $-1 $511 $800 #
ellipse-curve $-1 -70.012976877678895 -0.83712362265492146 12.883315258125178 -0.5877852598018023 0 0.80901698891910034 1.2135254833786506 0 0.88167788970270344 1 I I #
point $-1 -71.184827736352744 -0.83712362265492146 17.048181954462628 #
edge $-1 $801 1 $801 0 $514 $-1 forward 7 unknown #
vertex $-1 $515 $802 #
ellipse-curve $-1 -70.012976877678895 3.9173220309087284 12.883315258125178 -0.5877852598018023 0 0.80901698891910034 1.2135254833786506 0 0.88167788970270344 1 I I #
point $-1 -71.184827736352744 3.9173220309087284 17.048181954462628 #
plane-surface $-1 75.826288644062629 0 0 -1 0 0 0 0 1 forward_v I I I I #
coedge $-1 $523 $521 $525 $705 reversed $361 $-1 #
edge $-1 $536 -18.657044982406607 $707 18.657044982406607 $535 $803 forward 7 unknown #
vertex $-1 $705 $804 #
straight-curve $-1 -75.826288644062629 -41.0341781516235 0 0 0 -1 I I #
edge $-1 $703 -41.0341781516235 $707 41.0341781516235 $701 $805 forward 7 unknown #
straight-curve $-1 0 -41.0341781516235 -18.657044982406607 -1 0 0 I I #
vertex $-1 $528 $806 #
straight-curve $-1 0 41.0341781516235 -18.657044982406607 1 0 0 I I #
point $-1 75.826288644062629 41.0341781516235 -18.657044982406607 #
point $-1 75.826288644062629 -41.0341781516235 -18.657044982406607 #
straight-curve $-1 -75.826288644062629 0 18.657044982406607 0 -1 0 I I #
point $-1 -75.826288644062629 41.0341781516235 18.657044982406607 #
point $-1 -75.826288644062629 -41.0341781516235 18.657044982406607 #
straight-curve $-1 75.826288644062629 -41.0341781516235 0 0 0 -1 I I #
straight-curve $-1 75.826288644062629 41.0341781516235 0 0 0 -1 I I #
loop $-1 $-1 $724 $545 #
plane-surface $-1 -75.826288644062629 0 0 1 0 0 0 0 -1 forward_v I I I I #
coedge $-1 $549 $548 $730 $807 forward $236 $-1 #
edge $-1 $553 25.186559480123954 $733 41.0341781516235 $552 $808 forward 7 unknown #
coedge $-1 $727 $724 $549 $721 reversed $716 $-1 #
edge $-1 $809 -41.0341781516235 $722 -25.186559480123954 $720 $810 forward 7 unknown #
vertex $-1 $725 $811 #
straight-curve $-1 0 -25.186559480123954 -18.657044982406607 1 0 0 I I #
coedge $-1 $720 $555 $551 $725 forward $716 $-1 #
edge $-1 $557 2.0995225323000888 $722 11.738189144171042 $724 $812 forward 7 unknown #
point $-1 75.826288644062629 -25.186559480123954 -18.657044982406607 #
coedge $-1 $555 $720 $559 $731 reversed $716 $-1 #
straight-curve $-1 -75.826288644062629 -16.555184407936864 -9.0183783705356539 0 1 0 I I #
point $-1 -75.826288644062629 -25.186559480123954 -9.0183783705356539 #
coedge $-1 $560 $559 $718 $807 reversed $546 $-1 #
edge $-1 $561 9.0183783705356539 $809 18.657044982406607 $727 $813 forward 7 unknown #
point $-1 -75.826288644062629 -41.0341781516235 -9.0183783705356539 #
vertex $-1 $563 $814 #
straight-curve $-1 75.826288644062629 -41.0341781516235 0 0 0 -1 I I #
edge $-1 $736 85.983310098462439 $739 101.52060512847386 $567 $815 forward 7 unknown #
vertex $-1 $581 $816 #
straight-curve $-1 67.470998108391356 -19.753046146832354 18.657044982406603 1 0 0 I I #
edge $-1 $739 -11.974214539333193 $578 -3.583448675665128 $577 $817 forward 7 unknown #
vertex $-1 $738 $818 #
straight-curve $-1 2.303662325751219 -19.753046146832354 135.75808384342668 -0.48480960649040278 0 0.87461971476443456 I I #
point $-1 67.213825693288726 -19.753046146832354 18.657044982406589 #
point $-1 75.826288644062629 -11.362280283164289 3.1197499523951819 #
straight-curve $-1 75.826288644062629 0 18.657044982406607 0 1 0 I I #
vertex $-1 $584 $819 #
point $-1 69.344225930779842 -17.35568447149862 8.5389605046321773 #
vertex $-1 $588 $820 #
point $-1 69.344225930779842 -13.759641958498019 8.5389605046321773 #
edge $-1 $749 85.983310098462439 $752 101.52060512847386 $593 $821 forward 7 unknown #
vertex $-1 $607 $822 #
straight-curve $-1 67.470998108391356 -4.0987311130002908 18.657044982406603 1 0 0 I I #
edge $-1 $752 -4.1470570224171617 $604 4.2437088412509034 $603 $823 forward 7 unknown #
vertex $-1 $751 $824 #
straight-curve $-1 2.303662325751219 -4.0987311130002908 135.75808384342668 -0.48480960649040278 0 0.87461971476443456 I I #
point $-1 67.213825693288726 -4.0987311130002908 18.657044982406589 #
point $-1 75.826288644062629 4.2920347506677743 3.1197499523951819 #
straight-curve $-1 75.826288644062629 0 18.657044982406607 0 1 0 I I #
vertex $-1 $610 $825 #
point $-1 69.344225930779842 -1.7013694376665569 8.5389605046321773 #
vertex $-1 $614 $826 #
point $-1 69.344225930779842 1.8946730753340475 8.5389605046321773 #
edge $-1 $762 85.983310098462439 $765 101.52060512847386 $619 $827 forward 7 unknown #
vertex $-1 $633 $828 #
straight-curve $-1 67.470998108391356 11.555583920831772 18.657044982406603 1 0 0 I I #
edge $-1 $765 3.6801004944988698 $630 12.070866358166935 $629 $829 forward 7 unknown #
vertex $-1 $764 $830 #
straight-curve $-1 2.303662325751219 11.555583920831772 135.75808384342668 -0.48480960649040278 0 0.87461971476443456 I I #
point $-1 67.213825693288726 11.555583920831772 18.657044982406589 #
point $-1 75.826288644062629 19.946349784499837 3.1197499523951819 #
straight-curve $-1 75.826288644062629 0 18.657044982406607 0 1 0 I I #
vertex $-1 $636 $831 #
point $-1 69.344225930779842 13.952945596165506 8.5389605046321773 #
vertex $-1 $640 $832 #
point $-1 69.344225930779842 17.54898810916611 8.5389605046321773 #
edge $-1 $775 85.983310098462439 $778 101.52060512847386 $645 $833 forward 7 unknown #
vertex $-1 $659 $834 #
straight-curve $-1 67.470998108391356 27.209898954663835 18.657044982406603 1 0 0 I I #
edge $-1 $778 11.507258011414901 $656 19.898023875082966 $655 $835 forward 7 unknown #
vertex $-1 $777 $836 #
straight-curve $-1 2.303662325751219 27.209898954663835 135.75808384342668 -0.48480960649040278 0 0.87461971476443456 I I #
point $-1 67.213825693288726 27.209898954663835 18.657044982406589 #
point $-1 75.826288644062629 35.6006648183319 3.1197499523951819 #
straight-curve $-1 75.826288644062629 0 18.657044982406607 0 1 0 I I #
vertex $-1 $662 $837 #
point $-1 69.344225930779842 29.607260629997576 8.5389605046321773 #
vertex $-1 $666 $838 #
point $-1 69.344225930779842 33.203303142998173 8.5389605046321773 #
coedge $-1 $681 $680 $673 $788 forward $670 $-1 #
edge $-1 $789 49.525692310880132 $792 54.506774146173527 $787 $839 forward 7 unknown #
vertex $-1 $685 $840 #
straight-curve $-1 -82.482719092488111 7.0869524666178272 18.657044982406603 -1 0 0 I I #
edge $-1 $792 -7.5055142779452879 $682 8.3426379006002094 $681 $841 forward 7 unknown #
vertex $-1 $791 $842 #
straight-curve $-1 -75.826288644062615 7.0869524666178272 13.675963147113222 0.80901698891910034 0 0.5877852598018023 I I #
point $-1 -68.970417795400138 7.0869524666178272 18.657044982406607 #
point $-1 -75.826288644062629 -8.7611997119276701 13.675963147113212 #
straight-curve $-1 -75.826288644062629 0 18.657044982406607 0 -1 0 I I #
vertex $-1 $688 $843 #
point $-1 -68.799451394300249 -5.5915692762185714 13.764993147827882 #
vertex $-1 $692 $844 #
point $-1 -68.799451394300249 -0.83712362265492146 13.764993147827882 #
vertex $-1 $696 $845 #
point $-1 -68.799451394300249 3.9173220309087284 13.764993147827882 #
straight-curve $-1 -75.826288644062629 41.0341781516235 0 0 0 -1 I I #
point $-1 -75.826288644062629 -41.0341781516235 -18.657044982406607 #
straight-curve $-1 -75.826288644062629 0 -18.657044982406607 0 1 0 I I #
point $-1 -75.826288644062629 41.0341781516235 -18.657044982406607 #
edge $-1 $733 -75.826288644062629 $809 75.826288644062629 $730 $846 forward 7 unknown #
straight-curve $-1 75.826288644062629 0 -18.657044982406607 0 -1 0 I I #
vertex $-1 $721 $847 #
straight-curve $-1 -75.826288644062629 0 -18.657044982406607 0 1 0 I I #
point $-1 -75.826288644062629 -25.186559480123954 -18.657044982406607 #
straight-curve $-1 -75.826288644062629 -25.186559480123954 -6.9188558382355652 0 0 -1 I I #
straight-curve $-1 -75.826288644062629 -41.0341781516235 0 0 0 -1 I I #
point $-1 75.826288644062629 -41.0341781516235 -18.657044982406607 #
straight-curve $-1 75.826288644062629 -19.753046146832354 104.64035508086904 0 0 -1 I I #
point $-1 75.826288644062629 -19.753046146832354 18.657044982406607 #
straight-curve $-1 75.826288644062629 -7.7788316074991606 3.1197499523951677 0 1 0 I I #
point $-1 75.826288644062629 -19.753046146832354 3.1197499523951819 #
point $-1 67.984796609525006 -17.35568447149862 8.9287706129062094 #
point $-1 67.984796609525006 -13.759641958498019 8.9287706129062094 #
straight-curve $-1 75.826288644062629 -4.0987311130002908 104.64035508086904 0 0 -1 I I #
point $-1 75.826288644062629 -4.0987311130002908 18.657044982406607 #
straight-curve $-1 75.826288644062629 0.048325909416870871 3.1197499523951677 0 1 0 I I #
point $-1 75.826288644062629 -4.0987311130002908 3.1197499523951819 #
point $-1 67.984796609525006 -1.7013694376665569 8.9287706129062094 #
point $-1 67.984796609525006 1.8946730753340475 8.9287706129062094 #
straight-curve $-1 75.826288644062629 11.555583920831772 104.64035508086904 0 0 -1 I I #
point $-1 75.826288644062629 11.555583920831772 18.657044982406607 #
straight-curve $-1 75.826288644062629 7.8754834263329023 3.1197499523951677 0 1 0 I I #
point $-1 75.826288644062629 11.555583920831772 3.1197499523951819 #
point $-1 67.984796609525006 13.952945596165506 8.9287706129062094 #
point $-1 67.984796609525006 17.54898810916611 8.9287706129062094 #
straight-curve $-1 75.826288644062629 27.209898954663835 104.64035508086904 0 0 -1 I I #
point $-1 75.826288644062629 27.209898954663835 18.657044982406607 #
straight-curve $-1 75.826288644062629 15.702640943248934 3.1197499523951677 0 1 0 I I #
point $-1 75.826288644062629 27.209898954663835 3.1197499523951819 #
point $-1 67.984796609525006 29.607260629997576 8.9287706129062094 #
point $-1 67.984796609525006 33.203303142998173 8.9287706129062094 #
straight-curve $-1 -75.826288644062629 7.0869524666178272 68.182737293286735 0 0 -1 I I #
point $-1 -75.826288644062629 7.0869524666178272 18.657044982406607 #
straight-curve $-1 -75.826288644062629 -0.41856181132746073 13.675963147113213 0 -1 0 I I #
point $-1 -75.826288644062629 7.0869524666178272 13.675963147113212 #
point $-1 -69.131298987976194 -5.5915692762185714 11.669789774746528 #
point $-1 -69.131298987976194 -0.83712362265492146 11.669789774746528 #
point $-1 -69.131298987976194 3.9173220309087284 11.669789774746528 #
straight-curve $-1 0 -41.0341781516235 -18.657044982406607 -1 0 0 I I #
point $-1 -75.826288644062629 -41.0341781516235 -18.657044982406607 #
End-of-ACIS-data 