500 0 13 0           
7 Unknown 11 ACIS 5.0 NT 24 Thu Mar 25 23:53:15 1999 
-1 9.9999999999999995e-007 1e-010 
body $-1 $13 $-1 $14 #
body $-1 $15 $-1 $16 #
body $-1 $17 $-1 $18 #
body $-1 $19 $-1 $20 #
body $-1 $21 $-1 $22 #
body $-1 $23 $-1 $24 #
body $-1 $25 $-1 $26 #
body $-1 $27 $-1 $28 #
body $-1 $29 $-1 $30 #
body $-1 $31 $-1 $32 #
body $-1 $33 $-1 $34 #
body $-1 $35 $-1 $36 #
body $-1 $37 $-1 $38 #
lump $-1 $-1 $39 $0 #
transform $-1 1 0 0 0 1 0 0 0 1 67.759636219367053 42.568610599167286 13.185525476126847 1 rotate no_reflect no_shear #
lump $-1 $-1 $40 $1 #
transform $-1 1 0 0 0 1 0 0 0 1 67.759636219367053 42.568610599167286 13.185525476126847 1 rotate no_reflect no_shear #
lump $-1 $-1 $41 $2 #
transform $-1 1 0 0 0 1 0 0 0 1 67.759636219367053 42.568610599167286 13.185525476126847 1 rotate no_reflect no_shear #
lump $-1 $-1 $42 $3 #
transform $-1 1 0 0 0 1 0 0 0 1 67.759636219367053 42.568610599167286 13.185525476126847 1 rotate no_reflect no_shear #
lump $-1 $-1 $43 $4 #
transform $-1 1 0 0 0 1 0 0 0 1 67.759636219367053 42.568610599167286 13.185525476126847 1 rotate no_reflect no_shear #
lump $-1 $-1 $44 $5 #
transform $-1 1 0 0 0 1 0 0 0 1 67.759636219367053 42.568610599167286 13.185525476126847 1 rotate no_reflect no_shear #
lump $-1 $-1 $45 $6 #
transform $-1 1 0 0 0 1 0 0 0 1 67.759636219367053 42.568610599167286 13.185525476126847 1 rotate no_reflect no_shear #
lump $-1 $-1 $46 $7 #
transform $-1 1 0 0 0 1 0 0 0 1 67.759636219367053 42.568610599167286 13.185525476126847 1 rotate no_reflect no_shear #
lump $-1 $-1 $47 $8 #
transform $-1 1 0 0 0 1 0 0 0 1 67.759636219367053 42.568610599167286 13.185525476126847 1 rotate no_reflect no_shear #
lump $-1 $-1 $48 $9 #
transform $-1 1 0 0 0 1 0 0 0 1 67.759636219367053 42.568610599167286 13.185525476126847 1 rotate no_reflect no_shear #
lump $-1 $-1 $49 $10 #
transform $-1 1 0 0 0 1 0 0 0 1 67.759636219367053 42.568610599167286 13.185525476126847 1 rotate no_reflect no_shear #
lump $-1 $-1 $50 $11 #
transform $-1 1 0 0 0 1 0 0 0 1 67.759636219367053 42.568610599167286 13.185525476126847 1 rotate no_reflect no_shear #
lump $-1 $-1 $51 $12 #
transform $-1 1 0 0 0 1 0 0 0 1 67.759636219367053 42.568610599167286 13.185525476126847 1 rotate no_reflect no_shear #
shell $-1 $-1 $-1 $52 $-1 $13 #
shell $-1 $-1 $-1 $53 $-1 $15 #
shell $-1 $-1 $-1 $54 $-1 $17 #
shell $-1 $-1 $-1 $55 $-1 $19 #
shell $-1 $-1 $-1 $56 $-1 $21 #
shell $-1 $-1 $-1 $57 $-1 $23 #
shell $-1 $-1 $-1 $58 $-1 $25 #
shell $-1 $-1 $-1 $59 $-1 $27 #
shell $-1 $-1 $-1 $60 $-1 $29 #
shell $-1 $-1 $-1 $61 $-1 $31 #
shell $-1 $-1 $-1 $62 $-1 $33 #
shell $-1 $-1 $-1 $63 $-1 $35 #
shell $-1 $-1 $-1 $64 $-1 $37 #
face $-1 $65 $66 $39 $-1 $67 forward single #
face $-1 $68 $69 $40 $-1 $70 reversed single #
face $-1 $71 $72 $41 $-1 $73 reversed single #
face $-1 $74 $75 $42 $-1 $76 forward single #
face $-1 $77 $78 $43 $-1 $79 forward single #
face $-1 $80 $81 $44 $-1 $82 reversed single #
face $-1 $83 $84 $45 $-1 $85 forward single #
face $-1 $86 $87 $46 $-1 $88 forward single #
face $-1 $89 $90 $47 $-1 $91 forward single #
face $-1 $92 $93 $48 $-1 $94 reversed single #
face $-1 $95 $96 $49 $-1 $97 forward single #
face $-1 $98 $99 $50 $-1 $100 forward single #
face $-1 $101 $102 $51 $-1 $103 forward single #
face $-1 $104 $105 $39 $-1 $106 reversed single #
loop $-1 $-1 $107 $52 #
plane-surface $-1 0 0 13.185525476126847 0 0 1 1 0 0 forward_v I I I I #
face $-1 $108 $109 $40 $-1 $110 reversed single #
loop $-1 $-1 $111 $53 #
plane-surface $-1 -59.990855953036593 0 10.185525476126847 0 0 1 1 0 0 forward_v I I I I #
face $-1 $112 $113 $41 $-1 $114 reversed single #
loop $-1 $-1 $115 $54 #
plane-surface $-1 7.9861945201934361 50.558944594224727 162.39720148548906 1 0 0 0 -0.57357644374324357 -0.81915203911291934 forward_v I I I I #
face $-1 $116 $117 $42 $-1 $118 forward single #
loop $-1 $119 $120 $55 #
cone-surface $-1 16.651676965918995 30.78240457037888 1.8795849192060654 0 -0.57357644374324357 -0.81915203911291934 4 0 0 1 I I 0 1 4 forward I I I I #
face $-1 $121 $122 $43 $-1 $123 forward single #
loop $-1 $124 $125 $56 #
cone-surface $-1 29.649900634507347 30.78240457037888 1.8795849192060654 0 -0.57357644374324357 -0.81915203911291934 4 0 0 1 I I 0 1 4 forward I I I I #
face $-1 $126 $127 $44 $-1 $128 reversed single #
loop $-1 $-1 $129 $57 #
plane-surface $-1 -35.608561352936178 -152.20600617649023 88.081737660812493 -1 0 0 0 -0.80901700255871778 0.5877852410284794 forward_v I I I I #
face $-1 $130 $131 $45 $-1 $132 forward single #
loop $-1 $133 $134 $58 #
cone-surface $-1 -48.899372819952148 -39.67896690125211 9.9623890697083386 0 0.80901700255871778 -0.5877852410284794 1 0 0 1 I I 0 1 1 forward I I I I #
face $-1 $135 $136 $46 $-1 $137 forward single #
loop $-1 $138 $139 $59 #
cone-surface $-1 -43.915318519821156 -39.67896690125211 9.9623890697083386 0 0.80901700255871778 -0.5877852410284794 1 0 0 1 I I 0 1 1 forward I I I I #
face $-1 $140 $141 $47 $-1 $142 forward single #
loop $-1 $143 $144 $60 #
cone-surface $-1 -38.931264219690178 -39.67896690125211 9.9623890697083386 0 0.80901700255871778 -0.5877852410284794 1 0 0 1 I I 0 1 1 forward I I I I #
face $-1 $145 $146 $48 $-1 $147 reversed single #
loop $-1 $-1 $148 $61 #
plane-surface $-1 59.452879052482061 -42.568610599167314 8.4255094464070055 0 -0.80901700255871778 0.5877852410284794 1 0 0 forward_v I I I I #
face $-1 $149 $150 $49 $-1 $151 forward single #
loop $-1 $152 $153 $62 #
cone-surface $-1 54.468824752351068 -39.67896690125211 9.9623890697083386 0 0.80901700255871778 -0.5877852410284794 1 0 0 1 I I 0 1 1 forward I I I I #
face $-1 $154 $155 $50 $-1 $156 forward single #
loop $-1 $157 $158 $63 #
cone-surface $-1 59.452879052482061 -39.67896690125211 9.9623890697083386 0 0.80901700255871778 -0.5877852410284794 1 0 0 1 I I 0 1 1 forward I I I I #
face $-1 $159 $160 $51 $-1 $161 forward single #
loop $-1 $162 $163 $64 #
cone-surface $-1 64.436933352613039 -39.67896690125211 9.9623890697083386 0 0.80901700255871778 -0.5877852410284794 1 0 0 1 I I 0 1 1 forward I I I I #
face $-1 $164 $165 $39 $-1 $166 reversed single #
loop $-1 $-1 $167 $65 #
plane-surface $-1 0 0 -13.185525476126847 0 0 1 1 0 0 forward_v I I I I #
coedge $-1 $168 $169 $170 $171 forward $66 $-1 #
face $-1 $172 $173 $40 $-1 $174 reversed single #
loop $-1 $-1 $175 $68 #
plane-surface $-1 -52.222075686706134 0 11.685525476126847 -1 0 0 0 0 1 forward_v I I I I #
coedge $-1 $176 $177 $178 $179 forward $69 $-1 #
face $-1 $180 $181 $41 $-1 $182 reversed single #
loop $-1 $-1 $183 $71 #
plane-surface $-1 23.150788800213178 -27.171717749856143 51.386313128200769 0 0.57357644374324357 0.81915203911291934 1 0 0 forward_v I I I I #
coedge $-1 $184 $185 $186 $187 reversed $72 $-1 #
face $-1 $-1 $188 $42 $-1 $189 forward single #
loop $-1 $190 $191 $74 #
cone-surface $-1 16.651676965918995 25.441020981896159 -5.7487012594162135 0 -0.57357644374324357 -0.81915203911291934 2 0 0 1 I I -0.70710678118654746 0.70710678118654746 2 forward I I I I #
loop $-1 $-1 $192 $55 #
coedge $-1 $120 $120 $193 $194 reversed $75 $-1 #
face $-1 $-1 $195 $43 $-1 $196 forward single #
loop $-1 $197 $198 $77 #
cone-surface $-1 29.649900634507347 25.441020981896159 -5.7487012594162135 0 -0.57357644374324357 -0.81915203911291934 2 0 0 1 I I -0.70710678118654746 0.70710678118654746 2 forward I I I I #
loop $-1 $-1 $199 $56 #
coedge $-1 $125 $125 $200 $201 reversed $78 $-1 #
face $-1 $202 $203 $44 $-1 $204 forward single #
loop $-1 $-1 $205 $80 #
plane-surface $-1 -43.915318519821156 -42.568610599167314 8.4255094464070055 0 -0.80901700255871778 0.5877852410284794 1 0 0 forward_v I I I I #
coedge $-1 $206 $207 $208 $209 reversed $81 $-1 #
face $-1 $-1 $210 $45 $-1 $211 forward single #
loop $-1 $212 $213 $83 #
cone-surface $-1 -48.899372819952148 -38.113991691218104 8.8253680576355169 0 0.80901700255871778 -0.5877852410284794 0.5 0 0 1 I I -0.70710678118654746 0.70710678118654746 0.5 forward I I I I #
loop $-1 $-1 $214 $58 #
coedge $-1 $134 $134 $215 $216 reversed $84 $-1 #
face $-1 $-1 $217 $46 $-1 $218 forward single #
loop $-1 $219 $220 $86 #
cone-surface $-1 -43.915318519821156 -38.113991691218104 8.8253680576355169 0 0.80901700255871778 -0.5877852410284794 0.5 0 0 1 I I -0.70710678118654746 0.70710678118654746 0.5 forward I I I I #
loop $-1 $-1 $221 $59 #
coedge $-1 $139 $139 $222 $223 reversed $87 $-1 #
face $-1 $-1 $224 $47 $-1 $225 forward single #
loop $-1 $226 $227 $89 #
cone-surface $-1 -38.931264219690178 -38.113991691218104 8.8253680576355169 0 0.80901700255871778 -0.5877852410284794 0.5 0 0 1 I I -0.70710678118654746 0.70710678118654746 0.5 forward I I I I #
loop $-1 $-1 $228 $60 #
coedge $-1 $144 $144 $229 $230 reversed $90 $-1 #
face $-1 $231 $232 $48 $-1 $233 forward single #
loop $-1 $-1 $234 $92 #
plane-surface $-1 51.146121885597083 -152.20600617649023 88.081737660812493 1 0 0 0 0.80901700255871778 -0.5877852410284794 forward_v I I I I #
coedge $-1 $235 $236 $237 $238 reversed $93 $-1 #
face $-1 $-1 $239 $49 $-1 $240 forward single #
loop $-1 $241 $242 $95 #
cone-surface $-1 54.468824752351068 -38.113991691218104 8.8253680576355169 0 0.80901700255871778 -0.5877852410284794 0.5 0 0 1 I I -0.70710678118654746 0.70710678118654746 0.5 forward I I I I #
loop $-1 $-1 $243 $62 #
coedge $-1 $153 $153 $244 $245 reversed $96 $-1 #
face $-1 $-1 $246 $50 $-1 $247 forward single #
loop $-1 $248 $249 $98 #
cone-surface $-1 59.452879052482061 -38.113991691218104 8.8253680576355169 0 0.80901700255871778 -0.5877852410284794 0.5 0 0 1 I I -0.70710678118654746 0.70710678118654746 0.5 forward I I I I #
loop $-1 $-1 $250 $63 #
coedge $-1 $158 $158 $251 $252 reversed $99 $-1 #
face $-1 $-1 $253 $51 $-1 $254 forward single #
loop $-1 $255 $256 $101 #
cone-surface $-1 64.436933352613039 -38.113991691218104 8.8253680576355169 0 0.80901700255871778 -0.5877852410284794 0.5 0 0 1 I I -0.70710678118654746 0.70710678118654746 0.5 forward I I I I #
loop $-1 $-1 $257 $64 #
coedge $-1 $163 $163 $258 $259 reversed $102 $-1 #
face $-1 $260 $261 $39 $-1 $262 reversed single #
loop $-1 $-1 $263 $104 #
plane-surface $-1 0 -42.568610599167286 0 0 1 0 0 0 1 forward_v I I I I #
coedge $-1 $264 $265 $266 $267 forward $105 $-1 #
coedge $-1 $268 $107 $269 $270 forward $66 $-1 #
coedge $-1 $107 $268 $271 $272 forward $66 $-1 #
coedge $-1 $273 $274 $107 $171 reversed $275 $-1 #
edge $-1 $276 -42.568610599167286 $277 42.568610599167286 $170 $278 forward 7 unknown #
face $-1 $279 $280 $40 $-1 $281 reversed single #
loop $-1 $-1 $282 $108 #
plane-surface $-1 0 42.568610599167286 0 0 -1 0 0 0 -1 forward_v I I I I #
coedge $-1 $178 $283 $284 $285 reversed $109 $-1 #
coedge $-1 $286 $111 $287 $288 reversed $69 $-1 #
coedge $-1 $111 $286 $289 $290 reversed $69 $-1 #
coedge $-1 $291 $175 $111 $179 reversed $109 $-1 #
edge $-1 $292 -42.568610599167286 $293 42.568610599167286 $178 $294 forward 7 unknown #
face $-1 $295 $296 $41 $-1 $297 forward single #
loop $-1 $-1 $298 $112 #
plane-surface $-1 38.31538308023292 50.558944594224727 162.39720148548906 -1 0 0 0 0.57357644374324357 0.81915203911291934 forward_v I I I I #
coedge $-1 $299 $300 $301 $302 reversed $113 $-1 #
coedge $-1 $185 $115 $303 $304 reversed $72 $-1 #
coedge $-1 $115 $184 $299 $305 reversed $72 $-1 #
coedge $-1 $301 $306 $115 $187 forward $296 $-1 #
edge $-1 $307 -17.289138302054923 $308 -2.105187646470533 $186 $309 forward 7 unknown #
loop $-1 $-1 $193 $116 #
plane-surface $-1 23.150788800213178 -27.171717749856143 51.386313128200769 0 0.57357644374324357 0.81915203911291934 1 0 0 forward_v I I I I #
loop $-1 $-1 $310 $74 #
coedge $-1 $191 $191 $192 $311 reversed $117 $-1 #
coedge $-1 $192 $192 $191 $311 forward $119 $-1 #
coedge $-1 $193 $193 $120 $194 forward $188 $-1 #
edge $-1 $312 9.2661100073831691e-016 $312 6.2831853071796013 $193 $313 forward 7 unknown #
loop $-1 $-1 $200 $121 #
plane-surface $-1 23.150788800213178 -27.171717749856143 51.386313128200769 0 0.57357644374324357 0.81915203911291934 1 0 0 forward_v I I I I #
loop $-1 $-1 $314 $77 #
coedge $-1 $198 $198 $199 $315 reversed $122 $-1 #
coedge $-1 $199 $199 $198 $315 forward $124 $-1 #
coedge $-1 $200 $200 $125 $201 forward $195 $-1 #
edge $-1 $316 9.2661100073831691e-016 $316 6.2831853071796013 $200 $317 forward 7 unknown #
face $-1 $318 $319 $44 $-1 $320 forward single #
loop $-1 $-1 $321 $126 #
plane-surface $-1 -52.222075686706134 0 11.685525476126847 -1 0 0 0 0 1 forward_v I I I I #
coedge $-1 $322 $323 $324 $325 reversed $127 $-1 #
coedge $-1 $207 $129 $326 $327 reversed $81 $-1 #
coedge $-1 $129 $206 $322 $328 reversed $81 $-1 #
coedge $-1 $324 $329 $129 $209 forward $319 $-1 #
edge $-1 $330 33.534392489077831 $331 36.992746467398838 $208 $332 forward 7 unknown #
loop $-1 $-1 $215 $130 #
plane-surface $-1 -43.915318519821156 -42.568610599167314 8.4255094464070055 0 -0.80901700255871778 0.5877852410284794 1 0 0 forward_v I I I I #
loop $-1 $-1 $333 $83 #
coedge $-1 $213 $213 $214 $334 reversed $131 $-1 #
coedge $-1 $214 $214 $213 $334 forward $133 $-1 #
coedge $-1 $215 $215 $134 $216 forward $210 $-1 #
edge $-1 $335 -5.3937330024379315e-016 $335 6.2831853071795996 $215 $336 forward 7 unknown #
loop $-1 $-1 $222 $135 #
plane-surface $-1 -43.915318519821156 -42.568610599167314 8.4255094464070055 0 -0.80901700255871778 0.5877852410284794 1 0 0 forward_v I I I I #
loop $-1 $-1 $337 $86 #
coedge $-1 $220 $220 $221 $338 reversed $136 $-1 #
coedge $-1 $221 $221 $220 $338 forward $138 $-1 #
coedge $-1 $222 $222 $139 $223 forward $217 $-1 #
edge $-1 $339 -5.3937330024379315e-016 $339 6.2831853071795996 $222 $340 forward 7 unknown #
loop $-1 $-1 $229 $140 #
plane-surface $-1 -43.915318519821156 -42.568610599167314 8.4255094464070055 0 -0.80901700255871778 0.5877852410284794 1 0 0 forward_v I I I I #
loop $-1 $-1 $341 $89 #
coedge $-1 $227 $227 $228 $342 reversed $141 $-1 #
coedge $-1 $228 $228 $227 $342 forward $143 $-1 #
coedge $-1 $229 $229 $144 $230 forward $224 $-1 #
edge $-1 $343 -5.3937330024379315e-016 $343 6.2831853071795996 $229 $344 forward 7 unknown #
face $-1 $345 $346 $48 $-1 $347 reversed single #
loop $-1 $-1 $237 $145 #
plane-surface $-1 0 0 13.185525476126847 0 0 1 1 0 0 forward_v I I I I #
coedge $-1 $348 $349 $350 $351 reversed $146 $-1 #
coedge $-1 $352 $148 $353 $354 reversed $93 $-1 #
coedge $-1 $148 $352 $348 $355 forward $93 $-1 #
coedge $-1 $350 $356 $148 $238 forward $232 $-1 #
edge $-1 $357 -38.033196693126008 $358 -21.419682359356052 $237 $359 forward 7 unknown #
loop $-1 $-1 $244 $149 #
plane-surface $-1 59.452879052482061 -42.568610599167314 8.4255094464070055 0 -0.80901700255871778 0.5877852410284794 1 0 0 forward_v I I I I #
loop $-1 $-1 $360 $95 #
coedge $-1 $242 $242 $243 $361 reversed $150 $-1 #
coedge $-1 $243 $243 $242 $361 forward $152 $-1 #
coedge $-1 $244 $244 $153 $245 forward $239 $-1 #
edge $-1 $362 -5.3937330024379315e-016 $362 6.2831853071795996 $244 $363 forward 7 unknown #
loop $-1 $-1 $251 $154 #
plane-surface $-1 59.452879052482061 -42.568610599167314 8.4255094464070055 0 -0.80901700255871778 0.5877852410284794 1 0 0 forward_v I I I I #
loop $-1 $-1 $364 $98 #
coedge $-1 $249 $249 $250 $365 reversed $155 $-1 #
coedge $-1 $250 $250 $249 $365 forward $157 $-1 #
coedge $-1 $251 $251 $158 $252 forward $246 $-1 #
edge $-1 $366 -5.3937330024379315e-016 $366 6.2831853071795996 $251 $367 forward 7 unknown #
loop $-1 $-1 $258 $159 #
plane-surface $-1 59.452879052482061 -42.568610599167314 8.4255094464070055 0 -0.80901700255871778 0.5877852410284794 1 0 0 forward_v I I I I #
loop $-1 $-1 $368 $101 #
coedge $-1 $256 $256 $257 $369 reversed $160 $-1 #
coedge $-1 $257 $257 $256 $369 forward $162 $-1 #
coedge $-1 $258 $258 $163 $259 forward $253 $-1 #
edge $-1 $370 -5.3937330024379315e-016 $370 6.2831853071795996 $258 $371 forward 7 unknown #
face $-1 $372 $373 $39 $-1 $374 reversed single #
loop $-1 $-1 $375 $164 #
plane-surface $-1 -67.759636219367053 0 0 1 0 0 0 0 -1 forward_v I I I I #
coedge $-1 $376 $271 $377 $378 forward $165 $-1 #
coedge $-1 $379 $167 $376 $380 forward $105 $-1 #
coedge $-1 $167 $379 $381 $382 forward $105 $-1 #
coedge $-1 $274 $273 $167 $267 reversed $275 $-1 #
edge $-1 $383 -42.568610599167286 $384 42.568610599167286 $266 $385 forward 7 unknown #
coedge $-1 $169 $168 $386 $387 forward $66 $-1 #
coedge $-1 $388 $389 $168 $270 reversed $373 $-1 #
edge $-1 $277 -67.759636219367053 $390 67.759636219367053 $269 $391 forward 7 unknown #
coedge $-1 $263 $392 $169 $272 reversed $165 $-1 #
edge $-1 $393 -67.759636219367053 $276 67.759636219367053 $271 $394 forward 7 unknown #
coedge $-1 $266 $170 $392 $395 forward $275 $-1 #
coedge $-1 $170 $266 $388 $396 reversed $275 $-1 #
loop $-1 $-1 $273 $372 #
vertex $-1 $171 $397 #
vertex $-1 $171 $398 #
straight-curve $-1 67.759636219367053 0 13.185525476126847 0 1 0 I I #
face $-1 $399 $400 $40 $-1 $401 forward single #
loop $-1 $-1 $402 $172 #
plane-surface $-1 -67.759636219367053 0 0 1 0 0 0 0 -1 forward_v I I I I #
coedge $-1 $289 $403 $291 $404 forward $173 $-1 #
coedge $-1 $175 $291 $405 $406 reversed $109 $-1 #
coedge $-1 $407 $287 $175 $285 forward $408 $-1 #
edge $-1 $293 4.3427627380634233 $409 7.3427627380634233 $284 $410 forward 7 unknown #
coedge $-1 $177 $176 $402 $411 reversed $69 $-1 #
coedge $-1 $284 $412 $176 $288 forward $408 $-1 #
edge $-1 $413 -37.764208242848753 $293 -22.226647710187837 $287 $414 forward 7 unknown #
coedge $-1 $415 $282 $177 $290 forward $173 $-1 #
edge $-1 $292 22.226647710187837 $416 37.764208242848753 $289 $417 forward 7 unknown #
coedge $-1 $283 $178 $282 $404 reversed $109 $-1 #
vertex $-1 $290 $418 #
vertex $-1 $288 $419 #
straight-curve $-1 -52.222075686706134 0 10.185525476126847 0 -1 0 I I #
face $-1 $-1 $420 $41 $-1 $421 reversed single #
loop $-1 $-1 $186 $180 #
plane-surface $-1 0 0 13.185525476126847 0 0 1 1 0 0 forward_v I I I I #
coedge $-1 $422 $423 $424 $425 reversed $181 $-1 #
coedge $-1 $426 $183 $185 $305 forward $113 $-1 #
coedge $-1 $183 $426 $422 $427 forward $113 $-1 #
coedge $-1 $424 $186 $183 $302 forward $296 $-1 #
edge $-1 $308 -3.5891998799131528 $428 26.739988680126331 $301 $429 forward 7 unknown #
coedge $-1 $430 $431 $184 $304 forward $420 $-1 #
edge $-1 $432 -78.644992179666389 $307 -68.01307526661769 $303 $433 forward 7 unknown #
edge $-1 $308 66.601039963862547 $432 85.137221198334572 $185 $434 forward 7 unknown #
coedge $-1 $186 $424 $430 $435 forward $296 $-1 #
vertex $-1 $304 $436 #
vertex $-1 $187 $437 #
straight-curve $-1 7.9861945201934361 25.279472297112363 13.185525476126841 0 -1 0 I I #
coedge $-1 $310 $310 $-1 $438 reversed $190 $-1 #
edge $-1 $439 0 $439 6.2831853071796004 $191 $440 forward 7 unknown #
vertex $-1 $194 $441 #
ellipse-curve $-1 16.651676965918995 34.976635271375095 7.8695670196024805 0 0.57357644374324357 0.81915203911291934 4 0 0 1 I I #
coedge $-1 $314 $314 $-1 $442 reversed $197 $-1 #
edge $-1 $443 0 $443 6.2831853071796004 $198 $444 forward 7 unknown #
vertex $-1 $201 $445 #
ellipse-curve $-1 29.649900634507347 34.976635271375095 7.8695670196024805 0 0.57357644374324357 0.81915203911291934 4 0 0 1 I I #
face $-1 $-1 $446 $44 $-1 $447 reversed single #
loop $-1 $-1 $324 $202 #
plane-surface $-1 0 0 13.185525476126847 0 0 1 1 0 0 forward_v I I I I #
coedge $-1 $448 $449 $323 $450 reversed $203 $-1 #
coedge $-1 $451 $205 $207 $328 forward $127 $-1 #
coedge $-1 $205 $451 $321 $450 forward $127 $-1 #
coedge $-1 $452 $208 $205 $325 forward $319 $-1 #
edge $-1 $331 13.6509020930256 $453 30.264416426795556 $324 $454 forward 7 unknown #
coedge $-1 $455 $456 $206 $327 forward $446 $-1 #
edge $-1 $457 -35.615359383999206 $330 -30.855343354279398 $326 $458 forward 7 unknown #
edge $-1 $331 -5.8837033272046249 $457 -4.8322124813089328e-014 $207 $459 forward 7 unknown #
coedge $-1 $208 $452 $455 $460 forward $319 $-1 #
vertex $-1 $327 $461 #
vertex $-1 $209 $462 #
straight-curve $-1 -35.608561352936178 -76.103003088245117 13.185525476126848 0 1 0 I I #
coedge $-1 $333 $333 $-1 $463 reversed $212 $-1 #
edge $-1 $464 0 $464 6.2831853071796004 $213 $465 forward 7 unknown #
vertex $-1 $216 $466 #
ellipse-curve $-1 -48.899372819952148 -40.839433610006786 10.805517461266941 0 -0.80901700255871778 0.5877852410284794 1 0 0 1 I I #
coedge $-1 $337 $337 $-1 $467 reversed $219 $-1 #
edge $-1 $468 0 $468 6.2831853071796004 $220 $469 forward 7 unknown #
vertex $-1 $223 $470 #
ellipse-curve $-1 -43.915318519821156 -40.839433610006786 10.805517461266941 0 -0.80901700255871778 0.5877852410284794 1 0 0 1 I I #
coedge $-1 $341 $341 $-1 $471 reversed $226 $-1 #
edge $-1 $472 0 $472 6.2831853071796004 $227 $473 forward 7 unknown #
vertex $-1 $230 $474 #
ellipse-curve $-1 -38.931264219690178 -40.839433610006786 10.805517461266941 0 -0.80901700255871778 0.5877852410284794 1 0 0 1 I I #
face $-1 $-1 $475 $48 $-1 $476 reversed single #
loop $-1 $-1 $477 $231 #
plane-surface $-1 0 -42.568610599167286 0 0 1 0 0 0 1 forward_v I I I I #
coedge $-1 $349 $234 $236 $355 reversed $146 $-1 #
coedge $-1 $234 $348 $478 $479 reversed $146 $-1 #
coedge $-1 $480 $237 $234 $351 forward $232 $-1 #
edge $-1 $358 -36.992746467398838 $481 -33.534392489077831 $350 $482 forward 7 unknown #
coedge $-1 $236 $235 $477 $483 reversed $93 $-1 #
coedge $-1 $484 $485 $235 $354 forward $475 $-1 #
edge $-1 $486 -9.1024103219582955 $357 -3.2187069947537195 $353 $487 forward 7 unknown #
edge $-1 $488 4.8322124813089328e-014 $358 5.8837033272046249 $348 $489 forward 7 unknown #
coedge $-1 $237 $480 $484 $490 forward $232 $-1 #
vertex $-1 $238 $491 #
vertex $-1 $238 $492 #
straight-curve $-1 29.72643952624103 -39.110256620846279 13.185525476126848 -1 0 0 I I #
coedge $-1 $360 $360 $-1 $493 reversed $241 $-1 #
edge $-1 $494 0 $494 6.2831853071796004 $242 $495 forward 7 unknown #
vertex $-1 $245 $496 #
ellipse-curve $-1 54.468824752351068 -40.839433610006786 10.805517461266941 0 -0.80901700255871778 0.5877852410284794 1 0 0 1 I I #
coedge $-1 $364 $364 $-1 $497 reversed $248 $-1 #
edge $-1 $498 0 $498 6.2831853071796004 $249 $499 forward 7 unknown #
vertex $-1 $252 $500 #
ellipse-curve $-1 59.452879052482061 -40.839433610006786 10.805517461266941 0 -0.80901700255871778 0.5877852410284794 1 0 0 1 I I #
coedge $-1 $368 $368 $-1 $501 reversed $255 $-1 #
edge $-1 $502 0 $502 6.2831853071796004 $256 $503 forward 7 unknown #
vertex $-1 $259 $504 #
ellipse-curve $-1 64.436933352613039 -40.839433610006786 10.805517461266941 0 -0.80901700255871778 0.5877852410284794 1 0 0 1 I I #
face $-1 $-1 $275 $39 $-1 $505 reversed single #
loop $-1 $-1 $388 $260 #
plane-surface $-1 0 42.568610599167286 0 0 -1 0 0 0 -1 forward_v I I I I #
coedge $-1 $506 $386 $389 $507 forward $261 $-1 #
coedge $-1 $392 $263 $264 $380 reversed $165 $-1 #
coedge $-1 $386 $506 $263 $378 reversed $261 $-1 #
edge $-1 $393 -13.185525476126847 $508 13.185525476126847 $377 $509 forward 7 unknown #
coedge $-1 $265 $264 $506 $510 forward $105 $-1 #
edge $-1 $384 -67.759636219367053 $508 67.759636219367053 $376 $511 forward 7 unknown #
coedge $-1 $389 $388 $265 $382 reversed $373 $-1 #
edge $-1 $512 -67.759636219367053 $383 67.759636219367053 $381 $513 forward 7 unknown #
vertex $-1 $267 $514 #
vertex $-1 $395 $515 #
straight-curve $-1 67.759636219367053 0 -13.185525476126847 0 -1 0 I I #
coedge $-1 $375 $377 $268 $387 reversed $261 $-1 #
edge $-1 $390 -42.568610599167286 $393 42.568610599167286 $386 $516 forward 7 unknown #
coedge $-1 $381 $269 $274 $396 forward $373 $-1 #
coedge $-1 $269 $381 $375 $507 reversed $373 $-1 #
vertex $-1 $270 $517 #
straight-curve $-1 0 42.568610599167286 13.185525476126847 -1 0 0 I I #
coedge $-1 $271 $376 $273 $395 reversed $165 $-1 #
vertex $-1 $387 $518 #
straight-curve $-1 0 -42.568610599167286 13.185525476126847 1 0 0 I I #
edge $-1 $276 -13.185525476126847 $384 13.185525476126847 $273 $519 forward 7 unknown #
edge $-1 $277 -13.185525476126847 $383 13.185525476126847 $274 $520 forward 7 unknown #
point $-1 67.759636219367053 -42.568610599167286 13.185525476126847 #
point $-1 67.759636219367053 42.568610599167286 13.185525476126847 #
face $-1 $-1 $408 $40 $-1 $521 reversed single #
loop $-1 $-1 $405 $279 #
plane-surface $-1 0 0 13.185525476126847 0 0 1 1 0 0 forward_v I I I I #
coedge $-1 $522 $523 $286 $411 forward $280 $-1 #
coedge $-1 $282 $415 $524 $525 reversed $173 $-1 #
edge $-1 $526 -7.3427627380634233 $292 -4.3427627380634233 $282 $527 forward 7 unknown #
coedge $-1 $524 $528 $283 $406 forward $400 $-1 #
edge $-1 $409 -42.568610599167286 $526 42.568610599167286 $405 $529 forward 7 unknown #
coedge $-1 $412 $284 $528 $530 reversed $408 $-1 #
loop $-1 $-1 $284 $399 #
vertex $-1 $285 $531 #
straight-curve $-1 -52.222075686706134 -42.568610599167286 5.8427627380634233 0 0 1 I I #
edge $-1 $416 -42.568610599167286 $413 42.568610599167286 $402 $532 forward 7 unknown #
coedge $-1 $287 $407 $522 $533 forward $408 $-1 #
vertex $-1 $411 $534 #
straight-curve $-1 -29.995427976518297 -42.568610599167286 10.185525476126847 1 0 0 I I #
coedge $-1 $403 $289 $523 $535 reversed $173 $-1 #
vertex $-1 $411 $536 #
straight-curve $-1 -29.995427976518297 42.568610599167286 10.185525476126847 -1 0 0 I I #
point $-1 -52.222075686706134 42.568610599167286 10.185525476126847 #
point $-1 -52.222075686706134 -42.568610599167286 10.185525476126847 #
loop $-1 $-1 $303 $295 #
plane-surface $-1 0 42.568610599167286 0 0 -1 0 0 0 -1 forward_v I I I I #
coedge $-1 $423 $298 $300 $427 reversed $181 $-1 #
coedge $-1 $298 $422 $537 $538 reversed $181 $-1 #
coedge $-1 $306 $301 $298 $425 forward $296 $-1 #
edge $-1 $428 2.105187646470533 $539 17.289138302054923 $424 $540 forward 7 unknown #
coedge $-1 $300 $299 $431 $541 reversed $113 $-1 #
edge $-1 $542 -85.137221198334572 $428 -66.601039963862547 $422 $543 forward 7 unknown #
vertex $-1 $302 $544 #
straight-curve $-1 11.575394400106589 27.384659943582879 13.185525476126848 1 0 0 I I #
coedge $-1 $537 $303 $306 $435 reversed $420 $-1 #
coedge $-1 $303 $537 $426 $541 forward $420 $-1 #
vertex $-1 $304 $545 #
straight-curve $-1 7.9861945201934361 42.568610599167286 81.198600742744532 0 0 1 I I #
straight-curve $-1 7.9861945201934361 -27.171717749856143 51.386313128200769 0 0.81915203911291934 -0.57357644374324357 I I #
edge $-1 $539 -38.31538308023292 $307 -7.9861945201934361 $430 $546 forward 7 unknown #
point $-1 7.9861945201934361 42.568610599167286 13.185525476126847 #
point $-1 7.9861945201934361 27.384659943582896 13.185525476126848 #
edge $-1 $547 1 $547 0 $310 $-1 forward 7 unknown #
vertex $-1 $311 $548 #
ellipse-curve $-1 16.651676965918995 26.588173869382647 -4.1103971811903746 0 0.57357644374324357 0.81915203911291934 4 0 0 1 I I #
point $-1 20.651676965918995 34.976635271375116 7.8695670196025045 #
edge $-1 $549 1 $549 0 $314 $-1 forward 7 unknown #
vertex $-1 $315 $550 #
ellipse-curve $-1 29.649900634507347 26.588173869382647 -4.1103971811903746 0 0.57357644374324357 0.81915203911291934 4 0 0 1 I I #
point $-1 33.649900634507347 34.976635271375116 7.8695670196025045 #
loop $-1 $-1 $326 $318 #
plane-surface $-1 0 -42.568610599167286 0 0 1 0 0 0 1 forward_v I I I I #
coedge $-1 $449 $321 $551 $552 reversed $203 $-1 #
coedge $-1 $321 $448 $452 $553 reversed $203 $-1 #
edge $-1 $554 4.8322124813089328e-014 $453 5.8837033272046249 $321 $555 forward 7 unknown #
coedge $-1 $323 $322 $456 $556 reversed $127 $-1 #
coedge $-1 $329 $324 $449 $553 forward $319 $-1 #
vertex $-1 $553 $557 #
straight-curve $-1 -21.957659259910578 -39.110256620846279 13.185525476126848 -1 0 0 I I #
coedge $-1 $551 $326 $329 $460 reversed $446 $-1 #
coedge $-1 $326 $551 $451 $556 forward $446 $-1 #
vertex $-1 $327 $558 #
straight-curve $-1 -35.608561352936178 -42.568610599167286 44.040868830406247 0 0 1 I I #
straight-curve $-1 -35.608561352936178 -42.568610599167314 8.4255094464070055 0 -0.5877852410284794 -0.80901700255871778 I I #
edge $-1 $559 -52.222075686706134 $330 -35.608561352936178 $455 $560 forward 7 unknown #
point $-1 -35.608561352936178 -42.568610599167286 13.185525476126847 #
point $-1 -35.608561352936178 -39.110256620846279 13.185525476126847 #
edge $-1 $561 1 $561 0 $333 $-1 forward 7 unknown #
vertex $-1 $334 $562 #
ellipse-curve $-1 -48.899372819952148 -38.518500192497463 9.1192606781497574 0 -0.80901700255871778 0.5877852410284794 1 0 0 1 I I #
point $-1 -47.899372819952148 -40.839433610006758 10.80551746126692 #
edge $-1 $563 1 $563 0 $337 $-1 forward 7 unknown #
vertex $-1 $338 $564 #
ellipse-curve $-1 -43.915318519821156 -38.518500192497463 9.1192606781497574 0 -0.80901700255871778 0.5877852410284794 1 0 0 1 I I #
point $-1 -42.915318519821156 -40.839433610006758 10.80551746126692 #
edge $-1 $565 1 $565 0 $341 $-1 forward 7 unknown #
vertex $-1 $342 $566 #
ellipse-curve $-1 -38.931264219690178 -38.518500192497463 9.1192606781497574 0 -0.80901700255871778 0.5877852410284794 1 0 0 1 I I #
point $-1 -37.931264219690178 -40.839433610006758 10.80551746126692 #
loop $-1 $-1 $353 $345 #
plane-surface $-1 67.759636219367053 0 0 -1 0 0 0 0 1 forward_v I I I I #
coedge $-1 $567 $478 $352 $483 forward $346 $-1 #
coedge $-1 $477 $568 $349 $479 forward $346 $-1 #
edge $-1 $481 30.855343354279398 $488 35.615359383999206 $478 $569 forward 7 unknown #
coedge $-1 $356 $350 $568 $570 forward $232 $-1 #
vertex $-1 $570 $571 #
straight-curve $-1 51.146121885597083 -76.103003088245117 13.185525476126848 0 -1 0 I I #
edge $-1 $488 21.419682359356052 $486 38.033196693126008 $477 $572 forward 7 unknown #
coedge $-1 $485 $353 $356 $490 reversed $475 $-1 #
coedge $-1 $353 $484 $567 $573 forward $475 $-1 #
vertex $-1 $483 $574 #
straight-curve $-1 67.759636219367053 -37.218348154134908 15.789514161137276 0 0.5877852410284794 0.80901700255871778 I I #
vertex $-1 $483 $575 #
straight-curve $-1 51.146121885597083 -42.568610599167314 8.4255094464070055 0 0.5877852410284794 0.80901700255871778 I I #
edge $-1 $576 -42.568610599167286 $357 -39.110256620846279 $484 $577 forward 7 unknown #
point $-1 67.759636219367039 -39.110256620846279 13.185525476126847 #
point $-1 51.146121885597083 -39.110256620846279 13.185525476126847 #
edge $-1 $578 1 $578 0 $360 $-1 forward 7 unknown #
vertex $-1 $361 $579 #
ellipse-curve $-1 54.468824752351068 -38.518500192497463 9.1192606781497574 0 -0.80901700255871778 0.5877852410284794 1 0 0 1 I I #
point $-1 55.468824752351068 -40.839433610006758 10.80551746126692 #
edge $-1 $580 1 $580 0 $364 $-1 forward 7 unknown #
vertex $-1 $365 $581 #
ellipse-curve $-1 59.452879052482061 -38.518500192497463 9.1192606781497574 0 -0.80901700255871778 0.5877852410284794 1 0 0 1 I I #
point $-1 60.452879052482061 -40.839433610006758 10.80551746126692 #
edge $-1 $582 1 $582 0 $368 $-1 forward 7 unknown #
vertex $-1 $369 $583 #
ellipse-curve $-1 64.436933352613039 -38.518500192497463 9.1192606781497574 0 -0.80901700255871778 0.5877852410284794 1 0 0 1 I I #
point $-1 65.436933352613039 -40.839433610006758 10.80551746126692 #
plane-surface $-1 67.759636219367053 0 0 -1 0 0 0 0 1 forward_v I I I I #
coedge $-1 $377 $375 $379 $510 reversed $261 $-1 #
edge $-1 $390 -13.185525476126847 $512 13.185525476126847 $389 $584 forward 7 unknown #
vertex $-1 $510 $585 #
straight-curve $-1 -67.759636219367053 -42.568610599167286 0 0 0 -1 I I #
edge $-1 $508 -42.568610599167286 $512 42.568610599167286 $506 $586 forward 7 unknown #
straight-curve $-1 0 -42.568610599167286 -13.185525476126847 -1 0 0 I I #
vertex $-1 $382 $587 #
straight-curve $-1 0 42.568610599167286 -13.185525476126847 1 0 0 I I #
point $-1 67.759636219367053 42.568610599167286 -13.185525476126847 #
point $-1 67.759636219367053 -42.568610599167286 -13.185525476126847 #
straight-curve $-1 -67.759636219367053 0 13.185525476126847 0 -1 0 I I #
point $-1 -67.759636219367053 42.568610599167286 13.185525476126847 #
point $-1 -67.759636219367053 -42.568610599167286 13.185525476126847 #
straight-curve $-1 67.759636219367053 -42.568610599167286 0 0 0 -1 I I #
straight-curve $-1 67.759636219367053 42.568610599167286 0 0 0 -1 I I #
plane-surface $-1 0 -42.568610599167286 0 0 1 0 0 0 1 forward_v I I I I #
coedge $-1 $588 $402 $412 $533 reversed $280 $-1 #
coedge $-1 $402 $588 $415 $535 forward $280 $-1 #
coedge $-1 $589 $405 $403 $525 forward $400 $-1 #
edge $-1 $526 52.222075686706134 $590 67.759636219367053 $403 $591 forward 7 unknown #
vertex $-1 $525 $592 #
straight-curve $-1 -52.222075686706134 42.568610599167286 5.8427627380634233 0 0 -1 I I #
coedge $-1 $405 $589 $407 $530 forward $400 $-1 #
straight-curve $-1 -52.222075686706134 0 13.185525476126847 0 1 0 I I #
edge $-1 $593 -67.759636219367053 $409 -52.222075686706134 $407 $594 forward 7 unknown #
point $-1 -52.222075686706134 -42.568610599167286 13.185525476126847 #
straight-curve $-1 -67.759636219367053 0 10.185525476126847 0 -1 0 I I #
edge $-1 $593 -13.185525476126847 $413 -10.185525476126847 $522 $595 forward 7 unknown #
point $-1 -67.759636219367053 -42.568610599167286 10.185525476126847 #
edge $-1 $590 -13.185525476126847 $416 -10.185525476126847 $415 $596 forward 7 unknown #
point $-1 -67.759636219367053 42.568610599167286 10.185525476126847 #
coedge $-1 $431 $430 $423 $538 forward $420 $-1 #
edge $-1 $539 68.01307526661769 $542 78.644992179666389 $537 $597 forward 7 unknown #
vertex $-1 $435 $598 #
straight-curve $-1 38.31538308023292 25.279472297112363 13.185525476126841 0 1 0 I I #
edge $-1 $542 -26.739988680126331 $432 3.5891998799131528 $431 $599 forward 7 unknown #
vertex $-1 $541 $600 #
straight-curve $-1 38.31538308023292 -27.171717749856143 51.386313128200769 0 -0.81915203911291934 0.57357644374324357 I I #
point $-1 38.31538308023292 27.384659943582896 13.185525476126848 #
point $-1 7.9861945201934361 42.568610599167286 2.5536085630781358 #
straight-curve $-1 0 42.568610599167286 13.185525476126847 -1 0 0 I I #
vertex $-1 $438 $601 #
point $-1 20.651676965918995 26.588173869382647 -4.1103971811903746 #
vertex $-1 $442 $602 #
point $-1 33.649900634507347 26.588173869382647 -4.1103971811903746 #
coedge $-1 $456 $455 $448 $552 forward $446 $-1 #
edge $-1 $559 30.855343354279398 $554 35.615359383999206 $551 $603 forward 7 unknown #
edge $-1 $453 39.110256620846279 $559 42.568610599167286 $452 $604 forward 7 unknown #
vertex $-1 $552 $605 #
straight-curve $-1 -52.222075686706134 -42.568610599167314 8.4255094464070055 0 0.5877852410284794 0.80901700255871778 I I #
edge $-1 $554 -30.264416426795556 $457 -13.6509020930256 $456 $606 forward 7 unknown #
point $-1 -52.222075686706134 -39.110256620846279 13.185525476126847 #
point $-1 -35.608561352936178 -42.568610599167286 8.4255094464070446 #
vertex $-1 $460 $607 #
straight-curve $-1 0 -42.568610599167286 13.185525476126847 1 0 0 I I #
vertex $-1 $463 $608 #
point $-1 -47.899372819952148 -38.518500192497463 9.1192606781497574 #
vertex $-1 $467 $609 #
point $-1 -42.915318519821156 -38.518500192497463 9.1192606781497574 #
vertex $-1 $471 $610 #
point $-1 -37.931264219690178 -38.518500192497463 9.1192606781497574 #
coedge $-1 $568 $477 $485 $573 reversed $346 $-1 #
coedge $-1 $478 $567 $480 $570 reversed $346 $-1 #
straight-curve $-1 51.146121885597083 -42.568610599167286 44.040868830406247 0 0 -1 I I #
edge $-1 $481 51.146121885597083 $576 67.759636219367053 $568 $611 forward 7 unknown #
point $-1 51.146121885597083 -42.568610599167286 13.185525476126847 #
straight-curve $-1 29.72643952624103 -42.568610599167286 8.425509446407041 1 0 0 I I #
edge $-1 $576 -13.185525476126847 $486 -8.4255094464070446 $485 $612 forward 7 unknown #
point $-1 67.759636219367039 -42.568610599167286 8.4255094464070446 #
point $-1 51.146121885597083 -42.568610599167286 8.4255094464070446 #
vertex $-1 $490 $613 #
straight-curve $-1 67.759636219367053 0 13.185525476126847 0 1 0 I I #
vertex $-1 $493 $614 #
point $-1 55.468824752351068 -38.518500192497463 9.1192606781497574 #
vertex $-1 $497 $615 #
point $-1 60.452879052482061 -38.518500192497463 9.1192606781497574 #
vertex $-1 $501 $616 #
point $-1 65.436933352613039 -38.518500192497463 9.1192606781497574 #
straight-curve $-1 -67.759636219367053 42.568610599167286 0 0 0 -1 I I #
point $-1 -67.759636219367053 -42.568610599167286 -13.185525476126847 #
straight-curve $-1 -67.759636219367053 0 -13.185525476126847 0 1 0 I I #
point $-1 -67.759636219367053 42.568610599167286 -13.185525476126847 #
coedge $-1 $523 $522 $589 $617 reversed $280 $-1 #
coedge $-1 $528 $524 $588 $617 forward $400 $-1 #
vertex $-1 $525 $618 #
straight-curve $-1 0 42.568610599167286 13.185525476126847 -1 0 0 I I #
point $-1 -52.222075686706134 42.568610599167286 13.185525476126847 #
vertex $-1 $617 $619 #
straight-curve $-1 0 -42.568610599167286 13.185525476126847 1 0 0 I I #
straight-curve $-1 -67.759636219367053 -42.568610599167286 0 0 0 -1 I I #
straight-curve $-1 -67.759636219367053 42.568610599167286 0 0 0 -1 I I #
straight-curve $-1 38.31538308023292 42.568610599167286 81.198600742744532 0 0 -1 I I #
point $-1 38.31538308023292 42.568610599167286 13.185525476126847 #
straight-curve $-1 11.575394400106589 42.568610599167286 2.5536085630781322 -1 0 0 I I #
point $-1 38.31538308023292 42.568610599167286 2.5536085630781358 #
point $-1 16.651676965918995 24.293868094409671 -7.3870053376420524 #
point $-1 29.649900634507347 24.293868094409671 -7.3870053376420524 #
straight-curve $-1 -52.222075686706134 -42.568610599167286 44.040868830406247 0 0 -1 I I #
straight-curve $-1 -52.222075686706134 0 13.185525476126847 0 -1 0 I I #
point $-1 -52.222075686706134 -42.568610599167286 8.4255094464070446 #
straight-curve $-1 -21.957659259910578 -42.568610599167286 8.425509446407041 1 0 0 I I #
point $-1 -52.222075686706134 -42.568610599167286 13.185525476126847 #
point $-1 -48.899372819952148 -37.709483189938744 8.5314754371212764 #
point $-1 -43.915318519821156 -37.709483189938744 8.5314754371212764 #
point $-1 -38.931264219690178 -37.709483189938744 8.5314754371212764 #
straight-curve $-1 0 -42.568610599167286 13.185525476126847 1 0 0 I I #
straight-curve $-1 67.759636219367053 -42.568610599167286 0 0 0 -1 I I #
point $-1 67.759636219367053 -42.568610599167286 13.185525476126847 #
point $-1 54.468824752351068 -37.709483189938744 8.5314754371212764 #
point $-1 59.452879052482061 -37.709483189938744 8.5314754371212764 #
point $-1 64.436933352613039 -37.709483189938744 8.5314754371212764 #
edge $-1 $590 -42.568610599167286 $593 42.568610599167286 $588 $620 forward 7 unknown #
point $-1 -67.759636219367053 42.568610599167286 13.185525476126847 #
point $-1 -67.759636219367053 -42.568610599167286 13.185525476126847 #
straight-curve $-1 -67.759636219367053 0 13.185525476126847 0 -1 0 I I #
End-of-ACIS-data 