500 0 9 0           
7 Unknown 11 ACIS 5.0 NT 24 Fri Mar 26 19:20:35 1999 
-1 9.9999999999999995e-007 1e-010 
body $-1 $9 $-1 $10 #
body $-1 $11 $-1 $12 #
body $-1 $13 $-1 $14 #
body $-1 $15 $-1 $16 #
body $-1 $17 $-1 $18 #
body $-1 $19 $-1 $20 #
body $-1 $21 $-1 $22 #
body $-1 $23 $-1 $24 #
body $-1 $25 $-1 $26 #
lump $-1 $-1 $27 $0 #
transform $-1 1 0 0 0 1 0 0 0 1 43.306985686819054 30.132103759255127 8.4105417335168742 1 rotate no_reflect no_shear #
lump $-1 $-1 $28 $1 #
transform $-1 1 0 0 0 1 0 0 0 1 43.306985686819054 30.132103759255127 8.4105417335168742 1 rotate no_reflect no_shear #
lump $-1 $-1 $29 $2 #
transform $-1 1 0 0 0 1 0 0 0 1 43.306985686819054 30.132103759255127 8.4105417335168742 1 rotate no_reflect no_shear #
lump $-1 $-1 $30 $3 #
transform $-1 1 0 0 0 1 0 0 0 1 43.306985686819054 30.132103759255127 8.4105417335168742 1 rotate no_reflect no_shear #
lump $-1 $-1 $31 $4 #
transform $-1 1 0 0 0 1 0 0 0 1 43.306985686819054 30.132103759255127 8.4105417335168742 1 rotate no_reflect no_shear #
lump $-1 $-1 $32 $5 #
transform $-1 1 0 0 0 1 0 0 0 1 43.306985686819054 30.132103759255127 8.4105417335168742 1 rotate no_reflect no_shear #
lump $-1 $-1 $33 $6 #
transform $-1 1 0 0 0 1 0 0 0 1 43.306985686819054 30.132103759255127 8.4105417335168742 1 rotate no_reflect no_shear #
lump $-1 $-1 $34 $7 #
transform $-1 1 0 0 0 1 0 0 0 1 43.306985686819054 30.132103759255127 8.4105417335168742 1 rotate no_reflect no_shear #
lump $-1 $-1 $35 $8 #
transform $-1 1 0 0 0 1 0 0 0 1 43.306985686819054 30.132103759255127 8.4105417335168742 1 rotate no_reflect no_shear #
shell $-1 $-1 $-1 $36 $-1 $9 #
shell $-1 $-1 $-1 $37 $-1 $11 #
shell $-1 $-1 $-1 $38 $-1 $13 #
shell $-1 $-1 $-1 $39 $-1 $15 #
shell $-1 $-1 $-1 $40 $-1 $17 #
shell $-1 $-1 $-1 $41 $-1 $19 #
shell $-1 $-1 $-1 $42 $-1 $21 #
shell $-1 $-1 $-1 $43 $-1 $23 #
shell $-1 $-1 $-1 $44 $-1 $25 #
face $-1 $45 $46 $27 $-1 $47 forward single #
face $-1 $48 $49 $28 $-1 $50 reversed single #
face $-1 $51 $52 $29 $-1 $53 reversed single #
face $-1 $54 $55 $30 $-1 $56 reversed single #
face $-1 $57 $58 $31 $-1 $59 forward single #
face $-1 $60 $61 $32 $-1 $62 reversed single #
face $-1 $63 $64 $33 $-1 $65 forward single #
face $-1 $66 $67 $34 $-1 $68 forward single #
face $-1 $69 $70 $35 $-1 $71 forward single #
face $-1 $72 $73 $27 $-1 $74 reversed single #
loop $-1 $-1 $75 $36 #
plane-surface $-1 0 0 8.4105417335168742 0 0 1 1 0 0 forward_v I I I I #
face $-1 $76 $77 $28 $-1 $78 reversed single #
loop $-1 $-1 $79 $37 #
plane-surface $-1 0 -25.088096514239265 4.4800438067813193 0 0 1 1 0 0 forward_v I I I I #
face $-1 $80 $81 $29 $-1 $82 reversed single #
loop $-1 $-1 $83 $38 #
plane-surface $-1 0 25.088096514239265 4.4800438067813193 0 0 1 1 0 0 forward_v I I I I #
face $-1 $84 $85 $30 $-1 $86 reversed single #
loop $-1 $-1 $87 $39 #
plane-surface $-1 -91.740904449856089 10.652082584590314 75.391688076603444 0 1 0 -0.55919291073839883 0 0.82903756765294845 forward_v I I I I #
face $-1 $88 $89 $31 $-1 $90 forward single #
loop $-1 $91 $92 $40 #
cone-surface $-1 -38.469236682324293 15.348085926906858 4.1284813129191686 0.55919291073839883 0 -0.82903756765294845 1.6580751353058969 0 1.1183858214767977 1 I I 0 1 2 forward I I I I #
face $-1 $93 $94 $32 $-1 $95 reversed single #
loop $-1 $-1 $96 $41 #
plane-surface $-1 77.069987246020816 13.76871986647507 120.51433246420299 0 -1 0 -0.87461971476443456 0 -0.48480960649040278 forward_v I I I I #
face $-1 $97 $98 $33 $-1 $99 forward single #
loop $-1 $100 $101 $42 #
cone-surface $-1 41.130530095904817 8.7079971708108168 5.2499646300933671 -0.87461971476443456 0 -0.48480960649040278 0.24240480324520139 0 -0.43730985738221728 1 I I 0 1 0.5 forward I I I I #
face $-1 $102 $103 $34 $-1 $104 forward single #
loop $-1 $105 $106 $43 #
cone-surface $-1 41.130530095904817 10.605768181684912 5.2499646300933671 -0.87461971476443456 0 -0.48480960649040278 0.24240480324520139 0 -0.43730985738221728 1 I I 0 1 0.5 forward I I I I #
face $-1 $107 $108 $35 $-1 $109 forward single #
loop $-1 $110 $111 $44 #
cone-surface $-1 41.130530095904817 12.503539192559007 5.2499646300933671 -0.87461971476443456 0 -0.48480960649040278 0.24240480324520139 0 -0.43730985738221728 1 I I 0 1 0.5 forward I I I I #
face $-1 $112 $113 $27 $-1 $114 reversed single #
loop $-1 $-1 $115 $45 #
plane-surface $-1 0 0 -8.4105417335168742 0 0 1 1 0 0 forward_v I I I I #
coedge $-1 $116 $117 $118 $119 forward $46 $-1 #
face $-1 $120 $121 $28 $-1 $122 reversed single #
loop $-1 $-1 $123 $48 #
plane-surface $-1 0 -20.044089269223402 6.4452927701490967 0 -1 0 0 0 -1 forward_v I I I I #
coedge $-1 $124 $125 $126 $127 reversed $49 $-1 #
face $-1 $128 $129 $29 $-1 $130 forward single #
loop $-1 $-1 $131 $51 #
plane-surface $-1 0 20.044089269223402 6.4452927701490967 0 1 0 0 0 1 forward_v I I I I #
coedge $-1 $132 $133 $134 $135 reversed $52 $-1 #
face $-1 $136 $137 $30 $-1 $138 forward single #
loop $-1 $-1 $139 $54 #
plane-surface $-1 -43.30698568681904 15.348085926906858 3.5854519242404024 -0.55919291073839883 0 0.82903756765294845 0.82903756765294845 0 0.55919291073839883 forward_v I I I I #
coedge $-1 $140 $141 $142 $143 reversed $55 $-1 #
face $-1 $-1 $144 $31 $-1 $145 forward single #
loop $-1 $146 $147 $57 #
cone-surface $-1 -36.649039609856992 15.348085926906858 1.4299282293067481 0.55919291073839883 0 -0.82903756765294845 0.82903756765294845 0 0.55919291073839883 1 I I -0.70710678118654746 0.70710678118654746 1 forward I I I I #
loop $-1 $-1 $148 $40 #
coedge $-1 $92 $92 $149 $150 reversed $58 $-1 #
face $-1 $151 $152 $32 $-1 $153 reversed single #
loop $-1 $-1 $154 $60 #
plane-surface $-1 1.3157003085945576 10.605768181684912 78.52304708597849 0.87461971476443456 0 0.48480960649040278 0.48480960649040278 0 -0.87461971476443456 forward_v I I I I #
coedge $-1 $155 $156 $157 $158 reversed $61 $-1 #
face $-1 $-1 $159 $33 $-1 $160 forward single #
loop $-1 $161 $162 $63 #
cone-surface $-1 40.299064817733459 8.7079971708108168 4.7890759175295781 -0.87461971476443456 0 -0.48480960649040278 0.12120240162260069 0 -0.21865492869110864 1 I I -0.70710678118654746 0.70710678118654746 0.25 forward I I I I #
loop $-1 $-1 $163 $42 #
coedge $-1 $101 $101 $164 $165 reversed $64 $-1 #
face $-1 $-1 $166 $34 $-1 $167 forward single #
loop $-1 $168 $169 $66 #
cone-surface $-1 40.299064817733459 10.605768181684912 4.7890759175295781 -0.87461971476443456 0 -0.48480960649040278 0.12120240162260069 0 -0.21865492869110864 1 I I -0.70710678118654746 0.70710678118654746 0.25 forward I I I I #
loop $-1 $-1 $170 $43 #
coedge $-1 $106 $106 $171 $172 reversed $67 $-1 #
face $-1 $-1 $173 $35 $-1 $174 forward single #
loop $-1 $175 $176 $69 #
cone-surface $-1 40.299064817733459 12.503539192559007 4.7890759175295781 -0.87461971476443456 0 -0.48480960649040278 0.12120240162260069 0 -0.21865492869110864 1 I I -0.70710678118654746 0.70710678118654746 0.25 forward I I I I #
loop $-1 $-1 $177 $44 #
coedge $-1 $111 $111 $178 $179 reversed $70 $-1 #
face $-1 $180 $181 $27 $-1 $182 reversed single #
loop $-1 $-1 $183 $72 #
plane-surface $-1 0 -30.132103759255127 0 0 1 0 0 0 1 forward_v I I I I #
coedge $-1 $184 $185 $186 $187 forward $73 $-1 #
coedge $-1 $188 $75 $189 $190 forward $46 $-1 #
coedge $-1 $75 $188 $191 $192 forward $46 $-1 #
coedge $-1 $193 $194 $75 $119 reversed $195 $-1 #
edge $-1 $196 -30.132103759255127 $197 30.132103759255127 $118 $198 forward 7 unknown #
face $-1 $199 $200 $28 $-1 $201 reversed single #
loop $-1 $-1 $202 $76 #
plane-surface $-1 -43.306985686819054 0 0 1 0 0 0 0 -1 forward_v I I I I #
coedge $-1 $203 $204 $205 $206 reversed $77 $-1 #
coedge $-1 $207 $79 $208 $209 reversed $49 $-1 #
coedge $-1 $79 $207 $203 $210 forward $49 $-1 #
coedge $-1 $205 $211 $79 $127 forward $212 $-1 #
edge $-1 $213 -17.588055502135497 $214 -7.5000410121037699 $126 $215 forward 7 unknown #
face $-1 $216 $217 $29 $-1 $218 reversed single #
loop $-1 $-1 $219 $80 #
plane-surface $-1 0 0 8.4105417335168742 0 0 1 1 0 0 forward_v I I I I #
coedge $-1 $220 $221 $132 $222 reversed $81 $-1 #
coedge $-1 $223 $83 $131 $222 forward $52 $-1 #
coedge $-1 $83 $223 $224 $225 reversed $52 $-1 #
coedge $-1 $226 $227 $83 $135 forward $217 $-1 #
edge $-1 $228 7.5000410121037699 $229 17.588055502135497 $134 $230 forward 7 unknown #
face $-1 $231 $232 $30 $-1 $233 forward single #
loop $-1 $-1 $142 $84 #
plane-surface $-1 0 0 8.4105417335168742 0 0 1 1 0 0 forward_v I I I I #
coedge $-1 $234 $235 $236 $237 reversed $85 $-1 #
coedge $-1 $141 $87 $238 $239 reversed $55 $-1 #
coedge $-1 $87 $140 $234 $240 reversed $55 $-1 #
coedge $-1 $236 $241 $87 $143 forward $137 $-1 #
edge $-1 $242 2.5634665381089903 $243 9.7169562236407216 $142 $244 forward 7 unknown #
loop $-1 $-1 $149 $88 #
plane-surface $-1 -43.30698568681904 15.348085926906858 3.5854519242404024 -0.55919291073839883 0 0.82903756765294845 0.82903756765294845 0 0.55919291073839883 forward_v I I I I #
loop $-1 $-1 $245 $57 #
coedge $-1 $147 $147 $148 $246 reversed $89 $-1 #
coedge $-1 $148 $148 $147 $246 forward $91 $-1 #
coedge $-1 $149 $149 $92 $150 forward $144 $-1 #
edge $-1 $247 0 $247 6.2831853071796004 $149 $248 forward 7 unknown #
face $-1 $249 $250 $32 $-1 $251 forward single #
loop $-1 $-1 $252 $93 #
plane-surface $-1 77.069987246020816 7.4428164968947534 120.51433246420299 0 1 0 0.87461971476443456 0 0.48480960649040278 forward_v I I I I #
coedge $-1 $253 $254 $255 $256 reversed $94 $-1 #
coedge $-1 $156 $96 $257 $258 reversed $61 $-1 #
coedge $-1 $96 $155 $253 $259 reversed $61 $-1 #
coedge $-1 $255 $260 $96 $158 forward $250 $-1 #
edge $-1 $261 -4.7719920638086464 $262 -1.6447015809406835 $157 $263 forward 7 unknown #
loop $-1 $-1 $164 $97 #
plane-surface $-1 1.3157003085945576 10.605768181684912 78.52304708597849 0.87461971476443456 0 0.48480960649040278 0.48480960649040278 0 -0.87461971476443456 forward_v I I I I #
loop $-1 $-1 $264 $63 #
coedge $-1 $162 $162 $163 $265 reversed $98 $-1 #
coedge $-1 $163 $163 $162 $265 forward $100 $-1 #
coedge $-1 $164 $164 $101 $165 forward $159 $-1 #
edge $-1 $266 0 $266 6.2831853071796004 $164 $267 forward 7 unknown #
loop $-1 $-1 $171 $102 #
plane-surface $-1 1.3157003085945576 10.605768181684912 78.52304708597849 0.87461971476443456 0 0.48480960649040278 0.48480960649040278 0 -0.87461971476443456 forward_v I I I I #
loop $-1 $-1 $268 $66 #
coedge $-1 $169 $169 $170 $269 reversed $103 $-1 #
coedge $-1 $170 $170 $169 $269 forward $105 $-1 #
coedge $-1 $171 $171 $106 $172 forward $166 $-1 #
edge $-1 $270 0 $270 6.2831853071796004 $171 $271 forward 7 unknown #
loop $-1 $-1 $178 $107 #
plane-surface $-1 1.3157003085945576 10.605768181684912 78.52304708597849 0.87461971476443456 0 0.48480960649040278 0.48480960649040278 0 -0.87461971476443456 forward_v I I I I #
loop $-1 $-1 $272 $69 #
coedge $-1 $176 $176 $177 $273 reversed $108 $-1 #
coedge $-1 $177 $177 $176 $273 forward $110 $-1 #
coedge $-1 $178 $178 $111 $179 forward $173 $-1 #
edge $-1 $274 0 $274 6.2831853071796004 $178 $275 forward 7 unknown #
face $-1 $276 $277 $27 $-1 $278 reversed single #
loop $-1 $-1 $279 $112 #
plane-surface $-1 -43.306985686819054 0 0 1 0 0 0 0 -1 forward_v I I I I #
coedge $-1 $280 $191 $281 $282 forward $113 $-1 #
coedge $-1 $283 $115 $280 $284 forward $73 $-1 #
coedge $-1 $115 $283 $285 $286 forward $73 $-1 #
coedge $-1 $194 $193 $115 $187 reversed $195 $-1 #
edge $-1 $287 -30.132103759255127 $288 30.132103759255127 $186 $289 forward 7 unknown #
coedge $-1 $117 $116 $290 $291 forward $46 $-1 #
coedge $-1 $292 $293 $116 $190 reversed $277 $-1 #
edge $-1 $197 -43.306985686819054 $294 43.306985686819054 $189 $295 forward 7 unknown #
coedge $-1 $183 $296 $117 $192 reversed $113 $-1 #
edge $-1 $297 -43.306985686819054 $196 43.306985686819054 $191 $298 forward 7 unknown #
coedge $-1 $186 $118 $296 $299 forward $195 $-1 #
coedge $-1 $118 $186 $292 $300 reversed $195 $-1 #
loop $-1 $-1 $193 $276 #
vertex $-1 $119 $301 #
vertex $-1 $119 $302 #
straight-curve $-1 43.306985686819054 0 8.4105417335168742 0 1 0 I I #
face $-1 $303 $304 $28 $-1 $305 forward single #
loop $-1 $-1 $208 $120 #
plane-surface $-1 0 -30.132103759255127 0 0 1 0 0 0 1 forward_v I I I I #
coedge $-1 $306 $307 $308 $309 forward $121 $-1 #
coedge $-1 $308 $123 $125 $210 reversed $77 $-1 #
coedge $-1 $123 $308 $310 $311 reversed $77 $-1 #
coedge $-1 $312 $126 $123 $206 forward $212 $-1 #
edge $-1 $214 1.2573974217067709 $313 5.1878953484423258 $205 $314 forward 7 unknown #
coedge $-1 $125 $124 $306 $315 reversed $49 $-1 #
coedge $-1 $316 $317 $124 $209 forward $200 $-1 #
edge $-1 $318 -43.306985686819054 $213 43.306985686819054 $208 $319 forward 7 unknown #
edge $-1 $320 -43.306985686819054 $214 43.306985686819054 $203 $321 forward 7 unknown #
coedge $-1 $126 $312 $316 $322 forward $212 $-1 #
loop $-1 $-1 $205 $303 #
vertex $-1 $209 $323 #
vertex $-1 $127 $324 #
straight-curve $-1 43.306985686819054 -12.544048257119632 4.4800438067813193 0 1 0 I I #
face $-1 $325 $326 $29 $-1 $327 reversed single #
loop $-1 $-1 $227 $128 #
plane-surface $-1 43.306985686819054 0 0 -1 0 0 0 0 1 forward_v I I I I #
coedge $-1 $328 $329 $330 $331 forward $129 $-1 #
coedge $-1 $330 $131 $227 $332 reversed $81 $-1 #
coedge $-1 $131 $330 $333 $334 reversed $81 $-1 #
edge $-1 $228 -43.306985686819054 $335 43.306985686819054 $131 $336 forward 7 unknown #
coedge $-1 $133 $132 $337 $338 reversed $52 $-1 #
coedge $-1 $339 $340 $133 $225 forward $341 $-1 #
edge $-1 $229 -43.306985686819054 $342 43.306985686819054 $224 $343 forward 7 unknown #
coedge $-1 $344 $134 $340 $345 reversed $217 $-1 #
coedge $-1 $134 $344 $220 $332 forward $217 $-1 #
vertex $-1 $135 $346 #
vertex $-1 $225 $347 #
straight-curve $-1 43.306985686819054 12.544048257119632 4.4800438067813193 0 1 0 I I #
face $-1 $-1 $348 $30 $-1 $349 reversed single #
loop $-1 $-1 $350 $136 #
plane-surface $-1 0 20.044089269223402 6.4452927701490967 0 1 0 0 0 1 forward_v I I I I #
coedge $-1 $351 $139 $141 $240 forward $85 $-1 #
coedge $-1 $139 $351 $350 $352 forward $85 $-1 #
coedge $-1 $353 $142 $139 $237 forward $137 $-1 #
edge $-1 $243 2.9780396211368849 $354 12.370046305769973 $236 $355 forward 7 unknown #
coedge $-1 $356 $357 $140 $239 forward $348 $-1 #
edge $-1 $358 -34.110392114061327 $242 -29.28530230478485 $238 $359 forward 7 unknown #
edge $-1 $243 -8.6286677041471656 $358 1.7244626260799089e-014 $141 $360 forward 7 unknown #
coedge $-1 $142 $353 $356 $361 forward $137 $-1 #
vertex $-1 $239 $362 #
vertex $-1 $143 $363 #
straight-curve $-1 -45.870452224928044 10.652082584590314 8.4105417335168724 1 0 0 I I #
coedge $-1 $245 $245 $-1 $364 reversed $146 $-1 #
edge $-1 $365 0 $365 6.2831853071796004 $147 $366 forward 7 unknown #
vertex $-1 $150 $367 #
ellipse-curve $-1 -39.730240844053192 15.348085926906858 5.9979968288786303 -0.55919291073839883 0 0.82903756765294845 1.6580751353058969 0 1.1183858214767977 1 I I #
face $-1 $-1 $368 $32 $-1 $369 reversed single #
loop $-1 $-1 $157 $151 #
plane-surface $-1 0 0 8.4105417335168742 0 0 1 1 0 0 forward_v I I I I #
coedge $-1 $370 $371 $372 $373 reversed $152 $-1 #
coedge $-1 $374 $154 $156 $259 forward $94 $-1 #
coedge $-1 $154 $374 $370 $375 forward $94 $-1 #
coedge $-1 $372 $157 $154 $256 forward $250 $-1 #
edge $-1 $262 -8.4658357756326144 $376 -2.1399324060522975 $255 $377 forward 7 unknown #
coedge $-1 $378 $379 $155 $258 forward $368 $-1 #
edge $-1 $380 -57.488406083549251 $261 -51.846624498584625 $257 $381 forward 7 unknown #
edge $-1 $262 80.163417504652699 $380 86.613971373638094 $156 $382 forward 7 unknown #
coedge $-1 $157 $372 $378 $383 forward $250 $-1 #
vertex $-1 $258 $384 #
vertex $-1 $158 $385 #
straight-curve $-1 38.534993623010408 13.76871986647507 8.4105417335168724 -1 0 0 I I #
coedge $-1 $264 $264 $-1 $386 reversed $161 $-1 #
edge $-1 $387 0 $387 6.2831853071796004 $162 $388 forward 7 unknown #
vertex $-1 $165 $389 #
ellipse-curve $-1 41.743340445385073 8.7079971708108168 5.5896509410345594 0.87461971476443456 0 0.48480960649040278 0.24240480324520139 0 -0.43730985738221728 1 I I #
coedge $-1 $268 $268 $-1 $390 reversed $168 $-1 #
edge $-1 $391 0 $391 6.2831853071796004 $169 $392 forward 7 unknown #
vertex $-1 $172 $393 #
ellipse-curve $-1 41.743340445385073 10.605768181684912 5.5896509410345594 0.87461971476443456 0 0.48480960649040278 0.24240480324520139 0 -0.43730985738221728 1 I I #
coedge $-1 $272 $272 $-1 $394 reversed $175 $-1 #
edge $-1 $395 0 $395 6.2831853071796004 $176 $396 forward 7 unknown #
vertex $-1 $179 $397 #
ellipse-curve $-1 41.743340445385073 12.503539192559007 5.5896509410345594 0.87461971476443456 0 0.48480960649040278 0.24240480324520139 0 -0.43730985738221728 1 I I #
face $-1 $-1 $195 $27 $-1 $398 reversed single #
loop $-1 $-1 $292 $180 #
plane-surface $-1 0 30.132103759255127 0 0 -1 0 0 0 -1 forward_v I I I I #
coedge $-1 $399 $290 $293 $400 forward $181 $-1 #
coedge $-1 $296 $183 $184 $284 reversed $113 $-1 #
coedge $-1 $290 $399 $183 $282 reversed $181 $-1 #
edge $-1 $297 -8.4105417335168742 $401 8.4105417335168742 $281 $402 forward 7 unknown #
coedge $-1 $185 $184 $399 $403 forward $73 $-1 #
edge $-1 $288 -43.306985686819054 $401 43.306985686819054 $280 $404 forward 7 unknown #
coedge $-1 $293 $292 $185 $286 reversed $277 $-1 #
edge $-1 $405 -43.306985686819054 $287 43.306985686819054 $285 $406 forward 7 unknown #
vertex $-1 $187 $407 #
vertex $-1 $299 $408 #
straight-curve $-1 43.306985686819054 0 -8.4105417335168742 0 -1 0 I I #
coedge $-1 $279 $281 $188 $291 reversed $181 $-1 #
edge $-1 $294 -30.132103759255127 $297 30.132103759255127 $290 $409 forward 7 unknown #
coedge $-1 $285 $189 $194 $300 forward $277 $-1 #
coedge $-1 $189 $285 $279 $400 reversed $277 $-1 #
vertex $-1 $190 $410 #
straight-curve $-1 0 30.132103759255127 8.4105417335168742 -1 0 0 I I #
coedge $-1 $191 $280 $193 $299 reversed $113 $-1 #
vertex $-1 $291 $411 #
straight-curve $-1 0 -30.132103759255127 8.4105417335168742 1 0 0 I I #
edge $-1 $196 -8.4105417335168742 $288 8.4105417335168742 $193 $412 forward 7 unknown #
edge $-1 $197 -8.4105417335168742 $287 8.4105417335168742 $194 $413 forward 7 unknown #
point $-1 43.306985686819054 -30.132103759255127 8.4105417335168742 #
point $-1 43.306985686819054 30.132103759255127 8.4105417335168742 #
face $-1 $-1 $212 $28 $-1 $414 reversed single #
loop $-1 $-1 $310 $199 #
plane-surface $-1 0 0 8.4105417335168742 0 0 1 1 0 0 forward_v I I I I #
coedge $-1 $415 $202 $207 $315 forward $121 $-1 #
coedge $-1 $202 $415 $416 $417 reversed $121 $-1 #
coedge $-1 $204 $203 $202 $309 reversed $77 $-1 #
edge $-1 $418 -5.1878953484423258 $320 -1.2573974217067709 $202 $419 forward 7 unknown #
coedge $-1 $416 $420 $204 $311 forward $304 $-1 #
edge $-1 $313 -43.306985686819054 $418 43.306985686819054 $310 $421 forward 7 unknown #
coedge $-1 $211 $205 $420 $422 reversed $212 $-1 #
vertex $-1 $206 $423 #
straight-curve $-1 43.306985686819054 -20.044089269223402 3.2226463850745484 0 0 1 I I #
edge $-1 $320 7.5000410121037699 $318 17.588055502135497 $306 $424 forward 7 unknown #
coedge $-1 $425 $208 $211 $322 reversed $200 $-1 #
coedge $-1 $208 $425 $415 $426 forward $200 $-1 #
vertex $-1 $209 $427 #
straight-curve $-1 0 -30.132103759255127 4.4800438067813193 1 0 0 I I #
vertex $-1 $315 $428 #
straight-curve $-1 0 -20.044089269223402 4.4800438067813193 1 0 0 I I #
edge $-1 $429 -8.4105417335168742 $213 -4.4800438067813193 $211 $430 forward 7 unknown #
point $-1 43.306985686819054 -30.132103759255127 4.4800438067813193 #
point $-1 43.306985686819054 -20.044089269223402 4.4800438067813193 #
face $-1 $-1 $341 $29 $-1 $431 reversed single #
loop $-1 $-1 $333 $216 #
plane-surface $-1 -43.306985686819054 0 0 1 0 0 0 0 -1 forward_v I I I I #
coedge $-1 $432 $219 $344 $433 forward $129 $-1 #
coedge $-1 $219 $432 $434 $435 forward $129 $-1 #
coedge $-1 $221 $220 $219 $331 reversed $81 $-1 #
edge $-1 $436 -43.306985686819054 $437 43.306985686819054 $219 $438 forward 7 unknown #
edge $-1 $437 -5.1878953484423258 $228 -1.2573974217067709 $227 $439 forward 7 unknown #
coedge $-1 $434 $337 $221 $334 forward $326 $-1 #
edge $-1 $335 1.2573974217067709 $436 5.1878953484423258 $333 $440 forward 7 unknown #
vertex $-1 $338 $441 #
straight-curve $-1 0 20.044089269223402 4.4800438067813193 -1 0 0 I I #
coedge $-1 $333 $442 $223 $338 forward $326 $-1 #
edge $-1 $342 -17.588055502135497 $335 -7.5000410121037699 $337 $443 forward 7 unknown #
coedge $-1 $444 $224 $442 $445 reversed $341 $-1 #
coedge $-1 $224 $444 $226 $345 forward $341 $-1 #
loop $-1 $-1 $224 $325 #
vertex $-1 $225 $446 #
straight-curve $-1 0 30.132103759255127 4.4800438067813193 -1 0 0 I I #
coedge $-1 $227 $226 $328 $433 reversed $217 $-1 #
edge $-1 $447 -8.4105417335168742 $229 -4.4800438067813193 $226 $448 forward 7 unknown #
point $-1 43.306985686819054 20.044089269223402 4.4800438067813193 #
point $-1 43.306985686819054 30.132103759255127 4.4800438067813193 #
loop $-1 $-1 $238 $231 #
plane-surface $-1 -43.306985686819054 0 0 1 0 0 0 0 -1 forward_v I I I I #
coedge $-1 $449 $450 $235 $352 reversed $232 $-1 #
coedge $-1 $235 $234 $357 $451 reversed $85 $-1 #
edge $-1 $452 -1.7244626260799089e-014 $354 8.6286677041471656 $350 $453 forward 7 unknown #
coedge $-1 $241 $236 $450 $454 forward $137 $-1 #
vertex $-1 $454 $455 #
straight-curve $-1 -36.153496001287323 7.6740429634534291 8.4105417335168742 0 1 0 I I #
coedge $-1 $456 $238 $241 $361 reversed $348 $-1 #
coedge $-1 $238 $456 $351 $451 forward $348 $-1 #
vertex $-1 $239 $457 #
straight-curve $-1 -43.306985686819054 10.652082584590314 37.695844038301722 0 0 1 I I #
straight-curve $-1 -43.30698568681904 10.652082584590314 3.5854519242404024 -0.82903756765294845 0 -0.55919291073839883 I I #
edge $-1 $458 -20.044089269223402 $242 -10.652082584590314 $356 $459 forward 7 unknown #
point $-1 -43.306985686819054 10.652082584590314 8.4105417335168742 #
point $-1 -36.153496001287323 10.652082584590314 8.4105417335168742 #
edge $-1 $460 1 $460 0 $245 $-1 forward 7 unknown #
vertex $-1 $246 $461 #
ellipse-curve $-1 -37.208232520595388 15.348085926906858 2.2589657969596963 -0.55919291073839883 0 0.82903756765294845 1.6580751353058969 0 1.1183858214767977 1 I I #
point $-1 -38.072165708747306 15.348085926906858 7.1163826503554377 #
loop $-1 $-1 $257 $249 #
plane-surface $-1 43.306985686819054 0 0 -1 0 0 0 0 1 forward_v I I I I #
coedge $-1 $371 $252 $254 $375 reversed $152 $-1 #
coedge $-1 $252 $370 $462 $463 reversed $152 $-1 #
coedge $-1 $260 $255 $252 $373 forward $250 $-1 #
edge $-1 $376 1.6447015809406835 $464 4.7719920638086464 $372 $465 forward 7 unknown #
coedge $-1 $254 $253 $379 $466 reversed $94 $-1 #
edge $-1 $467 -86.613971373638094 $376 -80.163417504652699 $370 $468 forward 7 unknown #
vertex $-1 $256 $469 #
straight-curve $-1 40.179695203951098 5.3028840908424559 8.4105417335168653 0 -1 0 I I #
coedge $-1 $462 $257 $260 $383 reversed $368 $-1 #
coedge $-1 $257 $462 $374 $466 forward $368 $-1 #
vertex $-1 $258 $470 #
straight-curve $-1 43.306985686819054 13.76871986647507 60.257166232101497 0 0 1 I I #
straight-curve $-1 1.3157003085945576 13.76871986647507 78.52304708597849 0.48480960649040278 0 -0.87461971476443456 I I #
edge $-1 $464 7.4428164968947534 $261 13.76871986647507 $378 $471 forward 7 unknown #
point $-1 43.306985686819054 13.76871986647507 8.4105417335168742 #
point $-1 40.179695203951091 13.76871986647507 8.4105417335168795 #
edge $-1 $472 1 $472 0 $264 $-1 forward 7 unknown #
vertex $-1 $265 $473 #
ellipse-curve $-1 40.517719746424568 8.7079971708108168 4.9102783191521784 0.87461971476443456 0 0.48480960649040278 0.24240480324520139 0 -0.43730985738221728 1 I I #
point $-1 41.985745248630266 8.7079971708108168 5.1523410836523373 #
edge $-1 $474 1 $474 0 $268 $-1 forward 7 unknown #
vertex $-1 $269 $475 #
ellipse-curve $-1 40.517719746424568 10.605768181684912 4.9102783191521784 0.87461971476443456 0 0.48480960649040278 0.24240480324520139 0 -0.43730985738221728 1 I I #
point $-1 41.985745248630266 10.605768181684912 5.1523410836523373 #
edge $-1 $476 1 $476 0 $272 $-1 forward 7 unknown #
vertex $-1 $273 $477 #
ellipse-curve $-1 40.517719746424568 12.503539192559007 4.9102783191521784 0.87461971476443456 0 0.48480960649040278 0.24240480324520139 0 -0.43730985738221728 1 I I #
point $-1 41.985745248630266 12.503539192559007 5.1523410836523373 #
plane-surface $-1 43.306985686819054 0 0 -1 0 0 0 0 1 forward_v I I I I #
coedge $-1 $281 $279 $283 $403 reversed $181 $-1 #
edge $-1 $294 -8.4105417335168742 $405 8.4105417335168742 $293 $478 forward 7 unknown #
vertex $-1 $403 $479 #
straight-curve $-1 -43.306985686819054 -30.132103759255127 0 0 0 -1 I I #
edge $-1 $401 -30.132103759255127 $405 30.132103759255127 $399 $480 forward 7 unknown #
straight-curve $-1 0 -30.132103759255127 -8.4105417335168742 -1 0 0 I I #
vertex $-1 $286 $481 #
straight-curve $-1 0 30.132103759255127 -8.4105417335168742 1 0 0 I I #
point $-1 43.306985686819054 30.132103759255127 -8.4105417335168742 #
point $-1 43.306985686819054 -30.132103759255127 -8.4105417335168742 #
straight-curve $-1 -43.306985686819054 0 8.4105417335168742 0 -1 0 I I #
point $-1 -43.306985686819054 30.132103759255127 8.4105417335168742 #
point $-1 -43.306985686819054 -30.132103759255127 8.4105417335168742 #
straight-curve $-1 43.306985686819054 -30.132103759255127 0 0 0 -1 I I #
straight-curve $-1 43.306985686819054 30.132103759255127 0 0 0 -1 I I #
plane-surface $-1 43.306985686819054 0 0 -1 0 0 0 0 1 forward_v I I I I #
coedge $-1 $307 $306 $317 $426 reversed $121 $-1 #
coedge $-1 $482 $310 $307 $417 forward $304 $-1 #
edge $-1 $418 20.044089269223402 $483 30.132103759255127 $307 $484 forward 7 unknown #
vertex $-1 $417 $485 #
straight-curve $-1 -43.306985686819054 -20.044089269223402 3.2226463850745484 0 0 -1 I I #
coedge $-1 $310 $482 $312 $422 forward $304 $-1 #
straight-curve $-1 0 -20.044089269223402 8.4105417335168742 -1 0 0 I I #
edge $-1 $429 -30.132103759255127 $313 -20.044089269223402 $312 $486 forward 7 unknown #
point $-1 43.306985686819054 -20.044089269223402 8.4105417335168742 #
straight-curve $-1 -43.306985686819054 -12.544048257119632 4.4800438067813193 0 -1 0 I I #
coedge $-1 $317 $316 $482 $487 reversed $200 $-1 #
edge $-1 $483 -8.4105417335168742 $318 -4.4800438067813193 $415 $488 forward 7 unknown #
point $-1 -43.306985686819054 -30.132103759255127 4.4800438067813193 #
point $-1 -43.306985686819054 -20.044089269223402 4.4800438067813193 #
vertex $-1 $422 $489 #
straight-curve $-1 43.306985686819054 -30.132103759255127 0 0 0 -1 I I #
plane-surface $-1 0 30.132103759255127 0 0 -1 0 0 0 -1 forward_v I I I I #
coedge $-1 $329 $328 $444 $490 forward $129 $-1 #
edge $-1 $437 20.044089269223402 $447 30.132103759255127 $344 $491 forward 7 unknown #
coedge $-1 $442 $333 $329 $435 reversed $326 $-1 #
edge $-1 $492 -30.132103759255127 $436 -20.044089269223402 $434 $493 forward 7 unknown #
vertex $-1 $334 $494 #
vertex $-1 $433 $495 #
straight-curve $-1 0 20.044089269223402 8.4105417335168742 1 0 0 I I #
straight-curve $-1 43.306985686819054 20.044089269223402 3.2226463850745484 0 0 -1 I I #
straight-curve $-1 -43.306985686819054 20.044089269223402 3.2226463850745484 0 0 1 I I #
point $-1 -43.306985686819054 20.044089269223402 4.4800438067813193 #
coedge $-1 $337 $434 $339 $445 forward $326 $-1 #
straight-curve $-1 -43.306985686819054 12.544048257119632 4.4800438067813193 0 -1 0 I I #
coedge $-1 $340 $339 $432 $490 reversed $341 $-1 #
edge $-1 $492 -8.4105417335168742 $342 -4.4800438067813193 $339 $496 forward 7 unknown #
point $-1 -43.306985686819054 30.132103759255127 4.4800438067813193 #
vertex $-1 $433 $497 #
straight-curve $-1 43.306985686819054 30.132103759255127 0 0 0 -1 I I #
coedge $-1 $450 $350 $456 $498 reversed $232 $-1 #
coedge $-1 $350 $449 $353 $454 reversed $232 $-1 #
edge $-1 $452 -12.370046305769973 $358 -2.9780396211368849 $357 $499 forward 7 unknown #
vertex $-1 $498 $500 #
straight-curve $-1 -43.30698568681904 20.044089269223402 3.5854519242404024 0.82903756765294845 0 0.55919291073839883 I I #
edge $-1 $354 36.153496001287323 $458 43.306985686819054 $353 $501 forward 7 unknown #
point $-1 -36.153496001287323 20.044089269223402 8.4105417335168742 #
coedge $-1 $357 $356 $449 $498 forward $348 $-1 #
point $-1 -43.306985686819054 10.652082584590314 3.5854519242403926 #
vertex $-1 $361 $502 #
straight-curve $-1 -43.306985686819054 0 8.4105417335168742 0 -1 0 I I #
vertex $-1 $364 $503 #
point $-1 -35.550157385289495 15.348085926906858 3.377351618436494 #
coedge $-1 $379 $378 $371 $463 forward $368 $-1 #
edge $-1 $464 51.846624498584625 $467 57.488406083549251 $462 $504 forward 7 unknown #
vertex $-1 $383 $505 #
straight-curve $-1 38.534993623010408 7.4428164968947534 8.4105417335168724 1 0 0 I I #
edge $-1 $467 2.1399324060522975 $380 8.4658357756326144 $379 $506 forward 7 unknown #
vertex $-1 $466 $507 #
straight-curve $-1 1.3157003085945576 7.4428164968947534 78.52304708597849 -0.48480960649040278 0 0.87461971476443456 I I #
point $-1 40.179695203951091 7.4428164968947534 8.4105417335168795 #
point $-1 43.306985686819054 13.76871986647507 2.7687601485522464 #
straight-curve $-1 43.306985686819054 0 8.4105417335168742 0 1 0 I I #
vertex $-1 $386 $508 #
point $-1 40.760124549669769 8.7079971708108168 4.4729684617699617 #
vertex $-1 $390 $509 #
point $-1 40.760124549669769 10.605768181684912 4.4729684617699617 #
vertex $-1 $394 $510 #
point $-1 40.760124549669769 12.503539192559007 4.4729684617699617 #
straight-curve $-1 -43.306985686819054 30.132103759255127 0 0 0 -1 I I #
point $-1 -43.306985686819054 -30.132103759255127 -8.4105417335168742 #
straight-curve $-1 -43.306985686819054 0 -8.4105417335168742 0 1 0 I I #
point $-1 -43.306985686819054 30.132103759255127 -8.4105417335168742 #
coedge $-1 $420 $416 $425 $487 forward $304 $-1 #
vertex $-1 $417 $511 #
straight-curve $-1 -43.306985686819054 0 8.4105417335168742 0 -1 0 I I #
point $-1 -43.306985686819054 -20.044089269223402 8.4105417335168742 #
straight-curve $-1 43.306985686819054 0 8.4105417335168742 0 1 0 I I #
edge $-1 $483 -43.306985686819054 $429 43.306985686819054 $425 $512 forward 7 unknown #
straight-curve $-1 -43.306985686819054 -30.132103759255127 0 0 0 -1 I I #
point $-1 43.306985686819054 -30.132103759255127 8.4105417335168742 #
edge $-1 $447 -43.306985686819054 $492 43.306985686819054 $444 $513 forward 7 unknown #
straight-curve $-1 43.306985686819054 0 8.4105417335168742 0 1 0 I I #
vertex $-1 $490 $514 #
straight-curve $-1 -43.306985686819054 0 8.4105417335168742 0 -1 0 I I #
point $-1 -43.306985686819054 20.044089269223402 8.4105417335168742 #
point $-1 43.306985686819054 20.044089269223402 8.4105417335168742 #
straight-curve $-1 -43.306985686819054 30.132103759255127 0 0 0 -1 I I #
point $-1 43.306985686819054 30.132103759255127 8.4105417335168742 #
edge $-1 $458 29.28530230478485 $452 34.110392114061327 $456 $515 forward 7 unknown #
straight-curve $-1 -43.306985686819054 7.6740429634534291 3.5854519242403917 0 -1 0 I I #
point $-1 -43.306985686819054 20.044089269223402 3.5854519242403926 #
straight-curve $-1 0 20.044089269223402 8.4105417335168742 -1 0 0 I I #
point $-1 -43.306985686819054 20.044089269223402 8.4105417335168742 #
point $-1 -36.089846699118596 15.348085926906858 0.60089066165379967 #
straight-curve $-1 43.306985686819054 7.4428164968947534 60.257166232101497 0 0 -1 I I #
point $-1 43.306985686819054 7.4428164968947534 8.4105417335168742 #
straight-curve $-1 43.306985686819054 5.3028840908424559 2.7687601485522464 0 1 0 I I #
point $-1 43.306985686819054 7.4428164968947534 2.7687601485522464 #
point $-1 40.08040988904235 8.7079971708108168 4.6678735159069777 #
point $-1 40.08040988904235 10.605768181684912 4.6678735159069777 #
point $-1 40.08040988904235 12.503539192559007 4.6678735159069777 #
point $-1 -43.306985686819054 -30.132103759255127 8.4105417335168742 #
straight-curve $-1 0 -30.132103759255127 8.4105417335168742 1 0 0 I I #
straight-curve $-1 0 30.132103759255127 8.4105417335168742 -1 0 0 I I #
point $-1 -43.306985686819054 30.132103759255127 8.4105417335168742 #
straight-curve $-1 -43.306985686819054 20.044089269223402 37.695844038301722 0 0 -1 I I #
End-of-ACIS-data 