500 0 6 0           
7 Unknown 11 ACIS 5.0 NT 24 Fri Mar 26 17:00:49 1999 
-1 9.9999999999999995e-007 1e-010 
body $-1 $6 $-1 $7 #
body $-1 $8 $-1 $9 #
body $-1 $10 $-1 $11 #
body $-1 $12 $-1 $13 #
body $-1 $14 $-1 $15 #
body $-1 $16 $-1 $17 #
lump $-1 $-1 $18 $0 #
transform $-1 1 0 0 0 1 0 0 0 1 74.29792168950469 30.61504284370017 15.293226242080543 1 rotate no_reflect no_shear #
lump $-1 $-1 $19 $1 #
transform $-1 1 0 0 0 1 0 0 0 1 74.29792168950469 30.61504284370017 15.293226242080543 1 rotate no_reflect no_shear #
lump $-1 $-1 $20 $2 #
transform $-1 1 0 0 0 1 0 0 0 1 74.29792168950469 30.61504284370017 15.293226242080543 1 rotate no_reflect no_shear #
lump $-1 $-1 $21 $3 #
transform $-1 1 0 0 0 1 0 0 0 1 74.29792168950469 30.61504284370017 15.293226242080543 1 rotate no_reflect no_shear #
lump $-1 $-1 $22 $4 #
transform $-1 1 0 0 0 1 0 0 0 1 74.29792168950469 30.61504284370017 15.293226242080543 1 rotate no_reflect no_shear #
lump $-1 $-1 $23 $5 #
transform $-1 1 0 0 0 1 0 0 0 1 74.29792168950469 30.61504284370017 15.293226242080543 1 rotate no_reflect no_shear #
shell $-1 $-1 $-1 $24 $-1 $6 #
shell $-1 $-1 $-1 $25 $-1 $8 #
shell $-1 $-1 $-1 $26 $-1 $10 #
shell $-1 $-1 $-1 $27 $-1 $12 #
shell $-1 $-1 $-1 $28 $-1 $14 #
shell $-1 $-1 $-1 $29 $-1 $16 #
face $-1 $30 $31 $18 $-1 $32 forward single #
face $-1 $33 $34 $19 $-1 $35 reversed single #
face $-1 $36 $37 $20 $-1 $38 reversed single #
face $-1 $39 $40 $21 $-1 $41 forward single #
face $-1 $42 $43 $22 $-1 $44 reversed single #
face $-1 $45 $46 $23 $-1 $47 forward single #
face $-1 $48 $49 $18 $-1 $50 reversed single #
loop $-1 $-1 $51 $24 #
plane-surface $-1 0 0 15.293226242080543 0 0 1 1 0 0 forward_v I I I I #
face $-1 $52 $53 $19 $-1 $54 reversed single #
loop $-1 $-1 $55 $25 #
plane-surface $-1 0 -21.993172092768109 8.8119824439520702 0 0 1 1 0 0 forward_v I I I I #
face $-1 $56 $57 $20 $-1 $58 reversed single #
loop $-1 $-1 $59 $26 #
plane-surface $-1 -43.627615895202695 62.946743720971682 165.80065493382256 1 0 0 0 -0.55919291073839883 -0.82903756765294845 forward_v I I I I #
face $-1 $60 $61 $21 $-1 $62 forward single #
loop $-1 $63 $64 $27 #
cone-surface $-1 -36.192381817867116 24.836121824165446 10.872777543823847 0 -0.55919291073839883 -0.82903756765294845 2 0 0 1 I I 0 1 2 forward I I I I #
face $-1 $65 $66 $22 $-1 $67 reversed single #
loop $-1 $-1 $68 $28 #
plane-surface $-1 30.670305794301996 62.946743720971682 165.80065493382256 1 0 0 0 -0.55919291073839883 -0.82903756765294845 forward_v I I I I #
face $-1 $69 $70 $23 $-1 $71 forward single #
loop $-1 $72 $73 $29 #
cone-surface $-1 38.105539871637575 24.836121824165446 10.872777543823847 0 -0.55919291073839883 -0.82903756765294845 2 0 0 1 I I 0 1 2 forward I I I I #
face $-1 $74 $75 $18 $-1 $76 reversed single #
loop $-1 $-1 $77 $30 #
plane-surface $-1 0 0 -15.293226242080543 0 0 1 1 0 0 forward_v I I I I #
coedge $-1 $78 $79 $80 $81 forward $31 $-1 #
face $-1 $82 $83 $19 $-1 $84 reversed single #
loop $-1 $-1 $85 $33 #
plane-surface $-1 0 -13.371301341836048 12.052604343016306 0 -1 0 0 0 -1 forward_v I I I I #
coedge $-1 $86 $87 $88 $89 reversed $34 $-1 #
face $-1 $90 $91 $20 $-1 $92 reversed single #
loop $-1 $-1 $93 $36 #
plane-surface $-1 -36.192381817867116 -20.1469984617638 42.609118375550139 0 0.55919291073839883 0.82903756765294845 1 0 0 forward_v I I I I #
coedge $-1 $94 $95 $96 $97 reversed $37 $-1 #
face $-1 $-1 $98 $21 $-1 $99 forward single #
loop $-1 $100 $101 $39 #
cone-surface $-1 -36.192381817867116 23.630291180928229 9.0850601313288948 0 -0.55919291073839883 -0.82903756765294845 1 0 0 1 I I -0.70710678118654746 0.70710678118654746 1 forward I I I I #
loop $-1 $-1 $102 $27 #
coedge $-1 $64 $64 $103 $104 reversed $40 $-1 #
face $-1 $105 $106 $22 $-1 $107 reversed single #
loop $-1 $-1 $108 $42 #
plane-surface $-1 38.105539871637575 -20.1469984617638 42.609118375550139 0 0.55919291073839883 0.82903756765294845 1 0 0 forward_v I I I I #
coedge $-1 $109 $110 $111 $112 reversed $43 $-1 #
face $-1 $-1 $113 $23 $-1 $114 forward single #
loop $-1 $115 $116 $45 #
cone-surface $-1 38.105539871637575 23.630291180928229 9.0850601313288948 0 -0.55919291073839883 -0.82903756765294845 1 0 0 1 I I -0.70710678118654746 0.70710678118654746 1 forward I I I I #
loop $-1 $-1 $117 $29 #
coedge $-1 $73 $73 $118 $119 reversed $46 $-1 #
face $-1 $120 $121 $18 $-1 $122 reversed single #
loop $-1 $-1 $123 $48 #
plane-surface $-1 0 -30.61504284370017 0 0 1 0 0 0 1 forward_v I I I I #
coedge $-1 $124 $125 $126 $127 forward $49 $-1 #
coedge $-1 $128 $51 $129 $130 forward $31 $-1 #
coedge $-1 $51 $128 $131 $132 forward $31 $-1 #
coedge $-1 $133 $134 $51 $81 reversed $135 $-1 #
edge $-1 $136 -30.61504284370017 $137 30.61504284370017 $80 $138 forward 7 unknown #
face $-1 $139 $140 $19 $-1 $141 reversed single #
loop $-1 $-1 $142 $52 #
plane-surface $-1 -74.29792168950469 0 0 1 0 0 0 0 -1 forward_v I I I I #
coedge $-1 $143 $144 $145 $146 reversed $53 $-1 #
coedge $-1 $147 $55 $148 $149 reversed $34 $-1 #
coedge $-1 $55 $147 $143 $150 forward $34 $-1 #
coedge $-1 $145 $151 $55 $89 forward $152 $-1 #
edge $-1 $153 -19.618456797316114 $154 -2.3747152954519937 $88 $155 forward 7 unknown #
face $-1 $156 $157 $20 $-1 $158 forward single #
loop $-1 $-1 $159 $56 #
plane-surface $-1 -28.757147740531536 62.946743720971682 165.80065493382256 -1 0 0 0 0.55919291073839883 0.82903756765294845 forward_v I I I I #
coedge $-1 $160 $161 $162 $163 reversed $57 $-1 #
coedge $-1 $95 $59 $164 $165 reversed $37 $-1 #
coedge $-1 $59 $94 $160 $166 reversed $37 $-1 #
coedge $-1 $162 $167 $59 $97 forward $157 $-1 #
edge $-1 $168 0.85832901678567097 $169 11.122895590857475 $96 $170 forward 7 unknown #
loop $-1 $-1 $103 $60 #
plane-surface $-1 -36.192381817867116 -20.1469984617638 42.609118375550139 0 0.55919291073839883 0.82903756765294845 1 0 0 forward_v I I I I #
loop $-1 $-1 $171 $39 #
coedge $-1 $101 $101 $102 $172 reversed $61 $-1 #
coedge $-1 $102 $102 $101 $172 forward $63 $-1 #
coedge $-1 $103 $103 $64 $104 forward $98 $-1 #
edge $-1 $173 -9.4135812989017865e-016 $173 6.2831853071795996 $103 $174 forward 7 unknown #
face $-1 $175 $176 $22 $-1 $177 forward single #
loop $-1 $-1 $178 $65 #
plane-surface $-1 45.540773948973154 62.946743720971682 165.80065493382256 -1 0 0 0 0.55919291073839883 0.82903756765294845 forward_v I I I I #
coedge $-1 $179 $180 $181 $182 reversed $66 $-1 #
coedge $-1 $110 $68 $183 $184 reversed $43 $-1 #
coedge $-1 $68 $109 $179 $185 reversed $43 $-1 #
coedge $-1 $181 $186 $68 $112 forward $176 $-1 #
edge $-1 $187 0.85832901678567097 $188 11.122895590857475 $111 $189 forward 7 unknown #
loop $-1 $-1 $118 $69 #
plane-surface $-1 38.105539871637575 -20.1469984617638 42.609118375550139 0 0.55919291073839883 0.82903756765294845 1 0 0 forward_v I I I I #
loop $-1 $-1 $190 $45 #
coedge $-1 $116 $116 $117 $191 reversed $70 $-1 #
coedge $-1 $117 $117 $116 $191 forward $72 $-1 #
coedge $-1 $118 $118 $73 $119 forward $113 $-1 #
edge $-1 $192 -9.4135812989017865e-016 $192 6.2831853071795996 $118 $193 forward 7 unknown #
face $-1 $194 $195 $18 $-1 $196 reversed single #
loop $-1 $-1 $197 $74 #
plane-surface $-1 -74.29792168950469 0 0 1 0 0 0 0 -1 forward_v I I I I #
coedge $-1 $198 $131 $199 $200 forward $75 $-1 #
coedge $-1 $201 $77 $198 $202 forward $49 $-1 #
coedge $-1 $77 $201 $203 $204 forward $49 $-1 #
coedge $-1 $134 $133 $77 $127 reversed $135 $-1 #
edge $-1 $205 -30.61504284370017 $206 30.61504284370017 $126 $207 forward 7 unknown #
coedge $-1 $79 $78 $208 $209 forward $31 $-1 #
coedge $-1 $210 $211 $78 $130 reversed $195 $-1 #
edge $-1 $137 -74.29792168950469 $212 74.29792168950469 $129 $213 forward 7 unknown #
coedge $-1 $123 $214 $79 $132 reversed $75 $-1 #
edge $-1 $215 -74.29792168950469 $136 74.29792168950469 $131 $216 forward 7 unknown #
coedge $-1 $126 $80 $214 $217 forward $135 $-1 #
coedge $-1 $80 $126 $210 $218 reversed $135 $-1 #
loop $-1 $-1 $133 $194 #
vertex $-1 $81 $219 #
vertex $-1 $81 $220 #
straight-curve $-1 74.29792168950469 0 15.293226242080543 0 1 0 I I #
face $-1 $221 $222 $19 $-1 $223 forward single #
loop $-1 $-1 $148 $82 #
plane-surface $-1 0 -30.61504284370017 0 0 1 0 0 0 1 forward_v I I I I #
coedge $-1 $224 $225 $226 $227 forward $83 $-1 #
coedge $-1 $226 $85 $87 $150 reversed $53 $-1 #
coedge $-1 $85 $226 $228 $229 reversed $53 $-1 #
coedge $-1 $230 $88 $85 $146 forward $152 $-1 #
edge $-1 $154 2.7856802724439174 $231 9.2669240705723883 $145 $232 forward 7 unknown #
coedge $-1 $87 $86 $224 $233 reversed $34 $-1 #
coedge $-1 $234 $235 $86 $149 forward $140 $-1 #
edge $-1 $236 -74.29792168950469 $153 74.29792168950469 $148 $237 forward 7 unknown #
edge $-1 $238 -74.29792168950469 $154 74.29792168950469 $143 $239 forward 7 unknown #
coedge $-1 $88 $230 $234 $240 forward $152 $-1 #
loop $-1 $-1 $145 $221 #
vertex $-1 $149 $241 #
vertex $-1 $89 $242 #
straight-curve $-1 74.29792168950469 -10.996586046384055 8.8119824439520702 0 1 0 I I #
face $-1 $-1 $243 $20 $-1 $244 reversed single #
loop $-1 $-1 $96 $90 #
plane-surface $-1 0 0 15.293226242080543 0 0 1 1 0 0 forward_v I I I I #
coedge $-1 $245 $246 $247 $248 reversed $91 $-1 #
coedge $-1 $249 $93 $95 $166 forward $57 $-1 #
coedge $-1 $93 $249 $245 $250 forward $57 $-1 #
coedge $-1 $247 $96 $93 $163 forward $157 $-1 #
edge $-1 $169 -25.531424986269137 $251 -10.660956831597979 $162 $252 forward 7 unknown #
coedge $-1 $253 $254 $94 $165 forward $243 $-1 #
edge $-1 $255 -74.530638931660093 $168 -67.607101224830728 $164 $256 forward 7 unknown #
edge $-1 $169 48.848781178931091 $255 61.230085687400305 $95 $257 forward 7 unknown #
coedge $-1 $96 $247 $253 $258 forward $157 $-1 #
vertex $-1 $165 $259 #
vertex $-1 $97 $260 #
straight-curve $-1 -43.627615895202695 31.473371860485841 15.29322624208055 0 -1 0 I I #
coedge $-1 $171 $171 $-1 $261 reversed $100 $-1 #
edge $-1 $262 0 $262 6.2831853071796004 $101 $263 forward 7 unknown #
vertex $-1 $104 $264 #
ellipse-curve $-1 -36.192381817867116 25.48275955666427 11.831457388665862 0 0.55919291073839883 0.82903756765294845 2 0 0 1 I I #
face $-1 $-1 $265 $22 $-1 $266 reversed single #
loop $-1 $-1 $111 $105 #
plane-surface $-1 0 0 15.293226242080543 0 0 1 1 0 0 forward_v I I I I #
coedge $-1 $267 $268 $269 $270 reversed $106 $-1 #
coedge $-1 $271 $108 $110 $185 forward $66 $-1 #
coedge $-1 $108 $271 $267 $272 forward $66 $-1 #
coedge $-1 $269 $111 $108 $182 forward $176 $-1 #
edge $-1 $188 11.617535858483208 $273 26.488004013154367 $181 $274 forward 7 unknown #
coedge $-1 $275 $276 $109 $184 forward $265 $-1 #
edge $-1 $277 -74.530638931660093 $187 -67.607101224830728 $183 $278 forward 7 unknown #
edge $-1 $188 48.848781178931091 $277 61.230085687400305 $110 $279 forward 7 unknown #
coedge $-1 $111 $269 $275 $280 forward $176 $-1 #
vertex $-1 $112 $281 #
vertex $-1 $112 $282 #
straight-curve $-1 30.670305794301996 31.473371860485841 15.29322624208055 0 -1 0 I I #
coedge $-1 $190 $190 $-1 $283 reversed $115 $-1 #
edge $-1 $284 0 $284 6.2831853071796004 $116 $285 forward 7 unknown #
vertex $-1 $119 $286 #
ellipse-curve $-1 38.105539871637575 25.48275955666427 11.831457388665862 0 0.55919291073839883 0.82903756765294845 2 0 0 1 I I #
face $-1 $-1 $135 $18 $-1 $287 reversed single #
loop $-1 $-1 $210 $120 #
plane-surface $-1 0 30.61504284370017 0 0 -1 0 0 0 -1 forward_v I I I I #
coedge $-1 $288 $208 $211 $289 forward $121 $-1 #
coedge $-1 $214 $123 $124 $202 reversed $75 $-1 #
coedge $-1 $208 $288 $123 $200 reversed $121 $-1 #
edge $-1 $215 -15.293226242080543 $290 15.293226242080543 $199 $291 forward 7 unknown #
coedge $-1 $125 $124 $288 $292 forward $49 $-1 #
edge $-1 $206 -74.29792168950469 $290 74.29792168950469 $198 $293 forward 7 unknown #
coedge $-1 $211 $210 $125 $204 reversed $195 $-1 #
edge $-1 $294 -74.29792168950469 $205 74.29792168950469 $203 $295 forward 7 unknown #
vertex $-1 $127 $296 #
vertex $-1 $217 $297 #
straight-curve $-1 74.29792168950469 0 -15.293226242080543 0 -1 0 I I #
coedge $-1 $197 $199 $128 $209 reversed $121 $-1 #
edge $-1 $212 -30.61504284370017 $215 30.61504284370017 $208 $298 forward 7 unknown #
coedge $-1 $203 $129 $134 $218 forward $195 $-1 #
coedge $-1 $129 $203 $197 $289 reversed $195 $-1 #
vertex $-1 $130 $299 #
straight-curve $-1 0 30.61504284370017 15.293226242080543 -1 0 0 I I #
coedge $-1 $131 $198 $133 $217 reversed $75 $-1 #
vertex $-1 $209 $300 #
straight-curve $-1 0 -30.61504284370017 15.293226242080543 1 0 0 I I #
edge $-1 $136 -15.293226242080543 $206 15.293226242080543 $133 $301 forward 7 unknown #
edge $-1 $137 -15.293226242080543 $205 15.293226242080543 $134 $302 forward 7 unknown #
point $-1 74.29792168950469 -30.61504284370017 15.293226242080543 #
point $-1 74.29792168950469 30.61504284370017 15.293226242080543 #
face $-1 $-1 $152 $19 $-1 $303 reversed single #
loop $-1 $-1 $228 $139 #
plane-surface $-1 0 0 15.293226242080543 0 0 1 1 0 0 forward_v I I I I #
coedge $-1 $304 $142 $147 $233 forward $83 $-1 #
coedge $-1 $142 $304 $305 $306 reversed $83 $-1 #
coedge $-1 $144 $143 $142 $227 reversed $53 $-1 #
edge $-1 $307 -9.2669240705723883 $238 -2.7856802724439174 $142 $308 forward 7 unknown #
coedge $-1 $305 $309 $144 $229 forward $222 $-1 #
edge $-1 $231 -74.29792168950469 $307 74.29792168950469 $228 $310 forward 7 unknown #
coedge $-1 $151 $145 $309 $311 reversed $152 $-1 #
vertex $-1 $146 $312 #
straight-curve $-1 74.29792168950469 -13.371301341836048 6.0263021715081528 0 0 1 I I #
edge $-1 $238 2.3747152954519937 $236 19.618456797316114 $224 $313 forward 7 unknown #
coedge $-1 $314 $148 $151 $240 reversed $140 $-1 #
coedge $-1 $148 $314 $304 $315 forward $140 $-1 #
vertex $-1 $149 $316 #
straight-curve $-1 0 -30.61504284370017 8.8119824439520702 1 0 0 I I #
vertex $-1 $233 $317 #
straight-curve $-1 0 -13.371301341836048 8.8119824439520702 1 0 0 I I #
edge $-1 $318 -15.293226242080543 $153 -8.8119824439520702 $151 $319 forward 7 unknown #
point $-1 74.29792168950469 -30.61504284370017 8.8119824439520702 #
point $-1 74.29792168950469 -13.371301341836048 8.8119824439520702 #
loop $-1 $-1 $164 $156 #
plane-surface $-1 0 30.61504284370017 0 0 -1 0 0 0 -1 forward_v I I I I #
coedge $-1 $246 $159 $161 $250 reversed $91 $-1 #
coedge $-1 $159 $245 $320 $321 reversed $91 $-1 #
coedge $-1 $167 $162 $159 $248 forward $157 $-1 #
edge $-1 $251 -11.122895590857475 $322 -0.85832901678567097 $247 $323 forward 7 unknown #
coedge $-1 $161 $160 $254 $324 reversed $57 $-1 #
edge $-1 $325 -61.230085687400305 $251 -48.848781178931091 $245 $326 forward 7 unknown #
vertex $-1 $163 $327 #
straight-curve $-1 -18.096190908933558 20.35047626962837 15.293226242080539 1 0 0 I I #
coedge $-1 $320 $164 $167 $258 reversed $243 $-1 #
coedge $-1 $164 $320 $249 $324 forward $243 $-1 #
vertex $-1 $165 $328 #
straight-curve $-1 -43.627615895202695 30.61504284370017 82.900327466911278 0 0 1 I I #
straight-curve $-1 -43.627615895202695 -20.1469984617638 42.609118375550139 0 0.82903756765294845 -0.55919291073839883 I I #
edge $-1 $322 28.757147740531536 $168 43.627615895202695 $253 $329 forward 7 unknown #
point $-1 -43.627615895202695 30.61504284370017 15.293226242080543 #
point $-1 -43.627615895202695 20.350476269628366 15.293226242080546 #
edge $-1 $330 1 $330 0 $171 $-1 forward 7 unknown #
vertex $-1 $172 $331 #
ellipse-curve $-1 -36.192381817867116 24.189484091666628 9.914097698981843 0 0.55919291073839883 0.82903756765294845 2 0 0 1 I I #
point $-1 -34.192381817867116 25.482759556664259 11.83145738866585 #
loop $-1 $-1 $183 $175 #
plane-surface $-1 0 30.61504284370017 0 0 -1 0 0 0 -1 forward_v I I I I #
coedge $-1 $268 $178 $180 $272 reversed $106 $-1 #
coedge $-1 $178 $267 $332 $333 reversed $106 $-1 #
coedge $-1 $186 $181 $178 $270 forward $176 $-1 #
edge $-1 $273 -11.122895590857475 $334 -0.85832901678567097 $269 $335 forward 7 unknown #
coedge $-1 $180 $179 $276 $336 reversed $66 $-1 #
edge $-1 $337 -61.230085687400305 $273 -48.848781178931091 $267 $338 forward 7 unknown #
vertex $-1 $182 $339 #
straight-curve $-1 19.052769935818787 20.35047626962837 15.293226242080539 1 0 0 I I #
coedge $-1 $332 $183 $186 $280 reversed $265 $-1 #
coedge $-1 $183 $332 $271 $336 forward $265 $-1 #
vertex $-1 $184 $340 #
straight-curve $-1 30.670305794301996 30.61504284370017 82.900327466911278 0 0 1 I I #
straight-curve $-1 30.670305794301996 -20.1469984617638 42.609118375550139 0 0.82903756765294845 -0.55919291073839883 I I #
edge $-1 $334 -45.540773948973154 $187 -30.670305794301996 $275 $341 forward 7 unknown #
point $-1 30.670305794301996 30.61504284370017 15.293226242080543 #
point $-1 30.670305794301996 20.350476269628366 15.293226242080546 #
edge $-1 $342 1 $342 0 $190 $-1 forward 7 unknown #
vertex $-1 $191 $343 #
ellipse-curve $-1 38.105539871637575 24.189484091666628 9.914097698981843 0 0.55919291073839883 0.82903756765294845 2 0 0 1 I I #
point $-1 40.105539871637575 25.482759556664259 11.83145738866585 #
plane-surface $-1 74.29792168950469 0 0 -1 0 0 0 0 1 forward_v I I I I #
coedge $-1 $199 $197 $201 $292 reversed $121 $-1 #
edge $-1 $212 -15.293226242080543 $294 15.293226242080543 $211 $344 forward 7 unknown #
vertex $-1 $292 $345 #
straight-curve $-1 -74.29792168950469 -30.61504284370017 0 0 0 -1 I I #
edge $-1 $290 -30.61504284370017 $294 30.61504284370017 $288 $346 forward 7 unknown #
straight-curve $-1 0 -30.61504284370017 -15.293226242080543 -1 0 0 I I #
vertex $-1 $204 $347 #
straight-curve $-1 0 30.61504284370017 -15.293226242080543 1 0 0 I I #
point $-1 74.29792168950469 30.61504284370017 -15.293226242080543 #
point $-1 74.29792168950469 -30.61504284370017 -15.293226242080543 #
straight-curve $-1 -74.29792168950469 0 15.293226242080543 0 -1 0 I I #
point $-1 -74.29792168950469 30.61504284370017 15.293226242080543 #
point $-1 -74.29792168950469 -30.61504284370017 15.293226242080543 #
straight-curve $-1 74.29792168950469 -30.61504284370017 0 0 0 -1 I I #
straight-curve $-1 74.29792168950469 30.61504284370017 0 0 0 -1 I I #
plane-surface $-1 74.29792168950469 0 0 -1 0 0 0 0 1 forward_v I I I I #
coedge $-1 $225 $224 $235 $315 reversed $83 $-1 #
coedge $-1 $348 $228 $225 $306 forward $222 $-1 #
edge $-1 $307 13.371301341836048 $349 30.61504284370017 $225 $350 forward 7 unknown #
vertex $-1 $306 $351 #
straight-curve $-1 -74.29792168950469 -13.371301341836048 6.0263021715081528 0 0 -1 I I #
coedge $-1 $228 $348 $230 $311 forward $222 $-1 #
straight-curve $-1 0 -13.371301341836048 15.293226242080543 -1 0 0 I I #
edge $-1 $318 -30.61504284370017 $231 -13.371301341836048 $230 $352 forward 7 unknown #
point $-1 74.29792168950469 -13.371301341836048 15.293226242080541 #
straight-curve $-1 -74.29792168950469 -10.996586046384055 8.8119824439520702 0 -1 0 I I #
coedge $-1 $235 $234 $348 $353 reversed $140 $-1 #
edge $-1 $349 -15.293226242080543 $236 -8.8119824439520702 $304 $354 forward 7 unknown #
point $-1 -74.29792168950469 -30.61504284370017 8.8119824439520702 #
point $-1 -74.29792168950469 -13.371301341836048 8.8119824439520702 #
vertex $-1 $311 $355 #
straight-curve $-1 74.29792168950469 -30.61504284370017 0 0 0 -1 I I #
coedge $-1 $254 $253 $246 $321 forward $243 $-1 #
edge $-1 $322 67.607101224830728 $325 74.530638931660093 $320 $356 forward 7 unknown #
vertex $-1 $258 $357 #
straight-curve $-1 -28.757147740531536 31.473371860485841 15.29322624208055 0 1 0 I I #
edge $-1 $325 10.660956831597979 $255 25.531424986269137 $254 $358 forward 7 unknown #
vertex $-1 $324 $359 #
straight-curve $-1 -28.757147740531536 -20.1469984617638 42.609118375550139 0 -0.82903756765294845 0.55919291073839883 I I #
point $-1 -28.757147740531536 20.350476269628366 15.293226242080546 #
point $-1 -43.627615895202695 30.615042843700166 8.3696885352511856 #
straight-curve $-1 0 30.61504284370017 15.293226242080543 -1 0 0 I I #
vertex $-1 $261 $360 #
point $-1 -34.192381817867116 24.189484091666628 9.914097698981843 #
coedge $-1 $276 $275 $268 $333 forward $265 $-1 #
edge $-1 $334 67.607101224830728 $337 74.530638931660093 $332 $361 forward 7 unknown #
vertex $-1 $280 $362 #
straight-curve $-1 45.540773948973154 31.473371860485841 15.29322624208055 0 1 0 I I #
edge $-1 $337 -26.488004013154367 $277 -11.617535858483208 $276 $363 forward 7 unknown #
vertex $-1 $336 $364 #
straight-curve $-1 45.540773948973154 -20.1469984617638 42.609118375550139 0 -0.82903756765294845 0.55919291073839883 I I #
point $-1 45.540773948973154 20.350476269628366 15.293226242080546 #
point $-1 30.670305794301996 30.615042843700166 8.3696885352511856 #
straight-curve $-1 0 30.61504284370017 15.293226242080543 -1 0 0 I I #
vertex $-1 $283 $365 #
point $-1 40.105539871637575 24.189484091666628 9.914097698981843 #
straight-curve $-1 -74.29792168950469 30.61504284370017 0 0 0 -1 I I #
point $-1 -74.29792168950469 -30.61504284370017 -15.293226242080543 #
straight-curve $-1 -74.29792168950469 0 -15.293226242080543 0 1 0 I I #
point $-1 -74.29792168950469 30.61504284370017 -15.293226242080543 #
coedge $-1 $309 $305 $314 $353 forward $222 $-1 #
vertex $-1 $306 $366 #
straight-curve $-1 -74.29792168950469 0 15.293226242080543 0 -1 0 I I #
point $-1 -74.29792168950469 -13.371301341836048 15.293226242080541 #
straight-curve $-1 74.29792168950469 0 15.293226242080543 0 1 0 I I #
edge $-1 $349 -74.29792168950469 $318 74.29792168950469 $314 $367 forward 7 unknown #
straight-curve $-1 -74.29792168950469 -30.61504284370017 0 0 0 -1 I I #
point $-1 74.29792168950469 -30.61504284370017 15.293226242080543 #
straight-curve $-1 -28.757147740531536 30.61504284370017 82.900327466911278 0 0 -1 I I #
point $-1 -28.757147740531536 30.61504284370017 15.293226242080543 #
straight-curve $-1 -18.096190908933558 30.615042843700177 8.3696885352511803 -1 0 0 I I #
point $-1 -28.757147740531536 30.615042843700166 8.3696885352511856 #
point $-1 -36.192381817867116 23.071098270189829 8.2560225636759466 #
straight-curve $-1 45.540773948973154 30.61504284370017 82.900327466911278 0 0 -1 I I #
point $-1 45.540773948973154 30.61504284370017 15.293226242080543 #
straight-curve $-1 19.052769935818787 30.615042843700177 8.3696885352511803 -1 0 0 I I #
point $-1 45.540773948973154 30.615042843700166 8.3696885352511856 #
point $-1 38.105539871637575 23.071098270189829 8.2560225636759466 #
point $-1 -74.29792168950469 -30.61504284370017 15.293226242080543 #
straight-curve $-1 0 -30.61504284370017 15.293226242080543 1 0 0 I I #
End-of-ACIS-data 