500 0 18 0           
7 Unknown 11 ACIS 5.0 NT 24 Fri Mar 26 20:17:49 1999 
-1 9.9999999999999995e-007 1e-010 
body $-1 $18 $-1 $19 #
body $-1 $20 $-1 $21 #
body $-1 $22 $-1 $23 #
body $-1 $24 $-1 $25 #
body $-1 $26 $-1 $27 #
body $-1 $28 $-1 $29 #
body $-1 $30 $-1 $31 #
body $-1 $32 $-1 $33 #
body $-1 $34 $-1 $35 #
body $-1 $36 $-1 $37 #
body $-1 $38 $-1 $39 #
body $-1 $40 $-1 $41 #
body $-1 $42 $-1 $43 #
body $-1 $44 $-1 $45 #
body $-1 $46 $-1 $47 #
body $-1 $48 $-1 $49 #
body $-1 $50 $-1 $51 #
body $-1 $52 $-1 $53 #
lump $-1 $-1 $54 $0 #
transform $-1 1 0 0 0 1 0 0 0 1 78.352000488296142 34.732458799786343 17.072402147495922 1 rotate no_reflect no_shear #
lump $-1 $-1 $55 $1 #
transform $-1 1 0 0 0 1 0 0 0 1 78.352000488296142 34.732458799786343 17.072402147495922 1 rotate no_reflect no_shear #
lump $-1 $-1 $56 $2 #
transform $-1 1 0 0 0 1 0 0 0 1 78.352000488296142 34.732458799786343 17.072402147495922 1 rotate no_reflect no_shear #
lump $-1 $-1 $57 $3 #
transform $-1 1 0 0 0 1 0 0 0 1 78.352000488296142 34.732458799786343 17.072402147495922 1 rotate no_reflect no_shear #
lump $-1 $-1 $58 $4 #
transform $-1 1 0 0 0 1 0 0 0 1 78.352000488296142 34.732458799786343 17.072402147495922 1 rotate no_reflect no_shear #
lump $-1 $-1 $59 $5 #
transform $-1 1 0 0 0 1 0 0 0 1 78.352000488296142 34.732458799786343 17.072402147495922 1 rotate no_reflect no_shear #
lump $-1 $-1 $60 $6 #
transform $-1 1 0 0 0 1 0 0 0 1 78.352000488296142 34.732458799786343 17.072402147495922 1 rotate no_reflect no_shear #
lump $-1 $-1 $61 $7 #
transform $-1 1 0 0 0 1 0 0 0 1 78.352000488296142 34.732458799786343 17.072402147495922 1 rotate no_reflect no_shear #
lump $-1 $-1 $62 $8 #
transform $-1 1 0 0 0 1 0 0 0 1 78.352000488296142 34.732458799786343 17.072402147495922 1 rotate no_reflect no_shear #
lump $-1 $-1 $63 $9 #
transform $-1 1 0 0 0 1 0 0 0 1 78.352000488296142 34.732458799786343 17.072402147495922 1 rotate no_reflect no_shear #
lump $-1 $-1 $64 $10 #
transform $-1 1 0 0 0 1 0 0 0 1 78.352000488296142 34.732458799786343 17.072402147495922 1 rotate no_reflect no_shear #
lump $-1 $-1 $65 $11 #
transform $-1 1 0 0 0 1 0 0 0 1 78.352000488296142 34.732458799786343 17.072402147495922 1 rotate no_reflect no_shear #
lump $-1 $-1 $66 $12 #
transform $-1 1 0 0 0 1 0 0 0 1 78.352000488296142 34.732458799786343 17.072402147495922 1 rotate no_reflect no_shear #
lump $-1 $-1 $67 $13 #
transform $-1 1 0 0 0 1 0 0 0 1 78.352000488296142 34.732458799786343 17.072402147495922 1 rotate no_reflect no_shear #
lump $-1 $-1 $68 $14 #
transform $-1 1 0 0 0 1 0 0 0 1 78.352000488296142 34.732458799786343 17.072402147495922 1 rotate no_reflect no_shear #
lump $-1 $-1 $69 $15 #
transform $-1 1 0 0 0 1 0 0 0 1 78.352000488296142 34.732458799786343 17.072402147495922 1 rotate no_reflect no_shear #
lump $-1 $-1 $70 $16 #
transform $-1 1 0 0 0 1 0 0 0 1 78.352000488296142 34.732458799786343 17.072402147495922 1 rotate no_reflect no_shear #
lump $-1 $-1 $71 $17 #
transform $-1 1 0 0 0 1 0 0 0 1 78.352000488296142 34.732458799786343 17.072402147495922 1 rotate no_reflect no_shear #
shell $-1 $-1 $-1 $72 $-1 $18 #
shell $-1 $-1 $-1 $73 $-1 $20 #
shell $-1 $-1 $-1 $74 $-1 $22 #
shell $-1 $-1 $-1 $75 $-1 $24 #
shell $-1 $-1 $-1 $76 $-1 $26 #
shell $-1 $-1 $-1 $77 $-1 $28 #
shell $-1 $-1 $-1 $78 $-1 $30 #
shell $-1 $-1 $-1 $79 $-1 $32 #
shell $-1 $-1 $-1 $80 $-1 $34 #
shell $-1 $-1 $-1 $81 $-1 $36 #
shell $-1 $-1 $-1 $82 $-1 $38 #
shell $-1 $-1 $-1 $83 $-1 $40 #
shell $-1 $-1 $-1 $84 $-1 $42 #
shell $-1 $-1 $-1 $85 $-1 $44 #
shell $-1 $-1 $-1 $86 $-1 $46 #
shell $-1 $-1 $-1 $87 $-1 $48 #
shell $-1 $-1 $-1 $88 $-1 $50 #
shell $-1 $-1 $-1 $89 $-1 $52 #
face $-1 $90 $91 $54 $-1 $92 forward single #
face $-1 $93 $94 $55 $-1 $95 forward single #
face $-1 $96 $97 $56 $-1 $98 reversed single #
face $-1 $99 $100 $57 $-1 $101 forward single #
face $-1 $102 $103 $58 $-1 $104 forward single #
face $-1 $105 $106 $59 $-1 $107 forward single #
face $-1 $108 $109 $60 $-1 $110 reversed single #
face $-1 $111 $112 $61 $-1 $113 forward single #
face $-1 $114 $115 $62 $-1 $116 forward single #
face $-1 $117 $118 $63 $-1 $119 forward single #
face $-1 $120 $121 $64 $-1 $122 reversed single #
face $-1 $123 $124 $65 $-1 $125 forward single #
face $-1 $126 $127 $66 $-1 $128 forward single #
face $-1 $129 $130 $67 $-1 $131 forward single #
face $-1 $132 $133 $68 $-1 $134 reversed single #
face $-1 $135 $136 $69 $-1 $137 forward single #
face $-1 $138 $139 $70 $-1 $140 forward single #
face $-1 $141 $142 $71 $-1 $143 forward single #
face $-1 $144 $145 $54 $-1 $146 reversed single #
loop $-1 $-1 $147 $72 #
plane-surface $-1 0 0 17.072402147495922 0 0 1 1 0 0 forward_v I I I I #
face $-1 $148 $149 $55 $-1 $150 reversed single #
loop $-1 $-1 $151 $73 #
plane-surface $-1 -68.475709369825623 0 -13.61832387372629 0 0 1 1 0 0 forward_v I I I I #
face $-1 $152 $153 $56 $-1 $154 reversed single #
loop $-1 $-1 $155 $74 #
plane-surface $-1 -51.955295292318596 -126.84076072579452 140.1520028756506 1 0 0 0 0.5877852598018023 -0.80901698891910034 forward_v I I I I #
face $-1 $156 $157 $57 $-1 $158 forward single #
loop $-1 $159 $160 $75 #
cone-surface $-1 -48.28006790508659 -31.200414226008572 13.864128826005974 0 0.5877852598018023 -0.80901698891910034 1 0 0 1 I I 0 1 1 forward I I I I #
face $-1 $161 $162 $58 $-1 $163 forward single #
loop $-1 $164 $165 $76 #
cone-surface $-1 -42.767226824238577 -31.200414226008572 13.864128826005974 0 0.5877852598018023 -0.80901698891910034 1 0 0 1 I I 0 1 1 forward I I I I #
face $-1 $166 $167 $59 $-1 $168 forward single #
loop $-1 $169 $170 $77 #
cone-surface $-1 -37.254385743390564 -31.200414226008572 13.864128826005974 0 0.5877852598018023 -0.80901698891910034 1 0 0 1 I I 0 1 1 forward I I I I #
face $-1 $171 $172 $60 $-1 $173 reversed single #
loop $-1 $-1 $174 $78 #
plane-surface $-1 -17.717440607405791 -126.84076072579452 140.1520028756506 1 0 0 0 0.5877852598018023 -0.80901698891910034 forward_v I I I I #
face $-1 $175 $176 $61 $-1 $177 forward single #
loop $-1 $178 $179 $79 #
cone-surface $-1 -14.042213220173778 -31.200414226008572 13.864128826005974 0 0.5877852598018023 -0.80901698891910034 1 0 0 1 I I 0 1 1 forward I I I I #
face $-1 $180 $181 $62 $-1 $182 forward single #
loop $-1 $183 $184 $80 #
cone-surface $-1 -8.5293721393257727 -31.200414226008572 13.864128826005974 0 0.5877852598018023 -0.80901698891910034 1 0 0 1 I I 0 1 1 forward I I I I #
face $-1 $185 $186 $63 $-1 $187 forward single #
loop $-1 $188 $189 $81 #
cone-surface $-1 -3.0165310584777529 -31.200414226008572 13.864128826005974 0 0.5877852598018023 -0.80901698891910034 1 0 0 1 I I 0 1 1 forward I I I I #
face $-1 $190 $191 $64 $-1 $192 reversed single #
loop $-1 $-1 $193 $82 #
plane-surface $-1 16.520414077507013 -126.84076072579452 140.1520028756506 1 0 0 0 0.5877852598018023 -0.80901698891910034 forward_v I I I I #
face $-1 $194 $195 $65 $-1 $196 forward single #
loop $-1 $197 $198 $83 #
cone-surface $-1 20.195641464739026 -31.200414226008572 13.864128826005974 0 0.5877852598018023 -0.80901698891910034 1 0 0 1 I I 0 1 1 forward I I I I #
face $-1 $199 $200 $66 $-1 $201 forward single #
loop $-1 $202 $203 $84 #
cone-surface $-1 25.708482545587032 -31.200414226008572 13.864128826005974 0 0.5877852598018023 -0.80901698891910034 1 0 0 1 I I 0 1 1 forward I I I I #
face $-1 $204 $205 $67 $-1 $206 forward single #
loop $-1 $207 $208 $85 #
cone-surface $-1 31.221323626435066 -31.200414226008572 13.864128826005974 0 0.5877852598018023 -0.80901698891910034 1 0 0 1 I I 0 1 1 forward I I I I #
face $-1 $209 $210 $68 $-1 $211 reversed single #
loop $-1 $-1 $212 $86 #
plane-surface $-1 50.758268762419817 -126.84076072579452 140.1520028756506 1 0 0 0 0.5877852598018023 -0.80901698891910034 forward_v I I I I #
face $-1 $213 $214 $69 $-1 $215 forward single #
loop $-1 $216 $217 $87 #
cone-surface $-1 54.43349614965183 -31.200414226008572 13.864128826005974 0 0.5877852598018023 -0.80901698891910034 1 0 0 1 I I 0 1 1 forward I I I I #
face $-1 $218 $219 $70 $-1 $220 forward single #
loop $-1 $221 $222 $88 #
cone-surface $-1 59.946337230499836 -31.200414226008572 13.864128826005974 0 0.5877852598018023 -0.80901698891910034 1 0 0 1 I I 0 1 1 forward I I I I #
face $-1 $223 $224 $71 $-1 $225 forward single #
loop $-1 $226 $227 $89 #
cone-surface $-1 65.45917831134787 -31.200414226008572 13.864128826005974 0 0.5877852598018023 -0.80901698891910034 1 0 0 1 I I 0 1 1 forward I I I I #
face $-1 $228 $229 $54 $-1 $230 reversed single #
loop $-1 $-1 $231 $90 #
plane-surface $-1 0 0 -17.072402147495922 0 0 1 1 0 0 forward_v I I I I #
coedge $-1 $232 $233 $234 $235 forward $91 $-1 #
face $-1 $236 $237 $55 $-1 $238 reversed single #
loop $-1 $-1 $239 $93 #
plane-surface $-1 -58.599418251355104 0 -15.345363010611106 -1 0 0 0 0 1 forward_v I I I I #
coedge $-1 $240 $241 $242 $243 forward $94 $-1 #
face $-1 $244 $245 $56 $-1 $246 reversed single #
loop $-1 $-1 $247 $96 #
plane-surface $-1 -42.767226824238577 -34.732458799786343 13.375803853992153 0 -0.5877852598018023 0.80901698891910034 1 0 0 forward_v I I I I #
coedge $-1 $248 $249 $250 $251 reversed $97 $-1 #
face $-1 $-1 $252 $57 $-1 $253 forward single #
loop $-1 $254 $255 $99 #
cone-surface $-1 -48.28006790508659 -29.918442501884737 12.099646156808365 0 0.5877852598018023 -0.80901698891910034 0.5 0 0 1 I I -0.70710678118654746 0.70710678118654746 0.5 forward I I I I #
loop $-1 $-1 $256 $75 #
coedge $-1 $160 $160 $257 $258 reversed $100 $-1 #
face $-1 $-1 $259 $58 $-1 $260 forward single #
loop $-1 $261 $262 $102 #
cone-surface $-1 -42.767226824238577 -29.918442501884737 12.099646156808365 0 0.5877852598018023 -0.80901698891910034 0.5 0 0 1 I I -0.70710678118654746 0.70710678118654746 0.5 forward I I I I #
loop $-1 $-1 $263 $76 #
coedge $-1 $165 $165 $264 $265 reversed $103 $-1 #
face $-1 $-1 $266 $59 $-1 $267 forward single #
loop $-1 $268 $269 $105 #
cone-surface $-1 -37.254385743390564 -29.918442501884737 12.099646156808365 0 0.5877852598018023 -0.80901698891910034 0.5 0 0 1 I I -0.70710678118654746 0.70710678118654746 0.5 forward I I I I #
loop $-1 $-1 $270 $77 #
coedge $-1 $170 $170 $271 $272 reversed $106 $-1 #
face $-1 $273 $274 $60 $-1 $275 reversed single #
loop $-1 $-1 $276 $108 #
plane-surface $-1 -8.5293721393257727 -34.732458799786343 13.375803853992153 0 -0.5877852598018023 0.80901698891910034 1 0 0 forward_v I I I I #
coedge $-1 $277 $278 $279 $280 reversed $109 $-1 #
face $-1 $-1 $281 $61 $-1 $282 forward single #
loop $-1 $283 $284 $111 #
cone-surface $-1 -14.042213220173778 -29.918442501884737 12.099646156808365 0 0.5877852598018023 -0.80901698891910034 0.5 0 0 1 I I -0.70710678118654746 0.70710678118654746 0.5 forward I I I I #
loop $-1 $-1 $285 $79 #
coedge $-1 $179 $179 $286 $287 reversed $112 $-1 #
face $-1 $-1 $288 $62 $-1 $289 forward single #
loop $-1 $290 $291 $114 #
cone-surface $-1 -8.5293721393257727 -29.918442501884737 12.099646156808365 0 0.5877852598018023 -0.80901698891910034 0.5 0 0 1 I I -0.70710678118654746 0.70710678118654746 0.5 forward I I I I #
loop $-1 $-1 $292 $80 #
coedge $-1 $184 $184 $293 $294 reversed $115 $-1 #
face $-1 $-1 $295 $63 $-1 $296 forward single #
loop $-1 $297 $298 $117 #
cone-surface $-1 -3.0165310584777529 -29.918442501884737 12.099646156808365 0 0.5877852598018023 -0.80901698891910034 0.5 0 0 1 I I -0.70710678118654746 0.70710678118654746 0.5 forward I I I I #
loop $-1 $-1 $299 $81 #
coedge $-1 $189 $189 $300 $301 reversed $118 $-1 #
face $-1 $302 $303 $64 $-1 $304 reversed single #
loop $-1 $-1 $305 $120 #
plane-surface $-1 25.708482545587032 -34.732458799786343 13.375803853992153 0 -0.5877852598018023 0.80901698891910034 1 0 0 forward_v I I I I #
coedge $-1 $306 $307 $308 $309 reversed $121 $-1 #
face $-1 $-1 $310 $65 $-1 $311 forward single #
loop $-1 $312 $313 $123 #
cone-surface $-1 20.195641464739026 -29.918442501884737 12.099646156808365 0 0.5877852598018023 -0.80901698891910034 0.5 0 0 1 I I -0.70710678118654746 0.70710678118654746 0.5 forward I I I I #
loop $-1 $-1 $314 $83 #
coedge $-1 $198 $198 $315 $316 reversed $124 $-1 #
face $-1 $-1 $317 $66 $-1 $318 forward single #
loop $-1 $319 $320 $126 #
cone-surface $-1 25.708482545587032 -29.918442501884737 12.099646156808365 0 0.5877852598018023 -0.80901698891910034 0.5 0 0 1 I I -0.70710678118654746 0.70710678118654746 0.5 forward I I I I #
loop $-1 $-1 $321 $84 #
coedge $-1 $203 $203 $322 $323 reversed $127 $-1 #
face $-1 $-1 $324 $67 $-1 $325 forward single #
loop $-1 $326 $327 $129 #
cone-surface $-1 31.221323626435066 -29.918442501884737 12.099646156808365 0 0.5877852598018023 -0.80901698891910034 0.5 0 0 1 I I -0.70710678118654746 0.70710678118654746 0.5 forward I I I I #
loop $-1 $-1 $328 $85 #
coedge $-1 $208 $208 $329 $330 reversed $130 $-1 #
face $-1 $331 $332 $68 $-1 $333 reversed single #
loop $-1 $-1 $334 $132 #
plane-surface $-1 59.946337230499836 -34.732458799786343 13.375803853992153 0 -0.5877852598018023 0.80901698891910034 1 0 0 forward_v I I I I #
coedge $-1 $335 $336 $337 $338 reversed $133 $-1 #
face $-1 $-1 $339 $69 $-1 $340 forward single #
loop $-1 $341 $342 $135 #
cone-surface $-1 54.43349614965183 -29.918442501884737 12.099646156808365 0 0.5877852598018023 -0.80901698891910034 0.5 0 0 1 I I -0.70710678118654746 0.70710678118654746 0.5 forward I I I I #
loop $-1 $-1 $343 $87 #
coedge $-1 $217 $217 $344 $345 reversed $136 $-1 #
face $-1 $-1 $346 $70 $-1 $347 forward single #
loop $-1 $348 $349 $138 #
cone-surface $-1 59.946337230499836 -29.918442501884737 12.099646156808365 0 0.5877852598018023 -0.80901698891910034 0.5 0 0 1 I I -0.70710678118654746 0.70710678118654746 0.5 forward I I I I #
loop $-1 $-1 $350 $88 #
coedge $-1 $222 $222 $351 $352 reversed $139 $-1 #
face $-1 $-1 $353 $71 $-1 $354 forward single #
loop $-1 $355 $356 $141 #
cone-surface $-1 65.45917831134787 -29.918442501884737 12.099646156808365 0 0.5877852598018023 -0.80901698891910034 0.5 0 0 1 I I -0.70710678118654746 0.70710678118654746 0.5 forward I I I I #
loop $-1 $-1 $357 $89 #
coedge $-1 $227 $227 $358 $359 reversed $142 $-1 #
face $-1 $360 $361 $54 $-1 $362 reversed single #
loop $-1 $-1 $363 $144 #
plane-surface $-1 0 -34.732458799786343 0 0 1 0 0 0 1 forward_v I I I I #
coedge $-1 $364 $365 $366 $367 forward $145 $-1 #
coedge $-1 $368 $147 $369 $370 forward $91 $-1 #
coedge $-1 $147 $368 $371 $372 forward $91 $-1 #
coedge $-1 $373 $374 $147 $235 reversed $375 $-1 #
edge $-1 $376 -34.732458799786343 $377 34.732458799786343 $234 $378 forward 7 unknown #
face $-1 $379 $380 $55 $-1 $381 reversed single #
loop $-1 $-1 $382 $148 #
plane-surface $-1 0 0 -17.072402147495922 0 0 1 1 0 0 forward_v I I I I #
coedge $-1 $383 $242 $384 $385 reversed $149 $-1 #
coedge $-1 $386 $151 $387 $388 reversed $94 $-1 #
coedge $-1 $151 $386 $389 $390 reversed $94 $-1 #
coedge $-1 $239 $391 $151 $243 reversed $149 $-1 #
edge $-1 $392 -34.732458799786343 $393 34.732458799786343 $242 $394 forward 7 unknown #
face $-1 $395 $396 $56 $-1 $397 forward single #
loop $-1 $-1 $398 $152 #
plane-surface $-1 -33.579158356158558 -126.84076072579452 140.1520028756506 -1 0 0 0 -0.5877852598018023 0.80901698891910034 forward_v I I I I #
coedge $-1 $399 $400 $401 $402 reversed $153 $-1 #
coedge $-1 $249 $155 $403 $404 reversed $97 $-1 #
coedge $-1 $155 $248 $399 $405 reversed $97 $-1 #
coedge $-1 $401 $406 $155 $251 forward $407 $-1 #
edge $-1 $408 53.003599290329376 $409 56.700197583833145 $250 $410 forward 7 unknown #
loop $-1 $-1 $257 $156 #
plane-surface $-1 -42.767226824238577 -34.732458799786343 13.375803853992153 0 -0.5877852598018023 0.80901698891910034 1 0 0 forward_v I I I I #
loop $-1 $-1 $411 $99 #
coedge $-1 $255 $255 $256 $412 reversed $157 $-1 #
coedge $-1 $256 $256 $255 $412 forward $159 $-1 #
coedge $-1 $257 $257 $160 $258 forward $252 $-1 #
edge $-1 $413 5.2782961409183908e-016 $413 6.2831853071796013 $257 $414 forward 7 unknown #
loop $-1 $-1 $264 $161 #
plane-surface $-1 -42.767226824238577 -34.732458799786343 13.375803853992153 0 -0.5877852598018023 0.80901698891910034 1 0 0 forward_v I I I I #
loop $-1 $-1 $415 $102 #
coedge $-1 $262 $262 $263 $416 reversed $162 $-1 #
coedge $-1 $263 $263 $262 $416 forward $164 $-1 #
coedge $-1 $264 $264 $165 $265 forward $259 $-1 #
edge $-1 $417 5.2782961409183908e-016 $417 6.2831853071796013 $264 $418 forward 7 unknown #
loop $-1 $-1 $271 $166 #
plane-surface $-1 -42.767226824238577 -34.732458799786343 13.375803853992153 0 -0.5877852598018023 0.80901698891910034 1 0 0 forward_v I I I I #
loop $-1 $-1 $419 $105 #
coedge $-1 $269 $269 $270 $420 reversed $167 $-1 #
coedge $-1 $270 $270 $269 $420 forward $169 $-1 #
coedge $-1 $271 $271 $170 $272 forward $266 $-1 #
edge $-1 $421 5.2782961409183908e-016 $421 6.2831853071796013 $271 $422 forward 7 unknown #
face $-1 $423 $424 $60 $-1 $425 reversed single #
loop $-1 $-1 $426 $171 #
plane-surface $-1 0.65869632875424777 -126.84076072579452 140.1520028756506 -1 0 0 0 -0.5877852598018023 0.80901698891910034 forward_v I I I I #
coedge $-1 $427 $428 $429 $430 reversed $172 $-1 #
coedge $-1 $278 $174 $431 $432 reversed $109 $-1 #
coedge $-1 $174 $277 $427 $433 reversed $109 $-1 #
coedge $-1 $429 $434 $174 $280 forward $424 $-1 #
edge $-1 $435 53.003599290329376 $436 56.700197583833145 $279 $437 forward 7 unknown #
loop $-1 $-1 $286 $175 #
plane-surface $-1 -8.5293721393257727 -34.732458799786343 13.375803853992153 0 -0.5877852598018023 0.80901698891910034 1 0 0 forward_v I I I I #
loop $-1 $-1 $438 $111 #
coedge $-1 $284 $284 $285 $439 reversed $176 $-1 #
coedge $-1 $285 $285 $284 $439 forward $178 $-1 #
coedge $-1 $286 $286 $179 $287 forward $281 $-1 #
edge $-1 $440 5.2782961409183908e-016 $440 6.2831853071796013 $286 $441 forward 7 unknown #
loop $-1 $-1 $293 $180 #
plane-surface $-1 -8.5293721393257727 -34.732458799786343 13.375803853992153 0 -0.5877852598018023 0.80901698891910034 1 0 0 forward_v I I I I #
loop $-1 $-1 $442 $114 #
coedge $-1 $291 $291 $292 $443 reversed $181 $-1 #
coedge $-1 $292 $292 $291 $443 forward $183 $-1 #
coedge $-1 $293 $293 $184 $294 forward $288 $-1 #
edge $-1 $444 5.2782961409183908e-016 $444 6.2831853071796013 $293 $445 forward 7 unknown #
loop $-1 $-1 $300 $185 #
plane-surface $-1 -8.5293721393257727 -34.732458799786343 13.375803853992153 0 -0.5877852598018023 0.80901698891910034 1 0 0 forward_v I I I I #
loop $-1 $-1 $446 $117 #
coedge $-1 $298 $298 $299 $447 reversed $186 $-1 #
coedge $-1 $299 $299 $298 $447 forward $188 $-1 #
coedge $-1 $300 $300 $189 $301 forward $295 $-1 #
edge $-1 $448 5.2782961409183908e-016 $448 6.2831853071796013 $300 $449 forward 7 unknown #
face $-1 $450 $451 $64 $-1 $452 reversed single #
loop $-1 $-1 $453 $190 #
plane-surface $-1 34.89655101366705 -126.84076072579452 140.1520028756506 -1 0 0 0 -0.5877852598018023 0.80901698891910034 forward_v I I I I #
coedge $-1 $454 $455 $456 $457 reversed $191 $-1 #
coedge $-1 $307 $193 $458 $459 reversed $121 $-1 #
coedge $-1 $193 $306 $454 $460 reversed $121 $-1 #
coedge $-1 $456 $461 $193 $309 forward $451 $-1 #
edge $-1 $462 53.003599290329376 $463 56.700197583833145 $308 $464 forward 7 unknown #
loop $-1 $-1 $315 $194 #
plane-surface $-1 25.708482545587032 -34.732458799786343 13.375803853992153 0 -0.5877852598018023 0.80901698891910034 1 0 0 forward_v I I I I #
loop $-1 $-1 $465 $123 #
coedge $-1 $313 $313 $314 $466 reversed $195 $-1 #
coedge $-1 $314 $314 $313 $466 forward $197 $-1 #
coedge $-1 $315 $315 $198 $316 forward $310 $-1 #
edge $-1 $467 5.2782961409183908e-016 $467 6.2831853071796013 $315 $468 forward 7 unknown #
loop $-1 $-1 $322 $199 #
plane-surface $-1 25.708482545587032 -34.732458799786343 13.375803853992153 0 -0.5877852598018023 0.80901698891910034 1 0 0 forward_v I I I I #
loop $-1 $-1 $469 $126 #
coedge $-1 $320 $320 $321 $470 reversed $200 $-1 #
coedge $-1 $321 $321 $320 $470 forward $202 $-1 #
coedge $-1 $322 $322 $203 $323 forward $317 $-1 #
edge $-1 $471 5.2782961409183908e-016 $471 6.2831853071796013 $322 $472 forward 7 unknown #
loop $-1 $-1 $329 $204 #
plane-surface $-1 25.708482545587032 -34.732458799786343 13.375803853992153 0 -0.5877852598018023 0.80901698891910034 1 0 0 forward_v I I I I #
loop $-1 $-1 $473 $129 #
coedge $-1 $327 $327 $328 $474 reversed $205 $-1 #
coedge $-1 $328 $328 $327 $474 forward $207 $-1 #
coedge $-1 $329 $329 $208 $330 forward $324 $-1 #
edge $-1 $475 5.2782961409183908e-016 $475 6.2831853071796013 $329 $476 forward 7 unknown #
face $-1 $477 $478 $68 $-1 $479 reversed single #
loop $-1 $-1 $480 $209 #
plane-surface $-1 69.134405698579855 -126.84076072579452 140.1520028756506 -1 0 0 0 -0.5877852598018023 0.80901698891910034 forward_v I I I I #
coedge $-1 $481 $482 $483 $484 reversed $210 $-1 #
coedge $-1 $336 $212 $485 $486 reversed $133 $-1 #
coedge $-1 $212 $335 $481 $487 reversed $133 $-1 #
coedge $-1 $483 $488 $212 $338 forward $478 $-1 #
edge $-1 $489 53.003599290329376 $490 56.700197583833145 $337 $491 forward 7 unknown #
loop $-1 $-1 $344 $213 #
plane-surface $-1 59.946337230499836 -34.732458799786343 13.375803853992153 0 -0.5877852598018023 0.80901698891910034 1 0 0 forward_v I I I I #
loop $-1 $-1 $492 $135 #
coedge $-1 $342 $342 $343 $493 reversed $214 $-1 #
coedge $-1 $343 $343 $342 $493 forward $216 $-1 #
coedge $-1 $344 $344 $217 $345 forward $339 $-1 #
edge $-1 $494 5.2782961409183908e-016 $494 6.2831853071796013 $344 $495 forward 7 unknown #
loop $-1 $-1 $351 $218 #
plane-surface $-1 59.946337230499836 -34.732458799786343 13.375803853992153 0 -0.5877852598018023 0.80901698891910034 1 0 0 forward_v I I I I #
loop $-1 $-1 $496 $138 #
coedge $-1 $349 $349 $350 $497 reversed $219 $-1 #
coedge $-1 $350 $350 $349 $497 forward $221 $-1 #
coedge $-1 $351 $351 $222 $352 forward $346 $-1 #
edge $-1 $498 5.2782961409183908e-016 $498 6.2831853071796013 $351 $499 forward 7 unknown #
loop $-1 $-1 $358 $223 #
plane-surface $-1 59.946337230499836 -34.732458799786343 13.375803853992153 0 -0.5877852598018023 0.80901698891910034 1 0 0 forward_v I I I I #
loop $-1 $-1 $500 $141 #
coedge $-1 $356 $356 $357 $501 reversed $224 $-1 #
coedge $-1 $357 $357 $356 $501 forward $226 $-1 #
coedge $-1 $358 $358 $227 $359 forward $353 $-1 #
edge $-1 $502 5.2782961409183908e-016 $502 6.2831853071796013 $358 $503 forward 7 unknown #
face $-1 $504 $505 $54 $-1 $506 reversed single #
loop $-1 $-1 $507 $228 #
plane-surface $-1 -78.352000488296142 0 0 1 0 0 0 0 -1 forward_v I I I I #
coedge $-1 $508 $371 $509 $510 forward $229 $-1 #
coedge $-1 $511 $231 $508 $512 forward $145 $-1 #
coedge $-1 $231 $511 $513 $514 forward $145 $-1 #
coedge $-1 $374 $373 $231 $367 reversed $375 $-1 #
edge $-1 $515 -34.732458799786343 $516 34.732458799786343 $366 $517 forward 7 unknown #
coedge $-1 $233 $232 $518 $519 forward $91 $-1 #
coedge $-1 $520 $521 $232 $370 reversed $505 $-1 #
edge $-1 $377 -78.352000488296142 $522 78.352000488296142 $369 $523 forward 7 unknown #
coedge $-1 $363 $524 $233 $372 reversed $229 $-1 #
edge $-1 $525 -78.352000488296142 $376 78.352000488296142 $371 $526 forward 7 unknown #
coedge $-1 $366 $234 $524 $527 forward $375 $-1 #
coedge $-1 $234 $366 $520 $528 reversed $375 $-1 #
loop $-1 $-1 $373 $504 #
vertex $-1 $235 $529 #
vertex $-1 $235 $530 #
straight-curve $-1 78.352000488296142 0 17.072402147495922 0 1 0 I I #
face $-1 $531 $532 $55 $-1 $533 reversed single #
loop $-1 $-1 $384 $236 #
plane-surface $-1 0 -34.732458799786343 0 0 1 0 0 0 1 forward_v I I I I #
coedge $-1 $534 $535 $383 $536 forward $237 $-1 #
coedge $-1 $391 $239 $382 $536 reversed $149 $-1 #
coedge $-1 $389 $537 $239 $385 forward $380 $-1 #
edge $-1 $538 -9.3997206421903687 $392 -5.9456423684207369 $384 $539 forward 7 unknown #
coedge $-1 $241 $240 $540 $541 reversed $94 $-1 #
coedge $-1 $542 $543 $240 $388 forward $544 $-1 #
edge $-1 $545 -44.11414580338333 $393 -24.361563566442292 $387 $546 forward 7 unknown #
coedge $-1 $547 $384 $241 $390 forward $380 $-1 #
edge $-1 $392 24.361563566442292 $548 44.11414580338333 $389 $549 forward 7 unknown #
coedge $-1 $242 $383 $542 $550 reversed $149 $-1 #
vertex $-1 $390 $551 #
vertex $-1 $388 $552 #
straight-curve $-1 -58.599418251355104 0 -13.61832387372629 0 1 0 I I #
face $-1 $-1 $407 $56 $-1 $553 reversed single #
loop $-1 $-1 $554 $244 #
plane-surface $-1 0 0 17.072402147495922 0 0 1 1 0 0 forward_v I I I I #
coedge $-1 $555 $556 $557 $558 reversed $245 $-1 #
coedge $-1 $559 $247 $249 $405 forward $153 $-1 #
coedge $-1 $247 $559 $555 $560 forward $153 $-1 #
coedge $-1 $557 $250 $247 $402 forward $407 $-1 #
edge $-1 $409 -30.571681880199307 $561 -12.19554494403927 $401 $562 forward 7 unknown #
coedge $-1 $563 $564 $248 $404 forward $396 $-1 #
edge $-1 $565 -33.775852522220575 $408 -28.687921563110919 $403 $566 forward 7 unknown #
edge $-1 $409 0 $565 6.2890285726971786 $249 $567 forward 7 unknown #
coedge $-1 $250 $557 $563 $568 reversed $407 $-1 #
loop $-1 $-1 $557 $395 #
vertex $-1 $568 $569 #
vertex $-1 $251 $570 #
straight-curve $-1 -51.955295292318596 -34.732458799786343 70.076001437825298 0 0 -1 I I #
coedge $-1 $411 $411 $-1 $571 reversed $254 $-1 #
edge $-1 $572 0 $572 6.2831853071796004 $255 $573 forward 7 unknown #
vertex $-1 $258 $574 #
ellipse-curve $-1 -48.28006790508659 -32.188493320231515 15.224103000744039 0 -0.5877852598018023 0.80901698891910034 1 0 0 1 I I #
coedge $-1 $415 $415 $-1 $575 reversed $261 $-1 #
edge $-1 $576 0 $576 6.2831853071796004 $262 $577 forward 7 unknown #
vertex $-1 $265 $578 #
ellipse-curve $-1 -42.767226824238577 -32.188493320231515 15.224103000744039 0 -0.5877852598018023 0.80901698891910034 1 0 0 1 I I #
coedge $-1 $419 $419 $-1 $579 reversed $268 $-1 #
edge $-1 $580 0 $580 6.2831853071796004 $269 $581 forward 7 unknown #
vertex $-1 $272 $582 #
ellipse-curve $-1 -37.254385743390564 -32.188493320231515 15.224103000744039 0 -0.5877852598018023 0.80901698891910034 1 0 0 1 I I #
face $-1 $-1 $583 $60 $-1 $584 forward single #
loop $-1 $-1 $279 $273 #
plane-surface $-1 0 -34.732458799786343 0 0 1 0 0 0 1 forward_v I I I I #
coedge $-1 $585 $586 $587 $588 reversed $274 $-1 #
coedge $-1 $589 $276 $278 $433 forward $172 $-1 #
coedge $-1 $276 $589 $585 $590 forward $172 $-1 #
coedge $-1 $587 $279 $276 $430 forward $424 $-1 #
edge $-1 $436 -13.452754537742905 $591 4.9233823984171341 $429 $592 forward 7 unknown #
coedge $-1 $593 $594 $277 $432 forward $583 $-1 #
edge $-1 $595 -33.775852522220575 $435 -28.687921563110919 $431 $596 forward 7 unknown #
edge $-1 $436 0 $595 6.2890285726971786 $278 $597 forward 7 unknown #
coedge $-1 $279 $587 $593 $598 reversed $424 $-1 #
vertex $-1 $598 $599 #
vertex $-1 $280 $600 #
straight-curve $-1 -17.717440607405791 -34.732458799786343 70.076001437825298 0 0 -1 I I #
coedge $-1 $438 $438 $-1 $601 reversed $283 $-1 #
edge $-1 $602 0 $602 6.2831853071796004 $284 $603 forward 7 unknown #
vertex $-1 $287 $604 #
ellipse-curve $-1 -14.042213220173778 -32.188493320231515 15.224103000744039 0 -0.5877852598018023 0.80901698891910034 1 0 0 1 I I #
coedge $-1 $442 $442 $-1 $605 reversed $290 $-1 #
edge $-1 $606 0 $606 6.2831853071796004 $291 $607 forward 7 unknown #
vertex $-1 $294 $608 #
ellipse-curve $-1 -8.5293721393257727 -32.188493320231515 15.224103000744039 0 -0.5877852598018023 0.80901698891910034 1 0 0 1 I I #
coedge $-1 $446 $446 $-1 $609 reversed $297 $-1 #
edge $-1 $610 0 $610 6.2831853071796004 $298 $611 forward 7 unknown #
vertex $-1 $301 $612 #
ellipse-curve $-1 -3.0165310584777529 -32.188493320231515 15.224103000744039 0 -0.5877852598018023 0.80901698891910034 1 0 0 1 I I #
face $-1 $-1 $613 $64 $-1 $614 forward single #
loop $-1 $-1 $308 $302 #
plane-surface $-1 0 -34.732458799786343 0 0 1 0 0 0 1 forward_v I I I I #
coedge $-1 $615 $616 $617 $618 reversed $303 $-1 #
coedge $-1 $619 $305 $307 $460 forward $191 $-1 #
coedge $-1 $305 $619 $615 $620 forward $191 $-1 #
coedge $-1 $617 $308 $305 $457 forward $451 $-1 #
edge $-1 $463 3.6661728047134972 $621 22.042309740873534 $456 $622 forward 7 unknown #
coedge $-1 $623 $624 $306 $459 forward $613 $-1 #
edge $-1 $625 -33.775852522220575 $462 -28.687921563110919 $458 $626 forward 7 unknown #
edge $-1 $463 0 $625 6.2890285726971786 $307 $627 forward 7 unknown #
coedge $-1 $308 $617 $623 $628 reversed $451 $-1 #
vertex $-1 $628 $629 #
vertex $-1 $309 $630 #
straight-curve $-1 16.520414077507013 -34.732458799786343 70.076001437825298 0 0 -1 I I #
coedge $-1 $465 $465 $-1 $631 reversed $312 $-1 #
edge $-1 $632 0 $632 6.2831853071796004 $313 $633 forward 7 unknown #
vertex $-1 $316 $634 #
ellipse-curve $-1 20.195641464739026 -32.188493320231515 15.224103000744039 0 -0.5877852598018023 0.80901698891910034 1 0 0 1 I I #
coedge $-1 $469 $469 $-1 $635 reversed $319 $-1 #
edge $-1 $636 0 $636 6.2831853071796004 $320 $637 forward 7 unknown #
vertex $-1 $323 $638 #
ellipse-curve $-1 25.708482545587032 -32.188493320231515 15.224103000744039 0 -0.5877852598018023 0.80901698891910034 1 0 0 1 I I #
coedge $-1 $473 $473 $-1 $639 reversed $326 $-1 #
edge $-1 $640 0 $640 6.2831853071796004 $327 $641 forward 7 unknown #
vertex $-1 $330 $642 #
ellipse-curve $-1 31.221323626435066 -32.188493320231515 15.224103000744039 0 -0.5877852598018023 0.80901698891910034 1 0 0 1 I I #
face $-1 $-1 $643 $68 $-1 $644 forward single #
loop $-1 $-1 $337 $331 #
plane-surface $-1 0 -34.732458799786343 0 0 1 0 0 0 1 forward_v I I I I #
coedge $-1 $645 $646 $647 $648 reversed $332 $-1 #
coedge $-1 $649 $334 $336 $487 forward $210 $-1 #
coedge $-1 $334 $649 $645 $650 forward $210 $-1 #
coedge $-1 $647 $337 $334 $484 forward $478 $-1 #
edge $-1 $490 20.785100147169899 $651 39.161237083329937 $483 $652 forward 7 unknown #
coedge $-1 $653 $654 $335 $486 forward $643 $-1 #
edge $-1 $655 -33.775852522220575 $489 -28.687921563110919 $485 $656 forward 7 unknown #
edge $-1 $490 0 $655 6.2890285726971786 $336 $657 forward 7 unknown #
coedge $-1 $337 $647 $653 $658 reversed $478 $-1 #
vertex $-1 $658 $659 #
vertex $-1 $338 $660 #
straight-curve $-1 50.758268762419817 -34.732458799786343 70.076001437825298 0 0 -1 I I #
coedge $-1 $492 $492 $-1 $661 reversed $341 $-1 #
edge $-1 $662 0 $662 6.2831853071796004 $342 $663 forward 7 unknown #
vertex $-1 $345 $664 #
ellipse-curve $-1 54.43349614965183 -32.188493320231515 15.224103000744039 0 -0.5877852598018023 0.80901698891910034 1 0 0 1 I I #
coedge $-1 $496 $496 $-1 $665 reversed $348 $-1 #
edge $-1 $666 0 $666 6.2831853071796004 $349 $667 forward 7 unknown #
vertex $-1 $352 $668 #
ellipse-curve $-1 59.946337230499836 -32.188493320231515 15.224103000744039 0 -0.5877852598018023 0.80901698891910034 1 0 0 1 I I #
coedge $-1 $500 $500 $-1 $669 reversed $355 $-1 #
edge $-1 $670 0 $670 6.2831853071796004 $356 $671 forward 7 unknown #
vertex $-1 $359 $672 #
ellipse-curve $-1 65.45917831134787 -32.188493320231515 15.224103000744039 0 -0.5877852598018023 0.80901698891910034 1 0 0 1 I I #
face $-1 $-1 $375 $54 $-1 $673 reversed single #
loop $-1 $-1 $520 $360 #
plane-surface $-1 0 34.732458799786343 0 0 -1 0 0 0 -1 forward_v I I I I #
coedge $-1 $674 $518 $521 $675 forward $361 $-1 #
coedge $-1 $524 $363 $364 $512 reversed $229 $-1 #
coedge $-1 $518 $674 $363 $510 reversed $361 $-1 #
edge $-1 $525 -17.072402147495922 $676 17.072402147495922 $509 $677 forward 7 unknown #
coedge $-1 $365 $364 $674 $678 forward $145 $-1 #
edge $-1 $516 -78.352000488296142 $676 78.352000488296142 $508 $679 forward 7 unknown #
coedge $-1 $521 $520 $365 $514 reversed $505 $-1 #
edge $-1 $680 -78.352000488296142 $515 78.352000488296142 $513 $681 forward 7 unknown #
vertex $-1 $367 $682 #
vertex $-1 $527 $683 #
straight-curve $-1 78.352000488296142 0 -17.072402147495922 0 -1 0 I I #
coedge $-1 $507 $509 $368 $519 reversed $361 $-1 #
edge $-1 $522 -34.732458799786343 $525 34.732458799786343 $518 $684 forward 7 unknown #
coedge $-1 $513 $369 $374 $528 forward $505 $-1 #
coedge $-1 $369 $513 $507 $675 reversed $505 $-1 #
vertex $-1 $370 $685 #
straight-curve $-1 0 34.732458799786343 17.072402147495922 -1 0 0 I I #
coedge $-1 $371 $508 $373 $527 reversed $229 $-1 #
vertex $-1 $519 $686 #
straight-curve $-1 0 -34.732458799786343 17.072402147495922 1 0 0 I I #
edge $-1 $376 -17.072402147495922 $516 17.072402147495922 $373 $687 forward 7 unknown #
edge $-1 $377 -17.072402147495922 $515 17.072402147495922 $374 $688 forward 7 unknown #
point $-1 78.352000488296142 -34.732458799786343 17.072402147495922 #
point $-1 78.352000488296142 34.732458799786343 17.072402147495922 #
face $-1 $-1 $544 $55 $-1 $689 reversed single #
loop $-1 $-1 $540 $379 #
plane-surface $-1 -78.352000488296142 0 0 1 0 0 0 0 -1 forward_v I I I I #
coedge $-1 $690 $382 $537 $691 forward $237 $-1 #
coedge $-1 $382 $690 $692 $693 forward $237 $-1 #
edge $-1 $694 -34.732458799786343 $538 34.732458799786343 $382 $695 forward 7 unknown #
coedge $-1 $384 $547 $534 $691 reversed $380 $-1 #
vertex $-1 $691 $696 #
straight-curve $-1 -58.599418251355104 -34.732458799786343 -7.6726815053055528 0 0 1 I I #
coedge $-1 $697 $698 $386 $541 forward $532 $-1 #
edge $-1 $548 -34.732458799786343 $545 34.732458799786343 $540 $699 forward 7 unknown #
coedge $-1 $692 $387 $391 $550 forward $544 $-1 #
coedge $-1 $387 $692 $697 $700 reversed $544 $-1 #
loop $-1 $-1 $542 $531 #
vertex $-1 $700 $701 #
straight-curve $-1 -34.237854684912811 34.732458799786343 -13.61832387372629 1 0 0 I I #
coedge $-1 $537 $389 $698 $702 forward $380 $-1 #
vertex $-1 $702 $703 #
straight-curve $-1 -34.237854684912811 -34.732458799786343 -13.61832387372629 -1 0 0 I I #
edge $-1 $393 5.9456423684207369 $694 9.3997206421903687 $542 $704 forward 7 unknown #
point $-1 -58.599418251355104 -34.732458799786343 -13.61832387372629 #
point $-1 -58.599418251355104 34.732458799786343 -13.61832387372629 #
plane-surface $-1 0 -34.732458799786343 0 0 1 0 0 0 1 forward_v I I I I #
coedge $-1 $564 $563 $556 $705 forward $396 $-1 #
coedge $-1 $556 $398 $400 $560 reversed $245 $-1 #
coedge $-1 $398 $555 $554 $705 reversed $245 $-1 #
coedge $-1 $406 $401 $398 $558 forward $407 $-1 #
edge $-1 $561 -56.700197583833145 $706 -53.003599290329376 $557 $707 forward 7 unknown #
coedge $-1 $400 $399 $564 $708 reversed $153 $-1 #
edge $-1 $709 -6.2890285726971786 $561 0 $555 $710 forward 7 unknown #
vertex $-1 $402 $711 #
straight-curve $-1 -21.383613412119288 -34.732458799786343 13.375803853992153 1 0 0 I I #
coedge $-1 $554 $403 $406 $568 forward $396 $-1 #
coedge $-1 $403 $554 $559 $708 forward $396 $-1 #
vertex $-1 $404 $712 #
straight-curve $-1 -51.955295292318596 -63.420380362897262 17.072402147495922 0 -1 0 I I #
straight-curve $-1 -51.955295292318596 -34.732458799786343 13.375803853992153 0 0.80901698891910034 0.5877852598018023 I I #
edge $-1 $408 -51.955295292318596 $706 -33.579158356158558 $406 $713 forward 7 unknown #
point $-1 -51.955295292318596 -34.732458799786343 17.072402147495922 #
point $-1 -51.955295292318596 -34.732458799786343 13.375803853992153 #
edge $-1 $714 1 $714 0 $411 $-1 forward 7 unknown #
vertex $-1 $412 $715 #
ellipse-curve $-1 -48.28006790508659 -30.21233513178564 12.504154651267916 0 -0.5877852598018023 0.80901698891910034 1 0 0 1 I I #
point $-1 -47.28006790508659 -32.188493320231508 15.22410300074403 #
edge $-1 $716 1 $716 0 $415 $-1 forward 7 unknown #
vertex $-1 $416 $717 #
ellipse-curve $-1 -42.767226824238577 -30.21233513178564 12.504154651267916 0 -0.5877852598018023 0.80901698891910034 1 0 0 1 I I #
point $-1 -41.767226824238577 -32.188493320231508 15.22410300074403 #
edge $-1 $718 1 $718 0 $419 $-1 forward 7 unknown #
vertex $-1 $420 $719 #
ellipse-curve $-1 -37.254385743390564 -30.21233513178564 12.504154651267916 0 -0.5877852598018023 0.80901698891910034 1 0 0 1 I I #
point $-1 -36.254385743390564 -32.188493320231508 15.22410300074403 #
loop $-1 $-1 $431 $423 #
plane-surface $-1 0 0 17.072402147495922 0 0 1 1 0 0 forward_v I I I I #
coedge $-1 $586 $426 $428 $590 reversed $274 $-1 #
coedge $-1 $426 $585 $720 $721 reversed $274 $-1 #
coedge $-1 $434 $429 $426 $588 forward $424 $-1 #
edge $-1 $591 -56.700197583833145 $722 -53.003599290329376 $587 $723 forward 7 unknown #
coedge $-1 $428 $427 $594 $724 reversed $172 $-1 #
edge $-1 $725 -6.2890285726971786 $591 0 $585 $726 forward 7 unknown #
vertex $-1 $430 $727 #
straight-curve $-1 -4.2646860696628863 -34.732458799786343 13.375803853992153 1 0 0 I I #
coedge $-1 $720 $431 $434 $598 forward $583 $-1 #
coedge $-1 $431 $720 $589 $724 forward $583 $-1 #
vertex $-1 $432 $728 #
straight-curve $-1 -17.717440607405791 -63.420380362897262 17.072402147495922 0 -1 0 I I #
straight-curve $-1 -17.717440607405791 -34.732458799786343 13.375803853992153 0 0.80901698891910034 0.5877852598018023 I I #
edge $-1 $435 -17.717440607405791 $722 0.65869632875424777 $434 $729 forward 7 unknown #
point $-1 -17.717440607405791 -34.732458799786343 17.072402147495922 #
point $-1 -17.717440607405791 -34.732458799786343 13.375803853992153 #
edge $-1 $730 1 $730 0 $438 $-1 forward 7 unknown #
vertex $-1 $439 $731 #
ellipse-curve $-1 -14.042213220173778 -30.21233513178564 12.504154651267916 0 -0.5877852598018023 0.80901698891910034 1 0 0 1 I I #
point $-1 -13.042213220173778 -32.188493320231508 15.22410300074403 #
edge $-1 $732 1 $732 0 $442 $-1 forward 7 unknown #
vertex $-1 $443 $733 #
ellipse-curve $-1 -8.5293721393257727 -30.21233513178564 12.504154651267916 0 -0.5877852598018023 0.80901698891910034 1 0 0 1 I I #
point $-1 -7.5293721393257727 -32.188493320231508 15.22410300074403 #
edge $-1 $734 1 $734 0 $446 $-1 forward 7 unknown #
vertex $-1 $447 $735 #
ellipse-curve $-1 -3.0165310584777529 -30.21233513178564 12.504154651267916 0 -0.5877852598018023 0.80901698891910034 1 0 0 1 I I #
point $-1 -2.0165310584777529 -32.188493320231508 15.22410300074403 #
loop $-1 $-1 $458 $450 #
plane-surface $-1 0 0 17.072402147495922 0 0 1 1 0 0 forward_v I I I I #
coedge $-1 $616 $453 $455 $620 reversed $303 $-1 #
coedge $-1 $453 $615 $736 $737 reversed $303 $-1 #
coedge $-1 $461 $456 $453 $618 forward $451 $-1 #
edge $-1 $621 -56.700197583833145 $738 -53.003599290329376 $617 $739 forward 7 unknown #
coedge $-1 $455 $454 $624 $740 reversed $191 $-1 #
edge $-1 $741 -6.2890285726971786 $621 0 $615 $742 forward 7 unknown #
vertex $-1 $457 $743 #
straight-curve $-1 12.854241272793516 -34.732458799786343 13.375803853992153 1 0 0 I I #
coedge $-1 $736 $458 $461 $628 forward $613 $-1 #
coedge $-1 $458 $736 $619 $740 forward $613 $-1 #
vertex $-1 $459 $744 #
straight-curve $-1 16.520414077507013 -63.420380362897262 17.072402147495922 0 -1 0 I I #
straight-curve $-1 16.520414077507013 -34.732458799786343 13.375803853992153 0 0.80901698891910034 0.5877852598018023 I I #
edge $-1 $462 16.520414077507013 $738 34.89655101366705 $461 $745 forward 7 unknown #
point $-1 16.520414077507013 -34.732458799786343 17.072402147495922 #
point $-1 16.520414077507013 -34.732458799786343 13.375803853992153 #
edge $-1 $746 1 $746 0 $465 $-1 forward 7 unknown #
vertex $-1 $466 $747 #
ellipse-curve $-1 20.195641464739026 -30.21233513178564 12.504154651267916 0 -0.5877852598018023 0.80901698891910034 1 0 0 1 I I #
point $-1 21.195641464739026 -32.188493320231508 15.22410300074403 #
edge $-1 $748 1 $748 0 $469 $-1 forward 7 unknown #
vertex $-1 $470 $749 #
ellipse-curve $-1 25.708482545587032 -30.21233513178564 12.504154651267916 0 -0.5877852598018023 0.80901698891910034 1 0 0 1 I I #
point $-1 26.708482545587032 -32.188493320231508 15.22410300074403 #
edge $-1 $750 1 $750 0 $473 $-1 forward 7 unknown #
vertex $-1 $474 $751 #
ellipse-curve $-1 31.221323626435066 -30.21233513178564 12.504154651267916 0 -0.5877852598018023 0.80901698891910034 1 0 0 1 I I #
point $-1 32.221323626435066 -32.188493320231508 15.22410300074403 #
loop $-1 $-1 $485 $477 #
plane-surface $-1 0 0 17.072402147495922 0 0 1 1 0 0 forward_v I I I I #
coedge $-1 $646 $480 $482 $650 reversed $332 $-1 #
coedge $-1 $480 $645 $752 $753 reversed $332 $-1 #
coedge $-1 $488 $483 $480 $648 forward $478 $-1 #
edge $-1 $651 -56.700197583833145 $754 -53.003599290329376 $647 $755 forward 7 unknown #
coedge $-1 $482 $481 $654 $756 reversed $210 $-1 #
edge $-1 $757 -6.2890285726971786 $651 0 $645 $758 forward 7 unknown #
vertex $-1 $484 $759 #
straight-curve $-1 29.973168615249918 -34.732458799786343 13.375803853992153 1 0 0 I I #
coedge $-1 $752 $485 $488 $658 forward $643 $-1 #
coedge $-1 $485 $752 $649 $756 forward $643 $-1 #
vertex $-1 $486 $760 #
straight-curve $-1 50.758268762419817 -63.420380362897262 17.072402147495922 0 -1 0 I I #
straight-curve $-1 50.758268762419817 -34.732458799786343 13.375803853992153 0 0.80901698891910034 0.5877852598018023 I I #
edge $-1 $489 50.758268762419817 $754 69.134405698579855 $488 $761 forward 7 unknown #
point $-1 50.758268762419817 -34.732458799786343 17.072402147495922 #
point $-1 50.758268762419817 -34.732458799786343 13.375803853992153 #
edge $-1 $762 1 $762 0 $492 $-1 forward 7 unknown #
vertex $-1 $493 $763 #
ellipse-curve $-1 54.43349614965183 -30.21233513178564 12.504154651267916 0 -0.5877852598018023 0.80901698891910034 1 0 0 1 I I #
point $-1 55.43349614965183 -32.188493320231508 15.22410300074403 #
edge $-1 $764 1 $764 0 $496 $-1 forward 7 unknown #
vertex $-1 $497 $765 #
ellipse-curve $-1 59.946337230499836 -30.21233513178564 12.504154651267916 0 -0.5877852598018023 0.80901698891910034 1 0 0 1 I I #
point $-1 60.946337230499836 -32.188493320231508 15.22410300074403 #
edge $-1 $766 1 $766 0 $500 $-1 forward 7 unknown #
vertex $-1 $501 $767 #
ellipse-curve $-1 65.45917831134787 -30.21233513178564 12.504154651267916 0 -0.5877852598018023 0.80901698891910034 1 0 0 1 I I #
point $-1 66.45917831134787 -32.188493320231508 15.22410300074403 #
plane-surface $-1 78.352000488296142 0 0 -1 0 0 0 0 1 forward_v I I I I #
coedge $-1 $509 $507 $511 $678 reversed $361 $-1 #
edge $-1 $522 -17.072402147495922 $680 17.072402147495922 $521 $768 forward 7 unknown #
vertex $-1 $678 $769 #
straight-curve $-1 -78.352000488296142 -34.732458799786343 0 0 0 -1 I I #
edge $-1 $676 -34.732458799786343 $680 34.732458799786343 $674 $770 forward 7 unknown #
straight-curve $-1 0 -34.732458799786343 -17.072402147495922 -1 0 0 I I #
vertex $-1 $514 $771 #
straight-curve $-1 0 34.732458799786343 -17.072402147495922 1 0 0 I I #
point $-1 78.352000488296142 34.732458799786343 -17.072402147495922 #
point $-1 78.352000488296142 -34.732458799786343 -17.072402147495922 #
straight-curve $-1 -78.352000488296142 0 17.072402147495922 0 -1 0 I I #
point $-1 -78.352000488296142 34.732458799786343 17.072402147495922 #
point $-1 -78.352000488296142 -34.732458799786343 17.072402147495922 #
straight-curve $-1 78.352000488296142 -34.732458799786343 0 0 0 -1 I I #
straight-curve $-1 78.352000488296142 34.732458799786343 0 0 0 -1 I I #
plane-surface $-1 0 34.732458799786343 0 0 -1 0 0 0 -1 forward_v I I I I #
coedge $-1 $535 $534 $772 $773 forward $237 $-1 #
edge $-1 $538 58.599418251355104 $774 78.352000488296142 $537 $775 forward 7 unknown #
coedge $-1 $543 $542 $535 $693 reversed $544 $-1 #
edge $-1 $776 -78.352000488296142 $694 -58.599418251355104 $692 $777 forward 7 unknown #
vertex $-1 $550 $778 #
straight-curve $-1 -58.599418251355104 0 -17.072402147495922 0 -1 0 I I #
point $-1 -58.599418251355104 -34.732458799786343 -17.072402147495922 #
coedge $-1 $772 $540 $543 $700 forward $532 $-1 #
coedge $-1 $540 $772 $547 $702 reversed $532 $-1 #
straight-curve $-1 -78.352000488296142 0 -13.61832387372629 0 1 0 I I #
edge $-1 $545 13.61832387372629 $776 17.072402147495922 $543 $779 forward 7 unknown #
point $-1 -78.352000488296142 34.732458799786343 -13.61832387372629 #
edge $-1 $548 13.61832387372629 $774 17.072402147495922 $698 $780 forward 7 unknown #
point $-1 -78.352000488296142 -34.732458799786343 -13.61832387372629 #
straight-curve $-1 -58.599418251355104 34.732458799786343 -7.6726815053055528 0 0 -1 I I #
edge $-1 $706 28.687921563110919 $709 33.775852522220575 $554 $781 forward 7 unknown #
vertex $-1 $558 $782 #
straight-curve $-1 -33.579158356158558 -34.732458799786343 70.076001437825298 0 0 1 I I #
edge $-1 $709 12.19554494403927 $565 30.571681880199307 $564 $783 forward 7 unknown #
vertex $-1 $708 $784 #
straight-curve $-1 -33.579158356158558 -34.732458799786343 13.375803853992153 0 -0.80901698891910034 -0.5877852598018023 I I #
point $-1 -33.579158356158558 -34.732458799786343 13.375803853992153 #
point $-1 -51.955295292318596 -29.644527840676684 17.072402147495922 #
straight-curve $-1 0 -34.732458799786343 17.072402147495922 1 0 0 I I #
vertex $-1 $571 $785 #
point $-1 -47.28006790508659 -30.21233513178564 12.504154651267916 #
vertex $-1 $575 $786 #
point $-1 -41.767226824238577 -30.21233513178564 12.504154651267916 #
vertex $-1 $579 $787 #
point $-1 -36.254385743390564 -30.21233513178564 12.504154651267916 #
coedge $-1 $594 $593 $586 $721 forward $583 $-1 #
edge $-1 $722 28.687921563110919 $725 33.775852522220575 $720 $788 forward 7 unknown #
vertex $-1 $721 $789 #
straight-curve $-1 0.65869632875424777 -34.732458799786343 70.076001437825298 0 0 1 I I #
edge $-1 $725 -4.9233823984171341 $595 13.452754537742905 $594 $790 forward 7 unknown #
vertex $-1 $724 $791 #
straight-curve $-1 0.65869632875424777 -34.732458799786343 13.375803853992153 0 -0.80901698891910034 -0.5877852598018023 I I #
point $-1 0.65869632875424777 -34.732458799786343 13.375803853992153 #
point $-1 -17.717440607405791 -29.644527840676684 17.072402147495922 #
straight-curve $-1 0 -34.732458799786343 17.072402147495922 1 0 0 I I #
vertex $-1 $601 $792 #
point $-1 -13.042213220173778 -30.21233513178564 12.504154651267916 #
vertex $-1 $605 $793 #
point $-1 -7.5293721393257727 -30.21233513178564 12.504154651267916 #
vertex $-1 $609 $794 #
point $-1 -2.0165310584777529 -30.21233513178564 12.504154651267916 #
coedge $-1 $624 $623 $616 $737 forward $613 $-1 #
edge $-1 $738 28.687921563110919 $741 33.775852522220575 $736 $795 forward 7 unknown #
vertex $-1 $737 $796 #
straight-curve $-1 34.89655101366705 -34.732458799786343 70.076001437825298 0 0 1 I I #
edge $-1 $741 -22.042309740873534 $625 -3.6661728047134972 $624 $797 forward 7 unknown #
vertex $-1 $740 $798 #
straight-curve $-1 34.89655101366705 -34.732458799786343 13.375803853992153 0 -0.80901698891910034 -0.5877852598018023 I I #
point $-1 34.89655101366705 -34.732458799786343 13.375803853992153 #
point $-1 16.520414077507013 -29.644527840676684 17.072402147495922 #
straight-curve $-1 0 -34.732458799786343 17.072402147495922 1 0 0 I I #
vertex $-1 $631 $799 #
point $-1 21.195641464739026 -30.21233513178564 12.504154651267916 #
vertex $-1 $635 $800 #
point $-1 26.708482545587032 -30.21233513178564 12.504154651267916 #
vertex $-1 $639 $801 #
point $-1 32.221323626435066 -30.21233513178564 12.504154651267916 #
coedge $-1 $654 $653 $646 $753 forward $643 $-1 #
edge $-1 $754 28.687921563110919 $757 33.775852522220575 $752 $802 forward 7 unknown #
vertex $-1 $753 $803 #
straight-curve $-1 69.134405698579855 -34.732458799786343 70.076001437825298 0 0 1 I I #
edge $-1 $757 -39.161237083329937 $655 -20.785100147169899 $654 $804 forward 7 unknown #
vertex $-1 $756 $805 #
straight-curve $-1 69.134405698579855 -34.732458799786343 13.375803853992153 0 -0.80901698891910034 -0.5877852598018023 I I #
point $-1 69.134405698579855 -34.732458799786343 13.375803853992153 #
point $-1 50.758268762419817 -29.644527840676684 17.072402147495922 #
straight-curve $-1 0 -34.732458799786343 17.072402147495922 1 0 0 I I #
vertex $-1 $661 $806 #
point $-1 55.43349614965183 -30.21233513178564 12.504154651267916 #
vertex $-1 $665 $807 #
point $-1 60.946337230499836 -30.21233513178564 12.504154651267916 #
vertex $-1 $669 $808 #
point $-1 66.45917831134787 -30.21233513178564 12.504154651267916 #
straight-curve $-1 -78.352000488296142 34.732458799786343 0 0 0 -1 I I #
point $-1 -78.352000488296142 -34.732458799786343 -17.072402147495922 #
straight-curve $-1 -78.352000488296142 0 -17.072402147495922 0 1 0 I I #
point $-1 -78.352000488296142 34.732458799786343 -17.072402147495922 #
coedge $-1 $698 $697 $690 $773 reversed $532 $-1 #
edge $-1 $774 -34.732458799786343 $776 34.732458799786343 $772 $809 forward 7 unknown #
vertex $-1 $773 $810 #
straight-curve $-1 0 -34.732458799786343 -17.072402147495922 -1 0 0 I I #
vertex $-1 $693 $811 #
straight-curve $-1 0 34.732458799786343 -17.072402147495922 1 0 0 I I #
point $-1 -58.599418251355104 34.732458799786343 -17.072402147495922 #
straight-curve $-1 -78.352000488296142 34.732458799786343 0 0 0 -1 I I #
straight-curve $-1 -78.352000488296142 -34.732458799786343 0 0 0 -1 I I #
straight-curve $-1 -33.579158356158558 -63.420380362897262 17.072402147495922 0 1 0 I I #
point $-1 -33.579158356158558 -34.732458799786343 17.072402147495922 #
straight-curve $-1 -21.383613412119288 -29.644527840676687 17.072402147495922 -1 0 0 I I #
point $-1 -33.579158356158558 -29.644527840676684 17.072402147495922 #
point $-1 -48.28006790508659 -29.624549871983834 11.695137662348815 #
point $-1 -42.767226824238577 -29.624549871983834 11.695137662348815 #
point $-1 -37.254385743390564 -29.624549871983834 11.695137662348815 #
straight-curve $-1 0.65869632875424777 -63.420380362897262 17.072402147495922 0 1 0 I I #
point $-1 0.65869632875424777 -34.732458799786343 17.072402147495922 #
straight-curve $-1 -4.2646860696628863 -29.644527840676687 17.072402147495922 -1 0 0 I I #
point $-1 0.65869632875424777 -29.644527840676684 17.072402147495922 #
point $-1 -14.042213220173778 -29.624549871983834 11.695137662348815 #
point $-1 -8.5293721393257727 -29.624549871983834 11.695137662348815 #
point $-1 -3.0165310584777529 -29.624549871983834 11.695137662348815 #
straight-curve $-1 34.89655101366705 -63.420380362897262 17.072402147495922 0 1 0 I I #
point $-1 34.89655101366705 -34.732458799786343 17.072402147495922 #
straight-curve $-1 12.854241272793516 -29.644527840676687 17.072402147495922 -1 0 0 I I #
point $-1 34.89655101366705 -29.644527840676684 17.072402147495922 #
point $-1 20.195641464739026 -29.624549871983834 11.695137662348815 #
point $-1 25.708482545587032 -29.624549871983834 11.695137662348815 #
point $-1 31.221323626435066 -29.624549871983834 11.695137662348815 #
straight-curve $-1 69.134405698579855 -63.420380362897262 17.072402147495922 0 1 0 I I #
point $-1 69.134405698579855 -34.732458799786343 17.072402147495922 #
straight-curve $-1 29.973168615249918 -29.644527840676687 17.072402147495922 -1 0 0 I I #
point $-1 69.134405698579855 -29.644527840676684 17.072402147495922 #
point $-1 54.43349614965183 -29.624549871983834 11.695137662348815 #
point $-1 59.946337230499836 -29.624549871983834 11.695137662348815 #
point $-1 65.45917831134787 -29.624549871983834 11.695137662348815 #
straight-curve $-1 -78.352000488296142 0 -17.072402147495922 0 1 0 I I #
point $-1 -78.352000488296142 -34.732458799786343 -17.072402147495922 #
point $-1 -78.352000488296142 34.732458799786343 -17.072402147495922 #
End-of-ACIS-data 