500 0 17 0           
7 Unknown 11 ACIS 5.0 NT 24 Fri Mar 26 18:33:52 1999 
-1 9.9999999999999995e-007 1e-010 
body $-1 $17 $-1 $18 #
body $-1 $19 $-1 $20 #
body $-1 $21 $-1 $22 #
body $-1 $23 $-1 $24 #
body $-1 $25 $-1 $26 #
body $-1 $27 $-1 $28 #
body $-1 $29 $-1 $30 #
body $-1 $31 $-1 $32 #
body $-1 $33 $-1 $34 #
body $-1 $35 $-1 $36 #
body $-1 $37 $-1 $38 #
body $-1 $39 $-1 $40 #
body $-1 $41 $-1 $42 #
body $-1 $43 $-1 $44 #
body $-1 $45 $-1 $46 #
body $-1 $47 $-1 $48 #
body $-1 $49 $-1 $50 #
lump $-1 $-1 $51 $0 #
transform $-1 1 0 0 0 1 0 0 0 1 47.011932737205115 21.573236042656056 8.5671430610509862 1 rotate no_reflect no_shear #
lump $-1 $-1 $52 $1 #
transform $-1 1 0 0 0 1 0 0 0 1 47.011932737205115 21.573236042656056 8.5671430610509862 1 rotate no_reflect no_shear #
lump $-1 $-1 $53 $2 #
transform $-1 1 0 0 0 1 0 0 0 1 47.011932737205115 21.573236042656056 8.5671430610509862 1 rotate no_reflect no_shear #
lump $-1 $-1 $54 $3 #
transform $-1 1 0 0 0 1 0 0 0 1 47.011932737205115 21.573236042656056 8.5671430610509862 1 rotate no_reflect no_shear #
lump $-1 $-1 $55 $4 #
transform $-1 1 0 0 0 1 0 0 0 1 47.011932737205115 21.573236042656056 8.5671430610509862 1 rotate no_reflect no_shear #
lump $-1 $-1 $56 $5 #
transform $-1 1 0 0 0 1 0 0 0 1 47.011932737205115 21.573236042656056 8.5671430610509862 1 rotate no_reflect no_shear #
lump $-1 $-1 $57 $6 #
transform $-1 1 0 0 0 1 0 0 0 1 47.011932737205115 21.573236042656056 8.5671430610509862 1 rotate no_reflect no_shear #
lump $-1 $-1 $58 $7 #
transform $-1 1 0 0 0 1 0 0 0 1 47.011932737205115 21.573236042656056 8.5671430610509862 1 rotate no_reflect no_shear #
lump $-1 $-1 $59 $8 #
transform $-1 1 0 0 0 1 0 0 0 1 47.011932737205115 21.573236042656056 8.5671430610509862 1 rotate no_reflect no_shear #
lump $-1 $-1 $60 $9 #
transform $-1 1 0 0 0 1 0 0 0 1 47.011932737205115 21.573236042656056 8.5671430610509862 1 rotate no_reflect no_shear #
lump $-1 $-1 $61 $10 #
transform $-1 1 0 0 0 1 0 0 0 1 47.011932737205115 21.573236042656056 8.5671430610509862 1 rotate no_reflect no_shear #
lump $-1 $-1 $62 $11 #
transform $-1 1 0 0 0 1 0 0 0 1 47.011932737205115 21.573236042656056 8.5671430610509862 1 rotate no_reflect no_shear #
lump $-1 $-1 $63 $12 #
transform $-1 1 0 0 0 1 0 0 0 1 47.011932737205115 21.573236042656056 8.5671430610509862 1 rotate no_reflect no_shear #
lump $-1 $-1 $64 $13 #
transform $-1 1 0 0 0 1 0 0 0 1 47.011932737205115 21.573236042656056 8.5671430610509862 1 rotate no_reflect no_shear #
lump $-1 $-1 $65 $14 #
transform $-1 1 0 0 0 1 0 0 0 1 47.011932737205115 21.573236042656056 8.5671430610509862 1 rotate no_reflect no_shear #
lump $-1 $-1 $66 $15 #
transform $-1 1 0 0 0 1 0 0 0 1 47.011932737205115 21.573236042656056 8.5671430610509862 1 rotate no_reflect no_shear #
lump $-1 $-1 $67 $16 #
transform $-1 1 0 0 0 1 0 0 0 1 47.011932737205115 21.573236042656056 8.5671430610509862 1 rotate no_reflect no_shear #
shell $-1 $-1 $-1 $68 $-1 $17 #
shell $-1 $-1 $-1 $69 $-1 $19 #
shell $-1 $-1 $-1 $70 $-1 $21 #
shell $-1 $-1 $-1 $71 $-1 $23 #
shell $-1 $-1 $-1 $72 $-1 $25 #
shell $-1 $-1 $-1 $73 $-1 $27 #
shell $-1 $-1 $-1 $74 $-1 $29 #
shell $-1 $-1 $-1 $75 $-1 $31 #
shell $-1 $-1 $-1 $76 $-1 $33 #
shell $-1 $-1 $-1 $77 $-1 $35 #
shell $-1 $-1 $-1 $78 $-1 $37 #
shell $-1 $-1 $-1 $79 $-1 $39 #
shell $-1 $-1 $-1 $80 $-1 $41 #
shell $-1 $-1 $-1 $81 $-1 $43 #
shell $-1 $-1 $-1 $82 $-1 $45 #
shell $-1 $-1 $-1 $83 $-1 $47 #
shell $-1 $-1 $-1 $84 $-1 $49 #
face $-1 $85 $86 $51 $-1 $87 forward single #
face $-1 $88 $89 $52 $-1 $90 forward single #
face $-1 $91 $92 $53 $-1 $93 forward single #
face $-1 $94 $95 $54 $-1 $96 reversed single #
face $-1 $97 $98 $55 $-1 $99 forward single #
face $-1 $100 $101 $56 $-1 $102 reversed single #
face $-1 $103 $104 $57 $-1 $105 forward single #
face $-1 $106 $107 $58 $-1 $108 forward single #
face $-1 $109 $110 $59 $-1 $111 forward single #
face $-1 $112 $113 $60 $-1 $114 reversed single #
face $-1 $115 $116 $61 $-1 $117 forward single #
face $-1 $118 $119 $62 $-1 $120 forward single #
face $-1 $121 $122 $63 $-1 $123 forward single #
face $-1 $124 $125 $64 $-1 $126 reversed single #
face $-1 $127 $128 $65 $-1 $129 forward single #
face $-1 $130 $131 $66 $-1 $132 forward single #
face $-1 $133 $134 $67 $-1 $135 forward single #
face $-1 $136 $137 $51 $-1 $138 reversed single #
loop $-1 $-1 $139 $68 #
plane-surface $-1 0 0 8.5671430610509862 0 0 1 1 0 0 forward_v I I I I #
face $-1 $140 $141 $52 $-1 $142 reversed single #
loop $-1 $-1 $143 $69 #
plane-surface $-1 0 -18.352380344704429 -4.8991707107142357 0 0 1 1 0 0 forward_v I I I I #
face $-1 $144 $145 $53 $-1 $146 reversed single #
loop $-1 $-1 $147 $70 #
plane-surface $-1 0 18.352380344704429 -4.8991707107142357 0 0 1 1 0 0 forward_v I I I I #
face $-1 $148 $149 $54 $-1 $150 reversed single #
loop $-1 $-1 $151 $71 #
plane-surface $-1 51.65251434254931 7.3260680083770779 136.78431208395418 0 -1 0 -0.73135370988377701 0 -0.68199835119979291 forward_v I I I I #
face $-1 $152 $153 $55 $-1 $154 forward single #
loop $-1 $155 $156 $72 #
cone-surface $-1 44.15469119108684 3.5561278926113538 5.5980938003140555 -0.73135370988377701 0 -0.68199835119979291 0.68199835119979291 0 -0.73135370988377701 1 I I 0 1 1 forward I I I I #
face $-1 $157 $158 $56 $-1 $159 reversed single #
loop $-1 $-1 $160 $73 #
plane-surface $-1 -123.07883855229657 -11.080496814097401 60.478740097628346 0 1 0 -0.80901700255871778 0 0.5877852410284794 forward_v I I I I #
face $-1 $161 $162 $57 $-1 $163 forward single #
loop $-1 $164 $165 $74 #
cone-surface $-1 -45.14192534362958 -9.8731657610614398 6.4166736958730741 0.80901700255871778 0 -0.5877852410284794 0.2938926205142397 0 0.40450850127935889 1 I I 0 1 0.5 forward I I I I #
face $-1 $166 $167 $58 $-1 $168 forward single #
loop $-1 $169 $170 $75 #
cone-surface $-1 -45.14192534362958 -8.0621691815074996 6.4166736958730741 0.80901700255871778 0 -0.5877852410284794 0.2938926205142397 0 0.40450850127935889 1 I I 0 1 0.5 forward I I I I #
face $-1 $171 $172 $59 $-1 $173 forward single #
loop $-1 $174 $175 $76 #
cone-surface $-1 -45.14192534362958 -6.2511726019535594 6.4166736958730741 0.80901700255871778 0 -0.5877852410284794 0.2938926205142397 0 0.40450850127935889 1 I I 0 1 0.5 forward I I I I #
face $-1 $176 $177 $60 $-1 $178 reversed single #
loop $-1 $-1 $179 $77 #
plane-surface $-1 -123.07883855229657 -3.0183276325899016 60.478740097628346 0 1 0 -0.80901700255871778 0 0.5877852410284794 forward_v I I I I #
face $-1 $180 $181 $61 $-1 $182 forward single #
loop $-1 $183 $184 $78 #
cone-surface $-1 -45.14192534362958 -1.8109965795539402 6.4166736958730741 0.80901700255871778 0 -0.5877852410284794 0.2938926205142397 0 0.40450850127935889 1 I I 0 1 0.5 forward I I I I #
face $-1 $185 $186 $62 $-1 $187 forward single #
loop $-1 $188 $189 $79 #
cone-surface $-1 -45.14192534362958 0 6.4166736958730741 0.80901700255871778 0 -0.5877852410284794 0.2938926205142397 0 0.40450850127935889 1 I I 0 1 0.5 forward I I I I #
face $-1 $190 $191 $63 $-1 $192 forward single #
loop $-1 $193 $194 $80 #
cone-surface $-1 -45.14192534362958 1.8109965795539402 6.4166736958730741 0.80901700255871778 0 -0.5877852410284794 0.2938926205142397 0 0.40450850127935889 1 I I 0 1 0.5 forward I I I I #
face $-1 $195 $196 $64 $-1 $197 reversed single #
loop $-1 $-1 $198 $81 #
plane-surface $-1 -123.07883855229657 5.0438415489175981 60.478740097628346 0 1 0 -0.80901700255871778 0 0.5877852410284794 forward_v I I I I #
face $-1 $199 $200 $65 $-1 $201 forward single #
loop $-1 $202 $203 $82 #
cone-surface $-1 -45.14192534362958 6.2511726019535594 6.4166736958730741 0.80901700255871778 0 -0.5877852410284794 0.2938926205142397 0 0.40450850127935889 1 I I 0 1 0.5 forward I I I I #
face $-1 $204 $205 $66 $-1 $206 forward single #
loop $-1 $207 $208 $83 #
cone-surface $-1 -45.14192534362958 8.0621691815074996 6.4166736958730741 0.80901700255871778 0 -0.5877852410284794 0.2938926205142397 0 0.40450850127935889 1 I I 0 1 0.5 forward I I I I #
face $-1 $209 $210 $67 $-1 $211 forward single #
loop $-1 $212 $213 $84 #
cone-surface $-1 -45.14192534362958 9.8731657610614398 6.4166736958730741 0.80901700255871778 0 -0.5877852410284794 0.2938926205142397 0 0.40450850127935889 1 I I 0 1 0.5 forward I I I I #
face $-1 $214 $215 $51 $-1 $216 reversed single #
loop $-1 $-1 $217 $85 #
plane-surface $-1 0 0 -8.5671430610509862 0 0 1 1 0 0 forward_v I I I I #
coedge $-1 $218 $219 $220 $221 forward $86 $-1 #
face $-1 $222 $223 $52 $-1 $224 reversed single #
loop $-1 $-1 $225 $88 #
plane-surface $-1 0 -15.131524646752801 -6.733156885882611 0 -1 0 0 0 -1 forward_v I I I I #
coedge $-1 $226 $227 $228 $229 reversed $89 $-1 #
face $-1 $230 $231 $53 $-1 $232 reversed single #
loop $-1 $-1 $233 $91 #
plane-surface $-1 0 15.131524646752801 -6.733156885882611 0 1 0 0 0 1 forward_v I I I I #
coedge $-1 $234 $235 $236 $237 reversed $92 $-1 #
face $-1 $238 $239 $54 $-1 $240 reversed single #
loop $-1 $-1 $241 $94 #
plane-surface $-1 -17.112188489773786 3.5561278926113538 72.660190856975262 0.73135370988377701 0 0.68199835119979291 0.68199835119979291 0 -0.73135370988377701 forward_v I I I I #
coedge $-1 $242 $243 $244 $245 reversed $95 $-1 #
face $-1 $-1 $246 $55 $-1 $247 forward single #
loop $-1 $248 $249 $97 #
cone-surface $-1 43.109967136442535 3.5561278926113538 4.6238728821766397 -0.73135370988377701 0 -0.68199835119979291 0.34099917559989645 0 -0.36567685494188851 1 I I -0.70710678118654746 0.70710678118654746 0.5 forward I I I I #
loop $-1 $-1 $250 $72 #
coedge $-1 $156 $156 $251 $252 reversed $98 $-1 #
face $-1 $253 $254 $56 $-1 $255 reversed single #
loop $-1 $-1 $256 $100 #
plane-surface $-1 -47.0119327372051 -8.0621691815074996 5.2128996673228087 -0.80901700255871778 0 0.5877852410284794 0.5877852410284794 0 0.80901700255871778 forward_v I I I I #
coedge $-1 $257 $258 $259 $260 reversed $101 $-1 #
face $-1 $-1 $261 $57 $-1 $262 forward single #
loop $-1 $263 $264 $103 #
cone-surface $-1 -44.288163901149993 -9.8731657610614398 5.7963797173021323 0.80901700255871778 0 -0.5877852410284794 0.14694631025711985 0 0.20225425063967944 1 I I -0.70710678118654746 0.70710678118654746 0.25 forward I I I I #
loop $-1 $-1 $265 $74 #
coedge $-1 $165 $165 $266 $267 reversed $104 $-1 #
face $-1 $-1 $268 $58 $-1 $269 forward single #
loop $-1 $270 $271 $106 #
cone-surface $-1 -44.288163901149993 -8.0621691815074996 5.7963797173021323 0.80901700255871778 0 -0.5877852410284794 0.14694631025711985 0 0.20225425063967944 1 I I -0.70710678118654746 0.70710678118654746 0.25 forward I I I I #
loop $-1 $-1 $272 $75 #
coedge $-1 $170 $170 $273 $274 reversed $107 $-1 #
face $-1 $-1 $275 $59 $-1 $276 forward single #
loop $-1 $277 $278 $109 #
cone-surface $-1 -44.288163901149993 -6.2511726019535594 5.7963797173021323 0.80901700255871778 0 -0.5877852410284794 0.14694631025711985 0 0.20225425063967944 1 I I -0.70710678118654746 0.70710678118654746 0.25 forward I I I I #
loop $-1 $-1 $279 $76 #
coedge $-1 $175 $175 $280 $281 reversed $110 $-1 #
face $-1 $282 $283 $60 $-1 $284 reversed single #
loop $-1 $-1 $285 $112 #
plane-surface $-1 -47.0119327372051 0 5.2128996673228087 -0.80901700255871778 0 0.5877852410284794 0.5877852410284794 0 0.80901700255871778 forward_v I I I I #
coedge $-1 $286 $287 $288 $289 reversed $113 $-1 #
face $-1 $-1 $290 $61 $-1 $291 forward single #
loop $-1 $292 $293 $115 #
cone-surface $-1 -44.288163901149993 -1.8109965795539402 5.7963797173021323 0.80901700255871778 0 -0.5877852410284794 0.14694631025711985 0 0.20225425063967944 1 I I -0.70710678118654746 0.70710678118654746 0.25 forward I I I I #
loop $-1 $-1 $294 $78 #
coedge $-1 $184 $184 $295 $296 reversed $116 $-1 #
face $-1 $-1 $297 $62 $-1 $298 forward single #
loop $-1 $299 $300 $118 #
cone-surface $-1 -44.288163901149993 0 5.7963797173021323 0.80901700255871778 0 -0.5877852410284794 0.14694631025711985 0 0.20225425063967944 1 I I -0.70710678118654746 0.70710678118654746 0.25 forward I I I I #
loop $-1 $-1 $301 $79 #
coedge $-1 $189 $189 $302 $303 reversed $119 $-1 #
face $-1 $-1 $304 $63 $-1 $305 forward single #
loop $-1 $306 $307 $121 #
cone-surface $-1 -44.288163901149993 1.8109965795539402 5.7963797173021323 0.80901700255871778 0 -0.5877852410284794 0.14694631025711985 0 0.20225425063967944 1 I I -0.70710678118654746 0.70710678118654746 0.25 forward I I I I #
loop $-1 $-1 $308 $80 #
coedge $-1 $194 $194 $309 $310 reversed $122 $-1 #
face $-1 $311 $312 $64 $-1 $313 reversed single #
loop $-1 $-1 $314 $124 #
plane-surface $-1 -47.0119327372051 8.0621691815074996 5.2128996673228087 -0.80901700255871778 0 0.5877852410284794 0.5877852410284794 0 0.80901700255871778 forward_v I I I I #
coedge $-1 $315 $316 $317 $318 reversed $125 $-1 #
face $-1 $-1 $319 $65 $-1 $320 forward single #
loop $-1 $321 $322 $127 #
cone-surface $-1 -44.288163901149993 6.2511726019535594 5.7963797173021323 0.80901700255871778 0 -0.5877852410284794 0.14694631025711985 0 0.20225425063967944 1 I I -0.70710678118654746 0.70710678118654746 0.25 forward I I I I #
loop $-1 $-1 $323 $82 #
coedge $-1 $203 $203 $324 $325 reversed $128 $-1 #
face $-1 $-1 $326 $66 $-1 $327 forward single #
loop $-1 $328 $329 $130 #
cone-surface $-1 -44.288163901149993 8.0621691815074996 5.7963797173021323 0.80901700255871778 0 -0.5877852410284794 0.14694631025711985 0 0.20225425063967944 1 I I -0.70710678118654746 0.70710678118654746 0.25 forward I I I I #
loop $-1 $-1 $330 $83 #
coedge $-1 $208 $208 $331 $332 reversed $131 $-1 #
face $-1 $-1 $333 $67 $-1 $334 forward single #
loop $-1 $335 $336 $133 #
cone-surface $-1 -44.288163901149993 9.8731657610614398 5.7963797173021323 0.80901700255871778 0 -0.5877852410284794 0.14694631025711985 0 0.20225425063967944 1 I I -0.70710678118654746 0.70710678118654746 0.25 forward I I I I #
loop $-1 $-1 $337 $84 #
coedge $-1 $213 $213 $338 $339 reversed $134 $-1 #
face $-1 $340 $341 $51 $-1 $342 reversed single #
loop $-1 $-1 $343 $136 #
plane-surface $-1 0 -21.573236042656056 0 0 1 0 0 0 1 forward_v I I I I #
coedge $-1 $344 $345 $346 $347 forward $137 $-1 #
coedge $-1 $348 $139 $349 $350 forward $86 $-1 #
coedge $-1 $139 $348 $351 $352 forward $86 $-1 #
coedge $-1 $353 $354 $139 $221 reversed $355 $-1 #
edge $-1 $356 -21.573236042656056 $357 21.573236042656056 $220 $358 forward 7 unknown #
face $-1 $359 $360 $52 $-1 $361 reversed single #
loop $-1 $-1 $362 $140 #
plane-surface $-1 0 0 -8.5671430610509862 0 0 1 1 0 0 forward_v I I I I #
coedge $-1 $363 $364 $365 $366 reversed $141 $-1 #
coedge $-1 $367 $143 $364 $368 forward $89 $-1 #
coedge $-1 $143 $367 $369 $370 reversed $89 $-1 #
coedge $-1 $371 $365 $143 $229 forward $360 $-1 #
edge $-1 $372 5.9553344744005869 $373 12.397045870303842 $228 $374 forward 7 unknown #
face $-1 $375 $376 $53 $-1 $377 reversed single #
loop $-1 $-1 $236 $144 #
plane-surface $-1 47.011932737205115 0 0 -1 0 0 0 0 1 forward_v I I I I #
coedge $-1 $378 $379 $380 $381 reversed $145 $-1 #
coedge $-1 $382 $147 $383 $384 reversed $92 $-1 #
coedge $-1 $147 $382 $379 $385 forward $92 $-1 #
coedge $-1 $386 $387 $147 $237 forward $231 $-1 #
edge $-1 $388 -12.397045870303842 $389 -5.9553344744005869 $236 $390 forward 7 unknown #
face $-1 $391 $392 $54 $-1 $393 forward single #
loop $-1 $-1 $394 $148 #
plane-surface $-1 51.65251434254931 -0.21381222315437043 136.78431208395418 0 1 0 0.73135370988377701 0 0.68199835119979291 forward_v I I I I #
coedge $-1 $395 $396 $397 $398 reversed $149 $-1 #
coedge $-1 $243 $151 $399 $400 reversed $95 $-1 #
coedge $-1 $151 $242 $395 $401 reversed $95 $-1 #
coedge $-1 $397 $402 $151 $245 forward $392 $-1 #
edge $-1 $403 -21.18567556593046 $404 -16.829286873098766 $244 $405 forward 7 unknown #
loop $-1 $-1 $251 $152 #
plane-surface $-1 -17.112188489773786 3.5561278926113538 72.660190856975262 0.73135370988377701 0 0.68199835119979291 0.68199835119979291 0 -0.73135370988377701 forward_v I I I I #
loop $-1 $-1 $406 $97 #
coedge $-1 $249 $249 $250 $407 reversed $153 $-1 #
coedge $-1 $250 $250 $249 $407 forward $155 $-1 #
coedge $-1 $251 $251 $156 $252 forward $246 $-1 #
edge $-1 $408 0 $408 6.2831853071796004 $251 $409 forward 7 unknown #
face $-1 $410 $411 $56 $-1 $412 reversed single #
loop $-1 $-1 $413 $157 #
plane-surface $-1 -123.07883855229657 -5.0438415489175981 60.478740097628346 0 -1 0 0.80901700255871778 0 -0.5877852410284794 forward_v I I I I #
coedge $-1 $414 $415 $416 $417 reversed $158 $-1 #
coedge $-1 $258 $160 $418 $419 reversed $101 $-1 #
coedge $-1 $160 $257 $414 $420 reversed $101 $-1 #
coedge $-1 $416 $421 $160 $260 forward $422 $-1 #
edge $-1 $423 14.527486538943172 $424 16.964486942414446 $259 $425 forward 7 unknown #
loop $-1 $-1 $266 $161 #
plane-surface $-1 -47.0119327372051 -8.0621691815074996 5.2128996673228087 -0.80901700255871778 0 0.5877852410284794 0.5877852410284794 0 0.80901700255871778 forward_v I I I I #
loop $-1 $-1 $426 $103 #
coedge $-1 $264 $264 $265 $427 reversed $162 $-1 #
coedge $-1 $265 $265 $264 $427 forward $164 $-1 #
coedge $-1 $266 $266 $165 $267 forward $261 $-1 #
edge $-1 $428 0 $428 6.2831853071796004 $266 $429 forward 7 unknown #
loop $-1 $-1 $273 $166 #
plane-surface $-1 -47.0119327372051 -8.0621691815074996 5.2128996673228087 -0.80901700255871778 0 0.5877852410284794 0.5877852410284794 0 0.80901700255871778 forward_v I I I I #
loop $-1 $-1 $430 $106 #
coedge $-1 $271 $271 $272 $431 reversed $167 $-1 #
coedge $-1 $272 $272 $271 $431 forward $169 $-1 #
coedge $-1 $273 $273 $170 $274 forward $268 $-1 #
edge $-1 $432 0 $432 6.2831853071796004 $273 $433 forward 7 unknown #
loop $-1 $-1 $280 $171 #
plane-surface $-1 -47.0119327372051 -8.0621691815074996 5.2128996673228087 -0.80901700255871778 0 0.5877852410284794 0.5877852410284794 0 0.80901700255871778 forward_v I I I I #
loop $-1 $-1 $434 $109 #
coedge $-1 $278 $278 $279 $435 reversed $172 $-1 #
coedge $-1 $279 $279 $278 $435 forward $174 $-1 #
coedge $-1 $280 $280 $175 $281 forward $275 $-1 #
edge $-1 $436 0 $436 6.2831853071796004 $280 $437 forward 7 unknown #
face $-1 $438 $439 $60 $-1 $440 forward single #
loop $-1 $-1 $441 $176 #
plane-surface $-1 -123.07883855229657 3.0183276325899016 60.478740097628346 0 -1 0 0.80901700255871778 0 -0.5877852410284794 forward_v I I I I #
coedge $-1 $442 $443 $444 $445 reversed $177 $-1 #
coedge $-1 $287 $179 $446 $447 reversed $113 $-1 #
coedge $-1 $179 $286 $442 $448 reversed $113 $-1 #
coedge $-1 $444 $449 $179 $289 forward $439 $-1 #
edge $-1 $450 14.527486538943172 $451 16.964486942414446 $288 $452 forward 7 unknown #
loop $-1 $-1 $295 $180 #
plane-surface $-1 -47.0119327372051 0 5.2128996673228087 -0.80901700255871778 0 0.5877852410284794 0.5877852410284794 0 0.80901700255871778 forward_v I I I I #
loop $-1 $-1 $453 $115 #
coedge $-1 $293 $293 $294 $454 reversed $181 $-1 #
coedge $-1 $294 $294 $293 $454 forward $183 $-1 #
coedge $-1 $295 $295 $184 $296 forward $290 $-1 #
edge $-1 $455 0 $455 6.2831853071796004 $295 $456 forward 7 unknown #
loop $-1 $-1 $302 $185 #
plane-surface $-1 -47.0119327372051 0 5.2128996673228087 -0.80901700255871778 0 0.5877852410284794 0.5877852410284794 0 0.80901700255871778 forward_v I I I I #
loop $-1 $-1 $457 $118 #
coedge $-1 $300 $300 $301 $458 reversed $186 $-1 #
coedge $-1 $301 $301 $300 $458 forward $188 $-1 #
coedge $-1 $302 $302 $189 $303 forward $297 $-1 #
edge $-1 $459 0 $459 6.2831853071796004 $302 $460 forward 7 unknown #
loop $-1 $-1 $309 $190 #
plane-surface $-1 -47.0119327372051 0 5.2128996673228087 -0.80901700255871778 0 0.5877852410284794 0.5877852410284794 0 0.80901700255871778 forward_v I I I I #
loop $-1 $-1 $461 $121 #
coedge $-1 $307 $307 $308 $462 reversed $191 $-1 #
coedge $-1 $308 $308 $307 $462 forward $193 $-1 #
coedge $-1 $309 $309 $194 $310 forward $304 $-1 #
edge $-1 $463 0 $463 6.2831853071796004 $309 $464 forward 7 unknown #
face $-1 $465 $466 $64 $-1 $467 forward single #
loop $-1 $-1 $468 $195 #
plane-surface $-1 -123.07883855229657 11.080496814097401 60.478740097628346 0 -1 0 0.80901700255871778 0 -0.5877852410284794 forward_v I I I I #
coedge $-1 $469 $470 $471 $472 reversed $196 $-1 #
coedge $-1 $316 $198 $473 $474 reversed $125 $-1 #
coedge $-1 $198 $315 $469 $475 reversed $125 $-1 #
coedge $-1 $471 $476 $198 $318 forward $466 $-1 #
edge $-1 $477 14.527486538943172 $478 16.964486942414446 $317 $479 forward 7 unknown #
loop $-1 $-1 $324 $199 #
plane-surface $-1 -47.0119327372051 8.0621691815074996 5.2128996673228087 -0.80901700255871778 0 0.5877852410284794 0.5877852410284794 0 0.80901700255871778 forward_v I I I I #
loop $-1 $-1 $480 $127 #
coedge $-1 $322 $322 $323 $481 reversed $200 $-1 #
coedge $-1 $323 $323 $322 $481 forward $202 $-1 #
coedge $-1 $324 $324 $203 $325 forward $319 $-1 #
edge $-1 $482 0 $482 6.2831853071796004 $324 $483 forward 7 unknown #
loop $-1 $-1 $331 $204 #
plane-surface $-1 -47.0119327372051 8.0621691815074996 5.2128996673228087 -0.80901700255871778 0 0.5877852410284794 0.5877852410284794 0 0.80901700255871778 forward_v I I I I #
loop $-1 $-1 $484 $130 #
coedge $-1 $329 $329 $330 $485 reversed $205 $-1 #
coedge $-1 $330 $330 $329 $485 forward $207 $-1 #
coedge $-1 $331 $331 $208 $332 forward $326 $-1 #
edge $-1 $486 0 $486 6.2831853071796004 $331 $487 forward 7 unknown #
loop $-1 $-1 $338 $209 #
plane-surface $-1 -47.0119327372051 8.0621691815074996 5.2128996673228087 -0.80901700255871778 0 0.5877852410284794 0.5877852410284794 0 0.80901700255871778 forward_v I I I I #
loop $-1 $-1 $488 $133 #
coedge $-1 $336 $336 $337 $489 reversed $210 $-1 #
coedge $-1 $337 $337 $336 $489 forward $212 $-1 #
coedge $-1 $338 $338 $213 $339 forward $333 $-1 #
edge $-1 $490 0 $490 6.2831853071796004 $338 $491 forward 7 unknown #
face $-1 $492 $493 $51 $-1 $494 reversed single #
loop $-1 $-1 $495 $214 #
plane-surface $-1 -47.011932737205115 0 0 1 0 0 0 0 -1 forward_v I I I I #
coedge $-1 $496 $351 $497 $498 forward $215 $-1 #
coedge $-1 $499 $217 $496 $500 forward $137 $-1 #
coedge $-1 $217 $499 $501 $502 forward $137 $-1 #
coedge $-1 $354 $353 $217 $347 reversed $355 $-1 #
edge $-1 $503 -21.573236042656056 $504 21.573236042656056 $346 $505 forward 7 unknown #
coedge $-1 $219 $218 $506 $507 forward $86 $-1 #
coedge $-1 $508 $509 $218 $350 reversed $493 $-1 #
edge $-1 $357 -47.011932737205115 $510 47.011932737205115 $349 $511 forward 7 unknown #
coedge $-1 $343 $512 $219 $352 reversed $215 $-1 #
edge $-1 $513 -47.011932737205115 $356 47.011932737205115 $351 $514 forward 7 unknown #
coedge $-1 $346 $220 $512 $515 forward $355 $-1 #
coedge $-1 $220 $346 $508 $516 reversed $355 $-1 #
loop $-1 $-1 $353 $492 #
vertex $-1 $221 $517 #
vertex $-1 $221 $518 #
straight-curve $-1 47.011932737205115 0 8.5671430610509862 0 1 0 I I #
face $-1 $519 $520 $52 $-1 $521 reversed single #
loop $-1 $-1 $365 $222 #
plane-surface $-1 47.011932737205115 0 0 -1 0 0 0 0 1 forward_v I I I I #
coedge $-1 $522 $523 $363 $524 forward $223 $-1 #
coedge $-1 $525 $225 $362 $524 reversed $141 $-1 #
coedge $-1 $225 $525 $226 $368 reversed $141 $-1 #
coedge $-1 $228 $526 $225 $366 forward $360 $-1 #
edge $-1 $527 -5.2005646181096807 $372 -1.5325922677729302 $365 $528 forward 7 unknown #
coedge $-1 $227 $226 $529 $530 reversed $89 $-1 #
edge $-1 $372 -47.011932737205115 $531 47.011932737205115 $364 $532 forward 7 unknown #
coedge $-1 $533 $534 $227 $370 forward $520 $-1 #
edge $-1 $373 -47.011932737205115 $535 47.011932737205115 $369 $536 forward 7 unknown #
coedge $-1 $526 $228 $534 $537 forward $360 $-1 #
vertex $-1 $229 $538 #
vertex $-1 $537 $539 #
straight-curve $-1 47.011932737205115 -9.1761901723522143 -4.8991707107142357 0 -1 0 I I #
face $-1 $540 $541 $53 $-1 $542 reversed single #
loop $-1 $-1 $543 $230 #
plane-surface $-1 0 0 -8.5671430610509862 0 0 1 1 0 0 forward_v I I I I #
coedge $-1 $544 $233 $543 $545 reversed $145 $-1 #
coedge $-1 $233 $544 $235 $385 reversed $145 $-1 #
coedge $-1 $546 $547 $233 $381 forward $541 $-1 #
edge $-1 $548 -5.2005646181096807 $549 -1.5325922677729302 $380 $550 forward 7 unknown #
coedge $-1 $235 $234 $546 $551 reversed $92 $-1 #
coedge $-1 $552 $553 $234 $384 forward $554 $-1 #
edge $-1 $555 -47.011932737205115 $388 47.011932737205115 $383 $556 forward 7 unknown #
edge $-1 $549 -47.011932737205115 $389 47.011932737205115 $379 $557 forward 7 unknown #
coedge $-1 $558 $236 $544 $559 forward $231 $-1 #
coedge $-1 $236 $558 $552 $560 reversed $231 $-1 #
vertex $-1 $560 $561 #
vertex $-1 $237 $562 #
straight-curve $-1 47.011932737205115 9.1761901723522143 -4.8991707107142357 0 -1 0 I I #
face $-1 $-1 $563 $54 $-1 $564 reversed single #
loop $-1 $-1 $244 $238 #
plane-surface $-1 0 0 8.5671430610509862 0 0 1 1 0 0 forward_v I I I I #
coedge $-1 $565 $566 $567 $568 reversed $239 $-1 #
coedge $-1 $569 $241 $243 $401 forward $149 $-1 #
coedge $-1 $241 $569 $565 $570 forward $149 $-1 #
coedge $-1 $567 $244 $241 $398 forward $392 $-1 #
edge $-1 $404 -5.5480040620714011 $571 1.9918761694600473 $397 $572 forward 7 unknown #
coedge $-1 $573 $574 $242 $400 forward $563 $-1 #
edge $-1 $575 -64.496668017324907 $403 -59.825012980926104 $399 $576 forward 7 unknown #
edge $-1 $404 87.636183326546075 $575 94.023865474410201 $243 $577 forward 7 unknown #
coedge $-1 $244 $567 $573 $578 forward $392 $-1 #
vertex $-1 $400 $579 #
vertex $-1 $245 $580 #
straight-curve $-1 25.826257171274655 7.3260680083770779 8.5671430610509844 -1 0 0 I I #
coedge $-1 $406 $406 $-1 $581 reversed $248 $-1 #
edge $-1 $582 0 $582 6.2831853071796004 $249 $583 forward 7 unknown #
vertex $-1 $252 $584 #
ellipse-curve $-1 44.833738390789264 3.5561278926113538 6.231315542851581 0.73135370988377701 0 0.68199835119979291 0.68199835119979291 0 -0.73135370988377701 1 I I #
face $-1 $-1 $422 $56 $-1 $585 forward single #
loop $-1 $-1 $586 $253 #
plane-surface $-1 -47.011932737205115 0 0 1 0 0 0 0 -1 forward_v I I I I #
coedge $-1 $587 $588 $589 $590 reversed $254 $-1 #
coedge $-1 $591 $256 $258 $420 forward $158 $-1 #
coedge $-1 $256 $591 $587 $592 forward $158 $-1 #
coedge $-1 $589 $259 $256 $417 forward $422 $-1 #
edge $-1 $424 -7.0494122233436514 $593 -1.0127569581638483 $416 $594 forward 7 unknown #
coedge $-1 $595 $596 $257 $419 forward $411 $-1 #
edge $-1 $597 -25.026470381491386 $423 -21.672226987763189 $418 $598 forward 7 unknown #
edge $-1 $424 -4.1460728057872069 $597 2.4161062406544664e-014 $258 $599 forward 7 unknown #
coedge $-1 $259 $589 $595 $600 forward $422 $-1 #
loop $-1 $-1 $589 $410 #
vertex $-1 $419 $601 #
vertex $-1 $260 $602 #
straight-curve $-1 -61.539419276148287 -11.080496814097401 8.5671430610509844 1 0 0 I I #
coedge $-1 $426 $426 $-1 $603 reversed $263 $-1 #
edge $-1 $604 0 $604 6.2831853071796004 $264 $605 forward 7 unknown #
vertex $-1 $267 $606 #
ellipse-curve $-1 -45.793432535469478 -9.8731657610614398 6.8900213641868904 -0.80901700255871778 0 0.5877852410284794 0.2938926205142397 0 0.40450850127935889 1 I I #
coedge $-1 $430 $430 $-1 $607 reversed $270 $-1 #
edge $-1 $608 0 $608 6.2831853071796004 $271 $609 forward 7 unknown #
vertex $-1 $274 $610 #
ellipse-curve $-1 -45.793432535469478 -8.0621691815074996 6.8900213641868904 -0.80901700255871778 0 0.5877852410284794 0.2938926205142397 0 0.40450850127935889 1 I I #
coedge $-1 $434 $434 $-1 $611 reversed $277 $-1 #
edge $-1 $612 0 $612 6.2831853071796004 $278 $613 forward 7 unknown #
vertex $-1 $281 $614 #
ellipse-curve $-1 -45.793432535469478 -6.2511726019535594 6.8900213641868904 -0.80901700255871778 0 0.5877852410284794 0.2938926205142397 0 0.40450850127935889 1 I I #
face $-1 $-1 $615 $60 $-1 $616 reversed single #
loop $-1 $-1 $288 $282 #
plane-surface $-1 0 0 8.5671430610509862 0 0 1 1 0 0 forward_v I I I I #
coedge $-1 $617 $618 $619 $620 reversed $283 $-1 #
coedge $-1 $621 $285 $287 $448 forward $177 $-1 #
coedge $-1 $285 $621 $617 $622 forward $177 $-1 #
coedge $-1 $619 $288 $285 $445 forward $439 $-1 #
edge $-1 $451 -3.0183276325899016 $623 3.0183276325899016 $444 $624 forward 7 unknown #
coedge $-1 $625 $626 $286 $447 forward $615 $-1 #
edge $-1 $627 -25.026470381491386 $450 -21.672226987763189 $446 $628 forward 7 unknown #
edge $-1 $451 -4.1460728057872069 $627 2.4161062406544664e-014 $287 $629 forward 7 unknown #
coedge $-1 $288 $619 $625 $630 forward $439 $-1 #
vertex $-1 $447 $631 #
vertex $-1 $289 $632 #
straight-curve $-1 -61.539419276148287 -3.0183276325899016 8.5671430610509844 1 0 0 I I #
coedge $-1 $453 $453 $-1 $633 reversed $292 $-1 #
edge $-1 $634 0 $634 6.2831853071796004 $293 $635 forward 7 unknown #
vertex $-1 $296 $636 #
ellipse-curve $-1 -45.793432535469478 -1.8109965795539402 6.8900213641868904 -0.80901700255871778 0 0.5877852410284794 0.2938926205142397 0 0.40450850127935889 1 I I #
coedge $-1 $457 $457 $-1 $637 reversed $299 $-1 #
edge $-1 $638 0 $638 6.2831853071796004 $300 $639 forward 7 unknown #
vertex $-1 $303 $640 #
ellipse-curve $-1 -45.793432535469478 0 6.8900213641868904 -0.80901700255871778 0 0.5877852410284794 0.2938926205142397 0 0.40450850127935889 1 I I #
coedge $-1 $461 $461 $-1 $641 reversed $306 $-1 #
edge $-1 $642 0 $642 6.2831853071796004 $307 $643 forward 7 unknown #
vertex $-1 $310 $644 #
ellipse-curve $-1 -45.793432535469478 1.8109965795539402 6.8900213641868904 -0.80901700255871778 0 0.5877852410284794 0.2938926205142397 0 0.40450850127935889 1 I I #
face $-1 $-1 $645 $64 $-1 $646 reversed single #
loop $-1 $-1 $317 $311 #
plane-surface $-1 0 0 8.5671430610509862 0 0 1 1 0 0 forward_v I I I I #
coedge $-1 $647 $648 $649 $650 reversed $312 $-1 #
coedge $-1 $651 $314 $316 $475 forward $196 $-1 #
coedge $-1 $314 $651 $647 $652 forward $196 $-1 #
coedge $-1 $649 $317 $314 $472 forward $466 $-1 #
edge $-1 $478 1.0127569581638483 $653 7.0494122233436514 $471 $654 forward 7 unknown #
coedge $-1 $655 $656 $315 $474 forward $645 $-1 #
edge $-1 $657 -25.026470381491386 $477 -21.672226987763189 $473 $658 forward 7 unknown #
edge $-1 $478 -4.1460728057872069 $657 2.4161062406544664e-014 $316 $659 forward 7 unknown #
coedge $-1 $317 $649 $655 $660 forward $466 $-1 #
vertex $-1 $318 $661 #
vertex $-1 $318 $662 #
straight-curve $-1 -61.539419276148287 5.0438415489175981 8.5671430610509844 1 0 0 I I #
coedge $-1 $480 $480 $-1 $663 reversed $321 $-1 #
edge $-1 $664 0 $664 6.2831853071796004 $322 $665 forward 7 unknown #
vertex $-1 $325 $666 #
ellipse-curve $-1 -45.793432535469478 6.2511726019535594 6.8900213641868904 -0.80901700255871778 0 0.5877852410284794 0.2938926205142397 0 0.40450850127935889 1 I I #
coedge $-1 $484 $484 $-1 $667 reversed $328 $-1 #
edge $-1 $668 0 $668 6.2831853071796004 $329 $669 forward 7 unknown #
vertex $-1 $332 $670 #
ellipse-curve $-1 -45.793432535469478 8.0621691815074996 6.8900213641868904 -0.80901700255871778 0 0.5877852410284794 0.2938926205142397 0 0.40450850127935889 1 I I #
coedge $-1 $488 $488 $-1 $671 reversed $335 $-1 #
edge $-1 $672 0 $672 6.2831853071796004 $336 $673 forward 7 unknown #
vertex $-1 $339 $674 #
ellipse-curve $-1 -45.793432535469478 9.8731657610614398 6.8900213641868904 -0.80901700255871778 0 0.5877852410284794 0.2938926205142397 0 0.40450850127935889 1 I I #
face $-1 $-1 $355 $51 $-1 $675 reversed single #
loop $-1 $-1 $508 $340 #
plane-surface $-1 0 21.573236042656056 0 0 -1 0 0 0 -1 forward_v I I I I #
coedge $-1 $676 $506 $509 $677 forward $341 $-1 #
coedge $-1 $512 $343 $344 $500 reversed $215 $-1 #
coedge $-1 $506 $676 $343 $498 reversed $341 $-1 #
edge $-1 $513 -8.5671430610509862 $678 8.5671430610509862 $497 $679 forward 7 unknown #
coedge $-1 $345 $344 $676 $680 forward $137 $-1 #
edge $-1 $504 -47.011932737205115 $678 47.011932737205115 $496 $681 forward 7 unknown #
coedge $-1 $509 $508 $345 $502 reversed $493 $-1 #
edge $-1 $682 -47.011932737205115 $503 47.011932737205115 $501 $683 forward 7 unknown #
vertex $-1 $347 $684 #
vertex $-1 $515 $685 #
straight-curve $-1 47.011932737205115 0 -8.5671430610509862 0 -1 0 I I #
coedge $-1 $495 $497 $348 $507 reversed $341 $-1 #
edge $-1 $510 -21.573236042656056 $513 21.573236042656056 $506 $686 forward 7 unknown #
coedge $-1 $501 $349 $354 $516 forward $493 $-1 #
coedge $-1 $349 $501 $495 $677 reversed $493 $-1 #
vertex $-1 $350 $687 #
straight-curve $-1 0 21.573236042656056 8.5671430610509862 -1 0 0 I I #
coedge $-1 $351 $496 $353 $515 reversed $215 $-1 #
vertex $-1 $507 $688 #
straight-curve $-1 0 -21.573236042656056 8.5671430610509862 1 0 0 I I #
edge $-1 $356 -8.5671430610509862 $504 8.5671430610509862 $353 $689 forward 7 unknown #
edge $-1 $357 -8.5671430610509862 $503 8.5671430610509862 $354 $690 forward 7 unknown #
point $-1 47.011932737205115 -21.573236042656056 8.5671430610509862 #
point $-1 47.011932737205115 21.573236042656056 8.5671430610509862 #
face $-1 $-1 $691 $52 $-1 $692 reversed single #
loop $-1 $-1 $369 $359 #
plane-surface $-1 0 -21.573236042656056 0 0 1 0 0 0 1 forward_v I I I I #
coedge $-1 $693 $362 $526 $694 forward $223 $-1 #
coedge $-1 $362 $693 $695 $696 forward $223 $-1 #
edge $-1 $697 -47.011932737205115 $527 47.011932737205115 $362 $698 forward 7 unknown #
coedge $-1 $364 $363 $699 $700 reversed $141 $-1 #
coedge $-1 $365 $371 $522 $694 reversed $360 $-1 #
vertex $-1 $694 $701 #
straight-curve $-1 47.011932737205115 -15.131524646752801 -3.3665784429413055 0 0 1 I I #
coedge $-1 $699 $702 $367 $530 forward $691 $-1 #
edge $-1 $535 -12.397045870303842 $531 -5.9553344744005869 $529 $703 forward 7 unknown #
vertex $-1 $530 $704 #
straight-curve $-1 0 -15.131524646752801 -4.8991707107142357 -1 0 0 I I #
coedge $-1 $705 $369 $702 $706 forward $520 $-1 #
coedge $-1 $369 $705 $371 $537 reversed $520 $-1 #
vertex $-1 $706 $707 #
straight-curve $-1 0 -21.573236042656056 -4.8991707107142357 -1 0 0 I I #
edge $-1 $373 4.8991707107142357 $708 8.5671430610509862 $371 $709 forward 7 unknown #
point $-1 47.011932737205115 -15.131524646752801 -4.8991707107142357 #
point $-1 47.011932737205115 -21.573236042656056 -4.8991707107142357 #
face $-1 $-1 $554 $53 $-1 $710 reversed single #
loop $-1 $-1 $546 $375 #
plane-surface $-1 -47.011932737205115 0 0 1 0 0 0 0 -1 forward_v I I I I #
coedge $-1 $711 $712 $378 $545 forward $376 $-1 #
coedge $-1 $379 $378 $386 $559 reversed $145 $-1 #
edge $-1 $713 -47.011932737205115 $548 47.011932737205115 $543 $714 forward 7 unknown #
coedge $-1 $715 $380 $382 $551 forward $541 $-1 #
coedge $-1 $380 $715 $711 $716 reversed $541 $-1 #
vertex $-1 $716 $717 #
vertex $-1 $551 $718 #
straight-curve $-1 -47.011932737205115 15.131524646752801 -3.3665784429413055 0 0 1 I I #
edge $-1 $549 5.9553344744005869 $555 12.397045870303842 $546 $719 forward 7 unknown #
coedge $-1 $720 $383 $387 $560 forward $554 $-1 #
coedge $-1 $383 $720 $715 $721 reversed $554 $-1 #
loop $-1 $-1 $383 $540 #
vertex $-1 $721 $722 #
straight-curve $-1 0 21.573236042656056 -4.8991707107142357 1 0 0 I I #
straight-curve $-1 0 15.131524646752801 -4.8991707107142357 1 0 0 I I #
coedge $-1 $387 $386 $712 $723 reversed $231 $-1 #
edge $-1 $389 1.5325922677729302 $713 5.2005646181096807 $386 $724 forward 7 unknown #
edge $-1 $388 4.8991707107142357 $725 8.5671430610509862 $387 $726 forward 7 unknown #
point $-1 47.011932737205115 21.573236042656056 -4.8991707107142357 #
point $-1 47.011932737205115 15.131524646752801 -4.8991707107142357 #
loop $-1 $-1 $399 $391 #
plane-surface $-1 47.011932737205115 0 0 -1 0 0 0 0 1 forward_v I I I I #
coedge $-1 $566 $394 $396 $570 reversed $239 $-1 #
coedge $-1 $394 $565 $727 $728 reversed $239 $-1 #
coedge $-1 $402 $397 $394 $568 forward $392 $-1 #
edge $-1 $571 16.829286873098766 $729 21.18567556593046 $567 $730 forward 7 unknown #
coedge $-1 $396 $395 $574 $731 reversed $149 $-1 #
edge $-1 $732 -94.023865474410201 $571 -87.636183326546075 $565 $733 forward 7 unknown #
vertex $-1 $398 $734 #
straight-curve $-1 42.655544044373428 1.7780639463056769 8.5671430610509844 0 -1 0 I I #
coedge $-1 $727 $399 $402 $578 reversed $563 $-1 #
coedge $-1 $399 $727 $569 $731 forward $563 $-1 #
vertex $-1 $400 $735 #
straight-curve $-1 47.011932737205115 7.3260680083770779 68.392156041977088 0 0 1 I I #
straight-curve $-1 -17.112188489773786 7.3260680083770779 72.660190856975262 0.68199835119979291 0 -0.73135370988377701 I I #
edge $-1 $729 -0.21381222315437043 $403 7.3260680083770779 $573 $736 forward 7 unknown #
point $-1 47.011932737205115 7.3260680083770779 8.5671430610509862 #
point $-1 42.655544044373421 7.3260680083770779 8.5671430610509844 #
edge $-1 $737 1 $737 0 $406 $-1 forward 7 unknown #
vertex $-1 $407 $738 #
ellipse-curve $-1 43.475643991384423 3.5561278926113538 4.9648720577765362 0.73135370988377701 0 0.68199835119979291 0.68199835119979291 0 -0.73135370988377701 1 I I #
point $-1 45.515736741989052 3.5561278926113538 5.4999618329677986 #
plane-surface $-1 0 0 8.5671430610509862 0 0 1 1 0 0 forward_v I I I I #
coedge $-1 $596 $595 $588 $739 forward $411 $-1 #
coedge $-1 $588 $413 $415 $592 reversed $254 $-1 #
coedge $-1 $413 $587 $586 $739 reversed $254 $-1 #
coedge $-1 $421 $416 $413 $590 forward $422 $-1 #
edge $-1 $593 -16.964486942414446 $740 -14.527486538943172 $589 $741 forward 7 unknown #
coedge $-1 $415 $414 $596 $742 reversed $158 $-1 #
edge $-1 $743 -2.4161062406544664e-014 $593 4.1460728057872069 $587 $744 forward 7 unknown #
vertex $-1 $417 $745 #
straight-curve $-1 -44.574932333733841 -4.0310845907537498 8.5671430610509862 0 1 0 I I #
coedge $-1 $586 $418 $421 $600 reversed $411 $-1 #
coedge $-1 $418 $586 $591 $742 forward $411 $-1 #
vertex $-1 $419 $746 #
straight-curve $-1 -47.011932737205115 -11.080496814097401 30.239370048814173 0 0 1 I I #
straight-curve $-1 -47.0119327372051 -11.080496814097401 5.2128996673228087 -0.5877852410284794 0 -0.80901700255871778 I I #
edge $-1 $740 5.0438415489175981 $423 11.080496814097401 $595 $747 forward 7 unknown #
point $-1 -47.011932737205115 -11.080496814097401 8.5671430610509862 #
point $-1 -44.574932333733841 -11.080496814097401 8.5671430610509862 #
edge $-1 $748 1 $748 0 $426 $-1 forward 7 unknown #
vertex $-1 $427 $749 #
ellipse-curve $-1 -44.490418151789669 -9.8731657610614398 5.9433260275592525 -0.80901700255871778 0 0.5877852410284794 0.2938926205142397 0 0.40450850127935889 1 I I #
point $-1 -45.499539914955243 -9.8731657610614398 7.2945298654662549 #
edge $-1 $750 1 $750 0 $430 $-1 forward 7 unknown #
vertex $-1 $431 $751 #
ellipse-curve $-1 -44.490418151789669 -8.0621691815074996 5.9433260275592525 -0.80901700255871778 0 0.5877852410284794 0.2938926205142397 0 0.40450850127935889 1 I I #
point $-1 -45.499539914955243 -8.0621691815074996 7.2945298654662549 #
edge $-1 $752 1 $752 0 $434 $-1 forward 7 unknown #
vertex $-1 $435 $753 #
ellipse-curve $-1 -44.490418151789669 -6.2511726019535594 5.9433260275592525 -0.80901700255871778 0 0.5877852410284794 0.2938926205142397 0 0.40450850127935889 1 I I #
point $-1 -45.499539914955243 -6.2511726019535594 7.2945298654662549 #
loop $-1 $-1 $446 $438 #
plane-surface $-1 -47.011932737205115 0 0 1 0 0 0 0 -1 forward_v I I I I #
coedge $-1 $618 $441 $443 $622 reversed $283 $-1 #
coedge $-1 $441 $617 $754 $755 reversed $283 $-1 #
coedge $-1 $449 $444 $441 $620 forward $439 $-1 #
edge $-1 $623 -16.964486942414446 $756 -14.527486538943172 $619 $757 forward 7 unknown #
coedge $-1 $443 $442 $626 $758 reversed $177 $-1 #
edge $-1 $759 -2.4161062406544664e-014 $623 4.1460728057872069 $617 $760 forward 7 unknown #
vertex $-1 $445 $761 #
straight-curve $-1 -44.574932333733841 0 8.5671430610509862 0 1 0 I I #
coedge $-1 $754 $446 $449 $630 reversed $615 $-1 #
coedge $-1 $446 $754 $621 $758 forward $615 $-1 #
vertex $-1 $447 $762 #
straight-curve $-1 -47.011932737205115 -3.0183276325899016 30.239370048814173 0 0 1 I I #
straight-curve $-1 -47.0119327372051 -3.0183276325899016 5.2128996673228087 -0.5877852410284794 0 -0.80901700255871778 I I #
edge $-1 $756 -3.0183276325899016 $450 3.0183276325899016 $625 $763 forward 7 unknown #
point $-1 -47.011932737205115 -3.0183276325899016 8.5671430610509862 #
point $-1 -44.574932333733841 -3.0183276325899016 8.5671430610509862 #
edge $-1 $764 1 $764 0 $453 $-1 forward 7 unknown #
vertex $-1 $454 $765 #
ellipse-curve $-1 -44.490418151789669 -1.8109965795539402 5.9433260275592525 -0.80901700255871778 0 0.5877852410284794 0.2938926205142397 0 0.40450850127935889 1 I I #
point $-1 -45.499539914955243 -1.8109965795539402 7.2945298654662549 #
edge $-1 $766 1 $766 0 $457 $-1 forward 7 unknown #
vertex $-1 $458 $767 #
ellipse-curve $-1 -44.490418151789669 0 5.9433260275592525 -0.80901700255871778 0 0.5877852410284794 0.2938926205142397 0 0.40450850127935889 1 I I #
point $-1 -45.499539914955243 0 7.2945298654662549 #
edge $-1 $768 1 $768 0 $461 $-1 forward 7 unknown #
vertex $-1 $462 $769 #
ellipse-curve $-1 -44.490418151789669 1.8109965795539402 5.9433260275592525 -0.80901700255871778 0 0.5877852410284794 0.2938926205142397 0 0.40450850127935889 1 I I #
point $-1 -45.499539914955243 1.8109965795539402 7.2945298654662549 #
loop $-1 $-1 $473 $465 #
plane-surface $-1 -47.011932737205115 0 0 1 0 0 0 0 -1 forward_v I I I I #
coedge $-1 $648 $468 $470 $652 reversed $312 $-1 #
coedge $-1 $468 $647 $770 $771 reversed $312 $-1 #
coedge $-1 $476 $471 $468 $650 forward $466 $-1 #
edge $-1 $653 -16.964486942414446 $772 -14.527486538943172 $649 $773 forward 7 unknown #
coedge $-1 $470 $469 $656 $774 reversed $196 $-1 #
edge $-1 $775 -2.4161062406544664e-014 $653 4.1460728057872069 $647 $776 forward 7 unknown #
vertex $-1 $472 $777 #
straight-curve $-1 -44.574932333733841 4.0310845907537498 8.5671430610509862 0 1 0 I I #
coedge $-1 $770 $473 $476 $660 reversed $645 $-1 #
coedge $-1 $473 $770 $651 $774 forward $645 $-1 #
vertex $-1 $474 $778 #
straight-curve $-1 -47.011932737205115 5.0438415489175981 30.239370048814173 0 0 1 I I #
straight-curve $-1 -47.0119327372051 5.0438415489175981 5.2128996673228087 -0.5877852410284794 0 -0.80901700255871778 I I #
edge $-1 $772 -11.080496814097401 $477 -5.0438415489175981 $655 $779 forward 7 unknown #
point $-1 -47.011932737205115 5.0438415489175981 8.5671430610509862 #
point $-1 -44.574932333733841 5.0438415489175981 8.5671430610509862 #
edge $-1 $780 1 $780 0 $480 $-1 forward 7 unknown #
vertex $-1 $481 $781 #
ellipse-curve $-1 -44.490418151789669 6.2511726019535594 5.9433260275592525 -0.80901700255871778 0 0.5877852410284794 0.2938926205142397 0 0.40450850127935889 1 I I #
point $-1 -45.499539914955243 6.2511726019535594 7.2945298654662549 #
edge $-1 $782 1 $782 0 $484 $-1 forward 7 unknown #
vertex $-1 $485 $783 #
ellipse-curve $-1 -44.490418151789669 8.0621691815074996 5.9433260275592525 -0.80901700255871778 0 0.5877852410284794 0.2938926205142397 0 0.40450850127935889 1 I I #
point $-1 -45.499539914955243 8.0621691815074996 7.2945298654662549 #
edge $-1 $784 1 $784 0 $488 $-1 forward 7 unknown #
vertex $-1 $489 $785 #
ellipse-curve $-1 -44.490418151789669 9.8731657610614398 5.9433260275592525 -0.80901700255871778 0 0.5877852410284794 0.2938926205142397 0 0.40450850127935889 1 I I #
point $-1 -45.499539914955243 9.8731657610614398 7.2945298654662549 #
plane-surface $-1 47.011932737205115 0 0 -1 0 0 0 0 1 forward_v I I I I #
coedge $-1 $497 $495 $499 $680 reversed $341 $-1 #
edge $-1 $510 -8.5671430610509862 $682 8.5671430610509862 $509 $786 forward 7 unknown #
vertex $-1 $680 $787 #
straight-curve $-1 -47.011932737205115 -21.573236042656056 0 0 0 -1 I I #
edge $-1 $678 -21.573236042656056 $682 21.573236042656056 $676 $788 forward 7 unknown #
straight-curve $-1 0 -21.573236042656056 -8.5671430610509862 -1 0 0 I I #
vertex $-1 $502 $789 #
straight-curve $-1 0 21.573236042656056 -8.5671430610509862 1 0 0 I I #
point $-1 47.011932737205115 21.573236042656056 -8.5671430610509862 #
point $-1 47.011932737205115 -21.573236042656056 -8.5671430610509862 #
straight-curve $-1 -47.011932737205115 0 8.5671430610509862 0 -1 0 I I #
point $-1 -47.011932737205115 21.573236042656056 8.5671430610509862 #
point $-1 -47.011932737205115 -21.573236042656056 8.5671430610509862 #
straight-curve $-1 47.011932737205115 -21.573236042656056 0 0 0 -1 I I #
straight-curve $-1 47.011932737205115 21.573236042656056 0 0 0 -1 I I #
loop $-1 $-1 $699 $519 #
plane-surface $-1 -47.011932737205115 0 0 1 0 0 0 0 -1 forward_v I I I I #
coedge $-1 $523 $522 $705 $790 forward $223 $-1 #
edge $-1 $527 15.131524646752801 $708 21.573236042656056 $526 $791 forward 7 unknown #
coedge $-1 $702 $699 $523 $696 reversed $691 $-1 #
edge $-1 $792 -21.573236042656056 $697 -15.131524646752801 $695 $793 forward 7 unknown #
vertex $-1 $700 $794 #
straight-curve $-1 0 -15.131524646752801 -8.5671430610509862 1 0 0 I I #
coedge $-1 $695 $529 $525 $700 forward $691 $-1 #
edge $-1 $531 1.5325922677729302 $697 5.2005646181096807 $699 $795 forward 7 unknown #
point $-1 47.011932737205115 -15.131524646752801 -8.5671430610509862 #
coedge $-1 $529 $695 $533 $706 reversed $691 $-1 #
straight-curve $-1 -47.011932737205115 -9.1761901723522143 -4.8991707107142357 0 1 0 I I #
point $-1 -47.011932737205115 -15.131524646752801 -4.8991707107142357 #
coedge $-1 $534 $533 $693 $790 reversed $520 $-1 #
edge $-1 $535 4.8991707107142357 $792 8.5671430610509862 $702 $796 forward 7 unknown #
point $-1 -47.011932737205115 -21.573236042656056 -4.8991707107142357 #
vertex $-1 $537 $797 #
straight-curve $-1 47.011932737205115 -21.573236042656056 0 0 0 -1 I I #
plane-surface $-1 0 21.573236042656056 0 0 -1 0 0 0 -1 forward_v I I I I #
coedge $-1 $798 $543 $547 $716 forward $376 $-1 #
coedge $-1 $543 $798 $558 $723 forward $376 $-1 #
vertex $-1 $545 $799 #
straight-curve $-1 0 15.131524646752801 -8.5671430610509862 -1 0 0 I I #
coedge $-1 $547 $546 $553 $721 forward $541 $-1 #
edge $-1 $548 15.131524646752801 $800 21.573236042656056 $547 $801 forward 7 unknown #
point $-1 -47.011932737205115 15.131524646752801 -8.5671430610509862 #
point $-1 -47.011932737205115 15.131524646752801 -4.8991707107142357 #
straight-curve $-1 -47.011932737205115 9.1761901723522143 -4.8991707107142357 0 1 0 I I #
coedge $-1 $553 $552 $798 $802 reversed $554 $-1 #
edge $-1 $555 4.8991707107142357 $800 8.5671430610509862 $553 $803 forward 7 unknown #
point $-1 -47.011932737205115 21.573236042656056 -4.8991707107142357 #
edge $-1 $725 -21.573236042656056 $713 -15.131524646752801 $558 $804 forward 7 unknown #
straight-curve $-1 47.011932737205115 15.131524646752801 -3.3665784429413055 0 0 -1 I I #
vertex $-1 $723 $805 #
straight-curve $-1 47.011932737205115 21.573236042656056 0 0 0 -1 I I #
coedge $-1 $574 $573 $566 $728 forward $563 $-1 #
edge $-1 $729 59.825012980926104 $732 64.496668017324907 $727 $806 forward 7 unknown #
vertex $-1 $578 $807 #
straight-curve $-1 25.826257171274655 -0.21381222315437043 8.5671430610509844 1 0 0 I I #
edge $-1 $732 -1.9918761694600473 $575 5.5480040620714011 $574 $808 forward 7 unknown #
vertex $-1 $731 $809 #
straight-curve $-1 -17.112188489773786 -0.21381222315437043 72.660190856975262 -0.68199835119979291 0 0.73135370988377701 I I #
point $-1 42.655544044373421 -0.21381222315437043 8.5671430610509844 #
point $-1 47.011932737205115 7.3260680083770779 3.895488024652181 #
straight-curve $-1 47.011932737205115 0 8.5671430610509862 0 1 0 I I #
vertex $-1 $581 $810 #
point $-1 44.157642342584218 3.5561278926113538 4.2335183478927592 #
edge $-1 $740 21.672226987763189 $743 25.026470381491386 $586 $811 forward 7 unknown #
vertex $-1 $600 $812 #
straight-curve $-1 -61.539419276148287 -5.0438415489175981 8.5671430610509844 -1 0 0 I I #
edge $-1 $743 1.0127569581638483 $597 7.0494122233436514 $596 $813 forward 7 unknown #
vertex $-1 $742 $814 #
straight-curve $-1 -47.0119327372051 -5.0438415489175981 5.2128996673228087 0.5877852410284794 0 0.80901700255871778 I I #
point $-1 -44.574932333733841 -5.0438415489175981 8.5671430610509862 #
point $-1 -47.011932737205115 -11.080496814097401 5.2128996673227892 #
straight-curve $-1 -47.011932737205115 0 8.5671430610509862 0 -1 0 I I #
vertex $-1 $603 $815 #
point $-1 -44.196525531275434 -9.8731657610614398 6.3478345288386109 #
vertex $-1 $607 $816 #
point $-1 -44.196525531275434 -8.0621691815074996 6.3478345288386109 #
vertex $-1 $611 $817 #
point $-1 -44.196525531275434 -6.2511726019535594 6.3478345288386109 #
coedge $-1 $626 $625 $618 $755 forward $615 $-1 #
edge $-1 $756 21.672226987763189 $759 25.026470381491386 $754 $818 forward 7 unknown #
vertex $-1 $630 $819 #
straight-curve $-1 -61.539419276148287 3.0183276325899016 8.5671430610509844 -1 0 0 I I #
edge $-1 $759 -3.0183276325899016 $627 3.0183276325899016 $626 $820 forward 7 unknown #
vertex $-1 $758 $821 #
straight-curve $-1 -47.0119327372051 3.0183276325899016 5.2128996673228087 0.5877852410284794 0 0.80901700255871778 I I #
point $-1 -44.574932333733841 3.0183276325899016 8.5671430610509862 #
point $-1 -47.011932737205115 -3.0183276325899016 5.2128996673227892 #
straight-curve $-1 -47.011932737205115 0 8.5671430610509862 0 -1 0 I I #
vertex $-1 $633 $822 #
point $-1 -44.196525531275434 -1.8109965795539402 6.3478345288386109 #
vertex $-1 $637 $823 #
point $-1 -44.196525531275434 0 6.3478345288386109 #
vertex $-1 $641 $824 #
point $-1 -44.196525531275434 1.8109965795539402 6.3478345288386109 #
coedge $-1 $656 $655 $648 $771 forward $645 $-1 #
edge $-1 $772 21.672226987763189 $775 25.026470381491386 $770 $825 forward 7 unknown #
vertex $-1 $660 $826 #
straight-curve $-1 -61.539419276148287 11.080496814097401 8.5671430610509844 -1 0 0 I I #
edge $-1 $775 -7.0494122233436514 $657 -1.0127569581638483 $656 $827 forward 7 unknown #
vertex $-1 $774 $828 #
straight-curve $-1 -47.0119327372051 11.080496814097401 5.2128996673228087 0.5877852410284794 0 0.80901700255871778 I I #
point $-1 -44.574932333733841 11.080496814097401 8.5671430610509862 #
point $-1 -47.011932737205115 5.0438415489175981 5.2128996673227892 #
straight-curve $-1 -47.011932737205115 0 8.5671430610509862 0 -1 0 I I #
vertex $-1 $663 $829 #
point $-1 -44.196525531275434 6.2511726019535594 6.3478345288386109 #
vertex $-1 $667 $830 #
point $-1 -44.196525531275434 8.0621691815074996 6.3478345288386109 #
vertex $-1 $671 $831 #
point $-1 -44.196525531275434 9.8731657610614398 6.3478345288386109 #
straight-curve $-1 -47.011932737205115 21.573236042656056 0 0 0 -1 I I #
point $-1 -47.011932737205115 -21.573236042656056 -8.5671430610509862 #
straight-curve $-1 -47.011932737205115 0 -8.5671430610509862 0 1 0 I I #
point $-1 -47.011932737205115 21.573236042656056 -8.5671430610509862 #
edge $-1 $708 -47.011932737205115 $792 47.011932737205115 $705 $832 forward 7 unknown #
straight-curve $-1 47.011932737205115 0 -8.5671430610509862 0 -1 0 I I #
vertex $-1 $696 $833 #
straight-curve $-1 -47.011932737205115 0 -8.5671430610509862 0 1 0 I I #
point $-1 -47.011932737205115 -15.131524646752801 -8.5671430610509862 #
straight-curve $-1 -47.011932737205115 -15.131524646752801 -3.3665784429413055 0 0 -1 I I #
straight-curve $-1 -47.011932737205115 -21.573236042656056 0 0 0 -1 I I #
point $-1 47.011932737205115 -21.573236042656056 -8.5671430610509862 #
coedge $-1 $712 $711 $720 $802 forward $376 $-1 #
point $-1 47.011932737205115 15.131524646752801 -8.5671430610509862 #
vertex $-1 $802 $834 #
straight-curve $-1 -47.011932737205115 0 -8.5671430610509862 0 1 0 I I #
edge $-1 $800 -47.011932737205115 $725 47.011932737205115 $720 $835 forward 7 unknown #
straight-curve $-1 -47.011932737205115 21.573236042656056 0 0 0 -1 I I #
straight-curve $-1 47.011932737205115 0 -8.5671430610509862 0 -1 0 I I #
point $-1 47.011932737205115 21.573236042656056 -8.5671430610509862 #
straight-curve $-1 47.011932737205115 -0.21381222315437043 68.392156041977088 0 0 -1 I I #
point $-1 47.011932737205115 -0.21381222315437043 8.5671430610509862 #
straight-curve $-1 47.011932737205115 1.7780639463056769 3.895488024652181 0 1 0 I I #
point $-1 47.011932737205115 -0.21381222315437043 3.895488024652181 #
point $-1 42.744290281500646 3.5561278926113538 4.2828737065767433 #
straight-curve $-1 -47.011932737205115 -5.0438415489175981 30.239370048814173 0 0 -1 I I #
point $-1 -47.011932737205115 -5.0438415489175981 8.5671430610509862 #
straight-curve $-1 -47.011932737205115 -4.0310845907537498 5.2128996673227856 0 -1 0 I I #
point $-1 -47.011932737205115 -5.0438415489175981 5.2128996673227892 #
point $-1 -44.085909650510317 -9.8731657610614398 5.6494334070450121 #
point $-1 -44.085909650510317 -8.0621691815074996 5.6494334070450121 #
point $-1 -44.085909650510317 -6.2511726019535594 5.6494334070450121 #
straight-curve $-1 -47.011932737205115 3.0183276325899016 30.239370048814173 0 0 -1 I I #
point $-1 -47.011932737205115 3.0183276325899016 8.5671430610509862 #
straight-curve $-1 -47.011932737205115 0 5.2128996673227856 0 -1 0 I I #
point $-1 -47.011932737205115 3.0183276325899016 5.2128996673227892 #
point $-1 -44.085909650510317 -1.8109965795539402 5.6494334070450121 #
point $-1 -44.085909650510317 0 5.6494334070450121 #
point $-1 -44.085909650510317 1.8109965795539402 5.6494334070450121 #
straight-curve $-1 -47.011932737205115 11.080496814097401 30.239370048814173 0 0 -1 I I #
point $-1 -47.011932737205115 11.080496814097401 8.5671430610509862 #
straight-curve $-1 -47.011932737205115 4.0310845907537498 5.2128996673227856 0 -1 0 I I #
point $-1 -47.011932737205115 11.080496814097401 5.2128996673227892 #
point $-1 -44.085909650510317 6.2511726019535594 5.6494334070450121 #
point $-1 -44.085909650510317 8.0621691815074996 5.6494334070450121 #
point $-1 -44.085909650510317 9.8731657610614398 5.6494334070450121 #
straight-curve $-1 0 -21.573236042656056 -8.5671430610509862 -1 0 0 I I #
point $-1 -47.011932737205115 -21.573236042656056 -8.5671430610509862 #
point $-1 -47.011932737205115 21.573236042656056 -8.5671430610509862 #
straight-curve $-1 0 21.573236042656056 -8.5671430610509862 1 0 0 I I #
End-of-ACIS-data 