500 0 9 0           
7 Unknown 11 ACIS 5.0 NT 24 Thu Mar 25 20:14:46 1999 
-1 9.9999999999999995e-007 1e-010 
body $-1 $9 $-1 $10 #
body $-1 $11 $-1 $12 #
body $-1 $13 $-1 $14 #
body $-1 $15 $-1 $16 #
body $-1 $17 $-1 $18 #
body $-1 $19 $-1 $20 #
body $-1 $21 $-1 $22 #
body $-1 $23 $-1 $24 #
body $-1 $25 $-1 $26 #
lump $-1 $-1 $27 $0 #
transform $-1 1 0 0 0 1 0 0 0 1 43.372905667287213 25.523923179419306 9.5081229134478562 1 rotate no_reflect no_shear #
lump $-1 $-1 $28 $1 #
transform $-1 1 0 0 0 1 0 0 0 1 43.372905667287213 25.523923179419306 9.5081229134478562 1 rotate no_reflect no_shear #
lump $-1 $-1 $29 $2 #
transform $-1 1 0 0 0 1 0 0 0 1 43.372905667287213 25.523923179419306 9.5081229134478562 1 rotate no_reflect no_shear #
lump $-1 $-1 $30 $3 #
transform $-1 1 0 0 0 1 0 0 0 1 43.372905667287213 25.523923179419306 9.5081229134478562 1 rotate no_reflect no_shear #
lump $-1 $-1 $31 $4 #
transform $-1 1 0 0 0 1 0 0 0 1 43.372905667287213 25.523923179419306 9.5081229134478562 1 rotate no_reflect no_shear #
lump $-1 $-1 $32 $5 #
transform $-1 1 0 0 0 1 0 0 0 1 43.372905667287213 25.523923179419306 9.5081229134478562 1 rotate no_reflect no_shear #
lump $-1 $-1 $33 $6 #
transform $-1 1 0 0 0 1 0 0 0 1 43.372905667287213 25.523923179419306 9.5081229134478562 1 rotate no_reflect no_shear #
lump $-1 $-1 $34 $7 #
transform $-1 1 0 0 0 1 0 0 0 1 43.372905667287213 25.523923179419306 9.5081229134478562 1 rotate no_reflect no_shear #
lump $-1 $-1 $35 $8 #
transform $-1 1 0 0 0 1 0 0 0 1 43.372905667287213 25.523923179419306 9.5081229134478562 1 rotate no_reflect no_shear #
shell $-1 $-1 $-1 $36 $-1 $9 #
shell $-1 $-1 $-1 $37 $-1 $11 #
shell $-1 $-1 $-1 $38 $-1 $13 #
shell $-1 $-1 $-1 $39 $-1 $15 #
shell $-1 $-1 $-1 $40 $-1 $17 #
shell $-1 $-1 $-1 $41 $-1 $19 #
shell $-1 $-1 $-1 $42 $-1 $21 #
shell $-1 $-1 $-1 $43 $-1 $23 #
shell $-1 $-1 $-1 $44 $-1 $25 #
face $-1 $45 $46 $27 $-1 $47 forward single #
face $-1 $48 $49 $28 $-1 $50 reversed single #
face $-1 $51 $52 $29 $-1 $53 reversed single #
face $-1 $54 $55 $30 $-1 $56 reversed single #
face $-1 $57 $58 $31 $-1 $59 forward single #
face $-1 $60 $61 $32 $-1 $62 forward single #
face $-1 $63 $64 $33 $-1 $65 reversed single #
face $-1 $66 $67 $34 $-1 $68 forward single #
face $-1 $69 $70 $35 $-1 $71 forward single #
face $-1 $72 $73 $27 $-1 $74 reversed single #
loop $-1 $-1 $75 $36 #
plane-surface $-1 0 0 9.5081229134478562 0 0 1 1 0 0 forward_v I I I I #
face $-1 $76 $77 $28 $-1 $78 reversed single #
loop $-1 $-1 $79 $37 #
plane-surface $-1 0 -21.145897871367428 6.5081229134478562 0 0 1 1 0 0 forward_v I I I I #
face $-1 $80 $81 $29 $-1 $82 reversed single #
loop $-1 $-1 $83 $38 #
plane-surface $-1 0 21.145897871367431 6.5081229134478562 0 0 1 1 0 0 forward_v I I I I #
face $-1 $84 $85 $30 $-1 $86 reversed single #
loop $-1 $-1 $87 $39 #
plane-surface $-1 -96.778960521590989 10.553230601347792 74.723934240714556 0 1 0 -0.61566148304635926 0 0.78801074757464917 forward_v I I I I #
face $-1 $88 $89 $31 $-1 $90 forward single #
loop $-1 $91 $92 $40 #
cone-surface $-1 -40.92485215681576 12.328842590481436 7.3770724625170043 0.61566148304635926 0 -0.78801074757464917 0.39400537378732459 0 0.30783074152317963 1 I I 0 1 0.5 forward I I I I #
face $-1 $93 $94 $32 $-1 $95 forward single #
loop $-1 $96 $97 $41 #
cone-surface $-1 -40.92485215681576 14.992260574181905 7.3770724625170043 0.61566148304635926 0 -0.78801074757464917 0.39400537378732459 0 0.30783074152317963 1 I I 0 1 0.5 forward I I I I #
face $-1 $98 $99 $33 $-1 $100 reversed single #
loop $-1 $-1 $101 $42 #
plane-surface $-1 -24.983725971440265 13.660551582331671 59.773357456290853 0.61566148304635926 0 0.78801074757464917 0.78801074757464917 0 -0.61566148304635926 forward_v I I I I #
face $-1 $102 $103 $34 $-1 $104 forward single #
loop $-1 $105 $106 $43 #
cone-surface $-1 40.924852156815774 12.328842590481436 7.3770724625169972 -0.61566148304635926 0 -0.78801074757464917 0.39400537378732459 0 -0.30783074152317963 1 I I 0 1 0.5 forward I I I I #
face $-1 $107 $108 $35 $-1 $109 forward single #
loop $-1 $110 $111 $44 #
cone-surface $-1 40.924852156815774 14.992260574181905 7.3770724625169972 -0.61566148304635926 0 -0.78801074757464917 0.39400537378732459 0 -0.30783074152317963 1 I I 0 1 0.5 forward I I I I #
face $-1 $112 $113 $27 $-1 $114 reversed single #
loop $-1 $-1 $115 $45 #
plane-surface $-1 0 0 -9.5081229134478562 0 0 1 1 0 0 forward_v I I I I #
coedge $-1 $116 $117 $118 $119 forward $46 $-1 #
face $-1 $120 $121 $28 $-1 $122 reversed single #
loop $-1 $-1 $123 $48 #
plane-surface $-1 0 -16.767872563315549 8.0081229134478562 0 -1 0 0 0 -1 forward_v I I I I #
coedge $-1 $124 $125 $126 $127 reversed $49 $-1 #
face $-1 $128 $129 $29 $-1 $130 forward single #
loop $-1 $-1 $131 $51 #
plane-surface $-1 0 16.767872563315553 8.0081229134478562 0 1 0 0 0 1 forward_v I I I I #
coedge $-1 $132 $133 $134 $135 reversed $52 $-1 #
face $-1 $136 $137 $30 $-1 $138 forward single #
loop $-1 $-1 $139 $54 #
plane-surface $-1 -43.372905667287213 13.660551582331671 6.3673026019870917 -0.61566148304635926 0 0.78801074757464917 0.78801074757464917 0 0.61566148304635926 forward_v I I I I #
coedge $-1 $140 $141 $142 $143 reversed $55 $-1 #
face $-1 $-1 $144 $31 $-1 $145 forward single #
loop $-1 $146 $147 $57 #
cone-surface $-1 -40.332916572927601 12.328842590481436 6.6194294804228662 0.61566148304635926 0 -0.78801074757464917 0.19700268689366229 0 0.15391537076158981 1 I I -0.70710678118654746 0.70710678118654746 0.25 forward I I I I #
loop $-1 $-1 $148 $40 #
coedge $-1 $92 $92 $149 $150 reversed $58 $-1 #
face $-1 $-1 $151 $32 $-1 $152 forward single #
loop $-1 $153 $154 $60 #
cone-surface $-1 -40.332916572927601 14.992260574181905 6.6194294804228662 0.61566148304635926 0 -0.78801074757464917 0.19700268689366229 0 0.15391537076158981 1 I I -0.70710678118654746 0.70710678118654746 0.25 forward I I I I #
loop $-1 $-1 $155 $41 #
coedge $-1 $97 $97 $156 $157 reversed $61 $-1 #
face $-1 $158 $159 $33 $-1 $160 forward single #
loop $-1 $-1 $161 $63 #
plane-surface $-1 28.422328882863511 10.553230601347792 128.12998909501832 0 1 0 0.61566148304635926 0 0.78801074757464917 forward_v I I I I #
coedge $-1 $162 $163 $164 $165 reversed $64 $-1 #
face $-1 $-1 $166 $34 $-1 $167 forward single #
loop $-1 $168 $169 $66 #
cone-surface $-1 40.332916572927616 12.328842590481436 6.6194294804228591 -0.61566148304635926 0 -0.78801074757464917 0.19700268689366229 0 -0.15391537076158981 1 I I -0.70710678118654746 0.70710678118654746 0.25 forward I I I I #
loop $-1 $-1 $170 $43 #
coedge $-1 $106 $106 $171 $172 reversed $67 $-1 #
face $-1 $-1 $173 $35 $-1 $174 forward single #
loop $-1 $175 $176 $69 #
cone-surface $-1 40.332916572927616 14.992260574181905 6.6194294804228591 -0.61566148304635926 0 -0.78801074757464917 0.19700268689366229 0 -0.15391537076158981 1 I I -0.70710678118654746 0.70710678118654746 0.25 forward I I I I #
loop $-1 $-1 $177 $44 #
coedge $-1 $111 $111 $178 $179 reversed $70 $-1 #
face $-1 $180 $181 $27 $-1 $182 reversed single #
loop $-1 $-1 $183 $72 #
plane-surface $-1 0 -25.523923179419306 0 0 1 0 0 0 1 forward_v I I I I #
coedge $-1 $184 $185 $186 $187 forward $73 $-1 #
coedge $-1 $188 $75 $189 $190 forward $46 $-1 #
coedge $-1 $75 $188 $191 $192 forward $46 $-1 #
coedge $-1 $193 $194 $75 $119 reversed $195 $-1 #
edge $-1 $196 -25.523923179419306 $197 25.523923179419306 $118 $198 forward 7 unknown #
face $-1 $199 $200 $28 $-1 $201 reversed single #
loop $-1 $-1 $202 $76 #
plane-surface $-1 -43.372905667287213 0 0 1 0 0 0 0 -1 forward_v I I I I #
coedge $-1 $203 $204 $205 $206 reversed $77 $-1 #
coedge $-1 $207 $79 $208 $209 reversed $49 $-1 #
coedge $-1 $79 $207 $203 $210 forward $49 $-1 #
coedge $-1 $205 $211 $79 $127 forward $212 $-1 #
edge $-1 $213 -14.950974243735592 $214 -6.1949236276318356 $126 $215 forward 7 unknown #
face $-1 $216 $217 $29 $-1 $218 reversed single #
loop $-1 $-1 $219 $80 #
plane-surface $-1 0 0 9.5081229134478562 0 0 1 1 0 0 forward_v I I I I #
coedge $-1 $220 $221 $219 $222 reversed $81 $-1 #
coedge $-1 $223 $83 $224 $225 forward $52 $-1 #
coedge $-1 $83 $223 $226 $227 reversed $52 $-1 #
coedge $-1 $228 $229 $83 $135 forward $217 $-1 #
edge $-1 $230 6.1949236276318373 $231 14.950974243735594 $134 $232 forward 7 unknown #
face $-1 $233 $234 $30 $-1 $235 forward single #
loop $-1 $-1 $142 $84 #
plane-surface $-1 0 0 9.5081229134478562 0 0 1 1 0 0 forward_v I I I I #
coedge $-1 $236 $237 $238 $239 reversed $85 $-1 #
coedge $-1 $141 $87 $240 $241 reversed $55 $-1 #
coedge $-1 $87 $140 $236 $242 reversed $55 $-1 #
coedge $-1 $238 $243 $87 $143 forward $137 $-1 #
edge $-1 $244 5.0165745935082811 $245 9.0366411881980611 $142 $246 forward 7 unknown #
loop $-1 $-1 $149 $88 #
plane-surface $-1 -43.372905667287213 13.660551582331671 6.3673026019870917 -0.61566148304635926 0 0.78801074757464917 0.78801074757464917 0 0.61566148304635926 forward_v I I I I #
loop $-1 $-1 $247 $57 #
coedge $-1 $147 $147 $148 $248 reversed $89 $-1 #
coedge $-1 $148 $148 $147 $248 forward $91 $-1 #
coedge $-1 $149 $149 $92 $150 forward $144 $-1 #
edge $-1 $249 0 $249 6.2831853071796004 $149 $250 forward 7 unknown #
loop $-1 $-1 $156 $93 #
plane-surface $-1 -43.372905667287213 13.660551582331671 6.3673026019870917 -0.61566148304635926 0 0.78801074757464917 0.78801074757464917 0 0.61566148304635926 forward_v I I I I #
loop $-1 $-1 $251 $60 #
coedge $-1 $154 $154 $155 $252 reversed $94 $-1 #
coedge $-1 $155 $155 $154 $252 forward $96 $-1 #
coedge $-1 $156 $156 $97 $157 forward $151 $-1 #
edge $-1 $253 0 $253 6.2831853071796004 $156 $254 forward 7 unknown #
face $-1 $255 $256 $33 $-1 $257 reversed single #
loop $-1 $-1 $164 $98 #
plane-surface $-1 0 0 9.5081229134478562 0 0 1 1 0 0 forward_v I I I I #
coedge $-1 $258 $259 $260 $261 reversed $99 $-1 #
coedge $-1 $262 $101 $263 $264 reversed $64 $-1 #
coedge $-1 $101 $262 $258 $265 forward $64 $-1 #
coedge $-1 $260 $266 $101 $165 forward $159 $-1 #
edge $-1 $267 -9.937596772149714 $268 -3.7229548101819567 $164 $269 forward 7 unknown #
loop $-1 $-1 $171 $102 #
plane-surface $-1 -24.983725971440265 13.660551582331671 59.773357456290853 0.61566148304635926 0 0.78801074757464917 0.78801074757464917 0 -0.61566148304635926 forward_v I I I I #
loop $-1 $-1 $270 $66 #
coedge $-1 $169 $169 $170 $271 reversed $103 $-1 #
coedge $-1 $170 $170 $169 $271 forward $105 $-1 #
coedge $-1 $171 $171 $106 $172 forward $166 $-1 #
edge $-1 $272 0 $272 6.2831853071796004 $171 $273 forward 7 unknown #
loop $-1 $-1 $178 $107 #
plane-surface $-1 -24.983725971440265 13.660551582331671 59.773357456290853 0.61566148304635926 0 0.78801074757464917 0.78801074757464917 0 -0.61566148304635926 forward_v I I I I #
loop $-1 $-1 $274 $69 #
coedge $-1 $176 $176 $177 $275 reversed $108 $-1 #
coedge $-1 $177 $177 $176 $275 forward $110 $-1 #
coedge $-1 $178 $178 $111 $179 forward $173 $-1 #
edge $-1 $276 0 $276 6.2831853071796004 $178 $277 forward 7 unknown #
face $-1 $278 $279 $27 $-1 $280 reversed single #
loop $-1 $-1 $281 $112 #
plane-surface $-1 -43.372905667287213 0 0 1 0 0 0 0 -1 forward_v I I I I #
coedge $-1 $282 $191 $283 $284 forward $113 $-1 #
coedge $-1 $285 $115 $282 $286 forward $73 $-1 #
coedge $-1 $115 $285 $287 $288 forward $73 $-1 #
coedge $-1 $194 $193 $115 $187 reversed $195 $-1 #
edge $-1 $289 -25.523923179419306 $290 25.523923179419306 $186 $291 forward 7 unknown #
coedge $-1 $117 $116 $292 $293 forward $46 $-1 #
coedge $-1 $294 $295 $116 $190 reversed $279 $-1 #
edge $-1 $197 -43.372905667287213 $296 43.372905667287213 $189 $297 forward 7 unknown #
coedge $-1 $183 $298 $117 $192 reversed $113 $-1 #
edge $-1 $299 -43.372905667287213 $196 43.372905667287213 $191 $300 forward 7 unknown #
coedge $-1 $186 $118 $298 $301 forward $195 $-1 #
coedge $-1 $118 $186 $294 $302 reversed $195 $-1 #
loop $-1 $-1 $193 $278 #
vertex $-1 $119 $303 #
vertex $-1 $119 $304 #
straight-curve $-1 43.372905667287213 0 9.5081229134478562 0 1 0 I I #
face $-1 $305 $306 $28 $-1 $307 forward single #
loop $-1 $-1 $208 $120 #
plane-surface $-1 0 -25.523923179419306 0 0 1 0 0 0 1 forward_v I I I I #
coedge $-1 $308 $309 $310 $311 forward $121 $-1 #
coedge $-1 $310 $123 $125 $210 reversed $77 $-1 #
coedge $-1 $123 $310 $312 $313 reversed $77 $-1 #
coedge $-1 $314 $126 $123 $206 forward $212 $-1 #
edge $-1 $214 2.5040614567239281 $315 5.5040614567239281 $205 $316 forward 7 unknown #
coedge $-1 $125 $124 $308 $317 reversed $49 $-1 #
coedge $-1 $318 $319 $124 $209 forward $200 $-1 #
edge $-1 $320 -43.372905667287213 $213 43.372905667287213 $208 $321 forward 7 unknown #
edge $-1 $322 -43.372905667287213 $214 43.372905667287213 $203 $323 forward 7 unknown #
coedge $-1 $126 $314 $318 $324 forward $212 $-1 #
loop $-1 $-1 $205 $305 #
vertex $-1 $209 $325 #
vertex $-1 $127 $326 #
straight-curve $-1 43.372905667287213 -10.572948935683714 6.5081229134478562 0 1 0 I I #
face $-1 $327 $328 $29 $-1 $329 reversed single #
loop $-1 $-1 $229 $128 #
plane-surface $-1 43.372905667287213 0 0 -1 0 0 0 0 1 forward_v I I I I #
coedge $-1 $330 $331 $131 $222 forward $129 $-1 #
coedge $-1 $224 $131 $332 $333 reversed $81 $-1 #
coedge $-1 $131 $224 $229 $334 reversed $81 $-1 #
edge $-1 $335 -43.372905667287213 $336 43.372905667287213 $219 $337 forward 7 unknown #
coedge $-1 $133 $132 $338 $339 reversed $52 $-1 #
coedge $-1 $221 $220 $132 $225 reversed $81 $-1 #
edge $-1 $230 -43.372905667287213 $340 43.372905667287213 $224 $341 forward 7 unknown #
coedge $-1 $342 $343 $133 $227 forward $344 $-1 #
edge $-1 $231 -43.372905667287213 $345 43.372905667287213 $226 $346 forward 7 unknown #
coedge $-1 $347 $134 $343 $348 reversed $217 $-1 #
coedge $-1 $134 $347 $221 $334 forward $217 $-1 #
vertex $-1 $135 $349 #
vertex $-1 $227 $350 #
straight-curve $-1 43.372905667287213 10.572948935683716 6.5081229134478562 0 1 0 I I #
face $-1 $-1 $351 $30 $-1 $352 reversed single #
loop $-1 $-1 $353 $136 #
plane-surface $-1 0 16.767872563315553 8.0081229134478562 0 1 0 0 0 1 forward_v I I I I #
coedge $-1 $354 $139 $141 $242 forward $85 $-1 #
coedge $-1 $139 $354 $353 $355 forward $85 $-1 #
coedge $-1 $356 $142 $139 $239 forward $137 $-1 #
edge $-1 $245 3.7229548101819567 $357 9.9375967721497176 $238 $358 forward 7 unknown #
coedge $-1 $359 $360 $140 $241 forward $351 $-1 #
edge $-1 $361 -30.994664518370186 $244 -27.853844206909422 $240 $362 forward 7 unknown #
edge $-1 $245 -5.1015377735174301 $361 0 $141 $363 forward 7 unknown #
coedge $-1 $142 $356 $359 $364 forward $137 $-1 #
vertex $-1 $241 $365 #
vertex $-1 $143 $366 #
straight-curve $-1 -48.389480260795494 10.553230601347792 9.5081229134478562 1 0 0 I I #
coedge $-1 $247 $247 $-1 $367 reversed $146 $-1 #
edge $-1 $368 0 $368 6.2831853071796004 $147 $369 forward 7 unknown #
vertex $-1 $150 $370 #
ellipse-curve $-1 -41.362872369942323 12.328842590481436 7.9377127577174731 -0.61566148304635926 0 0.78801074757464917 0.39400537378732459 0 0.30783074152317963 1 I I #
coedge $-1 $251 $251 $-1 $371 reversed $153 $-1 #
edge $-1 $372 0 $372 6.2831853071796004 $154 $373 forward 7 unknown #
vertex $-1 $157 $374 #
ellipse-curve $-1 -41.362872369942323 14.992260574181905 7.9377127577174731 -0.61566148304635926 0 0.78801074757464917 0.39400537378732459 0 0.30783074152317963 1 I I #
face $-1 $-1 $375 $33 $-1 $376 forward single #
loop $-1 $-1 $377 $158 #
plane-surface $-1 43.372905667287213 0 0 -1 0 0 0 0 1 forward_v I I I I #
coedge $-1 $259 $161 $163 $265 reversed $99 $-1 #
coedge $-1 $161 $258 $377 $378 reversed $99 $-1 #
coedge $-1 $379 $164 $161 $261 forward $159 $-1 #
edge $-1 $268 25.14167463116565 $380 29.161741225855458 $260 $381 forward 7 unknown #
coedge $-1 $163 $162 $382 $383 reversed $64 $-1 #
coedge $-1 $384 $385 $162 $264 forward $375 $-1 #
edge $-1 $386 -60.967158510152359 $267 -55.865620736634888 $263 $387 forward 7 unknown #
edge $-1 $388 -86.745811334574427 $268 -81.644273561056963 $258 $389 forward 7 unknown #
coedge $-1 $164 $379 $384 $390 forward $159 $-1 #
vertex $-1 $264 $391 #
vertex $-1 $165 $392 #
straight-curve $-1 39.352839072597405 6.8302757911658354 9.5081229134478562 0 -1 0 I I #
coedge $-1 $270 $270 $-1 $393 reversed $168 $-1 #
edge $-1 $394 0 $394 6.2831853071796004 $169 $395 forward 7 unknown #
vertex $-1 $172 $396 #
ellipse-curve $-1 41.362872369942323 12.328842590481436 7.9377127577174464 0.61566148304635926 0 0.78801074757464917 0.39400537378732459 0 -0.30783074152317963 1 I I #
coedge $-1 $274 $274 $-1 $397 reversed $175 $-1 #
edge $-1 $398 0 $398 6.2831853071796004 $176 $399 forward 7 unknown #
vertex $-1 $179 $400 #
ellipse-curve $-1 41.362872369942323 14.992260574181905 7.9377127577174464 0.61566148304635926 0 0.78801074757464917 0.39400537378732459 0 -0.30783074152317963 1 I I #
face $-1 $-1 $195 $27 $-1 $401 reversed single #
loop $-1 $-1 $294 $180 #
plane-surface $-1 0 25.523923179419306 0 0 -1 0 0 0 -1 forward_v I I I I #
coedge $-1 $402 $292 $295 $403 forward $181 $-1 #
coedge $-1 $298 $183 $184 $286 reversed $113 $-1 #
coedge $-1 $292 $402 $183 $284 reversed $181 $-1 #
edge $-1 $299 -9.5081229134478562 $404 9.5081229134478562 $283 $405 forward 7 unknown #
coedge $-1 $185 $184 $402 $406 forward $73 $-1 #
edge $-1 $290 -43.372905667287213 $404 43.372905667287213 $282 $407 forward 7 unknown #
coedge $-1 $295 $294 $185 $288 reversed $279 $-1 #
edge $-1 $408 -43.372905667287213 $289 43.372905667287213 $287 $409 forward 7 unknown #
vertex $-1 $187 $410 #
vertex $-1 $301 $411 #
straight-curve $-1 43.372905667287213 0 -9.5081229134478562 0 -1 0 I I #
coedge $-1 $281 $283 $188 $293 reversed $181 $-1 #
edge $-1 $296 -25.523923179419306 $299 25.523923179419306 $292 $412 forward 7 unknown #
coedge $-1 $287 $189 $194 $302 forward $279 $-1 #
coedge $-1 $189 $287 $281 $403 reversed $279 $-1 #
vertex $-1 $190 $413 #
straight-curve $-1 0 25.523923179419306 9.5081229134478562 -1 0 0 I I #
coedge $-1 $191 $282 $193 $301 reversed $113 $-1 #
vertex $-1 $293 $414 #
straight-curve $-1 0 -25.523923179419306 9.5081229134478562 1 0 0 I I #
edge $-1 $196 -9.5081229134478562 $290 9.5081229134478562 $193 $415 forward 7 unknown #
edge $-1 $197 -9.5081229134478562 $289 9.5081229134478562 $194 $416 forward 7 unknown #
point $-1 43.372905667287213 -25.523923179419306 9.5081229134478562 #
point $-1 43.372905667287213 25.523923179419306 9.5081229134478562 #
face $-1 $-1 $212 $28 $-1 $417 reversed single #
loop $-1 $-1 $312 $199 #
plane-surface $-1 0 0 9.5081229134478562 0 0 1 1 0 0 forward_v I I I I #
coedge $-1 $418 $202 $207 $317 forward $121 $-1 #
coedge $-1 $202 $418 $419 $420 reversed $121 $-1 #
coedge $-1 $204 $203 $202 $311 reversed $77 $-1 #
edge $-1 $421 -5.5040614567239281 $322 -2.5040614567239281 $202 $422 forward 7 unknown #
coedge $-1 $419 $423 $204 $313 forward $306 $-1 #
edge $-1 $315 -43.372905667287213 $421 43.372905667287213 $312 $424 forward 7 unknown #
coedge $-1 $211 $205 $423 $425 reversed $212 $-1 #
vertex $-1 $206 $426 #
straight-curve $-1 43.372905667287213 -16.767872563315549 4.0040614567239281 0 0 1 I I #
edge $-1 $322 6.1949236276318356 $320 14.950974243735592 $308 $427 forward 7 unknown #
coedge $-1 $428 $208 $211 $324 reversed $200 $-1 #
coedge $-1 $208 $428 $418 $429 forward $200 $-1 #
vertex $-1 $209 $430 #
straight-curve $-1 0 -25.523923179419306 6.5081229134478562 1 0 0 I I #
vertex $-1 $317 $431 #
straight-curve $-1 0 -16.767872563315549 6.5081229134478562 1 0 0 I I #
edge $-1 $432 -9.5081229134478562 $213 -6.5081229134478562 $211 $433 forward 7 unknown #
point $-1 43.372905667287213 -25.523923179419306 6.5081229134478562 #
point $-1 43.372905667287213 -16.767872563315549 6.5081229134478562 #
face $-1 $-1 $344 $29 $-1 $434 reversed single #
loop $-1 $-1 $332 $216 #
plane-surface $-1 -43.372905667287213 0 0 1 0 0 0 0 -1 forward_v I I I I #
coedge $-1 $435 $219 $347 $436 forward $129 $-1 #
coedge $-1 $219 $435 $437 $438 forward $129 $-1 #
coedge $-1 $437 $338 $220 $333 forward $328 $-1 #
edge $-1 $340 2.5040614567239281 $335 5.5040614567239281 $332 $439 forward 7 unknown #
edge $-1 $336 -5.5040614567239281 $230 -2.5040614567239281 $229 $440 forward 7 unknown #
vertex $-1 $333 $441 #
vertex $-1 $436 $442 #
straight-curve $-1 0 16.767872563315553 9.5081229134478562 1 0 0 I I #
coedge $-1 $332 $443 $223 $339 forward $328 $-1 #
edge $-1 $345 -14.950974243735594 $340 -6.1949236276318373 $338 $444 forward 7 unknown #
vertex $-1 $339 $445 #
straight-curve $-1 0 16.767872563315553 6.5081229134478562 -1 0 0 I I #
coedge $-1 $446 $226 $443 $447 reversed $344 $-1 #
coedge $-1 $226 $446 $228 $348 forward $344 $-1 #
loop $-1 $-1 $226 $327 #
vertex $-1 $227 $448 #
straight-curve $-1 0 25.523923179419306 6.5081229134478562 -1 0 0 I I #
coedge $-1 $229 $228 $330 $436 reversed $217 $-1 #
edge $-1 $449 -9.5081229134478562 $231 -6.5081229134478562 $228 $450 forward 7 unknown #
point $-1 43.372905667287213 16.767872563315553 6.5081229134478562 #
point $-1 43.372905667287213 25.52392317941931 6.5081229134478562 #
loop $-1 $-1 $240 $233 #
plane-surface $-1 -43.372905667287213 0 0 1 0 0 0 0 -1 forward_v I I I I #
coedge $-1 $451 $452 $237 $355 reversed $234 $-1 #
coedge $-1 $237 $236 $360 $453 reversed $85 $-1 #
edge $-1 $454 0 $357 5.1015377735174301 $353 $455 forward 7 unknown #
coedge $-1 $243 $238 $452 $456 forward $137 $-1 #
vertex $-1 $456 $457 #
straight-curve $-1 -39.352839072597433 6.8302757911658354 9.5081229134478562 0 1 0 I I #
coedge $-1 $458 $240 $243 $364 reversed $351 $-1 #
coedge $-1 $240 $458 $354 $453 forward $351 $-1 #
vertex $-1 $241 $459 #
straight-curve $-1 -43.372905667287213 10.553230601347792 37.361967120357278 0 0 1 I I #
straight-curve $-1 -43.372905667287213 10.553230601347792 6.3673026019870917 -0.78801074757464917 0 -0.61566148304635926 I I #
edge $-1 $460 -16.767872563315553 $244 -10.553230601347792 $359 $461 forward 7 unknown #
point $-1 -43.372905667287213 10.553230601347792 9.5081229134478562 #
point $-1 -39.352839072597433 10.553230601347792 9.5081229134478562 #
edge $-1 $462 1 $462 0 $247 $-1 forward 7 unknown #
vertex $-1 $248 $463 #
ellipse-curve $-1 -40.486831943689189 12.328842590481436 6.8164321673165285 -0.61566148304635926 0 0.78801074757464917 0.39400537378732459 0 0.30783074152317963 1 I I #
point $-1 -40.968866996155 12.328842590481436 8.2455434992406609 #
edge $-1 $464 1 $464 0 $251 $-1 forward 7 unknown #
vertex $-1 $252 $465 #
ellipse-curve $-1 -40.486831943689189 14.992260574181905 6.8164321673165285 -0.61566148304635926 0 0.78801074757464917 0.39400537378732459 0 0.30783074152317963 1 I I #
point $-1 -40.968866996155 14.992260574181905 8.2455434992406609 #
loop $-1 $-1 $263 $255 #
plane-surface $-1 0 16.767872563315553 8.0081229134478562 0 1 0 0 0 1 forward_v I I I I #
coedge $-1 $382 $466 $259 $378 forward $256 $-1 #
edge $-1 $380 54.556871634061302 $388 57.697691945522088 $377 $467 forward 7 unknown #
coedge $-1 $266 $260 $466 $468 forward $159 $-1 #
vertex $-1 $468 $469 #
straight-curve $-1 14.211164441431755 10.553230601347792 9.5081229134478562 1 0 0 I I #
coedge $-1 $470 $377 $262 $383 forward $256 $-1 #
edge $-1 $388 3.7229548101819567 $386 9.937596772149714 $382 $471 forward 7 unknown #
coedge $-1 $385 $263 $266 $390 reversed $375 $-1 #
coedge $-1 $263 $384 $470 $472 reversed $375 $-1 #
vertex $-1 $472 $473 #
straight-curve $-1 -4.6698704878000772 16.767872563315553 43.902433827469942 -0.78801074757464917 0 0.61566148304635926 I I #
vertex $-1 $383 $474 #
straight-curve $-1 -24.983725971440265 10.553230601347792 59.773357456290853 -0.78801074757464917 0 0.61566148304635926 I I #
edge $-1 $475 -43.372905667287213 $267 -39.352839072597405 $266 $476 forward 7 unknown #
point $-1 39.352839072597405 16.767872563315549 9.5081229134478562 #
point $-1 39.352839072597405 10.553230601347792 9.5081229134478562 #
edge $-1 $477 1 $477 0 $270 $-1 forward 7 unknown #
vertex $-1 $271 $478 #
ellipse-curve $-1 40.486831943689204 12.328842590481436 6.8164321673165214 0.61566148304635926 0 0.78801074757464917 0.39400537378732459 0 -0.30783074152317963 1 I I #
point $-1 41.756877743729667 12.328842590481436 7.6298820161942942 #
edge $-1 $479 1 $479 0 $274 $-1 forward 7 unknown #
vertex $-1 $275 $480 #
ellipse-curve $-1 40.486831943689204 14.992260574181905 6.8164321673165214 0.61566148304635926 0 0.78801074757464917 0.39400537378732459 0 -0.30783074152317963 1 I I #
point $-1 41.756877743729667 14.992260574181905 7.6298820161942942 #
plane-surface $-1 43.372905667287213 0 0 -1 0 0 0 0 1 forward_v I I I I #
coedge $-1 $283 $281 $285 $406 reversed $181 $-1 #
edge $-1 $296 -9.5081229134478562 $408 9.5081229134478562 $295 $481 forward 7 unknown #
vertex $-1 $406 $482 #
straight-curve $-1 -43.372905667287213 -25.523923179419306 0 0 0 -1 I I #
edge $-1 $404 -25.523923179419306 $408 25.523923179419306 $402 $483 forward 7 unknown #
straight-curve $-1 0 -25.523923179419306 -9.5081229134478562 -1 0 0 I I #
vertex $-1 $288 $484 #
straight-curve $-1 0 25.523923179419306 -9.5081229134478562 1 0 0 I I #
point $-1 43.372905667287213 25.523923179419306 -9.5081229134478562 #
point $-1 43.372905667287213 -25.523923179419306 -9.5081229134478562 #
straight-curve $-1 -43.372905667287213 0 9.5081229134478562 0 -1 0 I I #
point $-1 -43.372905667287213 25.523923179419306 9.5081229134478562 #
point $-1 -43.372905667287213 -25.523923179419306 9.5081229134478562 #
straight-curve $-1 43.372905667287213 -25.523923179419306 0 0 0 -1 I I #
straight-curve $-1 43.372905667287213 25.523923179419306 0 0 0 -1 I I #
plane-surface $-1 43.372905667287213 0 0 -1 0 0 0 0 1 forward_v I I I I #
coedge $-1 $309 $308 $319 $429 reversed $121 $-1 #
coedge $-1 $485 $312 $309 $420 forward $306 $-1 #
edge $-1 $421 16.767872563315549 $486 25.523923179419306 $309 $487 forward 7 unknown #
vertex $-1 $420 $488 #
straight-curve $-1 -43.372905667287213 -16.767872563315549 4.0040614567239281 0 0 -1 I I #
coedge $-1 $312 $485 $314 $425 forward $306 $-1 #
straight-curve $-1 0 -16.767872563315549 9.5081229134478562 -1 0 0 I I #
edge $-1 $432 -25.523923179419306 $315 -16.767872563315549 $314 $489 forward 7 unknown #
point $-1 43.372905667287213 -16.767872563315549 9.5081229134478562 #
straight-curve $-1 -43.372905667287213 -10.572948935683714 6.5081229134478562 0 -1 0 I I #
coedge $-1 $319 $318 $485 $490 reversed $200 $-1 #
edge $-1 $486 -9.5081229134478562 $320 -6.5081229134478562 $418 $491 forward 7 unknown #
point $-1 -43.372905667287213 -25.523923179419306 6.5081229134478562 #
point $-1 -43.372905667287213 -16.767872563315549 6.5081229134478562 #
vertex $-1 $425 $492 #
straight-curve $-1 43.372905667287213 -25.523923179419306 0 0 0 -1 I I #
plane-surface $-1 0 25.523923179419306 0 0 -1 0 0 0 -1 forward_v I I I I #
coedge $-1 $331 $330 $446 $493 forward $129 $-1 #
edge $-1 $336 16.767872563315553 $449 25.523923179419306 $347 $494 forward 7 unknown #
coedge $-1 $443 $332 $331 $438 reversed $328 $-1 #
edge $-1 $495 -25.523923179419306 $335 -16.767872563315553 $437 $496 forward 7 unknown #
straight-curve $-1 -43.372905667287213 16.767872563315553 4.0040614567239281 0 0 1 I I #
straight-curve $-1 43.372905667287213 16.767872563315553 4.0040614567239281 0 0 -1 I I #
point $-1 -43.372905667287213 16.767872563315553 9.5081229134478562 #
point $-1 43.372905667287213 16.767872563315553 9.5081229134478562 #
coedge $-1 $338 $437 $342 $447 forward $328 $-1 #
straight-curve $-1 -43.372905667287213 10.572948935683716 6.5081229134478562 0 -1 0 I I #
point $-1 -43.372905667287213 16.767872563315553 6.5081229134478562 #
coedge $-1 $343 $342 $435 $493 reversed $344 $-1 #
edge $-1 $495 -9.5081229134478562 $345 -6.5081229134478562 $342 $497 forward 7 unknown #
point $-1 -43.372905667287213 25.52392317941931 6.5081229134478562 #
vertex $-1 $436 $498 #
straight-curve $-1 43.372905667287213 25.523923179419306 0 0 0 -1 I I #
coedge $-1 $452 $353 $458 $499 reversed $234 $-1 #
coedge $-1 $353 $451 $356 $456 reversed $234 $-1 #
edge $-1 $454 -9.937596772149714 $361 -3.7229548101819567 $360 $500 forward 7 unknown #
vertex $-1 $499 $501 #
straight-curve $-1 -43.372905667287213 16.767872563315549 6.3673026019870917 0.78801074757464917 0 0.61566148304635926 I I #
edge $-1 $357 39.352839072597433 $460 43.372905667287213 $356 $502 forward 7 unknown #
point $-1 -39.352839072597433 16.767872563315553 9.5081229134478562 #
coedge $-1 $360 $359 $451 $499 forward $351 $-1 #
point $-1 -43.372905667287213 10.553230601347792 6.3673026019870917 #
vertex $-1 $364 $503 #
straight-curve $-1 -43.372905667287213 0 9.5081229134478562 0 -1 0 I I #
vertex $-1 $367 $504 #
point $-1 -40.092826569901867 12.328842590481436 7.1242629088397083 #
vertex $-1 $371 $505 #
point $-1 -40.092826569901867 14.992260574181905 7.1242629088397083 #
coedge $-1 $377 $470 $379 $468 reversed $256 $-1 #
straight-curve $-1 43.372905667287213 10.553230601347792 64.064994547509158 0 0 -1 I I #
edge $-1 $380 10.553230601347792 $475 16.767872563315553 $466 $506 forward 7 unknown #
point $-1 43.372905667287213 10.553230601347792 9.5081229134478562 #
coedge $-1 $466 $382 $385 $472 forward $256 $-1 #
straight-curve $-1 43.372905667287213 6.8302757911658354 6.367302601987074 0 1 0 I I #
edge $-1 $386 -57.697691945522088 $475 -54.556871634061302 $470 $507 forward 7 unknown #
point $-1 43.372905667287213 16.767872563315549 6.3673026019870704 #
point $-1 43.372905667287213 10.553230601347792 6.3673026019870704 #
vertex $-1 $390 $508 #
straight-curve $-1 0 16.767872563315553 9.5081229134478562 -1 0 0 I I #
vertex $-1 $393 $509 #
point $-1 40.880837317476526 12.328842590481436 6.5086014257933416 #
vertex $-1 $397 $510 #
point $-1 40.880837317476526 14.992260574181905 6.5086014257933416 #
straight-curve $-1 -43.372905667287213 25.523923179419306 0 0 0 -1 I I #
point $-1 -43.372905667287213 -25.523923179419306 -9.5081229134478562 #
straight-curve $-1 -43.372905667287213 0 -9.5081229134478562 0 1 0 I I #
point $-1 -43.372905667287213 25.523923179419306 -9.5081229134478562 #
coedge $-1 $423 $419 $428 $490 forward $306 $-1 #
vertex $-1 $420 $511 #
straight-curve $-1 -43.372905667287213 0 9.5081229134478562 0 -1 0 I I #
point $-1 -43.372905667287213 -16.767872563315549 9.5081229134478562 #
straight-curve $-1 43.372905667287213 0 9.5081229134478562 0 1 0 I I #
edge $-1 $486 -43.372905667287213 $432 43.372905667287213 $428 $512 forward 7 unknown #
straight-curve $-1 -43.372905667287213 -25.523923179419306 0 0 0 -1 I I #
point $-1 43.372905667287213 -25.523923179419306 9.5081229134478562 #
edge $-1 $449 -43.372905667287213 $495 43.372905667287213 $446 $513 forward 7 unknown #
straight-curve $-1 43.372905667287213 0 9.5081229134478562 0 1 0 I I #
vertex $-1 $493 $514 #
straight-curve $-1 -43.372905667287213 0 9.5081229134478562 0 -1 0 I I #
straight-curve $-1 -43.372905667287213 25.523923179419306 0 0 0 -1 I I #
point $-1 43.372905667287213 25.523923179419306 9.5081229134478562 #
edge $-1 $460 27.853844206909422 $454 30.994664518370186 $458 $515 forward 7 unknown #
straight-curve $-1 -43.372905667287213 6.8302757911658354 6.36730260198709 0 -1 0 I I #
point $-1 -43.372905667287213 16.767872563315549 6.3673026019870917 #
straight-curve $-1 0 16.767872563315553 9.5081229134478562 -1 0 0 I I #
point $-1 -43.372905667287213 16.767872563315553 9.5081229134478562 #
point $-1 -40.179001202166013 12.328842590481436 6.4224267935292039 #
point $-1 -40.179001202166013 14.992260574181905 6.4224267935292039 #
straight-curve $-1 43.372905667287213 0 9.5081229134478562 0 1 0 I I #
straight-curve $-1 43.372905667287213 16.767872563315549 64.064994547509158 0 0 1 I I #
point $-1 43.372905667287213 16.767872563315553 9.5081229134478562 #
point $-1 40.179001202166027 12.328842590481436 6.4224267935291968 #
point $-1 40.179001202166027 14.992260574181905 6.4224267935291968 #
point $-1 -43.372905667287213 -25.523923179419306 9.5081229134478562 #
straight-curve $-1 0 -25.523923179419306 9.5081229134478562 1 0 0 I I #
straight-curve $-1 0 25.523923179419306 9.5081229134478562 -1 0 0 I I #
point $-1 -43.372905667287213 25.523923179419306 9.5081229134478562 #
straight-curve $-1 -43.372905667287213 16.767872563315549 37.361967120357278 0 0 -1 I I #
End-of-ACIS-data 