500 0 6 0           
7 Unknown 11 ACIS 5.0 NT 24 Fri Mar 26 20:02:26 1999 
-1 9.9999999999999995e-007 1e-010 
body $-1 $6 $-1 $7 #
body $-1 $8 $-1 $9 #
body $-1 $10 $-1 $11 #
body $-1 $12 $-1 $13 #
body $-1 $14 $-1 $15 #
body $-1 $16 $-1 $17 #
lump $-1 $-1 $18 $0 #
transform $-1 1 0 0 0 1 0 0 0 1 67.637562181463053 40.886800032518927 10.462713388246346 1 rotate no_reflect no_shear #
lump $-1 $-1 $19 $1 #
transform $-1 1 0 0 0 1 0 0 0 1 67.637562181463053 40.886800032518927 10.462713388246346 1 rotate no_reflect no_shear #
lump $-1 $-1 $20 $2 #
transform $-1 1 0 0 0 1 0 0 0 1 67.637562181463053 40.886800032518927 10.462713388246346 1 rotate no_reflect no_shear #
lump $-1 $-1 $21 $3 #
transform $-1 1 0 0 0 1 0 0 0 1 67.637562181463053 40.886800032518927 10.462713388246346 1 rotate no_reflect no_shear #
lump $-1 $-1 $22 $4 #
transform $-1 1 0 0 0 1 0 0 0 1 67.637562181463053 40.886800032518927 10.462713388246346 1 rotate no_reflect no_shear #
lump $-1 $-1 $23 $5 #
transform $-1 1 0 0 0 1 0 0 0 1 67.637562181463053 40.886800032518927 10.462713388246346 1 rotate no_reflect no_shear #
shell $-1 $-1 $-1 $24 $-1 $6 #
shell $-1 $-1 $-1 $25 $-1 $8 #
shell $-1 $-1 $-1 $26 $-1 $10 #
shell $-1 $-1 $-1 $27 $-1 $12 #
shell $-1 $-1 $-1 $28 $-1 $14 #
shell $-1 $-1 $-1 $29 $-1 $16 #
face $-1 $30 $31 $18 $-1 $32 forward single #
face $-1 $33 $34 $19 $-1 $35 reversed single #
face $-1 $36 $37 $20 $-1 $38 reversed single #
face $-1 $39 $40 $21 $-1 $41 reversed single #
face $-1 $42 $43 $22 $-1 $44 forward single #
face $-1 $45 $46 $23 $-1 $47 forward single #
face $-1 $48 $49 $18 $-1 $50 reversed single #
loop $-1 $-1 $51 $24 #
plane-surface $-1 0 0 10.462713388246346 0 0 1 1 0 0 forward_v I I I I #
face $-1 $52 $53 $19 $-1 $54 reversed single #
loop $-1 $-1 $55 $25 #
plane-surface $-1 -52.573515591825519 -36.085354306101095 0 1 0 0 0 0 -1 forward_v I I I I #
face $-1 $56 $57 $20 $-1 $58 reversed single #
loop $-1 $-1 $59 $26 #
plane-surface $-1 -49.64282549839794 31.283908579683256 0 0 1 0 0 0 1 forward_v I I I I #
face $-1 $60 $61 $21 $-1 $62 reversed single #
loop $-1 $-1 $63 $27 #
plane-surface $-1 -183.59097644363931 22.79991344980316 72.419424599171663 0 1 0 -0.85716730853699208 0 0.51503806187062418 forward_v I I I I #
face $-1 $64 $65 $22 $-1 $66 forward single #
loop $-1 $67 $68 $28 #
cone-surface $-1 -64.523789458106066 25.223912058340325 6.1269161474285498 0.85716730853699208 0 -0.51503806187062418 0.25751903093531209 0 0.42858365426849604 1 I I 0 1 0.5 forward I I I I #
face $-1 $69 $70 $23 $-1 $71 forward single #
loop $-1 $72 $73 $29 #
cone-surface $-1 -64.523789458106066 28.859909971146088 6.1269161474285498 0.85716730853699208 0 -0.51503806187062418 0.25751903093531209 0 0.42858365426849604 1 I I 0 1 0.5 forward I I I I #
face $-1 $74 $75 $18 $-1 $76 reversed single #
loop $-1 $-1 $77 $30 #
plane-surface $-1 0 0 -10.462713388246346 0 0 1 1 0 0 forward_v I I I I #
coedge $-1 $78 $79 $80 $81 forward $31 $-1 #
face $-1 $82 $83 $19 $-1 $84 reversed single #
loop $-1 $-1 $85 $33 #
plane-surface $-1 -49.64282549839794 -31.283908579683267 0 0 -1 0 0 0 -1 forward_v I I I I #
coedge $-1 $86 $87 $88 $89 forward $34 $-1 #
face $-1 $90 $91 $20 $-1 $92 reversed single #
loop $-1 $-1 $93 $36 #
plane-surface $-1 -52.573515591825519 36.085354306101088 0 1 0 0 0 0 -1 forward_v I I I I #
coedge $-1 $94 $95 $96 $97 forward $37 $-1 #
face $-1 $98 $99 $21 $-1 $100 reversed single #
loop $-1 $-1 $101 $39 #
plane-surface $-1 -67.637562181463053 27.041911014743214 2.7475867279825508 -0.85716730853699208 0 0.51503806187062418 0.51503806187062418 0 0.85716730853699208 forward_v I I I I #
coedge $-1 $102 $103 $104 $105 reversed $40 $-1 #
face $-1 $-1 $106 $22 $-1 $107 forward single #
loop $-1 $108 $109 $42 #
cone-surface $-1 -63.513582718227525 25.223912058340325 5.5199227212749999 0.85716730853699208 0 -0.51503806187062418 0.12875951546765604 0 0.21429182713424802 1 I I -0.70710678118654746 0.70710678118654746 0.25 forward I I I I #
loop $-1 $-1 $110 $28 #
coedge $-1 $68 $68 $111 $112 reversed $43 $-1 #
face $-1 $-1 $113 $23 $-1 $114 forward single #
loop $-1 $115 $116 $45 #
cone-surface $-1 -63.513582718227525 28.859909971146088 5.5199227212749999 0.85716730853699208 0 -0.51503806187062418 0.12875951546765604 0 0.21429182713424802 1 I I -0.70710678118654746 0.70710678118654746 0.25 forward I I I I #
loop $-1 $-1 $117 $29 #
coedge $-1 $73 $73 $118 $119 reversed $46 $-1 #
face $-1 $120 $121 $18 $-1 $122 reversed single #
loop $-1 $-1 $123 $48 #
plane-surface $-1 0 -40.886800032518927 0 0 1 0 0 0 1 forward_v I I I I #
coedge $-1 $124 $125 $126 $127 forward $49 $-1 #
coedge $-1 $128 $51 $129 $130 forward $31 $-1 #
coedge $-1 $51 $128 $131 $132 forward $31 $-1 #
coedge $-1 $133 $134 $51 $81 reversed $135 $-1 #
edge $-1 $136 -40.886800032518927 $137 40.886800032518927 $80 $138 forward 7 unknown #
face $-1 $139 $140 $19 $-1 $141 forward single #
loop $-1 $-1 $142 $52 #
plane-surface $-1 -46.712135404970361 -36.085354306101095 0 -1 0 0 0 0 1 forward_v I I I I #
coedge $-1 $143 $144 $145 $146 forward $53 $-1 #
coedge $-1 $147 $55 $148 $149 reversed $34 $-1 #
coedge $-1 $55 $147 $150 $151 reversed $34 $-1 #
coedge $-1 $144 $143 $55 $89 reversed $53 $-1 #
edge $-1 $152 -10.462713388246346 $153 10.462713388246346 $88 $154 forward 7 unknown #
face $-1 $155 $156 $20 $-1 $157 reversed single #
loop $-1 $-1 $158 $56 #
plane-surface $-1 -46.712135404970361 36.085354306101088 0 -1 0 0 0 0 1 forward_v I I I I #
coedge $-1 $159 $160 $161 $162 reversed $57 $-1 #
coedge $-1 $163 $59 $164 $165 reversed $37 $-1 #
coedge $-1 $59 $163 $166 $167 reversed $37 $-1 #
coedge $-1 $160 $159 $59 $97 reversed $57 $-1 #
edge $-1 $168 -10.462713388246346 $169 10.462713388246346 $96 $170 forward 7 unknown #
face $-1 $171 $172 $21 $-1 $173 reversed single #
loop $-1 $-1 $174 $60 #
plane-surface $-1 -183.59097644363931 31.283908579683267 72.419424599171663 0 -1 0 0.85716730853699208 0 -0.51503806187062418 forward_v I I I I #
coedge $-1 $175 $176 $177 $178 reversed $61 $-1 #
coedge $-1 $103 $63 $179 $180 reversed $40 $-1 #
coedge $-1 $63 $102 $175 $181 reversed $40 $-1 #
coedge $-1 $177 $182 $63 $105 forward $183 $-1 #
edge $-1 $184 24.1579260403566 $185 28.793641661581979 $104 $186 forward 7 unknown #
loop $-1 $-1 $111 $64 #
plane-surface $-1 -67.637562181463053 27.041911014743214 2.7475867279825508 -0.85716730853699208 0 0.51503806187062418 0.51503806187062418 0 0.85716730853699208 forward_v I I I I #
loop $-1 $-1 $187 $42 #
coedge $-1 $109 $109 $110 $188 reversed $65 $-1 #
coedge $-1 $110 $110 $109 $188 forward $67 $-1 #
coedge $-1 $111 $111 $68 $112 forward $106 $-1 #
edge $-1 $189 0 $189 6.2831853071796004 $111 $190 forward 7 unknown #
loop $-1 $-1 $118 $69 #
plane-surface $-1 -67.637562181463053 27.041911014743214 2.7475867279825508 -0.85716730853699208 0 0.51503806187062418 0.51503806187062418 0 0.85716730853699208 forward_v I I I I #
loop $-1 $-1 $191 $45 #
coedge $-1 $116 $116 $117 $192 reversed $70 $-1 #
coedge $-1 $117 $117 $116 $192 forward $72 $-1 #
coedge $-1 $118 $118 $73 $119 forward $113 $-1 #
edge $-1 $193 0 $193 6.2831853071796004 $118 $194 forward 7 unknown #
face $-1 $195 $196 $18 $-1 $197 reversed single #
loop $-1 $-1 $198 $74 #
plane-surface $-1 -67.637562181463053 0 0 1 0 0 0 0 -1 forward_v I I I I #
coedge $-1 $199 $131 $200 $201 forward $75 $-1 #
coedge $-1 $202 $77 $199 $203 forward $49 $-1 #
coedge $-1 $77 $202 $204 $205 forward $49 $-1 #
coedge $-1 $134 $133 $77 $127 reversed $135 $-1 #
edge $-1 $206 -40.886800032518927 $207 40.886800032518927 $126 $208 forward 7 unknown #
coedge $-1 $79 $78 $209 $210 forward $31 $-1 #
coedge $-1 $211 $212 $78 $130 reversed $196 $-1 #
edge $-1 $137 -67.637562181463053 $213 67.637562181463053 $129 $214 forward 7 unknown #
coedge $-1 $123 $215 $79 $132 reversed $75 $-1 #
edge $-1 $216 -67.637562181463053 $136 67.637562181463053 $131 $217 forward 7 unknown #
coedge $-1 $126 $80 $215 $218 forward $135 $-1 #
coedge $-1 $80 $126 $211 $219 reversed $135 $-1 #
loop $-1 $-1 $133 $195 #
vertex $-1 $81 $220 #
vertex $-1 $81 $221 #
straight-curve $-1 67.637562181463053 0 10.462713388246346 0 1 0 I I #
face $-1 $222 $223 $19 $-1 $224 reversed single #
loop $-1 $-1 $225 $82 #
plane-surface $-1 0 0 10.462713388246346 0 0 1 1 0 0 forward_v I I I I #
coedge $-1 $226 $227 $228 $229 reversed $83 $-1 #
coedge $-1 $88 $85 $230 $231 reversed $53 $-1 #
coedge $-1 $85 $88 $232 $233 reversed $53 $-1 #
coedge $-1 $227 $226 $85 $146 reversed $83 $-1 #
edge $-1 $234 -10.462713388246346 $235 10.462713388246346 $145 $236 forward 7 unknown #
coedge $-1 $87 $86 $237 $238 reversed $34 $-1 #
coedge $-1 $230 $239 $86 $149 forward $223 $-1 #
edge $-1 $240 -22.844122879468379 $153 -13.241231426632719 $148 $241 forward 7 unknown #
coedge $-1 $242 $232 $87 $151 forward $140 $-1 #
edge $-1 $152 13.241231426632719 $243 22.844122879468379 $150 $244 forward 7 unknown #
vertex $-1 $151 $245 #
vertex $-1 $149 $246 #
straight-curve $-1 -52.573515591825519 -31.283908579683267 0 0 0 -1 I I #
face $-1 $247 $248 $20 $-1 $249 forward single #
loop $-1 $-1 $250 $90 #
plane-surface $-1 0 0 -10.462713388246346 0 0 1 1 0 0 forward_v I I I I #
coedge $-1 $251 $252 $163 $253 forward $91 $-1 #
coedge $-1 $96 $93 $254 $255 reversed $57 $-1 #
coedge $-1 $93 $96 $256 $257 reversed $57 $-1 #
coedge $-1 $258 $259 $93 $162 forward $260 $-1 #
edge $-1 $261 -10.462713388246346 $262 10.462713388246346 $161 $263 forward 7 unknown #
coedge $-1 $95 $94 $158 $253 reversed $37 $-1 #
coedge $-1 $254 $250 $94 $165 forward $156 $-1 #
edge $-1 $264 21.890722655771391 $169 27.752102842626549 $164 $265 forward 7 unknown #
coedge $-1 $266 $256 $95 $167 forward $248 $-1 #
edge $-1 $168 -27.752102842626549 $267 -21.890722655771391 $166 $268 forward 7 unknown #
vertex $-1 $167 $269 #
vertex $-1 $165 $270 #
straight-curve $-1 -52.573515591825519 31.283908579683256 0 0 0 -1 I I #
face $-1 $-1 $183 $21 $-1 $271 forward single #
loop $-1 $-1 $272 $98 #
plane-surface $-1 -67.637562181463053 0 0 1 0 0 0 0 -1 forward_v I I I I #
coedge $-1 $273 $274 $275 $276 reversed $99 $-1 #
coedge $-1 $277 $101 $103 $181 forward $61 $-1 #
coedge $-1 $101 $277 $273 $278 forward $61 $-1 #
coedge $-1 $275 $104 $101 $178 forward $183 $-1 #
edge $-1 $185 9.2789579424315534 $279 17.76295307231166 $177 $280 forward 7 unknown #
coedge $-1 $281 $282 $102 $180 forward $172 $-1 #
edge $-1 $283 -33.462125571603281 $184 -25.746998911339485 $179 $284 forward 7 unknown #
edge $-1 $185 -9.0007243433396091 $283 0 $103 $285 forward 7 unknown #
coedge $-1 $104 $275 $281 $286 forward $183 $-1 #
loop $-1 $-1 $275 $171 #
vertex $-1 $180 $287 #
vertex $-1 $105 $288 #
straight-curve $-1 -91.795488221819653 22.79991344980316 10.462713388246346 1 0 0 I I #
coedge $-1 $187 $187 $-1 $289 reversed $108 $-1 #
edge $-1 $290 0 $290 6.2831853071796004 $109 $291 forward 7 unknown #
vertex $-1 $112 $292 #
ellipse-curve $-1 -65.31970437085036 25.223912058340325 6.6051500581144476 -0.85716730853699208 0 0.51503806187062418 0.25751903093531209 0 0.42858365426849604 1 I I #
coedge $-1 $191 $191 $-1 $293 reversed $115 $-1 #
edge $-1 $294 0 $294 6.2831853071796004 $116 $295 forward 7 unknown #
vertex $-1 $119 $296 #
ellipse-curve $-1 -65.31970437085036 28.859909971146088 6.6051500581144476 -0.85716730853699208 0 0.51503806187062418 0.25751903093531209 0 0.42858365426849604 1 I I #
face $-1 $-1 $135 $18 $-1 $297 reversed single #
loop $-1 $-1 $211 $120 #
plane-surface $-1 0 40.886800032518927 0 0 -1 0 0 0 -1 forward_v I I I I #
coedge $-1 $298 $209 $212 $299 forward $121 $-1 #
coedge $-1 $215 $123 $124 $203 reversed $75 $-1 #
coedge $-1 $209 $298 $123 $201 reversed $121 $-1 #
edge $-1 $216 -10.462713388246346 $300 10.462713388246346 $200 $301 forward 7 unknown #
coedge $-1 $125 $124 $298 $302 forward $49 $-1 #
edge $-1 $207 -67.637562181463053 $300 67.637562181463053 $199 $303 forward 7 unknown #
coedge $-1 $212 $211 $125 $205 reversed $196 $-1 #
edge $-1 $304 -67.637562181463053 $206 67.637562181463053 $204 $305 forward 7 unknown #
vertex $-1 $127 $306 #
vertex $-1 $218 $307 #
straight-curve $-1 67.637562181463053 0 -10.462713388246346 0 -1 0 I I #
coedge $-1 $198 $200 $128 $210 reversed $121 $-1 #
edge $-1 $213 -40.886800032518927 $216 40.886800032518927 $209 $308 forward 7 unknown #
coedge $-1 $204 $129 $134 $219 forward $196 $-1 #
coedge $-1 $129 $204 $198 $299 reversed $196 $-1 #
vertex $-1 $130 $309 #
straight-curve $-1 0 40.886800032518927 10.462713388246346 -1 0 0 I I #
coedge $-1 $131 $199 $133 $218 reversed $75 $-1 #
vertex $-1 $210 $310 #
straight-curve $-1 0 -40.886800032518927 10.462713388246346 1 0 0 I I #
edge $-1 $136 -10.462713388246346 $207 10.462713388246346 $133 $311 forward 7 unknown #
edge $-1 $137 -10.462713388246346 $206 10.462713388246346 $134 $312 forward 7 unknown #
point $-1 67.637562181463053 -40.886800032518927 10.462713388246346 #
point $-1 67.637562181463053 40.886800032518927 10.462713388246346 #
face $-1 $-1 $313 $19 $-1 $314 reversed single #
loop $-1 $-1 $315 $139 #
plane-surface $-1 0 0 -10.462713388246346 0 0 1 1 0 0 forward_v I I I I #
coedge $-1 $232 $242 $227 $316 forward $140 $-1 #
coedge $-1 $145 $142 $315 $317 reversed $83 $-1 #
coedge $-1 $142 $145 $225 $316 reversed $83 $-1 #
coedge $-1 $318 $319 $142 $229 forward $313 $-1 #
edge $-1 $320 -10.462713388246346 $321 10.462713388246346 $228 $322 forward 7 unknown #
coedge $-1 $315 $148 $143 $231 forward $223 $-1 #
edge $-1 $153 -27.752102842626549 $235 -21.890722655771391 $230 $323 forward 7 unknown #
coedge $-1 $150 $225 $144 $233 forward $140 $-1 #
edge $-1 $234 21.890722655771391 $152 27.752102842626549 $232 $324 forward 7 unknown #
vertex $-1 $233 $325 #
vertex $-1 $231 $326 #
straight-curve $-1 -46.712135404970361 -31.283908579683267 0 0 0 -1 I I #
coedge $-1 $319 $318 $147 $238 forward $313 $-1 #
edge $-1 $243 -10.462713388246346 $240 10.462713388246346 $237 $327 forward 7 unknown #
coedge $-1 $148 $315 $319 $328 forward $223 $-1 #
vertex $-1 $149 $329 #
straight-curve $-1 -52.573515591825519 -18.042677153050548 -10.462713388246346 0 1 0 I I #
coedge $-1 $225 $150 $318 $330 forward $140 $-1 #
vertex $-1 $330 $331 #
straight-curve $-1 -52.573515591825519 -18.042677153050548 10.462713388246346 0 -1 0 I I #
point $-1 -52.573515591825519 -31.283908579683267 10.462713388246346 #
point $-1 -52.573515591825519 -31.283908579683267 -10.462713388246346 #
face $-1 $-1 $260 $20 $-1 $332 reversed single #
loop $-1 $-1 $266 $155 #
plane-surface $-1 0 0 10.462713388246346 0 0 1 1 0 0 forward_v I I I I #
coedge $-1 $164 $333 $251 $334 forward $156 $-1 #
coedge $-1 $335 $158 $250 $334 reversed $91 $-1 #
coedge $-1 $158 $335 $266 $336 reversed $91 $-1 #
edge $-1 $267 -10.462713388246346 $264 10.462713388246346 $158 $337 forward 7 unknown #
coedge $-1 $333 $164 $159 $255 forward $156 $-1 #
edge $-1 $169 13.241231426632712 $261 22.844122879468376 $254 $338 forward 7 unknown #
coedge $-1 $166 $339 $160 $257 forward $248 $-1 #
edge $-1 $262 -22.844122879468376 $168 -13.241231426632712 $256 $340 forward 7 unknown #
coedge $-1 $341 $161 $339 $342 reversed $260 $-1 #
coedge $-1 $161 $341 $333 $343 reversed $260 $-1 #
loop $-1 $-1 $341 $247 #
vertex $-1 $343 $344 #
vertex $-1 $162 $345 #
straight-curve $-1 -52.573515591825519 40.886800032518927 0 0 0 1 I I #
vertex $-1 $165 $346 #
straight-curve $-1 -24.82141274919897 31.283908579683256 -10.462713388246346 -1 0 0 I I #
coedge $-1 $339 $166 $252 $336 forward $248 $-1 #
vertex $-1 $167 $347 #
straight-curve $-1 -24.82141274919897 31.283908579683256 10.462713388246346 1 0 0 I I #
point $-1 -52.573515591825519 31.283908579683256 10.462713388246346 #
point $-1 -52.573515591825519 31.283908579683256 -10.462713388246346 #
plane-surface $-1 0 0 10.462713388246346 0 0 1 1 0 0 forward_v I I I I #
coedge $-1 $282 $281 $274 $348 forward $172 $-1 #
coedge $-1 $274 $174 $176 $278 reversed $99 $-1 #
coedge $-1 $174 $273 $272 $348 reversed $99 $-1 #
coedge $-1 $182 $177 $174 $276 forward $183 $-1 #
edge $-1 $279 -28.793641661581979 $349 -24.1579260403566 $275 $350 forward 7 unknown #
coedge $-1 $176 $175 $282 $351 reversed $61 $-1 #
edge $-1 $352 0 $279 9.0007243433396091 $273 $353 forward 7 unknown #
vertex $-1 $178 $354 #
straight-curve $-1 -63.001846560237666 13.520955507371607 10.462713388246346 0 1 0 I I #
coedge $-1 $272 $179 $182 $286 reversed $172 $-1 #
coedge $-1 $179 $272 $277 $351 forward $172 $-1 #
vertex $-1 $180 $355 #
straight-curve $-1 -67.637562181463053 22.79991344980316 36.209712299585831 0 0 1 I I #
straight-curve $-1 -67.637562181463053 22.79991344980316 2.7475867279825508 -0.51503806187062418 0 -0.85716730853699208 I I #
edge $-1 $349 -31.283908579683267 $184 -22.79991344980316 $281 $356 forward 7 unknown #
point $-1 -67.637562181463053 22.79991344980316 10.462713388246346 #
point $-1 -63.001846560237674 22.79991344980316 10.462713388246346 #
edge $-1 $357 1 $357 0 $187 $-1 forward 7 unknown #
vertex $-1 $188 $358 #
ellipse-curve $-1 -63.727874545361772 25.223912058340325 5.6486822367426557 -0.85716730853699208 0 0.51503806187062418 0.25751903093531209 0 0.42858365426849604 1 I I #
point $-1 -65.062185339915047 25.223912058340325 7.03373371238294 #
edge $-1 $359 1 $359 0 $191 $-1 forward 7 unknown #
vertex $-1 $192 $360 #
ellipse-curve $-1 -63.727874545361772 28.859909971146088 5.6486822367426557 -0.85716730853699208 0 0.51503806187062418 0.25751903093531209 0 0.42858365426849604 1 I I #
point $-1 -65.062185339915047 28.859909971146088 7.03373371238294 #
plane-surface $-1 67.637562181463053 0 0 -1 0 0 0 0 1 forward_v I I I I #
coedge $-1 $200 $198 $202 $302 reversed $121 $-1 #
edge $-1 $213 -10.462713388246346 $304 10.462713388246346 $212 $361 forward 7 unknown #
vertex $-1 $302 $362 #
straight-curve $-1 -67.637562181463053 -40.886800032518927 0 0 0 -1 I I #
edge $-1 $300 -40.886800032518927 $304 40.886800032518927 $298 $363 forward 7 unknown #
straight-curve $-1 0 -40.886800032518927 -10.462713388246346 -1 0 0 I I #
vertex $-1 $205 $364 #
straight-curve $-1 0 40.886800032518927 -10.462713388246346 1 0 0 I I #
point $-1 67.637562181463053 40.886800032518927 -10.462713388246346 #
point $-1 67.637562181463053 -40.886800032518927 -10.462713388246346 #
straight-curve $-1 -67.637562181463053 0 10.462713388246346 0 -1 0 I I #
point $-1 -67.637562181463053 40.886800032518927 10.462713388246346 #
point $-1 -67.637562181463053 -40.886800032518927 10.462713388246346 #
straight-curve $-1 67.637562181463053 -40.886800032518927 0 0 0 -1 I I #
straight-curve $-1 67.637562181463053 40.886800032518927 0 0 0 -1 I I #
loop $-1 $-1 $228 $222 #
plane-surface $-1 0 -40.886800032518927 0 0 1 0 0 0 1 forward_v I I I I #
coedge $-1 $239 $230 $226 $317 forward $223 $-1 #
edge $-1 $321 -22.844122879468379 $234 -13.241231426632719 $225 $365 forward 7 unknown #
edge $-1 $235 13.241231426632719 $320 22.844122879468379 $315 $366 forward 7 unknown #
coedge $-1 $237 $228 $242 $330 reversed $313 $-1 #
coedge $-1 $228 $237 $239 $328 reversed $313 $-1 #
vertex $-1 $328 $367 #
vertex $-1 $229 $368 #
straight-curve $-1 -46.712135404970361 -40.886800032518927 0 0 0 1 I I #
straight-curve $-1 -24.82141274919897 -31.283908579683267 -10.462713388246346 1 0 0 I I #
straight-curve $-1 -24.82141274919897 -31.283908579683267 10.462713388246346 -1 0 0 I I #
point $-1 -46.712135404970361 -31.283908579683267 10.462713388246346 #
point $-1 -46.712135404970361 -31.283908579683267 -10.462713388246346 #
straight-curve $-1 -52.573515591825519 -40.886800032518927 0 0 0 -1 I I #
edge $-1 $320 46.712135404970361 $240 52.573515591825519 $319 $369 forward 7 unknown #
point $-1 -52.573515591825519 -40.886800032518927 -10.462713388246346 #
edge $-1 $243 -52.573515591825519 $321 -46.712135404970361 $318 $370 forward 7 unknown #
point $-1 -52.573515591825519 -40.886800032518927 10.462713388246346 #
plane-surface $-1 0 40.886800032518927 0 0 -1 0 0 0 -1 forward_v I I I I #
coedge $-1 $250 $254 $259 $343 forward $156 $-1 #
edge $-1 $371 -22.844122879468376 $264 -13.241231426632712 $250 $372 forward 7 unknown #
coedge $-1 $252 $251 $341 $373 reversed $91 $-1 #
edge $-1 $267 13.241231426632712 $374 22.844122879468376 $266 $375 forward 7 unknown #
straight-curve $-1 -46.712135404970361 31.283908579683256 0 0 0 -1 I I #
straight-curve $-1 -52.573515591825519 18.042677153050544 -10.462713388246346 0 1 0 I I #
coedge $-1 $256 $266 $258 $342 forward $248 $-1 #
straight-curve $-1 -52.573515591825519 18.042677153050544 10.462713388246346 0 -1 0 I I #
coedge $-1 $259 $258 $335 $373 forward $260 $-1 #
edge $-1 $374 46.712135404970361 $262 52.573515591825519 $258 $376 forward 7 unknown #
edge $-1 $261 -52.573515591825519 $371 -46.712135404970361 $259 $377 forward 7 unknown #
point $-1 -52.573515591825519 40.88680003251892 -10.462713388246346 #
point $-1 -52.573515591825519 40.88680003251892 10.462713388246346 #
point $-1 -46.712135404970361 31.283908579683256 -10.462713388246346 #
point $-1 -46.712135404970361 31.283908579683256 10.462713388246346 #
edge $-1 $349 25.746998911339485 $352 33.462125571603281 $272 $378 forward 7 unknown #
vertex $-1 $286 $379 #
straight-curve $-1 -91.795488221819653 31.283908579683267 10.462713388246346 -1 0 0 I I #
edge $-1 $352 -17.76295307231166 $283 -9.2789579424315534 $282 $380 forward 7 unknown #
vertex $-1 $351 $381 #
straight-curve $-1 -67.637562181463053 31.283908579683267 2.7475867279825508 0.51503806187062418 0 0.85716730853699208 I I #
point $-1 -63.001846560237674 31.283908579683267 10.462713388246346 #
point $-1 -67.637562181463053 22.79991344980316 2.7475867279825508 #
straight-curve $-1 -67.637562181463053 0 10.462713388246346 0 -1 0 I I #
vertex $-1 $289 $382 #
point $-1 -63.470355514426458 25.223912058340325 6.0772658910111517 #
vertex $-1 $293 $383 #
point $-1 -63.470355514426458 28.859909971146088 6.0772658910111517 #
straight-curve $-1 -67.637562181463053 40.886800032518927 0 0 0 -1 I I #
point $-1 -67.637562181463053 -40.886800032518927 -10.462713388246346 #
straight-curve $-1 -67.637562181463053 0 -10.462713388246346 0 1 0 I I #
point $-1 -67.637562181463053 40.886800032518927 -10.462713388246346 #
straight-curve $-1 -46.712135404970361 -18.042677153050548 10.462713388246346 0 1 0 I I #
straight-curve $-1 -46.712135404970361 -18.042677153050548 -10.462713388246346 0 -1 0 I I #
point $-1 -46.712135404970361 -40.886800032518927 -10.462713388246346 #
point $-1 -46.712135404970361 -40.886800032518927 10.462713388246346 #
straight-curve $-1 0 -40.886800032518927 -10.462713388246346 -1 0 0 I I #
straight-curve $-1 0 -40.886800032518927 10.462713388246346 1 0 0 I I #
vertex $-1 $373 $384 #
straight-curve $-1 -46.712135404970361 18.042677153050544 -10.462713388246346 0 -1 0 I I #
edge $-1 $374 -10.462713388246346 $371 10.462713388246346 $341 $385 forward 7 unknown #
vertex $-1 $342 $386 #
straight-curve $-1 -46.712135404970361 18.042677153050544 10.462713388246346 0 1 0 I I #
straight-curve $-1 0 40.886800032518927 10.462713388246346 -1 0 0 I I #
straight-curve $-1 0 40.886800032518927 -10.462713388246346 1 0 0 I I #
straight-curve $-1 -67.637562181463053 31.283908579683267 36.209712299585831 0 0 -1 I I #
point $-1 -67.637562181463053 31.283908579683267 10.462713388246346 #
straight-curve $-1 -67.637562181463053 13.520955507371607 2.7475867279825392 0 -1 0 I I #
point $-1 -67.637562181463053 31.283908579683267 2.7475867279825508 #
point $-1 -63.299290891093278 25.223912058340325 5.3911632058073442 #
point $-1 -63.299290891093278 28.859909971146088 5.3911632058073442 #
point $-1 -46.712135404970361 40.88680003251892 -10.462713388246346 #
straight-curve $-1 -46.712135404970361 40.886800032518927 0 0 0 -1 I I #
point $-1 -46.712135404970361 40.88680003251892 10.462713388246346 #
End-of-ACIS-data 