500 0 5 0           
7 Unknown 11 ACIS 5.0 NT 24 Fri Mar 26 19:00:33 1999 
-1 9.9999999999999995e-007 1e-010 
body $-1 $5 $-1 $6 #
body $-1 $7 $-1 $8 #
body $-1 $9 $-1 $10 #
body $-1 $11 $-1 $12 #
body $-1 $13 $-1 $14 #
lump $-1 $-1 $15 $0 #
transform $-1 1 0 0 0 1 0 0 0 1 62.760704367198706 31.510596877863989 11.156368800911761 1 rotate no_reflect no_shear #
lump $-1 $-1 $16 $1 #
transform $-1 1 0 0 0 1 0 0 0 1 62.760704367198706 31.510596877863989 11.156368800911761 1 rotate no_reflect no_shear #
lump $-1 $-1 $17 $2 #
transform $-1 1 0 0 0 1 0 0 0 1 62.760704367198706 31.510596877863989 11.156368800911761 1 rotate no_reflect no_shear #
lump $-1 $-1 $18 $3 #
transform $-1 1 0 0 0 1 0 0 0 1 62.760704367198706 31.510596877863989 11.156368800911761 1 rotate no_reflect no_shear #
lump $-1 $-1 $19 $4 #
transform $-1 1 0 0 0 1 0 0 0 1 62.760704367198706 31.510596877863989 11.156368800911761 1 rotate no_reflect no_shear #
shell $-1 $-1 $-1 $20 $-1 $5 #
shell $-1 $-1 $-1 $21 $-1 $7 #
shell $-1 $-1 $-1 $22 $-1 $9 #
shell $-1 $-1 $-1 $23 $-1 $11 #
shell $-1 $-1 $-1 $24 $-1 $13 #
face $-1 $25 $26 $15 $-1 $27 forward single #
face $-1 $28 $29 $16 $-1 $30 reversed single #
face $-1 $31 $32 $17 $-1 $33 reversed single #
face $-1 $34 $35 $18 $-1 $36 forward single #
face $-1 $37 $38 $19 $-1 $39 forward single #
face $-1 $40 $41 $15 $-1 $42 reversed single #
loop $-1 $-1 $43 $20 #
plane-surface $-1 0 0 11.156368800911761 0 0 1 1 0 0 forward_v I I I I #
face $-1 $44 $45 $16 $-1 $46 reversed single #
loop $-1 $-1 $47 $21 #
plane-surface $-1 -60.335393478819093 -19.514240361606625 0 0 -1 0 0 0 -1 forward_v I I I I #
face $-1 $48 $49 $17 $-1 $50 reversed single #
loop $-1 $-1 $51 $22 #
plane-surface $-1 -143.44431164375186 -11.36313321953218 103.51729012509848 0 -1 0 0.64278761758704617 0 -0.76604443648966558 forward_v I I I I #
face $-1 $52 $53 $18 $-1 $54 forward single #
loop $-1 $55 $56 $23 #
cone-surface $-1 -60.178520971145907 -17.185352606728213 8.8763188340950627 0.64278761758704617 0 -0.76604443648966558 0.1915111091224164 0 0.16069690439676154 1 I I 0 1 0.25 forward I I I I #
face $-1 $57 $58 $19 $-1 $59 forward single #
loop $-1 $60 $61 $24 #
cone-surface $-1 -60.178520971145907 -13.692020974410596 8.8763188340950627 0.64278761758704617 0 -0.76604443648966558 0.1915111091224164 0 0.16069690439676154 1 I I 0 1 0.25 forward I I I I #
face $-1 $62 $63 $15 $-1 $64 reversed single #
loop $-1 $-1 $65 $25 #
plane-surface $-1 0 0 -11.156368800911761 0 0 1 1 0 0 forward_v I I I I #
coedge $-1 $66 $67 $68 $69 forward $26 $-1 #
face $-1 $70 $71 $16 $-1 $72 forward single #
loop $-1 $-1 $73 $28 #
plane-surface $-1 -57.91008259043948 -25.512418619735307 0 -1 0 0 0 0 1 forward_v I I I I #
coedge $-1 $74 $75 $76 $77 reversed $29 $-1 #
face $-1 $78 $79 $17 $-1 $80 reversed single #
loop $-1 $-1 $81 $31 #
plane-surface $-1 -62.760704367198684 -15.438686790569403 7.3623133037680191 -0.64278761758704617 0 0.76604443648966558 0.76604443648966558 0 0.64278761758704617 forward_v I I I I #
coedge $-1 $82 $83 $84 $85 reversed $32 $-1 #
face $-1 $-1 $86 $18 $-1 $87 forward single #
loop $-1 $88 $89 $34 #
cone-surface $-1 -59.776778710154005 -17.185352606728213 8.3975410612890222 0.64278761758704617 0 -0.76604443648966558 0.095755554561208198 0 0.080348452198380771 1 I I -0.70710678118654746 0.70710678118654746 0.125 forward I I I I #
loop $-1 $-1 $90 $23 #
coedge $-1 $56 $56 $91 $92 reversed $35 $-1 #
face $-1 $-1 $93 $19 $-1 $94 forward single #
loop $-1 $95 $96 $37 #
cone-surface $-1 -59.776778710154005 -13.692020974410596 8.3975410612890222 0.64278761758704617 0 -0.76604443648966558 0.095755554561208198 0 0.080348452198380771 1 I I -0.70710678118654746 0.70710678118654746 0.125 forward I I I I #
loop $-1 $-1 $97 $24 #
coedge $-1 $61 $61 $98 $99 reversed $38 $-1 #
face $-1 $100 $101 $15 $-1 $102 reversed single #
loop $-1 $-1 $103 $40 #
plane-surface $-1 0 -31.510596877863989 0 0 1 0 0 0 1 forward_v I I I I #
coedge $-1 $104 $105 $106 $107 forward $41 $-1 #
coedge $-1 $108 $43 $109 $110 forward $26 $-1 #
coedge $-1 $43 $108 $111 $112 forward $26 $-1 #
coedge $-1 $113 $114 $43 $69 reversed $115 $-1 #
edge $-1 $116 -31.510596877863989 $117 31.510596877863989 $68 $118 forward 7 unknown #
face $-1 $119 $120 $16 $-1 $121 reversed single #
loop $-1 $-1 $122 $44 #
plane-surface $-1 0 0 11.156368800911761 0 0 1 1 0 0 forward_v I I I I #
coedge $-1 $123 $124 $125 $126 reversed $45 $-1 #
coedge $-1 $127 $47 $128 $129 forward $29 $-1 #
coedge $-1 $47 $127 $130 $131 reversed $29 $-1 #
coedge $-1 $132 $122 $47 $77 forward $71 $-1 #
edge $-1 $133 27.742385851029933 $134 32.593007627789163 $76 $135 forward 7 unknown #
face $-1 $136 $137 $17 $-1 $138 forward single #
loop $-1 $-1 $84 $48 #
plane-surface $-1 -62.760704367198706 0 0 1 0 0 0 0 -1 forward_v I I I I #
coedge $-1 $139 $140 $141 $142 reversed $49 $-1 #
coedge $-1 $83 $51 $143 $144 reversed $32 $-1 #
coedge $-1 $51 $82 $139 $145 reversed $32 $-1 #
coedge $-1 $141 $146 $51 $85 forward $79 $-1 #
edge $-1 $147 40.602276261637485 $148 44.396331758781244 $84 $149 forward 7 unknown #
loop $-1 $-1 $91 $52 #
plane-surface $-1 -62.760704367198684 -15.438686790569403 7.3623133037680191 -0.64278761758704617 0 0.76604443648966558 0.76604443648966558 0 0.64278761758704617 forward_v I I I I #
loop $-1 $-1 $150 $34 #
coedge $-1 $89 $89 $90 $151 reversed $53 $-1 #
coedge $-1 $90 $90 $89 $151 forward $55 $-1 #
coedge $-1 $91 $91 $56 $92 forward $86 $-1 #
edge $-1 $152 0 $152 6.2831853071796004 $91 $153 forward 7 unknown #
loop $-1 $-1 $98 $57 #
plane-surface $-1 -62.760704367198684 -15.438686790569403 7.3623133037680191 -0.64278761758704617 0 0.76604443648966558 0.76604443648966558 0 0.64278761758704617 forward_v I I I I #
loop $-1 $-1 $154 $37 #
coedge $-1 $96 $96 $97 $155 reversed $58 $-1 #
coedge $-1 $97 $97 $96 $155 forward $60 $-1 #
coedge $-1 $98 $98 $61 $99 forward $93 $-1 #
edge $-1 $156 0 $156 6.2831853071796004 $98 $157 forward 7 unknown #
face $-1 $158 $159 $15 $-1 $160 reversed single #
loop $-1 $-1 $161 $62 #
plane-surface $-1 -62.760704367198706 0 0 1 0 0 0 0 -1 forward_v I I I I #
coedge $-1 $162 $111 $163 $164 forward $63 $-1 #
coedge $-1 $165 $65 $162 $166 forward $41 $-1 #
coedge $-1 $65 $165 $167 $168 forward $41 $-1 #
coedge $-1 $114 $113 $65 $107 reversed $115 $-1 #
edge $-1 $169 -31.510596877863989 $170 31.510596877863989 $106 $171 forward 7 unknown #
coedge $-1 $67 $66 $172 $173 forward $26 $-1 #
coedge $-1 $174 $175 $66 $110 reversed $159 $-1 #
edge $-1 $117 -62.760704367198706 $176 62.760704367198706 $109 $177 forward 7 unknown #
coedge $-1 $103 $178 $67 $112 reversed $63 $-1 #
edge $-1 $179 -62.760704367198706 $116 62.760704367198706 $111 $180 forward 7 unknown #
coedge $-1 $106 $68 $178 $181 forward $115 $-1 #
coedge $-1 $68 $106 $174 $182 reversed $115 $-1 #
loop $-1 $-1 $113 $158 #
vertex $-1 $69 $183 #
vertex $-1 $69 $184 #
straight-curve $-1 62.760704367198706 0 11.156368800911761 0 1 0 I I #
face $-1 $185 $186 $16 $-1 $187 reversed single #
loop $-1 $-1 $130 $70 #
plane-surface $-1 -62.760704367198706 0 0 1 0 0 0 0 -1 forward_v I I I I #
coedge $-1 $76 $188 $124 $189 forward $71 $-1 #
coedge $-1 $128 $73 $190 $191 reversed $45 $-1 #
coedge $-1 $73 $128 $122 $189 reversed $45 $-1 #
coedge $-1 $192 $193 $73 $126 forward $194 $-1 #
edge $-1 $195 -11.156368800911761 $196 11.156368800911761 $125 $197 forward 7 unknown #
coedge $-1 $75 $74 $198 $199 reversed $29 $-1 #
coedge $-1 $124 $123 $74 $129 reversed $45 $-1 #
edge $-1 $133 -11.156368800911761 $200 11.156368800911761 $128 $201 forward 7 unknown #
coedge $-1 $202 $203 $75 $131 forward $120 $-1 #
edge $-1 $134 -11.156368800911761 $204 11.156368800911761 $130 $205 forward 7 unknown #
coedge $-1 $188 $76 $203 $206 forward $71 $-1 #
vertex $-1 $77 $207 #
vertex $-1 $206 $208 #
straight-curve $-1 -30.167696739409546 -19.514240361606625 11.156368800911761 -1 0 0 I I #
face $-1 $-1 $209 $17 $-1 $210 forward single #
loop $-1 $-1 $211 $78 #
plane-surface $-1 -60.335393478819093 -19.514240361606625 0 0 -1 0 0 0 -1 forward_v I I I I #
coedge $-1 $212 $81 $83 $145 forward $49 $-1 #
coedge $-1 $81 $212 $211 $213 reversed $49 $-1 #
coedge $-1 $214 $84 $81 $142 forward $79 $-1 #
edge $-1 $148 3.6437898242474791 $215 11.794896966321923 $141 $216 forward 7 unknown #
coedge $-1 $217 $218 $82 $144 forward $209 $-1 #
edge $-1 $219 -13.483030629195817 $147 -8.9614514546772241 $143 $220 forward 7 unknown #
edge $-1 $148 -2.7747421096340558e-014 $219 5.9025024647895474 $83 $221 forward 7 unknown #
coedge $-1 $84 $214 $217 $222 reversed $79 $-1 #
vertex $-1 $222 $223 #
vertex $-1 $85 $224 #
straight-curve $-1 -62.760704367198706 -11.36313321953218 51.758645062549242 0 0 -1 I I #
coedge $-1 $150 $150 $-1 $225 reversed $88 $-1 #
edge $-1 $226 0 $226 6.2831853071796004 $89 $227 forward 7 unknown #
vertex $-1 $92 $228 #
ellipse-curve $-1 -60.499914779939417 -17.185352606728213 9.2593410523398774 -0.64278761758704617 0 0.76604443648966558 0.1915111091224164 0 0.16069690439676154 1 I I #
coedge $-1 $154 $154 $-1 $229 reversed $95 $-1 #
edge $-1 $230 0 $230 6.2831853071796004 $96 $231 forward 7 unknown #
vertex $-1 $99 $232 #
ellipse-curve $-1 -60.499914779939417 -13.692020974410596 9.2593410523398774 -0.64278761758704617 0 0.76604443648966558 0.1915111091224164 0 0.16069690439676154 1 I I #
face $-1 $-1 $115 $15 $-1 $233 reversed single #
loop $-1 $-1 $174 $100 #
plane-surface $-1 0 31.510596877863989 0 0 -1 0 0 0 -1 forward_v I I I I #
coedge $-1 $234 $172 $175 $235 forward $101 $-1 #
coedge $-1 $178 $103 $104 $166 reversed $63 $-1 #
coedge $-1 $172 $234 $103 $164 reversed $101 $-1 #
edge $-1 $179 -11.156368800911761 $236 11.156368800911761 $163 $237 forward 7 unknown #
coedge $-1 $105 $104 $234 $238 forward $41 $-1 #
edge $-1 $170 -62.760704367198706 $236 62.760704367198706 $162 $239 forward 7 unknown #
coedge $-1 $175 $174 $105 $168 reversed $159 $-1 #
edge $-1 $240 -62.760704367198706 $169 62.760704367198706 $167 $241 forward 7 unknown #
vertex $-1 $107 $242 #
vertex $-1 $181 $243 #
straight-curve $-1 62.760704367198706 0 -11.156368800911761 0 -1 0 I I #
coedge $-1 $161 $163 $108 $173 reversed $101 $-1 #
edge $-1 $176 -31.510596877863989 $179 31.510596877863989 $172 $244 forward 7 unknown #
coedge $-1 $167 $109 $114 $182 forward $159 $-1 #
coedge $-1 $109 $167 $161 $235 reversed $159 $-1 #
vertex $-1 $110 $245 #
straight-curve $-1 0 31.510596877863989 11.156368800911761 -1 0 0 I I #
coedge $-1 $111 $162 $113 $181 reversed $63 $-1 #
vertex $-1 $173 $246 #
straight-curve $-1 0 -31.510596877863989 11.156368800911761 1 0 0 I I #
edge $-1 $116 -11.156368800911761 $170 11.156368800911761 $113 $247 forward 7 unknown #
edge $-1 $117 -11.156368800911761 $169 11.156368800911761 $114 $248 forward 7 unknown #
point $-1 62.760704367198706 -31.510596877863989 11.156368800911761 #
point $-1 62.760704367198706 31.510596877863989 11.156368800911761 #
face $-1 $-1 $194 $16 $-1 $249 reversed single #
loop $-1 $-1 $190 $119 #
plane-surface $-1 0 0 -11.156368800911761 0 0 1 1 0 0 forward_v I I I I #
coedge $-1 $122 $132 $192 $250 forward $71 $-1 #
edge $-1 $196 -18.754387567996336 $133 -6.7580310517389712 $122 $251 forward 7 unknown #
coedge $-1 $252 $198 $123 $191 forward $186 $-1 #
edge $-1 $200 6.7580310517389712 $195 18.754387567996336 $190 $253 forward 7 unknown #
coedge $-1 $254 $125 $188 $250 reversed $194 $-1 #
coedge $-1 $125 $254 $252 $255 reversed $194 $-1 #
loop $-1 $-1 $125 $185 #
vertex $-1 $255 $256 #
vertex $-1 $126 $257 #
straight-curve $-1 -57.91008259043948 -31.510596877863989 0 0 0 1 I I #
coedge $-1 $190 $258 $127 $199 forward $186 $-1 #
edge $-1 $204 -32.593007627789163 $200 -27.742385851029933 $198 $259 forward 7 unknown #
vertex $-1 $199 $260 #
straight-curve $-1 -57.91008259043948 -19.514240361606625 0 0 0 -1 I I #
coedge $-1 $261 $130 $258 $262 reversed $120 $-1 #
coedge $-1 $130 $261 $132 $206 reversed $120 $-1 #
vertex $-1 $199 $263 #
straight-curve $-1 -62.760704367198706 -19.514240361606625 0 0 0 -1 I I #
edge $-1 $134 19.514240361606625 $264 31.510596877863989 $203 $265 forward 7 unknown #
point $-1 -57.91008259043948 -19.514240361606625 11.156368800911761 #
point $-1 -62.760704367198706 -19.514240361606625 11.156368800911761 #
loop $-1 $-1 $143 $136 #
plane-surface $-1 0 0 11.156368800911761 0 0 1 1 0 0 forward_v I I I I #
coedge $-1 $266 $267 $140 $213 forward $137 $-1 #
coedge $-1 $140 $139 $218 $268 reversed $49 $-1 #
edge $-1 $215 1.4372539578287089 $269 7.3397564226182883 $211 $270 forward 7 unknown #
coedge $-1 $146 $141 $267 $271 forward $79 $-1 #
vertex $-1 $271 $272 #
straight-curve $-1 -62.760704367198706 -7.7193433952847013 7.3623133037680084 0 -1 0 I I #
coedge $-1 $273 $143 $146 $222 forward $209 $-1 #
coedge $-1 $143 $273 $212 $268 forward $209 $-1 #
vertex $-1 $144 $274 #
straight-curve $-1 -71.72215582187593 -11.36313321953218 11.156368800911757 -1 0 0 I I #
straight-curve $-1 -62.760704367198684 -11.36313321953218 7.3623133037680191 0.76604443648966558 0 0.64278761758704617 I I #
edge $-1 $147 11.36313321953218 $275 19.514240361606625 $146 $276 forward 7 unknown #
point $-1 -62.760704367198706 -11.36313321953218 11.156368800911761 #
point $-1 -62.760704367198706 -11.36313321953218 7.3623133037680013 #
edge $-1 $277 1 $277 0 $150 $-1 forward 7 unknown #
vertex $-1 $151 $278 #
ellipse-curve $-1 -59.857127162352384 -17.185352606728213 8.4932966158502303 -0.64278761758704617 0 0.76604443648966558 0.1915111091224164 0 0.16069690439676154 1 I I #
point $-1 -60.308403670817015 -17.185352606728213 9.4200379567366568 #
edge $-1 $279 1 $279 0 $154 $-1 forward 7 unknown #
vertex $-1 $155 $280 #
ellipse-curve $-1 -59.857127162352384 -13.692020974410596 8.4932966158502303 -0.64278761758704617 0 0.76604443648966558 0.1915111091224164 0 0.16069690439676154 1 I I #
point $-1 -60.308403670817015 -13.692020974410596 9.4200379567366568 #
plane-surface $-1 62.760704367198706 0 0 -1 0 0 0 0 1 forward_v I I I I #
coedge $-1 $163 $161 $165 $238 reversed $101 $-1 #
edge $-1 $176 -11.156368800911761 $240 11.156368800911761 $175 $281 forward 7 unknown #
vertex $-1 $238 $282 #
straight-curve $-1 -62.760704367198706 -31.510596877863989 0 0 0 -1 I I #
edge $-1 $236 -31.510596877863989 $240 31.510596877863989 $234 $283 forward 7 unknown #
straight-curve $-1 0 -31.510596877863989 -11.156368800911761 -1 0 0 I I #
vertex $-1 $168 $284 #
straight-curve $-1 0 31.510596877863989 -11.156368800911761 1 0 0 I I #
point $-1 62.760704367198706 31.510596877863989 -11.156368800911761 #
point $-1 62.760704367198706 -31.510596877863989 -11.156368800911761 #
straight-curve $-1 -62.760704367198706 0 11.156368800911761 0 -1 0 I I #
point $-1 -62.760704367198706 31.510596877863989 11.156368800911761 #
point $-1 -62.760704367198706 -31.510596877863989 11.156368800911761 #
straight-curve $-1 62.760704367198706 -31.510596877863989 0 0 0 -1 I I #
straight-curve $-1 62.760704367198706 31.510596877863989 0 0 0 -1 I I #
plane-surface $-1 0 -31.510596877863989 0 0 1 0 0 0 1 forward_v I I I I #
edge $-1 $264 -62.760704367198706 $196 -57.91008259043948 $192 $285 forward 7 unknown #
straight-curve $-1 -57.91008259043948 -12.756209309867653 11.156368800911761 0 1 0 I I #
coedge $-1 $258 $190 $193 $255 forward $186 $-1 #
straight-curve $-1 -57.91008259043948 -12.756209309867653 -11.156368800911761 0 -1 0 I I #
coedge $-1 $193 $192 $261 $286 forward $194 $-1 #
edge $-1 $195 57.91008259043948 $287 62.760704367198706 $193 $288 forward 7 unknown #
point $-1 -57.91008259043948 -31.510596877863989 -11.156368800911761 #
point $-1 -57.91008259043948 -31.510596877863989 11.156368800911761 #
coedge $-1 $198 $252 $202 $262 forward $186 $-1 #
straight-curve $-1 -30.167696739409546 -19.514240361606625 -11.156368800911761 1 0 0 I I #
point $-1 -57.91008259043948 -19.514240361606625 -11.156368800911761 #
coedge $-1 $203 $202 $254 $286 reversed $120 $-1 #
edge $-1 $287 -31.510596877863989 $204 -19.514240361606625 $202 $289 forward 7 unknown #
point $-1 -62.760704367198706 -19.514240361606625 -11.156368800911761 #
vertex $-1 $206 $290 #
straight-curve $-1 -62.760704367198706 0 11.156368800911761 0 -1 0 I I #
coedge $-1 $267 $211 $273 $291 reversed $137 $-1 #
coedge $-1 $211 $266 $214 $271 reversed $137 $-1 #
edge $-1 $269 -11.794896966321923 $219 -3.6437898242474791 $218 $292 forward 7 unknown #
vertex $-1 $213 $293 #
straight-curve $-1 -63.861704765416142 -19.514240361606625 6.4384642563477357 0.76604443648966558 0 0.64278761758704617 I I #
edge $-1 $215 7.3623133037680022 $275 11.156368800911761 $214 $294 forward 7 unknown #
point $-1 -62.760704367198706 -19.514240361606625 7.3623133037680022 #
coedge $-1 $218 $217 $266 $291 forward $209 $-1 #
point $-1 -58.239125192680113 -11.36313321953218 11.156368800911761 #
vertex $-1 $271 $295 #
straight-curve $-1 -62.760704367198706 0 11.156368800911761 0 -1 0 I I #
vertex $-1 $225 $296 #
point $-1 -59.665616053229968 -17.185352606728213 8.653993520246992 #
vertex $-1 $229 $297 #
point $-1 -59.665616053229968 -13.692020974410596 8.653993520246992 #
straight-curve $-1 -62.760704367198706 31.510596877863989 0 0 0 -1 I I #
point $-1 -62.760704367198706 -31.510596877863989 -11.156368800911761 #
straight-curve $-1 -62.760704367198706 0 -11.156368800911761 0 1 0 I I #
point $-1 -62.760704367198706 31.510596877863989 -11.156368800911761 #
straight-curve $-1 0 -31.510596877863989 11.156368800911761 1 0 0 I I #
edge $-1 $264 -11.156368800911761 $287 11.156368800911761 $261 $298 forward 7 unknown #
vertex $-1 $262 $299 #
straight-curve $-1 0 -31.510596877863989 -11.156368800911761 -1 0 0 I I #
straight-curve $-1 -62.760704367198706 0 -11.156368800911761 0 1 0 I I #
point $-1 -62.760704367198706 -31.510596877863989 11.156368800911761 #
edge $-1 $275 -32.593007627789163 $269 -28.07142845327056 $273 $300 forward 7 unknown #
straight-curve $-1 -58.239125192680113 -7.7193433952847013 11.156368800911762 0 1 0 I I #
point $-1 -58.239125192680106 -19.514240361606625 11.156368800911761 #
straight-curve $-1 -62.760704367198706 -19.514240361606625 0 0 0 1 I I #
point $-1 -62.760704367198706 -19.514240361606625 11.156368800911761 #
point $-1 -59.696430257955626 -17.185352606728213 8.3017855067278141 #
point $-1 -59.696430257955626 -13.692020974410596 8.3017855067278141 #
straight-curve $-1 -62.760704367198706 -31.510596877863989 0 0 0 -1 I I #
point $-1 -62.760704367198706 -31.510596877863989 -11.156368800911761 #
straight-curve $-1 -30.167696739409546 -19.514240361606625 11.156368800911761 1 0 0 I I #
End-of-ACIS-data 