500 0 12 0           
7 Unknown 11 ACIS 5.0 NT 24 Thu Mar 25 18:03:26 1999 
-1 9.9999999999999995e-007 1e-010 
body $-1 $12 $-1 $13 #
body $-1 $14 $-1 $15 #
body $-1 $16 $-1 $17 #
body $-1 $18 $-1 $19 #
body $-1 $20 $-1 $21 #
body $-1 $22 $-1 $23 #
body $-1 $24 $-1 $25 #
body $-1 $26 $-1 $27 #
body $-1 $28 $-1 $29 #
body $-1 $30 $-1 $31 #
body $-1 $32 $-1 $33 #
body $-1 $34 $-1 $35 #
lump $-1 $-1 $36 $0 #
transform $-1 1 0 0 0 1 0 0 0 1 56.091799676503797 27.254345891585576 10.473380919756684 1 rotate no_reflect no_shear #
lump $-1 $-1 $37 $1 #
transform $-1 1 0 0 0 1 0 0 0 1 56.091799676503797 27.254345891585576 10.473380919756684 1 rotate no_reflect no_shear #
lump $-1 $-1 $38 $2 #
transform $-1 1 0 0 0 1 0 0 0 1 56.091799676503797 27.254345891585576 10.473380919756684 1 rotate no_reflect no_shear #
lump $-1 $-1 $39 $3 #
transform $-1 1 0 0 0 1 0 0 0 1 56.091799676503797 27.254345891585576 10.473380919756684 1 rotate no_reflect no_shear #
lump $-1 $-1 $40 $4 #
transform $-1 1 0 0 0 1 0 0 0 1 56.091799676503797 27.254345891585576 10.473380919756684 1 rotate no_reflect no_shear #
lump $-1 $-1 $41 $5 #
transform $-1 1 0 0 0 1 0 0 0 1 56.091799676503797 27.254345891585576 10.473380919756684 1 rotate no_reflect no_shear #
lump $-1 $-1 $42 $6 #
transform $-1 1 0 0 0 1 0 0 0 1 56.091799676503797 27.254345891585576 10.473380919756684 1 rotate no_reflect no_shear #
lump $-1 $-1 $43 $7 #
transform $-1 1 0 0 0 1 0 0 0 1 56.091799676503797 27.254345891585576 10.473380919756684 1 rotate no_reflect no_shear #
lump $-1 $-1 $44 $8 #
transform $-1 1 0 0 0 1 0 0 0 1 56.091799676503797 27.254345891585576 10.473380919756684 1 rotate no_reflect no_shear #
lump $-1 $-1 $45 $9 #
transform $-1 1 0 0 0 1 0 0 0 1 56.091799676503797 27.254345891585576 10.473380919756684 1 rotate no_reflect no_shear #
lump $-1 $-1 $46 $10 #
transform $-1 1 0 0 0 1 0 0 0 1 56.091799676503797 27.254345891585576 10.473380919756684 1 rotate no_reflect no_shear #
lump $-1 $-1 $47 $11 #
transform $-1 1 0 0 0 1 0 0 0 1 56.091799676503797 27.254345891585576 10.473380919756684 1 rotate no_reflect no_shear #
shell $-1 $-1 $-1 $48 $-1 $12 #
shell $-1 $-1 $-1 $49 $-1 $14 #
shell $-1 $-1 $-1 $50 $-1 $16 #
shell $-1 $-1 $-1 $51 $-1 $18 #
shell $-1 $-1 $-1 $52 $-1 $20 #
shell $-1 $-1 $-1 $53 $-1 $22 #
shell $-1 $-1 $-1 $54 $-1 $24 #
shell $-1 $-1 $-1 $55 $-1 $26 #
shell $-1 $-1 $-1 $56 $-1 $28 #
shell $-1 $-1 $-1 $57 $-1 $30 #
shell $-1 $-1 $-1 $58 $-1 $32 #
shell $-1 $-1 $-1 $59 $-1 $34 #
face $-1 $60 $61 $36 $-1 $62 reversed single #
face $-1 $63 $64 $37 $-1 $65 forward single #
face $-1 $66 $67 $38 $-1 $68 reversed single #
face $-1 $69 $70 $39 $-1 $71 forward single #
face $-1 $72 $73 $40 $-1 $74 forward single #
face $-1 $75 $76 $41 $-1 $77 forward single #
face $-1 $78 $79 $42 $-1 $80 reversed single #
face $-1 $81 $82 $43 $-1 $83 forward single #
face $-1 $84 $85 $44 $-1 $86 forward single #
face $-1 $87 $88 $45 $-1 $89 reversed single #
face $-1 $90 $91 $46 $-1 $92 forward single #
face $-1 $93 $94 $47 $-1 $95 forward single #
face $-1 $96 $97 $36 $-1 $98 forward single #
loop $-1 $-1 $99 $48 #
plane-surface $-1 -56.091799676503797 0 0 1 0 0 0 0 -1 forward_v I I I I #
face $-1 $100 $101 $37 $-1 $102 reversed single #
loop $-1 $-1 $103 $49 #
plane-surface $-1 -56.091799676503797 0 0 1 0 0 0 0 -1 forward_v I I I I #
face $-1 $104 $105 $38 $-1 $106 reversed single #
loop $-1 $-1 $107 $50 #
plane-surface $-1 -0.99490920990646359 38.310103731242592 126.7954631272341 1 0 0 0 -0.51503808176128008 -0.85716729658548041 forward_v I I I I #
face $-1 $108 $109 $39 $-1 $110 forward single #
loop $-1 $111 $112 $51 #
cone-surface $-1 2.9169051538414905 20.28906438777117 5.8827110064425678 0 -0.51503808176128008 -0.85716729658548041 1 0 0 1 I I 0 1 1 forward I I I I #
face $-1 $113 $114 $40 $-1 $115 forward single #
loop $-1 $116 $117 $52 #
cone-surface $-1 8.7846266994634163 20.28906438777117 5.8827110064425678 0 -0.51503808176128008 -0.85716729658548041 1 0 0 1 I I 0 1 1 forward I I I I #
face $-1 $118 $119 $41 $-1 $120 forward single #
loop $-1 $121 $122 $53 #
cone-surface $-1 14.652348245085349 20.28906438777117 5.8827110064425678 0 -0.51503808176128008 -0.85716729658548041 1 0 0 1 I I 0 1 1 forward I I I I #
face $-1 $123 $124 $42 $-1 $125 reversed single #
loop $-1 $-1 $126 $54 #
plane-surface $-1 -8.5533380199852935 -118.01278517640388 68.920823139824449 -1 0 0 0 -0.80901700255871778 0.5877852410284794 forward_v I I I I #
face $-1 $127 $128 $43 $-1 $129 forward single #
loop $-1 $130 $131 $55 #
cone-surface $-1 -16.966131414180921 -23.028413034100847 5.6343400997383659 0 0.80901700255871778 -0.5877852410284794 1 0 0 1 I I 0 1 1 forward I I I I #
face $-1 $132 $133 $44 $-1 $134 forward single #
loop $-1 $135 $136 $56 #
cone-surface $-1 -11.918455377663541 -23.028413034100847 5.6343400997383659 0 0.80901700255871778 -0.5877852410284794 1 0 0 1 I I 0 1 1 forward I I I I #
face $-1 $137 $138 $45 $-1 $139 reversed single #
loop $-1 $-1 $140 $57 #
plane-surface $-1 27.887943172675786 -118.01278517640388 68.920823139824449 -1 0 0 0 -0.80901700255871778 0.5877852410284794 forward_v I I I I #
face $-1 $141 $142 $46 $-1 $143 forward single #
loop $-1 $144 $145 $58 #
cone-surface $-1 19.475149778480159 -23.028413034100847 5.6343400997383659 0 0.80901700255871778 -0.5877852410284794 1 0 0 1 I I 0 1 1 forward I I I I #
face $-1 $146 $147 $47 $-1 $148 forward single #
loop $-1 $149 $150 $59 #
cone-surface $-1 24.522825814997546 -23.028413034100847 5.6343400997383659 0 0.80901700255871778 -0.5877852410284794 1 0 0 1 I I 0 1 1 forward I I I I #
face $-1 $151 $152 $36 $-1 $153 reversed single #
loop $-1 $-1 $154 $60 #
plane-surface $-1 0 0 10.473380919756684 0 0 1 1 0 0 forward_v I I I I #
coedge $-1 $155 $156 $157 $158 reversed $61 $-1 #
face $-1 $159 $160 $37 $-1 $161 reversed single #
loop $-1 $-1 $162 $63 #
plane-surface $-1 0 0 -10.473380919756684 0 0 1 1 0 0 forward_v I I I I #
coedge $-1 $163 $164 $165 $166 forward $64 $-1 #
face $-1 $167 $168 $38 $-1 $169 reversed single #
loop $-1 $-1 $170 $66 #
plane-surface $-1 8.7846266994634163 -19.468722084606419 30.635350548587937 0 0.51503808176128008 0.85716729658548041 1 0 0 forward_v I I I I #
coedge $-1 $171 $172 $173 $174 reversed $67 $-1 #
face $-1 $-1 $175 $39 $-1 $176 forward single #
loop $-1 $177 $178 $69 #
cone-surface $-1 2.9169051538414905 19.650221946410515 4.8194986580807413 0 -0.51503808176128008 -0.85716729658548041 0.5 0 0 1 I I -0.70710678118654746 0.70710678118654746 0.5 forward I I I I #
loop $-1 $-1 $179 $51 #
coedge $-1 $112 $112 $180 $181 reversed $70 $-1 #
face $-1 $-1 $182 $40 $-1 $183 forward single #
loop $-1 $184 $185 $72 #
cone-surface $-1 8.7846266994634163 19.650221946410515 4.8194986580807413 0 -0.51503808176128008 -0.85716729658548041 0.5 0 0 1 I I -0.70710678118654746 0.70710678118654746 0.5 forward I I I I #
loop $-1 $-1 $186 $52 #
coedge $-1 $117 $117 $187 $188 reversed $73 $-1 #
face $-1 $-1 $189 $41 $-1 $190 forward single #
loop $-1 $191 $192 $75 #
cone-surface $-1 14.652348245085349 19.650221946410515 4.8194986580807413 0 -0.51503808176128008 -0.85716729658548041 0.5 0 0 1 I I -0.70710678118654746 0.70710678118654746 0.5 forward I I I I #
loop $-1 $-1 $193 $53 #
coedge $-1 $122 $122 $194 $195 reversed $76 $-1 #
face $-1 $196 $197 $42 $-1 $198 reversed single #
loop $-1 $-1 $199 $78 #
plane-surface $-1 -14.442293395922235 -27.254345891585572 2.9809591546745082 0 -0.80901700255871778 0.5877852410284794 1 0 0 forward_v I I I I #
coedge $-1 $200 $201 $202 $203 reversed $79 $-1 #
face $-1 $-1 $204 $43 $-1 $205 forward single #
loop $-1 $206 $207 $81 #
cone-surface $-1 -16.966131414180921 -21.119753120687911 4.2476175417468927 0 0.80901700255871778 -0.5877852410284794 0.5 0 0 1 I I -0.70710678118654746 0.70710678118654746 0.5 forward I I I I #
loop $-1 $-1 $208 $55 #
coedge $-1 $131 $131 $209 $210 reversed $82 $-1 #
face $-1 $-1 $211 $44 $-1 $212 forward single #
loop $-1 $213 $214 $84 #
cone-surface $-1 -11.918455377663541 -21.119753120687911 4.2476175417468927 0 0.80901700255871778 -0.5877852410284794 0.5 0 0 1 I I -0.70710678118654746 0.70710678118654746 0.5 forward I I I I #
loop $-1 $-1 $215 $56 #
coedge $-1 $136 $136 $216 $217 reversed $85 $-1 #
face $-1 $218 $219 $45 $-1 $220 reversed single #
loop $-1 $-1 $221 $87 #
plane-surface $-1 21.998987796738845 -27.254345891585572 2.9809591546745082 0 -0.80901700255871778 0.5877852410284794 1 0 0 forward_v I I I I #
coedge $-1 $222 $223 $224 $225 reversed $88 $-1 #
face $-1 $-1 $226 $46 $-1 $227 forward single #
loop $-1 $228 $229 $90 #
cone-surface $-1 19.475149778480159 -21.119753120687911 4.2476175417468927 0 0.80901700255871778 -0.5877852410284794 0.5 0 0 1 I I -0.70710678118654746 0.70710678118654746 0.5 forward I I I I #
loop $-1 $-1 $230 $58 #
coedge $-1 $145 $145 $231 $232 reversed $91 $-1 #
face $-1 $-1 $233 $47 $-1 $234 forward single #
loop $-1 $235 $236 $93 #
cone-surface $-1 24.522825814997546 -21.119753120687911 4.2476175417468927 0 0.80901700255871778 -0.5877852410284794 0.5 0 0 1 I I -0.70710678118654746 0.70710678118654746 0.5 forward I I I I #
loop $-1 $-1 $237 $59 #
coedge $-1 $150 $150 $238 $239 reversed $94 $-1 #
face $-1 $240 $241 $36 $-1 $242 reversed single #
loop $-1 $-1 $243 $96 #
plane-surface $-1 0 0 -10.473380919756684 0 0 1 1 0 0 forward_v I I I I #
coedge $-1 $244 $245 $246 $247 forward $97 $-1 #
coedge $-1 $248 $99 $249 $250 reversed $61 $-1 #
coedge $-1 $99 $248 $251 $252 forward $61 $-1 #
coedge $-1 $253 $254 $99 $158 forward $152 $-1 #
edge $-1 $255 -27.254345891585576 $256 27.254345891585576 $99 $257 forward 7 unknown #
face $-1 $258 $259 $37 $-1 $260 reversed single #
loop $-1 $-1 $261 $100 #
plane-surface $-1 -59.870146876912116 -10.248710228310003 0 0 1 0 0 0 1 forward_v I I I I #
coedge $-1 $262 $263 $164 $264 forward $101 $-1 #
coedge $-1 $265 $103 $266 $267 reversed $64 $-1 #
coedge $-1 $103 $265 $162 $264 reversed $64 $-1 #
coedge $-1 $268 $269 $103 $166 reversed $270 $-1 #
edge $-1 $271 -10.473380919756684 $272 10.473380919756684 $165 $273 forward 7 unknown #
face $-1 $274 $275 $38 $-1 $276 forward single #
loop $-1 $-1 $277 $104 #
plane-surface $-1 18.564162608833296 38.310103731242592 126.7954631272341 -1 0 0 0 0.51503808176128008 0.85716729658548041 forward_v I I I I #
coedge $-1 $278 $279 $280 $281 reversed $105 $-1 #
coedge $-1 $172 $107 $282 $283 reversed $67 $-1 #
coedge $-1 $107 $171 $278 $284 reversed $67 $-1 #
coedge $-1 $280 $285 $107 $174 forward $275 $-1 #
edge $-1 $286 -8.0992940259642801 $287 5.06862218070453 $173 $288 forward 7 unknown #
loop $-1 $-1 $180 $108 #
plane-surface $-1 8.7846266994634163 -19.468722084606419 30.635350548587937 0 0.51503808176128008 0.85716729658548041 1 0 0 forward_v I I I I #
loop $-1 $-1 $289 $69 #
coedge $-1 $178 $178 $179 $290 reversed $109 $-1 #
coedge $-1 $179 $179 $178 $290 forward $111 $-1 #
coedge $-1 $180 $180 $112 $181 forward $175 $-1 #
edge $-1 $291 -1.5684998720914107e-016 $291 6.2831853071796004 $180 $292 forward 7 unknown #
loop $-1 $-1 $187 $113 #
plane-surface $-1 8.7846266994634163 -19.468722084606419 30.635350548587937 0 0.51503808176128008 0.85716729658548041 1 0 0 forward_v I I I I #
loop $-1 $-1 $293 $72 #
coedge $-1 $185 $185 $186 $294 reversed $114 $-1 #
coedge $-1 $186 $186 $185 $294 forward $116 $-1 #
coedge $-1 $187 $187 $117 $188 forward $182 $-1 #
edge $-1 $295 -1.5684998720914107e-016 $295 6.2831853071796004 $187 $296 forward 7 unknown #
loop $-1 $-1 $194 $118 #
plane-surface $-1 8.7846266994634163 -19.468722084606419 30.635350548587937 0 0.51503808176128008 0.85716729658548041 1 0 0 forward_v I I I I #
loop $-1 $-1 $297 $75 #
coedge $-1 $192 $192 $193 $298 reversed $119 $-1 #
coedge $-1 $193 $193 $192 $298 forward $121 $-1 #
coedge $-1 $194 $194 $122 $195 forward $189 $-1 #
edge $-1 $299 -1.5684998720914107e-016 $299 6.2831853071796004 $194 $300 forward 7 unknown #
face $-1 $301 $302 $42 $-1 $303 forward single #
loop $-1 $-1 $304 $123 #
plane-surface $-1 -20.331248771859176 -118.01278517640388 68.920823139824449 1 0 0 0 0.80901700255871778 -0.5877852410284794 forward_v I I I I #
coedge $-1 $305 $306 $307 $308 reversed $124 $-1 #
coedge $-1 $201 $126 $309 $310 reversed $79 $-1 #
coedge $-1 $126 $200 $305 $311 reversed $79 $-1 #
coedge $-1 $307 $312 $126 $203 forward $302 $-1 #
edge $-1 $313 31.752046696616365 $314 37.195609587318678 $202 $315 forward 7 unknown #
loop $-1 $-1 $209 $127 #
plane-surface $-1 -14.442293395922235 -27.254345891585572 2.9809591546745082 0 -0.80901700255871778 0.5877852410284794 1 0 0 forward_v I I I I #
loop $-1 $-1 $316 $81 #
coedge $-1 $207 $207 $208 $317 reversed $128 $-1 #
coedge $-1 $208 $208 $207 $317 forward $130 $-1 #
coedge $-1 $209 $209 $131 $210 forward $204 $-1 #
edge $-1 $318 -1.30225956062532e-015 $318 6.2831853071795996 $209 $319 forward 7 unknown #
loop $-1 $-1 $216 $132 #
plane-surface $-1 -14.442293395922235 -27.254345891585572 2.9809591546745082 0 -0.80901700255871778 0.5877852410284794 1 0 0 forward_v I I I I #
loop $-1 $-1 $320 $84 #
coedge $-1 $214 $214 $215 $321 reversed $133 $-1 #
coedge $-1 $215 $215 $214 $321 forward $135 $-1 #
coedge $-1 $216 $216 $136 $217 forward $211 $-1 #
edge $-1 $322 -1.30225956062532e-015 $322 6.2831853071795996 $216 $323 forward 7 unknown #
face $-1 $324 $325 $45 $-1 $326 reversed single #
loop $-1 $-1 $327 $137 #
plane-surface $-1 16.110032420801904 -118.01278517640388 68.920823139824449 1 0 0 0 0.80901700255871778 -0.5877852410284794 forward_v I I I I #
coedge $-1 $328 $329 $330 $331 reversed $138 $-1 #
coedge $-1 $223 $140 $332 $333 reversed $88 $-1 #
coedge $-1 $140 $222 $328 $334 reversed $88 $-1 #
coedge $-1 $330 $335 $140 $225 forward $336 $-1 #
edge $-1 $337 31.752046696616365 $338 37.195609587318678 $224 $339 forward 7 unknown #
loop $-1 $-1 $231 $141 #
plane-surface $-1 21.998987796738845 -27.254345891585572 2.9809591546745082 0 -0.80901700255871778 0.5877852410284794 1 0 0 forward_v I I I I #
loop $-1 $-1 $340 $90 #
coedge $-1 $229 $229 $230 $341 reversed $142 $-1 #
coedge $-1 $230 $230 $229 $341 forward $144 $-1 #
coedge $-1 $231 $231 $145 $232 forward $226 $-1 #
edge $-1 $342 -1.30225956062532e-015 $342 6.2831853071795996 $231 $343 forward 7 unknown #
loop $-1 $-1 $238 $146 #
plane-surface $-1 21.998987796738845 -27.254345891585572 2.9809591546745082 0 -0.80901700255871778 0.5877852410284794 1 0 0 forward_v I I I I #
loop $-1 $-1 $344 $93 #
coedge $-1 $236 $236 $237 $345 reversed $147 $-1 #
coedge $-1 $237 $237 $236 $345 forward $149 $-1 #
coedge $-1 $238 $238 $150 $239 forward $233 $-1 #
edge $-1 $346 -1.30225956062532e-015 $346 6.2831853071795996 $238 $347 forward 7 unknown #
face $-1 $348 $349 $36 $-1 $350 reversed single #
loop $-1 $-1 $249 $151 #
plane-surface $-1 0 -27.254345891585576 0 0 1 0 0 0 1 forward_v I I I I #
coedge $-1 $254 $253 $351 $352 forward $152 $-1 #
coedge $-1 $353 $154 $354 $355 forward $97 $-1 #
coedge $-1 $154 $353 $356 $357 forward $97 $-1 #
coedge $-1 $358 $359 $154 $247 reversed $360 $-1 #
edge $-1 $361 -27.254345891585576 $362 27.254345891585576 $246 $363 forward 7 unknown #
coedge $-1 $156 $155 $353 $364 reversed $61 $-1 #
coedge $-1 $365 $356 $155 $250 forward $241 $-1 #
edge $-1 $366 -10.473380919756684 $255 10.473380919756684 $155 $367 forward 7 unknown #
coedge $-1 $354 $368 $156 $252 reversed $349 $-1 #
edge $-1 $369 -10.473380919756684 $256 10.473380919756684 $251 $370 forward 7 unknown #
coedge $-1 $243 $157 $368 $371 forward $152 $-1 #
coedge $-1 $157 $243 $365 $372 forward $152 $-1 #
vertex $-1 $158 $373 #
vertex $-1 $371 $374 #
straight-curve $-1 -56.091799676503797 0 -10.473380919756684 0 1 0 I I #
face $-1 $375 $270 $37 $-1 $376 reversed single #
loop $-1 $-1 $377 $159 #
plane-surface $-1 -63.648494077320436 -8.2781471401911055 0 1 0 0 0 0 -1 forward_v I I I I #
coedge $-1 $378 $379 $380 $381 forward $160 $-1 #
coedge $-1 $382 $162 $378 $383 forward $101 $-1 #
coedge $-1 $162 $382 $268 $384 forward $101 $-1 #
edge $-1 $271 6.3075840520722082 $385 10.248710228310003 $162 $386 forward 7 unknown #
coedge $-1 $164 $163 $387 $388 forward $64 $-1 #
coedge $-1 $389 $390 $163 $267 forward $391 $-1 #
edge $-1 $392 -10.248710228310003 $272 -6.3075840520722082 $266 $393 forward 7 unknown #
coedge $-1 $394 $165 $263 $384 reversed $270 $-1 #
coedge $-1 $165 $394 $389 $395 reversed $270 $-1 #
loop $-1 $-1 $165 $258 #
vertex $-1 $264 $396 #
vertex $-1 $395 $397 #
straight-curve $-1 -56.091799676503797 -6.3075840520722082 0 0 0 1 I I #
face $-1 $-1 $398 $38 $-1 $399 reversed single #
loop $-1 $-1 $173 $167 #
plane-surface $-1 0 0 10.473380919756684 0 0 1 1 0 0 forward_v I I I I #
coedge $-1 $400 $401 $402 $403 reversed $168 $-1 #
coedge $-1 $404 $170 $172 $284 forward $105 $-1 #
coedge $-1 $170 $404 $400 $405 forward $105 $-1 #
coedge $-1 $402 $173 $170 $281 forward $275 $-1 #
edge $-1 $287 -5.3872225596381718 $406 14.171849259101588 $280 $407 forward 7 unknown #
coedge $-1 $408 $409 $171 $283 forward $398 $-1 #
edge $-1 $410 -60.836433070350424 $286 -52.924350643860365 $282 $411 forward 7 unknown #
edge $-1 $287 39.146560890960124 $410 54.508691783171145 $172 $412 forward 7 unknown #
coedge $-1 $173 $402 $408 $413 forward $275 $-1 #
vertex $-1 $283 $414 #
vertex $-1 $174 $415 #
straight-curve $-1 -0.99490920990646359 19.155051865621296 10.473380919756686 0 -1 0 I I #
coedge $-1 $289 $289 $-1 $416 reversed $177 $-1 #
edge $-1 $417 0 $417 6.2831853071796004 $178 $418 forward 7 unknown #
vertex $-1 $181 $419 #
ellipse-curve $-1 2.9169051538414905 20.67038778825118 6.5173397065116481 0 0.51503808176128008 0.85716729658548041 1 0 0 1 I I #
coedge $-1 $293 $293 $-1 $420 reversed $184 $-1 #
edge $-1 $421 0 $421 6.2831853071796004 $185 $422 forward 7 unknown #
vertex $-1 $188 $423 #
ellipse-curve $-1 8.7846266994634163 20.67038778825118 6.5173397065116481 0 0.51503808176128008 0.85716729658548041 1 0 0 1 I I #
coedge $-1 $297 $297 $-1 $424 reversed $191 $-1 #
edge $-1 $425 0 $425 6.2831853071796004 $192 $426 forward 7 unknown #
vertex $-1 $195 $427 #
ellipse-curve $-1 14.652348245085349 20.67038778825118 6.5173397065116481 0 0.51503808176128008 0.85716729658548041 1 0 0 1 I I #
face $-1 $-1 $428 $42 $-1 $429 reversed single #
loop $-1 $-1 $202 $196 #
plane-surface $-1 0 0 10.473380919756684 0 0 1 1 0 0 forward_v I I I I #
coedge $-1 $430 $431 $432 $433 reversed $197 $-1 #
coedge $-1 $434 $199 $201 $311 forward $124 $-1 #
coedge $-1 $199 $434 $430 $435 forward $124 $-1 #
coedge $-1 $432 $202 $199 $308 forward $302 $-1 #
edge $-1 $314 1.3321913220241761 $436 13.110102073898059 $307 $437 forward 7 unknown #
coedge $-1 $438 $439 $200 $310 forward $428 $-1 #
edge $-1 $440 -31.47945241523772 $313 -23.987030650155539 $309 $441 forward 7 unknown #
edge $-1 $314 -9.2611425240576217 $440 6.040265601636166e-015 $201 $442 forward 7 unknown #
coedge $-1 $202 $432 $438 $443 forward $302 $-1 #
vertex $-1 $203 $444 #
vertex $-1 $203 $445 #
straight-curve $-1 -8.5533380199852935 -59.00639258820194 10.473380919756686 0 1 0 I I #
coedge $-1 $316 $316 $-1 $446 reversed $206 $-1 #
edge $-1 $447 0 $447 6.2831853071796004 $207 $448 forward 7 unknown #
vertex $-1 $210 $449 #
ellipse-curve $-1 -16.966131414180921 -24.532564446234417 6.7271700372155951 0 -0.80901700255871778 0.5877852410284794 1 0 0 1 I I #
coedge $-1 $320 $320 $-1 $450 reversed $213 $-1 #
edge $-1 $451 0 $451 6.2831853071796004 $214 $452 forward 7 unknown #
vertex $-1 $217 $453 #
ellipse-curve $-1 -11.918455377663541 -24.532564446234417 6.7271700372155951 0 -0.80901700255871778 0.5877852410284794 1 0 0 1 I I #
face $-1 $-1 $336 $45 $-1 $454 forward single #
loop $-1 $-1 $455 $218 #
plane-surface $-1 0 -27.254345891585576 0 0 1 0 0 0 1 forward_v I I I I #
coedge $-1 $456 $457 $458 $459 reversed $219 $-1 #
coedge $-1 $460 $221 $223 $334 forward $138 $-1 #
coedge $-1 $221 $460 $456 $461 forward $138 $-1 #
coedge $-1 $458 $224 $221 $331 forward $336 $-1 #
edge $-1 $338 -16.888449274306364 $462 -5.1105385224324813 $330 $463 forward 7 unknown #
coedge $-1 $464 $465 $222 $333 forward $325 $-1 #
edge $-1 $466 -31.47945241523772 $337 -23.987030650155539 $332 $467 forward 7 unknown #
edge $-1 $338 -9.2611425240576217 $466 6.040265601636166e-015 $223 $468 forward 7 unknown #
coedge $-1 $224 $458 $464 $469 forward $336 $-1 #
loop $-1 $-1 $458 $324 #
vertex $-1 $333 $470 #
vertex $-1 $225 $471 #
straight-curve $-1 27.887943172675786 -59.00639258820194 10.473380919756686 0 1 0 I I #
coedge $-1 $340 $340 $-1 $472 reversed $228 $-1 #
edge $-1 $473 0 $473 6.2831853071796004 $229 $474 forward 7 unknown #
vertex $-1 $232 $475 #
ellipse-curve $-1 19.475149778480159 -24.532564446234417 6.7271700372155951 0 -0.80901700255871778 0.5877852410284794 1 0 0 1 I I #
coedge $-1 $344 $344 $-1 $476 reversed $235 $-1 #
edge $-1 $477 0 $477 6.2831853071796004 $236 $478 forward 7 unknown #
vertex $-1 $239 $479 #
ellipse-curve $-1 24.522825814997546 -24.532564446234417 6.7271700372155951 0 -0.80901700255871778 0.5877852410284794 1 0 0 1 I I #
face $-1 $-1 $360 $36 $-1 $480 reversed single #
loop $-1 $-1 $481 $240 #
plane-surface $-1 0 27.254345891585576 0 0 -1 0 0 0 -1 forward_v I I I I #
coedge $-1 $359 $358 $243 $352 reversed $360 $-1 #
edge $-1 $482 -27.254345891585576 $483 27.254345891585576 $351 $484 forward 7 unknown #
coedge $-1 $245 $244 $248 $364 forward $97 $-1 #
coedge $-1 $481 $251 $244 $355 reversed $349 $-1 #
edge $-1 $362 -56.091799676503797 $369 56.091799676503797 $354 $485 forward 7 unknown #
coedge $-1 $249 $486 $245 $357 reversed $241 $-1 #
edge $-1 $366 -56.091799676503797 $361 56.091799676503797 $356 $487 forward 7 unknown #
coedge $-1 $351 $246 $486 $488 forward $360 $-1 #
coedge $-1 $246 $351 $481 $489 reversed $360 $-1 #
loop $-1 $-1 $358 $348 #
vertex $-1 $247 $490 #
vertex $-1 $247 $491 #
straight-curve $-1 56.091799676503797 0 10.473380919756684 0 1 0 I I #
edge $-1 $369 -27.254345891585576 $366 27.254345891585576 $248 $492 forward 7 unknown #
coedge $-1 $486 $249 $254 $372 reversed $241 $-1 #
vertex $-1 $364 $493 #
straight-curve $-1 -56.091799676503797 -27.254345891585576 0 0 0 -1 I I #
coedge $-1 $251 $481 $253 $371 reversed $349 $-1 #
vertex $-1 $355 $494 #
straight-curve $-1 -56.091799676503797 27.254345891585576 0 0 0 -1 I I #
edge $-1 $256 -56.091799676503797 $482 56.091799676503797 $368 $495 forward 7 unknown #
edge $-1 $483 -56.091799676503797 $255 56.091799676503797 $365 $496 forward 7 unknown #
point $-1 -56.091799676503797 -27.254345891585576 -10.473380919756684 #
point $-1 -56.091799676503797 27.254345891585576 -10.473380919756684 #
face $-1 $-1 $391 $37 $-1 $497 forward single #
plane-surface $-1 -59.870146876912116 -6.3075840520722082 0 0 -1 0 0 0 -1 forward_v I I I I #
coedge $-1 $498 $499 $394 $500 forward $259 $-1 #
coedge $-1 $387 $261 $262 $383 reversed $160 $-1 #
coedge $-1 $261 $387 $390 $501 reversed $160 $-1 #
coedge $-1 $499 $498 $261 $381 reversed $259 $-1 #
edge $-1 $502 -10.473380919756684 $503 10.473380919756684 $380 $504 forward 7 unknown #
coedge $-1 $263 $262 $498 $505 forward $101 $-1 #
edge $-1 $385 -3.7783472004083194 $503 3.7783472004083194 $378 $506 forward 7 unknown #
edge $-1 $507 -3.7783472004083194 $271 3.7783472004083194 $268 $508 forward 7 unknown #
vertex $-1 $383 $509 #
straight-curve $-1 -56.091799676503797 0 -10.473380919756684 0 -1 0 I I #
coedge $-1 $379 $378 $265 $388 reversed $160 $-1 #
edge $-1 $392 -10.473380919756684 $385 10.473380919756684 $387 $510 forward 7 unknown #
coedge $-1 $511 $266 $269 $395 forward $391 $-1 #
coedge $-1 $266 $511 $379 $501 forward $391 $-1 #
loop $-1 $-1 $266 $375 #
vertex $-1 $267 $512 #
straight-curve $-1 -56.091799676503797 0 10.473380919756684 0 1 0 I I #
coedge $-1 $269 $268 $377 $500 reversed $270 $-1 #
edge $-1 $272 -3.7783472004083194 $513 3.7783472004083194 $269 $514 forward 7 unknown #
point $-1 -56.091799676503797 -6.3075840520722082 -10.473380919756684 #
point $-1 -56.091799676503797 -6.3075840520722082 10.473380919756684 #
loop $-1 $-1 $282 $274 #
plane-surface $-1 0 27.254345891585576 0 0 -1 0 0 0 -1 forward_v I I I I #
coedge $-1 $401 $277 $279 $405 reversed $168 $-1 #
coedge $-1 $277 $400 $515 $516 reversed $168 $-1 #
coedge $-1 $285 $280 $277 $403 forward $275 $-1 #
edge $-1 $406 -5.06862218070453 $517 8.0992940259642801 $402 $518 forward 7 unknown #
coedge $-1 $279 $278 $409 $519 reversed $105 $-1 #
edge $-1 $520 -54.508691783171145 $406 -39.146560890960124 $400 $521 forward 7 unknown #
vertex $-1 $281 $522 #
straight-curve $-1 4.3923133497317082 14.086429684916769 10.473380919756682 1 0 0 I I #
coedge $-1 $515 $282 $285 $413 reversed $398 $-1 #
coedge $-1 $282 $515 $404 $519 forward $398 $-1 #
vertex $-1 $283 $523 #
straight-curve $-1 -0.99490920990646359 27.254345891585576 63.39773156361705 0 0 1 I I #
straight-curve $-1 -0.99490920990646359 -19.468722084606419 30.635350548587937 0 0.85716729658548041 -0.51503808176128008 I I #
edge $-1 $517 -18.564162608833296 $286 0.99490920990646359 $408 $524 forward 7 unknown #
point $-1 -0.99490920990646359 27.254345891585576 10.473380919756684 #
point $-1 -0.99490920990646359 14.086429684916766 10.473380919756686 #
edge $-1 $525 1 $525 0 $289 $-1 forward 7 unknown #
vertex $-1 $290 $526 #
ellipse-curve $-1 2.9169051538414905 19.907740987291156 5.2480823063734814 0 0.51503808176128008 0.85716729658548041 1 0 0 1 I I #
point $-1 3.9169051538414905 20.670387788251183 6.5173397065116543 #
edge $-1 $527 1 $527 0 $293 $-1 forward 7 unknown #
vertex $-1 $294 $528 #
ellipse-curve $-1 8.7846266994634163 19.907740987291156 5.2480823063734814 0 0.51503808176128008 0.85716729658548041 1 0 0 1 I I #
point $-1 9.7846266994634163 20.670387788251183 6.5173397065116543 #
edge $-1 $529 1 $529 0 $297 $-1 forward 7 unknown #
vertex $-1 $298 $530 #
ellipse-curve $-1 14.652348245085349 19.907740987291156 5.2480823063734814 0 0.51503808176128008 0.85716729658548041 1 0 0 1 I I #
point $-1 15.652348245085349 20.670387788251183 6.5173397065116543 #
loop $-1 $-1 $309 $301 #
plane-surface $-1 0 -27.254345891585576 0 0 1 0 0 0 1 forward_v I I I I #
coedge $-1 $431 $304 $306 $435 reversed $197 $-1 #
coedge $-1 $304 $430 $531 $532 reversed $197 $-1 #
coedge $-1 $312 $307 $304 $433 forward $302 $-1 #
edge $-1 $436 -37.195609587318678 $533 -31.752046696616365 $432 $534 forward 7 unknown #
coedge $-1 $306 $305 $439 $535 reversed $124 $-1 #
edge $-1 $536 -6.040265601636166e-015 $436 9.2611425240576217 $430 $537 forward 7 unknown #
vertex $-1 $308 $538 #
straight-curve $-1 -7.2211466979611174 -21.810783000883266 10.473380919756684 -1 0 0 I I #
coedge $-1 $531 $309 $312 $443 reversed $428 $-1 #
coedge $-1 $309 $531 $434 $535 forward $428 $-1 #
vertex $-1 $310 $539 #
straight-curve $-1 -8.5533380199852935 -27.254345891585572 34.460411569912225 0 0 1 I I #
straight-curve $-1 -8.5533380199852935 -27.254345891585572 2.9809591546745082 0 -0.5877852410284794 -0.80901700255871778 I I #
edge $-1 $533 -20.331248771859176 $313 -8.5533380199852935 $438 $540 forward 7 unknown #
point $-1 -8.5533380199852935 -27.254345891585576 10.473380919756684 #
point $-1 -8.5533380199852935 -21.810783000883262 10.473380919756682 #
edge $-1 $541 1 $541 0 $316 $-1 forward 7 unknown #
vertex $-1 $317 $542 #
ellipse-curve $-1 -16.966131414180921 -21.52426162196727 4.5415101622611322 0 -0.80901700255871778 0.5877852410284794 1 0 0 1 I I #
point $-1 -15.966131414180921 -24.532564446234424 6.7271700372155987 #
edge $-1 $543 1 $543 0 $320 $-1 forward 7 unknown #
vertex $-1 $321 $544 #
ellipse-curve $-1 -11.918455377663541 -21.52426162196727 4.5415101622611322 0 -0.80901700255871778 0.5877852410284794 1 0 0 1 I I #
point $-1 -10.918455377663541 -24.532564446234424 6.7271700372155987 #
plane-surface $-1 0 0 10.473380919756684 0 0 1 1 0 0 forward_v I I I I #
coedge $-1 $465 $464 $457 $545 forward $325 $-1 #
coedge $-1 $457 $327 $329 $461 reversed $219 $-1 #
coedge $-1 $327 $456 $455 $545 reversed $219 $-1 #
coedge $-1 $335 $330 $327 $459 forward $336 $-1 #
edge $-1 $462 -37.195609587318678 $546 -31.752046696616365 $458 $547 forward 7 unknown #
coedge $-1 $329 $328 $465 $548 reversed $138 $-1 #
edge $-1 $549 -6.040265601636166e-015 $462 9.2611425240576217 $456 $550 forward 7 unknown #
vertex $-1 $331 $551 #
straight-curve $-1 10.999493898369423 -21.810783000883266 10.473380919756684 -1 0 0 I I #
coedge $-1 $455 $332 $335 $469 reversed $325 $-1 #
coedge $-1 $332 $455 $460 $548 forward $325 $-1 #
vertex $-1 $333 $552 #
straight-curve $-1 27.887943172675786 -27.254345891585572 34.460411569912225 0 0 1 I I #
straight-curve $-1 27.887943172675786 -27.254345891585572 2.9809591546745082 0 -0.5877852410284794 -0.80901700255871778 I I #
edge $-1 $546 16.110032420801904 $337 27.887943172675786 $464 $553 forward 7 unknown #
point $-1 27.887943172675786 -27.254345891585576 10.473380919756684 #
point $-1 27.887943172675786 -21.810783000883262 10.473380919756682 #
edge $-1 $554 1 $554 0 $340 $-1 forward 7 unknown #
vertex $-1 $341 $555 #
ellipse-curve $-1 19.475149778480159 -21.52426162196727 4.5415101622611322 0 -0.80901700255871778 0.5877852410284794 1 0 0 1 I I #
point $-1 20.475149778480159 -24.532564446234424 6.7271700372155987 #
edge $-1 $556 1 $556 0 $344 $-1 forward 7 unknown #
vertex $-1 $345 $557 #
ellipse-curve $-1 24.522825814997546 -21.52426162196727 4.5415101622611322 0 -0.80901700255871778 0.5877852410284794 1 0 0 1 I I #
point $-1 25.522825814997546 -24.532564446234424 6.7271700372155987 #
plane-surface $-1 56.091799676503797 0 0 -1 0 0 0 0 1 forward_v I I I I #
coedge $-1 $368 $354 $359 $489 forward $349 $-1 #
vertex $-1 $352 $558 #
vertex $-1 $488 $559 #
straight-curve $-1 56.091799676503797 0 -10.473380919756684 0 -1 0 I I #
straight-curve $-1 0 27.254345891585576 10.473380919756684 -1 0 0 I I #
coedge $-1 $356 $365 $358 $488 reversed $241 $-1 #
straight-curve $-1 0 -27.254345891585576 10.473380919756684 1 0 0 I I #
edge $-1 $361 -10.473380919756684 $483 10.473380919756684 $358 $560 forward 7 unknown #
edge $-1 $362 -10.473380919756684 $482 10.473380919756684 $359 $561 forward 7 unknown #
point $-1 56.091799676503797 -27.254345891585576 10.473380919756684 #
point $-1 56.091799676503797 27.254345891585576 10.473380919756684 #
straight-curve $-1 -56.091799676503797 0 10.473380919756684 0 -1 0 I I #
point $-1 -56.091799676503797 -27.254345891585576 10.473380919756684 #
point $-1 -56.091799676503797 27.254345891585576 10.473380919756684 #
straight-curve $-1 0 27.254345891585576 -10.473380919756684 1 0 0 I I #
straight-curve $-1 0 -27.254345891585576 -10.473380919756684 -1 0 0 I I #
plane-surface $-1 0 0 10.473380919756684 0 0 1 1 0 0 forward_v I I I I #
coedge $-1 $380 $377 $382 $505 reversed $259 $-1 #
coedge $-1 $377 $380 $511 $562 reversed $259 $-1 #
edge $-1 $513 -10.473380919756684 $507 10.473380919756684 $394 $563 forward 7 unknown #
edge $-1 $502 -3.7783472004083194 $392 3.7783472004083194 $379 $564 forward 7 unknown #
vertex $-1 $562 $565 #
vertex $-1 $505 $566 #
straight-curve $-1 -63.648494077320436 -10.248710228310003 0 0 0 -1 I I #
edge $-1 $503 -1.9705630881188974 $507 1.9705630881188974 $498 $567 forward 7 unknown #
straight-curve $-1 -59.870146876912116 -10.248710228310003 -10.473380919756684 -1 0 0 I I #
vertex $-1 $384 $568 #
straight-curve $-1 -59.870146876912116 -6.3075840520722082 -10.473380919756684 1 0 0 I I #
point $-1 -56.091799676503797 -10.248710228310003 -10.473380919756684 #
straight-curve $-1 -56.091799676503797 -10.248710228310003 0 0 0 -1 I I #
coedge $-1 $390 $389 $499 $562 forward $391 $-1 #
point $-1 -56.091799676503797 -10.248710228310003 10.473380919756684 #
vertex $-1 $395 $569 #
straight-curve $-1 -59.870146876912116 -6.3075840520722082 10.473380919756684 -1 0 0 I I #
coedge $-1 $409 $408 $401 $516 forward $398 $-1 #
edge $-1 $517 52.924350643860365 $520 60.836433070350424 $515 $570 forward 7 unknown #
vertex $-1 $413 $571 #
straight-curve $-1 18.564162608833296 19.155051865621296 10.473380919756686 0 1 0 I I #
edge $-1 $520 -14.171849259101588 $410 5.3872225596381718 $409 $572 forward 7 unknown #
vertex $-1 $519 $573 #
straight-curve $-1 18.564162608833296 -19.468722084606419 30.635350548587937 0 -0.85716729658548041 0.51503808176128008 I I #
point $-1 18.564162608833296 14.086429684916766 10.473380919756686 #
point $-1 -0.99490920990646359 27.254345891585579 2.561298493266623 #
straight-curve $-1 0 27.254345891585576 10.473380919756684 -1 0 0 I I #
vertex $-1 $416 $574 #
point $-1 3.9169051538414905 19.907740987291156 5.2480823063734814 #
vertex $-1 $420 $575 #
point $-1 9.7846266994634163 19.907740987291156 5.2480823063734814 #
vertex $-1 $424 $576 #
point $-1 15.652348245085349 19.907740987291156 5.2480823063734814 #
coedge $-1 $439 $438 $431 $532 forward $428 $-1 #
edge $-1 $533 23.987030650155539 $536 31.47945241523772 $531 $577 forward 7 unknown #
vertex $-1 $443 $578 #
straight-curve $-1 -20.331248771859176 -59.00639258820194 10.473380919756686 0 -1 0 I I #
edge $-1 $536 -13.110102073898059 $440 -1.3321913220241761 $439 $579 forward 7 unknown #
vertex $-1 $535 $580 #
straight-curve $-1 -20.331248771859176 -27.254345891585572 2.9809591546745082 0 0.5877852410284794 0.80901700255871778 I I #
point $-1 -20.331248771859176 -21.810783000883262 10.473380919756682 #
point $-1 -8.5533380199852935 -27.254345891585576 2.9809591546745033 #
straight-curve $-1 0 -27.254345891585576 10.473380919756684 1 0 0 I I #
vertex $-1 $446 $581 #
point $-1 -15.966131414180921 -21.52426162196727 4.5415101622611322 #
vertex $-1 $450 $582 #
point $-1 -10.918455377663541 -21.52426162196727 4.5415101622611322 #
edge $-1 $546 23.987030650155539 $549 31.47945241523772 $455 $583 forward 7 unknown #
vertex $-1 $469 $584 #
straight-curve $-1 16.110032420801904 -59.00639258820194 10.473380919756686 0 -1 0 I I #
edge $-1 $549 5.1105385224324813 $466 16.888449274306364 $465 $585 forward 7 unknown #
vertex $-1 $548 $586 #
straight-curve $-1 16.110032420801904 -27.254345891585572 2.9809591546745082 0 0.5877852410284794 0.80901700255871778 I I #
point $-1 16.110032420801904 -21.810783000883262 10.473380919756682 #
point $-1 27.887943172675786 -27.254345891585576 2.9809591546745033 #
straight-curve $-1 0 -27.254345891585576 10.473380919756684 1 0 0 I I #
vertex $-1 $472 $587 #
point $-1 20.475149778480159 -21.52426162196727 4.5415101622611322 #
vertex $-1 $476 $588 #
point $-1 25.522825814997546 -21.52426162196727 4.5415101622611322 #
point $-1 56.091799676503797 27.254345891585576 -10.473380919756684 #
point $-1 56.091799676503797 -27.254345891585576 -10.473380919756684 #
straight-curve $-1 56.091799676503797 -27.254345891585576 0 0 0 -1 I I #
straight-curve $-1 56.091799676503797 27.254345891585576 0 0 0 -1 I I #
edge $-1 $513 -1.9705630881188974 $502 1.9705630881188974 $499 $589 forward 7 unknown #
straight-curve $-1 -63.648494077320436 -6.3075840520722082 0 0 0 -1 I I #
straight-curve $-1 -59.870146876912116 -10.248710228310003 10.473380919756684 1 0 0 I I #
point $-1 -63.648494077320436 -10.248710228310003 10.473380919756684 #
point $-1 -63.648494077320436 -10.248710228310003 -10.473380919756684 #
straight-curve $-1 -63.648494077320436 -8.2781471401911055 -10.473380919756684 0 1 0 I I #
point $-1 -63.648494077320436 -6.3075840520722082 -10.473380919756684 #
point $-1 -63.648494077320436 -6.3075840520722082 10.473380919756684 #
straight-curve $-1 18.564162608833296 27.254345891585576 63.39773156361705 0 0 -1 I I #
point $-1 18.564162608833296 27.254345891585576 10.473380919756684 #
straight-curve $-1 4.3923133497317082 27.254345891585572 2.5612984932666265 -1 0 0 I I #
point $-1 18.564162608833296 27.254345891585579 2.561298493266623 #
point $-1 2.9169051538414905 19.392702905529873 4.3909150097880012 #
point $-1 8.7846266994634163 19.392702905529873 4.3909150097880012 #
point $-1 14.652348245085349 19.392702905529873 4.3909150097880012 #
straight-curve $-1 -20.331248771859176 -27.254345891585572 34.460411569912225 0 0 -1 I I #
point $-1 -20.331248771859176 -27.254345891585576 10.473380919756684 #
straight-curve $-1 -7.2211466979611174 -27.254345891585576 2.9809591546744998 1 0 0 I I #
point $-1 -20.331248771859176 -27.254345891585576 2.9809591546745033 #
point $-1 -16.966131414180921 -20.715244619408551 3.9537249212326531 #
point $-1 -11.918455377663541 -20.715244619408551 3.9537249212326531 #
straight-curve $-1 16.110032420801904 -27.254345891585572 34.460411569912225 0 0 -1 I I #
point $-1 16.110032420801904 -27.254345891585576 10.473380919756684 #
straight-curve $-1 10.999493898369423 -27.254345891585576 2.9809591546744998 1 0 0 I I #
point $-1 16.110032420801904 -27.254345891585576 2.9809591546745033 #
point $-1 19.475149778480159 -20.715244619408551 3.9537249212326531 #
point $-1 24.522825814997546 -20.715244619408551 3.9537249212326531 #
straight-curve $-1 -63.648494077320436 -8.2781471401911055 10.473380919756684 0 -1 0 I I #
End-of-ACIS-data 