500 0 2 0           
7 Unknown 11 ACIS 5.0 NT 24 Fri Mar 26 02:57:59 1999 
-1 9.9999999999999995e-007 1e-010 
body $-1 $2 $-1 $3 #
body $-1 $4 $-1 $5 #
lump $-1 $-1 $6 $0 #
transform $-1 1 0 0 0 1 0 0 0 1 40.14404736472671 18.903856039238658 5.7140217827398114 1 rotate no_reflect no_shear #
lump $-1 $-1 $7 $1 #
transform $-1 1 0 0 0 1 0 0 0 1 40.14404736472671 18.903856039238658 5.7140217827398114 1 rotate no_reflect no_shear #
shell $-1 $-1 $-1 $8 $-1 $2 #
shell $-1 $-1 $-1 $9 $-1 $4 #
face $-1 $10 $11 $6 $-1 $12 forward single #
face $-1 $13 $14 $7 $-1 $15 forward single #
face $-1 $16 $17 $6 $-1 $18 reversed single #
loop $-1 $-1 $19 $8 #
plane-surface $-1 0 0 5.7140217827398114 0 0 1 1 0 0 forward_v I I I I #
face $-1 $20 $21 $7 $-1 $22 forward single #
loop $-1 $-1 $23 $9 #
plane-surface $-1 0 -15.16045418373818 2.7140217827398114 0 0 1 1 0 0 forward_v I I I I #
face $-1 $24 $25 $6 $-1 $26 reversed single #
loop $-1 $-1 $27 $10 #
plane-surface $-1 0 0 -5.7140217827398114 0 0 1 1 0 0 forward_v I I I I #
coedge $-1 $28 $29 $30 $31 forward $11 $-1 #
face $-1 $32 $33 $7 $-1 $34 forward single #
loop $-1 $-1 $35 $13 #
plane-surface $-1 0 -11.417052328237702 4.2140217827398114 0 -1 0 0 0 -1 forward_v I I I I #
coedge $-1 $36 $37 $38 $39 reversed $14 $-1 #
face $-1 $40 $41 $6 $-1 $42 reversed single #
loop $-1 $-1 $43 $16 #
plane-surface $-1 0 -18.903856039238658 0 0 1 0 0 0 1 forward_v I I I I #
coedge $-1 $44 $45 $46 $47 forward $17 $-1 #
coedge $-1 $48 $19 $49 $50 forward $11 $-1 #
coedge $-1 $19 $48 $51 $52 forward $11 $-1 #
coedge $-1 $53 $54 $19 $31 reversed $55 $-1 #
edge $-1 $56 -18.903856039238658 $57 18.903856039238658 $30 $58 forward 7 unknown #
face $-1 $59 $60 $7 $-1 $61 reversed single #
loop $-1 $-1 $62 $20 #
plane-surface $-1 0 0 5.7140217827398114 0 0 1 1 0 0 forward_v I I I I #
coedge $-1 $63 $64 $65 $66 reversed $21 $-1 #
coedge $-1 $67 $23 $64 $68 reversed $14 $-1 #
coedge $-1 $23 $67 $69 $70 reversed $14 $-1 #
coedge $-1 $71 $65 $23 $39 forward $60 $-1 #
edge $-1 $72 3.8368252363686119 $73 11.323628947369567 $38 $74 forward 7 unknown #
face $-1 $75 $76 $6 $-1 $77 reversed single #
loop $-1 $-1 $78 $24 #
plane-surface $-1 -40.14404736472671 0 0 1 0 0 0 0 -1 forward_v I I I I #
coedge $-1 $79 $51 $80 $81 forward $25 $-1 #
coedge $-1 $82 $27 $79 $83 forward $17 $-1 #
coedge $-1 $27 $82 $84 $85 forward $17 $-1 #
coedge $-1 $54 $53 $27 $47 reversed $55 $-1 #
edge $-1 $86 -18.903856039238658 $87 18.903856039238658 $46 $88 forward 7 unknown #
coedge $-1 $29 $28 $89 $90 forward $11 $-1 #
coedge $-1 $91 $92 $28 $50 reversed $76 $-1 #
edge $-1 $57 -40.14404736472671 $93 40.14404736472671 $49 $94 forward 7 unknown #
coedge $-1 $43 $95 $29 $52 reversed $25 $-1 #
edge $-1 $96 -40.14404736472671 $56 40.14404736472671 $51 $97 forward 7 unknown #
coedge $-1 $46 $30 $95 $98 forward $55 $-1 #
coedge $-1 $30 $46 $91 $99 reversed $55 $-1 #
loop $-1 $-1 $53 $75 #
vertex $-1 $31 $100 #
vertex $-1 $31 $101 #
straight-curve $-1 40.14404736472671 0 5.7140217827398114 0 1 0 I I #
face $-1 $102 $103 $7 $-1 $104 reversed single #
loop $-1 $-1 $65 $32 #
plane-surface $-1 40.14404736472671 0 0 -1 0 0 0 0 1 forward_v I I I I #
coedge $-1 $105 $106 $63 $107 forward $33 $-1 #
coedge $-1 $108 $35 $62 $107 reversed $21 $-1 #
coedge $-1 $35 $108 $36 $68 forward $21 $-1 #
coedge $-1 $38 $109 $35 $66 forward $60 $-1 #
edge $-1 $110 -3.6070108913699057 $72 -0.60701089136990571 $65 $111 forward 7 unknown #
coedge $-1 $37 $36 $112 $113 reversed $14 $-1 #
edge $-1 $114 -40.14404736472671 $72 40.14404736472671 $64 $115 forward 7 unknown #
coedge $-1 $116 $117 $37 $70 forward $118 $-1 #
edge $-1 $73 -40.14404736472671 $119 40.14404736472671 $69 $120 forward 7 unknown #
coedge $-1 $121 $38 $117 $122 forward $60 $-1 #
vertex $-1 $39 $123 #
vertex $-1 $122 $124 #
straight-curve $-1 40.14404736472671 -7.5802270918690899 2.7140217827398114 0 -1 0 I I #
face $-1 $-1 $55 $6 $-1 $125 reversed single #
loop $-1 $-1 $91 $40 #
plane-surface $-1 0 18.903856039238658 0 0 -1 0 0 0 -1 forward_v I I I I #
coedge $-1 $126 $89 $92 $127 forward $41 $-1 #
coedge $-1 $95 $43 $44 $83 reversed $25 $-1 #
coedge $-1 $89 $126 $43 $81 reversed $41 $-1 #
edge $-1 $96 -5.7140217827398114 $128 5.7140217827398114 $80 $129 forward 7 unknown #
coedge $-1 $45 $44 $126 $130 forward $17 $-1 #
edge $-1 $87 -40.14404736472671 $128 40.14404736472671 $79 $131 forward 7 unknown #
coedge $-1 $92 $91 $45 $85 reversed $76 $-1 #
edge $-1 $132 -40.14404736472671 $86 40.14404736472671 $84 $133 forward 7 unknown #
vertex $-1 $47 $134 #
vertex $-1 $98 $135 #
straight-curve $-1 40.14404736472671 0 -5.7140217827398114 0 -1 0 I I #
coedge $-1 $78 $80 $48 $90 reversed $41 $-1 #
edge $-1 $93 -18.903856039238658 $96 18.903856039238658 $89 $136 forward 7 unknown #
coedge $-1 $84 $49 $54 $99 forward $76 $-1 #
coedge $-1 $49 $84 $78 $127 reversed $76 $-1 #
vertex $-1 $50 $137 #
straight-curve $-1 0 18.903856039238658 5.7140217827398114 -1 0 0 I I #
coedge $-1 $51 $79 $53 $98 reversed $25 $-1 #
vertex $-1 $90 $138 #
straight-curve $-1 0 -18.903856039238658 5.7140217827398114 1 0 0 I I #
edge $-1 $56 -5.7140217827398114 $87 5.7140217827398114 $53 $139 forward 7 unknown #
edge $-1 $57 -5.7140217827398114 $86 5.7140217827398114 $54 $140 forward 7 unknown #
point $-1 40.14404736472671 -18.903856039238658 5.7140217827398114 #
point $-1 40.14404736472671 18.903856039238658 5.7140217827398114 #
face $-1 $141 $118 $7 $-1 $142 reversed single #
loop $-1 $-1 $143 $59 #
plane-surface $-1 0 0 -5.7140217827398114 0 0 1 1 0 0 forward_v I I I I #
coedge $-1 $144 $62 $109 $145 forward $33 $-1 #
coedge $-1 $62 $144 $146 $147 forward $33 $-1 #
edge $-1 $148 -40.14404736472671 $110 40.14404736472671 $62 $149 forward 7 unknown #
coedge $-1 $64 $63 $150 $151 reversed $21 $-1 #
coedge $-1 $65 $152 $105 $145 reversed $60 $-1 #
vertex $-1 $145 $153 #
straight-curve $-1 40.14404736472671 -11.417052328237702 2.1070108913699057 0 0 -1 I I #
coedge $-1 $150 $154 $67 $113 forward $155 $-1 #
edge $-1 $119 -11.323628947369567 $114 -3.8368252363686119 $112 $156 forward 7 unknown #
vertex $-1 $113 $157 #
straight-curve $-1 0 -11.417052328237702 2.7140217827398114 1 0 0 I I #
coedge $-1 $158 $69 $154 $159 forward $118 $-1 #
coedge $-1 $69 $158 $71 $122 reversed $118 $-1 #
loop $-1 $-1 $69 $102 #
vertex $-1 $159 $160 #
straight-curve $-1 0 -18.903856039238658 2.7140217827398114 -1 0 0 I I #
coedge $-1 $152 $71 $143 $161 reversed $60 $-1 #
edge $-1 $73 -2.7140217827398114 $162 5.7140217827398114 $71 $163 forward 7 unknown #
point $-1 40.14404736472671 -11.417052328237702 2.7140217827398114 #
point $-1 40.14404736472671 -18.903856039238658 2.7140217827398114 #
plane-surface $-1 40.14404736472671 0 0 -1 0 0 0 0 1 forward_v I I I I #
coedge $-1 $80 $78 $82 $130 reversed $41 $-1 #
edge $-1 $93 -5.7140217827398114 $132 5.7140217827398114 $92 $164 forward 7 unknown #
vertex $-1 $130 $165 #
straight-curve $-1 -40.14404736472671 -18.903856039238658 0 0 0 -1 I I #
edge $-1 $128 -18.903856039238658 $132 18.903856039238658 $126 $166 forward 7 unknown #
straight-curve $-1 0 -18.903856039238658 -5.7140217827398114 -1 0 0 I I #
vertex $-1 $85 $167 #
straight-curve $-1 0 18.903856039238658 -5.7140217827398114 1 0 0 I I #
point $-1 40.14404736472671 18.903856039238658 -5.7140217827398114 #
point $-1 40.14404736472671 -18.903856039238658 -5.7140217827398114 #
straight-curve $-1 -40.14404736472671 0 5.7140217827398114 0 -1 0 I I #
point $-1 -40.14404736472671 18.903856039238658 5.7140217827398114 #
point $-1 -40.14404736472671 -18.903856039238658 5.7140217827398114 #
straight-curve $-1 40.14404736472671 -18.903856039238658 0 0 0 -1 I I #
straight-curve $-1 40.14404736472671 18.903856039238658 0 0 0 -1 I I #
face $-1 $168 $155 $7 $-1 $169 reversed single #
plane-surface $-1 0 -18.903856039238658 0 0 1 0 0 0 1 forward_v I I I I #
coedge $-1 $170 $171 $121 $161 forward $103 $-1 #
coedge $-1 $106 $105 $172 $173 forward $33 $-1 #
edge $-1 $110 -11.417052328237702 $174 18.903856039238658 $109 $175 forward 7 unknown #
coedge $-1 $176 $150 $106 $147 reversed $155 $-1 #
edge $-1 $177 -18.903856039238658 $148 11.417052328237702 $146 $178 forward 7 unknown #
vertex $-1 $151 $179 #
straight-curve $-1 0 -11.417052328237702 5.7140217827398114 1 0 0 I I #
coedge $-1 $146 $112 $108 $151 forward $155 $-1 #
edge $-1 $114 0.60701089136990571 $148 3.6070108913699057 $150 $180 forward 7 unknown #
coedge $-1 $109 $121 $181 $182 reversed $60 $-1 #
point $-1 40.14404736472671 -11.417052328237702 5.7140217827398114 #
coedge $-1 $112 $183 $116 $159 reversed $155 $-1 #
loop $-1 $-1 $150 $141 #
straight-curve $-1 -40.14404736472671 -7.5802270918690899 2.7140217827398114 0 1 0 I I #
point $-1 -40.14404736472671 -11.417052328237702 2.7140217827398114 #
coedge $-1 $117 $116 $170 $184 reversed $118 $-1 #
edge $-1 $119 -2.7140217827398114 $185 5.7140217827398114 $154 $186 forward 7 unknown #
point $-1 -40.14404736472671 -18.903856039238658 2.7140217827398114 #
edge $-1 $187 -18.903856039238658 $162 18.903856039238658 $121 $188 forward 7 unknown #
vertex $-1 $122 $189 #
straight-curve $-1 40.14404736472671 -18.903856039238658 0 0 0 -1 I I #
straight-curve $-1 -40.14404736472671 18.903856039238658 0 0 0 -1 I I #
point $-1 -40.14404736472671 -18.903856039238658 -5.7140217827398114 #
straight-curve $-1 -40.14404736472671 0 -5.7140217827398114 0 1 0 I I #
point $-1 -40.14404736472671 18.903856039238658 -5.7140217827398114 #
face $-1 $-1 $190 $7 $-1 $191 reversed single #
plane-surface $-1 -40.14404736472671 0 0 1 0 0 0 0 -1 forward_v I I I I #
coedge $-1 $192 $143 $158 $184 forward $103 $-1 #
coedge $-1 $143 $192 $193 $194 forward $103 $-1 #
coedge $-1 $181 $195 $144 $173 reversed $190 $-1 #
edge $-1 $174 -40.14404736472671 $177 40.14404736472671 $172 $196 forward 7 unknown #
vertex $-1 $145 $197 #
straight-curve $-1 40.14404736472671 0 5.7140217827398114 0 1 0 I I #
coedge $-1 $183 $146 $195 $198 forward $155 $-1 #
vertex $-1 $173 $199 #
straight-curve $-1 -40.14404736472671 0 5.7140217827398114 0 -1 0 I I #
point $-1 -40.14404736472671 -11.417052328237702 5.7140217827398114 #
straight-curve $-1 -40.14404736472671 -11.417052328237702 2.1070108913699057 0 0 1 I I #
coedge $-1 $193 $172 $152 $182 forward $190 $-1 #
edge $-1 $174 -5.7140217827398114 $187 5.7140217827398114 $152 $200 forward 7 unknown #
coedge $-1 $154 $176 $192 $201 reversed $155 $-1 #
edge $-1 $162 -40.14404736472671 $185 40.14404736472671 $158 $202 forward 7 unknown #
vertex $-1 $201 $203 #
straight-curve $-1 -40.14404736472671 -18.903856039238658 0 0 0 -1 I I #
vertex $-1 $161 $204 #
straight-curve $-1 40.14404736472671 0 -5.7140217827398114 0 -1 0 I I #
point $-1 40.14404736472671 -18.903856039238658 -5.7140217827398114 #
loop $-1 $-1 $181 $168 #
plane-surface $-1 0 18.903856039238658 0 0 -1 0 0 0 -1 forward_v I I I I #
coedge $-1 $171 $170 $183 $201 forward $103 $-1 #
coedge $-1 $195 $181 $171 $194 reversed $190 $-1 #
edge $-1 $205 -40.14404736472671 $187 40.14404736472671 $193 $206 forward 7 unknown #
coedge $-1 $172 $193 $176 $198 reversed $190 $-1 #
straight-curve $-1 0 18.903856039238658 5.7140217827398114 -1 0 0 I I #
point $-1 40.14404736472671 18.903856039238658 5.7140217827398114 #
edge $-1 $177 -5.7140217827398114 $205 5.7140217827398114 $195 $207 forward 7 unknown #
point $-1 -40.14404736472671 18.903856039238658 5.7140217827398114 #
straight-curve $-1 40.14404736472671 18.903856039238658 0 0 0 -1 I I #
edge $-1 $185 -18.903856039238658 $205 18.903856039238658 $183 $208 forward 7 unknown #
straight-curve $-1 0 -18.903856039238658 -5.7140217827398114 -1 0 0 I I #
point $-1 -40.14404736472671 -18.903856039238658 -5.7140217827398114 #
point $-1 40.14404736472671 18.903856039238658 -5.7140217827398114 #
vertex $-1 $194 $209 #
straight-curve $-1 0 18.903856039238658 -5.7140217827398114 1 0 0 I I #
straight-curve $-1 -40.14404736472671 18.903856039238658 0 0 0 -1 I I #
straight-curve $-1 -40.14404736472671 0 -5.7140217827398114 0 1 0 I I #
point $-1 -40.14404736472671 18.903856039238658 -5.7140217827398114 #
End-of-ACIS-data 