500 0 10 0           
7 Unknown 11 ACIS 5.0 NT 24 Fri Mar 26 00:15:15 1999 
-1 9.9999999999999995e-007 1e-010 
body $-1 $10 $-1 $11 #
body $-1 $12 $-1 $13 #
body $-1 $14 $-1 $15 #
body $-1 $16 $-1 $17 #
body $-1 $18 $-1 $19 #
body $-1 $20 $-1 $21 #
body $-1 $22 $-1 $23 #
body $-1 $24 $-1 $25 #
body $-1 $26 $-1 $27 #
body $-1 $28 $-1 $29 #
lump $-1 $-1 $30 $0 #
transform $-1 1 0 0 0 1 0 0 0 1 72.336191900387576 42.903240695483028 11.058055949391214 1 rotate no_reflect no_shear #
lump $-1 $-1 $31 $1 #
transform $-1 1 0 0 0 1 0 0 0 1 72.336191900387576 42.903240695483028 11.058055949391214 1 rotate no_reflect no_shear #
lump $-1 $-1 $32 $2 #
transform $-1 1 0 0 0 1 0 0 0 1 72.336191900387576 42.903240695483028 11.058055949391214 1 rotate no_reflect no_shear #
lump $-1 $-1 $33 $3 #
transform $-1 1 0 0 0 1 0 0 0 1 72.336191900387576 42.903240695483028 11.058055949391214 1 rotate no_reflect no_shear #
lump $-1 $-1 $34 $4 #
transform $-1 1 0 0 0 1 0 0 0 1 72.336191900387576 42.903240695483028 11.058055949391214 1 rotate no_reflect no_shear #
lump $-1 $-1 $35 $5 #
transform $-1 1 0 0 0 1 0 0 0 1 72.336191900387576 42.903240695483028 11.058055949391214 1 rotate no_reflect no_shear #
lump $-1 $-1 $36 $6 #
transform $-1 1 0 0 0 1 0 0 0 1 72.336191900387576 42.903240695483028 11.058055949391214 1 rotate no_reflect no_shear #
lump $-1 $-1 $37 $7 #
transform $-1 1 0 0 0 1 0 0 0 1 72.336191900387576 42.903240695483028 11.058055949391214 1 rotate no_reflect no_shear #
lump $-1 $-1 $38 $8 #
transform $-1 1 0 0 0 1 0 0 0 1 72.336191900387576 42.903240695483028 11.058055949391214 1 rotate no_reflect no_shear #
lump $-1 $-1 $39 $9 #
transform $-1 1 0 0 0 1 0 0 0 1 72.336191900387576 42.903240695483028 11.058055949391214 1 rotate no_reflect no_shear #
shell $-1 $-1 $-1 $40 $-1 $10 #
shell $-1 $-1 $-1 $41 $-1 $12 #
shell $-1 $-1 $-1 $42 $-1 $14 #
shell $-1 $-1 $-1 $43 $-1 $16 #
shell $-1 $-1 $-1 $44 $-1 $18 #
shell $-1 $-1 $-1 $45 $-1 $20 #
shell $-1 $-1 $-1 $46 $-1 $22 #
shell $-1 $-1 $-1 $47 $-1 $24 #
shell $-1 $-1 $-1 $48 $-1 $26 #
shell $-1 $-1 $-1 $49 $-1 $28 #
face $-1 $50 $51 $30 $-1 $52 forward single #
face $-1 $53 $54 $31 $-1 $55 forward single #
face $-1 $56 $57 $32 $-1 $58 forward single #
face $-1 $59 $60 $33 $-1 $61 reversed single #
face $-1 $62 $63 $34 $-1 $64 forward single #
face $-1 $65 $66 $35 $-1 $67 reversed single #
face $-1 $68 $69 $36 $-1 $70 forward single #
face $-1 $71 $72 $37 $-1 $73 reversed single #
face $-1 $74 $75 $38 $-1 $76 forward single #
face $-1 $77 $78 $39 $-1 $79 forward single #
face $-1 $80 $81 $30 $-1 $82 reversed single #
loop $-1 $-1 $83 $40 #
plane-surface $-1 0 0 11.058055949391214 0 0 1 1 0 0 forward_v I I I I #
face $-1 $84 $85 $31 $-1 $86 reversed single #
loop $-1 $-1 $87 $41 #
plane-surface $-1 -68.434787460362728 0 10.558055949391214 0 0 1 1 0 0 forward_v I I I I #
face $-1 $88 $89 $32 $-1 $90 reversed single #
loop $-1 $-1 $91 $42 #
plane-surface $-1 68.434787460362713 0 10.558055949391214 0 0 1 1 0 0 forward_v I I I I #
face $-1 $92 $93 $33 $-1 $94 reversed single #
loop $-1 $-1 $95 $43 #
plane-surface $-1 -50.132142333990807 -117.41502773206594 125.23852723704923 1 0 0 0 0.51503808176128008 -0.85716729658548041 forward_v I I I I #
face $-1 $96 $97 $34 $-1 $98 forward single #
loop $-1 $99 $100 $44 #
cone-surface $-1 -35.912818866217208 -33.316383293875241 3.7997404693190533 0 0.51503808176128008 -0.85716729658548041 2 0 0 1 I I 0 1 2 forward I I I I #
face $-1 $101 $102 $35 $-1 $103 reversed single #
loop $-1 $-1 $104 $45 #
plane-surface $-1 14.401240686347075 -117.41502773206594 125.23852723704923 1 0 0 0 0.51503808176128008 -0.85716729658548041 forward_v I I I I #
face $-1 $105 $106 $36 $-1 $107 forward single #
loop $-1 $108 $109 $46 #
cone-surface $-1 28.620564154120672 -33.316383293875241 3.7997404693190533 0 0.51503808176128008 -0.85716729658548041 2 0 0 1 I I 0 1 2 forward I I I I #
face $-1 $110 $111 $37 $-1 $112 reversed single #
loop $-1 $-1 $113 $47 #
plane-surface $-1 12.069019171069097 78.814683227613926 166.95544587771479 -1 0 0 0 0.68199836817093118 0.7313536940579346 forward_v I I I I #
face $-1 $114 $115 $38 $-1 $116 forward single #
loop $-1 $117 $118 $48 #
cone-surface $-1 -14.422223085059471 36.356096001159614 4.669183892016159 0 -0.68199836817093118 -0.7313536940579346 2.5 0 0 1 I I 0 1 2.5 forward I I I I #
face $-1 $119 $120 $39 $-1 $121 forward single #
loop $-1 $122 $123 $49 #
cone-surface $-1 1.4725222686176664 36.356096001159614 4.669183892016159 0 -0.68199836817093118 -0.7313536940579346 2.5 0 0 1 I I 0 1 2.5 forward I I I I #
face $-1 $124 $125 $30 $-1 $126 reversed single #
loop $-1 $-1 $127 $50 #
plane-surface $-1 0 0 -11.058055949391214 0 0 1 1 0 0 forward_v I I I I #
coedge $-1 $128 $129 $130 $131 forward $51 $-1 #
face $-1 $132 $133 $31 $-1 $134 reversed single #
loop $-1 $-1 $135 $53 #
plane-surface $-1 -68.434787460362728 0 7.5580559493912141 0 0 1 1 0 0 forward_v I I I I #
coedge $-1 $136 $137 $138 $139 forward $54 $-1 #
face $-1 $140 $141 $32 $-1 $142 reversed single #
loop $-1 $-1 $143 $56 #
plane-surface $-1 68.434787460362713 0 7.5580559493912141 0 0 1 1 0 0 forward_v I I I I #
coedge $-1 $144 $145 $146 $147 reversed $57 $-1 #
face $-1 $148 $149 $33 $-1 $150 reversed single #
loop $-1 $-1 $151 $59 #
plane-surface $-1 -35.912818866217208 -42.903240695483007 1.230091123961742 0 -0.51503808176128008 0.85716729658548041 1 0 0 forward_v I I I I #
coedge $-1 $152 $153 $154 $155 reversed $60 $-1 #
face $-1 $-1 $156 $34 $-1 $157 forward single #
loop $-1 $158 $159 $62 #
cone-surface $-1 -35.912818866217208 -31.392727768551822 0.59824010537614036 0 0.51503808176128008 -0.85716729658548041 1 0 0 1 I I -0.70710678118654746 0.70710678118654746 1 forward I I I I #
loop $-1 $-1 $160 $44 #
coedge $-1 $100 $100 $161 $162 reversed $63 $-1 #
face $-1 $163 $164 $35 $-1 $165 reversed single #
loop $-1 $-1 $166 $65 #
plane-surface $-1 28.620564154120672 -42.903240695483007 1.230091123961742 0 -0.51503808176128008 0.85716729658548041 1 0 0 forward_v I I I I #
coedge $-1 $167 $168 $169 $170 reversed $66 $-1 #
face $-1 $-1 $171 $36 $-1 $172 forward single #
loop $-1 $173 $174 $68 #
cone-surface $-1 28.620564154120672 -31.392727768551822 0.59824010537614036 0 0.51503808176128008 -0.85716729658548041 1 0 0 1 I I -0.70710678118654746 0.70710678118654746 1 forward I I I I #
loop $-1 $-1 $175 $46 #
coedge $-1 $109 $109 $176 $177 reversed $69 $-1 #
face $-1 $178 $179 $37 $-1 $180 reversed single #
loop $-1 $-1 $181 $71 #
plane-surface $-1 -6.4748504082209024 -19.851646443913381 61.148763556850597 0 0.68199836817093118 0.7313536940579346 1 0 0 forward_v I I I I #
coedge $-1 $182 $183 $184 $185 reversed $72 $-1 #
face $-1 $-1 $186 $38 $-1 $187 forward single #
loop $-1 $188 $189 $74 #
cone-surface $-1 -14.422223085059471 33.476043762697365 1.5807060569031144 0 -0.68199836817093118 -0.7313536940579346 1.25 0 0 1 I I -0.70710678118654746 0.70710678118654746 1.25 forward I I I I #
loop $-1 $-1 $190 $48 #
coedge $-1 $118 $118 $191 $192 reversed $75 $-1 #
face $-1 $-1 $193 $39 $-1 $194 forward single #
loop $-1 $195 $196 $77 #
cone-surface $-1 1.4725222686176664 33.476043762697365 1.5807060569031144 0 -0.68199836817093118 -0.7313536940579346 1.25 0 0 1 I I -0.70710678118654746 0.70710678118654746 1.25 forward I I I I #
loop $-1 $-1 $197 $49 #
coedge $-1 $123 $123 $198 $199 reversed $78 $-1 #
face $-1 $200 $201 $30 $-1 $202 reversed single #
loop $-1 $-1 $203 $80 #
plane-surface $-1 0 -42.903240695483028 0 0 1 0 0 0 1 forward_v I I I I #
coedge $-1 $204 $205 $206 $207 forward $81 $-1 #
coedge $-1 $208 $83 $209 $210 forward $51 $-1 #
coedge $-1 $83 $208 $211 $212 forward $51 $-1 #
coedge $-1 $213 $214 $83 $131 reversed $215 $-1 #
edge $-1 $216 -42.903240695483028 $217 42.903240695483028 $130 $218 forward 7 unknown #
face $-1 $219 $220 $31 $-1 $221 reversed single #
loop $-1 $-1 $222 $84 #
plane-surface $-1 -64.53338302033788 0 9.0580559493912141 -1 0 0 0 0 1 forward_v I I I I #
coedge $-1 $223 $224 $225 $226 forward $85 $-1 #
coedge $-1 $227 $87 $228 $229 reversed $54 $-1 #
coedge $-1 $87 $227 $230 $231 reversed $54 $-1 #
coedge $-1 $222 $232 $87 $139 reversed $133 $-1 #
edge $-1 $233 -42.903240695483028 $234 42.903240695483028 $138 $235 forward 7 unknown #
face $-1 $236 $237 $32 $-1 $238 reversed single #
loop $-1 $-1 $239 $88 #
plane-surface $-1 64.533383020337865 0 9.0580559493912141 1 0 0 0 0 -1 forward_v I I I I #
coedge $-1 $240 $241 $242 $243 reversed $89 $-1 #
coedge $-1 $244 $91 $245 $246 reversed $57 $-1 #
coedge $-1 $91 $244 $247 $248 reversed $57 $-1 #
coedge $-1 $249 $250 $91 $147 forward $251 $-1 #
edge $-1 $252 -42.903240695483028 $253 42.903240695483028 $146 $254 forward 7 unknown #
face $-1 $255 $256 $33 $-1 $257 forward single #
loop $-1 $-1 $258 $92 #
plane-surface $-1 -21.693495398443609 -117.41502773206594 125.23852723704923 -1 0 0 0 -0.51503808176128008 0.85716729658548041 forward_v I I I I #
coedge $-1 $259 $260 $261 $262 reversed $93 $-1 #
coedge $-1 $153 $95 $263 $264 reversed $60 $-1 #
coedge $-1 $95 $152 $259 $265 reversed $60 $-1 #
coedge $-1 $261 $266 $95 $155 forward $267 $-1 #
edge $-1 $268 51.561207669133395 $269 61.389172494562885 $154 $270 forward 7 unknown #
loop $-1 $-1 $161 $96 #
plane-surface $-1 -35.912818866217208 -42.903240695483007 1.230091123961742 0 -0.51503808176128008 0.85716729658548041 1 0 0 forward_v I I I I #
loop $-1 $-1 $271 $62 #
coedge $-1 $159 $159 $160 $272 reversed $97 $-1 #
coedge $-1 $160 $160 $159 $272 forward $99 $-1 #
coedge $-1 $161 $161 $100 $162 forward $156 $-1 #
edge $-1 $273 -1.0586371542140706e-015 $273 6.2831853071795996 $161 $274 forward 7 unknown #
face $-1 $275 $276 $35 $-1 $277 reversed single #
loop $-1 $-1 $278 $101 #
plane-surface $-1 42.83988762189427 -117.41502773206594 125.23852723704923 -1 0 0 0 -0.51503808176128008 0.85716729658548041 forward_v I I I I #
coedge $-1 $279 $280 $281 $282 reversed $102 $-1 #
coedge $-1 $168 $104 $283 $284 reversed $66 $-1 #
coedge $-1 $104 $167 $279 $285 reversed $66 $-1 #
coedge $-1 $281 $286 $104 $170 forward $276 $-1 #
edge $-1 $287 51.561207669133395 $288 61.389172494562885 $169 $289 forward 7 unknown #
loop $-1 $-1 $176 $105 #
plane-surface $-1 28.620564154120672 -42.903240695483007 1.230091123961742 0 -0.51503808176128008 0.85716729658548041 1 0 0 forward_v I I I I #
loop $-1 $-1 $290 $68 #
coedge $-1 $174 $174 $175 $291 reversed $106 $-1 #
coedge $-1 $175 $175 $174 $291 forward $108 $-1 #
coedge $-1 $176 $176 $109 $177 forward $171 $-1 #
edge $-1 $292 -1.0586371542140706e-015 $292 6.2831853071795996 $176 $293 forward 7 unknown #
face $-1 $294 $295 $37 $-1 $296 reversed single #
loop $-1 $-1 $297 $110 #
plane-surface $-1 -25.018719987510902 78.814683227613926 166.95544587771479 1 0 0 0 -0.68199836817093118 -0.7313536940579346 forward_v I I I I #
coedge $-1 $298 $299 $300 $301 reversed $111 $-1 #
coedge $-1 $183 $113 $302 $303 reversed $72 $-1 #
coedge $-1 $113 $182 $298 $304 reversed $72 $-1 #
coedge $-1 $300 $305 $113 $185 forward $295 $-1 #
edge $-1 $306 72.41966698946618 $307 80.848839669134975 $184 $308 forward 7 unknown #
loop $-1 $-1 $191 $114 #
plane-surface $-1 -6.4748504082209024 -19.851646443913381 61.148763556850597 0 0.68199836817093118 0.7313536940579346 1 0 0 forward_v I I I I #
loop $-1 $-1 $309 $74 #
coedge $-1 $189 $189 $190 $310 reversed $115 $-1 #
coedge $-1 $190 $190 $189 $310 forward $117 $-1 #
coedge $-1 $191 $191 $118 $192 forward $186 $-1 #
edge $-1 $311 -1.0456940787854209e-015 $311 6.2831853071795996 $191 $312 forward 7 unknown #
loop $-1 $-1 $198 $119 #
plane-surface $-1 -6.4748504082209024 -19.851646443913381 61.148763556850597 0 0.68199836817093118 0.7313536940579346 1 0 0 forward_v I I I I #
loop $-1 $-1 $313 $77 #
coedge $-1 $196 $196 $197 $314 reversed $120 $-1 #
coedge $-1 $197 $197 $196 $314 forward $122 $-1 #
coedge $-1 $198 $198 $123 $199 forward $193 $-1 #
edge $-1 $315 -1.0456940787854209e-015 $315 6.2831853071795996 $198 $316 forward 7 unknown #
face $-1 $317 $318 $30 $-1 $319 reversed single #
loop $-1 $-1 $320 $124 #
plane-surface $-1 -72.336191900387576 0 0 1 0 0 0 0 -1 forward_v I I I I #
coedge $-1 $321 $211 $322 $323 forward $125 $-1 #
coedge $-1 $324 $127 $321 $325 forward $81 $-1 #
coedge $-1 $127 $324 $326 $327 forward $81 $-1 #
coedge $-1 $214 $213 $127 $207 reversed $215 $-1 #
edge $-1 $328 -42.903240695483028 $329 42.903240695483028 $206 $330 forward 7 unknown #
coedge $-1 $129 $128 $331 $332 forward $51 $-1 #
coedge $-1 $333 $334 $128 $210 reversed $318 $-1 #
edge $-1 $217 -72.336191900387576 $335 72.336191900387576 $209 $336 forward 7 unknown #
coedge $-1 $203 $337 $129 $212 reversed $125 $-1 #
edge $-1 $338 -72.336191900387576 $216 72.336191900387576 $211 $339 forward 7 unknown #
coedge $-1 $206 $130 $337 $340 forward $215 $-1 #
coedge $-1 $130 $206 $333 $341 reversed $215 $-1 #
loop $-1 $-1 $213 $317 #
vertex $-1 $131 $342 #
vertex $-1 $131 $343 #
straight-curve $-1 72.336191900387576 0 11.058055949391214 0 1 0 I I #
face $-1 $344 $345 $31 $-1 $346 reversed single #
loop $-1 $-1 $347 $132 #
plane-surface $-1 0 -42.903240695483028 0 0 1 0 0 0 1 forward_v I I I I #
coedge $-1 $225 $138 $348 $349 reversed $133 $-1 #
coedge $-1 $350 $135 $347 $351 reversed $85 $-1 #
coedge $-1 $135 $350 $352 $353 reversed $85 $-1 #
coedge $-1 $232 $222 $135 $226 reversed $133 $-1 #
edge $-1 $354 -42.903240695483028 $355 42.903240695483028 $225 $356 forward 7 unknown #
coedge $-1 $137 $136 $357 $358 reversed $54 $-1 #
coedge $-1 $359 $360 $136 $229 forward $361 $-1 #
edge $-1 $362 -38.118798170206212 $234 -30.315989290156516 $228 $363 forward 7 unknown #
coedge $-1 $364 $348 $137 $231 forward $220 $-1 #
edge $-1 $233 30.315989290156516 $365 38.118798170206212 $230 $366 forward 7 unknown #
coedge $-1 $138 $225 $359 $367 reversed $133 $-1 #
vertex $-1 $231 $368 #
vertex $-1 $229 $369 #
straight-curve $-1 -64.53338302033788 0 10.558055949391214 0 1 0 I I #
face $-1 $370 $371 $32 $-1 $372 reversed single #
loop $-1 $-1 $247 $140 #
plane-surface $-1 0 -42.903240695483028 0 0 1 0 0 0 1 forward_v I I I I #
coedge $-1 $373 $374 $375 $376 reversed $141 $-1 #
coedge $-1 $377 $143 $378 $379 reversed $89 $-1 #
coedge $-1 $143 $377 $380 $381 reversed $89 $-1 #
coedge $-1 $250 $249 $143 $243 forward $251 $-1 #
edge $-1 $382 -42.903240695483028 $383 42.903240695483028 $242 $384 forward 7 unknown #
coedge $-1 $145 $144 $374 $385 forward $57 $-1 #
coedge $-1 $386 $375 $144 $246 forward $371 $-1 #
edge $-1 $387 30.315989290156509 $252 38.118798170206205 $245 $388 forward 7 unknown #
coedge $-1 $389 $390 $145 $248 forward $237 $-1 #
edge $-1 $253 -38.118798170206205 $391 -30.315989290156509 $247 $392 forward 7 unknown #
coedge $-1 $242 $146 $390 $393 forward $251 $-1 #
coedge $-1 $146 $242 $386 $394 reversed $251 $-1 #
loop $-1 $-1 $146 $370 #
vertex $-1 $394 $395 #
vertex $-1 $393 $396 #
straight-curve $-1 72.336191900387576 0 10.558055949391214 0 -1 0 I I #
face $-1 $-1 $267 $33 $-1 $397 reversed single #
loop $-1 $-1 $398 $148 #
plane-surface $-1 0 0 11.058055949391214 0 0 1 1 0 0 forward_v I I I I #
coedge $-1 $399 $400 $401 $402 reversed $149 $-1 #
coedge $-1 $403 $151 $153 $265 forward $93 $-1 #
coedge $-1 $151 $403 $399 $404 forward $93 $-1 #
coedge $-1 $401 $154 $151 $262 forward $267 $-1 #
edge $-1 $269 -32.175732900882203 $405 -3.7370859653350053 $261 $406 forward 7 unknown #
coedge $-1 $407 $408 $152 $264 forward $256 $-1 #
edge $-1 $409 -32.160753086641279 $268 -15.804273170549941 $263 $410 forward 7 unknown #
edge $-1 $269 -2.49045826659878e-014 $409 19.082015822637224 $153 $411 forward 7 unknown #
coedge $-1 $154 $401 $407 $412 reversed $267 $-1 #
loop $-1 $-1 $401 $255 #
vertex $-1 $412 $413 #
vertex $-1 $155 $414 #
straight-curve $-1 -50.132142333990807 -42.903240695483028 62.619263618524613 0 0 -1 I I #
coedge $-1 $271 $271 $-1 $415 reversed $158 $-1 #
edge $-1 $416 0 $416 6.2831853071796004 $159 $417 forward 7 unknown #
vertex $-1 $162 $418 #
ellipse-curve $-1 -35.912818866217208 -34.725000737437369 6.1440735366764656 0 -0.51503808176128008 0.85716729658548041 2 0 0 1 I I #
face $-1 $-1 $419 $35 $-1 $420 forward single #
loop $-1 $-1 $169 $163 #
plane-surface $-1 0 -42.903240695483028 0 0 1 0 0 0 1 forward_v I I I I #
coedge $-1 $421 $422 $423 $424 reversed $164 $-1 #
coedge $-1 $425 $166 $168 $285 forward $102 $-1 #
coedge $-1 $166 $425 $421 $426 forward $102 $-1 #
coedge $-1 $423 $169 $166 $282 forward $276 $-1 #
edge $-1 $288 0.090958609286738934 $427 28.529605544833935 $281 $428 forward 7 unknown #
coedge $-1 $429 $430 $167 $284 forward $419 $-1 #
edge $-1 $431 -32.160753086641279 $287 -15.804273170549941 $283 $432 forward 7 unknown #
edge $-1 $288 -2.49045826659878e-014 $431 19.082015822637224 $168 $433 forward 7 unknown #
coedge $-1 $169 $423 $429 $434 reversed $276 $-1 #
vertex $-1 $434 $435 #
vertex $-1 $170 $436 #
straight-curve $-1 14.401240686347075 -42.903240695483028 62.619263618524613 0 0 -1 I I #
coedge $-1 $290 $290 $-1 $437 reversed $173 $-1 #
edge $-1 $438 0 $438 6.2831853071796004 $174 $439 forward 7 unknown #
vertex $-1 $177 $440 #
ellipse-curve $-1 28.620564154120672 -34.725000737437369 6.1440735366764656 0 -0.51503808176128008 0.85716729658548041 2 0 0 1 I I #
face $-1 $-1 $441 $37 $-1 $442 forward single #
loop $-1 $-1 $184 $178 #
plane-surface $-1 0 42.903240695483028 0 0 -1 0 0 0 -1 forward_v I I I I #
coedge $-1 $443 $444 $445 $446 reversed $179 $-1 #
coedge $-1 $447 $181 $183 $304 forward $111 $-1 #
coedge $-1 $181 $447 $443 $448 forward $111 $-1 #
coedge $-1 $445 $184 $181 $301 forward $295 $-1 #
edge $-1 $307 -15.306444375179549 $449 21.781294783400451 $300 $450 forward 7 unknown #
coedge $-1 $451 $452 $182 $303 forward $441 $-1 #
edge $-1 $453 -5.5432817504735539 $306 3.4958990816760647 $302 $454 forward 7 unknown #
edge $-1 $307 -85.806481390965999 $453 -73.446961085550583 $183 $455 forward 7 unknown #
coedge $-1 $184 $445 $451 $456 reversed $295 $-1 #
vertex $-1 $456 $457 #
vertex $-1 $185 $458 #
straight-curve $-1 12.069019171069097 42.903240695483028 83.477722938857397 0 0 -1 I I #
coedge $-1 $309 $309 $-1 $459 reversed $188 $-1 #
edge $-1 $460 0 $460 6.2831853071796004 $189 $461 forward 7 unknown #
vertex $-1 $192 $462 #
ellipse-curve $-1 -14.422223085059471 38.383650279408222 6.8434696095568119 0 0.68199836817093118 0.7313536940579346 2.5 0 0 1 I I #
coedge $-1 $313 $313 $-1 $463 reversed $195 $-1 #
edge $-1 $464 0 $464 6.2831853071796004 $196 $465 forward 7 unknown #
vertex $-1 $199 $466 #
ellipse-curve $-1 1.4725222686176664 38.383650279408222 6.8434696095568119 0 0.68199836817093118 0.7313536940579346 2.5 0 0 1 I I #
face $-1 $-1 $215 $30 $-1 $467 reversed single #
loop $-1 $-1 $333 $200 #
plane-surface $-1 0 42.903240695483028 0 0 -1 0 0 0 -1 forward_v I I I I #
coedge $-1 $468 $331 $334 $469 forward $201 $-1 #
coedge $-1 $337 $203 $204 $325 reversed $125 $-1 #
coedge $-1 $331 $468 $203 $323 reversed $201 $-1 #
edge $-1 $338 -11.058055949391214 $470 11.058055949391214 $322 $471 forward 7 unknown #
coedge $-1 $205 $204 $468 $472 forward $81 $-1 #
edge $-1 $329 -72.336191900387576 $470 72.336191900387576 $321 $473 forward 7 unknown #
coedge $-1 $334 $333 $205 $327 reversed $318 $-1 #
edge $-1 $474 -72.336191900387576 $328 72.336191900387576 $326 $475 forward 7 unknown #
vertex $-1 $207 $476 #
vertex $-1 $340 $477 #
straight-curve $-1 72.336191900387576 0 -11.058055949391214 0 -1 0 I I #
coedge $-1 $320 $322 $208 $332 reversed $201 $-1 #
edge $-1 $335 -42.903240695483028 $338 42.903240695483028 $331 $478 forward 7 unknown #
coedge $-1 $326 $209 $214 $341 forward $318 $-1 #
coedge $-1 $209 $326 $320 $469 reversed $318 $-1 #
vertex $-1 $210 $479 #
straight-curve $-1 0 42.903240695483028 11.058055949391214 -1 0 0 I I #
coedge $-1 $211 $321 $213 $340 reversed $125 $-1 #
vertex $-1 $332 $480 #
straight-curve $-1 0 -42.903240695483028 11.058055949391214 1 0 0 I I #
edge $-1 $216 -11.058055949391214 $329 11.058055949391214 $213 $481 forward 7 unknown #
edge $-1 $217 -11.058055949391214 $328 11.058055949391214 $214 $482 forward 7 unknown #
point $-1 72.336191900387576 -42.903240695483028 11.058055949391214 #
point $-1 72.336191900387576 42.903240695483028 11.058055949391214 #
face $-1 $-1 $361 $31 $-1 $483 reversed single #
loop $-1 $-1 $484 $219 #
plane-surface $-1 -72.336191900387576 0 0 1 0 0 0 0 -1 forward_v I I I I #
coedge $-1 $348 $364 $223 $351 forward $220 $-1 #
coedge $-1 $230 $347 $222 $349 forward $220 $-1 #
edge $-1 $355 3.029027974695607 $233 6.029027974695607 $348 $485 forward 7 unknown #
coedge $-1 $224 $223 $484 $486 reversed $85 $-1 #
edge $-1 $487 -38.118798170206212 $355 -30.315989290156516 $347 $488 forward 7 unknown #
coedge $-1 $360 $359 $224 $353 forward $361 $-1 #
edge $-1 $354 30.315989290156516 $489 38.118798170206212 $352 $490 forward 7 unknown #
vertex $-1 $353 $491 #
vertex $-1 $351 $492 #
straight-curve $-1 -64.53338302033788 0 7.5580559493912141 0 -1 0 I I #
coedge $-1 $493 $494 $227 $358 forward $345 $-1 #
edge $-1 $365 -42.903240695483028 $362 42.903240695483028 $357 $495 forward 7 unknown #
coedge $-1 $352 $228 $232 $367 forward $361 $-1 #
coedge $-1 $228 $352 $493 $496 reversed $361 $-1 #
loop $-1 $-1 $352 $344 #
vertex $-1 $496 $497 #
straight-curve $-1 -34.217393730181364 42.903240695483028 10.558055949391214 1 0 0 I I #
coedge $-1 $347 $230 $494 $498 forward $220 $-1 #
vertex $-1 $498 $499 #
straight-curve $-1 -34.217393730181364 -42.903240695483028 10.558055949391214 -1 0 0 I I #
edge $-1 $234 -6.029027974695607 $354 -3.029027974695607 $359 $500 forward 7 unknown #
point $-1 -64.53338302033788 -42.903240695483028 10.558055949391214 #
point $-1 -64.53338302033788 42.903240695483028 10.558055949391214 #
face $-1 $-1 $251 $32 $-1 $501 reversed single #
loop $-1 $-1 $245 $236 #
plane-surface $-1 0 42.903240695483028 0 0 -1 0 0 0 -1 forward_v I I I I #
coedge $-1 $502 $239 $377 $503 reversed $141 $-1 #
coedge $-1 $239 $502 $244 $385 reversed $141 $-1 #
coedge $-1 $245 $380 $239 $376 forward $371 $-1 #
edge $-1 $504 3.029027974695607 $387 6.029027974695607 $375 $505 forward 7 unknown #
coedge $-1 $241 $240 $373 $503 forward $89 $-1 #
coedge $-1 $390 $389 $240 $379 forward $237 $-1 #
edge $-1 $506 30.315989290156509 $382 38.118798170206205 $378 $507 forward 7 unknown #
coedge $-1 $375 $386 $241 $381 forward $371 $-1 #
edge $-1 $383 -38.118798170206205 $504 -30.315989290156509 $380 $508 forward 7 unknown #
vertex $-1 $243 $509 #
vertex $-1 $243 $510 #
straight-curve $-1 72.336191900387576 0 7.5580559493912141 0 1 0 I I #
edge $-1 $387 -42.903240695483028 $391 42.903240695483028 $374 $511 forward 7 unknown #
coedge $-1 $380 $245 $250 $394 forward $371 $-1 #
vertex $-1 $246 $512 #
straight-curve $-1 34.217393730181357 42.903240695483028 10.558055949391214 1 0 0 I I #
coedge $-1 $378 $247 $502 $513 forward $237 $-1 #
coedge $-1 $247 $378 $249 $393 reversed $237 $-1 #
vertex $-1 $248 $514 #
straight-curve $-1 34.217393730181357 -42.903240695483028 10.558055949391214 -1 0 0 I I #
edge $-1 $253 -10.558055949391214 $382 -7.5580559493912141 $249 $515 forward 7 unknown #
edge $-1 $252 -10.558055949391214 $383 -7.5580559493912141 $250 $516 forward 7 unknown #
point $-1 72.336191900387561 42.903240695483028 10.558055949391214 #
point $-1 72.336191900387561 -42.903240695483028 10.558055949391214 #
plane-surface $-1 0 -42.903240695483028 0 0 1 0 0 0 1 forward_v I I I I #
coedge $-1 $408 $407 $400 $517 forward $256 $-1 #
coedge $-1 $400 $258 $260 $404 reversed $149 $-1 #
coedge $-1 $258 $399 $398 $517 reversed $149 $-1 #
coedge $-1 $266 $261 $258 $402 forward $267 $-1 #
edge $-1 $405 -61.389172494562885 $518 -51.561207669133395 $401 $519 forward 7 unknown #
coedge $-1 $260 $259 $408 $520 reversed $93 $-1 #
edge $-1 $521 -19.082015822637224 $405 2.49045826659878e-014 $399 $522 forward 7 unknown #
vertex $-1 $262 $523 #
straight-curve $-1 -17.956409433108604 -42.903240695483028 1.2300911239617316 1 0 0 I I #
coedge $-1 $398 $263 $266 $412 forward $256 $-1 #
coedge $-1 $263 $398 $403 $520 forward $256 $-1 #
vertex $-1 $264 $524 #
straight-curve $-1 -50.132142333990807 -58.707513866032969 11.058055949391218 0 -1 0 I I #
straight-curve $-1 -50.132142333990807 -42.903240695483007 1.230091123961742 0 0.85716729658548041 0.51503808176128008 I I #
edge $-1 $268 -50.132142333990807 $518 -21.693495398443609 $266 $525 forward 7 unknown #
point $-1 -50.132142333990807 -42.903240695483028 11.058055949391214 #
point $-1 -50.132142333990807 -42.903240695483028 1.2300911239617291 #
edge $-1 $526 1 $526 0 $271 $-1 forward 7 unknown #
vertex $-1 $272 $527 #
ellipse-curve $-1 -35.912818866217208 -31.907765850313101 1.4554074019616208 0 -0.51503808176128008 0.85716729658548041 2 0 0 1 I I #
point $-1 -33.912818866217208 -34.725000737437384 6.1440735366764851 #
loop $-1 $-1 $283 $275 #
plane-surface $-1 0 0 11.058055949391214 0 0 1 1 0 0 forward_v I I I I #
coedge $-1 $422 $278 $280 $426 reversed $164 $-1 #
coedge $-1 $278 $421 $528 $529 reversed $164 $-1 #
coedge $-1 $286 $281 $278 $424 forward $276 $-1 #
edge $-1 $427 -61.389172494562885 $530 -51.561207669133395 $423 $531 forward 7 unknown #
coedge $-1 $280 $279 $430 $532 reversed $102 $-1 #
edge $-1 $533 -19.082015822637224 $427 2.49045826659878e-014 $421 $534 forward 7 unknown #
vertex $-1 $282 $535 #
straight-curve $-1 14.310282077060336 -42.903240695483028 1.2300911239617316 1 0 0 I I #
coedge $-1 $528 $283 $286 $434 forward $419 $-1 #
coedge $-1 $283 $528 $425 $532 forward $419 $-1 #
vertex $-1 $284 $536 #
straight-curve $-1 14.401240686347075 -58.707513866032969 11.058055949391218 0 -1 0 I I #
straight-curve $-1 14.401240686347075 -42.903240695483007 1.230091123961742 0 0.85716729658548041 0.51503808176128008 I I #
edge $-1 $287 14.401240686347075 $530 42.83988762189427 $286 $537 forward 7 unknown #
point $-1 14.401240686347075 -42.903240695483028 11.058055949391214 #
point $-1 14.401240686347075 -42.903240695483028 1.2300911239617291 #
edge $-1 $538 1 $538 0 $290 $-1 forward 7 unknown #
vertex $-1 $291 $539 #
ellipse-curve $-1 28.620564154120672 -31.907765850313101 1.4554074019616208 0 -0.51503808176128008 0.85716729658548041 2 0 0 1 I I #
point $-1 30.620564154120672 -34.725000737437384 6.1440735366764851 #
loop $-1 $-1 $302 $294 #
plane-surface $-1 0 0 11.058055949391214 0 0 1 1 0 0 forward_v I I I I #
coedge $-1 $444 $297 $299 $448 reversed $179 $-1 #
coedge $-1 $297 $443 $540 $541 reversed $179 $-1 #
coedge $-1 $305 $300 $297 $446 forward $295 $-1 #
edge $-1 $449 -80.848839669134975 $542 -72.41966698946618 $445 $543 forward 7 unknown #
coedge $-1 $299 $298 $452 $544 reversed $111 $-1 #
edge $-1 $545 73.446961085550583 $449 85.806481390965999 $443 $546 forward 7 unknown #
vertex $-1 $301 $547 #
straight-curve $-1 -3.2374252041104512 42.903240695483021 2.6288832697224152 -1 0 0 I I #
coedge $-1 $540 $302 $305 $456 forward $441 $-1 #
coedge $-1 $302 $540 $447 $544 forward $441 $-1 #
vertex $-1 $303 $548 #
straight-curve $-1 12.069019171069097 39.407341613806963 11.058055949391218 0 1 0 I I #
straight-curve $-1 12.069019171069097 -19.851646443913381 61.148763556850597 0 -0.7313536940579346 0.68199836817093118 I I #
edge $-1 $306 -12.069019171069097 $542 25.018719987510902 $305 $549 forward 7 unknown #
point $-1 12.069019171069097 42.903240695483028 11.058055949391214 #
point $-1 12.069019171069097 42.903240695483028 2.6288832697224152 #
edge $-1 $550 1 $550 0 $309 $-1 forward 7 unknown #
vertex $-1 $310 $551 #
ellipse-curve $-1 -14.422223085059471 34.328541722911027 2.4948981744755327 0 0.68199836817093118 0.7313536940579346 2.5 0 0 1 I I #
point $-1 -11.922223085059471 38.383650279408194 6.8434696095567853 #
edge $-1 $552 1 $552 0 $313 $-1 forward 7 unknown #
vertex $-1 $314 $553 #
ellipse-curve $-1 1.4725222686176664 34.328541722911027 2.4948981744755327 0 0.68199836817093118 0.7313536940579346 2.5 0 0 1 I I #
point $-1 3.9725222686176664 38.383650279408194 6.8434696095567853 #
plane-surface $-1 72.336191900387576 0 0 -1 0 0 0 0 1 forward_v I I I I #
coedge $-1 $322 $320 $324 $472 reversed $201 $-1 #
edge $-1 $335 -11.058055949391214 $474 11.058055949391214 $334 $554 forward 7 unknown #
vertex $-1 $472 $555 #
straight-curve $-1 -72.336191900387576 -42.903240695483028 0 0 0 -1 I I #
edge $-1 $470 -42.903240695483028 $474 42.903240695483028 $468 $556 forward 7 unknown #
straight-curve $-1 0 -42.903240695483028 -11.058055949391214 -1 0 0 I I #
vertex $-1 $327 $557 #
straight-curve $-1 0 42.903240695483028 -11.058055949391214 1 0 0 I I #
point $-1 72.336191900387576 42.903240695483028 -11.058055949391214 #
point $-1 72.336191900387576 -42.903240695483028 -11.058055949391214 #
straight-curve $-1 -72.336191900387576 0 11.058055949391214 0 -1 0 I I #
point $-1 -72.336191900387576 42.903240695483028 11.058055949391214 #
point $-1 -72.336191900387576 -42.903240695483028 11.058055949391214 #
straight-curve $-1 72.336191900387576 -42.903240695483028 0 0 0 -1 I I #
straight-curve $-1 72.336191900387576 42.903240695483028 0 0 0 -1 I I #
plane-surface $-1 0 42.903240695483028 0 0 -1 0 0 0 -1 forward_v I I I I #
coedge $-1 $494 $493 $350 $486 forward $345 $-1 #
straight-curve $-1 -64.53338302033788 -42.903240695483028 4.529027974695607 0 0 1 I I #
edge $-1 $489 -42.903240695483028 $487 42.903240695483028 $484 $558 forward 7 unknown #
vertex $-1 $351 $559 #
straight-curve $-1 -34.217393730181364 -42.903240695483028 7.5580559493912141 1 0 0 I I #
vertex $-1 $353 $560 #
straight-curve $-1 -34.217393730181364 42.903240695483028 7.5580559493912141 -1 0 0 I I #
point $-1 -64.53338302033788 42.903240695483028 7.5580559493912141 #
point $-1 -64.53338302033788 -42.903240695483028 7.5580559493912141 #
coedge $-1 $484 $357 $360 $496 forward $345 $-1 #
coedge $-1 $357 $484 $364 $498 reversed $345 $-1 #
straight-curve $-1 -72.336191900387576 0 10.558055949391214 0 1 0 I I #
edge $-1 $362 -10.558055949391214 $489 -7.5580559493912141 $360 $561 forward 7 unknown #
point $-1 -72.336191900387576 42.903240695483028 10.558055949391214 #
edge $-1 $365 -10.558055949391214 $487 -7.5580559493912141 $494 $562 forward 7 unknown #
point $-1 -72.336191900387576 -42.903240695483028 10.558055949391214 #
straight-curve $-1 -64.53338302033788 42.903240695483028 4.529027974695607 0 0 -1 I I #
plane-surface $-1 72.336191900387576 0 0 -1 0 0 0 0 1 forward_v I I I I #
coedge $-1 $374 $373 $389 $513 reversed $141 $-1 #
edge $-1 $506 -42.903240695483028 $504 42.903240695483028 $373 $563 forward 7 unknown #
vertex $-1 $381 $564 #
straight-curve $-1 64.533383020337865 42.903240695483028 4.529027974695607 0 0 1 I I #
vertex $-1 $379 $565 #
straight-curve $-1 34.217393730181357 -42.903240695483028 7.5580559493912141 1 0 0 I I #
straight-curve $-1 34.217393730181357 42.903240695483028 7.5580559493912141 -1 0 0 I I #
point $-1 72.336191900387561 -42.903240695483028 7.5580559493912141 #
point $-1 72.336191900387561 42.903240695483028 7.5580559493912141 #
straight-curve $-1 64.533383020337865 0 10.558055949391214 0 -1 0 I I #
point $-1 64.533383020337865 42.903240695483028 10.558055949391214 #
edge $-1 $391 -6.029027974695607 $506 -3.029027974695607 $389 $566 forward 7 unknown #
point $-1 64.533383020337865 -42.903240695483028 10.558055949391214 #
straight-curve $-1 72.336191900387576 -42.903240695483028 0 0 0 -1 I I #
straight-curve $-1 72.336191900387576 42.903240695483028 0 0 0 -1 I I #
edge $-1 $518 15.804273170549941 $521 32.160753086641279 $398 $567 forward 7 unknown #
vertex $-1 $517 $568 #
straight-curve $-1 -21.693495398443609 -42.903240695483028 62.619263618524613 0 0 1 I I #
edge $-1 $521 3.7370859653350053 $409 32.175732900882203 $408 $569 forward 7 unknown #
vertex $-1 $520 $570 #
straight-curve $-1 -21.693495398443609 -42.903240695483007 1.230091123961742 0 -0.85716729658548041 -0.51503808176128008 I I #
point $-1 -21.693495398443609 -42.903240695483028 1.2300911239617291 #
point $-1 -50.132142333990807 -26.546760779391693 11.058055949391214 #
straight-curve $-1 0 -42.903240695483028 11.058055949391214 1 0 0 I I #
vertex $-1 $415 $571 #
point $-1 -33.912818866217208 -31.907765850313101 1.4554074019616208 #
coedge $-1 $430 $429 $422 $529 forward $419 $-1 #
edge $-1 $530 15.804273170549941 $533 32.160753086641279 $528 $572 forward 7 unknown #
vertex $-1 $529 $573 #
straight-curve $-1 42.83988762189427 -42.903240695483028 62.619263618524613 0 0 1 I I #
edge $-1 $533 -28.529605544833935 $431 -0.090958609286738934 $430 $574 forward 7 unknown #
vertex $-1 $532 $575 #
straight-curve $-1 42.83988762189427 -42.903240695483007 1.230091123961742 0 -0.85716729658548041 -0.51503808176128008 I I #
point $-1 42.83988762189427 -42.903240695483028 1.2300911239617291 #
point $-1 14.401240686347075 -26.546760779391693 11.058055949391214 #
straight-curve $-1 0 -42.903240695483028 11.058055949391214 1 0 0 I I #
vertex $-1 $437 $576 #
point $-1 30.620564154120672 -31.907765850313101 1.4554074019616208 #
coedge $-1 $452 $451 $444 $541 forward $441 $-1 #
edge $-1 $542 -3.4958990816760647 $545 5.5432817504735539 $540 $577 forward 7 unknown #
vertex $-1 $541 $578 #
straight-curve $-1 -25.018719987510902 42.903240695483028 83.477722938857397 0 0 1 I I #
edge $-1 $545 -21.781294783400451 $453 15.306444375179549 $452 $579 forward 7 unknown #
vertex $-1 $544 $580 #
straight-curve $-1 -25.018719987510902 -19.851646443913381 61.148763556850597 0 0.7313536940579346 -0.68199836817093118 I I #
point $-1 -25.018719987510902 42.903240695483028 2.6288832697224152 #
point $-1 12.069019171069097 33.864059863333409 11.058055949391218 #
straight-curve $-1 0 42.903240695483028 11.058055949391214 -1 0 0 I I #
vertex $-1 $459 $581 #
point $-1 -11.922223085059471 34.328541722911027 2.4948981744755327 #
vertex $-1 $463 $582 #
point $-1 3.9725222686176664 34.328541722911027 2.4948981744755327 #
straight-curve $-1 -72.336191900387576 42.903240695483028 0 0 0 -1 I I #
point $-1 -72.336191900387576 -42.903240695483028 -11.058055949391214 #
straight-curve $-1 -72.336191900387576 0 -11.058055949391214 0 1 0 I I #
point $-1 -72.336191900387576 42.903240695483028 -11.058055949391214 #
straight-curve $-1 -72.336191900387576 0 7.5580559493912141 0 -1 0 I I #
point $-1 -72.336191900387576 -42.903240695483028 7.5580559493912141 #
point $-1 -72.336191900387576 42.903240695483028 7.5580559493912141 #
straight-curve $-1 -72.336191900387576 42.903240695483028 0 0 0 -1 I I #
straight-curve $-1 -72.336191900387576 -42.903240695483028 0 0 0 -1 I I #
straight-curve $-1 64.533383020337865 0 7.5580559493912141 0 1 0 I I #
point $-1 64.533383020337865 42.903240695483028 7.5580559493912141 #
point $-1 64.533383020337865 -42.903240695483028 7.5580559493912141 #
straight-curve $-1 64.533383020337865 -42.903240695483028 4.529027974695607 0 0 -1 I I #
straight-curve $-1 -21.693495398443609 -58.707513866032969 11.058055949391218 0 1 0 I I #
point $-1 -21.693495398443609 -42.903240695483028 11.058055949391214 #
straight-curve $-1 -17.956409433108604 -26.546760779391693 11.058055949391214 -1 0 0 I I #
point $-1 -21.693495398443609 -26.546760779391693 11.058055949391214 #
point $-1 -35.912818866217208 -30.877689686790543 -0.25892719120934005 #
straight-curve $-1 42.83988762189427 -58.707513866032969 11.058055949391218 0 1 0 I I #
point $-1 42.83988762189427 -42.903240695483028 11.058055949391214 #
straight-curve $-1 14.310282077060336 -26.546760779391693 11.058055949391214 -1 0 0 I I #
point $-1 42.83988762189427 -26.546760779391693 11.058055949391214 #
point $-1 28.620564154120672 -30.877689686790543 -0.25892719120934005 #
straight-curve $-1 -25.018719987510902 39.407341613806963 11.058055949391218 0 -1 0 I I #
point $-1 -25.018719987510902 42.903240695483028 11.058055949391214 #
straight-curve $-1 -3.2374252041104512 33.864059863333395 11.058055949391218 1 0 0 I I #
point $-1 -25.018719987510902 33.864059863333409 11.058055949391218 #
point $-1 -14.422223085059471 32.623545802483704 0.66651393933069614 #
point $-1 1.4725222686176664 32.623545802483704 0.66651393933069614 #
End-of-ACIS-data 