500 0 6 0           
7 Unknown 11 ACIS 5.0 NT 24 Thu Mar 25 18:12:10 1999 
-1 9.9999999999999995e-007 1e-010 
body $-1 $6 $-1 $7 #
body $-1 $8 $-1 $9 #
body $-1 $10 $-1 $11 #
body $-1 $12 $-1 $13 #
body $-1 $14 $-1 $15 #
body $-1 $16 $-1 $17 #
lump $-1 $-1 $18 $0 #
transform $-1 1 0 0 0 1 0 0 0 1 46.706747642445144 21.992525041223111 5.5125951695632125 1 rotate no_reflect no_shear #
lump $-1 $-1 $19 $1 #
transform $-1 1 0 0 0 1 0 0 0 1 46.706747642445144 21.992525041223111 5.5125951695632125 1 rotate no_reflect no_shear #
lump $-1 $-1 $20 $2 #
transform $-1 1 0 0 0 1 0 0 0 1 46.706747642445144 21.992525041223111 5.5125951695632125 1 rotate no_reflect no_shear #
lump $-1 $-1 $21 $3 #
transform $-1 1 0 0 0 1 0 0 0 1 46.706747642445144 21.992525041223111 5.5125951695632125 1 rotate no_reflect no_shear #
lump $-1 $-1 $22 $4 #
transform $-1 1 0 0 0 1 0 0 0 1 46.706747642445144 21.992525041223111 5.5125951695632125 1 rotate no_reflect no_shear #
lump $-1 $-1 $23 $5 #
transform $-1 1 0 0 0 1 0 0 0 1 46.706747642445144 21.992525041223111 5.5125951695632125 1 rotate no_reflect no_shear #
shell $-1 $-1 $-1 $24 $-1 $6 #
shell $-1 $-1 $-1 $25 $-1 $8 #
shell $-1 $-1 $-1 $26 $-1 $10 #
shell $-1 $-1 $-1 $27 $-1 $12 #
shell $-1 $-1 $-1 $28 $-1 $14 #
shell $-1 $-1 $-1 $29 $-1 $16 #
face $-1 $30 $31 $18 $-1 $32 forward single #
face $-1 $33 $34 $19 $-1 $35 forward single #
face $-1 $36 $37 $20 $-1 $38 reversed single #
face $-1 $39 $40 $21 $-1 $41 forward single #
face $-1 $42 $43 $22 $-1 $44 reversed single #
face $-1 $45 $46 $23 $-1 $47 forward single #
face $-1 $48 $49 $18 $-1 $50 reversed single #
loop $-1 $-1 $51 $24 #
plane-surface $-1 0 0 5.5125951695632125 0 0 1 1 0 0 forward_v I I I I #
face $-1 $52 $53 $19 $-1 $54 reversed single #
loop $-1 $-1 $55 $25 #
plane-surface $-1 -46.706747642445144 0 0 1 0 0 0 0 -1 forward_v I I I I #
face $-1 $56 $57 $20 $-1 $58 reversed single #
loop $-1 $-1 $59 $26 #
plane-surface $-1 -23.876885923646913 -71.494136385657754 79.609901064014878 -1 0 0 0 -0.52991927123019833 0.84804809178421925 forward_v I I I I #
face $-1 $60 $61 $21 $-1 $62 forward single #
loop $-1 $63 $64 $27 #
cone-surface $-1 -30.844220763667327 -16.537408827672504 0.78035379327546339 0 0.52991927123019833 -0.84804809178421925 2 0 0 1 I I 0 1 2 forward I I I I #
face $-1 $65 $66 $22 $-1 $67 reversed single #
loop $-1 $-1 $68 $28 #
plane-surface $-1 20.352040448794391 -71.494136385657754 79.609901064014878 -1 0 0 0 -0.52991927123019833 0.84804809178421925 forward_v I I I I #
face $-1 $69 $70 $23 $-1 $71 forward single #
loop $-1 $72 $73 $29 #
cone-surface $-1 13.384705608773977 -16.537408827672504 0.78035379327546339 0 0.52991927123019833 -0.84804809178421925 2 0 0 1 I I 0 1 2 forward I I I I #
face $-1 $74 $75 $18 $-1 $76 reversed single #
loop $-1 $-1 $77 $30 #
plane-surface $-1 0 0 -5.5125951695632125 0 0 1 1 0 0 forward_v I I I I #
coedge $-1 $78 $79 $80 $81 forward $31 $-1 #
face $-1 $82 $83 $19 $-1 $84 reversed single #
loop $-1 $-1 $85 $33 #
plane-surface $-1 0 21.992525041223111 0 0 -1 0 0 0 -1 forward_v I I I I #
coedge $-1 $86 $87 $88 $89 forward $34 $-1 #
face $-1 $90 $91 $20 $-1 $92 reversed single #
loop $-1 $-1 $93 $36 #
plane-surface $-1 -30.844220763667327 -21.992525041223125 0.39076464076950401 0 -0.52991927123019833 0.84804809178421925 1 0 0 forward_v I I I I #
coedge $-1 $94 $95 $96 $97 reversed $37 $-1 #
face $-1 $-1 $98 $21 $-1 $99 forward single #
loop $-1 $100 $101 $39 #
cone-surface $-1 -30.844220763667327 -14.650694391211168 -2.2390204103996481 0 0.52991927123019833 -0.84804809178421925 1 0 0 1 I I -0.70710678118654746 0.70710678118654746 1 forward I I I I #
loop $-1 $-1 $102 $27 #
coedge $-1 $64 $64 $103 $104 reversed $40 $-1 #
face $-1 $105 $106 $22 $-1 $107 reversed single #
loop $-1 $-1 $108 $42 #
plane-surface $-1 13.384705608773977 -21.992525041223125 0.39076464076950401 0 -0.52991927123019833 0.84804809178421925 1 0 0 forward_v I I I I #
coedge $-1 $109 $110 $111 $112 reversed $43 $-1 #
face $-1 $-1 $113 $23 $-1 $114 forward single #
loop $-1 $115 $116 $45 #
cone-surface $-1 13.384705608773977 -14.650694391211168 -2.2390204103996481 0 0.52991927123019833 -0.84804809178421925 1 0 0 1 I I -0.70710678118654746 0.70710678118654746 1 forward I I I I #
loop $-1 $-1 $117 $29 #
coedge $-1 $73 $73 $118 $119 reversed $46 $-1 #
face $-1 $120 $121 $18 $-1 $122 reversed single #
loop $-1 $-1 $123 $48 #
plane-surface $-1 0 -21.992525041223111 0 0 1 0 0 0 1 forward_v I I I I #
coedge $-1 $124 $125 $126 $127 forward $49 $-1 #
coedge $-1 $128 $51 $129 $130 forward $31 $-1 #
coedge $-1 $51 $128 $131 $132 forward $31 $-1 #
coedge $-1 $133 $134 $51 $81 reversed $135 $-1 #
edge $-1 $136 -21.992525041223111 $137 21.992525041223111 $80 $138 forward 7 unknown #
face $-1 $139 $140 $19 $-1 $141 reversed single #
loop $-1 $-1 $88 $52 #
plane-surface $-1 -49.184568912448988 0 2.5125951695632125 0 0 1 1 0 0 forward_v I I I I #
coedge $-1 $142 $143 $86 $144 forward $53 $-1 #
coedge $-1 $145 $55 $85 $144 reversed $34 $-1 #
coedge $-1 $55 $145 $146 $147 reversed $34 $-1 #
coedge $-1 $148 $149 $55 $89 reversed $83 $-1 #
edge $-1 $150 -21.992525041223111 $151 21.992525041223111 $88 $152 forward 7 unknown #
face $-1 $153 $154 $20 $-1 $155 reversed single #
loop $-1 $-1 $156 $56 #
plane-surface $-1 -37.811555603687736 -71.494136385657754 79.609901064014878 1 0 0 0 0.52991927123019833 -0.84804809178421925 forward_v I I I I #
coedge $-1 $157 $158 $159 $160 reversed $57 $-1 #
coedge $-1 $95 $59 $161 $162 reversed $37 $-1 #
coedge $-1 $59 $94 $157 $163 reversed $37 $-1 #
coedge $-1 $159 $164 $59 $97 forward $165 $-1 #
edge $-1 $166 13.754543151605766 $167 21.951185248244677 $96 $168 forward 7 unknown #
loop $-1 $-1 $103 $60 #
plane-surface $-1 -30.844220763667327 -21.992525041223125 0.39076464076950401 0 -0.52991927123019833 0.84804809178421925 1 0 0 forward_v I I I I #
loop $-1 $-1 $169 $39 #
coedge $-1 $101 $101 $102 $170 reversed $61 $-1 #
coedge $-1 $102 $102 $101 $170 forward $63 $-1 #
coedge $-1 $103 $103 $64 $104 forward $98 $-1 #
edge $-1 $171 -1.6705382830254579e-015 $171 6.2831853071795987 $103 $172 forward 7 unknown #
face $-1 $173 $174 $22 $-1 $175 reversed single #
loop $-1 $-1 $176 $65 #
plane-surface $-1 6.4173707687535648 -71.494136385657754 79.609901064014878 1 0 0 0 0.52991927123019833 -0.84804809178421925 forward_v I I I I #
coedge $-1 $177 $178 $179 $180 reversed $66 $-1 #
coedge $-1 $110 $68 $181 $182 reversed $43 $-1 #
coedge $-1 $68 $109 $177 $183 reversed $43 $-1 #
coedge $-1 $179 $184 $68 $112 forward $185 $-1 #
edge $-1 $186 13.754543151605766 $187 21.951185248244677 $111 $188 forward 7 unknown #
loop $-1 $-1 $118 $69 #
plane-surface $-1 13.384705608773977 -21.992525041223125 0.39076464076950401 0 -0.52991927123019833 0.84804809178421925 1 0 0 forward_v I I I I #
loop $-1 $-1 $189 $45 #
coedge $-1 $116 $116 $117 $190 reversed $70 $-1 #
coedge $-1 $117 $117 $116 $190 forward $72 $-1 #
coedge $-1 $118 $118 $73 $119 forward $113 $-1 #
edge $-1 $191 -1.6705382830254579e-015 $191 6.2831853071795987 $118 $192 forward 7 unknown #
face $-1 $193 $194 $18 $-1 $195 reversed single #
loop $-1 $-1 $196 $74 #
plane-surface $-1 -46.706747642445144 0 0 1 0 0 0 0 -1 forward_v I I I I #
coedge $-1 $197 $131 $198 $199 forward $75 $-1 #
coedge $-1 $200 $77 $197 $201 forward $49 $-1 #
coedge $-1 $77 $200 $202 $203 forward $49 $-1 #
coedge $-1 $134 $133 $77 $127 reversed $135 $-1 #
edge $-1 $204 -21.992525041223111 $205 21.992525041223111 $126 $206 forward 7 unknown #
coedge $-1 $79 $78 $207 $208 forward $31 $-1 #
coedge $-1 $209 $210 $78 $130 reversed $194 $-1 #
edge $-1 $137 -46.706747642445144 $211 46.706747642445144 $129 $212 forward 7 unknown #
coedge $-1 $123 $213 $79 $132 reversed $75 $-1 #
edge $-1 $214 -46.706747642445144 $136 46.706747642445144 $131 $215 forward 7 unknown #
coedge $-1 $126 $80 $213 $216 forward $135 $-1 #
coedge $-1 $80 $126 $209 $217 reversed $135 $-1 #
loop $-1 $-1 $133 $193 #
vertex $-1 $81 $218 #
vertex $-1 $81 $219 #
straight-curve $-1 46.706747642445144 0 5.5125951695632125 0 1 0 I I #
face $-1 $220 $221 $19 $-1 $222 forward single #
loop $-1 $-1 $223 $82 #
plane-surface $-1 -51.662390182452832 0 4.0125951695632125 1 0 0 0 0 -1 forward_v I I I I #
coedge $-1 $224 $85 $149 $225 reversed $53 $-1 #
coedge $-1 $85 $224 $226 $227 reversed $53 $-1 #
edge $-1 $228 -5.5125951695632125 $151 -2.5125951695632125 $85 $229 forward 7 unknown #
coedge $-1 $87 $86 $230 $231 reversed $34 $-1 #
coedge $-1 $232 $233 $87 $147 forward $234 $-1 #
edge $-1 $150 2.5125951695632125 $235 5.5125951695632125 $146 $236 forward 7 unknown #
coedge $-1 $237 $88 $233 $238 forward $83 $-1 #
coedge $-1 $88 $237 $142 $225 forward $83 $-1 #
vertex $-1 $147 $239 #
vertex $-1 $144 $240 #
straight-curve $-1 -46.706747642445144 0 2.5125951695632125 0 1 0 I I #
face $-1 $-1 $165 $20 $-1 $241 forward single #
loop $-1 $-1 $242 $90 #
plane-surface $-1 0 -21.992525041223111 0 0 1 0 0 0 1 forward_v I I I I #
coedge $-1 $243 $244 $245 $246 reversed $91 $-1 #
coedge $-1 $247 $93 $95 $163 forward $57 $-1 #
coedge $-1 $93 $247 $243 $248 forward $57 $-1 #
coedge $-1 $245 $96 $93 $160 forward $165 $-1 #
edge $-1 $167 8.45477554181325 $249 22.389445221854075 $159 $250 forward 7 unknown #
coedge $-1 $251 $252 $94 $162 forward $154 $-1 #
edge $-1 $253 -39.414185891237928 $166 -34.292355362444226 $161 $254 forward 7 unknown #
edge $-1 $167 -9.6653033902757848 $253 -1.675811683274863e-014 $95 $255 forward 7 unknown #
coedge $-1 $96 $245 $251 $256 forward $165 $-1 #
loop $-1 $-1 $245 $153 #
vertex $-1 $162 $257 #
vertex $-1 $97 $258 #
straight-curve $-1 -23.876885923646913 -35.747068192828877 5.5125951695632125 0 1 0 I I #
coedge $-1 $169 $169 $-1 $259 reversed $100 $-1 #
edge $-1 $260 0 $260 6.2831853071796004 $101 $261 forward 7 unknown #
vertex $-1 $104 $262 #
ellipse-curve $-1 -30.844220763667327 -17.894203992903648 2.9516799051663671 0 -0.52991927123019833 0.84804809178421925 2 0 0 1 I I #
face $-1 $-1 $185 $22 $-1 $263 forward single #
loop $-1 $-1 $264 $105 #
plane-surface $-1 0 -21.992525041223111 0 0 1 0 0 0 1 forward_v I I I I #
coedge $-1 $265 $266 $267 $268 reversed $106 $-1 #
coedge $-1 $269 $108 $110 $183 forward $66 $-1 #
coedge $-1 $108 $269 $265 $270 forward $66 $-1 #
coedge $-1 $267 $111 $108 $180 forward $185 $-1 #
edge $-1 $187 -13.659687644407402 $271 0.27498203563342383 $179 $272 forward 7 unknown #
coedge $-1 $273 $274 $109 $182 forward $174 $-1 #
edge $-1 $275 -39.414185891237928 $186 -34.292355362444226 $181 $276 forward 7 unknown #
edge $-1 $187 -9.6653033902757848 $275 -1.675811683274863e-014 $110 $277 forward 7 unknown #
coedge $-1 $111 $267 $273 $278 forward $185 $-1 #
loop $-1 $-1 $267 $173 #
vertex $-1 $182 $279 #
vertex $-1 $112 $280 #
straight-curve $-1 20.352040448794391 -35.747068192828877 5.5125951695632125 0 1 0 I I #
coedge $-1 $189 $189 $-1 $281 reversed $115 $-1 #
edge $-1 $282 0 $282 6.2831853071796004 $116 $283 forward 7 unknown #
vertex $-1 $119 $284 #
ellipse-curve $-1 13.384705608773977 -17.894203992903648 2.9516799051663671 0 -0.52991927123019833 0.84804809178421925 2 0 0 1 I I #
face $-1 $-1 $135 $18 $-1 $285 reversed single #
loop $-1 $-1 $209 $120 #
plane-surface $-1 0 21.992525041223111 0 0 -1 0 0 0 -1 forward_v I I I I #
coedge $-1 $286 $207 $210 $287 forward $121 $-1 #
coedge $-1 $213 $123 $124 $201 reversed $75 $-1 #
coedge $-1 $207 $286 $123 $199 reversed $121 $-1 #
edge $-1 $214 -5.5125951695632125 $288 5.5125951695632125 $198 $289 forward 7 unknown #
coedge $-1 $125 $124 $286 $290 forward $49 $-1 #
edge $-1 $205 -46.706747642445144 $288 46.706747642445144 $197 $291 forward 7 unknown #
coedge $-1 $210 $209 $125 $203 reversed $194 $-1 #
edge $-1 $292 -46.706747642445144 $204 46.706747642445144 $202 $293 forward 7 unknown #
vertex $-1 $127 $294 #
vertex $-1 $216 $295 #
straight-curve $-1 46.706747642445144 0 -5.5125951695632125 0 -1 0 I I #
coedge $-1 $196 $198 $128 $208 reversed $121 $-1 #
edge $-1 $211 -21.992525041223111 $214 21.992525041223111 $207 $296 forward 7 unknown #
coedge $-1 $202 $129 $134 $217 forward $194 $-1 #
coedge $-1 $129 $202 $196 $287 reversed $194 $-1 #
vertex $-1 $130 $297 #
straight-curve $-1 0 21.992525041223111 5.5125951695632125 -1 0 0 I I #
coedge $-1 $131 $197 $133 $216 reversed $75 $-1 #
vertex $-1 $208 $298 #
straight-curve $-1 0 -21.992525041223111 5.5125951695632125 1 0 0 I I #
edge $-1 $136 -5.5125951695632125 $205 5.5125951695632125 $133 $299 forward 7 unknown #
edge $-1 $137 -5.5125951695632125 $204 5.5125951695632125 $134 $300 forward 7 unknown #
point $-1 46.706747642445144 -21.992525041223111 5.5125951695632125 #
point $-1 46.706747642445144 21.992525041223111 5.5125951695632125 #
face $-1 $-1 $234 $19 $-1 $301 reversed single #
loop $-1 $-1 $230 $139 #
plane-surface $-1 0 0 5.5125951695632125 0 0 1 1 0 0 forward_v I I I I #
coedge $-1 $302 $303 $224 $304 forward $140 $-1 #
coedge $-1 $143 $142 $223 $304 reversed $53 $-1 #
edge $-1 $305 -2.4778212700038438 $151 2.4778212700038438 $142 $306 forward 7 unknown #
coedge $-1 $307 $230 $143 $227 forward $221 $-1 #
edge $-1 $228 46.706747642445144 $308 51.662390182452832 $143 $309 forward 7 unknown #
vertex $-1 $227 $310 #
straight-curve $-1 -46.706747642445144 21.992525041223111 0 0 0 -1 I I #
coedge $-1 $226 $311 $145 $231 forward $221 $-1 #
edge $-1 $235 -21.992525041223111 $228 21.992525041223111 $230 $312 forward 7 unknown #
coedge $-1 $313 $146 $311 $314 reversed $234 $-1 #
coedge $-1 $146 $313 $148 $238 reversed $234 $-1 #
loop $-1 $-1 $146 $220 #
vertex $-1 $147 $315 #
straight-curve $-1 -46.706747642445144 -21.992525041223111 0 0 0 1 I I #
coedge $-1 $149 $148 $302 $316 forward $83 $-1 #
edge $-1 $150 -2.4778212700038438 $317 2.4778212700038438 $233 $318 forward 7 unknown #
point $-1 -46.706747642445144 -21.992525041223111 2.5125951695632125 #
point $-1 -46.706747642445144 21.992525041223111 2.5125951695632125 #
plane-surface $-1 0 0 5.5125951695632125 0 0 1 1 0 0 forward_v I I I I #
coedge $-1 $252 $251 $244 $319 forward $154 $-1 #
coedge $-1 $244 $156 $158 $248 reversed $91 $-1 #
coedge $-1 $156 $243 $242 $319 reversed $91 $-1 #
coedge $-1 $164 $159 $156 $246 forward $165 $-1 #
edge $-1 $249 -21.951185248244677 $320 -13.754543151605766 $245 $321 forward 7 unknown #
coedge $-1 $158 $157 $252 $322 reversed $57 $-1 #
edge $-1 $323 1.675811683274863e-014 $249 9.6653033902757848 $243 $324 forward 7 unknown #
vertex $-1 $160 $325 #
straight-curve $-1 -15.422110381833663 -13.795882944584203 5.5125951695632125 -1 0 0 I I #
coedge $-1 $242 $161 $164 $256 reversed $154 $-1 #
coedge $-1 $161 $242 $247 $322 forward $154 $-1 #
vertex $-1 $162 $326 #
straight-curve $-1 -23.876885923646913 -21.992525041223111 39.804950532007439 0 0 1 I I #
straight-curve $-1 -23.876885923646913 -21.992525041223125 0.39076464076950401 0 -0.84804809178421925 -0.52991927123019833 I I #
edge $-1 $320 -37.811555603687736 $166 -23.876885923646913 $251 $327 forward 7 unknown #
point $-1 -23.876885923646913 -21.992525041223111 5.5125951695632125 #
point $-1 -23.876885923646913 -13.795882944584202 5.5125951695632125 #
edge $-1 $328 1 $328 0 $169 $-1 forward 7 unknown #
vertex $-1 $170 $329 #
ellipse-curve $-1 -30.844220763667327 -15.180613662441367 -1.3909723186154288 0 -0.52991927123019833 0.84804809178421925 2 0 0 1 I I #
point $-1 -28.844220763667327 -17.894203992903645 2.9516799051663551 #
plane-surface $-1 0 0 5.5125951695632125 0 0 1 1 0 0 forward_v I I I I #
coedge $-1 $274 $273 $266 $330 forward $174 $-1 #
coedge $-1 $266 $176 $178 $270 reversed $106 $-1 #
coedge $-1 $176 $265 $264 $330 reversed $106 $-1 #
coedge $-1 $184 $179 $176 $268 forward $185 $-1 #
edge $-1 $271 -21.951185248244677 $331 -13.754543151605766 $267 $332 forward 7 unknown #
coedge $-1 $178 $177 $274 $333 reversed $66 $-1 #
edge $-1 $334 1.675811683274863e-014 $271 9.6653033902757848 $265 $335 forward 7 unknown #
vertex $-1 $180 $336 #
straight-curve $-1 6.6923528043869887 -13.795882944584203 5.5125951695632125 -1 0 0 I I #
coedge $-1 $264 $181 $184 $278 reversed $174 $-1 #
coedge $-1 $181 $264 $269 $333 forward $174 $-1 #
vertex $-1 $182 $337 #
straight-curve $-1 20.352040448794391 -21.992525041223111 39.804950532007439 0 0 1 I I #
straight-curve $-1 20.352040448794391 -21.992525041223125 0.39076464076950401 0 -0.84804809178421925 -0.52991927123019833 I I #
edge $-1 $331 6.4173707687535648 $186 20.352040448794391 $273 $338 forward 7 unknown #
point $-1 20.352040448794391 -21.992525041223111 5.5125951695632125 #
point $-1 20.352040448794391 -13.795882944584202 5.5125951695632125 #
edge $-1 $339 1 $339 0 $189 $-1 forward 7 unknown #
vertex $-1 $190 $340 #
ellipse-curve $-1 13.384705608773977 -15.180613662441367 -1.3909723186154288 0 -0.52991927123019833 0.84804809178421925 2 0 0 1 I I #
point $-1 15.384705608773977 -17.894203992903645 2.9516799051663551 #
plane-surface $-1 46.706747642445144 0 0 -1 0 0 0 0 1 forward_v I I I I #
coedge $-1 $198 $196 $200 $290 reversed $121 $-1 #
edge $-1 $211 -5.5125951695632125 $292 5.5125951695632125 $210 $341 forward 7 unknown #
vertex $-1 $290 $342 #
straight-curve $-1 -46.706747642445144 -21.992525041223111 0 0 0 -1 I I #
edge $-1 $288 -21.992525041223111 $292 21.992525041223111 $286 $343 forward 7 unknown #
straight-curve $-1 0 -21.992525041223111 -5.5125951695632125 -1 0 0 I I #
vertex $-1 $203 $344 #
straight-curve $-1 0 21.992525041223111 -5.5125951695632125 1 0 0 I I #
point $-1 46.706747642445144 21.992525041223111 -5.5125951695632125 #
point $-1 46.706747642445144 -21.992525041223111 -5.5125951695632125 #
straight-curve $-1 -46.706747642445144 0 5.5125951695632125 0 -1 0 I I #
point $-1 -46.706747642445144 21.992525041223111 5.5125951695632125 #
point $-1 -46.706747642445144 -21.992525041223111 5.5125951695632125 #
straight-curve $-1 46.706747642445144 -21.992525041223111 0 0 0 -1 I I #
straight-curve $-1 46.706747642445144 21.992525041223111 0 0 0 -1 I I #
plane-surface $-1 0 -21.992525041223111 0 0 1 0 0 0 1 forward_v I I I I #
coedge $-1 $345 $223 $237 $316 reversed $140 $-1 #
coedge $-1 $223 $345 $307 $346 reversed $140 $-1 #
edge $-1 $308 -1.5 $305 1.5 $224 $347 forward 7 unknown #
vertex $-1 $225 $348 #
straight-curve $-1 -49.184568912448988 21.992525041223111 2.5125951695632125 1 0 0 I I #
coedge $-1 $311 $226 $303 $346 forward $221 $-1 #
vertex $-1 $227 $349 #
straight-curve $-1 0 21.992525041223111 5.5125951695632125 -1 0 0 I I #
point $-1 -46.706747642445144 21.992525041223111 5.5125951695632125 #
coedge $-1 $230 $307 $232 $314 forward $221 $-1 #
straight-curve $-1 -46.706747642445144 0 5.5125951695632125 0 1 0 I I #
coedge $-1 $233 $232 $345 $350 forward $234 $-1 #
edge $-1 $351 -51.662390182452832 $235 -46.706747642445144 $232 $352 forward 7 unknown #
point $-1 -46.706747642445144 -21.992525041223111 5.5125951695632125 #
edge $-1 $317 -21.992525041223111 $305 21.992525041223111 $302 $353 forward 7 unknown #
vertex $-1 $316 $354 #
straight-curve $-1 -49.184568912448988 -21.992525041223111 2.5125951695632125 -1 0 0 I I #
edge $-1 $320 34.292355362444226 $323 39.414185891237928 $242 $355 forward 7 unknown #
vertex $-1 $256 $356 #
straight-curve $-1 -37.811555603687736 -35.747068192828877 5.5125951695632125 0 -1 0 I I #
edge $-1 $323 -22.389445221854075 $253 -8.45477554181325 $252 $357 forward 7 unknown #
vertex $-1 $322 $358 #
straight-curve $-1 -37.811555603687736 -21.992525041223125 0.39076464076950401 0 0.84804809178421925 0.52991927123019833 I I #
point $-1 -37.811555603687736 -13.795882944584202 5.5125951695632125 #
point $-1 -23.876885923646913 -21.992525041223111 0.39076464076951289 #
straight-curve $-1 0 -21.992525041223111 5.5125951695632125 1 0 0 I I #
vertex $-1 $259 $359 #
point $-1 -28.844220763667327 -15.180613662441367 -1.3909723186154288 #
edge $-1 $331 34.292355362444226 $334 39.414185891237928 $264 $360 forward 7 unknown #
vertex $-1 $278 $361 #
straight-curve $-1 6.4173707687535648 -35.747068192828877 5.5125951695632125 0 -1 0 I I #
edge $-1 $334 -0.27498203563342383 $275 13.659687644407402 $274 $362 forward 7 unknown #
vertex $-1 $333 $363 #
straight-curve $-1 6.4173707687535648 -21.992525041223125 0.39076464076950401 0 0.84804809178421925 0.52991927123019833 I I #
point $-1 6.4173707687535648 -13.795882944584202 5.5125951695632125 #
point $-1 20.352040448794391 -21.992525041223111 0.39076464076951289 #
straight-curve $-1 0 -21.992525041223111 5.5125951695632125 1 0 0 I I #
vertex $-1 $281 $364 #
point $-1 15.384705608773977 -15.180613662441367 -1.3909723186154288 #
straight-curve $-1 -46.706747642445144 21.992525041223111 0 0 0 -1 I I #
point $-1 -46.706747642445144 -21.992525041223111 -5.5125951695632125 #
straight-curve $-1 -46.706747642445144 0 -5.5125951695632125 0 1 0 I I #
point $-1 -46.706747642445144 21.992525041223111 -5.5125951695632125 #
coedge $-1 $303 $302 $313 $350 reversed $140 $-1 #
edge $-1 $308 -21.992525041223111 $351 21.992525041223111 $303 $365 forward 7 unknown #
straight-curve $-1 -51.662390182452832 21.992525041223111 4.0125951695632125 0 0 -1 I I #
point $-1 -51.662390182452832 21.992525041223111 2.5125951695632125 #
point $-1 -51.662390182452832 21.992525041223111 5.5125951695632125 #
edge $-1 $351 -1.5 $317 1.5 $345 $366 forward 7 unknown #
vertex $-1 $346 $367 #
straight-curve $-1 0 -21.992525041223111 5.5125951695632125 1 0 0 I I #
straight-curve $-1 -51.662390182452832 0 2.5125951695632125 0 1 0 I I #
point $-1 -51.662390182452832 -21.992525041223111 2.5125951695632125 #
straight-curve $-1 -37.811555603687736 -21.992525041223111 39.804950532007439 0 0 -1 I I #
point $-1 -37.811555603687736 -21.992525041223111 5.5125951695632125 #
straight-curve $-1 -15.422110381833663 -21.992525041223111 0.39076464076951267 1 0 0 I I #
point $-1 -37.811555603687736 -21.992525041223111 0.39076464076951289 #
point $-1 -30.844220763667327 -14.120775119980969 -3.0870685021838673 #
straight-curve $-1 6.4173707687535648 -21.992525041223111 39.804950532007439 0 0 -1 I I #
point $-1 6.4173707687535648 -21.992525041223111 5.5125951695632125 #
straight-curve $-1 6.6923528043869887 -21.992525041223111 0.39076464076951267 1 0 0 I I #
point $-1 6.4173707687535648 -21.992525041223111 0.39076464076951289 #
point $-1 13.384705608773977 -14.120775119980969 -3.0870685021838673 #
straight-curve $-1 -51.662390182452832 0 5.5125951695632125 0 -1 0 I I #
straight-curve $-1 -51.662390182452832 -21.992525041223111 4.0125951695632125 0 0 -1 I I #
point $-1 -51.662390182452832 -21.992525041223111 5.5125951695632125 #
End-of-ACIS-data 