500 0 7 0           
7 Unknown 11 ACIS 5.0 NT 24 Thu Mar 25 22:14:02 1999 
-1 9.9999999999999995e-007 1e-010 
body $-1 $7 $-1 $8 #
body $-1 $9 $-1 $10 #
body $-1 $11 $-1 $12 #
body $-1 $13 $-1 $14 #
body $-1 $15 $-1 $16 #
body $-1 $17 $-1 $18 #
body $-1 $19 $-1 $20 #
lump $-1 $-1 $21 $0 #
transform $-1 1 0 0 0 1 0 0 0 1 45.172276985992006 28.068379585869756 11.031360585553477 1 rotate no_reflect no_shear #
lump $-1 $-1 $22 $1 #
transform $-1 1 0 0 0 1 0 0 0 1 45.172276985992006 28.068379585869756 11.031360585553477 1 rotate no_reflect no_shear #
lump $-1 $-1 $23 $2 #
transform $-1 1 0 0 0 1 0 0 0 1 45.172276985992006 28.068379585869756 11.031360585553477 1 rotate no_reflect no_shear #
lump $-1 $-1 $24 $3 #
transform $-1 1 0 0 0 1 0 0 0 1 45.172276985992006 28.068379585869756 11.031360585553477 1 rotate no_reflect no_shear #
lump $-1 $-1 $25 $4 #
transform $-1 1 0 0 0 1 0 0 0 1 45.172276985992006 28.068379585869756 11.031360585553477 1 rotate no_reflect no_shear #
lump $-1 $-1 $26 $5 #
transform $-1 1 0 0 0 1 0 0 0 1 45.172276985992006 28.068379585869756 11.031360585553477 1 rotate no_reflect no_shear #
lump $-1 $-1 $27 $6 #
transform $-1 1 0 0 0 1 0 0 0 1 45.172276985992006 28.068379585869756 11.031360585553477 1 rotate no_reflect no_shear #
shell $-1 $-1 $-1 $28 $-1 $7 #
shell $-1 $-1 $-1 $29 $-1 $9 #
shell $-1 $-1 $-1 $30 $-1 $11 #
shell $-1 $-1 $-1 $31 $-1 $13 #
shell $-1 $-1 $-1 $32 $-1 $15 #
shell $-1 $-1 $-1 $33 $-1 $17 #
shell $-1 $-1 $-1 $34 $-1 $19 #
face $-1 $35 $36 $21 $-1 $37 forward single #
face $-1 $38 $39 $22 $-1 $40 reversed single #
face $-1 $41 $42 $23 $-1 $43 reversed single #
face $-1 $44 $45 $24 $-1 $46 forward single #
face $-1 $47 $48 $25 $-1 $49 reversed single #
face $-1 $50 $51 $26 $-1 $52 forward single #
face $-1 $53 $54 $27 $-1 $55 forward single #
face $-1 $56 $57 $21 $-1 $58 reversed single #
loop $-1 $-1 $59 $28 #
plane-surface $-1 0 0 11.031360585553477 0 0 1 1 0 0 forward_v I I I I #
face $-1 $60 $61 $22 $-1 $62 reversed single #
loop $-1 $-1 $63 $29 #
plane-surface $-1 -40.897113876504243 -12.019024194572951 0 0 1 0 0 0 1 forward_v I I I I #
face $-1 $64 $65 $23 $-1 $66 reversed single #
loop $-1 $-1 $67 $30 #
plane-surface $-1 -10.834896295785519 -104.68490729585895 52.391380887500738 -1 0 0 0 -0.84804810408105047 0.52991925155115449 forward_v I I I I #
face $-1 $68 $69 $24 $-1 $70 forward single #
loop $-1 $71 $72 $31 #
cone-surface $-1 -19.184936932560355 -24.408356272361353 6.7586623335625591 0 0.84804810408105047 -0.52991925155115449 1.5 0 0 1 I I 0 1 1.5 forward I I I I #
face $-1 $73 $74 $25 $-1 $75 reversed single #
loop $-1 $-1 $76 $32 #
plane-surface $-1 -3.8983529039433229 41.297595002393216 107.03748527254503 1 0 0 0 -0.62932039886446345 -0.77714595512881146 forward_v I I I I #
face $-1 $77 $78 $26 $-1 $79 forward single #
loop $-1 $80 $81 $33 #
cone-surface $-1 2.2155043179751956 20.729013487875577 4.4702166256894866 0 -0.62932039886446345 -0.77714595512881146 2.5 0 0 1 I I 0 1 2.5 forward I I I I #
face $-1 $82 $83 $27 $-1 $84 forward single #
loop $-1 $85 $86 $34 #
cone-surface $-1 11.386290150852979 20.729013487875577 4.4702166256894866 0 -0.62932039886446345 -0.77714595512881146 2.5 0 0 1 I I 0 1 2.5 forward I I I I #
face $-1 $87 $88 $21 $-1 $89 reversed single #
loop $-1 $-1 $90 $35 #
plane-surface $-1 0 0 -11.031360585553477 0 0 1 1 0 0 forward_v I I I I #
coedge $-1 $91 $92 $93 $94 forward $36 $-1 #
face $-1 $95 $96 $22 $-1 $97 reversed single #
loop $-1 $-1 $98 $38 #
plane-surface $-1 -40.897113876504243 -6.005658414762804 0 0 -1 0 0 0 -1 forward_v I I I I #
coedge $-1 $99 $100 $101 $102 reversed $39 $-1 #
face $-1 $103 $104 $23 $-1 $105 reversed single #
loop $-1 $-1 $106 $41 #
plane-surface $-1 -19.184936932560355 -28.068379585869764 4.5160624649440848 0 -0.84804810408105047 0.52991925155115449 1 0 0 forward_v I I I I #
coedge $-1 $107 $108 $109 $110 reversed $42 $-1 #
face $-1 $-1 $111 $24 $-1 $112 forward single #
loop $-1 $113 $114 $44 #
cone-surface $-1 -19.184936932560355 -22.147901870114794 5.3461737032129708 0 0.84804810408105047 -0.52991925155115449 0.75 0 0 1 I I -0.70710678118654757 0.70710678118654757 0.75 forward I I I I #
loop $-1 $-1 $115 $31 #
coedge $-1 $72 $72 $116 $117 reversed $45 $-1 #
face $-1 $118 $119 $25 $-1 $120 reversed single #
loop $-1 $-1 $121 $47 #
plane-surface $-1 6.8008972344140872 -15.558075738487808 36.826580585301059 0 0.62932039886446345 0.77714595512881146 1 0 0 forward_v I I I I #
coedge $-1 $122 $123 $124 $125 reversed $48 $-1 #
face $-1 $-1 $126 $26 $-1 $127 forward single #
loop $-1 $128 $129 $50 #
cone-surface $-1 2.2155043179751956 18.489002966007206 1.7040340584994116 0 -0.62932039886446345 -0.77714595512881146 1.25 0 0 1 I I -0.70710678118654746 0.70710678118654746 1.25 forward I I I I #
loop $-1 $-1 $130 $33 #
coedge $-1 $81 $81 $131 $132 reversed $51 $-1 #
face $-1 $-1 $133 $27 $-1 $134 forward single #
loop $-1 $135 $136 $53 #
cone-surface $-1 11.386290150852979 18.489002966007206 1.7040340584994116 0 -0.62932039886446345 -0.77714595512881146 1.25 0 0 1 I I -0.70710678118654746 0.70710678118654746 1.25 forward I I I I #
loop $-1 $-1 $137 $34 #
coedge $-1 $86 $86 $138 $139 reversed $54 $-1 #
face $-1 $140 $141 $21 $-1 $142 reversed single #
loop $-1 $-1 $143 $56 #
plane-surface $-1 0 -28.068379585869756 0 0 1 0 0 0 1 forward_v I I I I #
coedge $-1 $144 $145 $146 $147 forward $57 $-1 #
coedge $-1 $148 $59 $149 $150 forward $36 $-1 #
coedge $-1 $59 $148 $151 $152 forward $36 $-1 #
coedge $-1 $153 $154 $59 $94 reversed $155 $-1 #
edge $-1 $156 -28.068379585869756 $157 28.068379585869756 $93 $158 forward 7 unknown #
face $-1 $159 $160 $22 $-1 $161 reversed single #
loop $-1 $-1 $162 $60 #
plane-surface $-1 -36.621950767016479 -9.0123413046678778 0 -1 0 0 0 0 1 forward_v I I I I #
coedge $-1 $163 $164 $165 $166 forward $61 $-1 #
coedge $-1 $167 $63 $168 $169 reversed $39 $-1 #
coedge $-1 $63 $167 $170 $171 reversed $39 $-1 #
coedge $-1 $172 $173 $63 $102 forward $174 $-1 #
edge $-1 $175 -11.031360585553477 $176 11.031360585553477 $101 $177 forward 7 unknown #
face $-1 $178 $179 $23 $-1 $180 reversed single #
loop $-1 $-1 $181 $64 #
plane-surface $-1 -27.53497756933519 -104.68490729585895 52.391380887500738 1 0 0 0 0.84804810408105047 -0.52991925155115449 forward_v I I I I #
coedge $-1 $182 $183 $184 $185 reversed $65 $-1 #
coedge $-1 $108 $67 $186 $187 reversed $42 $-1 #
coedge $-1 $67 $107 $182 $188 reversed $42 $-1 #
coedge $-1 $184 $189 $67 $110 forward $190 $-1 #
edge $-1 $191 24.274074062059718 $192 28.345284040704978 $109 $193 forward 7 unknown #
loop $-1 $-1 $116 $68 #
plane-surface $-1 -19.184936932560355 -28.068379585869764 4.5160624649440848 0 -0.84804810408105047 0.52991925155115449 1 0 0 forward_v I I I I #
loop $-1 $-1 $194 $44 #
coedge $-1 $114 $114 $115 $195 reversed $69 $-1 #
coedge $-1 $115 $115 $114 $195 forward $71 $-1 #
coedge $-1 $116 $116 $72 $117 forward $111 $-1 #
edge $-1 $196 1.0037657817025574e-015 $196 6.2831853071796013 $116 $197 forward 7 unknown #
face $-1 $198 $199 $25 $-1 $200 reversed single #
loop $-1 $-1 $201 $73 #
plane-surface $-1 17.500147372771497 41.297595002393216 107.03748527254503 -1 0 0 0 0.62932039886446345 0.77714595512881146 forward_v I I I I #
coedge $-1 $202 $203 $204 $205 reversed $74 $-1 #
coedge $-1 $123 $76 $206 $207 reversed $48 $-1 #
coedge $-1 $76 $122 $202 $208 reversed $48 $-1 #
coedge $-1 $204 $209 $76 $125 forward $210 $-1 #
edge $-1 $211 -7.4195820846731486 $212 4.3524300647396039 $124 $213 forward 7 unknown #
loop $-1 $-1 $131 $77 #
plane-surface $-1 6.8008972344140872 -15.558075738487808 36.826580585301059 0 0.62932039886446345 0.77714595512881146 1 0 0 forward_v I I I I #
loop $-1 $-1 $214 $50 #
coedge $-1 $129 $129 $130 $215 reversed $78 $-1 #
coedge $-1 $130 $130 $129 $215 forward $80 $-1 #
coedge $-1 $131 $131 $81 $132 forward $126 $-1 #
edge $-1 $216 -2.1007275032665685e-016 $216 6.2831853071796004 $131 $217 forward 7 unknown #
loop $-1 $-1 $138 $82 #
plane-surface $-1 6.8008972344140872 -15.558075738487808 36.826580585301059 0 0.62932039886446345 0.77714595512881146 1 0 0 forward_v I I I I #
loop $-1 $-1 $218 $53 #
coedge $-1 $136 $136 $137 $219 reversed $83 $-1 #
coedge $-1 $137 $137 $136 $219 forward $85 $-1 #
coedge $-1 $138 $138 $86 $139 forward $133 $-1 #
edge $-1 $220 -2.1007275032665685e-016 $220 6.2831853071796004 $138 $221 forward 7 unknown #
face $-1 $222 $223 $21 $-1 $224 reversed single #
loop $-1 $-1 $225 $87 #
plane-surface $-1 -45.172276985992006 0 0 1 0 0 0 0 -1 forward_v I I I I #
coedge $-1 $226 $151 $227 $228 forward $88 $-1 #
coedge $-1 $229 $90 $226 $230 forward $57 $-1 #
coedge $-1 $90 $229 $231 $232 forward $57 $-1 #
coedge $-1 $154 $153 $90 $147 reversed $155 $-1 #
edge $-1 $233 -28.068379585869756 $234 28.068379585869756 $146 $235 forward 7 unknown #
coedge $-1 $92 $91 $236 $237 forward $36 $-1 #
coedge $-1 $238 $239 $91 $150 reversed $223 $-1 #
edge $-1 $157 -45.172276985992006 $240 45.172276985992006 $149 $241 forward 7 unknown #
coedge $-1 $143 $242 $92 $152 reversed $88 $-1 #
edge $-1 $243 -45.172276985992006 $156 45.172276985992006 $151 $244 forward 7 unknown #
coedge $-1 $146 $93 $242 $245 forward $155 $-1 #
coedge $-1 $93 $146 $238 $246 reversed $155 $-1 #
loop $-1 $-1 $153 $222 #
vertex $-1 $94 $247 #
vertex $-1 $94 $248 #
straight-curve $-1 45.172276985992006 0 11.031360585553477 0 1 0 I I #
face $-1 $249 $250 $22 $-1 $251 forward single #
loop $-1 $-1 $252 $95 #
plane-surface $-1 0 0 -11.031360585553477 0 0 1 1 0 0 forward_v I I I I #
coedge $-1 $253 $254 $167 $255 forward $96 $-1 #
coedge $-1 $256 $98 $252 $257 reversed $61 $-1 #
coedge $-1 $98 $256 $258 $259 reversed $61 $-1 #
coedge $-1 $254 $253 $98 $166 reversed $96 $-1 #
edge $-1 $260 -11.031360585553477 $261 11.031360585553477 $165 $262 forward 7 unknown #
coedge $-1 $100 $99 $162 $255 reversed $39 $-1 #
coedge $-1 $263 $264 $99 $169 forward $160 $-1 #
edge $-1 $265 16.173393828764357 $175 24.723720047739885 $168 $266 forward 7 unknown #
coedge $-1 $267 $268 $100 $171 forward $250 $-1 #
edge $-1 $176 -24.723720047739885 $269 -16.173393828764357 $170 $270 forward 7 unknown #
coedge $-1 $271 $101 $268 $272 reversed $174 $-1 #
coedge $-1 $101 $271 $263 $273 reversed $174 $-1 #
loop $-1 $-1 $271 $249 #
vertex $-1 $273 $274 #
vertex $-1 $102 $275 #
straight-curve $-1 -45.172276985992006 -12.019024194572951 0 0 0 1 I I #
face $-1 $-1 $190 $23 $-1 $276 forward single #
loop $-1 $-1 $277 $103 #
plane-surface $-1 0 -28.068379585869756 0 0 1 0 0 0 1 forward_v I I I I #
coedge $-1 $278 $279 $280 $281 reversed $104 $-1 #
coedge $-1 $282 $106 $108 $188 forward $65 $-1 #
coedge $-1 $106 $282 $278 $283 forward $65 $-1 #
coedge $-1 $280 $109 $106 $185 forward $190 $-1 #
edge $-1 $192 1.2424278295053419 $284 17.942509103055013 $184 $285 forward 7 unknown #
coedge $-1 $286 $287 $107 $187 forward $179 $-1 #
edge $-1 $288 -21.679627978806273 $191 -15.164329858196892 $186 $289 forward 7 unknown #
edge $-1 $192 -7.6826987634969184 $288 -1.3557137071152151e-014 $108 $290 forward 7 unknown #
coedge $-1 $109 $280 $286 $291 forward $190 $-1 #
loop $-1 $-1 $280 $178 #
vertex $-1 $187 $292 #
vertex $-1 $110 $293 #
straight-curve $-1 -10.834896295785519 -52.342453647929474 11.031360585553479 0 1 0 I I #
coedge $-1 $194 $194 $-1 $294 reversed $113 $-1 #
edge $-1 $295 0 $295 6.2831853071796004 $114 $296 forward 7 unknown #
vertex $-1 $117 $297 #
ellipse-curve $-1 -19.184936932560355 -26.032774596547128 7.7737115252487845 0 -0.84804810408105047 0.52991925155115449 1.5 0 0 1 I I #
face $-1 $-1 $210 $25 $-1 $298 forward single #
loop $-1 $-1 $299 $118 #
plane-surface $-1 0 28.068379585869756 0 0 -1 0 0 0 -1 forward_v I I I I #
coedge $-1 $300 $301 $302 $303 reversed $119 $-1 #
coedge $-1 $304 $121 $123 $208 forward $74 $-1 #
coedge $-1 $121 $304 $300 $305 forward $74 $-1 #
coedge $-1 $302 $124 $121 $205 forward $210 $-1 #
edge $-1 $212 -7.2988015211503665 $306 14.099698755564454 $204 $307 forward 7 unknown #
coedge $-1 $308 $309 $122 $207 forward $199 $-1 #
edge $-1 $310 -52.020169723888884 $211 -42.487382050719035 $206 $311 forward 7 unknown #
edge $-1 $212 40.989009805326667 $310 56.136759171739499 $123 $312 forward 7 unknown #
coedge $-1 $124 $302 $308 $313 forward $210 $-1 #
loop $-1 $-1 $302 $198 #
vertex $-1 $207 $314 #
vertex $-1 $125 $315 #
straight-curve $-1 -3.8983529039433229 20.648797501196608 11.031360585553479 0 -1 0 I I #
coedge $-1 $214 $214 $-1 $316 reversed $128 $-1 #
edge $-1 $317 0 $317 6.2831853071796004 $129 $318 forward 7 unknown #
vertex $-1 $132 $319 #
ellipse-curve $-1 2.2155043179751956 22.182373511163373 6.2649667489685514 0 0.62932039886446345 0.77714595512881146 2.5 0 0 1 I I #
coedge $-1 $218 $218 $-1 $320 reversed $135 $-1 #
edge $-1 $321 0 $321 6.2831853071796004 $136 $322 forward 7 unknown #
vertex $-1 $139 $323 #
ellipse-curve $-1 11.386290150852979 22.182373511163373 6.2649667489685514 0 0.62932039886446345 0.77714595512881146 2.5 0 0 1 I I #
face $-1 $-1 $155 $21 $-1 $324 reversed single #
loop $-1 $-1 $238 $140 #
plane-surface $-1 0 28.068379585869756 0 0 -1 0 0 0 -1 forward_v I I I I #
coedge $-1 $325 $236 $239 $326 forward $141 $-1 #
coedge $-1 $242 $143 $144 $230 reversed $88 $-1 #
coedge $-1 $236 $325 $143 $228 reversed $141 $-1 #
edge $-1 $243 -11.031360585553477 $327 11.031360585553477 $227 $328 forward 7 unknown #
coedge $-1 $145 $144 $325 $329 forward $57 $-1 #
edge $-1 $234 -45.172276985992006 $327 45.172276985992006 $226 $330 forward 7 unknown #
coedge $-1 $239 $238 $145 $232 reversed $223 $-1 #
edge $-1 $331 -45.172276985992006 $233 45.172276985992006 $231 $332 forward 7 unknown #
vertex $-1 $147 $333 #
vertex $-1 $245 $334 #
straight-curve $-1 45.172276985992006 0 -11.031360585553477 0 -1 0 I I #
coedge $-1 $225 $227 $148 $237 reversed $141 $-1 #
edge $-1 $240 -28.068379585869756 $243 28.068379585869756 $236 $335 forward 7 unknown #
coedge $-1 $231 $149 $154 $246 forward $223 $-1 #
coedge $-1 $149 $231 $225 $326 reversed $223 $-1 #
vertex $-1 $150 $336 #
straight-curve $-1 0 28.068379585869756 11.031360585553477 -1 0 0 I I #
coedge $-1 $151 $226 $153 $245 reversed $88 $-1 #
vertex $-1 $237 $337 #
straight-curve $-1 0 -28.068379585869756 11.031360585553477 1 0 0 I I #
edge $-1 $156 -11.031360585553477 $234 11.031360585553477 $153 $338 forward 7 unknown #
edge $-1 $157 -11.031360585553477 $233 11.031360585553477 $154 $339 forward 7 unknown #
point $-1 45.172276985992006 -28.068379585869756 11.031360585553477 #
point $-1 45.172276985992006 28.068379585869756 11.031360585553477 #
face $-1 $-1 $174 $22 $-1 $340 reversed single #
loop $-1 $-1 $258 $159 #
plane-surface $-1 0 0 11.031360585553477 0 0 1 1 0 0 forward_v I I I I #
coedge $-1 $264 $263 $163 $257 forward $160 $-1 #
coedge $-1 $165 $162 $264 $341 reversed $96 $-1 #
coedge $-1 $162 $165 $267 $342 reversed $96 $-1 #
edge $-1 $269 -11.031360585553477 $265 11.031360585553477 $162 $343 forward 7 unknown #
coedge $-1 $164 $163 $271 $344 reversed $61 $-1 #
edge $-1 $345 -24.723720047739885 $261 -16.173393828764357 $252 $346 forward 7 unknown #
coedge $-1 $268 $267 $164 $259 forward $250 $-1 #
edge $-1 $260 16.173393828764357 $347 24.723720047739885 $258 $348 forward 7 unknown #
vertex $-1 $259 $349 #
vertex $-1 $257 $350 #
straight-curve $-1 -36.621950767016479 -6.005658414762804 0 0 0 -1 I I #
coedge $-1 $252 $168 $173 $273 forward $160 $-1 #
coedge $-1 $168 $252 $253 $341 forward $160 $-1 #
vertex $-1 $169 $351 #
straight-curve $-1 -20.448556938252121 -12.019024194572951 -11.031360585553477 -1 0 0 I I #
coedge $-1 $258 $170 $254 $342 forward $250 $-1 #
coedge $-1 $170 $258 $172 $272 forward $250 $-1 #
vertex $-1 $171 $352 #
straight-curve $-1 -20.448556938252121 -12.019024194572951 11.031360585553477 1 0 0 I I #
coedge $-1 $173 $172 $256 $344 forward $174 $-1 #
edge $-1 $347 6.005658414762804 $176 12.019024194572951 $172 $353 forward 7 unknown #
edge $-1 $175 -12.019024194572951 $345 -6.005658414762804 $173 $354 forward 7 unknown #
point $-1 -45.172276985992006 -12.019024194572951 -11.031360585553477 #
point $-1 -45.172276985992006 -12.019024194572951 11.031360585553477 #
plane-surface $-1 0 0 11.031360585553477 0 0 1 1 0 0 forward_v I I I I #
coedge $-1 $287 $286 $279 $355 forward $179 $-1 #
coedge $-1 $279 $181 $183 $283 reversed $104 $-1 #
coedge $-1 $181 $278 $277 $355 reversed $104 $-1 #
coedge $-1 $189 $184 $181 $281 forward $190 $-1 #
edge $-1 $284 -28.345284040704978 $356 -24.274074062059718 $280 $357 forward 7 unknown #
coedge $-1 $183 $182 $287 $358 reversed $65 $-1 #
edge $-1 $359 1.3557137071152151e-014 $284 7.6826987634969184 $278 $360 forward 7 unknown #
vertex $-1 $185 $361 #
straight-curve $-1 -9.5924684662801774 -23.9971696072245 11.031360585553477 -1 0 0 I I #
coedge $-1 $277 $186 $189 $291 reversed $179 $-1 #
coedge $-1 $186 $277 $282 $358 forward $179 $-1 #
vertex $-1 $187 $362 #
straight-curve $-1 -10.834896295785519 -28.068379585869756 26.195690443750369 0 0 1 I I #
straight-curve $-1 -10.834896295785519 -28.068379585869764 4.5160624649440848 0 -0.52991925155115449 -0.84804810408105047 I I #
edge $-1 $356 -27.53497756933519 $191 -10.834896295785519 $286 $363 forward 7 unknown #
point $-1 -10.834896295785519 -28.068379585869756 11.031360585553477 #
point $-1 -10.834896295785519 -23.997169607224496 11.031360585553477 #
edge $-1 $364 1 $364 0 $194 $-1 forward 7 unknown #
vertex $-1 $195 $365 #
ellipse-curve $-1 -19.184936932560355 -22.783937948175581 5.7436131418763363 0 -0.84804810408105047 0.52991925155115449 1.5 0 0 1 I I #
point $-1 -17.684936932560355 -26.032774596547121 7.7737115252487818 #
plane-surface $-1 0 0 11.031360585553477 0 0 1 1 0 0 forward_v I I I I #
coedge $-1 $309 $308 $301 $366 forward $199 $-1 #
coedge $-1 $301 $201 $203 $305 reversed $119 $-1 #
coedge $-1 $201 $300 $299 $366 reversed $119 $-1 #
coedge $-1 $209 $204 $201 $303 forward $210 $-1 #
edge $-1 $306 -4.3524300647396039 $367 7.4195820846731486 $302 $368 forward 7 unknown #
coedge $-1 $203 $202 $309 $369 reversed $74 $-1 #
edge $-1 $370 -56.136759171739499 $306 -40.989009805326667 $300 $371 forward 7 unknown #
vertex $-1 $205 $372 #
straight-curve $-1 3.4004486172070436 16.296367436457004 11.031360585553475 1 0 0 I I #
coedge $-1 $299 $206 $209 $313 reversed $199 $-1 #
coedge $-1 $206 $299 $304 $369 forward $199 $-1 #
vertex $-1 $207 $373 #
straight-curve $-1 -3.8983529039433229 28.068379585869756 53.518742636272513 0 0 1 I I #
straight-curve $-1 -3.8983529039433229 -15.558075738487808 36.826580585301059 0 0.77714595512881146 -0.62932039886446345 I I #
edge $-1 $367 -17.500147372771497 $211 3.8983529039433229 $308 $374 forward 7 unknown #
point $-1 -3.8983529039433229 28.068379585869756 11.031360585553477 #
point $-1 -3.8983529039433229 16.296367436457004 11.031360585553479 #
edge $-1 $375 1 $375 0 $214 $-1 forward 7 unknown #
vertex $-1 $215 $376 #
ellipse-curve $-1 2.2155043179751956 19.275653464587784 2.6754665024104258 0 0.62932039886446345 0.77714595512881146 2.5 0 0 1 I I #
point $-1 4.7155043179751956 22.18237351116337 6.2649667489685479 #
edge $-1 $377 1 $377 0 $218 $-1 forward 7 unknown #
vertex $-1 $219 $378 #
ellipse-curve $-1 11.386290150852979 19.275653464587784 2.6754665024104258 0 0.62932039886446345 0.77714595512881146 2.5 0 0 1 I I #
point $-1 13.886290150852979 22.18237351116337 6.2649667489685479 #
plane-surface $-1 45.172276985992006 0 0 -1 0 0 0 0 1 forward_v I I I I #
coedge $-1 $227 $225 $229 $329 reversed $141 $-1 #
edge $-1 $240 -11.031360585553477 $331 11.031360585553477 $239 $379 forward 7 unknown #
vertex $-1 $329 $380 #
straight-curve $-1 -45.172276985992006 -28.068379585869756 0 0 0 -1 I I #
edge $-1 $327 -28.068379585869756 $331 28.068379585869756 $325 $381 forward 7 unknown #
straight-curve $-1 0 -28.068379585869756 -11.031360585553477 -1 0 0 I I #
vertex $-1 $232 $382 #
straight-curve $-1 0 28.068379585869756 -11.031360585553477 1 0 0 I I #
point $-1 45.172276985992006 28.068379585869756 -11.031360585553477 #
point $-1 45.172276985992006 -28.068379585869756 -11.031360585553477 #
straight-curve $-1 -45.172276985992006 0 11.031360585553477 0 -1 0 I I #
point $-1 -45.172276985992006 28.068379585869756 11.031360585553477 #
point $-1 -45.172276985992006 -28.068379585869756 11.031360585553477 #
straight-curve $-1 45.172276985992006 -28.068379585869756 0 0 0 -1 I I #
straight-curve $-1 45.172276985992006 28.068379585869756 0 0 0 -1 I I #
plane-surface $-1 -45.172276985992006 0 0 1 0 0 0 0 -1 forward_v I I I I #
edge $-1 $261 1.4994877624288652 $265 7.5128535422390126 $264 $383 forward 7 unknown #
edge $-1 $269 -7.5128535422390126 $260 -1.4994877624288652 $267 $384 forward 7 unknown #
straight-curve $-1 -36.621950767016479 -12.019024194572951 0 0 0 -1 I I #
edge $-1 $347 -11.031360585553477 $345 11.031360585553477 $271 $385 forward 7 unknown #
vertex $-1 $344 $386 #
straight-curve $-1 -20.448556938252121 -6.005658414762804 -11.031360585553477 1 0 0 I I #
vertex $-1 $272 $387 #
straight-curve $-1 -20.448556938252121 -6.005658414762804 11.031360585553477 -1 0 0 I I #
point $-1 -36.621950767016479 -6.005658414762804 11.031360585553477 #
point $-1 -36.621950767016479 -6.005658414762804 -11.031360585553477 #
point $-1 -36.621950767016479 -12.019024194572951 -11.031360585553477 #
point $-1 -36.621950767016479 -12.019024194572951 11.031360585553477 #
straight-curve $-1 -45.172276985992006 0 11.031360585553477 0 -1 0 I I #
straight-curve $-1 -45.172276985992006 0 -11.031360585553477 0 1 0 I I #
edge $-1 $356 15.164329858196892 $359 21.679627978806273 $277 $388 forward 7 unknown #
vertex $-1 $291 $389 #
straight-curve $-1 -27.53497756933519 -52.342453647929474 11.031360585553479 0 -1 0 I I #
edge $-1 $359 -17.942509103055013 $288 -1.2424278295053419 $287 $390 forward 7 unknown #
vertex $-1 $358 $391 #
straight-curve $-1 -27.53497756933519 -28.068379585869764 4.5160624649440848 0 0.52991925155115449 0.84804810408105047 I I #
point $-1 -27.53497756933519 -23.997169607224496 11.031360585553477 #
point $-1 -10.834896295785519 -28.068379585869756 4.5160624649440964 #
straight-curve $-1 0 -28.068379585869756 11.031360585553477 1 0 0 I I #
vertex $-1 $294 $392 #
point $-1 -17.684936932560355 -22.783937948175581 5.7436131418763363 #
edge $-1 $367 42.487382050719035 $370 52.020169723888884 $299 $393 forward 7 unknown #
vertex $-1 $313 $394 #
straight-curve $-1 17.500147372771497 20.648797501196608 11.031360585553479 0 1 0 I I #
edge $-1 $370 -14.099698755564454 $310 7.2988015211503665 $309 $395 forward 7 unknown #
vertex $-1 $369 $396 #
straight-curve $-1 17.500147372771497 -15.558075738487808 36.826580585301059 0 -0.77714595512881146 0.62932039886446345 I I #
point $-1 17.500147372771497 16.296367436457004 11.031360585553479 #
point $-1 -3.8983529039433229 28.068379585869756 1.4985729123836293 #
straight-curve $-1 0 28.068379585869756 11.031360585553477 -1 0 0 I I #
vertex $-1 $316 $397 #
point $-1 4.7155043179751956 19.275653464587784 2.6754665024104258 #
vertex $-1 $320 $398 #
point $-1 13.886290150852979 19.275653464587784 2.6754665024104258 #
straight-curve $-1 -45.172276985992006 28.068379585869756 0 0 0 -1 I I #
point $-1 -45.172276985992006 -28.068379585869756 -11.031360585553477 #
straight-curve $-1 -45.172276985992006 0 -11.031360585553477 0 1 0 I I #
point $-1 -45.172276985992006 28.068379585869756 -11.031360585553477 #
straight-curve $-1 -36.621950767016479 -4.5061706523339389 -11.031360585553477 0 -1 0 I I #
straight-curve $-1 -36.621950767016479 -4.5061706523339389 11.031360585553477 0 1 0 I I #
straight-curve $-1 -45.172276985992006 -6.005658414762804 0 0 0 -1 I I #
point $-1 -45.172276985992006 -6.005658414762804 -11.031360585553477 #
point $-1 -45.172276985992006 -6.005658414762804 11.031360585553477 #
straight-curve $-1 -27.53497756933519 -28.068379585869756 26.195690443750369 0 0 -1 I I #
point $-1 -27.53497756933519 -28.068379585869756 11.031360585553477 #
straight-curve $-1 -9.5924684662801774 -28.068379585869756 4.5160624649440955 1 0 0 I I #
point $-1 -27.53497756933519 -28.068379585869756 4.5160624649440964 #
point $-1 -19.184936932560355 -21.511865792054007 4.9487342645496053 #
straight-curve $-1 17.500147372771497 28.068379585869756 53.518742636272513 0 0 -1 I I #
point $-1 17.500147372771497 28.068379585869756 11.031360585553477 #
straight-curve $-1 3.4004486172070436 28.068379585869753 1.4985729123836329 -1 0 0 I I #
point $-1 17.500147372771497 28.068379585869756 1.4985729123836293 #
point $-1 2.2155043179751956 17.702352467426628 0.73260161458839723 #
point $-1 11.386290150852979 17.702352467426628 0.73260161458839723 #
End-of-ACIS-data 