500 0 9 0           
7 Unknown 11 ACIS 5.0 NT 24 Fri Mar 26 15:15:55 1999 
-1 9.9999999999999995e-007 1e-010 
body $-1 $9 $-1 $10 #
body $-1 $11 $-1 $12 #
body $-1 $13 $-1 $14 #
body $-1 $15 $-1 $16 #
body $-1 $17 $-1 $18 #
body $-1 $19 $-1 $20 #
body $-1 $21 $-1 $22 #
body $-1 $23 $-1 $24 #
body $-1 $25 $-1 $26 #
lump $-1 $-1 $27 $0 #
transform $-1 1 0 0 0 1 0 0 0 1 71.59886471144749 41.41380422344411 13.911105000938749 1 rotate no_reflect no_shear #
lump $-1 $-1 $28 $1 #
transform $-1 1 0 0 0 1 0 0 0 1 71.59886471144749 41.41380422344411 13.911105000938749 1 rotate no_reflect no_shear #
lump $-1 $-1 $29 $2 #
transform $-1 1 0 0 0 1 0 0 0 1 71.59886471144749 41.41380422344411 13.911105000938749 1 rotate no_reflect no_shear #
lump $-1 $-1 $30 $3 #
transform $-1 1 0 0 0 1 0 0 0 1 71.59886471144749 41.41380422344411 13.911105000938749 1 rotate no_reflect no_shear #
lump $-1 $-1 $31 $4 #
transform $-1 1 0 0 0 1 0 0 0 1 71.59886471144749 41.41380422344411 13.911105000938749 1 rotate no_reflect no_shear #
lump $-1 $-1 $32 $5 #
transform $-1 1 0 0 0 1 0 0 0 1 71.59886471144749 41.41380422344411 13.911105000938749 1 rotate no_reflect no_shear #
lump $-1 $-1 $33 $6 #
transform $-1 1 0 0 0 1 0 0 0 1 71.59886471144749 41.41380422344411 13.911105000938749 1 rotate no_reflect no_shear #
lump $-1 $-1 $34 $7 #
transform $-1 1 0 0 0 1 0 0 0 1 71.59886471144749 41.41380422344411 13.911105000938749 1 rotate no_reflect no_shear #
lump $-1 $-1 $35 $8 #
transform $-1 1 0 0 0 1 0 0 0 1 71.59886471144749 41.41380422344411 13.911105000938749 1 rotate no_reflect no_shear #
shell $-1 $-1 $-1 $36 $-1 $9 #
shell $-1 $-1 $-1 $37 $-1 $11 #
shell $-1 $-1 $-1 $38 $-1 $13 #
shell $-1 $-1 $-1 $39 $-1 $15 #
shell $-1 $-1 $-1 $40 $-1 $17 #
shell $-1 $-1 $-1 $41 $-1 $19 #
shell $-1 $-1 $-1 $42 $-1 $21 #
shell $-1 $-1 $-1 $43 $-1 $23 #
shell $-1 $-1 $-1 $44 $-1 $25 #
face $-1 $45 $46 $27 $-1 $47 forward single #
face $-1 $48 $49 $28 $-1 $50 reversed single #
face $-1 $51 $52 $29 $-1 $53 reversed single #
face $-1 $54 $55 $30 $-1 $56 forward single #
face $-1 $57 $58 $31 $-1 $59 forward single #
face $-1 $60 $61 $32 $-1 $62 reversed single #
face $-1 $63 $64 $33 $-1 $65 forward single #
face $-1 $66 $67 $34 $-1 $68 forward single #
face $-1 $69 $70 $35 $-1 $71 forward single #
face $-1 $72 $73 $27 $-1 $74 reversed single #
loop $-1 $-1 $75 $36 #
plane-surface $-1 0 0 13.911105000938749 0 0 1 1 0 0 forward_v I I I I #
face $-1 $76 $77 $28 $-1 $78 reversed single #
loop $-1 $-1 $79 $37 #
plane-surface $-1 -62.691711585657963 -39.206733115249151 0 0 1 0 0 0 1 forward_v I I I I #
face $-1 $80 $81 $29 $-1 $82 reversed single #
loop $-1 $-1 $83 $38 #
plane-surface $-1 5.1675900424427113 -113.01266989413546 132.71225191881183 -1 0 0 0 -0.50000000669873634 0.8660253999169214 forward_v I I I I #
face $-1 $84 $85 $30 $-1 $86 forward single #
loop $-1 $87 $88 $39 #
cone-surface $-1 -19.023912299787483 -35.131447039130329 8.241467054277873 0 0.50000000669873634 -0.8660253999169214 2.5 0 0 1 I I 0 1 2.5 forward I I I I #
face $-1 $89 $90 $31 $-1 $91 forward single #
loop $-1 $92 $93 $40 #
cone-surface $-1 -4.5090108944493608 -35.131447039130329 8.241467054277873 0 0.50000000669873634 -0.8660253999169214 2.5 0 0 1 I I 0 1 2.5 forward I I I I #
face $-1 $94 $95 $32 $-1 $96 reversed single #
loop $-1 $-1 $97 $41 #
plane-surface $-1 -21.515430692083115 108.5783562596022 153.61794500353409 1 0 0 0 -0.80901700255871778 -0.5877852410284794 forward_v I I I I #
face $-1 $98 $99 $33 $-1 $100 forward single #
loop $-1 $101 $102 $42 #
cone-surface $-1 -18.354958737552131 36.496636334026327 7.6304922893778047 0 -0.80901700255871778 -0.5877852410284794 1 0 0 1 I I 0 1 1 forward I I I I #
face $-1 $103 $104 $34 $-1 $105 forward single #
loop $-1 $106 $107 $43 #
cone-surface $-1 -13.61425080575566 36.496636334026327 7.6304922893778047 0 -0.80901700255871778 -0.5877852410284794 1 0 0 1 I I 0 1 1 forward I I I I #
face $-1 $108 $109 $35 $-1 $110 forward single #
loop $-1 $111 $112 $44 #
cone-surface $-1 -8.8735428739591882 36.496636334026327 7.6304922893778047 0 -0.80901700255871778 -0.5877852410284794 1 0 0 1 I I 0 1 1 forward I I I I #
face $-1 $113 $114 $27 $-1 $115 reversed single #
loop $-1 $-1 $116 $45 #
plane-surface $-1 0 0 -13.911105000938749 0 0 1 1 0 0 forward_v I I I I #
coedge $-1 $117 $118 $119 $120 forward $46 $-1 #
face $-1 $121 $122 $28 $-1 $123 reversed single #
loop $-1 $-1 $124 $48 #
plane-surface $-1 -62.691711585657963 -31.545966938915058 0 0 -1 0 0 0 -1 forward_v I I I I #
coedge $-1 $125 $126 $127 $128 reversed $49 $-1 #
face $-1 $129 $130 $29 $-1 $131 reversed single #
loop $-1 $-1 $132 $51 #
plane-surface $-1 -11.766461597118429 -41.413804223444131 8.6993810281541073 0 -0.50000000669873634 0.8660253999169214 1 0 0 forward_v I I I I #
coedge $-1 $133 $134 $135 $136 reversed $52 $-1 #
face $-1 $-1 $137 $30 $-1 $138 forward single #
loop $-1 $139 $140 $54 #
cone-surface $-1 -19.023912299787483 -32.737575123761275 4.0951593441131759 0 0.50000000669873634 -0.8660253999169214 1.25 0 0 1 I I -0.70710678118654746 0.70710678118654746 1.25 forward I I I I #
loop $-1 $-1 $141 $39 #
coedge $-1 $88 $88 $142 $143 reversed $55 $-1 #
face $-1 $-1 $144 $31 $-1 $145 forward single #
loop $-1 $146 $147 $57 #
cone-surface $-1 -4.5090108944493608 -32.737575123761275 4.0951593441131759 0 0.50000000669873634 -0.8660253999169214 1.25 0 0 1 I I -0.70710678118654746 0.70710678118654746 1.25 forward I I I I #
loop $-1 $-1 $148 $40 #
coedge $-1 $93 $93 $149 $150 reversed $58 $-1 #
face $-1 $151 $152 $32 $-1 $153 reversed single #
loop $-1 $-1 $154 $60 #
plane-surface $-1 -13.61425080575566 -7.2710415713225984 69.448433099966792 0 0.80901700255871778 0.5877852410284794 1 0 0 forward_v I I I I #
coedge $-1 $155 $156 $157 $158 reversed $61 $-1 #
face $-1 $-1 $159 $33 $-1 $160 forward single #
loop $-1 $161 $162 $63 #
cone-surface $-1 -18.354958737552131 35.342268053557213 6.7917946651929224 0 -0.80901700255871778 -0.5877852410284794 0.5 0 0 1 I I -0.70710678118654746 0.70710678118654746 0.5 forward I I I I #
loop $-1 $-1 $163 $42 #
coedge $-1 $102 $102 $164 $165 reversed $64 $-1 #
face $-1 $-1 $166 $34 $-1 $167 forward single #
loop $-1 $168 $169 $66 #
cone-surface $-1 -13.61425080575566 35.342268053557213 6.7917946651929224 0 -0.80901700255871778 -0.5877852410284794 0.5 0 0 1 I I -0.70710678118654746 0.70710678118654746 0.5 forward I I I I #
loop $-1 $-1 $170 $43 #
coedge $-1 $107 $107 $171 $172 reversed $67 $-1 #
face $-1 $-1 $173 $35 $-1 $174 forward single #
loop $-1 $175 $176 $69 #
cone-surface $-1 -8.8735428739591882 35.342268053557213 6.7917946651929224 0 -0.80901700255871778 -0.5877852410284794 0.5 0 0 1 I I -0.70710678118654746 0.70710678118654746 0.5 forward I I I I #
loop $-1 $-1 $177 $44 #
coedge $-1 $112 $112 $178 $179 reversed $70 $-1 #
face $-1 $180 $181 $27 $-1 $182 reversed single #
loop $-1 $-1 $183 $72 #
plane-surface $-1 0 -41.41380422344411 0 0 1 0 0 0 1 forward_v I I I I #
coedge $-1 $184 $185 $186 $187 forward $73 $-1 #
coedge $-1 $188 $75 $189 $190 forward $46 $-1 #
coedge $-1 $75 $188 $191 $192 forward $46 $-1 #
coedge $-1 $193 $194 $75 $120 reversed $195 $-1 #
edge $-1 $196 -41.41380422344411 $197 41.41380422344411 $119 $198 forward 7 unknown #
face $-1 $199 $200 $28 $-1 $201 reversed single #
loop $-1 $-1 $202 $76 #
plane-surface $-1 -53.784558459868435 -35.376350027082104 0 -1 0 0 0 0 1 forward_v I I I I #
coedge $-1 $203 $204 $205 $206 forward $77 $-1 #
coedge $-1 $207 $79 $208 $209 reversed $49 $-1 #
coedge $-1 $79 $207 $210 $211 reversed $49 $-1 #
coedge $-1 $212 $213 $79 $128 forward $214 $-1 #
edge $-1 $215 -13.911105000938749 $216 13.911105000938749 $127 $217 forward 7 unknown #
face $-1 $218 $219 $29 $-1 $220 reversed single #
loop $-1 $-1 $221 $80 #
plane-surface $-1 -28.700513236679569 -113.01266989413546 132.71225191881183 1 0 0 0 0.50000000669873634 -0.8660253999169214 forward_v I I I I #
coedge $-1 $222 $223 $224 $225 reversed $81 $-1 #
coedge $-1 $134 $83 $226 $227 reversed $52 $-1 #
coedge $-1 $83 $133 $222 $228 reversed $52 $-1 #
coedge $-1 $224 $229 $83 $136 forward $230 $-1 #
edge $-1 $231 15.092530723623618 $232 24.119501278259854 $135 $233 forward 7 unknown #
loop $-1 $-1 $142 $84 #
plane-surface $-1 -11.766461597118429 -41.413804223444131 8.6993810281541073 0 -0.50000000669873634 0.8660253999169214 1 0 0 forward_v I I I I #
loop $-1 $-1 $234 $54 #
coedge $-1 $140 $140 $141 $235 reversed $85 $-1 #
coedge $-1 $141 $141 $140 $235 forward $87 $-1 #
coedge $-1 $142 $142 $88 $143 forward $137 $-1 #
edge $-1 $236 3.0425661084038211e-016 $236 6.2831853071796004 $142 $237 forward 7 unknown #
loop $-1 $-1 $149 $89 #
plane-surface $-1 -11.766461597118429 -41.413804223444131 8.6993810281541073 0 -0.50000000669873634 0.8660253999169214 1 0 0 forward_v I I I I #
loop $-1 $-1 $238 $57 #
coedge $-1 $147 $147 $148 $239 reversed $90 $-1 #
coedge $-1 $148 $148 $147 $239 forward $92 $-1 #
coedge $-1 $149 $149 $93 $150 forward $144 $-1 #
edge $-1 $240 3.0425661084038211e-016 $240 6.2831853071796004 $149 $241 forward 7 unknown #
face $-1 $242 $243 $32 $-1 $244 reversed single #
loop $-1 $-1 $245 $94 #
plane-surface $-1 -5.7130709194282048 108.5783562596022 153.61794500353409 -1 0 0 0 0.80901700255871778 0.5877852410284794 forward_v I I I I #
coedge $-1 $246 $247 $248 $249 reversed $95 $-1 #
coedge $-1 $156 $97 $250 $251 reversed $61 $-1 #
coedge $-1 $97 $155 $246 $252 reversed $61 $-1 #
coedge $-1 $248 $253 $97 $158 forward $254 $-1 #
edge $-1 $255 12.875373906356991 $256 21.209990126813032 $157 $257 forward 7 unknown #
loop $-1 $-1 $164 $98 #
plane-surface $-1 -13.61425080575566 -7.2710415713225984 69.448433099966792 0 0.80901700255871778 0.5877852410284794 1 0 0 forward_v I I I I #
loop $-1 $-1 $258 $63 #
coedge $-1 $162 $162 $163 $259 reversed $99 $-1 #
coedge $-1 $163 $163 $162 $259 forward $101 $-1 #
coedge $-1 $164 $164 $102 $165 forward $159 $-1 #
edge $-1 $260 0 $260 6.2831853071796004 $164 $261 forward 7 unknown #
loop $-1 $-1 $171 $103 #
plane-surface $-1 -13.61425080575566 -7.2710415713225984 69.448433099966792 0 0.80901700255871778 0.5877852410284794 1 0 0 forward_v I I I I #
loop $-1 $-1 $262 $66 #
coedge $-1 $169 $169 $170 $263 reversed $104 $-1 #
coedge $-1 $170 $170 $169 $263 forward $106 $-1 #
coedge $-1 $171 $171 $107 $172 forward $166 $-1 #
edge $-1 $264 0 $264 6.2831853071796004 $171 $265 forward 7 unknown #
loop $-1 $-1 $178 $108 #
plane-surface $-1 -13.61425080575566 -7.2710415713225984 69.448433099966792 0 0.80901700255871778 0.5877852410284794 1 0 0 forward_v I I I I #
loop $-1 $-1 $266 $69 #
coedge $-1 $176 $176 $177 $267 reversed $109 $-1 #
coedge $-1 $177 $177 $176 $267 forward $111 $-1 #
coedge $-1 $178 $178 $112 $179 forward $173 $-1 #
edge $-1 $268 0 $268 6.2831853071796004 $178 $269 forward 7 unknown #
face $-1 $270 $271 $27 $-1 $272 reversed single #
loop $-1 $-1 $273 $113 #
plane-surface $-1 -71.59886471144749 0 0 1 0 0 0 0 -1 forward_v I I I I #
coedge $-1 $274 $191 $275 $276 forward $114 $-1 #
coedge $-1 $277 $116 $274 $278 forward $73 $-1 #
coedge $-1 $116 $277 $279 $280 forward $73 $-1 #
coedge $-1 $194 $193 $116 $187 reversed $195 $-1 #
edge $-1 $281 -41.41380422344411 $282 41.41380422344411 $186 $283 forward 7 unknown #
coedge $-1 $118 $117 $284 $285 forward $46 $-1 #
coedge $-1 $286 $287 $117 $190 reversed $271 $-1 #
edge $-1 $197 -71.59886471144749 $288 71.59886471144749 $189 $289 forward 7 unknown #
coedge $-1 $183 $290 $118 $192 reversed $114 $-1 #
edge $-1 $291 -71.59886471144749 $196 71.59886471144749 $191 $292 forward 7 unknown #
coedge $-1 $186 $119 $290 $293 forward $195 $-1 #
coedge $-1 $119 $186 $286 $294 reversed $195 $-1 #
loop $-1 $-1 $193 $270 #
vertex $-1 $120 $295 #
vertex $-1 $120 $296 #
straight-curve $-1 71.59886471144749 0 13.911105000938749 0 1 0 I I #
face $-1 $297 $298 $28 $-1 $299 forward single #
loop $-1 $-1 $300 $121 #
plane-surface $-1 0 0 -13.911105000938749 0 0 1 1 0 0 forward_v I I I I #
coedge $-1 $301 $302 $207 $303 forward $122 $-1 #
coedge $-1 $304 $124 $300 $305 reversed $77 $-1 #
coedge $-1 $124 $304 $306 $307 reversed $77 $-1 #
coedge $-1 $302 $301 $124 $206 reversed $122 $-1 #
edge $-1 $308 -13.911105000938749 $309 13.911105000938749 $205 $310 forward 7 unknown #
coedge $-1 $126 $125 $202 $303 reversed $49 $-1 #
coedge $-1 $311 $312 $125 $209 forward $200 $-1 #
edge $-1 $313 22.438702667039454 $215 40.253008918618505 $208 $314 forward 7 unknown #
coedge $-1 $315 $316 $126 $211 forward $298 $-1 #
edge $-1 $216 -40.253008918618505 $317 -22.438702667039454 $210 $318 forward 7 unknown #
coedge $-1 $319 $127 $316 $320 reversed $214 $-1 #
coedge $-1 $127 $319 $311 $321 reversed $214 $-1 #
loop $-1 $-1 $319 $297 #
vertex $-1 $321 $322 #
vertex $-1 $128 $323 #
straight-curve $-1 -71.59886471144749 -39.206733115249151 0 0 0 1 I I #
face $-1 $-1 $230 $29 $-1 $324 forward single #
loop $-1 $-1 $325 $129 #
plane-surface $-1 0 -41.41380422344411 0 0 1 0 0 0 1 forward_v I I I I #
coedge $-1 $326 $327 $328 $329 reversed $130 $-1 #
coedge $-1 $330 $132 $134 $228 forward $81 $-1 #
coedge $-1 $132 $330 $326 $331 forward $81 $-1 #
coedge $-1 $328 $135 $132 $225 forward $230 $-1 #
edge $-1 $232 -11.050820841001926 $332 22.817282438120355 $224 $333 forward 7 unknown #
coedge $-1 $334 $335 $133 $227 forward $219 $-1 #
edge $-1 $336 -57.656744931251794 $231 -52.445020958467168 $226 $337 forward 7 unknown #
edge $-1 $232 -10.423447805921423 $336 -2.4677690728037424e-014 $134 $338 forward 7 unknown #
coedge $-1 $135 $328 $334 $339 forward $230 $-1 #
loop $-1 $-1 $328 $218 #
vertex $-1 $227 $340 #
vertex $-1 $136 $341 #
straight-curve $-1 5.1675900424427113 -56.506334947067728 13.911105000938747 0 1 0 I I #
coedge $-1 $234 $234 $-1 $342 reversed $139 $-1 #
edge $-1 $343 0 $343 6.2831853071796004 $140 $344 forward 7 unknown #
vertex $-1 $143 $345 #
ellipse-curve $-1 -19.023912299787483 -36.900318946125978 11.305243014546443 0 -0.50000000669873634 0.8660253999169214 2.5 0 0 1 I I #
coedge $-1 $238 $238 $-1 $346 reversed $146 $-1 #
edge $-1 $347 0 $347 6.2831853071796004 $147 $348 forward 7 unknown #
vertex $-1 $150 $349 #
ellipse-curve $-1 -4.5090108944493608 -36.900318946125978 11.305243014546443 0 -0.50000000669873634 0.8660253999169214 2.5 0 0 1 I I #
face $-1 $-1 $254 $32 $-1 $350 forward single #
loop $-1 $-1 $351 $151 #
plane-surface $-1 0 41.41380422344411 0 0 -1 0 0 0 -1 forward_v I I I I #
coedge $-1 $352 $353 $354 $355 reversed $152 $-1 #
coedge $-1 $356 $154 $156 $252 forward $95 $-1 #
coedge $-1 $154 $356 $352 $357 forward $95 $-1 #
coedge $-1 $354 $157 $154 $249 forward $254 $-1 #
edge $-1 $256 -14.708305289205285 $358 1.0940544834496251 $248 $359 forward 7 unknown #
coedge $-1 $360 $361 $155 $251 forward $243 $-1 #
edge $-1 $362 -74.369482916608888 $255 -62.897867500828298 $250 $363 forward 7 unknown #
edge $-1 $256 68.6479121246864 $362 82.827608446888206 $156 $364 forward 7 unknown #
coedge $-1 $157 $354 $360 $365 forward $254 $-1 #
loop $-1 $-1 $354 $242 #
vertex $-1 $251 $366 #
vertex $-1 $158 $367 #
straight-curve $-1 -21.515430692083115 54.289178129801101 13.911105000938747 0 -1 0 I I #
coedge $-1 $258 $258 $-1 $368 reversed $161 $-1 #
edge $-1 $369 0 $369 6.2831853071796004 $162 $370 forward 7 unknown #
vertex $-1 $165 $371 #
ellipse-curve $-1 -18.354958737552131 37.246496113216089 8.1752972930484482 0 0.80901700255871778 0.5877852410284794 1 0 0 1 I I #
coedge $-1 $262 $262 $-1 $372 reversed $168 $-1 #
edge $-1 $373 0 $373 6.2831853071796004 $169 $374 forward 7 unknown #
vertex $-1 $172 $375 #
ellipse-curve $-1 -13.61425080575566 37.246496113216089 8.1752972930484482 0 0.80901700255871778 0.5877852410284794 1 0 0 1 I I #
coedge $-1 $266 $266 $-1 $376 reversed $175 $-1 #
edge $-1 $377 0 $377 6.2831853071796004 $176 $378 forward 7 unknown #
vertex $-1 $179 $379 #
ellipse-curve $-1 -8.8735428739591882 37.246496113216089 8.1752972930484482 0 0.80901700255871778 0.5877852410284794 1 0 0 1 I I #
face $-1 $-1 $195 $27 $-1 $380 reversed single #
loop $-1 $-1 $286 $180 #
plane-surface $-1 0 41.41380422344411 0 0 -1 0 0 0 -1 forward_v I I I I #
coedge $-1 $381 $284 $287 $382 forward $181 $-1 #
coedge $-1 $290 $183 $184 $278 reversed $114 $-1 #
coedge $-1 $284 $381 $183 $276 reversed $181 $-1 #
edge $-1 $291 -13.911105000938749 $383 13.911105000938749 $275 $384 forward 7 unknown #
coedge $-1 $185 $184 $381 $385 forward $73 $-1 #
edge $-1 $282 -71.59886471144749 $383 71.59886471144749 $274 $386 forward 7 unknown #
coedge $-1 $287 $286 $185 $280 reversed $271 $-1 #
edge $-1 $387 -71.59886471144749 $281 71.59886471144749 $279 $388 forward 7 unknown #
vertex $-1 $187 $389 #
vertex $-1 $293 $390 #
straight-curve $-1 71.59886471144749 0 -13.911105000938749 0 -1 0 I I #
coedge $-1 $273 $275 $188 $285 reversed $181 $-1 #
edge $-1 $288 -41.41380422344411 $291 41.41380422344411 $284 $391 forward 7 unknown #
coedge $-1 $279 $189 $194 $294 forward $271 $-1 #
coedge $-1 $189 $279 $273 $382 reversed $271 $-1 #
vertex $-1 $190 $392 #
straight-curve $-1 0 41.41380422344411 13.911105000938749 -1 0 0 I I #
coedge $-1 $191 $274 $193 $293 reversed $114 $-1 #
vertex $-1 $285 $393 #
straight-curve $-1 0 -41.41380422344411 13.911105000938749 1 0 0 I I #
edge $-1 $196 -13.911105000938749 $282 13.911105000938749 $193 $394 forward 7 unknown #
edge $-1 $197 -13.911105000938749 $281 13.911105000938749 $194 $395 forward 7 unknown #
point $-1 71.59886471144749 -41.41380422344411 13.911105000938749 #
point $-1 71.59886471144749 41.41380422344411 13.911105000938749 #
face $-1 $-1 $214 $28 $-1 $396 reversed single #
loop $-1 $-1 $306 $199 #
plane-surface $-1 0 0 13.911105000938749 0 0 1 1 0 0 forward_v I I I I #
coedge $-1 $312 $311 $203 $305 forward $200 $-1 #
coedge $-1 $205 $202 $312 $397 reversed $122 $-1 #
coedge $-1 $202 $205 $315 $398 reversed $122 $-1 #
edge $-1 $317 -13.911105000938749 $313 13.911105000938749 $202 $399 forward 7 unknown #
coedge $-1 $204 $203 $319 $400 reversed $77 $-1 #
edge $-1 $401 -40.253008918618505 $309 -22.438702667039454 $300 $402 forward 7 unknown #
coedge $-1 $316 $315 $204 $307 forward $298 $-1 #
edge $-1 $308 22.438702667039454 $403 40.253008918618505 $306 $404 forward 7 unknown #
vertex $-1 $307 $405 #
vertex $-1 $305 $406 #
straight-curve $-1 -53.784558459868435 -31.545966938915058 0 0 0 -1 I I #
coedge $-1 $300 $208 $213 $321 forward $200 $-1 #
coedge $-1 $208 $300 $301 $397 forward $200 $-1 #
vertex $-1 $209 $407 #
straight-curve $-1 -31.345855792828981 -39.206733115249151 -13.911105000938749 -1 0 0 I I #
coedge $-1 $306 $210 $302 $398 forward $298 $-1 #
coedge $-1 $210 $306 $212 $320 forward $298 $-1 #
vertex $-1 $211 $408 #
straight-curve $-1 -31.345855792828981 -39.206733115249151 13.911105000938749 1 0 0 I I #
coedge $-1 $213 $212 $304 $400 forward $214 $-1 #
edge $-1 $403 31.545966938915058 $216 39.206733115249151 $212 $409 forward 7 unknown #
edge $-1 $215 -39.206733115249151 $401 -31.545966938915058 $213 $410 forward 7 unknown #
point $-1 -71.59886471144749 -39.206733115249151 -13.911105000938749 #
point $-1 -71.59886471144749 -39.206733115249151 13.911105000938749 #
plane-surface $-1 0 0 13.911105000938749 0 0 1 1 0 0 forward_v I I I I #
coedge $-1 $335 $334 $327 $411 forward $219 $-1 #
coedge $-1 $327 $221 $223 $331 reversed $130 $-1 #
coedge $-1 $221 $326 $325 $411 reversed $130 $-1 #
coedge $-1 $229 $224 $221 $329 forward $230 $-1 #
edge $-1 $332 -24.119501278259854 $412 -15.092530723623618 $328 $413 forward 7 unknown #
coedge $-1 $223 $222 $335 $414 reversed $81 $-1 #
edge $-1 $415 2.4677690728037424e-014 $332 10.423447805921423 $326 $416 forward 7 unknown #
vertex $-1 $225 $417 #
straight-curve $-1 -5.8832307985592145 -32.386833668807874 13.91110500093875 -1 0 0 I I #
coedge $-1 $325 $226 $229 $339 reversed $219 $-1 #
coedge $-1 $226 $325 $330 $414 forward $219 $-1 #
vertex $-1 $227 $418 #
straight-curve $-1 5.1675900424427113 -41.41380422344411 66.356125959405915 0 0 1 I I #
straight-curve $-1 5.1675900424427113 -41.413804223444131 8.6993810281541073 0 -0.8660253999169214 -0.50000000669873634 I I #
edge $-1 $412 -28.700513236679569 $231 5.1675900424427113 $334 $419 forward 7 unknown #
point $-1 5.1675900424427113 -41.41380422344411 13.911105000938749 #
point $-1 5.1675900424427113 -32.386833668807874 13.911105000938749 #
edge $-1 $420 1 $420 0 $234 $-1 forward 7 unknown #
vertex $-1 $235 $421 #
ellipse-curve $-1 -19.023912299787483 -33.362575132134694 5.1776910940093277 0 -0.50000000669873634 0.8660253999169214 2.5 0 0 1 I I #
point $-1 -16.523912299787483 -36.900318946125964 11.30524301454642 #
edge $-1 $422 1 $422 0 $238 $-1 forward 7 unknown #
vertex $-1 $239 $423 #
ellipse-curve $-1 -4.5090108944493608 -33.362575132134694 5.1776910940093277 0 -0.50000000669873634 0.8660253999169214 2.5 0 0 1 I I #
point $-1 -2.0090108944493608 -36.900318946125964 11.30524301454642 #
plane-surface $-1 0 0 13.911105000938749 0 0 1 1 0 0 forward_v I I I I #
coedge $-1 $361 $360 $353 $424 forward $243 $-1 #
coedge $-1 $353 $245 $247 $357 reversed $152 $-1 #
coedge $-1 $245 $352 $351 $424 reversed $152 $-1 #
coedge $-1 $253 $248 $245 $355 forward $254 $-1 #
edge $-1 $358 -21.209990126813032 $425 -12.875373906356991 $354 $426 forward 7 unknown #
coedge $-1 $247 $246 $361 $427 reversed $95 $-1 #
edge $-1 $428 -82.827608446888206 $358 -68.6479121246864 $352 $429 forward 7 unknown #
vertex $-1 $249 $430 #
straight-curve $-1 -6.8071254028778299 33.079188002988062 13.911105000938754 1 0 0 I I #
coedge $-1 $351 $250 $253 $365 reversed $243 $-1 #
coedge $-1 $250 $351 $356 $427 forward $243 $-1 #
vertex $-1 $251 $431 #
straight-curve $-1 -21.515430692083115 41.41380422344411 76.808972501767045 0 0 1 I I #
straight-curve $-1 -21.515430692083115 -7.2710415713225984 69.448433099966792 0 0.5877852410284794 -0.80901700255871778 I I #
edge $-1 $425 5.7130709194282048 $255 21.515430692083115 $360 $432 forward 7 unknown #
point $-1 -21.515430692083115 41.41380422344411 13.911105000938749 #
point $-1 -21.515430692083115 33.079188002988069 13.91110500093874 #
edge $-1 $433 1 $433 0 $258 $-1 forward 7 unknown #
vertex $-1 $259 $434 #
ellipse-curve $-1 -18.354958737552131 35.746776554836572 7.085687285707162 0 0.80901700255871778 0.5877852410284794 1 0 0 1 I I #
point $-1 -17.354958737552131 37.246496113216089 8.1752972930484482 #
edge $-1 $435 1 $435 0 $262 $-1 forward 7 unknown #
vertex $-1 $263 $436 #
ellipse-curve $-1 -13.61425080575566 35.746776554836572 7.085687285707162 0 0.80901700255871778 0.5877852410284794 1 0 0 1 I I #
point $-1 -12.61425080575566 37.246496113216089 8.1752972930484482 #
edge $-1 $437 1 $437 0 $266 $-1 forward 7 unknown #
vertex $-1 $267 $438 #
ellipse-curve $-1 -8.8735428739591882 35.746776554836572 7.085687285707162 0 0.80901700255871778 0.5877852410284794 1 0 0 1 I I #
point $-1 -7.8735428739591882 37.246496113216089 8.1752972930484482 #
plane-surface $-1 71.59886471144749 0 0 -1 0 0 0 0 1 forward_v I I I I #
coedge $-1 $275 $273 $277 $385 reversed $181 $-1 #
edge $-1 $288 -13.911105000938749 $387 13.911105000938749 $287 $439 forward 7 unknown #
vertex $-1 $385 $440 #
straight-curve $-1 -71.59886471144749 -41.41380422344411 0 0 0 -1 I I #
edge $-1 $383 -41.41380422344411 $387 41.41380422344411 $381 $441 forward 7 unknown #
straight-curve $-1 0 -41.41380422344411 -13.911105000938749 -1 0 0 I I #
vertex $-1 $280 $442 #
straight-curve $-1 0 41.41380422344411 -13.911105000938749 1 0 0 I I #
point $-1 71.59886471144749 41.41380422344411 -13.911105000938749 #
point $-1 71.59886471144749 -41.41380422344411 -13.911105000938749 #
straight-curve $-1 -71.59886471144749 0 13.911105000938749 0 -1 0 I I #
point $-1 -71.59886471144749 41.41380422344411 13.911105000938749 #
point $-1 -71.59886471144749 -41.41380422344411 13.911105000938749 #
straight-curve $-1 71.59886471144749 -41.41380422344411 0 0 0 -1 I I #
straight-curve $-1 71.59886471144749 41.41380422344411 0 0 0 -1 I I #
plane-surface $-1 -71.59886471144749 0 0 1 0 0 0 0 -1 forward_v I I I I #
edge $-1 $309 13.857791925374006 $313 21.518558101708098 $312 $443 forward 7 unknown #
edge $-1 $317 -21.518558101708098 $308 -13.857791925374006 $315 $444 forward 7 unknown #
straight-curve $-1 -53.784558459868435 -39.206733115249151 0 0 0 -1 I I #
edge $-1 $403 -13.911105000938749 $401 13.911105000938749 $319 $445 forward 7 unknown #
vertex $-1 $400 $446 #
straight-curve $-1 -31.345855792828981 -31.545966938915058 -13.911105000938749 1 0 0 I I #
vertex $-1 $320 $447 #
straight-curve $-1 -31.345855792828981 -31.545966938915058 13.911105000938749 -1 0 0 I I #
point $-1 -53.784558459868435 -31.545966938915058 13.911105000938749 #
point $-1 -53.784558459868435 -31.545966938915058 -13.911105000938749 #
point $-1 -53.784558459868435 -39.206733115249151 -13.911105000938749 #
point $-1 -53.784558459868435 -39.206733115249151 13.911105000938749 #
straight-curve $-1 -71.59886471144749 0 13.911105000938749 0 -1 0 I I #
straight-curve $-1 -71.59886471144749 0 -13.911105000938749 0 1 0 I I #
edge $-1 $412 52.445020958467168 $415 57.656744931251794 $325 $448 forward 7 unknown #
vertex $-1 $339 $449 #
straight-curve $-1 -28.700513236679569 -56.506334947067728 13.911105000938747 0 -1 0 I I #
edge $-1 $415 -22.817282438120355 $336 11.050820841001926 $335 $450 forward 7 unknown #
vertex $-1 $414 $451 #
straight-curve $-1 -28.700513236679569 -41.413804223444131 8.6993810281541073 0 0.8660253999169214 0.50000000669873634 I I #
point $-1 -28.700513236679569 -32.386833668807874 13.911105000938749 #
point $-1 5.1675900424427113 -41.41380422344411 8.6993810281541197 #
straight-curve $-1 0 -41.41380422344411 13.911105000938749 1 0 0 I I #
vertex $-1 $342 $452 #
point $-1 -16.523912299787483 -33.362575132134694 5.1776910940093277 #
vertex $-1 $346 $453 #
point $-1 -2.0090108944493608 -33.362575132134694 5.1776910940093277 #
edge $-1 $425 62.897867500828298 $428 74.369482916608888 $351 $454 forward 7 unknown #
vertex $-1 $365 $455 #
straight-curve $-1 -5.7130709194282048 54.289178129801101 13.911105000938747 0 1 0 I I #
edge $-1 $428 -1.0940544834496251 $362 14.708305289205285 $361 $456 forward 7 unknown #
vertex $-1 $427 $457 #
straight-curve $-1 -5.7130709194282048 -7.2710415713225984 69.448433099966792 0 -0.5877852410284794 0.80901700255871778 I I #
point $-1 -5.7130709194282048 33.079188002988069 13.91110500093874 #
point $-1 -21.515430692083115 41.41380422344411 2.4394895851581566 #
straight-curve $-1 0 41.41380422344411 13.911105000938749 -1 0 0 I I #
vertex $-1 $368 $458 #
point $-1 -17.354958737552131 35.746776554836572 7.085687285707162 #
vertex $-1 $372 $459 #
point $-1 -12.61425080575566 35.746776554836572 7.085687285707162 #
vertex $-1 $376 $460 #
point $-1 -7.8735428739591882 35.746776554836572 7.085687285707162 #
straight-curve $-1 -71.59886471144749 41.41380422344411 0 0 0 -1 I I #
point $-1 -71.59886471144749 -41.41380422344411 -13.911105000938749 #
straight-curve $-1 -71.59886471144749 0 -13.911105000938749 0 1 0 I I #
point $-1 -71.59886471144749 41.41380422344411 -13.911105000938749 #
straight-curve $-1 -53.784558459868435 -17.688175013541052 -13.911105000938749 0 -1 0 I I #
straight-curve $-1 -53.784558459868435 -17.688175013541052 13.911105000938749 0 1 0 I I #
straight-curve $-1 -71.59886471144749 -31.545966938915058 0 0 0 -1 I I #
point $-1 -71.59886471144749 -31.545966938915058 -13.911105000938749 #
point $-1 -71.59886471144749 -31.545966938915058 13.911105000938749 #
straight-curve $-1 -28.700513236679569 -41.41380422344411 66.356125959405915 0 0 -1 I I #
point $-1 -28.700513236679569 -41.41380422344411 13.911105000938749 #
straight-curve $-1 -5.8832307985592145 -41.41380422344411 8.699381028154118 1 0 0 I I #
point $-1 -28.700513236679569 -41.41380422344411 8.6993810281541197 #
point $-1 -19.023912299787483 -32.112575115387855 3.0126275942170242 #
point $-1 -4.5090108944493608 -32.112575115387855 3.0126275942170242 #
straight-curve $-1 -5.7130709194282048 41.41380422344411 76.808972501767045 0 0 -1 I I #
point $-1 -5.7130709194282048 41.41380422344411 13.911105000938749 #
straight-curve $-1 -6.8071254028778299 41.41380422344411 2.4394895851581495 -1 0 0 I I #
point $-1 -5.7130709194282048 41.41380422344411 2.4394895851581566 #
point $-1 -18.354958737552131 34.937759552277853 6.4979020446786828 #
point $-1 -13.61425080575566 34.937759552277853 6.4979020446786828 #
point $-1 -8.8735428739591882 34.937759552277853 6.4979020446786828 #
End-of-ACIS-data 