500 0 5 0           
7 Unknown 11 ACIS 5.0 NT 24 Fri Mar 26 15:30:22 1999 
-1 9.9999999999999995e-007 1e-010 
body $-1 $5 $-1 $6 #
body $-1 $7 $-1 $8 #
body $-1 $9 $-1 $10 #
body $-1 $11 $-1 $12 #
body $-1 $13 $-1 $14 #
lump $-1 $-1 $15 $0 #
transform $-1 1 0 0 0 1 0 0 0 1 70.993377483443709 36.485747148692042 9.4166788250915179 1 rotate no_reflect no_shear #
lump $-1 $-1 $16 $1 #
transform $-1 1 0 0 0 1 0 0 0 1 70.993377483443709 36.485747148692042 9.4166788250915179 1 rotate no_reflect no_shear #
lump $-1 $-1 $17 $2 #
transform $-1 1 0 0 0 1 0 0 0 1 70.993377483443709 36.485747148692042 9.4166788250915179 1 rotate no_reflect no_shear #
lump $-1 $-1 $18 $3 #
transform $-1 1 0 0 0 1 0 0 0 1 70.993377483443709 36.485747148692042 9.4166788250915179 1 rotate no_reflect no_shear #
lump $-1 $-1 $19 $4 #
transform $-1 1 0 0 0 1 0 0 0 1 70.993377483443709 36.485747148692042 9.4166788250915179 1 rotate no_reflect no_shear #
shell $-1 $-1 $-1 $20 $-1 $5 #
shell $-1 $-1 $-1 $21 $-1 $7 #
shell $-1 $-1 $-1 $22 $-1 $9 #
shell $-1 $-1 $-1 $23 $-1 $11 #
shell $-1 $-1 $-1 $24 $-1 $13 #
face $-1 $25 $26 $15 $-1 $27 forward single #
face $-1 $28 $29 $16 $-1 $30 reversed single #
face $-1 $31 $32 $17 $-1 $33 forward single #
face $-1 $34 $35 $18 $-1 $36 reversed single #
face $-1 $37 $38 $19 $-1 $39 forward single #
face $-1 $40 $41 $15 $-1 $42 reversed single #
loop $-1 $-1 $43 $20 #
plane-surface $-1 0 0 9.4166788250915179 0 0 1 1 0 0 forward_v I I I I #
face $-1 $44 $45 $16 $-1 $46 reversed single #
loop $-1 $-1 $47 $21 #
plane-surface $-1 -64.834512602145423 -31.897792475665639 0 0 -1 0 0 0 -1 forward_v I I I I #
face $-1 $48 $49 $17 $-1 $50 reversed single #
loop $-1 $-1 $51 $22 #
plane-surface $-1 70.993377483443709 0 0 -1 0 0 0 0 1 forward_v I I I I #
face $-1 $52 $53 $18 $-1 $54 reversed single #
loop $-1 $-1 $55 $23 #
plane-surface $-1 -13.121522161010926 74.56515555125452 158.20046839517155 1 0 0 0 -0.6560590369687036 -0.75470957328743171 forward_v I I I I #
face $-1 $56 $57 $19 $-1 $58 forward single #
loop $-1 $59 $60 $24 #
cone-surface $-1 -3.7807228760016898 30.713594438821783 3.7868082621708479 0 -0.6560590369687036 -0.75470957328743171 2 0 0 1 I I 0 1 2 forward I I I I #
face $-1 $61 $62 $15 $-1 $63 reversed single #
loop $-1 $-1 $64 $25 #
plane-surface $-1 0 0 -9.4166788250915179 0 0 1 1 0 0 forward_v I I I I #
coedge $-1 $65 $66 $67 $68 forward $26 $-1 #
face $-1 $69 $70 $16 $-1 $71 forward single #
loop $-1 $-1 $72 $28 #
plane-surface $-1 -58.675647720847138 -34.19176981217884 0 -1 0 0 0 0 1 forward_v I I I I #
coedge $-1 $73 $74 $75 $76 forward $29 $-1 #
face $-1 $77 $78 $17 $-1 $79 forward single #
loop $-1 $-1 $80 $31 #
plane-surface $-1 0 -36.485747148692042 0 0 1 0 0 0 1 forward_v I I I I #
coedge $-1 $81 $82 $83 $84 forward $32 $-1 #
face $-1 $85 $86 $18 $-1 $87 reversed single #
loop $-1 $-1 $88 $34 #
plane-surface $-1 -3.7807228760016898 -18.586538174632935 51.041705141644826 0 0.6560590369687036 0.75470957328743171 1 0 0 forward_v I I I I #
coedge $-1 $89 $90 $91 $92 reversed $35 $-1 #
face $-1 $-1 $93 $19 $-1 $94 forward single #
loop $-1 $95 $96 $37 #
cone-surface $-1 -3.7807228760016898 27.879468252660189 0.52651910514062727 0 -0.6560590369687036 -0.75470957328743171 1 0 0 1 I I -0.70710678118654746 0.70710678118654746 1 forward I I I I #
loop $-1 $-1 $97 $24 #
coedge $-1 $60 $60 $98 $99 reversed $38 $-1 #
face $-1 $100 $101 $15 $-1 $102 reversed single #
loop $-1 $-1 $103 $40 #
plane-surface $-1 0 -36.485747148692042 0 0 1 0 0 0 1 forward_v I I I I #
coedge $-1 $104 $105 $106 $107 forward $41 $-1 #
coedge $-1 $108 $43 $109 $110 forward $26 $-1 #
coedge $-1 $43 $108 $111 $112 forward $26 $-1 #
coedge $-1 $113 $114 $43 $68 reversed $115 $-1 #
edge $-1 $116 -36.485747148692042 $117 36.485747148692042 $67 $118 forward 7 unknown #
face $-1 $119 $120 $16 $-1 $121 reversed single #
loop $-1 $-1 $122 $44 #
plane-surface $-1 0 0 9.4166788250915179 0 0 1 1 0 0 forward_v I I I I #
coedge $-1 $123 $124 $125 $126 reversed $45 $-1 #
coedge $-1 $127 $47 $128 $129 reversed $29 $-1 #
coedge $-1 $47 $127 $130 $131 reversed $29 $-1 #
coedge $-1 $124 $123 $47 $76 reversed $45 $-1 #
edge $-1 $132 -9.4166788250915179 $133 9.4166788250915179 $75 $134 forward 7 unknown #
face $-1 $135 $136 $17 $-1 $137 reversed single #
loop $-1 $-1 $138 $48 #
plane-surface $-1 77.095909548698586 0 -4.2897085935964885 0 0 1 1 0 0 forward_v I I I I #
coedge $-1 $139 $140 $82 $141 forward $49 $-1 #
coedge $-1 $142 $51 $143 $144 reversed $32 $-1 #
coedge $-1 $51 $142 $80 $141 reversed $32 $-1 #
coedge $-1 $145 $146 $51 $84 reversed $78 $-1 #
edge $-1 $147 -36.485747148692042 $148 36.485747148692042 $83 $149 forward 7 unknown #
face $-1 $150 $151 $18 $-1 $152 forward single #
loop $-1 $-1 $153 $52 #
plane-surface $-1 5.5600764090075465 74.56515555125452 158.20046839517155 -1 0 0 0 0.6560590369687036 0.75470957328743171 forward_v I I I I #
coedge $-1 $154 $155 $156 $157 reversed $53 $-1 #
coedge $-1 $90 $55 $158 $159 reversed $35 $-1 #
coedge $-1 $55 $89 $154 $160 reversed $35 $-1 #
coedge $-1 $156 $161 $55 $92 forward $151 $-1 #
edge $-1 $162 0.79683062693521833 $163 7.9850017482898892 $91 $164 forward 7 unknown #
loop $-1 $-1 $98 $56 #
plane-surface $-1 -3.7807228760016898 -18.586538174632935 51.041705141644826 0 0.6560590369687036 0.75470957328743171 1 0 0 forward_v I I I I #
loop $-1 $-1 $165 $37 #
coedge $-1 $96 $96 $97 $166 reversed $57 $-1 #
coedge $-1 $97 $97 $96 $166 forward $59 $-1 #
coedge $-1 $98 $98 $60 $99 forward $93 $-1 #
edge $-1 $167 -2.2759546572294781e-015 $167 6.2831853071795978 $98 $168 forward 7 unknown #
face $-1 $169 $170 $15 $-1 $171 reversed single #
loop $-1 $-1 $172 $61 #
plane-surface $-1 -70.993377483443709 0 0 1 0 0 0 0 -1 forward_v I I I I #
coedge $-1 $173 $111 $174 $175 forward $62 $-1 #
coedge $-1 $176 $64 $173 $177 forward $41 $-1 #
coedge $-1 $64 $176 $178 $179 forward $41 $-1 #
coedge $-1 $114 $113 $64 $107 reversed $115 $-1 #
edge $-1 $180 -36.485747148692042 $181 36.485747148692042 $106 $182 forward 7 unknown #
coedge $-1 $66 $65 $183 $184 forward $26 $-1 #
coedge $-1 $185 $186 $65 $110 reversed $170 $-1 #
edge $-1 $117 -70.993377483443709 $187 70.993377483443709 $109 $188 forward 7 unknown #
coedge $-1 $103 $189 $66 $112 reversed $62 $-1 #
edge $-1 $190 -70.993377483443709 $116 70.993377483443709 $111 $191 forward 7 unknown #
coedge $-1 $106 $67 $189 $192 forward $115 $-1 #
coedge $-1 $67 $106 $185 $193 reversed $115 $-1 #
loop $-1 $-1 $114 $169 #
vertex $-1 $68 $194 #
vertex $-1 $68 $195 #
straight-curve $-1 70.993377483443709 0 9.4166788250915179 0 1 0 I I #
face $-1 $196 $197 $16 $-1 $198 reversed single #
loop $-1 $-1 $199 $69 #
plane-surface $-1 -70.993377483443709 0 0 1 0 0 0 0 -1 forward_v I I I I #
coedge $-1 $130 $200 $124 $201 forward $70 $-1 #
coedge $-1 $75 $72 $202 $203 reversed $45 $-1 #
coedge $-1 $72 $75 $122 $201 reversed $45 $-1 #
coedge $-1 $204 $205 $72 $126 forward $206 $-1 #
edge $-1 $207 -9.4166788250915179 $208 9.4166788250915179 $125 $209 forward 7 unknown #
coedge $-1 $74 $73 $199 $210 reversed $29 $-1 #
coedge $-1 $202 $211 $73 $129 forward $197 $-1 #
edge $-1 $212 -38.576121182370997 $133 -26.258391419774426 $128 $213 forward 7 unknown #
coedge $-1 $214 $122 $74 $131 forward $70 $-1 #
edge $-1 $132 26.258391419774426 $215 38.576121182370997 $130 $216 forward 7 unknown #
vertex $-1 $131 $217 #
vertex $-1 $129 $218 #
straight-curve $-1 -58.675647720847138 -31.897792475665639 0 0 0 -1 I I #
face $-1 $219 $220 $17 $-1 $221 reversed single #
loop $-1 $-1 $222 $77 #
plane-surface $-1 83.198441613953463 0 -6.8531937093440032 -1 0 0 0 0 1 forward_v I I I I #
coedge $-1 $146 $145 $223 $224 forward $78 $-1 #
coedge $-1 $225 $80 $226 $227 reversed $49 $-1 #
coedge $-1 $80 $225 $145 $228 reversed $49 $-1 #
edge $-1 $147 4.2897085935964885 $229 9.4166788250915179 $80 $230 forward 7 unknown #
coedge $-1 $82 $81 $231 $232 reversed $32 $-1 #
coedge $-1 $233 $234 $81 $144 forward $235 $-1 #
edge $-1 $236 -9.4166788250915179 $148 -4.2897085935964885 $143 $237 forward 7 unknown #
coedge $-1 $138 $83 $140 $228 forward $78 $-1 #
coedge $-1 $83 $138 $233 $238 forward $78 $-1 #
vertex $-1 $141 $239 #
vertex $-1 $238 $240 #
straight-curve $-1 70.993377483443709 0 -4.2897085935964885 0 1 0 I I #
face $-1 $-1 $241 $18 $-1 $242 reversed single #
loop $-1 $-1 $91 $85 #
plane-surface $-1 0 0 9.4166788250915179 0 0 1 1 0 0 forward_v I I I I #
coedge $-1 $243 $244 $245 $246 reversed $86 $-1 #
coedge $-1 $247 $88 $90 $160 forward $53 $-1 #
coedge $-1 $88 $247 $243 $248 forward $53 $-1 #
coedge $-1 $245 $91 $88 $157 forward $151 $-1 #
edge $-1 $163 -11.231160723010081 $249 7.4504378470083914 $156 $250 forward 7 unknown #
coedge $-1 $251 $252 $89 $159 forward $241 $-1 #
edge $-1 $253 -75.932137330849983 $162 -69.683555372494254 $158 $254 forward 7 unknown #
edge $-1 $163 63.447074075650569 $253 72.971494297384055 $90 $255 forward 7 unknown #
coedge $-1 $91 $245 $251 $256 forward $151 $-1 #
vertex $-1 $159 $257 #
vertex $-1 $92 $258 #
straight-curve $-1 -13.121522161010926 37.28257777562726 9.4166788250915232 0 -1 0 I I #
coedge $-1 $165 $165 $-1 $259 reversed $95 $-1 #
edge $-1 $260 0 $260 6.2831853071796004 $96 $261 forward 7 unknown #
vertex $-1 $99 $262 #
ellipse-curve $-1 -3.7807228760016898 32.891661588014699 6.2923878459136624 0 0.6560590369687036 0.75470957328743171 2 0 0 1 I I #
face $-1 $-1 $115 $15 $-1 $263 reversed single #
loop $-1 $-1 $185 $100 #
plane-surface $-1 0 36.485747148692042 0 0 -1 0 0 0 -1 forward_v I I I I #
coedge $-1 $264 $183 $186 $265 forward $101 $-1 #
coedge $-1 $189 $103 $104 $177 reversed $62 $-1 #
coedge $-1 $183 $264 $103 $175 reversed $101 $-1 #
edge $-1 $190 -9.4166788250915179 $266 9.4166788250915179 $174 $267 forward 7 unknown #
coedge $-1 $105 $104 $264 $268 forward $41 $-1 #
edge $-1 $181 -70.993377483443709 $266 70.993377483443709 $173 $269 forward 7 unknown #
coedge $-1 $186 $185 $105 $179 reversed $170 $-1 #
edge $-1 $270 -70.993377483443709 $180 70.993377483443709 $178 $271 forward 7 unknown #
vertex $-1 $107 $272 #
vertex $-1 $192 $273 #
straight-curve $-1 70.993377483443709 0 -9.4166788250915179 0 -1 0 I I #
coedge $-1 $172 $174 $108 $184 reversed $101 $-1 #
edge $-1 $187 -36.485747148692042 $190 36.485747148692042 $183 $274 forward 7 unknown #
coedge $-1 $178 $109 $114 $193 forward $170 $-1 #
coedge $-1 $109 $178 $172 $265 reversed $170 $-1 #
vertex $-1 $110 $275 #
straight-curve $-1 0 36.485747148692042 9.4166788250915179 -1 0 0 I I #
coedge $-1 $111 $173 $113 $192 reversed $62 $-1 #
vertex $-1 $184 $276 #
straight-curve $-1 0 -36.485747148692042 9.4166788250915179 1 0 0 I I #
edge $-1 $116 -9.4166788250915179 $181 9.4166788250915179 $113 $277 forward 7 unknown #
edge $-1 $117 -9.4166788250915179 $180 9.4166788250915179 $114 $278 forward 7 unknown #
point $-1 70.993377483443709 -36.485747148692042 9.4166788250915179 #
point $-1 70.993377483443709 36.485747148692042 9.4166788250915179 #
face $-1 $-1 $206 $16 $-1 $279 reversed single #
loop $-1 $-1 $202 $119 #
plane-surface $-1 0 0 -9.4166788250915179 0 0 1 1 0 0 forward_v I I I I #
coedge $-1 $280 $281 $127 $210 forward $120 $-1 #
coedge $-1 $122 $214 $204 $282 forward $70 $-1 #
edge $-1 $208 -19.389862242602621 $132 -14.801907569576219 $122 $283 forward 7 unknown #
coedge $-1 $284 $128 $123 $203 forward $197 $-1 #
edge $-1 $133 14.801907569576219 $207 19.389862242602621 $202 $285 forward 7 unknown #
coedge $-1 $286 $125 $200 $282 reversed $206 $-1 #
coedge $-1 $125 $286 $284 $287 reversed $206 $-1 #
loop $-1 $-1 $125 $196 #
vertex $-1 $287 $288 #
vertex $-1 $126 $289 #
straight-curve $-1 -58.675647720847138 -36.485747148692042 0 0 0 1 I I #
edge $-1 $215 -9.4166788250915179 $212 9.4166788250915179 $199 $290 forward 7 unknown #
coedge $-1 $128 $284 $280 $291 forward $197 $-1 #
vertex $-1 $129 $292 #
straight-curve $-1 -32.417256301072712 -31.897792475665639 -9.4166788250915179 1 0 0 I I #
coedge $-1 $200 $130 $281 $293 forward $70 $-1 #
vertex $-1 $293 $294 #
straight-curve $-1 -32.417256301072712 -31.897792475665639 9.4166788250915179 -1 0 0 I I #
point $-1 -58.675647720847138 -31.897792475665639 9.4166788250915179 #
point $-1 -58.675647720847138 -31.897792475665639 -9.4166788250915179 #
face $-1 $-1 $235 $17 $-1 $295 reversed single #
loop $-1 $-1 $231 $135 #
plane-surface $-1 0 0 -9.4166788250915179 0 0 1 1 0 0 forward_v I I I I #
coedge $-1 $296 $223 $225 $297 forward $136 $-1 #
coedge $-1 $222 $298 $138 $224 reversed $136 $-1 #
edge $-1 $299 -36.485747148692042 $300 36.485747148692042 $223 $301 forward 7 unknown #
coedge $-1 $140 $139 $222 $297 reversed $49 $-1 #
coedge $-1 $231 $302 $139 $227 forward $220 $-1 #
edge $-1 $303 -6.1025320652548771 $229 6.1025320652548771 $139 $304 forward 7 unknown #
edge $-1 $147 -6.1025320652548771 $299 6.1025320652548771 $140 $305 forward 7 unknown #
vertex $-1 $232 $306 #
straight-curve $-1 70.993377483443709 -36.485747148692042 0 0 0 -1 I I #
coedge $-1 $307 $226 $142 $232 forward $220 $-1 #
edge $-1 $229 -36.485747148692042 $236 36.485747148692042 $231 $308 forward 7 unknown #
coedge $-1 $309 $143 $146 $238 reversed $235 $-1 #
coedge $-1 $143 $309 $307 $310 reversed $235 $-1 #
loop $-1 $-1 $143 $219 #
vertex $-1 $310 $311 #
straight-curve $-1 70.993377483443709 36.485747148692042 0 0 0 1 I I #
edge $-1 $300 -6.1025320652548771 $148 6.1025320652548771 $233 $312 forward 7 unknown #
point $-1 70.993377483443709 -36.485747148692042 -4.2897085935964885 #
point $-1 70.993377483443709 36.485747148692042 -4.2897085935964885 #
loop $-1 $-1 $158 $150 #
plane-surface $-1 0 36.485747148692042 0 0 -1 0 0 0 -1 forward_v I I I I #
coedge $-1 $244 $153 $155 $248 reversed $86 $-1 #
coedge $-1 $153 $243 $313 $314 reversed $86 $-1 #
coedge $-1 $161 $156 $153 $246 forward $151 $-1 #
edge $-1 $249 -7.9850017482898892 $315 -0.79683062693521833 $245 $316 forward 7 unknown #
coedge $-1 $155 $154 $252 $317 reversed $53 $-1 #
edge $-1 $318 -72.971494297384055 $249 -63.447074075650569 $243 $319 forward 7 unknown #
vertex $-1 $157 $320 #
straight-curve $-1 -1.8903614380008449 29.297576027337374 9.4166788250915197 1 0 0 I I #
coedge $-1 $313 $158 $161 $256 reversed $241 $-1 #
coedge $-1 $158 $313 $247 $317 forward $241 $-1 #
vertex $-1 $159 $321 #
straight-curve $-1 -13.121522161010926 36.485747148692042 79.100234197585777 0 0 1 I I #
straight-curve $-1 -13.121522161010926 -18.586538174632935 51.041705141644826 0 0.75470957328743171 -0.6560590369687036 I I #
edge $-1 $315 -5.5600764090075465 $162 13.121522161010926 $251 $322 forward 7 unknown #
point $-1 -13.121522161010926 36.485747148692042 9.4166788250915179 #
point $-1 -13.121522161010926 29.297576027337371 9.4166788250915161 #
edge $-1 $323 1 $323 0 $165 $-1 forward 7 unknown #
vertex $-1 $166 $324 #
ellipse-curve $-1 -3.7807228760016898 28.535527289628892 1.2812286784280591 0 0.6560590369687036 0.75470957328743171 2 0 0 1 I I #
point $-1 -1.7807228760016898 32.891661588014671 6.2923878459136366 #
plane-surface $-1 70.993377483443709 0 0 -1 0 0 0 0 1 forward_v I I I I #
coedge $-1 $174 $172 $176 $268 reversed $101 $-1 #
edge $-1 $187 -9.4166788250915179 $270 9.4166788250915179 $186 $325 forward 7 unknown #
vertex $-1 $268 $326 #
straight-curve $-1 -70.993377483443709 -36.485747148692042 0 0 0 -1 I I #
edge $-1 $266 -36.485747148692042 $270 36.485747148692042 $264 $327 forward 7 unknown #
straight-curve $-1 0 -36.485747148692042 -9.4166788250915179 -1 0 0 I I #
vertex $-1 $179 $328 #
straight-curve $-1 0 36.485747148692042 -9.4166788250915179 1 0 0 I I #
point $-1 70.993377483443709 36.485747148692042 -9.4166788250915179 #
point $-1 70.993377483443709 -36.485747148692042 -9.4166788250915179 #
straight-curve $-1 -70.993377483443709 0 9.4166788250915179 0 -1 0 I I #
point $-1 -70.993377483443709 36.485747148692042 9.4166788250915179 #
point $-1 -70.993377483443709 -36.485747148692042 9.4166788250915179 #
straight-curve $-1 70.993377483443709 -36.485747148692042 0 0 0 -1 I I #
straight-curve $-1 70.993377483443709 36.485747148692042 0 0 0 -1 I I #
plane-surface $-1 0 -36.485747148692042 0 0 1 0 0 0 1 forward_v I I I I #
coedge $-1 $329 $199 $211 $291 reversed $120 $-1 #
coedge $-1 $199 $329 $214 $293 reversed $120 $-1 #
edge $-1 $330 -70.993377483443709 $208 -58.675647720847138 $204 $331 forward 7 unknown #
straight-curve $-1 -58.675647720847138 -17.09588490608942 9.4166788250915179 0 1 0 I I #
coedge $-1 $211 $202 $205 $287 forward $197 $-1 #
straight-curve $-1 -58.675647720847138 -17.09588490608942 -9.4166788250915179 0 -1 0 I I #
coedge $-1 $205 $204 $329 $332 forward $206 $-1 #
edge $-1 $207 58.675647720847138 $333 70.993377483443709 $205 $334 forward 7 unknown #
point $-1 -58.675647720847138 -36.485747148692042 -9.4166788250915179 #
point $-1 -58.675647720847138 -36.485747148692042 9.4166788250915179 #
straight-curve $-1 -70.993377483443709 -31.897792475665639 0 0 0 -1 I I #
edge $-1 $333 -36.485747148692042 $212 -31.897792475665639 $280 $335 forward 7 unknown #
point $-1 -70.993377483443709 -31.897792475665639 -9.4166788250915179 #
edge $-1 $215 31.897792475665639 $330 36.485747148692042 $281 $336 forward 7 unknown #
point $-1 -70.993377483443709 -31.897792475665639 9.4166788250915179 #
plane-surface $-1 0 36.485747148692042 0 0 -1 0 0 0 -1 forward_v I I I I #
coedge $-1 $298 $222 $302 $337 reversed $136 $-1 #
edge $-1 $299 -2.5634851157475147 $303 2.5634851157475147 $222 $338 forward 7 unknown #
coedge $-1 $223 $296 $309 $339 reversed $136 $-1 #
vertex $-1 $224 $340 #
vertex $-1 $224 $341 #
straight-curve $-1 83.198441613953463 0 -4.2897085935964885 0 1 0 I I #
coedge $-1 $226 $307 $296 $337 forward $220 $-1 #
vertex $-1 $297 $342 #
straight-curve $-1 77.095909548698586 -36.485747148692042 -9.4166788250915179 -1 0 0 I I #
straight-curve $-1 77.095909548698586 -36.485747148692042 -4.2897085935964885 1 0 0 I I #
point $-1 70.993377483443709 -36.485747148692042 -9.4166788250915179 #
coedge $-1 $302 $231 $234 $310 forward $220 $-1 #
straight-curve $-1 70.993377483443709 0 -9.4166788250915179 0 1 0 I I #
coedge $-1 $234 $233 $298 $339 forward $235 $-1 #
edge $-1 $236 -6.1025320652548771 $343 6.1025320652548771 $234 $344 forward 7 unknown #
point $-1 70.993377483443709 36.485747148692042 -9.4166788250915179 #
straight-curve $-1 77.095909548698586 36.485747148692042 -4.2897085935964885 -1 0 0 I I #
coedge $-1 $252 $251 $244 $314 forward $241 $-1 #
edge $-1 $315 69.683555372494254 $318 75.932137330849983 $313 $345 forward 7 unknown #
vertex $-1 $256 $346 #
straight-curve $-1 5.5600764090075465 37.28257777562726 9.4166788250915232 0 1 0 I I #
edge $-1 $318 -7.4504378470083914 $253 11.231160723010081 $252 $347 forward 7 unknown #
vertex $-1 $317 $348 #
straight-curve $-1 5.5600764090075465 -18.586538174632935 51.041705141644826 0 -0.75470957328743171 0.6560590369687036 I I #
point $-1 5.5600764090075465 29.297576027337371 9.4166788250915161 #
point $-1 -13.121522161010926 36.485747148692042 3.1680968667357945 #
straight-curve $-1 0 36.485747148692042 9.4166788250915179 -1 0 0 I I #
vertex $-1 $259 $349 #
point $-1 -1.7807228760016898 28.535527289628892 1.2812286784280591 #
straight-curve $-1 -70.993377483443709 36.485747148692042 0 0 0 -1 I I #
point $-1 -70.993377483443709 -36.485747148692042 -9.4166788250915179 #
straight-curve $-1 -70.993377483443709 0 -9.4166788250915179 0 1 0 I I #
point $-1 -70.993377483443709 36.485747148692042 -9.4166788250915179 #
coedge $-1 $281 $280 $286 $332 reversed $120 $-1 #
vertex $-1 $293 $350 #
straight-curve $-1 0 -36.485747148692042 9.4166788250915179 1 0 0 I I #
edge $-1 $330 -9.4166788250915179 $333 9.4166788250915179 $329 $351 forward 7 unknown #
vertex $-1 $291 $352 #
straight-curve $-1 0 -36.485747148692042 -9.4166788250915179 -1 0 0 I I #
straight-curve $-1 -70.993377483443709 0 -9.4166788250915179 0 1 0 I I #
straight-curve $-1 -70.993377483443709 0 9.4166788250915179 0 -1 0 I I #
edge $-1 $343 -36.485747148692042 $303 36.485747148692042 $296 $353 forward 7 unknown #
straight-curve $-1 83.198441613953463 -36.485747148692042 -6.8531937093440032 0 0 -1 I I #
edge $-1 $300 -2.5634851157475147 $343 2.5634851157475147 $298 $354 forward 7 unknown #
point $-1 83.198441613953463 -36.485747148692042 -4.2897085935964885 #
point $-1 83.198441613953463 36.485747148692042 -4.2897085935964885 #
point $-1 83.198441613953463 -36.485747148692042 -9.4166788250915179 #
vertex $-1 $337 $355 #
straight-curve $-1 77.095909548698586 36.485747148692042 -9.4166788250915179 1 0 0 I I #
straight-curve $-1 5.5600764090075465 36.485747148692042 79.100234197585777 0 0 -1 I I #
point $-1 5.5600764090075465 36.485747148692042 9.4166788250915179 #
straight-curve $-1 -1.8903614380008449 36.485747148692042 3.168096866735798 -1 0 0 I I #
point $-1 5.5600764090075465 36.485747148692042 3.1680968667357945 #
point $-1 -3.7807228760016898 27.223409215691486 -0.22819046814680444 #
point $-1 -70.993377483443709 -36.485747148692042 9.4166788250915179 #
straight-curve $-1 -70.993377483443709 -36.485747148692042 0 0 0 -1 I I #
point $-1 -70.993377483443709 -36.485747148692042 -9.4166788250915179 #
straight-curve $-1 83.198441613953463 0 -9.4166788250915179 0 -1 0 I I #
straight-curve $-1 83.198441613953463 36.485747148692042 -6.8531937093440032 0 0 -1 I I #
point $-1 83.198441613953463 36.485747148692042 -9.4166788250915179 #
End-of-ACIS-data 