500 0 9 0           
7 Unknown 11 ACIS 5.0 NT 24 Fri Mar 26 00:08:50 1999 
-1 9.9999999999999995e-007 1e-010 
body $-1 $9 $-1 $10 #
body $-1 $11 $-1 $12 #
body $-1 $13 $-1 $14 #
body $-1 $15 $-1 $16 #
body $-1 $17 $-1 $18 #
body $-1 $19 $-1 $20 #
body $-1 $21 $-1 $22 #
body $-1 $23 $-1 $24 #
body $-1 $25 $-1 $26 #
lump $-1 $-1 $27 $0 #
transform $-1 1 0 0 0 1 0 0 0 1 62.567827387310402 41.062153607827319 19.188195130090982 1 rotate no_reflect no_shear #
lump $-1 $-1 $28 $1 #
transform $-1 1 0 0 0 1 0 0 0 1 62.567827387310402 41.062153607827319 19.188195130090982 1 rotate no_reflect no_shear #
lump $-1 $-1 $29 $2 #
transform $-1 1 0 0 0 1 0 0 0 1 62.567827387310402 41.062153607827319 19.188195130090982 1 rotate no_reflect no_shear #
lump $-1 $-1 $30 $3 #
transform $-1 1 0 0 0 1 0 0 0 1 62.567827387310402 41.062153607827319 19.188195130090982 1 rotate no_reflect no_shear #
lump $-1 $-1 $31 $4 #
transform $-1 1 0 0 0 1 0 0 0 1 62.567827387310402 41.062153607827319 19.188195130090982 1 rotate no_reflect no_shear #
lump $-1 $-1 $32 $5 #
transform $-1 1 0 0 0 1 0 0 0 1 62.567827387310402 41.062153607827319 19.188195130090982 1 rotate no_reflect no_shear #
lump $-1 $-1 $33 $6 #
transform $-1 1 0 0 0 1 0 0 0 1 62.567827387310402 41.062153607827319 19.188195130090982 1 rotate no_reflect no_shear #
lump $-1 $-1 $34 $7 #
transform $-1 1 0 0 0 1 0 0 0 1 62.567827387310402 41.062153607827319 19.188195130090982 1 rotate no_reflect no_shear #
lump $-1 $-1 $35 $8 #
transform $-1 1 0 0 0 1 0 0 0 1 62.567827387310402 41.062153607827319 19.188195130090982 1 rotate no_reflect no_shear #
shell $-1 $-1 $-1 $36 $-1 $9 #
shell $-1 $-1 $-1 $37 $-1 $11 #
shell $-1 $-1 $-1 $38 $-1 $13 #
shell $-1 $-1 $-1 $39 $-1 $15 #
shell $-1 $-1 $-1 $40 $-1 $17 #
shell $-1 $-1 $-1 $41 $-1 $19 #
shell $-1 $-1 $-1 $42 $-1 $21 #
shell $-1 $-1 $-1 $43 $-1 $23 #
shell $-1 $-1 $-1 $44 $-1 $25 #
face $-1 $45 $46 $27 $-1 $47 forward single #
face $-1 $48 $49 $28 $-1 $50 forward single #
face $-1 $51 $52 $29 $-1 $53 forward single #
face $-1 $54 $55 $30 $-1 $56 reversed single #
face $-1 $57 $58 $31 $-1 $59 forward single #
face $-1 $60 $61 $32 $-1 $62 forward single #
face $-1 $63 $64 $33 $-1 $65 reversed single #
face $-1 $66 $67 $34 $-1 $68 forward single #
face $-1 $69 $70 $35 $-1 $71 forward single #
face $-1 $72 $73 $27 $-1 $74 reversed single #
loop $-1 $-1 $75 $36 #
plane-surface $-1 0 0 19.188195130090982 0 0 1 1 0 0 forward_v I I I I #
face $-1 $76 $77 $28 $-1 $78 reversed single #
loop $-1 $-1 $79 $37 #
plane-surface $-1 -62.567827387310402 0 0 1 0 0 0 0 -1 forward_v I I I I #
face $-1 $80 $81 $29 $-1 $82 reversed single #
loop $-1 $-1 $83 $38 #
plane-surface $-1 62.567827387310402 0 0 -1 0 0 0 0 1 forward_v I I I I #
face $-1 $84 $85 $30 $-1 $86 reversed single #
loop $-1 $-1 $87 $39 #
plane-surface $-1 -47.025406899790156 86.628323093316766 149.97815164966775 1 0 0 0 -0.77714596973225614 -0.62932038083071107 forward_v I I I I #
face $-1 $88 $89 $31 $-1 $90 forward single #
loop $-1 $91 $92 $40 #
cone-surface $-1 -41.109163807542004 34.295038043751902 11.680138966407283 0 -0.77714596973225614 -0.62932038083071107 1.5 0 0 1 I I 0 1 1.5 forward I I I I #
face $-1 $93 $94 $32 $-1 $95 forward single #
loop $-1 $96 $97 $41 #
cone-surface $-1 -32.23479916916979 34.295038043751902 11.680138966407283 0 -0.77714596973225614 -0.62932038083071107 1.5 0 0 1 I I 0 1 1.5 forward I I I I #
face $-1 $98 $99 $33 $-1 $100 reversed single #
loop $-1 $-1 $101 $42 #
plane-surface $-1 26.318556076921659 86.628323093316766 149.97815164966775 1 0 0 0 -0.77714596973225614 -0.62932038083071107 forward_v I I I I #
face $-1 $102 $103 $34 $-1 $104 forward single #
loop $-1 $105 $106 $43 #
cone-surface $-1 32.234799169169804 34.295038043751902 11.680138966407283 0 -0.77714596973225614 -0.62932038083071107 1.5 0 0 1 I I 0 1 1.5 forward I I I I #
face $-1 $107 $108 $35 $-1 $109 forward single #
loop $-1 $110 $111 $44 #
cone-surface $-1 41.109163807542018 34.295038043751902 11.680138966407283 0 -0.77714596973225614 -0.62932038083071107 1.5 0 0 1 I I 0 1 1.5 forward I I I I #
face $-1 $112 $113 $27 $-1 $114 reversed single #
loop $-1 $-1 $115 $45 #
plane-surface $-1 0 0 -19.188195130090982 0 0 1 1 0 0 forward_v I I I I #
coedge $-1 $116 $117 $118 $119 forward $46 $-1 #
face $-1 $120 $121 $28 $-1 $122 reversed single #
loop $-1 $-1 $123 $48 #
plane-surface $-1 0 0 -19.188195130090982 0 0 1 1 0 0 forward_v I I I I #
coedge $-1 $124 $125 $126 $127 forward $49 $-1 #
face $-1 $128 $129 $29 $-1 $130 reversed single #
loop $-1 $-1 $131 $51 #
plane-surface $-1 0 0 -19.188195130090982 0 0 1 1 0 0 forward_v I I I I #
coedge $-1 $132 $133 $134 $135 forward $52 $-1 #
face $-1 $136 $137 $30 $-1 $138 reversed single #
loop $-1 $-1 $139 $54 #
plane-surface $-1 -36.671981488355904 -10.62034668458675 71.227733731402992 0 0.77714596973225614 0.62932038083071107 1 0 0 forward_v I I I I #
coedge $-1 $140 $141 $142 $143 reversed $55 $-1 #
face $-1 $-1 $144 $31 $-1 $145 forward single #
loop $-1 $146 $147 $57 #
cone-surface $-1 -41.109163807542004 31.715919988007876 9.5916104012943677 0 -0.77714596973225614 -0.62932038083071107 0.75 0 0 1 I I -0.70710678118654757 0.70710678118654757 0.75 forward I I I I #
loop $-1 $-1 $148 $40 #
coedge $-1 $92 $92 $149 $150 reversed $58 $-1 #
face $-1 $-1 $151 $32 $-1 $152 forward single #
loop $-1 $153 $154 $60 #
cone-surface $-1 -32.23479916916979 31.715919988007876 9.5916104012943677 0 -0.77714596973225614 -0.62932038083071107 0.75 0 0 1 I I -0.70710678118654757 0.70710678118654757 0.75 forward I I I I #
loop $-1 $-1 $155 $41 #
coedge $-1 $97 $97 $156 $157 reversed $61 $-1 #
face $-1 $158 $159 $33 $-1 $160 reversed single #
loop $-1 $-1 $161 $63 #
plane-surface $-1 36.671981488355911 -10.62034668458675 71.227733731402992 0 0.77714596973225614 0.62932038083071107 1 0 0 forward_v I I I I #
coedge $-1 $162 $163 $164 $165 reversed $64 $-1 #
face $-1 $-1 $166 $34 $-1 $167 forward single #
loop $-1 $168 $169 $66 #
cone-surface $-1 32.234799169169804 31.715919988007876 9.5916104012943677 0 -0.77714596973225614 -0.62932038083071107 0.75 0 0 1 I I -0.70710678118654757 0.70710678118654757 0.75 forward I I I I #
loop $-1 $-1 $170 $43 #
coedge $-1 $106 $106 $171 $172 reversed $67 $-1 #
face $-1 $-1 $173 $35 $-1 $174 forward single #
loop $-1 $175 $176 $69 #
cone-surface $-1 41.109163807542018 31.715919988007876 9.5916104012943677 0 -0.77714596973225614 -0.62932038083071107 0.75 0 0 1 I I -0.70710678118654757 0.70710678118654757 0.75 forward I I I I #
loop $-1 $-1 $177 $44 #
coedge $-1 $111 $111 $178 $179 reversed $70 $-1 #
face $-1 $180 $181 $27 $-1 $182 reversed single #
loop $-1 $-1 $183 $72 #
plane-surface $-1 0 -41.062153607827319 0 0 1 0 0 0 1 forward_v I I I I #
coedge $-1 $184 $185 $186 $187 forward $73 $-1 #
coedge $-1 $188 $75 $189 $190 forward $46 $-1 #
coedge $-1 $75 $188 $191 $192 forward $46 $-1 #
coedge $-1 $193 $194 $75 $119 reversed $195 $-1 #
edge $-1 $196 -41.062153607827319 $197 41.062153607827319 $118 $198 forward 7 unknown #
face $-1 $199 $200 $28 $-1 $201 reversed single #
loop $-1 $-1 $202 $76 #
plane-surface $-1 -70.339037631070525 -8.8018358467357913 0 0 1 0 0 0 1 forward_v I I I I #
coedge $-1 $203 $204 $125 $205 forward $77 $-1 #
coedge $-1 $206 $79 $207 $208 reversed $49 $-1 #
coedge $-1 $79 $206 $123 $205 reversed $49 $-1 #
coedge $-1 $209 $210 $79 $127 reversed $211 $-1 #
edge $-1 $212 -19.188195130090982 $213 19.188195130090982 $126 $214 forward 7 unknown #
face $-1 $215 $216 $29 $-1 $217 reversed single #
loop $-1 $-1 $134 $80 #
plane-surface $-1 70.339037631070525 -8.8018358467357913 0 0 1 0 0 0 1 forward_v I I I I #
coedge $-1 $218 $219 $133 $220 forward $81 $-1 #
coedge $-1 $221 $83 $222 $223 reversed $52 $-1 #
coedge $-1 $83 $221 $131 $220 reversed $52 $-1 #
coedge $-1 $224 $225 $83 $135 reversed $129 $-1 #
edge $-1 $226 -19.188195130090982 $227 19.188195130090982 $134 $228 forward 7 unknown #
face $-1 $229 $230 $30 $-1 $231 reversed single #
loop $-1 $-1 $232 $84 #
plane-surface $-1 -26.318556076921652 86.628323093316766 149.97815164966775 -1 0 0 0 0.77714596973225614 0.62932038083071107 forward_v I I I I #
coedge $-1 $233 $234 $235 $236 reversed $85 $-1 #
coedge $-1 $141 $87 $237 $238 reversed $55 $-1 #
coedge $-1 $87 $140 $233 $239 reversed $55 $-1 #
coedge $-1 $235 $240 $87 $143 forward $241 $-1 #
edge $-1 $242 2.2520079388310634 $243 11.793721910092238 $142 $244 forward 7 unknown #
loop $-1 $-1 $149 $88 #
plane-surface $-1 -36.671981488355904 -10.62034668458675 71.227733731402992 0 0.77714596973225614 0.62932038083071107 1 0 0 forward_v I I I I #
loop $-1 $-1 $245 $57 #
coedge $-1 $147 $147 $148 $246 reversed $89 $-1 #
coedge $-1 $148 $148 $147 $246 forward $91 $-1 #
coedge $-1 $149 $149 $92 $150 forward $144 $-1 #
edge $-1 $247 -2.2808175114105988e-015 $247 6.2831853071795978 $149 $248 forward 7 unknown #
loop $-1 $-1 $156 $93 #
plane-surface $-1 -36.671981488355904 -10.62034668458675 71.227733731402992 0 0.77714596973225614 0.62932038083071107 1 0 0 forward_v I I I I #
loop $-1 $-1 $249 $60 #
coedge $-1 $154 $154 $155 $250 reversed $94 $-1 #
coedge $-1 $155 $155 $154 $250 forward $96 $-1 #
coedge $-1 $156 $156 $97 $157 forward $151 $-1 #
edge $-1 $251 -2.2808175114105988e-015 $251 6.2831853071795978 $156 $252 forward 7 unknown #
face $-1 $253 $254 $33 $-1 $255 forward single #
loop $-1 $-1 $256 $98 #
plane-surface $-1 47.025406899790163 86.628323093316766 149.97815164966775 -1 0 0 0 0.77714596973225614 0.62932038083071107 forward_v I I I I #
coedge $-1 $257 $258 $259 $260 reversed $99 $-1 #
coedge $-1 $163 $101 $261 $262 reversed $64 $-1 #
coedge $-1 $101 $162 $257 $263 reversed $64 $-1 #
coedge $-1 $259 $264 $101 $165 forward $254 $-1 #
edge $-1 $265 2.2520079388310634 $266 11.793721910092238 $164 $267 forward 7 unknown #
loop $-1 $-1 $171 $102 #
plane-surface $-1 36.671981488355911 -10.62034668458675 71.227733731402992 0 0.77714596973225614 0.62932038083071107 1 0 0 forward_v I I I I #
loop $-1 $-1 $268 $66 #
coedge $-1 $169 $169 $170 $269 reversed $103 $-1 #
coedge $-1 $170 $170 $169 $269 forward $105 $-1 #
coedge $-1 $171 $171 $106 $172 forward $166 $-1 #
edge $-1 $270 -2.2808175114105988e-015 $270 6.2831853071795978 $171 $271 forward 7 unknown #
loop $-1 $-1 $178 $107 #
plane-surface $-1 36.671981488355911 -10.62034668458675 71.227733731402992 0 0.77714596973225614 0.62932038083071107 1 0 0 forward_v I I I I #
loop $-1 $-1 $272 $69 #
coedge $-1 $176 $176 $177 $273 reversed $108 $-1 #
coedge $-1 $177 $177 $176 $273 forward $110 $-1 #
coedge $-1 $178 $178 $111 $179 forward $173 $-1 #
edge $-1 $274 -2.2808175114105988e-015 $274 6.2831853071795978 $178 $275 forward 7 unknown #
face $-1 $276 $277 $27 $-1 $278 reversed single #
loop $-1 $-1 $279 $112 #
plane-surface $-1 -62.567827387310402 0 0 1 0 0 0 0 -1 forward_v I I I I #
coedge $-1 $280 $191 $281 $282 forward $113 $-1 #
coedge $-1 $283 $115 $280 $284 forward $73 $-1 #
coedge $-1 $115 $283 $285 $286 forward $73 $-1 #
coedge $-1 $194 $193 $115 $187 reversed $195 $-1 #
edge $-1 $287 -41.062153607827319 $288 41.062153607827319 $186 $289 forward 7 unknown #
coedge $-1 $117 $116 $290 $291 forward $46 $-1 #
coedge $-1 $292 $293 $116 $190 reversed $277 $-1 #
edge $-1 $197 -62.567827387310402 $294 62.567827387310402 $189 $295 forward 7 unknown #
coedge $-1 $183 $296 $117 $192 reversed $113 $-1 #
edge $-1 $297 -62.567827387310402 $196 62.567827387310402 $191 $298 forward 7 unknown #
coedge $-1 $186 $118 $296 $299 forward $195 $-1 #
coedge $-1 $118 $186 $292 $300 reversed $195 $-1 #
loop $-1 $-1 $193 $276 #
vertex $-1 $119 $301 #
vertex $-1 $119 $302 #
straight-curve $-1 62.567827387310402 0 19.188195130090982 0 1 0 I I #
face $-1 $303 $211 $28 $-1 $304 reversed single #
loop $-1 $-1 $305 $120 #
plane-surface $-1 -78.110247874830648 -5.7437995971905735 0 1 0 0 0 0 -1 forward_v I I I I #
coedge $-1 $306 $307 $308 $309 forward $121 $-1 #
coedge $-1 $310 $123 $306 $311 forward $77 $-1 #
coedge $-1 $123 $310 $209 $312 forward $77 $-1 #
edge $-1 $212 2.6857633476453557 $313 8.8018358467357913 $123 $314 forward 7 unknown #
coedge $-1 $125 $124 $315 $316 forward $49 $-1 #
coedge $-1 $317 $318 $124 $208 forward $319 $-1 #
edge $-1 $320 -8.8018358467357913 $213 -2.6857633476453557 $207 $321 forward 7 unknown #
coedge $-1 $322 $126 $204 $312 reversed $211 $-1 #
coedge $-1 $126 $322 $317 $323 reversed $211 $-1 #
loop $-1 $-1 $126 $199 #
vertex $-1 $205 $324 #
vertex $-1 $323 $325 #
straight-curve $-1 -62.567827387310402 -2.6857633476453557 0 0 0 1 I I #
face $-1 $326 $327 $29 $-1 $328 reversed single #
loop $-1 $-1 $329 $128 #
plane-surface $-1 70.339037631070525 -2.6857633476453557 0 0 -1 0 0 0 -1 forward_v I I I I #
coedge $-1 $330 $131 $331 $332 forward $81 $-1 #
coedge $-1 $131 $330 $224 $333 forward $81 $-1 #
edge $-1 $226 -8.8018358467357913 $334 -2.6857633476453557 $131 $335 forward 7 unknown #
coedge $-1 $133 $132 $336 $337 forward $52 $-1 #
coedge $-1 $338 $339 $132 $223 forward $340 $-1 #
edge $-1 $341 2.6857633476453557 $227 8.8018358467357913 $222 $342 forward 7 unknown #
coedge $-1 $343 $134 $219 $333 reversed $129 $-1 #
coedge $-1 $134 $343 $338 $344 reversed $129 $-1 #
vertex $-1 $220 $345 #
vertex $-1 $344 $346 #
straight-curve $-1 62.567827387310402 -8.8018358467357913 0 0 0 1 I I #
face $-1 $-1 $241 $30 $-1 $347 forward single #
loop $-1 $-1 $348 $136 #
plane-surface $-1 0 41.062153607827319 0 0 -1 0 0 0 -1 forward_v I I I I #
coedge $-1 $349 $350 $351 $352 reversed $137 $-1 #
coedge $-1 $353 $139 $141 $239 forward $85 $-1 #
coedge $-1 $139 $353 $349 $354 forward $85 $-1 #
coedge $-1 $351 $142 $139 $236 forward $241 $-1 #
edge $-1 $243 -28.689416155612204 $355 -7.9825653327437003 $235 $356 forward 7 unknown #
coedge $-1 $357 $358 $140 $238 forward $230 $-1 #
edge $-1 $359 -67.583916463130507 $242 -55.800880694742894 $237 $360 forward 7 unknown #
edge $-1 $243 66.962373386869359 $359 82.124307215654596 $141 $361 forward 7 unknown #
coedge $-1 $142 $351 $357 $362 forward $241 $-1 #
loop $-1 $-1 $351 $229 #
vertex $-1 $238 $363 #
vertex $-1 $143 $364 #
straight-curve $-1 -47.025406899790156 43.314161546658383 19.188195130090975 0 -1 0 I I #
coedge $-1 $245 $245 $-1 $365 reversed $146 $-1 #
edge $-1 $366 0 $366 6.2831853071796004 $147 $367 forward 7 unknown #
vertex $-1 $150 $368 #
ellipse-curve $-1 -41.109163807542004 36.291296622196747 13.29667724589717 0 0.77714596973225614 0.62932038083071107 1.5 0 0 1 I I #
coedge $-1 $249 $249 $-1 $369 reversed $153 $-1 #
edge $-1 $370 0 $370 6.2831853071796004 $154 $371 forward 7 unknown #
vertex $-1 $157 $372 #
ellipse-curve $-1 -32.23479916916979 36.291296622196747 13.29667724589717 0 0.77714596973225614 0.62932038083071107 1.5 0 0 1 I I #
face $-1 $-1 $373 $33 $-1 $374 reversed single #
loop $-1 $-1 $164 $158 #
plane-surface $-1 0 0 19.188195130090982 0 0 1 1 0 0 forward_v I I I I #
coedge $-1 $375 $376 $377 $378 reversed $159 $-1 #
coedge $-1 $379 $161 $163 $263 forward $99 $-1 #
coedge $-1 $161 $379 $375 $380 forward $99 $-1 #
coedge $-1 $377 $164 $161 $260 forward $254 $-1 #
edge $-1 $266 7.9825653327437038 $381 28.689416155612207 $259 $382 forward 7 unknown #
coedge $-1 $383 $384 $162 $262 forward $373 $-1 #
edge $-1 $385 -67.583916463130507 $265 -55.800880694742894 $261 $386 forward 7 unknown #
edge $-1 $266 66.962373386869359 $385 82.124307215654596 $163 $387 forward 7 unknown #
coedge $-1 $164 $377 $383 $388 forward $254 $-1 #
vertex $-1 $262 $389 #
vertex $-1 $165 $390 #
straight-curve $-1 26.318556076921659 43.314161546658383 19.188195130090975 0 -1 0 I I #
coedge $-1 $268 $268 $-1 $391 reversed $168 $-1 #
edge $-1 $392 0 $392 6.2831853071796004 $169 $393 forward 7 unknown #
vertex $-1 $172 $394 #
ellipse-curve $-1 32.234799169169804 36.291296622196747 13.29667724589717 0 0.77714596973225614 0.62932038083071107 1.5 0 0 1 I I #
coedge $-1 $272 $272 $-1 $395 reversed $175 $-1 #
edge $-1 $396 0 $396 6.2831853071796004 $176 $397 forward 7 unknown #
vertex $-1 $179 $398 #
ellipse-curve $-1 41.109163807542018 36.291296622196747 13.29667724589717 0 0.77714596973225614 0.62932038083071107 1.5 0 0 1 I I #
face $-1 $-1 $195 $27 $-1 $399 reversed single #
loop $-1 $-1 $292 $180 #
plane-surface $-1 0 41.062153607827319 0 0 -1 0 0 0 -1 forward_v I I I I #
coedge $-1 $400 $290 $293 $401 forward $181 $-1 #
coedge $-1 $296 $183 $184 $284 reversed $113 $-1 #
coedge $-1 $290 $400 $183 $282 reversed $181 $-1 #
edge $-1 $297 -19.188195130090982 $402 19.188195130090982 $281 $403 forward 7 unknown #
coedge $-1 $185 $184 $400 $404 forward $73 $-1 #
edge $-1 $288 -62.567827387310402 $402 62.567827387310402 $280 $405 forward 7 unknown #
coedge $-1 $293 $292 $185 $286 reversed $277 $-1 #
edge $-1 $406 -62.567827387310402 $287 62.567827387310402 $285 $407 forward 7 unknown #
vertex $-1 $187 $408 #
vertex $-1 $299 $409 #
straight-curve $-1 62.567827387310402 0 -19.188195130090982 0 -1 0 I I #
coedge $-1 $279 $281 $188 $291 reversed $181 $-1 #
edge $-1 $294 -41.062153607827319 $297 41.062153607827319 $290 $410 forward 7 unknown #
coedge $-1 $285 $189 $194 $300 forward $277 $-1 #
coedge $-1 $189 $285 $279 $401 reversed $277 $-1 #
vertex $-1 $190 $411 #
straight-curve $-1 0 41.062153607827319 19.188195130090982 -1 0 0 I I #
coedge $-1 $191 $280 $193 $299 reversed $113 $-1 #
vertex $-1 $291 $412 #
straight-curve $-1 0 -41.062153607827319 19.188195130090982 1 0 0 I I #
edge $-1 $196 -19.188195130090982 $288 19.188195130090982 $193 $413 forward 7 unknown #
edge $-1 $197 -19.188195130090982 $287 19.188195130090982 $194 $414 forward 7 unknown #
point $-1 62.567827387310402 -41.062153607827319 19.188195130090982 #
point $-1 62.567827387310402 41.062153607827319 19.188195130090982 #
face $-1 $-1 $319 $28 $-1 $415 forward single #
plane-surface $-1 -70.339037631070525 -2.6857633476453557 0 0 -1 0 0 0 -1 forward_v I I I I #
coedge $-1 $416 $417 $322 $418 forward $200 $-1 #
coedge $-1 $315 $202 $203 $311 reversed $121 $-1 #
coedge $-1 $202 $315 $318 $419 reversed $121 $-1 #
coedge $-1 $417 $416 $202 $309 reversed $200 $-1 #
edge $-1 $420 -19.188195130090982 $421 19.188195130090982 $308 $422 forward 7 unknown #
coedge $-1 $204 $203 $416 $423 forward $77 $-1 #
edge $-1 $313 -7.7712102437601231 $421 7.7712102437601231 $306 $424 forward 7 unknown #
edge $-1 $425 -7.7712102437601231 $212 7.7712102437601231 $209 $426 forward 7 unknown #
vertex $-1 $311 $427 #
straight-curve $-1 -62.567827387310402 0 -19.188195130090982 0 -1 0 I I #
coedge $-1 $307 $306 $206 $316 reversed $121 $-1 #
edge $-1 $320 -19.188195130090982 $313 19.188195130090982 $315 $428 forward 7 unknown #
coedge $-1 $429 $207 $210 $323 forward $319 $-1 #
coedge $-1 $207 $429 $307 $419 forward $319 $-1 #
loop $-1 $-1 $207 $303 #
vertex $-1 $208 $430 #
straight-curve $-1 -62.567827387310402 0 19.188195130090982 0 1 0 I I #
coedge $-1 $210 $209 $305 $418 reversed $211 $-1 #
edge $-1 $213 -7.7712102437601231 $431 7.7712102437601231 $210 $432 forward 7 unknown #
point $-1 -62.567827387310402 -2.6857633476453557 -19.188195130090982 #
point $-1 -62.567827387310402 -2.6857633476453557 19.188195130090982 #
face $-1 $-1 $340 $29 $-1 $433 forward single #
loop $-1 $-1 $434 $215 #
plane-surface $-1 78.110247874830648 -5.7437995971905735 0 -1 0 0 0 0 1 forward_v I I I I #
coedge $-1 $331 $435 $436 $437 forward $216 $-1 #
coedge $-1 $219 $218 $438 $439 forward $81 $-1 #
coedge $-1 $336 $329 $218 $332 reversed $216 $-1 #
edge $-1 $334 -7.7712102437601231 $440 7.7712102437601231 $331 $441 forward 7 unknown #
edge $-1 $442 -7.7712102437601231 $226 7.7712102437601231 $224 $443 forward 7 unknown #
vertex $-1 $332 $444 #
straight-curve $-1 62.567827387310402 0 -19.188195130090982 0 1 0 I I #
coedge $-1 $435 $331 $221 $337 reversed $216 $-1 #
edge $-1 $341 -19.188195130090982 $334 19.188195130090982 $336 $445 forward 7 unknown #
coedge $-1 $446 $222 $225 $344 forward $340 $-1 #
coedge $-1 $222 $446 $435 $447 forward $340 $-1 #
loop $-1 $-1 $222 $326 #
vertex $-1 $223 $448 #
straight-curve $-1 62.567827387310402 0 19.188195130090982 0 -1 0 I I #
coedge $-1 $225 $224 $434 $449 reversed $129 $-1 #
edge $-1 $227 -7.7712102437601231 $450 7.7712102437601231 $225 $451 forward 7 unknown #
point $-1 62.567827387310402 -8.8018358467357913 -19.188195130090982 #
point $-1 62.567827387310402 -8.8018358467357913 19.188195130090982 #
plane-surface $-1 0 0 19.188195130090982 0 0 1 1 0 0 forward_v I I I I #
coedge $-1 $358 $357 $350 $452 forward $230 $-1 #
coedge $-1 $350 $232 $234 $354 reversed $137 $-1 #
coedge $-1 $232 $349 $348 $452 reversed $137 $-1 #
coedge $-1 $240 $235 $232 $352 forward $241 $-1 #
edge $-1 $355 -11.793721910092238 $453 -2.2520079388310634 $351 $454 forward 7 unknown #
coedge $-1 $234 $233 $358 $455 reversed $85 $-1 #
edge $-1 $456 -82.124307215654596 $355 -66.962373386869359 $349 $457 forward 7 unknown #
vertex $-1 $236 $458 #
straight-curve $-1 -18.335990744177952 31.520439636566145 19.188195130090982 1 0 0 I I #
coedge $-1 $348 $237 $240 $362 reversed $230 $-1 #
coedge $-1 $237 $348 $353 $455 forward $230 $-1 #
vertex $-1 $238 $459 #
straight-curve $-1 -47.025406899790156 41.062153607827319 74.989075824833876 0 0 1 I I #
straight-curve $-1 -47.025406899790156 -10.62034668458675 71.227733731402992 0 0.62932038083071107 -0.77714596973225614 I I #
edge $-1 $453 26.318556076921652 $242 47.025406899790156 $357 $460 forward 7 unknown #
point $-1 -47.025406899790156 41.062153607827319 19.188195130090982 #
point $-1 -47.025406899790156 31.520439636566145 19.188195130090982 #
edge $-1 $461 1 $461 0 $245 $-1 forward 7 unknown #
vertex $-1 $246 $462 #
ellipse-curve $-1 -41.109163807542004 32.298779465307071 10.0636006869174 0 0.77714596973225614 0.62932038083071107 1.5 0 0 1 I I #
point $-1 -39.609163807542004 36.291296622196732 13.296677245897163 #
edge $-1 $463 1 $463 0 $249 $-1 forward 7 unknown #
vertex $-1 $250 $464 #
ellipse-curve $-1 -32.23479916916979 32.298779465307071 10.0636006869174 0 0.77714596973225614 0.62932038083071107 1.5 0 0 1 I I #
point $-1 -30.73479916916979 36.291296622196732 13.296677245897163 #
loop $-1 $-1 $261 $253 #
plane-surface $-1 0 41.062153607827319 0 0 -1 0 0 0 -1 forward_v I I I I #
coedge $-1 $376 $256 $258 $380 reversed $159 $-1 #
coedge $-1 $256 $375 $465 $466 reversed $159 $-1 #
coedge $-1 $264 $259 $256 $378 forward $254 $-1 #
edge $-1 $381 -11.793721910092238 $467 -2.2520079388310634 $377 $468 forward 7 unknown #
coedge $-1 $258 $257 $384 $469 reversed $99 $-1 #
edge $-1 $470 -82.124307215654596 $381 -66.962373386869359 $375 $471 forward 7 unknown #
vertex $-1 $260 $472 #
straight-curve $-1 18.335990744177955 31.520439636566145 19.188195130090982 1 0 0 I I #
coedge $-1 $465 $261 $264 $388 reversed $373 $-1 #
coedge $-1 $261 $465 $379 $469 forward $373 $-1 #
vertex $-1 $262 $473 #
straight-curve $-1 26.318556076921659 41.062153607827319 74.989075824833876 0 0 1 I I #
straight-curve $-1 26.318556076921659 -10.62034668458675 71.227733731402992 0 0.62932038083071107 -0.77714596973225614 I I #
edge $-1 $467 -47.025406899790163 $265 -26.318556076921659 $383 $474 forward 7 unknown #
point $-1 26.318556076921659 41.062153607827319 19.188195130090982 #
point $-1 26.318556076921659 31.520439636566145 19.188195130090982 #
edge $-1 $475 1 $475 0 $268 $-1 forward 7 unknown #
vertex $-1 $269 $476 #
ellipse-curve $-1 32.234799169169804 32.298779465307071 10.0636006869174 0 0.77714596973225614 0.62932038083071107 1.5 0 0 1 I I #
point $-1 33.734799169169804 36.291296622196732 13.296677245897163 #
edge $-1 $477 1 $477 0 $272 $-1 forward 7 unknown #
vertex $-1 $273 $478 #
ellipse-curve $-1 41.109163807542018 32.298779465307071 10.0636006869174 0 0.77714596973225614 0.62932038083071107 1.5 0 0 1 I I #
point $-1 42.609163807542018 36.291296622196732 13.296677245897163 #
plane-surface $-1 62.567827387310402 0 0 -1 0 0 0 0 1 forward_v I I I I #
coedge $-1 $281 $279 $283 $404 reversed $181 $-1 #
edge $-1 $294 -19.188195130090982 $406 19.188195130090982 $293 $479 forward 7 unknown #
vertex $-1 $404 $480 #
straight-curve $-1 -62.567827387310402 -41.062153607827319 0 0 0 -1 I I #
edge $-1 $402 -41.062153607827319 $406 41.062153607827319 $400 $481 forward 7 unknown #
straight-curve $-1 0 -41.062153607827319 -19.188195130090982 -1 0 0 I I #
vertex $-1 $286 $482 #
straight-curve $-1 0 41.062153607827319 -19.188195130090982 1 0 0 I I #
point $-1 62.567827387310402 41.062153607827319 -19.188195130090982 #
point $-1 62.567827387310402 -41.062153607827319 -19.188195130090982 #
straight-curve $-1 -62.567827387310402 0 19.188195130090982 0 -1 0 I I #
point $-1 -62.567827387310402 41.062153607827319 19.188195130090982 #
point $-1 -62.567827387310402 -41.062153607827319 19.188195130090982 #
straight-curve $-1 62.567827387310402 -41.062153607827319 0 0 0 -1 I I #
straight-curve $-1 62.567827387310402 41.062153607827319 0 0 0 -1 I I #
plane-surface $-1 0 0 19.188195130090982 0 0 1 1 0 0 forward_v I I I I #
coedge $-1 $308 $305 $310 $423 reversed $200 $-1 #
coedge $-1 $305 $308 $429 $483 reversed $200 $-1 #
edge $-1 $431 -19.188195130090982 $425 19.188195130090982 $322 $484 forward 7 unknown #
edge $-1 $420 -7.7712102437601231 $320 7.7712102437601231 $307 $485 forward 7 unknown #
vertex $-1 $483 $486 #
vertex $-1 $423 $487 #
straight-curve $-1 -78.110247874830648 -8.8018358467357913 0 0 0 -1 I I #
edge $-1 $421 -3.0580362495452178 $425 3.0580362495452178 $416 $488 forward 7 unknown #
straight-curve $-1 -70.339037631070525 -8.8018358467357913 -19.188195130090982 -1 0 0 I I #
vertex $-1 $312 $489 #
straight-curve $-1 -70.339037631070525 -2.6857633476453557 -19.188195130090982 1 0 0 I I #
point $-1 -62.567827387310402 -8.8018358467357913 -19.188195130090982 #
straight-curve $-1 -62.567827387310402 -8.8018358467357913 0 0 0 -1 I I #
coedge $-1 $318 $317 $417 $483 forward $319 $-1 #
point $-1 -62.567827387310402 -8.8018358467357913 19.188195130090982 #
vertex $-1 $323 $490 #
straight-curve $-1 -70.339037631070525 -2.6857633476453557 19.188195130090982 -1 0 0 I I #
plane-surface $-1 0 0 19.188195130090982 0 0 1 1 0 0 forward_v I I I I #
coedge $-1 $438 $491 $343 $449 forward $327 $-1 #
coedge $-1 $329 $336 $339 $447 reversed $216 $-1 #
coedge $-1 $491 $438 $329 $437 reversed $327 $-1 #
edge $-1 $492 -19.188195130090982 $440 19.188195130090982 $436 $493 forward 7 unknown #
coedge $-1 $436 $434 $330 $439 reversed $327 $-1 #
edge $-1 $440 -3.0580362495452178 $442 3.0580362495452178 $438 $494 forward 7 unknown #
vertex $-1 $439 $495 #
straight-curve $-1 70.339037631070525 -2.6857633476453557 -19.188195130090982 1 0 0 I I #
vertex $-1 $449 $496 #
straight-curve $-1 70.339037631070525 -8.8018358467357913 -19.188195130090982 -1 0 0 I I #
point $-1 62.567827387310402 -2.6857633476453557 -19.188195130090982 #
straight-curve $-1 62.567827387310402 -2.6857633476453557 0 0 0 -1 I I #
coedge $-1 $339 $338 $491 $497 forward $340 $-1 #
edge $-1 $492 -7.7712102437601231 $341 7.7712102437601231 $435 $498 forward 7 unknown #
point $-1 62.567827387310402 -2.6857633476453557 19.188195130090982 #
edge $-1 $450 -19.188195130090982 $442 19.188195130090982 $434 $499 forward 7 unknown #
vertex $-1 $497 $500 #
straight-curve $-1 70.339037631070525 -8.8018358467357913 19.188195130090982 1 0 0 I I #
edge $-1 $453 55.800880694742894 $456 67.583916463130507 $348 $501 forward 7 unknown #
vertex $-1 $362 $502 #
straight-curve $-1 -26.318556076921652 43.314161546658383 19.188195130090975 0 1 0 I I #
edge $-1 $456 7.9825653327437003 $359 28.689416155612204 $358 $503 forward 7 unknown #
vertex $-1 $455 $504 #
straight-curve $-1 -26.318556076921652 -10.62034668458675 71.227733731402992 0 -0.62932038083071107 0.77714596973225614 I I #
point $-1 -26.318556076921652 31.520439636566145 19.188195130090982 #
point $-1 -47.025406899790156 41.062153607827319 7.4051593617033689 #
straight-curve $-1 0 41.062153607827319 19.188195130090982 -1 0 0 I I #
vertex $-1 $365 $505 #
point $-1 -39.609163807542004 32.298779465307071 10.0636006869174 #
vertex $-1 $369 $506 #
point $-1 -30.73479916916979 32.298779465307071 10.0636006869174 #
coedge $-1 $384 $383 $376 $466 forward $373 $-1 #
edge $-1 $467 55.800880694742894 $470 67.583916463130507 $465 $507 forward 7 unknown #
vertex $-1 $388 $508 #
straight-curve $-1 47.025406899790163 43.314161546658383 19.188195130090975 0 1 0 I I #
edge $-1 $470 -28.689416155612207 $385 -7.9825653327437038 $384 $509 forward 7 unknown #
vertex $-1 $469 $510 #
straight-curve $-1 47.025406899790163 -10.62034668458675 71.227733731402992 0 -0.62932038083071107 0.77714596973225614 I I #
point $-1 47.025406899790163 31.520439636566145 19.188195130090982 #
point $-1 26.318556076921659 41.062153607827319 7.4051593617033689 #
straight-curve $-1 0 41.062153607827319 19.188195130090982 -1 0 0 I I #
vertex $-1 $391 $511 #
point $-1 33.734799169169804 32.298779465307071 10.0636006869174 #
vertex $-1 $395 $512 #
point $-1 42.609163807542018 32.298779465307071 10.0636006869174 #
straight-curve $-1 -62.567827387310402 41.062153607827319 0 0 0 -1 I I #
point $-1 -62.567827387310402 -41.062153607827319 -19.188195130090982 #
straight-curve $-1 -62.567827387310402 0 -19.188195130090982 0 1 0 I I #
point $-1 -62.567827387310402 41.062153607827319 -19.188195130090982 #
edge $-1 $431 -3.0580362495452178 $420 3.0580362495452178 $417 $513 forward 7 unknown #
straight-curve $-1 -78.110247874830648 -2.6857633476453557 0 0 0 -1 I I #
straight-curve $-1 -70.339037631070525 -8.8018358467357913 19.188195130090982 1 0 0 I I #
point $-1 -78.110247874830648 -8.8018358467357913 19.188195130090982 #
point $-1 -78.110247874830648 -8.8018358467357913 -19.188195130090982 #
straight-curve $-1 -78.110247874830648 -5.7437995971905735 -19.188195130090982 0 1 0 I I #
point $-1 -78.110247874830648 -2.6857633476453557 -19.188195130090982 #
point $-1 -78.110247874830648 -2.6857633476453557 19.188195130090982 #
coedge $-1 $434 $436 $446 $497 reversed $327 $-1 #
vertex $-1 $497 $514 #
straight-curve $-1 78.110247874830648 -2.6857633476453557 0 0 0 -1 I I #
straight-curve $-1 78.110247874830648 -5.7437995971905735 -19.188195130090982 0 -1 0 I I #
point $-1 78.110247874830648 -2.6857633476453557 -19.188195130090982 #
point $-1 78.110247874830648 -8.8018358467357913 -19.188195130090982 #
edge $-1 $450 -3.0580362495452178 $492 3.0580362495452178 $491 $515 forward 7 unknown #
straight-curve $-1 70.339037631070525 -2.6857633476453557 19.188195130090982 -1 0 0 I I #
straight-curve $-1 78.110247874830648 -8.8018358467357913 0 0 0 -1 I I #
point $-1 78.110247874830648 -8.8018358467357913 19.188195130090982 #
straight-curve $-1 -26.318556076921652 41.062153607827319 74.989075824833876 0 0 -1 I I #
point $-1 -26.318556076921652 41.062153607827319 19.188195130090982 #
straight-curve $-1 -18.335990744177952 41.062153607827312 7.4051593617033724 -1 0 0 I I #
point $-1 -26.318556076921652 41.062153607827319 7.4051593617033689 #
point $-1 -41.109163807542004 31.133060510708685 9.119620115671335 #
point $-1 -32.23479916916979 31.133060510708685 9.119620115671335 #
straight-curve $-1 47.025406899790163 41.062153607827319 74.989075824833876 0 0 -1 I I #
point $-1 47.025406899790163 41.062153607827319 19.188195130090982 #
straight-curve $-1 18.335990744177955 41.062153607827312 7.4051593617033724 -1 0 0 I I #
point $-1 47.025406899790163 41.062153607827319 7.4051593617033689 #
point $-1 32.234799169169804 31.133060510708685 9.119620115671335 #
point $-1 41.109163807542018 31.133060510708685 9.119620115671335 #
straight-curve $-1 -78.110247874830648 -5.7437995971905735 19.188195130090982 0 -1 0 I I #
point $-1 78.110247874830648 -2.6857633476453557 19.188195130090982 #
straight-curve $-1 78.110247874830648 -5.7437995971905735 19.188195130090982 0 1 0 I I #
End-of-ACIS-data 