500 0 5 0           
7 Unknown 11 ACIS 5.0 NT 24 Fri Mar 26 16:45:27 1999 
-1 9.9999999999999995e-007 1e-010 
body $-1 $5 $-1 $6 #
body $-1 $7 $-1 $8 #
body $-1 $9 $-1 $10 #
body $-1 $11 $-1 $12 #
body $-1 $13 $-1 $14 #
lump $-1 $-1 $15 $0 #
transform $-1 1 0 0 0 1 0 0 0 1 74.744712668233291 34.503420358200721 15.751511107341319 1 rotate no_reflect no_shear #
lump $-1 $-1 $16 $1 #
transform $-1 1 0 0 0 1 0 0 0 1 74.744712668233291 34.503420358200721 15.751511107341319 1 rotate no_reflect no_shear #
lump $-1 $-1 $17 $2 #
transform $-1 1 0 0 0 1 0 0 0 1 74.744712668233291 34.503420358200721 15.751511107341319 1 rotate no_reflect no_shear #
lump $-1 $-1 $18 $3 #
transform $-1 1 0 0 0 1 0 0 0 1 74.744712668233291 34.503420358200721 15.751511107341319 1 rotate no_reflect no_shear #
lump $-1 $-1 $19 $4 #
transform $-1 1 0 0 0 1 0 0 0 1 74.744712668233291 34.503420358200721 15.751511107341319 1 rotate no_reflect no_shear #
shell $-1 $-1 $-1 $20 $-1 $5 #
shell $-1 $-1 $-1 $21 $-1 $7 #
shell $-1 $-1 $-1 $22 $-1 $9 #
shell $-1 $-1 $-1 $23 $-1 $11 #
shell $-1 $-1 $-1 $24 $-1 $13 #
face $-1 $25 $26 $15 $-1 $27 forward single #
face $-1 $28 $29 $16 $-1 $30 forward single #
face $-1 $31 $32 $17 $-1 $33 reversed single #
face $-1 $34 $35 $18 $-1 $36 forward single #
face $-1 $37 $38 $19 $-1 $39 reversed single #
face $-1 $40 $41 $15 $-1 $42 reversed single #
loop $-1 $-1 $43 $20 #
plane-surface $-1 0 0 15.751511107341319 0 0 1 1 0 0 forward_v I I I I #
face $-1 $44 $45 $16 $-1 $46 forward single #
loop $-1 $-1 $47 $21 #
plane-surface $-1 -67.807120711846437 0 12.51237318981798 0 0 1 1 0 0 forward_v I I I I #
face $-1 $48 $49 $17 $-1 $50 forward single #
loop $-1 $-1 $51 $22 #
plane-surface $-1 68.715307068838058 0 -7.0395559146673863 0 0 1 1 0 0 forward_v I I I I #
face $-1 $52 $53 $18 $-1 $54 forward single #
loop $-1 $-1 $55 $23 #
plane-surface $-1 -11.779939570935127 114.88170465503026 143.8806241206137 -1 0 0 0 0.80901700255871778 0.5877852410284794 forward_v I I I I #
face $-1 $56 $57 $19 $-1 $58 reversed single #
loop $-1 $59 $60 $24 #
cone-surface $-1 -22.798194061388209 26.069733002874052 5.949380090409143 0 -0.80901700255871778 -0.5877852410284794 2 0 0 1 I I 0 1 2 forward I I I I #
face $-1 $61 $62 $15 $-1 $63 reversed single #
loop $-1 $-1 $64 $25 #
plane-surface $-1 0 0 -15.751511107341319 0 0 1 1 0 0 forward_v I I I I #
coedge $-1 $65 $66 $67 $68 forward $26 $-1 #
face $-1 $69 $70 $16 $-1 $71 forward single #
loop $-1 $-1 $72 $28 #
plane-surface $-1 -60.869528755459584 0 14.13194214857965 -1 0 0 0 0 1 forward_v I I I I #
coedge $-1 $73 $74 $75 $76 reversed $29 $-1 #
face $-1 $77 $78 $17 $-1 $79 reversed single #
loop $-1 $-1 $80 $31 #
plane-surface $-1 62.685901469442825 0 -11.395533511004352 1 0 0 0 0 -1 forward_v I I I I #
coedge $-1 $81 $82 $83 $84 reversed $32 $-1 #
face $-1 $85 $86 $18 $-1 $87 forward single #
loop $-1 $-1 $88 $34 #
plane-surface $-1 -22.798194061388209 -6.0577821449031717 56.012946218009816 0 0.80901700255871778 0.5877852410284794 1 0 0 forward_v I I I I #
coedge $-1 $89 $90 $91 $92 reversed $35 $-1 #
face $-1 $93 $94 $19 $-1 $95 forward single #
loop $-1 $96 $97 $37 #
cone-surface $-1 -22.798194061388209 22.481807901557779 3.3425999933292267 0 -0.80901700255871778 -0.5877852410284794 1 0 0 1 I I -0.70710678118654746 0.70710678118654746 1 forward I I I I #
loop $-1 $-1 $98 $24 #
coedge $-1 $60 $60 $99 $100 reversed $38 $-1 #
face $-1 $101 $102 $15 $-1 $103 reversed single #
loop $-1 $-1 $104 $40 #
plane-surface $-1 0 -34.503420358200721 0 0 1 0 0 0 1 forward_v I I I I #
coedge $-1 $105 $106 $107 $108 forward $41 $-1 #
coedge $-1 $109 $43 $110 $111 forward $26 $-1 #
coedge $-1 $43 $109 $112 $113 forward $26 $-1 #
coedge $-1 $114 $115 $43 $68 reversed $116 $-1 #
edge $-1 $117 -34.503420358200721 $118 34.503420358200721 $67 $119 forward 7 unknown #
face $-1 $120 $121 $16 $-1 $122 reversed single #
loop $-1 $-1 $123 $44 #
plane-surface $-1 0 0 15.751511107341319 0 0 1 1 0 0 forward_v I I I I #
coedge $-1 $124 $75 $125 $126 reversed $45 $-1 #
coedge $-1 $127 $47 $128 $129 reversed $29 $-1 #
coedge $-1 $47 $127 $130 $131 reversed $29 $-1 #
coedge $-1 $72 $132 $47 $76 forward $45 $-1 #
edge $-1 $133 -34.503420358200721 $134 34.503420358200721 $75 $135 forward 7 unknown #
face $-1 $136 $137 $17 $-1 $138 reversed single #
loop $-1 $-1 $83 $48 #
plane-surface $-1 74.744712668233291 0 0 -1 0 0 0 0 1 forward_v I I I I #
coedge $-1 $139 $140 $141 $142 reversed $49 $-1 #
coedge $-1 $143 $51 $144 $145 reversed $32 $-1 #
coedge $-1 $51 $143 $146 $147 reversed $32 $-1 #
coedge $-1 $148 $149 $51 $84 forward $78 $-1 #
edge $-1 $150 -34.503420358200721 $151 34.503420358200721 $83 $152 forward 7 unknown #
face $-1 $153 $154 $18 $-1 $155 reversed single #
loop $-1 $-1 $156 $52 #
plane-surface $-1 -33.81644855184129 114.88170465503026 143.8806241206137 1 0 0 0 -0.80901700255871778 -0.5877852410284794 forward_v I I I I #
coedge $-1 $157 $158 $159 $160 reversed $53 $-1 #
coedge $-1 $90 $55 $158 $161 forward $35 $-1 #
coedge $-1 $55 $89 $162 $163 reversed $35 $-1 #
coedge $-1 $164 $159 $55 $92 forward $154 $-1 #
edge $-1 $165 -71.755073274726982 $166 -56.188800952965536 $91 $167 forward 7 unknown #
face $-1 $168 $169 $19 $-1 $170 forward single #
loop $-1 $-1 $171 $56 #
plane-surface $-1 -11.779939570935127 114.88170465503026 143.8806241206137 -1 0 0 0 0.80901700255871778 0.5877852410284794 forward_v I I I I #
loop $-1 $-1 $172 $37 #
coedge $-1 $97 $97 $98 $173 forward $57 $-1 #
coedge $-1 $98 $98 $97 $173 reversed $59 $-1 #
coedge $-1 $99 $99 $60 $100 forward $169 $-1 #
edge $-1 $174 -1.011324937957113e-016 $174 6.2831853071796004 $99 $175 forward 7 unknown #
face $-1 $176 $177 $15 $-1 $178 reversed single #
loop $-1 $-1 $179 $61 #
plane-surface $-1 -74.744712668233291 0 0 1 0 0 0 0 -1 forward_v I I I I #
coedge $-1 $180 $112 $181 $182 forward $62 $-1 #
coedge $-1 $183 $64 $180 $184 forward $41 $-1 #
coedge $-1 $64 $183 $185 $186 forward $41 $-1 #
coedge $-1 $115 $114 $64 $108 reversed $116 $-1 #
edge $-1 $187 -34.503420358200721 $188 34.503420358200721 $107 $189 forward 7 unknown #
coedge $-1 $66 $65 $190 $191 forward $26 $-1 #
coedge $-1 $192 $193 $65 $111 reversed $177 $-1 #
edge $-1 $118 -74.744712668233291 $194 74.744712668233291 $110 $195 forward 7 unknown #
coedge $-1 $104 $196 $66 $113 reversed $62 $-1 #
edge $-1 $197 -74.744712668233291 $117 74.744712668233291 $112 $198 forward 7 unknown #
coedge $-1 $107 $67 $196 $199 forward $116 $-1 #
coedge $-1 $67 $107 $192 $200 reversed $116 $-1 #
loop $-1 $-1 $114 $176 #
vertex $-1 $68 $201 #
vertex $-1 $68 $202 #
straight-curve $-1 74.744712668233291 0 15.751511107341319 0 1 0 I I #
face $-1 $203 $204 $16 $-1 $205 reversed single #
loop $-1 $-1 $125 $69 #
plane-surface $-1 0 -34.503420358200721 0 0 1 0 0 0 1 forward_v I I I I #
coedge $-1 $206 $207 $124 $208 forward $70 $-1 #
coedge $-1 $132 $72 $123 $208 reversed $45 $-1 #
coedge $-1 $130 $209 $72 $126 forward $121 $-1 #
edge $-1 $210 -8.6855400330514954 $134 -5.446402115528155 $125 $211 forward 7 unknown #
coedge $-1 $74 $73 $212 $213 reversed $29 $-1 #
coedge $-1 $214 $215 $73 $129 forward $216 $-1 #
edge $-1 $217 -40.841152312310072 $133 -26.965968399536365 $128 $218 forward 7 unknown #
coedge $-1 $219 $125 $74 $131 forward $121 $-1 #
edge $-1 $134 26.965968399536365 $220 40.841152312310072 $130 $221 forward 7 unknown #
coedge $-1 $75 $124 $214 $222 reversed $45 $-1 #
vertex $-1 $129 $223 #
vertex $-1 $131 $224 #
straight-curve $-1 -60.869528755459584 0 12.51237318981798 0 -1 0 I I #
face $-1 $225 $226 $17 $-1 $227 forward single #
loop $-1 $-1 $146 $77 #
plane-surface $-1 0 34.503420358200721 0 0 -1 0 0 0 -1 forward_v I I I I #
coedge $-1 $228 $80 $143 $229 forward $49 $-1 #
coedge $-1 $80 $228 $230 $231 reversed $49 $-1 #
coedge $-1 $232 $146 $80 $142 forward $137 $-1 #
edge $-1 $233 1.3417891591652102 $234 10.053744351839143 $141 $235 forward 7 unknown #
coedge $-1 $82 $81 $139 $229 reversed $32 $-1 #
coedge $-1 $236 $237 $81 $145 forward $238 $-1 #
edge $-1 $239 28.328247935023796 $150 40.387059133814262 $144 $240 forward 7 unknown #
coedge $-1 $141 $241 $82 $147 forward $137 $-1 #
edge $-1 $151 -40.387059133814262 $233 -28.328247935023796 $146 $242 forward 7 unknown #
coedge $-1 $243 $83 $241 $244 reversed $78 $-1 #
coedge $-1 $83 $243 $236 $245 forward $78 $-1 #
vertex $-1 $84 $246 #
vertex $-1 $147 $247 #
straight-curve $-1 74.744712668233291 0 -7.0395559146673863 0 1 0 I I #
face $-1 $248 $249 $18 $-1 $250 reversed single #
loop $-1 $-1 $251 $85 #
plane-surface $-1 0 34.503420358200721 0 0 -1 0 0 0 -1 forward_v I I I I #
coedge $-1 $252 $253 $251 $254 reversed $86 $-1 #
coedge $-1 $255 $88 $253 $256 reversed $53 $-1 #
coedge $-1 $88 $255 $89 $161 reversed $53 $-1 #
coedge $-1 $91 $251 $88 $160 forward $154 $-1 #
edge $-1 $257 -22.417351521147186 $165 -0.38084254024102293 $159 $258 forward 7 unknown #
edge $-1 $165 -69.006840716401413 $259 -49.765870165066595 $89 $260 forward 7 unknown #
coedge $-1 $261 $262 $90 $163 forward $263 $-1 #
edge $-1 $166 22.93743196931441 $259 34.246990482452624 $162 $264 forward 7 unknown #
coedge $-1 $265 $91 $262 $266 reversed $154 $-1 #
vertex $-1 $160 $267 #
vertex $-1 $163 $268 #
straight-curve $-1 -11.779939570935127 34.503420358200721 71.940312060306852 0 0 1 I I #
face $-1 $269 $270 $19 $-1 $271 forward single #
loop $-1 $272 $99 $93 #
plane-surface $-1 -22.798194061388209 -6.0577821449031717 56.012946218009816 0 0.80901700255871778 0.5877852410284794 1 0 0 forward_v I I I I #
coedge $-1 $273 $274 $275 $276 reversed $94 $-1 #
coedge $-1 $172 $172 $-1 $277 forward $96 $-1 #
edge $-1 $278 0 $278 6.2831853071796004 $97 $279 forward 7 unknown #
vertex $-1 $100 $280 #
ellipse-curve $-1 -22.798194061388209 28.848641101631618 7.9683749464605871 0 -0.80901700255871778 -0.5877852410284794 2 0 0 1 I I #
face $-1 $-1 $116 $15 $-1 $281 reversed single #
loop $-1 $-1 $192 $101 #
plane-surface $-1 0 34.503420358200721 0 0 -1 0 0 0 -1 forward_v I I I I #
coedge $-1 $282 $190 $193 $283 forward $102 $-1 #
coedge $-1 $196 $104 $105 $184 reversed $62 $-1 #
coedge $-1 $190 $282 $104 $182 reversed $102 $-1 #
edge $-1 $197 -15.751511107341319 $284 15.751511107341319 $181 $285 forward 7 unknown #
coedge $-1 $106 $105 $282 $286 forward $41 $-1 #
edge $-1 $188 -74.744712668233291 $284 74.744712668233291 $180 $287 forward 7 unknown #
coedge $-1 $193 $192 $106 $186 reversed $177 $-1 #
edge $-1 $288 -74.744712668233291 $187 74.744712668233291 $185 $289 forward 7 unknown #
vertex $-1 $108 $290 #
vertex $-1 $199 $291 #
straight-curve $-1 74.744712668233291 0 -15.751511107341319 0 -1 0 I I #
coedge $-1 $179 $181 $109 $191 reversed $102 $-1 #
edge $-1 $194 -34.503420358200721 $197 34.503420358200721 $190 $292 forward 7 unknown #
coedge $-1 $185 $110 $115 $200 forward $177 $-1 #
coedge $-1 $110 $185 $179 $283 reversed $177 $-1 #
vertex $-1 $111 $293 #
straight-curve $-1 0 34.503420358200721 15.751511107341319 -1 0 0 I I #
coedge $-1 $112 $180 $114 $199 reversed $62 $-1 #
vertex $-1 $191 $294 #
straight-curve $-1 0 -34.503420358200721 15.751511107341319 1 0 0 I I #
edge $-1 $117 -15.751511107341319 $188 15.751511107341319 $114 $295 forward 7 unknown #
edge $-1 $118 -15.751511107341319 $187 15.751511107341319 $115 $296 forward 7 unknown #
point $-1 74.744712668233291 -34.503420358200721 15.751511107341319 #
point $-1 74.744712668233291 34.503420358200721 15.751511107341319 #
face $-1 $297 $298 $16 $-1 $299 reversed single #
loop $-1 $-1 $300 $120 #
plane-surface $-1 0 0 -15.751511107341319 0 0 1 1 0 0 forward_v I I I I #
coedge $-1 $301 $123 $209 $302 forward $70 $-1 #
coedge $-1 $123 $301 $303 $304 forward $70 $-1 #
edge $-1 $305 -34.503420358200721 $210 34.503420358200721 $123 $306 forward 7 unknown #
coedge $-1 $125 $307 $206 $302 reversed $121 $-1 #
vertex $-1 $302 $308 #
straight-curve $-1 -60.869528755459584 -34.503420358200721 7.0659710742898252 0 0 -1 I I #
coedge $-1 $309 $310 $127 $213 forward $298 $-1 #
edge $-1 $220 -34.503420358200721 $217 34.503420358200721 $212 $311 forward 7 unknown #
coedge $-1 $303 $128 $132 $222 forward $216 $-1 #
coedge $-1 $128 $312 $309 $313 reversed $216 $-1 #
loop $-1 $-1 $214 $297 #
vertex $-1 $313 $314 #
straight-curve $-1 -33.903560355923219 34.503420358200721 12.51237318981798 1 0 0 I I #
coedge $-1 $315 $130 $310 $316 forward $121 $-1 #
vertex $-1 $316 $317 #
straight-curve $-1 -33.903560355923219 -34.503420358200721 12.51237318981798 -1 0 0 I I #
edge $-1 $133 5.446402115528155 $305 8.6855400330514954 $214 $318 forward 7 unknown #
point $-1 -60.869528755459584 34.503420358200721 12.51237318981798 #
point $-1 -60.869528755459584 -34.503420358200721 12.51237318981798 #
face $-1 $319 $320 $17 $-1 $321 forward single #
loop $-1 $-1 $322 $136 #
plane-surface $-1 -67.807120711846437 0 12.51237318981798 0 0 1 1 0 0 forward_v I I I I #
coedge $-1 $140 $139 $237 $323 reversed $49 $-1 #
edge $-1 $233 -34.503420358200721 $239 34.503420358200721 $139 $324 forward 7 unknown #
coedge $-1 $325 $326 $140 $231 forward $327 $-1 #
edge $-1 $234 -34.503420358200721 $328 34.503420358200721 $230 $329 forward 7 unknown #
coedge $-1 $330 $141 $326 $331 reversed $137 $-1 #
vertex $-1 $147 $332 #
vertex $-1 $142 $333 #
straight-curve $-1 62.685901469442825 34.503420358200721 -5.697766755502176 0 0 -1 I I #
coedge $-1 $334 $144 $149 $245 reversed $238 $-1 #
coedge $-1 $144 $335 $228 $323 forward $238 $-1 #
loop $-1 $-1 $144 $336 #
vertex $-1 $145 $337 #
straight-curve $-1 34.357653534419029 -34.503420358200721 -7.0395559146673863 1 0 0 I I #
coedge $-1 $146 $338 $148 $244 forward $137 $-1 #
straight-curve $-1 34.357653534419029 34.503420358200721 -7.0395559146673863 -1 0 0 I I #
coedge $-1 $149 $148 $339 $340 reversed $78 $-1 #
edge $-1 $341 -15.751511107341319 $151 7.0395559146673863 $148 $342 forward 7 unknown #
edge $-1 $343 -15.751511107341319 $150 7.0395559146673863 $149 $344 forward 7 unknown #
point $-1 74.744712668233291 -34.503420358200721 -7.0395559146673863 #
point $-1 74.744712668233291 34.503420358200721 -7.0395559146673863 #
face $-1 $345 $346 $18 $-1 $347 forward single #
loop $-1 $-1 $348 $153 #
plane-surface $-1 68.715307068838058 0 -7.0395559146673863 0 0 1 1 0 0 forward_v I I I I #
coedge $-1 $159 $349 $156 $254 forward $154 $-1 #
coedge $-1 $253 $156 $350 $351 reversed $86 $-1 #
coedge $-1 $156 $252 $157 $256 forward $86 $-1 #
edge $-1 $352 56.188800952965536 $257 71.755073274726982 $251 $353 forward 7 unknown #
coedge $-1 $158 $157 $261 $354 reversed $53 $-1 #
edge $-1 $355 49.765870165066595 $257 69.006840716401413 $253 $356 forward 7 unknown #
vertex $-1 $160 $357 #
straight-curve $-1 -11.399097030694104 34.503420358200728 0.18523878557986251 1 0 0 I I #
vertex $-1 $354 $358 #
straight-curve $-1 -11.779939570935127 -6.0577821449031717 56.012946218009816 0 -0.5877852410284794 0.80901700255871778 I I #
coedge $-1 $350 $162 $255 $354 forward $263 $-1 #
coedge $-1 $162 $359 $164 $266 forward $263 $-1 #
loop $-1 $-1 $350 $360 #
straight-curve $-1 -11.779939570935127 57.440852327515131 15.751511107341315 0 -1 0 I I #
coedge $-1 $361 $164 $362 $363 forward $154 $-1 #
edge $-1 $364 -74.744712668233291 $166 11.779939570935127 $164 $365 forward 7 unknown #
point $-1 -11.779939570935127 34.503420358200721 0.18523878557986251 #
point $-1 -11.779939570935127 34.503420358200721 15.751511107341319 #
face $-1 $366 $367 $19 $-1 $368 reversed single #
loop $-1 $-1 $369 $168 #
plane-surface $-1 -33.81644855184129 114.88170465503026 143.8806241206137 1 0 0 0 -0.80901700255871778 -0.5877852410284794 forward_v I I I I #
loop $-1 $-1 $370 $93 #
coedge $-1 $274 $171 $371 $372 forward $94 $-1 #
coedge $-1 $171 $273 $373 $374 reversed $94 $-1 #
coedge $-1 $375 $376 $171 $276 forward $367 $-1 #
edge $-1 $377 -71.755073274726982 $378 -56.188800952965536 $275 $379 forward 7 unknown #
edge $-1 $380 1 $380 0 $172 $-1 forward 7 unknown #
vertex $-1 $173 $381 #
ellipse-curve $-1 -22.798194061388209 23.290824904116498 3.9303852343577059 0 0.80901700255871778 0.5877852410284794 2 0 0 1 I I #
point $-1 -20.798194061388209 28.848641101631607 7.9683749464605791 #
plane-surface $-1 74.744712668233291 0 0 -1 0 0 0 0 1 forward_v I I I I #
coedge $-1 $181 $179 $183 $286 reversed $102 $-1 #
edge $-1 $194 -15.751511107341319 $288 15.751511107341319 $193 $382 forward 7 unknown #
vertex $-1 $286 $383 #
straight-curve $-1 -74.744712668233291 -34.503420358200721 0 0 0 -1 I I #
edge $-1 $284 -34.503420358200721 $288 34.503420358200721 $282 $384 forward 7 unknown #
straight-curve $-1 0 -34.503420358200721 -15.751511107341319 -1 0 0 I I #
vertex $-1 $186 $385 #
straight-curve $-1 0 34.503420358200721 -15.751511107341319 1 0 0 I I #
point $-1 74.744712668233291 34.503420358200721 -15.751511107341319 #
point $-1 74.744712668233291 -34.503420358200721 -15.751511107341319 #
straight-curve $-1 -74.744712668233291 0 15.751511107341319 0 -1 0 I I #
point $-1 -74.744712668233291 34.503420358200721 15.751511107341319 #
point $-1 -74.744712668233291 -34.503420358200721 15.751511107341319 #
straight-curve $-1 74.744712668233291 -34.503420358200721 0 0 0 -1 I I #
straight-curve $-1 74.744712668233291 34.503420358200721 0 0 0 -1 I I #
face $-1 $386 $216 $16 $-1 $387 reversed single #
loop $-1 $-1 $212 $203 #
plane-surface $-1 -74.744712668233291 0 0 1 0 0 0 0 -1 forward_v I I I I #
coedge $-1 $388 $389 $390 $391 forward $204 $-1 #
coedge $-1 $207 $206 $392 $393 forward $70 $-1 #
edge $-1 $210 -60.869528755459584 $394 74.744712668233291 $209 $395 forward 7 unknown #
coedge $-1 $396 $214 $207 $304 reversed $216 $-1 #
edge $-1 $397 -74.744712668233291 $305 60.869528755459584 $303 $398 forward 7 unknown #
vertex $-1 $208 $399 #
straight-curve $-1 -60.869528755459584 0 15.751511107341319 0 -1 0 I I #
coedge $-1 $209 $315 $400 $401 reversed $121 $-1 #
point $-1 -60.869528755459584 -34.503420358200721 15.751511107341321 #
coedge $-1 $402 $212 $215 $313 forward $298 $-1 #
coedge $-1 $212 $402 $219 $316 reversed $298 $-1 #
straight-curve $-1 -74.744712668233291 0 12.51237318981798 0 1 0 I I #
coedge $-1 $215 $396 $389 $403 reversed $216 $-1 #
edge $-1 $217 -12.51237318981798 $404 15.751511107341319 $215 $405 forward 7 unknown #
point $-1 -74.744712668233291 34.503420358200721 12.51237318981798 #
coedge $-1 $307 $219 $388 $406 reversed $121 $-1 #
edge $-1 $220 -12.51237318981798 $407 15.751511107341319 $310 $408 forward 7 unknown #
point $-1 -74.744712668233291 -34.503420358200721 12.51237318981798 #
straight-curve $-1 -60.869528755459584 34.503420358200721 7.0659710742898252 0 0 1 I I #
face $-1 $336 $409 $17 $-1 $410 forward single #
loop $-1 $-1 $411 $225 #
plane-surface $-1 -60.869528755459584 0 14.13194214857965 -1 0 0 0 0 1 forward_v I I I I #
coedge $-1 $412 $413 $414 $415 reversed $226 $-1 #
edge $-1 $328 -10.053744351839143 $239 -1.3417891591652102 $237 $416 forward 7 unknown #
straight-curve $-1 62.685901469442825 0 -7.0395559146673863 0 -1 0 I I #
coedge $-1 $417 $230 $335 $418 forward $327 $-1 #
coedge $-1 $230 $417 $232 $331 forward $327 $-1 #
loop $-1 $-1 $230 $419 #
vertex $-1 $418 $420 #
straight-curve $-1 62.685901469442825 0 -15.751511107341319 0 -1 0 I I #
coedge $-1 $421 $232 $422 $423 reversed $137 $-1 #
edge $-1 $424 -74.744712668233291 $234 62.685901469442825 $232 $425 forward 7 unknown #
point $-1 62.685901469442825 34.503420358200721 -7.0395559146673863 #
point $-1 62.685901469442825 34.503420358200721 -15.751511107341319 #
coedge $-1 $426 $236 $427 $428 reversed $238 $-1 #
coedge $-1 $237 $429 $325 $418 reversed $238 $-1 #
face $-1 $419 $238 $17 $-1 $430 reversed single #
point $-1 62.685901469442825 -34.503420358200721 -7.0395559146673863 #
coedge $-1 $241 $431 $432 $433 reversed $137 $-1 #
coedge $-1 $432 $427 $243 $340 forward $409 $-1 #
edge $-1 $343 -34.503420358200721 $341 34.503420358200721 $243 $434 forward 7 unknown #
vertex $-1 $340 $435 #
straight-curve $-1 74.744712668233291 34.503420358200721 0 0 0 -1 I I #
vertex $-1 $340 $436 #
straight-curve $-1 74.744712668233291 -34.503420358200721 0 0 0 -1 I I #
face $-1 $437 $438 $18 $-1 $439 reversed single #
loop $-1 $-1 $440 $248 #
plane-surface $-1 62.685901469442825 0 -11.395533511004352 1 0 0 0 0 -1 forward_v I I I I #
coedge $-1 $441 $442 $443 $444 reversed $249 $-1 #
coedge $-1 $251 $445 $446 $447 reversed $154 $-1 #
coedge $-1 $446 $261 $252 $351 forward $263 $-1 #
edge $-1 $355 -34.246990482452624 $352 -22.93743196931441 $350 $448 forward 7 unknown #
vertex $-1 $447 $449 #
straight-curve $-1 -33.81644855184129 34.503420358200721 71.940312060306852 0 0 -1 I I #
edge $-1 $259 0.38084254024102293 $355 22.417351521147186 $261 $450 forward 7 unknown #
vertex $-1 $354 $451 #
straight-curve $-1 -33.81644855184129 -6.0577821449031717 56.012946218009816 0 0.5877852410284794 -0.80901700255871778 I I #
point $-1 -33.81644855184129 34.503420358200721 0.18523878557986251 #
point $-1 -11.779939570935127 23.193861845062507 15.751511107341315 #
coedge $-1 $262 $452 $453 $454 forward $263 $-1 #
face $-1 $455 $263 $18 $-1 $456 forward single #
coedge $-1 $457 $265 $442 $458 forward $154 $-1 #
coedge $-1 $453 $443 $265 $363 reversed $438 $-1 #
edge $-1 $364 -15.751511107341319 $459 7.0395559146673863 $362 $460 forward 7 unknown #
vertex $-1 $454 $461 #
straight-curve $-1 0 34.503420358200721 15.751511107341319 -1 0 0 I I #
face $-1 $462 $463 $19 $-1 $464 reversed single #
loop $-1 $-1 $465 $269 #
plane-surface $-1 0 34.503420358200721 0 0 -1 0 0 0 -1 forward_v I I I I #
coedge $-1 $466 $467 $465 $468 reversed $270 $-1 #
coedge $-1 $469 $371 $376 $470 reversed $272 $-1 #
coedge $-1 $370 $471 $273 $372 reversed $272 $-1 #
edge $-1 $377 -69.006840716401413 $472 -49.765870165066595 $273 $473 forward 7 unknown #
coedge $-1 $474 $475 $274 $374 forward $476 $-1 #
edge $-1 $378 22.93743196931441 $472 34.246990482452624 $373 $477 forward 7 unknown #
coedge $-1 $478 $275 $475 $479 reversed $367 $-1 #
coedge $-1 $275 $465 $370 $470 forward $367 $-1 #
vertex $-1 $470 $480 #
vertex $-1 $374 $481 #
straight-curve $-1 -11.779939570935127 34.503420358200721 71.940312060306852 0 0 1 I I #
vertex $-1 $277 $482 #
point $-1 -20.798194061388209 23.290824904116498 3.9303852343577059 #
straight-curve $-1 -74.744712668233291 34.503420358200721 0 0 0 -1 I I #
point $-1 -74.744712668233291 -34.503420358200721 -15.751511107341319 #
straight-curve $-1 -74.744712668233291 0 -15.751511107341319 0 1 0 I I #
point $-1 -74.744712668233291 34.503420358200721 -15.751511107341319 #
face $-1 $-1 $483 $16 $-1 $484 reversed single #
plane-surface $-1 0 34.503420358200721 0 0 -1 0 0 0 -1 forward_v I I I I #
coedge $-1 $485 $300 $315 $406 forward $204 $-1 #
coedge $-1 $300 $485 $312 $403 forward $204 $-1 #
coedge $-1 $486 $400 $300 $391 reversed $483 $-1 #
edge $-1 $487 -34.503420358200721 $488 34.503420358200721 $390 $489 forward 7 unknown #
coedge $-1 $400 $486 $301 $393 reversed $483 $-1 #
edge $-1 $394 -34.503420358200721 $397 34.503420358200721 $392 $490 forward 7 unknown #
vertex $-1 $393 $491 #
straight-curve $-1 0 -34.503420358200721 15.751511107341319 1 0 0 I I #
coedge $-1 $312 $303 $486 $492 forward $216 $-1 #
vertex $-1 $393 $493 #
straight-curve $-1 0 34.503420358200721 15.751511107341319 -1 0 0 I I #
point $-1 -60.869528755459584 34.503420358200721 15.751511107341321 #
coedge $-1 $390 $392 $307 $401 forward $483 $-1 #
edge $-1 $394 -15.751511107341319 $488 15.751511107341319 $400 $494 forward 7 unknown #
coedge $-1 $310 $309 $485 $495 reversed $298 $-1 #
edge $-1 $404 -74.744712668233291 $487 74.744712668233291 $312 $496 forward 7 unknown #
vertex $-1 $403 $497 #
straight-curve $-1 -74.744712668233291 34.503420358200721 0 0 0 -1 I I #
edge $-1 $488 -74.744712668233291 $407 74.744712668233291 $315 $498 forward 7 unknown #
vertex $-1 $495 $499 #
straight-curve $-1 -74.744712668233291 -34.503420358200721 0 0 0 -1 I I #
loop $-1 $-1 $500 $319 #
plane-surface $-1 0 0 15.751511107341319 0 0 1 1 0 0 forward_v I I I I #
coedge $-1 $501 $414 $426 $502 reversed $320 $-1 #
coedge $-1 $503 $322 $421 $504 reversed $226 $-1 #
coedge $-1 $322 $503 $505 $506 reversed $226 $-1 #
coedge $-1 $411 $507 $322 $415 forward $320 $-1 #
edge $-1 $508 -34.503420358200721 $509 34.503420358200721 $414 $510 forward 7 unknown #
straight-curve $-1 62.685901469442825 -34.503420358200721 -5.697766755502176 0 0 1 I I #
coedge $-1 $326 $325 $511 $512 forward $327 $-1 #
edge $-1 $328 -62.685901469442825 $513 74.744712668233291 $335 $514 forward 7 unknown #
face $-1 $515 $327 $17 $-1 $516 reversed single #
point $-1 62.685901469442825 -34.503420358200721 -15.751511107341319 #
coedge $-1 $431 $330 $412 $504 forward $137 $-1 #
coedge $-1 $511 $517 $330 $423 forward $518 $-1 #
edge $-1 $519 -12.51237318981798 $424 15.751511107341319 $330 $520 forward 7 unknown #
vertex $-1 $331 $521 #
straight-curve $-1 0 34.503420358200721 -15.751511107341319 1 0 0 I I #
coedge $-1 $505 $334 $411 $502 forward $238 $-1 #
coedge $-1 $339 $500 $334 $428 forward $409 $-1 #
edge $-1 $522 -60.869528755459584 $343 74.744712668233291 $334 $523 forward 7 unknown #
coedge $-1 $335 $505 $524 $525 forward $238 $-1 #
plane-surface $-1 0 -34.503420358200721 0 0 1 0 0 0 1 forward_v I I I I #
coedge $-1 $338 $421 $507 $526 forward $137 $-1 #
coedge $-1 $500 $339 $338 $433 forward $409 $-1 #
edge $-1 $341 -74.744712668233291 $527 60.869528755459584 $338 $528 forward 7 unknown #
straight-curve $-1 74.744712668233291 0 15.751511107341319 0 1 0 I I #
point $-1 74.744712668233291 34.503420358200721 15.751511107341319 #
point $-1 74.744712668233291 -34.503420358200721 15.751511107341319 #
face $-1 $529 $530 $18 $-1 $531 forward single #
loop $-1 $-1 $443 $345 #
plane-surface $-1 74.744712668233291 0 0 -1 0 0 0 0 1 forward_v I I I I #
coedge $-1 $532 $533 $457 $534 reversed $346 $-1 #
coedge $-1 $535 $348 $536 $537 reversed $249 $-1 #
coedge $-1 $348 $535 $361 $458 reversed $249 $-1 #
coedge $-1 $362 $538 $348 $444 forward $438 $-1 #
edge $-1 $539 -34.503420358200721 $459 34.503420358200721 $443 $540 forward 7 unknown #
coedge $-1 $349 $541 $542 $543 forward $154 $-1 #
coedge $-1 $544 $350 $349 $447 forward $263 $-1 #
edge $-1 $352 33.81644855184129 $545 60.869528755459584 $349 $365 forward 7 unknown #
straight-curve $-1 -33.81644855184129 57.440852327515131 15.751511107341315 0 1 0 I I #
point $-1 -33.81644855184129 34.503420358200721 15.751511107341319 #
straight-curve $-1 -11.399097030694104 23.193861845062507 15.751511107341319 -1 0 0 I I #
point $-1 -33.81644855184129 23.193861845062507 15.751511107341315 #
coedge $-1 $359 $544 $546 $547 forward $263 $-1 #
coedge $-1 $538 $362 $359 $454 reversed $438 $-1 #
edge $-1 $548 -34.503420358200721 $364 34.503420358200721 $453 $549 forward 7 unknown #
face $-1 $550 $551 $18 $-1 $552 reversed single #
plane-surface $-1 0 0 15.751511107341319 0 0 1 1 0 0 forward_v I I I I #
coedge $-1 $553 $361 $440 $534 forward $154 $-1 #
edge $-1 $459 -40.387059133814262 $554 -28.328247935023796 $361 $555 forward 7 unknown #
vertex $-1 $458 $556 #
straight-curve $-1 74.744712668233291 34.503420358200721 0 0 0 -1 I I #
point $-1 74.744712668233291 34.503420358200721 15.751511107341319 #
face $-1 $557 $558 $19 $-1 $559 forward single #
loop $-1 $-1 $560 $366 #
plane-surface $-1 68.715307068838058 0 -7.0395559146673863 0 0 1 1 0 0 forward_v I I I I #
coedge $-1 $376 $561 $369 $468 forward $367 $-1 #
coedge $-1 $467 $369 $562 $563 reversed $270 $-1 #
coedge $-1 $369 $466 $469 $564 forward $270 $-1 #
edge $-1 $565 56.188800952965536 $566 71.755073274726982 $465 $567 forward 7 unknown #
coedge $-1 $471 $370 $467 $564 reversed $272 $-1 #
edge $-1 $566 -22.417351521147186 $377 -0.38084254024102293 $376 $568 forward 7 unknown #
coedge $-1 $371 $469 $474 $569 reversed $272 $-1 #
vertex $-1 $569 $570 #
straight-curve $-1 -11.779939570935127 -6.0577821449031717 56.012946218009816 0 -0.5877852410284794 0.80901700255871778 I I #
coedge $-1 $562 $373 $471 $569 forward $476 $-1 #
coedge $-1 $373 $571 $375 $479 forward $476 $-1 #
loop $-1 $-1 $562 $572 #
straight-curve $-1 -11.779939570935127 57.440852327515131 15.751511107341315 0 -1 0 I I #
coedge $-1 $573 $375 $574 $575 forward $367 $-1 #
edge $-1 $576 -74.744712668233291 $378 11.779939570935127 $375 $577 forward 7 unknown #
point $-1 -11.779939570935127 34.503420358200721 0.18523878557986251 #
point $-1 -11.779939570935127 34.503420358200721 15.751511107341319 #
point $-1 -22.798194061388209 21.672790898999061 2.7548147523007476 #
loop $-1 $-1 $400 $386 #
plane-surface $-1 74.744712668233291 0 0 -1 0 0 0 0 1 forward_v I I I I #
coedge $-1 $389 $388 $402 $495 forward $204 $-1 #
coedge $-1 $392 $390 $396 $492 reversed $483 $-1 #
vertex $-1 $391 $578 #
vertex $-1 $401 $579 #
straight-curve $-1 74.744712668233291 0 -15.751511107341319 0 -1 0 I I #
straight-curve $-1 74.744712668233291 0 15.751511107341319 0 1 0 I I #
point $-1 74.744712668233291 -34.503420358200721 15.751511107341319 #
edge $-1 $397 -15.751511107341319 $487 15.751511107341319 $486 $580 forward 7 unknown #
point $-1 74.744712668233291 34.503420358200721 15.751511107341319 #
straight-curve $-1 74.744712668233291 -34.503420358200721 0 0 0 -1 I I #
edge $-1 $407 -34.503420358200721 $404 34.503420358200721 $402 $581 forward 7 unknown #
straight-curve $-1 0 34.503420358200721 -15.751511107341319 1 0 0 I I #
point $-1 -74.744712668233291 34.503420358200721 -15.751511107341319 #
straight-curve $-1 0 -34.503420358200721 -15.751511107341319 -1 0 0 I I #
point $-1 -74.744712668233291 -34.503420358200721 -15.751511107341319 #
coedge $-1 $427 $432 $501 $582 forward $409 $-1 #
coedge $-1 $507 $411 $500 $582 reversed $320 $-1 #
edge $-1 $522 -8.6855400330514954 $509 -5.446402115528155 $426 $583 forward 7 unknown #
coedge $-1 $413 $412 $517 $584 reversed $226 $-1 #
edge $-1 $519 -40.841152312310072 $508 -26.965968399536365 $421 $585 forward 7 unknown #
coedge $-1 $429 $426 $413 $506 forward $238 $-1 #
edge $-1 $509 26.965968399536365 $586 40.841152312310072 $505 $587 forward 7 unknown #
coedge $-1 $414 $501 $431 $526 reversed $320 $-1 #
vertex $-1 $504 $588 #
vertex $-1 $506 $589 #
straight-curve $-1 -60.869528755459584 0 12.51237318981798 0 -1 0 I I #
coedge $-1 $524 $422 $417 $512 reversed $518 $-1 #
edge $-1 $513 -34.503420358200721 $424 34.503420358200721 $511 $590 forward 7 unknown #
vertex $-1 $512 $591 #
straight-curve $-1 0 -34.503420358200721 -15.751511107341319 -1 0 0 I I #
face $-1 $-1 $518 $17 $-1 $592 reversed single #
plane-surface $-1 0 0 -15.751511107341319 0 0 1 1 0 0 forward_v I I I I #
coedge $-1 $422 $524 $503 $584 forward $518 $-1 #
loop $-1 $-1 $517 $515 #
vertex $-1 $423 $593 #
straight-curve $-1 -74.744712668233291 34.503420358200721 0 0 0 -1 I I #
point $-1 -74.744712668233291 34.503420358200721 -15.751511107341319 #
vertex $-1 $428 $594 #
straight-curve $-1 0 -34.503420358200721 15.751511107341319 1 0 0 I I #
coedge $-1 $517 $511 $429 $525 reversed $518 $-1 #
edge $-1 $586 -12.51237318981798 $513 15.751511107341319 $524 $595 forward 7 unknown #
edge $-1 $508 5.446402115528155 $527 8.6855400330514954 $431 $596 forward 7 unknown #
vertex $-1 $582 $597 #
straight-curve $-1 0 34.503420358200721 15.751511107341319 -1 0 0 I I #
face $-1 $360 $598 $18 $-1 $599 forward single #
loop $-1 $-1 $600 $437 #
plane-surface $-1 -67.807120711846437 0 12.51237318981798 0 0 1 1 0 0 forward_v I I I I #
coedge $-1 $601 $440 $535 $602 forward $346 $-1 #
coedge $-1 $440 $601 $603 $604 reversed $346 $-1 #
edge $-1 $554 1.3417891591652102 $605 10.053744351839143 $457 $606 forward 7 unknown #
coedge $-1 $442 $441 $532 $602 reversed $249 $-1 #
coedge $-1 $607 $608 $441 $537 forward $551 $-1 #
edge $-1 $609 28.328247935023796 $539 40.387059133814262 $536 $610 forward 7 unknown #
coedge $-1 $443 $453 $607 $611 forward $438 $-1 #
vertex $-1 $444 $612 #
straight-curve $-1 74.744712668233291 0 -7.0395559146673863 0 1 0 I I #
coedge $-1 $445 $613 $614 $615 forward $154 $-1 #
coedge $-1 $616 $617 $445 $543 reversed $598 $-1 #
edge $-1 $618 5.446402115528155 $545 8.6855400330514954 $445 $619 forward 7 unknown #
coedge $-1 $452 $446 $617 $620 forward $263 $-1 #
vertex $-1 $620 $621 #
coedge $-1 $622 $607 $452 $547 reversed $551 $-1 #
edge $-1 $623 -60.869528755459584 $548 74.744712668233291 $546 $624 forward 7 unknown #
vertex $-1 $454 $625 #
straight-curve $-1 74.744712668233291 0 15.751511107341319 0 1 0 I I #
face $-1 $626 $627 $18 $-1 $628 reversed single #
loop $-1 $-1 $536 $455 #
plane-surface $-1 0 -34.503420358200721 0 0 1 0 0 0 1 forward_v I I I I #
coedge $-1 $613 $457 $629 $630 reversed $154 $-1 #
vertex $-1 $458 $631 #
straight-curve $-1 34.357653534419029 34.503420358200721 -7.0395559146673863 -1 0 0 I I #
point $-1 74.744712668233291 34.503420358200721 -7.0395559146673863 #
face $-1 $632 $633 $19 $-1 $634 reversed single #
loop $-1 $-1 $635 $462 #
plane-surface $-1 62.685901469442825 0 -11.395533511004352 1 0 0 0 0 -1 forward_v I I I I #
coedge $-1 $636 $637 $638 $639 reversed $463 $-1 #
coedge $-1 $465 $640 $641 $642 reversed $367 $-1 #
coedge $-1 $641 $474 $466 $563 forward $476 $-1 #
edge $-1 $643 -34.246990482452624 $565 -22.93743196931441 $562 $644 forward 7 unknown #
edge $-1 $643 49.765870165066595 $566 69.006840716401413 $467 $645 forward 7 unknown #
vertex $-1 $642 $646 #
vertex $-1 $470 $647 #
straight-curve $-1 -33.81644855184129 34.503420358200721 71.940312060306852 0 0 -1 I I #
straight-curve $-1 -11.399097030694104 34.503420358200728 0.18523878557986251 1 0 0 I I #
edge $-1 $472 0.38084254024102293 $643 22.417351521147186 $474 $648 forward 7 unknown #
point $-1 -11.779939570935127 23.193861845062507 15.751511107341315 #
coedge $-1 $475 $649 $650 $651 forward $476 $-1 #
face $-1 $652 $476 $19 $-1 $653 forward single #
coedge $-1 $654 $478 $637 $655 forward $367 $-1 #
coedge $-1 $650 $638 $478 $575 reversed $633 $-1 #
edge $-1 $576 -15.751511107341319 $656 7.0395559146673863 $574 $657 forward 7 unknown #
vertex $-1 $651 $658 #
straight-curve $-1 0 34.503420358200721 15.751511107341319 -1 0 0 I I #
point $-1 74.744712668233291 34.503420358200721 -15.751511107341319 #
point $-1 74.744712668233291 -34.503420358200721 -15.751511107341319 #
straight-curve $-1 74.744712668233291 34.503420358200721 0 0 0 -1 I I #
straight-curve $-1 -74.744712668233291 0 -15.751511107341319 0 1 0 I I #
edge $-1 $527 -34.503420358200721 $522 34.503420358200721 $500 $659 forward 7 unknown #
straight-curve $-1 -60.869528755459584 -34.503420358200721 7.0659710742898252 0 0 -1 I I #
edge $-1 $586 -34.503420358200721 $519 34.503420358200721 $517 $660 forward 7 unknown #
straight-curve $-1 -33.903560355923219 34.503420358200721 12.51237318981798 1 0 0 I I #
vertex $-1 $525 $661 #
straight-curve $-1 -33.903560355923219 -34.503420358200721 12.51237318981798 -1 0 0 I I #
point $-1 -60.869528755459584 34.503420358200721 12.51237318981798 #
point $-1 -60.869528755459584 -34.503420358200721 12.51237318981798 #
straight-curve $-1 -74.744712668233291 0 -15.751511107341319 0 1 0 I I #
point $-1 -74.744712668233291 -34.503420358200721 -15.751511107341319 #
plane-surface $-1 -74.744712668233291 0 0 1 0 0 0 0 -1 forward_v I I I I #
point $-1 -74.744712668233291 34.503420358200721 12.51237318981798 #
point $-1 -60.869528755459584 -34.503420358200721 15.751511107341321 #
straight-curve $-1 -74.744712668233291 -34.503420358200721 0 0 0 -1 I I #
straight-curve $-1 -60.869528755459584 34.503420358200721 7.0659710742898252 0 0 1 I I #
point $-1 -60.869528755459584 34.503420358200721 15.751511107341321 #
loop $-1 $-1 $662 $529 #
plane-surface $-1 -60.869528755459584 0 14.13194214857965 -1 0 0 0 0 1 forward_v I I I I #
coedge $-1 $614 $663 $616 $664 reversed $530 $-1 #
coedge $-1 $533 $532 $608 $665 reversed $346 $-1 #
edge $-1 $554 -34.503420358200721 $609 34.503420358200721 $532 $666 forward 7 unknown #
coedge $-1 $667 $629 $533 $604 forward $627 $-1 #
edge $-1 $605 -34.503420358200721 $668 34.503420358200721 $603 $669 forward 7 unknown #
vertex $-1 $534 $670 #
straight-curve $-1 62.685901469442825 34.503420358200721 -5.697766755502176 0 0 -1 I I #
coedge $-1 $546 $536 $538 $611 reversed $551 $-1 #
coedge $-1 $536 $671 $601 $665 forward $551 $-1 #
vertex $-1 $537 $672 #
straight-curve $-1 34.357653534419029 -34.503420358200721 -7.0395559146673863 1 0 0 I I #
edge $-1 $548 -15.751511107341319 $539 7.0395559146673863 $538 $673 forward 7 unknown #
point $-1 74.744712668233291 -34.503420358200721 -7.0395559146673863 #
coedge $-1 $541 $553 $674 $675 reversed $154 $-1 #
coedge $-1 $676 $600 $541 $615 reversed $530 $-1 #
edge $-1 $677 -40.841152312310072 $618 -26.965968399536365 $541 $678 forward 7 unknown #
coedge $-1 $662 $542 $600 $664 forward $598 $-1 #
coedge $-1 $542 $662 $544 $620 reversed $598 $-1 #
vertex $-1 $615 $679 #
straight-curve $-1 -60.869528755459584 34.503420358200721 7.0659710742898252 0 0 1 I I #
edge $-1 $545 -34.503420358200721 $623 34.503420358200721 $544 $680 forward 7 unknown #
point $-1 -60.869528755459584 34.503420358200721 15.751511107341321 #
coedge $-1 $681 $546 $662 $682 forward $551 $-1 #
vertex $-1 $547 $683 #
straight-curve $-1 0 -34.503420358200721 15.751511107341319 1 0 0 I I #
point $-1 74.744712668233291 -34.503420358200721 15.751511107341319 #
face $-1 $-1 $684 $18 $-1 $685 reversed single #
loop $-1 $-1 $603 $550 #
plane-surface $-1 0 0 -15.751511107341319 0 0 1 1 0 0 forward_v I I I I #
coedge $-1 $603 $686 $553 $630 forward $627 $-1 #
edge $-1 $687 -74.744712668233291 $605 62.685901469442825 $553 $688 forward 7 unknown #
point $-1 62.685901469442825 34.503420358200721 -7.0395559146673863 #
face $-1 $689 $690 $19 $-1 $691 forward single #
loop $-1 $-1 $638 $557 #
plane-surface $-1 74.744712668233291 0 0 -1 0 0 0 0 1 forward_v I I I I #
coedge $-1 $692 $693 $654 $694 reversed $558 $-1 #
coedge $-1 $695 $560 $696 $697 reversed $463 $-1 #
coedge $-1 $560 $695 $573 $655 reversed $463 $-1 #
coedge $-1 $574 $698 $560 $639 forward $633 $-1 #
edge $-1 $699 -34.503420358200721 $656 34.503420358200721 $638 $700 forward 7 unknown #
coedge $-1 $561 $701 $702 $703 forward $367 $-1 #
coedge $-1 $704 $562 $561 $642 forward $476 $-1 #
edge $-1 $565 33.81644855184129 $705 60.869528755459584 $561 $577 forward 7 unknown #
vertex $-1 $569 $706 #
straight-curve $-1 -33.81644855184129 57.440852327515131 15.751511107341315 0 1 0 I I #
straight-curve $-1 -33.81644855184129 -6.0577821449031717 56.012946218009816 0 0.5877852410284794 -0.80901700255871778 I I #
point $-1 -33.81644855184129 34.503420358200721 15.751511107341319 #
point $-1 -33.81644855184129 34.503420358200721 0.18523878557986251 #
straight-curve $-1 -11.399097030694104 23.193861845062507 15.751511107341319 -1 0 0 I I #
coedge $-1 $571 $704 $707 $708 forward $476 $-1 #
coedge $-1 $698 $574 $571 $651 reversed $633 $-1 #
edge $-1 $709 -34.503420358200721 $576 34.503420358200721 $650 $710 forward 7 unknown #
face $-1 $711 $712 $19 $-1 $713 reversed single #
plane-surface $-1 0 0 15.751511107341319 0 0 1 1 0 0 forward_v I I I I #
coedge $-1 $714 $573 $635 $694 forward $367 $-1 #
edge $-1 $656 -40.387059133814262 $715 -28.328247935023796 $573 $716 forward 7 unknown #
vertex $-1 $655 $717 #
straight-curve $-1 74.744712668233291 34.503420358200721 0 0 0 -1 I I #
point $-1 74.744712668233291 34.503420358200721 15.751511107341319 #
straight-curve $-1 -60.869528755459584 0 15.751511107341319 0 -1 0 I I #
straight-curve $-1 -74.744712668233291 0 12.51237318981798 0 1 0 I I #
point $-1 -74.744712668233291 -34.503420358200721 12.51237318981798 #
coedge $-1 $617 $616 $622 $682 reversed $598 $-1 #
coedge $-1 $600 $676 $681 $718 reversed $530 $-1 #
edge $-1 $618 -34.503420358200721 $719 34.503420358200721 $616 $720 forward 7 unknown #
edge $-1 $668 -10.053744351839143 $609 -1.3417891591652102 $608 $721 forward 7 unknown #
straight-curve $-1 62.685901469442825 0 -7.0395559146673863 0 -1 0 I I #
coedge $-1 $686 $603 $671 $722 forward $627 $-1 #
vertex $-1 $722 $723 #
straight-curve $-1 62.685901469442825 0 -15.751511107341319 0 -1 0 I I #
point $-1 62.685901469442825 34.503420358200721 -15.751511107341319 #
coedge $-1 $608 $724 $667 $722 reversed $551 $-1 #
point $-1 62.685901469442825 -34.503420358200721 -7.0395559146673863 #
straight-curve $-1 74.744712668233291 -34.503420358200721 0 0 0 -1 I I #
coedge $-1 $725 $726 $613 $675 forward $684 $-1 #
edge $-1 $677 -12.51237318981798 $687 15.751511107341319 $613 $727 forward 7 unknown #
coedge $-1 $663 $614 $726 $728 reversed $530 $-1 #
vertex $-1 $675 $729 #
straight-curve $-1 -33.903560355923219 34.503420358200721 12.51237318981798 1 0 0 I I #
point $-1 -60.869528755459584 34.503420358200721 12.51237318981798 #
straight-curve $-1 -60.869528755459584 0 15.751511107341319 0 -1 0 I I #
coedge $-1 $724 $622 $663 $718 forward $551 $-1 #
edge $-1 $623 -8.6855400330514954 $719 -5.446402115528155 $622 $730 forward 7 unknown #
point $-1 -60.869528755459584 -34.503420358200721 15.751511107341321 #
loop $-1 $-1 $726 $626 #
plane-surface $-1 -74.744712668233291 0 0 1 0 0 0 0 -1 forward_v I I I I #
coedge $-1 $629 $667 $725 $731 forward $627 $-1 #
vertex $-1 $630 $732 #
straight-curve $-1 0 34.503420358200721 -15.751511107341319 1 0 0 I I #
face $-1 $572 $733 $19 $-1 $734 forward single #
loop $-1 $-1 $735 $632 #
plane-surface $-1 -67.807120711846437 0 12.51237318981798 0 0 1 1 0 0 forward_v I I I I #
coedge $-1 $736 $635 $695 $737 forward $558 $-1 #
coedge $-1 $635 $736 $738 $739 reversed $558 $-1 #
edge $-1 $715 1.3417891591652102 $740 10.053744351839143 $654 $741 forward 7 unknown #
coedge $-1 $637 $636 $692 $737 reversed $463 $-1 #
coedge $-1 $742 $743 $636 $697 forward $712 $-1 #
edge $-1 $744 28.328247935023796 $699 40.387059133814262 $696 $745 forward 7 unknown #
coedge $-1 $638 $650 $742 $746 forward $633 $-1 #
vertex $-1 $639 $747 #
straight-curve $-1 74.744712668233291 0 -7.0395559146673863 0 1 0 I I #
coedge $-1 $640 $748 $749 $750 forward $367 $-1 #
coedge $-1 $751 $752 $640 $703 reversed $733 $-1 #
edge $-1 $753 5.446402115528155 $705 8.6855400330514954 $640 $754 forward 7 unknown #
coedge $-1 $649 $641 $752 $755 forward $476 $-1 #
vertex $-1 $755 $756 #
point $-1 -33.81644855184129 23.193861845062507 15.751511107341315 #
coedge $-1 $757 $742 $649 $708 reversed $712 $-1 #
edge $-1 $758 -60.869528755459584 $709 74.744712668233291 $707 $759 forward 7 unknown #
vertex $-1 $651 $760 #
straight-curve $-1 74.744712668233291 0 15.751511107341319 0 1 0 I I #
face $-1 $761 $762 $19 $-1 $763 reversed single #
loop $-1 $-1 $696 $652 #
plane-surface $-1 0 -34.503420358200721 0 0 1 0 0 0 1 forward_v I I I I #
coedge $-1 $748 $654 $764 $765 reversed $367 $-1 #
vertex $-1 $655 $766 #
straight-curve $-1 34.357653534419029 34.503420358200721 -7.0395559146673863 -1 0 0 I I #
point $-1 74.744712668233291 34.503420358200721 -7.0395559146673863 #
edge $-1 $719 26.965968399536365 $767 40.841152312310072 $681 $768 forward 7 unknown #
vertex $-1 $718 $769 #
straight-curve $-1 -60.869528755459584 0 12.51237318981798 0 -1 0 I I #
straight-curve $-1 62.685901469442825 -34.503420358200721 -5.697766755502176 0 0 1 I I #
edge $-1 $668 -62.685901469442825 $770 74.744712668233291 $671 $771 forward 7 unknown #
point $-1 62.685901469442825 -34.503420358200721 -15.751511107341319 #
coedge $-1 $671 $681 $772 $773 forward $551 $-1 #
coedge $-1 $772 $674 $686 $731 reversed $684 $-1 #
coedge $-1 $674 $772 $676 $728 forward $684 $-1 #
straight-curve $-1 -74.744712668233291 34.503420358200721 0 0 0 -1 I I #
edge $-1 $767 -34.503420358200721 $677 34.503420358200721 $726 $774 forward 7 unknown #
point $-1 -74.744712668233291 34.503420358200721 12.51237318981798 #
straight-curve $-1 -60.869528755459584 -34.503420358200721 7.0659710742898252 0 0 -1 I I #
edge $-1 $770 -34.503420358200721 $687 34.503420358200721 $725 $775 forward 7 unknown #
point $-1 -74.744712668233291 34.503420358200721 -15.751511107341319 #
loop $-1 $-1 $776 $689 #
plane-surface $-1 -60.869528755459584 0 14.13194214857965 -1 0 0 0 0 1 forward_v I I I I #
coedge $-1 $749 $777 $751 $778 reversed $690 $-1 #
coedge $-1 $693 $692 $743 $779 reversed $558 $-1 #
edge $-1 $715 -34.503420358200721 $744 34.503420358200721 $692 $780 forward 7 unknown #
coedge $-1 $781 $764 $693 $739 forward $762 $-1 #
edge $-1 $740 -34.503420358200721 $782 34.503420358200721 $738 $783 forward 7 unknown #
vertex $-1 $694 $784 #
straight-curve $-1 62.685901469442825 34.503420358200721 -5.697766755502176 0 0 -1 I I #
coedge $-1 $707 $696 $698 $746 reversed $712 $-1 #
coedge $-1 $696 $785 $736 $779 forward $712 $-1 #
vertex $-1 $697 $786 #
straight-curve $-1 34.357653534419029 -34.503420358200721 -7.0395559146673863 1 0 0 I I #
edge $-1 $709 -15.751511107341319 $699 7.0395559146673863 $698 $787 forward 7 unknown #
point $-1 74.744712668233291 -34.503420358200721 -7.0395559146673863 #
coedge $-1 $701 $714 $788 $789 reversed $367 $-1 #
coedge $-1 $790 $735 $701 $750 reversed $690 $-1 #
edge $-1 $791 -40.841152312310072 $753 -26.965968399536365 $701 $792 forward 7 unknown #
coedge $-1 $776 $702 $735 $778 forward $733 $-1 #
coedge $-1 $702 $776 $704 $755 reversed $733 $-1 #
vertex $-1 $750 $793 #
straight-curve $-1 -60.869528755459584 34.503420358200721 7.0659710742898252 0 0 1 I I #
edge $-1 $705 -34.503420358200721 $758 34.503420358200721 $704 $794 forward 7 unknown #
point $-1 -60.869528755459584 34.503420358200721 15.751511107341321 #
coedge $-1 $795 $707 $776 $796 forward $712 $-1 #
vertex $-1 $708 $797 #
straight-curve $-1 0 -34.503420358200721 15.751511107341319 1 0 0 I I #
point $-1 74.744712668233291 -34.503420358200721 15.751511107341319 #
face $-1 $-1 $798 $19 $-1 $799 reversed single #
loop $-1 $-1 $738 $711 #
plane-surface $-1 0 0 -15.751511107341319 0 0 1 1 0 0 forward_v I I I I #
coedge $-1 $738 $800 $714 $765 forward $762 $-1 #
edge $-1 $801 -74.744712668233291 $740 62.685901469442825 $714 $802 forward 7 unknown #
point $-1 62.685901469442825 34.503420358200721 -7.0395559146673863 #
vertex $-1 $773 $803 #
straight-curve $-1 -33.903560355923219 -34.503420358200721 12.51237318981798 -1 0 0 I I #
point $-1 -60.869528755459584 -34.503420358200721 12.51237318981798 #
vertex $-1 $731 $804 #
straight-curve $-1 0 -34.503420358200721 -15.751511107341319 -1 0 0 I I #
coedge $-1 $726 $725 $724 $773 reversed $684 $-1 #
edge $-1 $767 -12.51237318981798 $770 15.751511107341319 $772 $805 forward 7 unknown #
straight-curve $-1 -74.744712668233291 0 12.51237318981798 0 1 0 I I #
straight-curve $-1 -74.744712668233291 0 -15.751511107341319 0 1 0 I I #
coedge $-1 $752 $751 $757 $796 reversed $733 $-1 #
coedge $-1 $735 $790 $795 $806 reversed $690 $-1 #
edge $-1 $753 -34.503420358200721 $807 34.503420358200721 $751 $808 forward 7 unknown #
edge $-1 $782 -10.053744351839143 $744 -1.3417891591652102 $743 $809 forward 7 unknown #
straight-curve $-1 62.685901469442825 0 -7.0395559146673863 0 -1 0 I I #
coedge $-1 $800 $738 $785 $810 forward $762 $-1 #
vertex $-1 $810 $811 #
straight-curve $-1 62.685901469442825 0 -15.751511107341319 0 -1 0 I I #
point $-1 62.685901469442825 34.503420358200721 -15.751511107341319 #
coedge $-1 $743 $812 $781 $810 reversed $712 $-1 #
point $-1 62.685901469442825 -34.503420358200721 -7.0395559146673863 #
straight-curve $-1 74.744712668233291 -34.503420358200721 0 0 0 -1 I I #
coedge $-1 $813 $814 $748 $789 forward $798 $-1 #
edge $-1 $791 -12.51237318981798 $801 15.751511107341319 $748 $815 forward 7 unknown #
coedge $-1 $777 $749 $814 $816 reversed $690 $-1 #
vertex $-1 $789 $817 #
straight-curve $-1 -33.903560355923219 34.503420358200721 12.51237318981798 1 0 0 I I #
point $-1 -60.869528755459584 34.503420358200721 12.51237318981798 #
straight-curve $-1 -60.869528755459584 0 15.751511107341319 0 -1 0 I I #
coedge $-1 $812 $757 $777 $806 forward $712 $-1 #
edge $-1 $758 -8.6855400330514954 $807 -5.446402115528155 $757 $818 forward 7 unknown #
point $-1 -60.869528755459584 -34.503420358200721 15.751511107341321 #
loop $-1 $-1 $814 $761 #
plane-surface $-1 -74.744712668233291 0 0 1 0 0 0 0 -1 forward_v I I I I #
coedge $-1 $764 $781 $813 $819 forward $762 $-1 #
vertex $-1 $765 $820 #
straight-curve $-1 0 34.503420358200721 -15.751511107341319 1 0 0 I I #
point $-1 -74.744712668233291 -34.503420358200721 12.51237318981798 #
point $-1 -74.744712668233291 -34.503420358200721 -15.751511107341319 #
straight-curve $-1 -74.744712668233291 -34.503420358200721 0 0 0 -1 I I #
edge $-1 $807 26.965968399536365 $821 40.841152312310072 $795 $822 forward 7 unknown #
vertex $-1 $806 $823 #
straight-curve $-1 -60.869528755459584 0 12.51237318981798 0 -1 0 I I #
straight-curve $-1 62.685901469442825 -34.503420358200721 -5.697766755502176 0 0 1 I I #
edge $-1 $782 -62.685901469442825 $824 74.744712668233291 $785 $825 forward 7 unknown #
point $-1 62.685901469442825 -34.503420358200721 -15.751511107341319 #
coedge $-1 $785 $795 $826 $827 forward $712 $-1 #
coedge $-1 $826 $788 $800 $819 reversed $798 $-1 #
coedge $-1 $788 $826 $790 $816 forward $798 $-1 #
straight-curve $-1 -74.744712668233291 34.503420358200721 0 0 0 -1 I I #
edge $-1 $821 -34.503420358200721 $791 34.503420358200721 $814 $828 forward 7 unknown #
point $-1 -74.744712668233291 34.503420358200721 12.51237318981798 #
straight-curve $-1 -60.869528755459584 -34.503420358200721 7.0659710742898252 0 0 -1 I I #
edge $-1 $824 -34.503420358200721 $801 34.503420358200721 $813 $829 forward 7 unknown #
point $-1 -74.744712668233291 34.503420358200721 -15.751511107341319 #
vertex $-1 $827 $830 #
straight-curve $-1 -33.903560355923219 -34.503420358200721 12.51237318981798 -1 0 0 I I #
point $-1 -60.869528755459584 -34.503420358200721 12.51237318981798 #
vertex $-1 $819 $831 #
straight-curve $-1 0 -34.503420358200721 -15.751511107341319 -1 0 0 I I #
coedge $-1 $814 $813 $812 $827 reversed $798 $-1 #
edge $-1 $821 -12.51237318981798 $824 15.751511107341319 $826 $832 forward 7 unknown #
straight-curve $-1 -74.744712668233291 0 12.51237318981798 0 1 0 I I #
straight-curve $-1 -74.744712668233291 0 -15.751511107341319 0 1 0 I I #
point $-1 -74.744712668233291 -34.503420358200721 12.51237318981798 #
point $-1 -74.744712668233291 -34.503420358200721 -15.751511107341319 #
straight-curve $-1 -74.744712668233291 -34.503420358200721 0 0 0 -1 I I #
End-of-ACIS-data 