500 0 11 0           
7 Unknown 11 ACIS 5.0 NT 24 Fri Mar 26 19:23:11 1999 
-1 9.9999999999999995e-007 1e-010 
body $-1 $11 $-1 $12 #
body $-1 $13 $-1 $14 #
body $-1 $15 $-1 $16 #
body $-1 $17 $-1 $18 #
body $-1 $19 $-1 $20 #
body $-1 $21 $-1 $22 #
body $-1 $23 $-1 $24 #
body $-1 $25 $-1 $26 #
body $-1 $27 $-1 $28 #
body $-1 $29 $-1 $30 #
body $-1 $31 $-1 $32 #
lump $-1 $-1 $33 $0 #
transform $-1 1 0 0 0 1 0 0 0 1 78.205511642811359 37.407710368092147 13.71140368678652 1 rotate no_reflect no_shear #
lump $-1 $-1 $34 $1 #
transform $-1 1 0 0 0 1 0 0 0 1 78.205511642811359 37.407710368092147 13.71140368678652 1 rotate no_reflect no_shear #
lump $-1 $-1 $35 $2 #
transform $-1 1 0 0 0 1 0 0 0 1 78.205511642811359 37.407710368092147 13.71140368678652 1 rotate no_reflect no_shear #
lump $-1 $-1 $36 $3 #
transform $-1 1 0 0 0 1 0 0 0 1 78.205511642811359 37.407710368092147 13.71140368678652 1 rotate no_reflect no_shear #
lump $-1 $-1 $37 $4 #
transform $-1 1 0 0 0 1 0 0 0 1 78.205511642811359 37.407710368092147 13.71140368678652 1 rotate no_reflect no_shear #
lump $-1 $-1 $38 $5 #
transform $-1 1 0 0 0 1 0 0 0 1 78.205511642811359 37.407710368092147 13.71140368678652 1 rotate no_reflect no_shear #
lump $-1 $-1 $39 $6 #
transform $-1 1 0 0 0 1 0 0 0 1 78.205511642811359 37.407710368092147 13.71140368678652 1 rotate no_reflect no_shear #
lump $-1 $-1 $40 $7 #
transform $-1 1 0 0 0 1 0 0 0 1 78.205511642811359 37.407710368092147 13.71140368678652 1 rotate no_reflect no_shear #
lump $-1 $-1 $41 $8 #
transform $-1 1 0 0 0 1 0 0 0 1 78.205511642811359 37.407710368092147 13.71140368678652 1 rotate no_reflect no_shear #
lump $-1 $-1 $42 $9 #
transform $-1 1 0 0 0 1 0 0 0 1 78.205511642811359 37.407710368092147 13.71140368678652 1 rotate no_reflect no_shear #
lump $-1 $-1 $43 $10 #
transform $-1 1 0 0 0 1 0 0 0 1 78.205511642811359 37.407710368092147 13.71140368678652 1 rotate no_reflect no_shear #
shell $-1 $-1 $-1 $44 $-1 $11 #
shell $-1 $-1 $-1 $45 $-1 $13 #
shell $-1 $-1 $-1 $46 $-1 $15 #
shell $-1 $-1 $-1 $47 $-1 $17 #
shell $-1 $-1 $-1 $48 $-1 $19 #
shell $-1 $-1 $-1 $49 $-1 $21 #
shell $-1 $-1 $-1 $50 $-1 $23 #
shell $-1 $-1 $-1 $51 $-1 $25 #
shell $-1 $-1 $-1 $52 $-1 $27 #
shell $-1 $-1 $-1 $53 $-1 $29 #
shell $-1 $-1 $-1 $54 $-1 $31 #
face $-1 $55 $56 $33 $-1 $57 forward single #
face $-1 $58 $59 $34 $-1 $60 reversed single #
face $-1 $61 $62 $35 $-1 $63 reversed single #
face $-1 $64 $65 $36 $-1 $66 forward single #
face $-1 $67 $68 $37 $-1 $69 forward single #
face $-1 $70 $71 $38 $-1 $72 reversed single #
face $-1 $73 $74 $39 $-1 $75 forward single #
face $-1 $76 $77 $40 $-1 $78 forward single #
face $-1 $79 $80 $41 $-1 $81 reversed single #
face $-1 $82 $83 $42 $-1 $84 forward single #
face $-1 $85 $86 $43 $-1 $87 forward single #
face $-1 $88 $89 $33 $-1 $90 reversed single #
loop $-1 $-1 $91 $44 #
plane-surface $-1 0 0 13.71140368678652 0 0 1 1 0 0 forward_v I I I I #
face $-1 $92 $93 $34 $-1 $94 reversed single #
loop $-1 $-1 $95 $45 #
plane-surface $-1 0 -29.479743029192953 8.5253655858978181 0 0 1 1 0 0 forward_v I I I I #
face $-1 $96 $97 $35 $-1 $98 reversed single #
loop $-1 $-1 $99 $46 #
plane-surface $-1 -196.25041066534277 -12.116606414591773 111.53127990823147 0 1 0 -0.75470958851134928 0 0.65605901945558964 forward_v I I I I #
face $-1 $100 $101 $36 $-1 $102 forward single #
loop $-1 $103 $104 $47 #
cone-surface $-1 -75.280781445843019 -8.3249253317580738 10.583169644758165 0.75470958851134928 0 -0.65605901945558964 0.65605901945558964 0 0.75470958851134928 1 I I 0 1 1 forward I I I I #
face $-1 $105 $106 $37 $-1 $107 forward single #
loop $-1 $108 $109 $48 #
cone-surface $-1 -75.280781445843019 -2.6374037075075236 10.583169644758165 0.75470958851134928 0 -0.65605901945558964 0.65605901945558964 0 0.75470958851134928 1 I I 0 1 1 forward I I I I #
face $-1 $110 $111 $38 $-1 $112 reversed single #
loop $-1 $-1 $113 $49 #
plane-surface $-1 32.215740539876379 7.9279673388992009 225.43656388618408 0 -1 0 -0.54463904215088732 0 -0.83867056331134215 forward_v I I I I #
face $-1 $114 $115 $39 $-1 $116 forward single #
loop $-1 $117 $118 $50 #
cone-surface $-1 74.300184670595669 2.6694584742852072 10.878676211152705 -0.54463904215088732 0 -0.83867056331134215 0.41933528165567108 0 -0.27231952107544366 1 I I 0 1 0.5 forward I I I I #
face $-1 $119 $120 $40 $-1 $121 forward single #
loop $-1 $122 $123 $51 #
cone-surface $-1 74.300184670595669 5.8245637930536063 10.878676211152705 -0.54463904215088732 0 -0.83867056331134215 0.41933528165567108 0 -0.27231952107544366 1 I I 0 1 0.5 forward I I I I #
face $-1 $124 $125 $41 $-1 $126 reversed single #
loop $-1 $-1 $127 $52 #
plane-surface $-1 -52.971809364245317 33.726754162862356 94.259242879127413 0.54463904215088732 0 0.83867056331134215 0.83867056331134215 0 -0.54463904215088732 forward_v I I I I #
face $-1 $128 $129 $42 $-1 $130 forward single #
loop $-1 $131 $132 $53 #
cone-surface $-1 74.300184670595669 32.14920150347816 10.878676211152705 -0.54463904215088732 0 -0.83867056331134215 0.41933528165567108 0 -0.27231952107544366 1 I I 0 1 0.5 forward I I I I #
face $-1 $133 $134 $43 $-1 $135 forward single #
loop $-1 $136 $137 $54 #
cone-surface $-1 74.300184670595669 35.304306822246566 10.878676211152705 -0.54463904215088732 0 -0.83867056331134215 0.41933528165567108 0 -0.27231952107544366 1 I I 0 1 0.5 forward I I I I #
face $-1 $138 $139 $33 $-1 $140 reversed single #
loop $-1 $-1 $141 $55 #
plane-surface $-1 0 0 -13.71140368678652 0 0 1 1 0 0 forward_v I I I I #
coedge $-1 $142 $143 $144 $145 forward $56 $-1 #
face $-1 $146 $147 $34 $-1 $148 reversed single #
loop $-1 $-1 $149 $58 #
plane-surface $-1 0 -21.551775690293759 11.118384636342169 0 -1 0 0 0 -1 forward_v I I I I #
coedge $-1 $150 $151 $152 $153 reversed $59 $-1 #
face $-1 $154 $155 $35 $-1 $156 reversed single #
loop $-1 $-1 $157 $61 #
plane-surface $-1 -78.205511642811373 -5.4811645196327987 8.916417339420434 -0.75470958851134928 0 0.65605901945558964 0.65605901945558964 0 0.75470958851134928 forward_v I I I I #
coedge $-1 $158 $159 $160 $161 reversed $62 $-1 #
face $-1 $-1 $162 $36 $-1 $163 forward single #
loop $-1 $164 $165 $64 #
cone-surface $-1 -74.062805421328278 -8.3249253317580738 9.5243992666850641 0.75470958851134928 0 -0.65605901945558964 0.32802950972779482 0 0.37735479425567464 1 I I -0.70710678118654746 0.70710678118654746 0.5 forward I I I I #
loop $-1 $-1 $166 $47 #
coedge $-1 $104 $104 $167 $168 reversed $65 $-1 #
face $-1 $-1 $169 $37 $-1 $170 forward single #
loop $-1 $171 $172 $67 #
cone-surface $-1 -74.062805421328278 -2.6374037075075236 9.5243992666850641 0.75470958851134928 0 -0.65605901945558964 0.32802950972779482 0 0.37735479425567464 1 I I -0.70710678118654746 0.70710678118654746 0.5 forward I I I I #
loop $-1 $-1 $173 $48 #
coedge $-1 $109 $109 $174 $175 reversed $68 $-1 #
face $-1 $176 $177 $38 $-1 $178 reversed single #
loop $-1 $-1 $179 $70 #
plane-surface $-1 -52.971809364245317 4.2470111336694032 94.259242879127413 0.54463904215088732 0 0.83867056331134215 0.83867056331134215 0 -0.54463904215088732 forward_v I I I I #
coedge $-1 $180 $181 $182 $183 reversed $71 $-1 #
face $-1 $-1 $184 $39 $-1 $185 forward single #
loop $-1 $186 $187 $73 #
cone-surface $-1 73.830961854953131 2.6694584742852072 10.156136450581448 -0.54463904215088732 0 -0.83867056331134215 0.20966764082783554 0 -0.13615976053772183 1 I I -0.70710678118654746 0.70710678118654746 0.25 forward I I I I #
loop $-1 $-1 $188 $50 #
coedge $-1 $118 $118 $189 $190 reversed $74 $-1 #
face $-1 $-1 $191 $40 $-1 $192 forward single #
loop $-1 $193 $194 $76 #
cone-surface $-1 73.830961854953131 5.8245637930536063 10.156136450581448 -0.54463904215088732 0 -0.83867056331134215 0.20966764082783554 0 -0.13615976053772183 1 I I -0.70710678118654746 0.70710678118654746 0.25 forward I I I I #
loop $-1 $-1 $195 $51 #
coedge $-1 $123 $123 $196 $197 reversed $77 $-1 #
face $-1 $198 $199 $41 $-1 $200 reversed single #
loop $-1 $-1 $201 $79 #
plane-surface $-1 32.215740539876379 30.045797957632558 225.43656388618408 0 1 0 0.54463904215088732 0 0.83867056331134215 forward_v I I I I #
coedge $-1 $202 $203 $204 $205 reversed $80 $-1 #
face $-1 $-1 $206 $42 $-1 $207 forward single #
loop $-1 $208 $209 $82 #
cone-surface $-1 73.830961854953131 32.14920150347816 10.156136450581448 -0.54463904215088732 0 -0.83867056331134215 0.20966764082783554 0 -0.13615976053772183 1 I I -0.70710678118654746 0.70710678118654746 0.25 forward I I I I #
loop $-1 $-1 $210 $53 #
coedge $-1 $132 $132 $211 $212 reversed $83 $-1 #
face $-1 $-1 $213 $43 $-1 $214 forward single #
loop $-1 $215 $216 $85 #
cone-surface $-1 73.830961854953131 35.304306822246566 10.156136450581448 -0.54463904215088732 0 -0.83867056331134215 0.20966764082783554 0 -0.13615976053772183 1 I I -0.70710678118654746 0.70710678118654746 0.25 forward I I I I #
loop $-1 $-1 $217 $54 #
coedge $-1 $137 $137 $218 $219 reversed $86 $-1 #
face $-1 $220 $221 $33 $-1 $222 reversed single #
loop $-1 $-1 $223 $88 #
plane-surface $-1 0 -37.407710368092147 0 0 1 0 0 0 1 forward_v I I I I #
coedge $-1 $224 $225 $226 $227 forward $89 $-1 #
coedge $-1 $228 $91 $229 $230 forward $56 $-1 #
coedge $-1 $91 $228 $231 $232 forward $56 $-1 #
coedge $-1 $233 $234 $91 $145 reversed $235 $-1 #
edge $-1 $236 -37.407710368092147 $237 37.407710368092147 $144 $238 forward 7 unknown #
face $-1 $239 $240 $34 $-1 $241 reversed single #
loop $-1 $-1 $242 $92 #
plane-surface $-1 -78.205511642811359 0 0 1 0 0 0 0 -1 forward_v I I I I #
coedge $-1 $243 $244 $245 $246 reversed $93 $-1 #
coedge $-1 $247 $95 $248 $249 reversed $59 $-1 #
coedge $-1 $95 $247 $243 $250 forward $59 $-1 #
coedge $-1 $245 $251 $95 $153 forward $252 $-1 #
edge $-1 $253 -22.66783885349567 $254 -6.8119041756972827 $152 $255 forward 7 unknown #
face $-1 $256 $257 $35 $-1 $258 forward single #
loop $-1 $-1 $259 $96 #
plane-surface $-1 -196.25041066534277 1.1542773753261759 111.53127990823147 0 -1 0 0.75470958851134928 0 -0.65605901945558964 forward_v I I I I #
coedge $-1 $260 $261 $262 $263 reversed $97 $-1 #
coedge $-1 $159 $99 $264 $265 reversed $62 $-1 #
coedge $-1 $99 $158 $260 $266 reversed $62 $-1 #
coedge $-1 $262 $267 $99 $161 forward $257 $-1 #
edge $-1 $268 19.919693689860026 $269 24.087911623278558 $160 $270 forward 7 unknown #
loop $-1 $-1 $167 $100 #
plane-surface $-1 -78.205511642811373 -5.4811645196327987 8.916417339420434 -0.75470958851134928 0 0.65605901945558964 0.65605901945558964 0 0.75470958851134928 forward_v I I I I #
loop $-1 $-1 $271 $64 #
coedge $-1 $165 $165 $166 $272 reversed $101 $-1 #
coedge $-1 $166 $166 $165 $272 forward $103 $-1 #
coedge $-1 $167 $167 $104 $168 forward $162 $-1 #
edge $-1 $273 0 $273 6.2831853071796004 $167 $274 forward 7 unknown #
loop $-1 $-1 $174 $105 #
plane-surface $-1 -78.205511642811373 -5.4811645196327987 8.916417339420434 -0.75470958851134928 0 0.65605901945558964 0.65605901945558964 0 0.75470958851134928 forward_v I I I I #
loop $-1 $-1 $275 $67 #
coedge $-1 $172 $172 $173 $276 reversed $106 $-1 #
coedge $-1 $173 $173 $172 $276 forward $108 $-1 #
coedge $-1 $174 $174 $109 $175 forward $169 $-1 #
edge $-1 $277 0 $277 6.2831853071796004 $174 $278 forward 7 unknown #
face $-1 $279 $280 $38 $-1 $281 reversed single #
loop $-1 $-1 $282 $110 #
plane-surface $-1 32.215740539876379 0.56605492843960548 225.43656388618408 0 1 0 0.54463904215088732 0 0.83867056331134215 forward_v I I I I #
coedge $-1 $283 $284 $285 $286 reversed $111 $-1 #
coedge $-1 $181 $113 $287 $288 reversed $71 $-1 #
coedge $-1 $113 $180 $283 $289 reversed $71 $-1 #
coedge $-1 $285 $290 $113 $183 forward $291 $-1 #
edge $-1 $292 -62.09764137287317 $293 -54.953113538651422 $182 $294 forward 7 unknown #
loop $-1 $-1 $189 $114 #
plane-surface $-1 -52.971809364245317 4.2470111336694032 94.259242879127413 0.54463904215088732 0 0.83867056331134215 0.83867056331134215 0 -0.54463904215088732 forward_v I I I I #
loop $-1 $-1 $295 $73 #
coedge $-1 $187 $187 $188 $296 reversed $115 $-1 #
coedge $-1 $188 $188 $187 $296 forward $117 $-1 #
coedge $-1 $189 $189 $118 $190 forward $184 $-1 #
edge $-1 $297 0 $297 6.2831853071796004 $189 $298 forward 7 unknown #
loop $-1 $-1 $196 $119 #
plane-surface $-1 -52.971809364245317 4.2470111336694032 94.259242879127413 0.54463904215088732 0 0.83867056331134215 0.83867056331134215 0 -0.54463904215088732 forward_v I I I I #
loop $-1 $-1 $299 $76 #
coedge $-1 $194 $194 $195 $300 reversed $120 $-1 #
coedge $-1 $195 $195 $194 $300 forward $122 $-1 #
coedge $-1 $196 $196 $123 $197 forward $191 $-1 #
edge $-1 $301 0 $301 6.2831853071796004 $196 $302 forward 7 unknown #
face $-1 $303 $304 $41 $-1 $305 forward single #
loop $-1 $-1 $306 $124 #
plane-surface $-1 78.205511642811359 0 0 -1 0 0 0 0 1 forward_v I I I I #
coedge $-1 $307 $308 $309 $310 reversed $125 $-1 #
coedge $-1 $311 $127 $312 $313 reversed $80 $-1 #
coedge $-1 $127 $311 $307 $314 forward $80 $-1 #
coedge $-1 $309 $315 $127 $205 forward $304 $-1 #
edge $-1 $316 -20.544333286660976 $317 -13.18242087620138 $204 $318 forward 7 unknown #
loop $-1 $-1 $211 $128 #
plane-surface $-1 -52.971809364245317 33.726754162862356 94.259242879127413 0.54463904215088732 0 0.83867056331134215 0.83867056331134215 0 -0.54463904215088732 forward_v I I I I #
loop $-1 $-1 $319 $82 #
coedge $-1 $209 $209 $210 $320 reversed $129 $-1 #
coedge $-1 $210 $210 $209 $320 forward $131 $-1 #
coedge $-1 $211 $211 $132 $212 forward $206 $-1 #
edge $-1 $321 0 $321 6.2831853071796004 $211 $322 forward 7 unknown #
loop $-1 $-1 $218 $133 #
plane-surface $-1 -52.971809364245317 33.726754162862356 94.259242879127413 0.54463904215088732 0 0.83867056331134215 0.83867056331134215 0 -0.54463904215088732 forward_v I I I I #
loop $-1 $-1 $323 $85 #
coedge $-1 $216 $216 $217 $324 reversed $134 $-1 #
coedge $-1 $217 $217 $216 $324 forward $136 $-1 #
coedge $-1 $218 $218 $137 $219 forward $213 $-1 #
edge $-1 $325 0 $325 6.2831853071796004 $218 $326 forward 7 unknown #
face $-1 $327 $328 $33 $-1 $329 reversed single #
loop $-1 $-1 $330 $138 #
plane-surface $-1 -78.205511642811359 0 0 1 0 0 0 0 -1 forward_v I I I I #
coedge $-1 $331 $231 $332 $333 forward $139 $-1 #
coedge $-1 $334 $141 $331 $335 forward $89 $-1 #
coedge $-1 $141 $334 $336 $337 forward $89 $-1 #
coedge $-1 $234 $233 $141 $227 reversed $235 $-1 #
edge $-1 $338 -37.407710368092147 $339 37.407710368092147 $226 $340 forward 7 unknown #
coedge $-1 $143 $142 $341 $342 forward $56 $-1 #
coedge $-1 $343 $344 $142 $230 reversed $328 $-1 #
edge $-1 $237 -78.205511642811359 $345 78.205511642811359 $229 $346 forward 7 unknown #
coedge $-1 $223 $347 $143 $232 reversed $139 $-1 #
edge $-1 $348 -78.205511642811359 $236 78.205511642811359 $231 $349 forward 7 unknown #
coedge $-1 $226 $144 $347 $350 forward $235 $-1 #
coedge $-1 $144 $226 $343 $351 reversed $235 $-1 #
loop $-1 $-1 $233 $327 #
vertex $-1 $145 $352 #
vertex $-1 $145 $353 #
straight-curve $-1 78.205511642811359 0 13.71140368678652 0 1 0 I I #
face $-1 $354 $355 $34 $-1 $356 forward single #
loop $-1 $-1 $248 $146 #
plane-surface $-1 0 -37.407710368092147 0 0 1 0 0 0 1 forward_v I I I I #
coedge $-1 $357 $358 $359 $360 forward $147 $-1 #
coedge $-1 $359 $149 $151 $250 reversed $93 $-1 #
coedge $-1 $149 $359 $361 $362 reversed $93 $-1 #
coedge $-1 $363 $152 $149 $246 forward $252 $-1 #
edge $-1 $254 2.9661732677267336 $364 8.1522113686154363 $245 $365 forward 7 unknown #
coedge $-1 $151 $150 $357 $366 reversed $59 $-1 #
coedge $-1 $367 $368 $150 $249 forward $240 $-1 #
edge $-1 $369 -78.205511642811359 $253 78.205511642811359 $248 $370 forward 7 unknown #
edge $-1 $371 -78.205511642811359 $254 78.205511642811359 $243 $372 forward 7 unknown #
coedge $-1 $152 $363 $367 $373 forward $252 $-1 #
loop $-1 $-1 $245 $354 #
vertex $-1 $249 $374 #
vertex $-1 $153 $375 #
straight-curve $-1 78.205511642811359 -14.739871514596476 8.5253655858978181 0 1 0 I I #
face $-1 $-1 $376 $35 $-1 $377 reversed single #
loop $-1 $-1 $160 $154 #
plane-surface $-1 0 0 13.71140368678652 0 0 1 1 0 0 forward_v I I I I #
coedge $-1 $378 $379 $380 $381 reversed $155 $-1 #
coedge $-1 $382 $157 $159 $266 forward $97 $-1 #
coedge $-1 $157 $382 $378 $383 forward $97 $-1 #
coedge $-1 $380 $160 $157 $263 forward $257 $-1 #
edge $-1 $269 -9.376024154775374 $384 3.8948596351425753 $262 $385 forward 7 unknown #
coedge $-1 $386 $387 $158 $265 forward $376 $-1 #
edge $-1 $388 -46.849222614695286 $268 -42.054236267329216 $264 $389 forward 7 unknown #
edge $-1 $269 -6.3534191434139737 $388 -2.1388861263899031e-014 $159 $390 forward 7 unknown #
coedge $-1 $160 $380 $386 $391 forward $257 $-1 #
vertex $-1 $265 $392 #
vertex $-1 $161 $393 #
straight-curve $-1 -98.125205332671385 -12.116606414591773 13.711403686786518 1 0 0 I I #
coedge $-1 $271 $271 $-1 $394 reversed $164 $-1 #
edge $-1 $395 0 $395 6.2831853071796004 $165 $396 forward 7 unknown #
vertex $-1 $168 $397 #
ellipse-curve $-1 -76.121402676102093 -8.3249253317580738 11.313910513103485 -0.75470958851134928 0 0.65605901945558964 0.65605901945558964 0 0.75470958851134928 1 I I #
coedge $-1 $275 $275 $-1 $398 reversed $171 $-1 #
edge $-1 $399 0 $399 6.2831853071796004 $172 $400 forward 7 unknown #
vertex $-1 $175 $401 #
ellipse-curve $-1 -76.121402676102093 -2.6374037075075236 11.313910513103485 -0.75470958851134928 0 0.65605901945558964 0.65605901945558964 0 0.75470958851134928 1 I I #
face $-1 $-1 $291 $38 $-1 $402 forward single #
loop $-1 $-1 $403 $176 #
plane-surface $-1 78.205511642811359 0 0 -1 0 0 0 0 1 forward_v I I I I #
coedge $-1 $404 $405 $406 $407 reversed $177 $-1 #
coedge $-1 $408 $179 $181 $289 forward $111 $-1 #
coedge $-1 $179 $408 $404 $409 forward $111 $-1 #
coedge $-1 $406 $182 $179 $286 forward $291 $-1 #
edge $-1 $293 -5.8044617720644993 $410 1.5574506383950961 $285 $411 forward 7 unknown #
coedge $-1 $412 $413 $180 $288 forward $280 $-1 #
edge $-1 $414 -103.64658896808632 $292 -99.006878256305512 $287 $415 forward 7 unknown #
edge $-1 $293 147.89215050438091 $414 156.41102328562272 $181 $416 forward 7 unknown #
coedge $-1 $182 $406 $412 $417 forward $291 $-1 #
loop $-1 $-1 $406 $279 #
vertex $-1 $288 $418 #
vertex $-1 $183 $419 #
straight-curve $-1 16.107870269938189 7.9279673388992009 13.711403686786525 -1 0 0 I I #
coedge $-1 $295 $295 $-1 $420 reversed $186 $-1 #
edge $-1 $421 0 $421 6.2831853071796004 $187 $422 forward 7 unknown #
vertex $-1 $190 $423 #
ellipse-curve $-1 74.633247725700485 2.6694584742852072 11.391548330896123 0.54463904215088732 0 0.83867056331134215 0.41933528165567108 0 -0.27231952107544366 1 I I #
coedge $-1 $299 $299 $-1 $424 reversed $193 $-1 #
edge $-1 $425 0 $425 6.2831853071796004 $194 $426 forward 7 unknown #
vertex $-1 $197 $427 #
ellipse-curve $-1 74.633247725700485 5.8245637930536063 11.391548330896123 0.54463904215088732 0 0.83867056331134215 0.41933528165567108 0 -0.27231952107544366 1 I I #
face $-1 $-1 $428 $41 $-1 $429 reversed single #
loop $-1 $-1 $309 $198 #
plane-surface $-1 0 0 13.71140368678652 0 0 1 1 0 0 forward_v I I I I #
coedge $-1 $430 $431 $308 $432 forward $199 $-1 #
coedge $-1 $308 $201 $203 $314 reversed $125 $-1 #
coedge $-1 $201 $307 $306 $432 reversed $125 $-1 #
coedge $-1 $433 $204 $201 $310 forward $304 $-1 #
edge $-1 $317 54.953113538651422 $434 62.09764137287317 $309 $435 forward 7 unknown #
coedge $-1 $203 $202 $430 $436 reversed $80 $-1 #
coedge $-1 $437 $438 $202 $313 forward $428 $-1 #
edge $-1 $439 -108.52944280827849 $316 -100.01057002703668 $312 $440 forward 7 unknown #
edge $-1 $441 -156.41102328562272 $317 -147.89215050438091 $307 $442 forward 7 unknown #
coedge $-1 $204 $433 $437 $443 forward $304 $-1 #
vertex $-1 $313 $444 #
vertex $-1 $205 $445 #
straight-curve $-1 71.060983808589654 16.863377081431178 13.711403686786511 0 -1 0 I I #
coedge $-1 $319 $319 $-1 $446 reversed $208 $-1 #
edge $-1 $447 0 $447 6.2831853071796004 $209 $448 forward 7 unknown #
vertex $-1 $212 $449 #
ellipse-curve $-1 74.633247725700485 32.14920150347816 11.391548330896123 0.54463904215088732 0 0.83867056331134215 0.41933528165567108 0 -0.27231952107544366 1 I I #
coedge $-1 $323 $323 $-1 $450 reversed $215 $-1 #
edge $-1 $451 0 $451 6.2831853071796004 $216 $452 forward 7 unknown #
vertex $-1 $219 $453 #
ellipse-curve $-1 74.633247725700485 35.304306822246566 11.391548330896123 0.54463904215088732 0 0.83867056331134215 0.41933528165567108 0 -0.27231952107544366 1 I I #
face $-1 $-1 $235 $33 $-1 $454 reversed single #
loop $-1 $-1 $343 $220 #
plane-surface $-1 0 37.407710368092147 0 0 -1 0 0 0 -1 forward_v I I I I #
coedge $-1 $455 $341 $344 $456 forward $221 $-1 #
coedge $-1 $347 $223 $224 $335 reversed $139 $-1 #
coedge $-1 $341 $455 $223 $333 reversed $221 $-1 #
edge $-1 $348 -13.71140368678652 $457 13.71140368678652 $332 $458 forward 7 unknown #
coedge $-1 $225 $224 $455 $459 forward $89 $-1 #
edge $-1 $339 -78.205511642811359 $457 78.205511642811359 $331 $460 forward 7 unknown #
coedge $-1 $344 $343 $225 $337 reversed $328 $-1 #
edge $-1 $461 -78.205511642811359 $338 78.205511642811359 $336 $462 forward 7 unknown #
vertex $-1 $227 $463 #
vertex $-1 $350 $464 #
straight-curve $-1 78.205511642811359 0 -13.71140368678652 0 -1 0 I I #
coedge $-1 $330 $332 $228 $342 reversed $221 $-1 #
edge $-1 $345 -37.407710368092147 $348 37.407710368092147 $341 $465 forward 7 unknown #
coedge $-1 $336 $229 $234 $351 forward $328 $-1 #
coedge $-1 $229 $336 $330 $456 reversed $328 $-1 #
vertex $-1 $230 $466 #
straight-curve $-1 0 37.407710368092147 13.71140368678652 -1 0 0 I I #
coedge $-1 $231 $331 $233 $350 reversed $139 $-1 #
vertex $-1 $342 $467 #
straight-curve $-1 0 -37.407710368092147 13.71140368678652 1 0 0 I I #
edge $-1 $236 -13.71140368678652 $339 13.71140368678652 $233 $468 forward 7 unknown #
edge $-1 $237 -13.71140368678652 $338 13.71140368678652 $234 $469 forward 7 unknown #
point $-1 78.205511642811359 -37.407710368092147 13.71140368678652 #
point $-1 78.205511642811359 37.407710368092147 13.71140368678652 #
face $-1 $-1 $252 $34 $-1 $470 reversed single #
loop $-1 $-1 $361 $239 #
plane-surface $-1 0 0 13.71140368678652 0 0 1 1 0 0 forward_v I I I I #
coedge $-1 $471 $242 $247 $366 forward $147 $-1 #
coedge $-1 $242 $471 $472 $473 reversed $147 $-1 #
coedge $-1 $244 $243 $242 $360 reversed $93 $-1 #
edge $-1 $474 -8.1522113686154363 $371 -2.9661732677267336 $242 $475 forward 7 unknown #
coedge $-1 $472 $476 $244 $362 forward $355 $-1 #
edge $-1 $364 -78.205511642811359 $474 78.205511642811359 $361 $477 forward 7 unknown #
coedge $-1 $251 $245 $476 $478 reversed $252 $-1 #
vertex $-1 $246 $479 #
straight-curve $-1 78.205511642811359 -21.551775690293759 5.5591923181710845 0 0 1 I I #
edge $-1 $371 6.8119041756972827 $369 22.66783885349567 $357 $480 forward 7 unknown #
coedge $-1 $481 $248 $251 $373 reversed $240 $-1 #
coedge $-1 $248 $481 $471 $482 forward $240 $-1 #
vertex $-1 $249 $483 #
straight-curve $-1 0 -37.407710368092147 8.5253655858978181 1 0 0 I I #
vertex $-1 $366 $484 #
straight-curve $-1 0 -21.551775690293759 8.5253655858978181 1 0 0 I I #
edge $-1 $485 -13.71140368678652 $253 -8.5253655858978181 $251 $486 forward 7 unknown #
point $-1 78.205511642811359 -37.407710368092147 8.5253655858978181 #
point $-1 78.205511642811359 -21.551775690293759 8.5253655858978181 #
loop $-1 $-1 $264 $256 #
plane-surface $-1 -78.205511642811359 0 0 1 0 0 0 0 -1 forward_v I I I I #
coedge $-1 $379 $259 $261 $383 reversed $155 $-1 #
coedge $-1 $259 $378 $487 $488 reversed $155 $-1 #
coedge $-1 $267 $262 $259 $381 forward $257 $-1 #
edge $-1 $384 -24.087911623278558 $489 -19.919693689860026 $380 $490 forward 7 unknown #
coedge $-1 $261 $260 $387 $491 reversed $97 $-1 #
edge $-1 $492 2.1388861263899031e-014 $384 6.3534191434139737 $378 $493 forward 7 unknown #
vertex $-1 $263 $494 #
straight-curve $-1 -74.037293709392827 -2.7405822598163994 13.711403686786516 0 1 0 I I #
coedge $-1 $487 $264 $267 $391 reversed $376 $-1 #
coedge $-1 $264 $487 $382 $491 forward $376 $-1 #
vertex $-1 $265 $495 #
straight-curve $-1 -78.205511642811359 -12.116606414591773 55.765639954115734 0 0 1 I I #
straight-curve $-1 -78.205511642811373 -12.116606414591773 8.916417339420434 -0.65605901945558964 0 -0.75470958851134928 I I #
edge $-1 $489 -1.1542773753261759 $268 12.116606414591773 $386 $496 forward 7 unknown #
point $-1 -78.205511642811359 -12.116606414591773 13.71140368678652 #
point $-1 -74.037293709392827 -12.116606414591773 13.71140368678652 #
edge $-1 $497 1 $497 0 $271 $-1 forward 7 unknown #
vertex $-1 $272 $498 #
ellipse-curve $-1 -74.440160215583958 -8.3249253317580738 9.8524287764128591 -0.75470958851134928 0 0.65605901945558964 0.65605901945558964 0 0.75470958851134928 1 I I #
point $-1 -75.465343656646496 -8.3249253317580738 12.068620101614822 #
edge $-1 $499 1 $499 0 $275 $-1 forward 7 unknown #
vertex $-1 $276 $500 #
ellipse-curve $-1 -74.440160215583958 -2.6374037075075236 9.8524287764128591 -0.75470958851134928 0 0.65605901945558964 0.65605901945558964 0 0.75470958851134928 1 I I #
point $-1 -75.465343656646496 -2.6374037075075236 12.068620101614822 #
plane-surface $-1 0 0 13.71140368678652 0 0 1 1 0 0 forward_v I I I I #
coedge $-1 $413 $412 $405 $501 forward $280 $-1 #
coedge $-1 $405 $282 $284 $409 reversed $177 $-1 #
coedge $-1 $282 $404 $403 $501 reversed $177 $-1 #
coedge $-1 $290 $285 $282 $407 forward $291 $-1 #
edge $-1 $410 54.953113538651422 $502 62.09764137287317 $406 $503 forward 7 unknown #
coedge $-1 $284 $283 $413 $504 reversed $111 $-1 #
edge $-1 $505 -156.41102328562272 $410 -147.89215050438091 $404 $506 forward 7 unknown #
vertex $-1 $286 $507 #
straight-curve $-1 71.060983808589654 2.1235055668347016 13.711403686786511 0 -1 0 I I #
coedge $-1 $403 $287 $290 $417 reversed $280 $-1 #
coedge $-1 $287 $403 $408 $504 forward $280 $-1 #
vertex $-1 $288 $508 #
straight-curve $-1 78.205511642811359 7.9279673388992009 112.71828194309204 0 0 1 I I #
straight-curve $-1 -52.971809364245317 7.9279673388992009 94.259242879127413 0.83867056331134215 0 -0.54463904215088732 I I #
edge $-1 $502 0.56605492843960548 $292 7.9279673388992009 $412 $509 forward 7 unknown #
point $-1 78.205511642811359 7.9279673388992009 13.71140368678652 #
point $-1 71.060983808589611 7.9279673388992009 13.711403686786525 #
edge $-1 $510 1 $510 0 $295 $-1 forward 7 unknown #
vertex $-1 $296 $511 #
ellipse-curve $-1 73.967121615490854 2.6694584742852072 10.365804091409283 0.54463904215088732 0 0.83867056331134215 0.41933528165567108 0 -0.27231952107544366 1 I I #
point $-1 75.052583007356148 2.6694584742852072 11.119228809820683 #
edge $-1 $512 1 $512 0 $299 $-1 forward 7 unknown #
vertex $-1 $300 $513 #
ellipse-curve $-1 73.967121615490854 5.8245637930536063 10.365804091409283 0.54463904215088732 0 0.83867056331134215 0.41933528165567108 0 -0.27231952107544366 1 I I #
point $-1 75.052583007356148 5.8245637930536063 11.119228809820683 #
loop $-1 $-1 $312 $303 #
plane-surface $-1 0 37.407710368092147 0 0 -1 0 0 0 -1 forward_v I I I I #
coedge $-1 $514 $306 $311 $436 forward $199 $-1 #
coedge $-1 $306 $514 $433 $515 reversed $199 $-1 #
edge $-1 $434 99.006878256305512 $441 103.64658896808632 $306 $516 forward 7 unknown #
coedge $-1 $315 $309 $431 $515 forward $304 $-1 #
vertex $-1 $515 $517 #
straight-curve $-1 16.107870269938189 30.045797957632558 13.711403686786525 1 0 0 I I #
edge $-1 $441 13.18242087620138 $439 20.544333286660976 $430 $518 forward 7 unknown #
coedge $-1 $438 $312 $315 $443 reversed $428 $-1 #
coedge $-1 $312 $437 $514 $519 forward $428 $-1 #
vertex $-1 $313 $520 #
straight-curve $-1 -12.814937293073672 37.407710368092147 68.181064751276026 -0.83867056331134215 0 0.54463904215088732 I I #
vertex $-1 $436 $521 #
straight-curve $-1 -52.971809364245317 30.045797957632558 94.259242879127413 -0.83867056331134215 0 0.54463904215088732 I I #
edge $-1 $522 -78.205511642811359 $316 -71.060983808589611 $437 $523 forward 7 unknown #
point $-1 71.060983808589611 37.407710368092154 13.711403686786525 #
point $-1 71.060983808589611 30.045797957632558 13.711403686786525 #
edge $-1 $524 1 $524 0 $319 $-1 forward 7 unknown #
vertex $-1 $320 $525 #
ellipse-curve $-1 73.967121615490854 32.14920150347816 10.365804091409283 0.54463904215088732 0 0.83867056331134215 0.41933528165567108 0 -0.27231952107544366 1 I I #
point $-1 75.052583007356148 32.14920150347816 11.119228809820683 #
edge $-1 $526 1 $526 0 $323 $-1 forward 7 unknown #
vertex $-1 $324 $527 #
ellipse-curve $-1 73.967121615490854 35.304306822246566 10.365804091409283 0.54463904215088732 0 0.83867056331134215 0.41933528165567108 0 -0.27231952107544366 1 I I #
point $-1 75.052583007356148 35.304306822246566 11.119228809820683 #
plane-surface $-1 78.205511642811359 0 0 -1 0 0 0 0 1 forward_v I I I I #
coedge $-1 $332 $330 $334 $459 reversed $221 $-1 #
edge $-1 $345 -13.71140368678652 $461 13.71140368678652 $344 $528 forward 7 unknown #
vertex $-1 $459 $529 #
straight-curve $-1 -78.205511642811359 -37.407710368092147 0 0 0 -1 I I #
edge $-1 $457 -37.407710368092147 $461 37.407710368092147 $455 $530 forward 7 unknown #
straight-curve $-1 0 -37.407710368092147 -13.71140368678652 -1 0 0 I I #
vertex $-1 $337 $531 #
straight-curve $-1 0 37.407710368092147 -13.71140368678652 1 0 0 I I #
point $-1 78.205511642811359 37.407710368092147 -13.71140368678652 #
point $-1 78.205511642811359 -37.407710368092147 -13.71140368678652 #
straight-curve $-1 -78.205511642811359 0 13.71140368678652 0 -1 0 I I #
point $-1 -78.205511642811359 37.407710368092147 13.71140368678652 #
point $-1 -78.205511642811359 -37.407710368092147 13.71140368678652 #
straight-curve $-1 78.205511642811359 -37.407710368092147 0 0 0 -1 I I #
straight-curve $-1 78.205511642811359 37.407710368092147 0 0 0 -1 I I #
plane-surface $-1 78.205511642811359 0 0 -1 0 0 0 0 1 forward_v I I I I #
coedge $-1 $358 $357 $368 $482 reversed $147 $-1 #
coedge $-1 $532 $361 $358 $473 forward $355 $-1 #
edge $-1 $474 21.551775690293759 $533 37.407710368092147 $358 $534 forward 7 unknown #
vertex $-1 $473 $535 #
straight-curve $-1 -78.205511642811359 -21.551775690293759 5.5591923181710845 0 0 -1 I I #
coedge $-1 $361 $532 $363 $478 forward $355 $-1 #
straight-curve $-1 0 -21.551775690293759 13.71140368678652 -1 0 0 I I #
edge $-1 $485 -37.407710368092147 $364 -21.551775690293759 $363 $536 forward 7 unknown #
point $-1 78.205511642811359 -21.551775690293759 13.71140368678652 #
straight-curve $-1 -78.205511642811359 -14.739871514596476 8.5253655858978181 0 -1 0 I I #
coedge $-1 $368 $367 $532 $537 reversed $240 $-1 #
edge $-1 $533 -13.71140368678652 $369 -8.5253655858978181 $471 $538 forward 7 unknown #
point $-1 -78.205511642811359 -37.407710368092147 8.5253655858978181 #
point $-1 -78.205511642811359 -21.551775690293759 8.5253655858978181 #
vertex $-1 $478 $539 #
straight-curve $-1 78.205511642811359 -37.407710368092147 0 0 0 -1 I I #
coedge $-1 $387 $386 $379 $488 forward $376 $-1 #
edge $-1 $489 42.054236267329216 $492 46.849222614695286 $487 $540 forward 7 unknown #
vertex $-1 $391 $541 #
straight-curve $-1 -98.125205332671385 1.1542773753261759 13.711403686786518 -1 0 0 I I #
edge $-1 $492 -3.8948596351425753 $388 9.376024154775374 $387 $542 forward 7 unknown #
vertex $-1 $491 $543 #
straight-curve $-1 -78.205511642811373 1.1542773753261759 8.916417339420434 0.65605901945558964 0 0.75470958851134928 I I #
point $-1 -74.037293709392827 1.1542773753261759 13.71140368678652 #
point $-1 -78.205511642811359 -12.116606414591773 8.91641733942045 #
straight-curve $-1 -78.205511642811359 0 13.71140368678652 0 -1 0 I I #
vertex $-1 $394 $544 #
point $-1 -73.784101196128361 -8.3249253317580738 10.607138364924207 #
vertex $-1 $398 $545 #
point $-1 -73.784101196128361 -2.6374037075075236 10.607138364924207 #
edge $-1 $502 99.006878256305512 $505 103.64658896808632 $403 $546 forward 7 unknown #
vertex $-1 $417 $547 #
straight-curve $-1 16.107870269938189 0.56605492843960548 13.711403686786525 1 0 0 I I #
edge $-1 $505 -1.5574506383950961 $414 5.8044617720644993 $413 $548 forward 7 unknown #
vertex $-1 $504 $549 #
straight-curve $-1 -52.971809364245317 0.56605492843960548 94.259242879127413 -0.83867056331134215 0 0.54463904215088732 I I #
point $-1 71.060983808589611 0.56605492843960548 13.711403686786525 #
point $-1 78.205511642811345 7.9279673388992009 9.0716929750057176 #
straight-curve $-1 78.205511642811359 0 13.71140368678652 0 1 0 I I #
vertex $-1 $420 $550 #
point $-1 74.38645689714653 2.6694584742852072 10.093484570333839 #
vertex $-1 $424 $551 #
point $-1 74.38645689714653 5.8245637930536063 10.093484570333839 #
coedge $-1 $431 $430 $438 $519 reversed $199 $-1 #
edge $-1 $434 30.045797957632558 $522 37.407710368092147 $431 $552 forward 7 unknown #
straight-curve $-1 78.205511642811359 30.045797957632558 112.71828194309204 0 0 -1 I I #
point $-1 78.205511642811359 30.045797957632558 13.71140368678652 #
straight-curve $-1 78.205511642811359 16.863377081431178 9.0716929750057247 0 1 0 I I #
edge $-1 $522 -13.71140368678652 $439 -9.0716929750057176 $514 $553 forward 7 unknown #
point $-1 78.205511642811345 37.407710368092154 9.0716929750057176 #
point $-1 78.205511642811345 30.045797957632558 9.0716929750057176 #
vertex $-1 $515 $554 #
straight-curve $-1 0 37.407710368092147 13.71140368678652 -1 0 0 I I #
vertex $-1 $446 $555 #
point $-1 74.38645689714653 32.14920150347816 10.093484570333839 #
vertex $-1 $450 $556 #
point $-1 74.38645689714653 35.304306822246566 10.093484570333839 #
straight-curve $-1 -78.205511642811359 37.407710368092147 0 0 0 -1 I I #
point $-1 -78.205511642811359 -37.407710368092147 -13.71140368678652 #
straight-curve $-1 -78.205511642811359 0 -13.71140368678652 0 1 0 I I #
point $-1 -78.205511642811359 37.407710368092147 -13.71140368678652 #
coedge $-1 $476 $472 $481 $537 forward $355 $-1 #
vertex $-1 $473 $557 #
straight-curve $-1 -78.205511642811359 0 13.71140368678652 0 -1 0 I I #
point $-1 -78.205511642811359 -21.551775690293759 13.71140368678652 #
straight-curve $-1 78.205511642811359 0 13.71140368678652 0 1 0 I I #
edge $-1 $533 -78.205511642811359 $485 78.205511642811359 $481 $558 forward 7 unknown #
straight-curve $-1 -78.205511642811359 -37.407710368092147 0 0 0 -1 I I #
point $-1 78.205511642811359 -37.407710368092147 13.71140368678652 #
straight-curve $-1 -78.205511642811359 1.1542773753261759 55.765639954115734 0 0 -1 I I #
point $-1 -78.205511642811359 1.1542773753261759 13.71140368678652 #
straight-curve $-1 -78.205511642811359 -2.7405822598163994 8.916417339420434 0 -1 0 I I #
point $-1 -78.205511642811359 1.1542773753261759 8.91641733942045 #
point $-1 -73.685450627072598 -8.3249253317580738 9.1963697569572691 #
point $-1 -73.685450627072598 -2.6374037075075236 9.1963697569572691 #
straight-curve $-1 78.205511642811359 0.56605492843960548 112.71828194309204 0 0 -1 I I #
point $-1 78.205511642811359 0.56605492843960548 13.71140368678652 #
straight-curve $-1 78.205511642811359 2.1235055668347016 9.0716929750057247 0 1 0 I I #
point $-1 78.205511642811345 0.56605492843960548 9.0716929750057176 #
point $-1 73.694802094415408 2.6694584742852072 9.9464688097536129 #
point $-1 73.694802094415408 5.8245637930536063 9.9464688097536129 #
straight-curve $-1 78.205511642811359 0 13.71140368678652 0 1 0 I I #
straight-curve $-1 78.205511642811359 37.407710368092147 0 0 0 -1 I I #
point $-1 78.205511642811359 37.407710368092147 13.71140368678652 #
point $-1 73.694802094415408 32.14920150347816 9.9464688097536129 #
point $-1 73.694802094415408 35.304306822246566 9.9464688097536129 #
point $-1 -78.205511642811359 -37.407710368092147 13.71140368678652 #
straight-curve $-1 0 -37.407710368092147 13.71140368678652 1 0 0 I I #
End-of-ACIS-data 