500 0 3 0           
7 Unknown 11 ACIS 5.0 NT 24 Fri Mar 26 17:55:58 1999 
-1 9.9999999999999995e-007 1e-010 
body $-1 $3 $-1 $4 #
body $-1 $5 $-1 $6 #
body $-1 $7 $-1 $8 #
lump $-1 $-1 $9 $0 #
transform $-1 1 0 0 0 1 0 0 0 1 50.932950834681236 34.329185026828881 9.5091224395736447 1 rotate no_reflect no_shear #
lump $-1 $-1 $10 $1 #
transform $-1 1 0 0 0 1 0 0 0 1 50.932950834681236 34.329185026828881 9.5091224395736447 1 rotate no_reflect no_shear #
lump $-1 $-1 $11 $2 #
transform $-1 1 0 0 0 1 0 0 0 1 50.932950834681236 34.329185026828881 9.5091224395736447 1 rotate no_reflect no_shear #
shell $-1 $-1 $-1 $12 $-1 $3 #
shell $-1 $-1 $-1 $13 $-1 $5 #
shell $-1 $-1 $-1 $14 $-1 $7 #
face $-1 $15 $16 $9 $-1 $17 forward single #
face $-1 $18 $19 $10 $-1 $20 reversed single #
face $-1 $21 $22 $11 $-1 $23 forward single #
face $-1 $24 $25 $9 $-1 $26 reversed single #
loop $-1 $-1 $27 $12 #
plane-surface $-1 0 0 9.5091224395736447 0 0 1 1 0 0 forward_v I I I I #
face $-1 $28 $29 $10 $-1 $30 forward single #
loop $-1 $-1 $31 $13 #
plane-surface $-1 -44.680776107232994 0 -6.5091224395736447 0 0 1 1 0 0 forward_v I I I I #
face $-1 $32 $33 $11 $-1 $34 forward single #
loop $-1 $-1 $35 $14 #
plane-surface $-1 44.894624712064001 -32.002244426711179 0 0 1 0 0 0 1 forward_v I I I I #
face $-1 $36 $37 $9 $-1 $38 reversed single #
loop $-1 $-1 $39 $15 #
plane-surface $-1 0 0 -9.5091224395736447 0 0 1 1 0 0 forward_v I I I I #
coedge $-1 $40 $41 $42 $43 forward $16 $-1 #
face $-1 $44 $45 $10 $-1 $46 reversed single #
loop $-1 $-1 $47 $18 #
plane-surface $-1 -38.428601379784752 0 -8.0091224395736447 -1 0 0 0 0 1 forward_v I I I I #
coedge $-1 $48 $49 $50 $51 reversed $19 $-1 #
face $-1 $52 $53 $11 $-1 $54 forward single #
loop $-1 $-1 $55 $21 #
plane-surface $-1 38.856298589446759 -29.280273726861299 0 1 0 0 0 0 -1 forward_v I I I I #
coedge $-1 $56 $57 $58 $59 reversed $22 $-1 #
face $-1 $60 $61 $9 $-1 $62 reversed single #
loop $-1 $-1 $63 $24 #
plane-surface $-1 0 -34.329185026828881 0 0 1 0 0 0 1 forward_v I I I I #
coedge $-1 $64 $65 $66 $67 forward $25 $-1 #
coedge $-1 $68 $27 $69 $70 forward $16 $-1 #
coedge $-1 $27 $68 $71 $72 forward $16 $-1 #
coedge $-1 $73 $74 $27 $43 reversed $75 $-1 #
edge $-1 $76 -34.329185026828881 $77 34.329185026828881 $42 $78 forward 7 unknown #
face $-1 $79 $80 $10 $-1 $81 reversed single #
loop $-1 $-1 $82 $28 #
plane-surface $-1 -50.932950834681236 0 0 1 0 0 0 0 -1 forward_v I I I I #
coedge $-1 $50 $83 $84 $85 reversed $29 $-1 #
coedge $-1 $86 $31 $87 $88 reversed $19 $-1 #
coedge $-1 $31 $86 $89 $90 reversed $19 $-1 #
coedge $-1 $91 $47 $31 $51 forward $29 $-1 #
edge $-1 $92 -34.329185026828881 $93 34.329185026828881 $50 $94 forward 7 unknown #
face $-1 $95 $96 $11 $-1 $97 forward single #
loop $-1 $-1 $98 $32 #
plane-surface $-1 44.894624712064001 -26.558303027011419 0 0 -1 0 0 0 -1 forward_v I I I I #
coedge $-1 $99 $100 $101 $102 reversed $33 $-1 #
coedge $-1 $103 $35 $104 $105 reversed $22 $-1 #
coedge $-1 $35 $103 $106 $107 reversed $22 $-1 #
coedge $-1 $100 $99 $35 $59 forward $33 $-1 #
edge $-1 $108 -9.5091224395736447 $109 9.5091224395736447 $58 $110 forward 7 unknown #
face $-1 $111 $112 $9 $-1 $113 reversed single #
loop $-1 $-1 $114 $36 #
plane-surface $-1 -50.932950834681236 0 0 1 0 0 0 0 -1 forward_v I I I I #
coedge $-1 $115 $71 $116 $117 forward $37 $-1 #
coedge $-1 $118 $39 $115 $119 forward $25 $-1 #
coedge $-1 $39 $118 $120 $121 forward $25 $-1 #
coedge $-1 $74 $73 $39 $67 reversed $75 $-1 #
edge $-1 $122 -34.329185026828881 $123 34.329185026828881 $66 $124 forward 7 unknown #
coedge $-1 $41 $40 $125 $126 forward $16 $-1 #
coedge $-1 $127 $128 $40 $70 reversed $112 $-1 #
edge $-1 $77 -50.932950834681236 $129 50.932950834681236 $69 $130 forward 7 unknown #
coedge $-1 $63 $131 $41 $72 reversed $37 $-1 #
edge $-1 $132 -50.932950834681236 $76 50.932950834681236 $71 $133 forward 7 unknown #
coedge $-1 $66 $42 $131 $134 forward $75 $-1 #
coedge $-1 $42 $66 $127 $135 reversed $75 $-1 #
loop $-1 $-1 $73 $111 #
vertex $-1 $43 $136 #
vertex $-1 $43 $137 #
straight-curve $-1 50.932950834681236 0 9.5091224395736447 0 1 0 I I #
face $-1 $138 $139 $10 $-1 $140 forward single #
loop $-1 $-1 $87 $44 #
plane-surface $-1 0 -34.329185026828881 0 0 1 0 0 0 1 forward_v I I I I #
coedge $-1 $141 $142 $86 $143 forward $45 $-1 #
coedge $-1 $47 $91 $144 $145 reversed $29 $-1 #
coedge $-1 $146 $87 $47 $85 forward $80 $-1 #
edge $-1 $92 2.5045612197868223 $147 5.5045612197868223 $84 $148 forward 7 unknown #
coedge $-1 $49 $48 $82 $143 reversed $19 $-1 #
coedge $-1 $84 $149 $48 $88 forward $80 $-1 #
edge $-1 $150 -28.592562781064739 $92 -16.088213326168255 $87 $151 forward 7 unknown #
coedge $-1 $152 $153 $49 $90 forward $154 $-1 #
edge $-1 $93 16.088213326168255 $155 28.592562781064739 $89 $156 forward 7 unknown #
coedge $-1 $83 $50 $153 $157 reversed $29 $-1 #
vertex $-1 $88 $158 #
vertex $-1 $90 $159 #
straight-curve $-1 -38.428601379784752 0 -6.5091224395736447 0 1 0 I I #
face $-1 $160 $161 $11 $-1 $162 reversed single #
loop $-1 $-1 $104 $52 #
plane-surface $-1 0 0 9.5091224395736447 0 0 1 1 0 0 forward_v I I I I #
coedge $-1 $163 $164 $165 $166 reversed $53 $-1 #
coedge $-1 $58 $55 $167 $168 reversed $33 $-1 #
coedge $-1 $55 $58 $169 $170 reversed $33 $-1 #
coedge $-1 $164 $163 $55 $102 forward $53 $-1 #
edge $-1 $171 -9.5091224395736447 $172 9.5091224395736447 $101 $173 forward 7 unknown #
coedge $-1 $57 $56 $174 $175 reversed $22 $-1 #
coedge $-1 $167 $176 $56 $105 forward $96 $-1 #
edge $-1 $177 -28.485638478649243 $108 -16.408986233414758 $104 $178 forward 7 unknown #
coedge $-1 $179 $169 $57 $107 forward $180 $-1 #
edge $-1 $109 16.408986233414758 $181 28.485638478649243 $106 $182 forward 7 unknown #
vertex $-1 $105 $183 #
vertex $-1 $107 $184 #
straight-curve $-1 38.856298589446759 -32.002244426711179 0 0 0 -1 I I #
face $-1 $-1 $75 $9 $-1 $185 reversed single #
loop $-1 $-1 $127 $60 #
plane-surface $-1 0 34.329185026828881 0 0 -1 0 0 0 -1 forward_v I I I I #
coedge $-1 $186 $125 $128 $187 forward $61 $-1 #
coedge $-1 $131 $63 $64 $119 reversed $37 $-1 #
coedge $-1 $125 $186 $63 $117 reversed $61 $-1 #
edge $-1 $132 -9.5091224395736447 $188 9.5091224395736447 $116 $189 forward 7 unknown #
coedge $-1 $65 $64 $186 $190 forward $25 $-1 #
edge $-1 $123 -50.932950834681236 $188 50.932950834681236 $115 $191 forward 7 unknown #
coedge $-1 $128 $127 $65 $121 reversed $112 $-1 #
edge $-1 $192 -50.932950834681236 $122 50.932950834681236 $120 $193 forward 7 unknown #
vertex $-1 $67 $194 #
vertex $-1 $134 $195 #
straight-curve $-1 50.932950834681236 0 -9.5091224395736447 0 -1 0 I I #
coedge $-1 $114 $116 $68 $126 reversed $61 $-1 #
edge $-1 $129 -34.329185026828881 $132 34.329185026828881 $125 $196 forward 7 unknown #
coedge $-1 $120 $69 $74 $135 forward $112 $-1 #
coedge $-1 $69 $120 $114 $187 reversed $112 $-1 #
vertex $-1 $70 $197 #
straight-curve $-1 0 34.329185026828881 9.5091224395736447 -1 0 0 I I #
coedge $-1 $71 $115 $73 $134 reversed $37 $-1 #
vertex $-1 $126 $198 #
straight-curve $-1 0 -34.329185026828881 9.5091224395736447 1 0 0 I I #
edge $-1 $76 -9.5091224395736447 $123 9.5091224395736447 $73 $199 forward 7 unknown #
edge $-1 $77 -9.5091224395736447 $122 9.5091224395736447 $74 $200 forward 7 unknown #
point $-1 50.932950834681236 -34.329185026828881 9.5091224395736447 #
point $-1 50.932950834681236 34.329185026828881 9.5091224395736447 #
face $-1 $201 $202 $10 $-1 $203 reversed single #
loop $-1 $-1 $204 $79 #
plane-surface $-1 0 0 9.5091224395736447 0 0 1 1 0 0 forward_v I I I I #
coedge $-1 $205 $82 $149 $206 reversed $45 $-1 #
coedge $-1 $82 $205 $152 $207 forward $45 $-1 #
edge $-1 $155 -34.329185026828881 $150 34.329185026828881 $82 $208 forward 7 unknown #
coedge $-1 $209 $210 $83 $145 forward $202 $-1 #
edge $-1 $147 -34.329185026828881 $211 34.329185026828881 $144 $212 forward 7 unknown #
coedge $-1 $213 $84 $210 $214 reversed $80 $-1 #
vertex $-1 $85 $215 #
straight-curve $-1 -38.428601379784752 -34.329185026828881 -4.0045612197868223 0 0 -1 I I #
coedge $-1 $87 $216 $141 $206 forward $80 $-1 #
vertex $-1 $88 $217 #
straight-curve $-1 -22.340388053616497 -34.329185026828881 -6.5091224395736447 1 0 0 I I #
coedge $-1 $218 $89 $142 $207 reversed $154 $-1 #
coedge $-1 $89 $219 $91 $157 forward $154 $-1 #
loop $-1 $-1 $89 $201 #
vertex $-1 $143 $220 #
straight-curve $-1 -22.340388053616497 34.329185026828881 -6.5091224395736447 -1 0 0 I I #
edge $-1 $211 -5.5045612197868223 $93 -2.5045612197868223 $153 $221 forward 7 unknown #
point $-1 -38.428601379784752 -34.329185026828881 -6.5091224395736447 #
point $-1 -38.428601379784752 34.329185026828881 -6.5091224395736447 #
face $-1 $222 $223 $11 $-1 $224 reversed single #
loop $-1 $-1 $165 $95 #
plane-surface $-1 50.932950834681236 0 0 -1 0 0 0 0 1 forward_v I I I I #
coedge $-1 $101 $98 $225 $226 reversed $53 $-1 #
coedge $-1 $98 $101 $227 $228 reversed $53 $-1 #
coedge $-1 $229 $230 $98 $166 forward $161 $-1 #
edge $-1 $231 -9.5091224395736447 $232 9.5091224395736447 $165 $233 forward 7 unknown #
coedge $-1 $225 $104 $99 $168 forward $96 $-1 #
edge $-1 $108 -17.362107563280532 $171 -11.91816616358077 $167 $234 forward 7 unknown #
coedge $-1 $106 $227 $100 $170 forward $180 $-1 #
edge $-1 $172 11.91816616358077 $109 17.362107563280532 $169 $235 forward 7 unknown #
vertex $-1 $168 $236 #
vertex $-1 $170 $237 #
straight-curve $-1 38.856298589446759 -26.558303027011419 0 0 0 -1 I I #
coedge $-1 $238 $239 $103 $175 forward $240 $-1 #
edge $-1 $181 -9.5091224395736447 $177 9.5091224395736447 $174 $241 forward 7 unknown #
coedge $-1 $104 $242 $238 $243 forward $96 $-1 #
vertex $-1 $175 $244 #
straight-curve $-1 22.447312356032 -32.002244426711179 9.5091224395736447 -1 0 0 I I #
coedge $-1 $245 $106 $239 $246 forward $180 $-1 #
loop $-1 $-1 $106 $247 #
vertex $-1 $246 $248 #
straight-curve $-1 22.447312356032 -32.002244426711179 -9.5091224395736447 1 0 0 I I #
point $-1 38.856298589446759 -32.002244426711179 9.5091224395736447 #
point $-1 38.856298589446759 -32.002244426711179 -9.5091224395736447 #
plane-surface $-1 50.932950834681236 0 0 -1 0 0 0 0 1 forward_v I I I I #
coedge $-1 $116 $114 $118 $190 reversed $61 $-1 #
edge $-1 $129 -9.5091224395736447 $192 9.5091224395736447 $128 $249 forward 7 unknown #
vertex $-1 $190 $250 #
straight-curve $-1 -50.932950834681236 -34.329185026828881 0 0 0 -1 I I #
edge $-1 $188 -34.329185026828881 $192 34.329185026828881 $186 $251 forward 7 unknown #
straight-curve $-1 0 -34.329185026828881 -9.5091224395736447 -1 0 0 I I #
vertex $-1 $121 $252 #
straight-curve $-1 0 34.329185026828881 -9.5091224395736447 1 0 0 I I #
point $-1 50.932950834681236 34.329185026828881 -9.5091224395736447 #
point $-1 50.932950834681236 -34.329185026828881 -9.5091224395736447 #
straight-curve $-1 -50.932950834681236 0 9.5091224395736447 0 -1 0 I I #
point $-1 -50.932950834681236 34.329185026828881 9.5091224395736447 #
point $-1 -50.932950834681236 -34.329185026828881 9.5091224395736447 #
straight-curve $-1 50.932950834681236 -34.329185026828881 0 0 0 -1 I I #
straight-curve $-1 50.932950834681236 34.329185026828881 0 0 0 -1 I I #
face $-1 $253 $154 $10 $-1 $254 reversed single #
loop $-1 $-1 $144 $138 #
plane-surface $-1 0 0 -9.5091224395736447 0 0 1 1 0 0 forward_v I I I I #
coedge $-1 $255 $256 $257 $258 forward $139 $-1 #
coedge $-1 $142 $141 $259 $260 reversed $45 $-1 #
edge $-1 $261 -9.5091224395736447 $150 6.5091224395736447 $141 $262 forward 7 unknown #
edge $-1 $263 -9.5091224395736447 $155 6.5091224395736447 $152 $264 forward 7 unknown #
straight-curve $-1 -50.932950834681236 0 -6.5091224395736447 0 -1 0 I I #
coedge $-1 $265 $144 $219 $266 forward $202 $-1 #
coedge $-1 $144 $265 $146 $214 forward $202 $-1 #
vertex $-1 $266 $267 #
straight-curve $-1 -38.428601379784752 0 -9.5091224395736447 0 1 0 I I #
coedge $-1 $216 $146 $268 $269 reversed $80 $-1 #
edge $-1 $270 -50.932950834681236 $147 38.428601379784752 $146 $271 forward 7 unknown #
point $-1 -38.428601379784752 -34.329185026828881 -9.5091224395736447 #
coedge $-1 $149 $213 $256 $272 reversed $80 $-1 #
point $-1 -50.932950834681236 -34.329185026828881 -6.5091224395736447 #
coedge $-1 $273 $152 $255 $274 reversed $154 $-1 #
coedge $-1 $153 $273 $209 $266 reversed $154 $-1 #
point $-1 -50.932950834681236 34.329185026828881 -6.5091224395736447 #
straight-curve $-1 -38.428601379784752 34.329185026828881 -4.0045612197868223 0 0 1 I I #
face $-1 $275 $276 $11 $-1 $277 forward single #
loop $-1 $-1 $278 $160 #
plane-surface $-1 -44.680776107232994 0 -6.5091224395736447 0 0 1 1 0 0 forward_v I I I I #
coedge $-1 $279 $167 $163 $226 forward $96 $-1 #
edge $-1 $171 16.408986233414758 $231 28.485638478649243 $225 $280 forward 7 unknown #
coedge $-1 $169 $281 $164 $228 forward $180 $-1 #
edge $-1 $232 -28.485638478649243 $172 -16.408986233414758 $227 $282 forward 7 unknown #
coedge $-1 $283 $165 $281 $284 reversed $161 $-1 #
coedge $-1 $165 $283 $279 $285 reversed $161 $-1 #
vertex $-1 $285 $286 #
vertex $-1 $166 $287 #
straight-curve $-1 50.932950834681236 -26.558303027011419 0 0 0 -1 I I #
straight-curve $-1 38.856298589446759 -14.64013686343065 9.5091224395736447 0 1 0 I I #
straight-curve $-1 38.856298589446759 -14.64013686343065 -9.5091224395736447 0 -1 0 I I #
point $-1 38.856298589446759 -26.558303027011419 9.5091224395736447 #
point $-1 38.856298589446759 -26.558303027011419 -9.5091224395736447 #
coedge $-1 $288 $174 $176 $243 reversed $240 $-1 #
coedge $-1 $174 $288 $179 $246 reversed $240 $-1 #
loop $-1 $-1 $174 $289 #
straight-curve $-1 50.932950834681236 -32.002244426711179 0 0 0 1 I I #
coedge $-1 $176 $290 $291 $292 forward $96 $-1 #
edge $-1 $293 -34.329185026828881 $177 -32.002244426711179 $238 $294 forward 7 unknown #
point $-1 50.932950834681243 -32.002244426711179 9.5091224395736447 #
coedge $-1 $295 $179 $296 $297 forward $180 $-1 #
edge $-1 $181 32.002244426711179 $298 34.329185026828881 $239 $299 forward 7 unknown #
face $-1 $300 $180 $11 $-1 $301 reversed single #
point $-1 50.932950834681243 -32.002244426711179 -9.5091224395736447 #
straight-curve $-1 -50.932950834681236 34.329185026828881 0 0 0 -1 I I #
point $-1 -50.932950834681236 -34.329185026828881 -9.5091224395736447 #
straight-curve $-1 -50.932950834681236 0 -9.5091224395736447 0 1 0 I I #
point $-1 -50.932950834681236 34.329185026828881 -9.5091224395736447 #
face $-1 $-1 $302 $10 $-1 $303 reversed single #
plane-surface $-1 0 34.329185026828881 0 0 -1 0 0 0 -1 forward_v I I I I #
coedge $-1 $259 $204 $218 $274 forward $139 $-1 #
coedge $-1 $204 $259 $216 $272 forward $139 $-1 #
coedge $-1 $268 $304 $204 $258 reversed $302 $-1 #
edge $-1 $305 -34.329185026828881 $306 34.329185026828881 $257 $307 forward 7 unknown #
coedge $-1 $256 $255 $205 $260 forward $139 $-1 #
edge $-1 $263 -34.329185026828881 $261 34.329185026828881 $205 $308 forward 7 unknown #
vertex $-1 $260 $309 #
straight-curve $-1 -50.932950834681236 -34.329185026828881 0 0 0 -1 I I #
vertex $-1 $274 $310 #
straight-curve $-1 -50.932950834681236 34.329185026828881 0 0 0 -1 I I #
coedge $-1 $210 $209 $311 $312 forward $202 $-1 #
edge $-1 $211 -38.428601379784752 $313 50.932950834681236 $219 $314 forward 7 unknown #
point $-1 -38.428601379784752 34.329185026828881 -9.5091224395736447 #
coedge $-1 $311 $257 $213 $269 forward $302 $-1 #
edge $-1 $305 -9.5091224395736447 $270 9.5091224395736447 $268 $315 forward 7 unknown #
vertex $-1 $269 $316 #
straight-curve $-1 0 -34.329185026828881 -9.5091224395736447 -1 0 0 I I #
edge $-1 $261 -50.932950834681236 $305 50.932950834681236 $216 $317 forward 7 unknown #
coedge $-1 $219 $218 $304 $318 forward $154 $-1 #
edge $-1 $306 -50.932950834681236 $263 50.932950834681236 $218 $319 forward 7 unknown #
face $-1 $320 $321 $11 $-1 $322 reversed single #
loop $-1 $-1 $323 $222 #
plane-surface $-1 -38.428601379784752 0 -8.0091224395736447 -1 0 0 0 0 1 forward_v I I I I #
coedge $-1 $324 $325 $326 $327 reversed $223 $-1 #
coedge $-1 $328 $225 $230 $285 forward $96 $-1 #
straight-curve $-1 22.447312356032 -26.558303027011419 9.5091224395736447 1 0 0 I I #
coedge $-1 $227 $329 $229 $284 forward $180 $-1 #
straight-curve $-1 22.447312356032 -26.558303027011419 -9.5091224395736447 -1 0 0 I I #
coedge $-1 $230 $229 $330 $331 reversed $161 $-1 #
edge $-1 $332 -34.329185026828881 $232 26.558303027011419 $229 $299 forward 7 unknown #
edge $-1 $231 -26.558303027011419 $333 34.329185026828881 $230 $294 forward 7 unknown #
point $-1 50.932950834681243 -26.558303027011419 9.5091224395736447 #
point $-1 50.932950834681243 -26.558303027011419 -9.5091224395736447 #
coedge $-1 $239 $238 $334 $335 forward $240 $-1 #
face $-1 $-1 $240 $11 $-1 $162 reversed single #
coedge $-1 $242 $328 $336 $337 forward $96 $-1 #
coedge $-1 $338 $334 $242 $292 reversed $339 $-1 #
edge $-1 $340 -50.932950834681236 $293 50.932950834681236 $291 $341 forward 7 unknown #
vertex $-1 $243 $342 #
straight-curve $-1 50.932950834681236 0 9.5091224395736447 0 1 0 I I #
coedge $-1 $329 $245 $343 $344 forward $180 $-1 #
coedge $-1 $334 $345 $245 $297 reversed $339 $-1 #
edge $-1 $298 -50.932950834681236 $346 38.428601379784752 $296 $347 forward 7 unknown #
vertex $-1 $335 $348 #
straight-curve $-1 50.932950834681236 0 -9.5091224395736447 0 -1 0 I I #
face $-1 $289 $349 $11 $-1 $350 reversed single #
plane-surface $-1 0 0 -9.5091224395736447 0 0 1 1 0 0 forward_v I I I I #
loop $-1 $-1 $268 $253 #
plane-surface $-1 50.932950834681236 0 0 -1 0 0 0 0 1 forward_v I I I I #
coedge $-1 $257 $311 $273 $318 reversed $302 $-1 #
vertex $-1 $258 $351 #
vertex $-1 $258 $352 #
straight-curve $-1 50.932950834681236 0 9.5091224395736447 0 1 0 I I #
straight-curve $-1 -50.932950834681236 0 9.5091224395736447 0 -1 0 I I #
point $-1 -50.932950834681236 -34.329185026828881 9.5091224395736447 #
point $-1 -50.932950834681236 34.329185026828881 9.5091224395736447 #
coedge $-1 $304 $268 $265 $312 reversed $302 $-1 #
edge $-1 $313 -34.329185026828881 $270 34.329185026828881 $311 $353 forward 7 unknown #
vertex $-1 $312 $354 #
straight-curve $-1 0 34.329185026828881 -9.5091224395736447 1 0 0 I I #
straight-curve $-1 50.932950834681236 -34.329185026828881 0 0 0 -1 I I #
point $-1 50.932950834681236 -34.329185026828881 -9.5091224395736447 #
straight-curve $-1 0 -34.329185026828881 9.5091224395736447 1 0 0 I I #
edge $-1 $306 -9.5091224395736447 $313 9.5091224395736447 $304 $355 forward 7 unknown #
straight-curve $-1 0 34.329185026828881 9.5091224395736447 -1 0 0 I I #
face $-1 $247 $339 $11 $-1 $356 reversed single #
loop $-1 $-1 $357 $275 #
plane-surface $-1 -50.932950834681236 0 0 1 0 0 0 0 -1 forward_v I I I I #
coedge $-1 $326 $343 $345 $358 reversed $276 $-1 #
coedge $-1 $359 $278 $360 $361 reversed $223 $-1 #
coedge $-1 $278 $359 $362 $363 reversed $223 $-1 #
coedge $-1 $364 $323 $278 $327 forward $276 $-1 #
edge $-1 $365 -34.329185026828881 $366 34.329185026828881 $326 $367 forward 7 unknown #
coedge $-1 $290 $279 $368 $369 forward $96 $-1 #
coedge $-1 $281 $295 $370 $371 forward $180 $-1 #
coedge $-1 $370 $368 $283 $331 forward $349 $-1 #
edge $-1 $333 -9.5091224395736447 $332 9.5091224395736447 $283 $372 forward 7 unknown #
vertex $-1 $284 $373 #
vertex $-1 $285 $374 #
coedge $-1 $291 $296 $288 $335 reversed $339 $-1 #
edge $-1 $293 -9.5091224395736447 $298 9.5091224395736447 $288 $375 forward 7 unknown #
coedge $-1 $376 $377 $290 $337 reversed $321 $-1 #
edge $-1 $378 -34.329185026828881 $340 34.329185026828881 $336 $379 forward 7 unknown #
coedge $-1 $360 $291 $377 $380 forward $339 $-1 #
loop $-1 $-1 $360 $320 #
vertex $-1 $337 $381 #
straight-curve $-1 0 -34.329185026828881 9.5091224395736447 1 0 0 I I #
point $-1 50.932950834681236 -34.329185026828881 9.5091224395736447 #
coedge $-1 $323 $364 $295 $344 reversed $276 $-1 #
edge $-1 $346 -34.329185026828881 $382 34.329185026828881 $295 $383 forward 7 unknown #
coedge $-1 $296 $360 $323 $358 forward $339 $-1 #
vertex $-1 $358 $384 #
straight-curve $-1 0 -34.329185026828881 -9.5091224395736447 -1 0 0 I I #
point $-1 50.932950834681236 -34.329185026828881 -9.5091224395736447 #
loop $-1 $-1 $362 $300 #
plane-surface $-1 0 34.329185026828881 0 0 -1 0 0 0 -1 forward_v I I I I #
point $-1 50.932950834681236 -34.329185026828881 9.5091224395736447 #
point $-1 50.932950834681236 34.329185026828881 9.5091224395736447 #
straight-curve $-1 50.932950834681236 0 -9.5091224395736447 0 -1 0 I I #
point $-1 50.932950834681236 34.329185026828881 -9.5091224395736447 #
straight-curve $-1 50.932950834681236 34.329185026828881 0 0 0 -1 I I #
plane-surface $-1 0 -34.329185026828881 0 0 1 0 0 0 1 forward_v I I I I #
coedge $-1 $377 $376 $359 $385 forward $321 $-1 #
edge $-1 $365 2.5045612197868223 $346 5.5045612197868223 $345 $386 forward 7 unknown #
coedge $-1 $325 $324 $357 $385 reversed $223 $-1 #
coedge $-1 $345 $338 $324 $361 forward $339 $-1 #
edge $-1 $387 -28.592562781064739 $365 -16.088213326168255 $360 $388 forward 7 unknown #
coedge $-1 $389 $390 $325 $363 forward $349 $-1 #
edge $-1 $366 16.088213326168255 $391 28.592562781064739 $362 $392 forward 7 unknown #
coedge $-1 $343 $326 $390 $393 reversed $276 $-1 #
vertex $-1 $361 $394 #
vertex $-1 $363 $395 #
straight-curve $-1 -38.428601379784752 0 -6.5091224395736447 0 1 0 I I #
coedge $-1 $330 $389 $328 $369 reversed $349 $-1 #
edge $-1 $333 -50.932950834681236 $378 50.932950834681236 $368 $396 forward 7 unknown #
coedge $-1 $390 $330 $329 $371 reversed $349 $-1 #
edge $-1 $382 -38.428601379784752 $332 50.932950834681236 $370 $397 forward 7 unknown #
straight-curve $-1 50.932950834681236 34.329185026828881 0 0 0 -1 I I #
point $-1 50.932950834681236 34.329185026828881 -9.5091224395736447 #
point $-1 50.932950834681236 34.329185026828881 9.5091224395736447 #
straight-curve $-1 50.932950834681236 -34.329185026828881 0 0 0 -1 I I #
coedge $-1 $357 $336 $389 $398 forward $321 $-1 #
coedge $-1 $336 $357 $338 $380 reversed $321 $-1 #
vertex $-1 $369 $399 #
straight-curve $-1 -50.932950834681236 0 9.5091224395736447 0 -1 0 I I #
edge $-1 $340 -9.5091224395736447 $387 6.5091224395736447 $377 $400 forward 7 unknown #
point $-1 -50.932950834681236 -34.329185026828881 9.5091224395736447 #
vertex $-1 $371 $401 #
straight-curve $-1 -38.428601379784752 0 -9.5091224395736447 0 1 0 I I #
point $-1 -38.428601379784752 -34.329185026828881 -9.5091224395736447 #
edge $-1 $391 -34.329185026828881 $387 34.329185026828881 $357 $402 forward 7 unknown #
straight-curve $-1 -38.428601379784752 -34.329185026828881 -4.0045612197868223 0 0 -1 I I #
vertex $-1 $361 $403 #
straight-curve $-1 -22.340388053616497 -34.329185026828881 -6.5091224395736447 1 0 0 I I #
coedge $-1 $368 $362 $376 $398 reversed $349 $-1 #
coedge $-1 $362 $370 $364 $393 forward $349 $-1 #
vertex $-1 $385 $404 #
straight-curve $-1 -22.340388053616497 34.329185026828881 -6.5091224395736447 -1 0 0 I I #
edge $-1 $382 -5.5045612197868223 $366 -2.5045612197868223 $390 $405 forward 7 unknown #
point $-1 -38.428601379784752 -34.329185026828881 -6.5091224395736447 #
point $-1 -38.428601379784752 34.329185026828881 -6.5091224395736447 #
straight-curve $-1 0 34.329185026828881 9.5091224395736447 -1 0 0 I I #
straight-curve $-1 0 34.329185026828881 -9.5091224395736447 1 0 0 I I #
edge $-1 $378 -9.5091224395736447 $391 6.5091224395736447 $389 $406 forward 7 unknown #
point $-1 -50.932950834681236 34.329185026828881 9.5091224395736447 #
straight-curve $-1 -50.932950834681236 -34.329185026828881 0 0 0 -1 I I #
point $-1 -38.428601379784752 34.329185026828881 -9.5091224395736447 #
straight-curve $-1 -50.932950834681236 0 -6.5091224395736447 0 -1 0 I I #
point $-1 -50.932950834681236 -34.329185026828881 -6.5091224395736447 #
point $-1 -50.932950834681236 34.329185026828881 -6.5091224395736447 #
straight-curve $-1 -38.428601379784752 34.329185026828881 -4.0045612197868223 0 0 1 I I #
straight-curve $-1 -50.932950834681236 34.329185026828881 0 0 0 -1 I I #
End-of-ACIS-data 