500 0 6 0           
7 Unknown 11 ACIS 5.0 NT 24 Fri Mar 26 00:37:05 1999 
-1 9.9999999999999995e-007 1e-010 
body $-1 $6 $-1 $7 #
body $-1 $8 $-1 $9 #
body $-1 $10 $-1 $11 #
body $-1 $12 $-1 $13 #
body $-1 $14 $-1 $15 #
body $-1 $16 $-1 $17 #
lump $-1 $-1 $18 $0 #
transform $-1 1 0 0 0 1 0 0 0 1 46.749473555711539 24.603003686151069 6.71677693334248 1 rotate no_reflect no_shear #
lump $-1 $-1 $19 $1 #
transform $-1 1 0 0 0 1 0 0 0 1 46.749473555711539 24.603003686151069 6.71677693334248 1 rotate no_reflect no_shear #
lump $-1 $-1 $20 $2 #
transform $-1 1 0 0 0 1 0 0 0 1 46.749473555711539 24.603003686151069 6.71677693334248 1 rotate no_reflect no_shear #
lump $-1 $-1 $21 $3 #
transform $-1 1 0 0 0 1 0 0 0 1 46.749473555711539 24.603003686151069 6.71677693334248 1 rotate no_reflect no_shear #
lump $-1 $-1 $22 $4 #
transform $-1 1 0 0 0 1 0 0 0 1 46.749473555711539 24.603003686151069 6.71677693334248 1 rotate no_reflect no_shear #
lump $-1 $-1 $23 $5 #
transform $-1 1 0 0 0 1 0 0 0 1 46.749473555711539 24.603003686151069 6.71677693334248 1 rotate no_reflect no_shear #
shell $-1 $-1 $-1 $24 $-1 $6 #
shell $-1 $-1 $-1 $25 $-1 $8 #
shell $-1 $-1 $-1 $26 $-1 $10 #
shell $-1 $-1 $-1 $27 $-1 $12 #
shell $-1 $-1 $-1 $28 $-1 $14 #
shell $-1 $-1 $-1 $29 $-1 $16 #
face $-1 $30 $31 $18 $-1 $32 forward single #
face $-1 $33 $34 $19 $-1 $35 forward single #
face $-1 $36 $37 $20 $-1 $38 forward single #
face $-1 $39 $40 $21 $-1 $41 reversed single #
face $-1 $42 $43 $22 $-1 $44 forward single #
face $-1 $45 $46 $23 $-1 $47 forward single #
face $-1 $48 $49 $18 $-1 $50 reversed single #
loop $-1 $-1 $51 $24 #
plane-surface $-1 0 0 6.71677693334248 0 0 1 1 0 0 forward_v I I I I #
face $-1 $52 $53 $19 $-1 $54 forward single #
loop $-1 $-1 $55 $25 #
plane-surface $-1 0 -24.603003686151069 0 0 1 0 0 0 1 forward_v I I I I #
face $-1 $56 $57 $20 $-1 $58 forward single #
loop $-1 $-1 $59 $26 #
plane-surface $-1 0 24.603003686151069 0 0 -1 0 0 0 -1 forward_v I I I I #
face $-1 $60 $61 $21 $-1 $62 reversed single #
loop $-1 $-1 $63 $27 #
plane-surface $-1 69.710536180774255 2.6380876908830011 133.18825650846784 0 -1 0 -0.81915205242281985 0 -0.57357642473473569 forward_v I I I I #
face $-1 $64 $65 $22 $-1 $66 forward single #
loop $-1 $67 $68 $28 #
cone-surface $-1 44.357181693239795 -3.3676477197450403 4.0866930935730714 -0.81915205242281985 0 -0.57357642473473569 0.57357642473473569 0 -0.81915205242281985 1 I I 0 1 1 forward I I I I #
face $-1 $69 $70 $23 $-1 $71 forward single #
loop $-1 $72 $73 $29 #
cone-surface $-1 44.357181693239795 0.23579352663178454 4.0866930935730714 -0.81915205242281985 0 -0.57357642473473569 0.57357642473473569 0 -0.81915205242281985 1 I I 0 1 1 forward I I I I #
face $-1 $74 $75 $18 $-1 $76 reversed single #
loop $-1 $-1 $77 $30 #
plane-surface $-1 0 0 -6.71677693334248 0 0 1 1 0 0 forward_v I I I I #
coedge $-1 $78 $79 $80 $81 forward $31 $-1 #
face $-1 $82 $83 $19 $-1 $84 reversed single #
loop $-1 $-1 $85 $33 #
plane-surface $-1 0 0 6.71677693334248 0 0 1 1 0 0 forward_v I I I I #
coedge $-1 $86 $87 $88 $89 forward $34 $-1 #
face $-1 $90 $91 $20 $-1 $92 reversed single #
loop $-1 $-1 $93 $36 #
plane-surface $-1 0 0 6.71677693334248 0 0 1 1 0 0 forward_v I I I I #
coedge $-1 $94 $95 $96 $97 forward $37 $-1 #
face $-1 $98 $99 $21 $-1 $100 reversed single #
loop $-1 $-1 $101 $39 #
plane-surface $-1 -6.8793182449206256 -1.5659270965566279 79.559464707835659 0.81915205242281985 0 0.57357642473473569 0.57357642473473569 0 -0.81915205242281985 forward_v I I I I #
coedge $-1 $102 $103 $104 $105 reversed $40 $-1 #
face $-1 $-1 $106 $22 $-1 $107 forward single #
loop $-1 $108 $109 $42 #
cone-surface $-1 42.867210933010718 -3.3676477197450403 3.043404367037148 -0.81915205242281985 0 -0.57357642473473569 0.28678821236736785 0 -0.40957602621140993 1 I I -0.70710678118654746 0.70710678118654746 0.5 forward I I I I #
loop $-1 $-1 $110 $28 #
coedge $-1 $68 $68 $111 $112 reversed $43 $-1 #
face $-1 $-1 $113 $23 $-1 $114 forward single #
loop $-1 $115 $116 $45 #
cone-surface $-1 42.867210933010718 0.23579352663178454 3.043404367037148 -0.81915205242281985 0 -0.57357642473473569 0.28678821236736785 0 -0.40957602621140993 1 I I -0.70710678118654746 0.70710678118654746 0.5 forward I I I I #
loop $-1 $-1 $117 $29 #
coedge $-1 $73 $73 $118 $119 reversed $46 $-1 #
face $-1 $120 $121 $18 $-1 $122 reversed single #
loop $-1 $-1 $123 $48 #
plane-surface $-1 0 -24.603003686151069 0 0 1 0 0 0 1 forward_v I I I I #
coedge $-1 $124 $125 $126 $127 forward $49 $-1 #
coedge $-1 $128 $51 $129 $130 forward $31 $-1 #
coedge $-1 $51 $128 $131 $132 forward $31 $-1 #
coedge $-1 $133 $134 $51 $81 reversed $135 $-1 #
edge $-1 $136 -24.603003686151069 $137 24.603003686151069 $80 $138 forward 7 unknown #
face $-1 $139 $140 $19 $-1 $141 reversed single #
loop $-1 $-1 $142 $52 #
plane-surface $-1 -46.749473555711539 0 0 1 0 0 0 0 -1 forward_v I I I I #
coedge $-1 $143 $144 $87 $145 forward $53 $-1 #
coedge $-1 $146 $55 $147 $148 reversed $34 $-1 #
coedge $-1 $55 $146 $85 $145 reversed $34 $-1 #
coedge $-1 $149 $150 $55 $89 reversed $151 $-1 #
edge $-1 $152 -6.71677693334248 $153 6.71677693334248 $88 $154 forward 7 unknown #
face $-1 $155 $156 $20 $-1 $157 reversed single #
loop $-1 $-1 $158 $56 #
plane-surface $-1 -45.249473555711539 30.054545405233171 0 0 -1 0 0 0 -1 forward_v I I I I #
coedge $-1 $159 $160 $94 $161 forward $57 $-1 #
coedge $-1 $162 $59 $93 $161 reversed $37 $-1 #
coedge $-1 $59 $162 $163 $164 reversed $37 $-1 #
coedge $-1 $165 $166 $59 $97 reversed $156 $-1 #
edge $-1 $167 -6.71677693334248 $168 6.71677693334248 $96 $169 forward 7 unknown #
face $-1 $170 $171 $21 $-1 $172 forward single #
loop $-1 $-1 $173 $60 #
plane-surface $-1 69.710536180774255 -5.7699418839962568 133.18825650846784 0 1 0 0.81915205242281985 0 0.57357642473473569 forward_v I I I I #
coedge $-1 $174 $175 $176 $177 reversed $61 $-1 #
coedge $-1 $103 $63 $178 $179 reversed $40 $-1 #
coedge $-1 $63 $102 $174 $180 reversed $40 $-1 #
coedge $-1 $176 $181 $63 $105 forward $171 $-1 #
edge $-1 $182 -11.894205465324411 $183 -9.2704112084162986 $104 $184 forward 7 unknown #
loop $-1 $-1 $111 $64 #
plane-surface $-1 -6.8793182449206256 -1.5659270965566279 79.559464707835659 0.81915205242281985 0 0.57357642473473569 0.57357642473473569 0 -0.81915205242281985 forward_v I I I I #
loop $-1 $-1 $185 $42 #
coedge $-1 $109 $109 $110 $186 reversed $65 $-1 #
coedge $-1 $110 $110 $109 $186 forward $67 $-1 #
coedge $-1 $111 $111 $68 $112 forward $106 $-1 #
edge $-1 $187 0 $187 6.2831853071796004 $111 $188 forward 7 unknown #
loop $-1 $-1 $118 $69 #
plane-surface $-1 -6.8793182449206256 -1.5659270965566279 79.559464707835659 0.81915205242281985 0 0.57357642473473569 0.57357642473473569 0 -0.81915205242281985 forward_v I I I I #
loop $-1 $-1 $189 $45 #
coedge $-1 $116 $116 $117 $190 reversed $70 $-1 #
coedge $-1 $117 $117 $116 $190 forward $72 $-1 #
coedge $-1 $118 $118 $73 $119 forward $113 $-1 #
edge $-1 $191 0 $191 6.2831853071796004 $118 $192 forward 7 unknown #
face $-1 $193 $194 $18 $-1 $195 reversed single #
loop $-1 $-1 $196 $74 #
plane-surface $-1 -46.749473555711539 0 0 1 0 0 0 0 -1 forward_v I I I I #
coedge $-1 $197 $131 $198 $199 forward $75 $-1 #
coedge $-1 $200 $77 $197 $201 forward $49 $-1 #
coedge $-1 $77 $200 $202 $203 forward $49 $-1 #
coedge $-1 $134 $133 $77 $127 reversed $135 $-1 #
edge $-1 $204 -24.603003686151069 $205 24.603003686151069 $126 $206 forward 7 unknown #
coedge $-1 $79 $78 $207 $208 forward $31 $-1 #
coedge $-1 $209 $210 $78 $130 reversed $194 $-1 #
edge $-1 $137 -46.749473555711539 $211 46.749473555711539 $129 $212 forward 7 unknown #
coedge $-1 $123 $213 $79 $132 reversed $75 $-1 #
edge $-1 $214 -46.749473555711539 $136 46.749473555711539 $131 $215 forward 7 unknown #
coedge $-1 $126 $80 $213 $216 forward $135 $-1 #
coedge $-1 $80 $126 $209 $217 reversed $135 $-1 #
loop $-1 $-1 $133 $193 #
vertex $-1 $81 $218 #
vertex $-1 $81 $219 #
straight-curve $-1 46.749473555711539 0 6.71677693334248 0 1 0 I I #
face $-1 $220 $151 $19 $-1 $221 reversed single #
loop $-1 $-1 $222 $82 #
plane-surface $-1 -45.249473555711539 -30.054545405233171 0 0 1 0 0 0 1 forward_v I I I I #
coedge $-1 $223 $224 $146 $225 forward $83 $-1 #
coedge $-1 $226 $85 $224 $227 forward $53 $-1 #
coedge $-1 $85 $226 $149 $228 forward $53 $-1 #
edge $-1 $152 43.749473555711539 $229 46.749473555711539 $85 $230 forward 7 unknown #
coedge $-1 $87 $86 $142 $225 reversed $34 $-1 #
coedge $-1 $231 $232 $86 $148 forward $233 $-1 #
edge $-1 $234 -46.749473555711539 $153 -43.749473555711539 $147 $235 forward 7 unknown #
coedge $-1 $236 $88 $144 $228 reversed $151 $-1 #
coedge $-1 $88 $236 $231 $237 reversed $151 $-1 #
loop $-1 $-1 $236 $139 #
vertex $-1 $145 $238 #
vertex $-1 $237 $239 #
straight-curve $-1 -43.749473555711539 -24.603003686151069 0 0 0 -1 I I #
face $-1 $240 $241 $20 $-1 $242 reversed single #
loop $-1 $-1 $96 $90 #
plane-surface $-1 -43.749473555711539 27.32877454569212 0 -1 0 0 0 0 1 forward_v I I I I #
coedge $-1 $243 $244 $245 $246 forward $91 $-1 #
coedge $-1 $247 $93 $166 $248 forward $57 $-1 #
coedge $-1 $93 $247 $249 $250 forward $57 $-1 #
edge $-1 $251 -46.749473555711539 $168 -43.749473555711539 $93 $252 forward 7 unknown #
coedge $-1 $95 $94 $253 $254 reversed $37 $-1 #
coedge $-1 $255 $256 $95 $164 forward $241 $-1 #
edge $-1 $167 43.749473555711539 $257 46.749473555711539 $163 $258 forward 7 unknown #
coedge $-1 $245 $96 $256 $259 reversed $156 $-1 #
coedge $-1 $96 $245 $159 $248 reversed $156 $-1 #
vertex $-1 $164 $260 #
vertex $-1 $248 $261 #
straight-curve $-1 -43.749473555711539 24.603003686151069 0 0 0 1 I I #
face $-1 $-1 $262 $21 $-1 $263 reversed single #
loop $-1 $-1 $104 $98 #
plane-surface $-1 0 0 6.71677693334248 0 0 1 1 0 0 forward_v I I I I #
coedge $-1 $264 $265 $266 $267 reversed $99 $-1 #
coedge $-1 $268 $101 $103 $180 forward $61 $-1 #
coedge $-1 $101 $268 $264 $269 forward $61 $-1 #
coedge $-1 $266 $104 $101 $177 forward $171 $-1 #
edge $-1 $183 -3.421051239161315 $270 4.9869783357179429 $176 $271 forward 7 unknown #
coedge $-1 $272 $273 $102 $179 forward $262 $-1 #
edge $-1 $274 -63.62451797209313 $182 -59.877351320891442 $178 $275 forward 7 unknown #
edge $-1 $183 88.924501329203963 $274 93.49894711142305 $103 $276 forward 7 unknown #
coedge $-1 $104 $266 $272 $277 forward $171 $-1 #
vertex $-1 $105 $278 #
vertex $-1 $105 $279 #
straight-curve $-1 34.855268090387128 2.6380876908830011 6.71677693334248 -1 0 0 I I #
coedge $-1 $185 $185 $-1 $280 reversed $108 $-1 #
edge $-1 $281 0 $281 6.2831853071796004 $109 $282 forward 7 unknown #
vertex $-1 $112 $283 #
ellipse-curve $-1 45.437576427257483 -3.3676477197450403 4.8431936077416387 0.81915205242281985 0 0.57357642473473569 0.57357642473473569 0 -0.81915205242281985 1 I I #
coedge $-1 $189 $189 $-1 $284 reversed $115 $-1 #
edge $-1 $285 0 $285 6.2831853071796004 $116 $286 forward 7 unknown #
vertex $-1 $119 $287 #
ellipse-curve $-1 45.437576427257483 0.23579352663178454 4.8431936077416387 0.81915205242281985 0 0.57357642473473569 0.57357642473473569 0 -0.81915205242281985 1 I I #
face $-1 $-1 $135 $18 $-1 $288 reversed single #
loop $-1 $-1 $209 $120 #
plane-surface $-1 0 24.603003686151069 0 0 -1 0 0 0 -1 forward_v I I I I #
coedge $-1 $289 $207 $210 $290 forward $121 $-1 #
coedge $-1 $213 $123 $124 $201 reversed $75 $-1 #
coedge $-1 $207 $289 $123 $199 reversed $121 $-1 #
edge $-1 $214 -6.71677693334248 $291 6.71677693334248 $198 $292 forward 7 unknown #
coedge $-1 $125 $124 $289 $293 forward $49 $-1 #
edge $-1 $205 -46.749473555711539 $291 46.749473555711539 $197 $294 forward 7 unknown #
coedge $-1 $210 $209 $125 $203 reversed $194 $-1 #
edge $-1 $295 -46.749473555711539 $204 46.749473555711539 $202 $296 forward 7 unknown #
vertex $-1 $127 $297 #
vertex $-1 $216 $298 #
straight-curve $-1 46.749473555711539 0 -6.71677693334248 0 -1 0 I I #
coedge $-1 $196 $198 $128 $208 reversed $121 $-1 #
edge $-1 $211 -24.603003686151069 $214 24.603003686151069 $207 $299 forward 7 unknown #
coedge $-1 $202 $129 $134 $217 forward $194 $-1 #
coedge $-1 $129 $202 $196 $290 reversed $194 $-1 #
vertex $-1 $130 $300 #
straight-curve $-1 0 24.603003686151069 6.71677693334248 -1 0 0 I I #
coedge $-1 $131 $197 $133 $216 reversed $75 $-1 #
vertex $-1 $208 $301 #
straight-curve $-1 0 -24.603003686151069 6.71677693334248 1 0 0 I I #
edge $-1 $136 -6.71677693334248 $205 6.71677693334248 $133 $302 forward 7 unknown #
edge $-1 $137 -6.71677693334248 $204 6.71677693334248 $134 $303 forward 7 unknown #
point $-1 46.749473555711539 -24.603003686151069 6.71677693334248 #
point $-1 46.749473555711539 24.603003686151069 6.71677693334248 #
face $-1 $-1 $233 $19 $-1 $304 reversed single #
plane-surface $-1 -43.749473555711539 -27.32877454569212 0 -1 0 0 0 0 1 forward_v I I I I #
coedge $-1 $305 $306 $307 $308 forward $140 $-1 #
coedge $-1 $307 $142 $232 $309 reversed $83 $-1 #
coedge $-1 $142 $307 $143 $227 reversed $83 $-1 #
edge $-1 $229 -6.71677693334248 $234 6.71677693334248 $142 $310 forward 7 unknown #
coedge $-1 $144 $143 $306 $311 forward $53 $-1 #
edge $-1 $229 24.603003686151069 $312 30.054545405233171 $224 $313 forward 7 unknown #
edge $-1 $314 -2.7257708595410506 $152 2.7257708595410506 $149 $315 forward 7 unknown #
vertex $-1 $227 $316 #
straight-curve $-1 0 -24.603003686151069 6.71677693334248 -1 0 0 I I #
coedge $-1 $317 $147 $150 $237 forward $233 $-1 #
coedge $-1 $147 $317 $223 $309 forward $233 $-1 #
loop $-1 $-1 $147 $220 #
vertex $-1 $225 $318 #
straight-curve $-1 0 -24.603003686151069 -6.71677693334248 1 0 0 I I #
coedge $-1 $150 $149 $319 $320 forward $151 $-1 #
edge $-1 $153 -2.7257708595410506 $321 2.7257708595410506 $150 $322 forward 7 unknown #
point $-1 -43.749473555711539 -24.603003686151069 6.71677693334248 #
point $-1 -43.749473555711539 -24.603003686151069 -6.71677693334248 #
face $-1 $-1 $323 $20 $-1 $324 reversed single #
loop $-1 $-1 $163 $155 #
plane-surface $-1 0 0 -6.71677693334248 0 0 1 1 0 0 forward_v I I I I #
coedge $-1 $325 $158 $326 $327 reversed $91 $-1 #
coedge $-1 $158 $325 $247 $328 reversed $91 $-1 #
coedge $-1 $166 $165 $158 $246 reversed $156 $-1 #
edge $-1 $329 -6.71677693334248 $330 6.71677693334248 $245 $331 forward 7 unknown #
coedge $-1 $160 $159 $244 $328 forward $57 $-1 #
edge $-1 $168 -2.7257708595410506 $329 2.7257708595410506 $166 $332 forward 7 unknown #
coedge $-1 $333 $253 $160 $250 reversed $323 $-1 #
edge $-1 $334 -30.054545405233171 $251 -24.603003686151069 $249 $335 forward 7 unknown #
vertex $-1 $254 $336 #
straight-curve $-1 0 24.603003686151069 6.71677693334248 1 0 0 I I #
coedge $-1 $249 $337 $162 $254 forward $323 $-1 #
edge $-1 $257 -6.71677693334248 $251 6.71677693334248 $253 $338 forward 7 unknown #
coedge $-1 $326 $163 $337 $339 forward $241 $-1 #
coedge $-1 $163 $326 $165 $259 forward $241 $-1 #
vertex $-1 $339 $340 #
straight-curve $-1 0 24.603003686151069 -6.71677693334248 -1 0 0 I I #
edge $-1 $330 -2.7257708595410506 $167 2.7257708595410506 $165 $341 forward 7 unknown #
point $-1 -43.749473555711539 24.603003686151069 -6.71677693334248 #
point $-1 -43.749473555711539 24.603003686151069 6.71677693334248 #
loop $-1 $-1 $178 $170 #
plane-surface $-1 46.749473555711539 0 0 -1 0 0 0 0 1 forward_v I I I I #
coedge $-1 $265 $173 $175 $269 reversed $99 $-1 #
coedge $-1 $173 $264 $342 $343 reversed $99 $-1 #
coedge $-1 $181 $176 $173 $267 forward $171 $-1 #
edge $-1 $270 9.2704112084162986 $344 11.894205465324411 $266 $345 forward 7 unknown #
coedge $-1 $175 $174 $273 $346 reversed $61 $-1 #
edge $-1 $347 -93.49894711142305 $270 -88.924501329203963 $264 $348 forward 7 unknown #
vertex $-1 $177 $349 #
straight-curve $-1 44.125679298803419 -0.78296354827831394 6.71677693334248 0 -1 0 I I #
coedge $-1 $342 $178 $181 $277 reversed $262 $-1 #
coedge $-1 $178 $342 $268 $346 forward $262 $-1 #
vertex $-1 $179 $350 #
straight-curve $-1 46.749473555711539 2.6380876908830011 66.594128254233922 0 0 1 I I #
straight-curve $-1 -6.8793182449206256 2.6380876908830011 79.559464707835659 0.57357642473473569 0 -0.81915205242281985 I I #
edge $-1 $344 -5.7699418839962568 $182 2.6380876908830011 $272 $351 forward 7 unknown #
point $-1 46.749473555711539 2.6380876908830011 6.71677693334248 #
point $-1 44.125679298803426 2.6380876908830011 6.7167769333424729 #
edge $-1 $352 1 $352 0 $185 $-1 forward 7 unknown #
vertex $-1 $186 $353 #
ellipse-curve $-1 43.276786959222129 -3.3676477197450403 3.3301925794045157 0.81915205242281985 0 0.57357642473473569 0.57357642473473569 0 -0.81915205242281985 1 I I #
point $-1 46.011152851992208 -3.3676477197450403 4.0240415553188074 #
edge $-1 $354 1 $354 0 $189 $-1 forward 7 unknown #
vertex $-1 $190 $355 #
ellipse-curve $-1 43.276786959222129 0.23579352663178454 3.3301925794045157 0.81915205242281985 0 0.57357642473473569 0.57357642473473569 0 -0.81915205242281985 1 I I #
point $-1 46.011152851992208 0.23579352663178454 4.0240415553188074 #
plane-surface $-1 46.749473555711539 0 0 -1 0 0 0 0 1 forward_v I I I I #
coedge $-1 $198 $196 $200 $293 reversed $121 $-1 #
edge $-1 $211 -6.71677693334248 $295 6.71677693334248 $210 $356 forward 7 unknown #
vertex $-1 $293 $357 #
straight-curve $-1 -46.749473555711539 -24.603003686151069 0 0 0 -1 I I #
edge $-1 $291 -24.603003686151069 $295 24.603003686151069 $289 $358 forward 7 unknown #
straight-curve $-1 0 -24.603003686151069 -6.71677693334248 -1 0 0 I I #
vertex $-1 $203 $359 #
straight-curve $-1 0 24.603003686151069 -6.71677693334248 1 0 0 I I #
point $-1 46.749473555711539 24.603003686151069 -6.71677693334248 #
point $-1 46.749473555711539 -24.603003686151069 -6.71677693334248 #
straight-curve $-1 -46.749473555711539 0 6.71677693334248 0 -1 0 I I #
point $-1 -46.749473555711539 24.603003686151069 6.71677693334248 #
point $-1 -46.749473555711539 -24.603003686151069 6.71677693334248 #
straight-curve $-1 46.749473555711539 -24.603003686151069 0 0 0 -1 I I #
straight-curve $-1 46.749473555711539 24.603003686151069 0 0 0 -1 I I #
plane-surface $-1 0 0 -6.71677693334248 0 0 1 1 0 0 forward_v I I I I #
coedge $-1 $319 $222 $317 $360 reversed $140 $-1 #
coedge $-1 $222 $319 $226 $311 reversed $140 $-1 #
coedge $-1 $224 $223 $222 $308 reversed $83 $-1 #
edge $-1 $312 -6.71677693334248 $361 6.71677693334248 $307 $362 forward 7 unknown #
edge $-1 $361 -30.054545405233171 $234 -24.603003686151069 $223 $363 forward 7 unknown #
straight-curve $-1 -46.749473555711539 -24.603003686151069 0 0 0 -1 I I #
edge $-1 $312 -1.5 $314 1.5 $306 $364 forward 7 unknown #
vertex $-1 $227 $365 #
straight-curve $-1 -46.749473555711539 0 6.71677693334248 0 -1 0 I I #
vertex $-1 $228 $366 #
straight-curve $-1 -43.749473555711539 -27.32877454569212 6.71677693334248 0 1 0 I I #
point $-1 -46.749473555711539 -24.603003686151069 6.71677693334248 #
coedge $-1 $232 $231 $305 $360 forward $233 $-1 #
point $-1 -46.749473555711539 -24.603003686151069 -6.71677693334248 #
coedge $-1 $306 $305 $236 $320 reversed $140 $-1 #
edge $-1 $314 -6.71677693334248 $321 6.71677693334248 $236 $367 forward 7 unknown #
vertex $-1 $320 $368 #
straight-curve $-1 -43.749473555711539 -27.32877454569212 -6.71677693334248 0 -1 0 I I #
loop $-1 $-1 $253 $240 #
plane-surface $-1 -46.749473555711539 0 0 1 0 0 0 0 -1 forward_v I I I I #
coedge $-1 $244 $243 $333 $369 reversed $91 $-1 #
coedge $-1 $256 $255 $243 $327 forward $241 $-1 #
edge $-1 $370 -1.5 $330 1.5 $243 $371 forward 7 unknown #
edge $-1 $329 -1.5 $334 1.5 $244 $372 forward 7 unknown #
vertex $-1 $248 $373 #
vertex $-1 $259 $374 #
straight-curve $-1 -43.749473555711539 30.054545405233171 0 0 0 -1 I I #
straight-curve $-1 -43.749473555711539 27.32877454569212 6.71677693334248 0 1 0 I I #
coedge $-1 $337 $249 $325 $369 forward $323 $-1 #
vertex $-1 $328 $375 #
straight-curve $-1 -46.749473555711539 0 6.71677693334248 0 -1 0 I I #
point $-1 -46.749473555711539 24.603003686151069 6.71677693334248 #
coedge $-1 $253 $333 $255 $339 reversed $323 $-1 #
straight-curve $-1 -46.749473555711539 24.603003686151069 0 0 0 1 I I #
edge $-1 $257 -2.7257708595410506 $370 2.7257708595410506 $337 $376 forward 7 unknown #
point $-1 -46.749473555711539 24.603003686151069 -6.71677693334248 #
straight-curve $-1 -43.749473555711539 27.32877454569212 -6.71677693334248 0 -1 0 I I #
coedge $-1 $273 $272 $265 $343 forward $262 $-1 #
edge $-1 $344 59.877351320891442 $347 63.62451797209313 $342 $377 forward 7 unknown #
vertex $-1 $277 $378 #
straight-curve $-1 34.855268090387128 -5.7699418839962568 6.71677693334248 1 0 0 I I #
edge $-1 $347 -4.9869783357179429 $274 3.421051239161315 $273 $379 forward 7 unknown #
vertex $-1 $346 $380 #
straight-curve $-1 -6.8793182449206256 -5.7699418839962568 79.559464707835659 -0.57357642473473569 0 0.81915205242281985 I I #
point $-1 44.125679298803426 -5.7699418839962568 6.7167769333424729 #
point $-1 46.749473555711539 2.6380876908830011 2.9696102821407919 #
straight-curve $-1 46.749473555711539 0 6.71677693334248 0 1 0 I I #
vertex $-1 $280 $381 #
point $-1 43.850363383956861 -3.3676477197450403 2.511040526981696 #
vertex $-1 $284 $382 #
point $-1 43.850363383956861 0.23579352663178454 2.511040526981696 #
straight-curve $-1 -46.749473555711539 24.603003686151069 0 0 0 -1 I I #
point $-1 -46.749473555711539 -24.603003686151069 -6.71677693334248 #
straight-curve $-1 -46.749473555711539 0 -6.71677693334248 0 1 0 I I #
point $-1 -46.749473555711539 24.603003686151069 -6.71677693334248 #
edge $-1 $321 -1.5 $361 1.5 $305 $383 forward 7 unknown #
vertex $-1 $309 $384 #
straight-curve $-1 -46.749473555711539 -30.054545405233171 0 0 0 -1 I I #
straight-curve $-1 -46.749473555711539 0 -6.71677693334248 0 1 0 I I #
straight-curve $-1 -45.249473555711539 -30.054545405233171 6.71677693334248 1 0 0 I I #
point $-1 -46.749473555711539 -30.054545405233171 6.71677693334248 #
point $-1 -43.749473555711539 -30.054545405233171 6.71677693334248 #
straight-curve $-1 -43.749473555711539 -30.054545405233171 0 0 0 -1 I I #
point $-1 -43.749473555711539 -30.054545405233171 -6.71677693334248 #
edge $-1 $334 -6.71677693334248 $370 6.71677693334248 $325 $385 forward 7 unknown #
vertex $-1 $327 $386 #
straight-curve $-1 -45.249473555711539 30.054545405233171 -6.71677693334248 1 0 0 I I #
straight-curve $-1 -45.249473555711539 30.054545405233171 6.71677693334248 -1 0 0 I I #
point $-1 -43.749473555711539 30.054545405233171 6.71677693334248 #
point $-1 -43.749473555711539 30.054545405233171 -6.71677693334248 #
point $-1 -46.749473555711539 30.054545405233171 6.71677693334248 #
straight-curve $-1 -46.749473555711539 27.32877454569212 -6.71677693334248 0 1 0 I I #
straight-curve $-1 46.749473555711539 -5.7699418839962568 66.594128254233922 0 0 -1 I I #
point $-1 46.749473555711539 -5.7699418839962568 6.71677693334248 #
straight-curve $-1 46.749473555711546 -0.78296354827831394 2.9696102821407919 0 1 0 I I #
point $-1 46.749473555711539 -5.7699418839962568 2.9696102821407919 #
point $-1 42.457634906799306 -3.3676477197450403 2.7566161546697803 #
point $-1 42.457634906799306 0.23579352663178454 2.7566161546697803 #
straight-curve $-1 -45.249473555711539 -30.054545405233171 -6.71677693334248 -1 0 0 I I #
point $-1 -46.749473555711539 -30.054545405233171 -6.71677693334248 #
straight-curve $-1 -46.749473555711539 30.054545405233171 0 0 0 -1 I I #
point $-1 -46.749473555711539 30.054545405233171 -6.71677693334248 #
End-of-ACIS-data 