500 0 14 0           
7 Unknown 11 ACIS 5.0 NT 24 Fri Mar 26 01:43:11 1999 
-1 9.9999999999999995e-007 1e-010 
body $-1 $14 $-1 $15 #
body $-1 $16 $-1 $17 #
body $-1 $18 $-1 $19 #
body $-1 $20 $-1 $21 #
body $-1 $22 $-1 $23 #
body $-1 $24 $-1 $25 #
body $-1 $26 $-1 $27 #
body $-1 $28 $-1 $29 #
body $-1 $30 $-1 $31 #
body $-1 $32 $-1 $33 #
body $-1 $34 $-1 $35 #
body $-1 $36 $-1 $37 #
body $-1 $38 $-1 $39 #
body $-1 $40 $-1 $41 #
lump $-1 $-1 $42 $0 #
transform $-1 1 0 0 0 1 0 0 0 1 47.350077822199161 20.110524705831519 6.6497238694501402 1 rotate no_reflect no_shear #
lump $-1 $-1 $43 $1 #
transform $-1 1 0 0 0 1 0 0 0 1 11.79944773890028 2.2625174565207731 6.6497238694501402 1 rotate no_reflect no_shear #
lump $-1 $-1 $44 $2 #
transform $-1 1 0 0 0 1 0 0 0 1 11.79944773890028 43.810445223797302 6.6497238694501402 1 rotate no_reflect no_shear #
lump $-1 $-1 $45 $3 #
transform $-1 0.80901698891910034 0 -0.5877852598018023 0 1 0 0.5877852598018023 0 0.80901698891910034 73.749476463510831 19.233518491870122 139.29278833474496 1 rotate no_reflect no_shear #
lump $-1 $-1 $46 $4 #
transform $-1 0.80901698891910034 0 -0.5877852598018023 0 -1 0 -0.5877852598018023 0 -0.80901698891910034 89.44288880331716 19.233518491870122 8.8737531051888894 1 rotate no_reflect no_shear #
lump $-1 $-1 $47 $5 #
transform $-1 0.62932038083071107 0 0.77714596973225614 0 1 0 -0.77714596973225614 0 0.62932038083071107 -73.595844292061514 9.3463326748362388 69.812759038522188 1 rotate no_reflect no_shear #
lump $-1 $-1 $48 $6 #
transform $-1 0.62932038083071107 0 0.77714596973225614 0 -1 0 0.77714596973225614 0 -0.62932038083071107 2.1227440431455236 8.0998326074521323 11.049748952846507 1 rotate no_reflect no_shear #
lump $-1 $-1 $49 $7 #
transform $-1 0.62932038083071107 0 0.77714596973225614 0 -1 0 0.77714596973225614 0 -0.62932038083071107 2.1227440431455236 10.592832742220345 11.049748952846507 1 rotate no_reflect no_shear #
lump $-1 $-1 $50 $8 #
transform $-1 0.62932038083071107 0 0.77714596973225614 0 1 0 -0.77714596973225614 0 0.62932038083071107 -73.595844292061514 18.783646350218035 69.812759038522188 1 rotate no_reflect no_shear #
lump $-1 $-1 $51 $9 #
transform $-1 0.62932038083071107 0 0.77714596973225614 0 -1 0 0.77714596973225614 0 -0.62932038083071107 2.1227440431455236 17.537146282833927 11.049748952846507 1 rotate no_reflect no_shear #
lump $-1 $-1 $52 $10 #
transform $-1 0.62932038083071107 0 0.77714596973225614 0 -1 0 0.77714596973225614 0 -0.62932038083071107 2.1227440431455236 20.03014641760214 11.049748952846507 1 rotate no_reflect no_shear #
lump $-1 $-1 $53 $11 #
transform $-1 0.62932038083071107 0 0.77714596973225614 0 1 0 -0.77714596973225614 0 0.62932038083071107 -73.595844292061514 28.22096002559983 69.812759038522188 1 rotate no_reflect no_shear #
lump $-1 $-1 $54 $12 #
transform $-1 0.62932038083071107 0 0.77714596973225614 0 -1 0 0.77714596973225614 0 -0.62932038083071107 2.1227440431455236 26.974459958215721 11.049748952846507 1 rotate no_reflect no_shear #
lump $-1 $-1 $55 $13 #
transform $-1 0.62932038083071107 0 0.77714596973225614 0 -1 0 0.77714596973225614 0 -0.62932038083071107 2.1227440431455236 29.467460092983934 11.049748952846507 1 rotate no_reflect no_shear #
shell $-1 $-1 $-1 $56 $-1 $14 #
shell $-1 $-1 $-1 $57 $-1 $16 #
shell $-1 $-1 $-1 $58 $-1 $18 #
shell $-1 $-1 $-1 $59 $-1 $20 #
shell $-1 $-1 $-1 $60 $-1 $22 #
shell $-1 $-1 $-1 $61 $-1 $24 #
shell $-1 $-1 $-1 $62 $-1 $26 #
shell $-1 $-1 $-1 $63 $-1 $28 #
shell $-1 $-1 $-1 $64 $-1 $30 #
shell $-1 $-1 $-1 $65 $-1 $32 #
shell $-1 $-1 $-1 $66 $-1 $34 #
shell $-1 $-1 $-1 $67 $-1 $36 #
shell $-1 $-1 $-1 $68 $-1 $38 #
shell $-1 $-1 $-1 $69 $-1 $40 #
face $-1 $70 $71 $42 $-1 $72 forward single #
face $-1 $73 $74 $43 $-1 $75 forward single #
face $-1 $76 $77 $44 $-1 $78 forward single #
face $-1 $79 $80 $45 $-1 $81 forward single #
face $-1 $82 $83 $46 $-1 $84 forward single #
face $-1 $85 $86 $47 $-1 $87 forward single #
face $-1 $88 $89 $48 $-1 $90 forward single #
face $-1 $91 $92 $49 $-1 $93 forward single #
face $-1 $94 $95 $50 $-1 $96 forward single #
face $-1 $97 $98 $51 $-1 $99 forward single #
face $-1 $100 $101 $52 $-1 $102 forward single #
face $-1 $103 $104 $53 $-1 $105 forward single #
face $-1 $106 $107 $54 $-1 $108 forward single #
face $-1 $109 $110 $55 $-1 $111 forward single #
face $-1 $112 $113 $42 $-1 $114 reversed single #
loop $-1 $-1 $115 $56 #
plane-surface $-1 0 0 6.6497238694501402 0 0 1 1 0 0 forward_v I I I I #
face $-1 $116 $117 $43 $-1 $118 reversed single #
loop $-1 $-1 $119 $57 #
plane-surface $-1 0 0 6.6497238694501402 0 0 1 1 0 0 forward_v I I I I #
face $-1 $120 $121 $44 $-1 $122 reversed single #
loop $-1 $-1 $123 $58 #
plane-surface $-1 0 0 6.6497238694501402 0 0 1 1 0 0 forward_v I I I I #
face $-1 $124 $125 $45 $-1 $126 reversed single #
loop $-1 $-1 $127 $59 #
plane-surface $-1 0 0 94.700155644398322 0 0 1 1 0 0 forward_v I I I I #
face $-1 $128 $129 $46 $-1 $130 forward single #
loop $-1 $131 $132 $60 #
cone-surface $-1 0 0 -1.0433515427106537 0 0 1 1 0 0 1 I I 0 1 1 forward I I I I #
face $-1 $133 $134 $47 $-1 $135 reversed single #
loop $-1 $-1 $136 $61 #
plane-surface $-1 0 0 94.700155644398322 0 0 1 1 0 0 forward_v I I I I #
face $-1 $137 $138 $48 $-1 $139 forward single #
loop $-1 $140 $141 $62 #
cone-surface $-1 0 0 -0.625 0 0 1 0.25 0 0 1 I I 0 1 0.25 forward I I I I #
face $-1 $142 $143 $49 $-1 $144 forward single #
loop $-1 $145 $146 $63 #
cone-surface $-1 0 0 -0.625 0 0 1 0.25 0 0 1 I I 0 1 0.25 forward I I I I #
face $-1 $147 $148 $50 $-1 $149 reversed single #
loop $-1 $-1 $150 $64 #
plane-surface $-1 0 0 94.700155644398322 0 0 1 1 0 0 forward_v I I I I #
face $-1 $151 $152 $51 $-1 $153 forward single #
loop $-1 $154 $155 $65 #
cone-surface $-1 0 0 -0.625 0 0 1 0.25 0 0 1 I I 0 1 0.25 forward I I I I #
face $-1 $156 $157 $52 $-1 $158 forward single #
loop $-1 $159 $160 $66 #
cone-surface $-1 0 0 -0.625 0 0 1 0.25 0 0 1 I I 0 1 0.25 forward I I I I #
face $-1 $161 $162 $53 $-1 $163 reversed single #
loop $-1 $-1 $164 $67 #
plane-surface $-1 0 0 94.700155644398322 0 0 1 1 0 0 forward_v I I I I #
face $-1 $165 $166 $54 $-1 $167 forward single #
loop $-1 $168 $169 $68 #
cone-surface $-1 0 0 -0.625 0 0 1 0.25 0 0 1 I I 0 1 0.25 forward I I I I #
face $-1 $170 $171 $55 $-1 $172 forward single #
loop $-1 $173 $174 $69 #
cone-surface $-1 0 0 -0.625 0 0 1 0.25 0 0 1 I I 0 1 0.25 forward I I I I #
face $-1 $175 $176 $42 $-1 $177 reversed single #
loop $-1 $-1 $178 $70 #
plane-surface $-1 0 0 -6.6497238694501402 0 0 1 1 0 0 forward_v I I I I #
coedge $-1 $179 $180 $181 $182 forward $71 $-1 #
face $-1 $183 $184 $43 $-1 $185 reversed single #
loop $-1 $-1 $186 $73 #
plane-surface $-1 0 0 -6.6497238694501402 0 0 1 1 0 0 forward_v I I I I #
coedge $-1 $187 $188 $189 $190 forward $74 $-1 #
face $-1 $191 $192 $44 $-1 $193 reversed single #
loop $-1 $-1 $194 $76 #
plane-surface $-1 0 0 -6.6497238694501402 0 0 1 1 0 0 forward_v I I I I #
coedge $-1 $195 $196 $197 $198 forward $77 $-1 #
face $-1 $199 $200 $45 $-1 $201 reversed single #
loop $-1 $-1 $202 $79 #
plane-surface $-1 0 0 -94.700155644398322 0 0 1 1 0 0 forward_v I I I I #
coedge $-1 $203 $204 $205 $206 forward $80 $-1 #
face $-1 $-1 $207 $46 $-1 $208 forward single #
loop $-1 $-1 $209 $82 #
plane-surface $-1 0 0 -1.5867030854213078 0 0 -1 -1 0 0 forward_v I I I I #
loop $-1 $-1 $210 $60 #
coedge $-1 $132 $132 $209 $211 reversed $83 $-1 #
face $-1 $212 $213 $47 $-1 $214 reversed single #
loop $-1 $-1 $215 $85 #
plane-surface $-1 0 0 -94.700155644398322 0 0 1 1 0 0 forward_v I I I I #
coedge $-1 $216 $217 $218 $219 forward $86 $-1 #
face $-1 $-1 $220 $48 $-1 $221 forward single #
loop $-1 $-1 $222 $88 #
plane-surface $-1 0 0 -1.125 0 0 -1 -1 0 0 forward_v I I I I #
loop $-1 $-1 $223 $62 #
coedge $-1 $141 $141 $222 $224 reversed $89 $-1 #
face $-1 $-1 $225 $49 $-1 $226 forward single #
loop $-1 $-1 $227 $91 #
plane-surface $-1 0 0 -1.125 0 0 -1 -1 0 0 forward_v I I I I #
loop $-1 $-1 $228 $63 #
coedge $-1 $146 $146 $227 $229 reversed $92 $-1 #
face $-1 $230 $231 $50 $-1 $232 reversed single #
loop $-1 $-1 $233 $94 #
plane-surface $-1 0 0 -94.700155644398322 0 0 1 1 0 0 forward_v I I I I #
coedge $-1 $234 $235 $236 $237 forward $95 $-1 #
face $-1 $-1 $238 $51 $-1 $239 forward single #
loop $-1 $-1 $240 $97 #
plane-surface $-1 0 0 -1.125 0 0 -1 -1 0 0 forward_v I I I I #
loop $-1 $-1 $241 $65 #
coedge $-1 $155 $155 $240 $242 reversed $98 $-1 #
face $-1 $-1 $243 $52 $-1 $244 forward single #
loop $-1 $-1 $245 $100 #
plane-surface $-1 0 0 -1.125 0 0 -1 -1 0 0 forward_v I I I I #
loop $-1 $-1 $246 $66 #
coedge $-1 $160 $160 $245 $247 reversed $101 $-1 #
face $-1 $248 $249 $53 $-1 $250 reversed single #
loop $-1 $-1 $251 $103 #
plane-surface $-1 0 0 -94.700155644398322 0 0 1 1 0 0 forward_v I I I I #
coedge $-1 $252 $253 $254 $255 forward $104 $-1 #
face $-1 $-1 $256 $54 $-1 $257 forward single #
loop $-1 $-1 $258 $106 #
plane-surface $-1 0 0 -1.125 0 0 -1 -1 0 0 forward_v I I I I #
loop $-1 $-1 $259 $68 #
coedge $-1 $169 $169 $258 $260 reversed $107 $-1 #
face $-1 $-1 $261 $55 $-1 $262 forward single #
loop $-1 $-1 $263 $109 #
plane-surface $-1 0 0 -1.125 0 0 -1 -1 0 0 forward_v I I I I #
loop $-1 $-1 $264 $69 #
coedge $-1 $174 $174 $263 $265 reversed $110 $-1 #
face $-1 $266 $267 $42 $-1 $268 reversed single #
loop $-1 $-1 $269 $112 #
plane-surface $-1 0 -20.110524705831519 0 0 1 0 0 0 1 forward_v I I I I #
coedge $-1 $270 $271 $272 $273 forward $113 $-1 #
coedge $-1 $274 $115 $275 $276 forward $71 $-1 #
coedge $-1 $115 $274 $277 $278 forward $71 $-1 #
coedge $-1 $279 $280 $115 $182 reversed $281 $-1 #
edge $-1 $282 -20.110524705831519 $283 20.110524705831519 $181 $284 forward 7 unknown #
face $-1 $285 $286 $43 $-1 $287 reversed single #
loop $-1 $-1 $288 $116 #
plane-surface $-1 0 -2.2625174565207731 0 0 1 0 0 0 1 forward_v I I I I #
coedge $-1 $289 $290 $291 $292 forward $117 $-1 #
coedge $-1 $293 $119 $294 $295 forward $74 $-1 #
coedge $-1 $119 $293 $296 $297 forward $74 $-1 #
coedge $-1 $298 $299 $119 $190 reversed $300 $-1 #
edge $-1 $301 -2.2625174565207731 $302 2.2625174565207731 $189 $303 forward 7 unknown #
face $-1 $304 $305 $44 $-1 $306 reversed single #
loop $-1 $-1 $307 $120 #
plane-surface $-1 0 -3.58939581213426 0 0 1 0 0 0 1 forward_v I I I I #
coedge $-1 $308 $309 $310 $311 forward $121 $-1 #
coedge $-1 $312 $123 $313 $314 forward $77 $-1 #
coedge $-1 $123 $312 $315 $316 forward $77 $-1 #
coedge $-1 $317 $318 $123 $198 reversed $319 $-1 #
edge $-1 $320 -3.58939581213426 $321 3.58939581213426 $197 $322 forward 7 unknown #
face $-1 $323 $324 $45 $-1 $325 reversed single #
loop $-1 $-1 $326 $124 #
plane-surface $-1 0 -4.0918743371687096 0 0 1 0 0 0 1 forward_v I I I I #
coedge $-1 $327 $328 $329 $330 forward $125 $-1 #
coedge $-1 $331 $127 $332 $333 forward $80 $-1 #
coedge $-1 $127 $331 $334 $335 forward $80 $-1 #
coedge $-1 $336 $337 $127 $206 reversed $338 $-1 #
edge $-1 $339 -4.0918743371687096 $340 4.0918743371687096 $205 $341 forward 7 unknown #
loop $-1 $342 $343 $128 #
cone-surface $-1 0 0 0 0 0 1 0.5 0 0 1 I I -0.70710678118654746 0.70710678118654746 0.5 forward I I I I #
coedge $-1 $209 $209 $132 $211 forward $129 $-1 #
coedge $-1 $210 $210 $343 $344 forward $131 $-1 #
edge $-1 $345 0 $345 6.2831853071796004 $209 $346 forward 7 unknown #
face $-1 $347 $348 $47 $-1 $349 reversed single #
loop $-1 $-1 $350 $133 #
plane-surface $-1 0 -2.9085001572295823 0 0 1 0 0 0 1 forward_v I I I I #
coedge $-1 $351 $352 $353 $354 forward $134 $-1 #
coedge $-1 $355 $136 $356 $357 forward $86 $-1 #
coedge $-1 $136 $355 $358 $359 forward $86 $-1 #
coedge $-1 $360 $361 $136 $219 reversed $362 $-1 #
edge $-1 $363 -2.9085001572295823 $364 2.9085001572295823 $218 $365 forward 7 unknown #
loop $-1 $366 $367 $137 #
cone-surface $-1 0 0 0 0 0 1 0.125 0 0 1 I I -0.70710678118654746 0.70710678118654746 0.125 forward I I I I #
coedge $-1 $222 $222 $141 $224 forward $138 $-1 #
coedge $-1 $223 $223 $367 $368 forward $140 $-1 #
edge $-1 $369 0 $369 6.2831853071796004 $222 $370 forward 7 unknown #
loop $-1 $371 $372 $142 #
cone-surface $-1 0 0 0 0 0 1 0.125 0 0 1 I I -0.70710678118654746 0.70710678118654746 0.125 forward I I I I #
coedge $-1 $227 $227 $146 $229 forward $143 $-1 #
coedge $-1 $228 $228 $372 $373 forward $145 $-1 #
edge $-1 $374 0 $374 6.2831853071796004 $227 $375 forward 7 unknown #
face $-1 $376 $377 $50 $-1 $378 reversed single #
loop $-1 $-1 $379 $147 #
plane-surface $-1 0 -2.9085001572295823 0 0 1 0 0 0 1 forward_v I I I I #
coedge $-1 $380 $381 $382 $383 forward $148 $-1 #
coedge $-1 $384 $150 $385 $386 forward $95 $-1 #
coedge $-1 $150 $384 $387 $388 forward $95 $-1 #
coedge $-1 $389 $390 $150 $237 reversed $391 $-1 #
edge $-1 $392 -2.9085001572295823 $393 2.9085001572295823 $236 $394 forward 7 unknown #
loop $-1 $395 $396 $151 #
cone-surface $-1 0 0 0 0 0 1 0.125 0 0 1 I I -0.70710678118654746 0.70710678118654746 0.125 forward I I I I #
coedge $-1 $240 $240 $155 $242 forward $152 $-1 #
coedge $-1 $241 $241 $396 $397 forward $154 $-1 #
edge $-1 $398 0 $398 6.2831853071796004 $240 $399 forward 7 unknown #
loop $-1 $400 $401 $156 #
cone-surface $-1 0 0 0 0 0 1 0.125 0 0 1 I I -0.70710678118654746 0.70710678118654746 0.125 forward I I I I #
coedge $-1 $245 $245 $160 $247 forward $157 $-1 #
coedge $-1 $246 $246 $401 $402 forward $159 $-1 #
edge $-1 $403 0 $403 6.2831853071796004 $245 $404 forward 7 unknown #
face $-1 $405 $406 $53 $-1 $407 reversed single #
loop $-1 $-1 $408 $161 #
plane-surface $-1 0 -2.9085001572295823 0 0 1 0 0 0 1 forward_v I I I I #
coedge $-1 $409 $410 $411 $412 forward $162 $-1 #
coedge $-1 $413 $164 $414 $415 forward $104 $-1 #
coedge $-1 $164 $413 $416 $417 forward $104 $-1 #
coedge $-1 $418 $419 $164 $255 reversed $420 $-1 #
edge $-1 $421 -2.9085001572295823 $422 2.9085001572295823 $254 $423 forward 7 unknown #
loop $-1 $424 $425 $165 #
cone-surface $-1 0 0 0 0 0 1 0.125 0 0 1 I I -0.70710678118654746 0.70710678118654746 0.125 forward I I I I #
coedge $-1 $258 $258 $169 $260 forward $166 $-1 #
coedge $-1 $259 $259 $425 $426 forward $168 $-1 #
edge $-1 $427 0 $427 6.2831853071796004 $258 $428 forward 7 unknown #
loop $-1 $429 $430 $170 #
cone-surface $-1 0 0 0 0 0 1 0.125 0 0 1 I I -0.70710678118654746 0.70710678118654746 0.125 forward I I I I #
coedge $-1 $263 $263 $174 $265 forward $171 $-1 #
coedge $-1 $264 $264 $430 $431 forward $173 $-1 #
edge $-1 $432 0 $432 6.2831853071796004 $263 $433 forward 7 unknown #
face $-1 $434 $435 $42 $-1 $436 reversed single #
loop $-1 $-1 $437 $175 #
plane-surface $-1 -47.350077822199161 0 0 1 0 0 0 0 -1 forward_v I I I I #
coedge $-1 $438 $277 $439 $440 forward $176 $-1 #
coedge $-1 $441 $178 $438 $442 forward $113 $-1 #
coedge $-1 $178 $441 $443 $444 forward $113 $-1 #
coedge $-1 $280 $279 $178 $273 reversed $281 $-1 #
edge $-1 $445 -20.110524705831519 $446 20.110524705831519 $272 $447 forward 7 unknown #
coedge $-1 $180 $179 $448 $449 forward $71 $-1 #
coedge $-1 $450 $451 $179 $276 reversed $435 $-1 #
edge $-1 $283 -47.350077822199161 $452 47.350077822199161 $275 $453 forward 7 unknown #
coedge $-1 $269 $454 $180 $278 reversed $176 $-1 #
edge $-1 $455 -47.350077822199161 $282 47.350077822199161 $277 $456 forward 7 unknown #
coedge $-1 $272 $181 $454 $457 forward $281 $-1 #
coedge $-1 $181 $272 $450 $458 reversed $281 $-1 #
loop $-1 $-1 $279 $434 #
vertex $-1 $182 $459 #
vertex $-1 $182 $460 #
straight-curve $-1 47.350077822199161 0 6.6497238694501402 0 1 0 I I #
face $-1 $461 $462 $43 $-1 $463 reversed single #
loop $-1 $-1 $464 $183 #
plane-surface $-1 -1.5 0 0 1 0 0 0 0 -1 forward_v I I I I #
coedge $-1 $465 $296 $466 $467 forward $184 $-1 #
coedge $-1 $468 $186 $465 $469 forward $117 $-1 #
coedge $-1 $186 $468 $470 $471 forward $117 $-1 #
coedge $-1 $299 $298 $186 $292 reversed $300 $-1 #
edge $-1 $472 -2.2625174565207731 $473 2.2625174565207731 $291 $474 forward 7 unknown #
coedge $-1 $188 $187 $475 $476 forward $74 $-1 #
coedge $-1 $477 $478 $187 $295 reversed $462 $-1 #
edge $-1 $302 -1.5 $479 1.5 $294 $480 forward 7 unknown #
coedge $-1 $288 $481 $188 $297 reversed $184 $-1 #
edge $-1 $482 -1.5 $301 1.5 $296 $483 forward 7 unknown #
coedge $-1 $291 $189 $481 $484 forward $300 $-1 #
coedge $-1 $189 $291 $477 $485 reversed $300 $-1 #
loop $-1 $-1 $298 $461 #
vertex $-1 $190 $486 #
vertex $-1 $190 $487 #
straight-curve $-1 1.5 0 6.6497238694501402 0 1 0 I I #
face $-1 $488 $489 $44 $-1 $490 reversed single #
loop $-1 $-1 $491 $191 #
plane-surface $-1 -1.5 0 0 1 0 0 0 0 -1 forward_v I I I I #
coedge $-1 $492 $315 $493 $494 forward $192 $-1 #
coedge $-1 $495 $194 $492 $496 forward $121 $-1 #
coedge $-1 $194 $495 $497 $498 forward $121 $-1 #
coedge $-1 $318 $317 $194 $311 reversed $319 $-1 #
edge $-1 $499 -3.58939581213426 $500 3.58939581213426 $310 $501 forward 7 unknown #
coedge $-1 $196 $195 $502 $503 forward $77 $-1 #
coedge $-1 $504 $505 $195 $314 reversed $489 $-1 #
edge $-1 $321 -1.5 $506 1.5 $313 $507 forward 7 unknown #
coedge $-1 $307 $508 $196 $316 reversed $192 $-1 #
edge $-1 $509 -1.5 $320 1.5 $315 $510 forward 7 unknown #
coedge $-1 $310 $197 $508 $511 forward $319 $-1 #
coedge $-1 $197 $310 $504 $512 reversed $319 $-1 #
loop $-1 $-1 $317 $488 #
vertex $-1 $198 $513 #
vertex $-1 $198 $514 #
straight-curve $-1 1.5 0 6.6497238694501402 0 1 0 I I #
face $-1 $515 $516 $45 $-1 $517 reversed single #
loop $-1 $-1 $518 $199 #
plane-surface $-1 -189.40031128879664 0 0 1 0 0 0 0 -1 forward_v I I I I #
coedge $-1 $519 $334 $520 $521 forward $200 $-1 #
coedge $-1 $522 $202 $519 $523 forward $125 $-1 #
coedge $-1 $202 $522 $524 $525 forward $125 $-1 #
coedge $-1 $337 $336 $202 $330 reversed $338 $-1 #
edge $-1 $526 -4.0918743371687096 $527 4.0918743371687096 $329 $528 forward 7 unknown #
coedge $-1 $204 $203 $529 $530 forward $80 $-1 #
coedge $-1 $531 $532 $203 $333 reversed $516 $-1 #
edge $-1 $340 -189.40031128879664 $533 189.40031128879664 $332 $534 forward 7 unknown #
coedge $-1 $326 $535 $204 $335 reversed $200 $-1 #
edge $-1 $536 -189.40031128879664 $339 189.40031128879664 $334 $537 forward 7 unknown #
coedge $-1 $329 $205 $535 $538 forward $338 $-1 #
coedge $-1 $205 $329 $531 $539 reversed $338 $-1 #
loop $-1 $-1 $336 $515 #
vertex $-1 $206 $540 #
vertex $-1 $206 $541 #
straight-curve $-1 189.40031128879664 0 94.700155644398322 0 1 0 I I #
loop $-1 $-1 $542 $128 #
coedge $-1 $343 $343 $210 $344 reversed $207 $-1 #
edge $-1 $543 0 $543 6.2831853071796004 $343 $544 forward 7 unknown #
vertex $-1 $211 $545 #
ellipse-curve $-1 0 0 -1.5867030854213078 0 0 -1 1 0 0 1 I I #
face $-1 $546 $547 $47 $-1 $548 reversed single #
loop $-1 $-1 $549 $212 #
plane-surface $-1 -189.40031128879664 0 0 1 0 0 0 0 -1 forward_v I I I I #
coedge $-1 $550 $358 $551 $552 forward $213 $-1 #
coedge $-1 $553 $215 $550 $554 forward $134 $-1 #
coedge $-1 $215 $553 $555 $556 forward $134 $-1 #
coedge $-1 $361 $360 $215 $354 reversed $362 $-1 #
edge $-1 $557 -2.9085001572295823 $558 2.9085001572295823 $353 $559 forward 7 unknown #
coedge $-1 $217 $216 $560 $561 forward $86 $-1 #
coedge $-1 $562 $563 $216 $357 reversed $547 $-1 #
edge $-1 $364 -189.40031128879664 $564 189.40031128879664 $356 $565 forward 7 unknown #
coedge $-1 $350 $566 $217 $359 reversed $213 $-1 #
edge $-1 $567 -189.40031128879664 $363 189.40031128879664 $358 $568 forward 7 unknown #
coedge $-1 $353 $218 $566 $569 forward $362 $-1 #
coedge $-1 $218 $353 $562 $570 reversed $362 $-1 #
loop $-1 $-1 $360 $546 #
vertex $-1 $219 $571 #
vertex $-1 $219 $572 #
straight-curve $-1 189.40031128879664 0 94.700155644398322 0 1 0 I I #
loop $-1 $-1 $573 $137 #
coedge $-1 $367 $367 $223 $368 reversed $220 $-1 #
edge $-1 $574 0 $574 6.2831853071796004 $367 $575 forward 7 unknown #
vertex $-1 $224 $576 #
ellipse-curve $-1 0 0 -1.125 0 0 -1 0.25 0 0 1 I I #
loop $-1 $-1 $577 $142 #
coedge $-1 $372 $372 $228 $373 reversed $225 $-1 #
edge $-1 $578 0 $578 6.2831853071796004 $372 $579 forward 7 unknown #
vertex $-1 $229 $580 #
ellipse-curve $-1 0 0 -1.125 0 0 -1 0.25 0 0 1 I I #
face $-1 $581 $582 $50 $-1 $583 reversed single #
loop $-1 $-1 $584 $230 #
plane-surface $-1 -189.40031128879664 0 0 1 0 0 0 0 -1 forward_v I I I I #
coedge $-1 $585 $387 $586 $587 forward $231 $-1 #
coedge $-1 $588 $233 $585 $589 forward $148 $-1 #
coedge $-1 $233 $588 $590 $591 forward $148 $-1 #
coedge $-1 $390 $389 $233 $383 reversed $391 $-1 #
edge $-1 $592 -2.9085001572295823 $593 2.9085001572295823 $382 $594 forward 7 unknown #
coedge $-1 $235 $234 $595 $596 forward $95 $-1 #
coedge $-1 $597 $598 $234 $386 reversed $582 $-1 #
edge $-1 $393 -189.40031128879664 $599 189.40031128879664 $385 $600 forward 7 unknown #
coedge $-1 $379 $601 $235 $388 reversed $231 $-1 #
edge $-1 $602 -189.40031128879664 $392 189.40031128879664 $387 $603 forward 7 unknown #
coedge $-1 $382 $236 $601 $604 forward $391 $-1 #
coedge $-1 $236 $382 $597 $605 reversed $391 $-1 #
loop $-1 $-1 $389 $581 #
vertex $-1 $237 $606 #
vertex $-1 $237 $607 #
straight-curve $-1 189.40031128879664 0 94.700155644398322 0 1 0 I I #
loop $-1 $-1 $608 $151 #
coedge $-1 $396 $396 $241 $397 reversed $238 $-1 #
edge $-1 $609 0 $609 6.2831853071796004 $396 $610 forward 7 unknown #
vertex $-1 $242 $611 #
ellipse-curve $-1 0 0 -1.125 0 0 -1 0.25 0 0 1 I I #
loop $-1 $-1 $612 $156 #
coedge $-1 $401 $401 $246 $402 reversed $243 $-1 #
edge $-1 $613 0 $613 6.2831853071796004 $401 $614 forward 7 unknown #
vertex $-1 $247 $615 #
ellipse-curve $-1 0 0 -1.125 0 0 -1 0.25 0 0 1 I I #
face $-1 $616 $617 $53 $-1 $618 reversed single #
loop $-1 $-1 $619 $248 #
plane-surface $-1 -189.40031128879664 0 0 1 0 0 0 0 -1 forward_v I I I I #
coedge $-1 $620 $416 $621 $622 forward $249 $-1 #
coedge $-1 $623 $251 $620 $624 forward $162 $-1 #
coedge $-1 $251 $623 $625 $626 forward $162 $-1 #
coedge $-1 $419 $418 $251 $412 reversed $420 $-1 #
edge $-1 $627 -2.9085001572295823 $628 2.9085001572295823 $411 $629 forward 7 unknown #
coedge $-1 $253 $252 $630 $631 forward $104 $-1 #
coedge $-1 $632 $633 $252 $415 reversed $617 $-1 #
edge $-1 $422 -189.40031128879664 $634 189.40031128879664 $414 $635 forward 7 unknown #
coedge $-1 $408 $636 $253 $417 reversed $249 $-1 #
edge $-1 $637 -189.40031128879664 $421 189.40031128879664 $416 $638 forward 7 unknown #
coedge $-1 $411 $254 $636 $639 forward $420 $-1 #
coedge $-1 $254 $411 $632 $640 reversed $420 $-1 #
loop $-1 $-1 $418 $616 #
vertex $-1 $255 $641 #
vertex $-1 $255 $642 #
straight-curve $-1 189.40031128879664 0 94.700155644398322 0 1 0 I I #
loop $-1 $-1 $643 $165 #
coedge $-1 $425 $425 $259 $426 reversed $256 $-1 #
edge $-1 $644 0 $644 6.2831853071796004 $425 $645 forward 7 unknown #
vertex $-1 $260 $646 #
ellipse-curve $-1 0 0 -1.125 0 0 -1 0.25 0 0 1 I I #
loop $-1 $-1 $647 $170 #
coedge $-1 $430 $430 $264 $431 reversed $261 $-1 #
edge $-1 $648 0 $648 6.2831853071796004 $430 $649 forward 7 unknown #
vertex $-1 $265 $650 #
ellipse-curve $-1 0 0 -1.125 0 0 -1 0.25 0 0 1 I I #
face $-1 $-1 $281 $42 $-1 $651 reversed single #
loop $-1 $-1 $450 $266 #
plane-surface $-1 0 20.110524705831519 0 0 -1 0 0 0 -1 forward_v I I I I #
coedge $-1 $652 $448 $451 $653 forward $267 $-1 #
coedge $-1 $454 $269 $270 $442 reversed $176 $-1 #
coedge $-1 $448 $652 $269 $440 reversed $267 $-1 #
edge $-1 $455 -6.6497238694501402 $654 6.6497238694501402 $439 $655 forward 7 unknown #
coedge $-1 $271 $270 $652 $656 forward $113 $-1 #
edge $-1 $446 -47.350077822199161 $654 47.350077822199161 $438 $657 forward 7 unknown #
coedge $-1 $451 $450 $271 $444 reversed $435 $-1 #
edge $-1 $658 -47.350077822199161 $445 47.350077822199161 $443 $659 forward 7 unknown #
vertex $-1 $273 $660 #
vertex $-1 $457 $661 #
straight-curve $-1 47.350077822199161 0 -6.6497238694501402 0 -1 0 I I #
coedge $-1 $437 $439 $274 $449 reversed $267 $-1 #
edge $-1 $452 -20.110524705831519 $455 20.110524705831519 $448 $662 forward 7 unknown #
coedge $-1 $443 $275 $280 $458 forward $435 $-1 #
coedge $-1 $275 $443 $437 $653 reversed $435 $-1 #
vertex $-1 $276 $663 #
straight-curve $-1 0 20.110524705831519 6.6497238694501402 -1 0 0 I I #
coedge $-1 $277 $438 $279 $457 reversed $176 $-1 #
vertex $-1 $449 $664 #
straight-curve $-1 0 -20.110524705831519 6.6497238694501402 1 0 0 I I #
edge $-1 $282 -6.6497238694501402 $446 6.6497238694501402 $279 $665 forward 7 unknown #
edge $-1 $283 -6.6497238694501402 $445 6.6497238694501402 $280 $666 forward 7 unknown #
point $-1 47.350077822199161 -20.110524705831519 6.6497238694501402 #
point $-1 47.350077822199161 20.110524705831519 6.6497238694501402 #
face $-1 $-1 $300 $43 $-1 $667 reversed single #
loop $-1 $-1 $477 $285 #
plane-surface $-1 0 2.2625174565207731 0 0 -1 0 0 0 -1 forward_v I I I I #
coedge $-1 $668 $475 $478 $669 forward $286 $-1 #
coedge $-1 $481 $288 $289 $469 reversed $184 $-1 #
coedge $-1 $475 $668 $288 $467 reversed $286 $-1 #
edge $-1 $482 -6.6497238694501402 $670 6.6497238694501402 $466 $671 forward 7 unknown #
coedge $-1 $290 $289 $668 $672 forward $117 $-1 #
edge $-1 $473 -1.5 $670 1.5 $465 $673 forward 7 unknown #
coedge $-1 $478 $477 $290 $471 reversed $462 $-1 #
edge $-1 $674 -1.5 $472 1.5 $470 $675 forward 7 unknown #
vertex $-1 $292 $676 #
vertex $-1 $484 $677 #
straight-curve $-1 1.5 0 -6.6497238694501402 0 -1 0 I I #
coedge $-1 $464 $466 $293 $476 reversed $286 $-1 #
edge $-1 $479 -2.2625174565207731 $482 2.2625174565207731 $475 $678 forward 7 unknown #
coedge $-1 $470 $294 $299 $485 forward $462 $-1 #
coedge $-1 $294 $470 $464 $669 reversed $462 $-1 #
vertex $-1 $295 $679 #
straight-curve $-1 0 2.2625174565207731 6.6497238694501402 -1 0 0 I I #
coedge $-1 $296 $465 $298 $484 reversed $184 $-1 #
vertex $-1 $476 $680 #
straight-curve $-1 0 -2.2625174565207731 6.6497238694501402 1 0 0 I I #
edge $-1 $301 -6.6497238694501402 $473 6.6497238694501402 $298 $681 forward 7 unknown #
edge $-1 $302 -6.6497238694501402 $472 6.6497238694501402 $299 $682 forward 7 unknown #
point $-1 1.5 -2.2625174565207731 6.6497238694501402 #
point $-1 1.5 2.2625174565207731 6.6497238694501402 #
face $-1 $-1 $319 $44 $-1 $683 reversed single #
loop $-1 $-1 $504 $304 #
plane-surface $-1 0 3.58939581213426 0 0 -1 0 0 0 -1 forward_v I I I I #
coedge $-1 $684 $502 $505 $685 forward $305 $-1 #
coedge $-1 $508 $307 $308 $496 reversed $192 $-1 #
coedge $-1 $502 $684 $307 $494 reversed $305 $-1 #
edge $-1 $509 -6.6497238694501402 $686 6.6497238694501402 $493 $687 forward 7 unknown #
coedge $-1 $309 $308 $684 $688 forward $121 $-1 #
edge $-1 $500 -1.5 $686 1.5 $492 $689 forward 7 unknown #
coedge $-1 $505 $504 $309 $498 reversed $489 $-1 #
edge $-1 $690 -1.5 $499 1.5 $497 $691 forward 7 unknown #
vertex $-1 $311 $692 #
vertex $-1 $511 $693 #
straight-curve $-1 1.5 0 -6.6497238694501402 0 -1 0 I I #
coedge $-1 $491 $493 $312 $503 reversed $305 $-1 #
edge $-1 $506 -3.58939581213426 $509 3.58939581213426 $502 $694 forward 7 unknown #
coedge $-1 $497 $313 $318 $512 forward $489 $-1 #
coedge $-1 $313 $497 $491 $685 reversed $489 $-1 #
vertex $-1 $314 $695 #
straight-curve $-1 0 3.58939581213426 6.6497238694501402 -1 0 0 I I #
coedge $-1 $315 $492 $317 $511 reversed $192 $-1 #
vertex $-1 $503 $696 #
straight-curve $-1 0 -3.58939581213426 6.6497238694501402 1 0 0 I I #
edge $-1 $320 -6.6497238694501402 $500 6.6497238694501402 $317 $697 forward 7 unknown #
edge $-1 $321 -6.6497238694501402 $499 6.6497238694501402 $318 $698 forward 7 unknown #
point $-1 1.5 -3.58939581213426 6.6497238694501402 #
point $-1 1.5 3.58939581213426 6.6497238694501402 #
face $-1 $-1 $338 $45 $-1 $699 reversed single #
loop $-1 $-1 $531 $323 #
plane-surface $-1 0 4.0918743371687096 0 0 -1 0 0 0 -1 forward_v I I I I #
coedge $-1 $700 $529 $532 $701 forward $324 $-1 #
coedge $-1 $535 $326 $327 $523 reversed $200 $-1 #
coedge $-1 $529 $700 $326 $521 reversed $324 $-1 #
edge $-1 $536 -94.700155644398322 $702 94.700155644398322 $520 $703 forward 7 unknown #
coedge $-1 $328 $327 $700 $704 forward $125 $-1 #
edge $-1 $527 -189.40031128879664 $702 189.40031128879664 $519 $705 forward 7 unknown #
coedge $-1 $532 $531 $328 $525 reversed $516 $-1 #
edge $-1 $706 -189.40031128879664 $526 189.40031128879664 $524 $707 forward 7 unknown #
vertex $-1 $330 $708 #
vertex $-1 $538 $709 #
straight-curve $-1 189.40031128879664 0 -94.700155644398322 0 -1 0 I I #
coedge $-1 $518 $520 $331 $530 reversed $324 $-1 #
edge $-1 $533 -4.0918743371687096 $536 4.0918743371687096 $529 $710 forward 7 unknown #
coedge $-1 $524 $332 $337 $539 forward $516 $-1 #
coedge $-1 $332 $524 $518 $701 reversed $516 $-1 #
vertex $-1 $333 $711 #
straight-curve $-1 0 4.0918743371687096 94.700155644398322 -1 0 0 I I #
coedge $-1 $334 $519 $336 $538 reversed $200 $-1 #
vertex $-1 $530 $712 #
straight-curve $-1 0 -4.0918743371687096 94.700155644398322 1 0 0 I I #
edge $-1 $339 -94.700155644398322 $527 94.700155644398322 $336 $713 forward 7 unknown #
edge $-1 $340 -94.700155644398322 $526 94.700155644398322 $337 $714 forward 7 unknown #
point $-1 189.40031128879664 -4.0918743371687096 94.700155644398322 #
point $-1 189.40031128879664 4.0918743371687096 94.700155644398322 #
coedge $-1 $542 $542 $-1 $715 reversed $342 $-1 #
vertex $-1 $344 $716 #
ellipse-curve $-1 0 0 -0.5 0 0 -1 1 0 0 1 I I #
point $-1 1 0 -1.5867030854213078 #
face $-1 $-1 $362 $47 $-1 $717 reversed single #
loop $-1 $-1 $562 $347 #
plane-surface $-1 0 2.9085001572295823 0 0 -1 0 0 0 -1 forward_v I I I I #
coedge $-1 $718 $560 $563 $719 forward $348 $-1 #
coedge $-1 $566 $350 $351 $554 reversed $213 $-1 #
coedge $-1 $560 $718 $350 $552 reversed $348 $-1 #
edge $-1 $567 -94.700155644398322 $720 94.700155644398322 $551 $721 forward 7 unknown #
coedge $-1 $352 $351 $718 $722 forward $134 $-1 #
edge $-1 $558 -189.40031128879664 $720 189.40031128879664 $550 $723 forward 7 unknown #
coedge $-1 $563 $562 $352 $556 reversed $547 $-1 #
edge $-1 $724 -189.40031128879664 $557 189.40031128879664 $555 $725 forward 7 unknown #
vertex $-1 $354 $726 #
vertex $-1 $569 $727 #
straight-curve $-1 189.40031128879664 0 -94.700155644398322 0 -1 0 I I #
coedge $-1 $549 $551 $355 $561 reversed $348 $-1 #
edge $-1 $564 -2.9085001572295823 $567 2.9085001572295823 $560 $728 forward 7 unknown #
coedge $-1 $555 $356 $361 $570 forward $547 $-1 #
coedge $-1 $356 $555 $549 $719 reversed $547 $-1 #
vertex $-1 $357 $729 #
straight-curve $-1 0 2.9085001572295823 94.700155644398322 -1 0 0 I I #
coedge $-1 $358 $550 $360 $569 reversed $213 $-1 #
vertex $-1 $561 $730 #
straight-curve $-1 0 -2.9085001572295823 94.700155644398322 1 0 0 I I #
edge $-1 $363 -94.700155644398322 $558 94.700155644398322 $360 $731 forward 7 unknown #
edge $-1 $364 -94.700155644398322 $557 94.700155644398322 $361 $732 forward 7 unknown #
point $-1 189.40031128879664 -2.9085001572295823 94.700155644398322 #
point $-1 189.40031128879664 2.9085001572295823 94.700155644398322 #
coedge $-1 $573 $573 $-1 $733 reversed $366 $-1 #
vertex $-1 $368 $734 #
ellipse-curve $-1 0 0 -0.125 0 0 -1 0.25 0 0 1 I I #
point $-1 0.25 0 -1.125 #
coedge $-1 $577 $577 $-1 $735 reversed $371 $-1 #
vertex $-1 $373 $736 #
ellipse-curve $-1 0 0 -0.125 0 0 -1 0.25 0 0 1 I I #
point $-1 0.25 0 -1.125 #
face $-1 $-1 $391 $50 $-1 $737 reversed single #
loop $-1 $-1 $597 $376 #
plane-surface $-1 0 2.9085001572295823 0 0 -1 0 0 0 -1 forward_v I I I I #
coedge $-1 $738 $595 $598 $739 forward $377 $-1 #
coedge $-1 $601 $379 $380 $589 reversed $231 $-1 #
coedge $-1 $595 $738 $379 $587 reversed $377 $-1 #
edge $-1 $602 -94.700155644398322 $740 94.700155644398322 $586 $741 forward 7 unknown #
coedge $-1 $381 $380 $738 $742 forward $148 $-1 #
edge $-1 $593 -189.40031128879664 $740 189.40031128879664 $585 $743 forward 7 unknown #
coedge $-1 $598 $597 $381 $591 reversed $582 $-1 #
edge $-1 $744 -189.40031128879664 $592 189.40031128879664 $590 $745 forward 7 unknown #
vertex $-1 $383 $746 #
vertex $-1 $604 $747 #
straight-curve $-1 189.40031128879664 0 -94.700155644398322 0 -1 0 I I #
coedge $-1 $584 $586 $384 $596 reversed $377 $-1 #
edge $-1 $599 -2.9085001572295823 $602 2.9085001572295823 $595 $748 forward 7 unknown #
coedge $-1 $590 $385 $390 $605 forward $582 $-1 #
coedge $-1 $385 $590 $584 $739 reversed $582 $-1 #
vertex $-1 $386 $749 #
straight-curve $-1 0 2.9085001572295823 94.700155644398322 -1 0 0 I I #
coedge $-1 $387 $585 $389 $604 reversed $231 $-1 #
vertex $-1 $596 $750 #
straight-curve $-1 0 -2.9085001572295823 94.700155644398322 1 0 0 I I #
edge $-1 $392 -94.700155644398322 $593 94.700155644398322 $389 $751 forward 7 unknown #
edge $-1 $393 -94.700155644398322 $592 94.700155644398322 $390 $752 forward 7 unknown #
point $-1 189.40031128879664 -2.9085001572295823 94.700155644398322 #
point $-1 189.40031128879664 2.9085001572295823 94.700155644398322 #
coedge $-1 $608 $608 $-1 $753 reversed $395 $-1 #
vertex $-1 $397 $754 #
ellipse-curve $-1 0 0 -0.125 0 0 -1 0.25 0 0 1 I I #
point $-1 0.25 0 -1.125 #
coedge $-1 $612 $612 $-1 $755 reversed $400 $-1 #
vertex $-1 $402 $756 #
ellipse-curve $-1 0 0 -0.125 0 0 -1 0.25 0 0 1 I I #
point $-1 0.25 0 -1.125 #
face $-1 $-1 $420 $53 $-1 $757 reversed single #
loop $-1 $-1 $632 $405 #
plane-surface $-1 0 2.9085001572295823 0 0 -1 0 0 0 -1 forward_v I I I I #
coedge $-1 $758 $630 $633 $759 forward $406 $-1 #
coedge $-1 $636 $408 $409 $624 reversed $249 $-1 #
coedge $-1 $630 $758 $408 $622 reversed $406 $-1 #
edge $-1 $637 -94.700155644398322 $760 94.700155644398322 $621 $761 forward 7 unknown #
coedge $-1 $410 $409 $758 $762 forward $162 $-1 #
edge $-1 $628 -189.40031128879664 $760 189.40031128879664 $620 $763 forward 7 unknown #
coedge $-1 $633 $632 $410 $626 reversed $617 $-1 #
edge $-1 $764 -189.40031128879664 $627 189.40031128879664 $625 $765 forward 7 unknown #
vertex $-1 $412 $766 #
vertex $-1 $639 $767 #
straight-curve $-1 189.40031128879664 0 -94.700155644398322 0 -1 0 I I #
coedge $-1 $619 $621 $413 $631 reversed $406 $-1 #
edge $-1 $634 -2.9085001572295823 $637 2.9085001572295823 $630 $768 forward 7 unknown #
coedge $-1 $625 $414 $419 $640 forward $617 $-1 #
coedge $-1 $414 $625 $619 $759 reversed $617 $-1 #
vertex $-1 $415 $769 #
straight-curve $-1 0 2.9085001572295823 94.700155644398322 -1 0 0 I I #
coedge $-1 $416 $620 $418 $639 reversed $249 $-1 #
vertex $-1 $631 $770 #
straight-curve $-1 0 -2.9085001572295823 94.700155644398322 1 0 0 I I #
edge $-1 $421 -94.700155644398322 $628 94.700155644398322 $418 $771 forward 7 unknown #
edge $-1 $422 -94.700155644398322 $627 94.700155644398322 $419 $772 forward 7 unknown #
point $-1 189.40031128879664 -2.9085001572295823 94.700155644398322 #
point $-1 189.40031128879664 2.9085001572295823 94.700155644398322 #
coedge $-1 $643 $643 $-1 $773 reversed $424 $-1 #
vertex $-1 $426 $774 #
ellipse-curve $-1 0 0 -0.125 0 0 -1 0.25 0 0 1 I I #
point $-1 0.25 0 -1.125 #
coedge $-1 $647 $647 $-1 $775 reversed $429 $-1 #
vertex $-1 $431 $776 #
ellipse-curve $-1 0 0 -0.125 0 0 -1 0.25 0 0 1 I I #
point $-1 0.25 0 -1.125 #
plane-surface $-1 47.350077822199161 0 0 -1 0 0 0 0 1 forward_v I I I I #
coedge $-1 $439 $437 $441 $656 reversed $267 $-1 #
edge $-1 $452 -6.6497238694501402 $658 6.6497238694501402 $451 $777 forward 7 unknown #
vertex $-1 $656 $778 #
straight-curve $-1 -47.350077822199161 -20.110524705831519 0 0 0 -1 I I #
edge $-1 $654 -20.110524705831519 $658 20.110524705831519 $652 $779 forward 7 unknown #
straight-curve $-1 0 -20.110524705831519 -6.6497238694501402 -1 0 0 I I #
vertex $-1 $444 $780 #
straight-curve $-1 0 20.110524705831519 -6.6497238694501402 1 0 0 I I #
point $-1 47.350077822199161 20.110524705831519 -6.6497238694501402 #
point $-1 47.350077822199161 -20.110524705831519 -6.6497238694501402 #
straight-curve $-1 -47.350077822199161 0 6.6497238694501402 0 -1 0 I I #
point $-1 -47.350077822199161 20.110524705831519 6.6497238694501402 #
point $-1 -47.350077822199161 -20.110524705831519 6.6497238694501402 #
straight-curve $-1 47.350077822199161 -20.110524705831519 0 0 0 -1 I I #
straight-curve $-1 47.350077822199161 20.110524705831519 0 0 0 -1 I I #
plane-surface $-1 1.5 0 0 -1 0 0 0 0 1 forward_v I I I I #
coedge $-1 $466 $464 $468 $672 reversed $286 $-1 #
edge $-1 $479 -6.6497238694501402 $674 6.6497238694501402 $478 $781 forward 7 unknown #
vertex $-1 $672 $782 #
straight-curve $-1 -1.5 -2.2625174565207731 0 0 0 -1 I I #
edge $-1 $670 -2.2625174565207731 $674 2.2625174565207731 $668 $783 forward 7 unknown #
straight-curve $-1 0 -2.2625174565207731 -6.6497238694501402 -1 0 0 I I #
vertex $-1 $471 $784 #
straight-curve $-1 0 2.2625174565207731 -6.6497238694501402 1 0 0 I I #
point $-1 1.5 2.2625174565207731 -6.6497238694501402 #
point $-1 1.5 -2.2625174565207731 -6.6497238694501402 #
straight-curve $-1 -1.5 0 6.6497238694501402 0 -1 0 I I #
point $-1 -1.5 2.2625174565207731 6.6497238694501402 #
point $-1 -1.5 -2.2625174565207731 6.6497238694501402 #
straight-curve $-1 1.5 -2.2625174565207731 0 0 0 -1 I I #
straight-curve $-1 1.5 2.2625174565207731 0 0 0 -1 I I #
plane-surface $-1 1.5 0 0 -1 0 0 0 0 1 forward_v I I I I #
coedge $-1 $493 $491 $495 $688 reversed $305 $-1 #
edge $-1 $506 -6.6497238694501402 $690 6.6497238694501402 $505 $785 forward 7 unknown #
vertex $-1 $688 $786 #
straight-curve $-1 -1.5 -3.58939581213426 0 0 0 -1 I I #
edge $-1 $686 -3.58939581213426 $690 3.58939581213426 $684 $787 forward 7 unknown #
straight-curve $-1 0 -3.58939581213426 -6.6497238694501402 -1 0 0 I I #
vertex $-1 $498 $788 #
straight-curve $-1 0 3.58939581213426 -6.6497238694501402 1 0 0 I I #
point $-1 1.5 3.58939581213426 -6.6497238694501402 #
point $-1 1.5 -3.58939581213426 -6.6497238694501402 #
straight-curve $-1 -1.5 0 6.6497238694501402 0 -1 0 I I #
point $-1 -1.5 3.58939581213426 6.6497238694501402 #
point $-1 -1.5 -3.58939581213426 6.6497238694501402 #
straight-curve $-1 1.5 -3.58939581213426 0 0 0 -1 I I #
straight-curve $-1 1.5 3.58939581213426 0 0 0 -1 I I #
plane-surface $-1 189.40031128879664 0 0 -1 0 0 0 0 1 forward_v I I I I #
coedge $-1 $520 $518 $522 $704 reversed $324 $-1 #
edge $-1 $533 -94.700155644398322 $706 94.700155644398322 $532 $789 forward 7 unknown #
vertex $-1 $704 $790 #
straight-curve $-1 -189.40031128879664 -4.0918743371687096 0 0 0 -1 I I #
edge $-1 $702 -4.0918743371687096 $706 4.0918743371687096 $700 $791 forward 7 unknown #
straight-curve $-1 0 -4.0918743371687096 -94.700155644398322 -1 0 0 I I #
vertex $-1 $525 $792 #
straight-curve $-1 0 4.0918743371687096 -94.700155644398322 1 0 0 I I #
point $-1 189.40031128879664 4.0918743371687096 -94.700155644398322 #
point $-1 189.40031128879664 -4.0918743371687096 -94.700155644398322 #
straight-curve $-1 -189.40031128879664 0 94.700155644398322 0 -1 0 I I #
point $-1 -189.40031128879664 4.0918743371687096 94.700155644398322 #
point $-1 -189.40031128879664 -4.0918743371687096 94.700155644398322 #
straight-curve $-1 189.40031128879664 -4.0918743371687096 0 0 0 -1 I I #
straight-curve $-1 189.40031128879664 4.0918743371687096 0 0 0 -1 I I #
edge $-1 $793 1 $793 0 $542 $-1 forward 7 unknown #
point $-1 1 0 -0.5 #
plane-surface $-1 189.40031128879664 0 0 -1 0 0 0 0 1 forward_v I I I I #
coedge $-1 $551 $549 $553 $722 reversed $348 $-1 #
edge $-1 $564 -94.700155644398322 $724 94.700155644398322 $563 $794 forward 7 unknown #
vertex $-1 $722 $795 #
straight-curve $-1 -189.40031128879664 -2.9085001572295823 0 0 0 -1 I I #
edge $-1 $720 -2.9085001572295823 $724 2.9085001572295823 $718 $796 forward 7 unknown #
straight-curve $-1 0 -2.9085001572295823 -94.700155644398322 -1 0 0 I I #
vertex $-1 $556 $797 #
straight-curve $-1 0 2.9085001572295823 -94.700155644398322 1 0 0 I I #
point $-1 189.40031128879664 2.9085001572295823 -94.700155644398322 #
point $-1 189.40031128879664 -2.9085001572295823 -94.700155644398322 #
straight-curve $-1 -189.40031128879664 0 94.700155644398322 0 -1 0 I I #
point $-1 -189.40031128879664 2.9085001572295823 94.700155644398322 #
point $-1 -189.40031128879664 -2.9085001572295823 94.700155644398322 #
straight-curve $-1 189.40031128879664 -2.9085001572295823 0 0 0 -1 I I #
straight-curve $-1 189.40031128879664 2.9085001572295823 0 0 0 -1 I I #
edge $-1 $798 1 $798 0 $573 $-1 forward 7 unknown #
point $-1 0.25 0 -0.125 #
edge $-1 $799 1 $799 0 $577 $-1 forward 7 unknown #
point $-1 0.25 0 -0.125 #
plane-surface $-1 189.40031128879664 0 0 -1 0 0 0 0 1 forward_v I I I I #
coedge $-1 $586 $584 $588 $742 reversed $377 $-1 #
edge $-1 $599 -94.700155644398322 $744 94.700155644398322 $598 $800 forward 7 unknown #
vertex $-1 $742 $801 #
straight-curve $-1 -189.40031128879664 -2.9085001572295823 0 0 0 -1 I I #
edge $-1 $740 -2.9085001572295823 $744 2.9085001572295823 $738 $802 forward 7 unknown #
straight-curve $-1 0 -2.9085001572295823 -94.700155644398322 -1 0 0 I I #
vertex $-1 $591 $803 #
straight-curve $-1 0 2.9085001572295823 -94.700155644398322 1 0 0 I I #
point $-1 189.40031128879664 2.9085001572295823 -94.700155644398322 #
point $-1 189.40031128879664 -2.9085001572295823 -94.700155644398322 #
straight-curve $-1 -189.40031128879664 0 94.700155644398322 0 -1 0 I I #
point $-1 -189.40031128879664 2.9085001572295823 94.700155644398322 #
point $-1 -189.40031128879664 -2.9085001572295823 94.700155644398322 #
straight-curve $-1 189.40031128879664 -2.9085001572295823 0 0 0 -1 I I #
straight-curve $-1 189.40031128879664 2.9085001572295823 0 0 0 -1 I I #
edge $-1 $804 1 $804 0 $608 $-1 forward 7 unknown #
point $-1 0.25 0 -0.125 #
edge $-1 $805 1 $805 0 $612 $-1 forward 7 unknown #
point $-1 0.25 0 -0.125 #
plane-surface $-1 189.40031128879664 0 0 -1 0 0 0 0 1 forward_v I I I I #
coedge $-1 $621 $619 $623 $762 reversed $406 $-1 #
edge $-1 $634 -94.700155644398322 $764 94.700155644398322 $633 $806 forward 7 unknown #
vertex $-1 $762 $807 #
straight-curve $-1 -189.40031128879664 -2.9085001572295823 0 0 0 -1 I I #
edge $-1 $760 -2.9085001572295823 $764 2.9085001572295823 $758 $808 forward 7 unknown #
straight-curve $-1 0 -2.9085001572295823 -94.700155644398322 -1 0 0 I I #
vertex $-1 $626 $809 #
straight-curve $-1 0 2.9085001572295823 -94.700155644398322 1 0 0 I I #
point $-1 189.40031128879664 2.9085001572295823 -94.700155644398322 #
point $-1 189.40031128879664 -2.9085001572295823 -94.700155644398322 #
straight-curve $-1 -189.40031128879664 0 94.700155644398322 0 -1 0 I I #
point $-1 -189.40031128879664 2.9085001572295823 94.700155644398322 #
point $-1 -189.40031128879664 -2.9085001572295823 94.700155644398322 #
straight-curve $-1 189.40031128879664 -2.9085001572295823 0 0 0 -1 I I #
straight-curve $-1 189.40031128879664 2.9085001572295823 0 0 0 -1 I I #
edge $-1 $810 1 $810 0 $643 $-1 forward 7 unknown #
point $-1 0.25 0 -0.125 #
edge $-1 $811 1 $811 0 $647 $-1 forward 7 unknown #
point $-1 0.25 0 -0.125 #
straight-curve $-1 -47.350077822199161 20.110524705831519 0 0 0 -1 I I #
point $-1 -47.350077822199161 -20.110524705831519 -6.6497238694501402 #
straight-curve $-1 -47.350077822199161 0 -6.6497238694501402 0 1 0 I I #
point $-1 -47.350077822199161 20.110524705831519 -6.6497238694501402 #
straight-curve $-1 -1.5 2.2625174565207731 0 0 0 -1 I I #
point $-1 -1.5 -2.2625174565207731 -6.6497238694501402 #
straight-curve $-1 -1.5 0 -6.6497238694501402 0 1 0 I I #
point $-1 -1.5 2.2625174565207731 -6.6497238694501402 #
straight-curve $-1 -1.5 3.58939581213426 0 0 0 -1 I I #
point $-1 -1.5 -3.58939581213426 -6.6497238694501402 #
straight-curve $-1 -1.5 0 -6.6497238694501402 0 1 0 I I #
point $-1 -1.5 3.58939581213426 -6.6497238694501402 #
straight-curve $-1 -189.40031128879664 4.0918743371687096 0 0 0 -1 I I #
point $-1 -189.40031128879664 -4.0918743371687096 -94.700155644398322 #
straight-curve $-1 -189.40031128879664 0 -94.700155644398322 0 1 0 I I #
point $-1 -189.40031128879664 4.0918743371687096 -94.700155644398322 #
vertex $-1 $715 $812 #
straight-curve $-1 -189.40031128879664 2.9085001572295823 0 0 0 -1 I I #
point $-1 -189.40031128879664 -2.9085001572295823 -94.700155644398322 #
straight-curve $-1 -189.40031128879664 0 -94.700155644398322 0 1 0 I I #
point $-1 -189.40031128879664 2.9085001572295823 -94.700155644398322 #
vertex $-1 $733 $813 #
vertex $-1 $735 $814 #
straight-curve $-1 -189.40031128879664 2.9085001572295823 0 0 0 -1 I I #
point $-1 -189.40031128879664 -2.9085001572295823 -94.700155644398322 #
straight-curve $-1 -189.40031128879664 0 -94.700155644398322 0 1 0 I I #
point $-1 -189.40031128879664 2.9085001572295823 -94.700155644398322 #
vertex $-1 $753 $815 #
vertex $-1 $755 $816 #
straight-curve $-1 -189.40031128879664 2.9085001572295823 0 0 0 -1 I I #
point $-1 -189.40031128879664 -2.9085001572295823 -94.700155644398322 #
straight-curve $-1 -189.40031128879664 0 -94.700155644398322 0 1 0 I I #
point $-1 -189.40031128879664 2.9085001572295823 -94.700155644398322 #
vertex $-1 $773 $817 #
vertex $-1 $775 $818 #
point $-1 0 0 0.5 #
point $-1 0 0 0.125 #
point $-1 0 0 0.125 #
point $-1 0 0 0.125 #
point $-1 0 0 0.125 #
point $-1 0 0 0.125 #
point $-1 0 0 0.125 #
End-of-ACIS-data 