500 0 6 0           
7 Unknown 11 ACIS 5.0 NT 24 Fri Mar 26 14:45:44 1999 
-1 9.9999999999999995e-007 1e-010 
body $-1 $6 $-1 $7 #
body $-1 $8 $-1 $9 #
body $-1 $10 $-1 $11 #
body $-1 $12 $-1 $13 #
body $-1 $14 $-1 $15 #
body $-1 $16 $-1 $17 #
lump $-1 $-1 $18 $0 #
transform $-1 1 0 0 0 1 0 0 0 1 58.024231696523941 24.320523714201165 7.3686726074967597 1 rotate no_reflect no_shear #
lump $-1 $-1 $19 $1 #
transform $-1 1 0 0 0 1 0 0 0 1 58.024231696523941 24.320523714201165 7.3686726074967597 1 rotate no_reflect no_shear #
lump $-1 $-1 $20 $2 #
transform $-1 1 0 0 0 1 0 0 0 1 58.024231696523941 24.320523714201165 7.3686726074967597 1 rotate no_reflect no_shear #
lump $-1 $-1 $21 $3 #
transform $-1 1 0 0 0 1 0 0 0 1 58.024231696523941 24.320523714201165 7.3686726074967597 1 rotate no_reflect no_shear #
lump $-1 $-1 $22 $4 #
transform $-1 1 0 0 0 1 0 0 0 1 58.024231696523941 24.320523714201165 7.3686726074967597 1 rotate no_reflect no_shear #
lump $-1 $-1 $23 $5 #
transform $-1 1 0 0 0 1 0 0 0 1 58.024231696523941 24.320523714201165 7.3686726074967597 1 rotate no_reflect no_shear #
shell $-1 $-1 $-1 $24 $-1 $6 #
shell $-1 $-1 $-1 $25 $-1 $8 #
shell $-1 $-1 $-1 $26 $-1 $10 #
shell $-1 $-1 $-1 $27 $-1 $12 #
shell $-1 $-1 $-1 $28 $-1 $14 #
shell $-1 $-1 $-1 $29 $-1 $16 #
face $-1 $30 $31 $18 $-1 $32 forward single #
face $-1 $33 $34 $19 $-1 $35 forward single #
face $-1 $36 $37 $20 $-1 $38 reversed single #
face $-1 $39 $40 $21 $-1 $41 forward single #
face $-1 $42 $43 $22 $-1 $44 reversed single #
face $-1 $45 $46 $23 $-1 $47 forward single #
face $-1 $48 $49 $18 $-1 $50 reversed single #
loop $-1 $-1 $51 $24 #
plane-surface $-1 0 0 7.3686726074967597 0 0 1 1 0 0 forward_v I I I I #
face $-1 $52 $53 $19 $-1 $54 reversed single #
loop $-1 $-1 $55 $25 #
plane-surface $-1 -58.024231696523941 0 0 1 0 0 0 0 -1 forward_v I I I I #
face $-1 $56 $57 $20 $-1 $58 reversed single #
loop $-1 $-1 $59 $26 #
plane-surface $-1 -23.615035560159836 -92.53209991928378 96.562751956559097 -1 0 0 0 -0.5877852598018023 0.80901698891910034 forward_v I I I I #
face $-1 $60 $61 $21 $-1 $62 forward single #
loop $-1 $63 $64 $27 #
cone-surface $-1 -36.021169857955691 -20.300228345568414 3.9331339653703514 0 0.5877852598018023 -0.80901698891910034 1 0 0 1 I I 0 1 1 forward I I I I #
face $-1 $65 $66 $22 $-1 $67 reversed single #
loop $-1 $-1 $68 $28 #
plane-surface $-1 -48.427304155751557 53.180666190886562 125.15324265629434 1 0 0 0 -0.5877852598018023 -0.80901698891910034 forward_v I I I I #
face $-1 $69 $70 $23 $-1 $71 forward single #
loop $-1 $72 $73 $29 #
cone-surface $-1 -36.021169857955691 20.30022834556841 3.9331339653703532 0 -0.5877852598018023 -0.80901698891910034 1 0 0 1 I I 0 1 1 forward I I I I #
face $-1 $74 $75 $18 $-1 $76 reversed single #
loop $-1 $-1 $77 $30 #
plane-surface $-1 0 0 -7.3686726074967597 0 0 1 1 0 0 forward_v I I I I #
coedge $-1 $78 $79 $80 $81 forward $31 $-1 #
face $-1 $82 $83 $19 $-1 $84 reversed single #
loop $-1 $-1 $85 $33 #
plane-surface $-1 0 24.320523714201165 0 0 -1 0 0 0 -1 forward_v I I I I #
coedge $-1 $86 $87 $88 $89 forward $34 $-1 #
face $-1 $90 $91 $20 $-1 $92 reversed single #
loop $-1 $-1 $93 $36 #
plane-surface $-1 -36.021169857955698 -24.320523714201187 2.6775735336270543 0 -0.5877852598018023 0.80901698891910034 1 0 0 forward_v I I I I #
coedge $-1 $94 $95 $96 $97 reversed $37 $-1 #
face $-1 $-1 $98 $21 $-1 $99 forward single #
loop $-1 $100 $101 $39 #
cone-surface $-1 -36.021169857955691 -19.214412260225448 2.438636365719252 0 0.5877852598018023 -0.80901698891910034 0.5 0 0 1 I I -0.70710678118654746 0.70710678118654746 0.5 forward I I I I #
loop $-1 $-1 $102 $27 #
coedge $-1 $64 $64 $103 $104 reversed $40 $-1 #
face $-1 $105 $106 $22 $-1 $107 reversed single #
loop $-1 $-1 $108 $42 #
plane-surface $-1 -36.021169857955698 -15.030910014196031 31.268064233362296 0 0.5877852598018023 0.80901698891910034 1 0 0 forward_v I I I I #
coedge $-1 $109 $110 $111 $112 reversed $43 $-1 #
face $-1 $-1 $113 $23 $-1 $114 forward single #
loop $-1 $115 $116 $45 #
cone-surface $-1 -36.021169857955691 19.214412260225444 2.4386363657192538 0 -0.5877852598018023 -0.80901698891910034 0.5 0 0 1 I I -0.70710678118654746 0.70710678118654746 0.5 forward I I I I #
loop $-1 $-1 $117 $29 #
coedge $-1 $73 $73 $118 $119 reversed $46 $-1 #
face $-1 $120 $121 $18 $-1 $122 reversed single #
loop $-1 $-1 $123 $48 #
plane-surface $-1 0 -24.320523714201165 0 0 1 0 0 0 1 forward_v I I I I #
coedge $-1 $124 $125 $126 $127 forward $49 $-1 #
coedge $-1 $128 $51 $129 $130 forward $31 $-1 #
coedge $-1 $51 $128 $131 $132 forward $31 $-1 #
coedge $-1 $133 $134 $51 $81 reversed $135 $-1 #
edge $-1 $136 -24.320523714201165 $137 24.320523714201165 $80 $138 forward 7 unknown #
face $-1 $139 $140 $19 $-1 $141 reversed single #
loop $-1 $-1 $88 $52 #
plane-surface $-1 -62.822695466910133 0 4.3686726074967597 0 0 1 1 0 0 forward_v I I I I #
coedge $-1 $142 $143 $86 $144 forward $53 $-1 #
coedge $-1 $145 $55 $85 $144 reversed $34 $-1 #
coedge $-1 $55 $145 $146 $147 reversed $34 $-1 #
coedge $-1 $148 $149 $55 $89 reversed $83 $-1 #
edge $-1 $150 -24.320523714201165 $151 24.320523714201165 $88 $152 forward 7 unknown #
face $-1 $153 $154 $20 $-1 $155 reversed single #
loop $-1 $-1 $156 $56 #
plane-surface $-1 -48.427304155751557 -92.53209991928378 96.562751956559097 1 0 0 0 0.5877852598018023 -0.80901698891910034 forward_v I I I I #
coedge $-1 $157 $158 $159 $160 reversed $57 $-1 #
coedge $-1 $95 $59 $161 $162 reversed $37 $-1 #
coedge $-1 $59 $94 $157 $163 reversed $37 $-1 #
coedge $-1 $159 $164 $59 $97 forward $165 $-1 #
edge $-1 $166 21.945526245440725 $167 28.402270071822059 $96 $168 forward 7 unknown #
loop $-1 $-1 $103 $60 #
plane-surface $-1 -36.021169857955698 -24.320523714201187 2.6775735336270543 0 -0.5877852598018023 0.80901698891910034 1 0 0 forward_v I I I I #
loop $-1 $-1 $169 $39 #
coedge $-1 $101 $101 $102 $170 reversed $61 $-1 #
coedge $-1 $102 $102 $101 $170 forward $63 $-1 #
coedge $-1 $103 $103 $64 $104 forward $98 $-1 #
edge $-1 $171 -1.8185464947312021e-015 $171 6.2831853071795987 $103 $172 forward 7 unknown #
face $-1 $173 $174 $22 $-1 $175 forward single #
loop $-1 $-1 $176 $65 #
plane-surface $-1 -23.615035560159836 53.180666190886562 125.15324265629434 -1 0 0 0 0.5877852598018023 0.80901698891910034 forward_v I I I I #
coedge $-1 $177 $178 $179 $180 reversed $66 $-1 #
coedge $-1 $110 $68 $181 $182 reversed $43 $-1 #
coedge $-1 $68 $109 $177 $183 reversed $43 $-1 #
coedge $-1 $179 $184 $68 $112 forward $174 $-1 #
edge $-1 $185 2.2698093812421156 $186 8.7265532076234784 $111 $187 forward 7 unknown #
loop $-1 $-1 $118 $69 #
plane-surface $-1 -36.021169857955698 -15.030910014196031 31.268064233362296 0 0.5877852598018023 0.80901698891910034 1 0 0 forward_v I I I I #
loop $-1 $-1 $188 $45 #
coedge $-1 $116 $116 $117 $189 reversed $70 $-1 #
coedge $-1 $117 $117 $116 $189 forward $72 $-1 #
coedge $-1 $118 $118 $73 $119 forward $113 $-1 #
edge $-1 $190 1.3022597424754572e-015 $190 6.2831853071796013 $118 $191 forward 7 unknown #
face $-1 $192 $193 $18 $-1 $194 reversed single #
loop $-1 $-1 $195 $74 #
plane-surface $-1 -58.024231696523941 0 0 1 0 0 0 0 -1 forward_v I I I I #
coedge $-1 $196 $131 $197 $198 forward $75 $-1 #
coedge $-1 $199 $77 $196 $200 forward $49 $-1 #
coedge $-1 $77 $199 $201 $202 forward $49 $-1 #
coedge $-1 $134 $133 $77 $127 reversed $135 $-1 #
edge $-1 $203 -24.320523714201165 $204 24.320523714201165 $126 $205 forward 7 unknown #
coedge $-1 $79 $78 $206 $207 forward $31 $-1 #
coedge $-1 $208 $209 $78 $130 reversed $193 $-1 #
edge $-1 $137 -58.024231696523941 $210 58.024231696523941 $129 $211 forward 7 unknown #
coedge $-1 $123 $212 $79 $132 reversed $75 $-1 #
edge $-1 $213 -58.024231696523941 $136 58.024231696523941 $131 $214 forward 7 unknown #
coedge $-1 $126 $80 $212 $215 forward $135 $-1 #
coedge $-1 $80 $126 $208 $216 reversed $135 $-1 #
loop $-1 $-1 $133 $192 #
vertex $-1 $81 $217 #
vertex $-1 $81 $218 #
straight-curve $-1 58.024231696523941 0 7.3686726074967597 0 1 0 I I #
face $-1 $219 $220 $19 $-1 $221 forward single #
loop $-1 $-1 $222 $82 #
plane-surface $-1 -67.621159237296325 0 5.8686726074967597 1 0 0 0 0 -1 forward_v I I I I #
coedge $-1 $223 $85 $149 $224 reversed $53 $-1 #
coedge $-1 $85 $223 $225 $226 reversed $53 $-1 #
edge $-1 $227 -7.3686726074967597 $151 -4.3686726074967597 $85 $228 forward 7 unknown #
coedge $-1 $87 $86 $229 $230 reversed $34 $-1 #
coedge $-1 $231 $232 $87 $147 forward $233 $-1 #
edge $-1 $150 4.3686726074967597 $234 7.3686726074967597 $146 $235 forward 7 unknown #
coedge $-1 $236 $88 $232 $237 forward $83 $-1 #
coedge $-1 $88 $236 $142 $224 forward $83 $-1 #
vertex $-1 $147 $238 #
vertex $-1 $144 $239 #
straight-curve $-1 -58.024231696523941 0 4.3686726074967597 0 1 0 I I #
face $-1 $-1 $165 $20 $-1 $240 forward single #
loop $-1 $-1 $241 $90 #
plane-surface $-1 0 -24.320523714201165 0 0 1 0 0 0 1 forward_v I I I I #
coedge $-1 $242 $243 $244 $245 reversed $91 $-1 #
coedge $-1 $246 $93 $95 $163 forward $57 $-1 #
coedge $-1 $93 $246 $242 $247 forward $57 $-1 #
coedge $-1 $244 $96 $93 $160 forward $165 $-1 #
edge $-1 $167 5.6044506311819866 $248 30.416719226773708 $159 $249 forward 7 unknown #
coedge $-1 $250 $251 $94 $162 forward $154 $-1 #
edge $-1 $252 -45.60380244465248 $166 -40.912703370782786 $161 $253 forward 7 unknown #
edge $-1 $167 -7.980974336531534 $252 -2.6381252543030654e-014 $95 $254 forward 7 unknown #
coedge $-1 $96 $244 $250 $255 forward $165 $-1 #
loop $-1 $-1 $244 $153 #
vertex $-1 $162 $256 #
vertex $-1 $97 $257 #
straight-curve $-1 -23.615035560159836 -46.26604995964189 7.3686726074967623 0 1 0 I I #
coedge $-1 $169 $169 $-1 $258 reversed $100 $-1 #
edge $-1 $259 0 $259 6.2831853071796004 $101 $260 forward 7 unknown #
vertex $-1 $104 $261 #
ellipse-curve $-1 -36.021169857955691 -21.092151801010491 5.023123070561919 0 -0.5877852598018023 0.80901698891910034 1 0 0 1 I I #
face $-1 $-1 $262 $22 $-1 $263 reversed single #
loop $-1 $-1 $111 $105 #
plane-surface $-1 0 0 7.3686726074967597 0 0 1 1 0 0 forward_v I I I I #
coedge $-1 $264 $265 $266 $267 reversed $106 $-1 #
coedge $-1 $268 $108 $110 $183 forward $66 $-1 #
coedge $-1 $108 $268 $264 $269 forward $66 $-1 #
coedge $-1 $266 $111 $108 $180 forward $174 $-1 #
edge $-1 $186 -30.416719226773708 $270 -5.6044506311819866 $179 $271 forward 7 unknown #
coedge $-1 $272 $273 $109 $182 forward $262 $-1 #
edge $-1 $274 -59.899047794520122 $185 -55.207948720650407 $181 $275 forward 7 unknown #
edge $-1 $186 40.660073091870778 $274 48.641047428402324 $110 $276 forward 7 unknown #
coedge $-1 $111 $266 $272 $277 forward $174 $-1 #
vertex $-1 $182 $278 #
vertex $-1 $112 $279 #
straight-curve $-1 -48.427304155751557 26.590333095443281 7.3686726074967623 0 -1 0 I I #
coedge $-1 $188 $188 $-1 $280 reversed $115 $-1 #
edge $-1 $281 0 $281 6.2831853071796004 $116 $282 forward 7 unknown #
vertex $-1 $119 $283 #
ellipse-curve $-1 -36.021169857955691 21.09215180101048 5.0231230705619101 0 0.5877852598018023 0.80901698891910034 1 0 0 1 I I #
face $-1 $-1 $135 $18 $-1 $284 reversed single #
loop $-1 $-1 $208 $120 #
plane-surface $-1 0 24.320523714201165 0 0 -1 0 0 0 -1 forward_v I I I I #
coedge $-1 $285 $206 $209 $286 forward $121 $-1 #
coedge $-1 $212 $123 $124 $200 reversed $75 $-1 #
coedge $-1 $206 $285 $123 $198 reversed $121 $-1 #
edge $-1 $213 -7.3686726074967597 $287 7.3686726074967597 $197 $288 forward 7 unknown #
coedge $-1 $125 $124 $285 $289 forward $49 $-1 #
edge $-1 $204 -58.024231696523941 $287 58.024231696523941 $196 $290 forward 7 unknown #
coedge $-1 $209 $208 $125 $202 reversed $193 $-1 #
edge $-1 $291 -58.024231696523941 $203 58.024231696523941 $201 $292 forward 7 unknown #
vertex $-1 $127 $293 #
vertex $-1 $215 $294 #
straight-curve $-1 58.024231696523941 0 -7.3686726074967597 0 -1 0 I I #
coedge $-1 $195 $197 $128 $207 reversed $121 $-1 #
edge $-1 $210 -24.320523714201165 $213 24.320523714201165 $206 $295 forward 7 unknown #
coedge $-1 $201 $129 $134 $216 forward $193 $-1 #
coedge $-1 $129 $201 $195 $286 reversed $193 $-1 #
vertex $-1 $130 $296 #
straight-curve $-1 0 24.320523714201165 7.3686726074967597 -1 0 0 I I #
coedge $-1 $131 $196 $133 $215 reversed $75 $-1 #
vertex $-1 $207 $297 #
straight-curve $-1 0 -24.320523714201165 7.3686726074967597 1 0 0 I I #
edge $-1 $136 -7.3686726074967597 $204 7.3686726074967597 $133 $298 forward 7 unknown #
edge $-1 $137 -7.3686726074967597 $203 7.3686726074967597 $134 $299 forward 7 unknown #
point $-1 58.024231696523941 -24.320523714201165 7.3686726074967597 #
point $-1 58.024231696523941 24.320523714201165 7.3686726074967597 #
face $-1 $-1 $233 $19 $-1 $300 reversed single #
loop $-1 $-1 $229 $139 #
plane-surface $-1 0 0 7.3686726074967597 0 0 1 1 0 0 forward_v I I I I #
coedge $-1 $301 $302 $223 $303 forward $140 $-1 #
coedge $-1 $143 $142 $222 $303 reversed $53 $-1 #
edge $-1 $304 -4.7984637703861921 $151 4.7984637703861921 $142 $305 forward 7 unknown #
coedge $-1 $306 $229 $143 $226 forward $220 $-1 #
edge $-1 $227 58.024231696523941 $307 67.621159237296325 $143 $308 forward 7 unknown #
vertex $-1 $226 $309 #
straight-curve $-1 -58.024231696523941 24.320523714201165 0 0 0 -1 I I #
coedge $-1 $225 $310 $145 $230 forward $220 $-1 #
edge $-1 $234 -24.320523714201165 $227 24.320523714201165 $229 $311 forward 7 unknown #
coedge $-1 $312 $146 $310 $313 reversed $233 $-1 #
coedge $-1 $146 $312 $148 $237 reversed $233 $-1 #
loop $-1 $-1 $146 $219 #
vertex $-1 $147 $314 #
straight-curve $-1 -58.024231696523941 -24.320523714201165 0 0 0 1 I I #
coedge $-1 $149 $148 $301 $315 forward $83 $-1 #
edge $-1 $150 -4.7984637703861921 $316 4.7984637703861921 $232 $317 forward 7 unknown #
point $-1 -58.024231696523941 -24.320523714201165 4.3686726074967597 #
point $-1 -58.024231696523941 24.320523714201165 4.3686726074967597 #
plane-surface $-1 0 0 7.3686726074967597 0 0 1 1 0 0 forward_v I I I I #
coedge $-1 $251 $250 $243 $318 forward $154 $-1 #
coedge $-1 $243 $156 $158 $247 reversed $91 $-1 #
coedge $-1 $156 $242 $241 $318 reversed $91 $-1 #
coedge $-1 $164 $159 $156 $245 forward $165 $-1 #
edge $-1 $248 -28.402270071822059 $319 -21.945526245440725 $244 $320 forward 7 unknown #
coedge $-1 $158 $157 $251 $321 reversed $57 $-1 #
edge $-1 $322 2.6381252543030654e-014 $248 7.980974336531534 $242 $323 forward 7 unknown #
vertex $-1 $160 $324 #
straight-curve $-1 -18.010584928977849 -17.863779887819828 7.3686726074967597 -1 0 0 I I #
coedge $-1 $241 $161 $164 $255 reversed $154 $-1 #
coedge $-1 $161 $241 $246 $321 forward $154 $-1 #
vertex $-1 $162 $325 #
straight-curve $-1 -23.615035560159836 -24.320523714201165 48.281375978279549 0 0 1 I I #
straight-curve $-1 -23.615035560159836 -24.320523714201187 2.6775735336270543 0 -0.80901698891910034 -0.5877852598018023 I I #
edge $-1 $319 -48.427304155751557 $166 -23.615035560159836 $250 $326 forward 7 unknown #
point $-1 -23.615035560159836 -24.320523714201165 7.3686726074967597 #
point $-1 -23.615035560159836 -17.863779887819831 7.3686726074967597 #
edge $-1 $327 1 $327 0 $169 $-1 forward 7 unknown #
vertex $-1 $170 $328 #
ellipse-curve $-1 -36.021169857955691 -19.50830489012635 2.8431448601788021 0 -0.5877852598018023 0.80901698891910034 1 0 0 1 I I #
point $-1 -35.021169857955691 -21.09215180101048 5.0231230705619012 #
loop $-1 $-1 $181 $173 #
plane-surface $-1 0 24.320523714201165 0 0 -1 0 0 0 -1 forward_v I I I I #
coedge $-1 $265 $176 $178 $269 reversed $106 $-1 #
coedge $-1 $176 $264 $329 $330 reversed $106 $-1 #
coedge $-1 $184 $179 $176 $267 forward $174 $-1 #
edge $-1 $270 -8.7265532076234784 $331 -2.2698093812421156 $266 $332 forward 7 unknown #
coedge $-1 $178 $177 $273 $333 reversed $66 $-1 #
edge $-1 $334 -48.641047428402324 $270 -40.660073091870778 $264 $335 forward 7 unknown #
vertex $-1 $180 $336 #
straight-curve $-1 -18.010584928977849 17.863779887819803 7.3686726074967588 1 0 0 I I #
coedge $-1 $329 $181 $184 $277 reversed $262 $-1 #
coedge $-1 $181 $329 $268 $333 forward $262 $-1 #
vertex $-1 $182 $337 #
straight-curve $-1 -48.427304155751557 24.320523714201165 62.576621328147169 0 0 1 I I #
straight-curve $-1 -48.427304155751557 -15.030910014196031 31.268064233362296 0 0.80901698891910034 -0.5877852598018023 I I #
edge $-1 $331 23.615035560159836 $185 48.427304155751557 $272 $338 forward 7 unknown #
point $-1 -48.427304155751557 24.320523714201165 7.3686726074967597 #
point $-1 -48.427304155751557 17.863779887819803 7.3686726074967588 #
edge $-1 $339 1 $339 0 $188 $-1 forward 7 unknown #
vertex $-1 $189 $340 #
ellipse-curve $-1 -36.021169857955691 19.508304890126347 2.8431448601788039 0 0.5877852598018023 0.80901698891910034 1 0 0 1 I I #
point $-1 -35.021169857955691 21.092151801010477 5.023123070561903 #
plane-surface $-1 58.024231696523941 0 0 -1 0 0 0 0 1 forward_v I I I I #
coedge $-1 $197 $195 $199 $289 reversed $121 $-1 #
edge $-1 $210 -7.3686726074967597 $291 7.3686726074967597 $209 $341 forward 7 unknown #
vertex $-1 $289 $342 #
straight-curve $-1 -58.024231696523941 -24.320523714201165 0 0 0 -1 I I #
edge $-1 $287 -24.320523714201165 $291 24.320523714201165 $285 $343 forward 7 unknown #
straight-curve $-1 0 -24.320523714201165 -7.3686726074967597 -1 0 0 I I #
vertex $-1 $202 $344 #
straight-curve $-1 0 24.320523714201165 -7.3686726074967597 1 0 0 I I #
point $-1 58.024231696523941 24.320523714201165 -7.3686726074967597 #
point $-1 58.024231696523941 -24.320523714201165 -7.3686726074967597 #
straight-curve $-1 -58.024231696523941 0 7.3686726074967597 0 -1 0 I I #
point $-1 -58.024231696523941 24.320523714201165 7.3686726074967597 #
point $-1 -58.024231696523941 -24.320523714201165 7.3686726074967597 #
straight-curve $-1 58.024231696523941 -24.320523714201165 0 0 0 -1 I I #
straight-curve $-1 58.024231696523941 24.320523714201165 0 0 0 -1 I I #
plane-surface $-1 0 -24.320523714201165 0 0 1 0 0 0 1 forward_v I I I I #
coedge $-1 $345 $222 $236 $315 reversed $140 $-1 #
coedge $-1 $222 $345 $306 $346 reversed $140 $-1 #
edge $-1 $307 -1.5 $304 1.5 $223 $347 forward 7 unknown #
vertex $-1 $224 $348 #
straight-curve $-1 -62.822695466910133 24.320523714201165 4.3686726074967597 1 0 0 I I #
coedge $-1 $310 $225 $302 $346 forward $220 $-1 #
vertex $-1 $226 $349 #
straight-curve $-1 0 24.320523714201165 7.3686726074967597 -1 0 0 I I #
point $-1 -58.024231696523941 24.320523714201165 7.3686726074967597 #
coedge $-1 $229 $306 $231 $313 forward $220 $-1 #
straight-curve $-1 -58.024231696523941 0 7.3686726074967597 0 1 0 I I #
coedge $-1 $232 $231 $345 $350 forward $233 $-1 #
edge $-1 $351 -67.621159237296325 $234 -58.024231696523941 $231 $352 forward 7 unknown #
point $-1 -58.024231696523941 -24.320523714201165 7.3686726074967597 #
edge $-1 $316 -24.320523714201165 $304 24.320523714201165 $301 $353 forward 7 unknown #
vertex $-1 $315 $354 #
straight-curve $-1 -62.822695466910133 -24.320523714201165 4.3686726074967597 -1 0 0 I I #
edge $-1 $319 40.912703370782786 $322 45.60380244465248 $241 $355 forward 7 unknown #
vertex $-1 $255 $356 #
straight-curve $-1 -48.427304155751557 -46.26604995964189 7.3686726074967623 0 -1 0 I I #
edge $-1 $322 -30.416719226773708 $252 -5.6044506311819866 $251 $357 forward 7 unknown #
vertex $-1 $321 $358 #
straight-curve $-1 -48.427304155751557 -24.320523714201187 2.6775735336270543 0 0.80901698891910034 0.5877852598018023 I I #
point $-1 -48.427304155751557 -17.863779887819831 7.3686726074967597 #
point $-1 -23.615035560159836 -24.320523714201165 2.6775735336270698 #
straight-curve $-1 0 -24.320523714201165 7.3686726074967597 1 0 0 I I #
vertex $-1 $258 $359 #
point $-1 -35.021169857955691 -19.50830489012635 2.8431448601788021 #
coedge $-1 $273 $272 $265 $330 forward $262 $-1 #
edge $-1 $331 55.207948720650407 $334 59.899047794520122 $329 $360 forward 7 unknown #
vertex $-1 $277 $361 #
straight-curve $-1 -23.615035560159836 26.590333095443281 7.3686726074967623 0 1 0 I I #
edge $-1 $334 5.6044506311819866 $274 30.416719226773708 $273 $362 forward 7 unknown #
vertex $-1 $333 $363 #
straight-curve $-1 -23.615035560159836 -15.030910014196031 31.268064233362296 0 -0.80901698891910034 0.5877852598018023 I I #
point $-1 -23.615035560159836 17.863779887819803 7.3686726074967588 #
point $-1 -48.427304155751557 24.320523714201165 2.6775735336270472 #
straight-curve $-1 0 24.320523714201165 7.3686726074967597 -1 0 0 I I #
vertex $-1 $280 $364 #
point $-1 -35.021169857955691 19.508304890126347 2.8431448601788039 #
straight-curve $-1 -58.024231696523941 24.320523714201165 0 0 0 -1 I I #
point $-1 -58.024231696523941 -24.320523714201165 -7.3686726074967597 #
straight-curve $-1 -58.024231696523941 0 -7.3686726074967597 0 1 0 I I #
point $-1 -58.024231696523941 24.320523714201165 -7.3686726074967597 #
coedge $-1 $302 $301 $312 $350 reversed $140 $-1 #
edge $-1 $307 -24.320523714201165 $351 24.320523714201165 $302 $365 forward 7 unknown #
straight-curve $-1 -67.621159237296325 24.320523714201165 5.8686726074967597 0 0 -1 I I #
point $-1 -67.621159237296325 24.320523714201165 4.3686726074967597 #
point $-1 -67.621159237296325 24.320523714201165 7.3686726074967597 #
edge $-1 $351 -1.5 $316 1.5 $345 $366 forward 7 unknown #
vertex $-1 $346 $367 #
straight-curve $-1 0 -24.320523714201165 7.3686726074967597 1 0 0 I I #
straight-curve $-1 -67.621159237296325 0 4.3686726074967597 0 1 0 I I #
point $-1 -67.621159237296325 -24.320523714201165 4.3686726074967597 #
straight-curve $-1 -48.427304155751557 -24.320523714201165 48.281375978279549 0 0 -1 I I #
point $-1 -48.427304155751557 -24.320523714201165 7.3686726074967597 #
straight-curve $-1 -18.010584928977849 -24.320523714201165 2.6775735336270694 1 0 0 I I #
point $-1 -48.427304155751557 -24.320523714201165 2.6775735336270698 #
point $-1 -36.021169857955691 -18.920519630324545 2.034127871259702 #
straight-curve $-1 -23.615035560159836 24.320523714201165 62.576621328147169 0 0 -1 I I #
point $-1 -23.615035560159836 24.320523714201165 7.3686726074967597 #
straight-curve $-1 -18.010584928977849 24.320523714201169 2.6775735336270419 -1 0 0 I I #
point $-1 -23.615035560159836 24.320523714201165 2.6775735336270472 #
point $-1 -36.021169857955691 18.920519630324542 2.0341278712597037 #
straight-curve $-1 -67.621159237296325 0 7.3686726074967597 0 -1 0 I I #
straight-curve $-1 -67.621159237296325 -24.320523714201165 5.8686726074967597 0 0 -1 I I #
point $-1 -67.621159237296325 -24.320523714201165 7.3686726074967597 #
End-of-ACIS-data 