500 0 8 0           
7 Unknown 11 ACIS 5.0 NT 24 Fri Mar 26 17:16:04 1999 
-1 9.9999999999999995e-007 1e-010 
body $-1 $8 $-1 $9 #
body $-1 $10 $-1 $11 #
body $-1 $12 $-1 $13 #
body $-1 $14 $-1 $15 #
body $-1 $16 $-1 $17 #
body $-1 $18 $-1 $19 #
body $-1 $20 $-1 $21 #
body $-1 $22 $-1 $23 #
lump $-1 $-1 $24 $0 #
transform $-1 1 0 0 0 1 0 0 0 1 69.5516830957976 35.263405914703959 16.305410606838318 1 rotate no_reflect no_shear #
lump $-1 $-1 $25 $1 #
transform $-1 1 0 0 0 1 0 0 0 1 69.5516830957976 35.263405914703959 16.305410606838318 1 rotate no_reflect no_shear #
lump $-1 $-1 $26 $2 #
transform $-1 1 0 0 0 1 0 0 0 1 69.5516830957976 35.263405914703959 16.305410606838318 1 rotate no_reflect no_shear #
lump $-1 $-1 $27 $3 #
transform $-1 1 0 0 0 1 0 0 0 1 69.5516830957976 35.263405914703959 16.305410606838318 1 rotate no_reflect no_shear #
lump $-1 $-1 $28 $4 #
transform $-1 1 0 0 0 1 0 0 0 1 69.5516830957976 35.263405914703959 16.305410606838318 1 rotate no_reflect no_shear #
lump $-1 $-1 $29 $5 #
transform $-1 1 0 0 0 1 0 0 0 1 69.5516830957976 35.263405914703959 16.305410606838318 1 rotate no_reflect no_shear #
lump $-1 $-1 $30 $6 #
transform $-1 1 0 0 0 1 0 0 0 1 69.5516830957976 35.263405914703959 16.305410606838318 1 rotate no_reflect no_shear #
lump $-1 $-1 $31 $7 #
transform $-1 1 0 0 0 1 0 0 0 1 69.5516830957976 35.263405914703959 16.305410606838318 1 rotate no_reflect no_shear #
shell $-1 $-1 $-1 $32 $-1 $8 #
shell $-1 $-1 $-1 $33 $-1 $10 #
shell $-1 $-1 $-1 $34 $-1 $12 #
shell $-1 $-1 $-1 $35 $-1 $14 #
shell $-1 $-1 $-1 $36 $-1 $16 #
shell $-1 $-1 $-1 $37 $-1 $18 #
shell $-1 $-1 $-1 $38 $-1 $20 #
shell $-1 $-1 $-1 $39 $-1 $22 #
face $-1 $40 $41 $24 $-1 $42 reversed single #
face $-1 $43 $44 $25 $-1 $45 reversed single #
face $-1 $46 $47 $26 $-1 $48 forward single #
face $-1 $49 $50 $27 $-1 $51 reversed single #
face $-1 $52 $53 $28 $-1 $54 forward single #
face $-1 $55 $56 $29 $-1 $57 forward single #
face $-1 $58 $59 $30 $-1 $60 reversed single #
face $-1 $61 $62 $31 $-1 $63 forward single #
face $-1 $64 $65 $24 $-1 $66 forward single #
loop $-1 $-1 $67 $32 #
plane-surface $-1 69.5516830957976 0 0 -1 0 0 0 0 1 forward_v I I I I #
face $-1 $68 $69 $25 $-1 $70 reversed single #
loop $-1 $-1 $71 $33 #
plane-surface $-1 -63.175927676230216 0 11.480617364802644 0 0 1 1 0 0 forward_v I I I I #
face $-1 $72 $73 $26 $-1 $74 reversed single #
loop $-1 $-1 $75 $34 #
plane-surface $-1 69.5516830957976 0 0 -1 0 0 0 0 1 forward_v I I I I #
face $-1 $76 $77 $27 $-1 $78 reversed single #
loop $-1 $-1 $79 $35 #
plane-surface $-1 17.646021799267601 -130.13167466445537 114.94902571842461 -1 0 0 0 -0.68199836817093118 0.7313536940579346 forward_v I I I I #
face $-1 $80 $81 $28 $-1 $82 forward single #
loop $-1 $83 $84 $36 #
cone-surface $-1 1.4608737822085089 -33.265519037443518 14.394660955544111 0 0.68199836817093118 -0.7313536940579346 0.5 0 0 1 I I 0 1 0.5 forward I I I I #
face $-1 $85 $86 $29 $-1 $87 forward single #
loop $-1 $88 $89 $37 #
cone-surface $-1 11.171962592443961 -33.265519037443518 14.394660955544111 0 0.68199836817093118 -0.7313536940579346 0.5 0 0 1 I I 0 1 0.5 forward I I I I #
face $-1 $90 $91 $30 $-1 $92 reversed single #
loop $-1 $-1 $93 $38 #
plane-surface $-1 -34.359403137294962 88.897999453214425 146.96035516562659 1 0 0 0 -0.73135370988377701 -0.68199835119979291 forward_v I I I I #
face $-1 $94 $95 $31 $-1 $96 forward single #
loop $-1 $97 $98 $39 #
cone-surface $-1 -17.660541194515801 22.117455558846462 3.0167626942633925 0 -0.73135370988377701 -0.68199835119979291 5 0 0 1 I I 0 1 5 forward I I I I #
face $-1 $99 $100 $24 $-1 $101 reversed single #
loop $-1 $-1 $102 $40 #
plane-surface $-1 0 0 16.305410606838318 0 0 1 1 0 0 forward_v I I I I #
coedge $-1 $103 $104 $105 $106 reversed $41 $-1 #
face $-1 $107 $108 $25 $-1 $109 reversed single #
loop $-1 $-1 $110 $43 #
plane-surface $-1 -56.800172256662833 0 13.893013985820481 -1 0 0 0 0 1 forward_v I I I I #
coedge $-1 $111 $112 $113 $114 forward $44 $-1 #
face $-1 $115 $116 $26 $-1 $117 forward single #
loop $-1 $-1 $118 $46 #
plane-surface $-1 0 -35.263405914703959 0 0 1 0 0 0 1 forward_v I I I I #
coedge $-1 $119 $120 $121 $122 forward $47 $-1 #
face $-1 $123 $124 $27 $-1 $125 reversed single #
loop $-1 $-1 $126 $49 #
plane-surface $-1 6.3164181873262351 -35.263405914703966 13.215264998307845 0 -0.68199836817093118 0.7313536940579346 1 0 0 forward_v I I I I #
coedge $-1 $127 $128 $129 $130 reversed $50 $-1 #
face $-1 $-1 $131 $28 $-1 $132 forward single #
loop $-1 $133 $134 $52 #
cone-surface $-1 1.4608737822085089 -32.754020261315318 13.846145685000661 0 0.68199836817093118 -0.7313536940579346 0.25 0 0 1 I I -0.70710678118654746 0.70710678118654746 0.25 forward I I I I #
loop $-1 $-1 $135 $36 #
coedge $-1 $84 $84 $136 $137 reversed $53 $-1 #
face $-1 $-1 $138 $29 $-1 $139 forward single #
loop $-1 $140 $141 $55 #
cone-surface $-1 11.171962592443961 -32.754020261315318 13.846145685000661 0 0.68199836817093118 -0.7313536940579346 0.25 0 0 1 I I -0.70710678118654746 0.70710678118654746 0.25 forward I I I I #
loop $-1 $-1 $142 $37 #
coedge $-1 $89 $89 $143 $144 reversed $56 $-1 #
face $-1 $145 $146 $30 $-1 $147 reversed single #
loop $-1 $-1 $148 $58 #
plane-surface $-1 -17.660541194515801 -12.835763468330285 52.092088776617658 0 0.73135370988377701 0.68199835119979291 1 0 0 forward_v I I I I #
coedge $-1 $149 $150 $151 $152 reversed $59 $-1 #
face $-1 $-1 $153 $31 $-1 $154 forward single #
loop $-1 $155 $156 $61 #
cone-surface $-1 -17.660541194515801 14.506897387152513 -4.0801974423443959 0 -0.73135370988377701 -0.68199835119979291 2.5 0 0 1 I I -0.70710678118654746 0.70710678118654746 2.5 forward I I I I #
loop $-1 $-1 $157 $39 #
coedge $-1 $98 $98 $158 $159 reversed $62 $-1 #
face $-1 $160 $161 $24 $-1 $162 reversed single #
loop $-1 $-1 $163 $64 #
plane-surface $-1 0 0 -16.305410606838318 0 0 1 1 0 0 forward_v I I I I #
coedge $-1 $164 $165 $103 $166 forward $65 $-1 #
coedge $-1 $167 $67 $102 $166 reversed $41 $-1 #
coedge $-1 $67 $167 $163 $168 reversed $41 $-1 #
coedge $-1 $169 $170 $67 $106 forward $171 $-1 #
edge $-1 $172 -16.305410606838318 $173 16.305410606838318 $67 $174 forward 7 unknown #
face $-1 $175 $176 $25 $-1 $177 reversed single #
loop $-1 $-1 $178 $68 #
plane-surface $-1 0 35.263405914703959 0 0 -1 0 0 0 -1 forward_v I I I I #
coedge $-1 $113 $179 $180 $181 reversed $69 $-1 #
coedge $-1 $182 $71 $183 $184 reversed $44 $-1 #
coedge $-1 $71 $182 $185 $186 reversed $44 $-1 #
coedge $-1 $187 $110 $71 $114 reversed $69 $-1 #
edge $-1 $188 -35.263405914703959 $189 35.263405914703959 $113 $190 forward 7 unknown #
face $-1 $191 $192 $26 $-1 $193 reversed single #
loop $-1 $-1 $194 $72 #
plane-surface $-1 75.442351678982092 0 15.69779145648681 0 0 1 1 0 0 forward_v I I I I #
coedge $-1 $195 $196 $120 $197 forward $73 $-1 #
coedge $-1 $198 $75 $199 $200 reversed $47 $-1 #
coedge $-1 $75 $198 $118 $197 reversed $47 $-1 #
coedge $-1 $201 $202 $75 $122 reversed $116 $-1 #
edge $-1 $203 -35.263405914703959 $204 35.263405914703959 $121 $205 forward 7 unknown #
face $-1 $206 $207 $27 $-1 $208 forward single #
loop $-1 $-1 $209 $76 #
plane-surface $-1 -5.0131854246151306 -130.13167466445537 114.94902571842461 1 0 0 0 0.68199836817093118 -0.7313536940579346 forward_v I I I I #
coedge $-1 $210 $211 $212 $213 reversed $77 $-1 #
coedge $-1 $128 $79 $214 $215 reversed $50 $-1 #
coedge $-1 $79 $127 $210 $216 reversed $50 $-1 #
coedge $-1 $212 $217 $79 $130 forward $207 $-1 #
edge $-1 $218 29.802431417523728 $219 33.116206803873681 $129 $220 forward 7 unknown #
loop $-1 $-1 $136 $80 #
plane-surface $-1 6.3164181873262351 -35.263405914703966 13.215264998307845 0 -0.68199836817093118 0.7313536940579346 1 0 0 forward_v I I I I #
loop $-1 $-1 $221 $52 #
coedge $-1 $134 $134 $135 $222 reversed $81 $-1 #
coedge $-1 $135 $135 $134 $222 forward $83 $-1 #
coedge $-1 $136 $136 $84 $137 forward $131 $-1 #
edge $-1 $223 3.1243262971221418e-015 $223 6.283185307179604 $136 $224 forward 7 unknown #
loop $-1 $-1 $143 $85 #
plane-surface $-1 6.3164181873262351 -35.263405914703966 13.215264998307845 0 -0.68199836817093118 0.7313536940579346 1 0 0 forward_v I I I I #
loop $-1 $-1 $225 $55 #
coedge $-1 $141 $141 $142 $226 reversed $86 $-1 #
coedge $-1 $142 $142 $141 $226 forward $88 $-1 #
coedge $-1 $143 $143 $89 $144 forward $138 $-1 #
edge $-1 $227 3.1243262971221418e-015 $227 6.283185307179604 $143 $228 forward 7 unknown #
face $-1 $229 $230 $30 $-1 $231 reversed single #
loop $-1 $-1 $232 $90 #
plane-surface $-1 -0.96167925173664059 88.897999453214425 146.96035516562659 -1 0 0 0 0.73135370988377701 0.68199835119979291 forward_v I I I I #
coedge $-1 $233 $234 $235 $236 reversed $91 $-1 #
coedge $-1 $150 $93 $237 $238 reversed $59 $-1 #
coedge $-1 $93 $149 $233 $239 reversed $59 $-1 #
coedge $-1 $235 $240 $93 $152 forward $241 $-1 #
edge $-1 $242 9.185593811903253 $243 23.913146729649206 $151 $244 forward 7 unknown #
loop $-1 $-1 $158 $94 #
plane-surface $-1 -17.660541194515801 -12.835763468330285 52.092088776617658 0 0.73135370988377701 0.68199835119979291 1 0 0 forward_v I I I I #
loop $-1 $-1 $245 $61 #
coedge $-1 $156 $156 $157 $246 reversed $95 $-1 #
coedge $-1 $157 $157 $156 $246 forward $97 $-1 #
coedge $-1 $158 $158 $98 $159 forward $153 $-1 #
edge $-1 $247 -2.7417442474294412e-016 $247 6.2831853071796004 $158 $248 forward 7 unknown #
face $-1 $249 $250 $24 $-1 $251 reversed single #
loop $-1 $-1 $252 $99 #
plane-surface $-1 0 -35.263405914703959 0 0 1 0 0 0 1 forward_v I I I I #
coedge $-1 $253 $254 $104 $168 forward $100 $-1 #
coedge $-1 $255 $102 $170 $256 forward $65 $-1 #
coedge $-1 $102 $255 $257 $258 forward $65 $-1 #
edge $-1 $259 -35.263405914703959 $172 35.263405914703959 $103 $260 forward 7 unknown #
coedge $-1 $104 $103 $261 $262 forward $41 $-1 #
edge $-1 $173 -35.263405914703959 $263 35.263405914703959 $104 $264 forward 7 unknown #
coedge $-1 $265 $105 $254 $266 reversed $171 $-1 #
coedge $-1 $105 $265 $164 $256 reversed $171 $-1 #
loop $-1 $-1 $105 $249 #
vertex $-1 $166 $267 #
vertex $-1 $168 $268 #
straight-curve $-1 69.5516830957976 35.263405914703959 0 0 0 -1 I I #
face $-1 $269 $270 $25 $-1 $271 forward single #
loop $-1 $-1 $272 $107 #
plane-surface $-1 -69.5516830957976 0 0 1 0 0 0 0 -1 forward_v I I I I #
coedge $-1 $185 $273 $187 $274 forward $108 $-1 #
coedge $-1 $110 $187 $275 $276 reversed $69 $-1 #
coedge $-1 $277 $183 $110 $181 forward $278 $-1 #
edge $-1 $189 4.5341103718924032 $279 9.3589036139280779 $180 $280 forward 7 unknown #
coedge $-1 $112 $111 $272 $281 reversed $44 $-1 #
coedge $-1 $180 $282 $111 $184 forward $278 $-1 #
edge $-1 $283 -37.963719257682492 $189 -25.212208418547725 $183 $284 forward 7 unknown #
coedge $-1 $285 $178 $112 $186 forward $108 $-1 #
edge $-1 $188 25.212208418547725 $286 37.963719257682492 $185 $287 forward 7 unknown #
coedge $-1 $179 $113 $178 $274 reversed $69 $-1 #
vertex $-1 $186 $288 #
vertex $-1 $184 $289 #
straight-curve $-1 -56.800172256662833 0 11.480617364802644 0 -1 0 I I #
face $-1 $290 $291 $26 $-1 $292 reversed single #
loop $-1 $-1 $293 $115 #
plane-surface $-1 75.442351678982092 0 7.8504736004817151 0 0 1 1 0 0 forward_v I I I I #
coedge $-1 $202 $201 $294 $295 forward $116 $-1 #
coedge $-1 $296 $118 $297 $298 reversed $73 $-1 #
coedge $-1 $118 $296 $201 $299 reversed $73 $-1 #
edge $-1 $203 -15.69779145648681 $300 -7.8504736004817151 $118 $301 forward 7 unknown #
coedge $-1 $120 $119 $302 $303 forward $47 $-1 #
coedge $-1 $304 $305 $119 $200 forward $306 $-1 #
edge $-1 $307 7.8504736004817151 $204 15.69779145648681 $199 $308 forward 7 unknown #
coedge $-1 $194 $121 $196 $299 forward $116 $-1 #
coedge $-1 $121 $194 $304 $309 forward $116 $-1 #
vertex $-1 $197 $310 #
vertex $-1 $309 $311 #
straight-curve $-1 69.5516830957976 0 15.69779145648681 0 1 0 I I #
face $-1 $-1 $312 $27 $-1 $313 reversed single #
loop $-1 $-1 $129 $123 #
plane-surface $-1 0 0 16.305410606838318 0 0 1 1 0 0 forward_v I I I I #
coedge $-1 $314 $315 $316 $317 reversed $124 $-1 #
coedge $-1 $318 $126 $128 $216 forward $77 $-1 #
coedge $-1 $126 $318 $314 $319 forward $77 $-1 #
coedge $-1 $316 $129 $126 $213 forward $207 $-1 #
edge $-1 $219 -14.487812705604483 $320 8.1713945182782481 $212 $321 forward 7 unknown #
coedge $-1 $322 $323 $127 $215 forward $312 $-1 #
edge $-1 $324 -44.259247860904452 $218 -41.169102252373989 $214 $325 forward 7 unknown #
edge $-1 $219 -4.5310161325136527 $324 -1.0042470408882777e-014 $128 $326 forward 7 unknown #
coedge $-1 $129 $316 $322 $327 forward $207 $-1 #
vertex $-1 $130 $328 #
vertex $-1 $130 $329 #
straight-curve $-1 17.646021799267601 -65.065837332227687 16.305410606838322 0 1 0 I I #
coedge $-1 $221 $221 $-1 $330 reversed $133 $-1 #
edge $-1 $331 0 $331 6.2831853071796004 $134 $332 forward 7 unknown #
vertex $-1 $137 $333 #
ellipse-curve $-1 1.4608737822085089 -33.606518221528987 14.760337802573083 0 -0.68199836817093118 0.7313536940579346 0.5 0 0 1 I I #
coedge $-1 $225 $225 $-1 $334 reversed $140 $-1 #
edge $-1 $335 0 $335 6.2831853071796004 $141 $336 forward 7 unknown #
vertex $-1 $144 $337 #
ellipse-curve $-1 11.171962592443961 -33.606518221528987 14.760337802573083 0 -0.68199836817093118 0.7313536940579346 0.5 0 0 1 I I #
face $-1 $-1 $241 $30 $-1 $338 forward single #
loop $-1 $-1 $339 $145 #
plane-surface $-1 0 35.263405914703959 0 0 -1 0 0 0 -1 forward_v I I I I #
coedge $-1 $340 $341 $342 $343 reversed $146 $-1 #
coedge $-1 $344 $148 $150 $239 forward $91 $-1 #
coedge $-1 $148 $344 $340 $345 forward $91 $-1 #
coedge $-1 $342 $151 $148 $236 forward $241 $-1 #
edge $-1 $243 -25.529132540037061 $346 7.8685913455212599 $235 $347 forward 7 unknown #
coedge $-1 $348 $349 $149 $238 forward $230 $-1 #
edge $-1 $350 -72.968134283908171 $242 -57.174766975974975 $237 $351 forward 7 unknown #
edge $-1 $243 48.932107250083362 $350 70.526811829407904 $150 $352 forward 7 unknown #
coedge $-1 $151 $342 $348 $353 forward $241 $-1 #
loop $-1 $-1 $342 $229 #
vertex $-1 $238 $354 #
vertex $-1 $152 $355 #
straight-curve $-1 -34.359403137294962 44.448999726607212 16.305410606838322 0 -1 0 I I #
coedge $-1 $245 $245 $-1 $356 reversed $155 $-1 #
edge $-1 $357 0 $357 6.2831853071796004 $156 $358 forward 7 unknown #
vertex $-1 $159 $359 #
ellipse-curve $-1 -17.660541194515801 27.899629455830993 8.4087269528717208 0 0.73135370988377701 0.68199835119979291 5 0 0 1 I I #
face $-1 $-1 $171 $24 $-1 $360 reversed single #
loop $-1 $-1 $361 $160 #
plane-surface $-1 -69.5516830957976 0 0 1 0 0 0 0 -1 forward_v I I I I #
coedge $-1 $362 $257 $363 $364 forward $161 $-1 #
coedge $-1 $365 $163 $362 $366 forward $100 $-1 #
coedge $-1 $163 $365 $169 $266 forward $100 $-1 #
coedge $-1 $165 $164 $367 $368 forward $65 $-1 #
edge $-1 $172 -69.5516830957976 $369 69.5516830957976 $170 $370 forward 7 unknown #
coedge $-1 $252 $261 $165 $258 reversed $161 $-1 #
edge $-1 $371 -69.5516830957976 $259 69.5516830957976 $257 $372 forward 7 unknown #
vertex $-1 $166 $373 #
straight-curve $-1 69.5516830957976 0 16.305410606838318 0 1 0 I I #
coedge $-1 $257 $362 $167 $262 reversed $161 $-1 #
edge $-1 $259 -16.305410606838318 $263 16.305410606838318 $167 $374 forward 7 unknown #
vertex $-1 $262 $375 #
straight-curve $-1 69.5516830957976 0 -16.305410606838318 0 -1 0 I I #
coedge $-1 $170 $169 $361 $376 reversed $171 $-1 #
edge $-1 $377 -69.5516830957976 $173 69.5516830957976 $169 $378 forward 7 unknown #
point $-1 69.5516830957976 35.263405914703959 16.305410606838318 #
point $-1 69.5516830957976 35.263405914703959 -16.305410606838318 #
face $-1 $-1 $278 $25 $-1 $379 reversed single #
loop $-1 $-1 $275 $175 #
plane-surface $-1 0 0 16.305410606838318 0 0 1 1 0 0 forward_v I I I I #
coedge $-1 $380 $381 $182 $281 forward $176 $-1 #
coedge $-1 $178 $285 $382 $383 reversed $108 $-1 #
edge $-1 $384 -9.3589036139280779 $188 -4.5341103718924032 $178 $385 forward 7 unknown #
coedge $-1 $382 $386 $179 $276 forward $270 $-1 #
edge $-1 $279 -35.263405914703959 $384 35.263405914703959 $275 $387 forward 7 unknown #
coedge $-1 $282 $180 $386 $388 reversed $278 $-1 #
loop $-1 $-1 $180 $269 #
vertex $-1 $181 $389 #
straight-curve $-1 -56.800172256662833 -35.263405914703959 6.9465069929102405 0 0 1 I I #
edge $-1 $286 -35.263405914703959 $283 35.263405914703959 $272 $390 forward 7 unknown #
coedge $-1 $183 $277 $380 $391 forward $278 $-1 #
vertex $-1 $281 $392 #
straight-curve $-1 -31.587963838115108 -35.263405914703959 11.480617364802644 1 0 0 I I #
coedge $-1 $273 $185 $381 $393 reversed $108 $-1 #
vertex $-1 $281 $394 #
straight-curve $-1 -31.587963838115108 35.263405914703959 11.480617364802644 -1 0 0 I I #
point $-1 -56.800172256662833 35.263405914703959 11.480617364802644 #
point $-1 -56.800172256662833 -35.263405914703959 11.480617364802644 #
face $-1 $-1 $306 $26 $-1 $395 reversed single #
loop $-1 $-1 $396 $191 #
plane-surface $-1 81.333020262166585 0 11.774132528484262 -1 0 0 0 0 1 forward_v I I I I #
coedge $-1 $297 $397 $398 $399 forward $192 $-1 #
coedge $-1 $396 $400 $194 $295 reversed $291 $-1 #
edge $-1 $401 -35.263405914703959 $402 35.263405914703959 $294 $403 forward 7 unknown #
coedge $-1 $196 $195 $396 $404 reversed $73 $-1 #
coedge $-1 $302 $293 $195 $298 forward $192 $-1 #
edge $-1 $405 -5.8906685831844925 $300 5.8906685831844925 $195 $406 forward 7 unknown #
edge $-1 $203 -5.8906685831844925 $401 5.8906685831844925 $196 $407 forward 7 unknown #
vertex $-1 $197 $408 #
straight-curve $-1 69.5516830957976 -35.263405914703959 0 0 0 -1 I I #
coedge $-1 $397 $297 $198 $303 reversed $192 $-1 #
edge $-1 $307 -35.263405914703959 $300 35.263405914703959 $302 $409 forward 7 unknown #
coedge $-1 $410 $199 $202 $309 reversed $306 $-1 #
coedge $-1 $199 $410 $397 $411 reversed $306 $-1 #
loop $-1 $-1 $199 $290 #
vertex $-1 $200 $412 #
straight-curve $-1 69.5516830957976 35.263405914703959 0 0 0 1 I I #
edge $-1 $402 -5.8906685831844925 $204 5.8906685831844925 $304 $413 forward 7 unknown #
point $-1 69.5516830957976 -35.263405914703959 15.69779145648681 #
point $-1 69.5516830957976 35.263405914703959 15.69779145648681 #
loop $-1 $-1 $214 $206 #
plane-surface $-1 0 -35.263405914703959 0 0 1 0 0 0 1 forward_v I I I I #
coedge $-1 $315 $209 $211 $319 reversed $124 $-1 #
coedge $-1 $209 $314 $414 $415 reversed $124 $-1 #
coedge $-1 $217 $212 $209 $317 forward $207 $-1 #
edge $-1 $320 -33.116206803873681 $416 -29.802431417523728 $316 $417 forward 7 unknown #
coedge $-1 $211 $210 $323 $418 reversed $77 $-1 #
edge $-1 $419 1.0042470408882777e-014 $320 4.5310161325136527 $314 $420 forward 7 unknown #
vertex $-1 $213 $421 #
straight-curve $-1 3.1582090936631175 -31.949630528354014 16.305410606838318 -1 0 0 I I #
coedge $-1 $414 $214 $217 $327 reversed $312 $-1 #
coedge $-1 $214 $414 $318 $418 forward $312 $-1 #
vertex $-1 $215 $422 #
straight-curve $-1 17.646021799267601 -35.263405914703959 57.474512859212304 0 0 1 I I #
straight-curve $-1 17.646021799267601 -35.263405914703966 13.215264998307845 0 -0.7313536940579346 -0.68199836817093118 I I #
edge $-1 $416 -5.0131854246151306 $218 17.646021799267601 $322 $423 forward 7 unknown #
point $-1 17.646021799267601 -35.263405914703959 16.305410606838318 #
point $-1 17.646021799267601 -31.94963052835401 16.305410606838318 #
edge $-1 $424 1 $424 0 $221 $-1 forward 7 unknown #
vertex $-1 $222 $425 #
ellipse-curve $-1 1.4608737822085089 -32.924519853358049 14.028984108515145 0 -0.68199836817093118 0.7313536940579346 0.5 0 0 1 I I #
point $-1 1.9608737822085089 -33.606518221528979 14.760337802573078 #
edge $-1 $426 1 $426 0 $225 $-1 forward 7 unknown #
vertex $-1 $226 $427 #
ellipse-curve $-1 11.171962592443961 -32.924519853358049 14.028984108515145 0 -0.68199836817093118 0.7313536940579346 0.5 0 0 1 I I #
point $-1 11.671962592443961 -33.606518221528979 14.760337802573078 #
plane-surface $-1 0 0 16.305410606838318 0 0 1 1 0 0 forward_v I I I I #
coedge $-1 $349 $348 $341 $428 forward $230 $-1 #
coedge $-1 $341 $232 $234 $345 reversed $146 $-1 #
coedge $-1 $232 $340 $339 $428 reversed $146 $-1 #
coedge $-1 $240 $235 $232 $343 forward $241 $-1 #
edge $-1 $346 -23.913146729649206 $429 -9.185593811903253 $342 $430 forward 7 unknown #
coedge $-1 $234 $233 $349 $431 reversed $91 $-1 #
edge $-1 $432 -70.526811829407904 $346 -48.932107250083362 $340 $433 forward 7 unknown #
vertex $-1 $236 $434 #
straight-curve $-1 -8.8302705972579005 20.535852996958006 16.305410606838318 1 0 0 I I #
coedge $-1 $339 $237 $240 $353 reversed $230 $-1 #
coedge $-1 $237 $339 $344 $431 forward $230 $-1 #
vertex $-1 $238 $435 #
straight-curve $-1 -34.359403137294962 35.263405914703959 73.480177582813297 0 0 1 I I #
straight-curve $-1 -34.359403137294962 -12.835763468330285 52.092088776617658 0 0.68199835119979291 -0.73135370988377701 I I #
edge $-1 $429 0.96167925173664059 $242 34.359403137294962 $348 $436 forward 7 unknown #
point $-1 -34.359403137294962 35.263405914703959 16.305410606838318 #
point $-1 -34.359403137294962 20.535852996958006 16.305410606838322 #
edge $-1 $437 1 $437 0 $245 $-1 forward 7 unknown #
vertex $-1 $246 $438 #
ellipse-curve $-1 -17.660541194515801 16.335281661861956 -2.3752015643449136 0 0.73135370988377701 0.68199835119979291 5 0 0 1 I I #
point $-1 -12.660541194515801 27.899629455830969 8.4087269528716995 #
plane-surface $-1 0 35.263405914703959 0 0 -1 0 0 0 -1 forward_v I I I I #
coedge $-1 $439 $367 $265 $376 forward $250 $-1 #
coedge $-1 $261 $252 $253 $366 reversed $161 $-1 #
coedge $-1 $367 $439 $252 $364 reversed $250 $-1 #
edge $-1 $371 -16.305410606838318 $440 16.305410606838318 $363 $441 forward 7 unknown #
coedge $-1 $254 $253 $439 $442 forward $100 $-1 #
edge $-1 $263 -69.5516830957976 $440 69.5516830957976 $362 $443 forward 7 unknown #
coedge $-1 $361 $363 $255 $368 reversed $250 $-1 #
edge $-1 $369 -35.263405914703959 $371 35.263405914703959 $367 $444 forward 7 unknown #
vertex $-1 $256 $445 #
straight-curve $-1 0 35.263405914703959 16.305410606838318 -1 0 0 I I #
vertex $-1 $368 $446 #
straight-curve $-1 0 -35.263405914703959 16.305410606838318 1 0 0 I I #
point $-1 69.5516830957976 -35.263405914703959 16.305410606838318 #
straight-curve $-1 69.5516830957976 -35.263405914703959 0 0 0 -1 I I #
point $-1 69.5516830957976 -35.263405914703959 -16.305410606838318 #
edge $-1 $369 -16.305410606838318 $377 16.305410606838318 $265 $447 forward 7 unknown #
vertex $-1 $266 $448 #
straight-curve $-1 0 35.263405914703959 -16.305410606838318 1 0 0 I I #
plane-surface $-1 0 -35.263405914703959 0 0 1 0 0 0 1 forward_v I I I I #
coedge $-1 $449 $272 $282 $391 reversed $176 $-1 #
coedge $-1 $272 $449 $285 $393 forward $176 $-1 #
coedge $-1 $450 $275 $273 $383 forward $270 $-1 #
edge $-1 $384 56.800172256662833 $451 69.5516830957976 $273 $452 forward 7 unknown #
vertex $-1 $383 $453 #
straight-curve $-1 -56.800172256662833 35.263405914703959 6.9465069929102405 0 0 -1 I I #
coedge $-1 $275 $450 $277 $388 forward $270 $-1 #
straight-curve $-1 -56.800172256662833 0 16.305410606838318 0 1 0 I I #
edge $-1 $454 -69.5516830957976 $279 -56.800172256662833 $277 $455 forward 7 unknown #
point $-1 -56.800172256662833 -35.263405914703959 16.305410606838318 #
straight-curve $-1 -69.5516830957976 0 11.480617364802644 0 -1 0 I I #
edge $-1 $454 -16.305410606838318 $283 -11.480617364802644 $380 $456 forward 7 unknown #
point $-1 -69.5516830957976 -35.263405914703959 11.480617364802644 #
edge $-1 $451 -16.305410606838318 $286 -11.480617364802644 $285 $457 forward 7 unknown #
point $-1 -69.5516830957976 35.263405914703959 11.480617364802644 #
plane-surface $-1 0 35.263405914703959 0 0 -1 0 0 0 -1 forward_v I I I I #
coedge $-1 $398 $294 $296 $404 forward $291 $-1 #
coedge $-1 $293 $302 $305 $411 forward $192 $-1 #
coedge $-1 $400 $396 $293 $399 reversed $291 $-1 #
edge $-1 $458 -35.263405914703959 $405 35.263405914703959 $398 $459 forward 7 unknown #
coedge $-1 $294 $398 $410 $460 reversed $291 $-1 #
vertex $-1 $295 $461 #
vertex $-1 $295 $462 #
straight-curve $-1 81.333020262166585 0 15.69779145648681 0 1 0 I I #
edge $-1 $401 -3.9236589280025473 $405 3.9236589280025473 $396 $463 forward 7 unknown #
vertex $-1 $404 $464 #
straight-curve $-1 75.442351678982092 -35.263405914703959 7.8504736004817151 -1 0 0 I I #
straight-curve $-1 75.442351678982092 -35.263405914703959 15.69779145648681 1 0 0 I I #
point $-1 69.5516830957976 -35.263405914703959 7.8504736004817151 #
straight-curve $-1 69.5516830957976 0 7.8504736004817151 0 -1 0 I I #
coedge $-1 $305 $304 $400 $460 forward $306 $-1 #
edge $-1 $307 -5.8906685831844925 $458 5.8906685831844925 $305 $465 forward 7 unknown #
point $-1 69.5516830957976 35.263405914703959 7.8504736004817151 #
straight-curve $-1 75.442351678982092 35.263405914703959 15.69779145648681 -1 0 0 I I #
coedge $-1 $323 $322 $315 $415 forward $312 $-1 #
edge $-1 $416 41.169102252373989 $419 44.259247860904452 $414 $466 forward 7 unknown #
vertex $-1 $327 $467 #
straight-curve $-1 -5.0131854246151306 -65.065837332227687 16.305410606838322 0 -1 0 I I #
edge $-1 $419 -8.1713945182782481 $324 14.487812705604483 $323 $468 forward 7 unknown #
vertex $-1 $418 $469 #
straight-curve $-1 -5.0131854246151306 -35.263405914703966 13.215264998307845 0 0.7313536940579346 0.68199836817093118 I I #
point $-1 -5.0131854246151306 -31.94963052835401 16.305410606838318 #
point $-1 17.646021799267601 -35.263405914703959 13.215264998307852 #
straight-curve $-1 0 -35.263405914703959 16.305410606838318 1 0 0 I I #
vertex $-1 $330 $470 #
point $-1 1.9608737822085089 -32.924519853358049 14.028984108515145 #
vertex $-1 $334 $471 #
point $-1 11.671962592443961 -32.924519853358049 14.028984108515145 #
edge $-1 $429 57.174766975974975 $432 72.968134283908171 $339 $472 forward 7 unknown #
vertex $-1 $353 $473 #
straight-curve $-1 -0.96167925173664059 44.448999726607212 16.305410606838322 0 1 0 I I #
edge $-1 $432 -7.8685913455212599 $350 25.529132540037061 $349 $474 forward 7 unknown #
vertex $-1 $431 $475 #
straight-curve $-1 -0.96167925173664059 -12.835763468330285 52.092088776617658 0 -0.68199835119979291 0.73135370988377701 I I #
point $-1 -0.96167925173664059 20.535852996958006 16.305410606838322 #
point $-1 -34.359403137294962 35.263405914703959 0.51204329890513378 #
straight-curve $-1 0 35.263405914703959 16.305410606838318 -1 0 0 I I #
vertex $-1 $356 $476 #
point $-1 -12.660541194515801 16.335281661861956 -2.3752015643449136 #
coedge $-1 $363 $361 $365 $442 reversed $250 $-1 #
vertex $-1 $442 $477 #
straight-curve $-1 -69.5516830957976 -35.263405914703959 0 0 0 -1 I I #
edge $-1 $440 -35.263405914703959 $377 35.263405914703959 $439 $478 forward 7 unknown #
straight-curve $-1 0 -35.263405914703959 -16.305410606838318 -1 0 0 I I #
straight-curve $-1 -69.5516830957976 0 16.305410606838318 0 -1 0 I I #
point $-1 -69.5516830957976 35.263405914703959 16.305410606838318 #
point $-1 -69.5516830957976 -35.263405914703959 16.305410606838318 #
straight-curve $-1 -69.5516830957976 35.263405914703959 0 0 0 -1 I I #
point $-1 -69.5516830957976 35.263405914703959 -16.305410606838318 #
coedge $-1 $381 $380 $450 $479 reversed $176 $-1 #
coedge $-1 $386 $382 $449 $479 forward $270 $-1 #
vertex $-1 $383 $480 #
straight-curve $-1 0 35.263405914703959 16.305410606838318 -1 0 0 I I #
point $-1 -56.800172256662833 35.263405914703959 16.305410606838318 #
vertex $-1 $479 $481 #
straight-curve $-1 0 -35.263405914703959 16.305410606838318 1 0 0 I I #
straight-curve $-1 -69.5516830957976 -35.263405914703959 0 0 0 -1 I I #
straight-curve $-1 -69.5516830957976 35.263405914703959 0 0 0 -1 I I #
vertex $-1 $399 $482 #
straight-curve $-1 81.333020262166585 0 7.8504736004817151 0 -1 0 I I #
edge $-1 $402 -3.9236589280025473 $458 3.9236589280025473 $400 $483 forward 7 unknown #
point $-1 81.333020262166585 -35.263405914703959 15.69779145648681 #
point $-1 81.333020262166585 35.263405914703959 15.69779145648681 #
straight-curve $-1 81.333020262166585 -35.263405914703959 11.774132528484262 0 0 -1 I I #
point $-1 81.333020262166585 -35.263405914703959 7.8504736004817151 #
straight-curve $-1 75.442351678982092 35.263405914703959 7.8504736004817151 1 0 0 I I #
straight-curve $-1 -5.0131854246151306 -35.263405914703959 57.474512859212304 0 0 -1 I I #
point $-1 -5.0131854246151306 -35.263405914703959 16.305410606838318 #
straight-curve $-1 3.1582090936631175 -35.263405914703959 13.215264998307852 1 0 0 I I #
point $-1 -5.0131854246151306 -35.263405914703959 13.215264998307852 #
point $-1 1.4608737822085089 -32.583520669272588 13.663307261486176 #
point $-1 11.171962592443961 -32.583520669272588 13.663307261486176 #
straight-curve $-1 -0.96167925173664059 35.263405914703959 73.480177582813297 0 0 -1 I I #
point $-1 -0.96167925173664059 35.263405914703959 16.305410606838318 #
straight-curve $-1 -8.8302705972579005 35.263405914703959 0.51204329890513023 -1 0 0 I I #
point $-1 -0.96167925173664059 35.263405914703959 0.51204329890513378 #
point $-1 -17.660541194515801 12.678513112443071 -5.7851933203438781 #
point $-1 -69.5516830957976 -35.263405914703959 -16.305410606838318 #
straight-curve $-1 -69.5516830957976 0 -16.305410606838318 0 1 0 I I #
edge $-1 $451 -35.263405914703959 $454 35.263405914703959 $449 $484 forward 7 unknown #
point $-1 -69.5516830957976 35.263405914703959 16.305410606838318 #
point $-1 -69.5516830957976 -35.263405914703959 16.305410606838318 #
point $-1 81.333020262166585 35.263405914703959 7.8504736004817151 #
straight-curve $-1 81.333020262166585 35.263405914703959 11.774132528484262 0 0 -1 I I #
straight-curve $-1 -69.5516830957976 0 16.305410606838318 0 -1 0 I I #
End-of-ACIS-data 