500 0 15 0           
7 Unknown 11 ACIS 5.0 NT 24 Fri Mar 26 18:01:54 1999 
-1 9.9999999999999995e-007 1e-010 
body $-1 $15 $-1 $16 #
body $-1 $17 $-1 $18 #
body $-1 $19 $-1 $20 #
body $-1 $21 $-1 $22 #
body $-1 $23 $-1 $24 #
body $-1 $25 $-1 $26 #
body $-1 $27 $-1 $28 #
body $-1 $29 $-1 $30 #
body $-1 $31 $-1 $32 #
body $-1 $33 $-1 $34 #
body $-1 $35 $-1 $36 #
body $-1 $37 $-1 $38 #
body $-1 $39 $-1 $40 #
body $-1 $41 $-1 $42 #
body $-1 $43 $-1 $44 #
lump $-1 $-1 $45 $0 #
transform $-1 1 0 0 0 1 0 0 0 1 50.823084200567649 32.231485983760976 15.227205704697306 1 rotate no_reflect no_shear #
lump $-1 $-1 $46 $1 #
transform $-1 1 0 0 0 1 0 0 0 1 13.573606426203511 -9.980332669953345 15.227205704697306 1 rotate no_reflect no_shear #
lump $-1 $-1 $47 $2 #
transform $-1 1 0 0 0 1 0 0 0 1 13.573606426203511 74.443304637475293 15.227205704697306 1 rotate no_reflect no_shear #
lump $-1 $-1 $48 $3 #
transform $-1 0.82903756765294845 0 0.55919291073839883 0 1 0 -0.55919291073839883 0 0.82903756765294845 -56.839816773636308 25.1588700188505 102.28130815268406 1 rotate no_reflect no_shear #
lump $-1 $-1 $49 $4 #
transform $-1 0.82903756765294845 0 0.55919291073839883 0 -1 0 0.55919291073839883 0 -0.82903756765294845 11.536594902643056 25.1588700188505 20.803140876947271 1 rotate no_reflect no_shear #
lump $-1 $-1 $50 $5 #
transform $-1 0.82903756765294845 0 0.55919291073839883 0 1 0 -0.55919291073839883 0 0.82903756765294845 -56.839816773636308 32.231485983760976 102.28130815268406 1 rotate no_reflect no_shear #
lump $-1 $-1 $51 $6 #
transform $-1 0.82903756765294845 0 0.55919291073839883 0 -1 0 0.55919291073839883 0 -0.82903756765294845 11.536594902643056 32.231485983760976 20.803140876947271 1 rotate no_reflect no_shear #
lump $-1 $-1 $52 $7 #
transform $-1 0.82903756765294845 0 0.55919291073839883 0 1 0 -0.55919291073839883 0 0.82903756765294845 -56.839816773636308 39.304101948671452 102.28130815268406 1 rotate no_reflect no_shear #
lump $-1 $-1 $53 $8 #
transform $-1 0.82903756765294845 0 0.55919291073839883 0 -1 0 0.55919291073839883 0 -0.82903756765294845 11.536594902643056 39.304101948671452 20.803140876947271 1 rotate no_reflect no_shear #
lump $-1 $-1 $54 $9 #
transform $-1 0.82903756765294845 0 -0.55919291073839883 0 1 0 0.55919291073839883 0 0.82903756765294845 74.217492962252408 25.1588700188505 159.12112492632036 1 rotate no_reflect no_shear #
lump $-1 $-1 $55 $10 #
transform $-1 0.82903756765294845 0 -0.55919291073839883 0 -1 0 -0.55919291073839883 0 -0.82903756765294845 90.109573498492239 25.1588700188505 20.803140876947268 1 rotate no_reflect no_shear #
lump $-1 $-1 $56 $11 #
transform $-1 0.82903756765294845 0 -0.55919291073839883 0 1 0 0.55919291073839883 0 0.82903756765294845 74.217492962252408 32.231485983760976 159.12112492632036 1 rotate no_reflect no_shear #
lump $-1 $-1 $57 $12 #
transform $-1 0.82903756765294845 0 -0.55919291073839883 0 -1 0 -0.55919291073839883 0 -0.82903756765294845 90.109573498492239 32.231485983760976 20.803140876947268 1 rotate no_reflect no_shear #
lump $-1 $-1 $58 $13 #
transform $-1 0.82903756765294845 0 -0.55919291073839883 0 1 0 0.55919291073839883 0 0.82903756765294845 74.217492962252408 39.304101948671452 159.12112492632036 1 rotate no_reflect no_shear #
lump $-1 $-1 $59 $14 #
transform $-1 0.82903756765294845 0 -0.55919291073839883 0 -1 0 -0.55919291073839883 0 -0.82903756765294845 90.109573498492239 39.304101948671452 20.803140876947268 1 rotate no_reflect no_shear #
shell $-1 $-1 $-1 $60 $-1 $15 #
shell $-1 $-1 $-1 $61 $-1 $17 #
shell $-1 $-1 $-1 $62 $-1 $19 #
shell $-1 $-1 $-1 $63 $-1 $21 #
shell $-1 $-1 $-1 $64 $-1 $23 #
shell $-1 $-1 $-1 $65 $-1 $25 #
shell $-1 $-1 $-1 $66 $-1 $27 #
shell $-1 $-1 $-1 $67 $-1 $29 #
shell $-1 $-1 $-1 $68 $-1 $31 #
shell $-1 $-1 $-1 $69 $-1 $33 #
shell $-1 $-1 $-1 $70 $-1 $35 #
shell $-1 $-1 $-1 $71 $-1 $37 #
shell $-1 $-1 $-1 $72 $-1 $39 #
shell $-1 $-1 $-1 $73 $-1 $41 #
shell $-1 $-1 $-1 $74 $-1 $43 #
face $-1 $75 $76 $45 $-1 $77 forward single #
face $-1 $78 $79 $46 $-1 $80 forward single #
face $-1 $81 $82 $47 $-1 $83 forward single #
face $-1 $84 $85 $48 $-1 $86 forward single #
face $-1 $87 $88 $49 $-1 $89 forward single #
face $-1 $90 $91 $50 $-1 $92 forward single #
face $-1 $93 $94 $51 $-1 $95 forward single #
face $-1 $96 $97 $52 $-1 $98 forward single #
face $-1 $99 $100 $53 $-1 $101 forward single #
face $-1 $102 $103 $54 $-1 $104 forward single #
face $-1 $105 $106 $55 $-1 $107 forward single #
face $-1 $108 $109 $56 $-1 $110 forward single #
face $-1 $111 $112 $57 $-1 $113 forward single #
face $-1 $114 $115 $58 $-1 $116 forward single #
face $-1 $117 $118 $59 $-1 $119 forward single #
face $-1 $120 $121 $45 $-1 $122 reversed single #
loop $-1 $-1 $123 $60 #
plane-surface $-1 0 0 15.227205704697306 0 0 1 1 0 0 forward_v I I I I #
face $-1 $124 $125 $46 $-1 $126 reversed single #
loop $-1 $-1 $127 $61 #
plane-surface $-1 0 0 15.227205704697306 0 0 1 1 0 0 forward_v I I I I #
face $-1 $128 $129 $47 $-1 $130 reversed single #
loop $-1 $-1 $131 $62 #
plane-surface $-1 0 0 15.227205704697306 0 0 1 1 0 0 forward_v I I I I #
face $-1 $132 $133 $48 $-1 $134 reversed single #
loop $-1 $-1 $135 $63 #
plane-surface $-1 0 0 101.6461684011353 0 0 1 1 0 0 forward_v I I I I #
face $-1 $136 $137 $49 $-1 $138 forward single #
loop $-1 $139 $140 $64 #
cone-surface $-1 0 0 -2.3189489425336482 0 0 1 1 0 0 1 I I 0 1 1 forward I I I I #
face $-1 $141 $142 $50 $-1 $143 reversed single #
loop $-1 $-1 $144 $65 #
plane-surface $-1 0 0 101.6461684011353 0 0 1 1 0 0 forward_v I I I I #
face $-1 $145 $146 $51 $-1 $147 forward single #
loop $-1 $148 $149 $66 #
cone-surface $-1 0 0 -2.3189489425336482 0 0 1 1 0 0 1 I I 0 1 1 forward I I I I #
face $-1 $150 $151 $52 $-1 $152 reversed single #
loop $-1 $-1 $153 $67 #
plane-surface $-1 0 0 101.6461684011353 0 0 1 1 0 0 forward_v I I I I #
face $-1 $154 $155 $53 $-1 $156 forward single #
loop $-1 $157 $158 $68 #
cone-surface $-1 0 0 -2.3189489425336482 0 0 1 1 0 0 1 I I 0 1 1 forward I I I I #
face $-1 $159 $160 $54 $-1 $161 reversed single #
loop $-1 $-1 $162 $69 #
plane-surface $-1 0 0 101.6461684011353 0 0 1 1 0 0 forward_v I I I I #
face $-1 $163 $164 $55 $-1 $165 forward single #
loop $-1 $166 $167 $70 #
cone-surface $-1 0 0 -2.3189489425336482 0 0 1 1 0 0 1 I I 0 1 1 forward I I I I #
face $-1 $168 $169 $56 $-1 $170 reversed single #
loop $-1 $-1 $171 $71 #
plane-surface $-1 0 0 101.6461684011353 0 0 1 1 0 0 forward_v I I I I #
face $-1 $172 $173 $57 $-1 $174 forward single #
loop $-1 $175 $176 $72 #
cone-surface $-1 0 0 -2.3189489425336482 0 0 1 1 0 0 1 I I 0 1 1 forward I I I I #
face $-1 $177 $178 $58 $-1 $179 reversed single #
loop $-1 $-1 $180 $73 #
plane-surface $-1 0 0 101.6461684011353 0 0 1 1 0 0 forward_v I I I I #
face $-1 $181 $182 $59 $-1 $183 forward single #
loop $-1 $184 $185 $74 #
cone-surface $-1 0 0 -2.3189489425336482 0 0 1 1 0 0 1 I I 0 1 1 forward I I I I #
face $-1 $186 $187 $45 $-1 $188 reversed single #
loop $-1 $-1 $189 $75 #
plane-surface $-1 0 0 -15.227205704697306 0 0 1 1 0 0 forward_v I I I I #
coedge $-1 $190 $191 $192 $193 forward $76 $-1 #
face $-1 $194 $195 $46 $-1 $196 reversed single #
loop $-1 $-1 $197 $78 #
plane-surface $-1 0 0 -15.227205704697306 0 0 1 1 0 0 forward_v I I I I #
coedge $-1 $198 $199 $200 $201 forward $79 $-1 #
face $-1 $202 $203 $47 $-1 $204 reversed single #
loop $-1 $-1 $205 $81 #
plane-surface $-1 0 0 -15.227205704697306 0 0 1 1 0 0 forward_v I I I I #
coedge $-1 $206 $207 $208 $209 forward $82 $-1 #
face $-1 $210 $211 $48 $-1 $212 reversed single #
loop $-1 $-1 $213 $84 #
plane-surface $-1 0 0 -101.6461684011353 0 0 1 1 0 0 forward_v I I I I #
coedge $-1 $214 $215 $216 $217 forward $85 $-1 #
face $-1 $-1 $218 $49 $-1 $219 forward single #
loop $-1 $-1 $220 $87 #
plane-surface $-1 0 0 -4.1378978850672947 0 0 -1 -1 0 0 forward_v I I I I #
loop $-1 $-1 $221 $64 #
coedge $-1 $140 $140 $220 $222 reversed $88 $-1 #
face $-1 $223 $224 $50 $-1 $225 reversed single #
loop $-1 $-1 $226 $90 #
plane-surface $-1 0 0 -101.6461684011353 0 0 1 1 0 0 forward_v I I I I #
coedge $-1 $227 $228 $229 $230 forward $91 $-1 #
face $-1 $-1 $231 $51 $-1 $232 forward single #
loop $-1 $-1 $233 $93 #
plane-surface $-1 0 0 -4.1378978850672947 0 0 -1 -1 0 0 forward_v I I I I #
loop $-1 $-1 $234 $66 #
coedge $-1 $149 $149 $233 $235 reversed $94 $-1 #
face $-1 $236 $237 $52 $-1 $238 reversed single #
loop $-1 $-1 $239 $96 #
plane-surface $-1 0 0 -101.6461684011353 0 0 1 1 0 0 forward_v I I I I #
coedge $-1 $240 $241 $242 $243 forward $97 $-1 #
face $-1 $-1 $244 $53 $-1 $245 forward single #
loop $-1 $-1 $246 $99 #
plane-surface $-1 0 0 -4.1378978850672947 0 0 -1 -1 0 0 forward_v I I I I #
loop $-1 $-1 $247 $68 #
coedge $-1 $158 $158 $246 $248 reversed $100 $-1 #
face $-1 $249 $250 $54 $-1 $251 reversed single #
loop $-1 $-1 $252 $102 #
plane-surface $-1 0 0 -101.6461684011353 0 0 1 1 0 0 forward_v I I I I #
coedge $-1 $253 $254 $255 $256 forward $103 $-1 #
face $-1 $-1 $257 $55 $-1 $258 forward single #
loop $-1 $-1 $259 $105 #
plane-surface $-1 0 0 -4.1378978850672947 0 0 -1 -1 0 0 forward_v I I I I #
loop $-1 $-1 $260 $70 #
coedge $-1 $167 $167 $259 $261 reversed $106 $-1 #
face $-1 $262 $263 $56 $-1 $264 reversed single #
loop $-1 $-1 $265 $108 #
plane-surface $-1 0 0 -101.6461684011353 0 0 1 1 0 0 forward_v I I I I #
coedge $-1 $266 $267 $268 $269 forward $109 $-1 #
face $-1 $-1 $270 $57 $-1 $271 forward single #
loop $-1 $-1 $272 $111 #
plane-surface $-1 0 0 -4.1378978850672947 0 0 -1 -1 0 0 forward_v I I I I #
loop $-1 $-1 $273 $72 #
coedge $-1 $176 $176 $272 $274 reversed $112 $-1 #
face $-1 $275 $276 $58 $-1 $277 reversed single #
loop $-1 $-1 $278 $114 #
plane-surface $-1 0 0 -101.6461684011353 0 0 1 1 0 0 forward_v I I I I #
coedge $-1 $279 $280 $281 $282 forward $115 $-1 #
face $-1 $-1 $283 $59 $-1 $284 forward single #
loop $-1 $-1 $285 $117 #
plane-surface $-1 0 0 -4.1378978850672947 0 0 -1 -1 0 0 forward_v I I I I #
loop $-1 $-1 $286 $74 #
coedge $-1 $185 $185 $285 $287 reversed $118 $-1 #
face $-1 $288 $289 $45 $-1 $290 reversed single #
loop $-1 $-1 $291 $120 #
plane-surface $-1 0 -32.231485983760976 0 0 1 0 0 0 1 forward_v I I I I #
coedge $-1 $292 $293 $294 $295 forward $121 $-1 #
coedge $-1 $296 $123 $297 $298 forward $76 $-1 #
coedge $-1 $123 $296 $299 $300 forward $76 $-1 #
coedge $-1 $301 $302 $123 $193 reversed $303 $-1 #
edge $-1 $304 -32.231485983760976 $305 32.231485983760976 $192 $306 forward 7 unknown #
face $-1 $307 $308 $46 $-1 $309 reversed single #
loop $-1 $-1 $310 $124 #
plane-surface $-1 0 -9.980332669953345 0 0 1 0 0 0 1 forward_v I I I I #
coedge $-1 $311 $312 $313 $314 forward $125 $-1 #
coedge $-1 $315 $127 $316 $317 forward $79 $-1 #
coedge $-1 $127 $315 $318 $319 forward $79 $-1 #
coedge $-1 $320 $321 $127 $201 reversed $322 $-1 #
edge $-1 $323 -9.980332669953345 $324 9.980332669953345 $200 $325 forward 7 unknown #
face $-1 $326 $327 $47 $-1 $328 reversed single #
loop $-1 $-1 $329 $128 #
plane-surface $-1 0 -9.9803326699533415 0 0 1 0 0 0 1 forward_v I I I I #
coedge $-1 $330 $331 $332 $333 forward $129 $-1 #
coedge $-1 $334 $131 $335 $336 forward $82 $-1 #
coedge $-1 $131 $334 $337 $338 forward $82 $-1 #
coedge $-1 $339 $340 $131 $209 reversed $341 $-1 #
edge $-1 $342 -9.9803326699533415 $343 9.9803326699533415 $208 $344 forward 7 unknown #
face $-1 $345 $346 $48 $-1 $347 reversed single #
loop $-1 $-1 $348 $132 #
plane-surface $-1 0 -2.9823424169590478 0 0 1 0 0 0 1 forward_v I I I I #
coedge $-1 $349 $350 $351 $352 forward $133 $-1 #
coedge $-1 $353 $135 $354 $355 forward $85 $-1 #
coedge $-1 $135 $353 $356 $357 forward $85 $-1 #
coedge $-1 $358 $359 $135 $217 reversed $360 $-1 #
edge $-1 $361 -2.9823424169590478 $362 2.9823424169590478 $216 $363 forward 7 unknown #
loop $-1 $364 $365 $136 #
cone-surface $-1 0 0 0 0 0 1 0.5 0 0 1 I I -0.70710678118654746 0.70710678118654746 0.5 forward I I I I #
coedge $-1 $220 $220 $140 $222 forward $137 $-1 #
coedge $-1 $221 $221 $365 $366 forward $139 $-1 #
edge $-1 $367 0 $367 6.2831853071796004 $220 $368 forward 7 unknown #
face $-1 $369 $370 $50 $-1 $371 reversed single #
loop $-1 $-1 $372 $141 #
plane-surface $-1 0 -2.9823424169590478 0 0 1 0 0 0 1 forward_v I I I I #
coedge $-1 $373 $374 $375 $376 forward $142 $-1 #
coedge $-1 $377 $144 $378 $379 forward $91 $-1 #
coedge $-1 $144 $377 $380 $381 forward $91 $-1 #
coedge $-1 $382 $383 $144 $230 reversed $384 $-1 #
edge $-1 $385 -2.9823424169590478 $386 2.9823424169590478 $229 $387 forward 7 unknown #
loop $-1 $388 $389 $145 #
cone-surface $-1 0 0 0 0 0 1 0.5 0 0 1 I I -0.70710678118654746 0.70710678118654746 0.5 forward I I I I #
coedge $-1 $233 $233 $149 $235 forward $146 $-1 #
coedge $-1 $234 $234 $389 $390 forward $148 $-1 #
edge $-1 $391 0 $391 6.2831853071796004 $233 $392 forward 7 unknown #
face $-1 $393 $394 $52 $-1 $395 reversed single #
loop $-1 $-1 $396 $150 #
plane-surface $-1 0 -2.9823424169590478 0 0 1 0 0 0 1 forward_v I I I I #
coedge $-1 $397 $398 $399 $400 forward $151 $-1 #
coedge $-1 $401 $153 $402 $403 forward $97 $-1 #
coedge $-1 $153 $401 $404 $405 forward $97 $-1 #
coedge $-1 $406 $407 $153 $243 reversed $408 $-1 #
edge $-1 $409 -2.9823424169590478 $410 2.9823424169590478 $242 $411 forward 7 unknown #
loop $-1 $412 $413 $154 #
cone-surface $-1 0 0 0 0 0 1 0.5 0 0 1 I I -0.70710678118654746 0.70710678118654746 0.5 forward I I I I #
coedge $-1 $246 $246 $158 $248 forward $155 $-1 #
coedge $-1 $247 $247 $413 $414 forward $157 $-1 #
edge $-1 $415 0 $415 6.2831853071796004 $246 $416 forward 7 unknown #
face $-1 $417 $418 $54 $-1 $419 reversed single #
loop $-1 $-1 $420 $159 #
plane-surface $-1 0 -2.9823424169590478 0 0 1 0 0 0 1 forward_v I I I I #
coedge $-1 $421 $422 $423 $424 forward $160 $-1 #
coedge $-1 $425 $162 $426 $427 forward $103 $-1 #
coedge $-1 $162 $425 $428 $429 forward $103 $-1 #
coedge $-1 $430 $431 $162 $256 reversed $432 $-1 #
edge $-1 $433 -2.9823424169590478 $434 2.9823424169590478 $255 $435 forward 7 unknown #
loop $-1 $436 $437 $163 #
cone-surface $-1 0 0 0 0 0 1 0.5 0 0 1 I I -0.70710678118654746 0.70710678118654746 0.5 forward I I I I #
coedge $-1 $259 $259 $167 $261 forward $164 $-1 #
coedge $-1 $260 $260 $437 $438 forward $166 $-1 #
edge $-1 $439 0 $439 6.2831853071796004 $259 $440 forward 7 unknown #
face $-1 $441 $442 $56 $-1 $443 reversed single #
loop $-1 $-1 $444 $168 #
plane-surface $-1 0 -2.9823424169590478 0 0 1 0 0 0 1 forward_v I I I I #
coedge $-1 $445 $446 $447 $448 forward $169 $-1 #
coedge $-1 $449 $171 $450 $451 forward $109 $-1 #
coedge $-1 $171 $449 $452 $453 forward $109 $-1 #
coedge $-1 $454 $455 $171 $269 reversed $456 $-1 #
edge $-1 $457 -2.9823424169590478 $458 2.9823424169590478 $268 $459 forward 7 unknown #
loop $-1 $460 $461 $172 #
cone-surface $-1 0 0 0 0 0 1 0.5 0 0 1 I I -0.70710678118654746 0.70710678118654746 0.5 forward I I I I #
coedge $-1 $272 $272 $176 $274 forward $173 $-1 #
coedge $-1 $273 $273 $461 $462 forward $175 $-1 #
edge $-1 $463 0 $463 6.2831853071796004 $272 $464 forward 7 unknown #
face $-1 $465 $466 $58 $-1 $467 reversed single #
loop $-1 $-1 $468 $177 #
plane-surface $-1 0 -2.9823424169590478 0 0 1 0 0 0 1 forward_v I I I I #
coedge $-1 $469 $470 $471 $472 forward $178 $-1 #
coedge $-1 $473 $180 $474 $475 forward $115 $-1 #
coedge $-1 $180 $473 $476 $477 forward $115 $-1 #
coedge $-1 $478 $479 $180 $282 reversed $480 $-1 #
edge $-1 $481 -2.9823424169590478 $482 2.9823424169590478 $281 $483 forward 7 unknown #
loop $-1 $484 $485 $181 #
cone-surface $-1 0 0 0 0 0 1 0.5 0 0 1 I I -0.70710678118654746 0.70710678118654746 0.5 forward I I I I #
coedge $-1 $285 $285 $185 $287 forward $182 $-1 #
coedge $-1 $286 $286 $485 $486 forward $184 $-1 #
edge $-1 $487 0 $487 6.2831853071796004 $285 $488 forward 7 unknown #
face $-1 $489 $490 $45 $-1 $491 reversed single #
loop $-1 $-1 $492 $186 #
plane-surface $-1 -50.823084200567649 0 0 1 0 0 0 0 -1 forward_v I I I I #
coedge $-1 $493 $299 $494 $495 forward $187 $-1 #
coedge $-1 $496 $189 $493 $497 forward $121 $-1 #
coedge $-1 $189 $496 $498 $499 forward $121 $-1 #
coedge $-1 $302 $301 $189 $295 reversed $303 $-1 #
edge $-1 $500 -32.231485983760976 $501 32.231485983760976 $294 $502 forward 7 unknown #
coedge $-1 $191 $190 $503 $504 forward $76 $-1 #
coedge $-1 $505 $506 $190 $298 reversed $490 $-1 #
edge $-1 $305 -50.823084200567649 $507 50.823084200567649 $297 $508 forward 7 unknown #
coedge $-1 $291 $509 $191 $300 reversed $187 $-1 #
edge $-1 $510 -50.823084200567649 $304 50.823084200567649 $299 $511 forward 7 unknown #
coedge $-1 $294 $192 $509 $512 forward $303 $-1 #
coedge $-1 $192 $294 $505 $513 reversed $303 $-1 #
loop $-1 $-1 $301 $489 #
vertex $-1 $193 $514 #
vertex $-1 $193 $515 #
straight-curve $-1 50.823084200567649 0 15.227205704697306 0 1 0 I I #
face $-1 $516 $517 $46 $-1 $518 reversed single #
loop $-1 $-1 $519 $194 #
plane-surface $-1 -2.6527133495322621 0 0 1 0 0 0 0 -1 forward_v I I I I #
coedge $-1 $520 $318 $521 $522 forward $195 $-1 #
coedge $-1 $523 $197 $520 $524 forward $125 $-1 #
coedge $-1 $197 $523 $525 $526 forward $125 $-1 #
coedge $-1 $321 $320 $197 $314 reversed $322 $-1 #
edge $-1 $527 -9.980332669953345 $528 9.980332669953345 $313 $529 forward 7 unknown #
coedge $-1 $199 $198 $530 $531 forward $79 $-1 #
coedge $-1 $532 $533 $198 $317 reversed $517 $-1 #
edge $-1 $324 -2.6527133495322621 $534 2.6527133495322621 $316 $535 forward 7 unknown #
coedge $-1 $310 $536 $199 $319 reversed $195 $-1 #
edge $-1 $537 -2.6527133495322621 $323 2.6527133495322621 $318 $538 forward 7 unknown #
coedge $-1 $313 $200 $536 $539 forward $322 $-1 #
coedge $-1 $200 $313 $532 $540 reversed $322 $-1 #
loop $-1 $-1 $320 $516 #
vertex $-1 $201 $541 #
vertex $-1 $201 $542 #
straight-curve $-1 2.6527133495322621 0 15.227205704697306 0 1 0 I I #
face $-1 $543 $544 $47 $-1 $545 reversed single #
loop $-1 $-1 $546 $202 #
plane-surface $-1 -2.6527133495322621 0 0 1 0 0 0 0 -1 forward_v I I I I #
coedge $-1 $547 $337 $548 $549 forward $203 $-1 #
coedge $-1 $550 $205 $547 $551 forward $129 $-1 #
coedge $-1 $205 $550 $552 $553 forward $129 $-1 #
coedge $-1 $340 $339 $205 $333 reversed $341 $-1 #
edge $-1 $554 -9.9803326699533415 $555 9.9803326699533415 $332 $556 forward 7 unknown #
coedge $-1 $207 $206 $557 $558 forward $82 $-1 #
coedge $-1 $559 $560 $206 $336 reversed $544 $-1 #
edge $-1 $343 -2.6527133495322621 $561 2.6527133495322621 $335 $562 forward 7 unknown #
coedge $-1 $329 $563 $207 $338 reversed $203 $-1 #
edge $-1 $564 -2.6527133495322621 $342 2.6527133495322621 $337 $565 forward 7 unknown #
coedge $-1 $332 $208 $563 $566 forward $341 $-1 #
coedge $-1 $208 $332 $559 $567 reversed $341 $-1 #
loop $-1 $-1 $339 $543 #
vertex $-1 $209 $568 #
vertex $-1 $209 $569 #
straight-curve $-1 2.6527133495322621 0 15.227205704697306 0 1 0 I I #
face $-1 $570 $571 $48 $-1 $572 reversed single #
loop $-1 $-1 $573 $210 #
plane-surface $-1 -203.2923368022706 0 0 1 0 0 0 0 -1 forward_v I I I I #
coedge $-1 $574 $356 $575 $576 forward $211 $-1 #
coedge $-1 $577 $213 $574 $578 forward $133 $-1 #
coedge $-1 $213 $577 $579 $580 forward $133 $-1 #
coedge $-1 $359 $358 $213 $352 reversed $360 $-1 #
edge $-1 $581 -2.9823424169590478 $582 2.9823424169590478 $351 $583 forward 7 unknown #
coedge $-1 $215 $214 $584 $585 forward $85 $-1 #
coedge $-1 $586 $587 $214 $355 reversed $571 $-1 #
edge $-1 $362 -203.2923368022706 $588 203.2923368022706 $354 $589 forward 7 unknown #
coedge $-1 $348 $590 $215 $357 reversed $211 $-1 #
edge $-1 $591 -203.2923368022706 $361 203.2923368022706 $356 $592 forward 7 unknown #
coedge $-1 $351 $216 $590 $593 forward $360 $-1 #
coedge $-1 $216 $351 $586 $594 reversed $360 $-1 #
loop $-1 $-1 $358 $570 #
vertex $-1 $217 $595 #
vertex $-1 $217 $596 #
straight-curve $-1 203.2923368022706 0 101.6461684011353 0 1 0 I I #
loop $-1 $-1 $597 $136 #
coedge $-1 $365 $365 $221 $366 reversed $218 $-1 #
edge $-1 $598 0 $598 6.2831853071796004 $365 $599 forward 7 unknown #
vertex $-1 $222 $600 #
ellipse-curve $-1 0 0 -4.1378978850672947 0 0 -1 1 0 0 1 I I #
face $-1 $601 $602 $50 $-1 $603 reversed single #
loop $-1 $-1 $604 $223 #
plane-surface $-1 -203.2923368022706 0 0 1 0 0 0 0 -1 forward_v I I I I #
coedge $-1 $605 $380 $606 $607 forward $224 $-1 #
coedge $-1 $608 $226 $605 $609 forward $142 $-1 #
coedge $-1 $226 $608 $610 $611 forward $142 $-1 #
coedge $-1 $383 $382 $226 $376 reversed $384 $-1 #
edge $-1 $612 -2.9823424169590478 $613 2.9823424169590478 $375 $614 forward 7 unknown #
coedge $-1 $228 $227 $615 $616 forward $91 $-1 #
coedge $-1 $617 $618 $227 $379 reversed $602 $-1 #
edge $-1 $386 -203.2923368022706 $619 203.2923368022706 $378 $620 forward 7 unknown #
coedge $-1 $372 $621 $228 $381 reversed $224 $-1 #
edge $-1 $622 -203.2923368022706 $385 203.2923368022706 $380 $623 forward 7 unknown #
coedge $-1 $375 $229 $621 $624 forward $384 $-1 #
coedge $-1 $229 $375 $617 $625 reversed $384 $-1 #
loop $-1 $-1 $382 $601 #
vertex $-1 $230 $626 #
vertex $-1 $230 $627 #
straight-curve $-1 203.2923368022706 0 101.6461684011353 0 1 0 I I #
loop $-1 $-1 $628 $145 #
coedge $-1 $389 $389 $234 $390 reversed $231 $-1 #
edge $-1 $629 0 $629 6.2831853071796004 $389 $630 forward 7 unknown #
vertex $-1 $235 $631 #
ellipse-curve $-1 0 0 -4.1378978850672947 0 0 -1 1 0 0 1 I I #
face $-1 $632 $633 $52 $-1 $634 reversed single #
loop $-1 $-1 $635 $236 #
plane-surface $-1 -203.2923368022706 0 0 1 0 0 0 0 -1 forward_v I I I I #
coedge $-1 $636 $404 $637 $638 forward $237 $-1 #
coedge $-1 $639 $239 $636 $640 forward $151 $-1 #
coedge $-1 $239 $639 $641 $642 forward $151 $-1 #
coedge $-1 $407 $406 $239 $400 reversed $408 $-1 #
edge $-1 $643 -2.9823424169590478 $644 2.9823424169590478 $399 $645 forward 7 unknown #
coedge $-1 $241 $240 $646 $647 forward $97 $-1 #
coedge $-1 $648 $649 $240 $403 reversed $633 $-1 #
edge $-1 $410 -203.2923368022706 $650 203.2923368022706 $402 $651 forward 7 unknown #
coedge $-1 $396 $652 $241 $405 reversed $237 $-1 #
edge $-1 $653 -203.2923368022706 $409 203.2923368022706 $404 $654 forward 7 unknown #
coedge $-1 $399 $242 $652 $655 forward $408 $-1 #
coedge $-1 $242 $399 $648 $656 reversed $408 $-1 #
loop $-1 $-1 $406 $632 #
vertex $-1 $243 $657 #
vertex $-1 $243 $658 #
straight-curve $-1 203.2923368022706 0 101.6461684011353 0 1 0 I I #
loop $-1 $-1 $659 $154 #
coedge $-1 $413 $413 $247 $414 reversed $244 $-1 #
edge $-1 $660 0 $660 6.2831853071796004 $413 $661 forward 7 unknown #
vertex $-1 $248 $662 #
ellipse-curve $-1 0 0 -4.1378978850672947 0 0 -1 1 0 0 1 I I #
face $-1 $663 $664 $54 $-1 $665 reversed single #
loop $-1 $-1 $666 $249 #
plane-surface $-1 -203.2923368022706 0 0 1 0 0 0 0 -1 forward_v I I I I #
coedge $-1 $667 $428 $668 $669 forward $250 $-1 #
coedge $-1 $670 $252 $667 $671 forward $160 $-1 #
coedge $-1 $252 $670 $672 $673 forward $160 $-1 #
coedge $-1 $431 $430 $252 $424 reversed $432 $-1 #
edge $-1 $674 -2.9823424169590478 $675 2.9823424169590478 $423 $676 forward 7 unknown #
coedge $-1 $254 $253 $677 $678 forward $103 $-1 #
coedge $-1 $679 $680 $253 $427 reversed $664 $-1 #
edge $-1 $434 -203.2923368022706 $681 203.2923368022706 $426 $682 forward 7 unknown #
coedge $-1 $420 $683 $254 $429 reversed $250 $-1 #
edge $-1 $684 -203.2923368022706 $433 203.2923368022706 $428 $685 forward 7 unknown #
coedge $-1 $423 $255 $683 $686 forward $432 $-1 #
coedge $-1 $255 $423 $679 $687 reversed $432 $-1 #
loop $-1 $-1 $430 $663 #
vertex $-1 $256 $688 #
vertex $-1 $256 $689 #
straight-curve $-1 203.2923368022706 0 101.6461684011353 0 1 0 I I #
loop $-1 $-1 $690 $163 #
coedge $-1 $437 $437 $260 $438 reversed $257 $-1 #
edge $-1 $691 0 $691 6.2831853071796004 $437 $692 forward 7 unknown #
vertex $-1 $261 $693 #
ellipse-curve $-1 0 0 -4.1378978850672947 0 0 -1 1 0 0 1 I I #
face $-1 $694 $695 $56 $-1 $696 reversed single #
loop $-1 $-1 $697 $262 #
plane-surface $-1 -203.2923368022706 0 0 1 0 0 0 0 -1 forward_v I I I I #
coedge $-1 $698 $452 $699 $700 forward $263 $-1 #
coedge $-1 $701 $265 $698 $702 forward $169 $-1 #
coedge $-1 $265 $701 $703 $704 forward $169 $-1 #
coedge $-1 $455 $454 $265 $448 reversed $456 $-1 #
edge $-1 $705 -2.9823424169590478 $706 2.9823424169590478 $447 $707 forward 7 unknown #
coedge $-1 $267 $266 $708 $709 forward $109 $-1 #
coedge $-1 $710 $711 $266 $451 reversed $695 $-1 #
edge $-1 $458 -203.2923368022706 $712 203.2923368022706 $450 $713 forward 7 unknown #
coedge $-1 $444 $714 $267 $453 reversed $263 $-1 #
edge $-1 $715 -203.2923368022706 $457 203.2923368022706 $452 $716 forward 7 unknown #
coedge $-1 $447 $268 $714 $717 forward $456 $-1 #
coedge $-1 $268 $447 $710 $718 reversed $456 $-1 #
loop $-1 $-1 $454 $694 #
vertex $-1 $269 $719 #
vertex $-1 $269 $720 #
straight-curve $-1 203.2923368022706 0 101.6461684011353 0 1 0 I I #
loop $-1 $-1 $721 $172 #
coedge $-1 $461 $461 $273 $462 reversed $270 $-1 #
edge $-1 $722 0 $722 6.2831853071796004 $461 $723 forward 7 unknown #
vertex $-1 $274 $724 #
ellipse-curve $-1 0 0 -4.1378978850672947 0 0 -1 1 0 0 1 I I #
face $-1 $725 $726 $58 $-1 $727 reversed single #
loop $-1 $-1 $728 $275 #
plane-surface $-1 -203.2923368022706 0 0 1 0 0 0 0 -1 forward_v I I I I #
coedge $-1 $729 $476 $730 $731 forward $276 $-1 #
coedge $-1 $732 $278 $729 $733 forward $178 $-1 #
coedge $-1 $278 $732 $734 $735 forward $178 $-1 #
coedge $-1 $479 $478 $278 $472 reversed $480 $-1 #
edge $-1 $736 -2.9823424169590478 $737 2.9823424169590478 $471 $738 forward 7 unknown #
coedge $-1 $280 $279 $739 $740 forward $115 $-1 #
coedge $-1 $741 $742 $279 $475 reversed $726 $-1 #
edge $-1 $482 -203.2923368022706 $743 203.2923368022706 $474 $744 forward 7 unknown #
coedge $-1 $468 $745 $280 $477 reversed $276 $-1 #
edge $-1 $746 -203.2923368022706 $481 203.2923368022706 $476 $747 forward 7 unknown #
coedge $-1 $471 $281 $745 $748 forward $480 $-1 #
coedge $-1 $281 $471 $741 $749 reversed $480 $-1 #
loop $-1 $-1 $478 $725 #
vertex $-1 $282 $750 #
vertex $-1 $282 $751 #
straight-curve $-1 203.2923368022706 0 101.6461684011353 0 1 0 I I #
loop $-1 $-1 $752 $181 #
coedge $-1 $485 $485 $286 $486 reversed $283 $-1 #
edge $-1 $753 0 $753 6.2831853071796004 $485 $754 forward 7 unknown #
vertex $-1 $287 $755 #
ellipse-curve $-1 0 0 -4.1378978850672947 0 0 -1 1 0 0 1 I I #
face $-1 $-1 $303 $45 $-1 $756 reversed single #
loop $-1 $-1 $505 $288 #
plane-surface $-1 0 32.231485983760976 0 0 -1 0 0 0 -1 forward_v I I I I #
coedge $-1 $757 $503 $506 $758 forward $289 $-1 #
coedge $-1 $509 $291 $292 $497 reversed $187 $-1 #
coedge $-1 $503 $757 $291 $495 reversed $289 $-1 #
edge $-1 $510 -15.227205704697306 $759 15.227205704697306 $494 $760 forward 7 unknown #
coedge $-1 $293 $292 $757 $761 forward $121 $-1 #
edge $-1 $501 -50.823084200567649 $759 50.823084200567649 $493 $762 forward 7 unknown #
coedge $-1 $506 $505 $293 $499 reversed $490 $-1 #
edge $-1 $763 -50.823084200567649 $500 50.823084200567649 $498 $764 forward 7 unknown #
vertex $-1 $295 $765 #
vertex $-1 $512 $766 #
straight-curve $-1 50.823084200567649 0 -15.227205704697306 0 -1 0 I I #
coedge $-1 $492 $494 $296 $504 reversed $289 $-1 #
edge $-1 $507 -32.231485983760976 $510 32.231485983760976 $503 $767 forward 7 unknown #
coedge $-1 $498 $297 $302 $513 forward $490 $-1 #
coedge $-1 $297 $498 $492 $758 reversed $490 $-1 #
vertex $-1 $298 $768 #
straight-curve $-1 0 32.231485983760976 15.227205704697306 -1 0 0 I I #
coedge $-1 $299 $493 $301 $512 reversed $187 $-1 #
vertex $-1 $504 $769 #
straight-curve $-1 0 -32.231485983760976 15.227205704697306 1 0 0 I I #
edge $-1 $304 -15.227205704697306 $501 15.227205704697306 $301 $770 forward 7 unknown #
edge $-1 $305 -15.227205704697306 $500 15.227205704697306 $302 $771 forward 7 unknown #
point $-1 50.823084200567649 -32.231485983760976 15.227205704697306 #
point $-1 50.823084200567649 32.231485983760976 15.227205704697306 #
face $-1 $-1 $322 $46 $-1 $772 reversed single #
loop $-1 $-1 $532 $307 #
plane-surface $-1 0 9.980332669953345 0 0 -1 0 0 0 -1 forward_v I I I I #
coedge $-1 $773 $530 $533 $774 forward $308 $-1 #
coedge $-1 $536 $310 $311 $524 reversed $195 $-1 #
coedge $-1 $530 $773 $310 $522 reversed $308 $-1 #
edge $-1 $537 -15.227205704697306 $775 15.227205704697306 $521 $776 forward 7 unknown #
coedge $-1 $312 $311 $773 $777 forward $125 $-1 #
edge $-1 $528 -2.6527133495322621 $775 2.6527133495322621 $520 $778 forward 7 unknown #
coedge $-1 $533 $532 $312 $526 reversed $517 $-1 #
edge $-1 $779 -2.6527133495322621 $527 2.6527133495322621 $525 $780 forward 7 unknown #
vertex $-1 $314 $781 #
vertex $-1 $539 $782 #
straight-curve $-1 2.6527133495322621 0 -15.227205704697306 0 -1 0 I I #
coedge $-1 $519 $521 $315 $531 reversed $308 $-1 #
edge $-1 $534 -9.980332669953345 $537 9.980332669953345 $530 $783 forward 7 unknown #
coedge $-1 $525 $316 $321 $540 forward $517 $-1 #
coedge $-1 $316 $525 $519 $774 reversed $517 $-1 #
vertex $-1 $317 $784 #
straight-curve $-1 0 9.980332669953345 15.227205704697306 -1 0 0 I I #
coedge $-1 $318 $520 $320 $539 reversed $195 $-1 #
vertex $-1 $531 $785 #
straight-curve $-1 0 -9.980332669953345 15.227205704697306 1 0 0 I I #
edge $-1 $323 -15.227205704697306 $528 15.227205704697306 $320 $786 forward 7 unknown #
edge $-1 $324 -15.227205704697306 $527 15.227205704697306 $321 $787 forward 7 unknown #
point $-1 2.6527133495322621 -9.980332669953345 15.227205704697306 #
point $-1 2.6527133495322621 9.980332669953345 15.227205704697306 #
face $-1 $-1 $341 $47 $-1 $788 reversed single #
loop $-1 $-1 $559 $326 #
plane-surface $-1 0 9.9803326699533415 0 0 -1 0 0 0 -1 forward_v I I I I #
coedge $-1 $789 $557 $560 $790 forward $327 $-1 #
coedge $-1 $563 $329 $330 $551 reversed $203 $-1 #
coedge $-1 $557 $789 $329 $549 reversed $327 $-1 #
edge $-1 $564 -15.227205704697306 $791 15.227205704697306 $548 $792 forward 7 unknown #
coedge $-1 $331 $330 $789 $793 forward $129 $-1 #
edge $-1 $555 -2.6527133495322621 $791 2.6527133495322621 $547 $794 forward 7 unknown #
coedge $-1 $560 $559 $331 $553 reversed $544 $-1 #
edge $-1 $795 -2.6527133495322621 $554 2.6527133495322621 $552 $796 forward 7 unknown #
vertex $-1 $333 $797 #
vertex $-1 $566 $798 #
straight-curve $-1 2.6527133495322621 0 -15.227205704697306 0 -1 0 I I #
coedge $-1 $546 $548 $334 $558 reversed $327 $-1 #
edge $-1 $561 -9.9803326699533415 $564 9.9803326699533415 $557 $799 forward 7 unknown #
coedge $-1 $552 $335 $340 $567 forward $544 $-1 #
coedge $-1 $335 $552 $546 $790 reversed $544 $-1 #
vertex $-1 $336 $800 #
straight-curve $-1 0 9.9803326699533415 15.227205704697306 -1 0 0 I I #
coedge $-1 $337 $547 $339 $566 reversed $203 $-1 #
vertex $-1 $558 $801 #
straight-curve $-1 0 -9.9803326699533415 15.227205704697306 1 0 0 I I #
edge $-1 $342 -15.227205704697306 $555 15.227205704697306 $339 $802 forward 7 unknown #
edge $-1 $343 -15.227205704697306 $554 15.227205704697306 $340 $803 forward 7 unknown #
point $-1 2.6527133495322621 -9.9803326699533415 15.227205704697306 #
point $-1 2.6527133495322621 9.9803326699533415 15.227205704697306 #
face $-1 $-1 $360 $48 $-1 $804 reversed single #
loop $-1 $-1 $586 $345 #
plane-surface $-1 0 2.9823424169590478 0 0 -1 0 0 0 -1 forward_v I I I I #
coedge $-1 $805 $584 $587 $806 forward $346 $-1 #
coedge $-1 $590 $348 $349 $578 reversed $211 $-1 #
coedge $-1 $584 $805 $348 $576 reversed $346 $-1 #
edge $-1 $591 -101.6461684011353 $807 101.6461684011353 $575 $808 forward 7 unknown #
coedge $-1 $350 $349 $805 $809 forward $133 $-1 #
edge $-1 $582 -203.2923368022706 $807 203.2923368022706 $574 $810 forward 7 unknown #
coedge $-1 $587 $586 $350 $580 reversed $571 $-1 #
edge $-1 $811 -203.2923368022706 $581 203.2923368022706 $579 $812 forward 7 unknown #
vertex $-1 $352 $813 #
vertex $-1 $593 $814 #
straight-curve $-1 203.2923368022706 0 -101.6461684011353 0 -1 0 I I #
coedge $-1 $573 $575 $353 $585 reversed $346 $-1 #
edge $-1 $588 -2.9823424169590478 $591 2.9823424169590478 $584 $815 forward 7 unknown #
coedge $-1 $579 $354 $359 $594 forward $571 $-1 #
coedge $-1 $354 $579 $573 $806 reversed $571 $-1 #
vertex $-1 $355 $816 #
straight-curve $-1 0 2.9823424169590478 101.6461684011353 -1 0 0 I I #
coedge $-1 $356 $574 $358 $593 reversed $211 $-1 #
vertex $-1 $585 $817 #
straight-curve $-1 0 -2.9823424169590478 101.6461684011353 1 0 0 I I #
edge $-1 $361 -101.6461684011353 $582 101.6461684011353 $358 $818 forward 7 unknown #
edge $-1 $362 -101.6461684011353 $581 101.6461684011353 $359 $819 forward 7 unknown #
point $-1 203.2923368022706 -2.9823424169590478 101.6461684011353 #
point $-1 203.2923368022706 2.9823424169590478 101.6461684011353 #
coedge $-1 $597 $597 $-1 $820 reversed $364 $-1 #
vertex $-1 $366 $821 #
ellipse-curve $-1 0 0 -0.5 0 0 -1 1 0 0 1 I I #
point $-1 1 0 -4.1378978850672947 #
face $-1 $-1 $384 $50 $-1 $822 reversed single #
loop $-1 $-1 $617 $369 #
plane-surface $-1 0 2.9823424169590478 0 0 -1 0 0 0 -1 forward_v I I I I #
coedge $-1 $823 $615 $618 $824 forward $370 $-1 #
coedge $-1 $621 $372 $373 $609 reversed $224 $-1 #
coedge $-1 $615 $823 $372 $607 reversed $370 $-1 #
edge $-1 $622 -101.6461684011353 $825 101.6461684011353 $606 $826 forward 7 unknown #
coedge $-1 $374 $373 $823 $827 forward $142 $-1 #
edge $-1 $613 -203.2923368022706 $825 203.2923368022706 $605 $828 forward 7 unknown #
coedge $-1 $618 $617 $374 $611 reversed $602 $-1 #
edge $-1 $829 -203.2923368022706 $612 203.2923368022706 $610 $830 forward 7 unknown #
vertex $-1 $376 $831 #
vertex $-1 $624 $832 #
straight-curve $-1 203.2923368022706 0 -101.6461684011353 0 -1 0 I I #
coedge $-1 $604 $606 $377 $616 reversed $370 $-1 #
edge $-1 $619 -2.9823424169590478 $622 2.9823424169590478 $615 $833 forward 7 unknown #
coedge $-1 $610 $378 $383 $625 forward $602 $-1 #
coedge $-1 $378 $610 $604 $824 reversed $602 $-1 #
vertex $-1 $379 $834 #
straight-curve $-1 0 2.9823424169590478 101.6461684011353 -1 0 0 I I #
coedge $-1 $380 $605 $382 $624 reversed $224 $-1 #
vertex $-1 $616 $835 #
straight-curve $-1 0 -2.9823424169590478 101.6461684011353 1 0 0 I I #
edge $-1 $385 -101.6461684011353 $613 101.6461684011353 $382 $836 forward 7 unknown #
edge $-1 $386 -101.6461684011353 $612 101.6461684011353 $383 $837 forward 7 unknown #
point $-1 203.2923368022706 -2.9823424169590478 101.6461684011353 #
point $-1 203.2923368022706 2.9823424169590478 101.6461684011353 #
coedge $-1 $628 $628 $-1 $838 reversed $388 $-1 #
vertex $-1 $390 $839 #
ellipse-curve $-1 0 0 -0.5 0 0 -1 1 0 0 1 I I #
point $-1 1 0 -4.1378978850672947 #
face $-1 $-1 $408 $52 $-1 $840 reversed single #
loop $-1 $-1 $648 $393 #
plane-surface $-1 0 2.9823424169590478 0 0 -1 0 0 0 -1 forward_v I I I I #
coedge $-1 $841 $646 $649 $842 forward $394 $-1 #
coedge $-1 $652 $396 $397 $640 reversed $237 $-1 #
coedge $-1 $646 $841 $396 $638 reversed $394 $-1 #
edge $-1 $653 -101.6461684011353 $843 101.6461684011353 $637 $844 forward 7 unknown #
coedge $-1 $398 $397 $841 $845 forward $151 $-1 #
edge $-1 $644 -203.2923368022706 $843 203.2923368022706 $636 $846 forward 7 unknown #
coedge $-1 $649 $648 $398 $642 reversed $633 $-1 #
edge $-1 $847 -203.2923368022706 $643 203.2923368022706 $641 $848 forward 7 unknown #
vertex $-1 $400 $849 #
vertex $-1 $655 $850 #
straight-curve $-1 203.2923368022706 0 -101.6461684011353 0 -1 0 I I #
coedge $-1 $635 $637 $401 $647 reversed $394 $-1 #
edge $-1 $650 -2.9823424169590478 $653 2.9823424169590478 $646 $851 forward 7 unknown #
coedge $-1 $641 $402 $407 $656 forward $633 $-1 #
coedge $-1 $402 $641 $635 $842 reversed $633 $-1 #
vertex $-1 $403 $852 #
straight-curve $-1 0 2.9823424169590478 101.6461684011353 -1 0 0 I I #
coedge $-1 $404 $636 $406 $655 reversed $237 $-1 #
vertex $-1 $647 $853 #
straight-curve $-1 0 -2.9823424169590478 101.6461684011353 1 0 0 I I #
edge $-1 $409 -101.6461684011353 $644 101.6461684011353 $406 $854 forward 7 unknown #
edge $-1 $410 -101.6461684011353 $643 101.6461684011353 $407 $855 forward 7 unknown #
point $-1 203.2923368022706 -2.9823424169590478 101.6461684011353 #
point $-1 203.2923368022706 2.9823424169590478 101.6461684011353 #
coedge $-1 $659 $659 $-1 $856 reversed $412 $-1 #
vertex $-1 $414 $857 #
ellipse-curve $-1 0 0 -0.5 0 0 -1 1 0 0 1 I I #
point $-1 1 0 -4.1378978850672947 #
face $-1 $-1 $432 $54 $-1 $858 reversed single #
loop $-1 $-1 $679 $417 #
plane-surface $-1 0 2.9823424169590478 0 0 -1 0 0 0 -1 forward_v I I I I #
coedge $-1 $859 $677 $680 $860 forward $418 $-1 #
coedge $-1 $683 $420 $421 $671 reversed $250 $-1 #
coedge $-1 $677 $859 $420 $669 reversed $418 $-1 #
edge $-1 $684 -101.6461684011353 $861 101.6461684011353 $668 $862 forward 7 unknown #
coedge $-1 $422 $421 $859 $863 forward $160 $-1 #
edge $-1 $675 -203.2923368022706 $861 203.2923368022706 $667 $864 forward 7 unknown #
coedge $-1 $680 $679 $422 $673 reversed $664 $-1 #
edge $-1 $865 -203.2923368022706 $674 203.2923368022706 $672 $866 forward 7 unknown #
vertex $-1 $424 $867 #
vertex $-1 $686 $868 #
straight-curve $-1 203.2923368022706 0 -101.6461684011353 0 -1 0 I I #
coedge $-1 $666 $668 $425 $678 reversed $418 $-1 #
edge $-1 $681 -2.9823424169590478 $684 2.9823424169590478 $677 $869 forward 7 unknown #
coedge $-1 $672 $426 $431 $687 forward $664 $-1 #
coedge $-1 $426 $672 $666 $860 reversed $664 $-1 #
vertex $-1 $427 $870 #
straight-curve $-1 0 2.9823424169590478 101.6461684011353 -1 0 0 I I #
coedge $-1 $428 $667 $430 $686 reversed $250 $-1 #
vertex $-1 $678 $871 #
straight-curve $-1 0 -2.9823424169590478 101.6461684011353 1 0 0 I I #
edge $-1 $433 -101.6461684011353 $675 101.6461684011353 $430 $872 forward 7 unknown #
edge $-1 $434 -101.6461684011353 $674 101.6461684011353 $431 $873 forward 7 unknown #
point $-1 203.2923368022706 -2.9823424169590478 101.6461684011353 #
point $-1 203.2923368022706 2.9823424169590478 101.6461684011353 #
coedge $-1 $690 $690 $-1 $874 reversed $436 $-1 #
vertex $-1 $438 $875 #
ellipse-curve $-1 0 0 -0.5 0 0 -1 1 0 0 1 I I #
point $-1 1 0 -4.1378978850672947 #
face $-1 $-1 $456 $56 $-1 $876 reversed single #
loop $-1 $-1 $710 $441 #
plane-surface $-1 0 2.9823424169590478 0 0 -1 0 0 0 -1 forward_v I I I I #
coedge $-1 $877 $708 $711 $878 forward $442 $-1 #
coedge $-1 $714 $444 $445 $702 reversed $263 $-1 #
coedge $-1 $708 $877 $444 $700 reversed $442 $-1 #
edge $-1 $715 -101.6461684011353 $879 101.6461684011353 $699 $880 forward 7 unknown #
coedge $-1 $446 $445 $877 $881 forward $169 $-1 #
edge $-1 $706 -203.2923368022706 $879 203.2923368022706 $698 $882 forward 7 unknown #
coedge $-1 $711 $710 $446 $704 reversed $695 $-1 #
edge $-1 $883 -203.2923368022706 $705 203.2923368022706 $703 $884 forward 7 unknown #
vertex $-1 $448 $885 #
vertex $-1 $717 $886 #
straight-curve $-1 203.2923368022706 0 -101.6461684011353 0 -1 0 I I #
coedge $-1 $697 $699 $449 $709 reversed $442 $-1 #
edge $-1 $712 -2.9823424169590478 $715 2.9823424169590478 $708 $887 forward 7 unknown #
coedge $-1 $703 $450 $455 $718 forward $695 $-1 #
coedge $-1 $450 $703 $697 $878 reversed $695 $-1 #
vertex $-1 $451 $888 #
straight-curve $-1 0 2.9823424169590478 101.6461684011353 -1 0 0 I I #
coedge $-1 $452 $698 $454 $717 reversed $263 $-1 #
vertex $-1 $709 $889 #
straight-curve $-1 0 -2.9823424169590478 101.6461684011353 1 0 0 I I #
edge $-1 $457 -101.6461684011353 $706 101.6461684011353 $454 $890 forward 7 unknown #
edge $-1 $458 -101.6461684011353 $705 101.6461684011353 $455 $891 forward 7 unknown #
point $-1 203.2923368022706 -2.9823424169590478 101.6461684011353 #
point $-1 203.2923368022706 2.9823424169590478 101.6461684011353 #
coedge $-1 $721 $721 $-1 $892 reversed $460 $-1 #
vertex $-1 $462 $893 #
ellipse-curve $-1 0 0 -0.5 0 0 -1 1 0 0 1 I I #
point $-1 1 0 -4.1378978850672947 #
face $-1 $-1 $480 $58 $-1 $894 reversed single #
loop $-1 $-1 $741 $465 #
plane-surface $-1 0 2.9823424169590478 0 0 -1 0 0 0 -1 forward_v I I I I #
coedge $-1 $895 $739 $742 $896 forward $466 $-1 #
coedge $-1 $745 $468 $469 $733 reversed $276 $-1 #
coedge $-1 $739 $895 $468 $731 reversed $466 $-1 #
edge $-1 $746 -101.6461684011353 $897 101.6461684011353 $730 $898 forward 7 unknown #
coedge $-1 $470 $469 $895 $899 forward $178 $-1 #
edge $-1 $737 -203.2923368022706 $897 203.2923368022706 $729 $900 forward 7 unknown #
coedge $-1 $742 $741 $470 $735 reversed $726 $-1 #
edge $-1 $901 -203.2923368022706 $736 203.2923368022706 $734 $902 forward 7 unknown #
vertex $-1 $472 $903 #
vertex $-1 $748 $904 #
straight-curve $-1 203.2923368022706 0 -101.6461684011353 0 -1 0 I I #
coedge $-1 $728 $730 $473 $740 reversed $466 $-1 #
edge $-1 $743 -2.9823424169590478 $746 2.9823424169590478 $739 $905 forward 7 unknown #
coedge $-1 $734 $474 $479 $749 forward $726 $-1 #
coedge $-1 $474 $734 $728 $896 reversed $726 $-1 #
vertex $-1 $475 $906 #
straight-curve $-1 0 2.9823424169590478 101.6461684011353 -1 0 0 I I #
coedge $-1 $476 $729 $478 $748 reversed $276 $-1 #
vertex $-1 $740 $907 #
straight-curve $-1 0 -2.9823424169590478 101.6461684011353 1 0 0 I I #
edge $-1 $481 -101.6461684011353 $737 101.6461684011353 $478 $908 forward 7 unknown #
edge $-1 $482 -101.6461684011353 $736 101.6461684011353 $479 $909 forward 7 unknown #
point $-1 203.2923368022706 -2.9823424169590478 101.6461684011353 #
point $-1 203.2923368022706 2.9823424169590478 101.6461684011353 #
coedge $-1 $752 $752 $-1 $910 reversed $484 $-1 #
vertex $-1 $486 $911 #
ellipse-curve $-1 0 0 -0.5 0 0 -1 1 0 0 1 I I #
point $-1 1 0 -4.1378978850672947 #
plane-surface $-1 50.823084200567649 0 0 -1 0 0 0 0 1 forward_v I I I I #
coedge $-1 $494 $492 $496 $761 reversed $289 $-1 #
edge $-1 $507 -15.227205704697306 $763 15.227205704697306 $506 $912 forward 7 unknown #
vertex $-1 $761 $913 #
straight-curve $-1 -50.823084200567649 -32.231485983760976 0 0 0 -1 I I #
edge $-1 $759 -32.231485983760976 $763 32.231485983760976 $757 $914 forward 7 unknown #
straight-curve $-1 0 -32.231485983760976 -15.227205704697306 -1 0 0 I I #
vertex $-1 $499 $915 #
straight-curve $-1 0 32.231485983760976 -15.227205704697306 1 0 0 I I #
point $-1 50.823084200567649 32.231485983760976 -15.227205704697306 #
point $-1 50.823084200567649 -32.231485983760976 -15.227205704697306 #
straight-curve $-1 -50.823084200567649 0 15.227205704697306 0 -1 0 I I #
point $-1 -50.823084200567649 32.231485983760976 15.227205704697306 #
point $-1 -50.823084200567649 -32.231485983760976 15.227205704697306 #
straight-curve $-1 50.823084200567649 -32.231485983760976 0 0 0 -1 I I #
straight-curve $-1 50.823084200567649 32.231485983760976 0 0 0 -1 I I #
plane-surface $-1 2.6527133495322621 0 0 -1 0 0 0 0 1 forward_v I I I I #
coedge $-1 $521 $519 $523 $777 reversed $308 $-1 #
edge $-1 $534 -15.227205704697306 $779 15.227205704697306 $533 $916 forward 7 unknown #
vertex $-1 $777 $917 #
straight-curve $-1 -2.6527133495322621 -9.980332669953345 0 0 0 -1 I I #
edge $-1 $775 -9.980332669953345 $779 9.980332669953345 $773 $918 forward 7 unknown #
straight-curve $-1 0 -9.980332669953345 -15.227205704697306 -1 0 0 I I #
vertex $-1 $526 $919 #
straight-curve $-1 0 9.980332669953345 -15.227205704697306 1 0 0 I I #
point $-1 2.6527133495322621 9.980332669953345 -15.227205704697306 #
point $-1 2.6527133495322621 -9.980332669953345 -15.227205704697306 #
straight-curve $-1 -2.6527133495322621 0 15.227205704697306 0 -1 0 I I #
point $-1 -2.6527133495322621 9.980332669953345 15.227205704697306 #
point $-1 -2.6527133495322621 -9.980332669953345 15.227205704697306 #
straight-curve $-1 2.6527133495322621 -9.980332669953345 0 0 0 -1 I I #
straight-curve $-1 2.6527133495322621 9.980332669953345 0 0 0 -1 I I #
plane-surface $-1 2.6527133495322621 0 0 -1 0 0 0 0 1 forward_v I I I I #
coedge $-1 $548 $546 $550 $793 reversed $327 $-1 #
edge $-1 $561 -15.227205704697306 $795 15.227205704697306 $560 $920 forward 7 unknown #
vertex $-1 $793 $921 #
straight-curve $-1 -2.6527133495322621 -9.9803326699533415 0 0 0 -1 I I #
edge $-1 $791 -9.9803326699533415 $795 9.9803326699533415 $789 $922 forward 7 unknown #
straight-curve $-1 0 -9.9803326699533415 -15.227205704697306 -1 0 0 I I #
vertex $-1 $553 $923 #
straight-curve $-1 0 9.9803326699533415 -15.227205704697306 1 0 0 I I #
point $-1 2.6527133495322621 9.9803326699533415 -15.227205704697306 #
point $-1 2.6527133495322621 -9.9803326699533415 -15.227205704697306 #
straight-curve $-1 -2.6527133495322621 0 15.227205704697306 0 -1 0 I I #
point $-1 -2.6527133495322621 9.9803326699533415 15.227205704697306 #
point $-1 -2.6527133495322621 -9.9803326699533415 15.227205704697306 #
straight-curve $-1 2.6527133495322621 -9.9803326699533415 0 0 0 -1 I I #
straight-curve $-1 2.6527133495322621 9.9803326699533415 0 0 0 -1 I I #
plane-surface $-1 203.2923368022706 0 0 -1 0 0 0 0 1 forward_v I I I I #
coedge $-1 $575 $573 $577 $809 reversed $346 $-1 #
edge $-1 $588 -101.6461684011353 $811 101.6461684011353 $587 $924 forward 7 unknown #
vertex $-1 $809 $925 #
straight-curve $-1 -203.2923368022706 -2.9823424169590478 0 0 0 -1 I I #
edge $-1 $807 -2.9823424169590478 $811 2.9823424169590478 $805 $926 forward 7 unknown #
straight-curve $-1 0 -2.9823424169590478 -101.6461684011353 -1 0 0 I I #
vertex $-1 $580 $927 #
straight-curve $-1 0 2.9823424169590478 -101.6461684011353 1 0 0 I I #
point $-1 203.2923368022706 2.9823424169590478 -101.6461684011353 #
point $-1 203.2923368022706 -2.9823424169590478 -101.6461684011353 #
straight-curve $-1 -203.2923368022706 0 101.6461684011353 0 -1 0 I I #
point $-1 -203.2923368022706 2.9823424169590478 101.6461684011353 #
point $-1 -203.2923368022706 -2.9823424169590478 101.6461684011353 #
straight-curve $-1 203.2923368022706 -2.9823424169590478 0 0 0 -1 I I #
straight-curve $-1 203.2923368022706 2.9823424169590478 0 0 0 -1 I I #
edge $-1 $928 1 $928 0 $597 $-1 forward 7 unknown #
point $-1 1 0 -0.5 #
plane-surface $-1 203.2923368022706 0 0 -1 0 0 0 0 1 forward_v I I I I #
coedge $-1 $606 $604 $608 $827 reversed $370 $-1 #
edge $-1 $619 -101.6461684011353 $829 101.6461684011353 $618 $929 forward 7 unknown #
vertex $-1 $827 $930 #
straight-curve $-1 -203.2923368022706 -2.9823424169590478 0 0 0 -1 I I #
edge $-1 $825 -2.9823424169590478 $829 2.9823424169590478 $823 $931 forward 7 unknown #
straight-curve $-1 0 -2.9823424169590478 -101.6461684011353 -1 0 0 I I #
vertex $-1 $611 $932 #
straight-curve $-1 0 2.9823424169590478 -101.6461684011353 1 0 0 I I #
point $-1 203.2923368022706 2.9823424169590478 -101.6461684011353 #
point $-1 203.2923368022706 -2.9823424169590478 -101.6461684011353 #
straight-curve $-1 -203.2923368022706 0 101.6461684011353 0 -1 0 I I #
point $-1 -203.2923368022706 2.9823424169590478 101.6461684011353 #
point $-1 -203.2923368022706 -2.9823424169590478 101.6461684011353 #
straight-curve $-1 203.2923368022706 -2.9823424169590478 0 0 0 -1 I I #
straight-curve $-1 203.2923368022706 2.9823424169590478 0 0 0 -1 I I #
edge $-1 $933 1 $933 0 $628 $-1 forward 7 unknown #
point $-1 1 0 -0.5 #
plane-surface $-1 203.2923368022706 0 0 -1 0 0 0 0 1 forward_v I I I I #
coedge $-1 $637 $635 $639 $845 reversed $394 $-1 #
edge $-1 $650 -101.6461684011353 $847 101.6461684011353 $649 $934 forward 7 unknown #
vertex $-1 $845 $935 #
straight-curve $-1 -203.2923368022706 -2.9823424169590478 0 0 0 -1 I I #
edge $-1 $843 -2.9823424169590478 $847 2.9823424169590478 $841 $936 forward 7 unknown #
straight-curve $-1 0 -2.9823424169590478 -101.6461684011353 -1 0 0 I I #
vertex $-1 $642 $937 #
straight-curve $-1 0 2.9823424169590478 -101.6461684011353 1 0 0 I I #
point $-1 203.2923368022706 2.9823424169590478 -101.6461684011353 #
point $-1 203.2923368022706 -2.9823424169590478 -101.6461684011353 #
straight-curve $-1 -203.2923368022706 0 101.6461684011353 0 -1 0 I I #
point $-1 -203.2923368022706 2.9823424169590478 101.6461684011353 #
point $-1 -203.2923368022706 -2.9823424169590478 101.6461684011353 #
straight-curve $-1 203.2923368022706 -2.9823424169590478 0 0 0 -1 I I #
straight-curve $-1 203.2923368022706 2.9823424169590478 0 0 0 -1 I I #
edge $-1 $938 1 $938 0 $659 $-1 forward 7 unknown #
point $-1 1 0 -0.5 #
plane-surface $-1 203.2923368022706 0 0 -1 0 0 0 0 1 forward_v I I I I #
coedge $-1 $668 $666 $670 $863 reversed $418 $-1 #
edge $-1 $681 -101.6461684011353 $865 101.6461684011353 $680 $939 forward 7 unknown #
vertex $-1 $863 $940 #
straight-curve $-1 -203.2923368022706 -2.9823424169590478 0 0 0 -1 I I #
edge $-1 $861 -2.9823424169590478 $865 2.9823424169590478 $859 $941 forward 7 unknown #
straight-curve $-1 0 -2.9823424169590478 -101.6461684011353 -1 0 0 I I #
vertex $-1 $673 $942 #
straight-curve $-1 0 2.9823424169590478 -101.6461684011353 1 0 0 I I #
point $-1 203.2923368022706 2.9823424169590478 -101.6461684011353 #
point $-1 203.2923368022706 -2.9823424169590478 -101.6461684011353 #
straight-curve $-1 -203.2923368022706 0 101.6461684011353 0 -1 0 I I #
point $-1 -203.2923368022706 2.9823424169590478 101.6461684011353 #
point $-1 -203.2923368022706 -2.9823424169590478 101.6461684011353 #
straight-curve $-1 203.2923368022706 -2.9823424169590478 0 0 0 -1 I I #
straight-curve $-1 203.2923368022706 2.9823424169590478 0 0 0 -1 I I #
edge $-1 $943 1 $943 0 $690 $-1 forward 7 unknown #
point $-1 1 0 -0.5 #
plane-surface $-1 203.2923368022706 0 0 -1 0 0 0 0 1 forward_v I I I I #
coedge $-1 $699 $697 $701 $881 reversed $442 $-1 #
edge $-1 $712 -101.6461684011353 $883 101.6461684011353 $711 $944 forward 7 unknown #
vertex $-1 $881 $945 #
straight-curve $-1 -203.2923368022706 -2.9823424169590478 0 0 0 -1 I I #
edge $-1 $879 -2.9823424169590478 $883 2.9823424169590478 $877 $946 forward 7 unknown #
straight-curve $-1 0 -2.9823424169590478 -101.6461684011353 -1 0 0 I I #
vertex $-1 $704 $947 #
straight-curve $-1 0 2.9823424169590478 -101.6461684011353 1 0 0 I I #
point $-1 203.2923368022706 2.9823424169590478 -101.6461684011353 #
point $-1 203.2923368022706 -2.9823424169590478 -101.6461684011353 #
straight-curve $-1 -203.2923368022706 0 101.6461684011353 0 -1 0 I I #
point $-1 -203.2923368022706 2.9823424169590478 101.6461684011353 #
point $-1 -203.2923368022706 -2.9823424169590478 101.6461684011353 #
straight-curve $-1 203.2923368022706 -2.9823424169590478 0 0 0 -1 I I #
straight-curve $-1 203.2923368022706 2.9823424169590478 0 0 0 -1 I I #
edge $-1 $948 1 $948 0 $721 $-1 forward 7 unknown #
point $-1 1 0 -0.5 #
plane-surface $-1 203.2923368022706 0 0 -1 0 0 0 0 1 forward_v I I I I #
coedge $-1 $730 $728 $732 $899 reversed $466 $-1 #
edge $-1 $743 -101.6461684011353 $901 101.6461684011353 $742 $949 forward 7 unknown #
vertex $-1 $899 $950 #
straight-curve $-1 -203.2923368022706 -2.9823424169590478 0 0 0 -1 I I #
edge $-1 $897 -2.9823424169590478 $901 2.9823424169590478 $895 $951 forward 7 unknown #
straight-curve $-1 0 -2.9823424169590478 -101.6461684011353 -1 0 0 I I #
vertex $-1 $735 $952 #
straight-curve $-1 0 2.9823424169590478 -101.6461684011353 1 0 0 I I #
point $-1 203.2923368022706 2.9823424169590478 -101.6461684011353 #
point $-1 203.2923368022706 -2.9823424169590478 -101.6461684011353 #
straight-curve $-1 -203.2923368022706 0 101.6461684011353 0 -1 0 I I #
point $-1 -203.2923368022706 2.9823424169590478 101.6461684011353 #
point $-1 -203.2923368022706 -2.9823424169590478 101.6461684011353 #
straight-curve $-1 203.2923368022706 -2.9823424169590478 0 0 0 -1 I I #
straight-curve $-1 203.2923368022706 2.9823424169590478 0 0 0 -1 I I #
edge $-1 $953 1 $953 0 $752 $-1 forward 7 unknown #
point $-1 1 0 -0.5 #
straight-curve $-1 -50.823084200567649 32.231485983760976 0 0 0 -1 I I #
point $-1 -50.823084200567649 -32.231485983760976 -15.227205704697306 #
straight-curve $-1 -50.823084200567649 0 -15.227205704697306 0 1 0 I I #
point $-1 -50.823084200567649 32.231485983760976 -15.227205704697306 #
straight-curve $-1 -2.6527133495322621 9.980332669953345 0 0 0 -1 I I #
point $-1 -2.6527133495322621 -9.980332669953345 -15.227205704697306 #
straight-curve $-1 -2.6527133495322621 0 -15.227205704697306 0 1 0 I I #
point $-1 -2.6527133495322621 9.980332669953345 -15.227205704697306 #
straight-curve $-1 -2.6527133495322621 9.9803326699533415 0 0 0 -1 I I #
point $-1 -2.6527133495322621 -9.9803326699533415 -15.227205704697306 #
straight-curve $-1 -2.6527133495322621 0 -15.227205704697306 0 1 0 I I #
point $-1 -2.6527133495322621 9.9803326699533415 -15.227205704697306 #
straight-curve $-1 -203.2923368022706 2.9823424169590478 0 0 0 -1 I I #
point $-1 -203.2923368022706 -2.9823424169590478 -101.6461684011353 #
straight-curve $-1 -203.2923368022706 0 -101.6461684011353 0 1 0 I I #
point $-1 -203.2923368022706 2.9823424169590478 -101.6461684011353 #
vertex $-1 $820 $954 #
straight-curve $-1 -203.2923368022706 2.9823424169590478 0 0 0 -1 I I #
point $-1 -203.2923368022706 -2.9823424169590478 -101.6461684011353 #
straight-curve $-1 -203.2923368022706 0 -101.6461684011353 0 1 0 I I #
point $-1 -203.2923368022706 2.9823424169590478 -101.6461684011353 #
vertex $-1 $838 $955 #
straight-curve $-1 -203.2923368022706 2.9823424169590478 0 0 0 -1 I I #
point $-1 -203.2923368022706 -2.9823424169590478 -101.6461684011353 #
straight-curve $-1 -203.2923368022706 0 -101.6461684011353 0 1 0 I I #
point $-1 -203.2923368022706 2.9823424169590478 -101.6461684011353 #
vertex $-1 $856 $956 #
straight-curve $-1 -203.2923368022706 2.9823424169590478 0 0 0 -1 I I #
point $-1 -203.2923368022706 -2.9823424169590478 -101.6461684011353 #
straight-curve $-1 -203.2923368022706 0 -101.6461684011353 0 1 0 I I #
point $-1 -203.2923368022706 2.9823424169590478 -101.6461684011353 #
vertex $-1 $874 $957 #
straight-curve $-1 -203.2923368022706 2.9823424169590478 0 0 0 -1 I I #
point $-1 -203.2923368022706 -2.9823424169590478 -101.6461684011353 #
straight-curve $-1 -203.2923368022706 0 -101.6461684011353 0 1 0 I I #
point $-1 -203.2923368022706 2.9823424169590478 -101.6461684011353 #
vertex $-1 $892 $958 #
straight-curve $-1 -203.2923368022706 2.9823424169590478 0 0 0 -1 I I #
point $-1 -203.2923368022706 -2.9823424169590478 -101.6461684011353 #
straight-curve $-1 -203.2923368022706 0 -101.6461684011353 0 1 0 I I #
point $-1 -203.2923368022706 2.9823424169590478 -101.6461684011353 #
vertex $-1 $910 $959 #
point $-1 0 0 0.5 #
point $-1 0 0 0.5 #
point $-1 0 0 0.5 #
point $-1 0 0 0.5 #
point $-1 0 0 0.5 #
point $-1 0 0 0.5 #
End-of-ACIS-data 