500 0 9 0           
7 Unknown 11 ACIS 5.0 NT 24 Thu Mar 25 19:07:16 1999 
-1 9.9999999999999995e-007 1e-010 
body $-1 $9 $-1 $10 #
body $-1 $11 $-1 $12 #
body $-1 $13 $-1 $14 #
body $-1 $15 $-1 $16 #
body $-1 $17 $-1 $18 #
body $-1 $19 $-1 $20 #
body $-1 $21 $-1 $22 #
body $-1 $23 $-1 $24 #
body $-1 $25 $-1 $26 #
lump $-1 $-1 $27 $0 #
transform $-1 1 0 0 0 1 0 0 0 1 43.588976714377267 18.719833921935479 8.3838484696311273 1 rotate no_reflect no_shear #
lump $-1 $-1 $28 $1 #
transform $-1 1 0 0 0 1 0 0 0 1 43.588976714377267 18.719833921935479 8.3838484696311273 1 rotate no_reflect no_shear #
lump $-1 $-1 $29 $2 #
transform $-1 1 0 0 0 1 0 0 0 1 43.588976714377267 18.719833921935479 8.3838484696311273 1 rotate no_reflect no_shear #
lump $-1 $-1 $30 $3 #
transform $-1 1 0 0 0 1 0 0 0 1 43.588976714377267 18.719833921935479 8.3838484696311273 1 rotate no_reflect no_shear #
lump $-1 $-1 $31 $4 #
transform $-1 1 0 0 0 1 0 0 0 1 43.588976714377267 18.719833921935479 8.3838484696311273 1 rotate no_reflect no_shear #
lump $-1 $-1 $32 $5 #
transform $-1 1 0 0 0 1 0 0 0 1 43.588976714377267 18.719833921935479 8.3838484696311273 1 rotate no_reflect no_shear #
lump $-1 $-1 $33 $6 #
transform $-1 1 0 0 0 1 0 0 0 1 43.588976714377267 18.719833921935479 8.3838484696311273 1 rotate no_reflect no_shear #
lump $-1 $-1 $34 $7 #
transform $-1 1 0 0 0 1 0 0 0 1 43.588976714377267 18.719833921935479 8.3838484696311273 1 rotate no_reflect no_shear #
lump $-1 $-1 $35 $8 #
transform $-1 1 0 0 0 1 0 0 0 1 43.588976714377267 18.719833921935479 8.3838484696311273 1 rotate no_reflect no_shear #
shell $-1 $-1 $-1 $36 $-1 $9 #
shell $-1 $-1 $-1 $37 $-1 $11 #
shell $-1 $-1 $-1 $38 $-1 $13 #
shell $-1 $-1 $-1 $39 $-1 $15 #
shell $-1 $-1 $-1 $40 $-1 $17 #
shell $-1 $-1 $-1 $41 $-1 $19 #
shell $-1 $-1 $-1 $42 $-1 $21 #
shell $-1 $-1 $-1 $43 $-1 $23 #
shell $-1 $-1 $-1 $44 $-1 $25 #
face $-1 $45 $46 $27 $-1 $47 forward single #
face $-1 $48 $49 $28 $-1 $50 forward single #
face $-1 $51 $52 $29 $-1 $53 reversed single #
face $-1 $54 $55 $30 $-1 $56 forward single #
face $-1 $57 $58 $31 $-1 $59 forward single #
face $-1 $60 $61 $32 $-1 $62 forward single #
face $-1 $63 $64 $33 $-1 $65 reversed single #
face $-1 $66 $67 $34 $-1 $68 forward single #
face $-1 $69 $70 $35 $-1 $71 forward single #
face $-1 $72 $73 $27 $-1 $74 reversed single #
loop $-1 $-1 $75 $36 #
plane-surface $-1 0 0 8.3838484696311273 0 0 1 1 0 0 forward_v I I I I #
face $-1 $76 $77 $28 $-1 $78 reversed single #
loop $-1 $-1 $79 $37 #
plane-surface $-1 -43.588976714377267 0 0 1 0 0 0 0 -1 forward_v I I I I #
face $-1 $80 $81 $29 $-1 $82 reversed single #
loop $-1 $-1 $83 $38 #
plane-surface $-1 31.991852897909421 -90.131833399120779 54.456596599052062 -1 0 0 0 -0.81915205242281985 0.57357642473473569 forward_v I I I I #
face $-1 $84 $85 $30 $-1 $86 forward single #
loop $-1 $87 $88 $39 #
cone-surface $-1 16.949648425593331 -16.684148580435732 5.9567472915405872 0 0.81915205242281985 -0.57357642473473569 0.5 0 0 1 I I 0 1 0.5 forward I I I I #
face $-1 $89 $90 $31 $-1 $91 forward single #
loop $-1 $92 $93 $40 #
cone-surface $-1 22.590475102711864 -16.684148580435732 5.9567472915405872 0 0.81915205242281985 -0.57357642473473569 0.5 0 0 1 I I 0 1 0.5 forward I I I I #
face $-1 $94 $95 $32 $-1 $96 forward single #
loop $-1 $97 $98 $41 #
cone-surface $-1 28.231301779830403 -16.684148580435732 5.9567472915405872 0 0.81915205242281985 -0.57357642473473569 0.5 0 0 1 I I 0 1 0.5 forward I I I I #
face $-1 $99 $100 $33 $-1 $101 reversed single #
loop $-1 $-1 $102 $42 #
plane-surface $-1 23.563769375769745 58.453652328258045 88.897008735263455 1 0 0 0 -0.74314483375859142 -0.66913059716165679 forward_v I I I I #
face $-1 $103 $104 $34 $-1 $105 forward single #
loop $-1 $106 $107 $43 #
cone-surface $-1 29.285257186800465 14.326950535105521 3.8944108088959939 0 -0.74314483375859142 -0.66913059716165679 1.5 0 0 1 I I 0 1 1.5 forward I I I I #
face $-1 $108 $109 $35 $-1 $110 forward single #
loop $-1 $111 $112 $44 #
cone-surface $-1 37.86748890334654 14.326950535105521 3.8944108088959939 0 -0.74314483375859142 -0.66913059716165679 1.5 0 0 1 I I 0 1 1.5 forward I I I I #
face $-1 $113 $114 $27 $-1 $115 reversed single #
loop $-1 $-1 $116 $45 #
plane-surface $-1 0 0 -8.3838484696311273 0 0 1 1 0 0 forward_v I I I I #
coedge $-1 $117 $118 $119 $120 forward $46 $-1 #
face $-1 $121 $122 $28 $-1 $123 forward single #
loop $-1 $-1 $124 $48 #
plane-surface $-1 0 18.719833921935479 0 0 -1 0 0 0 -1 forward_v I I I I #
coedge $-1 $125 $126 $127 $128 forward $49 $-1 #
face $-1 $129 $130 $29 $-1 $131 reversed single #
loop $-1 $-1 $132 $51 #
plane-surface $-1 22.590475102711864 -18.719833921935503 4.4533777556957403 0 -0.81915205242281985 0.57357642473473569 1 0 0 forward_v I I I I #
coedge $-1 $133 $134 $135 $136 reversed $52 $-1 #
face $-1 $-1 $137 $30 $-1 $138 forward single #
loop $-1 $139 $140 $54 #
cone-surface $-1 16.949648425593331 -15.819747795602705 5.3514873642340604 0 0.81915205242281985 -0.57357642473473569 0.25 0 0 1 I I -0.70710678118654746 0.70710678118654746 0.25 forward I I I I #
loop $-1 $-1 $141 $39 #
coedge $-1 $88 $88 $142 $143 reversed $55 $-1 #
face $-1 $-1 $144 $31 $-1 $145 forward single #
loop $-1 $146 $147 $57 #
cone-surface $-1 22.590475102711864 -15.819747795602705 5.3514873642340604 0 0.81915205242281985 -0.57357642473473569 0.25 0 0 1 I I -0.70710678118654746 0.70710678118654746 0.25 forward I I I I #
loop $-1 $-1 $148 $40 #
coedge $-1 $93 $93 $149 $150 reversed $58 $-1 #
face $-1 $-1 $151 $32 $-1 $152 forward single #
loop $-1 $153 $154 $60 #
cone-surface $-1 28.231301779830403 -15.819747795602705 5.3514873642340604 0 0.81915205242281985 -0.57357642473473569 0.25 0 0 1 I I -0.70710678118654746 0.70710678118654746 0.25 forward I I I I #
loop $-1 $-1 $155 $41 #
coedge $-1 $98 $98 $156 $157 reversed $61 $-1 #
face $-1 $158 $159 $33 $-1 $160 forward single #
loop $-1 $-1 $161 $63 #
plane-surface $-1 33.57637304507351 -6.3321933799679755 30.563572698149827 0 0.74314483375859142 0.66913059716165679 1 0 0 forward_v I I I I #
coedge $-1 $162 $163 $164 $165 reversed $64 $-1 #
face $-1 $-1 $166 $34 $-1 $167 forward single #
loop $-1 $168 $169 $66 #
cone-surface $-1 29.285257186800465 11.917365724043897 1.7248109539354441 0 -0.74314483375859142 -0.66913059716165679 0.75 0 0 1 I I -0.70710678118654757 0.70710678118654757 0.75 forward I I I I #
loop $-1 $-1 $170 $43 #
coedge $-1 $107 $107 $171 $172 reversed $67 $-1 #
face $-1 $-1 $173 $35 $-1 $174 forward single #
loop $-1 $175 $176 $69 #
cone-surface $-1 37.86748890334654 11.917365724043897 1.7248109539354441 0 -0.74314483375859142 -0.66913059716165679 0.75 0 0 1 I I -0.70710678118654757 0.70710678118654757 0.75 forward I I I I #
loop $-1 $-1 $177 $44 #
coedge $-1 $112 $112 $178 $179 reversed $70 $-1 #
face $-1 $180 $181 $27 $-1 $182 reversed single #
loop $-1 $-1 $183 $72 #
plane-surface $-1 0 -18.719833921935479 0 0 1 0 0 0 1 forward_v I I I I #
coedge $-1 $184 $185 $186 $187 forward $73 $-1 #
coedge $-1 $188 $75 $189 $190 forward $46 $-1 #
coedge $-1 $75 $188 $191 $192 forward $46 $-1 #
coedge $-1 $193 $194 $75 $120 reversed $195 $-1 #
edge $-1 $196 -18.719833921935479 $197 18.719833921935479 $119 $198 forward 7 unknown #
face $-1 $199 $200 $28 $-1 $201 reversed single #
loop $-1 $-1 $127 $76 #
plane-surface $-1 -48.167360875505899 0 5.7804776930672404 0 0 1 1 0 0 forward_v I I I I #
coedge $-1 $202 $203 $126 $204 forward $77 $-1 #
coedge $-1 $205 $79 $206 $207 reversed $49 $-1 #
coedge $-1 $79 $205 $124 $204 reversed $49 $-1 #
coedge $-1 $208 $209 $79 $128 reversed $122 $-1 #
edge $-1 $210 -18.719833921935479 $211 18.719833921935479 $127 $212 forward 7 unknown #
face $-1 $213 $214 $29 $-1 $215 reversed single #
loop $-1 $-1 $216 $80 #
plane-surface $-1 13.189097307514306 -90.131833399120779 54.456596599052062 1 0 0 0 0.81915205242281985 -0.57357642473473569 forward_v I I I I #
coedge $-1 $217 $218 $219 $220 reversed $81 $-1 #
coedge $-1 $134 $83 $221 $222 reversed $52 $-1 #
coedge $-1 $83 $133 $217 $223 reversed $52 $-1 #
coedge $-1 $219 $224 $83 $136 forward $225 $-1 #
edge $-1 $226 26.346082777624911 $227 29.098227917169726 $135 $228 forward 7 unknown #
loop $-1 $-1 $142 $84 #
plane-surface $-1 22.590475102711864 -18.719833921935503 4.4533777556957403 0 -0.81915205242281985 0.57357642473473569 1 0 0 forward_v I I I I #
loop $-1 $-1 $229 $54 #
coedge $-1 $140 $140 $141 $230 reversed $85 $-1 #
coedge $-1 $141 $141 $140 $230 forward $87 $-1 #
coedge $-1 $142 $142 $88 $143 forward $137 $-1 #
edge $-1 $231 -2.8377424419951109e-016 $231 6.2831853071796004 $142 $232 forward 7 unknown #
loop $-1 $-1 $149 $89 #
plane-surface $-1 22.590475102711864 -18.719833921935503 4.4533777556957403 0 -0.81915205242281985 0.57357642473473569 1 0 0 forward_v I I I I #
loop $-1 $-1 $233 $57 #
coedge $-1 $147 $147 $148 $234 reversed $90 $-1 #
coedge $-1 $148 $148 $147 $234 forward $92 $-1 #
coedge $-1 $149 $149 $93 $150 forward $144 $-1 #
edge $-1 $235 -2.8377424419951109e-016 $235 6.2831853071796004 $149 $236 forward 7 unknown #
loop $-1 $-1 $156 $94 #
plane-surface $-1 22.590475102711864 -18.719833921935503 4.4533777556957403 0 -0.81915205242281985 0.57357642473473569 1 0 0 forward_v I I I I #
loop $-1 $-1 $237 $60 #
coedge $-1 $154 $154 $155 $238 reversed $95 $-1 #
coedge $-1 $155 $155 $154 $238 forward $97 $-1 #
coedge $-1 $156 $156 $98 $157 forward $151 $-1 #
edge $-1 $239 -2.8377424419951109e-016 $239 6.2831853071796004 $156 $240 forward 7 unknown #
face $-1 $241 $242 $33 $-1 $243 reversed single #
loop $-1 $-1 $164 $99 #
plane-surface $-1 0 0 8.3838484696311273 0 0 1 1 0 0 forward_v I I I I #
coedge $-1 $244 $245 $246 $247 reversed $100 $-1 #
coedge $-1 $163 $102 $248 $249 reversed $64 $-1 #
coedge $-1 $102 $162 $244 $250 reversed $64 $-1 #
coedge $-1 $246 $251 $102 $165 forward $159 $-1 #
edge $-1 $252 10.506992242193544 $253 15.588306644368103 $164 $254 forward 7 unknown #
loop $-1 $-1 $171 $103 #
plane-surface $-1 33.57637304507351 -6.3321933799679755 30.563572698149827 0 0.74314483375859142 0.66913059716165679 1 0 0 forward_v I I I I #
loop $-1 $-1 $255 $66 #
coedge $-1 $169 $169 $170 $256 reversed $104 $-1 #
coedge $-1 $170 $170 $169 $256 forward $106 $-1 #
coedge $-1 $171 $171 $107 $172 forward $166 $-1 #
edge $-1 $257 -1.0553611992639615e-015 $257 6.2831853071795996 $171 $258 forward 7 unknown #
loop $-1 $-1 $178 $108 #
plane-surface $-1 33.57637304507351 -6.3321933799679755 30.563572698149827 0 0.74314483375859142 0.66913059716165679 1 0 0 forward_v I I I I #
loop $-1 $-1 $259 $69 #
coedge $-1 $176 $176 $177 $260 reversed $109 $-1 #
coedge $-1 $177 $177 $176 $260 forward $111 $-1 #
coedge $-1 $178 $178 $112 $179 forward $173 $-1 #
edge $-1 $261 -1.0553611992639615e-015 $261 6.2831853071795996 $178 $262 forward 7 unknown #
face $-1 $263 $264 $27 $-1 $265 reversed single #
loop $-1 $-1 $266 $113 #
plane-surface $-1 -43.588976714377267 0 0 1 0 0 0 0 -1 forward_v I I I I #
coedge $-1 $267 $191 $266 $268 forward $114 $-1 #
coedge $-1 $269 $116 $267 $270 forward $73 $-1 #
coedge $-1 $116 $269 $271 $272 forward $73 $-1 #
coedge $-1 $194 $193 $116 $187 reversed $195 $-1 #
edge $-1 $273 -18.719833921935479 $274 18.719833921935479 $186 $275 forward 7 unknown #
coedge $-1 $118 $117 $276 $277 forward $46 $-1 #
coedge $-1 $278 $279 $117 $190 reversed $264 $-1 #
edge $-1 $197 -43.588976714377267 $280 43.588976714377267 $189 $281 forward 7 unknown #
coedge $-1 $183 $282 $118 $192 reversed $114 $-1 #
edge $-1 $283 -43.588976714377267 $196 43.588976714377267 $191 $284 forward 7 unknown #
coedge $-1 $186 $119 $282 $285 forward $195 $-1 #
coedge $-1 $119 $186 $278 $286 reversed $195 $-1 #
loop $-1 $-1 $193 $263 #
vertex $-1 $120 $287 #
vertex $-1 $120 $288 #
straight-curve $-1 43.588976714377267 0 8.3838484696311273 0 1 0 I I #
face $-1 $289 $290 $28 $-1 $291 reversed single #
loop $-1 $-1 $292 $121 #
plane-surface $-1 -48.167360875505899 0 2.7804776930672404 0 0 1 1 0 0 forward_v I I I I #
coedge $-1 $293 $124 $294 $295 reversed $77 $-1 #
coedge $-1 $124 $293 $208 $296 reversed $77 $-1 #
edge $-1 $210 -5.7804776930672404 $297 -2.7804776930672404 $124 $298 forward 7 unknown #
coedge $-1 $126 $125 $292 $299 forward $49 $-1 #
coedge $-1 $300 $301 $125 $207 forward $302 $-1 #
edge $-1 $303 2.7804776930672404 $211 5.7804776930672404 $206 $304 forward 7 unknown #
coedge $-1 $305 $127 $203 $296 forward $122 $-1 #
coedge $-1 $127 $305 $300 $306 forward $122 $-1 #
vertex $-1 $204 $307 #
vertex $-1 $306 $308 #
straight-curve $-1 -43.588976714377267 0 5.7804776930672404 0 -1 0 I I #
face $-1 $-1 $225 $29 $-1 $309 forward single #
loop $-1 $-1 $310 $129 #
plane-surface $-1 0 -18.719833921935479 0 0 1 0 0 0 1 forward_v I I I I #
coedge $-1 $311 $312 $313 $314 reversed $130 $-1 #
coedge $-1 $315 $132 $134 $223 forward $81 $-1 #
coedge $-1 $132 $315 $311 $316 forward $81 $-1 #
coedge $-1 $313 $135 $132 $220 forward $225 $-1 #
edge $-1 $227 -20.696615346553489 $317 -1.8938597561583741 $219 $318 forward 7 unknown #
coedge $-1 $319 $320 $133 $222 forward $214 $-1 #
edge $-1 $321 -22.774920543830255 $226 -18.844449829894906 $221 $322 forward 7 unknown #
edge $-1 $227 -4.7982187217991683 $321 -4.3366396686548645e-014 $134 $323 forward 7 unknown #
coedge $-1 $135 $313 $319 $324 forward $225 $-1 #
loop $-1 $-1 $313 $213 #
vertex $-1 $222 $325 #
vertex $-1 $136 $326 #
straight-curve $-1 31.991852897909421 -45.06591669956039 8.3838484696311291 0 1 0 I I #
coedge $-1 $229 $229 $-1 $327 reversed $139 $-1 #
edge $-1 $328 0 $328 6.2831853071796004 $140 $329 forward 7 unknown #
vertex $-1 $143 $330 #
ellipse-curve $-1 16.949648425593331 -17.343761352163078 6.4186131126634445 0 -0.81915205242281985 0.57357642473473569 0.5 0 0 1 I I #
coedge $-1 $233 $233 $-1 $331 reversed $146 $-1 #
edge $-1 $332 0 $332 6.2831853071796004 $147 $333 forward 7 unknown #
vertex $-1 $150 $334 #
ellipse-curve $-1 22.590475102711864 -17.343761352163078 6.4186131126634445 0 -0.81915205242281985 0.57357642473473569 0.5 0 0 1 I I #
coedge $-1 $237 $237 $-1 $335 reversed $153 $-1 #
edge $-1 $336 0 $336 6.2831853071796004 $154 $337 forward 7 unknown #
vertex $-1 $157 $338 #
ellipse-curve $-1 28.231301779830403 -17.343761352163078 6.4186131126634445 0 -0.81915205242281985 0.57357642473473569 0.5 0 0 1 I I #
face $-1 $-1 $339 $33 $-1 $340 reversed single #
loop $-1 $-1 $341 $158 #
plane-surface $-1 43.588976714377267 0 0 -1 0 0 0 0 1 forward_v I I I I #
coedge $-1 $342 $161 $163 $250 forward $100 $-1 #
coedge $-1 $161 $342 $341 $343 reversed $100 $-1 #
coedge $-1 $344 $164 $161 $247 forward $159 $-1 #
edge $-1 $253 6.77558285323299 $345 26.80079019184052 $246 $346 forward 7 unknown #
coedge $-1 $347 $348 $162 $249 forward $339 $-1 #
edge $-1 $349 -41.708027405292263 $252 -36.064655898000602 $248 $350 forward 7 unknown #
edge $-1 $253 29.845762522953532 $349 37.43966784387095 $163 $351 forward 7 unknown #
coedge $-1 $164 $344 $347 $352 forward $159 $-1 #
vertex $-1 $249 $353 #
vertex $-1 $165 $354 #
straight-curve $-1 23.563769375769745 29.226826164129022 8.3838484696311255 0 -1 0 I I #
coedge $-1 $255 $255 $-1 $355 reversed $168 $-1 #
edge $-1 $356 0 $356 6.2831853071796004 $169 $357 forward 7 unknown #
vertex $-1 $172 $358 #
ellipse-curve $-1 29.285257186800465 16.179176720848197 5.5621627159852967 0 0.74314483375859142 0.66913059716165679 1.5 0 0 1 I I #
coedge $-1 $259 $259 $-1 $359 reversed $175 $-1 #
edge $-1 $360 0 $360 6.2831853071796004 $176 $361 forward 7 unknown #
vertex $-1 $179 $362 #
ellipse-curve $-1 37.86748890334654 16.179176720848197 5.5621627159852967 0 0.74314483375859142 0.66913059716165679 1.5 0 0 1 I I #
face $-1 $-1 $195 $27 $-1 $363 reversed single #
loop $-1 $-1 $278 $180 #
plane-surface $-1 0 18.719833921935479 0 0 -1 0 0 0 -1 forward_v I I I I #
coedge $-1 $276 $364 $183 $268 reversed $181 $-1 #
coedge $-1 $282 $183 $184 $270 reversed $114 $-1 #
edge $-1 $283 -8.3838484696311273 $365 8.3838484696311273 $266 $366 forward 7 unknown #
coedge $-1 $185 $184 $364 $367 forward $73 $-1 #
edge $-1 $274 -43.588976714377267 $365 43.588976714377267 $267 $368 forward 7 unknown #
coedge $-1 $279 $278 $185 $272 reversed $264 $-1 #
edge $-1 $369 -43.588976714377267 $273 43.588976714377267 $271 $370 forward 7 unknown #
vertex $-1 $187 $371 #
vertex $-1 $285 $372 #
straight-curve $-1 43.588976714377267 0 -8.3838484696311273 0 -1 0 I I #
coedge $-1 $373 $266 $188 $277 reversed $181 $-1 #
edge $-1 $280 -18.719833921935479 $283 18.719833921935479 $276 $374 forward 7 unknown #
coedge $-1 $271 $189 $194 $286 forward $264 $-1 #
coedge $-1 $189 $271 $373 $375 reversed $264 $-1 #
vertex $-1 $190 $376 #
straight-curve $-1 0 18.719833921935479 8.3838484696311273 -1 0 0 I I #
coedge $-1 $191 $267 $193 $285 reversed $114 $-1 #
vertex $-1 $277 $377 #
straight-curve $-1 0 -18.719833921935479 8.3838484696311273 1 0 0 I I #
edge $-1 $196 -8.3838484696311273 $274 8.3838484696311273 $193 $378 forward 7 unknown #
edge $-1 $197 -8.3838484696311273 $273 8.3838484696311273 $194 $379 forward 7 unknown #
point $-1 43.588976714377267 -18.719833921935479 8.3838484696311273 #
point $-1 43.588976714377267 18.719833921935479 8.3838484696311273 #
face $-1 $-1 $302 $28 $-1 $380 reversed single #
loop $-1 $-1 $381 $199 #
plane-surface $-1 -52.745745036634531 0 4.2804776930672404 1 0 0 0 0 -1 forward_v I I I I #
coedge $-1 $382 $294 $205 $299 reversed $200 $-1 #
coedge $-1 $203 $202 $381 $383 reversed $77 $-1 #
coedge $-1 $292 $384 $202 $295 forward $200 $-1 #
edge $-1 $385 -4.578384161128632 $297 4.578384161128632 $202 $386 forward 7 unknown #
edge $-1 $210 -4.578384161128632 $387 4.578384161128632 $203 $388 forward 7 unknown #
vertex $-1 $204 $389 #
straight-curve $-1 -43.588976714377267 18.719833921935479 0 0 0 -1 I I #
edge $-1 $303 -18.719833921935479 $297 18.719833921935479 $292 $390 forward 7 unknown #
coedge $-1 $391 $206 $209 $306 reversed $302 $-1 #
coedge $-1 $206 $391 $382 $392 reversed $302 $-1 #
loop $-1 $-1 $206 $289 #
vertex $-1 $207 $393 #
straight-curve $-1 -43.588976714377267 -18.719833921935479 0 0 0 1 I I #
coedge $-1 $209 $208 $394 $395 forward $122 $-1 #
edge $-1 $396 -4.578384161128632 $211 4.578384161128632 $300 $397 forward 7 unknown #
point $-1 -43.588976714377267 18.719833921935479 5.7804776930672404 #
point $-1 -43.588976714377267 -18.719833921935479 5.7804776930672404 #
plane-surface $-1 0 0 8.3838484696311273 0 0 1 1 0 0 forward_v I I I I #
coedge $-1 $320 $319 $312 $398 forward $214 $-1 #
coedge $-1 $312 $216 $218 $316 reversed $130 $-1 #
coedge $-1 $216 $311 $310 $398 reversed $130 $-1 #
coedge $-1 $224 $219 $216 $314 forward $225 $-1 #
edge $-1 $317 -29.098227917169726 $399 -26.346082777624911 $313 $400 forward 7 unknown #
coedge $-1 $218 $217 $320 $401 reversed $81 $-1 #
edge $-1 $402 4.3366396686548645e-014 $317 4.7982187217991683 $311 $403 forward 7 unknown #
vertex $-1 $220 $404 #
straight-curve $-1 11.295237551355932 -15.967688782390667 8.3838484696311273 -1 0 0 I I #
coedge $-1 $310 $221 $224 $324 reversed $214 $-1 #
coedge $-1 $221 $310 $315 $401 forward $214 $-1 #
vertex $-1 $222 $405 #
straight-curve $-1 31.991852897909421 -18.719833921935475 27.228298299526031 0 0 1 I I #
straight-curve $-1 31.991852897909421 -18.719833921935503 4.4533777556957403 0 -0.57357642473473569 -0.81915205242281985 I I #
edge $-1 $399 13.189097307514306 $226 31.991852897909421 $319 $406 forward 7 unknown #
point $-1 31.991852897909421 -18.719833921935479 8.3838484696311273 #
point $-1 31.991852897909421 -15.967688782390663 8.3838484696311273 #
edge $-1 $407 1 $407 0 $229 $-1 forward 7 unknown #
vertex $-1 $230 $408 #
ellipse-curve $-1 16.949648425593331 -16.024535808708411 5.4948814704177442 0 -0.81915205242281985 0.57357642473473569 0.5 0 0 1 I I #
point $-1 17.449648425593331 -17.343761352163057 6.4186131126634294 #
edge $-1 $409 1 $409 0 $233 $-1 forward 7 unknown #
vertex $-1 $234 $410 #
ellipse-curve $-1 22.590475102711864 -16.024535808708411 5.4948814704177442 0 -0.81915205242281985 0.57357642473473569 0.5 0 0 1 I I #
point $-1 23.090475102711864 -17.343761352163057 6.4186131126634294 #
edge $-1 $411 1 $411 0 $237 $-1 forward 7 unknown #
vertex $-1 $238 $412 #
ellipse-curve $-1 28.231301779830403 -16.024535808708411 5.4948814704177442 0 -0.81915205242281985 0.57357642473473569 0.5 0 0 1 I I #
point $-1 28.731301779830403 -17.343761352163057 6.4186131126634294 #
loop $-1 $-1 $248 $241 #
plane-surface $-1 0 18.719833921935479 0 0 -1 0 0 0 -1 forward_v I I I I #
coedge $-1 $413 $414 $245 $343 forward $242 $-1 #
coedge $-1 $245 $244 $348 $415 reversed $100 $-1 #
edge $-1 $345 16.370649778195411 $416 23.964555099112836 $341 $417 forward 7 unknown #
coedge $-1 $251 $246 $414 $418 forward $159 $-1 #
vertex $-1 $418 $419 #
straight-curve $-1 16.788186522536755 13.638519519760916 8.3838484696311273 1 0 0 I I #
coedge $-1 $420 $248 $251 $352 reversed $339 $-1 #
coedge $-1 $248 $420 $342 $415 forward $339 $-1 #
vertex $-1 $249 $421 #
straight-curve $-1 23.563769375769745 18.719833921935479 44.448504367631728 0 0 1 I I #
straight-curve $-1 23.563769375769745 -6.3321933799679755 30.563572698149827 0 0.66913059716165679 -0.74314483375859142 I I #
edge $-1 $422 -43.588976714377267 $252 -23.563769375769745 $347 $423 forward 7 unknown #
point $-1 23.563769375769745 18.719833921935479 8.3838484696311273 #
point $-1 23.563769375769745 13.638519519760919 8.3838484696311255 #
edge $-1 $424 1 $424 0 $255 $-1 forward 7 unknown #
vertex $-1 $256 $425 #
ellipse-curve $-1 29.285257186800465 12.474724349362841 2.2266589018066867 0 0.74314483375859142 0.66913059716165679 1.5 0 0 1 I I #
point $-1 30.785257186800465 16.179176720848201 5.562162715985302 #
edge $-1 $426 1 $426 0 $259 $-1 forward 7 unknown #
vertex $-1 $260 $427 #
ellipse-curve $-1 37.86748890334654 12.474724349362841 2.2266589018066867 0 0.74314483375859142 0.66913059716165679 1.5 0 0 1 I I #
point $-1 39.36748890334654 16.179176720848201 5.562162715985302 #
plane-surface $-1 43.588976714377267 0 0 -1 0 0 0 0 1 forward_v I I I I #
coedge $-1 $266 $373 $269 $367 reversed $181 $-1 #
vertex $-1 $367 $428 #
straight-curve $-1 -43.588976714377267 -18.719833921935479 0 0 0 -1 I I #
edge $-1 $365 -18.719833921935479 $369 18.719833921935479 $364 $429 forward 7 unknown #
straight-curve $-1 0 -18.719833921935479 -8.3838484696311273 -1 0 0 I I #
vertex $-1 $272 $430 #
straight-curve $-1 0 18.719833921935479 -8.3838484696311273 1 0 0 I I #
point $-1 43.588976714377267 18.719833921935479 -8.3838484696311273 #
point $-1 43.588976714377267 -18.719833921935479 -8.3838484696311273 #
coedge $-1 $364 $276 $279 $375 forward $181 $-1 #
straight-curve $-1 -43.588976714377267 0 8.3838484696311273 0 -1 0 I I #
edge $-1 $280 -8.3838484696311273 $369 8.3838484696311273 $279 $431 forward 7 unknown #
point $-1 -43.588976714377267 18.719833921935479 8.3838484696311273 #
point $-1 -43.588976714377267 -18.719833921935479 8.3838484696311273 #
straight-curve $-1 43.588976714377267 -18.719833921935479 0 0 0 -1 I I #
straight-curve $-1 43.588976714377267 18.719833921935479 0 0 0 -1 I I #
plane-surface $-1 0 -18.719833921935479 0 0 1 0 0 0 1 forward_v I I I I #
coedge $-1 $432 $394 $293 $383 forward $290 $-1 #
coedge $-1 $384 $292 $301 $392 forward $200 $-1 #
edge $-1 $387 -1.5 $385 1.5 $293 $433 forward 7 unknown #
coedge $-1 $294 $382 $432 $434 forward $200 $-1 #
vertex $-1 $295 $435 #
straight-curve $-1 -48.167360875505899 18.719833921935479 2.7804776930672404 1 0 0 I I #
vertex $-1 $296 $436 #
straight-curve $-1 -48.167360875505899 18.719833921935479 5.7804776930672404 -1 0 0 I I #
point $-1 -43.588976714377267 18.719833921935479 2.7804776930672404 #
straight-curve $-1 -43.588976714377267 0 2.7804776930672404 0 1 0 I I #
coedge $-1 $301 $300 $437 $438 forward $302 $-1 #
edge $-1 $303 -4.578384161128632 $439 4.578384161128632 $301 $440 forward 7 unknown #
point $-1 -43.588976714377267 -18.719833921935479 2.7804776930672404 #
coedge $-1 $381 $437 $305 $395 reversed $290 $-1 #
edge $-1 $387 -18.719833921935479 $396 18.719833921935479 $394 $441 forward 7 unknown #
vertex $-1 $395 $442 #
straight-curve $-1 -48.167360875505899 -18.719833921935479 5.7804776930672404 1 0 0 I I #
edge $-1 $399 18.844449829894906 $402 22.774920543830255 $310 $443 forward 7 unknown #
vertex $-1 $324 $444 #
straight-curve $-1 13.189097307514306 -45.06591669956039 8.3838484696311291 0 -1 0 I I #
edge $-1 $402 1.8938597561583741 $321 20.696615346553489 $320 $445 forward 7 unknown #
vertex $-1 $401 $446 #
straight-curve $-1 13.189097307514306 -18.719833921935503 4.4533777556957403 0 0.57357642473473569 0.81915205242281985 I I #
point $-1 13.189097307514306 -15.967688782390663 8.3838484696311273 #
point $-1 31.991852897909421 -18.719833921935479 4.4533777556957759 #
straight-curve $-1 0 -18.719833921935479 8.3838484696311273 1 0 0 I I #
vertex $-1 $327 $447 #
point $-1 17.449648425593331 -16.024535808708411 5.4948814704177442 #
vertex $-1 $331 $448 #
point $-1 23.090475102711864 -16.024535808708411 5.4948814704177442 #
vertex $-1 $335 $449 #
point $-1 28.731301779830403 -16.024535808708411 5.4948814704177442 #
coedge $-1 $414 $341 $420 $450 reversed $242 $-1 #
coedge $-1 $341 $413 $344 $418 reversed $242 $-1 #
edge $-1 $416 -26.80079019184052 $349 -6.77558285323299 $348 $451 forward 7 unknown #
vertex $-1 $343 $452 #
straight-curve $-1 43.588976714377267 2.6844168577526766 20.549612277568276 0 0.66913059716165679 -0.74314483375859142 I I #
edge $-1 $345 13.638519519760919 $422 18.719833921935479 $414 $453 forward 7 unknown #
point $-1 43.588976714377274 13.638519519760919 8.3838484696311255 #
coedge $-1 $348 $347 $413 $450 forward $339 $-1 #
point $-1 23.563769375769745 18.719833921935479 2.7404769623394643 #
vertex $-1 $418 $454 #
straight-curve $-1 0 18.719833921935479 8.3838484696311273 -1 0 0 I I #
vertex $-1 $355 $455 #
point $-1 30.785257186800465 12.474724349362841 2.2266589018066867 #
vertex $-1 $359 $456 #
point $-1 39.36748890334654 12.474724349362841 2.2266589018066867 #
point $-1 -43.588976714377267 -18.719833921935479 -8.3838484696311273 #
straight-curve $-1 -43.588976714377267 0 -8.3838484696311273 0 1 0 I I #
point $-1 -43.588976714377267 18.719833921935479 -8.3838484696311273 #
straight-curve $-1 -43.588976714377267 18.719833921935479 0 0 0 -1 I I #
coedge $-1 $437 $381 $384 $434 reversed $290 $-1 #
straight-curve $-1 -52.745745036634531 18.719833921935479 4.2804776930672404 0 0 -1 I I #
edge $-1 $439 -18.719833921935479 $385 18.719833921935479 $432 $457 forward 7 unknown #
point $-1 -52.745745036634531 18.719833921935479 2.7804776930672404 #
point $-1 -52.745745036634531 18.719833921935479 5.7804776930672404 #
coedge $-1 $394 $432 $391 $438 reversed $290 $-1 #
edge $-1 $396 -1.5 $439 1.5 $437 $458 forward 7 unknown #
vertex $-1 $434 $459 #
straight-curve $-1 -48.167360875505899 -18.719833921935479 2.7804776930672404 -1 0 0 I I #
straight-curve $-1 -52.745745036634531 0 5.7804776930672404 0 -1 0 I I #
point $-1 -52.745745036634531 -18.719833921935479 5.7804776930672404 #
straight-curve $-1 13.189097307514306 -18.719833921935475 27.228298299526031 0 0 -1 I I #
point $-1 13.189097307514306 -18.719833921935479 8.3838484696311273 #
straight-curve $-1 11.295237551355932 -18.719833921935479 4.4533777556957741 1 0 0 I I #
point $-1 13.189097307514306 -18.719833921935479 4.4533777556957759 #
point $-1 16.949648425593331 -15.614959782496999 5.2080932580503765 #
point $-1 22.590475102711864 -15.614959782496999 5.2080932580503765 #
point $-1 28.231301779830403 -15.614959782496999 5.2080932580503765 #
edge $-1 $422 -8.3838484696311273 $416 -2.7404769623394643 $413 $460 forward 7 unknown #
straight-curve $-1 16.788186522536755 18.719833921935479 2.7404769623394571 -1 0 0 I I #
point $-1 43.588976714377274 18.719833921935479 2.7404769623394643 #
straight-curve $-1 43.588976714377267 0 8.3838484696311273 0 1 0 I I #
point $-1 43.588976714377267 18.719833921935479 8.3838484696311273 #
point $-1 29.285257186800465 11.360007098724953 1.2229630060642016 #
point $-1 37.86748890334654 11.360007098724953 1.2229630060642016 #
straight-curve $-1 -52.745745036634531 0 2.7804776930672404 0 1 0 I I #
straight-curve $-1 -52.745745036634531 -18.719833921935479 4.2804776930672404 0 0 -1 I I #
point $-1 -52.745745036634531 -18.719833921935479 2.7804776930672404 #
straight-curve $-1 43.588976714377267 18.719833921935479 0 0 0 -1 I I #
End-of-ACIS-data 