500 0 4 0           
7 Unknown 11 ACIS 5.0 NT 24 Fri Mar 26 18:56:02 1999 
-1 9.9999999999999995e-007 1e-010 
body $-1 $4 $-1 $5 #
body $-1 $6 $-1 $7 #
body $-1 $8 $-1 $9 #
body $-1 $10 $-1 $11 #
lump $-1 $-1 $12 $0 #
transform $-1 1 0 0 0 1 0 0 0 1 78.975798821985535 43.489111716799776 9.7406213507725834 1 rotate no_reflect no_shear #
lump $-1 $-1 $13 $1 #
transform $-1 1 0 0 0 1 0 0 0 1 78.975798821985535 43.489111716799776 9.7406213507725834 1 rotate no_reflect no_shear #
lump $-1 $-1 $14 $2 #
transform $-1 1 0 0 0 1 0 0 0 1 78.975798821985535 43.489111716799776 9.7406213507725834 1 rotate no_reflect no_shear #
lump $-1 $-1 $15 $3 #
transform $-1 1 0 0 0 1 0 0 0 1 78.975798821985535 43.489111716799776 9.7406213507725834 1 rotate no_reflect no_shear #
shell $-1 $-1 $-1 $16 $-1 $4 #
shell $-1 $-1 $-1 $17 $-1 $6 #
shell $-1 $-1 $-1 $18 $-1 $8 #
shell $-1 $-1 $-1 $19 $-1 $10 #
face $-1 $20 $21 $12 $-1 $22 forward single #
face $-1 $23 $24 $13 $-1 $25 reversed single #
face $-1 $26 $27 $14 $-1 $28 forward single #
face $-1 $29 $30 $15 $-1 $31 reversed single #
face $-1 $32 $33 $12 $-1 $34 reversed single #
loop $-1 $-1 $35 $16 #
plane-surface $-1 0 0 9.7406213507725834 0 0 1 1 0 0 forward_v I I I I #
face $-1 $36 $37 $13 $-1 $38 forward single #
loop $-1 $-1 $39 $17 #
plane-surface $-1 -74.057809132394397 0 -4.351070485152384 0 0 1 1 0 0 forward_v I I I I #
face $-1 $40 $41 $14 $-1 $42 forward single #
loop $-1 $-1 $43 $18 #
plane-surface $-1 -2.8662380471799196 -159.00759863578767 113.29427946207991 1 0 0 0 0.73135370988377701 -0.68199835119979291 forward_v I I I I #
face $-1 $44 $45 $15 $-1 $46 reversed single #
loop $-1 $47 $48 $19 #
cone-surface $-1 10.145579115090285 -40.608175400725472 6.7822487702802485 0 0.73135370988377701 -0.68199835119979291 1 0 0 1 I I 0 1 1 forward I I I I #
face $-1 $49 $50 $12 $-1 $51 reversed single #
loop $-1 $-1 $52 $20 #
plane-surface $-1 0 0 -9.7406213507725834 0 0 1 1 0 0 forward_v I I I I #
coedge $-1 $53 $54 $55 $56 forward $21 $-1 #
face $-1 $57 $58 $13 $-1 $59 reversed single #
loop $-1 $-1 $60 $23 #
plane-surface $-1 -69.139819442803258 0 -7.0458459179624837 -1 0 0 0 0 1 forward_v I I I I #
coedge $-1 $61 $62 $63 $64 reversed $24 $-1 #
face $-1 $65 $66 $14 $-1 $67 forward single #
loop $-1 $-1 $68 $26 #
plane-surface $-1 10.145579115090285 -43.489111716799783 5.5715502995185489 0 -0.73135370988377701 0.68199835119979291 1 0 0 forward_v I I I I #
coedge $-1 $69 $70 $71 $72 reversed $27 $-1 #
face $-1 $73 $74 $15 $-1 $75 forward single #
loop $-1 $76 $77 $29 #
cone-surface $-1 10.145579115090285 -39.30542300771905 5.5674125398150274 0 0.73135370988377701 -0.68199835119979291 0.5 0 0 1 I I -0.70710678118654746 0.70710678118654746 0.5 forward I I I I #
loop $-1 $-1 $78 $19 #
coedge $-1 $48 $48 $79 $80 reversed $30 $-1 #
face $-1 $81 $82 $12 $-1 $83 reversed single #
loop $-1 $-1 $84 $32 #
plane-surface $-1 0 -43.489111716799776 0 0 1 0 0 0 1 forward_v I I I I #
coedge $-1 $85 $86 $87 $88 forward $33 $-1 #
coedge $-1 $89 $35 $90 $91 forward $21 $-1 #
coedge $-1 $35 $89 $92 $93 forward $21 $-1 #
coedge $-1 $94 $95 $35 $56 reversed $96 $-1 #
edge $-1 $97 -43.489111716799776 $98 43.489111716799776 $55 $99 forward 7 unknown #
face $-1 $100 $101 $13 $-1 $102 reversed single #
loop $-1 $-1 $103 $36 #
plane-surface $-1 -78.975798821985535 0 0 1 0 0 0 0 -1 forward_v I I I I #
coedge $-1 $63 $104 $105 $106 reversed $37 $-1 #
coedge $-1 $107 $39 $108 $109 reversed $24 $-1 #
coedge $-1 $39 $107 $110 $111 reversed $24 $-1 #
coedge $-1 $112 $60 $39 $64 forward $37 $-1 #
edge $-1 $113 -43.489111716799776 $114 43.489111716799776 $63 $115 forward 7 unknown #
face $-1 $116 $117 $14 $-1 $118 reversed single #
loop $-1 $-1 $119 $40 #
plane-surface $-1 23.15739627736049 -159.00759863578767 113.29427946207991 -1 0 0 0 -0.73135370988377701 0.68199835119979291 forward_v I I I I #
coedge $-1 $120 $121 $122 $123 reversed $41 $-1 #
coedge $-1 $70 $43 $121 $124 forward $27 $-1 #
coedge $-1 $43 $69 $125 $126 reversed $27 $-1 #
coedge $-1 $127 $122 $43 $72 forward $117 $-1 #
edge $-1 $128 -51.075589431521401 $129 -46.906518380267372 $71 $130 forward 7 unknown #
face $-1 $131 $132 $15 $-1 $133 forward single #
loop $-1 $-1 $134 $44 #
plane-surface $-1 -2.8662380471799196 -159.00759863578767 113.29427946207991 1 0 0 0 0.73135370988377701 -0.68199835119979291 forward_v I I I I #
loop $-1 $-1 $135 $29 #
coedge $-1 $77 $77 $78 $136 forward $45 $-1 #
coedge $-1 $78 $78 $77 $136 reversed $47 $-1 #
coedge $-1 $79 $79 $48 $80 forward $132 $-1 #
edge $-1 $137 -2.5982903291455877e-015 $137 6.2831853071795978 $79 $138 forward 7 unknown #
face $-1 $139 $140 $12 $-1 $141 reversed single #
loop $-1 $-1 $142 $49 #
plane-surface $-1 -78.975798821985535 0 0 1 0 0 0 0 -1 forward_v I I I I #
coedge $-1 $143 $92 $144 $145 forward $50 $-1 #
coedge $-1 $146 $52 $143 $147 forward $33 $-1 #
coedge $-1 $52 $146 $148 $149 forward $33 $-1 #
coedge $-1 $95 $94 $52 $88 reversed $96 $-1 #
edge $-1 $150 -43.489111716799776 $151 43.489111716799776 $87 $152 forward 7 unknown #
coedge $-1 $54 $53 $153 $154 forward $21 $-1 #
coedge $-1 $155 $156 $53 $91 reversed $140 $-1 #
edge $-1 $98 -78.975798821985535 $157 78.975798821985535 $90 $158 forward 7 unknown #
coedge $-1 $84 $159 $54 $93 reversed $50 $-1 #
edge $-1 $160 -78.975798821985535 $97 78.975798821985535 $92 $161 forward 7 unknown #
coedge $-1 $87 $55 $159 $162 forward $96 $-1 #
coedge $-1 $55 $87 $155 $163 reversed $96 $-1 #
loop $-1 $-1 $94 $139 #
vertex $-1 $56 $164 #
vertex $-1 $56 $165 #
straight-curve $-1 78.975798821985535 0 9.7406213507725834 0 1 0 I I #
face $-1 $166 $167 $13 $-1 $168 forward single #
loop $-1 $-1 $108 $57 #
plane-surface $-1 0 -43.489111716799776 0 0 1 0 0 0 1 forward_v I I I I #
coedge $-1 $169 $170 $107 $171 forward $58 $-1 #
coedge $-1 $60 $112 $172 $173 reversed $37 $-1 #
coedge $-1 $174 $108 $60 $106 forward $101 $-1 #
edge $-1 $113 0.82814752617114218 $175 6.2176983917913411 $105 $176 forward 7 unknown #
coedge $-1 $62 $61 $103 $171 reversed $24 $-1 #
coedge $-1 $105 $177 $61 $109 forward $101 $-1 #
edge $-1 $178 -41.946894255788337 $113 -32.11091487660606 $108 $179 forward 7 unknown #
coedge $-1 $180 $181 $62 $111 forward $182 $-1 #
edge $-1 $114 32.11091487660606 $183 41.946894255788337 $110 $184 forward 7 unknown #
coedge $-1 $104 $63 $181 $185 reversed $37 $-1 #
vertex $-1 $109 $186 #
vertex $-1 $111 $187 #
straight-curve $-1 -69.139819442803258 0 -4.351070485152384 0 1 0 I I #
face $-1 $188 $189 $14 $-1 $190 reversed single #
loop $-1 $-1 $191 $65 #
plane-surface $-1 0 -43.489111716799776 0 0 1 0 0 0 1 forward_v I I I I #
coedge $-1 $192 $193 $191 $194 reversed $66 $-1 #
coedge $-1 $195 $68 $193 $196 reversed $41 $-1 #
coedge $-1 $68 $195 $69 $124 reversed $41 $-1 #
coedge $-1 $71 $191 $68 $123 forward $117 $-1 #
edge $-1 $197 -18.084606719815348 $128 7.9390276047250623 $122 $198 forward 7 unknown #
edge $-1 $128 1.0692042983031357e-014 $199 5.7004852712329317 $69 $200 forward 7 unknown #
coedge $-1 $201 $202 $70 $126 forward $203 $-1 #
edge $-1 $129 36.01468760109406 $199 39.902409157113617 $125 $204 forward 7 unknown #
coedge $-1 $205 $71 $202 $206 reversed $117 $-1 #
vertex $-1 $123 $207 #
vertex $-1 $126 $208 #
straight-curve $-1 -2.8662380471799196 -43.489111716799776 56.647139731039957 0 0 1 I I #
face $-1 $209 $210 $15 $-1 $211 forward single #
loop $-1 $212 $79 $73 #
plane-surface $-1 10.145579115090285 -43.489111716799783 5.5715502995185489 0 -0.73135370988377701 0.68199835119979291 1 0 0 forward_v I I I I #
coedge $-1 $213 $214 $215 $216 reversed $74 $-1 #
coedge $-1 $135 $135 $-1 $217 forward $76 $-1 #
edge $-1 $218 0 $218 6.2831853071796004 $77 $219 forward 7 unknown #
vertex $-1 $80 $220 #
ellipse-curve $-1 10.145579115090285 -41.545250938789998 7.6560858251455697 0 0.73135370988377701 -0.68199835119979291 1 0 0 1 I I #
face $-1 $-1 $96 $12 $-1 $221 reversed single #
loop $-1 $-1 $155 $81 #
plane-surface $-1 0 43.489111716799776 0 0 -1 0 0 0 -1 forward_v I I I I #
coedge $-1 $222 $153 $156 $223 forward $82 $-1 #
coedge $-1 $159 $84 $85 $147 reversed $50 $-1 #
coedge $-1 $153 $222 $84 $145 reversed $82 $-1 #
edge $-1 $160 -9.7406213507725834 $224 9.7406213507725834 $144 $225 forward 7 unknown #
coedge $-1 $86 $85 $222 $226 forward $33 $-1 #
edge $-1 $151 -78.975798821985535 $224 78.975798821985535 $143 $227 forward 7 unknown #
coedge $-1 $156 $155 $86 $149 reversed $140 $-1 #
edge $-1 $228 -78.975798821985535 $150 78.975798821985535 $148 $229 forward 7 unknown #
vertex $-1 $88 $230 #
vertex $-1 $162 $231 #
straight-curve $-1 78.975798821985535 0 -9.7406213507725834 0 -1 0 I I #
coedge $-1 $142 $144 $89 $154 reversed $82 $-1 #
edge $-1 $157 -43.489111716799776 $160 43.489111716799776 $153 $232 forward 7 unknown #
coedge $-1 $148 $90 $95 $163 forward $140 $-1 #
coedge $-1 $90 $148 $142 $223 reversed $140 $-1 #
vertex $-1 $91 $233 #
straight-curve $-1 0 43.489111716799776 9.7406213507725834 -1 0 0 I I #
coedge $-1 $92 $143 $94 $162 reversed $50 $-1 #
vertex $-1 $154 $234 #
straight-curve $-1 0 -43.489111716799776 9.7406213507725834 1 0 0 I I #
edge $-1 $97 -9.7406213507725834 $151 9.7406213507725834 $94 $235 forward 7 unknown #
edge $-1 $98 -9.7406213507725834 $150 9.7406213507725834 $95 $236 forward 7 unknown #
point $-1 78.975798821985535 -43.489111716799776 9.7406213507725834 #
point $-1 78.975798821985535 43.489111716799776 9.7406213507725834 #
face $-1 $237 $238 $13 $-1 $239 reversed single #
loop $-1 $-1 $240 $100 #
plane-surface $-1 0 0 9.7406213507725834 0 0 1 1 0 0 forward_v I I I I #
coedge $-1 $241 $103 $177 $242 reversed $58 $-1 #
coedge $-1 $103 $241 $180 $243 forward $58 $-1 #
edge $-1 $183 -43.489111716799776 $178 43.489111716799776 $103 $244 forward 7 unknown #
coedge $-1 $245 $246 $104 $173 forward $238 $-1 #
edge $-1 $175 -43.489111716799776 $247 43.489111716799776 $172 $248 forward 7 unknown #
coedge $-1 $249 $105 $246 $250 reversed $101 $-1 #
vertex $-1 $106 $251 #
straight-curve $-1 -69.139819442803258 -43.489111716799776 -3.5229229589812419 0 0 -1 I I #
coedge $-1 $108 $252 $169 $242 forward $101 $-1 #
vertex $-1 $109 $253 #
straight-curve $-1 -37.028904566197198 -43.489111716799776 -4.351070485152384 1 0 0 I I #
coedge $-1 $254 $110 $170 $243 reversed $182 $-1 #
coedge $-1 $110 $255 $112 $185 forward $182 $-1 #
loop $-1 $-1 $110 $237 #
vertex $-1 $171 $256 #
straight-curve $-1 -37.028904566197198 43.489111716799776 -4.351070485152384 -1 0 0 I I #
edge $-1 $247 -6.2176983917913411 $114 -0.82814752617114218 $181 $257 forward 7 unknown #
point $-1 -69.139819442803258 -43.489111716799776 -4.351070485152384 #
point $-1 -69.139819442803258 43.489111716799776 -4.351070485152384 #
face $-1 $258 $259 $14 $-1 $260 forward single #
loop $-1 $-1 $261 $116 #
plane-surface $-1 -74.057809132394397 0 -4.351070485152384 0 0 1 1 0 0 forward_v I I I I #
coedge $-1 $122 $262 $119 $194 forward $117 $-1 #
coedge $-1 $193 $119 $263 $264 reversed $66 $-1 #
coedge $-1 $119 $192 $120 $196 forward $66 $-1 #
edge $-1 $265 46.906518380267372 $197 51.075589431521401 $191 $266 forward 7 unknown #
coedge $-1 $121 $120 $201 $267 reversed $41 $-1 #
edge $-1 $268 -5.7004852712329317 $197 -1.0692042983031357e-014 $193 $269 forward 7 unknown #
vertex $-1 $123 $270 #
straight-curve $-1 5.0727895575451427 -43.489111716799776 5.5715502995185595 -1 0 0 I I #
vertex $-1 $267 $271 #
straight-curve $-1 -2.8662380471799196 -43.489111716799783 5.5715502995185489 0 0.68199835119979291 0.73135370988377701 I I #
coedge $-1 $263 $125 $195 $267 forward $203 $-1 #
coedge $-1 $125 $272 $127 $206 forward $203 $-1 #
loop $-1 $-1 $263 $273 #
straight-curve $-1 -2.8662380471799196 -79.503799317893836 9.7406213507725852 0 1 0 I I #
coedge $-1 $274 $127 $275 $276 forward $117 $-1 #
edge $-1 $277 -78.975798821985535 $129 -2.8662380471799196 $127 $278 forward 7 unknown #
point $-1 -2.8662380471799196 -43.489111716799776 5.5715502995185568 #
point $-1 -2.8662380471799196 -43.489111716799776 9.7406213507725834 #
face $-1 $279 $280 $15 $-1 $281 reversed single #
loop $-1 $-1 $282 $131 #
plane-surface $-1 23.15739627736049 -159.00759863578767 113.29427946207991 -1 0 0 0 -0.73135370988377701 0.68199835119979291 forward_v I I I I #
loop $-1 $-1 $283 $73 #
coedge $-1 $214 $134 $284 $285 forward $74 $-1 #
coedge $-1 $134 $213 $286 $287 reversed $74 $-1 #
coedge $-1 $288 $289 $134 $216 forward $280 $-1 #
edge $-1 $290 -51.075589431521401 $291 -46.906518380267372 $215 $292 forward 7 unknown #
edge $-1 $293 1 $293 0 $135 $-1 forward 7 unknown #
vertex $-1 $136 $294 #
ellipse-curve $-1 10.145579115090285 -39.671099862660938 5.9084117154149238 0 -0.73135370988377701 0.68199835119979291 1 0 0 1 I I #
point $-1 11.145579115090285 -41.545250938789998 7.6560858251455732 #
plane-surface $-1 78.975798821985535 0 0 -1 0 0 0 0 1 forward_v I I I I #
coedge $-1 $144 $142 $146 $226 reversed $82 $-1 #
edge $-1 $157 -9.7406213507725834 $228 9.7406213507725834 $156 $295 forward 7 unknown #
vertex $-1 $226 $296 #
straight-curve $-1 -78.975798821985535 -43.489111716799776 0 0 0 -1 I I #
edge $-1 $224 -43.489111716799776 $228 43.489111716799776 $222 $297 forward 7 unknown #
straight-curve $-1 0 -43.489111716799776 -9.7406213507725834 -1 0 0 I I #
vertex $-1 $149 $298 #
straight-curve $-1 0 43.489111716799776 -9.7406213507725834 1 0 0 I I #
point $-1 78.975798821985535 43.489111716799776 -9.7406213507725834 #
point $-1 78.975798821985535 -43.489111716799776 -9.7406213507725834 #
straight-curve $-1 -78.975798821985535 0 9.7406213507725834 0 -1 0 I I #
point $-1 -78.975798821985535 43.489111716799776 9.7406213507725834 #
point $-1 -78.975798821985535 -43.489111716799776 9.7406213507725834 #
straight-curve $-1 78.975798821985535 -43.489111716799776 0 0 0 -1 I I #
straight-curve $-1 78.975798821985535 43.489111716799776 0 0 0 -1 I I #
face $-1 $299 $182 $13 $-1 $300 reversed single #
loop $-1 $-1 $172 $166 #
plane-surface $-1 0 0 -9.7406213507725834 0 0 1 1 0 0 forward_v I I I I #
coedge $-1 $301 $302 $303 $304 forward $167 $-1 #
coedge $-1 $170 $169 $305 $306 reversed $58 $-1 #
edge $-1 $307 -9.7406213507725834 $178 4.351070485152384 $169 $308 forward 7 unknown #
edge $-1 $309 -9.7406213507725834 $183 4.351070485152384 $180 $310 forward 7 unknown #
straight-curve $-1 -78.975798821985535 0 -4.351070485152384 0 -1 0 I I #
coedge $-1 $311 $172 $255 $312 forward $238 $-1 #
coedge $-1 $172 $311 $174 $250 forward $238 $-1 #
vertex $-1 $312 $313 #
straight-curve $-1 -69.139819442803258 0 -9.7406213507725834 0 1 0 I I #
coedge $-1 $252 $174 $314 $315 reversed $101 $-1 #
edge $-1 $316 -78.975798821985535 $175 69.139819442803258 $174 $317 forward 7 unknown #
point $-1 -69.139819442803258 -43.489111716799776 -9.7406213507725834 #
coedge $-1 $177 $249 $302 $318 reversed $101 $-1 #
point $-1 -78.975798821985535 -43.489111716799776 -4.351070485152384 #
coedge $-1 $319 $180 $301 $320 reversed $182 $-1 #
coedge $-1 $181 $319 $245 $312 reversed $182 $-1 #
point $-1 -78.975798821985535 43.489111716799776 -4.351070485152384 #
straight-curve $-1 -69.139819442803258 43.489111716799776 -3.5229229589812419 0 0 1 I I #
face $-1 $273 $321 $14 $-1 $322 reversed single #
loop $-1 $-1 $323 $188 #
plane-surface $-1 -69.139819442803258 0 -7.0458459179624837 -1 0 0 0 0 1 forward_v I I I I #
coedge $-1 $324 $325 $326 $327 reversed $189 $-1 #
coedge $-1 $191 $328 $329 $330 reversed $117 $-1 #
coedge $-1 $329 $201 $192 $264 forward $203 $-1 #
edge $-1 $268 -39.902409157113617 $265 -36.01468760109406 $263 $331 forward 7 unknown #
vertex $-1 $330 $332 #
straight-curve $-1 23.15739627736049 -43.489111716799776 56.647139731039957 0 0 -1 I I #
edge $-1 $199 -7.9390276047250623 $268 18.084606719815348 $201 $333 forward 7 unknown #
vertex $-1 $267 $334 #
straight-curve $-1 23.15739627736049 -43.489111716799783 5.5715502995185489 0 -0.68199835119979291 -0.73135370988377701 I I #
point $-1 23.15739627736049 -43.489111716799776 5.5715502995185568 #
point $-1 -2.8662380471799196 -39.60139016078022 9.7406213507725834 #
coedge $-1 $202 $335 $336 $337 forward $203 $-1 #
face $-1 $338 $203 $14 $-1 $339 forward single #
coedge $-1 $340 $205 $324 $341 forward $117 $-1 #
coedge $-1 $336 $342 $205 $276 reversed $321 $-1 #
edge $-1 $277 -9.7406213507725834 $343 4.351070485152384 $275 $344 forward 7 unknown #
vertex $-1 $337 $345 #
straight-curve $-1 0 -43.489111716799776 9.7406213507725834 1 0 0 I I #
face $-1 $346 $347 $15 $-1 $348 reversed single #
loop $-1 $-1 $349 $209 #
plane-surface $-1 0 -43.489111716799776 0 0 1 0 0 0 1 forward_v I I I I #
coedge $-1 $350 $351 $349 $352 reversed $210 $-1 #
coedge $-1 $353 $284 $289 $354 reversed $212 $-1 #
coedge $-1 $283 $355 $213 $285 reversed $212 $-1 #
edge $-1 $290 1.0692042983031357e-014 $356 5.7004852712329317 $213 $357 forward 7 unknown #
coedge $-1 $358 $359 $214 $287 forward $360 $-1 #
edge $-1 $291 36.01468760109406 $356 39.902409157113617 $286 $361 forward 7 unknown #
coedge $-1 $362 $215 $359 $363 reversed $280 $-1 #
coedge $-1 $215 $349 $283 $354 forward $280 $-1 #
vertex $-1 $354 $364 #
vertex $-1 $287 $365 #
straight-curve $-1 -2.8662380471799196 -43.489111716799776 56.647139731039957 0 0 1 I I #
vertex $-1 $217 $366 #
point $-1 11.145579115090285 -39.671099862660938 5.9084117154149238 #
straight-curve $-1 -78.975798821985535 43.489111716799776 0 0 0 -1 I I #
point $-1 -78.975798821985535 -43.489111716799776 -9.7406213507725834 #
straight-curve $-1 -78.975798821985535 0 -9.7406213507725834 0 1 0 I I #
point $-1 -78.975798821985535 43.489111716799776 -9.7406213507725834 #
face $-1 $-1 $367 $13 $-1 $368 reversed single #
plane-surface $-1 0 43.489111716799776 0 0 -1 0 0 0 -1 forward_v I I I I #
coedge $-1 $305 $240 $254 $320 forward $167 $-1 #
coedge $-1 $240 $305 $252 $318 forward $167 $-1 #
coedge $-1 $314 $369 $240 $304 reversed $367 $-1 #
edge $-1 $370 -43.489111716799776 $371 43.489111716799776 $303 $372 forward 7 unknown #
coedge $-1 $302 $301 $241 $306 forward $167 $-1 #
edge $-1 $309 -43.489111716799776 $307 43.489111716799776 $241 $373 forward 7 unknown #
vertex $-1 $306 $374 #
straight-curve $-1 -78.975798821985535 -43.489111716799776 0 0 0 -1 I I #
vertex $-1 $320 $375 #
straight-curve $-1 -78.975798821985535 43.489111716799776 0 0 0 -1 I I #
coedge $-1 $246 $245 $376 $377 forward $238 $-1 #
edge $-1 $247 -69.139819442803258 $378 78.975798821985535 $255 $379 forward 7 unknown #
point $-1 -69.139819442803258 43.489111716799776 -9.7406213507725834 #
coedge $-1 $376 $303 $249 $315 forward $367 $-1 #
edge $-1 $370 -9.7406213507725834 $316 9.7406213507725834 $314 $380 forward 7 unknown #
vertex $-1 $315 $381 #
straight-curve $-1 0 -43.489111716799776 -9.7406213507725834 -1 0 0 I I #
edge $-1 $307 -78.975798821985535 $370 78.975798821985535 $252 $382 forward 7 unknown #
coedge $-1 $255 $254 $369 $383 forward $182 $-1 #
edge $-1 $371 -78.975798821985535 $309 78.975798821985535 $254 $384 forward 7 unknown #
loop $-1 $-1 $342 $258 #
plane-surface $-1 -78.975798821985535 0 0 1 0 0 0 0 -1 forward_v I I I I #
coedge $-1 $326 $385 $340 $386 reversed $259 $-1 #
coedge $-1 $387 $261 $274 $341 reversed $189 $-1 #
coedge $-1 $261 $387 $388 $389 reversed $189 $-1 #
coedge $-1 $390 $323 $261 $327 forward $259 $-1 #
edge $-1 $391 -43.489111716799776 $392 43.489111716799776 $326 $393 forward 7 unknown #
coedge $-1 $262 $394 $395 $396 reversed $117 $-1 #
coedge $-1 $397 $263 $262 $330 forward $203 $-1 #
edge $-1 $265 23.15739627736049 $398 78.975798821985535 $262 $278 forward 7 unknown #
straight-curve $-1 23.15739627736049 -79.503799317893836 9.7406213507725852 0 -1 0 I I #
point $-1 23.15739627736049 -43.489111716799776 9.7406213507725834 #
straight-curve $-1 5.0727895575451427 -39.60139016078022 9.7406213507725834 1 0 0 I I #
point $-1 23.15739627736049 -39.60139016078022 9.7406213507725834 #
coedge $-1 $272 $397 $399 $400 forward $203 $-1 #
coedge $-1 $401 $275 $272 $337 reversed $321 $-1 #
edge $-1 $402 -43.489111716799776 $277 43.489111716799776 $336 $403 forward 7 unknown #
face $-1 $404 $405 $14 $-1 $406 reversed single #
plane-surface $-1 0 0 9.7406213507725834 0 0 1 1 0 0 forward_v I I I I #
coedge $-1 $394 $274 $323 $386 forward $117 $-1 #
edge $-1 $343 -41.946894255788337 $391 -32.11091487660606 $274 $407 forward 7 unknown #
coedge $-1 $275 $401 $387 $408 forward $321 $-1 #
vertex $-1 $341 $409 #
straight-curve $-1 -78.975798821985535 -43.489111716799776 0 0 0 -1 I I #
point $-1 -78.975798821985535 -43.489111716799776 9.7406213507725834 #
face $-1 $410 $411 $15 $-1 $412 forward single #
loop $-1 $-1 $413 $279 #
plane-surface $-1 -74.057809132394397 0 -4.351070485152384 0 0 1 1 0 0 forward_v I I I I #
coedge $-1 $289 $414 $282 $352 forward $280 $-1 #
coedge $-1 $351 $282 $415 $416 reversed $210 $-1 #
coedge $-1 $282 $350 $353 $417 forward $210 $-1 #
edge $-1 $418 46.906518380267372 $419 51.075589431521401 $349 $420 forward 7 unknown #
coedge $-1 $355 $283 $351 $417 reversed $212 $-1 #
edge $-1 $419 -18.084606719815348 $290 7.9390276047250623 $289 $421 forward 7 unknown #
coedge $-1 $284 $353 $358 $422 reversed $212 $-1 #
vertex $-1 $422 $423 #
straight-curve $-1 -2.8662380471799196 -43.489111716799783 5.5715502995185489 0 0.68199835119979291 0.73135370988377701 I I #
coedge $-1 $415 $286 $355 $422 forward $360 $-1 #
coedge $-1 $286 $424 $288 $363 forward $360 $-1 #
loop $-1 $-1 $415 $425 #
straight-curve $-1 -2.8662380471799196 -79.503799317893836 9.7406213507725852 0 1 0 I I #
coedge $-1 $426 $288 $427 $428 forward $280 $-1 #
edge $-1 $429 -78.975798821985535 $291 -2.8662380471799196 $288 $430 forward 7 unknown #
point $-1 -2.8662380471799196 -43.489111716799776 5.5715502995185568 #
point $-1 -2.8662380471799196 -43.489111716799776 9.7406213507725834 #
point $-1 10.145579115090285 -38.939746152777161 5.2264133642151309 #
loop $-1 $-1 $314 $299 #
plane-surface $-1 78.975798821985535 0 0 -1 0 0 0 0 1 forward_v I I I I #
coedge $-1 $303 $376 $319 $383 reversed $367 $-1 #
vertex $-1 $304 $431 #
vertex $-1 $304 $432 #
straight-curve $-1 78.975798821985535 0 9.7406213507725834 0 1 0 I I #
straight-curve $-1 -78.975798821985535 0 9.7406213507725834 0 -1 0 I I #
point $-1 -78.975798821985535 -43.489111716799776 9.7406213507725834 #
point $-1 -78.975798821985535 43.489111716799776 9.7406213507725834 #
coedge $-1 $369 $314 $311 $377 reversed $367 $-1 #
edge $-1 $378 -43.489111716799776 $316 43.489111716799776 $376 $433 forward 7 unknown #
vertex $-1 $377 $434 #
straight-curve $-1 0 43.489111716799776 -9.7406213507725834 1 0 0 I I #
straight-curve $-1 78.975798821985535 -43.489111716799776 0 0 0 -1 I I #
point $-1 78.975798821985535 -43.489111716799776 -9.7406213507725834 #
straight-curve $-1 0 -43.489111716799776 9.7406213507725834 1 0 0 I I #
edge $-1 $371 -9.7406213507725834 $378 9.7406213507725834 $369 $435 forward 7 unknown #
straight-curve $-1 0 43.489111716799776 9.7406213507725834 -1 0 0 I I #
coedge $-1 $323 $390 $436 $437 reversed $259 $-1 #
edge $-1 $391 0.82814752617114218 $438 6.2176983917913411 $340 $439 forward 7 unknown #
coedge $-1 $325 $324 $342 $408 reversed $189 $-1 #
coedge $-1 $440 $441 $325 $389 forward $442 $-1 #
edge $-1 $392 32.11091487660606 $443 41.946894255788337 $388 $444 forward 7 unknown #
coedge $-1 $385 $326 $441 $445 reversed $259 $-1 #
vertex $-1 $341 $446 #
vertex $-1 $389 $447 #
straight-curve $-1 -69.139819442803258 0 -4.351070485152384 0 1 0 I I #
coedge $-1 $328 $340 $448 $449 reversed $117 $-1 #
coedge $-1 $450 $451 $328 $396 forward $452 $-1 #
edge $-1 $398 -9.7406213507725834 $453 9.7406213507725834 $395 $454 forward 7 unknown #
coedge $-1 $335 $329 $451 $455 forward $203 $-1 #
vertex $-1 $455 $456 #
coedge $-1 $457 $440 $335 $400 reversed $442 $-1 #
edge $-1 $458 -78.975798821985535 $402 78.975798821985535 $399 $459 forward 7 unknown #
coedge $-1 $342 $336 $440 $460 forward $321 $-1 #
vertex $-1 $400 $461 #
straight-curve $-1 -78.975798821985535 0 9.7406213507725834 0 -1 0 I I #
face $-1 $462 $442 $14 $-1 $463 reversed single #
loop $-1 $-1 $436 $338 #
plane-surface $-1 0 0 -9.7406213507725834 0 0 1 1 0 0 forward_v I I I I #
straight-curve $-1 -37.028904566197198 -43.489111716799776 -4.351070485152384 1 0 0 I I #
edge $-1 $443 -43.489111716799776 $343 43.489111716799776 $342 $464 forward 7 unknown #
point $-1 -78.975798821985535 -43.489111716799776 -4.351070485152384 #
face $-1 $425 $465 $15 $-1 $466 reversed single #
loop $-1 $-1 $467 $346 #
plane-surface $-1 -69.139819442803258 0 -7.0458459179624837 -1 0 0 0 0 1 forward_v I I I I #
coedge $-1 $468 $469 $470 $471 reversed $347 $-1 #
coedge $-1 $349 $472 $473 $474 reversed $280 $-1 #
coedge $-1 $473 $358 $350 $416 forward $360 $-1 #
edge $-1 $475 -39.902409157113617 $418 -36.01468760109406 $415 $476 forward 7 unknown #
edge $-1 $475 -5.7004852712329317 $419 -1.0692042983031357e-014 $351 $477 forward 7 unknown #
vertex $-1 $474 $478 #
vertex $-1 $354 $479 #
straight-curve $-1 23.15739627736049 -43.489111716799776 56.647139731039957 0 0 -1 I I #
straight-curve $-1 5.0727895575451427 -43.489111716799776 5.5715502995185595 -1 0 0 I I #
edge $-1 $356 -7.9390276047250623 $475 18.084606719815348 $358 $480 forward 7 unknown #
point $-1 -2.8662380471799196 -39.60139016078022 9.7406213507725834 #
coedge $-1 $359 $481 $482 $483 forward $360 $-1 #
face $-1 $484 $360 $15 $-1 $485 forward single #
coedge $-1 $486 $362 $468 $487 forward $280 $-1 #
coedge $-1 $482 $488 $362 $428 reversed $465 $-1 #
edge $-1 $429 -9.7406213507725834 $489 4.351070485152384 $427 $490 forward 7 unknown #
vertex $-1 $483 $491 #
straight-curve $-1 0 -43.489111716799776 9.7406213507725834 1 0 0 I I #
point $-1 78.975798821985535 -43.489111716799776 9.7406213507725834 #
point $-1 78.975798821985535 43.489111716799776 9.7406213507725834 #
straight-curve $-1 78.975798821985535 0 -9.7406213507725834 0 -1 0 I I #
point $-1 78.975798821985535 43.489111716799776 -9.7406213507725834 #
straight-curve $-1 78.975798821985535 43.489111716799776 0 0 0 -1 I I #
coedge $-1 $492 $448 $385 $437 forward $405 $-1 #
edge $-1 $438 -43.489111716799776 $493 43.489111716799776 $436 $494 forward 7 unknown #
vertex $-1 $386 $495 #
straight-curve $-1 -69.139819442803258 -43.489111716799776 -3.5229229589812419 0 0 -1 I I #
coedge $-1 $399 $388 $401 $460 reversed $442 $-1 #
coedge $-1 $388 $496 $390 $445 forward $442 $-1 #
loop $-1 $-1 $388 $404 #
vertex $-1 $408 $497 #
straight-curve $-1 -37.028904566197198 43.489111716799776 -4.351070485152384 -1 0 0 I I #
edge $-1 $493 -6.2176983917913411 $392 -0.82814752617114218 $441 $498 forward 7 unknown #
point $-1 -69.139819442803258 -43.489111716799776 -4.351070485152384 #
point $-1 -69.139819442803258 43.489111716799776 -4.351070485152384 #
coedge $-1 $436 $499 $394 $449 forward $405 $-1 #
edge $-1 $453 -78.975798821985535 $438 69.139819442803258 $394 $500 forward 7 unknown #
coedge $-1 $501 $395 $499 $502 reversed $452 $-1 #
coedge $-1 $395 $501 $397 $455 reversed $452 $-1 #
loop $-1 $-1 $395 $462 #
vertex $-1 $396 $503 #
straight-curve $-1 78.975798821985535 -43.489111716799776 0 0 0 -1 I I #
edge $-1 $398 -43.489111716799776 $458 43.489111716799776 $451 $504 forward 7 unknown #
point $-1 78.975798821985535 -43.489111716799776 9.7406213507725834 #
coedge $-1 $496 $399 $501 $505 forward $442 $-1 #
vertex $-1 $455 $506 #
straight-curve $-1 0 43.489111716799776 9.7406213507725834 -1 0 0 I I #
edge $-1 $402 -9.7406213507725834 $443 4.351070485152384 $440 $507 forward 7 unknown #
point $-1 -78.975798821985535 43.489111716799776 9.7406213507725834 #
face $-1 $-1 $452 $14 $-1 $508 reversed single #
plane-surface $-1 0 43.489111716799776 0 0 -1 0 0 0 -1 forward_v I I I I #
straight-curve $-1 -78.975798821985535 0 -4.351070485152384 0 -1 0 I I #
loop $-1 $-1 $488 $410 #
plane-surface $-1 -78.975798821985535 0 0 1 0 0 0 0 -1 forward_v I I I I #
coedge $-1 $470 $509 $486 $510 reversed $411 $-1 #
coedge $-1 $511 $413 $426 $487 reversed $347 $-1 #
coedge $-1 $413 $511 $512 $513 reversed $347 $-1 #
coedge $-1 $514 $467 $413 $471 forward $411 $-1 #
edge $-1 $515 -43.489111716799776 $516 43.489111716799776 $470 $517 forward 7 unknown #
coedge $-1 $414 $518 $519 $520 reversed $280 $-1 #
coedge $-1 $521 $415 $414 $474 forward $360 $-1 #
edge $-1 $418 23.15739627736049 $522 78.975798821985535 $414 $430 forward 7 unknown #
vertex $-1 $422 $523 #
straight-curve $-1 23.15739627736049 -79.503799317893836 9.7406213507725852 0 -1 0 I I #
straight-curve $-1 23.15739627736049 -43.489111716799783 5.5715502995185489 0 -0.68199835119979291 -0.73135370988377701 I I #
point $-1 23.15739627736049 -43.489111716799776 9.7406213507725834 #
point $-1 23.15739627736049 -43.489111716799776 5.5715502995185568 #
straight-curve $-1 5.0727895575451427 -39.60139016078022 9.7406213507725834 1 0 0 I I #
coedge $-1 $424 $521 $524 $525 forward $360 $-1 #
coedge $-1 $526 $427 $424 $483 reversed $465 $-1 #
edge $-1 $527 -43.489111716799776 $429 43.489111716799776 $482 $528 forward 7 unknown #
face $-1 $529 $530 $15 $-1 $531 reversed single #
plane-surface $-1 0 0 9.7406213507725834 0 0 1 1 0 0 forward_v I I I I #
coedge $-1 $518 $426 $467 $510 forward $280 $-1 #
edge $-1 $489 -41.946894255788337 $515 -32.11091487660606 $426 $532 forward 7 unknown #
coedge $-1 $427 $526 $511 $533 forward $465 $-1 #
vertex $-1 $487 $534 #
straight-curve $-1 -78.975798821985535 -43.489111716799776 0 0 0 -1 I I #
point $-1 -78.975798821985535 -43.489111716799776 9.7406213507725834 #
coedge $-1 $499 $436 $496 $535 forward $405 $-1 #
vertex $-1 $535 $536 #
straight-curve $-1 -69.139819442803258 0 -9.7406213507725834 0 1 0 I I #
point $-1 -69.139819442803258 -43.489111716799776 -9.7406213507725834 #
coedge $-1 $441 $457 $492 $535 reversed $442 $-1 #
point $-1 -78.975798821985535 43.489111716799776 -4.351070485152384 #
straight-curve $-1 -69.139819442803258 43.489111716799776 -3.5229229589812419 0 0 1 I I #
coedge $-1 $448 $492 $450 $502 forward $405 $-1 #
straight-curve $-1 0 -43.489111716799776 -9.7406213507725834 -1 0 0 I I #
coedge $-1 $451 $450 $457 $505 reversed $452 $-1 #
edge $-1 $537 -43.489111716799776 $453 43.489111716799776 $450 $538 forward 7 unknown #
point $-1 78.975798821985535 -43.489111716799776 -9.7406213507725834 #
straight-curve $-1 78.975798821985535 0 9.7406213507725834 0 1 0 I I #
edge $-1 $458 -9.7406213507725834 $537 9.7406213507725834 $501 $539 forward 7 unknown #
point $-1 78.975798821985535 43.489111716799776 9.7406213507725834 #
straight-curve $-1 -78.975798821985535 43.489111716799776 0 0 0 -1 I I #
plane-surface $-1 78.975798821985535 0 0 -1 0 0 0 0 1 forward_v I I I I #
coedge $-1 $467 $514 $540 $541 reversed $411 $-1 #
edge $-1 $515 0.82814752617114218 $542 6.2176983917913411 $486 $543 forward 7 unknown #
coedge $-1 $469 $468 $488 $533 reversed $347 $-1 #
coedge $-1 $544 $545 $469 $513 forward $546 $-1 #
edge $-1 $516 32.11091487660606 $547 41.946894255788337 $512 $548 forward 7 unknown #
coedge $-1 $509 $470 $545 $549 reversed $411 $-1 #
vertex $-1 $487 $550 #
vertex $-1 $513 $551 #
straight-curve $-1 -69.139819442803258 0 -4.351070485152384 0 1 0 I I #
coedge $-1 $472 $486 $552 $553 reversed $280 $-1 #
coedge $-1 $554 $555 $472 $520 forward $556 $-1 #
edge $-1 $522 -9.7406213507725834 $557 9.7406213507725834 $519 $558 forward 7 unknown #
coedge $-1 $481 $473 $555 $559 forward $360 $-1 #
vertex $-1 $559 $560 #
point $-1 23.15739627736049 -39.60139016078022 9.7406213507725834 #
coedge $-1 $561 $544 $481 $525 reversed $546 $-1 #
edge $-1 $562 -78.975798821985535 $527 78.975798821985535 $524 $563 forward 7 unknown #
coedge $-1 $488 $482 $544 $564 forward $465 $-1 #
vertex $-1 $525 $565 #
straight-curve $-1 -78.975798821985535 0 9.7406213507725834 0 -1 0 I I #
face $-1 $566 $546 $15 $-1 $567 reversed single #
loop $-1 $-1 $540 $484 #
plane-surface $-1 0 0 -9.7406213507725834 0 0 1 1 0 0 forward_v I I I I #
straight-curve $-1 -37.028904566197198 -43.489111716799776 -4.351070485152384 1 0 0 I I #
edge $-1 $547 -43.489111716799776 $489 43.489111716799776 $488 $568 forward 7 unknown #
point $-1 -78.975798821985535 -43.489111716799776 -4.351070485152384 #
edge $-1 $493 -69.139819442803258 $537 78.975798821985535 $496 $569 forward 7 unknown #
point $-1 -69.139819442803258 43.489111716799776 -9.7406213507725834 #
vertex $-1 $502 $570 #
straight-curve $-1 78.975798821985535 0 -9.7406213507725834 0 -1 0 I I #
straight-curve $-1 78.975798821985535 43.489111716799776 0 0 0 -1 I I #
coedge $-1 $571 $552 $509 $541 forward $530 $-1 #
edge $-1 $542 -43.489111716799776 $572 43.489111716799776 $540 $573 forward 7 unknown #
vertex $-1 $510 $574 #
straight-curve $-1 -69.139819442803258 -43.489111716799776 -3.5229229589812419 0 0 -1 I I #
coedge $-1 $524 $512 $526 $564 reversed $546 $-1 #
coedge $-1 $512 $575 $514 $549 forward $546 $-1 #
loop $-1 $-1 $512 $529 #
vertex $-1 $533 $576 #
straight-curve $-1 -37.028904566197198 43.489111716799776 -4.351070485152384 -1 0 0 I I #
edge $-1 $572 -6.2176983917913411 $516 -0.82814752617114218 $545 $577 forward 7 unknown #
point $-1 -69.139819442803258 -43.489111716799776 -4.351070485152384 #
point $-1 -69.139819442803258 43.489111716799776 -4.351070485152384 #
coedge $-1 $540 $578 $518 $553 forward $530 $-1 #
edge $-1 $557 -78.975798821985535 $542 69.139819442803258 $518 $579 forward 7 unknown #
coedge $-1 $580 $519 $578 $581 reversed $556 $-1 #
coedge $-1 $519 $580 $521 $559 reversed $556 $-1 #
loop $-1 $-1 $519 $566 #
vertex $-1 $520 $582 #
straight-curve $-1 78.975798821985535 -43.489111716799776 0 0 0 -1 I I #
edge $-1 $522 -43.489111716799776 $562 43.489111716799776 $555 $583 forward 7 unknown #
point $-1 78.975798821985535 -43.489111716799776 9.7406213507725834 #
coedge $-1 $575 $524 $580 $584 forward $546 $-1 #
vertex $-1 $559 $585 #
straight-curve $-1 0 43.489111716799776 9.7406213507725834 -1 0 0 I I #
edge $-1 $527 -9.7406213507725834 $547 4.351070485152384 $544 $586 forward 7 unknown #
point $-1 -78.975798821985535 43.489111716799776 9.7406213507725834 #
face $-1 $-1 $556 $15 $-1 $587 reversed single #
plane-surface $-1 0 43.489111716799776 0 0 -1 0 0 0 -1 forward_v I I I I #
straight-curve $-1 -78.975798821985535 0 -4.351070485152384 0 -1 0 I I #
straight-curve $-1 0 43.489111716799776 -9.7406213507725834 1 0 0 I I #
point $-1 78.975798821985535 43.489111716799776 -9.7406213507725834 #
coedge $-1 $578 $540 $575 $588 forward $530 $-1 #
vertex $-1 $588 $589 #
straight-curve $-1 -69.139819442803258 0 -9.7406213507725834 0 1 0 I I #
point $-1 -69.139819442803258 -43.489111716799776 -9.7406213507725834 #
coedge $-1 $545 $561 $571 $588 reversed $546 $-1 #
point $-1 -78.975798821985535 43.489111716799776 -4.351070485152384 #
straight-curve $-1 -69.139819442803258 43.489111716799776 -3.5229229589812419 0 0 1 I I #
coedge $-1 $552 $571 $554 $581 forward $530 $-1 #
straight-curve $-1 0 -43.489111716799776 -9.7406213507725834 -1 0 0 I I #
coedge $-1 $555 $554 $561 $584 reversed $556 $-1 #
edge $-1 $590 -43.489111716799776 $557 43.489111716799776 $554 $591 forward 7 unknown #
point $-1 78.975798821985535 -43.489111716799776 -9.7406213507725834 #
straight-curve $-1 78.975798821985535 0 9.7406213507725834 0 1 0 I I #
edge $-1 $562 -9.7406213507725834 $590 9.7406213507725834 $580 $592 forward 7 unknown #
point $-1 78.975798821985535 43.489111716799776 9.7406213507725834 #
straight-curve $-1 -78.975798821985535 43.489111716799776 0 0 0 -1 I I #
plane-surface $-1 78.975798821985535 0 0 -1 0 0 0 0 1 forward_v I I I I #
edge $-1 $572 -69.139819442803258 $590 78.975798821985535 $575 $593 forward 7 unknown #
point $-1 -69.139819442803258 43.489111716799776 -9.7406213507725834 #
vertex $-1 $581 $594 #
straight-curve $-1 78.975798821985535 0 -9.7406213507725834 0 -1 0 I I #
straight-curve $-1 78.975798821985535 43.489111716799776 0 0 0 -1 I I #
straight-curve $-1 0 43.489111716799776 -9.7406213507725834 1 0 0 I I #
point $-1 78.975798821985535 43.489111716799776 -9.7406213507725834 #
End-of-ACIS-data 