500 0 5 0           
7 Unknown 11 ACIS 5.0 NT 24 Fri Mar 26 02:45:05 1999 
-1 9.9999999999999995e-007 1e-010 
body $-1 $5 $-1 $6 #
body $-1 $7 $-1 $8 #
body $-1 $9 $-1 $10 #
body $-1 $11 $-1 $12 #
body $-1 $13 $-1 $14 #
lump $-1 $-1 $15 $0 #
transform $-1 1 0 0 0 1 0 0 0 1 46.856898709067053 20.679698150622009 8.7363788433311065 1 rotate no_reflect no_shear #
lump $-1 $-1 $16 $1 #
transform $-1 1 0 0 0 1 0 0 0 1 46.856898709067053 20.679698150622009 8.7363788433311065 1 rotate no_reflect no_shear #
lump $-1 $-1 $17 $2 #
transform $-1 1 0 0 0 1 0 0 0 1 46.856898709067053 20.679698150622009 8.7363788433311065 1 rotate no_reflect no_shear #
lump $-1 $-1 $18 $3 #
transform $-1 1 0 0 0 1 0 0 0 1 46.856898709067053 20.679698150622009 8.7363788433311065 1 rotate no_reflect no_shear #
lump $-1 $-1 $19 $4 #
transform $-1 1 0 0 0 1 0 0 0 1 46.856898709067053 20.679698150622009 8.7363788433311065 1 rotate no_reflect no_shear #
shell $-1 $-1 $-1 $20 $-1 $5 #
shell $-1 $-1 $-1 $21 $-1 $7 #
shell $-1 $-1 $-1 $22 $-1 $9 #
shell $-1 $-1 $-1 $23 $-1 $11 #
shell $-1 $-1 $-1 $24 $-1 $13 #
face $-1 $25 $26 $15 $-1 $27 forward single #
face $-1 $28 $29 $16 $-1 $30 forward single #
face $-1 $31 $32 $17 $-1 $33 forward single #
face $-1 $34 $35 $18 $-1 $36 reversed single #
face $-1 $37 $38 $19 $-1 $39 reversed single #
face $-1 $40 $41 $15 $-1 $42 reversed single #
loop $-1 $-1 $43 $20 #
plane-surface $-1 0 0 8.7363788433311065 0 0 1 1 0 0 forward_v I I I I #
face $-1 $44 $45 $16 $-1 $46 forward single #
loop $-1 $-1 $47 $21 #
plane-surface $-1 0 -15.376401313011357 3.9949463190690615 0 0 1 1 0 0 forward_v I I I I #
face $-1 $48 $49 $17 $-1 $50 forward single #
loop $-1 $-1 $51 $22 #
plane-surface $-1 34.372260073259383 -13.199935666021368 27.533431236196876 0 0.57357644374324357 0.81915203911291934 1 0 0 forward_v I I I I #
face $-1 $52 $53 $18 $-1 $54 reversed single #
loop $-1 $55 $56 $23 #
cone-surface $-1 29.021700657913243 16.398234850622096 5.1822229059026776 0 -0.57357644374324357 -0.81915203911291934 1.5 0 0 1 I I 0 1 1.5 forward I I I I #
face $-1 $57 $58 $19 $-1 $59 reversed single #
loop $-1 $60 $61 $24 #
cone-surface $-1 39.722819488605523 16.398234850622096 5.1822229059026776 0 -0.57357644374324357 -0.81915203911291934 1.5 0 0 1 I I 0 1 1.5 forward I I I I #
face $-1 $62 $63 $15 $-1 $64 reversed single #
loop $-1 $-1 $65 $25 #
plane-surface $-1 0 0 -8.7363788433311065 0 0 1 1 0 0 forward_v I I I I #
coedge $-1 $66 $67 $68 $69 forward $26 $-1 #
face $-1 $70 $71 $16 $-1 $72 forward single #
loop $-1 $-1 $73 $28 #
plane-surface $-1 0 -10.073104475400704 6.365662581200084 0 -1 0 0 0 -1 forward_v I I I I #
coedge $-1 $74 $75 $76 $77 reversed $29 $-1 #
face $-1 $78 $79 $17 $-1 $80 reversed single #
loop $-1 $-1 $81 $31 #
plane-surface $-1 21.887621437451713 40.552090986746755 104.29927948427647 1 0 0 0 -0.57357644374324357 -0.81915203911291934 forward_v I I I I #
coedge $-1 $82 $83 $84 $85 reversed $32 $-1 #
face $-1 $86 $87 $18 $-1 $88 forward single #
loop $-1 $89 $90 $34 #
cone-surface $-1 29.021700657913243 15.203919930189194 3.4765644656241648 0 -0.57357644374324357 -0.81915203911291934 0.75 0 0 1 I I -0.70710678118654757 0.70710678118654757 0.75 forward I I I I #
loop $-1 $-1 $91 $23 #
coedge $-1 $56 $56 $92 $93 reversed $35 $-1 #
face $-1 $94 $95 $19 $-1 $96 reversed single #
loop $-1 $97 $98 $37 #
cone-surface $-1 39.722819488605523 15.203919930189194 3.4765644656241648 0 -0.57357644374324357 -0.81915203911291934 0.75 0 0 1 I I -0.70710678118654757 0.70710678118654757 0.75 forward I I I I #
loop $-1 $-1 $99 $24 #
coedge $-1 $61 $61 $100 $101 reversed $38 $-1 #
face $-1 $102 $103 $15 $-1 $104 reversed single #
loop $-1 $-1 $105 $40 #
plane-surface $-1 0 -20.679698150622009 0 0 1 0 0 0 1 forward_v I I I I #
coedge $-1 $106 $107 $108 $109 forward $41 $-1 #
coedge $-1 $110 $43 $111 $112 forward $26 $-1 #
coedge $-1 $43 $110 $113 $114 forward $26 $-1 #
coedge $-1 $115 $116 $43 $69 reversed $117 $-1 #
edge $-1 $118 -20.679698150622009 $119 20.679698150622009 $68 $120 forward 7 unknown #
face $-1 $121 $122 $16 $-1 $123 reversed single #
loop $-1 $-1 $124 $44 #
plane-surface $-1 0 0 8.7363788433311065 0 0 1 1 0 0 forward_v I I I I #
coedge $-1 $125 $126 $127 $128 reversed $45 $-1 #
coedge $-1 $129 $47 $126 $130 reversed $29 $-1 #
coedge $-1 $47 $129 $131 $132 reversed $29 $-1 #
coedge $-1 $133 $127 $47 $77 forward $122 $-1 #
edge $-1 $134 2.384903818895026 $135 12.991497494116331 $76 $136 forward 7 unknown #
face $-1 $137 $138 $17 $-1 $139 reversed single #
loop $-1 $-1 $140 $48 #
plane-surface $-1 0 20.679698150622009 0 0 -1 0 0 0 -1 forward_v I I I I #
coedge $-1 $141 $142 $140 $143 reversed $49 $-1 #
coedge $-1 $144 $51 $142 $145 reversed $32 $-1 #
coedge $-1 $51 $144 $146 $147 reversed $32 $-1 #
coedge $-1 $148 $140 $51 $85 forward $79 $-1 #
edge $-1 $149 4.7014914008220217 $150 29.670768672437362 $84 $151 forward 7 unknown #
face $-1 $152 $153 $18 $-1 $154 forward single #
loop $-1 $155 $92 $52 #
plane-surface $-1 34.372260073259383 -13.199935666021368 27.533431236196876 0 0.57357644374324357 0.81915203911291934 1 0 0 forward_v I I I I #
loop $-1 $-1 $156 $34 #
coedge $-1 $90 $90 $91 $157 forward $53 $-1 #
coedge $-1 $91 $91 $90 $157 reversed $55 $-1 #
coedge $-1 $92 $92 $56 $93 forward $87 $-1 #
edge $-1 $158 -2.8880652740743036e-016 $158 6.2831853071796004 $92 $159 forward 7 unknown #
face $-1 $160 $161 $19 $-1 $162 reversed single #
loop $-1 $163 $164 $57 #
cone-surface $-1 29.021700657913243 16.398234850622096 5.1822229059026776 0 -0.57357644374324357 -0.81915203911291934 1.5 0 0 1 I I 0 1 1.5 forward I I I I #
loop $-1 $-1 $165 $37 #
coedge $-1 $98 $98 $99 $166 forward $58 $-1 #
coedge $-1 $99 $99 $98 $166 reversed $60 $-1 #
coedge $-1 $100 $100 $61 $101 forward $167 $-1 #
edge $-1 $168 -2.8880652740743036e-016 $168 6.2831853071796004 $100 $169 forward 7 unknown #
face $-1 $170 $171 $15 $-1 $172 reversed single #
loop $-1 $-1 $173 $62 #
plane-surface $-1 -46.856898709067053 0 0 1 0 0 0 0 -1 forward_v I I I I #
coedge $-1 $174 $113 $175 $176 forward $63 $-1 #
coedge $-1 $177 $65 $174 $178 forward $41 $-1 #
coedge $-1 $65 $177 $179 $180 forward $41 $-1 #
coedge $-1 $116 $115 $65 $109 reversed $117 $-1 #
edge $-1 $181 -20.679698150622009 $182 20.679698150622009 $108 $183 forward 7 unknown #
coedge $-1 $67 $66 $184 $185 forward $26 $-1 #
coedge $-1 $186 $187 $66 $112 reversed $171 $-1 #
edge $-1 $119 -46.856898709067053 $188 46.856898709067053 $111 $189 forward 7 unknown #
coedge $-1 $105 $190 $67 $114 reversed $63 $-1 #
edge $-1 $191 -46.856898709067053 $118 46.856898709067053 $113 $192 forward 7 unknown #
coedge $-1 $108 $68 $190 $193 forward $117 $-1 #
coedge $-1 $68 $108 $186 $194 reversed $117 $-1 #
loop $-1 $-1 $115 $170 #
vertex $-1 $69 $195 #
vertex $-1 $69 $196 #
straight-curve $-1 46.856898709067053 0 8.7363788433311065 0 1 0 I I #
face $-1 $197 $198 $16 $-1 $199 reversed single #
loop $-1 $-1 $127 $70 #
plane-surface $-1 46.856898709067053 0 0 -1 0 0 0 0 1 forward_v I I I I #
coedge $-1 $200 $201 $125 $202 forward $71 $-1 #
coedge $-1 $203 $73 $124 $202 reversed $45 $-1 #
coedge $-1 $73 $203 $74 $130 forward $45 $-1 #
coedge $-1 $76 $204 $73 $128 forward $122 $-1 #
edge $-1 $205 -5.5535475527310645 $134 -0.81211502846901951 $127 $206 forward 7 unknown #
coedge $-1 $75 $74 $207 $208 reversed $29 $-1 #
edge $-1 $209 -46.856898709067053 $134 46.856898709067053 $126 $210 forward 7 unknown #
coedge $-1 $211 $212 $75 $132 forward $213 $-1 #
edge $-1 $135 -46.856898709067053 $214 46.856898709067053 $131 $215 forward 7 unknown #
coedge $-1 $216 $76 $212 $217 forward $122 $-1 #
vertex $-1 $77 $218 #
vertex $-1 $217 $219 #
straight-curve $-1 46.856898709067053 -7.6882006565056784 3.9949463190690615 0 -1 0 I I #
face $-1 $220 $221 $17 $-1 $222 forward single #
loop $-1 $-1 $146 $78 #
plane-surface $-1 46.856898709067053 0 0 -1 0 0 0 0 1 forward_v I I I I #
coedge $-1 $84 $223 $81 $143 forward $79 $-1 #
coedge $-1 $142 $81 $224 $225 reversed $49 $-1 #
coedge $-1 $81 $141 $82 $145 forward $49 $-1 #
edge $-1 $226 43.413260898807124 $149 48.33898395177637 $140 $227 forward 7 unknown #
coedge $-1 $83 $82 $228 $229 reversed $32 $-1 #
edge $-1 $230 32.771660339105736 $149 41.359396301244026 $142 $231 forward 7 unknown #
coedge $-1 $232 $233 $83 $147 forward $138 $-1 #
edge $-1 $150 -28.05675540650018 $234 -19.469019444361887 $146 $235 forward 7 unknown #
coedge $-1 $236 $84 $233 $237 forward $79 $-1 #
vertex $-1 $85 $238 #
vertex $-1 $237 $239 #
straight-curve $-1 17.186130036629692 20.679698150622009 3.8106557903618654 1 0 0 I I #
face $-1 $240 $241 $18 $-1 $242 reversed single #
loop $-1 $-1 $243 $86 #
plane-surface $-1 21.887621437451713 40.552090986746755 104.29927948427647 1 0 0 0 -0.57357644374324357 -0.81915203911291934 forward_v I I I I #
loop $-1 $-1 $244 $52 #
coedge $-1 $156 $156 $-1 $245 forward $89 $-1 #
edge $-1 $246 0 $246 6.2831853071796004 $90 $247 forward 7 unknown #
vertex $-1 $93 $248 #
ellipse-curve $-1 29.021700657913243 17.162367438247554 6.2735173168464815 0 -0.57357644374324357 -0.81915203911291934 1.5 0 0 1 I I #
face $-1 $249 $167 $19 $-1 $250 forward single #
loop $-1 $251 $252 $94 #
cone-surface $-1 29.021700657913243 15.203919930189194 3.4765644656241648 0 -0.57357644374324357 -0.81915203911291934 0.75 0 0 1 I I -0.70710678118654757 0.70710678118654757 0.75 forward I I I I #
loop $-1 $-1 $253 $57 #
coedge $-1 $164 $164 $254 $255 reversed $95 $-1 #
coedge $-1 $165 $165 $-1 $256 forward $97 $-1 #
edge $-1 $257 0 $257 6.2831853071796004 $98 $258 forward 7 unknown #
loop $-1 $259 $100 $160 #
vertex $-1 $101 $260 #
ellipse-curve $-1 39.722819488605523 17.162367438247554 6.2735173168464815 0 -0.57357644374324357 -0.81915203911291934 1.5 0 0 1 I I #
face $-1 $-1 $117 $15 $-1 $261 reversed single #
loop $-1 $-1 $186 $102 #
plane-surface $-1 0 20.679698150622009 0 0 -1 0 0 0 -1 forward_v I I I I #
coedge $-1 $262 $184 $187 $263 forward $103 $-1 #
coedge $-1 $190 $105 $106 $178 reversed $63 $-1 #
coedge $-1 $184 $262 $105 $176 reversed $103 $-1 #
edge $-1 $191 -8.7363788433311065 $264 8.7363788433311065 $175 $265 forward 7 unknown #
coedge $-1 $107 $106 $262 $266 forward $41 $-1 #
edge $-1 $182 -46.856898709067053 $264 46.856898709067053 $174 $267 forward 7 unknown #
coedge $-1 $187 $186 $107 $180 reversed $171 $-1 #
edge $-1 $268 -46.856898709067053 $181 46.856898709067053 $179 $269 forward 7 unknown #
vertex $-1 $109 $270 #
vertex $-1 $193 $271 #
straight-curve $-1 46.856898709067053 0 -8.7363788433311065 0 -1 0 I I #
coedge $-1 $173 $175 $110 $185 reversed $103 $-1 #
edge $-1 $188 -20.679698150622009 $191 20.679698150622009 $184 $272 forward 7 unknown #
coedge $-1 $179 $111 $116 $194 forward $171 $-1 #
coedge $-1 $111 $179 $173 $263 reversed $171 $-1 #
vertex $-1 $112 $273 #
straight-curve $-1 0 20.679698150622009 8.7363788433311065 -1 0 0 I I #
coedge $-1 $113 $174 $115 $193 reversed $63 $-1 #
vertex $-1 $185 $274 #
straight-curve $-1 0 -20.679698150622009 8.7363788433311065 1 0 0 I I #
edge $-1 $118 -8.7363788433311065 $182 8.7363788433311065 $115 $275 forward 7 unknown #
edge $-1 $119 -8.7363788433311065 $181 8.7363788433311065 $116 $276 forward 7 unknown #
point $-1 46.856898709067053 -20.679698150622009 8.7363788433311065 #
point $-1 46.856898709067053 20.679698150622009 8.7363788433311065 #
face $-1 $277 $213 $16 $-1 $278 reversed single #
loop $-1 $-1 $279 $121 #
plane-surface $-1 0 0 -8.7363788433311065 0 0 1 1 0 0 forward_v I I I I #
coedge $-1 $280 $124 $204 $281 forward $71 $-1 #
coedge $-1 $124 $280 $282 $283 forward $71 $-1 #
edge $-1 $284 -46.856898709067053 $205 46.856898709067053 $124 $285 forward 7 unknown #
coedge $-1 $126 $125 $286 $287 reversed $45 $-1 #
coedge $-1 $127 $288 $200 $281 reversed $122 $-1 #
vertex $-1 $281 $289 #
straight-curve $-1 46.856898709067053 -10.073104475400704 3.182831290600042 0 0 -1 I I #
coedge $-1 $286 $290 $129 $208 forward $291 $-1 #
edge $-1 $214 -12.991497494116331 $209 -2.384903818895026 $207 $292 forward 7 unknown #
vertex $-1 $208 $293 #
straight-curve $-1 0 -10.073104475400704 3.9949463190690615 1 0 0 I I #
coedge $-1 $294 $131 $290 $295 forward $213 $-1 #
coedge $-1 $131 $294 $133 $217 reversed $213 $-1 #
loop $-1 $-1 $131 $197 #
vertex $-1 $295 $296 #
straight-curve $-1 0 -20.679698150622009 3.9949463190690615 -1 0 0 I I #
coedge $-1 $288 $133 $279 $297 reversed $122 $-1 #
edge $-1 $135 -3.9949463190690615 $298 8.7363788433311065 $133 $299 forward 7 unknown #
point $-1 46.856898709067053 -10.073104475400704 3.9949463190690615 #
point $-1 46.856898709067053 -20.679698150622009 3.9949463190690615 #
face $-1 $300 $301 $17 $-1 $302 forward single #
loop $-1 $-1 $303 $137 #
plane-surface $-1 0 -15.376401313011357 3.9949463190690615 0 0 1 1 0 0 forward_v I I I I #
coedge $-1 $140 $304 $305 $306 reversed $79 $-1 #
coedge $-1 $305 $228 $141 $225 forward $307 $-1 #
edge $-1 $230 -6.6310087675002976 $226 0.40365265724863164 $224 $308 forward 7 unknown #
vertex $-1 $306 $309 #
straight-curve $-1 21.887621437451713 20.679698150622009 52.149639742138234 0 0 -1 I I #
coedge $-1 $224 $310 $144 $229 forward $307 $-1 #
edge $-1 $234 -29.670768672437362 $230 -4.7014914008220217 $228 $311 forward 7 unknown #
vertex $-1 $229 $312 #
straight-curve $-1 21.887621437451713 -13.199935666021368 27.533431236196876 0 0.81915203911291934 -0.57357644374324357 I I #
coedge $-1 $313 $146 $310 $314 reversed $138 $-1 #
coedge $-1 $146 $315 $148 $237 reversed $138 $-1 #
vertex $-1 $229 $316 #
straight-curve $-1 46.856898709067053 -2.3030502515050344 19.903349779396258 0 -0.81915203911291934 0.57357644374324357 I I #
coedge $-1 $304 $148 $317 $318 reversed $79 $-1 #
edge $-1 $150 -3.810655790361865 $319 8.7363788433311065 $233 $320 forward 7 unknown #
point $-1 21.887621437451713 20.679698150622009 3.8106557903618672 #
point $-1 46.856898709067053 20.679698150622009 3.810655790361865 #
face $-1 $321 $322 $18 $-1 $323 reversed single #
loop $-1 $-1 $324 $152 #
plane-surface $-1 0 20.679698150622009 0 0 -1 0 0 0 -1 forward_v I I I I #
coedge $-1 $325 $326 $324 $327 reversed $153 $-1 #
coedge $-1 $328 $329 $330 $331 reversed $155 $-1 #
edge $-1 $332 1 $332 0 $156 $-1 forward 7 unknown #
vertex $-1 $157 $333 #
ellipse-curve $-1 29.021700657913243 15.634102262996628 4.0909284949588542 0 0.57357644374324357 0.81915203911291934 1.5 0 0 1 I I #
point $-1 30.521700657913243 17.162367438247568 6.273517316846501 #
face $-1 $334 $335 $19 $-1 $336 forward single #
plane-surface $-1 34.372260073259383 -13.199935666021368 27.533431236196876 0 0.57357644374324357 0.81915203911291934 1 0 0 forward_v I I I I #
loop $-1 $-1 $337 $94 #
coedge $-1 $252 $252 $253 $338 forward $161 $-1 #
coedge $-1 $253 $253 $252 $338 reversed $163 $-1 #
coedge $-1 $254 $254 $164 $255 forward $259 $-1 #
edge $-1 $339 -2.8880652740743036e-016 $339 6.2831853071796004 $254 $340 forward 7 unknown #
edge $-1 $341 1 $341 0 $165 $-1 forward 7 unknown #
vertex $-1 $166 $342 #
ellipse-curve $-1 39.722819488605523 15.634102262996628 4.0909284949588542 0 0.57357644374324357 0.81915203911291934 1.5 0 0 1 I I #
loop $-1 $343 $254 $160 #
point $-1 41.222819488605523 17.162367438247568 6.273517316846501 #
plane-surface $-1 46.856898709067053 0 0 -1 0 0 0 0 1 forward_v I I I I #
coedge $-1 $175 $173 $177 $266 reversed $103 $-1 #
edge $-1 $188 -8.7363788433311065 $268 8.7363788433311065 $187 $344 forward 7 unknown #
vertex $-1 $266 $345 #
straight-curve $-1 -46.856898709067053 -20.679698150622009 0 0 0 -1 I I #
edge $-1 $264 -20.679698150622009 $268 20.679698150622009 $262 $346 forward 7 unknown #
straight-curve $-1 0 -20.679698150622009 -8.7363788433311065 -1 0 0 I I #
vertex $-1 $180 $347 #
straight-curve $-1 0 20.679698150622009 -8.7363788433311065 1 0 0 I I #
point $-1 46.856898709067053 20.679698150622009 -8.7363788433311065 #
point $-1 46.856898709067053 -20.679698150622009 -8.7363788433311065 #
straight-curve $-1 -46.856898709067053 0 8.7363788433311065 0 -1 0 I I #
point $-1 -46.856898709067053 20.679698150622009 8.7363788433311065 #
point $-1 -46.856898709067053 -20.679698150622009 8.7363788433311065 #
straight-curve $-1 46.856898709067053 -20.679698150622009 0 0 0 -1 I I #
straight-curve $-1 46.856898709067053 20.679698150622009 0 0 0 -1 I I #
face $-1 $348 $291 $16 $-1 $349 reversed single #
plane-surface $-1 0 -20.679698150622009 0 0 1 0 0 0 1 forward_v I I I I #
coedge $-1 $350 $351 $216 $297 forward $198 $-1 #
coedge $-1 $201 $200 $352 $353 forward $71 $-1 #
edge $-1 $205 -10.073104475400704 $354 20.679698150622009 $204 $355 forward 7 unknown #
coedge $-1 $356 $286 $201 $283 reversed $291 $-1 #
edge $-1 $357 -20.679698150622009 $284 10.073104475400704 $282 $358 forward 7 unknown #
vertex $-1 $287 $359 #
straight-curve $-1 0 -10.073104475400704 8.7363788433311065 1 0 0 I I #
coedge $-1 $282 $207 $203 $287 forward $291 $-1 #
edge $-1 $209 0.81211502846901951 $284 5.5535475527310645 $286 $360 forward 7 unknown #
coedge $-1 $204 $216 $361 $362 reversed $122 $-1 #
point $-1 46.856898709067053 -10.073104475400704 8.7363788433311065 #
coedge $-1 $207 $363 $211 $295 reversed $291 $-1 #
loop $-1 $-1 $286 $277 #
straight-curve $-1 -46.856898709067053 -7.6882006565056784 3.9949463190690615 0 1 0 I I #
point $-1 -46.856898709067053 -10.073104475400704 3.9949463190690615 #
coedge $-1 $212 $211 $350 $364 reversed $213 $-1 #
edge $-1 $214 -3.9949463190690615 $365 8.7363788433311065 $290 $366 forward 7 unknown #
point $-1 -46.856898709067053 -20.679698150622009 3.9949463190690615 #
edge $-1 $367 -20.679698150622009 $298 20.679698150622009 $216 $368 forward 7 unknown #
vertex $-1 $217 $369 #
straight-curve $-1 46.856898709067053 -20.679698150622009 0 0 0 -1 I I #
face $-1 $370 $307 $17 $-1 $371 forward single #
loop $-1 $-1 $372 $220 #
plane-surface $-1 0 -10.073104475400704 6.365662581200084 0 -1 0 0 0 -1 forward_v I I I I #
coedge $-1 $373 $374 $375 $376 reversed $221 $-1 #
coedge $-1 $223 $236 $377 $378 reversed $79 $-1 #
coedge $-1 $379 $224 $223 $306 forward $307 $-1 #
edge $-1 $226 -21.887621437451713 $380 46.856898709067053 $223 $381 forward 7 unknown #
loop $-1 $-1 $224 $300 #
straight-curve $-1 21.887621437451713 20.276045493373378 8.7363788433311029 0 1 0 I I #
point $-1 21.887621437451713 20.679698150622009 8.7363788433311065 #
coedge $-1 $228 $382 $232 $314 forward $307 $-1 #
straight-curve $-1 17.186130036629692 13.645036725873082 8.7363788433311083 -1 0 0 I I #
point $-1 21.887621437451713 13.64503672587308 8.7363788433311065 #
coedge $-1 $375 $232 $372 $383 forward $138 $-1 #
edge $-1 $384 -10.073104475400704 $234 13.64503672587308 $232 $385 forward 7 unknown #
coedge $-1 $233 $386 $387 $388 reversed $138 $-1 #
point $-1 46.856898709067053 13.64503672587308 8.7363788433311065 #
coedge $-1 $387 $389 $236 $318 forward $390 $-1 #
edge $-1 $391 -46.856898709067053 $319 46.856898709067053 $236 $392 forward 7 unknown #
vertex $-1 $388 $393 #
straight-curve $-1 46.856898709067053 20.679698150622009 0 0 0 -1 I I #
face $-1 $394 $395 $18 $-1 $396 forward single #
loop $-1 $-1 $397 $240 #
plane-surface $-1 46.856898709067053 0 0 -1 0 0 0 0 1 forward_v I I I I #
coedge $-1 $330 $398 $243 $327 forward $241 $-1 #
coedge $-1 $326 $243 $399 $400 reversed $153 $-1 #
coedge $-1 $243 $325 $328 $401 forward $153 $-1 #
edge $-1 $402 43.413260898807124 $403 48.33898395177637 $324 $404 forward 7 unknown #
coedge $-1 $405 $244 $326 $401 reversed $155 $-1 #
coedge $-1 $244 $405 $397 $406 reversed $155 $-1 #
coedge $-1 $407 $324 $244 $331 forward $241 $-1 #
edge $-1 $403 4.7014914008220217 $408 29.670768672437362 $330 $409 forward 7 unknown #
vertex $-1 $245 $410 #
point $-1 30.521700657913243 15.634102262996628 4.0909284949588542 #
face $-1 $411 $412 $19 $-1 $413 reversed single #
loop $-1 $-1 $414 $249 #
plane-surface $-1 21.887621437451713 40.552090986746755 104.29927948427647 1 0 0 0 -0.57357644374324357 -0.81915203911291934 forward_v I I I I #
coedge $-1 $337 $337 $-1 $415 forward $251 $-1 #
edge $-1 $416 0 $416 6.2831853071796004 $252 $417 forward 7 unknown #
vertex $-1 $255 $418 #
ellipse-curve $-1 29.021700657913243 17.162367438247554 6.2735173168464815 0 -0.57357644374324357 -0.81915203911291934 1.5 0 0 1 I I #
vertex $-1 $256 $419 #
point $-1 41.222819488605523 15.634102262996628 4.0909284949588542 #
loop $-1 $-1 $420 $160 #
straight-curve $-1 -46.856898709067053 20.679698150622009 0 0 0 -1 I I #
point $-1 -46.856898709067053 -20.679698150622009 -8.7363788433311065 #
straight-curve $-1 -46.856898709067053 0 -8.7363788433311065 0 1 0 I I #
point $-1 -46.856898709067053 20.679698150622009 -8.7363788433311065 #
face $-1 $-1 $421 $16 $-1 $422 reversed single #
plane-surface $-1 -46.856898709067053 0 0 1 0 0 0 0 -1 forward_v I I I I #
coedge $-1 $423 $279 $294 $364 forward $198 $-1 #
coedge $-1 $279 $423 $424 $425 forward $198 $-1 #
coedge $-1 $361 $426 $280 $353 reversed $421 $-1 #
edge $-1 $354 -46.856898709067053 $357 46.856898709067053 $352 $427 forward 7 unknown #
vertex $-1 $281 $428 #
straight-curve $-1 46.856898709067053 0 8.7363788433311065 0 1 0 I I #
coedge $-1 $363 $282 $426 $429 forward $291 $-1 #
vertex $-1 $353 $430 #
straight-curve $-1 -46.856898709067053 0 8.7363788433311065 0 -1 0 I I #
point $-1 -46.856898709067053 -10.073104475400704 8.7363788433311065 #
straight-curve $-1 -46.856898709067053 -10.073104475400704 3.182831290600042 0 0 1 I I #
coedge $-1 $424 $352 $288 $362 forward $421 $-1 #
edge $-1 $354 -8.7363788433311065 $367 8.7363788433311065 $288 $431 forward 7 unknown #
coedge $-1 $290 $356 $423 $432 reversed $291 $-1 #
edge $-1 $298 -46.856898709067053 $365 46.856898709067053 $294 $433 forward 7 unknown #
vertex $-1 $432 $434 #
straight-curve $-1 -46.856898709067053 -20.679698150622009 0 0 0 -1 I I #
vertex $-1 $297 $435 #
straight-curve $-1 46.856898709067053 0 -8.7363788433311065 0 -1 0 I I #
point $-1 46.856898709067053 -20.679698150622009 -8.7363788433311065 #
face $-1 $436 $390 $17 $-1 $437 reversed single #
plane-surface $-1 0 0 8.7363788433311065 0 0 1 1 0 0 forward_v I I I I #
coedge $-1 $438 $439 $313 $383 reversed $301 $-1 #
coedge $-1 $440 $303 $439 $441 reversed $221 $-1 #
coedge $-1 $303 $440 $442 $443 reversed $221 $-1 #
coedge $-1 $386 $313 $303 $376 forward $138 $-1 #
edge $-1 $444 2.384903818895026 $445 12.991497494116331 $375 $446 forward 7 unknown #
coedge $-1 $447 $448 $304 $378 forward $449 $-1 #
edge $-1 $380 -8.7363788433311065 $391 8.7363788433311065 $304 $450 forward 7 unknown #
coedge $-1 $382 $305 $448 $451 forward $307 $-1 #
vertex $-1 $306 $452 #
straight-curve $-1 0 20.679698150622009 8.7363788433311065 -1 0 0 I I #
coedge $-1 $310 $379 $438 $453 forward $307 $-1 #
edge $-1 $384 -5.5535475527310645 $444 -0.81211502846901951 $313 $454 forward 7 unknown #
vertex $-1 $314 $455 #
straight-curve $-1 46.856898709067053 0 8.7363788433311065 0 1 0 I I #
coedge $-1 $315 $375 $456 $457 forward $138 $-1 #
coedge $-1 $458 $317 $315 $388 forward $390 $-1 #
edge $-1 $319 -20.679698150622009 $459 20.679698150622009 $315 $460 forward 7 unknown #
coedge $-1 $317 $458 $447 $461 forward $390 $-1 #
loop $-1 $-1 $387 $370 #
vertex $-1 $318 $462 #
straight-curve $-1 0 20.679698150622009 -8.7363788433311065 1 0 0 I I #
point $-1 46.856898709067053 20.679698150622009 -8.7363788433311065 #
face $-1 $463 $464 $18 $-1 $465 forward single #
loop $-1 $-1 $466 $321 #
plane-surface $-1 0 -15.376401313011357 3.9949463190690615 0 0 1 1 0 0 forward_v I I I I #
coedge $-1 $467 $468 $329 $406 forward $322 $-1 #
coedge $-1 $324 $469 $470 $471 reversed $241 $-1 #
coedge $-1 $470 $472 $325 $400 forward $473 $-1 #
edge $-1 $474 -6.6310087675002976 $402 0.40365265724863164 $399 $475 forward 7 unknown #
edge $-1 $474 32.771660339105736 $403 41.359396301244026 $326 $476 forward 7 unknown #
vertex $-1 $471 $477 #
vertex $-1 $331 $478 #
straight-curve $-1 21.887621437451713 20.679698150622009 52.149639742138234 0 0 -1 I I #
coedge $-1 $329 $328 $472 $479 reversed $155 $-1 #
edge $-1 $408 -28.05675540650018 $480 -19.469019444361887 $397 $481 forward 7 unknown #
coedge $-1 $482 $330 $468 $483 forward $241 $-1 #
vertex $-1 $483 $484 #
straight-curve $-1 17.186130036629692 20.679698150622009 3.8106557903618654 1 0 0 I I #
point $-1 29.021700657913243 14.773737597381761 2.8622004362894753 #
face $-1 $485 $486 $19 $-1 $487 reversed single #
loop $-1 $-1 $488 $334 #
plane-surface $-1 0 20.679698150622009 0 0 -1 0 0 0 -1 forward_v I I I I #
coedge $-1 $489 $490 $488 $491 reversed $335 $-1 #
edge $-1 $492 1 $492 0 $337 $-1 forward 7 unknown #
vertex $-1 $338 $493 #
ellipse-curve $-1 29.021700657913243 15.634102262996628 4.0909284949588542 0 0.57357644374324357 0.81915203911291934 1.5 0 0 1 I I #
point $-1 30.521700657913243 17.162367438247568 6.273517316846501 #
point $-1 39.722819488605523 14.773737597381761 2.8622004362894753 #
coedge $-1 $494 $495 $496 $497 reversed $343 $-1 #
loop $-1 $-1 $361 $348 #
plane-surface $-1 0 20.679698150622009 0 0 -1 0 0 0 -1 forward_v I I I I #
coedge $-1 $351 $350 $363 $432 forward $198 $-1 #
coedge $-1 $426 $361 $351 $425 reversed $421 $-1 #
edge $-1 $498 -46.856898709067053 $367 46.856898709067053 $424 $499 forward 7 unknown #
coedge $-1 $352 $424 $356 $429 reversed $421 $-1 #
straight-curve $-1 0 20.679698150622009 8.7363788433311065 -1 0 0 I I #
point $-1 46.856898709067053 20.679698150622009 8.7363788433311065 #
edge $-1 $357 -8.7363788433311065 $498 8.7363788433311065 $426 $500 forward 7 unknown #
point $-1 -46.856898709067053 20.679698150622009 8.7363788433311065 #
straight-curve $-1 46.856898709067053 20.679698150622009 0 0 0 -1 I I #
edge $-1 $365 -20.679698150622009 $498 20.679698150622009 $363 $501 forward 7 unknown #
straight-curve $-1 0 -20.679698150622009 -8.7363788433311065 -1 0 0 I I #
point $-1 -46.856898709067053 -20.679698150622009 -8.7363788433311065 #
point $-1 46.856898709067053 20.679698150622009 -8.7363788433311065 #
face $-1 $502 $503 $17 $-1 $504 reversed single #
plane-surface $-1 0 0 -8.7363788433311065 0 0 1 1 0 0 forward_v I I I I #
coedge $-1 $505 $372 $382 $453 reversed $301 $-1 #
coedge $-1 $372 $505 $373 $441 forward $301 $-1 #
coedge $-1 $374 $373 $506 $507 reversed $221 $-1 #
edge $-1 $508 -46.856898709067053 $444 46.856898709067053 $439 $509 forward 7 unknown #
coedge $-1 $510 $456 $374 $443 forward $503 $-1 #
edge $-1 $445 -46.856898709067053 $511 46.856898709067053 $442 $512 forward 7 unknown #
vertex $-1 $376 $513 #
vertex $-1 $457 $514 #
straight-curve $-1 46.856898709067053 -7.6882006565056784 3.9949463190690615 0 -1 0 I I #
coedge $-1 $515 $377 $389 $461 reversed $449 $-1 #
coedge $-1 $377 $516 $379 $451 reversed $449 $-1 #
loop $-1 $-1 $516 $502 #
straight-curve $-1 -46.856898709067053 20.679698150622009 0 0 0 -1 I I #
edge $-1 $380 -20.679698150622009 $517 10.073104475400704 $448 $518 forward 7 unknown #
point $-1 -46.856898709067053 20.679698150622009 8.7363788433311065 #
edge $-1 $517 -46.856898709067053 $384 46.856898709067053 $382 $519 forward 7 unknown #
straight-curve $-1 46.856898709067053 -10.073104475400704 3.182831290600042 0 0 -1 I I #
point $-1 46.856898709067053 -10.073104475400704 8.7363788433311065 #
coedge $-1 $442 $520 $386 $457 reversed $503 $-1 #
edge $-1 $445 -3.9949463190690615 $459 8.7363788433311065 $386 $521 forward 7 unknown #
coedge $-1 $389 $387 $520 $522 forward $390 $-1 #
vertex $-1 $457 $523 #
straight-curve $-1 46.856898709067053 0 -8.7363788433311065 0 -1 0 I I #
edge $-1 $524 -20.679698150622009 $391 20.679698150622009 $447 $525 forward 7 unknown #
point $-1 -46.856898709067053 20.679698150622009 -8.7363788433311065 #
face $-1 $526 $473 $18 $-1 $527 forward single #
loop $-1 $-1 $528 $394 #
plane-surface $-1 0 -10.073104475400704 6.365662581200084 0 -1 0 0 0 -1 forward_v I I I I #
coedge $-1 $529 $530 $531 $532 reversed $395 $-1 #
coedge $-1 $533 $397 $534 $535 reversed $322 $-1 #
coedge $-1 $397 $536 $407 $483 reversed $322 $-1 #
coedge $-1 $398 $482 $537 $538 reversed $241 $-1 #
coedge $-1 $539 $399 $398 $471 forward $473 $-1 #
edge $-1 $402 -21.887621437451713 $540 46.856898709067053 $398 $541 forward 7 unknown #
coedge $-1 $399 $534 $405 $479 forward $473 $-1 #
loop $-1 $-1 $399 $463 #
vertex $-1 $479 $542 #
straight-curve $-1 21.887621437451713 20.276045493373378 8.7363788433311029 0 1 0 I I #
straight-curve $-1 21.887621437451713 -13.199935666021368 27.533431236196876 0 0.81915203911291934 -0.57357644374324357 I I #
point $-1 21.887621437451713 20.679698150622009 8.7363788433311065 #
point $-1 21.887621437451713 20.679698150622009 3.8106557903618672 #
edge $-1 $480 -29.670768672437362 $474 -4.7014914008220217 $472 $543 forward 7 unknown #
vertex $-1 $479 $544 #
straight-curve $-1 46.856898709067053 -2.3030502515050344 19.903349779396258 0 -0.81915203911291934 0.57357644374324357 I I #
coedge $-1 $469 $407 $545 $546 reversed $241 $-1 #
edge $-1 $408 -3.810655790361865 $547 8.7363788433311065 $468 $548 forward 7 unknown #
point $-1 46.856898709067053 20.679698150622009 3.810655790361865 #
face $-1 $549 $550 $19 $-1 $551 forward single #
loop $-1 $-1 $552 $411 #
plane-surface $-1 46.856898709067053 0 0 -1 0 0 0 0 1 forward_v I I I I #
coedge $-1 $496 $553 $414 $491 forward $412 $-1 #
coedge $-1 $490 $414 $554 $555 reversed $335 $-1 #
coedge $-1 $414 $489 $494 $556 forward $335 $-1 #
edge $-1 $557 43.413260898807124 $558 48.33898395177637 $488 $559 forward 7 unknown #
vertex $-1 $415 $560 #
point $-1 30.521700657913243 15.634102262996628 4.0909284949588542 #
coedge $-1 $561 $420 $490 $556 reversed $343 $-1 #
coedge $-1 $420 $561 $552 $562 reversed $343 $-1 #
coedge $-1 $563 $488 $420 $497 forward $412 $-1 #
edge $-1 $558 4.7014914008220217 $564 29.670768672437362 $496 $565 forward 7 unknown #
vertex $-1 $425 $566 #
straight-curve $-1 0 20.679698150622009 -8.7363788433311065 1 0 0 I I #
straight-curve $-1 -46.856898709067053 20.679698150622009 0 0 0 -1 I I #
straight-curve $-1 -46.856898709067053 0 -8.7363788433311065 0 1 0 I I #
face $-1 $-1 $449 $17 $-1 $567 reversed single #
loop $-1 $-1 $442 $436 #
plane-surface $-1 0 -20.679698150622009 0 0 1 0 0 0 1 forward_v I I I I #
coedge $-1 $439 $438 $516 $568 reversed $301 $-1 #
coedge $-1 $516 $515 $440 $507 forward $449 $-1 #
edge $-1 $511 -12.991497494116331 $508 -2.384903818895026 $506 $569 forward 7 unknown #
vertex $-1 $507 $570 #
straight-curve $-1 0 -10.073104475400704 3.9949463190690615 1 0 0 I I #
coedge $-1 $520 $442 $515 $571 forward $503 $-1 #
vertex $-1 $571 $572 #
straight-curve $-1 0 -20.679698150622009 3.9949463190690615 -1 0 0 I I #
point $-1 46.856898709067053 -10.073104475400704 3.9949463190690615 #
point $-1 46.856898709067053 -20.679698150622009 3.9949463190690615 #
coedge $-1 $506 $447 $510 $571 reversed $449 $-1 #
coedge $-1 $448 $506 $505 $568 forward $449 $-1 #
vertex $-1 $568 $573 #
straight-curve $-1 -46.856898709067053 0 8.7363788433311065 0 -1 0 I I #
straight-curve $-1 0 -10.073104475400704 8.7363788433311065 1 0 0 I I #
coedge $-1 $456 $510 $458 $522 reversed $503 $-1 #
straight-curve $-1 46.856898709067053 -20.679698150622009 0 0 0 -1 I I #
edge $-1 $459 -46.856898709067053 $524 46.856898709067053 $520 $574 forward 7 unknown #
point $-1 46.856898709067053 -20.679698150622009 -8.7363788433311065 #
vertex $-1 $461 $575 #
straight-curve $-1 -46.856898709067053 0 -8.7363788433311065 0 1 0 I I #
face $-1 $576 $577 $18 $-1 $578 reversed single #
plane-surface $-1 0 0 8.7363788433311065 0 0 1 1 0 0 forward_v I I I I #
coedge $-1 $579 $580 $533 $581 reversed $464 $-1 #
coedge $-1 $582 $466 $580 $583 reversed $395 $-1 #
coedge $-1 $466 $582 $584 $585 reversed $395 $-1 #
coedge $-1 $586 $533 $466 $532 forward $322 $-1 #
edge $-1 $587 2.384903818895026 $588 12.991497494116331 $531 $589 forward 7 unknown #
coedge $-1 $531 $467 $528 $581 forward $322 $-1 #
coedge $-1 $472 $590 $467 $535 forward $473 $-1 #
edge $-1 $591 -10.073104475400704 $480 13.64503672587308 $467 $592 forward 7 unknown #
coedge $-1 $468 $586 $593 $594 reversed $322 $-1 #
coedge $-1 $595 $596 $469 $538 forward $597 $-1 #
edge $-1 $540 -8.7363788433311065 $598 8.7363788433311065 $469 $599 forward 7 unknown #
coedge $-1 $590 $470 $596 $600 forward $473 $-1 #
vertex $-1 $471 $601 #
straight-curve $-1 0 20.679698150622009 8.7363788433311065 -1 0 0 I I #
point $-1 21.887621437451713 13.64503672587308 8.7363788433311065 #
straight-curve $-1 17.186130036629692 13.645036725873082 8.7363788433311083 -1 0 0 I I #
point $-1 46.856898709067053 13.64503672587308 8.7363788433311065 #
coedge $-1 $593 $602 $482 $546 forward $577 $-1 #
edge $-1 $598 -46.856898709067053 $547 46.856898709067053 $482 $603 forward 7 unknown #
vertex $-1 $594 $604 #
straight-curve $-1 46.856898709067053 20.679698150622009 0 0 0 -1 I I #
face $-1 $605 $606 $19 $-1 $607 forward single #
loop $-1 $-1 $608 $485 #
plane-surface $-1 0 -15.376401313011357 3.9949463190690615 0 0 1 1 0 0 forward_v I I I I #
coedge $-1 $609 $610 $495 $562 forward $486 $-1 #
coedge $-1 $488 $611 $612 $613 reversed $412 $-1 #
coedge $-1 $612 $614 $489 $555 forward $615 $-1 #
edge $-1 $616 -6.6310087675002976 $557 0.40365265724863164 $554 $617 forward 7 unknown #
edge $-1 $616 32.771660339105736 $558 41.359396301244026 $490 $618 forward 7 unknown #
vertex $-1 $613 $619 #
vertex $-1 $497 $620 #
straight-curve $-1 21.887621437451713 20.679698150622009 52.149639742138234 0 0 -1 I I #
point $-1 29.021700657913243 14.773737597381761 2.8622004362894753 #
coedge $-1 $495 $494 $614 $621 reversed $343 $-1 #
edge $-1 $564 -28.05675540650018 $622 -19.469019444361887 $552 $623 forward 7 unknown #
coedge $-1 $624 $496 $610 $625 forward $412 $-1 #
vertex $-1 $625 $626 #
straight-curve $-1 17.186130036629692 20.679698150622009 3.8106557903618654 1 0 0 I I #
point $-1 -46.856898709067053 20.679698150622009 -8.7363788433311065 #
plane-surface $-1 -46.856898709067053 0 0 1 0 0 0 0 -1 forward_v I I I I #
edge $-1 $508 0.81211502846901951 $517 5.5535475527310645 $516 $627 forward 7 unknown #
straight-curve $-1 -46.856898709067053 -7.6882006565056784 3.9949463190690615 0 1 0 I I #
point $-1 -46.856898709067053 -10.073104475400704 3.9949463190690615 #
edge $-1 $511 -3.9949463190690615 $524 8.7363788433311065 $515 $628 forward 7 unknown #
point $-1 -46.856898709067053 -20.679698150622009 3.9949463190690615 #
point $-1 -46.856898709067053 -10.073104475400704 8.7363788433311065 #
straight-curve $-1 0 -20.679698150622009 -8.7363788433311065 -1 0 0 I I #
point $-1 -46.856898709067053 -20.679698150622009 -8.7363788433311065 #
face $-1 $629 $630 $18 $-1 $631 reversed single #
loop $-1 $-1 $593 $526 #
plane-surface $-1 0 0 -8.7363788433311065 0 0 1 1 0 0 forward_v I I I I #
coedge $-1 $632 $528 $590 $633 reversed $464 $-1 #
coedge $-1 $528 $632 $529 $583 forward $464 $-1 #
edge $-1 $591 -5.5535475527310645 $587 -0.81211502846901951 $533 $634 forward 7 unknown #
coedge $-1 $530 $529 $635 $636 reversed $395 $-1 #
edge $-1 $637 -46.856898709067053 $587 46.856898709067053 $580 $638 forward 7 unknown #
coedge $-1 $639 $640 $530 $585 forward $630 $-1 #
edge $-1 $588 -46.856898709067053 $641 46.856898709067053 $584 $642 forward 7 unknown #
coedge $-1 $536 $531 $640 $643 forward $322 $-1 #
vertex $-1 $532 $644 #
vertex $-1 $643 $645 #
straight-curve $-1 46.856898709067053 -7.6882006565056784 3.9949463190690615 0 -1 0 I I #
coedge $-1 $534 $539 $579 $633 forward $473 $-1 #
vertex $-1 $535 $646 #
straight-curve $-1 46.856898709067053 0 8.7363788433311065 0 1 0 I I #
coedge $-1 $647 $545 $536 $594 forward $577 $-1 #
edge $-1 $547 -20.679698150622009 $648 20.679698150622009 $536 $649 forward 7 unknown #
coedge $-1 $650 $537 $602 $651 reversed $597 $-1 #
coedge $-1 $537 $652 $539 $600 reversed $597 $-1 #
loop $-1 $-1 $652 $629 #
vertex $-1 $546 $653 #
straight-curve $-1 -46.856898709067053 20.679698150622009 0 0 0 -1 I I #
edge $-1 $540 -20.679698150622009 $654 10.073104475400704 $596 $655 forward 7 unknown #
point $-1 -46.856898709067053 20.679698150622009 8.7363788433311065 #
coedge $-1 $545 $647 $595 $651 forward $577 $-1 #
straight-curve $-1 0 20.679698150622009 -8.7363788433311065 1 0 0 I I #
point $-1 46.856898709067053 20.679698150622009 -8.7363788433311065 #
face $-1 $656 $615 $19 $-1 $657 forward single #
loop $-1 $-1 $658 $549 #
plane-surface $-1 0 -10.073104475400704 6.365662581200084 0 -1 0 0 0 -1 forward_v I I I I #
coedge $-1 $659 $660 $661 $662 reversed $550 $-1 #
coedge $-1 $663 $552 $664 $665 reversed $486 $-1 #
coedge $-1 $552 $666 $563 $625 reversed $486 $-1 #
coedge $-1 $553 $624 $667 $668 reversed $412 $-1 #
coedge $-1 $669 $554 $553 $613 forward $615 $-1 #
edge $-1 $557 -21.887621437451713 $670 46.856898709067053 $553 $671 forward 7 unknown #
coedge $-1 $554 $664 $561 $621 forward $615 $-1 #
loop $-1 $-1 $554 $605 #
vertex $-1 $621 $672 #
straight-curve $-1 21.887621437451713 20.276045493373378 8.7363788433311029 0 1 0 I I #
straight-curve $-1 21.887621437451713 -13.199935666021368 27.533431236196876 0 0.81915203911291934 -0.57357644374324357 I I #
point $-1 21.887621437451713 20.679698150622009 8.7363788433311065 #
point $-1 21.887621437451713 20.679698150622009 3.8106557903618672 #
edge $-1 $622 -29.670768672437362 $616 -4.7014914008220217 $614 $673 forward 7 unknown #
vertex $-1 $621 $674 #
straight-curve $-1 46.856898709067053 -2.3030502515050344 19.903349779396258 0 -0.81915203911291934 0.57357644374324357 I I #
coedge $-1 $611 $563 $675 $676 reversed $412 $-1 #
edge $-1 $564 -3.810655790361865 $677 8.7363788433311065 $610 $678 forward 7 unknown #
point $-1 46.856898709067053 20.679698150622009 3.810655790361865 #
straight-curve $-1 -46.856898709067053 -10.073104475400704 3.182831290600042 0 0 1 I I #
straight-curve $-1 -46.856898709067053 -20.679698150622009 0 0 0 -1 I I #
face $-1 $-1 $597 $18 $-1 $679 reversed single #
loop $-1 $-1 $584 $576 #
plane-surface $-1 0 -20.679698150622009 0 0 1 0 0 0 1 forward_v I I I I #
coedge $-1 $580 $579 $652 $680 reversed $464 $-1 #
edge $-1 $654 -46.856898709067053 $591 46.856898709067053 $590 $681 forward 7 unknown #
straight-curve $-1 46.856898709067053 -10.073104475400704 3.182831290600042 0 0 -1 I I #
coedge $-1 $652 $650 $582 $636 forward $597 $-1 #
edge $-1 $641 -12.991497494116331 $637 -2.384903818895026 $635 $682 forward 7 unknown #
vertex $-1 $636 $683 #
straight-curve $-1 0 -10.073104475400704 3.9949463190690615 1 0 0 I I #
coedge $-1 $684 $584 $650 $685 forward $630 $-1 #
coedge $-1 $584 $684 $586 $643 reversed $630 $-1 #
vertex $-1 $685 $686 #
straight-curve $-1 0 -20.679698150622009 3.9949463190690615 -1 0 0 I I #
edge $-1 $588 -3.9949463190690615 $648 8.7363788433311065 $586 $687 forward 7 unknown #
point $-1 46.856898709067053 -10.073104475400704 3.9949463190690615 #
point $-1 46.856898709067053 -20.679698150622009 3.9949463190690615 #
point $-1 46.856898709067053 -10.073104475400704 8.7363788433311065 #
coedge $-1 $602 $593 $684 $688 forward $577 $-1 #
vertex $-1 $643 $689 #
straight-curve $-1 46.856898709067053 0 -8.7363788433311065 0 -1 0 I I #
coedge $-1 $635 $595 $639 $685 reversed $597 $-1 #
edge $-1 $690 -20.679698150622009 $598 20.679698150622009 $595 $691 forward 7 unknown #
coedge $-1 $596 $635 $632 $680 forward $597 $-1 #
point $-1 -46.856898709067053 20.679698150622009 -8.7363788433311065 #
vertex $-1 $680 $692 #
straight-curve $-1 -46.856898709067053 0 8.7363788433311065 0 -1 0 I I #
face $-1 $693 $694 $19 $-1 $695 reversed single #
plane-surface $-1 0 0 8.7363788433311065 0 0 1 1 0 0 forward_v I I I I #
coedge $-1 $696 $697 $663 $698 reversed $606 $-1 #
coedge $-1 $699 $608 $697 $700 reversed $550 $-1 #
coedge $-1 $608 $699 $701 $702 reversed $550 $-1 #
coedge $-1 $703 $663 $608 $662 forward $486 $-1 #
edge $-1 $704 2.384903818895026 $705 12.991497494116331 $661 $706 forward 7 unknown #
coedge $-1 $661 $609 $658 $698 forward $486 $-1 #
coedge $-1 $614 $707 $609 $665 forward $615 $-1 #
edge $-1 $708 -10.073104475400704 $622 13.64503672587308 $609 $709 forward 7 unknown #
coedge $-1 $610 $703 $710 $711 reversed $486 $-1 #
coedge $-1 $712 $713 $611 $668 forward $714 $-1 #
edge $-1 $670 -8.7363788433311065 $715 8.7363788433311065 $611 $716 forward 7 unknown #
coedge $-1 $707 $612 $713 $717 forward $615 $-1 #
vertex $-1 $613 $718 #
straight-curve $-1 0 20.679698150622009 8.7363788433311065 -1 0 0 I I #
point $-1 21.887621437451713 13.64503672587308 8.7363788433311065 #
straight-curve $-1 17.186130036629692 13.645036725873082 8.7363788433311083 -1 0 0 I I #
point $-1 46.856898709067053 13.64503672587308 8.7363788433311065 #
coedge $-1 $710 $719 $624 $676 forward $694 $-1 #
edge $-1 $715 -46.856898709067053 $677 46.856898709067053 $624 $720 forward 7 unknown #
vertex $-1 $711 $721 #
straight-curve $-1 46.856898709067053 20.679698150622009 0 0 0 -1 I I #
plane-surface $-1 -46.856898709067053 0 0 1 0 0 0 0 -1 forward_v I I I I #
edge $-1 $637 0.81211502846901951 $654 5.5535475527310645 $652 $722 forward 7 unknown #
straight-curve $-1 0 -10.073104475400704 8.7363788433311065 1 0 0 I I #
straight-curve $-1 -46.856898709067053 -7.6882006565056784 3.9949463190690615 0 1 0 I I #
point $-1 -46.856898709067053 -10.073104475400704 3.9949463190690615 #
coedge $-1 $640 $639 $647 $688 reversed $630 $-1 #
edge $-1 $641 -3.9949463190690615 $690 8.7363788433311065 $650 $723 forward 7 unknown #
point $-1 -46.856898709067053 -20.679698150622009 3.9949463190690615 #
straight-curve $-1 46.856898709067053 -20.679698150622009 0 0 0 -1 I I #
edge $-1 $648 -46.856898709067053 $690 46.856898709067053 $684 $724 forward 7 unknown #
point $-1 46.856898709067053 -20.679698150622009 -8.7363788433311065 #
vertex $-1 $651 $725 #
straight-curve $-1 -46.856898709067053 0 -8.7363788433311065 0 1 0 I I #
point $-1 -46.856898709067053 -10.073104475400704 8.7363788433311065 #
face $-1 $726 $727 $19 $-1 $728 reversed single #
loop $-1 $-1 $710 $656 #
plane-surface $-1 0 0 -8.7363788433311065 0 0 1 1 0 0 forward_v I I I I #
coedge $-1 $729 $658 $707 $730 reversed $606 $-1 #
coedge $-1 $658 $729 $659 $700 forward $606 $-1 #
edge $-1 $708 -5.5535475527310645 $704 -0.81211502846901951 $663 $731 forward 7 unknown #
coedge $-1 $660 $659 $732 $733 reversed $550 $-1 #
edge $-1 $734 -46.856898709067053 $704 46.856898709067053 $697 $735 forward 7 unknown #
coedge $-1 $736 $737 $660 $702 forward $727 $-1 #
edge $-1 $705 -46.856898709067053 $738 46.856898709067053 $701 $739 forward 7 unknown #
coedge $-1 $666 $661 $737 $740 forward $486 $-1 #
vertex $-1 $662 $741 #
vertex $-1 $740 $742 #
straight-curve $-1 46.856898709067053 -7.6882006565056784 3.9949463190690615 0 -1 0 I I #
coedge $-1 $664 $669 $696 $730 forward $615 $-1 #
vertex $-1 $665 $743 #
straight-curve $-1 46.856898709067053 0 8.7363788433311065 0 1 0 I I #
coedge $-1 $744 $675 $666 $711 forward $694 $-1 #
edge $-1 $677 -20.679698150622009 $745 20.679698150622009 $666 $746 forward 7 unknown #
coedge $-1 $747 $667 $719 $748 reversed $714 $-1 #
coedge $-1 $667 $749 $669 $717 reversed $714 $-1 #
loop $-1 $-1 $749 $726 #
vertex $-1 $676 $750 #
straight-curve $-1 -46.856898709067053 20.679698150622009 0 0 0 -1 I I #
edge $-1 $670 -20.679698150622009 $751 10.073104475400704 $713 $752 forward 7 unknown #
point $-1 -46.856898709067053 20.679698150622009 8.7363788433311065 #
coedge $-1 $675 $744 $712 $748 forward $694 $-1 #
straight-curve $-1 0 20.679698150622009 -8.7363788433311065 1 0 0 I I #
point $-1 46.856898709067053 20.679698150622009 -8.7363788433311065 #
straight-curve $-1 -46.856898709067053 -10.073104475400704 3.182831290600042 0 0 1 I I #
straight-curve $-1 -46.856898709067053 -20.679698150622009 0 0 0 -1 I I #
straight-curve $-1 0 -20.679698150622009 -8.7363788433311065 -1 0 0 I I #
point $-1 -46.856898709067053 -20.679698150622009 -8.7363788433311065 #
face $-1 $-1 $714 $19 $-1 $753 reversed single #
loop $-1 $-1 $701 $693 #
plane-surface $-1 0 -20.679698150622009 0 0 1 0 0 0 1 forward_v I I I I #
coedge $-1 $697 $696 $749 $754 reversed $606 $-1 #
edge $-1 $751 -46.856898709067053 $708 46.856898709067053 $707 $755 forward 7 unknown #
straight-curve $-1 46.856898709067053 -10.073104475400704 3.182831290600042 0 0 -1 I I #
coedge $-1 $749 $747 $699 $733 forward $714 $-1 #
edge $-1 $738 -12.991497494116331 $734 -2.384903818895026 $732 $756 forward 7 unknown #
vertex $-1 $733 $757 #
straight-curve $-1 0 -10.073104475400704 3.9949463190690615 1 0 0 I I #
coedge $-1 $758 $701 $747 $759 forward $727 $-1 #
coedge $-1 $701 $758 $703 $740 reversed $727 $-1 #
vertex $-1 $759 $760 #
straight-curve $-1 0 -20.679698150622009 3.9949463190690615 -1 0 0 I I #
edge $-1 $705 -3.9949463190690615 $745 8.7363788433311065 $703 $761 forward 7 unknown #
point $-1 46.856898709067053 -10.073104475400704 3.9949463190690615 #
point $-1 46.856898709067053 -20.679698150622009 3.9949463190690615 #
point $-1 46.856898709067053 -10.073104475400704 8.7363788433311065 #
coedge $-1 $719 $710 $758 $762 forward $694 $-1 #
vertex $-1 $740 $763 #
straight-curve $-1 46.856898709067053 0 -8.7363788433311065 0 -1 0 I I #
coedge $-1 $732 $712 $736 $759 reversed $714 $-1 #
edge $-1 $764 -20.679698150622009 $715 20.679698150622009 $712 $765 forward 7 unknown #
coedge $-1 $713 $732 $729 $754 forward $714 $-1 #
point $-1 -46.856898709067053 20.679698150622009 -8.7363788433311065 #
vertex $-1 $754 $766 #
straight-curve $-1 -46.856898709067053 0 8.7363788433311065 0 -1 0 I I #
plane-surface $-1 -46.856898709067053 0 0 1 0 0 0 0 -1 forward_v I I I I #
edge $-1 $734 0.81211502846901951 $751 5.5535475527310645 $749 $767 forward 7 unknown #
straight-curve $-1 0 -10.073104475400704 8.7363788433311065 1 0 0 I I #
straight-curve $-1 -46.856898709067053 -7.6882006565056784 3.9949463190690615 0 1 0 I I #
point $-1 -46.856898709067053 -10.073104475400704 3.9949463190690615 #
coedge $-1 $737 $736 $744 $762 reversed $727 $-1 #
edge $-1 $738 -3.9949463190690615 $764 8.7363788433311065 $747 $768 forward 7 unknown #
point $-1 -46.856898709067053 -20.679698150622009 3.9949463190690615 #
straight-curve $-1 46.856898709067053 -20.679698150622009 0 0 0 -1 I I #
edge $-1 $745 -46.856898709067053 $764 46.856898709067053 $758 $769 forward 7 unknown #
point $-1 46.856898709067053 -20.679698150622009 -8.7363788433311065 #
vertex $-1 $748 $770 #
straight-curve $-1 -46.856898709067053 0 -8.7363788433311065 0 1 0 I I #
point $-1 -46.856898709067053 -10.073104475400704 8.7363788433311065 #
straight-curve $-1 -46.856898709067053 -10.073104475400704 3.182831290600042 0 0 1 I I #
straight-curve $-1 -46.856898709067053 -20.679698150622009 0 0 0 -1 I I #
straight-curve $-1 0 -20.679698150622009 -8.7363788433311065 -1 0 0 I I #
point $-1 -46.856898709067053 -20.679698150622009 -8.7363788433311065 #
End-of-ACIS-data 