500 0 13 0           
7 Unknown 11 ACIS 5.0 NT 24 Fri Mar 26 19:57:52 1999 
-1 9.9999999999999995e-007 1e-010 
body $-1 $13 $-1 $14 #
body $-1 $15 $-1 $16 #
body $-1 $17 $-1 $18 #
body $-1 $19 $-1 $20 #
body $-1 $21 $-1 $22 #
body $-1 $23 $-1 $24 #
body $-1 $25 $-1 $26 #
body $-1 $27 $-1 $28 #
body $-1 $29 $-1 $30 #
body $-1 $31 $-1 $32 #
body $-1 $33 $-1 $34 #
body $-1 $35 $-1 $36 #
body $-1 $37 $-1 $38 #
lump $-1 $-1 $39 $0 #
transform $-1 1 0 0 0 1 0 0 0 1 69.26358836634418 29.113240450818967 6.7003900330137363 1 rotate no_reflect no_shear #
lump $-1 $-1 $40 $1 #
transform $-1 1 0 0 0 1 0 0 0 1 69.26358836634418 29.113240450818967 6.7003900330137363 1 rotate no_reflect no_shear #
lump $-1 $-1 $41 $2 #
transform $-1 1 0 0 0 1 0 0 0 1 69.26358836634418 29.113240450818967 6.7003900330137363 1 rotate no_reflect no_shear #
lump $-1 $-1 $42 $3 #
transform $-1 1 0 0 0 1 0 0 0 1 69.26358836634418 29.113240450818967 6.7003900330137363 1 rotate no_reflect no_shear #
lump $-1 $-1 $43 $4 #
transform $-1 1 0 0 0 1 0 0 0 1 69.26358836634418 29.113240450818967 6.7003900330137363 1 rotate no_reflect no_shear #
lump $-1 $-1 $44 $5 #
transform $-1 1 0 0 0 1 0 0 0 1 69.26358836634418 29.113240450818967 6.7003900330137363 1 rotate no_reflect no_shear #
lump $-1 $-1 $45 $6 #
transform $-1 1 0 0 0 1 0 0 0 1 69.26358836634418 29.113240450818967 6.7003900330137363 1 rotate no_reflect no_shear #
lump $-1 $-1 $46 $7 #
transform $-1 1 0 0 0 1 0 0 0 1 69.26358836634418 29.113240450818967 6.7003900330137363 1 rotate no_reflect no_shear #
lump $-1 $-1 $47 $8 #
transform $-1 1 0 0 0 1 0 0 0 1 69.26358836634418 29.113240450818967 6.7003900330137363 1 rotate no_reflect no_shear #
lump $-1 $-1 $48 $9 #
transform $-1 1 0 0 0 1 0 0 0 1 69.26358836634418 29.113240450818967 6.7003900330137363 1 rotate no_reflect no_shear #
lump $-1 $-1 $49 $10 #
transform $-1 1 0 0 0 1 0 0 0 1 69.26358836634418 29.113240450818967 6.7003900330137363 1 rotate no_reflect no_shear #
lump $-1 $-1 $50 $11 #
transform $-1 1 0 0 0 1 0 0 0 1 69.26358836634418 29.113240450818967 6.7003900330137363 1 rotate no_reflect no_shear #
lump $-1 $-1 $51 $12 #
transform $-1 1 0 0 0 1 0 0 0 1 69.26358836634418 29.113240450818967 6.7003900330137363 1 rotate no_reflect no_shear #
shell $-1 $-1 $-1 $52 $-1 $13 #
shell $-1 $-1 $-1 $53 $-1 $15 #
shell $-1 $-1 $-1 $54 $-1 $17 #
shell $-1 $-1 $-1 $55 $-1 $19 #
shell $-1 $-1 $-1 $56 $-1 $21 #
shell $-1 $-1 $-1 $57 $-1 $23 #
shell $-1 $-1 $-1 $58 $-1 $25 #
shell $-1 $-1 $-1 $59 $-1 $27 #
shell $-1 $-1 $-1 $60 $-1 $29 #
shell $-1 $-1 $-1 $61 $-1 $31 #
shell $-1 $-1 $-1 $62 $-1 $33 #
shell $-1 $-1 $-1 $63 $-1 $35 #
shell $-1 $-1 $-1 $64 $-1 $37 #
face $-1 $65 $66 $39 $-1 $67 forward single #
face $-1 $68 $69 $40 $-1 $70 forward single #
face $-1 $71 $72 $41 $-1 $73 forward single #
face $-1 $74 $75 $42 $-1 $76 reversed single #
face $-1 $77 $78 $43 $-1 $79 forward single #
face $-1 $80 $81 $44 $-1 $82 forward single #
face $-1 $83 $84 $45 $-1 $85 forward single #
face $-1 $86 $87 $46 $-1 $88 reversed single #
face $-1 $89 $90 $47 $-1 $91 forward single #
face $-1 $92 $93 $48 $-1 $94 forward single #
face $-1 $95 $96 $49 $-1 $97 reversed single #
face $-1 $98 $99 $50 $-1 $100 forward single #
face $-1 $101 $102 $51 $-1 $103 forward single #
face $-1 $104 $105 $39 $-1 $106 reversed single #
loop $-1 $-1 $107 $52 #
plane-surface $-1 0 0 6.7003900330137363 0 0 1 1 0 0 forward_v I I I I #
face $-1 $108 $109 $40 $-1 $110 reversed single #
loop $-1 $-1 $111 $53 #
plane-surface $-1 -69.26358836634418 0 0 1 0 0 0 0 -1 forward_v I I I I #
face $-1 $112 $113 $41 $-1 $114 reversed single #
loop $-1 $-1 $115 $54 #
plane-surface $-1 69.26358836634418 0 0 -1 0 0 0 0 1 forward_v I I I I #
face $-1 $116 $117 $42 $-1 $118 reversed single #
loop $-1 $-1 $119 $55 #
plane-surface $-1 19.138521443608536 -119.99524661205992 107.58945351877314 -1 0 0 0 -0.6560590369687036 0.75470957328743171 forward_v I I I I #
face $-1 $120 $121 $43 $-1 $122 forward single #
loop $-1 $123 $124 $56 #
cone-surface $-1 -10.797169860312792 -26.279741802153442 4.0323420816175215 0 0.6560590369687036 -0.75470957328743171 1 0 0 1 I I 0 1 1 forward I I I I #
face $-1 $125 $126 $44 $-1 $127 forward single #
loop $-1 $128 $129 $57 #
cone-surface $-1 0.4287143786577019 -26.279741802153442 4.0323420816175215 0 0.6560590369687036 -0.75470957328743171 1 0 0 1 I I 0 1 1 forward I I I I #
face $-1 $130 $131 $45 $-1 $132 forward single #
loop $-1 $133 $134 $58 #
cone-surface $-1 11.65459861762821 -26.279741802153442 4.0323420816175215 0 0.6560590369687036 -0.75470957328743171 1 0 0 1 I I 0 1 1 forward I I I I #
face $-1 $135 $136 $46 $-1 $137 reversed single #
loop $-1 $-1 $138 $59 #
plane-surface $-1 -63.933450281803715 71.040744451709529 147.86415961694931 1 0 0 0 -0.62932039886446345 -0.77714595512881146 forward_v I I I I #
face $-1 $139 $140 $47 $-1 $141 forward single #
loop $-1 $142 $143 $60 #
cone-surface $-1 -60.053163227437217 26.849968547228041 4.7284206134847899 0 -0.62932039886446345 -0.77714595512881146 0.5 0 0 1 I I 0 1 0.5 forward I I I I #
face $-1 $144 $145 $48 $-1 $146 forward single #
loop $-1 $147 $148 $61 #
cone-surface $-1 -54.232732645887467 26.849968547228041 4.7284206134847899 0 -0.62932039886446345 -0.77714595512881146 0.5 0 0 1 I I 0 1 0.5 forward I I I I #
face $-1 $149 $150 $49 $-1 $151 reversed single #
loop $-1 $-1 $152 $62 #
plane-surface $-1 2.6645352591003757e-015 71.040744451709529 147.86415961694931 1 0 0 0 -0.62932039886446345 -0.77714595512881146 forward_v I I I I #
face $-1 $153 $154 $50 $-1 $155 forward single #
loop $-1 $156 $157 $63 #
cone-surface $-1 3.8802870543665051 26.849968547228041 4.7284206134847899 0 -0.62932039886446345 -0.77714595512881146 0.5 0 0 1 I I 0 1 0.5 forward I I I I #
face $-1 $158 $159 $51 $-1 $160 forward single #
loop $-1 $161 $162 $64 #
cone-surface $-1 9.7007176359162486 26.849968547228041 4.7284206134847899 0 -0.62932039886446345 -0.77714595512881146 0.5 0 0 1 I I 0 1 0.5 forward I I I I #
face $-1 $163 $164 $39 $-1 $165 reversed single #
loop $-1 $-1 $166 $65 #
plane-surface $-1 0 0 -6.7003900330137363 0 0 1 1 0 0 forward_v I I I I #
coedge $-1 $167 $168 $169 $170 forward $66 $-1 #
face $-1 $171 $172 $40 $-1 $173 reversed single #
loop $-1 $-1 $174 $68 #
plane-surface $-1 0 0 -6.7003900330137363 0 0 1 1 0 0 forward_v I I I I #
coedge $-1 $175 $176 $177 $178 forward $69 $-1 #
face $-1 $179 $180 $41 $-1 $181 reversed single #
loop $-1 $-1 $182 $71 #
plane-surface $-1 0 0 -6.7003900330137363 0 0 1 1 0 0 forward_v I I I I #
coedge $-1 $183 $184 $185 $186 forward $72 $-1 #
face $-1 $187 $188 $42 $-1 $189 reversed single #
loop $-1 $-1 $190 $74 #
plane-surface $-1 0.4287143786577019 -29.113240450818978 3.0416670781332726 0 -0.6560590369687036 0.75470957328743171 1 0 0 forward_v I I I I #
coedge $-1 $191 $192 $193 $194 reversed $75 $-1 #
face $-1 $-1 $195 $43 $-1 $196 forward single #
loop $-1 $197 $198 $77 #
cone-surface $-1 -10.797169860312792 -25.22265323910775 2.8163008210178369 0 0.6560590369687036 -0.75470957328743171 0.5 0 0 1 I I -0.70710678118654746 0.70710678118654746 0.5 forward I I I I #
loop $-1 $-1 $199 $56 #
coedge $-1 $124 $124 $200 $201 reversed $78 $-1 #
face $-1 $-1 $202 $44 $-1 $203 forward single #
loop $-1 $204 $205 $80 #
cone-surface $-1 0.4287143786577019 -25.22265323910775 2.8163008210178369 0 0.6560590369687036 -0.75470957328743171 0.5 0 0 1 I I -0.70710678118654746 0.70710678118654746 0.5 forward I I I I #
loop $-1 $-1 $206 $57 #
coedge $-1 $129 $129 $207 $208 reversed $81 $-1 #
face $-1 $-1 $209 $45 $-1 $210 forward single #
loop $-1 $211 $212 $83 #
cone-surface $-1 11.65459861762821 -25.22265323910775 2.8163008210178369 0 0.6560590369687036 -0.75470957328743171 0.5 0 0 1 I I -0.70710678118654746 0.70710678118654746 0.5 forward I I I I #
loop $-1 $-1 $213 $58 #
coedge $-1 $134 $134 $214 $215 reversed $84 $-1 #
face $-1 $216 $217 $46 $-1 $218 reversed single #
loop $-1 $-1 $219 $86 #
plane-surface $-1 -57.142947936662338 -16.137233663273932 40.208324543726548 0 0.62932039886446345 0.77714595512881146 1 0 0 forward_v I I I I #
coedge $-1 $220 $221 $222 $223 reversed $87 $-1 #
face $-1 $-1 $224 $47 $-1 $225 forward single #
loop $-1 $226 $227 $89 #
cone-surface $-1 -60.053163227437217 26.365177502028995 4.1297535425636589 0 -0.62932039886446345 -0.77714595512881146 0.25 0 0 1 I I -0.70710678118654746 0.70710678118654746 0.25 forward I I I I #
loop $-1 $-1 $228 $60 #
coedge $-1 $143 $143 $229 $230 reversed $90 $-1 #
face $-1 $-1 $231 $48 $-1 $232 forward single #
loop $-1 $233 $234 $92 #
cone-surface $-1 -54.232732645887467 26.365177502028995 4.1297535425636589 0 -0.62932039886446345 -0.77714595512881146 0.25 0 0 1 I I -0.70710678118654746 0.70710678118654746 0.25 forward I I I I #
loop $-1 $-1 $235 $61 #
coedge $-1 $148 $148 $236 $237 reversed $93 $-1 #
face $-1 $238 $239 $49 $-1 $240 reversed single #
loop $-1 $-1 $241 $95 #
plane-surface $-1 6.7905023451413768 -16.137233663273932 40.208324543726548 0 0.62932039886446345 0.77714595512881146 1 0 0 forward_v I I I I #
coedge $-1 $242 $243 $244 $245 reversed $96 $-1 #
face $-1 $-1 $246 $50 $-1 $247 forward single #
loop $-1 $248 $249 $98 #
cone-surface $-1 3.8802870543665051 26.365177502028995 4.1297535425636589 0 -0.62932039886446345 -0.77714595512881146 0.25 0 0 1 I I -0.70710678118654746 0.70710678118654746 0.25 forward I I I I #
loop $-1 $-1 $250 $63 #
coedge $-1 $157 $157 $251 $252 reversed $99 $-1 #
face $-1 $-1 $253 $51 $-1 $254 forward single #
loop $-1 $255 $256 $101 #
cone-surface $-1 9.7007176359162486 26.365177502028995 4.1297535425636589 0 -0.62932039886446345 -0.77714595512881146 0.25 0 0 1 I I -0.70710678118654746 0.70710678118654746 0.25 forward I I I I #
loop $-1 $-1 $257 $64 #
coedge $-1 $162 $162 $258 $259 reversed $102 $-1 #
face $-1 $260 $261 $39 $-1 $262 reversed single #
loop $-1 $-1 $263 $104 #
plane-surface $-1 0 -29.113240450818967 0 0 1 0 0 0 1 forward_v I I I I #
coedge $-1 $264 $265 $266 $267 forward $105 $-1 #
coedge $-1 $268 $107 $269 $270 forward $66 $-1 #
coedge $-1 $107 $268 $271 $272 forward $66 $-1 #
coedge $-1 $273 $274 $107 $170 reversed $275 $-1 #
edge $-1 $276 -29.113240450818967 $277 29.113240450818967 $169 $278 forward 7 unknown #
face $-1 $279 $280 $40 $-1 $281 reversed single #
loop $-1 $-1 $282 $108 #
plane-surface $-1 -71.928657408614413 -18.712460384791495 0 0 1 0 0 0 1 forward_v I I I I #
coedge $-1 $283 $284 $176 $285 forward $109 $-1 #
coedge $-1 $286 $111 $287 $288 reversed $69 $-1 #
coedge $-1 $111 $286 $174 $285 reversed $69 $-1 #
coedge $-1 $289 $290 $111 $178 reversed $291 $-1 #
edge $-1 $292 -6.7003900330137363 $293 6.7003900330137363 $177 $294 forward 7 unknown #
face $-1 $295 $296 $41 $-1 $297 reversed single #
loop $-1 $-1 $185 $112 #
plane-surface $-1 71.928657408614413 -18.712460384791495 0 0 1 0 0 0 1 forward_v I I I I #
coedge $-1 $298 $299 $184 $300 forward $113 $-1 #
coedge $-1 $301 $115 $302 $303 reversed $72 $-1 #
coedge $-1 $115 $301 $182 $300 reversed $72 $-1 #
coedge $-1 $304 $305 $115 $186 reversed $180 $-1 #
edge $-1 $306 -6.7003900330137363 $307 6.7003900330137363 $185 $308 forward 7 unknown #
face $-1 $309 $310 $42 $-1 $311 forward single #
loop $-1 $-1 $312 $116 #
plane-surface $-1 -18.281092686293132 -119.99524661205992 107.58945351877314 1 0 0 0 0.6560590369687036 -0.75470957328743171 forward_v I I I I #
coedge $-1 $313 $314 $315 $316 reversed $117 $-1 #
coedge $-1 $192 $119 $317 $318 reversed $75 $-1 #
coedge $-1 $119 $191 $313 $319 reversed $75 $-1 #
coedge $-1 $315 $320 $119 $194 forward $310 $-1 #
edge $-1 $321 30.88438285521099 $322 35.093262063419324 $193 $323 forward 7 unknown #
loop $-1 $-1 $200 $120 #
plane-surface $-1 0.4287143786577019 -29.113240450818978 3.0416670781332726 0 -0.6560590369687036 0.75470957328743171 1 0 0 forward_v I I I I #
loop $-1 $-1 $324 $77 #
coedge $-1 $198 $198 $199 $325 reversed $121 $-1 #
coedge $-1 $199 $199 $198 $325 forward $123 $-1 #
coedge $-1 $200 $200 $124 $201 forward $195 $-1 #
edge $-1 $326 5.8699059163305684e-016 $326 6.2831853071796013 $200 $327 forward 7 unknown #
loop $-1 $-1 $207 $125 #
plane-surface $-1 0.4287143786577019 -29.113240450818978 3.0416670781332726 0 -0.6560590369687036 0.75470957328743171 1 0 0 forward_v I I I I #
loop $-1 $-1 $328 $80 #
coedge $-1 $205 $205 $206 $329 reversed $126 $-1 #
coedge $-1 $206 $206 $205 $329 forward $128 $-1 #
coedge $-1 $207 $207 $129 $208 forward $202 $-1 #
edge $-1 $330 5.8699059163305684e-016 $330 6.2831853071796013 $207 $331 forward 7 unknown #
loop $-1 $-1 $214 $130 #
plane-surface $-1 0.4287143786577019 -29.113240450818978 3.0416670781332726 0 -0.6560590369687036 0.75470957328743171 1 0 0 forward_v I I I I #
loop $-1 $-1 $332 $83 #
coedge $-1 $212 $212 $213 $333 reversed $131 $-1 #
coedge $-1 $213 $213 $212 $333 forward $133 $-1 #
coedge $-1 $214 $214 $134 $215 forward $209 $-1 #
edge $-1 $334 5.8699059163305684e-016 $334 6.2831853071796013 $214 $335 forward 7 unknown #
face $-1 $336 $337 $46 $-1 $338 reversed single #
loop $-1 $-1 $339 $135 #
plane-surface $-1 -50.352445591520961 71.040744451709529 147.86415961694931 -1 0 0 0 0.62932039886446345 0.77714595512881146 forward_v I I I I #
coedge $-1 $340 $341 $342 $343 reversed $136 $-1 #
coedge $-1 $221 $138 $344 $345 reversed $87 $-1 #
coedge $-1 $138 $220 $340 $346 reversed $87 $-1 #
coedge $-1 $342 $347 $138 $223 forward $348 $-1 #
edge $-1 $349 6.407131775035797 $350 10.278753691251787 $222 $351 forward 7 unknown #
loop $-1 $-1 $229 $139 #
plane-surface $-1 -57.142947936662338 -16.137233663273932 40.208324543726548 0 0.62932039886446345 0.77714595512881146 1 0 0 forward_v I I I I #
loop $-1 $-1 $352 $89 #
coedge $-1 $227 $227 $228 $353 reversed $140 $-1 #
coedge $-1 $228 $228 $227 $353 forward $142 $-1 #
coedge $-1 $229 $229 $143 $230 forward $224 $-1 #
edge $-1 $354 -3.2861589410272507e-015 $354 6.2831853071795969 $229 $355 forward 7 unknown #
loop $-1 $-1 $236 $144 #
plane-surface $-1 -57.142947936662338 -16.137233663273932 40.208324543726548 0 0.62932039886446345 0.77714595512881146 1 0 0 forward_v I I I I #
loop $-1 $-1 $356 $92 #
coedge $-1 $234 $234 $235 $357 reversed $145 $-1 #
coedge $-1 $235 $235 $234 $357 forward $147 $-1 #
coedge $-1 $236 $236 $148 $237 forward $231 $-1 #
edge $-1 $358 -3.2861589410272507e-015 $358 6.2831853071795969 $236 $359 forward 7 unknown #
face $-1 $360 $361 $49 $-1 $362 forward single #
loop $-1 $-1 $363 $149 #
plane-surface $-1 13.58100469028275 71.040744451709529 147.86415961694931 -1 0 0 0 0.62932039886446345 0.77714595512881146 forward_v I I I I #
coedge $-1 $364 $365 $366 $367 reversed $150 $-1 #
coedge $-1 $243 $152 $368 $369 reversed $96 $-1 #
coedge $-1 $152 $242 $364 $370 reversed $96 $-1 #
coedge $-1 $366 $371 $152 $245 forward $361 $-1 #
edge $-1 $372 6.407131775035797 $373 10.278753691251787 $244 $374 forward 7 unknown #
loop $-1 $-1 $251 $153 #
plane-surface $-1 6.7905023451413768 -16.137233663273932 40.208324543726548 0 0.62932039886446345 0.77714595512881146 1 0 0 forward_v I I I I #
loop $-1 $-1 $375 $98 #
coedge $-1 $249 $249 $250 $376 reversed $154 $-1 #
coedge $-1 $250 $250 $249 $376 forward $156 $-1 #
coedge $-1 $251 $251 $157 $252 forward $246 $-1 #
edge $-1 $377 -3.2861589410272507e-015 $377 6.2831853071795969 $251 $378 forward 7 unknown #
loop $-1 $-1 $258 $158 #
plane-surface $-1 6.7905023451413768 -16.137233663273932 40.208324543726548 0 0.62932039886446345 0.77714595512881146 1 0 0 forward_v I I I I #
loop $-1 $-1 $379 $101 #
coedge $-1 $256 $256 $257 $380 reversed $159 $-1 #
coedge $-1 $257 $257 $256 $380 forward $161 $-1 #
coedge $-1 $258 $258 $162 $259 forward $253 $-1 #
edge $-1 $381 -3.2861589410272507e-015 $381 6.2831853071795969 $258 $382 forward 7 unknown #
face $-1 $383 $384 $39 $-1 $385 reversed single #
loop $-1 $-1 $386 $163 #
plane-surface $-1 -69.26358836634418 0 0 1 0 0 0 0 -1 forward_v I I I I #
coedge $-1 $387 $271 $388 $389 forward $164 $-1 #
coedge $-1 $390 $166 $387 $391 forward $105 $-1 #
coedge $-1 $166 $390 $392 $393 forward $105 $-1 #
coedge $-1 $274 $273 $166 $267 reversed $275 $-1 #
edge $-1 $394 -29.113240450818967 $395 29.113240450818967 $266 $396 forward 7 unknown #
coedge $-1 $168 $167 $397 $398 forward $66 $-1 #
coedge $-1 $399 $400 $167 $270 reversed $384 $-1 #
edge $-1 $277 -69.26358836634418 $401 69.26358836634418 $269 $402 forward 7 unknown #
coedge $-1 $263 $403 $168 $272 reversed $164 $-1 #
edge $-1 $404 -69.26358836634418 $276 69.26358836634418 $271 $405 forward 7 unknown #
coedge $-1 $266 $169 $403 $406 forward $275 $-1 #
coedge $-1 $169 $266 $399 $407 reversed $275 $-1 #
loop $-1 $-1 $273 $383 #
vertex $-1 $170 $408 #
vertex $-1 $170 $409 #
straight-curve $-1 69.26358836634418 0 6.7003900330137363 0 1 0 I I #
face $-1 $410 $291 $40 $-1 $411 reversed single #
loop $-1 $-1 $412 $171 #
plane-surface $-1 -74.593726450884645 -17.212460384791495 0 1 0 0 0 0 -1 forward_v I I I I #
coedge $-1 $413 $414 $415 $416 forward $172 $-1 #
coedge $-1 $417 $174 $413 $418 forward $109 $-1 #
coedge $-1 $174 $417 $289 $419 forward $109 $-1 #
edge $-1 $292 15.712460384791495 $420 18.712460384791495 $174 $421 forward 7 unknown #
coedge $-1 $176 $175 $422 $423 forward $69 $-1 #
coedge $-1 $424 $425 $175 $288 forward $426 $-1 #
edge $-1 $427 -18.712460384791495 $293 -15.712460384791495 $287 $428 forward 7 unknown #
coedge $-1 $429 $177 $284 $419 reversed $291 $-1 #
coedge $-1 $177 $429 $424 $430 reversed $291 $-1 #
loop $-1 $-1 $177 $279 #
vertex $-1 $285 $431 #
vertex $-1 $430 $432 #
straight-curve $-1 -69.26358836634418 -15.712460384791495 0 0 0 1 I I #
face $-1 $433 $434 $41 $-1 $435 reversed single #
loop $-1 $-1 $436 $179 #
plane-surface $-1 71.928657408614413 -15.712460384791495 0 0 -1 0 0 0 -1 forward_v I I I I #
coedge $-1 $437 $182 $438 $439 forward $113 $-1 #
coedge $-1 $182 $437 $304 $440 forward $113 $-1 #
edge $-1 $306 -18.712460384791495 $441 -15.712460384791495 $182 $442 forward 7 unknown #
coedge $-1 $184 $183 $443 $444 forward $72 $-1 #
coedge $-1 $445 $446 $183 $303 forward $447 $-1 #
edge $-1 $448 15.712460384791495 $307 18.712460384791495 $302 $449 forward 7 unknown #
coedge $-1 $450 $185 $299 $440 reversed $180 $-1 #
coedge $-1 $185 $450 $445 $451 reversed $180 $-1 #
vertex $-1 $300 $452 #
vertex $-1 $451 $453 #
straight-curve $-1 69.26358836634418 -18.712460384791495 0 0 0 1 I I #
face $-1 $-1 $454 $42 $-1 $455 reversed single #
loop $-1 $-1 $193 $187 #
plane-surface $-1 0 0 6.7003900330137363 0 0 1 1 0 0 forward_v I I I I #
coedge $-1 $456 $457 $458 $459 reversed $188 $-1 #
coedge $-1 $460 $190 $192 $319 forward $117 $-1 #
coedge $-1 $190 $460 $456 $461 forward $117 $-1 #
coedge $-1 $458 $193 $190 $316 forward $310 $-1 #
edge $-1 $322 -18.924164254279685 $462 18.495449875621983 $315 $463 forward 7 unknown #
coedge $-1 $464 $465 $191 $318 forward $454 $-1 #
edge $-1 $466 -50.753059681253291 $321 -47.094336726372831 $317 $467 forward 7 unknown #
edge $-1 $322 -5.5768196895594295 $466 -1.4162124599810759e-014 $192 $468 forward 7 unknown #
coedge $-1 $193 $458 $464 $469 forward $310 $-1 #
vertex $-1 $194 $470 #
vertex $-1 $194 $471 #
straight-curve $-1 19.138521443608536 -59.997623306029958 6.7003900330137327 0 1 0 I I #
coedge $-1 $324 $324 $-1 $472 reversed $197 $-1 #
edge $-1 $473 0 $473 6.2831853071796004 $198 $474 forward 7 unknown #
vertex $-1 $201 $475 #
ellipse-curve $-1 -10.797169860312792 -27.008800846714799 4.8710285555735107 0 -0.6560590369687036 0.75470957328743171 1 0 0 1 I I #
coedge $-1 $328 $328 $-1 $476 reversed $204 $-1 #
edge $-1 $477 0 $477 6.2831853071796004 $205 $478 forward 7 unknown #
vertex $-1 $208 $479 #
ellipse-curve $-1 0.4287143786577019 -27.008800846714799 4.8710285555735107 0 -0.6560590369687036 0.75470957328743171 1 0 0 1 I I #
coedge $-1 $332 $332 $-1 $480 reversed $211 $-1 #
edge $-1 $481 0 $481 6.2831853071796004 $212 $482 forward 7 unknown #
vertex $-1 $215 $483 #
ellipse-curve $-1 11.65459861762821 -27.008800846714799 4.8710285555735107 0 -0.6560590369687036 0.75470957328743171 1 0 0 1 I I #
face $-1 $-1 $348 $46 $-1 $484 forward single #
loop $-1 $-1 $485 $216 #
plane-surface $-1 0 29.113240450818967 0 0 -1 0 0 0 -1 forward_v I I I I #
coedge $-1 $486 $487 $488 $489 reversed $217 $-1 #
coedge $-1 $490 $219 $221 $346 forward $136 $-1 #
coedge $-1 $219 $490 $486 $491 forward $136 $-1 #
coedge $-1 $488 $222 $219 $343 forward $348 $-1 #
edge $-1 $350 -35.361976313472546 $492 -21.780971623189792 $342 $493 forward 7 unknown #
coedge $-1 $494 $495 $220 $345 forward $337 $-1 #
edge $-1 $496 -70.366867450240932 $349 -67.231689775460922 $344 $497 forward 7 unknown #
edge $-1 $350 53.244634324859078 $496 58.226480901637913 $221 $498 forward 7 unknown #
coedge $-1 $222 $488 $494 $499 forward $348 $-1 #
loop $-1 $-1 $488 $336 #
vertex $-1 $345 $500 #
vertex $-1 $223 $501 #
straight-curve $-1 -63.933450281803715 35.520372225854764 6.7003900330137327 0 -1 0 I I #
coedge $-1 $352 $352 $-1 $502 reversed $226 $-1 #
edge $-1 $503 0 $503 6.2831853071796004 $227 $504 forward 7 unknown #
vertex $-1 $230 $505 #
ellipse-curve $-1 -60.053163227437217 27.177429492710971 5.1328011956237196 0 0.62932039886446345 0.77714595512881146 0.5 0 0 1 I I #
coedge $-1 $356 $356 $-1 $506 reversed $233 $-1 #
edge $-1 $507 0 $507 6.2831853071796004 $234 $508 forward 7 unknown #
vertex $-1 $237 $509 #
ellipse-curve $-1 -54.232732645887467 27.177429492710971 5.1328011956237196 0 0.62932039886446345 0.77714595512881146 0.5 0 0 1 I I #
face $-1 $-1 $510 $49 $-1 $511 reversed single #
loop $-1 $-1 $244 $238 #
plane-surface $-1 0 0 6.7003900330137363 0 0 1 1 0 0 forward_v I I I I #
coedge $-1 $512 $513 $514 $515 reversed $239 $-1 #
coedge $-1 $516 $241 $243 $370 forward $150 $-1 #
coedge $-1 $241 $516 $512 $517 forward $150 $-1 #
coedge $-1 $514 $244 $241 $367 forward $361 $-1 #
edge $-1 $373 -3.3952511725706858 $518 10.185753517712062 $366 $519 forward 7 unknown #
coedge $-1 $520 $521 $242 $369 forward $510 $-1 #
edge $-1 $522 -70.366867450240932 $372 -67.231689775460922 $368 $523 forward 7 unknown #
edge $-1 $373 53.244634324859078 $522 58.226480901637913 $243 $524 forward 7 unknown #
coedge $-1 $244 $514 $520 $525 forward $361 $-1 #
vertex $-1 $369 $526 #
vertex $-1 $245 $527 #
straight-curve $-1 2.6645352591003757e-015 35.520372225854764 6.7003900330137327 0 -1 0 I I #
coedge $-1 $375 $375 $-1 $528 reversed $248 $-1 #
edge $-1 $529 0 $529 6.2831853071796004 $249 $530 forward 7 unknown #
vertex $-1 $252 $531 #
ellipse-curve $-1 3.8802870543665051 27.177429492710971 5.1328011956237196 0 0.62932039886446345 0.77714595512881146 0.5 0 0 1 I I #
coedge $-1 $379 $379 $-1 $532 reversed $255 $-1 #
edge $-1 $533 0 $533 6.2831853071796004 $256 $534 forward 7 unknown #
vertex $-1 $259 $535 #
ellipse-curve $-1 9.7007176359162486 27.177429492710971 5.1328011956237196 0 0.62932039886446345 0.77714595512881146 0.5 0 0 1 I I #
face $-1 $-1 $275 $39 $-1 $536 reversed single #
loop $-1 $-1 $399 $260 #
plane-surface $-1 0 29.113240450818967 0 0 -1 0 0 0 -1 forward_v I I I I #
coedge $-1 $537 $397 $400 $538 forward $261 $-1 #
coedge $-1 $403 $263 $264 $391 reversed $164 $-1 #
coedge $-1 $397 $537 $263 $389 reversed $261 $-1 #
edge $-1 $404 -6.7003900330137363 $539 6.7003900330137363 $388 $540 forward 7 unknown #
coedge $-1 $265 $264 $537 $541 forward $105 $-1 #
edge $-1 $395 -69.26358836634418 $539 69.26358836634418 $387 $542 forward 7 unknown #
coedge $-1 $400 $399 $265 $393 reversed $384 $-1 #
edge $-1 $543 -69.26358836634418 $394 69.26358836634418 $392 $544 forward 7 unknown #
vertex $-1 $267 $545 #
vertex $-1 $406 $546 #
straight-curve $-1 69.26358836634418 0 -6.7003900330137363 0 -1 0 I I #
coedge $-1 $386 $388 $268 $398 reversed $261 $-1 #
edge $-1 $401 -29.113240450818967 $404 29.113240450818967 $397 $547 forward 7 unknown #
coedge $-1 $392 $269 $274 $407 forward $384 $-1 #
coedge $-1 $269 $392 $386 $538 reversed $384 $-1 #
vertex $-1 $270 $548 #
straight-curve $-1 0 29.113240450818967 6.7003900330137363 -1 0 0 I I #
coedge $-1 $271 $387 $273 $406 reversed $164 $-1 #
vertex $-1 $398 $549 #
straight-curve $-1 0 -29.113240450818967 6.7003900330137363 1 0 0 I I #
edge $-1 $276 -6.7003900330137363 $395 6.7003900330137363 $273 $550 forward 7 unknown #
edge $-1 $277 -6.7003900330137363 $394 6.7003900330137363 $274 $551 forward 7 unknown #
point $-1 69.26358836634418 -29.113240450818967 6.7003900330137363 #
point $-1 69.26358836634418 29.113240450818967 6.7003900330137363 #
face $-1 $-1 $426 $40 $-1 $552 forward single #
plane-surface $-1 -71.928657408614413 -15.712460384791495 0 0 -1 0 0 0 -1 forward_v I I I I #
coedge $-1 $553 $554 $429 $555 forward $280 $-1 #
coedge $-1 $422 $282 $283 $418 reversed $172 $-1 #
coedge $-1 $282 $422 $425 $556 reversed $172 $-1 #
coedge $-1 $554 $553 $282 $416 reversed $280 $-1 #
edge $-1 $557 -6.7003900330137363 $558 6.7003900330137363 $415 $559 forward 7 unknown #
coedge $-1 $284 $283 $553 $560 forward $109 $-1 #
edge $-1 $420 -2.6650690422702326 $558 2.6650690422702326 $413 $561 forward 7 unknown #
edge $-1 $562 -2.6650690422702326 $292 2.6650690422702326 $289 $563 forward 7 unknown #
vertex $-1 $418 $564 #
straight-curve $-1 -69.26358836634418 0 -6.7003900330137363 0 -1 0 I I #
coedge $-1 $414 $413 $286 $423 reversed $172 $-1 #
edge $-1 $427 -6.7003900330137363 $420 6.7003900330137363 $422 $565 forward 7 unknown #
coedge $-1 $566 $287 $290 $430 forward $426 $-1 #
coedge $-1 $287 $566 $414 $556 forward $426 $-1 #
loop $-1 $-1 $287 $410 #
vertex $-1 $288 $567 #
straight-curve $-1 -69.26358836634418 0 6.7003900330137363 0 1 0 I I #
coedge $-1 $290 $289 $412 $555 reversed $291 $-1 #
edge $-1 $293 -2.6650690422702326 $568 2.6650690422702326 $290 $569 forward 7 unknown #
point $-1 -69.26358836634418 -15.712460384791495 -6.7003900330137363 #
point $-1 -69.26358836634418 -15.712460384791495 6.7003900330137363 #
face $-1 $-1 $447 $41 $-1 $570 forward single #
loop $-1 $-1 $571 $295 #
plane-surface $-1 74.593726450884645 -17.212460384791495 0 -1 0 0 0 0 1 forward_v I I I I #
coedge $-1 $438 $572 $573 $574 forward $296 $-1 #
coedge $-1 $299 $298 $575 $576 forward $113 $-1 #
coedge $-1 $443 $436 $298 $439 reversed $296 $-1 #
edge $-1 $441 -2.6650690422702326 $577 2.6650690422702326 $438 $578 forward 7 unknown #
edge $-1 $579 -2.6650690422702326 $306 2.6650690422702326 $304 $580 forward 7 unknown #
vertex $-1 $439 $581 #
straight-curve $-1 69.26358836634418 0 -6.7003900330137363 0 1 0 I I #
coedge $-1 $572 $438 $301 $444 reversed $296 $-1 #
edge $-1 $448 -6.7003900330137363 $441 6.7003900330137363 $443 $582 forward 7 unknown #
coedge $-1 $583 $302 $305 $451 forward $447 $-1 #
coedge $-1 $302 $583 $572 $584 forward $447 $-1 #
loop $-1 $-1 $302 $433 #
vertex $-1 $303 $585 #
straight-curve $-1 69.26358836634418 0 6.7003900330137363 0 -1 0 I I #
coedge $-1 $305 $304 $571 $586 reversed $180 $-1 #
edge $-1 $307 -2.6650690422702326 $587 2.6650690422702326 $305 $588 forward 7 unknown #
point $-1 69.26358836634418 -18.712460384791495 -6.7003900330137363 #
point $-1 69.26358836634418 -18.712460384791495 6.7003900330137363 #
loop $-1 $-1 $317 $309 #
plane-surface $-1 0 -29.113240450818967 0 0 1 0 0 0 1 forward_v I I I I #
coedge $-1 $457 $312 $314 $461 reversed $188 $-1 #
coedge $-1 $312 $456 $589 $590 reversed $188 $-1 #
coedge $-1 $320 $315 $312 $459 forward $310 $-1 #
edge $-1 $462 -35.093262063419324 $591 -30.88438285521099 $458 $592 forward 7 unknown #
coedge $-1 $314 $313 $465 $593 reversed $117 $-1 #
edge $-1 $594 1.4162124599810759e-014 $462 5.5768196895594295 $456 $595 forward 7 unknown #
vertex $-1 $316 $596 #
straight-curve $-1 0.21435718932885095 -24.904361242610634 6.7003900330137371 -1 0 0 I I #
coedge $-1 $589 $317 $320 $469 reversed $454 $-1 #
coedge $-1 $317 $589 $460 $593 forward $454 $-1 #
vertex $-1 $318 $597 #
straight-curve $-1 19.138521443608536 -29.113240450818964 53.79472675938657 0 0 1 I I #
straight-curve $-1 19.138521443608536 -29.113240450818978 3.0416670781332726 0 -0.75470957328743171 -0.6560590369687036 I I #
edge $-1 $591 -18.281092686293132 $321 19.138521443608536 $464 $598 forward 7 unknown #
point $-1 19.138521443608536 -29.113240450818967 6.7003900330137363 #
point $-1 19.138521443608536 -24.904361242610634 6.7003900330137363 #
edge $-1 $599 1 $599 0 $324 $-1 forward 7 unknown #
vertex $-1 $325 $600 #
ellipse-curve $-1 -10.797169860312792 -25.550682757592103 3.1936556076615528 0 -0.6560590369687036 0.75470957328743171 1 0 0 1 I I #
point $-1 -9.7971698603127919 -27.008800846714781 4.8710285555734911 #
edge $-1 $601 1 $601 0 $328 $-1 forward 7 unknown #
vertex $-1 $329 $602 #
ellipse-curve $-1 0.4287143786577019 -25.550682757592103 3.1936556076615528 0 -0.6560590369687036 0.75470957328743171 1 0 0 1 I I #
point $-1 1.4287143786577019 -27.008800846714781 4.8710285555734911 #
edge $-1 $603 1 $603 0 $332 $-1 forward 7 unknown #
vertex $-1 $333 $604 #
ellipse-curve $-1 11.65459861762821 -25.550682757592103 3.1936556076615528 0 -0.6560590369687036 0.75470957328743171 1 0 0 1 I I #
point $-1 12.65459861762821 -27.008800846714781 4.8710285555734911 #
plane-surface $-1 0 0 6.7003900330137363 0 0 1 1 0 0 forward_v I I I I #
coedge $-1 $495 $494 $487 $605 forward $337 $-1 #
coedge $-1 $487 $339 $341 $491 reversed $217 $-1 #
coedge $-1 $339 $486 $485 $605 reversed $217 $-1 #
coedge $-1 $347 $342 $339 $489 forward $348 $-1 #
edge $-1 $492 -10.278753691251787 $606 -6.407131775035797 $488 $607 forward 7 unknown #
coedge $-1 $341 $340 $495 $608 reversed $136 $-1 #
edge $-1 $609 -58.226480901637913 $492 -53.244634324859078 $486 $610 forward 7 unknown #
vertex $-1 $343 $611 #
straight-curve $-1 -28.571473968331169 25.241618534602967 6.7003900330137363 1 0 0 I I #
coedge $-1 $485 $344 $347 $499 reversed $337 $-1 #
coedge $-1 $344 $485 $490 $608 forward $337 $-1 #
vertex $-1 $345 $612 #
straight-curve $-1 -63.933450281803715 29.113240450818967 73.932079808474654 0 0 1 I I #
straight-curve $-1 -63.933450281803715 -16.137233663273932 40.208324543726548 0 0.77714595512881146 -0.62932039886446345 I I #
edge $-1 $606 50.352445591520961 $349 63.933450281803715 $494 $613 forward 7 unknown #
point $-1 -63.933450281803715 29.113240450818967 6.7003900330137363 #
point $-1 -63.933450281803715 25.241618534602978 6.7003900330137327 #
edge $-1 $614 1 $614 0 $352 $-1 forward 7 unknown #
vertex $-1 $353 $615 #
ellipse-curve $-1 -60.053163227437217 26.522507601745112 4.324040031345862 0 0.62932039886446345 0.77714595512881146 0.5 0 0 1 I I #
point $-1 -59.553163227437217 27.177429492710967 5.1328011956237178 #
edge $-1 $616 1 $616 0 $356 $-1 forward 7 unknown #
vertex $-1 $357 $617 #
ellipse-curve $-1 -54.232732645887467 26.522507601745112 4.324040031345862 0 0.62932039886446345 0.77714595512881146 0.5 0 0 1 I I #
point $-1 -53.732732645887467 27.177429492710967 5.1328011956237178 #
loop $-1 $-1 $368 $360 #
plane-surface $-1 0 29.113240450818967 0 0 -1 0 0 0 -1 forward_v I I I I #
coedge $-1 $513 $363 $365 $517 reversed $239 $-1 #
coedge $-1 $363 $512 $618 $619 reversed $239 $-1 #
coedge $-1 $371 $366 $363 $515 forward $361 $-1 #
edge $-1 $518 -10.278753691251787 $620 -6.407131775035797 $514 $621 forward 7 unknown #
coedge $-1 $365 $364 $521 $622 reversed $150 $-1 #
edge $-1 $623 -58.226480901637913 $518 -53.244634324859078 $512 $624 forward 7 unknown #
vertex $-1 $367 $625 #
straight-curve $-1 3.3952511725706884 25.241618534602967 6.7003900330137363 1 0 0 I I #
coedge $-1 $618 $368 $371 $525 reversed $510 $-1 #
coedge $-1 $368 $618 $516 $622 forward $510 $-1 #
vertex $-1 $369 $626 #
straight-curve $-1 2.6645352591003757e-015 29.113240450818967 73.932079808474654 0 0 1 I I #
straight-curve $-1 2.6645352591003757e-015 -16.137233663273932 40.208324543726548 0 0.77714595512881146 -0.62932039886446345 I I #
edge $-1 $620 -13.58100469028275 $372 -2.6645352591003757e-015 $520 $627 forward 7 unknown #
point $-1 2.6645352591003757e-015 29.113240450818967 6.7003900330137363 #
point $-1 2.6645352591003757e-015 25.241618534602978 6.7003900330137327 #
edge $-1 $628 1 $628 0 $375 $-1 forward 7 unknown #
vertex $-1 $376 $629 #
ellipse-curve $-1 3.8802870543665051 26.522507601745112 4.324040031345862 0 0.62932039886446345 0.77714595512881146 0.5 0 0 1 I I #
point $-1 4.3802870543665051 27.177429492710967 5.1328011956237178 #
edge $-1 $630 1 $630 0 $379 $-1 forward 7 unknown #
vertex $-1 $380 $631 #
ellipse-curve $-1 9.7007176359162486 26.522507601745112 4.324040031345862 0 0.62932039886446345 0.77714595512881146 0.5 0 0 1 I I #
point $-1 10.200717635916249 27.177429492710967 5.1328011956237178 #
plane-surface $-1 69.26358836634418 0 0 -1 0 0 0 0 1 forward_v I I I I #
coedge $-1 $388 $386 $390 $541 reversed $261 $-1 #
edge $-1 $401 -6.7003900330137363 $543 6.7003900330137363 $400 $632 forward 7 unknown #
vertex $-1 $541 $633 #
straight-curve $-1 -69.26358836634418 -29.113240450818967 0 0 0 -1 I I #
edge $-1 $539 -29.113240450818967 $543 29.113240450818967 $537 $634 forward 7 unknown #
straight-curve $-1 0 -29.113240450818967 -6.7003900330137363 -1 0 0 I I #
vertex $-1 $393 $635 #
straight-curve $-1 0 29.113240450818967 -6.7003900330137363 1 0 0 I I #
point $-1 69.26358836634418 29.113240450818967 -6.7003900330137363 #
point $-1 69.26358836634418 -29.113240450818967 -6.7003900330137363 #
straight-curve $-1 -69.26358836634418 0 6.7003900330137363 0 -1 0 I I #
point $-1 -69.26358836634418 29.113240450818967 6.7003900330137363 #
point $-1 -69.26358836634418 -29.113240450818967 6.7003900330137363 #
straight-curve $-1 69.26358836634418 -29.113240450818967 0 0 0 -1 I I #
straight-curve $-1 69.26358836634418 29.113240450818967 0 0 0 -1 I I #
plane-surface $-1 0 0 6.7003900330137363 0 0 1 1 0 0 forward_v I I I I #
coedge $-1 $415 $412 $417 $560 reversed $280 $-1 #
coedge $-1 $412 $415 $566 $636 reversed $280 $-1 #
edge $-1 $568 -6.7003900330137363 $562 6.7003900330137363 $429 $637 forward 7 unknown #
edge $-1 $557 -2.6650690422702326 $427 2.6650690422702326 $414 $638 forward 7 unknown #
vertex $-1 $636 $639 #
vertex $-1 $560 $640 #
straight-curve $-1 -74.593726450884645 -18.712460384791495 0 0 0 -1 I I #
edge $-1 $558 -1.5 $562 1.5 $553 $641 forward 7 unknown #
straight-curve $-1 -71.928657408614413 -18.712460384791495 -6.7003900330137363 -1 0 0 I I #
vertex $-1 $419 $642 #
straight-curve $-1 -71.928657408614413 -15.712460384791495 -6.7003900330137363 1 0 0 I I #
point $-1 -69.26358836634418 -18.712460384791495 -6.7003900330137363 #
straight-curve $-1 -69.26358836634418 -18.712460384791495 0 0 0 -1 I I #
coedge $-1 $425 $424 $554 $636 forward $426 $-1 #
point $-1 -69.26358836634418 -18.712460384791495 6.7003900330137363 #
vertex $-1 $430 $643 #
straight-curve $-1 -71.928657408614413 -15.712460384791495 6.7003900330137363 -1 0 0 I I #
plane-surface $-1 0 0 6.7003900330137363 0 0 1 1 0 0 forward_v I I I I #
coedge $-1 $575 $644 $450 $586 forward $434 $-1 #
coedge $-1 $436 $443 $446 $584 reversed $296 $-1 #
coedge $-1 $644 $575 $436 $574 reversed $434 $-1 #
edge $-1 $645 -6.7003900330137363 $577 6.7003900330137363 $573 $646 forward 7 unknown #
coedge $-1 $573 $571 $437 $576 reversed $434 $-1 #
edge $-1 $577 -1.5 $579 1.5 $575 $647 forward 7 unknown #
vertex $-1 $576 $648 #
straight-curve $-1 71.928657408614413 -15.712460384791495 -6.7003900330137363 1 0 0 I I #
vertex $-1 $586 $649 #
straight-curve $-1 71.928657408614413 -18.712460384791495 -6.7003900330137363 -1 0 0 I I #
point $-1 69.26358836634418 -15.712460384791495 -6.7003900330137363 #
straight-curve $-1 69.26358836634418 -15.712460384791495 0 0 0 -1 I I #
coedge $-1 $446 $445 $644 $650 forward $447 $-1 #
edge $-1 $645 -2.6650690422702326 $448 2.6650690422702326 $572 $651 forward 7 unknown #
point $-1 69.26358836634418 -15.712460384791495 6.7003900330137363 #
edge $-1 $587 -6.7003900330137363 $579 6.7003900330137363 $571 $652 forward 7 unknown #
vertex $-1 $650 $653 #
straight-curve $-1 71.928657408614413 -18.712460384791495 6.7003900330137363 1 0 0 I I #
coedge $-1 $465 $464 $457 $590 forward $454 $-1 #
edge $-1 $591 47.094336726372831 $594 50.753059681253291 $589 $654 forward 7 unknown #
vertex $-1 $469 $655 #
straight-curve $-1 -18.281092686293132 -59.997623306029958 6.7003900330137327 0 -1 0 I I #
edge $-1 $594 -18.495449875621983 $466 18.924164254279685 $465 $656 forward 7 unknown #
vertex $-1 $593 $657 #
straight-curve $-1 -18.281092686293132 -29.113240450818978 3.0416670781332726 0 0.75470957328743171 0.6560590369687036 I I #
point $-1 -18.281092686293132 -24.904361242610634 6.7003900330137363 #
point $-1 19.138521443608536 -29.113240450818967 3.041667078133282 #
straight-curve $-1 0 -29.113240450818967 6.7003900330137363 1 0 0 I I #
vertex $-1 $472 $658 #
point $-1 -9.7971698603127919 -25.550682757592103 3.1936556076615528 #
vertex $-1 $476 $659 #
point $-1 1.4287143786577019 -25.550682757592103 3.1936556076615528 #
vertex $-1 $480 $660 #
point $-1 12.65459861762821 -25.550682757592103 3.1936556076615528 #
edge $-1 $606 67.231689775460922 $609 70.366867450240932 $485 $661 forward 7 unknown #
vertex $-1 $499 $662 #
straight-curve $-1 -50.352445591520961 35.520372225854764 6.7003900330137327 0 1 0 I I #
edge $-1 $609 21.780971623189792 $496 35.361976313472546 $495 $663 forward 7 unknown #
vertex $-1 $608 $664 #
straight-curve $-1 -50.352445591520961 -16.137233663273932 40.208324543726548 0 -0.77714595512881146 0.62932039886446345 I I #
point $-1 -50.352445591520961 25.241618534602978 6.7003900330137327 #
point $-1 -63.933450281803715 29.113240450818964 3.5652123582337154 #
straight-curve $-1 0 29.113240450818967 6.7003900330137363 -1 0 0 I I #
vertex $-1 $502 $665 #
point $-1 -59.553163227437217 26.522507601745112 4.324040031345862 #
vertex $-1 $506 $666 #
point $-1 -53.732732645887467 26.522507601745112 4.324040031345862 #
coedge $-1 $521 $520 $513 $619 forward $510 $-1 #
edge $-1 $620 67.231689775460922 $623 70.366867450240932 $618 $667 forward 7 unknown #
vertex $-1 $525 $668 #
straight-curve $-1 13.58100469028275 35.520372225854764 6.7003900330137327 0 1 0 I I #
edge $-1 $623 -10.185753517712062 $522 3.3952511725706858 $521 $669 forward 7 unknown #
vertex $-1 $622 $670 #
straight-curve $-1 13.58100469028275 -16.137233663273932 40.208324543726548 0 -0.77714595512881146 0.62932039886446345 I I #
point $-1 13.58100469028275 25.241618534602978 6.7003900330137327 #
point $-1 2.6645352591003757e-015 29.113240450818964 3.5652123582337154 #
straight-curve $-1 0 29.113240450818967 6.7003900330137363 -1 0 0 I I #
vertex $-1 $528 $671 #
point $-1 4.3802870543665051 26.522507601745112 4.324040031345862 #
vertex $-1 $532 $672 #
point $-1 10.200717635916249 26.522507601745112 4.324040031345862 #
straight-curve $-1 -69.26358836634418 29.113240450818967 0 0 0 -1 I I #
point $-1 -69.26358836634418 -29.113240450818967 -6.7003900330137363 #
straight-curve $-1 -69.26358836634418 0 -6.7003900330137363 0 1 0 I I #
point $-1 -69.26358836634418 29.113240450818967 -6.7003900330137363 #
edge $-1 $568 -1.5 $557 1.5 $554 $673 forward 7 unknown #
straight-curve $-1 -74.593726450884645 -15.712460384791495 0 0 0 -1 I I #
straight-curve $-1 -71.928657408614413 -18.712460384791495 6.7003900330137363 1 0 0 I I #
point $-1 -74.593726450884645 -18.712460384791495 6.7003900330137363 #
point $-1 -74.593726450884645 -18.712460384791495 -6.7003900330137363 #
straight-curve $-1 -74.593726450884645 -17.212460384791495 -6.7003900330137363 0 1 0 I I #
point $-1 -74.593726450884645 -15.712460384791495 -6.7003900330137363 #
point $-1 -74.593726450884645 -15.712460384791495 6.7003900330137363 #
coedge $-1 $571 $573 $583 $650 reversed $434 $-1 #
vertex $-1 $650 $674 #
straight-curve $-1 74.593726450884645 -15.712460384791495 0 0 0 -1 I I #
straight-curve $-1 74.593726450884645 -17.212460384791495 -6.7003900330137363 0 -1 0 I I #
point $-1 74.593726450884645 -15.712460384791495 -6.7003900330137363 #
point $-1 74.593726450884645 -18.712460384791495 -6.7003900330137363 #
edge $-1 $587 -1.5 $645 1.5 $644 $675 forward 7 unknown #
straight-curve $-1 71.928657408614413 -15.712460384791495 6.7003900330137363 -1 0 0 I I #
straight-curve $-1 74.593726450884645 -18.712460384791495 0 0 0 -1 I I #
point $-1 74.593726450884645 -18.712460384791495 6.7003900330137363 #
straight-curve $-1 -18.281092686293132 -29.113240450818964 53.79472675938657 0 0 -1 I I #
point $-1 -18.281092686293132 -29.113240450818967 6.7003900330137363 #
straight-curve $-1 0.21435718932885095 -29.113240450818967 3.0416670781332802 1 0 0 I I #
point $-1 -18.281092686293132 -29.113240450818967 3.041667078133282 #
point $-1 -10.797169860312792 -24.894623720623397 2.4389460343741209 #
point $-1 0.4287143786577019 -24.894623720623397 2.4389460343741209 #
point $-1 11.65459861762821 -24.894623720623397 2.4389460343741209 #
straight-curve $-1 -50.352445591520961 29.113240450818967 73.932079808474654 0 0 -1 I I #
point $-1 -50.352445591520961 29.113240450818967 6.7003900330137363 #
straight-curve $-1 -28.571473968331169 29.113240450818967 3.5652123582337119 -1 0 0 I I #
point $-1 -50.352445591520961 29.113240450818964 3.5652123582337154 #
point $-1 -60.053163227437217 26.207847402312879 3.9354670537814562 #
point $-1 -54.232732645887467 26.207847402312879 3.9354670537814562 #
straight-curve $-1 13.58100469028275 29.113240450818967 73.932079808474654 0 0 -1 I I #
point $-1 13.58100469028275 29.113240450818967 6.7003900330137363 #
straight-curve $-1 3.3952511725706884 29.113240450818967 3.5652123582337119 -1 0 0 I I #
point $-1 13.58100469028275 29.113240450818964 3.5652123582337154 #
point $-1 3.8802870543665051 26.207847402312879 3.9354670537814562 #
point $-1 9.7007176359162486 26.207847402312879 3.9354670537814562 #
straight-curve $-1 -74.593726450884645 -17.212460384791495 6.7003900330137363 0 -1 0 I I #
point $-1 74.593726450884645 -15.712460384791495 6.7003900330137363 #
straight-curve $-1 74.593726450884645 -17.212460384791495 6.7003900330137363 0 1 0 I I #
End-of-ACIS-data 