500 0 13 0           
7 Unknown 11 ACIS 5.0 NT 24 Fri Mar 26 15:41:29 1999 
-1 9.9999999999999995e-007 1e-010 
body $-1 $13 $-1 $14 #
body $-1 $15 $-1 $16 #
body $-1 $17 $-1 $18 #
body $-1 $19 $-1 $20 #
body $-1 $21 $-1 $22 #
body $-1 $23 $-1 $24 #
body $-1 $25 $-1 $26 #
body $-1 $27 $-1 $28 #
body $-1 $29 $-1 $30 #
body $-1 $31 $-1 $32 #
body $-1 $33 $-1 $34 #
body $-1 $35 $-1 $36 #
body $-1 $37 $-1 $38 #
lump $-1 $-1 $39 $0 #
transform $-1 1 0 0 0 1 0 0 0 1 52.734763634144109 23.812641871613504 8.6718073568346963 1 rotate no_reflect no_shear #
lump $-1 $-1 $40 $1 #
transform $-1 1 0 0 0 1 0 0 0 1 52.734763634144109 23.812641871613504 8.6718073568346963 1 rotate no_reflect no_shear #
lump $-1 $-1 $41 $2 #
transform $-1 1 0 0 0 1 0 0 0 1 52.734763634144109 23.812641871613504 8.6718073568346963 1 rotate no_reflect no_shear #
lump $-1 $-1 $42 $3 #
transform $-1 1 0 0 0 1 0 0 0 1 52.734763634144109 23.812641871613504 8.6718073568346963 1 rotate no_reflect no_shear #
lump $-1 $-1 $43 $4 #
transform $-1 1 0 0 0 1 0 0 0 1 52.734763634144109 23.812641871613504 8.6718073568346963 1 rotate no_reflect no_shear #
lump $-1 $-1 $44 $5 #
transform $-1 1 0 0 0 1 0 0 0 1 52.734763634144109 23.812641871613504 8.6718073568346963 1 rotate no_reflect no_shear #
lump $-1 $-1 $45 $6 #
transform $-1 1 0 0 0 1 0 0 0 1 52.734763634144109 23.812641871613504 8.6718073568346963 1 rotate no_reflect no_shear #
lump $-1 $-1 $46 $7 #
transform $-1 1 0 0 0 1 0 0 0 1 52.734763634144109 23.812641871613504 8.6718073568346963 1 rotate no_reflect no_shear #
lump $-1 $-1 $47 $8 #
transform $-1 1 0 0 0 1 0 0 0 1 52.734763634144109 23.812641871613504 8.6718073568346963 1 rotate no_reflect no_shear #
lump $-1 $-1 $48 $9 #
transform $-1 1 0 0 0 1 0 0 0 1 52.734763634144109 23.812641871613504 8.6718073568346963 1 rotate no_reflect no_shear #
lump $-1 $-1 $49 $10 #
transform $-1 1 0 0 0 1 0 0 0 1 52.734763634144109 23.812641871613504 8.6718073568346963 1 rotate no_reflect no_shear #
lump $-1 $-1 $50 $11 #
transform $-1 1 0 0 0 1 0 0 0 1 52.734763634144109 23.812641871613504 8.6718073568346963 1 rotate no_reflect no_shear #
lump $-1 $-1 $51 $12 #
transform $-1 1 0 0 0 1 0 0 0 1 52.734763634144109 23.812641871613504 8.6718073568346963 1 rotate no_reflect no_shear #
shell $-1 $-1 $-1 $52 $-1 $13 #
shell $-1 $-1 $-1 $53 $-1 $15 #
shell $-1 $-1 $-1 $54 $-1 $17 #
shell $-1 $-1 $-1 $55 $-1 $19 #
shell $-1 $-1 $-1 $56 $-1 $21 #
shell $-1 $-1 $-1 $57 $-1 $23 #
shell $-1 $-1 $-1 $58 $-1 $25 #
shell $-1 $-1 $-1 $59 $-1 $27 #
shell $-1 $-1 $-1 $60 $-1 $29 #
shell $-1 $-1 $-1 $61 $-1 $31 #
shell $-1 $-1 $-1 $62 $-1 $33 #
shell $-1 $-1 $-1 $63 $-1 $35 #
shell $-1 $-1 $-1 $64 $-1 $37 #
face $-1 $65 $66 $39 $-1 $67 forward single #
face $-1 $68 $69 $40 $-1 $70 reversed single #
face $-1 $71 $72 $41 $-1 $73 reversed single #
face $-1 $74 $75 $42 $-1 $76 forward single #
face $-1 $77 $78 $43 $-1 $79 forward single #
face $-1 $80 $81 $44 $-1 $82 forward single #
face $-1 $83 $84 $45 $-1 $85 reversed single #
face $-1 $86 $87 $46 $-1 $88 forward single #
face $-1 $89 $90 $47 $-1 $91 forward single #
face $-1 $92 $93 $48 $-1 $94 forward single #
face $-1 $95 $96 $49 $-1 $97 reversed single #
face $-1 $98 $99 $50 $-1 $100 forward single #
face $-1 $101 $102 $51 $-1 $103 forward single #
face $-1 $104 $105 $39 $-1 $106 reversed single #
loop $-1 $-1 $107 $52 #
plane-surface $-1 0 0 8.6718073568346963 0 0 1 1 0 0 forward_v I I I I #
face $-1 $108 $109 $40 $-1 $110 reversed single #
loop $-1 $-1 $111 $53 #
plane-surface $-1 0 -19.495687178661697 4.8583504969581792 0 0 1 1 0 0 forward_v I I I I #
face $-1 $112 $113 $41 $-1 $114 reversed single #
loop $-1 $-1 $115 $54 #
plane-surface $-1 -128.6031931900811 -8.4130668657829819 74.230121169437609 0 1 0 -0.71933980857756763 0 0.69465836192734942 forward_v I I I I #
face $-1 $116 $117 $42 $-1 $118 forward single #
loop $-1 $119 $120 $55 #
cone-surface $-1 -48.337786121652314 -6.9538849579664692 4.1657962548679066 0.71933980857756763 0 -0.69465836192734942 0.34732918096367471 0 0.35966990428878381 1 I I 0 1 0.5 forward I I I I #
face $-1 $121 $122 $43 $-1 $123 forward single #
loop $-1 $124 $125 $56 #
cone-surface $-1 -48.337786121652314 -4.7651120962416975 4.1657962548679066 0.71933980857756763 0 -0.69465836192734942 0.34732918096367471 0 0.35966990428878381 1 I I 0 1 0.5 forward I I I I #
face $-1 $126 $127 $44 $-1 $128 forward single #
loop $-1 $129 $130 $57 #
cone-surface $-1 -48.337786121652314 -2.5763392345169258 4.1657962548679066 0.71933980857756763 0 -0.69465836192734942 0.34732918096367471 0 0.35966990428878381 1 I I 0 1 0.5 forward I I I I #
face $-1 $131 $132 $45 $-1 $133 reversed single #
loop $-1 $-1 $134 $58 #
plane-surface $-1 -128.6031931900811 9.7510667126040342 74.230121169437609 0 1 0 -0.71933980857756763 0 0.69465836192734942 forward_v I I I I #
face $-1 $135 $136 $46 $-1 $137 forward single #
loop $-1 $138 $139 $59 #
cone-surface $-1 -48.337786121652314 11.210248620420547 4.1657962548679066 0.71933980857756763 0 -0.69465836192734942 0.34732918096367471 0 0.35966990428878381 1 I I 0 1 0.5 forward I I I I #
face $-1 $140 $141 $47 $-1 $142 forward single #
loop $-1 $143 $144 $60 #
cone-surface $-1 -48.337786121652314 13.399021482145319 4.1657962548679066 0.71933980857756763 0 -0.69465836192734942 0.34732918096367471 0 0.35966990428878381 1 I I 0 1 0.5 forward I I I I #
face $-1 $145 $146 $48 $-1 $147 forward single #
loop $-1 $148 $149 $61 #
cone-surface $-1 -48.337786121652314 15.58779434387009 4.1657962548679066 0.71933980857756763 0 -0.69465836192734942 0.34732918096367471 0 0.35966990428878381 1 I I 0 1 0.5 forward I I I I #
face $-1 $150 $151 $49 $-1 $152 reversed single #
loop $-1 $-1 $153 $62 #
plane-surface $-1 60.541010179146035 -7.481523661876456 153.74779509428285 0 -1 0 -0.74314483375859142 0 -0.66913059716165679 forward_v I I I I #
face $-1 $154 $155 $50 $-1 $156 forward single #
loop $-1 $157 $158 $63 #
cone-surface $-1 50.574517385853959 -12.979529964614622 6.3598994036332295 -0.74314483375859142 0 -0.66913059716165679 0.3345652985808284 0 -0.37157241687929571 1 I I 0 1 0.5 forward I I I I #
face $-1 $159 $160 $51 $-1 $161 forward single #
loop $-1 $162 $163 $64 #
cone-surface $-1 50.574517385853959 -9.6807261829717213 6.3598994036332295 -0.74314483375859142 0 -0.66913059716165679 0.3345652985808284 0 -0.37157241687929571 1 I I 0 1 0.5 forward I I I I #
face $-1 $164 $165 $39 $-1 $166 reversed single #
loop $-1 $-1 $167 $65 #
plane-surface $-1 0 0 -8.6718073568346963 0 0 1 1 0 0 forward_v I I I I #
coedge $-1 $168 $169 $170 $171 forward $66 $-1 #
face $-1 $172 $173 $40 $-1 $174 reversed single #
loop $-1 $-1 $175 $68 #
plane-surface $-1 0 -15.17873248570989 6.7650789268964377 0 -1 0 0 0 -1 forward_v I I I I #
coedge $-1 $176 $177 $178 $179 reversed $69 $-1 #
face $-1 $180 $181 $41 $-1 $182 reversed single #
loop $-1 $-1 $183 $71 #
plane-surface $-1 -52.734763634144102 -4.7651120962416975 0.9648321239966009 -0.71933980857756763 0 0.69465836192734942 0.69465836192734942 0 0.71933980857756763 forward_v I I I I #
coedge $-1 $184 $185 $186 $187 reversed $72 $-1 #
face $-1 $-1 $188 $42 $-1 $189 forward single #
loop $-1 $190 $191 $74 #
cone-surface $-1 -47.482243303724871 -6.9538849579664692 3.3396081788383274 0.71933980857756763 0 -0.69465836192734942 0.17366459048183736 0 0.17983495214439191 1 I I -0.70710678118654746 0.70710678118654746 0.25 forward I I I I #
loop $-1 $-1 $192 $55 #
coedge $-1 $120 $120 $193 $194 reversed $75 $-1 #
face $-1 $-1 $195 $43 $-1 $196 forward single #
loop $-1 $197 $198 $77 #
cone-surface $-1 -47.482243303724871 -4.7651120962416975 3.3396081788383274 0.71933980857756763 0 -0.69465836192734942 0.17366459048183736 0 0.17983495214439191 1 I I -0.70710678118654746 0.70710678118654746 0.25 forward I I I I #
loop $-1 $-1 $199 $56 #
coedge $-1 $125 $125 $200 $201 reversed $78 $-1 #
face $-1 $-1 $202 $44 $-1 $203 forward single #
loop $-1 $204 $205 $80 #
cone-surface $-1 -47.482243303724871 -2.5763392345169258 3.3396081788383274 0.71933980857756763 0 -0.69465836192734942 0.17366459048183736 0 0.17983495214439191 1 I I -0.70710678118654746 0.70710678118654746 0.25 forward I I I I #
loop $-1 $-1 $206 $57 #
coedge $-1 $130 $130 $207 $208 reversed $81 $-1 #
face $-1 $209 $210 $45 $-1 $211 reversed single #
loop $-1 $-1 $212 $83 #
plane-surface $-1 -52.734763634144102 13.399021482145319 0.9648321239966009 -0.71933980857756763 0 0.69465836192734942 0.69465836192734942 0 0.71933980857756763 forward_v I I I I #
coedge $-1 $213 $214 $215 $216 reversed $84 $-1 #
face $-1 $-1 $217 $46 $-1 $218 forward single #
loop $-1 $219 $220 $86 #
cone-surface $-1 -47.482243303724871 11.210248620420547 3.3396081788383274 0.71933980857756763 0 -0.69465836192734942 0.17366459048183736 0 0.17983495214439191 1 I I -0.70710678118654746 0.70710678118654746 0.25 forward I I I I #
loop $-1 $-1 $221 $59 #
coedge $-1 $139 $139 $222 $223 reversed $87 $-1 #
face $-1 $-1 $224 $47 $-1 $225 forward single #
loop $-1 $226 $227 $89 #
cone-surface $-1 -47.482243303724871 13.399021482145319 3.3396081788383274 0.71933980857756763 0 -0.69465836192734942 0.17366459048183736 0 0.17983495214439191 1 I I -0.70710678118654746 0.70710678118654746 0.25 forward I I I I #
loop $-1 $-1 $228 $60 #
coedge $-1 $144 $144 $229 $230 reversed $90 $-1 #
face $-1 $-1 $231 $48 $-1 $232 forward single #
loop $-1 $233 $234 $92 #
cone-surface $-1 -47.482243303724871 15.58779434387009 3.3396081788383274 0.71933980857756763 0 -0.69465836192734942 0.17366459048183736 0 0.17983495214439191 1 I I -0.70710678118654746 0.70710678118654746 0.25 forward I I I I #
loop $-1 $-1 $235 $61 #
coedge $-1 $149 $149 $236 $237 reversed $93 $-1 #
face $-1 $238 $239 $49 $-1 $240 forward single #
loop $-1 $-1 $241 $95 #
plane-surface $-1 -17.838124129243234 -11.330128073793173 83.174907330895508 0.74314483375859142 0 0.66913059716165679 0.66913059716165679 0 -0.74314483375859142 forward_v I I I I #
coedge $-1 $242 $243 $244 $245 reversed $96 $-1 #
face $-1 $-1 $246 $50 $-1 $247 forward single #
loop $-1 $248 $249 $98 #
cone-surface $-1 49.973483380927156 -12.979529964614622 5.8187259683055803 -0.74314483375859142 0 -0.66913059716165679 0.1672826492904142 0 -0.18578620843964785 1 I I -0.70710678118654746 0.70710678118654746 0.25 forward I I I I #
loop $-1 $-1 $250 $63 #
coedge $-1 $158 $158 $251 $252 reversed $99 $-1 #
face $-1 $-1 $253 $51 $-1 $254 forward single #
loop $-1 $255 $256 $101 #
cone-surface $-1 49.973483380927156 -9.6807261829717213 5.8187259683055803 -0.74314483375859142 0 -0.66913059716165679 0.1672826492904142 0 -0.18578620843964785 1 I I -0.70710678118654746 0.70710678118654746 0.25 forward I I I I #
loop $-1 $-1 $257 $64 #
coedge $-1 $163 $163 $258 $259 reversed $102 $-1 #
face $-1 $260 $261 $39 $-1 $262 reversed single #
loop $-1 $-1 $263 $104 #
plane-surface $-1 0 -23.812641871613504 0 0 1 0 0 0 1 forward_v I I I I #
coedge $-1 $264 $265 $266 $267 forward $105 $-1 #
coedge $-1 $268 $107 $269 $270 forward $66 $-1 #
coedge $-1 $107 $268 $271 $272 forward $66 $-1 #
coedge $-1 $273 $274 $107 $171 reversed $275 $-1 #
edge $-1 $276 -23.812641871613504 $277 23.812641871613504 $170 $278 forward 7 unknown #
face $-1 $279 $280 $40 $-1 $281 reversed single #
loop $-1 $-1 $282 $108 #
plane-surface $-1 -52.734763634144109 0 0 1 0 0 0 0 -1 forward_v I I I I #
coedge $-1 $283 $284 $285 $286 reversed $109 $-1 #
coedge $-1 $287 $111 $288 $289 reversed $69 $-1 #
coedge $-1 $111 $287 $283 $290 forward $69 $-1 #
coedge $-1 $285 $291 $111 $179 forward $292 $-1 #
edge $-1 $293 -14.064798282282656 $294 -5.4308888963790416 $178 $295 forward 7 unknown #
face $-1 $296 $297 $41 $-1 $298 forward single #
loop $-1 $-1 $299 $112 #
plane-surface $-1 -128.6031931900811 -1.1171573267004131 74.230121169437609 0 -1 0 0.71933980857756763 0 -0.69465836192734942 forward_v I I I I #
coedge $-1 $300 $301 $302 $303 reversed $113 $-1 #
coedge $-1 $185 $115 $304 $305 reversed $72 $-1 #
coedge $-1 $115 $184 $300 $306 reversed $72 $-1 #
coedge $-1 $302 $307 $115 $187 forward $297 $-1 #
edge $-1 $308 11.566832960896441 $309 19.009372254313938 $186 $310 forward 7 unknown #
loop $-1 $-1 $193 $116 #
plane-surface $-1 -52.734763634144102 -4.7651120962416975 0.9648321239966009 -0.71933980857756763 0 0.69465836192734942 0.69465836192734942 0 0.71933980857756763 forward_v I I I I #
loop $-1 $-1 $311 $74 #
coedge $-1 $191 $191 $192 $312 reversed $117 $-1 #
coedge $-1 $192 $192 $191 $312 forward $119 $-1 #
coedge $-1 $193 $193 $120 $194 forward $188 $-1 #
edge $-1 $313 0 $313 6.2831853071796004 $193 $314 forward 7 unknown #
loop $-1 $-1 $200 $121 #
plane-surface $-1 -52.734763634144102 -4.7651120962416975 0.9648321239966009 -0.71933980857756763 0 0.69465836192734942 0.69465836192734942 0 0.71933980857756763 forward_v I I I I #
loop $-1 $-1 $315 $77 #
coedge $-1 $198 $198 $199 $316 reversed $122 $-1 #
coedge $-1 $199 $199 $198 $316 forward $124 $-1 #
coedge $-1 $200 $200 $125 $201 forward $195 $-1 #
edge $-1 $317 0 $317 6.2831853071796004 $200 $318 forward 7 unknown #
loop $-1 $-1 $207 $126 #
plane-surface $-1 -52.734763634144102 -4.7651120962416975 0.9648321239966009 -0.71933980857756763 0 0.69465836192734942 0.69465836192734942 0 0.71933980857756763 forward_v I I I I #
loop $-1 $-1 $319 $80 #
coedge $-1 $205 $205 $206 $320 reversed $127 $-1 #
coedge $-1 $206 $206 $205 $320 forward $129 $-1 #
coedge $-1 $207 $207 $130 $208 forward $202 $-1 #
edge $-1 $321 0 $321 6.2831853071796004 $207 $322 forward 7 unknown #
face $-1 $323 $324 $45 $-1 $325 forward single #
loop $-1 $-1 $326 $131 #
plane-surface $-1 -128.6031931900811 17.046976251686601 74.230121169437609 0 -1 0 0.71933980857756763 0 -0.69465836192734942 forward_v I I I I #
coedge $-1 $327 $328 $329 $330 reversed $132 $-1 #
coedge $-1 $214 $134 $331 $332 reversed $84 $-1 #
coedge $-1 $134 $213 $327 $333 reversed $84 $-1 #
coedge $-1 $329 $334 $134 $216 forward $324 $-1 #
edge $-1 $335 11.566832960896441 $336 19.009372254313938 $215 $337 forward 7 unknown #
loop $-1 $-1 $222 $135 #
plane-surface $-1 -52.734763634144102 13.399021482145319 0.9648321239966009 -0.71933980857756763 0 0.69465836192734942 0.69465836192734942 0 0.71933980857756763 forward_v I I I I #
loop $-1 $-1 $338 $86 #
coedge $-1 $220 $220 $221 $339 reversed $136 $-1 #
coedge $-1 $221 $221 $220 $339 forward $138 $-1 #
coedge $-1 $222 $222 $139 $223 forward $217 $-1 #
edge $-1 $340 0 $340 6.2831853071796004 $222 $341 forward 7 unknown #
loop $-1 $-1 $229 $140 #
plane-surface $-1 -52.734763634144102 13.399021482145319 0.9648321239966009 -0.71933980857756763 0 0.69465836192734942 0.69465836192734942 0 0.71933980857756763 forward_v I I I I #
loop $-1 $-1 $342 $89 #
coedge $-1 $227 $227 $228 $343 reversed $141 $-1 #
coedge $-1 $228 $228 $227 $343 forward $143 $-1 #
coedge $-1 $229 $229 $144 $230 forward $224 $-1 #
edge $-1 $344 0 $344 6.2831853071796004 $229 $345 forward 7 unknown #
loop $-1 $-1 $236 $145 #
plane-surface $-1 -52.734763634144102 13.399021482145319 0.9648321239966009 -0.71933980857756763 0 0.69465836192734942 0.69465836192734942 0 0.71933980857756763 forward_v I I I I #
loop $-1 $-1 $346 $92 #
coedge $-1 $234 $234 $235 $347 reversed $146 $-1 #
coedge $-1 $235 $235 $234 $347 forward $148 $-1 #
coedge $-1 $236 $236 $149 $237 forward $231 $-1 #
edge $-1 $348 0 $348 6.2831853071796004 $236 $349 forward 7 unknown #
face $-1 $350 $351 $49 $-1 $352 forward single #
loop $-1 $-1 $353 $150 #
plane-surface $-1 0 -15.17873248570989 6.7650789268964377 0 -1 0 0 0 -1 forward_v I I I I #
coedge $-1 $354 $355 $356 $357 reversed $151 $-1 #
coedge $-1 $243 $153 $358 $359 reversed $96 $-1 #
coedge $-1 $153 $242 $354 $360 reversed $96 $-1 #
coedge $-1 $356 $361 $153 $245 forward $351 $-1 #
edge $-1 $362 -22.464258544571091 $363 -18.974261640965079 $244 $364 forward 7 unknown #
loop $-1 $-1 $251 $154 #
plane-surface $-1 -17.838124129243234 -11.330128073793173 83.174907330895508 0.74314483375859142 0 0.66913059716165679 0.66913059716165679 0 -0.74314483375859142 forward_v I I I I #
loop $-1 $-1 $365 $98 #
coedge $-1 $249 $249 $250 $366 reversed $155 $-1 #
coedge $-1 $250 $250 $249 $366 forward $157 $-1 #
coedge $-1 $251 $251 $158 $252 forward $246 $-1 #
edge $-1 $367 0 $367 6.2831853071796004 $251 $368 forward 7 unknown #
loop $-1 $-1 $258 $159 #
plane-surface $-1 -17.838124129243234 -11.330128073793173 83.174907330895508 0.74314483375859142 0 0.66913059716165679 0.66913059716165679 0 -0.74314483375859142 forward_v I I I I #
loop $-1 $-1 $369 $101 #
coedge $-1 $256 $256 $257 $370 reversed $160 $-1 #
coedge $-1 $257 $257 $256 $370 forward $162 $-1 #
coedge $-1 $258 $258 $163 $259 forward $253 $-1 #
edge $-1 $371 0 $371 6.2831853071796004 $258 $372 forward 7 unknown #
face $-1 $373 $374 $39 $-1 $375 reversed single #
loop $-1 $-1 $376 $164 #
plane-surface $-1 -52.734763634144109 0 0 1 0 0 0 0 -1 forward_v I I I I #
coedge $-1 $377 $271 $378 $379 forward $165 $-1 #
coedge $-1 $380 $167 $377 $381 forward $105 $-1 #
coedge $-1 $167 $380 $382 $383 forward $105 $-1 #
coedge $-1 $274 $273 $167 $267 reversed $275 $-1 #
edge $-1 $384 -23.812641871613504 $385 23.812641871613504 $266 $386 forward 7 unknown #
coedge $-1 $169 $168 $387 $388 forward $66 $-1 #
coedge $-1 $389 $390 $168 $270 reversed $374 $-1 #
edge $-1 $277 -52.734763634144109 $391 52.734763634144109 $269 $392 forward 7 unknown #
coedge $-1 $263 $393 $169 $272 reversed $165 $-1 #
edge $-1 $394 -52.734763634144109 $276 52.734763634144109 $271 $395 forward 7 unknown #
coedge $-1 $266 $170 $393 $396 forward $275 $-1 #
coedge $-1 $170 $266 $389 $397 reversed $275 $-1 #
loop $-1 $-1 $273 $373 #
vertex $-1 $171 $398 #
vertex $-1 $171 $399 #
straight-curve $-1 52.734763634144109 0 8.6718073568346963 0 1 0 I I #
face $-1 $400 $401 $40 $-1 $402 forward single #
loop $-1 $-1 $288 $172 #
plane-surface $-1 0 -23.812641871613504 0 0 1 0 0 0 1 forward_v I I I I #
coedge $-1 $403 $404 $405 $406 forward $173 $-1 #
coedge $-1 $405 $175 $177 $290 reversed $109 $-1 #
coedge $-1 $175 $405 $407 $408 reversed $109 $-1 #
coedge $-1 $409 $178 $175 $286 forward $292 $-1 #
edge $-1 $294 1.4758110335099603 $410 5.2892678933864774 $285 $411 forward 7 unknown #
coedge $-1 $177 $176 $403 $412 reversed $69 $-1 #
coedge $-1 $413 $414 $176 $289 forward $280 $-1 #
edge $-1 $415 -52.734763634144109 $293 52.734763634144109 $288 $416 forward 7 unknown #
edge $-1 $417 -52.734763634144109 $294 52.734763634144109 $283 $418 forward 7 unknown #
coedge $-1 $178 $409 $413 $419 forward $292 $-1 #
loop $-1 $-1 $285 $400 #
vertex $-1 $289 $420 #
vertex $-1 $179 $421 #
straight-curve $-1 52.734763634144109 -9.7478435893308486 4.8583504969581792 0 1 0 I I #
face $-1 $-1 $422 $41 $-1 $423 reversed single #
loop $-1 $-1 $186 $180 #
plane-surface $-1 0 0 8.6718073568346963 0 0 1 1 0 0 forward_v I I I I #
coedge $-1 $424 $425 $426 $427 reversed $181 $-1 #
coedge $-1 $428 $183 $185 $306 forward $113 $-1 #
coedge $-1 $183 $428 $424 $429 forward $113 $-1 #
coedge $-1 $426 $186 $183 $303 forward $297 $-1 #
edge $-1 $309 -6.0305108176621331 $430 1.2653987214204356 $302 $431 forward 7 unknown #
coedge $-1 $432 $433 $184 $305 forward $422 $-1 #
edge $-1 $434 -36.150228460722211 $308 -28.443253227884107 $304 $435 forward 7 unknown #
edge $-1 $309 -10.713956242847136 $434 1.0206786807905858e-014 $185 $436 forward 7 unknown #
coedge $-1 $186 $426 $432 $437 forward $297 $-1 #
vertex $-1 $305 $438 #
vertex $-1 $187 $439 #
straight-curve $-1 -64.30159659504055 -8.4130668657829819 8.6718073568346981 1 0 0 I I #
coedge $-1 $311 $311 $-1 $440 reversed $190 $-1 #
edge $-1 $441 0 $441 6.2831853071796004 $191 $442 forward 7 unknown #
vertex $-1 $194 $443 #
ellipse-curve $-1 -49.013493987435361 -6.9538849579664692 4.8183197404156433 -0.71933980857756763 0 0.69465836192734942 0.34732918096367471 0 0.35966990428878381 1 I I #
coedge $-1 $315 $315 $-1 $444 reversed $197 $-1 #
edge $-1 $445 0 $445 6.2831853071796004 $198 $446 forward 7 unknown #
vertex $-1 $201 $447 #
ellipse-curve $-1 -49.013493987435361 -4.7651120962416975 4.8183197404156433 -0.71933980857756763 0 0.69465836192734942 0.34732918096367471 0 0.35966990428878381 1 I I #
coedge $-1 $319 $319 $-1 $448 reversed $204 $-1 #
edge $-1 $449 0 $449 6.2831853071796004 $205 $450 forward 7 unknown #
vertex $-1 $208 $451 #
ellipse-curve $-1 -49.013493987435361 -2.5763392345169258 4.8183197404156433 -0.71933980857756763 0 0.69465836192734942 0.34732918096367471 0 0.35966990428878381 1 I I #
face $-1 $-1 $452 $45 $-1 $453 reversed single #
loop $-1 $-1 $215 $209 #
plane-surface $-1 0 0 8.6718073568346963 0 0 1 1 0 0 forward_v I I I I #
coedge $-1 $454 $455 $456 $457 reversed $210 $-1 #
coedge $-1 $458 $212 $214 $333 forward $132 $-1 #
coedge $-1 $212 $458 $454 $459 forward $132 $-1 #
coedge $-1 $456 $215 $212 $330 forward $324 $-1 #
edge $-1 $336 3.0515559715313749 $460 10.347465510613942 $329 $461 forward 7 unknown #
coedge $-1 $462 $463 $213 $332 forward $452 $-1 #
edge $-1 $464 -36.150228460722211 $335 -28.443253227884107 $331 $465 forward 7 unknown #
edge $-1 $336 -10.713956242847136 $464 1.0206786807905858e-014 $214 $466 forward 7 unknown #
coedge $-1 $215 $456 $462 $467 forward $324 $-1 #
vertex $-1 $216 $468 #
vertex $-1 $216 $469 #
straight-curve $-1 -64.30159659504055 9.7510667126040342 8.6718073568346981 1 0 0 I I #
coedge $-1 $338 $338 $-1 $470 reversed $219 $-1 #
edge $-1 $471 0 $471 6.2831853071796004 $220 $472 forward 7 unknown #
vertex $-1 $223 $473 #
ellipse-curve $-1 -49.013493987435361 11.210248620420547 4.8183197404156433 -0.71933980857756763 0 0.69465836192734942 0.34732918096367471 0 0.35966990428878381 1 I I #
coedge $-1 $342 $342 $-1 $474 reversed $226 $-1 #
edge $-1 $475 0 $475 6.2831853071796004 $227 $476 forward 7 unknown #
vertex $-1 $230 $477 #
ellipse-curve $-1 -49.013493987435361 13.399021482145319 4.8183197404156433 -0.71933980857756763 0 0.69465836192734942 0.34732918096367471 0 0.35966990428878381 1 I I #
coedge $-1 $346 $346 $-1 $478 reversed $233 $-1 #
edge $-1 $479 0 $479 6.2831853071796004 $234 $480 forward 7 unknown #
vertex $-1 $237 $481 #
ellipse-curve $-1 -49.013493987435361 15.58779434387009 4.8183197404156433 -0.71933980857756763 0 0.69465836192734942 0.34732918096367471 0 0.35966990428878381 1 I I #
face $-1 $-1 $482 $49 $-1 $483 reversed single #
loop $-1 $-1 $356 $238 #
plane-surface $-1 0 0 8.6718073568346963 0 0 1 1 0 0 forward_v I I I I #
coedge $-1 $484 $485 $355 $486 reversed $239 $-1 #
coedge $-1 $487 $241 $243 $360 forward $151 $-1 #
coedge $-1 $241 $487 $353 $486 forward $151 $-1 #
coedge $-1 $488 $244 $241 $357 forward $351 $-1 #
edge $-1 $363 1.8164596249798697 $489 9.5136684488133039 $356 $490 forward 7 unknown #
coedge $-1 $491 $492 $242 $359 forward $482 $-1 #
edge $-1 $493 -72.078124524635186 $362 -68.202090190306734 $358 $494 forward 7 unknown #
edge $-1 $363 100.25380866505887 $493 105.4695272682882 $243 $495 forward 7 unknown #
coedge $-1 $244 $488 $491 $496 forward $351 $-1 #
vertex $-1 $359 $497 #
vertex $-1 $245 $498 #
straight-curve $-1 30.270505089573017 -7.481523661876456 8.6718073568346909 -1 0 0 I I #
coedge $-1 $365 $365 $-1 $499 reversed $248 $-1 #
edge $-1 $500 0 $500 6.2831853071796004 $249 $501 forward 7 unknown #
vertex $-1 $252 $502 #
ellipse-curve $-1 50.989765182341102 -12.979529964614622 6.7337901896704579 0.74314483375859142 0 0.66913059716165679 0.3345652985808284 0 -0.37157241687929571 1 I I #
coedge $-1 $369 $369 $-1 $503 reversed $255 $-1 #
edge $-1 $504 0 $504 6.2831853071796004 $256 $505 forward 7 unknown #
vertex $-1 $259 $506 #
ellipse-curve $-1 50.989765182341102 -9.6807261829717213 6.7337901896704579 0.74314483375859142 0 0.66913059716165679 0.3345652985808284 0 -0.37157241687929571 1 I I #
face $-1 $-1 $275 $39 $-1 $507 reversed single #
loop $-1 $-1 $389 $260 #
plane-surface $-1 0 23.812641871613504 0 0 -1 0 0 0 -1 forward_v I I I I #
coedge $-1 $508 $387 $390 $509 forward $261 $-1 #
coedge $-1 $393 $263 $264 $381 reversed $165 $-1 #
coedge $-1 $387 $508 $263 $379 reversed $261 $-1 #
edge $-1 $394 -8.6718073568346963 $510 8.6718073568346963 $378 $511 forward 7 unknown #
coedge $-1 $265 $264 $508 $512 forward $105 $-1 #
edge $-1 $385 -52.734763634144109 $510 52.734763634144109 $377 $513 forward 7 unknown #
coedge $-1 $390 $389 $265 $383 reversed $374 $-1 #
edge $-1 $514 -52.734763634144109 $384 52.734763634144109 $382 $515 forward 7 unknown #
vertex $-1 $267 $516 #
vertex $-1 $396 $517 #
straight-curve $-1 52.734763634144109 0 -8.6718073568346963 0 -1 0 I I #
coedge $-1 $376 $378 $268 $388 reversed $261 $-1 #
edge $-1 $391 -23.812641871613504 $394 23.812641871613504 $387 $518 forward 7 unknown #
coedge $-1 $382 $269 $274 $397 forward $374 $-1 #
coedge $-1 $269 $382 $376 $509 reversed $374 $-1 #
vertex $-1 $270 $519 #
straight-curve $-1 0 23.812641871613504 8.6718073568346963 -1 0 0 I I #
coedge $-1 $271 $377 $273 $396 reversed $165 $-1 #
vertex $-1 $388 $520 #
straight-curve $-1 0 -23.812641871613504 8.6718073568346963 1 0 0 I I #
edge $-1 $276 -8.6718073568346963 $385 8.6718073568346963 $273 $521 forward 7 unknown #
edge $-1 $277 -8.6718073568346963 $384 8.6718073568346963 $274 $522 forward 7 unknown #
point $-1 52.734763634144109 -23.812641871613504 8.6718073568346963 #
point $-1 52.734763634144109 23.812641871613504 8.6718073568346963 #
face $-1 $-1 $292 $40 $-1 $523 reversed single #
loop $-1 $-1 $407 $279 #
plane-surface $-1 0 0 8.6718073568346963 0 0 1 1 0 0 forward_v I I I I #
coedge $-1 $524 $282 $287 $412 forward $173 $-1 #
coedge $-1 $282 $524 $525 $526 reversed $173 $-1 #
coedge $-1 $284 $283 $282 $406 reversed $109 $-1 #
edge $-1 $527 -5.2892678933864774 $417 -1.4758110335099603 $282 $528 forward 7 unknown #
coedge $-1 $525 $529 $284 $408 forward $401 $-1 #
edge $-1 $410 -52.734763634144109 $527 52.734763634144109 $407 $530 forward 7 unknown #
coedge $-1 $291 $285 $529 $531 reversed $292 $-1 #
vertex $-1 $286 $532 #
straight-curve $-1 52.734763634144109 -15.17873248570989 3.3825394634482189 0 0 1 I I #
edge $-1 $417 5.4308888963790416 $415 14.064798282282656 $403 $533 forward 7 unknown #
coedge $-1 $534 $288 $291 $419 reversed $280 $-1 #
coedge $-1 $288 $534 $524 $535 forward $280 $-1 #
vertex $-1 $289 $536 #
straight-curve $-1 0 -23.812641871613504 4.8583504969581792 1 0 0 I I #
vertex $-1 $412 $537 #
straight-curve $-1 0 -15.17873248570989 4.8583504969581792 1 0 0 I I #
edge $-1 $538 -8.6718073568346963 $293 -4.8583504969581792 $291 $539 forward 7 unknown #
point $-1 52.734763634144109 -23.812641871613504 4.8583504969581792 #
point $-1 52.734763634144109 -15.17873248570989 4.8583504969581792 #
loop $-1 $-1 $304 $296 #
plane-surface $-1 -52.734763634144109 0 0 1 0 0 0 0 -1 forward_v I I I I #
coedge $-1 $425 $299 $301 $429 reversed $181 $-1 #
coedge $-1 $299 $424 $540 $541 reversed $181 $-1 #
coedge $-1 $307 $302 $299 $427 forward $297 $-1 #
edge $-1 $430 -19.009372254313938 $542 -11.566832960896441 $426 $543 forward 7 unknown #
coedge $-1 $301 $300 $433 $544 reversed $113 $-1 #
edge $-1 $545 -1.0206786807905858e-014 $430 10.713956242847136 $424 $546 forward 7 unknown #
vertex $-1 $303 $547 #
straight-curve $-1 -45.292224340726612 -2.3825560481208488 8.6718073568346981 0 1 0 I I #
coedge $-1 $540 $304 $307 $437 reversed $422 $-1 #
coedge $-1 $304 $540 $428 $544 forward $422 $-1 #
vertex $-1 $305 $548 #
straight-curve $-1 -52.734763634144109 -8.4130668657829819 37.115060584718805 0 0 1 I I #
straight-curve $-1 -52.734763634144102 -8.4130668657829819 0.9648321239966009 -0.69465836192734942 0 -0.71933980857756763 I I #
edge $-1 $542 1.1171573267004131 $308 8.4130668657829819 $432 $549 forward 7 unknown #
point $-1 -52.734763634144109 -8.4130668657829819 8.6718073568346963 #
point $-1 -45.292224340726612 -8.4130668657829819 8.6718073568346963 #
edge $-1 $550 1 $550 0 $311 $-1 forward 7 unknown #
vertex $-1 $312 $551 #
ellipse-curve $-1 -47.662078255869261 -6.9538849579664692 3.5132727693201646 -0.71933980857756763 0 0.69465836192734942 0.34732918096367471 0 0.35966990428878381 1 I I #
point $-1 -48.666164806471691 -6.9538849579664692 5.1779896447044322 #
edge $-1 $552 1 $552 0 $315 $-1 forward 7 unknown #
vertex $-1 $316 $553 #
ellipse-curve $-1 -47.662078255869261 -4.7651120962416975 3.5132727693201646 -0.71933980857756763 0 0.69465836192734942 0.34732918096367471 0 0.35966990428878381 1 I I #
point $-1 -48.666164806471691 -4.7651120962416975 5.1779896447044322 #
edge $-1 $554 1 $554 0 $319 $-1 forward 7 unknown #
vertex $-1 $320 $555 #
ellipse-curve $-1 -47.662078255869261 -2.5763392345169258 3.5132727693201646 -0.71933980857756763 0 0.69465836192734942 0.34732918096367471 0 0.35966990428878381 1 I I #
point $-1 -48.666164806471691 -2.5763392345169258 5.1779896447044322 #
loop $-1 $-1 $331 $323 #
plane-surface $-1 -52.734763634144109 0 0 1 0 0 0 0 -1 forward_v I I I I #
coedge $-1 $455 $326 $328 $459 reversed $210 $-1 #
coedge $-1 $326 $454 $556 $557 reversed $210 $-1 #
coedge $-1 $334 $329 $326 $457 forward $324 $-1 #
edge $-1 $460 -19.009372254313938 $558 -11.566832960896441 $456 $559 forward 7 unknown #
coedge $-1 $328 $327 $463 $560 reversed $132 $-1 #
edge $-1 $561 -1.0206786807905858e-014 $460 10.713956242847136 $454 $562 forward 7 unknown #
vertex $-1 $330 $563 #
straight-curve $-1 -45.292224340726612 6.6995107410726593 8.6718073568346981 0 1 0 I I #
coedge $-1 $556 $331 $334 $467 reversed $452 $-1 #
coedge $-1 $331 $556 $458 $560 forward $452 $-1 #
vertex $-1 $332 $564 #
straight-curve $-1 -52.734763634144109 9.7510667126040342 37.115060584718805 0 0 1 I I #
straight-curve $-1 -52.734763634144102 9.7510667126040342 0.9648321239966009 -0.69465836192734942 0 -0.71933980857756763 I I #
edge $-1 $558 -17.046976251686601 $335 -9.7510667126040342 $462 $565 forward 7 unknown #
point $-1 -52.734763634144109 9.7510667126040342 8.6718073568346963 #
point $-1 -45.292224340726612 9.7510667126040342 8.6718073568346963 #
edge $-1 $566 1 $566 0 $338 $-1 forward 7 unknown #
vertex $-1 $339 $567 #
ellipse-curve $-1 -47.662078255869261 11.210248620420547 3.5132727693201646 -0.71933980857756763 0 0.69465836192734942 0.34732918096367471 0 0.35966990428878381 1 I I #
point $-1 -48.666164806471691 11.210248620420547 5.1779896447044322 #
edge $-1 $568 1 $568 0 $342 $-1 forward 7 unknown #
vertex $-1 $343 $569 #
ellipse-curve $-1 -47.662078255869261 13.399021482145319 3.5132727693201646 -0.71933980857756763 0 0.69465836192734942 0.34732918096367471 0 0.35966990428878381 1 I I #
point $-1 -48.666164806471691 13.399021482145319 5.1779896447044322 #
edge $-1 $570 1 $570 0 $346 $-1 forward 7 unknown #
vertex $-1 $347 $571 #
ellipse-curve $-1 -47.662078255869261 15.58779434387009 3.5132727693201646 -0.71933980857756763 0 0.69465836192734942 0.34732918096367471 0 0.35966990428878381 1 I I #
point $-1 -48.666164806471691 15.58779434387009 5.1779896447044322 #
loop $-1 $-1 $358 $350 #
plane-surface $-1 52.734763634144109 0 0 -1 0 0 0 0 1 forward_v I I I I #
coedge $-1 $485 $353 $572 $573 reversed $239 $-1 #
coedge $-1 $353 $484 $488 $574 reversed $239 $-1 #
edge $-1 $575 -105.4695272682882 $489 -100.25380866505887 $353 $576 forward 7 unknown #
coedge $-1 $355 $354 $492 $577 reversed $151 $-1 #
coedge $-1 $361 $356 $485 $574 forward $351 $-1 #
vertex $-1 $574 $578 #
straight-curve $-1 49.244766730538089 -5.6650640368965863 8.6718073568346981 0 -1 0 I I #
coedge $-1 $572 $358 $361 $496 reversed $482 $-1 #
coedge $-1 $358 $572 $487 $577 forward $482 $-1 #
vertex $-1 $359 $579 #
straight-curve $-1 52.734763634144109 -7.481523661876456 76.873897547141425 0 0 1 I I #
straight-curve $-1 -17.838124129243234 -7.481523661876456 83.174907330895508 0.66913059716165679 0 -0.74314483375859142 I I #
edge $-1 $580 -15.17873248570989 $362 -7.481523661876456 $491 $581 forward 7 unknown #
point $-1 52.734763634144109 -7.481523661876456 8.6718073568346963 #
point $-1 49.244766730538096 -7.481523661876456 8.6718073568346909 #
edge $-1 $582 1 $582 0 $365 $-1 forward 7 unknown #
vertex $-1 $366 $583 #
ellipse-curve $-1 50.159269589366801 -12.979529964614622 5.9860086175959948 0.74314483375859142 0 0.66913059716165679 0.3345652985808284 0 -0.37157241687929571 1 I I #
point $-1 51.324330480921937 -12.979529964614622 6.3622177727911682 #
edge $-1 $584 1 $584 0 $369 $-1 forward 7 unknown #
vertex $-1 $370 $585 #
ellipse-curve $-1 50.159269589366801 -9.6807261829717213 5.9860086175959948 0.74314483375859142 0 0.66913059716165679 0.3345652985808284 0 -0.37157241687929571 1 I I #
point $-1 51.324330480921937 -9.6807261829717213 6.3622177727911682 #
plane-surface $-1 52.734763634144109 0 0 -1 0 0 0 0 1 forward_v I I I I #
coedge $-1 $378 $376 $380 $512 reversed $261 $-1 #
edge $-1 $391 -8.6718073568346963 $514 8.6718073568346963 $390 $586 forward 7 unknown #
vertex $-1 $512 $587 #
straight-curve $-1 -52.734763634144109 -23.812641871613504 0 0 0 -1 I I #
edge $-1 $510 -23.812641871613504 $514 23.812641871613504 $508 $588 forward 7 unknown #
straight-curve $-1 0 -23.812641871613504 -8.6718073568346963 -1 0 0 I I #
vertex $-1 $383 $589 #
straight-curve $-1 0 23.812641871613504 -8.6718073568346963 1 0 0 I I #
point $-1 52.734763634144109 23.812641871613504 -8.6718073568346963 #
point $-1 52.734763634144109 -23.812641871613504 -8.6718073568346963 #
straight-curve $-1 -52.734763634144109 0 8.6718073568346963 0 -1 0 I I #
point $-1 -52.734763634144109 23.812641871613504 8.6718073568346963 #
point $-1 -52.734763634144109 -23.812641871613504 8.6718073568346963 #
straight-curve $-1 52.734763634144109 -23.812641871613504 0 0 0 -1 I I #
straight-curve $-1 52.734763634144109 23.812641871613504 0 0 0 -1 I I #
plane-surface $-1 52.734763634144109 0 0 -1 0 0 0 0 1 forward_v I I I I #
coedge $-1 $404 $403 $414 $535 reversed $173 $-1 #
coedge $-1 $590 $407 $404 $526 forward $401 $-1 #
edge $-1 $527 15.17873248570989 $591 23.812641871613504 $404 $592 forward 7 unknown #
vertex $-1 $526 $593 #
straight-curve $-1 -52.734763634144109 -15.17873248570989 3.3825394634482189 0 0 -1 I I #
coedge $-1 $407 $590 $409 $531 forward $401 $-1 #
straight-curve $-1 0 -15.17873248570989 8.6718073568346963 -1 0 0 I I #
edge $-1 $538 -23.812641871613504 $410 -15.17873248570989 $409 $594 forward 7 unknown #
point $-1 52.734763634144109 -15.17873248570989 8.6718073568346963 #
straight-curve $-1 -52.734763634144109 -9.7478435893308486 4.8583504969581792 0 -1 0 I I #
coedge $-1 $414 $413 $590 $595 reversed $280 $-1 #
edge $-1 $591 -8.6718073568346963 $415 -4.8583504969581792 $524 $596 forward 7 unknown #
point $-1 -52.734763634144109 -23.812641871613504 4.8583504969581792 #
point $-1 -52.734763634144109 -15.17873248570989 4.8583504969581792 #
vertex $-1 $531 $597 #
straight-curve $-1 52.734763634144109 -23.812641871613504 0 0 0 -1 I I #
coedge $-1 $433 $432 $425 $541 forward $422 $-1 #
edge $-1 $542 28.443253227884107 $545 36.150228460722211 $540 $598 forward 7 unknown #
vertex $-1 $437 $599 #
straight-curve $-1 -64.30159659504055 -1.1171573267004131 8.6718073568346981 -1 0 0 I I #
edge $-1 $545 -1.2653987214204356 $434 6.0305108176621331 $433 $600 forward 7 unknown #
vertex $-1 $544 $601 #
straight-curve $-1 -52.734763634144102 -1.1171573267004131 0.9648321239966009 0.69465836192734942 0 0.71933980857756763 I I #
point $-1 -45.292224340726612 -1.1171573267004131 8.6718073568346963 #
point $-1 -52.734763634144109 -8.4130668657829819 0.96483212399659357 #
straight-curve $-1 -52.734763634144109 0 8.6718073568346963 0 -1 0 I I #
vertex $-1 $440 $602 #
point $-1 -47.314749074905592 -6.9538849579664692 3.8729426736089483 #
vertex $-1 $444 $603 #
point $-1 -47.314749074905592 -4.7651120962416975 3.8729426736089483 #
vertex $-1 $448 $604 #
point $-1 -47.314749074905592 -2.5763392345169258 3.8729426736089483 #
coedge $-1 $463 $462 $455 $557 forward $452 $-1 #
edge $-1 $558 28.443253227884107 $561 36.150228460722211 $556 $605 forward 7 unknown #
vertex $-1 $467 $606 #
straight-curve $-1 -64.30159659504055 17.046976251686601 8.6718073568346981 -1 0 0 I I #
edge $-1 $561 -10.347465510613942 $464 -3.0515559715313749 $463 $607 forward 7 unknown #
vertex $-1 $560 $608 #
straight-curve $-1 -52.734763634144102 17.046976251686601 0.9648321239966009 0.69465836192734942 0 0.71933980857756763 I I #
point $-1 -45.292224340726612 17.046976251686601 8.6718073568346963 #
point $-1 -52.734763634144109 9.7510667126040342 0.96483212399659357 #
straight-curve $-1 -52.734763634144109 0 8.6718073568346963 0 -1 0 I I #
vertex $-1 $470 $609 #
point $-1 -47.314749074905592 11.210248620420547 3.8729426736089483 #
vertex $-1 $474 $610 #
point $-1 -47.314749074905592 13.399021482145319 3.8729426736089483 #
vertex $-1 $478 $611 #
point $-1 -47.314749074905592 15.58779434387009 3.8729426736089483 #
coedge $-1 $492 $491 $484 $573 forward $482 $-1 #
edge $-1 $580 68.202090190306734 $575 72.078124524635186 $572 $612 forward 7 unknown #
edge $-1 $489 49.244766730538096 $580 52.734763634144109 $488 $613 forward 7 unknown #
vertex $-1 $573 $614 #
straight-curve $-1 -17.838124129243234 -15.17873248570989 83.174907330895508 -0.66913059716165679 0 0.74314483375859142 I I #
edge $-1 $575 -9.5136684488133039 $493 -1.8164596249798697 $492 $615 forward 7 unknown #
point $-1 49.244766730538096 -15.17873248570989 8.6718073568346909 #
point $-1 52.734763634144109 -7.481523661876456 4.7957730225062392 #
vertex $-1 $496 $616 #
straight-curve $-1 52.734763634144109 0 8.6718073568346963 0 1 0 I I #
vertex $-1 $499 $617 #
point $-1 50.493834887947635 -12.979529964614622 5.6144362007166988 #
vertex $-1 $503 $618 #
point $-1 50.493834887947635 -9.6807261829717213 5.6144362007166988 #
straight-curve $-1 -52.734763634144109 23.812641871613504 0 0 0 -1 I I #
point $-1 -52.734763634144109 -23.812641871613504 -8.6718073568346963 #
straight-curve $-1 -52.734763634144109 0 -8.6718073568346963 0 1 0 I I #
point $-1 -52.734763634144109 23.812641871613504 -8.6718073568346963 #
coedge $-1 $529 $525 $534 $595 forward $401 $-1 #
vertex $-1 $526 $619 #
straight-curve $-1 -52.734763634144109 0 8.6718073568346963 0 -1 0 I I #
point $-1 -52.734763634144109 -15.17873248570989 8.6718073568346963 #
straight-curve $-1 52.734763634144109 0 8.6718073568346963 0 1 0 I I #
edge $-1 $591 -52.734763634144109 $538 52.734763634144109 $534 $620 forward 7 unknown #
straight-curve $-1 -52.734763634144109 -23.812641871613504 0 0 0 -1 I I #
point $-1 52.734763634144109 -23.812641871613504 8.6718073568346963 #
straight-curve $-1 -52.734763634144109 -1.1171573267004131 37.115060584718805 0 0 -1 I I #
point $-1 -52.734763634144109 -1.1171573267004131 8.6718073568346963 #
straight-curve $-1 -52.734763634144109 -2.3825560481208488 0.96483212399658935 0 -1 0 I I #
point $-1 -52.734763634144109 -1.1171573267004131 0.96483212399659357 #
point $-1 -47.302408351580482 -6.9538849579664692 3.1659435883564901 #
point $-1 -47.302408351580482 -4.7651120962416975 3.1659435883564901 #
point $-1 -47.302408351580482 -2.5763392345169258 3.1659435883564901 #
straight-curve $-1 -52.734763634144109 17.046976251686601 37.115060584718805 0 0 -1 I I #
point $-1 -52.734763634144109 17.046976251686601 8.6718073568346963 #
straight-curve $-1 -52.734763634144109 6.6995107410726593 0.96483212399658935 0 -1 0 I I #
point $-1 -52.734763634144109 17.046976251686601 0.96483212399659357 #
point $-1 -47.302408351580482 11.210248620420547 3.1659435883564901 #
point $-1 -47.302408351580482 13.399021482145319 3.1659435883564901 #
point $-1 -47.302408351580482 15.58779434387009 3.1659435883564901 #
straight-curve $-1 52.734763634144109 -15.17873248570989 76.873897547141425 0 0 -1 I I #
straight-curve $-1 0 -15.17873248570989 8.6718073568346963 1 0 0 I I #
point $-1 52.734763634144109 -15.17873248570989 4.7957730225062392 #
straight-curve $-1 52.734763634144116 -5.6650640368965863 4.7957730225062321 0 1 0 I I #
point $-1 52.734763634144109 -15.17873248570989 8.6718073568346963 #
point $-1 49.787697172487512 -12.979529964614622 5.6514433190151658 #
point $-1 49.787697172487512 -9.6807261829717213 5.6514433190151658 #
point $-1 -52.734763634144109 -23.812641871613504 8.6718073568346963 #
straight-curve $-1 0 -23.812641871613504 8.6718073568346963 1 0 0 I I #
End-of-ACIS-data 