500 0 9 0           
7 Unknown 11 ACIS 5.0 NT 24 Thu Mar 25 20:44:26 1999 
-1 9.9999999999999995e-007 1e-010 
body $-1 $9 $-1 $10 #
body $-1 $11 $-1 $12 #
body $-1 $13 $-1 $14 #
body $-1 $15 $-1 $16 #
body $-1 $17 $-1 $18 #
body $-1 $19 $-1 $20 #
body $-1 $21 $-1 $22 #
body $-1 $23 $-1 $24 #
body $-1 $25 $-1 $26 #
lump $-1 $-1 $27 $0 #
transform $-1 1 0 0 0 1 0 0 0 1 57.50175481429487 30.279542790573821 7.8811642397438852 1 rotate no_reflect no_shear #
lump $-1 $-1 $28 $1 #
transform $-1 1 0 0 0 1 0 0 0 1 57.50175481429487 30.279542790573821 7.8811642397438852 1 rotate no_reflect no_shear #
lump $-1 $-1 $29 $2 #
transform $-1 1 0 0 0 1 0 0 0 1 57.50175481429487 30.279542790573821 7.8811642397438852 1 rotate no_reflect no_shear #
lump $-1 $-1 $30 $3 #
transform $-1 1 0 0 0 1 0 0 0 1 57.50175481429487 30.279542790573821 7.8811642397438852 1 rotate no_reflect no_shear #
lump $-1 $-1 $31 $4 #
transform $-1 1 0 0 0 1 0 0 0 1 57.50175481429487 30.279542790573821 7.8811642397438852 1 rotate no_reflect no_shear #
lump $-1 $-1 $32 $5 #
transform $-1 1 0 0 0 1 0 0 0 1 57.50175481429487 30.279542790573821 7.8811642397438852 1 rotate no_reflect no_shear #
lump $-1 $-1 $33 $6 #
transform $-1 1 0 0 0 1 0 0 0 1 57.50175481429487 30.279542790573821 7.8811642397438852 1 rotate no_reflect no_shear #
lump $-1 $-1 $34 $7 #
transform $-1 1 0 0 0 1 0 0 0 1 57.50175481429487 30.279542790573821 7.8811642397438852 1 rotate no_reflect no_shear #
lump $-1 $-1 $35 $8 #
transform $-1 1 0 0 0 1 0 0 0 1 57.50175481429487 30.279542790573821 7.8811642397438852 1 rotate no_reflect no_shear #
shell $-1 $-1 $-1 $36 $-1 $9 #
shell $-1 $-1 $-1 $37 $-1 $11 #
shell $-1 $-1 $-1 $38 $-1 $13 #
shell $-1 $-1 $-1 $39 $-1 $15 #
shell $-1 $-1 $-1 $40 $-1 $17 #
shell $-1 $-1 $-1 $41 $-1 $19 #
shell $-1 $-1 $-1 $42 $-1 $21 #
shell $-1 $-1 $-1 $43 $-1 $23 #
shell $-1 $-1 $-1 $44 $-1 $25 #
face $-1 $45 $46 $27 $-1 $47 forward single #
face $-1 $48 $49 $28 $-1 $50 reversed single #
face $-1 $51 $52 $29 $-1 $53 reversed single #
face $-1 $54 $55 $30 $-1 $56 reversed single #
face $-1 $57 $58 $31 $-1 $59 forward single #
face $-1 $60 $61 $32 $-1 $62 forward single #
face $-1 $63 $64 $33 $-1 $65 reversed single #
face $-1 $66 $67 $34 $-1 $68 forward single #
face $-1 $69 $70 $35 $-1 $71 forward single #
face $-1 $72 $73 $27 $-1 $74 reversed single #
loop $-1 $-1 $75 $36 #
plane-surface $-1 0 0 7.8811642397438852 0 0 1 1 0 0 forward_v I I I I #
face $-1 $76 $77 $28 $-1 $78 reversed single #
loop $-1 $-1 $79 $37 #
plane-surface $-1 -55.602381484883161 -20.015148350142468 0 0 -1 0 0 0 -1 forward_v I I I I #
face $-1 $80 $81 $29 $-1 $82 reversed single #
loop $-1 $-1 $83 $38 #
plane-surface $-1 -55.602381484883161 20.015148350142471 0 0 1 0 0 0 1 forward_v I I I I #
face $-1 $84 $85 $30 $-1 $86 reversed single #
loop $-1 $-1 $87 $39 #
plane-surface $-1 -57.50175481429487 14.903247076295479 1.9316402690743502 -0.7660444514056185 0 0.64278759981090561 0.64278759981090561 0 0.7660444514056185 forward_v I I I I #
face $-1 $88 $89 $31 $-1 $90 forward single #
loop $-1 $91 $92 $40 #
cone-surface $-1 -54.622610969208914 12.712432244646763 4.5850084545036607 0.7660444514056185 0 -0.64278759981090561 0.3213937999054528 0 0.38302222570280925 1 I I 0 1 0.5 forward I I I I #
face $-1 $93 $94 $32 $-1 $95 forward single #
loop $-1 $96 $97 $41 #
cone-surface $-1 -54.622610969208914 17.094061907944187 4.5850084545036607 0.7660444514056185 0 -0.64278759981090561 0.3213937999054528 0 0.38302222570280925 1 I I 0 1 0.5 forward I I I I #
face $-1 $98 $99 $33 $-1 $100 reversed single #
loop $-1 $-1 $101 $42 #
plane-surface $-1 99.595963293039503 1.1855461542482857 157.27468646406174 0 -1 0 -0.86602541151947299 0 -0.49999998660252726 forward_v I I I I #
face $-1 $102 $103 $34 $-1 $104 forward single #
loop $-1 $105 $106 $43 #
cone-surface $-1 54.72849501287957 -5.4560546254208795 3.711957645151251 -0.86602541151947299 0 -0.49999998660252726 0.49999998660252726 0 -0.86602541151947299 1 I I 0 1 1 forward I I I I #
face $-1 $107 $108 $35 $-1 $109 forward single #
loop $-1 $110 $111 $44 #
cone-surface $-1 54.72849501287957 -1.4710941576193797 3.711957645151251 -0.86602541151947299 0 -0.49999998660252726 0.49999998660252726 0 -0.86602541151947299 1 I I 0 1 1 forward I I I I #
face $-1 $112 $113 $27 $-1 $114 reversed single #
loop $-1 $-1 $115 $45 #
plane-surface $-1 0 0 -7.8811642397438852 0 0 1 1 0 0 forward_v I I I I #
coedge $-1 $116 $117 $118 $119 forward $46 $-1 #
face $-1 $120 $121 $28 $-1 $122 forward single #
loop $-1 $-1 $123 $48 #
plane-surface $-1 -53.703008155471451 -25.147345570358144 0 -1 0 0 0 0 1 forward_v I I I I #
coedge $-1 $124 $125 $126 $127 forward $49 $-1 #
face $-1 $128 $129 $29 $-1 $130 reversed single #
loop $-1 $-1 $131 $51 #
plane-surface $-1 -53.703008155471451 25.147345570358148 0 -1 0 0 0 0 1 forward_v I I I I #
coedge $-1 $132 $133 $134 $135 reversed $52 $-1 #
face $-1 $136 $137 $30 $-1 $138 forward single #
loop $-1 $-1 $139 $54 #
plane-surface $-1 -145.59955525744866 9.7913458024484861 75.854470193065922 0 1 0 -0.7660444514056185 0 0.64278759981090561 forward_v I I I I #
coedge $-1 $140 $141 $142 $143 reversed $55 $-1 #
face $-1 $-1 $144 $31 $-1 $145 forward single #
loop $-1 $146 $147 $57 #
cone-surface $-1 -54.048077630654703 12.712432244646763 4.1029177546454818 0.7660444514056185 0 -0.64278759981090561 0.1606968999527264 0 0.19151111285140462 1 I I -0.70710678118654746 0.70710678118654746 0.25 forward I I I I #
loop $-1 $-1 $148 $40 #
coedge $-1 $92 $92 $149 $150 reversed $58 $-1 #
face $-1 $-1 $151 $32 $-1 $152 forward single #
loop $-1 $153 $154 $60 #
cone-surface $-1 -54.048077630654703 17.094061907944187 4.1029177546454818 0.7660444514056185 0 -0.64278759981090561 0.1606968999527264 0 0.19151111285140462 1 I I -0.70710678118654746 0.70710678118654746 0.25 forward I I I I #
loop $-1 $-1 $155 $41 #
coedge $-1 $97 $97 $156 $157 reversed $61 $-1 #
face $-1 $158 $159 $33 $-1 $160 reversed single #
loop $-1 $-1 $161 $63 #
plane-surface $-1 1.540756400686405e-006 -3.4635743915201296 99.772933190523261 0.86602541151947299 0 0.49999998660252726 0.49999998660252726 0 -0.86602541151947299 forward_v I I I I #
coedge $-1 $162 $163 $164 $165 reversed $64 $-1 #
face $-1 $-1 $166 $34 $-1 $167 forward single #
loop $-1 $168 $169 $66 #
cone-surface $-1 53.746231320166743 -5.4560546254208795 3.1448474580092203 -0.86602541151947299 0 -0.49999998660252726 0.24999999330126363 0 -0.43301270575973649 1 I I -0.70710678118654746 0.70710678118654746 0.5 forward I I I I #
loop $-1 $-1 $170 $43 #
coedge $-1 $106 $106 $171 $172 reversed $67 $-1 #
face $-1 $-1 $173 $35 $-1 $174 forward single #
loop $-1 $175 $176 $69 #
cone-surface $-1 53.746231320166743 -1.4710941576193797 3.1448474580092203 -0.86602541151947299 0 -0.49999998660252726 0.24999999330126363 0 -0.43301270575973649 1 I I -0.70710678118654746 0.70710678118654746 0.5 forward I I I I #
loop $-1 $-1 $177 $44 #
coedge $-1 $111 $111 $178 $179 reversed $70 $-1 #
face $-1 $180 $181 $27 $-1 $182 reversed single #
loop $-1 $-1 $183 $72 #
plane-surface $-1 0 -30.279542790573821 0 0 1 0 0 0 1 forward_v I I I I #
coedge $-1 $184 $185 $186 $187 forward $73 $-1 #
coedge $-1 $188 $75 $189 $190 forward $46 $-1 #
coedge $-1 $75 $188 $191 $192 forward $46 $-1 #
coedge $-1 $193 $194 $75 $119 reversed $195 $-1 #
edge $-1 $196 -30.279542790573821 $197 30.279542790573821 $118 $198 forward 7 unknown #
face $-1 $199 $200 $28 $-1 $201 reversed single #
loop $-1 $-1 $202 $76 #
plane-surface $-1 0 0 7.8811642397438852 0 0 1 1 0 0 forward_v I I I I #
coedge $-1 $203 $204 $205 $206 reversed $77 $-1 #
coedge $-1 $207 $79 $208 $209 reversed $49 $-1 #
coedge $-1 $79 $207 $210 $211 reversed $49 $-1 #
coedge $-1 $204 $203 $79 $127 reversed $77 $-1 #
edge $-1 $212 -7.8811642397438852 $213 7.8811642397438852 $126 $214 forward 7 unknown #
face $-1 $215 $216 $29 $-1 $217 reversed single #
loop $-1 $-1 $218 $80 #
plane-surface $-1 0 0 -7.8811642397438852 0 0 1 1 0 0 forward_v I I I I #
coedge $-1 $219 $220 $221 $222 forward $81 $-1 #
coedge $-1 $221 $83 $223 $224 reversed $52 $-1 #
coedge $-1 $83 $221 $225 $226 reversed $52 $-1 #
coedge $-1 $227 $228 $83 $135 forward $216 $-1 #
edge $-1 $229 -7.8811642397438852 $230 7.8811642397438852 $134 $231 forward 7 unknown #
face $-1 $232 $233 $30 $-1 $234 forward single #
loop $-1 $-1 $235 $84 #
plane-surface $-1 0 0 7.8811642397438852 0 0 1 1 0 0 forward_v I I I I #
coedge $-1 $236 $237 $238 $239 reversed $85 $-1 #
coedge $-1 $240 $87 $241 $242 reversed $55 $-1 #
coedge $-1 $87 $240 $236 $243 forward $55 $-1 #
coedge $-1 $238 $244 $87 $143 forward $245 $-1 #
edge $-1 $246 -12.563524811994732 $247 -2.3397222643007467 $142 $248 forward 7 unknown #
loop $-1 $-1 $149 $88 #
plane-surface $-1 -57.50175481429487 14.903247076295479 1.9316402690743502 -0.7660444514056185 0 0.64278759981090561 0.64278759981090561 0 0.7660444514056185 forward_v I I I I #
loop $-1 $-1 $249 $57 #
coedge $-1 $147 $147 $148 $250 reversed $89 $-1 #
coedge $-1 $148 $148 $147 $250 forward $91 $-1 #
coedge $-1 $149 $149 $92 $150 forward $144 $-1 #
edge $-1 $251 0 $251 6.2831853071796004 $149 $252 forward 7 unknown #
loop $-1 $-1 $156 $93 #
plane-surface $-1 -57.50175481429487 14.903247076295479 1.9316402690743502 -0.7660444514056185 0 0.64278759981090561 0.64278759981090561 0 0.7660444514056185 forward_v I I I I #
loop $-1 $-1 $253 $60 #
coedge $-1 $154 $154 $155 $254 reversed $94 $-1 #
coedge $-1 $155 $155 $154 $254 forward $96 $-1 #
coedge $-1 $156 $156 $97 $157 forward $151 $-1 #
edge $-1 $255 0 $255 6.2831853071796004 $156 $256 forward 7 unknown #
face $-1 $257 $258 $33 $-1 $259 reversed single #
loop $-1 $-1 $260 $98 #
plane-surface $-1 99.595963293039503 -8.1126949372885448 157.27468646406174 0 1 0 0.86602541151947299 0 0.49999998660252726 forward_v I I I I #
coedge $-1 $261 $262 $263 $264 reversed $99 $-1 #
coedge $-1 $163 $101 $265 $266 reversed $64 $-1 #
coedge $-1 $101 $162 $261 $267 reversed $64 $-1 #
coedge $-1 $263 $268 $101 $165 forward $269 $-1 #
edge $-1 $270 -7.7037731677751182 $271 -3.2557555388506998 $164 $272 forward 7 unknown #
loop $-1 $-1 $171 $102 #
plane-surface $-1 1.540756400686405e-006 -3.4635743915201296 99.772933190523261 0.86602541151947299 0 0.49999998660252726 0.49999998660252726 0 -0.86602541151947299 forward_v I I I I #
loop $-1 $-1 $273 $66 #
coedge $-1 $169 $169 $170 $274 reversed $103 $-1 #
coedge $-1 $170 $170 $169 $274 forward $105 $-1 #
coedge $-1 $171 $171 $106 $172 forward $166 $-1 #
edge $-1 $275 0 $275 6.2831853071796004 $171 $276 forward 7 unknown #
loop $-1 $-1 $178 $107 #
plane-surface $-1 1.540756400686405e-006 -3.4635743915201296 99.772933190523261 0.86602541151947299 0 0.49999998660252726 0.49999998660252726 0 -0.86602541151947299 forward_v I I I I #
loop $-1 $-1 $277 $69 #
coedge $-1 $176 $176 $177 $278 reversed $108 $-1 #
coedge $-1 $177 $177 $176 $278 forward $110 $-1 #
coedge $-1 $178 $178 $111 $179 forward $173 $-1 #
edge $-1 $279 0 $279 6.2831853071796004 $178 $280 forward 7 unknown #
face $-1 $281 $282 $27 $-1 $283 reversed single #
loop $-1 $-1 $284 $112 #
plane-surface $-1 -57.50175481429487 0 0 1 0 0 0 0 -1 forward_v I I I I #
coedge $-1 $285 $191 $286 $287 forward $113 $-1 #
coedge $-1 $288 $115 $285 $289 forward $73 $-1 #
coedge $-1 $115 $288 $290 $291 forward $73 $-1 #
coedge $-1 $194 $193 $115 $187 reversed $195 $-1 #
edge $-1 $292 -30.279542790573821 $293 30.279542790573821 $186 $294 forward 7 unknown #
coedge $-1 $117 $116 $295 $296 forward $46 $-1 #
coedge $-1 $297 $298 $116 $190 reversed $282 $-1 #
edge $-1 $197 -57.50175481429487 $299 57.50175481429487 $189 $300 forward 7 unknown #
coedge $-1 $183 $301 $117 $192 reversed $113 $-1 #
edge $-1 $302 -57.50175481429487 $196 57.50175481429487 $191 $303 forward 7 unknown #
coedge $-1 $186 $118 $301 $304 forward $195 $-1 #
coedge $-1 $118 $186 $297 $305 reversed $195 $-1 #
loop $-1 $-1 $193 $281 #
vertex $-1 $119 $306 #
vertex $-1 $119 $307 #
straight-curve $-1 57.50175481429487 0 7.8811642397438852 0 1 0 I I #
face $-1 $308 $309 $28 $-1 $310 reversed single #
loop $-1 $-1 $311 $120 #
plane-surface $-1 -57.50175481429487 0 0 1 0 0 0 0 -1 forward_v I I I I #
coedge $-1 $210 $312 $204 $313 forward $121 $-1 #
coedge $-1 $126 $123 $314 $315 reversed $77 $-1 #
coedge $-1 $123 $126 $202 $313 reversed $77 $-1 #
coedge $-1 $316 $317 $123 $206 forward $318 $-1 #
edge $-1 $319 -7.8811642397438852 $320 7.8811642397438852 $205 $321 forward 7 unknown #
coedge $-1 $125 $124 $311 $322 reversed $49 $-1 #
coedge $-1 $314 $323 $124 $209 forward $309 $-1 #
edge $-1 $324 -29.70056407185329 $213 -25.901817413029871 $208 $325 forward 7 unknown #
coedge $-1 $326 $202 $125 $211 forward $121 $-1 #
edge $-1 $212 25.901817413029871 $327 29.70056407185329 $210 $328 forward 7 unknown #
vertex $-1 $211 $329 #
vertex $-1 $209 $330 #
straight-curve $-1 -53.703008155471451 -20.015148350142468 0 0 0 -1 I I #
face $-1 $331 $332 $29 $-1 $333 forward single #
loop $-1 $-1 $134 $128 #
plane-surface $-1 -57.50175481429487 0 0 1 0 0 0 0 -1 forward_v I I I I #
coedge $-1 $223 $334 $219 $335 forward $129 $-1 #
coedge $-1 $336 $131 $218 $335 reversed $81 $-1 #
coedge $-1 $131 $336 $337 $338 reversed $81 $-1 #
coedge $-1 $133 $132 $131 $222 reversed $52 $-1 #
edge $-1 $339 -7.8811642397438852 $340 7.8811642397438852 $131 $341 forward 7 unknown #
coedge $-1 $342 $218 $132 $224 forward $129 $-1 #
edge $-1 $340 25.901817413029871 $229 29.70056407185329 $223 $343 forward 7 unknown #
coedge $-1 $337 $344 $133 $226 forward $332 $-1 #
edge $-1 $230 -29.70056407185329 $339 -25.901817413029871 $225 $345 forward 7 unknown #
coedge $-1 $346 $134 $344 $347 reversed $216 $-1 #
coedge $-1 $134 $346 $342 $348 reversed $216 $-1 #
vertex $-1 $348 $349 #
vertex $-1 $135 $350 #
straight-curve $-1 -57.50175481429487 20.015148350142471 0 0 0 1 I I #
face $-1 $-1 $245 $30 $-1 $351 reversed single #
loop $-1 $-1 $241 $136 #
plane-surface $-1 -55.602381484883161 20.015148350142471 0 0 1 0 0 0 1 forward_v I I I I #
coedge $-1 $352 $353 $237 $354 forward $137 $-1 #
coedge $-1 $237 $139 $141 $243 reversed $85 $-1 #
coedge $-1 $139 $236 $235 $354 reversed $85 $-1 #
coedge $-1 $355 $142 $139 $239 forward $245 $-1 #
edge $-1 $247 -35.995594827458611 $356 -30.046070856789076 $238 $357 forward 7 unknown #
coedge $-1 $141 $140 $352 $358 reversed $55 $-1 #
coedge $-1 $359 $360 $140 $242 forward $233 $-1 #
edge $-1 $361 -7.8959662186942507 $246 -0.12941434333933047 $241 $362 forward 7 unknown #
edge $-1 $363 -7.7665518753549216 $247 0 $236 $364 forward 7 unknown #
coedge $-1 $142 $355 $359 $365 forward $245 $-1 #
loop $-1 $-1 $238 $232 #
vertex $-1 $242 $366 #
vertex $-1 $143 $367 #
straight-curve $-1 -57.50175481429487 7.4516235381477394 1.9316402690743473 0 -1 0 I I #
coedge $-1 $249 $249 $-1 $368 reversed $146 $-1 #
edge $-1 $369 0 $369 6.2831853071796004 $147 $370 forward 7 unknown #
vertex $-1 $150 $371 #
ellipse-curve $-1 -55.005633194911731 12.712432244646763 4.9064022544091195 -0.7660444514056185 0 0.64278759981090561 0.3213937999054528 0 0.38302222570280925 1 I I #
coedge $-1 $253 $253 $-1 $372 reversed $153 $-1 #
edge $-1 $373 0 $373 6.2831853071796004 $154 $374 forward 7 unknown #
vertex $-1 $157 $375 #
ellipse-curve $-1 -55.005633194911731 17.094061907944187 4.9064022544091195 -0.7660444514056185 0 0.64278759981090561 0.3213937999054528 0 0.38302222570280925 1 I I #
face $-1 $-1 $269 $33 $-1 $376 forward single #
loop $-1 $-1 $377 $158 #
plane-surface $-1 57.50175481429487 0 0 -1 0 0 0 0 1 forward_v I I I I #
coedge $-1 $378 $379 $380 $381 reversed $159 $-1 #
coedge $-1 $382 $161 $163 $267 forward $99 $-1 #
coedge $-1 $161 $382 $378 $383 forward $99 $-1 #
coedge $-1 $380 $164 $161 $264 forward $269 $-1 #
edge $-1 $271 -2.9173333500083505 $384 6.3809077415284801 $263 $385 forward 7 unknown #
coedge $-1 $386 $387 $162 $266 forward $258 $-1 #
edge $-1 $388 -78.460371793790685 $270 -70.756178992286991 $265 $389 forward 7 unknown #
edge $-1 $271 106.10747413237209 $388 115.00350962858971 $163 $390 forward 7 unknown #
coedge $-1 $164 $380 $386 $391 forward $269 $-1 #
loop $-1 $-1 $380 $257 #
vertex $-1 $266 $392 #
vertex $-1 $165 $393 #
straight-curve $-1 49.797981646519752 1.1855461542482857 7.8811642397438817 -1 0 0 I I #
coedge $-1 $273 $273 $-1 $394 reversed $168 $-1 #
edge $-1 $395 0 $395 6.2831853071796004 $169 $396 forward 7 unknown #
vertex $-1 $172 $397 #
ellipse-curve $-1 55.277745999832668 -5.4560546254208795 4.0290678389920238 0.86602541151947299 0 0.49999998660252726 0.49999998660252726 0 -0.86602541151947299 1 I I #
coedge $-1 $277 $277 $-1 $398 reversed $175 $-1 #
edge $-1 $399 0 $399 6.2831853071796004 $176 $400 forward 7 unknown #
vertex $-1 $179 $401 #
ellipse-curve $-1 55.277745999832668 -1.4710941576193797 4.0290678389920238 0.86602541151947299 0 0.49999998660252726 0.49999998660252726 0 -0.86602541151947299 1 I I #
face $-1 $-1 $195 $27 $-1 $402 reversed single #
loop $-1 $-1 $297 $180 #
plane-surface $-1 0 30.279542790573821 0 0 -1 0 0 0 -1 forward_v I I I I #
coedge $-1 $403 $295 $298 $404 forward $181 $-1 #
coedge $-1 $301 $183 $184 $289 reversed $113 $-1 #
coedge $-1 $295 $403 $183 $287 reversed $181 $-1 #
edge $-1 $302 -7.8811642397438852 $405 7.8811642397438852 $286 $406 forward 7 unknown #
coedge $-1 $185 $184 $403 $407 forward $73 $-1 #
edge $-1 $293 -57.50175481429487 $405 57.50175481429487 $285 $408 forward 7 unknown #
coedge $-1 $298 $297 $185 $291 reversed $282 $-1 #
edge $-1 $409 -57.50175481429487 $292 57.50175481429487 $290 $410 forward 7 unknown #
vertex $-1 $187 $411 #
vertex $-1 $304 $412 #
straight-curve $-1 57.50175481429487 0 -7.8811642397438852 0 -1 0 I I #
coedge $-1 $284 $286 $188 $296 reversed $181 $-1 #
edge $-1 $299 -30.279542790573821 $302 30.279542790573821 $295 $413 forward 7 unknown #
coedge $-1 $290 $189 $194 $305 forward $282 $-1 #
coedge $-1 $189 $290 $284 $404 reversed $282 $-1 #
vertex $-1 $190 $414 #
straight-curve $-1 0 30.279542790573821 7.8811642397438852 -1 0 0 I I #
coedge $-1 $191 $285 $193 $304 reversed $113 $-1 #
vertex $-1 $296 $415 #
straight-curve $-1 0 -30.279542790573821 7.8811642397438852 1 0 0 I I #
edge $-1 $196 -7.8811642397438852 $293 7.8811642397438852 $193 $416 forward 7 unknown #
edge $-1 $197 -7.8811642397438852 $292 7.8811642397438852 $194 $417 forward 7 unknown #
point $-1 57.50175481429487 -30.279542790573821 7.8811642397438852 #
point $-1 57.50175481429487 30.279542790573821 7.8811642397438852 #
face $-1 $-1 $318 $28 $-1 $418 reversed single #
loop $-1 $-1 $314 $199 #
plane-surface $-1 0 0 -7.8811642397438852 0 0 1 1 0 0 forward_v I I I I #
coedge $-1 $419 $420 $207 $322 forward $200 $-1 #
coedge $-1 $202 $326 $316 $421 forward $121 $-1 #
edge $-1 $320 -17.70587000539475 $212 -7.4414755649633957 $202 $422 forward 7 unknown #
coedge $-1 $423 $208 $203 $315 forward $309 $-1 #
edge $-1 $213 7.4414755649633957 $319 17.70587000539475 $314 $424 forward 7 unknown #
coedge $-1 $425 $205 $312 $421 reversed $318 $-1 #
coedge $-1 $205 $425 $423 $426 reversed $318 $-1 #
loop $-1 $-1 $205 $308 #
vertex $-1 $426 $427 #
vertex $-1 $206 $428 #
straight-curve $-1 -53.703008155471451 -30.279542790573821 0 0 0 1 I I #
edge $-1 $327 -7.8811642397438852 $324 7.8811642397438852 $311 $429 forward 7 unknown #
coedge $-1 $208 $423 $419 $430 forward $309 $-1 #
vertex $-1 $209 $431 #
straight-curve $-1 -27.80119074244158 -20.015148350142468 -7.8811642397438852 1 0 0 I I #
coedge $-1 $312 $210 $420 $432 forward $121 $-1 #
vertex $-1 $432 $433 #
straight-curve $-1 -27.80119074244158 -20.015148350142468 7.8811642397438852 -1 0 0 I I #
point $-1 -53.703008155471451 -20.015148350142468 7.8811642397438852 #
point $-1 -53.703008155471451 -20.015148350142468 -7.8811642397438852 #
face $-1 $-1 $434 $29 $-1 $435 reversed single #
loop $-1 $-1 $337 $215 #
plane-surface $-1 0 0 7.8811642397438852 0 0 1 1 0 0 forward_v I I I I #
coedge $-1 $218 $342 $436 $437 forward $129 $-1 #
edge $-1 $438 -17.70587000539475 $340 -7.4414755649633975 $218 $439 forward 7 unknown #
coedge $-1 $220 $219 $440 $441 reversed $81 $-1 #
coedge $-1 $442 $225 $220 $338 forward $332 $-1 #
edge $-1 $339 7.4414755649633975 $443 17.70587000539475 $337 $444 forward 7 unknown #
vertex $-1 $226 $445 #
vertex $-1 $224 $446 #
straight-curve $-1 -53.703008155471451 20.015148350142471 0 0 0 -1 I I #
coedge $-1 $334 $223 $228 $348 forward $129 $-1 #
straight-curve $-1 -27.80119074244158 20.015148350142471 -7.8811642397438852 -1 0 0 I I #
coedge $-1 $225 $442 $227 $347 forward $332 $-1 #
straight-curve $-1 -27.80119074244158 20.015148350142471 7.8811642397438852 1 0 0 I I #
coedge $-1 $228 $227 $447 $448 forward $216 $-1 #
edge $-1 $449 -30.279542790573821 $230 -20.015148350142471 $227 $450 forward 7 unknown #
edge $-1 $229 20.015148350142471 $451 30.279542790573821 $228 $452 forward 7 unknown #
point $-1 -57.50175481429487 20.015148350142471 -7.8811642397438852 #
point $-1 -57.50175481429487 20.015148350142471 7.8811642397438852 #
plane-surface $-1 -57.50175481429487 0 0 1 0 0 0 0 -1 forward_v I I I I #
coedge $-1 $453 $235 $240 $358 forward $137 $-1 #
coedge $-1 $235 $453 $355 $454 forward $137 $-1 #
edge $-1 $356 15.298022814429459 $363 20.290266053195737 $235 $455 forward 7 unknown #
coedge $-1 $244 $238 $353 $454 reversed $245 $-1 #
vertex $-1 $239 $456 #
straight-curve $-1 -57.50175481429487 9.7913458024484861 37.927235096532961 0 0 1 I I #
edge $-1 $363 2.3397222643007467 $361 12.563524811994732 $352 $457 forward 7 unknown #
coedge $-1 $360 $241 $244 $365 reversed $233 $-1 #
coedge $-1 $241 $359 $453 $458 reversed $233 $-1 #
vertex $-1 $458 $459 #
straight-curve $-1 -57.584940749431063 20.015148350142471 1.8325031294269545 -0.64278759981090572 0 -0.76604445140561861 I I #
vertex $-1 $358 $460 #
straight-curve $-1 -57.50175481429487 9.7913458024484861 1.9316402690743502 -0.64278759981090561 0 -0.7660444514056185 I I #
edge $-1 $461 -7.8811642397438852 $246 -1.9316402690743502 $244 $462 forward 7 unknown #
point $-1 -57.50175481429487 20.015148350142471 1.9316402690743502 #
point $-1 -57.50175481429487 9.7913458024484861 1.9316402690743502 #
edge $-1 $463 1 $463 0 $249 $-1 forward 7 unknown #
vertex $-1 $250 $464 #
ellipse-curve $-1 -54.239588743506104 12.712432244646763 4.2636146545982081 -0.7660444514056185 0 0.64278759981090561 0.3213937999054528 0 0.38302222570280925 1 I I #
point $-1 -54.684239395006273 12.712432244646763 5.289424480111923 #
edge $-1 $465 1 $465 0 $253 $-1 forward 7 unknown #
vertex $-1 $254 $466 #
ellipse-curve $-1 -54.239588743506104 17.094061907944187 4.2636146545982081 -0.7660444514056185 0 0.64278759981090561 0.3213937999054528 0 0.38302222570280925 1 I I #
point $-1 -54.684239395006273 17.094061907944187 5.289424480111923 #
plane-surface $-1 0 0 7.8811642397438852 0 0 1 1 0 0 forward_v I I I I #
coedge $-1 $387 $386 $379 $467 forward $258 $-1 #
coedge $-1 $379 $260 $262 $383 reversed $159 $-1 #
coedge $-1 $260 $378 $377 $467 reversed $159 $-1 #
coedge $-1 $268 $263 $260 $381 forward $269 $-1 #
edge $-1 $384 3.2557555388506998 $468 7.7037731677751182 $380 $469 forward 7 unknown #
coedge $-1 $262 $261 $387 $470 reversed $99 $-1 #
edge $-1 $471 -115.00350962858971 $384 -106.10747413237209 $378 $472 forward 7 unknown #
vertex $-1 $264 $473 #
straight-curve $-1 53.053737185370451 -1.7317871957600648 7.8811642397438817 0 -1 0 I I #
coedge $-1 $377 $265 $268 $391 reversed $258 $-1 #
coedge $-1 $265 $377 $382 $470 forward $258 $-1 #
vertex $-1 $266 $474 #
straight-curve $-1 57.50175481429487 1.1855461542482857 78.637343232030872 0 0 1 I I #
straight-curve $-1 1.540756400686405e-006 1.1855461542482857 99.772933190523261 0.49999998660252726 0 -0.86602541151947299 I I #
edge $-1 $468 -8.1126949372885448 $270 1.1855461542482857 $386 $475 forward 7 unknown #
point $-1 57.50175481429487 1.1855461542482857 7.8811642397438852 #
point $-1 53.053737185370451 1.1855461542482857 7.8811642397438817 #
edge $-1 $476 1 $476 0 $273 $-1 forward 7 unknown #
vertex $-1 $274 $477 #
ellipse-curve $-1 54.179244025926479 -5.4560546254208795 3.394847451310484 0.86602541151947299 0 0.49999998660252726 0.49999998660252726 0 -0.86602541151947299 1 I I #
point $-1 55.777745986435185 -5.4560546254208795 3.1630424274725453 #
edge $-1 $478 1 $478 0 $277 $-1 forward 7 unknown #
vertex $-1 $278 $479 #
ellipse-curve $-1 54.179244025926479 -1.4710941576193797 3.394847451310484 0.86602541151947299 0 0.49999998660252726 0.49999998660252726 0 -0.86602541151947299 1 I I #
point $-1 55.777745986435185 -1.4710941576193797 3.1630424274725453 #
plane-surface $-1 57.50175481429487 0 0 -1 0 0 0 0 1 forward_v I I I I #
coedge $-1 $286 $284 $288 $407 reversed $181 $-1 #
edge $-1 $299 -7.8811642397438852 $409 7.8811642397438852 $298 $480 forward 7 unknown #
vertex $-1 $407 $481 #
straight-curve $-1 -57.50175481429487 -30.279542790573821 0 0 0 -1 I I #
edge $-1 $405 -30.279542790573821 $409 30.279542790573821 $403 $482 forward 7 unknown #
straight-curve $-1 0 -30.279542790573821 -7.8811642397438852 -1 0 0 I I #
vertex $-1 $291 $483 #
straight-curve $-1 0 30.279542790573821 -7.8811642397438852 1 0 0 I I #
point $-1 57.50175481429487 30.279542790573821 -7.8811642397438852 #
point $-1 57.50175481429487 -30.279542790573821 -7.8811642397438852 #
straight-curve $-1 -57.50175481429487 0 7.8811642397438852 0 -1 0 I I #
point $-1 -57.50175481429487 30.279542790573821 7.8811642397438852 #
point $-1 -57.50175481429487 -30.279542790573821 7.8811642397438852 #
straight-curve $-1 57.50175481429487 -30.279542790573821 0 0 0 -1 I I #
straight-curve $-1 57.50175481429487 30.279542790573821 0 0 0 -1 I I #
plane-surface $-1 0 -30.279542790573821 0 0 1 0 0 0 1 forward_v I I I I #
coedge $-1 $484 $311 $323 $430 reversed $200 $-1 #
coedge $-1 $311 $484 $326 $432 reversed $200 $-1 #
edge $-1 $485 -57.50175481429487 $320 -53.703008155471451 $316 $486 forward 7 unknown #
straight-curve $-1 -53.703008155471451 -12.573672785179072 7.8811642397438852 0 1 0 I I #
coedge $-1 $323 $314 $317 $426 forward $309 $-1 #
straight-curve $-1 -53.703008155471451 -12.573672785179072 -7.8811642397438852 0 -1 0 I I #
coedge $-1 $317 $316 $484 $487 forward $318 $-1 #
edge $-1 $319 53.703008155471451 $488 57.50175481429487 $317 $489 forward 7 unknown #
point $-1 -53.703008155471451 -30.279542790573821 -7.8811642397438852 #
point $-1 -53.703008155471451 -30.279542790573821 7.8811642397438852 #
straight-curve $-1 -57.50175481429487 -20.015148350142468 0 0 0 -1 I I #
edge $-1 $488 -30.279542790573821 $324 -20.015148350142468 $419 $490 forward 7 unknown #
point $-1 -57.50175481429487 -20.015148350142468 -7.8811642397438852 #
edge $-1 $327 20.015148350142468 $485 30.279542790573821 $420 $491 forward 7 unknown #
point $-1 -57.50175481429487 -20.015148350142468 7.8811642397438852 #
loop $-1 $-1 $440 $331 #
plane-surface $-1 0 30.279542790573821 0 0 -1 0 0 0 -1 forward_v I I I I #
coedge $-1 $447 $440 $334 $437 reversed $434 $-1 #
edge $-1 $451 -57.50175481429487 $438 -53.703008155471451 $436 $492 forward 7 unknown #
vertex $-1 $335 $493 #
straight-curve $-1 -53.703008155471451 12.573672785179074 -7.8811642397438852 0 -1 0 I I #
coedge $-1 $436 $494 $336 $441 forward $434 $-1 #
edge $-1 $443 -7.8811642397438852 $438 7.8811642397438852 $440 $495 forward 7 unknown #
coedge $-1 $344 $337 $494 $496 forward $332 $-1 #
vertex $-1 $496 $497 #
straight-curve $-1 -53.703008155471451 12.573672785179074 7.8811642397438852 0 1 0 I I #
point $-1 -53.703008155471451 20.015148350142471 7.8811642397438852 #
point $-1 -53.703008155471451 20.015148350142471 -7.8811642397438852 #
coedge $-1 $494 $436 $346 $448 reversed $434 $-1 #
edge $-1 $449 -7.8811642397438852 $451 7.8811642397438852 $447 $498 forward 7 unknown #
vertex $-1 $496 $499 #
straight-curve $-1 -57.50175481429487 0 7.8811642397438852 0 -1 0 I I #
vertex $-1 $437 $500 #
straight-curve $-1 -57.50175481429487 0 -7.8811642397438852 0 1 0 I I #
coedge $-1 $353 $352 $360 $458 forward $137 $-1 #
edge $-1 $461 -20.015148350142471 $356 -9.7913458024484861 $355 $501 forward 7 unknown #
straight-curve $-1 -72.799777628724328 9.7913458024484861 7.8811642397438817 1 0 0 I I #
point $-1 -57.50175481429487 9.7913458024484861 7.8811642397438852 #
straight-curve $-1 -52.509511575528592 7.4516235381477394 7.8811642397438852 0 1 0 I I #
edge $-1 $361 24.708320833087011 $461 29.70056407185329 $453 $502 forward 7 unknown #
point $-1 -52.509511575528592 20.015148350142471 7.8811642397438852 #
point $-1 -52.509511575528592 9.7913458024484861 7.8811642397438852 #
vertex $-1 $454 $503 #
straight-curve $-1 -57.50175481429487 20.015148350142471 0 0 0 -1 I I #
vertex $-1 $368 $504 #
point $-1 -53.918194943600653 12.712432244646763 4.646636880301017 #
vertex $-1 $372 $505 #
point $-1 -53.918194943600653 17.094061907944187 4.646636880301017 #
edge $-1 $468 70.756178992286991 $471 78.460371793790685 $377 $506 forward 7 unknown #
vertex $-1 $391 $507 #
straight-curve $-1 49.797981646519752 -8.1126949372885448 7.8811642397438817 1 0 0 I I #
edge $-1 $471 -6.3809077415284801 $388 2.9173333500083505 $387 $508 forward 7 unknown #
vertex $-1 $470 $509 #
straight-curve $-1 1.540756400686405e-006 -8.1126949372885448 99.772933190523261 -0.49999998660252726 0 0.86602541151947299 I I #
point $-1 53.053737185370451 -8.1126949372885448 7.8811642397438817 #
point $-1 57.50175481429487 1.1855461542482857 0.17697143824018724 #
straight-curve $-1 57.50175481429487 0 7.8811642397438852 0 1 0 I I #
vertex $-1 $394 $510 #
point $-1 54.679244012529004 -5.4560546254208795 2.5288220397910108 #
vertex $-1 $398 $511 #
point $-1 54.679244012529004 -1.4710941576193797 2.5288220397910108 #
straight-curve $-1 -57.50175481429487 30.279542790573821 0 0 0 -1 I I #
point $-1 -57.50175481429487 -30.279542790573821 -7.8811642397438852 #
straight-curve $-1 -57.50175481429487 0 -7.8811642397438852 0 1 0 I I #
point $-1 -57.50175481429487 30.279542790573821 -7.8811642397438852 #
coedge $-1 $420 $419 $425 $487 reversed $200 $-1 #
vertex $-1 $432 $512 #
straight-curve $-1 0 -30.279542790573821 7.8811642397438852 1 0 0 I I #
edge $-1 $485 -7.8811642397438852 $488 7.8811642397438852 $484 $513 forward 7 unknown #
vertex $-1 $430 $514 #
straight-curve $-1 0 -30.279542790573821 -7.8811642397438852 -1 0 0 I I #
straight-curve $-1 -57.50175481429487 0 -7.8811642397438852 0 1 0 I I #
straight-curve $-1 -57.50175481429487 0 7.8811642397438852 0 -1 0 I I #
straight-curve $-1 0 30.279542790573821 -7.8811642397438852 1 0 0 I I #
point $-1 -53.703008155471451 30.279542790573824 -7.8811642397438852 #
coedge $-1 $440 $447 $442 $496 reversed $434 $-1 #
straight-curve $-1 -53.703008155471451 30.279542790573821 0 0 0 -1 I I #
edge $-1 $443 53.703008155471451 $449 57.50175481429487 $494 $515 forward 7 unknown #
point $-1 -53.703008155471451 30.279542790573824 7.8811642397438852 #
straight-curve $-1 -57.50175481429487 30.279542790573821 0 0 0 -1 I I #
point $-1 -57.50175481429487 30.279542790573821 7.8811642397438852 #
point $-1 -57.50175481429487 30.279542790573821 -7.8811642397438852 #
straight-curve $-1 -57.50175481429487 0 7.8811642397438852 0 -1 0 I I #
straight-curve $-1 -27.80119074244158 20.015148350142471 7.8811642397438852 -1 0 0 I I #
point $-1 -57.50175481429487 20.015148350142471 7.8811642397438852 #
point $-1 -53.856566517803302 12.712432244646763 3.9422208546927555 #
point $-1 -53.856566517803302 17.094061907944187 3.9422208546927555 #
straight-curve $-1 57.50175481429487 -8.1126949372885448 78.637343232030872 0 0 -1 I I #
point $-1 57.50175481429487 -8.1126949372885448 7.8811642397438852 #
straight-curve $-1 57.50175481429487 -1.7317871957600648 0.17697143824018013 0 1 0 I I #
point $-1 57.50175481429487 -8.1126949372885448 0.17697143824018724 #
point $-1 53.313218614407006 -5.4560546254208795 2.8948474647079565 #
point $-1 53.313218614407006 -1.4710941576193797 2.8948474647079565 #
point $-1 -57.50175481429487 -30.279542790573821 7.8811642397438852 #
straight-curve $-1 -57.50175481429487 -30.279542790573821 0 0 0 -1 I I #
point $-1 -57.50175481429487 -30.279542790573821 -7.8811642397438852 #
straight-curve $-1 0 30.279542790573821 7.8811642397438852 -1 0 0 I I #
End-of-ACIS-data 