500 0 5 0           
7 Unknown 11 ACIS 5.0 NT 24 Thu Mar 25 20:27:53 1999 
-1 9.9999999999999995e-007 1e-010 
body $-1 $5 $-1 $6 #
body $-1 $7 $-1 $8 #
body $-1 $9 $-1 $10 #
body $-1 $11 $-1 $12 #
body $-1 $13 $-1 $14 #
lump $-1 $-1 $15 $0 #
transform $-1 1 0 0 0 1 0 0 0 1 42.540360728782005 29.367740041430679 9.7088223143040864 1 rotate no_reflect no_shear #
lump $-1 $-1 $16 $1 #
transform $-1 1 0 0 0 1 0 0 0 1 42.540360728782005 29.367740041430679 9.7088223143040864 1 rotate no_reflect no_shear #
lump $-1 $-1 $17 $2 #
transform $-1 1 0 0 0 1 0 0 0 1 42.540360728782005 29.367740041430679 9.7088223143040864 1 rotate no_reflect no_shear #
lump $-1 $-1 $18 $3 #
transform $-1 1 0 0 0 1 0 0 0 1 42.540360728782005 29.367740041430679 9.7088223143040864 1 rotate no_reflect no_shear #
lump $-1 $-1 $19 $4 #
transform $-1 1 0 0 0 1 0 0 0 1 42.540360728782005 29.367740041430679 9.7088223143040864 1 rotate no_reflect no_shear #
shell $-1 $-1 $-1 $20 $-1 $5 #
shell $-1 $-1 $-1 $21 $-1 $7 #
shell $-1 $-1 $-1 $22 $-1 $9 #
shell $-1 $-1 $-1 $23 $-1 $11 #
shell $-1 $-1 $-1 $24 $-1 $13 #
face $-1 $25 $26 $15 $-1 $27 forward single #
face $-1 $28 $29 $16 $-1 $30 forward single #
face $-1 $31 $32 $17 $-1 $33 forward single #
face $-1 $34 $35 $18 $-1 $36 reversed single #
face $-1 $37 $38 $19 $-1 $39 forward single #
face $-1 $40 $41 $15 $-1 $42 reversed single #
loop $-1 $-1 $43 $20 #
plane-surface $-1 0 0 9.7088223143040864 0 0 1 1 0 0 forward_v I I I I #
face $-1 $44 $45 $16 $-1 $46 reversed single #
loop $-1 $-1 $47 $21 #
plane-surface $-1 0 -29.367740041430679 0 0 1 0 0 0 1 forward_v I I I I #
face $-1 $48 $49 $17 $-1 $50 reversed single #
loop $-1 $-1 $51 $22 #
plane-surface $-1 0 29.367740041430679 0 0 -1 0 0 0 -1 forward_v I I I I #
face $-1 $52 $53 $18 $-1 $54 reversed single #
loop $-1 $-1 $55 $23 #
plane-surface $-1 29.963255751945567 20.889944366513557 125.867916518192 0 -1 0 -0.62932039886446345 0 -0.77714595512881146 forward_v I I I I #
face $-1 $56 $57 $19 $-1 $58 forward single #
loop $-1 $59 $60 $24 #
cone-surface $-1 39.502989897325094 15.735252868621856 6.8777512955818692 -0.62932039886446345 0 -0.77714595512881146 0.77714595512881146 0 -0.62932039886446345 1 I I 0 1 1 forward I I I I #
face $-1 $61 $62 $15 $-1 $63 reversed single #
loop $-1 $-1 $64 $25 #
plane-surface $-1 0 0 -9.7088223143040864 0 0 1 1 0 0 forward_v I I I I #
coedge $-1 $65 $66 $67 $68 forward $26 $-1 #
face $-1 $69 $70 $16 $-1 $71 forward single #
loop $-1 $-1 $72 $28 #
plane-surface $-1 -42.540360728782005 0 0 1 0 0 0 0 -1 forward_v I I I I #
coedge $-1 $73 $74 $75 $76 forward $29 $-1 #
face $-1 $77 $78 $17 $-1 $79 forward single #
loop $-1 $-1 $80 $31 #
plane-surface $-1 42.540360728782005 0 0 -1 0 0 0 0 1 forward_v I I I I #
coedge $-1 $81 $82 $83 $84 forward $32 $-1 #
face $-1 $85 $86 $18 $-1 $87 reversed single #
loop $-1 $-1 $88 $34 #
plane-surface $-1 -23.579777811404931 15.735252868621856 59.747777978005061 0.62932039886446345 0 0.77714595512881146 0.77714595512881146 0 -0.62932039886446345 forward_v I I I I #
coedge $-1 $89 $90 $91 $92 reversed $35 $-1 #
face $-1 $-1 $93 $19 $-1 $94 forward single #
loop $-1 $95 $96 $37 #
cone-surface $-1 38.314546739229016 15.735252868621856 5.410146249120011 -0.62932039886446345 0 -0.77714595512881146 0.38857297756440573 0 -0.31466019943223172 1 I I -0.70710678118654746 0.70710678118654746 0.5 forward I I I I #
loop $-1 $-1 $97 $24 #
coedge $-1 $60 $60 $98 $99 reversed $38 $-1 #
face $-1 $100 $101 $15 $-1 $102 reversed single #
loop $-1 $-1 $103 $40 #
plane-surface $-1 0 -29.367740041430679 0 0 1 0 0 0 1 forward_v I I I I #
coedge $-1 $104 $105 $106 $107 forward $41 $-1 #
coedge $-1 $108 $43 $109 $110 forward $26 $-1 #
coedge $-1 $43 $108 $111 $112 forward $26 $-1 #
coedge $-1 $113 $114 $43 $68 reversed $115 $-1 #
edge $-1 $116 -29.367740041430679 $117 29.367740041430679 $67 $118 forward 7 unknown #
face $-1 $119 $120 $16 $-1 $121 reversed single #
loop $-1 $-1 $122 $44 #
plane-surface $-1 0 -33.606637878889238 7.8880355294180129 0 0 1 1 0 0 forward_v I I I I #
coedge $-1 $123 $124 $74 $125 forward $45 $-1 #
coedge $-1 $126 $47 $127 $128 reversed $29 $-1 #
coedge $-1 $47 $126 $72 $125 reversed $29 $-1 #
coedge $-1 $129 $122 $47 $76 reversed $70 $-1 #
edge $-1 $130 -42.540360728782005 $131 42.540360728782005 $75 $132 forward 7 unknown #
face $-1 $133 $134 $17 $-1 $135 reversed single #
loop $-1 $-1 $136 $48 #
plane-surface $-1 0 33.606637878889238 7.8880355294180129 0 0 1 1 0 0 forward_v I I I I #
coedge $-1 $137 $138 $82 $139 forward $49 $-1 #
coedge $-1 $140 $51 $141 $142 reversed $32 $-1 #
coedge $-1 $51 $140 $80 $139 reversed $32 $-1 #
coedge $-1 $136 $143 $51 $84 reversed $78 $-1 #
edge $-1 $144 -42.540360728782005 $145 42.540360728782005 $83 $146 forward 7 unknown #
face $-1 $147 $148 $18 $-1 $149 forward single #
loop $-1 $-1 $150 $52 #
plane-surface $-1 29.963255751945567 10.580561370730155 125.867916518192 0 1 0 0.62932039886446345 0 0.77714595512881146 forward_v I I I I #
coedge $-1 $151 $152 $153 $154 reversed $53 $-1 #
coedge $-1 $90 $55 $155 $156 reversed $35 $-1 #
coedge $-1 $55 $89 $151 $157 reversed $35 $-1 #
coedge $-1 $153 $158 $55 $92 forward $148 $-1 #
edge $-1 $159 -27.558732852809221 $160 -23.231557107223111 $91 $161 forward 7 unknown #
loop $-1 $-1 $98 $56 #
plane-surface $-1 -23.579777811404931 15.735252868621856 59.747777978005061 0.62932039886446345 0 0.77714595512881146 0.77714595512881146 0 -0.62932039886446345 forward_v I I I I #
loop $-1 $-1 $162 $37 #
coedge $-1 $96 $96 $97 $163 reversed $57 $-1 #
coedge $-1 $97 $97 $96 $163 forward $59 $-1 #
coedge $-1 $98 $98 $60 $99 forward $93 $-1 #
edge $-1 $164 0 $164 6.2831853071796004 $98 $165 forward 7 unknown #
face $-1 $166 $167 $15 $-1 $168 reversed single #
loop $-1 $-1 $169 $61 #
plane-surface $-1 -42.540360728782005 0 0 1 0 0 0 0 -1 forward_v I I I I #
coedge $-1 $170 $111 $171 $172 forward $62 $-1 #
coedge $-1 $173 $64 $170 $174 forward $41 $-1 #
coedge $-1 $64 $173 $175 $176 forward $41 $-1 #
coedge $-1 $114 $113 $64 $107 reversed $115 $-1 #
edge $-1 $177 -29.367740041430679 $178 29.367740041430679 $106 $179 forward 7 unknown #
coedge $-1 $66 $65 $180 $181 forward $26 $-1 #
coedge $-1 $182 $183 $65 $110 reversed $167 $-1 #
edge $-1 $117 -42.540360728782005 $184 42.540360728782005 $109 $185 forward 7 unknown #
coedge $-1 $103 $186 $66 $112 reversed $62 $-1 #
edge $-1 $187 -42.540360728782005 $116 42.540360728782005 $111 $188 forward 7 unknown #
coedge $-1 $106 $67 $186 $189 forward $115 $-1 #
coedge $-1 $67 $106 $182 $190 reversed $115 $-1 #
loop $-1 $-1 $113 $166 #
vertex $-1 $68 $191 #
vertex $-1 $68 $192 #
straight-curve $-1 42.540360728782005 0 9.7088223143040864 0 1 0 I I #
face $-1 $193 $194 $16 $-1 $195 reversed single #
loop $-1 $-1 $196 $69 #
plane-surface $-1 0 -33.606637878889238 4.8880355294180111 0 0 1 1 0 0 forward_v I I I I #
coedge $-1 $75 $197 $198 $199 forward $70 $-1 #
coedge $-1 $200 $72 $201 $202 reversed $45 $-1 #
coedge $-1 $72 $200 $129 $203 reversed $45 $-1 #
edge $-1 $130 -7.8880355294180129 $204 -4.8880355294180111 $72 $205 forward 7 unknown #
coedge $-1 $74 $73 $206 $207 forward $29 $-1 #
coedge $-1 $198 $208 $73 $128 forward $209 $-1 #
edge $-1 $210 4.8880355294180111 $131 7.8880355294180129 $127 $211 forward 7 unknown #
coedge $-1 $197 $75 $124 $203 forward $70 $-1 #
vertex $-1 $125 $212 #
vertex $-1 $199 $213 #
straight-curve $-1 0 -29.367740041430679 7.8880355294180129 1 0 0 I I #
face $-1 $214 $215 $17 $-1 $216 reversed single #
loop $-1 $-1 $217 $77 #
plane-surface $-1 0 33.606637878889238 4.8880355294180111 0 0 1 1 0 0 forward_v I I I I #
coedge $-1 $218 $83 $138 $219 forward $78 $-1 #
coedge $-1 $220 $80 $217 $221 reversed $49 $-1 #
coedge $-1 $80 $220 $136 $219 reversed $49 $-1 #
edge $-1 $144 -7.8880355294180129 $222 -4.8880355294180111 $80 $223 forward 7 unknown #
coedge $-1 $82 $81 $224 $225 forward $32 $-1 #
coedge $-1 $226 $227 $81 $142 forward $228 $-1 #
edge $-1 $229 4.8880355294180111 $145 7.8880355294180129 $141 $230 forward 7 unknown #
coedge $-1 $83 $218 $226 $231 forward $78 $-1 #
vertex $-1 $139 $232 #
vertex $-1 $231 $233 #
straight-curve $-1 0 29.367740041430679 7.8880355294180129 -1 0 0 I I #
face $-1 $-1 $234 $18 $-1 $235 reversed single #
loop $-1 $-1 $91 $85 #
plane-surface $-1 0 0 9.7088223143040864 0 0 1 1 0 0 forward_v I I I I #
coedge $-1 $236 $237 $238 $239 reversed $86 $-1 #
coedge $-1 $240 $88 $90 $157 forward $53 $-1 #
coedge $-1 $88 $240 $236 $241 forward $53 $-1 #
coedge $-1 $238 $91 $88 $154 forward $148 $-1 #
edge $-1 $160 -13.022317932202629 $242 -2.7129349364192272 $153 $243 forward 7 unknown #
coedge $-1 $244 $245 $89 $156 forward $234 $-1 #
edge $-1 $246 -56.729213844441418 $159 -53.225135944791916 $155 $247 forward 7 unknown #
edge $-1 $160 79.512686628290666 $246 85.080721457563982 $90 $248 forward 7 unknown #
coedge $-1 $91 $238 $244 $249 forward $148 $-1 #
vertex $-1 $156 $250 #
vertex $-1 $92 $251 #
straight-curve $-1 14.981627875972784 20.889944366513557 9.7088223143040864 -1 0 0 I I #
coedge $-1 $162 $162 $-1 $252 reversed $95 $-1 #
edge $-1 $253 0 $253 6.2831853071796004 $96 $254 forward 7 unknown #
vertex $-1 $99 $255 #
ellipse-curve $-1 40.376772855988946 15.735252868621856 7.9567833644793353 0.62932039886446345 0 0.77714595512881146 0.77714595512881146 0 -0.62932039886446345 1 I I #
face $-1 $-1 $115 $15 $-1 $256 reversed single #
loop $-1 $-1 $183 $100 #
plane-surface $-1 0 29.367740041430679 0 0 -1 0 0 0 -1 forward_v I I I I #
coedge $-1 $257 $180 $183 $258 forward $101 $-1 #
coedge $-1 $186 $103 $104 $174 reversed $62 $-1 #
coedge $-1 $180 $257 $103 $172 reversed $101 $-1 #
edge $-1 $187 -9.7088223143040864 $259 9.7088223143040864 $171 $260 forward 7 unknown #
coedge $-1 $105 $104 $257 $261 forward $41 $-1 #
edge $-1 $178 -42.540360728782005 $259 42.540360728782005 $170 $262 forward 7 unknown #
coedge $-1 $183 $182 $105 $176 reversed $167 $-1 #
edge $-1 $263 -42.540360728782005 $177 42.540360728782005 $175 $264 forward 7 unknown #
vertex $-1 $107 $265 #
vertex $-1 $189 $266 #
straight-curve $-1 42.540360728782005 0 -9.7088223143040864 0 -1 0 I I #
coedge $-1 $169 $171 $108 $181 reversed $101 $-1 #
edge $-1 $184 -29.367740041430679 $187 29.367740041430679 $180 $267 forward 7 unknown #
coedge $-1 $175 $109 $114 $190 forward $167 $-1 #
coedge $-1 $109 $175 $169 $258 reversed $167 $-1 #
vertex $-1 $110 $268 #
straight-curve $-1 0 29.367740041430679 9.7088223143040864 -1 0 0 I I #
coedge $-1 $111 $170 $113 $189 reversed $62 $-1 #
vertex $-1 $181 $269 #
straight-curve $-1 0 -29.367740041430679 9.7088223143040864 1 0 0 I I #
edge $-1 $116 -9.7088223143040864 $178 9.7088223143040864 $113 $270 forward 7 unknown #
edge $-1 $117 -9.7088223143040864 $177 9.7088223143040864 $114 $271 forward 7 unknown #
point $-1 42.540360728782005 -29.367740041430679 9.7088223143040864 #
point $-1 42.540360728782005 29.367740041430679 9.7088223143040864 #
face $-1 $-1 $209 $16 $-1 $272 reversed single #
loop $-1 $-1 $273 $119 #
plane-surface $-1 0 -37.845535716347797 6.388035529418012 0 1 0 0 0 1 forward_v I I I I #
coedge $-1 $274 $206 $208 $275 forward $120 $-1 #
coedge $-1 $122 $129 $276 $277 forward $70 $-1 #
coedge $-1 $278 $127 $122 $199 reversed $209 $-1 #
edge $-1 $279 -4.2388978374585591 $131 4.2388978374585591 $198 $280 forward 7 unknown #
coedge $-1 $124 $123 $273 $281 reversed $45 $-1 #
coedge $-1 $206 $274 $123 $202 forward $120 $-1 #
edge $-1 $282 -4.2388978374585591 $204 4.2388978374585591 $123 $283 forward 7 unknown #
edge $-1 $130 -4.2388978374585591 $284 4.2388978374585591 $124 $285 forward 7 unknown #
vertex $-1 $125 $286 #
straight-curve $-1 -42.540360728782005 -29.367740041430679 0 0 0 -1 I I #
coedge $-1 $196 $201 $126 $207 reversed $120 $-1 #
edge $-1 $210 -42.540360728782005 $204 42.540360728782005 $206 $287 forward 7 unknown #
coedge $-1 $127 $278 $196 $275 reversed $209 $-1 #
loop $-1 $-1 $127 $193 #
vertex $-1 $128 $288 #
straight-curve $-1 42.540360728782005 -29.367740041430679 0 0 0 1 I I #
point $-1 -42.540360728782005 -29.367740041430679 7.8880355294180129 #
point $-1 42.540360728782005 -29.367740041430679 7.8880355294180129 #
face $-1 $-1 $228 $17 $-1 $289 reversed single #
loop $-1 $-1 $290 $133 #
plane-surface $-1 0 37.845535716347797 6.388035529418012 0 -1 0 0 0 -1 forward_v I I I I #
coedge $-1 $224 $291 $137 $221 forward $134 $-1 #
coedge $-1 $143 $136 $292 $293 forward $78 $-1 #
edge $-1 $144 -4.2388978374585591 $294 4.2388978374585591 $138 $295 forward 7 unknown #
coedge $-1 $138 $137 $290 $296 reversed $49 $-1 #
edge $-1 $297 -4.2388978374585591 $222 4.2388978374585591 $137 $298 forward 7 unknown #
vertex $-1 $139 $299 #
straight-curve $-1 42.540360728782005 29.367740041430679 0 0 0 -1 I I #
coedge $-1 $300 $217 $140 $225 reversed $134 $-1 #
edge $-1 $229 -42.540360728782005 $222 42.540360728782005 $224 $301 forward 7 unknown #
coedge $-1 $302 $141 $143 $231 reversed $228 $-1 #
coedge $-1 $141 $302 $300 $303 reversed $228 $-1 #
loop $-1 $-1 $141 $214 #
vertex $-1 $142 $304 #
straight-curve $-1 -42.540360728782005 29.367740041430679 0 0 0 1 I I #
edge $-1 $305 -4.2388978374585591 $145 4.2388978374585591 $226 $306 forward 7 unknown #
point $-1 42.540360728782005 29.367740041430679 7.8880355294180129 #
point $-1 -42.540360728782005 29.367740041430679 7.8880355294180129 #
loop $-1 $-1 $155 $147 #
plane-surface $-1 42.540360728782005 0 0 -1 0 0 0 0 1 forward_v I I I I #
coedge $-1 $237 $150 $152 $241 reversed $86 $-1 #
coedge $-1 $150 $236 $307 $308 reversed $86 $-1 #
coedge $-1 $158 $153 $150 $239 forward $148 $-1 #
edge $-1 $242 23.231557107223111 $309 27.558732852809221 $238 $310 forward 7 unknown #
coedge $-1 $152 $151 $245 $311 reversed $53 $-1 #
edge $-1 $312 -85.080721457563982 $242 -79.512686628290666 $236 $313 forward 7 unknown #
vertex $-1 $154 $314 #
straight-curve $-1 38.213184983195902 7.8676264343109281 9.7088223143040864 0 -1 0 I I #
coedge $-1 $307 $155 $158 $249 reversed $234 $-1 #
coedge $-1 $155 $307 $240 $311 forward $234 $-1 #
vertex $-1 $156 $315 #
straight-curve $-1 42.540360728782005 20.889944366513557 62.933958259096002 0 0 1 I I #
straight-curve $-1 -23.579777811404931 20.889944366513557 59.747777978005061 0.77714595512881146 0 -0.62932039886446345 I I #
edge $-1 $309 10.580561370730155 $159 20.889944366513557 $244 $316 forward 7 unknown #
point $-1 42.540360728782005 20.889944366513557 9.7088223143040864 #
point $-1 38.213184983195895 20.889944366513557 9.7088223143040864 #
edge $-1 $317 1 $317 0 $162 $-1 forward 7 unknown #
vertex $-1 $163 $318 #
ellipse-curve $-1 38.629206938661248 15.735252868621856 5.7987192266844163 0.62932039886446345 0 0.77714595512881146 0.77714595512881146 0 -0.62932039886446345 1 I I #
point $-1 41.153918811117748 15.735252868621856 7.327462965614858 #
plane-surface $-1 42.540360728782005 0 0 -1 0 0 0 0 1 forward_v I I I I #
coedge $-1 $171 $169 $173 $261 reversed $101 $-1 #
edge $-1 $184 -9.7088223143040864 $263 9.7088223143040864 $183 $319 forward 7 unknown #
vertex $-1 $261 $320 #
straight-curve $-1 -42.540360728782005 -29.367740041430679 0 0 0 -1 I I #
edge $-1 $259 -29.367740041430679 $263 29.367740041430679 $257 $321 forward 7 unknown #
straight-curve $-1 0 -29.367740041430679 -9.7088223143040864 -1 0 0 I I #
vertex $-1 $176 $322 #
straight-curve $-1 0 29.367740041430679 -9.7088223143040864 1 0 0 I I #
point $-1 42.540360728782005 29.367740041430679 -9.7088223143040864 #
point $-1 42.540360728782005 -29.367740041430679 -9.7088223143040864 #
straight-curve $-1 -42.540360728782005 0 9.7088223143040864 0 -1 0 I I #
point $-1 -42.540360728782005 29.367740041430679 9.7088223143040864 #
point $-1 -42.540360728782005 -29.367740041430679 9.7088223143040864 #
straight-curve $-1 42.540360728782005 -29.367740041430679 0 0 0 -1 I I #
straight-curve $-1 42.540360728782005 29.367740041430679 0 0 0 -1 I I #
plane-surface $-1 42.540360728782005 0 0 -1 0 0 0 0 1 forward_v I I I I #
coedge $-1 $323 $276 $200 $281 forward $194 $-1 #
coedge $-1 $201 $196 $323 $324 forward $120 $-1 #
edge $-1 $210 -4.2388978374585591 $325 4.2388978374585591 $208 $326 forward 7 unknown #
coedge $-1 $273 $327 $197 $277 reversed $194 $-1 #
edge $-1 $284 -42.540360728782005 $279 42.540360728782005 $276 $328 forward 7 unknown #
coedge $-1 $208 $198 $327 $329 forward $209 $-1 #
vertex $-1 $199 $330 #
straight-curve $-1 42.540360728782005 -33.606637878889238 7.8880355294180129 0 1 0 I I #
edge $-1 $284 -1.5000000000000009 $282 1.5000000000000009 $200 $331 forward 7 unknown #
vertex $-1 $202 $332 #
straight-curve $-1 -42.540360728782005 -33.606637878889238 4.8880355294180111 0 1 0 I I #
vertex $-1 $203 $333 #
straight-curve $-1 -42.540360728782005 -33.606637878889238 7.8880355294180129 0 -1 0 I I #
point $-1 -42.540360728782005 -29.367740041430679 4.8880355294180111 #
straight-curve $-1 0 -29.367740041430679 4.8880355294180111 -1 0 0 I I #
point $-1 42.540360728782005 -29.367740041430679 4.8880355294180111 #
plane-surface $-1 -42.540360728782005 0 0 1 0 0 0 0 -1 forward_v I I I I #
coedge $-1 $334 $292 $220 $296 forward $215 $-1 #
coedge $-1 $217 $300 $334 $335 forward $134 $-1 #
coedge $-1 $290 $336 $218 $293 reversed $215 $-1 #
edge $-1 $294 -42.540360728782005 $305 42.540360728782005 $292 $337 forward 7 unknown #
vertex $-1 $219 $338 #
straight-curve $-1 42.540360728782005 33.606637878889238 7.8880355294180129 0 1 0 I I #
edge $-1 $294 -1.5000000000000009 $297 1.5000000000000009 $220 $339 forward 7 unknown #
vertex $-1 $221 $340 #
straight-curve $-1 42.540360728782005 33.606637878889238 4.8880355294180111 0 -1 0 I I #
point $-1 42.540360728782005 29.367740041430679 4.8880355294180111 #
coedge $-1 $291 $224 $227 $303 forward $134 $-1 #
straight-curve $-1 0 29.367740041430679 4.8880355294180111 1 0 0 I I #
coedge $-1 $227 $226 $336 $341 forward $228 $-1 #
edge $-1 $229 -4.2388978374585591 $342 4.2388978374585591 $227 $343 forward 7 unknown #
point $-1 -42.540360728782005 29.367740041430679 4.8880355294180111 #
vertex $-1 $293 $344 #
straight-curve $-1 -42.540360728782005 33.606637878889238 7.8880355294180129 0 -1 0 I I #
coedge $-1 $245 $244 $237 $308 forward $234 $-1 #
edge $-1 $309 53.225135944791916 $312 56.729213844441418 $307 $345 forward 7 unknown #
vertex $-1 $249 $346 #
straight-curve $-1 14.981627875972784 10.580561370730155 9.7088223143040864 1 0 0 I I #
edge $-1 $312 2.7129349364192272 $246 13.022317932202629 $245 $347 forward 7 unknown #
vertex $-1 $311 $348 #
straight-curve $-1 -23.579777811404931 10.580561370730155 59.747777978005061 -0.77714595512881146 0 0.62932039886446345 I I #
point $-1 38.213184983195895 10.580561370730155 9.7088223143040864 #
point $-1 42.540360728781998 20.889944366513557 6.2047444146545843 #
straight-curve $-1 42.540360728782005 0 9.7088223143040864 0 1 0 I I #
vertex $-1 $252 $349 #
point $-1 39.406352893790057 15.735252868621856 5.1693988278199532 #
straight-curve $-1 -42.540360728782005 29.367740041430679 0 0 0 -1 I I #
point $-1 -42.540360728782005 -29.367740041430679 -9.7088223143040864 #
straight-curve $-1 -42.540360728782005 0 -9.7088223143040864 0 1 0 I I #
point $-1 -42.540360728782005 29.367740041430679 -9.7088223143040864 #
coedge $-1 $327 $273 $274 $324 reversed $194 $-1 #
edge $-1 $325 -42.540360728782005 $282 42.540360728782005 $323 $350 forward 7 unknown #
vertex $-1 $329 $351 #
straight-curve $-1 42.540360728782005 -33.606637878889238 4.8880355294180111 0 -1 0 I I #
coedge $-1 $276 $323 $278 $329 reversed $194 $-1 #
straight-curve $-1 0 -37.845535716347797 7.8880355294180129 1 0 0 I I #
edge $-1 $279 -1.5000000000000009 $325 1.5000000000000009 $278 $352 forward 7 unknown #
point $-1 42.540360728782005 -37.845535716347797 7.8880355294180129 #
straight-curve $-1 -42.540360728782005 -37.845535716347797 6.388035529418012 0 0 -1 I I #
point $-1 -42.540360728782005 -37.845535716347797 4.8880355294180111 #
point $-1 -42.540360728782005 -37.845535716347797 7.8880355294180129 #
coedge $-1 $336 $290 $291 $335 reversed $215 $-1 #
edge $-1 $342 -42.540360728782005 $297 42.540360728782005 $334 $353 forward 7 unknown #
coedge $-1 $292 $334 $302 $341 reversed $215 $-1 #
straight-curve $-1 0 37.845535716347797 7.8880355294180129 -1 0 0 I I #
point $-1 42.540360728782005 37.845535716347797 7.8880355294180129 #
straight-curve $-1 42.540360728782005 37.845535716347797 6.388035529418012 0 0 -1 I I #
point $-1 42.540360728782005 37.845535716347797 4.8880355294180111 #
edge $-1 $305 -1.5000000000000009 $342 1.5000000000000009 $336 $354 forward 7 unknown #
vertex $-1 $335 $355 #
straight-curve $-1 -42.540360728782005 33.606637878889238 4.8880355294180111 0 1 0 I I #
point $-1 -42.540360728782005 37.845535716347797 7.8880355294180129 #
straight-curve $-1 42.540360728782005 10.580561370730155 62.933958259096002 0 0 -1 I I #
point $-1 42.540360728782005 10.580561370730155 9.7088223143040864 #
straight-curve $-1 42.540360728782005 7.8676264343109281 6.2047444146545772 0 1 0 I I #
point $-1 42.540360728781998 10.580561370730155 6.2047444146545843 #
point $-1 37.999886539796783 15.735252868621856 5.0215732715556056 #
straight-curve $-1 0 -37.845535716347797 4.8880355294180111 -1 0 0 I I #
point $-1 42.540360728782005 -37.845535716347797 4.8880355294180111 #
straight-curve $-1 42.540360728782005 -37.845535716347797 6.388035529418012 0 0 -1 I I #
straight-curve $-1 0 37.845535716347797 4.8880355294180111 1 0 0 I I #
straight-curve $-1 -42.540360728782005 37.845535716347797 6.388035529418012 0 0 -1 I I #
point $-1 -42.540360728782005 37.845535716347797 4.8880355294180111 #
End-of-ACIS-data 