500 0 12 0           
7 Unknown 11 ACIS 5.0 NT 24 Thu Mar 25 19:56:23 1999 
-1 9.9999999999999995e-007 1e-010 
body $-1 $12 $-1 $13 #
body $-1 $14 $-1 $15 #
body $-1 $16 $-1 $17 #
body $-1 $18 $-1 $19 #
body $-1 $20 $-1 $21 #
body $-1 $22 $-1 $23 #
body $-1 $24 $-1 $25 #
body $-1 $26 $-1 $27 #
body $-1 $28 $-1 $29 #
body $-1 $30 $-1 $31 #
body $-1 $32 $-1 $33 #
body $-1 $34 $-1 $35 #
lump $-1 $-1 $36 $0 #
transform $-1 1 0 0 0 1 0 0 0 1 40.690939054536578 21.70514570057717 4.9791274357594046 1 rotate no_reflect no_shear #
lump $-1 $-1 $37 $1 #
transform $-1 1 0 0 0 1 0 0 0 1 40.690939054536578 21.70514570057717 4.9791274357594046 1 rotate no_reflect no_shear #
lump $-1 $-1 $38 $2 #
transform $-1 1 0 0 0 1 0 0 0 1 40.690939054536578 21.70514570057717 4.9791274357594046 1 rotate no_reflect no_shear #
lump $-1 $-1 $39 $3 #
transform $-1 1 0 0 0 1 0 0 0 1 40.690939054536578 21.70514570057717 4.9791274357594046 1 rotate no_reflect no_shear #
lump $-1 $-1 $40 $4 #
transform $-1 1 0 0 0 1 0 0 0 1 40.690939054536578 21.70514570057717 4.9791274357594046 1 rotate no_reflect no_shear #
lump $-1 $-1 $41 $5 #
transform $-1 1 0 0 0 1 0 0 0 1 40.690939054536578 21.70514570057717 4.9791274357594046 1 rotate no_reflect no_shear #
lump $-1 $-1 $42 $6 #
transform $-1 1 0 0 0 1 0 0 0 1 40.690939054536578 21.70514570057717 4.9791274357594046 1 rotate no_reflect no_shear #
lump $-1 $-1 $43 $7 #
transform $-1 1 0 0 0 1 0 0 0 1 40.690939054536578 21.70514570057717 4.9791274357594046 1 rotate no_reflect no_shear #
lump $-1 $-1 $44 $8 #
transform $-1 1 0 0 0 1 0 0 0 1 40.690939054536578 21.70514570057717 4.9791274357594046 1 rotate no_reflect no_shear #
lump $-1 $-1 $45 $9 #
transform $-1 1 0 0 0 1 0 0 0 1 40.690939054536578 21.70514570057717 4.9791274357594046 1 rotate no_reflect no_shear #
lump $-1 $-1 $46 $10 #
transform $-1 1 0 0 0 1 0 0 0 1 40.690939054536578 21.70514570057717 4.9791274357594046 1 rotate no_reflect no_shear #
lump $-1 $-1 $47 $11 #
transform $-1 1 0 0 0 1 0 0 0 1 40.690939054536578 21.70514570057717 4.9791274357594046 1 rotate no_reflect no_shear #
shell $-1 $-1 $-1 $48 $-1 $12 #
shell $-1 $-1 $-1 $49 $-1 $14 #
shell $-1 $-1 $-1 $50 $-1 $16 #
shell $-1 $-1 $-1 $51 $-1 $18 #
shell $-1 $-1 $-1 $52 $-1 $20 #
shell $-1 $-1 $-1 $53 $-1 $22 #
shell $-1 $-1 $-1 $54 $-1 $24 #
shell $-1 $-1 $-1 $55 $-1 $26 #
shell $-1 $-1 $-1 $56 $-1 $28 #
shell $-1 $-1 $-1 $57 $-1 $30 #
shell $-1 $-1 $-1 $58 $-1 $32 #
shell $-1 $-1 $-1 $59 $-1 $34 #
face $-1 $60 $61 $36 $-1 $62 forward single #
face $-1 $63 $64 $37 $-1 $65 reversed single #
face $-1 $66 $67 $38 $-1 $68 forward single #
face $-1 $69 $70 $39 $-1 $71 reversed single #
face $-1 $72 $73 $40 $-1 $74 forward single #
face $-1 $75 $76 $41 $-1 $77 reversed single #
face $-1 $78 $79 $42 $-1 $80 forward single #
face $-1 $81 $82 $43 $-1 $83 reversed single #
face $-1 $84 $85 $44 $-1 $86 forward single #
face $-1 $87 $88 $45 $-1 $89 reversed single #
face $-1 $90 $91 $46 $-1 $92 forward single #
face $-1 $93 $94 $47 $-1 $95 forward single #
face $-1 $96 $97 $36 $-1 $98 reversed single #
loop $-1 $-1 $99 $48 #
plane-surface $-1 0 0 4.9791274357594046 0 0 1 1 0 0 forward_v I I I I #
face $-1 $100 $101 $37 $-1 $102 reversed single #
loop $-1 $-1 $103 $49 #
plane-surface $-1 -25.559119870536868 -89.173781035173675 46.043976307672523 -1 0 0 0 -0.82903758062907751 0.55919289150049634 forward_v I I I I #
face $-1 $104 $105 $38 $-1 $106 forward single #
loop $-1 $107 $108 $50 #
cone-surface $-1 -30.285667934410522 -19.792098748648762 2.4778715581889301 0 0.82903758062907751 -0.55919289150049634 0.5 0 0 1 I I 0 1 0.5 forward I I I I #
face $-1 $109 $110 $39 $-1 $111 reversed single #
loop $-1 $-1 $112 $51 #
plane-surface $-1 -5.3686745809298557 -89.173781035173675 46.043976307672523 -1 0 0 0 -0.82903758062907751 0.55919289150049634 forward_v I I I I #
face $-1 $113 $114 $40 $-1 $115 forward single #
loop $-1 $116 $117 $52 #
cone-surface $-1 -10.09522264480351 -19.792098748648762 2.4778715581889301 0 0.82903758062907751 -0.55919289150049634 0.5 0 0 1 I I 0 1 0.5 forward I I I I #
face $-1 $118 $119 $41 $-1 $120 reversed single #
loop $-1 $-1 $121 $53 #
plane-surface $-1 14.82177070867716 -89.173781035173675 46.043976307672523 -1 0 0 0 -0.82903758062907751 0.55919289150049634 forward_v I I I I #
face $-1 $122 $123 $42 $-1 $124 forward single #
loop $-1 $125 $126 $54 #
cone-surface $-1 10.095222644803506 -19.792098748648762 2.4778715581889301 0 0.82903758062907751 -0.55919289150049634 0.5 0 0 1 I I 0 1 0.5 forward I I I I #
face $-1 $127 $128 $43 $-1 $129 reversed single #
loop $-1 $-1 $130 $55 #
plane-surface $-1 35.012215998284177 -89.173781035173675 46.043976307672523 -1 0 0 0 -0.82903758062907751 0.55919289150049634 forward_v I I I I #
face $-1 $131 $132 $44 $-1 $133 forward single #
loop $-1 $134 $135 $56 #
cone-surface $-1 30.285667934410519 -19.792098748648762 2.4778715581889301 0 0.82903758062907751 -0.55919289150049634 0.5 0 0 1 I I 0 1 0.5 forward I I I I #
face $-1 $136 $137 $45 $-1 $138 reversed single #
loop $-1 $-1 $139 $57 #
plane-surface $-1 29.582301516206812 63.470158445081047 82.886146189619552 1 0 0 0 -0.81915205242281985 -0.57357642473473569 forward_v I I I I #
face $-1 $140 $141 $46 $-1 $142 forward single #
loop $-1 $143 $144 $58 #
cone-surface $-1 32.756197955729597 18.644546516102327 1.7322111587445952 0 -0.81915205242281985 -0.57357642473473569 1 0 0 1 I I 0 1 1 forward I I I I #
face $-1 $145 $146 $47 $-1 $147 forward single #
loop $-1 $148 $149 $59 #
cone-surface $-1 37.517042615013786 18.644546516102327 1.7322111587445952 0 -0.81915205242281985 -0.57357642473473569 1 0 0 1 I I 0 1 1 forward I I I I #
face $-1 $150 $151 $36 $-1 $152 reversed single #
loop $-1 $-1 $153 $60 #
plane-surface $-1 0 0 -4.9791274357594046 0 0 1 1 0 0 forward_v I I I I #
coedge $-1 $154 $155 $156 $157 forward $61 $-1 #
face $-1 $158 $159 $37 $-1 $160 reversed single #
loop $-1 $-1 $161 $63 #
plane-surface $-1 -30.285667934410522 -21.705145700577177 0.5358085721189596 0 -0.82903758062907751 0.55919289150049634 1 0 0 forward_v I I I I #
coedge $-1 $162 $163 $164 $165 reversed $64 $-1 #
face $-1 $-1 $166 $38 $-1 $167 forward single #
loop $-1 $168 $169 $66 #
cone-surface $-1 -30.285667934410522 -19.170320563176954 2.0584768895635577 0 0.82903758062907751 -0.55919289150049634 0.25 0 0 1 I I -0.70710678118654746 0.70710678118654746 0.25 forward I I I I #
loop $-1 $-1 $170 $50 #
coedge $-1 $108 $108 $171 $172 reversed $67 $-1 #
face $-1 $173 $174 $39 $-1 $175 reversed single #
loop $-1 $-1 $176 $69 #
plane-surface $-1 -10.09522264480351 -21.705145700577177 0.5358085721189596 0 -0.82903758062907751 0.55919289150049634 1 0 0 forward_v I I I I #
coedge $-1 $177 $178 $179 $180 reversed $70 $-1 #
face $-1 $-1 $181 $40 $-1 $182 forward single #
loop $-1 $183 $184 $72 #
cone-surface $-1 -10.09522264480351 -19.170320563176954 2.0584768895635577 0 0.82903758062907751 -0.55919289150049634 0.25 0 0 1 I I -0.70710678118654746 0.70710678118654746 0.25 forward I I I I #
loop $-1 $-1 $185 $52 #
coedge $-1 $117 $117 $186 $187 reversed $73 $-1 #
face $-1 $188 $189 $41 $-1 $190 reversed single #
loop $-1 $-1 $191 $75 #
plane-surface $-1 10.095222644803506 -21.705145700577177 0.5358085721189596 0 -0.82903758062907751 0.55919289150049634 1 0 0 forward_v I I I I #
coedge $-1 $192 $193 $194 $195 reversed $76 $-1 #
face $-1 $-1 $196 $42 $-1 $197 forward single #
loop $-1 $198 $199 $78 #
cone-surface $-1 10.095222644803506 -19.170320563176954 2.0584768895635577 0 0.82903758062907751 -0.55919289150049634 0.25 0 0 1 I I -0.70710678118654746 0.70710678118654746 0.25 forward I I I I #
loop $-1 $-1 $200 $54 #
coedge $-1 $126 $126 $201 $202 reversed $79 $-1 #
face $-1 $203 $204 $43 $-1 $205 reversed single #
loop $-1 $-1 $206 $81 #
plane-surface $-1 30.285667934410519 -21.705145700577177 0.5358085721189596 0 -0.82903758062907751 0.55919289150049634 1 0 0 forward_v I I I I #
coedge $-1 $207 $208 $209 $210 reversed $82 $-1 #
face $-1 $-1 $211 $44 $-1 $212 forward single #
loop $-1 $213 $214 $84 #
cone-surface $-1 30.285667934410519 -19.170320563176954 2.0584768895635577 0 0.82903758062907751 -0.55919289150049634 0.25 0 0 1 I I -0.70710678118654746 0.70710678118654746 0.25 forward I I I I #
loop $-1 $-1 $215 $56 #
coedge $-1 $135 $135 $216 $217 reversed $85 $-1 #
face $-1 $218 $219 $45 $-1 $220 forward single #
loop $-1 $-1 $221 $87 #
plane-surface $-1 35.136620285371698 -3.1939740379899817 36.20741950561932 0 0.81915205242281985 0.57357642473473569 1 0 0 forward_v I I I I #
coedge $-1 $222 $223 $224 $225 reversed $88 $-1 #
face $-1 $-1 $226 $46 $-1 $227 forward single #
loop $-1 $228 $229 $90 #
cone-surface $-1 32.756197955729597 16.690788748318447 0.36417528319659187 0 -0.81915205242281985 -0.57357642473473569 0.5 0 0 1 I I -0.70710678118654768 0.70710678118654735 0.5 forward I I I I #
loop $-1 $-1 $230 $58 #
coedge $-1 $144 $144 $231 $232 reversed $91 $-1 #
face $-1 $-1 $233 $47 $-1 $234 forward single #
loop $-1 $235 $236 $93 #
cone-surface $-1 37.517042615013786 16.690788748318447 0.36417528319659187 0 -0.81915205242281985 -0.57357642473473569 0.5 0 0 1 I I -0.70710678118654768 0.70710678118654735 0.5 forward I I I I #
loop $-1 $-1 $237 $59 #
coedge $-1 $149 $149 $238 $239 reversed $94 $-1 #
face $-1 $240 $241 $36 $-1 $242 reversed single #
loop $-1 $-1 $243 $96 #
plane-surface $-1 0 -21.70514570057717 0 0 1 0 0 0 1 forward_v I I I I #
coedge $-1 $244 $245 $246 $247 forward $97 $-1 #
coedge $-1 $248 $99 $249 $250 forward $61 $-1 #
coedge $-1 $99 $248 $251 $252 forward $61 $-1 #
coedge $-1 $253 $254 $99 $157 reversed $255 $-1 #
edge $-1 $256 -21.70514570057717 $257 21.70514570057717 $156 $258 forward 7 unknown #
face $-1 $259 $260 $37 $-1 $261 reversed single #
loop $-1 $-1 $262 $100 #
plane-surface $-1 -35.012215998284177 -89.173781035173675 46.043976307672523 1 0 0 0 0.82903758062907751 -0.55919289150049634 forward_v I I I I #
coedge $-1 $263 $264 $265 $266 reversed $101 $-1 #
coedge $-1 $163 $103 $267 $268 reversed $64 $-1 #
coedge $-1 $103 $162 $263 $269 reversed $64 $-1 #
coedge $-1 $265 $270 $103 $165 forward $271 $-1 #
edge $-1 $272 22.881744817009668 $273 25.878801140237396 $164 $274 forward 7 unknown #
loop $-1 $-1 $171 $104 #
plane-surface $-1 -30.285667934410522 -21.705145700577177 0.5358085721189596 0 -0.82903758062907751 0.55919289150049634 1 0 0 forward_v I I I I #
loop $-1 $-1 $275 $66 #
coedge $-1 $169 $169 $170 $276 reversed $105 $-1 #
coedge $-1 $170 $170 $169 $276 forward $107 $-1 #
coedge $-1 $171 $171 $108 $172 forward $166 $-1 #
edge $-1 $277 -8.8939051993451917e-016 $277 6.2831853071795996 $171 $278 forward 7 unknown #
face $-1 $279 $280 $39 $-1 $281 reversed single #
loop $-1 $-1 $282 $109 #
plane-surface $-1 -14.821770708677164 -89.173781035173675 46.043976307672523 1 0 0 0 0.82903758062907751 -0.55919289150049634 forward_v I I I I #
coedge $-1 $283 $284 $285 $286 reversed $110 $-1 #
coedge $-1 $178 $112 $287 $288 reversed $70 $-1 #
coedge $-1 $112 $177 $283 $289 reversed $70 $-1 #
coedge $-1 $285 $290 $112 $180 forward $291 $-1 #
edge $-1 $292 22.881744817009668 $293 25.878801140237396 $179 $294 forward 7 unknown #
loop $-1 $-1 $186 $113 #
plane-surface $-1 -10.09522264480351 -21.705145700577177 0.5358085721189596 0 -0.82903758062907751 0.55919289150049634 1 0 0 forward_v I I I I #
loop $-1 $-1 $295 $72 #
coedge $-1 $184 $184 $185 $296 reversed $114 $-1 #
coedge $-1 $185 $185 $184 $296 forward $116 $-1 #
coedge $-1 $186 $186 $117 $187 forward $181 $-1 #
edge $-1 $297 -8.8939051993451917e-016 $297 6.2831853071795996 $186 $298 forward 7 unknown #
face $-1 $299 $300 $41 $-1 $301 reversed single #
loop $-1 $-1 $302 $118 #
plane-surface $-1 5.3686745809298522 -89.173781035173675 46.043976307672523 1 0 0 0 0.82903758062907751 -0.55919289150049634 forward_v I I I I #
coedge $-1 $303 $304 $305 $306 reversed $119 $-1 #
coedge $-1 $193 $121 $307 $308 reversed $76 $-1 #
coedge $-1 $121 $192 $303 $309 reversed $76 $-1 #
coedge $-1 $305 $310 $121 $195 forward $311 $-1 #
edge $-1 $312 22.881744817009668 $313 25.878801140237396 $194 $314 forward 7 unknown #
loop $-1 $-1 $201 $122 #
plane-surface $-1 10.095222644803506 -21.705145700577177 0.5358085721189596 0 -0.82903758062907751 0.55919289150049634 1 0 0 forward_v I I I I #
loop $-1 $-1 $315 $78 #
coedge $-1 $199 $199 $200 $316 reversed $123 $-1 #
coedge $-1 $200 $200 $199 $316 forward $125 $-1 #
coedge $-1 $201 $201 $126 $202 forward $196 $-1 #
edge $-1 $317 -8.8939051993451917e-016 $317 6.2831853071795996 $201 $318 forward 7 unknown #
face $-1 $319 $320 $43 $-1 $321 reversed single #
loop $-1 $-1 $322 $127 #
plane-surface $-1 25.559119870536865 -89.173781035173675 46.043976307672523 1 0 0 0 0.82903758062907751 -0.55919289150049634 forward_v I I I I #
coedge $-1 $323 $324 $325 $326 reversed $128 $-1 #
coedge $-1 $208 $130 $327 $328 reversed $82 $-1 #
coedge $-1 $130 $207 $323 $329 reversed $82 $-1 #
coedge $-1 $325 $330 $130 $210 forward $331 $-1 #
edge $-1 $332 22.881744817009668 $333 25.878801140237396 $209 $334 forward 7 unknown #
loop $-1 $-1 $216 $131 #
plane-surface $-1 30.285667934410519 -21.705145700577177 0.5358085721189596 0 -0.82903758062907751 0.55919289150049634 1 0 0 forward_v I I I I #
loop $-1 $-1 $335 $84 #
coedge $-1 $214 $214 $215 $336 reversed $132 $-1 #
coedge $-1 $215 $215 $214 $336 forward $134 $-1 #
coedge $-1 $216 $216 $135 $217 forward $211 $-1 #
edge $-1 $337 -8.8939051993451917e-016 $337 6.2831853071795996 $216 $338 forward 7 unknown #
face $-1 $339 $340 $45 $-1 $341 reversed single #
loop $-1 $-1 $224 $136 #
plane-surface $-1 0 0 4.9791274357594046 0 0 1 1 0 0 forward_v I I I I #
coedge $-1 $342 $343 $344 $345 reversed $137 $-1 #
coedge $-1 $223 $139 $346 $347 reversed $88 $-1 #
coedge $-1 $139 $222 $342 $348 reversed $88 $-1 #
coedge $-1 $344 $349 $139 $225 forward $219 $-1 #
edge $-1 $350 10.029933521963354 $351 13.062768407768093 $224 $352 forward 7 unknown #
loop $-1 $-1 $231 $140 #
plane-surface $-1 35.136620285371698 -3.1939740379899817 36.20741950561932 0 0.81915205242281985 0.57357642473473569 1 0 0 forward_v I I I I #
loop $-1 $-1 $353 $90 #
coedge $-1 $229 $229 $230 $354 reversed $141 $-1 #
coedge $-1 $230 $230 $229 $354 forward $143 $-1 #
coedge $-1 $231 $231 $144 $232 forward $226 $-1 #
edge $-1 $355 0 $355 6.2831853071796004 $231 $356 forward 7 unknown #
loop $-1 $-1 $238 $145 #
plane-surface $-1 35.136620285371698 -3.1939740379899817 36.20741950561932 0 0.81915205242281985 0.57357642473473569 1 0 0 forward_v I I I I #
loop $-1 $-1 $357 $93 #
coedge $-1 $236 $236 $237 $358 reversed $146 $-1 #
coedge $-1 $237 $237 $236 $358 forward $148 $-1 #
coedge $-1 $238 $238 $149 $239 forward $233 $-1 #
edge $-1 $359 0 $359 6.2831853071796004 $238 $360 forward 7 unknown #
face $-1 $361 $362 $36 $-1 $363 reversed single #
loop $-1 $-1 $364 $150 #
plane-surface $-1 -40.690939054536578 0 0 1 0 0 0 0 -1 forward_v I I I I #
coedge $-1 $365 $251 $366 $367 forward $151 $-1 #
coedge $-1 $368 $153 $365 $369 forward $97 $-1 #
coedge $-1 $153 $368 $370 $371 forward $97 $-1 #
coedge $-1 $254 $253 $153 $247 reversed $255 $-1 #
edge $-1 $372 -21.70514570057717 $373 21.70514570057717 $246 $374 forward 7 unknown #
coedge $-1 $155 $154 $375 $376 forward $61 $-1 #
coedge $-1 $377 $378 $154 $250 reversed $362 $-1 #
edge $-1 $257 -40.690939054536578 $379 40.690939054536578 $249 $380 forward 7 unknown #
coedge $-1 $243 $381 $155 $252 reversed $151 $-1 #
edge $-1 $382 -40.690939054536578 $256 40.690939054536578 $251 $383 forward 7 unknown #
coedge $-1 $246 $156 $381 $384 forward $255 $-1 #
coedge $-1 $156 $246 $377 $385 reversed $255 $-1 #
loop $-1 $-1 $253 $361 #
vertex $-1 $157 $386 #
vertex $-1 $157 $387 #
straight-curve $-1 40.690939054536578 0 4.9791274357594046 0 1 0 I I #
face $-1 $-1 $271 $37 $-1 $388 forward single #
loop $-1 $-1 $389 $158 #
plane-surface $-1 0 -21.70514570057717 0 0 1 0 0 0 1 forward_v I I I I #
coedge $-1 $390 $391 $392 $393 reversed $159 $-1 #
coedge $-1 $394 $161 $163 $269 forward $101 $-1 #
coedge $-1 $161 $394 $390 $395 forward $101 $-1 #
coedge $-1 $392 $164 $161 $266 forward $271 $-1 #
edge $-1 $273 10.416285903331607 $396 19.869382031078914 $265 $397 forward 7 unknown #
coedge $-1 $398 $399 $162 $268 forward $260 $-1 #
edge $-1 $400 -22.486179581717291 $272 -18.042860718076856 $267 $401 forward 7 unknown #
edge $-1 $273 -5.35961091205158 $400 -1.2717262267236031e-014 $163 $402 forward 7 unknown #
coedge $-1 $164 $392 $398 $403 forward $271 $-1 #
loop $-1 $-1 $392 $259 #
vertex $-1 $268 $404 #
vertex $-1 $165 $405 #
straight-curve $-1 -25.559119870536868 -44.586890517586838 4.9791274357594055 0 1 0 I I #
coedge $-1 $275 $275 $-1 $406 reversed $168 $-1 #
edge $-1 $407 0 $407 6.2831853071796004 $169 $408 forward 7 unknown #
vertex $-1 $172 $409 #
ellipse-curve $-1 -30.285667934410522 -20.206617538963307 2.7574680039391835 0 -0.82903758062907751 0.55919289150049634 0.5 0 0 1 I I #
face $-1 $-1 $291 $39 $-1 $410 forward single #
loop $-1 $-1 $411 $173 #
plane-surface $-1 0 -21.70514570057717 0 0 1 0 0 0 1 forward_v I I I I #
coedge $-1 $412 $413 $414 $415 reversed $174 $-1 #
coedge $-1 $416 $176 $178 $289 forward $110 $-1 #
coedge $-1 $176 $416 $412 $417 forward $110 $-1 #
coedge $-1 $414 $179 $176 $286 forward $291 $-1 #
edge $-1 $293 0.3210632585281008 $418 9.774159386275409 $285 $419 forward 7 unknown #
coedge $-1 $420 $421 $177 $288 forward $280 $-1 #
edge $-1 $422 -22.486179581717291 $292 -18.042860718076856 $287 $423 forward 7 unknown #
edge $-1 $293 -5.35961091205158 $422 -1.2717262267236031e-014 $178 $424 forward 7 unknown #
coedge $-1 $179 $414 $420 $425 forward $291 $-1 #
loop $-1 $-1 $414 $279 #
vertex $-1 $288 $426 #
vertex $-1 $180 $427 #
straight-curve $-1 -5.3686745809298557 -44.586890517586838 4.9791274357594055 0 1 0 I I #
coedge $-1 $295 $295 $-1 $428 reversed $183 $-1 #
edge $-1 $429 0 $429 6.2831853071796004 $184 $430 forward 7 unknown #
vertex $-1 $187 $431 #
ellipse-curve $-1 -10.09522264480351 -20.206617538963307 2.7574680039391835 0 -0.82903758062907751 0.55919289150049634 0.5 0 0 1 I I #
face $-1 $-1 $311 $41 $-1 $432 forward single #
loop $-1 $-1 $433 $188 #
plane-surface $-1 0 -21.70514570057717 0 0 1 0 0 0 1 forward_v I I I I #
coedge $-1 $434 $435 $436 $437 reversed $189 $-1 #
coedge $-1 $438 $191 $193 $309 forward $119 $-1 #
coedge $-1 $191 $438 $434 $439 forward $119 $-1 #
coedge $-1 $436 $194 $191 $306 forward $311 $-1 #
edge $-1 $313 -9.7741593862754073 $440 -0.32106325852809903 $305 $441 forward 7 unknown #
coedge $-1 $442 $443 $192 $308 forward $300 $-1 #
edge $-1 $444 -22.486179581717291 $312 -18.042860718076856 $307 $445 forward 7 unknown #
edge $-1 $313 -5.35961091205158 $444 -1.2717262267236031e-014 $193 $446 forward 7 unknown #
coedge $-1 $194 $436 $442 $447 forward $311 $-1 #
loop $-1 $-1 $436 $299 #
vertex $-1 $308 $448 #
vertex $-1 $195 $449 #
straight-curve $-1 14.82177070867716 -44.586890517586838 4.9791274357594055 0 1 0 I I #
coedge $-1 $315 $315 $-1 $450 reversed $198 $-1 #
edge $-1 $451 0 $451 6.2831853071796004 $199 $452 forward 7 unknown #
vertex $-1 $202 $453 #
ellipse-curve $-1 10.095222644803506 -20.206617538963307 2.7574680039391835 0 -0.82903758062907751 0.55919289150049634 0.5 0 0 1 I I #
face $-1 $-1 $331 $43 $-1 $454 forward single #
loop $-1 $-1 $455 $203 #
plane-surface $-1 0 -21.70514570057717 0 0 1 0 0 0 1 forward_v I I I I #
coedge $-1 $456 $457 $458 $459 reversed $204 $-1 #
coedge $-1 $460 $206 $208 $329 forward $128 $-1 #
coedge $-1 $206 $460 $456 $461 forward $128 $-1 #
coedge $-1 $458 $209 $206 $326 forward $331 $-1 #
edge $-1 $333 -19.869382031078917 $462 -10.416285903331605 $325 $463 forward 7 unknown #
coedge $-1 $464 $465 $207 $328 forward $320 $-1 #
edge $-1 $466 -22.486179581717291 $332 -18.042860718076856 $327 $467 forward 7 unknown #
edge $-1 $333 -5.35961091205158 $466 -1.2717262267236031e-014 $208 $468 forward 7 unknown #
coedge $-1 $209 $458 $464 $469 forward $331 $-1 #
loop $-1 $-1 $458 $319 #
vertex $-1 $328 $470 #
vertex $-1 $210 $471 #
straight-curve $-1 35.012215998284177 -44.586890517586838 4.9791274357594055 0 1 0 I I #
coedge $-1 $335 $335 $-1 $472 reversed $213 $-1 #
edge $-1 $473 0 $473 6.2831853071796004 $214 $474 forward 7 unknown #
vertex $-1 $217 $475 #
ellipse-curve $-1 30.285667934410519 -20.206617538963307 2.7574680039391835 0 -0.82903758062907751 0.55919289150049634 0.5 0 0 1 I I #
face $-1 $-1 $476 $45 $-1 $477 reversed single #
loop $-1 $-1 $346 $218 #
plane-surface $-1 0 21.70514570057717 0 0 -1 0 0 0 -1 forward_v I I I I #
coedge $-1 $478 $221 $223 $348 forward $137 $-1 #
coedge $-1 $221 $478 $479 $480 reversed $137 $-1 #
coedge $-1 $481 $224 $221 $345 forward $219 $-1 #
edge $-1 $351 12.013991373520962 $482 23.122628911850736 $344 $483 forward 7 unknown #
coedge $-1 $484 $485 $222 $347 forward $340 $-1 #
edge $-1 $486 -40.795282886718724 $350 -36.463945659050374 $346 $487 forward 7 unknown #
edge $-1 $351 38.12270503076379 $486 43.410291401154353 $223 $488 forward 7 unknown #
coedge $-1 $224 $481 $484 $489 forward $219 $-1 #
vertex $-1 $347 $490 #
vertex $-1 $225 $491 #
straight-curve $-1 29.582301516206812 31.735079222540524 4.979127435759402 0 -1 0 I I #
coedge $-1 $353 $353 $-1 $492 reversed $228 $-1 #
edge $-1 $493 0 $493 6.2831853071796004 $229 $494 forward 7 unknown #
vertex $-1 $232 $495 #
ellipse-curve $-1 32.756197955729597 20.188728257674796 2.8134588219252308 0 0.81915205242281985 0.57357642473473569 1 0 0 1 I I #
coedge $-1 $357 $357 $-1 $496 reversed $235 $-1 #
edge $-1 $497 0 $497 6.2831853071796004 $236 $498 forward 7 unknown #
vertex $-1 $239 $499 #
ellipse-curve $-1 37.517042615013786 20.188728257674796 2.8134588219252308 0 0.81915205242281985 0.57357642473473569 1 0 0 1 I I #
face $-1 $-1 $255 $36 $-1 $500 reversed single #
loop $-1 $-1 $377 $240 #
plane-surface $-1 0 21.70514570057717 0 0 -1 0 0 0 -1 forward_v I I I I #
coedge $-1 $501 $375 $378 $502 forward $241 $-1 #
coedge $-1 $381 $243 $244 $369 reversed $151 $-1 #
coedge $-1 $375 $501 $243 $367 reversed $241 $-1 #
edge $-1 $382 -4.9791274357594046 $503 4.9791274357594046 $366 $504 forward 7 unknown #
coedge $-1 $245 $244 $501 $505 forward $97 $-1 #
edge $-1 $373 -40.690939054536578 $503 40.690939054536578 $365 $506 forward 7 unknown #
coedge $-1 $378 $377 $245 $371 reversed $362 $-1 #
edge $-1 $507 -40.690939054536578 $372 40.690939054536578 $370 $508 forward 7 unknown #
vertex $-1 $247 $509 #
vertex $-1 $384 $510 #
straight-curve $-1 40.690939054536578 0 -4.9791274357594046 0 -1 0 I I #
coedge $-1 $364 $366 $248 $376 reversed $241 $-1 #
edge $-1 $379 -21.70514570057717 $382 21.70514570057717 $375 $511 forward 7 unknown #
coedge $-1 $370 $249 $254 $385 forward $362 $-1 #
coedge $-1 $249 $370 $364 $502 reversed $362 $-1 #
vertex $-1 $250 $512 #
straight-curve $-1 0 21.70514570057717 4.9791274357594046 -1 0 0 I I #
coedge $-1 $251 $365 $253 $384 reversed $151 $-1 #
vertex $-1 $376 $513 #
straight-curve $-1 0 -21.70514570057717 4.9791274357594046 1 0 0 I I #
edge $-1 $256 -4.9791274357594046 $373 4.9791274357594046 $253 $514 forward 7 unknown #
edge $-1 $257 -4.9791274357594046 $372 4.9791274357594046 $254 $515 forward 7 unknown #
point $-1 40.690939054536578 -21.70514570057717 4.9791274357594046 #
point $-1 40.690939054536578 21.70514570057717 4.9791274357594046 #
plane-surface $-1 0 0 4.9791274357594046 0 0 1 1 0 0 forward_v I I I I #
coedge $-1 $399 $398 $391 $516 forward $260 $-1 #
coedge $-1 $391 $262 $264 $395 reversed $159 $-1 #
coedge $-1 $262 $390 $389 $516 reversed $159 $-1 #
coedge $-1 $270 $265 $262 $393 forward $271 $-1 #
edge $-1 $396 -25.878801140237396 $517 -22.881744817009668 $392 $518 forward 7 unknown #
coedge $-1 $264 $263 $399 $519 reversed $101 $-1 #
edge $-1 $520 1.2717262267236031e-014 $396 5.35961091205158 $390 $521 forward 7 unknown #
vertex $-1 $266 $522 #
straight-curve $-1 -15.142833967205261 -18.708089377349442 4.9791274357594046 -1 0 0 I I #
coedge $-1 $389 $267 $270 $403 reversed $260 $-1 #
coedge $-1 $267 $389 $394 $519 forward $260 $-1 #
vertex $-1 $268 $523 #
straight-curve $-1 -25.559119870536868 -21.70514570057717 23.021988153836261 0 0 1 I I #
straight-curve $-1 -25.559119870536868 -21.705145700577177 0.5358085721189596 0 -0.55919289150049634 -0.82903758062907751 I I #
edge $-1 $517 -35.012215998284177 $272 -25.559119870536868 $398 $524 forward 7 unknown #
point $-1 -25.559119870536868 -21.70514570057717 4.9791274357594046 #
point $-1 -25.559119870536868 -18.708089377349442 4.9791274357594046 #
edge $-1 $525 1 $525 0 $275 $-1 forward 7 unknown #
vertex $-1 $276 $526 #
ellipse-curve $-1 -30.285667934410522 -19.377579958334223 2.1982751124386817 0 -0.82903758062907751 0.55919289150049634 0.5 0 0 1 I I #
point $-1 -29.785667934410522 -20.2066175389633 2.7574680039391781 #
plane-surface $-1 0 0 4.9791274357594046 0 0 1 1 0 0 forward_v I I I I #
coedge $-1 $421 $420 $413 $527 forward $280 $-1 #
coedge $-1 $413 $282 $284 $417 reversed $174 $-1 #
coedge $-1 $282 $412 $411 $527 reversed $174 $-1 #
coedge $-1 $290 $285 $282 $415 forward $291 $-1 #
edge $-1 $418 -25.878801140237396 $528 -22.881744817009668 $414 $529 forward 7 unknown #
coedge $-1 $284 $283 $421 $530 reversed $110 $-1 #
edge $-1 $531 1.2717262267236031e-014 $418 5.35961091205158 $412 $532 forward 7 unknown #
vertex $-1 $286 $533 #
straight-curve $-1 -5.0476113224017549 -18.708089377349442 4.9791274357594046 -1 0 0 I I #
coedge $-1 $411 $287 $290 $425 reversed $280 $-1 #
coedge $-1 $287 $411 $416 $530 forward $280 $-1 #
vertex $-1 $288 $534 #
straight-curve $-1 -5.3686745809298557 -21.70514570057717 23.021988153836261 0 0 1 I I #
straight-curve $-1 -5.3686745809298557 -21.705145700577177 0.5358085721189596 0 -0.55919289150049634 -0.82903758062907751 I I #
edge $-1 $528 -14.821770708677164 $292 -5.3686745809298557 $420 $535 forward 7 unknown #
point $-1 -5.3686745809298557 -21.70514570057717 4.9791274357594046 #
point $-1 -5.3686745809298557 -18.708089377349442 4.9791274357594046 #
edge $-1 $536 1 $536 0 $295 $-1 forward 7 unknown #
vertex $-1 $296 $537 #
ellipse-curve $-1 -10.09522264480351 -19.377579958334223 2.1982751124386817 0 -0.82903758062907751 0.55919289150049634 0.5 0 0 1 I I #
point $-1 -9.5952226448035098 -20.2066175389633 2.7574680039391781 #
plane-surface $-1 0 0 4.9791274357594046 0 0 1 1 0 0 forward_v I I I I #
coedge $-1 $443 $442 $435 $538 forward $300 $-1 #
coedge $-1 $435 $302 $304 $439 reversed $189 $-1 #
coedge $-1 $302 $434 $433 $538 reversed $189 $-1 #
coedge $-1 $310 $305 $302 $437 forward $311 $-1 #
edge $-1 $440 -25.878801140237396 $539 -22.881744817009668 $436 $540 forward 7 unknown #
coedge $-1 $304 $303 $443 $541 reversed $119 $-1 #
edge $-1 $542 1.2717262267236031e-014 $440 5.35961091205158 $434 $543 forward 7 unknown #
vertex $-1 $306 $544 #
straight-curve $-1 5.0476113224017531 -18.708089377349442 4.9791274357594046 -1 0 0 I I #
coedge $-1 $433 $307 $310 $447 reversed $300 $-1 #
coedge $-1 $307 $433 $438 $541 forward $300 $-1 #
vertex $-1 $308 $545 #
straight-curve $-1 14.82177070867716 -21.70514570057717 23.021988153836261 0 0 1 I I #
straight-curve $-1 14.82177070867716 -21.705145700577177 0.5358085721189596 0 -0.55919289150049634 -0.82903758062907751 I I #
edge $-1 $539 5.3686745809298522 $312 14.82177070867716 $442 $546 forward 7 unknown #
point $-1 14.82177070867716 -21.70514570057717 4.9791274357594046 #
point $-1 14.82177070867716 -18.708089377349442 4.9791274357594046 #
edge $-1 $547 1 $547 0 $315 $-1 forward 7 unknown #
vertex $-1 $316 $548 #
ellipse-curve $-1 10.095222644803506 -19.377579958334223 2.1982751124386817 0 -0.82903758062907751 0.55919289150049634 0.5 0 0 1 I I #
point $-1 10.595222644803506 -20.2066175389633 2.7574680039391781 #
plane-surface $-1 0 0 4.9791274357594046 0 0 1 1 0 0 forward_v I I I I #
coedge $-1 $465 $464 $457 $549 forward $320 $-1 #
coedge $-1 $457 $322 $324 $461 reversed $204 $-1 #
coedge $-1 $322 $456 $455 $549 reversed $204 $-1 #
coedge $-1 $330 $325 $322 $459 forward $331 $-1 #
edge $-1 $462 -25.878801140237396 $550 -22.881744817009668 $458 $551 forward 7 unknown #
coedge $-1 $324 $323 $465 $552 reversed $128 $-1 #
edge $-1 $553 1.2717262267236031e-014 $462 5.35961091205158 $456 $554 forward 7 unknown #
vertex $-1 $326 $555 #
straight-curve $-1 15.142833967205259 -18.708089377349442 4.9791274357594046 -1 0 0 I I #
coedge $-1 $455 $327 $330 $469 reversed $320 $-1 #
coedge $-1 $327 $455 $460 $552 forward $320 $-1 #
vertex $-1 $328 $556 #
straight-curve $-1 35.012215998284177 -21.70514570057717 23.021988153836261 0 0 1 I I #
straight-curve $-1 35.012215998284177 -21.705145700577177 0.5358085721189596 0 -0.55919289150049634 -0.82903758062907751 I I #
edge $-1 $550 25.559119870536865 $332 35.012215998284177 $464 $557 forward 7 unknown #
point $-1 35.012215998284177 -21.70514570057717 4.9791274357594046 #
point $-1 35.012215998284177 -18.708089377349442 4.9791274357594046 #
edge $-1 $558 1 $558 0 $335 $-1 forward 7 unknown #
vertex $-1 $336 $559 #
ellipse-curve $-1 30.285667934410519 -19.377579958334223 2.1982751124386817 0 -0.82903758062907751 0.55919289150049634 0.5 0 0 1 I I #
point $-1 30.785667934410519 -20.2066175389633 2.7574680039391781 #
loop $-1 $-1 $479 $339 #
plane-surface $-1 40.690939054536578 0 0 -1 0 0 0 0 1 forward_v I I I I #
coedge $-1 $343 $342 $485 $560 reversed $137 $-1 #
coedge $-1 $561 $562 $343 $480 forward $476 $-1 #
edge $-1 $482 22.377019925579802 $563 27.664606295970366 $479 $564 forward 7 unknown #
coedge $-1 $349 $344 $562 $565 forward $219 $-1 #
vertex $-1 $565 $566 #
straight-curve $-1 17.568310142685849 18.67231081477243 4.9791274357594055 1 0 0 I I #
coedge $-1 $567 $346 $349 $489 reversed $340 $-1 #
coedge $-1 $346 $567 $478 $560 forward $340 $-1 #
vertex $-1 $347 $568 #
straight-curve $-1 29.582301516206812 21.70514570057717 41.443073094809776 0 0 1 I I #
straight-curve $-1 29.582301516206812 -3.1939740379899817 36.20741950561932 0 0.57357642473473569 -0.81915205242281985 I I #
edge $-1 $569 -40.690939054536578 $350 -29.582301516206812 $484 $570 forward 7 unknown #
point $-1 29.582301516206812 21.70514570057717 4.9791274357594046 #
point $-1 29.582301516206812 18.67231081477243 4.9791274357594091 #
edge $-1 $571 1 $571 0 $353 $-1 forward 7 unknown #
vertex $-1 $354 $572 #
ellipse-curve $-1 32.756197955729597 17.100364774529858 0.6509634955639596 0 0.81915205242281985 0.57357642473473569 1 0 0 1 I I #
point $-1 33.756197955729597 20.188728257674796 2.8134588219252308 #
edge $-1 $573 1 $573 0 $357 $-1 forward 7 unknown #
vertex $-1 $358 $574 #
ellipse-curve $-1 37.517042615013786 17.100364774529858 0.6509634955639596 0 0.81915205242281985 0.57357642473473569 1 0 0 1 I I #
point $-1 38.517042615013786 20.188728257674796 2.8134588219252308 #
plane-surface $-1 40.690939054536578 0 0 -1 0 0 0 0 1 forward_v I I I I #
coedge $-1 $366 $364 $368 $505 reversed $241 $-1 #
edge $-1 $379 -4.9791274357594046 $507 4.9791274357594046 $378 $575 forward 7 unknown #
vertex $-1 $505 $576 #
straight-curve $-1 -40.690939054536578 -21.70514570057717 0 0 0 -1 I I #
edge $-1 $503 -21.70514570057717 $507 21.70514570057717 $501 $577 forward 7 unknown #
straight-curve $-1 0 -21.70514570057717 -4.9791274357594046 -1 0 0 I I #
vertex $-1 $371 $578 #
straight-curve $-1 0 21.70514570057717 -4.9791274357594046 1 0 0 I I #
point $-1 40.690939054536578 21.70514570057717 -4.9791274357594046 #
point $-1 40.690939054536578 -21.70514570057717 -4.9791274357594046 #
straight-curve $-1 -40.690939054536578 0 4.9791274357594046 0 -1 0 I I #
point $-1 -40.690939054536578 21.70514570057717 4.9791274357594046 #
point $-1 -40.690939054536578 -21.70514570057717 4.9791274357594046 #
straight-curve $-1 40.690939054536578 -21.70514570057717 0 0 0 -1 I I #
straight-curve $-1 40.690939054536578 21.70514570057717 0 0 0 -1 I I #
edge $-1 $517 18.042860718076856 $520 22.486179581717291 $389 $579 forward 7 unknown #
vertex $-1 $403 $580 #
straight-curve $-1 -35.012215998284177 -44.586890517586838 4.9791274357594055 0 -1 0 I I #
edge $-1 $520 -19.869382031078914 $400 -10.416285903331607 $399 $581 forward 7 unknown #
vertex $-1 $519 $582 #
straight-curve $-1 -35.012215998284177 -21.705145700577177 0.5358085721189596 0 0.55919289150049634 0.82903758062907751 I I #
point $-1 -35.012215998284177 -18.708089377349442 4.9791274357594046 #
point $-1 -25.559119870536868 -21.70514570057717 0.53580857211897015 #
straight-curve $-1 0 -21.70514570057717 4.9791274357594046 1 0 0 I I #
vertex $-1 $406 $583 #
point $-1 -29.785667934410522 -19.377579958334223 2.1982751124386817 #
edge $-1 $528 18.042860718076856 $531 22.486179581717291 $411 $584 forward 7 unknown #
vertex $-1 $425 $585 #
straight-curve $-1 -14.821770708677164 -44.586890517586838 4.9791274357594055 0 -1 0 I I #
edge $-1 $531 -9.774159386275409 $422 -0.3210632585281008 $421 $586 forward 7 unknown #
vertex $-1 $530 $587 #
straight-curve $-1 -14.821770708677164 -21.705145700577177 0.5358085721189596 0 0.55919289150049634 0.82903758062907751 I I #
point $-1 -14.821770708677164 -18.708089377349442 4.9791274357594046 #
point $-1 -5.3686745809298557 -21.70514570057717 0.53580857211897015 #
straight-curve $-1 0 -21.70514570057717 4.9791274357594046 1 0 0 I I #
vertex $-1 $428 $588 #
point $-1 -9.5952226448035098 -19.377579958334223 2.1982751124386817 #
edge $-1 $539 18.042860718076856 $542 22.486179581717291 $433 $589 forward 7 unknown #
vertex $-1 $447 $590 #
straight-curve $-1 5.3686745809298522 -44.586890517586838 4.9791274357594055 0 -1 0 I I #
edge $-1 $542 0.32106325852809903 $444 9.7741593862754073 $443 $591 forward 7 unknown #
vertex $-1 $541 $592 #
straight-curve $-1 5.3686745809298522 -21.705145700577177 0.5358085721189596 0 0.55919289150049634 0.82903758062907751 I I #
point $-1 5.3686745809298522 -18.708089377349442 4.9791274357594046 #
point $-1 14.82177070867716 -21.70514570057717 0.53580857211897015 #
straight-curve $-1 0 -21.70514570057717 4.9791274357594046 1 0 0 I I #
vertex $-1 $450 $593 #
point $-1 10.595222644803506 -19.377579958334223 2.1982751124386817 #
edge $-1 $550 18.042860718076856 $553 22.486179581717291 $455 $594 forward 7 unknown #
vertex $-1 $469 $595 #
straight-curve $-1 25.559119870536865 -44.586890517586838 4.9791274357594055 0 -1 0 I I #
edge $-1 $553 10.416285903331605 $466 19.869382031078917 $465 $596 forward 7 unknown #
vertex $-1 $552 $597 #
straight-curve $-1 25.559119870536865 -21.705145700577177 0.5358085721189596 0 0.55919289150049634 0.82903758062907751 I I #
point $-1 25.559119870536865 -18.708089377349442 4.9791274357594046 #
point $-1 35.012215998284177 -21.70514570057717 0.53580857211897015 #
straight-curve $-1 0 -21.70514570057717 4.9791274357594046 1 0 0 I I #
vertex $-1 $472 $598 #
point $-1 30.785667934410519 -19.377579958334223 2.1982751124386817 #
edge $-1 $563 -23.122628911850736 $486 -12.013991373520962 $485 $599 forward 7 unknown #
coedge $-1 $562 $479 $567 $600 reversed $476 $-1 #
coedge $-1 $479 $561 $481 $565 reversed $476 $-1 #
vertex $-1 $480 $601 #
straight-curve $-1 40.690939054536578 5.8373797296404284 23.30930923490444 0 0.57357642473473569 -0.81915205242281985 I I #
edge $-1 $482 18.67231081477243 $569 21.70514570057717 $562 $602 forward 7 unknown #
point $-1 40.690939054536585 18.67231081477243 4.9791274357594091 #
coedge $-1 $485 $484 $561 $600 forward $340 $-1 #
point $-1 29.582301516206812 21.70514570057717 0.64779020809105248 #
vertex $-1 $565 $603 #
straight-curve $-1 0 21.70514570057717 4.9791274357594046 -1 0 0 I I #
vertex $-1 $492 $604 #
point $-1 33.756197955729597 17.100364774529858 0.6509634955639596 #
vertex $-1 $496 $605 #
point $-1 38.517042615013786 17.100364774529858 0.6509634955639596 #
straight-curve $-1 -40.690939054536578 21.70514570057717 0 0 0 -1 I I #
point $-1 -40.690939054536578 -21.70514570057717 -4.9791274357594046 #
straight-curve $-1 -40.690939054536578 0 -4.9791274357594046 0 1 0 I I #
point $-1 -40.690939054536578 21.70514570057717 -4.9791274357594046 #
straight-curve $-1 -35.012215998284177 -21.70514570057717 23.021988153836261 0 0 -1 I I #
point $-1 -35.012215998284177 -21.70514570057717 4.9791274357594046 #
straight-curve $-1 -15.142833967205261 -21.70514570057717 0.53580857211897248 1 0 0 I I #
point $-1 -35.012215998284177 -21.70514570057717 0.53580857211897015 #
point $-1 -30.285667934410522 -18.963061168019685 1.9186786666884337 #
straight-curve $-1 -14.821770708677164 -21.70514570057717 23.021988153836261 0 0 -1 I I #
point $-1 -14.821770708677164 -21.70514570057717 4.9791274357594046 #
straight-curve $-1 -5.0476113224017549 -21.70514570057717 0.53580857211897248 1 0 0 I I #
point $-1 -14.821770708677164 -21.70514570057717 0.53580857211897015 #
point $-1 -10.09522264480351 -18.963061168019685 1.9186786666884337 #
straight-curve $-1 5.3686745809298522 -21.70514570057717 23.021988153836261 0 0 -1 I I #
point $-1 5.3686745809298522 -21.70514570057717 4.9791274357594046 #
straight-curve $-1 5.0476113224017531 -21.70514570057717 0.53580857211897248 1 0 0 I I #
point $-1 5.3686745809298522 -21.70514570057717 0.53580857211897015 #
point $-1 10.095222644803506 -18.963061168019685 1.9186786666884337 #
straight-curve $-1 25.559119870536865 -21.70514570057717 23.021988153836261 0 0 -1 I I #
point $-1 25.559119870536865 -21.70514570057717 4.9791274357594046 #
straight-curve $-1 15.142833967205259 -21.70514570057717 0.53580857211897248 1 0 0 I I #
point $-1 25.559119870536865 -21.70514570057717 0.53580857211897015 #
point $-1 30.285667934410519 -18.963061168019685 1.9186786666884337 #
straight-curve $-1 17.568310142685849 21.70514570057717 0.64779020809104537 -1 0 0 I I #
edge $-1 $569 -4.9791274357594046 $563 -0.64779020809105248 $561 $606 forward 7 unknown #
point $-1 40.690939054536585 21.70514570057717 0.64779020809105248 #
straight-curve $-1 40.690939054536578 0 4.9791274357594046 0 1 0 I I #
point $-1 40.690939054536578 21.70514570057717 4.9791274357594046 #
point $-1 32.756197955729597 16.281212722107036 0.077387070829224136 #
point $-1 37.517042615013786 16.281212722107036 0.077387070829224136 #
straight-curve $-1 40.690939054536578 21.70514570057717 0 0 0 -1 I I #
End-of-ACIS-data 