500 0 7 0           
7 Unknown 11 ACIS 5.0 NT 24 Thu Mar 25 15:15:01 1999 
-1 9.9999999999999995e-007 1e-010 
body $-1 $7 $-1 $8 #
body $-1 $9 $-1 $10 #
body $-1 $11 $-1 $12 #
body $-1 $13 $-1 $14 #
body $-1 $15 $-1 $16 #
body $-1 $17 $-1 $18 #
body $-1 $19 $-1 $20 #
lump $-1 $-1 $21 $0 #
transform $-1 1 0 0 0 1 0 0 0 1 61.828058717612237 29.646975877288842 6.4502778932090177 1 rotate no_reflect no_shear #
lump $-1 $-1 $22 $1 #
transform $-1 1 0 0 0 1 0 0 0 1 61.828058717612237 29.646975877288842 6.4502778932090177 1 rotate no_reflect no_shear #
lump $-1 $-1 $23 $2 #
transform $-1 1 0 0 0 1 0 0 0 1 61.828058717612237 29.646975877288842 6.4502778932090177 1 rotate no_reflect no_shear #
lump $-1 $-1 $24 $3 #
transform $-1 1 0 0 0 1 0 0 0 1 61.828058717612237 29.646975877288842 6.4502778932090177 1 rotate no_reflect no_shear #
lump $-1 $-1 $25 $4 #
transform $-1 1 0 0 0 1 0 0 0 1 61.828058717612237 29.646975877288842 6.4502778932090177 1 rotate no_reflect no_shear #
lump $-1 $-1 $26 $5 #
transform $-1 1 0 0 0 1 0 0 0 1 61.828058717612237 29.646975877288842 6.4502778932090177 1 rotate no_reflect no_shear #
lump $-1 $-1 $27 $6 #
transform $-1 1 0 0 0 1 0 0 0 1 61.828058717612237 29.646975877288842 6.4502778932090177 1 rotate no_reflect no_shear #
shell $-1 $-1 $-1 $28 $-1 $7 #
shell $-1 $-1 $-1 $29 $-1 $9 #
shell $-1 $-1 $-1 $30 $-1 $11 #
shell $-1 $-1 $-1 $31 $-1 $13 #
shell $-1 $-1 $-1 $32 $-1 $15 #
shell $-1 $-1 $-1 $33 $-1 $17 #
shell $-1 $-1 $-1 $34 $-1 $19 #
face $-1 $35 $36 $21 $-1 $37 forward single #
face $-1 $38 $39 $22 $-1 $40 reversed single #
face $-1 $41 $42 $23 $-1 $43 reversed single #
face $-1 $44 $45 $24 $-1 $46 forward single #
face $-1 $47 $48 $25 $-1 $49 forward single #
face $-1 $50 $51 $26 $-1 $52 reversed single #
face $-1 $53 $54 $27 $-1 $55 forward single #
face $-1 $56 $57 $21 $-1 $58 reversed single #
loop $-1 $-1 $59 $28 #
plane-surface $-1 0 0 6.4502778932090177 0 0 1 1 0 0 forward_v I I I I #
face $-1 $60 $61 $22 $-1 $62 reversed single #
loop $-1 $-1 $63 $29 #
plane-surface $-1 0 -26.082086598988774 2.5835757677429259 0 0 1 1 0 0 forward_v I I I I #
face $-1 $64 $65 $23 $-1 $66 reversed single #
loop $-1 $-1 $67 $30 #
plane-surface $-1 52.675749637561154 -1.4731458648633726 176.18879011446435 0 -1 0 -0.66913061440640931 0 -0.74314481823134659 forward_v I I I I #
face $-1 $68 $69 $24 $-1 $70 forward single #
loop $-1 $71 $72 $31 #
cone-surface $-1 57.895438067482758 -12.611638415841774 2.6544022677609691 -0.66913061440640931 0 -0.74314481823134659 1.1147172273470198 0 -1.003695921609614 1 I I 0 1 1.5 forward I I I I #
face $-1 $73 $74 $25 $-1 $75 forward single #
loop $-1 $76 $77 $32 #
cone-surface $-1 57.895438067482758 -5.9285428852547319 2.6544022677609691 -0.66913061440640931 0 -0.74314481823134659 1.1147172273470198 0 -1.003695921609614 1 I I 0 1 1.5 forward I I I I #
face $-1 $78 $79 $26 $-1 $80 reversed single #
loop $-1 $-1 $81 $33 #
plane-surface $-1 -149.26613890576436 -7.9822606606620035 90.724197501507248 0 -1 0 0.70710678939079041 0 -0.70710677298230451 forward_v I I I I #
face $-1 $82 $83 $27 $-1 $84 forward single #
loop $-1 $85 $86 $34 #
cone-surface $-1 -59.892426084207038 -15.249728990675354 4.5146452312957503 0.70710678939079041 0 -0.70710677298230451 0.35355338649115226 0 0.35355339469539521 1 I I 0 1 0.5 forward I I I I #
face $-1 $87 $88 $21 $-1 $89 reversed single #
loop $-1 $-1 $90 $35 #
plane-surface $-1 0 0 -6.4502778932090177 0 0 1 1 0 0 forward_v I I I I #
coedge $-1 $91 $92 $93 $94 forward $36 $-1 #
face $-1 $95 $96 $22 $-1 $97 reversed single #
loop $-1 $-1 $98 $38 #
plane-surface $-1 0 -22.517197320688705 4.5169268304759722 0 -1 0 0 0 -1 forward_v I I I I #
coedge $-1 $99 $100 $101 $102 reversed $39 $-1 #
face $-1 $103 $104 $23 $-1 $105 reversed single #
loop $-1 $-1 $106 $41 #
plane-surface $-1 -30.066344196981703 -9.270090650548255 84.294387199870414 0.66913061440640931 0 0.74314481823134659 0.74314481823134659 0 -0.66913061440640931 forward_v I I I I #
coedge $-1 $107 $108 $109 $110 reversed $42 $-1 #
face $-1 $-1 $111 $24 $-1 $112 forward single #
loop $-1 $113 $114 $44 #
cone-surface $-1 56.180850854369012 -12.611638415841774 0.75016029258016381 -0.66913061440640931 0 -0.74314481823134659 0.55735861367350992 0 -0.50184796080480698 1 I I -0.70710678118654757 0.70710678118654757 0.75 forward I I I I #
loop $-1 $-1 $115 $31 #
coedge $-1 $72 $72 $116 $117 reversed $45 $-1 #
face $-1 $-1 $118 $25 $-1 $119 forward single #
loop $-1 $120 $121 $47 #
cone-surface $-1 56.180850854369012 -5.9285428852547319 0.75016029258016381 -0.66913061440640931 0 -0.74314481823134659 0.55735861367350992 0 -0.50184796080480698 1 I I -0.70710678118654757 0.70710678118654757 0.75 forward I I I I #
loop $-1 $-1 $122 $32 #
coedge $-1 $77 $77 $123 $124 reversed $48 $-1 #
face $-1 $125 $126 $26 $-1 $127 forward single #
loop $-1 $-1 $128 $50 #
plane-surface $-1 -61.828058717612251 -15.249728990675354 3.2861193423647848 -0.70710678939079041 0 0.70710677298230451 0.70710677298230451 0 0.70710678939079041 forward_v I I I I #
coedge $-1 $129 $130 $131 $132 reversed $51 $-1 #
face $-1 $-1 $133 $27 $-1 $134 forward single #
loop $-1 $135 $136 $53 #
cone-surface $-1 -59.362095992163944 -15.249728990675354 3.9843151515590218 0.70710678939079041 0 -0.70710677298230451 0.17677669324557613 0 0.1767766973476976 1 I I -0.70710678118654746 0.70710678118654746 0.25 forward I I I I #
loop $-1 $-1 $137 $34 #
coedge $-1 $86 $86 $138 $139 reversed $54 $-1 #
face $-1 $140 $141 $21 $-1 $142 reversed single #
loop $-1 $-1 $143 $56 #
plane-surface $-1 0 -29.646975877288842 0 0 1 0 0 0 1 forward_v I I I I #
coedge $-1 $144 $145 $146 $147 forward $57 $-1 #
coedge $-1 $148 $59 $149 $150 forward $36 $-1 #
coedge $-1 $59 $148 $151 $152 forward $36 $-1 #
coedge $-1 $153 $154 $59 $94 reversed $155 $-1 #
edge $-1 $156 -29.646975877288842 $157 29.646975877288842 $93 $158 forward 7 unknown #
face $-1 $159 $160 $22 $-1 $161 reversed single #
loop $-1 $-1 $162 $60 #
plane-surface $-1 -61.828058717612237 0 0 1 0 0 0 0 -1 forward_v I I I I #
coedge $-1 $163 $164 $165 $166 reversed $61 $-1 #
coedge $-1 $167 $63 $168 $169 reversed $39 $-1 #
coedge $-1 $63 $167 $163 $170 forward $39 $-1 #
coedge $-1 $165 $171 $63 $102 forward $172 $-1 #
edge $-1 $173 -16.605932577794455 $174 -9.4761540211943185 $101 $175 forward 7 unknown #
face $-1 $176 $177 $23 $-1 $178 reversed single #
loop $-1 $-1 $179 $64 #
plane-surface $-1 52.675749637561154 -17.067035436233137 176.18879011446435 0 1 0 0.66913061440640931 0 0.74314481823134659 forward_v I I I I #
coedge $-1 $180 $181 $182 $183 reversed $65 $-1 #
coedge $-1 $108 $67 $184 $185 reversed $42 $-1 #
coedge $-1 $67 $107 $180 $186 reversed $42 $-1 #
coedge $-1 $182 $187 $67 $110 forward $188 $-1 #
edge $-1 $189 -35.49018389883166 $190 -30.050421103190629 $109 $191 forward 7 unknown #
loop $-1 $-1 $116 $68 #
plane-surface $-1 -30.066344196981703 -9.270090650548255 84.294387199870414 0.66913061440640931 0 0.74314481823134659 0.74314481823134659 0 -0.66913061440640931 forward_v I I I I #
loop $-1 $-1 $192 $44 #
coedge $-1 $114 $114 $115 $193 reversed $69 $-1 #
coedge $-1 $115 $115 $114 $193 forward $71 $-1 #
coedge $-1 $116 $116 $72 $117 forward $111 $-1 #
edge $-1 $194 0 $194 6.2831853071796004 $116 $195 forward 7 unknown #
loop $-1 $-1 $123 $73 #
plane-surface $-1 -30.066344196981703 -9.270090650548255 84.294387199870414 0.66913061440640931 0 0.74314481823134659 0.74314481823134659 0 -0.66913061440640931 forward_v I I I I #
loop $-1 $-1 $196 $47 #
coedge $-1 $121 $121 $122 $197 reversed $74 $-1 #
coedge $-1 $122 $122 $121 $197 forward $76 $-1 #
coedge $-1 $123 $123 $77 $124 forward $118 $-1 #
edge $-1 $198 0 $198 6.2831853071796004 $123 $199 forward 7 unknown #
face $-1 $200 $201 $26 $-1 $202 forward single #
loop $-1 $-1 $203 $78 #
plane-surface $-1 0 -22.517197320688705 4.5169268304759722 0 -1 0 0 0 -1 forward_v I I I I #
coedge $-1 $204 $205 $206 $207 reversed $79 $-1 #
coedge $-1 $130 $81 $208 $209 reversed $51 $-1 #
coedge $-1 $81 $129 $204 $210 reversed $51 $-1 #
coedge $-1 $206 $211 $81 $132 forward $212 $-1 #
edge $-1 $213 38.911820857544605 $214 42.075979408388825 $131 $215 forward 7 unknown #
loop $-1 $-1 $138 $82 #
plane-surface $-1 -61.828058717612251 -15.249728990675354 3.2861193423647848 -0.70710678939079041 0 0.70710677298230451 0.70710677298230451 0 0.70710678939079041 forward_v I I I I #
loop $-1 $-1 $216 $53 #
coedge $-1 $136 $136 $137 $217 reversed $83 $-1 #
coedge $-1 $137 $137 $136 $217 forward $85 $-1 #
coedge $-1 $138 $138 $86 $139 forward $133 $-1 #
edge $-1 $218 0 $218 6.2831853071796004 $138 $219 forward 7 unknown #
face $-1 $220 $221 $21 $-1 $222 reversed single #
loop $-1 $-1 $223 $87 #
plane-surface $-1 -61.828058717612237 0 0 1 0 0 0 0 -1 forward_v I I I I #
coedge $-1 $224 $151 $225 $226 forward $88 $-1 #
coedge $-1 $227 $90 $224 $228 forward $57 $-1 #
coedge $-1 $90 $227 $229 $230 forward $57 $-1 #
coedge $-1 $154 $153 $90 $147 reversed $155 $-1 #
edge $-1 $231 -29.646975877288842 $232 29.646975877288842 $146 $233 forward 7 unknown #
coedge $-1 $92 $91 $234 $235 forward $36 $-1 #
coedge $-1 $236 $237 $91 $150 reversed $221 $-1 #
edge $-1 $157 -61.828058717612237 $238 61.828058717612237 $149 $239 forward 7 unknown #
coedge $-1 $143 $240 $92 $152 reversed $88 $-1 #
edge $-1 $241 -61.828058717612237 $156 61.828058717612237 $151 $242 forward 7 unknown #
coedge $-1 $146 $93 $240 $243 forward $155 $-1 #
coedge $-1 $93 $146 $236 $244 reversed $155 $-1 #
loop $-1 $-1 $153 $220 #
vertex $-1 $94 $245 #
vertex $-1 $94 $246 #
straight-curve $-1 61.828058717612237 0 6.4502778932090177 0 1 0 I I #
face $-1 $247 $248 $22 $-1 $249 forward single #
loop $-1 $-1 $168 $95 #
plane-surface $-1 0 -29.646975877288842 0 0 1 0 0 0 1 forward_v I I I I #
coedge $-1 $250 $251 $252 $253 forward $96 $-1 #
coedge $-1 $252 $98 $100 $170 reversed $61 $-1 #
coedge $-1 $98 $252 $254 $255 reversed $61 $-1 #
coedge $-1 $256 $101 $98 $166 forward $172 $-1 #
edge $-1 $174 0.32511235250493975 $257 4.1918144779710325 $165 $258 forward 7 unknown #
coedge $-1 $100 $99 $250 $259 reversed $39 $-1 #
coedge $-1 $260 $261 $99 $169 forward $160 $-1 #
edge $-1 $262 -61.828058717612237 $173 61.828058717612237 $168 $263 forward 7 unknown #
edge $-1 $264 -61.828058717612237 $174 61.828058717612237 $163 $265 forward 7 unknown #
coedge $-1 $101 $256 $260 $266 forward $172 $-1 #
loop $-1 $-1 $165 $247 #
vertex $-1 $169 $267 #
vertex $-1 $102 $268 #
straight-curve $-1 61.828058717612237 -13.041043299494387 2.5835757677429259 0 1 0 I I #
face $-1 $-1 $188 $23 $-1 $269 forward single #
loop $-1 $-1 $270 $103 #
plane-surface $-1 61.828058717612237 0 0 -1 0 0 0 0 1 forward_v I I I I #
coedge $-1 $271 $272 $273 $274 reversed $104 $-1 #
coedge $-1 $275 $106 $108 $186 forward $65 $-1 #
coedge $-1 $106 $275 $271 $276 forward $65 $-1 #
coedge $-1 $273 $109 $106 $183 forward $188 $-1 #
edge $-1 $190 -3.1618994604107549 $277 12.43199011095901 $182 $278 forward 7 unknown #
coedge $-1 $279 $280 $107 $185 forward $177 $-1 #
edge $-1 $281 -86.54210169190462 $189 -81.644117164023157 $184 $282 forward 7 unknown #
edge $-1 $190 116.33619450474177 $281 123.65611743522447 $108 $283 forward 7 unknown #
coedge $-1 $109 $273 $279 $284 forward $188 $-1 #
loop $-1 $-1 $273 $176 #
vertex $-1 $185 $285 #
vertex $-1 $110 $286 #
straight-curve $-1 26.337874818780577 -1.4731458648633726 6.4502778932090195 -1 0 0 I I #
coedge $-1 $192 $192 $-1 $287 reversed $113 $-1 #
edge $-1 $288 0 $288 6.2831853071796004 $114 $289 forward 7 unknown #
vertex $-1 $117 $290 #
ellipse-curve $-1 59.108177319791722 -12.611638415841774 4.0012856292682892 0.66913061440640931 0 0.74314481823134659 1.1147172273470198 0 -1.003695921609614 1 I I #
coedge $-1 $196 $196 $-1 $291 reversed $120 $-1 #
edge $-1 $292 0 $292 6.2831853071796004 $121 $293 forward 7 unknown #
vertex $-1 $124 $294 #
ellipse-curve $-1 59.108177319791722 -5.9285428852547319 4.0012856292682892 0.66913061440640931 0 0.74314481823134659 1.1147172273470198 0 -1.003695921609614 1 I I #
face $-1 $-1 $212 $26 $-1 $295 reversed single #
loop $-1 $-1 $296 $125 #
plane-surface $-1 0 0 6.4502778932090177 0 0 1 1 0 0 forward_v I I I I #
coedge $-1 $297 $298 $205 $299 forward $126 $-1 #
coedge $-1 $300 $128 $130 $210 forward $79 $-1 #
coedge $-1 $128 $300 $203 $299 reversed $79 $-1 #
coedge $-1 $301 $131 $128 $207 forward $212 $-1 #
edge $-1 $214 0.35739616532432628 $302 14.892332825351028 $206 $303 forward 7 unknown #
coedge $-1 $304 $296 $129 $209 forward $201 $-1 #
edge $-1 $305 -15.969169212689536 $213 -12.805010735269946 $208 $306 forward 7 unknown #
edge $-1 $214 2.0097183471152325e-014 $305 4.4747958841836626 $130 $307 forward 7 unknown #
coedge $-1 $131 $301 $304 $308 reversed $212 $-1 #
loop $-1 $-1 $206 $200 #
vertex $-1 $308 $309 #
vertex $-1 $132 $310 #
straight-curve $-1 -61.828058717612237 -7.9822606606620035 45.362098750753624 0 0 -1 I I #
coedge $-1 $216 $216 $-1 $311 reversed $135 $-1 #
edge $-1 $312 0 $312 6.2831853071796004 $136 $313 forward 7 unknown #
vertex $-1 $139 $314 #
ellipse-curve $-1 -60.245979478902441 -15.249728990675354 4.8681986177869092 -0.70710678939079041 0 0.70710677298230451 0.35355338649115226 0 0.35355339469539521 1 I I #
face $-1 $-1 $155 $21 $-1 $315 reversed single #
loop $-1 $-1 $236 $140 #
plane-surface $-1 0 29.646975877288842 0 0 -1 0 0 0 -1 forward_v I I I I #
coedge $-1 $316 $234 $237 $317 forward $141 $-1 #
coedge $-1 $240 $143 $144 $228 reversed $88 $-1 #
coedge $-1 $234 $316 $143 $226 reversed $141 $-1 #
edge $-1 $241 -6.4502778932090177 $318 6.4502778932090177 $225 $319 forward 7 unknown #
coedge $-1 $145 $144 $316 $320 forward $57 $-1 #
edge $-1 $232 -61.828058717612237 $318 61.828058717612237 $224 $321 forward 7 unknown #
coedge $-1 $237 $236 $145 $230 reversed $221 $-1 #
edge $-1 $322 -61.828058717612237 $231 61.828058717612237 $229 $323 forward 7 unknown #
vertex $-1 $147 $324 #
vertex $-1 $243 $325 #
straight-curve $-1 61.828058717612237 0 -6.4502778932090177 0 -1 0 I I #
coedge $-1 $223 $225 $148 $235 reversed $141 $-1 #
edge $-1 $238 -29.646975877288842 $241 29.646975877288842 $234 $326 forward 7 unknown #
coedge $-1 $229 $149 $154 $244 forward $221 $-1 #
coedge $-1 $149 $229 $223 $317 reversed $221 $-1 #
vertex $-1 $150 $327 #
straight-curve $-1 0 29.646975877288842 6.4502778932090177 -1 0 0 I I #
coedge $-1 $151 $224 $153 $243 reversed $88 $-1 #
vertex $-1 $235 $328 #
straight-curve $-1 0 -29.646975877288842 6.4502778932090177 1 0 0 I I #
edge $-1 $156 -6.4502778932090177 $232 6.4502778932090177 $153 $329 forward 7 unknown #
edge $-1 $157 -6.4502778932090177 $231 6.4502778932090177 $154 $330 forward 7 unknown #
point $-1 61.828058717612237 -29.646975877288842 6.4502778932090177 #
point $-1 61.828058717612237 29.646975877288842 6.4502778932090177 #
face $-1 $-1 $172 $22 $-1 $331 reversed single #
loop $-1 $-1 $254 $159 #
plane-surface $-1 0 0 6.4502778932090177 0 0 1 1 0 0 forward_v I I I I #
coedge $-1 $332 $162 $167 $259 forward $96 $-1 #
coedge $-1 $162 $332 $333 $334 reversed $96 $-1 #
coedge $-1 $164 $163 $162 $253 reversed $61 $-1 #
edge $-1 $335 -4.1918144779710325 $264 -0.32511235250493975 $162 $336 forward 7 unknown #
coedge $-1 $333 $337 $164 $255 forward $248 $-1 #
edge $-1 $257 -61.828058717612237 $335 61.828058717612237 $254 $338 forward 7 unknown #
coedge $-1 $171 $165 $337 $339 reversed $172 $-1 #
vertex $-1 $166 $340 #
straight-curve $-1 61.828058717612237 -22.517197320688705 2.2584634152379861 0 0 1 I I #
edge $-1 $264 9.4761540211943185 $262 16.605932577794455 $250 $341 forward 7 unknown #
coedge $-1 $342 $168 $171 $266 reversed $160 $-1 #
coedge $-1 $168 $342 $332 $343 forward $160 $-1 #
vertex $-1 $169 $344 #
straight-curve $-1 0 -29.646975877288842 2.5835757677429259 1 0 0 I I #
vertex $-1 $259 $345 #
straight-curve $-1 0 -22.517197320688705 2.5835757677429259 1 0 0 I I #
edge $-1 $346 -6.4502778932090177 $173 -2.5835757677429259 $171 $347 forward 7 unknown #
point $-1 61.828058717612237 -29.646975877288842 2.5835757677429259 #
point $-1 61.828058717612237 -22.517197320688705 2.5835757677429259 #
plane-surface $-1 0 0 6.4502778932090177 0 0 1 1 0 0 forward_v I I I I #
coedge $-1 $280 $279 $272 $348 forward $177 $-1 #
coedge $-1 $272 $179 $181 $276 reversed $104 $-1 #
coedge $-1 $179 $271 $270 $348 reversed $104 $-1 #
coedge $-1 $187 $182 $179 $274 forward $188 $-1 #
edge $-1 $277 30.050421103190629 $349 35.49018389883166 $273 $350 forward 7 unknown #
coedge $-1 $181 $180 $280 $351 reversed $65 $-1 #
edge $-1 $352 -123.65611743522447 $277 -116.33619450474177 $271 $353 forward 7 unknown #
vertex $-1 $183 $354 #
straight-curve $-1 56.388295921971206 -4.6350453252741275 6.4502778932090123 0 -1 0 I I #
coedge $-1 $270 $184 $187 $284 reversed $177 $-1 #
coedge $-1 $184 $270 $275 $351 forward $177 $-1 #
vertex $-1 $185 $355 #
straight-curve $-1 61.828058717612237 -1.4731458648633726 88.094395057232177 0 0 1 I I #
straight-curve $-1 -30.066344196981703 -1.4731458648633726 84.294387199870414 0.74314481823134659 0 -0.66913061440640931 I I #
edge $-1 $349 -17.067035436233137 $189 -1.4731458648633726 $279 $356 forward 7 unknown #
point $-1 61.828058717612237 -1.4731458648633726 6.4502778932090177 #
point $-1 56.388295921971206 -1.4731458648633726 6.4502778932090195 #
edge $-1 $357 1 $357 0 $192 $-1 forward 7 unknown #
vertex $-1 $193 $358 #
ellipse-curve $-1 56.682698815173822 -12.611638415841774 1.3075189062536738 0.66913061440640931 0 0.74314481823134659 1.1147172273470198 0 -1.003695921609614 1 I I #
point $-1 60.222894547138722 -12.611638415841774 2.99758970765865 #
edge $-1 $359 1 $359 0 $196 $-1 forward 7 unknown #
vertex $-1 $197 $360 #
ellipse-curve $-1 56.682698815173822 -5.9285428852547319 1.3075189062536738 0.66913061440640931 0 0.74314481823134659 1.1147172273470198 0 -1.003695921609614 1 I I #
point $-1 60.222894547138722 -5.9285428852547319 2.99758970765865 #
plane-surface $-1 -61.828058717612237 0 0 1 0 0 0 0 -1 forward_v I I I I #
coedge $-1 $208 $361 $300 $362 forward $201 $-1 #
coedge $-1 $298 $203 $361 $363 reversed $126 $-1 #
coedge $-1 $203 $297 $301 $364 reversed $126 $-1 #
edge $-1 $302 -22.294675705423824 $365 -17.819879821240185 $203 $366 forward 7 unknown #
coedge $-1 $205 $204 $296 $362 reversed $79 $-1 #
coedge $-1 $211 $206 $298 $364 forward $212 $-1 #
vertex $-1 $364 $367 #
straight-curve $-1 -61.828058717612237 -7.6248644953376772 3.286119342364799 0 -1 0 I I #
coedge $-1 $361 $208 $211 $308 forward $201 $-1 #
vertex $-1 $209 $368 #
straight-curve $-1 -74.633069452882182 -7.9822606606620035 6.4502778932090195 -1 0 0 I I #
straight-curve $-1 -61.828058717612251 -7.9822606606620035 3.2861193423647848 0.70710677298230451 0 0.70710678939079041 I I #
edge $-1 $213 7.9822606606620035 $369 22.517197320688705 $211 $370 forward 7 unknown #
point $-1 -61.828058717612237 -7.9822606606620035 6.4502778932090177 #
point $-1 -61.828058717612237 -7.9822606606620035 3.286119342364799 #
edge $-1 $371 1 $371 0 $216 $-1 forward 7 unknown #
vertex $-1 $217 $372 #
ellipse-curve $-1 -59.538872689511642 -15.249728990675354 4.1610918448045977 -0.70710678939079041 0 0.70710677298230451 0.35355338649115226 0 0.35355339469539521 1 I I #
point $-1 -59.892426092411277 -15.249728990675354 5.2217520124822974 #
plane-surface $-1 61.828058717612237 0 0 -1 0 0 0 0 1 forward_v I I I I #
coedge $-1 $225 $223 $227 $320 reversed $141 $-1 #
edge $-1 $238 -6.4502778932090177 $322 6.4502778932090177 $237 $373 forward 7 unknown #
vertex $-1 $320 $374 #
straight-curve $-1 -61.828058717612237 -29.646975877288842 0 0 0 -1 I I #
edge $-1 $318 -29.646975877288842 $322 29.646975877288842 $316 $375 forward 7 unknown #
straight-curve $-1 0 -29.646975877288842 -6.4502778932090177 -1 0 0 I I #
vertex $-1 $230 $376 #
straight-curve $-1 0 29.646975877288842 -6.4502778932090177 1 0 0 I I #
point $-1 61.828058717612237 29.646975877288842 -6.4502778932090177 #
point $-1 61.828058717612237 -29.646975877288842 -6.4502778932090177 #
straight-curve $-1 -61.828058717612237 0 6.4502778932090177 0 -1 0 I I #
point $-1 -61.828058717612237 29.646975877288842 6.4502778932090177 #
point $-1 -61.828058717612237 -29.646975877288842 6.4502778932090177 #
straight-curve $-1 61.828058717612237 -29.646975877288842 0 0 0 -1 I I #
straight-curve $-1 61.828058717612237 29.646975877288842 0 0 0 -1 I I #
plane-surface $-1 61.828058717612237 0 0 -1 0 0 0 0 1 forward_v I I I I #
coedge $-1 $251 $250 $261 $343 reversed $96 $-1 #
coedge $-1 $377 $254 $251 $334 forward $248 $-1 #
edge $-1 $335 22.517197320688705 $378 29.646975877288842 $251 $379 forward 7 unknown #
vertex $-1 $334 $380 #
straight-curve $-1 -61.828058717612237 -22.517197320688705 2.2584634152379861 0 0 -1 I I #
coedge $-1 $254 $377 $256 $339 forward $248 $-1 #
straight-curve $-1 0 -22.517197320688705 6.4502778932090177 -1 0 0 I I #
edge $-1 $346 -29.646975877288842 $257 -22.517197320688705 $256 $381 forward 7 unknown #
point $-1 61.828058717612237 -22.517197320688705 6.4502778932090186 #
straight-curve $-1 -61.828058717612237 -13.041043299494387 2.5835757677429259 0 -1 0 I I #
coedge $-1 $261 $260 $377 $382 reversed $160 $-1 #
edge $-1 $378 -6.4502778932090177 $262 -2.5835757677429259 $332 $383 forward 7 unknown #
point $-1 -61.828058717612237 -29.646975877288842 2.5835757677429259 #
point $-1 -61.828058717612237 -22.517197320688705 2.5835757677429259 #
vertex $-1 $339 $384 #
straight-curve $-1 61.828058717612237 -29.646975877288842 0 0 0 -1 I I #
edge $-1 $349 81.644117164023157 $352 86.54210169190462 $270 $385 forward 7 unknown #
vertex $-1 $284 $386 #
straight-curve $-1 26.337874818780577 -17.067035436233137 6.4502778932090195 1 0 0 I I #
edge $-1 $352 -12.43199011095901 $281 3.1618994604107549 $280 $387 forward 7 unknown #
vertex $-1 $351 $388 #
straight-curve $-1 -30.066344196981703 -17.067035436233137 84.294387199870414 -0.74314481823134659 0 0.66913061440640931 I I #
point $-1 56.388295921971206 -17.067035436233137 6.4502778932090195 #
point $-1 61.828058717612237 -1.4731458648633726 1.5522933653275572 #
straight-curve $-1 61.828058717612237 0 6.4502778932090177 0 1 0 I I #
vertex $-1 $287 $389 #
point $-1 57.797416042520837 -12.611638415841774 0.30382298464405977 #
vertex $-1 $291 $390 #
point $-1 57.797416042520837 -5.9285428852547319 0.30382298464405977 #
coedge $-1 $296 $304 $297 $363 forward $201 $-1 #
edge $-1 $365 -14.892332825351028 $305 -0.35739616532432628 $296 $391 forward 7 unknown #
edge $-1 $369 -61.828058717612237 $365 -58.663900240192646 $361 $392 forward 7 unknown #
edge $-1 $302 1.0276559271268129 $369 4.1918144779710325 $301 $393 forward 7 unknown #
vertex $-1 $362 $394 #
straight-curve $-1 -46.063342524863018 -22.517197320688705 19.050835900935894 0.70710677298230462 0 0.70710678939079052 I I #
point $-1 -61.828058717612237 -22.517197320688705 3.286119342364799 #
point $-1 -58.663900240192646 -7.9822606606620035 6.4502778932090177 #
vertex $-1 $364 $395 #
straight-curve $-1 -61.828058717612237 0 6.4502778932090177 0 -1 0 I I #
vertex $-1 $311 $396 #
point $-1 -59.185319303020492 -15.249728990675354 4.514645239499993 #
straight-curve $-1 -61.828058717612237 29.646975877288842 0 0 0 -1 I I #
point $-1 -61.828058717612237 -29.646975877288842 -6.4502778932090177 #
straight-curve $-1 -61.828058717612237 0 -6.4502778932090177 0 1 0 I I #
point $-1 -61.828058717612237 29.646975877288842 -6.4502778932090177 #
coedge $-1 $337 $333 $342 $382 forward $248 $-1 #
vertex $-1 $334 $397 #
straight-curve $-1 -61.828058717612237 0 6.4502778932090177 0 -1 0 I I #
point $-1 -61.828058717612237 -22.517197320688705 6.4502778932090186 #
straight-curve $-1 61.828058717612237 0 6.4502778932090177 0 1 0 I I #
edge $-1 $378 -61.828058717612237 $346 61.828058717612237 $342 $398 forward 7 unknown #
straight-curve $-1 -61.828058717612237 -29.646975877288842 0 0 0 -1 I I #
point $-1 61.828058717612237 -29.646975877288842 6.4502778932090177 #
straight-curve $-1 61.828058717612237 -17.067035436233137 88.094395057232177 0 0 -1 I I #
point $-1 61.828058717612237 -17.067035436233137 6.4502778932090177 #
straight-curve $-1 61.828058717612237 -4.6350453252741275 1.5522933653275643 0 1 0 I I #
point $-1 61.828058717612237 -17.067035436233137 1.5522933653275572 #
point $-1 55.679002893564203 -12.611638415841774 0.19280167890665389 #
point $-1 55.679002893564203 -5.9285428852547319 0.19280167890665389 #
straight-curve $-1 -58.663900240192639 -7.6248644953376772 6.4502778932090159 0 1 0 I I #
straight-curve $-1 0 -22.517197320688705 6.4502778932090177 1 0 0 I I #
straight-curve $-1 -61.828058717612237 -22.517197320688705 2.2584634152379861 0 0 1 I I #
point $-1 -58.663900240192646 -22.517197320688705 6.4502778932090177 #
point $-1 -61.828058717612237 -22.517197320688705 6.4502778932090186 #
point $-1 -59.185319294816246 -15.249728990675354 3.8075384583134455 #
point $-1 -61.828058717612237 -29.646975877288842 6.4502778932090177 #
straight-curve $-1 0 -29.646975877288842 6.4502778932090177 1 0 0 I I #
End-of-ACIS-data 