500 0 13 0           
7 Unknown 11 ACIS 5.0 NT 24 Fri Mar 26 14:25:18 1999 
-1 9.9999999999999995e-007 1e-010 
body $-1 $13 $-1 $14 #
body $-1 $15 $-1 $16 #
body $-1 $17 $-1 $18 #
body $-1 $19 $-1 $20 #
body $-1 $21 $-1 $22 #
body $-1 $23 $-1 $24 #
body $-1 $25 $-1 $26 #
body $-1 $27 $-1 $28 #
body $-1 $29 $-1 $30 #
body $-1 $31 $-1 $32 #
body $-1 $33 $-1 $34 #
body $-1 $35 $-1 $36 #
body $-1 $37 $-1 $38 #
lump $-1 $-1 $39 $0 #
transform $-1 1 0 0 0 1 0 0 0 1 63.728751487777338 42.194552160777015 13.652996590613675 1 rotate no_reflect no_shear #
lump $-1 $-1 $40 $1 #
transform $-1 1 0 0 0 1 0 0 0 1 63.728751487777338 42.194552160777015 13.652996590613675 1 rotate no_reflect no_shear #
lump $-1 $-1 $41 $2 #
transform $-1 1 0 0 0 1 0 0 0 1 63.728751487777338 42.194552160777015 13.652996590613675 1 rotate no_reflect no_shear #
lump $-1 $-1 $42 $3 #
transform $-1 1 0 0 0 1 0 0 0 1 63.728751487777338 42.194552160777015 13.652996590613675 1 rotate no_reflect no_shear #
lump $-1 $-1 $43 $4 #
transform $-1 1 0 0 0 1 0 0 0 1 63.728751487777338 42.194552160777015 13.652996590613675 1 rotate no_reflect no_shear #
lump $-1 $-1 $44 $5 #
transform $-1 1 0 0 0 1 0 0 0 1 63.728751487777338 42.194552160777015 13.652996590613675 1 rotate no_reflect no_shear #
lump $-1 $-1 $45 $6 #
transform $-1 1 0 0 0 1 0 0 0 1 63.728751487777338 42.194552160777015 13.652996590613675 1 rotate no_reflect no_shear #
lump $-1 $-1 $46 $7 #
transform $-1 1 0 0 0 1 0 0 0 1 63.728751487777338 42.194552160777015 13.652996590613675 1 rotate no_reflect no_shear #
lump $-1 $-1 $47 $8 #
transform $-1 1 0 0 0 1 0 0 0 1 63.728751487777338 42.194552160777015 13.652996590613675 1 rotate no_reflect no_shear #
lump $-1 $-1 $48 $9 #
transform $-1 1 0 0 0 1 0 0 0 1 63.728751487777338 42.194552160777015 13.652996590613675 1 rotate no_reflect no_shear #
lump $-1 $-1 $49 $10 #
transform $-1 1 0 0 0 1 0 0 0 1 63.728751487777338 42.194552160777015 13.652996590613675 1 rotate no_reflect no_shear #
lump $-1 $-1 $50 $11 #
transform $-1 1 0 0 0 1 0 0 0 1 63.728751487777338 42.194552160777015 13.652996590613675 1 rotate no_reflect no_shear #
lump $-1 $-1 $51 $12 #
transform $-1 1 0 0 0 1 0 0 0 1 63.728751487777338 42.194552160777015 13.652996590613675 1 rotate no_reflect no_shear #
shell $-1 $-1 $-1 $52 $-1 $13 #
shell $-1 $-1 $-1 $53 $-1 $15 #
shell $-1 $-1 $-1 $54 $-1 $17 #
shell $-1 $-1 $-1 $55 $-1 $19 #
shell $-1 $-1 $-1 $56 $-1 $21 #
shell $-1 $-1 $-1 $57 $-1 $23 #
shell $-1 $-1 $-1 $58 $-1 $25 #
shell $-1 $-1 $-1 $59 $-1 $27 #
shell $-1 $-1 $-1 $60 $-1 $29 #
shell $-1 $-1 $-1 $61 $-1 $31 #
shell $-1 $-1 $-1 $62 $-1 $33 #
shell $-1 $-1 $-1 $63 $-1 $35 #
shell $-1 $-1 $-1 $64 $-1 $37 #
face $-1 $65 $66 $39 $-1 $67 forward single #
face $-1 $68 $69 $40 $-1 $70 forward single #
face $-1 $71 $72 $41 $-1 $73 forward single #
face $-1 $74 $75 $42 $-1 $76 reversed single #
face $-1 $77 $78 $43 $-1 $79 forward single #
face $-1 $80 $81 $44 $-1 $82 reversed single #
face $-1 $83 $84 $45 $-1 $85 forward single #
face $-1 $86 $87 $46 $-1 $88 reversed single #
face $-1 $89 $90 $47 $-1 $91 forward single #
face $-1 $92 $93 $48 $-1 $94 forward single #
face $-1 $95 $96 $49 $-1 $97 reversed single #
face $-1 $98 $99 $50 $-1 $100 forward single #
face $-1 $101 $102 $51 $-1 $103 forward single #
face $-1 $104 $105 $39 $-1 $106 reversed single #
loop $-1 $-1 $107 $52 #
plane-surface $-1 0 0 13.652996590613675 0 0 1 1 0 0 forward_v I I I I #
face $-1 $108 $109 $40 $-1 $110 reversed single #
loop $-1 $-1 $111 $53 #
plane-surface $-1 0 -36.306492692376629 8.0558648893683227 0 0 1 1 0 0 forward_v I I I I #
face $-1 $112 $113 $41 $-1 $114 reversed single #
loop $-1 $-1 $115 $54 #
plane-surface $-1 0 36.306492692376629 8.0558648893683227 0 0 1 1 0 0 forward_v I I I I #
face $-1 $116 $117 $42 $-1 $118 reversed single #
loop $-1 $-1 $119 $55 #
plane-surface $-1 113.41297452301603 -19.303845576295089 176.44972777300595 0 1 0 0.87461971476443456 0 0.48480960649040278 forward_v I I I I #
face $-1 $120 $121 $43 $-1 $122 forward single #
loop $-1 $123 $124 $56 #
cone-surface $-1 58.43871153889144 -14.988015107227831 7.0932304060327915 -0.87461971476443456 0 -0.48480960649040278 0.72721440973560414 0 -1.311929572146652 1 I I 0 1 1.5 forward I I I I #
face $-1 $125 $126 $44 $-1 $127 reversed single #
loop $-1 $-1 $128 $57 #
plane-surface $-1 113.41297452301603 10.672184638160568 176.44972777300595 0 1 0 0.87461971476443456 0 0.48480960649040278 forward_v I I I I #
face $-1 $129 $130 $45 $-1 $131 forward single #
loop $-1 $132 $133 $58 #
cone-surface $-1 58.43871153889144 14.988015107227824 7.0932304060327915 -0.87461971476443456 0 -0.48480960649040278 0.72721440973560414 0 -1.311929572146652 1 I I 0 1 1.5 forward I I I I #
face $-1 $134 $135 $46 $-1 $136 reversed single #
loop $-1 $-1 $137 $59 #
plane-surface $-1 -129.37421932638966 -20.579485307852259 113.6128265551595 0 -1 0 0.51503808176128008 0 -0.85716729658548041 forward_v I I I I #
face $-1 $138 $139 $47 $-1 $140 forward single #
loop $-1 $141 $142 $60 #
cone-surface $-1 -55.638333140902546 -27.607305247940822 8.411398926071314 0.51503808176128008 0 -0.85716729658548041 0.85716729658548041 0 0.51503808176128008 1 I I 0 1 1 forward I I I I #
face $-1 $143 $144 $48 $-1 $145 forward single #
loop $-1 $146 $147 $61 #
cone-surface $-1 -55.638333140902546 -23.390613283887685 8.411398926071314 0.51503808176128008 0 -0.85716729658548041 0.85716729658548041 0 0.51503808176128008 1 I I 0 1 1 forward I I I I #
face $-1 $148 $149 $49 $-1 $150 reversed single #
loop $-1 $-1 $151 $62 #
plane-surface $-1 -129.37421932638966 20.579485307852252 113.6128265551595 0 1 0 -0.51503808176128008 0 0.85716729658548041 forward_v I I I I #
face $-1 $152 $153 $50 $-1 $154 forward single #
loop $-1 $155 $156 $63 #
cone-surface $-1 -55.638333140902546 23.390613283887681 8.411398926071314 0.51503808176128008 0 -0.85716729658548041 0.85716729658548041 0 0.51503808176128008 1 I I 0 1 1 forward I I I I #
face $-1 $157 $158 $51 $-1 $159 forward single #
loop $-1 $160 $161 $64 #
cone-surface $-1 -55.638333140902546 27.607305247940822 8.411398926071314 0.51503808176128008 0 -0.85716729658548041 0.85716729658548041 0 0.51503808176128008 1 I I 0 1 1 forward I I I I #
face $-1 $162 $163 $39 $-1 $164 reversed single #
loop $-1 $-1 $165 $65 #
plane-surface $-1 0 0 -13.652996590613675 0 0 1 1 0 0 forward_v I I I I #
coedge $-1 $166 $167 $168 $169 forward $66 $-1 #
face $-1 $170 $171 $40 $-1 $172 reversed single #
loop $-1 $-1 $173 $68 #
plane-surface $-1 0 -36.306492692376629 0.19856889315755577 0 0 1 1 0 0 forward_v I I I I #
coedge $-1 $174 $175 $176 $177 reversed $69 $-1 #
face $-1 $178 $179 $41 $-1 $180 reversed single #
loop $-1 $-1 $181 $71 #
plane-surface $-1 0 36.306492692376629 0.19856889315755577 0 0 1 1 0 0 forward_v I I I I #
coedge $-1 $182 $183 $184 $185 reversed $72 $-1 #
face $-1 $186 $187 $42 $-1 $188 reversed single #
loop $-1 $-1 $189 $74 #
plane-surface $-1 1.9361296259493201 -14.988015107227831 114.65710591117794 0.87461971476443456 0 0.48480960649040278 0.48480960649040278 0 -0.87461971476443456 forward_v I I I I #
coedge $-1 $190 $191 $192 $193 reversed $75 $-1 #
face $-1 $-1 $194 $43 $-1 $195 forward single #
loop $-1 $196 $197 $77 #
cone-surface $-1 55.395272758033578 -14.988015107227831 5.4062248048353254 -0.87461971476443456 0 -0.48480960649040278 0.36360720486780207 0 -0.65596478607332598 1 I I -0.70710678118654757 0.70710678118654757 0.75 forward I I I I #
loop $-1 $-1 $198 $56 #
coedge $-1 $124 $124 $199 $200 reversed $78 $-1 #
face $-1 $201 $202 $44 $-1 $203 reversed single #
loop $-1 $-1 $204 $80 #
plane-surface $-1 1.9361296259493201 14.988015107227824 114.65710591117794 0.87461971476443456 0 0.48480960649040278 0.48480960649040278 0 -0.87461971476443456 forward_v I I I I #
coedge $-1 $205 $206 $207 $208 reversed $81 $-1 #
face $-1 $-1 $209 $45 $-1 $210 forward single #
loop $-1 $211 $212 $83 #
cone-surface $-1 55.395272758033578 14.988015107227824 5.4062248048353254 -0.87461971476443456 0 -0.48480960649040278 0.36360720486780207 0 -0.65596478607332598 1 I I -0.70710678118654757 0.70710678118654757 0.75 forward I I I I #
loop $-1 $-1 $213 $58 #
coedge $-1 $133 $133 $214 $215 reversed $84 $-1 #
face $-1 $216 $217 $46 $-1 $218 forward single #
loop $-1 $-1 $219 $86 #
plane-surface $-1 -63.72875148777733 -25.498959265914252 4.360423300067481 -0.51503808176128008 0 0.85716729658548041 0.85716729658548041 0 0.51503808176128008 forward_v I I I I #
coedge $-1 $220 $221 $222 $223 reversed $87 $-1 #
face $-1 $-1 $224 $47 $-1 $225 forward single #
loop $-1 $226 $227 $89 #
cone-surface $-1 -55.023115145993728 -27.607305247940822 7.3875042585093169 0.51503808176128008 0 -0.85716729658548041 0.4285836482927402 0 0.25751904088064004 1 I I -0.70710678118654746 0.70710678118654746 0.5 forward I I I I #
loop $-1 $-1 $228 $60 #
coedge $-1 $142 $142 $229 $230 reversed $90 $-1 #
face $-1 $-1 $231 $48 $-1 $232 forward single #
loop $-1 $233 $234 $92 #
cone-surface $-1 -55.023115145993728 -23.390613283887685 7.3875042585093169 0.51503808176128008 0 -0.85716729658548041 0.4285836482927402 0 0.25751904088064004 1 I I -0.70710678118654746 0.70710678118654746 0.5 forward I I I I #
loop $-1 $-1 $235 $61 #
coedge $-1 $147 $147 $236 $237 reversed $93 $-1 #
face $-1 $238 $239 $49 $-1 $240 forward single #
loop $-1 $-1 $241 $95 #
plane-surface $-1 -63.72875148777733 25.498959265914245 4.360423300067481 -0.51503808176128008 0 0.85716729658548041 0.85716729658548041 0 0.51503808176128008 forward_v I I I I #
coedge $-1 $242 $243 $244 $245 reversed $96 $-1 #
face $-1 $-1 $246 $50 $-1 $247 forward single #
loop $-1 $248 $249 $98 #
cone-surface $-1 -55.023115145993728 23.390613283887681 7.3875042585093169 0.51503808176128008 0 -0.85716729658548041 0.4285836482927402 0 0.25751904088064004 1 I I -0.70710678118654746 0.70710678118654746 0.5 forward I I I I #
loop $-1 $-1 $250 $63 #
coedge $-1 $156 $156 $251 $252 reversed $99 $-1 #
face $-1 $-1 $253 $51 $-1 $254 forward single #
loop $-1 $255 $256 $101 #
cone-surface $-1 -55.023115145993728 27.607305247940822 7.3875042585093169 0.51503808176128008 0 -0.85716729658548041 0.4285836482927402 0 0.25751904088064004 1 I I -0.70710678118654746 0.70710678118654746 0.5 forward I I I I #
loop $-1 $-1 $257 $64 #
coedge $-1 $161 $161 $258 $259 reversed $102 $-1 #
face $-1 $260 $261 $39 $-1 $262 reversed single #
loop $-1 $-1 $263 $104 #
plane-surface $-1 0 -42.194552160777015 0 0 1 0 0 0 1 forward_v I I I I #
coedge $-1 $264 $265 $266 $267 forward $105 $-1 #
coedge $-1 $268 $107 $269 $270 forward $66 $-1 #
coedge $-1 $107 $268 $271 $272 forward $66 $-1 #
coedge $-1 $273 $274 $107 $169 reversed $275 $-1 #
edge $-1 $276 -42.194552160777015 $277 42.194552160777015 $168 $278 forward 7 unknown #
face $-1 $279 $280 $40 $-1 $281 reversed single #
loop $-1 $-1 $282 $108 #
plane-surface $-1 0 -30.418433223976244 4.1272168912629397 0 -1 0 0 0 -1 forward_v I I I I #
coedge $-1 $283 $284 $285 $286 reversed $109 $-1 #
coedge $-1 $287 $111 $288 $289 forward $69 $-1 #
coedge $-1 $111 $287 $290 $291 reversed $69 $-1 #
coedge $-1 $292 $293 $111 $177 forward $294 $-1 #
edge $-1 $295 12.265186877787929 $296 24.0413058145887 $176 $297 forward 7 unknown #
face $-1 $298 $299 $41 $-1 $300 reversed single #
loop $-1 $-1 $301 $112 #
plane-surface $-1 0 30.418433223976244 4.1272168912629397 0 1 0 0 0 1 forward_v I I I I #
coedge $-1 $302 $303 $304 $305 reversed $113 $-1 #
coedge $-1 $306 $115 $307 $308 reversed $72 $-1 #
coedge $-1 $115 $306 $309 $310 forward $72 $-1 #
coedge $-1 $311 $312 $115 $185 forward $299 $-1 #
edge $-1 $313 -24.0413058145887 $314 -12.265186877787929 $184 $315 forward 7 unknown #
face $-1 $316 $317 $42 $-1 $318 forward single #
loop $-1 $-1 $319 $116 #
plane-surface $-1 113.41297452301603 -10.672184638160575 176.44972777300595 0 -1 0 -0.87461971476443456 0 -0.48480960649040278 forward_v I I I I #
coedge $-1 $320 $321 $322 $323 reversed $117 $-1 #
coedge $-1 $191 $119 $324 $325 reversed $75 $-1 #
coedge $-1 $119 $190 $320 $326 reversed $75 $-1 #
coedge $-1 $322 $327 $119 $193 forward $328 $-1 #
edge $-1 $329 74.571867295889291 $330 85.044602872391764 $192 $331 forward 7 unknown #
loop $-1 $-1 $199 $120 #
plane-surface $-1 1.9361296259493201 -14.988015107227831 114.65710591117794 0.87461971476443456 0 0.48480960649040278 0.48480960649040278 0 -0.87461971476443456 forward_v I I I I #
loop $-1 $-1 $332 $77 #
coedge $-1 $197 $197 $198 $333 reversed $121 $-1 #
coedge $-1 $198 $198 $197 $333 forward $123 $-1 #
coedge $-1 $199 $199 $124 $200 forward $194 $-1 #
edge $-1 $334 0 $334 6.2831853071796004 $199 $335 forward 7 unknown #
face $-1 $336 $337 $44 $-1 $338 reversed single #
loop $-1 $-1 $339 $125 #
plane-surface $-1 113.41297452301603 19.303845576295082 176.44972777300595 0 -1 0 -0.87461971476443456 0 -0.48480960649040278 forward_v I I I I #
coedge $-1 $340 $341 $342 $343 reversed $126 $-1 #
coedge $-1 $206 $128 $344 $345 reversed $81 $-1 #
coedge $-1 $128 $205 $340 $346 reversed $81 $-1 #
coedge $-1 $342 $347 $128 $208 forward $337 $-1 #
edge $-1 $348 74.571867295889291 $349 85.044602872391764 $207 $350 forward 7 unknown #
loop $-1 $-1 $214 $129 #
plane-surface $-1 1.9361296259493201 14.988015107227824 114.65710591117794 0.87461971476443456 0 0.48480960649040278 0.48480960649040278 0 -0.87461971476443456 forward_v I I I I #
loop $-1 $-1 $351 $83 #
coedge $-1 $212 $212 $213 $352 reversed $130 $-1 #
coedge $-1 $213 $213 $212 $352 forward $132 $-1 #
coedge $-1 $214 $214 $133 $215 forward $209 $-1 #
edge $-1 $353 0 $353 6.2831853071796004 $214 $354 forward 7 unknown #
face $-1 $355 $356 $46 $-1 $357 reversed single #
loop $-1 $-1 $358 $134 #
plane-surface $-1 0 0 13.652996590613675 0 0 1 1 0 0 forward_v I I I I #
coedge $-1 $359 $360 $361 $362 reversed $135 $-1 #
coedge $-1 $221 $137 $363 $364 reversed $87 $-1 #
coedge $-1 $137 $220 $359 $365 reversed $87 $-1 #
coedge $-1 $361 $366 $137 $223 forward $356 $-1 #
edge $-1 $367 43.153416686966075 $368 52.445989977512276 $222 $369 forward 7 unknown #
loop $-1 $-1 $229 $138 #
plane-surface $-1 -63.72875148777733 -25.498959265914252 4.360423300067481 -0.51503808176128008 0 0.85716729658548041 0.85716729658548041 0 0.51503808176128008 forward_v I I I I #
loop $-1 $-1 $370 $89 #
coedge $-1 $227 $227 $228 $371 reversed $139 $-1 #
coedge $-1 $228 $228 $227 $371 forward $141 $-1 #
coedge $-1 $229 $229 $142 $230 forward $224 $-1 #
edge $-1 $372 0 $372 6.2831853071796004 $229 $373 forward 7 unknown #
loop $-1 $-1 $236 $143 #
plane-surface $-1 -63.72875148777733 -25.498959265914252 4.360423300067481 -0.51503808176128008 0 0.85716729658548041 0.85716729658548041 0 0.51503808176128008 forward_v I I I I #
loop $-1 $-1 $374 $92 #
coedge $-1 $234 $234 $235 $375 reversed $144 $-1 #
coedge $-1 $235 $235 $234 $375 forward $146 $-1 #
coedge $-1 $236 $236 $147 $237 forward $231 $-1 #
edge $-1 $376 0 $376 6.2831853071796004 $236 $377 forward 7 unknown #
face $-1 $378 $379 $49 $-1 $380 reversed single #
loop $-1 $-1 $381 $148 #
plane-surface $-1 0 30.418433223976244 4.1272168912629397 0 1 0 0 0 1 forward_v I I I I #
coedge $-1 $382 $383 $384 $385 reversed $149 $-1 #
coedge $-1 $243 $151 $386 $387 reversed $96 $-1 #
coedge $-1 $151 $242 $382 $388 reversed $96 $-1 #
coedge $-1 $384 $389 $151 $245 forward $390 $-1 #
edge $-1 $391 0.95835817541749435 $392 16.423796961110696 $244 $393 forward 7 unknown #
loop $-1 $-1 $251 $152 #
plane-surface $-1 -63.72875148777733 25.498959265914245 4.360423300067481 -0.51503808176128008 0 0.85716729658548041 0.85716729658548041 0 0.51503808176128008 forward_v I I I I #
loop $-1 $-1 $394 $98 #
coedge $-1 $249 $249 $250 $395 reversed $153 $-1 #
coedge $-1 $250 $250 $249 $395 forward $155 $-1 #
coedge $-1 $251 $251 $156 $252 forward $246 $-1 #
edge $-1 $396 0 $396 6.2831853071796004 $251 $397 forward 7 unknown #
loop $-1 $-1 $258 $157 #
plane-surface $-1 -63.72875148777733 25.498959265914245 4.360423300067481 -0.51503808176128008 0 0.85716729658548041 0.85716729658548041 0 0.51503808176128008 forward_v I I I I #
loop $-1 $-1 $398 $101 #
coedge $-1 $256 $256 $257 $399 reversed $158 $-1 #
coedge $-1 $257 $257 $256 $399 forward $160 $-1 #
coedge $-1 $258 $258 $161 $259 forward $253 $-1 #
edge $-1 $400 0 $400 6.2831853071796004 $258 $401 forward 7 unknown #
face $-1 $402 $403 $39 $-1 $404 reversed single #
loop $-1 $-1 $405 $162 #
plane-surface $-1 -63.728751487777338 0 0 1 0 0 0 0 -1 forward_v I I I I #
coedge $-1 $406 $271 $407 $408 forward $163 $-1 #
coedge $-1 $409 $165 $406 $410 forward $105 $-1 #
coedge $-1 $165 $409 $411 $412 forward $105 $-1 #
coedge $-1 $274 $273 $165 $267 reversed $275 $-1 #
edge $-1 $413 -42.194552160777015 $414 42.194552160777015 $266 $415 forward 7 unknown #
coedge $-1 $167 $166 $416 $417 forward $66 $-1 #
coedge $-1 $418 $419 $166 $270 reversed $403 $-1 #
edge $-1 $277 -63.728751487777338 $420 63.728751487777338 $269 $421 forward 7 unknown #
coedge $-1 $263 $422 $167 $272 reversed $163 $-1 #
edge $-1 $423 -63.728751487777338 $276 63.728751487777338 $271 $424 forward 7 unknown #
coedge $-1 $266 $168 $422 $425 forward $275 $-1 #
coedge $-1 $168 $266 $418 $426 reversed $275 $-1 #
loop $-1 $-1 $273 $402 #
vertex $-1 $169 $427 #
vertex $-1 $169 $428 #
straight-curve $-1 63.728751487777338 0 13.652996590613675 0 1 0 I I #
face $-1 $429 $430 $40 $-1 $431 reversed single #
loop $-1 $-1 $432 $170 #
plane-surface $-1 -63.728751487777338 0 0 1 0 0 0 0 -1 forward_v I I I I #
coedge $-1 $433 $288 $293 $434 reversed $171 $-1 #
coedge $-1 $435 $173 $436 $437 reversed $109 $-1 #
coedge $-1 $173 $435 $433 $438 forward $109 $-1 #
coedge $-1 $293 $292 $173 $286 forward $294 $-1 #
edge $-1 $439 -24.0413058145887 $440 -12.265186877787929 $285 $441 forward 7 unknown #
coedge $-1 $175 $174 $432 $442 reversed $69 $-1 #
coedge $-1 $282 $443 $174 $289 reversed $171 $-1 #
edge $-1 $295 -63.728751487777338 $444 63.728751487777338 $288 $445 forward 7 unknown #
coedge $-1 $446 $447 $175 $291 forward $430 $-1 #
edge $-1 $296 -63.728751487777338 $448 63.728751487777338 $290 $449 forward 7 unknown #
coedge $-1 $285 $176 $447 $450 forward $294 $-1 #
coedge $-1 $176 $285 $282 $434 forward $294 $-1 #
loop $-1 $-1 $176 $429 #
vertex $-1 $177 $451 #
vertex $-1 $450 $452 #
straight-curve $-1 63.728751487777338 -18.153246346188315 8.0558648893683227 0 -1 0 I I #
face $-1 $453 $454 $41 $-1 $455 reversed single #
loop $-1 $-1 $184 $178 #
plane-surface $-1 63.728751487777338 0 0 -1 0 0 0 0 1 forward_v I I I I #
coedge $-1 $456 $309 $457 $458 reversed $179 $-1 #
coedge $-1 $459 $181 $456 $460 forward $113 $-1 #
coedge $-1 $181 $459 $461 $462 reversed $113 $-1 #
coedge $-1 $312 $311 $181 $305 forward $299 $-1 #
edge $-1 $463 12.265186877787929 $464 24.0413058145887 $304 $465 forward 7 unknown #
coedge $-1 $183 $182 $466 $467 reversed $72 $-1 #
coedge $-1 $468 $469 $182 $308 forward $470 $-1 #
edge $-1 $471 -63.728751487777338 $313 63.728751487777338 $307 $472 forward 7 unknown #
coedge $-1 $301 $473 $183 $310 reversed $179 $-1 #
edge $-1 $474 -63.728751487777338 $314 63.728751487777338 $309 $475 forward 7 unknown #
coedge $-1 $304 $184 $473 $476 forward $299 $-1 #
coedge $-1 $184 $304 $468 $477 reversed $299 $-1 #
vertex $-1 $477 $478 #
vertex $-1 $185 $479 #
straight-curve $-1 63.728751487777338 18.153246346188315 8.0558648893683227 0 -1 0 I I #
face $-1 $-1 $328 $42 $-1 $480 reversed single #
loop $-1 $-1 $481 $186 #
plane-surface $-1 0 0 13.652996590613675 0 0 1 1 0 0 forward_v I I I I #
coedge $-1 $482 $483 $484 $485 reversed $187 $-1 #
coedge $-1 $486 $189 $191 $326 forward $117 $-1 #
coedge $-1 $189 $486 $482 $487 forward $117 $-1 #
coedge $-1 $484 $192 $189 $323 forward $328 $-1 #
edge $-1 $330 -11.809838022681173 $488 -3.1781770845466593 $322 $489 forward 7 unknown #
coedge $-1 $490 $491 $190 $325 forward $317 $-1 #
edge $-1 $492 1.2171323180665752 $329 7.0222642262693213 $324 $493 forward 7 unknown #
edge $-1 $330 -127.45750297555472 $492 -115.48345825679013 $191 $494 forward 7 unknown #
coedge $-1 $192 $484 $490 $495 reversed $328 $-1 #
loop $-1 $-1 $484 $316 #
vertex $-1 $495 $496 #
vertex $-1 $193 $497 #
straight-curve $-1 63.728751487777338 -19.303845576295089 88.224863886502973 0 0 -1 I I #
coedge $-1 $332 $332 $-1 $498 reversed $196 $-1 #
edge $-1 $499 0 $499 6.2831853071796004 $197 $500 forward 7 unknown #
vertex $-1 $200 $501 #
ellipse-curve $-1 60.826185533675961 -14.988015107227831 8.4166288023624478 0.87461971476443456 0 0.48480960649040278 0.72721440973560414 0 -1.311929572146652 1 I I #
face $-1 $-1 $502 $44 $-1 $503 forward single #
loop $-1 $-1 $207 $201 #
plane-surface $-1 63.728751487777338 0 0 -1 0 0 0 0 1 forward_v I I I I #
coedge $-1 $504 $505 $506 $507 reversed $202 $-1 #
coedge $-1 $508 $204 $206 $346 forward $126 $-1 #
coedge $-1 $204 $508 $504 $509 forward $126 $-1 #
coedge $-1 $506 $207 $204 $343 forward $337 $-1 #
edge $-1 $349 3.1781770845466557 $510 11.80983802268117 $342 $511 forward 7 unknown #
coedge $-1 $512 $513 $205 $345 forward $502 $-1 #
edge $-1 $514 1.2171323180665752 $348 7.0222642262693213 $344 $515 forward 7 unknown #
edge $-1 $349 -127.45750297555472 $514 -115.48345825679013 $206 $516 forward 7 unknown #
coedge $-1 $207 $506 $512 $517 reversed $337 $-1 #
vertex $-1 $517 $518 #
vertex $-1 $208 $519 #
straight-curve $-1 63.728751487777338 10.672184638160568 88.224863886502973 0 0 -1 I I #
coedge $-1 $351 $351 $-1 $520 reversed $211 $-1 #
edge $-1 $521 0 $521 6.2831853071796004 $212 $522 forward 7 unknown #
vertex $-1 $215 $523 #
ellipse-curve $-1 60.826185533675961 14.988015107227824 8.4166288023624478 0.87461971476443456 0 0.48480960649040278 0.72721440973560414 0 -1.311929572146652 1 I I #
face $-1 $-1 $524 $46 $-1 $525 forward single #
loop $-1 $-1 $526 $216 #
plane-surface $-1 -63.728751487777338 0 0 1 0 0 0 0 -1 forward_v I I I I #
coedge $-1 $527 $528 $529 $530 forward $217 $-1 #
coedge $-1 $531 $219 $221 $365 forward $135 $-1 #
coedge $-1 $219 $531 $532 $533 forward $135 $-1 #
coedge $-1 $526 $222 $219 $362 forward $356 $-1 #
edge $-1 $368 7.8300056748951334 $534 17.668953591019118 $361 $535 forward 7 unknown #
coedge $-1 $528 $527 $220 $364 forward $217 $-1 #
edge $-1 $536 -16.423796961110696 $367 -0.95835817541749435 $363 $537 forward 7 unknown #
edge $-1 $368 -8.3777685069199533e-015 $536 18.04249747662989 $221 $538 forward 7 unknown #
coedge $-1 $222 $526 $528 $539 reversed $356 $-1 #
vertex $-1 $539 $540 #
vertex $-1 $223 $541 #
straight-curve $-1 -63.728751487777338 -20.579485307852259 56.80641327757975 0 0 -1 I I #
coedge $-1 $370 $370 $-1 $542 reversed $226 $-1 #
edge $-1 $543 0 $543 6.2831853071796004 $227 $544 forward 7 unknown #
vertex $-1 $230 $545 #
ellipse-curve $-1 -55.996032094930733 -27.607305247940822 9.0067099453405799 -0.51503808176128008 0 0.85716729658548041 0.85716729658548041 0 0.51503808176128008 1 I I #
coedge $-1 $374 $374 $-1 $546 reversed $233 $-1 #
edge $-1 $547 0 $547 6.2831853071796004 $234 $548 forward 7 unknown #
vertex $-1 $237 $549 #
ellipse-curve $-1 -55.996032094930733 -23.390613283887685 9.0067099453405799 -0.51503808176128008 0 0.85716729658548041 0.85716729658548041 0 0.51503808176128008 1 I I #
face $-1 $-1 $390 $49 $-1 $550 forward single #
loop $-1 $-1 $551 $238 #
plane-surface $-1 -63.728751487777338 0 0 1 0 0 0 0 -1 forward_v I I I I #
coedge $-1 $552 $553 $383 $554 forward $239 $-1 #
coedge $-1 $555 $241 $243 $388 forward $149 $-1 #
coedge $-1 $241 $555 $381 $554 reversed $149 $-1 #
coedge $-1 $556 $244 $241 $385 forward $390 $-1 #
edge $-1 $392 7.8300056748951299 $557 17.668953591019115 $384 $558 forward 7 unknown #
coedge $-1 $559 $560 $242 $387 forward $379 $-1 #
edge $-1 $561 -52.445989977512276 $391 -43.153416686966075 $386 $562 forward 7 unknown #
edge $-1 $392 -18.04249747662989 $561 8.3777685069199533e-015 $243 $563 forward 7 unknown #
coedge $-1 $244 $556 $559 $564 forward $390 $-1 #
loop $-1 $-1 $556 $378 #
vertex $-1 $387 $565 #
vertex $-1 $245 $566 #
straight-curve $-1 -64.687109663194832 20.579485307852252 13.652996590613675 1 0 0 I I #
coedge $-1 $394 $394 $-1 $567 reversed $248 $-1 #
edge $-1 $568 0 $568 6.2831853071796004 $249 $569 forward 7 unknown #
vertex $-1 $252 $570 #
ellipse-curve $-1 -55.996032094930733 23.390613283887681 9.0067099453405799 -0.51503808176128008 0 0.85716729658548041 0.85716729658548041 0 0.51503808176128008 1 I I #
coedge $-1 $398 $398 $-1 $571 reversed $255 $-1 #
edge $-1 $572 0 $572 6.2831853071796004 $256 $573 forward 7 unknown #
vertex $-1 $259 $574 #
ellipse-curve $-1 -55.996032094930733 27.607305247940822 9.0067099453405799 -0.51503808176128008 0 0.85716729658548041 0.85716729658548041 0 0.51503808176128008 1 I I #
face $-1 $-1 $275 $39 $-1 $575 reversed single #
loop $-1 $-1 $418 $260 #
plane-surface $-1 0 42.194552160777015 0 0 -1 0 0 0 -1 forward_v I I I I #
coedge $-1 $576 $416 $419 $577 forward $261 $-1 #
coedge $-1 $422 $263 $264 $410 reversed $163 $-1 #
coedge $-1 $416 $576 $263 $408 reversed $261 $-1 #
edge $-1 $423 -13.652996590613675 $578 13.652996590613675 $407 $579 forward 7 unknown #
coedge $-1 $265 $264 $576 $580 forward $105 $-1 #
edge $-1 $414 -63.728751487777338 $578 63.728751487777338 $406 $581 forward 7 unknown #
coedge $-1 $419 $418 $265 $412 reversed $403 $-1 #
edge $-1 $582 -63.728751487777338 $413 63.728751487777338 $411 $583 forward 7 unknown #
vertex $-1 $267 $584 #
vertex $-1 $425 $585 #
straight-curve $-1 63.728751487777338 0 -13.652996590613675 0 -1 0 I I #
coedge $-1 $405 $407 $268 $417 reversed $261 $-1 #
edge $-1 $420 -42.194552160777015 $423 42.194552160777015 $416 $586 forward 7 unknown #
coedge $-1 $411 $269 $274 $426 forward $403 $-1 #
coedge $-1 $269 $411 $405 $577 reversed $403 $-1 #
vertex $-1 $270 $587 #
straight-curve $-1 0 42.194552160777015 13.652996590613675 -1 0 0 I I #
coedge $-1 $271 $406 $273 $425 reversed $163 $-1 #
vertex $-1 $417 $588 #
straight-curve $-1 0 -42.194552160777015 13.652996590613675 1 0 0 I I #
edge $-1 $276 -13.652996590613675 $414 13.652996590613675 $273 $589 forward 7 unknown #
edge $-1 $277 -13.652996590613675 $413 13.652996590613675 $274 $590 forward 7 unknown #
point $-1 63.728751487777338 -42.194552160777015 13.652996590613675 #
point $-1 63.728751487777338 42.194552160777015 13.652996590613675 #
face $-1 $-1 $294 $40 $-1 $591 reversed single #
loop $-1 $-1 $290 $279 #
plane-surface $-1 0 -42.194552160777015 0 0 1 0 0 0 1 forward_v I I I I #
coedge $-1 $592 $593 $287 $442 forward $280 $-1 #
coedge $-1 $443 $282 $284 $438 reversed $171 $-1 #
edge $-1 $440 -1.8650395524739141 $295 5.9922564437368528 $293 $594 forward 7 unknown #
coedge $-1 $284 $283 $595 $596 reversed $109 $-1 #
coedge $-1 $447 $446 $283 $437 forward $430 $-1 #
edge $-1 $597 -63.728751487777338 $439 63.728751487777338 $436 $598 forward 7 unknown #
edge $-1 $599 -63.728751487777338 $440 63.728751487777338 $433 $600 forward 7 unknown #
vertex $-1 $437 $601 #
vertex $-1 $286 $602 #
straight-curve $-1 63.728751487777338 -18.153246346188315 0.19856889315755577 0 1 0 I I #
edge $-1 $448 -24.0413058145887 $444 -12.265186877787929 $432 $603 forward 7 unknown #
coedge $-1 $288 $433 $592 $604 reversed $171 $-1 #
vertex $-1 $442 $605 #
straight-curve $-1 0 -30.418433223976244 8.0558648893683227 -1 0 0 I I #
coedge $-1 $436 $290 $593 $606 forward $430 $-1 #
coedge $-1 $290 $436 $292 $450 reversed $430 $-1 #
vertex $-1 $606 $607 #
straight-curve $-1 0 -42.194552160777015 8.0558648893683227 -1 0 0 I I #
edge $-1 $296 -8.0558648893683227 $439 -0.19856889315755577 $292 $608 forward 7 unknown #
point $-1 63.728751487777338 -30.418433223976244 8.0558648893683227 #
point $-1 63.728751487777338 -42.194552160777015 8.0558648893683227 #
face $-1 $-1 $470 $41 $-1 $609 reversed single #
loop $-1 $-1 $466 $298 #
plane-surface $-1 -63.728751487777338 0 0 1 0 0 0 0 -1 forward_v I I I I #
coedge $-1 $473 $301 $302 $460 reversed $179 $-1 #
coedge $-1 $466 $610 $301 $458 forward $454 $-1 #
edge $-1 $611 -1.8650395524739141 $474 5.9922564437368528 $457 $612 forward 7 unknown #
coedge $-1 $303 $302 $610 $613 reversed $113 $-1 #
edge $-1 $463 -63.728751487777338 $611 63.728751487777338 $456 $614 forward 7 unknown #
coedge $-1 $469 $468 $303 $462 forward $470 $-1 #
edge $-1 $464 -63.728751487777338 $615 63.728751487777338 $461 $616 forward 7 unknown #
vertex $-1 $305 $617 #
vertex $-1 $462 $618 #
straight-curve $-1 63.728751487777338 18.153246346188315 0.19856889315755577 0 1 0 I I #
coedge $-1 $619 $457 $306 $467 forward $454 $-1 #
edge $-1 $474 12.265186877787929 $471 24.0413058145887 $466 $620 forward 7 unknown #
coedge $-1 $461 $307 $312 $477 forward $470 $-1 #
coedge $-1 $307 $461 $619 $621 reversed $470 $-1 #
loop $-1 $-1 $307 $453 #
vertex $-1 $621 $622 #
straight-curve $-1 0 42.194552160777015 8.0558648893683227 1 0 0 I I #
coedge $-1 $309 $456 $311 $476 reversed $179 $-1 #
vertex $-1 $467 $623 #
straight-curve $-1 0 30.418433223976244 8.0558648893683227 1 0 0 I I #
edge $-1 $314 -5.9922564437368528 $463 1.8650395524739141 $311 $624 forward 7 unknown #
edge $-1 $313 -8.0558648893683227 $464 -0.19856889315755577 $312 $625 forward 7 unknown #
point $-1 63.728751487777338 42.194552160777015 8.0558648893683227 #
point $-1 63.728751487777338 30.418433223976244 8.0558648893683227 #
plane-surface $-1 63.728751487777338 0 0 -1 0 0 0 0 1 forward_v I I I I #
coedge $-1 $491 $490 $483 $626 forward $317 $-1 #
coedge $-1 $483 $319 $321 $487 reversed $187 $-1 #
coedge $-1 $319 $482 $481 $626 reversed $187 $-1 #
coedge $-1 $327 $322 $319 $485 forward $328 $-1 #
edge $-1 $488 -85.044602872391764 $627 -74.571867295889291 $484 $628 forward 7 unknown #
coedge $-1 $321 $320 $491 $629 reversed $117 $-1 #
edge $-1 $630 115.48345825679013 $488 127.45750297555472 $482 $631 forward 7 unknown #
vertex $-1 $323 $632 #
straight-curve $-1 63.728751487777338 -7.4940075536139155 3.180261014111224 0 1 0 I I #
coedge $-1 $481 $324 $327 $495 forward $317 $-1 #
coedge $-1 $324 $481 $486 $629 forward $317 $-1 #
vertex $-1 $325 $633 #
straight-curve $-1 56.706487261508016 -19.303845576295089 13.652996590613682 1 0 0 I I #
straight-curve $-1 1.9361296259493201 -19.303845576295089 114.65710591117794 -0.48480960649040278 0 0.87461971476443456 I I #
edge $-1 $329 -19.303845576295089 $627 -10.672184638160575 $327 $634 forward 7 unknown #
point $-1 63.728751487777338 -19.303845576295089 13.652996590613675 #
point $-1 63.728751487777338 -19.303845576295089 3.1802610141112098 #
edge $-1 $635 1 $635 0 $332 $-1 forward 7 unknown #
vertex $-1 $333 $636 #
ellipse-curve $-1 56.051237544106904 -14.988015107227831 5.7698320097031273 0.87461971476443456 0 0.48480960649040278 0.72721440973560414 0 -1.311929572146652 1 I I #
point $-1 61.553399943411577 -14.988015107227831 7.1046992302158021 #
loop $-1 $-1 $344 $336 #
plane-surface $-1 0 0 13.652996590613675 0 0 1 1 0 0 forward_v I I I I #
coedge $-1 $505 $339 $341 $509 reversed $202 $-1 #
coedge $-1 $339 $504 $637 $638 reversed $202 $-1 #
coedge $-1 $347 $342 $339 $507 forward $337 $-1 #
edge $-1 $510 -85.044602872391764 $639 -74.571867295889291 $506 $640 forward 7 unknown #
coedge $-1 $341 $340 $513 $641 reversed $126 $-1 #
edge $-1 $642 115.48345825679013 $510 127.45750297555472 $504 $643 forward 7 unknown #
vertex $-1 $343 $644 #
straight-curve $-1 63.728751487777338 7.4940075536139119 3.180261014111224 0 1 0 I I #
coedge $-1 $637 $344 $347 $517 forward $502 $-1 #
coedge $-1 $344 $637 $508 $641 forward $502 $-1 #
vertex $-1 $345 $645 #
straight-curve $-1 56.706487261508016 10.672184638160568 13.652996590613682 1 0 0 I I #
straight-curve $-1 1.9361296259493201 10.672184638160568 114.65710591117794 -0.48480960649040278 0 0.87461971476443456 I I #
edge $-1 $348 10.672184638160568 $639 19.303845576295082 $347 $646 forward 7 unknown #
point $-1 63.728751487777338 10.672184638160568 13.652996590613675 #
point $-1 63.728751487777338 10.672184638160568 3.1802610141112098 #
edge $-1 $647 1 $647 0 $351 $-1 forward 7 unknown #
vertex $-1 $352 $648 #
ellipse-curve $-1 56.051237544106904 14.988015107227824 5.7698320097031273 0.87461971476443456 0 0.48480960649040278 0.72721440973560414 0 -1.311929572146652 1 I I #
point $-1 61.553399943411577 14.988015107227824 7.1046992302158021 #
loop $-1 $-1 $532 $355 #
plane-surface $-1 0 -30.418433223976244 4.1272168912629397 0 -1 0 0 0 -1 forward_v I I I I #
coedge $-1 $366 $361 $649 $650 forward $356 $-1 #
coedge $-1 $363 $358 $531 $651 forward $217 $-1 #
coedge $-1 $358 $363 $366 $539 forward $217 $-1 #
coedge $-1 $649 $532 $358 $530 reversed $524 $-1 #
edge $-1 $652 0.95835817541749435 $653 16.423796961110696 $358 $654 forward 7 unknown #
coedge $-1 $360 $359 $527 $651 reversed $135 $-1 #
coedge $-1 $529 $649 $360 $533 reversed $524 $-1 #
edge $-1 $653 -18.04249747662989 $534 8.3777685069199533e-015 $532 $655 forward 7 unknown #
vertex $-1 $650 $656 #
straight-curve $-1 -63.728751487777338 -12.749479632957126 4.3604233000674704 0 -1 0 I I #
vertex $-1 $364 $657 #
straight-curve $-1 -64.687109663194832 -20.579485307852259 13.652996590613675 -1 0 0 I I #
straight-curve $-1 -63.72875148777733 -20.579485307852259 4.360423300067481 0.85716729658548041 0 0.51503808176128008 I I #
edge $-1 $367 20.579485307852259 $652 30.418433223976244 $366 $658 forward 7 unknown #
point $-1 -63.728751487777338 -20.579485307852259 13.652996590613675 #
point $-1 -63.728751487777338 -20.579485307852259 4.3604233000674766 #
edge $-1 $659 1 $659 0 $370 $-1 forward 7 unknown #
vertex $-1 $371 $660 #
ellipse-curve $-1 -55.280634186874366 -27.607305247940822 7.816087906802057 -0.51503808176128008 0 0.85716729658548041 0.85716729658548041 0 0.51503808176128008 1 I I #
point $-1 -55.138864798345253 -27.607305247940822 9.5217480271018502 #
edge $-1 $661 1 $661 0 $374 $-1 forward 7 unknown #
vertex $-1 $375 $662 #
ellipse-curve $-1 -55.280634186874366 -23.390613283887685 7.816087906802057 -0.51503808176128008 0 0.85716729658548041 0.85716729658548041 0 0.51503808176128008 1 I I #
point $-1 -55.138864798345253 -23.390613283887685 9.5217480271018502 #
plane-surface $-1 0 0 13.652996590613675 0 0 1 1 0 0 forward_v I I I I #
coedge $-1 $560 $559 $552 $663 forward $379 $-1 #
coedge $-1 $553 $381 $551 $663 reversed $239 $-1 #
coedge $-1 $381 $552 $556 $664 reversed $239 $-1 #
edge $-1 $557 9.2105482464205526 $665 27.253045723050448 $381 $666 forward 7 unknown #
coedge $-1 $383 $382 $560 $667 reversed $149 $-1 #
coedge $-1 $389 $384 $553 $664 forward $390 $-1 #
vertex $-1 $385 $668 #
straight-curve $-1 -48.263312702084136 12.749479632957122 13.652996590613675 0 1 0 I I #
coedge $-1 $551 $386 $389 $564 reversed $379 $-1 #
coedge $-1 $386 $551 $555 $667 forward $379 $-1 #
vertex $-1 $387 $669 #
straight-curve $-1 -63.728751487777338 20.579485307852252 56.80641327757975 0 0 1 I I #
straight-curve $-1 -63.72875148777733 20.579485307852252 4.360423300067481 -0.85716729658548041 0 -0.51503808176128008 I I #
edge $-1 $670 -30.418433223976237 $391 -20.579485307852252 $559 $671 forward 7 unknown #
point $-1 -63.728751487777338 20.579485307852252 13.652996590613675 #
point $-1 -48.263312702084136 20.579485307852252 13.652996590613675 #
edge $-1 $672 1 $672 0 $394 $-1 forward 7 unknown #
vertex $-1 $395 $673 #
ellipse-curve $-1 -55.280634186874366 23.390613283887681 7.816087906802057 -0.51503808176128008 0 0.85716729658548041 0.85716729658548041 0 0.51503808176128008 1 I I #
point $-1 -55.138864798345253 23.390613283887681 9.5217480271018502 #
edge $-1 $674 1 $674 0 $398 $-1 forward 7 unknown #
vertex $-1 $399 $675 #
ellipse-curve $-1 -55.280634186874366 27.607305247940822 7.816087906802057 -0.51503808176128008 0 0.85716729658548041 0.85716729658548041 0 0.51503808176128008 1 I I #
point $-1 -55.138864798345253 27.607305247940822 9.5217480271018502 #
plane-surface $-1 63.728751487777338 0 0 -1 0 0 0 0 1 forward_v I I I I #
coedge $-1 $407 $405 $409 $580 reversed $261 $-1 #
edge $-1 $420 -13.652996590613675 $582 13.652996590613675 $419 $676 forward 7 unknown #
vertex $-1 $580 $677 #
straight-curve $-1 -63.728751487777338 -42.194552160777015 0 0 0 -1 I I #
edge $-1 $578 -42.194552160777015 $582 42.194552160777015 $576 $678 forward 7 unknown #
straight-curve $-1 0 -42.194552160777015 -13.652996590613675 -1 0 0 I I #
vertex $-1 $412 $679 #
straight-curve $-1 0 42.194552160777015 -13.652996590613675 1 0 0 I I #
point $-1 63.728751487777338 42.194552160777015 -13.652996590613675 #
point $-1 63.728751487777338 -42.194552160777015 -13.652996590613675 #
straight-curve $-1 -63.728751487777338 0 13.652996590613675 0 -1 0 I I #
point $-1 -63.728751487777338 42.194552160777015 13.652996590613675 #
point $-1 -63.728751487777338 -42.194552160777015 13.652996590613675 #
straight-curve $-1 63.728751487777338 -42.194552160777015 0 0 0 -1 I I #
straight-curve $-1 63.728751487777338 42.194552160777015 0 0 0 -1 I I #
plane-surface $-1 63.728751487777338 0 0 -1 0 0 0 0 1 forward_v I I I I #
coedge $-1 $595 $432 $443 $604 forward $280 $-1 #
coedge $-1 $432 $595 $446 $606 reversed $280 $-1 #
straight-curve $-1 63.728751487777338 -30.418433223976244 2.0636084456314698 0 0 1 I I #
coedge $-1 $593 $592 $435 $596 forward $280 $-1 #
edge $-1 $599 12.265186877787929 $597 24.0413058145887 $595 $680 forward 7 unknown #
vertex $-1 $437 $681 #
straight-curve $-1 0 -42.194552160777015 0.19856889315755577 1 0 0 I I #
vertex $-1 $596 $682 #
straight-curve $-1 0 -30.418433223976244 0.19856889315755577 1 0 0 I I #
point $-1 63.728751487777338 -42.194552160777015 0.19856889315755577 #
point $-1 63.728751487777338 -30.418433223976244 0.19856889315755577 #
straight-curve $-1 -63.728751487777338 -18.153246346188315 8.0558648893683227 0 1 0 I I #
edge $-1 $444 -5.9922564437368528 $599 1.8650395524739141 $592 $683 forward 7 unknown #
point $-1 -63.728751487777338 -30.418433223976244 8.0558648893683227 #
edge $-1 $448 -8.0558648893683227 $597 -0.19856889315755577 $593 $684 forward 7 unknown #
point $-1 -63.728751487777338 -42.194552160777015 8.0558648893683227 #
straight-curve $-1 63.728751487777338 -42.194552160777015 0 0 0 -1 I I #
plane-surface $-1 0 42.194552160777015 0 0 -1 0 0 0 -1 forward_v I I I I #
coedge $-1 $457 $619 $459 $613 forward $454 $-1 #
vertex $-1 $613 $685 #
straight-curve $-1 -63.728751487777338 30.418433223976244 2.0636084456314698 0 0 1 I I #
edge $-1 $615 -24.0413058145887 $611 -12.265186877787929 $610 $686 forward 7 unknown #
straight-curve $-1 0 30.418433223976244 0.19856889315755577 -1 0 0 I I #
vertex $-1 $462 $687 #
straight-curve $-1 0 42.194552160777015 0.19856889315755577 -1 0 0 I I #
point $-1 63.728751487777338 30.418433223976244 0.19856889315755577 #
point $-1 63.728751487777338 42.194552160777015 0.19856889315755577 #
coedge $-1 $610 $466 $469 $621 forward $454 $-1 #
straight-curve $-1 -63.728751487777338 18.153246346188315 8.0558648893683227 0 1 0 I I #
edge $-1 $471 -8.0558648893683227 $615 -0.19856889315755577 $469 $688 forward 7 unknown #
point $-1 -63.728751487777338 42.194552160777015 8.0558648893683227 #
point $-1 -63.728751487777338 30.418433223976244 8.0558648893683227 #
straight-curve $-1 63.728751487777338 30.418433223976244 2.0636084456314698 0 0 -1 I I #
straight-curve $-1 63.728751487777338 42.194552160777015 0 0 0 -1 I I #
edge $-1 $627 -7.0222642262693213 $630 -1.2171323180665752 $481 $689 forward 7 unknown #
vertex $-1 $626 $690 #
straight-curve $-1 63.728751487777338 -10.672184638160575 88.224863886502973 0 0 1 I I #
edge $-1 $630 3.1781770845466593 $492 11.809838022681173 $491 $691 forward 7 unknown #
vertex $-1 $629 $692 #
straight-curve $-1 1.9361296259493201 -10.672184638160575 114.65710591117794 0.48480960649040278 0 -0.87461971476443456 I I #
point $-1 63.728751487777338 -10.672184638160575 3.1802610141112098 #
point $-1 57.923619579574591 -19.303845576295089 13.652996590613682 #
straight-curve $-1 63.728751487777338 0 13.652996590613675 0 1 0 I I #
vertex $-1 $498 $693 #
point $-1 56.778451953842506 -14.988015107227831 4.4579024375564753 #
coedge $-1 $513 $512 $505 $638 forward $502 $-1 #
edge $-1 $639 -7.0222642262693213 $642 -1.2171323180665752 $637 $694 forward 7 unknown #
vertex $-1 $638 $695 #
straight-curve $-1 63.728751487777338 19.303845576295082 88.224863886502973 0 0 1 I I #
edge $-1 $642 -11.80983802268117 $514 -3.1781770845466557 $513 $696 forward 7 unknown #
vertex $-1 $641 $697 #
straight-curve $-1 1.9361296259493201 19.303845576295082 114.65710591117794 0.48480960649040278 0 -0.87461971476443456 I I #
point $-1 63.728751487777338 19.303845576295082 3.1802610141112098 #
point $-1 57.923619579574591 10.672184638160568 13.652996590613682 #
straight-curve $-1 63.728751487777338 0 13.652996590613675 0 1 0 I I #
vertex $-1 $520 $698 #
point $-1 56.778451953842506 14.988015107227824 4.4579024375564753 #
coedge $-1 $532 $529 $526 $650 reversed $524 $-1 #
edge $-1 $534 -52.445989977512276 $652 -43.153416686966075 $526 $699 forward 7 unknown #
edge $-1 $653 -17.668953591019118 $536 -7.8300056748951334 $527 $700 forward 7 unknown #
vertex $-1 $650 $701 #
vertex $-1 $530 $702 #
straight-curve $-1 -64.687109663194832 -30.418433223976244 13.652996590613675 1 0 0 I I #
straight-curve $-1 -63.72875148777733 -30.418433223976244 4.360423300067481 -0.85716729658548041 0 -0.51503808176128008 I I #
point $-1 -63.728751487777338 -30.418433223976244 4.3604233000674766 #
point $-1 -48.263312702084136 -20.579485307852259 13.652996590613675 #
straight-curve $-1 -63.728751487777338 0 13.652996590613675 0 -1 0 I I #
vertex $-1 $542 $703 #
point $-1 -54.423466890288886 -27.607305247940822 8.331125988563338 #
vertex $-1 $546 $704 #
point $-1 -54.423466890288886 -23.390613283887685 8.331125988563338 #
edge $-1 $670 43.153416686966075 $665 52.445989977512276 $551 $705 forward 7 unknown #
edge $-1 $557 -16.423796961110696 $670 -0.95835817541749435 $556 $706 forward 7 unknown #
vertex $-1 $554 $707 #
straight-curve $-1 -40.368331961629693 30.418433223976244 18.396779691419837 -0.85716729658548041 0 -0.51503808176128008 I I #
edge $-1 $665 -17.668953591019122 $561 -7.8300056748951299 $560 $708 forward 7 unknown #
point $-1 -48.263312702084136 30.418433223976237 13.652996590613675 #
point $-1 -63.728751487777338 20.579485307852252 4.3604233000674766 #
vertex $-1 $564 $709 #
straight-curve $-1 -63.728751487777338 0 13.652996590613675 0 -1 0 I I #
vertex $-1 $567 $710 #
point $-1 -54.423466890288886 23.390613283887681 8.331125988563338 #
vertex $-1 $571 $711 #
point $-1 -54.423466890288886 27.607305247940822 8.331125988563338 #
straight-curve $-1 -63.728751487777338 42.194552160777015 0 0 0 -1 I I #
point $-1 -63.728751487777338 -42.194552160777015 -13.652996590613675 #
straight-curve $-1 -63.728751487777338 0 -13.652996590613675 0 1 0 I I #
point $-1 -63.728751487777338 42.194552160777015 -13.652996590613675 #
straight-curve $-1 -63.728751487777338 -18.153246346188315 0.19856889315755577 0 -1 0 I I #
point $-1 -63.728751487777338 -42.194552160777015 0.19856889315755577 #
point $-1 -63.728751487777338 -30.418433223976244 0.19856889315755577 #
straight-curve $-1 -63.728751487777338 -30.418433223976244 2.0636084456314698 0 0 -1 I I #
straight-curve $-1 -63.728751487777338 -42.194552160777015 0 0 0 -1 I I #
point $-1 -63.728751487777338 30.418433223976244 0.19856889315755577 #
straight-curve $-1 -63.728751487777338 18.153246346188315 0.19856889315755577 0 -1 0 I I #
point $-1 -63.728751487777338 42.194552160777015 0.19856889315755577 #
straight-curve $-1 -63.728751487777338 42.194552160777015 0 0 0 -1 I I #
straight-curve $-1 56.706487261508016 -10.672184638160575 13.652996590613682 -1 0 0 I I #
point $-1 63.728751487777338 -10.672184638160575 13.652996590613675 #
straight-curve $-1 57.923619579574591 -7.4940075536139155 13.652996590613682 0 -1 0 I I #
point $-1 57.923619579574591 -10.672184638160575 13.652996590613682 #
point $-1 54.739307971960251 -14.988015107227831 5.0426175999675236 #
straight-curve $-1 56.706487261508016 19.303845576295082 13.652996590613682 -1 0 0 I I #
point $-1 63.728751487777338 19.303845576295082 13.652996590613675 #
straight-curve $-1 57.923619579574591 7.4940075536139119 13.652996590613682 0 -1 0 I I #
point $-1 57.923619579574591 19.303845576295082 13.652996590613682 #
point $-1 54.739307971960251 14.988015107227824 5.0426175999675236 #
straight-curve $-1 -63.728751487777338 -30.418433223976244 56.80641327757975 0 0 1 I I #
straight-curve $-1 -48.263312702084136 -12.749479632957126 13.652996590613675 0 1 0 I I #
point $-1 -63.728751487777338 -30.418433223976244 13.652996590613675 #
point $-1 -48.263312702084136 -30.418433223976244 13.652996590613675 #
point $-1 -54.76559610511309 -27.607305247940822 6.9589206102165768 #
point $-1 -54.76559610511309 -23.390613283887685 6.9589206102165768 #
straight-curve $-1 -63.728751487777338 30.418433223976237 56.80641327757975 0 0 -1 I I #
straight-curve $-1 -64.687109663194832 30.418433223976237 13.652996590613675 -1 0 0 I I #
point $-1 -63.728751487777338 30.418433223976244 4.3604233000674766 #
straight-curve $-1 -63.728751487777338 12.749479632957122 4.3604233000674704 0 -1 0 I I #
point $-1 -63.728751487777338 30.418433223976237 13.652996590613675 #
point $-1 -54.76559610511309 23.390613283887681 6.9589206102165768 #
point $-1 -54.76559610511309 27.607305247940822 6.9589206102165768 #
End-of-ACIS-data 