500 0 9 0           
7 Unknown 11 ACIS 5.0 NT 24 Thu Mar 25 18:19:19 1999 
-1 9.9999999999999995e-007 1e-010 
body $-1 $9 $-1 $10 #
body $-1 $11 $-1 $12 #
body $-1 $13 $-1 $14 #
body $-1 $15 $-1 $16 #
body $-1 $17 $-1 $18 #
body $-1 $19 $-1 $20 #
body $-1 $21 $-1 $22 #
body $-1 $23 $-1 $24 #
body $-1 $25 $-1 $26 #
lump $-1 $-1 $27 $0 #
transform $-1 1 0 0 0 1 0 0 0 1 73.68633075960571 32.760024696792023 13.150000086427385 1 rotate no_reflect no_shear #
lump $-1 $-1 $28 $1 #
transform $-1 1 0 0 0 1 0 0 0 1 73.68633075960571 32.760024696792023 13.150000086427385 1 rotate no_reflect no_shear #
lump $-1 $-1 $29 $2 #
transform $-1 1 0 0 0 1 0 0 0 1 73.68633075960571 32.760024696792023 13.150000086427385 1 rotate no_reflect no_shear #
lump $-1 $-1 $30 $3 #
transform $-1 1 0 0 0 1 0 0 0 1 73.68633075960571 32.760024696792023 13.150000086427385 1 rotate no_reflect no_shear #
lump $-1 $-1 $31 $4 #
transform $-1 1 0 0 0 1 0 0 0 1 73.68633075960571 32.760024696792023 13.150000086427385 1 rotate no_reflect no_shear #
lump $-1 $-1 $32 $5 #
transform $-1 1 0 0 0 1 0 0 0 1 73.68633075960571 32.760024696792023 13.150000086427385 1 rotate no_reflect no_shear #
lump $-1 $-1 $33 $6 #
transform $-1 1 0 0 0 1 0 0 0 1 73.68633075960571 32.760024696792023 13.150000086427385 1 rotate no_reflect no_shear #
lump $-1 $-1 $34 $7 #
transform $-1 1 0 0 0 1 0 0 0 1 73.68633075960571 32.760024696792023 13.150000086427385 1 rotate no_reflect no_shear #
lump $-1 $-1 $35 $8 #
transform $-1 1 0 0 0 1 0 0 0 1 73.68633075960571 32.760024696792023 13.150000086427385 1 rotate no_reflect no_shear #
shell $-1 $-1 $-1 $36 $-1 $9 #
shell $-1 $-1 $-1 $37 $-1 $11 #
shell $-1 $-1 $-1 $38 $-1 $13 #
shell $-1 $-1 $-1 $39 $-1 $15 #
shell $-1 $-1 $-1 $40 $-1 $17 #
shell $-1 $-1 $-1 $41 $-1 $19 #
shell $-1 $-1 $-1 $42 $-1 $21 #
shell $-1 $-1 $-1 $43 $-1 $23 #
shell $-1 $-1 $-1 $44 $-1 $25 #
face $-1 $45 $46 $27 $-1 $47 forward single #
face $-1 $48 $49 $28 $-1 $50 reversed single #
face $-1 $51 $52 $29 $-1 $53 reversed single #
face $-1 $54 $55 $30 $-1 $56 reversed single #
face $-1 $57 $58 $31 $-1 $59 forward single #
face $-1 $60 $61 $32 $-1 $62 forward single #
face $-1 $63 $64 $33 $-1 $65 reversed single #
face $-1 $66 $67 $34 $-1 $68 forward single #
face $-1 $69 $70 $35 $-1 $71 forward single #
face $-1 $72 $73 $27 $-1 $74 reversed single #
loop $-1 $-1 $75 $36 #
plane-surface $-1 0 0 13.150000086427385 0 0 1 1 0 0 forward_v I I I I #
face $-1 $76 $77 $28 $-1 $78 reversed single #
loop $-1 $-1 $79 $37 #
plane-surface $-1 0 -25.036676124652679 9.2152336797564676 0 0 1 1 0 0 forward_v I I I I #
face $-1 $80 $81 $29 $-1 $82 reversed single #
loop $-1 $-1 $83 $38 #
plane-surface $-1 0 25.036676124652679 9.2152336797564676 0 0 1 1 0 0 forward_v I I I I #
face $-1 $84 $85 $30 $-1 $86 reversed single #
loop $-1 $-1 $87 $39 #
plane-surface $-1 33.918605473370064 -7.6140564509057134 210.12268295776661 0 -1 0 -0.55919291073839883 0 -0.82903756765294845 forward_v I I I I #
face $-1 $88 $89 $31 $-1 $90 forward single #
loop $-1 $91 $92 $40 #
cone-surface $-1 66.935698706271296 -14.542107237768302 7.7028349474166458 -0.55919291073839883 0 -0.82903756765294845 0.82903756765294845 0 -0.55919291073839883 1 I I 0 1 1 forward I I I I #
face $-1 $93 $94 $32 $-1 $95 forward single #
loop $-1 $96 $97 $41 #
cone-surface $-1 66.935698706271296 -10.385276765650751 7.7028349474166458 -0.55919291073839883 0 -0.82903756765294845 0.82903756765294845 0 -0.55919291073839883 1 I I 0 1 1 forward I I I I #
face $-1 $98 $99 $33 $-1 $100 reversed single #
loop $-1 $-1 $101 $42 #
plane-surface $-1 -73.686330759605724 -12.463692001709525 5.5354625551456706 -0.55919291073839883 0 0.82903756765294845 0.82903756765294845 0 0.55919291073839883 forward_v I I I I #
face $-1 $102 $103 $34 $-1 $104 forward single #
loop $-1 $105 $106 $43 #
cone-surface $-1 -66.935698706271268 -14.542107237768302 7.7028349474166706 0.55919291073839883 0 -0.82903756765294845 0.82903756765294845 0 0.55919291073839883 1 I I 0 1 1 forward I I I I #
face $-1 $107 $108 $35 $-1 $109 forward single #
loop $-1 $110 $111 $44 #
cone-surface $-1 -66.935698706271268 -10.385276765650751 7.7028349474166706 0.55919291073839883 0 -0.82903756765294845 0.82903756765294845 0 0.55919291073839883 1 I I 0 1 1 forward I I I I #
face $-1 $112 $113 $27 $-1 $114 reversed single #
loop $-1 $-1 $115 $45 #
plane-surface $-1 0 0 -13.150000086427385 0 0 1 1 0 0 forward_v I I I I #
coedge $-1 $116 $117 $118 $119 forward $46 $-1 #
face $-1 $120 $121 $28 $-1 $122 reversed single #
loop $-1 $-1 $123 $48 #
plane-surface $-1 0 -17.313327552513336 11.182616883091926 0 -1 0 0 0 -1 forward_v I I I I #
coedge $-1 $124 $125 $126 $127 reversed $49 $-1 #
face $-1 $128 $129 $29 $-1 $130 forward single #
loop $-1 $-1 $131 $51 #
plane-surface $-1 0 17.313327552513336 11.182616883091926 0 1 0 0 0 1 forward_v I I I I #
coedge $-1 $132 $133 $134 $135 reversed $52 $-1 #
face $-1 $136 $137 $30 $-1 $138 forward single #
loop $-1 $-1 $139 $54 #
plane-surface $-1 -48.491142084822584 -12.463692001709525 87.945210113338305 0.55919291073839883 0 0.82903756765294845 0.82903756765294845 0 -0.55919291073839883 forward_v I I I I #
coedge $-1 $140 $141 $142 $143 reversed $55 $-1 #
face $-1 $-1 $144 $31 $-1 $145 forward single #
loop $-1 $146 $147 $57 #
cone-surface $-1 65.549978159408681 -14.542107237768302 5.6484197902203288 -0.55919291073839883 0 -0.82903756765294845 0.41451878382647422 0 -0.27959645536919941 1 I I -0.70710678118654746 0.70710678118654746 0.5 forward I I I I #
loop $-1 $-1 $148 $40 #
coedge $-1 $92 $92 $149 $150 reversed $58 $-1 #
face $-1 $-1 $151 $32 $-1 $152 forward single #
loop $-1 $153 $154 $60 #
cone-surface $-1 65.549978159408681 -10.385276765650751 5.6484197902203288 -0.55919291073839883 0 -0.82903756765294845 0.41451878382647422 0 -0.27959645536919941 1 I I -0.70710678118654746 0.70710678118654746 0.5 forward I I I I #
loop $-1 $-1 $155 $41 #
coedge $-1 $97 $97 $156 $157 reversed $61 $-1 #
face $-1 $158 $159 $33 $-1 $160 reversed single #
loop $-1 $-1 $161 $63 #
plane-surface $-1 -156.09607831779837 -7.6140564509057134 127.71293539957398 0 -1 0 0.55919291073839883 0 -0.82903756765294845 forward_v I I I I #
coedge $-1 $162 $163 $164 $165 reversed $64 $-1 #
face $-1 $-1 $166 $34 $-1 $167 forward single #
loop $-1 $168 $169 $66 #
cone-surface $-1 -65.549978159408653 -14.542107237768302 5.6484197902203537 0.55919291073839883 0 -0.82903756765294845 0.41451878382647422 0 0.27959645536919941 1 I I -0.70710678118654746 0.70710678118654746 0.5 forward I I I I #
loop $-1 $-1 $170 $43 #
coedge $-1 $106 $106 $171 $172 reversed $67 $-1 #
face $-1 $-1 $173 $35 $-1 $174 forward single #
loop $-1 $175 $176 $69 #
cone-surface $-1 -65.549978159408653 -10.385276765650751 5.6484197902203537 0.55919291073839883 0 -0.82903756765294845 0.41451878382647422 0 0.27959645536919941 1 I I -0.70710678118654746 0.70710678118654746 0.5 forward I I I I #
loop $-1 $-1 $177 $44 #
coedge $-1 $111 $111 $178 $179 reversed $70 $-1 #
face $-1 $180 $181 $27 $-1 $182 reversed single #
loop $-1 $-1 $183 $72 #
plane-surface $-1 0 -32.760024696792023 0 0 1 0 0 0 1 forward_v I I I I #
coedge $-1 $184 $185 $186 $187 forward $73 $-1 #
coedge $-1 $188 $75 $189 $190 forward $46 $-1 #
coedge $-1 $75 $188 $191 $192 forward $46 $-1 #
coedge $-1 $193 $194 $75 $119 reversed $195 $-1 #
edge $-1 $196 -32.760024696792023 $197 32.760024696792023 $118 $198 forward 7 unknown #
face $-1 $199 $200 $28 $-1 $201 reversed single #
loop $-1 $-1 $202 $76 #
plane-surface $-1 -73.68633075960571 0 0 1 0 0 0 0 -1 forward_v I I I I #
coedge $-1 $203 $204 $205 $206 reversed $77 $-1 #
coedge $-1 $207 $79 $208 $209 reversed $49 $-1 #
coedge $-1 $79 $207 $203 $210 forward $49 $-1 #
coedge $-1 $205 $211 $79 $127 forward $212 $-1 #
edge $-1 $213 -20.241686634465683 $214 -4.7949894901869961 $126 $215 forward 7 unknown #
face $-1 $216 $217 $29 $-1 $218 reversed single #
loop $-1 $-1 $219 $80 #
plane-surface $-1 0 0 13.150000086427385 0 0 1 1 0 0 forward_v I I I I #
coedge $-1 $220 $221 $222 $223 reversed $81 $-1 #
coedge $-1 $224 $83 $220 $225 forward $52 $-1 #
coedge $-1 $83 $224 $226 $227 reversed $52 $-1 #
coedge $-1 $228 $229 $83 $135 forward $217 $-1 #
edge $-1 $230 4.7949894901869961 $231 20.241686634465683 $134 $232 forward 7 unknown #
face $-1 $233 $234 $30 $-1 $235 forward single #
loop $-1 $-1 $142 $84 #
plane-surface $-1 0 0 13.150000086427385 0 0 1 1 0 0 forward_v I I I I #
coedge $-1 $236 $237 $238 $239 reversed $85 $-1 #
coedge $-1 $141 $87 $240 $241 reversed $55 $-1 #
coedge $-1 $87 $140 $236 $242 reversed $55 $-1 #
coedge $-1 $238 $243 $87 $143 forward $137 $-1 #
edge $-1 $244 -56.727028022920678 $245 -45.438012099238662 $142 $246 forward 7 unknown #
loop $-1 $-1 $149 $88 #
plane-surface $-1 -48.491142084822584 -12.463692001709525 87.945210113338305 0.55919291073839883 0 0.82903756765294845 0.82903756765294845 0 -0.55919291073839883 forward_v I I I I #
loop $-1 $-1 $247 $57 #
coedge $-1 $147 $147 $148 $248 reversed $89 $-1 #
coedge $-1 $148 $148 $147 $248 forward $91 $-1 #
coedge $-1 $149 $149 $92 $150 forward $144 $-1 #
edge $-1 $249 0 $249 6.2831853071796004 $149 $250 forward 7 unknown #
loop $-1 $-1 $156 $93 #
plane-surface $-1 -48.491142084822584 -12.463692001709525 87.945210113338305 0.55919291073839883 0 0.82903756765294845 0.82903756765294845 0 -0.55919291073839883 forward_v I I I I #
loop $-1 $-1 $251 $60 #
coedge $-1 $154 $154 $155 $252 reversed $94 $-1 #
coedge $-1 $155 $155 $154 $252 forward $96 $-1 #
coedge $-1 $156 $156 $97 $157 forward $151 $-1 #
edge $-1 $253 0 $253 6.2831853071796004 $156 $254 forward 7 unknown #
face $-1 $255 $256 $33 $-1 $257 forward single #
loop $-1 $-1 $258 $98 #
plane-surface $-1 -73.68633075960571 0 0 1 0 0 0 0 -1 forward_v I I I I #
coedge $-1 $259 $260 $261 $262 reversed $99 $-1 #
coedge $-1 $263 $101 $264 $265 reversed $64 $-1 #
coedge $-1 $101 $263 $259 $266 forward $64 $-1 #
coedge $-1 $261 $267 $101 $165 forward $256 $-1 #
edge $-1 $268 -11.081481551658573 $269 -1.3822104500509509 $164 $270 forward 7 unknown #
loop $-1 $-1 $171 $102 #
plane-surface $-1 -73.686330759605724 -12.463692001709525 5.5354625551456706 -0.55919291073839883 0 0.82903756765294845 0.82903756765294845 0 0.55919291073839883 forward_v I I I I #
loop $-1 $-1 $271 $66 #
coedge $-1 $169 $169 $170 $272 reversed $103 $-1 #
coedge $-1 $170 $170 $169 $272 forward $105 $-1 #
coedge $-1 $171 $171 $106 $172 forward $166 $-1 #
edge $-1 $273 0 $273 6.2831853071796004 $171 $274 forward 7 unknown #
loop $-1 $-1 $178 $107 #
plane-surface $-1 -73.686330759605724 -12.463692001709525 5.5354625551456706 -0.55919291073839883 0 0.82903756765294845 0.82903756765294845 0 0.55919291073839883 forward_v I I I I #
loop $-1 $-1 $275 $69 #
coedge $-1 $176 $176 $177 $276 reversed $108 $-1 #
coedge $-1 $177 $177 $176 $276 forward $110 $-1 #
coedge $-1 $178 $178 $111 $179 forward $173 $-1 #
edge $-1 $277 0 $277 6.2831853071796004 $178 $278 forward 7 unknown #
face $-1 $279 $280 $27 $-1 $281 reversed single #
loop $-1 $-1 $282 $112 #
plane-surface $-1 -73.68633075960571 0 0 1 0 0 0 0 -1 forward_v I I I I #
coedge $-1 $283 $191 $284 $285 forward $113 $-1 #
coedge $-1 $286 $115 $283 $287 forward $73 $-1 #
coedge $-1 $115 $286 $288 $289 forward $73 $-1 #
coedge $-1 $194 $193 $115 $187 reversed $195 $-1 #
edge $-1 $290 -32.760024696792023 $291 32.760024696792023 $186 $292 forward 7 unknown #
coedge $-1 $117 $116 $293 $294 forward $46 $-1 #
coedge $-1 $295 $296 $116 $190 reversed $280 $-1 #
edge $-1 $197 -73.68633075960571 $297 73.68633075960571 $189 $298 forward 7 unknown #
coedge $-1 $183 $299 $117 $192 reversed $113 $-1 #
edge $-1 $300 -73.68633075960571 $196 73.68633075960571 $191 $301 forward 7 unknown #
coedge $-1 $186 $118 $299 $302 forward $195 $-1 #
coedge $-1 $118 $186 $295 $303 reversed $195 $-1 #
loop $-1 $-1 $193 $279 #
vertex $-1 $119 $304 #
vertex $-1 $119 $305 #
straight-curve $-1 73.68633075960571 0 13.150000086427385 0 1 0 I I #
face $-1 $306 $307 $28 $-1 $308 forward single #
loop $-1 $-1 $208 $120 #
plane-surface $-1 0 -32.760024696792023 0 0 1 0 0 0 1 forward_v I I I I #
coedge $-1 $309 $310 $311 $312 forward $121 $-1 #
coedge $-1 $311 $123 $125 $210 reversed $77 $-1 #
coedge $-1 $123 $311 $313 $314 reversed $77 $-1 #
coedge $-1 $315 $126 $123 $206 forward $212 $-1 #
edge $-1 $214 3.6239252382105045 $316 7.5586916448814216 $205 $317 forward 7 unknown #
coedge $-1 $125 $124 $309 $318 reversed $49 $-1 #
coedge $-1 $319 $320 $124 $209 forward $200 $-1 #
edge $-1 $321 -73.68633075960571 $213 73.68633075960571 $208 $322 forward 7 unknown #
edge $-1 $323 -73.68633075960571 $214 73.68633075960571 $203 $324 forward 7 unknown #
coedge $-1 $126 $315 $319 $325 forward $212 $-1 #
loop $-1 $-1 $205 $306 #
vertex $-1 $209 $326 #
vertex $-1 $127 $327 #
straight-curve $-1 73.68633075960571 -12.51833806232634 9.2152336797564676 0 1 0 I I #
face $-1 $328 $329 $29 $-1 $330 reversed single #
loop $-1 $-1 $229 $128 #
plane-surface $-1 73.68633075960571 0 0 -1 0 0 0 0 1 forward_v I I I I #
coedge $-1 $331 $332 $221 $333 forward $129 $-1 #
coedge $-1 $334 $131 $132 $225 reversed $81 $-1 #
coedge $-1 $131 $334 $219 $333 reversed $81 $-1 #
coedge $-1 $335 $336 $131 $223 forward $329 $-1 #
edge $-1 $337 3.6239252382105045 $338 7.5586916448814216 $222 $339 forward 7 unknown #
coedge $-1 $133 $132 $336 $340 reversed $52 $-1 #
edge $-1 $230 -73.68633075960571 $337 73.68633075960571 $220 $341 forward 7 unknown #
coedge $-1 $342 $343 $133 $227 forward $344 $-1 #
edge $-1 $231 -73.68633075960571 $345 73.68633075960571 $226 $346 forward 7 unknown #
coedge $-1 $347 $134 $343 $348 reversed $217 $-1 #
coedge $-1 $134 $347 $334 $349 forward $217 $-1 #
vertex $-1 $135 $350 #
vertex $-1 $227 $351 #
straight-curve $-1 73.68633075960571 12.51833806232634 9.2152336797564676 0 1 0 I I #
face $-1 $-1 $352 $30 $-1 $353 reversed single #
loop $-1 $-1 $354 $136 #
plane-surface $-1 0 -17.313327552513336 11.182616883091926 0 -1 0 0 0 -1 forward_v I I I I #
coedge $-1 $355 $139 $141 $242 forward $85 $-1 #
coedge $-1 $139 $355 $354 $356 forward $85 $-1 #
coedge $-1 $357 $142 $139 $239 forward $137 $-1 #
edge $-1 $245 1.3822104500509509 $358 11.081481551658573 $238 $359 forward 7 unknown #
coedge $-1 $360 $361 $140 $241 forward $352 $-1 #
edge $-1 $362 -99.525878923737636 $244 -91.911341392455924 $240 $363 forward 7 unknown #
edge $-1 $245 133.75564781060245 $362 147.37266151921136 $141 $364 forward 7 unknown #
coedge $-1 $142 $357 $360 $365 forward $137 $-1 #
vertex $-1 $241 $366 #
vertex $-1 $143 $367 #
straight-curve $-1 16.959302736685032 -7.6140564509057134 13.150000086427383 -1 0 0 I I #
coedge $-1 $247 $247 $-1 $368 reversed $146 $-1 #
edge $-1 $369 0 $369 6.2831853071796004 $147 $370 forward 7 unknown #
vertex $-1 $150 $371 #
ellipse-curve $-1 68.041822797764723 -14.542107237768302 9.3427313207865019 0.55919291073839883 0 0.82903756765294845 0.82903756765294845 0 -0.55919291073839883 1 I I #
coedge $-1 $251 $251 $-1 $372 reversed $153 $-1 #
edge $-1 $373 0 $373 6.2831853071796004 $154 $374 forward 7 unknown #
vertex $-1 $157 $375 #
ellipse-curve $-1 68.041822797764723 -10.385276765650751 9.3427313207865019 0.55919291073839883 0 0.82903756765294845 0.82903756765294845 0 -0.55919291073839883 1 I I #
face $-1 $-1 $376 $33 $-1 $377 forward single #
loop $-1 $-1 $261 $158 #
plane-surface $-1 0 0 13.150000086427385 0 0 1 1 0 0 forward_v I I I I #
coedge $-1 $378 $379 $260 $380 forward $159 $-1 #
coedge $-1 $260 $161 $163 $266 reversed $99 $-1 #
coedge $-1 $161 $259 $258 $380 reversed $99 $-1 #
coedge $-1 $381 $164 $161 $262 forward $256 $-1 #
edge $-1 $269 -15.650724322975478 $382 -4.3617083992934766 $261 $383 forward 7 unknown #
coedge $-1 $163 $162 $378 $384 reversed $64 $-1 #
coedge $-1 $385 $386 $162 $265 forward $376 $-1 #
edge $-1 $387 -32.123292544123672 $268 -18.506278835514749 $264 $388 forward 7 unknown #
edge $-1 $389 1.7244626260799089e-014 $269 13.617013708608944 $259 $390 forward 7 unknown #
coedge $-1 $164 $381 $385 $391 forward $256 $-1 #
vertex $-1 $265 $392 #
vertex $-1 $165 $393 #
straight-curve $-1 -62.397314835923709 -6.2318460008547625 13.150000086427385 0 1 0 I I #
coedge $-1 $271 $271 $-1 $394 reversed $168 $-1 #
edge $-1 $395 0 $395 6.2831853071796004 $169 $396 forward 7 unknown #
vertex $-1 $172 $397 #
ellipse-curve $-1 -68.041822797764695 -14.542107237768302 9.342731320786541 -0.55919291073839883 0 0.82903756765294845 0.82903756765294845 0 0.55919291073839883 1 I I #
coedge $-1 $275 $275 $-1 $398 reversed $175 $-1 #
edge $-1 $399 0 $399 6.2831853071796004 $176 $400 forward 7 unknown #
vertex $-1 $179 $401 #
ellipse-curve $-1 -68.041822797764695 -10.385276765650751 9.342731320786541 -0.55919291073839883 0 0.82903756765294845 0.82903756765294845 0 0.55919291073839883 1 I I #
face $-1 $-1 $195 $27 $-1 $402 reversed single #
loop $-1 $-1 $295 $180 #
plane-surface $-1 0 32.760024696792023 0 0 -1 0 0 0 -1 forward_v I I I I #
coedge $-1 $403 $293 $296 $404 forward $181 $-1 #
coedge $-1 $299 $183 $184 $287 reversed $113 $-1 #
coedge $-1 $293 $403 $183 $285 reversed $181 $-1 #
edge $-1 $300 -13.150000086427385 $405 13.150000086427385 $284 $406 forward 7 unknown #
coedge $-1 $185 $184 $403 $407 forward $73 $-1 #
edge $-1 $291 -73.68633075960571 $405 73.68633075960571 $283 $408 forward 7 unknown #
coedge $-1 $296 $295 $185 $289 reversed $280 $-1 #
edge $-1 $409 -73.68633075960571 $290 73.68633075960571 $288 $410 forward 7 unknown #
vertex $-1 $187 $411 #
vertex $-1 $302 $412 #
straight-curve $-1 73.68633075960571 0 -13.150000086427385 0 -1 0 I I #
coedge $-1 $282 $284 $188 $294 reversed $181 $-1 #
edge $-1 $297 -32.760024696792023 $300 32.760024696792023 $293 $413 forward 7 unknown #
coedge $-1 $288 $189 $194 $303 forward $280 $-1 #
coedge $-1 $189 $288 $282 $404 reversed $280 $-1 #
vertex $-1 $190 $414 #
straight-curve $-1 0 32.760024696792023 13.150000086427385 -1 0 0 I I #
coedge $-1 $191 $283 $193 $302 reversed $113 $-1 #
vertex $-1 $294 $415 #
straight-curve $-1 0 -32.760024696792023 13.150000086427385 1 0 0 I I #
edge $-1 $196 -13.150000086427385 $291 13.150000086427385 $193 $416 forward 7 unknown #
edge $-1 $197 -13.150000086427385 $290 13.150000086427385 $194 $417 forward 7 unknown #
point $-1 73.68633075960571 -32.760024696792023 13.150000086427385 #
point $-1 73.68633075960571 32.760024696792023 13.150000086427385 #
face $-1 $-1 $212 $28 $-1 $418 reversed single #
loop $-1 $-1 $313 $199 #
plane-surface $-1 0 0 13.150000086427385 0 0 1 1 0 0 forward_v I I I I #
coedge $-1 $419 $202 $207 $318 forward $121 $-1 #
coedge $-1 $202 $419 $420 $421 reversed $121 $-1 #
coedge $-1 $204 $203 $202 $312 reversed $77 $-1 #
edge $-1 $422 -7.5586916448814216 $323 -3.6239252382105045 $202 $423 forward 7 unknown #
coedge $-1 $420 $424 $204 $314 forward $307 $-1 #
edge $-1 $316 -73.68633075960571 $422 73.68633075960571 $313 $425 forward 7 unknown #
coedge $-1 $211 $205 $424 $426 reversed $212 $-1 #
vertex $-1 $206 $427 #
straight-curve $-1 73.68633075960571 -17.313327552513336 5.5913084415459631 0 0 1 I I #
edge $-1 $323 4.7949894901869961 $321 20.241686634465683 $309 $428 forward 7 unknown #
coedge $-1 $429 $208 $211 $325 reversed $200 $-1 #
coedge $-1 $208 $429 $419 $430 forward $200 $-1 #
vertex $-1 $209 $431 #
straight-curve $-1 0 -32.760024696792023 9.2152336797564676 1 0 0 I I #
vertex $-1 $318 $432 #
straight-curve $-1 0 -17.313327552513336 9.2152336797564676 1 0 0 I I #
edge $-1 $433 -13.150000086427385 $213 -9.2152336797564676 $211 $434 forward 7 unknown #
point $-1 73.68633075960571 -32.760024696792023 9.2152336797564676 #
point $-1 73.68633075960571 -17.313327552513336 9.2152336797564676 #
face $-1 $-1 $344 $29 $-1 $435 reversed single #
loop $-1 $-1 $222 $216 #
plane-surface $-1 -73.68633075960571 0 0 1 0 0 0 0 -1 forward_v I I I I #
coedge $-1 $436 $219 $347 $437 forward $129 $-1 #
coedge $-1 $219 $436 $335 $438 forward $129 $-1 #
edge $-1 $338 -73.68633075960571 $439 73.68633075960571 $219 $440 forward 7 unknown #
coedge $-1 $221 $220 $229 $349 reversed $81 $-1 #
coedge $-1 $441 $222 $332 $438 reversed $329 $-1 #
coedge $-1 $222 $441 $224 $340 forward $329 $-1 #
vertex $-1 $340 $442 #
vertex $-1 $223 $443 #
straight-curve $-1 -73.68633075960571 17.313327552513336 5.5913084415459631 0 0 1 I I #
edge $-1 $345 -20.241686634465683 $337 -4.7949894901869961 $336 $444 forward 7 unknown #
straight-curve $-1 0 17.313327552513336 9.2152336797564676 -1 0 0 I I #
coedge $-1 $445 $226 $441 $446 reversed $344 $-1 #
coedge $-1 $226 $445 $228 $348 forward $344 $-1 #
loop $-1 $-1 $226 $328 #
vertex $-1 $227 $447 #
straight-curve $-1 0 32.760024696792023 9.2152336797564676 -1 0 0 I I #
coedge $-1 $229 $228 $331 $437 reversed $217 $-1 #
edge $-1 $448 -13.150000086427385 $231 -9.2152336797564676 $228 $449 forward 7 unknown #
edge $-1 $439 -7.5586916448814216 $230 -3.6239252382105045 $229 $450 forward 7 unknown #
point $-1 73.68633075960571 17.313327552513336 9.2152336797564676 #
point $-1 73.68633075960571 32.760024696792023 9.2152336797564676 #
loop $-1 $-1 $240 $233 #
plane-surface $-1 73.68633075960571 0 0 -1 0 0 0 0 1 forward_v I I I I #
coedge $-1 $451 $452 $237 $356 reversed $234 $-1 #
coedge $-1 $237 $236 $361 $453 reversed $85 $-1 #
edge $-1 $454 -147.37266151921136 $358 -133.75564781060245 $354 $455 forward 7 unknown #
coedge $-1 $243 $238 $452 $456 forward $137 $-1 #
vertex $-1 $456 $457 #
straight-curve $-1 62.397314835923673 -6.2318460008547625 13.150000086427383 0 -1 0 I I #
coedge $-1 $458 $240 $243 $365 reversed $352 $-1 #
coedge $-1 $240 $458 $355 $453 forward $352 $-1 #
vertex $-1 $241 $459 #
straight-curve $-1 73.68633075960571 -7.6140564509057134 105.06134147888331 0 0 1 I I #
straight-curve $-1 -48.491142084822584 -7.6140564509057134 87.945210113338305 0.82903756765294845 0 -0.55919291073839883 I I #
edge $-1 $460 -17.313327552513336 $244 -7.6140564509057134 $360 $461 forward 7 unknown #
point $-1 73.68633075960571 -7.6140564509057134 13.150000086427385 #
point $-1 62.397314835923694 -7.6140564509057134 13.150000086427383 #
edge $-1 $462 1 $462 0 $247 $-1 forward 7 unknown #
vertex $-1 $248 $463 #
ellipse-curve $-1 65.829574614777883 -14.542107237768302 6.0629385740468029 0.55919291073839883 0 0.82903756765294845 0.82903756765294845 0 -0.55919291073839883 1 I I #
point $-1 68.870860365417656 -14.542107237768302 8.7835384100480915 #
edge $-1 $464 1 $464 0 $251 $-1 forward 7 unknown #
vertex $-1 $252 $465 #
ellipse-curve $-1 65.829574614777883 -10.385276765650751 6.0629385740468029 0.55919291073839883 0 0.82903756765294845 0.82903756765294845 0 -0.55919291073839883 1 I I #
point $-1 68.870860365417656 -10.385276765650751 8.7835384100480915 #
loop $-1 $-1 $264 $255 #
plane-surface $-1 0 -17.313327552513336 11.182616883091926 0 -1 0 0 0 -1 forward_v I I I I #
coedge $-1 $466 $258 $263 $384 forward $159 $-1 #
coedge $-1 $258 $466 $381 $467 reversed $159 $-1 #
edge $-1 $382 50.706467613359607 $389 58.321005144641312 $258 $468 forward 7 unknown #
coedge $-1 $267 $261 $379 $467 forward $256 $-1 #
vertex $-1 $467 $469 #
straight-curve $-1 -78.048039158899186 -7.6140564509057134 13.150000086427383 -1 0 0 I I #
edge $-1 $389 1.3822104500509509 $387 11.081481551658573 $378 $470 forward 7 unknown #
coedge $-1 $386 $264 $267 $391 reversed $376 $-1 #
coedge $-1 $264 $385 $466 $471 reversed $376 $-1 #
vertex $-1 $471 $472 #
straight-curve $-1 -47.054914443821325 -17.313327552513336 23.498580015395305 0.82903756765294845 0 0.55919291073839883 I I #
vertex $-1 $384 $473 #
straight-curve $-1 -73.686330759605724 -7.6140564509057134 5.5354625551456706 0.82903756765294845 0 0.55919291073839883 I I #
edge $-1 $474 -73.68633075960571 $268 -62.397314835923709 $267 $475 forward 7 unknown #
point $-1 -62.397314835923709 -17.313327552513336 13.150000086427385 #
point $-1 -62.397314835923709 -7.6140564509057134 13.150000086427385 #
edge $-1 $476 1 $476 0 $271 $-1 forward 7 unknown #
vertex $-1 $272 $477 #
ellipse-curve $-1 -65.829574614777854 -14.542107237768302 6.0629385740468278 -0.55919291073839883 0 0.82903756765294845 0.82903756765294845 0 0.55919291073839883 1 I I #
point $-1 -67.212785230111734 -14.542107237768302 9.9019242315249141 #
edge $-1 $478 1 $478 0 $275 $-1 forward 7 unknown #
vertex $-1 $276 $479 #
ellipse-curve $-1 -65.829574614777854 -10.385276765650751 6.0629385740468278 -0.55919291073839883 0 0.82903756765294845 0.82903756765294845 0 0.55919291073839883 1 I I #
point $-1 -67.212785230111734 -10.385276765650751 9.9019242315249141 #
plane-surface $-1 73.68633075960571 0 0 -1 0 0 0 0 1 forward_v I I I I #
coedge $-1 $284 $282 $286 $407 reversed $181 $-1 #
edge $-1 $297 -13.150000086427385 $409 13.150000086427385 $296 $480 forward 7 unknown #
vertex $-1 $407 $481 #
straight-curve $-1 -73.68633075960571 -32.760024696792023 0 0 0 -1 I I #
edge $-1 $405 -32.760024696792023 $409 32.760024696792023 $403 $482 forward 7 unknown #
straight-curve $-1 0 -32.760024696792023 -13.150000086427385 -1 0 0 I I #
vertex $-1 $289 $483 #
straight-curve $-1 0 32.760024696792023 -13.150000086427385 1 0 0 I I #
point $-1 73.68633075960571 32.760024696792023 -13.150000086427385 #
point $-1 73.68633075960571 -32.760024696792023 -13.150000086427385 #
straight-curve $-1 -73.68633075960571 0 13.150000086427385 0 -1 0 I I #
point $-1 -73.68633075960571 32.760024696792023 13.150000086427385 #
point $-1 -73.68633075960571 -32.760024696792023 13.150000086427385 #
straight-curve $-1 73.68633075960571 -32.760024696792023 0 0 0 -1 I I #
straight-curve $-1 73.68633075960571 32.760024696792023 0 0 0 -1 I I #
plane-surface $-1 73.68633075960571 0 0 -1 0 0 0 0 1 forward_v I I I I #
coedge $-1 $310 $309 $320 $430 reversed $121 $-1 #
coedge $-1 $484 $313 $310 $421 forward $307 $-1 #
edge $-1 $422 17.313327552513336 $485 32.760024696792023 $310 $486 forward 7 unknown #
vertex $-1 $421 $487 #
straight-curve $-1 -73.68633075960571 -17.313327552513336 5.5913084415459631 0 0 -1 I I #
coedge $-1 $313 $484 $315 $426 forward $307 $-1 #
straight-curve $-1 0 -17.313327552513336 13.150000086427385 -1 0 0 I I #
edge $-1 $433 -32.760024696792023 $316 -17.313327552513336 $315 $488 forward 7 unknown #
point $-1 73.68633075960571 -17.313327552513336 13.150000086427385 #
straight-curve $-1 -73.68633075960571 -12.51833806232634 9.2152336797564676 0 -1 0 I I #
coedge $-1 $320 $319 $484 $489 reversed $200 $-1 #
edge $-1 $485 -13.150000086427385 $321 -9.2152336797564676 $419 $490 forward 7 unknown #
point $-1 -73.68633075960571 -32.760024696792023 9.2152336797564676 #
point $-1 -73.68633075960571 -17.313327552513336 9.2152336797564676 #
vertex $-1 $426 $491 #
straight-curve $-1 73.68633075960571 -32.760024696792023 0 0 0 -1 I I #
plane-surface $-1 0 32.760024696792023 0 0 -1 0 0 0 -1 forward_v I I I I #
coedge $-1 $332 $331 $445 $492 forward $129 $-1 #
edge $-1 $439 17.313327552513336 $448 32.760024696792023 $347 $493 forward 7 unknown #
edge $-1 $494 -32.760024696792023 $338 -17.313327552513336 $335 $495 forward 7 unknown #
vertex $-1 $437 $496 #
straight-curve $-1 0 17.313327552513336 13.150000086427385 1 0 0 I I #
coedge $-1 $336 $335 $342 $446 forward $329 $-1 #
point $-1 -73.68633075960571 17.313327552513336 9.2152336797564676 #
point $-1 -73.68633075960571 17.313327552513336 13.150000086427385 #
straight-curve $-1 -73.68633075960571 12.51833806232634 9.2152336797564676 0 -1 0 I I #
coedge $-1 $343 $342 $436 $492 reversed $344 $-1 #
edge $-1 $494 -13.150000086427385 $345 -9.2152336797564676 $342 $497 forward 7 unknown #
point $-1 -73.68633075960571 32.760024696792023 9.2152336797564676 #
vertex $-1 $437 $498 #
straight-curve $-1 73.68633075960571 32.760024696792023 0 0 0 -1 I I #
straight-curve $-1 73.68633075960571 17.313327552513336 5.5913084415459631 0 0 -1 I I #
coedge $-1 $452 $354 $458 $499 reversed $234 $-1 #
coedge $-1 $354 $451 $357 $456 reversed $234 $-1 #
edge $-1 $454 -11.081481551658573 $362 -1.3822104500509509 $361 $500 forward 7 unknown #
vertex $-1 $499 $501 #
straight-curve $-1 -48.491142084822584 -17.313327552513336 87.945210113338305 -0.82903756765294845 0 0.55919291073839883 I I #
edge $-1 $358 62.397314835923694 $460 73.68633075960571 $357 $502 forward 7 unknown #
point $-1 62.397314835923694 -17.313327552513336 13.150000086427383 #
coedge $-1 $361 $360 $451 $499 forward $352 $-1 #
point $-1 73.686330759605696 -7.6140564509057134 5.5354625551456706 #
vertex $-1 $365 $503 #
straight-curve $-1 73.68633075960571 0 13.150000086427385 0 1 0 I I #
vertex $-1 $368 $504 #
point $-1 66.658612182430829 -14.542107237768302 5.5037456633084041 #
vertex $-1 $372 $505 #
point $-1 66.658612182430829 -10.385276765650751 5.5037456633084041 #
coedge $-1 $379 $378 $386 $471 forward $159 $-1 #
edge $-1 $382 7.6140564509057134 $474 17.313327552513336 $379 $506 forward 7 unknown #
straight-curve $-1 -73.68633075960571 -7.6140564509057134 63.85646769978699 0 0 -1 I I #
point $-1 -73.68633075960571 -7.6140564509057134 13.150000086427385 #
straight-curve $-1 -73.68633075960571 -6.2318460008547625 5.5354625551456742 0 -1 0 I I #
edge $-1 $387 -58.321005144641312 $474 -50.706467613359607 $466 $507 forward 7 unknown #
point $-1 -73.68633075960571 -17.313327552513336 5.5354625551456804 #
point $-1 -73.68633075960571 -7.6140564509057134 5.5354625551456804 #
vertex $-1 $471 $508 #
straight-curve $-1 0 -17.313327552513336 13.150000086427385 1 0 0 I I #
vertex $-1 $394 $509 #
point $-1 -65.000537047124908 -14.542107237768302 6.6221314847852266 #
vertex $-1 $398 $510 #
point $-1 -65.000537047124908 -10.385276765650751 6.6221314847852266 #
straight-curve $-1 -73.68633075960571 32.760024696792023 0 0 0 -1 I I #
point $-1 -73.68633075960571 -32.760024696792023 -13.150000086427385 #
straight-curve $-1 -73.68633075960571 0 -13.150000086427385 0 1 0 I I #
point $-1 -73.68633075960571 32.760024696792023 -13.150000086427385 #
coedge $-1 $424 $420 $429 $489 forward $307 $-1 #
vertex $-1 $421 $511 #
straight-curve $-1 -73.68633075960571 0 13.150000086427385 0 -1 0 I I #
point $-1 -73.68633075960571 -17.313327552513336 13.150000086427385 #
straight-curve $-1 73.68633075960571 0 13.150000086427385 0 1 0 I I #
edge $-1 $485 -73.68633075960571 $433 73.68633075960571 $429 $512 forward 7 unknown #
straight-curve $-1 -73.68633075960571 -32.760024696792023 0 0 0 -1 I I #
point $-1 73.68633075960571 -32.760024696792023 13.150000086427385 #
edge $-1 $448 -73.68633075960571 $494 73.68633075960571 $445 $513 forward 7 unknown #
straight-curve $-1 73.68633075960571 0 13.150000086427385 0 1 0 I I #
vertex $-1 $492 $514 #
straight-curve $-1 -73.68633075960571 0 13.150000086427385 0 -1 0 I I #
point $-1 73.68633075960571 17.313327552513336 13.150000086427385 #
straight-curve $-1 -73.68633075960571 32.760024696792023 0 0 0 -1 I I #
point $-1 73.68633075960571 32.760024696792023 13.150000086427385 #
edge $-1 $460 91.911341392455924 $454 99.525878923737636 $458 $515 forward 7 unknown #
straight-curve $-1 73.68633075960571 -6.2318460008547625 5.5354625551456564 0 1 0 I I #
point $-1 73.686330759605696 -17.313327552513336 5.5354625551456706 #
straight-curve $-1 0 -17.313327552513336 13.150000086427385 1 0 0 I I #
point $-1 73.68633075960571 -17.313327552513336 13.150000086427385 #
point $-1 65.27038170403948 -14.542107237768302 5.2339010063938547 #
point $-1 65.27038170403948 -10.385276765650751 5.2339010063938547 #
straight-curve $-1 -73.68633075960571 0 13.150000086427385 0 -1 0 I I #
straight-curve $-1 -73.68633075960571 -17.313327552513336 63.85646769978699 0 0 1 I I #
point $-1 -73.68633075960571 -17.313327552513336 13.150000086427385 #
point $-1 -65.270381704039451 -14.542107237768302 5.2339010063938796 #
point $-1 -65.270381704039451 -10.385276765650751 5.2339010063938796 #
point $-1 -73.68633075960571 -32.760024696792023 13.150000086427385 #
straight-curve $-1 0 -32.760024696792023 13.150000086427385 1 0 0 I I #
straight-curve $-1 0 32.760024696792023 13.150000086427385 -1 0 0 I I #
point $-1 -73.68633075960571 32.760024696792023 13.150000086427385 #
straight-curve $-1 73.68633075960571 -17.313327552513336 105.06134147888331 0 0 -1 I I #
End-of-ACIS-data 