500 0 4 0           
7 Unknown 11 ACIS 5.0 NT 24 Fri Mar 26 17:34:35 1999 
-1 9.9999999999999995e-007 1e-010 
body $-1 $4 $-1 $5 #
body $-1 $6 $-1 $7 #
body $-1 $8 $-1 $9 #
body $-1 $10 $-1 $11 #
lump $-1 $-1 $12 $0 #
transform $-1 1 0 0 0 1 0 0 0 1 61.986754966887418 31.060156024363877 10.553552265915561 1 rotate no_reflect no_shear #
lump $-1 $-1 $13 $1 #
transform $-1 1 0 0 0 1 0 0 0 1 61.986754966887418 31.060156024363877 10.553552265915561 1 rotate no_reflect no_shear #
lump $-1 $-1 $14 $2 #
transform $-1 1 0 0 0 1 0 0 0 1 61.986754966887418 31.060156024363877 10.553552265915561 1 rotate no_reflect no_shear #
lump $-1 $-1 $15 $3 #
transform $-1 1 0 0 0 1 0 0 0 1 61.986754966887418 31.060156024363877 10.553552265915561 1 rotate no_reflect no_shear #
shell $-1 $-1 $-1 $16 $-1 $4 #
shell $-1 $-1 $-1 $17 $-1 $6 #
shell $-1 $-1 $-1 $18 $-1 $8 #
shell $-1 $-1 $-1 $19 $-1 $10 #
face $-1 $20 $21 $12 $-1 $22 forward single #
face $-1 $23 $24 $13 $-1 $25 forward single #
face $-1 $26 $27 $14 $-1 $28 forward single #
face $-1 $29 $30 $15 $-1 $31 reversed single #
face $-1 $32 $33 $12 $-1 $34 reversed single #
loop $-1 $-1 $35 $16 #
plane-surface $-1 0 0 10.553552265915561 0 0 1 1 0 0 forward_v I I I I #
face $-1 $36 $37 $13 $-1 $38 forward single #
loop $-1 $-1 $39 $17 #
plane-surface $-1 -56.22626818190038 0 4.9035835608420433 0 0 1 1 0 0 forward_v I I I I #
face $-1 $40 $41 $14 $-1 $42 forward single #
loop $-1 $-1 $43 $18 #
plane-surface $-1 83.353502263073835 23.532139362600574 177.20930478495137 0 -1 0 -0.78801076186113728 0 -0.61566146476048833 forward_v I I I I #
face $-1 $44 $45 $15 $-1 $46 reversed single #
loop $-1 $47 $48 $19 #
cone-surface $-1 58.618589626193049 18.002318744315971 6.4878802046337238 -0.78801076186113728 0 -0.61566146476048833 0.61566146476048833 0 -0.78801076186113728 1 I I 0 1 1 forward I I I I #
face $-1 $49 $50 $12 $-1 $51 reversed single #
loop $-1 $-1 $52 $20 #
plane-surface $-1 0 0 -10.553552265915561 0 0 1 1 0 0 forward_v I I I I #
coedge $-1 $53 $54 $55 $56 forward $21 $-1 #
face $-1 $57 $58 $13 $-1 $59 forward single #
loop $-1 $-1 $60 $23 #
plane-surface $-1 -50.465781396913343 0 7.7285679133788019 -1 0 0 0 0 1 forward_v I I I I #
coedge $-1 $61 $62 $63 $64 reversed $24 $-1 #
face $-1 $65 $66 $14 $-1 $67 forward single #
loop $-1 $-1 $68 $26 #
plane-surface $-1 -14.338957750439349 18.002318744315971 100.8835920676246 0.78801076186113728 0 0.61566146476048833 0.61566146476048833 0 -0.78801076186113728 forward_v I I I I #
coedge $-1 $69 $70 $71 $72 reversed $27 $-1 #
face $-1 $73 $74 $15 $-1 $75 forward single #
loop $-1 $76 $77 $29 #
cone-surface $-1 57.732495368978334 18.002318744315971 5.7955875168737041 -0.78801076186113728 0 -0.61566146476048833 0.30783073238024417 0 -0.39400538093056864 1 I I -0.70710678118654746 0.70710678118654746 0.5 forward I I I I #
loop $-1 $-1 $78 $19 #
coedge $-1 $48 $48 $79 $80 reversed $30 $-1 #
face $-1 $81 $82 $12 $-1 $83 reversed single #
loop $-1 $-1 $84 $32 #
plane-surface $-1 0 -31.060156024363877 0 0 1 0 0 0 1 forward_v I I I I #
coedge $-1 $85 $86 $87 $88 forward $33 $-1 #
coedge $-1 $89 $35 $90 $91 forward $21 $-1 #
coedge $-1 $35 $89 $92 $93 forward $21 $-1 #
coedge $-1 $94 $95 $35 $56 reversed $96 $-1 #
edge $-1 $97 -31.060156024363877 $98 31.060156024363877 $55 $99 forward 7 unknown #
face $-1 $100 $101 $13 $-1 $102 reversed single #
loop $-1 $-1 $103 $36 #
plane-surface $-1 0 0 10.553552265915561 0 0 1 1 0 0 forward_v I I I I #
coedge $-1 $104 $63 $105 $106 reversed $37 $-1 #
coedge $-1 $107 $39 $108 $109 reversed $24 $-1 #
coedge $-1 $39 $107 $110 $111 reversed $24 $-1 #
coedge $-1 $60 $112 $39 $64 forward $37 $-1 #
edge $-1 $113 -31.060156024363877 $114 31.060156024363877 $63 $115 forward 7 unknown #
face $-1 $116 $117 $14 $-1 $118 forward single #
loop $-1 $-1 $119 $40 #
plane-surface $-1 83.353502263073835 12.472498126031368 177.20930478495137 0 1 0 0.78801076186113728 0 0.61566146476048833 forward_v I I I I #
coedge $-1 $120 $121 $122 $123 reversed $41 $-1 #
coedge $-1 $70 $43 $121 $124 forward $27 $-1 #
coedge $-1 $43 $69 $125 $126 reversed $27 $-1 #
coedge $-1 $127 $122 $43 $72 forward $117 $-1 #
edge $-1 $128 14.557850906530078 $129 20.3100038353505 $71 $130 forward 7 unknown #
face $-1 $131 $132 $15 $-1 $133 forward single #
loop $-1 $-1 $134 $44 #
plane-surface $-1 83.353502263073835 23.532139362600574 177.20930478495137 0 -1 0 -0.78801076186113728 0 -0.61566146476048833 forward_v I I I I #
loop $-1 $-1 $135 $29 #
coedge $-1 $77 $77 $78 $136 forward $45 $-1 #
coedge $-1 $78 $78 $77 $136 reversed $47 $-1 #
coedge $-1 $79 $79 $48 $80 forward $132 $-1 #
edge $-1 $137 0 $137 6.2831853071796004 $79 $138 forward 7 unknown #
face $-1 $139 $140 $12 $-1 $141 reversed single #
loop $-1 $-1 $142 $49 #
plane-surface $-1 -61.986754966887418 0 0 1 0 0 0 0 -1 forward_v I I I I #
coedge $-1 $143 $92 $144 $145 forward $50 $-1 #
coedge $-1 $146 $52 $143 $147 forward $33 $-1 #
coedge $-1 $52 $146 $148 $149 forward $33 $-1 #
coedge $-1 $95 $94 $52 $88 reversed $96 $-1 #
edge $-1 $150 -31.060156024363877 $151 31.060156024363877 $87 $152 forward 7 unknown #
coedge $-1 $54 $53 $153 $154 forward $21 $-1 #
coedge $-1 $155 $156 $53 $91 reversed $140 $-1 #
edge $-1 $98 -61.986754966887418 $157 61.986754966887418 $90 $158 forward 7 unknown #
coedge $-1 $84 $159 $54 $93 reversed $50 $-1 #
edge $-1 $160 -61.986754966887418 $97 61.986754966887418 $92 $161 forward 7 unknown #
coedge $-1 $87 $55 $159 $162 forward $96 $-1 #
coedge $-1 $55 $87 $155 $163 reversed $96 $-1 #
loop $-1 $-1 $94 $139 #
vertex $-1 $56 $164 #
vertex $-1 $56 $165 #
straight-curve $-1 61.986754966887418 0 10.553552265915561 0 1 0 I I #
face $-1 $166 $167 $13 $-1 $168 reversed single #
loop $-1 $-1 $105 $57 #
plane-surface $-1 0 -31.060156024363877 0 0 1 0 0 0 1 forward_v I I I I #
coedge $-1 $169 $170 $104 $171 forward $58 $-1 #
coedge $-1 $112 $60 $103 $171 reversed $37 $-1 #
coedge $-1 $110 $172 $60 $106 forward $101 $-1 #
edge $-1 $173 -6.6892683092261587 $114 -1.0392996041526423 $105 $174 forward 7 unknown #
coedge $-1 $62 $61 $175 $176 reversed $24 $-1 #
coedge $-1 $177 $178 $61 $109 forward $179 $-1 #
edge $-1 $180 -33.873620875937227 $113 -22.352647305963153 $108 $181 forward 7 unknown #
coedge $-1 $182 $105 $62 $111 forward $101 $-1 #
edge $-1 $114 22.352647305963153 $183 33.873620875937227 $110 $184 forward 7 unknown #
coedge $-1 $63 $104 $177 $185 reversed $37 $-1 #
vertex $-1 $109 $186 #
vertex $-1 $111 $187 #
straight-curve $-1 -50.465781396913343 0 4.9035835608420433 0 -1 0 I I #
face $-1 $188 $189 $14 $-1 $190 forward single #
loop $-1 $-1 $191 $65 #
plane-surface $-1 0 0 10.553552265915561 0 0 1 1 0 0 forward_v I I I I #
coedge $-1 $192 $193 $191 $194 reversed $66 $-1 #
coedge $-1 $195 $68 $193 $196 reversed $41 $-1 #
coedge $-1 $68 $195 $69 $124 reversed $41 $-1 #
coedge $-1 $71 $191 $68 $123 forward $117 $-1 #
edge $-1 $197 3.4713387538733826 $128 14.530979990442589 $122 $198 forward 7 unknown #
edge $-1 $128 114.63046467584532 $199 123.97350993377485 $69 $200 forward 7 unknown #
coedge $-1 $201 $202 $70 $126 forward $203 $-1 #
edge $-1 $129 78.051100126560129 $199 85.413520338364265 $125 $204 forward 7 unknown #
coedge $-1 $205 $71 $202 $206 forward $117 $-1 #
vertex $-1 $123 $207 #
vertex $-1 $206 $208 #
straight-curve $-1 41.676751131536918 23.532139362600574 10.553552265915556 1 0 0 I I #
face $-1 $209 $210 $15 $-1 $211 forward single #
loop $-1 $212 $79 $73 #
plane-surface $-1 -14.338957750439349 18.002318744315971 100.8835920676246 0.78801076186113728 0 0.61566146476048833 0.61566146476048833 0 -0.78801076186113728 forward_v I I I I #
coedge $-1 $213 $214 $215 $216 reversed $74 $-1 #
coedge $-1 $135 $135 $-1 $217 forward $76 $-1 #
edge $-1 $218 0 $218 6.2831853071796004 $77 $219 forward 7 unknown #
vertex $-1 $80 $220 #
ellipse-curve $-1 59.110678502477207 18.002318744315971 6.8723421600135062 -0.78801076186113728 0 -0.61566146476048833 0.61566146476048833 0 -0.78801076186113728 1 I I #
face $-1 $-1 $96 $12 $-1 $221 reversed single #
loop $-1 $-1 $155 $81 #
plane-surface $-1 0 31.060156024363877 0 0 -1 0 0 0 -1 forward_v I I I I #
coedge $-1 $222 $153 $156 $223 forward $82 $-1 #
coedge $-1 $159 $84 $85 $147 reversed $50 $-1 #
coedge $-1 $153 $222 $84 $145 reversed $82 $-1 #
edge $-1 $160 -10.553552265915561 $224 10.553552265915561 $144 $225 forward 7 unknown #
coedge $-1 $86 $85 $222 $226 forward $33 $-1 #
edge $-1 $151 -61.986754966887418 $224 61.986754966887418 $143 $227 forward 7 unknown #
coedge $-1 $156 $155 $86 $149 reversed $140 $-1 #
edge $-1 $228 -61.986754966887418 $150 61.986754966887418 $148 $229 forward 7 unknown #
vertex $-1 $88 $230 #
vertex $-1 $162 $231 #
straight-curve $-1 61.986754966887418 0 -10.553552265915561 0 -1 0 I I #
coedge $-1 $142 $144 $89 $154 reversed $82 $-1 #
edge $-1 $157 -31.060156024363877 $160 31.060156024363877 $153 $232 forward 7 unknown #
coedge $-1 $148 $90 $95 $163 forward $140 $-1 #
coedge $-1 $90 $148 $142 $223 reversed $140 $-1 #
vertex $-1 $91 $233 #
straight-curve $-1 0 31.060156024363877 10.553552265915561 -1 0 0 I I #
coedge $-1 $92 $143 $94 $162 reversed $50 $-1 #
vertex $-1 $154 $234 #
straight-curve $-1 0 -31.060156024363877 10.553552265915561 1 0 0 I I #
edge $-1 $97 -10.553552265915561 $151 10.553552265915561 $94 $235 forward 7 unknown #
edge $-1 $98 -10.553552265915561 $150 10.553552265915561 $95 $236 forward 7 unknown #
point $-1 61.986754966887418 -31.060156024363877 10.553552265915561 #
point $-1 61.986754966887418 31.060156024363877 10.553552265915561 #
face $-1 $237 $238 $13 $-1 $239 reversed single #
loop $-1 $-1 $240 $100 #
plane-surface $-1 0 0 -10.553552265915561 0 0 1 1 0 0 forward_v I I I I #
coedge $-1 $241 $103 $172 $242 forward $58 $-1 #
coedge $-1 $103 $241 $243 $244 forward $58 $-1 #
edge $-1 $245 -31.060156024363877 $173 31.060156024363877 $103 $246 forward 7 unknown #
coedge $-1 $105 $247 $169 $242 reversed $101 $-1 #
vertex $-1 $242 $248 #
straight-curve $-1 -50.465781396913343 -31.060156024363877 3.8642839566894009 0 0 -1 I I #
coedge $-1 $249 $250 $107 $176 forward $238 $-1 #
edge $-1 $183 -31.060156024363877 $180 31.060156024363877 $175 $251 forward 7 unknown #
coedge $-1 $243 $108 $112 $185 forward $179 $-1 #
coedge $-1 $108 $252 $249 $253 reversed $179 $-1 #
loop $-1 $-1 $177 $237 #
vertex $-1 $253 $254 #
straight-curve $-1 -28.11313409095019 31.060156024363877 4.9035835608420433 1 0 0 I I #
coedge $-1 $255 $110 $250 $256 forward $101 $-1 #
vertex $-1 $256 $257 #
straight-curve $-1 -28.11313409095019 -31.060156024363877 4.9035835608420433 -1 0 0 I I #
edge $-1 $113 1.0392996041526423 $245 6.6892683092261587 $177 $258 forward 7 unknown #
point $-1 -50.465781396913343 31.060156024363877 4.9035835608420433 #
point $-1 -50.465781396913343 -31.060156024363877 4.9035835608420433 #
face $-1 $259 $260 $14 $-1 $261 forward single #
loop $-1 $-1 $262 $116 #
plane-surface $-1 -56.22626818190038 0 4.9035835608420433 0 0 1 1 0 0 forward_v I I I I #
coedge $-1 $122 $263 $119 $194 forward $117 $-1 #
coedge $-1 $193 $119 $264 $265 reversed $66 $-1 #
coedge $-1 $119 $192 $120 $196 forward $66 $-1 #
edge $-1 $266 -20.3100038353505 $197 -14.557850906530078 $191 $267 forward 7 unknown #
coedge $-1 $121 $120 $201 $268 reversed $41 $-1 #
edge $-1 $269 -123.97350993377485 $197 -114.63046467584532 $193 $270 forward 7 unknown #
vertex $-1 $123 $271 #
straight-curve $-1 56.234602038066996 9.0011593721579857 10.553552265915563 0 1 0 I I #
vertex $-1 $268 $272 #
straight-curve $-1 -14.338957750439349 23.532139362600574 100.8835920676246 0.61566146476048833 0 -0.78801076186113728 I I #
coedge $-1 $264 $125 $195 $268 forward $203 $-1 #
coedge $-1 $125 $273 $127 $206 reversed $203 $-1 #
loop $-1 $-1 $264 $274 #
straight-curve $-1 61.986754966887418 23.532139362600574 88.604652392475685 0 0 -1 I I #
coedge $-1 $275 $127 $276 $277 forward $117 $-1 #
edge $-1 $129 23.532139362600574 $278 31.060156024363877 $202 $279 forward 7 unknown #
point $-1 56.234602038066996 23.532139362600574 10.553552265915556 #
point $-1 61.986754966887418 23.532139362600574 10.553552265915561 #
face $-1 $280 $281 $15 $-1 $282 forward single #
loop $-1 $-1 $283 $131 #
plane-surface $-1 83.353502263073835 12.472498126031368 177.20930478495137 0 1 0 0.78801076186113728 0 0.61566146476048833 forward_v I I I I #
loop $-1 $-1 $284 $73 #
coedge $-1 $214 $134 $285 $286 forward $74 $-1 #
coedge $-1 $134 $213 $287 $288 reversed $74 $-1 #
coedge $-1 $289 $290 $134 $216 forward $281 $-1 #
edge $-1 $291 14.557850906530078 $292 20.3100038353505 $215 $293 forward 7 unknown #
edge $-1 $294 1 $294 0 $135 $-1 forward 7 unknown #
vertex $-1 $136 $295 #
ellipse-curve $-1 58.126500749908899 18.002318744315971 6.1034182492539486 0.78801076186113728 0 0.61566146476048833 0.61566146476048833 0 -0.78801076186113728 1 I I #
point $-1 59.726339967237685 18.002318744315971 6.0843313981523623 #
plane-surface $-1 61.986754966887418 0 0 -1 0 0 0 0 1 forward_v I I I I #
coedge $-1 $144 $142 $146 $226 reversed $82 $-1 #
edge $-1 $157 -10.553552265915561 $228 10.553552265915561 $156 $296 forward 7 unknown #
vertex $-1 $226 $297 #
straight-curve $-1 -61.986754966887418 -31.060156024363877 0 0 0 -1 I I #
edge $-1 $224 -31.060156024363877 $228 31.060156024363877 $222 $298 forward 7 unknown #
straight-curve $-1 0 -31.060156024363877 -10.553552265915561 -1 0 0 I I #
vertex $-1 $149 $299 #
straight-curve $-1 0 31.060156024363877 -10.553552265915561 1 0 0 I I #
point $-1 61.986754966887418 31.060156024363877 -10.553552265915561 #
point $-1 61.986754966887418 -31.060156024363877 -10.553552265915561 #
straight-curve $-1 -61.986754966887418 0 10.553552265915561 0 -1 0 I I #
point $-1 -61.986754966887418 31.060156024363877 10.553552265915561 #
point $-1 -61.986754966887418 -31.060156024363877 10.553552265915561 #
straight-curve $-1 61.986754966887418 -31.060156024363877 0 0 0 -1 I I #
straight-curve $-1 61.986754966887418 31.060156024363877 0 0 0 -1 I I #
face $-1 $300 $179 $13 $-1 $301 reversed single #
loop $-1 $-1 $175 $166 #
plane-surface $-1 -61.986754966887418 0 0 1 0 0 0 0 -1 forward_v I I I I #
coedge $-1 $302 $303 $304 $305 forward $167 $-1 #
coedge $-1 $170 $169 $306 $307 forward $58 $-1 #
edge $-1 $173 -50.465781396913343 $308 61.986754966887418 $172 $309 forward 7 unknown #
coedge $-1 $310 $177 $170 $244 reversed $179 $-1 #
edge $-1 $311 -61.986754966887418 $245 50.465781396913343 $243 $312 forward 7 unknown #
vertex $-1 $171 $313 #
straight-curve $-1 -50.465781396913343 0 10.553552265915561 0 -1 0 I I #
coedge $-1 $172 $255 $314 $315 reversed $101 $-1 #
point $-1 -50.465781396913343 -31.060156024363877 10.55355226591556 #
coedge $-1 $316 $175 $178 $253 forward $238 $-1 #
coedge $-1 $175 $316 $182 $256 reversed $238 $-1 #
straight-curve $-1 -61.986754966887418 0 4.9035835608420433 0 1 0 I I #
coedge $-1 $178 $310 $303 $317 reversed $179 $-1 #
edge $-1 $180 -4.9035835608420433 $318 10.553552265915561 $178 $319 forward 7 unknown #
point $-1 -61.986754966887418 31.060156024363877 4.9035835608420433 #
coedge $-1 $247 $182 $302 $320 reversed $101 $-1 #
edge $-1 $183 -4.9035835608420433 $321 10.553552265915561 $250 $322 forward 7 unknown #
point $-1 -61.986754966887418 -31.060156024363877 4.9035835608420433 #
straight-curve $-1 -50.465781396913343 31.060156024363877 3.8642839566894009 0 0 1 I I #
face $-1 $323 $324 $14 $-1 $325 reversed single #
loop $-1 $-1 $326 $188 #
plane-surface $-1 -50.465781396913343 0 7.7285679133788019 -1 0 0 0 0 1 forward_v I I I I #
coedge $-1 $327 $328 $329 $330 reversed $189 $-1 #
coedge $-1 $191 $331 $332 $333 forward $117 $-1 #
coedge $-1 $332 $201 $192 $265 forward $203 $-1 #
edge $-1 $269 -85.413520338364265 $266 -78.051100126560129 $264 $334 forward 7 unknown #
vertex $-1 $265 $335 #
straight-curve $-1 41.676751131536918 12.472498126031368 10.553552265915556 -1 0 0 I I #
edge $-1 $199 -14.530979990442589 $269 -3.4713387538733826 $201 $336 forward 7 unknown #
vertex $-1 $268 $337 #
straight-curve $-1 -14.338957750439349 12.472498126031368 100.8835920676246 -0.61566146476048833 0 0.78801076186113728 I I #
point $-1 56.234602038066996 12.472498126031368 10.553552265915556 #
point $-1 61.986754966887418 23.532139362600574 3.1911320541114208 #
coedge $-1 $202 $338 $339 $340 reversed $203 $-1 #
face $-1 $-1 $203 $14 $-1 $341 reversed single #
coedge $-1 $331 $205 $342 $343 forward $117 $-1 #
coedge $-1 $339 $344 $205 $277 reversed $345 $-1 #
edge $-1 $278 -61.986754966887418 $346 50.465781396913343 $276 $347 forward 7 unknown #
vertex $-1 $206 $348 #
straight-curve $-1 61.986754966887418 0 10.553552265915561 0 1 0 I I #
face $-1 $349 $350 $15 $-1 $351 forward single #
loop $-1 $-1 $352 $209 #
plane-surface $-1 0 0 10.553552265915561 0 0 1 1 0 0 forward_v I I I I #
coedge $-1 $353 $354 $352 $355 reversed $210 $-1 #
coedge $-1 $356 $285 $290 $357 reversed $212 $-1 #
coedge $-1 $284 $358 $213 $286 reversed $212 $-1 #
edge $-1 $291 114.63046467584532 $359 123.97350993377485 $213 $360 forward 7 unknown #
coedge $-1 $361 $362 $214 $288 forward $363 $-1 #
edge $-1 $292 78.051100126560129 $359 85.413520338364265 $287 $364 forward 7 unknown #
coedge $-1 $365 $215 $362 $366 forward $281 $-1 #
coedge $-1 $215 $352 $284 $357 forward $281 $-1 #
vertex $-1 $357 $367 #
vertex $-1 $366 $368 #
straight-curve $-1 41.676751131536918 23.532139362600574 10.553552265915556 1 0 0 I I #
vertex $-1 $217 $369 #
point $-1 58.742162214669392 18.002318744315971 5.315407487392811 #
straight-curve $-1 -61.986754966887418 31.060156024363877 0 0 0 -1 I I #
point $-1 -61.986754966887418 -31.060156024363877 -10.553552265915561 #
straight-curve $-1 -61.986754966887418 0 -10.553552265915561 0 1 0 I I #
point $-1 -61.986754966887418 31.060156024363877 -10.553552265915561 #
face $-1 $-1 $370 $13 $-1 $371 reversed single #
plane-surface $-1 0 31.060156024363877 0 0 -1 0 0 0 -1 forward_v I I I I #
coedge $-1 $372 $240 $255 $320 forward $167 $-1 #
coedge $-1 $240 $372 $252 $317 forward $167 $-1 #
coedge $-1 $373 $314 $240 $305 reversed $370 $-1 #
edge $-1 $374 -31.060156024363877 $375 31.060156024363877 $304 $376 forward 7 unknown #
coedge $-1 $314 $373 $241 $307 reversed $370 $-1 #
edge $-1 $308 -31.060156024363877 $311 31.060156024363877 $306 $377 forward 7 unknown #
vertex $-1 $307 $378 #
straight-curve $-1 0 -31.060156024363877 10.553552265915561 1 0 0 I I #
coedge $-1 $252 $243 $373 $379 forward $179 $-1 #
vertex $-1 $307 $380 #
straight-curve $-1 0 31.060156024363877 10.553552265915561 -1 0 0 I I #
point $-1 -50.465781396913343 31.060156024363877 10.55355226591556 #
coedge $-1 $304 $306 $247 $315 forward $370 $-1 #
edge $-1 $308 -10.553552265915561 $375 10.553552265915561 $314 $381 forward 7 unknown #
coedge $-1 $250 $249 $372 $382 reversed $238 $-1 #
edge $-1 $318 -61.986754966887418 $374 61.986754966887418 $252 $383 forward 7 unknown #
vertex $-1 $317 $384 #
straight-curve $-1 -61.986754966887418 31.060156024363877 0 0 0 -1 I I #
edge $-1 $375 -61.986754966887418 $321 61.986754966887418 $255 $385 forward 7 unknown #
vertex $-1 $382 $386 #
straight-curve $-1 -61.986754966887418 -31.060156024363877 0 0 0 -1 I I #
face $-1 $387 $388 $14 $-1 $389 reversed single #
loop $-1 $-1 $390 $259 #
plane-surface $-1 0 -31.060156024363877 0 0 1 0 0 0 1 forward_v I I I I #
coedge $-1 $342 $329 $390 $391 reversed $260 $-1 #
coedge $-1 $392 $262 $393 $394 reversed $189 $-1 #
coedge $-1 $262 $392 $395 $396 reversed $189 $-1 #
coedge $-1 $326 $397 $262 $330 forward $260 $-1 #
edge $-1 $398 -31.060156024363877 $399 31.060156024363877 $329 $400 forward 7 unknown #
coedge $-1 $263 $275 $401 $402 forward $117 $-1 #
coedge $-1 $403 $264 $263 $333 reversed $203 $-1 #
edge $-1 $404 -31.060156024363877 $266 12.472498126031368 $332 $279 forward 7 unknown #
straight-curve $-1 61.986754966887418 12.472498126031368 88.604652392475685 0 0 1 I I #
point $-1 61.986754966887418 12.472498126031368 10.553552265915561 #
straight-curve $-1 61.986754966887418 9.0011593721579857 3.1911320541114137 0 -1 0 I I #
point $-1 61.986754966887418 12.472498126031368 3.1911320541114208 #
coedge $-1 $273 $403 $405 $406 reversed $203 $-1 #
coedge $-1 $407 $276 $273 $340 forward $345 $-1 #
edge $-1 $278 -10.553552265915561 $408 10.553552265915561 $273 $409 forward 7 unknown #
plane-surface $-1 61.986754966887418 0 0 -1 0 0 0 0 1 forward_v I I I I #
coedge $-1 $397 $326 $275 $343 reversed $260 $-1 #
edge $-1 $346 -31.060156024363877 $410 31.060156024363877 $275 $411 forward 7 unknown #
coedge $-1 $276 $393 $397 $412 forward $345 $-1 #
loop $-1 $-1 $344 $413 #
vertex $-1 $343 $414 #
straight-curve $-1 0 31.060156024363877 10.553552265915561 -1 0 0 I I #
point $-1 61.986754966887418 31.060156024363877 10.553552265915561 #
face $-1 $415 $416 $15 $-1 $417 forward single #
loop $-1 $-1 $418 $280 #
plane-surface $-1 -56.22626818190038 0 4.9035835608420433 0 0 1 1 0 0 forward_v I I I I #
coedge $-1 $290 $419 $283 $355 forward $281 $-1 #
coedge $-1 $354 $283 $420 $421 reversed $210 $-1 #
coedge $-1 $283 $353 $356 $422 forward $210 $-1 #
edge $-1 $423 -20.3100038353505 $424 -14.557850906530078 $352 $425 forward 7 unknown #
coedge $-1 $358 $284 $354 $422 reversed $212 $-1 #
edge $-1 $424 3.4713387538733826 $291 14.530979990442589 $290 $426 forward 7 unknown #
coedge $-1 $285 $356 $361 $427 reversed $212 $-1 #
vertex $-1 $427 $428 #
straight-curve $-1 -14.338957750439349 23.532139362600574 100.8835920676246 0.61566146476048833 0 -0.78801076186113728 I I #
coedge $-1 $420 $287 $358 $427 forward $363 $-1 #
coedge $-1 $287 $429 $289 $366 reversed $363 $-1 #
loop $-1 $-1 $420 $430 #
straight-curve $-1 61.986754966887418 23.532139362600574 88.604652392475685 0 0 -1 I I #
coedge $-1 $431 $289 $432 $433 forward $281 $-1 #
edge $-1 $292 23.532139362600574 $434 31.060156024363877 $362 $435 forward 7 unknown #
point $-1 56.234602038066996 23.532139362600574 10.553552265915556 #
point $-1 61.986754966887418 23.532139362600574 10.553552265915561 #
point $-1 57.338489988047769 18.002318744315971 5.4877567844934596 #
loop $-1 $-1 $314 $300 #
plane-surface $-1 61.986754966887418 0 0 -1 0 0 0 0 1 forward_v I I I I #
coedge $-1 $303 $302 $316 $382 forward $167 $-1 #
coedge $-1 $306 $304 $310 $379 reversed $370 $-1 #
vertex $-1 $305 $436 #
vertex $-1 $315 $437 #
straight-curve $-1 61.986754966887418 0 -10.553552265915561 0 -1 0 I I #
straight-curve $-1 61.986754966887418 0 10.553552265915561 0 1 0 I I #
point $-1 61.986754966887418 -31.060156024363877 10.553552265915561 #
edge $-1 $311 -10.553552265915561 $374 10.553552265915561 $373 $438 forward 7 unknown #
point $-1 61.986754966887418 31.060156024363877 10.553552265915561 #
straight-curve $-1 61.986754966887418 -31.060156024363877 0 0 0 -1 I I #
edge $-1 $321 -31.060156024363877 $318 31.060156024363877 $316 $439 forward 7 unknown #
straight-curve $-1 0 31.060156024363877 -10.553552265915561 1 0 0 I I #
point $-1 -61.986754966887418 31.060156024363877 -10.553552265915561 #
straight-curve $-1 0 -31.060156024363877 -10.553552265915561 -1 0 0 I I #
point $-1 -61.986754966887418 -31.060156024363877 -10.553552265915561 #
face $-1 $413 $440 $14 $-1 $441 reversed single #
loop $-1 $-1 $405 $323 #
plane-surface $-1 0 0 -10.553552265915561 0 0 1 1 0 0 forward_v I I I I #
coedge $-1 $395 $401 $326 $391 forward $324 $-1 #
edge $-1 $410 -6.6892683092261587 $399 -1.0392996041526423 $390 $442 forward 7 unknown #
coedge $-1 $328 $327 $443 $444 reversed $189 $-1 #
coedge $-1 $344 $445 $327 $394 forward $345 $-1 #
edge $-1 $446 -33.873620875937227 $398 -22.352647305963153 $393 $447 forward 7 unknown #
coedge $-1 $448 $390 $328 $396 forward $324 $-1 #
edge $-1 $399 22.352647305963153 $449 33.873620875937227 $395 $450 forward 7 unknown #
coedge $-1 $329 $342 $344 $412 reversed $260 $-1 #
vertex $-1 $394 $451 #
vertex $-1 $396 $452 #
straight-curve $-1 -50.465781396913343 0 4.9035835608420433 0 -1 0 I I #
coedge $-1 $390 $453 $331 $402 reversed $324 $-1 #
edge $-1 $410 -50.465781396913343 $404 61.986754966887418 $401 $454 forward 7 unknown #
coedge $-1 $338 $332 $453 $455 forward $203 $-1 #
vertex $-1 $333 $456 #
coedge $-1 $457 $458 $338 $406 forward $388 $-1 #
edge $-1 $408 -31.060156024363877 $459 31.060156024363877 $338 $460 forward 7 unknown #
coedge $-1 $445 $339 $458 $461 reversed $345 $-1 #
vertex $-1 $406 $462 #
straight-curve $-1 61.986754966887418 31.060156024363877 0 0 0 -1 I I #
vertex $-1 $402 $463 #
straight-curve $-1 -50.465781396913343 0 10.553552265915561 0 -1 0 I I #
edge $-1 $398 1.0392996041526423 $346 6.6892683092261587 $344 $464 forward 7 unknown #
face $-1 $274 $345 $14 $-1 $465 reversed single #
point $-1 -50.465781396913343 31.060156024363877 10.55355226591556 #
face $-1 $466 $467 $15 $-1 $468 reversed single #
loop $-1 $-1 $469 $349 #
plane-surface $-1 -50.465781396913343 0 7.7285679133788019 -1 0 0 0 0 1 forward_v I I I I #
coedge $-1 $470 $471 $472 $473 reversed $350 $-1 #
coedge $-1 $352 $474 $475 $476 forward $281 $-1 #
coedge $-1 $475 $361 $353 $421 forward $363 $-1 #
edge $-1 $477 -85.413520338364265 $423 -78.051100126560129 $420 $478 forward 7 unknown #
edge $-1 $477 -123.97350993377485 $424 -114.63046467584532 $354 $479 forward 7 unknown #
vertex $-1 $421 $480 #
vertex $-1 $357 $481 #
straight-curve $-1 41.676751131536918 12.472498126031368 10.553552265915556 -1 0 0 I I #
straight-curve $-1 56.234602038066996 9.0011593721579857 10.553552265915563 0 1 0 I I #
edge $-1 $359 -14.530979990442589 $477 -3.4713387538733826 $361 $482 forward 7 unknown #
point $-1 61.986754966887418 23.532139362600574 3.1911320541114208 #
coedge $-1 $362 $483 $484 $485 reversed $363 $-1 #
face $-1 $-1 $363 $15 $-1 $486 reversed single #
coedge $-1 $474 $365 $487 $488 forward $281 $-1 #
coedge $-1 $484 $489 $365 $433 reversed $490 $-1 #
edge $-1 $434 -61.986754966887418 $491 50.465781396913343 $432 $492 forward 7 unknown #
vertex $-1 $366 $493 #
straight-curve $-1 61.986754966887418 0 10.553552265915561 0 1 0 I I #
point $-1 61.986754966887418 31.060156024363877 -10.553552265915561 #
point $-1 61.986754966887418 -31.060156024363877 -10.553552265915561 #
straight-curve $-1 61.986754966887418 31.060156024363877 0 0 0 -1 I I #
straight-curve $-1 -61.986754966887418 0 -10.553552265915561 0 1 0 I I #
loop $-1 $-1 $443 $387 #
plane-surface $-1 -61.986754966887418 0 0 1 0 0 0 0 -1 forward_v I I I I #
straight-curve $-1 -50.465781396913343 -31.060156024363877 3.8642839566894009 0 0 -1 I I #
coedge $-1 $494 $495 $392 $444 forward $440 $-1 #
edge $-1 $449 -31.060156024363877 $446 31.060156024363877 $443 $496 forward 7 unknown #
coedge $-1 $393 $407 $494 $497 reversed $345 $-1 #
vertex $-1 $497 $498 #
straight-curve $-1 -28.11313409095019 31.060156024363877 4.9035835608420433 1 0 0 I I #
coedge $-1 $499 $395 $495 $500 forward $324 $-1 #
vertex $-1 $500 $501 #
straight-curve $-1 -28.11313409095019 -31.060156024363877 4.9035835608420433 -1 0 0 I I #
point $-1 -50.465781396913343 31.060156024363877 4.9035835608420433 #
point $-1 -50.465781396913343 -31.060156024363877 4.9035835608420433 #
coedge $-1 $401 $499 $403 $455 reversed $324 $-1 #
straight-curve $-1 0 -31.060156024363877 10.553552265915561 1 0 0 I I #
edge $-1 $404 -10.553552265915561 $459 10.553552265915561 $403 $502 forward 7 unknown #
point $-1 61.986754966887418 -31.060156024363877 10.553552265915561 #
coedge $-1 $503 $405 $499 $504 forward $388 $-1 #
coedge $-1 $405 $503 $407 $461 forward $388 $-1 #
vertex $-1 $455 $505 #
straight-curve $-1 61.986754966887418 0 -10.553552265915561 0 -1 0 I I #
edge $-1 $506 -61.986754966887418 $408 61.986754966887418 $407 $507 forward 7 unknown #
point $-1 61.986754966887418 31.060156024363877 -10.553552265915561 #
point $-1 -50.465781396913343 -31.060156024363877 10.55355226591556 #
straight-curve $-1 -50.465781396913343 31.060156024363877 3.8642839566894009 0 0 1 I I #
plane-surface $-1 0 31.060156024363877 0 0 -1 0 0 0 -1 forward_v I I I I #
face $-1 $508 $509 $15 $-1 $510 reversed single #
loop $-1 $-1 $511 $415 #
plane-surface $-1 0 -31.060156024363877 0 0 1 0 0 0 1 forward_v I I I I #
coedge $-1 $487 $472 $511 $512 reversed $416 $-1 #
coedge $-1 $513 $418 $514 $515 reversed $350 $-1 #
coedge $-1 $418 $513 $516 $517 reversed $350 $-1 #
coedge $-1 $469 $518 $418 $473 forward $416 $-1 #
edge $-1 $519 -31.060156024363877 $520 31.060156024363877 $472 $521 forward 7 unknown #
coedge $-1 $419 $431 $522 $523 forward $281 $-1 #
coedge $-1 $524 $420 $419 $476 reversed $363 $-1 #
edge $-1 $525 -31.060156024363877 $423 12.472498126031368 $475 $435 forward 7 unknown #
vertex $-1 $427 $526 #
straight-curve $-1 61.986754966887418 12.472498126031368 88.604652392475685 0 0 1 I I #
straight-curve $-1 -14.338957750439349 12.472498126031368 100.8835920676246 -0.61566146476048833 0 0.78801076186113728 I I #
point $-1 61.986754966887418 12.472498126031368 10.553552265915561 #
point $-1 56.234602038066996 12.472498126031368 10.553552265915556 #
straight-curve $-1 61.986754966887418 9.0011593721579857 3.1911320541114137 0 -1 0 I I #
coedge $-1 $429 $524 $527 $528 reversed $363 $-1 #
coedge $-1 $529 $432 $429 $485 forward $490 $-1 #
edge $-1 $434 -10.553552265915561 $530 10.553552265915561 $429 $531 forward 7 unknown #
plane-surface $-1 61.986754966887418 0 0 -1 0 0 0 0 1 forward_v I I I I #
coedge $-1 $518 $469 $431 $488 reversed $416 $-1 #
edge $-1 $491 -31.060156024363877 $532 31.060156024363877 $431 $533 forward 7 unknown #
coedge $-1 $432 $514 $518 $534 forward $490 $-1 #
loop $-1 $-1 $489 $535 #
vertex $-1 $488 $536 #
straight-curve $-1 0 31.060156024363877 10.553552265915561 -1 0 0 I I #
point $-1 61.986754966887418 31.060156024363877 10.553552265915561 #
coedge $-1 $537 $443 $445 $497 forward $440 $-1 #
coedge $-1 $443 $537 $448 $500 reversed $440 $-1 #
straight-curve $-1 -61.986754966887418 0 4.9035835608420433 0 1 0 I I #
edge $-1 $446 -4.9035835608420433 $506 10.553552265915561 $445 $538 forward 7 unknown #
point $-1 -61.986754966887418 31.060156024363877 4.9035835608420433 #
coedge $-1 $453 $448 $457 $504 reversed $324 $-1 #
edge $-1 $449 -4.9035835608420433 $539 10.553552265915561 $495 $540 forward 7 unknown #
point $-1 -61.986754966887418 -31.060156024363877 4.9035835608420433 #
straight-curve $-1 61.986754966887418 -31.060156024363877 0 0 0 -1 I I #
coedge $-1 $458 $457 $537 $541 forward $388 $-1 #
edge $-1 $459 -61.986754966887418 $539 61.986754966887418 $499 $542 forward 7 unknown #
point $-1 61.986754966887418 -31.060156024363877 -10.553552265915561 #
vertex $-1 $461 $543 #
straight-curve $-1 0 31.060156024363877 -10.553552265915561 1 0 0 I I #
face $-1 $535 $544 $15 $-1 $545 reversed single #
loop $-1 $-1 $527 $466 #
plane-surface $-1 0 0 -10.553552265915561 0 0 1 1 0 0 forward_v I I I I #
coedge $-1 $516 $522 $469 $512 forward $467 $-1 #
edge $-1 $532 -6.6892683092261587 $520 -1.0392996041526423 $511 $546 forward 7 unknown #
coedge $-1 $471 $470 $547 $548 reversed $350 $-1 #
coedge $-1 $489 $549 $470 $515 forward $490 $-1 #
edge $-1 $550 -33.873620875937227 $519 -22.352647305963153 $514 $551 forward 7 unknown #
coedge $-1 $552 $511 $471 $517 forward $467 $-1 #
edge $-1 $520 22.352647305963153 $553 33.873620875937227 $516 $554 forward 7 unknown #
coedge $-1 $472 $487 $489 $534 reversed $416 $-1 #
vertex $-1 $515 $555 #
vertex $-1 $517 $556 #
straight-curve $-1 -50.465781396913343 0 4.9035835608420433 0 -1 0 I I #
coedge $-1 $511 $557 $474 $523 reversed $467 $-1 #
edge $-1 $532 -50.465781396913343 $525 61.986754966887418 $522 $558 forward 7 unknown #
coedge $-1 $483 $475 $557 $559 forward $363 $-1 #
vertex $-1 $476 $560 #
point $-1 61.986754966887418 12.472498126031368 3.1911320541114208 #
coedge $-1 $561 $562 $483 $528 forward $509 $-1 #
edge $-1 $530 -31.060156024363877 $563 31.060156024363877 $483 $564 forward 7 unknown #
coedge $-1 $549 $484 $562 $565 reversed $490 $-1 #
vertex $-1 $528 $566 #
straight-curve $-1 61.986754966887418 31.060156024363877 0 0 0 -1 I I #
vertex $-1 $523 $567 #
straight-curve $-1 -50.465781396913343 0 10.553552265915561 0 -1 0 I I #
edge $-1 $519 1.0392996041526423 $491 6.6892683092261587 $489 $568 forward 7 unknown #
face $-1 $430 $490 $15 $-1 $569 reversed single #
point $-1 -50.465781396913343 31.060156024363877 10.55355226591556 #
coedge $-1 $495 $494 $503 $541 reversed $440 $-1 #
straight-curve $-1 -61.986754966887418 31.060156024363877 0 0 0 -1 I I #
vertex $-1 $541 $570 #
straight-curve $-1 -61.986754966887418 -31.060156024363877 0 0 0 -1 I I #
edge $-1 $539 -31.060156024363877 $506 31.060156024363877 $537 $571 forward 7 unknown #
straight-curve $-1 0 -31.060156024363877 -10.553552265915561 -1 0 0 I I #
point $-1 -61.986754966887418 31.060156024363877 -10.553552265915561 #
loop $-1 $-1 $547 $508 #
plane-surface $-1 -61.986754966887418 0 0 1 0 0 0 0 -1 forward_v I I I I #
straight-curve $-1 -50.465781396913343 -31.060156024363877 3.8642839566894009 0 0 -1 I I #
coedge $-1 $572 $573 $513 $548 forward $544 $-1 #
edge $-1 $553 -31.060156024363877 $550 31.060156024363877 $547 $574 forward 7 unknown #
coedge $-1 $514 $529 $572 $575 reversed $490 $-1 #
vertex $-1 $575 $576 #
straight-curve $-1 -28.11313409095019 31.060156024363877 4.9035835608420433 1 0 0 I I #
coedge $-1 $577 $516 $573 $578 forward $467 $-1 #
vertex $-1 $578 $579 #
straight-curve $-1 -28.11313409095019 -31.060156024363877 4.9035835608420433 -1 0 0 I I #
point $-1 -50.465781396913343 31.060156024363877 4.9035835608420433 #
point $-1 -50.465781396913343 -31.060156024363877 4.9035835608420433 #
coedge $-1 $522 $577 $524 $559 reversed $467 $-1 #
straight-curve $-1 0 -31.060156024363877 10.553552265915561 1 0 0 I I #
edge $-1 $525 -10.553552265915561 $563 10.553552265915561 $524 $580 forward 7 unknown #
point $-1 61.986754966887418 -31.060156024363877 10.553552265915561 #
coedge $-1 $581 $527 $577 $582 forward $509 $-1 #
coedge $-1 $527 $581 $529 $565 forward $509 $-1 #
vertex $-1 $559 $583 #
straight-curve $-1 61.986754966887418 0 -10.553552265915561 0 -1 0 I I #
edge $-1 $584 -61.986754966887418 $530 61.986754966887418 $529 $585 forward 7 unknown #
point $-1 61.986754966887418 31.060156024363877 -10.553552265915561 #
point $-1 -50.465781396913343 -31.060156024363877 10.55355226591556 #
straight-curve $-1 -50.465781396913343 31.060156024363877 3.8642839566894009 0 0 1 I I #
plane-surface $-1 0 31.060156024363877 0 0 -1 0 0 0 -1 forward_v I I I I #
point $-1 -61.986754966887418 -31.060156024363877 -10.553552265915561 #
straight-curve $-1 -61.986754966887418 0 -10.553552265915561 0 1 0 I I #
coedge $-1 $586 $547 $549 $575 forward $544 $-1 #
coedge $-1 $547 $586 $552 $578 reversed $544 $-1 #
straight-curve $-1 -61.986754966887418 0 4.9035835608420433 0 1 0 I I #
edge $-1 $550 -4.9035835608420433 $584 10.553552265915561 $549 $587 forward 7 unknown #
point $-1 -61.986754966887418 31.060156024363877 4.9035835608420433 #
coedge $-1 $557 $552 $561 $582 reversed $467 $-1 #
edge $-1 $553 -4.9035835608420433 $588 10.553552265915561 $573 $589 forward 7 unknown #
point $-1 -61.986754966887418 -31.060156024363877 4.9035835608420433 #
straight-curve $-1 61.986754966887418 -31.060156024363877 0 0 0 -1 I I #
coedge $-1 $562 $561 $586 $590 forward $509 $-1 #
edge $-1 $563 -61.986754966887418 $588 61.986754966887418 $577 $591 forward 7 unknown #
point $-1 61.986754966887418 -31.060156024363877 -10.553552265915561 #
vertex $-1 $565 $592 #
straight-curve $-1 0 31.060156024363877 -10.553552265915561 1 0 0 I I #
coedge $-1 $573 $572 $581 $590 reversed $544 $-1 #
straight-curve $-1 -61.986754966887418 31.060156024363877 0 0 0 -1 I I #
vertex $-1 $590 $593 #
straight-curve $-1 -61.986754966887418 -31.060156024363877 0 0 0 -1 I I #
edge $-1 $588 -31.060156024363877 $584 31.060156024363877 $586 $594 forward 7 unknown #
straight-curve $-1 0 -31.060156024363877 -10.553552265915561 -1 0 0 I I #
point $-1 -61.986754966887418 31.060156024363877 -10.553552265915561 #
point $-1 -61.986754966887418 -31.060156024363877 -10.553552265915561 #
straight-curve $-1 -61.986754966887418 0 -10.553552265915561 0 1 0 I I #
End-of-ACIS-data 