500 0 9 0           
7 Unknown 11 ACIS 5.0 NT 24 Thu Mar 25 20:34:00 1999 
-1 9.9999999999999995e-007 1e-010 
body $-1 $9 $-1 $10 #
body $-1 $11 $-1 $12 #
body $-1 $13 $-1 $14 #
body $-1 $15 $-1 $16 #
body $-1 $17 $-1 $18 #
body $-1 $19 $-1 $20 #
body $-1 $21 $-1 $22 #
body $-1 $23 $-1 $24 #
body $-1 $25 $-1 $26 #
lump $-1 $-1 $27 $0 #
transform $-1 1 0 0 0 1 0 0 0 1 79.970702230903044 43.554465008773228 9.1435532501861676 1 rotate no_reflect no_shear #
lump $-1 $-1 $28 $1 #
transform $-1 1 0 0 0 1 0 0 0 1 79.970702230903044 43.554465008773228 9.1435532501861676 1 rotate no_reflect no_shear #
lump $-1 $-1 $29 $2 #
transform $-1 1 0 0 0 1 0 0 0 1 79.970702230903044 43.554465008773228 9.1435532501861676 1 rotate no_reflect no_shear #
lump $-1 $-1 $30 $3 #
transform $-1 1 0 0 0 1 0 0 0 1 79.970702230903044 43.554465008773228 9.1435532501861676 1 rotate no_reflect no_shear #
lump $-1 $-1 $31 $4 #
transform $-1 1 0 0 0 1 0 0 0 1 79.970702230903044 43.554465008773228 9.1435532501861676 1 rotate no_reflect no_shear #
lump $-1 $-1 $32 $5 #
transform $-1 1 0 0 0 1 0 0 0 1 79.970702230903044 43.554465008773228 9.1435532501861676 1 rotate no_reflect no_shear #
lump $-1 $-1 $33 $6 #
transform $-1 1 0 0 0 1 0 0 0 1 79.970702230903044 43.554465008773228 9.1435532501861676 1 rotate no_reflect no_shear #
lump $-1 $-1 $34 $7 #
transform $-1 1 0 0 0 1 0 0 0 1 79.970702230903044 43.554465008773228 9.1435532501861676 1 rotate no_reflect no_shear #
lump $-1 $-1 $35 $8 #
transform $-1 1 0 0 0 1 0 0 0 1 79.970702230903044 43.554465008773228 9.1435532501861676 1 rotate no_reflect no_shear #
shell $-1 $-1 $-1 $36 $-1 $9 #
shell $-1 $-1 $-1 $37 $-1 $11 #
shell $-1 $-1 $-1 $38 $-1 $13 #
shell $-1 $-1 $-1 $39 $-1 $15 #
shell $-1 $-1 $-1 $40 $-1 $17 #
shell $-1 $-1 $-1 $41 $-1 $19 #
shell $-1 $-1 $-1 $42 $-1 $21 #
shell $-1 $-1 $-1 $43 $-1 $23 #
shell $-1 $-1 $-1 $44 $-1 $25 #
face $-1 $45 $46 $27 $-1 $47 forward single #
face $-1 $48 $49 $28 $-1 $50 forward single #
face $-1 $51 $52 $29 $-1 $53 forward single #
face $-1 $54 $55 $30 $-1 $56 reversed single #
face $-1 $57 $58 $31 $-1 $59 forward single #
face $-1 $60 $61 $32 $-1 $62 forward single #
face $-1 $63 $64 $33 $-1 $65 reversed single #
face $-1 $66 $67 $34 $-1 $68 forward single #
face $-1 $69 $70 $35 $-1 $71 forward single #
face $-1 $72 $73 $27 $-1 $74 reversed single #
loop $-1 $-1 $75 $36 #
plane-surface $-1 0 0 9.1435532501861676 0 0 1 1 0 0 forward_v I I I I #
face $-1 $76 $77 $28 $-1 $78 reversed single #
loop $-1 $-1 $79 $37 #
plane-surface $-1 -74.051616741871271 0 4.6347573025399198 0 0 1 1 0 0 forward_v I I I I #
face $-1 $80 $81 $29 $-1 $82 reversed single #
loop $-1 $-1 $83 $38 #
plane-surface $-1 74.051616741871271 0 4.6347573025399198 0 0 1 1 0 0 forward_v I I I I #
face $-1 $84 $85 $30 $-1 $86 reversed single #
loop $-1 $-1 $87 $39 #
plane-surface $-1 -16.237695335541076 -154.65910170636968 120.7591008680313 1 0 0 0 0.69465837861970381 -0.71933979245794832 forward_v I I I I #
face $-1 $88 $89 $31 $-1 $90 forward single #
loop $-1 $91 $92 $40 #
cone-surface $-1 -11.598353811100765 -41.42774835800811 7.0655488173855892 0 0.69465837861970381 -0.71933979245794832 0.5 0 0 1 I I 0 1 0.5 forward I I I I #
face $-1 $93 $94 $32 $-1 $95 forward single #
loop $-1 $96 $97 $41 #
cone-surface $-1 -4.6393415244403116 -41.42774835800811 7.0655488173855892 0 0.69465837861970381 -0.71933979245794832 0.5 0 0 1 I I 0 1 0.5 forward I I I I #
face $-1 $98 $99 $33 $-1 $100 reversed single #
loop $-1 $-1 $101 $42 #
plane-surface $-1 16.237695335541062 -154.65910170636968 120.7591008680313 -1 0 0 0 -0.69465837861970381 0.71933979245794832 forward_v I I I I #
face $-1 $102 $103 $34 $-1 $104 forward single #
loop $-1 $105 $106 $43 #
cone-surface $-1 4.6393415244402973 -41.42774835800811 7.0655488173855892 0 0.69465837861970381 -0.71933979245794832 0.5 0 0 1 I I 0 1 0.5 forward I I I I #
face $-1 $107 $108 $35 $-1 $109 forward single #
loop $-1 $110 $111 $44 #
cone-surface $-1 11.59835381110075 -41.42774835800811 7.0655488173855892 0 0.69465837861970381 -0.71933979245794832 0.5 0 0 1 I I 0 1 0.5 forward I I I I #
face $-1 $112 $113 $27 $-1 $114 reversed single #
loop $-1 $-1 $115 $45 #
plane-surface $-1 0 0 -9.1435532501861676 0 0 1 1 0 0 forward_v I I I I #
coedge $-1 $116 $117 $118 $119 forward $46 $-1 #
face $-1 $120 $121 $28 $-1 $122 reversed single #
loop $-1 $-1 $123 $48 #
plane-surface $-1 -74.051616741871271 0 0.74723333789123192 0 0 1 1 0 0 forward_v I I I I #
coedge $-1 $124 $125 $126 $127 forward $49 $-1 #
face $-1 $128 $129 $29 $-1 $130 reversed single #
loop $-1 $-1 $131 $51 #
plane-surface $-1 74.051616741871271 0 0.74723333789123192 0 0 1 1 0 0 forward_v I I I I #
coedge $-1 $132 $133 $134 $135 reversed $52 $-1 #
face $-1 $136 $137 $30 $-1 $138 reversed single #
loop $-1 $-1 $139 $54 #
plane-surface $-1 -8.1188476677705381 -43.554465008773207 5.7068841770429373 0 -0.69465837861970381 0.71933979245794832 1 0 0 forward_v I I I I #
coedge $-1 $140 $141 $142 $143 reversed $55 $-1 #
face $-1 $-1 $144 $31 $-1 $145 forward single #
loop $-1 $146 $147 $57 #
cone-surface $-1 -11.598353811100765 -40.906754574043333 6.5260439730421282 0 0.69465837861970381 -0.71933979245794832 0.25 0 0 1 I I -0.70710678118654746 0.70710678118654746 0.25 forward I I I I #
loop $-1 $-1 $148 $40 #
coedge $-1 $92 $92 $149 $150 reversed $58 $-1 #
face $-1 $-1 $151 $32 $-1 $152 forward single #
loop $-1 $153 $154 $60 #
cone-surface $-1 -4.6393415244403116 -40.906754574043333 6.5260439730421282 0 0.69465837861970381 -0.71933979245794832 0.25 0 0 1 I I -0.70710678118654746 0.70710678118654746 0.25 forward I I I I #
loop $-1 $-1 $155 $41 #
coedge $-1 $97 $97 $156 $157 reversed $61 $-1 #
face $-1 $158 $159 $33 $-1 $160 reversed single #
loop $-1 $-1 $161 $63 #
plane-surface $-1 -8.1188476677705381 -43.554465008773207 5.7068841770429373 0 -0.69465837861970381 0.71933979245794832 1 0 0 forward_v I I I I #
coedge $-1 $162 $163 $164 $165 reversed $64 $-1 #
face $-1 $-1 $166 $34 $-1 $167 forward single #
loop $-1 $168 $169 $66 #
cone-surface $-1 4.6393415244402973 -40.906754574043333 6.5260439730421282 0 0.69465837861970381 -0.71933979245794832 0.25 0 0 1 I I -0.70710678118654746 0.70710678118654746 0.25 forward I I I I #
loop $-1 $-1 $170 $43 #
coedge $-1 $106 $106 $171 $172 reversed $67 $-1 #
face $-1 $-1 $173 $35 $-1 $174 forward single #
loop $-1 $175 $176 $69 #
cone-surface $-1 11.59835381110075 -40.906754574043333 6.5260439730421282 0 0.69465837861970381 -0.71933979245794832 0.25 0 0 1 I I -0.70710678118654746 0.70710678118654746 0.25 forward I I I I #
loop $-1 $-1 $177 $44 #
coedge $-1 $111 $111 $178 $179 reversed $70 $-1 #
face $-1 $180 $181 $27 $-1 $182 reversed single #
loop $-1 $-1 $183 $72 #
plane-surface $-1 0 -43.554465008773228 0 0 1 0 0 0 1 forward_v I I I I #
coedge $-1 $184 $185 $186 $187 forward $73 $-1 #
coedge $-1 $188 $75 $189 $190 forward $46 $-1 #
coedge $-1 $75 $188 $191 $192 forward $46 $-1 #
coedge $-1 $193 $194 $75 $119 reversed $195 $-1 #
edge $-1 $196 -43.554465008773228 $197 43.554465008773228 $118 $198 forward 7 unknown #
face $-1 $199 $200 $28 $-1 $201 reversed single #
loop $-1 $-1 $202 $76 #
plane-surface $-1 -68.132531252839499 0 2.6909953202155759 -1 0 0 0 0 1 forward_v I I I I #
coedge $-1 $203 $204 $205 $206 forward $77 $-1 #
coedge $-1 $207 $79 $208 $209 reversed $49 $-1 #
coedge $-1 $79 $207 $210 $211 reversed $49 $-1 #
coedge $-1 $202 $212 $79 $127 reversed $121 $-1 #
edge $-1 $213 -43.554465008773228 $214 43.554465008773228 $126 $215 forward 7 unknown #
face $-1 $216 $217 $29 $-1 $218 reversed single #
loop $-1 $-1 $219 $80 #
plane-surface $-1 68.132531252839499 0 2.6909953202155759 1 0 0 0 0 -1 forward_v I I I I #
coedge $-1 $220 $221 $222 $223 reversed $81 $-1 #
coedge $-1 $224 $83 $225 $226 reversed $52 $-1 #
coedge $-1 $83 $224 $227 $228 reversed $52 $-1 #
coedge $-1 $229 $230 $83 $135 forward $231 $-1 #
edge $-1 $232 -43.554465008773228 $233 43.554465008773228 $134 $234 forward 7 unknown #
face $-1 $235 $236 $30 $-1 $237 forward single #
loop $-1 $-1 $238 $84 #
plane-surface $-1 0 -154.65910170636968 120.7591008680313 -1 0 0 0 -0.69465837861970381 0.71933979245794832 forward_v I I I I #
coedge $-1 $239 $240 $241 $242 reversed $85 $-1 #
coedge $-1 $141 $87 $243 $244 reversed $55 $-1 #
coedge $-1 $87 $140 $239 $245 reversed $55 $-1 #
coedge $-1 $241 $246 $87 $143 forward $247 $-1 #
edge $-1 $248 51.235997183829483 $249 54.672666256972732 $142 $250 forward 7 unknown #
loop $-1 $-1 $149 $88 #
plane-surface $-1 -8.1188476677705381 -43.554465008773207 5.7068841770429373 0 -0.69465837861970381 0.71933979245794832 1 0 0 forward_v I I I I #
loop $-1 $-1 $251 $57 #
coedge $-1 $147 $147 $148 $252 reversed $89 $-1 #
coedge $-1 $148 $148 $147 $252 forward $91 $-1 #
coedge $-1 $149 $149 $92 $150 forward $144 $-1 #
edge $-1 $253 -2.286193120571004e-015 $253 6.2831853071795978 $149 $254 forward 7 unknown #
loop $-1 $-1 $156 $93 #
plane-surface $-1 -8.1188476677705381 -43.554465008773207 5.7068841770429373 0 -0.69465837861970381 0.71933979245794832 1 0 0 forward_v I I I I #
loop $-1 $-1 $255 $60 #
coedge $-1 $154 $154 $155 $256 reversed $94 $-1 #
coedge $-1 $155 $155 $154 $256 forward $96 $-1 #
coedge $-1 $156 $156 $97 $157 forward $151 $-1 #
edge $-1 $257 -2.286193120571004e-015 $257 6.2831853071795978 $156 $258 forward 7 unknown #
face $-1 $259 $260 $33 $-1 $261 forward single #
loop $-1 $-1 $262 $98 #
plane-surface $-1 0 -43.554465008773228 0 0 1 0 0 0 1 forward_v I I I I #
coedge $-1 $263 $264 $265 $266 reversed $99 $-1 #
coedge $-1 $163 $101 $267 $268 reversed $64 $-1 #
coedge $-1 $101 $162 $269 $270 reversed $64 $-1 #
coedge $-1 $271 $262 $101 $165 forward $159 $-1 #
edge $-1 $272 -54.672666256972732 $273 -51.235997183829483 $164 $274 forward 7 unknown #
loop $-1 $-1 $171 $102 #
plane-surface $-1 -8.1188476677705381 -43.554465008773207 5.7068841770429373 0 -0.69465837861970381 0.71933979245794832 1 0 0 forward_v I I I I #
loop $-1 $-1 $275 $66 #
coedge $-1 $169 $169 $170 $276 reversed $103 $-1 #
coedge $-1 $170 $170 $169 $276 forward $105 $-1 #
coedge $-1 $171 $171 $106 $172 forward $166 $-1 #
edge $-1 $277 -2.286193120571004e-015 $277 6.2831853071795978 $171 $278 forward 7 unknown #
loop $-1 $-1 $178 $107 #
plane-surface $-1 -8.1188476677705381 -43.554465008773207 5.7068841770429373 0 -0.69465837861970381 0.71933979245794832 1 0 0 forward_v I I I I #
loop $-1 $-1 $279 $69 #
coedge $-1 $176 $176 $177 $280 reversed $108 $-1 #
coedge $-1 $177 $177 $176 $280 forward $110 $-1 #
coedge $-1 $178 $178 $111 $179 forward $173 $-1 #
edge $-1 $281 -2.286193120571004e-015 $281 6.2831853071795978 $178 $282 forward 7 unknown #
face $-1 $283 $284 $27 $-1 $285 reversed single #
loop $-1 $-1 $286 $112 #
plane-surface $-1 -79.970702230903044 0 0 1 0 0 0 0 -1 forward_v I I I I #
coedge $-1 $287 $191 $288 $289 forward $113 $-1 #
coedge $-1 $290 $115 $287 $291 forward $73 $-1 #
coedge $-1 $115 $290 $292 $293 forward $73 $-1 #
coedge $-1 $194 $193 $115 $187 reversed $195 $-1 #
edge $-1 $294 -43.554465008773228 $295 43.554465008773228 $186 $296 forward 7 unknown #
coedge $-1 $117 $116 $297 $298 forward $46 $-1 #
coedge $-1 $299 $300 $116 $190 reversed $284 $-1 #
edge $-1 $197 -79.970702230903044 $301 79.970702230903044 $189 $302 forward 7 unknown #
coedge $-1 $183 $303 $117 $192 reversed $113 $-1 #
edge $-1 $304 -79.970702230903044 $196 79.970702230903044 $191 $305 forward 7 unknown #
coedge $-1 $186 $118 $303 $306 forward $195 $-1 #
coedge $-1 $118 $186 $299 $307 reversed $195 $-1 #
loop $-1 $-1 $193 $283 #
vertex $-1 $119 $308 #
vertex $-1 $119 $309 #
straight-curve $-1 79.970702230903044 0 9.1435532501861676 0 1 0 I I #
face $-1 $310 $311 $28 $-1 $312 reversed single #
loop $-1 $-1 $313 $120 #
plane-surface $-1 0 -43.554465008773228 0 0 1 0 0 0 1 forward_v I I I I #
coedge $-1 $205 $126 $314 $315 reversed $121 $-1 #
coedge $-1 $316 $123 $313 $317 reversed $77 $-1 #
coedge $-1 $123 $316 $318 $319 reversed $77 $-1 #
coedge $-1 $212 $202 $123 $206 reversed $121 $-1 #
edge $-1 $320 -43.554465008773228 $321 43.554465008773228 $205 $322 forward 7 unknown #
coedge $-1 $125 $124 $323 $324 reversed $49 $-1 #
coedge $-1 $325 $326 $124 $209 forward $327 $-1 #
edge $-1 $328 -42.944893859967408 $214 -31.106722881903863 $208 $329 forward 7 unknown #
coedge $-1 $330 $314 $125 $211 forward $200 $-1 #
edge $-1 $213 31.106722881903863 $331 42.944893859967408 $210 $332 forward 7 unknown #
coedge $-1 $126 $205 $325 $333 reversed $121 $-1 #
vertex $-1 $211 $334 #
vertex $-1 $209 $335 #
straight-curve $-1 -68.132531252839499 0 4.6347573025399198 0 1 0 I I #
face $-1 $336 $337 $29 $-1 $338 reversed single #
loop $-1 $-1 $227 $128 #
plane-surface $-1 0 -43.554465008773228 0 0 1 0 0 0 1 forward_v I I I I #
coedge $-1 $339 $340 $341 $342 reversed $129 $-1 #
coedge $-1 $343 $131 $344 $345 reversed $81 $-1 #
coedge $-1 $131 $343 $346 $347 reversed $81 $-1 #
coedge $-1 $230 $229 $131 $223 forward $231 $-1 #
edge $-1 $348 -43.554465008773228 $349 43.554465008773228 $222 $350 forward 7 unknown #
coedge $-1 $133 $132 $340 $351 forward $52 $-1 #
coedge $-1 $352 $341 $132 $226 forward $337 $-1 #
edge $-1 $353 31.106722881903863 $232 42.944893859967408 $225 $354 forward 7 unknown #
coedge $-1 $355 $356 $133 $228 forward $217 $-1 #
edge $-1 $233 -42.944893859967408 $357 -31.106722881903863 $227 $358 forward 7 unknown #
coedge $-1 $222 $134 $356 $359 forward $231 $-1 #
coedge $-1 $134 $222 $352 $360 reversed $231 $-1 #
loop $-1 $-1 $134 $336 #
vertex $-1 $360 $361 #
vertex $-1 $359 $362 #
straight-curve $-1 79.970702230903044 0 4.6347573025399198 0 -1 0 I I #
face $-1 $-1 $247 $30 $-1 $363 reversed single #
loop $-1 $-1 $364 $136 #
plane-surface $-1 0 0 9.1435532501861676 0 0 1 1 0 0 forward_v I I I I #
coedge $-1 $365 $366 $367 $368 reversed $137 $-1 #
coedge $-1 $369 $139 $141 $245 forward $85 $-1 #
coedge $-1 $139 $369 $365 $370 forward $85 $-1 #
coedge $-1 $367 $142 $139 $242 forward $247 $-1 #
edge $-1 $249 -12.178271501655807 $371 4.0594238338852691 $241 $372 forward 7 unknown #
coedge $-1 $373 $374 $140 $244 forward $236 $-1 #
edge $-1 $375 -37.333860767322179 $248 -33.775085844411613 $243 $376 forward 7 unknown #
edge $-1 $249 -2.9524203284164893e-014 $375 4.9472793806531783 $141 $377 forward 7 unknown #
coedge $-1 $142 $367 $373 $378 reversed $247 $-1 #
loop $-1 $-1 $367 $235 #
vertex $-1 $378 $379 #
vertex $-1 $143 $380 #
straight-curve $-1 -16.237695335541076 -43.554465008773228 60.379550434015648 0 0 -1 I I #
coedge $-1 $251 $251 $-1 $381 reversed $146 $-1 #
edge $-1 $382 0 $382 6.2831853071796004 $147 $383 forward 7 unknown #
vertex $-1 $150 $384 #
ellipse-curve $-1 -11.598353811100765 -41.775077547317942 7.4252187136145436 0 -0.69465837861970381 0.71933979245794832 0.5 0 0 1 I I #
coedge $-1 $255 $255 $-1 $385 reversed $153 $-1 #
edge $-1 $386 0 $386 6.2831853071796004 $154 $387 forward 7 unknown #
vertex $-1 $157 $388 #
ellipse-curve $-1 -4.6393415244403116 -41.775077547317942 7.4252187136145436 0 -0.69465837861970381 0.71933979245794832 0.5 0 0 1 I I #
face $-1 $-1 $389 $33 $-1 $390 forward single #
loop $-1 $-1 $391 $158 #
plane-surface $-1 0 -154.65910170636968 120.7591008680313 -1 0 0 0 -0.69465837861970381 0.71933979245794832 forward_v I I I I #
coedge $-1 $164 $392 $264 $393 forward $159 $-1 #
coedge $-1 $267 $161 $394 $395 reversed $99 $-1 #
coedge $-1 $161 $267 $262 $393 reversed $99 $-1 #
coedge $-1 $391 $396 $161 $266 forward $260 $-1 #
edge $-1 $397 -4.9472793806531783 $398 2.9524203284164893e-014 $265 $399 forward 7 unknown #
coedge $-1 $264 $263 $162 $268 forward $99 $-1 #
edge $-1 $400 -4.9472793806531783 $272 2.9524203284164893e-014 $162 $401 forward 7 unknown #
coedge $-1 $394 $402 $163 $270 forward $389 $-1 #
edge $-1 $273 33.775085844411613 $400 37.333860767322179 $269 $403 forward 7 unknown #
coedge $-1 $392 $164 $402 $404 reversed $159 $-1 #
vertex $-1 $165 $405 #
vertex $-1 $270 $406 #
straight-curve $-1 16.237695335541062 -43.554465008773228 60.379550434015648 0 0 1 I I #
coedge $-1 $275 $275 $-1 $407 reversed $168 $-1 #
edge $-1 $408 0 $408 6.2831853071796004 $169 $409 forward 7 unknown #
vertex $-1 $172 $410 #
ellipse-curve $-1 4.6393415244402973 -41.775077547317942 7.4252187136145436 0 -0.69465837861970381 0.71933979245794832 0.5 0 0 1 I I #
coedge $-1 $279 $279 $-1 $411 reversed $175 $-1 #
edge $-1 $412 0 $412 6.2831853071796004 $176 $413 forward 7 unknown #
vertex $-1 $179 $414 #
ellipse-curve $-1 11.59835381110075 -41.775077547317942 7.4252187136145436 0 -0.69465837861970381 0.71933979245794832 0.5 0 0 1 I I #
face $-1 $-1 $195 $27 $-1 $415 reversed single #
loop $-1 $-1 $299 $180 #
plane-surface $-1 0 43.554465008773228 0 0 -1 0 0 0 -1 forward_v I I I I #
coedge $-1 $416 $297 $300 $417 forward $181 $-1 #
coedge $-1 $303 $183 $184 $291 reversed $113 $-1 #
coedge $-1 $297 $416 $183 $289 reversed $181 $-1 #
edge $-1 $304 -9.1435532501861676 $418 9.1435532501861676 $288 $419 forward 7 unknown #
coedge $-1 $185 $184 $416 $420 forward $73 $-1 #
edge $-1 $295 -79.970702230903044 $418 79.970702230903044 $287 $421 forward 7 unknown #
coedge $-1 $300 $299 $185 $293 reversed $284 $-1 #
edge $-1 $422 -79.970702230903044 $294 79.970702230903044 $292 $423 forward 7 unknown #
vertex $-1 $187 $424 #
vertex $-1 $306 $425 #
straight-curve $-1 79.970702230903044 0 -9.1435532501861676 0 -1 0 I I #
coedge $-1 $286 $288 $188 $298 reversed $181 $-1 #
edge $-1 $301 -43.554465008773228 $304 43.554465008773228 $297 $426 forward 7 unknown #
coedge $-1 $292 $189 $194 $307 forward $284 $-1 #
coedge $-1 $189 $292 $286 $417 reversed $284 $-1 #
vertex $-1 $190 $427 #
straight-curve $-1 0 43.554465008773228 9.1435532501861676 -1 0 0 I I #
coedge $-1 $191 $287 $193 $306 reversed $113 $-1 #
vertex $-1 $298 $428 #
straight-curve $-1 0 -43.554465008773228 9.1435532501861676 1 0 0 I I #
edge $-1 $196 -9.1435532501861676 $295 9.1435532501861676 $193 $429 forward 7 unknown #
edge $-1 $197 -9.1435532501861676 $294 9.1435532501861676 $194 $430 forward 7 unknown #
point $-1 79.970702230903044 -43.554465008773228 9.1435532501861676 #
point $-1 79.970702230903044 43.554465008773228 9.1435532501861676 #
face $-1 $-1 $327 $28 $-1 $431 reversed single #
loop $-1 $-1 $432 $199 #
plane-surface $-1 -79.970702230903044 0 0 1 0 0 0 0 -1 forward_v I I I I #
coedge $-1 $314 $330 $203 $317 forward $200 $-1 #
coedge $-1 $210 $313 $202 $315 forward $200 $-1 #
edge $-1 $321 -0.59826432221655601 $213 3.2892596424321319 $314 $433 forward 7 unknown #
coedge $-1 $204 $203 $432 $434 reversed $77 $-1 #
edge $-1 $435 -42.944893859967408 $321 -31.106722881903863 $313 $436 forward 7 unknown #
coedge $-1 $326 $325 $204 $319 forward $327 $-1 #
edge $-1 $320 31.106722881903863 $437 42.944893859967408 $318 $438 forward 7 unknown #
vertex $-1 $319 $439 #
vertex $-1 $317 $440 #
straight-curve $-1 -68.132531252839499 0 0.74723333789123192 0 -1 0 I I #
coedge $-1 $441 $442 $207 $324 forward $311 $-1 #
edge $-1 $331 -43.554465008773228 $328 43.554465008773228 $323 $443 forward 7 unknown #
coedge $-1 $318 $208 $212 $333 forward $327 $-1 #
coedge $-1 $208 $318 $441 $444 reversed $327 $-1 #
loop $-1 $-1 $318 $310 #
vertex $-1 $444 $445 #
straight-curve $-1 -37.025808370935636 43.554465008773228 4.6347573025399198 1 0 0 I I #
coedge $-1 $313 $210 $442 $446 forward $200 $-1 #
vertex $-1 $446 $447 #
straight-curve $-1 -37.025808370935636 -43.554465008773228 4.6347573025399198 -1 0 0 I I #
edge $-1 $214 -3.2892596424321319 $320 0.59826432221655601 $325 $448 forward 7 unknown #
point $-1 -68.132531252839499 -43.554465008773228 4.6347573025399198 #
point $-1 -68.132531252839499 43.554465008773228 4.6347573025399198 #
face $-1 $-1 $231 $29 $-1 $449 reversed single #
loop $-1 $-1 $225 $216 #
plane-surface $-1 0 43.554465008773228 0 0 -1 0 0 0 -1 forward_v I I I I #
coedge $-1 $450 $219 $343 $451 reversed $129 $-1 #
coedge $-1 $219 $450 $224 $351 reversed $129 $-1 #
coedge $-1 $225 $346 $219 $342 forward $337 $-1 #
edge $-1 $452 -0.59826432221655601 $353 3.2892596424321319 $341 $453 forward 7 unknown #
coedge $-1 $221 $220 $339 $451 forward $81 $-1 #
coedge $-1 $356 $355 $220 $345 forward $217 $-1 #
edge $-1 $454 31.106722881903863 $348 42.944893859967408 $344 $455 forward 7 unknown #
coedge $-1 $341 $352 $221 $347 forward $337 $-1 #
edge $-1 $349 -42.944893859967408 $452 -31.106722881903863 $346 $456 forward 7 unknown #
vertex $-1 $223 $457 #
vertex $-1 $223 $458 #
straight-curve $-1 79.970702230903044 0 0.74723333789123192 0 1 0 I I #
edge $-1 $353 -43.554465008773228 $357 43.554465008773228 $340 $459 forward 7 unknown #
coedge $-1 $346 $225 $230 $360 forward $337 $-1 #
vertex $-1 $226 $460 #
straight-curve $-1 37.025808370935636 43.554465008773228 4.6347573025399198 1 0 0 I I #
coedge $-1 $344 $227 $450 $461 forward $217 $-1 #
coedge $-1 $227 $344 $229 $359 reversed $217 $-1 #
vertex $-1 $228 $462 #
straight-curve $-1 37.025808370935636 -43.554465008773228 4.6347573025399198 -1 0 0 I I #
edge $-1 $233 -4.6347573025399198 $348 -0.74723333789123192 $229 $463 forward 7 unknown #
edge $-1 $232 -4.6347573025399198 $349 -0.74723333789123192 $230 $464 forward 7 unknown #
point $-1 79.970702230903044 43.554465008773228 4.6347573025399198 #
point $-1 79.970702230903044 -43.554465008773228 4.6347573025399198 #
plane-surface $-1 0 -43.554465008773228 0 0 1 0 0 0 1 forward_v I I I I #
coedge $-1 $374 $373 $366 $465 forward $236 $-1 #
coedge $-1 $366 $238 $240 $370 reversed $137 $-1 #
coedge $-1 $238 $365 $364 $465 reversed $137 $-1 #
coedge $-1 $246 $241 $238 $368 forward $247 $-1 #
edge $-1 $371 -54.672666256972732 $466 -51.235997183829483 $367 $467 forward 7 unknown #
coedge $-1 $240 $239 $374 $468 reversed $85 $-1 #
edge $-1 $469 -4.9472793806531783 $371 2.9524203284164893e-014 $365 $470 forward 7 unknown #
vertex $-1 $242 $471 #
straight-curve $-1 -4.0594238338852691 -43.554465008773228 5.7068841770429168 1 0 0 I I #
coedge $-1 $364 $243 $246 $378 forward $236 $-1 #
coedge $-1 $243 $364 $369 $468 forward $236 $-1 #
vertex $-1 $244 $472 #
straight-curve $-1 -16.237695335541076 -77.329550853184841 9.1435532501861658 0 -1 0 I I #
straight-curve $-1 -16.237695335541076 -43.554465008773207 5.7068841770429373 0 0.71933979245794832 0.69465837861970381 I I #
edge $-1 $248 -16.237695335541076 $466 0 $246 $473 forward 7 unknown #
point $-1 -16.237695335541076 -43.554465008773228 9.1435532501861676 #
point $-1 -16.237695335541076 -43.554465008773228 5.7068841770429168 #
edge $-1 $474 1 $474 0 $251 $-1 forward 7 unknown #
vertex $-1 $252 $475 #
ellipse-curve $-1 -11.598353811100765 -41.080419168698256 6.7058789211566152 0 -0.69465837861970381 0.71933979245794832 0.5 0 0 1 I I #
point $-1 -11.098353811100765 -41.775077547317963 7.425218713614564 #
edge $-1 $476 1 $476 0 $255 $-1 forward 7 unknown #
vertex $-1 $256 $477 #
ellipse-curve $-1 -4.6393415244403116 -41.080419168698256 6.7058789211566152 0 -0.69465837861970381 0.71933979245794832 0.5 0 0 1 I I #
point $-1 -4.1393415244403116 -41.775077547317963 7.425218713614564 #
loop $-1 $-1 $394 $259 #
plane-surface $-1 0 0 9.1435532501861676 0 0 1 1 0 0 forward_v I I I I #
coedge $-1 $396 $265 $392 $478 reversed $260 $-1 #
coedge $-1 $262 $271 $391 $478 forward $159 $-1 #
edge $-1 $398 4.0594238338852691 $272 20.297119169426331 $262 $479 forward 7 unknown #
coedge $-1 $480 $269 $263 $395 forward $389 $-1 #
edge $-1 $400 -20.297119169426331 $397 -4.0594238338852691 $394 $481 forward 7 unknown #
coedge $-1 $265 $391 $480 $482 reversed $260 $-1 #
vertex $-1 $395 $483 #
vertex $-1 $393 $484 #
straight-curve $-1 0 -43.554465008773207 5.7068841770429373 0 -0.71933979245794832 -0.69465837861970381 I I #
vertex $-1 $270 $485 #
straight-curve $-1 16.237695335541062 -43.554465008773207 5.7068841770429373 0 -0.71933979245794832 -0.69465837861970381 I I #
coedge $-1 $269 $480 $271 $404 forward $389 $-1 #
straight-curve $-1 16.237695335541062 -77.329550853184841 9.1435532501861658 0 1 0 I I #
edge $-1 $486 0 $273 16.237695335541062 $271 $487 forward 7 unknown #
point $-1 16.237695335541062 -43.554465008773228 5.7068841770429168 #
point $-1 16.237695335541062 -43.554465008773228 9.1435532501861676 #
edge $-1 $488 1 $488 0 $275 $-1 forward 7 unknown #
vertex $-1 $276 $489 #
ellipse-curve $-1 4.6393415244402973 -41.080419168698256 6.7058789211566152 0 -0.69465837861970381 0.71933979245794832 0.5 0 0 1 I I #
point $-1 5.1393415244402973 -41.775077547317963 7.425218713614564 #
edge $-1 $490 1 $490 0 $279 $-1 forward 7 unknown #
vertex $-1 $280 $491 #
ellipse-curve $-1 11.59835381110075 -41.080419168698256 6.7058789211566152 0 -0.69465837861970381 0.71933979245794832 0.5 0 0 1 I I #
point $-1 12.09835381110075 -41.775077547317963 7.425218713614564 #
plane-surface $-1 79.970702230903044 0 0 -1 0 0 0 0 1 forward_v I I I I #
coedge $-1 $288 $286 $290 $420 reversed $181 $-1 #
edge $-1 $301 -9.1435532501861676 $422 9.1435532501861676 $300 $492 forward 7 unknown #
vertex $-1 $420 $493 #
straight-curve $-1 -79.970702230903044 -43.554465008773228 0 0 0 -1 I I #
edge $-1 $418 -43.554465008773228 $422 43.554465008773228 $416 $494 forward 7 unknown #
straight-curve $-1 0 -43.554465008773228 -9.1435532501861676 -1 0 0 I I #
vertex $-1 $293 $495 #
straight-curve $-1 0 43.554465008773228 -9.1435532501861676 1 0 0 I I #
point $-1 79.970702230903044 43.554465008773228 -9.1435532501861676 #
point $-1 79.970702230903044 -43.554465008773228 -9.1435532501861676 #
straight-curve $-1 -79.970702230903044 0 9.1435532501861676 0 -1 0 I I #
point $-1 -79.970702230903044 43.554465008773228 9.1435532501861676 #
point $-1 -79.970702230903044 -43.554465008773228 9.1435532501861676 #
straight-curve $-1 79.970702230903044 -43.554465008773228 0 0 0 -1 I I #
straight-curve $-1 79.970702230903044 43.554465008773228 0 0 0 -1 I I #
plane-surface $-1 0 43.554465008773228 0 0 -1 0 0 0 -1 forward_v I I I I #
coedge $-1 $442 $441 $316 $434 forward $311 $-1 #
straight-curve $-1 -68.132531252839499 -43.554465008773228 1.3454976601077879 0 0 1 I I #
edge $-1 $437 -43.554465008773228 $435 43.554465008773228 $432 $496 forward 7 unknown #
vertex $-1 $317 $497 #
straight-curve $-1 -37.025808370935636 -43.554465008773228 0.74723333789123192 1 0 0 I I #
vertex $-1 $319 $498 #
straight-curve $-1 -37.025808370935636 43.554465008773228 0.74723333789123192 -1 0 0 I I #
point $-1 -68.132531252839499 43.554465008773228 0.74723333789123192 #
point $-1 -68.132531252839499 -43.554465008773228 0.74723333789123192 #
coedge $-1 $432 $323 $326 $444 forward $311 $-1 #
coedge $-1 $323 $432 $330 $446 reversed $311 $-1 #
straight-curve $-1 -79.970702230903044 0 4.6347573025399198 0 1 0 I I #
edge $-1 $328 -4.6347573025399198 $437 -0.74723333789123192 $326 $499 forward 7 unknown #
point $-1 -79.970702230903044 43.554465008773228 4.6347573025399198 #
edge $-1 $331 -4.6347573025399198 $435 -0.74723333789123192 $442 $500 forward 7 unknown #
point $-1 -79.970702230903044 -43.554465008773228 4.6347573025399198 #
straight-curve $-1 -68.132531252839499 43.554465008773228 1.3454976601077879 0 0 -1 I I #
plane-surface $-1 79.970702230903044 0 0 -1 0 0 0 0 1 forward_v I I I I #
coedge $-1 $340 $339 $355 $461 reversed $129 $-1 #
edge $-1 $454 -43.554465008773228 $452 43.554465008773228 $339 $501 forward 7 unknown #
vertex $-1 $347 $502 #
straight-curve $-1 68.132531252839499 43.554465008773228 1.3454976601077879 0 0 1 I I #
vertex $-1 $345 $503 #
straight-curve $-1 37.025808370935636 -43.554465008773228 0.74723333789123192 1 0 0 I I #
straight-curve $-1 37.025808370935636 43.554465008773228 0.74723333789123192 -1 0 0 I I #
point $-1 79.970702230903044 -43.554465008773228 0.74723333789123192 #
point $-1 79.970702230903044 43.554465008773228 0.74723333789123192 #
straight-curve $-1 68.132531252839499 0 4.6347573025399198 0 -1 0 I I #
point $-1 68.132531252839499 43.554465008773228 4.6347573025399198 #
edge $-1 $357 -3.2892596424321319 $454 0.59826432221655601 $355 $504 forward 7 unknown #
point $-1 68.132531252839499 -43.554465008773228 4.6347573025399198 #
straight-curve $-1 79.970702230903044 -43.554465008773228 0 0 0 -1 I I #
straight-curve $-1 79.970702230903044 43.554465008773228 0 0 0 -1 I I #
edge $-1 $466 33.775085844411613 $469 37.333860767322179 $364 $505 forward 7 unknown #
vertex $-1 $465 $506 #
straight-curve $-1 0 -43.554465008773228 60.379550434015648 0 0 1 I I #
edge $-1 $469 -4.0594238338852691 $375 12.178271501655807 $374 $507 forward 7 unknown #
vertex $-1 $468 $508 #
straight-curve $-1 0 -43.554465008773207 5.7068841770429373 0 -0.71933979245794832 -0.69465837861970381 I I #
point $-1 0 -43.554465008773228 5.7068841770429168 #
point $-1 -16.237695335541076 -39.995690085862662 9.1435532501861676 #
straight-curve $-1 0 -43.554465008773228 9.1435532501861676 1 0 0 I I #
vertex $-1 $381 $509 #
point $-1 -11.098353811100765 -41.080419168698256 6.7058789211566152 #
vertex $-1 $385 $510 #
point $-1 -4.1393415244403116 -41.080419168698256 6.7058789211566152 #
edge $-1 $486 51.235997183829483 $398 54.672666256972732 $392 $511 forward 7 unknown #
straight-curve $-1 -4.0594238338852691 -43.554465008773228 5.7068841770429168 1 0 0 I I #
coedge $-1 $402 $394 $396 $482 forward $389 $-1 #
straight-curve $-1 -4.0594238338852691 -39.995690085862662 9.1435532501861676 -1 0 0 I I #
edge $-1 $397 -37.333860767322179 $486 -33.775085844411613 $480 $512 forward 7 unknown #
point $-1 0 -39.995690085862662 9.1435532501861676 #
point $-1 0 -43.554465008773228 5.7068841770429168 #
point $-1 16.237695335541062 -39.995690085862662 9.1435532501861676 #
vertex $-1 $404 $513 #
straight-curve $-1 0 -43.554465008773228 9.1435532501861676 1 0 0 I I #
vertex $-1 $407 $514 #
point $-1 5.1393415244402973 -41.080419168698256 6.7058789211566152 #
vertex $-1 $411 $515 #
point $-1 12.09835381110075 -41.080419168698256 6.7058789211566152 #
straight-curve $-1 -79.970702230903044 43.554465008773228 0 0 0 -1 I I #
point $-1 -79.970702230903044 -43.554465008773228 -9.1435532501861676 #
straight-curve $-1 -79.970702230903044 0 -9.1435532501861676 0 1 0 I I #
point $-1 -79.970702230903044 43.554465008773228 -9.1435532501861676 #
straight-curve $-1 -79.970702230903044 0 0.74723333789123192 0 -1 0 I I #
point $-1 -79.970702230903044 -43.554465008773228 0.74723333789123192 #
point $-1 -79.970702230903044 43.554465008773228 0.74723333789123192 #
straight-curve $-1 -79.970702230903044 43.554465008773228 0 0 0 -1 I I #
straight-curve $-1 -79.970702230903044 -43.554465008773228 0 0 0 -1 I I #
straight-curve $-1 68.132531252839499 0 0.74723333789123192 0 1 0 I I #
point $-1 68.132531252839499 43.554465008773228 0.74723333789123192 #
point $-1 68.132531252839499 -43.554465008773228 0.74723333789123192 #
straight-curve $-1 68.132531252839499 -43.554465008773228 1.3454976601077879 0 0 -1 I I #
straight-curve $-1 0 -77.329550853184841 9.1435532501861658 0 1 0 I I #
point $-1 0 -43.554465008773228 9.1435532501861676 #
straight-curve $-1 -4.0594238338852691 -39.995690085862662 9.1435532501861676 -1 0 0 I I #
point $-1 0 -39.995690085862662 9.1435532501861676 #
point $-1 -11.598353811100765 -40.73308997938841 6.3462090249276413 #
point $-1 -4.6393415244403116 -40.73308997938841 6.3462090249276413 #
straight-curve $-1 0 -43.554465008773228 60.379550434015648 0 0 -1 I I #
straight-curve $-1 0 -77.329550853184841 9.1435532501861658 0 -1 0 I I #
point $-1 0 -43.554465008773228 9.1435532501861676 #
point $-1 4.6393415244402973 -40.73308997938841 6.3462090249276413 #
point $-1 11.59835381110075 -40.73308997938841 6.3462090249276413 #
End-of-ACIS-data 