500 0 7 0           
7 Unknown 11 ACIS 5.0 NT 24 Thu Mar 25 15:31:58 1999 
-1 9.9999999999999995e-007 1e-010 
body $-1 $7 $-1 $8 #
body $-1 $9 $-1 $10 #
body $-1 $11 $-1 $12 #
body $-1 $13 $-1 $14 #
body $-1 $15 $-1 $16 #
body $-1 $17 $-1 $18 #
body $-1 $19 $-1 $20 #
lump $-1 $-1 $21 $0 #
transform $-1 1 0 0 0 1 0 0 0 1 66.501052888576922 31.028615597936522 10.545108201454552 1 rotate no_reflect no_shear #
lump $-1 $-1 $22 $1 #
transform $-1 1 0 0 0 1 0 0 0 1 66.501052888576922 31.028615597936522 10.545108201454552 1 rotate no_reflect no_shear #
lump $-1 $-1 $23 $2 #
transform $-1 1 0 0 0 1 0 0 0 1 66.501052888576922 31.028615597936522 10.545108201454552 1 rotate no_reflect no_shear #
lump $-1 $-1 $24 $3 #
transform $-1 1 0 0 0 1 0 0 0 1 66.501052888576922 31.028615597936522 10.545108201454552 1 rotate no_reflect no_shear #
lump $-1 $-1 $25 $4 #
transform $-1 1 0 0 0 1 0 0 0 1 66.501052888576922 31.028615597936522 10.545108201454552 1 rotate no_reflect no_shear #
lump $-1 $-1 $26 $5 #
transform $-1 1 0 0 0 1 0 0 0 1 66.501052888576922 31.028615597936522 10.545108201454552 1 rotate no_reflect no_shear #
lump $-1 $-1 $27 $6 #
transform $-1 1 0 0 0 1 0 0 0 1 66.501052888576922 31.028615597936522 10.545108201454552 1 rotate no_reflect no_shear #
shell $-1 $-1 $-1 $28 $-1 $7 #
shell $-1 $-1 $-1 $29 $-1 $9 #
shell $-1 $-1 $-1 $30 $-1 $11 #
shell $-1 $-1 $-1 $31 $-1 $13 #
shell $-1 $-1 $-1 $32 $-1 $15 #
shell $-1 $-1 $-1 $33 $-1 $17 #
shell $-1 $-1 $-1 $34 $-1 $19 #
face $-1 $35 $36 $21 $-1 $37 forward single #
face $-1 $38 $39 $22 $-1 $40 reversed single #
face $-1 $41 $42 $23 $-1 $43 reversed single #
face $-1 $44 $45 $24 $-1 $46 reversed single #
face $-1 $47 $48 $25 $-1 $49 forward single #
face $-1 $50 $51 $26 $-1 $52 reversed single #
face $-1 $53 $54 $27 $-1 $55 forward single #
face $-1 $56 $57 $21 $-1 $58 reversed single #
loop $-1 $-1 $59 $28 #
plane-surface $-1 0 0 10.545108201454552 0 0 1 1 0 0 forward_v I I I I #
face $-1 $60 $61 $22 $-1 $62 reversed single #
loop $-1 $-1 $63 $29 #
plane-surface $-1 -63.832288009820793 -20.721815835557173 0 0 -1 0 0 0 -1 forward_v I I I I #
face $-1 $64 $65 $23 $-1 $66 reversed single #
loop $-1 $-1 $67 $30 #
plane-surface $-1 -63.832288009820793 20.721815835557177 0 0 1 0 0 0 1 forward_v I I I I #
face $-1 $68 $69 $24 $-1 $70 reversed single #
loop $-1 $-1 $71 $31 #
plane-surface $-1 -178.04600554323173 8.7974129670533721 77.501444021247693 0 1 0 -0.83867057594974714 0 0.54463902268945019 forward_v I I I I #
face $-1 $72 $73 $25 $-1 $74 forward single #
loop $-1 $75 $76 $32 #
cone-surface $-1 -64.012238462834475 14.759614401305271 7.343873244607023 0.83867057594974714 0 -0.54463902268945019 0.54463902268945019 0 0.83867057594974714 1 I I 0 1 1 forward I I I I #
face $-1 $77 $78 $26 $-1 $79 reversed single #
loop $-1 $-1 $80 $33 #
plane-surface $-1 53.380323822140497 -1.7814405065480834 189.1897180227997 0 -1 0 -0.6560590369687036 0 -0.75470957328743171 forward_v I I I I #
face $-1 $81 $82 $27 $-1 $83 forward single #
loop $-1 $84 $85 $34 #
cone-surface $-1 60.692411303800654 -5.5557593332109612 5.3165719683503054 -0.6560590369687036 0 -0.75470957328743171 0.75470957328743171 0 -0.6560590369687036 1 I I 0 1 1 forward I I I I #
face $-1 $86 $87 $21 $-1 $88 reversed single #
loop $-1 $-1 $89 $35 #
plane-surface $-1 0 0 -10.545108201454552 0 0 1 1 0 0 forward_v I I I I #
coedge $-1 $90 $91 $92 $93 forward $36 $-1 #
face $-1 $94 $95 $22 $-1 $96 forward single #
loop $-1 $-1 $97 $38 #
plane-surface $-1 -61.163523131064665 -25.875215716746848 0 -1 0 0 0 0 1 forward_v I I I I #
coedge $-1 $98 $99 $100 $101 forward $39 $-1 #
face $-1 $102 $103 $23 $-1 $104 reversed single #
loop $-1 $-1 $105 $41 #
plane-surface $-1 -61.163523131064665 25.875215716746851 0 -1 0 0 0 0 1 forward_v I I I I #
coedge $-1 $106 $107 $108 $109 reversed $42 $-1 #
face $-1 $110 $111 $24 $-1 $112 forward single #
loop $-1 $-1 $113 $44 #
plane-surface $-1 -66.501052888576922 14.759614401305271 5.0633071151397502 -0.83867057594974714 0 0.54463902268945019 0.54463902268945019 0 0.83867057594974714 forward_v I I I I #
coedge $-1 $114 $115 $116 $117 reversed $45 $-1 #
face $-1 $-1 $118 $25 $-1 $119 forward single #
loop $-1 $120 $121 $47 #
cone-surface $-1 -62.884050316772857 14.759614401305271 6.6112193195721733 0.83867057594974714 0 -0.54463902268945019 0.2723195113447251 0 0.41933528797487357 1 I I -0.70710678118654746 0.70710678118654746 0.5 forward I I I I #
loop $-1 $-1 $122 $32 #
coedge $-1 $76 $76 $123 $124 reversed $48 $-1 #
face $-1 $125 $126 $26 $-1 $127 reversed single #
loop $-1 $-1 $128 $50 #
plane-surface $-1 -33.876909608828697 -5.5557593332109612 88.811755525394062 0.6560590369687036 0 0.75470957328743171 0.75470957328743171 0 -0.6560590369687036 forward_v I I I I #
coedge $-1 $129 $130 $131 $132 reversed $51 $-1 #
face $-1 $-1 $133 $27 $-1 $134 forward single #
loop $-1 $135 $136 $53 #
cone-surface $-1 59.726983200096456 -5.5557593332109612 4.2059740021172036 -0.6560590369687036 0 -0.75470957328743171 0.37735478664371586 0 -0.3280295184843518 1 I I -0.70710678118654746 0.70710678118654746 0.5 forward I I I I #
loop $-1 $-1 $137 $34 #
coedge $-1 $85 $85 $138 $139 reversed $54 $-1 #
face $-1 $140 $141 $21 $-1 $142 reversed single #
loop $-1 $-1 $143 $56 #
plane-surface $-1 0 -31.028615597936522 0 0 1 0 0 0 1 forward_v I I I I #
coedge $-1 $144 $145 $146 $147 forward $57 $-1 #
coedge $-1 $148 $59 $149 $150 forward $36 $-1 #
coedge $-1 $59 $148 $151 $152 forward $36 $-1 #
coedge $-1 $153 $154 $59 $93 reversed $155 $-1 #
edge $-1 $156 -31.028615597936522 $157 31.028615597936522 $92 $158 forward 7 unknown #
face $-1 $159 $160 $22 $-1 $161 reversed single #
loop $-1 $-1 $162 $60 #
plane-surface $-1 0 0 10.545108201454552 0 0 1 1 0 0 forward_v I I I I #
coedge $-1 $163 $164 $165 $166 reversed $61 $-1 #
coedge $-1 $167 $63 $168 $169 reversed $39 $-1 #
coedge $-1 $63 $167 $170 $171 reversed $39 $-1 #
coedge $-1 $164 $163 $63 $101 reversed $61 $-1 #
edge $-1 $172 -10.545108201454552 $173 10.545108201454552 $100 $174 forward 7 unknown #
face $-1 $175 $176 $23 $-1 $177 reversed single #
loop $-1 $-1 $178 $64 #
plane-surface $-1 0 0 -10.545108201454552 0 0 1 1 0 0 forward_v I I I I #
coedge $-1 $179 $180 $181 $182 forward $65 $-1 #
coedge $-1 $181 $67 $183 $184 reversed $42 $-1 #
coedge $-1 $67 $181 $185 $186 reversed $42 $-1 #
coedge $-1 $187 $188 $67 $109 forward $176 $-1 #
edge $-1 $189 -10.545108201454552 $190 10.545108201454552 $108 $191 forward 7 unknown #
face $-1 $192 $193 $24 $-1 $194 forward single #
loop $-1 $-1 $116 $68 #
plane-surface $-1 0 0 10.545108201454552 0 0 1 1 0 0 forward_v I I I I #
coedge $-1 $195 $196 $197 $198 reversed $69 $-1 #
coedge $-1 $115 $71 $199 $200 reversed $45 $-1 #
coedge $-1 $71 $114 $195 $201 reversed $45 $-1 #
coedge $-1 $197 $202 $71 $117 forward $111 $-1 #
edge $-1 $203 22.521949883038943 $204 26.081873018350365 $116 $205 forward 7 unknown #
loop $-1 $-1 $123 $72 #
plane-surface $-1 -66.501052888576922 14.759614401305271 5.0633071151397502 -0.83867057594974714 0 0.54463902268945019 0.54463902268945019 0 0.83867057594974714 forward_v I I I I #
loop $-1 $-1 $206 $47 #
coedge $-1 $121 $121 $122 $207 reversed $73 $-1 #
coedge $-1 $122 $122 $121 $207 forward $75 $-1 #
coedge $-1 $123 $123 $76 $124 forward $118 $-1 #
edge $-1 $208 0 $208 6.2831853071796004 $123 $209 forward 7 unknown #
face $-1 $210 $211 $26 $-1 $212 reversed single #
loop $-1 $-1 $213 $77 #
plane-surface $-1 53.380323822140497 -9.3300781598738389 189.1897180227997 0 1 0 0.6560590369687036 0 0.75470957328743171 forward_v I I I I #
coedge $-1 $214 $215 $216 $217 reversed $78 $-1 #
coedge $-1 $130 $80 $218 $219 reversed $51 $-1 #
coedge $-1 $80 $129 $214 $220 reversed $51 $-1 #
coedge $-1 $216 $221 $80 $132 forward $222 $-1 #
edge $-1 $223 -39.810890977506673 $224 -29.468404978393821 $131 $225 forward 7 unknown #
loop $-1 $-1 $138 $81 #
plane-surface $-1 -33.876909608828697 -5.5557593332109612 88.811755525394062 0.6560590369687036 0 0.75470957328743171 0.75470957328743171 0 -0.6560590369687036 forward_v I I I I #
loop $-1 $-1 $226 $53 #
coedge $-1 $136 $136 $137 $227 reversed $82 $-1 #
coedge $-1 $137 $137 $136 $227 forward $84 $-1 #
coedge $-1 $138 $138 $85 $139 forward $133 $-1 #
edge $-1 $228 0 $228 6.2831853071796004 $138 $229 forward 7 unknown #
face $-1 $230 $231 $21 $-1 $232 reversed single #
loop $-1 $-1 $233 $86 #
plane-surface $-1 -66.501052888576922 0 0 1 0 0 0 0 -1 forward_v I I I I #
coedge $-1 $234 $151 $235 $236 forward $87 $-1 #
coedge $-1 $237 $89 $234 $238 forward $57 $-1 #
coedge $-1 $89 $237 $239 $240 forward $57 $-1 #
coedge $-1 $154 $153 $89 $147 reversed $155 $-1 #
edge $-1 $241 -31.028615597936522 $242 31.028615597936522 $146 $243 forward 7 unknown #
coedge $-1 $91 $90 $244 $245 forward $36 $-1 #
coedge $-1 $246 $247 $90 $150 reversed $231 $-1 #
edge $-1 $157 -66.501052888576922 $248 66.501052888576922 $149 $249 forward 7 unknown #
coedge $-1 $143 $250 $91 $152 reversed $87 $-1 #
edge $-1 $251 -66.501052888576922 $156 66.501052888576922 $151 $252 forward 7 unknown #
coedge $-1 $146 $92 $250 $253 forward $155 $-1 #
coedge $-1 $92 $146 $246 $254 reversed $155 $-1 #
loop $-1 $-1 $153 $230 #
vertex $-1 $93 $255 #
vertex $-1 $93 $256 #
straight-curve $-1 66.501052888576922 0 10.545108201454552 0 1 0 I I #
face $-1 $257 $258 $22 $-1 $259 reversed single #
loop $-1 $-1 $260 $94 #
plane-surface $-1 -66.501052888576922 0 0 1 0 0 0 0 -1 forward_v I I I I #
coedge $-1 $170 $261 $164 $262 forward $95 $-1 #
coedge $-1 $100 $97 $263 $264 reversed $61 $-1 #
coedge $-1 $97 $100 $162 $262 reversed $61 $-1 #
coedge $-1 $265 $266 $97 $166 forward $267 $-1 #
edge $-1 $268 -10.545108201454552 $269 10.545108201454552 $165 $270 forward 7 unknown #
coedge $-1 $99 $98 $260 $271 reversed $39 $-1 #
coedge $-1 $263 $272 $98 $169 forward $258 $-1 #
edge $-1 $273 -34.584908883666529 $173 -29.247379126154268 $168 $274 forward 7 unknown #
coedge $-1 $275 $162 $99 $171 forward $95 $-1 #
edge $-1 $172 29.247379126154268 $276 34.584908883666529 $170 $277 forward 7 unknown #
vertex $-1 $171 $278 #
vertex $-1 $169 $279 #
straight-curve $-1 -61.163523131064665 -20.721815835557173 0 0 0 -1 I I #
face $-1 $280 $281 $23 $-1 $282 forward single #
loop $-1 $-1 $108 $102 #
plane-surface $-1 -66.501052888576922 0 0 1 0 0 0 0 -1 forward_v I I I I #
coedge $-1 $183 $283 $179 $284 forward $103 $-1 #
coedge $-1 $285 $105 $178 $284 reversed $65 $-1 #
coedge $-1 $105 $285 $286 $287 reversed $65 $-1 #
coedge $-1 $107 $106 $105 $182 reversed $42 $-1 #
edge $-1 $288 -10.545108201454552 $289 10.545108201454552 $105 $290 forward 7 unknown #
coedge $-1 $291 $178 $106 $184 forward $103 $-1 #
edge $-1 $289 29.247379126154268 $189 34.584908883666529 $183 $292 forward 7 unknown #
coedge $-1 $286 $293 $107 $186 forward $281 $-1 #
edge $-1 $190 -34.584908883666529 $288 -29.247379126154268 $185 $294 forward 7 unknown #
coedge $-1 $295 $108 $293 $296 reversed $176 $-1 #
coedge $-1 $108 $295 $291 $297 reversed $176 $-1 #
vertex $-1 $297 $298 #
vertex $-1 $109 $299 #
straight-curve $-1 -66.501052888576922 20.721815835557177 0 0 0 1 I I #
face $-1 $-1 $300 $24 $-1 $301 reversed single #
loop $-1 $-1 $302 $110 #
plane-surface $-1 -63.832288009820793 20.721815835557177 0 0 1 0 0 0 1 forward_v I I I I #
coedge $-1 $303 $113 $115 $201 forward $69 $-1 #
coedge $-1 $113 $303 $302 $304 reversed $69 $-1 #
coedge $-1 $305 $116 $113 $198 forward $111 $-1 #
edge $-1 $204 1.4176057664007367 $306 13.342008634904541 $197 $307 forward 7 unknown #
coedge $-1 $308 $309 $114 $200 forward $300 $-1 #
edge $-1 $310 -33.687414895484096 $203 -28.205613809169293 $199 $311 forward 7 unknown #
edge $-1 $204 -6.5362983315671608 $310 0 $115 $312 forward 7 unknown #
coedge $-1 $116 $305 $308 $313 forward $111 $-1 #
vertex $-1 $117 $314 #
vertex $-1 $117 $315 #
straight-curve $-1 -89.023002771615865 8.7974129670533721 10.545108201454553 1 0 0 I I #
coedge $-1 $206 $206 $-1 $316 reversed $120 $-1 #
edge $-1 $317 0 $317 6.2831853071796004 $121 $318 forward 7 unknown #
vertex $-1 $124 $319 #
ellipse-curve $-1 -64.721091320921218 14.759614401305271 7.8042076582971465 -0.83867057594974714 0 0.54463902268945019 0.54463902268945019 0 0.83867057594974714 1 I I #
face $-1 $-1 $222 $26 $-1 $320 forward single #
loop $-1 $-1 $321 $125 #
plane-surface $-1 66.501052888576922 0 0 -1 0 0 0 0 1 forward_v I I I I #
coedge $-1 $322 $323 $324 $325 reversed $126 $-1 #
coedge $-1 $326 $128 $130 $220 forward $78 $-1 #
coedge $-1 $128 $326 $322 $327 forward $78 $-1 #
coedge $-1 $324 $131 $128 $217 forward $222 $-1 #
edge $-1 $224 -0.99643916005739719 $328 6.5521984932683583 $216 $329 forward 7 unknown #
coedge $-1 $330 $331 $129 $219 forward $211 $-1 #
edge $-1 $332 -93.040336916974965 $223 -84.049750809945294 $218 $333 forward 7 unknown #
edge $-1 $224 119.29817731887005 $332 133.00210577715382 $130 $334 forward 7 unknown #
coedge $-1 $131 $324 $330 $335 forward $222 $-1 #
loop $-1 $-1 $324 $210 #
vertex $-1 $219 $336 #
vertex $-1 $132 $337 #
straight-curve $-1 26.690161911070248 -1.7814405065480834 10.545108201454553 -1 0 0 I I #
coedge $-1 $226 $226 $-1 $338 reversed $135 $-1 #
edge $-1 $339 0 $339 6.2831853071796004 $136 $340 forward 7 unknown #
vertex $-1 $139 $341 #
ellipse-curve $-1 61.32980988902051 -5.5557593332109612 6.049815147939702 0.6560590369687036 0 0.75470957328743171 0.75470957328743171 0 -0.6560590369687036 1 I I #
face $-1 $-1 $155 $21 $-1 $342 reversed single #
loop $-1 $-1 $246 $140 #
plane-surface $-1 0 31.028615597936522 0 0 -1 0 0 0 -1 forward_v I I I I #
coedge $-1 $343 $244 $247 $344 forward $141 $-1 #
coedge $-1 $250 $143 $144 $238 reversed $87 $-1 #
coedge $-1 $244 $343 $143 $236 reversed $141 $-1 #
edge $-1 $251 -10.545108201454552 $345 10.545108201454552 $235 $346 forward 7 unknown #
coedge $-1 $145 $144 $343 $347 forward $57 $-1 #
edge $-1 $242 -66.501052888576922 $345 66.501052888576922 $234 $348 forward 7 unknown #
coedge $-1 $247 $246 $145 $240 reversed $231 $-1 #
edge $-1 $349 -66.501052888576922 $241 66.501052888576922 $239 $350 forward 7 unknown #
vertex $-1 $147 $351 #
vertex $-1 $253 $352 #
straight-curve $-1 66.501052888576922 0 -10.545108201454552 0 -1 0 I I #
coedge $-1 $233 $235 $148 $245 reversed $141 $-1 #
edge $-1 $248 -31.028615597936522 $251 31.028615597936522 $244 $353 forward 7 unknown #
coedge $-1 $239 $149 $154 $254 forward $231 $-1 #
coedge $-1 $149 $239 $233 $344 reversed $231 $-1 #
vertex $-1 $150 $354 #
straight-curve $-1 0 31.028615597936522 10.545108201454552 -1 0 0 I I #
coedge $-1 $151 $234 $153 $253 reversed $87 $-1 #
vertex $-1 $245 $355 #
straight-curve $-1 0 -31.028615597936522 10.545108201454552 1 0 0 I I #
edge $-1 $156 -10.545108201454552 $242 10.545108201454552 $153 $356 forward 7 unknown #
edge $-1 $157 -10.545108201454552 $241 10.545108201454552 $154 $357 forward 7 unknown #
point $-1 66.501052888576922 -31.028615597936522 10.545108201454552 #
point $-1 66.501052888576922 31.028615597936522 10.545108201454552 #
face $-1 $-1 $267 $22 $-1 $358 reversed single #
loop $-1 $-1 $263 $159 #
plane-surface $-1 0 0 -10.545108201454552 0 0 1 1 0 0 forward_v I I I I #
coedge $-1 $359 $360 $167 $271 forward $160 $-1 #
coedge $-1 $162 $275 $265 $361 forward $95 $-1 #
edge $-1 $269 -18.091007739563096 $172 -7.7842079771837493 $162 $362 forward 7 unknown #
coedge $-1 $363 $168 $163 $264 forward $258 $-1 #
edge $-1 $173 7.7842079771837493 $268 18.091007739563096 $263 $364 forward 7 unknown #
coedge $-1 $365 $165 $261 $361 reversed $267 $-1 #
coedge $-1 $165 $365 $363 $366 reversed $267 $-1 #
loop $-1 $-1 $165 $257 #
vertex $-1 $366 $367 #
vertex $-1 $166 $368 #
straight-curve $-1 -61.163523131064665 -31.028615597936522 0 0 0 1 I I #
edge $-1 $276 -10.545108201454552 $273 10.545108201454552 $260 $369 forward 7 unknown #
coedge $-1 $168 $363 $359 $370 forward $258 $-1 #
vertex $-1 $169 $371 #
straight-curve $-1 -31.916144004910397 -20.721815835557173 -10.545108201454552 1 0 0 I I #
coedge $-1 $261 $170 $360 $372 forward $95 $-1 #
vertex $-1 $372 $373 #
straight-curve $-1 -31.916144004910397 -20.721815835557173 10.545108201454552 -1 0 0 I I #
point $-1 -61.163523131064665 -20.721815835557173 10.545108201454552 #
point $-1 -61.163523131064665 -20.721815835557173 -10.545108201454552 #
face $-1 $-1 $374 $23 $-1 $375 reversed single #
loop $-1 $-1 $286 $175 #
plane-surface $-1 0 0 10.545108201454552 0 0 1 1 0 0 forward_v I I I I #
coedge $-1 $178 $291 $376 $377 forward $103 $-1 #
edge $-1 $378 -18.0910077395631 $289 -7.7842079771837511 $178 $379 forward 7 unknown #
coedge $-1 $180 $179 $380 $381 reversed $65 $-1 #
coedge $-1 $382 $185 $180 $287 forward $281 $-1 #
edge $-1 $288 7.7842079771837511 $383 18.0910077395631 $286 $384 forward 7 unknown #
vertex $-1 $186 $385 #
vertex $-1 $184 $386 #
straight-curve $-1 -61.163523131064665 20.721815835557177 0 0 0 -1 I I #
coedge $-1 $283 $183 $188 $297 forward $103 $-1 #
straight-curve $-1 -31.916144004910397 20.721815835557177 -10.545108201454552 -1 0 0 I I #
coedge $-1 $185 $382 $187 $296 forward $281 $-1 #
straight-curve $-1 -31.916144004910397 20.721815835557177 10.545108201454552 1 0 0 I I #
coedge $-1 $188 $187 $387 $388 forward $176 $-1 #
edge $-1 $389 -31.028615597936522 $190 -20.721815835557177 $187 $390 forward 7 unknown #
edge $-1 $189 20.721815835557177 $391 31.028615597936522 $188 $392 forward 7 unknown #
point $-1 -66.501052888576922 20.721815835557177 -10.545108201454552 #
point $-1 -66.501052888576922 20.721815835557177 10.545108201454552 #
loop $-1 $-1 $199 $192 #
plane-surface $-1 -66.501052888576922 0 0 1 0 0 0 0 -1 forward_v I I I I #
coedge $-1 $393 $394 $196 $304 forward $193 $-1 #
coedge $-1 $196 $195 $309 $395 reversed $69 $-1 #
edge $-1 $306 -7.9327649311226818 $396 -1.396466599555525 $302 $397 forward 7 unknown #
coedge $-1 $202 $197 $394 $398 forward $111 $-1 #
vertex $-1 $398 $399 #
straight-curve $-1 -62.941129753265507 7.3798072006526354 10.545108201454553 0 1 0 I I #
coedge $-1 $400 $199 $202 $313 reversed $300 $-1 #
coedge $-1 $199 $400 $303 $395 forward $300 $-1 #
vertex $-1 $200 $401 #
straight-curve $-1 -66.501052888576922 8.7974129670533721 38.750722010623846 0 0 1 I I #
straight-curve $-1 -66.501052888576922 8.7974129670533721 5.0633071151397502 -0.54463902268945019 0 -0.83867057594974714 I I #
edge $-1 $402 -20.721815835557177 $203 -8.7974129670533721 $308 $403 forward 7 unknown #
point $-1 -66.501052888576922 8.7974129670533721 10.545108201454552 #
point $-1 -62.9411297532655 8.7974129670533721 10.545108201454552 #
edge $-1 $404 1 $404 0 $206 $-1 forward 7 unknown #
vertex $-1 $207 $405 #
ellipse-curve $-1 -63.303385604747731 14.759614401305271 6.8835388309168986 -0.83867057594974714 0 0.54463902268945019 0.54463902268945019 0 0.83867057594974714 1 I I #
point $-1 -64.176452298231766 14.759614401305271 8.6428782342468953 #
plane-surface $-1 0 0 10.545108201454552 0 0 1 1 0 0 forward_v I I I I #
coedge $-1 $331 $330 $323 $406 forward $211 $-1 #
coedge $-1 $323 $213 $215 $327 reversed $126 $-1 #
coedge $-1 $213 $322 $321 $406 reversed $126 $-1 #
coedge $-1 $221 $216 $213 $325 forward $222 $-1 #
edge $-1 $328 29.468404978393821 $407 39.810890977506673 $324 $408 forward 7 unknown #
coedge $-1 $215 $214 $331 $409 reversed $78 $-1 #
edge $-1 $410 -133.00210577715382 $328 -119.29817731887005 $322 $411 forward 7 unknown #
vertex $-1 $217 $412 #
straight-curve $-1 56.158566889464062 -2.7778796666054806 10.545108201454561 0 -1 0 I I #
coedge $-1 $321 $218 $221 $335 reversed $211 $-1 #
coedge $-1 $218 $321 $326 $409 forward $211 $-1 #
vertex $-1 $219 $413 #
straight-curve $-1 66.501052888576922 -1.7814405065480834 94.594859011399848 0 0 1 I I #
straight-curve $-1 -33.876909608828697 -1.7814405065480834 88.811755525394062 0.75470957328743171 0 -0.6560590369687036 I I #
edge $-1 $407 -9.3300781598738389 $223 -1.7814405065480834 $330 $414 forward 7 unknown #
point $-1 66.501052888576922 -1.7814405065480834 10.545108201454552 #
point $-1 56.158566889464069 -1.7814405065480834 10.545108201454553 #
edge $-1 $415 1 $415 0 $226 $-1 forward 7 unknown #
vertex $-1 $227 $416 #
ellipse-curve $-1 60.055012718580805 -5.5557593332109612 4.5833287887609195 0.6560590369687036 0 0.75470957328743171 0.75470957328743171 0 -0.6560590369687036 1 I I #
point $-1 62.084519462307931 -5.5557593332109612 5.3937561109709868 #
plane-surface $-1 66.501052888576922 0 0 -1 0 0 0 0 1 forward_v I I I I #
coedge $-1 $235 $233 $237 $347 reversed $141 $-1 #
edge $-1 $248 -10.545108201454552 $349 10.545108201454552 $247 $417 forward 7 unknown #
vertex $-1 $347 $418 #
straight-curve $-1 -66.501052888576922 -31.028615597936522 0 0 0 -1 I I #
edge $-1 $345 -31.028615597936522 $349 31.028615597936522 $343 $419 forward 7 unknown #
straight-curve $-1 0 -31.028615597936522 -10.545108201454552 -1 0 0 I I #
vertex $-1 $240 $420 #
straight-curve $-1 0 31.028615597936522 -10.545108201454552 1 0 0 I I #
point $-1 66.501052888576922 31.028615597936522 -10.545108201454552 #
point $-1 66.501052888576922 -31.028615597936522 -10.545108201454552 #
straight-curve $-1 -66.501052888576922 0 10.545108201454552 0 -1 0 I I #
point $-1 -66.501052888576922 31.028615597936522 10.545108201454552 #
point $-1 -66.501052888576922 -31.028615597936522 10.545108201454552 #
straight-curve $-1 66.501052888576922 -31.028615597936522 0 0 0 -1 I I #
straight-curve $-1 66.501052888576922 31.028615597936522 0 0 0 -1 I I #
plane-surface $-1 0 -31.028615597936522 0 0 1 0 0 0 1 forward_v I I I I #
coedge $-1 $421 $260 $272 $370 reversed $160 $-1 #
coedge $-1 $260 $421 $275 $372 reversed $160 $-1 #
edge $-1 $422 -66.501052888576922 $269 -61.163523131064665 $265 $423 forward 7 unknown #
straight-curve $-1 -61.163523131064665 -12.937607858373424 10.545108201454552 0 1 0 I I #
coedge $-1 $272 $263 $266 $366 forward $258 $-1 #
straight-curve $-1 -61.163523131064665 -12.937607858373424 -10.545108201454552 0 -1 0 I I #
coedge $-1 $266 $265 $421 $424 forward $267 $-1 #
edge $-1 $268 61.163523131064665 $425 66.501052888576922 $266 $426 forward 7 unknown #
point $-1 -61.163523131064665 -31.028615597936522 -10.545108201454552 #
point $-1 -61.163523131064665 -31.028615597936522 10.545108201454552 #
straight-curve $-1 -66.501052888576922 -20.721815835557173 0 0 0 -1 I I #
edge $-1 $425 -31.028615597936522 $273 -20.721815835557173 $359 $427 forward 7 unknown #
point $-1 -66.501052888576922 -20.721815835557173 -10.545108201454552 #
edge $-1 $276 20.721815835557173 $422 31.028615597936522 $360 $428 forward 7 unknown #
point $-1 -66.501052888576922 -20.721815835557173 10.545108201454552 #
loop $-1 $-1 $380 $280 #
plane-surface $-1 0 31.028615597936522 0 0 -1 0 0 0 -1 forward_v I I I I #
coedge $-1 $387 $380 $283 $377 reversed $374 $-1 #
edge $-1 $391 -66.501052888576922 $378 -61.163523131064665 $376 $429 forward 7 unknown #
vertex $-1 $284 $430 #
straight-curve $-1 -61.163523131064665 12.937607858373426 -10.545108201454552 0 -1 0 I I #
coedge $-1 $376 $431 $285 $381 forward $374 $-1 #
edge $-1 $383 -10.545108201454552 $378 10.545108201454552 $380 $432 forward 7 unknown #
coedge $-1 $293 $286 $431 $433 forward $281 $-1 #
vertex $-1 $433 $434 #
straight-curve $-1 -61.163523131064665 12.937607858373426 10.545108201454552 0 1 0 I I #
point $-1 -61.163523131064665 20.721815835557177 10.545108201454552 #
point $-1 -61.163523131064665 20.721815835557177 -10.545108201454552 #
coedge $-1 $431 $376 $295 $388 reversed $374 $-1 #
edge $-1 $389 -10.545108201454552 $391 10.545108201454552 $387 $435 forward 7 unknown #
vertex $-1 $433 $436 #
straight-curve $-1 -66.501052888576922 0 10.545108201454552 0 -1 0 I I #
vertex $-1 $377 $437 #
straight-curve $-1 -66.501052888576922 0 -10.545108201454552 0 1 0 I I #
coedge $-1 $394 $302 $400 $438 reversed $193 $-1 #
coedge $-1 $302 $393 $305 $398 reversed $193 $-1 #
edge $-1 $396 -13.342008634904541 $310 -1.4176057664007367 $309 $439 forward 7 unknown #
vertex $-1 $304 $440 #
straight-curve $-1 -67.26162309257731 20.721815835557177 3.8921316677959377 -0.54463902268945019 0 -0.83867057594974714 I I #
edge $-1 $306 31.02498574835511 $402 34.584908883666529 $305 $441 forward 7 unknown #
point $-1 -62.941129753265507 20.721815835557177 10.545108201454552 #
coedge $-1 $309 $308 $393 $438 forward $300 $-1 #
point $-1 -66.501052888576922 8.7974129670533721 5.0633071151397502 #
vertex $-1 $313 $442 #
straight-curve $-1 -66.501052888576922 0 10.545108201454552 0 -1 0 I I #
vertex $-1 $316 $443 #
point $-1 -62.758746582058279 14.759614401305271 7.7222094068666456 #
edge $-1 $407 84.049750809945294 $410 93.040336916974965 $321 $444 forward 7 unknown #
vertex $-1 $335 $445 #
straight-curve $-1 26.690161911070248 -9.3300781598738389 10.545108201454553 1 0 0 I I #
edge $-1 $410 -6.5521984932683583 $332 0.99643916005739719 $331 $446 forward 7 unknown #
vertex $-1 $409 $447 #
straight-curve $-1 -33.876909608828697 -9.3300781598738389 88.811755525394062 -0.75470957328743171 0 0.6560590369687036 I I #
point $-1 56.158566889464069 -9.3300781598738389 10.545108201454553 #
point $-1 66.501052888576922 -1.7814405065480834 1.5545220944248825 #
straight-curve $-1 66.501052888576922 0 10.545108201454552 0 1 0 I I #
vertex $-1 $338 $448 #
point $-1 60.809722291868241 -5.5557593332109612 3.9272697517922159 #
straight-curve $-1 -66.501052888576922 31.028615597936522 0 0 0 -1 I I #
point $-1 -66.501052888576922 -31.028615597936522 -10.545108201454552 #
straight-curve $-1 -66.501052888576922 0 -10.545108201454552 0 1 0 I I #
point $-1 -66.501052888576922 31.028615597936522 -10.545108201454552 #
coedge $-1 $360 $359 $365 $424 reversed $160 $-1 #
vertex $-1 $372 $449 #
straight-curve $-1 0 -31.028615597936522 10.545108201454552 1 0 0 I I #
edge $-1 $422 -10.545108201454552 $425 10.545108201454552 $421 $450 forward 7 unknown #
vertex $-1 $370 $451 #
straight-curve $-1 0 -31.028615597936522 -10.545108201454552 -1 0 0 I I #
straight-curve $-1 -66.501052888576922 0 -10.545108201454552 0 1 0 I I #
straight-curve $-1 -66.501052888576922 0 10.545108201454552 0 -1 0 I I #
straight-curve $-1 0 31.028615597936522 -10.545108201454552 1 0 0 I I #
point $-1 -61.163523131064665 31.028615597936525 -10.545108201454552 #
coedge $-1 $380 $387 $382 $433 reversed $374 $-1 #
straight-curve $-1 -61.163523131064665 31.028615597936522 0 0 0 -1 I I #
edge $-1 $383 61.163523131064665 $389 66.501052888576922 $431 $452 forward 7 unknown #
point $-1 -61.163523131064665 31.028615597936525 10.545108201454552 #
straight-curve $-1 -66.501052888576922 31.028615597936522 0 0 0 -1 I I #
point $-1 -66.501052888576922 31.028615597936522 10.545108201454552 #
point $-1 -66.501052888576922 31.028615597936522 -10.545108201454552 #
edge $-1 $402 -10.545108201454552 $396 -5.0633071151397502 $400 $453 forward 7 unknown #
straight-curve $-1 -66.501052888576922 7.3798072006526354 5.0633071151397413 0 -1 0 I I #
point $-1 -66.501052888576922 20.721815835557177 5.0633071151397502 #
straight-curve $-1 -31.916144004910397 20.721815835557177 10.545108201454552 -1 0 0 I I #
point $-1 -66.501052888576922 20.721815835557177 10.545108201454552 #
point $-1 -62.464715028797983 14.759614401305271 6.3388998082274481 #
straight-curve $-1 66.501052888576922 -9.3300781598738389 94.594859011399848 0 0 -1 I I #
point $-1 66.501052888576922 -9.3300781598738389 10.545108201454552 #
straight-curve $-1 66.501052888576922 -2.7778796666054806 1.5545220944248754 0 1 0 I I #
point $-1 66.501052888576922 -9.3300781598738389 1.5545220944248825 #
point $-1 59.398953681612106 -5.5557593332109612 3.8286192154734877 #
point $-1 -66.501052888576922 -31.028615597936522 10.545108201454552 #
straight-curve $-1 -66.501052888576922 -31.028615597936522 0 0 0 -1 I I #
point $-1 -66.501052888576922 -31.028615597936522 -10.545108201454552 #
straight-curve $-1 0 31.028615597936522 10.545108201454552 -1 0 0 I I #
straight-curve $-1 -66.501052888576922 20.721815835557177 0 0 0 -1 I I #
End-of-ACIS-data 