500 0 11 0           
7 Unknown 11 ACIS 5.0 NT 24 Fri Mar 26 18:46:18 1999 
-1 9.9999999999999995e-007 1e-010 
body $-1 $11 $-1 $12 #
body $-1 $13 $-1 $14 #
body $-1 $15 $-1 $16 #
body $-1 $17 $-1 $18 #
body $-1 $19 $-1 $20 #
body $-1 $21 $-1 $22 #
body $-1 $23 $-1 $24 #
body $-1 $25 $-1 $26 #
body $-1 $27 $-1 $28 #
body $-1 $29 $-1 $30 #
body $-1 $31 $-1 $32 #
lump $-1 $-1 $33 $0 #
transform $-1 1 0 0 0 1 0 0 0 1 67.587511825922419 39.437633895629411 17.728219618184848 1 rotate no_reflect no_shear #
lump $-1 $-1 $34 $1 #
transform $-1 1 0 0 0 1 0 0 0 1 67.587511825922419 39.437633895629411 17.728219618184848 1 rotate no_reflect no_shear #
lump $-1 $-1 $35 $2 #
transform $-1 1 0 0 0 1 0 0 0 1 67.587511825922419 39.437633895629411 17.728219618184848 1 rotate no_reflect no_shear #
lump $-1 $-1 $36 $3 #
transform $-1 1 0 0 0 1 0 0 0 1 67.587511825922419 39.437633895629411 17.728219618184848 1 rotate no_reflect no_shear #
lump $-1 $-1 $37 $4 #
transform $-1 1 0 0 0 1 0 0 0 1 67.587511825922419 39.437633895629411 17.728219618184848 1 rotate no_reflect no_shear #
lump $-1 $-1 $38 $5 #
transform $-1 1 0 0 0 1 0 0 0 1 67.587511825922419 39.437633895629411 17.728219618184848 1 rotate no_reflect no_shear #
lump $-1 $-1 $39 $6 #
transform $-1 1 0 0 0 1 0 0 0 1 67.587511825922419 39.437633895629411 17.728219618184848 1 rotate no_reflect no_shear #
lump $-1 $-1 $40 $7 #
transform $-1 1 0 0 0 1 0 0 0 1 67.587511825922419 39.437633895629411 17.728219618184848 1 rotate no_reflect no_shear #
lump $-1 $-1 $41 $8 #
transform $-1 1 0 0 0 1 0 0 0 1 67.587511825922419 39.437633895629411 17.728219618184848 1 rotate no_reflect no_shear #
lump $-1 $-1 $42 $9 #
transform $-1 1 0 0 0 1 0 0 0 1 67.587511825922419 39.437633895629411 17.728219618184848 1 rotate no_reflect no_shear #
lump $-1 $-1 $43 $10 #
transform $-1 1 0 0 0 1 0 0 0 1 67.587511825922419 39.437633895629411 17.728219618184848 1 rotate no_reflect no_shear #
shell $-1 $-1 $-1 $44 $-1 $11 #
shell $-1 $-1 $-1 $45 $-1 $13 #
shell $-1 $-1 $-1 $46 $-1 $15 #
shell $-1 $-1 $-1 $47 $-1 $17 #
shell $-1 $-1 $-1 $48 $-1 $19 #
shell $-1 $-1 $-1 $49 $-1 $21 #
shell $-1 $-1 $-1 $50 $-1 $23 #
shell $-1 $-1 $-1 $51 $-1 $25 #
shell $-1 $-1 $-1 $52 $-1 $27 #
shell $-1 $-1 $-1 $53 $-1 $29 #
shell $-1 $-1 $-1 $54 $-1 $31 #
face $-1 $55 $56 $33 $-1 $57 forward single #
face $-1 $58 $59 $34 $-1 $60 reversed single #
face $-1 $61 $62 $35 $-1 $63 reversed single #
face $-1 $64 $65 $36 $-1 $66 forward single #
face $-1 $67 $68 $37 $-1 $69 forward single #
face $-1 $70 $71 $38 $-1 $72 reversed single #
face $-1 $73 $74 $39 $-1 $75 forward single #
face $-1 $76 $77 $40 $-1 $78 forward single #
face $-1 $79 $80 $41 $-1 $81 reversed single #
face $-1 $82 $83 $42 $-1 $84 forward single #
face $-1 $85 $86 $43 $-1 $87 forward single #
face $-1 $88 $89 $33 $-1 $90 reversed single #
loop $-1 $-1 $91 $44 #
plane-surface $-1 0 0 17.728219618184848 0 0 1 1 0 0 forward_v I I I I #
face $-1 $92 $93 $34 $-1 $94 reversed single #
loop $-1 $-1 $95 $45 #
plane-surface $-1 -58.491648030397016 -35.854117253303734 0 0 -1 0 0 0 -1 forward_v I I I I #
face $-1 $96 $97 $35 $-1 $98 reversed single #
loop $-1 $-1 $99 $46 #
plane-surface $-1 56.591253363687585 -39.437633895629432 7.9046134893459765 0 -0.6018150307709319 0.79863550430605224 1 0 0 forward_v I I I I #
face $-1 $100 $101 $36 $-1 $102 forward single #
loop $-1 $103 $104 $47 #
cone-surface $-1 51.878571165586948 -29.588659292393302 8.396306483903679 0 0.6018150307709319 -0.79863550430605224 3 0 0 1 I I 0 1 3 forward I I I I #
face $-1 $105 $106 $37 $-1 $107 forward single #
loop $-1 $108 $109 $48 #
cone-surface $-1 61.303935561788236 -29.588659292393302 8.396306483903679 0 0.6018150307709319 -0.79863550430605224 3 0 0 1 I I 0 1 3 forward I I I I #
face $-1 $110 $111 $38 $-1 $112 reversed single #
loop $-1 $-1 $113 $49 #
plane-surface $-1 -46.31163712669094 114.6814800479691 149.35978928421784 1 0 0 0 -0.85716730853699208 -0.51503806187062418 forward_v I I I I #
face $-1 $114 $115 $39 $-1 $116 forward single #
loop $-1 $117 $118 $50 #
cone-surface $-1 -40.549150606965604 36.479565939897569 14.162361463942251 0 -0.85716730853699208 -0.51503806187062418 1.5 0 0 1 I I 0 1 1.5 forward I I I I #
face $-1 $119 $120 $40 $-1 $121 forward single #
loop $-1 $122 $123 $51 #
cone-surface $-1 -31.905420827377597 36.479565939897569 14.162361463942251 0 -0.85716730853699208 -0.51503806187062418 1.5 0 0 1 I I 0 1 1.5 forward I I I I #
face $-1 $124 $125 $41 $-1 $126 reversed single #
loop $-1 $-1 $127 $52 #
plane-surface $-1 44.334661898703075 114.6814800479691 149.35978928421784 1 0 0 0 -0.85716730853699208 -0.51503806187062418 forward_v I I I I #
face $-1 $128 $129 $42 $-1 $130 forward single #
loop $-1 $131 $132 $53 #
cone-surface $-1 50.097148418428404 36.479565939897569 14.162361463942251 0 -0.85716730853699208 -0.51503806187062418 1.5 0 0 1 I I 0 1 1.5 forward I I I I #
face $-1 $133 $134 $43 $-1 $135 forward single #
loop $-1 $136 $137 $54 #
cone-surface $-1 58.740878198016418 36.479565939897569 14.162361463942251 0 -0.85716730853699208 -0.51503806187062418 1.5 0 0 1 I I 0 1 1.5 forward I I I I #
face $-1 $138 $139 $33 $-1 $140 reversed single #
loop $-1 $-1 $141 $55 #
plane-surface $-1 0 0 -17.728219618184848 0 0 1 1 0 0 forward_v I I I I #
coedge $-1 $142 $143 $144 $145 forward $56 $-1 #
face $-1 $146 $147 $34 $-1 $148 forward single #
loop $-1 $-1 $149 $58 #
plane-surface $-1 -49.395784234871613 -37.645875574466572 0 -1 0 0 0 0 1 forward_v I I I I #
coedge $-1 $150 $151 $152 $153 forward $59 $-1 #
face $-1 $154 $155 $35 $-1 $156 reversed single #
loop $-1 $-1 $157 $61 #
plane-surface $-1 45.594994901452758 -120.78799491412587 115.86018667311961 1 0 0 0 0.6018150307709319 -0.79863550430605224 forward_v I I I I #
coedge $-1 $158 $159 $160 $161 reversed $62 $-1 #
face $-1 $-1 $162 $36 $-1 $163 forward single #
loop $-1 $164 $165 $64 #
cone-surface $-1 51.878571165586948 -25.355144835080718 2.7782431575828781 0 0.6018150307709319 -0.79863550430605224 1.5 0 0 1 I I -0.70710678118654757 0.70710678118654757 1.5 forward I I I I #
loop $-1 $-1 $166 $47 #
coedge $-1 $104 $104 $167 $168 reversed $65 $-1 #
face $-1 $-1 $169 $37 $-1 $170 forward single #
loop $-1 $171 $172 $67 #
cone-surface $-1 61.303935561788236 -25.355144835080718 2.7782431575828781 0 0.6018150307709319 -0.79863550430605224 1.5 0 0 1 I I -0.70710678118654757 0.70710678118654757 1.5 forward I I I I #
loop $-1 $-1 $173 $48 #
coedge $-1 $109 $109 $174 $175 reversed $68 $-1 #
face $-1 $176 $177 $38 $-1 $178 reversed single #
loop $-1 $-1 $179 $70 #
plane-surface $-1 -36.227285717171597 -1.1861311571069848 79.739507089255895 0 0.85716730853699208 0.51503806187062418 1 0 0 forward_v I I I I #
coedge $-1 $180 $181 $182 $183 reversed $71 $-1 #
face $-1 $-1 $184 $39 $-1 $185 forward single #
loop $-1 $186 $187 $73 #
cone-surface $-1 -40.549150606965604 34.560435382801337 13.009231529145072 0 -0.85716730853699208 -0.51503806187062418 0.75 0 0 1 I I -0.70710678118654757 0.70710678118654757 0.75 forward I I I I #
loop $-1 $-1 $188 $50 #
coedge $-1 $118 $118 $189 $190 reversed $74 $-1 #
face $-1 $-1 $191 $40 $-1 $192 forward single #
loop $-1 $193 $194 $76 #
cone-surface $-1 -31.905420827377597 34.560435382801337 13.009231529145072 0 -0.85716730853699208 -0.51503806187062418 0.75 0 0 1 I I -0.70710678118654757 0.70710678118654757 0.75 forward I I I I #
loop $-1 $-1 $195 $51 #
coedge $-1 $123 $123 $196 $197 reversed $77 $-1 #
face $-1 $198 $199 $41 $-1 $200 reversed single #
loop $-1 $-1 $201 $79 #
plane-surface $-1 54.419013308222418 -1.1861311571069848 79.739507089255895 0 0.85716730853699208 0.51503806187062418 1 0 0 forward_v I I I I #
coedge $-1 $202 $203 $204 $205 reversed $80 $-1 #
face $-1 $-1 $206 $42 $-1 $207 forward single #
loop $-1 $208 $209 $82 #
cone-surface $-1 50.097148418428404 34.560435382801337 13.009231529145072 0 -0.85716730853699208 -0.51503806187062418 0.75 0 0 1 I I -0.70710678118654757 0.70710678118654757 0.75 forward I I I I #
loop $-1 $-1 $210 $53 #
coedge $-1 $132 $132 $211 $212 reversed $83 $-1 #
face $-1 $-1 $213 $43 $-1 $214 forward single #
loop $-1 $215 $216 $85 #
cone-surface $-1 58.740878198016418 34.560435382801337 13.009231529145072 0 -0.85716730853699208 -0.51503806187062418 0.75 0 0 1 I I -0.70710678118654757 0.70710678118654757 0.75 forward I I I I #
loop $-1 $-1 $217 $54 #
coedge $-1 $137 $137 $218 $219 reversed $86 $-1 #
face $-1 $220 $221 $33 $-1 $222 reversed single #
loop $-1 $-1 $223 $88 #
plane-surface $-1 0 -39.437633895629411 0 0 1 0 0 0 1 forward_v I I I I #
coedge $-1 $224 $225 $226 $227 forward $89 $-1 #
coedge $-1 $228 $91 $229 $230 forward $56 $-1 #
coedge $-1 $91 $228 $231 $232 forward $56 $-1 #
coedge $-1 $233 $234 $91 $145 reversed $235 $-1 #
edge $-1 $236 -39.437633895629411 $237 39.437633895629411 $144 $238 forward 7 unknown #
face $-1 $239 $240 $34 $-1 $241 reversed single #
loop $-1 $-1 $242 $92 #
plane-surface $-1 0 0 17.728219618184848 0 0 1 1 0 0 forward_v I I I I #
coedge $-1 $243 $244 $245 $246 reversed $93 $-1 #
coedge $-1 $247 $95 $248 $249 reversed $59 $-1 #
coedge $-1 $95 $247 $250 $251 reversed $59 $-1 #
coedge $-1 $244 $243 $95 $153 reversed $93 $-1 #
edge $-1 $252 -17.728219618184848 $253 17.728219618184848 $152 $254 forward 7 unknown #
face $-1 $255 $256 $35 $-1 $257 forward single #
loop $-1 $-1 $258 $96 #
plane-surface $-1 67.587511825922419 0 0 -1 0 0 0 0 1 forward_v I I I I #
coedge $-1 $259 $260 $261 $262 reversed $97 $-1 #
coedge $-1 $263 $99 $258 $264 reversed $62 $-1 #
coedge $-1 $99 $263 $259 $265 forward $62 $-1 #
coedge $-1 $261 $266 $99 $161 forward $256 $-1 #
edge $-1 $267 -39.291885144078613 $268 -17.299368219608965 $160 $269 forward 7 unknown #
loop $-1 $-1 $167 $100 #
plane-surface $-1 56.591253363687585 -39.437633895629432 7.9046134893459765 0 -0.6018150307709319 0.79863550430605224 1 0 0 forward_v I I I I #
loop $-1 $-1 $270 $64 #
coedge $-1 $165 $165 $166 $271 reversed $101 $-1 #
coedge $-1 $166 $166 $165 $271 forward $103 $-1 #
coedge $-1 $167 $167 $104 $168 forward $162 $-1 #
edge $-1 $272 -8.4940135847807601e-016 $272 6.2831853071795996 $167 $273 forward 7 unknown #
loop $-1 $-1 $174 $105 #
plane-surface $-1 56.591253363687585 -39.437633895629432 7.9046134893459765 0 -0.6018150307709319 0.79863550430605224 1 0 0 forward_v I I I I #
loop $-1 $-1 $274 $67 #
coedge $-1 $172 $172 $173 $275 reversed $106 $-1 #
coedge $-1 $173 $173 $172 $275 forward $108 $-1 #
coedge $-1 $174 $174 $109 $175 forward $169 $-1 #
edge $-1 $276 -8.4940135847807601e-016 $276 6.2831853071795996 $174 $277 forward 7 unknown #
face $-1 $278 $279 $38 $-1 $280 reversed single #
loop $-1 $-1 $281 $110 #
plane-surface $-1 -26.142934307652254 114.6814800479691 149.35978928421784 -1 0 0 0 0.85716730853699208 0.51503806187062418 forward_v I I I I #
coedge $-1 $282 $283 $284 $285 reversed $111 $-1 #
coedge $-1 $181 $113 $286 $287 reversed $71 $-1 #
coedge $-1 $113 $180 $282 $288 reversed $71 $-1 #
coedge $-1 $284 $289 $113 $183 forward $290 $-1 #
edge $-1 $291 17.903106128355141 $292 21.266731888431821 $182 $293 forward 7 unknown #
loop $-1 $-1 $189 $114 #
plane-surface $-1 -36.227285717171597 -1.1861311571069848 79.739507089255895 0 0.85716730853699208 0.51503806187062418 1 0 0 forward_v I I I I #
loop $-1 $-1 $294 $73 #
coedge $-1 $187 $187 $188 $295 reversed $115 $-1 #
coedge $-1 $188 $188 $187 $295 forward $117 $-1 #
coedge $-1 $189 $189 $118 $190 forward $184 $-1 #
edge $-1 $296 -1.2285910259226986e-015 $296 6.2831853071795996 $189 $297 forward 7 unknown #
loop $-1 $-1 $196 $119 #
plane-surface $-1 -36.227285717171597 -1.1861311571069848 79.739507089255895 0 0.85716730853699208 0.51503806187062418 1 0 0 forward_v I I I I #
loop $-1 $-1 $298 $76 #
coedge $-1 $194 $194 $195 $299 reversed $120 $-1 #
coedge $-1 $195 $195 $194 $299 forward $122 $-1 #
coedge $-1 $196 $196 $123 $197 forward $191 $-1 #
edge $-1 $300 -1.2285910259226986e-015 $300 6.2831853071795996 $196 $301 forward 7 unknown #
face $-1 $302 $303 $41 $-1 $304 forward single #
loop $-1 $-1 $305 $124 #
plane-surface $-1 64.503364717741761 114.6814800479691 149.35978928421784 -1 0 0 0 0.85716730853699208 0.51503806187062418 forward_v I I I I #
coedge $-1 $306 $307 $308 $309 reversed $125 $-1 #
coedge $-1 $203 $127 $310 $311 reversed $80 $-1 #
coedge $-1 $127 $202 $306 $312 reversed $80 $-1 #
coedge $-1 $308 $313 $127 $205 forward $303 $-1 #
edge $-1 $314 17.903106128355141 $315 21.266731888431821 $204 $316 forward 7 unknown #
loop $-1 $-1 $211 $128 #
plane-surface $-1 54.419013308222418 -1.1861311571069848 79.739507089255895 0 0.85716730853699208 0.51503806187062418 1 0 0 forward_v I I I I #
loop $-1 $-1 $317 $82 #
coedge $-1 $209 $209 $210 $318 reversed $129 $-1 #
coedge $-1 $210 $210 $209 $318 forward $131 $-1 #
coedge $-1 $211 $211 $132 $212 forward $206 $-1 #
edge $-1 $319 -1.2285910259226986e-015 $319 6.2831853071795996 $211 $320 forward 7 unknown #
loop $-1 $-1 $218 $133 #
plane-surface $-1 54.419013308222418 -1.1861311571069848 79.739507089255895 0 0.85716730853699208 0.51503806187062418 1 0 0 forward_v I I I I #
loop $-1 $-1 $321 $85 #
coedge $-1 $216 $216 $217 $322 reversed $134 $-1 #
coedge $-1 $217 $217 $216 $322 forward $136 $-1 #
coedge $-1 $218 $218 $137 $219 forward $213 $-1 #
edge $-1 $323 -1.2285910259226986e-015 $323 6.2831853071795996 $218 $324 forward 7 unknown #
face $-1 $325 $326 $33 $-1 $327 reversed single #
loop $-1 $-1 $328 $138 #
plane-surface $-1 -67.587511825922419 0 0 1 0 0 0 0 -1 forward_v I I I I #
coedge $-1 $329 $231 $330 $331 forward $139 $-1 #
coedge $-1 $332 $141 $329 $333 forward $89 $-1 #
coedge $-1 $141 $332 $334 $335 forward $89 $-1 #
coedge $-1 $234 $233 $141 $227 reversed $235 $-1 #
edge $-1 $336 -39.437633895629411 $337 39.437633895629411 $226 $338 forward 7 unknown #
coedge $-1 $143 $142 $339 $340 forward $56 $-1 #
coedge $-1 $341 $342 $142 $230 reversed $326 $-1 #
edge $-1 $237 -67.587511825922419 $343 67.587511825922419 $229 $344 forward 7 unknown #
coedge $-1 $223 $345 $143 $232 reversed $139 $-1 #
edge $-1 $346 -67.587511825922419 $236 67.587511825922419 $231 $347 forward 7 unknown #
coedge $-1 $226 $144 $345 $348 forward $235 $-1 #
coedge $-1 $144 $226 $341 $349 reversed $235 $-1 #
loop $-1 $-1 $233 $325 #
vertex $-1 $145 $350 #
vertex $-1 $145 $351 #
straight-curve $-1 67.587511825922419 0 17.728219618184848 0 1 0 I I #
face $-1 $352 $353 $34 $-1 $354 reversed single #
loop $-1 $-1 $355 $146 #
plane-surface $-1 -67.587511825922419 0 0 1 0 0 0 0 -1 forward_v I I I I #
coedge $-1 $250 $356 $244 $357 forward $147 $-1 #
coedge $-1 $152 $149 $358 $359 reversed $93 $-1 #
coedge $-1 $149 $152 $242 $357 reversed $93 $-1 #
coedge $-1 $360 $361 $149 $246 forward $362 $-1 #
edge $-1 $363 -17.728219618184848 $364 17.728219618184848 $245 $365 forward 7 unknown #
coedge $-1 $151 $150 $355 $366 reversed $59 $-1 #
coedge $-1 $358 $367 $150 $249 forward $353 $-1 #
edge $-1 $368 -38.341687810723911 $253 -20.149960219673105 $248 $369 forward 7 unknown #
coedge $-1 $370 $242 $151 $251 forward $147 $-1 #
edge $-1 $252 20.149960219673105 $371 38.341687810723911 $250 $372 forward 7 unknown #
vertex $-1 $251 $373 #
vertex $-1 $249 $374 #
straight-curve $-1 -49.395784234871613 -35.854117253303734 0 0 0 -1 I I #
face $-1 $-1 $375 $35 $-1 $376 reversed single #
loop $-1 $-1 $160 $154 #
plane-surface $-1 0 0 17.728219618184848 0 0 1 1 0 0 forward_v I I I I #
coedge $-1 $377 $378 $158 $264 forward $155 $-1 #
coedge $-1 $260 $157 $159 $265 reversed $97 $-1 #
coedge $-1 $157 $259 $379 $380 reversed $97 $-1 #
coedge $-1 $381 $160 $157 $262 forward $256 $-1 #
edge $-1 $268 -33.992728945593335 $382 -20.956363561433527 $261 $383 forward 7 unknown #
coedge $-1 $159 $158 $384 $385 reversed $62 $-1 #
edge $-1 $386 -13.369589712275173 $267 2.9537083553299297 $258 $387 forward 7 unknown #
edge $-1 $388 2.6645283896817444e-014 $268 16.32329806760513 $259 $389 forward 7 unknown #
coedge $-1 $160 $381 $377 $390 forward $256 $-1 #
vertex $-1 $264 $391 #
vertex $-1 $161 $392 #
straight-curve $-1 28.295626681843792 -26.40126851146961 17.728219618184848 -1 0 0 I I #
coedge $-1 $270 $270 $-1 $393 reversed $164 $-1 #
edge $-1 $394 0 $394 6.2831853071796004 $165 $395 forward 7 unknown #
vertex $-1 $168 $396 #
ellipse-curve $-1 51.878571165586948 -32.919451203549499 12.816416553765425 0 -0.6018150307709319 0.79863550430605224 3 0 0 1 I I #
coedge $-1 $274 $274 $-1 $397 reversed $171 $-1 #
edge $-1 $398 0 $398 6.2831853071796004 $172 $399 forward 7 unknown #
vertex $-1 $175 $400 #
ellipse-curve $-1 61.303935561788236 -32.919451203549499 12.816416553765425 0 -0.6018150307709319 0.79863550430605224 3 0 0 1 I I #
face $-1 $-1 $290 $38 $-1 $401 forward single #
loop $-1 $-1 $402 $176 #
plane-surface $-1 0 39.437633895629411 0 0 -1 0 0 0 -1 forward_v I I I I #
coedge $-1 $403 $404 $405 $406 reversed $177 $-1 #
coedge $-1 $407 $179 $181 $288 forward $111 $-1 #
coedge $-1 $179 $407 $403 $408 forward $111 $-1 #
coedge $-1 $405 $182 $179 $285 forward $290 $-1 #
edge $-1 $292 -28.197994268105141 $409 -8.0292914490664558 $284 $410 forward 7 unknown #
coedge $-1 $411 $412 $180 $287 forward $279 $-1 #
edge $-1 $413 -62.549688555620818 $291 -56.951675023924068 $286 $414 forward 7 unknown #
edge $-1 $292 72.344438306812634 $413 78.875267791258807 $181 $415 forward 7 unknown #
coedge $-1 $182 $405 $411 $416 forward $290 $-1 #
loop $-1 $-1 $405 $278 #
vertex $-1 $287 $417 #
vertex $-1 $183 $418 #
straight-curve $-1 -46.31163712669094 57.340740023984551 17.728219618184852 0 -1 0 I I #
coedge $-1 $294 $294 $-1 $419 reversed $186 $-1 #
edge $-1 $420 0 $420 6.2831853071796004 $187 $421 forward 7 unknown #
vertex $-1 $190 $422 #
ellipse-curve $-1 -40.549150606965604 37.755821015591074 14.929212852336471 0 0.85716730853699208 0.51503806187062418 1.5 0 0 1 I I #
coedge $-1 $298 $298 $-1 $423 reversed $193 $-1 #
edge $-1 $424 0 $424 6.2831853071796004 $194 $425 forward 7 unknown #
vertex $-1 $197 $426 #
ellipse-curve $-1 -31.905420827377597 37.755821015591074 14.929212852336471 0 0.85716730853699208 0.51503806187062418 1.5 0 0 1 I I #
face $-1 $-1 $427 $41 $-1 $428 reversed single #
loop $-1 $-1 $204 $198 #
plane-surface $-1 0 0 17.728219618184848 0 0 1 1 0 0 forward_v I I I I #
coedge $-1 $429 $430 $431 $432 reversed $199 $-1 #
coedge $-1 $433 $201 $203 $312 forward $125 $-1 #
coedge $-1 $201 $433 $429 $434 forward $125 $-1 #
coedge $-1 $431 $204 $201 $309 forward $303 $-1 #
edge $-1 $315 17.125155244591866 $435 37.293858063630552 $308 $436 forward 7 unknown #
coedge $-1 $437 $438 $202 $311 forward $427 $-1 #
edge $-1 $439 -62.549688555620818 $314 -56.951675023924068 $310 $440 forward 7 unknown #
edge $-1 $315 72.344438306812634 $439 78.875267791258807 $203 $441 forward 7 unknown #
coedge $-1 $204 $431 $437 $442 forward $303 $-1 #
vertex $-1 $311 $443 #
vertex $-1 $205 $444 #
straight-curve $-1 44.334661898703075 57.340740023984551 17.728219618184852 0 -1 0 I I #
coedge $-1 $317 $317 $-1 $445 reversed $208 $-1 #
edge $-1 $446 0 $446 6.2831853071796004 $209 $447 forward 7 unknown #
vertex $-1 $212 $448 #
ellipse-curve $-1 50.097148418428404 37.755821015591074 14.929212852336471 0 0.85716730853699208 0.51503806187062418 1.5 0 0 1 I I #
coedge $-1 $321 $321 $-1 $449 reversed $215 $-1 #
edge $-1 $450 0 $450 6.2831853071796004 $216 $451 forward 7 unknown #
vertex $-1 $219 $452 #
ellipse-curve $-1 58.740878198016418 37.755821015591074 14.929212852336471 0 0.85716730853699208 0.51503806187062418 1.5 0 0 1 I I #
face $-1 $-1 $235 $33 $-1 $453 reversed single #
loop $-1 $-1 $341 $220 #
plane-surface $-1 0 39.437633895629411 0 0 -1 0 0 0 -1 forward_v I I I I #
coedge $-1 $454 $339 $342 $455 forward $221 $-1 #
coedge $-1 $345 $223 $224 $333 reversed $139 $-1 #
coedge $-1 $339 $454 $223 $331 reversed $221 $-1 #
edge $-1 $346 -17.728219618184848 $456 17.728219618184848 $330 $457 forward 7 unknown #
coedge $-1 $225 $224 $454 $458 forward $89 $-1 #
edge $-1 $337 -67.587511825922419 $456 67.587511825922419 $329 $459 forward 7 unknown #
coedge $-1 $342 $341 $225 $335 reversed $326 $-1 #
edge $-1 $460 -67.587511825922419 $336 67.587511825922419 $334 $461 forward 7 unknown #
vertex $-1 $227 $462 #
vertex $-1 $348 $463 #
straight-curve $-1 67.587511825922419 0 -17.728219618184848 0 -1 0 I I #
coedge $-1 $328 $330 $228 $340 reversed $221 $-1 #
edge $-1 $343 -39.437633895629411 $346 39.437633895629411 $339 $464 forward 7 unknown #
coedge $-1 $334 $229 $234 $349 forward $326 $-1 #
coedge $-1 $229 $334 $328 $455 reversed $326 $-1 #
vertex $-1 $230 $465 #
straight-curve $-1 0 39.437633895629411 17.728219618184848 -1 0 0 I I #
coedge $-1 $231 $329 $233 $348 reversed $139 $-1 #
vertex $-1 $340 $466 #
straight-curve $-1 0 -39.437633895629411 17.728219618184848 1 0 0 I I #
edge $-1 $236 -17.728219618184848 $337 17.728219618184848 $233 $467 forward 7 unknown #
edge $-1 $237 -17.728219618184848 $336 17.728219618184848 $234 $468 forward 7 unknown #
point $-1 67.587511825922419 -39.437633895629411 17.728219618184848 #
point $-1 67.587511825922419 39.437633895629411 17.728219618184848 #
face $-1 $-1 $362 $34 $-1 $469 reversed single #
loop $-1 $-1 $358 $239 #
plane-surface $-1 0 0 -17.728219618184848 0 0 1 1 0 0 forward_v I I I I #
coedge $-1 $470 $471 $247 $366 forward $240 $-1 #
coedge $-1 $242 $370 $360 $472 forward $147 $-1 #
edge $-1 $364 -20.614696108396124 $252 -17.031179466070448 $242 $473 forward 7 unknown #
coedge $-1 $474 $248 $243 $359 forward $353 $-1 #
edge $-1 $253 17.031179466070448 $363 20.614696108396124 $358 $475 forward 7 unknown #
coedge $-1 $476 $245 $356 $472 reversed $362 $-1 #
coedge $-1 $245 $476 $474 $477 reversed $362 $-1 #
loop $-1 $-1 $245 $352 #
vertex $-1 $477 $478 #
vertex $-1 $246 $479 #
straight-curve $-1 -49.395784234871613 -39.437633895629411 0 0 0 1 I I #
edge $-1 $371 -17.728219618184848 $368 17.728219618184848 $355 $480 forward 7 unknown #
coedge $-1 $248 $474 $470 $481 forward $353 $-1 #
vertex $-1 $249 $482 #
straight-curve $-1 -29.245824015198508 -35.854117253303734 -17.728219618184848 1 0 0 I I #
coedge $-1 $356 $250 $471 $483 forward $147 $-1 #
vertex $-1 $483 $484 #
straight-curve $-1 -29.245824015198508 -35.854117253303734 17.728219618184848 -1 0 0 I I #
point $-1 -49.395784234871613 -35.854117253303734 17.728219618184848 #
point $-1 -49.395784234871613 -35.854117253303734 -17.728219618184848 #
loop $-1 $-1 $384 $255 #
plane-surface $-1 0 -39.437633895629411 0 0 1 0 0 0 1 forward_v I I I I #
coedge $-1 $378 $258 $266 $390 reversed $155 $-1 #
coedge $-1 $258 $377 $485 $486 forward $155 $-1 #
coedge $-1 $384 $487 $260 $380 forward $375 $-1 #
edge $-1 $382 40.201873718374955 $388 50.025479847213816 $379 $488 forward 7 unknown #
coedge $-1 $266 $261 $487 $489 forward $256 $-1 #
vertex $-1 $489 $490 #
straight-curve $-1 45.594994901452758 -60.393997457062937 17.728219618184852 0 -1 0 I I #
coedge $-1 $485 $379 $263 $385 forward $375 $-1 #
edge $-1 $388 17.299368219608965 $386 39.291885144078613 $384 $491 forward 7 unknown #
vertex $-1 $264 $492 #
straight-curve $-1 67.587511825922419 -28.760204873401523 15.950633533433612 0 0.79863550430605224 0.6018150307709319 I I #
vertex $-1 $385 $493 #
straight-curve $-1 45.594994901452758 -39.437633895629432 7.9046134893459765 0 0.79863550430605224 0.6018150307709319 I I #
edge $-1 $494 -39.437633895629411 $267 -26.401268511469603 $377 $495 forward 7 unknown #
point $-1 67.587511825922405 -26.401268511469603 17.728219618184848 #
point $-1 45.594994901452758 -26.401268511469603 17.728219618184848 #
edge $-1 $496 1 $496 0 $270 $-1 forward 7 unknown #
vertex $-1 $271 $497 #
ellipse-curve $-1 51.878571165586948 -26.257867381237116 3.9761964140419566 0 -0.6018150307709319 0.79863550430605224 3 0 0 1 I I #
point $-1 54.878571165586948 -32.919451203549485 12.816416553765402 #
edge $-1 $498 1 $498 0 $274 $-1 forward 7 unknown #
vertex $-1 $275 $499 #
ellipse-curve $-1 61.303935561788236 -26.257867381237116 3.9761964140419566 0 -0.6018150307709319 0.79863550430605224 3 0 0 1 I I #
point $-1 64.303935561788236 -32.919451203549485 12.816416553765402 #
plane-surface $-1 0 0 17.728219618184848 0 0 1 1 0 0 forward_v I I I I #
coedge $-1 $412 $411 $404 $500 forward $279 $-1 #
coedge $-1 $404 $281 $283 $408 reversed $177 $-1 #
coedge $-1 $281 $403 $402 $500 reversed $177 $-1 #
coedge $-1 $289 $284 $281 $406 forward $290 $-1 #
edge $-1 $409 -21.266731888431821 $501 -17.903106128355141 $405 $502 forward 7 unknown #
coedge $-1 $283 $282 $412 $503 reversed $111 $-1 #
edge $-1 $504 -78.875267791258807 $409 -72.344438306812634 $403 $505 forward 7 unknown #
vertex $-1 $285 $506 #
straight-curve $-1 -18.113642858585798 36.074008135552731 17.728219618184852 1 0 0 I I #
coedge $-1 $402 $286 $289 $416 reversed $279 $-1 #
coedge $-1 $286 $402 $407 $503 forward $279 $-1 #
vertex $-1 $287 $507 #
straight-curve $-1 -46.31163712669094 39.437633895629411 74.67989464210892 0 0 1 I I #
straight-curve $-1 -46.31163712669094 -1.1861311571069848 79.739507089255895 0 0.51503806187062418 -0.85716730853699208 I I #
edge $-1 $501 26.142934307652254 $291 46.31163712669094 $411 $508 forward 7 unknown #
point $-1 -46.31163712669094 39.437633895629411 17.728219618184848 #
point $-1 -46.31163712669094 36.074008135552731 17.728219618184859 #
edge $-1 $509 1 $509 0 $294 $-1 forward 7 unknown #
vertex $-1 $295 $510 #
ellipse-curve $-1 -40.549150606965604 35.203310864204084 13.395510075548041 0 0.85716730853699208 0.51503806187062418 1.5 0 0 1 I I #
point $-1 -39.049150606965604 37.755821015591053 14.929212852336461 #
edge $-1 $511 1 $511 0 $298 $-1 forward 7 unknown #
vertex $-1 $299 $512 #
ellipse-curve $-1 -31.905420827377597 35.203310864204084 13.395510075548041 0 0.85716730853699208 0.51503806187062418 1.5 0 0 1 I I #
point $-1 -30.405420827377597 37.755821015591053 14.929212852336461 #
loop $-1 $-1 $310 $302 #
plane-surface $-1 0 39.437633895629411 0 0 -1 0 0 0 -1 forward_v I I I I #
coedge $-1 $430 $305 $307 $434 reversed $199 $-1 #
coedge $-1 $305 $429 $513 $514 reversed $199 $-1 #
coedge $-1 $313 $308 $305 $432 forward $303 $-1 #
edge $-1 $435 -21.266731888431821 $515 -17.903106128355141 $431 $516 forward 7 unknown #
coedge $-1 $307 $306 $438 $517 reversed $125 $-1 #
edge $-1 $518 -78.875267791258807 $435 -72.344438306812634 $429 $519 forward 7 unknown #
vertex $-1 $309 $520 #
straight-curve $-1 27.209506654111209 36.074008135552731 17.728219618184852 1 0 0 I I #
coedge $-1 $513 $310 $313 $442 reversed $427 $-1 #
coedge $-1 $310 $513 $433 $517 forward $427 $-1 #
vertex $-1 $311 $521 #
straight-curve $-1 44.334661898703075 39.437633895629411 74.67989464210892 0 0 1 I I #
straight-curve $-1 44.334661898703075 -1.1861311571069848 79.739507089255895 0 0.51503806187062418 -0.85716730853699208 I I #
edge $-1 $515 -64.503364717741761 $314 -44.334661898703075 $437 $522 forward 7 unknown #
point $-1 44.334661898703075 39.437633895629411 17.728219618184848 #
point $-1 44.334661898703075 36.074008135552731 17.728219618184859 #
edge $-1 $523 1 $523 0 $317 $-1 forward 7 unknown #
vertex $-1 $318 $524 #
ellipse-curve $-1 50.097148418428404 35.203310864204084 13.395510075548041 0 0.85716730853699208 0.51503806187062418 1.5 0 0 1 I I #
point $-1 51.597148418428404 37.755821015591053 14.929212852336461 #
edge $-1 $525 1 $525 0 $321 $-1 forward 7 unknown #
vertex $-1 $322 $526 #
ellipse-curve $-1 58.740878198016418 35.203310864204084 13.395510075548041 0 0.85716730853699208 0.51503806187062418 1.5 0 0 1 I I #
point $-1 60.240878198016418 37.755821015591053 14.929212852336461 #
plane-surface $-1 67.587511825922419 0 0 -1 0 0 0 0 1 forward_v I I I I #
coedge $-1 $330 $328 $332 $458 reversed $221 $-1 #
edge $-1 $343 -17.728219618184848 $460 17.728219618184848 $342 $527 forward 7 unknown #
vertex $-1 $458 $528 #
straight-curve $-1 -67.587511825922419 -39.437633895629411 0 0 0 -1 I I #
edge $-1 $456 -39.437633895629411 $460 39.437633895629411 $454 $529 forward 7 unknown #
straight-curve $-1 0 -39.437633895629411 -17.728219618184848 -1 0 0 I I #
vertex $-1 $335 $530 #
straight-curve $-1 0 39.437633895629411 -17.728219618184848 1 0 0 I I #
point $-1 67.587511825922419 39.437633895629411 -17.728219618184848 #
point $-1 67.587511825922419 -39.437633895629411 -17.728219618184848 #
straight-curve $-1 -67.587511825922419 0 17.728219618184848 0 -1 0 I I #
point $-1 -67.587511825922419 39.437633895629411 17.728219618184848 #
point $-1 -67.587511825922419 -39.437633895629411 17.728219618184848 #
straight-curve $-1 67.587511825922419 -39.437633895629411 0 0 0 -1 I I #
straight-curve $-1 67.587511825922419 39.437633895629411 0 0 0 -1 I I #
plane-surface $-1 0 -39.437633895629411 0 0 1 0 0 0 1 forward_v I I I I #
coedge $-1 $531 $355 $367 $481 reversed $240 $-1 #
coedge $-1 $355 $531 $370 $483 reversed $240 $-1 #
edge $-1 $532 -67.587511825922419 $364 -49.395784234871613 $360 $533 forward 7 unknown #
straight-curve $-1 -49.395784234871613 -18.822937787233286 17.728219618184848 0 1 0 I I #
coedge $-1 $367 $358 $361 $477 forward $353 $-1 #
straight-curve $-1 -49.395784234871613 -18.822937787233286 -17.728219618184848 0 -1 0 I I #
coedge $-1 $361 $360 $531 $534 forward $362 $-1 #
edge $-1 $363 49.395784234871613 $535 67.587511825922419 $361 $536 forward 7 unknown #
point $-1 -49.395784234871613 -39.437633895629411 -17.728219618184848 #
point $-1 -49.395784234871613 -39.437633895629411 17.728219618184848 #
straight-curve $-1 -67.587511825922419 -35.854117253303734 0 0 0 -1 I I #
edge $-1 $535 -39.437633895629411 $368 -35.854117253303734 $470 $537 forward 7 unknown #
point $-1 -67.587511825922419 -35.854117253303734 -17.728219618184848 #
edge $-1 $371 35.854117253303734 $532 39.437633895629411 $471 $538 forward 7 unknown #
point $-1 -67.587511825922419 -35.854117253303734 17.728219618184848 #
coedge $-1 $487 $384 $378 $486 reversed $375 $-1 #
edge $-1 $494 -17.728219618184848 $386 -7.9046134893459925 $378 $539 forward 7 unknown #
coedge $-1 $379 $485 $381 $489 reversed $375 $-1 #
straight-curve $-1 45.594994901452758 -39.437633895629411 57.930093336559807 0 0 -1 I I #
edge $-1 $382 45.594994901452758 $494 67.587511825922419 $487 $540 forward 7 unknown #
point $-1 45.594994901452758 -39.437633895629411 17.728219618184848 #
straight-curve $-1 28.295626681843792 -39.437633895629411 7.904613489345989 1 0 0 I I #
point $-1 67.587511825922405 -39.437633895629411 7.9046134893459925 #
point $-1 45.594994901452758 -39.437633895629411 7.9046134893459925 #
vertex $-1 $390 $541 #
straight-curve $-1 67.587511825922419 0 17.728219618184848 0 1 0 I I #
vertex $-1 $393 $542 #
point $-1 54.878571165586948 -26.257867381237116 3.9761964140419566 #
vertex $-1 $397 $543 #
point $-1 64.303935561788236 -26.257867381237116 3.9761964140419566 #
edge $-1 $501 56.951675023924068 $504 62.549688555620818 $402 $544 forward 7 unknown #
vertex $-1 $416 $545 #
straight-curve $-1 -26.142934307652254 57.340740023984551 17.728219618184852 0 1 0 I I #
edge $-1 $504 8.0292914490664558 $413 28.197994268105141 $412 $546 forward 7 unknown #
vertex $-1 $503 $547 #
straight-curve $-1 -26.142934307652254 -1.1861311571069848 79.739507089255895 0 -0.51503806187062418 0.85716730853699208 I I #
point $-1 -26.142934307652254 36.074008135552731 17.728219618184859 #
point $-1 -46.31163712669094 39.437633895629411 12.130206086488101 #
straight-curve $-1 0 39.437633895629411 17.728219618184848 -1 0 0 I I #
vertex $-1 $419 $548 #
point $-1 -39.049150606965604 35.203310864204084 13.395510075548041 #
vertex $-1 $423 $549 #
point $-1 -30.405420827377597 35.203310864204084 13.395510075548041 #
coedge $-1 $438 $437 $430 $514 forward $427 $-1 #
edge $-1 $515 56.951675023924068 $518 62.549688555620818 $513 $550 forward 7 unknown #
vertex $-1 $442 $551 #
straight-curve $-1 64.503364717741761 57.340740023984551 17.728219618184852 0 1 0 I I #
edge $-1 $518 -37.293858063630552 $439 -17.125155244591866 $438 $552 forward 7 unknown #
vertex $-1 $517 $553 #
straight-curve $-1 64.503364717741761 -1.1861311571069848 79.739507089255895 0 -0.51503806187062418 0.85716730853699208 I I #
point $-1 64.503364717741761 36.074008135552731 17.728219618184859 #
point $-1 44.334661898703075 39.437633895629411 12.130206086488101 #
straight-curve $-1 0 39.437633895629411 17.728219618184848 -1 0 0 I I #
vertex $-1 $445 $554 #
point $-1 51.597148418428404 35.203310864204084 13.395510075548041 #
vertex $-1 $449 $555 #
point $-1 60.240878198016418 35.203310864204084 13.395510075548041 #
straight-curve $-1 -67.587511825922419 39.437633895629411 0 0 0 -1 I I #
point $-1 -67.587511825922419 -39.437633895629411 -17.728219618184848 #
straight-curve $-1 -67.587511825922419 0 -17.728219618184848 0 1 0 I I #
point $-1 -67.587511825922419 39.437633895629411 -17.728219618184848 #
coedge $-1 $471 $470 $476 $534 reversed $240 $-1 #
vertex $-1 $483 $556 #
straight-curve $-1 0 -39.437633895629411 17.728219618184848 1 0 0 I I #
edge $-1 $532 -17.728219618184848 $535 17.728219618184848 $531 $557 forward 7 unknown #
vertex $-1 $481 $558 #
straight-curve $-1 0 -39.437633895629411 -17.728219618184848 -1 0 0 I I #
straight-curve $-1 -67.587511825922419 0 -17.728219618184848 0 1 0 I I #
straight-curve $-1 -67.587511825922419 0 17.728219618184848 0 -1 0 I I #
straight-curve $-1 67.587511825922419 -39.437633895629411 0 0 0 -1 I I #
straight-curve $-1 0 -39.437633895629411 17.728219618184848 1 0 0 I I #
point $-1 67.587511825922419 -39.437633895629411 17.728219618184848 #
point $-1 51.878571165586948 -24.452422288924321 1.5802899011237996 #
point $-1 61.303935561788236 -24.452422288924321 1.5802899011237996 #
straight-curve $-1 -26.142934307652254 39.437633895629411 74.67989464210892 0 0 -1 I I #
point $-1 -26.142934307652254 39.437633895629411 17.728219618184848 #
straight-curve $-1 -18.113642858585798 39.437633895629411 12.130206086488091 -1 0 0 I I #
point $-1 -26.142934307652254 39.437633895629411 12.130206086488101 #
point $-1 -40.549150606965604 33.91755990139859 12.622952982742104 #
point $-1 -31.905420827377597 33.91755990139859 12.622952982742104 #
straight-curve $-1 64.503364717741761 39.437633895629411 74.67989464210892 0 0 -1 I I #
point $-1 64.503364717741761 39.437633895629411 17.728219618184848 #
straight-curve $-1 27.209506654111209 39.437633895629411 12.130206086488091 -1 0 0 I I #
point $-1 64.503364717741761 39.437633895629411 12.130206086488101 #
point $-1 50.097148418428404 33.91755990139859 12.622952982742104 #
point $-1 58.740878198016418 33.91755990139859 12.622952982742104 #
point $-1 -67.587511825922419 -39.437633895629411 17.728219618184848 #
straight-curve $-1 -67.587511825922419 -39.437633895629411 0 0 0 -1 I I #
point $-1 -67.587511825922419 -39.437633895629411 -17.728219618184848 #
End-of-ACIS-data 