600 0 5 0           
107 GICL ACIS Healer - Source: /gicl/data5/repository/Drexel/CICIRELLO-THESISDATA/Part10007.smdg.feat.sat - 6 0 18 ACIS 6.0.3 Solaris 24 Fri Apr 12 10:19:58 2002 
1 9.999999999999999547e-07 1.000000000000000036e-10 
body $-1 $5 $-1 $-1 #
body $-1 $6 $-1 $-1 #
body $-1 $7 $-1 $-1 #
body $-1 $8 $-1 $-1 #
body $-1 $9 $-1 $-1 #
lump $-1 $-1 $10 $0 #
lump $-1 $-1 $11 $1 #
lump $-1 $-1 $12 $2 #
lump $-1 $-1 $13 $3 #
lump $-1 $-1 $14 $4 #
shell $-1 $-1 $-1 $15 $-1 $5 #
shell $-1 $-1 $-1 $16 $-1 $6 #
shell $-1 $-1 $-1 $17 $-1 $7 #
shell $-1 $-1 $-1 $18 $-1 $8 #
shell $-1 $-1 $-1 $19 $-1 $9 #
face $-1 $20 $21 $10 $-1 $22 forward single #
face $-1 $23 $24 $11 $-1 $25 forward single #
face $-1 $26 $27 $12 $-1 $28 forward single #
face $-1 $29 $30 $13 $-1 $31 forward single #
face $-1 $32 $33 $14 $-1 $34 forward single #
face $-1 $35 $36 $10 $-1 $37 reversed single #
loop $-1 $-1 $38 $15 #
plane-surface $-1 55.38499099703970785 30.55631550786720041 24.50734562434623953 0 0 1 1 0 0 forward_v I I I I #
face $-1 $39 $40 $11 $-1 $41 reversed single #
loop $-1 $-1 $42 $16 #
plane-surface $-1 -7.131505193488995253 30.55631550786720041 6.141607977365005411 0 0 1 1 0 0 forward_v I I I I #
face $-1 $43 $44 $12 $-1 $45 reversed single #
loop $-1 $-1 $46 $17 #
plane-surface $-1 117.9014871875684207 30.55631550786720041 6.141607977365005411 0 0 1 1 0 0 forward_v I I I I #
face $-1 $47 $48 $13 $-1 $49 reversed single #
loop $-1 $-1 $50 $18 #
plane-surface $-1 70.51658743206245106 141.8893995757227913 232.1157887942320883 0 0.5877852598018022956 0.8090169889191003438 1 0 0 forward_v I I I I #
face $-1 $51 $52 $14 $-1 $53 forward single #
loop $-1 $54 $55 $19 #
cone-surface $-1 70.51658743206245106 54.08114439039592014 18.2023334995168149 0 -0.5877852598018022956 -0.8090169889191003438 2 0 0 1 I I 0 1 2 forward I I I I #
face $-1 $56 $57 $10 $-1 $58 reversed single #
loop $-1 $-1 $59 $20 #
plane-surface $-1 55.38499099703970785 30.55631550786720041 0 0 0 1 1 0 0 forward_v I I I I #
coedge $-1 $60 $61 $62 $63 forward $21 $-1 #
face $-1 $64 $65 $11 $-1 $66 reversed single #
loop $-1 $-1 $67 $23 #
plane-surface $-1 -7.131505193488995253 30.55631550786720041 0 0 0 1 1 0 0 forward_v I I I I #
coedge $-1 $68 $69 $70 $71 forward $24 $-1 #
face $-1 $72 $73 $12 $-1 $74 reversed single #
loop $-1 $-1 $75 $26 #
plane-surface $-1 117.9014871875684207 30.55631550786720041 0 0 0 1 1 0 0 forward_v I I I I #
coedge $-1 $76 $77 $78 $79 forward $27 $-1 #
face $-1 $80 $81 $13 $-1 $82 reversed single #
loop $-1 $-1 $83 $29 #
plane-surface $-1 70.51658743206245106 11.67147428646092067 52.88619420328589626 0 0.5877852598018022956 0.8090169889191003438 1 0 0 forward_v I I I I #
coedge $-1 $84 $85 $86 $87 forward $30 $-1 #
face $-1 $-1 $88 $14 $-1 $89 forward single #
loop $-1 $-1 $90 $32 #
plane-surface $-1 70.51658743206245106 55.9221193238026828 20.73621806443851767 0 0.5877852598018022956 0.8090169889191003438 -1 -0 0 forward_v I I I I #
loop $-1 $-1 $91 $19 #
coedge $-1 $55 $55 $90 $92 reversed $33 $-1 #
face $-1 $93 $94 $10 $-1 $95 reversed single #
loop $-1 $-1 $96 $35 #
plane-surface $-1 55.38499099703970785 0 12.25367281217311977 0 1 0 0 0 1 forward_v I I I I #
coedge $-1 $97 $98 $99 $100 forward $36 $-1 #
coedge $-1 $101 $38 $102 $103 forward $21 $-1 #
coedge $-1 $38 $101 $104 $105 forward $21 $-1 #
coedge $-1 $106 $107 $38 $63 reversed $108 $-1 #
edge $-1 $109 -30.55631550786720041 $110 30.55631550786720041 $62 $111 forward 7 unknown #
face $-1 $112 $113 $11 $-1 $114 reversed single #
loop $-1 $-1 $115 $39 #
plane-surface $-1 -7.131505193488995253 0 3.070803988682502705 0 1 0 0 0 1 forward_v I I I I #
coedge $-1 $116 $117 $118 $119 forward $40 $-1 #
coedge $-1 $120 $42 $121 $122 forward $24 $-1 #
coedge $-1 $42 $120 $123 $124 forward $24 $-1 #
coedge $-1 $125 $126 $42 $71 reversed $127 $-1 #
edge $-1 $128 -30.55631550786720041 $129 30.55631550786720041 $70 $130 forward 7 unknown #
face $-1 $131 $132 $12 $-1 $133 reversed single #
loop $-1 $-1 $134 $43 #
plane-surface $-1 117.9014871875684207 0 3.070803988682502705 0 1 0 0 0 1 forward_v I I I I #
coedge $-1 $135 $136 $137 $138 forward $44 $-1 #
coedge $-1 $139 $46 $140 $141 forward $27 $-1 #
coedge $-1 $46 $139 $142 $143 forward $27 $-1 #
coedge $-1 $144 $145 $46 $79 reversed $146 $-1 #
edge $-1 $147 -30.55631550786720041 $148 30.55631550786720041 $78 $149 forward 7 unknown #
face $-1 $150 $151 $13 $-1 $152 reversed single #
loop $-1 $-1 $153 $47 #
plane-surface $-1 70.51658743206245106 -102.4491576598543361 272.7189167880208629 0 0.8090169889191003438 -0.5877852598018022956 0 0.5877852598018022956 0.8090169889191003438 forward_v I I I I #
coedge $-1 $154 $155 $156 $157 forward $48 $-1 #
coedge $-1 $158 $50 $159 $160 forward $30 $-1 #
coedge $-1 $50 $158 $161 $162 forward $30 $-1 #
coedge $-1 $163 $164 $50 $87 reversed $165 $-1 #
edge $-1 $166 -221.5399639881588314 $167 221.5399639881588314 $86 $168 forward 7 unknown #
loop $-1 $169 $170 $51 #
cone-surface $-1 70.51658743206245106 51.6523841971873594 14.85943194567601111 0 -0.5877852598018022956 -0.8090169889191003438 1 0 0 1 I I -0.7071067811865474617 0.7071067811865474617 1 forward I I I I #
coedge $-1 $90 $90 $55 $92 forward $52 $-1 #
coedge $-1 $91 $91 $170 $171 forward $54 $-1 #
edge $-1 $172 0 $172 6.283185307179586232 $90 $173 forward 7 unknown #
face $-1 $174 $175 $10 $-1 $176 reversed single #
loop $-1 $-1 $177 $56 #
plane-surface $-1 0 30.55631550786720041 12.25367281217311977 1 0 0 0 0 -1 forward_v I I I I #
coedge $-1 $178 $104 $179 $180 forward $57 $-1 #
coedge $-1 $181 $59 $178 $182 forward $36 $-1 #
coedge $-1 $59 $181 $183 $184 forward $36 $-1 #
coedge $-1 $107 $106 $59 $100 reversed $108 $-1 #
edge $-1 $185 -30.55631550786720041 $186 30.55631550786720041 $99 $187 forward 7 unknown #
coedge $-1 $61 $60 $188 $189 forward $21 $-1 #
coedge $-1 $190 $191 $60 $103 reversed $175 $-1 #
edge $-1 $110 -55.38499099703970785 $192 55.38499099703970785 $102 $193 forward 7 unknown #
coedge $-1 $96 $194 $61 $105 reversed $57 $-1 #
edge $-1 $195 -55.38499099703970785 $109 55.38499099703970785 $104 $196 forward 7 unknown #
coedge $-1 $99 $62 $194 $197 forward $108 $-1 #
coedge $-1 $62 $99 $190 $198 reversed $108 $-1 #
loop $-1 $-1 $106 $174 #
vertex $-1 $63 $199 #
vertex $-1 $63 $200 #
straight-curve $-1 110.7699819940794157 30.55631550786720041 24.50734562434623953 0 1 0 I I #
face $-1 $201 $202 $11 $-1 $203 reversed single #
loop $-1 $-1 $204 $64 #
plane-surface $-1 -14.26301038697799051 30.55631550786720041 3.070803988682502705 1 0 0 0 0 -1 forward_v I I I I #
coedge $-1 $205 $123 $206 $207 forward $65 $-1 #
coedge $-1 $208 $67 $205 $209 forward $40 $-1 #
coedge $-1 $67 $208 $210 $211 forward $40 $-1 #
coedge $-1 $126 $125 $67 $119 reversed $127 $-1 #
edge $-1 $212 -30.55631550786720041 $213 30.55631550786720041 $118 $214 forward 7 unknown #
coedge $-1 $69 $68 $215 $216 forward $24 $-1 #
coedge $-1 $217 $218 $68 $122 reversed $202 $-1 #
edge $-1 $129 -7.131505193488995253 $219 7.131505193488995253 $121 $220 forward 7 unknown #
coedge $-1 $115 $221 $69 $124 reversed $65 $-1 #
edge $-1 $222 -7.131505193488995253 $128 7.131505193488995253 $123 $223 forward 7 unknown #
coedge $-1 $118 $70 $221 $224 forward $127 $-1 #
coedge $-1 $70 $118 $217 $225 reversed $127 $-1 #
loop $-1 $-1 $125 $201 #
vertex $-1 $71 $226 #
vertex $-1 $71 $227 #
straight-curve $-1 0 30.55631550786720041 6.141607977365005411 0 1 0 I I #
face $-1 $228 $229 $12 $-1 $230 reversed single #
loop $-1 $-1 $231 $72 #
plane-surface $-1 110.7699819940794157 30.55631550786720041 3.070803988682502705 1 0 0 0 0 -1 forward_v I I I I #
coedge $-1 $232 $142 $233 $234 forward $73 $-1 #
coedge $-1 $235 $75 $232 $236 forward $44 $-1 #
coedge $-1 $75 $235 $237 $238 forward $44 $-1 #
coedge $-1 $145 $144 $75 $138 reversed $146 $-1 #
edge $-1 $239 -30.55631550786720041 $240 30.55631550786720041 $137 $241 forward 7 unknown #
coedge $-1 $77 $76 $242 $243 forward $27 $-1 #
coedge $-1 $244 $245 $76 $141 reversed $229 $-1 #
edge $-1 $148 -7.131505193489005023 $246 7.131505193489005023 $140 $247 forward 7 unknown #
coedge $-1 $134 $248 $77 $143 reversed $73 $-1 #
edge $-1 $249 -7.131505193489005023 $147 7.131505193489005023 $142 $250 forward 7 unknown #
coedge $-1 $137 $78 $248 $251 forward $146 $-1 #
coedge $-1 $78 $137 $244 $252 reversed $146 $-1 #
loop $-1 $-1 $144 $228 #
vertex $-1 $79 $253 #
vertex $-1 $79 $254 #
straight-curve $-1 125.0329923810574257 30.55631550786720041 6.141607977365005411 0 1 0 I I #
face $-1 $255 $256 $13 $-1 $257 reversed single #
loop $-1 $-1 $258 $80 #
plane-surface $-1 63.3477562958932765 76.78043693109185597 142.5009914987589923 1 0 0 0 -0.5877852598018022956 -0.8090169889191003438 forward_v I I I I #
coedge $-1 $259 $161 $260 $261 forward $81 $-1 #
coedge $-1 $262 $83 $259 $263 forward $48 $-1 #
coedge $-1 $83 $262 $264 $265 forward $48 $-1 #
coedge $-1 $164 $163 $83 $157 reversed $165 $-1 #
edge $-1 $266 -221.5399639881588314 $267 221.5399639881588314 $156 $268 forward 7 unknown #
coedge $-1 $85 $84 $269 $270 forward $30 $-1 #
coedge $-1 $271 $272 $84 $160 reversed $256 $-1 #
edge $-1 $167 -7.168831136169174556 $273 7.168831136169174556 $159 $274 forward 7 unknown #
coedge $-1 $153 $275 $85 $162 reversed $81 $-1 #
edge $-1 $276 -7.168831136169174556 $166 7.168831136169174556 $161 $277 forward 7 unknown #
coedge $-1 $156 $86 $275 $278 forward $165 $-1 #
coedge $-1 $86 $156 $271 $279 reversed $165 $-1 #
loop $-1 $-1 $163 $255 #
vertex $-1 $87 $280 #
vertex $-1 $87 $281 #
straight-curve $-1 77.68541856823162561 141.8893995757227913 232.1157887942320883 0 0.8090169889191003438 -0.5877852598018022956 I I #
loop $-1 $-1 $282 $51 #
coedge $-1 $170 $170 $91 $171 reversed $88 $-1 #
edge $-1 $283 0 $283 6.283185307179586232 $170 $284 forward 7 unknown #
vertex $-1 $92 $285 #
ellipse-curve $-1 70.51658743206245106 55.9221193238026828 20.73621806443851767 0 0.5877852598018022956 0.8090169889191003438 2 0 0 1 I I #
face $-1 $-1 $108 $10 $-1 $286 reversed single #
loop $-1 $-1 $190 $93 #
plane-surface $-1 55.38499099703970785 61.11263101573440082 12.25367281217311977 0 -1 0 0 0 -1 forward_v I I I I #
coedge $-1 $287 $188 $191 $288 forward $94 $-1 #
coedge $-1 $194 $96 $97 $182 reversed $57 $-1 #
coedge $-1 $188 $287 $96 $180 reversed $94 $-1 #
edge $-1 $195 -12.25367281217311977 $289 12.25367281217311977 $179 $290 forward 7 unknown #
coedge $-1 $98 $97 $287 $291 forward $36 $-1 #
edge $-1 $186 -55.38499099703970785 $289 55.38499099703970785 $178 $292 forward 7 unknown #
coedge $-1 $191 $190 $98 $184 reversed $175 $-1 #
edge $-1 $293 -55.38499099703970785 $185 55.38499099703970785 $183 $294 forward 7 unknown #
vertex $-1 $100 $295 #
vertex $-1 $197 $296 #
straight-curve $-1 110.7699819940794157 30.55631550786720041 0 0 -1 0 I I #
coedge $-1 $177 $179 $101 $189 reversed $94 $-1 #
edge $-1 $192 -30.55631550786720041 $195 30.55631550786720041 $188 $297 forward 7 unknown #
coedge $-1 $183 $102 $107 $198 forward $175 $-1 #
coedge $-1 $102 $183 $177 $288 reversed $175 $-1 #
vertex $-1 $103 $298 #
straight-curve $-1 55.38499099703970785 61.11263101573440082 24.50734562434623953 -1 0 0 I I #
coedge $-1 $104 $178 $106 $197 reversed $57 $-1 #
vertex $-1 $189 $299 #
straight-curve $-1 55.38499099703970785 0 24.50734562434623953 1 0 0 I I #
edge $-1 $109 -12.25367281217311977 $186 12.25367281217311977 $106 $300 forward 7 unknown #
edge $-1 $110 -12.25367281217311977 $185 12.25367281217311977 $107 $301 forward 7 unknown #
point $-1 110.7699819940794157 0 24.50734562434623953 #
point $-1 110.7699819940794157 61.11263101573440082 24.50734562434623953 #
face $-1 $-1 $127 $11 $-1 $302 reversed single #
loop $-1 $-1 $217 $112 #
plane-surface $-1 -7.131505193488995253 61.11263101573440082 3.070803988682502705 0 -1 0 0 0 -1 forward_v I I I I #
coedge $-1 $303 $215 $218 $304 forward $113 $-1 #
coedge $-1 $221 $115 $116 $209 reversed $65 $-1 #
coedge $-1 $215 $303 $115 $207 reversed $113 $-1 #
edge $-1 $222 -3.070803988682502705 $305 3.070803988682502705 $206 $306 forward 7 unknown #
coedge $-1 $117 $116 $303 $307 forward $40 $-1 #
edge $-1 $213 -7.131505193488995253 $305 7.131505193488995253 $205 $308 forward 7 unknown #
coedge $-1 $218 $217 $117 $211 reversed $202 $-1 #
edge $-1 $309 -7.131505193488995253 $212 7.131505193488995253 $210 $310 forward 7 unknown #
vertex $-1 $119 $311 #
vertex $-1 $224 $312 #
straight-curve $-1 0 30.55631550786720041 0 0 -1 0 I I #
coedge $-1 $204 $206 $120 $216 reversed $113 $-1 #
edge $-1 $219 -30.55631550786720041 $222 30.55631550786720041 $215 $313 forward 7 unknown #
coedge $-1 $210 $121 $126 $225 forward $202 $-1 #
coedge $-1 $121 $210 $204 $304 reversed $202 $-1 #
vertex $-1 $122 $314 #
straight-curve $-1 -7.131505193488995253 61.11263101573440082 6.141607977365005411 -1 0 0 I I #
coedge $-1 $123 $205 $125 $224 reversed $65 $-1 #
vertex $-1 $216 $315 #
straight-curve $-1 -7.131505193488995253 0 6.141607977365005411 1 0 0 I I #
edge $-1 $128 -3.070803988682502705 $213 3.070803988682502705 $125 $316 forward 7 unknown #
edge $-1 $129 -3.070803988682502705 $212 3.070803988682502705 $126 $317 forward 7 unknown #
point $-1 0 0 6.141607977365005411 #
point $-1 0 61.11263101573440082 6.141607977365005411 #
face $-1 $-1 $146 $12 $-1 $318 reversed single #
loop $-1 $-1 $244 $131 #
plane-surface $-1 117.9014871875684207 61.11263101573440082 3.070803988682502705 0 -1 0 0 0 -1 forward_v I I I I #
coedge $-1 $319 $242 $245 $320 forward $132 $-1 #
coedge $-1 $248 $134 $135 $236 reversed $73 $-1 #
coedge $-1 $242 $319 $134 $234 reversed $132 $-1 #
edge $-1 $249 -3.070803988682502705 $321 3.070803988682502705 $233 $322 forward 7 unknown #
coedge $-1 $136 $135 $319 $323 forward $44 $-1 #
edge $-1 $240 -7.131505193489005023 $321 7.131505193489005023 $232 $324 forward 7 unknown #
coedge $-1 $245 $244 $136 $238 reversed $229 $-1 #
edge $-1 $325 -7.131505193489005023 $239 7.131505193489005023 $237 $326 forward 7 unknown #
vertex $-1 $138 $327 #
vertex $-1 $251 $328 #
straight-curve $-1 125.0329923810574257 30.55631550786720041 0 0 -1 0 I I #
coedge $-1 $231 $233 $139 $243 reversed $132 $-1 #
edge $-1 $246 -30.55631550786720041 $249 30.55631550786720041 $242 $329 forward 7 unknown #
coedge $-1 $237 $140 $145 $252 forward $229 $-1 #
coedge $-1 $140 $237 $231 $320 reversed $229 $-1 #
vertex $-1 $141 $330 #
straight-curve $-1 117.9014871875684207 61.11263101573440082 6.141607977365005411 -1 0 0 I I #
coedge $-1 $142 $232 $144 $251 reversed $73 $-1 #
vertex $-1 $243 $331 #
straight-curve $-1 117.9014871875684207 0 6.141607977365005411 1 0 0 I I #
edge $-1 $147 -3.070803988682502705 $240 3.070803988682502705 $144 $332 forward 7 unknown #
edge $-1 $148 -3.070803988682502705 $239 3.070803988682502705 $145 $333 forward 7 unknown #
point $-1 125.0329923810574257 0 6.141607977365005411 #
point $-1 125.0329923810574257 61.11263101573440082 6.141607977365005411 #
face $-1 $-1 $165 $13 $-1 $334 reversed single #
loop $-1 $-1 $271 $150 #
plane-surface $-1 70.51658743206245106 256.010031522038048 12.28306620949712169 0 -0.8090169889191003438 0.5877852598018022956 0 -0.5877852598018022956 -0.8090169889191003438 forward_v I I I I #
coedge $-1 $335 $269 $272 $336 forward $151 $-1 #
coedge $-1 $275 $153 $154 $263 reversed $81 $-1 #
coedge $-1 $269 $335 $153 $261 reversed $151 $-1 #
edge $-1 $276 -110.7699819940794441 $337 110.7699819940794157 $260 $338 forward 7 unknown #
coedge $-1 $155 $154 $335 $339 forward $48 $-1 #
edge $-1 $267 -7.168831136169174556 $337 7.168831136169174556 $259 $340 forward 7 unknown #
coedge $-1 $272 $271 $155 $265 reversed $256 $-1 #
edge $-1 $341 -7.168831136169174556 $266 7.168831136169174556 $264 $342 forward 7 unknown #
vertex $-1 $157 $343 #
vertex $-1 $278 $344 #
straight-curve $-1 77.68541856823162561 11.67147428646092067 52.88619420328589626 0 -0.8090169889191003438 0.5877852598018022956 I I #
coedge $-1 $258 $260 $158 $270 reversed $151 $-1 #
edge $-1 $273 -221.5399639881588314 $276 221.5399639881588314 $269 $345 forward 7 unknown #
coedge $-1 $264 $159 $164 $279 forward $256 $-1 #
coedge $-1 $159 $264 $258 $336 reversed $256 $-1 #
vertex $-1 $160 $346 #
straight-curve $-1 70.51658743206245106 321.1189941666689833 101.8978635049702177 -1 0 0 I I #
coedge $-1 $161 $259 $163 $278 reversed $81 $-1 #
vertex $-1 $270 $347 #
straight-curve $-1 70.51658743206245106 -37.34019501522340079 362.3337140834939873 1 0 0 I I #
edge $-1 $166 -110.7699819940794441 $267 110.7699819940794157 $163 $348 forward 7 unknown #
edge $-1 $167 -110.7699819940794157 $266 110.7699819940794157 $164 $349 forward 7 unknown #
point $-1 77.68541856823162561 -37.34019501522340079 362.3337140834939873 #
point $-1 77.68541856823162561 321.1189941666689833 101.8978635049702177 #
coedge $-1 $282 $282 $-1 $350 reversed $169 $-1 #
vertex $-1 $171 $351 #
ellipse-curve $-1 70.51658743206245106 52.24016945698916459 15.66844893459511212 0 0.5877852598018022956 0.8090169889191003438 2 0 0 1 I I #
point $-1 72.51658743206245106 55.9221193238026828 20.73621806443851767 #
plane-surface $-1 110.7699819940794157 30.55631550786720041 12.25367281217311977 -1 0 0 0 0 1 forward_v I I I I #
coedge $-1 $179 $177 $181 $291 reversed $94 $-1 #
edge $-1 $192 -12.25367281217311977 $293 12.25367281217311977 $191 $352 forward 7 unknown #
vertex $-1 $291 $353 #
straight-curve $-1 0 0 12.25367281217311977 0 0 -1 I I #
edge $-1 $289 -30.55631550786720041 $293 30.55631550786720041 $287 $354 forward 7 unknown #
straight-curve $-1 55.38499099703970785 0 0 -1 0 0 I I #
vertex $-1 $184 $355 #
straight-curve $-1 55.38499099703970785 61.11263101573440082 0 1 0 0 I I #
point $-1 110.7699819940794157 61.11263101573440082 0 #
point $-1 110.7699819940794157 0 0 #
straight-curve $-1 0 30.55631550786720041 24.50734562434623953 0 -1 0 I I #
point $-1 0 61.11263101573440082 24.50734562434623953 #
point $-1 0 0 24.50734562434623953 #
straight-curve $-1 110.7699819940794157 0 12.25367281217311977 0 0 -1 I I #
straight-curve $-1 110.7699819940794157 61.11263101573440082 12.25367281217311977 0 0 -1 I I #
plane-surface $-1 0 30.55631550786720041 3.070803988682502705 -1 0 0 0 0 1 forward_v I I I I #
coedge $-1 $206 $204 $208 $307 reversed $113 $-1 #
edge $-1 $219 -3.070803988682502705 $309 3.070803988682502705 $218 $356 forward 7 unknown #
vertex $-1 $307 $357 #
straight-curve $-1 -14.26301038697799051 0 3.070803988682502705 0 0 -1 I I #
edge $-1 $305 -30.55631550786720041 $309 30.55631550786720041 $303 $358 forward 7 unknown #
straight-curve $-1 -7.131505193488995253 0 0 -1 0 0 I I #
vertex $-1 $211 $359 #
straight-curve $-1 -7.131505193488995253 61.11263101573440082 0 1 0 0 I I #
point $-1 0 61.11263101573440082 0 #
point $-1 0 0 0 #
straight-curve $-1 -14.26301038697799051 30.55631550786720041 6.141607977365005411 0 -1 0 I I #
point $-1 -14.26301038697799051 61.11263101573440082 6.141607977365005411 #
point $-1 -14.26301038697799051 0 6.141607977365005411 #
straight-curve $-1 0 0 3.070803988682502705 0 0 -1 I I #
straight-curve $-1 0 61.11263101573440082 3.070803988682502705 0 0 -1 I I #
plane-surface $-1 125.0329923810574257 30.55631550786720041 3.070803988682502705 -1 0 0 0 0 1 forward_v I I I I #
coedge $-1 $233 $231 $235 $323 reversed $132 $-1 #
edge $-1 $246 -3.070803988682502705 $325 3.070803988682502705 $245 $360 forward 7 unknown #
vertex $-1 $323 $361 #
straight-curve $-1 110.7699819940794157 0 3.070803988682502705 0 0 -1 I I #
edge $-1 $321 -30.55631550786720041 $325 30.55631550786720041 $319 $362 forward 7 unknown #
straight-curve $-1 117.9014871875684207 0 0 -1 0 0 I I #
vertex $-1 $238 $363 #
straight-curve $-1 117.9014871875684207 61.11263101573440082 0 1 0 0 I I #
point $-1 125.0329923810574257 61.11263101573440082 0 #
point $-1 125.0329923810574257 0 0 #
straight-curve $-1 110.7699819940794157 30.55631550786720041 6.141607977365005411 0 -1 0 I I #
point $-1 110.7699819940794157 61.11263101573440082 6.141607977365005411 #
point $-1 110.7699819940794157 0 6.141607977365005411 #
straight-curve $-1 125.0329923810574257 0 3.070803988682502705 0 0 -1 I I #
straight-curve $-1 125.0329923810574257 61.11263101573440082 3.070803988682502705 0 0 -1 I I #
plane-surface $-1 77.68541856823162561 76.78043693109185597 142.5009914987589923 -1 0 0 0 0.5877852598018022956 0.8090169889191003438 forward_v I I I I #
coedge $-1 $260 $258 $262 $339 reversed $151 $-1 #
edge $-1 $273 -110.7699819940794157 $341 110.7699819940794157 $272 $364 forward 7 unknown #
vertex $-1 $339 $365 #
straight-curve $-1 63.3477562958932765 -102.4491576598543361 272.7189167880208629 0 -0.5877852598018022956 -0.8090169889191003438 I I #
edge $-1 $337 -221.5399639881588314 $341 221.5399639881588314 $335 $366 forward 7 unknown #
straight-curve $-1 70.51658743206245106 -167.5581203044852714 183.1041194925477669 -1 0 0 I I #
vertex $-1 $265 $367 #
straight-curve $-1 70.51658743206245106 190.9010688774071127 -77.33173108597597434 1 0 0 I I #
point $-1 77.68541856823162561 190.9010688774071127 -77.33173108597597434 #
point $-1 77.68541856823162561 -167.5581203044852714 183.1041194925477669 #
straight-curve $-1 63.3477562958932765 141.8893995757227913 232.1157887942320883 0 -0.8090169889191003438 0.5877852598018022956 I I #
point $-1 63.3477562958932765 321.1189941666689833 101.8978635049702177 #
point $-1 63.3477562958932765 -37.34019501522340079 362.3337140834939873 #
straight-curve $-1 77.68541856823162561 -102.4491576598543361 272.7189167880208629 0 -0.5877852598018022956 -0.8090169889191003438 I I #
straight-curve $-1 77.68541856823162561 256.010031522038048 12.28306620949712169 0 -0.5877852598018022956 -0.8090169889191003438 I I #
edge $-1 $368 1 $368 0 $282 $-1 forward 7 unknown #
point $-1 72.51658743206245106 52.24016945698916459 15.66844893459511212 #
straight-curve $-1 0 61.11263101573440082 12.25367281217311977 0 0 -1 I I #
point $-1 0 0 0 #
straight-curve $-1 0 30.55631550786720041 0 0 1 0 I I #
point $-1 0 61.11263101573440082 0 #
straight-curve $-1 -14.26301038697799051 61.11263101573440082 3.070803988682502705 0 0 -1 I I #
point $-1 -14.26301038697799051 0 0 #
straight-curve $-1 -14.26301038697799051 30.55631550786720041 0 0 1 0 I I #
point $-1 -14.26301038697799051 61.11263101573440082 0 #
straight-curve $-1 110.7699819940794157 61.11263101573440082 3.070803988682502705 0 0 -1 I I #
point $-1 110.7699819940794157 0 0 #
straight-curve $-1 110.7699819940794157 30.55631550786720041 0 0 1 0 I I #
point $-1 110.7699819940794157 61.11263101573440082 0 #
straight-curve $-1 63.3477562958932765 256.010031522038048 12.28306620949712169 0 -0.5877852598018022956 -0.8090169889191003438 I I #
point $-1 63.3477562958932765 -167.5581203044852714 183.1041194925477669 #
straight-curve $-1 63.3477562958932765 11.67147428646092067 52.88619420328589626 0 0.8090169889191003438 -0.5877852598018022956 I I #
point $-1 63.3477562958932765 190.9010688774071127 -77.33173108597597434 #
vertex $-1 $350 $369 #
point $-1 70.51658743206245106 51.06459893738555422 14.0504149567569101 #
End-of-ACIS-data 