500 0 9 0           
7 Unknown 11 ACIS 5.0 NT 24 Thu Mar 25 17:08:45 1999 
-1 9.9999999999999995e-007 1e-010 
body $-1 $9 $-1 $10 #
body $-1 $11 $-1 $12 #
body $-1 $13 $-1 $14 #
body $-1 $15 $-1 $16 #
body $-1 $17 $-1 $18 #
body $-1 $19 $-1 $20 #
body $-1 $21 $-1 $22 #
body $-1 $23 $-1 $24 #
body $-1 $25 $-1 $26 #
lump $-1 $-1 $27 $0 #
transform $-1 1 0 0 0 1 0 0 0 1 63.773918881801812 26.36671144369474 7.2255588063801053 1 rotate no_reflect no_shear #
lump $-1 $-1 $28 $1 #
transform $-1 1 0 0 0 1 0 0 0 1 63.773918881801812 26.36671144369474 7.2255588063801053 1 rotate no_reflect no_shear #
lump $-1 $-1 $29 $2 #
transform $-1 1 0 0 0 1 0 0 0 1 63.773918881801812 26.36671144369474 7.2255588063801053 1 rotate no_reflect no_shear #
lump $-1 $-1 $30 $3 #
transform $-1 1 0 0 0 1 0 0 0 1 63.773918881801812 26.36671144369474 7.2255588063801053 1 rotate no_reflect no_shear #
lump $-1 $-1 $31 $4 #
transform $-1 1 0 0 0 1 0 0 0 1 63.773918881801812 26.36671144369474 7.2255588063801053 1 rotate no_reflect no_shear #
lump $-1 $-1 $32 $5 #
transform $-1 1 0 0 0 1 0 0 0 1 63.773918881801812 26.36671144369474 7.2255588063801053 1 rotate no_reflect no_shear #
lump $-1 $-1 $33 $6 #
transform $-1 1 0 0 0 1 0 0 0 1 63.773918881801812 26.36671144369474 7.2255588063801053 1 rotate no_reflect no_shear #
lump $-1 $-1 $34 $7 #
transform $-1 1 0 0 0 1 0 0 0 1 63.773918881801812 26.36671144369474 7.2255588063801053 1 rotate no_reflect no_shear #
lump $-1 $-1 $35 $8 #
transform $-1 1 0 0 0 1 0 0 0 1 63.773918881801812 26.36671144369474 7.2255588063801053 1 rotate no_reflect no_shear #
shell $-1 $-1 $-1 $36 $-1 $9 #
shell $-1 $-1 $-1 $37 $-1 $11 #
shell $-1 $-1 $-1 $38 $-1 $13 #
shell $-1 $-1 $-1 $39 $-1 $15 #
shell $-1 $-1 $-1 $40 $-1 $17 #
shell $-1 $-1 $-1 $41 $-1 $19 #
shell $-1 $-1 $-1 $42 $-1 $21 #
shell $-1 $-1 $-1 $43 $-1 $23 #
shell $-1 $-1 $-1 $44 $-1 $25 #
face $-1 $45 $46 $27 $-1 $47 forward single #
face $-1 $48 $49 $28 $-1 $50 forward single #
face $-1 $51 $52 $29 $-1 $53 reversed single #
face $-1 $54 $55 $30 $-1 $56 forward single #
face $-1 $57 $58 $31 $-1 $59 forward single #
face $-1 $60 $61 $32 $-1 $62 reversed single #
face $-1 $63 $64 $33 $-1 $65 forward single #
face $-1 $66 $67 $34 $-1 $68 forward single #
face $-1 $69 $70 $35 $-1 $71 forward single #
face $-1 $72 $73 $27 $-1 $74 reversed single #
loop $-1 $-1 $75 $36 #
plane-surface $-1 0 0 7.2255588063801053 0 0 1 1 0 0 forward_v I I I I #
face $-1 $76 $77 $28 $-1 $78 reversed single #
loop $-1 $-1 $79 $37 #
plane-surface $-1 0 -23.081028216531053 6.2659113267622111 0 0 1 1 0 0 forward_v I I I I #
face $-1 $80 $81 $29 $-1 $82 reversed single #
loop $-1 $-1 $83 $38 #
plane-surface $-1 82.628753112325228 4.1734982942395416 180.35479842692007 0 1 0 0.77714596973225614 0 0.62932038083071107 forward_v I I I I #
face $-1 $84 $85 $30 $-1 $86 forward single #
loop $-1 $87 $88 $39 #
cone-surface $-1 59.796528595362119 7.8889385468259903 2.926798994629777 -0.77714596973225614 0 -0.62932038083071107 0.9439805712460666 0 -1.1657189545983841 1 I I 0 1 1.5 forward I I I I #
face $-1 $89 $90 $31 $-1 $91 forward single #
loop $-1 $92 $93 $40 #
cone-surface $-1 59.796528595362119 13.462098925705661 2.926798994629777 -0.77714596973225614 0 -0.62932038083071107 0.9439805712460666 0 -1.1657189545983841 1 I I 0 1 1.5 forward I I I I #
face $-1 $94 $95 $32 $-1 $96 reversed single #
loop $-1 $-1 $97 $41 #
plane-surface $-1 -173.10375568734284 -9.1220943707551854 66.244188270776419 0 1 0 -0.85716730853699208 0 0.51503806187062418 forward_v I I I I #
face $-1 $98 $99 $33 $-1 $100 forward single #
loop $-1 $101 $102 $42 #
cone-surface $-1 -60.915599247655038 -7.4862011523016818 3.3760797405710044 0.85716730853699208 0 -0.51503806187062418 0.25751903093531209 0 0.42858365426849604 1 I I 0 1 0.5 forward I I I I #
face $-1 $103 $104 $34 $-1 $105 forward single #
loop $-1 $106 $107 $43 #
cone-surface $-1 -60.915599247655038 -5.0323613246214265 3.3760797405710044 0.85716730853699208 0 -0.51503806187062418 0.25751903093531209 0 0.42858365426849604 1 I I 0 1 0.5 forward I I I I #
face $-1 $108 $109 $35 $-1 $110 forward single #
loop $-1 $111 $112 $44 #
cone-surface $-1 -60.915599247655038 -2.5785214969411712 3.3760797405710044 0.85716730853699208 0 -0.51503806187062418 0.25751903093531209 0 0.42858365426849604 1 I I 0 1 0.5 forward I I I I #
face $-1 $113 $114 $27 $-1 $115 reversed single #
loop $-1 $-1 $116 $45 #
plane-surface $-1 0 0 -7.2255588063801053 0 0 1 1 0 0 forward_v I I I I #
coedge $-1 $117 $118 $119 $120 forward $46 $-1 #
face $-1 $121 $122 $28 $-1 $123 reversed single #
loop $-1 $-1 $124 $48 #
plane-surface $-1 0 -23.081028216531053 3.2659113267622111 0 0 1 1 0 0 forward_v I I I I #
coedge $-1 $125 $126 $127 $128 reversed $49 $-1 #
face $-1 $129 $130 $29 $-1 $131 reversed single #
loop $-1 $-1 $132 $51 #
plane-surface $-1 -16.494534953723004 10.675518736265829 100.08634459139527 0.77714596973225614 0 0.62932038083071107 0.62932038083071107 0 -0.77714596973225614 forward_v I I I I #
coedge $-1 $133 $134 $135 $136 reversed $52 $-1 #
face $-1 $-1 $137 $30 $-1 $138 forward single #
loop $-1 $139 $140 $54 #
cone-surface $-1 57.771915940962366 7.8889385468259903 1.2873000377729387 -0.77714596973225614 0 -0.62932038083071107 0.4719902856230333 0 -0.58285947729919207 1 I I -0.70710678118654757 0.70710678118654757 0.75 forward I I I I #
loop $-1 $-1 $141 $39 #
coedge $-1 $88 $88 $142 $143 reversed $55 $-1 #
face $-1 $-1 $144 $31 $-1 $145 forward single #
loop $-1 $146 $147 $57 #
cone-surface $-1 57.771915940962366 13.462098925705661 1.2873000377729387 -0.77714596973225614 0 -0.62932038083071107 0.4719902856230333 0 -0.58285947729919207 1 I I -0.70710678118654757 0.70710678118654757 0.75 forward I I I I #
loop $-1 $-1 $148 $40 #
coedge $-1 $93 $93 $149 $150 reversed $58 $-1 #
face $-1 $151 $152 $32 $-1 $153 reversed single #
loop $-1 $-1 $154 $60 #
plane-surface $-1 -63.773918881801805 -5.03236132462143 0.55219711322119736 -0.85716730853699208 0 0.51503806187062418 0.51503806187062418 0 0.85716730853699208 forward_v I I I I #
coedge $-1 $155 $156 $157 $158 reversed $61 $-1 #
face $-1 $-1 $159 $33 $-1 $160 forward single #
loop $-1 $161 $162 $63 #
cone-surface $-1 -59.847867836263305 -7.4862011523016818 2.734522005873691 0.85716730853699208 0 -0.51503806187062418 0.12875951546765604 0 0.21429182713424802 1 I I -0.70710678118654746 0.70710678118654746 0.25 forward I I I I #
loop $-1 $-1 $163 $42 #
coedge $-1 $102 $102 $164 $165 reversed $64 $-1 #
face $-1 $-1 $166 $34 $-1 $167 forward single #
loop $-1 $168 $169 $66 #
cone-surface $-1 -59.847867836263305 -5.0323613246214265 2.734522005873691 0.85716730853699208 0 -0.51503806187062418 0.12875951546765604 0 0.21429182713424802 1 I I -0.70710678118654746 0.70710678118654746 0.25 forward I I I I #
loop $-1 $-1 $170 $43 #
coedge $-1 $107 $107 $171 $172 reversed $67 $-1 #
face $-1 $-1 $173 $35 $-1 $174 forward single #
loop $-1 $175 $176 $69 #
cone-surface $-1 -59.847867836263305 -2.5785214969411712 2.734522005873691 0.85716730853699208 0 -0.51503806187062418 0.12875951546765604 0 0.21429182713424802 1 I I -0.70710678118654746 0.70710678118654746 0.25 forward I I I I #
loop $-1 $-1 $177 $44 #
coedge $-1 $112 $112 $178 $179 reversed $70 $-1 #
face $-1 $180 $181 $27 $-1 $182 reversed single #
loop $-1 $-1 $183 $72 #
plane-surface $-1 0 -26.36671144369474 0 0 1 0 0 0 1 forward_v I I I I #
coedge $-1 $184 $185 $186 $187 forward $73 $-1 #
coedge $-1 $188 $75 $189 $190 forward $46 $-1 #
coedge $-1 $75 $188 $191 $192 forward $46 $-1 #
coedge $-1 $193 $194 $75 $120 reversed $195 $-1 #
edge $-1 $196 -26.36671144369474 $197 26.36671144369474 $119 $198 forward 7 unknown #
face $-1 $199 $200 $28 $-1 $201 reversed single #
loop $-1 $-1 $202 $76 #
plane-surface $-1 0 -19.795344989367365 4.7659113267622111 0 -1 0 0 0 -1 forward_v I I I I #
coedge $-1 $203 $204 $205 $206 reversed $77 $-1 #
coedge $-1 $207 $79 $208 $209 forward $49 $-1 #
coedge $-1 $79 $207 $210 $211 reversed $49 $-1 #
coedge $-1 $212 $213 $79 $128 forward $214 $-1 #
edge $-1 $215 8.2548308811018387 $216 14.826197335429214 $127 $217 forward 7 unknown #
face $-1 $218 $219 $29 $-1 $220 forward single #
loop $-1 $-1 $221 $80 #
plane-surface $-1 82.628753112325228 17.177539178292115 180.35479842692007 0 -1 0 -0.77714596973225614 0 -0.62932038083071107 forward_v I I I I #
coedge $-1 $222 $223 $224 $225 reversed $81 $-1 #
coedge $-1 $134 $83 $226 $227 reversed $52 $-1 #
coedge $-1 $83 $133 $222 $228 reversed $52 $-1 #
coedge $-1 $224 $229 $83 $136 forward $230 $-1 #
edge $-1 $231 82.951840407079928 $232 89.214342688113007 $135 $233 forward 7 unknown #
loop $-1 $-1 $142 $84 #
plane-surface $-1 -16.494534953723004 10.675518736265829 100.08634459139527 0.77714596973225614 0 0.62932038083071107 0.62932038083071107 0 -0.77714596973225614 forward_v I I I I #
loop $-1 $-1 $234 $54 #
coedge $-1 $140 $140 $141 $235 reversed $85 $-1 #
coedge $-1 $141 $141 $140 $235 forward $87 $-1 #
coedge $-1 $142 $142 $88 $143 forward $137 $-1 #
edge $-1 $236 0 $236 6.2831853071796004 $142 $237 forward 7 unknown #
loop $-1 $-1 $149 $89 #
plane-surface $-1 -16.494534953723004 10.675518736265829 100.08634459139527 0.77714596973225614 0 0.62932038083071107 0.62932038083071107 0 -0.77714596973225614 forward_v I I I I #
loop $-1 $-1 $238 $57 #
coedge $-1 $147 $147 $148 $239 reversed $90 $-1 #
coedge $-1 $148 $148 $147 $239 forward $92 $-1 #
coedge $-1 $149 $149 $93 $150 forward $144 $-1 #
edge $-1 $240 0 $240 6.2831853071796004 $149 $241 forward 7 unknown #
face $-1 $242 $243 $32 $-1 $244 reversed single #
loop $-1 $-1 $245 $94 #
plane-surface $-1 -173.10375568734284 -0.94262827848767472 66.244188270776419 0 -1 0 0.85716730853699208 0 -0.51503806187062418 forward_v I I I I #
coedge $-1 $246 $247 $248 $249 reversed $95 $-1 #
coedge $-1 $156 $97 $250 $251 reversed $61 $-1 #
coedge $-1 $97 $155 $246 $252 reversed $61 $-1 #
coedge $-1 $248 $253 $97 $158 forward $254 $-1 #
edge $-1 $255 22.777958961869608 $256 26.787719061648204 $157 $257 forward 7 unknown #
loop $-1 $-1 $164 $98 #
plane-surface $-1 -63.773918881801805 -5.03236132462143 0.55219711322119736 -0.85716730853699208 0 0.51503806187062418 0.51503806187062418 0 0.85716730853699208 forward_v I I I I #
loop $-1 $-1 $258 $63 #
coedge $-1 $162 $162 $163 $259 reversed $99 $-1 #
coedge $-1 $163 $163 $162 $259 forward $101 $-1 #
coedge $-1 $164 $164 $102 $165 forward $159 $-1 #
edge $-1 $260 0 $260 6.2831853071796004 $164 $261 forward 7 unknown #
loop $-1 $-1 $171 $103 #
plane-surface $-1 -63.773918881801805 -5.03236132462143 0.55219711322119736 -0.85716730853699208 0 0.51503806187062418 0.51503806187062418 0 0.85716730853699208 forward_v I I I I #
loop $-1 $-1 $262 $66 #
coedge $-1 $169 $169 $170 $263 reversed $104 $-1 #
coedge $-1 $170 $170 $169 $263 forward $106 $-1 #
coedge $-1 $171 $171 $107 $172 forward $166 $-1 #
edge $-1 $264 0 $264 6.2831853071796004 $171 $265 forward 7 unknown #
loop $-1 $-1 $178 $108 #
plane-surface $-1 -63.773918881801805 -5.03236132462143 0.55219711322119736 -0.85716730853699208 0 0.51503806187062418 0.51503806187062418 0 0.85716730853699208 forward_v I I I I #
loop $-1 $-1 $266 $69 #
coedge $-1 $176 $176 $177 $267 reversed $109 $-1 #
coedge $-1 $177 $177 $176 $267 forward $111 $-1 #
coedge $-1 $178 $178 $112 $179 forward $173 $-1 #
edge $-1 $268 0 $268 6.2831853071796004 $178 $269 forward 7 unknown #
face $-1 $270 $271 $27 $-1 $272 reversed single #
loop $-1 $-1 $273 $113 #
plane-surface $-1 -63.773918881801812 0 0 1 0 0 0 0 -1 forward_v I I I I #
coedge $-1 $274 $191 $275 $276 forward $114 $-1 #
coedge $-1 $277 $116 $274 $278 forward $73 $-1 #
coedge $-1 $116 $277 $279 $280 forward $73 $-1 #
coedge $-1 $194 $193 $116 $187 reversed $195 $-1 #
edge $-1 $281 -26.36671144369474 $282 26.36671144369474 $186 $283 forward 7 unknown #
coedge $-1 $118 $117 $284 $285 forward $46 $-1 #
coedge $-1 $286 $287 $117 $190 reversed $271 $-1 #
edge $-1 $197 -63.773918881801812 $288 63.773918881801812 $189 $289 forward 7 unknown #
coedge $-1 $183 $290 $118 $192 reversed $114 $-1 #
edge $-1 $291 -63.773918881801812 $196 63.773918881801812 $191 $292 forward 7 unknown #
coedge $-1 $186 $119 $290 $293 forward $195 $-1 #
coedge $-1 $119 $186 $286 $294 reversed $195 $-1 #
loop $-1 $-1 $193 $270 #
vertex $-1 $120 $295 #
vertex $-1 $120 $296 #
straight-curve $-1 63.773918881801812 0 7.2255588063801053 0 1 0 I I #
face $-1 $297 $298 $28 $-1 $299 reversed single #
loop $-1 $-1 $300 $121 #
plane-surface $-1 -63.773918881801812 0 0 1 0 0 0 0 -1 forward_v I I I I #
coedge $-1 $301 $208 $213 $302 reversed $122 $-1 #
coedge $-1 $303 $124 $304 $305 reversed $77 $-1 #
coedge $-1 $124 $303 $301 $306 forward $77 $-1 #
coedge $-1 $213 $212 $124 $206 forward $214 $-1 #
edge $-1 $307 -14.826197335429214 $308 -8.2548308811018387 $205 $309 forward 7 unknown #
coedge $-1 $126 $125 $300 $310 reversed $49 $-1 #
coedge $-1 $202 $311 $125 $209 reversed $122 $-1 #
edge $-1 $215 -63.773918881801812 $312 63.773918881801812 $208 $313 forward 7 unknown #
coedge $-1 $314 $315 $126 $211 forward $298 $-1 #
edge $-1 $216 -63.773918881801812 $316 63.773918881801812 $210 $317 forward 7 unknown #
coedge $-1 $205 $127 $315 $318 forward $214 $-1 #
coedge $-1 $127 $205 $202 $302 forward $214 $-1 #
loop $-1 $-1 $127 $297 #
vertex $-1 $128 $319 #
vertex $-1 $318 $320 #
straight-curve $-1 63.773918881801812 -11.540514108265526 6.2659113267622111 0 -1 0 I I #
face $-1 $-1 $230 $29 $-1 $321 reversed single #
loop $-1 $-1 $322 $129 #
plane-surface $-1 0 0 7.2255588063801053 0 0 1 1 0 0 forward_v I I I I #
coedge $-1 $323 $324 $325 $326 reversed $130 $-1 #
coedge $-1 $327 $132 $134 $228 forward $81 $-1 #
coedge $-1 $132 $327 $323 $328 forward $81 $-1 #
coedge $-1 $325 $135 $132 $225 forward $230 $-1 #
edge $-1 $232 -1.164261073893373 $329 11.8397798101592 $224 $330 forward 7 unknown #
coedge $-1 $331 $332 $133 $227 forward $219 $-1 #
edge $-1 $333 17.388268106960894 $231 22.459542325639198 $226 $334 forward 7 unknown #
edge $-1 $232 -127.54783776360367 $333 -119.48950313286414 $134 $335 forward 7 unknown #
coedge $-1 $135 $325 $331 $336 reversed $230 $-1 #
loop $-1 $-1 $325 $218 #
vertex $-1 $336 $337 #
vertex $-1 $136 $338 #
straight-curve $-1 63.773918881801812 4.1734982942395416 90.177399213460035 0 0 -1 I I #
coedge $-1 $234 $234 $-1 $339 reversed $139 $-1 #
edge $-1 $340 0 $340 6.2831853071796004 $140 $341 forward 7 unknown #
vertex $-1 $143 $342 #
ellipse-curve $-1 61.238281772462656 7.8889385468259903 4.0943076658635622 0.77714596973225614 0 0.62932038083071107 0.9439805712460666 0 -1.1657189545983841 1 I I #
coedge $-1 $238 $238 $-1 $343 reversed $146 $-1 #
edge $-1 $344 0 $344 6.2831853071796004 $147 $345 forward 7 unknown #
vertex $-1 $150 $346 #
ellipse-curve $-1 61.238281772462656 13.462098925705661 4.0943076658635622 0.77714596973225614 0 0.62932038083071107 0.9439805712460666 0 -1.1657189545983841 1 I I #
face $-1 $-1 $254 $32 $-1 $347 forward single #
loop $-1 $-1 $348 $151 #
plane-surface $-1 -63.773918881801812 0 0 1 0 0 0 0 -1 forward_v I I I I #
coedge $-1 $349 $350 $351 $352 reversed $152 $-1 #
coedge $-1 $353 $154 $156 $252 forward $95 $-1 #
coedge $-1 $154 $353 $349 $354 forward $95 $-1 #
coedge $-1 $351 $157 $154 $249 forward $254 $-1 #
edge $-1 $256 -6.6059137084444703 $355 1.5735523838230403 $248 $356 forward 7 unknown #
coedge $-1 $357 $358 $155 $251 forward $243 $-1 #
edge $-1 $359 -32.569897022167027 $255 -25.896535329008103 $250 $360 forward 7 unknown #
edge $-1 $256 -7.7853665517750121 $359 1.3842187171284396e-014 $156 $361 forward 7 unknown #
coedge $-1 $157 $351 $357 $362 forward $254 $-1 #
loop $-1 $-1 $351 $242 #
vertex $-1 $251 $363 #
vertex $-1 $158 $364 #
straight-curve $-1 -86.55187784367142 -9.1220943707551854 7.2255588063801071 1 0 0 I I #
coedge $-1 $258 $258 $-1 $365 reversed $161 $-1 #
edge $-1 $366 0 $366 6.2831853071796004 $162 $367 forward 7 unknown #
vertex $-1 $165 $368 #
ellipse-curve $-1 -61.769038831912511 -7.4862011523016818 3.8888779598006531 -0.85716730853699208 0 0.51503806187062418 0.25751903093531209 0 0.42858365426849604 1 I I #
coedge $-1 $262 $262 $-1 $369 reversed $168 $-1 #
edge $-1 $370 0 $370 6.2831853071796004 $169 $371 forward 7 unknown #
vertex $-1 $172 $372 #
ellipse-curve $-1 -61.769038831912511 -5.0323613246214265 3.8888779598006531 -0.85716730853699208 0 0.51503806187062418 0.25751903093531209 0 0.42858365426849604 1 I I #
coedge $-1 $266 $266 $-1 $373 reversed $175 $-1 #
edge $-1 $374 0 $374 6.2831853071796004 $176 $375 forward 7 unknown #
vertex $-1 $179 $376 #
ellipse-curve $-1 -61.769038831912511 -2.5785214969411712 3.8888779598006531 -0.85716730853699208 0 0.51503806187062418 0.25751903093531209 0 0.42858365426849604 1 I I #
face $-1 $-1 $195 $27 $-1 $377 reversed single #
loop $-1 $-1 $286 $180 #
plane-surface $-1 0 26.36671144369474 0 0 -1 0 0 0 -1 forward_v I I I I #
coedge $-1 $378 $284 $287 $379 forward $181 $-1 #
coedge $-1 $290 $183 $184 $278 reversed $114 $-1 #
coedge $-1 $284 $378 $183 $276 reversed $181 $-1 #
edge $-1 $291 -7.2255588063801053 $380 7.2255588063801053 $275 $381 forward 7 unknown #
coedge $-1 $185 $184 $378 $382 forward $73 $-1 #
edge $-1 $282 -63.773918881801812 $380 63.773918881801812 $274 $383 forward 7 unknown #
coedge $-1 $287 $286 $185 $280 reversed $271 $-1 #
edge $-1 $384 -63.773918881801812 $281 63.773918881801812 $279 $385 forward 7 unknown #
vertex $-1 $187 $386 #
vertex $-1 $293 $387 #
straight-curve $-1 63.773918881801812 0 -7.2255588063801053 0 -1 0 I I #
coedge $-1 $273 $275 $188 $285 reversed $181 $-1 #
edge $-1 $288 -26.36671144369474 $291 26.36671144369474 $284 $388 forward 7 unknown #
coedge $-1 $279 $189 $194 $294 forward $271 $-1 #
coedge $-1 $189 $279 $273 $379 reversed $271 $-1 #
vertex $-1 $190 $389 #
straight-curve $-1 0 26.36671144369474 7.2255588063801053 -1 0 0 I I #
coedge $-1 $191 $274 $193 $293 reversed $114 $-1 #
vertex $-1 $285 $390 #
straight-curve $-1 0 -26.36671144369474 7.2255588063801053 1 0 0 I I #
edge $-1 $196 -7.2255588063801053 $282 7.2255588063801053 $193 $391 forward 7 unknown #
edge $-1 $197 -7.2255588063801053 $281 7.2255588063801053 $194 $392 forward 7 unknown #
point $-1 63.773918881801812 -26.36671144369474 7.2255588063801053 #
point $-1 63.773918881801812 26.36671144369474 7.2255588063801053 #
face $-1 $-1 $214 $28 $-1 $393 reversed single #
loop $-1 $-1 $210 $199 #
plane-surface $-1 0 -26.36671144369474 0 0 1 0 0 0 1 forward_v I I I I #
coedge $-1 $394 $395 $207 $310 forward $200 $-1 #
coedge $-1 $311 $202 $204 $306 reversed $122 $-1 #
edge $-1 $308 0.88295566338110554 $215 3.8829556633811055 $213 $396 forward 7 unknown #
coedge $-1 $204 $203 $397 $398 reversed $77 $-1 #
coedge $-1 $315 $314 $203 $305 forward $298 $-1 #
edge $-1 $399 -63.773918881801812 $307 63.773918881801812 $304 $400 forward 7 unknown #
edge $-1 $401 -63.773918881801812 $308 63.773918881801812 $301 $402 forward 7 unknown #
vertex $-1 $305 $403 #
vertex $-1 $206 $404 #
straight-curve $-1 63.773918881801812 -11.540514108265526 3.2659113267622111 0 1 0 I I #
edge $-1 $316 -14.826197335429214 $312 -8.2548308811018387 $300 $405 forward 7 unknown #
coedge $-1 $208 $301 $394 $406 reversed $122 $-1 #
vertex $-1 $310 $407 #
straight-curve $-1 0 -19.795344989367365 6.2659113267622111 -1 0 0 I I #
coedge $-1 $304 $210 $395 $408 forward $298 $-1 #
coedge $-1 $210 $304 $212 $318 reversed $298 $-1 #
vertex $-1 $408 $409 #
straight-curve $-1 0 -26.36671144369474 6.2659113267622111 -1 0 0 I I #
edge $-1 $216 -6.2659113267622111 $307 -3.2659113267622111 $212 $410 forward 7 unknown #
point $-1 63.773918881801812 -19.795344989367365 6.2659113267622111 #
point $-1 63.773918881801812 -26.36671144369474 6.2659113267622111 #
plane-surface $-1 63.773918881801812 0 0 -1 0 0 0 0 1 forward_v I I I I #
coedge $-1 $332 $331 $324 $411 forward $219 $-1 #
coedge $-1 $324 $221 $223 $328 reversed $130 $-1 #
coedge $-1 $221 $323 $322 $411 reversed $130 $-1 #
coedge $-1 $229 $224 $221 $326 forward $230 $-1 #
edge $-1 $329 -89.214342688113007 $412 -82.951840407079928 $325 $413 forward 7 unknown #
coedge $-1 $223 $222 $332 $414 reversed $81 $-1 #
edge $-1 $415 119.48950313286414 $329 127.54783776360367 $323 $416 forward 7 unknown #
vertex $-1 $225 $417 #
straight-curve $-1 63.773918881801805 5.3377593681329145 0.96305652534702091 0 1 0 I I #
coedge $-1 $322 $226 $229 $336 forward $219 $-1 #
coedge $-1 $226 $322 $327 $414 forward $219 $-1 #
vertex $-1 $227 $418 #
straight-curve $-1 41.314376556162614 4.1734982942395416 7.2255588063801071 1 0 0 I I #
straight-curve $-1 -16.494534953723004 4.1734982942395416 100.08634459139527 -0.62932038083071107 0 0.77714596973225614 I I #
edge $-1 $231 4.1734982942395416 $412 17.177539178292115 $229 $419 forward 7 unknown #
point $-1 63.773918881801812 4.1734982942395416 7.2255588063801053 #
point $-1 63.773918881801805 4.1734982942395416 0.96305652534702801 #
edge $-1 $420 1 $420 0 $234 $-1 forward 7 unknown #
vertex $-1 $235 $421 #
ellipse-curve $-1 58.354775418261561 7.8889385468259903 1.759290323395972 0.77714596973225614 0 0.62932038083071107 0.9439805712460666 0 -1.1657189545983841 1 I I #
point $-1 62.18226234370875 7.8889385468259903 2.9285887112651974 #
edge $-1 $422 1 $422 0 $238 $-1 forward 7 unknown #
vertex $-1 $239 $423 #
ellipse-curve $-1 58.354775418261561 13.462098925705661 1.759290323395972 0.77714596973225614 0 0.62932038083071107 0.9439805712460666 0 -1.1657189545983841 1 I I #
point $-1 62.18226234370875 13.462098925705661 2.9285887112651974 #
plane-surface $-1 0 0 7.2255588063801053 0 0 1 1 0 0 forward_v I I I I #
coedge $-1 $358 $357 $350 $424 forward $243 $-1 #
coedge $-1 $350 $245 $247 $354 reversed $152 $-1 #
coedge $-1 $245 $349 $348 $424 reversed $152 $-1 #
coedge $-1 $253 $248 $245 $352 forward $254 $-1 #
edge $-1 $355 -26.787719061648204 $425 -22.777958961869608 $351 $426 forward 7 unknown #
coedge $-1 $247 $246 $358 $427 reversed $95 $-1 #
edge $-1 $428 -1.3842187171284396e-014 $355 7.7853665517750121 $349 $429 forward 7 unknown #
vertex $-1 $249 $430 #
straight-curve $-1 -59.764158782023216 -2.516180662310715 7.2255588063801053 0 1 0 I I #
coedge $-1 $348 $250 $253 $362 reversed $243 $-1 #
coedge $-1 $250 $348 $353 $427 forward $243 $-1 #
vertex $-1 $251 $431 #
straight-curve $-1 -63.773918881801812 -9.1220943707551854 33.12209413538821 0 0 1 I I #
straight-curve $-1 -63.773918881801805 -9.1220943707551854 0.55219711322119736 -0.51503806187062418 0 -0.85716730853699208 I I #
edge $-1 $425 0.94262827848767472 $255 9.1220943707551854 $357 $432 forward 7 unknown #
point $-1 -63.773918881801812 -9.1220943707551854 7.2255588063801053 #
point $-1 -59.764158782023216 -9.1220943707551854 7.2255588063801053 #
edge $-1 $433 1 $433 0 $258 $-1 forward 7 unknown #
vertex $-1 $259 $434 #
ellipse-curve $-1 -60.062159663397551 -7.4862011523016818 2.8632815213413472 -0.85716730853699208 0 0.51503806187062418 0.25751903093531209 0 0.42858365426849604 1 I I #
point $-1 -61.511519800977219 -7.4862011523016818 4.317461614069158 #
edge $-1 $435 1 $435 0 $262 $-1 forward 7 unknown #
vertex $-1 $263 $436 #
ellipse-curve $-1 -60.062159663397551 -5.0323613246214265 2.8632815213413472 -0.85716730853699208 0 0.51503806187062418 0.25751903093531209 0 0.42858365426849604 1 I I #
point $-1 -61.511519800977219 -5.0323613246214265 4.317461614069158 #
edge $-1 $437 1 $437 0 $266 $-1 forward 7 unknown #
vertex $-1 $267 $438 #
ellipse-curve $-1 -60.062159663397551 -2.5785214969411712 2.8632815213413472 -0.85716730853699208 0 0.51503806187062418 0.25751903093531209 0 0.42858365426849604 1 I I #
point $-1 -61.511519800977219 -2.5785214969411712 4.317461614069158 #
plane-surface $-1 63.773918881801812 0 0 -1 0 0 0 0 1 forward_v I I I I #
coedge $-1 $275 $273 $277 $382 reversed $181 $-1 #
edge $-1 $288 -7.2255588063801053 $384 7.2255588063801053 $287 $439 forward 7 unknown #
vertex $-1 $382 $440 #
straight-curve $-1 -63.773918881801812 -26.36671144369474 0 0 0 -1 I I #
edge $-1 $380 -26.36671144369474 $384 26.36671144369474 $378 $441 forward 7 unknown #
straight-curve $-1 0 -26.36671144369474 -7.2255588063801053 -1 0 0 I I #
vertex $-1 $280 $442 #
straight-curve $-1 0 26.36671144369474 -7.2255588063801053 1 0 0 I I #
point $-1 63.773918881801812 26.36671144369474 -7.2255588063801053 #
point $-1 63.773918881801812 -26.36671144369474 -7.2255588063801053 #
straight-curve $-1 -63.773918881801812 0 7.2255588063801053 0 -1 0 I I #
point $-1 -63.773918881801812 26.36671144369474 7.2255588063801053 #
point $-1 -63.773918881801812 -26.36671144369474 7.2255588063801053 #
straight-curve $-1 63.773918881801812 -26.36671144369474 0 0 0 -1 I I #
straight-curve $-1 63.773918881801812 26.36671144369474 0 0 0 -1 I I #
plane-surface $-1 63.773918881801812 0 0 -1 0 0 0 0 1 forward_v I I I I #
coedge $-1 $397 $300 $311 $406 forward $200 $-1 #
coedge $-1 $300 $397 $314 $408 reversed $200 $-1 #
straight-curve $-1 63.773918881801812 -19.795344989367365 2.3829556633811055 0 0 1 I I #
coedge $-1 $395 $394 $303 $398 forward $200 $-1 #
edge $-1 $401 8.2548308811018387 $399 14.826197335429214 $397 $443 forward 7 unknown #
vertex $-1 $305 $444 #
straight-curve $-1 0 -26.36671144369474 3.2659113267622111 1 0 0 I I #
vertex $-1 $398 $445 #
straight-curve $-1 0 -19.795344989367365 3.2659113267622111 1 0 0 I I #
point $-1 63.773918881801812 -26.36671144369474 3.2659113267622111 #
point $-1 63.773918881801812 -19.795344989367365 3.2659113267622111 #
straight-curve $-1 -63.773918881801812 -11.540514108265526 6.2659113267622111 0 1 0 I I #
edge $-1 $312 -3.8829556633811055 $401 -0.88295566338110554 $394 $446 forward 7 unknown #
point $-1 -63.773918881801812 -19.795344989367365 6.2659113267622111 #
edge $-1 $316 -6.2659113267622111 $399 -3.2659113267622111 $395 $447 forward 7 unknown #
point $-1 -63.773918881801812 -26.36671144369474 6.2659113267622111 #
straight-curve $-1 63.773918881801812 -26.36671144369474 0 0 0 -1 I I #
edge $-1 $412 -22.459542325639198 $415 -17.388268106960894 $322 $448 forward 7 unknown #
vertex $-1 $411 $449 #
straight-curve $-1 63.773918881801812 17.177539178292115 90.177399213460035 0 0 1 I I #
edge $-1 $415 -11.8397798101592 $333 1.164261073893373 $332 $450 forward 7 unknown #
vertex $-1 $414 $451 #
straight-curve $-1 -16.494534953723004 17.177539178292115 100.08634459139527 0.62932038083071107 0 -0.77714596973225614 I I #
point $-1 63.773918881801805 17.177539178292115 0.96305652534702801 #
point $-1 58.702644663123507 4.1734982942395416 7.2255588063801071 #
straight-curve $-1 63.773918881801812 0 7.2255588063801053 0 1 0 I I #
vertex $-1 $339 $452 #
point $-1 59.298755989507626 7.8889385468259903 0.59357136879758787 #
vertex $-1 $343 $453 #
point $-1 59.298755989507626 13.462098925705661 0.59357136879758787 #
edge $-1 $425 25.896535329008103 $428 32.569897022167027 $348 $454 forward 7 unknown #
vertex $-1 $362 $455 #
straight-curve $-1 -86.55187784367142 -0.94262827848767472 7.2255588063801071 -1 0 0 I I #
edge $-1 $428 -1.5735523838230403 $359 6.6059137084444703 $358 $456 forward 7 unknown #
vertex $-1 $427 $457 #
straight-curve $-1 -63.773918881801805 -0.94262827848767472 0.55219711322119736 0.51503806187062418 0 0.85716730853699208 I I #
point $-1 -59.764158782023216 -0.94262827848767472 7.2255588063801053 #
point $-1 -63.773918881801812 -9.1220943707551854 0.55219711322118548 #
straight-curve $-1 -63.773918881801812 0 7.2255588063801053 0 -1 0 I I #
vertex $-1 $365 $458 #
point $-1 -59.804640632462238 -7.4862011523016818 3.2918651756098432 #
vertex $-1 $369 $459 #
point $-1 -59.804640632462238 -5.0323613246214265 3.2918651756098432 #
vertex $-1 $373 $460 #
point $-1 -59.804640632462238 -2.5785214969411712 3.2918651756098432 #
straight-curve $-1 -63.773918881801812 26.36671144369474 0 0 0 -1 I I #
point $-1 -63.773918881801812 -26.36671144369474 -7.2255588063801053 #
straight-curve $-1 -63.773918881801812 0 -7.2255588063801053 0 1 0 I I #
point $-1 -63.773918881801812 26.36671144369474 -7.2255588063801053 #
straight-curve $-1 -63.773918881801812 -11.540514108265526 3.2659113267622111 0 -1 0 I I #
point $-1 -63.773918881801812 -26.36671144369474 3.2659113267622111 #
point $-1 -63.773918881801812 -19.795344989367365 3.2659113267622111 #
straight-curve $-1 -63.773918881801812 -19.795344989367365 2.3829556633811055 0 0 -1 I I #
straight-curve $-1 -63.773918881801812 -26.36671144369474 0 0 0 -1 I I #
straight-curve $-1 41.314376556162614 17.177539178292115 7.2255588063801071 -1 0 0 I I #
point $-1 63.773918881801812 17.177539178292115 7.2255588063801053 #
straight-curve $-1 58.7026446631235 5.3377593681329145 7.2255588063801 0 -1 0 I I #
point $-1 58.702644663123507 17.177539178292115 7.2255588063801071 #
point $-1 57.189056463663171 7.8889385468259903 0.81530975214990531 #
point $-1 57.189056463663171 13.462098925705661 0.81530975214990531 #
straight-curve $-1 -63.773918881801812 -0.94262827848767472 33.12209413538821 0 0 -1 I I #
point $-1 -63.773918881801812 -0.94262827848767472 7.2255588063801053 #
straight-curve $-1 -63.773918881801812 -2.516180662310715 0.55219711322117371 0 -1 0 I I #
point $-1 -63.773918881801812 -0.94262827848767472 0.55219711322118548 #
point $-1 -59.633576009129058 -7.4862011523016818 2.6057624904060348 #
point $-1 -59.633576009129058 -5.0323613246214265 2.6057624904060348 #
point $-1 -59.633576009129058 -2.5785214969411712 2.6057624904060348 #
End-of-ACIS-data 