500 0 4 0           
7 Unknown 11 ACIS 5.0 NT 24 Thu Mar 25 22:06:03 1999 
-1 9.9999999999999995e-007 1e-010 
body $-1 $4 $-1 $5 #
body $-1 $6 $-1 $7 #
body $-1 $8 $-1 $9 #
body $-1 $10 $-1 $11 #
lump $-1 $-1 $12 $0 #
transform $-1 1 0 0 0 1 0 0 0 1 58.955656605731377 24.545215229205834 9.1549974805524474 1 rotate no_reflect no_shear #
lump $-1 $-1 $13 $1 #
transform $-1 1 0 0 0 1 0 0 0 1 58.955656605731377 24.545215229205834 9.1549974805524474 1 rotate no_reflect no_shear #
lump $-1 $-1 $14 $2 #
transform $-1 1 0 0 0 1 0 0 0 1 58.955656605731377 24.545215229205834 9.1549974805524474 1 rotate no_reflect no_shear #
lump $-1 $-1 $15 $3 #
transform $-1 1 0 0 0 1 0 0 0 1 58.955656605731377 24.545215229205834 9.1549974805524474 1 rotate no_reflect no_shear #
shell $-1 $-1 $-1 $16 $-1 $4 #
shell $-1 $-1 $-1 $17 $-1 $6 #
shell $-1 $-1 $-1 $18 $-1 $8 #
shell $-1 $-1 $-1 $19 $-1 $10 #
face $-1 $20 $21 $12 $-1 $22 forward single #
face $-1 $23 $24 $13 $-1 $25 forward single #
face $-1 $26 $27 $14 $-1 $28 reversed single #
face $-1 $29 $30 $15 $-1 $31 forward single #
face $-1 $32 $33 $12 $-1 $34 reversed single #
loop $-1 $-1 $35 $16 #
plane-surface $-1 0 0 9.1549974805524474 0 0 1 1 0 0 forward_v I I I I #
face $-1 $36 $37 $13 $-1 $38 reversed single #
loop $-1 $-1 $39 $17 #
plane-surface $-1 0 -20.515756257845851 -6.1549974805524474 0 0 1 1 0 0 forward_v I I I I #
face $-1 $40 $41 $14 $-1 $42 reversed single #
loop $-1 $-1 $43 $18 #
plane-surface $-1 67.682772439219846 -4.0701999759717209 167.19459565718452 0 -1 0 -0.74314483375859142 0 -0.66913059716165679 forward_v I I I I #
face $-1 $44 $45 $15 $-1 $46 forward single #
loop $-1 $47 $48 $19 #
cone-surface $-1 53.861985083240498 -9.0644933973256947 3.7657736836560392 -0.74314483375859142 0 -0.66913059716165679 0.66913059716165679 0 -0.74314483375859142 1 I I 0 1 1 forward I I I I #
face $-1 $49 $50 $12 $-1 $51 reversed single #
loop $-1 $-1 $52 $20 #
plane-surface $-1 0 0 -9.1549974805524474 0 0 1 1 0 0 forward_v I I I I #
coedge $-1 $53 $54 $55 $56 forward $21 $-1 #
face $-1 $57 $58 $13 $-1 $59 reversed single #
loop $-1 $-1 $60 $23 #
plane-surface $-1 0 -16.486297286485865 -7.6549974805524474 0 -1 0 0 0 -1 forward_v I I I I #
coedge $-1 $61 $62 $63 $64 reversed $24 $-1 #
face $-1 $65 $66 $14 $-1 $67 reversed single #
loop $-1 $-1 $68 $26 #
plane-surface $-1 -19.942410815569843 -9.0644933973256947 88.296528235883301 0.74314483375859142 0 0.66913059716165679 0.66913059716165679 0 -0.74314483375859142 forward_v I I I I #
coedge $-1 $69 $70 $71 $72 reversed $27 $-1 #
face $-1 $-1 $73 $15 $-1 $74 forward single #
loop $-1 $75 $76 $29 #
cone-surface $-1 52.216098559277526 -9.0644933973256947 2.2838108379082254 -0.74314483375859142 0 -0.66913059716165679 0.3345652985808284 0 -0.37157241687929571 1 I I -0.70710678118654746 0.70710678118654746 0.5 forward I I I I #
loop $-1 $-1 $77 $19 #
coedge $-1 $48 $48 $78 $79 reversed $30 $-1 #
face $-1 $80 $81 $12 $-1 $82 reversed single #
loop $-1 $-1 $83 $32 #
plane-surface $-1 0 -24.545215229205834 0 0 1 0 0 0 1 forward_v I I I I #
coedge $-1 $84 $85 $86 $87 forward $33 $-1 #
coedge $-1 $88 $35 $89 $90 forward $21 $-1 #
coedge $-1 $35 $88 $91 $92 forward $21 $-1 #
coedge $-1 $93 $94 $35 $56 reversed $95 $-1 #
edge $-1 $96 -24.545215229205834 $97 24.545215229205834 $55 $98 forward 7 unknown #
face $-1 $99 $100 $13 $-1 $101 reversed single #
loop $-1 $-1 $102 $36 #
plane-surface $-1 0 0 -9.1549974805524474 0 0 1 1 0 0 forward_v I I I I #
coedge $-1 $103 $104 $105 $106 reversed $37 $-1 #
coedge $-1 $107 $39 $104 $108 forward $24 $-1 #
coedge $-1 $39 $107 $109 $110 reversed $24 $-1 #
coedge $-1 $111 $105 $39 $64 forward $100 $-1 #
edge $-1 $112 6.2284191575629393 $113 14.287337100282912 $63 $114 forward 7 unknown #
face $-1 $115 $116 $14 $-1 $117 reversed single #
loop $-1 $-1 $118 $40 #
plane-surface $-1 67.682772439219846 -14.058786818679668 167.19459565718452 0 1 0 0.74314483375859142 0 0.66913059716165679 forward_v I I I I #
coedge $-1 $119 $120 $121 $122 reversed $41 $-1 #
coedge $-1 $70 $43 $123 $124 reversed $27 $-1 #
coedge $-1 $43 $69 $119 $125 reversed $27 $-1 #
coedge $-1 $121 $126 $43 $72 forward $127 $-1 #
edge $-1 $128 -25.114270386121454 $129 -17.475555555307018 $71 $130 forward 7 unknown #
loop $-1 $-1 $78 $44 #
plane-surface $-1 -19.942410815569843 -9.0644933973256947 88.296528235883301 0.74314483375859142 0 0.66913059716165679 0.66913059716165679 0 -0.74314483375859142 forward_v I I I I #
loop $-1 $-1 $131 $29 #
coedge $-1 $76 $76 $77 $132 reversed $45 $-1 #
coedge $-1 $77 $77 $76 $132 forward $47 $-1 #
coedge $-1 $78 $78 $48 $79 forward $73 $-1 #
edge $-1 $133 0 $133 6.2831853071796004 $78 $134 forward 7 unknown #
face $-1 $135 $136 $12 $-1 $137 reversed single #
loop $-1 $-1 $138 $49 #
plane-surface $-1 -58.955656605731377 0 0 1 0 0 0 0 -1 forward_v I I I I #
coedge $-1 $139 $91 $140 $141 forward $50 $-1 #
coedge $-1 $142 $52 $139 $143 forward $33 $-1 #
coedge $-1 $52 $142 $144 $145 forward $33 $-1 #
coedge $-1 $94 $93 $52 $87 reversed $95 $-1 #
edge $-1 $146 -24.545215229205834 $147 24.545215229205834 $86 $148 forward 7 unknown #
coedge $-1 $54 $53 $149 $150 forward $21 $-1 #
coedge $-1 $151 $152 $53 $90 reversed $136 $-1 #
edge $-1 $97 -58.955656605731377 $153 58.955656605731377 $89 $154 forward 7 unknown #
coedge $-1 $83 $155 $54 $92 reversed $50 $-1 #
edge $-1 $156 -58.955656605731377 $96 58.955656605731377 $91 $157 forward 7 unknown #
coedge $-1 $86 $55 $155 $158 forward $95 $-1 #
coedge $-1 $55 $86 $151 $159 reversed $95 $-1 #
loop $-1 $-1 $93 $135 #
vertex $-1 $56 $160 #
vertex $-1 $56 $161 #
straight-curve $-1 58.955656605731377 0 9.1549974805524474 0 1 0 I I #
face $-1 $162 $163 $13 $-1 $164 reversed single #
loop $-1 $-1 $105 $57 #
plane-surface $-1 58.955656605731377 0 0 -1 0 0 0 0 1 forward_v I I I I #
coedge $-1 $165 $166 $103 $167 forward $58 $-1 #
coedge $-1 $168 $60 $102 $167 reversed $37 $-1 #
coedge $-1 $60 $168 $61 $108 reversed $37 $-1 #
coedge $-1 $63 $169 $60 $106 forward $100 $-1 #
edge $-1 $170 -5.3274987402762237 $112 -2.3274987402762237 $105 $171 forward 7 unknown #
coedge $-1 $62 $61 $172 $173 reversed $24 $-1 #
edge $-1 $112 -58.955656605731377 $174 58.955656605731377 $104 $175 forward 7 unknown #
coedge $-1 $176 $177 $62 $110 forward $163 $-1 #
edge $-1 $113 -58.955656605731377 $178 58.955656605731377 $109 $179 forward 7 unknown #
coedge $-1 $169 $63 $177 $180 forward $100 $-1 #
vertex $-1 $64 $181 #
vertex $-1 $180 $182 #
straight-curve $-1 58.955656605731377 -10.257878128922925 -6.1549974805524474 0 -1 0 I I #
face $-1 $-1 $127 $14 $-1 $183 forward single #
loop $-1 $-1 $184 $65 #
plane-surface $-1 58.955656605731377 0 0 -1 0 0 0 0 1 forward_v I I I I #
coedge $-1 $185 $186 $187 $188 reversed $66 $-1 #
coedge $-1 $189 $68 $70 $125 forward $41 $-1 #
coedge $-1 $68 $189 $185 $190 forward $41 $-1 #
coedge $-1 $187 $71 $68 $122 forward $127 $-1 #
edge $-1 $129 -0.46204672269112645 $191 9.5265401200168203 $121 $192 forward 7 unknown #
coedge $-1 $193 $194 $69 $124 forward $116 $-1 #
edge $-1 $195 -82.92595284749865 $128 -74.442300348039808 $123 $196 forward 7 unknown #
edge $-1 $129 106.49543286879627 $195 117.91131321146274 $70 $197 forward 7 unknown #
coedge $-1 $71 $187 $193 $198 forward $127 $-1 #
loop $-1 $-1 $187 $115 #
vertex $-1 $124 $199 #
vertex $-1 $72 $200 #
straight-curve $-1 33.841386219609923 -4.0701999759717209 9.1549974805524528 -1 0 0 I I #
coedge $-1 $131 $131 $-1 $201 reversed $75 $-1 #
edge $-1 $202 0 $202 6.2831853071796004 $76 $203 forward 7 unknown #
vertex $-1 $79 $204 #
ellipse-curve $-1 55.136299190324173 -9.0644933973256947 4.9131712308230195 0.74314483375859142 0 0.66913059716165679 0.66913059716165679 0 -0.74314483375859142 1 I I #
face $-1 $-1 $95 $12 $-1 $205 reversed single #
loop $-1 $-1 $151 $80 #
plane-surface $-1 0 24.545215229205834 0 0 -1 0 0 0 -1 forward_v I I I I #
coedge $-1 $206 $149 $152 $207 forward $81 $-1 #
coedge $-1 $155 $83 $84 $143 reversed $50 $-1 #
coedge $-1 $149 $206 $83 $141 reversed $81 $-1 #
edge $-1 $156 -9.1549974805524474 $208 9.1549974805524474 $140 $209 forward 7 unknown #
coedge $-1 $85 $84 $206 $210 forward $33 $-1 #
edge $-1 $147 -58.955656605731377 $208 58.955656605731377 $139 $211 forward 7 unknown #
coedge $-1 $152 $151 $85 $145 reversed $136 $-1 #
edge $-1 $212 -58.955656605731377 $146 58.955656605731377 $144 $213 forward 7 unknown #
vertex $-1 $87 $214 #
vertex $-1 $158 $215 #
straight-curve $-1 58.955656605731377 0 -9.1549974805524474 0 -1 0 I I #
coedge $-1 $138 $140 $88 $150 reversed $81 $-1 #
edge $-1 $153 -24.545215229205834 $156 24.545215229205834 $149 $216 forward 7 unknown #
coedge $-1 $144 $89 $94 $159 forward $136 $-1 #
coedge $-1 $89 $144 $138 $207 reversed $136 $-1 #
vertex $-1 $90 $217 #
straight-curve $-1 0 24.545215229205834 9.1549974805524474 -1 0 0 I I #
coedge $-1 $91 $139 $93 $158 reversed $50 $-1 #
vertex $-1 $150 $218 #
straight-curve $-1 0 -24.545215229205834 9.1549974805524474 1 0 0 I I #
edge $-1 $96 -9.1549974805524474 $147 9.1549974805524474 $93 $219 forward 7 unknown #
edge $-1 $97 -9.1549974805524474 $146 9.1549974805524474 $94 $220 forward 7 unknown #
point $-1 58.955656605731377 -24.545215229205834 9.1549974805524474 #
point $-1 58.955656605731377 24.545215229205834 9.1549974805524474 #
face $-1 $-1 $221 $13 $-1 $222 reversed single #
loop $-1 $-1 $109 $99 #
plane-surface $-1 0 -24.545215229205834 0 0 1 0 0 0 1 forward_v I I I I #
coedge $-1 $223 $102 $169 $224 forward $58 $-1 #
coedge $-1 $102 $223 $225 $226 forward $58 $-1 #
edge $-1 $227 -58.955656605731377 $170 58.955656605731377 $102 $228 forward 7 unknown #
coedge $-1 $104 $103 $229 $230 reversed $37 $-1 #
coedge $-1 $105 $111 $165 $224 reversed $100 $-1 #
vertex $-1 $224 $231 #
straight-curve $-1 58.955656605731377 -16.486297286485865 -3.8274987402762237 0 0 1 I I #
coedge $-1 $229 $232 $107 $173 forward $221 $-1 #
edge $-1 $178 -14.287337100282912 $174 -6.2284191575629393 $172 $233 forward 7 unknown #
vertex $-1 $173 $234 #
straight-curve $-1 0 -16.486297286485865 -6.1549974805524474 -1 0 0 I I #
coedge $-1 $235 $109 $232 $236 forward $163 $-1 #
coedge $-1 $109 $235 $111 $180 reversed $163 $-1 #
vertex $-1 $236 $237 #
straight-curve $-1 0 -24.545215229205834 -6.1549974805524474 -1 0 0 I I #
edge $-1 $113 6.1549974805524474 $238 9.1549974805524474 $111 $239 forward 7 unknown #
point $-1 58.955656605731377 -16.486297286485865 -6.1549974805524474 #
point $-1 58.955656605731377 -24.545215229205837 -6.1549974805524474 #
plane-surface $-1 0 0 9.1549974805524474 0 0 1 1 0 0 forward_v I I I I #
coedge $-1 $194 $193 $186 $240 forward $116 $-1 #
coedge $-1 $186 $118 $120 $190 reversed $66 $-1 #
coedge $-1 $118 $185 $184 $240 reversed $66 $-1 #
coedge $-1 $126 $121 $118 $188 forward $127 $-1 #
edge $-1 $191 17.475555555307018 $241 25.114270386121454 $187 $242 forward 7 unknown #
coedge $-1 $120 $119 $194 $243 reversed $41 $-1 #
edge $-1 $244 -117.91131321146274 $191 -106.49543286879627 $185 $245 forward 7 unknown #
vertex $-1 $122 $246 #
straight-curve $-1 51.316941774916955 -4.5322466986628474 9.1549974805524386 0 -1 0 I I #
coedge $-1 $184 $123 $126 $198 reversed $116 $-1 #
coedge $-1 $123 $184 $189 $243 forward $116 $-1 #
vertex $-1 $124 $247 #
straight-curve $-1 58.955656605731377 -4.0701999759717209 83.597297828592261 0 0 1 I I #
straight-curve $-1 -19.942410815569843 -4.0701999759717209 88.296528235883301 0.66913059716165679 0 -0.74314483375859142 I I #
edge $-1 $241 -14.058786818679668 $128 -4.0701999759717209 $193 $248 forward 7 unknown #
point $-1 58.955656605731377 -4.0701999759717209 9.1549974805524474 #
point $-1 51.316941774916941 -4.0701999759717209 9.1549974805524528 #
edge $-1 $249 1 $249 0 $131 $-1 forward 7 unknown #
vertex $-1 $132 $250 #
ellipse-curve $-1 52.587670976156822 -9.0644933973256947 2.6183761364890539 0.74314483375859142 0 0.66913059716165679 0.66913059716165679 0 -0.74314483375859142 1 I I #
point $-1 55.805429787485835 -9.0644933973256947 4.1700263970644329 #
plane-surface $-1 58.955656605731377 0 0 -1 0 0 0 0 1 forward_v I I I I #
coedge $-1 $140 $138 $142 $210 reversed $81 $-1 #
edge $-1 $153 -9.1549974805524474 $212 9.1549974805524474 $152 $251 forward 7 unknown #
vertex $-1 $210 $252 #
straight-curve $-1 -58.955656605731377 -24.545215229205834 0 0 0 -1 I I #
edge $-1 $208 -24.545215229205834 $212 24.545215229205834 $206 $253 forward 7 unknown #
straight-curve $-1 0 -24.545215229205834 -9.1549974805524474 -1 0 0 I I #
vertex $-1 $145 $254 #
straight-curve $-1 0 24.545215229205834 -9.1549974805524474 1 0 0 I I #
point $-1 58.955656605731377 24.545215229205834 -9.1549974805524474 #
point $-1 58.955656605731377 -24.545215229205834 -9.1549974805524474 #
straight-curve $-1 -58.955656605731377 0 9.1549974805524474 0 -1 0 I I #
point $-1 -58.955656605731377 24.545215229205834 9.1549974805524474 #
point $-1 -58.955656605731377 -24.545215229205834 9.1549974805524474 #
straight-curve $-1 58.955656605731377 -24.545215229205834 0 0 0 -1 I I #
straight-curve $-1 58.955656605731377 24.545215229205834 0 0 0 -1 I I #
loop $-1 $-1 $229 $162 #
plane-surface $-1 -58.955656605731377 0 0 1 0 0 0 0 -1 forward_v I I I I #
coedge $-1 $166 $165 $235 $255 forward $58 $-1 #
edge $-1 $170 16.486297286485865 $238 24.545215229205834 $169 $256 forward 7 unknown #
coedge $-1 $232 $229 $166 $226 reversed $221 $-1 #
edge $-1 $257 -24.545215229205834 $227 -16.486297286485865 $225 $258 forward 7 unknown #
vertex $-1 $230 $259 #
straight-curve $-1 0 -16.486297286485865 -9.1549974805524474 1 0 0 I I #
coedge $-1 $225 $172 $168 $230 forward $221 $-1 #
edge $-1 $174 2.3274987402762237 $227 5.3274987402762237 $229 $260 forward 7 unknown #
point $-1 58.955656605731377 -16.486297286485865 -9.1549974805524474 #
coedge $-1 $172 $225 $176 $236 reversed $221 $-1 #
straight-curve $-1 -58.955656605731377 -10.257878128922925 -6.1549974805524474 0 1 0 I I #
point $-1 -58.955656605731377 -16.486297286485865 -6.1549974805524474 #
coedge $-1 $177 $176 $223 $255 reversed $163 $-1 #
edge $-1 $178 6.1549974805524474 $257 9.1549974805524474 $232 $261 forward 7 unknown #
point $-1 -58.955656605731377 -24.545215229205837 -6.1549974805524474 #
vertex $-1 $180 $262 #
straight-curve $-1 58.955656605731377 -24.545215229205834 0 0 0 -1 I I #
edge $-1 $241 74.442300348039808 $244 82.92595284749865 $184 $263 forward 7 unknown #
vertex $-1 $198 $264 #
straight-curve $-1 33.841386219609923 -14.058786818679668 9.1549974805524528 1 0 0 I I #
edge $-1 $244 -9.5265401200168203 $195 0.46204672269112645 $194 $265 forward 7 unknown #
vertex $-1 $243 $266 #
straight-curve $-1 -19.942410815569843 -14.058786818679668 88.296528235883301 -0.66913059716165679 0 0.74314483375859142 I I #
point $-1 51.316941774916941 -14.058786818679668 9.1549974805524528 #
point $-1 58.955656605731377 -4.0701999759717209 0.67134498109361118 #
straight-curve $-1 58.955656605731377 0 9.1549974805524474 0 1 0 I I #
vertex $-1 $201 $267 #
point $-1 53.256801573318477 -9.0644933973256947 1.8752313027304623 #
straight-curve $-1 -58.955656605731377 24.545215229205834 0 0 0 -1 I I #
point $-1 -58.955656605731377 -24.545215229205834 -9.1549974805524474 #
straight-curve $-1 -58.955656605731377 0 -9.1549974805524474 0 1 0 I I #
point $-1 -58.955656605731377 24.545215229205834 -9.1549974805524474 #
edge $-1 $238 -58.955656605731377 $257 58.955656605731377 $235 $268 forward 7 unknown #
straight-curve $-1 58.955656605731377 0 -9.1549974805524474 0 -1 0 I I #
vertex $-1 $226 $269 #
straight-curve $-1 -58.955656605731377 0 -9.1549974805524474 0 1 0 I I #
point $-1 -58.955656605731377 -16.486297286485865 -9.1549974805524474 #
straight-curve $-1 -58.955656605731377 -16.486297286485865 -3.8274987402762237 0 0 -1 I I #
straight-curve $-1 -58.955656605731377 -24.545215229205834 0 0 0 -1 I I #
point $-1 58.955656605731377 -24.545215229205834 -9.1549974805524474 #
straight-curve $-1 58.955656605731377 -14.058786818679668 83.597297828592261 0 0 -1 I I #
point $-1 58.955656605731377 -14.058786818679668 9.1549974805524474 #
straight-curve $-1 58.955656605731377 -4.5322466986628474 0.67134498109361118 0 1 0 I I #
point $-1 58.955656605731377 -14.058786818679668 0.67134498109361118 #
point $-1 51.84452614239823 -9.0644933973256947 1.9492455393273969 #
straight-curve $-1 0 -24.545215229205834 -9.1549974805524474 -1 0 0 I I #
point $-1 -58.955656605731377 -24.545215229205834 -9.1549974805524474 #
End-of-ACIS-data 