500 0 9 0           
7 Unknown 11 ACIS 5.0 NT 24 Fri Mar 26 14:28:46 1999 
-1 9.9999999999999995e-007 1e-010 
body $-1 $9 $-1 $10 #
body $-1 $11 $-1 $12 #
body $-1 $13 $-1 $14 #
body $-1 $15 $-1 $16 #
body $-1 $17 $-1 $18 #
body $-1 $19 $-1 $20 #
body $-1 $21 $-1 $22 #
body $-1 $23 $-1 $24 #
body $-1 $25 $-1 $26 #
lump $-1 $-1 $27 $0 #
transform $-1 1 0 0 0 1 0 0 0 1 70.98727378154851 34.427538760707421 16.716378809067997 1 rotate no_reflect no_shear #
lump $-1 $-1 $28 $1 #
transform $-1 1 0 0 0 1 0 0 0 1 70.98727378154851 34.427538760707421 16.716378809067997 1 rotate no_reflect no_shear #
lump $-1 $-1 $29 $2 #
transform $-1 1 0 0 0 1 0 0 0 1 70.98727378154851 34.427538760707421 16.716378809067997 1 rotate no_reflect no_shear #
lump $-1 $-1 $30 $3 #
transform $-1 1 0 0 0 1 0 0 0 1 70.98727378154851 34.427538760707421 16.716378809067997 1 rotate no_reflect no_shear #
lump $-1 $-1 $31 $4 #
transform $-1 1 0 0 0 1 0 0 0 1 70.98727378154851 34.427538760707421 16.716378809067997 1 rotate no_reflect no_shear #
lump $-1 $-1 $32 $5 #
transform $-1 1 0 0 0 1 0 0 0 1 70.98727378154851 34.427538760707421 16.716378809067997 1 rotate no_reflect no_shear #
lump $-1 $-1 $33 $6 #
transform $-1 1 0 0 0 1 0 0 0 1 70.98727378154851 34.427538760707421 16.716378809067997 1 rotate no_reflect no_shear #
lump $-1 $-1 $34 $7 #
transform $-1 1 0 0 0 1 0 0 0 1 70.98727378154851 34.427538760707421 16.716378809067997 1 rotate no_reflect no_shear #
lump $-1 $-1 $35 $8 #
transform $-1 1 0 0 0 1 0 0 0 1 70.98727378154851 34.427538760707421 16.716378809067997 1 rotate no_reflect no_shear #
shell $-1 $-1 $-1 $36 $-1 $9 #
shell $-1 $-1 $-1 $37 $-1 $11 #
shell $-1 $-1 $-1 $38 $-1 $13 #
shell $-1 $-1 $-1 $39 $-1 $15 #
shell $-1 $-1 $-1 $40 $-1 $17 #
shell $-1 $-1 $-1 $41 $-1 $19 #
shell $-1 $-1 $-1 $42 $-1 $21 #
shell $-1 $-1 $-1 $43 $-1 $23 #
shell $-1 $-1 $-1 $44 $-1 $25 #
face $-1 $45 $46 $27 $-1 $47 forward single #
face $-1 $48 $49 $28 $-1 $50 forward single #
face $-1 $51 $52 $29 $-1 $53 reversed single #
face $-1 $54 $55 $30 $-1 $56 forward single #
face $-1 $57 $58 $31 $-1 $59 forward single #
face $-1 $60 $61 $32 $-1 $62 forward single #
face $-1 $63 $64 $33 $-1 $65 reversed single #
face $-1 $66 $67 $34 $-1 $68 forward single #
face $-1 $69 $70 $35 $-1 $71 forward single #
face $-1 $72 $73 $27 $-1 $74 reversed single #
loop $-1 $-1 $75 $36 #
plane-surface $-1 0 0 16.716378809067997 0 0 1 1 0 0 forward_v I I I I #
face $-1 $76 $77 $28 $-1 $78 reversed single #
loop $-1 $-1 $79 $37 #
plane-surface $-1 -62.57638495592083 0 -12.516035985905045 0 0 1 1 0 0 forward_v I I I I #
face $-1 $80 $81 $29 $-1 $82 reversed single #
loop $-1 $-1 $83 $38 #
plane-surface $-1 -50.196299467267359 64.879845910734318 161.6295896621958 1 0 0 0 -0.6018150307709319 -0.79863550430605224 forward_v I I I I #
face $-1 $84 $85 $30 $-1 $86 forward single #
loop $-1 $87 $88 $39 #
cone-surface $-1 -44.915721125828796 25.409312201757562 8.5200560307914373 0 -0.6018150307709319 -0.79863550430605224 2.5 0 0 1 I I 0 1 2.5 forward I I I I #
face $-1 $89 $90 $31 $-1 $91 forward single #
loop $-1 $92 $93 $40 #
cone-surface $-1 -36.994853613670941 25.409312201757562 8.5200560307914373 0 -0.6018150307709319 -0.79863550430605224 2.5 0 0 1 I I 0 1 2.5 forward I I I I #
face $-1 $94 $95 $32 $-1 $96 forward single #
loop $-1 $97 $98 $41 #
cone-surface $-1 -29.073986101513086 25.409312201757562 8.5200560307914373 0 -0.6018150307709319 -0.79863550430605224 2.5 0 0 1 I I 0 1 2.5 forward I I I I #
face $-1 $99 $100 $33 $-1 $101 reversed single #
loop $-1 $-1 $102 $42 #
plane-surface $-1 52.977107650874274 -34.427538760707421 0.78823027123247869 0 -0.51503808176128008 0.85716729658548041 1 0 0 forward_v I I I I #
face $-1 $103 $104 $34 $-1 $105 forward single #
loop $-1 $106 $107 $43 #
cone-surface $-1 45.258465023442469 -19.582785614756872 6.1055876392695829 0 0.51503808176128008 -0.85716729658548041 2.5 0 0 1 I I 0 1 2.5 forward I I I I #
face $-1 $108 $109 $35 $-1 $110 forward single #
loop $-1 $111 $112 $44 #
cone-surface $-1 60.695750278306093 -19.582785614756872 6.1055876392695829 0 0.51503808176128008 -0.85716729658548041 2.5 0 0 1 I I 0 1 2.5 forward I I I I #
face $-1 $113 $114 $27 $-1 $115 reversed single #
loop $-1 $-1 $116 $45 #
plane-surface $-1 0 0 -16.716378809067997 0 0 1 1 0 0 forward_v I I I I #
coedge $-1 $117 $118 $119 $120 forward $46 $-1 #
face $-1 $121 $122 $28 $-1 $123 reversed single #
loop $-1 $-1 $124 $48 #
plane-surface $-1 -54.16549613029315 0 -14.616207397486521 -1 0 0 0 0 1 forward_v I I I I #
coedge $-1 $125 $126 $127 $128 forward $49 $-1 #
face $-1 $129 $130 $29 $-1 $131 reversed single #
loop $-1 $-1 $132 $51 #
plane-surface $-1 -36.994853613670941 -20.562570799640056 48.24367527051821 0 0.6018150307709319 0.79863550430605224 1 0 0 forward_v I I I I #
coedge $-1 $133 $134 $135 $136 reversed $52 $-1 #
face $-1 $-1 $137 $30 $-1 $138 forward single #
loop $-1 $139 $140 $54 #
cone-surface $-1 -44.915721125828796 22.214804295303608 4.2808009400497724 0 -0.6018150307709319 -0.79863550430605224 1.25 0 0 1 I I -0.70710678118654746 0.70710678118654746 1.25 forward I I I I #
loop $-1 $-1 $141 $39 #
coedge $-1 $88 $88 $142 $143 reversed $55 $-1 #
face $-1 $-1 $144 $31 $-1 $145 forward single #
loop $-1 $146 $147 $57 #
cone-surface $-1 -36.994853613670941 22.214804295303608 4.2808009400497724 0 -0.6018150307709319 -0.79863550430605224 1.25 0 0 1 I I -0.70710678118654746 0.70710678118654746 1.25 forward I I I I #
loop $-1 $-1 $148 $40 #
coedge $-1 $93 $93 $149 $150 reversed $58 $-1 #
face $-1 $-1 $151 $32 $-1 $152 forward single #
loop $-1 $153 $154 $60 #
cone-surface $-1 -29.073986101513086 22.214804295303608 4.2808009400497724 0 -0.6018150307709319 -0.79863550430605224 1.25 0 0 1 I I -0.70710678118654746 0.70710678118654746 1.25 forward I I I I #
loop $-1 $-1 $155 $41 #
coedge $-1 $98 $98 $156 $157 reversed $61 $-1 #
face $-1 $158 $159 $33 $-1 $160 reversed single #
loop $-1 $-1 $161 $63 #
plane-surface $-1 34.966941520200045 -107.54983739653053 122.48416938983905 1 0 0 0 0.51503808176128008 -0.85716729658548041 forward_v I I I I #
coedge $-1 $162 $163 $164 $165 reversed $64 $-1 #
face $-1 $-1 $166 $34 $-1 $167 forward single #
loop $-1 $168 $169 $66 #
cone-surface $-1 45.258465023442469 -17.348680028308937 2.3874116176570688 0 0.51503808176128008 -0.85716729658548041 1.25 0 0 1 I I -0.70710678118654746 0.70710678118654746 1.25 forward I I I I #
loop $-1 $-1 $170 $43 #
coedge $-1 $107 $107 $171 $172 reversed $67 $-1 #
face $-1 $-1 $173 $35 $-1 $174 forward single #
loop $-1 $175 $176 $69 #
cone-surface $-1 60.695750278306093 -17.348680028308937 2.3874116176570688 0 0.51503808176128008 -0.85716729658548041 1.25 0 0 1 I I -0.70710678118654746 0.70710678118654746 1.25 forward I I I I #
loop $-1 $-1 $177 $44 #
coedge $-1 $112 $112 $178 $179 reversed $70 $-1 #
face $-1 $180 $181 $27 $-1 $182 reversed single #
loop $-1 $-1 $183 $72 #
plane-surface $-1 0 -34.427538760707421 0 0 1 0 0 0 1 forward_v I I I I #
coedge $-1 $184 $185 $186 $187 forward $73 $-1 #
coedge $-1 $188 $75 $189 $190 forward $46 $-1 #
coedge $-1 $75 $188 $191 $192 forward $46 $-1 #
coedge $-1 $193 $194 $75 $120 reversed $195 $-1 #
edge $-1 $196 -34.427538760707421 $197 34.427538760707421 $119 $198 forward 7 unknown #
face $-1 $199 $200 $28 $-1 $201 reversed single #
loop $-1 $-1 $202 $76 #
plane-surface $-1 0 0 -16.716378809067997 0 0 1 1 0 0 forward_v I I I I #
coedge $-1 $203 $127 $204 $205 reversed $77 $-1 #
coedge $-1 $206 $79 $207 $208 reversed $49 $-1 #
coedge $-1 $79 $206 $209 $210 reversed $49 $-1 #
coedge $-1 $124 $211 $79 $128 reversed $77 $-1 #
edge $-1 $212 -34.427538760707421 $213 34.427538760707421 $127 $214 forward 7 unknown #
face $-1 $215 $216 $29 $-1 $217 reversed single #
loop $-1 $-1 $218 $80 #
plane-surface $-1 -23.793407760074523 64.879845910734318 161.6295896621958 -1 0 0 0 0.6018150307709319 0.79863550430605224 forward_v I I I I #
coedge $-1 $219 $220 $221 $222 reversed $81 $-1 #
coedge $-1 $134 $83 $223 $224 reversed $52 $-1 #
coedge $-1 $83 $133 $219 $225 reversed $52 $-1 #
coedge $-1 $221 $226 $83 $136 forward $227 $-1 #
edge $-1 $228 -1.9876158053402619 $229 11.164359076578933 $135 $230 forward 7 unknown #
loop $-1 $-1 $142 $84 #
plane-surface $-1 -36.994853613670941 -20.562570799640056 48.24367527051821 0 0.6018150307709319 0.79863550430605224 1 0 0 forward_v I I I I #
loop $-1 $-1 $231 $54 #
coedge $-1 $140 $140 $141 $232 reversed $85 $-1 #
coedge $-1 $141 $141 $140 $232 forward $87 $-1 #
coedge $-1 $142 $142 $88 $143 forward $137 $-1 #
edge $-1 $233 3.9534639747433309e-016 $233 6.2831853071796004 $142 $234 forward 7 unknown #
loop $-1 $-1 $149 $89 #
plane-surface $-1 -36.994853613670941 -20.562570799640056 48.24367527051821 0 0.6018150307709319 0.79863550430605224 1 0 0 forward_v I I I I #
loop $-1 $-1 $235 $57 #
coedge $-1 $147 $147 $148 $236 reversed $90 $-1 #
coedge $-1 $148 $148 $147 $236 forward $92 $-1 #
coedge $-1 $149 $149 $93 $150 forward $144 $-1 #
edge $-1 $237 3.9534639747433309e-016 $237 6.2831853071796004 $149 $238 forward 7 unknown #
loop $-1 $-1 $156 $94 #
plane-surface $-1 -36.994853613670941 -20.562570799640056 48.24367527051821 0 0.6018150307709319 0.79863550430605224 1 0 0 forward_v I I I I #
loop $-1 $-1 $239 $60 #
coedge $-1 $154 $154 $155 $240 reversed $95 $-1 #
coedge $-1 $155 $155 $154 $240 forward $97 $-1 #
coedge $-1 $156 $156 $98 $157 forward $151 $-1 #
edge $-1 $241 3.9534639747433309e-016 $241 6.2831853071796004 $156 $242 forward 7 unknown #
face $-1 $243 $244 $33 $-1 $245 forward single #
loop $-1 $-1 $246 $99 #
plane-surface $-1 70.98727378154851 0 0 -1 0 0 0 0 1 forward_v I I I I #
coedge $-1 $247 $248 $249 $250 reversed $100 $-1 #
coedge $-1 $251 $102 $246 $252 reversed $64 $-1 #
coedge $-1 $102 $251 $247 $253 forward $64 $-1 #
coedge $-1 $249 $254 $102 $165 forward $244 $-1 #
edge $-1 $255 -44.498719956111373 $256 -8.4783876947629082 $164 $257 forward 7 unknown #
loop $-1 $-1 $171 $103 #
plane-surface $-1 52.977107650874274 -34.427538760707421 0.78823027123247869 0 -0.51503808176128008 0.85716729658548041 1 0 0 forward_v I I I I #
loop $-1 $-1 $258 $66 #
coedge $-1 $169 $169 $170 $259 reversed $104 $-1 #
coedge $-1 $170 $170 $169 $259 forward $106 $-1 #
coedge $-1 $171 $171 $107 $172 forward $166 $-1 #
edge $-1 $260 1.2547998976731283e-016 $260 6.2831853071796004 $171 $261 forward 7 unknown #
loop $-1 $-1 $178 $108 #
plane-surface $-1 52.977107650874274 -34.427538760707421 0.78823027123247869 0 -0.51503808176128008 0.85716729658548041 1 0 0 forward_v I I I I #
loop $-1 $-1 $262 $69 #
coedge $-1 $176 $176 $177 $263 reversed $109 $-1 #
coedge $-1 $177 $177 $176 $263 forward $111 $-1 #
coedge $-1 $178 $178 $112 $179 forward $173 $-1 #
edge $-1 $264 1.2547998976731283e-016 $264 6.2831853071796004 $178 $265 forward 7 unknown #
face $-1 $266 $267 $27 $-1 $268 reversed single #
loop $-1 $-1 $269 $113 #
plane-surface $-1 -70.98727378154851 0 0 1 0 0 0 0 -1 forward_v I I I I #
coedge $-1 $270 $191 $271 $272 forward $114 $-1 #
coedge $-1 $273 $116 $270 $274 forward $73 $-1 #
coedge $-1 $116 $273 $275 $276 forward $73 $-1 #
coedge $-1 $194 $193 $116 $187 reversed $195 $-1 #
edge $-1 $277 -34.427538760707421 $278 34.427538760707421 $186 $279 forward 7 unknown #
coedge $-1 $118 $117 $280 $281 forward $46 $-1 #
coedge $-1 $282 $283 $117 $190 reversed $267 $-1 #
edge $-1 $197 -70.98727378154851 $284 70.98727378154851 $189 $285 forward 7 unknown #
coedge $-1 $183 $286 $118 $192 reversed $114 $-1 #
edge $-1 $287 -70.98727378154851 $196 70.98727378154851 $191 $288 forward 7 unknown #
coedge $-1 $186 $119 $286 $289 forward $195 $-1 #
coedge $-1 $119 $186 $282 $290 reversed $195 $-1 #
loop $-1 $-1 $193 $266 #
vertex $-1 $120 $291 #
vertex $-1 $120 $292 #
straight-curve $-1 70.98727378154851 0 16.716378809067997 0 1 0 I I #
face $-1 $293 $294 $28 $-1 $295 reversed single #
loop $-1 $-1 $204 $121 #
plane-surface $-1 0 -34.427538760707421 0 0 1 0 0 0 1 forward_v I I I I #
coedge $-1 $296 $297 $203 $298 forward $122 $-1 #
coedge $-1 $211 $124 $202 $298 reversed $77 $-1 #
coedge $-1 $209 $299 $124 $205 forward $200 $-1 #
edge $-1 $300 -9.4082751103247375 $212 -5.2079322871617846 $204 $301 forward 7 unknown #
coedge $-1 $126 $125 $302 $303 reversed $49 $-1 #
coedge $-1 $304 $305 $125 $208 forward $306 $-1 #
edge $-1 $307 -39.699081303588095 $213 -22.877303652332735 $207 $308 forward 7 unknown #
coedge $-1 $309 $204 $126 $210 forward $200 $-1 #
edge $-1 $212 22.877303652332735 $310 39.699081303588095 $209 $311 forward 7 unknown #
coedge $-1 $127 $203 $304 $312 reversed $77 $-1 #
vertex $-1 $210 $313 #
vertex $-1 $208 $314 #
straight-curve $-1 -54.16549613029315 0 -12.516035985905045 0 1 0 I I #
face $-1 $-1 $227 $29 $-1 $315 forward single #
loop $-1 $-1 $316 $129 #
plane-surface $-1 0 34.427538760707421 0 0 -1 0 0 0 -1 forward_v I I I I #
coedge $-1 $317 $318 $319 $320 reversed $130 $-1 #
coedge $-1 $321 $132 $134 $225 forward $81 $-1 #
coedge $-1 $132 $321 $317 $322 forward $81 $-1 #
coedge $-1 $319 $135 $132 $222 forward $227 $-1 #
edge $-1 $229 -31.698872660431888 $323 -5.2959809532390523 $221 $324 forward 7 unknown #
coedge $-1 $325 $326 $133 $224 forward $216 $-1 #
edge $-1 $327 -74.009140157864863 $228 -64.098416022029909 $223 $328 forward 7 unknown #
edge $-1 $229 52.387020678203058 $327 68.85507752141487 $134 $329 forward 7 unknown #
coedge $-1 $135 $319 $325 $330 forward $227 $-1 #
loop $-1 $-1 $319 $215 #
vertex $-1 $224 $331 #
vertex $-1 $136 $332 #
straight-curve $-1 -50.196299467267359 32.439922955367159 16.716378809068004 0 -1 0 I I #
coedge $-1 $231 $231 $-1 $333 reversed $139 $-1 #
edge $-1 $334 0 $334 6.2831853071796004 $140 $335 forward 7 unknown #
vertex $-1 $143 $336 #
ellipse-curve $-1 -44.915721125828796 27.851551319747827 11.761016741150508 0 0.6018150307709319 0.79863550430605224 2.5 0 0 1 I I #
coedge $-1 $235 $235 $-1 $337 reversed $146 $-1 #
edge $-1 $338 0 $338 6.2831853071796004 $147 $339 forward 7 unknown #
vertex $-1 $150 $340 #
ellipse-curve $-1 -36.994853613670941 27.851551319747827 11.761016741150508 0 0.6018150307709319 0.79863550430605224 2.5 0 0 1 I I #
coedge $-1 $239 $239 $-1 $341 reversed $153 $-1 #
edge $-1 $342 0 $342 6.2831853071796004 $154 $343 forward 7 unknown #
vertex $-1 $157 $344 #
ellipse-curve $-1 -29.073986101513086 27.851551319747827 11.761016741150508 0 0.6018150307709319 0.79863550430605224 2.5 0 0 1 I I #
face $-1 $-1 $345 $33 $-1 $346 reversed single #
loop $-1 $-1 $164 $158 #
plane-surface $-1 0 0 16.716378809067997 0 0 1 1 0 0 forward_v I I I I #
coedge $-1 $347 $348 $162 $252 forward $159 $-1 #
coedge $-1 $248 $161 $163 $253 reversed $100 $-1 #
coedge $-1 $161 $247 $349 $350 reversed $100 $-1 #
coedge $-1 $351 $164 $161 $250 forward $244 $-1 #
edge $-1 $256 -45.856270260966291 $352 -19.347379937557847 $249 $353 forward 7 unknown #
coedge $-1 $163 $162 $354 $355 reversed $64 $-1 #
edge $-1 $356 -14.552095860362833 $255 16.374061062569726 $246 $357 forward 7 unknown #
edge $-1 $358 0 $256 30.926156922932559 $247 $359 forward 7 unknown #
coedge $-1 $164 $351 $347 $360 forward $244 $-1 #
vertex $-1 $165 $361 #
vertex $-1 $165 $362 #
straight-curve $-1 26.488553825437137 -7.9186484372989785 16.716378809067997 -1 0 0 I I #
coedge $-1 $258 $258 $-1 $363 reversed $168 $-1 #
edge $-1 $364 0 $364 6.2831853071796004 $169 $365 forward 7 unknown #
vertex $-1 $172 $366 #
ellipse-curve $-1 45.258465023442469 -21.173093599003202 8.7523045401502344 0 -0.51503808176128008 0.85716729658548041 2.5 0 0 1 I I #
coedge $-1 $262 $262 $-1 $367 reversed $175 $-1 #
edge $-1 $368 0 $368 6.2831853071796004 $176 $369 forward 7 unknown #
vertex $-1 $179 $370 #
ellipse-curve $-1 60.695750278306093 -21.173093599003202 8.7523045401502344 0 -0.51503808176128008 0.85716729658548041 2.5 0 0 1 I I #
face $-1 $-1 $195 $27 $-1 $371 reversed single #
loop $-1 $-1 $282 $180 #
plane-surface $-1 0 34.427538760707421 0 0 -1 0 0 0 -1 forward_v I I I I #
coedge $-1 $372 $280 $283 $373 forward $181 $-1 #
coedge $-1 $286 $183 $184 $274 reversed $114 $-1 #
coedge $-1 $280 $372 $183 $272 reversed $181 $-1 #
edge $-1 $287 -16.716378809067997 $374 16.716378809067997 $271 $375 forward 7 unknown #
coedge $-1 $185 $184 $372 $376 forward $73 $-1 #
edge $-1 $278 -70.98727378154851 $374 70.98727378154851 $270 $377 forward 7 unknown #
coedge $-1 $283 $282 $185 $276 reversed $267 $-1 #
edge $-1 $378 -70.98727378154851 $277 70.98727378154851 $275 $379 forward 7 unknown #
vertex $-1 $187 $380 #
vertex $-1 $289 $381 #
straight-curve $-1 70.98727378154851 0 -16.716378809067997 0 -1 0 I I #
coedge $-1 $269 $271 $188 $281 reversed $181 $-1 #
edge $-1 $284 -34.427538760707421 $287 34.427538760707421 $280 $382 forward 7 unknown #
coedge $-1 $275 $189 $194 $290 forward $267 $-1 #
coedge $-1 $189 $275 $269 $373 reversed $267 $-1 #
vertex $-1 $190 $383 #
straight-curve $-1 0 34.427538760707421 16.716378809067997 -1 0 0 I I #
coedge $-1 $191 $270 $193 $289 reversed $114 $-1 #
vertex $-1 $281 $384 #
straight-curve $-1 0 -34.427538760707421 16.716378809067997 1 0 0 I I #
edge $-1 $196 -16.716378809067997 $278 16.716378809067997 $193 $385 forward 7 unknown #
edge $-1 $197 -16.716378809067997 $277 16.716378809067997 $194 $386 forward 7 unknown #
point $-1 70.98727378154851 -34.427538760707421 16.716378809067997 #
point $-1 70.98727378154851 34.427538760707421 16.716378809067997 #
face $-1 $-1 $306 $28 $-1 $387 reversed single #
loop $-1 $-1 $302 $199 #
plane-surface $-1 -70.98727378154851 0 0 1 0 0 0 0 -1 forward_v I I I I #
coedge $-1 $388 $202 $299 $389 forward $122 $-1 #
coedge $-1 $202 $388 $390 $391 forward $122 $-1 #
edge $-1 $392 -34.427538760707421 $300 34.427538760707421 $202 $393 forward 7 unknown #
coedge $-1 $204 $309 $296 $389 reversed $200 $-1 #
vertex $-1 $389 $394 #
straight-curve $-1 -54.16549613029315 -34.427538760707421 -7.3081036987432606 0 0 1 I I #
coedge $-1 $395 $396 $206 $303 forward $294 $-1 #
edge $-1 $310 -34.427538760707421 $307 34.427538760707421 $302 $397 forward 7 unknown #
coedge $-1 $390 $207 $211 $312 forward $306 $-1 #
coedge $-1 $207 $390 $395 $398 reversed $306 $-1 #
loop $-1 $-1 $304 $293 #
vertex $-1 $398 $399 #
straight-curve $-1 -31.288192477960415 34.427538760707421 -12.516035985905045 1 0 0 I I #
coedge $-1 $299 $209 $396 $400 forward $200 $-1 #
vertex $-1 $400 $401 #
straight-curve $-1 -31.288192477960415 -34.427538760707421 -12.516035985905045 -1 0 0 I I #
edge $-1 $213 5.2079322871617846 $392 9.4082751103247375 $304 $402 forward 7 unknown #
point $-1 -54.16549613029315 -34.427538760707421 -12.516035985905045 #
point $-1 -54.16549613029315 34.427538760707421 -12.516035985905045 #
plane-surface $-1 0 0 16.716378809067997 0 0 1 1 0 0 forward_v I I I I #
coedge $-1 $326 $325 $318 $403 forward $216 $-1 #
coedge $-1 $318 $218 $220 $322 reversed $130 $-1 #
coedge $-1 $218 $317 $316 $403 reversed $130 $-1 #
coedge $-1 $226 $221 $218 $320 forward $227 $-1 #
edge $-1 $323 -11.164359076578933 $404 1.9876158053402619 $319 $405 forward 7 unknown #
coedge $-1 $220 $219 $326 $406 reversed $81 $-1 #
edge $-1 $407 -68.85507752141487 $323 -52.387020678203058 $317 $408 forward 7 unknown #
vertex $-1 $222 $409 #
straight-curve $-1 -18.49742680683547 21.275563878788212 16.716378809067997 1 0 0 I I #
coedge $-1 $316 $223 $226 $330 reversed $216 $-1 #
coedge $-1 $223 $316 $321 $406 forward $216 $-1 #
vertex $-1 $224 $410 #
straight-curve $-1 -50.196299467267359 34.427538760707421 80.814794831097899 0 0 1 I I #
straight-curve $-1 -50.196299467267359 -20.562570799640056 48.24367527051821 0 0.79863550430605224 -0.6018150307709319 I I #
edge $-1 $404 23.793407760074523 $228 50.196299467267359 $325 $411 forward 7 unknown #
point $-1 -50.196299467267359 34.427538760707421 16.716378809067997 #
point $-1 -50.196299467267359 21.275563878788226 16.716378809067994 #
edge $-1 $412 1 $412 0 $231 $-1 forward 7 unknown #
vertex $-1 $232 $413 #
ellipse-curve $-1 -44.915721125828796 22.967073083767271 5.2790953204323374 0 0.6018150307709319 0.79863550430605224 2.5 0 0 1 I I #
point $-1 -42.415721125828796 27.851551319747848 11.761016741150534 #
edge $-1 $414 1 $414 0 $235 $-1 forward 7 unknown #
vertex $-1 $236 $415 #
ellipse-curve $-1 -36.994853613670941 22.967073083767271 5.2790953204323374 0 0.6018150307709319 0.79863550430605224 2.5 0 0 1 I I #
point $-1 -34.494853613670941 27.851551319747848 11.761016741150534 #
edge $-1 $416 1 $416 0 $239 $-1 forward 7 unknown #
vertex $-1 $240 $417 #
ellipse-curve $-1 -29.073986101513086 22.967073083767271 5.2790953204323374 0 0.6018150307709319 0.79863550430605224 2.5 0 0 1 I I #
point $-1 -26.573986101513086 27.851551319747848 11.761016741150534 #
loop $-1 $-1 $354 $243 #
plane-surface $-1 0 -34.427538760707421 0 0 1 0 0 0 1 forward_v I I I I #
coedge $-1 $348 $246 $254 $360 reversed $159 $-1 #
coedge $-1 $246 $347 $418 $419 forward $159 $-1 #
coedge $-1 $354 $420 $248 $350 forward $345 $-1 #
edge $-1 $352 44.525705885851529 $358 60.453854423687048 $349 $421 forward 7 unknown #
coedge $-1 $254 $249 $420 $422 forward $244 $-1 #
vertex $-1 $422 $423 #
straight-curve $-1 34.966941520200045 -53.774918698265267 16.716378809067997 0 -1 0 I I #
coedge $-1 $418 $349 $251 $355 forward $345 $-1 #
edge $-1 $358 8.4783876947629082 $356 44.498719956111373 $354 $424 forward 7 unknown #
vertex $-1 $355 $425 #
straight-curve $-1 70.98727378154851 -21.953958092427449 8.2831138087600173 0 0.85716729658548041 0.51503808176128008 I I #
vertex $-1 $355 $426 #
straight-curve $-1 34.966941520200045 -34.427538760707421 0.78823027123247869 0 0.85716729658548041 0.51503808176128008 I I #
edge $-1 $427 -34.427538760707421 $255 -7.9186484372989767 $347 $428 forward 7 unknown #
point $-1 70.98727378154851 -7.9186484372989767 16.716378809067997 #
point $-1 34.966941520200045 -7.9186484372989767 16.716378809067997 #
edge $-1 $429 1 $429 0 $258 $-1 forward 7 unknown #
vertex $-1 $259 $430 #
ellipse-curve $-1 45.258465023442469 -17.992477630510539 3.458870738388919 0 -0.51503808176128008 0.85716729658548041 2.5 0 0 1 I I #
point $-1 47.758465023442469 -21.173093599003209 8.7523045401502468 #
edge $-1 $431 1 $431 0 $262 $-1 forward 7 unknown #
vertex $-1 $263 $432 #
ellipse-curve $-1 60.695750278306093 -17.992477630510539 3.458870738388919 0 -0.51503808176128008 0.85716729658548041 2.5 0 0 1 I I #
point $-1 63.195750278306093 -21.173093599003209 8.7523045401502468 #
plane-surface $-1 70.98727378154851 0 0 -1 0 0 0 0 1 forward_v I I I I #
coedge $-1 $271 $269 $273 $376 reversed $181 $-1 #
edge $-1 $284 -16.716378809067997 $378 16.716378809067997 $283 $433 forward 7 unknown #
vertex $-1 $376 $434 #
straight-curve $-1 -70.98727378154851 -34.427538760707421 0 0 0 -1 I I #
edge $-1 $374 -34.427538760707421 $378 34.427538760707421 $372 $435 forward 7 unknown #
straight-curve $-1 0 -34.427538760707421 -16.716378809067997 -1 0 0 I I #
vertex $-1 $276 $436 #
straight-curve $-1 0 34.427538760707421 -16.716378809067997 1 0 0 I I #
point $-1 70.98727378154851 34.427538760707421 -16.716378809067997 #
point $-1 70.98727378154851 -34.427538760707421 -16.716378809067997 #
straight-curve $-1 -70.98727378154851 0 16.716378809067997 0 -1 0 I I #
point $-1 -70.98727378154851 34.427538760707421 16.716378809067997 #
point $-1 -70.98727378154851 -34.427538760707421 16.716378809067997 #
straight-curve $-1 70.98727378154851 -34.427538760707421 0 0 0 -1 I I #
straight-curve $-1 70.98727378154851 34.427538760707421 0 0 0 -1 I I #
plane-surface $-1 0 34.427538760707421 0 0 -1 0 0 0 -1 forward_v I I I I #
coedge $-1 $297 $296 $437 $438 forward $122 $-1 #
edge $-1 $300 54.16549613029315 $439 70.98727378154851 $299 $440 forward 7 unknown #
coedge $-1 $305 $304 $297 $391 reversed $306 $-1 #
edge $-1 $441 -70.98727378154851 $392 -54.16549613029315 $390 $442 forward 7 unknown #
vertex $-1 $312 $443 #
straight-curve $-1 -54.16549613029315 0 -16.716378809067997 0 -1 0 I I #
point $-1 -54.16549613029315 -34.427538760707421 -16.716378809067997 #
coedge $-1 $437 $302 $305 $398 forward $294 $-1 #
coedge $-1 $302 $437 $309 $400 reversed $294 $-1 #
straight-curve $-1 -70.98727378154851 0 -12.516035985905045 0 1 0 I I #
edge $-1 $307 12.516035985905045 $441 16.716378809067997 $305 $444 forward 7 unknown #
point $-1 -70.98727378154851 34.427538760707421 -12.516035985905045 #
edge $-1 $310 12.516035985905045 $439 16.716378809067997 $396 $445 forward 7 unknown #
point $-1 -70.98727378154851 -34.427538760707421 -12.516035985905045 #
straight-curve $-1 -54.16549613029315 34.427538760707421 -7.3081036987432606 0 0 -1 I I #
edge $-1 $404 64.098416022029909 $407 74.009140157864863 $316 $446 forward 7 unknown #
vertex $-1 $330 $447 #
straight-curve $-1 -23.793407760074523 32.439922955367159 16.716378809068004 0 1 0 I I #
edge $-1 $407 5.2959809532390523 $327 31.698872660431888 $326 $448 forward 7 unknown #
vertex $-1 $406 $449 #
straight-curve $-1 -23.793407760074523 -20.562570799640056 48.24367527051821 0 -0.79863550430605224 0.6018150307709319 I I #
point $-1 -23.793407760074523 21.275563878788226 16.716378809067994 #
point $-1 -50.196299467267359 34.427538760707421 6.805654673233029 #
straight-curve $-1 0 34.427538760707421 16.716378809067997 -1 0 0 I I #
vertex $-1 $333 $450 #
point $-1 -42.415721125828796 22.967073083767271 5.2790953204323374 #
vertex $-1 $337 $451 #
point $-1 -34.494853613670941 22.967073083767271 5.2790953204323374 #
vertex $-1 $341 $452 #
point $-1 -26.573986101513086 22.967073083767271 5.2790953204323374 #
coedge $-1 $420 $354 $348 $419 reversed $345 $-1 #
edge $-1 $427 -16.716378809067997 $356 -0.78823027123247869 $348 $453 forward 7 unknown #
coedge $-1 $349 $418 $351 $422 reversed $345 $-1 #
straight-curve $-1 34.966941520200045 -34.427538760707421 61.242084694919527 0 0 -1 I I #
edge $-1 $352 34.966941520200045 $427 70.98727378154851 $420 $454 forward 7 unknown #
point $-1 34.966941520200045 -34.427538760707421 16.716378809067997 #
straight-curve $-1 26.488553825437137 -34.427538760707421 0.78823027123248046 1 0 0 I I #
point $-1 70.98727378154851 -34.427538760707421 0.78823027123247869 #
point $-1 34.966941520200045 -34.427538760707421 0.78823027123247869 #
vertex $-1 $360 $455 #
straight-curve $-1 70.98727378154851 0 16.716378809067997 0 1 0 I I #
vertex $-1 $363 $456 #
point $-1 47.758465023442469 -17.992477630510539 3.458870738388919 #
vertex $-1 $367 $457 #
point $-1 63.195750278306093 -17.992477630510539 3.458870738388919 #
straight-curve $-1 -70.98727378154851 34.427538760707421 0 0 0 -1 I I #
point $-1 -70.98727378154851 -34.427538760707421 -16.716378809067997 #
straight-curve $-1 -70.98727378154851 0 -16.716378809067997 0 1 0 I I #
point $-1 -70.98727378154851 34.427538760707421 -16.716378809067997 #
coedge $-1 $396 $395 $388 $438 reversed $294 $-1 #
edge $-1 $439 -34.427538760707421 $441 34.427538760707421 $437 $458 forward 7 unknown #
vertex $-1 $438 $459 #
straight-curve $-1 0 -34.427538760707421 -16.716378809067997 -1 0 0 I I #
vertex $-1 $391 $460 #
straight-curve $-1 0 34.427538760707421 -16.716378809067997 1 0 0 I I #
point $-1 -54.16549613029315 34.427538760707421 -16.716378809067997 #
straight-curve $-1 -70.98727378154851 34.427538760707421 0 0 0 -1 I I #
straight-curve $-1 -70.98727378154851 -34.427538760707421 0 0 0 -1 I I #
straight-curve $-1 -23.793407760074523 34.427538760707421 80.814794831097899 0 0 -1 I I #
point $-1 -23.793407760074523 34.427538760707421 16.716378809067997 #
straight-curve $-1 -18.49742680683547 34.427538760707421 6.8056546732330254 -1 0 0 I I #
point $-1 -23.793407760074523 34.427538760707421 6.805654673233029 #
point $-1 -44.915721125828796 21.462535506839945 3.2825065596672074 #
point $-1 -36.994853613670941 21.462535506839945 3.2825065596672074 #
point $-1 -29.073986101513086 21.462535506839945 3.2825065596672074 #
straight-curve $-1 70.98727378154851 -34.427538760707421 0 0 0 -1 I I #
straight-curve $-1 0 -34.427538760707421 16.716378809067997 1 0 0 I I #
point $-1 70.98727378154851 -34.427538760707421 16.716378809067997 #
point $-1 45.258465023442469 -16.704882426107336 1.3159524969252183 #
point $-1 60.695750278306093 -16.704882426107336 1.3159524969252183 #
straight-curve $-1 -70.98727378154851 0 -16.716378809067997 0 1 0 I I #
point $-1 -70.98727378154851 -34.427538760707421 -16.716378809067997 #
point $-1 -70.98727378154851 34.427538760707421 -16.716378809067997 #
End-of-ACIS-data 