500 0 8 0           
7 Unknown 11 ACIS 5.0 NT 24 Fri Mar 26 15:20:41 1999 
-1 9.9999999999999995e-007 1e-010 
body $-1 $8 $-1 $9 #
body $-1 $10 $-1 $11 #
body $-1 $12 $-1 $13 #
body $-1 $14 $-1 $15 #
body $-1 $16 $-1 $17 #
body $-1 $18 $-1 $19 #
body $-1 $20 $-1 $21 #
body $-1 $22 $-1 $23 #
lump $-1 $-1 $24 $0 #
transform $-1 1 0 0 0 1 0 0 0 1 43.385113071077612 19.595527754082685 6.2061973304336462 1 rotate no_reflect no_shear #
lump $-1 $-1 $25 $1 #
transform $-1 1 0 0 0 1 0 0 0 1 43.385113071077612 19.595527754082685 6.2061973304336462 1 rotate no_reflect no_shear #
lump $-1 $-1 $26 $2 #
transform $-1 1 0 0 0 1 0 0 0 1 43.385113071077612 19.595527754082685 6.2061973304336462 1 rotate no_reflect no_shear #
lump $-1 $-1 $27 $3 #
transform $-1 1 0 0 0 1 0 0 0 1 43.385113071077612 19.595527754082685 6.2061973304336462 1 rotate no_reflect no_shear #
lump $-1 $-1 $28 $4 #
transform $-1 1 0 0 0 1 0 0 0 1 43.385113071077612 19.595527754082685 6.2061973304336462 1 rotate no_reflect no_shear #
lump $-1 $-1 $29 $5 #
transform $-1 1 0 0 0 1 0 0 0 1 43.385113071077612 19.595527754082685 6.2061973304336462 1 rotate no_reflect no_shear #
lump $-1 $-1 $30 $6 #
transform $-1 1 0 0 0 1 0 0 0 1 43.385113071077612 19.595527754082685 6.2061973304336462 1 rotate no_reflect no_shear #
lump $-1 $-1 $31 $7 #
transform $-1 1 0 0 0 1 0 0 0 1 43.385113071077612 19.595527754082685 6.2061973304336462 1 rotate no_reflect no_shear #
shell $-1 $-1 $-1 $32 $-1 $8 #
shell $-1 $-1 $-1 $33 $-1 $10 #
shell $-1 $-1 $-1 $34 $-1 $12 #
shell $-1 $-1 $-1 $35 $-1 $14 #
shell $-1 $-1 $-1 $36 $-1 $16 #
shell $-1 $-1 $-1 $37 $-1 $18 #
shell $-1 $-1 $-1 $38 $-1 $20 #
shell $-1 $-1 $-1 $39 $-1 $22 #
face $-1 $40 $41 $24 $-1 $42 forward single #
face $-1 $43 $44 $25 $-1 $45 reversed single #
face $-1 $46 $47 $26 $-1 $48 reversed single #
face $-1 $49 $50 $27 $-1 $51 forward single #
face $-1 $52 $53 $28 $-1 $54 forward single #
face $-1 $55 $56 $29 $-1 $57 reversed single #
face $-1 $58 $59 $30 $-1 $60 forward single #
face $-1 $61 $62 $31 $-1 $63 forward single #
face $-1 $64 $65 $24 $-1 $66 reversed single #
loop $-1 $-1 $67 $32 #
plane-surface $-1 0 0 6.2061973304336462 0 0 1 1 0 0 forward_v I I I I #
face $-1 $68 $69 $25 $-1 $70 reversed single #
loop $-1 $-1 $71 $33 #
plane-surface $-1 -40.104628190771898 0 3.2061973304336462 0 0 1 1 0 0 forward_v I I I I #
face $-1 $72 $73 $26 $-1 $74 reversed single #
loop $-1 $-1 $75 $34 #
plane-surface $-1 -26.732444625161719 -13.640372084626371 21.663016707213202 0 0.52991927123019833 0.84804809178421925 1 0 0 forward_v I I I I #
face $-1 $76 $77 $27 $-1 $78 forward single #
loop $-1 $79 $80 $35 #
cone-surface $-1 -31.057458347435063 14.617175578320069 2.3848069149156754 0 -0.52991927123019833 -0.84804809178421925 2.5 0 0 1 I I 0 1 2.5 forward I I I I #
face $-1 $81 $82 $28 $-1 $83 forward single #
loop $-1 $84 $85 $36 #
cone-surface $-1 -22.407430902888372 14.617175578320069 2.3848069149156754 0 -0.52991927123019833 -0.84804809178421925 2.5 0 0 1 I I 0 1 2.5 forward I I I I #
face $-1 $86 $87 $29 $-1 $88 reversed single #
loop $-1 $-1 $89 $37 #
plane-surface $-1 -16.640745939857247 -65.576742755813086 74.480245837123874 -1 0 0 0 -0.52991927123019833 0.84804809178421925 forward_v I I I I #
face $-1 $90 $91 $30 $-1 $92 forward single #
loop $-1 $93 $94 $38 #
cone-surface $-1 -31.057458347435063 -14.617175578320076 2.3848069149156781 0 0.52991927123019833 -0.84804809178421925 2.5 0 0 1 I I 0 1 2.5 forward I I I I #
face $-1 $95 $96 $31 $-1 $97 forward single #
loop $-1 $98 $99 $39 #
cone-surface $-1 -22.407430902888372 -14.617175578320076 2.3848069149156781 0 0.52991927123019833 -0.84804809178421925 2.5 0 0 1 I I 0 1 2.5 forward I I I I #
face $-1 $100 $101 $24 $-1 $102 reversed single #
loop $-1 $-1 $103 $40 #
plane-surface $-1 0 0 -6.2061973304336462 0 0 1 1 0 0 forward_v I I I I #
coedge $-1 $104 $105 $106 $107 forward $41 $-1 #
face $-1 $108 $109 $25 $-1 $110 reversed single #
loop $-1 $-1 $111 $43 #
plane-surface $-1 -36.824143310466184 0 4.7061973304336462 -1 0 0 0 0 1 forward_v I I I I #
coedge $-1 $112 $113 $114 $115 forward $44 $-1 #
face $-1 $116 $117 $26 $-1 $118 forward single #
loop $-1 $-1 $119 $46 #
plane-surface $-1 -16.640745939857247 32.340842917104027 95.248341410753113 -1 0 0 0 0.52991927123019833 0.84804809178421925 forward_v I I I I #
coedge $-1 $120 $121 $122 $123 reversed $47 $-1 #
face $-1 $-1 $124 $27 $-1 $125 forward single #
loop $-1 $126 $127 $49 #
cone-surface $-1 -31.057458347435063 13.226333581039693 0.15899448309226827 0 -0.52991927123019833 -0.84804809178421925 1.25 0 0 1 I I -0.70710678118654746 0.70710678118654746 1.25 forward I I I I #
loop $-1 $-1 $128 $35 #
coedge $-1 $80 $80 $129 $130 reversed $50 $-1 #
face $-1 $-1 $131 $28 $-1 $132 forward single #
loop $-1 $133 $134 $52 #
cone-surface $-1 -22.407430902888372 13.226333581039693 0.15899448309226827 0 -0.52991927123019833 -0.84804809178421925 1.25 0 0 1 I I -0.70710678118654746 0.70710678118654746 1.25 forward I I I I #
loop $-1 $-1 $135 $36 #
coedge $-1 $85 $85 $136 $137 reversed $53 $-1 #
face $-1 $138 $139 $29 $-1 $140 forward single #
loop $-1 $-1 $141 $55 #
plane-surface $-1 -26.732444625161719 -19.595527754082688 0.89492113358396352 0 -0.52991927123019833 0.84804809178421925 1 0 0 forward_v I I I I #
coedge $-1 $142 $143 $144 $145 reversed $56 $-1 #
face $-1 $-1 $146 $30 $-1 $147 forward single #
loop $-1 $148 $149 $58 #
cone-surface $-1 -31.057458347435063 -13.226333581039698 0.15899448309227093 0 0.52991927123019833 -0.84804809178421925 1.25 0 0 1 I I -0.70710678118654746 0.70710678118654746 1.25 forward I I I I #
loop $-1 $-1 $150 $38 #
coedge $-1 $94 $94 $151 $152 reversed $59 $-1 #
face $-1 $-1 $153 $31 $-1 $154 forward single #
loop $-1 $155 $156 $61 #
cone-surface $-1 -22.407430902888372 -13.226333581039698 0.15899448309227093 0 0.52991927123019833 -0.84804809178421925 1.25 0 0 1 I I -0.70710678118654746 0.70710678118654746 1.25 forward I I I I #
loop $-1 $-1 $157 $39 #
coedge $-1 $99 $99 $158 $159 reversed $62 $-1 #
face $-1 $160 $161 $24 $-1 $162 reversed single #
loop $-1 $-1 $163 $64 #
plane-surface $-1 0 -19.595527754082685 0 0 1 0 0 0 1 forward_v I I I I #
coedge $-1 $164 $165 $166 $167 forward $65 $-1 #
coedge $-1 $168 $67 $169 $170 forward $41 $-1 #
coedge $-1 $67 $168 $171 $172 forward $41 $-1 #
coedge $-1 $173 $174 $67 $107 reversed $175 $-1 #
edge $-1 $176 -19.595527754082685 $177 19.595527754082685 $106 $178 forward 7 unknown #
face $-1 $179 $180 $25 $-1 $181 reversed single #
loop $-1 $-1 $182 $68 #
plane-surface $-1 0 19.595527754082685 0 0 -1 0 0 0 -1 forward_v I I I I #
coedge $-1 $114 $183 $184 $185 reversed $69 $-1 #
coedge $-1 $186 $71 $187 $188 reversed $44 $-1 #
coedge $-1 $71 $186 $189 $190 reversed $44 $-1 #
coedge $-1 $191 $111 $71 $115 reversed $69 $-1 #
edge $-1 $192 -19.595527754082685 $193 19.595527754082685 $114 $194 forward 7 unknown #
face $-1 $195 $196 $26 $-1 $197 reversed single #
loop $-1 $-1 $122 $72 #
plane-surface $-1 0 0 6.2061973304336462 0 0 1 1 0 0 forward_v I I I I #
coedge $-1 $198 $199 $200 $201 reversed $73 $-1 #
coedge $-1 $202 $75 $203 $204 reversed $47 $-1 #
coedge $-1 $75 $202 $198 $205 forward $47 $-1 #
coedge $-1 $200 $206 $75 $123 forward $117 $-1 #
edge $-1 $207 -23.457920997885324 $208 -3.2745236272763876 $122 $209 forward 7 unknown #
loop $-1 $-1 $129 $76 #
plane-surface $-1 -26.732444625161719 -13.640372084626371 21.663016707213202 0 0.52991927123019833 0.84804809178421925 1 0 0 forward_v I I I I #
loop $-1 $-1 $210 $49 #
coedge $-1 $127 $127 $128 $211 reversed $77 $-1 #
coedge $-1 $128 $128 $127 $211 forward $79 $-1 #
coedge $-1 $129 $129 $80 $130 forward $124 $-1 #
edge $-1 $212 2.0746950655188453e-016 $212 6.2831853071796004 $129 $213 forward 7 unknown #
loop $-1 $-1 $136 $81 #
plane-surface $-1 -26.732444625161719 -13.640372084626371 21.663016707213202 0 0.52991927123019833 0.84804809178421925 1 0 0 forward_v I I I I #
loop $-1 $-1 $214 $52 #
coedge $-1 $134 $134 $135 $215 reversed $82 $-1 #
coedge $-1 $135 $135 $134 $215 forward $84 $-1 #
coedge $-1 $136 $136 $85 $137 forward $131 $-1 #
edge $-1 $216 2.0746950655188453e-016 $216 6.2831853071796004 $136 $217 forward 7 unknown #
face $-1 $218 $219 $29 $-1 $220 forward single #
loop $-1 $-1 $221 $86 #
plane-surface $-1 -36.824143310466184 0 4.7061973304336462 -1 0 0 0 0 1 forward_v I I I I #
coedge $-1 $222 $223 $224 $225 reversed $87 $-1 #
coedge $-1 $143 $89 $226 $227 reversed $56 $-1 #
coedge $-1 $89 $142 $222 $228 reversed $56 $-1 #
coedge $-1 $224 $229 $89 $145 forward $219 $-1 #
edge $-1 $230 13.192843623823858 $231 21.692662158863836 $144 $232 forward 7 unknown #
loop $-1 $-1 $151 $90 #
plane-surface $-1 -26.732444625161719 -19.595527754082688 0.89492113358396352 0 -0.52991927123019833 0.84804809178421925 1 0 0 forward_v I I I I #
loop $-1 $-1 $233 $58 #
coedge $-1 $149 $149 $150 $234 reversed $91 $-1 #
coedge $-1 $150 $150 $149 $234 forward $93 $-1 #
coedge $-1 $151 $151 $94 $152 forward $146 $-1 #
edge $-1 $235 3.9510490464060725e-016 $235 6.2831853071796004 $151 $236 forward 7 unknown #
loop $-1 $-1 $158 $95 #
plane-surface $-1 -26.732444625161719 -19.595527754082688 0.89492113358396352 0 -0.52991927123019833 0.84804809178421925 1 0 0 forward_v I I I I #
loop $-1 $-1 $237 $61 #
coedge $-1 $156 $156 $157 $238 reversed $96 $-1 #
coedge $-1 $157 $157 $156 $238 forward $98 $-1 #
coedge $-1 $158 $158 $99 $159 forward $153 $-1 #
edge $-1 $239 3.9510490464060725e-016 $239 6.2831853071796004 $158 $240 forward 7 unknown #
face $-1 $241 $242 $24 $-1 $243 reversed single #
loop $-1 $-1 $244 $100 #
plane-surface $-1 -43.385113071077612 0 0 1 0 0 0 0 -1 forward_v I I I I #
coedge $-1 $245 $171 $246 $247 forward $101 $-1 #
coedge $-1 $248 $103 $245 $249 forward $65 $-1 #
coedge $-1 $103 $248 $250 $251 forward $65 $-1 #
coedge $-1 $174 $173 $103 $167 reversed $175 $-1 #
edge $-1 $252 -19.595527754082685 $253 19.595527754082685 $166 $254 forward 7 unknown #
coedge $-1 $105 $104 $255 $256 forward $41 $-1 #
coedge $-1 $257 $258 $104 $170 reversed $242 $-1 #
edge $-1 $177 -43.385113071077612 $259 43.385113071077612 $169 $260 forward 7 unknown #
coedge $-1 $163 $261 $105 $172 reversed $101 $-1 #
edge $-1 $262 -43.385113071077612 $176 43.385113071077612 $171 $263 forward 7 unknown #
coedge $-1 $166 $106 $261 $264 forward $175 $-1 #
coedge $-1 $106 $166 $257 $265 reversed $175 $-1 #
loop $-1 $-1 $173 $241 #
vertex $-1 $107 $266 #
vertex $-1 $107 $267 #
straight-curve $-1 43.385113071077612 0 6.2061973304336462 0 1 0 I I #
face $-1 $268 $269 $25 $-1 $270 forward single #
loop $-1 $-1 $271 $108 #
plane-surface $-1 -43.385113071077612 0 0 1 0 0 0 0 -1 forward_v I I I I #
coedge $-1 $189 $272 $191 $273 forward $109 $-1 #
coedge $-1 $111 $191 $274 $275 reversed $69 $-1 #
coedge $-1 $276 $187 $111 $185 forward $277 $-1 #
edge $-1 $193 0.85309866521682309 $278 3.8530986652168231 $184 $279 forward 7 unknown #
coedge $-1 $113 $112 $271 $280 reversed $44 $-1 #
coedge $-1 $184 $281 $112 $188 forward $277 $-1 #
edge $-1 $282 -23.332798975691663 $193 -16.771829215080235 $187 $283 forward 7 unknown #
coedge $-1 $284 $182 $113 $190 forward $109 $-1 #
edge $-1 $192 16.771829215080235 $285 23.332798975691663 $189 $286 forward 7 unknown #
coedge $-1 $183 $114 $182 $273 reversed $69 $-1 #
vertex $-1 $190 $287 #
vertex $-1 $188 $288 #
straight-curve $-1 -36.824143310466184 0 3.2061973304336462 0 -1 0 I I #
face $-1 $-1 $289 $26 $-1 $290 forward single #
loop $-1 $-1 $291 $116 #
plane-surface $-1 0 19.595527754082685 0 0 -1 0 0 0 -1 forward_v I I I I #
coedge $-1 $199 $119 $121 $205 reversed $73 $-1 #
coedge $-1 $119 $198 $291 $292 reversed $73 $-1 #
coedge $-1 $293 $122 $119 $201 forward $117 $-1 #
edge $-1 $208 -5.0747122395093136 $294 3.4251062955306715 $200 $295 forward 7 unknown #
coedge $-1 $121 $120 $296 $297 reversed $47 $-1 #
coedge $-1 $298 $299 $120 $204 forward $289 $-1 #
edge $-1 $300 -28.914337066105748 $207 -18.891534565416059 $203 $301 forward 7 unknown #
edge $-1 $302 -39.191055508165377 $208 -29.168253007475691 $198 $303 forward 7 unknown #
coedge $-1 $122 $293 $298 $304 forward $117 $-1 #
vertex $-1 $204 $305 #
vertex $-1 $123 $306 #
straight-curve $-1 -13.366222312580859 11.095709219042703 6.2061973304336444 1 0 0 I I #
coedge $-1 $210 $210 $-1 $307 reversed $126 $-1 #
edge $-1 $308 0 $308 6.2831853071796004 $127 $309 forward 7 unknown #
vertex $-1 $130 $310 #
ellipse-curve $-1 -31.057458347435063 15.345618486562692 3.5505592320088013 0 0.52991927123019833 0.84804809178421925 2.5 0 0 1 I I #
coedge $-1 $214 $214 $-1 $311 reversed $133 $-1 #
edge $-1 $312 0 $312 6.2831853071796004 $134 $313 forward 7 unknown #
vertex $-1 $137 $314 #
ellipse-curve $-1 -22.407430902888372 15.345618486562692 3.5505592320088013 0 0.52991927123019833 0.84804809178421925 2.5 0 0 1 I I #
face $-1 $-1 $315 $29 $-1 $316 reversed single #
loop $-1 $-1 $224 $138 #
plane-surface $-1 0 0 6.2061973304336462 0 0 1 1 0 0 forward_v I I I I #
coedge $-1 $317 $318 $223 $319 reversed $139 $-1 #
coedge $-1 $320 $141 $143 $228 forward $87 $-1 #
coedge $-1 $141 $320 $221 $319 forward $87 $-1 #
coedge $-1 $321 $144 $141 $225 forward $219 $-1 #
edge $-1 $231 3.2745236272763876 $322 23.457920997885324 $224 $323 forward 7 unknown #
coedge $-1 $324 $325 $142 $227 forward $315 $-1 #
edge $-1 $326 -36.345201784977974 $230 -31.033925588128291 $226 $327 forward 7 unknown #
edge $-1 $231 -10.022802500689677 $326 -4.1895292081871576e-015 $143 $328 forward 7 unknown #
coedge $-1 $144 $321 $324 $329 forward $219 $-1 #
vertex $-1 $227 $330 #
vertex $-1 $145 $331 #
straight-curve $-1 -16.640745939857247 -32.788371377906543 6.2061973304336462 0 1 0 I I #
coedge $-1 $233 $233 $-1 $332 reversed $148 $-1 #
edge $-1 $333 0 $333 6.2831853071796004 $149 $334 forward 7 unknown #
vertex $-1 $152 $335 #
ellipse-curve $-1 -31.057458347435063 -15.345618486562699 3.550559232008804 0 -0.52991927123019833 0.84804809178421925 2.5 0 0 1 I I #
coedge $-1 $237 $237 $-1 $336 reversed $155 $-1 #
edge $-1 $337 0 $337 6.2831853071796004 $156 $338 forward 7 unknown #
vertex $-1 $159 $339 #
ellipse-curve $-1 -22.407430902888372 -15.345618486562699 3.550559232008804 0 -0.52991927123019833 0.84804809178421925 2.5 0 0 1 I I #
face $-1 $-1 $175 $24 $-1 $340 reversed single #
loop $-1 $-1 $257 $160 #
plane-surface $-1 0 19.595527754082685 0 0 -1 0 0 0 -1 forward_v I I I I #
coedge $-1 $341 $255 $258 $342 forward $161 $-1 #
coedge $-1 $261 $163 $164 $249 reversed $101 $-1 #
coedge $-1 $255 $341 $163 $247 reversed $161 $-1 #
edge $-1 $262 -6.2061973304336462 $343 6.2061973304336462 $246 $344 forward 7 unknown #
coedge $-1 $165 $164 $341 $345 forward $65 $-1 #
edge $-1 $253 -43.385113071077612 $343 43.385113071077612 $245 $346 forward 7 unknown #
coedge $-1 $258 $257 $165 $251 reversed $242 $-1 #
edge $-1 $347 -43.385113071077612 $252 43.385113071077612 $250 $348 forward 7 unknown #
vertex $-1 $167 $349 #
vertex $-1 $264 $350 #
straight-curve $-1 43.385113071077612 0 -6.2061973304336462 0 -1 0 I I #
coedge $-1 $244 $246 $168 $256 reversed $161 $-1 #
edge $-1 $259 -19.595527754082685 $262 19.595527754082685 $255 $351 forward 7 unknown #
coedge $-1 $250 $169 $174 $265 forward $242 $-1 #
coedge $-1 $169 $250 $244 $342 reversed $242 $-1 #
vertex $-1 $170 $352 #
straight-curve $-1 0 19.595527754082685 6.2061973304336462 -1 0 0 I I #
coedge $-1 $171 $245 $173 $264 reversed $101 $-1 #
vertex $-1 $256 $353 #
straight-curve $-1 0 -19.595527754082685 6.2061973304336462 1 0 0 I I #
edge $-1 $176 -6.2061973304336462 $253 6.2061973304336462 $173 $354 forward 7 unknown #
edge $-1 $177 -6.2061973304336462 $252 6.2061973304336462 $174 $355 forward 7 unknown #
point $-1 43.385113071077612 -19.595527754082685 6.2061973304336462 #
point $-1 43.385113071077612 19.595527754082685 6.2061973304336462 #
face $-1 $-1 $277 $25 $-1 $356 reversed single #
loop $-1 $-1 $274 $179 #
plane-surface $-1 0 0 6.2061973304336462 0 0 1 1 0 0 forward_v I I I I #
coedge $-1 $357 $358 $186 $280 forward $180 $-1 #
coedge $-1 $182 $284 $359 $360 reversed $109 $-1 #
edge $-1 $361 -3.8530986652168231 $192 -0.85309866521682309 $182 $362 forward 7 unknown #
coedge $-1 $359 $363 $183 $275 forward $269 $-1 #
edge $-1 $278 -19.595527754082685 $361 19.595527754082685 $274 $364 forward 7 unknown #
coedge $-1 $281 $184 $363 $365 reversed $277 $-1 #
loop $-1 $-1 $184 $268 #
vertex $-1 $185 $366 #
straight-curve $-1 -36.824143310466184 -19.595527754082685 2.3530986652168231 0 0 1 I I #
edge $-1 $285 -19.595527754082685 $282 19.595527754082685 $271 $367 forward 7 unknown #
coedge $-1 $187 $276 $357 $368 forward $277 $-1 #
vertex $-1 $280 $369 #
straight-curve $-1 -20.052314095385949 -19.595527754082685 3.2061973304336462 1 0 0 I I #
coedge $-1 $272 $189 $358 $370 reversed $109 $-1 #
vertex $-1 $280 $371 #
straight-curve $-1 -20.052314095385949 19.595527754082685 3.2061973304336462 -1 0 0 I I #
point $-1 -36.824143310466184 19.595527754082685 3.2061973304336462 #
point $-1 -36.824143310466184 -19.595527754082685 3.2061973304336462 #
loop $-1 $-1 $203 $195 #
plane-surface $-1 -36.824143310466184 0 4.7061973304336462 -1 0 0 0 0 1 forward_v I I I I #
coedge $-1 $296 $372 $199 $292 forward $196 $-1 #
edge $-1 $294 41.41797337494291 $302 46.729249571792593 $291 $373 forward 7 unknown #
coedge $-1 $206 $200 $372 $374 forward $117 $-1 #
vertex $-1 $374 $375 #
straight-curve $-1 -16.640745939857247 16.170421458552013 6.2061973304336462 0 1 0 I I #
coedge $-1 $376 $291 $202 $297 forward $196 $-1 #
edge $-1 $302 3.2745236272763876 $300 23.457920997885331 $296 $377 forward 7 unknown #
coedge $-1 $299 $203 $206 $304 reversed $289 $-1 #
coedge $-1 $203 $298 $376 $378 reversed $289 $-1 #
vertex $-1 $378 $379 #
straight-curve $-1 -36.824143310466184 -4.9252206200340094 16.217185559759027 0 -0.84804809178421925 0.52991927123019833 I I #
vertex $-1 $297 $380 #
straight-curve $-1 -16.640745939857247 -13.640372084626371 21.663016707213202 0 -0.84804809178421925 0.52991927123019833 I I #
edge $-1 $381 -19.595527754082685 $207 -11.095709219042698 $206 $382 forward 7 unknown #
point $-1 -36.824143310466184 11.095709219042698 6.2061973304336462 #
point $-1 -16.640745939857247 11.0957092190427 6.2061973304336462 #
edge $-1 $383 1 $383 0 $210 $-1 forward 7 unknown #
vertex $-1 $211 $384 #
ellipse-curve $-1 -31.057458347435063 13.888732670077442 1.2190545978225424 0 0.52991927123019833 0.84804809178421925 2.5 0 0 1 I I #
point $-1 -28.557458347435063 15.345618486562698 3.5505592320088089 #
edge $-1 $385 1 $385 0 $214 $-1 forward 7 unknown #
vertex $-1 $215 $386 #
ellipse-curve $-1 -22.407430902888372 13.888732670077442 1.2190545978225424 0 0.52991927123019833 0.84804809178421925 2.5 0 0 1 I I #
point $-1 -19.907430902888372 15.345618486562698 3.5505592320088089 #
loop $-1 $-1 $226 $218 #
plane-surface $-1 0 -19.595527754082685 0 0 1 0 0 0 1 forward_v I I I I #
coedge $-1 $318 $221 $387 $388 reversed $139 $-1 #
coedge $-1 $221 $317 $321 $389 reversed $139 $-1 #
edge $-1 $390 4.1895292081871576e-015 $322 10.022802500689675 $221 $391 forward 7 unknown #
coedge $-1 $223 $222 $325 $392 reversed $87 $-1 #
coedge $-1 $229 $224 $318 $389 forward $219 $-1 #
vertex $-1 $389 $393 #
straight-curve $-1 -13.366222312580859 -11.095709219042709 6.2061973304336462 -1 0 0 I I #
coedge $-1 $387 $226 $229 $329 reversed $315 $-1 #
coedge $-1 $226 $387 $320 $392 forward $315 $-1 #
vertex $-1 $227 $394 #
straight-curve $-1 -16.640745939857247 -19.595527754082685 37.240122918561937 0 0 1 I I #
straight-curve $-1 -16.640745939857247 -19.595527754082688 0.89492113358396352 0 -0.84804809178421925 -0.52991927123019833 I I #
edge $-1 $395 -36.824143310466184 $230 -16.640745939857247 $324 $396 forward 7 unknown #
point $-1 -16.640745939857247 -19.595527754082685 6.2061973304336462 #
point $-1 -16.640745939857247 -11.095709219042707 6.2061973304336462 #
edge $-1 $397 1 $397 0 $233 $-1 forward 7 unknown #
vertex $-1 $234 $398 #
ellipse-curve $-1 -31.057458347435063 -13.888732670077447 1.2190545978225451 0 -0.52991927123019833 0.84804809178421925 2.5 0 0 1 I I #
point $-1 -28.557458347435063 -15.345618486562703 3.5505592320088115 #
edge $-1 $399 1 $399 0 $237 $-1 forward 7 unknown #
vertex $-1 $238 $400 #
ellipse-curve $-1 -22.407430902888372 -13.888732670077447 1.2190545978225451 0 -0.52991927123019833 0.84804809178421925 2.5 0 0 1 I I #
point $-1 -19.907430902888372 -15.345618486562703 3.5505592320088115 #
plane-surface $-1 43.385113071077612 0 0 -1 0 0 0 0 1 forward_v I I I I #
coedge $-1 $246 $244 $248 $345 reversed $161 $-1 #
edge $-1 $259 -6.2061973304336462 $347 6.2061973304336462 $258 $401 forward 7 unknown #
vertex $-1 $345 $402 #
straight-curve $-1 -43.385113071077612 -19.595527754082685 0 0 0 -1 I I #
edge $-1 $343 -19.595527754082685 $347 19.595527754082685 $341 $403 forward 7 unknown #
straight-curve $-1 0 -19.595527754082685 -6.2061973304336462 -1 0 0 I I #
vertex $-1 $251 $404 #
straight-curve $-1 0 19.595527754082685 -6.2061973304336462 1 0 0 I I #
point $-1 43.385113071077612 19.595527754082685 -6.2061973304336462 #
point $-1 43.385113071077612 -19.595527754082685 -6.2061973304336462 #
straight-curve $-1 -43.385113071077612 0 6.2061973304336462 0 -1 0 I I #
point $-1 -43.385113071077612 19.595527754082685 6.2061973304336462 #
point $-1 -43.385113071077612 -19.595527754082685 6.2061973304336462 #
straight-curve $-1 43.385113071077612 -19.595527754082685 0 0 0 -1 I I #
straight-curve $-1 43.385113071077612 19.595527754082685 0 0 0 -1 I I #
plane-surface $-1 0 -19.595527754082685 0 0 1 0 0 0 1 forward_v I I I I #
coedge $-1 $405 $271 $281 $368 reversed $180 $-1 #
coedge $-1 $271 $405 $284 $370 forward $180 $-1 #
coedge $-1 $406 $274 $272 $360 forward $269 $-1 #
edge $-1 $361 36.824143310466184 $407 43.385113071077612 $272 $408 forward 7 unknown #
vertex $-1 $360 $409 #
straight-curve $-1 -36.824143310466184 19.595527754082685 2.3530986652168231 0 0 -1 I I #
coedge $-1 $274 $406 $276 $365 forward $269 $-1 #
straight-curve $-1 -36.824143310466184 0 6.2061973304336462 0 1 0 I I #
edge $-1 $410 -43.385113071077612 $278 -36.824143310466184 $276 $411 forward 7 unknown #
point $-1 -36.824143310466184 -19.595527754082685 6.2061973304336462 #
straight-curve $-1 -43.385113071077612 0 3.2061973304336462 0 -1 0 I I #
edge $-1 $410 -6.2061973304336462 $282 -3.2061973304336462 $357 $412 forward 7 unknown #
point $-1 -43.385113071077612 -19.595527754082685 3.2061973304336462 #
edge $-1 $407 -6.2061973304336462 $285 -3.2061973304336462 $284 $413 forward 7 unknown #
point $-1 -43.385113071077612 19.595527754082685 3.2061973304336462 #
coedge $-1 $291 $376 $293 $374 reversed $196 $-1 #
straight-curve $-1 -16.640745939857247 19.595527754082685 47.624170705376557 0 0 -1 I I #
edge $-1 $294 16.640745939857247 $381 36.824143310466184 $372 $414 forward 7 unknown #
point $-1 -16.640745939857247 19.595527754082685 6.2061973304336462 #
coedge $-1 $372 $296 $299 $378 forward $196 $-1 #
straight-curve $-1 -13.366222312580859 19.595527754082688 0.89492113358395642 -1 0 0 I I #
edge $-1 $300 -46.729249571792593 $381 -41.41797337494291 $376 $415 forward 7 unknown #
point $-1 -36.824143310466191 19.595527754082688 0.89492113358395997 #
point $-1 -16.640745939857247 19.595527754082688 0.89492113358395997 #
vertex $-1 $304 $416 #
straight-curve $-1 -36.824143310466184 0 6.2061973304336462 0 -1 0 I I #
vertex $-1 $307 $417 #
point $-1 -28.557458347435063 13.888732670077442 1.2190545978225424 #
vertex $-1 $311 $418 #
point $-1 -19.907430902888372 13.888732670077442 1.2190545978225424 #
coedge $-1 $325 $324 $317 $388 forward $315 $-1 #
edge $-1 $395 31.033925588128291 $390 36.345201784977974 $387 $419 forward 7 unknown #
edge $-1 $322 11.095709219042709 $395 19.595527754082685 $321 $420 forward 7 unknown #
vertex $-1 $388 $421 #
straight-curve $-1 -36.824143310466191 -19.595527754082688 0.89492113358396352 0 0.84804809178421925 0.52991927123019833 I I #
edge $-1 $390 -23.457920997885331 $326 -3.2745236272763876 $325 $422 forward 7 unknown #
point $-1 -36.824143310466184 -11.095709219042709 6.2061973304336462 #
point $-1 -16.640745939857247 -19.595527754082685 0.89492113358396574 #
vertex $-1 $329 $423 #
straight-curve $-1 0 -19.595527754082685 6.2061973304336462 1 0 0 I I #
vertex $-1 $332 $424 #
point $-1 -28.557458347435063 -13.888732670077447 1.2190545978225451 #
vertex $-1 $336 $425 #
point $-1 -19.907430902888372 -13.888732670077447 1.2190545978225451 #
straight-curve $-1 -43.385113071077612 19.595527754082685 0 0 0 -1 I I #
point $-1 -43.385113071077612 -19.595527754082685 -6.2061973304336462 #
straight-curve $-1 -43.385113071077612 0 -6.2061973304336462 0 1 0 I I #
point $-1 -43.385113071077612 19.595527754082685 -6.2061973304336462 #
coedge $-1 $358 $357 $406 $426 reversed $180 $-1 #
coedge $-1 $363 $359 $405 $426 forward $269 $-1 #
vertex $-1 $360 $427 #
straight-curve $-1 0 19.595527754082685 6.2061973304336462 -1 0 0 I I #
point $-1 -36.824143310466184 19.595527754082685 6.2061973304336462 #
vertex $-1 $426 $428 #
straight-curve $-1 0 -19.595527754082685 6.2061973304336462 1 0 0 I I #
straight-curve $-1 -43.385113071077612 -19.595527754082685 0 0 0 -1 I I #
straight-curve $-1 -43.385113071077612 19.595527754082685 0 0 0 -1 I I #
straight-curve $-1 0 19.595527754082685 6.2061973304336462 -1 0 0 I I #
straight-curve $-1 -36.824143310466191 19.595527754082685 47.624170705376557 0 0 1 I I #
point $-1 -36.824143310466184 19.595527754082685 6.2061973304336462 #
point $-1 -31.057458347435063 12.563934492001945 -0.9010656316380059 #
point $-1 -22.407430902888372 12.563934492001945 -0.9010656316380059 #
straight-curve $-1 -36.824143310466191 -19.595527754082685 37.240122918561937 0 0 -1 I I #
straight-curve $-1 -36.824143310466184 0 6.2061973304336462 0 -1 0 I I #
point $-1 -36.824143310466191 -19.595527754082685 0.89492113358396574 #
straight-curve $-1 -13.366222312580859 -19.595527754082685 0.89492113358396785 1 0 0 I I #
point $-1 -36.824143310466184 -19.595527754082685 6.2061973304336462 #
point $-1 -31.057458347435063 -12.56393449200195 -0.90106563163800324 #
point $-1 -22.407430902888372 -12.56393449200195 -0.90106563163800324 #
edge $-1 $407 -19.595527754082685 $410 19.595527754082685 $405 $429 forward 7 unknown #
point $-1 -43.385113071077612 19.595527754082685 6.2061973304336462 #
point $-1 -43.385113071077612 -19.595527754082685 6.2061973304336462 #
straight-curve $-1 -43.385113071077612 0 6.2061973304336462 0 -1 0 I I #
End-of-ACIS-data 