500 0 9 0           
7 Unknown 11 ACIS 5.0 NT 24 Fri Mar 26 02:11:55 1999 
-1 9.9999999999999995e-007 1e-010 
body $-1 $9 $-1 $10 #
body $-1 $11 $-1 $12 #
body $-1 $13 $-1 $14 #
body $-1 $15 $-1 $16 #
body $-1 $17 $-1 $18 #
body $-1 $19 $-1 $20 #
body $-1 $21 $-1 $22 #
body $-1 $23 $-1 $24 #
body $-1 $25 $-1 $26 #
lump $-1 $-1 $27 $0 #
transform $-1 1 0 0 0 1 0 0 0 1 73.599658192693866 42.569744009686325 19.403940721014191 1 rotate no_reflect no_shear #
lump $-1 $-1 $28 $1 #
transform $-1 1 0 0 0 1 0 0 0 1 73.599658192693866 42.569744009686325 19.403940721014191 1 rotate no_reflect no_shear #
lump $-1 $-1 $29 $2 #
transform $-1 1 0 0 0 1 0 0 0 1 73.599658192693866 42.569744009686325 19.403940721014191 1 rotate no_reflect no_shear #
lump $-1 $-1 $30 $3 #
transform $-1 1 0 0 0 1 0 0 0 1 73.599658192693866 42.569744009686325 19.403940721014191 1 rotate no_reflect no_shear #
lump $-1 $-1 $31 $4 #
transform $-1 1 0 0 0 1 0 0 0 1 73.599658192693866 42.569744009686325 19.403940721014191 1 rotate no_reflect no_shear #
lump $-1 $-1 $32 $5 #
transform $-1 1 0 0 0 1 0 0 0 1 73.599658192693866 42.569744009686325 19.403940721014191 1 rotate no_reflect no_shear #
lump $-1 $-1 $33 $6 #
transform $-1 1 0 0 0 1 0 0 0 1 73.599658192693866 42.569744009686325 19.403940721014191 1 rotate no_reflect no_shear #
lump $-1 $-1 $34 $7 #
transform $-1 1 0 0 0 1 0 0 0 1 73.599658192693866 42.569744009686325 19.403940721014191 1 rotate no_reflect no_shear #
lump $-1 $-1 $35 $8 #
transform $-1 1 0 0 0 1 0 0 0 1 73.599658192693866 42.569744009686325 19.403940721014191 1 rotate no_reflect no_shear #
shell $-1 $-1 $-1 $36 $-1 $9 #
shell $-1 $-1 $-1 $37 $-1 $11 #
shell $-1 $-1 $-1 $38 $-1 $13 #
shell $-1 $-1 $-1 $39 $-1 $15 #
shell $-1 $-1 $-1 $40 $-1 $17 #
shell $-1 $-1 $-1 $41 $-1 $19 #
shell $-1 $-1 $-1 $42 $-1 $21 #
shell $-1 $-1 $-1 $43 $-1 $23 #
shell $-1 $-1 $-1 $44 $-1 $25 #
face $-1 $45 $46 $27 $-1 $47 reversed single #
face $-1 $48 $49 $28 $-1 $50 reversed single #
face $-1 $51 $52 $29 $-1 $53 forward single #
face $-1 $54 $55 $30 $-1 $56 reversed single #
face $-1 $57 $58 $31 $-1 $59 forward single #
face $-1 $60 $61 $32 $-1 $62 forward single #
face $-1 $63 $64 $33 $-1 $65 reversed single #
face $-1 $66 $67 $34 $-1 $68 forward single #
face $-1 $69 $70 $35 $-1 $71 forward single #
face $-1 $72 $73 $27 $-1 $74 forward single #
loop $-1 $-1 $75 $36 #
plane-surface $-1 73.599658192693866 0 0 -1 0 0 0 0 1 forward_v I I I I #
face $-1 $76 $77 $28 $-1 $78 reversed single #
loop $-1 $-1 $79 $37 #
plane-surface $-1 -63.530293842418885 -17.247634577668144 0 0 1 0 0 0 1 forward_v I I I I #
face $-1 $80 $81 $29 $-1 $82 reversed single #
loop $-1 $-1 $83 $38 #
plane-surface $-1 73.599658192693866 0 0 -1 0 0 0 0 1 forward_v I I I I #
face $-1 $84 $85 $30 $-1 $86 reversed single #
loop $-1 $-1 $87 $39 #
plane-surface $-1 9.1332075204221894 119.65119191487722 164.89907887208196 1 0 0 0 -0.83867057594974714 -0.54463902268945019 forward_v I I I I #
face $-1 $88 $89 $31 $-1 $90 forward single #
loop $-1 $91 $92 $40 #
cone-surface $-1 13.8390817110743 39.507257093989999 15.657389982636664 0 -0.83867057594974714 -0.54463902268945019 1.5 0 0 1 I I 0 1 1.5 forward I I I I #
face $-1 $93 $94 $32 $-1 $95 forward single #
loop $-1 $96 $97 $41 #
cone-surface $-1 20.897892997052466 39.507257093989999 15.657389982636664 0 -0.83867057594974714 -0.54463902268945019 1.5 0 0 1 I I 0 1 1.5 forward I I I I #
face $-1 $98 $99 $33 $-1 $100 reversed single #
loop $-1 $-1 $101 $42 #
plane-surface $-1 25.603767187704591 -166.02147946202851 93.495095418808091 -1 0 0 0 -0.83867057594974714 0.54463902268945019 forward_v I I I I #
face $-1 $102 $103 $34 $-1 $104 forward single #
loop $-1 $105 $106 $43 #
cone-surface $-1 13.8390817110743 -39.507257093989999 15.657389982636678 0 0.83867057594974714 -0.54463902268945019 1.5 0 0 1 I I 0 1 1.5 forward I I I I #
face $-1 $107 $108 $35 $-1 $109 forward single #
loop $-1 $110 $111 $44 #
cone-surface $-1 20.897892997052466 -39.507257093989999 15.657389982636678 0 0.83867057594974714 -0.54463902268945019 1.5 0 0 1 I I 0 1 1.5 forward I I I I #
face $-1 $112 $113 $27 $-1 $114 reversed single #
loop $-1 $-1 $115 $45 #
plane-surface $-1 0 0 19.403940721014191 0 0 1 1 0 0 forward_v I I I I #
coedge $-1 $116 $117 $118 $119 reversed $46 $-1 #
face $-1 $120 $121 $28 $-1 $122 reversed single #
loop $-1 $-1 $123 $48 #
plane-surface $-1 -63.530293842418885 -10.101569504369811 0 0 -1 0 0 0 -1 forward_v I I I I #
coedge $-1 $124 $125 $126 $127 reversed $49 $-1 #
face $-1 $128 $129 $29 $-1 $130 reversed single #
loop $-1 $-1 $131 $51 #
plane-surface $-1 0 0 -19.403940721014191 0 0 1 1 0 0 forward_v I I I I #
coedge $-1 $132 $133 $134 $135 forward $52 $-1 #
face $-1 $136 $137 $30 $-1 $138 reversed single #
loop $-1 $-1 $139 $54 #
plane-surface $-1 17.36848735406339 -3.8005435374649608 84.728587055389212 0 0.83867057594974714 0.54463902268945019 1 0 0 forward_v I I I I #
coedge $-1 $140 $141 $142 $143 reversed $55 $-1 #
face $-1 $-1 $144 $31 $-1 $145 forward single #
loop $-1 $146 $147 $57 #
cone-surface $-1 13.8390817110743 37.789751026129046 14.542028536691479 0 -0.83867057594974714 -0.54463902268945019 0.75 0 0 1 I I -0.70710678118654757 0.70710678118654757 0.75 forward I I I I #
loop $-1 $-1 $148 $40 #
coedge $-1 $92 $92 $149 $150 reversed $58 $-1 #
face $-1 $-1 $151 $32 $-1 $152 forward single #
loop $-1 $153 $154 $60 #
cone-surface $-1 20.897892997052466 37.789751026129046 14.542028536691479 0 -0.83867057594974714 -0.54463902268945019 0.75 0 0 1 I I -0.70710678118654757 0.70710678118654757 0.75 forward I I I I #
loop $-1 $-1 $155 $41 #
coedge $-1 $97 $97 $156 $157 reversed $61 $-1 #
face $-1 $158 $159 $33 $-1 $160 reversed single #
loop $-1 $-1 $161 $63 #
plane-surface $-1 17.36848735406339 -42.569744009686332 13.324603602115346 0 -0.83867057594974714 0.54463902268945019 1 0 0 forward_v I I I I #
coedge $-1 $162 $163 $164 $165 reversed $64 $-1 #
face $-1 $-1 $166 $34 $-1 $167 forward single #
loop $-1 $168 $169 $66 #
cone-surface $-1 13.8390817110743 -37.789751026129046 14.542028536691493 0 0.83867057594974714 -0.54463902268945019 0.75 0 0 1 I I -0.70710678118654757 0.70710678118654757 0.75 forward I I I I #
loop $-1 $-1 $170 $43 #
coedge $-1 $106 $106 $171 $172 reversed $67 $-1 #
face $-1 $-1 $173 $35 $-1 $174 forward single #
loop $-1 $175 $176 $69 #
cone-surface $-1 20.897892997052466 -37.789751026129046 14.542028536691493 0 0.83867057594974714 -0.54463902268945019 0.75 0 0 1 I I -0.70710678118654757 0.70710678118654757 0.75 forward I I I I #
loop $-1 $-1 $177 $44 #
coedge $-1 $111 $111 $178 $179 reversed $70 $-1 #
face $-1 $180 $181 $27 $-1 $182 reversed single #
loop $-1 $-1 $118 $72 #
plane-surface $-1 0 0 -19.403940721014191 0 0 1 1 0 0 forward_v I I I I #
coedge $-1 $183 $184 $185 $186 forward $73 $-1 #
coedge $-1 $185 $75 $187 $188 reversed $46 $-1 #
coedge $-1 $75 $185 $189 $190 forward $46 $-1 #
coedge $-1 $191 $192 $75 $119 forward $113 $-1 #
edge $-1 $193 -42.569744009686325 $194 42.569744009686325 $75 $195 forward 7 unknown #
face $-1 $196 $197 $28 $-1 $198 reversed single #
loop $-1 $-1 $199 $76 #
plane-surface $-1 -53.460929492143904 -13.674602041018979 0 -1 0 0 0 0 1 forward_v I I I I #
coedge $-1 $200 $201 $202 $203 forward $77 $-1 #
coedge $-1 $204 $79 $205 $206 reversed $49 $-1 #
coedge $-1 $79 $204 $207 $208 reversed $49 $-1 #
coedge $-1 $209 $210 $79 $127 forward $211 $-1 #
edge $-1 $212 -19.403940721014191 $213 19.403940721014191 $126 $214 forward 7 unknown #
face $-1 $215 $216 $29 $-1 $217 reversed single #
loop $-1 $-1 $134 $80 #
plane-surface $-1 85.537229952455689 -13.315728873038676 0 0 1 0 0 0 1 forward_v I I I I #
coedge $-1 $218 $219 $133 $220 forward $81 $-1 #
coedge $-1 $221 $83 $222 $223 reversed $52 $-1 #
coedge $-1 $83 $221 $131 $220 reversed $52 $-1 #
coedge $-1 $224 $225 $83 $135 reversed $129 $-1 #
edge $-1 $226 -19.403940721014191 $227 19.403940721014191 $134 $228 forward 7 unknown #
face $-1 $229 $230 $30 $-1 $231 reversed single #
loop $-1 $-1 $232 $84 #
plane-surface $-1 25.603767187704591 119.65119191487722 164.89907887208196 -1 0 0 0 0.83867057594974714 0.54463902268945019 forward_v I I I I #
coedge $-1 $233 $234 $235 $236 reversed $85 $-1 #
coedge $-1 $141 $87 $237 $238 reversed $55 $-1 #
coedge $-1 $87 $140 $233 $239 reversed $55 $-1 #
coedge $-1 $235 $240 $87 $143 forward $241 $-1 #
edge $-1 $242 17.255851947752284 $243 21.20381950734766 $142 $244 forward 7 unknown #
loop $-1 $-1 $149 $88 #
plane-surface $-1 17.36848735406339 -3.8005435374649608 84.728587055389212 0 0.83867057594974714 0.54463902268945019 1 0 0 forward_v I I I I #
loop $-1 $-1 $245 $57 #
coedge $-1 $147 $147 $148 $246 reversed $89 $-1 #
coedge $-1 $148 $148 $147 $246 forward $91 $-1 #
coedge $-1 $149 $149 $92 $150 forward $144 $-1 #
edge $-1 $247 2.5799286745564613e-015 $247 6.2831853071796031 $149 $248 forward 7 unknown #
loop $-1 $-1 $156 $93 #
plane-surface $-1 17.36848735406339 -3.8005435374649608 84.728587055389212 0 0.83867057594974714 0.54463902268945019 1 0 0 forward_v I I I I #
loop $-1 $-1 $249 $60 #
coedge $-1 $154 $154 $155 $250 reversed $94 $-1 #
coedge $-1 $155 $155 $154 $250 forward $96 $-1 #
coedge $-1 $156 $156 $97 $157 forward $151 $-1 #
edge $-1 $251 2.5799286745564613e-015 $251 6.2831853071796031 $156 $252 forward 7 unknown #
face $-1 $253 $254 $33 $-1 $255 forward single #
loop $-1 $-1 $256 $98 #
plane-surface $-1 9.1332075204221894 -166.02147946202851 93.495095418808091 1 0 0 0 0.83867057594974714 -0.54463902268945019 forward_v I I I I #
coedge $-1 $257 $258 $259 $260 reversed $99 $-1 #
coedge $-1 $163 $101 $261 $262 reversed $64 $-1 #
coedge $-1 $101 $162 $257 $263 reversed $64 $-1 #
coedge $-1 $259 $264 $101 $165 forward $254 $-1 #
edge $-1 $265 40.44099572132793 $266 44.388963280923292 $164 $267 forward 7 unknown #
loop $-1 $-1 $171 $102 #
plane-surface $-1 17.36848735406339 -42.569744009686332 13.324603602115346 0 -0.83867057594974714 0.54463902268945019 1 0 0 forward_v I I I I #
loop $-1 $-1 $268 $66 #
coedge $-1 $169 $169 $170 $269 reversed $103 $-1 #
coedge $-1 $170 $170 $169 $269 forward $105 $-1 #
coedge $-1 $171 $171 $106 $172 forward $166 $-1 #
edge $-1 $270 -2.5799286745564613e-015 $270 6.2831853071795978 $171 $271 forward 7 unknown #
loop $-1 $-1 $178 $107 #
plane-surface $-1 17.36848735406339 -42.569744009686332 13.324603602115346 0 -0.83867057594974714 0.54463902268945019 1 0 0 forward_v I I I I #
loop $-1 $-1 $272 $69 #
coedge $-1 $176 $176 $177 $273 reversed $108 $-1 #
coedge $-1 $177 $177 $176 $273 forward $110 $-1 #
coedge $-1 $178 $178 $111 $179 forward $173 $-1 #
edge $-1 $274 -2.5799286745564613e-015 $274 6.2831853071795978 $178 $275 forward 7 unknown #
face $-1 $276 $277 $27 $-1 $278 reversed single #
loop $-1 $-1 $279 $112 #
plane-surface $-1 0 -42.569744009686325 0 0 1 0 0 0 1 forward_v I I I I #
coedge $-1 $280 $115 $281 $282 forward $73 $-1 #
coedge $-1 $115 $280 $283 $284 forward $73 $-1 #
coedge $-1 $117 $116 $115 $186 reversed $46 $-1 #
edge $-1 $285 -42.569744009686325 $286 42.569744009686325 $185 $287 forward 7 unknown #
coedge $-1 $288 $281 $116 $188 forward $289 $-1 #
edge $-1 $286 -19.403940721014191 $193 19.403940721014191 $116 $290 forward 7 unknown #
coedge $-1 $283 $291 $117 $190 reversed $181 $-1 #
edge $-1 $285 -19.403940721014191 $194 19.403940721014191 $117 $292 forward 7 unknown #
coedge $-1 $293 $118 $291 $294 forward $113 $-1 #
coedge $-1 $118 $293 $288 $295 forward $113 $-1 #
vertex $-1 $119 $296 #
vertex $-1 $190 $297 #
straight-curve $-1 73.599658192693866 0 -19.403940721014191 0 -1 0 I I #
face $-1 $298 $299 $28 $-1 $300 forward single #
loop $-1 $-1 $301 $120 #
plane-surface $-1 0 0 -19.403940721014191 0 0 1 1 0 0 forward_v I I I I #
coedge $-1 $302 $303 $204 $304 forward $121 $-1 #
coedge $-1 $305 $123 $301 $306 reversed $77 $-1 #
coedge $-1 $123 $305 $307 $308 reversed $77 $-1 #
coedge $-1 $303 $302 $123 $203 reversed $121 $-1 #
edge $-1 $309 -19.403940721014191 $310 19.403940721014191 $202 $311 forward 7 unknown #
coedge $-1 $125 $124 $199 $304 reversed $49 $-1 #
coedge $-1 $312 $313 $124 $206 forward $197 $-1 #
edge $-1 $314 21.695782570934462 $212 41.834511271484423 $205 $315 forward 7 unknown #
coedge $-1 $316 $317 $125 $208 forward $299 $-1 #
edge $-1 $213 -41.834511271484423 $318 -21.695782570934462 $207 $319 forward 7 unknown #
coedge $-1 $320 $126 $317 $321 reversed $211 $-1 #
coedge $-1 $126 $320 $312 $322 reversed $211 $-1 #
loop $-1 $-1 $320 $298 #
vertex $-1 $322 $323 #
vertex $-1 $127 $324 #
straight-curve $-1 -73.599658192693866 -17.247634577668144 0 0 0 1 I I #
face $-1 $325 $326 $29 $-1 $327 reversed single #
loop $-1 $-1 $328 $128 #
plane-surface $-1 85.537229952455689 -3.7618625676579462 0 0 -1 0 0 0 -1 forward_v I I I I #
coedge $-1 $329 $131 $330 $331 forward $81 $-1 #
coedge $-1 $131 $329 $224 $332 forward $81 $-1 #
edge $-1 $226 -13.315728873038676 $333 -3.7618625676579462 $131 $334 forward 7 unknown #
coedge $-1 $133 $132 $335 $336 forward $52 $-1 #
coedge $-1 $337 $338 $132 $223 forward $339 $-1 #
edge $-1 $340 3.7618625676579462 $227 13.315728873038676 $222 $341 forward 7 unknown #
coedge $-1 $342 $134 $219 $332 reversed $129 $-1 #
coedge $-1 $134 $342 $337 $343 reversed $129 $-1 #
vertex $-1 $220 $344 #
vertex $-1 $343 $345 #
straight-curve $-1 73.599658192693866 -13.315728873038676 0 0 0 1 I I #
face $-1 $-1 $241 $30 $-1 $346 forward single #
loop $-1 $-1 $347 $136 #
plane-surface $-1 0 42.569744009686325 0 0 -1 0 0 0 -1 forward_v I I I I #
coedge $-1 $348 $349 $350 $351 reversed $137 $-1 #
coedge $-1 $352 $139 $141 $239 forward $85 $-1 #
coedge $-1 $139 $352 $348 $353 forward $85 $-1 #
coedge $-1 $350 $142 $139 $236 forward $241 $-1 #
edge $-1 $243 0.44896384339049433 $354 16.919523510672896 $235 $355 forward 7 unknown #
coedge $-1 $356 $357 $140 $238 forward $230 $-1 #
edge $-1 $358 -69.124935833925647 $242 -63.045598715026784 $237 $359 forward 7 unknown #
edge $-1 $243 77.890709663205413 $358 85.139488019372678 $141 $360 forward 7 unknown #
coedge $-1 $142 $350 $356 $361 forward $241 $-1 #
loop $-1 $-1 $350 $229 #
vertex $-1 $238 $362 #
vertex $-1 $143 $363 #
straight-curve $-1 9.1332075204221894 59.825595957438608 19.403940721014195 0 -1 0 I I #
coedge $-1 $245 $245 $-1 $364 reversed $146 $-1 #
edge $-1 $365 0 $365 6.2831853071796004 $147 $366 forward 7 unknown #
vertex $-1 $150 $367 #
ellipse-curve $-1 13.8390817110743 40.59576022988864 16.36427216156476 0 0.83867057594974714 0.54463902268945019 1.5 0 0 1 I I #
coedge $-1 $249 $249 $-1 $368 reversed $153 $-1 #
edge $-1 $369 0 $369 6.2831853071796004 $154 $370 forward 7 unknown #
vertex $-1 $157 $371 #
ellipse-curve $-1 20.897892997052466 40.59576022988864 16.36427216156476 0 0.83867057594974714 0.54463902268945019 1.5 0 0 1 I I #
face $-1 $-1 $372 $33 $-1 $373 reversed single #
loop $-1 $-1 $164 $158 #
plane-surface $-1 0 0 19.403940721014191 0 0 1 1 0 0 forward_v I I I I #
coedge $-1 $374 $375 $376 $377 reversed $159 $-1 #
coedge $-1 $378 $161 $163 $263 forward $99 $-1 #
coedge $-1 $161 $378 $374 $379 forward $99 $-1 #
coedge $-1 $376 $164 $161 $260 forward $254 $-1 #
edge $-1 $266 -16.919523510672896 $380 -0.44896384339049433 $259 $381 forward 7 unknown #
coedge $-1 $382 $383 $162 $262 forward $372 $-1 #
edge $-1 $384 -33.422944107288686 $265 -27.343606988389855 $261 $385 forward 7 unknown #
edge $-1 $266 -7.2487783561672465 $384 -1.2808562293387176e-014 $163 $386 forward 7 unknown #
coedge $-1 $164 $376 $382 $387 forward $254 $-1 #
vertex $-1 $165 $388 #
vertex $-1 $165 $389 #
straight-curve $-1 25.603767187704591 -83.010739731014255 19.403940721014187 0 1 0 I I #
coedge $-1 $268 $268 $-1 $390 reversed $168 $-1 #
edge $-1 $391 0 $391 6.2831853071796004 $169 $392 forward 7 unknown #
vertex $-1 $172 $393 #
ellipse-curve $-1 13.8390817110743 -40.59576022988864 16.364272161564774 0 -0.83867057594974714 0.54463902268945019 1.5 0 0 1 I I #
coedge $-1 $272 $272 $-1 $394 reversed $175 $-1 #
edge $-1 $395 0 $395 6.2831853071796004 $176 $396 forward 7 unknown #
vertex $-1 $179 $397 #
ellipse-curve $-1 20.897892997052466 -40.59576022988864 16.364272161564774 0 -0.83867057594974714 0.54463902268945019 1.5 0 0 1 I I #
face $-1 $-1 $289 $27 $-1 $398 reversed single #
loop $-1 $-1 $399 $180 #
plane-surface $-1 -73.599658192693866 0 0 1 0 0 0 0 -1 forward_v I I I I #
coedge $-1 $291 $283 $400 $401 forward $181 $-1 #
coedge $-1 $184 $183 $402 $403 forward $73 $-1 #
coedge $-1 $187 $404 $183 $282 reversed $289 $-1 #
edge $-1 $286 -73.599658192693866 $405 73.599658192693866 $281 $406 forward 7 unknown #
coedge $-1 $279 $189 $184 $284 reversed $181 $-1 #
edge $-1 $407 -73.599658192693866 $285 73.599658192693866 $283 $408 forward 7 unknown #
vertex $-1 $186 $409 #
vertex $-1 $186 $410 #
straight-curve $-1 73.599658192693866 0 19.403940721014191 0 1 0 I I #
coedge $-1 $404 $187 $192 $295 reversed $289 $-1 #
loop $-1 $-1 $187 $276 #
straight-curve $-1 73.599658192693866 42.569744009686325 0 0 0 -1 I I #
coedge $-1 $189 $279 $191 $294 reversed $181 $-1 #
straight-curve $-1 73.599658192693866 -42.569744009686325 0 0 0 -1 I I #
coedge $-1 $192 $191 $411 $412 forward $113 $-1 #
edge $-1 $194 -73.599658192693866 $413 73.599658192693866 $291 $414 forward 7 unknown #
edge $-1 $415 -73.599658192693866 $193 73.599658192693866 $288 $416 forward 7 unknown #
point $-1 73.599658192693866 42.569744009686325 -19.403940721014191 #
point $-1 73.599658192693866 -42.569744009686325 -19.403940721014191 #
face $-1 $-1 $211 $28 $-1 $417 reversed single #
loop $-1 $-1 $307 $196 #
plane-surface $-1 0 0 19.403940721014191 0 0 1 1 0 0 forward_v I I I I #
coedge $-1 $313 $312 $200 $306 forward $197 $-1 #
coedge $-1 $202 $199 $313 $418 reversed $121 $-1 #
coedge $-1 $199 $202 $316 $419 reversed $121 $-1 #
edge $-1 $318 -19.403940721014191 $314 19.403940721014191 $199 $420 forward 7 unknown #
coedge $-1 $201 $200 $320 $421 reversed $77 $-1 #
edge $-1 $422 -41.834511271484423 $310 -21.695782570934462 $301 $423 forward 7 unknown #
coedge $-1 $317 $316 $201 $308 forward $299 $-1 #
edge $-1 $309 21.695782570934462 $424 41.834511271484423 $307 $425 forward 7 unknown #
vertex $-1 $308 $426 #
vertex $-1 $306 $427 #
straight-curve $-1 -53.460929492143904 -10.101569504369811 0 0 0 -1 I I #
coedge $-1 $301 $205 $210 $322 forward $197 $-1 #
coedge $-1 $205 $301 $302 $418 forward $197 $-1 #
vertex $-1 $206 $428 #
straight-curve $-1 -31.765146921209443 -17.247634577668144 -19.403940721014191 -1 0 0 I I #
coedge $-1 $307 $207 $303 $419 forward $299 $-1 #
coedge $-1 $207 $307 $209 $321 forward $299 $-1 #
vertex $-1 $208 $429 #
straight-curve $-1 -31.765146921209443 -17.247634577668144 19.403940721014191 1 0 0 I I #
coedge $-1 $210 $209 $305 $421 forward $211 $-1 #
edge $-1 $424 10.101569504369811 $213 17.247634577668144 $209 $430 forward 7 unknown #
edge $-1 $212 -17.247634577668144 $422 -10.101569504369811 $210 $431 forward 7 unknown #
point $-1 -73.599658192693866 -17.247634577668144 -19.403940721014191 #
point $-1 -73.599658192693866 -17.247634577668144 19.403940721014191 #
face $-1 $-1 $339 $29 $-1 $432 forward single #
loop $-1 $-1 $433 $215 #
plane-surface $-1 97.474801712217527 -8.5387957203483111 0 -1 0 0 0 0 1 forward_v I I I I #
coedge $-1 $330 $434 $435 $436 forward $216 $-1 #
coedge $-1 $219 $218 $437 $438 forward $81 $-1 #
coedge $-1 $335 $328 $218 $331 reversed $216 $-1 #
edge $-1 $333 -11.937571759761838 $439 11.937571759761838 $330 $440 forward 7 unknown #
edge $-1 $441 -11.937571759761838 $226 11.937571759761838 $224 $442 forward 7 unknown #
vertex $-1 $331 $443 #
straight-curve $-1 73.599658192693866 0 -19.403940721014191 0 1 0 I I #
coedge $-1 $434 $330 $221 $336 reversed $216 $-1 #
edge $-1 $340 -19.403940721014191 $333 19.403940721014191 $335 $444 forward 7 unknown #
coedge $-1 $445 $222 $225 $343 forward $339 $-1 #
coedge $-1 $222 $445 $434 $446 forward $339 $-1 #
loop $-1 $-1 $222 $325 #
vertex $-1 $223 $447 #
straight-curve $-1 73.599658192693866 0 19.403940721014191 0 -1 0 I I #
coedge $-1 $225 $224 $433 $448 reversed $129 $-1 #
edge $-1 $227 -11.937571759761838 $449 11.937571759761838 $225 $450 forward 7 unknown #
point $-1 73.599658192693852 -13.315728873038676 -19.403940721014191 #
point $-1 73.599658192693852 -13.315728873038676 19.403940721014191 #
plane-surface $-1 0 0 19.403940721014191 0 0 1 1 0 0 forward_v I I I I #
coedge $-1 $357 $356 $349 $451 forward $230 $-1 #
coedge $-1 $349 $232 $234 $353 reversed $137 $-1 #
coedge $-1 $232 $348 $347 $451 reversed $137 $-1 #
coedge $-1 $240 $235 $232 $351 forward $241 $-1 #
edge $-1 $354 -21.20381950734766 $452 -17.255851947752284 $350 $453 forward 7 unknown #
coedge $-1 $234 $233 $357 $454 reversed $85 $-1 #
edge $-1 $455 -85.139488019372678 $354 -77.890709663205413 $348 $456 forward 7 unknown #
vertex $-1 $236 $457 #
straight-curve $-1 8.6842436770316951 38.621776450090948 19.403940721014195 1 0 0 I I #
coedge $-1 $347 $237 $240 $361 reversed $230 $-1 #
coedge $-1 $237 $347 $352 $454 forward $230 $-1 #
vertex $-1 $238 $458 #
straight-curve $-1 9.1332075204221894 42.569744009686325 82.449539436040979 0 0 1 I I #
straight-curve $-1 9.1332075204221894 -3.8005435374649608 84.728587055389212 0 0.54463902268945019 -0.83867057594974714 I I #
edge $-1 $452 -25.603767187704591 $242 -9.1332075204221894 $356 $459 forward 7 unknown #
point $-1 9.1332075204221894 42.569744009686325 19.403940721014191 #
point $-1 9.1332075204221894 38.621776450090948 19.403940721014195 #
edge $-1 $460 1 $460 0 $245 $-1 forward 7 unknown #
vertex $-1 $246 $461 #
ellipse-curve $-1 13.8390817110743 38.418753958091358 14.950507803708566 0 0.83867057594974714 0.54463902268945019 1.5 0 0 1 I I #
point $-1 15.3390817110743 40.595760229888647 16.36427216156476 #
edge $-1 $462 1 $462 0 $249 $-1 forward 7 unknown #
vertex $-1 $250 $463 #
ellipse-curve $-1 20.897892997052466 38.418753958091358 14.950507803708566 0 0.83867057594974714 0.54463902268945019 1.5 0 0 1 I I #
point $-1 22.397892997052466 40.595760229888647 16.36427216156476 #
loop $-1 $-1 $261 $253 #
plane-surface $-1 0 -42.569744009686325 0 0 1 0 0 0 1 forward_v I I I I #
coedge $-1 $375 $256 $258 $379 reversed $159 $-1 #
coedge $-1 $256 $374 $464 $465 reversed $159 $-1 #
coedge $-1 $264 $259 $256 $377 forward $254 $-1 #
edge $-1 $380 -44.388963280923292 $466 -40.44099572132793 $376 $467 forward 7 unknown #
coedge $-1 $258 $257 $383 $468 reversed $99 $-1 #
edge $-1 $469 1.2808562293387176e-014 $380 7.2487783561672465 $374 $470 forward 7 unknown #
vertex $-1 $260 $471 #
straight-curve $-1 8.6842436770316951 -38.621776450090962 19.403940721014191 -1 0 0 I I #
coedge $-1 $464 $261 $264 $387 reversed $372 $-1 #
coedge $-1 $261 $464 $378 $468 forward $372 $-1 #
vertex $-1 $262 $472 #
straight-curve $-1 25.603767187704591 -42.569744009686325 46.747547709404046 0 0 1 I I #
straight-curve $-1 25.603767187704591 -42.569744009686332 13.324603602115346 0 -0.54463902268945019 -0.83867057594974714 I I #
edge $-1 $466 9.1332075204221894 $265 25.603767187704591 $382 $473 forward 7 unknown #
point $-1 25.603767187704591 -42.569744009686325 19.403940721014191 #
point $-1 25.603767187704591 -38.621776450090962 19.403940721014191 #
edge $-1 $474 1 $474 0 $268 $-1 forward 7 unknown #
vertex $-1 $269 $475 #
ellipse-curve $-1 13.8390817110743 -38.418753958091358 14.950507803708581 0 -0.83867057594974714 0.54463902268945019 1.5 0 0 1 I I #
point $-1 15.3390817110743 -40.595760229888647 16.364272161564774 #
edge $-1 $476 1 $476 0 $272 $-1 forward 7 unknown #
vertex $-1 $273 $477 #
ellipse-curve $-1 20.897892997052466 -38.418753958091358 14.950507803708581 0 -0.83867057594974714 0.54463902268945019 1.5 0 0 1 I I #
point $-1 22.397892997052466 -40.595760229888647 16.364272161564774 #
plane-surface $-1 0 42.569744009686325 0 0 -1 0 0 0 -1 forward_v I I I I #
coedge $-1 $411 $402 $404 $478 forward $277 $-1 #
coedge $-1 $402 $411 $279 $401 reversed $277 $-1 #
edge $-1 $407 -19.403940721014191 $413 19.403940721014191 $400 $479 forward 7 unknown #
coedge $-1 $399 $400 $280 $403 reversed $277 $-1 #
edge $-1 $405 -42.569744009686325 $407 42.569744009686325 $402 $480 forward 7 unknown #
coedge $-1 $281 $288 $399 $478 reversed $289 $-1 #
vertex $-1 $282 $481 #
straight-curve $-1 0 42.569744009686325 19.403940721014191 -1 0 0 I I #
vertex $-1 $403 $482 #
straight-curve $-1 0 -42.569744009686325 19.403940721014191 1 0 0 I I #
point $-1 73.599658192693866 -42.569744009686325 19.403940721014191 #
point $-1 73.599658192693866 42.569744009686325 19.403940721014191 #
coedge $-1 $400 $399 $293 $412 reversed $277 $-1 #
edge $-1 $413 -42.569744009686325 $415 42.569744009686325 $411 $483 forward 7 unknown #
vertex $-1 $412 $484 #
straight-curve $-1 0 -42.569744009686325 -19.403940721014191 -1 0 0 I I #
vertex $-1 $295 $485 #
straight-curve $-1 0 42.569744009686325 -19.403940721014191 1 0 0 I I #
plane-surface $-1 -73.599658192693866 0 0 1 0 0 0 0 -1 forward_v I I I I #
edge $-1 $310 3.264268483860322 $314 10.410333557158655 $313 $486 forward 7 unknown #
edge $-1 $318 -10.410333557158655 $309 -3.264268483860322 $316 $487 forward 7 unknown #
straight-curve $-1 -53.460929492143904 -17.247634577668144 0 0 0 -1 I I #
edge $-1 $424 -19.403940721014191 $422 19.403940721014191 $320 $488 forward 7 unknown #
vertex $-1 $421 $489 #
straight-curve $-1 -31.765146921209443 -10.101569504369811 -19.403940721014191 1 0 0 I I #
vertex $-1 $321 $490 #
straight-curve $-1 -31.765146921209443 -10.101569504369811 19.403940721014191 -1 0 0 I I #
point $-1 -53.460929492143904 -10.101569504369811 19.403940721014191 #
point $-1 -53.460929492143904 -10.101569504369811 -19.403940721014191 #
point $-1 -53.460929492143904 -17.247634577668144 -19.403940721014191 #
point $-1 -53.460929492143904 -17.247634577668144 19.403940721014191 #
straight-curve $-1 -73.599658192693866 0 19.403940721014191 0 -1 0 I I #
straight-curve $-1 -73.599658192693866 0 -19.403940721014191 0 1 0 I I #
plane-surface $-1 0 0 19.403940721014191 0 0 1 1 0 0 forward_v I I I I #
coedge $-1 $437 $491 $342 $448 forward $326 $-1 #
coedge $-1 $328 $335 $338 $446 reversed $216 $-1 #
coedge $-1 $491 $437 $328 $436 reversed $326 $-1 #
edge $-1 $492 -19.403940721014191 $439 19.403940721014191 $435 $493 forward 7 unknown #
coedge $-1 $435 $433 $329 $438 reversed $326 $-1 #
edge $-1 $439 -4.7769331526903649 $441 4.7769331526903649 $437 $494 forward 7 unknown #
vertex $-1 $438 $495 #
straight-curve $-1 85.537229952455689 -3.7618625676579462 -19.403940721014191 1 0 0 I I #
vertex $-1 $448 $496 #
straight-curve $-1 85.537229952455689 -13.315728873038676 -19.403940721014191 -1 0 0 I I #
point $-1 73.599658192693852 -3.7618625676579462 -19.403940721014191 #
straight-curve $-1 73.599658192693866 -3.7618625676579462 0 0 0 -1 I I #
coedge $-1 $338 $337 $491 $497 forward $339 $-1 #
edge $-1 $492 -11.937571759761838 $340 11.937571759761838 $434 $498 forward 7 unknown #
point $-1 73.599658192693852 -3.7618625676579462 19.403940721014191 #
edge $-1 $449 -19.403940721014191 $441 19.403940721014191 $433 $499 forward 7 unknown #
vertex $-1 $497 $500 #
straight-curve $-1 85.537229952455689 -13.315728873038676 19.403940721014191 1 0 0 I I #
edge $-1 $452 63.045598715026784 $455 69.124935833925647 $347 $501 forward 7 unknown #
vertex $-1 $361 $502 #
straight-curve $-1 25.603767187704591 59.825595957438608 19.403940721014195 0 1 0 I I #
edge $-1 $455 -16.919523510672896 $358 -0.44896384339049433 $357 $503 forward 7 unknown #
vertex $-1 $454 $504 #
straight-curve $-1 25.603767187704591 -3.8005435374649608 84.728587055389212 0 -0.54463902268945019 0.83867057594974714 I I #
point $-1 25.603767187704591 38.621776450090948 19.403940721014195 #
point $-1 9.1332075204221894 42.569744009686325 13.324603602115332 #
straight-curve $-1 0 42.569744009686325 19.403940721014191 -1 0 0 I I #
vertex $-1 $364 $505 #
point $-1 15.3390817110743 38.418753958091358 14.950507803708566 #
vertex $-1 $368 $506 #
point $-1 22.397892997052466 38.418753958091358 14.950507803708566 #
coedge $-1 $383 $382 $375 $465 forward $372 $-1 #
edge $-1 $466 27.343606988389855 $469 33.422944107288686 $464 $507 forward 7 unknown #
vertex $-1 $387 $508 #
straight-curve $-1 9.1332075204221894 -83.010739731014255 19.403940721014187 0 -1 0 I I #
edge $-1 $469 0.44896384339049433 $384 16.919523510672896 $383 $509 forward 7 unknown #
vertex $-1 $468 $510 #
straight-curve $-1 9.1332075204221894 -42.569744009686332 13.324603602115346 0 0.54463902268945019 0.83867057594974714 I I #
point $-1 9.1332075204221894 -38.621776450090962 19.403940721014191 #
point $-1 25.603767187704591 -42.569744009686325 13.324603602115356 #
straight-curve $-1 0 -42.569744009686325 19.403940721014191 1 0 0 I I #
vertex $-1 $390 $511 #
point $-1 15.3390817110743 -38.418753958091358 14.950507803708581 #
vertex $-1 $394 $512 #
point $-1 22.397892997052466 -38.418753958091358 14.950507803708581 #
edge $-1 $405 -19.403940721014191 $415 19.403940721014191 $404 $513 forward 7 unknown #
straight-curve $-1 -73.599658192693866 -42.569744009686325 0 0 0 -1 I I #
straight-curve $-1 -73.599658192693866 0 19.403940721014191 0 -1 0 I I #
point $-1 -73.599658192693866 42.569744009686325 19.403940721014191 #
point $-1 -73.599658192693866 -42.569744009686325 19.403940721014191 #
straight-curve $-1 -73.599658192693866 0 -19.403940721014191 0 1 0 I I #
point $-1 -73.599658192693866 -42.569744009686325 -19.403940721014191 #
point $-1 -73.599658192693866 42.569744009686325 -19.403940721014191 #
straight-curve $-1 -53.460929492143904 -6.8373010205094893 -19.403940721014191 0 -1 0 I I #
straight-curve $-1 -53.460929492143904 -6.8373010205094893 19.403940721014191 0 1 0 I I #
straight-curve $-1 -73.599658192693866 -10.101569504369811 0 0 0 -1 I I #
point $-1 -73.599658192693866 -10.101569504369811 -19.403940721014191 #
point $-1 -73.599658192693866 -10.101569504369811 19.403940721014191 #
coedge $-1 $433 $435 $445 $497 reversed $326 $-1 #
vertex $-1 $497 $514 #
straight-curve $-1 97.474801712217527 -3.7618625676579462 0 0 0 -1 I I #
straight-curve $-1 97.474801712217527 -8.5387957203483111 -19.403940721014191 0 -1 0 I I #
point $-1 97.474801712217527 -3.7618625676579462 -19.403940721014191 #
point $-1 97.474801712217527 -13.315728873038676 -19.403940721014191 #
edge $-1 $449 -4.7769331526903649 $492 4.7769331526903649 $491 $515 forward 7 unknown #
straight-curve $-1 85.537229952455689 -3.7618625676579462 19.403940721014191 -1 0 0 I I #
straight-curve $-1 97.474801712217527 -13.315728873038676 0 0 0 -1 I I #
point $-1 97.474801712217527 -13.315728873038676 19.403940721014191 #
straight-curve $-1 25.603767187704591 42.569744009686325 82.449539436040979 0 0 -1 I I #
point $-1 25.603767187704591 42.569744009686325 19.403940721014191 #
straight-curve $-1 8.6842436770316951 42.569744009686325 13.324603602115335 -1 0 0 I I #
point $-1 25.603767187704591 42.569744009686325 13.324603602115332 #
point $-1 13.8390817110743 37.160748094166735 14.133549269674392 #
point $-1 20.897892997052466 37.160748094166735 14.133549269674392 #
straight-curve $-1 9.1332075204221894 -42.569744009686325 46.747547709404046 0 0 -1 I I #
point $-1 9.1332075204221894 -42.569744009686325 19.403940721014191 #
straight-curve $-1 8.6842436770316951 -42.569744009686325 13.324603602115364 1 0 0 I I #
point $-1 9.1332075204221894 -42.569744009686325 13.324603602115356 #
point $-1 13.8390817110743 -37.160748094166735 14.133549269674406 #
point $-1 20.897892997052466 -37.160748094166735 14.133549269674406 #
straight-curve $-1 -73.599658192693866 42.569744009686325 0 0 0 -1 I I #
point $-1 97.474801712217527 -3.7618625676579462 19.403940721014191 #
straight-curve $-1 97.474801712217527 -8.5387957203483111 19.403940721014191 0 1 0 I I #
End-of-ACIS-data 