500 0 6 0           
7 Unknown 11 ACIS 5.0 NT 24 Thu Mar 25 22:56:38 1999 
-1 9.9999999999999995e-007 1e-010 
body $-1 $6 $-1 $7 #
body $-1 $8 $-1 $9 #
body $-1 $10 $-1 $11 #
body $-1 $12 $-1 $13 #
body $-1 $14 $-1 $15 #
body $-1 $16 $-1 $17 #
lump $-1 $-1 $18 $0 #
transform $-1 1 0 0 0 1 0 0 0 1 71.07028412732322 31.779155521613646 9.0902331270174397 1 rotate no_reflect no_shear #
lump $-1 $-1 $19 $1 #
transform $-1 1 0 0 0 1 0 0 0 1 71.07028412732322 31.779155521613646 9.0902331270174397 1 rotate no_reflect no_shear #
lump $-1 $-1 $20 $2 #
transform $-1 1 0 0 0 1 0 0 0 1 71.07028412732322 31.779155521613646 9.0902331270174397 1 rotate no_reflect no_shear #
lump $-1 $-1 $21 $3 #
transform $-1 1 0 0 0 1 0 0 0 1 71.07028412732322 31.779155521613646 9.0902331270174397 1 rotate no_reflect no_shear #
lump $-1 $-1 $22 $4 #
transform $-1 1 0 0 0 1 0 0 0 1 71.07028412732322 31.779155521613646 9.0902331270174397 1 rotate no_reflect no_shear #
lump $-1 $-1 $23 $5 #
transform $-1 1 0 0 0 1 0 0 0 1 71.07028412732322 31.779155521613646 9.0902331270174397 1 rotate no_reflect no_shear #
shell $-1 $-1 $-1 $24 $-1 $6 #
shell $-1 $-1 $-1 $25 $-1 $8 #
shell $-1 $-1 $-1 $26 $-1 $10 #
shell $-1 $-1 $-1 $27 $-1 $12 #
shell $-1 $-1 $-1 $28 $-1 $14 #
shell $-1 $-1 $-1 $29 $-1 $16 #
face $-1 $30 $31 $18 $-1 $32 forward single #
face $-1 $33 $34 $19 $-1 $35 reversed single #
face $-1 $36 $37 $20 $-1 $38 reversed single #
face $-1 $39 $40 $21 $-1 $41 forward single #
face $-1 $42 $43 $22 $-1 $44 reversed single #
face $-1 $45 $46 $23 $-1 $47 forward single #
face $-1 $48 $49 $18 $-1 $50 reversed single #
loop $-1 $-1 $51 $24 #
plane-surface $-1 0 0 9.0902331270174397 0 0 1 1 0 0 forward_v I I I I #
face $-1 $52 $53 $19 $-1 $54 reversed single #
loop $-1 $-1 $55 $25 #
plane-surface $-1 -55.889817873288337 -27.326225745668875 0 1 0 0 0 0 -1 forward_v I I I I #
face $-1 $56 $57 $20 $-1 $58 reversed single #
loop $-1 $-1 $59 $26 #
plane-surface $-1 53.550489847244833 16.743841034277537 205.26329062290975 0 1 0 0.64278761758704617 0 0.76604443648966558 forward_v I I I I #
face $-1 $60 $61 $21 $-1 $62 forward single #
loop $-1 $63 $64 $27 #
cone-surface $-1 67.783463663322266 24.261498277945591 6.0303347489576016 -0.64278761758704617 0 -0.76604443648966558 1.1490666547344983 0 -0.96418142638056925 1 I I 0 1 1.5 forward I I I I #
face $-1 $65 $66 $22 $-1 $67 reversed single #
loop $-1 $-1 $68 $28 #
plane-surface $-1 -162.43648135819632 16.743841034277537 113.89709339203662 0 1 0 -0.64278761758704617 0 0.76604443648966558 forward_v I I I I #
face $-1 $69 $70 $23 $-1 $71 forward single #
loop $-1 $72 $73 $29 #
cone-surface $-1 -67.783463663322266 24.261498277945591 6.0303347489576051 0.64278761758704617 0 -0.76604443648966558 1.1490666547344983 0 0.96418142638056925 1 I I 0 1 1.5 forward I I I I #
face $-1 $74 $75 $18 $-1 $76 reversed single #
loop $-1 $-1 $77 $30 #
plane-surface $-1 0 0 -9.0902331270174397 0 0 1 1 0 0 forward_v I I I I #
coedge $-1 $78 $79 $80 $81 forward $31 $-1 #
face $-1 $82 $83 $19 $-1 $84 reversed single #
loop $-1 $-1 $85 $33 #
plane-surface $-1 -54.389817873288337 -22.873295969724104 0 0 -1 0 0 0 -1 forward_v I I I I #
coedge $-1 $86 $87 $88 $89 forward $34 $-1 #
face $-1 $90 $91 $20 $-1 $92 reversed single #
loop $-1 $-1 $93 $36 #
plane-surface $-1 -37.815707383628279 24.261498277945591 96.377299111958266 0.64278761758704617 0 0.76604443648966558 0.76604443648966558 0 -0.64278761758704617 forward_v I I I I #
coedge $-1 $94 $95 $96 $97 reversed $37 $-1 #
face $-1 $-1 $98 $21 $-1 $99 forward single #
loop $-1 $100 $101 $39 #
cone-surface $-1 66.445212093722517 24.261498277945591 4.4354686664966625 -0.64278761758704617 0 -0.76604443648966558 0.57453332736724916 0 -0.48209071319028463 1 I I -0.70710678118654757 0.70710678118654757 0.75 forward I I I I #
loop $-1 $-1 $102 $27 #
coedge $-1 $64 $64 $103 $104 reversed $40 $-1 #
face $-1 $105 $106 $22 $-1 $107 forward single #
loop $-1 $-1 $108 $42 #
plane-surface $-1 -71.070284127323205 24.261498277945591 5.0111018810851391 -0.64278761758704617 0 0.76604443648966558 0.76604443648966558 0 0.64278761758704617 forward_v I I I I #
coedge $-1 $109 $110 $111 $112 reversed $43 $-1 #
face $-1 $-1 $113 $23 $-1 $114 forward single #
loop $-1 $115 $116 $45 #
cone-surface $-1 -66.445212093722517 24.261498277945591 4.435468666496666 0.64278761758704617 0 -0.76604443648966558 0.57453332736724916 0 0.48209071319028463 1 I I -0.70710678118654757 0.70710678118654757 0.75 forward I I I I #
loop $-1 $-1 $117 $29 #
coedge $-1 $73 $73 $118 $119 reversed $46 $-1 #
face $-1 $120 $121 $18 $-1 $122 reversed single #
loop $-1 $-1 $123 $48 #
plane-surface $-1 0 -31.779155521613646 0 0 1 0 0 0 1 forward_v I I I I #
coedge $-1 $124 $125 $126 $127 forward $49 $-1 #
coedge $-1 $128 $51 $129 $130 forward $31 $-1 #
coedge $-1 $51 $128 $131 $132 forward $31 $-1 #
coedge $-1 $133 $134 $51 $81 reversed $135 $-1 #
edge $-1 $136 -31.779155521613646 $137 31.779155521613646 $80 $138 forward 7 unknown #
face $-1 $139 $140 $19 $-1 $141 forward single #
loop $-1 $-1 $142 $52 #
plane-surface $-1 -52.889817873288337 -27.326225745668875 0 -1 0 0 0 0 1 forward_v I I I I #
coedge $-1 $143 $144 $145 $146 forward $53 $-1 #
coedge $-1 $147 $55 $148 $149 reversed $34 $-1 #
coedge $-1 $55 $147 $150 $151 reversed $34 $-1 #
coedge $-1 $144 $143 $55 $89 reversed $53 $-1 #
edge $-1 $152 -9.0902331270174397 $153 9.0902331270174397 $88 $154 forward 7 unknown #
face $-1 $155 $156 $20 $-1 $157 reversed single #
loop $-1 $-1 $96 $56 #
plane-surface $-1 71.07028412732322 0 0 -1 0 0 0 0 1 forward_v I I I I #
coedge $-1 $158 $159 $160 $161 reversed $57 $-1 #
coedge $-1 $95 $59 $162 $163 reversed $37 $-1 #
coedge $-1 $59 $94 $158 $164 reversed $37 $-1 #
coedge $-1 $160 $165 $59 $97 forward $91 $-1 #
edge $-1 $166 93.541412184437434 $167 97.620543430369736 $96 $168 forward 7 unknown #
loop $-1 $-1 $103 $60 #
plane-surface $-1 -37.815707383628279 24.261498277945591 96.377299111958266 0.64278761758704617 0 0.76604443648966558 0.76604443648966558 0 -0.64278761758704617 forward_v I I I I #
loop $-1 $-1 $169 $39 #
coedge $-1 $101 $101 $102 $170 reversed $61 $-1 #
coedge $-1 $102 $102 $101 $170 forward $63 $-1 #
coedge $-1 $103 $103 $64 $104 forward $98 $-1 #
edge $-1 $171 0 $171 6.2831853071796004 $103 $172 forward 7 unknown #
face $-1 $173 $174 $22 $-1 $175 reversed single #
loop $-1 $-1 $111 $65 #
plane-surface $-1 0 0 9.0902331270174397 0 0 1 1 0 0 forward_v I I I I #
coedge $-1 $176 $177 $178 $179 reversed $66 $-1 #
coedge $-1 $110 $68 $180 $181 reversed $43 $-1 #
coedge $-1 $68 $109 $176 $182 reversed $43 $-1 #
coedge $-1 $178 $183 $68 $112 forward $106 $-1 #
edge $-1 $184 10.147956551774939 $185 15.009275766957927 $111 $186 forward 7 unknown #
loop $-1 $-1 $118 $69 #
plane-surface $-1 -71.070284127323205 24.261498277945591 5.0111018810851391 -0.64278761758704617 0 0.76604443648966558 0.76604443648966558 0 0.64278761758704617 forward_v I I I I #
loop $-1 $-1 $187 $45 #
coedge $-1 $116 $116 $117 $188 reversed $70 $-1 #
coedge $-1 $117 $117 $116 $188 forward $72 $-1 #
coedge $-1 $118 $118 $73 $119 forward $113 $-1 #
edge $-1 $189 0 $189 6.2831853071796004 $118 $190 forward 7 unknown #
face $-1 $191 $192 $18 $-1 $193 reversed single #
loop $-1 $-1 $194 $74 #
plane-surface $-1 -71.07028412732322 0 0 1 0 0 0 0 -1 forward_v I I I I #
coedge $-1 $195 $131 $196 $197 forward $75 $-1 #
coedge $-1 $198 $77 $195 $199 forward $49 $-1 #
coedge $-1 $77 $198 $200 $201 forward $49 $-1 #
coedge $-1 $134 $133 $77 $127 reversed $135 $-1 #
edge $-1 $202 -31.779155521613646 $203 31.779155521613646 $126 $204 forward 7 unknown #
coedge $-1 $79 $78 $205 $206 forward $31 $-1 #
coedge $-1 $207 $208 $78 $130 reversed $192 $-1 #
edge $-1 $137 -71.07028412732322 $209 71.07028412732322 $129 $210 forward 7 unknown #
coedge $-1 $123 $211 $79 $132 reversed $75 $-1 #
edge $-1 $212 -71.07028412732322 $136 71.07028412732322 $131 $213 forward 7 unknown #
coedge $-1 $126 $80 $211 $214 forward $135 $-1 #
coedge $-1 $80 $126 $207 $215 reversed $135 $-1 #
loop $-1 $-1 $133 $191 #
vertex $-1 $81 $216 #
vertex $-1 $81 $217 #
straight-curve $-1 71.07028412732322 0 9.0902331270174397 0 1 0 I I #
face $-1 $218 $219 $19 $-1 $220 reversed single #
loop $-1 $-1 $221 $82 #
plane-surface $-1 0 0 9.0902331270174397 0 0 1 1 0 0 forward_v I I I I #
coedge $-1 $222 $223 $224 $225 reversed $83 $-1 #
coedge $-1 $88 $85 $226 $227 reversed $53 $-1 #
coedge $-1 $85 $88 $228 $229 reversed $53 $-1 #
coedge $-1 $223 $222 $85 $146 reversed $83 $-1 #
edge $-1 $230 -9.0902331270174397 $231 9.0902331270174397 $145 $232 forward 7 unknown #
coedge $-1 $87 $86 $233 $234 reversed $34 $-1 #
coedge $-1 $226 $235 $86 $149 forward $219 $-1 #
edge $-1 $236 -18.116042648779207 $153 -9.2101830968896667 $148 $237 forward 7 unknown #
coedge $-1 $238 $228 $87 $151 forward $140 $-1 #
edge $-1 $152 9.2101830968896667 $239 18.116042648779207 $150 $240 forward 7 unknown #
vertex $-1 $151 $241 #
vertex $-1 $149 $242 #
straight-curve $-1 -55.889817873288337 -22.873295969724104 0 0 0 -1 I I #
face $-1 $-1 $243 $20 $-1 $244 forward single #
loop $-1 $-1 $245 $90 #
plane-surface $-1 0 31.779155521613646 0 0 -1 0 0 0 -1 forward_v I I I I #
coedge $-1 $246 $93 $95 $164 forward $57 $-1 #
coedge $-1 $93 $246 $245 $247 reversed $57 $-1 #
coedge $-1 $248 $96 $93 $161 forward $91 $-1 #
edge $-1 $167 4.6130918953047413 $249 19.64840638264085 $160 $250 forward 7 unknown #
coedge $-1 $251 $252 $94 $163 forward $243 $-1 #
edge $-1 $253 39.433719988517815 $166 44.295039203700803 $162 $254 forward 7 unknown #
edge $-1 $167 -142.14056825464647 $253 -135.79456666045752 $95 $255 forward 7 unknown #
coedge $-1 $96 $248 $251 $256 reversed $91 $-1 #
vertex $-1 $256 $257 #
vertex $-1 $97 $258 #
straight-curve $-1 71.07028412732322 16.743841034277537 102.63164531145488 0 0 -1 I I #
coedge $-1 $169 $169 $-1 $259 reversed $100 $-1 #
edge $-1 $260 0 $260 6.2831853071796004 $101 $261 forward 7 unknown #
vertex $-1 $104 $262 #
ellipse-curve $-1 68.639624519731726 24.261498277945591 7.050667504051285 0.64278761758704617 0 0.76604443648966558 1.1490666547344983 0 -0.96418142638056925 1 I I #
face $-1 $-1 $263 $22 $-1 $264 reversed single #
loop $-1 $-1 $265 $105 #
plane-surface $-1 0 31.779155521613646 0 0 -1 0 0 0 -1 forward_v I I I I #
coedge $-1 $266 $108 $110 $182 forward $66 $-1 #
coedge $-1 $108 $266 $265 $267 reversed $66 $-1 #
coedge $-1 $268 $111 $108 $179 forward $106 $-1 #
edge $-1 $185 4.6130918953047413 $269 19.64840638264085 $178 $270 forward 7 unknown #
coedge $-1 $271 $272 $109 $181 forward $263 $-1 #
edge $-1 $273 -51.937444814933187 $184 -47.85831356900087 $180 $274 forward 7 unknown #
edge $-1 $185 -6.3460015941889267 $273 1.8307977367429951e-014 $110 $275 forward 7 unknown #
coedge $-1 $111 $268 $271 $276 forward $106 $-1 #
vertex $-1 $181 $277 #
vertex $-1 $112 $278 #
straight-curve $-1 -81.218240679098159 16.743841034277537 9.0902331270174415 1 0 0 I I #
coedge $-1 $187 $187 $-1 $279 reversed $115 $-1 #
edge $-1 $280 0 $280 6.2831853071796004 $116 $281 forward 7 unknown #
vertex $-1 $119 $282 #
ellipse-curve $-1 -68.639624519731726 24.261498277945591 7.0506675040512832 -0.64278761758704617 0 0.76604443648966558 1.1490666547344983 0 0.96418142638056925 1 I I #
face $-1 $-1 $135 $18 $-1 $283 reversed single #
loop $-1 $-1 $207 $120 #
plane-surface $-1 0 31.779155521613646 0 0 -1 0 0 0 -1 forward_v I I I I #
coedge $-1 $284 $205 $208 $285 forward $121 $-1 #
coedge $-1 $211 $123 $124 $199 reversed $75 $-1 #
coedge $-1 $205 $284 $123 $197 reversed $121 $-1 #
edge $-1 $212 -9.0902331270174397 $286 9.0902331270174397 $196 $287 forward 7 unknown #
coedge $-1 $125 $124 $284 $288 forward $49 $-1 #
edge $-1 $203 -71.07028412732322 $286 71.07028412732322 $195 $289 forward 7 unknown #
coedge $-1 $208 $207 $125 $201 reversed $192 $-1 #
edge $-1 $290 -71.07028412732322 $202 71.07028412732322 $200 $291 forward 7 unknown #
vertex $-1 $127 $292 #
vertex $-1 $214 $293 #
straight-curve $-1 71.07028412732322 0 -9.0902331270174397 0 -1 0 I I #
coedge $-1 $194 $196 $128 $206 reversed $121 $-1 #
edge $-1 $209 -31.779155521613646 $212 31.779155521613646 $205 $294 forward 7 unknown #
coedge $-1 $200 $129 $134 $215 forward $192 $-1 #
coedge $-1 $129 $200 $194 $285 reversed $192 $-1 #
vertex $-1 $130 $295 #
straight-curve $-1 0 31.779155521613646 9.0902331270174397 -1 0 0 I I #
coedge $-1 $131 $195 $133 $214 reversed $75 $-1 #
vertex $-1 $206 $296 #
straight-curve $-1 0 -31.779155521613646 9.0902331270174397 1 0 0 I I #
edge $-1 $136 -9.0902331270174397 $203 9.0902331270174397 $133 $297 forward 7 unknown #
edge $-1 $137 -9.0902331270174397 $202 9.0902331270174397 $134 $298 forward 7 unknown #
point $-1 71.07028412732322 -31.779155521613646 9.0902331270174397 #
point $-1 71.07028412732322 31.779155521613646 9.0902331270174397 #
face $-1 $-1 $299 $19 $-1 $300 reversed single #
loop $-1 $-1 $301 $139 #
plane-surface $-1 0 0 -9.0902331270174397 0 0 1 1 0 0 forward_v I I I I #
coedge $-1 $228 $238 $223 $302 forward $140 $-1 #
coedge $-1 $145 $142 $301 $303 reversed $83 $-1 #
coedge $-1 $142 $145 $221 $302 reversed $83 $-1 #
coedge $-1 $304 $305 $142 $225 forward $299 $-1 #
edge $-1 $306 -9.0902331270174397 $307 9.0902331270174397 $224 $308 forward 7 unknown #
coedge $-1 $301 $148 $143 $227 forward $219 $-1 #
edge $-1 $153 -28.694908936644168 $231 -25.694908936644168 $226 $309 forward 7 unknown #
coedge $-1 $150 $221 $144 $229 forward $140 $-1 #
edge $-1 $230 25.694908936644168 $152 28.694908936644168 $228 $310 forward 7 unknown #
vertex $-1 $229 $311 #
vertex $-1 $227 $312 #
straight-curve $-1 -52.889817873288337 -22.873295969724104 0 0 0 -1 I I #
coedge $-1 $305 $304 $147 $234 forward $299 $-1 #
edge $-1 $239 -9.0902331270174397 $236 9.0902331270174397 $233 $313 forward 7 unknown #
coedge $-1 $148 $301 $305 $314 forward $219 $-1 #
vertex $-1 $149 $315 #
straight-curve $-1 -55.889817873288337 -13.663112872834438 -9.0902331270174397 0 1 0 I I #
coedge $-1 $221 $150 $304 $316 forward $140 $-1 #
vertex $-1 $316 $317 #
straight-curve $-1 -55.889817873288337 -13.663112872834438 9.0902331270174397 0 -1 0 I I #
point $-1 -55.889817873288337 -22.873295969724104 9.0902331270174397 #
point $-1 -55.889817873288337 -22.873295969724104 -9.0902331270174397 #
loop $-1 $-1 $162 $155 #
plane-surface $-1 0 0 9.0902331270174397 0 0 1 1 0 0 forward_v I I I I #
coedge $-1 $318 $319 $159 $247 forward $156 $-1 #
coedge $-1 $159 $158 $252 $320 reversed $57 $-1 #
edge $-1 $249 -96.68124488524677 $321 -90.335243291057822 $245 $322 forward 7 unknown #
coedge $-1 $165 $160 $319 $323 reversed $91 $-1 #
vertex $-1 $247 $324 #
straight-curve $-1 71.07028412732322 12.130749138972796 5.0111018810851462 0 1 0 I I #
coedge $-1 $325 $162 $165 $256 forward $243 $-1 #
coedge $-1 $162 $325 $246 $320 forward $243 $-1 #
vertex $-1 $163 $326 #
straight-curve $-1 26.775244923622417 16.743841034277537 9.0902331270174415 1 0 0 I I #
straight-curve $-1 -37.815707383628279 16.743841034277537 96.377299111958266 -0.76604443648966558 0 0.64278761758704617 I I #
edge $-1 $166 16.743841034277537 $327 31.779155521613646 $165 $328 forward 7 unknown #
point $-1 71.07028412732322 16.743841034277537 9.0902331270174397 #
point $-1 71.07028412732322 16.743841034277537 5.0111018810851391 #
edge $-1 $329 1 $329 0 $169 $-1 forward 7 unknown #
vertex $-1 $170 $330 #
ellipse-curve $-1 66.927302806912806 24.261498277945591 5.010001993863912 0.64278761758704617 0 0.76604443648966558 1.1490666547344983 0 -0.96418142638056925 1 I I #
point $-1 69.788691174466237 24.261498277945591 6.086486077670723 #
loop $-1 $-1 $180 $173 #
plane-surface $-1 -71.07028412732322 0 0 1 0 0 0 0 -1 forward_v I I I I #
coedge $-1 $331 $332 $177 $267 forward $174 $-1 #
coedge $-1 $177 $176 $272 $333 reversed $66 $-1 #
edge $-1 $269 19.264959163734595 $334 25.610960757923539 $265 $335 forward 7 unknown #
coedge $-1 $183 $178 $332 $336 forward $106 $-1 #
vertex $-1 $336 $337 #
straight-curve $-1 -66.208964912140232 12.130749138972796 9.0902331270174397 0 1 0 I I #
coedge $-1 $338 $180 $183 $276 reversed $263 $-1 #
coedge $-1 $180 $338 $266 $333 forward $263 $-1 #
vertex $-1 $181 $339 #
straight-curve $-1 -71.07028412732322 16.743841034277537 56.948546696018312 0 0 1 I I #
straight-curve $-1 -71.070284127323205 16.743841034277537 5.0111018810851391 -0.76604443648966558 0 -0.64278761758704617 I I #
edge $-1 $340 -31.779155521613646 $184 -16.743841034277537 $271 $341 forward 7 unknown #
point $-1 -71.07028412732322 16.743841034277537 9.0902331270174397 #
point $-1 -66.208964912140232 16.743841034277537 9.0902331270174397 #
edge $-1 $342 1 $342 0 $187 $-1 forward 7 unknown #
vertex $-1 $188 $343 #
ellipse-curve $-1 -66.927302806912806 24.261498277945591 5.0100019938639155 -0.64278761758704617 0 0.76604443648966558 1.1490666547344983 0 0.96418142638056925 1 I I #
point $-1 -67.490557864997243 24.261498277945591 8.0148489304318655 #
plane-surface $-1 71.07028412732322 0 0 -1 0 0 0 0 1 forward_v I I I I #
coedge $-1 $196 $194 $198 $288 reversed $121 $-1 #
edge $-1 $209 -9.0902331270174397 $290 9.0902331270174397 $208 $344 forward 7 unknown #
vertex $-1 $288 $345 #
straight-curve $-1 -71.07028412732322 -31.779155521613646 0 0 0 -1 I I #
edge $-1 $286 -31.779155521613646 $290 31.779155521613646 $284 $346 forward 7 unknown #
straight-curve $-1 0 -31.779155521613646 -9.0902331270174397 -1 0 0 I I #
vertex $-1 $201 $347 #
straight-curve $-1 0 31.779155521613646 -9.0902331270174397 1 0 0 I I #
point $-1 71.07028412732322 31.779155521613646 -9.0902331270174397 #
point $-1 71.07028412732322 -31.779155521613646 -9.0902331270174397 #
straight-curve $-1 -71.07028412732322 0 9.0902331270174397 0 -1 0 I I #
point $-1 -71.07028412732322 31.779155521613646 9.0902331270174397 #
point $-1 -71.07028412732322 -31.779155521613646 9.0902331270174397 #
straight-curve $-1 71.07028412732322 -31.779155521613646 0 0 0 -1 I I #
straight-curve $-1 71.07028412732322 31.779155521613646 0 0 0 -1 I I #
loop $-1 $-1 $224 $218 #
plane-surface $-1 0 -31.779155521613646 0 0 1 0 0 0 1 forward_v I I I I #
coedge $-1 $235 $226 $222 $303 forward $219 $-1 #
edge $-1 $307 -18.116042648779207 $230 -9.2101830968896667 $221 $348 forward 7 unknown #
edge $-1 $231 9.2101830968896667 $306 18.116042648779207 $301 $349 forward 7 unknown #
coedge $-1 $233 $224 $238 $316 reversed $299 $-1 #
coedge $-1 $224 $233 $235 $314 reversed $299 $-1 #
vertex $-1 $314 $350 #
vertex $-1 $225 $351 #
straight-curve $-1 -52.889817873288337 -31.779155521613646 0 0 0 1 I I #
straight-curve $-1 -27.194908936644168 -22.873295969724104 -9.0902331270174397 1 0 0 I I #
straight-curve $-1 -27.194908936644168 -22.873295969724104 9.0902331270174397 -1 0 0 I I #
point $-1 -52.889817873288337 -22.873295969724104 9.0902331270174397 #
point $-1 -52.889817873288337 -22.873295969724104 -9.0902331270174397 #
straight-curve $-1 -55.889817873288337 -31.779155521613646 0 0 0 -1 I I #
edge $-1 $306 52.889817873288337 $236 55.889817873288337 $305 $352 forward 7 unknown #
point $-1 -55.889817873288337 -31.779155521613646 -9.0902331270174397 #
edge $-1 $239 -55.889817873288337 $307 -52.889817873288337 $304 $353 forward 7 unknown #
point $-1 -55.889817873288337 -31.779155521613646 9.0902331270174397 #
coedge $-1 $319 $245 $325 $354 reversed $156 $-1 #
coedge $-1 $245 $318 $248 $323 forward $156 $-1 #
edge $-1 $321 -19.64840638264085 $253 -4.6130918953047413 $252 $355 forward 7 unknown #
vertex $-1 $247 $356 #
straight-curve $-1 -2.9918456299149998 31.779155521613646 67.15660894622269 -0.76604443648966558 0 0.64278761758704617 I I #
edge $-1 $327 -9.0902331270174397 $249 -5.0111018810851427 $248 $357 forward 7 unknown #
point $-1 71.07028412732322 31.779155521613646 5.0111018810851427 #
coedge $-1 $252 $251 $318 $354 forward $243 $-1 #
point $-1 66.208964912140232 16.743841034277537 9.0902331270174557 #
vertex $-1 $256 $358 #
straight-curve $-1 71.07028412732322 0 9.0902331270174397 0 1 0 I I #
vertex $-1 $259 $359 #
point $-1 68.076369461647303 24.261498277945591 4.0458205674833421 #
coedge $-1 $332 $265 $338 $360 reversed $174 $-1 #
coedge $-1 $265 $331 $268 $336 reversed $174 $-1 #
edge $-1 $334 -19.64840638264085 $273 -4.6130918953047413 $272 $361 forward 7 unknown #
vertex $-1 $267 $362 #
straight-curve $-1 -51.451150125560744 31.779155521613646 21.473510330786134 -0.76604443648966558 0 -0.64278761758704617 I I #
edge $-1 $269 66.208964912140232 $340 71.07028412732322 $332 $363 forward 7 unknown #
point $-1 -66.208964912140232 31.779155521613646 9.0902331270174397 #
coedge $-1 $272 $271 $331 $360 forward $263 $-1 #
point $-1 -71.07028412732322 16.743841034277537 5.0111018810851276 #
vertex $-1 $336 $364 #
straight-curve $-1 -71.07028412732322 0 9.0902331270174397 0 -1 0 I I #
vertex $-1 $279 $365 #
point $-1 -65.778236152178309 24.261498277945591 5.9741834202444846 #
straight-curve $-1 -71.07028412732322 31.779155521613646 0 0 0 -1 I I #
point $-1 -71.07028412732322 -31.779155521613646 -9.0902331270174397 #
straight-curve $-1 -71.07028412732322 0 -9.0902331270174397 0 1 0 I I #
point $-1 -71.07028412732322 31.779155521613646 -9.0902331270174397 #
straight-curve $-1 -52.889817873288337 -13.663112872834438 9.0902331270174397 0 1 0 I I #
straight-curve $-1 -52.889817873288337 -13.663112872834438 -9.0902331270174397 0 -1 0 I I #
point $-1 -52.889817873288337 -31.779155521613646 -9.0902331270174397 #
point $-1 -52.889817873288337 -31.779155521613646 9.0902331270174397 #
straight-curve $-1 0 -31.779155521613646 -9.0902331270174397 -1 0 0 I I #
straight-curve $-1 0 -31.779155521613646 9.0902331270174397 1 0 0 I I #
edge $-1 $327 -71.07028412732322 $321 -66.208964912140232 $318 $366 forward 7 unknown #
straight-curve $-1 66.208964912140232 12.130749138972796 9.0902331270174415 0 -1 0 I I #
point $-1 66.208964912140232 31.779155521613646 9.0902331270174557 #
straight-curve $-1 71.07028412732322 31.779155521613646 0 0 0 -1 I I #
point $-1 71.07028412732322 31.779155521613646 9.0902331270174397 #
point $-1 65.963121380532229 24.261498277945591 3.8609353391294134 #
edge $-1 $340 -9.0902331270174397 $334 -5.0111018810851276 $331 $367 forward 7 unknown #
straight-curve $-1 -71.07028412732322 12.130749138972796 5.0111018810851284 0 -1 0 I I #
point $-1 -71.07028412732322 31.779155521613646 5.0111018810851276 #
straight-curve $-1 0 31.779155521613646 9.0902331270174397 -1 0 0 I I #
point $-1 -71.07028412732322 31.779155521613646 9.0902331270174397 #
point $-1 -65.963121380532229 24.261498277945591 3.860935339129417 #
straight-curve $-1 0 31.779155521613646 9.0902331270174397 -1 0 0 I I #
straight-curve $-1 -71.07028412732322 31.779155521613646 0 0 0 -1 I I #
End-of-ACIS-data 