500 0 8 0           
7 Unknown 11 ACIS 5.0 NT 24 Fri Mar 26 17:54:28 1999 
-1 9.9999999999999995e-007 1e-010 
body $-1 $8 $-1 $9 #
body $-1 $10 $-1 $11 #
body $-1 $12 $-1 $13 #
body $-1 $14 $-1 $15 #
body $-1 $16 $-1 $17 #
body $-1 $18 $-1 $19 #
body $-1 $20 $-1 $21 #
body $-1 $22 $-1 $23 #
lump $-1 $-1 $24 $0 #
transform $-1 1 0 0 0 1 0 0 0 1 73.329874568926044 50.315792379391915 12.907788908411833 1 rotate no_reflect no_shear #
lump $-1 $-1 $25 $1 #
transform $-1 1 0 0 0 1 0 0 0 1 73.329874568926044 50.315792379391915 12.907788908411833 1 rotate no_reflect no_shear #
lump $-1 $-1 $26 $2 #
transform $-1 1 0 0 0 1 0 0 0 1 73.329874568926044 50.315792379391915 12.907788908411833 1 rotate no_reflect no_shear #
lump $-1 $-1 $27 $3 #
transform $-1 1 0 0 0 1 0 0 0 1 73.329874568926044 50.315792379391915 12.907788908411833 1 rotate no_reflect no_shear #
lump $-1 $-1 $28 $4 #
transform $-1 1 0 0 0 1 0 0 0 1 73.329874568926044 50.315792379391915 12.907788908411833 1 rotate no_reflect no_shear #
lump $-1 $-1 $29 $5 #
transform $-1 1 0 0 0 1 0 0 0 1 73.329874568926044 50.315792379391915 12.907788908411833 1 rotate no_reflect no_shear #
lump $-1 $-1 $30 $6 #
transform $-1 1 0 0 0 1 0 0 0 1 73.329874568926044 50.315792379391915 12.907788908411833 1 rotate no_reflect no_shear #
lump $-1 $-1 $31 $7 #
transform $-1 1 0 0 0 1 0 0 0 1 73.329874568926044 50.315792379391915 12.907788908411833 1 rotate no_reflect no_shear #
shell $-1 $-1 $-1 $32 $-1 $8 #
shell $-1 $-1 $-1 $33 $-1 $10 #
shell $-1 $-1 $-1 $34 $-1 $12 #
shell $-1 $-1 $-1 $35 $-1 $14 #
shell $-1 $-1 $-1 $36 $-1 $16 #
shell $-1 $-1 $-1 $37 $-1 $18 #
shell $-1 $-1 $-1 $38 $-1 $20 #
shell $-1 $-1 $-1 $39 $-1 $22 #
face $-1 $40 $41 $24 $-1 $42 forward single #
face $-1 $43 $44 $25 $-1 $45 reversed single #
face $-1 $46 $47 $26 $-1 $48 reversed single #
face $-1 $49 $50 $27 $-1 $51 reversed single #
face $-1 $52 $53 $28 $-1 $54 forward single #
face $-1 $55 $56 $29 $-1 $57 reversed single #
face $-1 $58 $59 $30 $-1 $60 forward single #
face $-1 $61 $62 $31 $-1 $63 forward single #
face $-1 $64 $65 $24 $-1 $66 reversed single #
loop $-1 $-1 $67 $32 #
plane-surface $-1 0 0 12.907788908411833 0 0 1 1 0 0 forward_v I I I I #
face $-1 $68 $69 $25 $-1 $70 reversed single #
loop $-1 $-1 $71 $33 #
plane-surface $-1 -67.880453241266935 0 6.6248979383558684 0 0 1 1 0 0 forward_v I I I I #
face $-1 $72 $73 $26 $-1 $74 reversed single #
loop $-1 $-1 $75 $34 #
plane-surface $-1 67.880453241266935 0 6.6248979383558684 0 0 1 1 0 0 forward_v I I I I #
face $-1 $76 $77 $27 $-1 $78 reversed single #
loop $-1 $-1 $79 $35 #
plane-surface $-1 5.9075942291196881 103.9302641581119 171.55028676075455 1 0 0 0 -0.78801076186113728 -0.61566146476048833 forward_v I I I I #
face $-1 $80 $81 $28 $-1 $82 forward single #
loop $-1 $83 $84 $36 #
cone-surface $-1 21.946236263653191 43.902560025797939 5.764391162827085 0 -0.78801076186113728 -0.61566146476048833 2 0 0 1 I I 0 1 2 forward I I I I #
face $-1 $85 $86 $29 $-1 $87 reversed single #
loop $-1 $-1 $88 $37 #
plane-surface $-1 46.683710560845327 -150.33750196776518 114.02237322039041 1 0 0 0 0.68199836817093118 -0.7313536940579346 forward_v I I I I #
face $-1 $89 $90 $30 $-1 $91 forward single #
loop $-1 $92 $93 $38 #
cone-surface $-1 51.18294523306318 -45.813386939405433 8.5403896248782019 0 0.68199836817093118 -0.7313536940579346 2 0 0 1 I I 0 1 2 forward I I I I #
face $-1 $94 $95 $31 $-1 $96 forward single #
loop $-1 $97 $98 $39 #
cone-surface $-1 57.931797241389972 -45.813386939405433 8.5403896248782019 0 0.68199836817093118 -0.7313536940579346 2 0 0 1 I I 0 1 2 forward I I I I #
face $-1 $99 $100 $24 $-1 $101 reversed single #
loop $-1 $-1 $102 $40 #
plane-surface $-1 0 0 -12.907788908411833 0 0 1 1 0 0 forward_v I I I I #
coedge $-1 $103 $104 $105 $106 forward $41 $-1 #
face $-1 $107 $108 $25 $-1 $109 reversed single #
loop $-1 $-1 $110 $43 #
plane-surface $-1 -62.431031913607825 0 9.7663434233838498 -1 0 0 0 0 1 forward_v I I I I #
coedge $-1 $111 $112 $113 $114 forward $44 $-1 #
face $-1 $115 $116 $26 $-1 $117 forward single #
loop $-1 $-1 $118 $46 #
plane-surface $-1 62.431031913607825 0 9.7663434233838498 1 0 0 0 0 -1 forward_v I I I I #
coedge $-1 $119 $120 $121 $122 reversed $47 $-1 #
face $-1 $123 $124 $27 $-1 $125 reversed single #
loop $-1 $-1 $126 $49 #
plane-surface $-1 21.946236263653191 -11.639196494370196 81.257530785138769 0 0.78801076186113728 0.61566146476048833 1 0 0 forward_v I I I I #
coedge $-1 $127 $128 $129 $130 reversed $50 $-1 #
face $-1 $-1 $131 $28 $-1 $132 forward single #
loop $-1 $133 $134 $52 #
cone-surface $-1 21.946236263653191 40.978476633240369 3.4798469006498021 0 -0.78801076186113728 -0.61566146476048833 1 0 0 1 I I -0.70710678118654746 0.70710678118654746 1 forward I I I I #
loop $-1 $-1 $135 $36 #
coedge $-1 $84 $84 $136 $137 reversed $53 $-1 #
face $-1 $138 $139 $29 $-1 $140 reversed single #
loop $-1 $-1 $141 $55 #
plane-surface $-1 54.557371237226576 -50.315792379391922 6.7622239188122961 0 -0.68199836817093118 0.7313536940579346 1 0 0 forward_v I I I I #
coedge $-1 $142 $143 $144 $145 reversed $56 $-1 #
face $-1 $-1 $146 $30 $-1 $147 forward single #
loop $-1 $148 $149 $58 #
cone-surface $-1 51.18294523306318 -43.924138858138441 6.5144191420864086 0 0.68199836817093118 -0.7313536940579346 1 0 0 1 I I -0.70710678118654746 0.70710678118654746 1 forward I I I I #
loop $-1 $-1 $150 $38 #
coedge $-1 $93 $93 $151 $152 reversed $59 $-1 #
face $-1 $-1 $153 $31 $-1 $154 forward single #
loop $-1 $155 $156 $61 #
cone-surface $-1 57.931797241389972 -43.924138858138441 6.5144191420864086 0 0.68199836817093118 -0.7313536940579346 1 0 0 1 I I -0.70710678118654746 0.70710678118654746 1 forward I I I I #
loop $-1 $-1 $157 $39 #
coedge $-1 $98 $98 $158 $159 reversed $62 $-1 #
face $-1 $160 $161 $24 $-1 $162 reversed single #
loop $-1 $-1 $163 $64 #
plane-surface $-1 0 -50.315792379391915 0 0 1 0 0 0 1 forward_v I I I I #
coedge $-1 $164 $165 $166 $167 forward $65 $-1 #
coedge $-1 $168 $67 $169 $170 forward $41 $-1 #
coedge $-1 $67 $168 $171 $172 forward $41 $-1 #
coedge $-1 $173 $174 $67 $106 reversed $175 $-1 #
edge $-1 $176 -50.315792379391915 $177 50.315792379391915 $105 $178 forward 7 unknown #
face $-1 $179 $180 $25 $-1 $181 reversed single #
loop $-1 $-1 $182 $68 #
plane-surface $-1 0 50.315792379391915 0 0 -1 0 0 0 -1 forward_v I I I I #
coedge $-1 $113 $183 $184 $185 reversed $69 $-1 #
coedge $-1 $186 $71 $187 $188 reversed $44 $-1 #
coedge $-1 $71 $186 $189 $190 reversed $44 $-1 #
coedge $-1 $191 $110 $71 $114 reversed $69 $-1 #
edge $-1 $192 -50.315792379391915 $193 50.315792379391915 $113 $194 forward 7 unknown #
face $-1 $195 $196 $26 $-1 $197 reversed single #
loop $-1 $-1 $198 $72 #
plane-surface $-1 0 0 12.907788908411833 0 0 1 1 0 0 forward_v I I I I #
coedge $-1 $199 $200 $201 $202 reversed $73 $-1 #
coedge $-1 $203 $75 $204 $205 reversed $47 $-1 #
coedge $-1 $75 $203 $206 $207 reversed $47 $-1 #
coedge $-1 $208 $209 $75 $122 forward $210 $-1 #
edge $-1 $211 -50.315792379391915 $212 50.315792379391915 $121 $213 forward 7 unknown #
face $-1 $214 $215 $27 $-1 $216 reversed single #
loop $-1 $-1 $217 $76 #
plane-surface $-1 37.984878298186693 103.9302641581119 171.55028676075455 -1 0 0 0 0.78801076186113728 0.61566146476048833 forward_v I I I I #
coedge $-1 $218 $219 $220 $221 reversed $77 $-1 #
coedge $-1 $128 $79 $222 $223 reversed $50 $-1 #
coedge $-1 $79 $127 $218 $224 reversed $50 $-1 #
coedge $-1 $220 $225 $79 $130 forward $226 $-1 #
edge $-1 $227 1.6493396996640328 $228 10.203659145459177 $129 $229 forward 7 unknown #
loop $-1 $-1 $136 $80 #
plane-surface $-1 21.946236263653191 -11.639196494370196 81.257530785138769 0 0.78801076186113728 0.61566146476048833 1 0 0 forward_v I I I I #
loop $-1 $-1 $230 $52 #
coedge $-1 $134 $134 $135 $231 reversed $81 $-1 #
coedge $-1 $135 $135 $134 $231 forward $83 $-1 #
coedge $-1 $136 $136 $84 $137 forward $131 $-1 #
edge $-1 $232 -4.3713480967034778e-016 $232 6.2831853071796004 $136 $233 forward 7 unknown #
face $-1 $234 $235 $29 $-1 $236 forward single #
loop $-1 $-1 $144 $85 #
plane-surface $-1 0 -50.315792379391915 0 0 1 0 0 0 1 forward_v I I I I #
coedge $-1 $237 $238 $239 $240 reversed $86 $-1 #
coedge $-1 $143 $88 $241 $242 reversed $56 $-1 #
coedge $-1 $88 $142 $237 $243 reversed $56 $-1 #
coedge $-1 $239 $244 $88 $145 forward $139 $-1 #
edge $-1 $245 44.103397701783372 $246 50.2489626913829 $144 $247 forward 7 unknown #
loop $-1 $-1 $151 $89 #
plane-surface $-1 54.557371237226576 -50.315792379391922 6.7622239188122961 0 -0.68199836817093118 0.7313536940579346 1 0 0 forward_v I I I I #
loop $-1 $-1 $248 $58 #
coedge $-1 $149 $149 $150 $249 reversed $90 $-1 #
coedge $-1 $150 $150 $149 $249 forward $92 $-1 #
coedge $-1 $151 $151 $93 $152 forward $146 $-1 #
edge $-1 $250 7.8108157428053546e-016 $250 6.2831853071796013 $151 $251 forward 7 unknown #
loop $-1 $-1 $158 $94 #
plane-surface $-1 54.557371237226576 -50.315792379391922 6.7622239188122961 0 -0.68199836817093118 0.7313536940579346 1 0 0 forward_v I I I I #
loop $-1 $-1 $252 $61 #
coedge $-1 $156 $156 $157 $253 reversed $95 $-1 #
coedge $-1 $157 $157 $156 $253 forward $97 $-1 #
coedge $-1 $158 $158 $98 $159 forward $153 $-1 #
edge $-1 $254 7.8108157428053546e-016 $254 6.2831853071796013 $158 $255 forward 7 unknown #
face $-1 $256 $257 $24 $-1 $258 reversed single #
loop $-1 $-1 $259 $99 #
plane-surface $-1 -73.329874568926044 0 0 1 0 0 0 0 -1 forward_v I I I I #
coedge $-1 $260 $171 $261 $262 forward $100 $-1 #
coedge $-1 $263 $102 $260 $264 forward $65 $-1 #
coedge $-1 $102 $263 $265 $266 forward $65 $-1 #
coedge $-1 $174 $173 $102 $167 reversed $175 $-1 #
edge $-1 $267 -50.315792379391915 $268 50.315792379391915 $166 $269 forward 7 unknown #
coedge $-1 $104 $103 $270 $271 forward $41 $-1 #
coedge $-1 $272 $273 $103 $170 reversed $257 $-1 #
edge $-1 $177 -73.329874568926044 $274 73.329874568926044 $169 $275 forward 7 unknown #
coedge $-1 $163 $276 $104 $172 reversed $100 $-1 #
edge $-1 $277 -73.329874568926044 $176 73.329874568926044 $171 $278 forward 7 unknown #
coedge $-1 $166 $105 $276 $279 forward $175 $-1 #
coedge $-1 $105 $166 $272 $280 reversed $175 $-1 #
loop $-1 $-1 $173 $256 #
vertex $-1 $106 $281 #
vertex $-1 $106 $282 #
straight-curve $-1 73.329874568926044 0 12.907788908411833 0 1 0 I I #
face $-1 $283 $284 $25 $-1 $285 forward single #
loop $-1 $-1 $286 $107 #
plane-surface $-1 -73.329874568926044 0 0 1 0 0 0 0 -1 forward_v I I I I #
coedge $-1 $189 $287 $191 $288 forward $108 $-1 #
coedge $-1 $110 $191 $289 $290 reversed $69 $-1 #
coedge $-1 $291 $187 $110 $185 forward $292 $-1 #
edge $-1 $193 1.7417262266639435 $293 8.0246171967199054 $184 $294 forward 7 unknown #
coedge $-1 $112 $111 $286 $295 reversed $44 $-1 #
coedge $-1 $184 $296 $111 $188 forward $292 $-1 #
edge $-1 $297 -39.389647948292577 $193 -28.490805292974358 $187 $298 forward 7 unknown #
coedge $-1 $299 $182 $112 $190 forward $108 $-1 #
edge $-1 $192 28.490805292974358 $300 39.389647948292577 $189 $301 forward 7 unknown #
coedge $-1 $183 $113 $182 $288 reversed $69 $-1 #
vertex $-1 $190 $302 #
vertex $-1 $188 $303 #
straight-curve $-1 -62.431031913607825 0 6.6248979383558684 0 -1 0 I I #
face $-1 $304 $305 $26 $-1 $306 reversed single #
loop $-1 $-1 $307 $115 #
plane-surface $-1 0 -50.315792379391915 0 0 1 0 0 0 1 forward_v I I I I #
coedge $-1 $308 $309 $200 $310 forward $116 $-1 #
coedge $-1 $311 $118 $203 $312 reversed $73 $-1 #
coedge $-1 $118 $311 $198 $310 reversed $73 $-1 #
coedge $-1 $313 $206 $118 $202 forward $305 $-1 #
edge $-1 $314 1.7417262266639435 $315 8.0246171967199054 $201 $316 forward 7 unknown #
coedge $-1 $120 $119 $199 $312 forward $47 $-1 #
coedge $-1 $317 $307 $119 $205 forward $196 $-1 #
edge $-1 $318 28.490805292974358 $211 39.389647948292577 $204 $319 forward 7 unknown #
coedge $-1 $201 $320 $120 $207 forward $305 $-1 #
edge $-1 $212 -39.389647948292577 $314 -28.490805292974358 $206 $321 forward 7 unknown #
coedge $-1 $322 $121 $320 $323 reversed $210 $-1 #
coedge $-1 $121 $322 $317 $324 forward $210 $-1 #
loop $-1 $-1 $121 $304 #
vertex $-1 $205 $325 #
vertex $-1 $122 $326 #
straight-curve $-1 73.329874568926044 0 6.6248979383558684 0 1 0 I I #
face $-1 $-1 $226 $27 $-1 $327 forward single #
loop $-1 $-1 $328 $123 #
plane-surface $-1 0 50.315792379391915 0 0 -1 0 0 0 -1 forward_v I I I I #
coedge $-1 $329 $330 $331 $332 reversed $124 $-1 #
coedge $-1 $333 $126 $128 $224 forward $77 $-1 #
coedge $-1 $126 $333 $329 $334 forward $77 $-1 #
coedge $-1 $331 $129 $126 $221 forward $226 $-1 #
edge $-1 $228 -5.0655239027069072 $335 27.011760166360098 $220 $336 forward 7 unknown #
coedge $-1 $337 $338 $127 $223 forward $215 $-1 #
edge $-1 $339 -83.816384368301399 $227 -72.867354471965442 $222 $340 forward 7 unknown #
edge $-1 $228 86.737066528504442 $339 100.63158475878387 $128 $341 forward 7 unknown #
coedge $-1 $129 $331 $337 $342 forward $226 $-1 #
loop $-1 $-1 $331 $214 #
vertex $-1 $223 $343 #
vertex $-1 $130 $344 #
straight-curve $-1 5.9075942291196881 51.965132079055948 12.907788908411831 0 -1 0 I I #
coedge $-1 $230 $230 $-1 $345 reversed $133 $-1 #
edge $-1 $346 0 $346 6.2831853071796004 $134 $347 forward 7 unknown #
vertex $-1 $137 $348 #
ellipse-curve $-1 21.946236263653191 46.03863265649435 7.433273960243862 0 0.78801076186113728 0.61566146476048833 2 0 0 1 I I #
face $-1 $-1 $349 $29 $-1 $350 forward single #
loop $-1 $-1 $241 $138 #
plane-surface $-1 0 0 12.907788908411833 0 0 1 1 0 0 forward_v I I I I #
coedge $-1 $351 $141 $143 $243 forward $86 $-1 #
coedge $-1 $141 $351 $352 $353 reversed $86 $-1 #
coedge $-1 $354 $144 $141 $240 forward $139 $-1 #
edge $-1 $246 19.405024942232039 $355 35.152346294994537 $239 $356 forward 7 unknown #
coedge $-1 $357 $358 $142 $242 forward $235 $-1 #
edge $-1 $359 -31.443270058271509 $245 -24.852958604490674 $241 $360 forward 7 unknown #
edge $-1 $246 9.4367341760026555e-015 $359 9.0111139211102262 $143 $361 forward 7 unknown #
coedge $-1 $144 $354 $357 $362 reversed $139 $-1 #
vertex $-1 $362 $363 #
vertex $-1 $145 $364 #
straight-curve $-1 46.683710560845327 -50.315792379391915 57.011186610195203 0 0 -1 I I #
coedge $-1 $248 $248 $-1 $365 reversed $148 $-1 #
edge $-1 $366 0 $366 6.2831853071796004 $149 $367 forward 7 unknown #
vertex $-1 $152 $368 #
ellipse-curve $-1 51.18294523306318 -47.020636652501494 9.8350064136120672 0 -0.68199836817093118 0.7313536940579346 2 0 0 1 I I #
coedge $-1 $252 $252 $-1 $369 reversed $155 $-1 #
edge $-1 $370 0 $370 6.2831853071796004 $156 $371 forward 7 unknown #
vertex $-1 $159 $372 #
ellipse-curve $-1 57.931797241389972 -47.020636652501494 9.8350064136120672 0 -0.68199836817093118 0.7313536940579346 2 0 0 1 I I #
face $-1 $-1 $175 $24 $-1 $373 reversed single #
loop $-1 $-1 $272 $160 #
plane-surface $-1 0 50.315792379391915 0 0 -1 0 0 0 -1 forward_v I I I I #
coedge $-1 $374 $270 $273 $375 forward $161 $-1 #
coedge $-1 $276 $163 $164 $264 reversed $100 $-1 #
coedge $-1 $270 $374 $163 $262 reversed $161 $-1 #
edge $-1 $277 -12.907788908411833 $376 12.907788908411833 $261 $377 forward 7 unknown #
coedge $-1 $165 $164 $374 $378 forward $65 $-1 #
edge $-1 $268 -73.329874568926044 $376 73.329874568926044 $260 $379 forward 7 unknown #
coedge $-1 $273 $272 $165 $266 reversed $257 $-1 #
edge $-1 $380 -73.329874568926044 $267 73.329874568926044 $265 $381 forward 7 unknown #
vertex $-1 $167 $382 #
vertex $-1 $279 $383 #
straight-curve $-1 73.329874568926044 0 -12.907788908411833 0 -1 0 I I #
coedge $-1 $259 $261 $168 $271 reversed $161 $-1 #
edge $-1 $274 -50.315792379391915 $277 50.315792379391915 $270 $384 forward 7 unknown #
coedge $-1 $265 $169 $174 $280 forward $257 $-1 #
coedge $-1 $169 $265 $259 $375 reversed $257 $-1 #
vertex $-1 $170 $385 #
straight-curve $-1 0 50.315792379391915 12.907788908411833 -1 0 0 I I #
coedge $-1 $171 $260 $173 $279 reversed $100 $-1 #
vertex $-1 $271 $386 #
straight-curve $-1 0 -50.315792379391915 12.907788908411833 1 0 0 I I #
edge $-1 $176 -12.907788908411833 $268 12.907788908411833 $173 $387 forward 7 unknown #
edge $-1 $177 -12.907788908411833 $267 12.907788908411833 $174 $388 forward 7 unknown #
point $-1 73.329874568926044 -50.315792379391915 12.907788908411833 #
point $-1 73.329874568926044 50.315792379391915 12.907788908411833 #
face $-1 $-1 $292 $25 $-1 $389 reversed single #
loop $-1 $-1 $289 $179 #
plane-surface $-1 0 0 12.907788908411833 0 0 1 1 0 0 forward_v I I I I #
coedge $-1 $390 $391 $186 $295 forward $180 $-1 #
coedge $-1 $182 $299 $392 $393 reversed $108 $-1 #
edge $-1 $394 -8.0246171967199054 $192 -1.7417262266639435 $182 $395 forward 7 unknown #
coedge $-1 $392 $396 $183 $290 forward $284 $-1 #
edge $-1 $293 -50.315792379391915 $394 50.315792379391915 $289 $397 forward 7 unknown #
coedge $-1 $296 $184 $396 $398 reversed $292 $-1 #
loop $-1 $-1 $184 $283 #
vertex $-1 $185 $399 #
straight-curve $-1 -62.431031913607825 -50.315792379391915 4.8831717116919249 0 0 1 I I #
edge $-1 $300 -50.315792379391915 $297 50.315792379391915 $286 $400 forward 7 unknown #
coedge $-1 $187 $291 $390 $401 forward $292 $-1 #
vertex $-1 $295 $402 #
straight-curve $-1 -33.940226620633467 -50.315792379391915 6.6248979383558684 1 0 0 I I #
coedge $-1 $287 $189 $391 $403 reversed $108 $-1 #
vertex $-1 $295 $404 #
straight-curve $-1 -33.940226620633467 50.315792379391915 6.6248979383558684 -1 0 0 I I #
point $-1 -62.431031913607825 50.315792379391915 6.6248979383558684 #
point $-1 -62.431031913607825 -50.315792379391915 6.6248979383558684 #
face $-1 $-1 $210 $26 $-1 $405 reversed single #
loop $-1 $-1 $201 $195 #
plane-surface $-1 0 50.315792379391915 0 0 -1 0 0 0 -1 forward_v I I I I #
coedge $-1 $204 $406 $311 $407 forward $196 $-1 #
coedge $-1 $408 $198 $406 $409 forward $116 $-1 #
coedge $-1 $198 $408 $313 $410 forward $116 $-1 #
edge $-1 $315 -50.315792379391915 $411 50.315792379391915 $198 $412 forward 7 unknown #
coedge $-1 $200 $199 $307 $407 reversed $73 $-1 #
edge $-1 $318 -50.315792379391915 $314 50.315792379391915 $199 $413 forward 7 unknown #
coedge $-1 $320 $201 $309 $410 reversed $305 $-1 #
vertex $-1 $207 $414 #
vertex $-1 $202 $415 #
straight-curve $-1 62.431031913607825 50.315792379391915 4.8831717116919249 0 0 1 I I #
coedge $-1 $406 $204 $209 $324 reversed $196 $-1 #
vertex $-1 $205 $416 #
straight-curve $-1 33.940226620633467 -50.315792379391915 6.6248979383558684 1 0 0 I I #
coedge $-1 $206 $313 $208 $323 forward $305 $-1 #
straight-curve $-1 33.940226620633467 50.315792379391915 6.6248979383558684 -1 0 0 I I #
coedge $-1 $209 $208 $408 $417 reversed $210 $-1 #
edge $-1 $418 -12.907788908411833 $212 -6.6248979383558684 $208 $419 forward 7 unknown #
edge $-1 $420 -12.907788908411833 $211 -6.6248979383558684 $209 $421 forward 7 unknown #
point $-1 73.329874568926044 -50.315792379391915 6.6248979383558684 #
point $-1 73.329874568926044 50.315792379391915 6.6248979383558684 #
plane-surface $-1 0 0 12.907788908411833 0 0 1 1 0 0 forward_v I I I I #
coedge $-1 $338 $337 $330 $422 forward $215 $-1 #
coedge $-1 $330 $217 $219 $334 reversed $124 $-1 #
coedge $-1 $217 $329 $328 $422 reversed $124 $-1 #
coedge $-1 $225 $220 $217 $332 forward $226 $-1 #
edge $-1 $335 -10.203659145459177 $423 -1.6493396996640328 $331 $424 forward 7 unknown #
coedge $-1 $219 $218 $338 $425 reversed $77 $-1 #
edge $-1 $426 -100.63158475878387 $335 -86.737066528504442 $329 $427 forward 7 unknown #
vertex $-1 $221 $428 #
straight-curve $-1 10.973118131826595 41.761472933596778 12.907788908411824 1 0 0 I I #
coedge $-1 $328 $222 $225 $342 reversed $215 $-1 #
coedge $-1 $222 $328 $333 $425 forward $215 $-1 #
vertex $-1 $223 $429 #
straight-curve $-1 5.9075942291196881 50.315792379391915 85.775143380377273 0 0 1 I I #
straight-curve $-1 5.9075942291196881 -11.639196494370196 81.257530785138769 0 0.61566146476048833 -0.78801076186113728 I I #
edge $-1 $423 -37.984878298186693 $227 -5.9075942291196881 $337 $430 forward 7 unknown #
point $-1 5.9075942291196881 50.315792379391915 12.907788908411833 #
point $-1 5.9075942291196881 41.761472933596771 12.907788908411831 #
edge $-1 $431 1 $431 0 $230 $-1 forward 7 unknown #
vertex $-1 $231 $432 #
ellipse-curve $-1 21.946236263653191 41.766487395101507 4.0955083654102902 0 0.78801076186113728 0.61566146476048833 2 0 0 1 I I #
point $-1 23.946236263653191 46.038632656494372 7.4332739602438798 #
loop $-1 $-1 $352 $234 #
plane-surface $-1 62.431031913607825 0 9.7663434233838498 1 0 0 0 0 -1 forward_v I I I I #
coedge $-1 $238 $237 $358 $433 reversed $86 $-1 #
coedge $-1 $434 $435 $238 $353 forward $349 $-1 #
edge $-1 $355 -19.423722613014302 $436 -10.412608691904087 $352 $437 forward 7 unknown #
coedge $-1 $244 $239 $435 $438 forward $139 $-1 #
vertex $-1 $438 $439 #
straight-curve $-1 27.278685618613288 -50.315792379391915 6.7622239188123041 1 0 0 I I #
coedge $-1 $440 $241 $244 $362 forward $235 $-1 #
coedge $-1 $241 $440 $351 $433 forward $235 $-1 #
vertex $-1 $242 $441 #
straight-curve $-1 46.683710560845327 -75.168750983882589 12.907788908411831 0 -1 0 I I #
straight-curve $-1 46.683710560845327 -50.315792379391922 6.7622239188122961 0 0.7313536940579346 0.68199836817093118 I I #
edge $-1 $245 46.683710560845327 $442 62.431031913607825 $244 $443 forward 7 unknown #
point $-1 46.683710560845327 -50.315792379391915 12.907788908411833 #
point $-1 46.683710560845327 -50.315792379391915 6.7622239188123023 #
edge $-1 $444 1 $444 0 $248 $-1 forward 7 unknown #
vertex $-1 $249 $445 #
ellipse-curve $-1 51.18294523306318 -44.606137226309372 7.2457728361443436 0 -0.68199836817093118 0.7313536940579346 2 0 0 1 I I #
point $-1 53.18294523306318 -47.020636652501487 9.8350064136120618 #
edge $-1 $446 1 $446 0 $252 $-1 forward 7 unknown #
vertex $-1 $253 $447 #
ellipse-curve $-1 57.931797241389972 -44.606137226309372 7.2457728361443436 0 -0.68199836817093118 0.7313536940579346 2 0 0 1 I I #
point $-1 59.931797241389972 -47.020636652501487 9.8350064136120618 #
plane-surface $-1 73.329874568926044 0 0 -1 0 0 0 0 1 forward_v I I I I #
coedge $-1 $261 $259 $263 $378 reversed $161 $-1 #
edge $-1 $274 -12.907788908411833 $380 12.907788908411833 $273 $448 forward 7 unknown #
vertex $-1 $378 $449 #
straight-curve $-1 -73.329874568926044 -50.315792379391915 0 0 0 -1 I I #
edge $-1 $376 -50.315792379391915 $380 50.315792379391915 $374 $450 forward 7 unknown #
straight-curve $-1 0 -50.315792379391915 -12.907788908411833 -1 0 0 I I #
vertex $-1 $266 $451 #
straight-curve $-1 0 50.315792379391915 -12.907788908411833 1 0 0 I I #
point $-1 73.329874568926044 50.315792379391915 -12.907788908411833 #
point $-1 73.329874568926044 -50.315792379391915 -12.907788908411833 #
straight-curve $-1 -73.329874568926044 0 12.907788908411833 0 -1 0 I I #
point $-1 -73.329874568926044 50.315792379391915 12.907788908411833 #
point $-1 -73.329874568926044 -50.315792379391915 12.907788908411833 #
straight-curve $-1 73.329874568926044 -50.315792379391915 0 0 0 -1 I I #
straight-curve $-1 73.329874568926044 50.315792379391915 0 0 0 -1 I I #
plane-surface $-1 0 -50.315792379391915 0 0 1 0 0 0 1 forward_v I I I I #
coedge $-1 $452 $286 $296 $401 reversed $180 $-1 #
coedge $-1 $286 $452 $299 $403 forward $180 $-1 #
coedge $-1 $453 $289 $287 $393 forward $284 $-1 #
edge $-1 $394 62.431031913607825 $454 73.329874568926044 $287 $455 forward 7 unknown #
vertex $-1 $393 $456 #
straight-curve $-1 -62.431031913607825 50.315792379391915 4.8831717116919249 0 0 -1 I I #
coedge $-1 $289 $453 $291 $398 forward $284 $-1 #
straight-curve $-1 -62.431031913607825 0 12.907788908411833 0 1 0 I I #
edge $-1 $457 -73.329874568926044 $293 -62.431031913607825 $291 $458 forward 7 unknown #
point $-1 -62.431031913607825 -50.315792379391915 12.907788908411831 #
straight-curve $-1 -73.329874568926044 0 6.6248979383558684 0 -1 0 I I #
edge $-1 $457 -12.907788908411833 $297 -6.6248979383558684 $390 $459 forward 7 unknown #
point $-1 -73.329874568926044 -50.315792379391915 6.6248979383558684 #
edge $-1 $454 -12.907788908411833 $300 -6.6248979383558684 $299 $460 forward 7 unknown #
point $-1 -73.329874568926044 50.315792379391915 6.6248979383558684 #
plane-surface $-1 73.329874568926044 0 0 -1 0 0 0 0 1 forward_v I I I I #
coedge $-1 $307 $317 $308 $409 reversed $196 $-1 #
edge $-1 $411 -8.0246171967199054 $318 -1.7417262266639435 $307 $461 forward 7 unknown #
coedge $-1 $309 $308 $322 $417 forward $116 $-1 #
edge $-1 $411 62.431031913607825 $420 73.329874568926044 $406 $462 forward 7 unknown #
edge $-1 $418 -73.329874568926044 $315 -62.431031913607825 $313 $463 forward 7 unknown #
vertex $-1 $409 $464 #
straight-curve $-1 62.431031913607825 0 12.907788908411833 0 -1 0 I I #
straight-curve $-1 62.431031913607825 0 6.6248979383558684 0 1 0 I I #
point $-1 62.431031913607825 50.315792379391915 6.6248979383558684 #
point $-1 62.431031913607825 50.315792379391915 12.907788908411831 #
point $-1 62.431031913607825 -50.315792379391915 6.6248979383558684 #
edge $-1 $420 -50.315792379391915 $418 50.315792379391915 $322 $465 forward 7 unknown #
vertex $-1 $417 $466 #
straight-curve $-1 73.329874568926044 50.315792379391915 0 0 0 -1 I I #
vertex $-1 $417 $467 #
straight-curve $-1 73.329874568926044 -50.315792379391915 0 0 0 -1 I I #
edge $-1 $423 72.867354471965442 $426 83.816384368301399 $328 $468 forward 7 unknown #
vertex $-1 $342 $469 #
straight-curve $-1 37.984878298186693 51.965132079055948 12.907788908411831 0 1 0 I I #
edge $-1 $426 -27.011760166360098 $339 5.0655239027069072 $338 $470 forward 7 unknown #
vertex $-1 $425 $471 #
straight-curve $-1 37.984878298186693 -11.639196494370196 81.257530785138769 0 -0.61566146476048833 0.78801076186113728 I I #
point $-1 37.984878298186693 41.761472933596771 12.907788908411831 #
point $-1 5.9075942291196881 50.315792379391915 1.9587590120758733 #
straight-curve $-1 0 50.315792379391915 12.907788908411833 -1 0 0 I I #
vertex $-1 $345 $472 #
point $-1 23.946236263653191 41.766487395101507 4.0955083654102902 #
edge $-1 $436 -35.152346294994537 $359 -19.405024942232039 $358 $473 forward 7 unknown #
coedge $-1 $435 $352 $440 $474 reversed $349 $-1 #
coedge $-1 $352 $434 $354 $438 reversed $349 $-1 #
vertex $-1 $353 $475 #
straight-curve $-1 62.431031913607825 -36.110181094007267 20.009171044692874 0 0.7313536940579346 0.68199836817093118 I I #
edge $-1 $355 1.8790522071203783 $442 8.0246171967199054 $354 $476 forward 7 unknown #
point $-1 62.431031913607825 -50.315792379391915 6.7622239188123032 #
coedge $-1 $358 $357 $434 $474 forward $235 $-1 #
point $-1 46.683710560845327 -43.72548092561108 12.907788908411833 #
vertex $-1 $474 $477 #
straight-curve $-1 0 -50.315792379391915 12.907788908411833 1 0 0 I I #
vertex $-1 $365 $478 #
point $-1 53.18294523306318 -44.606137226309372 7.2457728361443436 #
vertex $-1 $369 $479 #
point $-1 59.931797241389972 -44.606137226309372 7.2457728361443436 #
straight-curve $-1 -73.329874568926044 50.315792379391915 0 0 0 -1 I I #
point $-1 -73.329874568926044 -50.315792379391915 -12.907788908411833 #
straight-curve $-1 -73.329874568926044 0 -12.907788908411833 0 1 0 I I #
point $-1 -73.329874568926044 50.315792379391915 -12.907788908411833 #
coedge $-1 $391 $390 $453 $480 reversed $180 $-1 #
coedge $-1 $396 $392 $452 $480 forward $284 $-1 #
vertex $-1 $393 $481 #
straight-curve $-1 0 50.315792379391915 12.907788908411833 -1 0 0 I I #
point $-1 -62.431031913607825 50.315792379391915 12.907788908411831 #
vertex $-1 $480 $482 #
straight-curve $-1 0 -50.315792379391915 12.907788908411833 1 0 0 I I #
straight-curve $-1 -73.329874568926044 -50.315792379391915 0 0 0 -1 I I #
straight-curve $-1 -73.329874568926044 50.315792379391915 0 0 0 -1 I I #
straight-curve $-1 62.431031913607825 -50.315792379391915 4.8831717116919249 0 0 -1 I I #
straight-curve $-1 0 -50.315792379391915 12.907788908411833 1 0 0 I I #
straight-curve $-1 0 50.315792379391915 12.907788908411833 -1 0 0 I I #
point $-1 62.431031913607825 -50.315792379391915 12.907788908411831 #
straight-curve $-1 73.329874568926044 0 12.907788908411833 0 1 0 I I #
point $-1 73.329874568926044 50.315792379391915 12.907788908411833 #
point $-1 73.329874568926044 -50.315792379391915 12.907788908411833 #
straight-curve $-1 37.984878298186693 50.315792379391915 85.775143380377273 0 0 -1 I I #
point $-1 37.984878298186693 50.315792379391915 12.907788908411833 #
straight-curve $-1 10.973118131826595 50.315792379391915 1.9587590120758804 -1 0 0 I I #
point $-1 37.984878298186693 50.315792379391915 1.9587590120758733 #
point $-1 21.946236263653191 40.190465871379232 2.864185435889314 #
straight-curve $-1 27.278685618613288 -43.725480925611073 12.907788908411833 -1 0 0 I I #
edge $-1 $442 -50.315792379391915 $436 -43.72548092561108 $440 $483 forward 7 unknown #
point $-1 62.431031913607825 -43.72548092561108 12.907788908411833 #
straight-curve $-1 62.431031913607825 -50.315792379391915 4.8831717116919249 0 0 1 I I #
point $-1 62.431031913607825 -50.315792379391915 12.907788908411831 #
point $-1 51.18294523306318 -43.242140489967511 5.7830654480284736 #
point $-1 57.931797241389972 -43.242140489967511 5.7830654480284736 #
edge $-1 $454 -50.315792379391915 $457 50.315792379391915 $452 $484 forward 7 unknown #
point $-1 -73.329874568926044 50.315792379391915 12.907788908411833 #
point $-1 -73.329874568926044 -50.315792379391915 12.907788908411833 #
straight-curve $-1 62.431031913607825 0 12.907788908411833 0 1 0 I I #
straight-curve $-1 -73.329874568926044 0 12.907788908411833 0 -1 0 I I #
End-of-ACIS-data 