500 0 12 0           
7 Unknown 11 ACIS 5.0 NT 24 Fri Mar 26 20:25:31 1999 
-1 9.9999999999999995e-007 1e-010 
body $-1 $12 $-1 $13 #
body $-1 $14 $-1 $15 #
body $-1 $16 $-1 $17 #
body $-1 $18 $-1 $19 #
body $-1 $20 $-1 $21 #
body $-1 $22 $-1 $23 #
body $-1 $24 $-1 $25 #
body $-1 $26 $-1 $27 #
body $-1 $28 $-1 $29 #
body $-1 $30 $-1 $31 #
body $-1 $32 $-1 $33 #
body $-1 $34 $-1 $35 #
lump $-1 $-1 $36 $0 #
transform $-1 1 0 0 0 1 0 0 0 1 56.721701712088382 29.959140207854588 11.940683592838505 1 rotate no_reflect no_shear #
lump $-1 $-1 $37 $1 #
transform $-1 1 0 0 0 1 0 0 0 1 56.721701712088382 29.959140207854588 11.940683592838505 1 rotate no_reflect no_shear #
lump $-1 $-1 $38 $2 #
transform $-1 1 0 0 0 1 0 0 0 1 56.721701712088382 29.959140207854588 11.940683592838505 1 rotate no_reflect no_shear #
lump $-1 $-1 $39 $3 #
transform $-1 1 0 0 0 1 0 0 0 1 56.721701712088382 29.959140207854588 11.940683592838505 1 rotate no_reflect no_shear #
lump $-1 $-1 $40 $4 #
transform $-1 1 0 0 0 1 0 0 0 1 56.721701712088382 29.959140207854588 11.940683592838505 1 rotate no_reflect no_shear #
lump $-1 $-1 $41 $5 #
transform $-1 1 0 0 0 1 0 0 0 1 56.721701712088382 29.959140207854588 11.940683592838505 1 rotate no_reflect no_shear #
lump $-1 $-1 $42 $6 #
transform $-1 1 0 0 0 1 0 0 0 1 56.721701712088382 29.959140207854588 11.940683592838505 1 rotate no_reflect no_shear #
lump $-1 $-1 $43 $7 #
transform $-1 1 0 0 0 1 0 0 0 1 56.721701712088382 29.959140207854588 11.940683592838505 1 rotate no_reflect no_shear #
lump $-1 $-1 $44 $8 #
transform $-1 1 0 0 0 1 0 0 0 1 56.721701712088382 29.959140207854588 11.940683592838505 1 rotate no_reflect no_shear #
lump $-1 $-1 $45 $9 #
transform $-1 1 0 0 0 1 0 0 0 1 56.721701712088382 29.959140207854588 11.940683592838505 1 rotate no_reflect no_shear #
lump $-1 $-1 $46 $10 #
transform $-1 1 0 0 0 1 0 0 0 1 56.721701712088382 29.959140207854588 11.940683592838505 1 rotate no_reflect no_shear #
lump $-1 $-1 $47 $11 #
transform $-1 1 0 0 0 1 0 0 0 1 56.721701712088382 29.959140207854588 11.940683592838505 1 rotate no_reflect no_shear #
shell $-1 $-1 $-1 $48 $-1 $12 #
shell $-1 $-1 $-1 $49 $-1 $14 #
shell $-1 $-1 $-1 $50 $-1 $16 #
shell $-1 $-1 $-1 $51 $-1 $18 #
shell $-1 $-1 $-1 $52 $-1 $20 #
shell $-1 $-1 $-1 $53 $-1 $22 #
shell $-1 $-1 $-1 $54 $-1 $24 #
shell $-1 $-1 $-1 $55 $-1 $26 #
shell $-1 $-1 $-1 $56 $-1 $28 #
shell $-1 $-1 $-1 $57 $-1 $30 #
shell $-1 $-1 $-1 $58 $-1 $32 #
shell $-1 $-1 $-1 $59 $-1 $34 #
face $-1 $60 $61 $36 $-1 $62 forward single #
face $-1 $63 $64 $37 $-1 $65 reversed single #
face $-1 $66 $67 $38 $-1 $68 reversed single #
face $-1 $69 $70 $39 $-1 $71 forward single #
face $-1 $72 $73 $40 $-1 $74 forward single #
face $-1 $75 $76 $41 $-1 $77 reversed single #
face $-1 $78 $79 $42 $-1 $80 forward single #
face $-1 $81 $82 $43 $-1 $83 forward single #
face $-1 $84 $85 $44 $-1 $86 reversed single #
face $-1 $87 $88 $45 $-1 $89 forward single #
face $-1 $90 $91 $46 $-1 $92 forward single #
face $-1 $93 $94 $47 $-1 $95 forward single #
face $-1 $96 $97 $36 $-1 $98 reversed single #
loop $-1 $-1 $99 $48 #
plane-surface $-1 0 0 11.940683592838505 0 0 1 1 0 0 forward_v I I I I #
face $-1 $100 $101 $37 $-1 $102 reversed single #
loop $-1 $-1 $103 $49 #
plane-surface $-1 -50.120012714783215 -22.192165756466942 0 0 1 0 0 0 1 forward_v I I I I #
face $-1 $104 $105 $38 $-1 $106 reversed single #
loop $-1 $-1 $107 $50 #
plane-surface $-1 -43.518323717478054 45.945422527356129 131.93066574331928 1 0 0 0 -0.57357644374324357 -0.81915203911291934 forward_v I I I I #
face $-1 $108 $109 $39 $-1 $110 forward single #
loop $-1 $111 $112 $51 #
cone-surface $-1 -39.355833816024727 24.144804591744588 7.4341813865962072 0 -0.57357644374324357 -0.81915203911291934 1 0 0 1 I I 0 1 1 forward I I I I #
face $-1 $113 $114 $40 $-1 $115 forward single #
loop $-1 $116 $117 $52 #
cone-surface $-1 -33.11209896384473 24.144804591744588 7.4341813865962072 0 -0.57357644374324357 -0.81915203911291934 1 0 0 1 I I 0 1 1 forward I I I I #
face $-1 $118 $119 $41 $-1 $120 reversed single #
loop $-1 $-1 $121 $53 #
plane-surface $-1 6.6016889973051605 45.945422527356129 131.93066574331928 1 0 0 0 -0.57357644374324357 -0.81915203911291934 forward_v I I I I #
face $-1 $122 $123 $42 $-1 $124 forward single #
loop $-1 $125 $126 $54 #
cone-surface $-1 10.76417889875848 24.144804591744588 7.4341813865962072 0 -0.57357644374324357 -0.81915203911291934 1 0 0 1 I I 0 1 1 forward I I I I #
face $-1 $127 $128 $43 $-1 $129 forward single #
loop $-1 $130 $131 $55 #
cone-surface $-1 17.007913750938478 24.144804591744588 7.4341813865962072 0 -0.57357644374324357 -0.81915203911291934 1 0 0 1 I I 0 1 1 forward I I I I #
face $-1 $132 $133 $44 $-1 $134 reversed single #
loop $-1 $-1 $135 $56 #
plane-surface $-1 15.510431421458613 -105.86759444142814 87.629631882940117 -1 0 0 0 -0.66913061440640931 0.74314481823134659 forward_v I I I I #
face $-1 $136 $137 $45 $-1 $138 forward single #
loop $-1 $139 $140 $57 #
cone-surface $-1 1.6553001988406351 -23.877261884375862 6.1918114168506797 0 0.66913061440640931 -0.74314481823134659 1 0 0 1 I I 0 1 1 forward I I I I #
face $-1 $141 $142 $46 $-1 $143 forward single #
loop $-1 $144 $145 $58 #
cone-surface $-1 6.8509744073223757 -23.877261884375862 6.1918114168506797 0 0.66913061440640931 -0.74314481823134659 1 0 0 1 I I 0 1 1 forward I I I I #
face $-1 $146 $147 $47 $-1 $148 forward single #
loop $-1 $149 $150 $59 #
cone-surface $-1 12.046648615804123 -23.877261884375862 6.1918114168506797 0 0.66913061440640931 -0.74314481823134659 1 0 0 1 I I 0 1 1 forward I I I I #
face $-1 $151 $152 $36 $-1 $153 reversed single #
loop $-1 $-1 $154 $60 #
plane-surface $-1 0 0 -11.940683592838505 0 0 1 1 0 0 forward_v I I I I #
coedge $-1 $155 $156 $157 $158 forward $61 $-1 #
face $-1 $159 $160 $37 $-1 $161 reversed single #
loop $-1 $-1 $162 $63 #
plane-surface $-1 -50.120012714783215 -17.460569214026876 0 0 -1 0 0 0 -1 forward_v I I I I #
coedge $-1 $163 $164 $165 $166 reversed $64 $-1 #
face $-1 $167 $168 $38 $-1 $169 reversed single #
loop $-1 $-1 $170 $66 #
plane-surface $-1 -36.233966389934729 -19.123041374813283 39.003270504495333 0 0.57357644374324357 0.81915203911291934 1 0 0 forward_v I I I I #
coedge $-1 $171 $172 $173 $174 reversed $67 $-1 #
face $-1 $-1 $175 $39 $-1 $176 forward single #
loop $-1 $177 $178 $69 #
cone-surface $-1 -39.355833816024727 23.260082138676836 6.1706668029954752 0 -0.57357644374324357 -0.81915203911291934 0.5 0 0 1 I I -0.70710678118654746 0.70710678118654746 0.5 forward I I I I #
loop $-1 $-1 $179 $51 #
coedge $-1 $112 $112 $180 $181 reversed $70 $-1 #
face $-1 $-1 $182 $40 $-1 $183 forward single #
loop $-1 $184 $185 $72 #
cone-surface $-1 -33.11209896384473 23.260082138676836 6.1706668029954752 0 -0.57357644374324357 -0.81915203911291934 0.5 0 0 1 I I -0.70710678118654746 0.70710678118654746 0.5 forward I I I I #
loop $-1 $-1 $186 $52 #
coedge $-1 $117 $117 $187 $188 reversed $73 $-1 #
face $-1 $189 $190 $41 $-1 $191 reversed single #
loop $-1 $-1 $192 $75 #
plane-surface $-1 13.886046324848486 -19.123041374813283 39.003270504495333 0 0.57357644374324357 0.81915203911291934 1 0 0 forward_v I I I I #
coedge $-1 $193 $194 $195 $196 reversed $76 $-1 #
face $-1 $-1 $197 $42 $-1 $198 forward single #
loop $-1 $199 $200 $78 #
cone-surface $-1 10.76417889875848 23.260082138676836 6.1706668029954752 0 -0.57357644374324357 -0.81915203911291934 0.5 0 0 1 I I -0.70710678118654746 0.70710678118654746 0.5 forward I I I I #
loop $-1 $-1 $201 $54 #
coedge $-1 $126 $126 $202 $203 reversed $79 $-1 #
face $-1 $-1 $204 $43 $-1 $205 forward single #
loop $-1 $206 $207 $81 #
cone-surface $-1 17.007913750938478 23.260082138676836 6.1706668029954752 0 -0.57357644374324357 -0.81915203911291934 0.5 0 0 1 I I -0.70710678118654746 0.70710678118654746 0.5 forward I I I I #
loop $-1 $-1 $208 $55 #
coedge $-1 $131 $131 $209 $210 reversed $82 $-1 #
face $-1 $211 $212 $44 $-1 $213 reversed single #
loop $-1 $-1 $214 $84 #
plane-surface $-1 6.8509744073223757 -29.959140207854588 3.324754465734955 0 -0.66913061440640931 0.74314481823134659 1 0 0 forward_v I I I I #
coedge $-1 $215 $216 $217 $218 reversed $85 $-1 #
face $-1 $-1 $219 $45 $-1 $220 forward single #
loop $-1 $221 $222 $87 #
cone-surface $-1 1.6553001988406351 -22.245297507221718 4.3793313952989532 0 0.66913061440640931 -0.74314481823134659 0.5 0 0 1 I I -0.70710678118654746 0.70710678118654746 0.5 forward I I I I #
loop $-1 $-1 $223 $57 #
coedge $-1 $140 $140 $224 $225 reversed $88 $-1 #
face $-1 $-1 $226 $46 $-1 $227 forward single #
loop $-1 $228 $229 $90 #
cone-surface $-1 6.8509744073223757 -22.245297507221718 4.3793313952989532 0 0.66913061440640931 -0.74314481823134659 0.5 0 0 1 I I -0.70710678118654746 0.70710678118654746 0.5 forward I I I I #
loop $-1 $-1 $230 $58 #
coedge $-1 $145 $145 $231 $232 reversed $91 $-1 #
face $-1 $-1 $233 $47 $-1 $234 forward single #
loop $-1 $235 $236 $93 #
cone-surface $-1 12.046648615804123 -22.245297507221718 4.3793313952989532 0 0.66913061440640931 -0.74314481823134659 0.5 0 0 1 I I -0.70710678118654746 0.70710678118654746 0.5 forward I I I I #
loop $-1 $-1 $237 $59 #
coedge $-1 $150 $150 $238 $239 reversed $94 $-1 #
face $-1 $240 $241 $36 $-1 $242 reversed single #
loop $-1 $-1 $243 $96 #
plane-surface $-1 0 -29.959140207854588 0 0 1 0 0 0 1 forward_v I I I I #
coedge $-1 $244 $245 $246 $247 forward $97 $-1 #
coedge $-1 $248 $99 $249 $250 forward $61 $-1 #
coedge $-1 $99 $248 $251 $252 forward $61 $-1 #
coedge $-1 $253 $254 $99 $158 reversed $255 $-1 #
edge $-1 $256 -29.959140207854588 $257 29.959140207854588 $157 $258 forward 7 unknown #
face $-1 $259 $260 $37 $-1 $261 reversed single #
loop $-1 $-1 $262 $100 #
plane-surface $-1 -43.518323717478054 -19.826367485246909 0 -1 0 0 0 0 1 forward_v I I I I #
coedge $-1 $263 $264 $265 $266 forward $101 $-1 #
coedge $-1 $267 $103 $268 $269 reversed $64 $-1 #
coedge $-1 $103 $267 $270 $271 reversed $64 $-1 #
coedge $-1 $272 $273 $103 $166 forward $274 $-1 #
edge $-1 $275 -11.940683592838505 $276 11.940683592838505 $165 $277 forward 7 unknown #
face $-1 $278 $279 $38 $-1 $280 reversed single #
loop $-1 $-1 $281 $104 #
plane-surface $-1 -28.949609062391403 45.945422527356129 131.93066574331928 -1 0 0 0 0.57357644374324357 0.81915203911291934 forward_v I I I I #
coedge $-1 $282 $283 $284 $285 reversed $105 $-1 #
coedge $-1 $172 $107 $286 $287 reversed $67 $-1 #
coedge $-1 $107 $171 $282 $288 reversed $67 $-1 #
coedge $-1 $284 $289 $107 $174 forward $290 $-1 #
edge $-1 $291 -6.9864289441765237 $292 3.4463738256512428 $173 $293 forward 7 unknown #
loop $-1 $-1 $180 $108 #
plane-surface $-1 -36.233966389934729 -19.123041374813283 39.003270504495333 0 0.57357644374324357 0.81915203911291934 1 0 0 forward_v I I I I #
loop $-1 $-1 $294 $69 #
coedge $-1 $178 $178 $179 $295 reversed $109 $-1 #
coedge $-1 $179 $179 $178 $295 forward $111 $-1 #
coedge $-1 $180 $180 $112 $181 forward $175 $-1 #
edge $-1 $296 -4.3924998573827983e-016 $296 6.2831853071796004 $180 $297 forward 7 unknown #
loop $-1 $-1 $187 $113 #
plane-surface $-1 -36.233966389934729 -19.123041374813283 39.003270504495333 0 0.57357644374324357 0.81915203911291934 1 0 0 forward_v I I I I #
loop $-1 $-1 $298 $72 #
coedge $-1 $185 $185 $186 $299 reversed $114 $-1 #
coedge $-1 $186 $186 $185 $299 forward $116 $-1 #
coedge $-1 $187 $187 $117 $188 forward $182 $-1 #
edge $-1 $300 -4.3924998573827983e-016 $300 6.2831853071796004 $187 $301 forward 7 unknown #
face $-1 $302 $303 $41 $-1 $304 forward single #
loop $-1 $-1 $305 $118 #
plane-surface $-1 21.170403652391812 45.945422527356129 131.93066574331928 -1 0 0 0 0.57357644374324357 0.81915203911291934 forward_v I I I I #
coedge $-1 $306 $307 $308 $309 reversed $119 $-1 #
coedge $-1 $194 $121 $310 $311 reversed $76 $-1 #
coedge $-1 $121 $193 $306 $312 reversed $76 $-1 #
coedge $-1 $308 $313 $121 $196 forward $303 $-1 #
edge $-1 $314 -6.9864289441765237 $315 3.4463738256512428 $195 $316 forward 7 unknown #
loop $-1 $-1 $202 $122 #
plane-surface $-1 13.886046324848486 -19.123041374813283 39.003270504495333 0 0.57357644374324357 0.81915203911291934 1 0 0 forward_v I I I I #
loop $-1 $-1 $317 $78 #
coedge $-1 $200 $200 $201 $318 reversed $123 $-1 #
coedge $-1 $201 $201 $200 $318 forward $125 $-1 #
coedge $-1 $202 $202 $126 $203 forward $197 $-1 #
edge $-1 $319 -4.3924998573827983e-016 $319 6.2831853071796004 $202 $320 forward 7 unknown #
loop $-1 $-1 $209 $127 #
plane-surface $-1 13.886046324848486 -19.123041374813283 39.003270504495333 0 0.57357644374324357 0.81915203911291934 1 0 0 forward_v I I I I #
loop $-1 $-1 $321 $81 #
coedge $-1 $207 $207 $208 $322 reversed $128 $-1 #
coedge $-1 $208 $208 $207 $322 forward $130 $-1 #
coedge $-1 $209 $209 $131 $210 forward $204 $-1 #
edge $-1 $323 -4.3924998573827983e-016 $323 6.2831853071796004 $209 $324 forward 7 unknown #
face $-1 $325 $326 $44 $-1 $327 forward single #
loop $-1 $-1 $328 $132 #
plane-surface $-1 -1.8084826068138611 -105.86759444142814 87.629631882940117 1 0 0 0 0.66913061440640931 -0.74314481823134659 forward_v I I I I #
coedge $-1 $329 $330 $331 $332 reversed $133 $-1 #
coedge $-1 $216 $135 $333 $334 reversed $85 $-1 #
coedge $-1 $135 $215 $329 $335 reversed $85 $-1 #
coedge $-1 $331 $336 $135 $218 forward $326 $-1 #
edge $-1 $337 22.974657012859481 $338 32.543615519915051 $217 $339 forward 7 unknown #
loop $-1 $-1 $224 $136 #
plane-surface $-1 6.8509744073223757 -29.959140207854588 3.324754465734955 0 -0.66913061440640931 0.74314481823134659 1 0 0 forward_v I I I I #
loop $-1 $-1 $340 $87 #
coedge $-1 $222 $222 $223 $341 reversed $137 $-1 #
coedge $-1 $223 $223 $222 $341 forward $139 $-1 #
coedge $-1 $224 $224 $140 $225 forward $219 $-1 #
edge $-1 $342 5.9430737167645847e-016 $342 6.2831853071796013 $224 $343 forward 7 unknown #
loop $-1 $-1 $231 $141 #
plane-surface $-1 6.8509744073223757 -29.959140207854588 3.324754465734955 0 -0.66913061440640931 0.74314481823134659 1 0 0 forward_v I I I I #
loop $-1 $-1 $344 $90 #
coedge $-1 $229 $229 $230 $345 reversed $142 $-1 #
coedge $-1 $230 $230 $229 $345 forward $144 $-1 #
coedge $-1 $231 $231 $145 $232 forward $226 $-1 #
edge $-1 $346 5.9430737167645847e-016 $346 6.2831853071796013 $231 $347 forward 7 unknown #
loop $-1 $-1 $238 $146 #
plane-surface $-1 6.8509744073223757 -29.959140207854588 3.324754465734955 0 -0.66913061440640931 0.74314481823134659 1 0 0 forward_v I I I I #
loop $-1 $-1 $348 $93 #
coedge $-1 $236 $236 $237 $349 reversed $147 $-1 #
coedge $-1 $237 $237 $236 $349 forward $149 $-1 #
coedge $-1 $238 $238 $150 $239 forward $233 $-1 #
edge $-1 $350 5.9430737167645847e-016 $350 6.2831853071796013 $238 $351 forward 7 unknown #
face $-1 $352 $353 $36 $-1 $354 reversed single #
loop $-1 $-1 $355 $151 #
plane-surface $-1 -56.721701712088382 0 0 1 0 0 0 0 -1 forward_v I I I I #
coedge $-1 $356 $251 $357 $358 forward $152 $-1 #
coedge $-1 $359 $154 $356 $360 forward $97 $-1 #
coedge $-1 $154 $359 $361 $362 forward $97 $-1 #
coedge $-1 $254 $253 $154 $247 reversed $255 $-1 #
edge $-1 $363 -29.959140207854588 $364 29.959140207854588 $246 $365 forward 7 unknown #
coedge $-1 $156 $155 $366 $367 forward $61 $-1 #
coedge $-1 $368 $369 $155 $250 reversed $353 $-1 #
edge $-1 $257 -56.721701712088382 $370 56.721701712088382 $249 $371 forward 7 unknown #
coedge $-1 $243 $372 $156 $252 reversed $152 $-1 #
edge $-1 $373 -56.721701712088382 $256 56.721701712088382 $251 $374 forward 7 unknown #
coedge $-1 $246 $157 $372 $375 forward $255 $-1 #
coedge $-1 $157 $246 $368 $376 reversed $255 $-1 #
loop $-1 $-1 $253 $352 #
vertex $-1 $158 $377 #
vertex $-1 $158 $378 #
straight-curve $-1 56.721701712088382 0 11.940683592838505 0 1 0 I I #
face $-1 $379 $380 $37 $-1 $381 forward single #
loop $-1 $-1 $382 $159 #
plane-surface $-1 0 0 -11.940683592838505 0 0 1 1 0 0 forward_v I I I I #
coedge $-1 $383 $384 $267 $385 forward $160 $-1 #
coedge $-1 $386 $162 $382 $387 reversed $101 $-1 #
coedge $-1 $162 $386 $388 $389 reversed $101 $-1 #
coedge $-1 $384 $383 $162 $266 reversed $160 $-1 #
edge $-1 $390 -11.940683592838505 $391 11.940683592838505 $265 $392 forward 7 unknown #
coedge $-1 $164 $163 $262 $385 reversed $64 $-1 #
coedge $-1 $393 $394 $163 $269 forward $260 $-1 #
edge $-1 $395 18.458317360086447 $275 31.661695354696768 $268 $396 forward 7 unknown #
coedge $-1 $397 $398 $164 $271 forward $380 $-1 #
edge $-1 $276 -31.661695354696768 $399 -18.458317360086447 $270 $400 forward 7 unknown #
coedge $-1 $401 $165 $398 $402 reversed $274 $-1 #
coedge $-1 $165 $401 $393 $403 reversed $274 $-1 #
loop $-1 $-1 $401 $379 #
vertex $-1 $403 $404 #
vertex $-1 $166 $405 #
straight-curve $-1 -56.721701712088382 -22.192165756466942 0 0 0 1 I I #
face $-1 $-1 $290 $38 $-1 $406 forward single #
loop $-1 $-1 $407 $167 #
plane-surface $-1 0 29.959140207854588 0 0 -1 0 0 0 -1 forward_v I I I I #
coedge $-1 $408 $409 $410 $411 reversed $168 $-1 #
coedge $-1 $412 $170 $172 $288 forward $105 $-1 #
coedge $-1 $170 $412 $408 $413 forward $105 $-1 #
coedge $-1 $410 $173 $170 $285 forward $290 $-1 #
edge $-1 $292 -25.40134052251069 $414 -10.832625867424039 $284 $415 forward 7 unknown #
coedge $-1 $416 $417 $171 $287 forward $279 $-1 #
edge $-1 $418 -61.329776563217216 $291 -54.024649278821137 $286 $419 forward 7 unknown #
edge $-1 $292 47.1821798242662 $418 59.918280415709177 $172 $420 forward 7 unknown #
coedge $-1 $173 $410 $416 $421 forward $290 $-1 #
loop $-1 $-1 $410 $278 #
vertex $-1 $287 $422 #
vertex $-1 $174 $423 #
straight-curve $-1 -43.518323717478054 22.972711263678065 11.940683592838504 0 -1 0 I I #
coedge $-1 $294 $294 $-1 $424 reversed $177 $-1 #
edge $-1 $425 0 $425 6.2831853071796004 $178 $426 forward 7 unknown #
vertex $-1 $181 $427 #
ellipse-curve $-1 -39.355833816024727 24.742738822940709 8.2881199506404641 0 0.57357644374324357 0.81915203911291934 1 0 0 1 I I #
coedge $-1 $298 $298 $-1 $428 reversed $184 $-1 #
edge $-1 $429 0 $429 6.2831853071796004 $185 $430 forward 7 unknown #
vertex $-1 $188 $431 #
ellipse-curve $-1 -33.11209896384473 24.742738822940709 8.2881199506404641 0 0.57357644374324357 0.81915203911291934 1 0 0 1 I I #
face $-1 $-1 $432 $41 $-1 $433 reversed single #
loop $-1 $-1 $195 $189 #
plane-surface $-1 0 0 11.940683592838505 0 0 1 1 0 0 forward_v I I I I #
coedge $-1 $434 $435 $436 $437 reversed $190 $-1 #
coedge $-1 $438 $192 $194 $312 forward $119 $-1 #
coedge $-1 $192 $438 $434 $439 forward $119 $-1 #
coedge $-1 $436 $195 $192 $309 forward $303 $-1 #
edge $-1 $315 -0.34133416511908266 $440 14.227380489967569 $308 $441 forward 7 unknown #
coedge $-1 $442 $443 $193 $311 forward $432 $-1 #
edge $-1 $444 -61.329776563217216 $314 -54.024649278821137 $310 $445 forward 7 unknown #
edge $-1 $315 47.1821798242662 $444 59.918280415709177 $194 $446 forward 7 unknown #
coedge $-1 $195 $436 $442 $447 forward $303 $-1 #
vertex $-1 $311 $448 #
vertex $-1 $196 $449 #
straight-curve $-1 6.6016889973051605 22.972711263678065 11.940683592838504 0 -1 0 I I #
coedge $-1 $317 $317 $-1 $450 reversed $199 $-1 #
edge $-1 $451 0 $451 6.2831853071796004 $200 $452 forward 7 unknown #
vertex $-1 $203 $453 #
ellipse-curve $-1 10.76417889875848 24.742738822940709 8.2881199506404641 0 0.57357644374324357 0.81915203911291934 1 0 0 1 I I #
coedge $-1 $321 $321 $-1 $454 reversed $206 $-1 #
edge $-1 $455 0 $455 6.2831853071796004 $207 $456 forward 7 unknown #
vertex $-1 $210 $457 #
ellipse-curve $-1 17.007913750938478 24.742738822940709 8.2881199506404641 0 0.57357644374324357 0.81915203911291934 1 0 0 1 I I #
face $-1 $-1 $458 $44 $-1 $459 reversed single #
loop $-1 $-1 $217 $211 #
plane-surface $-1 0 0 11.940683592838505 0 0 1 1 0 0 forward_v I I I I #
coedge $-1 $460 $461 $462 $463 reversed $212 $-1 #
coedge $-1 $464 $214 $216 $335 forward $133 $-1 #
coedge $-1 $214 $464 $460 $465 forward $133 $-1 #
coedge $-1 $462 $217 $214 $332 forward $326 $-1 #
edge $-1 $338 -12.084944217797425 $466 5.2339698104750489 $331 $467 forward 7 unknown #
coedge $-1 $468 $469 $215 $334 forward $458 $-1 #
edge $-1 $470 -40.490061475735104 $337 -31.874132348631555 $333 $471 forward 7 unknown #
edge $-1 $338 -12.876303880889989 $470 0 $216 $472 forward 7 unknown #
coedge $-1 $217 $462 $468 $473 forward $326 $-1 #
vertex $-1 $334 $474 #
vertex $-1 $218 $475 #
straight-curve $-1 15.510431421458613 -52.933797220714069 11.940683592838504 0 1 0 I I #
coedge $-1 $340 $340 $-1 $476 reversed $221 $-1 #
edge $-1 $477 0 $477 6.2831853071796004 $222 $478 forward 7 unknown #
vertex $-1 $225 $479 #
ellipse-curve $-1 1.6553001988406351 -25.1746609543268 7.6327190292867311 0 -0.66913061440640931 0.74314481823134659 1 0 0 1 I I #
coedge $-1 $344 $344 $-1 $480 reversed $228 $-1 #
edge $-1 $481 0 $481 6.2831853071796004 $229 $482 forward 7 unknown #
vertex $-1 $232 $483 #
ellipse-curve $-1 6.8509744073223757 -25.1746609543268 7.6327190292867311 0 -0.66913061440640931 0.74314481823134659 1 0 0 1 I I #
coedge $-1 $348 $348 $-1 $484 reversed $235 $-1 #
edge $-1 $485 0 $485 6.2831853071796004 $236 $486 forward 7 unknown #
vertex $-1 $239 $487 #
ellipse-curve $-1 12.046648615804123 -25.1746609543268 7.6327190292867311 0 -0.66913061440640931 0.74314481823134659 1 0 0 1 I I #
face $-1 $-1 $255 $36 $-1 $488 reversed single #
loop $-1 $-1 $368 $240 #
plane-surface $-1 0 29.959140207854588 0 0 -1 0 0 0 -1 forward_v I I I I #
coedge $-1 $489 $366 $369 $490 forward $241 $-1 #
coedge $-1 $372 $243 $244 $360 reversed $152 $-1 #
coedge $-1 $366 $489 $243 $358 reversed $241 $-1 #
edge $-1 $373 -11.940683592838505 $491 11.940683592838505 $357 $492 forward 7 unknown #
coedge $-1 $245 $244 $489 $493 forward $97 $-1 #
edge $-1 $364 -56.721701712088382 $491 56.721701712088382 $356 $494 forward 7 unknown #
coedge $-1 $369 $368 $245 $362 reversed $353 $-1 #
edge $-1 $495 -56.721701712088382 $363 56.721701712088382 $361 $496 forward 7 unknown #
vertex $-1 $247 $497 #
vertex $-1 $375 $498 #
straight-curve $-1 56.721701712088382 0 -11.940683592838505 0 -1 0 I I #
coedge $-1 $355 $357 $248 $367 reversed $241 $-1 #
edge $-1 $370 -29.959140207854588 $373 29.959140207854588 $366 $499 forward 7 unknown #
coedge $-1 $361 $249 $254 $376 forward $353 $-1 #
coedge $-1 $249 $361 $355 $490 reversed $353 $-1 #
vertex $-1 $250 $500 #
straight-curve $-1 0 29.959140207854588 11.940683592838505 -1 0 0 I I #
coedge $-1 $251 $356 $253 $375 reversed $152 $-1 #
vertex $-1 $367 $501 #
straight-curve $-1 0 -29.959140207854588 11.940683592838505 1 0 0 I I #
edge $-1 $256 -11.940683592838505 $364 11.940683592838505 $253 $502 forward 7 unknown #
edge $-1 $257 -11.940683592838505 $363 11.940683592838505 $254 $503 forward 7 unknown #
point $-1 56.721701712088382 -29.959140207854588 11.940683592838505 #
point $-1 56.721701712088382 29.959140207854588 11.940683592838505 #
face $-1 $-1 $274 $37 $-1 $504 reversed single #
loop $-1 $-1 $388 $259 #
plane-surface $-1 0 0 11.940683592838505 0 0 1 1 0 0 forward_v I I I I #
coedge $-1 $394 $393 $263 $387 forward $260 $-1 #
coedge $-1 $265 $262 $394 $505 reversed $160 $-1 #
coedge $-1 $262 $265 $397 $506 reversed $160 $-1 #
edge $-1 $399 -11.940683592838505 $395 11.940683592838505 $262 $507 forward 7 unknown #
coedge $-1 $264 $263 $401 $508 reversed $101 $-1 #
edge $-1 $509 -31.661695354696768 $391 -18.458317360086447 $382 $510 forward 7 unknown #
coedge $-1 $398 $397 $264 $389 forward $380 $-1 #
edge $-1 $390 18.458317360086447 $511 31.661695354696768 $388 $512 forward 7 unknown #
vertex $-1 $389 $513 #
vertex $-1 $387 $514 #
straight-curve $-1 -43.518323717478054 -17.460569214026876 0 0 0 -1 I I #
coedge $-1 $382 $268 $273 $403 forward $260 $-1 #
coedge $-1 $268 $382 $383 $505 forward $260 $-1 #
vertex $-1 $269 $515 #
straight-curve $-1 -25.060006357391607 -22.192165756466942 -11.940683592838505 -1 0 0 I I #
coedge $-1 $388 $270 $384 $506 forward $380 $-1 #
coedge $-1 $270 $388 $272 $402 forward $380 $-1 #
vertex $-1 $271 $516 #
straight-curve $-1 -25.060006357391607 -22.192165756466942 11.940683592838505 1 0 0 I I #
coedge $-1 $273 $272 $386 $508 forward $274 $-1 #
edge $-1 $511 17.460569214026876 $276 22.192165756466942 $272 $517 forward 7 unknown #
edge $-1 $275 -22.192165756466942 $509 -17.460569214026876 $273 $518 forward 7 unknown #
point $-1 -56.721701712088375 -22.192165756466942 -11.940683592838505 #
point $-1 -56.721701712088375 -22.192165756466942 11.940683592838505 #
plane-surface $-1 0 0 11.940683592838505 0 0 1 1 0 0 forward_v I I I I #
coedge $-1 $417 $416 $409 $519 forward $279 $-1 #
coedge $-1 $409 $281 $283 $413 reversed $168 $-1 #
coedge $-1 $281 $408 $407 $519 reversed $168 $-1 #
coedge $-1 $289 $284 $281 $411 forward $290 $-1 #
edge $-1 $414 -3.4463738256512428 $520 6.9864289441765237 $410 $521 forward 7 unknown #
coedge $-1 $283 $282 $417 $522 reversed $105 $-1 #
edge $-1 $523 -59.918280415709177 $414 -47.1821798242662 $408 $524 forward 7 unknown #
vertex $-1 $285 $525 #
straight-curve $-1 -18.116983194967364 19.526337438026818 11.940683592838507 1 0 0 I I #
coedge $-1 $407 $286 $289 $421 reversed $279 $-1 #
coedge $-1 $286 $407 $412 $522 forward $279 $-1 #
vertex $-1 $287 $526 #
straight-curve $-1 -43.518323717478054 29.959140207854588 65.965332871659641 0 0 1 I I #
straight-curve $-1 -43.518323717478054 -19.123041374813283 39.003270504495333 0 0.81915203911291934 -0.57357644374324357 I I #
edge $-1 $520 28.949609062391403 $291 43.518323717478054 $416 $527 forward 7 unknown #
point $-1 -43.518323717478054 29.959140207854588 11.940683592838505 #
point $-1 -43.518323717478054 19.526337438026822 11.940683592838507 #
edge $-1 $528 1 $528 0 $294 $-1 forward 7 unknown #
vertex $-1 $295 $529 #
ellipse-curve $-1 -39.355833816024727 23.546870360548457 6.5802428225519352 0 0.57357644374324357 0.81915203911291934 1 0 0 1 I I #
point $-1 -38.355833816024727 24.742738822940719 8.2881199506404801 #
edge $-1 $530 1 $530 0 $298 $-1 forward 7 unknown #
vertex $-1 $299 $531 #
ellipse-curve $-1 -33.11209896384473 23.546870360548457 6.5802428225519352 0 0.57357644374324357 0.81915203911291934 1 0 0 1 I I #
point $-1 -32.11209896384473 24.742738822940719 8.2881199506404801 #
loop $-1 $-1 $310 $302 #
plane-surface $-1 0 29.959140207854588 0 0 -1 0 0 0 -1 forward_v I I I I #
coedge $-1 $435 $305 $307 $439 reversed $190 $-1 #
coedge $-1 $305 $434 $532 $533 reversed $190 $-1 #
coedge $-1 $313 $308 $305 $437 forward $303 $-1 #
edge $-1 $440 -3.4463738256512428 $534 6.9864289441765237 $436 $535 forward 7 unknown #
coedge $-1 $307 $306 $443 $536 reversed $119 $-1 #
edge $-1 $537 -59.918280415709177 $440 -47.1821798242662 $434 $538 forward 7 unknown #
vertex $-1 $309 $539 #
straight-curve $-1 6.9430231624242431 19.526337438026818 11.940683592838507 1 0 0 I I #
coedge $-1 $532 $310 $313 $447 reversed $432 $-1 #
coedge $-1 $310 $532 $438 $536 forward $432 $-1 #
vertex $-1 $311 $540 #
straight-curve $-1 6.6016889973051605 29.959140207854588 65.965332871659641 0 0 1 I I #
straight-curve $-1 6.6016889973051605 -19.123041374813283 39.003270504495333 0 0.81915203911291934 -0.57357644374324357 I I #
edge $-1 $534 -21.170403652391812 $314 -6.6016889973051605 $442 $541 forward 7 unknown #
point $-1 6.6016889973051605 29.959140207854588 11.940683592838505 #
point $-1 6.6016889973051605 19.526337438026822 11.940683592838507 #
edge $-1 $542 1 $542 0 $317 $-1 forward 7 unknown #
vertex $-1 $318 $543 #
ellipse-curve $-1 10.76417889875848 23.546870360548457 6.5802428225519352 0 0.57357644374324357 0.81915203911291934 1 0 0 1 I I #
point $-1 11.76417889875848 24.742738822940719 8.2881199506404801 #
edge $-1 $544 1 $544 0 $321 $-1 forward 7 unknown #
vertex $-1 $322 $545 #
ellipse-curve $-1 17.007913750938478 23.546870360548457 6.5802428225519352 0 0.57357644374324357 0.81915203911291934 1 0 0 1 I I #
point $-1 18.007913750938478 24.742738822940719 8.2881199506404801 #
loop $-1 $-1 $333 $325 #
plane-surface $-1 0 -29.959140207854588 0 0 1 0 0 0 1 forward_v I I I I #
coedge $-1 $461 $328 $330 $465 reversed $212 $-1 #
coedge $-1 $328 $460 $546 $547 reversed $212 $-1 #
coedge $-1 $336 $331 $328 $463 forward $326 $-1 #
edge $-1 $466 -32.543615519915051 $548 -22.974657012859481 $462 $549 forward 7 unknown #
coedge $-1 $330 $329 $469 $550 reversed $133 $-1 #
edge $-1 $551 0 $466 12.876303880889989 $460 $552 forward 7 unknown #
vertex $-1 $332 $553 #
straight-curve $-1 3.4254872036611879 -20.390181700799015 11.940683592838505 -1 0 0 I I #
coedge $-1 $546 $333 $336 $473 reversed $458 $-1 #
coedge $-1 $333 $546 $464 $550 forward $458 $-1 #
vertex $-1 $334 $554 #
straight-curve $-1 15.510431421458613 -29.959140207854588 43.814815941470059 0 0 1 I I #
straight-curve $-1 15.510431421458613 -29.959140207854588 3.324754465734955 0 -0.74314481823134659 -0.66913061440640931 I I #
edge $-1 $548 -1.8084826068138611 $337 15.510431421458613 $468 $555 forward 7 unknown #
point $-1 15.510431421458613 -29.959140207854588 11.940683592838505 #
point $-1 15.510431421458613 -20.390181700799015 11.940683592838505 #
edge $-1 $556 1 $556 0 $340 $-1 forward 7 unknown #
vertex $-1 $341 $557 #
ellipse-curve $-1 1.6553001988406351 -22.579862814424921 4.7509038044146266 0 -0.66913061440640931 0.74314481823134659 1 0 0 1 I I #
point $-1 2.6553001988406351 -25.1746609543268 7.632719029286732 #
edge $-1 $558 1 $558 0 $344 $-1 forward 7 unknown #
vertex $-1 $345 $559 #
ellipse-curve $-1 6.8509744073223757 -22.579862814424921 4.7509038044146266 0 -0.66913061440640931 0.74314481823134659 1 0 0 1 I I #
point $-1 7.8509744073223757 -25.1746609543268 7.632719029286732 #
edge $-1 $560 1 $560 0 $348 $-1 forward 7 unknown #
vertex $-1 $349 $561 #
ellipse-curve $-1 12.046648615804123 -22.579862814424921 4.7509038044146266 0 -0.66913061440640931 0.74314481823134659 1 0 0 1 I I #
point $-1 13.046648615804123 -25.1746609543268 7.632719029286732 #
plane-surface $-1 56.721701712088382 0 0 -1 0 0 0 0 1 forward_v I I I I #
coedge $-1 $357 $355 $359 $493 reversed $241 $-1 #
edge $-1 $370 -11.940683592838505 $495 11.940683592838505 $369 $562 forward 7 unknown #
vertex $-1 $493 $563 #
straight-curve $-1 -56.721701712088382 -29.959140207854588 0 0 0 -1 I I #
edge $-1 $491 -29.959140207854588 $495 29.959140207854588 $489 $564 forward 7 unknown #
straight-curve $-1 0 -29.959140207854588 -11.940683592838505 -1 0 0 I I #
vertex $-1 $362 $565 #
straight-curve $-1 0 29.959140207854588 -11.940683592838505 1 0 0 I I #
point $-1 56.721701712088382 29.959140207854588 -11.940683592838505 #
point $-1 56.721701712088382 -29.959140207854588 -11.940683592838505 #
straight-curve $-1 -56.721701712088382 0 11.940683592838505 0 -1 0 I I #
point $-1 -56.721701712088382 29.959140207854588 11.940683592838505 #
point $-1 -56.721701712088382 -29.959140207854588 11.940683592838505 #
straight-curve $-1 56.721701712088382 -29.959140207854588 0 0 0 -1 I I #
straight-curve $-1 56.721701712088382 29.959140207854588 0 0 0 -1 I I #
plane-surface $-1 -56.721701712088382 0 0 1 0 0 0 0 -1 forward_v I I I I #
edge $-1 $391 7.5473854714034214 $395 12.278982013843487 $394 $566 forward 7 unknown #
edge $-1 $399 -12.278982013843487 $390 -7.5473854714034214 $397 $567 forward 7 unknown #
straight-curve $-1 -43.518323717478054 -22.192165756466942 0 0 0 -1 I I #
edge $-1 $511 -11.940683592838505 $509 11.940683592838505 $401 $568 forward 7 unknown #
vertex $-1 $508 $569 #
straight-curve $-1 -25.060006357391607 -17.460569214026876 -11.940683592838505 1 0 0 I I #
vertex $-1 $402 $570 #
straight-curve $-1 -25.060006357391607 -17.460569214026876 11.940683592838505 -1 0 0 I I #
point $-1 -43.518323717478054 -17.460569214026876 11.940683592838505 #
point $-1 -43.518323717478054 -17.460569214026876 -11.940683592838505 #
point $-1 -43.518323717478054 -22.192165756466942 -11.940683592838505 #
point $-1 -43.518323717478054 -22.192165756466942 11.940683592838505 #
straight-curve $-1 -56.721701712088382 0 11.940683592838505 0 -1 0 I I #
straight-curve $-1 -56.721701712088382 0 -11.940683592838505 0 1 0 I I #
edge $-1 $520 54.024649278821137 $523 61.329776563217216 $407 $571 forward 7 unknown #
vertex $-1 $421 $572 #
straight-curve $-1 -28.949609062391403 22.972711263678065 11.940683592838504 0 1 0 I I #
edge $-1 $523 10.832625867424039 $418 25.40134052251069 $417 $573 forward 7 unknown #
vertex $-1 $522 $574 #
straight-curve $-1 -28.949609062391403 -19.123041374813283 39.003270504495333 0 -0.81915203911291934 0.57357644374324357 I I #
point $-1 -28.949609062391403 19.526337438026822 11.940683592838507 #
point $-1 -43.518323717478054 29.959140207854588 4.6355563084424247 #
straight-curve $-1 0 29.959140207854588 11.940683592838505 -1 0 0 I I #
vertex $-1 $424 $575 #
point $-1 -38.355833816024727 23.546870360548457 6.5802428225519352 #
vertex $-1 $428 $576 #
point $-1 -32.11209896384473 23.546870360548457 6.5802428225519352 #
coedge $-1 $443 $442 $435 $533 forward $432 $-1 #
edge $-1 $534 54.024649278821137 $537 61.329776563217216 $532 $577 forward 7 unknown #
vertex $-1 $447 $578 #
straight-curve $-1 21.170403652391812 22.972711263678065 11.940683592838504 0 1 0 I I #
edge $-1 $537 -14.227380489967569 $444 0.34133416511908266 $443 $579 forward 7 unknown #
vertex $-1 $536 $580 #
straight-curve $-1 21.170403652391812 -19.123041374813283 39.003270504495333 0 -0.81915203911291934 0.57357644374324357 I I #
point $-1 21.170403652391812 19.526337438026822 11.940683592838507 #
point $-1 6.6016889973051605 29.959140207854588 4.6355563084424247 #
straight-curve $-1 0 29.959140207854588 11.940683592838505 -1 0 0 I I #
vertex $-1 $450 $581 #
point $-1 11.76417889875848 23.546870360548457 6.5802428225519352 #
vertex $-1 $454 $582 #
point $-1 18.007913750938478 23.546870360548457 6.5802428225519352 #
coedge $-1 $469 $468 $461 $547 forward $458 $-1 #
edge $-1 $548 31.874132348631555 $551 40.490061475735104 $546 $583 forward 7 unknown #
vertex $-1 $473 $584 #
straight-curve $-1 -1.8084826068138611 -52.933797220714069 11.940683592838504 0 -1 0 I I #
edge $-1 $551 -5.2339698104750489 $470 12.084944217797425 $469 $585 forward 7 unknown #
vertex $-1 $550 $586 #
straight-curve $-1 -1.8084826068138611 -29.959140207854588 3.324754465734955 0 0.74314481823134659 0.66913061440640931 I I #
point $-1 -1.8084826068138611 -20.390181700799015 11.940683592838505 #
point $-1 15.510431421458613 -29.959140207854588 3.324754465734955 #
straight-curve $-1 0 -29.959140207854588 11.940683592838505 1 0 0 I I #
vertex $-1 $476 $587 #
point $-1 2.6553001988406351 -22.579862814424921 4.7509038044146266 #
vertex $-1 $480 $588 #
point $-1 7.8509744073223757 -22.579862814424921 4.7509038044146266 #
vertex $-1 $484 $589 #
point $-1 13.046648615804123 -22.579862814424921 4.7509038044146266 #
straight-curve $-1 -56.721701712088382 29.959140207854588 0 0 0 -1 I I #
point $-1 -56.721701712088382 -29.959140207854588 -11.940683592838505 #
straight-curve $-1 -56.721701712088382 0 -11.940683592838505 0 1 0 I I #
point $-1 -56.721701712088382 29.959140207854588 -11.940683592838505 #
straight-curve $-1 -43.518323717478054 -9.9131837426234544 -11.940683592838505 0 -1 0 I I #
straight-curve $-1 -43.518323717478054 -9.9131837426234544 11.940683592838505 0 1 0 I I #
straight-curve $-1 -56.721701712088382 -17.460569214026876 0 0 0 -1 I I #
point $-1 -56.721701712088375 -17.460569214026876 -11.940683592838505 #
point $-1 -56.721701712088375 -17.460569214026876 11.940683592838505 #
straight-curve $-1 -28.949609062391403 29.959140207854588 65.965332871659641 0 0 -1 I I #
point $-1 -28.949609062391403 29.959140207854588 11.940683592838505 #
straight-curve $-1 -18.116983194967364 29.959140207854592 4.6355563084424283 -1 0 0 I I #
point $-1 -28.949609062391403 29.959140207854588 4.6355563084424247 #
point $-1 -39.355833816024727 22.973293916805215 5.7610907834390153 #
point $-1 -33.11209896384473 22.973293916805215 5.7610907834390153 #
straight-curve $-1 21.170403652391812 29.959140207854588 65.965332871659641 0 0 -1 I I #
point $-1 21.170403652391812 29.959140207854588 11.940683592838505 #
straight-curve $-1 6.9430231624242431 29.959140207854592 4.6355563084424283 -1 0 0 I I #
point $-1 21.170403652391812 29.959140207854588 4.6355563084424247 #
point $-1 10.76417889875848 22.973293916805215 5.7610907834390153 #
point $-1 17.007913750938478 22.973293916805215 5.7610907834390153 #
straight-curve $-1 -1.8084826068138611 -29.959140207854588 43.814815941470059 0 0 -1 I I #
point $-1 -1.8084826068138611 -29.959140207854588 11.940683592838505 #
straight-curve $-1 3.4254872036611879 -29.959140207854588 3.3247544657349555 1 0 0 I I #
point $-1 -1.8084826068138611 -29.959140207854588 3.324754465734955 #
point $-1 1.6553001988406351 -21.910732200018515 4.0077589861832799 #
point $-1 6.8509744073223757 -21.910732200018515 4.0077589861832799 #
point $-1 12.046648615804123 -21.910732200018515 4.0077589861832799 #
End-of-ACIS-data 