500 0 8 0           
7 Unknown 11 ACIS 5.0 NT 24 Fri Mar 26 02:11:48 1999 
-1 9.9999999999999995e-007 1e-010 
body $-1 $8 $-1 $9 #
body $-1 $10 $-1 $11 #
body $-1 $12 $-1 $13 #
body $-1 $14 $-1 $15 #
body $-1 $16 $-1 $17 #
body $-1 $18 $-1 $19 #
body $-1 $20 $-1 $21 #
body $-1 $22 $-1 $23 #
lump $-1 $-1 $24 $0 #
transform $-1 1 0 0 0 1 0 0 0 1 71.829584643086037 42.478473535518305 13.946712057552205 1 rotate no_reflect no_shear #
lump $-1 $-1 $25 $1 #
transform $-1 1 0 0 0 1 0 0 0 1 71.829584643086037 42.478473535518305 13.946712057552205 1 rotate no_reflect no_shear #
lump $-1 $-1 $26 $2 #
transform $-1 1 0 0 0 1 0 0 0 1 71.829584643086037 42.478473535518305 13.946712057552205 1 rotate no_reflect no_shear #
lump $-1 $-1 $27 $3 #
transform $-1 1 0 0 0 1 0 0 0 1 71.829584643086037 42.478473535518305 13.946712057552205 1 rotate no_reflect no_shear #
lump $-1 $-1 $28 $4 #
transform $-1 1 0 0 0 1 0 0 0 1 71.829584643086037 42.478473535518305 13.946712057552205 1 rotate no_reflect no_shear #
lump $-1 $-1 $29 $5 #
transform $-1 1 0 0 0 1 0 0 0 1 71.829584643086037 42.478473535518305 13.946712057552205 1 rotate no_reflect no_shear #
lump $-1 $-1 $30 $6 #
transform $-1 1 0 0 0 1 0 0 0 1 71.829584643086037 42.478473535518305 13.946712057552205 1 rotate no_reflect no_shear #
lump $-1 $-1 $31 $7 #
transform $-1 1 0 0 0 1 0 0 0 1 71.829584643086037 42.478473535518305 13.946712057552205 1 rotate no_reflect no_shear #
shell $-1 $-1 $-1 $32 $-1 $8 #
shell $-1 $-1 $-1 $33 $-1 $10 #
shell $-1 $-1 $-1 $34 $-1 $12 #
shell $-1 $-1 $-1 $35 $-1 $14 #
shell $-1 $-1 $-1 $36 $-1 $16 #
shell $-1 $-1 $-1 $37 $-1 $18 #
shell $-1 $-1 $-1 $38 $-1 $20 #
shell $-1 $-1 $-1 $39 $-1 $22 #
face $-1 $40 $41 $24 $-1 $42 forward single #
face $-1 $43 $44 $25 $-1 $45 forward single #
face $-1 $46 $47 $26 $-1 $48 reversed single #
face $-1 $49 $50 $27 $-1 $51 forward single #
face $-1 $52 $53 $28 $-1 $54 reversed single #
face $-1 $55 $56 $29 $-1 $57 forward single #
face $-1 $58 $59 $30 $-1 $60 reversed single #
face $-1 $61 $62 $31 $-1 $63 forward single #
face $-1 $64 $65 $24 $-1 $66 reversed single #
loop $-1 $-1 $67 $32 #
plane-surface $-1 0 0 13.946712057552205 0 0 1 1 0 0 forward_v I I I I #
face $-1 $68 $69 $25 $-1 $70 reversed single #
loop $-1 $-1 $71 $33 #
plane-surface $-1 0 -36.789609389299756 -0.49694183563474015 0 0 1 1 0 0 forward_v I I I I #
face $-1 $72 $73 $26 $-1 $74 reversed single #
loop $-1 $-1 $75 $34 #
plane-surface $-1 -175.16934397781347 -12.332396951403215 105.58961683119571 0 1 0 -0.71933980857756763 0 0.69465836192734942 forward_v I I I I #
face $-1 $76 $77 $27 $-1 $78 forward single #
loop $-1 $79 $80 $35 #
cone-surface $-1 -65.801676936183668 -3.3217664025923312 7.8507516659536893 0.71933980857756763 0 -0.69465836192734942 1.0419875428910241 0 1.0790097128663514 1 I I 0 1 1.5 forward I I I I #
face $-1 $81 $82 $28 $-1 $83 reversed single #
loop $-1 $-1 $84 $36 #
plane-surface $-1 -71.829584643086065 -3.3217664025923312 5.7955736190196347 -0.71933980857756763 0 0.69465836192734942 0.69465836192734942 0 0.71933980857756763 forward_v I I I I #
face $-1 $85 $86 $29 $-1 $87 forward single #
loop $-1 $88 $89 $37 #
cone-surface $-1 -65.801676936183668 14.699494695029436 7.8507516659536893 0.71933980857756763 0 -0.69465836192734942 1.0419875428910241 0 1.0790097128663514 1 I I 0 1 1.5 forward I I I I #
face $-1 $90 $91 $30 $-1 $92 reversed single #
loop $-1 $-1 $93 $38 #
plane-surface $-1 82.462408387951854 -22.781288238996808 203.75859113268029 0 -1 0 -0.74314483375859142 0 -0.66913059716165679 forward_v I I I I #
face $-1 $94 $95 $31 $-1 $96 forward single #
loop $-1 $97 $98 $39 #
cone-surface $-1 65.329395066505185 -26.941016741039007 6.8565989766499706 -0.74314483375859142 0 -0.66913059716165679 1.0036958957424851 0 -1.1147172506378871 1 I I 0 1 1.5 forward I I I I #
face $-1 $99 $100 $24 $-1 $101 reversed single #
loop $-1 $-1 $102 $40 #
plane-surface $-1 0 0 -13.946712057552205 0 0 1 1 0 0 forward_v I I I I #
coedge $-1 $103 $104 $105 $106 forward $41 $-1 #
face $-1 $107 $108 $25 $-1 $109 reversed single #
loop $-1 $-1 $110 $43 #
plane-surface $-1 0 -36.789609389299756 -6.9974623156961364 0 0 1 1 0 0 forward_v I I I I #
coedge $-1 $111 $112 $113 $114 reversed $44 $-1 #
face $-1 $115 $116 $26 $-1 $117 reversed single #
loop $-1 $-1 $118 $46 #
plane-surface $-1 -71.829584643086065 -3.3217664025923312 5.7955736190196347 -0.71933980857756763 0 0.69465836192734942 0.69465836192734942 0 0.71933980857756763 forward_v I I I I #
coedge $-1 $119 $120 $121 $122 reversed $47 $-1 #
face $-1 $-1 $123 $27 $-1 $124 forward single #
loop $-1 $125 $126 $49 #
cone-surface $-1 -63.169995725427327 -3.3217664025923312 5.3093667221759588 0.71933980857756763 0 -0.69465836192734942 0.52099377144551207 0 0.53950485643317569 1 I I -0.70710678118654757 0.70710678118654757 0.75 forward I I I I #
loop $-1 $-1 $127 $35 #
coedge $-1 $80 $80 $128 $129 reversed $50 $-1 #
face $-1 $130 $131 $28 $-1 $132 forward single #
loop $-1 $-1 $133 $52 #
plane-surface $-1 -175.16934397781347 23.71012524384032 105.58961683119571 0 -1 0 0.71933980857756763 0 -0.69465836192734942 forward_v I I I I #
coedge $-1 $134 $135 $136 $137 reversed $53 $-1 #
face $-1 $-1 $138 $29 $-1 $139 forward single #
loop $-1 $140 $141 $55 #
cone-surface $-1 -63.169995725427327 14.699494695029436 5.3093667221759588 0.71933980857756763 0 -0.69465836192734942 0.52099377144551207 0 0.53950485643317569 1 I I -0.70710678118654757 0.70710678118654757 0.75 forward I I I I #
loop $-1 $-1 $142 $37 #
coedge $-1 $89 $89 $143 $144 reversed $56 $-1 #
face $-1 $145 $146 $30 $-1 $147 reversed single #
loop $-1 $-1 $148 $58 #
plane-surface $-1 -24.297161089117836 -26.941016741039007 107.63184540047644 0.74314483375859142 0 0.66913059716165679 0.66913059716165679 0 -0.74314483375859142 forward_v I I I I #
coedge $-1 $149 $150 $151 $152 reversed $59 $-1 #
face $-1 $-1 $153 $31 $-1 $154 forward single #
loop $-1 $155 $156 $61 #
cone-surface $-1 64.157984304157708 -26.941016741039007 5.8018560149492089 -0.74314483375859142 0 -0.66913059716165679 0.50184794787124254 0 -0.55735862531894353 1 I I -0.70710678118654757 0.70710678118654757 0.75 forward I I I I #
loop $-1 $-1 $157 $39 #
coedge $-1 $98 $98 $158 $159 reversed $62 $-1 #
face $-1 $160 $161 $24 $-1 $162 reversed single #
loop $-1 $-1 $163 $64 #
plane-surface $-1 0 -42.478473535518305 0 0 1 0 0 0 1 forward_v I I I I #
coedge $-1 $164 $165 $166 $167 forward $65 $-1 #
coedge $-1 $168 $67 $169 $170 forward $41 $-1 #
coedge $-1 $67 $168 $171 $172 forward $41 $-1 #
coedge $-1 $173 $174 $67 $106 reversed $175 $-1 #
edge $-1 $176 -42.478473535518305 $177 42.478473535518305 $105 $178 forward 7 unknown #
face $-1 $179 $180 $25 $-1 $181 reversed single #
loop $-1 $-1 $182 $68 #
plane-surface $-1 0 -31.100745243081207 -3.7472020756654381 0 -1 0 0 0 -1 forward_v I I I I #
coedge $-1 $183 $184 $185 $186 reversed $69 $-1 #
coedge $-1 $187 $71 $188 $189 forward $44 $-1 #
coedge $-1 $71 $187 $190 $191 reversed $44 $-1 #
coedge $-1 $192 $193 $71 $114 forward $194 $-1 #
edge $-1 $195 12.705940548431329 $196 24.083668840868427 $113 $197 forward 7 unknown #
face $-1 $198 $199 $26 $-1 $200 reversed single #
loop $-1 $-1 $201 $72 #
plane-surface $-1 -175.16934397781347 5.6888641462185525 105.58961683119571 0 -1 0 0.71933980857756763 0 -0.69465836192734942 forward_v I I I I #
coedge $-1 $202 $203 $204 $205 reversed $73 $-1 #
coedge $-1 $120 $75 $206 $207 reversed $47 $-1 #
coedge $-1 $75 $119 $202 $208 reversed $47 $-1 #
coedge $-1 $204 $209 $75 $122 forward $210 $-1 #
edge $-1 $211 15.755087345820698 $212 23.626550050979041 $121 $213 forward 7 unknown #
loop $-1 $-1 $128 $76 #
plane-surface $-1 -71.829584643086065 -3.3217664025923312 5.7955736190196347 -0.71933980857756763 0 0.69465836192734942 0.69465836192734942 0 0.71933980857756763 forward_v I I I I #
loop $-1 $-1 $214 $49 #
coedge $-1 $126 $126 $127 $215 reversed $77 $-1 #
coedge $-1 $127 $127 $126 $215 forward $79 $-1 #
coedge $-1 $128 $128 $80 $129 forward $123 $-1 #
edge $-1 $216 0 $216 6.2831853071796004 $128 $217 forward 7 unknown #
face $-1 $218 $219 $28 $-1 $220 forward single #
loop $-1 $-1 $221 $81 #
plane-surface $-1 0 0 13.946712057552205 0 0 1 1 0 0 forward_v I I I I #
coedge $-1 $222 $223 $224 $225 reversed $82 $-1 #
coedge $-1 $226 $84 $227 $228 reversed $53 $-1 #
coedge $-1 $84 $226 $221 $229 reversed $53 $-1 #
coedge $-1 $230 $231 $84 $137 forward $219 $-1 #
edge $-1 $232 4.082714723162343e-014 $233 11.33141575280081 $136 $234 forward 7 unknown #
loop $-1 $-1 $143 $85 #
plane-surface $-1 -71.829584643086065 -3.3217664025923312 5.7955736190196347 -0.71933980857756763 0 0.69465836192734942 0.69465836192734942 0 0.71933980857756763 forward_v I I I I #
loop $-1 $-1 $235 $55 #
coedge $-1 $141 $141 $142 $236 reversed $86 $-1 #
coedge $-1 $142 $142 $141 $236 forward $88 $-1 #
coedge $-1 $143 $143 $89 $144 forward $138 $-1 #
edge $-1 $237 0 $237 6.2831853071796004 $143 $238 forward 7 unknown #
face $-1 $239 $240 $30 $-1 $241 forward single #
loop $-1 $-1 $242 $90 #
plane-surface $-1 82.462408387951854 -31.100745243081207 203.75859113268029 0 1 0 0.74314483375859142 0 0.66913059716165679 forward_v I I I I #
coedge $-1 $243 $244 $245 $246 reversed $91 $-1 #
coedge $-1 $150 $93 $247 $248 reversed $59 $-1 #
coedge $-1 $93 $149 $243 $249 reversed $59 $-1 #
coedge $-1 $245 $250 $93 $152 forward $240 $-1 #
edge $-1 $251 -30.59838044911011 $252 -18.82610557000541 $151 $253 forward 7 unknown #
loop $-1 $-1 $158 $94 #
plane-surface $-1 -24.297161089117836 -26.941016741039007 107.63184540047644 0.74314483375859142 0 0.66913059716165679 0.66913059716165679 0 -0.74314483375859142 forward_v I I I I #
loop $-1 $-1 $254 $61 #
coedge $-1 $156 $156 $157 $255 reversed $95 $-1 #
coedge $-1 $157 $157 $156 $255 forward $97 $-1 #
coedge $-1 $158 $158 $98 $159 forward $153 $-1 #
edge $-1 $256 0 $256 6.2831853071796004 $158 $257 forward 7 unknown #
face $-1 $258 $259 $24 $-1 $260 reversed single #
loop $-1 $-1 $261 $99 #
plane-surface $-1 -71.829584643086037 0 0 1 0 0 0 0 -1 forward_v I I I I #
coedge $-1 $262 $171 $263 $264 forward $100 $-1 #
coedge $-1 $265 $102 $262 $266 forward $65 $-1 #
coedge $-1 $102 $265 $267 $268 forward $65 $-1 #
coedge $-1 $174 $173 $102 $167 reversed $175 $-1 #
edge $-1 $269 -42.478473535518305 $270 42.478473535518305 $166 $271 forward 7 unknown #
coedge $-1 $104 $103 $272 $273 forward $41 $-1 #
coedge $-1 $274 $275 $103 $170 reversed $259 $-1 #
edge $-1 $177 -71.829584643086037 $276 71.829584643086037 $169 $277 forward 7 unknown #
coedge $-1 $163 $278 $104 $172 reversed $100 $-1 #
edge $-1 $279 -71.829584643086037 $176 71.829584643086037 $171 $280 forward 7 unknown #
coedge $-1 $166 $105 $278 $281 forward $175 $-1 #
coedge $-1 $105 $166 $274 $282 reversed $175 $-1 #
loop $-1 $-1 $173 $258 #
vertex $-1 $106 $283 #
vertex $-1 $106 $284 #
straight-curve $-1 71.829584643086037 0 13.946712057552205 0 1 0 I I #
face $-1 $285 $286 $25 $-1 $287 reversed single #
loop $-1 $-1 $288 $107 #
plane-surface $-1 -71.829584643086037 0 0 1 0 0 0 0 -1 forward_v I I I I #
coedge $-1 $289 $188 $193 $290 reversed $108 $-1 #
coedge $-1 $291 $110 $292 $293 reversed $69 $-1 #
coedge $-1 $110 $291 $289 $294 forward $69 $-1 #
coedge $-1 $193 $192 $110 $186 forward $194 $-1 #
edge $-1 $295 -24.083668840868427 $296 -12.705940548431329 $185 $297 forward 7 unknown #
coedge $-1 $112 $111 $288 $298 reversed $44 $-1 #
coedge $-1 $182 $299 $111 $189 reversed $108 $-1 #
edge $-1 $195 -71.829584643086037 $300 71.829584643086037 $188 $301 forward 7 unknown #
coedge $-1 $302 $303 $112 $191 forward $286 $-1 #
edge $-1 $196 -71.829584643086037 $304 71.829584643086037 $190 $305 forward 7 unknown #
coedge $-1 $185 $113 $303 $306 forward $194 $-1 #
coedge $-1 $113 $185 $182 $290 forward $194 $-1 #
loop $-1 $-1 $113 $285 #
vertex $-1 $114 $307 #
vertex $-1 $306 $308 #
straight-curve $-1 71.829584643086037 -18.394804694649878 -0.49694183563474015 0 -1 0 I I #
face $-1 $-1 $210 $26 $-1 $309 forward single #
loop $-1 $-1 $310 $115 #
plane-surface $-1 -71.829584643086037 0 0 1 0 0 0 0 -1 forward_v I I I I #
coedge $-1 $311 $312 $313 $314 reversed $116 $-1 #
coedge $-1 $315 $118 $120 $208 forward $73 $-1 #
coedge $-1 $118 $315 $311 $316 forward $73 $-1 #
coedge $-1 $313 $121 $118 $205 forward $210 $-1 #
edge $-1 $212 -10.671513750107049 $317 7.3497473475147181 $204 $318 forward 7 unknown #
coedge $-1 $319 $320 $119 $207 forward $199 $-1 #
edge $-1 $321 -46.999234796578193 $211 -38.848096358045652 $206 $322 forward 7 unknown #
edge $-1 $212 -11.33141575280081 $321 -4.082714723162343e-014 $120 $323 forward 7 unknown #
coedge $-1 $121 $313 $319 $324 forward $210 $-1 #
loop $-1 $-1 $313 $198 #
vertex $-1 $207 $325 #
vertex $-1 $122 $326 #
straight-curve $-1 -87.584671988906734 -12.332396951403215 13.946712057552205 1 0 0 I I #
coedge $-1 $214 $214 $-1 $327 reversed $125 $-1 #
edge $-1 $328 0 $328 6.2831853071796004 $126 $329 forward 7 unknown #
vertex $-1 $129 $330 #
ellipse-curve $-1 -67.893853290506868 -3.3217664025923312 9.8711428382859339 -0.71933980857756763 0 0.69465836192734942 1.0419875428910241 0 1.0790097128663514 1 I I #
face $-1 $-1 $331 $28 $-1 $332 reversed single #
loop $-1 $-1 $230 $130 #
plane-surface $-1 -175.16934397781347 5.6888641462185525 105.58961683119571 0 -1 0 0.71933980857756763 0 -0.69465836192734942 forward_v I I I I #
coedge $-1 $224 $333 $135 $229 forward $131 $-1 #
coedge $-1 $223 $133 $226 $334 reversed $82 $-1 #
coedge $-1 $133 $222 $335 $336 reversed $82 $-1 #
coedge $-1 $337 $221 $133 $225 forward $131 $-1 #
edge $-1 $338 -23.626550050979041 $339 -15.755087345820698 $224 $340 forward 7 unknown #
coedge $-1 $135 $134 $222 $334 forward $53 $-1 #
coedge $-1 $341 $335 $134 $228 forward $331 $-1 #
edge $-1 $342 -25.371008445136486 $232 -7.3497473475147181 $227 $343 forward 7 unknown #
edge $-1 $233 7.3497473475147181 $338 25.371008445136486 $221 $344 forward 7 unknown #
coedge $-1 $231 $136 $333 $345 reversed $219 $-1 #
coedge $-1 $136 $230 $341 $346 reversed $219 $-1 #
vertex $-1 $228 $347 #
vertex $-1 $229 $348 #
straight-curve $-1 -71.829584643086065 5.6888641462185525 5.7955736190196347 0.69465836192734942 0 0.71933980857756763 I I #
coedge $-1 $235 $235 $-1 $349 reversed $140 $-1 #
edge $-1 $350 0 $350 6.2831853071796004 $141 $351 forward 7 unknown #
vertex $-1 $144 $352 #
ellipse-curve $-1 -67.893853290506868 14.699494695029436 9.8711428382859339 -0.71933980857756763 0 0.69465836192734942 1.0419875428910241 0 1.0790097128663514 1 I I #
face $-1 $-1 $353 $30 $-1 $354 reversed single #
loop $-1 $-1 $151 $145 #
plane-surface $-1 0 0 13.946712057552205 0 0 1 1 0 0 forward_v I I I I #
coedge $-1 $355 $356 $357 $358 reversed $146 $-1 #
coedge $-1 $359 $148 $150 $249 forward $91 $-1 #
coedge $-1 $148 $359 $355 $360 forward $91 $-1 #
coedge $-1 $357 $151 $148 $246 forward $240 $-1 #
edge $-1 $252 9.3107798684773044 $361 17.630236872561703 $245 $362 forward 7 unknown #
coedge $-1 $363 $364 $149 $248 forward $353 $-1 #
edge $-1 $365 -101.0070196429334 $251 -87.932583508787943 $247 $366 forward 7 unknown #
edge $-1 $252 126.06578029896872 $365 143.65916928617207 $150 $367 forward 7 unknown #
coedge $-1 $151 $357 $363 $368 forward $240 $-1 #
vertex $-1 $248 $369 #
vertex $-1 $152 $370 #
straight-curve $-1 41.231204193975927 -22.781288238996808 13.946712057552205 -1 0 0 I I #
coedge $-1 $254 $254 $-1 $371 reversed $155 $-1 #
edge $-1 $372 0 $372 6.2831853071796004 $156 $373 forward 7 unknown #
vertex $-1 $159 $374 #
ellipse-curve $-1 65.943447203533694 -26.941016741039007 7.409493990479465 0.74314483375859142 0 0.66913059716165679 1.0036958957424851 0 -1.1147172506378871 1 I I #
face $-1 $-1 $175 $24 $-1 $375 reversed single #
loop $-1 $-1 $274 $160 #
plane-surface $-1 0 42.478473535518305 0 0 -1 0 0 0 -1 forward_v I I I I #
coedge $-1 $376 $272 $275 $377 forward $161 $-1 #
coedge $-1 $278 $163 $164 $266 reversed $100 $-1 #
coedge $-1 $272 $376 $163 $264 reversed $161 $-1 #
edge $-1 $279 -13.946712057552205 $378 13.946712057552205 $263 $379 forward 7 unknown #
coedge $-1 $165 $164 $376 $380 forward $65 $-1 #
edge $-1 $270 -71.829584643086037 $378 71.829584643086037 $262 $381 forward 7 unknown #
coedge $-1 $275 $274 $165 $268 reversed $259 $-1 #
edge $-1 $382 -71.829584643086037 $269 71.829584643086037 $267 $383 forward 7 unknown #
vertex $-1 $167 $384 #
vertex $-1 $281 $385 #
straight-curve $-1 71.829584643086037 0 -13.946712057552205 0 -1 0 I I #
coedge $-1 $261 $263 $168 $273 reversed $161 $-1 #
edge $-1 $276 -42.478473535518305 $279 42.478473535518305 $272 $386 forward 7 unknown #
coedge $-1 $267 $169 $174 $282 forward $259 $-1 #
coedge $-1 $169 $267 $261 $377 reversed $259 $-1 #
vertex $-1 $170 $387 #
straight-curve $-1 0 42.478473535518305 13.946712057552205 -1 0 0 I I #
coedge $-1 $171 $262 $173 $281 reversed $100 $-1 #
vertex $-1 $273 $388 #
straight-curve $-1 0 -42.478473535518305 13.946712057552205 1 0 0 I I #
edge $-1 $176 -13.946712057552205 $270 13.946712057552205 $173 $389 forward 7 unknown #
edge $-1 $177 -13.946712057552205 $269 13.946712057552205 $174 $390 forward 7 unknown #
point $-1 71.829584643086037 -42.478473535518305 13.946712057552205 #
point $-1 71.829584643086037 42.478473535518305 13.946712057552205 #
face $-1 $-1 $194 $25 $-1 $391 reversed single #
loop $-1 $-1 $190 $179 #
plane-surface $-1 0 -42.478473535518305 0 0 1 0 0 0 1 forward_v I I I I #
coedge $-1 $392 $393 $187 $298 forward $180 $-1 #
coedge $-1 $299 $182 $184 $294 reversed $108 $-1 #
edge $-1 $296 -5.1238612778634174 $195 1.3766592021979789 $193 $394 forward 7 unknown #
coedge $-1 $184 $183 $395 $396 reversed $69 $-1 #
coedge $-1 $303 $302 $183 $293 forward $286 $-1 #
edge $-1 $397 -71.829584643086037 $295 71.829584643086037 $292 $398 forward 7 unknown #
edge $-1 $399 -71.829584643086037 $296 71.829584643086037 $289 $400 forward 7 unknown #
vertex $-1 $293 $401 #
vertex $-1 $186 $402 #
straight-curve $-1 71.829584643086037 -18.394804694649878 -6.9974623156961364 0 1 0 I I #
edge $-1 $304 -24.083668840868427 $300 -12.705940548431329 $288 $403 forward 7 unknown #
coedge $-1 $188 $289 $392 $404 reversed $108 $-1 #
vertex $-1 $298 $405 #
straight-curve $-1 0 -31.100745243081207 -0.49694183563474015 -1 0 0 I I #
coedge $-1 $292 $190 $393 $406 forward $286 $-1 #
coedge $-1 $190 $292 $192 $306 reversed $286 $-1 #
vertex $-1 $406 $407 #
straight-curve $-1 0 -42.478473535518305 -0.49694183563474015 -1 0 0 I I #
edge $-1 $196 0.49694183563474015 $295 6.9974623156961364 $192 $408 forward 7 unknown #
point $-1 71.829584643086037 -31.100745243081207 -0.49694183563474015 #
point $-1 71.829584643086037 -42.478473535518305 -0.49694183563474015 #
plane-surface $-1 0 0 13.946712057552205 0 0 1 1 0 0 forward_v I I I I #
coedge $-1 $320 $319 $312 $409 forward $199 $-1 #
coedge $-1 $312 $201 $203 $316 reversed $116 $-1 #
coedge $-1 $201 $311 $310 $409 reversed $116 $-1 #
coedge $-1 $209 $204 $201 $314 forward $210 $-1 #
edge $-1 $317 -23.626550050979041 $410 -15.755087345820698 $313 $411 forward 7 unknown #
coedge $-1 $203 $202 $320 $412 reversed $73 $-1 #
edge $-1 $413 4.082714723162343e-014 $317 11.33141575280081 $311 $414 forward 7 unknown #
vertex $-1 $205 $415 #
straight-curve $-1 -63.958121937927693 -1.6608832012961656 13.946712057552205 0 1 0 I I #
coedge $-1 $310 $206 $209 $324 reversed $199 $-1 #
coedge $-1 $206 $310 $315 $412 forward $199 $-1 #
vertex $-1 $207 $416 #
straight-curve $-1 -71.829584643086037 -12.332396951403215 52.794808415597856 0 0 1 I I #
straight-curve $-1 -71.829584643086065 -12.332396951403215 5.7955736190196347 -0.69465836192734942 0 -0.71933980857756763 I I #
edge $-1 $410 -5.6888641462185525 $211 12.332396951403215 $319 $417 forward 7 unknown #
point $-1 -71.829584643086037 -12.332396951403215 13.946712057552205 #
point $-1 -63.958121937927693 -12.332396951403215 13.946712057552205 #
edge $-1 $418 1 $418 0 $214 $-1 forward 7 unknown #
vertex $-1 $215 $419 #
ellipse-curve $-1 -63.709500581860503 -3.3217664025923312 5.8303604936214706 -0.71933980857756763 0 0.69465836192734942 1.0419875428910241 0 1.0790097128663514 1 I I #
point $-1 -66.851865747615818 -3.3217664025923312 10.950152551152257 #
loop $-1 $-1 $227 $218 #
plane-surface $-1 -71.829584643086037 0 0 1 0 0 0 0 -1 forward_v I I I I #
coedge $-1 $221 $337 $230 $345 forward $131 $-1 #
edge $-1 $342 4.082714723162343e-014 $338 11.33141575280081 $222 $420 forward 7 unknown #
coedge $-1 $227 $421 $223 $336 forward $331 $-1 #
edge $-1 $339 38.848096358045652 $342 46.999234796578193 $335 $422 forward 7 unknown #
coedge $-1 $333 $224 $421 $423 forward $131 $-1 #
vertex $-1 $225 $424 #
vertex $-1 $423 $425 #
straight-curve $-1 -87.584671988906734 23.71012524384032 13.946712057552205 -1 0 0 I I #
coedge $-1 $421 $227 $231 $346 forward $331 $-1 #
vertex $-1 $336 $426 #
straight-curve $-1 -71.829584643086037 -1.6608832012961656 5.7955736190196649 0 -1 0 I I #
straight-curve $-1 -63.958121937927693 -1.6608832012961656 13.946712057552205 0 1 0 I I #
edge $-1 $427 15.755087345820698 $233 23.626550050979041 $333 $428 forward 7 unknown #
edge $-1 $232 -46.999234796578193 $427 -38.848096358045652 $341 $429 forward 7 unknown #
point $-1 -71.829584643086037 5.6888641462185525 5.7955736190196641 #
point $-1 -63.958121937927693 5.6888641462185525 13.946712057552205 #
edge $-1 $430 1 $430 0 $235 $-1 forward 7 unknown #
vertex $-1 $236 $431 #
ellipse-curve $-1 -63.709500581860503 14.699494695029436 5.8303604936214706 -0.71933980857756763 0 0.69465836192734942 1.0419875428910241 0 1.0790097128663514 1 I I #
point $-1 -66.851865747615818 14.699494695029436 10.950152551152257 #
loop $-1 $-1 $247 $239 #
plane-surface $-1 71.829584643086037 0 0 -1 0 0 0 0 1 forward_v I I I I #
coedge $-1 $356 $242 $244 $360 reversed $146 $-1 #
coedge $-1 $242 $355 $432 $433 reversed $146 $-1 #
coedge $-1 $250 $245 $242 $358 forward $240 $-1 #
edge $-1 $361 18.82610557000541 $434 30.59838044911011 $357 $435 forward 7 unknown #
coedge $-1 $244 $243 $364 $436 reversed $91 $-1 #
edge $-1 $437 -143.65916928617207 $361 -126.06578029896872 $355 $438 forward 7 unknown #
vertex $-1 $246 $439 #
straight-curve $-1 60.057309763981337 -13.470508370519504 13.946712057552212 0 -1 0 I I #
coedge $-1 $432 $247 $250 $368 reversed $353 $-1 #
coedge $-1 $247 $432 $359 $436 forward $353 $-1 #
vertex $-1 $248 $440 #
straight-curve $-1 71.829584643086037 -22.781288238996808 101.87929556634015 0 0 1 I I #
straight-curve $-1 -24.297161089117836 -22.781288238996808 107.63184540047644 0.66913059716165679 0 -0.74314483375859142 I I #
edge $-1 $434 -31.100745243081207 $251 -22.781288238996808 $363 $441 forward 7 unknown #
point $-1 71.829584643086037 -22.781288238996808 13.946712057552205 #
point $-1 60.057309763981337 -22.781288238996808 13.946712057552205 #
edge $-1 $442 1 $442 0 $254 $-1 forward 7 unknown #
vertex $-1 $255 $443 #
ellipse-curve $-1 64.715342929476648 -26.941016741039007 6.3037039628204514 0.74314483375859142 0 0.66913059716165679 1.0036958957424851 0 -1.1147172506378871 1 I I #
point $-1 66.947143099276204 -26.941016741039007 6.2947767398416019 #
plane-surface $-1 71.829584643086037 0 0 -1 0 0 0 0 1 forward_v I I I I #
coedge $-1 $263 $261 $265 $380 reversed $161 $-1 #
edge $-1 $276 -13.946712057552205 $382 13.946712057552205 $275 $444 forward 7 unknown #
vertex $-1 $380 $445 #
straight-curve $-1 -71.829584643086037 -42.478473535518305 0 0 0 -1 I I #
edge $-1 $378 -42.478473535518305 $382 42.478473535518305 $376 $446 forward 7 unknown #
straight-curve $-1 0 -42.478473535518305 -13.946712057552205 -1 0 0 I I #
vertex $-1 $268 $447 #
straight-curve $-1 0 42.478473535518305 -13.946712057552205 1 0 0 I I #
point $-1 71.829584643086037 42.478473535518305 -13.946712057552205 #
point $-1 71.829584643086037 -42.478473535518305 -13.946712057552205 #
straight-curve $-1 -71.829584643086037 0 13.946712057552205 0 -1 0 I I #
point $-1 -71.829584643086037 42.478473535518305 13.946712057552205 #
point $-1 -71.829584643086037 -42.478473535518305 13.946712057552205 #
straight-curve $-1 71.829584643086037 -42.478473535518305 0 0 0 -1 I I #
straight-curve $-1 71.829584643086037 42.478473535518305 0 0 0 -1 I I #
plane-surface $-1 71.829584643086037 0 0 -1 0 0 0 0 1 forward_v I I I I #
coedge $-1 $395 $288 $299 $404 forward $180 $-1 #
coedge $-1 $288 $395 $302 $406 reversed $180 $-1 #
straight-curve $-1 71.829584643086037 -31.100745243081207 -1.873601037832719 0 0 1 I I #
coedge $-1 $393 $392 $291 $396 forward $180 $-1 #
edge $-1 $399 12.705940548431329 $397 24.083668840868427 $395 $448 forward 7 unknown #
vertex $-1 $293 $449 #
straight-curve $-1 0 -42.478473535518305 -6.9974623156961364 1 0 0 I I #
vertex $-1 $396 $450 #
straight-curve $-1 0 -31.100745243081207 -6.9974623156961364 1 0 0 I I #
point $-1 71.829584643086037 -42.478473535518305 -6.9974623156961364 #
point $-1 71.829584643086037 -31.100745243081207 -6.9974623156961364 #
straight-curve $-1 -71.829584643086037 -18.394804694649878 -0.49694183563474015 0 1 0 I I #
edge $-1 $300 -1.3766592021979789 $399 5.1238612778634174 $392 $451 forward 7 unknown #
point $-1 -71.829584643086037 -31.100745243081207 -0.49694183563474015 #
edge $-1 $304 0.49694183563474015 $397 6.9974623156961364 $393 $452 forward 7 unknown #
point $-1 -71.829584643086037 -42.478473535518305 -0.49694183563474015 #
straight-curve $-1 71.829584643086037 -42.478473535518305 0 0 0 -1 I I #
edge $-1 $410 38.848096358045652 $413 46.999234796578193 $310 $453 forward 7 unknown #
vertex $-1 $324 $454 #
straight-curve $-1 -87.584671988906734 5.6888641462185525 13.946712057552205 -1 0 0 I I #
edge $-1 $413 -7.3497473475147181 $321 10.671513750107049 $320 $455 forward 7 unknown #
vertex $-1 $412 $456 #
straight-curve $-1 -71.829584643086065 5.6888641462185525 5.7955736190196347 0.69465836192734942 0 0.71933980857756763 I I #
point $-1 -63.958121937927693 5.6888641462185525 13.946712057552205 #
point $-1 -71.829584643086037 -12.332396951403215 5.7955736190196641 #
straight-curve $-1 -71.829584643086037 0 13.946712057552205 0 -1 0 I I #
vertex $-1 $327 $457 #
point $-1 -62.667513038969481 -3.3217664025923312 6.9093702064878224 #
straight-curve $-1 -71.829584643086065 23.71012524384032 5.7955736190196347 0.69465836192734942 0 0.71933980857756763 I I #
coedge $-1 $335 $341 $337 $423 reversed $331 $-1 #
straight-curve $-1 -71.829584643086037 23.71012524384032 52.794808415597856 0 0 -1 I I #
edge $-1 $339 -23.71012524384032 $427 -5.6888641462185525 $421 $458 forward 7 unknown #
point $-1 -63.958121937927693 23.71012524384032 13.946712057552205 #
point $-1 -71.829584643086037 23.71012524384032 13.946712057552205 #
point $-1 -71.829584643086037 23.71012524384032 5.7955736190196641 #
vertex $-1 $346 $459 #
straight-curve $-1 -87.584671988906734 5.6888641462185525 13.946712057552205 1 0 0 I I #
straight-curve $-1 -71.829584643086037 5.6888641462185525 52.794808415597856 0 0 1 I I #
vertex $-1 $349 $460 #
point $-1 -62.667513038969481 14.699494695029436 6.9093702064878224 #
coedge $-1 $364 $363 $356 $433 forward $353 $-1 #
edge $-1 $434 87.932583508787943 $437 101.0070196429334 $432 $461 forward 7 unknown #
vertex $-1 $368 $462 #
straight-curve $-1 41.231204193975927 -31.100745243081207 13.946712057552205 1 0 0 I I #
edge $-1 $437 -17.630236872561703 $365 -9.3107798684773044 $364 $463 forward 7 unknown #
vertex $-1 $436 $464 #
straight-curve $-1 -24.297161089117836 -31.100745243081207 107.63184540047644 -0.66913059716165679 0 0.74314483375859142 I I #
point $-1 60.057309763981337 -31.100745243081207 13.946712057552205 #
point $-1 71.829584643086022 -22.781288238996808 0.87227592340674676 #
straight-curve $-1 71.829584643086037 0 13.946712057552205 0 1 0 I I #
vertex $-1 $371 $465 #
point $-1 65.71903882521913 -26.941016741039007 5.1889867121825644 #
straight-curve $-1 -71.829584643086037 42.478473535518305 0 0 0 -1 I I #
point $-1 -71.829584643086037 -42.478473535518305 -13.946712057552205 #
straight-curve $-1 -71.829584643086037 0 -13.946712057552205 0 1 0 I I #
point $-1 -71.829584643086037 42.478473535518305 -13.946712057552205 #
straight-curve $-1 -71.829584643086037 -18.394804694649878 -6.9974623156961364 0 -1 0 I I #
point $-1 -71.829584643086037 -42.478473535518305 -6.9974623156961364 #
point $-1 -71.829584643086037 -31.100745243081207 -6.9974623156961364 #
straight-curve $-1 -71.829584643086037 -31.100745243081207 -1.873601037832719 0 0 -1 I I #
straight-curve $-1 -71.829584643086037 -42.478473535518305 0 0 0 -1 I I #
straight-curve $-1 -71.829584643086037 5.6888641462185525 52.794808415597856 0 0 -1 I I #
point $-1 -71.829584643086037 5.6888641462185525 13.946712057552205 #
straight-curve $-1 -71.829584643086037 -1.6608832012961656 5.7955736190196649 0 -1 0 I I #
point $-1 -71.829584643086037 5.6888641462185525 5.7955736190196641 #
point $-1 -62.630490868994151 -3.3217664025923312 4.7883729507304471 #
straight-curve $-1 -71.829584643086037 0 13.946712057552205 0 -1 0 I I #
point $-1 -71.829584643086037 5.6888641462185525 13.946712057552205 #
point $-1 -62.630490868994151 14.699494695029436 4.7883729507304471 #
straight-curve $-1 71.829584643086037 -31.100745243081207 101.87929556634015 0 0 -1 I I #
point $-1 71.829584643086037 -31.100745243081207 13.946712057552205 #
straight-curve $-1 71.829584643086037 -13.470508370519504 0.87227592340674676 0 1 0 I I #
point $-1 71.829584643086022 -31.100745243081207 0.87227592340674676 #
point $-1 63.600625678838767 -26.941016741039007 5.3000080670779663 #
End-of-ACIS-data 