500 0 14 0           
7 Unknown 11 ACIS 5.0 NT 24 Fri Mar 26 18:54:47 1999 
-1 9.9999999999999995e-007 1e-010 
body $-1 $14 $-1 $15 #
body $-1 $16 $-1 $17 #
body $-1 $18 $-1 $19 #
body $-1 $20 $-1 $21 #
body $-1 $22 $-1 $23 #
body $-1 $24 $-1 $25 #
body $-1 $26 $-1 $27 #
body $-1 $28 $-1 $29 #
body $-1 $30 $-1 $31 #
body $-1 $32 $-1 $33 #
body $-1 $34 $-1 $35 #
body $-1 $36 $-1 $37 #
body $-1 $38 $-1 $39 #
body $-1 $40 $-1 $41 #
lump $-1 $-1 $42 $0 #
transform $-1 1 0 0 0 1 0 0 0 1 46.961882381664481 19.308876625476081 5.962139379057569 1 rotate no_reflect no_shear #
lump $-1 $-1 $43 $1 #
transform $-1 1 0 0 0 1 0 0 0 1 46.961882381664481 2.8753316471093404 10.424278758115138 1 rotate no_reflect no_shear #
lump $-1 $-1 $44 $2 #
transform $-1 1 0 0 0 1 0 0 0 1 46.961882381664481 35.742421603842821 10.424278758115138 1 rotate no_reflect no_shear #
lump $-1 $-1 $45 $3 #
transform $-1 0.5877852410284794 0 -0.80901700255871778 0 1 0 0.80901700255871778 0 0.5877852410284794 114.70268469147194 8.5968351685457733 139.21365531899278 1 rotate no_reflect no_shear #
lump $-1 $-1 $46 $4 #
transform $-1 0.5877852410284794 0 -0.80901700255871778 0 -1 0 -0.80901700255871778 0 -0.5877852410284794 90.906787580020691 7.3770472224055919 8.8108136651205058 1 rotate no_reflect no_shear #
lump $-1 $-1 $47 $5 #
transform $-1 0.5877852410284794 0 -0.80901700255871778 0 -1 0 -0.80901700255871778 0 -0.5877852410284794 90.906787580020691 9.8166231146859566 8.8108136651205058 1 rotate no_reflect no_shear #
lump $-1 $-1 $48 $6 #
transform $-1 0.5877852410284794 0 -0.80901700255871778 0 1 0 0.80901700255871778 0 0.5877852410284794 114.70268469147194 19.308876625476078 139.21365531899278 1 rotate no_reflect no_shear #
lump $-1 $-1 $49 $7 #
transform $-1 0.5877852410284794 0 -0.80901700255871778 0 -1 0 -0.80901700255871778 0 -0.5877852410284794 90.906787580020691 18.089088679335894 8.8108136651205058 1 rotate no_reflect no_shear #
lump $-1 $-1 $50 $8 #
transform $-1 0.5877852410284794 0 -0.80901700255871778 0 -1 0 -0.80901700255871778 0 -0.5877852410284794 90.906787580020691 20.528664571616261 8.8108136651205058 1 rotate no_reflect no_shear #
lump $-1 $-1 $51 $9 #
transform $-1 0.5877852410284794 0 -0.80901700255871778 0 1 0 0.80901700255871778 0 0.5877852410284794 114.70268469147194 30.020918082406382 139.21365531899278 1 rotate no_reflect no_shear #
lump $-1 $-1 $52 $10 #
transform $-1 0.5877852410284794 0 -0.80901700255871778 0 -1 0 -0.80901700255871778 0 -0.5877852410284794 90.906787580020691 28.801130136266199 8.8108136651205058 1 rotate no_reflect no_shear #
lump $-1 $-1 $53 $11 #
transform $-1 0.5877852410284794 0 -0.80901700255871778 0 -1 0 -0.80901700255871778 0 -0.5877852410284794 90.906787580020691 31.240706028546565 8.8108136651205058 1 rotate no_reflect no_shear #
lump $-1 $-1 $54 $12 #
transform $-1 0.52991925155115449 0 0.84804810408105047 0 1 0 -0.84804810408105047 0 0.52991925155115449 -79.651870635695701 14.478569189299792 56.521535190862878 1 rotate no_reflect no_shear #
lump $-1 $-1 $55 $13 #
transform $-1 0.52991925155115449 0 0.84804810408105047 0 -1 0 0.84804810408105047 0 -0.52991925155115449 5.2221871387747285 14.478569189299792 7.0839885351101373 1 rotate no_reflect no_shear #
shell $-1 $-1 $-1 $56 $-1 $14 #
shell $-1 $-1 $-1 $57 $-1 $16 #
shell $-1 $-1 $-1 $58 $-1 $18 #
shell $-1 $-1 $-1 $59 $-1 $20 #
shell $-1 $-1 $-1 $60 $-1 $22 #
shell $-1 $-1 $-1 $61 $-1 $24 #
shell $-1 $-1 $-1 $62 $-1 $26 #
shell $-1 $-1 $-1 $63 $-1 $28 #
shell $-1 $-1 $-1 $64 $-1 $30 #
shell $-1 $-1 $-1 $65 $-1 $32 #
shell $-1 $-1 $-1 $66 $-1 $34 #
shell $-1 $-1 $-1 $67 $-1 $36 #
shell $-1 $-1 $-1 $68 $-1 $38 #
shell $-1 $-1 $-1 $69 $-1 $40 #
face $-1 $70 $71 $42 $-1 $72 forward single #
face $-1 $73 $74 $43 $-1 $75 forward single #
face $-1 $76 $77 $44 $-1 $78 forward single #
face $-1 $79 $80 $45 $-1 $81 forward single #
face $-1 $82 $83 $46 $-1 $84 forward single #
face $-1 $85 $86 $47 $-1 $87 forward single #
face $-1 $88 $89 $48 $-1 $90 forward single #
face $-1 $91 $92 $49 $-1 $93 forward single #
face $-1 $94 $95 $50 $-1 $96 forward single #
face $-1 $97 $98 $51 $-1 $99 forward single #
face $-1 $100 $101 $52 $-1 $102 forward single #
face $-1 $103 $104 $53 $-1 $105 forward single #
face $-1 $106 $107 $54 $-1 $108 forward single #
face $-1 $109 $110 $55 $-1 $111 forward single #
face $-1 $112 $113 $42 $-1 $114 reversed single #
loop $-1 $-1 $115 $56 #
plane-surface $-1 0 0 5.962139379057569 0 0 1 1 0 0 forward_v I I I I #
face $-1 $116 $117 $43 $-1 $118 reversed single #
loop $-1 $-1 $119 $57 #
plane-surface $-1 0 0 1.5 0 0 1 1 0 0 forward_v I I I I #
face $-1 $120 $121 $44 $-1 $122 reversed single #
loop $-1 $-1 $123 $58 #
plane-surface $-1 0 0 1.5 0 0 1 1 0 0 forward_v I I I I #
face $-1 $124 $125 $45 $-1 $126 reversed single #
loop $-1 $-1 $127 $59 #
plane-surface $-1 0 0 93.923764763328961 0 0 1 1 0 0 forward_v I I I I #
face $-1 $128 $129 $46 $-1 $130 forward single #
loop $-1 $131 $132 $60 #
cone-surface $-1 0 0 -1.113193151646473 0 0 1 0.5 0 0 1 I I 0 1 0.5 forward I I I I #
face $-1 $133 $134 $47 $-1 $135 forward single #
loop $-1 $136 $137 $61 #
cone-surface $-1 0 0 -1.113193151646473 0 0 1 0.5 0 0 1 I I 0 1 0.5 forward I I I I #
face $-1 $138 $139 $48 $-1 $140 reversed single #
loop $-1 $-1 $141 $62 #
plane-surface $-1 0 0 93.923764763328961 0 0 1 1 0 0 forward_v I I I I #
face $-1 $142 $143 $49 $-1 $144 forward single #
loop $-1 $145 $146 $63 #
cone-surface $-1 0 0 -1.113193151646473 0 0 1 0.5 0 0 1 I I 0 1 0.5 forward I I I I #
face $-1 $147 $148 $50 $-1 $149 forward single #
loop $-1 $150 $151 $64 #
cone-surface $-1 0 0 -1.113193151646473 0 0 1 0.5 0 0 1 I I 0 1 0.5 forward I I I I #
face $-1 $152 $153 $51 $-1 $154 reversed single #
loop $-1 $-1 $155 $65 #
plane-surface $-1 0 0 93.923764763328961 0 0 1 1 0 0 forward_v I I I I #
face $-1 $156 $157 $52 $-1 $158 forward single #
loop $-1 $159 $160 $66 #
cone-surface $-1 0 0 -1.113193151646473 0 0 1 0.5 0 0 1 I I 0 1 0.5 forward I I I I #
face $-1 $161 $162 $53 $-1 $163 forward single #
loop $-1 $164 $165 $67 #
cone-surface $-1 0 0 -1.113193151646473 0 0 1 0.5 0 0 1 I I 0 1 0.5 forward I I I I #
face $-1 $166 $167 $54 $-1 $168 reversed single #
loop $-1 $-1 $169 $68 #
plane-surface $-1 0 0 93.923764763328961 0 0 1 1 0 0 forward_v I I I I #
face $-1 $170 $171 $55 $-1 $172 forward single #
loop $-1 $173 $174 $69 #
cone-surface $-1 0 0 -2.3757133701590014 0 0 1 1 0 0 1 I I 0 1 1 forward I I I I #
face $-1 $175 $176 $42 $-1 $177 reversed single #
loop $-1 $-1 $178 $70 #
plane-surface $-1 0 0 -5.962139379057569 0 0 1 1 0 0 forward_v I I I I #
coedge $-1 $179 $180 $181 $182 forward $71 $-1 #
face $-1 $183 $184 $43 $-1 $185 reversed single #
loop $-1 $-1 $186 $73 #
plane-surface $-1 0 0 -1.5 0 0 1 1 0 0 forward_v I I I I #
coedge $-1 $187 $188 $189 $190 forward $74 $-1 #
face $-1 $191 $192 $44 $-1 $193 reversed single #
loop $-1 $-1 $194 $76 #
plane-surface $-1 0 0 -1.5 0 0 1 1 0 0 forward_v I I I I #
coedge $-1 $195 $196 $197 $198 forward $77 $-1 #
face $-1 $199 $200 $45 $-1 $201 reversed single #
loop $-1 $-1 $202 $79 #
plane-surface $-1 0 0 -93.923764763328961 0 0 1 1 0 0 forward_v I I I I #
coedge $-1 $203 $204 $205 $206 forward $80 $-1 #
face $-1 $-1 $207 $46 $-1 $208 forward single #
loop $-1 $-1 $209 $82 #
plane-surface $-1 0 0 -1.9763863032929465 0 0 -1 -1 0 0 forward_v I I I I #
loop $-1 $-1 $210 $60 #
coedge $-1 $132 $132 $209 $211 reversed $83 $-1 #
face $-1 $-1 $212 $47 $-1 $213 forward single #
loop $-1 $-1 $214 $85 #
plane-surface $-1 0 0 -1.9763863032929465 0 0 -1 -1 0 0 forward_v I I I I #
loop $-1 $-1 $215 $61 #
coedge $-1 $137 $137 $214 $216 reversed $86 $-1 #
face $-1 $217 $218 $48 $-1 $219 reversed single #
loop $-1 $-1 $220 $88 #
plane-surface $-1 0 0 -93.923764763328961 0 0 1 1 0 0 forward_v I I I I #
coedge $-1 $221 $222 $223 $224 forward $89 $-1 #
face $-1 $-1 $225 $49 $-1 $226 forward single #
loop $-1 $-1 $227 $91 #
plane-surface $-1 0 0 -1.9763863032929465 0 0 -1 -1 0 0 forward_v I I I I #
loop $-1 $-1 $228 $63 #
coedge $-1 $146 $146 $227 $229 reversed $92 $-1 #
face $-1 $-1 $230 $50 $-1 $231 forward single #
loop $-1 $-1 $232 $94 #
plane-surface $-1 0 0 -1.9763863032929465 0 0 -1 -1 0 0 forward_v I I I I #
loop $-1 $-1 $233 $64 #
coedge $-1 $151 $151 $232 $234 reversed $95 $-1 #
face $-1 $235 $236 $51 $-1 $237 reversed single #
loop $-1 $-1 $238 $97 #
plane-surface $-1 0 0 -93.923764763328961 0 0 1 1 0 0 forward_v I I I I #
coedge $-1 $239 $240 $241 $242 forward $98 $-1 #
face $-1 $-1 $243 $52 $-1 $244 forward single #
loop $-1 $-1 $245 $100 #
plane-surface $-1 0 0 -1.9763863032929465 0 0 -1 -1 0 0 forward_v I I I I #
loop $-1 $-1 $246 $66 #
coedge $-1 $160 $160 $245 $247 reversed $101 $-1 #
face $-1 $-1 $248 $53 $-1 $249 forward single #
loop $-1 $-1 $250 $103 #
plane-surface $-1 0 0 -1.9763863032929465 0 0 -1 -1 0 0 forward_v I I I I #
loop $-1 $-1 $251 $67 #
coedge $-1 $165 $165 $250 $252 reversed $104 $-1 #
face $-1 $253 $254 $54 $-1 $255 reversed single #
loop $-1 $-1 $256 $106 #
plane-surface $-1 0 0 -93.923764763328961 0 0 1 1 0 0 forward_v I I I I #
coedge $-1 $257 $258 $259 $260 forward $107 $-1 #
face $-1 $-1 $261 $55 $-1 $262 forward single #
loop $-1 $-1 $263 $109 #
plane-surface $-1 0 0 -4.2514267403180028 0 0 -1 -1 0 0 forward_v I I I I #
loop $-1 $-1 $264 $69 #
coedge $-1 $174 $174 $263 $265 reversed $110 $-1 #
face $-1 $266 $267 $42 $-1 $268 reversed single #
loop $-1 $-1 $269 $112 #
plane-surface $-1 0 -19.308876625476081 0 0 1 0 0 0 1 forward_v I I I I #
coedge $-1 $270 $271 $272 $273 forward $113 $-1 #
coedge $-1 $274 $115 $275 $276 forward $71 $-1 #
coedge $-1 $115 $274 $277 $278 forward $71 $-1 #
coedge $-1 $279 $280 $115 $182 reversed $281 $-1 #
edge $-1 $282 -19.308876625476081 $283 19.308876625476081 $181 $284 forward 7 unknown #
face $-1 $285 $286 $43 $-1 $287 reversed single #
loop $-1 $-1 $288 $116 #
plane-surface $-1 0 -2.8753316471093404 0 0 1 0 0 0 1 forward_v I I I I #
coedge $-1 $289 $290 $291 $292 forward $117 $-1 #
coedge $-1 $293 $119 $294 $295 forward $74 $-1 #
coedge $-1 $119 $293 $296 $297 forward $74 $-1 #
coedge $-1 $298 $299 $119 $190 reversed $300 $-1 #
edge $-1 $301 -2.8753316471093404 $302 2.8753316471093404 $189 $303 forward 7 unknown #
face $-1 $304 $305 $44 $-1 $306 reversed single #
loop $-1 $-1 $307 $120 #
plane-surface $-1 0 -2.8753316471093413 0 0 1 0 0 0 1 forward_v I I I I #
coedge $-1 $308 $309 $310 $311 forward $121 $-1 #
coedge $-1 $312 $123 $313 $314 forward $77 $-1 #
coedge $-1 $123 $312 $315 $316 forward $77 $-1 #
coedge $-1 $317 $318 $123 $198 reversed $319 $-1 #
edge $-1 $320 -2.8753316471093413 $321 2.8753316471093413 $197 $322 forward 7 unknown #
face $-1 $323 $324 $45 $-1 $325 reversed single #
loop $-1 $-1 $326 $124 #
plane-surface $-1 0 -2.8461718743270934 0 0 1 0 0 0 1 forward_v I I I I #
coedge $-1 $327 $328 $329 $330 forward $125 $-1 #
coedge $-1 $331 $127 $332 $333 forward $80 $-1 #
coedge $-1 $127 $331 $334 $335 forward $80 $-1 #
coedge $-1 $336 $337 $127 $206 reversed $338 $-1 #
edge $-1 $339 -2.8461718743270934 $340 2.8461718743270934 $205 $341 forward 7 unknown #
loop $-1 $342 $343 $128 #
cone-surface $-1 0 0 0 0 0 1 0.25 0 0 1 I I -0.70710678118654746 0.70710678118654746 0.25 forward I I I I #
coedge $-1 $209 $209 $132 $211 forward $129 $-1 #
coedge $-1 $210 $210 $343 $344 forward $131 $-1 #
edge $-1 $345 0 $345 6.2831853071796004 $209 $346 forward 7 unknown #
loop $-1 $347 $348 $133 #
cone-surface $-1 0 0 0 0 0 1 0.25 0 0 1 I I -0.70710678118654746 0.70710678118654746 0.25 forward I I I I #
coedge $-1 $214 $214 $137 $216 forward $134 $-1 #
coedge $-1 $215 $215 $348 $349 forward $136 $-1 #
edge $-1 $350 0 $350 6.2831853071796004 $214 $351 forward 7 unknown #
face $-1 $352 $353 $48 $-1 $354 reversed single #
loop $-1 $-1 $355 $138 #
plane-surface $-1 0 -2.8461718743270934 0 0 1 0 0 0 1 forward_v I I I I #
coedge $-1 $356 $357 $358 $359 forward $139 $-1 #
coedge $-1 $360 $141 $361 $362 forward $89 $-1 #
coedge $-1 $141 $360 $363 $364 forward $89 $-1 #
coedge $-1 $365 $366 $141 $224 reversed $367 $-1 #
edge $-1 $368 -2.8461718743270934 $369 2.8461718743270934 $223 $370 forward 7 unknown #
loop $-1 $371 $372 $142 #
cone-surface $-1 0 0 0 0 0 1 0.25 0 0 1 I I -0.70710678118654746 0.70710678118654746 0.25 forward I I I I #
coedge $-1 $227 $227 $146 $229 forward $143 $-1 #
coedge $-1 $228 $228 $372 $373 forward $145 $-1 #
edge $-1 $374 0 $374 6.2831853071796004 $227 $375 forward 7 unknown #
loop $-1 $376 $377 $147 #
cone-surface $-1 0 0 0 0 0 1 0.25 0 0 1 I I -0.70710678118654746 0.70710678118654746 0.25 forward I I I I #
coedge $-1 $232 $232 $151 $234 forward $148 $-1 #
coedge $-1 $233 $233 $377 $378 forward $150 $-1 #
edge $-1 $379 0 $379 6.2831853071796004 $232 $380 forward 7 unknown #
face $-1 $381 $382 $51 $-1 $383 reversed single #
loop $-1 $-1 $384 $152 #
plane-surface $-1 0 -2.8461718743270934 0 0 1 0 0 0 1 forward_v I I I I #
coedge $-1 $385 $386 $387 $388 forward $153 $-1 #
coedge $-1 $389 $155 $390 $391 forward $98 $-1 #
coedge $-1 $155 $389 $392 $393 forward $98 $-1 #
coedge $-1 $394 $395 $155 $242 reversed $396 $-1 #
edge $-1 $397 -2.8461718743270934 $398 2.8461718743270934 $241 $399 forward 7 unknown #
loop $-1 $400 $401 $156 #
cone-surface $-1 0 0 0 0 0 1 0.25 0 0 1 I I -0.70710678118654746 0.70710678118654746 0.25 forward I I I I #
coedge $-1 $245 $245 $160 $247 forward $157 $-1 #
coedge $-1 $246 $246 $401 $402 forward $159 $-1 #
edge $-1 $403 0 $403 6.2831853071796004 $245 $404 forward 7 unknown #
loop $-1 $405 $406 $161 #
cone-surface $-1 0 0 0 0 0 1 0.25 0 0 1 I I -0.70710678118654746 0.70710678118654746 0.25 forward I I I I #
coedge $-1 $250 $250 $165 $252 forward $162 $-1 #
coedge $-1 $251 $251 $406 $407 forward $164 $-1 #
edge $-1 $408 0 $408 6.2831853071796004 $250 $409 forward 7 unknown #
face $-1 $410 $411 $54 $-1 $412 reversed single #
loop $-1 $-1 $413 $166 #
plane-surface $-1 0 -3.0318607071563139 0 0 1 0 0 0 1 forward_v I I I I #
coedge $-1 $414 $415 $416 $417 forward $167 $-1 #
coedge $-1 $418 $169 $419 $420 forward $107 $-1 #
coedge $-1 $169 $418 $421 $422 forward $107 $-1 #
coedge $-1 $423 $424 $169 $260 reversed $425 $-1 #
edge $-1 $426 -3.0318607071563139 $427 3.0318607071563139 $259 $428 forward 7 unknown #
loop $-1 $429 $430 $170 #
cone-surface $-1 0 0 0 0 0 1 0.5 0 0 1 I I -0.70710678118654746 0.70710678118654746 0.5 forward I I I I #
coedge $-1 $263 $263 $174 $265 forward $171 $-1 #
coedge $-1 $264 $264 $430 $431 forward $173 $-1 #
edge $-1 $432 0 $432 6.2831853071796004 $263 $433 forward 7 unknown #
face $-1 $434 $435 $42 $-1 $436 reversed single #
loop $-1 $-1 $437 $175 #
plane-surface $-1 -46.961882381664481 0 0 1 0 0 0 0 -1 forward_v I I I I #
coedge $-1 $438 $277 $439 $440 forward $176 $-1 #
coedge $-1 $441 $178 $438 $442 forward $113 $-1 #
coedge $-1 $178 $441 $443 $444 forward $113 $-1 #
coedge $-1 $280 $279 $178 $273 reversed $281 $-1 #
edge $-1 $445 -19.308876625476081 $446 19.308876625476081 $272 $447 forward 7 unknown #
coedge $-1 $180 $179 $448 $449 forward $71 $-1 #
coedge $-1 $450 $451 $179 $276 reversed $435 $-1 #
edge $-1 $283 -46.961882381664481 $452 46.961882381664481 $275 $453 forward 7 unknown #
coedge $-1 $269 $454 $180 $278 reversed $176 $-1 #
edge $-1 $455 -46.961882381664481 $282 46.961882381664481 $277 $456 forward 7 unknown #
coedge $-1 $272 $181 $454 $457 forward $281 $-1 #
coedge $-1 $181 $272 $450 $458 reversed $281 $-1 #
loop $-1 $-1 $279 $434 #
vertex $-1 $182 $459 #
vertex $-1 $182 $460 #
straight-curve $-1 46.961882381664481 0 5.962139379057569 0 1 0 I I #
face $-1 $461 $462 $43 $-1 $463 reversed single #
loop $-1 $-1 $464 $183 #
plane-surface $-1 -46.961882381664481 0 0 1 0 0 0 0 -1 forward_v I I I I #
coedge $-1 $465 $296 $466 $467 forward $184 $-1 #
coedge $-1 $468 $186 $465 $469 forward $117 $-1 #
coedge $-1 $186 $468 $470 $471 forward $117 $-1 #
coedge $-1 $299 $298 $186 $292 reversed $300 $-1 #
edge $-1 $472 -2.8753316471093404 $473 2.8753316471093404 $291 $474 forward 7 unknown #
coedge $-1 $188 $187 $475 $476 forward $74 $-1 #
coedge $-1 $477 $478 $187 $295 reversed $462 $-1 #
edge $-1 $302 -46.961882381664481 $479 46.961882381664481 $294 $480 forward 7 unknown #
coedge $-1 $288 $481 $188 $297 reversed $184 $-1 #
edge $-1 $482 -46.961882381664481 $301 46.961882381664481 $296 $483 forward 7 unknown #
coedge $-1 $291 $189 $481 $484 forward $300 $-1 #
coedge $-1 $189 $291 $477 $485 reversed $300 $-1 #
loop $-1 $-1 $298 $461 #
vertex $-1 $190 $486 #
vertex $-1 $190 $487 #
straight-curve $-1 46.961882381664481 0 1.5 0 1 0 I I #
face $-1 $488 $489 $44 $-1 $490 reversed single #
loop $-1 $-1 $491 $191 #
plane-surface $-1 -46.961882381664481 0 0 1 0 0 0 0 -1 forward_v I I I I #
coedge $-1 $492 $315 $493 $494 forward $192 $-1 #
coedge $-1 $495 $194 $492 $496 forward $121 $-1 #
coedge $-1 $194 $495 $497 $498 forward $121 $-1 #
coedge $-1 $318 $317 $194 $311 reversed $319 $-1 #
edge $-1 $499 -2.8753316471093413 $500 2.8753316471093413 $310 $501 forward 7 unknown #
coedge $-1 $196 $195 $502 $503 forward $77 $-1 #
coedge $-1 $504 $505 $195 $314 reversed $489 $-1 #
edge $-1 $321 -46.961882381664481 $506 46.961882381664481 $313 $507 forward 7 unknown #
coedge $-1 $307 $508 $196 $316 reversed $192 $-1 #
edge $-1 $509 -46.961882381664481 $320 46.961882381664481 $315 $510 forward 7 unknown #
coedge $-1 $310 $197 $508 $511 forward $319 $-1 #
coedge $-1 $197 $310 $504 $512 reversed $319 $-1 #
loop $-1 $-1 $317 $488 #
vertex $-1 $198 $513 #
vertex $-1 $198 $514 #
straight-curve $-1 46.961882381664481 0 1.5 0 1 0 I I #
face $-1 $515 $516 $45 $-1 $517 reversed single #
loop $-1 $-1 $518 $199 #
plane-surface $-1 -187.84752952665792 0 0 1 0 0 0 0 -1 forward_v I I I I #
coedge $-1 $519 $334 $520 $521 forward $200 $-1 #
coedge $-1 $522 $202 $519 $523 forward $125 $-1 #
coedge $-1 $202 $522 $524 $525 forward $125 $-1 #
coedge $-1 $337 $336 $202 $330 reversed $338 $-1 #
edge $-1 $526 -2.8461718743270934 $527 2.8461718743270934 $329 $528 forward 7 unknown #
coedge $-1 $204 $203 $529 $530 forward $80 $-1 #
coedge $-1 $531 $532 $203 $333 reversed $516 $-1 #
edge $-1 $340 -187.84752952665792 $533 187.84752952665792 $332 $534 forward 7 unknown #
coedge $-1 $326 $535 $204 $335 reversed $200 $-1 #
edge $-1 $536 -187.84752952665792 $339 187.84752952665792 $334 $537 forward 7 unknown #
coedge $-1 $329 $205 $535 $538 forward $338 $-1 #
coedge $-1 $205 $329 $531 $539 reversed $338 $-1 #
loop $-1 $-1 $336 $515 #
vertex $-1 $206 $540 #
vertex $-1 $206 $541 #
straight-curve $-1 187.84752952665792 0 93.923764763328961 0 1 0 I I #
loop $-1 $-1 $542 $128 #
coedge $-1 $343 $343 $210 $344 reversed $207 $-1 #
edge $-1 $543 0 $543 6.2831853071796004 $343 $544 forward 7 unknown #
vertex $-1 $211 $545 #
ellipse-curve $-1 0 0 -1.9763863032929465 0 0 -1 0.5 0 0 1 I I #
loop $-1 $-1 $546 $133 #
coedge $-1 $348 $348 $215 $349 reversed $212 $-1 #
edge $-1 $547 0 $547 6.2831853071796004 $348 $548 forward 7 unknown #
vertex $-1 $216 $549 #
ellipse-curve $-1 0 0 -1.9763863032929465 0 0 -1 0.5 0 0 1 I I #
face $-1 $550 $551 $48 $-1 $552 reversed single #
loop $-1 $-1 $553 $217 #
plane-surface $-1 -187.84752952665792 0 0 1 0 0 0 0 -1 forward_v I I I I #
coedge $-1 $554 $363 $555 $556 forward $218 $-1 #
coedge $-1 $557 $220 $554 $558 forward $139 $-1 #
coedge $-1 $220 $557 $559 $560 forward $139 $-1 #
coedge $-1 $366 $365 $220 $359 reversed $367 $-1 #
edge $-1 $561 -2.8461718743270934 $562 2.8461718743270934 $358 $563 forward 7 unknown #
coedge $-1 $222 $221 $564 $565 forward $89 $-1 #
coedge $-1 $566 $567 $221 $362 reversed $551 $-1 #
edge $-1 $369 -187.84752952665792 $568 187.84752952665792 $361 $569 forward 7 unknown #
coedge $-1 $355 $570 $222 $364 reversed $218 $-1 #
edge $-1 $571 -187.84752952665792 $368 187.84752952665792 $363 $572 forward 7 unknown #
coedge $-1 $358 $223 $570 $573 forward $367 $-1 #
coedge $-1 $223 $358 $566 $574 reversed $367 $-1 #
loop $-1 $-1 $365 $550 #
vertex $-1 $224 $575 #
vertex $-1 $224 $576 #
straight-curve $-1 187.84752952665792 0 93.923764763328961 0 1 0 I I #
loop $-1 $-1 $577 $142 #
coedge $-1 $372 $372 $228 $373 reversed $225 $-1 #
edge $-1 $578 0 $578 6.2831853071796004 $372 $579 forward 7 unknown #
vertex $-1 $229 $580 #
ellipse-curve $-1 0 0 -1.9763863032929465 0 0 -1 0.5 0 0 1 I I #
loop $-1 $-1 $581 $147 #
coedge $-1 $377 $377 $233 $378 reversed $230 $-1 #
edge $-1 $582 0 $582 6.2831853071796004 $377 $583 forward 7 unknown #
vertex $-1 $234 $584 #
ellipse-curve $-1 0 0 -1.9763863032929465 0 0 -1 0.5 0 0 1 I I #
face $-1 $585 $586 $51 $-1 $587 reversed single #
loop $-1 $-1 $588 $235 #
plane-surface $-1 -187.84752952665792 0 0 1 0 0 0 0 -1 forward_v I I I I #
coedge $-1 $589 $392 $590 $591 forward $236 $-1 #
coedge $-1 $592 $238 $589 $593 forward $153 $-1 #
coedge $-1 $238 $592 $594 $595 forward $153 $-1 #
coedge $-1 $395 $394 $238 $388 reversed $396 $-1 #
edge $-1 $596 -2.8461718743270934 $597 2.8461718743270934 $387 $598 forward 7 unknown #
coedge $-1 $240 $239 $599 $600 forward $98 $-1 #
coedge $-1 $601 $602 $239 $391 reversed $586 $-1 #
edge $-1 $398 -187.84752952665792 $603 187.84752952665792 $390 $604 forward 7 unknown #
coedge $-1 $384 $605 $240 $393 reversed $236 $-1 #
edge $-1 $606 -187.84752952665792 $397 187.84752952665792 $392 $607 forward 7 unknown #
coedge $-1 $387 $241 $605 $608 forward $396 $-1 #
coedge $-1 $241 $387 $601 $609 reversed $396 $-1 #
loop $-1 $-1 $394 $585 #
vertex $-1 $242 $610 #
vertex $-1 $242 $611 #
straight-curve $-1 187.84752952665792 0 93.923764763328961 0 1 0 I I #
loop $-1 $-1 $612 $156 #
coedge $-1 $401 $401 $246 $402 reversed $243 $-1 #
edge $-1 $613 0 $613 6.2831853071796004 $401 $614 forward 7 unknown #
vertex $-1 $247 $615 #
ellipse-curve $-1 0 0 -1.9763863032929465 0 0 -1 0.5 0 0 1 I I #
loop $-1 $-1 $616 $161 #
coedge $-1 $406 $406 $251 $407 reversed $248 $-1 #
edge $-1 $617 0 $617 6.2831853071796004 $406 $618 forward 7 unknown #
vertex $-1 $252 $619 #
ellipse-curve $-1 0 0 -1.9763863032929465 0 0 -1 0.5 0 0 1 I I #
face $-1 $620 $621 $54 $-1 $622 reversed single #
loop $-1 $-1 $623 $253 #
plane-surface $-1 -187.84752952665792 0 0 1 0 0 0 0 -1 forward_v I I I I #
coedge $-1 $624 $421 $625 $626 forward $254 $-1 #
coedge $-1 $627 $256 $624 $628 forward $167 $-1 #
coedge $-1 $256 $627 $629 $630 forward $167 $-1 #
coedge $-1 $424 $423 $256 $417 reversed $425 $-1 #
edge $-1 $631 -3.0318607071563139 $632 3.0318607071563139 $416 $633 forward 7 unknown #
coedge $-1 $258 $257 $634 $635 forward $107 $-1 #
coedge $-1 $636 $637 $257 $420 reversed $621 $-1 #
edge $-1 $427 -187.84752952665792 $638 187.84752952665792 $419 $639 forward 7 unknown #
coedge $-1 $413 $640 $258 $422 reversed $254 $-1 #
edge $-1 $641 -187.84752952665792 $426 187.84752952665792 $421 $642 forward 7 unknown #
coedge $-1 $416 $259 $640 $643 forward $425 $-1 #
coedge $-1 $259 $416 $636 $644 reversed $425 $-1 #
loop $-1 $-1 $423 $620 #
vertex $-1 $260 $645 #
vertex $-1 $260 $646 #
straight-curve $-1 187.84752952665792 0 93.923764763328961 0 1 0 I I #
loop $-1 $-1 $647 $170 #
coedge $-1 $430 $430 $264 $431 reversed $261 $-1 #
edge $-1 $648 0 $648 6.2831853071796004 $430 $649 forward 7 unknown #
vertex $-1 $265 $650 #
ellipse-curve $-1 0 0 -4.2514267403180028 0 0 -1 1 0 0 1 I I #
face $-1 $-1 $281 $42 $-1 $651 reversed single #
loop $-1 $-1 $450 $266 #
plane-surface $-1 0 19.308876625476081 0 0 -1 0 0 0 -1 forward_v I I I I #
coedge $-1 $652 $448 $451 $653 forward $267 $-1 #
coedge $-1 $454 $269 $270 $442 reversed $176 $-1 #
coedge $-1 $448 $652 $269 $440 reversed $267 $-1 #
edge $-1 $455 -5.962139379057569 $654 5.962139379057569 $439 $655 forward 7 unknown #
coedge $-1 $271 $270 $652 $656 forward $113 $-1 #
edge $-1 $446 -46.961882381664481 $654 46.961882381664481 $438 $657 forward 7 unknown #
coedge $-1 $451 $450 $271 $444 reversed $435 $-1 #
edge $-1 $658 -46.961882381664481 $445 46.961882381664481 $443 $659 forward 7 unknown #
vertex $-1 $273 $660 #
vertex $-1 $457 $661 #
straight-curve $-1 46.961882381664481 0 -5.962139379057569 0 -1 0 I I #
coedge $-1 $437 $439 $274 $449 reversed $267 $-1 #
edge $-1 $452 -19.308876625476081 $455 19.308876625476081 $448 $662 forward 7 unknown #
coedge $-1 $443 $275 $280 $458 forward $435 $-1 #
coedge $-1 $275 $443 $437 $653 reversed $435 $-1 #
vertex $-1 $276 $663 #
straight-curve $-1 0 19.308876625476081 5.962139379057569 -1 0 0 I I #
coedge $-1 $277 $438 $279 $457 reversed $176 $-1 #
vertex $-1 $449 $664 #
straight-curve $-1 0 -19.308876625476081 5.962139379057569 1 0 0 I I #
edge $-1 $282 -5.962139379057569 $446 5.962139379057569 $279 $665 forward 7 unknown #
edge $-1 $283 -5.962139379057569 $445 5.962139379057569 $280 $666 forward 7 unknown #
point $-1 46.961882381664481 -19.308876625476081 5.962139379057569 #
point $-1 46.961882381664481 19.308876625476081 5.962139379057569 #
face $-1 $-1 $300 $43 $-1 $667 reversed single #
loop $-1 $-1 $477 $285 #
plane-surface $-1 0 2.8753316471093404 0 0 -1 0 0 0 -1 forward_v I I I I #
coedge $-1 $668 $475 $478 $669 forward $286 $-1 #
coedge $-1 $481 $288 $289 $469 reversed $184 $-1 #
coedge $-1 $475 $668 $288 $467 reversed $286 $-1 #
edge $-1 $482 -1.5 $670 1.5 $466 $671 forward 7 unknown #
coedge $-1 $290 $289 $668 $672 forward $117 $-1 #
edge $-1 $473 -46.961882381664481 $670 46.961882381664481 $465 $673 forward 7 unknown #
coedge $-1 $478 $477 $290 $471 reversed $462 $-1 #
edge $-1 $674 -46.961882381664481 $472 46.961882381664481 $470 $675 forward 7 unknown #
vertex $-1 $292 $676 #
vertex $-1 $484 $677 #
straight-curve $-1 46.961882381664481 0 -1.5 0 -1 0 I I #
coedge $-1 $464 $466 $293 $476 reversed $286 $-1 #
edge $-1 $479 -2.8753316471093404 $482 2.8753316471093404 $475 $678 forward 7 unknown #
coedge $-1 $470 $294 $299 $485 forward $462 $-1 #
coedge $-1 $294 $470 $464 $669 reversed $462 $-1 #
vertex $-1 $295 $679 #
straight-curve $-1 0 2.8753316471093404 1.5 -1 0 0 I I #
coedge $-1 $296 $465 $298 $484 reversed $184 $-1 #
vertex $-1 $476 $680 #
straight-curve $-1 0 -2.8753316471093404 1.5 1 0 0 I I #
edge $-1 $301 -1.5 $473 1.5 $298 $681 forward 7 unknown #
edge $-1 $302 -1.5 $472 1.5 $299 $682 forward 7 unknown #
point $-1 46.961882381664481 -2.8753316471093404 1.5 #
point $-1 46.961882381664481 2.8753316471093404 1.5 #
face $-1 $-1 $319 $44 $-1 $683 reversed single #
loop $-1 $-1 $504 $304 #
plane-surface $-1 0 2.8753316471093413 0 0 -1 0 0 0 -1 forward_v I I I I #
coedge $-1 $684 $502 $505 $685 forward $305 $-1 #
coedge $-1 $508 $307 $308 $496 reversed $192 $-1 #
coedge $-1 $502 $684 $307 $494 reversed $305 $-1 #
edge $-1 $509 -1.5 $686 1.5 $493 $687 forward 7 unknown #
coedge $-1 $309 $308 $684 $688 forward $121 $-1 #
edge $-1 $500 -46.961882381664481 $686 46.961882381664481 $492 $689 forward 7 unknown #
coedge $-1 $505 $504 $309 $498 reversed $489 $-1 #
edge $-1 $690 -46.961882381664481 $499 46.961882381664481 $497 $691 forward 7 unknown #
vertex $-1 $311 $692 #
vertex $-1 $511 $693 #
straight-curve $-1 46.961882381664481 0 -1.5 0 -1 0 I I #
coedge $-1 $491 $493 $312 $503 reversed $305 $-1 #
edge $-1 $506 -2.8753316471093413 $509 2.8753316471093413 $502 $694 forward 7 unknown #
coedge $-1 $497 $313 $318 $512 forward $489 $-1 #
coedge $-1 $313 $497 $491 $685 reversed $489 $-1 #
vertex $-1 $314 $695 #
straight-curve $-1 0 2.8753316471093413 1.5 -1 0 0 I I #
coedge $-1 $315 $492 $317 $511 reversed $192 $-1 #
vertex $-1 $503 $696 #
straight-curve $-1 0 -2.8753316471093413 1.5 1 0 0 I I #
edge $-1 $320 -1.5 $500 1.5 $317 $697 forward 7 unknown #
edge $-1 $321 -1.5 $499 1.5 $318 $698 forward 7 unknown #
point $-1 46.961882381664481 -2.8753316471093413 1.5 #
point $-1 46.961882381664481 2.8753316471093413 1.5 #
face $-1 $-1 $338 $45 $-1 $699 reversed single #
loop $-1 $-1 $531 $323 #
plane-surface $-1 0 2.8461718743270934 0 0 -1 0 0 0 -1 forward_v I I I I #
coedge $-1 $700 $529 $532 $701 forward $324 $-1 #
coedge $-1 $535 $326 $327 $523 reversed $200 $-1 #
coedge $-1 $529 $700 $326 $521 reversed $324 $-1 #
edge $-1 $536 -93.923764763328961 $702 93.923764763328961 $520 $703 forward 7 unknown #
coedge $-1 $328 $327 $700 $704 forward $125 $-1 #
edge $-1 $527 -187.84752952665792 $702 187.84752952665792 $519 $705 forward 7 unknown #
coedge $-1 $532 $531 $328 $525 reversed $516 $-1 #
edge $-1 $706 -187.84752952665792 $526 187.84752952665792 $524 $707 forward 7 unknown #
vertex $-1 $330 $708 #
vertex $-1 $538 $709 #
straight-curve $-1 187.84752952665792 0 -93.923764763328961 0 -1 0 I I #
coedge $-1 $518 $520 $331 $530 reversed $324 $-1 #
edge $-1 $533 -2.8461718743270934 $536 2.8461718743270934 $529 $710 forward 7 unknown #
coedge $-1 $524 $332 $337 $539 forward $516 $-1 #
coedge $-1 $332 $524 $518 $701 reversed $516 $-1 #
vertex $-1 $333 $711 #
straight-curve $-1 0 2.8461718743270934 93.923764763328961 -1 0 0 I I #
coedge $-1 $334 $519 $336 $538 reversed $200 $-1 #
vertex $-1 $530 $712 #
straight-curve $-1 0 -2.8461718743270934 93.923764763328961 1 0 0 I I #
edge $-1 $339 -93.923764763328961 $527 93.923764763328961 $336 $713 forward 7 unknown #
edge $-1 $340 -93.923764763328961 $526 93.923764763328961 $337 $714 forward 7 unknown #
point $-1 187.84752952665792 -2.8461718743270934 93.923764763328961 #
point $-1 187.84752952665792 2.8461718743270934 93.923764763328961 #
coedge $-1 $542 $542 $-1 $715 reversed $342 $-1 #
vertex $-1 $344 $716 #
ellipse-curve $-1 0 0 -0.25 0 0 -1 0.5 0 0 1 I I #
point $-1 0.5 0 -1.9763863032929465 #
coedge $-1 $546 $546 $-1 $717 reversed $347 $-1 #
vertex $-1 $349 $718 #
ellipse-curve $-1 0 0 -0.25 0 0 -1 0.5 0 0 1 I I #
point $-1 0.5 0 -1.9763863032929465 #
face $-1 $-1 $367 $48 $-1 $719 reversed single #
loop $-1 $-1 $566 $352 #
plane-surface $-1 0 2.8461718743270934 0 0 -1 0 0 0 -1 forward_v I I I I #
coedge $-1 $720 $564 $567 $721 forward $353 $-1 #
coedge $-1 $570 $355 $356 $558 reversed $218 $-1 #
coedge $-1 $564 $720 $355 $556 reversed $353 $-1 #
edge $-1 $571 -93.923764763328961 $722 93.923764763328961 $555 $723 forward 7 unknown #
coedge $-1 $357 $356 $720 $724 forward $139 $-1 #
edge $-1 $562 -187.84752952665792 $722 187.84752952665792 $554 $725 forward 7 unknown #
coedge $-1 $567 $566 $357 $560 reversed $551 $-1 #
edge $-1 $726 -187.84752952665792 $561 187.84752952665792 $559 $727 forward 7 unknown #
vertex $-1 $359 $728 #
vertex $-1 $573 $729 #
straight-curve $-1 187.84752952665792 0 -93.923764763328961 0 -1 0 I I #
coedge $-1 $553 $555 $360 $565 reversed $353 $-1 #
edge $-1 $568 -2.8461718743270934 $571 2.8461718743270934 $564 $730 forward 7 unknown #
coedge $-1 $559 $361 $366 $574 forward $551 $-1 #
coedge $-1 $361 $559 $553 $721 reversed $551 $-1 #
vertex $-1 $362 $731 #
straight-curve $-1 0 2.8461718743270934 93.923764763328961 -1 0 0 I I #
coedge $-1 $363 $554 $365 $573 reversed $218 $-1 #
vertex $-1 $565 $732 #
straight-curve $-1 0 -2.8461718743270934 93.923764763328961 1 0 0 I I #
edge $-1 $368 -93.923764763328961 $562 93.923764763328961 $365 $733 forward 7 unknown #
edge $-1 $369 -93.923764763328961 $561 93.923764763328961 $366 $734 forward 7 unknown #
point $-1 187.84752952665792 -2.8461718743270934 93.923764763328961 #
point $-1 187.84752952665792 2.8461718743270934 93.923764763328961 #
coedge $-1 $577 $577 $-1 $735 reversed $371 $-1 #
vertex $-1 $373 $736 #
ellipse-curve $-1 0 0 -0.25 0 0 -1 0.5 0 0 1 I I #
point $-1 0.5 0 -1.9763863032929465 #
coedge $-1 $581 $581 $-1 $737 reversed $376 $-1 #
vertex $-1 $378 $738 #
ellipse-curve $-1 0 0 -0.25 0 0 -1 0.5 0 0 1 I I #
point $-1 0.5 0 -1.9763863032929465 #
face $-1 $-1 $396 $51 $-1 $739 reversed single #
loop $-1 $-1 $601 $381 #
plane-surface $-1 0 2.8461718743270934 0 0 -1 0 0 0 -1 forward_v I I I I #
coedge $-1 $740 $599 $602 $741 forward $382 $-1 #
coedge $-1 $605 $384 $385 $593 reversed $236 $-1 #
coedge $-1 $599 $740 $384 $591 reversed $382 $-1 #
edge $-1 $606 -93.923764763328961 $742 93.923764763328961 $590 $743 forward 7 unknown #
coedge $-1 $386 $385 $740 $744 forward $153 $-1 #
edge $-1 $597 -187.84752952665792 $742 187.84752952665792 $589 $745 forward 7 unknown #
coedge $-1 $602 $601 $386 $595 reversed $586 $-1 #
edge $-1 $746 -187.84752952665792 $596 187.84752952665792 $594 $747 forward 7 unknown #
vertex $-1 $388 $748 #
vertex $-1 $608 $749 #
straight-curve $-1 187.84752952665792 0 -93.923764763328961 0 -1 0 I I #
coedge $-1 $588 $590 $389 $600 reversed $382 $-1 #
edge $-1 $603 -2.8461718743270934 $606 2.8461718743270934 $599 $750 forward 7 unknown #
coedge $-1 $594 $390 $395 $609 forward $586 $-1 #
coedge $-1 $390 $594 $588 $741 reversed $586 $-1 #
vertex $-1 $391 $751 #
straight-curve $-1 0 2.8461718743270934 93.923764763328961 -1 0 0 I I #
coedge $-1 $392 $589 $394 $608 reversed $236 $-1 #
vertex $-1 $600 $752 #
straight-curve $-1 0 -2.8461718743270934 93.923764763328961 1 0 0 I I #
edge $-1 $397 -93.923764763328961 $597 93.923764763328961 $394 $753 forward 7 unknown #
edge $-1 $398 -93.923764763328961 $596 93.923764763328961 $395 $754 forward 7 unknown #
point $-1 187.84752952665792 -2.8461718743270934 93.923764763328961 #
point $-1 187.84752952665792 2.8461718743270934 93.923764763328961 #
coedge $-1 $612 $612 $-1 $755 reversed $400 $-1 #
vertex $-1 $402 $756 #
ellipse-curve $-1 0 0 -0.25 0 0 -1 0.5 0 0 1 I I #
point $-1 0.5 0 -1.9763863032929465 #
coedge $-1 $616 $616 $-1 $757 reversed $405 $-1 #
vertex $-1 $407 $758 #
ellipse-curve $-1 0 0 -0.25 0 0 -1 0.5 0 0 1 I I #
point $-1 0.5 0 -1.9763863032929465 #
face $-1 $-1 $425 $54 $-1 $759 reversed single #
loop $-1 $-1 $636 $410 #
plane-surface $-1 0 3.0318607071563139 0 0 -1 0 0 0 -1 forward_v I I I I #
coedge $-1 $760 $634 $637 $761 forward $411 $-1 #
coedge $-1 $640 $413 $414 $628 reversed $254 $-1 #
coedge $-1 $634 $760 $413 $626 reversed $411 $-1 #
edge $-1 $641 -93.923764763328961 $762 93.923764763328961 $625 $763 forward 7 unknown #
coedge $-1 $415 $414 $760 $764 forward $167 $-1 #
edge $-1 $632 -187.84752952665792 $762 187.84752952665792 $624 $765 forward 7 unknown #
coedge $-1 $637 $636 $415 $630 reversed $621 $-1 #
edge $-1 $766 -187.84752952665792 $631 187.84752952665792 $629 $767 forward 7 unknown #
vertex $-1 $417 $768 #
vertex $-1 $643 $769 #
straight-curve $-1 187.84752952665792 0 -93.923764763328961 0 -1 0 I I #
coedge $-1 $623 $625 $418 $635 reversed $411 $-1 #
edge $-1 $638 -3.0318607071563139 $641 3.0318607071563139 $634 $770 forward 7 unknown #
coedge $-1 $629 $419 $424 $644 forward $621 $-1 #
coedge $-1 $419 $629 $623 $761 reversed $621 $-1 #
vertex $-1 $420 $771 #
straight-curve $-1 0 3.0318607071563139 93.923764763328961 -1 0 0 I I #
coedge $-1 $421 $624 $423 $643 reversed $254 $-1 #
vertex $-1 $635 $772 #
straight-curve $-1 0 -3.0318607071563139 93.923764763328961 1 0 0 I I #
edge $-1 $426 -93.923764763328961 $632 93.923764763328961 $423 $773 forward 7 unknown #
edge $-1 $427 -93.923764763328961 $631 93.923764763328961 $424 $774 forward 7 unknown #
point $-1 187.84752952665792 -3.0318607071563139 93.923764763328961 #
point $-1 187.84752952665792 3.0318607071563139 93.923764763328961 #
coedge $-1 $647 $647 $-1 $775 reversed $429 $-1 #
vertex $-1 $431 $776 #
ellipse-curve $-1 0 0 -0.5 0 0 -1 1 0 0 1 I I #
point $-1 1 0 -4.2514267403180028 #
plane-surface $-1 46.961882381664481 0 0 -1 0 0 0 0 1 forward_v I I I I #
coedge $-1 $439 $437 $441 $656 reversed $267 $-1 #
edge $-1 $452 -5.962139379057569 $658 5.962139379057569 $451 $777 forward 7 unknown #
vertex $-1 $656 $778 #
straight-curve $-1 -46.961882381664481 -19.308876625476081 0 0 0 -1 I I #
edge $-1 $654 -19.308876625476081 $658 19.308876625476081 $652 $779 forward 7 unknown #
straight-curve $-1 0 -19.308876625476081 -5.962139379057569 -1 0 0 I I #
vertex $-1 $444 $780 #
straight-curve $-1 0 19.308876625476081 -5.962139379057569 1 0 0 I I #
point $-1 46.961882381664481 19.308876625476081 -5.962139379057569 #
point $-1 46.961882381664481 -19.308876625476081 -5.962139379057569 #
straight-curve $-1 -46.961882381664481 0 5.962139379057569 0 -1 0 I I #
point $-1 -46.961882381664481 19.308876625476081 5.962139379057569 #
point $-1 -46.961882381664481 -19.308876625476081 5.962139379057569 #
straight-curve $-1 46.961882381664481 -19.308876625476081 0 0 0 -1 I I #
straight-curve $-1 46.961882381664481 19.308876625476081 0 0 0 -1 I I #
plane-surface $-1 46.961882381664481 0 0 -1 0 0 0 0 1 forward_v I I I I #
coedge $-1 $466 $464 $468 $672 reversed $286 $-1 #
edge $-1 $479 -1.5 $674 1.5 $478 $781 forward 7 unknown #
vertex $-1 $672 $782 #
straight-curve $-1 -46.961882381664481 -2.8753316471093404 0 0 0 -1 I I #
edge $-1 $670 -2.8753316471093404 $674 2.8753316471093404 $668 $783 forward 7 unknown #
straight-curve $-1 0 -2.8753316471093404 -1.5 -1 0 0 I I #
vertex $-1 $471 $784 #
straight-curve $-1 0 2.8753316471093404 -1.5 1 0 0 I I #
point $-1 46.961882381664481 2.8753316471093404 -1.5 #
point $-1 46.961882381664481 -2.8753316471093404 -1.5 #
straight-curve $-1 -46.961882381664481 0 1.5 0 -1 0 I I #
point $-1 -46.961882381664481 2.8753316471093404 1.5 #
point $-1 -46.961882381664481 -2.8753316471093404 1.5 #
straight-curve $-1 46.961882381664481 -2.8753316471093404 0 0 0 -1 I I #
straight-curve $-1 46.961882381664481 2.8753316471093404 0 0 0 -1 I I #
plane-surface $-1 46.961882381664481 0 0 -1 0 0 0 0 1 forward_v I I I I #
coedge $-1 $493 $491 $495 $688 reversed $305 $-1 #
edge $-1 $506 -1.5 $690 1.5 $505 $785 forward 7 unknown #
vertex $-1 $688 $786 #
straight-curve $-1 -46.961882381664481 -2.8753316471093413 0 0 0 -1 I I #
edge $-1 $686 -2.8753316471093413 $690 2.8753316471093413 $684 $787 forward 7 unknown #
straight-curve $-1 0 -2.8753316471093413 -1.5 -1 0 0 I I #
vertex $-1 $498 $788 #
straight-curve $-1 0 2.8753316471093413 -1.5 1 0 0 I I #
point $-1 46.961882381664481 2.8753316471093413 -1.5 #
point $-1 46.961882381664481 -2.8753316471093413 -1.5 #
straight-curve $-1 -46.961882381664481 0 1.5 0 -1 0 I I #
point $-1 -46.961882381664481 2.8753316471093413 1.5 #
point $-1 -46.961882381664481 -2.8753316471093413 1.5 #
straight-curve $-1 46.961882381664481 -2.8753316471093413 0 0 0 -1 I I #
straight-curve $-1 46.961882381664481 2.8753316471093413 0 0 0 -1 I I #
plane-surface $-1 187.84752952665792 0 0 -1 0 0 0 0 1 forward_v I I I I #
coedge $-1 $520 $518 $522 $704 reversed $324 $-1 #
edge $-1 $533 -93.923764763328961 $706 93.923764763328961 $532 $789 forward 7 unknown #
vertex $-1 $704 $790 #
straight-curve $-1 -187.84752952665792 -2.8461718743270934 0 0 0 -1 I I #
edge $-1 $702 -2.8461718743270934 $706 2.8461718743270934 $700 $791 forward 7 unknown #
straight-curve $-1 0 -2.8461718743270934 -93.923764763328961 -1 0 0 I I #
vertex $-1 $525 $792 #
straight-curve $-1 0 2.8461718743270934 -93.923764763328961 1 0 0 I I #
point $-1 187.84752952665792 2.8461718743270934 -93.923764763328961 #
point $-1 187.84752952665792 -2.8461718743270934 -93.923764763328961 #
straight-curve $-1 -187.84752952665792 0 93.923764763328961 0 -1 0 I I #
point $-1 -187.84752952665792 2.8461718743270934 93.923764763328961 #
point $-1 -187.84752952665792 -2.8461718743270934 93.923764763328961 #
straight-curve $-1 187.84752952665792 -2.8461718743270934 0 0 0 -1 I I #
straight-curve $-1 187.84752952665792 2.8461718743270934 0 0 0 -1 I I #
edge $-1 $793 1 $793 0 $542 $-1 forward 7 unknown #
point $-1 0.5 0 -0.25 #
edge $-1 $794 1 $794 0 $546 $-1 forward 7 unknown #
point $-1 0.5 0 -0.25 #
plane-surface $-1 187.84752952665792 0 0 -1 0 0 0 0 1 forward_v I I I I #
coedge $-1 $555 $553 $557 $724 reversed $353 $-1 #
edge $-1 $568 -93.923764763328961 $726 93.923764763328961 $567 $795 forward 7 unknown #
vertex $-1 $724 $796 #
straight-curve $-1 -187.84752952665792 -2.8461718743270934 0 0 0 -1 I I #
edge $-1 $722 -2.8461718743270934 $726 2.8461718743270934 $720 $797 forward 7 unknown #
straight-curve $-1 0 -2.8461718743270934 -93.923764763328961 -1 0 0 I I #
vertex $-1 $560 $798 #
straight-curve $-1 0 2.8461718743270934 -93.923764763328961 1 0 0 I I #
point $-1 187.84752952665792 2.8461718743270934 -93.923764763328961 #
point $-1 187.84752952665792 -2.8461718743270934 -93.923764763328961 #
straight-curve $-1 -187.84752952665792 0 93.923764763328961 0 -1 0 I I #
point $-1 -187.84752952665792 2.8461718743270934 93.923764763328961 #
point $-1 -187.84752952665792 -2.8461718743270934 93.923764763328961 #
straight-curve $-1 187.84752952665792 -2.8461718743270934 0 0 0 -1 I I #
straight-curve $-1 187.84752952665792 2.8461718743270934 0 0 0 -1 I I #
edge $-1 $799 1 $799 0 $577 $-1 forward 7 unknown #
point $-1 0.5 0 -0.25 #
edge $-1 $800 1 $800 0 $581 $-1 forward 7 unknown #
point $-1 0.5 0 -0.25 #
plane-surface $-1 187.84752952665792 0 0 -1 0 0 0 0 1 forward_v I I I I #
coedge $-1 $590 $588 $592 $744 reversed $382 $-1 #
edge $-1 $603 -93.923764763328961 $746 93.923764763328961 $602 $801 forward 7 unknown #
vertex $-1 $744 $802 #
straight-curve $-1 -187.84752952665792 -2.8461718743270934 0 0 0 -1 I I #
edge $-1 $742 -2.8461718743270934 $746 2.8461718743270934 $740 $803 forward 7 unknown #
straight-curve $-1 0 -2.8461718743270934 -93.923764763328961 -1 0 0 I I #
vertex $-1 $595 $804 #
straight-curve $-1 0 2.8461718743270934 -93.923764763328961 1 0 0 I I #
point $-1 187.84752952665792 2.8461718743270934 -93.923764763328961 #
point $-1 187.84752952665792 -2.8461718743270934 -93.923764763328961 #
straight-curve $-1 -187.84752952665792 0 93.923764763328961 0 -1 0 I I #
point $-1 -187.84752952665792 2.8461718743270934 93.923764763328961 #
point $-1 -187.84752952665792 -2.8461718743270934 93.923764763328961 #
straight-curve $-1 187.84752952665792 -2.8461718743270934 0 0 0 -1 I I #
straight-curve $-1 187.84752952665792 2.8461718743270934 0 0 0 -1 I I #
edge $-1 $805 1 $805 0 $612 $-1 forward 7 unknown #
point $-1 0.5 0 -0.25 #
edge $-1 $806 1 $806 0 $616 $-1 forward 7 unknown #
point $-1 0.5 0 -0.25 #
plane-surface $-1 187.84752952665792 0 0 -1 0 0 0 0 1 forward_v I I I I #
coedge $-1 $625 $623 $627 $764 reversed $411 $-1 #
edge $-1 $638 -93.923764763328961 $766 93.923764763328961 $637 $807 forward 7 unknown #
vertex $-1 $764 $808 #
straight-curve $-1 -187.84752952665792 -3.0318607071563139 0 0 0 -1 I I #
edge $-1 $762 -3.0318607071563139 $766 3.0318607071563139 $760 $809 forward 7 unknown #
straight-curve $-1 0 -3.0318607071563139 -93.923764763328961 -1 0 0 I I #
vertex $-1 $630 $810 #
straight-curve $-1 0 3.0318607071563139 -93.923764763328961 1 0 0 I I #
point $-1 187.84752952665792 3.0318607071563139 -93.923764763328961 #
point $-1 187.84752952665792 -3.0318607071563139 -93.923764763328961 #
straight-curve $-1 -187.84752952665792 0 93.923764763328961 0 -1 0 I I #
point $-1 -187.84752952665792 3.0318607071563139 93.923764763328961 #
point $-1 -187.84752952665792 -3.0318607071563139 93.923764763328961 #
straight-curve $-1 187.84752952665792 -3.0318607071563139 0 0 0 -1 I I #
straight-curve $-1 187.84752952665792 3.0318607071563139 0 0 0 -1 I I #
edge $-1 $811 1 $811 0 $647 $-1 forward 7 unknown #
point $-1 1 0 -0.5 #
straight-curve $-1 -46.961882381664481 19.308876625476081 0 0 0 -1 I I #
point $-1 -46.961882381664481 -19.308876625476081 -5.962139379057569 #
straight-curve $-1 -46.961882381664481 0 -5.962139379057569 0 1 0 I I #
point $-1 -46.961882381664481 19.308876625476081 -5.962139379057569 #
straight-curve $-1 -46.961882381664481 2.8753316471093404 0 0 0 -1 I I #
point $-1 -46.961882381664481 -2.8753316471093404 -1.5 #
straight-curve $-1 -46.961882381664481 0 -1.5 0 1 0 I I #
point $-1 -46.961882381664481 2.8753316471093404 -1.5 #
straight-curve $-1 -46.961882381664481 2.8753316471093413 0 0 0 -1 I I #
point $-1 -46.961882381664481 -2.8753316471093413 -1.5 #
straight-curve $-1 -46.961882381664481 0 -1.5 0 1 0 I I #
point $-1 -46.961882381664481 2.8753316471093413 -1.5 #
straight-curve $-1 -187.84752952665792 2.8461718743270934 0 0 0 -1 I I #
point $-1 -187.84752952665792 -2.8461718743270934 -93.923764763328961 #
straight-curve $-1 -187.84752952665792 0 -93.923764763328961 0 1 0 I I #
point $-1 -187.84752952665792 2.8461718743270934 -93.923764763328961 #
vertex $-1 $715 $812 #
vertex $-1 $717 $813 #
straight-curve $-1 -187.84752952665792 2.8461718743270934 0 0 0 -1 I I #
point $-1 -187.84752952665792 -2.8461718743270934 -93.923764763328961 #
straight-curve $-1 -187.84752952665792 0 -93.923764763328961 0 1 0 I I #
point $-1 -187.84752952665792 2.8461718743270934 -93.923764763328961 #
vertex $-1 $735 $814 #
vertex $-1 $737 $815 #
straight-curve $-1 -187.84752952665792 2.8461718743270934 0 0 0 -1 I I #
point $-1 -187.84752952665792 -2.8461718743270934 -93.923764763328961 #
straight-curve $-1 -187.84752952665792 0 -93.923764763328961 0 1 0 I I #
point $-1 -187.84752952665792 2.8461718743270934 -93.923764763328961 #
vertex $-1 $755 $816 #
vertex $-1 $757 $817 #
straight-curve $-1 -187.84752952665792 3.0318607071563139 0 0 0 -1 I I #
point $-1 -187.84752952665792 -3.0318607071563139 -93.923764763328961 #
straight-curve $-1 -187.84752952665792 0 -93.923764763328961 0 1 0 I I #
point $-1 -187.84752952665792 3.0318607071563139 -93.923764763328961 #
vertex $-1 $775 $818 #
point $-1 0 0 0.25 #
point $-1 0 0 0.25 #
point $-1 0 0 0.25 #
point $-1 0 0 0.25 #
point $-1 0 0 0.25 #
point $-1 0 0 0.25 #
point $-1 0 0 0.5 #
End-of-ACIS-data 