500 0 8 0           
7 Unknown 11 ACIS 5.0 NT 24 Fri Mar 26 15:41:03 1999 
-1 9.9999999999999995e-007 1e-010 
body $-1 $8 $-1 $9 #
body $-1 $10 $-1 $11 #
body $-1 $12 $-1 $13 #
body $-1 $14 $-1 $15 #
body $-1 $16 $-1 $17 #
body $-1 $18 $-1 $19 #
body $-1 $20 $-1 $21 #
body $-1 $22 $-1 $23 #
lump $-1 $-1 $24 $0 #
transform $-1 1 0 0 0 1 0 0 0 1 67.852412488174082 28.020621504104021 12.498751849172459 1 rotate no_reflect no_shear #
lump $-1 $-1 $25 $1 #
transform $-1 1 0 0 0 1 0 0 0 1 67.852412488174082 28.020621504104021 12.498751849172459 1 rotate no_reflect no_shear #
lump $-1 $-1 $26 $2 #
transform $-1 1 0 0 0 1 0 0 0 1 67.852412488174082 28.020621504104021 12.498751849172459 1 rotate no_reflect no_shear #
lump $-1 $-1 $27 $3 #
transform $-1 1 0 0 0 1 0 0 0 1 67.852412488174082 28.020621504104021 12.498751849172459 1 rotate no_reflect no_shear #
lump $-1 $-1 $28 $4 #
transform $-1 1 0 0 0 1 0 0 0 1 67.852412488174082 28.020621504104021 12.498751849172459 1 rotate no_reflect no_shear #
lump $-1 $-1 $29 $5 #
transform $-1 1 0 0 0 1 0 0 0 1 67.852412488174082 28.020621504104021 12.498751849172459 1 rotate no_reflect no_shear #
lump $-1 $-1 $30 $6 #
transform $-1 1 0 0 0 1 0 0 0 1 67.852412488174082 28.020621504104021 12.498751849172459 1 rotate no_reflect no_shear #
lump $-1 $-1 $31 $7 #
transform $-1 1 0 0 0 1 0 0 0 1 67.852412488174082 28.020621504104021 12.498751849172459 1 rotate no_reflect no_shear #
shell $-1 $-1 $-1 $32 $-1 $8 #
shell $-1 $-1 $-1 $33 $-1 $10 #
shell $-1 $-1 $-1 $34 $-1 $12 #
shell $-1 $-1 $-1 $35 $-1 $14 #
shell $-1 $-1 $-1 $36 $-1 $16 #
shell $-1 $-1 $-1 $37 $-1 $18 #
shell $-1 $-1 $-1 $38 $-1 $20 #
shell $-1 $-1 $-1 $39 $-1 $22 #
face $-1 $40 $41 $24 $-1 $42 forward single #
face $-1 $43 $44 $25 $-1 $45 forward single #
face $-1 $46 $47 $26 $-1 $48 reversed single #
face $-1 $49 $50 $27 $-1 $51 forward single #
face $-1 $52 $53 $28 $-1 $54 forward single #
face $-1 $55 $56 $29 $-1 $57 reversed single #
face $-1 $58 $59 $30 $-1 $60 forward single #
face $-1 $61 $62 $31 $-1 $63 forward single #
face $-1 $64 $65 $24 $-1 $66 reversed single #
loop $-1 $-1 $67 $32 #
plane-surface $-1 0 0 12.498751849172459 0 0 1 1 0 0 forward_v I I I I #
face $-1 $68 $69 $25 $-1 $70 reversed single #
loop $-1 $-1 $71 $33 #
plane-surface $-1 -67.852412488174082 0 0 1 0 0 0 0 -1 forward_v I I I I #
face $-1 $72 $73 $26 $-1 $74 reversed single #
loop $-1 $-1 $75 $34 #
plane-surface $-1 50.303760630461369 -28.020621504104028 7.3590903788290518 0 -0.6560590369687036 0.75470957328743171 1 0 0 forward_v I I I I #
face $-1 $76 $77 $27 $-1 $78 forward single #
loop $-1 $79 $80 $35 #
cone-surface $-1 42.782909834298763 -23.307383831310098 7.907740377751125 0 0.6560590369687036 -0.75470957328743171 1.5 0 0 1 I I 0 1 1.5 forward I I I I #
face $-1 $81 $82 $28 $-1 $83 forward single #
loop $-1 $84 $85 $36 #
cone-surface $-1 57.824611426623946 -23.307383831310098 7.907740377751125 0 0.6560590369687036 -0.75470957328743171 1.5 0 0 1 I I 0 1 1.5 forward I I I I #
face $-1 $86 $87 $29 $-1 $88 reversed single #
loop $-1 $-1 $89 $37 #
plane-surface $-1 13.472837890259832 100.45505026451659 129.84754595014917 1 0 0 0 -0.78801076186113728 -0.61566146476048833 forward_v I I I I #
face $-1 $90 $91 $30 $-1 $92 forward single #
loop $-1 $93 $94 $38 #
cone-surface $-1 19.611392723587159 21.053404215427619 5.0371693982922174 0 -0.78801076186113728 -0.61566146476048833 2 0 0 1 I I 0 1 2 forward I I I I #
face $-1 $95 $96 $31 $-1 $97 forward single #
loop $-1 $98 $99 $39 #
cone-surface $-1 28.819224973578173 21.053404215427619 5.0371693982922174 0 -0.78801076186113728 -0.61566146476048833 2 0 0 1 I I 0 1 2 forward I I I I #
face $-1 $100 $101 $24 $-1 $102 reversed single #
loop $-1 $-1 $103 $40 #
plane-surface $-1 0 0 -12.498751849172459 0 0 1 1 0 0 forward_v I I I I #
coedge $-1 $104 $105 $106 $107 forward $41 $-1 #
face $-1 $108 $109 $25 $-1 $110 reversed single #
loop $-1 $-1 $111 $43 #
plane-surface $-1 0 0 -12.498751849172459 0 0 1 1 0 0 forward_v I I I I #
coedge $-1 $112 $113 $114 $115 forward $44 $-1 #
face $-1 $116 $117 $26 $-1 $118 reversed single #
loop $-1 $-1 $119 $46 #
plane-surface $-1 32.755108772748649 -117.05099829009347 109.77682092977437 1 0 0 0 0.6560590369687036 -0.75470957328743171 forward_v I I I I #
coedge $-1 $120 $121 $122 $123 reversed $47 $-1 #
face $-1 $-1 $124 $27 $-1 $125 forward single #
loop $-1 $126 $127 $49 #
cone-surface $-1 42.782909834298763 -21.058353907320114 5.3205274615359084 0 0.6560590369687036 -0.75470957328743171 0.75 0 0 1 I I -0.70710678118654757 0.70710678118654757 0.75 forward I I I I #
loop $-1 $-1 $128 $35 #
coedge $-1 $80 $80 $129 $130 reversed $50 $-1 #
face $-1 $-1 $131 $28 $-1 $132 forward single #
loop $-1 $133 $134 $52 #
cone-surface $-1 57.824611426623946 -21.058353907320114 5.3205274615359084 0 0.6560590369687036 -0.75470957328743171 0.75 0 0 1 I I -0.70710678118654757 0.70710678118654757 0.75 forward I I I I #
loop $-1 $-1 $135 $36 #
coedge $-1 $85 $85 $136 $137 reversed $53 $-1 #
face $-1 $138 $139 $29 $-1 $140 reversed single #
loop $-1 $-1 $141 $55 #
plane-surface $-1 24.21530884858268 -6.4818122533278171 46.299314630144963 0 0.78801076186113728 0.61566146476048833 1 0 0 forward_v I I I I #
coedge $-1 $142 $143 $144 $145 reversed $56 $-1 #
face $-1 $-1 $146 $30 $-1 $147 forward single #
loop $-1 $148 $149 $58 #
cone-surface $-1 19.611392723587159 17.345446474200237 2.1401953914368104 0 -0.78801076186113728 -0.61566146476048833 1 0 0 1 I I -0.70710678118654768 0.70710678118654735 1 forward I I I I #
loop $-1 $-1 $150 $38 #
coedge $-1 $94 $94 $151 $152 reversed $59 $-1 #
face $-1 $-1 $153 $31 $-1 $154 forward single #
loop $-1 $155 $156 $61 #
cone-surface $-1 28.819224973578173 17.345446474200237 2.1401953914368104 0 -0.78801076186113728 -0.61566146476048833 1 0 0 1 I I -0.70710678118654768 0.70710678118654735 1 forward I I I I #
loop $-1 $-1 $157 $39 #
coedge $-1 $99 $99 $158 $159 reversed $62 $-1 #
face $-1 $160 $161 $24 $-1 $162 reversed single #
loop $-1 $-1 $163 $64 #
plane-surface $-1 0 -28.020621504104021 0 0 1 0 0 0 1 forward_v I I I I #
coedge $-1 $164 $165 $166 $167 forward $65 $-1 #
coedge $-1 $168 $67 $169 $170 forward $41 $-1 #
coedge $-1 $67 $168 $171 $172 forward $41 $-1 #
coedge $-1 $173 $174 $67 $107 reversed $175 $-1 #
edge $-1 $176 -28.020621504104021 $177 28.020621504104021 $106 $178 forward 7 unknown #
face $-1 $179 $180 $25 $-1 $181 reversed single #
loop $-1 $-1 $182 $68 #
plane-surface $-1 -73.440564121384739 -8.4380102738056877 0 0 1 0 0 0 1 forward_v I I I I #
coedge $-1 $183 $184 $113 $185 forward $69 $-1 #
coedge $-1 $186 $71 $187 $188 reversed $44 $-1 #
coedge $-1 $71 $186 $111 $185 reversed $44 $-1 #
coedge $-1 $189 $190 $71 $115 reversed $191 $-1 #
edge $-1 $192 -12.498751849172459 $193 12.498751849172459 $114 $194 forward 7 unknown #
face $-1 $195 $196 $26 $-1 $197 forward single #
loop $-1 $-1 $198 $72 #
plane-surface $-1 0 -28.020621504104021 0 0 1 0 0 0 1 forward_v I I I I #
coedge $-1 $199 $200 $201 $202 reversed $73 $-1 #
coedge $-1 $203 $75 $204 $205 reversed $47 $-1 #
coedge $-1 $75 $203 $199 $206 forward $47 $-1 #
coedge $-1 $201 $207 $75 $123 forward $196 $-1 #
edge $-1 $208 -42.700532172943397 $209 -7.6032284575179645 $122 $210 forward 7 unknown #
loop $-1 $-1 $129 $76 #
plane-surface $-1 50.303760630461369 -28.020621504104028 7.3590903788290518 0 -0.6560590369687036 0.75470957328743171 1 0 0 forward_v I I I I #
loop $-1 $-1 $211 $49 #
coedge $-1 $127 $127 $128 $212 reversed $77 $-1 #
coedge $-1 $128 $128 $127 $212 forward $79 $-1 #
coedge $-1 $129 $129 $80 $130 forward $124 $-1 #
edge $-1 $213 -2.2548141627606993e-015 $213 6.2831853071795978 $129 $214 forward 7 unknown #
loop $-1 $-1 $136 $81 #
plane-surface $-1 50.303760630461369 -28.020621504104028 7.3590903788290518 0 -0.6560590369687036 0.75470957328743171 1 0 0 forward_v I I I I #
loop $-1 $-1 $215 $52 #
coedge $-1 $134 $134 $135 $216 reversed $82 $-1 #
coedge $-1 $135 $135 $134 $216 forward $84 $-1 #
coedge $-1 $136 $136 $85 $137 forward $131 $-1 #
edge $-1 $217 -2.2548141627606993e-015 $217 6.2831853071795978 $136 $218 forward 7 unknown #
face $-1 $219 $220 $29 $-1 $221 forward single #
loop $-1 $-1 $222 $86 #
plane-surface $-1 34.957779806905528 100.45505026451659 129.84754595014917 -1 0 0 0 0.78801076186113728 0.61566146476048833 forward_v I I I I #
coedge $-1 $223 $224 $225 $226 reversed $87 $-1 #
coedge $-1 $143 $89 $227 $228 reversed $56 $-1 #
coedge $-1 $89 $142 $223 $229 reversed $56 $-1 #
coedge $-1 $225 $230 $89 $145 forward $220 $-1 #
edge $-1 $231 22.206903628154272 $232 30.301444246774576 $144 $233 forward 7 unknown #
loop $-1 $-1 $151 $90 #
plane-surface $-1 24.21530884858268 -6.4818122533278171 46.299314630144963 0 0.78801076186113728 0.61566146476048833 1 0 0 forward_v I I I I #
loop $-1 $-1 $234 $58 #
coedge $-1 $149 $149 $150 $235 reversed $91 $-1 #
coedge $-1 $150 $150 $149 $235 forward $93 $-1 #
coedge $-1 $151 $151 $94 $152 forward $146 $-1 #
edge $-1 $236 -7.4368737709421157e-016 $236 6.2831853071795996 $151 $237 forward 7 unknown #
loop $-1 $-1 $158 $95 #
plane-surface $-1 24.21530884858268 -6.4818122533278171 46.299314630144963 0 0.78801076186113728 0.61566146476048833 1 0 0 forward_v I I I I #
loop $-1 $-1 $238 $61 #
coedge $-1 $156 $156 $157 $239 reversed $96 $-1 #
coedge $-1 $157 $157 $156 $239 forward $98 $-1 #
coedge $-1 $158 $158 $99 $159 forward $153 $-1 #
edge $-1 $240 -7.4368737709421157e-016 $240 6.2831853071795996 $158 $241 forward 7 unknown #
face $-1 $242 $243 $24 $-1 $244 reversed single #
loop $-1 $-1 $245 $100 #
plane-surface $-1 -67.852412488174082 0 0 1 0 0 0 0 -1 forward_v I I I I #
coedge $-1 $246 $171 $247 $248 forward $101 $-1 #
coedge $-1 $249 $103 $246 $250 forward $65 $-1 #
coedge $-1 $103 $249 $251 $252 forward $65 $-1 #
coedge $-1 $174 $173 $103 $167 reversed $175 $-1 #
edge $-1 $253 -28.020621504104021 $254 28.020621504104021 $166 $255 forward 7 unknown #
coedge $-1 $105 $104 $256 $257 forward $41 $-1 #
coedge $-1 $258 $259 $104 $170 reversed $243 $-1 #
edge $-1 $177 -67.852412488174082 $260 67.852412488174082 $169 $261 forward 7 unknown #
coedge $-1 $163 $262 $105 $172 reversed $101 $-1 #
edge $-1 $263 -67.852412488174082 $176 67.852412488174082 $171 $264 forward 7 unknown #
coedge $-1 $166 $106 $262 $265 forward $175 $-1 #
coedge $-1 $106 $166 $258 $266 reversed $175 $-1 #
loop $-1 $-1 $173 $242 #
vertex $-1 $107 $267 #
vertex $-1 $107 $268 #
straight-curve $-1 67.852412488174082 0 12.498751849172459 0 1 0 I I #
face $-1 $269 $191 $25 $-1 $270 reversed single #
loop $-1 $-1 $271 $108 #
plane-surface $-1 -79.028715754595396 -5.7305640397823971 0 1 0 0 0 0 -1 forward_v I I I I #
coedge $-1 $272 $273 $274 $275 forward $109 $-1 #
coedge $-1 $276 $111 $272 $277 forward $69 $-1 #
coedge $-1 $111 $276 $189 $278 forward $69 $-1 #
edge $-1 $192 3.0231178057591066 $279 8.4380102738056877 $111 $280 forward 7 unknown #
coedge $-1 $113 $112 $281 $282 forward $44 $-1 #
coedge $-1 $283 $284 $112 $188 forward $285 $-1 #
edge $-1 $286 -8.4380102738056877 $193 -3.0231178057591066 $187 $287 forward 7 unknown #
coedge $-1 $288 $114 $184 $278 reversed $191 $-1 #
coedge $-1 $114 $288 $283 $289 reversed $191 $-1 #
loop $-1 $-1 $114 $179 #
vertex $-1 $185 $290 #
vertex $-1 $289 $291 #
straight-curve $-1 -67.852412488174082 -3.0231178057591066 0 0 0 1 I I #
face $-1 $-1 $292 $26 $-1 $293 reversed single #
loop $-1 $-1 $201 $116 #
plane-surface $-1 0 0 12.498751849172459 0 0 1 1 0 0 forward_v I I I I #
coedge $-1 $294 $295 $200 $296 forward $117 $-1 #
coedge $-1 $200 $119 $121 $206 reversed $73 $-1 #
coedge $-1 $119 $199 $198 $296 reversed $73 $-1 #
coedge $-1 $297 $122 $119 $202 forward $196 $-1 #
edge $-1 $209 -36.417381694003666 $298 -30.504877640942716 $201 $299 forward 7 unknown #
coedge $-1 $121 $120 $294 $300 reversed $47 $-1 #
coedge $-1 $301 $302 $120 $205 forward $292 $-1 #
edge $-1 $303 -8.1597167758553635 $208 -0.32557201033088079 $204 $304 forward 7 unknown #
edge $-1 $305 9.44141639987384e-015 $209 7.834144765524492 $199 $306 forward 7 unknown #
coedge $-1 $122 $297 $301 $307 forward $196 $-1 #
vertex $-1 $205 $308 #
vertex $-1 $123 $309 #
straight-curve $-1 25.151880315230684 -22.108117451043071 12.498751849172459 -1 0 0 I I #
coedge $-1 $211 $211 $-1 $310 reversed $126 $-1 #
edge $-1 $311 0 $311 6.2831853071796004 $127 $312 forward 7 unknown #
vertex $-1 $130 $313 #
ellipse-curve $-1 42.782909834298763 -25.064369477573546 9.9289211140007581 0 -0.6560590369687036 0.75470957328743171 1.5 0 0 1 I I #
coedge $-1 $215 $215 $-1 $314 reversed $133 $-1 #
edge $-1 $315 0 $315 6.2831853071796004 $134 $316 forward 7 unknown #
vertex $-1 $137 $317 #
ellipse-curve $-1 57.824611426623946 -25.064369477573546 9.9289211140007581 0 -0.6560590369687036 0.75470957328743171 1.5 0 0 1 I I #
face $-1 $-1 $318 $29 $-1 $319 reversed single #
loop $-1 $-1 $144 $138 #
plane-surface $-1 0 0 12.498751849172459 0 0 1 1 0 0 forward_v I I I I #
coedge $-1 $320 $321 $322 $323 reversed $139 $-1 #
coedge $-1 $324 $141 $143 $229 forward $87 $-1 #
coedge $-1 $141 $324 $320 $325 forward $87 $-1 #
coedge $-1 $322 $144 $141 $226 forward $220 $-1 #
edge $-1 $232 1.3651834659684923 $326 22.850125382614188 $225 $327 forward 7 unknown #
coedge $-1 $328 $329 $142 $228 forward $318 $-1 #
edge $-1 $330 -62.785560943472774 $231 -52.425021125902127 $227 $331 forward 7 unknown #
edge $-1 $232 42.893529399448504 $330 56.041243008208042 $143 $332 forward 7 unknown #
coedge $-1 $144 $322 $328 $333 forward $220 $-1 #
vertex $-1 $228 $334 #
vertex $-1 $145 $335 #
straight-curve $-1 13.472837890259832 50.227525132258293 12.498751849172457 0 -1 0 I I #
coedge $-1 $234 $234 $-1 $336 reversed $148 $-1 #
edge $-1 $337 0 $337 6.2831853071796004 $149 $338 forward 7 unknown #
vertex $-1 $152 $339 #
ellipse-curve $-1 19.611392723587159 23.973351194793864 7.3184819403871373 0 0.78801076186113728 0.61566146476048833 2 0 0 1 I I #
coedge $-1 $238 $238 $-1 $340 reversed $155 $-1 #
edge $-1 $341 0 $341 6.2831853071796004 $156 $342 forward 7 unknown #
vertex $-1 $159 $343 #
ellipse-curve $-1 28.819224973578173 23.973351194793864 7.3184819403871373 0 0.78801076186113728 0.61566146476048833 2 0 0 1 I I #
face $-1 $-1 $175 $24 $-1 $344 reversed single #
loop $-1 $-1 $258 $160 #
plane-surface $-1 0 28.020621504104021 0 0 -1 0 0 0 -1 forward_v I I I I #
coedge $-1 $345 $256 $259 $346 forward $161 $-1 #
coedge $-1 $262 $163 $164 $250 reversed $101 $-1 #
coedge $-1 $256 $345 $163 $248 reversed $161 $-1 #
edge $-1 $263 -12.498751849172459 $347 12.498751849172459 $247 $348 forward 7 unknown #
coedge $-1 $165 $164 $345 $349 forward $65 $-1 #
edge $-1 $254 -67.852412488174082 $347 67.852412488174082 $246 $350 forward 7 unknown #
coedge $-1 $259 $258 $165 $252 reversed $243 $-1 #
edge $-1 $351 -67.852412488174082 $253 67.852412488174082 $251 $352 forward 7 unknown #
vertex $-1 $167 $353 #
vertex $-1 $265 $354 #
straight-curve $-1 67.852412488174082 0 -12.498751849172459 0 -1 0 I I #
coedge $-1 $245 $247 $168 $257 reversed $161 $-1 #
edge $-1 $260 -28.020621504104021 $263 28.020621504104021 $256 $355 forward 7 unknown #
coedge $-1 $251 $169 $174 $266 forward $243 $-1 #
coedge $-1 $169 $251 $245 $346 reversed $243 $-1 #
vertex $-1 $170 $356 #
straight-curve $-1 0 28.020621504104021 12.498751849172459 -1 0 0 I I #
coedge $-1 $171 $246 $173 $265 reversed $101 $-1 #
vertex $-1 $257 $357 #
straight-curve $-1 0 -28.020621504104021 12.498751849172459 1 0 0 I I #
edge $-1 $176 -12.498751849172459 $254 12.498751849172459 $173 $358 forward 7 unknown #
edge $-1 $177 -12.498751849172459 $253 12.498751849172459 $174 $359 forward 7 unknown #
point $-1 67.852412488174082 -28.020621504104021 12.498751849172459 #
point $-1 67.852412488174082 28.020621504104021 12.498751849172459 #
face $-1 $-1 $285 $25 $-1 $360 forward single #
plane-surface $-1 -73.440564121384739 -3.0231178057591066 0 0 -1 0 0 0 -1 forward_v I I I I #
coedge $-1 $361 $362 $288 $363 forward $180 $-1 #
coedge $-1 $281 $182 $183 $277 reversed $109 $-1 #
coedge $-1 $182 $281 $284 $364 reversed $109 $-1 #
coedge $-1 $362 $361 $182 $275 reversed $180 $-1 #
edge $-1 $365 -12.498751849172459 $366 12.498751849172459 $274 $367 forward 7 unknown #
coedge $-1 $184 $183 $361 $368 forward $69 $-1 #
edge $-1 $279 -5.5881516332106571 $366 5.5881516332106571 $272 $369 forward 7 unknown #
edge $-1 $370 -5.5881516332106571 $192 5.5881516332106571 $189 $371 forward 7 unknown #
vertex $-1 $277 $372 #
straight-curve $-1 -67.852412488174082 0 -12.498751849172459 0 -1 0 I I #
coedge $-1 $273 $272 $186 $282 reversed $109 $-1 #
edge $-1 $286 -12.498751849172459 $279 12.498751849172459 $281 $373 forward 7 unknown #
coedge $-1 $374 $187 $190 $289 forward $285 $-1 #
coedge $-1 $187 $374 $273 $364 forward $285 $-1 #
loop $-1 $-1 $187 $269 #
vertex $-1 $188 $375 #
straight-curve $-1 -67.852412488174082 0 12.498751849172459 0 1 0 I I #
coedge $-1 $190 $189 $271 $363 reversed $191 $-1 #
edge $-1 $193 -5.5881516332106571 $376 5.5881516332106571 $190 $377 forward 7 unknown #
point $-1 -67.852412488174082 -3.0231178057591066 -12.498751849172459 #
point $-1 -67.852412488174082 -3.0231178057591066 12.498751849172459 #
loop $-1 $-1 $204 $195 #
plane-surface $-1 67.852412488174082 0 0 -1 0 0 0 0 1 forward_v I I I I #
coedge $-1 $378 $198 $203 $300 forward $117 $-1 #
coedge $-1 $198 $378 $297 $379 reversed $117 $-1 #
edge $-1 $298 42.38965861571473 $305 47.529320086058128 $198 $380 forward 7 unknown #
coedge $-1 $207 $201 $295 $379 forward $196 $-1 #
vertex $-1 $379 $381 #
straight-curve $-1 32.755108772748649 -58.525499145046737 12.498751849172457 0 -1 0 I I #
edge $-1 $305 7.6032284575179645 $303 42.700532172943397 $294 $382 forward 7 unknown #
coedge $-1 $302 $204 $207 $307 reversed $292 $-1 #
coedge $-1 $204 $301 $378 $383 forward $292 $-1 #
vertex $-1 $300 $384 #
straight-curve $-1 67.852412488174082 -21.862405138051923 12.712346308734103 0 0.75470957328743171 0.6560590369687036 I I #
vertex $-1 $300 $385 #
straight-curve $-1 32.755108772748649 -28.020621504104028 7.3590903788290518 0 0.75470957328743171 0.6560590369687036 I I #
edge $-1 $386 -28.020621504104021 $208 -22.108117451043071 $301 $387 forward 7 unknown #
point $-1 67.852412488174082 -22.108117451043071 12.498751849172459 #
point $-1 32.755108772748649 -22.108117451043071 12.498751849172459 #
edge $-1 $388 1 $388 0 $211 $-1 forward 7 unknown #
vertex $-1 $212 $389 #
ellipse-curve $-1 42.782909834298763 -21.550398185046642 5.8865596415014823 0 -0.6560590369687036 0.75470957328743171 1.5 0 0 1 I I #
point $-1 44.282909834298763 -25.064369477573557 9.9289211140007652 #
edge $-1 $390 1 $390 0 $215 $-1 forward 7 unknown #
vertex $-1 $216 $391 #
ellipse-curve $-1 57.824611426623946 -21.550398185046642 5.8865596415014823 0 -0.6560590369687036 0.75470957328743171 1.5 0 0 1 I I #
point $-1 59.324611426623946 -25.064369477573557 9.9289211140007652 #
loop $-1 $-1 $227 $219 #
plane-surface $-1 0 28.020621504104021 0 0 -1 0 0 0 -1 forward_v I I I I #
coedge $-1 $321 $222 $224 $325 reversed $139 $-1 #
coedge $-1 $222 $320 $392 $393 reversed $139 $-1 #
coedge $-1 $230 $225 $222 $323 forward $220 $-1 #
edge $-1 $326 -30.301444246774576 $394 -22.206903628154272 $322 $395 forward 7 unknown #
coedge $-1 $224 $223 $329 $396 reversed $87 $-1 #
edge $-1 $397 -56.041243008208042 $326 -42.893529399448504 $320 $398 forward 7 unknown #
vertex $-1 $226 $399 #
straight-curve $-1 12.10765442429134 19.926080885483721 12.498751849172454 1 0 0 I I #
coedge $-1 $392 $227 $230 $333 reversed $318 $-1 #
coedge $-1 $227 $392 $324 $396 forward $318 $-1 #
vertex $-1 $228 $400 #
straight-curve $-1 13.472837890259832 28.020621504104021 64.923772975074584 0 0 1 I I #
straight-curve $-1 13.472837890259832 -6.4818122533278171 46.299314630144963 0 0.61566146476048833 -0.78801076186113728 I I #
edge $-1 $394 -34.957779806905528 $231 -13.472837890259832 $328 $401 forward 7 unknown #
point $-1 13.472837890259832 28.020621504104021 12.498751849172459 #
point $-1 13.472837890259832 19.926080885483717 12.498751849172457 #
edge $-1 $402 1 $402 0 $234 $-1 forward 7 unknown #
vertex $-1 $235 $403 #
ellipse-curve $-1 19.611392723587159 18.133457236061375 2.7558568561972985 0 0.78801076186113728 0.61566146476048833 2 0 0 1 I I #
point $-1 21.611392723587159 23.97335119479386 7.3184819403871364 #
edge $-1 $404 1 $404 0 $238 $-1 forward 7 unknown #
vertex $-1 $239 $405 #
ellipse-curve $-1 28.819224973578173 18.133457236061375 2.7558568561972985 0 0.78801076186113728 0.61566146476048833 2 0 0 1 I I #
point $-1 30.819224973578173 23.97335119479386 7.3184819403871364 #
plane-surface $-1 67.852412488174082 0 0 -1 0 0 0 0 1 forward_v I I I I #
coedge $-1 $247 $245 $249 $349 reversed $161 $-1 #
edge $-1 $260 -12.498751849172459 $351 12.498751849172459 $259 $406 forward 7 unknown #
vertex $-1 $349 $407 #
straight-curve $-1 -67.852412488174082 -28.020621504104021 0 0 0 -1 I I #
edge $-1 $347 -28.020621504104021 $351 28.020621504104021 $345 $408 forward 7 unknown #
straight-curve $-1 0 -28.020621504104021 -12.498751849172459 -1 0 0 I I #
vertex $-1 $252 $409 #
straight-curve $-1 0 28.020621504104021 -12.498751849172459 1 0 0 I I #
point $-1 67.852412488174082 28.020621504104021 -12.498751849172459 #
point $-1 67.852412488174082 -28.020621504104021 -12.498751849172459 #
straight-curve $-1 -67.852412488174082 0 12.498751849172459 0 -1 0 I I #
point $-1 -67.852412488174082 28.020621504104021 12.498751849172459 #
point $-1 -67.852412488174082 -28.020621504104021 12.498751849172459 #
straight-curve $-1 67.852412488174082 -28.020621504104021 0 0 0 -1 I I #
straight-curve $-1 67.852412488174082 28.020621504104021 0 0 0 -1 I I #
plane-surface $-1 0 0 12.498751849172459 0 0 1 1 0 0 forward_v I I I I #
coedge $-1 $274 $271 $276 $368 reversed $180 $-1 #
coedge $-1 $271 $274 $374 $410 reversed $180 $-1 #
edge $-1 $376 -12.498751849172459 $370 12.498751849172459 $288 $411 forward 7 unknown #
edge $-1 $365 -5.5881516332106571 $286 5.5881516332106571 $273 $412 forward 7 unknown #
vertex $-1 $410 $413 #
vertex $-1 $368 $414 #
straight-curve $-1 -79.028715754595396 -8.4380102738056877 0 0 0 -1 I I #
edge $-1 $366 -2.7074462340232905 $370 2.7074462340232905 $361 $415 forward 7 unknown #
straight-curve $-1 -73.440564121384739 -8.4380102738056877 -12.498751849172459 -1 0 0 I I #
vertex $-1 $278 $416 #
straight-curve $-1 -73.440564121384739 -3.0231178057591066 -12.498751849172459 1 0 0 I I #
point $-1 -67.852412488174082 -8.4380102738056877 -12.498751849172459 #
straight-curve $-1 -67.852412488174082 -8.4380102738056877 0 0 0 -1 I I #
coedge $-1 $284 $283 $362 $410 forward $285 $-1 #
point $-1 -67.852412488174082 -8.4380102738056877 12.498751849172459 #
vertex $-1 $289 $417 #
straight-curve $-1 -73.440564121384739 -3.0231178057591066 12.498751849172459 -1 0 0 I I #
coedge $-1 $295 $294 $302 $383 reversed $117 $-1 #
edge $-1 $298 32.755108772748649 $386 67.852412488174082 $295 $418 forward 7 unknown #
straight-curve $-1 32.755108772748649 -28.020621504104021 54.888410464887187 0 0 -1 I I #
point $-1 32.755108772748649 -28.020621504104021 12.498751849172459 #
straight-curve $-1 25.151880315230684 -28.020621504104021 7.3590903788290571 1 0 0 I I #
edge $-1 $386 -12.498751849172459 $303 -7.359090378829058 $302 $419 forward 7 unknown #
point $-1 67.852412488174082 -28.020621504104021 7.359090378829058 #
point $-1 32.755108772748649 -28.020621504104021 7.359090378829058 #
vertex $-1 $307 $420 #
straight-curve $-1 67.852412488174082 0 12.498751849172459 0 1 0 I I #
vertex $-1 $310 $421 #
point $-1 44.282909834298763 -21.550398185046642 5.8865596415014823 #
vertex $-1 $314 $422 #
point $-1 59.324611426623946 -21.550398185046642 5.8865596415014823 #
coedge $-1 $329 $328 $321 $393 forward $318 $-1 #
edge $-1 $394 52.425021125902127 $397 62.785560943472774 $392 $423 forward 7 unknown #
vertex $-1 $333 $424 #
straight-curve $-1 34.957779806905528 50.227525132258293 12.498751849172457 0 1 0 I I #
edge $-1 $397 -22.850125382614188 $330 -1.3651834659684923 $329 $425 forward 7 unknown #
vertex $-1 $396 $426 #
straight-curve $-1 34.957779806905528 -6.4818122533278171 46.299314630144963 0 -0.61566146476048833 0.78801076186113728 I I #
point $-1 34.957779806905528 19.926080885483717 12.498751849172457 #
point $-1 13.472837890259832 28.020621504104021 2.1382120316018103 #
straight-curve $-1 0 28.020621504104021 12.498751849172459 -1 0 0 I I #
vertex $-1 $336 $427 #
point $-1 21.611392723587159 18.133457236061375 2.7558568561972985 #
vertex $-1 $340 $428 #
point $-1 30.819224973578173 18.133457236061375 2.7558568561972985 #
straight-curve $-1 -67.852412488174082 28.020621504104021 0 0 0 -1 I I #
point $-1 -67.852412488174082 -28.020621504104021 -12.498751849172459 #
straight-curve $-1 -67.852412488174082 0 -12.498751849172459 0 1 0 I I #
point $-1 -67.852412488174082 28.020621504104021 -12.498751849172459 #
edge $-1 $376 -2.7074462340232905 $365 2.7074462340232905 $362 $429 forward 7 unknown #
straight-curve $-1 -79.028715754595396 -3.0231178057591066 0 0 0 -1 I I #
straight-curve $-1 -73.440564121384739 -8.4380102738056877 12.498751849172459 1 0 0 I I #
point $-1 -79.028715754595396 -8.4380102738056877 12.498751849172459 #
point $-1 -79.028715754595396 -8.4380102738056877 -12.498751849172459 #
straight-curve $-1 -79.028715754595396 -5.7305640397823971 -12.498751849172459 0 1 0 I I #
point $-1 -79.028715754595396 -3.0231178057591066 -12.498751849172459 #
point $-1 -79.028715754595396 -3.0231178057591066 12.498751849172459 #
straight-curve $-1 0 -28.020621504104021 12.498751849172459 1 0 0 I I #
straight-curve $-1 67.852412488174082 -28.020621504104021 0 0 0 -1 I I #
point $-1 67.852412488174082 -28.020621504104021 12.498751849172459 #
point $-1 42.782909834298763 -20.566309629593587 4.7544952815703345 #
point $-1 57.824611426623946 -20.566309629593587 4.7544952815703345 #
straight-curve $-1 34.957779806905528 28.020621504104021 64.923772975074584 0 0 -1 I I #
point $-1 34.957779806905528 28.020621504104021 12.498751849172459 #
straight-curve $-1 12.10765442429134 28.020621504104021 2.1382120316018138 -1 0 0 I I #
point $-1 34.957779806905528 28.020621504104021 2.1382120316018103 #
point $-1 19.611392723587159 16.5574357123391 1.5245339266763223 #
point $-1 28.819224973578173 16.5574357123391 1.5245339266763223 #
straight-curve $-1 -79.028715754595396 -5.7305640397823971 12.498751849172459 0 -1 0 I I #
End-of-ACIS-data 