500 0 9 0           
7 Unknown 11 ACIS 5.0 NT 24 Thu Mar 25 21:12:33 1999 
-1 9.9999999999999995e-007 1e-010 
body $-1 $9 $-1 $10 #
body $-1 $11 $-1 $12 #
body $-1 $13 $-1 $14 #
body $-1 $15 $-1 $16 #
body $-1 $17 $-1 $18 #
body $-1 $19 $-1 $20 #
body $-1 $21 $-1 $22 #
body $-1 $23 $-1 $24 #
body $-1 $25 $-1 $26 #
lump $-1 $-1 $27 $0 #
transform $-1 1 0 0 0 1 0 0 0 1 55.076143681142611 29.663328228719035 11.489549329521573 1 rotate no_reflect no_shear #
lump $-1 $-1 $28 $1 #
transform $-1 1 0 0 0 1 0 0 0 1 55.076143681142611 29.663328228719035 11.489549329521573 1 rotate no_reflect no_shear #
lump $-1 $-1 $29 $2 #
transform $-1 1 0 0 0 1 0 0 0 1 55.076143681142611 29.663328228719035 11.489549329521573 1 rotate no_reflect no_shear #
lump $-1 $-1 $30 $3 #
transform $-1 1 0 0 0 1 0 0 0 1 55.076143681142611 29.663328228719035 11.489549329521573 1 rotate no_reflect no_shear #
lump $-1 $-1 $31 $4 #
transform $-1 1 0 0 0 1 0 0 0 1 55.076143681142611 29.663328228719035 11.489549329521573 1 rotate no_reflect no_shear #
lump $-1 $-1 $32 $5 #
transform $-1 1 0 0 0 1 0 0 0 1 55.076143681142611 29.663328228719035 11.489549329521573 1 rotate no_reflect no_shear #
lump $-1 $-1 $33 $6 #
transform $-1 1 0 0 0 1 0 0 0 1 55.076143681142611 29.663328228719035 11.489549329521573 1 rotate no_reflect no_shear #
lump $-1 $-1 $34 $7 #
transform $-1 1 0 0 0 1 0 0 0 1 55.076143681142611 29.663328228719035 11.489549329521573 1 rotate no_reflect no_shear #
lump $-1 $-1 $35 $8 #
transform $-1 1 0 0 0 1 0 0 0 1 55.076143681142611 29.663328228719035 11.489549329521573 1 rotate no_reflect no_shear #
shell $-1 $-1 $-1 $36 $-1 $9 #
shell $-1 $-1 $-1 $37 $-1 $11 #
shell $-1 $-1 $-1 $38 $-1 $13 #
shell $-1 $-1 $-1 $39 $-1 $15 #
shell $-1 $-1 $-1 $40 $-1 $17 #
shell $-1 $-1 $-1 $41 $-1 $19 #
shell $-1 $-1 $-1 $42 $-1 $21 #
shell $-1 $-1 $-1 $43 $-1 $23 #
shell $-1 $-1 $-1 $44 $-1 $25 #
face $-1 $45 $46 $27 $-1 $47 forward single #
face $-1 $48 $49 $28 $-1 $50 reversed single #
face $-1 $51 $52 $29 $-1 $53 reversed single #
face $-1 $54 $55 $30 $-1 $56 reversed single #
face $-1 $57 $58 $31 $-1 $59 forward single #
face $-1 $60 $61 $32 $-1 $62 reversed single #
face $-1 $63 $64 $33 $-1 $65 forward single #
face $-1 $66 $67 $34 $-1 $68 forward single #
face $-1 $69 $70 $35 $-1 $71 forward single #
face $-1 $72 $73 $27 $-1 $74 reversed single #
loop $-1 $-1 $75 $36 #
plane-surface $-1 0 0 11.489549329521573 0 0 1 1 0 0 forward_v I I I I #
face $-1 $76 $77 $28 $-1 $78 reversed single #
loop $-1 $-1 $79 $37 #
plane-surface $-1 -53.576143681142611 -15.228657498473227 0 0 -1 0 0 0 -1 forward_v I I I I #
face $-1 $80 $81 $29 $-1 $82 reversed single #
loop $-1 $-1 $83 $38 #
plane-surface $-1 -53.576143681142611 15.228657498473233 0 0 1 0 0 0 1 forward_v I I I I #
face $-1 $84 $85 $30 $-1 $86 reversed single #
loop $-1 $-1 $87 $39 #
plane-surface $-1 87.464391829449909 15.228657498473229 154.03728662959421 0 -1 0 -0.83867057594974714 0 -0.54463902268945019 forward_v I I I I #
face $-1 $88 $89 $31 $-1 $90 forward single #
loop $-1 $91 $92 $40 #
cone-surface $-1 50.936320628438992 11.371762123040593 5.9597942411266462 -0.83867057594974714 0 -0.54463902268945019 0.81695853403417529 0 -1.2580058639246208 1 I I 0 1 1.5 forward I I I I #
face $-1 $93 $94 $32 $-1 $95 reversed single #
loop $-1 $-1 $96 $41 #
plane-surface $-1 -136.93524696111666 -9.3142369825178815 80.105490007057426 0 1 0 -0.74314483375859142 0 0.66913059716165679 forward_v I I I I #
face $-1 $97 $98 $33 $-1 $99 forward single #
loop $-1 $100 $101 $42 #
cone-surface $-1 -52.322869687526122 -8.0875439735044026 8.5287608215922166 0.74314483375859142 0 -0.66913059716165679 0.3345652985808284 0 0.37157241687929571 1 I I 0 1 0.5 forward I I I I #
face $-1 $102 $103 $34 $-1 $104 forward single #
loop $-1 $105 $106 $43 #
cone-surface $-1 -52.322869687526122 -6.2475044599841887 8.5287608215922166 0.74314483375859142 0 -0.66913059716165679 0.3345652985808284 0 0.37157241687929571 1 I I 0 1 0.5 forward I I I I #
face $-1 $107 $108 $35 $-1 $109 forward single #
loop $-1 $110 $111 $44 #
cone-surface $-1 -52.322869687526122 -4.4074649464639748 8.5287608215922166 0.74314483375859142 0 -0.66913059716165679 0.3345652985808284 0 0.37157241687929571 1 I I 0 1 0.5 forward I I I I #
face $-1 $112 $113 $27 $-1 $114 reversed single #
loop $-1 $-1 $115 $45 #
plane-surface $-1 0 0 -11.489549329521573 0 0 1 1 0 0 forward_v I I I I #
coedge $-1 $116 $117 $118 $119 forward $46 $-1 #
face $-1 $120 $121 $28 $-1 $122 forward single #
loop $-1 $-1 $123 $48 #
plane-surface $-1 -52.076143681142611 -22.445992863596132 0 -1 0 0 0 0 1 forward_v I I I I #
coedge $-1 $124 $125 $126 $127 forward $49 $-1 #
face $-1 $128 $129 $29 $-1 $130 reversed single #
loop $-1 $-1 $131 $51 #
plane-surface $-1 -52.076143681142611 22.445992863596135 0 -1 0 0 0 0 1 forward_v I I I I #
coedge $-1 $132 $133 $134 $135 reversed $52 $-1 #
face $-1 $136 $137 $30 $-1 $138 reversed single #
loop $-1 $-1 $139 $54 #
plane-surface $-1 -4.9170904548598884 11.371762123040593 94.044052493591707 0.83867057594974714 0 0.54463902268945019 0.54463902268945019 0 -0.83867057594974714 forward_v I I I I #
coedge $-1 $140 $141 $142 $143 reversed $55 $-1 #
face $-1 $-1 $144 $31 $-1 $145 forward single #
loop $-1 $146 $147 $57 #
cone-surface $-1 49.358351970546423 11.371762123040593 4.9350494458344727 -0.83867057594974714 0 -0.54463902268945019 0.40847926701708764 0 -0.62900293196231039 1 I I -0.70710678118654757 0.70710678118654757 0.75 forward I I I I #
loop $-1 $-1 $148 $40 #
coedge $-1 $92 $92 $149 $150 reversed $58 $-1 #
face $-1 $151 $152 $32 $-1 $153 reversed single #
loop $-1 $-1 $154 $60 #
plane-surface $-1 -55.076143681142625 -6.2475044599841887 6.3992241856090999 -0.74314483375859142 0 0.66913059716165679 0.66913059716165679 0 0.74314483375859142 forward_v I I I I #
coedge $-1 $155 $156 $157 $158 reversed $61 $-1 #
face $-1 $-1 $159 $33 $-1 $160 forward single #
loop $-1 $161 $162 $63 #
cone-surface $-1 -51.675484101618636 -8.0875439735044026 7.9458522363286832 0.74314483375859142 0 -0.66913059716165679 0.1672826492904142 0 0.18578620843964785 1 I I -0.70710678118654746 0.70710678118654746 0.25 forward I I I I #
loop $-1 $-1 $163 $42 #
coedge $-1 $101 $101 $164 $165 reversed $64 $-1 #
face $-1 $-1 $166 $34 $-1 $167 forward single #
loop $-1 $168 $169 $66 #
cone-surface $-1 -51.675484101618636 -6.2475044599841887 7.9458522363286832 0.74314483375859142 0 -0.66913059716165679 0.1672826492904142 0 0.18578620843964785 1 I I -0.70710678118654746 0.70710678118654746 0.25 forward I I I I #
loop $-1 $-1 $170 $43 #
coedge $-1 $106 $106 $171 $172 reversed $67 $-1 #
face $-1 $-1 $173 $35 $-1 $174 forward single #
loop $-1 $175 $176 $69 #
cone-surface $-1 -51.675484101618636 -4.4074649464639748 7.9458522363286832 0.74314483375859142 0 -0.66913059716165679 0.1672826492904142 0 0.18578620843964785 1 I I -0.70710678118654746 0.70710678118654746 0.25 forward I I I I #
loop $-1 $-1 $177 $44 #
coedge $-1 $111 $111 $178 $179 reversed $70 $-1 #
face $-1 $180 $181 $27 $-1 $182 reversed single #
loop $-1 $-1 $183 $72 #
plane-surface $-1 0 -29.663328228719035 0 0 1 0 0 0 1 forward_v I I I I #
coedge $-1 $184 $185 $186 $187 forward $73 $-1 #
coedge $-1 $188 $75 $189 $190 forward $46 $-1 #
coedge $-1 $75 $188 $191 $192 forward $46 $-1 #
coedge $-1 $193 $194 $75 $119 reversed $195 $-1 #
edge $-1 $196 -29.663328228719035 $197 29.663328228719035 $118 $198 forward 7 unknown #
face $-1 $199 $200 $28 $-1 $201 reversed single #
loop $-1 $-1 $202 $76 #
plane-surface $-1 0 0 11.489549329521573 0 0 1 1 0 0 forward_v I I I I #
coedge $-1 $203 $204 $205 $206 reversed $77 $-1 #
coedge $-1 $207 $79 $208 $209 reversed $49 $-1 #
coedge $-1 $79 $207 $210 $211 reversed $49 $-1 #
coedge $-1 $204 $203 $79 $127 reversed $77 $-1 #
edge $-1 $212 -11.489549329521573 $213 11.489549329521573 $126 $214 forward 7 unknown #
face $-1 $215 $216 $29 $-1 $217 reversed single #
loop $-1 $-1 $218 $80 #
plane-surface $-1 0 0 -11.489549329521573 0 0 1 1 0 0 forward_v I I I I #
coedge $-1 $219 $220 $221 $222 forward $81 $-1 #
coedge $-1 $221 $83 $223 $224 reversed $52 $-1 #
coedge $-1 $83 $221 $225 $226 reversed $52 $-1 #
coedge $-1 $227 $228 $83 $135 forward $216 $-1 #
edge $-1 $229 -11.489549329521573 $230 11.489549329521573 $134 $231 forward 7 unknown #
face $-1 $232 $233 $30 $-1 $234 reversed single #
loop $-1 $-1 $235 $84 #
plane-surface $-1 87.464391829449909 7.5148667476079574 154.03728662959421 0 1 0 0.83867057594974714 0 0.54463902268945019 forward_v I I I I #
coedge $-1 $236 $237 $238 $239 reversed $85 $-1 #
coedge $-1 $141 $87 $240 $241 reversed $55 $-1 #
coedge $-1 $87 $140 $236 $242 reversed $55 $-1 #
coedge $-1 $238 $243 $87 $143 forward $244 $-1 #
edge $-1 $245 -11.343947766417656 $246 -4.9622331128709334 $142 $247 forward 7 unknown #
loop $-1 $-1 $149 $88 #
plane-surface $-1 -4.9170904548598884 11.371762123040593 94.044052493591707 0.83867057594974714 0 0.54463902268945019 0.54463902268945019 0 -0.83867057594974714 forward_v I I I I #
loop $-1 $-1 $248 $57 #
coedge $-1 $147 $147 $148 $249 reversed $89 $-1 #
coedge $-1 $148 $148 $147 $249 forward $91 $-1 #
coedge $-1 $149 $149 $92 $150 forward $144 $-1 #
edge $-1 $250 0 $250 6.2831853071796004 $149 $251 forward 7 unknown #
face $-1 $252 $253 $32 $-1 $254 forward single #
loop $-1 $-1 $255 $93 #
plane-surface $-1 -136.93524696111666 -3.1807719374504959 80.105490007057426 0 -1 0 0.74314483375859142 0 -0.66913059716165679 forward_v I I I I #
coedge $-1 $256 $257 $258 $259 reversed $94 $-1 #
coedge $-1 $156 $96 $260 $261 reversed $61 $-1 #
coedge $-1 $96 $155 $256 $262 reversed $61 $-1 #
coedge $-1 $258 $263 $96 $158 forward $253 $-1 #
edge $-1 $264 13.39147979941572 $265 17.974829031713014 $157 $266 forward 7 unknown #
loop $-1 $-1 $164 $97 #
plane-surface $-1 -55.076143681142625 -6.2475044599841887 6.3992241856090999 -0.74314483375859142 0 0.66913059716165679 0.66913059716165679 0 0.74314483375859142 forward_v I I I I #
loop $-1 $-1 $267 $63 #
coedge $-1 $162 $162 $163 $268 reversed $98 $-1 #
coedge $-1 $163 $163 $162 $268 forward $100 $-1 #
coedge $-1 $164 $164 $101 $165 forward $159 $-1 #
edge $-1 $269 0 $269 6.2831853071796004 $164 $270 forward 7 unknown #
loop $-1 $-1 $171 $102 #
plane-surface $-1 -55.076143681142625 -6.2475044599841887 6.3992241856090999 -0.74314483375859142 0 0.66913059716165679 0.66913059716165679 0 0.74314483375859142 forward_v I I I I #
loop $-1 $-1 $271 $66 #
coedge $-1 $169 $169 $170 $272 reversed $103 $-1 #
coedge $-1 $170 $170 $169 $272 forward $105 $-1 #
coedge $-1 $171 $171 $106 $172 forward $166 $-1 #
edge $-1 $273 0 $273 6.2831853071796004 $171 $274 forward 7 unknown #
loop $-1 $-1 $178 $107 #
plane-surface $-1 -55.076143681142625 -6.2475044599841887 6.3992241856090999 -0.74314483375859142 0 0.66913059716165679 0.66913059716165679 0 0.74314483375859142 forward_v I I I I #
loop $-1 $-1 $275 $69 #
coedge $-1 $176 $176 $177 $276 reversed $108 $-1 #
coedge $-1 $177 $177 $176 $276 forward $110 $-1 #
coedge $-1 $178 $178 $111 $179 forward $173 $-1 #
edge $-1 $277 0 $277 6.2831853071796004 $178 $278 forward 7 unknown #
face $-1 $279 $280 $27 $-1 $281 reversed single #
loop $-1 $-1 $282 $112 #
plane-surface $-1 -55.076143681142611 0 0 1 0 0 0 0 -1 forward_v I I I I #
coedge $-1 $283 $191 $284 $285 forward $113 $-1 #
coedge $-1 $286 $115 $283 $287 forward $73 $-1 #
coedge $-1 $115 $286 $288 $289 forward $73 $-1 #
coedge $-1 $194 $193 $115 $187 reversed $195 $-1 #
edge $-1 $290 -29.663328228719035 $291 29.663328228719035 $186 $292 forward 7 unknown #
coedge $-1 $117 $116 $293 $294 forward $46 $-1 #
coedge $-1 $295 $296 $116 $190 reversed $280 $-1 #
edge $-1 $197 -55.076143681142611 $297 55.076143681142611 $189 $298 forward 7 unknown #
coedge $-1 $183 $299 $117 $192 reversed $113 $-1 #
edge $-1 $300 -55.076143681142611 $196 55.076143681142611 $191 $301 forward 7 unknown #
coedge $-1 $186 $118 $299 $302 forward $195 $-1 #
coedge $-1 $118 $186 $295 $303 reversed $195 $-1 #
loop $-1 $-1 $193 $279 #
vertex $-1 $119 $304 #
vertex $-1 $119 $305 #
straight-curve $-1 55.076143681142611 0 11.489549329521573 0 1 0 I I #
face $-1 $306 $307 $28 $-1 $308 reversed single #
loop $-1 $-1 $309 $120 #
plane-surface $-1 -55.076143681142611 0 0 1 0 0 0 0 -1 forward_v I I I I #
coedge $-1 $210 $310 $204 $311 forward $121 $-1 #
coedge $-1 $126 $123 $312 $313 reversed $77 $-1 #
coedge $-1 $123 $126 $202 $311 reversed $77 $-1 #
coedge $-1 $314 $315 $123 $206 forward $316 $-1 #
edge $-1 $317 -11.489549329521573 $318 11.489549329521573 $205 $319 forward 7 unknown #
coedge $-1 $125 $124 $309 $320 reversed $49 $-1 #
coedge $-1 $312 $321 $124 $209 forward $307 $-1 #
edge $-1 $322 -28.288071840571305 $213 -25.288071840571305 $208 $323 forward 7 unknown #
coedge $-1 $324 $202 $125 $211 forward $121 $-1 #
edge $-1 $212 25.288071840571305 $325 28.288071840571305 $210 $326 forward 7 unknown #
vertex $-1 $211 $327 #
vertex $-1 $209 $328 #
straight-curve $-1 -52.076143681142611 -15.228657498473227 0 0 0 -1 I I #
face $-1 $329 $330 $29 $-1 $331 forward single #
loop $-1 $-1 $134 $128 #
plane-surface $-1 -55.076143681142611 0 0 1 0 0 0 0 -1 forward_v I I I I #
coedge $-1 $223 $332 $219 $333 forward $129 $-1 #
coedge $-1 $334 $131 $218 $333 reversed $81 $-1 #
coedge $-1 $131 $334 $335 $336 reversed $81 $-1 #
coedge $-1 $133 $132 $131 $222 reversed $52 $-1 #
edge $-1 $337 -11.489549329521573 $338 11.489549329521573 $131 $339 forward 7 unknown #
coedge $-1 $340 $218 $132 $224 forward $129 $-1 #
edge $-1 $338 25.288071840571305 $229 28.288071840571305 $223 $341 forward 7 unknown #
coedge $-1 $335 $342 $133 $226 forward $330 $-1 #
edge $-1 $230 -28.288071840571305 $337 -25.288071840571305 $225 $343 forward 7 unknown #
coedge $-1 $344 $134 $342 $345 reversed $216 $-1 #
coedge $-1 $134 $344 $340 $346 reversed $216 $-1 #
vertex $-1 $346 $347 #
vertex $-1 $135 $348 #
straight-curve $-1 -55.076143681142611 15.228657498473233 0 0 0 1 I I #
face $-1 $-1 $244 $30 $-1 $349 forward single #
loop $-1 $-1 $350 $136 #
plane-surface $-1 55.076143681142611 0 0 -1 0 0 0 0 1 forward_v I I I I #
coedge $-1 $351 $352 $353 $354 reversed $137 $-1 #
coedge $-1 $355 $139 $141 $242 forward $85 $-1 #
coedge $-1 $139 $355 $351 $356 forward $85 $-1 #
coedge $-1 $353 $142 $139 $239 forward $244 $-1 #
edge $-1 $246 -9.5427764369529324 $357 -1.8289856860876608 $238 $358 forward 7 unknown #
coedge $-1 $359 $360 $140 $241 forward $233 $-1 #
edge $-1 $361 -75.356073105515193 $245 -65.529093985275523 $240 $362 forward 7 unknown #
edge $-1 $246 98.434958291677049 $361 110.15228736228522 $141 $363 forward 7 unknown #
coedge $-1 $142 $353 $359 $364 forward $244 $-1 #
loop $-1 $-1 $353 $232 #
vertex $-1 $241 $365 #
vertex $-1 $143 $366 #
straight-curve $-1 43.732195914724954 15.228657498473229 11.489549329521566 -1 0 0 I I #
coedge $-1 $248 $248 $-1 $367 reversed $146 $-1 #
edge $-1 $368 0 $368 6.2831853071796004 $147 $369 forward 7 unknown #
vertex $-1 $150 $370 #
ellipse-curve $-1 51.885286354369256 11.371762123040593 6.5760597694017333 0.83867057594974714 0 0.54463902268945019 0.81695853403417529 0 -1.2580058639246208 1 I I #
face $-1 $-1 $371 $32 $-1 $372 reversed single #
loop $-1 $-1 $157 $151 #
plane-surface $-1 0 0 11.489549329521573 0 0 1 1 0 0 forward_v I I I I #
coedge $-1 $373 $374 $375 $376 reversed $152 $-1 #
coedge $-1 $377 $154 $156 $262 forward $94 $-1 #
coedge $-1 $154 $377 $373 $378 forward $94 $-1 #
coedge $-1 $375 $157 $154 $259 forward $253 $-1 #
edge $-1 $265 -6.1904847525257871 $379 -0.05701970745840157 $258 $380 forward 7 unknown #
coedge $-1 $381 $382 $155 $261 forward $371 $-1 #
edge $-1 $383 -33.653520817919599 $264 -28.56319567400714 $260 $384 forward 7 unknown #
edge $-1 $265 -6.8497080416575322 $383 -2.1389731374768986e-014 $156 $385 forward 7 unknown #
coedge $-1 $157 $375 $381 $386 forward $253 $-1 #
vertex $-1 $158 $387 #
vertex $-1 $158 $388 #
straight-curve $-1 -68.467623480558331 -9.3142369825178815 11.489549329521573 1 0 0 I I #
coedge $-1 $267 $267 $-1 $389 reversed $161 $-1 #
edge $-1 $390 0 $390 6.2831853071796004 $162 $391 forward 7 unknown #
vertex $-1 $165 $392 #
ellipse-curve $-1 -52.784469064993964 -8.0875439735044026 8.9443867575653417 -0.74314483375859142 0 0.66913059716165679 0.3345652985808284 0 0.37157241687929571 1 I I #
coedge $-1 $271 $271 $-1 $393 reversed $168 $-1 #
edge $-1 $394 0 $394 6.2831853071796004 $169 $395 forward 7 unknown #
vertex $-1 $172 $396 #
ellipse-curve $-1 -52.784469064993964 -6.2475044599841887 8.9443867575653417 -0.74314483375859142 0 0.66913059716165679 0.3345652985808284 0 0.37157241687929571 1 I I #
coedge $-1 $275 $275 $-1 $397 reversed $175 $-1 #
edge $-1 $398 0 $398 6.2831853071796004 $176 $399 forward 7 unknown #
vertex $-1 $179 $400 #
ellipse-curve $-1 -52.784469064993964 -4.4074649464639748 8.9443867575653417 -0.74314483375859142 0 0.66913059716165679 0.3345652985808284 0 0.37157241687929571 1 I I #
face $-1 $-1 $195 $27 $-1 $401 reversed single #
loop $-1 $-1 $295 $180 #
plane-surface $-1 0 29.663328228719035 0 0 -1 0 0 0 -1 forward_v I I I I #
coedge $-1 $402 $293 $296 $403 forward $181 $-1 #
coedge $-1 $299 $183 $184 $287 reversed $113 $-1 #
coedge $-1 $293 $402 $183 $285 reversed $181 $-1 #
edge $-1 $300 -11.489549329521573 $404 11.489549329521573 $284 $405 forward 7 unknown #
coedge $-1 $185 $184 $402 $406 forward $73 $-1 #
edge $-1 $291 -55.076143681142611 $404 55.076143681142611 $283 $407 forward 7 unknown #
coedge $-1 $296 $295 $185 $289 reversed $280 $-1 #
edge $-1 $408 -55.076143681142611 $290 55.076143681142611 $288 $409 forward 7 unknown #
vertex $-1 $187 $410 #
vertex $-1 $302 $411 #
straight-curve $-1 55.076143681142611 0 -11.489549329521573 0 -1 0 I I #
coedge $-1 $282 $284 $188 $294 reversed $181 $-1 #
edge $-1 $297 -29.663328228719035 $300 29.663328228719035 $293 $412 forward 7 unknown #
coedge $-1 $288 $189 $194 $303 forward $280 $-1 #
coedge $-1 $189 $288 $282 $403 reversed $280 $-1 #
vertex $-1 $190 $413 #
straight-curve $-1 0 29.663328228719035 11.489549329521573 -1 0 0 I I #
coedge $-1 $191 $283 $193 $302 reversed $113 $-1 #
vertex $-1 $294 $414 #
straight-curve $-1 0 -29.663328228719035 11.489549329521573 1 0 0 I I #
edge $-1 $196 -11.489549329521573 $291 11.489549329521573 $193 $415 forward 7 unknown #
edge $-1 $197 -11.489549329521573 $290 11.489549329521573 $194 $416 forward 7 unknown #
point $-1 55.076143681142611 -29.663328228719035 11.489549329521573 #
point $-1 55.076143681142611 29.663328228719035 11.489549329521573 #
face $-1 $-1 $316 $28 $-1 $417 reversed single #
loop $-1 $-1 $312 $199 #
plane-surface $-1 0 0 -11.489549329521573 0 0 1 1 0 0 forward_v I I I I #
coedge $-1 $418 $419 $207 $320 forward $200 $-1 #
coedge $-1 $202 $324 $314 $420 forward $121 $-1 #
edge $-1 $318 -18.440331796920972 $212 -4.0056610666751613 $202 $421 forward 7 unknown #
coedge $-1 $422 $208 $203 $313 forward $307 $-1 #
edge $-1 $213 4.0056610666751613 $317 18.440331796920972 $312 $423 forward 7 unknown #
coedge $-1 $424 $205 $310 $420 reversed $316 $-1 #
coedge $-1 $205 $424 $422 $425 reversed $316 $-1 #
loop $-1 $-1 $205 $306 #
vertex $-1 $425 $426 #
vertex $-1 $206 $427 #
straight-curve $-1 -52.076143681142611 -29.663328228719035 0 0 0 1 I I #
edge $-1 $325 -11.489549329521573 $322 11.489549329521573 $309 $428 forward 7 unknown #
coedge $-1 $208 $422 $418 $429 forward $307 $-1 #
vertex $-1 $209 $430 #
straight-curve $-1 -26.788071840571305 -15.228657498473227 -11.489549329521573 1 0 0 I I #
coedge $-1 $310 $210 $419 $431 forward $121 $-1 #
vertex $-1 $431 $432 #
straight-curve $-1 -26.788071840571305 -15.228657498473227 11.489549329521573 -1 0 0 I I #
point $-1 -52.076143681142611 -15.228657498473227 11.489549329521573 #
point $-1 -52.076143681142611 -15.228657498473227 -11.489549329521573 #
face $-1 $-1 $433 $29 $-1 $434 reversed single #
loop $-1 $-1 $335 $215 #
plane-surface $-1 0 0 11.489549329521573 0 0 1 1 0 0 forward_v I I I I #
coedge $-1 $218 $340 $435 $436 forward $129 $-1 #
edge $-1 $437 -18.440331796920972 $338 -4.0056610666751649 $218 $438 forward 7 unknown #
coedge $-1 $220 $219 $439 $440 reversed $81 $-1 #
coedge $-1 $441 $225 $220 $336 forward $330 $-1 #
edge $-1 $337 4.0056610666751649 $442 18.440331796920972 $335 $443 forward 7 unknown #
vertex $-1 $226 $444 #
vertex $-1 $224 $445 #
straight-curve $-1 -52.076143681142611 15.228657498473233 0 0 0 -1 I I #
coedge $-1 $332 $223 $228 $346 forward $129 $-1 #
straight-curve $-1 -26.788071840571305 15.228657498473233 -11.489549329521573 -1 0 0 I I #
coedge $-1 $225 $441 $227 $345 forward $330 $-1 #
straight-curve $-1 -26.788071840571305 15.228657498473233 11.489549329521573 1 0 0 I I #
coedge $-1 $228 $227 $446 $447 forward $216 $-1 #
edge $-1 $448 -29.663328228719035 $230 -15.228657498473233 $227 $449 forward 7 unknown #
edge $-1 $229 15.228657498473233 $450 29.663328228719035 $228 $451 forward 7 unknown #
point $-1 -55.076143681142611 15.228657498473233 -11.489549329521573 #
point $-1 -55.076143681142611 15.228657498473233 11.489549329521573 #
plane-surface $-1 0 0 11.489549329521573 0 0 1 1 0 0 forward_v I I I I #
coedge $-1 $360 $359 $352 $452 forward $233 $-1 #
coedge $-1 $352 $235 $237 $356 reversed $137 $-1 #
coedge $-1 $235 $351 $350 $452 reversed $137 $-1 #
coedge $-1 $243 $238 $235 $354 forward $244 $-1 #
edge $-1 $357 4.9622331128709334 $453 11.343947766417656 $353 $454 forward 7 unknown #
coedge $-1 $237 $236 $360 $455 reversed $85 $-1 #
edge $-1 $456 -110.15228736228522 $357 -98.434958291677049 $351 $457 forward 7 unknown #
vertex $-1 $239 $458 #
straight-curve $-1 48.694429027595888 5.6858810615202966 11.489549329521573 0 -1 0 I I #
coedge $-1 $350 $240 $243 $364 reversed $233 $-1 #
coedge $-1 $240 $350 $355 $455 forward $233 $-1 #
vertex $-1 $241 $459 #
straight-curve $-1 55.076143681142611 15.228657498473229 77.018643314797103 0 0 1 I I #
straight-curve $-1 -4.9170904548598884 15.228657498473229 94.044052493591707 0.54463902268945019 0 -0.83867057594974714 I I #
edge $-1 $453 7.5148667476079574 $245 15.228657498473229 $359 $460 forward 7 unknown #
point $-1 55.076143681142611 15.228657498473229 11.489549329521573 #
point $-1 48.694429027595888 15.228657498473229 11.48954932952158 #
edge $-1 $461 1 $461 0 $248 $-1 forward 7 unknown #
vertex $-1 $249 $462 #
ellipse-curve $-1 49.987354902508734 11.371762123040593 5.3435287128515601 0.83867057594974714 0 0.54463902268945019 0.81695853403417529 0 -1.2580058639246208 1 I I #
point $-1 52.702244888403428 11.371762123040593 5.3180539054771101 #
loop $-1 $-1 $260 $252 #
plane-surface $-1 -55.076143681142611 0 0 1 0 0 0 0 -1 forward_v I I I I #
coedge $-1 $374 $255 $257 $378 reversed $152 $-1 #
coedge $-1 $255 $373 $463 $464 reversed $152 $-1 #
coedge $-1 $263 $258 $255 $376 forward $253 $-1 #
edge $-1 $379 -17.974829031713014 $465 -13.39147979941572 $375 $466 forward 7 unknown #
coedge $-1 $257 $256 $382 $467 reversed $94 $-1 #
edge $-1 $468 2.1389731374768986e-014 $379 6.8497080416575322 $373 $469 forward 7 unknown #
vertex $-1 $259 $470 #
straight-curve $-1 -50.492794448845316 -3.1237522299920943 11.489549329521575 0 1 0 I I #
coedge $-1 $463 $260 $263 $386 reversed $371 $-1 #
coedge $-1 $260 $463 $377 $467 forward $371 $-1 #
vertex $-1 $261 $471 #
straight-curve $-1 -55.076143681142611 -9.3142369825178815 40.052745003528713 0 0 1 I I #
straight-curve $-1 -55.076143681142625 -9.3142369825178815 6.3992241856090999 -0.66913059716165679 0 -0.74314483375859142 I I #
edge $-1 $465 3.1807719374504959 $264 9.3142369825178815 $381 $472 forward 7 unknown #
point $-1 -55.076143681142611 -9.3142369825178815 11.489549329521573 #
point $-1 -50.492794448845316 -9.3142369825178815 11.489549329521573 #
edge $-1 $473 1 $473 0 $267 $-1 forward 7 unknown #
vertex $-1 $268 $474 #
ellipse-curve $-1 -51.861270310058281 -8.0875439735044026 8.1131348856190968 -0.74314483375859142 0 0.66913059716165679 0.3345652985808284 0 0.37157241687929571 1 I I #
point $-1 -52.449903766413129 -8.0875439735044026 9.3159591744446324 #
edge $-1 $475 1 $475 0 $271 $-1 forward 7 unknown #
vertex $-1 $272 $476 #
ellipse-curve $-1 -51.861270310058281 -6.2475044599841887 8.1131348856190968 -0.74314483375859142 0 0.66913059716165679 0.3345652985808284 0 0.37157241687929571 1 I I #
point $-1 -52.449903766413129 -6.2475044599841887 9.3159591744446324 #
edge $-1 $477 1 $477 0 $275 $-1 forward 7 unknown #
vertex $-1 $276 $478 #
ellipse-curve $-1 -51.861270310058281 -4.4074649464639748 8.1131348856190968 -0.74314483375859142 0 0.66913059716165679 0.3345652985808284 0 0.37157241687929571 1 I I #
point $-1 -52.449903766413129 -4.4074649464639748 9.3159591744446324 #
plane-surface $-1 55.076143681142611 0 0 -1 0 0 0 0 1 forward_v I I I I #
coedge $-1 $284 $282 $286 $406 reversed $181 $-1 #
edge $-1 $297 -11.489549329521573 $408 11.489549329521573 $296 $479 forward 7 unknown #
vertex $-1 $406 $480 #
straight-curve $-1 -55.076143681142611 -29.663328228719035 0 0 0 -1 I I #
edge $-1 $404 -29.663328228719035 $408 29.663328228719035 $402 $481 forward 7 unknown #
straight-curve $-1 0 -29.663328228719035 -11.489549329521573 -1 0 0 I I #
vertex $-1 $289 $482 #
straight-curve $-1 0 29.663328228719035 -11.489549329521573 1 0 0 I I #
point $-1 55.076143681142611 29.663328228719035 -11.489549329521573 #
point $-1 55.076143681142611 -29.663328228719035 -11.489549329521573 #
straight-curve $-1 -55.076143681142611 0 11.489549329521573 0 -1 0 I I #
point $-1 -55.076143681142611 29.663328228719035 11.489549329521573 #
point $-1 -55.076143681142611 -29.663328228719035 11.489549329521573 #
straight-curve $-1 55.076143681142611 -29.663328228719035 0 0 0 -1 I I #
straight-curve $-1 55.076143681142611 29.663328228719035 0 0 0 -1 I I #
plane-surface $-1 0 -29.663328228719035 0 0 1 0 0 0 1 forward_v I I I I #
coedge $-1 $483 $309 $321 $429 reversed $200 $-1 #
coedge $-1 $309 $483 $324 $431 reversed $200 $-1 #
edge $-1 $484 -55.076143681142611 $318 -52.076143681142611 $314 $485 forward 7 unknown #
straight-curve $-1 -52.076143681142611 -11.222996431798066 11.489549329521573 0 1 0 I I #
coedge $-1 $321 $312 $315 $425 forward $307 $-1 #
straight-curve $-1 -52.076143681142611 -11.222996431798066 -11.489549329521573 0 -1 0 I I #
coedge $-1 $315 $314 $483 $486 forward $316 $-1 #
edge $-1 $317 52.076143681142611 $487 55.076143681142611 $315 $488 forward 7 unknown #
point $-1 -52.076143681142611 -29.663328228719038 -11.489549329521573 #
point $-1 -52.076143681142611 -29.663328228719038 11.489549329521573 #
straight-curve $-1 -55.076143681142611 -15.228657498473227 0 0 0 -1 I I #
edge $-1 $487 -29.663328228719035 $322 -15.228657498473227 $418 $489 forward 7 unknown #
point $-1 -55.076143681142611 -15.228657498473227 -11.489549329521573 #
edge $-1 $325 15.228657498473227 $484 29.663328228719035 $419 $490 forward 7 unknown #
point $-1 -55.076143681142611 -15.228657498473227 11.489549329521573 #
loop $-1 $-1 $439 $329 #
plane-surface $-1 0 29.663328228719035 0 0 -1 0 0 0 -1 forward_v I I I I #
coedge $-1 $446 $439 $332 $436 reversed $433 $-1 #
edge $-1 $450 -55.076143681142611 $437 -52.076143681142611 $435 $491 forward 7 unknown #
vertex $-1 $333 $492 #
straight-curve $-1 -52.076143681142611 11.222996431798068 -11.489549329521573 0 -1 0 I I #
coedge $-1 $435 $493 $334 $440 forward $433 $-1 #
edge $-1 $442 -11.489549329521573 $437 11.489549329521573 $439 $494 forward 7 unknown #
coedge $-1 $342 $335 $493 $495 forward $330 $-1 #
vertex $-1 $495 $496 #
straight-curve $-1 -52.076143681142611 11.222996431798068 11.489549329521573 0 1 0 I I #
point $-1 -52.076143681142611 15.228657498473233 11.489549329521573 #
point $-1 -52.076143681142611 15.228657498473233 -11.489549329521573 #
coedge $-1 $493 $435 $344 $447 reversed $433 $-1 #
edge $-1 $448 -11.489549329521573 $450 11.489549329521573 $446 $497 forward 7 unknown #
vertex $-1 $495 $498 #
straight-curve $-1 -55.076143681142611 0 11.489549329521573 0 -1 0 I I #
vertex $-1 $436 $499 #
straight-curve $-1 -55.076143681142611 0 -11.489549329521573 0 1 0 I I #
edge $-1 $453 65.529093985275523 $456 75.356073105515193 $350 $500 forward 7 unknown #
vertex $-1 $364 $501 #
straight-curve $-1 43.732195914724954 7.5148667476079574 11.489549329521566 1 0 0 I I #
edge $-1 $456 1.8289856860876608 $361 9.5427764369529324 $360 $502 forward 7 unknown #
vertex $-1 $455 $503 #
straight-curve $-1 -4.9170904548598884 7.5148667476079574 94.044052493591707 -0.54463902268945019 0 0.83867057594974714 I I #
point $-1 48.694429027595888 7.5148667476079574 11.48954932952158 #
point $-1 55.076143681142611 15.228657498473229 1.6625702092819097 #
straight-curve $-1 55.076143681142611 0 11.489549329521573 0 1 0 I I #
vertex $-1 $367 $504 #
point $-1 50.804313436542905 11.371762123040593 4.0855228489269395 #
coedge $-1 $382 $381 $374 $464 forward $371 $-1 #
edge $-1 $465 28.56319567400714 $468 33.653520817919599 $463 $505 forward 7 unknown #
vertex $-1 $386 $506 #
straight-curve $-1 -68.467623480558331 -3.1807719374504959 11.489549329521573 -1 0 0 I I #
edge $-1 $468 0.05701970745840157 $383 6.1904847525257871 $382 $507 forward 7 unknown #
vertex $-1 $467 $508 #
straight-curve $-1 -55.076143681142625 -3.1807719374504959 6.3992241856090999 0.66913059716165679 0 0.74314483375859142 I I #
point $-1 -50.492794448845316 -3.1807719374504959 11.489549329521573 #
point $-1 -55.076143681142611 -9.3142369825178815 6.3992241856091159 #
straight-curve $-1 -55.076143681142611 0 11.489549329521573 0 -1 0 I I #
vertex $-1 $389 $509 #
point $-1 -51.526705011477453 -8.0875439735044026 8.4847073024983928 #
vertex $-1 $393 $510 #
point $-1 -51.526705011477453 -6.2475044599841887 8.4847073024983928 #
vertex $-1 $397 $511 #
point $-1 -51.526705011477453 -4.4074649464639748 8.4847073024983928 #
straight-curve $-1 -55.076143681142611 29.663328228719035 0 0 0 -1 I I #
point $-1 -55.076143681142611 -29.663328228719035 -11.489549329521573 #
straight-curve $-1 -55.076143681142611 0 -11.489549329521573 0 1 0 I I #
point $-1 -55.076143681142611 29.663328228719035 -11.489549329521573 #
coedge $-1 $419 $418 $424 $486 reversed $200 $-1 #
vertex $-1 $431 $512 #
straight-curve $-1 0 -29.663328228719035 11.489549329521573 1 0 0 I I #
edge $-1 $484 -11.489549329521573 $487 11.489549329521573 $483 $513 forward 7 unknown #
vertex $-1 $429 $514 #
straight-curve $-1 0 -29.663328228719035 -11.489549329521573 -1 0 0 I I #
straight-curve $-1 -55.076143681142611 0 -11.489549329521573 0 1 0 I I #
straight-curve $-1 -55.076143681142611 0 11.489549329521573 0 -1 0 I I #
straight-curve $-1 0 29.663328228719035 -11.489549329521573 1 0 0 I I #
point $-1 -52.076143681142611 29.663328228719038 -11.489549329521573 #
coedge $-1 $439 $446 $441 $495 reversed $433 $-1 #
straight-curve $-1 -52.076143681142611 29.663328228719035 0 0 0 -1 I I #
edge $-1 $442 52.076143681142611 $448 55.076143681142611 $493 $515 forward 7 unknown #
point $-1 -52.076143681142611 29.663328228719038 11.489549329521573 #
straight-curve $-1 -55.076143681142611 29.663328228719035 0 0 0 -1 I I #
point $-1 -55.076143681142611 29.663328228719035 11.489549329521573 #
point $-1 -55.076143681142611 29.663328228719035 -11.489549329521573 #
straight-curve $-1 55.076143681142611 7.5148667476079574 77.018643314797103 0 0 -1 I I #
point $-1 55.076143681142611 7.5148667476079574 11.489549329521573 #
straight-curve $-1 55.076143681142611 5.6858810615202966 1.6625702092819097 0 1 0 I I #
point $-1 55.076143681142611 7.5148667476079574 1.6625702092819097 #
point $-1 48.729349038584111 11.371762123040593 4.5265701788173853 #
straight-curve $-1 -55.076143681142611 -3.1807719374504959 40.052745003528713 0 0 -1 I I #
point $-1 -55.076143681142611 -3.1807719374504959 11.489549329521573 #
straight-curve $-1 -55.076143681142611 -3.1237522299920943 6.3992241856091185 0 -1 0 I I #
point $-1 -55.076143681142611 -3.1807719374504959 6.3992241856091159 #
point $-1 -51.489697893178992 -8.0875439735044026 7.7785695870382687 #
point $-1 -51.489697893178992 -6.2475044599841887 7.7785695870382687 #
point $-1 -51.489697893178992 -4.4074649464639748 7.7785695870382687 #
point $-1 -55.076143681142611 -29.663328228719035 11.489549329521573 #
straight-curve $-1 -55.076143681142611 -29.663328228719035 0 0 0 -1 I I #
point $-1 -55.076143681142611 -29.663328228719035 -11.489549329521573 #
straight-curve $-1 0 29.663328228719035 11.489549329521573 -1 0 0 I I #
End-of-ACIS-data 