500 0 12 0           
7 Unknown 11 ACIS 5.0 NT 24 Fri Mar 26 19:50:52 1999 
-1 9.9999999999999995e-007 1e-010 
body $-1 $12 $-1 $13 #
body $-1 $14 $-1 $15 #
body $-1 $16 $-1 $17 #
body $-1 $18 $-1 $19 #
body $-1 $20 $-1 $21 #
body $-1 $22 $-1 $23 #
body $-1 $24 $-1 $25 #
body $-1 $26 $-1 $27 #
body $-1 $28 $-1 $29 #
body $-1 $30 $-1 $31 #
body $-1 $32 $-1 $33 #
body $-1 $34 $-1 $35 #
lump $-1 $-1 $36 $0 #
transform $-1 1 0 0 0 1 0 0 0 1 72.608417004913491 45.219884817629612 17.247231437019192 1 rotate no_reflect no_shear #
lump $-1 $-1 $37 $1 #
transform $-1 1 0 0 0 1 0 0 0 1 72.608417004913491 45.219884817629612 17.247231437019192 1 rotate no_reflect no_shear #
lump $-1 $-1 $38 $2 #
transform $-1 1 0 0 0 1 0 0 0 1 72.608417004913491 45.219884817629612 17.247231437019192 1 rotate no_reflect no_shear #
lump $-1 $-1 $39 $3 #
transform $-1 1 0 0 0 1 0 0 0 1 72.608417004913491 45.219884817629612 17.247231437019192 1 rotate no_reflect no_shear #
lump $-1 $-1 $40 $4 #
transform $-1 1 0 0 0 1 0 0 0 1 72.608417004913491 45.219884817629612 17.247231437019192 1 rotate no_reflect no_shear #
lump $-1 $-1 $41 $5 #
transform $-1 1 0 0 0 1 0 0 0 1 72.608417004913491 45.219884817629612 17.247231437019192 1 rotate no_reflect no_shear #
lump $-1 $-1 $42 $6 #
transform $-1 1 0 0 0 1 0 0 0 1 72.608417004913491 45.219884817629612 17.247231437019192 1 rotate no_reflect no_shear #
lump $-1 $-1 $43 $7 #
transform $-1 1 0 0 0 1 0 0 0 1 72.608417004913491 45.219884817629612 17.247231437019192 1 rotate no_reflect no_shear #
lump $-1 $-1 $44 $8 #
transform $-1 1 0 0 0 1 0 0 0 1 72.608417004913491 45.219884817629612 17.247231437019192 1 rotate no_reflect no_shear #
lump $-1 $-1 $45 $9 #
transform $-1 1 0 0 0 1 0 0 0 1 72.608417004913491 45.219884817629612 17.247231437019192 1 rotate no_reflect no_shear #
lump $-1 $-1 $46 $10 #
transform $-1 1 0 0 0 1 0 0 0 1 72.608417004913491 45.219884817629612 17.247231437019192 1 rotate no_reflect no_shear #
lump $-1 $-1 $47 $11 #
transform $-1 1 0 0 0 1 0 0 0 1 72.608417004913491 45.219884817629612 17.247231437019192 1 rotate no_reflect no_shear #
shell $-1 $-1 $-1 $48 $-1 $12 #
shell $-1 $-1 $-1 $49 $-1 $14 #
shell $-1 $-1 $-1 $50 $-1 $16 #
shell $-1 $-1 $-1 $51 $-1 $18 #
shell $-1 $-1 $-1 $52 $-1 $20 #
shell $-1 $-1 $-1 $53 $-1 $22 #
shell $-1 $-1 $-1 $54 $-1 $24 #
shell $-1 $-1 $-1 $55 $-1 $26 #
shell $-1 $-1 $-1 $56 $-1 $28 #
shell $-1 $-1 $-1 $57 $-1 $30 #
shell $-1 $-1 $-1 $58 $-1 $32 #
shell $-1 $-1 $-1 $59 $-1 $34 #
face $-1 $60 $61 $36 $-1 $62 reversed single #
face $-1 $63 $64 $37 $-1 $65 forward single #
face $-1 $66 $67 $38 $-1 $68 reversed single #
face $-1 $69 $70 $39 $-1 $71 forward single #
face $-1 $72 $73 $40 $-1 $74 forward single #
face $-1 $75 $76 $41 $-1 $77 reversed single #
face $-1 $78 $79 $42 $-1 $80 forward single #
face $-1 $81 $82 $43 $-1 $83 forward single #
face $-1 $84 $85 $44 $-1 $86 reversed single #
face $-1 $87 $88 $45 $-1 $89 forward single #
face $-1 $90 $91 $46 $-1 $92 forward single #
face $-1 $93 $94 $47 $-1 $95 forward single #
face $-1 $96 $97 $36 $-1 $98 forward single #
loop $-1 $-1 $99 $48 #
plane-surface $-1 0 -45.219884817629612 0 0 1 0 0 0 1 forward_v I I I I #
face $-1 $100 $101 $37 $-1 $102 reversed single #
loop $-1 $-1 $103 $49 #
plane-surface $-1 0 -45.219884817629612 0 0 1 0 0 0 1 forward_v I I I I #
face $-1 $104 $105 $38 $-1 $106 reversed single #
loop $-1 $-1 $107 $50 #
plane-surface $-1 -149.5616158537577 -2.5901632053474408 133.17266254129282 0 1 0 -0.52991927123019833 0 0.84804809178421925 forward_v I I I I #
face $-1 $108 $109 $39 $-1 $110 forward single #
loop $-1 $111 $112 $51 #
cone-surface $-1 -66.32196560366323 1.0153169757068667 12.826507569164967 0.52991927123019833 0 -0.84804809178421925 0.84804809178421925 0 0.52991927123019833 1 I I 0 1 1 forward I I I I #
face $-1 $113 $114 $40 $-1 $115 forward single #
loop $-1 $116 $117 $52 #
cone-surface $-1 -66.32196560366323 6.4235372472883228 12.826507569164967 0.52991927123019833 0 -0.84804809178421925 0.84804809178421925 0 0.52991927123019833 1 I I 0 1 1 forward I I I I #
face $-1 $118 $119 $41 $-1 $120 reversed single #
loop $-1 $-1 $121 $53 #
plane-surface $-1 -149.5616158537577 32.600704183939555 133.17266254129282 0 1 0 -0.52991927123019833 0 0.84804809178421925 forward_v I I I I #
face $-1 $122 $123 $42 $-1 $124 forward single #
loop $-1 $125 $126 $54 #
cone-surface $-1 -66.32196560366323 36.206184364993867 12.826507569164967 0.52991927123019833 0 -0.84804809178421925 0.84804809178421925 0 0.52991927123019833 1 I I 0 1 1 forward I I I I #
face $-1 $127 $128 $43 $-1 $129 forward single #
loop $-1 $130 $131 $55 #
cone-surface $-1 -66.32196560366323 41.614404636575323 12.826507569164967 0.52991927123019833 0 -0.84804809178421925 0.84804809178421925 0 0.52991927123019833 1 I I 0 1 1 forward I I I I #
face $-1 $132 $133 $44 $-1 $134 reversed single #
loop $-1 $-1 $135 $56 #
plane-surface $-1 129.21540679349627 26.102094650794143 204.89761236405656 0 1 0 0.87461971476443456 0 0.48480960649040278 forward_v I I I I #
face $-1 $136 $137 $45 $-1 $138 forward single #
loop $-1 $139 $140 $57 #
cone-surface $-1 68.333666065322532 29.925652684161243 11.496551423025734 -0.87461971476443456 0 -0.48480960649040278 0.48480960649040278 0 -0.87461971476443456 1 I I 0 1 1 forward I I I I #
face $-1 $141 $142 $46 $-1 $143 forward single #
loop $-1 $144 $145 $58 #
cone-surface $-1 68.333666065322532 35.660989734211888 11.496551423025734 -0.87461971476443456 0 -0.48480960649040278 0.48480960649040278 0 -0.87461971476443456 1 I I 0 1 1 forward I I I I #
face $-1 $146 $147 $47 $-1 $148 forward single #
loop $-1 $149 $150 $59 #
cone-surface $-1 68.333666065322532 41.396326784262534 11.496551423025734 -0.87461971476443456 0 -0.48480960649040278 0.48480960649040278 0 -0.87461971476443456 1 I I 0 1 1 forward I I I I #
face $-1 $151 $152 $36 $-1 $153 reversed single #
loop $-1 $-1 $154 $60 #
plane-surface $-1 0 0 17.247231437019192 0 0 1 1 0 0 forward_v I I I I #
coedge $-1 $155 $156 $157 $158 reversed $61 $-1 #
face $-1 $159 $160 $37 $-1 $161 reversed single #
loop $-1 $-1 $162 $63 #
plane-surface $-1 0 0 -17.247231437019192 0 0 1 1 0 0 forward_v I I I I #
coedge $-1 $163 $164 $165 $166 forward $64 $-1 #
face $-1 $167 $168 $38 $-1 $169 reversed single #
loop $-1 $-1 $170 $66 #
plane-surface $-1 -72.608417004913505 3.7194271114975876 10.021803564313345 -0.52991927123019833 0 0.84804809178421925 0.84804809178421925 0 0.52991927123019833 forward_v I I I I #
coedge $-1 $171 $172 $173 $174 reversed $67 $-1 #
face $-1 $-1 $175 $39 $-1 $176 forward single #
loop $-1 $177 $178 $69 #
cone-surface $-1 -65.552105316544882 1.0153169757068667 11.59447359177155 0.52991927123019833 0 -0.84804809178421925 0.42402404589210962 0 0.26495963561509916 1 I I -0.70710678118654746 0.70710678118654746 0.5 forward I I I I #
loop $-1 $-1 $179 $51 #
coedge $-1 $112 $112 $180 $181 reversed $70 $-1 #
face $-1 $-1 $182 $40 $-1 $183 forward single #
loop $-1 $184 $185 $72 #
cone-surface $-1 -65.552105316544882 6.4235372472883228 11.59447359177155 0.52991927123019833 0 -0.84804809178421925 0.42402404589210962 0 0.26495963561509916 1 I I -0.70710678118654746 0.70710678118654746 0.5 forward I I I I #
loop $-1 $-1 $186 $52 #
coedge $-1 $117 $117 $187 $188 reversed $73 $-1 #
face $-1 $189 $190 $41 $-1 $191 forward single #
loop $-1 $-1 $192 $75 #
plane-surface $-1 -72.608417004913505 38.91029450078458 10.021803564313345 -0.52991927123019833 0 0.84804809178421925 0.84804809178421925 0 0.52991927123019833 forward_v I I I I #
coedge $-1 $193 $194 $195 $196 reversed $76 $-1 #
face $-1 $-1 $197 $42 $-1 $198 forward single #
loop $-1 $199 $200 $78 #
cone-surface $-1 -65.552105316544882 36.206184364993867 11.59447359177155 0.52991927123019833 0 -0.84804809178421925 0.42402404589210962 0 0.26495963561509916 1 I I -0.70710678118654746 0.70710678118654746 0.5 forward I I I I #
loop $-1 $-1 $201 $54 #
coedge $-1 $126 $126 $202 $203 reversed $79 $-1 #
face $-1 $-1 $204 $43 $-1 $205 forward single #
loop $-1 $206 $207 $81 #
cone-surface $-1 -65.552105316544882 41.614404636575323 11.59447359177155 0.52991927123019833 0 -0.84804809178421925 0.42402404589210962 0 0.26495963561509916 1 I I -0.70710678118654746 0.70710678118654746 0.5 forward I I I I #
loop $-1 $-1 $208 $55 #
coedge $-1 $131 $131 $209 $210 reversed $82 $-1 #
face $-1 $211 $212 $44 $-1 $213 reversed single #
loop $-1 $-1 $214 $84 #
plane-surface $-1 2.2059008528271562 35.660989734211874 134.49509621197018 0.87461971476443456 0 0.48480960649040278 0.48480960649040278 0 -0.87461971476443456 forward_v I I I I #
coedge $-1 $215 $216 $217 $218 reversed $85 $-1 #
face $-1 $-1 $219 $45 $-1 $220 forward single #
loop $-1 $221 $222 $87 #
cone-surface $-1 66.327088195593348 29.925652684161243 10.384287188646145 -0.87461971476443456 0 -0.48480960649040278 0.24240480324520139 0 -0.43730985738221728 1 I I -0.70710678118654746 0.70710678118654746 0.5 forward I I I I #
loop $-1 $-1 $223 $57 #
coedge $-1 $140 $140 $224 $225 reversed $88 $-1 #
face $-1 $-1 $226 $46 $-1 $227 forward single #
loop $-1 $228 $229 $90 #
cone-surface $-1 66.327088195593348 35.660989734211888 10.384287188646145 -0.87461971476443456 0 -0.48480960649040278 0.24240480324520139 0 -0.43730985738221728 1 I I -0.70710678118654746 0.70710678118654746 0.5 forward I I I I #
loop $-1 $-1 $230 $58 #
coedge $-1 $145 $145 $231 $232 reversed $91 $-1 #
face $-1 $-1 $233 $47 $-1 $234 forward single #
loop $-1 $235 $236 $93 #
cone-surface $-1 66.327088195593348 41.396326784262534 10.384287188646145 -0.87461971476443456 0 -0.48480960649040278 0.24240480324520139 0 -0.43730985738221728 1 I I -0.70710678118654746 0.70710678118654746 0.5 forward I I I I #
loop $-1 $-1 $237 $59 #
coedge $-1 $150 $150 $238 $239 reversed $94 $-1 #
face $-1 $240 $241 $36 $-1 $242 reversed single #
loop $-1 $-1 $243 $96 #
plane-surface $-1 0 0 -17.247231437019192 0 0 1 1 0 0 forward_v I I I I #
coedge $-1 $244 $245 $246 $247 forward $97 $-1 #
coedge $-1 $248 $99 $249 $250 reversed $61 $-1 #
coedge $-1 $99 $248 $251 $252 forward $61 $-1 #
coedge $-1 $253 $243 $99 $158 forward $152 $-1 #
edge $-1 $254 -72.608417004913491 $255 72.608417004913491 $99 $256 forward 7 unknown #
face $-1 $257 $258 $37 $-1 $259 reversed single #
loop $-1 $-1 $260 $100 #
plane-surface $-1 -65.55059041016105 -65.277919674314859 0 0 1 0 0 0 1 forward_v I I I I #
coedge $-1 $261 $262 $164 $263 forward $101 $-1 #
coedge $-1 $264 $103 $265 $266 reversed $64 $-1 #
coedge $-1 $103 $264 $162 $263 reversed $64 $-1 #
coedge $-1 $267 $268 $103 $166 reversed $258 $-1 #
edge $-1 $269 -17.247231437019192 $270 17.247231437019192 $165 $271 forward 7 unknown #
face $-1 $272 $273 $38 $-1 $274 reversed single #
loop $-1 $-1 $275 $104 #
plane-surface $-1 -149.5616158537577 10.029017428342616 133.17266254129282 0 -1 0 0.52991927123019833 0 -0.84804809178421925 forward_v I I I I #
coedge $-1 $276 $277 $278 $279 reversed $105 $-1 #
coedge $-1 $172 $107 $280 $281 reversed $67 $-1 #
coedge $-1 $107 $171 $276 $282 reversed $67 $-1 #
coedge $-1 $278 $283 $107 $174 forward $284 $-1 #
edge $-1 $285 2.1723909219653592 $286 13.735492421459398 $173 $287 forward 7 unknown #
loop $-1 $-1 $180 $108 #
plane-surface $-1 -72.608417004913505 3.7194271114975876 10.021803564313345 -0.52991927123019833 0 0.84804809178421925 0.84804809178421925 0 0.52991927123019833 forward_v I I I I #
loop $-1 $-1 $288 $69 #
coedge $-1 $178 $178 $179 $289 reversed $109 $-1 #
coedge $-1 $179 $179 $178 $289 forward $111 $-1 #
coedge $-1 $180 $180 $112 $181 forward $175 $-1 #
edge $-1 $290 0 $290 6.2831853071796004 $180 $291 forward 7 unknown #
loop $-1 $-1 $187 $113 #
plane-surface $-1 -72.608417004913505 3.7194271114975876 10.021803564313345 -0.52991927123019833 0 0.84804809178421925 0.84804809178421925 0 0.52991927123019833 forward_v I I I I #
loop $-1 $-1 $292 $72 #
coedge $-1 $185 $185 $186 $293 reversed $114 $-1 #
coedge $-1 $186 $186 $185 $293 forward $116 $-1 #
coedge $-1 $187 $187 $117 $188 forward $182 $-1 #
edge $-1 $294 0 $294 6.2831853071796004 $187 $295 forward 7 unknown #
face $-1 $296 $297 $41 $-1 $298 reversed single #
loop $-1 $-1 $195 $118 #
plane-surface $-1 0 0 17.247231437019192 0 0 1 1 0 0 forward_v I I I I #
coedge $-1 $299 $300 $301 $302 reversed $119 $-1 #
coedge $-1 $194 $121 $303 $304 reversed $76 $-1 #
coedge $-1 $121 $193 $299 $305 reversed $76 $-1 #
coedge $-1 $301 $306 $121 $196 forward $190 $-1 #
edge $-1 $307 2.1723909219653592 $308 13.735492421459398 $195 $309 forward 7 unknown #
loop $-1 $-1 $202 $122 #
plane-surface $-1 -72.608417004913505 38.91029450078458 10.021803564313345 -0.52991927123019833 0 0.84804809178421925 0.84804809178421925 0 0.52991927123019833 forward_v I I I I #
loop $-1 $-1 $310 $78 #
coedge $-1 $200 $200 $201 $311 reversed $123 $-1 #
coedge $-1 $201 $201 $200 $311 forward $125 $-1 #
coedge $-1 $202 $202 $126 $203 forward $197 $-1 #
edge $-1 $312 0 $312 6.2831853071796004 $202 $313 forward 7 unknown #
loop $-1 $-1 $209 $127 #
plane-surface $-1 -72.608417004913505 38.91029450078458 10.021803564313345 -0.52991927123019833 0 0.84804809178421925 0.84804809178421925 0 0.52991927123019833 forward_v I I I I #
loop $-1 $-1 $314 $81 #
coedge $-1 $207 $207 $208 $315 reversed $128 $-1 #
coedge $-1 $208 $208 $207 $315 forward $130 $-1 #
coedge $-1 $209 $209 $131 $210 forward $204 $-1 #
edge $-1 $316 0 $316 6.2831853071796004 $209 $317 forward 7 unknown #
face $-1 $318 $319 $44 $-1 $320 forward single #
loop $-1 $-1 $321 $132 #
plane-surface $-1 0 45.219884817629612 0 0 -1 0 0 0 -1 forward_v I I I I #
coedge $-1 $322 $323 $324 $325 reversed $133 $-1 #
coedge $-1 $216 $135 $326 $327 reversed $85 $-1 #
coedge $-1 $135 $215 $322 $328 reversed $85 $-1 #
coedge $-1 $324 $329 $135 $218 forward $330 $-1 #
edge $-1 $331 85.201574745009083 $332 94.963215910727172 $217 $333 forward 7 unknown #
loop $-1 $-1 $224 $136 #
plane-surface $-1 2.2059008528271562 35.660989734211874 134.49509621197018 0.87461971476443456 0 0.48480960649040278 0.48480960649040278 0 -0.87461971476443456 forward_v I I I I #
loop $-1 $-1 $334 $87 #
coedge $-1 $222 $222 $223 $335 reversed $137 $-1 #
coedge $-1 $223 $223 $222 $335 forward $139 $-1 #
coedge $-1 $224 $224 $140 $225 forward $219 $-1 #
edge $-1 $336 0 $336 6.2831853071796004 $224 $337 forward 7 unknown #
loop $-1 $-1 $231 $141 #
plane-surface $-1 2.2059008528271562 35.660989734211874 134.49509621197018 0.87461971476443456 0 0.48480960649040278 0.48480960649040278 0 -0.87461971476443456 forward_v I I I I #
loop $-1 $-1 $338 $90 #
coedge $-1 $229 $229 $230 $339 reversed $142 $-1 #
coedge $-1 $230 $230 $229 $339 forward $144 $-1 #
coedge $-1 $231 $231 $145 $232 forward $226 $-1 #
edge $-1 $340 0 $340 6.2831853071796004 $231 $341 forward 7 unknown #
loop $-1 $-1 $238 $146 #
plane-surface $-1 2.2059008528271562 35.660989734211874 134.49509621197018 0.87461971476443456 0 0.48480960649040278 0.48480960649040278 0 -0.87461971476443456 forward_v I I I I #
loop $-1 $-1 $342 $93 #
coedge $-1 $236 $236 $237 $343 reversed $147 $-1 #
coedge $-1 $237 $237 $236 $343 forward $149 $-1 #
coedge $-1 $238 $238 $150 $239 forward $233 $-1 #
edge $-1 $344 0 $344 6.2831853071796004 $238 $345 forward 7 unknown #
face $-1 $346 $347 $36 $-1 $348 reversed single #
loop $-1 $-1 $349 $151 #
plane-surface $-1 -72.608417004913491 0 0 1 0 0 0 0 -1 forward_v I I I I #
coedge $-1 $157 $350 $351 $352 forward $152 $-1 #
coedge $-1 $353 $154 $354 $355 forward $97 $-1 #
coedge $-1 $154 $353 $248 $356 forward $97 $-1 #
coedge $-1 $249 $357 $154 $247 reversed $358 $-1 #
edge $-1 $359 -45.219884817629612 $360 45.219884817629612 $246 $361 forward 7 unknown #
coedge $-1 $156 $155 $245 $356 reversed $61 $-1 #
coedge $-1 $351 $246 $155 $250 forward $358 $-1 #
edge $-1 $359 -17.247231437019192 $254 17.247231437019192 $249 $362 forward 7 unknown #
coedge $-1 $363 $364 $156 $252 reversed $241 $-1 #
edge $-1 $365 -17.247231437019192 $255 17.247231437019192 $251 $366 forward 7 unknown #
coedge $-1 $350 $157 $364 $367 forward $152 $-1 #
vertex $-1 $250 $368 #
vertex $-1 $367 $369 #
straight-curve $-1 0 -45.219884817629612 -17.247231437019192 -1 0 0 I I #
face $-1 $370 $371 $37 $-1 $372 reversed single #
loop $-1 $-1 $165 $159 #
plane-surface $-1 -69.547187705554066 -55.248902245972232 0 1 0 0 0 0 -1 forward_v I I I I #
coedge $-1 $373 $374 $375 $376 forward $160 $-1 #
coedge $-1 $377 $162 $378 $379 forward $101 $-1 #
coedge $-1 $162 $377 $267 $380 forward $101 $-1 #
edge $-1 $269 -69.547187705554066 $381 -61.553993114768033 $162 $382 forward 7 unknown #
coedge $-1 $164 $163 $383 $384 forward $64 $-1 #
coedge $-1 $385 $386 $163 $266 forward $387 $-1 #
edge $-1 $388 61.553993114768033 $270 69.547187705554066 $265 $389 forward 7 unknown #
coedge $-1 $375 $165 $262 $380 reversed $258 $-1 #
coedge $-1 $165 $375 $385 $390 reversed $258 $-1 #
vertex $-1 $263 $391 #
vertex $-1 $390 $392 #
straight-curve $-1 -69.547187705554066 -45.219884817629612 0 0 0 1 I I #
face $-1 $-1 $284 $38 $-1 $393 forward single #
loop $-1 $-1 $394 $167 #
plane-surface $-1 -72.608417004913491 0 0 1 0 0 0 0 -1 forward_v I I I I #
coedge $-1 $395 $396 $397 $398 reversed $168 $-1 #
coedge $-1 $399 $170 $172 $282 forward $105 $-1 #
coedge $-1 $170 $399 $395 $400 forward $105 $-1 #
coedge $-1 $397 $173 $170 $279 forward $284 $-1 #
edge $-1 $286 -4.4498767610962346 $401 8.1693038725938223 $278 $402 forward 7 unknown #
coedge $-1 $403 $404 $171 $281 forward $273 $-1 #
edge $-1 $405 -56.56452770633306 $285 -49.339099833627216 $280 $406 forward 7 unknown #
edge $-1 $286 -13.63495963438382 $405 -1.675811683274863e-014 $172 $407 forward 7 unknown #
coedge $-1 $173 $397 $403 $408 forward $284 $-1 #
loop $-1 $-1 $397 $272 #
vertex $-1 $281 $409 #
vertex $-1 $174 $410 #
straight-curve $-1 -74.78080792687885 -2.5901632053474408 17.247231437019195 1 0 0 I I #
coedge $-1 $288 $288 $-1 $411 reversed $177 $-1 #
edge $-1 $412 0 $412 6.2831853071796004 $178 $413 forward 7 unknown #
vertex $-1 $181 $414 #
ellipse-curve $-1 -66.826866255166479 1.0153169757068667 13.634517500666272 -0.52991927123019833 0 0.84804809178421925 0.84804809178421925 0 0.52991927123019833 1 I I #
coedge $-1 $292 $292 $-1 $415 reversed $184 $-1 #
edge $-1 $416 0 $416 6.2831853071796004 $185 $417 forward 7 unknown #
vertex $-1 $188 $418 #
ellipse-curve $-1 -66.826866255166479 6.4235372472883228 13.634517500666272 -0.52991927123019833 0 0.84804809178421925 0.84804809178421925 0 0.52991927123019833 1 I I #
face $-1 $-1 $419 $41 $-1 $420 reversed single #
loop $-1 $-1 $303 $189 #
plane-surface $-1 -72.608417004913491 0 0 1 0 0 0 0 -1 forward_v I I I I #
coedge $-1 $421 $192 $194 $305 forward $119 $-1 #
coedge $-1 $192 $421 $422 $423 reversed $119 $-1 #
coedge $-1 $424 $195 $192 $302 forward $190 $-1 #
edge $-1 $308 13.145556933547265 $425 25.764737567237315 $301 $426 forward 7 unknown #
coedge $-1 $427 $428 $193 $304 forward $297 $-1 #
edge $-1 $429 -56.56452770633306 $307 -49.339099833627216 $303 $430 forward 7 unknown #
edge $-1 $308 -13.63495963438382 $429 -1.675811683274863e-014 $194 $431 forward 7 unknown #
coedge $-1 $195 $424 $427 $432 forward $190 $-1 #
vertex $-1 $196 $433 #
vertex $-1 $196 $434 #
straight-curve $-1 -74.78080792687885 32.600704183939555 17.247231437019195 1 0 0 I I #
coedge $-1 $310 $310 $-1 $435 reversed $199 $-1 #
edge $-1 $436 0 $436 6.2831853071796004 $200 $437 forward 7 unknown #
vertex $-1 $203 $438 #
ellipse-curve $-1 -66.826866255166479 36.206184364993867 13.634517500666272 -0.52991927123019833 0 0.84804809178421925 0.84804809178421925 0 0.52991927123019833 1 I I #
coedge $-1 $314 $314 $-1 $439 reversed $206 $-1 #
edge $-1 $440 0 $440 6.2831853071796004 $207 $441 forward 7 unknown #
vertex $-1 $210 $442 #
ellipse-curve $-1 -66.826866255166479 41.614404636575323 13.634517500666272 -0.52991927123019833 0 0.84804809178421925 0.84804809178421925 0 0.52991927123019833 1 I I #
face $-1 $-1 $330 $44 $-1 $443 reversed single #
loop $-1 $-1 $444 $211 #
plane-surface $-1 0 0 17.247231437019192 0 0 1 1 0 0 forward_v I I I I #
coedge $-1 $445 $446 $323 $447 forward $212 $-1 #
coedge $-1 $448 $214 $216 $328 forward $133 $-1 #
coedge $-1 $214 $448 $321 $447 reversed $133 $-1 #
coedge $-1 $449 $217 $214 $325 forward $330 $-1 #
edge $-1 $332 8.271599783688206 $450 27.389389950523675 $324 $451 forward 7 unknown #
coedge $-1 $452 $444 $215 $327 forward $319 $-1 #
edge $-1 $453 2.5897477536774574 $331 8.0007136081653556 $326 $454 forward 7 unknown #
edge $-1 $332 -145.21683400982695 $453 -134.05582197118656 $216 $455 forward 7 unknown #
coedge $-1 $217 $449 $452 $456 reversed $330 $-1 #
loop $-1 $-1 $324 $318 #
vertex $-1 $456 $457 #
vertex $-1 $218 $458 #
straight-curve $-1 72.608417004913491 26.102094650794143 102.44880618202828 0 0 -1 I I #
coedge $-1 $334 $334 $-1 $459 reversed $221 $-1 #
edge $-1 $460 0 $460 6.2831853071796004 $222 $461 forward 7 unknown #
vertex $-1 $225 $462 #
ellipse-curve $-1 69.902934077669542 29.925652684161243 12.366410854160142 0.87461971476443456 0 0.48480960649040278 0.48480960649040278 0 -0.87461971476443456 1 I I #
coedge $-1 $338 $338 $-1 $463 reversed $228 $-1 #
edge $-1 $464 0 $464 6.2831853071796004 $229 $465 forward 7 unknown #
vertex $-1 $232 $466 #
ellipse-curve $-1 69.902934077669542 35.660989734211888 12.366410854160142 0.87461971476443456 0 0.48480960649040278 0.48480960649040278 0 -0.87461971476443456 1 I I #
coedge $-1 $342 $342 $-1 $467 reversed $235 $-1 #
edge $-1 $468 0 $468 6.2831853071796004 $236 $469 forward 7 unknown #
vertex $-1 $239 $470 #
ellipse-curve $-1 69.902934077669542 41.396326784262534 12.366410854160142 0.87461971476443456 0 0.48480960649040278 0.48480960649040278 0 -0.87461971476443456 1 I I #
face $-1 $-1 $358 $36 $-1 $471 reversed single #
loop $-1 $-1 $472 $240 #
plane-surface $-1 0 45.219884817629612 0 0 -1 0 0 0 -1 forward_v I I I I #
coedge $-1 $364 $363 $473 $474 forward $241 $-1 #
coedge $-1 $243 $253 $475 $476 forward $152 $-1 #
coedge $-1 $357 $249 $243 $352 reversed $358 $-1 #
edge $-1 $477 -45.219884817629612 $254 45.219884817629612 $351 $478 forward 7 unknown #
coedge $-1 $245 $244 $363 $479 forward $97 $-1 #
coedge $-1 $472 $473 $244 $355 reversed $347 $-1 #
edge $-1 $360 -72.608417004913491 $480 72.608417004913491 $354 $481 forward 7 unknown #
edge $-1 $365 -72.608417004913491 $359 72.608417004913491 $248 $482 forward 7 unknown #
coedge $-1 $246 $351 $472 $483 reversed $358 $-1 #
loop $-1 $-1 $249 $346 #
vertex $-1 $247 $484 #
vertex $-1 $247 $485 #
straight-curve $-1 72.608417004913491 0 17.247231437019192 0 1 0 I I #
straight-curve $-1 72.608417004913491 -45.219884817629612 0 0 0 -1 I I #
coedge $-1 $349 $251 $353 $479 reversed $241 $-1 #
coedge $-1 $251 $349 $253 $367 reversed $241 $-1 #
vertex $-1 $479 $486 #
straight-curve $-1 -72.608417004913491 -45.219884817629612 0 0 0 -1 I I #
edge $-1 $255 -45.219884817629612 $487 45.219884817629612 $364 $488 forward 7 unknown #
point $-1 72.608417004913491 -45.219884817629612 -17.247231437019192 #
point $-1 -72.608417004913491 -45.219884817629612 -17.247231437019192 #
face $-1 $-1 $387 $37 $-1 $489 forward single #
loop $-1 $-1 $490 $257 #
plane-surface $-1 -61.553993114768033 -55.248902245972232 0 -1 0 0 0 0 1 forward_v I I I I #
coedge $-1 $491 $260 $377 $492 reversed $160 $-1 #
coedge $-1 $260 $491 $493 $494 reversed $160 $-1 #
coedge $-1 $268 $267 $260 $376 reversed $258 $-1 #
edge $-1 $495 -17.247231437019192 $496 17.247231437019192 $375 $497 forward 7 unknown #
coedge $-1 $262 $261 $373 $492 forward $101 $-1 #
coedge $-1 $383 $490 $261 $379 reversed $371 $-1 #
edge $-1 $381 -10.02901742834262 $498 10.029017428342627 $378 $499 forward 7 unknown #
edge $-1 $496 -10.029017428342627 $269 10.02901742834262 $267 $500 forward 7 unknown #
vertex $-1 $379 $501 #
straight-curve $-1 0 -45.219884817629612 -17.247231437019192 1 0 0 I I #
coedge $-1 $502 $378 $264 $384 reversed $371 $-1 #
edge $-1 $388 -17.247231437019192 $381 17.247231437019192 $383 $503 forward 7 unknown #
coedge $-1 $493 $265 $268 $390 forward $387 $-1 #
coedge $-1 $265 $493 $502 $504 forward $387 $-1 #
loop $-1 $-1 $265 $370 #
vertex $-1 $266 $505 #
straight-curve $-1 0 -45.219884817629612 17.247231437019192 -1 0 0 I I #
edge $-1 $270 -10.02901742834262 $495 10.029017428342627 $268 $506 forward 7 unknown #
point $-1 -69.547187705554066 -45.219884817629612 -17.247231437019192 #
point $-1 -69.547187705554066 -45.219884817629612 17.247231437019192 #
plane-surface $-1 0 0 17.247231437019192 0 0 1 1 0 0 forward_v I I I I #
coedge $-1 $404 $403 $396 $507 forward $273 $-1 #
coedge $-1 $396 $275 $277 $400 reversed $168 $-1 #
coedge $-1 $275 $395 $394 $507 reversed $168 $-1 #
coedge $-1 $283 $278 $275 $398 forward $284 $-1 #
edge $-1 $401 -13.735492421459398 $508 -2.1723909219653592 $397 $509 forward 7 unknown #
coedge $-1 $277 $276 $404 $510 reversed $105 $-1 #
edge $-1 $511 1.675811683274863e-014 $401 13.63495963438382 $395 $512 forward 7 unknown #
vertex $-1 $279 $513 #
straight-curve $-1 -61.045315505419453 1.8597135557487938 17.247231437019188 0 1 0 I I #
coedge $-1 $394 $280 $283 $408 reversed $273 $-1 #
coedge $-1 $280 $394 $399 $510 forward $273 $-1 #
vertex $-1 $281 $514 #
straight-curve $-1 -72.608417004913491 -2.5901632053474408 66.586331270646411 0 0 1 I I #
straight-curve $-1 -72.608417004913505 -2.5901632053474408 10.021803564313345 -0.84804809178421925 0 -0.52991927123019833 I I #
edge $-1 $508 -10.029017428342616 $285 2.5901632053474408 $403 $515 forward 7 unknown #
point $-1 -72.608417004913491 -2.5901632053474408 17.247231437019192 #
point $-1 -61.045315505419453 -2.5901632053474408 17.247231437019192 #
edge $-1 $516 1 $516 0 $288 $-1 forward 7 unknown #
vertex $-1 $289 $517 #
ellipse-curve $-1 -65.817064952159981 1.0153169757068667 12.018497637663659 -0.52991927123019833 0 0.84804809178421925 0.84804809178421925 0 0.52991927123019833 1 I I #
point $-1 -65.978818163382243 1.0153169757068667 14.164436771896472 #
edge $-1 $518 1 $518 0 $292 $-1 forward 7 unknown #
vertex $-1 $293 $519 #
ellipse-curve $-1 -65.817064952159981 6.4235372472883228 12.018497637663659 -0.52991927123019833 0 0.84804809178421925 0.84804809178421925 0 0.52991927123019833 1 I I #
point $-1 -65.978818163382243 6.4235372472883228 14.164436771896472 #
loop $-1 $-1 $422 $296 #
plane-surface $-1 0 45.219884817629612 0 0 -1 0 0 0 -1 forward_v I I I I #
coedge $-1 $300 $299 $428 $520 reversed $119 $-1 #
coedge $-1 $521 $522 $300 $423 forward $419 $-1 #
edge $-1 $425 14.497381689254489 $523 28.132341323638293 $422 $524 forward 7 unknown #
coedge $-1 $306 $301 $522 $525 forward $190 $-1 #
vertex $-1 $525 $526 #
straight-curve $-1 -61.045315505419453 19.45514725039229 17.247231437019188 0 1 0 I I #
coedge $-1 $527 $303 $306 $432 reversed $297 $-1 #
coedge $-1 $303 $527 $421 $520 forward $297 $-1 #
vertex $-1 $304 $528 #
straight-curve $-1 -72.608417004913491 32.600704183939555 66.586331270646411 0 0 1 I I #
straight-curve $-1 -72.608417004913505 32.600704183939555 10.021803564313345 -0.84804809178421925 0 -0.52991927123019833 I I #
edge $-1 $529 -45.219884817629612 $307 -32.600704183939555 $427 $530 forward 7 unknown #
point $-1 -72.608417004913491 32.600704183939555 17.247231437019192 #
point $-1 -61.045315505419453 32.600704183939555 17.247231437019192 #
edge $-1 $531 1 $531 0 $310 $-1 forward 7 unknown #
vertex $-1 $311 $532 #
ellipse-curve $-1 -65.817064952159981 36.206184364993867 12.018497637663659 -0.52991927123019833 0 0.84804809178421925 0.84804809178421925 0 0.52991927123019833 1 I I #
point $-1 -65.978818163382243 36.206184364993867 14.164436771896472 #
edge $-1 $533 1 $533 0 $314 $-1 forward 7 unknown #
vertex $-1 $315 $534 #
ellipse-curve $-1 -65.817064952159981 41.614404636575323 12.018497637663659 -0.52991927123019833 0 0.84804809178421925 0.84804809178421925 0 0.52991927123019833 1 I I #
point $-1 -65.978818163382243 41.614404636575323 14.164436771896472 #
plane-surface $-1 72.608417004913491 0 0 -1 0 0 0 0 1 forward_v I I I I #
coedge $-1 $326 $535 $448 $536 forward $319 $-1 #
coedge $-1 $446 $321 $535 $537 reversed $212 $-1 #
coedge $-1 $321 $445 $449 $538 forward $212 $-1 #
edge $-1 $450 -86.935523628970671 $539 -75.774511590330263 $321 $540 forward 7 unknown #
coedge $-1 $323 $322 $444 $536 reversed $133 $-1 #
coedge $-1 $329 $324 $446 $538 reversed $330 $-1 #
vertex $-1 $325 $541 #
straight-curve $-1 72.608417004913491 17.830494867105937 7.4855902713011133 0 1 0 I I #
coedge $-1 $535 $326 $329 $456 forward $319 $-1 #
vertex $-1 $327 $542 #
straight-curve $-1 64.607703396748136 26.102094650794143 17.247231437019195 1 0 0 I I #
straight-curve $-1 2.2059008528271562 26.102094650794143 134.49509621197018 -0.48480960649040278 0 0.87461971476443456 I I #
edge $-1 $331 26.102094650794143 $543 45.219884817629612 $329 $544 forward 7 unknown #
point $-1 72.608417004913491 26.102094650794143 17.247231437019192 #
point $-1 72.608417004913491 26.102094650794143 7.4855902713011062 #
edge $-1 $545 1 $545 0 $334 $-1 forward 7 unknown #
vertex $-1 $335 $546 #
ellipse-curve $-1 66.764398052975565 29.925652684161243 10.626691991891345 0.87461971476443456 0 0.48480960649040278 0.48480960649040278 0 -0.87461971476443456 1 I I #
point $-1 70.387743684159915 29.925652684161243 11.491791139395689 #
edge $-1 $547 1 $547 0 $338 $-1 forward 7 unknown #
vertex $-1 $339 $548 #
ellipse-curve $-1 66.764398052975565 35.660989734211888 10.626691991891345 0.87461971476443456 0 0.48480960649040278 0.48480960649040278 0 -0.87461971476443456 1 I I #
point $-1 70.387743684159915 35.660989734211888 11.491791139395689 #
edge $-1 $549 1 $549 0 $342 $-1 forward 7 unknown #
vertex $-1 $343 $550 #
ellipse-curve $-1 66.764398052975565 41.396326784262534 10.626691991891345 0.87461971476443456 0 0.48480960649040278 0.48480960649040278 0 -0.87461971476443456 1 I I #
point $-1 70.387743684159915 41.396326784262534 11.491791139395689 #
plane-surface $-1 72.608417004913491 0 0 -1 0 0 0 0 1 forward_v I I I I #
coedge $-1 $475 $354 $357 $483 forward $347 $-1 #
coedge $-1 $354 $475 $349 $474 reversed $347 $-1 #
edge $-1 $480 -17.247231437019192 $487 17.247231437019192 $473 $551 forward 7 unknown #
coedge $-1 $473 $472 $350 $476 reversed $347 $-1 #
edge $-1 $487 -72.608417004913491 $477 72.608417004913491 $475 $552 forward 7 unknown #
vertex $-1 $352 $553 #
straight-curve $-1 72.608417004913491 0 -17.247231437019192 0 -1 0 I I #
edge $-1 $480 -45.219884817629612 $365 45.219884817629612 $363 $554 forward 7 unknown #
vertex $-1 $355 $555 #
straight-curve $-1 0 45.219884817629612 17.247231437019192 -1 0 0 I I #
straight-curve $-1 0 -45.219884817629612 17.247231437019192 1 0 0 I I #
edge $-1 $360 -17.247231437019192 $477 17.247231437019192 $357 $556 forward 7 unknown #
point $-1 72.608417004913491 -45.219884817629612 17.247231437019192 #
point $-1 72.608417004913491 45.219884817629612 17.247231437019192 #
point $-1 -72.608417004913491 -45.219884817629612 17.247231437019192 #
vertex $-1 $476 $557 #
straight-curve $-1 -72.608417004913491 0 -17.247231437019192 0 1 0 I I #
plane-surface $-1 0 0 17.247231437019192 0 0 1 1 0 0 forward_v I I I I #
coedge $-1 $378 $502 $491 $558 forward $371 $-1 #
coedge $-1 $374 $373 $490 $558 reversed $160 $-1 #
edge $-1 $498 -3.9965972953930162 $496 3.9965972953930162 $373 $559 forward 7 unknown #
coedge $-1 $386 $385 $374 $494 forward $387 $-1 #
edge $-1 $495 -3.9965972953930162 $560 3.9965972953930162 $374 $561 forward 7 unknown #
vertex $-1 $390 $562 #
vertex $-1 $380 $563 #
straight-curve $-1 -69.547187705554066 -65.277919674314859 0 0 0 -1 I I #
vertex $-1 $558 $564 #
straight-curve $-1 -61.553993114768033 -55.248902245972232 -17.247231437019192 0 -1 0 I I #
straight-curve $-1 -69.547187705554066 -55.248902245972232 -17.247231437019192 0 1 0 I I #
point $-1 -61.553993114768033 -45.219884817629612 -17.247231437019192 #
coedge $-1 $490 $383 $386 $504 reversed $371 $-1 #
straight-curve $-1 -61.553993114768033 -45.219884817629612 0 0 0 -1 I I #
edge $-1 $560 -10.029017428342627 $388 10.02901742834262 $502 $565 forward 7 unknown #
point $-1 -61.553993114768033 -45.219884817629612 17.247231437019192 #
straight-curve $-1 -69.547187705554066 -55.248902245972232 17.247231437019192 0 -1 0 I I #
edge $-1 $508 49.339099833627216 $511 56.56452770633306 $394 $566 forward 7 unknown #
vertex $-1 $408 $567 #
straight-curve $-1 -74.78080792687885 10.029017428342616 17.247231437019195 -1 0 0 I I #
edge $-1 $511 -8.1693038725938223 $405 4.4498767610962346 $404 $568 forward 7 unknown #
vertex $-1 $510 $569 #
straight-curve $-1 -72.608417004913505 10.029017428342616 10.021803564313345 0.84804809178421925 0 0.52991927123019833 I I #
point $-1 -61.045315505419453 10.029017428342616 17.247231437019192 #
point $-1 -72.608417004913491 -2.5901632053474408 10.021803564313354 #
straight-curve $-1 -72.608417004913491 0 17.247231437019192 0 -1 0 I I #
vertex $-1 $411 $570 #
point $-1 -64.96901686037576 1.0153169757068667 12.548416908893858 #
vertex $-1 $415 $571 #
point $-1 -64.96901686037576 6.4235372472883228 12.548416908893858 #
edge $-1 $523 -25.764737567237315 $429 -13.145556933547265 $428 $572 forward 7 unknown #
coedge $-1 $522 $422 $527 $573 reversed $419 $-1 #
coedge $-1 $422 $521 $424 $525 reversed $419 $-1 #
vertex $-1 $423 $574 #
straight-curve $-1 -48.750838627979704 45.219884817629612 24.929673376534954 -0.84804809178421925 0 -0.52991927123019833 I I #
edge $-1 $425 61.045315505419453 $529 72.608417004913491 $522 $575 forward 7 unknown #
point $-1 -61.045315505419453 45.219884817629605 17.247231437019192 #
coedge $-1 $428 $427 $521 $573 forward $297 $-1 #
point $-1 -72.608417004913491 32.600704183939555 10.021803564313354 #
vertex $-1 $525 $576 #
straight-curve $-1 -72.608417004913491 0 17.247231437019192 0 -1 0 I I #
vertex $-1 $435 $577 #
point $-1 -64.96901686037576 36.206184364993867 12.548416908893858 #
vertex $-1 $439 $578 #
point $-1 -64.96901686037576 41.614404636575323 12.548416908893858 #
coedge $-1 $444 $452 $445 $537 forward $319 $-1 #
edge $-1 $539 -27.389389950523668 $453 -8.271599783688206 $444 $579 forward 7 unknown #
edge $-1 $543 -72.608417004913491 $539 -67.197451150425593 $445 $580 forward 7 unknown #
edge $-1 $543 -17.247231437019192 $450 -7.4855902713011071 $449 $581 forward 7 unknown #
vertex $-1 $536 $582 #
straight-curve $-1 30.461240004315115 45.219884817629612 83.521113150568183 -0.48480960649040278 0 0.87461971476443456 I I #
point $-1 72.608417004913491 45.219884817629612 7.4855902713011071 #
point $-1 67.197451150425593 26.102094650794143 17.247231437019195 #
vertex $-1 $456 $583 #
straight-curve $-1 72.608417004913491 0 17.247231437019192 0 1 0 I I #
vertex $-1 $459 $584 #
point $-1 67.249207659465966 29.925652684161243 9.7520722771269117 #
vertex $-1 $463 $585 #
point $-1 67.249207659465966 35.660989734211888 9.7520722771269117 #
vertex $-1 $467 $586 #
point $-1 67.249207659465966 41.396326784262534 9.7520722771269117 #
straight-curve $-1 -72.608417004913491 45.219884817629612 0 0 0 -1 I I #
straight-curve $-1 0 45.219884817629612 -17.247231437019192 1 0 0 I I #
point $-1 72.608417004913491 45.219884817629612 -17.247231437019192 #
straight-curve $-1 -72.608417004913491 0 17.247231437019192 0 -1 0 I I #
point $-1 -72.608417004913491 45.219884817629612 17.247231437019192 #
straight-curve $-1 72.608417004913491 45.219884817629612 0 0 0 -1 I I #
point $-1 -72.608417004913491 45.219884817629612 -17.247231437019192 #
edge $-1 $560 -17.247231437019192 $498 17.247231437019192 $490 $587 forward 7 unknown #
straight-curve $-1 -65.55059041016105 -65.277919674314859 -17.247231437019192 -1 0 0 I I #
vertex $-1 $504 $588 #
straight-curve $-1 -65.55059041016105 -65.277919674314859 17.247231437019192 1 0 0 I I #
point $-1 -69.547187705554066 -65.277919674314859 17.247231437019192 #
point $-1 -69.547187705554066 -65.277919674314859 -17.247231437019192 #
point $-1 -61.553993114768033 -65.277919674314859 -17.247231437019192 #
straight-curve $-1 -61.553993114768033 -55.248902245972232 17.247231437019192 0 1 0 I I #
straight-curve $-1 -72.608417004913491 10.029017428342616 66.586331270646411 0 0 -1 I I #
point $-1 -72.608417004913491 10.029017428342616 17.247231437019192 #
straight-curve $-1 -72.608417004913491 1.8597135557487938 10.021803564313354 0 -1 0 I I #
point $-1 -72.608417004913491 10.029017428342616 10.021803564313354 #
point $-1 -65.287145680929783 1.0153169757068667 11.170449545879441 #
point $-1 -65.287145680929783 6.4235372472883228 11.170449545879441 #
straight-curve $-1 -72.608417004913491 19.45514725039229 10.021803564313354 0 -1 0 I I #
edge $-1 $529 -17.247231437019192 $523 -10.021803564313354 $521 $589 forward 7 unknown #
point $-1 -72.608417004913491 45.219884817629605 10.021803564313354 #
straight-curve $-1 0 45.219884817629612 17.247231437019192 -1 0 0 I I #
point $-1 -72.608417004913491 45.219884817629612 17.247231437019192 #
point $-1 -65.287145680929783 36.206184364993867 11.170449545879441 #
point $-1 -65.287145680929783 41.614404636575323 11.170449545879441 #
straight-curve $-1 67.197451150425593 17.830494867105937 17.247231437019209 0 -1 0 I I #
straight-curve $-1 0 45.219884817629612 17.247231437019192 -1 0 0 I I #
straight-curve $-1 72.608417004913491 45.219884817629612 0 0 0 -1 I I #
point $-1 67.197451150425593 45.219884817629605 17.247231437019195 #
point $-1 72.608417004913491 45.219884817629612 17.247231437019192 #
point $-1 65.88977833821113 29.925652684161243 10.141882385400944 #
point $-1 65.88977833821113 35.660989734211888 10.141882385400944 #
point $-1 65.88977833821113 41.396326784262534 10.141882385400944 #
straight-curve $-1 -61.553993114768033 -65.277919674314859 0 0 0 -1 I I #
point $-1 -61.553993114768033 -65.277919674314859 17.247231437019192 #
straight-curve $-1 -72.608417004913491 45.219884817629612 0 0 0 -1 I I #
End-of-ACIS-data 