500 0 10 0           
7 Unknown 11 ACIS 5.0 NT 24 Thu Mar 25 18:46:31 1999 
-1 9.9999999999999995e-007 1e-010 
body $-1 $10 $-1 $11 #
body $-1 $12 $-1 $13 #
body $-1 $14 $-1 $15 #
body $-1 $16 $-1 $17 #
body $-1 $18 $-1 $19 #
body $-1 $20 $-1 $21 #
body $-1 $22 $-1 $23 #
body $-1 $24 $-1 $25 #
body $-1 $26 $-1 $27 #
body $-1 $28 $-1 $29 #
lump $-1 $-1 $30 $0 #
transform $-1 1 0 0 0 1 0 0 0 1 45.89983825189978 25.764535813456902 5.8336815731436955 1 rotate no_reflect no_shear #
lump $-1 $-1 $31 $1 #
transform $-1 1 0 0 0 1 0 0 0 1 45.89983825189978 25.764535813456902 5.8336815731436955 1 rotate no_reflect no_shear #
lump $-1 $-1 $32 $2 #
transform $-1 1 0 0 0 1 0 0 0 1 45.89983825189978 25.764535813456902 5.8336815731436955 1 rotate no_reflect no_shear #
lump $-1 $-1 $33 $3 #
transform $-1 1 0 0 0 1 0 0 0 1 45.89983825189978 25.764535813456902 5.8336815731436955 1 rotate no_reflect no_shear #
lump $-1 $-1 $34 $4 #
transform $-1 1 0 0 0 1 0 0 0 1 45.89983825189978 25.764535813456902 5.8336815731436955 1 rotate no_reflect no_shear #
lump $-1 $-1 $35 $5 #
transform $-1 1 0 0 0 1 0 0 0 1 45.89983825189978 25.764535813456902 5.8336815731436955 1 rotate no_reflect no_shear #
lump $-1 $-1 $36 $6 #
transform $-1 1 0 0 0 1 0 0 0 1 45.89983825189978 25.764535813456902 5.8336815731436955 1 rotate no_reflect no_shear #
lump $-1 $-1 $37 $7 #
transform $-1 1 0 0 0 1 0 0 0 1 45.89983825189978 25.764535813456902 5.8336815731436955 1 rotate no_reflect no_shear #
lump $-1 $-1 $38 $8 #
transform $-1 1 0 0 0 1 0 0 0 1 45.89983825189978 25.764535813456902 5.8336815731436955 1 rotate no_reflect no_shear #
lump $-1 $-1 $39 $9 #
transform $-1 1 0 0 0 1 0 0 0 1 45.89983825189978 25.764535813456902 5.8336815731436955 1 rotate no_reflect no_shear #
shell $-1 $-1 $-1 $40 $-1 $10 #
shell $-1 $-1 $-1 $41 $-1 $12 #
shell $-1 $-1 $-1 $42 $-1 $14 #
shell $-1 $-1 $-1 $43 $-1 $16 #
shell $-1 $-1 $-1 $44 $-1 $18 #
shell $-1 $-1 $-1 $45 $-1 $20 #
shell $-1 $-1 $-1 $46 $-1 $22 #
shell $-1 $-1 $-1 $47 $-1 $24 #
shell $-1 $-1 $-1 $48 $-1 $26 #
shell $-1 $-1 $-1 $49 $-1 $28 #
face $-1 $50 $51 $30 $-1 $52 forward single #
face $-1 $53 $54 $31 $-1 $55 forward single #
face $-1 $56 $57 $32 $-1 $58 forward single #
face $-1 $59 $60 $33 $-1 $61 reversed single #
face $-1 $62 $63 $34 $-1 $64 forward single #
face $-1 $65 $66 $35 $-1 $67 forward single #
face $-1 $68 $69 $36 $-1 $70 forward single #
face $-1 $71 $72 $37 $-1 $73 reversed single #
face $-1 $74 $75 $38 $-1 $76 forward single #
face $-1 $77 $78 $39 $-1 $79 forward single #
face $-1 $80 $81 $30 $-1 $82 reversed single #
loop $-1 $-1 $83 $40 #
plane-surface $-1 0 0 5.8336815731436955 0 0 1 1 0 0 forward_v I I I I #
face $-1 $84 $85 $31 $-1 $86 reversed single #
loop $-1 $-1 $87 $41 #
plane-surface $-1 -45.89983825189978 0 0 1 0 0 0 0 -1 forward_v I I I I #
face $-1 $88 $89 $32 $-1 $90 reversed single #
loop $-1 $-1 $91 $42 #
plane-surface $-1 45.89983825189978 0 0 -1 0 0 0 0 1 forward_v I I I I #
face $-1 $92 $93 $33 $-1 $94 reversed single #
loop $-1 $-1 $95 $43 #
plane-surface $-1 -24.26461154868089 45.29867253132096 104.39978991117788 1 0 0 0 -0.64278761758704617 -0.76604443648966558 forward_v I I I I #
face $-1 $96 $97 $34 $-1 $98 forward single #
loop $-1 $99 $100 $44 #
cone-surface $-1 -20.127381367792061 21.933598474210772 2.293365167332166 0 -0.64278761758704617 -0.76604443648966558 1 0 0 1 I I 0 1 1 forward I I I I #
face $-1 $101 $102 $35 $-1 $103 forward single #
loop $-1 $104 $105 $45 #
cone-surface $-1 -13.921536096458823 21.933598474210772 2.293365167332166 0 -0.64278761758704617 -0.76604443648966558 1 0 0 1 I I 0 1 1 forward I I I I #
face $-1 $106 $107 $36 $-1 $108 forward single #
loop $-1 $109 $110 $46 #
cone-surface $-1 -7.7156908251255842 21.933598474210772 2.293365167332166 0 -0.64278761758704617 -0.76604443648966558 1 0 0 1 I I 0 1 1 forward I I I I #
face $-1 $111 $112 $37 $-1 $113 reversed single #
loop $-1 $-1 $114 $47 #
plane-surface $-1 -23.913580773001925 -89.533950251399631 67.064528564672941 -1 0 0 0 -0.69465837861970381 0.71933979245794832 forward_v I I I I #
face $-1 $115 $116 $38 $-1 $117 forward single #
loop $-1 $118 $119 $48 #
cone-surface $-1 -35.028792102432149 -21.431410935567957 1.5203306411727806 0 0.69465837861970381 -0.71933979245794832 1.5 0 0 1 I I 0 1 1.5 forward I I I I #
face $-1 $120 $121 $39 $-1 $122 forward single #
loop $-1 $123 $124 $49 #
cone-surface $-1 -28.359665304774012 -21.431410935567957 1.5203306411727806 0 0.69465837861970381 -0.71933979245794832 1.5 0 0 1 I I 0 1 1.5 forward I I I I #
face $-1 $125 $126 $30 $-1 $127 reversed single #
loop $-1 $-1 $128 $50 #
plane-surface $-1 0 0 -5.8336815731436955 0 0 1 1 0 0 forward_v I I I I #
coedge $-1 $129 $130 $131 $132 forward $51 $-1 #
face $-1 $133 $134 $31 $-1 $135 forward single #
loop $-1 $-1 $136 $53 #
plane-surface $-1 0 25.764535813456902 0 0 -1 0 0 0 -1 forward_v I I I I #
coedge $-1 $137 $138 $139 $140 forward $54 $-1 #
face $-1 $141 $142 $32 $-1 $143 forward single #
loop $-1 $-1 $144 $56 #
plane-surface $-1 0 -25.764535813456902 0 0 1 0 0 0 1 forward_v I I I I #
coedge $-1 $145 $146 $147 $148 forward $57 $-1 #
face $-1 $149 $150 $33 $-1 $151 reversed single #
loop $-1 $-1 $152 $59 #
plane-surface $-1 -13.921536096458823 -13.709022823817897 34.077158453891144 0 0.64278761758704617 0.76604443648966558 1 0 0 forward_v I I I I #
coedge $-1 $153 $154 $155 $156 reversed $60 $-1 #
face $-1 $-1 $157 $34 $-1 $158 forward single #
loop $-1 $159 $160 $62 #
cone-surface $-1 -20.127381367792061 20.688414477313351 0.80941269667017313 0 -0.64278761758704617 -0.76604443648966558 0.5 0 0 1 I I -0.70710678118654746 0.70710678118654746 0.5 forward I I I I #
loop $-1 $-1 $161 $44 #
coedge $-1 $100 $100 $162 $163 reversed $63 $-1 #
face $-1 $-1 $164 $35 $-1 $165 forward single #
loop $-1 $166 $167 $65 #
cone-surface $-1 -13.921536096458823 20.688414477313351 0.80941269667017313 0 -0.64278761758704617 -0.76604443648966558 0.5 0 0 1 I I -0.70710678118654746 0.70710678118654746 0.5 forward I I I I #
loop $-1 $-1 $168 $45 #
coedge $-1 $105 $105 $169 $170 reversed $66 $-1 #
face $-1 $-1 $171 $36 $-1 $172 forward single #
loop $-1 $173 $174 $68 #
cone-surface $-1 -7.7156908251255842 20.688414477313351 0.80941269667017313 0 -0.64278761758704617 -0.76604443648966558 0.5 0 0 1 I I -0.70710678118654746 0.70710678118654746 0.5 forward I I I I #
loop $-1 $-1 $175 $46 #
coedge $-1 $110 $110 $176 $177 reversed $69 $-1 #
face $-1 $178 $179 $37 $-1 $180 reversed single #
loop $-1 $-1 $181 $71 #
plane-surface $-1 -31.694228703603081 -25.764535813456909 1.0293683207229662 0 -0.69465837861970381 0.71933979245794832 1 0 0 forward_v I I I I #
coedge $-1 $182 $183 $184 $185 reversed $72 $-1 #
face $-1 $-1 $186 $38 $-1 $187 forward single #
loop $-1 $188 $189 $74 #
cone-surface $-1 -35.028792102432149 -19.064798222153442 -0.93036850893123102 0 0.69465837861970381 -0.71933979245794832 0.75 0 0 1 I I -0.70710678118654757 0.70710678118654757 0.75 forward I I I I #
loop $-1 $-1 $190 $48 #
coedge $-1 $119 $119 $191 $192 reversed $75 $-1 #
face $-1 $-1 $193 $39 $-1 $194 forward single #
loop $-1 $195 $196 $77 #
cone-surface $-1 -28.359665304774012 -19.064798222153442 -0.93036850893123102 0 0.69465837861970381 -0.71933979245794832 0.75 0 0 1 I I -0.70710678118654757 0.70710678118654757 0.75 forward I I I I #
loop $-1 $-1 $197 $49 #
coedge $-1 $124 $124 $198 $199 reversed $78 $-1 #
face $-1 $200 $201 $30 $-1 $202 reversed single #
loop $-1 $-1 $203 $80 #
plane-surface $-1 0 -25.764535813456902 0 0 1 0 0 0 1 forward_v I I I I #
coedge $-1 $204 $205 $206 $207 forward $81 $-1 #
coedge $-1 $208 $83 $209 $210 forward $51 $-1 #
coedge $-1 $83 $208 $211 $212 forward $51 $-1 #
coedge $-1 $213 $214 $83 $132 reversed $215 $-1 #
edge $-1 $216 -25.764535813456902 $217 25.764535813456902 $131 $218 forward 7 unknown #
face $-1 $219 $220 $31 $-1 $221 reversed single #
loop $-1 $-1 $139 $84 #
plane-surface $-1 -49.112319060747552 0 4.0619600742627178 0 0 1 1 0 0 forward_v I I I I #
coedge $-1 $222 $223 $138 $224 forward $85 $-1 #
coedge $-1 $225 $87 $226 $227 reversed $54 $-1 #
coedge $-1 $87 $225 $136 $224 reversed $54 $-1 #
coedge $-1 $228 $229 $87 $140 reversed $134 $-1 #
edge $-1 $230 -25.764535813456902 $231 25.764535813456902 $139 $232 forward 7 unknown #
face $-1 $233 $234 $32 $-1 $235 reversed single #
loop $-1 $-1 $236 $88 #
plane-surface $-1 49.112319060747552 0 4.0619600742627178 0 0 1 1 0 0 forward_v I I I I #
coedge $-1 $237 $238 $146 $239 forward $89 $-1 #
coedge $-1 $240 $91 $241 $242 reversed $57 $-1 #
coedge $-1 $91 $240 $144 $239 reversed $57 $-1 #
coedge $-1 $243 $244 $91 $148 reversed $142 $-1 #
edge $-1 $245 -25.764535813456902 $246 25.764535813456902 $147 $247 forward 7 unknown #
face $-1 $248 $249 $33 $-1 $250 reversed single #
loop $-1 $-1 $251 $92 #
plane-surface $-1 -3.5784606442367561 45.29867253132096 104.39978991117788 -1 0 0 0 0.64278761758704617 0.76604443648966558 forward_v I I I I #
coedge $-1 $252 $253 $254 $255 reversed $93 $-1 #
coedge $-1 $154 $95 $256 $257 reversed $60 $-1 #
coedge $-1 $95 $153 $252 $258 reversed $60 $-1 #
coedge $-1 $254 $259 $95 $156 forward $260 $-1 #
edge $-1 $261 -3.1151995477964221 $262 2.6990947544880299 $155 $263 forward 7 unknown #
loop $-1 $-1 $162 $96 #
plane-surface $-1 -13.921536096458823 -13.709022823817897 34.077158453891144 0 0.64278761758704617 0.76604443648966558 1 0 0 forward_v I I I I #
loop $-1 $-1 $264 $62 #
coedge $-1 $160 $160 $161 $265 reversed $97 $-1 #
coedge $-1 $161 $161 $160 $265 forward $99 $-1 #
coedge $-1 $162 $162 $100 $163 forward $157 $-1 #
edge $-1 $266 -1.5244114132513645e-016 $266 6.2831853071796004 $162 $267 forward 7 unknown #
loop $-1 $-1 $169 $101 #
plane-surface $-1 -13.921536096458823 -13.709022823817897 34.077158453891144 0 0.64278761758704617 0.76604443648966558 1 0 0 forward_v I I I I #
loop $-1 $-1 $268 $65 #
coedge $-1 $167 $167 $168 $269 reversed $102 $-1 #
coedge $-1 $168 $168 $167 $269 forward $104 $-1 #
coedge $-1 $169 $169 $105 $170 forward $164 $-1 #
edge $-1 $270 -1.5244114132513645e-016 $270 6.2831853071796004 $169 $271 forward 7 unknown #
loop $-1 $-1 $176 $106 #
plane-surface $-1 -13.921536096458823 -13.709022823817897 34.077158453891144 0 0.64278761758704617 0.76604443648966558 1 0 0 forward_v I I I I #
loop $-1 $-1 $272 $68 #
coedge $-1 $174 $174 $175 $273 reversed $107 $-1 #
coedge $-1 $175 $175 $174 $273 forward $109 $-1 #
coedge $-1 $176 $176 $110 $177 forward $171 $-1 #
edge $-1 $274 -1.5244114132513645e-016 $274 6.2831853071796004 $176 $275 forward 7 unknown #
face $-1 $276 $277 $37 $-1 $278 forward single #
loop $-1 $-1 $279 $111 #
plane-surface $-1 -39.474876634204236 -89.533950251399631 67.064528564672941 1 0 0 0 0.69465837861970381 -0.71933979245794832 forward_v I I I I #
coedge $-1 $280 $281 $282 $283 reversed $112 $-1 #
coedge $-1 $183 $114 $284 $285 reversed $72 $-1 #
coedge $-1 $114 $182 $280 $286 reversed $72 $-1 #
coedge $-1 $282 $287 $114 $185 forward $277 $-1 #
edge $-1 $288 19.002439312242913 $289 23.977451209121323 $184 $290 forward 7 unknown #
loop $-1 $-1 $191 $115 #
plane-surface $-1 -31.694228703603081 -25.764535813456909 1.0293683207229662 0 -0.69465837861970381 0.71933979245794832 1 0 0 forward_v I I I I #
loop $-1 $-1 $291 $74 #
coedge $-1 $189 $189 $190 $292 reversed $116 $-1 #
coedge $-1 $190 $190 $189 $292 forward $118 $-1 #
coedge $-1 $191 $191 $119 $192 forward $186 $-1 #
edge $-1 $293 -3.5286305626575495e-016 $293 6.2831853071796004 $191 $294 forward 7 unknown #
loop $-1 $-1 $198 $120 #
plane-surface $-1 -31.694228703603081 -25.764535813456909 1.0293683207229662 0 -0.69465837861970381 0.71933979245794832 1 0 0 forward_v I I I I #
loop $-1 $-1 $295 $77 #
coedge $-1 $196 $196 $197 $296 reversed $121 $-1 #
coedge $-1 $197 $197 $196 $296 forward $123 $-1 #
coedge $-1 $198 $198 $124 $199 forward $193 $-1 #
edge $-1 $297 -3.5286305626575495e-016 $297 6.2831853071796004 $198 $298 forward 7 unknown #
face $-1 $299 $300 $30 $-1 $301 reversed single #
loop $-1 $-1 $302 $125 #
plane-surface $-1 -45.89983825189978 0 0 1 0 0 0 0 -1 forward_v I I I I #
coedge $-1 $303 $211 $304 $305 forward $126 $-1 #
coedge $-1 $306 $128 $303 $307 forward $81 $-1 #
coedge $-1 $128 $306 $308 $309 forward $81 $-1 #
coedge $-1 $214 $213 $128 $207 reversed $215 $-1 #
edge $-1 $310 -25.764535813456902 $311 25.764535813456902 $206 $312 forward 7 unknown #
coedge $-1 $130 $129 $313 $314 forward $51 $-1 #
coedge $-1 $315 $316 $129 $210 reversed $300 $-1 #
edge $-1 $217 -45.89983825189978 $317 45.89983825189978 $209 $318 forward 7 unknown #
coedge $-1 $203 $319 $130 $212 reversed $126 $-1 #
edge $-1 $320 -45.89983825189978 $216 45.89983825189978 $211 $321 forward 7 unknown #
coedge $-1 $206 $131 $319 $322 forward $215 $-1 #
coedge $-1 $131 $206 $315 $323 reversed $215 $-1 #
loop $-1 $-1 $213 $299 #
vertex $-1 $132 $324 #
vertex $-1 $132 $325 #
straight-curve $-1 45.89983825189978 0 5.8336815731436955 0 1 0 I I #
face $-1 $326 $327 $31 $-1 $328 reversed single #
loop $-1 $-1 $329 $133 #
plane-surface $-1 -49.112319060747552 0 1.0619600742627191 0 0 1 1 0 0 forward_v I I I I #
coedge $-1 $330 $136 $331 $332 reversed $85 $-1 #
coedge $-1 $136 $330 $228 $333 reversed $85 $-1 #
edge $-1 $230 -4.0619600742627178 $334 -1.0619600742627191 $136 $335 forward 7 unknown #
coedge $-1 $138 $137 $329 $336 forward $54 $-1 #
coedge $-1 $337 $338 $137 $227 forward $339 $-1 #
edge $-1 $340 1.0619600742627191 $231 4.0619600742627178 $226 $341 forward 7 unknown #
coedge $-1 $342 $139 $223 $333 forward $134 $-1 #
coedge $-1 $139 $342 $337 $343 forward $134 $-1 #
vertex $-1 $224 $344 #
vertex $-1 $343 $345 #
straight-curve $-1 -45.89983825189978 0 4.0619600742627178 0 -1 0 I I #
face $-1 $346 $347 $32 $-1 $348 reversed single #
loop $-1 $-1 $349 $141 #
plane-surface $-1 49.112319060747552 0 1.0619600742627191 0 0 1 1 0 0 forward_v I I I I #
coedge $-1 $244 $243 $350 $351 forward $142 $-1 #
coedge $-1 $352 $144 $353 $354 reversed $89 $-1 #
coedge $-1 $144 $352 $243 $355 reversed $89 $-1 #
edge $-1 $245 -4.0619600742627178 $356 -1.0619600742627191 $144 $357 forward 7 unknown #
coedge $-1 $146 $145 $358 $359 forward $57 $-1 #
coedge $-1 $360 $361 $145 $242 forward $362 $-1 #
edge $-1 $363 1.0619600742627191 $246 4.0619600742627178 $241 $364 forward 7 unknown #
coedge $-1 $236 $147 $238 $355 forward $142 $-1 #
coedge $-1 $147 $236 $360 $365 forward $142 $-1 #
vertex $-1 $239 $366 #
vertex $-1 $365 $367 #
straight-curve $-1 45.89983825189978 0 4.0619600742627178 0 1 0 I I #
face $-1 $-1 $260 $33 $-1 $368 forward single #
loop $-1 $-1 $369 $149 #
plane-surface $-1 0 25.764535813456902 0 0 -1 0 0 0 -1 forward_v I I I I #
coedge $-1 $370 $371 $372 $373 reversed $150 $-1 #
coedge $-1 $374 $152 $154 $258 forward $93 $-1 #
coedge $-1 $152 $374 $370 $375 forward $93 $-1 #
coedge $-1 $372 $155 $152 $255 forward $260 $-1 #
edge $-1 $262 -17.303843500451478 $376 3.3823074039926553 $254 $377 forward 7 unknown #
coedge $-1 $378 $379 $153 $257 forward $249 $-1 #
edge $-1 $380 -51.244985689233978 $261 -46.366213382445245 $256 $381 forward 7 unknown #
edge $-1 $262 43.939049396704846 $380 51.529071626913804 $154 $382 forward 7 unknown #
coedge $-1 $155 $372 $378 $383 forward $260 $-1 #
loop $-1 $-1 $372 $248 #
vertex $-1 $257 $384 #
vertex $-1 $156 $385 #
straight-curve $-1 -24.26461154868089 22.64933626566048 5.8336815731436928 0 -1 0 I I #
coedge $-1 $264 $264 $-1 $386 reversed $159 $-1 #
edge $-1 $387 0 $387 6.2831853071796004 $160 $388 forward 7 unknown #
vertex $-1 $163 $389 #
ellipse-curve $-1 -20.127381367792061 22.857388662314673 3.39429541974933 0 0.64278761758704617 0.76604443648966558 1 0 0 1 I I #
coedge $-1 $268 $268 $-1 $390 reversed $166 $-1 #
edge $-1 $391 0 $391 6.2831853071796004 $167 $392 forward 7 unknown #
vertex $-1 $170 $393 #
ellipse-curve $-1 -13.921536096458823 22.857388662314673 3.39429541974933 0 0.64278761758704617 0.76604443648966558 1 0 0 1 I I #
coedge $-1 $272 $272 $-1 $394 reversed $173 $-1 #
edge $-1 $395 0 $395 6.2831853071796004 $174 $396 forward 7 unknown #
vertex $-1 $177 $397 #
ellipse-curve $-1 -7.7156908251255842 22.857388662314673 3.39429541974933 0 0.64278761758704617 0.76604443648966558 1 0 0 1 I I #
face $-1 $-1 $398 $37 $-1 $399 reversed single #
loop $-1 $-1 $184 $178 #
plane-surface $-1 0 0 5.8336815731436955 0 0 1 1 0 0 forward_v I I I I #
coedge $-1 $400 $401 $402 $403 reversed $179 $-1 #
coedge $-1 $404 $181 $183 $286 forward $112 $-1 #
coedge $-1 $181 $404 $400 $405 forward $112 $-1 #
coedge $-1 $402 $184 $181 $283 forward $277 $-1 #
edge $-1 $289 8.0664664212003849 $406 23.627762282402696 $282 $407 forward 7 unknown #
coedge $-1 $408 $409 $182 $285 forward $398 $-1 #
edge $-1 $410 -32.502895961613497 $288 -27.698582709192774 $284 $411 forward 7 unknown #
edge $-1 $289 -6.9160804796840836 $410 -9.8928161431344572e-015 $183 $412 forward 7 unknown #
coedge $-1 $184 $402 $408 $413 forward $277 $-1 #
vertex $-1 $285 $414 #
vertex $-1 $185 $415 #
straight-curve $-1 -23.913580773001925 -44.766975125699815 5.8336815731436964 0 1 0 I I #
coedge $-1 $291 $291 $-1 $416 reversed $188 $-1 #
edge $-1 $417 0 $417 6.2831853071796004 $189 $418 forward 7 unknown #
vertex $-1 $192 $419 #
ellipse-curve $-1 -35.028792102432149 -23.277029865017695 3.4315249469333349 0 -0.69465837861970381 0.71933979245794832 1.5 0 0 1 I I #
coedge $-1 $295 $295 $-1 $420 reversed $195 $-1 #
edge $-1 $421 0 $421 6.2831853071796004 $196 $422 forward 7 unknown #
vertex $-1 $199 $423 #
ellipse-curve $-1 -28.359665304774012 -23.277029865017695 3.4315249469333349 0 -0.69465837861970381 0.71933979245794832 1.5 0 0 1 I I #
face $-1 $-1 $215 $30 $-1 $424 reversed single #
loop $-1 $-1 $315 $200 #
plane-surface $-1 0 25.764535813456902 0 0 -1 0 0 0 -1 forward_v I I I I #
coedge $-1 $425 $313 $316 $426 forward $201 $-1 #
coedge $-1 $319 $203 $204 $307 reversed $126 $-1 #
coedge $-1 $313 $425 $203 $305 reversed $201 $-1 #
edge $-1 $320 -5.8336815731436955 $427 5.8336815731436955 $304 $428 forward 7 unknown #
coedge $-1 $205 $204 $425 $429 forward $81 $-1 #
edge $-1 $311 -45.89983825189978 $427 45.89983825189978 $303 $430 forward 7 unknown #
coedge $-1 $316 $315 $205 $309 reversed $300 $-1 #
edge $-1 $431 -45.89983825189978 $310 45.89983825189978 $308 $432 forward 7 unknown #
vertex $-1 $207 $433 #
vertex $-1 $322 $434 #
straight-curve $-1 45.89983825189978 0 -5.8336815731436955 0 -1 0 I I #
coedge $-1 $302 $304 $208 $314 reversed $201 $-1 #
edge $-1 $317 -25.764535813456902 $320 25.764535813456902 $313 $435 forward 7 unknown #
coedge $-1 $308 $209 $214 $323 forward $300 $-1 #
coedge $-1 $209 $308 $302 $426 reversed $300 $-1 #
vertex $-1 $210 $436 #
straight-curve $-1 0 25.764535813456902 5.8336815731436955 -1 0 0 I I #
coedge $-1 $211 $303 $213 $322 reversed $126 $-1 #
vertex $-1 $314 $437 #
straight-curve $-1 0 -25.764535813456902 5.8336815731436955 1 0 0 I I #
edge $-1 $216 -5.8336815731436955 $311 5.8336815731436955 $213 $438 forward 7 unknown #
edge $-1 $217 -5.8336815731436955 $310 5.8336815731436955 $214 $439 forward 7 unknown #
point $-1 45.89983825189978 -25.764535813456902 5.8336815731436955 #
point $-1 45.89983825189978 25.764535813456902 5.8336815731436955 #
face $-1 $-1 $339 $31 $-1 $440 reversed single #
loop $-1 $-1 $441 $219 #
plane-surface $-1 -52.324799869595324 0 2.5619600742627187 1 0 0 0 0 -1 forward_v I I I I #
coedge $-1 $442 $331 $225 $336 reversed $220 $-1 #
coedge $-1 $223 $222 $441 $443 reversed $85 $-1 #
coedge $-1 $329 $444 $222 $332 forward $220 $-1 #
edge $-1 $445 -3.2124808088477721 $334 3.2124808088477721 $222 $446 forward 7 unknown #
edge $-1 $230 -3.2124808088477721 $447 3.2124808088477721 $223 $448 forward 7 unknown #
vertex $-1 $224 $449 #
straight-curve $-1 -45.89983825189978 25.764535813456902 0 0 0 -1 I I #
edge $-1 $340 -25.764535813456902 $334 25.764535813456902 $329 $450 forward 7 unknown #
coedge $-1 $451 $226 $229 $343 reversed $339 $-1 #
coedge $-1 $226 $451 $442 $452 reversed $339 $-1 #
loop $-1 $-1 $226 $326 #
vertex $-1 $227 $453 #
straight-curve $-1 -45.89983825189978 -25.764535813456902 0 0 0 1 I I #
coedge $-1 $229 $228 $454 $455 forward $134 $-1 #
edge $-1 $456 -3.2124808088477721 $231 3.2124808088477721 $337 $457 forward 7 unknown #
point $-1 -45.89983825189978 25.764535813456902 4.0619600742627178 #
point $-1 -45.89983825189978 -25.764535813456902 4.0619600742627178 #
face $-1 $-1 $362 $32 $-1 $458 reversed single #
loop $-1 $-1 $459 $233 #
plane-surface $-1 52.324799869595324 0 2.5619600742627187 -1 0 0 0 0 1 forward_v I I I I #
coedge $-1 $353 $460 $461 $462 forward $234 $-1 #
coedge $-1 $459 $463 $236 $351 reversed $347 $-1 #
edge $-1 $464 -25.764535813456902 $465 25.764535813456902 $350 $466 forward 7 unknown #
coedge $-1 $238 $237 $459 $467 reversed $89 $-1 #
coedge $-1 $358 $349 $237 $354 forward $234 $-1 #
edge $-1 $468 -3.2124808088477721 $356 3.2124808088477721 $237 $469 forward 7 unknown #
edge $-1 $245 -3.2124808088477721 $464 3.2124808088477721 $238 $470 forward 7 unknown #
vertex $-1 $239 $471 #
straight-curve $-1 45.89983825189978 -25.764535813456902 0 0 0 -1 I I #
coedge $-1 $460 $353 $240 $359 reversed $234 $-1 #
edge $-1 $363 -25.764535813456902 $356 25.764535813456902 $358 $472 forward 7 unknown #
coedge $-1 $473 $241 $244 $365 reversed $362 $-1 #
coedge $-1 $241 $473 $460 $474 reversed $362 $-1 #
loop $-1 $-1 $241 $346 #
vertex $-1 $242 $475 #
straight-curve $-1 45.89983825189978 25.764535813456902 0 0 0 1 I I #
edge $-1 $465 -3.2124808088477721 $246 3.2124808088477721 $360 $476 forward 7 unknown #
point $-1 45.89983825189978 -25.764535813456902 4.0619600742627178 #
point $-1 45.89983825189978 25.764535813456902 4.0619600742627178 #
plane-surface $-1 0 0 5.8336815731436955 0 0 1 1 0 0 forward_v I I I I #
coedge $-1 $379 $378 $371 $477 forward $249 $-1 #
coedge $-1 $371 $251 $253 $375 reversed $150 $-1 #
coedge $-1 $251 $370 $369 $477 reversed $150 $-1 #
coedge $-1 $259 $254 $251 $373 forward $260 $-1 #
edge $-1 $376 -2.6990947544880299 $478 3.1151995477964221 $372 $479 forward 7 unknown #
coedge $-1 $253 $252 $379 $480 reversed $93 $-1 #
edge $-1 $481 -51.529071626913804 $376 -43.939049396704846 $370 $482 forward 7 unknown #
vertex $-1 $255 $483 #
straight-curve $-1 -6.9607680482294114 19.950241511172443 5.8336815731436964 1 0 0 I I #
coedge $-1 $369 $256 $259 $383 reversed $249 $-1 #
coedge $-1 $256 $369 $374 $480 forward $249 $-1 #
vertex $-1 $257 $484 #
straight-curve $-1 -24.26461154868089 25.764535813456902 52.199894955588938 0 0 1 I I #
straight-curve $-1 -24.26461154868089 -13.709022823817897 34.077158453891144 0 0.76604443648966558 -0.64278761758704617 I I #
edge $-1 $478 3.5784606442367561 $261 24.26461154868089 $378 $485 forward 7 unknown #
point $-1 -24.26461154868089 25.764535813456902 5.8336815731436955 #
point $-1 -24.26461154868089 19.95024151117245 5.8336815731436964 #
edge $-1 $486 1 $486 0 $264 $-1 forward 7 unknown #
vertex $-1 $265 $487 #
ellipse-curve $-1 -20.127381367792061 21.009808286106875 1.192434914915006 0 0.64278761758704617 0.76604443648966558 1 0 0 1 I I #
point $-1 -19.127381367792061 22.857388662314669 3.394295419749326 #
edge $-1 $488 1 $488 0 $268 $-1 forward 7 unknown #
vertex $-1 $269 $489 #
ellipse-curve $-1 -13.921536096458823 21.009808286106875 1.192434914915006 0 0.64278761758704617 0.76604443648966558 1 0 0 1 I I #
point $-1 -12.921536096458823 22.857388662314669 3.394295419749326 #
edge $-1 $490 1 $490 0 $272 $-1 forward 7 unknown #
vertex $-1 $273 $491 #
ellipse-curve $-1 -7.7156908251255842 21.009808286106875 1.192434914915006 0 0.64278761758704617 0.76604443648966558 1 0 0 1 I I #
point $-1 -6.7156908251255842 22.857388662314669 3.394295419749326 #
loop $-1 $-1 $284 $276 #
plane-surface $-1 0 -25.764535813456902 0 0 1 0 0 0 1 forward_v I I I I #
coedge $-1 $401 $279 $281 $405 reversed $179 $-1 #
coedge $-1 $279 $400 $492 $493 reversed $179 $-1 #
coedge $-1 $287 $282 $279 $403 forward $277 $-1 #
edge $-1 $406 -23.977451209121323 $494 -19.002439312242913 $402 $495 forward 7 unknown #
coedge $-1 $281 $280 $409 $496 reversed $112 $-1 #
edge $-1 $497 9.8928161431344572e-015 $406 6.9160804796840836 $400 $498 forward 7 unknown #
vertex $-1 $283 $499 #
straight-curve $-1 -15.84711435180154 -20.789523916578496 5.8336815731436955 -1 0 0 I I #
coedge $-1 $492 $284 $287 $413 reversed $398 $-1 #
coedge $-1 $284 $492 $404 $496 forward $398 $-1 #
vertex $-1 $285 $500 #
straight-curve $-1 -23.913580773001925 -25.764535813456902 33.53226428233647 0 0 1 I I #
straight-curve $-1 -23.913580773001925 -25.764535813456909 1.0293683207229662 0 -0.71933979245794832 -0.69465837861970381 I I #
edge $-1 $494 -39.474876634204236 $288 -23.913580773001925 $408 $501 forward 7 unknown #
point $-1 -23.913580773001925 -25.764535813456902 5.8336815731436955 #
point $-1 -23.913580773001925 -20.789523916578492 5.8336815731436955 #
edge $-1 $502 1 $502 0 $291 $-1 forward 7 unknown #
vertex $-1 $292 $503 #
ellipse-curve $-1 -35.028792102432149 -19.585792006118218 -0.39086366458776978 0 -0.69465837861970381 0.71933979245794832 1.5 0 0 1 I I #
point $-1 -33.528792102432149 -23.277029865017692 3.4315249469333304 #
edge $-1 $504 1 $504 0 $295 $-1 forward 7 unknown #
vertex $-1 $296 $505 #
ellipse-curve $-1 -28.359665304774012 -19.585792006118218 -0.39086366458776978 0 -0.69465837861970381 0.71933979245794832 1.5 0 0 1 I I #
point $-1 -26.859665304774012 -23.277029865017692 3.4315249469333304 #
plane-surface $-1 45.89983825189978 0 0 -1 0 0 0 0 1 forward_v I I I I #
coedge $-1 $304 $302 $306 $429 reversed $201 $-1 #
edge $-1 $317 -5.8336815731436955 $431 5.8336815731436955 $316 $506 forward 7 unknown #
vertex $-1 $429 $507 #
straight-curve $-1 -45.89983825189978 -25.764535813456902 0 0 0 -1 I I #
edge $-1 $427 -25.764535813456902 $431 25.764535813456902 $425 $508 forward 7 unknown #
straight-curve $-1 0 -25.764535813456902 -5.8336815731436955 -1 0 0 I I #
vertex $-1 $309 $509 #
straight-curve $-1 0 25.764535813456902 -5.8336815731436955 1 0 0 I I #
point $-1 45.89983825189978 25.764535813456902 -5.8336815731436955 #
point $-1 45.89983825189978 -25.764535813456902 -5.8336815731436955 #
straight-curve $-1 -45.89983825189978 0 5.8336815731436955 0 -1 0 I I #
point $-1 -45.89983825189978 25.764535813456902 5.8336815731436955 #
point $-1 -45.89983825189978 -25.764535813456902 5.8336815731436955 #
straight-curve $-1 45.89983825189978 -25.764535813456902 0 0 0 -1 I I #
straight-curve $-1 45.89983825189978 25.764535813456902 0 0 0 -1 I I #
plane-surface $-1 0 -25.764535813456902 0 0 1 0 0 0 1 forward_v I I I I #
coedge $-1 $510 $454 $330 $443 forward $327 $-1 #
coedge $-1 $444 $329 $338 $452 forward $220 $-1 #
edge $-1 $447 -1.4999999999999991 $445 1.4999999999999996 $330 $511 forward 7 unknown #
coedge $-1 $331 $442 $510 $512 forward $220 $-1 #
vertex $-1 $332 $513 #
straight-curve $-1 -49.112319060747552 25.764535813456902 1.0619600742627191 1 0 0 I I #
vertex $-1 $333 $514 #
straight-curve $-1 -49.112319060747552 25.764535813456902 4.0619600742627178 -1 0 0 I I #
point $-1 -45.89983825189978 25.764535813456902 1.0619600742627191 #
straight-curve $-1 -45.89983825189978 0 1.0619600742627191 0 1 0 I I #
coedge $-1 $338 $337 $515 $516 forward $339 $-1 #
edge $-1 $340 -3.2124808088477721 $517 3.2124808088477721 $338 $518 forward 7 unknown #
point $-1 -45.89983825189978 -25.764535813456902 1.0619600742627191 #
coedge $-1 $441 $515 $342 $455 reversed $327 $-1 #
edge $-1 $447 -25.764535813456902 $456 25.764535813456902 $454 $519 forward 7 unknown #
vertex $-1 $455 $520 #
straight-curve $-1 -49.112319060747552 -25.764535813456902 4.0619600742627178 1 0 0 I I #
plane-surface $-1 0 25.764535813456902 0 0 -1 0 0 0 -1 forward_v I I I I #
coedge $-1 $461 $350 $352 $467 forward $347 $-1 #
coedge $-1 $349 $358 $361 $474 forward $234 $-1 #
coedge $-1 $463 $459 $349 $462 reversed $347 $-1 #
edge $-1 $521 -25.764535813456902 $468 25.764535813456902 $461 $522 forward 7 unknown #
coedge $-1 $350 $461 $473 $523 reversed $347 $-1 #
vertex $-1 $351 $524 #
vertex $-1 $351 $525 #
straight-curve $-1 52.324799869595324 0 4.0619600742627178 0 1 0 I I #
edge $-1 $464 -1.4999999999999991 $468 1.4999999999999996 $459 $526 forward 7 unknown #
vertex $-1 $467 $527 #
straight-curve $-1 49.112319060747552 -25.764535813456902 1.0619600742627191 -1 0 0 I I #
straight-curve $-1 49.112319060747552 -25.764535813456902 4.0619600742627178 1 0 0 I I #
point $-1 45.89983825189978 -25.764535813456902 1.0619600742627191 #
straight-curve $-1 45.89983825189978 0 1.0619600742627191 0 -1 0 I I #
coedge $-1 $361 $360 $463 $523 forward $362 $-1 #
edge $-1 $363 -3.2124808088477721 $521 3.2124808088477721 $361 $528 forward 7 unknown #
point $-1 45.89983825189978 25.764535813456902 1.0619600742627191 #
straight-curve $-1 49.112319060747552 25.764535813456902 4.0619600742627178 -1 0 0 I I #
edge $-1 $478 46.366213382445245 $481 51.244985689233978 $369 $529 forward 7 unknown #
vertex $-1 $383 $530 #
straight-curve $-1 -3.5784606442367561 22.64933626566048 5.8336815731436928 0 1 0 I I #
edge $-1 $481 -3.3823074039926553 $380 17.303843500451478 $379 $531 forward 7 unknown #
vertex $-1 $480 $532 #
straight-curve $-1 -3.5784606442367561 -13.709022823817897 34.077158453891144 0 -0.76604443648966558 0.64278761758704617 I I #
point $-1 -3.5784606442367561 19.95024151117245 5.8336815731436964 #
point $-1 -24.26461154868089 25.764535813456902 0.9549092663549601 #
straight-curve $-1 0 25.764535813456902 5.8336815731436955 -1 0 0 I I #
vertex $-1 $386 $533 #
point $-1 -19.127381367792061 21.009808286106875 1.192434914915006 #
vertex $-1 $390 $534 #
point $-1 -12.921536096458823 21.009808286106875 1.192434914915006 #
vertex $-1 $394 $535 #
point $-1 -6.7156908251255842 21.009808286106875 1.192434914915006 #
coedge $-1 $409 $408 $401 $493 forward $398 $-1 #
edge $-1 $494 27.698582709192774 $497 32.502895961613497 $492 $536 forward 7 unknown #
vertex $-1 $413 $537 #
straight-curve $-1 -39.474876634204236 -44.766975125699815 5.8336815731436964 0 -1 0 I I #
edge $-1 $497 -23.627762282402696 $410 -8.0664664212003849 $409 $538 forward 7 unknown #
vertex $-1 $496 $539 #
straight-curve $-1 -39.474876634204236 -25.764535813456909 1.0293683207229662 0 0.71933979245794832 0.69465837861970381 I I #
point $-1 -39.474876634204236 -20.789523916578492 5.8336815731436955 #
point $-1 -23.913580773001925 -25.764535813456902 1.0293683207229731 #
straight-curve $-1 0 -25.764535813456902 5.8336815731436955 1 0 0 I I #
vertex $-1 $416 $540 #
point $-1 -33.528792102432149 -19.585792006118218 -0.39086366458776978 #
vertex $-1 $420 $541 #
point $-1 -26.859665304774012 -19.585792006118218 -0.39086366458776978 #
straight-curve $-1 -45.89983825189978 25.764535813456902 0 0 0 -1 I I #
point $-1 -45.89983825189978 -25.764535813456902 -5.8336815731436955 #
straight-curve $-1 -45.89983825189978 0 -5.8336815731436955 0 1 0 I I #
point $-1 -45.89983825189978 25.764535813456902 -5.8336815731436955 #
coedge $-1 $515 $441 $444 $512 reversed $327 $-1 #
straight-curve $-1 -52.324799869595324 25.764535813456902 2.5619600742627187 0 0 -1 I I #
edge $-1 $517 -25.764535813456902 $445 25.764535813456902 $510 $542 forward 7 unknown #
point $-1 -52.324799869595324 25.764535813456902 1.0619600742627191 #
point $-1 -52.324799869595324 25.764535813456902 4.0619600742627178 #
coedge $-1 $454 $510 $451 $516 reversed $327 $-1 #
edge $-1 $456 -1.4999999999999991 $517 1.4999999999999996 $515 $543 forward 7 unknown #
vertex $-1 $512 $544 #
straight-curve $-1 -49.112319060747552 -25.764535813456902 1.0619600742627191 -1 0 0 I I #
straight-curve $-1 -52.324799869595324 0 4.0619600742627178 0 -1 0 I I #
point $-1 -52.324799869595324 -25.764535813456902 4.0619600742627178 #
vertex $-1 $462 $545 #
straight-curve $-1 52.324799869595324 0 1.0619600742627191 0 -1 0 I I #
edge $-1 $465 -1.4999999999999991 $521 1.4999999999999996 $463 $546 forward 7 unknown #
point $-1 52.324799869595324 -25.764535813456902 4.0619600742627178 #
point $-1 52.324799869595324 25.764535813456902 4.0619600742627178 #
straight-curve $-1 52.324799869595324 -25.764535813456902 2.5619600742627187 0 0 -1 I I #
point $-1 52.324799869595324 -25.764535813456902 1.0619600742627191 #
straight-curve $-1 49.112319060747552 25.764535813456902 1.0619600742627191 1 0 0 I I #
straight-curve $-1 -3.5784606442367561 25.764535813456902 52.199894955588938 0 0 -1 I I #
point $-1 -3.5784606442367561 25.764535813456902 5.8336815731436955 #
straight-curve $-1 -6.9607680482294114 25.764535813456902 0.95490926635496365 -1 0 0 I I #
point $-1 -3.5784606442367561 25.764535813456902 0.9549092663549601 #
point $-1 -20.127381367792061 20.367020668519828 0.42639047842534034 #
point $-1 -13.921536096458823 20.367020668519828 0.42639047842534034 #
point $-1 -7.7156908251255842 20.367020668519828 0.42639047842534034 #
straight-curve $-1 -39.474876634204236 -25.764535813456902 33.53226428233647 0 0 -1 I I #
point $-1 -39.474876634204236 -25.764535813456902 5.8336815731436955 #
straight-curve $-1 -15.84711435180154 -25.764535813456902 1.0293683207229716 1 0 0 I I #
point $-1 -39.474876634204236 -25.764535813456902 1.0293683207229731 #
point $-1 -35.028792102432149 -18.543804438188666 -1.4698733532746924 #
point $-1 -28.359665304774012 -18.543804438188666 -1.4698733532746924 #
straight-curve $-1 -52.324799869595324 0 1.0619600742627191 0 1 0 I I #
straight-curve $-1 -52.324799869595324 -25.764535813456902 2.5619600742627187 0 0 -1 I I #
point $-1 -52.324799869595324 -25.764535813456902 1.0619600742627191 #
point $-1 52.324799869595324 25.764535813456902 1.0619600742627191 #
straight-curve $-1 52.324799869595324 25.764535813456902 2.5619600742627187 0 0 -1 I I #
End-of-ACIS-data 