500 0 17 0           
7 Unknown 11 ACIS 5.0 NT 24 Thu Mar 25 23:38:26 1999 
-1 9.9999999999999995e-007 1e-010 
body $-1 $17 $-1 $18 #
body $-1 $19 $-1 $20 #
body $-1 $21 $-1 $22 #
body $-1 $23 $-1 $24 #
body $-1 $25 $-1 $26 #
body $-1 $27 $-1 $28 #
body $-1 $29 $-1 $30 #
body $-1 $31 $-1 $32 #
body $-1 $33 $-1 $34 #
body $-1 $35 $-1 $36 #
body $-1 $37 $-1 $38 #
body $-1 $39 $-1 $40 #
body $-1 $41 $-1 $42 #
body $-1 $43 $-1 $44 #
body $-1 $45 $-1 $46 #
body $-1 $47 $-1 $48 #
body $-1 $49 $-1 $50 #
lump $-1 $-1 $51 $0 #
transform $-1 1 0 0 0 1 0 0 0 1 76.503799554429762 32.017098106932302 14.981113564729334 1 rotate no_reflect no_shear #
lump $-1 $-1 $52 $1 #
transform $-1 1 0 0 0 1 0 0 0 1 76.503799554429762 32.017098106932302 14.981113564729334 1 rotate no_reflect no_shear #
lump $-1 $-1 $53 $2 #
transform $-1 1 0 0 0 1 0 0 0 1 76.503799554429762 32.017098106932302 14.981113564729334 1 rotate no_reflect no_shear #
lump $-1 $-1 $54 $3 #
transform $-1 1 0 0 0 1 0 0 0 1 76.503799554429762 32.017098106932302 14.981113564729334 1 rotate no_reflect no_shear #
lump $-1 $-1 $55 $4 #
transform $-1 1 0 0 0 1 0 0 0 1 76.503799554429762 32.017098106932302 14.981113564729334 1 rotate no_reflect no_shear #
lump $-1 $-1 $56 $5 #
transform $-1 1 0 0 0 1 0 0 0 1 76.503799554429762 32.017098106932302 14.981113564729334 1 rotate no_reflect no_shear #
lump $-1 $-1 $57 $6 #
transform $-1 1 0 0 0 1 0 0 0 1 76.503799554429762 32.017098106932302 14.981113564729334 1 rotate no_reflect no_shear #
lump $-1 $-1 $58 $7 #
transform $-1 1 0 0 0 1 0 0 0 1 76.503799554429762 32.017098106932302 14.981113564729334 1 rotate no_reflect no_shear #
lump $-1 $-1 $59 $8 #
transform $-1 1 0 0 0 1 0 0 0 1 76.503799554429762 32.017098106932302 14.981113564729334 1 rotate no_reflect no_shear #
lump $-1 $-1 $60 $9 #
transform $-1 1 0 0 0 1 0 0 0 1 76.503799554429762 32.017098106932302 14.981113564729334 1 rotate no_reflect no_shear #
lump $-1 $-1 $61 $10 #
transform $-1 1 0 0 0 1 0 0 0 1 76.503799554429762 32.017098106932302 14.981113564729334 1 rotate no_reflect no_shear #
lump $-1 $-1 $62 $11 #
transform $-1 1 0 0 0 1 0 0 0 1 76.503799554429762 32.017098106932302 14.981113564729334 1 rotate no_reflect no_shear #
lump $-1 $-1 $63 $12 #
transform $-1 1 0 0 0 1 0 0 0 1 76.503799554429762 32.017098106932302 14.981113564729334 1 rotate no_reflect no_shear #
lump $-1 $-1 $64 $13 #
transform $-1 1 0 0 0 1 0 0 0 1 76.503799554429762 32.017098106932302 14.981113564729334 1 rotate no_reflect no_shear #
lump $-1 $-1 $65 $14 #
transform $-1 1 0 0 0 1 0 0 0 1 76.503799554429762 32.017098106932302 14.981113564729334 1 rotate no_reflect no_shear #
lump $-1 $-1 $66 $15 #
transform $-1 1 0 0 0 1 0 0 0 1 76.503799554429762 32.017098106932302 14.981113564729334 1 rotate no_reflect no_shear #
lump $-1 $-1 $67 $16 #
transform $-1 1 0 0 0 1 0 0 0 1 76.503799554429762 32.017098106932302 14.981113564729334 1 rotate no_reflect no_shear #
shell $-1 $-1 $-1 $68 $-1 $17 #
shell $-1 $-1 $-1 $69 $-1 $19 #
shell $-1 $-1 $-1 $70 $-1 $21 #
shell $-1 $-1 $-1 $71 $-1 $23 #
shell $-1 $-1 $-1 $72 $-1 $25 #
shell $-1 $-1 $-1 $73 $-1 $27 #
shell $-1 $-1 $-1 $74 $-1 $29 #
shell $-1 $-1 $-1 $75 $-1 $31 #
shell $-1 $-1 $-1 $76 $-1 $33 #
shell $-1 $-1 $-1 $77 $-1 $35 #
shell $-1 $-1 $-1 $78 $-1 $37 #
shell $-1 $-1 $-1 $79 $-1 $39 #
shell $-1 $-1 $-1 $80 $-1 $41 #
shell $-1 $-1 $-1 $81 $-1 $43 #
shell $-1 $-1 $-1 $82 $-1 $45 #
shell $-1 $-1 $-1 $83 $-1 $47 #
shell $-1 $-1 $-1 $84 $-1 $49 #
face $-1 $85 $86 $51 $-1 $87 forward single #
face $-1 $88 $89 $52 $-1 $90 reversed single #
face $-1 $91 $92 $53 $-1 $93 forward single #
face $-1 $94 $95 $54 $-1 $96 forward single #
face $-1 $97 $98 $55 $-1 $99 forward single #
face $-1 $100 $101 $56 $-1 $102 reversed single #
face $-1 $103 $104 $57 $-1 $105 forward single #
face $-1 $106 $107 $58 $-1 $108 forward single #
face $-1 $109 $110 $59 $-1 $111 forward single #
face $-1 $112 $113 $60 $-1 $114 reversed single #
face $-1 $115 $116 $61 $-1 $117 forward single #
face $-1 $118 $119 $62 $-1 $120 forward single #
face $-1 $121 $122 $63 $-1 $123 forward single #
face $-1 $124 $125 $64 $-1 $126 reversed single #
face $-1 $127 $128 $65 $-1 $129 forward single #
face $-1 $130 $131 $66 $-1 $132 forward single #
face $-1 $133 $134 $67 $-1 $135 forward single #
face $-1 $136 $137 $51 $-1 $138 reversed single #
loop $-1 $-1 $139 $68 #
plane-surface $-1 0 0 14.981113564729334 0 0 1 1 0 0 forward_v I I I I #
face $-1 $140 $141 $52 $-1 $142 reversed single #
loop $-1 $-1 $143 $69 #
plane-surface $-1 -188.40647480310386 -26.63060229415132 113.41601919834136 0 1 0 -0.73135370988377701 0 0.68199835119979291 forward_v I I I I #
face $-1 $144 $145 $53 $-1 $146 forward single #
loop $-1 $147 $148 $70 #
cone-surface $-1 -72.644550074734852 -24.345523231897467 10.996534170300965 0.73135370988377701 0 -0.68199835119979291 0.68199835119979291 0 0.73135370988377701 1 I I 0 1 1 forward I I I I #
face $-1 $149 $150 $54 $-1 $151 forward single #
loop $-1 $152 $153 $71 #
cone-surface $-1 -72.644550074734852 -20.917904638516696 10.996534170300965 0.73135370988377701 0 -0.68199835119979291 0.68199835119979291 0 0.73135370988377701 1 I I 0 1 1 forward I I I I #
face $-1 $154 $155 $55 $-1 $156 forward single #
loop $-1 $157 $158 $72 #
cone-surface $-1 -72.644550074734852 -17.490286045135921 10.996534170300965 0.73135370988377701 0 -0.68199835119979291 0.68199835119979291 0 0.73135370988377701 1 I I 0 1 1 forward I I I I #
face $-1 $159 $160 $56 $-1 $161 reversed single #
loop $-1 $-1 $162 $73 #
plane-surface $-1 -188.40647480310386 15.205206982882071 113.41601919834136 0 1 0 -0.73135370988377701 0 0.68199835119979291 forward_v I I I I #
face $-1 $163 $164 $57 $-1 $165 forward single #
loop $-1 $166 $167 $74 #
cone-surface $-1 -72.644550074734852 17.490286045135925 10.996534170300965 0.73135370988377701 0 -0.68199835119979291 0.68199835119979291 0 0.73135370988377701 1 I I 0 1 1 forward I I I I #
face $-1 $168 $169 $58 $-1 $170 forward single #
loop $-1 $171 $172 $75 #
cone-surface $-1 -72.644550074734852 20.917904638516696 10.996534170300965 0.73135370988377701 0 -0.68199835119979291 0.68199835119979291 0 0.73135370988377701 1 I I 0 1 1 forward I I I I #
face $-1 $173 $174 $59 $-1 $175 forward single #
loop $-1 $176 $177 $76 #
cone-surface $-1 -72.644550074734852 24.345523231897467 10.996534170300965 0.73135370988377701 0 -0.68199835119979291 0.68199835119979291 0 0.73135370988377701 1 I I 0 1 1 forward I I I I #
face $-1 $178 $179 $60 $-1 $180 reversed single #
loop $-1 $-1 $181 $77 #
plane-surface $-1 57.644569620344456 -5.768378554834646 222.55790985299137 0 -1 0 -0.64278761758704617 0 -0.76604443648966558 forward_v I I I I #
face $-1 $182 $183 $61 $-1 $184 forward single #
loop $-1 $185 $186 $78 #
cone-surface $-1 71.300635217385306 -12.862148838610395 10.458223031527128 -0.64278761758704617 0 -0.76604443648966558 0.38302221824483279 0 -0.32139380879352308 1 I I 0 1 0.5 forward I I I I #
face $-1 $187 $188 $62 $-1 $189 forward single #
loop $-1 $190 $191 $79 #
cone-surface $-1 71.300635217385306 -10.201984982194489 10.458223031527128 -0.64278761758704617 0 -0.76604443648966558 0.38302221824483279 0 -0.32139380879352308 1 I I 0 1 0.5 forward I I I I #
face $-1 $192 $193 $63 $-1 $194 forward single #
loop $-1 $195 $196 $80 #
cone-surface $-1 71.300635217385306 -7.5418211257785828 10.458223031527128 -0.64278761758704617 0 -0.76604443648966558 0.38302221824483279 0 -0.32139380879352308 1 I I 0 1 0.5 forward I I I I #
face $-1 $197 $198 $64 $-1 $199 reversed single #
loop $-1 $-1 $200 $81 #
plane-surface $-1 57.644569620344456 26.248719552097654 222.55790985299137 0 -1 0 -0.64278761758704617 0 -0.76604443648966558 forward_v I I I I #
face $-1 $201 $202 $65 $-1 $203 forward single #
loop $-1 $204 $205 $82 #
cone-surface $-1 71.300635217385306 19.154949268321907 10.458223031527128 -0.64278761758704617 0 -0.76604443648966558 0.38302221824483279 0 -0.32139380879352308 1 I I 0 1 0.5 forward I I I I #
face $-1 $206 $207 $66 $-1 $208 forward single #
loop $-1 $209 $210 $83 #
cone-surface $-1 71.300635217385306 21.815113124737813 10.458223031527128 -0.64278761758704617 0 -0.76604443648966558 0.38302221824483279 0 -0.32139380879352308 1 I I 0 1 0.5 forward I I I I #
face $-1 $211 $212 $67 $-1 $213 forward single #
loop $-1 $214 $215 $84 #
cone-surface $-1 71.300635217385306 24.475276981153719 10.458223031527128 -0.64278761758704617 0 -0.76604443648966558 0.38302221824483279 0 -0.32139380879352308 1 I I 0 1 0.5 forward I I I I #
face $-1 $216 $217 $51 $-1 $218 reversed single #
loop $-1 $-1 $219 $85 #
plane-surface $-1 0 0 -14.981113564729334 0 0 1 1 0 0 forward_v I I I I #
coedge $-1 $220 $221 $222 $223 forward $86 $-1 #
face $-1 $224 $225 $52 $-1 $226 reversed single #
loop $-1 $-1 $227 $88 #
plane-surface $-1 -76.503799554429762 -20.917904638516696 9.0650888850602627 -0.73135370988377701 0 0.68199835119979291 0.68199835119979291 0 0.73135370988377701 forward_v I I I I #
coedge $-1 $228 $229 $230 $231 reversed $89 $-1 #
face $-1 $-1 $232 $53 $-1 $233 forward single #
loop $-1 $234 $235 $91 #
cone-surface $-1 -71.178014804958295 -24.345523231897467 9.6289679401072341 0.73135370988377701 0 -0.68199835119979291 0.34099917559989645 0 0.36567685494188851 1 I I -0.70710678118654746 0.70710678118654746 0.5 forward I I I I #
loop $-1 $-1 $236 $70 #
coedge $-1 $148 $148 $237 $238 reversed $92 $-1 #
face $-1 $-1 $239 $54 $-1 $240 forward single #
loop $-1 $241 $242 $94 #
cone-surface $-1 -71.178014804958295 -20.917904638516696 9.6289679401072341 0.73135370988377701 0 -0.68199835119979291 0.34099917559989645 0 0.36567685494188851 1 I I -0.70710678118654746 0.70710678118654746 0.5 forward I I I I #
loop $-1 $-1 $243 $71 #
coedge $-1 $153 $153 $244 $245 reversed $95 $-1 #
face $-1 $-1 $246 $55 $-1 $247 forward single #
loop $-1 $248 $249 $97 #
cone-surface $-1 -71.178014804958295 -17.490286045135921 9.6289679401072341 0.73135370988377701 0 -0.68199835119979291 0.34099917559989645 0 0.36567685494188851 1 I I -0.70710678118654746 0.70710678118654746 0.5 forward I I I I #
loop $-1 $-1 $250 $72 #
coedge $-1 $158 $158 $251 $252 reversed $98 $-1 #
face $-1 $253 $254 $56 $-1 $255 reversed single #
loop $-1 $-1 $256 $100 #
plane-surface $-1 -76.503799554429762 20.917904638516696 9.0650888850602627 -0.73135370988377701 0 0.68199835119979291 0.68199835119979291 0 0.73135370988377701 forward_v I I I I #
coedge $-1 $257 $258 $259 $260 reversed $101 $-1 #
face $-1 $-1 $261 $57 $-1 $262 forward single #
loop $-1 $263 $264 $103 #
cone-surface $-1 -71.178014804958295 17.490286045135925 9.6289679401072341 0.73135370988377701 0 -0.68199835119979291 0.34099917559989645 0 0.36567685494188851 1 I I -0.70710678118654746 0.70710678118654746 0.5 forward I I I I #
loop $-1 $-1 $265 $74 #
coedge $-1 $167 $167 $266 $267 reversed $104 $-1 #
face $-1 $-1 $268 $58 $-1 $269 forward single #
loop $-1 $270 $271 $106 #
cone-surface $-1 -71.178014804958295 20.917904638516696 9.6289679401072341 0.73135370988377701 0 -0.68199835119979291 0.34099917559989645 0 0.36567685494188851 1 I I -0.70710678118654746 0.70710678118654746 0.5 forward I I I I #
loop $-1 $-1 $272 $75 #
coedge $-1 $172 $172 $273 $274 reversed $107 $-1 #
face $-1 $-1 $275 $59 $-1 $276 forward single #
loop $-1 $277 $278 $109 #
cone-surface $-1 -71.178014804958295 24.345523231897467 9.6289679401072341 0.73135370988377701 0 -0.68199835119979291 0.34099917559989645 0 0.36567685494188851 1 I I -0.70710678118654746 0.70710678118654746 0.5 forward I I I I #
loop $-1 $-1 $279 $76 #
coedge $-1 $177 $177 $280 $281 reversed $110 $-1 #
face $-1 $282 $283 $60 $-1 $284 reversed single #
loop $-1 $-1 $285 $112 #
plane-surface $-1 -40.706820483553201 -10.201984982194489 105.34728981500842 0.64278761758704617 0 0.76604443648966558 0.76604443648966558 0 -0.64278761758704617 forward_v I I I I #
coedge $-1 $286 $287 $288 $289 reversed $113 $-1 #
face $-1 $-1 $290 $61 $-1 $291 forward single #
loop $-1 $292 $293 $115 #
cone-surface $-1 70.694977525125196 -12.862148838610395 9.7364283160117893 -0.64278761758704617 0 -0.76604443648966558 0.1915111091224164 0 -0.16069690439676154 1 I I -0.70710678118654746 0.70710678118654746 0.25 forward I I I I #
loop $-1 $-1 $294 $78 #
coedge $-1 $186 $186 $295 $296 reversed $116 $-1 #
face $-1 $-1 $297 $62 $-1 $298 forward single #
loop $-1 $299 $300 $118 #
cone-surface $-1 70.694977525125196 -10.201984982194489 9.7364283160117893 -0.64278761758704617 0 -0.76604443648966558 0.1915111091224164 0 -0.16069690439676154 1 I I -0.70710678118654746 0.70710678118654746 0.25 forward I I I I #
loop $-1 $-1 $301 $79 #
coedge $-1 $191 $191 $302 $303 reversed $119 $-1 #
face $-1 $-1 $304 $63 $-1 $305 forward single #
loop $-1 $306 $307 $121 #
cone-surface $-1 70.694977525125196 -7.5418211257785828 9.7364283160117893 -0.64278761758704617 0 -0.76604443648966558 0.1915111091224164 0 -0.16069690439676154 1 I I -0.70710678118654746 0.70710678118654746 0.25 forward I I I I #
loop $-1 $-1 $308 $80 #
coedge $-1 $196 $196 $309 $310 reversed $122 $-1 #
face $-1 $311 $312 $64 $-1 $313 reversed single #
loop $-1 $-1 $314 $124 #
plane-surface $-1 -40.706820483553201 21.815113124737813 105.34728981500842 0.64278761758704617 0 0.76604443648966558 0.76604443648966558 0 -0.64278761758704617 forward_v I I I I #
coedge $-1 $315 $316 $317 $318 reversed $125 $-1 #
face $-1 $-1 $319 $65 $-1 $320 forward single #
loop $-1 $321 $322 $127 #
cone-surface $-1 70.694977525125196 19.154949268321907 9.7364283160117893 -0.64278761758704617 0 -0.76604443648966558 0.1915111091224164 0 -0.16069690439676154 1 I I -0.70710678118654746 0.70710678118654746 0.25 forward I I I I #
loop $-1 $-1 $323 $82 #
coedge $-1 $205 $205 $324 $325 reversed $128 $-1 #
face $-1 $-1 $326 $66 $-1 $327 forward single #
loop $-1 $328 $329 $130 #
cone-surface $-1 70.694977525125196 21.815113124737813 9.7364283160117893 -0.64278761758704617 0 -0.76604443648966558 0.1915111091224164 0 -0.16069690439676154 1 I I -0.70710678118654746 0.70710678118654746 0.25 forward I I I I #
loop $-1 $-1 $330 $83 #
coedge $-1 $210 $210 $331 $332 reversed $131 $-1 #
face $-1 $-1 $333 $67 $-1 $334 forward single #
loop $-1 $335 $336 $133 #
cone-surface $-1 70.694977525125196 24.475276981153719 9.7364283160117893 -0.64278761758704617 0 -0.76604443648966558 0.1915111091224164 0 -0.16069690439676154 1 I I -0.70710678118654746 0.70710678118654746 0.25 forward I I I I #
loop $-1 $-1 $337 $84 #
coedge $-1 $215 $215 $338 $339 reversed $134 $-1 #
face $-1 $340 $341 $51 $-1 $342 reversed single #
loop $-1 $-1 $343 $136 #
plane-surface $-1 0 -32.017098106932302 0 0 1 0 0 0 1 forward_v I I I I #
coedge $-1 $344 $345 $346 $347 forward $137 $-1 #
coedge $-1 $348 $139 $349 $350 forward $86 $-1 #
coedge $-1 $139 $348 $351 $352 forward $86 $-1 #
coedge $-1 $353 $354 $139 $223 reversed $355 $-1 #
edge $-1 $356 -32.017098106932302 $357 32.017098106932302 $222 $358 forward 7 unknown #
face $-1 $359 $360 $52 $-1 $361 reversed single #
loop $-1 $-1 $362 $140 #
plane-surface $-1 -188.40647480310386 -15.205206982882071 113.41601919834136 0 -1 0 0.73135370988377701 0 -0.68199835119979291 forward_v I I I I #
coedge $-1 $363 $364 $365 $366 reversed $141 $-1 #
coedge $-1 $229 $143 $367 $368 reversed $89 $-1 #
coedge $-1 $143 $228 $363 $369 reversed $89 $-1 #
coedge $-1 $365 $370 $143 $231 forward $371 $-1 #
edge $-1 $372 17.699437847122169 $373 23.216219976842638 $230 $374 forward 7 unknown #
loop $-1 $-1 $237 $144 #
plane-surface $-1 -76.503799554429762 -20.917904638516696 9.0650888850602627 -0.73135370988377701 0 0.68199835119979291 0.68199835119979291 0 0.73135370988377701 forward_v I I I I #
loop $-1 $-1 $375 $91 #
coedge $-1 $235 $235 $236 $376 reversed $145 $-1 #
coedge $-1 $236 $236 $235 $376 forward $147 $-1 #
coedge $-1 $237 $237 $148 $238 forward $232 $-1 #
edge $-1 $377 0 $377 6.2831853071796004 $237 $378 forward 7 unknown #
loop $-1 $-1 $244 $149 #
plane-surface $-1 -76.503799554429762 -20.917904638516696 9.0650888850602627 -0.73135370988377701 0 0.68199835119979291 0.68199835119979291 0 0.73135370988377701 forward_v I I I I #
loop $-1 $-1 $379 $94 #
coedge $-1 $242 $242 $243 $380 reversed $150 $-1 #
coedge $-1 $243 $243 $242 $380 forward $152 $-1 #
coedge $-1 $244 $244 $153 $245 forward $239 $-1 #
edge $-1 $381 0 $381 6.2831853071796004 $244 $382 forward 7 unknown #
loop $-1 $-1 $251 $154 #
plane-surface $-1 -76.503799554429762 -20.917904638516696 9.0650888850602627 -0.73135370988377701 0 0.68199835119979291 0.68199835119979291 0 0.73135370988377701 forward_v I I I I #
loop $-1 $-1 $383 $97 #
coedge $-1 $249 $249 $250 $384 reversed $155 $-1 #
coedge $-1 $250 $250 $249 $384 forward $157 $-1 #
coedge $-1 $251 $251 $158 $252 forward $246 $-1 #
edge $-1 $385 0 $385 6.2831853071796004 $251 $386 forward 7 unknown #
face $-1 $387 $388 $56 $-1 $389 forward single #
loop $-1 $-1 $390 $159 #
plane-surface $-1 -188.40647480310386 26.63060229415132 113.41601919834136 0 -1 0 0.73135370988377701 0 -0.68199835119979291 forward_v I I I I #
coedge $-1 $391 $392 $393 $394 reversed $160 $-1 #
coedge $-1 $258 $162 $395 $396 reversed $101 $-1 #
coedge $-1 $162 $257 $391 $397 reversed $101 $-1 #
coedge $-1 $393 $398 $162 $260 forward $388 $-1 #
edge $-1 $399 17.699437847122169 $400 23.216219976842638 $259 $401 forward 7 unknown #
loop $-1 $-1 $266 $163 #
plane-surface $-1 -76.503799554429762 20.917904638516696 9.0650888850602627 -0.73135370988377701 0 0.68199835119979291 0.68199835119979291 0 0.73135370988377701 forward_v I I I I #
loop $-1 $-1 $402 $103 #
coedge $-1 $264 $264 $265 $403 reversed $164 $-1 #
coedge $-1 $265 $265 $264 $403 forward $166 $-1 #
coedge $-1 $266 $266 $167 $267 forward $261 $-1 #
edge $-1 $404 0 $404 6.2831853071796004 $266 $405 forward 7 unknown #
loop $-1 $-1 $273 $168 #
plane-surface $-1 -76.503799554429762 20.917904638516696 9.0650888850602627 -0.73135370988377701 0 0.68199835119979291 0.68199835119979291 0 0.73135370988377701 forward_v I I I I #
loop $-1 $-1 $406 $106 #
coedge $-1 $271 $271 $272 $407 reversed $169 $-1 #
coedge $-1 $272 $272 $271 $407 forward $171 $-1 #
coedge $-1 $273 $273 $172 $274 forward $268 $-1 #
edge $-1 $408 0 $408 6.2831853071796004 $273 $409 forward 7 unknown #
loop $-1 $-1 $280 $173 #
plane-surface $-1 -76.503799554429762 20.917904638516696 9.0650888850602627 -0.73135370988377701 0 0.68199835119979291 0.68199835119979291 0 0.73135370988377701 forward_v I I I I #
loop $-1 $-1 $410 $109 #
coedge $-1 $278 $278 $279 $411 reversed $174 $-1 #
coedge $-1 $279 $279 $278 $411 forward $176 $-1 #
coedge $-1 $280 $280 $177 $281 forward $275 $-1 #
edge $-1 $412 0 $412 6.2831853071796004 $280 $413 forward 7 unknown #
face $-1 $414 $415 $60 $-1 $416 forward single #
loop $-1 $-1 $417 $178 #
plane-surface $-1 57.644569620344456 -14.635591409554332 222.55790985299137 0 1 0 0.64278761758704617 0 0.76604443648966558 forward_v I I I I #
coedge $-1 $418 $419 $420 $421 reversed $179 $-1 #
coedge $-1 $287 $181 $422 $423 reversed $113 $-1 #
coedge $-1 $181 $286 $418 $424 reversed $113 $-1 #
coedge $-1 $420 $425 $181 $289 forward $415 $-1 #
edge $-1 $426 -47.681514744257534 $427 -38.165107645895297 $288 $428 forward 7 unknown #
loop $-1 $-1 $295 $182 #
plane-surface $-1 -40.706820483553201 -10.201984982194489 105.34728981500842 0.64278761758704617 0 0.76604443648966558 0.76604443648966558 0 -0.64278761758704617 forward_v I I I I #
loop $-1 $-1 $429 $115 #
coedge $-1 $293 $293 $294 $430 reversed $183 $-1 #
coedge $-1 $294 $294 $293 $430 forward $185 $-1 #
coedge $-1 $295 $295 $186 $296 forward $290 $-1 #
edge $-1 $431 0 $431 6.2831853071796004 $295 $432 forward 7 unknown #
loop $-1 $-1 $302 $187 #
plane-surface $-1 -40.706820483553201 -10.201984982194489 105.34728981500842 0.64278761758704617 0 0.76604443648966558 0.76604443648966558 0 -0.64278761758704617 forward_v I I I I #
loop $-1 $-1 $433 $118 #
coedge $-1 $300 $300 $301 $434 reversed $188 $-1 #
coedge $-1 $301 $301 $300 $434 forward $190 $-1 #
coedge $-1 $302 $302 $191 $303 forward $297 $-1 #
edge $-1 $435 0 $435 6.2831853071796004 $302 $436 forward 7 unknown #
loop $-1 $-1 $309 $192 #
plane-surface $-1 -40.706820483553201 -10.201984982194489 105.34728981500842 0.64278761758704617 0 0.76604443648966558 0.76604443648966558 0 -0.64278761758704617 forward_v I I I I #
loop $-1 $-1 $437 $121 #
coedge $-1 $307 $307 $308 $438 reversed $193 $-1 #
coedge $-1 $308 $308 $307 $438 forward $195 $-1 #
coedge $-1 $309 $309 $196 $310 forward $304 $-1 #
edge $-1 $439 0 $439 6.2831853071796004 $309 $440 forward 7 unknown #
face $-1 $441 $442 $64 $-1 $443 reversed single #
loop $-1 $-1 $444 $197 #
plane-surface $-1 57.644569620344456 17.381506697377972 222.55790985299137 0 1 0 0.64278761758704617 0 0.76604443648966558 forward_v I I I I #
coedge $-1 $445 $446 $447 $448 reversed $198 $-1 #
coedge $-1 $316 $200 $449 $450 reversed $125 $-1 #
coedge $-1 $200 $315 $445 $451 reversed $125 $-1 #
coedge $-1 $447 $452 $200 $318 forward $453 $-1 #
edge $-1 $454 -47.681514744257534 $455 -38.165107645895297 $317 $456 forward 7 unknown #
loop $-1 $-1 $324 $201 #
plane-surface $-1 -40.706820483553201 21.815113124737813 105.34728981500842 0.64278761758704617 0 0.76604443648966558 0.76604443648966558 0 -0.64278761758704617 forward_v I I I I #
loop $-1 $-1 $457 $127 #
coedge $-1 $322 $322 $323 $458 reversed $202 $-1 #
coedge $-1 $323 $323 $322 $458 forward $204 $-1 #
coedge $-1 $324 $324 $205 $325 forward $319 $-1 #
edge $-1 $459 0 $459 6.2831853071796004 $324 $460 forward 7 unknown #
loop $-1 $-1 $331 $206 #
plane-surface $-1 -40.706820483553201 21.815113124737813 105.34728981500842 0.64278761758704617 0 0.76604443648966558 0.76604443648966558 0 -0.64278761758704617 forward_v I I I I #
loop $-1 $-1 $461 $130 #
coedge $-1 $329 $329 $330 $462 reversed $207 $-1 #
coedge $-1 $330 $330 $329 $462 forward $209 $-1 #
coedge $-1 $331 $331 $210 $332 forward $326 $-1 #
edge $-1 $463 0 $463 6.2831853071796004 $331 $464 forward 7 unknown #
loop $-1 $-1 $338 $211 #
plane-surface $-1 -40.706820483553201 21.815113124737813 105.34728981500842 0.64278761758704617 0 0.76604443648966558 0.76604443648966558 0 -0.64278761758704617 forward_v I I I I #
loop $-1 $-1 $465 $133 #
coedge $-1 $336 $336 $337 $466 reversed $212 $-1 #
coedge $-1 $337 $337 $336 $466 forward $214 $-1 #
coedge $-1 $338 $338 $215 $339 forward $333 $-1 #
edge $-1 $467 0 $467 6.2831853071796004 $338 $468 forward 7 unknown #
face $-1 $469 $470 $51 $-1 $471 reversed single #
loop $-1 $-1 $472 $216 #
plane-surface $-1 -76.503799554429762 0 0 1 0 0 0 0 -1 forward_v I I I I #
coedge $-1 $473 $351 $474 $475 forward $217 $-1 #
coedge $-1 $476 $219 $473 $477 forward $137 $-1 #
coedge $-1 $219 $476 $478 $479 forward $137 $-1 #
coedge $-1 $354 $353 $219 $347 reversed $355 $-1 #
edge $-1 $480 -32.017098106932302 $481 32.017098106932302 $346 $482 forward 7 unknown #
coedge $-1 $221 $220 $483 $484 forward $86 $-1 #
coedge $-1 $485 $486 $220 $350 reversed $470 $-1 #
edge $-1 $357 -76.503799554429762 $487 76.503799554429762 $349 $488 forward 7 unknown #
coedge $-1 $343 $489 $221 $352 reversed $217 $-1 #
edge $-1 $490 -76.503799554429762 $356 76.503799554429762 $351 $491 forward 7 unknown #
coedge $-1 $346 $222 $489 $492 forward $355 $-1 #
coedge $-1 $222 $346 $485 $493 reversed $355 $-1 #
loop $-1 $-1 $353 $469 #
vertex $-1 $223 $494 #
vertex $-1 $223 $495 #
straight-curve $-1 76.503799554429762 0 14.981113564729334 0 1 0 I I #
face $-1 $-1 $371 $52 $-1 $496 forward single #
loop $-1 $-1 $497 $224 #
plane-surface $-1 -76.503799554429762 0 0 1 0 0 0 0 -1 forward_v I I I I #
coedge $-1 $498 $499 $500 $501 reversed $225 $-1 #
coedge $-1 $502 $227 $229 $369 forward $141 $-1 #
coedge $-1 $227 $502 $498 $503 forward $141 $-1 #
coedge $-1 $500 $230 $227 $366 forward $371 $-1 #
edge $-1 $373 -16.171649974892972 $504 -4.7462546636237235 $365 $505 forward 7 unknown #
coedge $-1 $506 $507 $228 $368 forward $360 $-1 #
edge $-1 $508 -47.642920714110417 $372 -41.726896034441346 $367 $509 forward 7 unknown #
edge $-1 $373 -8.0891429136378008 $508 0 $229 $510 forward 7 unknown #
coedge $-1 $230 $500 $506 $511 forward $371 $-1 #
loop $-1 $-1 $500 $359 #
vertex $-1 $368 $512 #
vertex $-1 $231 $513 #
straight-curve $-1 -94.203237401551931 -26.63060229415132 14.981113564729334 1 0 0 I I #
coedge $-1 $375 $375 $-1 $514 reversed $234 $-1 #
edge $-1 $515 0 $515 6.2831853071796004 $235 $516 forward 7 unknown #
vertex $-1 $238 $517 #
ellipse-curve $-1 -73.745408489569527 -24.345523231897467 12.023101224894802 -0.73135370988377701 0 0.68199835119979291 0.68199835119979291 0 0.73135370988377701 1 I I #
coedge $-1 $379 $379 $-1 $518 reversed $241 $-1 #
edge $-1 $519 0 $519 6.2831853071796004 $242 $520 forward 7 unknown #
vertex $-1 $245 $521 #
ellipse-curve $-1 -73.745408489569527 -20.917904638516696 12.023101224894802 -0.73135370988377701 0 0.68199835119979291 0.68199835119979291 0 0.73135370988377701 1 I I #
coedge $-1 $383 $383 $-1 $522 reversed $248 $-1 #
edge $-1 $523 0 $523 6.2831853071796004 $249 $524 forward 7 unknown #
vertex $-1 $252 $525 #
ellipse-curve $-1 -73.745408489569527 -17.490286045135921 12.023101224894802 -0.73135370988377701 0 0.68199835119979291 0.68199835119979291 0 0.73135370988377701 1 I I #
face $-1 $-1 $526 $56 $-1 $527 reversed single #
loop $-1 $-1 $259 $253 #
plane-surface $-1 0 0 14.981113564729334 0 0 1 1 0 0 forward_v I I I I #
coedge $-1 $528 $529 $530 $531 reversed $254 $-1 #
coedge $-1 $532 $256 $258 $397 forward $160 $-1 #
coedge $-1 $256 $532 $528 $533 forward $160 $-1 #
coedge $-1 $530 $259 $256 $394 forward $388 $-1 #
edge $-1 $400 4.7462546636237235 $534 16.171649974892972 $393 $535 forward 7 unknown #
coedge $-1 $536 $537 $257 $396 forward $526 $-1 #
edge $-1 $538 -47.642920714110417 $399 -41.726896034441346 $395 $539 forward 7 unknown #
edge $-1 $400 -8.0891429136378008 $538 0 $258 $540 forward 7 unknown #
coedge $-1 $259 $530 $536 $541 forward $388 $-1 #
vertex $-1 $260 $542 #
vertex $-1 $260 $543 #
straight-curve $-1 -94.203237401551931 15.205206982882071 14.981113564729334 1 0 0 I I #
coedge $-1 $402 $402 $-1 $544 reversed $263 $-1 #
edge $-1 $545 0 $545 6.2831853071796004 $264 $546 forward 7 unknown #
vertex $-1 $267 $547 #
ellipse-curve $-1 -73.745408489569527 17.490286045135925 12.023101224894802 -0.73135370988377701 0 0.68199835119979291 0.68199835119979291 0 0.73135370988377701 1 I I #
coedge $-1 $406 $406 $-1 $548 reversed $270 $-1 #
edge $-1 $549 0 $549 6.2831853071796004 $271 $550 forward 7 unknown #
vertex $-1 $274 $551 #
ellipse-curve $-1 -73.745408489569527 20.917904638516696 12.023101224894802 -0.73135370988377701 0 0.68199835119979291 0.68199835119979291 0 0.73135370988377701 1 I I #
coedge $-1 $410 $410 $-1 $552 reversed $277 $-1 #
edge $-1 $553 0 $553 6.2831853071796004 $278 $554 forward 7 unknown #
vertex $-1 $281 $555 #
ellipse-curve $-1 -73.745408489569527 24.345523231897467 12.023101224894802 -0.73135370988377701 0 0.68199835119979291 0.68199835119979291 0 0.73135370988377701 1 I I #
face $-1 $-1 $556 $60 $-1 $557 reversed single #
loop $-1 $-1 $288 $282 #
plane-surface $-1 0 0 14.981113564729334 0 0 1 1 0 0 forward_v I I I I #
coedge $-1 $558 $559 $560 $561 reversed $283 $-1 #
coedge $-1 $562 $285 $287 $424 forward $179 $-1 #
coedge $-1 $285 $562 $558 $563 forward $179 $-1 #
coedge $-1 $560 $288 $285 $421 forward $415 $-1 #
edge $-1 $427 0.66738606373740161 $564 9.5345989184570872 $420 $565 forward 7 unknown #
coedge $-1 $566 $567 $286 $423 forward $556 $-1 #
edge $-1 $568 -104.28305521538495 $426 -96.297841361766359 $422 $569 forward 7 unknown #
edge $-1 $427 140.58481180689782 $568 153.00759910885955 $287 $570 forward 7 unknown #
coedge $-1 $288 $560 $566 $571 forward $415 $-1 #
vertex $-1 $423 $572 #
vertex $-1 $289 $573 #
straight-curve $-1 28.822284810172228 -5.768378554834646 14.981113564729341 -1 0 0 I I #
coedge $-1 $429 $429 $-1 $574 reversed $292 $-1 #
edge $-1 $575 0 $575 6.2831853071796004 $293 $576 forward 7 unknown #
vertex $-1 $296 $577 #
ellipse-curve $-1 71.745596005248643 -12.862148838610395 10.988506637920034 0.64278761758704617 0 0.76604443648966558 0.38302221824483279 0 -0.32139380879352308 1 I I #
coedge $-1 $433 $433 $-1 $578 reversed $299 $-1 #
edge $-1 $579 0 $579 6.2831853071796004 $300 $580 forward 7 unknown #
vertex $-1 $303 $581 #
ellipse-curve $-1 71.745596005248643 -10.201984982194489 10.988506637920034 0.64278761758704617 0 0.76604443648966558 0.38302221824483279 0 -0.32139380879352308 1 I I #
coedge $-1 $437 $437 $-1 $582 reversed $306 $-1 #
edge $-1 $583 0 $583 6.2831853071796004 $307 $584 forward 7 unknown #
vertex $-1 $310 $585 #
ellipse-curve $-1 71.745596005248643 -7.5418211257785828 10.988506637920034 0.64278761758704617 0 0.76604443648966558 0.38302221824483279 0 -0.32139380879352308 1 I I #
face $-1 $-1 $453 $64 $-1 $586 forward single #
loop $-1 $-1 $587 $311 #
plane-surface $-1 76.503799554429762 0 0 -1 0 0 0 0 1 forward_v I I I I #
coedge $-1 $588 $589 $590 $591 reversed $312 $-1 #
coedge $-1 $592 $314 $316 $451 forward $198 $-1 #
coedge $-1 $314 $592 $588 $593 forward $198 $-1 #
coedge $-1 $590 $317 $314 $448 forward $453 $-1 #
edge $-1 $455 -15.341162989728748 $594 -6.4739501350090656 $447 $595 forward 7 unknown #
coedge $-1 $596 $597 $315 $450 forward $442 $-1 #
edge $-1 $598 -104.28305521538495 $454 -96.297841361766359 $449 $599 forward 7 unknown #
edge $-1 $455 140.58481180689782 $598 153.00759910885955 $316 $600 forward 7 unknown #
coedge $-1 $317 $590 $596 $601 forward $453 $-1 #
loop $-1 $-1 $590 $441 #
vertex $-1 $450 $602 #
vertex $-1 $318 $603 #
straight-curve $-1 28.822284810172228 26.248719552097654 14.981113564729341 -1 0 0 I I #
coedge $-1 $457 $457 $-1 $604 reversed $321 $-1 #
edge $-1 $605 0 $605 6.2831853071796004 $322 $606 forward 7 unknown #
vertex $-1 $325 $607 #
ellipse-curve $-1 71.745596005248643 19.154949268321907 10.988506637920034 0.64278761758704617 0 0.76604443648966558 0.38302221824483279 0 -0.32139380879352308 1 I I #
coedge $-1 $461 $461 $-1 $608 reversed $328 $-1 #
edge $-1 $609 0 $609 6.2831853071796004 $329 $610 forward 7 unknown #
vertex $-1 $332 $611 #
ellipse-curve $-1 71.745596005248643 21.815113124737813 10.988506637920034 0.64278761758704617 0 0.76604443648966558 0.38302221824483279 0 -0.32139380879352308 1 I I #
coedge $-1 $465 $465 $-1 $612 reversed $335 $-1 #
edge $-1 $613 0 $613 6.2831853071796004 $336 $614 forward 7 unknown #
vertex $-1 $339 $615 #
ellipse-curve $-1 71.745596005248643 24.475276981153719 10.988506637920034 0.64278761758704617 0 0.76604443648966558 0.38302221824483279 0 -0.32139380879352308 1 I I #
face $-1 $-1 $355 $51 $-1 $616 reversed single #
loop $-1 $-1 $485 $340 #
plane-surface $-1 0 32.017098106932302 0 0 -1 0 0 0 -1 forward_v I I I I #
coedge $-1 $617 $483 $486 $618 forward $341 $-1 #
coedge $-1 $489 $343 $344 $477 reversed $217 $-1 #
coedge $-1 $483 $617 $343 $475 reversed $341 $-1 #
edge $-1 $490 -14.981113564729334 $619 14.981113564729334 $474 $620 forward 7 unknown #
coedge $-1 $345 $344 $617 $621 forward $137 $-1 #
edge $-1 $481 -76.503799554429762 $619 76.503799554429762 $473 $622 forward 7 unknown #
coedge $-1 $486 $485 $345 $479 reversed $470 $-1 #
edge $-1 $623 -76.503799554429762 $480 76.503799554429762 $478 $624 forward 7 unknown #
vertex $-1 $347 $625 #
vertex $-1 $492 $626 #
straight-curve $-1 76.503799554429762 0 -14.981113564729334 0 -1 0 I I #
coedge $-1 $472 $474 $348 $484 reversed $341 $-1 #
edge $-1 $487 -32.017098106932302 $490 32.017098106932302 $483 $627 forward 7 unknown #
coedge $-1 $478 $349 $354 $493 forward $470 $-1 #
coedge $-1 $349 $478 $472 $618 reversed $470 $-1 #
vertex $-1 $350 $628 #
straight-curve $-1 0 32.017098106932302 14.981113564729334 -1 0 0 I I #
coedge $-1 $351 $473 $353 $492 reversed $217 $-1 #
vertex $-1 $484 $629 #
straight-curve $-1 0 -32.017098106932302 14.981113564729334 1 0 0 I I #
edge $-1 $356 -14.981113564729334 $481 14.981113564729334 $353 $630 forward 7 unknown #
edge $-1 $357 -14.981113564729334 $480 14.981113564729334 $354 $631 forward 7 unknown #
point $-1 76.503799554429762 -32.017098106932302 14.981113564729334 #
point $-1 76.503799554429762 32.017098106932302 14.981113564729334 #
plane-surface $-1 0 0 14.981113564729334 0 0 1 1 0 0 forward_v I I I I #
coedge $-1 $507 $506 $499 $632 forward $360 $-1 #
coedge $-1 $499 $362 $364 $503 reversed $225 $-1 #
coedge $-1 $362 $498 $497 $632 reversed $225 $-1 #
coedge $-1 $370 $365 $362 $501 forward $371 $-1 #
edge $-1 $504 -23.216219976842638 $633 -17.699437847122169 $500 $634 forward 7 unknown #
coedge $-1 $364 $363 $507 $635 reversed $141 $-1 #
edge $-1 $636 0 $504 8.0891429136378008 $498 $637 forward 7 unknown #
vertex $-1 $366 $638 #
straight-curve $-1 -70.987017424709293 -10.458952319258348 14.981113564729332 0 1 0 I I #
coedge $-1 $497 $367 $370 $511 reversed $360 $-1 #
coedge $-1 $367 $497 $502 $635 forward $360 $-1 #
vertex $-1 $368 $639 #
straight-curve $-1 -76.503799554429762 -26.63060229415132 56.70800959917068 0 0 1 I I #
straight-curve $-1 -76.503799554429762 -26.63060229415132 9.0650888850602627 -0.68199835119979291 0 -0.73135370988377701 I I #
edge $-1 $633 15.205206982882071 $372 26.63060229415132 $506 $640 forward 7 unknown #
point $-1 -76.503799554429762 -26.63060229415132 14.981113564729334 #
point $-1 -70.987017424709293 -26.63060229415132 14.981113564729334 #
edge $-1 $641 1 $641 0 $375 $-1 forward 7 unknown #
vertex $-1 $376 $642 #
ellipse-curve $-1 -71.54369165990019 -24.345523231897467 9.9699671157071315 -0.73135370988377701 0 0.68199835119979291 0.68199835119979291 0 0.73135370988377701 1 I I #
point $-1 -73.063410138369733 -24.345523231897467 12.754454934778577 #
edge $-1 $643 1 $643 0 $379 $-1 forward 7 unknown #
vertex $-1 $380 $644 #
ellipse-curve $-1 -71.54369165990019 -20.917904638516696 9.9699671157071315 -0.73135370988377701 0 0.68199835119979291 0.68199835119979291 0 0.73135370988377701 1 I I #
point $-1 -73.063410138369733 -20.917904638516696 12.754454934778577 #
edge $-1 $645 1 $645 0 $383 $-1 forward 7 unknown #
vertex $-1 $384 $646 #
ellipse-curve $-1 -71.54369165990019 -17.490286045135921 9.9699671157071315 -0.73135370988377701 0 0.68199835119979291 0.68199835119979291 0 0.73135370988377701 1 I I #
point $-1 -73.063410138369733 -17.490286045135921 12.754454934778577 #
loop $-1 $-1 $395 $387 #
plane-surface $-1 -76.503799554429762 0 0 1 0 0 0 0 -1 forward_v I I I I #
coedge $-1 $529 $390 $392 $533 reversed $254 $-1 #
coedge $-1 $390 $528 $647 $648 reversed $254 $-1 #
coedge $-1 $398 $393 $390 $531 forward $388 $-1 #
edge $-1 $534 -23.216219976842638 $649 -17.699437847122169 $530 $650 forward 7 unknown #
coedge $-1 $392 $391 $537 $651 reversed $160 $-1 #
edge $-1 $652 0 $534 8.0891429136378008 $528 $653 forward 7 unknown #
vertex $-1 $394 $654 #
straight-curve $-1 -70.987017424709293 10.458952319258348 14.981113564729332 0 1 0 I I #
coedge $-1 $647 $395 $398 $541 reversed $526 $-1 #
coedge $-1 $395 $647 $532 $651 forward $526 $-1 #
vertex $-1 $396 $655 #
straight-curve $-1 -76.503799554429762 15.205206982882071 56.70800959917068 0 0 1 I I #
straight-curve $-1 -76.503799554429762 15.205206982882071 9.0650888850602627 -0.68199835119979291 0 -0.73135370988377701 I I #
edge $-1 $649 -26.63060229415132 $399 -15.205206982882071 $536 $656 forward 7 unknown #
point $-1 -76.503799554429762 15.205206982882071 14.981113564729334 #
point $-1 -70.987017424709293 15.205206982882071 14.981113564729334 #
edge $-1 $657 1 $657 0 $402 $-1 forward 7 unknown #
vertex $-1 $403 $658 #
ellipse-curve $-1 -71.54369165990019 17.490286045135925 9.9699671157071315 -0.73135370988377701 0 0.68199835119979291 0.68199835119979291 0 0.73135370988377701 1 I I #
point $-1 -73.063410138369733 17.490286045135925 12.754454934778577 #
edge $-1 $659 1 $659 0 $406 $-1 forward 7 unknown #
vertex $-1 $407 $660 #
ellipse-curve $-1 -71.54369165990019 20.917904638516696 9.9699671157071315 -0.73135370988377701 0 0.68199835119979291 0.68199835119979291 0 0.73135370988377701 1 I I #
point $-1 -73.063410138369733 20.917904638516696 12.754454934778577 #
edge $-1 $661 1 $661 0 $410 $-1 forward 7 unknown #
vertex $-1 $411 $662 #
ellipse-curve $-1 -71.54369165990019 24.345523231897467 9.9699671157071315 -0.73135370988377701 0 0.68199835119979291 0.68199835119979291 0 0.73135370988377701 1 I I #
point $-1 -73.063410138369733 24.345523231897467 12.754454934778577 #
loop $-1 $-1 $422 $414 #
plane-surface $-1 76.503799554429762 0 0 -1 0 0 0 0 1 forward_v I I I I #
coedge $-1 $559 $417 $419 $563 reversed $283 $-1 #
coedge $-1 $417 $558 $663 $664 reversed $283 $-1 #
coedge $-1 $425 $420 $417 $561 forward $415 $-1 #
edge $-1 $564 38.165107645895297 $665 47.681514744257534 $560 $666 forward 7 unknown #
coedge $-1 $419 $418 $567 $667 reversed $179 $-1 #
edge $-1 $668 -153.00759910885955 $564 -140.58481180689782 $558 $669 forward 7 unknown #
vertex $-1 $421 $670 #
straight-curve $-1 66.987392456067511 -5.1009924910972444 14.981113564729341 0 -1 0 I I #
coedge $-1 $663 $422 $425 $571 reversed $556 $-1 #
coedge $-1 $422 $663 $562 $667 forward $556 $-1 #
vertex $-1 $423 $671 #
straight-curve $-1 76.503799554429762 -5.768378554834646 111.27895492649569 0 0 1 I I #
straight-curve $-1 -40.706820483553201 -5.768378554834646 105.34728981500842 0.76604443648966558 0 -0.64278761758704617 I I #
edge $-1 $665 -14.635591409554332 $426 -5.768378554834646 $566 $672 forward 7 unknown #
point $-1 76.503799554429762 -5.768378554834646 14.981113564729334 #
point $-1 66.987392456067525 -5.768378554834646 14.981113564729341 #
edge $-1 $673 1 $673 0 $429 $-1 forward 7 unknown #
vertex $-1 $430 $674 #
ellipse-curve $-1 70.855674429521954 -12.862148838610395 9.9279394251342055 0.64278761758704617 0 0.76604443648966558 0.38302221824483279 0 -0.32139380879352308 1 I I #
point $-1 72.128618223493476 -12.862148838610395 10.667112829126525 #
edge $-1 $675 1 $675 0 $433 $-1 forward 7 unknown #
vertex $-1 $434 $676 #
ellipse-curve $-1 70.855674429521954 -10.201984982194489 9.9279394251342055 0.64278761758704617 0 0.76604443648966558 0.38302221824483279 0 -0.32139380879352308 1 I I #
point $-1 72.128618223493476 -10.201984982194489 10.667112829126525 #
edge $-1 $677 1 $677 0 $437 $-1 forward 7 unknown #
vertex $-1 $438 $678 #
ellipse-curve $-1 70.855674429521954 -7.5418211257785828 9.9279394251342055 0.64278761758704617 0 0.76604443648966558 0.38302221824483279 0 -0.32139380879352308 1 I I #
point $-1 72.128618223493476 -7.5418211257785828 10.667112829126525 #
plane-surface $-1 0 0 14.981113564729334 0 0 1 1 0 0 forward_v I I I I #
coedge $-1 $597 $596 $589 $679 forward $442 $-1 #
coedge $-1 $589 $444 $446 $593 reversed $312 $-1 #
coedge $-1 $444 $588 $587 $679 reversed $312 $-1 #
coedge $-1 $452 $447 $444 $591 forward $453 $-1 #
edge $-1 $594 38.165107645895297 $680 47.681514744257534 $590 $681 forward 7 unknown #
coedge $-1 $446 $445 $597 $682 reversed $198 $-1 #
edge $-1 $683 -153.00759910885955 $594 -140.58481180689782 $588 $684 forward 7 unknown #
vertex $-1 $448 $685 #
straight-curve $-1 66.987392456067511 10.907556562368907 14.981113564729341 0 -1 0 I I #
coedge $-1 $587 $449 $452 $601 reversed $442 $-1 #
coedge $-1 $449 $587 $592 $682 forward $442 $-1 #
vertex $-1 $450 $686 #
straight-curve $-1 76.503799554429762 26.248719552097654 111.27895492649569 0 0 1 I I #
straight-curve $-1 -40.706820483553201 26.248719552097654 105.34728981500842 0.76604443648966558 0 -0.64278761758704617 I I #
edge $-1 $680 17.381506697377972 $454 26.248719552097654 $596 $687 forward 7 unknown #
point $-1 76.503799554429762 26.248719552097654 14.981113564729334 #
point $-1 66.987392456067525 26.248719552097654 14.981113564729341 #
edge $-1 $688 1 $688 0 $457 $-1 forward 7 unknown #
vertex $-1 $458 $689 #
ellipse-curve $-1 70.855674429521954 19.154949268321907 9.9279394251342055 0.64278761758704617 0 0.76604443648966558 0.38302221824483279 0 -0.32139380879352308 1 I I #
point $-1 72.128618223493476 19.154949268321907 10.667112829126525 #
edge $-1 $690 1 $690 0 $461 $-1 forward 7 unknown #
vertex $-1 $462 $691 #
ellipse-curve $-1 70.855674429521954 21.815113124737813 9.9279394251342055 0.64278761758704617 0 0.76604443648966558 0.38302221824483279 0 -0.32139380879352308 1 I I #
point $-1 72.128618223493476 21.815113124737813 10.667112829126525 #
edge $-1 $692 1 $692 0 $465 $-1 forward 7 unknown #
vertex $-1 $466 $693 #
ellipse-curve $-1 70.855674429521954 24.475276981153719 9.9279394251342055 0.64278761758704617 0 0.76604443648966558 0.38302221824483279 0 -0.32139380879352308 1 I I #
point $-1 72.128618223493476 24.475276981153719 10.667112829126525 #
plane-surface $-1 76.503799554429762 0 0 -1 0 0 0 0 1 forward_v I I I I #
coedge $-1 $474 $472 $476 $621 reversed $341 $-1 #
edge $-1 $487 -14.981113564729334 $623 14.981113564729334 $486 $694 forward 7 unknown #
vertex $-1 $621 $695 #
straight-curve $-1 -76.503799554429762 -32.017098106932302 0 0 0 -1 I I #
edge $-1 $619 -32.017098106932302 $623 32.017098106932302 $617 $696 forward 7 unknown #
straight-curve $-1 0 -32.017098106932302 -14.981113564729334 -1 0 0 I I #
vertex $-1 $479 $697 #
straight-curve $-1 0 32.017098106932302 -14.981113564729334 1 0 0 I I #
point $-1 76.503799554429762 32.017098106932302 -14.981113564729334 #
point $-1 76.503799554429762 -32.017098106932302 -14.981113564729334 #
straight-curve $-1 -76.503799554429762 0 14.981113564729334 0 -1 0 I I #
point $-1 -76.503799554429762 32.017098106932302 14.981113564729334 #
point $-1 -76.503799554429762 -32.017098106932302 14.981113564729334 #
straight-curve $-1 76.503799554429762 -32.017098106932302 0 0 0 -1 I I #
straight-curve $-1 76.503799554429762 32.017098106932302 0 0 0 -1 I I #
edge $-1 $633 41.726896034441346 $636 47.642920714110417 $497 $698 forward 7 unknown #
vertex $-1 $511 $699 #
straight-curve $-1 -94.203237401551931 -15.205206982882071 14.981113564729334 -1 0 0 I I #
edge $-1 $636 4.7462546636237235 $508 16.171649974892972 $507 $700 forward 7 unknown #
vertex $-1 $635 $701 #
straight-curve $-1 -76.503799554429762 -15.205206982882071 9.0650888850602627 0.68199835119979291 0 0.73135370988377701 I I #
point $-1 -70.987017424709293 -15.205206982882071 14.981113564729334 #
point $-1 -76.503799554429762 -26.63060229415132 9.0650888850602627 #
straight-curve $-1 -76.503799554429762 0 14.981113564729334 0 -1 0 I I #
vertex $-1 $514 $702 #
point $-1 -70.861693308700396 -24.345523231897467 10.701320825590908 #
vertex $-1 $518 $703 #
point $-1 -70.861693308700396 -20.917904638516696 10.701320825590908 #
vertex $-1 $522 $704 #
point $-1 -70.861693308700396 -17.490286045135921 10.701320825590908 #
coedge $-1 $537 $536 $529 $648 forward $526 $-1 #
edge $-1 $649 41.726896034441346 $652 47.642920714110417 $647 $705 forward 7 unknown #
vertex $-1 $541 $706 #
straight-curve $-1 -94.203237401551931 26.63060229415132 14.981113564729334 -1 0 0 I I #
edge $-1 $652 -16.171649974892972 $538 -4.7462546636237235 $537 $707 forward 7 unknown #
vertex $-1 $651 $708 #
straight-curve $-1 -76.503799554429762 26.63060229415132 9.0650888850602627 0.68199835119979291 0 0.73135370988377701 I I #
point $-1 -70.987017424709293 26.63060229415132 14.981113564729334 #
point $-1 -76.503799554429762 15.205206982882071 9.0650888850602627 #
straight-curve $-1 -76.503799554429762 0 14.981113564729334 0 -1 0 I I #
vertex $-1 $544 $709 #
point $-1 -70.861693308700396 17.490286045135925 10.701320825590908 #
vertex $-1 $548 $710 #
point $-1 -70.861693308700396 20.917904638516696 10.701320825590908 #
vertex $-1 $552 $711 #
point $-1 -70.861693308700396 24.345523231897467 10.701320825590908 #
coedge $-1 $567 $566 $559 $664 forward $556 $-1 #
edge $-1 $665 96.297841361766359 $668 104.28305521538495 $663 $712 forward 7 unknown #
vertex $-1 $571 $713 #
straight-curve $-1 28.822284810172228 -14.635591409554332 14.981113564729341 1 0 0 I I #
edge $-1 $668 -9.5345989184570872 $568 -0.66738606373740161 $567 $714 forward 7 unknown #
vertex $-1 $667 $715 #
straight-curve $-1 -40.706820483553201 -14.635591409554332 105.34728981500842 -0.76604443648966558 0 0.64278761758704617 I I #
point $-1 66.987392456067525 -14.635591409554332 14.981113564729341 #
point $-1 76.503799554429776 -5.768378554834646 6.9958997111107379 #
straight-curve $-1 76.503799554429762 0 14.981113564729334 0 1 0 I I #
vertex $-1 $574 $716 #
point $-1 71.238696647766787 -12.862148838610395 9.6065456163406822 #
vertex $-1 $578 $717 #
point $-1 71.238696647766787 -10.201984982194489 9.6065456163406822 #
vertex $-1 $582 $718 #
point $-1 71.238696647766787 -7.5418211257785828 9.6065456163406822 #
edge $-1 $680 96.297841361766359 $683 104.28305521538495 $587 $719 forward 7 unknown #
vertex $-1 $601 $720 #
straight-curve $-1 28.822284810172228 17.381506697377972 14.981113564729341 1 0 0 I I #
edge $-1 $683 6.4739501350090656 $598 15.341162989728748 $597 $721 forward 7 unknown #
vertex $-1 $682 $722 #
straight-curve $-1 -40.706820483553201 17.381506697377972 105.34728981500842 -0.76604443648966558 0 0.64278761758704617 I I #
point $-1 66.987392456067525 17.381506697377972 14.981113564729341 #
point $-1 76.503799554429776 26.248719552097654 6.9958997111107379 #
straight-curve $-1 76.503799554429762 0 14.981113564729334 0 1 0 I I #
vertex $-1 $604 $723 #
point $-1 71.238696647766787 19.154949268321907 9.6065456163406822 #
vertex $-1 $608 $724 #
point $-1 71.238696647766787 21.815113124737813 9.6065456163406822 #
vertex $-1 $612 $725 #
point $-1 71.238696647766787 24.475276981153719 9.6065456163406822 #
straight-curve $-1 -76.503799554429762 32.017098106932302 0 0 0 -1 I I #
point $-1 -76.503799554429762 -32.017098106932302 -14.981113564729334 #
straight-curve $-1 -76.503799554429762 0 -14.981113564729334 0 1 0 I I #
point $-1 -76.503799554429762 32.017098106932302 -14.981113564729334 #
straight-curve $-1 -76.503799554429762 -15.205206982882071 56.70800959917068 0 0 -1 I I #
point $-1 -76.503799554429762 -15.205206982882071 14.981113564729334 #
straight-curve $-1 -76.503799554429762 -10.458952319258348 9.0650888850602591 0 -1 0 I I #
point $-1 -76.503799554429762 -15.205206982882071 9.0650888850602627 #
point $-1 -70.812337950016399 -24.345523231897467 9.2879687645073368 #
point $-1 -70.812337950016399 -20.917904638516696 9.2879687645073368 #
point $-1 -70.812337950016399 -17.490286045135921 9.2879687645073368 #
straight-curve $-1 -76.503799554429762 26.63060229415132 56.70800959917068 0 0 -1 I I #
point $-1 -76.503799554429762 26.63060229415132 14.981113564729334 #
straight-curve $-1 -76.503799554429762 10.458952319258348 9.0650888850602591 0 -1 0 I I #
point $-1 -76.503799554429762 26.63060229415132 9.0650888850602627 #
point $-1 -70.812337950016399 17.490286045135925 9.2879687645073368 #
point $-1 -70.812337950016399 20.917904638516696 9.2879687645073368 #
point $-1 -70.812337950016399 24.345523231897467 9.2879687645073368 #
straight-curve $-1 76.503799554429762 -14.635591409554332 111.27895492649569 0 0 -1 I I #
point $-1 76.503799554429762 -14.635591409554332 14.981113564729334 #
straight-curve $-1 76.503799554429747 -5.1009924910972444 6.9958997111107593 0 1 0 I I #
point $-1 76.503799554429776 -14.635591409554332 6.9958997111107379 #
point $-1 70.534280620728438 -12.862148838610395 9.5449172068893731 #
point $-1 70.534280620728438 -10.201984982194489 9.5449172068893731 #
point $-1 70.534280620728438 -7.5418211257785828 9.5449172068893731 #
straight-curve $-1 76.503799554429762 17.381506697377972 111.27895492649569 0 0 -1 I I #
point $-1 76.503799554429762 17.381506697377972 14.981113564729334 #
straight-curve $-1 76.503799554429747 10.907556562368907 6.9958997111107593 0 1 0 I I #
point $-1 76.503799554429776 17.381506697377972 6.9958997111107379 #
point $-1 70.534280620728438 19.154949268321907 9.5449172068893731 #
point $-1 70.534280620728438 21.815113124737813 9.5449172068893731 #
point $-1 70.534280620728438 24.475276981153719 9.5449172068893731 #
End-of-ACIS-data 