500 0 15 0           
7 Unknown 11 ACIS 5.0 NT 24 Thu Mar 25 23:07:57 1999 
-1 9.9999999999999995e-007 1e-010 
body $-1 $15 $-1 $16 #
body $-1 $17 $-1 $18 #
body $-1 $19 $-1 $20 #
body $-1 $21 $-1 $22 #
body $-1 $23 $-1 $24 #
body $-1 $25 $-1 $26 #
body $-1 $27 $-1 $28 #
body $-1 $29 $-1 $30 #
body $-1 $31 $-1 $32 #
body $-1 $33 $-1 $34 #
body $-1 $35 $-1 $36 #
body $-1 $37 $-1 $38 #
body $-1 $39 $-1 $40 #
body $-1 $41 $-1 $42 #
body $-1 $43 $-1 $44 #
lump $-1 $-1 $45 $0 #
transform $-1 1 0 0 0 1 0 0 0 1 60.552385021515548 24.548598830052029 11.773992572815597 1 rotate no_reflect no_shear #
lump $-1 $-1 $46 $1 #
transform $-1 1 0 0 0 1 0 0 0 1 60.552385021515548 24.548598830052029 11.773992572815597 1 rotate no_reflect no_shear #
lump $-1 $-1 $47 $2 #
transform $-1 1 0 0 0 1 0 0 0 1 60.552385021515548 24.548598830052029 11.773992572815597 1 rotate no_reflect no_shear #
lump $-1 $-1 $48 $3 #
transform $-1 1 0 0 0 1 0 0 0 1 60.552385021515548 24.548598830052029 11.773992572815597 1 rotate no_reflect no_shear #
lump $-1 $-1 $49 $4 #
transform $-1 1 0 0 0 1 0 0 0 1 60.552385021515548 24.548598830052029 11.773992572815597 1 rotate no_reflect no_shear #
lump $-1 $-1 $50 $5 #
transform $-1 1 0 0 0 1 0 0 0 1 60.552385021515548 24.548598830052029 11.773992572815597 1 rotate no_reflect no_shear #
lump $-1 $-1 $51 $6 #
transform $-1 1 0 0 0 1 0 0 0 1 60.552385021515548 24.548598830052029 11.773992572815597 1 rotate no_reflect no_shear #
lump $-1 $-1 $52 $7 #
transform $-1 1 0 0 0 1 0 0 0 1 60.552385021515548 24.548598830052029 11.773992572815597 1 rotate no_reflect no_shear #
lump $-1 $-1 $53 $8 #
transform $-1 1 0 0 0 1 0 0 0 1 60.552385021515548 24.548598830052029 11.773992572815597 1 rotate no_reflect no_shear #
lump $-1 $-1 $54 $9 #
transform $-1 1 0 0 0 1 0 0 0 1 60.552385021515548 24.548598830052029 11.773992572815597 1 rotate no_reflect no_shear #
lump $-1 $-1 $55 $10 #
transform $-1 1 0 0 0 1 0 0 0 1 60.552385021515548 24.548598830052029 11.773992572815597 1 rotate no_reflect no_shear #
lump $-1 $-1 $56 $11 #
transform $-1 1 0 0 0 1 0 0 0 1 60.552385021515548 24.548598830052029 11.773992572815597 1 rotate no_reflect no_shear #
lump $-1 $-1 $57 $12 #
transform $-1 1 0 0 0 1 0 0 0 1 60.552385021515548 24.548598830052029 11.773992572815597 1 rotate no_reflect no_shear #
lump $-1 $-1 $58 $13 #
transform $-1 1 0 0 0 1 0 0 0 1 60.552385021515548 24.548598830052029 11.773992572815597 1 rotate no_reflect no_shear #
lump $-1 $-1 $59 $14 #
transform $-1 1 0 0 0 1 0 0 0 1 60.552385021515548 24.548598830052029 11.773992572815597 1 rotate no_reflect no_shear #
shell $-1 $-1 $-1 $60 $-1 $15 #
shell $-1 $-1 $-1 $61 $-1 $17 #
shell $-1 $-1 $-1 $62 $-1 $19 #
shell $-1 $-1 $-1 $63 $-1 $21 #
shell $-1 $-1 $-1 $64 $-1 $23 #
shell $-1 $-1 $-1 $65 $-1 $25 #
shell $-1 $-1 $-1 $66 $-1 $27 #
shell $-1 $-1 $-1 $67 $-1 $29 #
shell $-1 $-1 $-1 $68 $-1 $31 #
shell $-1 $-1 $-1 $69 $-1 $33 #
shell $-1 $-1 $-1 $70 $-1 $35 #
shell $-1 $-1 $-1 $71 $-1 $37 #
shell $-1 $-1 $-1 $72 $-1 $39 #
shell $-1 $-1 $-1 $73 $-1 $41 #
shell $-1 $-1 $-1 $74 $-1 $43 #
face $-1 $75 $76 $45 $-1 $77 forward single #
face $-1 $78 $79 $46 $-1 $80 reversed single #
face $-1 $81 $82 $47 $-1 $83 reversed single #
face $-1 $84 $85 $48 $-1 $86 reversed single #
face $-1 $87 $88 $49 $-1 $89 forward single #
face $-1 $90 $91 $50 $-1 $92 forward single #
face $-1 $93 $94 $51 $-1 $95 reversed single #
face $-1 $96 $97 $52 $-1 $98 forward single #
face $-1 $99 $100 $53 $-1 $101 forward single #
face $-1 $102 $103 $54 $-1 $104 reversed single #
face $-1 $105 $106 $55 $-1 $107 forward single #
face $-1 $108 $109 $56 $-1 $110 forward single #
face $-1 $111 $112 $57 $-1 $113 reversed single #
face $-1 $114 $115 $58 $-1 $116 forward single #
face $-1 $117 $118 $59 $-1 $119 forward single #
face $-1 $120 $121 $45 $-1 $122 reversed single #
loop $-1 $-1 $123 $60 #
plane-surface $-1 0 0 11.773992572815597 0 0 1 1 0 0 forward_v I I I I #
face $-1 $124 $125 $46 $-1 $126 reversed single #
loop $-1 $-1 $127 $61 #
plane-surface $-1 0 -18.317606631608975 5.5359001182234042 0 0 1 1 0 0 forward_v I I I I #
face $-1 $128 $129 $47 $-1 $130 reversed single #
loop $-1 $-1 $131 $62 #
plane-surface $-1 0 18.317606631608975 5.5359001182234042 0 0 1 1 0 0 forward_v I I I I #
face $-1 $132 $133 $48 $-1 $134 reversed single #
loop $-1 $-1 $135 $63 #
plane-surface $-1 -36.166184075669079 9.0243159346776167 75.295806719341329 0.6018150307709319 0 0.79863550430605224 0.79863550430605224 0 -0.6018150307709319 forward_v I I I I #
face $-1 $136 $137 $49 $-1 $138 forward single #
loop $-1 $139 $140 $64 #
cone-surface $-1 53.997628092047854 7.7119022924683449 6.6375666432621045 -0.6018150307709319 0 -0.79863550430605224 0.39931775215302612 0 -0.30090751538546595 1 I I 0 1 0.5 forward I I I I #
face $-1 $141 $142 $50 $-1 $143 forward single #
loop $-1 $144 $145 $65 #
cone-surface $-1 53.997628092047854 10.336729576886889 6.6375666432621045 -0.6018150307709319 0 -0.79863550430605224 0.39931775215302612 0 -0.30090751538546595 1 I I 0 1 0.5 forward I I I I #
face $-1 $146 $147 $51 $-1 $148 reversed single #
loop $-1 $-1 $149 $66 #
plane-surface $-1 -149.12280787710802 -10.216983781154228 90.722725659222604 0 1 0 -0.73135370988377701 0 0.68199835119979291 forward_v I I I I #
face $-1 $150 $151 $52 $-1 $152 forward single #
loop $-1 $153 $154 $67 #
cone-surface $-1 -58.387391201730964 -9.0110386660723716 9.5174519630937713 0.73135370988377701 0 -0.68199835119979291 0.34099917559989645 0 0.36567685494188851 1 I I 0 1 0.5 forward I I I I #
face $-1 $155 $156 $53 $-1 $157 forward single #
loop $-1 $158 $159 $68 #
cone-surface $-1 -58.387391201730964 -7.2021209934495829 9.5174519630937713 0.73135370988377701 0 -0.68199835119979291 0.34099917559989645 0 0.36567685494188851 1 I I 0 1 0.5 forward I I I I #
face $-1 $160 $161 $54 $-1 $162 reversed single #
loop $-1 $-1 $163 $69 #
plane-surface $-1 -149.12280787710802 -2.1592408257102829 90.722725659222604 0 1 0 -0.73135370988377701 0 0.68199835119979291 forward_v I I I I #
face $-1 $164 $165 $55 $-1 $166 forward single #
loop $-1 $167 $168 $70 #
cone-surface $-1 -58.387391201730964 -0.95329571062842433 9.5174519630937713 0.73135370988377701 0 -0.68199835119979291 0.34099917559989645 0 0.36567685494188851 1 I I 0 1 0.5 forward I I I I #
face $-1 $169 $170 $56 $-1 $171 forward single #
loop $-1 $172 $173 $71 #
cone-surface $-1 -58.387391201730964 0.85562196199436258 9.5174519630937713 0.73135370988377701 0 -0.68199835119979291 0.34099917559989645 0 0.36567685494188851 1 I I 0 1 0.5 forward I I I I #
face $-1 $174 $175 $57 $-1 $176 reversed single #
loop $-1 $-1 $177 $72 #
plane-surface $-1 -149.12280787710802 5.8985021297336626 90.722725659222604 0 1 0 -0.73135370988377701 0 0.68199835119979291 forward_v I I I I #
face $-1 $178 $179 $58 $-1 $180 forward single #
loop $-1 $181 $182 $73 #
cone-surface $-1 -58.387391201730964 7.1044472448155211 9.5174519630937713 0.73135370988377701 0 -0.68199835119979291 0.34099917559989645 0 0.36567685494188851 1 I I 0 1 0.5 forward I I I I #
face $-1 $183 $184 $59 $-1 $185 forward single #
loop $-1 $186 $187 $74 #
cone-surface $-1 -58.387391201730964 8.9133649174383081 9.5174519630937713 0.73135370988377701 0 -0.68199835119979291 0.34099917559989645 0 0.36567685494188851 1 I I 0 1 0.5 forward I I I I #
face $-1 $188 $189 $45 $-1 $190 reversed single #
loop $-1 $-1 $191 $75 #
plane-surface $-1 0 0 -11.773992572815597 0 0 1 1 0 0 forward_v I I I I #
coedge $-1 $192 $193 $194 $195 forward $76 $-1 #
face $-1 $196 $197 $46 $-1 $198 reversed single #
loop $-1 $-1 $199 $78 #
plane-surface $-1 0 -12.086614433165918 8.6549463455195017 0 -1 0 0 0 -1 forward_v I I I I #
coedge $-1 $200 $201 $202 $203 reversed $79 $-1 #
face $-1 $204 $205 $47 $-1 $206 forward single #
loop $-1 $-1 $207 $81 #
plane-surface $-1 0 12.08661443316592 8.6549463455195017 0 1 0 0 0 1 forward_v I I I I #
coedge $-1 $208 $209 $210 $211 reversed $82 $-1 #
face $-1 $212 $213 $48 $-1 $214 forward single #
loop $-1 $-1 $215 $84 #
plane-surface $-1 36.716486834284311 5.9620174361893135 172.01437581652596 0 1 0 0.6018150307709319 0 0.79863550430605224 forward_v I I I I #
coedge $-1 $216 $217 $218 $219 reversed $85 $-1 #
face $-1 $-1 $220 $49 $-1 $221 forward single #
loop $-1 $222 $223 $87 #
cone-surface $-1 53.503555528523236 7.7119022924683449 5.9819102193459379 -0.6018150307709319 0 -0.79863550430605224 0.19965887607651306 0 -0.15045375769273298 1 I I -0.70710678118654746 0.70710678118654746 0.25 forward I I I I #
loop $-1 $-1 $224 $64 #
coedge $-1 $140 $140 $225 $226 reversed $88 $-1 #
face $-1 $-1 $227 $50 $-1 $228 forward single #
loop $-1 $229 $230 $90 #
cone-surface $-1 53.503555528523236 10.336729576886889 5.9819102193459379 -0.6018150307709319 0 -0.79863550430605224 0.19965887607651306 0 -0.15045375769273298 1 I I -0.70710678118654746 0.70710678118654746 0.25 forward I I I I #
loop $-1 $-1 $231 $65 #
coedge $-1 $145 $145 $232 $233 reversed $91 $-1 #
face $-1 $234 $235 $51 $-1 $236 reversed single #
loop $-1 $-1 $237 $93 #
plane-surface $-1 -60.552385021515533 -8.1065798297609746 8.1294721674453285 -0.73135370988377701 0 0.68199835119979291 0.68199835119979291 0 0.73135370988377701 forward_v I I I I #
coedge $-1 $238 $239 $240 $241 reversed $94 $-1 #
face $-1 $-1 $242 $52 $-1 $243 forward single #
loop $-1 $244 $245 $96 #
cone-surface $-1 -57.7388440430624 -9.0110386660723716 8.9126719682571256 0.73135370988377701 0 -0.68199835119979291 0.17049958779994823 0 0.18283842747094425 1 I I -0.70710678118654746 0.70710678118654746 0.25 forward I I I I #
loop $-1 $-1 $246 $67 #
coedge $-1 $154 $154 $247 $248 reversed $97 $-1 #
face $-1 $-1 $249 $53 $-1 $250 forward single #
loop $-1 $251 $252 $99 #
cone-surface $-1 -57.7388440430624 -7.2021209934495829 8.9126719682571256 0.73135370988377701 0 -0.68199835119979291 0.17049958779994823 0 0.18283842747094425 1 I I -0.70710678118654746 0.70710678118654746 0.25 forward I I I I #
loop $-1 $-1 $253 $68 #
coedge $-1 $159 $159 $254 $255 reversed $100 $-1 #
face $-1 $256 $257 $54 $-1 $258 reversed single #
loop $-1 $-1 $259 $102 #
plane-surface $-1 -60.552385021515533 -0.0488368743170291 8.1294721674453285 -0.73135370988377701 0 0.68199835119979291 0.68199835119979291 0 0.73135370988377701 forward_v I I I I #
coedge $-1 $260 $261 $262 $263 reversed $103 $-1 #
face $-1 $-1 $264 $55 $-1 $265 forward single #
loop $-1 $266 $267 $105 #
cone-surface $-1 -57.7388440430624 -0.95329571062842433 8.9126719682571256 0.73135370988377701 0 -0.68199835119979291 0.17049958779994823 0 0.18283842747094425 1 I I -0.70710678118654746 0.70710678118654746 0.25 forward I I I I #
loop $-1 $-1 $268 $70 #
coedge $-1 $168 $168 $269 $270 reversed $106 $-1 #
face $-1 $-1 $271 $56 $-1 $272 forward single #
loop $-1 $273 $274 $108 #
cone-surface $-1 -57.7388440430624 0.85562196199436258 8.9126719682571256 0.73135370988377701 0 -0.68199835119979291 0.17049958779994823 0 0.18283842747094425 1 I I -0.70710678118654746 0.70710678118654746 0.25 forward I I I I #
loop $-1 $-1 $275 $71 #
coedge $-1 $173 $173 $276 $277 reversed $109 $-1 #
face $-1 $278 $279 $57 $-1 $280 reversed single #
loop $-1 $-1 $281 $111 #
plane-surface $-1 -60.552385021515533 8.0089060811269164 8.1294721674453285 -0.73135370988377701 0 0.68199835119979291 0.68199835119979291 0 0.73135370988377701 forward_v I I I I #
coedge $-1 $282 $283 $284 $285 reversed $112 $-1 #
face $-1 $-1 $286 $58 $-1 $287 forward single #
loop $-1 $288 $289 $114 #
cone-surface $-1 -57.7388440430624 7.1044472448155211 8.9126719682571256 0.73135370988377701 0 -0.68199835119979291 0.17049958779994823 0 0.18283842747094425 1 I I -0.70710678118654746 0.70710678118654746 0.25 forward I I I I #
loop $-1 $-1 $290 $73 #
coedge $-1 $182 $182 $291 $292 reversed $115 $-1 #
face $-1 $-1 $293 $59 $-1 $294 forward single #
loop $-1 $295 $296 $117 #
cone-surface $-1 -57.7388440430624 8.9133649174383081 8.9126719682571256 0.73135370988377701 0 -0.68199835119979291 0.17049958779994823 0 0.18283842747094425 1 I I -0.70710678118654746 0.70710678118654746 0.25 forward I I I I #
loop $-1 $-1 $297 $74 #
coedge $-1 $187 $187 $298 $299 reversed $118 $-1 #
face $-1 $300 $301 $45 $-1 $302 reversed single #
loop $-1 $-1 $303 $120 #
plane-surface $-1 0 -24.548598830052029 0 0 1 0 0 0 1 forward_v I I I I #
coedge $-1 $304 $305 $306 $307 forward $121 $-1 #
coedge $-1 $308 $123 $309 $310 forward $76 $-1 #
coedge $-1 $123 $308 $311 $312 forward $76 $-1 #
coedge $-1 $313 $314 $123 $195 reversed $315 $-1 #
edge $-1 $316 -24.548598830052029 $317 24.548598830052029 $194 $318 forward 7 unknown #
face $-1 $319 $320 $46 $-1 $321 reversed single #
loop $-1 $-1 $322 $124 #
plane-surface $-1 -60.552385021515548 0 0 1 0 0 0 0 -1 forward_v I I I I #
coedge $-1 $323 $324 $325 $326 reversed $125 $-1 #
coedge $-1 $327 $127 $328 $329 reversed $79 $-1 #
coedge $-1 $127 $327 $323 $330 forward $79 $-1 #
coedge $-1 $325 $331 $127 $203 forward $332 $-1 #
edge $-1 $333 -15.389795514247542 $334 -2.927811117361431 $202 $335 forward 7 unknown #
face $-1 $336 $337 $47 $-1 $338 reversed single #
loop $-1 $-1 $339 $128 #
plane-surface $-1 0 0 11.773992572815597 0 0 1 1 0 0 forward_v I I I I #
coedge $-1 $340 $341 $342 $343 reversed $129 $-1 #
coedge $-1 $344 $131 $340 $345 forward $82 $-1 #
coedge $-1 $131 $344 $346 $347 reversed $82 $-1 #
coedge $-1 $348 $349 $131 $211 forward $337 $-1 #
edge $-1 $350 2.9278111173614327 $351 15.389795514247542 $210 $352 forward 7 unknown #
face $-1 $353 $354 $48 $-1 $355 reversed single #
loop $-1 $-1 $218 $132 #
plane-surface $-1 0 0 11.773992572815597 0 0 1 1 0 0 forward_v I I I I #
coedge $-1 $356 $357 $358 $359 reversed $133 $-1 #
coedge $-1 $360 $135 $361 $362 reversed $85 $-1 #
coedge $-1 $135 $360 $356 $363 forward $85 $-1 #
coedge $-1 $358 $364 $135 $219 forward $213 $-1 #
edge $-1 $365 -7.5744564658271116 $366 -1.4498594688505051 $218 $367 forward 7 unknown #
loop $-1 $-1 $225 $136 #
plane-surface $-1 -36.166184075669079 9.0243159346776167 75.295806719341329 0.6018150307709319 0 0.79863550430605224 0.79863550430605224 0 -0.6018150307709319 forward_v I I I I #
loop $-1 $-1 $368 $87 #
coedge $-1 $223 $223 $224 $369 reversed $137 $-1 #
coedge $-1 $224 $224 $223 $369 forward $139 $-1 #
coedge $-1 $225 $225 $140 $226 forward $220 $-1 #
edge $-1 $370 0 $370 6.2831853071796004 $225 $371 forward 7 unknown #
loop $-1 $-1 $232 $141 #
plane-surface $-1 -36.166184075669079 9.0243159346776167 75.295806719341329 0.6018150307709319 0 0.79863550430605224 0.79863550430605224 0 -0.6018150307709319 forward_v I I I I #
loop $-1 $-1 $372 $90 #
coedge $-1 $230 $230 $231 $373 reversed $142 $-1 #
coedge $-1 $231 $231 $230 $373 forward $144 $-1 #
coedge $-1 $232 $232 $145 $233 forward $227 $-1 #
edge $-1 $374 0 $374 6.2831853071796004 $232 $375 forward 7 unknown #
face $-1 $376 $377 $51 $-1 $378 reversed single #
loop $-1 $-1 $379 $146 #
plane-surface $-1 -149.12280787710802 -5.9961758783677208 90.722725659222604 0 -1 0 0.73135370988377701 0 -0.68199835119979291 forward_v I I I I #
coedge $-1 $380 $381 $382 $383 reversed $147 $-1 #
coedge $-1 $239 $149 $384 $385 reversed $94 $-1 #
coedge $-1 $149 $238 $380 $386 reversed $94 $-1 #
coedge $-1 $382 $387 $149 $241 forward $388 $-1 #
edge $-1 $389 14.00901891703846 $390 17.407589094212412 $240 $391 forward 7 unknown #
loop $-1 $-1 $247 $150 #
plane-surface $-1 -60.552385021515533 -8.1065798297609746 8.1294721674453285 -0.73135370988377701 0 0.68199835119979291 0.68199835119979291 0 0.73135370988377701 forward_v I I I I #
loop $-1 $-1 $392 $96 #
coedge $-1 $245 $245 $246 $393 reversed $151 $-1 #
coedge $-1 $246 $246 $245 $393 forward $153 $-1 #
coedge $-1 $247 $247 $154 $248 forward $242 $-1 #
edge $-1 $394 0 $394 6.2831853071796004 $247 $395 forward 7 unknown #
loop $-1 $-1 $254 $155 #
plane-surface $-1 -60.552385021515533 -8.1065798297609746 8.1294721674453285 -0.73135370988377701 0 0.68199835119979291 0.68199835119979291 0 0.73135370988377701 forward_v I I I I #
loop $-1 $-1 $396 $99 #
coedge $-1 $252 $252 $253 $397 reversed $156 $-1 #
coedge $-1 $253 $253 $252 $397 forward $158 $-1 #
coedge $-1 $254 $254 $159 $255 forward $249 $-1 #
edge $-1 $398 0 $398 6.2831853071796004 $254 $399 forward 7 unknown #
face $-1 $400 $401 $54 $-1 $402 forward single #
loop $-1 $-1 $403 $160 #
plane-surface $-1 -149.12280787710802 2.0615670770762247 90.722725659222604 0 -1 0 0.73135370988377701 0 -0.68199835119979291 forward_v I I I I #
coedge $-1 $404 $405 $406 $407 reversed $161 $-1 #
coedge $-1 $261 $163 $408 $409 reversed $103 $-1 #
coedge $-1 $163 $260 $404 $410 reversed $103 $-1 #
coedge $-1 $406 $411 $163 $263 forward $401 $-1 #
edge $-1 $412 14.00901891703846 $413 17.407589094212412 $262 $414 forward 7 unknown #
loop $-1 $-1 $269 $164 #
plane-surface $-1 -60.552385021515533 -0.0488368743170291 8.1294721674453285 -0.73135370988377701 0 0.68199835119979291 0.68199835119979291 0 0.73135370988377701 forward_v I I I I #
loop $-1 $-1 $415 $105 #
coedge $-1 $267 $267 $268 $416 reversed $165 $-1 #
coedge $-1 $268 $268 $267 $416 forward $167 $-1 #
coedge $-1 $269 $269 $168 $270 forward $264 $-1 #
edge $-1 $417 0 $417 6.2831853071796004 $269 $418 forward 7 unknown #
loop $-1 $-1 $276 $169 #
plane-surface $-1 -60.552385021515533 -0.0488368743170291 8.1294721674453285 -0.73135370988377701 0 0.68199835119979291 0.68199835119979291 0 0.73135370988377701 forward_v I I I I #
loop $-1 $-1 $419 $108 #
coedge $-1 $274 $274 $275 $420 reversed $170 $-1 #
coedge $-1 $275 $275 $274 $420 forward $172 $-1 #
coedge $-1 $276 $276 $173 $277 forward $271 $-1 #
edge $-1 $421 0 $421 6.2831853071796004 $276 $422 forward 7 unknown #
face $-1 $423 $424 $57 $-1 $425 forward single #
loop $-1 $-1 $426 $174 #
plane-surface $-1 -149.12280787710802 10.11931003252017 90.722725659222604 0 -1 0 0.73135370988377701 0 -0.68199835119979291 forward_v I I I I #
coedge $-1 $427 $428 $429 $430 reversed $175 $-1 #
coedge $-1 $283 $177 $431 $432 reversed $112 $-1 #
coedge $-1 $177 $282 $427 $433 reversed $112 $-1 #
coedge $-1 $429 $434 $177 $285 forward $424 $-1 #
edge $-1 $435 14.00901891703846 $436 17.407589094212412 $284 $437 forward 7 unknown #
loop $-1 $-1 $291 $178 #
plane-surface $-1 -60.552385021515533 8.0089060811269164 8.1294721674453285 -0.73135370988377701 0 0.68199835119979291 0.68199835119979291 0 0.73135370988377701 forward_v I I I I #
loop $-1 $-1 $438 $114 #
coedge $-1 $289 $289 $290 $439 reversed $179 $-1 #
coedge $-1 $290 $290 $289 $439 forward $181 $-1 #
coedge $-1 $291 $291 $182 $292 forward $286 $-1 #
edge $-1 $440 0 $440 6.2831853071796004 $291 $441 forward 7 unknown #
loop $-1 $-1 $298 $183 #
plane-surface $-1 -60.552385021515533 8.0089060811269164 8.1294721674453285 -0.73135370988377701 0 0.68199835119979291 0.68199835119979291 0 0.73135370988377701 forward_v I I I I #
loop $-1 $-1 $442 $117 #
coedge $-1 $296 $296 $297 $443 reversed $184 $-1 #
coedge $-1 $297 $297 $296 $443 forward $186 $-1 #
coedge $-1 $298 $298 $187 $299 forward $293 $-1 #
edge $-1 $444 0 $444 6.2831853071796004 $298 $445 forward 7 unknown #
face $-1 $446 $447 $45 $-1 $448 reversed single #
loop $-1 $-1 $449 $188 #
plane-surface $-1 -60.552385021515548 0 0 1 0 0 0 0 -1 forward_v I I I I #
coedge $-1 $450 $311 $451 $452 forward $189 $-1 #
coedge $-1 $453 $191 $450 $454 forward $121 $-1 #
coedge $-1 $191 $453 $455 $456 forward $121 $-1 #
coedge $-1 $314 $313 $191 $307 reversed $315 $-1 #
edge $-1 $457 -24.548598830052029 $458 24.548598830052029 $306 $459 forward 7 unknown #
coedge $-1 $193 $192 $460 $461 forward $76 $-1 #
coedge $-1 $462 $463 $192 $310 reversed $447 $-1 #
edge $-1 $317 -60.552385021515548 $464 60.552385021515548 $309 $465 forward 7 unknown #
coedge $-1 $303 $466 $193 $312 reversed $189 $-1 #
edge $-1 $467 -60.552385021515548 $316 60.552385021515548 $311 $468 forward 7 unknown #
coedge $-1 $306 $194 $466 $469 forward $315 $-1 #
coedge $-1 $194 $306 $462 $470 reversed $315 $-1 #
loop $-1 $-1 $313 $446 #
vertex $-1 $195 $471 #
vertex $-1 $195 $472 #
straight-curve $-1 60.552385021515548 0 11.773992572815597 0 1 0 I I #
face $-1 $473 $474 $46 $-1 $475 forward single #
loop $-1 $-1 $328 $196 #
plane-surface $-1 0 -24.548598830052029 0 0 1 0 0 0 1 forward_v I I I I #
coedge $-1 $476 $477 $478 $479 forward $197 $-1 #
coedge $-1 $478 $199 $201 $330 reversed $125 $-1 #
coedge $-1 $199 $478 $480 $481 reversed $125 $-1 #
coedge $-1 $482 $202 $199 $326 forward $332 $-1 #
edge $-1 $334 1.2084269454636534 $483 7.4465194000558483 $325 $484 forward 7 unknown #
coedge $-1 $201 $200 $476 $485 reversed $79 $-1 #
coedge $-1 $486 $487 $200 $329 forward $320 $-1 #
edge $-1 $488 -60.552385021515548 $333 60.552385021515548 $328 $489 forward 7 unknown #
edge $-1 $490 -60.552385021515548 $334 60.552385021515548 $323 $491 forward 7 unknown #
coedge $-1 $202 $482 $486 $492 forward $332 $-1 #
loop $-1 $-1 $325 $473 #
vertex $-1 $329 $493 #
vertex $-1 $203 $494 #
straight-curve $-1 60.552385021515548 -9.1588033158044873 5.5359001182234042 0 1 0 I I #
face $-1 $495 $496 $47 $-1 $497 reversed single #
loop $-1 $-1 $349 $204 #
plane-surface $-1 60.552385021515548 0 0 -1 0 0 0 0 1 forward_v I I I I #
coedge $-1 $498 $499 $341 $500 forward $205 $-1 #
coedge $-1 $501 $207 $208 $345 reversed $129 $-1 #
coedge $-1 $207 $501 $339 $500 reversed $129 $-1 #
coedge $-1 $502 $503 $207 $343 forward $496 $-1 #
edge $-1 $504 1.2084269454636534 $505 7.4465194000558483 $342 $506 forward 7 unknown #
coedge $-1 $209 $208 $503 $507 reversed $82 $-1 #
edge $-1 $350 -60.552385021515548 $504 60.552385021515548 $340 $508 forward 7 unknown #
coedge $-1 $509 $510 $209 $347 forward $511 $-1 #
edge $-1 $351 -60.552385021515548 $512 60.552385021515548 $346 $513 forward 7 unknown #
coedge $-1 $514 $210 $510 $515 reversed $337 $-1 #
coedge $-1 $210 $514 $501 $516 forward $337 $-1 #
vertex $-1 $211 $517 #
vertex $-1 $347 $518 #
straight-curve $-1 60.552385021515548 9.1588033158044873 5.5359001182234042 0 1 0 I I #
face $-1 $-1 $519 $48 $-1 $520 forward single #
loop $-1 $-1 $521 $212 #
plane-surface $-1 60.552385021515548 0 0 -1 0 0 0 0 1 forward_v I I I I #
coedge $-1 $357 $215 $217 $363 reversed $133 $-1 #
coedge $-1 $215 $356 $521 $522 reversed $133 $-1 #
coedge $-1 $523 $218 $215 $359 forward $213 $-1 #
edge $-1 $366 29.771865357101795 $524 42.194141604373392 $358 $525 forward 7 unknown #
coedge $-1 $217 $216 $526 $527 reversed $85 $-1 #
coedge $-1 $528 $529 $216 $362 forward $519 $-1 #
edge $-1 $530 -86.610234995745884 $365 -71.055859839252534 $361 $531 forward 7 unknown #
edge $-1 $532 -121.1047700430311 $366 -105.55039488653776 $356 $533 forward 7 unknown #
coedge $-1 $218 $523 $528 $534 forward $213 $-1 #
vertex $-1 $362 $535 #
vertex $-1 $219 $536 #
straight-curve $-1 48.130108774243951 4.5121579673388084 11.773992572815601 0 -1 0 I I #
coedge $-1 $368 $368 $-1 $537 reversed $222 $-1 #
edge $-1 $538 0 $538 6.2831853071796004 $223 $539 forward 7 unknown #
vertex $-1 $226 $540 #
ellipse-curve $-1 54.341246897879749 7.7119022924683449 7.0935641911017679 0.6018150307709319 0 0.79863550430605224 0.39931775215302612 0 -0.30090751538546595 1 I I #
coedge $-1 $372 $372 $-1 $541 reversed $229 $-1 #
edge $-1 $542 0 $542 6.2831853071796004 $230 $543 forward 7 unknown #
vertex $-1 $233 $544 #
ellipse-curve $-1 54.341246897879749 10.336729576886889 7.0935641911017679 0.6018150307709319 0 0.79863550430605224 0.39931775215302612 0 -0.30090751538546595 1 I I #
face $-1 $-1 $388 $51 $-1 $545 forward single #
loop $-1 $-1 $546 $234 #
plane-surface $-1 -60.552385021515548 0 0 1 0 0 0 0 -1 forward_v I I I I #
coedge $-1 $547 $548 $549 $550 reversed $235 $-1 #
coedge $-1 $551 $237 $239 $386 forward $147 $-1 #
coedge $-1 $237 $551 $547 $552 forward $147 $-1 #
coedge $-1 $549 $240 $237 $383 forward $388 $-1 #
edge $-1 $390 -6.1636938662737411 $553 -1.9428859634872335 $382 $554 forward 7 unknown #
coedge $-1 $555 $556 $238 $385 forward $377 $-1 #
edge $-1 $557 -37.231890662165988 $389 -33.587370256795708 $384 $558 forward 7 unknown #
edge $-1 $390 -4.9832527764840862 $557 2.1384085966062714e-014 $239 $559 forward 7 unknown #
coedge $-1 $240 $549 $555 $560 forward $388 $-1 #
loop $-1 $-1 $549 $376 #
vertex $-1 $385 $561 #
vertex $-1 $241 $562 #
straight-curve $-1 -74.561403938554008 -10.216983781154228 11.773992572815601 1 0 0 I I #
coedge $-1 $392 $392 $-1 $563 reversed $244 $-1 #
edge $-1 $564 0 $564 6.2831853071796004 $245 $565 forward 7 unknown #
vertex $-1 $248 $566 #
ellipse-curve $-1 -58.853099932928572 -9.0110386660723716 9.9517323701304559 -0.73135370988377701 0 0.68199835119979291 0.34099917559989645 0 0.36567685494188851 1 I I #
coedge $-1 $396 $396 $-1 $567 reversed $251 $-1 #
edge $-1 $568 0 $568 6.2831853071796004 $252 $569 forward 7 unknown #
vertex $-1 $255 $570 #
ellipse-curve $-1 -58.853099932928572 -7.2021209934495829 9.9517323701304559 -0.73135370988377701 0 0.68199835119979291 0.34099917559989645 0 0.36567685494188851 1 I I #
face $-1 $-1 $571 $54 $-1 $572 reversed single #
loop $-1 $-1 $262 $256 #
plane-surface $-1 0 0 11.773992572815597 0 0 1 1 0 0 forward_v I I I I #
coedge $-1 $573 $574 $575 $576 reversed $257 $-1 #
coedge $-1 $577 $259 $261 $410 forward $161 $-1 #
coedge $-1 $259 $577 $573 $578 forward $161 $-1 #
coedge $-1 $575 $262 $259 $407 forward $401 $-1 #
edge $-1 $413 -2.1348223885517683 $579 2.0859855142347392 $406 $580 forward 7 unknown #
coedge $-1 $581 $582 $260 $409 forward $571 $-1 #
edge $-1 $583 -37.231890662165988 $412 -33.587370256795708 $408 $584 forward 7 unknown #
edge $-1 $413 -4.9832527764840862 $583 2.1384085966062714e-014 $261 $585 forward 7 unknown #
coedge $-1 $262 $575 $581 $586 forward $401 $-1 #
vertex $-1 $263 $587 #
vertex $-1 $263 $588 #
straight-curve $-1 -74.561403938554008 -2.1592408257102829 11.773992572815601 1 0 0 I I #
coedge $-1 $415 $415 $-1 $589 reversed $266 $-1 #
edge $-1 $590 0 $590 6.2831853071796004 $267 $591 forward 7 unknown #
vertex $-1 $270 $592 #
ellipse-curve $-1 -58.853099932928572 -0.95329571062842433 9.9517323701304559 -0.73135370988377701 0 0.68199835119979291 0.34099917559989645 0 0.36567685494188851 1 I I #
coedge $-1 $419 $419 $-1 $593 reversed $273 $-1 #
edge $-1 $594 0 $594 6.2831853071796004 $274 $595 forward 7 unknown #
vertex $-1 $277 $596 #
ellipse-curve $-1 -58.853099932928572 0.85562196199436258 9.9517323701304559 -0.73135370988377701 0 0.68199835119979291 0.34099917559989645 0 0.36567685494188851 1 I I #
face $-1 $-1 $597 $57 $-1 $598 reversed single #
loop $-1 $-1 $284 $278 #
plane-surface $-1 0 0 11.773992572815597 0 0 1 1 0 0 forward_v I I I I #
coedge $-1 $599 $600 $601 $602 reversed $279 $-1 #
coedge $-1 $603 $281 $283 $433 forward $175 $-1 #
coedge $-1 $281 $603 $599 $604 forward $175 $-1 #
coedge $-1 $601 $284 $281 $430 forward $424 $-1 #
edge $-1 $436 1.8940490891702044 $605 6.114856991956712 $429 $606 forward 7 unknown #
coedge $-1 $607 $608 $282 $432 forward $597 $-1 #
edge $-1 $609 -37.231890662165988 $435 -33.587370256795708 $431 $610 forward 7 unknown #
edge $-1 $436 -4.9832527764840862 $609 2.1384085966062714e-014 $283 $611 forward 7 unknown #
coedge $-1 $284 $601 $607 $612 forward $424 $-1 #
vertex $-1 $285 $613 #
vertex $-1 $285 $614 #
straight-curve $-1 -74.561403938554008 5.8985021297336626 11.773992572815601 1 0 0 I I #
coedge $-1 $438 $438 $-1 $615 reversed $288 $-1 #
edge $-1 $616 0 $616 6.2831853071796004 $289 $617 forward 7 unknown #
vertex $-1 $292 $618 #
ellipse-curve $-1 -58.853099932928572 7.1044472448155211 9.9517323701304559 -0.73135370988377701 0 0.68199835119979291 0.34099917559989645 0 0.36567685494188851 1 I I #
coedge $-1 $442 $442 $-1 $619 reversed $295 $-1 #
edge $-1 $620 0 $620 6.2831853071796004 $296 $621 forward 7 unknown #
vertex $-1 $299 $622 #
ellipse-curve $-1 -58.853099932928572 8.9133649174383081 9.9517323701304559 -0.73135370988377701 0 0.68199835119979291 0.34099917559989645 0 0.36567685494188851 1 I I #
face $-1 $-1 $315 $45 $-1 $623 reversed single #
loop $-1 $-1 $462 $300 #
plane-surface $-1 0 24.548598830052029 0 0 -1 0 0 0 -1 forward_v I I I I #
coedge $-1 $624 $460 $463 $625 forward $301 $-1 #
coedge $-1 $466 $303 $304 $454 reversed $189 $-1 #
coedge $-1 $460 $624 $303 $452 reversed $301 $-1 #
edge $-1 $467 -11.773992572815597 $626 11.773992572815597 $451 $627 forward 7 unknown #
coedge $-1 $305 $304 $624 $628 forward $121 $-1 #
edge $-1 $458 -60.552385021515548 $626 60.552385021515548 $450 $629 forward 7 unknown #
coedge $-1 $463 $462 $305 $456 reversed $447 $-1 #
edge $-1 $630 -60.552385021515548 $457 60.552385021515548 $455 $631 forward 7 unknown #
vertex $-1 $307 $632 #
vertex $-1 $469 $633 #
straight-curve $-1 60.552385021515548 0 -11.773992572815597 0 -1 0 I I #
coedge $-1 $449 $451 $308 $461 reversed $301 $-1 #
edge $-1 $464 -24.548598830052029 $467 24.548598830052029 $460 $634 forward 7 unknown #
coedge $-1 $455 $309 $314 $470 forward $447 $-1 #
coedge $-1 $309 $455 $449 $625 reversed $447 $-1 #
vertex $-1 $310 $635 #
straight-curve $-1 0 24.548598830052029 11.773992572815597 -1 0 0 I I #
coedge $-1 $311 $450 $313 $469 reversed $189 $-1 #
vertex $-1 $461 $636 #
straight-curve $-1 0 -24.548598830052029 11.773992572815597 1 0 0 I I #
edge $-1 $316 -11.773992572815597 $458 11.773992572815597 $313 $637 forward 7 unknown #
edge $-1 $317 -11.773992572815597 $457 11.773992572815597 $314 $638 forward 7 unknown #
point $-1 60.552385021515548 -24.548598830052029 11.773992572815597 #
point $-1 60.552385021515548 24.548598830052029 11.773992572815597 #
face $-1 $-1 $332 $46 $-1 $639 reversed single #
loop $-1 $-1 $480 $319 #
plane-surface $-1 0 0 11.773992572815597 0 0 1 1 0 0 forward_v I I I I #
coedge $-1 $640 $322 $327 $485 forward $197 $-1 #
coedge $-1 $322 $640 $641 $642 reversed $197 $-1 #
coedge $-1 $324 $323 $322 $479 reversed $125 $-1 #
edge $-1 $643 -7.4465194000558483 $490 -1.2084269454636534 $322 $644 forward 7 unknown #
coedge $-1 $641 $645 $324 $481 forward $474 $-1 #
edge $-1 $483 -60.552385021515548 $643 60.552385021515548 $480 $646 forward 7 unknown #
coedge $-1 $331 $325 $645 $647 reversed $332 $-1 #
vertex $-1 $326 $648 #
straight-curve $-1 60.552385021515548 -12.086614433165918 4.3274731727597509 0 0 1 I I #
edge $-1 $490 2.927811117361431 $488 15.389795514247542 $476 $649 forward 7 unknown #
coedge $-1 $650 $328 $331 $492 reversed $320 $-1 #
coedge $-1 $328 $650 $640 $651 forward $320 $-1 #
vertex $-1 $329 $652 #
straight-curve $-1 0 -24.548598830052029 5.5359001182234042 1 0 0 I I #
vertex $-1 $485 $653 #
straight-curve $-1 0 -12.086614433165918 5.5359001182234042 1 0 0 I I #
edge $-1 $654 -11.773992572815597 $333 -5.5359001182234042 $331 $655 forward 7 unknown #
point $-1 60.552385021515548 -24.548598830052029 5.5359001182234042 #
point $-1 60.552385021515548 -12.086614433165918 5.5359001182234042 #
face $-1 $-1 $511 $47 $-1 $656 reversed single #
loop $-1 $-1 $342 $336 #
plane-surface $-1 -60.552385021515548 0 0 1 0 0 0 0 -1 forward_v I I I I #
coedge $-1 $657 $339 $514 $658 forward $205 $-1 #
coedge $-1 $339 $657 $502 $659 forward $205 $-1 #
edge $-1 $505 -60.552385021515548 $660 60.552385021515548 $339 $661 forward 7 unknown #
coedge $-1 $341 $340 $349 $516 reversed $129 $-1 #
coedge $-1 $662 $342 $499 $659 reversed $496 $-1 #
coedge $-1 $342 $662 $344 $507 forward $496 $-1 #
vertex $-1 $507 $663 #
vertex $-1 $343 $664 #
straight-curve $-1 -60.552385021515548 12.08661443316592 4.3274731727597509 0 0 1 I I #
edge $-1 $512 -15.389795514247542 $504 -2.9278111173614327 $503 $665 forward 7 unknown #
straight-curve $-1 0 12.08661443316592 5.5359001182234042 -1 0 0 I I #
coedge $-1 $666 $346 $662 $667 reversed $511 $-1 #
coedge $-1 $346 $666 $348 $515 forward $511 $-1 #
loop $-1 $-1 $346 $495 #
vertex $-1 $347 $668 #
straight-curve $-1 0 24.548598830052029 5.5359001182234042 -1 0 0 I I #
coedge $-1 $349 $348 $498 $658 reversed $337 $-1 #
edge $-1 $669 -11.773992572815597 $351 -5.5359001182234042 $348 $670 forward 7 unknown #
edge $-1 $660 -7.4465194000558483 $350 -1.2084269454636534 $349 $671 forward 7 unknown #
point $-1 60.552385021515548 12.08661443316592 5.5359001182234042 #
point $-1 60.552385021515548 24.548598830052029 5.5359001182234042 #
loop $-1 $-1 $361 $353 #
plane-surface $-1 0 12.08661443316592 8.6549463455195017 0 1 0 0 0 1 forward_v I I I I #
coedge $-1 $526 $672 $357 $522 forward $354 $-1 #
edge $-1 $524 74.233195335447377 $532 83.594052098875039 $521 $673 forward 7 unknown #
coedge $-1 $364 $358 $672 $674 forward $213 $-1 #
vertex $-1 $674 $675 #
straight-curve $-1 18.358243417142155 5.9620174361893135 11.773992572815601 1 0 0 I I #
coedge $-1 $676 $521 $360 $527 forward $354 $-1 #
edge $-1 $532 1.4498594688505051 $530 7.5744564658271116 $526 $677 forward 7 unknown #
coedge $-1 $529 $361 $364 $534 reversed $519 $-1 #
coedge $-1 $361 $528 $676 $678 reversed $519 $-1 #
vertex $-1 $678 $679 #
straight-curve $-1 -8.6176236823776531 12.08661443316592 54.536477048430385 -0.79863550430605224 0 0.6018150307709319 I I #
vertex $-1 $527 $680 #
straight-curve $-1 -36.166184075669079 5.9620174361893135 75.295806719341329 -0.79863550430605224 0 0.6018150307709319 I I #
edge $-1 $681 -60.552385021515548 $365 -48.130108774243958 $364 $682 forward 7 unknown #
point $-1 48.130108774243958 12.08661443316592 11.773992572815597 #
point $-1 48.130108774243951 5.9620174361893135 11.773992572815601 #
edge $-1 $683 1 $683 0 $368 $-1 forward 7 unknown #
vertex $-1 $369 $684 #
ellipse-curve $-1 53.654009286215967 7.7119022924683449 6.1815690954224509 0.6018150307709319 0 0.79863550430605224 0.39931775215302612 0 -0.30090751538546595 1 I I #
point $-1 54.740564650032766 7.7119022924683449 6.7926566757162918 #
edge $-1 $685 1 $685 0 $372 $-1 forward 7 unknown #
vertex $-1 $373 $686 #
ellipse-curve $-1 53.654009286215967 10.336729576886889 6.1815690954224509 0.6018150307709319 0 0.79863550430605224 0.39931775215302612 0 -0.30090751538546595 1 I I #
point $-1 54.740564650032766 10.336729576886889 6.7926566757162918 #
plane-surface $-1 0 0 11.773992572815597 0 0 1 1 0 0 forward_v I I I I #
coedge $-1 $556 $555 $548 $687 forward $377 $-1 #
coedge $-1 $548 $379 $381 $552 reversed $235 $-1 #
coedge $-1 $379 $547 $546 $687 reversed $235 $-1 #
coedge $-1 $387 $382 $379 $550 forward $388 $-1 #
edge $-1 $553 -17.407589094212412 $688 -14.00901891703846 $549 $689 forward 7 unknown #
coedge $-1 $381 $380 $556 $690 reversed $147 $-1 #
edge $-1 $691 -2.1384085966062714e-014 $553 4.9832527764840862 $547 $692 forward 7 unknown #
vertex $-1 $383 $693 #
straight-curve $-1 -57.153814844341596 -4.0532899148804873 11.773992572815596 0 1 0 I I #
coedge $-1 $546 $384 $387 $560 reversed $377 $-1 #
coedge $-1 $384 $546 $551 $690 forward $377 $-1 #
vertex $-1 $385 $694 #
straight-curve $-1 -60.552385021515548 -10.216983781154228 45.361362829611302 0 0 1 I I #
straight-curve $-1 -60.552385021515533 -10.216983781154228 8.1294721674453285 -0.68199835119979291 0 -0.73135370988377701 I I #
edge $-1 $688 5.9961758783677208 $389 10.216983781154228 $555 $695 forward 7 unknown #
point $-1 -60.552385021515548 -10.216983781154228 11.773992572815597 #
point $-1 -57.153814844341596 -10.216983781154228 11.773992572815597 #
edge $-1 $696 1 $696 0 $392 $-1 forward 7 unknown #
vertex $-1 $393 $697 #
ellipse-curve $-1 -57.921682470533341 -9.0110386660723716 9.0831715560570743 -0.73135370988377701 0 0.68199835119979291 0.34099917559989645 0 0.36567685494188851 1 I I #
point $-1 -58.512100757328689 -9.0110386660723716 10.317409225072357 #
edge $-1 $698 1 $698 0 $396 $-1 forward 7 unknown #
vertex $-1 $397 $699 #
ellipse-curve $-1 -57.921682470533341 -7.2021209934495829 9.0831715560570743 -0.73135370988377701 0 0.68199835119979291 0.34099917559989645 0 0.36567685494188851 1 I I #
point $-1 -58.512100757328689 -7.2021209934495829 10.317409225072357 #
loop $-1 $-1 $408 $400 #
plane-surface $-1 -60.552385021515548 0 0 1 0 0 0 0 -1 forward_v I I I I #
coedge $-1 $574 $403 $405 $578 reversed $257 $-1 #
coedge $-1 $403 $573 $700 $701 reversed $257 $-1 #
coedge $-1 $411 $406 $403 $576 forward $401 $-1 #
edge $-1 $579 -17.407589094212412 $702 -14.00901891703846 $575 $703 forward 7 unknown #
coedge $-1 $405 $404 $582 $704 reversed $161 $-1 #
edge $-1 $705 -2.1384085966062714e-014 $579 4.9832527764840862 $573 $706 forward 7 unknown #
vertex $-1 $407 $707 #
straight-curve $-1 -57.153814844341596 -0.02441843715851455 11.773992572815596 0 1 0 I I #
coedge $-1 $700 $408 $411 $586 reversed $571 $-1 #
coedge $-1 $408 $700 $577 $704 forward $571 $-1 #
vertex $-1 $409 $708 #
straight-curve $-1 -60.552385021515548 -2.1592408257102829 45.361362829611302 0 0 1 I I #
straight-curve $-1 -60.552385021515533 -2.1592408257102829 8.1294721674453285 -0.68199835119979291 0 -0.73135370988377701 I I #
edge $-1 $702 -2.0615670770762247 $412 2.1592408257102829 $581 $709 forward 7 unknown #
point $-1 -60.552385021515548 -2.1592408257102829 11.773992572815597 #
point $-1 -57.153814844341596 -2.1592408257102829 11.773992572815597 #
edge $-1 $710 1 $710 0 $415 $-1 forward 7 unknown #
vertex $-1 $416 $711 #
ellipse-curve $-1 -57.921682470533341 -0.95329571062842433 9.0831715560570743 -0.73135370988377701 0 0.68199835119979291 0.34099917559989645 0 0.36567685494188851 1 I I #
point $-1 -58.512100757328689 -0.95329571062842433 10.317409225072357 #
edge $-1 $712 1 $712 0 $419 $-1 forward 7 unknown #
vertex $-1 $420 $713 #
ellipse-curve $-1 -57.921682470533341 0.85562196199436258 9.0831715560570743 -0.73135370988377701 0 0.68199835119979291 0.34099917559989645 0 0.36567685494188851 1 I I #
point $-1 -58.512100757328689 0.85562196199436258 10.317409225072357 #
loop $-1 $-1 $431 $423 #
plane-surface $-1 -60.552385021515548 0 0 1 0 0 0 0 -1 forward_v I I I I #
coedge $-1 $600 $426 $428 $604 reversed $279 $-1 #
coedge $-1 $426 $599 $714 $715 reversed $279 $-1 #
coedge $-1 $434 $429 $426 $602 forward $424 $-1 #
edge $-1 $605 -17.407589094212412 $716 -14.00901891703846 $601 $717 forward 7 unknown #
coedge $-1 $428 $427 $608 $718 reversed $175 $-1 #
edge $-1 $719 -2.1384085966062714e-014 $605 4.9832527764840862 $599 $720 forward 7 unknown #
vertex $-1 $430 $721 #
straight-curve $-1 -57.153814844341596 4.0044530405634582 11.773992572815596 0 1 0 I I #
coedge $-1 $714 $431 $434 $612 reversed $597 $-1 #
coedge $-1 $431 $714 $603 $718 forward $597 $-1 #
vertex $-1 $432 $722 #
straight-curve $-1 -60.552385021515548 5.8985021297336626 45.361362829611302 0 0 1 I I #
straight-curve $-1 -60.552385021515533 5.8985021297336626 8.1294721674453285 -0.68199835119979291 0 -0.73135370988377701 I I #
edge $-1 $716 -10.11931003252017 $435 -5.8985021297336626 $607 $723 forward 7 unknown #
point $-1 -60.552385021515548 5.8985021297336626 11.773992572815597 #
point $-1 -57.153814844341596 5.8985021297336626 11.773992572815597 #
edge $-1 $724 1 $724 0 $438 $-1 forward 7 unknown #
vertex $-1 $439 $725 #
ellipse-curve $-1 -57.921682470533341 7.1044472448155211 9.0831715560570743 -0.73135370988377701 0 0.68199835119979291 0.34099917559989645 0 0.36567685494188851 1 I I #
point $-1 -58.512100757328689 7.1044472448155211 10.317409225072357 #
edge $-1 $726 1 $726 0 $442 $-1 forward 7 unknown #
vertex $-1 $443 $727 #
ellipse-curve $-1 -57.921682470533341 8.9133649174383081 9.0831715560570743 -0.73135370988377701 0 0.68199835119979291 0.34099917559989645 0 0.36567685494188851 1 I I #
point $-1 -58.512100757328689 8.9133649174383081 10.317409225072357 #
plane-surface $-1 60.552385021515548 0 0 -1 0 0 0 0 1 forward_v I I I I #
coedge $-1 $451 $449 $453 $628 reversed $301 $-1 #
edge $-1 $464 -11.773992572815597 $630 11.773992572815597 $463 $728 forward 7 unknown #
vertex $-1 $628 $729 #
straight-curve $-1 -60.552385021515548 -24.548598830052029 0 0 0 -1 I I #
edge $-1 $626 -24.548598830052029 $630 24.548598830052029 $624 $730 forward 7 unknown #
straight-curve $-1 0 -24.548598830052029 -11.773992572815597 -1 0 0 I I #
vertex $-1 $456 $731 #
straight-curve $-1 0 24.548598830052029 -11.773992572815597 1 0 0 I I #
point $-1 60.552385021515548 24.548598830052029 -11.773992572815597 #
point $-1 60.552385021515548 -24.548598830052029 -11.773992572815597 #
straight-curve $-1 -60.552385021515548 0 11.773992572815597 0 -1 0 I I #
point $-1 -60.552385021515548 24.548598830052029 11.773992572815597 #
point $-1 -60.552385021515548 -24.548598830052029 11.773992572815597 #
straight-curve $-1 60.552385021515548 -24.548598830052029 0 0 0 -1 I I #
straight-curve $-1 60.552385021515548 24.548598830052029 0 0 0 -1 I I #
plane-surface $-1 60.552385021515548 0 0 -1 0 0 0 0 1 forward_v I I I I #
coedge $-1 $477 $476 $487 $651 reversed $197 $-1 #
coedge $-1 $732 $480 $477 $642 forward $474 $-1 #
edge $-1 $643 12.086614433165918 $733 24.548598830052029 $477 $734 forward 7 unknown #
vertex $-1 $642 $735 #
straight-curve $-1 -60.552385021515548 -12.086614433165918 4.3274731727597509 0 0 -1 I I #
coedge $-1 $480 $732 $482 $647 forward $474 $-1 #
straight-curve $-1 0 -12.086614433165918 11.773992572815597 -1 0 0 I I #
edge $-1 $654 -24.548598830052029 $483 -12.086614433165918 $482 $736 forward 7 unknown #
point $-1 60.552385021515548 -12.086614433165918 11.773992572815599 #
straight-curve $-1 -60.552385021515548 -9.1588033158044873 5.5359001182234042 0 -1 0 I I #
coedge $-1 $487 $486 $732 $737 reversed $320 $-1 #
edge $-1 $733 -11.773992572815597 $488 -5.5359001182234042 $640 $738 forward 7 unknown #
point $-1 -60.552385021515548 -24.548598830052029 5.5359001182234042 #
point $-1 -60.552385021515548 -12.086614433165918 5.5359001182234042 #
vertex $-1 $647 $739 #
straight-curve $-1 60.552385021515548 -24.548598830052029 0 0 0 -1 I I #
plane-surface $-1 0 24.548598830052029 0 0 -1 0 0 0 -1 forward_v I I I I #
coedge $-1 $499 $498 $666 $740 forward $205 $-1 #
edge $-1 $660 12.08661443316592 $669 24.548598830052029 $514 $741 forward 7 unknown #
edge $-1 $742 -24.548598830052029 $505 -12.08661443316592 $502 $743 forward 7 unknown #
vertex $-1 $658 $744 #
straight-curve $-1 0 12.08661443316592 11.773992572815597 1 0 0 I I #
coedge $-1 $503 $502 $509 $667 forward $496 $-1 #
point $-1 -60.552385021515548 12.08661443316592 5.5359001182234042 #
point $-1 -60.552385021515548 12.08661443316592 11.773992572815599 #
straight-curve $-1 -60.552385021515548 9.1588033158044873 5.5359001182234042 0 -1 0 I I #
coedge $-1 $510 $509 $657 $740 reversed $511 $-1 #
edge $-1 $742 -11.773992572815597 $512 -5.5359001182234042 $509 $745 forward 7 unknown #
point $-1 -60.552385021515548 24.548598830052029 5.5359001182234042 #
vertex $-1 $658 $746 #
straight-curve $-1 60.552385021515548 24.548598830052029 0 0 0 -1 I I #
straight-curve $-1 60.552385021515548 12.08661443316592 4.3274731727597509 0 0 -1 I I #
coedge $-1 $521 $676 $523 $674 reversed $354 $-1 #
straight-curve $-1 60.552385021515548 5.9620174361893135 86.007187908262978 0 0 -1 I I #
edge $-1 $524 5.9620174361893135 $681 12.08661443316592 $672 $747 forward 7 unknown #
point $-1 60.552385021515548 5.9620174361893135 11.773992572815597 #
coedge $-1 $672 $526 $529 $678 forward $354 $-1 #
straight-curve $-1 60.552385021515541 4.5121579673388084 2.4131358093879385 0 1 0 I I #
edge $-1 $530 -83.594052098875039 $681 -74.233195335447377 $676 $748 forward 7 unknown #
point $-1 60.552385021515548 12.08661443316592 2.4131358093879385 #
point $-1 60.552385021515548 5.9620174361893135 2.4131358093879385 #
vertex $-1 $534 $749 #
straight-curve $-1 0 12.08661443316592 11.773992572815597 -1 0 0 I I #
vertex $-1 $537 $750 #
point $-1 54.053327038368998 7.7119022924683449 5.8806615800369855 #
vertex $-1 $541 $751 #
point $-1 54.053327038368998 10.336729576886889 5.8806615800369855 #
edge $-1 $688 33.587370256795708 $691 37.231890662165988 $546 $752 forward 7 unknown #
vertex $-1 $560 $753 #
straight-curve $-1 -74.561403938554008 -5.9961758783677208 11.773992572815601 -1 0 0 I I #
edge $-1 $691 1.9428859634872335 $557 6.1636938662737411 $556 $754 forward 7 unknown #
vertex $-1 $690 $755 #
straight-curve $-1 -60.552385021515533 -5.9961758783677208 8.1294721674453285 0.68199835119979291 0 0.73135370988377701 I I #
point $-1 -57.153814844341596 -5.9961758783677208 11.773992572815597 #
point $-1 -60.552385021515548 -10.216983781154228 8.1294721674453125 #
straight-curve $-1 -60.552385021515548 0 11.773992572815597 0 -1 0 I I #
vertex $-1 $563 $756 #
point $-1 -57.580683294933451 -9.0110386660723716 9.4488484109989628 #
vertex $-1 $567 $757 #
point $-1 -57.580683294933451 -7.2021209934495829 9.4488484109989628 #
coedge $-1 $582 $581 $574 $701 forward $571 $-1 #
edge $-1 $702 33.587370256795708 $705 37.231890662165988 $700 $758 forward 7 unknown #
vertex $-1 $586 $759 #
straight-curve $-1 -74.561403938554008 2.0615670770762247 11.773992572815601 -1 0 0 I I #
edge $-1 $705 -2.0859855142347392 $583 2.1348223885517683 $582 $760 forward 7 unknown #
vertex $-1 $704 $761 #
straight-curve $-1 -60.552385021515533 2.0615670770762247 8.1294721674453285 0.68199835119979291 0 0.73135370988377701 I I #
point $-1 -57.153814844341596 2.0615670770762247 11.773992572815597 #
point $-1 -60.552385021515548 -2.1592408257102829 8.1294721674453125 #
straight-curve $-1 -60.552385021515548 0 11.773992572815597 0 -1 0 I I #
vertex $-1 $589 $762 #
point $-1 -57.580683294933451 -0.95329571062842433 9.4488484109989628 #
vertex $-1 $593 $763 #
point $-1 -57.580683294933451 0.85562196199436258 9.4488484109989628 #
coedge $-1 $608 $607 $600 $715 forward $597 $-1 #
edge $-1 $716 33.587370256795708 $719 37.231890662165988 $714 $764 forward 7 unknown #
vertex $-1 $612 $765 #
straight-curve $-1 -74.561403938554008 10.11931003252017 11.773992572815601 -1 0 0 I I #
edge $-1 $719 -6.114856991956712 $609 -1.8940490891702044 $608 $766 forward 7 unknown #
vertex $-1 $718 $767 #
straight-curve $-1 -60.552385021515533 10.11931003252017 8.1294721674453285 0.68199835119979291 0 0.73135370988377701 I I #
point $-1 -57.153814844341596 10.11931003252017 11.773992572815597 #
point $-1 -60.552385021515548 5.8985021297336626 8.1294721674453125 #
straight-curve $-1 -60.552385021515548 0 11.773992572815597 0 -1 0 I I #
vertex $-1 $615 $768 #
point $-1 -57.580683294933451 7.1044472448155211 9.4488484109989628 #
vertex $-1 $619 $769 #
point $-1 -57.580683294933451 8.9133649174383081 9.4488484109989628 #
straight-curve $-1 -60.552385021515548 24.548598830052029 0 0 0 -1 I I #
point $-1 -60.552385021515548 -24.548598830052029 -11.773992572815597 #
straight-curve $-1 -60.552385021515548 0 -11.773992572815597 0 1 0 I I #
point $-1 -60.552385021515548 24.548598830052029 -11.773992572815597 #
coedge $-1 $645 $641 $650 $737 forward $474 $-1 #
vertex $-1 $642 $770 #
straight-curve $-1 -60.552385021515548 0 11.773992572815597 0 -1 0 I I #
point $-1 -60.552385021515548 -12.086614433165918 11.773992572815599 #
straight-curve $-1 60.552385021515548 0 11.773992572815597 0 1 0 I I #
edge $-1 $733 -60.552385021515548 $654 60.552385021515548 $650 $771 forward 7 unknown #
straight-curve $-1 -60.552385021515548 -24.548598830052029 0 0 0 -1 I I #
point $-1 60.552385021515548 -24.548598830052029 11.773992572815597 #
edge $-1 $669 -60.552385021515548 $742 60.552385021515548 $666 $772 forward 7 unknown #
straight-curve $-1 60.552385021515548 0 11.773992572815597 0 1 0 I I #
vertex $-1 $740 $773 #
straight-curve $-1 -60.552385021515548 0 11.773992572815597 0 -1 0 I I #
point $-1 60.552385021515548 12.08661443316592 11.773992572815599 #
straight-curve $-1 -60.552385021515548 24.548598830052029 0 0 0 -1 I I #
point $-1 60.552385021515548 24.548598830052029 11.773992572815597 #
straight-curve $-1 60.552385021515548 0 11.773992572815597 0 1 0 I I #
straight-curve $-1 60.552385021515548 12.08661443316592 86.007187908262978 0 0 1 I I #
point $-1 60.552385021515548 12.08661443316592 11.773992572815599 #
point $-1 53.353101770830506 7.7119022924683449 5.7822513432694249 #
point $-1 53.353101770830506 10.336729576886889 5.7822513432694249 #
straight-curve $-1 -60.552385021515548 -5.9961758783677208 45.361362829611302 0 0 -1 I I #
point $-1 -60.552385021515548 -5.9961758783677208 11.773992572815597 #
straight-curve $-1 -60.552385021515548 -4.0532899148804873 8.1294721674453143 0 -1 0 I I #
point $-1 -60.552385021515548 -5.9961758783677208 8.1294721674453125 #
point $-1 -57.556005615591459 -9.0110386660723716 8.7421723804571769 #
point $-1 -57.556005615591459 -7.2021209934495829 8.7421723804571769 #
straight-curve $-1 -60.552385021515548 2.0615670770762247 45.361362829611302 0 0 -1 I I #
point $-1 -60.552385021515548 2.0615670770762247 11.773992572815597 #
straight-curve $-1 -60.552385021515548 -0.02441843715851455 8.1294721674453143 0 -1 0 I I #
point $-1 -60.552385021515548 2.0615670770762247 8.1294721674453125 #
point $-1 -57.556005615591459 -0.95329571062842433 8.7421723804571769 #
point $-1 -57.556005615591459 0.85562196199436258 8.7421723804571769 #
straight-curve $-1 -60.552385021515548 10.11931003252017 45.361362829611302 0 0 -1 I I #
point $-1 -60.552385021515548 10.11931003252017 11.773992572815597 #
straight-curve $-1 -60.552385021515548 4.0044530405634582 8.1294721674453143 0 -1 0 I I #
point $-1 -60.552385021515548 10.11931003252017 8.1294721674453125 #
point $-1 -57.556005615591459 7.1044472448155211 8.7421723804571769 #
point $-1 -57.556005615591459 8.9133649174383081 8.7421723804571769 #
point $-1 -60.552385021515548 -24.548598830052029 11.773992572815597 #
straight-curve $-1 0 -24.548598830052029 11.773992572815597 1 0 0 I I #
straight-curve $-1 0 24.548598830052029 11.773992572815597 -1 0 0 I I #
point $-1 -60.552385021515548 24.548598830052029 11.773992572815597 #
End-of-ACIS-data 