500 0 3 0           
7 Unknown 11 ACIS 5.0 NT 24 Thu Mar 25 16:29:49 1999 
-1 9.9999999999999995e-007 1e-010 
body $-1 $3 $-1 $4 #
body $-1 $5 $-1 $6 #
body $-1 $7 $-1 $8 #
lump $-1 $-1 $9 $0 #
transform $-1 1 0 0 0 1 0 0 0 1 59.155858027893913 24.123790316841021 8.471487107113699 1 rotate no_reflect no_shear #
lump $-1 $-1 $10 $1 #
transform $-1 1 0 0 0 1 0 0 0 1 59.155858027893913 24.123790316841021 8.471487107113699 1 rotate no_reflect no_shear #
lump $-1 $-1 $11 $2 #
transform $-1 1 0 0 0 1 0 0 0 1 59.155858027893913 24.123790316841021 8.471487107113699 1 rotate no_reflect no_shear #
shell $-1 $-1 $-1 $12 $-1 $3 #
shell $-1 $-1 $-1 $13 $-1 $5 #
shell $-1 $-1 $-1 $14 $-1 $7 #
face $-1 $15 $16 $9 $-1 $17 forward single #
face $-1 $18 $19 $10 $-1 $20 forward single #
face $-1 $21 $22 $11 $-1 $23 reversed single #
face $-1 $24 $25 $9 $-1 $26 reversed single #
loop $-1 $-1 $27 $12 #
plane-surface $-1 0 0 8.471487107113699 0 0 1 1 0 0 forward_v I I I I #
face $-1 $28 $29 $10 $-1 $30 reversed single #
loop $-1 $-1 $31 $13 #
plane-surface $-1 0 -19.519302968726748 -0.80612212212980916 0 0 1 1 0 0 forward_v I I I I #
face $-1 $32 $33 $11 $-1 $34 reversed single #
loop $-1 $-1 $35 $14 #
plane-surface $-1 -43.96325794499657 14.313670187960163 0 0 1 0 0 0 1 forward_v I I I I #
face $-1 $36 $37 $9 $-1 $38 reversed single #
loop $-1 $-1 $39 $15 #
plane-surface $-1 0 0 -8.471487107113699 0 0 1 1 0 0 forward_v I I I I #
coedge $-1 $40 $41 $42 $43 forward $16 $-1 #
face $-1 $44 $45 $10 $-1 $46 reversed single #
loop $-1 $-1 $47 $18 #
plane-surface $-1 0 -19.519302968726748 -5.8368932950318939 0 0 1 1 0 0 forward_v I I I I #
coedge $-1 $48 $49 $50 $51 reversed $19 $-1 #
face $-1 $52 $53 $11 $-1 $54 reversed single #
loop $-1 $-1 $55 $21 #
plane-surface $-1 -45.713632076326626 19.218730252400594 0 1 0 0 0 0 -1 forward_v I I I I #
coedge $-1 $56 $57 $58 $59 forward $22 $-1 #
face $-1 $60 $61 $9 $-1 $62 reversed single #
loop $-1 $-1 $63 $24 #
plane-surface $-1 0 -24.123790316841021 0 0 1 0 0 0 1 forward_v I I I I #
coedge $-1 $64 $65 $66 $67 forward $25 $-1 #
coedge $-1 $68 $27 $69 $70 forward $16 $-1 #
coedge $-1 $27 $68 $71 $72 forward $16 $-1 #
coedge $-1 $73 $74 $27 $43 reversed $75 $-1 #
edge $-1 $76 -24.123790316841021 $77 24.123790316841021 $42 $78 forward 7 unknown #
face $-1 $79 $80 $10 $-1 $81 reversed single #
loop $-1 $-1 $82 $28 #
plane-surface $-1 0 -14.914815620612476 -3.3215077085808513 0 -1 0 0 0 -1 forward_v I I I I #
coedge $-1 $83 $84 $85 $86 reversed $29 $-1 #
coedge $-1 $87 $31 $88 $89 forward $19 $-1 #
coedge $-1 $31 $87 $90 $91 reversed $19 $-1 #
coedge $-1 $92 $93 $31 $51 forward $94 $-1 #
edge $-1 $95 5.1551641362491019 $96 14.364138832477646 $50 $97 forward 7 unknown #
face $-1 $98 $99 $11 $-1 $100 reversed single #
loop $-1 $-1 $101 $32 #
plane-surface $-1 -42.212883813666515 19.218730252400594 0 -1 0 0 0 0 1 forward_v I I I I #
coedge $-1 $102 $103 $104 $105 reversed $33 $-1 #
coedge $-1 $106 $35 $107 $108 reversed $22 $-1 #
coedge $-1 $35 $106 $109 $110 reversed $22 $-1 #
coedge $-1 $103 $102 $35 $59 reversed $33 $-1 #
edge $-1 $111 -8.471487107113699 $112 8.471487107113699 $58 $113 forward 7 unknown #
face $-1 $114 $115 $9 $-1 $116 reversed single #
loop $-1 $-1 $117 $36 #
plane-surface $-1 -59.155858027893913 0 0 1 0 0 0 0 -1 forward_v I I I I #
coedge $-1 $118 $71 $119 $120 forward $37 $-1 #
coedge $-1 $121 $39 $118 $122 forward $25 $-1 #
coedge $-1 $39 $121 $123 $124 forward $25 $-1 #
coedge $-1 $74 $73 $39 $67 reversed $75 $-1 #
edge $-1 $125 -24.123790316841021 $126 24.123790316841021 $66 $127 forward 7 unknown #
coedge $-1 $41 $40 $128 $129 forward $16 $-1 #
coedge $-1 $130 $131 $40 $70 reversed $115 $-1 #
edge $-1 $77 -59.155858027893913 $132 59.155858027893913 $69 $133 forward 7 unknown #
coedge $-1 $63 $134 $41 $72 reversed $37 $-1 #
edge $-1 $135 -59.155858027893913 $76 59.155858027893913 $71 $136 forward 7 unknown #
coedge $-1 $66 $42 $134 $137 forward $75 $-1 #
coedge $-1 $42 $66 $130 $138 reversed $75 $-1 #
loop $-1 $-1 $73 $114 #
vertex $-1 $43 $139 #
vertex $-1 $43 $140 #
straight-curve $-1 59.155858027893913 0 8.471487107113699 0 1 0 I I #
face $-1 $141 $142 $10 $-1 $143 reversed single #
loop $-1 $-1 $144 $44 #
plane-surface $-1 -59.155858027893913 0 0 1 0 0 0 0 -1 forward_v I I I I #
coedge $-1 $145 $88 $93 $146 reversed $45 $-1 #
coedge $-1 $147 $47 $148 $149 reversed $29 $-1 #
coedge $-1 $47 $147 $145 $150 forward $29 $-1 #
coedge $-1 $93 $92 $47 $86 forward $94 $-1 #
edge $-1 $151 -14.364138832477646 $152 -5.1551641362491019 $85 $153 forward 7 unknown #
coedge $-1 $49 $48 $144 $154 reversed $19 $-1 #
coedge $-1 $82 $155 $48 $89 reversed $45 $-1 #
edge $-1 $95 -59.155858027893913 $156 59.155858027893913 $88 $157 forward 7 unknown #
coedge $-1 $158 $159 $49 $91 forward $142 $-1 #
edge $-1 $96 -59.155858027893913 $160 59.155858027893913 $90 $161 forward 7 unknown #
coedge $-1 $85 $50 $159 $162 forward $94 $-1 #
coedge $-1 $50 $85 $82 $146 forward $94 $-1 #
loop $-1 $-1 $50 $141 #
vertex $-1 $51 $163 #
vertex $-1 $162 $164 #
straight-curve $-1 59.155858027893913 -9.7596514843633742 -0.80612212212980916 0 -1 0 I I #
face $-1 $165 $166 $11 $-1 $167 reversed single #
loop $-1 $-1 $168 $52 #
plane-surface $-1 0 24.123790316841021 0 0 -1 0 0 0 -1 forward_v I I I I #
coedge $-1 $169 $170 $106 $171 forward $53 $-1 #
coedge $-1 $58 $55 $172 $173 reversed $33 $-1 #
coedge $-1 $55 $58 $174 $175 reversed $33 $-1 #
coedge $-1 $176 $177 $55 $105 forward $99 $-1 #
edge $-1 $178 -8.471487107113699 $179 8.471487107113699 $104 $180 forward 7 unknown #
coedge $-1 $57 $56 $101 $171 reversed $22 $-1 #
coedge $-1 $172 $181 $56 $108 forward $166 $-1 #
edge $-1 $182 20.23125484116823 $112 23.73200310382834 $107 $183 forward 7 unknown #
coedge $-1 $184 $174 $57 $110 forward $185 $-1 #
edge $-1 $111 -23.73200310382834 $186 -20.23125484116823 $109 $187 forward 7 unknown #
vertex $-1 $110 $188 #
vertex $-1 $108 $189 #
straight-curve $-1 -45.713632076326626 14.313670187960163 0 0 0 -1 I I #
face $-1 $-1 $75 $9 $-1 $190 reversed single #
loop $-1 $-1 $130 $60 #
plane-surface $-1 0 24.123790316841021 0 0 -1 0 0 0 -1 forward_v I I I I #
coedge $-1 $191 $128 $131 $192 forward $61 $-1 #
coedge $-1 $134 $63 $64 $122 reversed $37 $-1 #
coedge $-1 $128 $191 $63 $120 reversed $61 $-1 #
edge $-1 $135 -8.471487107113699 $193 8.471487107113699 $119 $194 forward 7 unknown #
coedge $-1 $65 $64 $191 $195 forward $25 $-1 #
edge $-1 $126 -59.155858027893913 $193 59.155858027893913 $118 $196 forward 7 unknown #
coedge $-1 $131 $130 $65 $124 reversed $115 $-1 #
edge $-1 $197 -59.155858027893913 $125 59.155858027893913 $123 $198 forward 7 unknown #
vertex $-1 $67 $199 #
vertex $-1 $137 $200 #
straight-curve $-1 59.155858027893913 0 -8.471487107113699 0 -1 0 I I #
coedge $-1 $117 $119 $68 $129 reversed $61 $-1 #
edge $-1 $132 -24.123790316841021 $135 24.123790316841021 $128 $201 forward 7 unknown #
coedge $-1 $123 $69 $74 $138 forward $115 $-1 #
coedge $-1 $69 $123 $117 $192 reversed $115 $-1 #
vertex $-1 $70 $202 #
straight-curve $-1 0 24.123790316841021 8.471487107113699 -1 0 0 I I #
coedge $-1 $71 $118 $73 $137 reversed $37 $-1 #
vertex $-1 $129 $203 #
straight-curve $-1 0 -24.123790316841021 8.471487107113699 1 0 0 I I #
edge $-1 $76 -8.471487107113699 $126 8.471487107113699 $73 $204 forward 7 unknown #
edge $-1 $77 -8.471487107113699 $125 8.471487107113699 $74 $205 forward 7 unknown #
point $-1 59.155858027893913 -24.123790316841021 8.471487107113699 #
point $-1 59.155858027893913 24.123790316841021 8.471487107113699 #
face $-1 $-1 $94 $10 $-1 $206 reversed single #
loop $-1 $-1 $90 $79 #
plane-surface $-1 0 -24.123790316841021 0 0 1 0 0 0 1 forward_v I I I I #
coedge $-1 $207 $208 $87 $154 forward $80 $-1 #
coedge $-1 $155 $82 $84 $150 reversed $45 $-1 #
edge $-1 $152 -4.1761394407414683 $95 0.8546317321606165 $93 $209 forward 7 unknown #
coedge $-1 $84 $83 $210 $211 reversed $29 $-1 #
coedge $-1 $159 $158 $83 $149 forward $142 $-1 #
edge $-1 $212 -59.155858027893913 $151 59.155858027893913 $148 $213 forward 7 unknown #
edge $-1 $214 -59.155858027893913 $152 59.155858027893913 $145 $215 forward 7 unknown #
vertex $-1 $149 $216 #
vertex $-1 $86 $217 #
straight-curve $-1 59.155858027893913 -9.7596514843633742 -5.8368932950318939 0 1 0 I I #
edge $-1 $160 -14.364138832477646 $156 -5.1551641362491019 $144 $218 forward 7 unknown #
coedge $-1 $88 $145 $207 $219 reversed $45 $-1 #
vertex $-1 $154 $220 #
straight-curve $-1 0 -14.914815620612476 -0.80612212212980916 -1 0 0 I I #
coedge $-1 $148 $90 $208 $221 forward $142 $-1 #
coedge $-1 $90 $148 $92 $162 reversed $142 $-1 #
vertex $-1 $221 $222 #
straight-curve $-1 0 -24.123790316841021 -0.80612212212980916 -1 0 0 I I #
edge $-1 $96 0.80612212212980916 $151 5.8368932950318939 $92 $223 forward 7 unknown #
point $-1 59.155858027893913 -14.914815620612476 -0.80612212212980916 #
point $-1 59.155858027893913 -24.123790316841021 -0.80612212212980916 #
face $-1 $-1 $185 $11 $-1 $224 forward single #
loop $-1 $-1 $181 $98 #
plane-surface $-1 0 0 -8.471487107113699 0 0 1 1 0 0 forward_v I I I I #
coedge $-1 $177 $176 $225 $226 forward $99 $-1 #
coedge $-1 $225 $101 $181 $227 reversed $53 $-1 #
coedge $-1 $101 $225 $184 $228 reversed $53 $-1 #
edge $-1 $186 -8.471487107113699 $182 8.471487107113699 $101 $229 forward 7 unknown #
coedge $-1 $230 $107 $102 $173 forward $166 $-1 #
edge $-1 $112 4.7043050617598663 $178 14.514425190640727 $172 $231 forward 7 unknown #
coedge $-1 $109 $232 $103 $175 forward $185 $-1 #
edge $-1 $179 -14.514425190640727 $111 -4.7043050617598663 $174 $233 forward 7 unknown #
coedge $-1 $168 $104 $232 $234 reversed $99 $-1 #
coedge $-1 $104 $168 $230 $235 reversed $99 $-1 #
vertex $-1 $235 $236 #
vertex $-1 $105 $237 #
straight-curve $-1 -45.713632076326626 24.123790316841021 0 0 0 1 I I #
coedge $-1 $107 $230 $169 $227 forward $166 $-1 #
vertex $-1 $108 $238 #
straight-curve $-1 -21.981628972498285 14.313670187960163 -8.471487107113699 -1 0 0 I I #
coedge $-1 $232 $109 $170 $228 forward $185 $-1 #
loop $-1 $-1 $184 $165 #
vertex $-1 $110 $239 #
straight-curve $-1 -21.981628972498285 14.313670187960163 8.471487107113699 1 0 0 I I #
point $-1 -45.713632076326626 14.313670187960163 8.471487107113699 #
point $-1 -45.713632076326626 14.313670187960163 -8.471487107113699 #
plane-surface $-1 59.155858027893913 0 0 -1 0 0 0 0 1 forward_v I I I I #
coedge $-1 $119 $117 $121 $195 reversed $61 $-1 #
edge $-1 $132 -8.471487107113699 $197 8.471487107113699 $131 $240 forward 7 unknown #
vertex $-1 $195 $241 #
straight-curve $-1 -59.155858027893913 -24.123790316841021 0 0 0 -1 I I #
edge $-1 $193 -24.123790316841021 $197 24.123790316841021 $191 $242 forward 7 unknown #
straight-curve $-1 0 -24.123790316841021 -8.471487107113699 -1 0 0 I I #
vertex $-1 $124 $243 #
straight-curve $-1 0 24.123790316841021 -8.471487107113699 1 0 0 I I #
point $-1 59.155858027893913 24.123790316841021 -8.471487107113699 #
point $-1 59.155858027893913 -24.123790316841021 -8.471487107113699 #
straight-curve $-1 -59.155858027893913 0 8.471487107113699 0 -1 0 I I #
point $-1 -59.155858027893913 24.123790316841021 8.471487107113699 #
point $-1 -59.155858027893913 -24.123790316841021 8.471487107113699 #
straight-curve $-1 59.155858027893913 -24.123790316841021 0 0 0 -1 I I #
straight-curve $-1 59.155858027893913 24.123790316841021 0 0 0 -1 I I #
plane-surface $-1 59.155858027893913 0 0 -1 0 0 0 0 1 forward_v I I I I #
coedge $-1 $210 $144 $155 $219 forward $80 $-1 #
coedge $-1 $144 $210 $158 $221 reversed $80 $-1 #
straight-curve $-1 59.155858027893913 -14.914815620612476 -1.6607538542904257 0 0 1 I I #
coedge $-1 $208 $207 $147 $211 forward $80 $-1 #
edge $-1 $214 5.1551641362491019 $212 14.364138832477646 $210 $244 forward 7 unknown #
vertex $-1 $149 $245 #
straight-curve $-1 0 -24.123790316841021 -5.8368932950318939 1 0 0 I I #
vertex $-1 $211 $246 #
straight-curve $-1 0 -14.914815620612476 -5.8368932950318939 1 0 0 I I #
point $-1 59.155858027893913 -24.123790316841021 -5.8368932950318939 #
point $-1 59.155858027893913 -14.914815620612476 -5.8368932950318939 #
straight-curve $-1 -59.155858027893913 -9.7596514843633742 -0.80612212212980916 0 1 0 I I #
edge $-1 $156 -0.8546317321606165 $214 4.1761394407414683 $207 $247 forward 7 unknown #
point $-1 -59.155858027893913 -14.914815620612476 -0.80612212212980916 #
edge $-1 $160 0.80612212212980916 $212 5.8368932950318939 $208 $248 forward 7 unknown #
point $-1 -59.155858027893913 -24.123790316841021 -0.80612212212980916 #
straight-curve $-1 59.155858027893913 -24.123790316841021 0 0 0 -1 I I #
plane-surface $-1 0 0 8.471487107113699 0 0 1 1 0 0 forward_v I I I I #
coedge $-1 $170 $169 $168 $226 reversed $53 $-1 #
edge $-1 $249 -8.471487107113699 $250 8.471487107113699 $168 $251 forward 7 unknown #
edge $-1 $250 -14.514425190640727 $182 -4.7043050617598663 $181 $252 forward 7 unknown #
edge $-1 $186 4.7043050617598663 $249 14.514425190640727 $184 $253 forward 7 unknown #
straight-curve $-1 -42.212883813666515 14.313670187960163 0 0 0 -1 I I #
coedge $-1 $181 $172 $177 $235 forward $166 $-1 #
straight-curve $-1 -45.713632076326626 9.6093651262002968 -8.471487107113699 0 1 0 I I #
coedge $-1 $174 $184 $176 $234 forward $185 $-1 #
straight-curve $-1 -45.713632076326626 9.6093651262002968 8.471487107113699 0 -1 0 I I #
edge $-1 $249 42.212883813666515 $179 45.713632076326626 $176 $254 forward 7 unknown #
edge $-1 $178 -45.713632076326626 $250 -42.212883813666515 $177 $255 forward 7 unknown #
point $-1 -45.713632076326626 24.123790316841024 -8.471487107113699 #
point $-1 -45.713632076326626 24.123790316841024 8.471487107113699 #
point $-1 -42.212883813666515 14.313670187960163 -8.471487107113699 #
point $-1 -42.212883813666515 14.313670187960163 8.471487107113699 #
straight-curve $-1 -59.155858027893913 24.123790316841021 0 0 0 -1 I I #
point $-1 -59.155858027893913 -24.123790316841021 -8.471487107113699 #
straight-curve $-1 -59.155858027893913 0 -8.471487107113699 0 1 0 I I #
point $-1 -59.155858027893913 24.123790316841021 -8.471487107113699 #
straight-curve $-1 -59.155858027893913 -9.7596514843633742 -5.8368932950318939 0 -1 0 I I #
point $-1 -59.155858027893913 -24.123790316841021 -5.8368932950318939 #
point $-1 -59.155858027893913 -14.914815620612476 -5.8368932950318939 #
straight-curve $-1 -59.155858027893913 -14.914815620612476 -1.6607538542904257 0 0 -1 I I #
straight-curve $-1 -59.155858027893913 -24.123790316841021 0 0 0 -1 I I #
vertex $-1 $234 $256 #
vertex $-1 $226 $257 #
straight-curve $-1 -42.212883813666515 24.123790316841021 0 0 0 -1 I I #
straight-curve $-1 -42.212883813666515 9.6093651262002968 -8.471487107113699 0 -1 0 I I #
straight-curve $-1 -42.212883813666515 9.6093651262002968 8.471487107113699 0 1 0 I I #
straight-curve $-1 0 24.123790316841021 8.471487107113699 -1 0 0 I I #
straight-curve $-1 0 24.123790316841021 -8.471487107113699 1 0 0 I I #
point $-1 -42.212883813666515 24.123790316841024 8.471487107113699 #
point $-1 -42.212883813666515 24.123790316841024 -8.471487107113699 #
End-of-ACIS-data 