500 0 15 0           
7 Unknown 11 ACIS 5.0 NT 24 Fri Mar 26 19:14:33 1999 
-1 9.9999999999999995e-007 1e-010 
body $-1 $15 $-1 $16 #
body $-1 $17 $-1 $18 #
body $-1 $19 $-1 $20 #
body $-1 $21 $-1 $22 #
body $-1 $23 $-1 $24 #
body $-1 $25 $-1 $26 #
body $-1 $27 $-1 $28 #
body $-1 $29 $-1 $30 #
body $-1 $31 $-1 $32 #
body $-1 $33 $-1 $34 #
body $-1 $35 $-1 $36 #
body $-1 $37 $-1 $38 #
body $-1 $39 $-1 $40 #
body $-1 $41 $-1 $42 #
body $-1 $43 $-1 $44 #
lump $-1 $-1 $45 $0 #
transform $-1 1 0 0 0 1 0 0 0 1 71.31199072237311 41.376493655621736 18.602059347466231 1 rotate no_reflect no_shear #
lump $-1 $-1 $46 $1 #
transform $-1 1 0 0 0 1 0 0 0 1 71.31199072237311 41.376493655621736 18.602059347466231 1 rotate no_reflect no_shear #
lump $-1 $-1 $47 $2 #
transform $-1 1 0 0 0 1 0 0 0 1 71.31199072237311 41.376493655621736 18.602059347466231 1 rotate no_reflect no_shear #
lump $-1 $-1 $48 $3 #
transform $-1 1 0 0 0 1 0 0 0 1 71.31199072237311 41.376493655621736 18.602059347466231 1 rotate no_reflect no_shear #
lump $-1 $-1 $49 $4 #
transform $-1 1 0 0 0 1 0 0 0 1 71.31199072237311 41.376493655621736 18.602059347466231 1 rotate no_reflect no_shear #
lump $-1 $-1 $50 $5 #
transform $-1 1 0 0 0 1 0 0 0 1 71.31199072237311 41.376493655621736 18.602059347466231 1 rotate no_reflect no_shear #
lump $-1 $-1 $51 $6 #
transform $-1 1 0 0 0 1 0 0 0 1 71.31199072237311 41.376493655621736 18.602059347466231 1 rotate no_reflect no_shear #
lump $-1 $-1 $52 $7 #
transform $-1 1 0 0 0 1 0 0 0 1 71.31199072237311 41.376493655621736 18.602059347466231 1 rotate no_reflect no_shear #
lump $-1 $-1 $53 $8 #
transform $-1 1 0 0 0 1 0 0 0 1 71.31199072237311 41.376493655621736 18.602059347466231 1 rotate no_reflect no_shear #
lump $-1 $-1 $54 $9 #
transform $-1 1 0 0 0 1 0 0 0 1 71.31199072237311 41.376493655621736 18.602059347466231 1 rotate no_reflect no_shear #
lump $-1 $-1 $55 $10 #
transform $-1 1 0 0 0 1 0 0 0 1 71.31199072237311 41.376493655621736 18.602059347466231 1 rotate no_reflect no_shear #
lump $-1 $-1 $56 $11 #
transform $-1 1 0 0 0 1 0 0 0 1 71.31199072237311 41.376493655621736 18.602059347466231 1 rotate no_reflect no_shear #
lump $-1 $-1 $57 $12 #
transform $-1 1 0 0 0 1 0 0 0 1 71.31199072237311 41.376493655621736 18.602059347466231 1 rotate no_reflect no_shear #
lump $-1 $-1 $58 $13 #
transform $-1 1 0 0 0 1 0 0 0 1 71.31199072237311 41.376493655621736 18.602059347466231 1 rotate no_reflect no_shear #
lump $-1 $-1 $59 $14 #
transform $-1 1 0 0 0 1 0 0 0 1 71.31199072237311 41.376493655621736 18.602059347466231 1 rotate no_reflect no_shear #
shell $-1 $-1 $-1 $60 $-1 $15 #
shell $-1 $-1 $-1 $61 $-1 $17 #
shell $-1 $-1 $-1 $62 $-1 $19 #
shell $-1 $-1 $-1 $63 $-1 $21 #
shell $-1 $-1 $-1 $64 $-1 $23 #
shell $-1 $-1 $-1 $65 $-1 $25 #
shell $-1 $-1 $-1 $66 $-1 $27 #
shell $-1 $-1 $-1 $67 $-1 $29 #
shell $-1 $-1 $-1 $68 $-1 $31 #
shell $-1 $-1 $-1 $69 $-1 $33 #
shell $-1 $-1 $-1 $70 $-1 $35 #
shell $-1 $-1 $-1 $71 $-1 $37 #
shell $-1 $-1 $-1 $72 $-1 $39 #
shell $-1 $-1 $-1 $73 $-1 $41 #
shell $-1 $-1 $-1 $74 $-1 $43 #
face $-1 $75 $76 $45 $-1 $77 forward single #
face $-1 $78 $79 $46 $-1 $80 forward single #
face $-1 $81 $82 $47 $-1 $83 forward single #
face $-1 $84 $85 $48 $-1 $86 reversed single #
face $-1 $87 $88 $49 $-1 $89 forward single #
face $-1 $90 $91 $50 $-1 $92 forward single #
face $-1 $93 $94 $51 $-1 $95 reversed single #
face $-1 $96 $97 $52 $-1 $98 forward single #
face $-1 $99 $100 $53 $-1 $101 forward single #
face $-1 $102 $103 $54 $-1 $104 reversed single #
face $-1 $105 $106 $55 $-1 $107 forward single #
face $-1 $108 $109 $56 $-1 $110 forward single #
face $-1 $111 $112 $57 $-1 $113 reversed single #
face $-1 $114 $115 $58 $-1 $116 forward single #
face $-1 $117 $118 $59 $-1 $119 forward single #
face $-1 $120 $121 $45 $-1 $122 reversed single #
loop $-1 $-1 $123 $60 #
plane-surface $-1 0 0 18.602059347466231 0 0 1 1 0 0 forward_v I I I I #
face $-1 $124 $125 $46 $-1 $126 reversed single #
loop $-1 $-1 $127 $61 #
plane-surface $-1 -60.865912809800342 0 4.9721473798977787 0 0 1 1 0 0 forward_v I I I I #
face $-1 $128 $129 $47 $-1 $130 reversed single #
loop $-1 $-1 $131 $62 #
plane-surface $-1 71.31199072237311 0 0 -1 0 0 0 0 1 forward_v I I I I #
face $-1 $132 $133 $48 $-1 $134 reversed single #
loop $-1 $-1 $135 $63 #
plane-surface $-1 -50.419834897227567 -166.1182396253937 83.984740810930901 1 0 0 0 0.87461971476443456 -0.48480960649040278 forward_v I I I I #
face $-1 $136 $137 $49 $-1 $138 forward single #
loop $-1 $139 $140 $64 #
cone-surface $-1 -45.029253520960282 -39.266107966814189 16.128931428081039 0 0.87461971476443456 -0.48480960649040278 1 0 0 1 I I 0 1 1 forward I I I I #
face $-1 $141 $142 $50 $-1 $143 forward single #
loop $-1 $144 $145 $65 #
cone-surface $-1 -36.943381456559344 -39.266107966814189 16.128931428081039 0 0.87461971476443456 -0.48480960649040278 1 0 0 1 I I 0 1 1 forward I I I I #
face $-1 $146 $147 $51 $-1 $148 reversed single #
loop $-1 $-1 $149 $66 #
plane-surface $-1 -0.49645988034787969 -166.1182396253937 83.984740810930901 1 0 0 0 0.87461971476443456 -0.48480960649040278 forward_v I I I I #
face $-1 $150 $151 $52 $-1 $152 forward single #
loop $-1 $153 $154 $67 #
cone-surface $-1 4.894121495919407 -39.266107966814189 16.128931428081039 0 0.87461971476443456 -0.48480960649040278 1 0 0 1 I I 0 1 1 forward I I I I #
face $-1 $155 $156 $53 $-1 $157 forward single #
loop $-1 $158 $159 $68 #
cone-surface $-1 12.979993560320338 -39.266107966814189 16.128931428081039 0 0.87461971476443456 -0.48480960649040278 1 0 0 1 I I 0 1 1 forward I I I I #
face $-1 $160 $161 $54 $-1 $162 reversed single #
loop $-1 $-1 $163 $69 #
plane-surface $-1 -50.419834897227567 125.99879641112443 156.36213496899555 1 0 0 0 -0.87461971476443456 -0.48480960649040278 forward_v I I I I #
face $-1 $164 $165 $55 $-1 $166 forward single #
loop $-1 $167 $168 $70 #
cone-surface $-1 -45.029253520960282 39.266107966814204 16.128931428081053 0 -0.87461971476443456 -0.48480960649040278 1 0 0 1 I I 0 1 1 forward I I I I #
face $-1 $169 $170 $56 $-1 $171 forward single #
loop $-1 $172 $173 $71 #
cone-surface $-1 -36.943381456559344 39.266107966814204 16.128931428081053 0 -0.87461971476443456 -0.48480960649040278 1 0 0 1 I I 0 1 1 forward I I I I #
face $-1 $174 $175 $57 $-1 $176 reversed single #
loop $-1 $-1 $177 $72 #
plane-surface $-1 -0.49645988034787969 125.99879641112443 156.36213496899555 1 0 0 0 -0.87461971476443456 -0.48480960649040278 forward_v I I I I #
face $-1 $178 $179 $58 $-1 $180 forward single #
loop $-1 $181 $182 $73 #
cone-surface $-1 4.894121495919407 39.266107966814204 16.128931428081053 0 -0.87461971476443456 -0.48480960649040278 1 0 0 1 I I 0 1 1 forward I I I I #
face $-1 $183 $184 $59 $-1 $185 forward single #
loop $-1 $186 $187 $74 #
cone-surface $-1 12.979993560320338 39.266107966814204 16.128931428081053 0 -0.87461971476443456 -0.48480960649040278 1 0 0 1 I I 0 1 1 forward I I I I #
face $-1 $188 $189 $45 $-1 $190 reversed single #
loop $-1 $-1 $191 $75 #
plane-surface $-1 0 0 -18.602059347466231 0 0 1 1 0 0 forward_v I I I I #
coedge $-1 $192 $193 $194 $195 forward $76 $-1 #
face $-1 $196 $197 $46 $-1 $198 reversed single #
loop $-1 $-1 $199 $78 #
plane-surface $-1 -60.865912809800342 0 -1.8935890420019081 0 0 1 1 0 0 forward_v I I I I #
coedge $-1 $200 $201 $202 $203 forward $79 $-1 #
face $-1 $204 $205 $47 $-1 $206 forward single #
loop $-1 $-1 $207 $81 #
plane-surface $-1 0 41.376493655621736 0 0 -1 0 0 0 -1 forward_v I I I I #
coedge $-1 $208 $209 $210 $211 forward $82 $-1 #
face $-1 $212 $213 $48 $-1 $214 reversed single #
loop $-1 $-1 $215 $84 #
plane-surface $-1 -40.986317488759809 -41.376493655621758 14.839264490608983 0 -0.87461971476443456 0.48480960649040278 1 0 0 forward_v I I I I #
coedge $-1 $216 $217 $218 $219 reversed $85 $-1 #
face $-1 $-1 $220 $49 $-1 $221 forward single #
loop $-1 $222 $223 $87 #
cone-surface $-1 -45.029253520960282 -37.76128800590002 15.294796133879267 0 0.87461971476443456 -0.48480960649040278 0.5 0 0 1 I I -0.70710678118654746 0.70710678118654746 0.5 forward I I I I #
loop $-1 $-1 $224 $64 #
coedge $-1 $140 $140 $225 $226 reversed $88 $-1 #
face $-1 $-1 $227 $50 $-1 $228 forward single #
loop $-1 $229 $230 $90 #
cone-surface $-1 -36.943381456559344 -37.76128800590002 15.294796133879267 0 0.87461971476443456 -0.48480960649040278 0.5 0 0 1 I I -0.70710678118654746 0.70710678118654746 0.5 forward I I I I #
loop $-1 $-1 $231 $65 #
coedge $-1 $145 $145 $232 $233 reversed $91 $-1 #
face $-1 $234 $235 $51 $-1 $236 reversed single #
loop $-1 $-1 $237 $93 #
plane-surface $-1 8.9370575281198796 -41.376493655621758 14.839264490608983 0 -0.87461971476443456 0.48480960649040278 1 0 0 forward_v I I I I #
coedge $-1 $238 $239 $240 $241 reversed $94 $-1 #
face $-1 $-1 $242 $52 $-1 $243 forward single #
loop $-1 $244 $245 $96 #
cone-surface $-1 4.894121495919407 -37.76128800590002 15.294796133879267 0 0.87461971476443456 -0.48480960649040278 0.5 0 0 1 I I -0.70710678118654746 0.70710678118654746 0.5 forward I I I I #
loop $-1 $-1 $246 $67 #
coedge $-1 $154 $154 $247 $248 reversed $97 $-1 #
face $-1 $-1 $249 $53 $-1 $250 forward single #
loop $-1 $251 $252 $99 #
cone-surface $-1 12.979993560320338 -37.76128800590002 15.294796133879267 0 0.87461971476443456 -0.48480960649040278 0.5 0 0 1 I I -0.70710678118654746 0.70710678118654746 0.5 forward I I I I #
loop $-1 $-1 $253 $68 #
coedge $-1 $159 $159 $254 $255 reversed $100 $-1 #
face $-1 $256 $257 $54 $-1 $258 reversed single #
loop $-1 $-1 $259 $102 #
plane-surface $-1 -40.986317488759809 1.2570504413524901 87.216658648673629 0 0.87461971476443456 0.48480960649040278 1 0 0 forward_v I I I I #
coedge $-1 $260 $261 $262 $263 reversed $103 $-1 #
face $-1 $-1 $264 $55 $-1 $265 forward single #
loop $-1 $266 $267 $105 #
cone-surface $-1 -45.029253520960282 37.761288005900035 15.294796133879281 0 -0.87461971476443456 -0.48480960649040278 0.5 0 0 1 I I -0.70710678118654746 0.70710678118654746 0.5 forward I I I I #
loop $-1 $-1 $268 $70 #
coedge $-1 $168 $168 $269 $270 reversed $106 $-1 #
face $-1 $-1 $271 $56 $-1 $272 forward single #
loop $-1 $273 $274 $108 #
cone-surface $-1 -36.943381456559344 37.761288005900035 15.294796133879281 0 -0.87461971476443456 -0.48480960649040278 0.5 0 0 1 I I -0.70710678118654746 0.70710678118654746 0.5 forward I I I I #
loop $-1 $-1 $275 $71 #
coedge $-1 $173 $173 $276 $277 reversed $109 $-1 #
face $-1 $278 $279 $57 $-1 $280 reversed single #
loop $-1 $-1 $281 $111 #
plane-surface $-1 8.9370575281198796 1.2570504413524901 87.216658648673629 0 0.87461971476443456 0.48480960649040278 1 0 0 forward_v I I I I #
coedge $-1 $282 $283 $284 $285 reversed $112 $-1 #
face $-1 $-1 $286 $58 $-1 $287 forward single #
loop $-1 $288 $289 $114 #
cone-surface $-1 4.894121495919407 37.761288005900035 15.294796133879281 0 -0.87461971476443456 -0.48480960649040278 0.5 0 0 1 I I -0.70710678118654746 0.70710678118654746 0.5 forward I I I I #
loop $-1 $-1 $290 $73 #
coedge $-1 $182 $182 $291 $292 reversed $115 $-1 #
face $-1 $-1 $293 $59 $-1 $294 forward single #
loop $-1 $295 $296 $117 #
cone-surface $-1 12.979993560320338 37.761288005900035 15.294796133879281 0 -0.87461971476443456 -0.48480960649040278 0.5 0 0 1 I I -0.70710678118654746 0.70710678118654746 0.5 forward I I I I #
loop $-1 $-1 $297 $74 #
coedge $-1 $187 $187 $298 $299 reversed $118 $-1 #
face $-1 $300 $301 $45 $-1 $302 reversed single #
loop $-1 $-1 $303 $120 #
plane-surface $-1 0 -41.376493655621736 0 0 1 0 0 0 1 forward_v I I I I #
coedge $-1 $304 $305 $306 $307 forward $121 $-1 #
coedge $-1 $308 $123 $309 $310 forward $76 $-1 #
coedge $-1 $123 $308 $311 $312 forward $76 $-1 #
coedge $-1 $313 $314 $123 $195 reversed $315 $-1 #
edge $-1 $316 -41.376493655621736 $317 41.376493655621736 $194 $318 forward 7 unknown #
face $-1 $319 $320 $46 $-1 $321 reversed single #
loop $-1 $-1 $322 $124 #
plane-surface $-1 -50.419834897227574 0 1.5392791689479353 -1 0 0 0 0 1 forward_v I I I I #
coedge $-1 $323 $324 $325 $326 forward $125 $-1 #
coedge $-1 $327 $127 $328 $329 reversed $79 $-1 #
coedge $-1 $127 $327 $330 $331 reversed $79 $-1 #
coedge $-1 $322 $332 $127 $203 reversed $197 $-1 #
edge $-1 $333 -41.376493655621736 $334 41.376493655621736 $202 $335 forward 7 unknown #
face $-1 $336 $337 $47 $-1 $338 reversed single #
loop $-1 $-1 $339 $128 #
plane-surface $-1 82.254528515293771 0 -10.949908473971188 0 0 1 1 0 0 forward_v I I I I #
coedge $-1 $340 $341 $209 $342 forward $129 $-1 #
coedge $-1 $343 $131 $344 $345 reversed $82 $-1 #
coedge $-1 $131 $343 $207 $342 reversed $82 $-1 #
coedge $-1 $346 $347 $131 $211 reversed $337 $-1 #
edge $-1 $348 -41.376493655621736 $349 41.376493655621736 $210 $350 forward 7 unknown #
face $-1 $351 $352 $48 $-1 $353 forward single #
loop $-1 $-1 $354 $132 #
plane-surface $-1 -31.552800080292052 -166.1182396253937 83.984740810930901 -1 0 0 0 -0.87461971476443456 0.48480960649040278 forward_v I I I I #
coedge $-1 $355 $356 $357 $358 reversed $133 $-1 #
coedge $-1 $217 $135 $359 $360 reversed $85 $-1 #
coedge $-1 $135 $216 $355 $361 reversed $85 $-1 #
coedge $-1 $357 $362 $135 $219 forward $363 $-1 #
edge $-1 $364 23.39031105799922 $365 27.153105914856429 $218 $366 forward 7 unknown #
loop $-1 $-1 $225 $136 #
plane-surface $-1 -40.986317488759809 -41.376493655621758 14.839264490608983 0 -0.87461971476443456 0.48480960649040278 1 0 0 forward_v I I I I #
loop $-1 $-1 $367 $87 #
coedge $-1 $223 $223 $224 $368 reversed $137 $-1 #
coedge $-1 $224 $224 $223 $368 forward $139 $-1 #
coedge $-1 $225 $225 $140 $226 forward $220 $-1 #
edge $-1 $369 6.7501203358497052e-016 $369 6.2831853071796013 $225 $370 forward 7 unknown #
loop $-1 $-1 $232 $141 #
plane-surface $-1 -40.986317488759809 -41.376493655621758 14.839264490608983 0 -0.87461971476443456 0.48480960649040278 1 0 0 forward_v I I I I #
loop $-1 $-1 $371 $90 #
coedge $-1 $230 $230 $231 $372 reversed $142 $-1 #
coedge $-1 $231 $231 $230 $372 forward $144 $-1 #
coedge $-1 $232 $232 $145 $233 forward $227 $-1 #
edge $-1 $373 6.7501203358497052e-016 $373 6.2831853071796013 $232 $374 forward 7 unknown #
face $-1 $375 $376 $51 $-1 $377 reversed single #
loop $-1 $-1 $378 $146 #
plane-surface $-1 18.370574936587637 -166.1182396253937 83.984740810930901 -1 0 0 0 -0.87461971476443456 0.48480960649040278 forward_v I I I I #
coedge $-1 $379 $380 $381 $382 reversed $147 $-1 #
coedge $-1 $239 $149 $383 $384 reversed $94 $-1 #
coedge $-1 $149 $238 $379 $385 reversed $94 $-1 #
coedge $-1 $381 $386 $149 $241 forward $376 $-1 #
edge $-1 $387 23.39031105799922 $388 27.153105914856429 $240 $389 forward 7 unknown #
loop $-1 $-1 $247 $150 #
plane-surface $-1 8.9370575281198796 -41.376493655621758 14.839264490608983 0 -0.87461971476443456 0.48480960649040278 1 0 0 forward_v I I I I #
loop $-1 $-1 $390 $96 #
coedge $-1 $245 $245 $246 $391 reversed $151 $-1 #
coedge $-1 $246 $246 $245 $391 forward $153 $-1 #
coedge $-1 $247 $247 $154 $248 forward $242 $-1 #
edge $-1 $392 6.7501203358497052e-016 $392 6.2831853071796013 $247 $393 forward 7 unknown #
loop $-1 $-1 $254 $155 #
plane-surface $-1 8.9370575281198796 -41.376493655621758 14.839264490608983 0 -0.87461971476443456 0.48480960649040278 1 0 0 forward_v I I I I #
loop $-1 $-1 $394 $99 #
coedge $-1 $252 $252 $253 $395 reversed $156 $-1 #
coedge $-1 $253 $253 $252 $395 forward $158 $-1 #
coedge $-1 $254 $254 $159 $255 forward $249 $-1 #
edge $-1 $396 6.7501203358497052e-016 $396 6.2831853071796013 $254 $397 forward 7 unknown #
face $-1 $398 $399 $54 $-1 $400 reversed single #
loop $-1 $-1 $401 $160 #
plane-surface $-1 -31.552800080292052 125.99879641112443 156.36213496899555 -1 0 0 0 0.87461971476443456 0.48480960649040278 forward_v I I I I #
coedge $-1 $402 $403 $404 $405 reversed $161 $-1 #
coedge $-1 $261 $163 $406 $407 reversed $103 $-1 #
coedge $-1 $163 $260 $402 $408 reversed $103 $-1 #
coedge $-1 $404 $409 $163 $263 forward $410 $-1 #
edge $-1 $411 21.622904549940479 $412 23.708655720491684 $262 $413 forward 7 unknown #
loop $-1 $-1 $269 $164 #
plane-surface $-1 -40.986317488759809 1.2570504413524901 87.216658648673629 0 0.87461971476443456 0.48480960649040278 1 0 0 forward_v I I I I #
loop $-1 $-1 $414 $105 #
coedge $-1 $267 $267 $268 $415 reversed $165 $-1 #
coedge $-1 $268 $268 $267 $415 forward $167 $-1 #
coedge $-1 $269 $269 $168 $270 forward $264 $-1 #
edge $-1 $416 1.350024067169941e-015 $416 6.2831853071796022 $269 $417 forward 7 unknown #
loop $-1 $-1 $276 $169 #
plane-surface $-1 -40.986317488759809 1.2570504413524901 87.216658648673629 0 0.87461971476443456 0.48480960649040278 1 0 0 forward_v I I I I #
loop $-1 $-1 $418 $108 #
coedge $-1 $274 $274 $275 $419 reversed $170 $-1 #
coedge $-1 $275 $275 $274 $419 forward $172 $-1 #
coedge $-1 $276 $276 $173 $277 forward $271 $-1 #
edge $-1 $420 1.350024067169941e-015 $420 6.2831853071796022 $276 $421 forward 7 unknown #
face $-1 $422 $423 $57 $-1 $424 reversed single #
loop $-1 $-1 $425 $174 #
plane-surface $-1 18.370574936587637 125.99879641112443 156.36213496899555 -1 0 0 0 0.87461971476443456 0.48480960649040278 forward_v I I I I #
coedge $-1 $426 $427 $428 $429 reversed $175 $-1 #
coedge $-1 $283 $177 $430 $431 reversed $112 $-1 #
coedge $-1 $177 $282 $426 $432 reversed $112 $-1 #
coedge $-1 $428 $433 $177 $285 forward $434 $-1 #
edge $-1 $435 21.622904549940479 $436 23.708655720491684 $284 $437 forward 7 unknown #
loop $-1 $-1 $291 $178 #
plane-surface $-1 8.9370575281198796 1.2570504413524901 87.216658648673629 0 0.87461971476443456 0.48480960649040278 1 0 0 forward_v I I I I #
loop $-1 $-1 $438 $114 #
coedge $-1 $289 $289 $290 $439 reversed $179 $-1 #
coedge $-1 $290 $290 $289 $439 forward $181 $-1 #
coedge $-1 $291 $291 $182 $292 forward $286 $-1 #
edge $-1 $440 1.350024067169941e-015 $440 6.2831853071796022 $291 $441 forward 7 unknown #
loop $-1 $-1 $298 $183 #
plane-surface $-1 8.9370575281198796 1.2570504413524901 87.216658648673629 0 0.87461971476443456 0.48480960649040278 1 0 0 forward_v I I I I #
loop $-1 $-1 $442 $117 #
coedge $-1 $296 $296 $297 $443 reversed $184 $-1 #
coedge $-1 $297 $297 $296 $443 forward $186 $-1 #
coedge $-1 $298 $298 $187 $299 forward $293 $-1 #
edge $-1 $444 1.350024067169941e-015 $444 6.2831853071796022 $298 $445 forward 7 unknown #
face $-1 $446 $447 $45 $-1 $448 reversed single #
loop $-1 $-1 $449 $188 #
plane-surface $-1 -71.31199072237311 0 0 1 0 0 0 0 -1 forward_v I I I I #
coedge $-1 $450 $311 $451 $452 forward $189 $-1 #
coedge $-1 $453 $191 $450 $454 forward $121 $-1 #
coedge $-1 $191 $453 $455 $456 forward $121 $-1 #
coedge $-1 $314 $313 $191 $307 reversed $315 $-1 #
edge $-1 $457 -41.376493655621736 $458 41.376493655621736 $306 $459 forward 7 unknown #
coedge $-1 $193 $192 $460 $461 forward $76 $-1 #
coedge $-1 $462 $463 $192 $310 reversed $447 $-1 #
edge $-1 $317 -71.31199072237311 $464 71.31199072237311 $309 $465 forward 7 unknown #
coedge $-1 $303 $466 $193 $312 reversed $189 $-1 #
edge $-1 $467 -71.31199072237311 $316 71.31199072237311 $311 $468 forward 7 unknown #
coedge $-1 $306 $194 $466 $469 forward $315 $-1 #
coedge $-1 $194 $306 $462 $470 reversed $315 $-1 #
loop $-1 $-1 $313 $446 #
vertex $-1 $195 $471 #
vertex $-1 $195 $472 #
straight-curve $-1 71.31199072237311 0 18.602059347466231 0 1 0 I I #
face $-1 $473 $474 $46 $-1 $475 reversed single #
loop $-1 $-1 $476 $196 #
plane-surface $-1 0 -41.376493655621736 0 0 1 0 0 0 1 forward_v I I I I #
coedge $-1 $325 $202 $477 $478 reversed $197 $-1 #
coedge $-1 $479 $199 $476 $480 reversed $125 $-1 #
coedge $-1 $199 $479 $481 $482 reversed $125 $-1 #
coedge $-1 $332 $322 $199 $326 reversed $197 $-1 #
edge $-1 $483 -41.376493655621736 $484 41.376493655621736 $325 $485 forward 7 unknown #
coedge $-1 $201 $200 $486 $487 reversed $79 $-1 #
coedge $-1 $488 $489 $200 $329 forward $490 $-1 #
edge $-1 $491 -40.879034317472943 $334 -19.986878492327403 $328 $492 forward 7 unknown #
coedge $-1 $493 $477 $201 $331 forward $320 $-1 #
edge $-1 $333 19.986878492327403 $494 40.879034317472943 $330 $495 forward 7 unknown #
coedge $-1 $202 $325 $488 $496 reversed $197 $-1 #
vertex $-1 $331 $497 #
vertex $-1 $329 $498 #
straight-curve $-1 -50.419834897227574 0 4.9721473798977787 0 1 0 I I #
face $-1 $499 $500 $47 $-1 $501 reversed single #
loop $-1 $-1 $502 $204 #
plane-surface $-1 82.254528515293771 0 -17.906023870086297 0 0 1 1 0 0 forward_v I I I I #
coedge $-1 $503 $504 $505 $506 forward $205 $-1 #
coedge $-1 $507 $207 $503 $508 reversed $129 $-1 #
coedge $-1 $207 $507 $346 $509 reversed $129 $-1 #
edge $-1 $348 -17.906023870086297 $510 -10.949908473971188 $207 $511 forward 7 unknown #
coedge $-1 $209 $208 $512 $513 forward $82 $-1 #
coedge $-1 $514 $515 $208 $345 forward $516 $-1 #
edge $-1 $517 10.949908473971188 $349 17.906023870086297 $344 $518 forward 7 unknown #
coedge $-1 $502 $210 $341 $509 forward $337 $-1 #
coedge $-1 $210 $502 $514 $519 forward $337 $-1 #
vertex $-1 $342 $520 #
vertex $-1 $345 $521 #
straight-curve $-1 71.31199072237311 0 -17.906023870086297 0 -1 0 I I #
face $-1 $-1 $363 $48 $-1 $522 reversed single #
loop $-1 $-1 $523 $212 #
plane-surface $-1 0 0 18.602059347466231 0 0 1 1 0 0 forward_v I I I I #
coedge $-1 $524 $525 $526 $527 reversed $213 $-1 #
coedge $-1 $528 $215 $217 $361 forward $133 $-1 #
coedge $-1 $215 $528 $524 $529 forward $133 $-1 #
coedge $-1 $526 $218 $215 $358 forward $363 $-1 #
edge $-1 $365 -29.926676152847662 $530 -11.059641335912147 $357 $531 forward 7 unknown #
coedge $-1 $532 $533 $216 $360 forward $352 $-1 #
edge $-1 $534 -43.76837732762629 $364 -41.682626157075113 $359 $535 forward 7 unknown #
edge $-1 $365 4.4514345991868243e-014 $534 4.3022067686533907 $217 $536 forward 7 unknown #
coedge $-1 $218 $526 $532 $537 reversed $363 $-1 #
loop $-1 $-1 $526 $351 #
vertex $-1 $537 $538 #
vertex $-1 $219 $539 #
straight-curve $-1 -50.419834897227567 -41.376493655621736 41.992370405465451 0 0 -1 I I #
coedge $-1 $367 $367 $-1 $540 reversed $222 $-1 #
edge $-1 $541 0 $541 6.2831853071796004 $223 $542 forward 7 unknown #
vertex $-1 $226 $543 #
ellipse-curve $-1 -45.029253520960282 -40.333618070346155 16.720661919037617 0 -0.87461971476443456 0.48480960649040278 1 0 0 1 I I #
coedge $-1 $371 $371 $-1 $544 reversed $229 $-1 #
edge $-1 $545 0 $545 6.2831853071796004 $230 $546 forward 7 unknown #
vertex $-1 $233 $547 #
ellipse-curve $-1 -36.943381456559344 -40.333618070346155 16.720661919037617 0 -0.87461971476443456 0.48480960649040278 1 0 0 1 I I #
face $-1 $-1 $548 $51 $-1 $549 forward single #
loop $-1 $-1 $240 $234 #
plane-surface $-1 0 -41.376493655621736 0 0 1 0 0 0 1 forward_v I I I I #
coedge $-1 $550 $551 $552 $553 reversed $235 $-1 #
coedge $-1 $554 $237 $239 $385 forward $147 $-1 #
coedge $-1 $237 $554 $550 $555 forward $147 $-1 #
coedge $-1 $552 $240 $237 $382 forward $376 $-1 #
edge $-1 $388 -4.9649886444078195 $556 13.902046172527697 $381 $557 forward 7 unknown #
coedge $-1 $558 $559 $238 $384 forward $548 $-1 #
edge $-1 $560 -43.76837732762629 $387 -41.682626157075113 $383 $561 forward 7 unknown #
edge $-1 $388 4.4514345991868243e-014 $560 4.3022067686533907 $239 $562 forward 7 unknown #
coedge $-1 $240 $552 $558 $563 reversed $376 $-1 #
vertex $-1 $563 $564 #
vertex $-1 $241 $565 #
straight-curve $-1 -0.49645988034787969 -41.376493655621736 41.992370405465451 0 0 -1 I I #
coedge $-1 $390 $390 $-1 $566 reversed $244 $-1 #
edge $-1 $567 0 $567 6.2831853071796004 $245 $568 forward 7 unknown #
vertex $-1 $248 $569 #
ellipse-curve $-1 4.894121495919407 -40.333618070346155 16.720661919037617 0 -0.87461971476443456 0.48480960649040278 1 0 0 1 I I #
coedge $-1 $394 $394 $-1 $570 reversed $251 $-1 #
edge $-1 $571 0 $571 6.2831853071796004 $252 $572 forward 7 unknown #
vertex $-1 $255 $573 #
ellipse-curve $-1 12.979993560320338 -40.333618070346155 16.720661919037617 0 -0.87461971476443456 0.48480960649040278 1 0 0 1 I I #
face $-1 $-1 $410 $54 $-1 $574 forward single #
loop $-1 $-1 $575 $256 #
plane-surface $-1 0 41.376493655621736 0 0 -1 0 0 0 -1 forward_v I I I I #
coedge $-1 $576 $577 $578 $579 reversed $257 $-1 #
coedge $-1 $580 $259 $261 $408 forward $161 $-1 #
coedge $-1 $259 $580 $576 $581 forward $161 $-1 #
coedge $-1 $578 $262 $259 $405 forward $410 $-1 #
edge $-1 $412 -29.926676152847662 $582 -11.059641335912147 $404 $583 forward 7 unknown #
coedge $-1 $584 $585 $260 $407 forward $399 $-1 #
edge $-1 $586 -63.341802993888791 $411 -59.579008137031543 $406 $587 forward 7 unknown #
edge $-1 $412 78.450780542590081 $586 82.752987311243487 $261 $588 forward 7 unknown #
coedge $-1 $262 $578 $584 $589 forward $410 $-1 #
loop $-1 $-1 $578 $398 #
vertex $-1 $407 $590 #
vertex $-1 $263 $591 #
straight-curve $-1 -50.419834897227567 62.999398205562215 18.602059347466223 0 -1 0 I I #
coedge $-1 $414 $414 $-1 $592 reversed $266 $-1 #
edge $-1 $593 0 $593 6.2831853071796004 $267 $594 forward 7 unknown #
vertex $-1 $270 $595 #
ellipse-curve $-1 -45.029253520960282 40.333618070346127 16.72066191903761 0 0.87461971476443456 0.48480960649040278 1 0 0 1 I I #
coedge $-1 $418 $418 $-1 $596 reversed $273 $-1 #
edge $-1 $597 0 $597 6.2831853071796004 $274 $598 forward 7 unknown #
vertex $-1 $277 $599 #
ellipse-curve $-1 -36.943381456559344 40.333618070346127 16.72066191903761 0 0.87461971476443456 0.48480960649040278 1 0 0 1 I I #
face $-1 $-1 $434 $57 $-1 $600 forward single #
loop $-1 $-1 $601 $278 #
plane-surface $-1 0 41.376493655621736 0 0 -1 0 0 0 -1 forward_v I I I I #
coedge $-1 $602 $603 $604 $605 reversed $279 $-1 #
coedge $-1 $606 $281 $283 $432 forward $175 $-1 #
coedge $-1 $281 $606 $602 $607 forward $175 $-1 #
coedge $-1 $604 $284 $281 $429 forward $434 $-1 #
edge $-1 $436 -4.9649886444078195 $608 13.902046172527697 $428 $609 forward 7 unknown #
coedge $-1 $610 $611 $282 $431 forward $423 $-1 #
edge $-1 $612 -63.341802993888791 $435 -59.579008137031543 $430 $613 forward 7 unknown #
edge $-1 $436 78.450780542590081 $612 82.752987311243487 $283 $614 forward 7 unknown #
coedge $-1 $284 $604 $610 $615 forward $434 $-1 #
loop $-1 $-1 $604 $422 #
vertex $-1 $431 $616 #
vertex $-1 $285 $617 #
straight-curve $-1 -0.49645988034787969 62.999398205562215 18.602059347466223 0 -1 0 I I #
coedge $-1 $438 $438 $-1 $618 reversed $288 $-1 #
edge $-1 $619 0 $619 6.2831853071796004 $289 $620 forward 7 unknown #
vertex $-1 $292 $621 #
ellipse-curve $-1 4.894121495919407 40.333618070346127 16.72066191903761 0 0.87461971476443456 0.48480960649040278 1 0 0 1 I I #
coedge $-1 $442 $442 $-1 $622 reversed $295 $-1 #
edge $-1 $623 0 $623 6.2831853071796004 $296 $624 forward 7 unknown #
vertex $-1 $299 $625 #
ellipse-curve $-1 12.979993560320338 40.333618070346127 16.72066191903761 0 0.87461971476443456 0.48480960649040278 1 0 0 1 I I #
face $-1 $-1 $315 $45 $-1 $626 reversed single #
loop $-1 $-1 $462 $300 #
plane-surface $-1 0 41.376493655621736 0 0 -1 0 0 0 -1 forward_v I I I I #
coedge $-1 $627 $460 $463 $628 forward $301 $-1 #
coedge $-1 $466 $303 $304 $454 reversed $189 $-1 #
coedge $-1 $460 $627 $303 $452 reversed $301 $-1 #
edge $-1 $467 -18.602059347466231 $629 18.602059347466231 $451 $630 forward 7 unknown #
coedge $-1 $305 $304 $627 $631 forward $121 $-1 #
edge $-1 $458 -71.31199072237311 $629 71.31199072237311 $450 $632 forward 7 unknown #
coedge $-1 $463 $462 $305 $456 reversed $447 $-1 #
edge $-1 $633 -71.31199072237311 $457 71.31199072237311 $455 $634 forward 7 unknown #
vertex $-1 $307 $635 #
vertex $-1 $469 $636 #
straight-curve $-1 71.31199072237311 0 -18.602059347466231 0 -1 0 I I #
coedge $-1 $449 $451 $308 $461 reversed $301 $-1 #
edge $-1 $464 -41.376493655621736 $467 41.376493655621736 $460 $637 forward 7 unknown #
coedge $-1 $455 $309 $314 $470 forward $447 $-1 #
coedge $-1 $309 $455 $449 $628 reversed $447 $-1 #
vertex $-1 $310 $638 #
straight-curve $-1 0 41.376493655621736 18.602059347466231 -1 0 0 I I #
coedge $-1 $311 $450 $313 $469 reversed $189 $-1 #
vertex $-1 $461 $639 #
straight-curve $-1 0 -41.376493655621736 18.602059347466231 1 0 0 I I #
edge $-1 $316 -18.602059347466231 $458 18.602059347466231 $313 $640 forward 7 unknown #
edge $-1 $317 -18.602059347466231 $457 18.602059347466231 $314 $641 forward 7 unknown #
point $-1 71.31199072237311 -41.376493655621736 18.602059347466231 #
point $-1 71.31199072237311 41.376493655621736 18.602059347466231 #
face $-1 $-1 $490 $46 $-1 $642 reversed single #
loop $-1 $-1 $643 $319 #
plane-surface $-1 -71.31199072237311 0 0 1 0 0 0 0 -1 forward_v I I I I #
coedge $-1 $477 $493 $323 $480 forward $320 $-1 #
coedge $-1 $330 $476 $322 $478 forward $320 $-1 #
edge $-1 $484 -2.6632286264758758 $333 4.202507795423811 $477 $644 forward 7 unknown #
coedge $-1 $324 $323 $643 $645 reversed $125 $-1 #
edge $-1 $646 -40.879034317472943 $484 -19.986878492327403 $476 $647 forward 7 unknown #
coedge $-1 $489 $488 $324 $482 forward $490 $-1 #
edge $-1 $483 19.986878492327403 $648 40.879034317472943 $481 $649 forward 7 unknown #
vertex $-1 $482 $650 #
vertex $-1 $480 $651 #
straight-curve $-1 -50.419834897227574 0 -1.8935890420019081 0 -1 0 I I #
coedge $-1 $652 $653 $327 $487 forward $474 $-1 #
edge $-1 $494 -41.376493655621736 $491 41.376493655621736 $486 $654 forward 7 unknown #
coedge $-1 $481 $328 $332 $496 forward $490 $-1 #
coedge $-1 $328 $481 $652 $655 reversed $490 $-1 #
loop $-1 $-1 $481 $473 #
vertex $-1 $655 $656 #
straight-curve $-1 -30.432956404900171 41.376493655621736 4.9721473798977787 1 0 0 I I #
coedge $-1 $476 $330 $653 $657 forward $320 $-1 #
vertex $-1 $657 $658 #
straight-curve $-1 -30.432956404900171 -41.376493655621736 4.9721473798977787 -1 0 0 I I #
edge $-1 $334 -4.202507795423811 $483 2.6632286264758758 $488 $659 forward 7 unknown #
point $-1 -50.419834897227574 -41.376493655621736 4.9721473798977787 #
point $-1 -50.419834897227574 41.376493655621736 4.9721473798977787 #
face $-1 $-1 $516 $47 $-1 $660 reversed single #
loop $-1 $-1 $661 $336 #
plane-surface $-1 93.197066308214431 0 -14.427966172028743 -1 0 0 0 0 1 forward_v I I I I #
coedge $-1 $347 $346 $662 $663 forward $337 $-1 #
coedge $-1 $512 $339 $340 $508 forward $205 $-1 #
coedge $-1 $339 $512 $515 $664 forward $205 $-1 #
coedge $-1 $661 $665 $339 $506 reversed $500 $-1 #
edge $-1 $666 -41.376493655621736 $667 41.376493655621736 $505 $668 forward 7 unknown #
coedge $-1 $341 $340 $665 $669 forward $129 $-1 #
edge $-1 $667 -10.94253779292066 $510 10.94253779292066 $340 $670 forward 7 unknown #
edge $-1 $348 -10.94253779292066 $671 10.94253779292066 $341 $672 forward 7 unknown #
vertex $-1 $508 $673 #
straight-curve $-1 71.31199072237311 41.376493655621736 0 0 0 1 I I #
coedge $-1 $504 $503 $343 $513 reversed $205 $-1 #
edge $-1 $517 -41.376493655621736 $510 41.376493655621736 $512 $674 forward 7 unknown #
coedge $-1 $675 $344 $347 $519 reversed $516 $-1 #
coedge $-1 $344 $675 $504 $664 reversed $516 $-1 #
loop $-1 $-1 $344 $499 #
vertex $-1 $345 $676 #
straight-curve $-1 71.31199072237311 -41.376493655621736 0 0 0 -1 I I #
edge $-1 $677 -10.94253779292066 $349 10.94253779292066 $514 $678 forward 7 unknown #
point $-1 71.31199072237311 41.376493655621736 -17.906023870086297 #
point $-1 71.31199072237311 -41.376493655621736 -17.906023870086297 #
plane-surface $-1 0 -41.376493655621736 0 0 1 0 0 0 1 forward_v I I I I #
coedge $-1 $533 $532 $525 $679 forward $352 $-1 #
coedge $-1 $525 $354 $356 $529 reversed $213 $-1 #
coedge $-1 $354 $524 $523 $679 reversed $213 $-1 #
coedge $-1 $362 $357 $354 $527 forward $363 $-1 #
edge $-1 $530 -27.153105914856429 $680 -23.39031105799922 $526 $681 forward 7 unknown #
coedge $-1 $356 $355 $533 $682 reversed $133 $-1 #
edge $-1 $683 -4.3022067686533907 $530 -4.4514345991868243e-014 $524 $684 forward 7 unknown #
vertex $-1 $358 $685 #
straight-curve $-1 -20.493158744379905 -41.376493655621736 14.839264490609013 1 0 0 I I #
coedge $-1 $523 $359 $362 $537 forward $352 $-1 #
coedge $-1 $359 $523 $528 $682 forward $352 $-1 #
vertex $-1 $360 $686 #
straight-curve $-1 -50.419834897227567 -83.059119812696849 18.602059347466231 0 -1 0 I I #
straight-curve $-1 -50.419834897227567 -41.376493655621758 14.839264490608983 0 0.48480960649040278 0.87461971476443456 I I #
edge $-1 $364 -50.419834897227567 $680 -31.552800080292052 $362 $687 forward 7 unknown #
point $-1 -50.419834897227567 -41.376493655621736 18.602059347466231 #
point $-1 -50.419834897227567 -41.376493655621736 14.839264490609022 #
edge $-1 $688 1 $688 0 $367 $-1 forward 7 unknown #
vertex $-1 $368 $689 #
ellipse-curve $-1 -45.029253520960282 -38.198597863282238 15.537200937124467 0 -0.87461971476443456 0.48480960649040278 1 0 0 1 I I #
point $-1 -44.029253520960282 -40.333618070346141 16.72066191903761 #
edge $-1 $690 1 $690 0 $371 $-1 forward 7 unknown #
vertex $-1 $372 $691 #
ellipse-curve $-1 -36.943381456559344 -38.198597863282238 15.537200937124467 0 -0.87461971476443456 0.48480960649040278 1 0 0 1 I I #
point $-1 -35.943381456559344 -40.333618070346141 16.72066191903761 #
loop $-1 $-1 $383 $375 #
plane-surface $-1 0 0 18.602059347466231 0 0 1 1 0 0 forward_v I I I I #
coedge $-1 $551 $378 $380 $555 reversed $235 $-1 #
coedge $-1 $378 $550 $692 $693 reversed $235 $-1 #
coedge $-1 $386 $381 $378 $553 forward $376 $-1 #
edge $-1 $556 -27.153105914856429 $694 -23.39031105799922 $552 $695 forward 7 unknown #
coedge $-1 $380 $379 $559 $696 reversed $147 $-1 #
edge $-1 $697 -4.3022067686533907 $556 -4.4514345991868243e-014 $550 $698 forward 7 unknown #
vertex $-1 $382 $699 #
straight-curve $-1 4.4685287640599398 -41.376493655621736 14.839264490609013 1 0 0 I I #
coedge $-1 $692 $383 $386 $563 forward $548 $-1 #
coedge $-1 $383 $692 $554 $696 forward $548 $-1 #
vertex $-1 $384 $700 #
straight-curve $-1 -0.49645988034787969 -83.059119812696849 18.602059347466231 0 -1 0 I I #
straight-curve $-1 -0.49645988034787969 -41.376493655621758 14.839264490608983 0 0.48480960649040278 0.87461971476443456 I I #
edge $-1 $387 -0.49645988034787969 $694 18.370574936587637 $386 $701 forward 7 unknown #
point $-1 -0.49645988034787969 -41.376493655621736 18.602059347466231 #
point $-1 -0.49645988034787969 -41.376493655621736 14.839264490609022 #
edge $-1 $702 1 $702 0 $390 $-1 forward 7 unknown #
vertex $-1 $391 $703 #
ellipse-curve $-1 4.894121495919407 -38.198597863282238 15.537200937124467 0 -0.87461971476443456 0.48480960649040278 1 0 0 1 I I #
point $-1 5.894121495919407 -40.333618070346141 16.72066191903761 #
edge $-1 $704 1 $704 0 $394 $-1 forward 7 unknown #
vertex $-1 $395 $705 #
ellipse-curve $-1 12.979993560320338 -38.198597863282238 15.537200937124467 0 -0.87461971476443456 0.48480960649040278 1 0 0 1 I I #
point $-1 13.979993560320338 -40.333618070346141 16.72066191903761 #
plane-surface $-1 0 0 18.602059347466231 0 0 1 1 0 0 forward_v I I I I #
coedge $-1 $585 $584 $577 $706 forward $399 $-1 #
coedge $-1 $577 $401 $403 $581 reversed $257 $-1 #
coedge $-1 $401 $576 $575 $706 reversed $257 $-1 #
coedge $-1 $409 $404 $401 $579 forward $410 $-1 #
edge $-1 $582 -23.708655720491684 $707 -21.622904549940479 $578 $708 forward 7 unknown #
coedge $-1 $403 $402 $585 $709 reversed $161 $-1 #
edge $-1 $710 -82.752987311243487 $582 -78.450780542590081 $576 $711 forward 7 unknown #
vertex $-1 $405 $712 #
straight-curve $-1 -20.493158744379905 39.290742485070538 18.602059347466238 1 0 0 I I #
coedge $-1 $575 $406 $409 $589 reversed $399 $-1 #
coedge $-1 $406 $575 $580 $709 forward $399 $-1 #
vertex $-1 $407 $713 #
straight-curve $-1 -50.419834897227567 41.376493655621736 78.181067484497774 0 0 1 I I #
straight-curve $-1 -50.419834897227567 1.2570504413524901 87.216658648673629 0 0.48480960649040278 -0.87461971476443456 I I #
edge $-1 $707 31.552800080292052 $411 50.419834897227567 $584 $714 forward 7 unknown #
point $-1 -50.419834897227567 41.376493655621736 18.602059347466231 #
point $-1 -50.419834897227567 39.290742485070531 18.602059347466238 #
edge $-1 $715 1 $715 0 $414 $-1 forward 7 unknown #
vertex $-1 $415 $716 #
ellipse-curve $-1 -45.029253520960282 38.198597863282252 15.537200937124481 0 0.87461971476443456 0.48480960649040278 1 0 0 1 I I #
point $-1 -44.029253520960282 40.333618070346155 16.720661919037624 #
edge $-1 $717 1 $717 0 $418 $-1 forward 7 unknown #
vertex $-1 $419 $718 #
ellipse-curve $-1 -36.943381456559344 38.198597863282252 15.537200937124481 0 0.87461971476443456 0.48480960649040278 1 0 0 1 I I #
point $-1 -35.943381456559344 40.333618070346155 16.720661919037624 #
plane-surface $-1 0 0 18.602059347466231 0 0 1 1 0 0 forward_v I I I I #
coedge $-1 $611 $610 $603 $719 forward $423 $-1 #
coedge $-1 $603 $425 $427 $607 reversed $279 $-1 #
coedge $-1 $425 $602 $601 $719 reversed $279 $-1 #
coedge $-1 $433 $428 $425 $605 forward $434 $-1 #
edge $-1 $608 -23.708655720491684 $720 -21.622904549940479 $604 $721 forward 7 unknown #
coedge $-1 $427 $426 $611 $722 reversed $175 $-1 #
edge $-1 $723 -82.752987311243487 $608 -78.450780542590081 $602 $724 forward 7 unknown #
vertex $-1 $429 $725 #
straight-curve $-1 4.4685287640599398 39.290742485070538 18.602059347466238 1 0 0 I I #
coedge $-1 $601 $430 $433 $615 reversed $423 $-1 #
coedge $-1 $430 $601 $606 $722 forward $423 $-1 #
vertex $-1 $431 $726 #
straight-curve $-1 -0.49645988034787969 41.376493655621736 78.181067484497774 0 0 1 I I #
straight-curve $-1 -0.49645988034787969 1.2570504413524901 87.216658648673629 0 0.48480960649040278 -0.87461971476443456 I I #
edge $-1 $720 -18.370574936587637 $435 0.49645988034787969 $610 $727 forward 7 unknown #
point $-1 -0.49645988034787969 41.376493655621736 18.602059347466231 #
point $-1 -0.49645988034787969 39.290742485070531 18.602059347466238 #
edge $-1 $728 1 $728 0 $438 $-1 forward 7 unknown #
vertex $-1 $439 $729 #
ellipse-curve $-1 4.894121495919407 38.198597863282252 15.537200937124481 0 0.87461971476443456 0.48480960649040278 1 0 0 1 I I #
point $-1 5.894121495919407 40.333618070346155 16.720661919037624 #
edge $-1 $730 1 $730 0 $442 $-1 forward 7 unknown #
vertex $-1 $443 $731 #
ellipse-curve $-1 12.979993560320338 38.198597863282252 15.537200937124481 0 0.87461971476443456 0.48480960649040278 1 0 0 1 I I #
point $-1 13.979993560320338 40.333618070346155 16.720661919037624 #
plane-surface $-1 71.31199072237311 0 0 -1 0 0 0 0 1 forward_v I I I I #
coedge $-1 $451 $449 $453 $631 reversed $301 $-1 #
edge $-1 $464 -18.602059347466231 $633 18.602059347466231 $463 $732 forward 7 unknown #
vertex $-1 $631 $733 #
straight-curve $-1 -71.31199072237311 -41.376493655621736 0 0 0 -1 I I #
edge $-1 $629 -41.376493655621736 $633 41.376493655621736 $627 $734 forward 7 unknown #
straight-curve $-1 0 -41.376493655621736 -18.602059347466231 -1 0 0 I I #
vertex $-1 $456 $735 #
straight-curve $-1 0 41.376493655621736 -18.602059347466231 1 0 0 I I #
point $-1 71.31199072237311 41.376493655621736 -18.602059347466231 #
point $-1 71.31199072237311 -41.376493655621736 -18.602059347466231 #
straight-curve $-1 -71.31199072237311 0 18.602059347466231 0 -1 0 I I #
point $-1 -71.31199072237311 41.376493655621736 18.602059347466231 #
point $-1 -71.31199072237311 -41.376493655621736 18.602059347466231 #
straight-curve $-1 71.31199072237311 -41.376493655621736 0 0 0 -1 I I #
straight-curve $-1 71.31199072237311 41.376493655621736 0 0 0 -1 I I #
plane-surface $-1 0 41.376493655621736 0 0 -1 0 0 0 -1 forward_v I I I I #
coedge $-1 $653 $652 $479 $645 forward $474 $-1 #
straight-curve $-1 -50.419834897227574 -41.376493655621736 0.76963958447396763 0 0 1 I I #
edge $-1 $648 -41.376493655621736 $646 41.376493655621736 $643 $736 forward 7 unknown #
vertex $-1 $480 $737 #
straight-curve $-1 -30.432956404900171 -41.376493655621736 -1.8935890420019081 1 0 0 I I #
vertex $-1 $482 $738 #
straight-curve $-1 -30.432956404900171 41.376493655621736 -1.8935890420019081 -1 0 0 I I #
point $-1 -50.419834897227574 41.376493655621736 -1.8935890420019081 #
point $-1 -50.419834897227574 -41.376493655621736 -1.8935890420019081 #
coedge $-1 $643 $486 $489 $655 forward $474 $-1 #
coedge $-1 $486 $643 $493 $657 reversed $474 $-1 #
straight-curve $-1 -71.31199072237311 0 4.9721473798977787 0 1 0 I I #
edge $-1 $491 -4.9721473798977787 $648 1.8935890420019081 $489 $739 forward 7 unknown #
point $-1 -71.31199072237311 41.376493655621736 4.9721473798977787 #
edge $-1 $494 -4.9721473798977787 $646 1.8935890420019081 $653 $740 forward 7 unknown #
point $-1 -71.31199072237311 -41.376493655621736 4.9721473798977787 #
straight-curve $-1 -50.419834897227574 41.376493655621736 0.76963958447396763 0 0 -1 I I #
plane-surface $-1 0 -41.376493655621736 0 0 1 0 0 0 1 forward_v I I I I #
coedge $-1 $662 $505 $675 $741 forward $500 $-1 #
coedge $-1 $665 $661 $502 $663 reversed $500 $-1 #
edge $-1 $671 -41.376493655621736 $677 41.376493655621736 $662 $742 forward 7 unknown #
edge $-1 $517 -10.94253779292066 $666 10.94253779292066 $515 $743 forward 7 unknown #
coedge $-1 $505 $662 $507 $669 reversed $500 $-1 #
vertex $-1 $506 $744 #
vertex $-1 $506 $745 #
straight-curve $-1 93.197066308214431 0 -10.949908473971188 0 1 0 I I #
edge $-1 $667 -3.4780576980575546 $671 3.4780576980575546 $665 $746 forward 7 unknown #
straight-curve $-1 82.254528515293771 41.376493655621736 -10.949908473971188 -1 0 0 I I #
vertex $-1 $663 $747 #
straight-curve $-1 82.254528515293771 41.376493655621736 -17.906023870086297 1 0 0 I I #
point $-1 71.31199072237311 41.376493655621736 -10.949908473971188 #
straight-curve $-1 71.31199072237311 0 -10.949908473971188 0 1 0 I I #
coedge $-1 $515 $514 $661 $741 reversed $516 $-1 #
point $-1 71.31199072237311 -41.376493655621736 -10.949908473971188 #
vertex $-1 $741 $748 #
straight-curve $-1 82.254528515293771 -41.376493655621736 -17.906023870086297 -1 0 0 I I #
edge $-1 $680 41.682626157075113 $683 43.76837732762629 $523 $749 forward 7 unknown #
vertex $-1 $527 $750 #
straight-curve $-1 -31.552800080292052 -41.376493655621736 41.992370405465451 0 0 1 I I #
edge $-1 $683 11.059641335912147 $534 29.926676152847662 $533 $751 forward 7 unknown #
vertex $-1 $682 $752 #
straight-curve $-1 -31.552800080292052 -41.376493655621758 14.839264490608983 0 -0.48480960649040278 -0.87461971476443456 I I #
point $-1 -31.552800080292052 -41.376493655621736 14.839264490609022 #
point $-1 -50.419834897227567 -39.29074248507056 18.602059347466231 #
straight-curve $-1 0 -41.376493655621736 18.602059347466231 1 0 0 I I #
vertex $-1 $540 $753 #
point $-1 -44.029253520960282 -38.198597863282238 15.537200937124467 #
vertex $-1 $544 $754 #
point $-1 -35.943381456559344 -38.198597863282238 15.537200937124467 #
coedge $-1 $559 $558 $551 $693 forward $548 $-1 #
edge $-1 $694 41.682626157075113 $697 43.76837732762629 $692 $755 forward 7 unknown #
vertex $-1 $693 $756 #
straight-curve $-1 18.370574936587637 -41.376493655621736 41.992370405465451 0 0 1 I I #
edge $-1 $697 -13.902046172527697 $560 4.9649886444078195 $559 $757 forward 7 unknown #
vertex $-1 $696 $758 #
straight-curve $-1 18.370574936587637 -41.376493655621758 14.839264490608983 0 -0.48480960649040278 -0.87461971476443456 I I #
point $-1 18.370574936587637 -41.376493655621736 14.839264490609022 #
point $-1 -0.49645988034787969 -39.29074248507056 18.602059347466231 #
straight-curve $-1 0 -41.376493655621736 18.602059347466231 1 0 0 I I #
vertex $-1 $566 $759 #
point $-1 5.894121495919407 -38.198597863282238 15.537200937124467 #
vertex $-1 $570 $760 #
point $-1 13.979993560320338 -38.198597863282238 15.537200937124467 #
edge $-1 $707 59.579008137031543 $710 63.341802993888791 $575 $761 forward 7 unknown #
vertex $-1 $589 $762 #
straight-curve $-1 -31.552800080292052 62.999398205562215 18.602059347466223 0 1 0 I I #
edge $-1 $710 11.059641335912147 $586 29.926676152847662 $585 $763 forward 7 unknown #
vertex $-1 $709 $764 #
straight-curve $-1 -31.552800080292052 1.2570504413524901 87.216658648673629 0 -0.48480960649040278 0.87461971476443456 I I #
point $-1 -31.552800080292052 39.290742485070531 18.602059347466238 #
point $-1 -50.419834897227567 41.376493655621736 14.839264490608983 #
straight-curve $-1 0 41.376493655621736 18.602059347466231 -1 0 0 I I #
vertex $-1 $592 $765 #
point $-1 -44.029253520960282 38.198597863282252 15.537200937124481 #
vertex $-1 $596 $766 #
point $-1 -35.943381456559344 38.198597863282252 15.537200937124481 #
edge $-1 $720 59.579008137031543 $723 63.341802993888791 $601 $767 forward 7 unknown #
vertex $-1 $615 $768 #
straight-curve $-1 18.370574936587637 62.999398205562215 18.602059347466223 0 1 0 I I #
edge $-1 $723 -13.902046172527697 $612 4.9649886444078195 $611 $769 forward 7 unknown #
vertex $-1 $722 $770 #
straight-curve $-1 18.370574936587637 1.2570504413524901 87.216658648673629 0 -0.48480960649040278 0.87461971476443456 I I #
point $-1 18.370574936587637 39.290742485070531 18.602059347466238 #
point $-1 -0.49645988034787969 41.376493655621736 14.839264490608983 #
straight-curve $-1 0 41.376493655621736 18.602059347466231 -1 0 0 I I #
vertex $-1 $618 $771 #
point $-1 5.894121495919407 38.198597863282252 15.537200937124481 #
vertex $-1 $622 $772 #
point $-1 13.979993560320338 38.198597863282252 15.537200937124481 #
straight-curve $-1 -71.31199072237311 41.376493655621736 0 0 0 -1 I I #
point $-1 -71.31199072237311 -41.376493655621736 -18.602059347466231 #
straight-curve $-1 -71.31199072237311 0 -18.602059347466231 0 1 0 I I #
point $-1 -71.31199072237311 41.376493655621736 -18.602059347466231 #
straight-curve $-1 -71.31199072237311 0 -1.8935890420019081 0 -1 0 I I #
point $-1 -71.31199072237311 -41.376493655621736 -1.8935890420019081 #
point $-1 -71.31199072237311 41.376493655621736 -1.8935890420019081 #
straight-curve $-1 -71.31199072237311 41.376493655621736 0 0 0 -1 I I #
straight-curve $-1 -71.31199072237311 -41.376493655621736 0 0 0 -1 I I #
edge $-1 $666 -3.4780576980575546 $677 3.4780576980575546 $661 $773 forward 7 unknown #
straight-curve $-1 93.197066308214431 0 -17.906023870086297 0 -1 0 I I #
straight-curve $-1 82.254528515293771 -41.376493655621736 -10.949908473971188 1 0 0 I I #
point $-1 93.197066308214431 -41.376493655621736 -10.949908473971188 #
point $-1 93.197066308214431 41.376493655621736 -10.949908473971188 #
straight-curve $-1 93.197066308214431 41.376493655621736 -14.427966172028743 0 0 -1 I I #
point $-1 93.197066308214431 41.376493655621736 -17.906023870086297 #
point $-1 93.197066308214431 -41.376493655621736 -17.906023870086297 #
straight-curve $-1 -31.552800080292052 -83.059119812696849 18.602059347466231 0 1 0 I I #
point $-1 -31.552800080292052 -41.376493655621736 18.602059347466231 #
straight-curve $-1 -20.493158744379905 -39.29074248507056 18.602059347466231 -1 0 0 I I #
point $-1 -31.552800080292052 -39.29074248507056 18.602059347466231 #
point $-1 -45.029253520960282 -37.323978148517803 15.052391330634066 #
point $-1 -36.943381456559344 -37.323978148517803 15.052391330634066 #
straight-curve $-1 18.370574936587637 -83.059119812696849 18.602059347466231 0 1 0 I I #
point $-1 18.370574936587637 -41.376493655621736 18.602059347466231 #
straight-curve $-1 4.4685287640599398 -39.29074248507056 18.602059347466231 -1 0 0 I I #
point $-1 18.370574936587637 -39.29074248507056 18.602059347466231 #
point $-1 4.894121495919407 -37.323978148517803 15.052391330634066 #
point $-1 12.979993560320338 -37.323978148517803 15.052391330634066 #
straight-curve $-1 -31.552800080292052 41.376493655621736 78.181067484497774 0 0 -1 I I #
point $-1 -31.552800080292052 41.376493655621736 18.602059347466231 #
straight-curve $-1 -20.493158744379905 41.376493655621729 14.83926449060899 -1 0 0 I I #
point $-1 -31.552800080292052 41.376493655621736 14.839264490608983 #
point $-1 -45.029253520960282 37.323978148517817 15.05239133063408 #
point $-1 -36.943381456559344 37.323978148517817 15.05239133063408 #
straight-curve $-1 18.370574936587637 41.376493655621736 78.181067484497774 0 0 -1 I I #
point $-1 18.370574936587637 41.376493655621736 18.602059347466231 #
straight-curve $-1 4.4685287640599398 41.376493655621729 14.83926449060899 -1 0 0 I I #
point $-1 18.370574936587637 41.376493655621736 14.839264490608983 #
point $-1 4.894121495919407 37.323978148517817 15.05239133063408 #
point $-1 12.979993560320338 37.323978148517817 15.05239133063408 #
straight-curve $-1 93.197066308214431 -41.376493655621736 -14.427966172028743 0 0 -1 I I #
End-of-ACIS-data 