500 0 8 0           
7 Unknown 11 ACIS 5.0 NT 24 Fri Mar 26 03:12:27 1999 
-1 9.9999999999999995e-007 1e-010 
body $-1 $8 $-1 $9 #
body $-1 $10 $-1 $11 #
body $-1 $12 $-1 $13 #
body $-1 $14 $-1 $15 #
body $-1 $16 $-1 $17 #
body $-1 $18 $-1 $19 #
body $-1 $20 $-1 $21 #
body $-1 $22 $-1 $23 #
lump $-1 $-1 $24 $0 #
transform $-1 1 0 0 0 1 0 0 0 1 47.824945829645678 29.313377164464882 8.8204933264709737 1 rotate no_reflect no_shear #
lump $-1 $-1 $25 $1 #
transform $-1 1 0 0 0 1 0 0 0 1 47.824945829645678 29.313377164464882 8.8204933264709737 1 rotate no_reflect no_shear #
lump $-1 $-1 $26 $2 #
transform $-1 1 0 0 0 1 0 0 0 1 47.824945829645678 29.313377164464882 8.8204933264709737 1 rotate no_reflect no_shear #
lump $-1 $-1 $27 $3 #
transform $-1 1 0 0 0 1 0 0 0 1 47.824945829645678 29.313377164464882 8.8204933264709737 1 rotate no_reflect no_shear #
lump $-1 $-1 $28 $4 #
transform $-1 1 0 0 0 1 0 0 0 1 47.824945829645678 29.313377164464882 8.8204933264709737 1 rotate no_reflect no_shear #
lump $-1 $-1 $29 $5 #
transform $-1 1 0 0 0 1 0 0 0 1 47.824945829645678 29.313377164464882 8.8204933264709737 1 rotate no_reflect no_shear #
lump $-1 $-1 $30 $6 #
transform $-1 1 0 0 0 1 0 0 0 1 47.824945829645678 29.313377164464882 8.8204933264709737 1 rotate no_reflect no_shear #
lump $-1 $-1 $31 $7 #
transform $-1 1 0 0 0 1 0 0 0 1 47.824945829645678 29.313377164464882 8.8204933264709737 1 rotate no_reflect no_shear #
shell $-1 $-1 $-1 $32 $-1 $8 #
shell $-1 $-1 $-1 $33 $-1 $10 #
shell $-1 $-1 $-1 $34 $-1 $12 #
shell $-1 $-1 $-1 $35 $-1 $14 #
shell $-1 $-1 $-1 $36 $-1 $16 #
shell $-1 $-1 $-1 $37 $-1 $18 #
shell $-1 $-1 $-1 $38 $-1 $20 #
shell $-1 $-1 $-1 $39 $-1 $22 #
face $-1 $40 $41 $24 $-1 $42 forward single #
face $-1 $43 $44 $25 $-1 $45 forward single #
face $-1 $46 $47 $26 $-1 $48 reversed single #
face $-1 $49 $50 $27 $-1 $51 forward single #
face $-1 $52 $53 $28 $-1 $54 forward single #
face $-1 $55 $56 $29 $-1 $57 reversed single #
face $-1 $58 $59 $30 $-1 $60 forward single #
face $-1 $61 $62 $31 $-1 $63 forward single #
face $-1 $64 $65 $24 $-1 $66 reversed single #
loop $-1 $-1 $67 $32 #
plane-surface $-1 0 0 8.8204933264709737 0 0 1 1 0 0 forward_v I I I I #
face $-1 $68 $69 $25 $-1 $70 reversed single #
loop $-1 $-1 $71 $33 #
plane-surface $-1 0 -23.611952625011931 -3.447146532297297 0 0 1 1 0 0 forward_v I I I I #
face $-1 $72 $73 $26 $-1 $74 reversed single #
loop $-1 $-1 $75 $34 #
plane-surface $-1 -116.62972058630538 -0.2348609884226498 68.166679766177452 0 1 0 -0.71933980857756763 0 0.69465836192734942 forward_v I I I I #
face $-1 $76 $77 $27 $-1 $78 forward single #
loop $-1 $79 $80 $35 #
cone-surface $-1 -43.186442463179517 1.7777412527494825 4.1017860491447111 0.71933980857756763 0 -0.69465836192734942 0.69465836192734942 0 0.71933980857756763 1 I I 0 1 1 forward I I I I #
face $-1 $81 $82 $28 $-1 $83 forward single #
loop $-1 $84 $85 $36 #
cone-surface $-1 -43.186442463179517 4.7966446145076773 4.1017860491447111 0.71933980857756763 0 -0.69465836192734942 0.69465836192734942 0 0.71933980857756763 1 I I 0 1 1 forward I I I I #
face $-1 $86 $87 $29 $-1 $88 reversed single #
loop $-1 $-1 $89 $37 #
plane-surface $-1 50.185723527733607 6.8092468556797989 136.97145452283718 0 -1 0 -0.71933980857756763 0 -0.69465836192734942 forward_v I I I I #
face $-1 $90 $91 $30 $-1 $92 forward single #
loop $-1 $93 $94 $38 #
cone-surface $-1 43.186442463179496 1.7777412527494825 4.1017860491446969 -0.71933980857756763 0 -0.69465836192734942 0.69465836192734942 0 -0.71933980857756763 1 I I 0 1 1 forward I I I I #
face $-1 $95 $96 $31 $-1 $97 forward single #
loop $-1 $98 $99 $39 #
cone-surface $-1 43.186442463179496 4.7966446145076773 4.1017860491446969 -0.71933980857756763 0 -0.69465836192734942 0.69465836192734942 0 -0.71933980857756763 1 I I 0 1 1 forward I I I I #
face $-1 $100 $101 $24 $-1 $102 reversed single #
loop $-1 $-1 $103 $40 #
plane-surface $-1 0 0 -8.8204933264709737 0 0 1 1 0 0 forward_v I I I I #
coedge $-1 $104 $105 $106 $107 forward $41 $-1 #
face $-1 $108 $109 $25 $-1 $110 reversed single #
loop $-1 $-1 $111 $43 #
plane-surface $-1 0 -23.611952625011931 -8.1683326114514401 0 0 1 1 0 0 forward_v I I I I #
coedge $-1 $112 $113 $114 $115 reversed $44 $-1 #
face $-1 $116 $117 $26 $-1 $118 reversed single #
loop $-1 $-1 $119 $46 #
plane-surface $-1 -47.824945829645657 3.2871929336285746 1.7226827076056708 -0.71933980857756763 0 0.69465836192734942 0.69465836192734942 0 0.71933980857756763 forward_v I I I I #
coedge $-1 $120 $121 $122 $123 reversed $47 $-1 #
face $-1 $-1 $124 $27 $-1 $125 forward single #
loop $-1 $126 $127 $49 #
cone-surface $-1 -41.615407131252994 1.7777412527494825 2.5846549002874184 0.71933980857756763 0 -0.69465836192734942 0.34732918096367471 0 0.35966990428878381 1 I I -0.70710678118654746 0.70710678118654746 0.5 forward I I I I #
loop $-1 $-1 $128 $35 #
coedge $-1 $80 $80 $129 $130 reversed $50 $-1 #
face $-1 $-1 $131 $28 $-1 $132 forward single #
loop $-1 $133 $134 $52 #
cone-surface $-1 -41.615407131252994 4.7966446145076773 2.5846549002874184 0.71933980857756763 0 -0.69465836192734942 0.34732918096367471 0 0.35966990428878381 1 I I -0.70710678118654746 0.70710678118654746 0.5 forward I I I I #
loop $-1 $-1 $135 $36 #
coedge $-1 $85 $85 $136 $137 reversed $53 $-1 #
face $-1 $138 $139 $29 $-1 $140 reversed single #
loop $-1 $-1 $141 $55 #
plane-surface $-1 -18.619051228926118 3.2871929336285746 70.527457464265396 0.71933980857756763 0 0.69465836192734942 0.69465836192734942 0 -0.71933980857756763 forward_v I I I I #
coedge $-1 $142 $143 $144 $145 reversed $56 $-1 #
face $-1 $-1 $146 $30 $-1 $147 forward single #
loop $-1 $148 $149 $58 #
cone-surface $-1 41.615407131252972 1.7777412527494825 2.5846549002874042 -0.71933980857756763 0 -0.69465836192734942 0.34732918096367471 0 -0.35966990428878381 1 I I -0.70710678118654746 0.70710678118654746 0.5 forward I I I I #
loop $-1 $-1 $150 $38 #
coedge $-1 $94 $94 $151 $152 reversed $59 $-1 #
face $-1 $-1 $153 $31 $-1 $154 forward single #
loop $-1 $155 $156 $61 #
cone-surface $-1 41.615407131252972 4.7966446145076773 2.5846549002874042 -0.71933980857756763 0 -0.69465836192734942 0.34732918096367471 0 -0.35966990428878381 1 I I -0.70710678118654746 0.70710678118654746 0.5 forward I I I I #
loop $-1 $-1 $157 $39 #
coedge $-1 $99 $99 $158 $159 reversed $62 $-1 #
face $-1 $160 $161 $24 $-1 $162 reversed single #
loop $-1 $-1 $163 $64 #
plane-surface $-1 0 -29.313377164464882 0 0 1 0 0 0 1 forward_v I I I I #
coedge $-1 $164 $165 $166 $167 forward $65 $-1 #
coedge $-1 $168 $67 $169 $170 forward $41 $-1 #
coedge $-1 $67 $168 $171 $172 forward $41 $-1 #
coedge $-1 $173 $174 $67 $107 reversed $175 $-1 #
edge $-1 $176 -29.313377164464882 $177 29.313377164464882 $106 $178 forward 7 unknown #
face $-1 $179 $180 $25 $-1 $181 reversed single #
loop $-1 $-1 $182 $68 #
plane-surface $-1 0 -17.91052808555898 -5.807739571874369 0 -1 0 0 0 -1 forward_v I I I I #
coedge $-1 $183 $184 $185 $186 reversed $69 $-1 #
coedge $-1 $187 $71 $188 $189 forward $44 $-1 #
coedge $-1 $71 $187 $190 $191 reversed $44 $-1 #
coedge $-1 $192 $193 $71 $115 forward $194 $-1 #
edge $-1 $195 6.1045517730530143 $196 17.507400851958916 $114 $197 forward 7 unknown #
face $-1 $198 $199 $26 $-1 $200 reversed single #
loop $-1 $-1 $201 $72 #
plane-surface $-1 -116.62972058630538 6.8092468556797989 68.166679766177452 0 -1 0 0.71933980857756763 0 -0.69465836192734942 forward_v I I I I #
coedge $-1 $202 $203 $204 $205 reversed $73 $-1 #
coedge $-1 $121 $75 $206 $207 reversed $47 $-1 #
coedge $-1 $75 $120 $202 $208 reversed $47 $-1 #
coedge $-1 $204 $209 $75 $123 forward $210 $-1 #
edge $-1 $211 10.489914463507013 $212 17.34419034116388 $122 $213 forward 7 unknown #
loop $-1 $-1 $129 $76 #
plane-surface $-1 -47.824945829645657 3.2871929336285746 1.7226827076056708 -0.71933980857756763 0 0.69465836192734942 0.69465836192734942 0 0.71933980857756763 forward_v I I I I #
loop $-1 $-1 $214 $49 #
coedge $-1 $127 $127 $128 $215 reversed $77 $-1 #
coedge $-1 $128 $128 $127 $215 forward $79 $-1 #
coedge $-1 $129 $129 $80 $130 forward $124 $-1 #
edge $-1 $216 0 $216 6.2831853071796004 $129 $217 forward 7 unknown #
loop $-1 $-1 $136 $81 #
plane-surface $-1 -47.824945829645657 3.2871929336285746 1.7226827076056708 -0.71933980857756763 0 0.69465836192734942 0.69465836192734942 0 0.71933980857756763 forward_v I I I I #
loop $-1 $-1 $218 $52 #
coedge $-1 $134 $134 $135 $219 reversed $82 $-1 #
coedge $-1 $135 $135 $134 $219 forward $84 $-1 #
coedge $-1 $136 $136 $85 $137 forward $131 $-1 #
edge $-1 $220 0 $220 6.2831853071796004 $136 $221 forward 7 unknown #
face $-1 $222 $223 $29 $-1 $224 forward single #
loop $-1 $-1 $225 $86 #
plane-surface $-1 50.185723527733607 -0.2348609884226498 136.97145452283718 0 1 0 0.71933980857756763 0 0.69465836192734942 forward_v I I I I #
coedge $-1 $226 $227 $228 $229 reversed $87 $-1 #
coedge $-1 $143 $89 $230 $231 reversed $56 $-1 #
coedge $-1 $89 $142 $226 $232 reversed $56 $-1 #
coedge $-1 $228 $233 $89 $145 forward $223 $-1 #
edge $-1 $234 -22.732084065778874 $235 -15.877808188122 $144 $236 forward 7 unknown #
loop $-1 $-1 $151 $90 #
plane-surface $-1 -18.619051228926118 3.2871929336285746 70.527457464265396 0.71933980857756763 0 0.69465836192734942 0.69465836192734942 0 -0.71933980857756763 forward_v I I I I #
loop $-1 $-1 $237 $58 #
coedge $-1 $149 $149 $150 $238 reversed $91 $-1 #
coedge $-1 $150 $150 $149 $238 forward $93 $-1 #
coedge $-1 $151 $151 $94 $152 forward $146 $-1 #
edge $-1 $239 0 $239 6.2831853071796004 $151 $240 forward 7 unknown #
loop $-1 $-1 $158 $95 #
plane-surface $-1 -18.619051228926118 3.2871929336285746 70.527457464265396 0.71933980857756763 0 0.69465836192734942 0.69465836192734942 0 -0.71933980857756763 forward_v I I I I #
loop $-1 $-1 $241 $61 #
coedge $-1 $156 $156 $157 $242 reversed $96 $-1 #
coedge $-1 $157 $157 $156 $242 forward $98 $-1 #
coedge $-1 $158 $158 $99 $159 forward $153 $-1 #
edge $-1 $243 0 $243 6.2831853071796004 $158 $244 forward 7 unknown #
face $-1 $245 $246 $24 $-1 $247 reversed single #
loop $-1 $-1 $248 $100 #
plane-surface $-1 -47.824945829645678 0 0 1 0 0 0 0 -1 forward_v I I I I #
coedge $-1 $249 $171 $250 $251 forward $101 $-1 #
coedge $-1 $252 $103 $249 $253 forward $65 $-1 #
coedge $-1 $103 $252 $254 $255 forward $65 $-1 #
coedge $-1 $174 $173 $103 $167 reversed $175 $-1 #
edge $-1 $256 -29.313377164464882 $257 29.313377164464882 $166 $258 forward 7 unknown #
coedge $-1 $105 $104 $259 $260 forward $41 $-1 #
coedge $-1 $261 $262 $104 $170 reversed $246 $-1 #
edge $-1 $177 -47.824945829645678 $263 47.824945829645678 $169 $264 forward 7 unknown #
coedge $-1 $163 $265 $105 $172 reversed $101 $-1 #
edge $-1 $266 -47.824945829645678 $176 47.824945829645678 $171 $267 forward 7 unknown #
coedge $-1 $166 $106 $265 $268 forward $175 $-1 #
coedge $-1 $106 $166 $261 $269 reversed $175 $-1 #
loop $-1 $-1 $173 $245 #
vertex $-1 $107 $270 #
vertex $-1 $107 $271 #
straight-curve $-1 47.824945829645678 0 8.8204933264709737 0 1 0 I I #
face $-1 $272 $273 $25 $-1 $274 reversed single #
loop $-1 $-1 $275 $108 #
plane-surface $-1 -47.824945829645678 0 0 1 0 0 0 0 -1 forward_v I I I I #
coedge $-1 $276 $188 $193 $277 reversed $109 $-1 #
coedge $-1 $278 $111 $279 $280 reversed $69 $-1 #
coedge $-1 $111 $278 $276 $281 forward $69 $-1 #
coedge $-1 $193 $192 $111 $186 forward $194 $-1 #
edge $-1 $282 -17.507400851958916 $283 -6.1045517730530143 $185 $284 forward 7 unknown #
coedge $-1 $113 $112 $275 $285 reversed $44 $-1 #
coedge $-1 $182 $286 $112 $189 reversed $109 $-1 #
edge $-1 $195 -47.824945829645678 $287 47.824945829645678 $188 $288 forward 7 unknown #
coedge $-1 $289 $290 $113 $191 forward $273 $-1 #
edge $-1 $196 -47.824945829645678 $291 47.824945829645678 $190 $292 forward 7 unknown #
coedge $-1 $185 $114 $290 $293 forward $194 $-1 #
coedge $-1 $114 $185 $182 $277 forward $194 $-1 #
loop $-1 $-1 $114 $272 #
vertex $-1 $115 $294 #
vertex $-1 $293 $295 #
straight-curve $-1 47.824945829645678 -11.805976312505965 -3.447146532297297 0 -1 0 I I #
face $-1 $-1 $210 $26 $-1 $296 forward single #
loop $-1 $-1 $297 $116 #
plane-surface $-1 -47.824945829645678 0 0 1 0 0 0 0 -1 forward_v I I I I #
coedge $-1 $298 $299 $300 $301 reversed $117 $-1 #
coedge $-1 $302 $119 $121 $208 forward $73 $-1 #
coedge $-1 $119 $302 $298 $303 forward $73 $-1 #
coedge $-1 $300 $122 $119 $205 forward $210 $-1 #
edge $-1 $212 -1.8784574552369371 $304 5.1656503888655116 $204 $305 forward 7 unknown #
coedge $-1 $306 $307 $120 $207 forward $199 $-1 #
edge $-1 $308 -32.360657175483077 $211 -25.262846556617752 $206 $309 forward 7 unknown #
edge $-1 $212 -9.8671177852656449 $308 3.0620360423717574e-014 $121 $310 forward 7 unknown #
coedge $-1 $122 $300 $306 $311 forward $210 $-1 #
loop $-1 $-1 $300 $198 #
vertex $-1 $207 $312 #
vertex $-1 $123 $313 #
straight-curve $-1 -58.314860293152691 -0.2348609884226498 8.8204933264709737 1 0 0 I I #
coedge $-1 $214 $214 $-1 $314 reversed $126 $-1 #
edge $-1 $315 0 $315 6.2831853071796004 $127 $316 forward 7 unknown #
vertex $-1 $130 $317 #
ellipse-curve $-1 -44.397807890817241 1.7777412527494825 5.2715880170383116 -0.71933980857756763 0 0.69465836192734942 0.69465836192734942 0 0.71933980857756763 1 I I #
coedge $-1 $218 $218 $-1 $318 reversed $133 $-1 #
edge $-1 $319 0 $319 6.2831853071796004 $134 $320 forward 7 unknown #
vertex $-1 $137 $321 #
ellipse-curve $-1 -44.397807890817241 4.7966446145076773 5.2715880170383116 -0.71933980857756763 0 0.69465836192734942 0.69465836192734942 0 0.71933980857756763 1 I I #
face $-1 $-1 $322 $29 $-1 $323 reversed single #
loop $-1 $-1 $144 $138 #
plane-surface $-1 0 0 8.8204933264709737 0 0 1 1 0 0 forward_v I I I I #
coedge $-1 $324 $325 $326 $327 reversed $139 $-1 #
coedge $-1 $328 $141 $143 $232 forward $87 $-1 #
coedge $-1 $141 $328 $324 $329 forward $87 $-1 #
coedge $-1 $326 $144 $141 $229 forward $223 $-1 #
edge $-1 $235 -5.1656503888655116 $330 1.8784574552369371 $228 $331 forward 7 unknown #
coedge $-1 $332 $333 $142 $231 forward $322 $-1 #
edge $-1 $334 -66.763044553812946 $234 -59.665233934947615 $230 $335 forward 7 unknown #
edge $-1 $235 85.782773874025708 $334 95.649891659291399 $143 $336 forward 7 unknown #
coedge $-1 $144 $326 $332 $337 forward $223 $-1 #
vertex $-1 $231 $338 #
vertex $-1 $145 $339 #
straight-curve $-1 25.092861763866804 6.8092468556797989 8.8204933264709666 -1 0 0 I I #
coedge $-1 $237 $237 $-1 $340 reversed $148 $-1 #
edge $-1 $341 0 $341 6.2831853071796004 $149 $342 forward 7 unknown #
vertex $-1 $152 $343 #
ellipse-curve $-1 44.397807890817241 1.7777412527494825 5.271588017038316 0.71933980857756763 0 0.69465836192734942 0.69465836192734942 0 -0.71933980857756763 1 I I #
coedge $-1 $241 $241 $-1 $344 reversed $155 $-1 #
edge $-1 $345 0 $345 6.2831853071796004 $156 $346 forward 7 unknown #
vertex $-1 $159 $347 #
ellipse-curve $-1 44.397807890817241 4.7966446145076773 5.271588017038316 0.71933980857756763 0 0.69465836192734942 0.69465836192734942 0 -0.71933980857756763 1 I I #
face $-1 $-1 $175 $24 $-1 $348 reversed single #
loop $-1 $-1 $261 $160 #
plane-surface $-1 0 29.313377164464882 0 0 -1 0 0 0 -1 forward_v I I I I #
coedge $-1 $349 $259 $262 $350 forward $161 $-1 #
coedge $-1 $265 $163 $164 $253 reversed $101 $-1 #
coedge $-1 $259 $349 $163 $251 reversed $161 $-1 #
edge $-1 $266 -8.8204933264709737 $351 8.8204933264709737 $250 $352 forward 7 unknown #
coedge $-1 $165 $164 $349 $353 forward $65 $-1 #
edge $-1 $257 -47.824945829645678 $351 47.824945829645678 $249 $354 forward 7 unknown #
coedge $-1 $262 $261 $165 $255 reversed $246 $-1 #
edge $-1 $355 -47.824945829645678 $256 47.824945829645678 $254 $356 forward 7 unknown #
vertex $-1 $167 $357 #
vertex $-1 $268 $358 #
straight-curve $-1 47.824945829645678 0 -8.8204933264709737 0 -1 0 I I #
coedge $-1 $248 $250 $168 $260 reversed $161 $-1 #
edge $-1 $263 -29.313377164464882 $266 29.313377164464882 $259 $359 forward 7 unknown #
coedge $-1 $254 $169 $174 $269 forward $246 $-1 #
coedge $-1 $169 $254 $248 $350 reversed $246 $-1 #
vertex $-1 $170 $360 #
straight-curve $-1 0 29.313377164464882 8.8204933264709737 -1 0 0 I I #
coedge $-1 $171 $249 $173 $268 reversed $101 $-1 #
vertex $-1 $260 $361 #
straight-curve $-1 0 -29.313377164464882 8.8204933264709737 1 0 0 I I #
edge $-1 $176 -8.8204933264709737 $257 8.8204933264709737 $173 $362 forward 7 unknown #
edge $-1 $177 -8.8204933264709737 $256 8.8204933264709737 $174 $363 forward 7 unknown #
point $-1 47.824945829645678 -29.313377164464882 8.8204933264709737 #
point $-1 47.824945829645678 29.313377164464882 8.8204933264709737 #
face $-1 $-1 $194 $25 $-1 $364 reversed single #
loop $-1 $-1 $190 $179 #
plane-surface $-1 0 -29.313377164464882 0 0 1 0 0 0 1 forward_v I I I I #
coedge $-1 $365 $366 $187 $285 forward $180 $-1 #
coedge $-1 $286 $182 $184 $281 reversed $109 $-1 #
edge $-1 $283 -5.264462825514256 $195 -0.54327674636011247 $193 $367 forward 7 unknown #
coedge $-1 $184 $183 $368 $369 reversed $69 $-1 #
coedge $-1 $290 $289 $183 $280 forward $273 $-1 #
edge $-1 $370 -47.824945829645678 $282 47.824945829645678 $279 $371 forward 7 unknown #
edge $-1 $372 -47.824945829645678 $283 47.824945829645678 $276 $373 forward 7 unknown #
vertex $-1 $280 $374 #
vertex $-1 $186 $375 #
straight-curve $-1 47.824945829645678 -11.805976312505965 -8.1683326114514401 0 1 0 I I #
edge $-1 $291 -17.507400851958916 $287 -6.1045517730530143 $275 $376 forward 7 unknown #
coedge $-1 $188 $276 $365 $377 reversed $109 $-1 #
vertex $-1 $285 $378 #
straight-curve $-1 0 -17.91052808555898 -3.447146532297297 -1 0 0 I I #
coedge $-1 $279 $190 $366 $379 forward $273 $-1 #
coedge $-1 $190 $279 $192 $293 reversed $273 $-1 #
vertex $-1 $379 $380 #
straight-curve $-1 0 -29.313377164464882 -3.447146532297297 -1 0 0 I I #
edge $-1 $196 3.447146532297297 $282 8.1683326114514401 $192 $381 forward 7 unknown #
point $-1 47.824945829645678 -17.91052808555898 -3.447146532297297 #
point $-1 47.824945829645678 -29.313377164464882 -3.447146532297297 #
plane-surface $-1 0 0 8.8204933264709737 0 0 1 1 0 0 forward_v I I I I #
coedge $-1 $307 $306 $299 $382 forward $199 $-1 #
coedge $-1 $299 $201 $203 $303 reversed $117 $-1 #
coedge $-1 $201 $298 $297 $382 reversed $117 $-1 #
coedge $-1 $209 $204 $201 $301 forward $210 $-1 #
edge $-1 $304 -17.34419034116388 $383 -10.489914463507013 $300 $384 forward 7 unknown #
coedge $-1 $203 $202 $307 $385 reversed $73 $-1 #
edge $-1 $386 -3.0620360423717574e-014 $304 9.8671177852656449 $298 $387 forward 7 unknown #
vertex $-1 $205 $388 #
straight-curve $-1 -40.970669951988803 1.6435964668142873 8.8204933264709755 0 1 0 I I #
coedge $-1 $297 $206 $209 $311 reversed $199 $-1 #
coedge $-1 $206 $297 $302 $385 forward $199 $-1 #
vertex $-1 $207 $389 #
straight-curve $-1 -47.824945829645678 -0.2348609884226498 34.083339883088726 0 0 1 I I #
straight-curve $-1 -47.824945829645657 -0.2348609884226498 1.7226827076056708 -0.69465836192734942 0 -0.71933980857756763 I I #
edge $-1 $383 -6.8092468556797989 $211 0.2348609884226498 $306 $390 forward 7 unknown #
point $-1 -47.824945829645678 -0.2348609884226498 8.8204933264709737 #
point $-1 -40.97066995198881 -0.2348609884226498 8.8204933264709737 #
edge $-1 $391 1 $391 0 $214 $-1 forward 7 unknown #
vertex $-1 $215 $392 #
ellipse-curve $-1 -41.97507703554178 1.7777412527494825 2.9319840812510929 -0.71933980857756763 0 0.69465836192734942 0.69465836192734942 0 0.71933980857756763 1 I I #
point $-1 -43.703149528889909 1.7777412527494825 5.9909278256158967 #
edge $-1 $393 1 $393 0 $218 $-1 forward 7 unknown #
vertex $-1 $219 $394 #
ellipse-curve $-1 -41.97507703554178 4.7966446145076773 2.9319840812510929 -0.71933980857756763 0 0.69465836192734942 0.69465836192734942 0 0.71933980857756763 1 I I #
point $-1 -43.703149528889909 4.7966446145076773 5.9909278256158967 #
loop $-1 $-1 $230 $222 #
plane-surface $-1 47.824945829645678 0 0 -1 0 0 0 0 1 forward_v I I I I #
coedge $-1 $325 $225 $227 $329 reversed $139 $-1 #
coedge $-1 $225 $324 $395 $396 reversed $139 $-1 #
coedge $-1 $233 $228 $225 $327 forward $223 $-1 #
edge $-1 $330 15.877808188122 $397 22.732084065778874 $326 $398 forward 7 unknown #
coedge $-1 $227 $226 $333 $399 reversed $87 $-1 #
edge $-1 $400 -95.649891659291399 $330 -85.782773874025708 $324 $401 forward 7 unknown #
vertex $-1 $229 $402 #
straight-curve $-1 40.970669951988803 1.6435964668142873 8.8204933264709808 0 -1 0 I I #
coedge $-1 $395 $230 $233 $337 reversed $322 $-1 #
coedge $-1 $230 $395 $328 $399 forward $322 $-1 #
vertex $-1 $231 $403 #
straight-curve $-1 47.824945829645678 6.8092468556797989 68.485727261418589 0 0 1 I I #
straight-curve $-1 -18.619051228926118 6.8092468556797989 70.527457464265396 0.69465836192734942 0 -0.71933980857756763 I I #
edge $-1 $397 -0.2348609884226498 $234 6.8092468556797989 $332 $404 forward 7 unknown #
point $-1 47.824945829645678 6.8092468556797989 8.8204933264709737 #
point $-1 40.970669951988803 6.8092468556797989 8.8204933264709737 #
edge $-1 $405 1 $405 0 $237 $-1 forward 7 unknown #
vertex $-1 $238 $406 #
ellipse-curve $-1 41.975077035541759 1.7777412527494825 2.9319840812510787 0.71933980857756763 0 0.69465836192734942 0.69465836192734942 0 -0.71933980857756763 1 I I #
point $-1 45.092466252744586 1.7777412527494825 4.552248208460747 #
edge $-1 $407 1 $407 0 $241 $-1 forward 7 unknown #
vertex $-1 $242 $408 #
ellipse-curve $-1 41.975077035541759 4.7966446145076773 2.9319840812510787 0.71933980857756763 0 0.69465836192734942 0.69465836192734942 0 -0.71933980857756763 1 I I #
point $-1 45.092466252744586 4.7966446145076773 4.552248208460747 #
plane-surface $-1 47.824945829645678 0 0 -1 0 0 0 0 1 forward_v I I I I #
coedge $-1 $250 $248 $252 $353 reversed $161 $-1 #
edge $-1 $263 -8.8204933264709737 $355 8.8204933264709737 $262 $409 forward 7 unknown #
vertex $-1 $353 $410 #
straight-curve $-1 -47.824945829645678 -29.313377164464882 0 0 0 -1 I I #
edge $-1 $351 -29.313377164464882 $355 29.313377164464882 $349 $411 forward 7 unknown #
straight-curve $-1 0 -29.313377164464882 -8.8204933264709737 -1 0 0 I I #
vertex $-1 $255 $412 #
straight-curve $-1 0 29.313377164464882 -8.8204933264709737 1 0 0 I I #
point $-1 47.824945829645678 29.313377164464882 -8.8204933264709737 #
point $-1 47.824945829645678 -29.313377164464882 -8.8204933264709737 #
straight-curve $-1 -47.824945829645678 0 8.8204933264709737 0 -1 0 I I #
point $-1 -47.824945829645678 29.313377164464882 8.8204933264709737 #
point $-1 -47.824945829645678 -29.313377164464882 8.8204933264709737 #
straight-curve $-1 47.824945829645678 -29.313377164464882 0 0 0 -1 I I #
straight-curve $-1 47.824945829645678 29.313377164464882 0 0 0 -1 I I #
plane-surface $-1 47.824945829645678 0 0 -1 0 0 0 0 1 forward_v I I I I #
coedge $-1 $368 $275 $286 $377 forward $180 $-1 #
coedge $-1 $275 $368 $289 $379 reversed $180 $-1 #
straight-curve $-1 47.824945829645678 -17.91052808555898 -2.9038697859371845 0 0 1 I I #
coedge $-1 $366 $365 $278 $369 forward $180 $-1 #
edge $-1 $372 6.1045517730530143 $370 17.507400851958916 $368 $413 forward 7 unknown #
vertex $-1 $280 $414 #
straight-curve $-1 0 -29.313377164464882 -8.1683326114514401 1 0 0 I I #
vertex $-1 $369 $415 #
straight-curve $-1 0 -17.91052808555898 -8.1683326114514401 1 0 0 I I #
point $-1 47.824945829645678 -29.313377164464882 -8.1683326114514401 #
point $-1 47.824945829645678 -17.91052808555898 -8.1683326114514401 #
straight-curve $-1 -47.824945829645678 -11.805976312505965 -3.447146532297297 0 1 0 I I #
edge $-1 $287 0.54327674636011247 $372 5.264462825514256 $365 $416 forward 7 unknown #
point $-1 -47.824945829645678 -17.91052808555898 -3.447146532297297 #
edge $-1 $291 3.447146532297297 $370 8.1683326114514401 $366 $417 forward 7 unknown #
point $-1 -47.824945829645678 -29.313377164464882 -3.447146532297297 #
straight-curve $-1 47.824945829645678 -29.313377164464882 0 0 0 -1 I I #
edge $-1 $383 25.262846556617752 $386 32.360657175483077 $297 $418 forward 7 unknown #
vertex $-1 $311 $419 #
straight-curve $-1 -58.314860293152691 6.8092468556797989 8.8204933264709737 -1 0 0 I I #
edge $-1 $386 -5.1656503888655116 $308 1.8784574552369371 $307 $420 forward 7 unknown #
vertex $-1 $385 $421 #
straight-curve $-1 -47.824945829645657 6.8092468556797989 1.7226827076056708 0.69465836192734942 0 0.71933980857756763 I I #
point $-1 -40.97066995198881 6.8092468556797989 8.8204933264709737 #
point $-1 -47.824945829645678 -0.2348609884226498 1.7226827076056488 #
straight-curve $-1 -47.824945829645678 0 8.8204933264709737 0 -1 0 I I #
vertex $-1 $314 $422 #
point $-1 -41.280418673614427 1.7777412527494825 3.6513238898286606 #
vertex $-1 $318 $423 #
point $-1 -41.280418673614427 4.7966446145076773 3.6513238898286606 #
coedge $-1 $333 $332 $325 $396 forward $322 $-1 #
edge $-1 $397 59.665233934947615 $400 66.763044553812946 $395 $424 forward 7 unknown #
vertex $-1 $337 $425 #
straight-curve $-1 25.092861763866804 -0.2348609884226498 8.8204933264709666 1 0 0 I I #
edge $-1 $400 -1.8784574552369371 $334 5.1656503888655116 $333 $426 forward 7 unknown #
vertex $-1 $399 $427 #
straight-curve $-1 -18.619051228926118 -0.2348609884226498 70.527457464265396 -0.69465836192734942 0 0.71933980857756763 I I #
point $-1 40.970669951988803 -0.2348609884226498 8.8204933264709737 #
point $-1 47.824945829645678 6.8092468556797989 1.7226827076056423 #
straight-curve $-1 47.824945829645678 0 8.8204933264709737 0 1 0 I I #
vertex $-1 $340 $428 #
point $-1 42.669735397469104 1.7777412527494825 2.2126442726735114 #
vertex $-1 $344 $429 #
point $-1 42.669735397469104 4.7966446145076773 2.2126442726735114 #
straight-curve $-1 -47.824945829645678 29.313377164464882 0 0 0 -1 I I #
point $-1 -47.824945829645678 -29.313377164464882 -8.8204933264709737 #
straight-curve $-1 -47.824945829645678 0 -8.8204933264709737 0 1 0 I I #
point $-1 -47.824945829645678 29.313377164464882 -8.8204933264709737 #
straight-curve $-1 -47.824945829645678 -11.805976312505965 -8.1683326114514401 0 -1 0 I I #
point $-1 -47.824945829645678 -29.313377164464882 -8.1683326114514401 #
point $-1 -47.824945829645678 -17.91052808555898 -8.1683326114514401 #
straight-curve $-1 -47.824945829645678 -17.91052808555898 -2.9038697859371845 0 0 -1 I I #
straight-curve $-1 -47.824945829645678 -29.313377164464882 0 0 0 -1 I I #
straight-curve $-1 -47.824945829645678 6.8092468556797989 34.083339883088726 0 0 -1 I I #
point $-1 -47.824945829645678 6.8092468556797989 8.8204933264709737 #
straight-curve $-1 -47.824945829645678 1.6435964668142873 1.7226827076056554 0 -1 0 I I #
point $-1 -47.824945829645678 6.8092468556797989 1.7226827076056488 #
point $-1 -41.255737226964207 1.7777412527494825 2.2373257193237439 #
point $-1 -41.255737226964207 4.7966446145076773 2.2373257193237439 #
straight-curve $-1 47.824945829645678 -0.2348609884226498 68.485727261418589 0 0 -1 I I #
point $-1 47.824945829645678 -0.2348609884226498 8.8204933264709737 #
straight-curve $-1 47.824945829645678 1.6435964668142873 1.7226827076056423 0 1 0 I I #
point $-1 47.824945829645678 -0.2348609884226498 1.7226827076056423 #
point $-1 41.255737226964186 1.7777412527494825 2.2373257193237297 #
point $-1 41.255737226964186 4.7966446145076773 2.2373257193237297 #
End-of-ACIS-data 