500 0 8 0           
7 Unknown 11 ACIS 5.0 NT 24 Thu Mar 25 18:44:24 1999 
-1 9.9999999999999995e-007 1e-010 
body $-1 $8 $-1 $9 #
body $-1 $10 $-1 $11 #
body $-1 $12 $-1 $13 #
body $-1 $14 $-1 $15 #
body $-1 $16 $-1 $17 #
body $-1 $18 $-1 $19 #
body $-1 $20 $-1 $21 #
body $-1 $22 $-1 $23 #
lump $-1 $-1 $24 $0 #
transform $-1 1 0 0 0 1 0 0 0 1 43.244727927488022 18.96514983949692 6.3413182369913672 1 rotate no_reflect no_shear #
lump $-1 $-1 $25 $1 #
transform $-1 1 0 0 0 1 0 0 0 1 43.244727927488022 18.96514983949692 6.3413182369913672 1 rotate no_reflect no_shear #
lump $-1 $-1 $26 $2 #
transform $-1 1 0 0 0 1 0 0 0 1 43.244727927488022 18.96514983949692 6.3413182369913672 1 rotate no_reflect no_shear #
lump $-1 $-1 $27 $3 #
transform $-1 1 0 0 0 1 0 0 0 1 43.244727927488022 18.96514983949692 6.3413182369913672 1 rotate no_reflect no_shear #
lump $-1 $-1 $28 $4 #
transform $-1 1 0 0 0 1 0 0 0 1 43.244727927488022 18.96514983949692 6.3413182369913672 1 rotate no_reflect no_shear #
lump $-1 $-1 $29 $5 #
transform $-1 1 0 0 0 1 0 0 0 1 43.244727927488022 18.96514983949692 6.3413182369913672 1 rotate no_reflect no_shear #
lump $-1 $-1 $30 $6 #
transform $-1 1 0 0 0 1 0 0 0 1 43.244727927488022 18.96514983949692 6.3413182369913672 1 rotate no_reflect no_shear #
lump $-1 $-1 $31 $7 #
transform $-1 1 0 0 0 1 0 0 0 1 43.244727927488022 18.96514983949692 6.3413182369913672 1 rotate no_reflect no_shear #
shell $-1 $-1 $-1 $32 $-1 $8 #
shell $-1 $-1 $-1 $33 $-1 $10 #
shell $-1 $-1 $-1 $34 $-1 $12 #
shell $-1 $-1 $-1 $35 $-1 $14 #
shell $-1 $-1 $-1 $36 $-1 $16 #
shell $-1 $-1 $-1 $37 $-1 $18 #
shell $-1 $-1 $-1 $38 $-1 $20 #
shell $-1 $-1 $-1 $39 $-1 $22 #
face $-1 $40 $41 $24 $-1 $42 forward single #
face $-1 $43 $44 $25 $-1 $45 forward single #
face $-1 $46 $47 $26 $-1 $48 reversed single #
face $-1 $49 $50 $27 $-1 $51 forward single #
face $-1 $52 $53 $28 $-1 $54 forward single #
face $-1 $55 $56 $29 $-1 $57 reversed single #
face $-1 $58 $59 $30 $-1 $60 forward single #
face $-1 $61 $62 $31 $-1 $63 forward single #
face $-1 $64 $65 $24 $-1 $66 reversed single #
loop $-1 $-1 $67 $32 #
plane-surface $-1 0 0 6.3413182369913672 0 0 1 1 0 0 forward_v I I I I #
face $-1 $68 $69 $25 $-1 $70 reversed single #
loop $-1 $-1 $71 $33 #
plane-surface $-1 -39.783932259997997 0 5.5617902051798955 0 0 1 1 0 0 forward_v I I I I #
face $-1 $72 $73 $26 $-1 $74 reversed single #
loop $-1 $-1 $75 $34 #
plane-surface $-1 33.828051947932593 72.212372883307665 80.076928980947699 1 0 0 0 -0.84804810408105047 -0.52991925155115449 forward_v I I I I #
face $-1 $76 $77 $27 $-1 $78 forward single #
loop $-1 $79 $80 $35 #
cone-surface $-1 36.518530799234149 16.936249026801391 3.7741261514771791 0 -0.84804810408105047 -0.52991925155115449 1 0 0 1 I I 0 1 1 forward I I I I #
face $-1 $81 $82 $28 $-1 $83 forward single #
loop $-1 $84 $85 $36 #
cone-surface $-1 40.554249076186473 16.936249026801391 3.7741261514771791 0 -0.84804810408105047 -0.52991925155115449 1 0 0 1 I I 0 1 1 forward I I I I #
face $-1 $86 $87 $29 $-1 $88 reversed single #
loop $-1 $-1 $89 $37 #
plane-surface $-1 22.531581367166691 -88.936590168224171 52.526800590332357 -1 0 0 0 -0.80901700255871778 0.5877852410284794 forward_v I I I I #
face $-1 $90 $91 $30 $-1 $92 forward single #
loop $-1 $93 $94 $38 #
cone-surface $-1 13.931783027447885 -16.818102100585481 3.683269085453289 0 0.80901700255871778 -0.5877852410284794 0.5 0 0 1 I I 0 1 0.5 forward I I I I #
face $-1 $95 $96 $31 $-1 $97 forward single #
loop $-1 $98 $99 $39 #
cone-surface $-1 19.091662031279164 -16.818102100585481 3.683269085453289 0 0.80901700255871778 -0.5877852410284794 0.5 0 0 1 I I 0 1 0.5 forward I I I I #
face $-1 $100 $101 $24 $-1 $102 reversed single #
loop $-1 $-1 $103 $40 #
plane-surface $-1 0 0 -6.3413182369913672 0 0 1 1 0 0 forward_v I I I I #
coedge $-1 $104 $105 $106 $107 forward $41 $-1 #
face $-1 $108 $109 $25 $-1 $110 reversed single #
loop $-1 $-1 $111 $43 #
plane-surface $-1 -39.783932259997997 0 2.5617902051798955 0 0 1 1 0 0 forward_v I I I I #
coedge $-1 $112 $113 $114 $115 forward $44 $-1 #
face $-1 $116 $117 $26 $-1 $118 forward single #
loop $-1 $-1 $119 $46 #
plane-surface $-1 38.536389937710304 -1.1348461775064607 34.244501267212186 0 0.84804810408105047 0.52991925155115449 1 0 0 forward_v I I I I #
coedge $-1 $120 $121 $122 $123 reversed $47 $-1 #
face $-1 $-1 $124 $27 $-1 $125 forward single #
loop $-1 $126 $127 $49 #
cone-surface $-1 36.518530799234149 15.81540051251903 3.0737422900754146 0 -0.84804810408105047 -0.52991925155115449 0.5 0 0 1 I I -0.70710678118654746 0.70710678118654746 0.5 forward I I I I #
loop $-1 $-1 $128 $35 #
coedge $-1 $80 $80 $129 $130 reversed $50 $-1 #
face $-1 $-1 $131 $28 $-1 $132 forward single #
loop $-1 $133 $134 $52 #
cone-surface $-1 40.554249076186473 15.81540051251903 3.0737422900754146 0 -0.84804810408105047 -0.52991925155115449 0.5 0 0 1 I I -0.70710678118654746 0.70710678118654746 0.5 forward I I I I #
loop $-1 $-1 $135 $36 #
coedge $-1 $85 $85 $136 $137 reversed $53 $-1 #
face $-1 $138 $139 $29 $-1 $140 reversed single #
loop $-1 $-1 $141 $55 #
plane-surface $-1 16.511722529363531 -18.965149839496902 1.6895749341932316 0 -0.80901700255871778 0.5877852410284794 1 0 0 forward_v I I I I #
coedge $-1 $142 $143 $144 $145 reversed $56 $-1 #
face $-1 $-1 $146 $30 $-1 $147 forward single #
loop $-1 $148 $149 $58 #
cone-surface $-1 13.931783027447885 -16.158644730980633 3.2041452750571535 0 0.80901700255871778 -0.5877852410284794 0.25 0 0 1 I I -0.70710678118654746 0.70710678118654746 0.25 forward I I I I #
loop $-1 $-1 $150 $38 #
coedge $-1 $94 $94 $151 $152 reversed $59 $-1 #
face $-1 $-1 $153 $31 $-1 $154 forward single #
loop $-1 $155 $156 $61 #
cone-surface $-1 19.091662031279164 -16.158644730980633 3.2041452750571535 0 0.80901700255871778 -0.5877852410284794 0.25 0 0 1 I I -0.70710678118654746 0.70710678118654746 0.25 forward I I I I #
loop $-1 $-1 $157 $39 #
coedge $-1 $99 $99 $158 $159 reversed $62 $-1 #
face $-1 $160 $161 $24 $-1 $162 reversed single #
loop $-1 $-1 $163 $64 #
plane-surface $-1 0 -18.96514983949692 0 0 1 0 0 0 1 forward_v I I I I #
coedge $-1 $164 $165 $166 $167 forward $65 $-1 #
coedge $-1 $168 $67 $169 $170 forward $41 $-1 #
coedge $-1 $67 $168 $171 $172 forward $41 $-1 #
coedge $-1 $173 $174 $67 $107 reversed $175 $-1 #
edge $-1 $176 -18.96514983949692 $177 18.96514983949692 $106 $178 forward 7 unknown #
face $-1 $179 $180 $25 $-1 $181 reversed single #
loop $-1 $-1 $182 $68 #
plane-surface $-1 -36.323136592507979 0 4.0617902051798955 -1 0 0 0 0 1 forward_v I I I I #
coedge $-1 $183 $184 $185 $186 forward $69 $-1 #
coedge $-1 $187 $71 $188 $189 reversed $44 $-1 #
coedge $-1 $71 $187 $190 $191 reversed $44 $-1 #
coedge $-1 $182 $192 $71 $115 reversed $109 $-1 #
edge $-1 $193 -18.96514983949692 $194 18.96514983949692 $114 $195 forward 7 unknown #
face $-1 $196 $197 $26 $-1 $198 reversed single #
loop $-1 $-1 $122 $72 #
plane-surface $-1 0 0 6.3413182369913672 0 0 1 1 0 0 forward_v I I I I #
coedge $-1 $199 $200 $201 $202 reversed $73 $-1 #
coedge $-1 $121 $75 $203 $204 reversed $47 $-1 #
coedge $-1 $75 $120 $199 $205 reversed $47 $-1 #
coedge $-1 $201 $206 $75 $123 forward $117 $-1 #
edge $-1 $207 17.141036602156912 $208 19.805189303064267 $122 $209 forward 7 unknown #
loop $-1 $-1 $129 $76 #
plane-surface $-1 38.536389937710304 -1.1348461775064607 34.244501267212186 0 0.84804810408105047 0.52991925155115449 1 0 0 forward_v I I I I #
loop $-1 $-1 $210 $49 #
coedge $-1 $127 $127 $128 $211 reversed $77 $-1 #
coedge $-1 $128 $128 $127 $211 forward $79 $-1 #
coedge $-1 $129 $129 $80 $130 forward $124 $-1 #
edge $-1 $212 -7.500685158285799e-016 $212 6.2831853071795996 $129 $213 forward 7 unknown #
loop $-1 $-1 $136 $81 #
plane-surface $-1 38.536389937710304 -1.1348461775064607 34.244501267212186 0 0.84804810408105047 0.52991925155115449 1 0 0 forward_v I I I I #
loop $-1 $-1 $214 $52 #
coedge $-1 $134 $134 $135 $215 reversed $82 $-1 #
coedge $-1 $135 $135 $134 $215 forward $84 $-1 #
coedge $-1 $136 $136 $85 $137 forward $131 $-1 #
edge $-1 $216 -7.500685158285799e-016 $216 6.2831853071795996 $136 $217 forward 7 unknown #
face $-1 $218 $219 $29 $-1 $220 reversed single #
loop $-1 $-1 $221 $86 #
plane-surface $-1 10.491863691560372 -88.936590168224171 52.526800590332357 1 0 0 0 0.80901700255871778 -0.5877852410284794 forward_v I I I I #
coedge $-1 $222 $223 $224 $225 reversed $87 $-1 #
coedge $-1 $143 $89 $226 $227 reversed $56 $-1 #
coedge $-1 $89 $142 $222 $228 reversed $56 $-1 #
coedge $-1 $224 $229 $89 $145 forward $230 $-1 #
edge $-1 $231 25.503145244615165 $232 28.882834484507725 $144 $233 forward 7 unknown #
loop $-1 $-1 $151 $90 #
plane-surface $-1 16.511722529363531 -18.965149839496902 1.6895749341932316 0 -0.80901700255871778 0.5877852410284794 1 0 0 forward_v I I I I #
loop $-1 $-1 $234 $58 #
coedge $-1 $149 $149 $150 $235 reversed $91 $-1 #
coedge $-1 $150 $150 $149 $235 forward $93 $-1 #
coedge $-1 $151 $151 $94 $152 forward $146 $-1 #
edge $-1 $236 5.3937330024379315e-016 $236 6.2831853071796013 $151 $237 forward 7 unknown #
loop $-1 $-1 $158 $95 #
plane-surface $-1 16.511722529363531 -18.965149839496902 1.6895749341932316 0 -0.80901700255871778 0.5877852410284794 1 0 0 forward_v I I I I #
loop $-1 $-1 $238 $61 #
coedge $-1 $156 $156 $157 $239 reversed $96 $-1 #
coedge $-1 $157 $157 $156 $239 forward $98 $-1 #
coedge $-1 $158 $158 $99 $159 forward $153 $-1 #
edge $-1 $240 5.3937330024379315e-016 $240 6.2831853071796013 $158 $241 forward 7 unknown #
face $-1 $242 $243 $24 $-1 $244 reversed single #
loop $-1 $-1 $245 $100 #
plane-surface $-1 -43.244727927488022 0 0 1 0 0 0 0 -1 forward_v I I I I #
coedge $-1 $246 $171 $247 $248 forward $101 $-1 #
coedge $-1 $249 $103 $246 $250 forward $65 $-1 #
coedge $-1 $103 $249 $251 $252 forward $65 $-1 #
coedge $-1 $174 $173 $103 $167 reversed $175 $-1 #
edge $-1 $253 -18.96514983949692 $254 18.96514983949692 $166 $255 forward 7 unknown #
coedge $-1 $105 $104 $256 $257 forward $41 $-1 #
coedge $-1 $258 $259 $104 $170 reversed $243 $-1 #
edge $-1 $177 -43.244727927488022 $260 43.244727927488022 $169 $261 forward 7 unknown #
coedge $-1 $163 $262 $105 $172 reversed $101 $-1 #
edge $-1 $263 -43.244727927488022 $176 43.244727927488022 $171 $264 forward 7 unknown #
coedge $-1 $166 $106 $262 $265 forward $175 $-1 #
coedge $-1 $106 $166 $258 $266 reversed $175 $-1 #
loop $-1 $-1 $173 $242 #
vertex $-1 $107 $267 #
vertex $-1 $107 $268 #
straight-curve $-1 43.244727927488022 0 6.3413182369913672 0 1 0 I I #
face $-1 $269 $270 $25 $-1 $271 reversed single #
loop $-1 $-1 $272 $108 #
plane-surface $-1 0 -18.96514983949692 0 0 1 0 0 0 1 forward_v I I I I #
coedge $-1 $185 $114 $273 $274 reversed $109 $-1 #
coedge $-1 $275 $111 $272 $276 reversed $69 $-1 #
coedge $-1 $111 $275 $277 $278 reversed $69 $-1 #
coedge $-1 $192 $182 $111 $186 reversed $109 $-1 #
edge $-1 $279 -18.96514983949692 $280 18.96514983949692 $185 $281 forward 7 unknown #
coedge $-1 $113 $112 $282 $283 reversed $44 $-1 #
coedge $-1 $284 $285 $112 $189 forward $286 $-1 #
edge $-1 $287 -23.352761797489016 $194 -16.43117046250898 $188 $288 forward 7 unknown #
coedge $-1 $289 $273 $113 $191 forward $180 $-1 #
edge $-1 $193 16.43117046250898 $290 23.352761797489016 $190 $291 forward 7 unknown #
coedge $-1 $114 $185 $284 $292 reversed $109 $-1 #
vertex $-1 $191 $293 #
vertex $-1 $189 $294 #
straight-curve $-1 -36.323136592507979 0 5.5617902051798955 0 1 0 I I #
face $-1 $-1 $295 $26 $-1 $296 reversed single #
loop $-1 $-1 $297 $116 #
plane-surface $-1 43.244727927488022 0 0 -1 0 0 0 0 1 forward_v I I I I #
coedge $-1 $298 $119 $121 $205 forward $73 $-1 #
coedge $-1 $119 $298 $297 $299 reversed $73 $-1 #
coedge $-1 $300 $122 $119 $202 forward $117 $-1 #
edge $-1 $208 14.559856979077441 $301 23.976532958632863 $201 $302 forward 7 unknown #
coedge $-1 $303 $304 $120 $204 forward $295 $-1 #
edge $-1 $305 -37.960681953258415 $207 -33.697146253482479 $203 $306 forward 7 unknown #
edge $-1 $208 32.902830506834114 $305 37.930299678993777 $121 $307 forward 7 unknown #
coedge $-1 $122 $300 $303 $308 forward $117 $-1 #
vertex $-1 $204 $309 #
vertex $-1 $123 $310 #
straight-curve $-1 33.828051947932593 36.106186441653833 6.3413182369913699 0 -1 0 I I #
coedge $-1 $210 $210 $-1 $311 reversed $126 $-1 #
edge $-1 $312 0 $312 6.2831853071796004 $127 $313 forward 7 unknown #
vertex $-1 $130 $314 #
ellipse-curve $-1 36.518530799234149 17.633073489043252 4.2095503871033833 0 0.84804810408105047 0.52991925155115449 1 0 0 1 I I #
coedge $-1 $214 $214 $-1 $315 reversed $133 $-1 #
edge $-1 $316 0 $316 6.2831853071796004 $134 $317 forward 7 unknown #
vertex $-1 $137 $318 #
ellipse-curve $-1 40.554249076186473 17.633073489043252 4.2095503871033833 0 0.84804810408105047 0.52991925155115449 1 0 0 1 I I #
face $-1 $-1 $230 $29 $-1 $319 forward single #
loop $-1 $-1 $320 $138 #
plane-surface $-1 0 -18.96514983949692 0 0 1 0 0 0 1 forward_v I I I I #
coedge $-1 $321 $322 $323 $324 reversed $139 $-1 #
coedge $-1 $325 $141 $143 $228 forward $87 $-1 #
coedge $-1 $141 $325 $321 $326 forward $87 $-1 #
coedge $-1 $323 $144 $141 $225 forward $230 $-1 #
edge $-1 $232 -14.275720102484925 $327 -2.2360024268786063 $224 $328 forward 7 unknown #
coedge $-1 $329 $330 $142 $227 forward $219 $-1 #
edge $-1 $331 -24.573825360972972 $231 -19.922082058174812 $226 $332 forward 7 unknown #
edge $-1 $232 -5.7498708779739349 $331 3.0201328008180829e-014 $143 $333 forward 7 unknown #
coedge $-1 $144 $323 $329 $334 forward $230 $-1 #
loop $-1 $-1 $323 $218 #
vertex $-1 $227 $335 #
vertex $-1 $145 $336 #
straight-curve $-1 22.531581367166691 -44.468295084112086 6.3413182369913663 0 1 0 I I #
coedge $-1 $234 $234 $-1 $337 reversed $148 $-1 #
edge $-1 $338 0 $338 6.2831853071796004 $149 $339 forward 7 unknown #
vertex $-1 $152 $340 #
ellipse-curve $-1 13.931783027447885 -17.275305219550635 4.0154465855922936 0 -0.80901700255871778 0.5877852410284794 0.5 0 0 1 I I #
coedge $-1 $238 $238 $-1 $341 reversed $155 $-1 #
edge $-1 $342 0 $342 6.2831853071796004 $156 $343 forward 7 unknown #
vertex $-1 $159 $344 #
ellipse-curve $-1 19.091662031279164 -17.275305219550635 4.0154465855922936 0 -0.80901700255871778 0.5877852410284794 0.5 0 0 1 I I #
face $-1 $-1 $175 $24 $-1 $345 reversed single #
loop $-1 $-1 $258 $160 #
plane-surface $-1 0 18.96514983949692 0 0 -1 0 0 0 -1 forward_v I I I I #
coedge $-1 $346 $256 $259 $347 forward $161 $-1 #
coedge $-1 $262 $163 $164 $250 reversed $101 $-1 #
coedge $-1 $256 $346 $163 $248 reversed $161 $-1 #
edge $-1 $263 -6.3413182369913672 $348 6.3413182369913672 $247 $349 forward 7 unknown #
coedge $-1 $165 $164 $346 $350 forward $65 $-1 #
edge $-1 $254 -43.244727927488022 $348 43.244727927488022 $246 $351 forward 7 unknown #
coedge $-1 $259 $258 $165 $252 reversed $243 $-1 #
edge $-1 $352 -43.244727927488022 $253 43.244727927488022 $251 $353 forward 7 unknown #
vertex $-1 $167 $354 #
vertex $-1 $265 $355 #
straight-curve $-1 43.244727927488022 0 -6.3413182369913672 0 -1 0 I I #
coedge $-1 $245 $247 $168 $257 reversed $161 $-1 #
edge $-1 $260 -18.96514983949692 $263 18.96514983949692 $256 $356 forward 7 unknown #
coedge $-1 $251 $169 $174 $266 forward $243 $-1 #
coedge $-1 $169 $251 $245 $347 reversed $243 $-1 #
vertex $-1 $170 $357 #
straight-curve $-1 0 18.96514983949692 6.3413182369913672 -1 0 0 I I #
coedge $-1 $171 $246 $173 $265 reversed $101 $-1 #
vertex $-1 $257 $358 #
straight-curve $-1 0 -18.96514983949692 6.3413182369913672 1 0 0 I I #
edge $-1 $176 -6.3413182369913672 $254 6.3413182369913672 $173 $359 forward 7 unknown #
edge $-1 $177 -6.3413182369913672 $253 6.3413182369913672 $174 $360 forward 7 unknown #
point $-1 43.244727927488022 -18.96514983949692 6.3413182369913672 #
point $-1 43.244727927488022 18.96514983949692 6.3413182369913672 #
face $-1 $-1 $286 $25 $-1 $361 reversed single #
loop $-1 $-1 $362 $179 #
plane-surface $-1 -43.244727927488022 0 0 1 0 0 0 0 -1 forward_v I I I I #
coedge $-1 $273 $289 $183 $276 forward $180 $-1 #
coedge $-1 $190 $272 $182 $274 forward $180 $-1 #
edge $-1 $280 0.53089510258994776 $193 3.5308951025899478 $273 $363 forward 7 unknown #
coedge $-1 $184 $183 $362 $364 reversed $69 $-1 #
edge $-1 $365 -23.352761797489016 $280 -16.43117046250898 $272 $366 forward 7 unknown #
coedge $-1 $285 $284 $184 $278 forward $286 $-1 #
edge $-1 $279 16.43117046250898 $367 23.352761797489016 $277 $368 forward 7 unknown #
vertex $-1 $278 $369 #
vertex $-1 $276 $370 #
straight-curve $-1 -36.323136592507979 0 2.5617902051798955 0 -1 0 I I #
coedge $-1 $371 $372 $187 $283 forward $270 $-1 #
edge $-1 $290 -18.96514983949692 $287 18.96514983949692 $282 $373 forward 7 unknown #
coedge $-1 $277 $188 $192 $292 forward $286 $-1 #
coedge $-1 $188 $277 $371 $374 reversed $286 $-1 #
loop $-1 $-1 $277 $269 #
vertex $-1 $374 $375 #
straight-curve $-1 -19.891966129998998 18.96514983949692 5.5617902051798955 1 0 0 I I #
coedge $-1 $272 $190 $372 $376 forward $180 $-1 #
vertex $-1 $376 $377 #
straight-curve $-1 -19.891966129998998 -18.96514983949692 5.5617902051798955 -1 0 0 I I #
edge $-1 $194 -3.5308951025899478 $279 -0.53089510258994776 $284 $378 forward 7 unknown #
point $-1 -36.323136592507979 -18.96514983949692 5.5617902051798955 #
point $-1 -36.323136592507979 18.96514983949692 5.5617902051798955 #
loop $-1 $-1 $203 $196 #
plane-surface $-1 0 18.96514983949692 0 0 -1 0 0 0 -1 forward_v I I I I #
coedge $-1 $379 $380 $200 $299 forward $197 $-1 #
coedge $-1 $200 $199 $304 $381 reversed $73 $-1 #
edge $-1 $301 18.081649900898945 $382 23.109119073058615 $297 $383 forward 7 unknown #
coedge $-1 $206 $201 $380 $384 forward $117 $-1 #
vertex $-1 $384 $385 #
straight-curve $-1 19.268194968855152 16.300997138589565 6.3413182369913699 1 0 0 I I #
coedge $-1 $386 $203 $206 $308 reversed $295 $-1 #
coedge $-1 $203 $386 $298 $381 forward $295 $-1 #
vertex $-1 $204 $387 #
straight-curve $-1 33.828051947932593 18.96514983949692 40.038464490473849 0 0 1 I I #
straight-curve $-1 33.828051947932593 -1.1348461775064607 34.244501267212186 0 0.52991925155115449 -0.84804810408105047 I I #
edge $-1 $388 -43.244727927488022 $207 -33.828051947932593 $303 $389 forward 7 unknown #
point $-1 33.828051947932593 18.96514983949692 6.3413182369913672 #
point $-1 33.828051947932593 16.300997138589565 6.3413182369913663 #
edge $-1 $390 1 $390 0 $210 $-1 forward 7 unknown #
vertex $-1 $211 $391 #
ellipse-curve $-1 36.518530799234149 16.239424564559556 3.3387019158509919 0 0.84804810408105047 0.52991925155115449 1 0 0 1 I I #
point $-1 37.518530799234149 17.633073489043223 4.2095503871033664 #
edge $-1 $392 1 $392 0 $214 $-1 forward 7 unknown #
vertex $-1 $215 $393 #
ellipse-curve $-1 40.554249076186473 16.239424564559556 3.3387019158509919 0 0.84804810408105047 0.52991925155115449 1 0 0 1 I I #
point $-1 41.554249076186473 17.633073489043223 4.2095503871033664 #
plane-surface $-1 0 0 6.3413182369913672 0 0 1 1 0 0 forward_v I I I I #
coedge $-1 $330 $329 $322 $394 forward $219 $-1 #
coedge $-1 $322 $221 $223 $326 reversed $139 $-1 #
coedge $-1 $221 $321 $320 $394 reversed $139 $-1 #
coedge $-1 $229 $224 $221 $324 forward $230 $-1 #
edge $-1 $327 -28.882834484507725 $395 -25.503145244615165 $323 $396 forward 7 unknown #
coedge $-1 $223 $222 $330 $397 reversed $87 $-1 #
edge $-1 $398 -3.0201328008180829e-014 $327 5.7498708779739349 $321 $399 forward 7 unknown #
vertex $-1 $225 $400 #
straight-curve $-1 8.2558612646817657 -15.585460599604358 6.3413182369913672 -1 0 0 I I #
coedge $-1 $320 $226 $229 $334 reversed $219 $-1 #
coedge $-1 $226 $320 $325 $397 forward $219 $-1 #
vertex $-1 $227 $401 #
straight-curve $-1 22.531581367166691 -18.965149839496917 26.263400295166178 0 0 1 I I #
straight-curve $-1 22.531581367166691 -18.965149839496902 1.6895749341932316 0 -0.5877852410284794 -0.80901700255871778 I I #
edge $-1 $395 10.491863691560372 $231 22.531581367166691 $329 $402 forward 7 unknown #
point $-1 22.531581367166691 -18.96514983949692 6.3413182369913672 #
point $-1 22.531581367166691 -15.585460599604358 6.3413182369913672 #
edge $-1 $403 1 $403 0 $234 $-1 forward 7 unknown #
vertex $-1 $235 $404 #
ellipse-curve $-1 13.931783027447885 -16.360898981620313 3.3510915853142733 0 -0.80901700255871778 0.5877852410284794 0.5 0 0 1 I I #
point $-1 14.431783027447885 -17.275305219550649 4.0154465855923043 #
edge $-1 $405 1 $405 0 $238 $-1 forward 7 unknown #
vertex $-1 $239 $406 #
ellipse-curve $-1 19.091662031279164 -16.360898981620313 3.3510915853142733 0 -0.80901700255871778 0.5877852410284794 0.5 0 0 1 I I #
point $-1 19.591662031279164 -17.275305219550649 4.0154465855923043 #
plane-surface $-1 43.244727927488022 0 0 -1 0 0 0 0 1 forward_v I I I I #
coedge $-1 $247 $245 $249 $350 reversed $161 $-1 #
edge $-1 $260 -6.3413182369913672 $352 6.3413182369913672 $259 $407 forward 7 unknown #
vertex $-1 $350 $408 #
straight-curve $-1 -43.244727927488022 -18.96514983949692 0 0 0 -1 I I #
edge $-1 $348 -18.96514983949692 $352 18.96514983949692 $346 $409 forward 7 unknown #
straight-curve $-1 0 -18.96514983949692 -6.3413182369913672 -1 0 0 I I #
vertex $-1 $252 $410 #
straight-curve $-1 0 18.96514983949692 -6.3413182369913672 1 0 0 I I #
point $-1 43.244727927488022 18.96514983949692 -6.3413182369913672 #
point $-1 43.244727927488022 -18.96514983949692 -6.3413182369913672 #
straight-curve $-1 -43.244727927488022 0 6.3413182369913672 0 -1 0 I I #
point $-1 -43.244727927488022 18.96514983949692 6.3413182369913672 #
point $-1 -43.244727927488022 -18.96514983949692 6.3413182369913672 #
straight-curve $-1 43.244727927488022 -18.96514983949692 0 0 0 -1 I I #
straight-curve $-1 43.244727927488022 18.96514983949692 0 0 0 -1 I I #
plane-surface $-1 0 18.96514983949692 0 0 -1 0 0 0 -1 forward_v I I I I #
coedge $-1 $372 $371 $275 $364 forward $270 $-1 #
straight-curve $-1 -36.323136592507979 -18.96514983949692 2.0308951025899478 0 0 1 I I #
edge $-1 $367 -18.96514983949692 $365 18.96514983949692 $362 $411 forward 7 unknown #
vertex $-1 $276 $412 #
straight-curve $-1 -19.891966129998998 -18.96514983949692 2.5617902051798955 1 0 0 I I #
vertex $-1 $278 $413 #
straight-curve $-1 -19.891966129998998 18.96514983949692 2.5617902051798955 -1 0 0 I I #
point $-1 -36.323136592507979 18.96514983949692 2.5617902051798955 #
point $-1 -36.323136592507979 -18.96514983949692 2.5617902051798955 #
coedge $-1 $362 $282 $285 $374 forward $270 $-1 #
coedge $-1 $282 $362 $289 $376 reversed $270 $-1 #
straight-curve $-1 -43.244727927488022 0 5.5617902051798955 0 1 0 I I #
edge $-1 $287 -5.5617902051798955 $367 -2.5617902051798955 $285 $414 forward 7 unknown #
point $-1 -43.244727927488015 18.96514983949692 5.5617902051798955 #
edge $-1 $290 -5.5617902051798955 $365 -2.5617902051798955 $372 $415 forward 7 unknown #
point $-1 -43.244727927488015 -18.96514983949692 5.5617902051798955 #
straight-curve $-1 -36.323136592507979 18.96514983949692 2.0308951025899478 0 0 -1 I I #
coedge $-1 $380 $297 $386 $416 reversed $197 $-1 #
coedge $-1 $297 $379 $300 $384 reversed $197 $-1 #
edge $-1 $382 -23.976532958632863 $305 -14.559856979077441 $304 $417 forward 7 unknown #
vertex $-1 $299 $418 #
straight-curve $-1 43.244727927488022 6.71918275629519 21.675427154106032 0 0.52991925155115449 -0.84804810408105047 I I #
edge $-1 $301 16.300997138589565 $388 18.96514983949692 $380 $419 forward 7 unknown #
point $-1 43.244727927488015 16.300997138589565 6.3413182369913663 #
coedge $-1 $304 $303 $379 $416 forward $295 $-1 #
point $-1 33.828051947932593 18.96514983949692 2.0777825372154339 #
vertex $-1 $384 $420 #
straight-curve $-1 0 18.96514983949692 6.3413182369913672 -1 0 0 I I #
vertex $-1 $311 $421 #
point $-1 37.518530799234149 16.239424564559556 3.3387019158509919 #
vertex $-1 $315 $422 #
point $-1 41.554249076186473 16.239424564559556 3.3387019158509919 #
edge $-1 $395 19.922082058174812 $398 24.573825360972972 $320 $423 forward 7 unknown #
vertex $-1 $334 $424 #
straight-curve $-1 10.491863691560372 -44.468295084112086 6.3413182369913663 0 -1 0 I I #
edge $-1 $398 2.2360024268786063 $331 14.275720102484925 $330 $425 forward 7 unknown #
vertex $-1 $397 $426 #
straight-curve $-1 10.491863691560372 -18.965149839496902 1.6895749341932316 0 0.5877852410284794 0.80901700255871778 I I #
point $-1 10.491863691560372 -15.585460599604358 6.3413182369913672 #
point $-1 22.531581367166691 -18.96514983949692 1.6895749341932071 #
straight-curve $-1 0 -18.96514983949692 6.3413182369913672 1 0 0 I I #
vertex $-1 $337 $427 #
point $-1 14.431783027447885 -16.360898981620313 3.3510915853142733 #
vertex $-1 $341 $428 #
point $-1 19.591662031279164 -16.360898981620313 3.3510915853142733 #
straight-curve $-1 -43.244727927488022 18.96514983949692 0 0 0 -1 I I #
point $-1 -43.244727927488022 -18.96514983949692 -6.3413182369913672 #
straight-curve $-1 -43.244727927488022 0 -6.3413182369913672 0 1 0 I I #
point $-1 -43.244727927488022 18.96514983949692 -6.3413182369913672 #
straight-curve $-1 -43.244727927488022 0 2.5617902051798955 0 -1 0 I I #
point $-1 -43.244727927488015 -18.96514983949692 2.5617902051798955 #
point $-1 -43.244727927488015 18.96514983949692 2.5617902051798955 #
straight-curve $-1 -43.244727927488022 18.96514983949692 0 0 0 -1 I I #
straight-curve $-1 -43.244727927488022 -18.96514983949692 0 0 0 -1 I I #
edge $-1 $388 -6.3413182369913672 $382 -2.0777825372154339 $379 $429 forward 7 unknown #
straight-curve $-1 19.268194968855152 18.965149839496917 2.0777825372154322 -1 0 0 I I #
point $-1 43.244727927488015 18.96514983949692 2.0777825372154339 #
straight-curve $-1 43.244727927488022 0 6.3413182369913672 0 1 0 I I #
point $-1 43.244727927488022 18.96514983949692 6.3413182369913672 #
point $-1 36.518530799234149 15.391376460478504 2.8087826642998373 #
point $-1 40.554249076186473 15.391376460478504 2.8087826642998373 #
straight-curve $-1 10.491863691560372 -18.965149839496917 26.263400295166178 0 0 -1 I I #
point $-1 10.491863691560372 -18.96514983949692 6.3413182369913672 #
straight-curve $-1 8.2558612646817657 -18.96514983949692 1.689574934193206 1 0 0 I I #
point $-1 10.491863691560372 -18.96514983949692 1.6895749341932071 #
point $-1 13.931783027447885 -15.956390480340954 3.0571989648000337 #
point $-1 19.091662031279164 -15.956390480340954 3.0571989648000337 #
straight-curve $-1 43.244727927488022 18.96514983949692 0 0 0 -1 I I #
End-of-ACIS-data 