500 0 7 0           
7 Unknown 11 ACIS 5.0 NT 24 Fri Mar 26 14:49:21 1999 
-1 9.9999999999999995e-007 1e-010 
body $-1 $7 $-1 $8 #
body $-1 $9 $-1 $10 #
body $-1 $11 $-1 $12 #
body $-1 $13 $-1 $14 #
body $-1 $15 $-1 $16 #
body $-1 $17 $-1 $18 #
body $-1 $19 $-1 $20 #
lump $-1 $-1 $21 $0 #
transform $-1 1 0 0 0 1 0 0 0 1 77.127597888119141 53.583284687774267 22.811038944522526 1 rotate no_reflect no_shear #
lump $-1 $-1 $22 $1 #
transform $-1 1 0 0 0 1 0 0 0 1 77.127597888119141 53.583284687774267 22.811038944522526 1 rotate no_reflect no_shear #
lump $-1 $-1 $23 $2 #
transform $-1 1 0 0 0 1 0 0 0 1 77.127597888119141 53.583284687774267 22.811038944522526 1 rotate no_reflect no_shear #
lump $-1 $-1 $24 $3 #
transform $-1 1 0 0 0 1 0 0 0 1 77.127597888119141 53.583284687774267 22.811038944522526 1 rotate no_reflect no_shear #
lump $-1 $-1 $25 $4 #
transform $-1 1 0 0 0 1 0 0 0 1 77.127597888119141 53.583284687774267 22.811038944522526 1 rotate no_reflect no_shear #
lump $-1 $-1 $26 $5 #
transform $-1 1 0 0 0 1 0 0 0 1 77.127597888119141 53.583284687774267 22.811038944522526 1 rotate no_reflect no_shear #
lump $-1 $-1 $27 $6 #
transform $-1 1 0 0 0 1 0 0 0 1 77.127597888119141 53.583284687774267 22.811038944522526 1 rotate no_reflect no_shear #
shell $-1 $-1 $-1 $28 $-1 $7 #
shell $-1 $-1 $-1 $29 $-1 $9 #
shell $-1 $-1 $-1 $30 $-1 $11 #
shell $-1 $-1 $-1 $31 $-1 $13 #
shell $-1 $-1 $-1 $32 $-1 $15 #
shell $-1 $-1 $-1 $33 $-1 $17 #
shell $-1 $-1 $-1 $34 $-1 $19 #
face $-1 $35 $36 $21 $-1 $37 forward single #
face $-1 $38 $39 $22 $-1 $40 forward single #
face $-1 $41 $42 $23 $-1 $43 forward single #
face $-1 $44 $45 $24 $-1 $46 reversed single #
face $-1 $47 $48 $25 $-1 $49 forward single #
face $-1 $50 $51 $26 $-1 $52 reversed single #
face $-1 $53 $54 $27 $-1 $55 forward single #
face $-1 $56 $57 $21 $-1 $58 reversed single #
loop $-1 $-1 $59 $28 #
plane-surface $-1 0 0 22.811038944522526 0 0 1 1 0 0 forward_v I I I I #
face $-1 $60 $61 $22 $-1 $62 reversed single #
loop $-1 $-1 $63 $29 #
plane-surface $-1 0 -53.583284687774267 0 0 1 0 0 0 1 forward_v I I I I #
face $-1 $64 $65 $23 $-1 $66 reversed single #
loop $-1 $-1 $67 $30 #
plane-surface $-1 0 53.583284687774267 0 0 -1 0 0 0 -1 forward_v I I I I #
face $-1 $68 $69 $24 $-1 $70 reversed single #
loop $-1 $-1 $71 $31 #
plane-surface $-1 126.20062631718829 6.9142533034362934 226.24382171712801 0 -1 0 -0.84804810408105047 0 -0.52991925155115449 forward_v I I I I #
face $-1 $72 $73 $25 $-1 $74 forward single #
loop $-1 $75 $76 $32 #
cone-surface $-1 71.288931777763992 1.2749951012186642 16.381360530867013 -0.84804810408105047 0 -0.52991925155115449 1.059838503102309 0 -1.6960962081621009 1 I I 0 1 2 forward I I I I #
face $-1 $77 $78 $26 $-1 $79 reversed single #
loop $-1 $-1 $80 $33 #
plane-surface $-1 -193.54547321814158 3.6300167881247631 116.2726701408701 0 1 0 -0.75470958851134928 0 0.65605901945558964 forward_v I I I I #
face $-1 $81 $82 $27 $-1 $83 forward single #
loop $-1 $84 $85 $34 #
cone-surface $-1 -72.544344714604009 10.718624658957381 17.881416374168918 0.75470958851134928 0 -0.65605901945558964 1.3121180389111793 0 1.5094191770226986 1 I I 0 1 2 forward I I I I #
face $-1 $86 $87 $21 $-1 $88 reversed single #
loop $-1 $-1 $89 $35 #
plane-surface $-1 0 0 -22.811038944522526 0 0 1 1 0 0 forward_v I I I I #
coedge $-1 $90 $91 $92 $93 forward $36 $-1 #
face $-1 $94 $95 $22 $-1 $96 reversed single #
loop $-1 $-1 $97 $38 #
plane-surface $-1 0 0 -22.811038944522526 0 0 1 1 0 0 forward_v I I I I #
coedge $-1 $98 $99 $100 $101 forward $39 $-1 #
face $-1 $102 $103 $23 $-1 $104 forward single #
loop $-1 $-1 $105 $41 #
plane-surface $-1 -77.127597888119141 0 0 1 0 0 0 0 -1 forward_v I I I I #
coedge $-1 $106 $107 $108 $109 forward $42 $-1 #
face $-1 $110 $111 $24 $-1 $112 reversed single #
loop $-1 $-1 $113 $44 #
plane-surface $-1 -4.6152000055018334 1.2749951012186642 144.50102382350701 0.84804810408105047 0 0.52991925155115449 0.52991925155115449 0 -0.84804810408105047 forward_v I I I I #
coedge $-1 $114 $115 $116 $117 reversed $45 $-1 #
face $-1 $-1 $118 $25 $-1 $119 forward single #
loop $-1 $120 $121 $47 #
cone-surface $-1 67.453446782726445 1.2749951012186642 13.984683587513185 -0.84804810408105047 0 -0.52991925155115449 0.52991925155115449 0 -0.84804810408105047 1 I I -0.70710678118654746 0.70710678118654746 1 forward I I I I #
loop $-1 $-1 $122 $32 #
coedge $-1 $76 $76 $123 $124 reversed $48 $-1 #
face $-1 $125 $126 $26 $-1 $127 reversed single #
loop $-1 $-1 $128 $50 #
plane-surface $-1 -77.127597888119169 10.718624658957381 15.072157653981208 -0.75470958851134928 0 0.65605901945558964 0.65605901945558964 0 0.75470958851134928 forward_v I I I I #
coedge $-1 $129 $130 $131 $132 reversed $51 $-1 #
face $-1 $-1 $133 $27 $-1 $134 forward single #
loop $-1 $135 $136 $53 #
cone-surface $-1 -70.570035302451046 10.718624658957381 16.165175429630377 0.75470958851134928 0 -0.65605901945558964 0.65605901945558964 0 0.75470958851134928 1 I I -0.70710678118654746 0.70710678118654746 1 forward I I I I #
loop $-1 $-1 $137 $34 #
coedge $-1 $85 $85 $138 $139 reversed $54 $-1 #
face $-1 $140 $141 $21 $-1 $142 reversed single #
loop $-1 $-1 $143 $56 #
plane-surface $-1 0 -53.583284687774267 0 0 1 0 0 0 1 forward_v I I I I #
coedge $-1 $144 $145 $146 $147 forward $57 $-1 #
coedge $-1 $148 $59 $149 $150 forward $36 $-1 #
coedge $-1 $59 $148 $151 $152 forward $36 $-1 #
coedge $-1 $153 $154 $59 $93 reversed $155 $-1 #
edge $-1 $156 -53.583284687774267 $157 53.583284687774267 $92 $158 forward 7 unknown #
face $-1 $159 $160 $22 $-1 $161 forward single #
loop $-1 $-1 $162 $60 #
plane-surface $-1 77.127597888119141 0 0 -1 0 0 0 0 1 forward_v I I I I #
coedge $-1 $163 $164 $165 $166 forward $61 $-1 #
coedge $-1 $165 $63 $162 $167 reversed $39 $-1 #
coedge $-1 $63 $165 $168 $169 reversed $39 $-1 #
coedge $-1 $170 $171 $63 $101 reversed $160 $-1 #
edge $-1 $172 -77.127597888119141 $173 77.127597888119141 $100 $174 forward 7 unknown #
face $-1 $175 $176 $23 $-1 $177 reversed single #
loop $-1 $-1 $178 $64 #
plane-surface $-1 0 67.745140933160783 -13.513836725701811 0 0 1 1 0 0 forward_v I I I I #
coedge $-1 $179 $180 $106 $181 forward $65 $-1 #
coedge $-1 $182 $67 $105 $181 reversed $42 $-1 #
coedge $-1 $67 $182 $183 $184 reversed $42 $-1 #
coedge $-1 $178 $185 $67 $109 reversed $103 $-1 #
edge $-1 $186 -77.127597888119141 $187 77.127597888119141 $108 $188 forward 7 unknown #
face $-1 $189 $190 $24 $-1 $191 forward single #
loop $-1 $-1 $192 $68 #
plane-surface $-1 126.20062631718829 -4.364263100998965 226.24382171712801 0 1 0 0.84804810408105047 0 0.52991925155115449 forward_v I I I I #
coedge $-1 $193 $194 $195 $196 reversed $69 $-1 #
coedge $-1 $115 $71 $197 $198 reversed $45 $-1 #
coedge $-1 $71 $114 $193 $199 reversed $45 $-1 #
coedge $-1 $195 $200 $71 $117 forward $190 $-1 #
edge $-1 $201 -14.027284729524993 $202 -8.3248262907277564 $116 $203 forward 7 unknown #
loop $-1 $-1 $123 $72 #
plane-surface $-1 -4.6152000055018334 1.2749951012186642 144.50102382350701 0.84804810408105047 0 0.52991925155115449 0.52991925155115449 0 -0.84804810408105047 forward_v I I I I #
loop $-1 $-1 $204 $47 #
coedge $-1 $121 $121 $122 $205 reversed $73 $-1 #
coedge $-1 $122 $122 $121 $205 forward $75 $-1 #
coedge $-1 $123 $123 $76 $124 forward $118 $-1 #
edge $-1 $206 0 $206 6.2831853071796004 $123 $207 forward 7 unknown #
face $-1 $208 $209 $26 $-1 $210 reversed single #
loop $-1 $-1 $211 $77 #
plane-surface $-1 -193.54547321814158 17.807232529789999 116.2726701408701 0 -1 0 0.75470958851134928 0 -0.65605901945558964 forward_v I I I I #
coedge $-1 $212 $213 $214 $215 reversed $78 $-1 #
coedge $-1 $130 $80 $216 $217 reversed $51 $-1 #
coedge $-1 $80 $129 $212 $218 reversed $51 $-1 #
coedge $-1 $214 $219 $80 $132 forward $220 $-1 #
edge $-1 $221 19.64513872095165 $222 26.372445420698682 $131 $223 forward 7 unknown #
loop $-1 $-1 $138 $81 #
plane-surface $-1 -77.127597888119169 10.718624658957381 15.072157653981208 -0.75470958851134928 0 0.65605901945558964 0.65605901945558964 0 0.75470958851134928 forward_v I I I I #
loop $-1 $-1 $224 $53 #
coedge $-1 $136 $136 $137 $225 reversed $82 $-1 #
coedge $-1 $137 $137 $136 $225 forward $84 $-1 #
coedge $-1 $138 $138 $85 $139 forward $133 $-1 #
edge $-1 $226 0 $226 6.2831853071796004 $138 $227 forward 7 unknown #
face $-1 $228 $229 $21 $-1 $230 reversed single #
loop $-1 $-1 $231 $86 #
plane-surface $-1 -77.127597888119141 0 0 1 0 0 0 0 -1 forward_v I I I I #
coedge $-1 $232 $151 $233 $234 forward $87 $-1 #
coedge $-1 $235 $89 $232 $236 forward $57 $-1 #
coedge $-1 $89 $235 $237 $238 forward $57 $-1 #
coedge $-1 $154 $153 $89 $147 reversed $155 $-1 #
edge $-1 $239 -53.583284687774267 $240 53.583284687774267 $146 $241 forward 7 unknown #
coedge $-1 $91 $90 $242 $243 forward $36 $-1 #
coedge $-1 $244 $245 $90 $150 reversed $229 $-1 #
edge $-1 $157 -77.127597888119141 $246 77.127597888119141 $149 $247 forward 7 unknown #
coedge $-1 $143 $248 $91 $152 reversed $87 $-1 #
edge $-1 $249 -77.127597888119141 $156 77.127597888119141 $151 $250 forward 7 unknown #
coedge $-1 $146 $92 $248 $251 forward $155 $-1 #
coedge $-1 $92 $146 $244 $252 reversed $155 $-1 #
loop $-1 $-1 $153 $228 #
vertex $-1 $93 $253 #
vertex $-1 $93 $254 #
straight-curve $-1 77.127597888119141 0 22.811038944522526 0 1 0 I I #
face $-1 $255 $256 $22 $-1 $257 reversed single #
loop $-1 $-1 $171 $94 #
plane-surface $-1 0 -67.745140933160783 -13.513836725701811 0 0 1 1 0 0 forward_v I I I I #
coedge $-1 $258 $259 $98 $167 forward $95 $-1 #
coedge $-1 $260 $97 $259 $261 forward $61 $-1 #
coedge $-1 $97 $260 $262 $263 forward $61 $-1 #
coedge $-1 $99 $98 $97 $166 reversed $39 $-1 #
edge $-1 $264 -77.127597888119141 $265 77.127597888119141 $97 $266 forward 7 unknown #
edge $-1 $265 -22.811038944522526 $173 -13.513836725701811 $162 $267 forward 7 unknown #
coedge $-1 $262 $268 $99 $169 forward $269 $-1 #
edge $-1 $172 13.513836725701811 $264 22.811038944522526 $168 $270 forward 7 unknown #
coedge $-1 $271 $100 $268 $272 forward $160 $-1 #
coedge $-1 $100 $271 $258 $273 forward $160 $-1 #
vertex $-1 $169 $274 #
vertex $-1 $273 $275 #
straight-curve $-1 0 -53.583284687774267 -13.513836725701811 1 0 0 I I #
face $-1 $276 $277 $23 $-1 $278 reversed single #
loop $-1 $-1 $279 $102 #
plane-surface $-1 0 81.9069971785473 -18.162437835112168 0 -1 0 0 0 -1 forward_v I I I I #
coedge $-1 $280 $108 $281 $282 forward $103 $-1 #
coedge $-1 $283 $105 $185 $284 reversed $65 $-1 #
coedge $-1 $105 $283 $285 $286 reversed $65 $-1 #
edge $-1 $287 -22.811038944522526 $187 -13.513836725701811 $105 $288 forward 7 unknown #
coedge $-1 $107 $106 $289 $290 reversed $42 $-1 #
coedge $-1 $291 $281 $107 $184 forward $292 $-1 #
edge $-1 $186 13.513836725701811 $293 22.811038944522526 $183 $294 forward 7 unknown #
coedge $-1 $108 $280 $179 $284 forward $103 $-1 #
vertex $-1 $184 $295 #
vertex $-1 $284 $296 #
straight-curve $-1 0 53.583284687774267 -13.513836725701811 -1 0 0 I I #
face $-1 $-1 $297 $24 $-1 $298 reversed single #
loop $-1 $-1 $116 $110 #
plane-surface $-1 0 0 22.811038944522526 0 0 1 1 0 0 forward_v I I I I #
coedge $-1 $299 $300 $301 $302 reversed $111 $-1 #
coedge $-1 $303 $113 $115 $199 forward $69 $-1 #
coedge $-1 $113 $303 $299 $304 forward $69 $-1 #
coedge $-1 $301 $116 $113 $196 forward $190 $-1 #
edge $-1 $202 -6.2767557528269613 $305 5.0017606516082971 $195 $306 forward 7 unknown #
coedge $-1 $307 $308 $114 $198 forward $297 $-1 #
edge $-1 $309 -99.436713357747095 $201 -90.310871914041485 $197 $310 forward 7 unknown #
edge $-1 $202 143.49420073387043 $309 154.25519577623822 $115 $311 forward 7 unknown #
coedge $-1 $116 $301 $307 $312 forward $190 $-1 #
vertex $-1 $198 $313 #
vertex $-1 $117 $314 #
straight-curve $-1 63.100313158594147 6.9142533034362934 22.811038944522522 -1 0 0 I I #
coedge $-1 $204 $204 $-1 $315 reversed $120 $-1 #
edge $-1 $316 0 $316 6.2831853071796004 $121 $317 forward 7 unknown #
vertex $-1 $124 $318 #
ellipse-curve $-1 74.276368668720522 1.2749951012186642 18.24811822266971 0.84804810408105047 0 0.52991925155115449 1.059838503102309 0 -1.6960962081621009 1 I I #
face $-1 $-1 $220 $26 $-1 $319 forward single #
loop $-1 $-1 $320 $125 #
plane-surface $-1 -77.127597888119141 0 0 1 0 0 0 0 -1 forward_v I I I I #
coedge $-1 $321 $322 $323 $324 reversed $126 $-1 #
coedge $-1 $325 $128 $130 $218 forward $78 $-1 #
coedge $-1 $128 $325 $321 $326 forward $78 $-1 #
coedge $-1 $323 $131 $128 $215 forward $220 $-1 #
edge $-1 $222 -1.7292955413539275 $327 12.447920200311309 $214 $328 forward 7 unknown #
coedge $-1 $329 $330 $129 $217 forward $209 $-1 #
edge $-1 $331 -43.064177416453816 $221 -35.32529612591253 $216 $332 forward 7 unknown #
edge $-1 $222 -10.254118151335698 $331 -4.2777722527798062e-014 $130 $333 forward 7 unknown #
coedge $-1 $131 $323 $329 $334 forward $220 $-1 #
loop $-1 $-1 $323 $208 #
vertex $-1 $217 $335 #
vertex $-1 $132 $336 #
straight-curve $-1 -96.77273660907079 3.6300167881247631 22.811038944522522 1 0 0 I I #
coedge $-1 $224 $224 $-1 $337 reversed $135 $-1 #
edge $-1 $338 0 $338 6.2831853071796004 $136 $339 forward 7 unknown #
vertex $-1 $139 $340 #
ellipse-curve $-1 -73.763944538245624 10.718624658957381 18.941598299251879 -0.75470958851134928 0 0.65605901945558964 1.3121180389111793 0 1.5094191770226986 1 I I #
face $-1 $-1 $155 $21 $-1 $341 reversed single #
loop $-1 $-1 $244 $140 #
plane-surface $-1 0 53.583284687774267 0 0 -1 0 0 0 -1 forward_v I I I I #
coedge $-1 $342 $242 $245 $343 forward $141 $-1 #
coedge $-1 $248 $143 $144 $236 reversed $87 $-1 #
coedge $-1 $242 $342 $143 $234 reversed $141 $-1 #
edge $-1 $249 -22.811038944522526 $344 22.811038944522526 $233 $345 forward 7 unknown #
coedge $-1 $145 $144 $342 $346 forward $57 $-1 #
edge $-1 $240 -77.127597888119141 $344 77.127597888119141 $232 $347 forward 7 unknown #
coedge $-1 $245 $244 $145 $238 reversed $229 $-1 #
edge $-1 $348 -77.127597888119141 $239 77.127597888119141 $237 $349 forward 7 unknown #
vertex $-1 $147 $350 #
vertex $-1 $251 $351 #
straight-curve $-1 77.127597888119141 0 -22.811038944522526 0 -1 0 I I #
coedge $-1 $231 $233 $148 $243 reversed $141 $-1 #
edge $-1 $246 -53.583284687774267 $249 53.583284687774267 $242 $352 forward 7 unknown #
coedge $-1 $237 $149 $154 $252 forward $229 $-1 #
coedge $-1 $149 $237 $231 $343 reversed $229 $-1 #
vertex $-1 $150 $353 #
straight-curve $-1 0 53.583284687774267 22.811038944522526 -1 0 0 I I #
coedge $-1 $151 $232 $153 $251 reversed $87 $-1 #
vertex $-1 $243 $354 #
straight-curve $-1 0 -53.583284687774267 22.811038944522526 1 0 0 I I #
edge $-1 $156 -22.811038944522526 $240 22.811038944522526 $153 $355 forward 7 unknown #
edge $-1 $157 -22.811038944522526 $239 22.811038944522526 $154 $356 forward 7 unknown #
point $-1 77.127597888119141 -53.583284687774267 22.811038944522526 #
point $-1 77.127597888119141 53.583284687774267 22.811038944522526 #
face $-1 $-1 $269 $22 $-1 $357 reversed single #
loop $-1 $-1 $358 $159 #
plane-surface $-1 0 -81.9069971785473 -18.162437835112168 0 1 0 0 0 1 forward_v I I I I #
coedge $-1 $359 $162 $171 $273 reversed $95 $-1 #
coedge $-1 $162 $359 $163 $261 reversed $95 $-1 #
coedge $-1 $164 $163 $360 $361 forward $61 $-1 #
edge $-1 $265 53.583284687774267 $362 81.9069971785473 $259 $363 forward 7 unknown #
coedge $-1 $364 $168 $164 $263 reversed $269 $-1 #
edge $-1 $365 -81.9069971785473 $264 -53.583284687774267 $262 $366 forward 7 unknown #
vertex $-1 $169 $367 #
vertex $-1 $261 $368 #
straight-curve $-1 0 -53.583284687774267 -22.811038944522526 1 0 0 I I #
straight-curve $-1 77.127597888119141 -53.583284687774267 0 0 0 1 I I #
coedge $-1 $168 $364 $170 $272 reversed $269 $-1 #
loop $-1 $-1 $168 $255 #
straight-curve $-1 -77.127597888119141 -53.583284687774267 0 0 0 -1 I I #
coedge $-1 $171 $170 $369 $370 forward $160 $-1 #
edge $-1 $172 -14.161856245386517 $371 14.161856245386517 $268 $372 forward 7 unknown #
edge $-1 $373 -14.161856245386517 $173 14.161856245386517 $258 $374 forward 7 unknown #
point $-1 -77.127597888119141 -53.583284687774267 -13.513836725701811 #
point $-1 77.127597888119141 -53.583284687774267 -13.513836725701811 #
face $-1 $-1 $292 $23 $-1 $375 reversed single #
loop $-1 $-1 $289 $175 #
plane-surface $-1 0 0 -22.811038944522526 0 0 1 1 0 0 forward_v I I I I #
coedge $-1 $376 $377 $378 $379 forward $176 $-1 #
coedge $-1 $185 $178 $377 $380 forward $103 $-1 #
coedge $-1 $183 $378 $178 $282 reversed $292 $-1 #
edge $-1 $186 -14.161856245386517 $381 14.161856245386517 $281 $382 forward 7 unknown #
coedge $-1 $180 $179 $383 $384 forward $65 $-1 #
edge $-1 $385 -14.161856245386517 $187 14.161856245386517 $179 $386 forward 7 unknown #
coedge $-1 $387 $289 $180 $286 forward $277 $-1 #
edge $-1 $287 -14.161856245386517 $388 14.161856245386517 $180 $389 forward 7 unknown #
vertex $-1 $286 $390 #
straight-curve $-1 -77.127597888119141 53.583284687774267 0 0 0 1 I I #
coedge $-1 $285 $391 $182 $290 forward $277 $-1 #
edge $-1 $293 -77.127597888119141 $287 77.127597888119141 $289 $392 forward 7 unknown #
coedge $-1 $378 $183 $391 $393 reversed $292 $-1 #
loop $-1 $-1 $183 $276 #
vertex $-1 $184 $394 #
straight-curve $-1 77.127597888119141 53.583284687774267 0 0 0 -1 I I #
point $-1 77.127597888119141 53.583284687774267 -13.513836725701811 #
point $-1 -77.127597888119141 53.583284687774267 -13.513836725701811 #
loop $-1 $-1 $197 $189 #
plane-surface $-1 77.127597888119141 0 0 -1 0 0 0 0 1 forward_v I I I I #
coedge $-1 $300 $192 $194 $304 reversed $111 $-1 #
coedge $-1 $192 $299 $395 $396 reversed $111 $-1 #
coedge $-1 $200 $195 $192 $302 forward $190 $-1 #
edge $-1 $305 8.3248262907277564 $397 14.027284729524993 $301 $398 forward 7 unknown #
coedge $-1 $194 $193 $308 $399 reversed $69 $-1 #
edge $-1 $400 -154.25519577623822 $305 -143.49420073387043 $299 $401 forward 7 unknown #
vertex $-1 $196 $402 #
straight-curve $-1 71.425139449321904 0.63749755060933211 22.811038944522537 0 -1 0 I I #
coedge $-1 $395 $197 $200 $312 reversed $297 $-1 #
coedge $-1 $197 $395 $303 $399 forward $297 $-1 #
vertex $-1 $198 $403 #
straight-curve $-1 77.127597888119141 6.9142533034362934 113.12191085856401 0 0 1 I I #
straight-curve $-1 -4.6152000055018334 6.9142533034362934 144.50102382350701 0.52991925155115449 0 -0.84804810408105047 I I #
edge $-1 $397 -4.364263100998965 $201 6.9142533034362934 $307 $404 forward 7 unknown #
point $-1 77.127597888119141 6.9142533034362934 22.811038944522526 #
point $-1 71.425139449321904 6.9142533034362934 22.811038944522508 #
edge $-1 $405 1 $405 0 $204 $-1 forward 7 unknown #
vertex $-1 $205 $406 #
ellipse-curve $-1 68.30149488680749 1.2749951012186642 14.51460283906434 0.84804810408105047 0 0.52991925155115449 1.059838503102309 0 -1.6960962081621009 1 I I #
point $-1 75.336207171822792 1.2749951012186642 16.552022014507585 #
plane-surface $-1 0 0 22.811038944522526 0 0 1 1 0 0 forward_v I I I I #
coedge $-1 $330 $329 $322 $407 forward $209 $-1 #
coedge $-1 $322 $211 $213 $326 reversed $126 $-1 #
coedge $-1 $211 $321 $320 $407 reversed $126 $-1 #
coedge $-1 $219 $214 $211 $324 forward $220 $-1 #
edge $-1 $327 -26.372445420698682 $408 -19.64513872095165 $323 $409 forward 7 unknown #
coedge $-1 $213 $212 $330 $410 reversed $78 $-1 #
edge $-1 $411 4.2777722527798062e-014 $327 10.254118151335698 $321 $412 forward 7 unknown #
vertex $-1 $215 $413 #
straight-curve $-1 -70.400291188372108 5.3593123294786906 22.811038944522526 0 1 0 I I #
coedge $-1 $320 $216 $219 $334 reversed $209 $-1 #
coedge $-1 $216 $320 $325 $410 forward $209 $-1 #
vertex $-1 $217 $414 #
straight-curve $-1 -77.127597888119141 3.6300167881247631 58.136335070435052 0 0 1 I I #
straight-curve $-1 -77.127597888119169 3.6300167881247631 15.072157653981208 -0.65605901945558964 0 -0.75470958851134928 I I #
edge $-1 $408 -17.807232529789999 $221 -3.6300167881247631 $329 $415 forward 7 unknown #
point $-1 -77.127597888119141 3.6300167881247631 22.811038944522526 #
point $-1 -70.400291188372108 3.6300167881247631 22.811038944522526 #
edge $-1 $416 1 $416 0 $224 $-1 forward 7 unknown #
vertex $-1 $225 $417 #
ellipse-curve $-1 -71.324744890962393 10.718624658957381 16.821234449085967 -0.75470958851134928 0 0.65605901945558964 1.3121180389111793 0 1.5094191770226986 1 I I #
point $-1 -72.45182649933443 10.718624658957381 20.451017476274561 #
plane-surface $-1 77.127597888119141 0 0 -1 0 0 0 0 1 forward_v I I I I #
coedge $-1 $233 $231 $235 $346 reversed $141 $-1 #
edge $-1 $246 -22.811038944522526 $348 22.811038944522526 $245 $418 forward 7 unknown #
vertex $-1 $346 $419 #
straight-curve $-1 -77.127597888119141 -53.583284687774267 0 0 0 -1 I I #
edge $-1 $344 -53.583284687774267 $348 53.583284687774267 $342 $420 forward 7 unknown #
straight-curve $-1 0 -53.583284687774267 -22.811038944522526 -1 0 0 I I #
vertex $-1 $238 $421 #
straight-curve $-1 0 53.583284687774267 -22.811038944522526 1 0 0 I I #
point $-1 77.127597888119141 53.583284687774267 -22.811038944522526 #
point $-1 77.127597888119141 -53.583284687774267 -22.811038944522526 #
straight-curve $-1 -77.127597888119141 0 22.811038944522526 0 -1 0 I I #
point $-1 -77.127597888119141 53.583284687774267 22.811038944522526 #
point $-1 -77.127597888119141 -53.583284687774267 22.811038944522526 #
straight-curve $-1 77.127597888119141 -53.583284687774267 0 0 0 -1 I I #
straight-curve $-1 77.127597888119141 53.583284687774267 0 0 0 -1 I I #
plane-surface $-1 -77.127597888119141 0 0 1 0 0 0 0 -1 forward_v I I I I #
coedge $-1 $360 $369 $364 $422 forward $256 $-1 #
coedge $-1 $259 $258 $423 $424 forward $95 $-1 #
coedge $-1 $423 $358 $260 $361 reversed $256 $-1 #
edge $-1 $362 -77.127597888119141 $365 77.127597888119141 $360 $425 forward 7 unknown #
vertex $-1 $424 $426 #
straight-curve $-1 77.127597888119141 0 -22.811038944522526 0 -1 0 I I #
coedge $-1 $268 $262 $358 $422 reversed $269 $-1 #
vertex $-1 $263 $427 #
straight-curve $-1 -77.127597888119141 0 -22.811038944522526 0 1 0 I I #
point $-1 -77.127597888119141 -53.583284687774267 -22.811038944522526 #
point $-1 77.127597888119141 -53.583284687774267 -22.811038944522526 #
coedge $-1 $358 $423 $271 $370 reversed $256 $-1 #
edge $-1 $371 -77.127597888119141 $373 77.127597888119141 $369 $428 forward 7 unknown #
vertex $-1 $272 $429 #
straight-curve $-1 -77.127597888119141 -67.745140933160783 -13.513836725701811 0 -1 0 I I #
vertex $-1 $273 $430 #
straight-curve $-1 77.127597888119141 -67.745140933160783 -13.513836725701811 0 1 0 I I #
plane-surface $-1 77.127597888119141 0 0 -1 0 0 0 0 1 forward_v I I I I #
coedge $-1 $383 $279 $387 $431 reversed $176 $-1 #
coedge $-1 $279 $383 $280 $380 reversed $176 $-1 #
coedge $-1 $281 $291 $279 $379 reversed $292 $-1 #
edge $-1 $381 -4.6486011094103574 $432 4.6486011094103574 $378 $433 forward 7 unknown #
edge $-1 $381 -77.127597888119141 $385 77.127597888119141 $377 $434 forward 7 unknown #
vertex $-1 $282 $435 #
straight-curve $-1 77.127597888119141 67.745140933160783 -13.513836725701811 0 1 0 I I #
coedge $-1 $377 $376 $283 $384 reversed $176 $-1 #
edge $-1 $385 -4.6486011094103574 $388 4.6486011094103574 $383 $436 forward 7 unknown #
vertex $-1 $380 $437 #
straight-curve $-1 -77.127597888119141 67.745140933160783 -13.513836725701811 0 -1 0 I I #
coedge $-1 $391 $285 $376 $431 forward $277 $-1 #
vertex $-1 $431 $438 #
straight-curve $-1 -77.127597888119141 67.745140933160783 -22.811038944522526 0 1 0 I I #
point $-1 -77.127597888119141 53.583284687774267 -22.811038944522526 #
coedge $-1 $289 $387 $291 $393 forward $277 $-1 #
straight-curve $-1 0 53.583284687774267 -22.811038944522526 -1 0 0 I I #
edge $-1 $432 -81.9069971785473 $293 -53.583284687774267 $291 $439 forward 7 unknown #
point $-1 77.127597888119141 53.583284687774267 -22.811038944522526 #
coedge $-1 $308 $307 $300 $396 forward $297 $-1 #
edge $-1 $397 90.310871914041485 $400 99.436713357747095 $395 $440 forward 7 unknown #
vertex $-1 $312 $441 #
straight-curve $-1 63.100313158594147 -4.364263100998965 22.811038944522522 1 0 0 I I #
edge $-1 $400 -5.0017606516082971 $309 6.2767557528269613 $308 $442 forward 7 unknown #
vertex $-1 $399 $443 #
straight-curve $-1 -4.6152000055018334 -4.364263100998965 144.50102382350701 -0.52991925155115449 0 0.84804810408105047 I I #
point $-1 71.425139449321904 -4.364263100998965 22.811038944522508 #
point $-1 77.127597888119141 6.9142533034362934 13.685197500816912 #
straight-curve $-1 77.127597888119141 0 22.811038944522526 0 1 0 I I #
vertex $-1 $315 $444 #
point $-1 69.361333389909802 1.2749951012186642 12.818506630902238 #
edge $-1 $408 35.32529612591253 $411 43.064177416453816 $320 $445 forward 7 unknown #
vertex $-1 $334 $446 #
straight-curve $-1 -96.77273660907079 17.807232529789999 22.811038944522522 -1 0 0 I I #
edge $-1 $411 -12.447920200311309 $331 1.7292955413539275 $330 $447 forward 7 unknown #
vertex $-1 $410 $448 #
straight-curve $-1 -77.127597888119169 17.807232529789999 15.072157653981208 0.65605901945558964 0 0.75470958851134928 I I #
point $-1 -70.400291188372108 17.807232529789999 22.811038944522526 #
point $-1 -77.127597888119141 3.6300167881247631 15.07215765398124 #
straight-curve $-1 -77.127597888119141 0 22.811038944522526 0 -1 0 I I #
vertex $-1 $337 $449 #
point $-1 -70.012626852051213 10.718624658957381 18.330653626108663 #
straight-curve $-1 -77.127597888119141 53.583284687774267 0 0 0 -1 I I #
point $-1 -77.127597888119141 -53.583284687774267 -22.811038944522526 #
straight-curve $-1 -77.127597888119141 0 -22.811038944522526 0 1 0 I I #
point $-1 -77.127597888119141 53.583284687774267 -22.811038944522526 #
edge $-1 $371 -4.6486011094103574 $365 4.6486011094103574 $364 $450 forward 7 unknown #
coedge $-1 $369 $360 $359 $424 reversed $256 $-1 #
edge $-1 $373 -4.6486011094103574 $362 4.6486011094103574 $359 $451 forward 7 unknown #
straight-curve $-1 0 -81.9069971785473 -22.811038944522526 -1 0 0 I I #
point $-1 77.127597888119141 -81.9069971785473 -22.811038944522526 #
point $-1 -77.127597888119141 -81.9069971785473 -22.811038944522526 #
straight-curve $-1 0 -81.9069971785473 -13.513836725701811 1 0 0 I I #
point $-1 -77.127597888119141 -81.9069971785473 -13.513836725701811 #
point $-1 77.127597888119141 -81.9069971785473 -13.513836725701811 #
edge $-1 $388 -77.127597888119141 $432 77.127597888119141 $376 $452 forward 7 unknown #
vertex $-1 $393 $453 #
straight-curve $-1 77.127597888119141 81.9069971785473 -18.162437835112168 0 0 -1 I I #
straight-curve $-1 0 81.9069971785473 -13.513836725701811 -1 0 0 I I #
point $-1 77.127597888119141 81.9069971785473 -13.513836725701811 #
straight-curve $-1 -77.127597888119141 81.9069971785473 -18.162437835112168 0 0 -1 I I #
point $-1 -77.127597888119141 81.9069971785473 -13.513836725701811 #
point $-1 -77.127597888119141 81.9069971785473 -22.811038944522526 #
straight-curve $-1 77.127597888119141 0 -22.811038944522526 0 -1 0 I I #
straight-curve $-1 77.127597888119141 -4.364263100998965 113.12191085856401 0 0 -1 I I #
point $-1 77.127597888119141 -4.364263100998965 22.811038944522526 #
straight-curve $-1 77.127597888119141 0.63749755060933211 13.685197500816912 0 1 0 I I #
point $-1 77.127597888119141 -4.364263100998965 13.685197500816912 #
point $-1 66.6053986786454 1.2749951012186642 13.454764335962031 #
straight-curve $-1 -77.127597888119141 17.807232529789999 58.136335070435052 0 0 -1 I I #
point $-1 -77.127597888119141 17.807232529789999 22.811038944522526 #
straight-curve $-1 -77.127597888119141 5.3593123294786906 15.072157653981243 0 -1 0 I I #
point $-1 -77.127597888119141 17.807232529789999 15.07215765398124 #
point $-1 -69.8153257139397 10.718624658957381 15.509116410174787 #
straight-curve $-1 -77.127597888119141 -81.9069971785473 -18.162437835112168 0 0 -1 I I #
straight-curve $-1 77.127597888119141 -81.9069971785473 -18.162437835112168 0 0 -1 I I #
straight-curve $-1 0 81.9069971785473 -22.811038944522526 1 0 0 I I #
point $-1 77.127597888119141 81.9069971785473 -22.811038944522526 #
End-of-ACIS-data 