500 0 5 0           
7 Unknown 11 ACIS 5.0 NT 24 Fri Mar 26 00:22:00 1999 
-1 9.9999999999999995e-007 1e-010 
body $-1 $5 $-1 $6 #
body $-1 $7 $-1 $8 #
body $-1 $9 $-1 $10 #
body $-1 $11 $-1 $12 #
body $-1 $13 $-1 $14 #
lump $-1 $-1 $15 $0 #
transform $-1 1 0 0 0 1 0 0 0 1 42.887050996429338 25.329497799871785 9.9410181495514127 1 rotate no_reflect no_shear #
lump $-1 $-1 $16 $1 #
transform $-1 1 0 0 0 1 0 0 0 1 42.887050996429338 25.329497799871785 9.9410181495514127 1 rotate no_reflect no_shear #
lump $-1 $-1 $17 $2 #
transform $-1 1 0 0 0 1 0 0 0 1 42.887050996429338 25.329497799871785 9.9410181495514127 1 rotate no_reflect no_shear #
lump $-1 $-1 $18 $3 #
transform $-1 1 0 0 0 1 0 0 0 1 42.887050996429338 25.329497799871785 9.9410181495514127 1 rotate no_reflect no_shear #
lump $-1 $-1 $19 $4 #
transform $-1 1 0 0 0 1 0 0 0 1 42.887050996429338 25.329497799871785 9.9410181495514127 1 rotate no_reflect no_shear #
shell $-1 $-1 $-1 $20 $-1 $5 #
shell $-1 $-1 $-1 $21 $-1 $7 #
shell $-1 $-1 $-1 $22 $-1 $9 #
shell $-1 $-1 $-1 $23 $-1 $11 #
shell $-1 $-1 $-1 $24 $-1 $13 #
face $-1 $25 $26 $15 $-1 $27 forward single #
face $-1 $28 $29 $16 $-1 $30 reversed single #
face $-1 $31 $32 $17 $-1 $33 reversed single #
face $-1 $34 $35 $18 $-1 $36 forward single #
face $-1 $37 $38 $19 $-1 $39 forward single #
face $-1 $40 $41 $15 $-1 $42 reversed single #
loop $-1 $-1 $43 $20 #
plane-surface $-1 0 0 9.9410181495514127 0 0 1 1 0 0 forward_v I I I I #
face $-1 $44 $45 $16 $-1 $46 reversed single #
loop $-1 $-1 $47 $21 #
plane-surface $-1 0 -20.564626150308868 6.9410181495514127 0 0 1 1 0 0 forward_v I I I I #
face $-1 $48 $49 $17 $-1 $50 reversed single #
loop $-1 $-1 $51 $22 #
plane-surface $-1 -85.774102567436771 6.4947243153563647 76.032898372150214 0 1 0 -0.50000000669873634 0 0.8660253999169214 forward_v I I I I #
face $-1 $52 $53 $18 $-1 $54 forward single #
loop $-1 $55 $56 $23 #
cone-surface $-1 -34.845252662976627 9.6214160129004576 4.2028854199472363 0.50000000669873634 0 -0.8660253999169214 1.2990380998753821 0 0.75000001004810457 1 I I 0 1 1.5 forward I I I I #
face $-1 $57 $58 $19 $-1 $59 forward single #
loop $-1 $60 $61 $24 #
cone-surface $-1 -34.845252662976627 14.311453559216599 4.2028854199472363 0.50000000669873634 0 -0.8660253999169214 1.2990380998753821 0 0.75000001004810457 1 I I 0 1 1.5 forward I I I I #
face $-1 $62 $63 $15 $-1 $64 reversed single #
loop $-1 $-1 $65 $25 #
plane-surface $-1 0 0 -9.9410181495514127 0 0 1 1 0 0 forward_v I I I I #
coedge $-1 $66 $67 $68 $69 forward $26 $-1 #
face $-1 $70 $71 $16 $-1 $72 reversed single #
loop $-1 $-1 $73 $28 #
plane-surface $-1 0 -15.79975450074595 8.4410181495514127 0 -1 0 0 0 -1 forward_v I I I I #
coedge $-1 $74 $75 $76 $77 reversed $29 $-1 #
face $-1 $78 $79 $17 $-1 $80 reversed single #
loop $-1 $-1 $81 $31 #
plane-surface $-1 -42.887050996429338 11.966434786058532 1.750347391269969 -0.50000000669873634 0 0.8660253999169214 0.8660253999169214 0 0.50000000669873634 forward_v I I I I #
coedge $-1 $82 $83 $84 $85 reversed $32 $-1 #
face $-1 $-1 $86 $18 $-1 $87 forward single #
loop $-1 $88 $89 $34 #
cone-surface $-1 -33.5217831484957 9.6214160129004576 1.9105690195460898 0.50000000669873634 0 -0.8660253999169214 0.64951904993769105 0 0.37500000502405229 1 I I -0.70710678118654757 0.70710678118654757 0.75 forward I I I I #
loop $-1 $-1 $90 $23 #
coedge $-1 $56 $56 $91 $92 reversed $35 $-1 #
face $-1 $-1 $93 $19 $-1 $94 forward single #
loop $-1 $95 $96 $37 #
cone-surface $-1 -33.5217831484957 14.311453559216599 1.9105690195460898 0.50000000669873634 0 -0.8660253999169214 0.64951904993769105 0 0.37500000502405229 1 I I -0.70710678118654757 0.70710678118654757 0.75 forward I I I I #
loop $-1 $-1 $97 $24 #
coedge $-1 $61 $61 $98 $99 reversed $38 $-1 #
face $-1 $100 $101 $15 $-1 $102 reversed single #
loop $-1 $-1 $103 $40 #
plane-surface $-1 0 -25.329497799871785 0 0 1 0 0 0 1 forward_v I I I I #
coedge $-1 $104 $105 $106 $107 forward $41 $-1 #
coedge $-1 $108 $43 $109 $110 forward $26 $-1 #
coedge $-1 $43 $108 $111 $112 forward $26 $-1 #
coedge $-1 $113 $114 $43 $69 reversed $115 $-1 #
edge $-1 $116 -25.329497799871785 $117 25.329497799871785 $68 $118 forward 7 unknown #
face $-1 $119 $120 $16 $-1 $121 reversed single #
loop $-1 $-1 $122 $44 #
plane-surface $-1 -42.887050996429338 0 0 1 0 0 0 0 -1 forward_v I I I I #
coedge $-1 $123 $124 $125 $126 reversed $45 $-1 #
coedge $-1 $127 $47 $128 $129 reversed $29 $-1 #
coedge $-1 $47 $127 $123 $130 forward $29 $-1 #
coedge $-1 $125 $131 $47 $77 forward $132 $-1 #
edge $-1 $133 -15.047184724717354 $134 -5.5174414255915156 $76 $135 forward 7 unknown #
face $-1 $136 $137 $17 $-1 $138 forward single #
loop $-1 $-1 $139 $48 #
plane-surface $-1 -85.774102567436771 17.438145256760698 76.032898372150214 0 -1 0 0.50000000669873634 0 -0.8660253999169214 forward_v I I I I #
coedge $-1 $140 $141 $142 $143 reversed $49 $-1 #
coedge $-1 $83 $51 $144 $145 reversed $32 $-1 #
coedge $-1 $51 $82 $140 $146 reversed $32 $-1 #
coedge $-1 $142 $147 $51 $85 forward $137 $-1 #
edge $-1 $148 2.8728904766239793e-007 $149 14.186657935280735 $84 $150 forward 7 unknown #
loop $-1 $-1 $91 $52 #
plane-surface $-1 -42.887050996429338 11.966434786058532 1.750347391269969 -0.50000000669873634 0 0.8660253999169214 0.8660253999169214 0 0.50000000669873634 forward_v I I I I #
loop $-1 $-1 $151 $34 #
coedge $-1 $89 $89 $90 $152 reversed $53 $-1 #
coedge $-1 $90 $90 $89 $152 forward $55 $-1 #
coedge $-1 $91 $91 $56 $92 forward $86 $-1 #
edge $-1 $153 0 $153 6.2831853071796004 $91 $154 forward 7 unknown #
loop $-1 $-1 $98 $57 #
plane-surface $-1 -42.887050996429338 11.966434786058532 1.750347391269969 -0.50000000669873634 0 0.8660253999169214 0.8660253999169214 0 0.50000000669873634 forward_v I I I I #
loop $-1 $-1 $155 $37 #
coedge $-1 $96 $96 $97 $156 reversed $58 $-1 #
coedge $-1 $97 $97 $96 $156 forward $60 $-1 #
coedge $-1 $98 $98 $61 $99 forward $93 $-1 #
edge $-1 $157 0 $157 6.2831853071796004 $98 $158 forward 7 unknown #
face $-1 $159 $160 $15 $-1 $161 reversed single #
loop $-1 $-1 $162 $62 #
plane-surface $-1 -42.887050996429338 0 0 1 0 0 0 0 -1 forward_v I I I I #
coedge $-1 $163 $111 $164 $165 forward $63 $-1 #
coedge $-1 $166 $65 $163 $167 forward $41 $-1 #
coedge $-1 $65 $166 $168 $169 forward $41 $-1 #
coedge $-1 $114 $113 $65 $107 reversed $115 $-1 #
edge $-1 $170 -25.329497799871785 $171 25.329497799871785 $106 $172 forward 7 unknown #
coedge $-1 $67 $66 $173 $174 forward $26 $-1 #
coedge $-1 $175 $176 $66 $110 reversed $160 $-1 #
edge $-1 $117 -42.887050996429338 $177 42.887050996429338 $109 $178 forward 7 unknown #
coedge $-1 $103 $179 $67 $112 reversed $63 $-1 #
edge $-1 $180 -42.887050996429338 $116 42.887050996429338 $111 $181 forward 7 unknown #
coedge $-1 $106 $68 $179 $182 forward $115 $-1 #
coedge $-1 $68 $106 $175 $183 reversed $115 $-1 #
loop $-1 $-1 $113 $159 #
vertex $-1 $69 $184 #
vertex $-1 $69 $185 #
straight-curve $-1 42.887050996429338 0 9.9410181495514127 0 1 0 I I #
face $-1 $186 $187 $16 $-1 $188 forward single #
loop $-1 $-1 $128 $70 #
plane-surface $-1 0 -25.329497799871785 0 0 1 0 0 0 1 forward_v I I I I #
coedge $-1 $189 $190 $191 $192 forward $71 $-1 #
coedge $-1 $191 $73 $75 $130 reversed $45 $-1 #
coedge $-1 $73 $191 $193 $194 reversed $45 $-1 #
coedge $-1 $195 $76 $73 $126 forward $132 $-1 #
edge $-1 $134 2.7205090747757064 $196 5.7205090747757064 $125 $197 forward 7 unknown #
coedge $-1 $75 $74 $189 $198 reversed $29 $-1 #
coedge $-1 $199 $200 $74 $129 forward $120 $-1 #
edge $-1 $201 -42.887050996429338 $133 42.887050996429338 $128 $202 forward 7 unknown #
edge $-1 $203 -42.887050996429338 $134 42.887050996429338 $123 $204 forward 7 unknown #
coedge $-1 $76 $195 $199 $205 forward $132 $-1 #
loop $-1 $-1 $125 $186 #
vertex $-1 $129 $206 #
vertex $-1 $77 $207 #
straight-curve $-1 42.887050996429338 -10.282313075154434 6.9410181495514127 0 1 0 I I #
face $-1 $-1 $208 $17 $-1 $209 reversed single #
loop $-1 $-1 $84 $78 #
plane-surface $-1 0 0 9.9410181495514127 0 0 1 1 0 0 forward_v I I I I #
coedge $-1 $210 $211 $212 $213 reversed $79 $-1 #
coedge $-1 $214 $81 $83 $146 forward $49 $-1 #
coedge $-1 $81 $214 $210 $215 forward $49 $-1 #
coedge $-1 $212 $84 $81 $143 forward $137 $-1 #
edge $-1 $149 0.51150692232709893 $216 11.454927863731433 $142 $217 forward 7 unknown #
coedge $-1 $218 $219 $82 $145 forward $208 $-1 #
edge $-1 $220 -36.266101794805138 $148 -28.075431036523696 $144 $221 forward 7 unknown #
edge $-1 $149 -16.38134129709432 $220 0 $83 $222 forward 7 unknown #
coedge $-1 $84 $212 $218 $223 forward $137 $-1 #
vertex $-1 $145 $224 #
vertex $-1 $85 $225 #
straight-curve $-1 -42.887051283718385 6.4947243153563647 9.9410181495514109 1 0 0 I I #
coedge $-1 $151 $151 $-1 $226 reversed $88 $-1 #
edge $-1 $227 0 $227 6.2831853071796004 $89 $228 forward 7 unknown #
vertex $-1 $92 $229 #
ellipse-curve $-1 -35.793722172433498 9.6214160129004576 5.8456827704106891 -0.50000000669873634 0 0.8660253999169214 1.2990380998753821 0 0.75000001004810457 1 I I #
coedge $-1 $155 $155 $-1 $230 reversed $95 $-1 #
edge $-1 $231 0 $231 6.2831853071796004 $96 $232 forward 7 unknown #
vertex $-1 $99 $233 #
ellipse-curve $-1 -35.793722172433498 14.311453559216599 5.8456827704106891 -0.50000000669873634 0 0.8660253999169214 1.2990380998753821 0 0.75000001004810457 1 I I #
face $-1 $-1 $115 $15 $-1 $234 reversed single #
loop $-1 $-1 $175 $100 #
plane-surface $-1 0 25.329497799871785 0 0 -1 0 0 0 -1 forward_v I I I I #
coedge $-1 $235 $173 $176 $236 forward $101 $-1 #
coedge $-1 $179 $103 $104 $167 reversed $63 $-1 #
coedge $-1 $173 $235 $103 $165 reversed $101 $-1 #
edge $-1 $180 -9.9410181495514127 $237 9.9410181495514127 $164 $238 forward 7 unknown #
coedge $-1 $105 $104 $235 $239 forward $41 $-1 #
edge $-1 $171 -42.887050996429338 $237 42.887050996429338 $163 $240 forward 7 unknown #
coedge $-1 $176 $175 $105 $169 reversed $160 $-1 #
edge $-1 $241 -42.887050996429338 $170 42.887050996429338 $168 $242 forward 7 unknown #
vertex $-1 $107 $243 #
vertex $-1 $182 $244 #
straight-curve $-1 42.887050996429338 0 -9.9410181495514127 0 -1 0 I I #
coedge $-1 $162 $164 $108 $174 reversed $101 $-1 #
edge $-1 $177 -25.329497799871785 $180 25.329497799871785 $173 $245 forward 7 unknown #
coedge $-1 $168 $109 $114 $183 forward $160 $-1 #
coedge $-1 $109 $168 $162 $236 reversed $160 $-1 #
vertex $-1 $110 $246 #
straight-curve $-1 0 25.329497799871785 9.9410181495514127 -1 0 0 I I #
coedge $-1 $111 $163 $113 $182 reversed $63 $-1 #
vertex $-1 $174 $247 #
straight-curve $-1 0 -25.329497799871785 9.9410181495514127 1 0 0 I I #
edge $-1 $116 -9.9410181495514127 $171 9.9410181495514127 $113 $248 forward 7 unknown #
edge $-1 $117 -9.9410181495514127 $170 9.9410181495514127 $114 $249 forward 7 unknown #
point $-1 42.887050996429338 -25.329497799871785 9.9410181495514127 #
point $-1 42.887050996429338 25.329497799871785 9.9410181495514127 #
face $-1 $-1 $132 $16 $-1 $250 reversed single #
loop $-1 $-1 $193 $119 #
plane-surface $-1 0 0 9.9410181495514127 0 0 1 1 0 0 forward_v I I I I #
coedge $-1 $251 $122 $127 $198 forward $71 $-1 #
coedge $-1 $122 $251 $252 $253 reversed $71 $-1 #
coedge $-1 $124 $123 $122 $192 reversed $45 $-1 #
edge $-1 $254 -5.7205090747757064 $203 -2.7205090747757064 $122 $255 forward 7 unknown #
coedge $-1 $252 $256 $124 $194 forward $187 $-1 #
edge $-1 $196 -42.887050996429338 $254 42.887050996429338 $193 $257 forward 7 unknown #
coedge $-1 $131 $125 $256 $258 reversed $132 $-1 #
vertex $-1 $126 $259 #
straight-curve $-1 42.887050996429338 -15.79975450074595 4.2205090747757064 0 0 1 I I #
edge $-1 $203 5.5174414255915156 $201 15.047184724717354 $189 $260 forward 7 unknown #
coedge $-1 $261 $128 $131 $205 reversed $120 $-1 #
coedge $-1 $128 $261 $251 $262 forward $120 $-1 #
vertex $-1 $129 $263 #
straight-curve $-1 0 -25.329497799871785 6.9410181495514127 1 0 0 I I #
vertex $-1 $198 $264 #
straight-curve $-1 0 -15.79975450074595 6.9410181495514127 1 0 0 I I #
edge $-1 $265 -9.9410181495514127 $133 -6.9410181495514127 $131 $266 forward 7 unknown #
point $-1 42.887050996429338 -25.329497799871788 6.9410181495514127 #
point $-1 42.887050996429338 -15.79975450074595 6.9410181495514127 #
loop $-1 $-1 $144 $136 #
plane-surface $-1 -42.887050996429338 0 0 1 0 0 0 0 -1 forward_v I I I I #
coedge $-1 $211 $139 $141 $215 reversed $79 $-1 #
coedge $-1 $139 $210 $267 $268 reversed $79 $-1 #
coedge $-1 $147 $142 $139 $213 forward $137 $-1 #
edge $-1 $216 -14.186657935280735 $269 -2.8728904766239793e-007 $212 $270 forward 7 unknown #
coedge $-1 $141 $140 $219 $271 reversed $49 $-1 #
edge $-1 $272 0 $216 16.38134129709432 $210 $273 forward 7 unknown #
vertex $-1 $143 $274 #
straight-curve $-1 -28.70039334843765 5.9832173930292658 9.9410181495514127 0 1 0 I I #
coedge $-1 $267 $144 $147 $223 reversed $208 $-1 #
coedge $-1 $144 $267 $214 $271 forward $208 $-1 #
vertex $-1 $145 $275 #
straight-curve $-1 -42.887050996429338 6.4947243153563647 38.016449186075107 0 0 1 I I #
straight-curve $-1 -42.887050996429338 6.4947243153563647 1.750347391269969 -0.8660253999169214 0 -0.50000000669873634 I I #
edge $-1 $269 -17.438145256760698 $148 -6.4947243153563647 $218 $276 forward 7 unknown #
point $-1 -42.887050996429338 6.4947243153563647 9.9410181495514127 #
point $-1 -28.70039334843765 6.4947243153563647 9.9410181495514127 #
edge $-1 $277 1 $277 0 $151 $-1 forward 7 unknown #
vertex $-1 $152 $278 #
ellipse-curve $-1 -33.896783153519749 9.6214160129004576 2.5600880694837809 -0.50000000669873634 0 0.8660253999169214 1.2990380998753821 0 0.75000001004810457 1 I I #
point $-1 -34.494684072558115 9.6214160129004576 6.5956827804587981 #
edge $-1 $279 1 $279 0 $155 $-1 forward 7 unknown #
vertex $-1 $156 $280 #
ellipse-curve $-1 -33.896783153519749 14.311453559216599 2.5600880694837809 -0.50000000669873634 0 0.8660253999169214 1.2990380998753821 0 0.75000001004810457 1 I I #
point $-1 -34.494684072558115 14.311453559216599 6.5956827804587981 #
plane-surface $-1 42.887050996429338 0 0 -1 0 0 0 0 1 forward_v I I I I #
coedge $-1 $164 $162 $166 $239 reversed $101 $-1 #
edge $-1 $177 -9.9410181495514127 $241 9.9410181495514127 $176 $281 forward 7 unknown #
vertex $-1 $239 $282 #
straight-curve $-1 -42.887050996429338 -25.329497799871785 0 0 0 -1 I I #
edge $-1 $237 -25.329497799871785 $241 25.329497799871785 $235 $283 forward 7 unknown #
straight-curve $-1 0 -25.329497799871785 -9.9410181495514127 -1 0 0 I I #
vertex $-1 $169 $284 #
straight-curve $-1 0 25.329497799871785 -9.9410181495514127 1 0 0 I I #
point $-1 42.887050996429338 25.329497799871785 -9.9410181495514127 #
point $-1 42.887050996429338 -25.329497799871785 -9.9410181495514127 #
straight-curve $-1 -42.887050996429338 0 9.9410181495514127 0 -1 0 I I #
point $-1 -42.887050996429338 25.329497799871785 9.9410181495514127 #
point $-1 -42.887050996429338 -25.329497799871785 9.9410181495514127 #
straight-curve $-1 42.887050996429338 -25.329497799871785 0 0 0 -1 I I #
straight-curve $-1 42.887050996429338 25.329497799871785 0 0 0 -1 I I #
plane-surface $-1 42.887050996429338 0 0 -1 0 0 0 0 1 forward_v I I I I #
coedge $-1 $190 $189 $200 $262 reversed $71 $-1 #
coedge $-1 $285 $193 $190 $253 forward $187 $-1 #
edge $-1 $254 15.79975450074595 $286 25.329497799871785 $190 $287 forward 7 unknown #
vertex $-1 $253 $288 #
straight-curve $-1 -42.887050996429338 -15.79975450074595 4.2205090747757064 0 0 -1 I I #
coedge $-1 $193 $285 $195 $258 forward $187 $-1 #
straight-curve $-1 0 -15.79975450074595 9.9410181495514127 -1 0 0 I I #
edge $-1 $265 -25.329497799871785 $196 -15.79975450074595 $195 $289 forward 7 unknown #
point $-1 42.887050996429338 -15.79975450074595 9.9410181495514127 #
straight-curve $-1 -42.887050996429338 -10.282313075154434 6.9410181495514127 0 -1 0 I I #
coedge $-1 $200 $199 $285 $290 reversed $120 $-1 #
edge $-1 $286 -9.9410181495514127 $201 -6.9410181495514127 $251 $291 forward 7 unknown #
point $-1 -42.887050996429338 -25.329497799871788 6.9410181495514127 #
point $-1 -42.887050996429338 -15.79975450074595 6.9410181495514127 #
vertex $-1 $258 $292 #
straight-curve $-1 42.887050996429338 -25.329497799871785 0 0 0 -1 I I #
coedge $-1 $219 $218 $211 $268 forward $208 $-1 #
edge $-1 $269 28.075431036523696 $272 36.266101794805138 $267 $293 forward 7 unknown #
vertex $-1 $223 $294 #
straight-curve $-1 -42.887051283718385 17.438145256760698 9.9410181495514109 -1 0 0 I I #
edge $-1 $272 -11.454927863731433 $220 -0.51150692232709893 $219 $295 forward 7 unknown #
vertex $-1 $271 $296 #
straight-curve $-1 -42.887050996429338 17.438145256760698 1.750347391269969 0.8660253999169214 0 0.50000000669873634 I I #
point $-1 -28.70039334843765 17.438145256760698 9.9410181495514127 #
point $-1 -42.887050996429338 6.4947243153563647 1.750347391269969 #
straight-curve $-1 -42.887050996429338 0 9.9410181495514127 0 -1 0 I I #
vertex $-1 $226 $297 #
point $-1 -32.597745053644374 9.6214160129004576 3.3100880795318854 #
vertex $-1 $230 $298 #
point $-1 -32.597745053644374 14.311453559216599 3.3100880795318854 #
straight-curve $-1 -42.887050996429338 25.329497799871785 0 0 0 -1 I I #
point $-1 -42.887050996429338 -25.329497799871785 -9.9410181495514127 #
straight-curve $-1 -42.887050996429338 0 -9.9410181495514127 0 1 0 I I #
point $-1 -42.887050996429338 25.329497799871785 -9.9410181495514127 #
coedge $-1 $256 $252 $261 $290 forward $187 $-1 #
vertex $-1 $253 $299 #
straight-curve $-1 -42.887050996429338 0 9.9410181495514127 0 -1 0 I I #
point $-1 -42.887050996429338 -15.79975450074595 9.9410181495514127 #
straight-curve $-1 42.887050996429338 0 9.9410181495514127 0 1 0 I I #
edge $-1 $286 -42.887050996429338 $265 42.887050996429338 $261 $300 forward 7 unknown #
straight-curve $-1 -42.887050996429338 -25.329497799871785 0 0 0 -1 I I #
point $-1 42.887050996429338 -25.329497799871785 9.9410181495514127 #
straight-curve $-1 -42.887050996429338 17.438145256760698 38.016449186075107 0 0 -1 I I #
point $-1 -42.887050996429338 17.438145256760698 9.9410181495514127 #
straight-curve $-1 -42.887050996429338 5.9832173930292658 1.7503473912699687 0 -1 0 I I #
point $-1 -42.887050996429338 17.438145256760698 1.750347391269969 #
point $-1 -33.146783143471652 9.6214160129004576 1.2610499696083988 #
point $-1 -33.146783143471652 14.311453559216599 1.2610499696083988 #
point $-1 -42.887050996429338 -25.329497799871785 9.9410181495514127 #
straight-curve $-1 0 -25.329497799871785 9.9410181495514127 1 0 0 I I #
End-of-ACIS-data 