500 0 11 0           
7 Unknown 11 ACIS 5.0 NT 24 Thu Mar 25 15:37:40 1999 
-1 9.9999999999999995e-007 1e-010 
body $-1 $11 $-1 $12 #
body $-1 $13 $-1 $14 #
body $-1 $15 $-1 $16 #
body $-1 $17 $-1 $18 #
body $-1 $19 $-1 $20 #
body $-1 $21 $-1 $22 #
body $-1 $23 $-1 $24 #
body $-1 $25 $-1 $26 #
body $-1 $27 $-1 $28 #
body $-1 $29 $-1 $30 #
body $-1 $31 $-1 $32 #
lump $-1 $-1 $33 $0 #
transform $-1 1 0 0 0 1 0 0 0 1 43.010345774712363 24.000841408168601 10.415429074605372 1 rotate no_reflect no_shear #
lump $-1 $-1 $34 $1 #
transform $-1 1 0 0 0 1 0 0 0 1 43.010345774712363 24.000841408168601 10.415429074605372 1 rotate no_reflect no_shear #
lump $-1 $-1 $35 $2 #
transform $-1 1 0 0 0 1 0 0 0 1 43.010345774712363 24.000841408168601 10.415429074605372 1 rotate no_reflect no_shear #
lump $-1 $-1 $36 $3 #
transform $-1 1 0 0 0 1 0 0 0 1 43.010345774712363 24.000841408168601 10.415429074605372 1 rotate no_reflect no_shear #
lump $-1 $-1 $37 $4 #
transform $-1 1 0 0 0 1 0 0 0 1 43.010345774712363 24.000841408168601 10.415429074605372 1 rotate no_reflect no_shear #
lump $-1 $-1 $38 $5 #
transform $-1 1 0 0 0 1 0 0 0 1 43.010345774712363 24.000841408168601 10.415429074605372 1 rotate no_reflect no_shear #
lump $-1 $-1 $39 $6 #
transform $-1 1 0 0 0 1 0 0 0 1 43.010345774712363 24.000841408168601 10.415429074605372 1 rotate no_reflect no_shear #
lump $-1 $-1 $40 $7 #
transform $-1 1 0 0 0 1 0 0 0 1 43.010345774712363 24.000841408168601 10.415429074605372 1 rotate no_reflect no_shear #
lump $-1 $-1 $41 $8 #
transform $-1 1 0 0 0 1 0 0 0 1 43.010345774712363 24.000841408168601 10.415429074605372 1 rotate no_reflect no_shear #
lump $-1 $-1 $42 $9 #
transform $-1 1 0 0 0 1 0 0 0 1 43.010345774712363 24.000841408168601 10.415429074605372 1 rotate no_reflect no_shear #
lump $-1 $-1 $43 $10 #
transform $-1 1 0 0 0 1 0 0 0 1 43.010345774712363 24.000841408168601 10.415429074605372 1 rotate no_reflect no_shear #
shell $-1 $-1 $-1 $44 $-1 $11 #
shell $-1 $-1 $-1 $45 $-1 $13 #
shell $-1 $-1 $-1 $46 $-1 $15 #
shell $-1 $-1 $-1 $47 $-1 $17 #
shell $-1 $-1 $-1 $48 $-1 $19 #
shell $-1 $-1 $-1 $49 $-1 $21 #
shell $-1 $-1 $-1 $50 $-1 $23 #
shell $-1 $-1 $-1 $51 $-1 $25 #
shell $-1 $-1 $-1 $52 $-1 $27 #
shell $-1 $-1 $-1 $53 $-1 $29 #
shell $-1 $-1 $-1 $54 $-1 $31 #
face $-1 $55 $56 $33 $-1 $57 forward single #
face $-1 $58 $59 $34 $-1 $60 forward single #
face $-1 $61 $62 $35 $-1 $63 forward single #
face $-1 $64 $65 $36 $-1 $66 reversed single #
face $-1 $67 $68 $37 $-1 $69 forward single #
face $-1 $70 $71 $38 $-1 $72 reversed single #
face $-1 $73 $74 $39 $-1 $75 forward single #
face $-1 $76 $77 $40 $-1 $78 reversed single #
face $-1 $79 $80 $41 $-1 $81 forward single #
face $-1 $82 $83 $42 $-1 $84 reversed single #
face $-1 $85 $86 $43 $-1 $87 forward single #
face $-1 $88 $89 $33 $-1 $90 reversed single #
loop $-1 $-1 $91 $44 #
plane-surface $-1 0 0 10.415429074605372 0 0 1 1 0 0 forward_v I I I I #
face $-1 $92 $93 $34 $-1 $94 forward single #
loop $-1 $-1 $95 $45 #
plane-surface $-1 0 -24.000841408168601 0 0 1 0 0 0 1 forward_v I I I I #
face $-1 $96 $97 $35 $-1 $98 reversed single #
loop $-1 $-1 $99 $46 #
plane-surface $-1 0 24.000841408168601 0 0 -1 0 0 0 -1 forward_v I I I I #
face $-1 $100 $101 $36 $-1 $102 reversed single #
loop $-1 $-1 $103 $47 #
plane-surface $-1 -115.96003015494284 -16.165820821342546 47.508542376250197 0 1 0 -0.84804810408105047 0 0.52991925155115449 forward_v I I I I #
face $-1 $104 $105 $37 $-1 $106 forward single #
loop $-1 $107 $108 $48 #
cone-surface $-1 -39.502035441672732 -13.158383444773175 5.6354268980280757 0.84804810408105047 0 -0.52991925155115449 0.79487887732673168 0 1.2720721561215758 1 I I 0 1 1.5 forward I I I I #
face $-1 $109 $110 $38 $-1 $111 reversed single #
loop $-1 $-1 $112 $49 #
plane-surface $-1 -115.96003015494284 8.8817841970012523e-016 47.508542376250197 0 1 0 -0.84804810408105047 0 0.52991925155115449 forward_v I I I I #
face $-1 $113 $114 $39 $-1 $115 forward single #
loop $-1 $116 $117 $50 #
cone-surface $-1 -39.502035441672732 3.0074373765693707 5.6354268980280757 0.84804810408105047 0 -0.52991925155115449 0.79487887732673168 0 1.2720721561215758 1 I I 0 1 1.5 forward I I I I #
face $-1 $118 $119 $40 $-1 $120 reversed single #
loop $-1 $-1 $121 $51 #
plane-surface $-1 70.376009671158982 -10.150946068203805 120.45822675648067 0 -1 0 -0.84804810408105047 0 -0.52991925155115449 forward_v I I I I #
face $-1 $122 $123 $41 $-1 $124 forward single #
loop $-1 $125 $126 $52 #
cone-surface $-1 39.502035441672739 -13.158383444773175 5.6354268980280686 -0.84804810408105047 0 -0.52991925155115449 0.79487887732673168 0 -1.2720721561215758 1 I I 0 1 1.5 forward I I I I #
face $-1 $127 $128 $42 $-1 $129 reversed single #
loop $-1 $-1 $130 $53 #
plane-surface $-1 70.376009671158982 6.0148747531387405 120.45822675648067 0 -1 0 -0.84804810408105047 0 -0.52991925155115449 forward_v I I I I #
face $-1 $131 $132 $43 $-1 $133 forward single #
loop $-1 $134 $135 $54 #
cone-surface $-1 39.502035441672739 3.0074373765693707 5.6354268980280686 -0.84804810408105047 0 -0.52991925155115449 0.79487887732673168 0 -1.2720721561215758 1 I I 0 1 1.5 forward I I I I #
face $-1 $136 $137 $33 $-1 $138 reversed single #
loop $-1 $-1 $139 $55 #
plane-surface $-1 0 0 -10.415429074605372 0 0 1 1 0 0 forward_v I I I I #
coedge $-1 $140 $141 $142 $143 forward $56 $-1 #
face $-1 $144 $145 $34 $-1 $146 reversed single #
loop $-1 $-1 $147 $58 #
plane-surface $-1 0 0 10.415429074605372 0 0 1 1 0 0 forward_v I I I I #
coedge $-1 $148 $149 $150 $151 forward $59 $-1 #
face $-1 $152 $153 $35 $-1 $154 reversed single #
loop $-1 $-1 $155 $61 #
plane-surface $-1 43.010345774712363 0 0 -1 0 0 0 0 1 forward_v I I I I #
coedge $-1 $156 $157 $158 $159 forward $62 $-1 #
face $-1 $160 $161 $36 $-1 $162 reversed single #
loop $-1 $-1 $163 $64 #
plane-surface $-1 -43.010345774712363 -13.158383444773175 1.9245218924663305 -0.84804810408105047 0 0.52991925155115449 0.52991925155115449 0 0.84804810408105047 forward_v I I I I #
coedge $-1 $164 $165 $166 $167 reversed $65 $-1 #
face $-1 $-1 $168 $37 $-1 $169 forward single #
loop $-1 $170 $171 $67 #
cone-surface $-1 -38.010542776307126 -13.158383444773175 4.7034388738569373 0.84804810408105047 0 -0.52991925155115449 0.39743943866336584 0 0.63603607806078788 1 I I -0.70710678118654757 0.70710678118654757 0.75 forward I I I I #
loop $-1 $-1 $172 $48 #
coedge $-1 $108 $108 $173 $174 reversed $68 $-1 #
face $-1 $175 $176 $38 $-1 $177 reversed single #
loop $-1 $-1 $178 $70 #
plane-surface $-1 -43.010345774712363 3.0074373765693707 1.9245218924663305 -0.84804810408105047 0 0.52991925155115449 0.52991925155115449 0 0.84804810408105047 forward_v I I I I #
coedge $-1 $179 $180 $181 $182 reversed $71 $-1 #
face $-1 $-1 $183 $39 $-1 $184 forward single #
loop $-1 $185 $186 $73 #
cone-surface $-1 -38.010542776307126 3.0074373765693707 4.7034388738569373 0.84804810408105047 0 -0.52991925155115449 0.39743943866336584 0 0.63603607806078788 1 I I -0.70710678118654757 0.70710678118654757 0.75 forward I I I I #
loop $-1 $-1 $187 $50 #
coedge $-1 $117 $117 $188 $189 reversed $74 $-1 #
face $-1 $190 $191 $40 $-1 $192 reversed single #
loop $-1 $-1 $193 $76 #
plane-surface $-1 -2.5736747090714971 -13.158383444773175 74.874206272696796 0.84804810408105047 0 0.52991925155115449 0.52991925155115449 0 -0.84804810408105047 forward_v I I I I #
coedge $-1 $194 $195 $196 $197 reversed $77 $-1 #
face $-1 $-1 $198 $41 $-1 $199 forward single #
loop $-1 $200 $201 $79 #
cone-surface $-1 38.010542776307133 -13.158383444773175 4.7034388738569302 -0.84804810408105047 0 -0.52991925155115449 0.39743943866336584 0 -0.63603607806078788 1 I I -0.70710678118654757 0.70710678118654757 0.75 forward I I I I #
loop $-1 $-1 $202 $52 #
coedge $-1 $126 $126 $203 $204 reversed $80 $-1 #
face $-1 $205 $206 $42 $-1 $207 reversed single #
loop $-1 $-1 $208 $82 #
plane-surface $-1 -2.5736747090714971 3.0074373765693707 74.874206272696796 0.84804810408105047 0 0.52991925155115449 0.52991925155115449 0 -0.84804810408105047 forward_v I I I I #
coedge $-1 $209 $210 $211 $212 reversed $83 $-1 #
face $-1 $-1 $213 $43 $-1 $214 forward single #
loop $-1 $215 $216 $85 #
cone-surface $-1 38.010542776307133 3.0074373765693707 4.7034388738569302 -0.84804810408105047 0 -0.52991925155115449 0.39743943866336584 0 -0.63603607806078788 1 I I -0.70710678118654757 0.70710678118654757 0.75 forward I I I I #
loop $-1 $-1 $217 $54 #
coedge $-1 $135 $135 $218 $219 reversed $86 $-1 #
face $-1 $220 $221 $33 $-1 $222 reversed single #
loop $-1 $-1 $223 $88 #
plane-surface $-1 0 -24.000841408168601 0 0 1 0 0 0 1 forward_v I I I I #
coedge $-1 $224 $225 $226 $227 forward $89 $-1 #
coedge $-1 $228 $91 $229 $230 forward $56 $-1 #
coedge $-1 $91 $228 $231 $232 forward $56 $-1 #
coedge $-1 $233 $234 $91 $143 reversed $235 $-1 #
edge $-1 $236 -24.000841408168601 $237 24.000841408168601 $142 $238 forward 7 unknown #
face $-1 $239 $240 $34 $-1 $241 reversed single #
loop $-1 $-1 $242 $92 #
plane-surface $-1 -43.010345774712363 0 0 1 0 0 0 0 -1 forward_v I I I I #
coedge $-1 $243 $244 $245 $246 forward $93 $-1 #
coedge $-1 $245 $95 $242 $247 reversed $59 $-1 #
coedge $-1 $95 $245 $248 $249 reversed $59 $-1 #
coedge $-1 $250 $251 $95 $151 reversed $240 $-1 #
edge $-1 $252 -43.010345774712363 $253 43.010345774712363 $150 $254 forward 7 unknown #
face $-1 $255 $256 $35 $-1 $257 reversed single #
loop $-1 $-1 $258 $96 #
plane-surface $-1 0 27.918351701581624 5.1238303937195591 0 0 1 1 0 0 forward_v I I I I #
coedge $-1 $259 $260 $156 $261 forward $97 $-1 #
coedge $-1 $262 $99 $155 $261 reversed $62 $-1 #
coedge $-1 $99 $262 $263 $264 reversed $62 $-1 #
coedge $-1 $265 $258 $99 $159 reversed $153 $-1 #
edge $-1 $266 -43.010345774712363 $267 43.010345774712363 $158 $268 forward 7 unknown #
face $-1 $269 $270 $36 $-1 $271 reversed single #
loop $-1 $-1 $272 $100 #
plane-surface $-1 -115.96003015494284 -10.150946068203805 47.508542376250197 0 -1 0 0.84804810408105047 0 -0.52991925155115449 forward_v I I I I #
coedge $-1 $273 $274 $275 $276 reversed $101 $-1 #
coedge $-1 $165 $103 $277 $278 reversed $65 $-1 #
coedge $-1 $103 $164 $273 $279 reversed $65 $-1 #
coedge $-1 $275 $280 $103 $167 forward $281 $-1 #
edge $-1 $282 14.969669302759058 $283 20.275376794228684 $166 $284 forward 7 unknown #
loop $-1 $-1 $173 $104 #
plane-surface $-1 -43.010345774712363 -13.158383444773175 1.9245218924663305 -0.84804810408105047 0 0.52991925155115449 0.52991925155115449 0 0.84804810408105047 forward_v I I I I #
loop $-1 $-1 $285 $67 #
coedge $-1 $171 $171 $172 $286 reversed $105 $-1 #
coedge $-1 $172 $172 $171 $286 forward $107 $-1 #
coedge $-1 $173 $173 $108 $174 forward $168 $-1 #
edge $-1 $287 0 $287 6.2831853071796004 $173 $288 forward 7 unknown #
face $-1 $289 $290 $38 $-1 $291 forward single #
loop $-1 $-1 $292 $109 #
plane-surface $-1 -115.96003015494284 6.0148747531387405 47.508542376250197 0 -1 0 0.84804810408105047 0 -0.52991925155115449 forward_v I I I I #
coedge $-1 $293 $294 $295 $296 reversed $110 $-1 #
coedge $-1 $180 $112 $297 $298 reversed $71 $-1 #
coedge $-1 $112 $179 $293 $299 reversed $71 $-1 #
coedge $-1 $295 $300 $112 $182 forward $290 $-1 #
edge $-1 $301 14.969669302759058 $302 20.275376794228684 $181 $303 forward 7 unknown #
loop $-1 $-1 $188 $113 #
plane-surface $-1 -43.010345774712363 3.0074373765693707 1.9245218924663305 -0.84804810408105047 0 0.52991925155115449 0.52991925155115449 0 0.84804810408105047 forward_v I I I I #
loop $-1 $-1 $304 $73 #
coedge $-1 $186 $186 $187 $305 reversed $114 $-1 #
coedge $-1 $187 $187 $186 $305 forward $116 $-1 #
coedge $-1 $188 $188 $117 $189 forward $183 $-1 #
edge $-1 $306 0 $306 6.2831853071796004 $188 $307 forward 7 unknown #
face $-1 $308 $309 $40 $-1 $310 forward single #
loop $-1 $-1 $311 $118 #
plane-surface $-1 70.376009671158982 -16.165820821342546 120.45822675648067 0 1 0 0.84804810408105047 0 0.52991925155115449 forward_v I I I I #
coedge $-1 $312 $313 $314 $315 reversed $119 $-1 #
coedge $-1 $195 $121 $316 $317 reversed $77 $-1 #
coedge $-1 $121 $194 $312 $318 reversed $77 $-1 #
coedge $-1 $314 $319 $121 $197 forward $309 $-1 #
edge $-1 $320 -7.8223409391328715 $321 -2.5166334476632457 $196 $322 forward 7 unknown #
loop $-1 $-1 $203 $122 #
plane-surface $-1 -2.5736747090714971 -13.158383444773175 74.874206272696796 0.84804810408105047 0 0.52991925155115449 0.52991925155115449 0 -0.84804810408105047 forward_v I I I I #
loop $-1 $-1 $323 $79 #
coedge $-1 $201 $201 $202 $324 reversed $123 $-1 #
coedge $-1 $202 $202 $201 $324 forward $125 $-1 #
coedge $-1 $203 $203 $126 $204 forward $198 $-1 #
edge $-1 $325 0 $325 6.2831853071796004 $203 $326 forward 7 unknown #
face $-1 $327 $328 $42 $-1 $329 reversed single #
loop $-1 $-1 $330 $127 #
plane-surface $-1 70.376009671158982 8.8817841970012523e-016 120.45822675648067 0 1 0 0.84804810408105047 0 0.52991925155115449 forward_v I I I I #
coedge $-1 $331 $332 $333 $334 reversed $128 $-1 #
coedge $-1 $210 $130 $335 $336 reversed $83 $-1 #
coedge $-1 $130 $209 $331 $337 reversed $83 $-1 #
coedge $-1 $333 $338 $130 $212 forward $339 $-1 #
edge $-1 $340 -7.8223409391328715 $341 -2.5166334476632457 $211 $342 forward 7 unknown #
loop $-1 $-1 $218 $131 #
plane-surface $-1 -2.5736747090714971 3.0074373765693707 74.874206272696796 0.84804810408105047 0 0.52991925155115449 0.52991925155115449 0 -0.84804810408105047 forward_v I I I I #
loop $-1 $-1 $343 $85 #
coedge $-1 $216 $216 $217 $344 reversed $132 $-1 #
coedge $-1 $217 $217 $216 $344 forward $134 $-1 #
coedge $-1 $218 $218 $135 $219 forward $213 $-1 #
edge $-1 $345 0 $345 6.2831853071796004 $218 $346 forward 7 unknown #
face $-1 $347 $348 $33 $-1 $349 reversed single #
loop $-1 $-1 $350 $136 #
plane-surface $-1 -43.010345774712363 0 0 1 0 0 0 0 -1 forward_v I I I I #
coedge $-1 $351 $231 $352 $353 forward $137 $-1 #
coedge $-1 $354 $139 $351 $355 forward $89 $-1 #
coedge $-1 $139 $354 $356 $357 forward $89 $-1 #
coedge $-1 $234 $233 $139 $227 reversed $235 $-1 #
edge $-1 $358 -24.000841408168601 $359 24.000841408168601 $226 $360 forward 7 unknown #
coedge $-1 $141 $140 $361 $362 forward $56 $-1 #
coedge $-1 $363 $364 $140 $230 reversed $348 $-1 #
edge $-1 $237 -43.010345774712363 $365 43.010345774712363 $229 $366 forward 7 unknown #
coedge $-1 $223 $367 $141 $232 reversed $137 $-1 #
edge $-1 $368 -43.010345774712363 $236 43.010345774712363 $231 $369 forward 7 unknown #
coedge $-1 $226 $142 $367 $370 forward $235 $-1 #
coedge $-1 $142 $226 $363 $371 reversed $235 $-1 #
loop $-1 $-1 $233 $347 #
vertex $-1 $143 $372 #
vertex $-1 $143 $373 #
straight-curve $-1 43.010345774712363 0 10.415429074605372 0 1 0 I I #
face $-1 $374 $375 $34 $-1 $376 reversed single #
loop $-1 $-1 $250 $144 #
plane-surface $-1 0 -27.918351701581628 5.1238303937195591 0 0 1 1 0 0 forward_v I I I I #
coedge $-1 $377 $378 $148 $247 forward $145 $-1 #
coedge $-1 $379 $147 $378 $380 forward $93 $-1 #
coedge $-1 $147 $379 $381 $382 forward $93 $-1 #
coedge $-1 $149 $148 $147 $246 reversed $59 $-1 #
edge $-1 $383 -43.010345774712363 $384 43.010345774712363 $147 $385 forward 7 unknown #
edge $-1 $384 -10.415429074605372 $253 -5.1238303937195591 $242 $386 forward 7 unknown #
coedge $-1 $381 $387 $149 $249 forward $388 $-1 #
edge $-1 $252 5.1238303937195591 $383 10.415429074605372 $248 $389 forward 7 unknown #
coedge $-1 $390 $150 $387 $391 forward $240 $-1 #
coedge $-1 $150 $390 $377 $392 forward $240 $-1 #
vertex $-1 $249 $393 #
vertex $-1 $247 $394 #
straight-curve $-1 0 -24.000841408168601 5.1238303937195591 -1 0 0 I I #
face $-1 $395 $396 $35 $-1 $397 forward single #
loop $-1 $-1 $398 $152 #
plane-surface $-1 0 31.835861994994652 7.7696297341624661 0 -1 0 0 0 -1 forward_v I I I I #
coedge $-1 $158 $399 $259 $400 forward $153 $-1 #
coedge $-1 $401 $155 $258 $400 reversed $97 $-1 #
coedge $-1 $155 $401 $402 $403 reversed $97 $-1 #
edge $-1 $404 -10.415429074605372 $267 -5.1238303937195591 $155 $405 forward 7 unknown #
coedge $-1 $157 $156 $406 $407 reversed $62 $-1 #
coedge $-1 $408 $409 $157 $264 forward $410 $-1 #
edge $-1 $266 5.1238303937195591 $411 10.415429074605372 $263 $412 forward 7 unknown #
coedge $-1 $399 $158 $409 $413 forward $153 $-1 #
vertex $-1 $264 $414 #
vertex $-1 $261 $415 #
straight-curve $-1 0 24.000841408168601 5.1238303937195591 1 0 0 I I #
face $-1 $-1 $281 $36 $-1 $416 forward single #
loop $-1 $-1 $417 $160 #
plane-surface $-1 -43.010345774712363 0 0 1 0 0 0 0 -1 forward_v I I I I #
coedge $-1 $418 $419 $420 $421 reversed $161 $-1 #
coedge $-1 $422 $163 $165 $279 forward $101 $-1 #
coedge $-1 $163 $422 $418 $423 forward $101 $-1 #
coedge $-1 $420 $166 $163 $276 forward $281 $-1 #
edge $-1 $283 -9.5866290989559584 $424 -3.571754345817217 $275 $425 forward 7 unknown #
coedge $-1 $426 $427 $164 $278 forward $270 $-1 #
edge $-1 $428 -21.829749295658768 $282 -13.338842113519727 $277 $429 forward 7 unknown #
edge $-1 $283 -10.012294280570126 $428 0 $165 $430 forward 7 unknown #
coedge $-1 $166 $420 $426 $431 forward $281 $-1 #
loop $-1 $-1 $420 $269 #
vertex $-1 $278 $432 #
vertex $-1 $167 $433 #
straight-curve $-1 -57.980015077471421 -16.165820821342546 10.415429074605374 1 0 0 I I #
coedge $-1 $285 $285 $-1 $434 reversed $170 $-1 #
edge $-1 $435 0 $435 6.2831853071796004 $171 $436 forward 7 unknown #
vertex $-1 $174 $437 #
ellipse-curve $-1 -40.357492028977553 -13.158383444773175 6.1699754835358496 -0.84804810408105047 0 0.52991925155115449 0.79487887732673168 0 1.2720721561215758 1 I I #
face $-1 $-1 $438 $38 $-1 $439 reversed single #
loop $-1 $-1 $181 $175 #
plane-surface $-1 0 0 10.415429074605372 0 0 1 1 0 0 forward_v I I I I #
coedge $-1 $440 $441 $442 $443 reversed $176 $-1 #
coedge $-1 $444 $178 $180 $299 forward $110 $-1 #
coedge $-1 $178 $444 $440 $445 forward $110 $-1 #
coedge $-1 $442 $181 $178 $296 forward $290 $-1 #
edge $-1 $302 -1.5037186882846845 $446 4.5111560648540552 $295 $447 forward 7 unknown #
coedge $-1 $448 $449 $179 $298 forward $438 $-1 #
edge $-1 $450 -21.829749295658768 $301 -13.338842113519727 $297 $451 forward 7 unknown #
edge $-1 $302 -10.012294280570126 $450 0 $180 $452 forward 7 unknown #
coedge $-1 $181 $442 $448 $453 forward $290 $-1 #
vertex $-1 $182 $454 #
vertex $-1 $182 $455 #
straight-curve $-1 -57.980015077471421 8.8817841970012523e-016 10.415429074605374 1 0 0 I I #
coedge $-1 $304 $304 $-1 $456 reversed $185 $-1 #
edge $-1 $457 0 $457 6.2831853071796004 $186 $458 forward 7 unknown #
vertex $-1 $189 $459 #
ellipse-curve $-1 -40.357492028977553 3.0074373765693707 6.1699754835358496 -0.84804810408105047 0 0.52991925155115449 0.79487887732673168 0 1.2720721561215758 1 I I #
face $-1 $-1 $460 $40 $-1 $461 reversed single #
loop $-1 $-1 $196 $190 #
plane-surface $-1 0 0 10.415429074605372 0 0 1 1 0 0 forward_v I I I I #
coedge $-1 $462 $463 $464 $465 reversed $191 $-1 #
coedge $-1 $466 $193 $195 $318 forward $119 $-1 #
coedge $-1 $193 $466 $462 $467 forward $119 $-1 #
coedge $-1 $464 $196 $193 $315 forward $309 $-1 #
edge $-1 $321 3.571754345817217 $468 9.5866290989559584 $314 $469 forward 7 unknown #
coedge $-1 $470 $471 $194 $317 forward $460 $-1 #
edge $-1 $472 -58.304591485774004 $320 -49.813684303634965 $316 $473 forward 7 unknown #
edge $-1 $321 76.00839726885458 $472 86.020691549424697 $195 $474 forward 7 unknown #
coedge $-1 $196 $464 $470 $475 forward $309 $-1 #
vertex $-1 $317 $476 #
vertex $-1 $197 $477 #
straight-curve $-1 35.188004835579491 -10.150946068203805 10.41542907460537 -1 0 0 I I #
coedge $-1 $323 $323 $-1 $478 reversed $200 $-1 #
edge $-1 $479 0 $479 6.2831853071796004 $201 $480 forward 7 unknown #
vertex $-1 $204 $481 #
ellipse-curve $-1 40.357492028977553 -13.158383444773175 6.169975483535838 0.84804810408105047 0 0.52991925155115449 0.79487887732673168 0 -1.2720721561215758 1 I I #
face $-1 $-1 $339 $42 $-1 $482 forward single #
loop $-1 $-1 $483 $205 #
plane-surface $-1 43.010345774712363 0 0 -1 0 0 0 0 1 forward_v I I I I #
coedge $-1 $484 $485 $486 $487 reversed $206 $-1 #
coedge $-1 $488 $208 $210 $337 forward $128 $-1 #
coedge $-1 $208 $488 $484 $489 forward $128 $-1 #
coedge $-1 $486 $211 $208 $334 forward $339 $-1 #
edge $-1 $341 -4.5111560648540552 $490 1.5037186882846845 $333 $491 forward 7 unknown #
coedge $-1 $492 $493 $209 $336 forward $328 $-1 #
edge $-1 $494 -58.304591485774004 $340 -49.813684303634965 $335 $495 forward 7 unknown #
edge $-1 $341 76.00839726885458 $494 86.020691549424697 $210 $496 forward 7 unknown #
coedge $-1 $211 $486 $492 $497 forward $339 $-1 #
loop $-1 $-1 $486 $327 #
vertex $-1 $336 $498 #
vertex $-1 $212 $499 #
straight-curve $-1 35.188004835579491 6.0148747531387405 10.41542907460537 -1 0 0 I I #
coedge $-1 $343 $343 $-1 $500 reversed $215 $-1 #
edge $-1 $501 0 $501 6.2831853071796004 $216 $502 forward 7 unknown #
vertex $-1 $219 $503 #
ellipse-curve $-1 40.357492028977553 3.0074373765693707 6.169975483535838 0.84804810408105047 0 0.52991925155115449 0.79487887732673168 0 -1.2720721561215758 1 I I #
face $-1 $-1 $235 $33 $-1 $504 reversed single #
loop $-1 $-1 $363 $220 #
plane-surface $-1 0 24.000841408168601 0 0 -1 0 0 0 -1 forward_v I I I I #
coedge $-1 $505 $361 $364 $506 forward $221 $-1 #
coedge $-1 $367 $223 $224 $355 reversed $137 $-1 #
coedge $-1 $361 $505 $223 $353 reversed $221 $-1 #
edge $-1 $368 -10.415429074605372 $507 10.415429074605372 $352 $508 forward 7 unknown #
coedge $-1 $225 $224 $505 $509 forward $89 $-1 #
edge $-1 $359 -43.010345774712363 $507 43.010345774712363 $351 $510 forward 7 unknown #
coedge $-1 $364 $363 $225 $357 reversed $348 $-1 #
edge $-1 $511 -43.010345774712363 $358 43.010345774712363 $356 $512 forward 7 unknown #
vertex $-1 $227 $513 #
vertex $-1 $370 $514 #
straight-curve $-1 43.010345774712363 0 -10.415429074605372 0 -1 0 I I #
coedge $-1 $350 $352 $228 $362 reversed $221 $-1 #
edge $-1 $365 -24.000841408168601 $368 24.000841408168601 $361 $515 forward 7 unknown #
coedge $-1 $356 $229 $234 $371 forward $348 $-1 #
coedge $-1 $229 $356 $350 $506 reversed $348 $-1 #
vertex $-1 $230 $516 #
straight-curve $-1 0 24.000841408168601 10.415429074605372 -1 0 0 I I #
coedge $-1 $231 $351 $233 $370 reversed $137 $-1 #
vertex $-1 $362 $517 #
straight-curve $-1 0 -24.000841408168601 10.415429074605372 1 0 0 I I #
edge $-1 $236 -10.415429074605372 $359 10.415429074605372 $233 $518 forward 7 unknown #
edge $-1 $237 -10.415429074605372 $358 10.415429074605372 $234 $519 forward 7 unknown #
point $-1 43.010345774712363 -24.000841408168601 10.415429074605372 #
point $-1 43.010345774712363 24.000841408168601 10.415429074605372 #
face $-1 $-1 $388 $34 $-1 $520 reversed single #
loop $-1 $-1 $521 $239 #
plane-surface $-1 0 -31.835861994994655 7.7696297341624661 0 1 0 0 0 1 forward_v I I I I #
coedge $-1 $522 $242 $251 $392 reversed $145 $-1 #
coedge $-1 $242 $522 $243 $380 reversed $145 $-1 #
coedge $-1 $244 $243 $523 $524 forward $93 $-1 #
edge $-1 $384 24.000841408168601 $525 31.835861994994655 $378 $526 forward 7 unknown #
coedge $-1 $527 $248 $244 $382 reversed $388 $-1 #
edge $-1 $528 -31.835861994994655 $383 -24.000841408168601 $381 $529 forward 7 unknown #
vertex $-1 $249 $530 #
vertex $-1 $380 $531 #
straight-curve $-1 0 -24.000841408168601 10.415429074605372 -1 0 0 I I #
straight-curve $-1 -43.010345774712363 -24.000841408168601 0 0 0 -1 I I #
coedge $-1 $248 $527 $250 $391 reversed $388 $-1 #
loop $-1 $-1 $248 $374 #
straight-curve $-1 43.010345774712363 -24.000841408168601 0 0 0 1 I I #
coedge $-1 $251 $250 $532 $533 forward $240 $-1 #
edge $-1 $252 -3.9175102934130273 $534 3.9175102934130273 $387 $535 forward 7 unknown #
edge $-1 $536 -3.9175102934130273 $253 3.9175102934130273 $377 $537 forward 7 unknown #
point $-1 43.010345774712363 -24.000841408168601 5.1238303937195591 #
point $-1 -43.010345774712363 -24.000841408168601 5.1238303937195591 #
face $-1 $-1 $410 $35 $-1 $538 reversed single #
loop $-1 $-1 $406 $255 #
plane-surface $-1 0 0 10.415429074605372 0 0 1 1 0 0 forward_v I I I I #
coedge $-1 $539 $540 $401 $541 forward $256 $-1 #
coedge $-1 $258 $265 $539 $542 forward $153 $-1 #
edge $-1 $543 -3.9175102934130273 $267 3.9175102934130273 $259 $544 forward 7 unknown #
coedge $-1 $260 $259 $398 $541 reversed $97 $-1 #
coedge $-1 $545 $406 $260 $403 forward $396 $-1 #
edge $-1 $404 24.000841408168601 $546 31.835861994994652 $260 $547 forward 7 unknown #
vertex $-1 $403 $548 #
straight-curve $-1 43.010345774712363 24.000841408168601 0 0 0 -1 I I #
coedge $-1 $402 $549 $262 $407 forward $396 $-1 #
edge $-1 $411 -43.010345774712363 $404 43.010345774712363 $406 $550 forward 7 unknown #
coedge $-1 $551 $263 $549 $552 reversed $410 $-1 #
coedge $-1 $263 $551 $265 $413 reversed $410 $-1 #
loop $-1 $-1 $263 $395 #
vertex $-1 $264 $553 #
straight-curve $-1 -43.010345774712363 24.000841408168601 0 0 0 1 I I #
edge $-1 $266 -3.9175102934130273 $554 3.9175102934130273 $409 $555 forward 7 unknown #
point $-1 -43.010345774712363 24.000841408168597 5.1238303937195591 #
point $-1 43.010345774712363 24.000841408168597 5.1238303937195591 #
plane-surface $-1 0 0 10.415429074605372 0 0 1 1 0 0 forward_v I I I I #
coedge $-1 $427 $426 $419 $556 forward $270 $-1 #
coedge $-1 $419 $272 $274 $423 reversed $161 $-1 #
coedge $-1 $272 $418 $417 $556 reversed $161 $-1 #
coedge $-1 $280 $275 $272 $421 forward $281 $-1 #
edge $-1 $424 -20.275376794228684 $557 -14.969669302759058 $420 $558 forward 7 unknown #
coedge $-1 $274 $273 $427 $559 reversed $101 $-1 #
edge $-1 $560 0 $424 10.012294280570126 $418 $561 forward 7 unknown #
vertex $-1 $276 $562 #
straight-curve $-1 -37.70463828324273 -6.5791917223865877 10.415429074605372 0 1 0 I I #
coedge $-1 $417 $277 $280 $431 reversed $270 $-1 #
coedge $-1 $277 $417 $422 $559 forward $270 $-1 #
vertex $-1 $278 $563 #
straight-curve $-1 -43.010345774712363 -16.165820821342546 23.754271188125099 0 0 1 I I #
straight-curve $-1 -43.010345774712363 -16.165820821342546 1.9245218924663305 -0.52991925155115449 0 -0.84804810408105047 I I #
edge $-1 $557 10.150946068203805 $282 16.165820821342546 $426 $564 forward 7 unknown #
point $-1 -43.010345774712363 -16.165820821342546 10.415429074605372 #
point $-1 -37.704638283242737 -16.165820821342546 10.415429074605372 #
edge $-1 $565 1 $565 0 $285 $-1 forward 7 unknown #
vertex $-1 $286 $566 #
ellipse-curve $-1 -38.646578854367917 -13.158383444773175 5.1008783125203028 -0.84804810408105047 0 0.52991925155115449 0.79487887732673168 0 1.2720721561215758 1 I I #
point $-1 -39.562613151650815 -13.158383444773175 7.4420476396574244 #
loop $-1 $-1 $297 $289 #
plane-surface $-1 -43.010345774712363 0 0 1 0 0 0 0 -1 forward_v I I I I #
coedge $-1 $441 $292 $294 $445 reversed $176 $-1 #
coedge $-1 $292 $440 $567 $568 reversed $176 $-1 #
coedge $-1 $300 $295 $292 $443 forward $290 $-1 #
edge $-1 $446 -20.275376794228684 $569 -14.969669302759058 $442 $570 forward 7 unknown #
coedge $-1 $294 $293 $449 $571 reversed $110 $-1 #
edge $-1 $572 0 $446 10.012294280570126 $440 $573 forward 7 unknown #
vertex $-1 $296 $574 #
straight-curve $-1 -37.70463828324273 1.5037186882846854 10.415429074605372 0 1 0 I I #
coedge $-1 $567 $297 $300 $453 reversed $438 $-1 #
coedge $-1 $297 $567 $444 $571 forward $438 $-1 #
vertex $-1 $298 $575 #
straight-curve $-1 -43.010345774712363 8.8817841970012523e-016 23.754271188125099 0 0 1 I I #
straight-curve $-1 -43.010345774712363 8.8817841970012523e-016 1.9245218924663305 -0.52991925155115449 0 -0.84804810408105047 I I #
edge $-1 $569 -6.0148747531387405 $301 -8.8817841970012523e-016 $448 $576 forward 7 unknown #
point $-1 -43.010345774712363 8.8817841970012523e-016 10.415429074605372 #
point $-1 -37.704638283242737 8.8817841970012523e-016 10.415429074605372 #
edge $-1 $577 1 $577 0 $304 $-1 forward 7 unknown #
vertex $-1 $305 $578 #
ellipse-curve $-1 -38.646578854367917 3.0074373765693707 5.1008783125203028 -0.84804810408105047 0 0.52991925155115449 0.79487887732673168 0 1.2720721561215758 1 I I #
point $-1 -39.562613151650815 3.0074373765693707 7.4420476396574244 #
loop $-1 $-1 $316 $308 #
plane-surface $-1 43.010345774712363 0 0 -1 0 0 0 0 1 forward_v I I I I #
coedge $-1 $463 $311 $313 $467 reversed $191 $-1 #
coedge $-1 $311 $462 $579 $580 reversed $191 $-1 #
coedge $-1 $319 $314 $311 $465 forward $309 $-1 #
edge $-1 $468 2.5166334476632457 $581 7.8223409391328715 $464 $582 forward 7 unknown #
coedge $-1 $313 $312 $471 $583 reversed $119 $-1 #
edge $-1 $584 -86.020691549424697 $468 -76.00839726885458 $462 $585 forward 7 unknown #
vertex $-1 $315 $586 #
straight-curve $-1 37.704638283242737 -6.5791917223865877 10.41542907460537 0 -1 0 I I #
coedge $-1 $579 $316 $319 $475 reversed $460 $-1 #
coedge $-1 $316 $579 $466 $583 forward $460 $-1 #
vertex $-1 $317 $587 #
straight-curve $-1 43.010345774712363 -10.150946068203805 60.229113378240335 0 0 1 I I #
straight-curve $-1 -2.5736747090714971 -10.150946068203805 74.874206272696796 0.52991925155115449 0 -0.84804810408105047 I I #
edge $-1 $581 -16.165820821342546 $320 -10.150946068203805 $470 $588 forward 7 unknown #
point $-1 43.010345774712363 -10.150946068203805 10.415429074605372 #
point $-1 37.704638283242737 -10.150946068203805 10.41542907460537 #
edge $-1 $589 1 $589 0 $323 $-1 forward 7 unknown #
vertex $-1 $324 $590 #
ellipse-curve $-1 38.646578854367924 -13.158383444773175 5.1008783125202957 0.84804810408105047 0 0.52991925155115449 0.79487887732673168 0 -1.2720721561215758 1 I I #
point $-1 41.152370906304292 -13.158383444773175 4.8979033274142658 #
plane-surface $-1 0 0 10.415429074605372 0 0 1 1 0 0 forward_v I I I I #
coedge $-1 $493 $492 $485 $591 forward $328 $-1 #
coedge $-1 $485 $330 $332 $489 reversed $206 $-1 #
coedge $-1 $330 $484 $483 $591 reversed $206 $-1 #
coedge $-1 $338 $333 $330 $487 forward $339 $-1 #
edge $-1 $490 2.5166334476632457 $592 7.8223409391328715 $486 $593 forward 7 unknown #
coedge $-1 $332 $331 $493 $594 reversed $128 $-1 #
edge $-1 $595 -86.020691549424697 $490 -76.00839726885458 $484 $596 forward 7 unknown #
vertex $-1 $334 $597 #
straight-curve $-1 37.704638283242737 1.5037186882846854 10.41542907460537 0 -1 0 I I #
coedge $-1 $483 $335 $338 $497 reversed $328 $-1 #
coedge $-1 $335 $483 $488 $594 forward $328 $-1 #
vertex $-1 $336 $598 #
straight-curve $-1 43.010345774712363 6.0148747531387405 60.229113378240335 0 0 1 I I #
straight-curve $-1 -2.5736747090714971 6.0148747531387405 74.874206272696796 0.52991925155115449 0 -0.84804810408105047 I I #
edge $-1 $592 8.8817841970012523e-016 $340 6.0148747531387405 $492 $599 forward 7 unknown #
point $-1 43.010345774712363 6.0148747531387405 10.415429074605372 #
point $-1 37.704638283242737 6.0148747531387405 10.41542907460537 #
edge $-1 $600 1 $600 0 $343 $-1 forward 7 unknown #
vertex $-1 $344 $601 #
ellipse-curve $-1 38.646578854367924 3.0074373765693707 5.1008783125202957 0.84804810408105047 0 0.52991925155115449 0.79487887732673168 0 -1.2720721561215758 1 I I #
point $-1 41.152370906304292 3.0074373765693707 4.8979033274142658 #
plane-surface $-1 43.010345774712363 0 0 -1 0 0 0 0 1 forward_v I I I I #
coedge $-1 $352 $350 $354 $509 reversed $221 $-1 #
edge $-1 $365 -10.415429074605372 $511 10.415429074605372 $364 $602 forward 7 unknown #
vertex $-1 $509 $603 #
straight-curve $-1 -43.010345774712363 -24.000841408168601 0 0 0 -1 I I #
edge $-1 $507 -24.000841408168601 $511 24.000841408168601 $505 $604 forward 7 unknown #
straight-curve $-1 0 -24.000841408168601 -10.415429074605372 -1 0 0 I I #
vertex $-1 $357 $605 #
straight-curve $-1 0 24.000841408168601 -10.415429074605372 1 0 0 I I #
point $-1 43.010345774712363 24.000841408168601 -10.415429074605372 #
point $-1 43.010345774712363 -24.000841408168601 -10.415429074605372 #
straight-curve $-1 -43.010345774712363 0 10.415429074605372 0 -1 0 I I #
point $-1 -43.010345774712363 24.000841408168601 10.415429074605372 #
point $-1 -43.010345774712363 -24.000841408168601 10.415429074605372 #
straight-curve $-1 43.010345774712363 -24.000841408168601 0 0 0 -1 I I #
straight-curve $-1 43.010345774712363 24.000841408168601 0 0 0 -1 I I #
plane-surface $-1 43.010345774712363 0 0 -1 0 0 0 0 1 forward_v I I I I #
coedge $-1 $532 $523 $522 $606 forward $375 $-1 #
coedge $-1 $378 $377 $521 $606 reversed $145 $-1 #
coedge $-1 $521 $607 $379 $524 reversed $375 $-1 #
edge $-1 $525 -43.010345774712363 $528 43.010345774712363 $523 $608 forward 7 unknown #
vertex $-1 $380 $609 #
straight-curve $-1 -43.010345774712363 0 10.415429074605372 0 -1 0 I I #
coedge $-1 $387 $381 $607 $610 forward $388 $-1 #
vertex $-1 $382 $611 #
straight-curve $-1 43.010345774712363 0 10.415429074605372 0 1 0 I I #
point $-1 43.010345774712363 -24.000841408168601 10.415429074605372 #
point $-1 -43.010345774712363 -24.000841408168601 10.415429074605372 #
coedge $-1 $607 $521 $390 $533 reversed $375 $-1 #
edge $-1 $534 -43.010345774712363 $536 43.010345774712363 $532 $612 forward 7 unknown #
vertex $-1 $610 $613 #
straight-curve $-1 43.010345774712363 -27.918351701581628 5.1238303937195591 0 -1 0 I I #
vertex $-1 $392 $614 #
straight-curve $-1 -43.010345774712363 -27.918351701581628 5.1238303937195591 0 1 0 I I #
plane-surface $-1 -43.010345774712363 0 0 1 0 0 0 0 -1 forward_v I I I I #
coedge $-1 $615 $398 $399 $542 reversed $256 $-1 #
coedge $-1 $398 $615 $545 $616 reversed $256 $-1 #
edge $-1 $546 -2.6457993404429079 $543 2.645799340442907 $401 $617 forward 7 unknown #
edge $-1 $554 -43.010345774712363 $543 43.010345774712363 $539 $618 forward 7 unknown #
vertex $-1 $400 $619 #
straight-curve $-1 43.010345774712363 27.918351701581624 5.1238303937195591 0 -1 0 I I #
coedge $-1 $549 $402 $540 $616 forward $396 $-1 #
vertex $-1 $403 $620 #
straight-curve $-1 43.010345774712363 0 10.415429074605372 0 1 0 I I #
point $-1 43.010345774712363 24.000841408168601 10.415429074605372 #
coedge $-1 $406 $545 $408 $552 forward $396 $-1 #
straight-curve $-1 0 24.000841408168601 10.415429074605372 1 0 0 I I #
coedge $-1 $409 $408 $615 $621 forward $410 $-1 #
edge $-1 $622 -31.835861994994652 $411 -24.000841408168601 $408 $623 forward 7 unknown #
point $-1 -43.010345774712363 24.000841408168601 10.415429074605372 #
vertex $-1 $542 $624 #
straight-curve $-1 -43.010345774712363 27.918351701581624 5.1238303937195591 0 1 0 I I #
edge $-1 $557 13.338842113519727 $560 21.829749295658768 $417 $625 forward 7 unknown #
vertex $-1 $431 $626 #
straight-curve $-1 -57.980015077471421 -10.150946068203805 10.415429074605374 -1 0 0 I I #
edge $-1 $560 3.571754345817217 $428 9.5866290989559584 $427 $627 forward 7 unknown #
vertex $-1 $559 $628 #
straight-curve $-1 -43.010345774712363 -10.150946068203805 1.9245218924663305 0.52991925155115449 0 0.84804810408105047 I I #
point $-1 -37.704638283242737 -10.150946068203805 10.415429074605372 #
point $-1 -43.010345774712363 -16.165820821342546 1.9245218924663305 #
straight-curve $-1 -43.010345774712363 0 10.415429074605372 0 -1 0 I I #
vertex $-1 $434 $629 #
point $-1 -37.851699977041186 -13.158383444773175 6.3729504686418785 #
coedge $-1 $449 $448 $441 $568 forward $438 $-1 #
edge $-1 $569 13.338842113519727 $572 21.829749295658768 $567 $630 forward 7 unknown #
vertex $-1 $453 $631 #
straight-curve $-1 -57.980015077471421 6.0148747531387405 10.415429074605374 -1 0 0 I I #
edge $-1 $572 -4.5111560648540552 $450 1.5037186882846845 $449 $632 forward 7 unknown #
vertex $-1 $571 $633 #
straight-curve $-1 -43.010345774712363 6.0148747531387405 1.9245218924663305 0.52991925155115449 0 0.84804810408105047 I I #
point $-1 -37.704638283242737 6.0148747531387405 10.415429074605372 #
point $-1 -43.010345774712363 8.8817841970012523e-016 1.9245218924663305 #
straight-curve $-1 -43.010345774712363 0 10.415429074605372 0 -1 0 I I #
vertex $-1 $456 $634 #
point $-1 -37.851699977041186 3.0074373765693707 6.3729504686418785 #
coedge $-1 $471 $470 $463 $580 forward $460 $-1 #
edge $-1 $581 49.813684303634965 $584 58.304591485774004 $579 $635 forward 7 unknown #
vertex $-1 $475 $636 #
straight-curve $-1 35.188004835579491 -16.165820821342546 10.41542907460537 1 0 0 I I #
edge $-1 $584 -9.5866290989559584 $472 -3.571754345817217 $471 $637 forward 7 unknown #
vertex $-1 $583 $638 #
straight-curve $-1 -2.5736747090714971 -16.165820821342546 74.874206272696796 -0.52991925155115449 0 0.84804810408105047 I I #
point $-1 37.704638283242737 -16.165820821342546 10.41542907460537 #
point $-1 43.010345774712363 -10.150946068203805 1.9245218924663305 #
straight-curve $-1 43.010345774712363 0 10.415429074605372 0 1 0 I I #
vertex $-1 $478 $639 #
point $-1 39.441457731694655 -13.158383444773175 3.8288061563987204 #
edge $-1 $592 49.813684303634965 $595 58.304591485774004 $483 $640 forward 7 unknown #
vertex $-1 $497 $641 #
straight-curve $-1 35.188004835579491 8.8817841970012523e-016 10.41542907460537 1 0 0 I I #
edge $-1 $595 -1.5037186882846845 $494 4.5111560648540552 $493 $642 forward 7 unknown #
vertex $-1 $594 $643 #
straight-curve $-1 -2.5736747090714971 8.8817841970012523e-016 74.874206272696796 -0.52991925155115449 0 0.84804810408105047 I I #
point $-1 37.704638283242737 8.8817841970012523e-016 10.41542907460537 #
point $-1 43.010345774712363 6.0148747531387405 1.9245218924663305 #
straight-curve $-1 43.010345774712363 0 10.415429074605372 0 1 0 I I #
vertex $-1 $500 $644 #
point $-1 39.441457731694655 3.0074373765693707 3.8288061563987204 #
straight-curve $-1 -43.010345774712363 24.000841408168601 0 0 0 -1 I I #
point $-1 -43.010345774712363 -24.000841408168601 -10.415429074605372 #
straight-curve $-1 -43.010345774712363 0 -10.415429074605372 0 1 0 I I #
point $-1 -43.010345774712363 24.000841408168601 -10.415429074605372 #
edge $-1 $525 -2.6457993404429079 $536 2.645799340442907 $522 $645 forward 7 unknown #
coedge $-1 $523 $532 $527 $610 reversed $375 $-1 #
straight-curve $-1 0 -31.835861994994655 10.415429074605374 1 0 0 I I #
point $-1 -43.010345774712363 -31.835861994994655 10.415429074605374 #
edge $-1 $528 -2.6457993404429079 $534 2.645799340442907 $527 $646 forward 7 unknown #
point $-1 43.010345774712363 -31.835861994994655 10.415429074605374 #
straight-curve $-1 0 -31.835861994994655 5.1238303937195591 -1 0 0 I I #
point $-1 43.010345774712363 -31.835861994994655 5.1238303937195591 #
point $-1 -43.010345774712363 -31.835861994994655 5.1238303937195591 #
coedge $-1 $540 $539 $551 $621 reversed $256 $-1 #
edge $-1 $546 -43.010345774712363 $622 43.010345774712363 $540 $647 forward 7 unknown #
straight-curve $-1 43.010345774712363 31.835861994994652 7.7696297341624661 0 0 -1 I I #
straight-curve $-1 0 31.835861994994652 5.1238303937195591 1 0 0 I I #
point $-1 43.010345774712363 31.835861994994652 5.1238303937195591 #
point $-1 43.010345774712363 31.835861994994652 10.415429074605374 #
edge $-1 $622 -2.6457993404429079 $554 2.645799340442907 $615 $648 forward 7 unknown #
vertex $-1 $616 $649 #
straight-curve $-1 -43.010345774712363 0 10.415429074605372 0 -1 0 I I #
point $-1 -43.010345774712363 31.835861994994652 5.1238303937195591 #
straight-curve $-1 -43.010345774712363 -10.150946068203805 23.754271188125099 0 0 -1 I I #
point $-1 -43.010345774712363 -10.150946068203805 10.415429074605372 #
straight-curve $-1 -43.010345774712363 -6.5791917223865877 1.924521892466327 0 -1 0 I I #
point $-1 -43.010345774712363 -10.150946068203805 1.9245218924663305 #
point $-1 -37.374506698246336 -13.158383444773175 4.3059994351935718 #
straight-curve $-1 -43.010345774712363 6.0148747531387405 23.754271188125099 0 0 -1 I I #
point $-1 -43.010345774712363 6.0148747531387405 10.415429074605372 #
straight-curve $-1 -43.010345774712363 1.5037186882846854 1.924521892466327 0 -1 0 I I #
point $-1 -43.010345774712363 6.0148747531387405 1.9245218924663305 #
point $-1 -37.374506698246336 3.0074373765693707 4.3059994351935718 #
straight-curve $-1 43.010345774712363 -16.165820821342546 60.229113378240335 0 0 -1 I I #
point $-1 43.010345774712363 -16.165820821342546 10.415429074605372 #
straight-curve $-1 43.010345774712363 -6.5791917223865877 1.9245218924663305 0 1 0 I I #
point $-1 43.010345774712363 -16.165820821342546 1.9245218924663305 #
point $-1 37.374506698246343 -13.158383444773175 4.3059994351935647 #
straight-curve $-1 43.010345774712363 8.8817841970012523e-016 60.229113378240335 0 0 -1 I I #
point $-1 43.010345774712363 8.8817841970012523e-016 10.415429074605372 #
straight-curve $-1 43.010345774712363 1.5037186882846854 1.9245218924663305 0 1 0 I I #
point $-1 43.010345774712363 8.8817841970012523e-016 1.9245218924663305 #
point $-1 37.374506698246343 3.0074373765693707 4.3059994351935647 #
straight-curve $-1 -43.010345774712363 -31.835861994994655 7.7696297341624661 0 0 -1 I I #
straight-curve $-1 43.010345774712363 -31.835861994994655 7.7696297341624661 0 0 -1 I I #
straight-curve $-1 0 31.835861994994652 10.415429074605374 -1 0 0 I I #
straight-curve $-1 -43.010345774712363 31.835861994994652 7.7696297341624661 0 0 -1 I I #
point $-1 -43.010345774712363 31.835861994994652 10.415429074605374 #
End-of-ACIS-data 