500 0 7 0           
7 Unknown 11 ACIS 5.0 NT 24 Thu Mar 25 16:18:48 1999 
-1 9.9999999999999995e-007 1e-010 
body $-1 $7 $-1 $8 #
body $-1 $9 $-1 $10 #
body $-1 $11 $-1 $12 #
body $-1 $13 $-1 $14 #
body $-1 $15 $-1 $16 #
body $-1 $17 $-1 $18 #
body $-1 $19 $-1 $20 #
lump $-1 $-1 $21 $0 #
transform $-1 1 0 0 0 1 0 0 0 1 64.209723197119047 31.847764040544998 14.500077902013448 1 rotate no_reflect no_shear #
lump $-1 $-1 $22 $1 #
transform $-1 1 0 0 0 1 0 0 0 1 64.209723197119047 31.847764040544998 14.500077902013448 1 rotate no_reflect no_shear #
lump $-1 $-1 $23 $2 #
transform $-1 1 0 0 0 1 0 0 0 1 64.209723197119047 31.847764040544998 14.500077902013448 1 rotate no_reflect no_shear #
lump $-1 $-1 $24 $3 #
transform $-1 1 0 0 0 1 0 0 0 1 64.209723197119047 31.847764040544998 14.500077902013448 1 rotate no_reflect no_shear #
lump $-1 $-1 $25 $4 #
transform $-1 1 0 0 0 1 0 0 0 1 64.209723197119047 31.847764040544998 14.500077902013448 1 rotate no_reflect no_shear #
lump $-1 $-1 $26 $5 #
transform $-1 1 0 0 0 1 0 0 0 1 64.209723197119047 31.847764040544998 14.500077902013448 1 rotate no_reflect no_shear #
lump $-1 $-1 $27 $6 #
transform $-1 1 0 0 0 1 0 0 0 1 64.209723197119047 31.847764040544998 14.500077902013448 1 rotate no_reflect no_shear #
shell $-1 $-1 $-1 $28 $-1 $7 #
shell $-1 $-1 $-1 $29 $-1 $9 #
shell $-1 $-1 $-1 $30 $-1 $11 #
shell $-1 $-1 $-1 $31 $-1 $13 #
shell $-1 $-1 $-1 $32 $-1 $15 #
shell $-1 $-1 $-1 $33 $-1 $17 #
shell $-1 $-1 $-1 $34 $-1 $19 #
face $-1 $35 $36 $21 $-1 $37 forward single #
face $-1 $38 $39 $22 $-1 $40 forward single #
face $-1 $41 $42 $23 $-1 $43 reversed single #
face $-1 $44 $45 $24 $-1 $46 forward single #
face $-1 $47 $48 $25 $-1 $49 forward single #
face $-1 $50 $51 $26 $-1 $52 reversed single #
face $-1 $53 $54 $27 $-1 $55 forward single #
face $-1 $56 $57 $21 $-1 $58 reversed single #
loop $-1 $-1 $59 $28 #
plane-surface $-1 0 0 14.500077902013448 0 0 1 1 0 0 forward_v I I I I #
face $-1 $60 $61 $22 $-1 $62 reversed single #
loop $-1 $-1 $63 $29 #
plane-surface $-1 0 -31.847764040544998 0 0 1 0 0 0 1 forward_v I I I I #
face $-1 $64 $65 $23 $-1 $66 reversed single #
loop $-1 $-1 $67 $30 #
plane-surface $-1 86.342724517220461 2.3906673797665849 190.41363841250424 0 -1 0 -0.78801076186113728 0 -0.61566146476048833 forward_v I I I I #
face $-1 $68 $69 $24 $-1 $70 forward single #
loop $-1 $71 $72 $31 #
cone-surface $-1 61.168140761052555 -4.9688027624517765 11.277294312194355 -0.78801076186113728 0 -0.61566146476048833 0.61566146476048833 0 -0.78801076186113728 1 I I 0 1 1 forward I I I I #
face $-1 $73 $74 $25 $-1 $75 forward single #
loop $-1 $76 $77 $32 #
cone-surface $-1 61.168140761052555 -0.5531206771207593 11.277294312194355 -0.78801076186113728 0 -0.61566146476048833 0.61566146476048833 0 -0.78801076186113728 1 I I 0 1 1 forward I I I I #
face $-1 $78 $79 $26 $-1 $80 reversed single #
loop $-1 $-1 $81 $33 #
plane-surface $-1 -132.26166264213921 -7.01060331500668 111.14432274055279 0 1 0 -0.52991927123019833 0 0.84804809178421925 forward_v I I I I #
face $-1 $82 $83 $27 $-1 $84 forward single #
loop $-1 $85 $86 $34 #
cone-surface $-1 -52.248560891472692 -0.41873210310125231 4.9288451742345734 0.52991927123019833 0 -0.84804809178421925 2.5441442753526577 0 1.589757813690595 1 I I 0 1 3 forward I I I I #
face $-1 $87 $88 $21 $-1 $89 reversed single #
loop $-1 $-1 $90 $35 #
plane-surface $-1 0 0 -14.500077902013448 0 0 1 1 0 0 forward_v I I I I #
coedge $-1 $91 $92 $93 $94 forward $36 $-1 #
face $-1 $95 $96 $22 $-1 $97 reversed single #
loop $-1 $-1 $98 $38 #
plane-surface $-1 0 0 -14.500077902013448 0 0 1 1 0 0 forward_v I I I I #
coedge $-1 $99 $100 $101 $102 forward $39 $-1 #
face $-1 $103 $104 $23 $-1 $105 reversed single #
loop $-1 $-1 $106 $41 #
plane-surface $-1 -14.853181273688577 -2.7609617197862697 111.3507339416966 0.78801076186113728 0 0.61566146476048833 0.61566146476048833 0 -0.78801076186113728 forward_v I I I I #
coedge $-1 $107 $108 $109 $110 reversed $42 $-1 #
face $-1 $-1 $111 $24 $-1 $112 forward single #
loop $-1 $113 $114 $44 #
cone-surface $-1 59.42999348425289 -4.9688027624517765 9.9193048656079519 -0.78801076186113728 0 -0.61566146476048833 0.30783073238024417 0 -0.39400538093056864 1 I I -0.70710678118654746 0.70710678118654746 0.5 forward I I I I #
loop $-1 $-1 $115 $31 #
coedge $-1 $72 $72 $116 $117 reversed $45 $-1 #
face $-1 $-1 $118 $25 $-1 $119 forward single #
loop $-1 $120 $121 $47 #
cone-surface $-1 59.42999348425289 -0.5531206771207593 9.9193048656079519 -0.78801076186113728 0 -0.61566146476048833 0.30783073238024417 0 -0.39400538093056864 1 I I -0.70710678118654746 0.70710678118654746 0.5 forward I I I I #
loop $-1 $-1 $122 $32 #
coedge $-1 $77 $77 $123 $124 reversed $48 $-1 #
face $-1 $125 $126 $26 $-1 $127 reversed single #
loop $-1 $-1 $128 $50 #
plane-surface $-1 -64.209723197119047 -0.41873210310124875 2.2384562779333379 -0.52991927123019833 0 0.84804809178421925 0.84804809178421925 0 0.52991927123019833 forward_v I I I I #
coedge $-1 $129 $130 $131 $132 reversed $51 $-1 #
face $-1 $-1 $133 $27 $-1 $134 forward single #
loop $-1 $135 $136 $53 #
cone-surface $-1 -49.303867732375522 -0.41873210310125231 0.21635112081942331 0.52991927123019833 0 -0.84804809178421925 1.2720721376763289 0 0.79487890684529749 1 I I -0.70710678118654757 0.70710678118654757 1.5 forward I I I I #
loop $-1 $-1 $137 $34 #
coedge $-1 $86 $86 $138 $139 reversed $54 $-1 #
face $-1 $140 $141 $21 $-1 $142 reversed single #
loop $-1 $-1 $143 $56 #
plane-surface $-1 0 -31.847764040544998 0 0 1 0 0 0 1 forward_v I I I I #
coedge $-1 $144 $145 $146 $147 forward $57 $-1 #
coedge $-1 $148 $59 $149 $150 forward $36 $-1 #
coedge $-1 $59 $148 $151 $152 forward $36 $-1 #
coedge $-1 $153 $154 $59 $94 reversed $155 $-1 #
edge $-1 $156 -31.847764040544998 $157 31.847764040544998 $93 $158 forward 7 unknown #
face $-1 $159 $160 $22 $-1 $161 reversed single #
loop $-1 $-1 $162 $60 #
plane-surface $-1 -61.727362926796779 -49.933516896858528 0 0 1 0 0 0 1 forward_v I I I I #
coedge $-1 $163 $164 $100 $165 forward $61 $-1 #
coedge $-1 $166 $63 $167 $168 reversed $39 $-1 #
coedge $-1 $63 $166 $98 $165 reversed $39 $-1 #
coedge $-1 $169 $170 $63 $102 reversed $160 $-1 #
edge $-1 $171 -14.500077902013448 $172 14.500077902013448 $101 $173 forward 7 unknown #
face $-1 $174 $175 $23 $-1 $176 forward single #
loop $-1 $-1 $177 $64 #
plane-surface $-1 86.342724517220461 -7.9125908193391243 190.41363841250424 0 1 0 0.78801076186113728 0 0.61566146476048833 forward_v I I I I #
coedge $-1 $178 $179 $180 $181 reversed $65 $-1 #
coedge $-1 $108 $67 $182 $183 reversed $42 $-1 #
coedge $-1 $67 $107 $178 $184 reversed $42 $-1 #
coedge $-1 $180 $185 $67 $110 forward $175 $-1 #
edge $-1 $186 -21.038360938508816 $187 -17.64347985811402 $109 $188 forward 7 unknown #
loop $-1 $-1 $116 $68 #
plane-surface $-1 -14.853181273688577 -2.7609617197862697 111.3507339416966 0.78801076186113728 0 0.61566146476048833 0.61566146476048833 0 -0.78801076186113728 forward_v I I I I #
loop $-1 $-1 $189 $44 #
coedge $-1 $114 $114 $115 $190 reversed $69 $-1 #
coedge $-1 $115 $115 $114 $190 forward $71 $-1 #
coedge $-1 $116 $116 $72 $117 forward $111 $-1 #
edge $-1 $191 0 $191 6.2831853071796004 $116 $192 forward 7 unknown #
loop $-1 $-1 $123 $73 #
plane-surface $-1 -14.853181273688577 -2.7609617197862697 111.3507339416966 0.78801076186113728 0 0.61566146476048833 0.61566146476048833 0 -0.78801076186113728 forward_v I I I I #
loop $-1 $-1 $193 $47 #
coedge $-1 $121 $121 $122 $194 reversed $74 $-1 #
coedge $-1 $122 $122 $121 $194 forward $76 $-1 #
coedge $-1 $123 $123 $77 $124 forward $118 $-1 #
edge $-1 $195 0 $195 6.2831853071796004 $123 $196 forward 7 unknown #
face $-1 $197 $198 $26 $-1 $199 reversed single #
loop $-1 $-1 $200 $78 #
plane-surface $-1 -132.26166264213921 6.1731391088041825 111.14432274055279 0 -1 0 0.52991927123019833 0 -0.84804809178421925 forward_v I I I I #
coedge $-1 $201 $202 $203 $204 reversed $79 $-1 #
coedge $-1 $130 $81 $205 $206 reversed $51 $-1 #
coedge $-1 $81 $129 $201 $207 reversed $51 $-1 #
coedge $-1 $203 $208 $81 $132 forward $209 $-1 #
edge $-1 $210 1.9211081239505603 $211 21.543804230739525 $131 $212 forward 7 unknown #
loop $-1 $-1 $138 $82 #
plane-surface $-1 -64.209723197119047 -0.41873210310124875 2.2384562779333379 -0.52991927123019833 0 0.84804809178421925 0.84804809178421925 0 0.52991927123019833 forward_v I I I I #
loop $-1 $-1 $213 $53 #
coedge $-1 $136 $136 $137 $214 reversed $83 $-1 #
coedge $-1 $137 $137 $136 $214 forward $85 $-1 #
coedge $-1 $138 $138 $86 $139 forward $133 $-1 #
edge $-1 $215 0 $215 6.2831853071796004 $138 $216 forward 7 unknown #
face $-1 $217 $218 $21 $-1 $219 reversed single #
loop $-1 $-1 $220 $87 #
plane-surface $-1 -64.209723197119047 0 0 1 0 0 0 0 -1 forward_v I I I I #
coedge $-1 $221 $151 $222 $223 forward $88 $-1 #
coedge $-1 $224 $90 $221 $225 forward $57 $-1 #
coedge $-1 $90 $224 $226 $227 forward $57 $-1 #
coedge $-1 $154 $153 $90 $147 reversed $155 $-1 #
edge $-1 $228 -31.847764040544998 $229 31.847764040544998 $146 $230 forward 7 unknown #
coedge $-1 $92 $91 $231 $232 forward $36 $-1 #
coedge $-1 $233 $234 $91 $150 reversed $218 $-1 #
edge $-1 $157 -64.209723197119047 $235 64.209723197119047 $149 $236 forward 7 unknown #
coedge $-1 $143 $237 $92 $152 reversed $88 $-1 #
edge $-1 $238 -64.209723197119047 $156 64.209723197119047 $151 $239 forward 7 unknown #
coedge $-1 $146 $93 $237 $240 forward $155 $-1 #
coedge $-1 $93 $146 $233 $241 reversed $155 $-1 #
loop $-1 $-1 $153 $217 #
vertex $-1 $94 $242 #
vertex $-1 $94 $243 #
straight-curve $-1 64.209723197119047 0 14.500077902013448 0 1 0 I I #
face $-1 $244 $245 $22 $-1 $246 reversed single #
loop $-1 $-1 $101 $95 #
plane-surface $-1 -63.709723197119047 -40.890640468701761 0 1 0 0 0 0 -1 forward_v I I I I #
coedge $-1 $247 $248 $249 $250 forward $96 $-1 #
coedge $-1 $251 $98 $252 $253 forward $61 $-1 #
coedge $-1 $98 $251 $169 $254 forward $61 $-1 #
edge $-1 $171 -63.709723197119047 $255 -59.745002656474512 $98 $256 forward 7 unknown #
coedge $-1 $100 $99 $257 $258 forward $39 $-1 #
coedge $-1 $259 $260 $99 $168 forward $261 $-1 #
edge $-1 $262 59.745002656474512 $172 63.709723197119047 $167 $263 forward 7 unknown #
coedge $-1 $249 $101 $164 $254 reversed $160 $-1 #
coedge $-1 $101 $249 $259 $264 reversed $160 $-1 #
vertex $-1 $165 $265 #
vertex $-1 $264 $266 #
straight-curve $-1 -63.709723197119047 -31.847764040544998 0 0 0 1 I I #
face $-1 $-1 $267 $23 $-1 $268 reversed single #
loop $-1 $-1 $109 $103 #
plane-surface $-1 0 0 14.500077902013448 0 0 1 1 0 0 forward_v I I I I #
coedge $-1 $269 $270 $271 $272 reversed $104 $-1 #
coedge $-1 $273 $106 $108 $184 forward $65 $-1 #
coedge $-1 $106 $273 $269 $274 forward $65 $-1 #
coedge $-1 $271 $109 $106 $181 forward $175 $-1 #
edge $-1 $187 -3.7711482396597198 $275 6.5321099594459895 $180 $276 forward 7 unknown #
coedge $-1 $277 $278 $107 $183 forward $267 $-1 #
edge $-1 $279 -85.051991055464526 $186 -80.706741304238676 $182 $280 forward 7 unknown #
edge $-1 $187 122.90524536865414 $279 128.41944639423807 $108 $281 forward 7 unknown #
coedge $-1 $109 $271 $277 $282 forward $175 $-1 #
vertex $-1 $110 $283 #
vertex $-1 $110 $284 #
straight-curve $-1 43.17136225861023 2.3906673797665849 14.500077902013444 -1 0 0 I I #
coedge $-1 $189 $189 $-1 $285 reversed $113 $-1 #
edge $-1 $286 0 $286 6.2831853071796004 $114 $287 forward 7 unknown #
vertex $-1 $117 $288 #
ellipse-curve $-1 62.512282656921656 -4.9688027624517765 12.327453026400516 0.78801076186113728 0 0.61566146476048833 0.61566146476048833 0 -0.78801076186113728 1 I I #
coedge $-1 $193 $193 $-1 $289 reversed $120 $-1 #
edge $-1 $290 0 $290 6.2831853071796004 $121 $291 forward 7 unknown #
vertex $-1 $124 $292 #
ellipse-curve $-1 62.512282656921656 -0.5531206771207593 12.327453026400516 0.78801076186113728 0 0.61566146476048833 0.61566146476048833 0 -0.78801076186113728 1 I I #
face $-1 $-1 $209 $26 $-1 $293 forward single #
loop $-1 $-1 $294 $125 #
plane-surface $-1 -64.209723197119047 0 0 1 0 0 0 0 -1 forward_v I I I I #
coedge $-1 $295 $296 $297 $298 reversed $126 $-1 #
coedge $-1 $299 $128 $130 $207 forward $79 $-1 #
coedge $-1 $128 $299 $295 $300 forward $79 $-1 #
coedge $-1 $297 $131 $128 $204 forward $209 $-1 #
edge $-1 $211 -6.8012372634560556 $301 6.3825051603548069 $203 $302 forward 7 unknown #
coedge $-1 $303 $304 $129 $206 forward $198 $-1 #
edge $-1 $305 -53.33370509234306 $210 -41.072083468262946 $205 $306 forward 7 unknown #
edge $-1 $211 -23.138659584156983 $305 0 $130 $307 forward 7 unknown #
coedge $-1 $131 $297 $303 $308 forward $209 $-1 #
loop $-1 $-1 $297 $197 #
vertex $-1 $206 $309 #
vertex $-1 $132 $310 #
straight-curve $-1 -66.130831321069607 -7.01060331500668 14.500077902013444 1 0 0 I I #
coedge $-1 $213 $213 $-1 $311 reversed $135 $-1 #
edge $-1 $312 0 $312 6.2831853071796004 $136 $313 forward 7 unknown #
vertex $-1 $139 $314 #
ellipse-curve $-1 -54.398375143724564 -0.41873210310125231 8.3692670899733947 -0.52991927123019833 0 0.84804809178421925 2.5441442753526577 0 1.589757813690595 1 I I #
face $-1 $-1 $155 $21 $-1 $315 reversed single #
loop $-1 $-1 $233 $140 #
plane-surface $-1 0 31.847764040544998 0 0 -1 0 0 0 -1 forward_v I I I I #
coedge $-1 $316 $231 $234 $317 forward $141 $-1 #
coedge $-1 $237 $143 $144 $225 reversed $88 $-1 #
coedge $-1 $231 $316 $143 $223 reversed $141 $-1 #
edge $-1 $238 -14.500077902013448 $318 14.500077902013448 $222 $319 forward 7 unknown #
coedge $-1 $145 $144 $316 $320 forward $57 $-1 #
edge $-1 $229 -64.209723197119047 $318 64.209723197119047 $221 $321 forward 7 unknown #
coedge $-1 $234 $233 $145 $227 reversed $218 $-1 #
edge $-1 $322 -64.209723197119047 $228 64.209723197119047 $226 $323 forward 7 unknown #
vertex $-1 $147 $324 #
vertex $-1 $240 $325 #
straight-curve $-1 64.209723197119047 0 -14.500077902013448 0 -1 0 I I #
coedge $-1 $220 $222 $148 $232 reversed $141 $-1 #
edge $-1 $235 -31.847764040544998 $238 31.847764040544998 $231 $326 forward 7 unknown #
coedge $-1 $226 $149 $154 $241 forward $218 $-1 #
coedge $-1 $149 $226 $220 $317 reversed $218 $-1 #
vertex $-1 $150 $327 #
straight-curve $-1 0 31.847764040544998 14.500077902013448 -1 0 0 I I #
coedge $-1 $151 $221 $153 $240 reversed $88 $-1 #
vertex $-1 $232 $328 #
straight-curve $-1 0 -31.847764040544998 14.500077902013448 1 0 0 I I #
edge $-1 $156 -14.500077902013448 $229 14.500077902013448 $153 $329 forward 7 unknown #
edge $-1 $157 -14.500077902013448 $228 14.500077902013448 $154 $330 forward 7 unknown #
point $-1 64.209723197119047 -31.847764040544998 14.500077902013448 #
point $-1 64.209723197119047 31.847764040544998 14.500077902013448 #
face $-1 $-1 $261 $22 $-1 $331 forward single #
loop $-1 $-1 $332 $159 #
plane-surface $-1 -59.745002656474512 -40.890640468701761 0 -1 0 0 0 0 1 forward_v I I I I #
coedge $-1 $333 $162 $251 $334 reversed $96 $-1 #
coedge $-1 $162 $333 $335 $336 reversed $96 $-1 #
coedge $-1 $170 $169 $162 $250 reversed $160 $-1 #
edge $-1 $337 -14.500077902013448 $338 14.500077902013448 $249 $339 forward 7 unknown #
coedge $-1 $164 $163 $247 $334 forward $61 $-1 #
coedge $-1 $257 $332 $163 $253 reversed $245 $-1 #
edge $-1 $255 -9.0428764281567666 $340 9.0428764281567666 $252 $341 forward 7 unknown #
edge $-1 $338 -9.0428764281567666 $171 9.0428764281567666 $169 $342 forward 7 unknown #
vertex $-1 $253 $343 #
straight-curve $-1 0 -31.847764040544998 -14.500077902013448 1 0 0 I I #
coedge $-1 $344 $252 $166 $258 reversed $245 $-1 #
edge $-1 $262 -14.500077902013448 $255 14.500077902013448 $257 $345 forward 7 unknown #
coedge $-1 $335 $167 $170 $264 forward $261 $-1 #
coedge $-1 $167 $335 $344 $346 forward $261 $-1 #
loop $-1 $-1 $167 $244 #
vertex $-1 $168 $347 #
straight-curve $-1 0 -31.847764040544998 14.500077902013448 -1 0 0 I I #
edge $-1 $172 -9.0428764281567666 $337 9.0428764281567666 $170 $348 forward 7 unknown #
point $-1 -63.709723197119047 -31.847764040544995 -14.500077902013448 #
point $-1 -63.709723197119047 -31.847764040544995 14.500077902013448 #
loop $-1 $-1 $182 $174 #
plane-surface $-1 64.209723197119047 0 0 -1 0 0 0 0 1 forward_v I I I I #
coedge $-1 $270 $177 $179 $274 reversed $104 $-1 #
coedge $-1 $177 $269 $349 $350 reversed $104 $-1 #
coedge $-1 $185 $180 $177 $272 forward $175 $-1 #
edge $-1 $275 17.64347985811402 $351 21.038360938508816 $271 $352 forward 7 unknown #
coedge $-1 $179 $178 $278 $353 reversed $65 $-1 #
edge $-1 $354 -128.41944639423807 $275 -122.90524536865414 $269 $355 forward 7 unknown #
vertex $-1 $181 $356 #
straight-curve $-1 60.81484211672425 -1.3804808598931348 14.500077902013437 0 -1 0 I I #
coedge $-1 $349 $182 $185 $282 reversed $267 $-1 #
coedge $-1 $182 $349 $273 $353 forward $267 $-1 #
vertex $-1 $183 $357 #
straight-curve $-1 64.209723197119047 2.3906673797665849 95.206819206252121 0 0 1 I I #
straight-curve $-1 -14.853181273688577 2.3906673797665849 111.3507339416966 0.61566146476048833 0 -0.78801076186113728 I I #
edge $-1 $351 -7.9125908193391243 $186 2.3906673797665849 $277 $358 forward 7 unknown #
point $-1 64.209723197119047 2.3906673797665849 14.500077902013448 #
point $-1 60.81484211672425 2.3906673797665849 14.500077902013444 #
edge $-1 $359 1 $359 0 $189 $-1 forward 7 unknown #
vertex $-1 $190 $360 #
ellipse-curve $-1 59.823998865183455 -4.9688027624517765 10.227135597988196 0.78801076186113728 0 0.61566146476048833 0.61566146476048833 0 -0.78801076186113728 1 I I #
point $-1 63.127944121682141 -4.9688027624517765 11.539442264539378 #
edge $-1 $361 1 $361 0 $193 $-1 forward 7 unknown #
vertex $-1 $194 $362 #
ellipse-curve $-1 59.823998865183455 -0.5531206771207593 10.227135597988196 0.78801076186113728 0 0.61566146476048833 0.61566146476048833 0 -0.78801076186113728 1 I I #
point $-1 63.127944121682141 -0.5531206771207593 11.539442264539378 #
plane-surface $-1 0 0 14.500077902013448 0 0 1 1 0 0 forward_v I I I I #
coedge $-1 $304 $303 $296 $363 forward $198 $-1 #
coedge $-1 $296 $200 $202 $300 reversed $126 $-1 #
coedge $-1 $200 $295 $294 $363 reversed $126 $-1 #
coedge $-1 $208 $203 $200 $298 forward $209 $-1 #
edge $-1 $301 -21.543804230739525 $364 -1.9211081239505603 $297 $365 forward 7 unknown #
coedge $-1 $202 $201 $304 $366 reversed $79 $-1 #
edge $-1 $367 0 $301 23.138659584156983 $295 $368 forward 7 unknown #
vertex $-1 $204 $369 #
straight-curve $-1 -44.587027090330082 -0.20936605155062438 14.500077902013448 0 1 0 I I #
coedge $-1 $294 $205 $208 $308 reversed $198 $-1 #
coedge $-1 $205 $294 $299 $366 forward $198 $-1 #
vertex $-1 $206 $370 #
straight-curve $-1 -64.209723197119047 -7.01060331500668 55.572161370276397 0 0 1 I I #
straight-curve $-1 -64.209723197119047 -7.01060331500668 2.2384562779333379 -0.84804809178421925 0 -0.52991927123019833 I I #
edge $-1 $364 -6.1731391088041825 $210 7.01060331500668 $303 $371 forward 7 unknown #
point $-1 -64.209723197119047 -7.01060331500668 14.500077902013448 #
point $-1 -44.587027090330082 -7.01060331500668 14.500077902013448 #
edge $-1 $372 1 $372 0 $213 $-1 forward 7 unknown #
vertex $-1 $214 $373 #
ellipse-curve $-1 -50.09874663922082 -0.41873210310125231 1.4884232584957522 -0.52991927123019833 0 0.84804809178421925 2.5441442753526577 0 1.589757813690595 1 I I #
point $-1 -51.854230868371907 -0.41873210310125231 9.9590249036639893 #
plane-surface $-1 64.209723197119047 0 0 -1 0 0 0 0 1 forward_v I I I I #
coedge $-1 $222 $220 $224 $320 reversed $141 $-1 #
edge $-1 $235 -14.500077902013448 $322 14.500077902013448 $234 $374 forward 7 unknown #
vertex $-1 $320 $375 #
straight-curve $-1 -64.209723197119047 -31.847764040544998 0 0 0 -1 I I #
edge $-1 $318 -31.847764040544998 $322 31.847764040544998 $316 $376 forward 7 unknown #
straight-curve $-1 0 -31.847764040544998 -14.500077902013448 -1 0 0 I I #
vertex $-1 $227 $377 #
straight-curve $-1 0 31.847764040544998 -14.500077902013448 1 0 0 I I #
point $-1 64.209723197119047 31.847764040544998 -14.500077902013448 #
point $-1 64.209723197119047 -31.847764040544998 -14.500077902013448 #
straight-curve $-1 -64.209723197119047 0 14.500077902013448 0 -1 0 I I #
point $-1 -64.209723197119047 31.847764040544998 14.500077902013448 #
point $-1 -64.209723197119047 -31.847764040544998 14.500077902013448 #
straight-curve $-1 64.209723197119047 -31.847764040544998 0 0 0 -1 I I #
straight-curve $-1 64.209723197119047 31.847764040544998 0 0 0 -1 I I #
plane-surface $-1 0 0 14.500077902013448 0 0 1 1 0 0 forward_v I I I I #
coedge $-1 $252 $344 $333 $378 forward $245 $-1 #
coedge $-1 $248 $247 $332 $378 reversed $96 $-1 #
edge $-1 $340 -1.9823602703222676 $338 1.9823602703222676 $247 $379 forward 7 unknown #
coedge $-1 $260 $259 $248 $336 forward $261 $-1 #
edge $-1 $337 -1.9823602703222676 $380 1.9823602703222676 $248 $381 forward 7 unknown #
vertex $-1 $264 $382 #
vertex $-1 $254 $383 #
straight-curve $-1 -63.709723197119047 -49.933516896858528 0 0 0 -1 I I #
vertex $-1 $378 $384 #
straight-curve $-1 -59.745002656474512 -40.890640468701761 -14.500077902013448 0 -1 0 I I #
straight-curve $-1 -63.709723197119047 -40.890640468701761 -14.500077902013448 0 1 0 I I #
point $-1 -59.745002656474512 -31.847764040544995 -14.500077902013448 #
coedge $-1 $332 $257 $260 $346 reversed $245 $-1 #
straight-curve $-1 -59.745002656474512 -31.847764040544998 0 0 0 -1 I I #
edge $-1 $380 -9.0428764281567666 $262 9.0428764281567666 $344 $385 forward 7 unknown #
point $-1 -59.745002656474512 -31.847764040544995 14.500077902013448 #
straight-curve $-1 -63.709723197119047 -40.890640468701761 14.500077902013448 0 -1 0 I I #
coedge $-1 $278 $277 $270 $350 forward $267 $-1 #
edge $-1 $351 80.706741304238676 $354 85.051991055464526 $349 $386 forward 7 unknown #
vertex $-1 $282 $387 #
straight-curve $-1 43.17136225861023 -7.9125908193391243 14.500077902013444 1 0 0 I I #
edge $-1 $354 -6.5321099594459895 $279 3.7711482396597198 $278 $388 forward 7 unknown #
vertex $-1 $353 $389 #
straight-curve $-1 -14.853181273688577 -7.9125908193391243 111.3507339416966 -0.61566146476048833 0 0.78801076186113728 I I #
point $-1 60.81484211672425 -7.9125908193391243 14.500077902013444 #
point $-1 64.209723197119047 2.3906673797665849 10.154828150787594 #
straight-curve $-1 64.209723197119047 0 14.500077902013448 0 1 0 I I #
vertex $-1 $285 $390 #
point $-1 60.439660329943948 -4.9688027624517765 9.4391248361270588 #
vertex $-1 $289 $391 #
point $-1 60.439660329943948 -0.5531206771207593 9.4391248361270588 #
edge $-1 $364 41.072083468262946 $367 53.33370509234306 $294 $392 forward 7 unknown #
vertex $-1 $308 $393 #
straight-curve $-1 -66.130831321069607 6.1731391088041825 14.500077902013444 -1 0 0 I I #
edge $-1 $367 -6.3825051603548069 $305 6.8012372634560556 $304 $394 forward 7 unknown #
vertex $-1 $366 $395 #
straight-curve $-1 -64.209723197119047 6.1731391088041825 2.2384562779333379 0.84804809178421925 0 0.52991927123019833 I I #
point $-1 -44.587027090330082 6.1731391088041825 14.500077902013448 #
point $-1 -64.209723197119047 -7.01060331500668 2.2384562779333379 #
straight-curve $-1 -64.209723197119047 0 14.500077902013448 0 -1 0 I I #
vertex $-1 $311 $396 #
point $-1 -47.554602363868163 -0.41873210310125231 3.0781810721863474 #
straight-curve $-1 -64.209723197119047 31.847764040544998 0 0 0 -1 I I #
point $-1 -64.209723197119047 -31.847764040544998 -14.500077902013448 #
straight-curve $-1 -64.209723197119047 0 -14.500077902013448 0 1 0 I I #
point $-1 -64.209723197119047 31.847764040544998 -14.500077902013448 #
edge $-1 $380 -14.500077902013448 $340 14.500077902013448 $332 $397 forward 7 unknown #
straight-curve $-1 -61.727362926796779 -49.933516896858528 -14.500077902013448 -1 0 0 I I #
vertex $-1 $346 $398 #
straight-curve $-1 -61.727362926796779 -49.933516896858528 14.500077902013448 1 0 0 I I #
point $-1 -63.709723197119047 -49.933516896858528 14.500077902013448 #
point $-1 -63.709723197119047 -49.933516896858528 -14.500077902013448 #
point $-1 -59.745002656474512 -49.933516896858528 -14.500077902013448 #
straight-curve $-1 -59.745002656474512 -40.890640468701761 14.500077902013448 0 1 0 I I #
straight-curve $-1 64.209723197119047 -7.9125908193391243 95.206819206252121 0 0 -1 I I #
point $-1 64.209723197119047 -7.9125908193391243 14.500077902013448 #
straight-curve $-1 64.209723197119061 -1.3804808598931348 10.154828150787566 0 1 0 I I #
point $-1 64.209723197119047 -7.9125908193391243 10.154828150787594 #
point $-1 59.035988103322325 -4.9688027624517765 9.6114741332277074 #
point $-1 59.035988103322325 -0.5531206771207593 9.6114741332277074 #
straight-curve $-1 -64.209723197119047 6.1731391088041825 55.572161370276397 0 0 -1 I I #
point $-1 -64.209723197119047 6.1731391088041825 14.500077902013448 #
straight-curve $-1 -64.209723197119047 -0.20936605155062438 2.2384562779333366 0 -1 0 I I #
point $-1 -64.209723197119047 6.1731391088041825 2.2384562779333379 #
point $-1 -48.508988825530224 -0.41873210310125231 -1.0557210168569056 #
straight-curve $-1 -59.745002656474512 -49.933516896858528 0 0 0 -1 I I #
point $-1 -59.745002656474512 -49.933516896858528 14.500077902013448 #
End-of-ACIS-data 