500 0 14 0           
7 Unknown 11 ACIS 5.0 NT 24 Fri Mar 26 17:01:38 1999 
-1 9.9999999999999995e-007 1e-010 
body $-1 $14 $-1 $15 #
body $-1 $16 $-1 $17 #
body $-1 $18 $-1 $19 #
body $-1 $20 $-1 $21 #
body $-1 $22 $-1 $23 #
body $-1 $24 $-1 $25 #
body $-1 $26 $-1 $27 #
body $-1 $28 $-1 $29 #
body $-1 $30 $-1 $31 #
body $-1 $32 $-1 $33 #
body $-1 $34 $-1 $35 #
body $-1 $36 $-1 $37 #
body $-1 $38 $-1 $39 #
body $-1 $40 $-1 $41 #
lump $-1 $-1 $42 $0 #
transform $-1 1 0 0 0 1 0 0 0 1 50.007629627368999 24.8246438270744 9.1512605747128024 1 rotate no_reflect no_shear #
lump $-1 $-1 $43 $1 #
transform $-1 1 0 0 0 1 0 0 0 1 50.007629627368999 24.8246438270744 9.1512605747128024 1 rotate no_reflect no_shear #
lump $-1 $-1 $44 $2 #
transform $-1 1 0 0 0 1 0 0 0 1 50.007629627368999 24.8246438270744 9.1512605747128024 1 rotate no_reflect no_shear #
lump $-1 $-1 $45 $3 #
transform $-1 1 0 0 0 1 0 0 0 1 50.007629627368999 24.8246438270744 9.1512605747128024 1 rotate no_reflect no_shear #
lump $-1 $-1 $46 $4 #
transform $-1 1 0 0 0 1 0 0 0 1 50.007629627368999 24.8246438270744 9.1512605747128024 1 rotate no_reflect no_shear #
lump $-1 $-1 $47 $5 #
transform $-1 1 0 0 0 1 0 0 0 1 50.007629627368999 24.8246438270744 9.1512605747128024 1 rotate no_reflect no_shear #
lump $-1 $-1 $48 $6 #
transform $-1 1 0 0 0 1 0 0 0 1 50.007629627368999 24.8246438270744 9.1512605747128024 1 rotate no_reflect no_shear #
lump $-1 $-1 $49 $7 #
transform $-1 1 0 0 0 1 0 0 0 1 50.007629627368999 24.8246438270744 9.1512605747128024 1 rotate no_reflect no_shear #
lump $-1 $-1 $50 $8 #
transform $-1 1 0 0 0 1 0 0 0 1 50.007629627368999 24.8246438270744 9.1512605747128024 1 rotate no_reflect no_shear #
lump $-1 $-1 $51 $9 #
transform $-1 1 0 0 0 1 0 0 0 1 50.007629627368999 24.8246438270744 9.1512605747128024 1 rotate no_reflect no_shear #
lump $-1 $-1 $52 $10 #
transform $-1 1 0 0 0 1 0 0 0 1 50.007629627368999 24.8246438270744 9.1512605747128024 1 rotate no_reflect no_shear #
lump $-1 $-1 $53 $11 #
transform $-1 1 0 0 0 1 0 0 0 1 50.007629627368999 24.8246438270744 9.1512605747128024 1 rotate no_reflect no_shear #
lump $-1 $-1 $54 $12 #
transform $-1 1 0 0 0 1 0 0 0 1 50.007629627368999 24.8246438270744 9.1512605747128024 1 rotate no_reflect no_shear #
lump $-1 $-1 $55 $13 #
transform $-1 1 0 0 0 1 0 0 0 1 50.007629627368999 24.8246438270744 9.1512605747128024 1 rotate no_reflect no_shear #
shell $-1 $-1 $-1 $56 $-1 $14 #
shell $-1 $-1 $-1 $57 $-1 $16 #
shell $-1 $-1 $-1 $58 $-1 $18 #
shell $-1 $-1 $-1 $59 $-1 $20 #
shell $-1 $-1 $-1 $60 $-1 $22 #
shell $-1 $-1 $-1 $61 $-1 $24 #
shell $-1 $-1 $-1 $62 $-1 $26 #
shell $-1 $-1 $-1 $63 $-1 $28 #
shell $-1 $-1 $-1 $64 $-1 $30 #
shell $-1 $-1 $-1 $65 $-1 $32 #
shell $-1 $-1 $-1 $66 $-1 $34 #
shell $-1 $-1 $-1 $67 $-1 $36 #
shell $-1 $-1 $-1 $68 $-1 $38 #
shell $-1 $-1 $-1 $69 $-1 $40 #
face $-1 $70 $71 $42 $-1 $72 forward single #
face $-1 $73 $74 $43 $-1 $75 forward single #
face $-1 $76 $77 $44 $-1 $78 reversed single #
face $-1 $79 $80 $45 $-1 $81 forward single #
face $-1 $82 $83 $46 $-1 $84 forward single #
face $-1 $85 $86 $47 $-1 $87 reversed single #
face $-1 $88 $89 $48 $-1 $90 forward single #
face $-1 $91 $92 $49 $-1 $93 forward single #
face $-1 $94 $95 $50 $-1 $96 reversed single #
face $-1 $97 $98 $51 $-1 $99 forward single #
face $-1 $100 $101 $52 $-1 $102 forward single #
face $-1 $103 $104 $53 $-1 $105 reversed single #
face $-1 $106 $107 $54 $-1 $108 forward single #
face $-1 $109 $110 $55 $-1 $111 forward single #
face $-1 $112 $113 $42 $-1 $114 reversed single #
loop $-1 $-1 $115 $56 #
plane-surface $-1 0 0 9.1512605747128024 0 0 1 1 0 0 forward_v I I I I #
face $-1 $116 $117 $43 $-1 $118 reversed single #
loop $-1 $-1 $119 $57 #
plane-surface $-1 -50.007629627368999 0 0 1 0 0 0 0 -1 forward_v I I I I #
face $-1 $120 $121 $44 $-1 $122 reversed single #
loop $-1 $-1 $123 $58 #
plane-surface $-1 -8.1916429759737852 49.18154359835026 112.74977568661579 1 0 0 0 -0.62932039886446345 -0.77714595512881146 forward_v I I I I #
face $-1 $124 $125 $45 $-1 $126 forward single #
loop $-1 $127 $128 $59 #
cone-surface $-1 -4.3285562671023428 20.015417012121688 4.6227598149519 0 -0.62932039886446345 -0.77714595512881146 1.5 0 0 1 I I 0 1 1.5 forward I I I I #
face $-1 $129 $130 $46 $-1 $131 forward single #
loop $-1 $132 $133 $60 #
cone-surface $-1 1.4660737962048245 20.015417012121688 4.6227598149519 0 -0.62932039886446345 -0.77714595512881146 1.5 0 0 1 I I 0 1 1.5 forward I I I I #
face $-1 $134 $135 $47 $-1 $136 reversed single #
loop $-1 $-1 $137 $61 #
plane-surface $-1 -1.4312412354487591 -13.760099248374175 35.02332150563673 0 0.62932039886446345 0.77714595512881146 1 0 0 forward_v I I I I #
face $-1 $138 $139 $48 $-1 $140 forward single #
loop $-1 $141 $142 $62 #
cone-surface $-1 9.1922472139477094 20.015417012121688 4.6227598149519 0 -0.62932039886446345 -0.77714595512881146 1.5 0 0 1 I I 0 1 1.5 forward I I I I #
face $-1 $143 $144 $49 $-1 $145 forward single #
loop $-1 $146 $147 $63 #
cone-surface $-1 14.986877277254877 20.015417012121688 4.6227598149519 0 -0.62932039886446345 -0.77714595512881146 1.5 0 0 1 I I 0 1 1.5 forward I I I I #
face $-1 $148 $149 $50 $-1 $150 reversed single #
loop $-1 $-1 $151 $64 #
plane-surface $-1 5.3291605050762669 -87.766286673798831 81.504466176770393 -1 0 0 0 -0.62932039886446345 0.77714595512881146 forward_v I I I I #
face $-1 $152 $153 $51 $-1 $154 forward single #
loop $-1 $155 $156 $65 #
cone-surface $-1 -4.3285562671023428 -20.015417012121695 4.6227598149518965 0 0.62932039886446345 -0.77714595512881146 1.5 0 0 1 I I 0 1 1.5 forward I I I I #
face $-1 $157 $158 $52 $-1 $159 forward single #
loop $-1 $160 $161 $66 #
cone-surface $-1 1.4660737962048245 -20.015417012121695 4.6227598149518965 0 0.62932039886446345 -0.77714595512881146 1.5 0 0 1 I I 0 1 1.5 forward I I I I #
face $-1 $162 $163 $53 $-1 $164 reversed single #
loop $-1 $-1 $165 $67 #
plane-surface $-1 18.849963986126319 -87.766286673798831 81.504466176770393 -1 0 0 0 -0.62932039886446345 0.77714595512881146 forward_v I I I I #
face $-1 $166 $167 $54 $-1 $168 forward single #
loop $-1 $169 $170 $68 #
cone-surface $-1 9.1922472139477094 -20.015417012121695 4.6227598149518965 0 0.62932039886446345 -0.77714595512881146 1.5 0 0 1 I I 0 1 1.5 forward I I I I #
face $-1 $171 $172 $55 $-1 $173 forward single #
loop $-1 $174 $175 $69 #
cone-surface $-1 14.986877277254877 -20.015417012121695 4.6227598149518965 0 0.62932039886446345 -0.77714595512881146 1.5 0 0 1 I I 0 1 1.5 forward I I I I #
face $-1 $176 $177 $42 $-1 $178 reversed single #
loop $-1 $-1 $179 $70 #
plane-surface $-1 0 0 -9.1512605747128024 0 0 1 1 0 0 forward_v I I I I #
coedge $-1 $180 $181 $182 $183 forward $71 $-1 #
face $-1 $184 $185 $43 $-1 $186 forward single #
loop $-1 $-1 $187 $73 #
plane-surface $-1 0 24.8246438270744 0 0 -1 0 0 0 -1 forward_v I I I I #
coedge $-1 $188 $189 $190 $191 forward $74 $-1 #
face $-1 $192 $193 $44 $-1 $194 reversed single #
loop $-1 $-1 $195 $76 #
plane-surface $-1 -1.4312412354487591 -13.760099248374175 35.02332150563673 0 0.62932039886446345 0.77714595512881146 1 0 0 forward_v I I I I #
coedge $-1 $196 $197 $198 $199 reversed $77 $-1 #
face $-1 $-1 $200 $45 $-1 $201 forward single #
loop $-1 $202 $203 $79 #
cone-surface $-1 -4.3285562671023428 18.051904525540412 2.1980238783051131 0 -0.62932039886446345 -0.77714595512881146 0.75 0 0 1 I I -0.70710678118654757 0.70710678118654757 0.75 forward I I I I #
loop $-1 $-1 $204 $59 #
coedge $-1 $128 $128 $205 $206 reversed $80 $-1 #
face $-1 $-1 $207 $46 $-1 $208 forward single #
loop $-1 $209 $210 $82 #
cone-surface $-1 1.4660737962048245 18.051904525540412 2.1980238783051131 0 -0.62932039886446345 -0.77714595512881146 0.75 0 0 1 I I -0.70710678118654757 0.70710678118654757 0.75 forward I I I I #
loop $-1 $-1 $211 $60 #
coedge $-1 $133 $133 $212 $213 reversed $83 $-1 #
face $-1 $214 $215 $47 $-1 $216 forward single #
loop $-1 $-1 $217 $85 #
plane-surface $-1 18.849963986126319 49.18154359835026 112.74977568661579 -1 0 0 0 0.62932039886446345 0.77714595512881146 forward_v I I I I #
coedge $-1 $218 $219 $220 $221 reversed $86 $-1 #
face $-1 $-1 $222 $48 $-1 $223 forward single #
loop $-1 $224 $225 $88 #
cone-surface $-1 9.1922472139477094 18.051904525540412 2.1980238783051131 0 -0.62932039886446345 -0.77714595512881146 0.75 0 0 1 I I -0.70710678118654757 0.70710678118654757 0.75 forward I I I I #
loop $-1 $-1 $226 $62 #
coedge $-1 $142 $142 $227 $228 reversed $89 $-1 #
face $-1 $-1 $229 $49 $-1 $230 forward single #
loop $-1 $231 $232 $91 #
cone-surface $-1 14.986877277254877 18.051904525540412 2.1980238783051131 0 -0.62932039886446345 -0.77714595512881146 0.75 0 0 1 I I -0.70710678118654757 0.70710678118654757 0.75 forward I I I I #
loop $-1 $-1 $233 $63 #
coedge $-1 $147 $147 $234 $235 reversed $92 $-1 #
face $-1 $236 $237 $50 $-1 $238 reversed single #
loop $-1 $-1 $239 $94 #
plane-surface $-1 -1.4312412354487591 -24.824643827074397 3.7780119957913314 0 -0.62932039886446345 0.77714595512881146 1 0 0 forward_v I I I I #
coedge $-1 $240 $241 $242 $243 reversed $95 $-1 #
face $-1 $-1 $244 $51 $-1 $245 forward single #
loop $-1 $246 $247 $97 #
cone-surface $-1 -4.3285562671023428 -18.051904525540419 2.1980238783051096 0 0.62932039886446345 -0.77714595512881146 0.75 0 0 1 I I -0.70710678118654757 0.70710678118654757 0.75 forward I I I I #
loop $-1 $-1 $248 $65 #
coedge $-1 $156 $156 $249 $250 reversed $98 $-1 #
face $-1 $-1 $251 $52 $-1 $252 forward single #
loop $-1 $253 $254 $100 #
cone-surface $-1 1.4660737962048245 -18.051904525540419 2.1980238783051096 0 0.62932039886446345 -0.77714595512881146 0.75 0 0 1 I I -0.70710678118654757 0.70710678118654757 0.75 forward I I I I #
loop $-1 $-1 $255 $66 #
coedge $-1 $161 $161 $256 $257 reversed $101 $-1 #
face $-1 $258 $259 $53 $-1 $260 reversed single #
loop $-1 $-1 $261 $103 #
plane-surface $-1 -1.4312412354487591 -24.824643827074397 3.7780119957913314 0 -0.62932039886446345 0.77714595512881146 1 0 0 forward_v I I I I #
coedge $-1 $262 $263 $264 $265 reversed $104 $-1 #
face $-1 $-1 $266 $54 $-1 $267 forward single #
loop $-1 $268 $269 $106 #
cone-surface $-1 9.1922472139477094 -18.051904525540419 2.1980238783051096 0 0.62932039886446345 -0.77714595512881146 0.75 0 0 1 I I -0.70710678118654757 0.70710678118654757 0.75 forward I I I I #
loop $-1 $-1 $270 $68 #
coedge $-1 $170 $170 $271 $272 reversed $107 $-1 #
face $-1 $-1 $273 $55 $-1 $274 forward single #
loop $-1 $275 $276 $109 #
cone-surface $-1 14.986877277254877 -18.051904525540419 2.1980238783051096 0 0.62932039886446345 -0.77714595512881146 0.75 0 0 1 I I -0.70710678118654757 0.70710678118654757 0.75 forward I I I I #
loop $-1 $-1 $277 $69 #
coedge $-1 $175 $175 $278 $279 reversed $110 $-1 #
face $-1 $280 $281 $42 $-1 $282 reversed single #
loop $-1 $-1 $283 $112 #
plane-surface $-1 0 -24.8246438270744 0 0 1 0 0 0 1 forward_v I I I I #
coedge $-1 $284 $285 $286 $287 forward $113 $-1 #
coedge $-1 $288 $115 $289 $290 forward $71 $-1 #
coedge $-1 $115 $288 $291 $292 forward $71 $-1 #
coedge $-1 $293 $294 $115 $183 reversed $295 $-1 #
edge $-1 $296 -24.8246438270744 $297 24.8246438270744 $182 $298 forward 7 unknown #
face $-1 $299 $300 $43 $-1 $301 reversed single #
loop $-1 $-1 $190 $116 #
plane-surface $-1 -55.336790132445266 0 0.86790177996924944 0 0 1 1 0 0 forward_v I I I I #
coedge $-1 $302 $303 $189 $304 forward $117 $-1 #
coedge $-1 $305 $119 $306 $307 reversed $74 $-1 #
coedge $-1 $119 $305 $187 $304 reversed $74 $-1 #
coedge $-1 $308 $309 $119 $191 reversed $185 $-1 #
edge $-1 $310 -24.8246438270744 $311 24.8246438270744 $190 $312 forward 7 unknown #
face $-1 $313 $314 $44 $-1 $315 forward single #
loop $-1 $-1 $316 $120 #
plane-surface $-1 5.3291605050762669 49.18154359835026 112.74977568661579 -1 0 0 0 0.62932039886446345 0.77714595512881146 forward_v I I I I #
coedge $-1 $317 $318 $319 $320 reversed $121 $-1 #
coedge $-1 $197 $123 $321 $322 reversed $77 $-1 #
coedge $-1 $123 $196 $317 $323 reversed $77 $-1 #
coedge $-1 $319 $324 $123 $199 forward $314 $-1 #
edge $-1 $325 -0.23387202789927031 $326 6.4015372271403024 $198 $327 forward 7 unknown #
loop $-1 $-1 $205 $124 #
plane-surface $-1 -1.4312412354487591 -13.760099248374175 35.02332150563673 0 0.62932039886446345 0.77714595512881146 1 0 0 forward_v I I I I #
loop $-1 $-1 $328 $79 #
coedge $-1 $203 $203 $204 $329 reversed $125 $-1 #
coedge $-1 $204 $204 $203 $329 forward $127 $-1 #
coedge $-1 $205 $205 $128 $206 forward $200 $-1 #
edge $-1 $330 6.7773122006762327e-016 $330 6.2831853071796013 $205 $331 forward 7 unknown #
loop $-1 $-1 $212 $129 #
plane-surface $-1 -1.4312412354487591 -13.760099248374175 35.02332150563673 0 0.62932039886446345 0.77714595512881146 1 0 0 forward_v I I I I #
loop $-1 $-1 $332 $82 #
coedge $-1 $210 $210 $211 $333 reversed $130 $-1 #
coedge $-1 $211 $211 $210 $333 forward $132 $-1 #
coedge $-1 $212 $212 $133 $213 forward $207 $-1 #
edge $-1 $334 6.7773122006762327e-016 $334 6.2831853071796013 $212 $335 forward 7 unknown #
face $-1 $336 $337 $47 $-1 $338 forward single #
loop $-1 $-1 $339 $134 #
plane-surface $-1 0 0 9.1512605747128024 0 0 1 1 0 0 forward_v I I I I #
coedge $-1 $340 $341 $342 $343 reversed $135 $-1 #
coedge $-1 $344 $137 $345 $346 reversed $86 $-1 #
coedge $-1 $137 $344 $339 $347 reversed $86 $-1 #
coedge $-1 $348 $349 $137 $221 forward $337 $-1 #
edge $-1 $350 -49.649287654148793 $351 -41.111111252085742 $220 $352 forward 7 unknown #
loop $-1 $-1 $227 $138 #
plane-surface $-1 -1.4312412354487591 -13.760099248374175 35.02332150563673 0 0.62932039886446345 0.77714595512881146 1 0 0 forward_v I I I I #
loop $-1 $-1 $353 $88 #
coedge $-1 $225 $225 $226 $354 reversed $139 $-1 #
coedge $-1 $226 $226 $225 $354 forward $141 $-1 #
coedge $-1 $227 $227 $142 $228 forward $222 $-1 #
edge $-1 $355 6.7773122006762327e-016 $355 6.2831853071796013 $227 $356 forward 7 unknown #
loop $-1 $-1 $234 $143 #
plane-surface $-1 -1.4312412354487591 -13.760099248374175 35.02332150563673 0 0.62932039886446345 0.77714595512881146 1 0 0 forward_v I I I I #
loop $-1 $-1 $357 $91 #
coedge $-1 $232 $232 $233 $358 reversed $144 $-1 #
coedge $-1 $233 $233 $232 $358 forward $146 $-1 #
coedge $-1 $234 $234 $147 $235 forward $229 $-1 #
edge $-1 $359 6.7773122006762327e-016 $359 6.2831853071796013 $234 $360 forward 7 unknown #
face $-1 $361 $362 $50 $-1 $363 reversed single #
loop $-1 $-1 $364 $148 #
plane-surface $-1 -8.1916429759737852 -87.766286673798831 81.504466176770393 1 0 0 0 0.62932039886446345 -0.77714595512881146 forward_v I I I I #
coedge $-1 $365 $366 $367 $368 reversed $149 $-1 #
coedge $-1 $241 $151 $369 $370 reversed $95 $-1 #
coedge $-1 $151 $240 $365 $371 reversed $95 $-1 #
coedge $-1 $367 $372 $151 $243 forward $373 $-1 #
edge $-1 $374 19.058499509825015 $375 25.693908764864592 $242 $376 forward 7 unknown #
loop $-1 $-1 $249 $152 #
plane-surface $-1 -1.4312412354487591 -24.824643827074397 3.7780119957913314 0 -0.62932039886446345 0.77714595512881146 1 0 0 forward_v I I I I #
loop $-1 $-1 $377 $97 #
coedge $-1 $247 $247 $248 $378 reversed $153 $-1 #
coedge $-1 $248 $248 $247 $378 forward $155 $-1 #
coedge $-1 $249 $249 $156 $250 forward $244 $-1 #
edge $-1 $379 -6.7773122006762327e-016 $379 6.2831853071795996 $249 $380 forward 7 unknown #
loop $-1 $-1 $256 $157 #
plane-surface $-1 -1.4312412354487591 -24.824643827074397 3.7780119957913314 0 -0.62932039886446345 0.77714595512881146 1 0 0 forward_v I I I I #
loop $-1 $-1 $381 $100 #
coedge $-1 $254 $254 $255 $382 reversed $158 $-1 #
coedge $-1 $255 $255 $254 $382 forward $160 $-1 #
coedge $-1 $256 $256 $161 $257 forward $251 $-1 #
edge $-1 $383 -6.7773122006762327e-016 $383 6.2831853071795996 $256 $384 forward 7 unknown #
face $-1 $385 $386 $53 $-1 $387 forward single #
loop $-1 $-1 $388 $162 #
plane-surface $-1 0 -24.8246438270744 0 0 1 0 0 0 1 forward_v I I I I #
coedge $-1 $389 $390 $391 $392 reversed $163 $-1 #
coedge $-1 $263 $165 $393 $394 reversed $104 $-1 #
coedge $-1 $165 $262 $395 $396 reversed $104 $-1 #
coedge $-1 $397 $388 $165 $265 forward $259 $-1 #
edge $-1 $398 -36.974221092593865 $399 -31.600972513672396 $264 $400 forward 7 unknown #
loop $-1 $-1 $271 $166 #
plane-surface $-1 -1.4312412354487591 -24.824643827074397 3.7780119957913314 0 -0.62932039886446345 0.77714595512881146 1 0 0 forward_v I I I I #
loop $-1 $-1 $401 $106 #
coedge $-1 $269 $269 $270 $402 reversed $167 $-1 #
coedge $-1 $270 $270 $269 $402 forward $169 $-1 #
coedge $-1 $271 $271 $170 $272 forward $266 $-1 #
edge $-1 $403 -6.7773122006762327e-016 $403 6.2831853071795996 $271 $404 forward 7 unknown #
loop $-1 $-1 $278 $171 #
plane-surface $-1 -1.4312412354487591 -24.824643827074397 3.7780119957913314 0 -0.62932039886446345 0.77714595512881146 1 0 0 forward_v I I I I #
loop $-1 $-1 $405 $109 #
coedge $-1 $276 $276 $277 $406 reversed $172 $-1 #
coedge $-1 $277 $277 $276 $406 forward $174 $-1 #
coedge $-1 $278 $278 $175 $279 forward $273 $-1 #
edge $-1 $407 -6.7773122006762327e-016 $407 6.2831853071795996 $278 $408 forward 7 unknown #
face $-1 $409 $410 $42 $-1 $411 reversed single #
loop $-1 $-1 $412 $176 #
plane-surface $-1 -50.007629627368999 0 0 1 0 0 0 0 -1 forward_v I I I I #
coedge $-1 $413 $291 $412 $414 forward $177 $-1 #
coedge $-1 $415 $179 $413 $416 forward $113 $-1 #
coedge $-1 $179 $415 $417 $418 forward $113 $-1 #
coedge $-1 $294 $293 $179 $287 reversed $295 $-1 #
edge $-1 $419 -24.8246438270744 $420 24.8246438270744 $286 $421 forward 7 unknown #
coedge $-1 $181 $180 $422 $423 forward $71 $-1 #
coedge $-1 $424 $425 $180 $290 reversed $410 $-1 #
edge $-1 $297 -50.007629627368999 $426 50.007629627368999 $289 $427 forward 7 unknown #
coedge $-1 $283 $428 $181 $292 reversed $177 $-1 #
edge $-1 $429 -50.007629627368999 $296 50.007629627368999 $291 $430 forward 7 unknown #
coedge $-1 $286 $182 $428 $431 forward $295 $-1 #
coedge $-1 $182 $286 $424 $432 reversed $295 $-1 #
loop $-1 $-1 $293 $409 #
vertex $-1 $183 $433 #
vertex $-1 $183 $434 #
straight-curve $-1 50.007629627368999 0 9.1512605747128024 0 1 0 I I #
face $-1 $435 $436 $43 $-1 $437 reversed single #
loop $-1 $-1 $438 $184 #
plane-surface $-1 -55.336790132445266 0 -2.1320982200307497 0 0 1 1 0 0 forward_v I I I I #
coedge $-1 $439 $187 $440 $441 reversed $117 $-1 #
coedge $-1 $187 $439 $308 $442 reversed $117 $-1 #
edge $-1 $310 -0.86790177996924944 $443 2.1320982200307497 $187 $444 forward 7 unknown #
coedge $-1 $189 $188 $438 $445 forward $74 $-1 #
coedge $-1 $446 $447 $188 $307 forward $448 $-1 #
edge $-1 $449 -2.1320982200307497 $311 0.86790177996924944 $306 $450 forward 7 unknown #
coedge $-1 $451 $190 $303 $442 forward $185 $-1 #
coedge $-1 $190 $451 $446 $452 forward $185 $-1 #
vertex $-1 $304 $453 #
vertex $-1 $452 $454 #
straight-curve $-1 -50.007629627368999 0 0.86790177996924944 0 -1 0 I I #
face $-1 $-1 $455 $44 $-1 $456 reversed single #
loop $-1 $-1 $198 $192 #
plane-surface $-1 0 0 9.1512605747128024 0 0 1 1 0 0 forward_v I I I I #
coedge $-1 $457 $458 $459 $460 reversed $193 $-1 #
coedge $-1 $461 $195 $197 $323 forward $121 $-1 #
coedge $-1 $195 $461 $457 $462 forward $121 $-1 #
coedge $-1 $459 $198 $195 $320 forward $314 $-1 #
edge $-1 $326 -7.4760223582494056 $463 6.0447811228006465 $319 $464 forward 7 unknown #
coedge $-1 $465 $466 $196 $322 forward $455 $-1 #
edge $-1 $467 -52.596875847516564 $325 -47.223627268595095 $321 $468 forward 7 unknown #
edge $-1 $326 41.111111252085742 $467 49.649287654148793 $197 $469 forward 7 unknown #
coedge $-1 $198 $459 $465 $470 forward $314 $-1 #
vertex $-1 $322 $471 #
vertex $-1 $199 $472 #
straight-curve $-1 -8.1916429759737852 24.59077179917513 9.1512605747128006 0 -1 0 I I #
coedge $-1 $328 $328 $-1 $473 reversed $202 $-1 #
edge $-1 $474 0 $474 6.2831853071796004 $203 $475 forward 7 unknown #
vertex $-1 $206 $476 #
ellipse-curve $-1 -4.3285562671023428 21.506939199554608 6.4646362852520669 0 0.62932039886446345 0.77714595512881146 1.5 0 0 1 I I #
coedge $-1 $332 $332 $-1 $477 reversed $209 $-1 #
edge $-1 $478 0 $478 6.2831853071796004 $210 $479 forward 7 unknown #
vertex $-1 $213 $480 #
ellipse-curve $-1 1.4660737962048245 21.506939199554608 6.4646362852520669 0 0.62932039886446345 0.77714595512881146 1.5 0 0 1 I I #
face $-1 $-1 $481 $47 $-1 $482 reversed single #
loop $-1 $-1 $348 $214 #
plane-surface $-1 5.3291605050762669 49.18154359835026 112.74977568661579 -1 0 0 0 0.62932039886446345 0.77714595512881146 forward_v I I I I #
coedge $-1 $342 $483 $219 $347 forward $215 $-1 #
coedge $-1 $341 $217 $344 $484 reversed $135 $-1 #
coedge $-1 $217 $340 $485 $486 reversed $135 $-1 #
coedge $-1 $487 $339 $217 $343 forward $215 $-1 #
edge $-1 $488 -6.4015372271403024 $489 0.23387202789927031 $342 $490 forward 7 unknown #
coedge $-1 $219 $218 $340 $484 forward $86 $-1 #
coedge $-1 $491 $485 $218 $346 forward $481 $-1 #
edge $-1 $492 -19.565584603850699 $350 -6.0447811228006465 $345 $493 forward 7 unknown #
edge $-1 $351 6.0447811228006465 $488 19.565584603850699 $339 $494 forward 7 unknown #
coedge $-1 $349 $220 $483 $495 reversed $337 $-1 #
coedge $-1 $220 $348 $491 $496 reversed $337 $-1 #
vertex $-1 $346 $497 #
vertex $-1 $347 $498 #
straight-curve $-1 5.3291605050762669 -13.760099248374175 35.02332150563673 0 -0.77714595512881146 0.62932039886446345 I I #
coedge $-1 $353 $353 $-1 $499 reversed $224 $-1 #
edge $-1 $500 0 $500 6.2831853071796004 $225 $501 forward 7 unknown #
vertex $-1 $228 $502 #
ellipse-curve $-1 9.1922472139477094 21.506939199554608 6.4646362852520669 0 0.62932039886446345 0.77714595512881146 1.5 0 0 1 I I #
coedge $-1 $357 $357 $-1 $503 reversed $231 $-1 #
edge $-1 $504 0 $504 6.2831853071796004 $232 $505 forward 7 unknown #
vertex $-1 $235 $506 #
ellipse-curve $-1 14.986877277254877 21.506939199554608 6.4646362852520669 0 0.62932039886446345 0.77714595512881146 1.5 0 0 1 I I #
face $-1 $-1 $373 $50 $-1 $507 forward single #
loop $-1 $-1 $508 $236 #
plane-surface $-1 0 -24.8246438270744 0 0 1 0 0 0 1 forward_v I I I I #
coedge $-1 $509 $510 $511 $512 reversed $237 $-1 #
coedge $-1 $513 $239 $241 $371 forward $149 $-1 #
coedge $-1 $239 $513 $509 $514 forward $149 $-1 #
coedge $-1 $511 $242 $239 $368 forward $373 $-1 #
edge $-1 $375 -6.0447811228006465 $515 7.4760223582494056 $367 $516 forward 7 unknown #
coedge $-1 $517 $518 $240 $370 forward $362 $-1 #
edge $-1 $519 -36.974221092593865 $374 -31.600972513672396 $369 $520 forward 7 unknown #
edge $-1 $375 -8.5381764020630548 $519 4.4378234572560832e-015 $241 $521 forward 7 unknown #
coedge $-1 $242 $511 $517 $522 forward $373 $-1 #
loop $-1 $-1 $511 $361 #
vertex $-1 $370 $523 #
vertex $-1 $243 $524 #
straight-curve $-1 5.3291605050762669 -43.883143336899415 9.1512605747128006 0 1 0 I I #
coedge $-1 $377 $377 $-1 $525 reversed $246 $-1 #
edge $-1 $526 0 $526 6.2831853071796004 $247 $527 forward 7 unknown #
vertex $-1 $250 $528 #
ellipse-curve $-1 -4.3285562671023428 -21.506939199554616 6.4646362852520634 0 -0.62932039886446345 0.77714595512881146 1.5 0 0 1 I I #
coedge $-1 $381 $381 $-1 $529 reversed $253 $-1 #
edge $-1 $530 0 $530 6.2831853071796004 $254 $531 forward 7 unknown #
vertex $-1 $257 $532 #
ellipse-curve $-1 1.4660737962048245 -21.506939199554616 6.4646362852520634 0 -0.62932039886446345 0.77714595512881146 1.5 0 0 1 I I #
face $-1 $-1 $533 $53 $-1 $534 forward single #
loop $-1 $-1 $535 $258 #
plane-surface $-1 5.3291605050762669 -87.766286673798831 81.504466176770393 -1 0 0 0 -0.62932039886446345 0.77714595512881146 forward_v I I I I #
coedge $-1 $264 $536 $390 $537 forward $259 $-1 #
coedge $-1 $393 $261 $538 $539 reversed $163 $-1 #
coedge $-1 $261 $393 $388 $537 reversed $163 $-1 #
coedge $-1 $540 $535 $261 $392 forward $386 $-1 #
edge $-1 $541 -8.5381764020630548 $542 4.4378234572560832e-015 $391 $543 forward 7 unknown #
coedge $-1 $390 $389 $262 $394 forward $163 $-1 #
edge $-1 $544 -8.5381764020630548 $398 4.4378234572560832e-015 $262 $545 forward 7 unknown #
coedge $-1 $538 $546 $263 $396 forward $533 $-1 #
edge $-1 $399 19.058499509825015 $544 25.693908764864592 $395 $547 forward 7 unknown #
coedge $-1 $536 $264 $546 $548 reversed $259 $-1 #
vertex $-1 $265 $549 #
vertex $-1 $265 $550 #
straight-curve $-1 18.849963986126319 -24.8246438270744 40.752233088385196 0 0 1 I I #
coedge $-1 $401 $401 $-1 $551 reversed $268 $-1 #
edge $-1 $552 0 $552 6.2831853071796004 $269 $553 forward 7 unknown #
vertex $-1 $272 $554 #
ellipse-curve $-1 9.1922472139477094 -21.506939199554616 6.4646362852520634 0 -0.62932039886446345 0.77714595512881146 1.5 0 0 1 I I #
coedge $-1 $405 $405 $-1 $555 reversed $275 $-1 #
edge $-1 $556 0 $556 6.2831853071796004 $276 $557 forward 7 unknown #
vertex $-1 $279 $558 #
ellipse-curve $-1 14.986877277254877 -21.506939199554616 6.4646362852520634 0 -0.62932039886446345 0.77714595512881146 1.5 0 0 1 I I #
face $-1 $-1 $295 $42 $-1 $559 reversed single #
loop $-1 $-1 $424 $280 #
plane-surface $-1 0 24.8246438270744 0 0 -1 0 0 0 -1 forward_v I I I I #
coedge $-1 $422 $560 $283 $414 reversed $281 $-1 #
coedge $-1 $428 $283 $284 $416 reversed $177 $-1 #
edge $-1 $429 -9.1512605747128024 $561 9.1512605747128024 $412 $562 forward 7 unknown #
coedge $-1 $285 $284 $560 $563 forward $113 $-1 #
edge $-1 $420 -50.007629627368999 $561 50.007629627368999 $413 $564 forward 7 unknown #
coedge $-1 $425 $424 $285 $418 reversed $410 $-1 #
edge $-1 $565 -50.007629627368999 $419 50.007629627368999 $417 $566 forward 7 unknown #
vertex $-1 $287 $567 #
vertex $-1 $431 $568 #
straight-curve $-1 50.007629627368999 0 -9.1512605747128024 0 -1 0 I I #
coedge $-1 $569 $412 $288 $423 reversed $281 $-1 #
edge $-1 $426 -24.8246438270744 $429 24.8246438270744 $422 $570 forward 7 unknown #
coedge $-1 $417 $289 $294 $432 forward $410 $-1 #
coedge $-1 $289 $417 $569 $571 reversed $410 $-1 #
vertex $-1 $290 $572 #
straight-curve $-1 0 24.8246438270744 9.1512605747128024 -1 0 0 I I #
coedge $-1 $291 $413 $293 $431 reversed $177 $-1 #
vertex $-1 $423 $573 #
straight-curve $-1 0 -24.8246438270744 9.1512605747128024 1 0 0 I I #
edge $-1 $296 -9.1512605747128024 $420 9.1512605747128024 $293 $574 forward 7 unknown #
edge $-1 $297 -9.1512605747128024 $419 9.1512605747128024 $294 $575 forward 7 unknown #
point $-1 50.007629627368999 -24.8246438270744 9.1512605747128024 #
point $-1 50.007629627368999 24.8246438270744 9.1512605747128024 #
face $-1 $-1 $448 $43 $-1 $576 reversed single #
loop $-1 $-1 $577 $299 #
plane-surface $-1 -60.665950637521533 0 -0.63209822003075011 1 0 0 0 0 -1 forward_v I I I I #
coedge $-1 $578 $440 $305 $445 reversed $300 $-1 #
coedge $-1 $303 $302 $577 $579 reversed $117 $-1 #
coedge $-1 $438 $580 $302 $441 forward $300 $-1 #
edge $-1 $581 -5.3291605050762669 $443 5.3291605050762669 $302 $582 forward 7 unknown #
edge $-1 $310 -5.3291605050762669 $583 5.3291605050762669 $303 $584 forward 7 unknown #
vertex $-1 $304 $585 #
straight-curve $-1 -50.007629627368999 24.8246438270744 0 0 0 -1 I I #
edge $-1 $449 -24.8246438270744 $443 24.8246438270744 $438 $586 forward 7 unknown #
coedge $-1 $587 $306 $309 $452 reversed $448 $-1 #
coedge $-1 $306 $587 $578 $588 reversed $448 $-1 #
loop $-1 $-1 $306 $435 #
vertex $-1 $307 $589 #
straight-curve $-1 -50.007629627368999 -24.8246438270744 0 0 0 1 I I #
coedge $-1 $309 $308 $590 $591 forward $185 $-1 #
edge $-1 $592 -5.3291605050762669 $311 5.3291605050762669 $446 $593 forward 7 unknown #
point $-1 -50.007629627368999 24.8246438270744 0.86790177996924944 #
point $-1 -50.007629627368999 -24.8246438270744 0.86790177996924944 #
loop $-1 $-1 $321 $313 #
plane-surface $-1 0 24.8246438270744 0 0 -1 0 0 0 -1 forward_v I I I I #
coedge $-1 $458 $316 $318 $462 reversed $193 $-1 #
coedge $-1 $316 $457 $594 $595 reversed $193 $-1 #
coedge $-1 $324 $319 $316 $460 forward $314 $-1 #
edge $-1 $463 -6.4015372271403024 $596 0.23387202789927031 $459 $597 forward 7 unknown #
coedge $-1 $318 $317 $466 $598 reversed $121 $-1 #
edge $-1 $599 -49.649287654148793 $463 -41.111111252085742 $457 $600 forward 7 unknown #
vertex $-1 $320 $601 #
straight-curve $-1 -0.71562061772437957 18.189234572034827 9.1512605747128006 1 0 0 I I #
coedge $-1 $594 $321 $324 $470 reversed $455 $-1 #
coedge $-1 $321 $594 $461 $598 forward $455 $-1 #
vertex $-1 $322 $602 #
straight-curve $-1 -8.1916429759737852 24.8246438270744 56.374887843307896 0 0 1 I I #
straight-curve $-1 -8.1916429759737852 -13.760099248374175 35.02332150563673 0 0.77714595512881146 -0.62932039886446345 I I #
edge $-1 $596 -5.3291605050762669 $325 8.1916429759737852 $465 $603 forward 7 unknown #
point $-1 -8.1916429759737852 24.8246438270744 9.1512605747128024 #
point $-1 -8.1916429759737852 18.189234572034827 9.1512605747128006 #
edge $-1 $604 1 $604 0 $328 $-1 forward 7 unknown #
vertex $-1 $329 $605 #
ellipse-curve $-1 -4.3285562671023428 18.52389482468876 2.7808833446517216 0 0.62932039886446345 0.77714595512881146 1.5 0 0 1 I I #
point $-1 -2.8285562671023428 21.506939199554619 6.4646362852520785 #
edge $-1 $606 1 $606 0 $332 $-1 forward 7 unknown #
vertex $-1 $333 $607 #
ellipse-curve $-1 1.4660737962048245 18.52389482468876 2.7808833446517216 0 0.62932039886446345 0.77714595512881146 1.5 0 0 1 I I #
point $-1 2.9660737962048245 21.506939199554619 6.4646362852520785 #
loop $-1 $-1 $345 $336 #
plane-surface $-1 0 24.8246438270744 0 0 -1 0 0 0 -1 forward_v I I I I #
coedge $-1 $339 $487 $348 $495 forward $215 $-1 #
edge $-1 $492 -49.649287654148793 $488 -41.111111252085742 $340 $608 forward 7 unknown #
coedge $-1 $345 $609 $341 $486 forward $481 $-1 #
edge $-1 $489 47.223627268595095 $492 52.596875847516564 $485 $610 forward 7 unknown #
coedge $-1 $483 $342 $609 $611 forward $215 $-1 #
vertex $-1 $343 $612 #
vertex $-1 $611 $613 #
straight-curve $-1 18.849963986126319 24.59077179917513 9.1512605747128006 0 1 0 I I #
coedge $-1 $609 $345 $349 $496 forward $481 $-1 #
vertex $-1 $486 $614 #
straight-curve $-1 -0.71562061772437957 24.8246438270744 3.7780119957913296 -1 0 0 I I #
straight-curve $-1 -0.71562061772437957 18.189234572034827 9.1512605747128006 1 0 0 I I #
edge $-1 $615 -0.23387202789927031 $351 6.4015372271403024 $483 $616 forward 7 unknown #
edge $-1 $350 -52.596875847516564 $615 -47.223627268595095 $491 $617 forward 7 unknown #
point $-1 5.3291605050762669 24.824643827074397 3.7780119957913314 #
point $-1 5.3291605050762669 18.189234572034827 9.1512605747128006 #
edge $-1 $618 1 $618 0 $353 $-1 forward 7 unknown #
vertex $-1 $354 $619 #
ellipse-curve $-1 9.1922472139477094 18.52389482468876 2.7808833446517216 0 0.62932039886446345 0.77714595512881146 1.5 0 0 1 I I #
point $-1 10.692247213947709 21.506939199554619 6.4646362852520785 #
edge $-1 $620 1 $620 0 $357 $-1 forward 7 unknown #
vertex $-1 $358 $621 #
ellipse-curve $-1 14.986877277254877 18.52389482468876 2.7808833446517216 0 0.62932039886446345 0.77714595512881146 1.5 0 0 1 I I #
point $-1 16.486877277254877 21.506939199554619 6.4646362852520785 #
plane-surface $-1 0 0 9.1512605747128024 0 0 1 1 0 0 forward_v I I I I #
coedge $-1 $518 $517 $510 $622 forward $362 $-1 #
coedge $-1 $510 $364 $366 $514 reversed $237 $-1 #
coedge $-1 $364 $509 $508 $622 reversed $237 $-1 #
coedge $-1 $372 $367 $364 $512 forward $373 $-1 #
edge $-1 $515 -25.693908764864592 $623 -19.058499509825015 $511 $624 forward 7 unknown #
coedge $-1 $366 $365 $518 $625 reversed $149 $-1 #
edge $-1 $626 -4.4378234572560832e-015 $515 8.5381764020630548 $509 $627 forward 7 unknown #
vertex $-1 $368 $628 #
straight-curve $-1 -0.71562061772437957 -18.189234572034824 9.1512605747128024 -1 0 0 I I #
coedge $-1 $508 $369 $372 $522 reversed $362 $-1 #
coedge $-1 $369 $508 $513 $625 forward $362 $-1 #
vertex $-1 $370 $629 #
straight-curve $-1 5.3291605050762669 -24.8246438270744 40.752233088385196 0 0 1 I I #
straight-curve $-1 5.3291605050762669 -24.824643827074397 3.7780119957913314 0 -0.77714595512881146 -0.62932039886446345 I I #
edge $-1 $623 -8.1916429759737852 $374 5.3291605050762669 $517 $630 forward 7 unknown #
point $-1 5.3291605050762669 -24.8246438270744 9.1512605747128024 #
point $-1 5.3291605050762669 -18.189234572034824 9.1512605747128024 #
edge $-1 $631 1 $631 0 $377 $-1 forward 7 unknown #
vertex $-1 $378 $632 #
ellipse-curve $-1 -4.3285562671023428 -18.523894824688767 2.780883344651718 0 -0.62932039886446345 0.77714595512881146 1.5 0 0 1 I I #
point $-1 -2.8285562671023428 -21.506939199554626 6.4646362852520749 #
edge $-1 $633 1 $633 0 $381 $-1 forward 7 unknown #
vertex $-1 $382 $634 #
ellipse-curve $-1 1.4660737962048245 -18.523894824688767 2.780883344651718 0 -0.62932039886446345 0.77714595512881146 1.5 0 0 1 I I #
point $-1 2.9660737962048245 -21.506939199554626 6.4646362852520749 #
loop $-1 $-1 $538 $385 #
plane-surface $-1 0 0 9.1512605747128024 0 0 1 1 0 0 forward_v I I I I #
coedge $-1 $391 $540 $635 $636 reversed $386 $-1 #
coedge $-1 $388 $397 $540 $637 forward $259 $-1 #
edge $-1 $542 6.0447811228006465 $398 19.565584603850699 $388 $638 forward 7 unknown #
coedge $-1 $635 $395 $389 $539 forward $533 $-1 #
edge $-1 $544 -19.565584603850699 $541 -6.0447811228006465 $538 $639 forward 7 unknown #
coedge $-1 $535 $391 $536 $637 reversed $386 $-1 #
vertex $-1 $539 $640 #
vertex $-1 $537 $641 #
straight-curve $-1 5.3291605050762669 -24.824643827074397 3.7780119957913314 0 -0.77714595512881146 -0.62932039886446345 I I #
vertex $-1 $396 $642 #
straight-curve $-1 18.849963986126319 -24.824643827074397 3.7780119957913314 0 -0.77714595512881146 -0.62932039886446345 I I #
coedge $-1 $395 $635 $397 $548 forward $533 $-1 #
straight-curve $-1 18.849963986126319 -43.883143336899415 9.1512605747128006 0 1 0 I I #
edge $-1 $643 5.3291605050762669 $399 18.849963986126319 $397 $644 forward 7 unknown #
point $-1 18.849963986126319 -24.8246438270744 3.7780119957913287 #
point $-1 18.849963986126319 -24.8246438270744 9.1512605747128024 #
edge $-1 $645 1 $645 0 $401 $-1 forward 7 unknown #
vertex $-1 $402 $646 #
ellipse-curve $-1 9.1922472139477094 -18.523894824688767 2.780883344651718 0 -0.62932039886446345 0.77714595512881146 1.5 0 0 1 I I #
point $-1 10.692247213947709 -21.506939199554626 6.4646362852520749 #
edge $-1 $647 1 $647 0 $405 $-1 forward 7 unknown #
vertex $-1 $406 $648 #
ellipse-curve $-1 14.986877277254877 -18.523894824688767 2.780883344651718 0 -0.62932039886446345 0.77714595512881146 1.5 0 0 1 I I #
point $-1 16.486877277254877 -21.506939199554626 6.4646362852520749 #
plane-surface $-1 50.007629627368999 0 0 -1 0 0 0 0 1 forward_v I I I I #
coedge $-1 $412 $569 $415 $563 reversed $281 $-1 #
vertex $-1 $563 $649 #
straight-curve $-1 -50.007629627368999 -24.8246438270744 0 0 0 -1 I I #
edge $-1 $561 -24.8246438270744 $565 24.8246438270744 $560 $650 forward 7 unknown #
straight-curve $-1 0 -24.8246438270744 -9.1512605747128024 -1 0 0 I I #
vertex $-1 $418 $651 #
straight-curve $-1 0 24.8246438270744 -9.1512605747128024 1 0 0 I I #
point $-1 50.007629627368999 24.8246438270744 -9.1512605747128024 #
point $-1 50.007629627368999 -24.8246438270744 -9.1512605747128024 #
coedge $-1 $560 $422 $425 $571 forward $281 $-1 #
straight-curve $-1 -50.007629627368999 0 9.1512605747128024 0 -1 0 I I #
edge $-1 $426 -9.1512605747128024 $565 9.1512605747128024 $425 $652 forward 7 unknown #
point $-1 -50.007629627368999 24.8246438270744 9.1512605747128024 #
point $-1 -50.007629627368999 -24.8246438270744 9.1512605747128024 #
straight-curve $-1 50.007629627368999 -24.8246438270744 0 0 0 -1 I I #
straight-curve $-1 50.007629627368999 24.8246438270744 0 0 0 -1 I I #
plane-surface $-1 0 -24.8246438270744 0 0 1 0 0 0 1 forward_v I I I I #
coedge $-1 $653 $590 $439 $579 forward $436 $-1 #
coedge $-1 $580 $438 $447 $588 forward $300 $-1 #
edge $-1 $583 -1.4999999999999996 $581 1.4999999999999996 $439 $654 forward 7 unknown #
coedge $-1 $440 $578 $653 $655 forward $300 $-1 #
vertex $-1 $441 $656 #
straight-curve $-1 -55.336790132445266 24.8246438270744 -2.1320982200307497 1 0 0 I I #
vertex $-1 $442 $657 #
straight-curve $-1 -55.336790132445266 24.8246438270744 0.86790177996924944 -1 0 0 I I #
point $-1 -50.007629627368999 24.8246438270744 -2.1320982200307497 #
straight-curve $-1 -50.007629627368999 0 -2.1320982200307497 0 1 0 I I #
coedge $-1 $447 $446 $658 $659 forward $448 $-1 #
edge $-1 $449 -5.3291605050762669 $660 5.3291605050762669 $447 $661 forward 7 unknown #
point $-1 -50.007629627368999 -24.8246438270744 -2.1320982200307497 #
coedge $-1 $577 $658 $451 $591 reversed $436 $-1 #
edge $-1 $583 -24.8246438270744 $592 24.8246438270744 $590 $662 forward 7 unknown #
vertex $-1 $591 $663 #
straight-curve $-1 -55.336790132445266 -24.8246438270744 0.86790177996924944 1 0 0 I I #
coedge $-1 $466 $465 $458 $595 forward $455 $-1 #
edge $-1 $596 47.223627268595095 $599 52.596875847516564 $594 $664 forward 7 unknown #
vertex $-1 $470 $665 #
straight-curve $-1 5.3291605050762669 24.59077179917513 9.1512605747128006 0 1 0 I I #
edge $-1 $599 -6.0447811228006465 $467 7.4760223582494056 $466 $666 forward 7 unknown #
vertex $-1 $598 $667 #
straight-curve $-1 5.3291605050762669 -13.760099248374175 35.02332150563673 0 -0.77714595512881146 0.62932039886446345 I I #
point $-1 5.3291605050762669 18.189234572034827 9.1512605747128006 #
point $-1 -8.1916429759737852 24.824643827074397 3.7780119957913314 #
straight-curve $-1 0 24.8246438270744 9.1512605747128024 -1 0 0 I I #
vertex $-1 $473 $668 #
point $-1 -2.8285562671023428 18.52389482468876 2.7808833446517216 #
vertex $-1 $477 $669 #
point $-1 2.9660737962048245 18.52389482468876 2.7808833446517216 #
straight-curve $-1 18.849963986126319 -13.760099248374175 35.02332150563673 0 -0.77714595512881146 0.62932039886446345 I I #
coedge $-1 $485 $491 $487 $611 reversed $481 $-1 #
straight-curve $-1 18.849963986126319 24.8246438270744 56.374887843307896 0 0 -1 I I #
edge $-1 $489 -18.849963986126319 $615 -5.3291605050762669 $609 $670 forward 7 unknown #
point $-1 18.849963986126319 18.189234572034827 9.1512605747128006 #
point $-1 18.849963986126319 24.8246438270744 9.1512605747128024 #
point $-1 18.849963986126319 24.824643827074397 3.7780119957913314 #
vertex $-1 $496 $671 #
straight-curve $-1 5.3291605050762669 24.59077179917513 9.1512605747128006 0 -1 0 I I #
straight-curve $-1 5.3291605050762669 24.8246438270744 56.374887843307896 0 0 1 I I #
vertex $-1 $499 $672 #
point $-1 10.692247213947709 18.52389482468876 2.7808833446517216 #
vertex $-1 $503 $673 #
point $-1 16.486877277254877 18.52389482468876 2.7808833446517216 #
edge $-1 $623 31.600972513672396 $626 36.974221092593865 $508 $674 forward 7 unknown #
vertex $-1 $522 $675 #
straight-curve $-1 -8.1916429759737852 -43.883143336899415 9.1512605747128006 0 -1 0 I I #
edge $-1 $626 -7.4760223582494056 $519 6.0447811228006465 $518 $676 forward 7 unknown #
vertex $-1 $625 $677 #
straight-curve $-1 -8.1916429759737852 -24.824643827074397 3.7780119957913314 0 0.77714595512881146 0.62932039886446345 I I #
point $-1 -8.1916429759737852 -18.189234572034824 9.1512605747128024 #
point $-1 5.3291605050762669 -24.8246438270744 3.7780119957913287 #
straight-curve $-1 0 -24.8246438270744 9.1512605747128024 1 0 0 I I #
vertex $-1 $525 $678 #
point $-1 -2.8285562671023428 -18.523894824688767 2.780883344651718 #
vertex $-1 $529 $679 #
point $-1 2.9660737962048245 -18.523894824688767 2.780883344651718 #
coedge $-1 $546 $538 $535 $636 forward $533 $-1 #
edge $-1 $541 -25.693908764864592 $643 -19.058499509825015 $635 $680 forward 7 unknown #
edge $-1 $643 31.600972513672396 $542 36.974221092593865 $536 $681 forward 7 unknown #
straight-curve $-1 -0.71562061772437957 -24.8246438270744 3.7780119957913261 1 0 0 I I #
straight-curve $-1 -0.71562061772437957 -18.189234572034824 9.1512605747128024 -1 0 0 I I #
point $-1 5.3291605050762669 -18.189234572034824 9.1512605747128024 #
point $-1 5.3291605050762669 -24.8246438270744 3.7780119957913287 #
point $-1 18.849963986126319 -18.189234572034824 9.1512605747128024 #
vertex $-1 $548 $682 #
straight-curve $-1 0 -24.8246438270744 9.1512605747128024 1 0 0 I I #
vertex $-1 $551 $683 #
point $-1 10.692247213947709 -18.523894824688767 2.780883344651718 #
vertex $-1 $555 $684 #
point $-1 16.486877277254877 -18.523894824688767 2.780883344651718 #
point $-1 -50.007629627368999 -24.8246438270744 -9.1512605747128024 #
straight-curve $-1 -50.007629627368999 0 -9.1512605747128024 0 1 0 I I #
point $-1 -50.007629627368999 24.8246438270744 -9.1512605747128024 #
straight-curve $-1 -50.007629627368999 24.8246438270744 0 0 0 -1 I I #
coedge $-1 $658 $577 $580 $655 reversed $436 $-1 #
straight-curve $-1 -60.665950637521533 24.8246438270744 -0.63209822003075011 0 0 -1 I I #
edge $-1 $660 -24.8246438270744 $581 24.8246438270744 $653 $685 forward 7 unknown #
point $-1 -60.665950637521533 24.8246438270744 -2.1320982200307497 #
point $-1 -60.665950637521533 24.8246438270744 0.86790177996924944 #
coedge $-1 $590 $653 $587 $659 reversed $436 $-1 #
edge $-1 $592 -1.4999999999999996 $660 1.4999999999999996 $658 $686 forward 7 unknown #
vertex $-1 $655 $687 #
straight-curve $-1 -55.336790132445266 -24.8246438270744 -2.1320982200307497 -1 0 0 I I #
straight-curve $-1 -60.665950637521533 0 0.86790177996924944 0 -1 0 I I #
point $-1 -60.665950637521533 -24.8246438270744 0.86790177996924944 #
straight-curve $-1 5.3291605050762669 24.8246438270744 56.374887843307896 0 0 -1 I I #
point $-1 5.3291605050762669 24.8246438270744 9.1512605747128024 #
straight-curve $-1 -0.71562061772437957 24.8246438270744 3.7780119957913296 -1 0 0 I I #
point $-1 5.3291605050762669 24.824643827074397 3.7780119957913314 #
point $-1 -4.3285562671023428 17.579914226392063 1.6151644119585047 #
point $-1 1.4660737962048245 17.579914226392063 1.6151644119585047 #
straight-curve $-1 0 24.8246438270744 9.1512605747128024 -1 0 0 I I #
point $-1 5.3291605050762669 24.8246438270744 9.1512605747128024 #
point $-1 9.1922472139477094 17.579914226392063 1.6151644119585047 #
point $-1 14.986877277254877 17.579914226392063 1.6151644119585047 #
straight-curve $-1 -8.1916429759737852 -24.8246438270744 40.752233088385196 0 0 -1 I I #
point $-1 -8.1916429759737852 -24.8246438270744 9.1512605747128024 #
straight-curve $-1 -0.71562061772437957 -24.8246438270744 3.7780119957913261 1 0 0 I I #
point $-1 -8.1916429759737852 -24.8246438270744 3.7780119957913287 #
point $-1 -4.3285562671023428 -17.57991422639207 1.6151644119585011 #
point $-1 1.4660737962048245 -17.57991422639207 1.6151644119585011 #
straight-curve $-1 5.3291605050762669 -43.883143336899415 9.1512605747128006 0 -1 0 I I #
straight-curve $-1 5.3291605050762669 -24.8246438270744 40.752233088385196 0 0 -1 I I #
point $-1 5.3291605050762669 -24.8246438270744 9.1512605747128024 #
point $-1 9.1922472139477094 -17.57991422639207 1.6151644119585011 #
point $-1 14.986877277254877 -17.57991422639207 1.6151644119585011 #
straight-curve $-1 -60.665950637521533 0 -2.1320982200307497 0 1 0 I I #
straight-curve $-1 -60.665950637521533 -24.8246438270744 -0.63209822003075011 0 0 -1 I I #
point $-1 -60.665950637521533 -24.8246438270744 -2.1320982200307497 #
End-of-ACIS-data 