500 0 13 0           
7 Unknown 11 ACIS 5.0 NT 24 Thu Mar 25 17:52:25 1999 
-1 9.9999999999999995e-007 1e-010 
body $-1 $13 $-1 $14 #
body $-1 $15 $-1 $16 #
body $-1 $17 $-1 $18 #
body $-1 $19 $-1 $20 #
body $-1 $21 $-1 $22 #
body $-1 $23 $-1 $24 #
body $-1 $25 $-1 $26 #
body $-1 $27 $-1 $28 #
body $-1 $29 $-1 $30 #
body $-1 $31 $-1 $32 #
body $-1 $33 $-1 $34 #
body $-1 $35 $-1 $36 #
body $-1 $37 $-1 $38 #
lump $-1 $-1 $39 $0 #
transform $-1 1 0 0 0 1 0 0 0 1 50.315256202887049 30.116983030441119 6.0832316717116166 1 rotate no_reflect no_shear #
lump $-1 $-1 $40 $1 #
transform $-1 1 0 0 0 1 0 0 0 1 50.315256202887049 30.116983030441119 6.0832316717116166 1 rotate no_reflect no_shear #
lump $-1 $-1 $41 $2 #
transform $-1 1 0 0 0 1 0 0 0 1 50.315256202887049 30.116983030441119 6.0832316717116166 1 rotate no_reflect no_shear #
lump $-1 $-1 $42 $3 #
transform $-1 1 0 0 0 1 0 0 0 1 50.315256202887049 30.116983030441119 6.0832316717116166 1 rotate no_reflect no_shear #
lump $-1 $-1 $43 $4 #
transform $-1 1 0 0 0 1 0 0 0 1 50.315256202887049 30.116983030441119 6.0832316717116166 1 rotate no_reflect no_shear #
lump $-1 $-1 $44 $5 #
transform $-1 1 0 0 0 1 0 0 0 1 50.315256202887049 30.116983030441119 6.0832316717116166 1 rotate no_reflect no_shear #
lump $-1 $-1 $45 $6 #
transform $-1 1 0 0 0 1 0 0 0 1 50.315256202887049 30.116983030441119 6.0832316717116166 1 rotate no_reflect no_shear #
lump $-1 $-1 $46 $7 #
transform $-1 1 0 0 0 1 0 0 0 1 50.315256202887049 30.116983030441119 6.0832316717116166 1 rotate no_reflect no_shear #
lump $-1 $-1 $47 $8 #
transform $-1 1 0 0 0 1 0 0 0 1 50.315256202887049 30.116983030441119 6.0832316717116166 1 rotate no_reflect no_shear #
lump $-1 $-1 $48 $9 #
transform $-1 1 0 0 0 1 0 0 0 1 50.315256202887049 30.116983030441119 6.0832316717116166 1 rotate no_reflect no_shear #
lump $-1 $-1 $49 $10 #
transform $-1 1 0 0 0 1 0 0 0 1 50.315256202887049 30.116983030441119 6.0832316717116166 1 rotate no_reflect no_shear #
lump $-1 $-1 $50 $11 #
transform $-1 1 0 0 0 1 0 0 0 1 50.315256202887049 30.116983030441119 6.0832316717116166 1 rotate no_reflect no_shear #
lump $-1 $-1 $51 $12 #
transform $-1 1 0 0 0 1 0 0 0 1 50.315256202887049 30.116983030441119 6.0832316717116166 1 rotate no_reflect no_shear #
shell $-1 $-1 $-1 $52 $-1 $13 #
shell $-1 $-1 $-1 $53 $-1 $15 #
shell $-1 $-1 $-1 $54 $-1 $17 #
shell $-1 $-1 $-1 $55 $-1 $19 #
shell $-1 $-1 $-1 $56 $-1 $21 #
shell $-1 $-1 $-1 $57 $-1 $23 #
shell $-1 $-1 $-1 $58 $-1 $25 #
shell $-1 $-1 $-1 $59 $-1 $27 #
shell $-1 $-1 $-1 $60 $-1 $29 #
shell $-1 $-1 $-1 $61 $-1 $31 #
shell $-1 $-1 $-1 $62 $-1 $33 #
shell $-1 $-1 $-1 $63 $-1 $35 #
shell $-1 $-1 $-1 $64 $-1 $37 #
face $-1 $65 $66 $39 $-1 $67 forward single #
face $-1 $68 $69 $40 $-1 $70 forward single #
face $-1 $71 $72 $41 $-1 $73 forward single #
face $-1 $74 $75 $42 $-1 $76 reversed single #
face $-1 $77 $78 $43 $-1 $79 forward single #
face $-1 $80 $81 $44 $-1 $82 forward single #
face $-1 $83 $84 $45 $-1 $85 reversed single #
face $-1 $86 $87 $46 $-1 $88 forward single #
face $-1 $89 $90 $47 $-1 $91 forward single #
face $-1 $92 $93 $48 $-1 $94 reversed single #
face $-1 $95 $96 $49 $-1 $97 forward single #
face $-1 $98 $99 $50 $-1 $100 forward single #
face $-1 $101 $102 $51 $-1 $103 forward single #
face $-1 $104 $105 $39 $-1 $106 reversed single #
loop $-1 $-1 $107 $52 #
plane-surface $-1 0 0 6.0832316717116166 0 0 1 1 0 0 forward_v I I I I #
face $-1 $108 $109 $40 $-1 $110 reversed single #
loop $-1 $-1 $111 $53 #
plane-surface $-1 0 -26.884096370450838 -3.0832316717116166 0 0 1 1 0 0 forward_v I I I I #
face $-1 $112 $113 $41 $-1 $114 reversed single #
loop $-1 $-1 $115 $54 #
plane-surface $-1 0 26.884096370450834 -3.0832316717116166 0 0 1 1 0 0 forward_v I I I I #
face $-1 $116 $117 $42 $-1 $118 reversed single #
loop $-1 $-1 $119 $55 #
plane-surface $-1 52.798962826214286 -2.4953894367737064 143.09032647543555 0 -1 0 -0.71933980857756763 0 -0.69465836192734942 forward_v I I I I #
face $-1 $120 $121 $43 $-1 $122 forward single #
loop $-1 $123 $124 $56 #
cone-surface $-1 47.148013548865073 -8.5850248488944807 2.84646179882317 -0.71933980857756763 0 -0.69465836192734942 0.69465836192734942 0 -0.71933980857756763 1 I I 0 1 1 forward I I I I #
face $-1 $125 $126 $44 $-1 $127 forward single #
loop $-1 $128 $129 $57 #
cone-surface $-1 47.148013548865073 -4.9312436016220147 2.84646179882317 -0.71933980857756763 0 -0.69465836192734942 0.69465836192734942 0 -0.71933980857756763 1 I I 0 1 1 forward I I I I #
face $-1 $130 $131 $45 $-1 $132 reversed single #
loop $-1 $-1 $133 $58 #
plane-surface $-1 52.798962826214286 11.020879013742796 143.09032647543555 0 -1 0 -0.71933980857756763 0 -0.69465836192734942 forward_v I I I I #
face $-1 $134 $135 $46 $-1 $136 forward single #
loop $-1 $137 $138 $59 #
cone-surface $-1 47.148013548865073 4.9312436016220218 2.84646179882317 -0.71933980857756763 0 -0.69465836192734942 0.69465836192734942 0 -0.71933980857756763 1 I I 0 1 1 forward I I I I #
face $-1 $139 $140 $47 $-1 $141 forward single #
loop $-1 $142 $143 $60 #
cone-surface $-1 47.148013548865073 8.5850248488944914 2.84646179882317 -0.71933980857756763 0 -0.69465836192734942 0.69465836192734942 0 -0.71933980857756763 1 I I 0 1 1 forward I I I I #
face $-1 $144 $145 $48 $-1 $146 reversed single #
loop $-1 $-1 $147 $61 #
plane-surface $-1 -117.65021279699448 13.898678929367982 77.68655285919732 0 1 0 -0.66913061440640931 0 0.74314481823134659 forward_v I I I I #
face $-1 $148 $149 $49 $-1 $150 forward single #
loop $-1 $151 $152 $62 #
cone-surface $-1 -48.027344098284502 15.849185085586498 3.9134171032162559 0.66913061440640931 0 -0.74314481823134659 0.3715724091156733 0 0.33456530720320465 1 I I 0 1 0.5 forward I I I I #
face $-1 $153 $154 $50 $-1 $155 forward single #
loop $-1 $156 $157 $63 #
cone-surface $-1 -48.027344098284502 18.774944319914269 3.9134171032162559 0.66913061440640931 0 -0.74314481823134659 0.3715724091156733 0 0.33456530720320465 1 I I 0 1 0.5 forward I I I I #
face $-1 $158 $159 $51 $-1 $160 forward single #
loop $-1 $161 $162 $64 #
cone-surface $-1 -48.027344098284502 21.70070355424204 3.9134171032162559 0.66913061440640931 0 -0.74314481823134659 0.3715724091156733 0 0.33456530720320465 1 I I 0 1 0.5 forward I I I I #
face $-1 $163 $164 $39 $-1 $165 reversed single #
loop $-1 $-1 $166 $65 #
plane-surface $-1 0 0 -6.0832316717116166 0 0 1 1 0 0 forward_v I I I I #
coedge $-1 $167 $168 $169 $170 forward $66 $-1 #
face $-1 $171 $172 $40 $-1 $173 reversed single #
loop $-1 $-1 $174 $68 #
plane-surface $-1 0 -23.651209710460556 -4.5832316717116166 0 -1 0 0 0 -1 forward_v I I I I #
coedge $-1 $175 $176 $177 $178 reversed $69 $-1 #
face $-1 $179 $180 $41 $-1 $181 reversed single #
loop $-1 $-1 $182 $71 #
plane-surface $-1 0 23.651209710460552 -4.5832316717116166 0 1 0 0 0 1 forward_v I I I I #
coedge $-1 $183 $184 $185 $186 reversed $72 $-1 #
face $-1 $187 $188 $42 $-1 $189 reversed single #
loop $-1 $-1 $190 $74 #
plane-surface $-1 -19.588570704817805 -6.7581342252582495 73.186499567730692 0.71933980857756763 0 0.69465836192734942 0.69465836192734942 0 -0.71933980857756763 forward_v I I I I #
coedge $-1 $191 $192 $193 $194 reversed $75 $-1 #
face $-1 $-1 $195 $43 $-1 $196 forward single #
loop $-1 $197 $198 $77 #
cone-surface $-1 46.172578933409802 -8.5850248488944807 1.9044955624775488 -0.71933980857756763 0 -0.69465836192734942 0.34732918096367471 0 -0.35966990428878381 1 I I -0.70710678118654746 0.70710678118654746 0.5 forward I I I I #
loop $-1 $-1 $199 $56 #
coedge $-1 $124 $124 $200 $201 reversed $78 $-1 #
face $-1 $-1 $202 $44 $-1 $203 forward single #
loop $-1 $204 $205 $80 #
cone-surface $-1 46.172578933409802 -4.9312436016220147 1.9044955624775488 -0.71933980857756763 0 -0.69465836192734942 0.34732918096367471 0 -0.35966990428878381 1 I I -0.70710678118654746 0.70710678118654746 0.5 forward I I I I #
loop $-1 $-1 $206 $57 #
coedge $-1 $129 $129 $207 $208 reversed $81 $-1 #
face $-1 $209 $210 $45 $-1 $211 reversed single #
loop $-1 $-1 $212 $83 #
plane-surface $-1 -19.588570704817805 6.758134225258253 73.186499567730692 0.71933980857756763 0 0.69465836192734942 0.69465836192734942 0 -0.71933980857756763 forward_v I I I I #
coedge $-1 $213 $214 $215 $216 reversed $84 $-1 #
face $-1 $-1 $217 $46 $-1 $218 forward single #
loop $-1 $219 $220 $86 #
cone-surface $-1 46.172578933409802 4.9312436016220218 1.9044955624775488 -0.71933980857756763 0 -0.69465836192734942 0.34732918096367471 0 -0.35966990428878381 1 I I -0.70710678118654746 0.70710678118654746 0.5 forward I I I I #
loop $-1 $-1 $221 $59 #
coedge $-1 $138 $138 $222 $223 reversed $87 $-1 #
face $-1 $-1 $224 $47 $-1 $225 forward single #
loop $-1 $226 $227 $89 #
cone-surface $-1 46.172578933409802 8.5850248488944914 1.9044955624775488 -0.71933980857756763 0 -0.69465836192734942 0.34732918096367471 0 -0.35966990428878381 1 I I -0.70710678118654746 0.70710678118654746 0.5 forward I I I I #
loop $-1 $-1 $228 $60 #
coedge $-1 $143 $143 $229 $230 reversed $90 $-1 #
face $-1 $231 $232 $48 $-1 $233 reversed single #
loop $-1 $-1 $234 $92 #
plane-surface $-1 -50.31525620288707 18.774944319914269 2.9035090088810591 -0.66913061440640931 0 0.74314481823134659 0.74314481823134659 0 0.66913061440640931 forward_v I I I I #
coedge $-1 $235 $236 $237 $238 reversed $93 $-1 #
face $-1 $-1 $239 $49 $-1 $240 forward single #
loop $-1 $241 $242 $95 #
cone-surface $-1 -47.337869193140385 15.849185085586498 3.1476776615783431 0.66913061440640931 0 -0.74314481823134659 0.18578620455783665 0 0.16728265360160233 1 I I -0.70710678118654746 0.70710678118654746 0.25 forward I I I I #
loop $-1 $-1 $243 $62 #
coedge $-1 $152 $152 $244 $245 reversed $96 $-1 #
face $-1 $-1 $246 $50 $-1 $247 forward single #
loop $-1 $248 $249 $98 #
cone-surface $-1 -47.337869193140385 18.774944319914269 3.1476776615783431 0.66913061440640931 0 -0.74314481823134659 0.18578620455783665 0 0.16728265360160233 1 I I -0.70710678118654746 0.70710678118654746 0.25 forward I I I I #
loop $-1 $-1 $250 $63 #
coedge $-1 $157 $157 $251 $252 reversed $99 $-1 #
face $-1 $-1 $253 $51 $-1 $254 forward single #
loop $-1 $255 $256 $101 #
cone-surface $-1 -47.337869193140385 21.70070355424204 3.1476776615783431 0.66913061440640931 0 -0.74314481823134659 0.18578620455783665 0 0.16728265360160233 1 I I -0.70710678118654746 0.70710678118654746 0.25 forward I I I I #
loop $-1 $-1 $257 $64 #
coedge $-1 $162 $162 $258 $259 reversed $102 $-1 #
face $-1 $260 $261 $39 $-1 $262 reversed single #
loop $-1 $-1 $263 $104 #
plane-surface $-1 0 -30.116983030441119 0 0 1 0 0 0 1 forward_v I I I I #
coedge $-1 $264 $265 $266 $267 forward $105 $-1 #
coedge $-1 $268 $107 $269 $270 forward $66 $-1 #
coedge $-1 $107 $268 $271 $272 forward $66 $-1 #
coedge $-1 $273 $274 $107 $170 reversed $275 $-1 #
edge $-1 $276 -30.116983030441119 $277 30.116983030441119 $169 $278 forward 7 unknown #
face $-1 $279 $280 $40 $-1 $281 reversed single #
loop $-1 $-1 $282 $108 #
plane-surface $-1 0 0 -6.0832316717116166 0 0 1 1 0 0 forward_v I I I I #
coedge $-1 $283 $284 $285 $286 reversed $109 $-1 #
coedge $-1 $287 $111 $284 $288 forward $69 $-1 #
coedge $-1 $111 $287 $289 $290 reversed $69 $-1 #
coedge $-1 $291 $285 $111 $178 forward $280 $-1 #
edge $-1 $292 10.209161525235137 $293 16.674934845215702 $177 $294 forward 7 unknown #
face $-1 $295 $296 $41 $-1 $297 reversed single #
loop $-1 $-1 $185 $112 #
plane-surface $-1 50.315256202887049 0 0 -1 0 0 0 0 1 forward_v I I I I #
coedge $-1 $298 $299 $300 $301 reversed $113 $-1 #
coedge $-1 $302 $115 $303 $304 reversed $72 $-1 #
coedge $-1 $115 $302 $299 $305 forward $72 $-1 #
coedge $-1 $306 $307 $115 $186 forward $180 $-1 #
edge $-1 $308 -16.674934845215699 $309 -10.209161525235135 $185 $310 forward 7 unknown #
face $-1 $311 $312 $42 $-1 $313 forward single #
loop $-1 $-1 $314 $116 #
plane-surface $-1 52.798962826214286 -11.020879013742793 143.09032647543555 0 1 0 0.71933980857756763 0 0.69465836192734942 forward_v I I I I #
coedge $-1 $315 $316 $317 $318 reversed $117 $-1 #
coedge $-1 $192 $119 $319 $320 reversed $75 $-1 #
coedge $-1 $119 $191 $315 $321 reversed $75 $-1 #
coedge $-1 $317 $322 $119 $194 forward $312 $-1 #
edge $-1 $323 -23.915774789779906 $324 -18.812818904068894 $193 $325 forward 7 unknown #
loop $-1 $-1 $200 $120 #
plane-surface $-1 -19.588570704817805 -6.7581342252582495 73.186499567730692 0.71933980857756763 0 0.69465836192734942 0.69465836192734942 0 -0.71933980857756763 forward_v I I I I #
loop $-1 $-1 $326 $77 #
coedge $-1 $198 $198 $199 $327 reversed $121 $-1 #
coedge $-1 $199 $199 $198 $327 forward $123 $-1 #
coedge $-1 $200 $200 $124 $201 forward $195 $-1 #
edge $-1 $328 0 $328 6.2831853071796004 $200 $329 forward 7 unknown #
loop $-1 $-1 $207 $125 #
plane-surface $-1 -19.588570704817805 -6.7581342252582495 73.186499567730692 0.71933980857756763 0 0.69465836192734942 0.69465836192734942 0 -0.71933980857756763 forward_v I I I I #
loop $-1 $-1 $330 $80 #
coedge $-1 $205 $205 $206 $331 reversed $126 $-1 #
coedge $-1 $206 $206 $205 $331 forward $128 $-1 #
coedge $-1 $207 $207 $129 $208 forward $202 $-1 #
edge $-1 $332 0 $332 6.2831853071796004 $207 $333 forward 7 unknown #
face $-1 $334 $335 $45 $-1 $336 reversed single #
loop $-1 $-1 $337 $130 #
plane-surface $-1 52.798962826214286 2.4953894367737099 143.09032647543555 0 1 0 0.71933980857756763 0 0.69465836192734942 forward_v I I I I #
coedge $-1 $338 $339 $340 $341 reversed $131 $-1 #
coedge $-1 $214 $133 $342 $343 reversed $84 $-1 #
coedge $-1 $133 $213 $338 $344 reversed $84 $-1 #
coedge $-1 $340 $345 $133 $216 forward $346 $-1 #
edge $-1 $347 -23.915774789779906 $348 -18.812818904068894 $215 $349 forward 7 unknown #
loop $-1 $-1 $222 $134 #
plane-surface $-1 -19.588570704817805 6.758134225258253 73.186499567730692 0.71933980857756763 0 0.69465836192734942 0.69465836192734942 0 -0.71933980857756763 forward_v I I I I #
loop $-1 $-1 $350 $86 #
coedge $-1 $220 $220 $221 $351 reversed $135 $-1 #
coedge $-1 $221 $221 $220 $351 forward $137 $-1 #
coedge $-1 $222 $222 $138 $223 forward $217 $-1 #
edge $-1 $352 0 $352 6.2831853071796004 $222 $353 forward 7 unknown #
loop $-1 $-1 $229 $139 #
plane-surface $-1 -19.588570704817805 6.758134225258253 73.186499567730692 0.71933980857756763 0 0.69465836192734942 0.69465836192734942 0 -0.71933980857756763 forward_v I I I I #
loop $-1 $-1 $354 $89 #
coedge $-1 $227 $227 $228 $355 reversed $140 $-1 #
coedge $-1 $228 $228 $227 $355 forward $142 $-1 #
coedge $-1 $229 $229 $143 $230 forward $224 $-1 #
edge $-1 $356 0 $356 6.2831853071796004 $229 $357 forward 7 unknown #
face $-1 $358 $359 $48 $-1 $360 reversed single #
loop $-1 $-1 $361 $144 #
plane-surface $-1 -117.65021279699448 23.651209710460556 77.68655285919732 0 -1 0 0.66913061440640931 0 -0.74314481823134659 forward_v I I I I #
coedge $-1 $362 $363 $364 $365 reversed $145 $-1 #
coedge $-1 $236 $147 $366 $367 reversed $93 $-1 #
coedge $-1 $147 $235 $362 $368 reversed $93 $-1 #
coedge $-1 $364 $369 $147 $238 forward $370 $-1 #
edge $-1 $371 8.5098501956101913 $372 12.041289901730231 $237 $373 forward 7 unknown #
loop $-1 $-1 $244 $148 #
plane-surface $-1 -50.31525620288707 18.774944319914269 2.9035090088810591 -0.66913061440640931 0 0.74314481823134659 0.74314481823134659 0 0.66913061440640931 forward_v I I I I #
loop $-1 $-1 $374 $95 #
coedge $-1 $242 $242 $243 $375 reversed $149 $-1 #
coedge $-1 $243 $243 $242 $375 forward $151 $-1 #
coedge $-1 $244 $244 $152 $245 forward $239 $-1 #
edge $-1 $376 0 $376 6.2831853071796004 $244 $377 forward 7 unknown #
loop $-1 $-1 $251 $153 #
plane-surface $-1 -50.31525620288707 18.774944319914269 2.9035090088810591 -0.66913061440640931 0 0.74314481823134659 0.74314481823134659 0 0.66913061440640931 forward_v I I I I #
loop $-1 $-1 $378 $98 #
coedge $-1 $249 $249 $250 $379 reversed $154 $-1 #
coedge $-1 $250 $250 $249 $379 forward $156 $-1 #
coedge $-1 $251 $251 $157 $252 forward $246 $-1 #
edge $-1 $380 0 $380 6.2831853071796004 $251 $381 forward 7 unknown #
loop $-1 $-1 $258 $158 #
plane-surface $-1 -50.31525620288707 18.774944319914269 2.9035090088810591 -0.66913061440640931 0 0.74314481823134659 0.74314481823134659 0 0.66913061440640931 forward_v I I I I #
loop $-1 $-1 $382 $101 #
coedge $-1 $256 $256 $257 $383 reversed $159 $-1 #
coedge $-1 $257 $257 $256 $383 forward $161 $-1 #
coedge $-1 $258 $258 $162 $259 forward $253 $-1 #
edge $-1 $384 0 $384 6.2831853071796004 $258 $385 forward 7 unknown #
face $-1 $386 $387 $39 $-1 $388 reversed single #
loop $-1 $-1 $389 $163 #
plane-surface $-1 -50.315256202887049 0 0 1 0 0 0 0 -1 forward_v I I I I #
coedge $-1 $390 $271 $391 $392 forward $164 $-1 #
coedge $-1 $393 $166 $390 $394 forward $105 $-1 #
coedge $-1 $166 $393 $395 $396 forward $105 $-1 #
coedge $-1 $274 $273 $166 $267 reversed $275 $-1 #
edge $-1 $397 -30.116983030441119 $398 30.116983030441119 $266 $399 forward 7 unknown #
coedge $-1 $168 $167 $400 $401 forward $66 $-1 #
coedge $-1 $402 $403 $167 $270 reversed $387 $-1 #
edge $-1 $277 -50.315256202887049 $404 50.315256202887049 $269 $405 forward 7 unknown #
coedge $-1 $263 $406 $168 $272 reversed $164 $-1 #
edge $-1 $407 -50.315256202887049 $276 50.315256202887049 $271 $408 forward 7 unknown #
coedge $-1 $266 $169 $406 $409 forward $275 $-1 #
coedge $-1 $169 $266 $402 $410 reversed $275 $-1 #
loop $-1 $-1 $273 $386 #
vertex $-1 $170 $411 #
vertex $-1 $170 $412 #
straight-curve $-1 50.315256202887049 0 6.0832316717116166 0 1 0 I I #
face $-1 $413 $414 $40 $-1 $415 reversed single #
loop $-1 $-1 $285 $171 #
plane-surface $-1 50.315256202887049 0 0 -1 0 0 0 0 1 forward_v I I I I #
coedge $-1 $416 $417 $283 $418 forward $172 $-1 #
coedge $-1 $419 $174 $282 $418 reversed $109 $-1 #
coedge $-1 $174 $419 $175 $288 reversed $109 $-1 #
coedge $-1 $177 $420 $174 $286 forward $280 $-1 #
edge $-1 $421 -3.7916158358558083 $292 -0.7916158358558083 $285 $422 forward 7 unknown #
coedge $-1 $176 $175 $423 $424 reversed $69 $-1 #
edge $-1 $292 -50.315256202887049 $425 50.315256202887049 $284 $426 forward 7 unknown #
coedge $-1 $427 $428 $176 $290 forward $414 $-1 #
edge $-1 $293 -50.315256202887049 $429 50.315256202887049 $289 $430 forward 7 unknown #
coedge $-1 $420 $177 $428 $431 forward $280 $-1 #
vertex $-1 $178 $432 #
vertex $-1 $431 $433 #
straight-curve $-1 50.315256202887049 -13.442048185225419 -3.0832316717116166 0 -1 0 I I #
face $-1 $434 $435 $41 $-1 $436 reversed single #
loop $-1 $-1 $437 $179 #
plane-surface $-1 0 0 -6.0832316717116166 0 0 1 1 0 0 forward_v I I I I #
coedge $-1 $438 $182 $437 $439 reversed $113 $-1 #
coedge $-1 $182 $438 $184 $305 reversed $113 $-1 #
coedge $-1 $440 $441 $182 $301 forward $435 $-1 #
edge $-1 $442 -3.7916158358558083 $443 -0.7916158358558083 $300 $444 forward 7 unknown #
coedge $-1 $184 $183 $440 $445 reversed $72 $-1 #
coedge $-1 $446 $447 $183 $304 forward $448 $-1 #
edge $-1 $449 -50.315256202887049 $308 50.315256202887049 $303 $450 forward 7 unknown #
edge $-1 $443 -50.315256202887049 $309 50.315256202887049 $299 $451 forward 7 unknown #
coedge $-1 $452 $185 $438 $453 forward $180 $-1 #
coedge $-1 $185 $452 $446 $454 reversed $180 $-1 #
vertex $-1 $454 $455 #
vertex $-1 $186 $456 #
straight-curve $-1 50.315256202887049 13.442048185225417 -3.0832316717116166 0 -1 0 I I #
face $-1 $-1 $457 $42 $-1 $458 reversed single #
loop $-1 $-1 $193 $187 #
plane-surface $-1 0 0 6.0832316717116166 0 0 1 1 0 0 forward_v I I I I #
coedge $-1 $459 $460 $461 $462 reversed $188 $-1 #
coedge $-1 $463 $190 $192 $321 forward $117 $-1 #
coedge $-1 $190 $463 $459 $464 forward $117 $-1 #
coedge $-1 $461 $193 $190 $318 forward $312 $-1 #
edge $-1 $324 -0.88367767585541834 $465 7.6418119011136678 $317 $466 forward 7 unknown #
coedge $-1 $467 $468 $191 $320 forward $457 $-1 #
edge $-1 $469 -70.746197201019172 $323 -65.461931566006157 $319 $470 forward 7 unknown #
edge $-1 $324 93.284518798855288 $469 100.63051240577411 $192 $471 forward 7 unknown #
coedge $-1 $193 $461 $467 $472 forward $312 $-1 #
vertex $-1 $320 $473 #
vertex $-1 $194 $474 #
straight-curve $-1 26.399481413107143 -2.4953894367737064 6.0832316717116157 -1 0 0 I I #
coedge $-1 $326 $326 $-1 $475 reversed $197 $-1 #
edge $-1 $476 0 $476 6.2831853071796004 $198 $477 forward 7 unknown #
vertex $-1 $201 $478 #
ellipse-curve $-1 47.763778260031543 -8.5850248488944807 3.4410988542051042 0.71933980857756763 0 0.69465836192734942 0.69465836192734942 0 -0.71933980857756763 1 I I #
coedge $-1 $330 $330 $-1 $479 reversed $204 $-1 #
edge $-1 $480 0 $480 6.2831853071796004 $205 $481 forward 7 unknown #
vertex $-1 $208 $482 #
ellipse-curve $-1 47.763778260031543 -4.9312436016220147 3.4410988542051042 0.71933980857756763 0 0.69465836192734942 0.69465836192734942 0 -0.71933980857756763 1 I I #
face $-1 $-1 $346 $45 $-1 $483 forward single #
loop $-1 $-1 $484 $209 #
plane-surface $-1 50.315256202887049 0 0 -1 0 0 0 0 1 forward_v I I I I #
coedge $-1 $485 $486 $487 $488 reversed $210 $-1 #
coedge $-1 $489 $212 $214 $344 forward $131 $-1 #
coedge $-1 $212 $489 $485 $490 forward $131 $-1 #
coedge $-1 $487 $215 $212 $341 forward $346 $-1 #
edge $-1 $348 -7.6418119011136696 $491 0.88367767585541657 $340 $492 forward 7 unknown #
coedge $-1 $493 $494 $213 $343 forward $335 $-1 #
edge $-1 $495 -70.746197201019172 $347 -65.461931566006157 $342 $496 forward 7 unknown #
edge $-1 $348 93.284518798855288 $495 100.63051240577411 $214 $497 forward 7 unknown #
coedge $-1 $215 $487 $493 $498 forward $346 $-1 #
loop $-1 $-1 $487 $334 #
vertex $-1 $343 $499 #
vertex $-1 $216 $500 #
straight-curve $-1 26.399481413107143 11.020879013742796 6.0832316717116157 -1 0 0 I I #
coedge $-1 $350 $350 $-1 $501 reversed $219 $-1 #
edge $-1 $502 0 $502 6.2831853071796004 $220 $503 forward 7 unknown #
vertex $-1 $223 $504 #
ellipse-curve $-1 47.763778260031543 4.9312436016220218 3.4410988542051042 0.71933980857756763 0 0.69465836192734942 0.69465836192734942 0 -0.71933980857756763 1 I I #
coedge $-1 $354 $354 $-1 $505 reversed $226 $-1 #
edge $-1 $506 0 $506 6.2831853071796004 $227 $507 forward 7 unknown #
vertex $-1 $230 $508 #
ellipse-curve $-1 47.763778260031543 8.5850248488944914 3.4410988542051042 0.71933980857756763 0 0.69465836192734942 0.69465836192734942 0 -0.71933980857756763 1 I I #
face $-1 $-1 $370 $48 $-1 $509 forward single #
loop $-1 $-1 $510 $231 #
plane-surface $-1 -50.315256202887049 0 0 1 0 0 0 0 -1 forward_v I I I I #
coedge $-1 $511 $512 $513 $514 reversed $232 $-1 #
coedge $-1 $515 $234 $236 $368 forward $145 $-1 #
coedge $-1 $234 $515 $511 $516 forward $145 $-1 #
coedge $-1 $513 $237 $234 $365 forward $370 $-1 #
edge $-1 $372 4.5112067694108475 $517 14.263737550503421 $364 $518 forward 7 unknown #
coedge $-1 $519 $520 $235 $367 forward $359 $-1 #
edge $-1 $521 -35.93976742071758 $371 -32.760044757887044 $366 $522 forward 7 unknown #
edge $-1 $372 -4.7520208975213469 $521 -2.8618693057405159e-014 $236 $523 forward 7 unknown #
coedge $-1 $237 $513 $519 $524 forward $370 $-1 #
loop $-1 $-1 $513 $358 #
vertex $-1 $367 $525 #
vertex $-1 $238 $526 #
straight-curve $-1 -58.82510639849724 13.898678929367982 6.0832316717116157 1 0 0 I I #
coedge $-1 $374 $374 $-1 $527 reversed $241 $-1 #
edge $-1 $528 0 $528 6.2831853071796004 $242 $529 forward 7 unknown #
vertex $-1 $245 $530 #
ellipse-curve $-1 -48.549536349827029 15.849185085586498 4.4933703402963481 -0.66913061440640931 0 0.74314481823134659 0.3715724091156733 0 0.33456530720320465 1 I I #
coedge $-1 $378 $378 $-1 $531 reversed $248 $-1 #
edge $-1 $532 0 $532 6.2831853071796004 $249 $533 forward 7 unknown #
vertex $-1 $252 $534 #
ellipse-curve $-1 -48.549536349827029 18.774944319914269 4.4933703402963481 -0.66913061440640931 0 0.74314481823134659 0.3715724091156733 0 0.33456530720320465 1 I I #
coedge $-1 $382 $382 $-1 $535 reversed $255 $-1 #
edge $-1 $536 0 $536 6.2831853071796004 $256 $537 forward 7 unknown #
vertex $-1 $259 $538 #
ellipse-curve $-1 -48.549536349827029 21.70070355424204 4.4933703402963481 -0.66913061440640931 0 0.74314481823134659 0.3715724091156733 0 0.33456530720320465 1 I I #
face $-1 $-1 $275 $39 $-1 $539 reversed single #
loop $-1 $-1 $402 $260 #
plane-surface $-1 0 30.116983030441119 0 0 -1 0 0 0 -1 forward_v I I I I #
coedge $-1 $540 $400 $403 $541 forward $261 $-1 #
coedge $-1 $406 $263 $264 $394 reversed $164 $-1 #
coedge $-1 $400 $540 $263 $392 reversed $261 $-1 #
edge $-1 $407 -6.0832316717116166 $542 6.0832316717116166 $391 $543 forward 7 unknown #
coedge $-1 $265 $264 $540 $544 forward $105 $-1 #
edge $-1 $398 -50.315256202887049 $542 50.315256202887049 $390 $545 forward 7 unknown #
coedge $-1 $403 $402 $265 $396 reversed $387 $-1 #
edge $-1 $546 -50.315256202887049 $397 50.315256202887049 $395 $547 forward 7 unknown #
vertex $-1 $267 $548 #
vertex $-1 $409 $549 #
straight-curve $-1 50.315256202887049 0 -6.0832316717116166 0 -1 0 I I #
coedge $-1 $389 $391 $268 $401 reversed $261 $-1 #
edge $-1 $404 -30.116983030441119 $407 30.116983030441119 $400 $550 forward 7 unknown #
coedge $-1 $395 $269 $274 $410 forward $387 $-1 #
coedge $-1 $269 $395 $389 $541 reversed $387 $-1 #
vertex $-1 $270 $551 #
straight-curve $-1 0 30.116983030441119 6.0832316717116166 -1 0 0 I I #
coedge $-1 $271 $390 $273 $409 reversed $164 $-1 #
vertex $-1 $401 $552 #
straight-curve $-1 0 -30.116983030441119 6.0832316717116166 1 0 0 I I #
edge $-1 $276 -6.0832316717116166 $398 6.0832316717116166 $273 $553 forward 7 unknown #
edge $-1 $277 -6.0832316717116166 $397 6.0832316717116166 $274 $554 forward 7 unknown #
point $-1 50.315256202887049 -30.116983030441119 6.0832316717116166 #
point $-1 50.315256202887049 30.116983030441119 6.0832316717116166 #
face $-1 $-1 $555 $40 $-1 $556 reversed single #
loop $-1 $-1 $289 $279 #
plane-surface $-1 0 -30.116983030441119 0 0 1 0 0 0 1 forward_v I I I I #
coedge $-1 $557 $282 $420 $558 forward $172 $-1 #
coedge $-1 $282 $557 $559 $560 forward $172 $-1 #
edge $-1 $561 -50.315256202887049 $421 50.315256202887049 $282 $562 forward 7 unknown #
coedge $-1 $284 $283 $563 $564 reversed $109 $-1 #
coedge $-1 $285 $291 $416 $558 reversed $280 $-1 #
vertex $-1 $558 $565 #
straight-curve $-1 50.315256202887049 -23.651209710460556 -2.2916158358558083 0 0 1 I I #
coedge $-1 $563 $566 $287 $424 forward $555 $-1 #
edge $-1 $429 -16.674934845215702 $425 -10.209161525235137 $423 $567 forward 7 unknown #
vertex $-1 $424 $568 #
straight-curve $-1 0 -23.651209710460556 -3.0832316717116166 -1 0 0 I I #
coedge $-1 $569 $289 $566 $570 forward $414 $-1 #
coedge $-1 $289 $569 $291 $431 reversed $414 $-1 #
vertex $-1 $570 $571 #
straight-curve $-1 0 -30.116983030441119 -3.0832316717116166 -1 0 0 I I #
edge $-1 $293 3.0832316717116166 $572 6.0832316717116166 $291 $573 forward 7 unknown #
point $-1 50.315256202887049 -23.651209710460556 -3.0832316717116166 #
point $-1 50.315256202887049 -30.116983030441119 -3.0832316717116166 #
face $-1 $-1 $448 $41 $-1 $574 reversed single #
loop $-1 $-1 $440 $295 #
plane-surface $-1 -50.315256202887049 0 0 1 0 0 0 0 -1 forward_v I I I I #
coedge $-1 $575 $576 $298 $439 forward $296 $-1 #
coedge $-1 $299 $298 $306 $453 reversed $113 $-1 #
edge $-1 $577 -50.315256202887049 $442 50.315256202887049 $437 $578 forward 7 unknown #
coedge $-1 $579 $300 $302 $445 forward $435 $-1 #
coedge $-1 $300 $579 $575 $580 reversed $435 $-1 #
vertex $-1 $580 $581 #
vertex $-1 $445 $582 #
straight-curve $-1 -50.315256202887049 23.651209710460552 -2.2916158358558083 0 0 1 I I #
edge $-1 $443 10.209161525235135 $449 16.674934845215699 $440 $583 forward 7 unknown #
coedge $-1 $584 $303 $307 $454 forward $448 $-1 #
coedge $-1 $303 $584 $579 $585 reversed $448 $-1 #
loop $-1 $-1 $303 $434 #
vertex $-1 $585 $586 #
straight-curve $-1 0 30.116983030441119 -3.0832316717116166 1 0 0 I I #
straight-curve $-1 0 23.651209710460552 -3.0832316717116166 1 0 0 I I #
coedge $-1 $307 $306 $576 $587 reversed $180 $-1 #
edge $-1 $309 0.7916158358558083 $577 3.7916158358558083 $306 $588 forward 7 unknown #
edge $-1 $308 3.0832316717116166 $589 6.0832316717116166 $307 $590 forward 7 unknown #
point $-1 50.315256202887049 30.116983030441116 -3.0832316717116166 #
point $-1 50.315256202887049 23.651209710460552 -3.0832316717116166 #
loop $-1 $-1 $319 $311 #
plane-surface $-1 50.315256202887049 0 0 -1 0 0 0 0 1 forward_v I I I I #
coedge $-1 $460 $314 $316 $464 reversed $188 $-1 #
coedge $-1 $314 $459 $591 $592 reversed $188 $-1 #
coedge $-1 $322 $317 $314 $462 forward $312 $-1 #
edge $-1 $465 18.812818904068894 $593 23.915774789779906 $461 $594 forward 7 unknown #
coedge $-1 $316 $315 $468 $595 reversed $117 $-1 #
edge $-1 $596 -100.63051240577411 $465 -93.284518798855288 $459 $597 forward 7 unknown #
vertex $-1 $318 $598 #
straight-curve $-1 45.212300317176044 -3.3790671126291247 6.0832316717116157 0 -1 0 I I #
coedge $-1 $591 $319 $322 $472 reversed $457 $-1 #
coedge $-1 $319 $591 $463 $595 forward $457 $-1 #
vertex $-1 $320 $599 #
straight-curve $-1 50.315256202887049 -2.4953894367737064 71.545163237717773 0 0 1 I I #
straight-curve $-1 -19.588570704817805 -2.4953894367737064 73.186499567730692 0.69465836192734942 0 -0.71933980857756763 I I #
edge $-1 $593 -11.020879013742793 $323 -2.4953894367737064 $467 $600 forward 7 unknown #
point $-1 50.315256202887049 -2.4953894367737064 6.0832316717116166 #
point $-1 45.212300317176037 -2.4953894367737064 6.0832316717116157 #
edge $-1 $601 1 $601 0 $326 $-1 forward 7 unknown #
vertex $-1 $327 $602 #
ellipse-curve $-1 46.532248837698589 -8.5850248488944807 2.2518247434412233 0.71933980857756763 0 0.69465836192734942 0.69465836192734942 0 -0.71933980857756763 1 I I #
point $-1 48.458436621958903 -8.5850248488944807 2.7217590456275484 #
edge $-1 $603 1 $603 0 $330 $-1 forward 7 unknown #
vertex $-1 $331 $604 #
ellipse-curve $-1 46.532248837698589 -4.9312436016220147 2.2518247434412233 0.71933980857756763 0 0.69465836192734942 0.69465836192734942 0 -0.71933980857756763 1 I I #
point $-1 48.458436621958903 -4.9312436016220147 2.7217590456275484 #
plane-surface $-1 0 0 6.0832316717116166 0 0 1 1 0 0 forward_v I I I I #
coedge $-1 $494 $493 $486 $605 forward $335 $-1 #
coedge $-1 $486 $337 $339 $490 reversed $210 $-1 #
coedge $-1 $337 $485 $484 $605 reversed $210 $-1 #
coedge $-1 $345 $340 $337 $488 forward $346 $-1 #
edge $-1 $491 18.812818904068894 $606 23.915774789779906 $487 $607 forward 7 unknown #
coedge $-1 $339 $338 $494 $608 reversed $131 $-1 #
edge $-1 $609 -100.63051240577411 $491 -93.284518798855288 $485 $610 forward 7 unknown #
vertex $-1 $341 $611 #
straight-curve $-1 45.212300317176044 3.3790671126291265 6.0832316717116157 0 -1 0 I I #
coedge $-1 $484 $342 $345 $498 reversed $335 $-1 #
coedge $-1 $342 $484 $489 $608 forward $335 $-1 #
vertex $-1 $343 $612 #
straight-curve $-1 50.315256202887049 11.020879013742796 71.545163237717773 0 0 1 I I #
straight-curve $-1 -19.588570704817805 11.020879013742796 73.186499567730692 0.69465836192734942 0 -0.71933980857756763 I I #
edge $-1 $606 2.4953894367737099 $347 11.020879013742796 $493 $613 forward 7 unknown #
point $-1 50.315256202887049 11.020879013742796 6.0832316717116166 #
point $-1 45.212300317176037 11.020879013742796 6.0832316717116157 #
edge $-1 $614 1 $614 0 $350 $-1 forward 7 unknown #
vertex $-1 $351 $615 #
ellipse-curve $-1 46.532248837698589 4.9312436016220218 2.2518247434412233 0.71933980857756763 0 0.69465836192734942 0.69465836192734942 0 -0.71933980857756763 1 I I #
point $-1 48.458436621958903 4.9312436016220218 2.7217590456275484 #
edge $-1 $616 1 $616 0 $354 $-1 forward 7 unknown #
vertex $-1 $355 $617 #
ellipse-curve $-1 46.532248837698589 8.5850248488944914 2.2518247434412233 0.71933980857756763 0 0.69465836192734942 0.69465836192734942 0 -0.71933980857756763 1 I I #
point $-1 48.458436621958903 8.5850248488944914 2.7217590456275484 #
plane-surface $-1 0 0 6.0832316717116166 0 0 1 1 0 0 forward_v I I I I #
coedge $-1 $520 $519 $512 $618 forward $359 $-1 #
coedge $-1 $512 $361 $363 $516 reversed $232 $-1 #
coedge $-1 $361 $511 $510 $618 reversed $232 $-1 #
coedge $-1 $369 $364 $361 $514 forward $370 $-1 #
edge $-1 $517 -12.041289901730231 $619 -8.5098501956101913 $513 $620 forward 7 unknown #
coedge $-1 $363 $362 $520 $621 reversed $145 $-1 #
edge $-1 $622 2.8618693057405159e-014 $517 4.7520208975213469 $511 $623 forward 7 unknown #
vertex $-1 $365 $624 #
straight-curve $-1 -46.783816496767002 9.3874721599571345 6.0832316717116139 0 1 0 I I #
coedge $-1 $510 $366 $369 $524 reversed $359 $-1 #
coedge $-1 $366 $510 $515 $621 forward $359 $-1 #
vertex $-1 $367 $625 #
straight-curve $-1 -50.315256202887049 13.898678929367982 38.84327642959866 0 0 1 I I #
straight-curve $-1 -50.31525620288707 13.898678929367982 2.9035090088810591 -0.74314481823134659 0 -0.66913061440640931 I I #
edge $-1 $619 -23.651209710460556 $371 -13.898678929367982 $519 $626 forward 7 unknown #
point $-1 -50.315256202887049 13.898678929367982 6.0832316717116166 #
point $-1 -46.78381649676701 13.898678929367982 6.0832316717116157 #
edge $-1 $627 1 $627 0 $374 $-1 forward 7 unknown #
vertex $-1 $375 $628 #
ellipse-curve $-1 -47.505151846741988 15.849185085586498 3.3334638661361797 -0.66913061440640931 0 0.74314481823134659 0.3715724091156733 0 0.33456530720320465 1 I I #
point $-1 -48.177963940711336 15.849185085586498 4.8279356474995376 #
edge $-1 $629 1 $629 0 $378 $-1 forward 7 unknown #
vertex $-1 $379 $630 #
ellipse-curve $-1 -47.505151846741988 18.774944319914269 3.3334638661361797 -0.66913061440640931 0 0.74314481823134659 0.3715724091156733 0 0.33456530720320465 1 I I #
point $-1 -48.177963940711336 18.774944319914269 4.8279356474995376 #
edge $-1 $631 1 $631 0 $382 $-1 forward 7 unknown #
vertex $-1 $383 $632 #
ellipse-curve $-1 -47.505151846741988 21.70070355424204 3.3334638661361797 -0.66913061440640931 0 0.74314481823134659 0.3715724091156733 0 0.33456530720320465 1 I I #
point $-1 -48.177963940711336 21.70070355424204 4.8279356474995376 #
plane-surface $-1 50.315256202887049 0 0 -1 0 0 0 0 1 forward_v I I I I #
coedge $-1 $391 $389 $393 $544 reversed $261 $-1 #
edge $-1 $404 -6.0832316717116166 $546 6.0832316717116166 $403 $633 forward 7 unknown #
vertex $-1 $544 $634 #
straight-curve $-1 -50.315256202887049 -30.116983030441119 0 0 0 -1 I I #
edge $-1 $542 -30.116983030441119 $546 30.116983030441119 $540 $635 forward 7 unknown #
straight-curve $-1 0 -30.116983030441119 -6.0832316717116166 -1 0 0 I I #
vertex $-1 $396 $636 #
straight-curve $-1 0 30.116983030441119 -6.0832316717116166 1 0 0 I I #
point $-1 50.315256202887049 30.116983030441119 -6.0832316717116166 #
point $-1 50.315256202887049 -30.116983030441119 -6.0832316717116166 #
straight-curve $-1 -50.315256202887049 0 6.0832316717116166 0 -1 0 I I #
point $-1 -50.315256202887049 30.116983030441119 6.0832316717116166 #
point $-1 -50.315256202887049 -30.116983030441119 6.0832316717116166 #
straight-curve $-1 50.315256202887049 -30.116983030441119 0 0 0 -1 I I #
straight-curve $-1 50.315256202887049 30.116983030441119 0 0 0 -1 I I #
loop $-1 $-1 $563 $413 #
plane-surface $-1 -50.315256202887049 0 0 1 0 0 0 0 -1 forward_v I I I I #
coedge $-1 $417 $416 $569 $637 forward $172 $-1 #
edge $-1 $421 23.651209710460556 $572 30.116983030441119 $420 $638 forward 7 unknown #
coedge $-1 $566 $563 $417 $560 reversed $555 $-1 #
edge $-1 $639 -30.116983030441119 $561 -23.651209710460556 $559 $640 forward 7 unknown #
vertex $-1 $564 $641 #
straight-curve $-1 0 -23.651209710460556 -6.0832316717116166 1 0 0 I I #
coedge $-1 $559 $423 $419 $564 forward $555 $-1 #
edge $-1 $425 0.7916158358558083 $561 3.7916158358558083 $563 $642 forward 7 unknown #
point $-1 50.315256202887049 -23.651209710460556 -6.0832316717116166 #
coedge $-1 $423 $559 $427 $570 reversed $555 $-1 #
straight-curve $-1 -50.315256202887049 -13.442048185225419 -3.0832316717116166 0 1 0 I I #
point $-1 -50.315256202887049 -23.651209710460556 -3.0832316717116166 #
coedge $-1 $428 $427 $557 $637 reversed $414 $-1 #
edge $-1 $429 3.0832316717116166 $639 6.0832316717116166 $566 $643 forward 7 unknown #
point $-1 -50.315256202887049 -30.116983030441119 -3.0832316717116166 #
vertex $-1 $431 $644 #
straight-curve $-1 50.315256202887049 -30.116983030441119 0 0 0 -1 I I #
plane-surface $-1 0 30.116983030441119 0 0 -1 0 0 0 -1 forward_v I I I I #
coedge $-1 $645 $437 $441 $580 forward $296 $-1 #
coedge $-1 $437 $645 $452 $587 forward $296 $-1 #
vertex $-1 $439 $646 #
straight-curve $-1 0 23.651209710460552 -6.0832316717116166 -1 0 0 I I #
coedge $-1 $441 $440 $447 $585 forward $435 $-1 #
edge $-1 $442 23.651209710460552 $647 30.116983030441119 $441 $648 forward 7 unknown #
point $-1 -50.315256202887049 23.651209710460552 -6.0832316717116166 #
point $-1 -50.315256202887049 23.651209710460552 -3.0832316717116166 #
straight-curve $-1 -50.315256202887049 13.442048185225417 -3.0832316717116166 0 1 0 I I #
coedge $-1 $447 $446 $645 $649 reversed $448 $-1 #
edge $-1 $449 3.0832316717116166 $647 6.0832316717116166 $447 $650 forward 7 unknown #
point $-1 -50.315256202887049 30.116983030441116 -3.0832316717116166 #
edge $-1 $589 -30.116983030441119 $577 -23.651209710460552 $452 $651 forward 7 unknown #
straight-curve $-1 50.315256202887049 23.651209710460552 -2.2916158358558083 0 0 -1 I I #
vertex $-1 $587 $652 #
straight-curve $-1 50.315256202887049 30.116983030441119 0 0 0 -1 I I #
coedge $-1 $468 $467 $460 $592 forward $457 $-1 #
edge $-1 $593 65.461931566006157 $596 70.746197201019172 $591 $653 forward 7 unknown #
vertex $-1 $472 $654 #
straight-curve $-1 26.399481413107143 -11.020879013742793 6.0832316717116157 1 0 0 I I #
edge $-1 $596 -7.6418119011136678 $469 0.88367767585541834 $468 $655 forward 7 unknown #
vertex $-1 $595 $656 #
straight-curve $-1 -19.588570704817805 -11.020879013742793 73.186499567730692 -0.69465836192734942 0 0.71933980857756763 I I #
point $-1 45.212300317176037 -11.020879013742793 6.0832316717116157 #
point $-1 50.315256202887049 -2.4953894367737064 0.79896603669860156 #
straight-curve $-1 50.315256202887049 0 6.0832316717116166 0 1 0 I I #
vertex $-1 $475 $657 #
point $-1 47.226907199625934 -8.5850248488944807 1.532484934863656 #
vertex $-1 $479 $658 #
point $-1 47.226907199625934 -4.9312436016220147 1.532484934863656 #
edge $-1 $606 65.461931566006157 $609 70.746197201019172 $484 $659 forward 7 unknown #
vertex $-1 $498 $660 #
straight-curve $-1 26.399481413107143 2.4953894367737099 6.0832316717116157 1 0 0 I I #
edge $-1 $609 -0.88367767585541657 $495 7.6418119011136696 $494 $661 forward 7 unknown #
vertex $-1 $608 $662 #
straight-curve $-1 -19.588570704817805 2.4953894367737099 73.186499567730692 -0.69465836192734942 0 0.71933980857756763 I I #
point $-1 45.212300317176037 2.4953894367737099 6.0832316717116157 #
point $-1 50.315256202887049 11.020879013742796 0.79896603669860156 #
straight-curve $-1 50.315256202887049 0 6.0832316717116166 0 1 0 I I #
vertex $-1 $501 $663 #
point $-1 47.226907199625934 4.9312436016220218 1.532484934863656 #
vertex $-1 $505 $664 #
point $-1 47.226907199625934 8.5850248488944914 1.532484934863656 #
edge $-1 $619 32.760044757887044 $622 35.93976742071758 $510 $665 forward 7 unknown #
vertex $-1 $524 $666 #
straight-curve $-1 -58.82510639849724 23.651209710460556 6.0832316717116157 -1 0 0 I I #
edge $-1 $622 -14.263737550503421 $521 -4.5112067694108475 $520 $667 forward 7 unknown #
vertex $-1 $621 $668 #
straight-curve $-1 -50.31525620288707 23.651209710460556 2.9035090088810591 0.74314481823134659 0 0.66913061440640931 I I #
point $-1 -46.78381649676701 23.651209710460556 6.0832316717116157 #
point $-1 -50.315256202887049 13.898678929367982 2.9035090088810782 #
straight-curve $-1 -50.315256202887049 0 6.0832316717116166 0 -1 0 I I #
vertex $-1 $527 $669 #
point $-1 -47.133579437626317 15.849185085586498 3.6680291733393844 #
vertex $-1 $531 $670 #
point $-1 -47.133579437626317 18.774944319914269 3.6680291733393844 #
vertex $-1 $535 $671 #
point $-1 -47.133579437626317 21.70070355424204 3.6680291733393844 #
straight-curve $-1 -50.315256202887049 30.116983030441119 0 0 0 -1 I I #
point $-1 -50.315256202887049 -30.116983030441119 -6.0832316717116166 #
straight-curve $-1 -50.315256202887049 0 -6.0832316717116166 0 1 0 I I #
point $-1 -50.315256202887049 30.116983030441119 -6.0832316717116166 #
edge $-1 $572 -50.315256202887049 $639 50.315256202887049 $569 $672 forward 7 unknown #
straight-curve $-1 50.315256202887049 0 -6.0832316717116166 0 -1 0 I I #
vertex $-1 $560 $673 #
straight-curve $-1 -50.315256202887049 0 -6.0832316717116166 0 1 0 I I #
point $-1 -50.315256202887049 -23.651209710460556 -6.0832316717116166 #
straight-curve $-1 -50.315256202887049 -23.651209710460556 -2.2916158358558083 0 0 -1 I I #
straight-curve $-1 -50.315256202887049 -30.116983030441119 0 0 0 -1 I I #
point $-1 50.315256202887049 -30.116983030441119 -6.0832316717116166 #
coedge $-1 $576 $575 $584 $649 forward $296 $-1 #
point $-1 50.315256202887049 23.651209710460552 -6.0832316717116166 #
vertex $-1 $649 $674 #
straight-curve $-1 -50.315256202887049 0 -6.0832316717116166 0 1 0 I I #
edge $-1 $647 -50.315256202887049 $589 50.315256202887049 $584 $675 forward 7 unknown #
straight-curve $-1 -50.315256202887049 30.116983030441119 0 0 0 -1 I I #
straight-curve $-1 50.315256202887049 0 -6.0832316717116166 0 -1 0 I I #
point $-1 50.315256202887049 30.116983030441119 -6.0832316717116166 #
straight-curve $-1 50.315256202887049 -11.020879013742793 71.545163237717773 0 0 -1 I I #
point $-1 50.315256202887049 -11.020879013742793 6.0832316717116166 #
straight-curve $-1 50.315256202887049 -3.3790671126291247 0.79896603669860866 0 1 0 I I #
point $-1 50.315256202887049 -11.020879013742793 0.79896603669860156 #
point $-1 45.812909029121016 -8.5850248488944807 1.5571663815138741 #
point $-1 45.812909029121016 -4.9312436016220147 1.5571663815138741 #
straight-curve $-1 50.315256202887049 2.4953894367737099 71.545163237717773 0 0 -1 I I #
point $-1 50.315256202887049 2.4953894367737099 6.0832316717116166 #
straight-curve $-1 50.315256202887049 3.3790671126291265 0.79896603669860866 0 1 0 I I #
point $-1 50.315256202887049 2.4953894367737099 0.79896603669860156 #
point $-1 45.812909029121016 4.9312436016220218 1.5571663815138741 #
point $-1 45.812909029121016 8.5850248488944914 1.5571663815138741 #
straight-curve $-1 -50.315256202887049 23.651209710460556 38.84327642959866 0 0 -1 I I #
point $-1 -50.315256202887049 23.651209710460556 6.0832316717116166 #
straight-curve $-1 -50.315256202887049 9.3874721599571345 2.9035090088810742 0 -1 0 I I #
point $-1 -50.315256202887049 23.651209710460556 2.9035090088810782 #
point $-1 -47.170586539538782 15.849185085586498 2.9618914570205064 #
point $-1 -47.170586539538782 18.774944319914269 2.9618914570205064 #
point $-1 -47.170586539538782 21.70070355424204 2.9618914570205064 #
straight-curve $-1 0 -30.116983030441119 -6.0832316717116166 -1 0 0 I I #
point $-1 -50.315256202887049 -30.116983030441119 -6.0832316717116166 #
point $-1 -50.315256202887049 30.116983030441119 -6.0832316717116166 #
straight-curve $-1 0 30.116983030441119 -6.0832316717116166 1 0 0 I I #
End-of-ACIS-data 