500 0 8 0           
7 Unknown 11 ACIS 5.0 NT 24 Fri Mar 26 00:57:20 1999 
-1 9.9999999999999995e-007 1e-010 
body $-1 $8 $-1 $9 #
body $-1 $10 $-1 $11 #
body $-1 $12 $-1 $13 #
body $-1 $14 $-1 $15 #
body $-1 $16 $-1 $17 #
body $-1 $18 $-1 $19 #
body $-1 $20 $-1 $21 #
body $-1 $22 $-1 $23 #
lump $-1 $-1 $24 $0 #
transform $-1 1 0 0 0 1 0 0 0 1 50.244453260902738 31.977227951990287 8.7220824250286331 1 rotate no_reflect no_shear #
lump $-1 $-1 $25 $1 #
transform $-1 1 0 0 0 1 0 0 0 1 50.244453260902738 31.977227951990287 8.7220824250286331 1 rotate no_reflect no_shear #
lump $-1 $-1 $26 $2 #
transform $-1 1 0 0 0 1 0 0 0 1 50.244453260902738 31.977227951990287 8.7220824250286331 1 rotate no_reflect no_shear #
lump $-1 $-1 $27 $3 #
transform $-1 1 0 0 0 1 0 0 0 1 50.244453260902738 31.977227951990287 8.7220824250286331 1 rotate no_reflect no_shear #
lump $-1 $-1 $28 $4 #
transform $-1 1 0 0 0 1 0 0 0 1 50.244453260902738 31.977227951990287 8.7220824250286331 1 rotate no_reflect no_shear #
lump $-1 $-1 $29 $5 #
transform $-1 1 0 0 0 1 0 0 0 1 50.244453260902738 31.977227951990287 8.7220824250286331 1 rotate no_reflect no_shear #
lump $-1 $-1 $30 $6 #
transform $-1 1 0 0 0 1 0 0 0 1 50.244453260902738 31.977227951990287 8.7220824250286331 1 rotate no_reflect no_shear #
lump $-1 $-1 $31 $7 #
transform $-1 1 0 0 0 1 0 0 0 1 50.244453260902738 31.977227951990287 8.7220824250286331 1 rotate no_reflect no_shear #
shell $-1 $-1 $-1 $32 $-1 $8 #
shell $-1 $-1 $-1 $33 $-1 $10 #
shell $-1 $-1 $-1 $34 $-1 $12 #
shell $-1 $-1 $-1 $35 $-1 $14 #
shell $-1 $-1 $-1 $36 $-1 $16 #
shell $-1 $-1 $-1 $37 $-1 $18 #
shell $-1 $-1 $-1 $38 $-1 $20 #
shell $-1 $-1 $-1 $39 $-1 $22 #
face $-1 $40 $41 $24 $-1 $42 forward single #
face $-1 $43 $44 $25 $-1 $45 reversed single #
face $-1 $46 $47 $26 $-1 $48 forward single #
face $-1 $49 $50 $27 $-1 $51 forward single #
face $-1 $52 $53 $28 $-1 $54 forward single #
face $-1 $55 $56 $29 $-1 $57 reversed single #
face $-1 $58 $59 $30 $-1 $60 forward single #
face $-1 $61 $62 $31 $-1 $63 forward single #
face $-1 $64 $65 $24 $-1 $66 reversed single #
loop $-1 $-1 $67 $32 #
plane-surface $-1 0 0 8.7220824250286331 0 0 1 1 0 0 forward_v I I I I #
face $-1 $68 $69 $25 $-1 $70 reversed single #
loop $-1 $-1 $71 $33 #
plane-surface $-1 -121.30084132092787 -11.106963493004187 75.351746419956754 0 1 0 -0.70710678939079041 0 0.70710677298230451 forward_v I I I I #
face $-1 $72 $73 $26 $-1 $74 forward single #
loop $-1 $75 $76 $34 #
cone-surface $-1 -47.034254312399185 -9.0625366494975026 5.5118834482955315 0.70710678939079041 0 -0.70710677298230451 0.70710677298230451 0 0.70710678939079041 1 I I 0 1 1 forward I I I I #
face $-1 $77 $78 $27 $-1 $79 forward single #
loop $-1 $80 $81 $35 #
cone-surface $-1 -47.034254312399185 -5.9958963842374757 5.5118834482955315 0.70710678939079041 0 -0.70710677298230451 0.70710677298230451 0 0.70710678939079041 1 I I 0 1 1 forward I I I I #
face $-1 $82 $83 $28 $-1 $84 forward single #
loop $-1 $85 $86 $36 #
cone-surface $-1 -47.034254312399185 -2.9292561189774489 5.5118834482955315 0.70710678939079041 0 -0.70710677298230451 0.70710677298230451 0 0.70710678939079041 1 I I 0 1 1 forward I I I I #
face $-1 $87 $88 $29 $-1 $89 reversed single #
loop $-1 $-1 $90 $37 #
plane-surface $-1 77.360851002150383 22.659555383857324 141.81699908388072 0 1 0 0.82903758062907751 0 0.55919289150049634 forward_v I I I I #
face $-1 $91 $92 $30 $-1 $93 forward single #
loop $-1 $94 $95 $38 #
cone-surface $-1 47.533787709560926 25.32174754618103 5.147727430425812 -0.82903758062907751 0 -0.55919289150049634 0.55919289150049634 0 -0.82903758062907751 1 I I 0 1 1 forward I I I I #
face $-1 $96 $97 $31 $-1 $98 forward single #
loop $-1 $99 $100 $39 #
cone-surface $-1 47.533787709560926 29.315035789666588 5.147727430425812 -0.82903758062907751 0 -0.55919289150049634 0.55919289150049634 0 -0.82903758062907751 1 I I 0 1 1 forward I I I I #
face $-1 $101 $102 $24 $-1 $103 reversed single #
loop $-1 $-1 $104 $40 #
plane-surface $-1 0 0 -8.7220824250286331 0 0 1 1 0 0 forward_v I I I I #
coedge $-1 $105 $106 $107 $108 forward $41 $-1 #
face $-1 $109 $110 $25 $-1 $111 reversed single #
loop $-1 $-1 $112 $43 #
plane-surface $-1 -50.244453260902745 -5.9958963842374793 4.2953600088024331 -0.70710678939079041 0 0.70710677298230451 0.70710677298230451 0 0.70710678939079041 forward_v I I I I #
coedge $-1 $113 $114 $115 $116 reversed $44 $-1 #
face $-1 $-1 $117 $26 $-1 $118 forward single #
loop $-1 $119 $120 $46 #
cone-surface $-1 -45.683863125952065 -9.0625366494975026 4.1614922931843772 0.70710678939079041 0 -0.70710677298230451 0.35355338649115226 0 0.35355339469539521 1 I I -0.70710678118654746 0.70710678118654746 0.5 forward I I I I #
loop $-1 $-1 $121 $34 #
coedge $-1 $76 $76 $122 $123 reversed $47 $-1 #
face $-1 $-1 $124 $27 $-1 $125 forward single #
loop $-1 $126 $127 $49 #
cone-surface $-1 -45.683863125952065 -5.9958963842374757 4.1614922931843772 0.70710678939079041 0 -0.70710677298230451 0.35355338649115226 0 0.35355339469539521 1 I I -0.70710678118654746 0.70710678118654746 0.5 forward I I I I #
loop $-1 $-1 $128 $35 #
coedge $-1 $81 $81 $129 $130 reversed $50 $-1 #
face $-1 $-1 $131 $28 $-1 $132 forward single #
loop $-1 $133 $134 $52 #
cone-surface $-1 -45.683863125952065 -2.9292561189774489 4.1614922931843772 0.70710678939079041 0 -0.70710677298230451 0.35355338649115226 0 0.35355339469539521 1 I I -0.70710678118654746 0.70710678118654746 0.5 forward I I I I #
loop $-1 $-1 $135 $36 #
coedge $-1 $86 $86 $136 $137 reversed $53 $-1 #
face $-1 $138 $139 $29 $-1 $140 reversed single #
loop $-1 $-1 $141 $55 #
plane-surface $-1 -5.9482289407487627 27.318391667923805 85.624316882229238 0.82903758062907751 0 0.55919289150049634 0.55919289150049634 0 -0.82903758062907751 forward_v I I I I #
coedge $-1 $142 $143 $144 $145 reversed $56 $-1 #
face $-1 $-1 $146 $30 $-1 $147 forward single #
loop $-1 $148 $149 $58 #
cone-surface $-1 46.569339223706258 25.32174754618103 4.4971987329219996 -0.82903758062907751 0 -0.55919289150049634 0.27959644575024817 0 -0.41451879031453875 1 I I -0.70710678118654746 0.70710678118654746 0.5 forward I I I I #
loop $-1 $-1 $150 $38 #
coedge $-1 $95 $95 $151 $152 reversed $59 $-1 #
face $-1 $-1 $153 $31 $-1 $154 forward single #
loop $-1 $155 $156 $61 #
cone-surface $-1 46.569339223706258 29.315035789666588 4.4971987329219996 -0.82903758062907751 0 -0.55919289150049634 0.27959644575024817 0 -0.41451879031453875 1 I I -0.70710678118654746 0.70710678118654746 0.5 forward I I I I #
loop $-1 $-1 $157 $39 #
coedge $-1 $100 $100 $158 $159 reversed $62 $-1 #
face $-1 $160 $161 $24 $-1 $162 reversed single #
loop $-1 $-1 $163 $64 #
plane-surface $-1 0 -31.977227951990287 0 0 1 0 0 0 1 forward_v I I I I #
coedge $-1 $164 $165 $166 $167 forward $65 $-1 #
coedge $-1 $168 $67 $169 $170 forward $41 $-1 #
coedge $-1 $67 $168 $171 $172 forward $41 $-1 #
coedge $-1 $173 $174 $67 $108 reversed $175 $-1 #
edge $-1 $176 -31.977227951990287 $177 31.977227951990287 $107 $178 forward 7 unknown #
face $-1 $179 $180 $25 $-1 $181 reversed single #
loop $-1 $-1 $182 $68 #
plane-surface $-1 -121.30084132092787 -0.88482927547077139 75.351746419956754 0 -1 0 0.70710678939079041 0 -0.70710677298230451 forward_v I I I I #
coedge $-1 $183 $184 $185 $186 reversed $69 $-1 #
coedge $-1 $114 $71 $187 $188 reversed $44 $-1 #
coedge $-1 $71 $113 $183 $189 reversed $44 $-1 #
coedge $-1 $185 $190 $71 $116 forward $191 $-1 #
edge $-1 $192 10.405967399561199 $193 14.832689713064845 $115 $194 forward 7 unknown #
loop $-1 $-1 $122 $72 #
plane-surface $-1 -50.244453260902745 -5.9958963842374793 4.2953600088024331 -0.70710678939079041 0 0.70710677298230451 0.70710677298230451 0 0.70710678939079041 forward_v I I I I #
loop $-1 $-1 $195 $46 #
coedge $-1 $120 $120 $121 $196 reversed $73 $-1 #
coedge $-1 $121 $121 $120 $196 forward $75 $-1 #
coedge $-1 $122 $122 $76 $123 forward $117 $-1 #
edge $-1 $197 0 $197 6.2831853071796004 $122 $198 forward 7 unknown #
loop $-1 $-1 $129 $77 #
plane-surface $-1 -50.244453260902745 -5.9958963842374793 4.2953600088024331 -0.70710678939079041 0 0.70710677298230451 0.70710677298230451 0 0.70710678939079041 forward_v I I I I #
loop $-1 $-1 $199 $49 #
coedge $-1 $127 $127 $128 $200 reversed $78 $-1 #
coedge $-1 $128 $128 $127 $200 forward $80 $-1 #
coedge $-1 $129 $129 $81 $130 forward $124 $-1 #
edge $-1 $201 0 $201 6.2831853071796004 $129 $202 forward 7 unknown #
loop $-1 $-1 $136 $82 #
plane-surface $-1 -50.244453260902745 -5.9958963842374793 4.2953600088024331 -0.70710678939079041 0 0.70710677298230451 0.70710677298230451 0 0.70710678939079041 forward_v I I I I #
loop $-1 $-1 $203 $52 #
coedge $-1 $134 $134 $135 $204 reversed $83 $-1 #
coedge $-1 $135 $135 $134 $204 forward $85 $-1 #
coedge $-1 $136 $136 $86 $137 forward $131 $-1 #
edge $-1 $205 0 $205 6.2831853071796004 $136 $206 forward 7 unknown #
face $-1 $207 $208 $29 $-1 $209 forward single #
loop $-1 $-1 $210 $87 #
plane-surface $-1 0 31.977227951990287 0 0 -1 0 0 0 -1 forward_v I I I I #
coedge $-1 $211 $212 $213 $214 reversed $88 $-1 #
coedge $-1 $143 $90 $215 $216 reversed $56 $-1 #
coedge $-1 $90 $142 $211 $217 reversed $56 $-1 #
coedge $-1 $213 $218 $90 $145 forward $219 $-1 #
edge $-1 $220 62.186417116911727 $221 68.593262602610281 $144 $222 forward 7 unknown #
loop $-1 $-1 $151 $91 #
plane-surface $-1 -5.9482289407487627 27.318391667923805 85.624316882229238 0.82903758062907751 0 0.55919289150049634 0.55919289150049634 0 -0.82903758062907751 forward_v I I I I #
loop $-1 $-1 $223 $58 #
coedge $-1 $149 $149 $150 $224 reversed $92 $-1 #
coedge $-1 $150 $150 $149 $224 forward $94 $-1 #
coedge $-1 $151 $151 $95 $152 forward $146 $-1 #
edge $-1 $225 0 $225 6.2831853071796004 $151 $226 forward 7 unknown #
loop $-1 $-1 $158 $96 #
plane-surface $-1 -5.9482289407487627 27.318391667923805 85.624316882229238 0.82903758062907751 0 0.55919289150049634 0.55919289150049634 0 -0.82903758062907751 forward_v I I I I #
loop $-1 $-1 $227 $61 #
coedge $-1 $156 $156 $157 $228 reversed $97 $-1 #
coedge $-1 $157 $157 $156 $228 forward $99 $-1 #
coedge $-1 $158 $158 $100 $159 forward $153 $-1 #
edge $-1 $229 0 $229 6.2831853071796004 $158 $230 forward 7 unknown #
face $-1 $231 $232 $24 $-1 $233 reversed single #
loop $-1 $-1 $234 $101 #
plane-surface $-1 -50.244453260902738 0 0 1 0 0 0 0 -1 forward_v I I I I #
coedge $-1 $235 $171 $236 $237 forward $102 $-1 #
coedge $-1 $238 $104 $235 $239 forward $65 $-1 #
coedge $-1 $104 $238 $240 $241 forward $65 $-1 #
coedge $-1 $174 $173 $104 $167 reversed $175 $-1 #
edge $-1 $242 -31.977227951990287 $243 31.977227951990287 $166 $244 forward 7 unknown #
coedge $-1 $106 $105 $245 $246 forward $41 $-1 #
coedge $-1 $247 $248 $105 $170 reversed $232 $-1 #
edge $-1 $177 -50.244453260902738 $249 50.244453260902738 $169 $250 forward 7 unknown #
coedge $-1 $163 $251 $106 $172 reversed $102 $-1 #
edge $-1 $252 -50.244453260902738 $176 50.244453260902738 $171 $253 forward 7 unknown #
coedge $-1 $166 $107 $251 $254 forward $175 $-1 #
coedge $-1 $107 $166 $247 $255 reversed $175 $-1 #
loop $-1 $-1 $173 $231 #
vertex $-1 $108 $256 #
vertex $-1 $108 $257 #
straight-curve $-1 50.244453260902738 0 8.7220824250286331 0 1 0 I I #
face $-1 $-1 $191 $25 $-1 $258 forward single #
loop $-1 $-1 $259 $109 #
plane-surface $-1 -50.244453260902738 0 0 1 0 0 0 0 -1 forward_v I I I I #
coedge $-1 $260 $261 $262 $263 reversed $110 $-1 #
coedge $-1 $264 $112 $114 $189 forward $69 $-1 #
coedge $-1 $112 $264 $260 $265 forward $69 $-1 #
coedge $-1 $262 $115 $112 $186 forward $191 $-1 #
edge $-1 $193 -8.1090153008854475 $266 2.1131189166479682 $185 $267 forward 7 unknown #
coedge $-1 $268 $269 $113 $188 forward $180 $-1 #
edge $-1 $270 -33.380513201175937 $192 -28.953790784949746 $187 $271 forward 7 unknown #
edge $-1 $193 -6.2603308052522815 $270 -1.0048591735576163e-014 $114 $272 forward 7 unknown #
coedge $-1 $115 $262 $268 $273 forward $191 $-1 #
loop $-1 $-1 $262 $179 #
vertex $-1 $188 $274 #
vertex $-1 $116 $275 #
straight-curve $-1 -60.650420660463936 -11.106963493004187 8.7220824250286313 1 0 0 I I #
coedge $-1 $195 $195 $-1 $276 reversed $119 $-1 #
edge $-1 $277 0 $277 6.2831853071796004 $120 $278 forward 7 unknown #
vertex $-1 $123 $279 #
ellipse-curve $-1 -48.031092104150915 -9.0625366494975026 6.5087212169155375 -0.70710678939079041 0 0.70710677298230451 0.70710677298230451 0 0.70710678939079041 1 I I #
coedge $-1 $199 $199 $-1 $280 reversed $126 $-1 #
edge $-1 $281 0 $281 6.2831853071796004 $127 $282 forward 7 unknown #
vertex $-1 $130 $283 #
ellipse-curve $-1 -48.031092104150915 -5.9958963842374757 6.5087212169155375 -0.70710678939079041 0 0.70710677298230451 0.70710677298230451 0 0.70710678939079041 1 I I #
coedge $-1 $203 $203 $-1 $284 reversed $133 $-1 #
edge $-1 $285 0 $285 6.2831853071796004 $134 $286 forward 7 unknown #
vertex $-1 $137 $287 #
ellipse-curve $-1 -48.031092104150915 -2.9292561189774489 6.5087212169155375 -0.70710678939079041 0 0.70710677298230451 0.70710677298230451 0 0.70710678939079041 1 I I #
face $-1 $-1 $219 $29 $-1 $288 reversed single #
loop $-1 $-1 $289 $138 #
plane-surface $-1 0 0 8.7220824250286331 0 0 1 1 0 0 forward_v I I I I #
coedge $-1 $290 $291 $212 $292 forward $139 $-1 #
coedge $-1 $293 $141 $143 $217 forward $88 $-1 #
coedge $-1 $141 $293 $210 $292 reversed $88 $-1 #
coedge $-1 $294 $144 $141 $214 forward $219 $-1 #
edge $-1 $221 9.0003595498954212 $295 18.318032118028384 $213 $296 forward 7 unknown #
coedge $-1 $297 $289 $142 $216 forward $208 $-1 #
edge $-1 $298 7.2425560482241522 $220 11.564027759827546 $215 $299 forward 7 unknown #
edge $-1 $221 -100.4889065218055 $298 -92.760854578928544 $143 $300 forward 7 unknown #
coedge $-1 $144 $294 $297 $301 reversed $219 $-1 #
loop $-1 $-1 $213 $207 #
vertex $-1 $301 $302 #
vertex $-1 $145 $303 #
straight-curve $-1 50.244453260902738 22.659555383857324 70.908499541940358 0 0 -1 I I #
coedge $-1 $223 $223 $-1 $304 reversed $148 $-1 #
edge $-1 $305 0 $305 6.2831853071796004 $149 $306 forward 7 unknown #
vertex $-1 $152 $307 #
ellipse-curve $-1 48.083717405101034 25.32174754618103 5.5186596821793614 0.82903758062907751 0 0.55919289150049634 0.55919289150049634 0 -0.82903758062907751 1 I I #
coedge $-1 $227 $227 $-1 $308 reversed $155 $-1 #
edge $-1 $309 0 $309 6.2831853071796004 $156 $310 forward 7 unknown #
vertex $-1 $159 $311 #
ellipse-curve $-1 48.083717405101034 29.315035789666588 5.5186596821793614 0.82903758062907751 0 0.55919289150049634 0.55919289150049634 0 -0.82903758062907751 1 I I #
face $-1 $-1 $175 $24 $-1 $312 reversed single #
loop $-1 $-1 $247 $160 #
plane-surface $-1 0 31.977227951990287 0 0 -1 0 0 0 -1 forward_v I I I I #
coedge $-1 $313 $245 $248 $314 forward $161 $-1 #
coedge $-1 $251 $163 $164 $239 reversed $102 $-1 #
coedge $-1 $245 $313 $163 $237 reversed $161 $-1 #
edge $-1 $252 -8.7220824250286331 $315 8.7220824250286331 $236 $316 forward 7 unknown #
coedge $-1 $165 $164 $313 $317 forward $65 $-1 #
edge $-1 $243 -50.244453260902738 $315 50.244453260902738 $235 $318 forward 7 unknown #
coedge $-1 $248 $247 $165 $241 reversed $232 $-1 #
edge $-1 $319 -50.244453260902738 $242 50.244453260902738 $240 $320 forward 7 unknown #
vertex $-1 $167 $321 #
vertex $-1 $254 $322 #
straight-curve $-1 50.244453260902738 0 -8.7220824250286331 0 -1 0 I I #
coedge $-1 $234 $236 $168 $246 reversed $161 $-1 #
edge $-1 $249 -31.977227951990287 $252 31.977227951990287 $245 $323 forward 7 unknown #
coedge $-1 $240 $169 $174 $255 forward $232 $-1 #
coedge $-1 $169 $240 $234 $314 reversed $232 $-1 #
vertex $-1 $170 $324 #
straight-curve $-1 0 31.977227951990287 8.7220824250286331 -1 0 0 I I #
coedge $-1 $171 $235 $173 $254 reversed $102 $-1 #
vertex $-1 $246 $325 #
straight-curve $-1 0 -31.977227951990287 8.7220824250286331 1 0 0 I I #
edge $-1 $176 -8.7220824250286331 $243 8.7220824250286331 $173 $326 forward 7 unknown #
edge $-1 $177 -8.7220824250286331 $242 8.7220824250286331 $174 $327 forward 7 unknown #
point $-1 50.244453260902738 -31.977227951990287 8.7220824250286331 #
point $-1 50.244453260902738 31.977227951990287 8.7220824250286331 #
plane-surface $-1 0 0 8.7220824250286331 0 0 1 1 0 0 forward_v I I I I #
coedge $-1 $269 $268 $261 $328 forward $180 $-1 #
coedge $-1 $261 $182 $184 $265 reversed $110 $-1 #
coedge $-1 $182 $260 $259 $328 reversed $110 $-1 #
coedge $-1 $190 $185 $182 $263 forward $191 $-1 #
edge $-1 $266 -14.832689713064845 $329 -10.405967399561199 $262 $330 forward 7 unknown #
coedge $-1 $184 $183 $269 $331 reversed $69 $-1 #
edge $-1 $332 1.0048591735576163e-014 $266 6.2603308052522815 $260 $333 forward 7 unknown #
vertex $-1 $186 $334 #
straight-curve $-1 -45.817730947399092 -2.9979481921187396 8.7220824250286313 0 1 0 I I #
coedge $-1 $259 $187 $190 $273 reversed $180 $-1 #
coedge $-1 $187 $259 $264 $331 forward $180 $-1 #
vertex $-1 $188 $335 #
straight-curve $-1 -50.244453260902738 -11.106963493004187 37.675873209978377 0 0 1 I I #
straight-curve $-1 -50.244453260902745 -11.106963493004187 4.2953600088024331 -0.70710677298230451 0 -0.70710678939079041 I I #
edge $-1 $329 0.88482927547077139 $192 11.106963493004187 $268 $336 forward 7 unknown #
point $-1 -50.244453260902738 -11.106963493004187 8.7220824250286331 #
point $-1 -45.817730947399092 -11.106963493004187 8.7220824250286331 #
edge $-1 $337 1 $337 0 $195 $-1 forward 7 unknown #
vertex $-1 $196 $338 #
ellipse-curve $-1 -46.037416520647461 -9.0625366494975026 4.5150456796755298 -0.70710678939079041 0 0.70710677298230451 0.70710677298230451 0 0.70710678939079041 1 I I #
point $-1 -47.323985331168608 -9.0625366494975026 7.2158280063063236 #
edge $-1 $339 1 $339 0 $199 $-1 forward 7 unknown #
vertex $-1 $200 $340 #
ellipse-curve $-1 -46.037416520647461 -5.9958963842374757 4.5150456796755298 -0.70710678939079041 0 0.70710677298230451 0.70710677298230451 0 0.70710678939079041 1 I I #
point $-1 -47.323985331168608 -5.9958963842374757 7.2158280063063236 #
edge $-1 $341 1 $341 0 $203 $-1 forward 7 unknown #
vertex $-1 $204 $342 #
ellipse-curve $-1 -46.037416520647461 -2.9292561189774489 4.5150456796755298 -0.70710678939079041 0 0.70710677298230451 0.70710677298230451 0 0.70710678939079041 1 I I #
point $-1 -47.323985331168608 -2.9292561189774489 7.2158280063063236 #
plane-surface $-1 50.244453260902738 0 0 -1 0 0 0 0 1 forward_v I I I I #
coedge $-1 $215 $343 $293 $344 forward $208 $-1 #
coedge $-1 $291 $210 $343 $345 reversed $139 $-1 #
coedge $-1 $210 $290 $294 $346 forward $139 $-1 #
edge $-1 $295 -63.332914595932969 $347 -55.604862653056024 $210 $348 forward 7 unknown #
coedge $-1 $212 $211 $289 $344 reversed $88 $-1 #
coedge $-1 $218 $213 $291 $346 reversed $219 $-1 #
vertex $-1 $292 $349 #
straight-curve $-1 50.244453260902738 13.659195833961903 2.3152369393300845 0 1 0 I I #
coedge $-1 $343 $215 $218 $301 forward $208 $-1 #
vertex $-1 $216 $350 #
straight-curve $-1 38.680425501075192 22.659555383857324 8.7220824250286313 1 0 0 I I #
straight-curve $-1 -5.9482289407487627 22.659555383857324 85.624316882229238 -0.55919289150049634 0 0.82903758062907751 I I #
edge $-1 $220 22.659555383857324 $351 31.977227951990287 $218 $352 forward 7 unknown #
point $-1 50.244453260902738 22.659555383857324 8.7220824250286331 #
point $-1 50.244453260902738 22.659555383857324 2.3152369393300773 #
edge $-1 $353 1 $353 0 $223 $-1 forward 7 unknown #
vertex $-1 $224 $354 #
ellipse-curve $-1 46.983858014020797 25.32174754618103 4.7767951786722476 0.82903758062907751 0 0.55919289150049634 0.55919289150049634 0 -0.82903758062907751 1 I I #
point $-1 48.642910296601549 25.32174754618103 4.6896221015502988 #
edge $-1 $355 1 $355 0 $227 $-1 forward 7 unknown #
vertex $-1 $228 $356 #
ellipse-curve $-1 46.983858014020797 29.315035789666588 4.7767951786722476 0.82903758062907751 0 0.55919289150049634 0.55919289150049634 0 -0.82903758062907751 1 I I #
point $-1 48.642910296601549 29.315035789666588 4.6896221015502988 #
plane-surface $-1 50.244453260902738 0 0 -1 0 0 0 0 1 forward_v I I I I #
coedge $-1 $236 $234 $238 $317 reversed $161 $-1 #
edge $-1 $249 -8.7220824250286331 $319 8.7220824250286331 $248 $357 forward 7 unknown #
vertex $-1 $317 $358 #
straight-curve $-1 -50.244453260902738 -31.977227951990287 0 0 0 -1 I I #
edge $-1 $315 -31.977227951990287 $319 31.977227951990287 $313 $359 forward 7 unknown #
straight-curve $-1 0 -31.977227951990287 -8.7220824250286331 -1 0 0 I I #
vertex $-1 $241 $360 #
straight-curve $-1 0 31.977227951990287 -8.7220824250286331 1 0 0 I I #
point $-1 50.244453260902738 31.977227951990287 -8.7220824250286331 #
point $-1 50.244453260902738 -31.977227951990287 -8.7220824250286331 #
straight-curve $-1 -50.244453260902738 0 8.7220824250286331 0 -1 0 I I #
point $-1 -50.244453260902738 31.977227951990287 8.7220824250286331 #
point $-1 -50.244453260902738 -31.977227951990287 8.7220824250286331 #
straight-curve $-1 50.244453260902738 -31.977227951990287 0 0 0 -1 I I #
straight-curve $-1 50.244453260902738 31.977227951990287 0 0 0 -1 I I #
edge $-1 $329 28.953790784949746 $332 33.380513201175937 $259 $361 forward 7 unknown #
vertex $-1 $273 $362 #
straight-curve $-1 -60.650420660463936 -0.88482927547077139 8.7220824250286313 -1 0 0 I I #
edge $-1 $332 -2.1131189166479682 $270 8.1090153008854475 $269 $363 forward 7 unknown #
vertex $-1 $331 $364 #
straight-curve $-1 -50.244453260902745 -0.88482927547077139 4.2953600088024331 0.70710677298230451 0 0.70710678939079041 I I #
point $-1 -45.817730947399092 -0.88482927547077139 8.7220824250286331 #
point $-1 -50.244453260902738 -11.106963493004187 4.2953600088024402 #
straight-curve $-1 -50.244453260902738 0 8.7220824250286331 0 -1 0 I I #
vertex $-1 $276 $365 #
point $-1 -45.330309747665154 -9.0625366494975026 5.2221524690663195 #
vertex $-1 $280 $366 #
point $-1 -45.330309747665154 -5.9958963842374757 5.2221524690663195 #
vertex $-1 $284 $367 #
point $-1 -45.330309747665154 -2.9292561189774489 5.2221524690663195 #
coedge $-1 $289 $297 $290 $345 forward $208 $-1 #
edge $-1 $347 -18.318032118028384 $298 -9.0003595498954212 $289 $368 forward 7 unknown #
edge $-1 $351 -50.244453260902738 $347 -45.922981549299344 $290 $369 forward 7 unknown #
edge $-1 $351 -8.7220824250286331 $295 -2.3152369393300885 $294 $370 forward 7 unknown #
vertex $-1 $292 $371 #
straight-curve $-1 14.829137620848986 31.977227951990287 54.820603230130345 -0.55919289150049634 0 0.82903758062907751 I I #
point $-1 50.244453260902738 31.977227951990287 2.3152369393300885 #
point $-1 45.922981549299344 22.659555383857324 8.7220824250286313 #
vertex $-1 $301 $372 #
straight-curve $-1 50.244453260902738 0 8.7220824250286331 0 1 0 I I #
vertex $-1 $304 $373 #
point $-1 47.543050905521291 25.32174754618103 3.9477575980431703 #
vertex $-1 $308 $374 #
point $-1 47.543050905521291 29.315035789666588 3.9477575980431703 #
straight-curve $-1 -50.244453260902738 31.977227951990287 0 0 0 -1 I I #
point $-1 -50.244453260902738 -31.977227951990287 -8.7220824250286331 #
straight-curve $-1 -50.244453260902738 0 -8.7220824250286331 0 1 0 I I #
point $-1 -50.244453260902738 31.977227951990287 -8.7220824250286331 #
straight-curve $-1 -50.244453260902738 -0.88482927547077139 37.675873209978377 0 0 -1 I I #
point $-1 -50.244453260902738 -0.88482927547077139 8.7220824250286331 #
straight-curve $-1 -50.244453260902738 -2.9979481921187396 4.2953600088024455 0 -1 0 I I #
point $-1 -50.244453260902738 -0.88482927547077139 4.2953600088024402 #
point $-1 -45.330309731256669 -9.0625366494975026 3.807938906693225 #
point $-1 -45.330309731256669 -5.9958963842374757 3.807938906693225 #
point $-1 -45.330309731256669 -2.9292561189774489 3.807938906693225 #
straight-curve $-1 45.922981549299344 13.659195833961903 8.7220824250286313 0 -1 0 I I #
straight-curve $-1 0 31.977227951990287 8.7220824250286331 -1 0 0 I I #
straight-curve $-1 50.244453260902738 31.977227951990287 0 0 0 -1 I I #
point $-1 45.922981549299344 31.977227951990287 8.7220824250286313 #
point $-1 50.244453260902738 31.977227951990287 8.7220824250286331 #
point $-1 46.15482043339172 25.32174754618103 4.2176022871717516 #
point $-1 46.15482043339172 29.315035789666588 4.2176022871717516 #
End-of-ACIS-data 