500 0 10 0           
7 Unknown 11 ACIS 5.0 NT 24 Thu Mar 25 19:23:02 1999 
-1 9.9999999999999995e-007 1e-010 
body $-1 $10 $-1 $11 #
body $-1 $12 $-1 $13 #
body $-1 $14 $-1 $15 #
body $-1 $16 $-1 $17 #
body $-1 $18 $-1 $19 #
body $-1 $20 $-1 $21 #
body $-1 $22 $-1 $23 #
body $-1 $24 $-1 $25 #
body $-1 $26 $-1 $27 #
body $-1 $28 $-1 $29 #
lump $-1 $-1 $30 $0 #
transform $-1 1 0 0 0 1 0 0 0 1 65.98467970824305 36.857338046328039 12.489898684616145 1 rotate no_reflect no_shear #
lump $-1 $-1 $31 $1 #
transform $-1 1 0 0 0 1 0 0 0 1 65.98467970824305 36.857338046328039 12.489898684616145 1 rotate no_reflect no_shear #
lump $-1 $-1 $32 $2 #
transform $-1 1 0 0 0 1 0 0 0 1 65.98467970824305 36.857338046328039 12.489898684616145 1 rotate no_reflect no_shear #
lump $-1 $-1 $33 $3 #
transform $-1 1 0 0 0 1 0 0 0 1 65.98467970824305 36.857338046328039 12.489898684616145 1 rotate no_reflect no_shear #
lump $-1 $-1 $34 $4 #
transform $-1 1 0 0 0 1 0 0 0 1 65.98467970824305 36.857338046328039 12.489898684616145 1 rotate no_reflect no_shear #
lump $-1 $-1 $35 $5 #
transform $-1 1 0 0 0 1 0 0 0 1 65.98467970824305 36.857338046328039 12.489898684616145 1 rotate no_reflect no_shear #
lump $-1 $-1 $36 $6 #
transform $-1 1 0 0 0 1 0 0 0 1 65.98467970824305 36.857338046328039 12.489898684616145 1 rotate no_reflect no_shear #
lump $-1 $-1 $37 $7 #
transform $-1 1 0 0 0 1 0 0 0 1 65.98467970824305 36.857338046328039 12.489898684616145 1 rotate no_reflect no_shear #
lump $-1 $-1 $38 $8 #
transform $-1 1 0 0 0 1 0 0 0 1 65.98467970824305 36.857338046328039 12.489898684616145 1 rotate no_reflect no_shear #
lump $-1 $-1 $39 $9 #
transform $-1 1 0 0 0 1 0 0 0 1 65.98467970824305 36.857338046328039 12.489898684616145 1 rotate no_reflect no_shear #
shell $-1 $-1 $-1 $40 $-1 $10 #
shell $-1 $-1 $-1 $41 $-1 $12 #
shell $-1 $-1 $-1 $42 $-1 $14 #
shell $-1 $-1 $-1 $43 $-1 $16 #
shell $-1 $-1 $-1 $44 $-1 $18 #
shell $-1 $-1 $-1 $45 $-1 $20 #
shell $-1 $-1 $-1 $46 $-1 $22 #
shell $-1 $-1 $-1 $47 $-1 $24 #
shell $-1 $-1 $-1 $48 $-1 $26 #
shell $-1 $-1 $-1 $49 $-1 $28 #
face $-1 $50 $51 $30 $-1 $52 forward single #
face $-1 $53 $54 $31 $-1 $55 reversed single #
face $-1 $56 $57 $32 $-1 $58 reversed single #
face $-1 $59 $60 $33 $-1 $61 forward single #
face $-1 $62 $63 $34 $-1 $64 forward single #
face $-1 $65 $66 $35 $-1 $67 forward single #
face $-1 $68 $69 $36 $-1 $70 reversed single #
face $-1 $71 $72 $37 $-1 $73 forward single #
face $-1 $74 $75 $38 $-1 $76 forward single #
face $-1 $77 $78 $39 $-1 $79 forward single #
face $-1 $80 $81 $30 $-1 $82 reversed single #
loop $-1 $-1 $83 $40 #
plane-surface $-1 0 0 12.489898684616145 0 0 1 1 0 0 forward_v I I I I #
face $-1 $84 $85 $31 $-1 $86 reversed single #
loop $-1 $-1 $87 $41 #
plane-surface $-1 0 -29.08306508551712 7.5335049776529299 0 0 1 1 0 0 forward_v I I I I #
face $-1 $88 $89 $32 $-1 $90 reversed single #
loop $-1 $-1 $91 $42 #
plane-surface $-1 56.217072641744835 -1.4200602668159732 188.9790083502329 0 -1 0 -0.66913061440640931 0 -0.74314481823134659 forward_v I I I I #
face $-1 $92 $93 $33 $-1 $94 forward single #
loop $-1 $95 $96 $43 #
cone-surface $-1 60.009417176560056 -9.7345077671198794 7.0079212613676658 -0.66913061440640931 0 -0.74314481823134659 0.3715724091156733 0 -0.33456530720320465 1 I I 0 1 0.5 forward I I I I #
face $-1 $97 $98 $34 $-1 $99 forward single #
loop $-1 $100 $101 $44 #
cone-surface $-1 60.009417176560056 -6.6165899545059119 7.0079212613676658 -0.66913061440640931 0 -0.74314481823134659 0.3715724091156733 0 -0.33456530720320465 1 I I 0 1 0.5 forward I I I I #
face $-1 $102 $103 $35 $-1 $104 forward single #
loop $-1 $105 $106 $45 #
cone-surface $-1 60.009417176560056 -3.4986721418919444 7.0079212613676658 -0.66913061440640931 0 -0.74314481823134659 0.3715724091156733 0 -0.33456530720320465 1 I I 0 1 0.5 forward I I I I #
face $-1 $107 $108 $36 $-1 $109 reversed single #
loop $-1 $-1 $110 $46 #
plane-surface $-1 -154.28941825741666 -11.813119642195858 100.67426980105928 0 1 0 -0.66913061440640931 0 0.74314481823134659 forward_v I I I I #
face $-1 $111 $112 $37 $-1 $113 forward single #
loop $-1 $114 $115 $47 #
cone-surface $-1 -60.009417176560056 -9.7345077671198794 7.0079212613676587 0.66913061440640931 0 -0.74314481823134659 0.3715724091156733 0 0.33456530720320465 1 I I 0 1 0.5 forward I I I I #
face $-1 $116 $117 $38 $-1 $118 forward single #
loop $-1 $119 $120 $48 #
cone-surface $-1 -60.009417176560056 -6.6165899545059119 7.0079212613676587 0.66913061440640931 0 -0.74314481823134659 0.3715724091156733 0 0.33456530720320465 1 I I 0 1 0.5 forward I I I I #
face $-1 $121 $122 $39 $-1 $123 forward single #
loop $-1 $124 $125 $49 #
cone-surface $-1 -60.009417176560056 -3.4986721418919444 7.0079212613676587 0.66913061440640931 0 -0.74314481823134659 0.3715724091156733 0 0.33456530720320465 1 I I 0 1 0.5 forward I I I I #
face $-1 $126 $127 $30 $-1 $128 reversed single #
loop $-1 $-1 $129 $50 #
plane-surface $-1 0 0 -12.489898684616145 0 0 1 1 0 0 forward_v I I I I #
coedge $-1 $130 $131 $132 $133 forward $51 $-1 #
face $-1 $134 $135 $31 $-1 $136 reversed single #
loop $-1 $-1 $137 $53 #
plane-surface $-1 0 -21.308792124706201 10.011701831134539 0 -1 0 0 0 -1 forward_v I I I I #
coedge $-1 $138 $139 $140 $141 reversed $54 $-1 #
face $-1 $142 $143 $32 $-1 $144 reversed single #
loop $-1 $-1 $145 $56 #
plane-surface $-1 -32.087665907428772 -6.6165899545059155 90.906662734561095 0.66913061440640931 0 0.74314481823134659 0.74314481823134659 0 -0.66913061440640931 forward_v I I I I #
coedge $-1 $146 $147 $148 $149 reversed $57 $-1 #
face $-1 $-1 $150 $33 $-1 $151 forward single #
loop $-1 $152 $153 $59 #
cone-surface $-1 59.357725984276613 -9.7345077671198794 6.2841448831756761 -0.66913061440640931 0 -0.74314481823134659 0.18578620455783665 0 -0.16728265360160233 1 I I -0.70710678118654746 0.70710678118654746 0.25 forward I I I I #
loop $-1 $-1 $154 $43 #
coedge $-1 $96 $96 $155 $156 reversed $60 $-1 #
face $-1 $-1 $157 $34 $-1 $158 forward single #
loop $-1 $159 $160 $62 #
cone-surface $-1 59.357725984276613 -6.6165899545059119 6.2841448831756761 -0.66913061440640931 0 -0.74314481823134659 0.18578620455783665 0 -0.16728265360160233 1 I I -0.70710678118654746 0.70710678118654746 0.25 forward I I I I #
loop $-1 $-1 $161 $44 #
coedge $-1 $101 $101 $162 $163 reversed $63 $-1 #
face $-1 $-1 $164 $35 $-1 $165 forward single #
loop $-1 $166 $167 $65 #
cone-surface $-1 59.357725984276613 -3.4986721418919444 6.2841448831756761 -0.66913061440640931 0 -0.74314481823134659 0.18578620455783665 0 -0.16728265360160233 1 I I -0.70710678118654746 0.70710678118654746 0.25 forward I I I I #
loop $-1 $-1 $168 $45 #
coedge $-1 $106 $106 $169 $170 reversed $66 $-1 #
face $-1 $171 $172 $36 $-1 $173 reversed single #
loop $-1 $-1 $174 $68 #
plane-surface $-1 -65.98467970824305 -6.6165899545059155 2.6019241853874746 -0.66913061440640931 0 0.74314481823134659 0.74314481823134659 0 0.66913061440640931 forward_v I I I I #
coedge $-1 $175 $176 $177 $178 reversed $69 $-1 #
face $-1 $-1 $179 $37 $-1 $180 forward single #
loop $-1 $181 $182 $71 #
cone-surface $-1 -59.357725984276613 -9.7345077671198794 6.284144883175669 0.66913061440640931 0 -0.74314481823134659 0.18578620455783665 0 0.16728265360160233 1 I I -0.70710678118654746 0.70710678118654746 0.25 forward I I I I #
loop $-1 $-1 $183 $47 #
coedge $-1 $115 $115 $184 $185 reversed $72 $-1 #
face $-1 $-1 $186 $38 $-1 $187 forward single #
loop $-1 $188 $189 $74 #
cone-surface $-1 -59.357725984276613 -6.6165899545059119 6.284144883175669 0.66913061440640931 0 -0.74314481823134659 0.18578620455783665 0 0.16728265360160233 1 I I -0.70710678118654746 0.70710678118654746 0.25 forward I I I I #
loop $-1 $-1 $190 $48 #
coedge $-1 $120 $120 $191 $192 reversed $75 $-1 #
face $-1 $-1 $193 $39 $-1 $194 forward single #
loop $-1 $195 $196 $77 #
cone-surface $-1 -59.357725984276613 -3.4986721418919444 6.284144883175669 0.66913061440640931 0 -0.74314481823134659 0.18578620455783665 0 0.16728265360160233 1 I I -0.70710678118654746 0.70710678118654746 0.25 forward I I I I #
loop $-1 $-1 $197 $49 #
coedge $-1 $125 $125 $198 $199 reversed $78 $-1 #
face $-1 $200 $201 $30 $-1 $202 reversed single #
loop $-1 $-1 $203 $80 #
plane-surface $-1 0 -36.857338046328039 0 0 1 0 0 0 1 forward_v I I I I #
coedge $-1 $204 $205 $206 $207 forward $81 $-1 #
coedge $-1 $208 $83 $209 $210 forward $51 $-1 #
coedge $-1 $83 $208 $211 $212 forward $51 $-1 #
coedge $-1 $213 $214 $83 $133 reversed $215 $-1 #
edge $-1 $216 -36.857338046328039 $217 36.857338046328039 $132 $218 forward 7 unknown #
face $-1 $219 $220 $31 $-1 $221 reversed single #
loop $-1 $-1 $222 $84 #
plane-surface $-1 -65.98467970824305 0 0 1 0 0 0 0 -1 forward_v I I I I #
coedge $-1 $223 $224 $225 $226 reversed $85 $-1 #
coedge $-1 $227 $87 $228 $229 reversed $54 $-1 #
coedge $-1 $87 $227 $223 $230 forward $54 $-1 #
coedge $-1 $225 $231 $87 $141 forward $232 $-1 #
edge $-1 $233 -22.315805503569479 $234 -6.7672595819476413 $140 $235 forward 7 unknown #
face $-1 $236 $237 $32 $-1 $238 reversed single #
loop $-1 $-1 $239 $88 #
plane-surface $-1 56.217072641744835 -11.813119642195858 188.9790083502329 0 1 0 0.66913061440640931 0 0.74314481823134659 forward_v I I I I #
coedge $-1 $240 $241 $242 $243 reversed $89 $-1 #
coedge $-1 $147 $91 $244 $245 reversed $57 $-1 #
coedge $-1 $91 $146 $240 $246 reversed $57 $-1 #
coedge $-1 $242 $247 $91 $149 forward $248 $-1 #
edge $-1 $249 -37.876143387370632 $250 -26.894435401368355 $148 $251 forward 7 unknown #
loop $-1 $-1 $155 $92 #
plane-surface $-1 -32.087665907428772 -6.6165899545059155 90.906662734561095 0.66913061440640931 0 0.74314481823134659 0.74314481823134659 0 -0.66913061440640931 forward_v I I I I #
loop $-1 $-1 $252 $59 #
coedge $-1 $153 $153 $154 $253 reversed $93 $-1 #
coedge $-1 $154 $154 $153 $253 forward $95 $-1 #
coedge $-1 $155 $155 $96 $156 forward $150 $-1 #
edge $-1 $254 0 $254 6.2831853071796004 $155 $255 forward 7 unknown #
loop $-1 $-1 $162 $97 #
plane-surface $-1 -32.087665907428772 -6.6165899545059155 90.906662734561095 0.66913061440640931 0 0.74314481823134659 0.74314481823134659 0 -0.66913061440640931 forward_v I I I I #
loop $-1 $-1 $256 $62 #
coedge $-1 $160 $160 $161 $257 reversed $98 $-1 #
coedge $-1 $161 $161 $160 $257 forward $100 $-1 #
coedge $-1 $162 $162 $101 $163 forward $157 $-1 #
edge $-1 $258 0 $258 6.2831853071796004 $162 $259 forward 7 unknown #
loop $-1 $-1 $169 $102 #
plane-surface $-1 -32.087665907428772 -6.6165899545059155 90.906662734561095 0.66913061440640931 0 0.74314481823134659 0.74314481823134659 0 -0.66913061440640931 forward_v I I I I #
loop $-1 $-1 $260 $65 #
coedge $-1 $167 $167 $168 $261 reversed $103 $-1 #
coedge $-1 $168 $168 $167 $261 forward $105 $-1 #
coedge $-1 $169 $169 $106 $170 forward $164 $-1 #
edge $-1 $262 0 $262 6.2831853071796004 $169 $263 forward 7 unknown #
face $-1 $264 $265 $36 $-1 $266 forward single #
loop $-1 $-1 $267 $107 #
plane-surface $-1 -154.28941825741666 -1.4200602668159732 100.67426980105928 0 -1 0 0.66913061440640931 0 -0.74314481823134659 forward_v I I I I #
coedge $-1 $268 $269 $270 $271 reversed $108 $-1 #
coedge $-1 $176 $110 $272 $273 reversed $69 $-1 #
coedge $-1 $110 $175 $268 $274 reversed $69 $-1 #
coedge $-1 $270 $275 $110 $178 forward $265 $-1 #
edge $-1 $276 11.160029420465278 $277 22.141737406467563 $177 $278 forward 7 unknown #
loop $-1 $-1 $184 $111 #
plane-surface $-1 -65.98467970824305 -6.6165899545059155 2.6019241853874746 -0.66913061440640931 0 0.74314481823134659 0.74314481823134659 0 0.66913061440640931 forward_v I I I I #
loop $-1 $-1 $279 $71 #
coedge $-1 $182 $182 $183 $280 reversed $112 $-1 #
coedge $-1 $183 $183 $182 $280 forward $114 $-1 #
coedge $-1 $184 $184 $115 $185 forward $179 $-1 #
edge $-1 $281 0 $281 6.2831853071796004 $184 $282 forward 7 unknown #
loop $-1 $-1 $191 $116 #
plane-surface $-1 -65.98467970824305 -6.6165899545059155 2.6019241853874746 -0.66913061440640931 0 0.74314481823134659 0.74314481823134659 0 0.66913061440640931 forward_v I I I I #
loop $-1 $-1 $283 $74 #
coedge $-1 $189 $189 $190 $284 reversed $117 $-1 #
coedge $-1 $190 $190 $189 $284 forward $119 $-1 #
coedge $-1 $191 $191 $120 $192 forward $186 $-1 #
edge $-1 $285 0 $285 6.2831853071796004 $191 $286 forward 7 unknown #
loop $-1 $-1 $198 $121 #
plane-surface $-1 -65.98467970824305 -6.6165899545059155 2.6019241853874746 -0.66913061440640931 0 0.74314481823134659 0.74314481823134659 0 0.66913061440640931 forward_v I I I I #
loop $-1 $-1 $287 $77 #
coedge $-1 $196 $196 $197 $288 reversed $122 $-1 #
coedge $-1 $197 $197 $196 $288 forward $124 $-1 #
coedge $-1 $198 $198 $125 $199 forward $193 $-1 #
edge $-1 $289 0 $289 6.2831853071796004 $198 $290 forward 7 unknown #
face $-1 $291 $292 $30 $-1 $293 reversed single #
loop $-1 $-1 $294 $126 #
plane-surface $-1 -65.98467970824305 0 0 1 0 0 0 0 -1 forward_v I I I I #
coedge $-1 $295 $211 $296 $297 forward $127 $-1 #
coedge $-1 $298 $129 $295 $299 forward $81 $-1 #
coedge $-1 $129 $298 $300 $301 forward $81 $-1 #
coedge $-1 $214 $213 $129 $207 reversed $215 $-1 #
edge $-1 $302 -36.857338046328039 $303 36.857338046328039 $206 $304 forward 7 unknown #
coedge $-1 $131 $130 $305 $306 forward $51 $-1 #
coedge $-1 $307 $308 $130 $210 reversed $292 $-1 #
edge $-1 $217 -65.98467970824305 $309 65.98467970824305 $209 $310 forward 7 unknown #
coedge $-1 $203 $311 $131 $212 reversed $127 $-1 #
edge $-1 $312 -65.98467970824305 $216 65.98467970824305 $211 $313 forward 7 unknown #
coedge $-1 $206 $132 $311 $314 forward $215 $-1 #
coedge $-1 $132 $206 $307 $315 reversed $215 $-1 #
loop $-1 $-1 $213 $291 #
vertex $-1 $133 $316 #
vertex $-1 $133 $317 #
straight-curve $-1 65.98467970824305 0 12.489898684616145 0 1 0 I I #
face $-1 $318 $319 $31 $-1 $320 forward single #
loop $-1 $-1 $228 $134 #
plane-surface $-1 0 -36.857338046328039 0 0 1 0 0 0 1 forward_v I I I I #
coedge $-1 $321 $322 $323 $324 forward $135 $-1 #
coedge $-1 $323 $137 $139 $230 reversed $85 $-1 #
coedge $-1 $137 $323 $325 $326 reversed $85 $-1 #
coedge $-1 $327 $140 $137 $226 forward $232 $-1 #
edge $-1 $234 2.5276540620856602 $328 7.4840477690488791 $225 $329 forward 7 unknown #
coedge $-1 $139 $138 $321 $330 reversed $54 $-1 #
coedge $-1 $331 $332 $138 $229 forward $220 $-1 #
edge $-1 $333 -65.98467970824305 $233 65.98467970824305 $228 $334 forward 7 unknown #
edge $-1 $335 -65.98467970824305 $234 65.98467970824305 $223 $336 forward 7 unknown #
coedge $-1 $140 $327 $331 $337 forward $232 $-1 #
loop $-1 $-1 $225 $318 #
vertex $-1 $229 $338 #
vertex $-1 $141 $339 #
straight-curve $-1 65.98467970824305 -14.54153254275856 7.5335049776529299 0 1 0 I I #
face $-1 $-1 $248 $32 $-1 $340 forward single #
loop $-1 $-1 $341 $142 #
plane-surface $-1 65.98467970824305 0 0 -1 0 0 0 0 1 forward_v I I I I #
coedge $-1 $342 $343 $344 $345 reversed $143 $-1 #
coedge $-1 $346 $145 $147 $246 forward $89 $-1 #
coedge $-1 $145 $346 $342 $347 forward $89 $-1 #
coedge $-1 $344 $148 $145 $243 forward $248 $-1 #
edge $-1 $250 -1.8882347104369845 $348 8.5048246649429 $242 $349 forward 7 unknown #
coedge $-1 $350 $351 $146 $245 forward $237 $-1 #
edge $-1 $352 -91.887579989728977 $249 -81.999605490500301 $244 $353 forward 7 unknown #
edge $-1 $250 117.19201357945494 $352 131.96935941648613 $147 $354 forward 7 unknown #
coedge $-1 $148 $344 $350 $355 forward $248 $-1 #
loop $-1 $-1 $344 $236 #
vertex $-1 $245 $356 #
vertex $-1 $149 $357 #
straight-curve $-1 28.108536320872417 -1.4200602668159732 12.489898684616151 -1 0 0 I I #
coedge $-1 $252 $252 $-1 $358 reversed $152 $-1 #
edge $-1 $359 0 $359 6.2831853071796004 $153 $360 forward 7 unknown #
vertex $-1 $156 $361 #
ellipse-curve $-1 60.493825715241904 -9.7345077671198794 7.5459114350018206 0.66913061440640931 0 0.74314481823134659 0.3715724091156733 0 -0.33456530720320465 1 I I #
coedge $-1 $256 $256 $-1 $362 reversed $159 $-1 #
edge $-1 $363 0 $363 6.2831853071796004 $160 $364 forward 7 unknown #
vertex $-1 $163 $365 #
ellipse-curve $-1 60.493825715241904 -6.6165899545059119 7.5459114350018206 0.66913061440640931 0 0.74314481823134659 0.3715724091156733 0 -0.33456530720320465 1 I I #
coedge $-1 $260 $260 $-1 $366 reversed $166 $-1 #
edge $-1 $367 0 $367 6.2831853071796004 $167 $368 forward 7 unknown #
vertex $-1 $170 $369 #
ellipse-curve $-1 60.493825715241904 -3.4986721418919444 7.5459114350018206 0.66913061440640931 0 0.74314481823134659 0.3715724091156733 0 -0.33456530720320465 1 I I #
face $-1 $-1 $370 $36 $-1 $371 reversed single #
loop $-1 $-1 $177 $171 #
plane-surface $-1 0 0 12.489898684616145 0 0 1 1 0 0 forward_v I I I I #
coedge $-1 $372 $373 $374 $375 reversed $172 $-1 #
coedge $-1 $376 $174 $176 $274 forward $108 $-1 #
coedge $-1 $174 $376 $372 $377 forward $108 $-1 #
coedge $-1 $374 $177 $174 $271 forward $265 $-1 #
edge $-1 $277 -8.5048246649429 $378 1.8882347104369845 $270 $379 forward 7 unknown #
coedge $-1 $380 $381 $175 $273 forward $370 $-1 #
edge $-1 $382 -47.735210715142166 $276 -37.847236215913497 $272 $383 forward 7 unknown #
edge $-1 $277 -14.777345837031184 $382 0 $176 $384 forward 7 unknown #
coedge $-1 $177 $374 $380 $385 forward $265 $-1 #
vertex $-1 $273 $386 #
vertex $-1 $178 $387 #
straight-curve $-1 -77.144709128708328 -11.813119642195858 12.489898684616143 1 0 0 I I #
coedge $-1 $279 $279 $-1 $388 reversed $181 $-1 #
edge $-1 $389 0 $389 6.2831853071796004 $182 $390 forward 7 unknown #
vertex $-1 $185 $391 #
ellipse-curve $-1 -60.493825715241904 -9.7345077671198794 7.5459114350018135 -0.66913061440640931 0 0.74314481823134659 0.3715724091156733 0 0.33456530720320465 1 I I #
coedge $-1 $283 $283 $-1 $392 reversed $188 $-1 #
edge $-1 $393 0 $393 6.2831853071796004 $189 $394 forward 7 unknown #
vertex $-1 $192 $395 #
ellipse-curve $-1 -60.493825715241904 -6.6165899545059119 7.5459114350018135 -0.66913061440640931 0 0.74314481823134659 0.3715724091156733 0 0.33456530720320465 1 I I #
coedge $-1 $287 $287 $-1 $396 reversed $195 $-1 #
edge $-1 $397 0 $397 6.2831853071796004 $196 $398 forward 7 unknown #
vertex $-1 $199 $399 #
ellipse-curve $-1 -60.493825715241904 -3.4986721418919444 7.5459114350018135 -0.66913061440640931 0 0.74314481823134659 0.3715724091156733 0 0.33456530720320465 1 I I #
face $-1 $-1 $215 $30 $-1 $400 reversed single #
loop $-1 $-1 $307 $200 #
plane-surface $-1 0 36.857338046328039 0 0 -1 0 0 0 -1 forward_v I I I I #
coedge $-1 $401 $305 $308 $402 forward $201 $-1 #
coedge $-1 $311 $203 $204 $299 reversed $127 $-1 #
coedge $-1 $305 $401 $203 $297 reversed $201 $-1 #
edge $-1 $312 -12.489898684616145 $403 12.489898684616145 $296 $404 forward 7 unknown #
coedge $-1 $205 $204 $401 $405 forward $81 $-1 #
edge $-1 $303 -65.98467970824305 $403 65.98467970824305 $295 $406 forward 7 unknown #
coedge $-1 $308 $307 $205 $301 reversed $292 $-1 #
edge $-1 $407 -65.98467970824305 $302 65.98467970824305 $300 $408 forward 7 unknown #
vertex $-1 $207 $409 #
vertex $-1 $314 $410 #
straight-curve $-1 65.98467970824305 0 -12.489898684616145 0 -1 0 I I #
coedge $-1 $294 $296 $208 $306 reversed $201 $-1 #
edge $-1 $309 -36.857338046328039 $312 36.857338046328039 $305 $411 forward 7 unknown #
coedge $-1 $300 $209 $214 $315 forward $292 $-1 #
coedge $-1 $209 $300 $294 $402 reversed $292 $-1 #
vertex $-1 $210 $412 #
straight-curve $-1 0 36.857338046328039 12.489898684616145 -1 0 0 I I #
coedge $-1 $211 $295 $213 $314 reversed $127 $-1 #
vertex $-1 $306 $413 #
straight-curve $-1 0 -36.857338046328039 12.489898684616145 1 0 0 I I #
edge $-1 $216 -12.489898684616145 $303 12.489898684616145 $213 $414 forward 7 unknown #
edge $-1 $217 -12.489898684616145 $302 12.489898684616145 $214 $415 forward 7 unknown #
point $-1 65.98467970824305 -36.857338046328039 12.489898684616145 #
point $-1 65.98467970824305 36.857338046328039 12.489898684616145 #
face $-1 $-1 $232 $31 $-1 $416 reversed single #
loop $-1 $-1 $325 $219 #
plane-surface $-1 0 0 12.489898684616145 0 0 1 1 0 0 forward_v I I I I #
coedge $-1 $417 $222 $227 $330 forward $135 $-1 #
coedge $-1 $222 $417 $418 $419 reversed $135 $-1 #
coedge $-1 $224 $223 $222 $324 reversed $85 $-1 #
edge $-1 $420 -7.4840477690488791 $335 -2.5276540620856602 $222 $421 forward 7 unknown #
coedge $-1 $418 $422 $224 $326 forward $319 $-1 #
edge $-1 $328 -65.98467970824305 $420 65.98467970824305 $325 $423 forward 7 unknown #
coedge $-1 $231 $225 $422 $424 reversed $232 $-1 #
vertex $-1 $226 $425 #
straight-curve $-1 65.98467970824305 -21.308792124706201 5.0058509155672697 0 0 1 I I #
edge $-1 $335 6.7672595819476413 $333 22.315805503569479 $321 $426 forward 7 unknown #
coedge $-1 $427 $228 $231 $337 reversed $220 $-1 #
coedge $-1 $228 $427 $417 $428 forward $220 $-1 #
vertex $-1 $229 $429 #
straight-curve $-1 0 -36.857338046328039 7.5335049776529299 1 0 0 I I #
vertex $-1 $330 $430 #
straight-curve $-1 0 -21.308792124706201 7.5335049776529299 1 0 0 I I #
edge $-1 $431 -12.489898684616145 $233 -7.5335049776529299 $231 $432 forward 7 unknown #
point $-1 65.98467970824305 -36.857338046328039 7.5335049776529299 #
point $-1 65.98467970824305 -21.308792124706201 7.5335049776529299 #
plane-surface $-1 0 0 12.489898684616145 0 0 1 1 0 0 forward_v I I I I #
coedge $-1 $351 $350 $343 $433 forward $237 $-1 #
coedge $-1 $343 $239 $241 $347 reversed $143 $-1 #
coedge $-1 $239 $342 $341 $433 reversed $143 $-1 #
coedge $-1 $247 $242 $239 $345 forward $248 $-1 #
edge $-1 $348 26.894435401368355 $434 37.876143387370632 $344 $435 forward 7 unknown #
coedge $-1 $241 $240 $351 $436 reversed $89 $-1 #
edge $-1 $437 -131.96935941648613 $348 -117.19201357945494 $342 $438 forward 7 unknown #
vertex $-1 $243 $439 #
straight-curve $-1 55.002971722240801 -3.3082949772529577 12.489898684616136 0 -1 0 I I #
coedge $-1 $341 $244 $247 $355 reversed $237 $-1 #
coedge $-1 $244 $341 $346 $436 forward $237 $-1 #
vertex $-1 $245 $440 #
straight-curve $-1 65.98467970824305 -1.4200602668159732 94.489504175116451 0 0 1 I I #
straight-curve $-1 -32.087665907428772 -1.4200602668159732 90.906662734561095 0.74314481823134659 0 -0.66913061440640931 I I #
edge $-1 $434 -11.813119642195858 $249 -1.4200602668159732 $350 $441 forward 7 unknown #
point $-1 65.98467970824305 -1.4200602668159732 12.489898684616145 #
point $-1 55.002971722240773 -1.4200602668159732 12.489898684616151 #
edge $-1 $442 1 $442 0 $252 $-1 forward 7 unknown #
vertex $-1 $253 $443 #
ellipse-curve $-1 59.525008637878216 -9.7345077671198794 6.4699310877335128 0.66913061440640931 0 0.74314481823134659 0.3715724091156733 0 -0.33456530720320465 1 I I #
point $-1 60.865398124357576 -9.7345077671198794 7.2113461277986151 #
edge $-1 $444 1 $444 0 $256 $-1 forward 7 unknown #
vertex $-1 $257 $445 #
ellipse-curve $-1 59.525008637878216 -6.6165899545059119 6.4699310877335128 0.66913061440640931 0 0.74314481823134659 0.3715724091156733 0 -0.33456530720320465 1 I I #
point $-1 60.865398124357576 -6.6165899545059119 7.2113461277986151 #
edge $-1 $446 1 $446 0 $260 $-1 forward 7 unknown #
vertex $-1 $261 $447 #
ellipse-curve $-1 59.525008637878216 -3.4986721418919444 6.4699310877335128 0.66913061440640931 0 0.74314481823134659 0.3715724091156733 0 -0.33456530720320465 1 I I #
point $-1 60.865398124357576 -3.4986721418919444 7.2113461277986151 #
loop $-1 $-1 $272 $264 #
plane-surface $-1 -65.98467970824305 0 0 1 0 0 0 0 -1 forward_v I I I I #
coedge $-1 $373 $267 $269 $377 reversed $172 $-1 #
coedge $-1 $267 $372 $448 $449 reversed $172 $-1 #
coedge $-1 $275 $270 $267 $375 forward $265 $-1 #
edge $-1 $378 -22.141737406467563 $450 -11.160029420465278 $374 $451 forward 7 unknown #
coedge $-1 $269 $268 $381 $452 reversed $108 $-1 #
edge $-1 $453 0 $378 14.777345837031184 $372 $454 forward 7 unknown #
vertex $-1 $271 $455 #
straight-curve $-1 -55.002971722240765 -3.3082949772529577 12.489898684616143 0 1 0 I I #
coedge $-1 $448 $272 $275 $385 reversed $370 $-1 #
coedge $-1 $272 $448 $376 $452 forward $370 $-1 #
vertex $-1 $273 $456 #
straight-curve $-1 -65.98467970824305 -11.813119642195858 50.337134900529641 0 0 1 I I #
straight-curve $-1 -65.98467970824305 -11.813119642195858 2.6019241853874746 -0.74314481823134659 0 -0.66913061440640931 I I #
edge $-1 $450 1.4200602668159732 $276 11.813119642195858 $380 $457 forward 7 unknown #
point $-1 -65.98467970824305 -11.813119642195858 12.489898684616145 #
point $-1 -55.002971722240765 -11.813119642195858 12.489898684616145 #
edge $-1 $458 1 $458 0 $279 $-1 forward 7 unknown #
vertex $-1 $280 $459 #
ellipse-curve $-1 -59.525008637878216 -9.7345077671198794 6.4699310877335057 -0.66913061440640931 0 0.74314481823134659 0.3715724091156733 0 0.33456530720320465 1 I I #
point $-1 -60.122253306126233 -9.7345077671198794 7.8804767422050173 #
edge $-1 $460 1 $460 0 $283 $-1 forward 7 unknown #
vertex $-1 $284 $461 #
ellipse-curve $-1 -59.525008637878216 -6.6165899545059119 6.4699310877335057 -0.66913061440640931 0 0.74314481823134659 0.3715724091156733 0 0.33456530720320465 1 I I #
point $-1 -60.122253306126233 -6.6165899545059119 7.8804767422050173 #
edge $-1 $462 1 $462 0 $287 $-1 forward 7 unknown #
vertex $-1 $288 $463 #
ellipse-curve $-1 -59.525008637878216 -3.4986721418919444 6.4699310877335057 -0.66913061440640931 0 0.74314481823134659 0.3715724091156733 0 0.33456530720320465 1 I I #
point $-1 -60.122253306126233 -3.4986721418919444 7.8804767422050173 #
plane-surface $-1 65.98467970824305 0 0 -1 0 0 0 0 1 forward_v I I I I #
coedge $-1 $296 $294 $298 $405 reversed $201 $-1 #
edge $-1 $309 -12.489898684616145 $407 12.489898684616145 $308 $464 forward 7 unknown #
vertex $-1 $405 $465 #
straight-curve $-1 -65.98467970824305 -36.857338046328039 0 0 0 -1 I I #
edge $-1 $403 -36.857338046328039 $407 36.857338046328039 $401 $466 forward 7 unknown #
straight-curve $-1 0 -36.857338046328039 -12.489898684616145 -1 0 0 I I #
vertex $-1 $301 $467 #
straight-curve $-1 0 36.857338046328039 -12.489898684616145 1 0 0 I I #
point $-1 65.98467970824305 36.857338046328039 -12.489898684616145 #
point $-1 65.98467970824305 -36.857338046328039 -12.489898684616145 #
straight-curve $-1 -65.98467970824305 0 12.489898684616145 0 -1 0 I I #
point $-1 -65.98467970824305 36.857338046328039 12.489898684616145 #
point $-1 -65.98467970824305 -36.857338046328039 12.489898684616145 #
straight-curve $-1 65.98467970824305 -36.857338046328039 0 0 0 -1 I I #
straight-curve $-1 65.98467970824305 36.857338046328039 0 0 0 -1 I I #
plane-surface $-1 65.98467970824305 0 0 -1 0 0 0 0 1 forward_v I I I I #
coedge $-1 $322 $321 $332 $428 reversed $135 $-1 #
coedge $-1 $468 $325 $322 $419 forward $319 $-1 #
edge $-1 $420 21.308792124706201 $469 36.857338046328039 $322 $470 forward 7 unknown #
vertex $-1 $419 $471 #
straight-curve $-1 -65.98467970824305 -21.308792124706201 5.0058509155672697 0 0 -1 I I #
coedge $-1 $325 $468 $327 $424 forward $319 $-1 #
straight-curve $-1 0 -21.308792124706201 12.489898684616145 -1 0 0 I I #
edge $-1 $431 -36.857338046328039 $328 -21.308792124706201 $327 $472 forward 7 unknown #
point $-1 65.98467970824305 -21.308792124706201 12.489898684616149 #
straight-curve $-1 -65.98467970824305 -14.54153254275856 7.5335049776529299 0 -1 0 I I #
coedge $-1 $332 $331 $468 $473 reversed $220 $-1 #
edge $-1 $469 -12.489898684616145 $333 -7.5335049776529299 $417 $474 forward 7 unknown #
point $-1 -65.98467970824305 -36.857338046328039 7.5335049776529299 #
point $-1 -65.98467970824305 -21.308792124706201 7.5335049776529299 #
vertex $-1 $424 $475 #
straight-curve $-1 65.98467970824305 -36.857338046328039 0 0 0 -1 I I #
edge $-1 $434 81.999605490500301 $437 91.887579989728977 $341 $476 forward 7 unknown #
vertex $-1 $355 $477 #
straight-curve $-1 28.108536320872417 -11.813119642195858 12.489898684616151 1 0 0 I I #
edge $-1 $437 -8.5048246649429 $352 1.8882347104369845 $351 $478 forward 7 unknown #
vertex $-1 $436 $479 #
straight-curve $-1 -32.087665907428772 -11.813119642195858 90.906662734561095 -0.74314481823134659 0 0.66913061440640931 I I #
point $-1 55.002971722240773 -11.813119642195858 12.489898684616151 #
point $-1 65.984679708243064 -1.4200602668159732 2.6019241853874746 #
straight-curve $-1 65.98467970824305 0 12.489898684616145 0 1 0 I I #
vertex $-1 $358 $480 #
point $-1 59.896581046993887 -9.7345077671198794 6.1353657805303081 #
vertex $-1 $362 $481 #
point $-1 59.896581046993887 -6.6165899545059119 6.1353657805303081 #
vertex $-1 $366 $482 #
point $-1 59.896581046993887 -3.4986721418919444 6.1353657805303081 #
coedge $-1 $381 $380 $373 $449 forward $370 $-1 #
edge $-1 $450 37.847236215913497 $453 47.735210715142166 $448 $483 forward 7 unknown #
vertex $-1 $385 $484 #
straight-curve $-1 -77.144709128708328 -1.4200602668159732 12.489898684616143 -1 0 0 I I #
edge $-1 $453 -1.8882347104369845 $382 8.5048246649429 $381 $485 forward 7 unknown #
vertex $-1 $452 $486 #
straight-curve $-1 -65.98467970824305 -1.4200602668159732 2.6019241853874746 0.74314481823134659 0 0.66913061440640931 I I #
point $-1 -55.002971722240765 -1.4200602668159732 12.489898684616145 #
point $-1 -65.98467970824305 -11.813119642195858 2.6019241853874746 #
straight-curve $-1 -65.98467970824305 0 12.489898684616145 0 -1 0 I I #
vertex $-1 $388 $487 #
point $-1 -59.153436228762544 -9.7345077671198794 6.8044963949367103 #
vertex $-1 $392 $488 #
point $-1 -59.153436228762544 -6.6165899545059119 6.8044963949367103 #
vertex $-1 $396 $489 #
point $-1 -59.153436228762544 -3.4986721418919444 6.8044963949367103 #
straight-curve $-1 -65.98467970824305 36.857338046328039 0 0 0 -1 I I #
point $-1 -65.98467970824305 -36.857338046328039 -12.489898684616145 #
straight-curve $-1 -65.98467970824305 0 -12.489898684616145 0 1 0 I I #
point $-1 -65.98467970824305 36.857338046328039 -12.489898684616145 #
coedge $-1 $422 $418 $427 $473 forward $319 $-1 #
vertex $-1 $419 $490 #
straight-curve $-1 -65.98467970824305 0 12.489898684616145 0 -1 0 I I #
point $-1 -65.98467970824305 -21.308792124706201 12.489898684616149 #
straight-curve $-1 65.98467970824305 0 12.489898684616145 0 1 0 I I #
edge $-1 $469 -65.98467970824305 $431 65.98467970824305 $427 $491 forward 7 unknown #
straight-curve $-1 -65.98467970824305 -36.857338046328039 0 0 0 -1 I I #
point $-1 65.98467970824305 -36.857338046328039 12.489898684616145 #
straight-curve $-1 65.98467970824305 -11.813119642195858 94.489504175116451 0 0 -1 I I #
point $-1 65.98467970824305 -11.813119642195858 12.489898684616145 #
straight-curve $-1 65.98467970824305 -3.3082949772529577 2.6019241853874817 0 1 0 I I #
point $-1 65.984679708243064 -11.813119642195858 2.6019241853874746 #
point $-1 59.190443330675009 -9.7345077671198794 6.0983586786178394 #
point $-1 59.190443330675009 -6.6165899545059119 6.0983586786178394 #
point $-1 59.190443330675009 -3.4986721418919444 6.0983586786178394 #
straight-curve $-1 -65.98467970824305 -1.4200602668159732 50.337134900529641 0 0 -1 I I #
point $-1 -65.98467970824305 -1.4200602668159732 12.489898684616145 #
straight-curve $-1 -65.98467970824305 -3.3082949772529577 2.6019241853874702 0 -1 0 I I #
point $-1 -65.98467970824305 -1.4200602668159732 2.6019241853874746 #
point $-1 -59.190443330675009 -9.7345077671198794 6.0983586786178323 #
point $-1 -59.190443330675009 -6.6165899545059119 6.0983586786178323 #
point $-1 -59.190443330675009 -3.4986721418919444 6.0983586786178323 #
point $-1 -65.98467970824305 -36.857338046328039 12.489898684616145 #
straight-curve $-1 0 -36.857338046328039 12.489898684616145 1 0 0 I I #
End-of-ACIS-data 