500 0 7 0           
7 Unknown 11 ACIS 5.0 NT 24 Fri Mar 26 14:56:14 1999 
-1 9.9999999999999995e-007 1e-010 
body $-1 $7 $-1 $8 #
body $-1 $9 $-1 $10 #
body $-1 $11 $-1 $12 #
body $-1 $13 $-1 $14 #
body $-1 $15 $-1 $16 #
body $-1 $17 $-1 $18 #
body $-1 $19 $-1 $20 #
lump $-1 $-1 $21 $0 #
transform $-1 1 0 0 0 1 0 0 0 1 73.091830195013273 41.687125773902601 15.423485921267616 1 rotate no_reflect no_shear #
lump $-1 $-1 $22 $1 #
transform $-1 1 0 0 0 1 0 0 0 1 73.091830195013273 41.687125773902601 15.423485921267616 1 rotate no_reflect no_shear #
lump $-1 $-1 $23 $2 #
transform $-1 1 0 0 0 1 0 0 0 1 73.091830195013273 41.687125773902601 15.423485921267616 1 rotate no_reflect no_shear #
lump $-1 $-1 $24 $3 #
transform $-1 1 0 0 0 1 0 0 0 1 73.091830195013273 41.687125773902601 15.423485921267616 1 rotate no_reflect no_shear #
lump $-1 $-1 $25 $4 #
transform $-1 1 0 0 0 1 0 0 0 1 73.091830195013273 41.687125773902601 15.423485921267616 1 rotate no_reflect no_shear #
lump $-1 $-1 $26 $5 #
transform $-1 1 0 0 0 1 0 0 0 1 73.091830195013273 41.687125773902601 15.423485921267616 1 rotate no_reflect no_shear #
lump $-1 $-1 $27 $6 #
transform $-1 1 0 0 0 1 0 0 0 1 73.091830195013273 41.687125773902601 15.423485921267616 1 rotate no_reflect no_shear #
shell $-1 $-1 $-1 $28 $-1 $7 #
shell $-1 $-1 $-1 $29 $-1 $9 #
shell $-1 $-1 $-1 $30 $-1 $11 #
shell $-1 $-1 $-1 $31 $-1 $13 #
shell $-1 $-1 $-1 $32 $-1 $15 #
shell $-1 $-1 $-1 $33 $-1 $17 #
shell $-1 $-1 $-1 $34 $-1 $19 #
face $-1 $35 $36 $21 $-1 $37 forward single #
face $-1 $38 $39 $22 $-1 $40 forward single #
face $-1 $41 $42 $23 $-1 $43 forward single #
face $-1 $44 $45 $24 $-1 $46 reversed single #
face $-1 $47 $48 $25 $-1 $49 forward single #
face $-1 $50 $51 $26 $-1 $52 reversed single #
face $-1 $53 $54 $27 $-1 $55 forward single #
face $-1 $56 $57 $21 $-1 $58 reversed single #
loop $-1 $-1 $59 $28 #
plane-surface $-1 0 0 15.423485921267616 0 0 1 1 0 0 forward_v I I I I #
face $-1 $60 $61 $22 $-1 $62 forward single #
loop $-1 $-1 $63 $29 #
plane-surface $-1 0 -41.687125773902601 0 0 1 0 0 0 1 forward_v I I I I #
face $-1 $64 $65 $23 $-1 $66 forward single #
loop $-1 $-1 $67 $30 #
plane-surface $-1 0 41.687125773902601 0 0 -1 0 0 0 -1 forward_v I I I I #
face $-1 $68 $69 $24 $-1 $70 reversed single #
loop $-1 $-1 $71 $31 #
plane-surface $-1 -183.41804037505304 -13.693412624778615 108.12575156122234 0 1 0 -0.75470958851134928 0 0.65605901945558964 forward_v I I I I #
face $-1 $72 $73 $25 $-1 $74 forward single #
loop $-1 $75 $76 $32 #
cone-surface $-1 -70.470577290172201 -8.09305555265545 12.753573261695299 0.75470958851134928 0 -0.65605901945558964 0.65605901945558964 0 0.75470958851134928 1 I I 0 1 1 forward I I I I #
face $-1 $77 $78 $26 $-1 $79 reversed single #
loop $-1 $-1 $80 $33 #
plane-surface $-1 -183.41804037505304 14.422702408748849 108.12575156122234 0 1 0 -0.75470958851134928 0 0.65605901945558964 forward_v I I I I #
face $-1 $81 $82 $27 $-1 $83 forward single #
loop $-1 $84 $85 $34 #
cone-surface $-1 -70.470577290172201 20.023059480872014 12.753573261695299 0.75470958851134928 0 -0.65605901945558964 0.65605901945558964 0 0.75470958851134928 1 I I 0 1 1 forward I I I I #
face $-1 $86 $87 $21 $-1 $88 reversed single #
loop $-1 $-1 $89 $35 #
plane-surface $-1 0 0 -15.423485921267616 0 0 1 1 0 0 forward_v I I I I #
coedge $-1 $90 $91 $92 $93 forward $36 $-1 #
face $-1 $94 $95 $22 $-1 $96 reversed single #
loop $-1 $-1 $97 $38 #
plane-surface $-1 0 0 15.423485921267616 0 0 1 1 0 0 forward_v I I I I #
coedge $-1 $98 $99 $100 $101 forward $39 $-1 #
face $-1 $102 $103 $23 $-1 $104 reversed single #
loop $-1 $-1 $105 $41 #
plane-surface $-1 0 0 15.423485921267616 0 0 1 1 0 0 forward_v I I I I #
coedge $-1 $106 $107 $108 $109 forward $42 $-1 #
face $-1 $110 $111 $24 $-1 $112 reversed single #
loop $-1 $-1 $113 $44 #
plane-surface $-1 -73.091830195013273 -8.09305555265545 12.22064266531261 -0.75470958851134928 0 0.65605901945558964 0.65605901945558964 0 0.75470958851134928 forward_v I I I I #
coedge $-1 $114 $115 $116 $117 reversed $45 $-1 #
face $-1 $-1 $118 $25 $-1 $119 forward single #
loop $-1 $120 $121 $47 #
cone-surface $-1 -68.864064138407542 -8.09305555265545 11.3570527203727 0.75470958851134928 0 -0.65605901945558964 0.32802950972779482 0 0.37735479425567464 1 I I -0.70710678118654746 0.70710678118654746 0.5 forward I I I I #
loop $-1 $-1 $122 $32 #
coedge $-1 $76 $76 $123 $124 reversed $48 $-1 #
face $-1 $125 $126 $26 $-1 $127 reversed single #
loop $-1 $-1 $128 $50 #
plane-surface $-1 -73.091830195013273 20.023059480872014 12.22064266531261 -0.75470958851134928 0 0.65605901945558964 0.65605901945558964 0 0.75470958851134928 forward_v I I I I #
coedge $-1 $129 $130 $131 $132 reversed $51 $-1 #
face $-1 $-1 $133 $27 $-1 $134 forward single #
loop $-1 $135 $136 $53 #
cone-surface $-1 -68.864064138407542 20.023059480872014 11.3570527203727 0.75470958851134928 0 -0.65605901945558964 0.32802950972779482 0 0.37735479425567464 1 I I -0.70710678118654746 0.70710678118654746 0.5 forward I I I I #
loop $-1 $-1 $137 $34 #
coedge $-1 $85 $85 $138 $139 reversed $54 $-1 #
face $-1 $140 $141 $21 $-1 $142 reversed single #
loop $-1 $-1 $143 $56 #
plane-surface $-1 0 -41.687125773902601 0 0 1 0 0 0 1 forward_v I I I I #
coedge $-1 $144 $145 $146 $147 forward $57 $-1 #
coedge $-1 $148 $59 $149 $150 forward $36 $-1 #
coedge $-1 $59 $148 $151 $152 forward $36 $-1 #
coedge $-1 $153 $154 $59 $93 reversed $155 $-1 #
edge $-1 $156 -41.687125773902601 $157 41.687125773902601 $92 $158 forward 7 unknown #
face $-1 $159 $160 $22 $-1 $161 reversed single #
loop $-1 $-1 $162 $60 #
plane-surface $-1 -73.091830195013273 0 0 1 0 0 0 0 -1 forward_v I I I I #
coedge $-1 $163 $164 $99 $165 forward $61 $-1 #
coedge $-1 $166 $63 $167 $168 reversed $39 $-1 #
coedge $-1 $63 $166 $97 $165 reversed $39 $-1 #
coedge $-1 $169 $170 $63 $101 reversed $171 $-1 #
edge $-1 $172 -15.423485921267616 $173 15.423485921267616 $100 $174 forward 7 unknown #
face $-1 $175 $176 $23 $-1 $177 reversed single #
loop $-1 $-1 $178 $64 #
plane-surface $-1 -69.25810523444477 55.25813651427773 0 0 -1 0 0 0 -1 forward_v I I I I #
coedge $-1 $179 $180 $106 $181 forward $65 $-1 #
coedge $-1 $182 $67 $105 $181 reversed $42 $-1 #
coedge $-1 $67 $182 $183 $184 reversed $42 $-1 #
coedge $-1 $185 $186 $67 $109 reversed $176 $-1 #
edge $-1 $187 -15.423485921267616 $188 15.423485921267616 $108 $189 forward 7 unknown #
face $-1 $190 $191 $24 $-1 $192 reversed single #
loop $-1 $-1 $193 $68 #
plane-surface $-1 -183.41804037505304 -2.4926984805322849 108.12575156122234 0 -1 0 0.75470958851134928 0 -0.65605901945558964 forward_v I I I I #
coedge $-1 $194 $195 $196 $197 reversed $69 $-1 #
coedge $-1 $115 $71 $198 $199 reversed $45 $-1 #
coedge $-1 $71 $114 $194 $200 reversed $45 $-1 #
coedge $-1 $196 $201 $71 $117 forward $202 $-1 #
edge $-1 $203 18.617189992513246 $204 21.401379087177432 $116 $205 forward 7 unknown #
loop $-1 $-1 $123 $72 #
plane-surface $-1 -73.091830195013273 -8.09305555265545 12.22064266531261 -0.75470958851134928 0 0.65605901945558964 0.65605901945558964 0 0.75470958851134928 forward_v I I I I #
loop $-1 $-1 $206 $47 #
coedge $-1 $121 $121 $122 $207 reversed $73 $-1 #
coedge $-1 $122 $122 $121 $207 forward $75 $-1 #
coedge $-1 $123 $123 $76 $124 forward $118 $-1 #
edge $-1 $208 0 $208 6.2831853071796004 $123 $209 forward 7 unknown #
face $-1 $210 $211 $26 $-1 $212 forward single #
loop $-1 $-1 $213 $77 #
plane-surface $-1 -183.41804037505304 25.623416552995181 108.12575156122234 0 -1 0 0.75470958851134928 0 -0.65605901945558964 forward_v I I I I #
coedge $-1 $214 $215 $216 $217 reversed $78 $-1 #
coedge $-1 $130 $80 $218 $219 reversed $51 $-1 #
coedge $-1 $80 $129 $214 $220 reversed $51 $-1 #
coedge $-1 $216 $221 $80 $132 forward $211 $-1 #
edge $-1 $222 18.617189992513246 $223 21.401379087177432 $131 $224 forward 7 unknown #
loop $-1 $-1 $138 $81 #
plane-surface $-1 -73.091830195013273 20.023059480872014 12.22064266531261 -0.75470958851134928 0 0.65605901945558964 0.65605901945558964 0 0.75470958851134928 forward_v I I I I #
loop $-1 $-1 $225 $53 #
coedge $-1 $136 $136 $137 $226 reversed $82 $-1 #
coedge $-1 $137 $137 $136 $226 forward $84 $-1 #
coedge $-1 $138 $138 $85 $139 forward $133 $-1 #
edge $-1 $227 0 $227 6.2831853071796004 $138 $228 forward 7 unknown #
face $-1 $229 $230 $21 $-1 $231 reversed single #
loop $-1 $-1 $232 $86 #
plane-surface $-1 -73.091830195013273 0 0 1 0 0 0 0 -1 forward_v I I I I #
coedge $-1 $233 $151 $234 $235 forward $87 $-1 #
coedge $-1 $236 $89 $233 $237 forward $57 $-1 #
coedge $-1 $89 $236 $238 $239 forward $57 $-1 #
coedge $-1 $154 $153 $89 $147 reversed $155 $-1 #
edge $-1 $240 -41.687125773902601 $241 41.687125773902601 $146 $242 forward 7 unknown #
coedge $-1 $91 $90 $243 $244 forward $36 $-1 #
coedge $-1 $245 $246 $90 $150 reversed $230 $-1 #
edge $-1 $157 -73.091830195013273 $247 73.091830195013273 $149 $248 forward 7 unknown #
coedge $-1 $143 $249 $91 $152 reversed $87 $-1 #
edge $-1 $250 -73.091830195013273 $156 73.091830195013273 $151 $251 forward 7 unknown #
coedge $-1 $146 $92 $249 $252 forward $155 $-1 #
coedge $-1 $92 $146 $245 $253 reversed $155 $-1 #
loop $-1 $-1 $153 $229 #
vertex $-1 $93 $254 #
vertex $-1 $93 $255 #
straight-curve $-1 73.091830195013273 0 15.423485921267616 0 1 0 I I #
face $-1 $256 $171 $22 $-1 $257 reversed single #
loop $-1 $-1 $258 $94 #
plane-surface $-1 -69.25810523444477 -55.25813651427773 0 0 1 0 0 0 1 forward_v I I I I #
coedge $-1 $259 $260 $166 $261 forward $95 $-1 #
coedge $-1 $262 $97 $260 $263 forward $61 $-1 #
coedge $-1 $97 $262 $169 $264 forward $61 $-1 #
edge $-1 $172 65.424380273876267 $265 73.091830195013273 $97 $266 forward 7 unknown #
coedge $-1 $99 $98 $162 $261 reversed $39 $-1 #
coedge $-1 $267 $268 $98 $168 forward $269 $-1 #
edge $-1 $270 -73.091830195013273 $173 -65.424380273876267 $167 $271 forward 7 unknown #
coedge $-1 $272 $100 $164 $264 reversed $171 $-1 #
coedge $-1 $100 $272 $267 $273 reversed $171 $-1 #
loop $-1 $-1 $272 $159 #
vertex $-1 $165 $274 #
vertex $-1 $273 $275 #
straight-curve $-1 -65.424380273876267 -41.687125773902601 0 0 0 -1 I I #
face $-1 $276 $277 $23 $-1 $278 reversed single #
loop $-1 $-1 $108 $102 #
plane-surface $-1 -65.424380273876267 48.472631144090165 0 -1 0 0 0 0 1 forward_v I I I I #
coedge $-1 $279 $280 $281 $282 forward $103 $-1 #
coedge $-1 $283 $105 $186 $284 forward $65 $-1 #
coedge $-1 $105 $283 $285 $286 forward $65 $-1 #
edge $-1 $287 -73.091830195013273 $188 -65.424380273876267 $105 $288 forward 7 unknown #
coedge $-1 $107 $106 $289 $290 reversed $42 $-1 #
coedge $-1 $291 $292 $107 $184 forward $277 $-1 #
edge $-1 $187 65.424380273876267 $293 73.091830195013273 $183 $294 forward 7 unknown #
coedge $-1 $281 $108 $292 $295 reversed $176 $-1 #
coedge $-1 $108 $281 $179 $284 reversed $176 $-1 #
vertex $-1 $184 $296 #
vertex $-1 $284 $297 #
straight-curve $-1 -65.424380273876267 41.687125773902601 0 0 0 1 I I #
face $-1 $-1 $202 $24 $-1 $298 forward single #
loop $-1 $-1 $299 $110 #
plane-surface $-1 -73.091830195013273 0 0 1 0 0 0 0 -1 forward_v I I I I #
coedge $-1 $300 $301 $302 $303 reversed $111 $-1 #
coedge $-1 $304 $113 $115 $200 forward $69 $-1 #
coedge $-1 $113 $304 $300 $305 forward $69 $-1 #
coedge $-1 $302 $116 $113 $197 forward $202 $-1 #
edge $-1 $204 -9.64688484845089 $306 1.55382929579544 $196 $307 forward 7 unknown #
coedge $-1 $308 $309 $114 $199 forward $191 $-1 #
edge $-1 $310 -41.842233115298562 $203 -38.639389859343552 $198 $311 forward 7 unknown #
edge $-1 $204 -4.2438088831924858 $310 0 $115 $312 forward 7 unknown #
coedge $-1 $116 $302 $308 $313 forward $202 $-1 #
loop $-1 $-1 $302 $190 #
vertex $-1 $199 $314 #
vertex $-1 $117 $315 #
straight-curve $-1 -91.709020187526519 -13.693412624778615 15.423485921267613 1 0 0 I I #
coedge $-1 $206 $206 $-1 $316 reversed $120 $-1 #
edge $-1 $317 0 $317 6.2831853071796004 $121 $318 forward 7 unknown #
vertex $-1 $124 $319 #
ellipse-curve $-1 -71.69973564768118 -8.09305555265545 13.822064293290111 -0.75470958851134928 0 0.65605901945558964 0.65605901945558964 0 0.75470958851134928 1 I I #
face $-1 $-1 $320 $26 $-1 $321 reversed single #
loop $-1 $-1 $131 $125 #
plane-surface $-1 0 0 15.423485921267616 0 0 1 1 0 0 forward_v I I I I #
coedge $-1 $322 $323 $324 $325 reversed $126 $-1 #
coedge $-1 $326 $128 $130 $220 forward $78 $-1 #
coedge $-1 $128 $326 $322 $327 forward $78 $-1 #
coedge $-1 $324 $131 $128 $217 forward $211 $-1 #
edge $-1 $223 4.411172668312842 $328 15.611886812559174 $216 $329 forward 7 unknown #
coedge $-1 $330 $331 $129 $219 forward $320 $-1 #
edge $-1 $332 -41.842233115298562 $222 -38.639389859343552 $218 $333 forward 7 unknown #
edge $-1 $223 -4.2438088831924858 $332 0 $130 $334 forward 7 unknown #
coedge $-1 $131 $324 $330 $335 forward $211 $-1 #
vertex $-1 $219 $336 #
vertex $-1 $132 $337 #
straight-curve $-1 -91.709020187526519 14.422702408748849 15.423485921267613 1 0 0 I I #
coedge $-1 $225 $225 $-1 $338 reversed $135 $-1 #
edge $-1 $339 0 $339 6.2831853071796004 $136 $340 forward 7 unknown #
vertex $-1 $139 $341 #
ellipse-curve $-1 -71.69973564768118 20.023059480872014 13.822064293290111 -0.75470958851134928 0 0.65605901945558964 0.65605901945558964 0 0.75470958851134928 1 I I #
face $-1 $-1 $155 $21 $-1 $342 reversed single #
loop $-1 $-1 $245 $140 #
plane-surface $-1 0 41.687125773902601 0 0 -1 0 0 0 -1 forward_v I I I I #
coedge $-1 $343 $243 $246 $344 forward $141 $-1 #
coedge $-1 $249 $143 $144 $237 reversed $87 $-1 #
coedge $-1 $243 $343 $143 $235 reversed $141 $-1 #
edge $-1 $250 -15.423485921267616 $345 15.423485921267616 $234 $346 forward 7 unknown #
coedge $-1 $145 $144 $343 $347 forward $57 $-1 #
edge $-1 $241 -73.091830195013273 $345 73.091830195013273 $233 $348 forward 7 unknown #
coedge $-1 $246 $245 $145 $239 reversed $230 $-1 #
edge $-1 $349 -73.091830195013273 $240 73.091830195013273 $238 $350 forward 7 unknown #
vertex $-1 $147 $351 #
vertex $-1 $252 $352 #
straight-curve $-1 73.091830195013273 0 -15.423485921267616 0 -1 0 I I #
coedge $-1 $232 $234 $148 $244 reversed $141 $-1 #
edge $-1 $247 -41.687125773902601 $250 41.687125773902601 $243 $353 forward 7 unknown #
coedge $-1 $238 $149 $154 $253 forward $230 $-1 #
coedge $-1 $149 $238 $232 $344 reversed $230 $-1 #
vertex $-1 $150 $354 #
straight-curve $-1 0 41.687125773902601 15.423485921267616 -1 0 0 I I #
coedge $-1 $151 $233 $153 $252 reversed $87 $-1 #
vertex $-1 $244 $355 #
straight-curve $-1 0 -41.687125773902601 15.423485921267616 1 0 0 I I #
edge $-1 $156 -15.423485921267616 $241 15.423485921267616 $153 $356 forward 7 unknown #
edge $-1 $157 -15.423485921267616 $240 15.423485921267616 $154 $357 forward 7 unknown #
point $-1 73.091830195013273 -41.687125773902601 15.423485921267616 #
point $-1 73.091830195013273 41.687125773902601 15.423485921267616 #
face $-1 $-1 $269 $22 $-1 $358 reversed single #
plane-surface $-1 -65.424380273876267 -48.472631144090165 0 -1 0 0 0 0 1 forward_v I I I I #
coedge $-1 $359 $360 $361 $362 forward $160 $-1 #
coedge $-1 $361 $162 $268 $363 reversed $95 $-1 #
coedge $-1 $162 $361 $163 $263 reversed $95 $-1 #
edge $-1 $265 -15.423485921267616 $270 15.423485921267616 $162 $364 forward 7 unknown #
coedge $-1 $164 $163 $360 $365 forward $61 $-1 #
edge $-1 $265 41.687125773902601 $366 55.25813651427773 $260 $367 forward 7 unknown #
edge $-1 $368 -6.7855053701875647 $172 6.7855053701875647 $169 $369 forward 7 unknown #
vertex $-1 $263 $370 #
straight-curve $-1 0 -41.687125773902601 15.423485921267616 -1 0 0 I I #
coedge $-1 $371 $167 $170 $273 forward $269 $-1 #
coedge $-1 $167 $371 $259 $363 forward $269 $-1 #
loop $-1 $-1 $167 $256 #
vertex $-1 $261 $372 #
straight-curve $-1 0 -41.687125773902601 -15.423485921267616 1 0 0 I I #
coedge $-1 $170 $169 $373 $374 forward $171 $-1 #
edge $-1 $173 -6.7855053701875647 $375 6.7855053701875647 $170 $376 forward 7 unknown #
point $-1 -65.424380273876267 -41.687125773902601 15.423485921267616 #
point $-1 -65.424380273876267 -41.687125773902601 -15.423485921267616 #
face $-1 $-1 $377 $23 $-1 $378 reversed single #
loop $-1 $-1 $183 $175 #
plane-surface $-1 0 0 -15.423485921267616 0 0 1 1 0 0 forward_v I I I I #
coedge $-1 $379 $178 $380 $381 reversed $103 $-1 #
coedge $-1 $178 $379 $283 $382 reversed $103 $-1 #
coedge $-1 $186 $185 $178 $282 reversed $176 $-1 #
edge $-1 $383 -15.423485921267616 $384 15.423485921267616 $281 $385 forward 7 unknown #
coedge $-1 $180 $179 $280 $382 forward $65 $-1 #
edge $-1 $188 -6.7855053701875647 $383 6.7855053701875647 $186 $386 forward 7 unknown #
coedge $-1 $387 $289 $180 $286 reversed $377 $-1 #
edge $-1 $388 -55.25813651427773 $287 -41.687125773902601 $285 $389 forward 7 unknown #
vertex $-1 $290 $390 #
straight-curve $-1 0 41.687125773902601 15.423485921267616 1 0 0 I I #
coedge $-1 $285 $391 $182 $290 forward $377 $-1 #
edge $-1 $293 -15.423485921267616 $287 15.423485921267616 $289 $392 forward 7 unknown #
coedge $-1 $380 $183 $391 $393 forward $277 $-1 #
coedge $-1 $183 $380 $185 $295 forward $277 $-1 #
vertex $-1 $393 $394 #
straight-curve $-1 0 41.687125773902601 -15.423485921267616 -1 0 0 I I #
edge $-1 $384 -6.7855053701875647 $187 6.7855053701875647 $185 $395 forward 7 unknown #
point $-1 -65.424380273876267 41.687125773902601 -15.423485921267616 #
point $-1 -65.424380273876267 41.687125773902601 15.423485921267616 #
plane-surface $-1 0 0 15.423485921267616 0 0 1 1 0 0 forward_v I I I I #
coedge $-1 $309 $308 $301 $396 forward $191 $-1 #
coedge $-1 $301 $193 $195 $305 reversed $111 $-1 #
coedge $-1 $193 $300 $299 $396 reversed $111 $-1 #
coedge $-1 $201 $196 $193 $303 forward $202 $-1 #
edge $-1 $306 -21.401379087177432 $397 -18.617189992513246 $302 $398 forward 7 unknown #
coedge $-1 $195 $194 $309 $399 reversed $69 $-1 #
edge $-1 $400 0 $306 4.2438088831924858 $300 $401 forward 7 unknown #
vertex $-1 $197 $402 #
straight-curve $-1 -70.307641100349088 -4.046527776327725 15.423485921267615 0 1 0 I I #
coedge $-1 $299 $198 $201 $313 reversed $191 $-1 #
coedge $-1 $198 $299 $304 $399 forward $191 $-1 #
vertex $-1 $199 $403 #
straight-curve $-1 -73.091830195013273 -13.693412624778615 54.062875780611172 0 0 1 I I #
straight-curve $-1 -73.091830195013273 -13.693412624778615 12.22064266531261 -0.65605901945558964 0 -0.75470958851134928 I I #
edge $-1 $397 2.4926984805322849 $203 13.693412624778615 $308 $404 forward 7 unknown #
point $-1 -73.091830195013273 -13.693412624778615 15.423485921267616 #
point $-1 -70.307641100349088 -13.693412624778615 15.423485921267616 #
edge $-1 $405 1 $405 0 $206 $-1 forward 7 unknown #
vertex $-1 $207 $406 #
ellipse-curve $-1 -69.241418932663223 -8.09305555265545 11.685082230100495 -0.75470958851134928 0 0.65605901945558964 0.65605901945558964 0 0.75470958851134928 1 I I #
point $-1 -71.043676628225583 -8.09305555265545 14.576773881801454 #
loop $-1 $-1 $218 $210 #
plane-surface $-1 -73.091830195013273 0 0 1 0 0 0 0 -1 forward_v I I I I #
coedge $-1 $323 $213 $215 $327 reversed $126 $-1 #
coedge $-1 $213 $322 $407 $408 reversed $126 $-1 #
coedge $-1 $221 $216 $213 $325 forward $211 $-1 #
edge $-1 $328 -21.401379087177432 $409 -18.617189992513246 $324 $410 forward 7 unknown #
coedge $-1 $215 $214 $331 $411 reversed $78 $-1 #
edge $-1 $412 0 $328 4.2438088831924858 $322 $413 forward 7 unknown #
vertex $-1 $217 $414 #
straight-curve $-1 -70.307641100349088 10.011529740436007 15.423485921267615 0 1 0 I I #
coedge $-1 $407 $218 $221 $335 reversed $320 $-1 #
coedge $-1 $218 $407 $326 $411 forward $320 $-1 #
vertex $-1 $219 $415 #
straight-curve $-1 -73.091830195013273 14.422702408748849 54.062875780611172 0 0 1 I I #
straight-curve $-1 -73.091830195013273 14.422702408748849 12.22064266531261 -0.65605901945558964 0 -0.75470958851134928 I I #
edge $-1 $409 -25.623416552995181 $222 -14.422702408748849 $330 $416 forward 7 unknown #
point $-1 -73.091830195013273 14.422702408748849 15.423485921267616 #
point $-1 -70.307641100349088 14.422702408748849 15.423485921267616 #
edge $-1 $417 1 $417 0 $225 $-1 forward 7 unknown #
vertex $-1 $226 $418 #
ellipse-curve $-1 -69.241418932663223 20.023059480872014 11.685082230100495 -0.75470958851134928 0 0.65605901945558964 0.65605901945558964 0 0.75470958851134928 1 I I #
point $-1 -71.043676628225583 20.023059480872014 14.576773881801454 #
plane-surface $-1 73.091830195013273 0 0 -1 0 0 0 0 1 forward_v I I I I #
coedge $-1 $234 $232 $236 $347 reversed $141 $-1 #
edge $-1 $247 -15.423485921267616 $349 15.423485921267616 $246 $419 forward 7 unknown #
vertex $-1 $347 $420 #
straight-curve $-1 -73.091830195013273 -41.687125773902601 0 0 0 -1 I I #
edge $-1 $345 -41.687125773902601 $349 41.687125773902601 $343 $421 forward 7 unknown #
straight-curve $-1 0 -41.687125773902601 -15.423485921267616 -1 0 0 I I #
vertex $-1 $239 $422 #
straight-curve $-1 0 41.687125773902601 -15.423485921267616 1 0 0 I I #
point $-1 73.091830195013273 41.687125773902601 -15.423485921267616 #
point $-1 73.091830195013273 -41.687125773902601 -15.423485921267616 #
straight-curve $-1 -73.091830195013273 0 15.423485921267616 0 -1 0 I I #
point $-1 -73.091830195013273 41.687125773902601 15.423485921267616 #
point $-1 -73.091830195013273 -41.687125773902601 15.423485921267616 #
straight-curve $-1 73.091830195013273 -41.687125773902601 0 0 0 -1 I I #
straight-curve $-1 73.091830195013273 41.687125773902601 0 0 0 -1 I I #
plane-surface $-1 0 0 -15.423485921267616 0 0 1 1 0 0 forward_v I I I I #
coedge $-1 $373 $258 $371 $423 reversed $160 $-1 #
coedge $-1 $258 $373 $262 $365 reversed $160 $-1 #
coedge $-1 $260 $259 $258 $362 reversed $95 $-1 #
edge $-1 $366 -15.423485921267616 $424 15.423485921267616 $361 $425 forward 7 unknown #
edge $-1 $424 -55.25813651427773 $270 -41.687125773902601 $259 $426 forward 7 unknown #
straight-curve $-1 -73.091830195013273 -41.687125773902601 0 0 0 -1 I I #
edge $-1 $366 -3.8337249605685031 $368 3.8337249605685031 $360 $427 forward 7 unknown #
vertex $-1 $263 $428 #
straight-curve $-1 -73.091830195013273 0 15.423485921267616 0 -1 0 I I #
vertex $-1 $264 $429 #
straight-curve $-1 -65.424380273876267 -48.472631144090165 15.423485921267616 0 1 0 I I #
point $-1 -73.091830195013273 -41.687125773902601 15.423485921267616 #
coedge $-1 $268 $267 $359 $423 forward $269 $-1 #
point $-1 -73.091830195013273 -41.687125773902601 -15.423485921267616 #
coedge $-1 $360 $359 $272 $374 reversed $160 $-1 #
edge $-1 $368 -15.423485921267616 $375 15.423485921267616 $272 $430 forward 7 unknown #
vertex $-1 $374 $431 #
straight-curve $-1 -65.424380273876267 -48.472631144090165 -15.423485921267616 0 -1 0 I I #
loop $-1 $-1 $289 $276 #
plane-surface $-1 -73.091830195013273 0 0 1 0 0 0 0 -1 forward_v I I I I #
coedge $-1 $280 $279 $387 $432 reversed $103 $-1 #
coedge $-1 $292 $291 $279 $381 forward $277 $-1 #
edge $-1 $433 -3.8337249605685031 $384 3.8337249605685031 $279 $434 forward 7 unknown #
edge $-1 $383 -3.8337249605685031 $388 3.8337249605685031 $280 $435 forward 7 unknown #
vertex $-1 $284 $436 #
vertex $-1 $295 $437 #
straight-curve $-1 -65.424380273876267 55.25813651427773 0 0 0 -1 I I #
straight-curve $-1 -65.424380273876267 48.472631144090165 15.423485921267616 0 1 0 I I #
coedge $-1 $391 $285 $379 $432 forward $377 $-1 #
vertex $-1 $382 $438 #
straight-curve $-1 -73.091830195013273 0 15.423485921267616 0 -1 0 I I #
point $-1 -73.091830195013273 41.687125773902601 15.423485921267616 #
coedge $-1 $289 $387 $291 $393 reversed $377 $-1 #
straight-curve $-1 -73.091830195013273 41.687125773902601 0 0 0 1 I I #
edge $-1 $293 -6.7855053701875647 $433 6.7855053701875647 $391 $439 forward 7 unknown #
point $-1 -73.091830195013273 41.687125773902601 -15.423485921267616 #
straight-curve $-1 -65.424380273876267 48.472631144090165 -15.423485921267616 0 -1 0 I I #
edge $-1 $397 38.639389859343552 $400 41.842233115298562 $299 $440 forward 7 unknown #
vertex $-1 $313 $441 #
straight-curve $-1 -91.709020187526519 -2.4926984805322849 15.423485921267613 -1 0 0 I I #
edge $-1 $400 -1.55382929579544 $310 9.64688484845089 $309 $442 forward 7 unknown #
vertex $-1 $399 $443 #
straight-curve $-1 -73.091830195013273 -2.4926984805322849 12.22064266531261 0.65605901945558964 0 0.75470958851134928 I I #
point $-1 -70.307641100349088 -2.4926984805322849 15.423485921267616 #
point $-1 -73.091830195013273 -13.693412624778615 12.22064266531261 #
straight-curve $-1 -73.091830195013273 0 15.423485921267616 0 -1 0 I I #
vertex $-1 $316 $444 #
point $-1 -68.585359913207625 -8.09305555265545 12.439791818611845 #
coedge $-1 $331 $330 $323 $408 forward $320 $-1 #
edge $-1 $409 38.639389859343552 $412 41.842233115298562 $407 $445 forward 7 unknown #
vertex $-1 $335 $446 #
straight-curve $-1 -91.709020187526519 25.623416552995181 15.423485921267613 -1 0 0 I I #
edge $-1 $412 -15.611886812559174 $332 -4.411172668312842 $331 $447 forward 7 unknown #
vertex $-1 $411 $448 #
straight-curve $-1 -73.091830195013273 25.623416552995181 12.22064266531261 0.65605901945558964 0 0.75470958851134928 I I #
point $-1 -70.307641100349088 25.623416552995181 15.423485921267616 #
point $-1 -73.091830195013273 14.422702408748849 12.22064266531261 #
straight-curve $-1 -73.091830195013273 0 15.423485921267616 0 -1 0 I I #
vertex $-1 $338 $449 #
point $-1 -68.585359913207625 20.023059480872014 12.439791818611845 #
straight-curve $-1 -73.091830195013273 41.687125773902601 0 0 0 -1 I I #
point $-1 -73.091830195013273 -41.687125773902601 -15.423485921267616 #
straight-curve $-1 -73.091830195013273 0 -15.423485921267616 0 1 0 I I #
point $-1 -73.091830195013273 41.687125773902601 -15.423485921267616 #
edge $-1 $375 -3.8337249605685031 $424 3.8337249605685031 $359 $450 forward 7 unknown #
vertex $-1 $363 $451 #
straight-curve $-1 -73.091830195013273 -55.25813651427773 0 0 0 -1 I I #
straight-curve $-1 -73.091830195013273 0 -15.423485921267616 0 1 0 I I #
straight-curve $-1 -69.25810523444477 -55.25813651427773 15.423485921267616 1 0 0 I I #
point $-1 -73.091830195013273 -55.25813651427773 15.423485921267616 #
point $-1 -65.424380273876267 -55.25813651427773 15.423485921267616 #
straight-curve $-1 -65.424380273876267 -55.25813651427773 0 0 0 -1 I I #
point $-1 -65.424380273876267 -55.25813651427773 -15.423485921267616 #
edge $-1 $388 -15.423485921267616 $433 15.423485921267616 $379 $452 forward 7 unknown #
vertex $-1 $381 $453 #
straight-curve $-1 -69.25810523444477 55.25813651427773 -15.423485921267616 1 0 0 I I #
straight-curve $-1 -69.25810523444477 55.25813651427773 15.423485921267616 -1 0 0 I I #
point $-1 -65.424380273876267 55.25813651427773 15.423485921267616 #
point $-1 -65.424380273876267 55.25813651427773 -15.423485921267616 #
point $-1 -73.091830195013273 55.25813651427773 15.423485921267616 #
straight-curve $-1 -73.091830195013273 48.472631144090165 -15.423485921267616 0 1 0 I I #
straight-curve $-1 -73.091830195013273 -2.4926984805322849 54.062875780611172 0 0 -1 I I #
point $-1 -73.091830195013273 -2.4926984805322849 15.423485921267616 #
straight-curve $-1 -73.091830195013273 -4.046527776327725 12.220642665312607 0 -1 0 I I #
point $-1 -73.091830195013273 -2.4926984805322849 12.22064266531261 #
point $-1 -68.486709344151862 -8.09305555265545 11.029023210644905 #
straight-curve $-1 -73.091830195013273 25.623416552995181 54.062875780611172 0 0 -1 I I #
point $-1 -73.091830195013273 25.623416552995181 15.423485921267616 #
straight-curve $-1 -73.091830195013273 10.011529740436007 12.220642665312607 0 -1 0 I I #
point $-1 -73.091830195013273 25.623416552995181 12.22064266531261 #
point $-1 -68.486709344151862 20.023059480872014 11.029023210644905 #
straight-curve $-1 -69.25810523444477 -55.25813651427773 -15.423485921267616 -1 0 0 I I #
point $-1 -73.091830195013273 -55.25813651427773 -15.423485921267616 #
straight-curve $-1 -73.091830195013273 55.25813651427773 0 0 0 -1 I I #
point $-1 -73.091830195013273 55.25813651427773 -15.423485921267616 #
End-of-ACIS-data 