500 0 4 0           
7 Unknown 11 ACIS 5.0 NT 24 Fri Mar 26 01:46:16 1999 
-1 9.9999999999999995e-007 1e-010 
body $-1 $4 $-1 $5 #
body $-1 $6 $-1 $7 #
body $-1 $8 $-1 $9 #
body $-1 $10 $-1 $11 #
lump $-1 $-1 $12 $0 #
transform $-1 1 0 0 0 1 0 0 0 1 64.733420819727172 41.327094438610636 10.96094384375102 1 rotate no_reflect no_shear #
lump $-1 $-1 $13 $1 #
transform $-1 1 0 0 0 1 0 0 0 1 64.733420819727172 41.327094438610636 10.96094384375102 1 rotate no_reflect no_shear #
lump $-1 $-1 $14 $2 #
transform $-1 1 0 0 0 1 0 0 0 1 64.733420819727172 41.327094438610636 10.96094384375102 1 rotate no_reflect no_shear #
lump $-1 $-1 $15 $3 #
transform $-1 1 0 0 0 1 0 0 0 1 64.733420819727172 41.327094438610636 10.96094384375102 1 rotate no_reflect no_shear #
shell $-1 $-1 $-1 $16 $-1 $4 #
shell $-1 $-1 $-1 $17 $-1 $6 #
shell $-1 $-1 $-1 $18 $-1 $8 #
shell $-1 $-1 $-1 $19 $-1 $10 #
face $-1 $20 $21 $12 $-1 $22 forward single #
face $-1 $23 $24 $13 $-1 $25 reversed single #
face $-1 $26 $27 $14 $-1 $28 reversed single #
face $-1 $29 $30 $15 $-1 $31 forward single #
face $-1 $32 $33 $12 $-1 $34 reversed single #
loop $-1 $-1 $35 $16 #
plane-surface $-1 0 0 10.96094384375102 0 0 1 1 0 0 forward_v I I I I #
face $-1 $36 $37 $13 $-1 $38 reversed single #
loop $-1 $-1 $39 $17 #
plane-surface $-1 -58.674728753159876 -38.327094438610636 0 0 -1 0 0 0 -1 forward_v I I I I #
face $-1 $40 $41 $14 $-1 $42 reversed single #
loop $-1 $-1 $43 $18 #
plane-surface $-1 51.961447456503151 -9.8124476795506297 186.36352746114434 0 -1 0 -0.6560590369687036 0 -0.75470957328743171 forward_v I I I I #
face $-1 $44 $45 $15 $-1 $46 forward single #
loop $-1 $47 $48 $19 #
cone-surface $-1 58.186704238306184 -17.667837013087379 4.6011620028620435 -0.6560590369687036 0 -0.75470957328743171 1.5094191465748634 0 -1.3121180739374072 1 I I 0 1 2 forward I I I I #
face $-1 $49 $50 $12 $-1 $51 reversed single #
loop $-1 $-1 $52 $20 #
plane-surface $-1 0 0 -10.96094384375102 0 0 1 1 0 0 forward_v I I I I #
coedge $-1 $53 $54 $55 $56 forward $21 $-1 #
face $-1 $57 $58 $13 $-1 $59 forward single #
loop $-1 $-1 $60 $23 #
plane-surface $-1 -52.616036686592579 -39.827094438610636 0 -1 0 0 0 0 1 forward_v I I I I #
coedge $-1 $61 $62 $63 $64 forward $24 $-1 #
face $-1 $65 $66 $14 $-1 $67 reversed single #
loop $-1 $-1 $68 $26 #
plane-surface $-1 -32.976443988856914 -17.667837013087379 88.653662652560257 0.6560590369687036 0 0.75470957328743171 0.75470957328743171 0 -0.6560590369687036 forward_v I I I I #
coedge $-1 $69 $70 $71 $72 reversed $27 $-1 #
face $-1 $-1 $73 $15 $-1 $74 forward single #
loop $-1 $75 $76 $29 #
cone-surface $-1 55.151237383918712 -17.667837013087379 1.1092569069610558 -0.6560590369687036 0 -0.75470957328743171 0.75470957328743171 0 -0.6560590369687036 1 I I -0.70710678118654746 0.70710678118654746 1 forward I I I I #
loop $-1 $-1 $77 $19 #
coedge $-1 $48 $48 $78 $79 reversed $30 $-1 #
face $-1 $80 $81 $12 $-1 $82 reversed single #
loop $-1 $-1 $83 $32 #
plane-surface $-1 0 -41.327094438610636 0 0 1 0 0 0 1 forward_v I I I I #
coedge $-1 $84 $85 $86 $87 forward $33 $-1 #
coedge $-1 $88 $35 $89 $90 forward $21 $-1 #
coedge $-1 $35 $88 $91 $92 forward $21 $-1 #
coedge $-1 $93 $94 $35 $56 reversed $95 $-1 #
edge $-1 $96 -41.327094438610636 $97 41.327094438610636 $55 $98 forward 7 unknown #
face $-1 $99 $100 $13 $-1 $101 reversed single #
loop $-1 $-1 $102 $36 #
plane-surface $-1 0 0 10.96094384375102 0 0 1 1 0 0 forward_v I I I I #
coedge $-1 $103 $104 $105 $106 reversed $37 $-1 #
coedge $-1 $107 $39 $108 $109 reversed $24 $-1 #
coedge $-1 $39 $107 $110 $111 reversed $24 $-1 #
coedge $-1 $104 $103 $39 $64 reversed $37 $-1 #
edge $-1 $112 -10.96094384375102 $113 10.96094384375102 $63 $114 forward 7 unknown #
face $-1 $115 $116 $14 $-1 $117 reversed single #
loop $-1 $-1 $118 $40 #
plane-surface $-1 51.961447456503151 -25.523226346624128 186.36352746114434 0 1 0 0.6560590369687036 0 0.75470957328743171 forward_v I I I I #
coedge $-1 $119 $120 $121 $122 reversed $41 $-1 #
coedge $-1 $70 $43 $123 $124 reversed $27 $-1 #
coedge $-1 $43 $69 $119 $125 reversed $27 $-1 #
coedge $-1 $121 $126 $43 $72 forward $127 $-1 #
edge $-1 $128 -38.752697091475596 $129 -30.418079563471167 $71 $130 forward 7 unknown #
loop $-1 $-1 $78 $44 #
plane-surface $-1 -32.976443988856914 -17.667837013087379 88.653662652560257 0.6560590369687036 0 0.75470957328743171 0.75470957328743171 0 -0.6560590369687036 forward_v I I I I #
loop $-1 $-1 $131 $29 #
coedge $-1 $76 $76 $77 $132 reversed $45 $-1 #
coedge $-1 $77 $77 $76 $132 forward $47 $-1 #
coedge $-1 $78 $78 $48 $79 forward $73 $-1 #
edge $-1 $133 0 $133 6.2831853071796004 $78 $134 forward 7 unknown #
face $-1 $135 $136 $12 $-1 $137 reversed single #
loop $-1 $-1 $138 $49 #
plane-surface $-1 -64.733420819727172 0 0 1 0 0 0 0 -1 forward_v I I I I #
coedge $-1 $139 $91 $140 $141 forward $50 $-1 #
coedge $-1 $142 $52 $139 $143 forward $33 $-1 #
coedge $-1 $52 $142 $144 $145 forward $33 $-1 #
coedge $-1 $94 $93 $52 $87 reversed $95 $-1 #
edge $-1 $146 -41.327094438610636 $147 41.327094438610636 $86 $148 forward 7 unknown #
coedge $-1 $54 $53 $149 $150 forward $21 $-1 #
coedge $-1 $151 $152 $53 $90 reversed $136 $-1 #
edge $-1 $97 -64.733420819727172 $153 64.733420819727172 $89 $154 forward 7 unknown #
coedge $-1 $83 $155 $54 $92 reversed $50 $-1 #
edge $-1 $156 -64.733420819727172 $96 64.733420819727172 $91 $157 forward 7 unknown #
coedge $-1 $86 $55 $155 $158 forward $95 $-1 #
coedge $-1 $55 $86 $151 $159 reversed $95 $-1 #
loop $-1 $-1 $93 $135 #
vertex $-1 $56 $160 #
vertex $-1 $56 $161 #
straight-curve $-1 64.733420819727172 0 10.96094384375102 0 1 0 I I #
face $-1 $162 $163 $13 $-1 $164 reversed single #
loop $-1 $-1 $165 $57 #
plane-surface $-1 -64.733420819727172 0 0 1 0 0 0 0 -1 forward_v I I I I #
coedge $-1 $110 $166 $104 $167 forward $58 $-1 #
coedge $-1 $63 $60 $168 $169 reversed $37 $-1 #
coedge $-1 $60 $63 $102 $167 reversed $37 $-1 #
coedge $-1 $170 $171 $60 $106 forward $172 $-1 #
edge $-1 $173 -10.96094384375102 $174 10.96094384375102 $105 $175 forward 7 unknown #
coedge $-1 $62 $61 $165 $176 reversed $24 $-1 #
coedge $-1 $168 $177 $61 $109 forward $163 $-1 #
edge $-1 $178 -35.396056443147231 $113 -23.278672310012642 $108 $179 forward 7 unknown #
coedge $-1 $180 $102 $62 $111 forward $58 $-1 #
edge $-1 $112 23.278672310012642 $181 35.396056443147231 $110 $182 forward 7 unknown #
vertex $-1 $111 $183 #
vertex $-1 $109 $184 #
straight-curve $-1 -52.616036686592579 -38.327094438610636 0 0 0 -1 I I #
face $-1 $-1 $127 $14 $-1 $185 forward single #
loop $-1 $-1 $186 $65 #
plane-surface $-1 64.733420819727172 0 0 -1 0 0 0 0 1 forward_v I I I I #
coedge $-1 $187 $188 $189 $190 reversed $66 $-1 #
coedge $-1 $191 $68 $70 $125 forward $41 $-1 #
coedge $-1 $68 $191 $187 $192 forward $41 $-1 #
coedge $-1 $189 $71 $68 $122 forward $127 $-1 #
edge $-1 $129 0.97852917300694031 $193 16.689307840080438 $121 $194 forward 7 unknown #
coedge $-1 $195 $196 $69 $124 forward $116 $-1 #
edge $-1 $197 -89.46599252337198 $128 -82.220819886821147 $123 $198 forward 7 unknown #
edge $-1 $129 118.42336501877264 $197 129.46684163945434 $70 $199 forward 7 unknown #
coedge $-1 $71 $189 $195 $200 forward $127 $-1 #
loop $-1 $-1 $189 $115 #
vertex $-1 $124 $201 #
vertex $-1 $72 $202 #
straight-curve $-1 25.980723728251576 -9.8124476795506297 10.960943843751025 -1 0 0 I I #
coedge $-1 $131 $131 $-1 $203 reversed $75 $-1 #
edge $-1 $204 0 $204 6.2831853071796004 $76 $205 forward 7 unknown #
vertex $-1 $79 $206 #
ellipse-curve $-1 60.56611205572495 -17.667837013087379 7.3383575254756019 0.6560590369687036 0 0.75470957328743171 1.5094191465748634 0 -1.3121180739374072 1 I I #
face $-1 $-1 $95 $12 $-1 $207 reversed single #
loop $-1 $-1 $151 $80 #
plane-surface $-1 0 41.327094438610636 0 0 -1 0 0 0 -1 forward_v I I I I #
coedge $-1 $208 $149 $152 $209 forward $81 $-1 #
coedge $-1 $155 $83 $84 $143 reversed $50 $-1 #
coedge $-1 $149 $208 $83 $141 reversed $81 $-1 #
edge $-1 $156 -10.96094384375102 $210 10.96094384375102 $140 $211 forward 7 unknown #
coedge $-1 $85 $84 $208 $212 forward $33 $-1 #
edge $-1 $147 -64.733420819727172 $210 64.733420819727172 $139 $213 forward 7 unknown #
coedge $-1 $152 $151 $85 $145 reversed $136 $-1 #
edge $-1 $214 -64.733420819727172 $146 64.733420819727172 $144 $215 forward 7 unknown #
vertex $-1 $87 $216 #
vertex $-1 $158 $217 #
straight-curve $-1 64.733420819727172 0 -10.96094384375102 0 -1 0 I I #
coedge $-1 $138 $140 $88 $150 reversed $81 $-1 #
edge $-1 $153 -41.327094438610636 $156 41.327094438610636 $149 $218 forward 7 unknown #
coedge $-1 $144 $89 $94 $159 forward $136 $-1 #
coedge $-1 $89 $144 $138 $209 reversed $136 $-1 #
vertex $-1 $90 $219 #
straight-curve $-1 0 41.327094438610636 10.96094384375102 -1 0 0 I I #
coedge $-1 $91 $139 $93 $158 reversed $50 $-1 #
vertex $-1 $150 $220 #
straight-curve $-1 0 -41.327094438610636 10.96094384375102 1 0 0 I I #
edge $-1 $96 -10.96094384375102 $147 10.96094384375102 $93 $221 forward 7 unknown #
edge $-1 $97 -10.96094384375102 $146 10.96094384375102 $94 $222 forward 7 unknown #
point $-1 64.733420819727172 -41.327094438610636 10.96094384375102 #
point $-1 64.733420819727172 41.327094438610636 10.96094384375102 #
face $-1 $-1 $172 $13 $-1 $223 reversed single #
loop $-1 $-1 $168 $99 #
plane-surface $-1 0 0 -10.96094384375102 0 0 1 1 0 0 forward_v I I I I #
coedge $-1 $224 $225 $107 $176 forward $100 $-1 #
coedge $-1 $102 $180 $170 $226 forward $58 $-1 #
edge $-1 $174 -21.413547219305318 $112 -18.413547219305318 $102 $227 forward 7 unknown #
coedge $-1 $228 $108 $103 $169 forward $163 $-1 #
edge $-1 $113 18.413547219305318 $173 21.413547219305318 $168 $229 forward 7 unknown #
coedge $-1 $230 $105 $166 $226 reversed $172 $-1 #
coedge $-1 $105 $230 $228 $231 reversed $172 $-1 #
loop $-1 $-1 $105 $162 #
vertex $-1 $231 $232 #
vertex $-1 $106 $233 #
straight-curve $-1 -52.616036686592579 -41.327094438610636 0 0 0 1 I I #
edge $-1 $181 -10.96094384375102 $178 10.96094384375102 $165 $234 forward 7 unknown #
coedge $-1 $108 $228 $224 $235 forward $163 $-1 #
vertex $-1 $109 $236 #
straight-curve $-1 -29.337364376579938 -38.327094438610636 -10.96094384375102 1 0 0 I I #
coedge $-1 $166 $110 $225 $237 forward $58 $-1 #
vertex $-1 $237 $238 #
straight-curve $-1 -29.337364376579938 -38.327094438610636 10.96094384375102 -1 0 0 I I #
point $-1 -52.616036686592579 -38.327094438610636 10.96094384375102 #
point $-1 -52.616036686592579 -38.327094438610636 -10.96094384375102 #
plane-surface $-1 0 0 10.96094384375102 0 0 1 1 0 0 forward_v I I I I #
coedge $-1 $196 $195 $188 $239 forward $116 $-1 #
coedge $-1 $188 $118 $120 $192 reversed $66 $-1 #
coedge $-1 $118 $187 $186 $239 reversed $66 $-1 #
coedge $-1 $126 $121 $118 $190 forward $127 $-1 #
edge $-1 $193 30.418079563471167 $240 38.752697091475596 $189 $241 forward 7 unknown #
coedge $-1 $120 $119 $196 $242 reversed $41 $-1 #
edge $-1 $243 -129.46684163945434 $193 -118.42336501877264 $187 $244 forward 7 unknown #
vertex $-1 $122 $245 #
straight-curve $-1 56.398803291722729 -8.8339185065436894 10.960943843751032 0 -1 0 I I #
coedge $-1 $186 $123 $126 $200 reversed $116 $-1 #
coedge $-1 $123 $186 $191 $242 forward $116 $-1 #
vertex $-1 $124 $246 #
straight-curve $-1 64.733420819727172 -9.8124476795506297 93.181763730572172 0 0 1 I I #
straight-curve $-1 -32.976443988856914 -9.8124476795506297 88.653662652560257 0.75470957328743171 0 -0.6560590369687036 I I #
edge $-1 $240 -25.523226346624128 $128 -9.8124476795506297 $195 $247 forward 7 unknown #
point $-1 64.733420819727172 -9.8124476795506297 10.96094384375102 #
point $-1 56.398803291722743 -9.8124476795506297 10.960943843751025 #
edge $-1 $248 1 $248 0 $131 $-1 forward 7 unknown #
vertex $-1 $132 $249 #
ellipse-curve $-1 55.807296420887418 -17.667837013087379 1.8639664802484877 0.6560590369687036 0 0.75470957328743171 1.5094191465748634 0 -1.3121180739374072 1 I I #
point $-1 62.075531202299814 -17.667837013087379 6.0262394515381921 #
plane-surface $-1 64.733420819727172 0 0 -1 0 0 0 0 1 forward_v I I I I #
coedge $-1 $140 $138 $142 $212 reversed $81 $-1 #
edge $-1 $153 -10.96094384375102 $214 10.96094384375102 $152 $250 forward 7 unknown #
vertex $-1 $212 $251 #
straight-curve $-1 -64.733420819727172 -41.327094438610636 0 0 0 -1 I I #
edge $-1 $210 -41.327094438610636 $214 41.327094438610636 $208 $252 forward 7 unknown #
straight-curve $-1 0 -41.327094438610636 -10.96094384375102 -1 0 0 I I #
vertex $-1 $145 $253 #
straight-curve $-1 0 41.327094438610636 -10.96094384375102 1 0 0 I I #
point $-1 64.733420819727172 41.327094438610636 -10.96094384375102 #
point $-1 64.733420819727172 -41.327094438610636 -10.96094384375102 #
straight-curve $-1 -64.733420819727172 0 10.96094384375102 0 -1 0 I I #
point $-1 -64.733420819727172 41.327094438610636 10.96094384375102 #
point $-1 -64.733420819727172 -41.327094438610636 10.96094384375102 #
straight-curve $-1 64.733420819727172 -41.327094438610636 0 0 0 -1 I I #
straight-curve $-1 64.733420819727172 41.327094438610636 0 0 0 -1 I I #
plane-surface $-1 0 -41.327094438610636 0 0 1 0 0 0 1 forward_v I I I I #
coedge $-1 $254 $165 $177 $235 reversed $100 $-1 #
coedge $-1 $165 $254 $180 $237 reversed $100 $-1 #
edge $-1 $255 -64.733420819727172 $174 -52.616036686592579 $170 $256 forward 7 unknown #
straight-curve $-1 -52.616036686592579 -19.913547219305318 10.96094384375102 0 1 0 I I #
coedge $-1 $177 $168 $171 $231 forward $163 $-1 #
straight-curve $-1 -52.616036686592579 -19.913547219305318 -10.96094384375102 0 -1 0 I I #
coedge $-1 $171 $170 $254 $257 forward $172 $-1 #
edge $-1 $173 52.616036686592579 $258 64.733420819727172 $171 $259 forward 7 unknown #
point $-1 -52.616036686592579 -41.327094438610636 -10.96094384375102 #
point $-1 -52.616036686592579 -41.327094438610636 10.96094384375102 #
straight-curve $-1 -64.733420819727172 -38.327094438610636 0 0 0 -1 I I #
edge $-1 $258 -41.327094438610636 $178 -38.327094438610636 $224 $260 forward 7 unknown #
point $-1 -64.733420819727172 -38.327094438610636 -10.96094384375102 #
edge $-1 $181 38.327094438610636 $255 41.327094438610636 $225 $261 forward 7 unknown #
point $-1 -64.733420819727172 -38.327094438610636 10.96094384375102 #
edge $-1 $240 82.220819886821147 $243 89.46599252337198 $186 $262 forward 7 unknown #
vertex $-1 $200 $263 #
straight-curve $-1 25.980723728251576 -25.523226346624128 10.960943843751025 1 0 0 I I #
edge $-1 $243 -16.689307840080438 $197 -0.97852917300694031 $196 $264 forward 7 unknown #
vertex $-1 $242 $265 #
straight-curve $-1 -32.976443988856914 -25.523226346624128 88.653662652560257 -0.75470957328743171 0 0.6560590369687036 I I #
point $-1 56.398803291722743 -25.523226346624128 10.960943843751025 #
point $-1 64.733420819727172 -9.8124476795506297 3.7157712072001914 #
straight-curve $-1 64.733420819727172 0 10.96094384375102 0 1 0 I I #
vertex $-1 $203 $266 #
point $-1 57.316715567462282 -17.667837013087379 0.55184840631108034 #
straight-curve $-1 -64.733420819727172 41.327094438610636 0 0 0 -1 I I #
point $-1 -64.733420819727172 -41.327094438610636 -10.96094384375102 #
straight-curve $-1 -64.733420819727172 0 -10.96094384375102 0 1 0 I I #
point $-1 -64.733420819727172 41.327094438610636 -10.96094384375102 #
coedge $-1 $225 $224 $230 $257 reversed $100 $-1 #
vertex $-1 $237 $267 #
straight-curve $-1 0 -41.327094438610636 10.96094384375102 1 0 0 I I #
edge $-1 $255 -10.96094384375102 $258 10.96094384375102 $254 $268 forward 7 unknown #
vertex $-1 $235 $269 #
straight-curve $-1 0 -41.327094438610636 -10.96094384375102 -1 0 0 I I #
straight-curve $-1 -64.733420819727172 0 -10.96094384375102 0 1 0 I I #
straight-curve $-1 -64.733420819727172 0 10.96094384375102 0 -1 0 I I #
straight-curve $-1 64.733420819727172 -25.523226346624128 93.181763730572172 0 0 -1 I I #
point $-1 64.733420819727172 -25.523226346624128 10.96094384375102 #
straight-curve $-1 64.733420819727172 -8.8339185065436894 3.7157712072001843 0 1 0 I I #
point $-1 64.733420819727172 -25.523226346624128 3.7157712072001914 #
point $-1 54.495178346950006 -17.667837013087379 0.35454733367362412 #
point $-1 -64.733420819727172 -41.327094438610636 10.96094384375102 #
straight-curve $-1 -64.733420819727172 -41.327094438610636 0 0 0 -1 I I #
point $-1 -64.733420819727172 -41.327094438610636 -10.96094384375102 #
End-of-ACIS-data 