500 0 11 0           
7 Unknown 11 ACIS 5.0 NT 24 Fri Mar 26 01:41:05 1999 
-1 9.9999999999999995e-007 1e-010 
body $-1 $11 $-1 $12 #
body $-1 $13 $-1 $14 #
body $-1 $15 $-1 $16 #
body $-1 $17 $-1 $18 #
body $-1 $19 $-1 $20 #
body $-1 $21 $-1 $22 #
body $-1 $23 $-1 $24 #
body $-1 $25 $-1 $26 #
body $-1 $27 $-1 $28 #
body $-1 $29 $-1 $30 #
body $-1 $31 $-1 $32 #
lump $-1 $-1 $33 $0 #
transform $-1 1 0 0 0 1 0 0 0 1 41.677297280800808 18.78448331832352 5.5305504292996766 1 rotate no_reflect no_shear #
lump $-1 $-1 $34 $1 #
transform $-1 1 0 0 0 1 0 0 0 1 41.677297280800808 18.78448331832352 5.5305504292996766 1 rotate no_reflect no_shear #
lump $-1 $-1 $35 $2 #
transform $-1 1 0 0 0 1 0 0 0 1 41.677297280800808 18.78448331832352 5.5305504292996766 1 rotate no_reflect no_shear #
lump $-1 $-1 $36 $3 #
transform $-1 1 0 0 0 1 0 0 0 1 41.677297280800808 18.78448331832352 5.5305504292996766 1 rotate no_reflect no_shear #
lump $-1 $-1 $37 $4 #
transform $-1 1 0 0 0 1 0 0 0 1 41.677297280800808 18.78448331832352 5.5305504292996766 1 rotate no_reflect no_shear #
lump $-1 $-1 $38 $5 #
transform $-1 1 0 0 0 1 0 0 0 1 41.677297280800808 18.78448331832352 5.5305504292996766 1 rotate no_reflect no_shear #
lump $-1 $-1 $39 $6 #
transform $-1 1 0 0 0 1 0 0 0 1 41.677297280800808 18.78448331832352 5.5305504292996766 1 rotate no_reflect no_shear #
lump $-1 $-1 $40 $7 #
transform $-1 1 0 0 0 1 0 0 0 1 41.677297280800808 18.78448331832352 5.5305504292996766 1 rotate no_reflect no_shear #
lump $-1 $-1 $41 $8 #
transform $-1 1 0 0 0 1 0 0 0 1 41.677297280800808 18.78448331832352 5.5305504292996766 1 rotate no_reflect no_shear #
lump $-1 $-1 $42 $9 #
transform $-1 1 0 0 0 1 0 0 0 1 41.677297280800808 18.78448331832352 5.5305504292996766 1 rotate no_reflect no_shear #
lump $-1 $-1 $43 $10 #
transform $-1 1 0 0 0 1 0 0 0 1 41.677297280800808 18.78448331832352 5.5305504292996766 1 rotate no_reflect no_shear #
shell $-1 $-1 $-1 $44 $-1 $11 #
shell $-1 $-1 $-1 $45 $-1 $13 #
shell $-1 $-1 $-1 $46 $-1 $15 #
shell $-1 $-1 $-1 $47 $-1 $17 #
shell $-1 $-1 $-1 $48 $-1 $19 #
shell $-1 $-1 $-1 $49 $-1 $21 #
shell $-1 $-1 $-1 $50 $-1 $23 #
shell $-1 $-1 $-1 $51 $-1 $25 #
shell $-1 $-1 $-1 $52 $-1 $27 #
shell $-1 $-1 $-1 $53 $-1 $29 #
shell $-1 $-1 $-1 $54 $-1 $31 #
face $-1 $55 $56 $33 $-1 $57 forward single #
face $-1 $58 $59 $34 $-1 $60 reversed single #
face $-1 $61 $62 $35 $-1 $63 forward single #
face $-1 $64 $65 $36 $-1 $66 reversed single #
face $-1 $67 $68 $37 $-1 $69 forward single #
face $-1 $70 $71 $38 $-1 $72 forward single #
face $-1 $73 $74 $39 $-1 $75 forward single #
face $-1 $76 $77 $40 $-1 $78 reversed single #
face $-1 $79 $80 $41 $-1 $81 forward single #
face $-1 $82 $83 $42 $-1 $84 reversed single #
face $-1 $85 $86 $43 $-1 $87 forward single #
face $-1 $88 $89 $33 $-1 $90 reversed single #
loop $-1 $-1 $91 $44 #
plane-surface $-1 0 0 5.5305504292996766 0 0 1 1 0 0 forward_v I I I I #
face $-1 $92 $93 $34 $-1 $94 reversed single #
loop $-1 $-1 $95 $45 #
plane-surface $-1 -39.690076515657132 0 2.5305504292996766 0 0 1 1 0 0 forward_v I I I I #
face $-1 $96 $97 $35 $-1 $98 reversed single #
loop $-1 $-1 $99 $46 #
plane-surface $-1 38.50118624064195 0 -2.5305504292996766 0 0 1 1 0 0 forward_v I I I I #
face $-1 $100 $101 $36 $-1 $102 reversed single #
loop $-1 $-1 $103 $47 #
plane-surface $-1 26.675944618763829 -76.687450826988481 60.117668694706808 -1 0 0 0 -0.69465837861970381 0.71933979245794832 forward_v I I I I #
face $-1 $104 $105 $37 $-1 $106 forward single #
loop $-1 $107 $108 $48 #
cone-surface $-1 11.781607589793474 -15.519397940091363 2.3437570422936802 0 0.69465837861970381 -0.71933979245794832 1 0 0 1 I I 0 1 1 forward I I I I #
face $-1 $109 $110 $38 $-1 $111 forward single #
loop $-1 $112 $113 $49 #
cone-surface $-1 17.366983975657362 -15.519397940091363 2.3437570422936802 0 0.69465837861970381 -0.71933979245794832 1 0 0 1 I I 0 1 1 forward I I I I #
face $-1 $114 $115 $39 $-1 $116 forward single #
loop $-1 $117 $118 $50 #
cone-surface $-1 22.952360361521251 -15.519397940091363 2.3437570422936802 0 0.69465837861970381 -0.71933979245794832 1 0 0 1 I I 0 1 1 forward I I I I #
face $-1 $119 $120 $40 $-1 $121 reversed single #
loop $-1 $-1 $122 $51 #
plane-surface $-1 -33.131992002264077 45.116359574130982 88.574770615443342 1 0 0 0 -0.6560590369687036 -0.75470957328743171 forward_v I I I I #
face $-1 $123 $124 $41 $-1 $125 forward single #
loop $-1 $126 $127 $52 #
cone-surface $-1 -28.083031143025778 15.013086597144799 1.9214862956597221 0 -0.6560590369687036 -0.75470957328743171 1 0 0 1 I I 0 1 1 forward I I I I #
face $-1 $128 $129 $42 $-1 $130 reversed single #
loop $-1 $-1 $131 $53 #
plane-surface $-1 20.65628973375712 45.116359574130982 88.574770615443342 1 0 0 0 -0.6560590369687036 -0.75470957328743171 forward_v I I I I #
face $-1 $132 $133 $43 $-1 $134 forward single #
loop $-1 $135 $136 $54 #
cone-surface $-1 25.705250592995419 15.013086597144799 1.9214862956597221 0 -0.6560590369687036 -0.75470957328743171 1 0 0 1 I I 0 1 1 forward I I I I #
face $-1 $137 $138 $33 $-1 $139 reversed single #
loop $-1 $-1 $140 $55 #
plane-surface $-1 0 0 -5.5305504292996766 0 0 1 1 0 0 forward_v I I I I #
coedge $-1 $141 $142 $143 $144 forward $56 $-1 #
face $-1 $145 $146 $34 $-1 $147 reversed single #
loop $-1 $-1 $148 $58 #
plane-surface $-1 -37.702855750513457 0 4.0305504292996766 -1 0 0 0 0 1 forward_v I I I I #
coedge $-1 $149 $150 $151 $152 forward $59 $-1 #
face $-1 $153 $154 $35 $-1 $155 reversed single #
loop $-1 $-1 $156 $61 #
plane-surface $-1 35.325075200483091 0 -4.0305504292996766 1 0 0 0 0 -1 forward_v I I I I #
coedge $-1 $157 $158 $159 $160 reversed $62 $-1 #
face $-1 $161 $162 $36 $-1 $163 reversed single #
loop $-1 $-1 $164 $64 #
plane-surface $-1 17.366983975657355 -18.784483318323524 0.15739194234787135 0 -0.69465837861970381 0.71933979245794832 1 0 0 forward_v I I I I #
coedge $-1 $165 $166 $167 $168 reversed $65 $-1 #
face $-1 $-1 $169 $37 $-1 $170 forward single #
loop $-1 $171 $172 $67 #
cone-surface $-1 11.781607589793474 -14.689017556407926 1.4838730025346125 0 0.69465837861970381 -0.71933979245794832 0.5 0 0 1 I I -0.70710678118654735 0.70710678118654768 0.5 forward I I I I #
loop $-1 $-1 $173 $48 #
coedge $-1 $108 $108 $174 $175 reversed $68 $-1 #
face $-1 $-1 $176 $38 $-1 $177 forward single #
loop $-1 $178 $179 $70 #
cone-surface $-1 17.366983975657362 -14.689017556407926 1.4838730025346125 0 0.69465837861970381 -0.71933979245794832 0.5 0 0 1 I I -0.70710678118654735 0.70710678118654768 0.5 forward I I I I #
loop $-1 $-1 $180 $49 #
coedge $-1 $113 $113 $181 $182 reversed $71 $-1 #
face $-1 $-1 $183 $39 $-1 $184 forward single #
loop $-1 $185 $186 $73 #
cone-surface $-1 22.952360361521251 -14.689017556407926 1.4838730025346125 0 0.69465837861970381 -0.71933979245794832 0.5 0 0 1 I I -0.70710678118654735 0.70710678118654768 0.5 forward I I I I #
loop $-1 $-1 $187 $50 #
coedge $-1 $118 $118 $188 $189 reversed $74 $-1 #
face $-1 $190 $191 $40 $-1 $192 reversed single #
loop $-1 $-1 $193 $76 #
plane-surface $-1 -28.083031143025778 -9.5691754608701132 25.666260122310113 0 0.6560590369687036 0.75470957328743171 1 0 0 forward_v I I I I #
coedge $-1 $194 $195 $196 $197 reversed $77 $-1 #
face $-1 $-1 $198 $41 $-1 $199 forward single #
loop $-1 $200 $201 $79 #
cone-surface $-1 -28.083031143025778 13.50874785044461 0.19094256464484261 0 -0.6560590369687036 -0.75470957328743171 0.5 0 0 1 I I -0.70710678118654746 0.70710678118654746 0.5 forward I I I I #
loop $-1 $-1 $202 $52 #
coedge $-1 $127 $127 $203 $204 reversed $80 $-1 #
face $-1 $205 $206 $42 $-1 $207 reversed single #
loop $-1 $-1 $208 $82 #
plane-surface $-1 25.705250592995419 -9.5691754608701132 25.666260122310113 0 0.6560590369687036 0.75470957328743171 1 0 0 forward_v I I I I #
coedge $-1 $209 $210 $211 $212 reversed $83 $-1 #
face $-1 $-1 $213 $43 $-1 $214 forward single #
loop $-1 $215 $216 $85 #
cone-surface $-1 25.705250592995419 13.50874785044461 0.19094256464484261 0 -0.6560590369687036 -0.75470957328743171 0.5 0 0 1 I I -0.70710678118654746 0.70710678118654746 0.5 forward I I I I #
loop $-1 $-1 $217 $54 #
coedge $-1 $136 $136 $218 $219 reversed $86 $-1 #
face $-1 $220 $221 $33 $-1 $222 reversed single #
loop $-1 $-1 $223 $88 #
plane-surface $-1 0 -18.78448331832352 0 0 1 0 0 0 1 forward_v I I I I #
coedge $-1 $224 $225 $226 $227 forward $89 $-1 #
coedge $-1 $228 $91 $229 $230 forward $56 $-1 #
coedge $-1 $91 $228 $231 $232 forward $56 $-1 #
coedge $-1 $233 $234 $91 $144 reversed $235 $-1 #
edge $-1 $236 -18.78448331832352 $237 18.78448331832352 $143 $238 forward 7 unknown #
face $-1 $239 $240 $34 $-1 $241 reversed single #
loop $-1 $-1 $242 $92 #
plane-surface $-1 0 18.78448331832352 0 0 -1 0 0 0 -1 forward_v I I I I #
coedge $-1 $151 $243 $244 $245 reversed $93 $-1 #
coedge $-1 $246 $95 $247 $248 reversed $59 $-1 #
coedge $-1 $95 $246 $249 $250 reversed $59 $-1 #
coedge $-1 $251 $148 $95 $152 reversed $93 $-1 #
edge $-1 $252 -18.78448331832352 $253 18.78448331832352 $151 $254 forward 7 unknown #
face $-1 $255 $256 $35 $-1 $257 reversed single #
loop $-1 $-1 $258 $96 #
plane-surface $-1 0 -18.78448331832352 0 0 1 0 0 0 1 forward_v I I I I #
coedge $-1 $259 $260 $261 $262 reversed $97 $-1 #
coedge $-1 $263 $99 $264 $265 reversed $62 $-1 #
coedge $-1 $99 $263 $258 $266 reversed $62 $-1 #
coedge $-1 $267 $268 $99 $160 forward $269 $-1 #
edge $-1 $270 -18.78448331832352 $271 18.78448331832352 $159 $272 forward 7 unknown #
face $-1 $273 $274 $36 $-1 $275 forward single #
loop $-1 $-1 $276 $100 #
plane-surface $-1 8.0580233325508814 -76.687450826988481 60.117668694706808 1 0 0 0 0.69465837861970381 -0.71933979245794832 forward_v I I I I #
coedge $-1 $277 $278 $279 $280 reversed $101 $-1 #
coedge $-1 $166 $103 $281 $282 reversed $65 $-1 #
coedge $-1 $103 $165 $277 $283 reversed $65 $-1 #
coedge $-1 $279 $284 $103 $168 forward $274 $-1 #
edge $-1 $285 19.55924209517072 $286 25.123310462887865 $167 $287 forward 7 unknown #
loop $-1 $-1 $174 $104 #
plane-surface $-1 17.366983975657355 -18.784483318323524 0.15739194234787135 0 -0.69465837861970381 0.71933979245794832 1 0 0 forward_v I I I I #
loop $-1 $-1 $288 $67 #
coedge $-1 $172 $172 $173 $289 reversed $105 $-1 #
coedge $-1 $173 $173 $172 $289 forward $107 $-1 #
coedge $-1 $174 $174 $108 $175 forward $169 $-1 #
edge $-1 $290 1.9386277394169668e-015 $290 6.2831853071796022 $174 $291 forward 7 unknown #
loop $-1 $-1 $181 $109 #
plane-surface $-1 17.366983975657355 -18.784483318323524 0.15739194234787135 0 -0.69465837861970381 0.71933979245794832 1 0 0 forward_v I I I I #
loop $-1 $-1 $292 $70 #
coedge $-1 $179 $179 $180 $293 reversed $110 $-1 #
coedge $-1 $180 $180 $179 $293 forward $112 $-1 #
coedge $-1 $181 $181 $113 $182 forward $176 $-1 #
edge $-1 $294 1.9386277394169668e-015 $294 6.2831853071796022 $181 $295 forward 7 unknown #
loop $-1 $-1 $188 $114 #
plane-surface $-1 17.366983975657355 -18.784483318323524 0.15739194234787135 0 -0.69465837861970381 0.71933979245794832 1 0 0 forward_v I I I I #
loop $-1 $-1 $296 $73 #
coedge $-1 $186 $186 $187 $297 reversed $115 $-1 #
coedge $-1 $187 $187 $186 $297 forward $117 $-1 #
coedge $-1 $188 $188 $118 $189 forward $183 $-1 #
edge $-1 $298 1.9386277394169668e-015 $298 6.2831853071796022 $188 $299 forward 7 unknown #
face $-1 $300 $301 $40 $-1 $302 reversed single #
loop $-1 $-1 $303 $119 #
plane-surface $-1 -23.034070283787479 45.116359574130982 88.574770615443342 -1 0 0 0 0.6560590369687036 0.75470957328743171 forward_v I I I I #
coedge $-1 $304 $305 $306 $307 reversed $120 $-1 #
coedge $-1 $195 $122 $308 $309 reversed $77 $-1 #
coedge $-1 $122 $194 $304 $310 reversed $77 $-1 #
coedge $-1 $306 $311 $122 $197 forward $312 $-1 #
edge $-1 $313 3.7736964687419707 $314 8.9638714546677107 $196 $315 forward 7 unknown #
loop $-1 $-1 $203 $123 #
plane-surface $-1 -28.083031143025778 -9.5691754608701132 25.666260122310113 0 0.6560590369687036 0.75470957328743171 1 0 0 forward_v I I I I #
loop $-1 $-1 $316 $79 #
coedge $-1 $201 $201 $202 $317 reversed $124 $-1 #
coedge $-1 $202 $202 $201 $317 forward $126 $-1 #
coedge $-1 $203 $203 $127 $204 forward $198 $-1 #
edge $-1 $318 -1.1105596998597785e-015 $318 6.2831853071795996 $203 $319 forward 7 unknown #
face $-1 $320 $321 $42 $-1 $322 forward single #
loop $-1 $-1 $323 $128 #
plane-surface $-1 30.754211452233719 45.116359574130982 88.574770615443342 -1 0 0 0 0.6560590369687036 0.75470957328743171 forward_v I I I I #
coedge $-1 $324 $325 $326 $327 reversed $129 $-1 #
coedge $-1 $210 $131 $328 $329 reversed $83 $-1 #
coedge $-1 $131 $209 $324 $330 reversed $83 $-1 #
coedge $-1 $326 $331 $131 $212 forward $321 $-1 #
edge $-1 $332 3.7736964687419707 $333 8.9638714546677107 $211 $334 forward 7 unknown #
loop $-1 $-1 $218 $132 #
plane-surface $-1 25.705250592995419 -9.5691754608701132 25.666260122310113 0 0.6560590369687036 0.75470957328743171 1 0 0 forward_v I I I I #
loop $-1 $-1 $335 $85 #
coedge $-1 $216 $216 $217 $336 reversed $133 $-1 #
coedge $-1 $217 $217 $216 $336 forward $135 $-1 #
coedge $-1 $218 $218 $136 $219 forward $213 $-1 #
edge $-1 $337 -1.1105596998597785e-015 $337 6.2831853071795996 $218 $338 forward 7 unknown #
face $-1 $339 $340 $33 $-1 $341 reversed single #
loop $-1 $-1 $342 $137 #
plane-surface $-1 -41.677297280800808 0 0 1 0 0 0 0 -1 forward_v I I I I #
coedge $-1 $343 $231 $344 $345 forward $138 $-1 #
coedge $-1 $346 $140 $343 $347 forward $89 $-1 #
coedge $-1 $140 $346 $348 $349 forward $89 $-1 #
coedge $-1 $234 $233 $140 $227 reversed $235 $-1 #
edge $-1 $350 -18.78448331832352 $351 18.78448331832352 $226 $352 forward 7 unknown #
coedge $-1 $142 $141 $353 $354 forward $56 $-1 #
coedge $-1 $355 $356 $141 $230 reversed $340 $-1 #
edge $-1 $237 -41.677297280800808 $357 41.677297280800808 $229 $358 forward 7 unknown #
coedge $-1 $223 $359 $142 $232 reversed $138 $-1 #
edge $-1 $360 -41.677297280800808 $236 41.677297280800808 $231 $361 forward 7 unknown #
coedge $-1 $226 $143 $359 $362 forward $235 $-1 #
coedge $-1 $143 $226 $355 $363 reversed $235 $-1 #
loop $-1 $-1 $233 $339 #
vertex $-1 $144 $364 #
vertex $-1 $144 $365 #
straight-curve $-1 41.677297280800808 0 5.5305504292996766 0 1 0 I I #
face $-1 $366 $367 $34 $-1 $368 forward single #
loop $-1 $-1 $369 $145 #
plane-surface $-1 -41.677297280800808 0 0 1 0 0 0 0 -1 forward_v I I I I #
coedge $-1 $249 $370 $251 $371 forward $146 $-1 #
coedge $-1 $148 $251 $372 $373 reversed $93 $-1 #
coedge $-1 $374 $247 $148 $245 forward $375 $-1 #
edge $-1 $253 0.51527521464983828 $376 3.5152752146498383 $244 $377 forward 7 unknown #
coedge $-1 $150 $149 $369 $378 reversed $59 $-1 #
coedge $-1 $244 $379 $149 $248 forward $375 $-1 #
edge $-1 $380 -21.832259022972242 $253 -17.857817492684891 $247 $381 forward 7 unknown #
coedge $-1 $382 $242 $150 $250 forward $146 $-1 #
edge $-1 $252 17.857817492684891 $383 21.832259022972242 $249 $384 forward 7 unknown #
coedge $-1 $243 $151 $242 $371 reversed $93 $-1 #
vertex $-1 $250 $385 #
vertex $-1 $248 $386 #
straight-curve $-1 -37.702855750513457 0 2.5305504292996766 0 -1 0 I I #
face $-1 $387 $388 $35 $-1 $389 reversed single #
loop $-1 $-1 $390 $153 #
plane-surface $-1 0 0 -5.5305504292996766 0 0 1 1 0 0 forward_v I I I I #
coedge $-1 $391 $392 $158 $266 forward $154 $-1 #
coedge $-1 $393 $156 $390 $394 reversed $97 $-1 #
coedge $-1 $156 $393 $263 $395 reversed $97 $-1 #
coedge $-1 $264 $396 $156 $262 forward $388 $-1 #
edge $-1 $397 -3.5152752146498383 $398 -0.51527521464983828 $261 $399 forward 7 unknown #
coedge $-1 $158 $157 $260 $395 forward $62 $-1 #
coedge $-1 $400 $261 $157 $265 forward $388 $-1 #
edge $-1 $398 16.074482080162117 $270 22.426704160479833 $264 $401 forward 7 unknown #
edge $-1 $271 -22.426704160479833 $402 -16.074482080162117 $258 $403 forward 7 unknown #
coedge $-1 $404 $159 $392 $405 forward $269 $-1 #
coedge $-1 $159 $404 $400 $406 reversed $269 $-1 #
loop $-1 $-1 $159 $387 #
vertex $-1 $406 $407 #
vertex $-1 $405 $408 #
straight-curve $-1 41.677297280800808 0 -2.5305504292996766 0 -1 0 I I #
face $-1 $-1 $409 $36 $-1 $410 reversed single #
loop $-1 $-1 $167 $161 #
plane-surface $-1 0 0 5.5305504292996766 0 0 1 1 0 0 forward_v I I I I #
coedge $-1 $411 $412 $413 $414 reversed $162 $-1 #
coedge $-1 $415 $164 $166 $283 forward $101 $-1 #
coedge $-1 $164 $415 $411 $416 forward $101 $-1 #
coedge $-1 $413 $167 $164 $280 forward $274 $-1 #
edge $-1 $286 -17.992452630935151 $417 0.62546865527779616 $279 $418 forward 7 unknown #
coedge $-1 $419 $420 $165 $282 forward $409 $-1 #
edge $-1 $421 -29.901442405005529 $285 -24.528283918053727 $281 $422 forward 7 unknown #
edge $-1 $286 -7.7349653474681306 $421 -4.9464080715672286e-015 $166 $423 forward 7 unknown #
coedge $-1 $167 $413 $419 $424 forward $274 $-1 #
vertex $-1 $282 $425 #
vertex $-1 $168 $426 #
straight-curve $-1 26.675944618763829 -38.343725413494241 5.5305504292996766 0 1 0 I I #
coedge $-1 $288 $288 $-1 $427 reversed $171 $-1 #
edge $-1 $428 0 $428 6.2831853071796004 $172 $429 forward 7 unknown #
vertex $-1 $175 $430 #
ellipse-curve $-1 11.781607589793474 -16.00244913446495 2.8439711858237748 0 -0.69465837861970381 0.71933979245794832 1 0 0 1 I I #
coedge $-1 $292 $292 $-1 $431 reversed $178 $-1 #
edge $-1 $432 0 $432 6.2831853071796004 $179 $433 forward 7 unknown #
vertex $-1 $182 $434 #
ellipse-curve $-1 17.366983975657362 -16.00244913446495 2.8439711858237748 0 -0.69465837861970381 0.71933979245794832 1 0 0 1 I I #
coedge $-1 $296 $296 $-1 $435 reversed $185 $-1 #
edge $-1 $436 0 $436 6.2831853071796004 $186 $437 forward 7 unknown #
vertex $-1 $189 $438 #
ellipse-curve $-1 22.952360361521251 -16.00244913446495 2.8439711858237748 0 -0.69465837861970381 0.71933979245794832 1 0 0 1 I I #
face $-1 $-1 $312 $40 $-1 $439 forward single #
loop $-1 $-1 $440 $190 #
plane-surface $-1 0 18.78448331832352 0 0 -1 0 0 0 -1 forward_v I I I I #
coedge $-1 $441 $442 $443 $444 reversed $191 $-1 #
coedge $-1 $445 $193 $195 $310 forward $120 $-1 #
coedge $-1 $193 $445 $441 $446 forward $120 $-1 #
coedge $-1 $443 $196 $193 $307 forward $312 $-1 #
edge $-1 $314 -19.090476430751188 $447 -8.9925547122745897 $306 $448 forward 7 unknown #
coedge $-1 $449 $450 $194 $309 forward $301 $-1 #
edge $-1 $451 -43.268585256959561 $313 -38.756834878421998 $308 $452 forward 7 unknown #
edge $-1 $314 30.691917279345368 $451 37.568966636647033 $195 $453 forward 7 unknown #
coedge $-1 $196 $443 $449 $454 forward $312 $-1 #
loop $-1 $-1 $443 $300 #
vertex $-1 $309 $455 #
vertex $-1 $197 $456 #
straight-curve $-1 -33.131992002264077 22.558179787065491 5.5305504292996801 0 -1 0 I I #
coedge $-1 $316 $316 $-1 $457 reversed $200 $-1 #
edge $-1 $458 0 $458 6.2831853071796004 $201 $459 forward 7 unknown #
vertex $-1 $204 $460 #
ellipse-curve $-1 -28.083031143025778 16.189395825360648 3.2746752400309003 0 0.6560590369687036 0.75470957328743171 1 0 0 1 I I #
face $-1 $-1 $461 $42 $-1 $462 reversed single #
loop $-1 $-1 $211 $205 #
plane-surface $-1 0 0 5.5305504292996766 0 0 1 1 0 0 forward_v I I I I #
coedge $-1 $463 $464 $465 $466 reversed $206 $-1 #
coedge $-1 $467 $208 $210 $330 forward $129 $-1 #
coedge $-1 $208 $467 $463 $468 forward $129 $-1 #
coedge $-1 $465 $211 $208 $327 forward $321 $-1 #
edge $-1 $333 7.8036644372594104 $469 17.901586155736009 $326 $470 forward 7 unknown #
coedge $-1 $471 $472 $209 $329 forward $461 $-1 #
edge $-1 $473 -43.268585256959561 $332 -38.756834878421998 $328 $474 forward 7 unknown #
edge $-1 $333 30.691917279345368 $473 37.568966636647033 $210 $475 forward 7 unknown #
coedge $-1 $211 $465 $471 $476 forward $321 $-1 #
vertex $-1 $329 $477 #
vertex $-1 $212 $478 #
straight-curve $-1 20.65628973375712 22.558179787065491 5.5305504292996801 0 -1 0 I I #
coedge $-1 $335 $335 $-1 $479 reversed $215 $-1 #
edge $-1 $480 0 $480 6.2831853071796004 $216 $481 forward 7 unknown #
vertex $-1 $219 $482 #
ellipse-curve $-1 25.705250592995419 16.189395825360648 3.2746752400309003 0 0.6560590369687036 0.75470957328743171 1 0 0 1 I I #
face $-1 $-1 $235 $33 $-1 $483 reversed single #
loop $-1 $-1 $355 $220 #
plane-surface $-1 0 18.78448331832352 0 0 -1 0 0 0 -1 forward_v I I I I #
coedge $-1 $484 $353 $356 $485 forward $221 $-1 #
coedge $-1 $359 $223 $224 $347 reversed $138 $-1 #
coedge $-1 $353 $484 $223 $345 reversed $221 $-1 #
edge $-1 $360 -5.5305504292996766 $486 5.5305504292996766 $344 $487 forward 7 unknown #
coedge $-1 $225 $224 $484 $488 forward $89 $-1 #
edge $-1 $351 -41.677297280800808 $486 41.677297280800808 $343 $489 forward 7 unknown #
coedge $-1 $356 $355 $225 $349 reversed $340 $-1 #
edge $-1 $490 -41.677297280800808 $350 41.677297280800808 $348 $491 forward 7 unknown #
vertex $-1 $227 $492 #
vertex $-1 $362 $493 #
straight-curve $-1 41.677297280800808 0 -5.5305504292996766 0 -1 0 I I #
coedge $-1 $342 $344 $228 $354 reversed $221 $-1 #
edge $-1 $357 -18.78448331832352 $360 18.78448331832352 $353 $494 forward 7 unknown #
coedge $-1 $348 $229 $234 $363 forward $340 $-1 #
coedge $-1 $229 $348 $342 $485 reversed $340 $-1 #
vertex $-1 $230 $495 #
straight-curve $-1 0 18.78448331832352 5.5305504292996766 -1 0 0 I I #
coedge $-1 $231 $343 $233 $362 reversed $138 $-1 #
vertex $-1 $354 $496 #
straight-curve $-1 0 -18.78448331832352 5.5305504292996766 1 0 0 I I #
edge $-1 $236 -5.5305504292996766 $351 5.5305504292996766 $233 $497 forward 7 unknown #
edge $-1 $237 -5.5305504292996766 $350 5.5305504292996766 $234 $498 forward 7 unknown #
point $-1 41.677297280800808 -18.78448331832352 5.5305504292996766 #
point $-1 41.677297280800808 18.78448331832352 5.5305504292996766 #
face $-1 $-1 $375 $34 $-1 $499 reversed single #
loop $-1 $-1 $372 $239 #
plane-surface $-1 0 0 5.5305504292996766 0 0 1 1 0 0 forward_v I I I I #
coedge $-1 $500 $501 $246 $378 forward $240 $-1 #
coedge $-1 $242 $382 $502 $503 reversed $146 $-1 #
edge $-1 $504 -3.5152752146498383 $252 -0.51527521464983828 $242 $505 forward 7 unknown #
coedge $-1 $502 $506 $243 $373 forward $367 $-1 #
edge $-1 $376 -18.78448331832352 $504 18.78448331832352 $372 $507 forward 7 unknown #
coedge $-1 $379 $244 $506 $508 reversed $375 $-1 #
loop $-1 $-1 $244 $366 #
vertex $-1 $245 $509 #
straight-curve $-1 -37.702855750513457 -18.78448331832352 2.0152752146498383 0 0 1 I I #
edge $-1 $383 -18.78448331832352 $380 18.78448331832352 $369 $510 forward 7 unknown #
coedge $-1 $247 $374 $500 $511 forward $375 $-1 #
vertex $-1 $378 $512 #
straight-curve $-1 -19.845038257828566 -18.78448331832352 2.5305504292996766 1 0 0 I I #
coedge $-1 $370 $249 $501 $513 reversed $146 $-1 #
vertex $-1 $378 $514 #
straight-curve $-1 -19.845038257828566 18.78448331832352 2.5305504292996766 -1 0 0 I I #
point $-1 -37.702855750513457 18.78448331832352 2.5305504292996766 #
point $-1 -37.702855750513457 -18.78448331832352 2.5305504292996766 #
face $-1 $-1 $269 $35 $-1 $515 reversed single #
loop $-1 $-1 $264 $255 #
plane-surface $-1 0 18.78448331832352 0 0 -1 0 0 0 -1 forward_v I I I I #
coedge $-1 $516 $517 $259 $394 forward $256 $-1 #
coedge $-1 $518 $258 $393 $519 forward $154 $-1 #
coedge $-1 $258 $518 $267 $405 reversed $154 $-1 #
coedge $-1 $260 $259 $391 $519 reversed $97 $-1 #
edge $-1 $520 -18.78448331832352 $397 18.78448331832352 $390 $521 forward 7 unknown #
edge $-1 $398 -18.78448331832352 $402 18.78448331832352 $260 $522 forward 7 unknown #
coedge $-1 $261 $400 $516 $523 reversed $388 $-1 #
vertex $-1 $523 $524 #
vertex $-1 $265 $525 #
straight-curve $-1 35.325075200483091 18.78448331832352 -2.0152752146498383 0 0 1 I I #
coedge $-1 $396 $264 $268 $406 forward $388 $-1 #
straight-curve $-1 19.250593120320975 18.78448331832352 -2.5305504292996766 1 0 0 I I #
vertex $-1 $266 $526 #
straight-curve $-1 19.250593120320975 -18.78448331832352 -2.5305504292996766 -1 0 0 I I #
coedge $-1 $268 $267 $527 $528 reversed $269 $-1 #
edge $-1 $271 2.5305504292996766 $529 5.5305504292996766 $267 $530 forward 7 unknown #
edge $-1 $270 2.5305504292996766 $531 5.5305504292996766 $268 $532 forward 7 unknown #
point $-1 41.677297280800808 18.78448331832352 -2.5305504292996766 #
point $-1 41.677297280800808 -18.78448331832352 -2.5305504292996766 #
loop $-1 $-1 $281 $273 #
plane-surface $-1 0 -18.78448331832352 0 0 1 0 0 0 1 forward_v I I I I #
coedge $-1 $412 $276 $278 $416 reversed $162 $-1 #
coedge $-1 $276 $411 $533 $534 reversed $162 $-1 #
coedge $-1 $284 $279 $276 $414 forward $274 $-1 #
edge $-1 $417 -25.123310462887865 $535 -19.55924209517072 $413 $536 forward 7 unknown #
coedge $-1 $278 $277 $420 $537 reversed $101 $-1 #
edge $-1 $538 4.9464080715672286e-015 $417 7.7349653474681306 $411 $539 forward 7 unknown #
vertex $-1 $280 $540 #
straight-curve $-1 8.6834919878286776 -13.220414950606378 5.5305504292996766 -1 0 0 I I #
coedge $-1 $533 $281 $284 $424 reversed $409 $-1 #
coedge $-1 $281 $533 $415 $537 forward $409 $-1 #
vertex $-1 $282 $541 #
straight-curve $-1 26.675944618763829 -18.78448331832352 30.058834347353404 0 0 1 I I #
straight-curve $-1 26.675944618763829 -18.784483318323524 0.15739194234787135 0 -0.71933979245794832 -0.69465837861970381 I I #
edge $-1 $535 8.0580233325508814 $285 26.675944618763829 $419 $542 forward 7 unknown #
point $-1 26.675944618763829 -18.78448331832352 5.5305504292996766 #
point $-1 26.675944618763829 -13.220414950606376 5.5305504292996766 #
edge $-1 $543 1 $543 0 $288 $-1 forward 7 unknown #
vertex $-1 $289 $544 #
ellipse-curve $-1 11.781607589793474 -15.036346745717777 1.8435428987635869 0 -0.69465837861970381 0.71933979245794832 1 0 0 1 I I #
point $-1 12.781607589793474 -16.002449134464946 2.843971185823774 #
edge $-1 $545 1 $545 0 $292 $-1 forward 7 unknown #
vertex $-1 $293 $546 #
ellipse-curve $-1 17.366983975657362 -15.036346745717777 1.8435428987635869 0 -0.69465837861970381 0.71933979245794832 1 0 0 1 I I #
point $-1 18.366983975657362 -16.002449134464946 2.843971185823774 #
edge $-1 $547 1 $547 0 $296 $-1 forward 7 unknown #
vertex $-1 $297 $548 #
ellipse-curve $-1 22.952360361521251 -15.036346745717777 1.8435428987635869 0 -0.69465837861970381 0.71933979245794832 1 0 0 1 I I #
point $-1 23.952360361521251 -16.002449134464946 2.843971185823774 #
plane-surface $-1 0 0 5.5305504292996766 0 0 1 1 0 0 forward_v I I I I #
coedge $-1 $450 $449 $442 $549 forward $301 $-1 #
coedge $-1 $442 $303 $305 $446 reversed $191 $-1 #
coedge $-1 $303 $441 $440 $549 reversed $191 $-1 #
coedge $-1 $311 $306 $303 $444 forward $312 $-1 #
edge $-1 $447 -8.9638714546677107 $550 -3.7736964687419707 $443 $551 forward 7 unknown #
coedge $-1 $305 $304 $450 $552 reversed $120 $-1 #
edge $-1 $553 -37.568966636647033 $447 -30.691917279345368 $441 $554 forward 7 unknown #
vertex $-1 $307 $555 #
straight-curve $-1 -14.041515571512889 13.59430833239778 5.5305504292996801 1 0 0 I I #
coedge $-1 $440 $308 $311 $454 reversed $301 $-1 #
coedge $-1 $308 $440 $445 $552 forward $301 $-1 #
vertex $-1 $309 $556 #
straight-curve $-1 -33.131992002264077 18.78448331832352 44.287385307721671 0 0 1 I I #
straight-curve $-1 -33.131992002264077 -9.5691754608701132 25.666260122310113 0 0.75470957328743171 -0.6560590369687036 I I #
edge $-1 $550 23.034070283787479 $313 33.131992002264077 $449 $557 forward 7 unknown #
point $-1 -33.131992002264077 18.78448331832352 5.5305504292996766 #
point $-1 -33.131992002264077 13.59430833239778 5.5305504292996766 #
edge $-1 $558 1 $558 0 $316 $-1 forward 7 unknown #
vertex $-1 $317 $559 #
ellipse-curve $-1 -28.083031143025778 13.836777368928962 0.56829735128855852 0 0.6560590369687036 0.75470957328743171 1 0 0 1 I I #
point $-1 -27.083031143025778 16.189395825360634 3.2746752400308856 #
loop $-1 $-1 $328 $320 #
plane-surface $-1 0 18.78448331832352 0 0 -1 0 0 0 -1 forward_v I I I I #
coedge $-1 $464 $323 $325 $468 reversed $206 $-1 #
coedge $-1 $323 $463 $560 $561 reversed $206 $-1 #
coedge $-1 $331 $326 $323 $466 forward $321 $-1 #
edge $-1 $469 -8.9638714546677107 $562 -3.7736964687419707 $465 $563 forward 7 unknown #
coedge $-1 $325 $324 $472 $564 reversed $129 $-1 #
edge $-1 $565 -37.568966636647033 $469 -30.691917279345368 $463 $566 forward 7 unknown #
vertex $-1 $327 $567 #
straight-curve $-1 12.85262529649771 13.59430833239778 5.5305504292996801 1 0 0 I I #
coedge $-1 $560 $328 $331 $476 reversed $461 $-1 #
coedge $-1 $328 $560 $467 $564 forward $461 $-1 #
vertex $-1 $329 $568 #
straight-curve $-1 20.65628973375712 18.78448331832352 44.287385307721671 0 0 1 I I #
straight-curve $-1 20.65628973375712 -9.5691754608701132 25.666260122310113 0 0.75470957328743171 -0.6560590369687036 I I #
edge $-1 $562 -30.754211452233719 $332 -20.65628973375712 $471 $569 forward 7 unknown #
point $-1 20.65628973375712 18.78448331832352 5.5305504292996766 #
point $-1 20.65628973375712 13.59430833239778 5.5305504292996766 #
edge $-1 $570 1 $570 0 $335 $-1 forward 7 unknown #
vertex $-1 $336 $571 #
ellipse-curve $-1 25.705250592995419 13.836777368928962 0.56829735128855852 0 0.6560590369687036 0.75470957328743171 1 0 0 1 I I #
point $-1 26.705250592995419 16.189395825360634 3.2746752400308856 #
plane-surface $-1 41.677297280800808 0 0 -1 0 0 0 0 1 forward_v I I I I #
coedge $-1 $344 $342 $346 $488 reversed $221 $-1 #
edge $-1 $357 -5.5305504292996766 $490 5.5305504292996766 $356 $572 forward 7 unknown #
vertex $-1 $488 $573 #
straight-curve $-1 -41.677297280800808 -18.78448331832352 0 0 0 -1 I I #
edge $-1 $486 -18.78448331832352 $490 18.78448331832352 $484 $574 forward 7 unknown #
straight-curve $-1 0 -18.78448331832352 -5.5305504292996766 -1 0 0 I I #
vertex $-1 $349 $575 #
straight-curve $-1 0 18.78448331832352 -5.5305504292996766 1 0 0 I I #
point $-1 41.677297280800808 18.78448331832352 -5.5305504292996766 #
point $-1 41.677297280800808 -18.78448331832352 -5.5305504292996766 #
straight-curve $-1 -41.677297280800808 0 5.5305504292996766 0 -1 0 I I #
point $-1 -41.677297280800808 18.78448331832352 5.5305504292996766 #
point $-1 -41.677297280800808 -18.78448331832352 5.5305504292996766 #
straight-curve $-1 41.677297280800808 -18.78448331832352 0 0 0 -1 I I #
straight-curve $-1 41.677297280800808 18.78448331832352 0 0 0 -1 I I #
plane-surface $-1 0 -18.78448331832352 0 0 1 0 0 0 1 forward_v I I I I #
coedge $-1 $576 $369 $379 $511 reversed $240 $-1 #
coedge $-1 $369 $576 $382 $513 forward $240 $-1 #
coedge $-1 $577 $372 $370 $503 forward $367 $-1 #
edge $-1 $504 37.702855750513457 $578 41.677297280800808 $370 $579 forward 7 unknown #
vertex $-1 $503 $580 #
straight-curve $-1 -37.702855750513457 18.78448331832352 2.0152752146498383 0 0 -1 I I #
coedge $-1 $372 $577 $374 $508 forward $367 $-1 #
straight-curve $-1 -37.702855750513457 0 5.5305504292996766 0 1 0 I I #
edge $-1 $581 -41.677297280800808 $376 -37.702855750513457 $374 $582 forward 7 unknown #
point $-1 -37.702855750513457 -18.78448331832352 5.5305504292996766 #
straight-curve $-1 -41.677297280800808 0 2.5305504292996766 0 -1 0 I I #
edge $-1 $581 -5.5305504292996766 $380 -2.5305504292996766 $500 $583 forward 7 unknown #
point $-1 -41.677297280800808 -18.78448331832352 2.5305504292996766 #
edge $-1 $578 -5.5305504292996766 $383 -2.5305504292996766 $382 $584 forward 7 unknown #
point $-1 -41.677297280800808 18.78448331832352 2.5305504292996766 #
plane-surface $-1 41.677297280800808 0 0 -1 0 0 0 0 1 forward_v I I I I #
coedge $-1 $527 $390 $396 $523 forward $256 $-1 #
coedge $-1 $390 $527 $518 $585 forward $256 $-1 #
coedge $-1 $392 $391 $517 $585 reversed $154 $-1 #
edge $-1 $402 0.51527521464983828 $520 3.5152752146498383 $391 $586 forward 7 unknown #
vertex $-1 $394 $587 #
straight-curve $-1 35.325075200483091 0 -5.5305504292996766 0 1 0 I I #
straight-curve $-1 35.325075200483091 0 -2.5305504292996766 0 -1 0 I I #
edge $-1 $397 35.325075200483091 $531 41.677297280800808 $396 $588 forward 7 unknown #
point $-1 35.325075200483091 18.78448331832352 -5.5305504292996766 #
point $-1 35.325075200483091 18.78448331832352 -2.5305504292996766 #
point $-1 35.325075200483091 -18.78448331832352 -2.5305504292996766 #
coedge $-1 $517 $516 $404 $528 forward $256 $-1 #
edge $-1 $531 -18.78448331832352 $529 18.78448331832352 $404 $589 forward 7 unknown #
vertex $-1 $405 $590 #
straight-curve $-1 41.677297280800808 -18.78448331832352 0 0 0 -1 I I #
vertex $-1 $528 $591 #
straight-curve $-1 41.677297280800808 18.78448331832352 0 0 0 -1 I I #
coedge $-1 $420 $419 $412 $534 forward $409 $-1 #
edge $-1 $535 24.528283918053727 $538 29.901442405005529 $533 $592 forward 7 unknown #
vertex $-1 $424 $593 #
straight-curve $-1 8.0580233325508814 -38.343725413494241 5.5305504292996766 0 -1 0 I I #
edge $-1 $538 -0.62546865527779616 $421 17.992452630935151 $420 $594 forward 7 unknown #
vertex $-1 $537 $595 #
straight-curve $-1 8.0580233325508814 -18.784483318323524 0.15739194234787135 0 0.71933979245794832 0.69465837861970381 I I #
point $-1 8.0580233325508814 -13.220414950606376 5.5305504292996766 #
point $-1 26.675944618763829 -18.78448331832352 0.15739194234787479 #
straight-curve $-1 0 -18.78448331832352 5.5305504292996766 1 0 0 I I #
vertex $-1 $427 $596 #
point $-1 12.781607589793474 -15.036346745717777 1.8435428987635869 #
vertex $-1 $431 $597 #
point $-1 18.366983975657362 -15.036346745717777 1.8435428987635869 #
vertex $-1 $435 $598 #
point $-1 23.952360361521251 -15.036346745717777 1.8435428987635869 #
edge $-1 $550 38.756834878421998 $553 43.268585256959561 $440 $599 forward 7 unknown #
vertex $-1 $454 $600 #
straight-curve $-1 -23.034070283787479 22.558179787065491 5.5305504292996801 0 1 0 I I #
edge $-1 $553 8.9925547122745897 $451 19.090476430751188 $450 $601 forward 7 unknown #
vertex $-1 $552 $602 #
straight-curve $-1 -23.034070283787479 -9.5691754608701132 25.666260122310113 0 -0.75470957328743171 0.6560590369687036 I I #
point $-1 -23.034070283787479 13.59430833239778 5.5305504292996766 #
point $-1 -33.131992002264077 18.784483318323524 1.0188000507621098 #
straight-curve $-1 0 18.78448331832352 5.5305504292996766 -1 0 0 I I #
vertex $-1 $457 $603 #
point $-1 -27.083031143025778 13.836777368928962 0.56829735128855852 #
coedge $-1 $472 $471 $464 $561 forward $461 $-1 #
edge $-1 $562 38.756834878421998 $565 43.268585256959561 $560 $604 forward 7 unknown #
vertex $-1 $476 $605 #
straight-curve $-1 30.754211452233719 22.558179787065491 5.5305504292996801 0 1 0 I I #
edge $-1 $565 -17.901586155736009 $473 -7.8036644372594104 $472 $606 forward 7 unknown #
vertex $-1 $564 $607 #
straight-curve $-1 30.754211452233719 -9.5691754608701132 25.666260122310113 0 -0.75470957328743171 0.6560590369687036 I I #
point $-1 30.754211452233719 13.59430833239778 5.5305504292996766 #
point $-1 20.65628973375712 18.784483318323524 1.0188000507621098 #
straight-curve $-1 0 18.78448331832352 5.5305504292996766 -1 0 0 I I #
vertex $-1 $479 $608 #
point $-1 26.705250592995419 13.836777368928962 0.56829735128855852 #
straight-curve $-1 -41.677297280800808 18.78448331832352 0 0 0 -1 I I #
point $-1 -41.677297280800808 -18.78448331832352 -5.5305504292996766 #
straight-curve $-1 -41.677297280800808 0 -5.5305504292996766 0 1 0 I I #
point $-1 -41.677297280800808 18.78448331832352 -5.5305504292996766 #
coedge $-1 $501 $500 $577 $609 reversed $240 $-1 #
coedge $-1 $506 $502 $576 $609 forward $367 $-1 #
vertex $-1 $503 $610 #
straight-curve $-1 0 18.78448331832352 5.5305504292996766 -1 0 0 I I #
point $-1 -37.702855750513457 18.78448331832352 5.5305504292996766 #
vertex $-1 $609 $611 #
straight-curve $-1 0 -18.78448331832352 5.5305504292996766 1 0 0 I I #
straight-curve $-1 -41.677297280800808 -18.78448331832352 0 0 0 -1 I I #
straight-curve $-1 -41.677297280800808 18.78448331832352 0 0 0 -1 I I #
edge $-1 $529 -41.677297280800808 $520 -35.325075200483091 $518 $612 forward 7 unknown #
straight-curve $-1 35.325075200483091 -18.78448331832352 -2.0152752146498383 0 0 -1 I I #
point $-1 35.325075200483091 -18.78448331832352 -5.5305504292996766 #
straight-curve $-1 0 18.78448331832352 -5.5305504292996766 1 0 0 I I #
straight-curve $-1 41.677297280800808 0 -5.5305504292996766 0 -1 0 I I #
point $-1 41.677297280800808 -18.78448331832352 -5.5305504292996766 #
point $-1 41.677297280800808 18.78448331832352 -5.5305504292996766 #
straight-curve $-1 8.0580233325508814 -18.78448331832352 30.058834347353404 0 0 -1 I I #
point $-1 8.0580233325508814 -18.78448331832352 5.5305504292996766 #
straight-curve $-1 8.6834919878286776 -18.78448331832352 0.15739194234787651 1 0 0 I I #
point $-1 8.0580233325508814 -18.78448331832352 0.15739194234787479 #
point $-1 11.781607589793474 -14.341688367098074 1.1242031063056381 #
point $-1 17.366983975657362 -14.341688367098074 1.1242031063056381 #
point $-1 22.952360361521251 -14.341688367098074 1.1242031063056381 #
straight-curve $-1 -23.034070283787479 18.78448331832352 44.287385307721671 0 0 -1 I I #
point $-1 -23.034070283787479 18.78448331832352 5.5305504292996766 #
straight-curve $-1 -14.041515571512889 18.78448331832352 1.0188000507621116 -1 0 0 I I #
point $-1 -23.034070283787479 18.784483318323524 1.0188000507621098 #
point $-1 -28.083031143025778 13.180718331960259 -0.18641222199887325 #
straight-curve $-1 30.754211452233719 18.78448331832352 44.287385307721671 0 0 -1 I I #
point $-1 30.754211452233719 18.78448331832352 5.5305504292996766 #
straight-curve $-1 12.85262529649771 18.78448331832352 1.0188000507621116 -1 0 0 I I #
point $-1 30.754211452233719 18.784483318323524 1.0188000507621098 #
point $-1 25.705250592995419 13.180718331960259 -0.18641222199887325 #
edge $-1 $578 -18.78448331832352 $581 18.78448331832352 $576 $613 forward 7 unknown #
point $-1 -41.677297280800808 18.78448331832352 5.5305504292996766 #
point $-1 -41.677297280800808 -18.78448331832352 5.5305504292996766 #
straight-curve $-1 0 -18.78448331832352 -5.5305504292996766 -1 0 0 I I #
straight-curve $-1 -41.677297280800808 0 5.5305504292996766 0 -1 0 I I #
End-of-ACIS-data 