500 0 9 0           
7 Unknown 11 ACIS 5.0 NT 24 Fri Mar 26 16:45:55 1999 
-1 9.9999999999999995e-007 1e-010 
body $-1 $9 $-1 $10 #
body $-1 $11 $-1 $12 #
body $-1 $13 $-1 $14 #
body $-1 $15 $-1 $16 #
body $-1 $17 $-1 $18 #
body $-1 $19 $-1 $20 #
body $-1 $21 $-1 $22 #
body $-1 $23 $-1 $24 #
body $-1 $25 $-1 $26 #
lump $-1 $-1 $27 $0 #
transform $-1 1 0 0 0 1 0 0 0 1 53.271889400921658 23.652315700901166 9.6184303327893321 1 rotate no_reflect no_shear #
lump $-1 $-1 $28 $1 #
transform $-1 1 0 0 0 1 0 0 0 1 53.271889400921658 23.652315700901166 9.6184303327893321 1 rotate no_reflect no_shear #
lump $-1 $-1 $29 $2 #
transform $-1 1 0 0 0 1 0 0 0 1 53.271889400921658 23.652315700901166 9.6184303327893321 1 rotate no_reflect no_shear #
lump $-1 $-1 $30 $3 #
transform $-1 1 0 0 0 1 0 0 0 1 53.271889400921658 23.652315700901166 9.6184303327893321 1 rotate no_reflect no_shear #
lump $-1 $-1 $31 $4 #
transform $-1 1 0 0 0 1 0 0 0 1 53.271889400921658 23.652315700901166 9.6184303327893321 1 rotate no_reflect no_shear #
lump $-1 $-1 $32 $5 #
transform $-1 1 0 0 0 1 0 0 0 1 53.271889400921658 23.652315700901166 9.6184303327893321 1 rotate no_reflect no_shear #
lump $-1 $-1 $33 $6 #
transform $-1 1 0 0 0 1 0 0 0 1 53.271889400921658 23.652315700901166 9.6184303327893321 1 rotate no_reflect no_shear #
lump $-1 $-1 $34 $7 #
transform $-1 1 0 0 0 1 0 0 0 1 53.271889400921658 23.652315700901166 9.6184303327893321 1 rotate no_reflect no_shear #
lump $-1 $-1 $35 $8 #
transform $-1 1 0 0 0 1 0 0 0 1 53.271889400921658 23.652315700901166 9.6184303327893321 1 rotate no_reflect no_shear #
shell $-1 $-1 $-1 $36 $-1 $9 #
shell $-1 $-1 $-1 $37 $-1 $11 #
shell $-1 $-1 $-1 $38 $-1 $13 #
shell $-1 $-1 $-1 $39 $-1 $15 #
shell $-1 $-1 $-1 $40 $-1 $17 #
shell $-1 $-1 $-1 $41 $-1 $19 #
shell $-1 $-1 $-1 $42 $-1 $21 #
shell $-1 $-1 $-1 $43 $-1 $23 #
shell $-1 $-1 $-1 $44 $-1 $25 #
face $-1 $45 $46 $27 $-1 $47 forward single #
face $-1 $48 $49 $28 $-1 $50 forward single #
face $-1 $51 $52 $29 $-1 $53 forward single #
face $-1 $54 $55 $30 $-1 $56 reversed single #
face $-1 $57 $58 $31 $-1 $59 forward single #
face $-1 $60 $61 $32 $-1 $62 forward single #
face $-1 $63 $64 $33 $-1 $65 reversed single #
face $-1 $66 $67 $34 $-1 $68 forward single #
face $-1 $69 $70 $35 $-1 $71 forward single #
face $-1 $72 $73 $27 $-1 $74 reversed single #
loop $-1 $-1 $75 $36 #
plane-surface $-1 0 0 9.6184303327893321 0 0 1 1 0 0 forward_v I I I I #
face $-1 $76 $77 $28 $-1 $78 reversed single #
loop $-1 $-1 $79 $37 #
plane-surface $-1 -49.93671548820096 0 -6.6184303327893321 0 0 1 1 0 0 forward_v I I I I #
face $-1 $80 $81 $29 $-1 $82 reversed single #
loop $-1 $-1 $83 $38 #
plane-surface $-1 48.052046779345481 0 -1.9491002735300853 0 0 1 1 0 0 forward_v I I I I #
face $-1 $84 $85 $30 $-1 $86 reversed single #
loop $-1 $-1 $87 $39 #
plane-surface $-1 10.966986415477059 -94.944019871759153 81.656414480976039 1 0 0 0 0.66913061440640931 -0.74314481823134659 forward_v I I I I #
face $-1 $88 $89 $31 $-1 $90 forward single #
loop $-1 $91 $92 $40 #
cone-surface $-1 13.585869946346286 -18.83236303581241 5.0987217525427546 0 0.66913061440640931 -0.74314481823134659 1 0 0 1 I I 0 1 1 forward I I I I #
face $-1 $93 $94 $32 $-1 $95 forward single #
loop $-1 $96 $97 $41 #
cone-surface $-1 17.514195242650125 -18.83236303581241 5.0987217525427546 0 0.66913061440640931 -0.74314481823134659 1 0 0 1 I I 0 1 1 forward I I I I #
face $-1 $98 $99 $33 $-1 $100 reversed single #
loop $-1 $-1 $101 $42 #
plane-surface $-1 18.637830348764069 49.992805063393533 117.09058990570048 -1 0 0 0 0.6018150307709319 0.79863550430605224 forward_v I I I I #
face $-1 $102 $103 $34 $-1 $104 forward single #
loop $-1 $105 $106 $43 #
cone-surface $-1 11.017583455165713 18.629922999357465 5.2694058227923541 0 -0.6018150307709319 -0.79863550430605224 1 0 0 1 I I 0 1 1 forward I I I I #
face $-1 $107 $108 $35 $-1 $109 forward single #
loop $-1 $110 $111 $44 #
cone-surface $-1 15.589731591324728 18.629922999357465 5.2694058227923541 0 -0.6018150307709319 -0.79863550430605224 1 0 0 1 I I 0 1 1 forward I I I I #
face $-1 $112 $113 $27 $-1 $114 reversed single #
loop $-1 $-1 $115 $45 #
plane-surface $-1 0 0 -9.6184303327893321 0 0 1 1 0 0 forward_v I I I I #
coedge $-1 $116 $117 $118 $119 forward $46 $-1 #
face $-1 $120 $121 $28 $-1 $122 reversed single #
loop $-1 $-1 $123 $48 #
plane-surface $-1 -46.601541575480262 0 -8.1184303327893321 -1 0 0 0 0 1 forward_v I I I I #
coedge $-1 $124 $125 $126 $127 forward $49 $-1 #
face $-1 $128 $129 $29 $-1 $130 reversed single #
loop $-1 $-1 $131 $51 #
plane-surface $-1 48.052046779345481 0 -4.9491002735300853 0 0 1 1 0 0 forward_v I I I I #
coedge $-1 $132 $133 $134 $135 reversed $52 $-1 #
face $-1 $136 $137 $30 $-1 $138 reversed single #
loop $-1 $-1 $139 $54 #
plane-surface $-1 15.550032594498212 -23.65231570090117 2.4789573495993835 0 -0.66913061440640931 0.74314481823134659 1 0 0 forward_v I I I I #
coedge $-1 $140 $141 $142 $143 reversed $55 $-1 #
face $-1 $-1 $144 $31 $-1 $145 forward single #
loop $-1 $146 $147 $57 #
cone-surface $-1 13.585869946346286 -17.642438999389746 3.7771772547754718 0 0.66913061440640931 -0.74314481823134659 0.5 0 0 1 I I -0.70710678118654746 0.70710678118654746 0.5 forward I I I I #
loop $-1 $-1 $148 $40 #
coedge $-1 $92 $92 $149 $150 reversed $58 $-1 #
face $-1 $-1 $151 $32 $-1 $152 forward single #
loop $-1 $153 $154 $60 #
cone-surface $-1 17.514195242650125 -17.642438999389746 3.7771772547754718 0 0.66913061440640931 -0.74314481823134659 0.5 0 0 1 I I -0.70710678118654746 0.70710678118654746 0.5 forward I I I I #
loop $-1 $-1 $155 $41 #
coedge $-1 $97 $97 $156 $157 reversed $61 $-1 #
face $-1 $158 $159 $33 $-1 $160 reversed single #
loop $-1 $-1 $161 $63 #
plane-surface $-1 13.303657523245214 -14.126842454689168 32.000945391617861 0 0.6018150307709319 0.79863550430605224 1 0 0 forward_v I I I I #
coedge $-1 $162 $163 $164 $165 reversed $64 $-1 #
face $-1 $-1 $166 $34 $-1 $167 forward single #
loop $-1 $168 $169 $66 #
cone-surface $-1 11.017583455165713 17.344901803172167 3.5641251325697194 0 -0.6018150307709319 -0.79863550430605224 0.5 0 0 1 I I -0.70710678118654746 0.70710678118654746 0.5 forward I I I I #
loop $-1 $-1 $170 $43 #
coedge $-1 $106 $106 $171 $172 reversed $67 $-1 #
face $-1 $-1 $173 $35 $-1 $174 forward single #
loop $-1 $175 $176 $69 #
cone-surface $-1 15.589731591324728 17.344901803172167 3.5641251325697194 0 -0.6018150307709319 -0.79863550430605224 0.5 0 0 1 I I -0.70710678118654746 0.70710678118654746 0.5 forward I I I I #
loop $-1 $-1 $177 $44 #
coedge $-1 $111 $111 $178 $179 reversed $70 $-1 #
face $-1 $180 $181 $27 $-1 $182 reversed single #
loop $-1 $-1 $183 $72 #
plane-surface $-1 0 -23.652315700901166 0 0 1 0 0 0 1 forward_v I I I I #
coedge $-1 $184 $185 $186 $187 forward $73 $-1 #
coedge $-1 $188 $75 $189 $190 forward $46 $-1 #
coedge $-1 $75 $188 $191 $192 forward $46 $-1 #
coedge $-1 $193 $194 $75 $119 reversed $195 $-1 #
edge $-1 $196 -23.652315700901166 $197 23.652315700901166 $118 $198 forward 7 unknown #
face $-1 $199 $200 $28 $-1 $201 reversed single #
loop $-1 $-1 $202 $76 #
plane-surface $-1 0 0 -9.6184303327893321 0 0 1 1 0 0 forward_v I I I I #
coedge $-1 $203 $126 $204 $205 reversed $77 $-1 #
coedge $-1 $206 $79 $207 $208 reversed $49 $-1 #
coedge $-1 $79 $206 $209 $210 reversed $49 $-1 #
coedge $-1 $123 $211 $79 $127 reversed $77 $-1 #
edge $-1 $212 -23.652315700901166 $213 23.652315700901166 $126 $214 forward 7 unknown #
face $-1 $215 $216 $29 $-1 $217 reversed single #
loop $-1 $-1 $218 $80 #
plane-surface $-1 42.832204157769311 0 -3.4491002735300853 1 0 0 0 0 -1 forward_v I I I I #
coedge $-1 $219 $220 $221 $222 reversed $81 $-1 #
coedge $-1 $223 $83 $224 $225 reversed $52 $-1 #
coedge $-1 $83 $223 $226 $227 reversed $52 $-1 #
coedge $-1 $228 $229 $83 $135 forward $230 $-1 #
edge $-1 $231 -23.652315700901166 $232 23.652315700901166 $134 $233 forward 7 unknown #
face $-1 $234 $235 $30 $-1 $236 forward single #
loop $-1 $-1 $237 $84 #
plane-surface $-1 20.133078773519365 -94.944019871759153 81.656414480976039 -1 0 0 0 -0.66913061440640931 0.74314481823134659 forward_v I I I I #
coedge $-1 $238 $239 $240 $241 reversed $85 $-1 #
coedge $-1 $141 $87 $242 $243 reversed $55 $-1 #
coedge $-1 $87 $140 $238 $244 reversed $55 $-1 #
coedge $-1 $240 $245 $87 $143 forward $246 $-1 #
edge $-1 $247 31.209776907698689 $248 38.349249890888636 $142 $249 forward 7 unknown #
loop $-1 $-1 $149 $88 #
plane-surface $-1 15.550032594498212 -23.65231570090117 2.4789573495993835 0 -0.66913061440640931 0.74314481823134659 1 0 0 forward_v I I I I #
loop $-1 $-1 $250 $57 #
coedge $-1 $147 $147 $148 $251 reversed $89 $-1 #
coedge $-1 $148 $148 $147 $251 forward $91 $-1 #
coedge $-1 $149 $149 $92 $150 forward $144 $-1 #
edge $-1 $252 -1.120209920385225e-015 $252 6.2831853071795996 $149 $253 forward 7 unknown #
loop $-1 $-1 $156 $93 #
plane-surface $-1 15.550032594498212 -23.65231570090117 2.4789573495993835 0 -0.66913061440640931 0.74314481823134659 1 0 0 forward_v I I I I #
loop $-1 $-1 $254 $60 #
coedge $-1 $154 $154 $155 $255 reversed $94 $-1 #
coedge $-1 $155 $155 $154 $255 forward $96 $-1 #
coedge $-1 $156 $156 $97 $157 forward $151 $-1 #
edge $-1 $256 -1.120209920385225e-015 $256 6.2831853071795996 $156 $257 forward 7 unknown #
face $-1 $258 $259 $33 $-1 $260 reversed single #
loop $-1 $-1 $261 $98 #
plane-surface $-1 7.969484697726358 49.992805063393533 117.09058990570048 1 0 0 0 -0.6018150307709319 -0.79863550430605224 forward_v I I I I #
coedge $-1 $262 $263 $264 $265 reversed $99 $-1 #
coedge $-1 $163 $101 $266 $267 reversed $64 $-1 #
coedge $-1 $101 $162 $262 $268 reversed $64 $-1 #
coedge $-1 $264 $269 $101 $165 forward $259 $-1 #
edge $-1 $270 48.926864620060911 $271 55.01298776391566 $164 $272 forward 7 unknown #
loop $-1 $-1 $171 $102 #
plane-surface $-1 13.303657523245214 -14.126842454689168 32.000945391617861 0 0.6018150307709319 0.79863550430605224 1 0 0 forward_v I I I I #
loop $-1 $-1 $273 $66 #
coedge $-1 $169 $169 $170 $274 reversed $103 $-1 #
coedge $-1 $170 $170 $169 $274 forward $105 $-1 #
coedge $-1 $171 $171 $106 $172 forward $166 $-1 #
edge $-1 $275 -2.1380764919276341e-015 $275 6.2831853071795987 $171 $276 forward 7 unknown #
loop $-1 $-1 $178 $107 #
plane-surface $-1 13.303657523245214 -14.126842454689168 32.000945391617861 0 0.6018150307709319 0.79863550430605224 1 0 0 forward_v I I I I #
loop $-1 $-1 $277 $69 #
coedge $-1 $176 $176 $177 $278 reversed $108 $-1 #
coedge $-1 $177 $177 $176 $278 forward $110 $-1 #
coedge $-1 $178 $178 $111 $179 forward $173 $-1 #
edge $-1 $279 -2.1380764919276341e-015 $279 6.2831853071795987 $178 $280 forward 7 unknown #
face $-1 $281 $282 $27 $-1 $283 reversed single #
loop $-1 $-1 $284 $112 #
plane-surface $-1 -53.271889400921658 0 0 1 0 0 0 0 -1 forward_v I I I I #
coedge $-1 $285 $191 $286 $287 forward $113 $-1 #
coedge $-1 $288 $115 $285 $289 forward $73 $-1 #
coedge $-1 $115 $288 $290 $291 forward $73 $-1 #
coedge $-1 $194 $193 $115 $187 reversed $195 $-1 #
edge $-1 $292 -23.652315700901166 $293 23.652315700901166 $186 $294 forward 7 unknown #
coedge $-1 $117 $116 $295 $296 forward $46 $-1 #
coedge $-1 $297 $298 $116 $190 reversed $282 $-1 #
edge $-1 $197 -53.271889400921658 $299 53.271889400921658 $189 $300 forward 7 unknown #
coedge $-1 $183 $301 $117 $192 reversed $113 $-1 #
edge $-1 $302 -53.271889400921658 $196 53.271889400921658 $191 $303 forward 7 unknown #
coedge $-1 $186 $118 $301 $304 forward $195 $-1 #
coedge $-1 $118 $186 $297 $305 reversed $195 $-1 #
loop $-1 $-1 $193 $281 #
vertex $-1 $119 $306 #
vertex $-1 $119 $307 #
straight-curve $-1 53.271889400921658 0 9.6184303327893321 0 1 0 I I #
face $-1 $308 $309 $28 $-1 $310 reversed single #
loop $-1 $-1 $204 $120 #
plane-surface $-1 0 -23.652315700901166 0 0 1 0 0 0 1 forward_v I I I I #
coedge $-1 $311 $312 $203 $313 forward $121 $-1 #
coedge $-1 $211 $123 $202 $313 reversed $77 $-1 #
coedge $-1 $209 $314 $123 $205 forward $200 $-1 #
edge $-1 $315 -5.5592151663946661 $212 -2.5592151663946661 $204 $316 forward 7 unknown #
coedge $-1 $125 $124 $317 $318 reversed $49 $-1 #
coedge $-1 $319 $320 $124 $208 forward $321 $-1 #
edge $-1 $322 -28.303531656821178 $213 -21.633183831379782 $207 $323 forward 7 unknown #
coedge $-1 $324 $204 $125 $210 forward $200 $-1 #
edge $-1 $212 21.633183831379782 $325 28.303531656821178 $209 $326 forward 7 unknown #
coedge $-1 $126 $203 $319 $327 reversed $77 $-1 #
vertex $-1 $210 $328 #
vertex $-1 $208 $329 #
straight-curve $-1 -46.601541575480262 0 -6.6184303327893321 0 1 0 I I #
face $-1 $330 $331 $29 $-1 $332 reversed single #
loop $-1 $-1 $226 $128 #
plane-surface $-1 0 -23.652315700901166 0 0 1 0 0 0 1 forward_v I I I I #
coedge $-1 $333 $334 $335 $336 reversed $129 $-1 #
coedge $-1 $337 $131 $338 $339 reversed $81 $-1 #
coedge $-1 $131 $337 $340 $341 reversed $81 $-1 #
coedge $-1 $229 $228 $131 $222 forward $230 $-1 #
edge $-1 $342 -23.652315700901166 $343 23.652315700901166 $221 $344 forward 7 unknown #
coedge $-1 $133 $132 $334 $345 forward $52 $-1 #
coedge $-1 $346 $335 $132 $225 forward $331 $-1 #
edge $-1 $347 18.806180768096571 $231 29.245866011248911 $224 $348 forward 7 unknown #
coedge $-1 $349 $350 $133 $227 forward $216 $-1 #
edge $-1 $232 -29.245866011248911 $351 -18.806180768096571 $226 $352 forward 7 unknown #
coedge $-1 $221 $134 $350 $353 forward $230 $-1 #
coedge $-1 $134 $221 $346 $354 reversed $230 $-1 #
loop $-1 $-1 $134 $330 #
vertex $-1 $354 $355 #
vertex $-1 $353 $356 #
straight-curve $-1 53.271889400921658 0 -1.9491002735300853 0 -1 0 I I #
face $-1 $-1 $246 $30 $-1 $357 reversed single #
loop $-1 $-1 $358 $136 #
plane-surface $-1 0 0 9.6184303327893321 0 0 1 1 0 0 forward_v I I I I #
coedge $-1 $359 $360 $361 $362 reversed $137 $-1 #
coedge $-1 $363 $139 $141 $244 forward $85 $-1 #
coedge $-1 $139 $363 $359 $364 forward $85 $-1 #
coedge $-1 $361 $142 $139 $241 forward $246 $-1 #
edge $-1 $248 3.1919701182279532 $365 12.358062476270259 $240 $366 forward 7 unknown #
coedge $-1 $367 $368 $140 $243 forward $235 $-1 #
edge $-1 $369 -31.748882106717016 $247 -23.81969423497841 $242 $370 forward 7 unknown #
edge $-1 $248 4.720256561927822e-015 $369 10.669774823445234 $141 $371 forward 7 unknown #
coedge $-1 $142 $361 $367 $372 reversed $246 $-1 #
loop $-1 $-1 $361 $234 #
vertex $-1 $372 $373 #
vertex $-1 $143 $374 #
straight-curve $-1 10.966986415477059 -23.652315700901163 40.82820724048802 0 0 -1 I I #
coedge $-1 $250 $250 $-1 $375 reversed $146 $-1 #
edge $-1 $376 0 $376 6.2831853071796004 $147 $377 forward 7 unknown #
vertex $-1 $150 $378 #
ellipse-curve $-1 13.585869946346286 -19.687721765031863 6.0486938411943578 0 -0.66913061440640931 0.74314481823134659 1 0 0 1 I I #
coedge $-1 $254 $254 $-1 $379 reversed $153 $-1 #
edge $-1 $380 0 $380 6.2831853071796004 $154 $381 forward 7 unknown #
vertex $-1 $157 $382 #
ellipse-curve $-1 17.514195242650125 -19.687721765031863 6.0486938411943578 0 -0.66913061440640931 0.74314481823134659 1 0 0 1 I I #
face $-1 $-1 $383 $33 $-1 $384 forward single #
loop $-1 $-1 $164 $158 #
plane-surface $-1 0 23.652315700901166 0 0 -1 0 0 0 -1 forward_v I I I I #
coedge $-1 $385 $386 $387 $388 reversed $159 $-1 #
coedge $-1 $389 $161 $163 $268 forward $99 $-1 #
coedge $-1 $161 $389 $385 $390 forward $99 $-1 #
coedge $-1 $387 $164 $161 $265 forward $259 $-1 #
edge $-1 $271 -11.986001587141462 $391 -1.3176559361037512 $264 $392 forward 7 unknown #
coedge $-1 $393 $394 $162 $267 forward $383 $-1 #
edge $-1 $395 -9.4206448722833507 $270 -1.3440868307956002 $266 $396 forward 7 unknown #
edge $-1 $271 -47.304631401802354 $395 -37.191685010187058 $163 $397 forward 7 unknown #
coedge $-1 $164 $387 $393 $398 reversed $259 $-1 #
vertex $-1 $398 $399 #
vertex $-1 $165 $400 #
straight-curve $-1 18.637830348764069 23.652315700901166 58.545294952850242 0 0 -1 I I #
coedge $-1 $273 $273 $-1 $401 reversed $168 $-1 #
edge $-1 $402 0 $402 6.2831853071796004 $169 $403 forward 7 unknown #
vertex $-1 $172 $404 #
ellipse-curve $-1 11.017583455165713 19.614036680157295 6.5753687608619602 0 0.6018150307709319 0.79863550430605224 1 0 0 1 I I #
coedge $-1 $277 $277 $-1 $405 reversed $175 $-1 #
edge $-1 $406 0 $406 6.2831853071796004 $176 $407 forward 7 unknown #
vertex $-1 $179 $408 #
ellipse-curve $-1 15.589731591324728 19.614036680157295 6.5753687608619602 0 0.6018150307709319 0.79863550430605224 1 0 0 1 I I #
face $-1 $-1 $195 $27 $-1 $409 reversed single #
loop $-1 $-1 $297 $180 #
plane-surface $-1 0 23.652315700901166 0 0 -1 0 0 0 -1 forward_v I I I I #
coedge $-1 $410 $295 $298 $411 forward $181 $-1 #
coedge $-1 $301 $183 $184 $289 reversed $113 $-1 #
coedge $-1 $295 $410 $183 $287 reversed $181 $-1 #
edge $-1 $302 -9.6184303327893321 $412 9.6184303327893321 $286 $413 forward 7 unknown #
coedge $-1 $185 $184 $410 $414 forward $73 $-1 #
edge $-1 $293 -53.271889400921658 $412 53.271889400921658 $285 $415 forward 7 unknown #
coedge $-1 $298 $297 $185 $291 reversed $282 $-1 #
edge $-1 $416 -53.271889400921658 $292 53.271889400921658 $290 $417 forward 7 unknown #
vertex $-1 $187 $418 #
vertex $-1 $304 $419 #
straight-curve $-1 53.271889400921658 0 -9.6184303327893321 0 -1 0 I I #
coedge $-1 $284 $286 $188 $296 reversed $181 $-1 #
edge $-1 $299 -23.652315700901166 $302 23.652315700901166 $295 $420 forward 7 unknown #
coedge $-1 $290 $189 $194 $305 forward $282 $-1 #
coedge $-1 $189 $290 $284 $411 reversed $282 $-1 #
vertex $-1 $190 $421 #
straight-curve $-1 0 23.652315700901166 9.6184303327893321 -1 0 0 I I #
coedge $-1 $191 $285 $193 $304 reversed $113 $-1 #
vertex $-1 $296 $422 #
straight-curve $-1 0 -23.652315700901166 9.6184303327893321 1 0 0 I I #
edge $-1 $196 -9.6184303327893321 $293 9.6184303327893321 $193 $423 forward 7 unknown #
edge $-1 $197 -9.6184303327893321 $292 9.6184303327893321 $194 $424 forward 7 unknown #
point $-1 53.271889400921658 -23.652315700901166 9.6184303327893321 #
point $-1 53.271889400921658 23.652315700901166 9.6184303327893321 #
face $-1 $-1 $321 $28 $-1 $425 reversed single #
loop $-1 $-1 $317 $199 #
plane-surface $-1 -53.271889400921658 0 0 1 0 0 0 0 -1 forward_v I I I I #
coedge $-1 $426 $202 $314 $427 forward $121 $-1 #
coedge $-1 $202 $426 $428 $429 forward $121 $-1 #
edge $-1 $430 -23.652315700901166 $315 23.652315700901166 $202 $431 forward 7 unknown #
coedge $-1 $204 $324 $311 $427 reversed $200 $-1 #
vertex $-1 $427 $432 #
straight-curve $-1 -46.601541575480262 -23.652315700901166 -4.0592151663946661 0 0 1 I I #
coedge $-1 $433 $434 $206 $318 forward $309 $-1 #
edge $-1 $325 -23.652315700901166 $322 23.652315700901166 $317 $435 forward 7 unknown #
coedge $-1 $428 $207 $211 $327 forward $321 $-1 #
coedge $-1 $207 $428 $433 $436 reversed $321 $-1 #
loop $-1 $-1 $319 $308 #
vertex $-1 $436 $437 #
straight-curve $-1 -24.96835774410048 23.652315700901166 -6.6184303327893321 1 0 0 I I #
coedge $-1 $314 $209 $434 $438 forward $200 $-1 #
vertex $-1 $438 $439 #
straight-curve $-1 -24.96835774410048 -23.652315700901166 -6.6184303327893321 -1 0 0 I I #
edge $-1 $213 2.5592151663946661 $430 5.5592151663946661 $319 $440 forward 7 unknown #
point $-1 -46.601541575480262 -23.652315700901166 -6.6184303327893321 #
point $-1 -46.601541575480262 23.652315700901166 -6.6184303327893321 #
face $-1 $-1 $230 $29 $-1 $441 reversed single #
loop $-1 $-1 $224 $215 #
plane-surface $-1 0 23.652315700901166 0 0 -1 0 0 0 -1 forward_v I I I I #
coedge $-1 $442 $218 $337 $443 reversed $129 $-1 #
coedge $-1 $218 $442 $223 $345 reversed $129 $-1 #
coedge $-1 $224 $340 $218 $336 forward $331 $-1 #
edge $-1 $444 -3.2245501367650427 $347 -0.22455013676504265 $335 $445 forward 7 unknown #
coedge $-1 $220 $219 $333 $443 forward $81 $-1 #
coedge $-1 $350 $349 $219 $339 forward $216 $-1 #
edge $-1 $446 18.806180768096571 $342 29.245866011248911 $338 $447 forward 7 unknown #
coedge $-1 $335 $346 $220 $341 forward $331 $-1 #
edge $-1 $343 -29.245866011248911 $444 -18.806180768096571 $340 $448 forward 7 unknown #
vertex $-1 $222 $449 #
vertex $-1 $222 $450 #
straight-curve $-1 53.271889400921658 0 -4.9491002735300853 0 1 0 I I #
edge $-1 $347 -23.652315700901166 $351 23.652315700901166 $334 $451 forward 7 unknown #
coedge $-1 $340 $224 $229 $354 forward $331 $-1 #
vertex $-1 $225 $452 #
straight-curve $-1 24.026023389672741 23.652315700901166 -1.9491002735300853 1 0 0 I I #
coedge $-1 $338 $226 $442 $453 forward $216 $-1 #
coedge $-1 $226 $338 $228 $353 reversed $216 $-1 #
vertex $-1 $227 $454 #
straight-curve $-1 24.026023389672741 -23.652315700901166 -1.9491002735300853 -1 0 0 I I #
edge $-1 $232 1.9491002735300853 $342 4.9491002735300853 $228 $455 forward 7 unknown #
edge $-1 $231 1.9491002735300853 $343 4.9491002735300853 $229 $456 forward 7 unknown #
point $-1 53.271889400921651 23.652315700901166 -1.9491002735300853 #
point $-1 53.271889400921651 -23.652315700901166 -1.9491002735300853 #
plane-surface $-1 0 -23.652315700901166 0 0 1 0 0 0 1 forward_v I I I I #
coedge $-1 $368 $367 $360 $457 forward $235 $-1 #
coedge $-1 $360 $237 $239 $364 reversed $137 $-1 #
coedge $-1 $237 $359 $358 $457 reversed $137 $-1 #
coedge $-1 $245 $240 $237 $362 forward $246 $-1 #
edge $-1 $365 -38.349249890888636 $458 -31.209776907698689 $361 $459 forward 7 unknown #
coedge $-1 $239 $238 $368 $460 reversed $85 $-1 #
edge $-1 $461 -10.669774823445234 $365 -4.720256561927822e-015 $359 $462 forward 7 unknown #
vertex $-1 $241 $463 #
straight-curve $-1 7.7750162972491061 -23.652315700901166 2.4789573495993871 1 0 0 I I #
coedge $-1 $358 $242 $245 $372 forward $235 $-1 #
coedge $-1 $242 $358 $363 $460 forward $235 $-1 #
vertex $-1 $243 $464 #
straight-curve $-1 10.966986415477059 -47.472009935879576 9.6184303327893304 0 -1 0 I I #
straight-curve $-1 10.966986415477059 -23.65231570090117 2.4789573495993835 0 0.74314481823134659 0.66913061440640931 I I #
edge $-1 $247 10.966986415477059 $458 20.133078773519365 $245 $465 forward 7 unknown #
point $-1 10.966986415477059 -23.652315700901166 9.6184303327893321 #
point $-1 10.966986415477059 -23.652315700901166 2.4789573495993866 #
edge $-1 $466 1 $466 0 $250 $-1 forward 7 unknown #
vertex $-1 $251 $467 #
ellipse-curve $-1 13.585869946346286 -17.977004306592953 4.1487496638911452 0 -0.66913061440640931 0.74314481823134659 1 0 0 1 I I #
point $-1 14.585869946346286 -19.687721765031871 6.048693841194364 #
edge $-1 $468 1 $468 0 $254 $-1 forward 7 unknown #
vertex $-1 $255 $469 #
ellipse-curve $-1 17.514195242650125 -17.977004306592953 4.1487496638911452 0 -0.66913061440640931 0.74314481823134659 1 0 0 1 I I #
point $-1 18.514195242650125 -19.687721765031871 6.048693841194364 #
loop $-1 $-1 $266 $258 #
plane-surface $-1 0 0 9.6184303327893321 0 0 1 1 0 0 forward_v I I I I #
coedge $-1 $386 $261 $263 $390 reversed $159 $-1 #
coedge $-1 $261 $385 $470 $471 reversed $159 $-1 #
coedge $-1 $269 $264 $261 $388 forward $259 $-1 #
edge $-1 $391 -55.01298776391566 $472 -48.926864620060911 $387 $473 forward 7 unknown #
coedge $-1 $263 $262 $394 $474 reversed $99 $-1 #
edge $-1 $475 37.191685010187058 $391 47.304631401802354 $385 $476 forward 7 unknown #
vertex $-1 $265 $477 #
straight-curve $-1 6.6518287616226068 23.652315700901166 3.5323071889345901 -1 0 0 I I #
coedge $-1 $470 $266 $269 $398 forward $383 $-1 #
coedge $-1 $266 $470 $389 $474 forward $383 $-1 #
vertex $-1 $267 $478 #
straight-curve $-1 18.637830348764069 24.996402531696766 9.6184303327893304 0 1 0 I I #
straight-curve $-1 18.637830348764069 -14.126842454689168 32.000945391617861 0 -0.79863550430605224 0.6018150307709319 I I #
edge $-1 $270 -18.637830348764069 $472 -7.969484697726358 $269 $479 forward 7 unknown #
point $-1 18.637830348764069 23.652315700901166 9.6184303327893321 #
point $-1 18.637830348764069 23.65231570090117 3.5323071889345847 #
edge $-1 $480 1 $480 0 $273 $-1 forward 7 unknown #
vertex $-1 $274 $481 #
ellipse-curve $-1 11.017583455165713 17.645809318557632 3.9634428847227454 0 0.6018150307709319 0.79863550430605224 1 0 0 1 I I #
point $-1 12.017583455165713 19.614036680157295 6.5753687608619638 #
edge $-1 $482 1 $482 0 $277 $-1 forward 7 unknown #
vertex $-1 $278 $483 #
ellipse-curve $-1 15.589731591324728 17.645809318557632 3.9634428847227454 0 0.6018150307709319 0.79863550430605224 1 0 0 1 I I #
point $-1 16.589731591324728 19.614036680157295 6.5753687608619638 #
plane-surface $-1 53.271889400921658 0 0 -1 0 0 0 0 1 forward_v I I I I #
coedge $-1 $286 $284 $288 $414 reversed $181 $-1 #
edge $-1 $299 -9.6184303327893321 $416 9.6184303327893321 $298 $484 forward 7 unknown #
vertex $-1 $414 $485 #
straight-curve $-1 -53.271889400921658 -23.652315700901166 0 0 0 -1 I I #
edge $-1 $412 -23.652315700901166 $416 23.652315700901166 $410 $486 forward 7 unknown #
straight-curve $-1 0 -23.652315700901166 -9.6184303327893321 -1 0 0 I I #
vertex $-1 $291 $487 #
straight-curve $-1 0 23.652315700901166 -9.6184303327893321 1 0 0 I I #
point $-1 53.271889400921658 23.652315700901166 -9.6184303327893321 #
point $-1 53.271889400921658 -23.652315700901166 -9.6184303327893321 #
straight-curve $-1 -53.271889400921658 0 9.6184303327893321 0 -1 0 I I #
point $-1 -53.271889400921658 23.652315700901166 9.6184303327893321 #
point $-1 -53.271889400921658 -23.652315700901166 9.6184303327893321 #
straight-curve $-1 53.271889400921658 -23.652315700901166 0 0 0 -1 I I #
straight-curve $-1 53.271889400921658 23.652315700901166 0 0 0 -1 I I #
plane-surface $-1 0 23.652315700901166 0 0 -1 0 0 0 -1 forward_v I I I I #
coedge $-1 $312 $311 $488 $489 forward $121 $-1 #
edge $-1 $315 46.601541575480262 $490 53.271889400921658 $314 $491 forward 7 unknown #
coedge $-1 $320 $319 $312 $429 reversed $321 $-1 #
edge $-1 $492 -53.271889400921658 $430 -46.601541575480262 $428 $493 forward 7 unknown #
vertex $-1 $327 $494 #
straight-curve $-1 -46.601541575480262 0 -9.6184303327893321 0 -1 0 I I #
point $-1 -46.601541575480262 -23.652315700901166 -9.6184303327893321 #
coedge $-1 $488 $317 $320 $436 forward $309 $-1 #
coedge $-1 $317 $488 $324 $438 reversed $309 $-1 #
straight-curve $-1 -53.271889400921658 0 -6.6184303327893321 0 1 0 I I #
edge $-1 $322 6.6184303327893321 $492 9.6184303327893321 $320 $495 forward 7 unknown #
point $-1 -53.271889400921658 23.652315700901166 -6.6184303327893321 #
edge $-1 $325 6.6184303327893321 $490 9.6184303327893321 $434 $496 forward 7 unknown #
point $-1 -53.271889400921658 -23.652315700901166 -6.6184303327893321 #
straight-curve $-1 -46.601541575480262 23.652315700901166 -4.0592151663946661 0 0 -1 I I #
plane-surface $-1 53.271889400921658 0 0 -1 0 0 0 0 1 forward_v I I I I #
coedge $-1 $334 $333 $349 $453 reversed $129 $-1 #
edge $-1 $446 -23.652315700901166 $444 23.652315700901166 $333 $497 forward 7 unknown #
vertex $-1 $341 $498 #
straight-curve $-1 42.832204157769311 23.652315700901166 -1.7245501367650427 0 0 1 I I #
vertex $-1 $339 $499 #
straight-curve $-1 24.026023389672741 -23.652315700901166 -4.9491002735300853 1 0 0 I I #
straight-curve $-1 24.026023389672741 23.652315700901166 -4.9491002735300853 -1 0 0 I I #
point $-1 53.271889400921651 -23.652315700901166 -4.9491002735300853 #
point $-1 53.271889400921651 23.652315700901166 -4.9491002735300853 #
straight-curve $-1 42.832204157769311 0 -1.9491002735300853 0 -1 0 I I #
point $-1 42.832204157769311 23.652315700901166 -1.9491002735300853 #
edge $-1 $351 0.22455013676504265 $446 3.2245501367650427 $349 $500 forward 7 unknown #
point $-1 42.832204157769311 -23.652315700901166 -1.9491002735300853 #
straight-curve $-1 53.271889400921658 -23.652315700901166 0 0 0 -1 I I #
straight-curve $-1 53.271889400921658 23.652315700901166 0 0 0 -1 I I #
edge $-1 $458 23.81969423497841 $461 31.748882106717016 $358 $501 forward 7 unknown #
vertex $-1 $457 $502 #
straight-curve $-1 20.133078773519365 -23.652315700901163 40.82820724048802 0 0 1 I I #
edge $-1 $461 -12.358062476270259 $369 -3.1919701182279532 $368 $503 forward 7 unknown #
vertex $-1 $460 $504 #
straight-curve $-1 20.133078773519365 -23.65231570090117 2.4789573495993835 0 -0.74314481823134659 -0.66913061440640931 I I #
point $-1 20.133078773519365 -23.652315700901166 2.4789573495993866 #
point $-1 10.966986415477059 -15.723127829162561 9.6184303327893304 #
straight-curve $-1 0 -23.652315700901166 9.6184303327893321 1 0 0 I I #
vertex $-1 $375 $505 #
point $-1 14.585869946346286 -17.977004306592953 4.1487496638911452 #
vertex $-1 $379 $506 #
point $-1 18.514195242650125 -17.977004306592953 4.1487496638911452 #
coedge $-1 $394 $393 $386 $471 forward $383 $-1 #
edge $-1 $472 1.3440868307956002 $475 9.4206448722833507 $470 $507 forward 7 unknown #
vertex $-1 $471 $508 #
straight-curve $-1 7.969484697726358 23.652315700901166 58.545294952850242 0 0 1 I I #
edge $-1 $475 1.3176559361037512 $395 11.986001587141462 $394 $509 forward 7 unknown #
vertex $-1 $474 $510 #
straight-curve $-1 7.969484697726358 -14.126842454689168 32.000945391617861 0 0.79863550430605224 -0.6018150307709319 I I #
point $-1 7.969484697726358 23.65231570090117 3.5323071889345847 #
point $-1 18.637830348764069 15.575757659413416 9.6184303327893304 #
straight-curve $-1 0 23.652315700901166 9.6184303327893321 -1 0 0 I I #
vertex $-1 $401 $511 #
point $-1 12.017583455165713 17.645809318557632 3.9634428847227454 #
vertex $-1 $405 $512 #
point $-1 16.589731591324728 17.645809318557632 3.9634428847227454 #
straight-curve $-1 -53.271889400921658 23.652315700901166 0 0 0 -1 I I #
point $-1 -53.271889400921658 -23.652315700901166 -9.6184303327893321 #
straight-curve $-1 -53.271889400921658 0 -9.6184303327893321 0 1 0 I I #
point $-1 -53.271889400921658 23.652315700901166 -9.6184303327893321 #
coedge $-1 $434 $433 $426 $489 reversed $309 $-1 #
edge $-1 $490 -23.652315700901166 $492 23.652315700901166 $488 $513 forward 7 unknown #
vertex $-1 $489 $514 #
straight-curve $-1 0 -23.652315700901166 -9.6184303327893321 -1 0 0 I I #
vertex $-1 $429 $515 #
straight-curve $-1 0 23.652315700901166 -9.6184303327893321 1 0 0 I I #
point $-1 -46.601541575480262 23.652315700901166 -9.6184303327893321 #
straight-curve $-1 -53.271889400921658 23.652315700901166 0 0 0 -1 I I #
straight-curve $-1 -53.271889400921658 -23.652315700901166 0 0 0 -1 I I #
straight-curve $-1 42.832204157769311 0 -4.9491002735300853 0 1 0 I I #
point $-1 42.832204157769311 23.652315700901166 -4.9491002735300853 #
point $-1 42.832204157769311 -23.652315700901166 -4.9491002735300853 #
straight-curve $-1 42.832204157769311 -23.652315700901166 -1.7245501367650427 0 0 -1 I I #
straight-curve $-1 20.133078773519365 -47.472009935879576 9.6184303327893304 0 1 0 I I #
point $-1 20.133078773519365 -23.652315700901166 9.6184303327893321 #
straight-curve $-1 7.7750162972491061 -15.723127829162561 9.6184303327893321 -1 0 0 I I #
point $-1 20.133078773519365 -15.723127829162561 9.6184303327893304 #
point $-1 13.585869946346286 -17.30787369218654 3.4056048456597985 #
point $-1 17.514195242650125 -17.30787369218654 3.4056048456597985 #
straight-curve $-1 7.969484697726358 24.996402531696766 9.6184303327893304 0 -1 0 I I #
point $-1 7.969484697726358 23.652315700901166 9.6184303327893321 #
straight-curve $-1 6.6518287616226068 15.575757659413407 9.6184303327893339 1 0 0 I I #
point $-1 7.969484697726358 15.575757659413416 9.6184303327893304 #
point $-1 11.017583455165713 17.043994287786703 3.1648073804166934 #
point $-1 15.589731591324728 17.043994287786703 3.1648073804166934 #
straight-curve $-1 -53.271889400921658 0 -9.6184303327893321 0 1 0 I I #
point $-1 -53.271889400921658 -23.652315700901166 -9.6184303327893321 #
point $-1 -53.271889400921658 23.652315700901166 -9.6184303327893321 #
End-of-ACIS-data 