500 0 6 0           
7 Unknown 11 ACIS 5.0 NT 24 Fri Mar 26 15:29:24 1999 
-1 9.9999999999999995e-007 1e-010 
body $-1 $6 $-1 $7 #
body $-1 $8 $-1 $9 #
body $-1 $10 $-1 $11 #
body $-1 $12 $-1 $13 #
body $-1 $14 $-1 $15 #
body $-1 $16 $-1 $17 #
lump $-1 $-1 $18 $0 #
transform $-1 1 0 0 0 1 0 0 0 1 66.072573015533919 40.679387211465176 9.2364443774095832 1 rotate no_reflect no_shear #
lump $-1 $-1 $19 $1 #
transform $-1 1 0 0 0 1 0 0 0 1 66.072573015533919 40.679387211465176 9.2364443774095832 1 rotate no_reflect no_shear #
lump $-1 $-1 $20 $2 #
transform $-1 1 0 0 0 1 0 0 0 1 66.072573015533919 40.679387211465176 9.2364443774095832 1 rotate no_reflect no_shear #
lump $-1 $-1 $21 $3 #
transform $-1 1 0 0 0 1 0 0 0 1 66.072573015533919 40.679387211465176 9.2364443774095832 1 rotate no_reflect no_shear #
lump $-1 $-1 $22 $4 #
transform $-1 1 0 0 0 1 0 0 0 1 66.072573015533919 40.679387211465176 9.2364443774095832 1 rotate no_reflect no_shear #
lump $-1 $-1 $23 $5 #
transform $-1 1 0 0 0 1 0 0 0 1 66.072573015533919 40.679387211465176 9.2364443774095832 1 rotate no_reflect no_shear #
shell $-1 $-1 $-1 $24 $-1 $6 #
shell $-1 $-1 $-1 $25 $-1 $8 #
shell $-1 $-1 $-1 $26 $-1 $10 #
shell $-1 $-1 $-1 $27 $-1 $12 #
shell $-1 $-1 $-1 $28 $-1 $14 #
shell $-1 $-1 $-1 $29 $-1 $16 #
face $-1 $30 $31 $18 $-1 $32 forward single #
face $-1 $33 $34 $19 $-1 $35 reversed single #
face $-1 $36 $37 $20 $-1 $38 forward single #
face $-1 $39 $40 $21 $-1 $41 reversed single #
face $-1 $42 $43 $22 $-1 $44 forward single #
face $-1 $45 $46 $23 $-1 $47 forward single #
face $-1 $48 $49 $18 $-1 $50 reversed single #
loop $-1 $-1 $51 $24 #
plane-surface $-1 0 0 9.2364443774095832 0 0 1 1 0 0 forward_v I I I I #
face $-1 $52 $53 $19 $-1 $54 reversed single #
loop $-1 $-1 $55 $25 #
plane-surface $-1 28.024779288338131 73.950516187847001 153.49326390959811 1 0 0 0 -0.69465837861970381 -0.71933979245794832 forward_v I I I I #
face $-1 $56 $57 $20 $-1 $58 forward single #
loop $-1 $59 $60 $26 #
cone-surface $-1 42.521949114540746 35.244726135396256 3.8732817269209243 0 -0.69465837861970381 -0.71933979245794832 2 0 0 1 I I 0 1 2 forward I I I I #
face $-1 $61 $62 $21 $-1 $63 reversed single #
loop $-1 $-1 $64 $27 #
plane-surface $-1 45.351129202199786 -134.12011715507072 97.530664395261496 -1 0 0 0 -0.70710678939079041 0.70710677298230451 forward_v I I I I #
face $-1 $65 $66 $22 $-1 $67 forward single #
loop $-1 $68 $69 $28 #
cone-surface $-1 23.370531632561722 -37.333709806442876 5.8907669305988275 0 0.70710678939079041 -0.70710677298230451 1.5 0 0 1 I I 0 1 1.5 forward I I I I #
face $-1 $70 $71 $23 $-1 $72 forward single #
loop $-1 $73 $74 $29 #
cone-surface $-1 36.558890174344569 -37.333709806442876 5.8907669305988275 0 0.70710678939079041 -0.70710677298230451 1.5 0 0 1 I I 0 1 1.5 forward I I I I #
face $-1 $75 $76 $18 $-1 $77 reversed single #
loop $-1 $-1 $78 $30 #
plane-surface $-1 0 0 -9.2364443774095832 0 0 1 1 0 0 forward_v I I I I #
coedge $-1 $79 $80 $81 $82 forward $31 $-1 #
face $-1 $83 $84 $19 $-1 $85 reversed single #
loop $-1 $-1 $86 $33 #
plane-surface $-1 42.521949114540746 -17.845216696558566 58.436001989284506 0 0.69465837861970381 0.71933979245794832 1 0 0 forward_v I I I I #
coedge $-1 $87 $88 $89 $90 reversed $34 $-1 #
face $-1 $-1 $91 $20 $-1 $92 forward single #
loop $-1 $93 $94 $36 #
cone-surface $-1 42.521949114540746 32.903892546967292 1.4492776415963817 0 -0.69465837861970381 -0.71933979245794832 1 0 0 1 I I -0.70710678118654746 0.70710678118654746 1 forward I I I I #
loop $-1 $-1 $95 $26 #
coedge $-1 $60 $60 $96 $97 reversed $37 $-1 #
face $-1 $98 $99 $21 $-1 $100 reversed single #
loop $-1 $-1 $101 $39 #
plane-surface $-1 29.964710903453138 -40.679387211465183 4.0899366199577258 0 -0.70710678939079041 0.70710677298230451 1 0 0 forward_v I I I I #
coedge $-1 $102 $103 $104 $105 reversed $40 $-1 #
face $-1 $-1 $106 $22 $-1 $107 forward single #
loop $-1 $108 $109 $42 #
cone-surface $-1 23.370531632561722 -36.030956128390791 4.5880132827772773 0 0.70710678939079041 -0.70710677298230451 0.75 0 0 1 I I -0.70710678118654757 0.70710678118654757 0.75 forward I I I I #
loop $-1 $-1 $110 $28 #
coedge $-1 $69 $69 $111 $112 reversed $43 $-1 #
face $-1 $-1 $113 $23 $-1 $114 forward single #
loop $-1 $115 $116 $45 #
cone-surface $-1 36.558890174344569 -36.030956128390791 4.5880132827772773 0 0.70710678939079041 -0.70710677298230451 0.75 0 0 1 I I -0.70710678118654757 0.70710678118654757 0.75 forward I I I I #
loop $-1 $-1 $117 $29 #
coedge $-1 $74 $74 $118 $119 reversed $46 $-1 #
face $-1 $120 $121 $18 $-1 $122 reversed single #
loop $-1 $-1 $123 $48 #
plane-surface $-1 0 -40.679387211465176 0 0 1 0 0 0 1 forward_v I I I I #
coedge $-1 $124 $125 $126 $127 forward $49 $-1 #
coedge $-1 $128 $51 $129 $130 forward $31 $-1 #
coedge $-1 $51 $128 $131 $132 forward $31 $-1 #
coedge $-1 $133 $134 $51 $82 reversed $135 $-1 #
edge $-1 $136 -40.679387211465176 $137 40.679387211465176 $81 $138 forward 7 unknown #
face $-1 $139 $140 $19 $-1 $141 reversed single #
loop $-1 $-1 $142 $52 #
plane-surface $-1 57.019118940743361 73.950516187847001 153.49326390959811 -1 0 0 0 0.69465837861970381 0.71933979245794832 forward_v I I I I #
coedge $-1 $143 $144 $145 $146 reversed $53 $-1 #
coedge $-1 $88 $55 $147 $148 reversed $34 $-1 #
coedge $-1 $55 $87 $143 $149 reversed $34 $-1 #
coedge $-1 $145 $150 $55 $90 forward $151 $-1 #
edge $-1 $152 -3.704129117541676 $153 3.872842614977607 $89 $154 forward 7 unknown #
loop $-1 $-1 $96 $56 #
plane-surface $-1 42.521949114540746 -17.845216696558566 58.436001989284506 0 0.69465837861970381 0.71933979245794832 1 0 0 forward_v I I I I #
loop $-1 $-1 $155 $36 #
coedge $-1 $94 $94 $95 $156 reversed $57 $-1 #
coedge $-1 $95 $95 $94 $156 forward $59 $-1 #
coedge $-1 $96 $96 $60 $97 forward $91 $-1 #
edge $-1 $157 -1.497019151573601e-015 $157 6.2831853071795987 $96 $158 forward 7 unknown #
face $-1 $159 $160 $21 $-1 $161 reversed single #
loop $-1 $-1 $162 $61 #
plane-surface $-1 14.57829260470649 -134.12011715507072 97.530664395261496 1 0 0 0 0.70710678939079041 -0.70710677298230451 forward_v I I I I #
coedge $-1 $163 $164 $165 $166 reversed $62 $-1 #
coedge $-1 $103 $64 $167 $168 reversed $40 $-1 #
coedge $-1 $64 $102 $163 $169 reversed $40 $-1 #
coedge $-1 $165 $170 $64 $105 forward $171 $-1 #
edge $-1 $172 26.380671366070182 $173 31.527179004096787 $104 $174 forward 7 unknown #
loop $-1 $-1 $111 $65 #
plane-surface $-1 29.964710903453138 -40.679387211465183 4.0899366199577258 0 -0.70710678939079041 0.70710677298230451 1 0 0 forward_v I I I I #
loop $-1 $-1 $175 $42 #
coedge $-1 $109 $109 $110 $176 reversed $66 $-1 #
coedge $-1 $110 $110 $109 $176 forward $68 $-1 #
coedge $-1 $111 $111 $69 $112 forward $106 $-1 #
edge $-1 $177 -7.772620265355633e-023 $177 6.2831853071796004 $111 $178 forward 7 unknown #
loop $-1 $-1 $118 $70 #
plane-surface $-1 29.964710903453138 -40.679387211465183 4.0899366199577258 0 -0.70710678939079041 0.70710677298230451 1 0 0 forward_v I I I I #
loop $-1 $-1 $179 $45 #
coedge $-1 $116 $116 $117 $180 reversed $71 $-1 #
coedge $-1 $117 $117 $116 $180 forward $73 $-1 #
coedge $-1 $118 $118 $74 $119 forward $113 $-1 #
edge $-1 $181 -7.772620265355633e-023 $181 6.2831853071796004 $118 $182 forward 7 unknown #
face $-1 $183 $184 $18 $-1 $185 reversed single #
loop $-1 $-1 $186 $75 #
plane-surface $-1 -66.072573015533919 0 0 1 0 0 0 0 -1 forward_v I I I I #
coedge $-1 $187 $131 $188 $189 forward $76 $-1 #
coedge $-1 $190 $78 $187 $191 forward $49 $-1 #
coedge $-1 $78 $190 $192 $193 forward $49 $-1 #
coedge $-1 $134 $133 $78 $127 reversed $135 $-1 #
edge $-1 $194 -40.679387211465176 $195 40.679387211465176 $126 $196 forward 7 unknown #
coedge $-1 $80 $79 $197 $198 forward $31 $-1 #
coedge $-1 $199 $200 $79 $130 reversed $184 $-1 #
edge $-1 $137 -66.072573015533919 $201 66.072573015533919 $129 $202 forward 7 unknown #
coedge $-1 $123 $203 $80 $132 reversed $76 $-1 #
edge $-1 $204 -66.072573015533919 $136 66.072573015533919 $131 $205 forward 7 unknown #
coedge $-1 $126 $81 $203 $206 forward $135 $-1 #
coedge $-1 $81 $126 $199 $207 reversed $135 $-1 #
loop $-1 $-1 $133 $183 #
vertex $-1 $82 $208 #
vertex $-1 $82 $209 #
straight-curve $-1 66.072573015533919 0 9.2364443774095832 0 1 0 I I #
face $-1 $-1 $151 $19 $-1 $210 forward single #
loop $-1 $-1 $211 $83 #
plane-surface $-1 0 40.679387211465176 0 0 -1 0 0 0 -1 forward_v I I I I #
coedge $-1 $212 $213 $214 $215 reversed $84 $-1 #
coedge $-1 $216 $86 $88 $149 forward $53 $-1 #
coedge $-1 $86 $216 $212 $217 forward $53 $-1 #
coedge $-1 $214 $89 $86 $146 forward $151 $-1 #
edge $-1 $153 6.7638047310677578 $218 35.758144383472988 $145 $219 forward 7 unknown #
coedge $-1 $220 $221 $87 $148 forward $140 $-1 #
edge $-1 $222 -74.827184292633575 $152 -67.510187577389473 $147 $223 forward 7 unknown #
edge $-1 $153 70.825544074823 $222 81.358774422930338 $88 $224 forward 7 unknown #
coedge $-1 $89 $214 $220 $225 forward $151 $-1 #
loop $-1 $-1 $214 $139 #
vertex $-1 $148 $226 #
vertex $-1 $90 $227 #
straight-curve $-1 28.024779288338131 36.9752580939235 9.2364443774095832 0 -1 0 I I #
coedge $-1 $155 $155 $-1 $228 reversed $93 $-1 #
edge $-1 $229 0 $229 6.2831853071796004 $94 $230 forward 7 unknown #
vertex $-1 $97 $231 #
ellipse-curve $-1 42.521949114540746 36.890901345205535 5.5779460197875359 0 0.69465837861970381 0.71933979245794832 2 0 0 1 I I #
face $-1 $-1 $171 $21 $-1 $232 forward single #
loop $-1 $-1 $233 $98 #
plane-surface $-1 0 -40.679387211465176 0 0 1 0 0 0 1 forward_v I I I I #
coedge $-1 $234 $235 $236 $237 reversed $99 $-1 #
coedge $-1 $238 $101 $103 $169 forward $62 $-1 #
coedge $-1 $101 $238 $234 $239 forward $62 $-1 #
coedge $-1 $236 $104 $101 $166 forward $171 $-1 #
edge $-1 $173 -30.368773750473217 $240 0.40406284702007866 $165 $241 forward 7 unknown #
coedge $-1 $242 $243 $102 $168 forward $160 $-1 #
edge $-1 $244 -44.675395577673015 $172 -39.528887820221165 $167 $245 forward 7 unknown #
edge $-1 $173 -7.2782609850003617 $244 -1.0048591735576163e-014 $103 $246 forward 7 unknown #
coedge $-1 $104 $236 $242 $247 forward $171 $-1 #
loop $-1 $-1 $236 $159 #
vertex $-1 $168 $248 #
vertex $-1 $105 $249 #
straight-curve $-1 45.351129202199786 -67.060058577535358 9.2364443774095832 0 1 0 I I #
coedge $-1 $175 $175 $-1 $250 reversed $108 $-1 #
edge $-1 $251 0 $251 6.2831853071796004 $109 $252 forward 7 unknown #
vertex $-1 $112 $253 #
ellipse-curve $-1 23.370531632561722 -38.106133392451873 6.6631904986836563 0 -0.70710678939079041 0.70710677298230451 1.5 0 0 1 I I #
coedge $-1 $179 $179 $-1 $254 reversed $115 $-1 #
edge $-1 $255 0 $255 6.2831853071796004 $116 $256 forward 7 unknown #
vertex $-1 $119 $257 #
ellipse-curve $-1 36.558890174344569 -38.106133392451873 6.6631904986836563 0 -0.70710678939079041 0.70710677298230451 1.5 0 0 1 I I #
face $-1 $-1 $135 $18 $-1 $258 reversed single #
loop $-1 $-1 $199 $120 #
plane-surface $-1 0 40.679387211465176 0 0 -1 0 0 0 -1 forward_v I I I I #
coedge $-1 $259 $197 $200 $260 forward $121 $-1 #
coedge $-1 $203 $123 $124 $191 reversed $76 $-1 #
coedge $-1 $197 $259 $123 $189 reversed $121 $-1 #
edge $-1 $204 -9.2364443774095832 $261 9.2364443774095832 $188 $262 forward 7 unknown #
coedge $-1 $125 $124 $259 $263 forward $49 $-1 #
edge $-1 $195 -66.072573015533919 $261 66.072573015533919 $187 $264 forward 7 unknown #
coedge $-1 $200 $199 $125 $193 reversed $184 $-1 #
edge $-1 $265 -66.072573015533919 $194 66.072573015533919 $192 $266 forward 7 unknown #
vertex $-1 $127 $267 #
vertex $-1 $206 $268 #
straight-curve $-1 66.072573015533919 0 -9.2364443774095832 0 -1 0 I I #
coedge $-1 $186 $188 $128 $198 reversed $121 $-1 #
edge $-1 $201 -40.679387211465176 $204 40.679387211465176 $197 $269 forward 7 unknown #
coedge $-1 $192 $129 $134 $207 forward $184 $-1 #
coedge $-1 $129 $192 $186 $260 reversed $184 $-1 #
vertex $-1 $130 $270 #
straight-curve $-1 0 40.679387211465176 9.2364443774095832 -1 0 0 I I #
coedge $-1 $131 $187 $133 $206 reversed $76 $-1 #
vertex $-1 $198 $271 #
straight-curve $-1 0 -40.679387211465176 9.2364443774095832 1 0 0 I I #
edge $-1 $136 -9.2364443774095832 $195 9.2364443774095832 $133 $272 forward 7 unknown #
edge $-1 $137 -9.2364443774095832 $194 9.2364443774095832 $134 $273 forward 7 unknown #
point $-1 66.072573015533919 -40.679387211465176 9.2364443774095832 #
point $-1 66.072573015533919 40.679387211465176 9.2364443774095832 #
plane-surface $-1 0 0 9.2364443774095832 0 0 1 1 0 0 forward_v I I I I #
coedge $-1 $221 $220 $213 $274 forward $140 $-1 #
coedge $-1 $213 $142 $144 $217 reversed $84 $-1 #
coedge $-1 $142 $212 $211 $274 reversed $84 $-1 #
coedge $-1 $150 $145 $142 $215 forward $151 $-1 #
edge $-1 $218 -3.872842614977607 $275 3.704129117541676 $214 $276 forward 7 unknown #
coedge $-1 $144 $143 $221 $277 reversed $53 $-1 #
edge $-1 $278 -81.358774422930338 $218 -70.825544074823 $212 $279 forward 7 unknown #
vertex $-1 $146 $280 #
straight-curve $-1 21.260974557270373 33.102415478945886 9.2364443774095832 1 0 0 I I #
coedge $-1 $211 $147 $150 $225 reversed $140 $-1 #
coedge $-1 $147 $211 $216 $277 forward $140 $-1 #
vertex $-1 $148 $281 #
straight-curve $-1 28.024779288338131 40.679387211465176 76.746631954799057 0 0 1 I I #
straight-curve $-1 28.024779288338131 -17.845216696558566 58.436001989284506 0 0.71933979245794832 -0.69465837861970381 I I #
edge $-1 $275 -57.019118940743361 $152 -28.024779288338131 $220 $282 forward 7 unknown #
point $-1 28.024779288338131 40.679387211465176 9.2364443774095832 #
point $-1 28.024779288338131 33.102415478945893 9.2364443774095832 #
edge $-1 $283 1 $283 0 $155 $-1 forward 7 unknown #
vertex $-1 $156 $284 #
ellipse-curve $-1 42.521949114540746 33.598550925586999 2.1686174340543301 0 0.69465837861970381 0.71933979245794832 2 0 0 1 I I #
point $-1 44.521949114540746 36.890901345205513 5.5779460197875181 #
plane-surface $-1 0 0 9.2364443774095832 0 0 1 1 0 0 forward_v I I I I #
coedge $-1 $243 $242 $235 $285 forward $160 $-1 #
coedge $-1 $235 $162 $164 $239 reversed $99 $-1 #
coedge $-1 $162 $234 $233 $285 reversed $99 $-1 #
coedge $-1 $170 $165 $162 $237 forward $171 $-1 #
edge $-1 $240 -31.527179004096787 $286 -26.380671366070182 $236 $287 forward 7 unknown #
coedge $-1 $164 $163 $243 $288 reversed $62 $-1 #
edge $-1 $289 1.0048591735576163e-014 $240 7.2782609850003617 $234 $290 forward 7 unknown #
vertex $-1 $166 $291 #
straight-curve $-1 14.982355451726569 -35.532879573438571 9.2364443774095832 -1 0 0 I I #
coedge $-1 $233 $167 $170 $247 reversed $160 $-1 #
coedge $-1 $167 $233 $238 $288 forward $160 $-1 #
vertex $-1 $168 $292 #
straight-curve $-1 45.351129202199786 -40.679387211465176 48.765332197630748 0 0 1 I I #
straight-curve $-1 45.351129202199786 -40.679387211465183 4.0899366199577258 0 -0.70710677298230451 -0.70710678939079041 I I #
edge $-1 $286 14.57829260470649 $172 45.351129202199786 $242 $293 forward 7 unknown #
point $-1 45.351129202199786 -40.679387211465176 9.2364443774095832 #
point $-1 45.351129202199786 -35.532879573438571 9.2364443774095832 #
edge $-1 $294 1 $294 0 $175 $-1 forward 7 unknown #
vertex $-1 $176 $295 #
ellipse-curve $-1 23.370531632561722 -36.561286220433885 5.1183433625140058 0 -0.70710678939079041 0.70710677298230451 1.5 0 0 1 I I #
point $-1 24.870531632561722 -38.106133392451866 6.6631904986836492 #
edge $-1 $296 1 $296 0 $179 $-1 forward 7 unknown #
vertex $-1 $180 $297 #
ellipse-curve $-1 36.558890174344569 -36.561286220433885 5.1183433625140058 0 -0.70710678939079041 0.70710677298230451 1.5 0 0 1 I I #
point $-1 38.058890174344569 -38.106133392451866 6.6631904986836492 #
plane-surface $-1 66.072573015533919 0 0 -1 0 0 0 0 1 forward_v I I I I #
coedge $-1 $188 $186 $190 $263 reversed $121 $-1 #
edge $-1 $201 -9.2364443774095832 $265 9.2364443774095832 $200 $298 forward 7 unknown #
vertex $-1 $263 $299 #
straight-curve $-1 -66.072573015533919 -40.679387211465176 0 0 0 -1 I I #
edge $-1 $261 -40.679387211465176 $265 40.679387211465176 $259 $300 forward 7 unknown #
straight-curve $-1 0 -40.679387211465176 -9.2364443774095832 -1 0 0 I I #
vertex $-1 $193 $301 #
straight-curve $-1 0 40.679387211465176 -9.2364443774095832 1 0 0 I I #
point $-1 66.072573015533919 40.679387211465176 -9.2364443774095832 #
point $-1 66.072573015533919 -40.679387211465176 -9.2364443774095832 #
straight-curve $-1 -66.072573015533919 0 9.2364443774095832 0 -1 0 I I #
point $-1 -66.072573015533919 40.679387211465176 9.2364443774095832 #
point $-1 -66.072573015533919 -40.679387211465176 9.2364443774095832 #
straight-curve $-1 66.072573015533919 -40.679387211465176 0 0 0 -1 I I #
straight-curve $-1 66.072573015533919 40.679387211465176 0 0 0 -1 I I #
edge $-1 $275 67.510187577389473 $278 74.827184292633575 $211 $302 forward 7 unknown #
vertex $-1 $225 $303 #
straight-curve $-1 57.019118940743361 36.9752580939235 9.2364443774095832 0 1 0 I I #
edge $-1 $278 -35.758144383472988 $222 -6.7638047310677578 $221 $304 forward 7 unknown #
vertex $-1 $277 $305 #
straight-curve $-1 57.019118940743361 -17.845216696558566 58.436001989284506 0 -0.71933979245794832 0.69465837861970381 I I #
point $-1 57.019118940743361 33.102415478945893 9.2364443774095832 #
point $-1 28.024779288338131 40.679387211465176 1.9194476621654886 #
straight-curve $-1 0 40.679387211465176 9.2364443774095832 -1 0 0 I I #
vertex $-1 $228 $306 #
point $-1 44.521949114540746 33.598550925586999 2.1686174340543301 #
edge $-1 $286 39.528887820221165 $289 44.675395577673015 $233 $307 forward 7 unknown #
vertex $-1 $247 $308 #
straight-curve $-1 14.57829260470649 -67.060058577535358 9.2364443774095832 0 -1 0 I I #
edge $-1 $289 -0.40406284702007866 $244 30.368773750473217 $243 $309 forward 7 unknown #
vertex $-1 $288 $310 #
straight-curve $-1 14.57829260470649 -40.679387211465183 4.0899366199577258 0 0.70710677298230451 0.70710678939079041 I I #
point $-1 14.57829260470649 -35.532879573438571 9.2364443774095832 #
point $-1 45.351129202199786 -40.679387211465176 4.0899366199577329 #
straight-curve $-1 0 -40.679387211465176 9.2364443774095832 1 0 0 I I #
vertex $-1 $250 $311 #
point $-1 24.870531632561722 -36.561286220433885 5.1183433625140058 #
vertex $-1 $254 $312 #
point $-1 38.058890174344569 -36.561286220433885 5.1183433625140058 #
straight-curve $-1 -66.072573015533919 40.679387211465176 0 0 0 -1 I I #
point $-1 -66.072573015533919 -40.679387211465176 -9.2364443774095832 #
straight-curve $-1 -66.072573015533919 0 -9.2364443774095832 0 1 0 I I #
point $-1 -66.072573015533919 40.679387211465176 -9.2364443774095832 #
straight-curve $-1 57.019118940743361 40.679387211465176 76.746631954799057 0 0 -1 I I #
point $-1 57.019118940743361 40.679387211465176 9.2364443774095832 #
straight-curve $-1 21.260974557270373 40.679387211465176 1.9194476621654886 -1 0 0 I I #
point $-1 57.019118940743361 40.679387211465176 1.9194476621654886 #
point $-1 42.521949114540746 32.209234168347585 0.7299378491384334 #
straight-curve $-1 14.57829260470649 -40.679387211465176 48.765332197630748 0 0 -1 I I #
point $-1 14.57829260470649 -40.679387211465176 9.2364443774095832 #
straight-curve $-1 14.982355451726569 -40.679387211465176 4.0899366199577383 1 0 0 I I #
point $-1 14.57829260470649 -40.679387211465176 4.0899366199577329 #
point $-1 23.370531632561722 -35.500626036347697 4.0576832030405487 #
point $-1 36.558890174344569 -35.500626036347697 4.0576832030405487 #
End-of-ACIS-data 