500 0 4 0           
7 Unknown 11 ACIS 5.0 NT 24 Thu Mar 25 16:28:46 1999 
-1 9.9999999999999995e-007 1e-010 
body $-1 $4 $-1 $5 #
body $-1 $6 $-1 $7 #
body $-1 $8 $-1 $9 #
body $-1 $10 $-1 $11 #
lump $-1 $-1 $12 $0 #
transform $-1 1 0 0 0 1 0 0 0 1 58.059633167516097 38.322511860928309 17.376061005554309 1 rotate no_reflect no_shear #
lump $-1 $-1 $13 $1 #
transform $-1 1 0 0 0 1 0 0 0 1 58.059633167516097 38.322511860928309 17.376061005554309 1 rotate no_reflect no_shear #
lump $-1 $-1 $14 $2 #
transform $-1 1 0 0 0 1 0 0 0 1 58.059633167516097 38.322511860928309 17.376061005554309 1 rotate no_reflect no_shear #
lump $-1 $-1 $15 $3 #
transform $-1 1 0 0 0 1 0 0 0 1 58.059633167516097 38.322511860928309 17.376061005554309 1 rotate no_reflect no_shear #
shell $-1 $-1 $-1 $16 $-1 $4 #
shell $-1 $-1 $-1 $17 $-1 $6 #
shell $-1 $-1 $-1 $18 $-1 $8 #
shell $-1 $-1 $-1 $19 $-1 $10 #
face $-1 $20 $21 $12 $-1 $22 forward single #
face $-1 $23 $24 $13 $-1 $25 reversed single #
face $-1 $26 $27 $14 $-1 $28 forward single #
face $-1 $29 $30 $15 $-1 $31 reversed single #
face $-1 $32 $33 $12 $-1 $34 reversed single #
loop $-1 $-1 $35 $16 #
plane-surface $-1 0 0 17.376061005554309 0 0 1 1 0 0 forward_v I I I I #
face $-1 $36 $37 $13 $-1 $38 forward single #
loop $-1 $-1 $39 $17 #
plane-surface $-1 -51.484501350341546 0 -13.656702605921847 0 0 1 1 0 0 forward_v I I I I #
face $-1 $40 $41 $14 $-1 $42 forward single #
loop $-1 $-1 $43 $18 #
plane-surface $-1 83.748903006414196 30.613582362234517 171.32443073588135 0 -1 0 -0.80901700255871778 0 -0.5877852410284794 forward_v I I I I #
face $-1 $44 $45 $15 $-1 $46 reversed single #
loop $-1 $47 $48 $19 #
cone-surface $-1 54.058669734852536 20.742497662462775 12.522271692370099 -0.80901700255871778 0 -0.5877852410284794 0.8816778615427191 0 -1.2135255038380768 1 I I 0 1 1.5 forward I I I I #
face $-1 $49 $50 $12 $-1 $51 reversed single #
loop $-1 $-1 $52 $20 #
plane-surface $-1 0 0 -17.376061005554309 0 0 1 1 0 0 forward_v I I I I #
coedge $-1 $53 $54 $55 $56 forward $21 $-1 #
face $-1 $57 $58 $13 $-1 $59 reversed single #
loop $-1 $-1 $60 $23 #
plane-surface $-1 -44.909369533166995 0 -15.516381805738078 -1 0 0 0 0 1 forward_v I I I I #
coedge $-1 $61 $62 $63 $64 reversed $24 $-1 #
face $-1 $65 $66 $14 $-1 $67 forward single #
loop $-1 $-1 $68 $26 #
plane-surface $-1 -10.19355778327099 20.742497662462767 103.07123978509425 0.80901700255871778 0 0.5877852410284794 0.5877852410284794 0 -0.80901700255871778 forward_v I I I I #
coedge $-1 $69 $70 $71 $72 reversed $27 $-1 #
face $-1 $73 $74 $15 $-1 $75 forward single #
loop $-1 $76 $77 $29 #
cone-surface $-1 52.446944022961631 20.742497662462775 11.35128445348715 -0.80901700255871778 0 -0.5877852410284794 0.44083893077135955 0 -0.60676275191903839 1 I I -0.70710678118654757 0.70710678118654757 0.75 forward I I I I #
loop $-1 $-1 $78 $19 #
coedge $-1 $48 $48 $79 $80 reversed $30 $-1 #
face $-1 $81 $82 $12 $-1 $83 reversed single #
loop $-1 $-1 $84 $32 #
plane-surface $-1 0 -38.322511860928309 0 0 1 0 0 0 1 forward_v I I I I #
coedge $-1 $85 $86 $87 $88 forward $33 $-1 #
coedge $-1 $89 $35 $90 $91 forward $21 $-1 #
coedge $-1 $35 $89 $92 $93 forward $21 $-1 #
coedge $-1 $94 $95 $35 $56 reversed $96 $-1 #
edge $-1 $97 -38.322511860928309 $98 38.322511860928309 $55 $99 forward 7 unknown #
face $-1 $100 $101 $13 $-1 $102 reversed single #
loop $-1 $-1 $103 $36 #
plane-surface $-1 -58.059633167516097 0 0 1 0 0 0 0 -1 forward_v I I I I #
coedge $-1 $63 $104 $105 $106 reversed $37 $-1 #
coedge $-1 $107 $39 $108 $109 reversed $24 $-1 #
coedge $-1 $39 $107 $110 $111 reversed $24 $-1 #
coedge $-1 $112 $60 $39 $64 forward $37 $-1 #
edge $-1 $113 -38.322511860928309 $114 38.322511860928309 $63 $115 forward 7 unknown #
face $-1 $116 $117 $14 $-1 $118 forward single #
loop $-1 $-1 $119 $40 #
plane-surface $-1 83.748903006414196 10.871412962691018 171.32443073588135 0 1 0 0.80901700255871778 0 0.5877852410284794 forward_v I I I I #
coedge $-1 $120 $121 $122 $123 reversed $41 $-1 #
coedge $-1 $70 $43 $121 $124 forward $27 $-1 #
coedge $-1 $43 $69 $125 $126 reversed $27 $-1 #
coedge $-1 $127 $122 $43 $72 forward $117 $-1 #
edge $-1 $128 10.193180718925632 $129 16.185181664308999 $71 $130 forward 7 unknown #
face $-1 $131 $132 $15 $-1 $133 forward single #
loop $-1 $-1 $134 $44 #
plane-surface $-1 83.748903006414196 30.613582362234517 171.32443073588135 0 -1 0 -0.80901700255871778 0 -0.5877852410284794 forward_v I I I I #
loop $-1 $-1 $135 $29 #
coedge $-1 $77 $77 $78 $136 forward $45 $-1 #
coedge $-1 $78 $78 $77 $136 reversed $47 $-1 #
coedge $-1 $79 $79 $48 $80 forward $132 $-1 #
edge $-1 $137 0 $137 6.2831853071796004 $79 $138 forward 7 unknown #
face $-1 $139 $140 $12 $-1 $141 reversed single #
loop $-1 $-1 $142 $49 #
plane-surface $-1 -58.059633167516097 0 0 1 0 0 0 0 -1 forward_v I I I I #
coedge $-1 $143 $92 $144 $145 forward $50 $-1 #
coedge $-1 $146 $52 $143 $147 forward $33 $-1 #
coedge $-1 $52 $146 $148 $149 forward $33 $-1 #
coedge $-1 $95 $94 $52 $88 reversed $96 $-1 #
edge $-1 $150 -38.322511860928309 $151 38.322511860928309 $87 $152 forward 7 unknown #
coedge $-1 $54 $53 $153 $154 forward $21 $-1 #
coedge $-1 $155 $156 $53 $91 reversed $140 $-1 #
edge $-1 $98 -58.059633167516097 $157 58.059633167516097 $90 $158 forward 7 unknown #
coedge $-1 $84 $159 $54 $93 reversed $50 $-1 #
edge $-1 $160 -58.059633167516097 $97 58.059633167516097 $92 $161 forward 7 unknown #
coedge $-1 $87 $55 $159 $162 forward $96 $-1 #
coedge $-1 $55 $87 $155 $163 reversed $96 $-1 #
loop $-1 $-1 $94 $139 #
vertex $-1 $56 $164 #
vertex $-1 $56 $165 #
straight-curve $-1 58.059633167516097 0 17.376061005554309 0 1 0 I I #
face $-1 $166 $167 $13 $-1 $168 forward single #
loop $-1 $-1 $108 $57 #
plane-surface $-1 0 -38.322511860928309 0 0 1 0 0 0 1 forward_v I I I I #
coedge $-1 $169 $170 $107 $171 forward $58 $-1 #
coedge $-1 $60 $112 $172 $173 reversed $37 $-1 #
coedge $-1 $174 $108 $60 $106 forward $101 $-1 #
edge $-1 $113 5.898511703052808 $175 9.61787010268527 $105 $176 forward 7 unknown #
coedge $-1 $62 $61 $103 $171 reversed $24 $-1 #
coedge $-1 $105 $177 $61 $109 forward $101 $-1 #
edge $-1 $178 -32.317382492345324 $113 -19.167118857996222 $108 $179 forward 7 unknown #
coedge $-1 $180 $181 $62 $111 forward $182 $-1 #
edge $-1 $114 19.167118857996222 $183 32.317382492345324 $110 $184 forward 7 unknown #
coedge $-1 $104 $63 $181 $185 reversed $37 $-1 #
vertex $-1 $109 $186 #
vertex $-1 $111 $187 #
straight-curve $-1 -44.909369533166995 0 -13.656702605921847 0 1 0 I I #
face $-1 $188 $189 $14 $-1 $190 reversed single #
loop $-1 $-1 $191 $65 #
plane-surface $-1 0 0 17.376061005554309 0 0 1 1 0 0 forward_v I I I I #
coedge $-1 $192 $193 $191 $194 reversed $66 $-1 #
coedge $-1 $195 $68 $193 $196 reversed $41 $-1 #
coedge $-1 $68 $195 $69 $124 reversed $41 $-1 #
coedge $-1 $71 $191 $68 $123 forward $117 $-1 #
edge $-1 $197 0.50016413145963412 $128 20.242333531003133 $122 $198 forward 7 unknown #
edge $-1 $128 105.92506524400304 $199 116.11926633503217 $69 $200 forward 7 unknown #
coedge $-1 $201 $202 $70 $126 forward $203 $-1 #
edge $-1 $129 68.28615436238637 $199 76.533436372531582 $125 $204 forward 7 unknown #
coedge $-1 $205 $71 $202 $206 forward $117 $-1 #
vertex $-1 $123 $207 #
vertex $-1 $206 $208 #
straight-curve $-1 41.874451503207098 30.613582362234517 17.376061005554305 1 0 0 I I #
face $-1 $209 $210 $15 $-1 $211 forward single #
loop $-1 $212 $79 $73 #
plane-surface $-1 -10.19355778327099 20.742497662462767 103.07123978509425 0.80901700255871778 0 0.5877852410284794 0.5877852410284794 0 -0.80901700255871778 forward_v I I I I #
coedge $-1 $213 $214 $215 $216 reversed $74 $-1 #
coedge $-1 $135 $135 $-1 $217 forward $76 $-1 #
edge $-1 $218 0 $218 6.2831853071796004 $77 $219 forward 7 unknown #
vertex $-1 $80 $220 #
ellipse-curve $-1 55.063632694824413 20.742497662462775 13.252420000481697 -0.80901700255871778 0 -0.5877852410284794 0.8816778615427191 0 -1.2135255038380768 1 I I #
face $-1 $-1 $96 $12 $-1 $221 reversed single #
loop $-1 $-1 $155 $81 #
plane-surface $-1 0 38.322511860928309 0 0 -1 0 0 0 -1 forward_v I I I I #
coedge $-1 $222 $153 $156 $223 forward $82 $-1 #
coedge $-1 $159 $84 $85 $147 reversed $50 $-1 #
coedge $-1 $153 $222 $84 $145 reversed $82 $-1 #
edge $-1 $160 -17.376061005554309 $224 17.376061005554309 $144 $225 forward 7 unknown #
coedge $-1 $86 $85 $222 $226 forward $33 $-1 #
edge $-1 $151 -58.059633167516097 $224 58.059633167516097 $143 $227 forward 7 unknown #
coedge $-1 $156 $155 $86 $149 reversed $140 $-1 #
edge $-1 $228 -58.059633167516097 $150 58.059633167516097 $148 $229 forward 7 unknown #
vertex $-1 $88 $230 #
vertex $-1 $162 $231 #
straight-curve $-1 58.059633167516097 0 -17.376061005554309 0 -1 0 I I #
coedge $-1 $142 $144 $89 $154 reversed $82 $-1 #
edge $-1 $157 -38.322511860928309 $160 38.322511860928309 $153 $232 forward 7 unknown #
coedge $-1 $148 $90 $95 $163 forward $140 $-1 #
coedge $-1 $90 $148 $142 $223 reversed $140 $-1 #
vertex $-1 $91 $233 #
straight-curve $-1 0 38.322511860928309 17.376061005554309 -1 0 0 I I #
coedge $-1 $92 $143 $94 $162 reversed $50 $-1 #
vertex $-1 $154 $234 #
straight-curve $-1 0 -38.322511860928309 17.376061005554309 1 0 0 I I #
edge $-1 $97 -17.376061005554309 $151 17.376061005554309 $94 $235 forward 7 unknown #
edge $-1 $98 -17.376061005554309 $150 17.376061005554309 $95 $236 forward 7 unknown #
point $-1 58.059633167516097 -38.322511860928309 17.376061005554309 #
point $-1 58.059633167516097 38.322511860928309 17.376061005554309 #
face $-1 $237 $238 $13 $-1 $239 reversed single #
loop $-1 $-1 $240 $100 #
plane-surface $-1 0 0 17.376061005554309 0 0 1 1 0 0 forward_v I I I I #
coedge $-1 $241 $103 $177 $242 reversed $58 $-1 #
coedge $-1 $103 $241 $180 $243 forward $58 $-1 #
edge $-1 $183 -38.322511860928309 $178 38.322511860928309 $103 $244 forward 7 unknown #
coedge $-1 $245 $246 $104 $173 forward $238 $-1 #
edge $-1 $175 -38.322511860928309 $247 38.322511860928309 $172 $248 forward 7 unknown #
coedge $-1 $249 $105 $246 $250 reversed $101 $-1 #
vertex $-1 $106 $251 #
straight-curve $-1 -44.909369533166995 -38.322511860928309 -7.758190902869039 0 0 -1 I I #
coedge $-1 $108 $252 $169 $242 forward $101 $-1 #
vertex $-1 $109 $253 #
straight-curve $-1 -25.742250675170773 -38.322511860928309 -13.656702605921847 1 0 0 I I #
coedge $-1 $254 $110 $170 $243 reversed $182 $-1 #
coedge $-1 $110 $255 $112 $185 forward $182 $-1 #
loop $-1 $-1 $110 $237 #
vertex $-1 $171 $256 #
straight-curve $-1 -25.742250675170773 38.322511860928309 -13.656702605921847 -1 0 0 I I #
edge $-1 $247 -9.61787010268527 $114 -5.898511703052808 $181 $257 forward 7 unknown #
point $-1 -44.909369533166995 -38.322511860928309 -13.656702605921847 #
point $-1 -44.909369533166995 38.322511860928309 -13.656702605921847 #
face $-1 $258 $259 $14 $-1 $260 forward single #
loop $-1 $-1 $261 $116 #
plane-surface $-1 -51.484501350341546 0 -13.656702605921847 0 0 1 1 0 0 forward_v I I I I #
coedge $-1 $122 $262 $119 $194 forward $117 $-1 #
coedge $-1 $193 $119 $263 $264 reversed $66 $-1 #
coedge $-1 $119 $192 $120 $196 forward $66 $-1 #
edge $-1 $265 -16.185181664308999 $197 -10.193180718925632 $191 $266 forward 7 unknown #
coedge $-1 $121 $120 $201 $267 reversed $41 $-1 #
edge $-1 $268 -116.11926633503217 $197 -105.92506524400304 $193 $269 forward 7 unknown #
vertex $-1 $123 $270 #
straight-curve $-1 52.06763222213273 10.371248831231384 17.376061005554305 0 1 0 I I #
vertex $-1 $267 $271 #
straight-curve $-1 -10.19355778327099 30.613582362234517 103.07123978509425 0.5877852410284794 0 -0.80901700255871778 I I #
coedge $-1 $263 $125 $195 $267 forward $203 $-1 #
coedge $-1 $125 $272 $127 $206 reversed $203 $-1 #
loop $-1 $-1 $263 $273 #
straight-curve $-1 58.059633167516097 30.613582362234517 85.662215367940675 0 0 -1 I I #
coedge $-1 $274 $127 $275 $276 forward $117 $-1 #
edge $-1 $129 30.613582362234517 $277 38.322511860928309 $202 $278 forward 7 unknown #
point $-1 52.06763222213273 30.613582362234517 17.376061005554305 #
point $-1 58.059633167516097 30.613582362234517 17.376061005554309 #
face $-1 $279 $280 $15 $-1 $281 forward single #
loop $-1 $-1 $282 $131 #
plane-surface $-1 83.748903006414196 10.871412962691018 171.32443073588135 0 1 0 0.80901700255871778 0 0.5877852410284794 forward_v I I I I #
loop $-1 $-1 $283 $73 #
coedge $-1 $214 $134 $284 $285 forward $74 $-1 #
coedge $-1 $134 $213 $286 $287 reversed $74 $-1 #
coedge $-1 $288 $289 $134 $216 forward $280 $-1 #
edge $-1 $290 10.193180718925632 $291 16.185181664308999 $215 $292 forward 7 unknown #
edge $-1 $293 1 $293 0 $135 $-1 forward 7 unknown #
vertex $-1 $136 $294 #
ellipse-curve $-1 53.053706774880666 20.742497662462775 11.79212338425851 0.80901700255871778 0 0.5877852410284794 0.8816778615427191 0 -1.2135255038380768 1 I I #
point $-1 55.945310556367119 20.742497662462775 12.038894496643612 #
plane-surface $-1 58.059633167516097 0 0 -1 0 0 0 0 1 forward_v I I I I #
coedge $-1 $144 $142 $146 $226 reversed $82 $-1 #
edge $-1 $157 -17.376061005554309 $228 17.376061005554309 $156 $295 forward 7 unknown #
vertex $-1 $226 $296 #
straight-curve $-1 -58.059633167516097 -38.322511860928309 0 0 0 -1 I I #
edge $-1 $224 -38.322511860928309 $228 38.322511860928309 $222 $297 forward 7 unknown #
straight-curve $-1 0 -38.322511860928309 -17.376061005554309 -1 0 0 I I #
vertex $-1 $149 $298 #
straight-curve $-1 0 38.322511860928309 -17.376061005554309 1 0 0 I I #
point $-1 58.059633167516097 38.322511860928309 -17.376061005554309 #
point $-1 58.059633167516097 -38.322511860928309 -17.376061005554309 #
straight-curve $-1 -58.059633167516097 0 17.376061005554309 0 -1 0 I I #
point $-1 -58.059633167516097 38.322511860928309 17.376061005554309 #
point $-1 -58.059633167516097 -38.322511860928309 17.376061005554309 #
straight-curve $-1 58.059633167516097 -38.322511860928309 0 0 0 -1 I I #
straight-curve $-1 58.059633167516097 38.322511860928309 0 0 0 -1 I I #
face $-1 $299 $182 $13 $-1 $300 reversed single #
loop $-1 $-1 $172 $166 #
plane-surface $-1 0 0 -17.376061005554309 0 0 1 1 0 0 forward_v I I I I #
coedge $-1 $301 $302 $303 $304 forward $167 $-1 #
coedge $-1 $170 $169 $305 $306 reversed $58 $-1 #
edge $-1 $307 -17.376061005554309 $178 13.656702605921847 $169 $308 forward 7 unknown #
edge $-1 $309 -17.376061005554309 $183 13.656702605921847 $180 $310 forward 7 unknown #
straight-curve $-1 -58.059633167516097 0 -13.656702605921847 0 -1 0 I I #
coedge $-1 $311 $172 $255 $312 forward $238 $-1 #
coedge $-1 $172 $311 $174 $250 forward $238 $-1 #
vertex $-1 $312 $313 #
straight-curve $-1 -44.909369533166995 0 -17.376061005554309 0 1 0 I I #
coedge $-1 $252 $174 $314 $315 reversed $101 $-1 #
edge $-1 $316 -58.059633167516097 $175 44.909369533166995 $174 $317 forward 7 unknown #
point $-1 -44.909369533166995 -38.322511860928309 -17.376061005554309 #
coedge $-1 $177 $249 $302 $318 reversed $101 $-1 #
point $-1 -58.059633167516097 -38.322511860928309 -13.656702605921847 #
coedge $-1 $319 $180 $301 $320 reversed $182 $-1 #
coedge $-1 $181 $319 $245 $312 reversed $182 $-1 #
point $-1 -58.059633167516097 38.322511860928309 -13.656702605921847 #
straight-curve $-1 -44.909369533166995 38.322511860928309 -7.758190902869039 0 0 1 I I #
face $-1 $321 $322 $14 $-1 $323 reversed single #
loop $-1 $-1 $324 $188 #
plane-surface $-1 -44.909369533166995 0 -15.516381805738078 -1 0 0 0 0 1 forward_v I I I I #
coedge $-1 $325 $326 $327 $328 reversed $189 $-1 #
coedge $-1 $191 $329 $330 $331 forward $117 $-1 #
coedge $-1 $330 $201 $192 $264 forward $203 $-1 #
edge $-1 $268 -76.533436372531582 $265 -68.28615436238637 $263 $332 forward 7 unknown #
vertex $-1 $264 $333 #
straight-curve $-1 41.874451503207098 10.871412962691018 17.376061005554305 -1 0 0 I I #
edge $-1 $199 -20.242333531003133 $268 -0.50016413145963412 $201 $334 forward 7 unknown #
vertex $-1 $267 $335 #
straight-curve $-1 -10.19355778327099 10.871412962691018 103.07123978509425 -0.5877852410284794 0 0.80901700255871778 I I #
point $-1 52.06763222213273 10.871412962691018 17.376061005554305 #
point $-1 58.059633167516097 30.613582362234517 9.1287789954090925 #
coedge $-1 $202 $336 $337 $338 reversed $203 $-1 #
face $-1 $-1 $203 $14 $-1 $339 reversed single #
coedge $-1 $329 $205 $340 $341 forward $117 $-1 #
coedge $-1 $337 $342 $205 $276 reversed $343 $-1 #
edge $-1 $277 -58.059633167516097 $344 58.059633167516097 $275 $345 forward 7 unknown #
vertex $-1 $206 $346 #
straight-curve $-1 58.059633167516097 0 17.376061005554309 0 1 0 I I #
face $-1 $347 $348 $15 $-1 $349 reversed single #
loop $-1 $-1 $350 $209 #
plane-surface $-1 0 0 17.376061005554309 0 0 1 1 0 0 forward_v I I I I #
coedge $-1 $351 $352 $350 $353 reversed $210 $-1 #
coedge $-1 $354 $284 $289 $355 reversed $212 $-1 #
coedge $-1 $283 $356 $213 $285 reversed $212 $-1 #
edge $-1 $290 105.92506524400304 $357 116.11926633503217 $213 $358 forward 7 unknown #
coedge $-1 $359 $360 $214 $287 forward $361 $-1 #
edge $-1 $291 68.28615436238637 $357 76.533436372531582 $286 $362 forward 7 unknown #
coedge $-1 $363 $215 $360 $364 forward $280 $-1 #
coedge $-1 $215 $350 $283 $355 forward $280 $-1 #
vertex $-1 $355 $365 #
vertex $-1 $364 $366 #
straight-curve $-1 41.874451503207098 30.613582362234517 17.376061005554305 1 0 0 I I #
vertex $-1 $217 $367 #
point $-1 53.935384636423386 20.742497662462775 10.578597880420432 #
straight-curve $-1 -58.059633167516097 38.322511860928309 0 0 0 -1 I I #
point $-1 -58.059633167516097 -38.322511860928309 -17.376061005554309 #
straight-curve $-1 -58.059633167516097 0 -17.376061005554309 0 1 0 I I #
point $-1 -58.059633167516097 38.322511860928309 -17.376061005554309 #
face $-1 $-1 $368 $13 $-1 $369 reversed single #
plane-surface $-1 0 38.322511860928309 0 0 -1 0 0 0 -1 forward_v I I I I #
coedge $-1 $305 $240 $254 $320 forward $167 $-1 #
coedge $-1 $240 $305 $252 $318 forward $167 $-1 #
coedge $-1 $314 $370 $240 $304 reversed $368 $-1 #
edge $-1 $371 -38.322511860928309 $372 38.322511860928309 $303 $373 forward 7 unknown #
coedge $-1 $302 $301 $241 $306 forward $167 $-1 #
edge $-1 $309 -38.322511860928309 $307 38.322511860928309 $241 $374 forward 7 unknown #
vertex $-1 $306 $375 #
straight-curve $-1 -58.059633167516097 -38.322511860928309 0 0 0 -1 I I #
vertex $-1 $320 $376 #
straight-curve $-1 -58.059633167516097 38.322511860928309 0 0 0 -1 I I #
coedge $-1 $246 $245 $377 $378 forward $238 $-1 #
edge $-1 $247 -44.909369533166995 $379 58.059633167516097 $255 $380 forward 7 unknown #
point $-1 -44.909369533166995 38.322511860928309 -17.376061005554309 #
coedge $-1 $377 $303 $249 $315 forward $368 $-1 #
edge $-1 $371 -17.376061005554309 $316 17.376061005554309 $314 $381 forward 7 unknown #
vertex $-1 $315 $382 #
straight-curve $-1 0 -38.322511860928309 -17.376061005554309 -1 0 0 I I #
edge $-1 $307 -58.059633167516097 $371 58.059633167516097 $252 $383 forward 7 unknown #
coedge $-1 $255 $254 $370 $384 forward $182 $-1 #
edge $-1 $372 -58.059633167516097 $309 58.059633167516097 $254 $385 forward 7 unknown #
face $-1 $386 $387 $14 $-1 $388 reversed single #
loop $-1 $-1 $389 $258 #
plane-surface $-1 -58.059633167516097 0 0 1 0 0 0 0 -1 forward_v I I I I #
coedge $-1 $327 $390 $391 $392 reversed $259 $-1 #
coedge $-1 $393 $261 $394 $395 reversed $189 $-1 #
coedge $-1 $261 $393 $396 $397 reversed $189 $-1 #
coedge $-1 $398 $324 $261 $328 forward $259 $-1 #
edge $-1 $399 -38.322511860928309 $400 38.322511860928309 $327 $401 forward 7 unknown #
coedge $-1 $262 $274 $402 $403 forward $117 $-1 #
coedge $-1 $404 $263 $262 $331 reversed $203 $-1 #
edge $-1 $405 -38.322511860928309 $265 10.871412962691018 $330 $278 forward 7 unknown #
straight-curve $-1 58.059633167516097 10.871412962691018 85.662215367940675 0 0 1 I I #
point $-1 58.059633167516097 10.871412962691018 17.376061005554309 #
straight-curve $-1 58.059633167516097 10.371248831231384 9.1287789954090854 0 -1 0 I I #
point $-1 58.059633167516097 10.871412962691018 9.1287789954090925 #
coedge $-1 $272 $404 $406 $407 reversed $203 $-1 #
coedge $-1 $408 $275 $272 $338 forward $343 $-1 #
edge $-1 $277 -17.376061005554309 $409 17.376061005554309 $272 $410 forward 7 unknown #
plane-surface $-1 58.059633167516097 0 0 -1 0 0 0 0 1 forward_v I I I I #
coedge $-1 $411 $412 $274 $341 reversed $322 $-1 #
edge $-1 $344 -38.322511860928309 $413 38.322511860928309 $340 $414 forward 7 unknown #
coedge $-1 $275 $396 $411 $415 reversed $343 $-1 #
loop $-1 $-1 $396 $416 #
vertex $-1 $276 $417 #
straight-curve $-1 0 38.322511860928309 17.376061005554309 -1 0 0 I I #
point $-1 58.059633167516097 38.322511860928309 17.376061005554309 #
face $-1 $418 $419 $15 $-1 $420 forward single #
loop $-1 $-1 $421 $279 #
plane-surface $-1 -51.484501350341546 0 -13.656702605921847 0 0 1 1 0 0 forward_v I I I I #
coedge $-1 $289 $422 $282 $353 forward $280 $-1 #
coedge $-1 $352 $282 $423 $424 reversed $210 $-1 #
coedge $-1 $282 $351 $354 $425 forward $210 $-1 #
edge $-1 $426 -16.185181664308999 $427 -10.193180718925632 $350 $428 forward 7 unknown #
coedge $-1 $356 $283 $352 $425 reversed $212 $-1 #
edge $-1 $427 0.50016413145963412 $290 20.242333531003133 $289 $429 forward 7 unknown #
coedge $-1 $284 $354 $359 $430 reversed $212 $-1 #
vertex $-1 $430 $431 #
straight-curve $-1 -10.19355778327099 30.613582362234517 103.07123978509425 0.5877852410284794 0 -0.80901700255871778 I I #
coedge $-1 $423 $286 $356 $430 forward $361 $-1 #
coedge $-1 $286 $432 $288 $364 reversed $361 $-1 #
loop $-1 $-1 $423 $433 #
straight-curve $-1 58.059633167516097 30.613582362234517 85.662215367940675 0 0 -1 I I #
coedge $-1 $434 $288 $435 $436 forward $280 $-1 #
edge $-1 $291 30.613582362234517 $437 38.322511860928309 $360 $438 forward 7 unknown #
point $-1 52.06763222213273 30.613582362234517 17.376061005554305 #
point $-1 58.059633167516097 30.613582362234517 17.376061005554309 #
point $-1 51.840181271042596 20.742497662462775 10.91044552271579 #
loop $-1 $-1 $314 $299 #
plane-surface $-1 58.059633167516097 0 0 -1 0 0 0 0 1 forward_v I I I I #
coedge $-1 $303 $377 $319 $384 reversed $368 $-1 #
vertex $-1 $304 $439 #
vertex $-1 $304 $440 #
straight-curve $-1 58.059633167516097 0 17.376061005554309 0 1 0 I I #
straight-curve $-1 -58.059633167516097 0 17.376061005554309 0 -1 0 I I #
point $-1 -58.059633167516097 -38.322511860928309 17.376061005554309 #
point $-1 -58.059633167516097 38.322511860928309 17.376061005554309 #
coedge $-1 $370 $314 $311 $378 reversed $368 $-1 #
edge $-1 $379 -38.322511860928309 $316 38.322511860928309 $377 $441 forward 7 unknown #
vertex $-1 $378 $442 #
straight-curve $-1 0 38.322511860928309 -17.376061005554309 1 0 0 I I #
straight-curve $-1 58.059633167516097 -38.322511860928309 0 0 0 -1 I I #
point $-1 58.059633167516097 -38.322511860928309 -17.376061005554309 #
straight-curve $-1 0 -38.322511860928309 17.376061005554309 1 0 0 I I #
edge $-1 $372 -17.376061005554309 $379 17.376061005554309 $370 $443 forward 7 unknown #
straight-curve $-1 0 38.322511860928309 17.376061005554309 -1 0 0 I I #
face $-1 $416 $444 $14 $-1 $445 reversed single #
loop $-1 $-1 $394 $321 #
plane-surface $-1 0 -38.322511860928309 0 0 1 0 0 0 1 forward_v I I I I #
coedge $-1 $412 $411 $393 $446 forward $322 $-1 #
coedge $-1 $324 $398 $447 $448 reversed $259 $-1 #
coedge $-1 $449 $394 $324 $392 forward $387 $-1 #
edge $-1 $399 5.898511703052808 $450 9.61787010268527 $391 $451 forward 7 unknown #
coedge $-1 $326 $325 $389 $446 reversed $189 $-1 #
coedge $-1 $391 $452 $325 $395 forward $387 $-1 #
edge $-1 $453 -32.317382492345324 $399 -19.167118857996222 $394 $454 forward 7 unknown #
coedge $-1 $342 $455 $326 $397 forward $343 $-1 #
edge $-1 $400 19.167118857996222 $456 32.317382492345324 $396 $457 forward 7 unknown #
coedge $-1 $390 $327 $455 $458 reversed $259 $-1 #
vertex $-1 $395 $459 #
vertex $-1 $397 $460 #
straight-curve $-1 -44.909369533166995 0 -13.656702605921847 0 1 0 I I #
coedge $-1 $452 $461 $329 $403 reversed $387 $-1 #
edge $-1 $413 -58.059633167516097 $405 58.059633167516097 $402 $462 forward 7 unknown #
coedge $-1 $336 $330 $461 $463 forward $203 $-1 #
vertex $-1 $331 $464 #
coedge $-1 $465 $466 $336 $407 forward $444 $-1 #
edge $-1 $409 -38.322511860928309 $467 38.322511860928309 $336 $468 forward 7 unknown #
coedge $-1 $455 $337 $466 $469 reversed $343 $-1 #
vertex $-1 $407 $470 #
straight-curve $-1 58.059633167516097 38.322511860928309 0 0 0 -1 I I #
coedge $-1 $389 $340 $342 $415 forward $322 $-1 #
coedge $-1 $340 $389 $452 $471 reversed $322 $-1 #
vertex $-1 $341 $472 #
straight-curve $-1 -58.059633167516097 0 17.376061005554309 0 -1 0 I I #
edge $-1 $344 -17.376061005554309 $456 13.656702605921847 $342 $473 forward 7 unknown #
face $-1 $273 $343 $14 $-1 $474 reversed single #
point $-1 -58.059633167516097 38.322511860928309 17.376061005554309 #
face $-1 $475 $476 $15 $-1 $477 reversed single #
loop $-1 $-1 $478 $347 #
plane-surface $-1 -44.909369533166995 0 -15.516381805738078 -1 0 0 0 0 1 forward_v I I I I #
coedge $-1 $479 $480 $481 $482 reversed $348 $-1 #
coedge $-1 $350 $483 $484 $485 forward $280 $-1 #
coedge $-1 $484 $359 $351 $424 forward $361 $-1 #
edge $-1 $486 -76.533436372531582 $426 -68.28615436238637 $423 $487 forward 7 unknown #
edge $-1 $486 -116.11926633503217 $427 -105.92506524400304 $352 $488 forward 7 unknown #
vertex $-1 $424 $489 #
vertex $-1 $355 $490 #
straight-curve $-1 41.874451503207098 10.871412962691018 17.376061005554305 -1 0 0 I I #
straight-curve $-1 52.06763222213273 10.371248831231384 17.376061005554305 0 1 0 I I #
edge $-1 $357 -20.242333531003133 $486 -0.50016413145963412 $359 $491 forward 7 unknown #
point $-1 58.059633167516097 30.613582362234517 9.1287789954090925 #
coedge $-1 $360 $492 $493 $494 reversed $361 $-1 #
face $-1 $-1 $361 $15 $-1 $495 reversed single #
coedge $-1 $483 $363 $496 $497 forward $280 $-1 #
coedge $-1 $493 $498 $363 $436 reversed $499 $-1 #
edge $-1 $437 -58.059633167516097 $500 58.059633167516097 $435 $501 forward 7 unknown #
vertex $-1 $364 $502 #
straight-curve $-1 58.059633167516097 0 17.376061005554309 0 1 0 I I #
point $-1 58.059633167516097 -38.322511860928309 17.376061005554309 #
point $-1 58.059633167516097 38.322511860928309 17.376061005554309 #
straight-curve $-1 58.059633167516097 0 -17.376061005554309 0 -1 0 I I #
point $-1 58.059633167516097 38.322511860928309 -17.376061005554309 #
straight-curve $-1 58.059633167516097 38.322511860928309 0 0 0 -1 I I #
loop $-1 $-1 $447 $386 #
plane-surface $-1 0 0 -17.376061005554309 0 0 1 1 0 0 forward_v I I I I #
edge $-1 $456 -38.322511860928309 $453 38.322511860928309 $389 $503 forward 7 unknown #
coedge $-1 $466 $465 $390 $448 forward $444 $-1 #
edge $-1 $450 -38.322511860928309 $504 38.322511860928309 $447 $505 forward 7 unknown #
coedge $-1 $461 $391 $465 $506 reversed $387 $-1 #
vertex $-1 $392 $507 #
straight-curve $-1 -44.909369533166995 -38.322511860928309 -7.758190902869039 0 0 -1 I I #
coedge $-1 $394 $402 $412 $471 forward $387 $-1 #
vertex $-1 $395 $508 #
straight-curve $-1 -25.742250675170773 -38.322511860928309 -13.656702605921847 1 0 0 I I #
coedge $-1 $396 $408 $398 $458 forward $343 $-1 #
vertex $-1 $446 $509 #
straight-curve $-1 -25.742250675170773 38.322511860928309 -13.656702605921847 -1 0 0 I I #
edge $-1 $504 -9.61787010268527 $400 -5.898511703052808 $455 $510 forward 7 unknown #
point $-1 -44.909369533166995 -38.322511860928309 -13.656702605921847 #
point $-1 -44.909369533166995 38.322511860928309 -13.656702605921847 #
coedge $-1 $402 $449 $404 $463 reversed $387 $-1 #
straight-curve $-1 0 -38.322511860928309 17.376061005554309 1 0 0 I I #
edge $-1 $405 -17.376061005554309 $467 17.376061005554309 $404 $511 forward 7 unknown #
point $-1 58.059633167516097 -38.322511860928309 17.376061005554309 #
coedge $-1 $447 $406 $449 $506 forward $444 $-1 #
coedge $-1 $406 $447 $408 $469 forward $444 $-1 #
vertex $-1 $463 $512 #
straight-curve $-1 58.059633167516097 0 -17.376061005554309 0 -1 0 I I #
edge $-1 $504 -44.909369533166995 $409 58.059633167516097 $408 $513 forward 7 unknown #
point $-1 58.059633167516097 38.322511860928309 -17.376061005554309 #
edge $-1 $413 -17.376061005554309 $453 13.656702605921847 $412 $514 forward 7 unknown #
point $-1 -58.059633167516097 -38.322511860928309 17.376061005554309 #
straight-curve $-1 -58.059633167516097 38.322511860928309 0 0 0 -1 I I #
plane-surface $-1 0 38.322511860928309 0 0 -1 0 0 0 -1 forward_v I I I I #
face $-1 $515 $516 $15 $-1 $517 reversed single #
loop $-1 $-1 $518 $418 #
plane-surface $-1 -58.059633167516097 0 0 1 0 0 0 0 -1 forward_v I I I I #
coedge $-1 $481 $519 $520 $521 reversed $419 $-1 #
coedge $-1 $522 $421 $523 $524 reversed $348 $-1 #
coedge $-1 $421 $522 $525 $526 reversed $348 $-1 #
coedge $-1 $527 $478 $421 $482 forward $419 $-1 #
edge $-1 $528 -38.322511860928309 $529 38.322511860928309 $481 $530 forward 7 unknown #
coedge $-1 $422 $434 $531 $532 forward $280 $-1 #
coedge $-1 $533 $423 $422 $485 reversed $361 $-1 #
edge $-1 $534 -38.322511860928309 $426 10.871412962691018 $484 $438 forward 7 unknown #
vertex $-1 $430 $535 #
straight-curve $-1 58.059633167516097 10.871412962691018 85.662215367940675 0 0 1 I I #
straight-curve $-1 -10.19355778327099 10.871412962691018 103.07123978509425 -0.5877852410284794 0 0.80901700255871778 I I #
point $-1 58.059633167516097 10.871412962691018 17.376061005554309 #
point $-1 52.06763222213273 10.871412962691018 17.376061005554305 #
straight-curve $-1 58.059633167516097 10.371248831231384 9.1287789954090854 0 -1 0 I I #
coedge $-1 $432 $533 $536 $537 reversed $361 $-1 #
coedge $-1 $538 $435 $432 $494 forward $499 $-1 #
edge $-1 $437 -17.376061005554309 $539 17.376061005554309 $432 $540 forward 7 unknown #
plane-surface $-1 58.059633167516097 0 0 -1 0 0 0 0 1 forward_v I I I I #
coedge $-1 $541 $542 $434 $497 reversed $476 $-1 #
edge $-1 $500 -38.322511860928309 $543 38.322511860928309 $496 $544 forward 7 unknown #
coedge $-1 $435 $525 $541 $545 reversed $499 $-1 #
loop $-1 $-1 $525 $546 #
vertex $-1 $436 $547 #
straight-curve $-1 0 38.322511860928309 17.376061005554309 -1 0 0 I I #
point $-1 58.059633167516097 38.322511860928309 17.376061005554309 #
straight-curve $-1 -58.059633167516097 0 -13.656702605921847 0 -1 0 I I #
vertex $-1 $469 $548 #
straight-curve $-1 -44.909369533166995 0 -17.376061005554309 0 1 0 I I #
edge $-1 $467 -58.059633167516097 $450 44.909369533166995 $449 $549 forward 7 unknown #
point $-1 -44.909369533166995 -38.322511860928309 -17.376061005554309 #
point $-1 -58.059633167516097 -38.322511860928309 -13.656702605921847 #
point $-1 -58.059633167516097 38.322511860928309 -13.656702605921847 #
straight-curve $-1 -44.909369533166995 38.322511860928309 -7.758190902869039 0 0 1 I I #
straight-curve $-1 58.059633167516097 -38.322511860928309 0 0 0 -1 I I #
point $-1 58.059633167516097 -38.322511860928309 -17.376061005554309 #
straight-curve $-1 0 38.322511860928309 -17.376061005554309 1 0 0 I I #
straight-curve $-1 -58.059633167516097 -38.322511860928309 0 0 0 -1 I I #
face $-1 $546 $550 $15 $-1 $551 reversed single #
loop $-1 $-1 $523 $475 #
plane-surface $-1 0 -38.322511860928309 0 0 1 0 0 0 1 forward_v I I I I #
coedge $-1 $542 $541 $522 $552 forward $476 $-1 #
coedge $-1 $478 $527 $553 $554 reversed $419 $-1 #
coedge $-1 $555 $523 $478 $521 forward $516 $-1 #
edge $-1 $528 5.898511703052808 $556 9.61787010268527 $520 $557 forward 7 unknown #
coedge $-1 $480 $479 $518 $552 reversed $348 $-1 #
coedge $-1 $520 $558 $479 $524 forward $516 $-1 #
edge $-1 $559 -32.317382492345324 $528 -19.167118857996222 $523 $560 forward 7 unknown #
coedge $-1 $498 $561 $480 $526 forward $499 $-1 #
edge $-1 $529 19.167118857996222 $562 32.317382492345324 $525 $563 forward 7 unknown #
coedge $-1 $519 $481 $561 $564 reversed $419 $-1 #
vertex $-1 $524 $565 #
vertex $-1 $526 $566 #
straight-curve $-1 -44.909369533166995 0 -13.656702605921847 0 1 0 I I #
coedge $-1 $558 $567 $483 $532 reversed $516 $-1 #
edge $-1 $543 -58.059633167516097 $534 58.059633167516097 $531 $568 forward 7 unknown #
coedge $-1 $492 $484 $567 $569 forward $361 $-1 #
vertex $-1 $485 $570 #
point $-1 58.059633167516097 10.871412962691018 9.1287789954090925 #
coedge $-1 $571 $572 $492 $537 forward $550 $-1 #
edge $-1 $539 -38.322511860928309 $573 38.322511860928309 $492 $574 forward 7 unknown #
coedge $-1 $561 $493 $572 $575 reversed $499 $-1 #
vertex $-1 $537 $576 #
straight-curve $-1 58.059633167516097 38.322511860928309 0 0 0 -1 I I #
coedge $-1 $518 $496 $498 $545 forward $476 $-1 #
coedge $-1 $496 $518 $558 $577 reversed $476 $-1 #
vertex $-1 $497 $578 #
straight-curve $-1 -58.059633167516097 0 17.376061005554309 0 -1 0 I I #
edge $-1 $500 -17.376061005554309 $562 13.656702605921847 $498 $579 forward 7 unknown #
face $-1 $433 $499 $15 $-1 $580 reversed single #
point $-1 -58.059633167516097 38.322511860928309 17.376061005554309 #
point $-1 -44.909369533166995 38.322511860928309 -17.376061005554309 #
straight-curve $-1 0 -38.322511860928309 -17.376061005554309 -1 0 0 I I #
loop $-1 $-1 $553 $515 #
plane-surface $-1 0 0 -17.376061005554309 0 0 1 1 0 0 forward_v I I I I #
edge $-1 $562 -38.322511860928309 $559 38.322511860928309 $518 $581 forward 7 unknown #
coedge $-1 $572 $571 $519 $554 forward $550 $-1 #
edge $-1 $556 -38.322511860928309 $582 38.322511860928309 $553 $583 forward 7 unknown #
coedge $-1 $567 $520 $571 $584 reversed $516 $-1 #
vertex $-1 $521 $585 #
straight-curve $-1 -44.909369533166995 -38.322511860928309 -7.758190902869039 0 0 -1 I I #
coedge $-1 $523 $531 $542 $577 forward $516 $-1 #
vertex $-1 $524 $586 #
straight-curve $-1 -25.742250675170773 -38.322511860928309 -13.656702605921847 1 0 0 I I #
coedge $-1 $525 $538 $527 $564 forward $499 $-1 #
vertex $-1 $552 $587 #
straight-curve $-1 -25.742250675170773 38.322511860928309 -13.656702605921847 -1 0 0 I I #
edge $-1 $582 -9.61787010268527 $529 -5.898511703052808 $561 $588 forward 7 unknown #
point $-1 -44.909369533166995 -38.322511860928309 -13.656702605921847 #
point $-1 -44.909369533166995 38.322511860928309 -13.656702605921847 #
coedge $-1 $531 $555 $533 $569 reversed $516 $-1 #
straight-curve $-1 0 -38.322511860928309 17.376061005554309 1 0 0 I I #
edge $-1 $534 -17.376061005554309 $573 17.376061005554309 $533 $589 forward 7 unknown #
point $-1 58.059633167516097 -38.322511860928309 17.376061005554309 #
coedge $-1 $553 $536 $555 $584 forward $550 $-1 #
coedge $-1 $536 $553 $538 $575 forward $550 $-1 #
vertex $-1 $569 $590 #
straight-curve $-1 58.059633167516097 0 -17.376061005554309 0 -1 0 I I #
edge $-1 $582 -44.909369533166995 $539 58.059633167516097 $538 $591 forward 7 unknown #
point $-1 58.059633167516097 38.322511860928309 -17.376061005554309 #
edge $-1 $543 -17.376061005554309 $559 13.656702605921847 $542 $592 forward 7 unknown #
point $-1 -58.059633167516097 -38.322511860928309 17.376061005554309 #
straight-curve $-1 -58.059633167516097 38.322511860928309 0 0 0 -1 I I #
plane-surface $-1 0 38.322511860928309 0 0 -1 0 0 0 -1 forward_v I I I I #
straight-curve $-1 -58.059633167516097 0 -13.656702605921847 0 -1 0 I I #
vertex $-1 $575 $593 #
straight-curve $-1 -44.909369533166995 0 -17.376061005554309 0 1 0 I I #
edge $-1 $573 -58.059633167516097 $556 44.909369533166995 $555 $594 forward 7 unknown #
point $-1 -44.909369533166995 -38.322511860928309 -17.376061005554309 #
point $-1 -58.059633167516097 -38.322511860928309 -13.656702605921847 #
point $-1 -58.059633167516097 38.322511860928309 -13.656702605921847 #
straight-curve $-1 -44.909369533166995 38.322511860928309 -7.758190902869039 0 0 1 I I #
straight-curve $-1 58.059633167516097 -38.322511860928309 0 0 0 -1 I I #
point $-1 58.059633167516097 -38.322511860928309 -17.376061005554309 #
straight-curve $-1 0 38.322511860928309 -17.376061005554309 1 0 0 I I #
straight-curve $-1 -58.059633167516097 -38.322511860928309 0 0 0 -1 I I #
point $-1 -44.909369533166995 38.322511860928309 -17.376061005554309 #
straight-curve $-1 0 -38.322511860928309 -17.376061005554309 -1 0 0 I I #
End-of-ACIS-data 