500 0 14 0           
7 Unknown 11 ACIS 5.0 NT 24 Fri Mar 26 18:27:41 1999 
-1 9.9999999999999995e-007 1e-010 
body $-1 $14 $-1 $15 #
body $-1 $16 $-1 $17 #
body $-1 $18 $-1 $19 #
body $-1 $20 $-1 $21 #
body $-1 $22 $-1 $23 #
body $-1 $24 $-1 $25 #
body $-1 $26 $-1 $27 #
body $-1 $28 $-1 $29 #
body $-1 $30 $-1 $31 #
body $-1 $32 $-1 $33 #
body $-1 $34 $-1 $35 #
body $-1 $36 $-1 $37 #
body $-1 $38 $-1 $39 #
body $-1 $40 $-1 $41 #
lump $-1 $-1 $42 $0 #
transform $-1 1 0 0 0 1 0 0 0 1 79.01974547563097 42.569907377362227 15.75087872132524 1 rotate no_reflect no_shear #
lump $-1 $-1 $43 $1 #
transform $-1 1 0 0 0 1 0 0 0 1 79.01974547563097 42.569907377362227 15.75087872132524 1 rotate no_reflect no_shear #
lump $-1 $-1 $44 $2 #
transform $-1 1 0 0 0 1 0 0 0 1 79.01974547563097 42.569907377362227 15.75087872132524 1 rotate no_reflect no_shear #
lump $-1 $-1 $45 $3 #
transform $-1 1 0 0 0 1 0 0 0 1 79.01974547563097 42.569907377362227 15.75087872132524 1 rotate no_reflect no_shear #
lump $-1 $-1 $46 $4 #
transform $-1 1 0 0 0 1 0 0 0 1 79.01974547563097 42.569907377362227 15.75087872132524 1 rotate no_reflect no_shear #
lump $-1 $-1 $47 $5 #
transform $-1 1 0 0 0 1 0 0 0 1 79.01974547563097 42.569907377362227 15.75087872132524 1 rotate no_reflect no_shear #
lump $-1 $-1 $48 $6 #
transform $-1 1 0 0 0 1 0 0 0 1 79.01974547563097 42.569907377362227 15.75087872132524 1 rotate no_reflect no_shear #
lump $-1 $-1 $49 $7 #
transform $-1 1 0 0 0 1 0 0 0 1 79.01974547563097 42.569907377362227 15.75087872132524 1 rotate no_reflect no_shear #
lump $-1 $-1 $50 $8 #
transform $-1 1 0 0 0 1 0 0 0 1 79.01974547563097 42.569907377362227 15.75087872132524 1 rotate no_reflect no_shear #
lump $-1 $-1 $51 $9 #
transform $-1 1 0 0 0 1 0 0 0 1 79.01974547563097 42.569907377362227 15.75087872132524 1 rotate no_reflect no_shear #
lump $-1 $-1 $52 $10 #
transform $-1 1 0 0 0 1 0 0 0 1 79.01974547563097 42.569907377362227 15.75087872132524 1 rotate no_reflect no_shear #
lump $-1 $-1 $53 $11 #
transform $-1 1 0 0 0 1 0 0 0 1 79.01974547563097 42.569907377362227 15.75087872132524 1 rotate no_reflect no_shear #
lump $-1 $-1 $54 $12 #
transform $-1 1 0 0 0 1 0 0 0 1 79.01974547563097 42.569907377362227 15.75087872132524 1 rotate no_reflect no_shear #
lump $-1 $-1 $55 $13 #
transform $-1 1 0 0 0 1 0 0 0 1 79.01974547563097 42.569907377362227 15.75087872132524 1 rotate no_reflect no_shear #
shell $-1 $-1 $-1 $56 $-1 $14 #
shell $-1 $-1 $-1 $57 $-1 $16 #
shell $-1 $-1 $-1 $58 $-1 $18 #
shell $-1 $-1 $-1 $59 $-1 $20 #
shell $-1 $-1 $-1 $60 $-1 $22 #
shell $-1 $-1 $-1 $61 $-1 $24 #
shell $-1 $-1 $-1 $62 $-1 $26 #
shell $-1 $-1 $-1 $63 $-1 $28 #
shell $-1 $-1 $-1 $64 $-1 $30 #
shell $-1 $-1 $-1 $65 $-1 $32 #
shell $-1 $-1 $-1 $66 $-1 $34 #
shell $-1 $-1 $-1 $67 $-1 $36 #
shell $-1 $-1 $-1 $68 $-1 $38 #
shell $-1 $-1 $-1 $69 $-1 $40 #
face $-1 $70 $71 $42 $-1 $72 forward single #
face $-1 $73 $74 $43 $-1 $75 forward single #
face $-1 $76 $77 $44 $-1 $78 reversed single #
face $-1 $79 $80 $45 $-1 $81 forward single #
face $-1 $82 $83 $46 $-1 $84 forward single #
face $-1 $85 $86 $47 $-1 $87 forward single #
face $-1 $88 $89 $48 $-1 $90 reversed single #
face $-1 $91 $92 $49 $-1 $93 forward single #
face $-1 $94 $95 $50 $-1 $96 forward single #
face $-1 $97 $98 $51 $-1 $99 forward single #
face $-1 $100 $101 $52 $-1 $102 reversed single #
face $-1 $103 $104 $53 $-1 $105 forward single #
face $-1 $106 $107 $54 $-1 $108 forward single #
face $-1 $109 $110 $55 $-1 $111 forward single #
face $-1 $112 $113 $42 $-1 $114 reversed single #
loop $-1 $-1 $115 $56 #
plane-surface $-1 0 0 15.75087872132524 0 0 1 1 0 0 forward_v I I I I #
face $-1 $116 $117 $43 $-1 $118 reversed single #
loop $-1 $-1 $119 $57 #
plane-surface $-1 -79.01974547563097 0 0 1 0 0 0 0 -1 forward_v I I I I #
face $-1 $120 $121 $44 $-1 $122 reversed single #
loop $-1 $-1 $123 $58 #
plane-surface $-1 -31.883036424949708 -121.58965391165806 144.17655631033034 -1 0 0 0 -0.50000000669873634 0.8660253999169214 forward_v I I I I #
face $-1 $124 $125 $45 $-1 $126 forward single #
loop $-1 $127 $128 $59 #
cone-surface $-1 -47.826401225068707 -34.556806127933221 10.312315791447791 0 0.50000000669873634 -0.8660253999169214 1 0 0 1 I I 0 1 1 forward I I I I #
face $-1 $129 $130 $46 $-1 $131 forward single #
loop $-1 $132 $133 $60 #
cone-surface $-1 -41.847639425024084 -34.556806127933221 10.312315791447791 0 0.50000000669873634 -0.8660253999169214 1 0 0 1 I I 0 1 1 forward I I I I #
face $-1 $134 $135 $47 $-1 $136 forward single #
loop $-1 $137 $138 $61 #
cone-surface $-1 -35.868877624979461 -34.556806127933221 10.312315791447791 0 0.50000000669873634 -0.8660253999169214 1 0 0 1 I I 0 1 1 forward I I I I #
face $-1 $139 $140 $48 $-1 $141 reversed single #
loop $-1 $-1 $142 $62 #
plane-surface $-1 -49.116303442739664 60.360365399333872 179.18866876554242 1 0 0 0 -0.55919291073839883 -0.82903756765294845 forward_v I I I I #
face $-1 $143 $144 $49 $-1 $145 forward single #
loop $-1 $146 $147 $63 #
cone-surface $-1 -43.452662133090918 30.560891225896963 7.0469683615081298 0 -0.55919291073839883 -0.82903756765294845 2 0 0 1 I I 0 1 2 forward I I I I #
face $-1 $148 $149 $50 $-1 $150 forward single #
loop $-1 $151 $152 $64 #
cone-surface $-1 -34.957200168617796 30.560891225896963 7.0469683615081298 0 -0.55919291073839883 -0.82903756765294845 2 0 0 1 I I 0 1 2 forward I I I I #
face $-1 $153 $154 $51 $-1 $155 forward single #
loop $-1 $156 $157 $65 #
cone-surface $-1 -26.461738204144673 30.560891225896963 7.0469683615081298 0 -0.55919291073839883 -0.82903756765294845 2 0 0 1 I I 0 1 2 forward I I I I #
face $-1 $158 $159 $52 $-1 $160 reversed single #
loop $-1 $-1 $161 $66 #
plane-surface $-1 23.272599451271439 60.360365399333872 179.18866876554242 1 0 0 0 -0.55919291073839883 -0.82903756765294845 forward_v I I I I #
face $-1 $162 $163 $53 $-1 $164 forward single #
loop $-1 $165 $166 $67 #
cone-surface $-1 28.936240760920185 30.560891225896963 7.0469683615081298 0 -0.55919291073839883 -0.82903756765294845 2 0 0 1 I I 0 1 2 forward I I I I #
face $-1 $167 $168 $54 $-1 $169 forward single #
loop $-1 $170 $171 $68 #
cone-surface $-1 37.431702725393308 30.560891225896963 7.0469683615081298 0 -0.55919291073839883 -0.82903756765294845 2 0 0 1 I I 0 1 2 forward I I I I #
face $-1 $172 $173 $55 $-1 $174 forward single #
loop $-1 $175 $176 $69 #
cone-surface $-1 45.92716468986643 30.560891225896963 7.0469683615081298 0 -0.55919291073839883 -0.82903756765294845 2 0 0 1 I I 0 1 2 forward I I I I #
face $-1 $177 $178 $42 $-1 $179 reversed single #
loop $-1 $-1 $180 $70 #
plane-surface $-1 0 0 -15.75087872132524 0 0 1 1 0 0 forward_v I I I I #
coedge $-1 $181 $182 $183 $184 forward $71 $-1 #
face $-1 $185 $186 $43 $-1 $187 reversed single #
loop $-1 $-1 $188 $73 #
plane-surface $-1 0 0 -15.75087872132524 0 0 1 1 0 0 forward_v I I I I #
coedge $-1 $189 $190 $191 $192 forward $74 $-1 #
face $-1 $193 $194 $44 $-1 $195 reversed single #
loop $-1 $-1 $196 $76 #
plane-surface $-1 -41.847639425024084 -42.569907377362213 7.3103429565970259 0 -0.50000000669873634 0.8660253999169214 1 0 0 forward_v I I I I #
coedge $-1 $197 $198 $199 $200 reversed $77 $-1 #
face $-1 $-1 $201 $45 $-1 $202 forward single #
loop $-1 $203 $204 $79 #
cone-surface $-1 -47.826401225068707 -33.603423138384883 8.6610080439759649 0 0.50000000669873634 -0.8660253999169214 0.5 0 0 1 I I -0.70710678118654746 0.70710678118654746 0.5 forward I I I I #
loop $-1 $-1 $205 $59 #
coedge $-1 $128 $128 $206 $207 reversed $80 $-1 #
face $-1 $-1 $208 $46 $-1 $209 forward single #
loop $-1 $210 $211 $82 #
cone-surface $-1 -41.847639425024084 -33.603423138384883 8.6610080439759649 0 0.50000000669873634 -0.8660253999169214 0.5 0 0 1 I I -0.70710678118654746 0.70710678118654746 0.5 forward I I I I #
loop $-1 $-1 $212 $60 #
coedge $-1 $133 $133 $213 $214 reversed $83 $-1 #
face $-1 $-1 $215 $47 $-1 $216 forward single #
loop $-1 $217 $218 $85 #
cone-surface $-1 -35.868877624979461 -33.603423138384883 8.6610080439759649 0 0.50000000669873634 -0.8660253999169214 0.5 0 0 1 I I -0.70710678118654746 0.70710678118654746 0.5 forward I I I I #
loop $-1 $-1 $219 $61 #
coedge $-1 $138 $138 $220 $221 reversed $86 $-1 #
face $-1 $222 $223 $48 $-1 $224 reversed single #
loop $-1 $-1 $225 $88 #
plane-surface $-1 -34.957200168617796 -28.014197557317132 48.167993594198066 0 0.55919291073839883 0.82903756765294845 1 0 0 forward_v I I I I #
coedge $-1 $226 $227 $228 $229 reversed $89 $-1 #
face $-1 $-1 $230 $49 $-1 $231 forward single #
loop $-1 $232 $233 $91 #
cone-surface $-1 -43.452662133090918 29.254560474278193 5.110253413812881 0 -0.55919291073839883 -0.82903756765294845 1 0 0 1 I I -0.70710678118654746 0.70710678118654746 1 forward I I I I #
loop $-1 $-1 $234 $63 #
coedge $-1 $147 $147 $235 $236 reversed $92 $-1 #
face $-1 $-1 $237 $50 $-1 $238 forward single #
loop $-1 $239 $240 $94 #
cone-surface $-1 -34.957200168617796 29.254560474278193 5.110253413812881 0 -0.55919291073839883 -0.82903756765294845 1 0 0 1 I I -0.70710678118654746 0.70710678118654746 1 forward I I I I #
loop $-1 $-1 $241 $64 #
coedge $-1 $152 $152 $242 $243 reversed $95 $-1 #
face $-1 $-1 $244 $51 $-1 $245 forward single #
loop $-1 $246 $247 $97 #
cone-surface $-1 -26.461738204144673 29.254560474278193 5.110253413812881 0 -0.55919291073839883 -0.82903756765294845 1 0 0 1 I I -0.70710678118654746 0.70710678118654746 1 forward I I I I #
loop $-1 $-1 $248 $65 #
coedge $-1 $157 $157 $249 $250 reversed $98 $-1 #
face $-1 $251 $252 $52 $-1 $253 reversed single #
loop $-1 $-1 $254 $100 #
plane-surface $-1 37.431702725393308 -28.014197557317132 48.167993594198066 0 0.55919291073839883 0.82903756765294845 1 0 0 forward_v I I I I #
coedge $-1 $255 $256 $257 $258 reversed $101 $-1 #
face $-1 $-1 $259 $53 $-1 $260 forward single #
loop $-1 $261 $262 $103 #
cone-surface $-1 28.936240760920185 29.254560474278193 5.110253413812881 0 -0.55919291073839883 -0.82903756765294845 1 0 0 1 I I -0.70710678118654746 0.70710678118654746 1 forward I I I I #
loop $-1 $-1 $263 $67 #
coedge $-1 $166 $166 $264 $265 reversed $104 $-1 #
face $-1 $-1 $266 $54 $-1 $267 forward single #
loop $-1 $268 $269 $106 #
cone-surface $-1 37.431702725393308 29.254560474278193 5.110253413812881 0 -0.55919291073839883 -0.82903756765294845 1 0 0 1 I I -0.70710678118654746 0.70710678118654746 1 forward I I I I #
loop $-1 $-1 $270 $68 #
coedge $-1 $171 $171 $271 $272 reversed $107 $-1 #
face $-1 $-1 $273 $55 $-1 $274 forward single #
loop $-1 $275 $276 $109 #
cone-surface $-1 45.92716468986643 29.254560474278193 5.110253413812881 0 -0.55919291073839883 -0.82903756765294845 1 0 0 1 I I -0.70710678118654746 0.70710678118654746 1 forward I I I I #
loop $-1 $-1 $277 $69 #
coedge $-1 $176 $176 $278 $279 reversed $110 $-1 #
face $-1 $280 $281 $42 $-1 $282 reversed single #
loop $-1 $-1 $283 $112 #
plane-surface $-1 0 -42.569907377362227 0 0 1 0 0 0 1 forward_v I I I I #
coedge $-1 $284 $285 $286 $287 forward $113 $-1 #
coedge $-1 $288 $115 $289 $290 forward $71 $-1 #
coedge $-1 $115 $288 $291 $292 forward $71 $-1 #
coedge $-1 $293 $294 $115 $184 reversed $295 $-1 #
edge $-1 $296 -42.569907377362227 $297 42.569907377362227 $183 $298 forward 7 unknown #
face $-1 $299 $300 $43 $-1 $301 reversed single #
loop $-1 $-1 $302 $116 #
plane-surface $-1 -85.650588057250843 -14.658833057138438 0 0 1 0 0 0 1 forward_v I I I I #
coedge $-1 $303 $304 $190 $305 forward $117 $-1 #
coedge $-1 $306 $119 $307 $308 reversed $74 $-1 #
coedge $-1 $119 $306 $188 $305 reversed $74 $-1 #
coedge $-1 $309 $310 $119 $192 reversed $311 $-1 #
edge $-1 $312 -15.75087872132524 $313 15.75087872132524 $191 $314 forward 7 unknown #
face $-1 $315 $316 $44 $-1 $317 forward single #
loop $-1 $-1 $318 $120 #
plane-surface $-1 -51.812242425098461 -121.58965391165806 144.17655631033034 1 0 0 0 0.50000000669873634 -0.8660253999169214 forward_v I I I I #
coedge $-1 $319 $320 $321 $322 reversed $121 $-1 #
coedge $-1 $198 $123 $323 $324 reversed $77 $-1 #
coedge $-1 $123 $197 $319 $325 reversed $77 $-1 #
coedge $-1 $321 $326 $123 $200 forward $316 $-1 #
edge $-1 $327 18.224919578466803 $328 32.844356104926973 $199 $329 forward 7 unknown #
loop $-1 $-1 $206 $124 #
plane-surface $-1 -41.847639425024084 -42.569907377362213 7.3103429565970259 0 -0.50000000669873634 0.8660253999169214 1 0 0 forward_v I I I I #
loop $-1 $-1 $330 $79 #
coedge $-1 $204 $204 $205 $331 reversed $125 $-1 #
coedge $-1 $205 $205 $204 $331 forward $127 $-1 #
coedge $-1 $206 $206 $128 $207 forward $201 $-1 #
edge $-1 $332 1.9676622199467145e-015 $332 6.2831853071796022 $206 $333 forward 7 unknown #
loop $-1 $-1 $213 $129 #
plane-surface $-1 -41.847639425024084 -42.569907377362213 7.3103429565970259 0 -0.50000000669873634 0.8660253999169214 1 0 0 forward_v I I I I #
loop $-1 $-1 $334 $82 #
coedge $-1 $211 $211 $212 $335 reversed $130 $-1 #
coedge $-1 $212 $212 $211 $335 forward $132 $-1 #
coedge $-1 $213 $213 $133 $214 forward $208 $-1 #
edge $-1 $336 1.9676622199467145e-015 $336 6.2831853071796022 $213 $337 forward 7 unknown #
loop $-1 $-1 $220 $134 #
plane-surface $-1 -41.847639425024084 -42.569907377362213 7.3103429565970259 0 -0.50000000669873634 0.8660253999169214 1 0 0 forward_v I I I I #
loop $-1 $-1 $338 $85 #
coedge $-1 $218 $218 $219 $339 reversed $135 $-1 #
coedge $-1 $219 $219 $218 $339 forward $137 $-1 #
coedge $-1 $220 $220 $138 $221 forward $215 $-1 #
edge $-1 $340 1.9676622199467145e-015 $340 6.2831853071796022 $220 $341 forward 7 unknown #
face $-1 $342 $343 $48 $-1 $344 reversed single #
loop $-1 $-1 $345 $139 #
plane-surface $-1 -20.798096894495927 60.360365399333872 179.18866876554242 -1 0 0 0 0.55919291073839883 0.82903756765294845 forward_v I I I I #
coedge $-1 $346 $347 $348 $349 reversed $140 $-1 #
coedge $-1 $227 $142 $350 $351 reversed $89 $-1 #
coedge $-1 $142 $226 $346 $352 reversed $89 $-1 #
coedge $-1 $348 $353 $142 $229 forward $354 $-1 #
edge $-1 $355 -12.389724677695291 $356 10.134031943474504 $228 $357 forward 7 unknown #
loop $-1 $-1 $235 $143 #
plane-surface $-1 -34.957200168617796 -28.014197557317132 48.167993594198066 0 0.55919291073839883 0.82903756765294845 1 0 0 forward_v I I I I #
loop $-1 $-1 $358 $91 #
coedge $-1 $233 $233 $234 $359 reversed $144 $-1 #
coedge $-1 $234 $234 $233 $359 forward $146 $-1 #
coedge $-1 $235 $235 $147 $236 forward $230 $-1 #
edge $-1 $360 -9.9332615153428852e-016 $360 6.2831853071795996 $235 $361 forward 7 unknown #
loop $-1 $-1 $242 $148 #
plane-surface $-1 -34.957200168617796 -28.014197557317132 48.167993594198066 0 0.55919291073839883 0.82903756765294845 1 0 0 forward_v I I I I #
loop $-1 $-1 $362 $94 #
coedge $-1 $240 $240 $241 $363 reversed $149 $-1 #
coedge $-1 $241 $241 $240 $363 forward $151 $-1 #
coedge $-1 $242 $242 $152 $243 forward $237 $-1 #
edge $-1 $364 -9.9332615153428852e-016 $364 6.2831853071795996 $242 $365 forward 7 unknown #
loop $-1 $-1 $249 $153 #
plane-surface $-1 -34.957200168617796 -28.014197557317132 48.167993594198066 0 0.55919291073839883 0.82903756765294845 1 0 0 forward_v I I I I #
loop $-1 $-1 $366 $97 #
coedge $-1 $247 $247 $248 $367 reversed $154 $-1 #
coedge $-1 $248 $248 $247 $367 forward $156 $-1 #
coedge $-1 $249 $249 $157 $250 forward $244 $-1 #
edge $-1 $368 -9.9332615153428852e-016 $368 6.2831853071795996 $249 $369 forward 7 unknown #
face $-1 $370 $371 $52 $-1 $372 forward single #
loop $-1 $-1 $373 $158 #
plane-surface $-1 51.590805999515176 60.360365399333872 179.18866876554242 -1 0 0 0 0.55919291073839883 0.82903756765294845 forward_v I I I I #
coedge $-1 $374 $375 $376 $377 reversed $159 $-1 #
coedge $-1 $256 $161 $378 $379 reversed $101 $-1 #
coedge $-1 $161 $255 $374 $380 reversed $101 $-1 #
coedge $-1 $376 $381 $161 $258 forward $371 $-1 #
edge $-1 $382 -12.389724677695291 $383 10.134031943474504 $257 $384 forward 7 unknown #
loop $-1 $-1 $264 $162 #
plane-surface $-1 37.431702725393308 -28.014197557317132 48.167993594198066 0 0.55919291073839883 0.82903756765294845 1 0 0 forward_v I I I I #
loop $-1 $-1 $385 $103 #
coedge $-1 $262 $262 $263 $386 reversed $163 $-1 #
coedge $-1 $263 $263 $262 $386 forward $165 $-1 #
coedge $-1 $264 $264 $166 $265 forward $259 $-1 #
edge $-1 $387 -9.9332615153428852e-016 $387 6.2831853071795996 $264 $388 forward 7 unknown #
loop $-1 $-1 $271 $167 #
plane-surface $-1 37.431702725393308 -28.014197557317132 48.167993594198066 0 0.55919291073839883 0.82903756765294845 1 0 0 forward_v I I I I #
loop $-1 $-1 $389 $106 #
coedge $-1 $269 $269 $270 $390 reversed $168 $-1 #
coedge $-1 $270 $270 $269 $390 forward $170 $-1 #
coedge $-1 $271 $271 $171 $272 forward $266 $-1 #
edge $-1 $391 -9.9332615153428852e-016 $391 6.2831853071795996 $271 $392 forward 7 unknown #
loop $-1 $-1 $278 $172 #
plane-surface $-1 37.431702725393308 -28.014197557317132 48.167993594198066 0 0.55919291073839883 0.82903756765294845 1 0 0 forward_v I I I I #
loop $-1 $-1 $393 $109 #
coedge $-1 $276 $276 $277 $394 reversed $173 $-1 #
coedge $-1 $277 $277 $276 $394 forward $175 $-1 #
coedge $-1 $278 $278 $176 $279 forward $273 $-1 #
edge $-1 $395 -9.9332615153428852e-016 $395 6.2831853071795996 $278 $396 forward 7 unknown #
face $-1 $397 $398 $42 $-1 $399 reversed single #
loop $-1 $-1 $400 $177 #
plane-surface $-1 -79.01974547563097 0 0 1 0 0 0 0 -1 forward_v I I I I #
coedge $-1 $401 $291 $402 $403 forward $178 $-1 #
coedge $-1 $404 $180 $401 $405 forward $113 $-1 #
coedge $-1 $180 $404 $406 $407 forward $113 $-1 #
coedge $-1 $294 $293 $180 $287 reversed $295 $-1 #
edge $-1 $408 -42.569907377362227 $409 42.569907377362227 $286 $410 forward 7 unknown #
coedge $-1 $182 $181 $411 $412 forward $71 $-1 #
coedge $-1 $413 $414 $181 $290 reversed $398 $-1 #
edge $-1 $297 -79.01974547563097 $415 79.01974547563097 $289 $416 forward 7 unknown #
coedge $-1 $283 $417 $182 $292 reversed $178 $-1 #
edge $-1 $418 -79.01974547563097 $296 79.01974547563097 $291 $419 forward 7 unknown #
coedge $-1 $286 $183 $417 $420 forward $295 $-1 #
coedge $-1 $183 $286 $413 $421 reversed $295 $-1 #
loop $-1 $-1 $293 $397 #
vertex $-1 $184 $422 #
vertex $-1 $184 $423 #
straight-curve $-1 79.01974547563097 0 15.75087872132524 0 1 0 I I #
face $-1 $424 $311 $43 $-1 $425 reversed single #
loop $-1 $-1 $426 $185 #
plane-surface $-1 -92.281430638870717 -12.863491495925093 0 1 0 0 0 0 -1 forward_v I I I I #
coedge $-1 $427 $428 $429 $430 forward $186 $-1 #
coedge $-1 $431 $188 $427 $432 forward $117 $-1 #
coedge $-1 $188 $431 $309 $433 forward $117 $-1 #
edge $-1 $312 11.068149934711748 $434 14.658833057138438 $188 $435 forward 7 unknown #
coedge $-1 $190 $189 $436 $437 forward $74 $-1 #
coedge $-1 $438 $439 $189 $308 forward $440 $-1 #
edge $-1 $441 -14.658833057138438 $313 -11.068149934711748 $307 $442 forward 7 unknown #
coedge $-1 $443 $191 $304 $433 reversed $311 $-1 #
coedge $-1 $191 $443 $438 $444 reversed $311 $-1 #
loop $-1 $-1 $191 $299 #
vertex $-1 $305 $445 #
vertex $-1 $444 $446 #
straight-curve $-1 -79.01974547563097 -11.068149934711748 0 0 0 1 I I #
face $-1 $-1 $447 $44 $-1 $448 reversed single #
loop $-1 $-1 $199 $193 #
plane-surface $-1 0 0 15.75087872132524 0 0 1 1 0 0 forward_v I I I I #
coedge $-1 $449 $450 $451 $452 reversed $194 $-1 #
coedge $-1 $453 $196 $198 $325 forward $121 $-1 #
coedge $-1 $196 $453 $449 $454 forward $121 $-1 #
coedge $-1 $451 $199 $196 $322 forward $316 $-1 #
edge $-1 $328 10.959216712437666 $455 30.888422712586419 $321 $456 forward 7 unknown #
coedge $-1 $457 $458 $197 $324 forward $447 $-1 #
edge $-1 $459 -64.777935198568159 $327 -56.337399433839934 $323 $460 forward 7 unknown #
edge $-1 $328 -16.881071303292735 $459 1.6303764080091705e-014 $198 $461 forward 7 unknown #
coedge $-1 $199 $451 $457 $462 forward $316 $-1 #
vertex $-1 $200 $463 #
vertex $-1 $200 $464 #
straight-curve $-1 -31.883036424949708 -60.794826955829031 15.750878721325236 0 1 0 I I #
coedge $-1 $330 $330 $-1 $465 reversed $203 $-1 #
edge $-1 $466 0 $466 6.2831853071796004 $204 $467 forward 7 unknown #
vertex $-1 $207 $468 #
ellipse-curve $-1 -47.826401225068707 -35.260189114132167 11.530610838961115 0 -0.50000000669873634 0.8660253999169214 1 0 0 1 I I #
coedge $-1 $334 $334 $-1 $469 reversed $210 $-1 #
edge $-1 $470 0 $470 6.2831853071796004 $211 $471 forward 7 unknown #
vertex $-1 $214 $472 #
ellipse-curve $-1 -41.847639425024084 -35.260189114132167 11.530610838961115 0 -0.50000000669873634 0.8660253999169214 1 0 0 1 I I #
coedge $-1 $338 $338 $-1 $473 reversed $217 $-1 #
edge $-1 $474 0 $474 6.2831853071796004 $218 $475 forward 7 unknown #
vertex $-1 $221 $476 #
ellipse-curve $-1 -35.868877624979461 -35.260189114132167 11.530610838961115 0 -0.50000000669873634 0.8660253999169214 1 0 0 1 I I #
face $-1 $-1 $354 $48 $-1 $477 forward single #
loop $-1 $-1 $478 $222 #
plane-surface $-1 0 42.569907377362227 0 0 -1 0 0 0 -1 forward_v I I I I #
coedge $-1 $479 $480 $481 $482 reversed $223 $-1 #
coedge $-1 $483 $225 $227 $352 forward $140 $-1 #
coedge $-1 $225 $483 $479 $484 forward $140 $-1 #
coedge $-1 $481 $228 $225 $349 forward $354 $-1 #
edge $-1 $356 -31.637703358430766 $485 -3.3194968101870295 $348 $486 forward 7 unknown #
coedge $-1 $487 $488 $226 $351 forward $343 $-1 #
edge $-1 $489 -89.03592162099558 $355 -73.843455661445972 $350 $490 forward 7 unknown #
edge $-1 $356 57.971255089888245 $489 85.139814754724426 $227 $491 forward 7 unknown #
coedge $-1 $228 $481 $487 $492 forward $354 $-1 #
loop $-1 $-1 $481 $342 #
vertex $-1 $351 $493 #
vertex $-1 $229 $494 #
straight-curve $-1 -49.116303442739664 30.180182699666936 15.750878721325236 0 -1 0 I I #
coedge $-1 $358 $358 $-1 $495 reversed $232 $-1 #
edge $-1 $496 0 $496 6.2831853071796004 $233 $497 forward 7 unknown #
vertex $-1 $236 $498 #
ellipse-curve $-1 -43.452662133090918 31.308029066777333 8.1546457415504285 0 0.55919291073839883 0.82903756765294845 2 0 0 1 I I #
coedge $-1 $362 $362 $-1 $499 reversed $239 $-1 #
edge $-1 $500 0 $500 6.2831853071796004 $240 $501 forward 7 unknown #
vertex $-1 $243 $502 #
ellipse-curve $-1 -34.957200168617796 31.308029066777333 8.1546457415504285 0 0.55919291073839883 0.82903756765294845 2 0 0 1 I I #
coedge $-1 $366 $366 $-1 $503 reversed $246 $-1 #
edge $-1 $504 0 $504 6.2831853071796004 $247 $505 forward 7 unknown #
vertex $-1 $250 $506 #
ellipse-curve $-1 -26.461738204144673 31.308029066777333 8.1546457415504285 0 0.55919291073839883 0.82903756765294845 2 0 0 1 I I #
face $-1 $-1 $507 $52 $-1 $508 reversed single #
loop $-1 $-1 $257 $251 #
plane-surface $-1 0 0 15.75087872132524 0 0 1 1 0 0 forward_v I I I I #
coedge $-1 $509 $510 $511 $512 reversed $252 $-1 #
coedge $-1 $513 $254 $256 $380 forward $159 $-1 #
coedge $-1 $254 $513 $509 $514 forward $159 $-1 #
coedge $-1 $511 $257 $254 $377 forward $371 $-1 #
edge $-1 $383 4.5567480885747855 $515 32.874954636818522 $376 $516 forward 7 unknown #
coedge $-1 $517 $518 $255 $379 forward $507 $-1 #
edge $-1 $519 -89.03592162099558 $382 -73.843455661445972 $378 $520 forward 7 unknown #
edge $-1 $383 57.971255089888245 $519 85.139814754724426 $256 $521 forward 7 unknown #
coedge $-1 $257 $511 $517 $522 forward $371 $-1 #
vertex $-1 $258 $523 #
vertex $-1 $258 $524 #
straight-curve $-1 23.272599451271439 30.180182699666936 15.750878721325236 0 -1 0 I I #
coedge $-1 $385 $385 $-1 $525 reversed $261 $-1 #
edge $-1 $526 0 $526 6.2831853071796004 $262 $527 forward 7 unknown #
vertex $-1 $265 $528 #
ellipse-curve $-1 28.936240760920185 31.308029066777333 8.1546457415504285 0 0.55919291073839883 0.82903756765294845 2 0 0 1 I I #
coedge $-1 $389 $389 $-1 $529 reversed $268 $-1 #
edge $-1 $530 0 $530 6.2831853071796004 $269 $531 forward 7 unknown #
vertex $-1 $272 $532 #
ellipse-curve $-1 37.431702725393308 31.308029066777333 8.1546457415504285 0 0.55919291073839883 0.82903756765294845 2 0 0 1 I I #
coedge $-1 $393 $393 $-1 $533 reversed $275 $-1 #
edge $-1 $534 0 $534 6.2831853071796004 $276 $535 forward 7 unknown #
vertex $-1 $279 $536 #
ellipse-curve $-1 45.92716468986643 31.308029066777333 8.1546457415504285 0 0.55919291073839883 0.82903756765294845 2 0 0 1 I I #
face $-1 $-1 $295 $42 $-1 $537 reversed single #
loop $-1 $-1 $413 $280 #
plane-surface $-1 0 42.569907377362227 0 0 -1 0 0 0 -1 forward_v I I I I #
coedge $-1 $538 $411 $414 $539 forward $281 $-1 #
coedge $-1 $417 $283 $284 $405 reversed $178 $-1 #
coedge $-1 $411 $538 $283 $403 reversed $281 $-1 #
edge $-1 $418 -15.75087872132524 $540 15.75087872132524 $402 $541 forward 7 unknown #
coedge $-1 $285 $284 $538 $542 forward $113 $-1 #
edge $-1 $409 -79.01974547563097 $540 79.01974547563097 $401 $543 forward 7 unknown #
coedge $-1 $414 $413 $285 $407 reversed $398 $-1 #
edge $-1 $544 -79.01974547563097 $408 79.01974547563097 $406 $545 forward 7 unknown #
vertex $-1 $287 $546 #
vertex $-1 $420 $547 #
straight-curve $-1 79.01974547563097 0 -15.75087872132524 0 -1 0 I I #
coedge $-1 $400 $402 $288 $412 reversed $281 $-1 #
edge $-1 $415 -42.569907377362227 $418 42.569907377362227 $411 $548 forward 7 unknown #
coedge $-1 $406 $289 $294 $421 forward $398 $-1 #
coedge $-1 $289 $406 $400 $539 reversed $398 $-1 #
vertex $-1 $290 $549 #
straight-curve $-1 0 42.569907377362227 15.75087872132524 -1 0 0 I I #
coedge $-1 $291 $401 $293 $420 reversed $178 $-1 #
vertex $-1 $412 $550 #
straight-curve $-1 0 -42.569907377362227 15.75087872132524 1 0 0 I I #
edge $-1 $296 -15.75087872132524 $409 15.75087872132524 $293 $551 forward 7 unknown #
edge $-1 $297 -15.75087872132524 $408 15.75087872132524 $294 $552 forward 7 unknown #
point $-1 79.01974547563097 -42.569907377362227 15.75087872132524 #
point $-1 79.01974547563097 42.569907377362227 15.75087872132524 #
face $-1 $-1 $440 $43 $-1 $553 forward single #
plane-surface $-1 -85.650588057250843 -11.068149934711748 0 0 -1 0 0 0 -1 forward_v I I I I #
coedge $-1 $554 $555 $443 $556 forward $300 $-1 #
coedge $-1 $436 $302 $303 $432 reversed $186 $-1 #
coedge $-1 $302 $436 $439 $557 reversed $186 $-1 #
coedge $-1 $555 $554 $302 $430 reversed $300 $-1 #
edge $-1 $558 -15.75087872132524 $559 15.75087872132524 $429 $560 forward 7 unknown #
coedge $-1 $304 $303 $554 $561 forward $117 $-1 #
edge $-1 $434 -6.6308425816198735 $559 6.6308425816198735 $427 $562 forward 7 unknown #
edge $-1 $563 -6.6308425816198735 $312 6.6308425816198735 $309 $564 forward 7 unknown #
vertex $-1 $432 $565 #
straight-curve $-1 -79.01974547563097 0 -15.75087872132524 0 -1 0 I I #
coedge $-1 $428 $427 $306 $437 reversed $186 $-1 #
edge $-1 $441 -15.75087872132524 $434 15.75087872132524 $436 $566 forward 7 unknown #
coedge $-1 $567 $307 $310 $444 forward $440 $-1 #
coedge $-1 $307 $567 $428 $557 forward $440 $-1 #
loop $-1 $-1 $307 $424 #
vertex $-1 $308 $568 #
straight-curve $-1 -79.01974547563097 0 15.75087872132524 0 1 0 I I #
coedge $-1 $310 $309 $426 $556 reversed $311 $-1 #
edge $-1 $313 -6.6308425816198735 $569 6.6308425816198735 $310 $570 forward 7 unknown #
point $-1 -79.01974547563097 -11.068149934711748 -15.75087872132524 #
point $-1 -79.01974547563097 -11.068149934711748 15.75087872132524 #
loop $-1 $-1 $323 $315 #
plane-surface $-1 0 -42.569907377362227 0 0 1 0 0 0 1 forward_v I I I I #
coedge $-1 $450 $318 $320 $454 reversed $194 $-1 #
coedge $-1 $318 $449 $571 $572 reversed $194 $-1 #
coedge $-1 $326 $321 $318 $452 forward $316 $-1 #
edge $-1 $455 -32.844356104926973 $573 -18.224919578466803 $451 $574 forward 7 unknown #
coedge $-1 $320 $319 $458 $575 reversed $121 $-1 #
edge $-1 $576 -1.6303764080091705e-014 $455 16.881071303292735 $449 $577 forward 7 unknown #
vertex $-1 $322 $578 #
straight-curve $-1 -20.923819712512042 -27.950470850902057 15.75087872132524 -1 0 0 I I #
coedge $-1 $571 $323 $326 $462 reversed $447 $-1 #
coedge $-1 $323 $571 $453 $575 forward $447 $-1 #
vertex $-1 $324 $579 #
straight-curve $-1 -31.883036424949708 -42.569907377362227 72.08827815516517 0 0 1 I I #
straight-curve $-1 -31.883036424949708 -42.569907377362213 7.3103429565970259 0 -0.8660253999169214 -0.50000000669873634 I I #
edge $-1 $573 -51.812242425098461 $327 -31.883036424949708 $457 $580 forward 7 unknown #
point $-1 -31.883036424949708 -42.569907377362227 15.75087872132524 #
point $-1 -31.883036424949708 -27.950470850902057 15.75087872132524 #
edge $-1 $581 1 $581 0 $330 $-1 forward 7 unknown #
vertex $-1 $331 $582 #
ellipse-curve $-1 -47.826401225068707 -33.853423141734254 9.0940207439344256 0 -0.50000000669873634 0.8660253999169214 1 0 0 1 I I #
point $-1 -46.826401225068707 -35.260189114132189 11.530610838961156 #
edge $-1 $583 1 $583 0 $334 $-1 forward 7 unknown #
vertex $-1 $335 $584 #
ellipse-curve $-1 -41.847639425024084 -33.853423141734254 9.0940207439344256 0 -0.50000000669873634 0.8660253999169214 1 0 0 1 I I #
point $-1 -40.847639425024084 -35.260189114132189 11.530610838961156 #
edge $-1 $585 1 $585 0 $338 $-1 forward 7 unknown #
vertex $-1 $339 $586 #
ellipse-curve $-1 -35.868877624979461 -33.853423141734254 9.0940207439344256 0 -0.50000000669873634 0.8660253999169214 1 0 0 1 I I #
point $-1 -34.868877624979461 -35.260189114132189 11.530610838961156 #
plane-surface $-1 0 0 15.75087872132524 0 0 1 1 0 0 forward_v I I I I #
coedge $-1 $488 $487 $480 $587 forward $343 $-1 #
coedge $-1 $480 $345 $347 $484 reversed $223 $-1 #
coedge $-1 $345 $479 $478 $587 reversed $223 $-1 #
coedge $-1 $353 $348 $345 $482 forward $354 $-1 #
edge $-1 $485 -10.134031943474504 $588 12.389724677695291 $481 $589 forward 7 unknown #
coedge $-1 $347 $346 $488 $590 reversed $140 $-1 #
edge $-1 $591 -85.139814754724426 $485 -57.971255089888245 $479 $592 forward 7 unknown #
vertex $-1 $349 $593 #
straight-curve $-1 -17.478600084308898 20.046150756192425 15.750878721325236 1 0 0 I I #
coedge $-1 $478 $350 $353 $492 reversed $343 $-1 #
coedge $-1 $350 $478 $483 $590 forward $343 $-1 #
vertex $-1 $351 $594 #
straight-curve $-1 -49.116303442739664 42.569907377362227 89.594334382771208 0 0 1 I I #
straight-curve $-1 -49.116303442739664 -28.014197557317132 48.167993594198066 0 0.82903756765294845 -0.55919291073839883 I I #
edge $-1 $588 20.798096894495927 $355 49.116303442739664 $487 $595 forward 7 unknown #
point $-1 -49.116303442739664 42.569907377362227 15.75087872132524 #
point $-1 -49.116303442739664 20.046150756192432 15.750878721325236 #
edge $-1 $596 1 $596 0 $358 $-1 forward 7 unknown #
vertex $-1 $359 $597 #
ellipse-curve $-1 -43.452662133090918 29.813753385016593 5.9392909814658292 0 0.55919291073839883 0.82903756765294845 2 0 0 1 I I #
point $-1 -41.452662133090918 31.308029066777333 8.1546457415504321 #
edge $-1 $598 1 $598 0 $362 $-1 forward 7 unknown #
vertex $-1 $363 $599 #
ellipse-curve $-1 -34.957200168617796 29.813753385016593 5.9392909814658292 0 0.55919291073839883 0.82903756765294845 2 0 0 1 I I #
point $-1 -32.957200168617796 31.308029066777333 8.1546457415504321 #
edge $-1 $600 1 $600 0 $366 $-1 forward 7 unknown #
vertex $-1 $367 $601 #
ellipse-curve $-1 -26.461738204144673 29.813753385016593 5.9392909814658292 0 0.55919291073839883 0.82903756765294845 2 0 0 1 I I #
point $-1 -24.461738204144673 31.308029066777333 8.1546457415504321 #
loop $-1 $-1 $378 $370 #
plane-surface $-1 0 42.569907377362227 0 0 -1 0 0 0 -1 forward_v I I I I #
coedge $-1 $510 $373 $375 $514 reversed $252 $-1 #
coedge $-1 $373 $509 $602 $603 reversed $252 $-1 #
coedge $-1 $381 $376 $373 $512 forward $371 $-1 #
edge $-1 $515 -10.134031943474504 $604 12.389724677695291 $511 $605 forward 7 unknown #
coedge $-1 $375 $374 $518 $606 reversed $159 $-1 #
edge $-1 $607 -85.139814754724426 $515 -57.971255089888245 $509 $608 forward 7 unknown #
vertex $-1 $377 $609 #
straight-curve $-1 18.715851362696654 20.046150756192425 15.750878721325236 1 0 0 I I #
coedge $-1 $602 $378 $381 $522 reversed $507 $-1 #
coedge $-1 $378 $602 $513 $606 forward $507 $-1 #
vertex $-1 $379 $610 #
straight-curve $-1 23.272599451271439 42.569907377362227 89.594334382771208 0 0 1 I I #
straight-curve $-1 23.272599451271439 -28.014197557317132 48.167993594198066 0 0.82903756765294845 -0.55919291073839883 I I #
edge $-1 $604 -51.590805999515176 $382 -23.272599451271439 $517 $611 forward 7 unknown #
point $-1 23.272599451271439 42.569907377362227 15.75087872132524 #
point $-1 23.272599451271439 20.046150756192432 15.750878721325236 #
edge $-1 $612 1 $612 0 $385 $-1 forward 7 unknown #
vertex $-1 $386 $613 #
ellipse-curve $-1 28.936240760920185 29.813753385016593 5.9392909814658292 0 0.55919291073839883 0.82903756765294845 2 0 0 1 I I #
point $-1 30.936240760920185 31.308029066777333 8.1546457415504321 #
edge $-1 $614 1 $614 0 $389 $-1 forward 7 unknown #
vertex $-1 $390 $615 #
ellipse-curve $-1 37.431702725393308 29.813753385016593 5.9392909814658292 0 0.55919291073839883 0.82903756765294845 2 0 0 1 I I #
point $-1 39.431702725393308 31.308029066777333 8.1546457415504321 #
edge $-1 $616 1 $616 0 $393 $-1 forward 7 unknown #
vertex $-1 $394 $617 #
ellipse-curve $-1 45.92716468986643 29.813753385016593 5.9392909814658292 0 0.55919291073839883 0.82903756765294845 2 0 0 1 I I #
point $-1 47.92716468986643 31.308029066777333 8.1546457415504321 #
plane-surface $-1 79.01974547563097 0 0 -1 0 0 0 0 1 forward_v I I I I #
coedge $-1 $402 $400 $404 $542 reversed $281 $-1 #
edge $-1 $415 -15.75087872132524 $544 15.75087872132524 $414 $618 forward 7 unknown #
vertex $-1 $542 $619 #
straight-curve $-1 -79.01974547563097 -42.569907377362227 0 0 0 -1 I I #
edge $-1 $540 -42.569907377362227 $544 42.569907377362227 $538 $620 forward 7 unknown #
straight-curve $-1 0 -42.569907377362227 -15.75087872132524 -1 0 0 I I #
vertex $-1 $407 $621 #
straight-curve $-1 0 42.569907377362227 -15.75087872132524 1 0 0 I I #
point $-1 79.01974547563097 42.569907377362227 -15.75087872132524 #
point $-1 79.01974547563097 -42.569907377362227 -15.75087872132524 #
straight-curve $-1 -79.01974547563097 0 15.75087872132524 0 -1 0 I I #
point $-1 -79.01974547563097 42.569907377362227 15.75087872132524 #
point $-1 -79.01974547563097 -42.569907377362227 15.75087872132524 #
straight-curve $-1 79.01974547563097 -42.569907377362227 0 0 0 -1 I I #
straight-curve $-1 79.01974547563097 42.569907377362227 0 0 0 -1 I I #
plane-surface $-1 0 0 15.75087872132524 0 0 1 1 0 0 forward_v I I I I #
coedge $-1 $429 $426 $431 $561 reversed $300 $-1 #
coedge $-1 $426 $429 $567 $622 reversed $300 $-1 #
edge $-1 $569 -15.75087872132524 $563 15.75087872132524 $443 $623 forward 7 unknown #
edge $-1 $558 -6.6308425816198735 $441 6.6308425816198735 $428 $624 forward 7 unknown #
vertex $-1 $622 $625 #
vertex $-1 $561 $626 #
straight-curve $-1 -92.281430638870717 -14.658833057138438 0 0 0 -1 I I #
edge $-1 $559 -1.7953415612133448 $563 1.7953415612133448 $554 $627 forward 7 unknown #
straight-curve $-1 -85.650588057250843 -14.658833057138438 -15.75087872132524 -1 0 0 I I #
vertex $-1 $433 $628 #
straight-curve $-1 -85.650588057250843 -11.068149934711748 -15.75087872132524 1 0 0 I I #
point $-1 -79.01974547563097 -14.658833057138438 -15.75087872132524 #
straight-curve $-1 -79.01974547563097 -14.658833057138438 0 0 0 -1 I I #
coedge $-1 $439 $438 $555 $622 forward $440 $-1 #
point $-1 -79.01974547563097 -14.658833057138438 15.75087872132524 #
vertex $-1 $444 $629 #
straight-curve $-1 -85.650588057250843 -11.068149934711748 15.75087872132524 -1 0 0 I I #
coedge $-1 $458 $457 $450 $572 forward $447 $-1 #
edge $-1 $573 56.337399433839934 $576 64.777935198568159 $571 $630 forward 7 unknown #
vertex $-1 $462 $631 #
straight-curve $-1 -51.812242425098461 -60.794826955829031 15.750878721325236 0 -1 0 I I #
edge $-1 $576 -30.888422712586419 $459 -10.959216712437666 $458 $632 forward 7 unknown #
vertex $-1 $575 $633 #
straight-curve $-1 -51.812242425098461 -42.569907377362213 7.3103429565970259 0 0.8660253999169214 0.50000000669873634 I I #
point $-1 -51.812242425098461 -27.950470850902057 15.75087872132524 #
point $-1 -31.883036424949708 -42.569907377362227 7.3103429565970179 #
straight-curve $-1 0 -42.569907377362227 15.75087872132524 1 0 0 I I #
vertex $-1 $465 $634 #
point $-1 -46.826401225068707 -33.853423141734254 9.0940207439344256 #
vertex $-1 $469 $635 #
point $-1 -40.847639425024084 -33.853423141734254 9.0940207439344256 #
vertex $-1 $473 $636 #
point $-1 -34.868877624979461 -33.853423141734254 9.0940207439344256 #
edge $-1 $588 73.843455661445972 $591 89.03592162099558 $478 $637 forward 7 unknown #
vertex $-1 $492 $638 #
straight-curve $-1 -20.798096894495927 30.180182699666936 15.750878721325236 0 1 0 I I #
edge $-1 $591 3.3194968101870295 $489 31.637703358430766 $488 $639 forward 7 unknown #
vertex $-1 $590 $640 #
straight-curve $-1 -20.798096894495927 -28.014197557317132 48.167993594198066 0 -0.82903756765294845 0.55919291073839883 I I #
point $-1 -20.798096894495927 20.046150756192432 15.750878721325236 #
point $-1 -49.116303442739664 42.569907377362227 0.55841276177562804 #
straight-curve $-1 0 42.569907377362227 15.75087872132524 -1 0 0 I I #
vertex $-1 $495 $641 #
point $-1 -41.452662133090918 29.813753385016593 5.9392909814658292 #
vertex $-1 $499 $642 #
point $-1 -32.957200168617796 29.813753385016593 5.9392909814658292 #
vertex $-1 $503 $643 #
point $-1 -24.461738204144673 29.813753385016593 5.9392909814658292 #
coedge $-1 $518 $517 $510 $603 forward $507 $-1 #
edge $-1 $604 73.843455661445972 $607 89.03592162099558 $602 $644 forward 7 unknown #
vertex $-1 $522 $645 #
straight-curve $-1 51.590805999515176 30.180182699666936 15.750878721325236 0 1 0 I I #
edge $-1 $607 -32.874954636818522 $519 -4.5567480885747855 $518 $646 forward 7 unknown #
vertex $-1 $606 $647 #
straight-curve $-1 51.590805999515176 -28.014197557317132 48.167993594198066 0 -0.82903756765294845 0.55919291073839883 I I #
point $-1 51.590805999515176 20.046150756192432 15.750878721325236 #
point $-1 23.272599451271439 42.569907377362227 0.55841276177562804 #
straight-curve $-1 0 42.569907377362227 15.75087872132524 -1 0 0 I I #
vertex $-1 $525 $648 #
point $-1 30.936240760920185 29.813753385016593 5.9392909814658292 #
vertex $-1 $529 $649 #
point $-1 39.431702725393308 29.813753385016593 5.9392909814658292 #
vertex $-1 $533 $650 #
point $-1 47.92716468986643 29.813753385016593 5.9392909814658292 #
straight-curve $-1 -79.01974547563097 42.569907377362227 0 0 0 -1 I I #
point $-1 -79.01974547563097 -42.569907377362227 -15.75087872132524 #
straight-curve $-1 -79.01974547563097 0 -15.75087872132524 0 1 0 I I #
point $-1 -79.01974547563097 42.569907377362227 -15.75087872132524 #
edge $-1 $569 -1.7953415612133448 $558 1.7953415612133448 $555 $651 forward 7 unknown #
straight-curve $-1 -92.281430638870717 -11.068149934711748 0 0 0 -1 I I #
straight-curve $-1 -85.650588057250843 -14.658833057138438 15.75087872132524 1 0 0 I I #
point $-1 -92.281430638870717 -14.658833057138438 15.75087872132524 #
point $-1 -92.281430638870717 -14.658833057138438 -15.75087872132524 #
straight-curve $-1 -92.281430638870717 -12.863491495925093 -15.75087872132524 0 1 0 I I #
point $-1 -92.281430638870717 -11.068149934711748 -15.75087872132524 #
point $-1 -92.281430638870717 -11.068149934711748 15.75087872132524 #
straight-curve $-1 -51.812242425098461 -42.569907377362227 72.08827815516517 0 0 -1 I I #
point $-1 -51.812242425098461 -42.569907377362227 15.75087872132524 #
straight-curve $-1 -20.923819712512042 -42.569907377362227 7.3103429565970188 1 0 0 I I #
point $-1 -51.812242425098461 -42.569907377362227 7.3103429565970179 #
point $-1 -47.826401225068707 -33.353423135035513 8.2279953440175042 #
point $-1 -41.847639425024084 -33.353423135035513 8.2279953440175042 #
point $-1 -35.868877624979461 -33.353423135035513 8.2279953440175042 #
straight-curve $-1 -20.798096894495927 42.569907377362227 89.594334382771208 0 0 -1 I I #
point $-1 -20.798096894495927 42.569907377362227 15.75087872132524 #
straight-curve $-1 -17.478600084308898 42.569907377362227 0.55841276177563159 -1 0 0 I I #
point $-1 -20.798096894495927 42.569907377362227 0.55841276177562804 #
point $-1 -43.452662133090918 28.695367563539794 4.2812158461599328 #
point $-1 -34.957200168617796 28.695367563539794 4.2812158461599328 #
point $-1 -26.461738204144673 28.695367563539794 4.2812158461599328 #
straight-curve $-1 51.590805999515176 42.569907377362227 89.594334382771208 0 0 -1 I I #
point $-1 51.590805999515176 42.569907377362227 15.75087872132524 #
straight-curve $-1 18.715851362696654 42.569907377362227 0.55841276177563159 -1 0 0 I I #
point $-1 51.590805999515176 42.569907377362227 0.55841276177562804 #
point $-1 28.936240760920185 28.695367563539794 4.2812158461599328 #
point $-1 37.431702725393308 28.695367563539794 4.2812158461599328 #
point $-1 45.92716468986643 28.695367563539794 4.2812158461599328 #
straight-curve $-1 -92.281430638870717 -12.863491495925093 15.75087872132524 0 -1 0 I I #
End-of-ACIS-data 