500 0 10 0           
7 Unknown 11 ACIS 5.0 NT 24 Thu Mar 25 15:48:54 1999 
-1 9.9999999999999995e-007 1e-010 
body $-1 $10 $-1 $11 #
body $-1 $12 $-1 $13 #
body $-1 $14 $-1 $15 #
body $-1 $16 $-1 $17 #
body $-1 $18 $-1 $19 #
body $-1 $20 $-1 $21 #
body $-1 $22 $-1 $23 #
body $-1 $24 $-1 $25 #
body $-1 $26 $-1 $27 #
body $-1 $28 $-1 $29 #
lump $-1 $-1 $30 $0 #
transform $-1 1 0 0 0 1 0 0 0 1 48.607440412610245 29.710216905050789 9.1912441708062786 1 rotate no_reflect no_shear #
lump $-1 $-1 $31 $1 #
transform $-1 1 0 0 0 1 0 0 0 1 48.607440412610245 29.710216905050789 9.1912441708062786 1 rotate no_reflect no_shear #
lump $-1 $-1 $32 $2 #
transform $-1 1 0 0 0 1 0 0 0 1 48.607440412610245 29.710216905050789 9.1912441708062786 1 rotate no_reflect no_shear #
lump $-1 $-1 $33 $3 #
transform $-1 1 0 0 0 1 0 0 0 1 48.607440412610245 29.710216905050789 9.1912441708062786 1 rotate no_reflect no_shear #
lump $-1 $-1 $34 $4 #
transform $-1 1 0 0 0 1 0 0 0 1 48.607440412610245 29.710216905050789 9.1912441708062786 1 rotate no_reflect no_shear #
lump $-1 $-1 $35 $5 #
transform $-1 1 0 0 0 1 0 0 0 1 48.607440412610245 29.710216905050789 9.1912441708062786 1 rotate no_reflect no_shear #
lump $-1 $-1 $36 $6 #
transform $-1 1 0 0 0 1 0 0 0 1 48.607440412610245 29.710216905050789 9.1912441708062786 1 rotate no_reflect no_shear #
lump $-1 $-1 $37 $7 #
transform $-1 1 0 0 0 1 0 0 0 1 48.607440412610245 29.710216905050789 9.1912441708062786 1 rotate no_reflect no_shear #
lump $-1 $-1 $38 $8 #
transform $-1 1 0 0 0 1 0 0 0 1 48.607440412610245 29.710216905050789 9.1912441708062786 1 rotate no_reflect no_shear #
lump $-1 $-1 $39 $9 #
transform $-1 1 0 0 0 1 0 0 0 1 48.607440412610245 29.710216905050789 9.1912441708062786 1 rotate no_reflect no_shear #
shell $-1 $-1 $-1 $40 $-1 $10 #
shell $-1 $-1 $-1 $41 $-1 $12 #
shell $-1 $-1 $-1 $42 $-1 $14 #
shell $-1 $-1 $-1 $43 $-1 $16 #
shell $-1 $-1 $-1 $44 $-1 $18 #
shell $-1 $-1 $-1 $45 $-1 $20 #
shell $-1 $-1 $-1 $46 $-1 $22 #
shell $-1 $-1 $-1 $47 $-1 $24 #
shell $-1 $-1 $-1 $48 $-1 $26 #
shell $-1 $-1 $-1 $49 $-1 $28 #
face $-1 $50 $51 $30 $-1 $52 forward single #
face $-1 $53 $54 $31 $-1 $55 forward single #
face $-1 $56 $57 $32 $-1 $58 reversed single #
face $-1 $59 $60 $33 $-1 $61 forward single #
face $-1 $62 $63 $34 $-1 $64 reversed single #
face $-1 $65 $66 $35 $-1 $67 forward single #
face $-1 $68 $69 $36 $-1 $70 reversed single #
face $-1 $71 $72 $37 $-1 $73 forward single #
face $-1 $74 $75 $38 $-1 $76 reversed single #
face $-1 $77 $78 $39 $-1 $79 forward single #
face $-1 $80 $81 $30 $-1 $82 reversed single #
loop $-1 $-1 $83 $40 #
plane-surface $-1 0 0 9.1912441708062786 0 0 1 1 0 0 forward_v I I I I #
face $-1 $84 $85 $31 $-1 $86 reversed single #
loop $-1 $-1 $87 $41 #
plane-surface $-1 0 -24.019721202603073 -3.9482091265170611 0 0 1 1 0 0 forward_v I I I I #
face $-1 $88 $89 $32 $-1 $90 reversed single #
loop $-1 $-1 $91 $42 #
plane-surface $-1 -126.24669714413626 -18.32922550015536 61.69254186401583 0 1 0 -0.79863551827123203 0 0.60181501223851219 forward_v I I I I #
face $-1 $92 $93 $33 $-1 $94 forward single #
loop $-1 $95 $96 $43 #
cone-surface $-1 -44.364910312342388 -14.472702369060823 4.696918593618566 0.79863551827123203 0 -0.60181501223851219 0.90272251835776829 0 1.197953277406848 1 I I 0 1 1.5 forward I I I I #
face $-1 $97 $98 $34 $-1 $99 reversed single #
loop $-1 $-1 $100 $44 #
plane-surface $-1 -126.24669714413626 -4.8870934524830023 61.69254186401583 0 1 0 -0.79863551827123203 0 0.60181501223851219 forward_v I I I I #
face $-1 $101 $102 $35 $-1 $103 forward single #
loop $-1 $104 $105 $45 #
cone-surface $-1 -44.364910312342388 -1.0305703213884634 4.696918593618566 0.79863551827123203 0 -0.60181501223851219 0.90272251835776829 0 1.197953277406848 1 I I 0 1 1.5 forward I I I I #
face $-1 $106 $107 $36 $-1 $108 reversed single #
loop $-1 $-1 $109 $46 #
plane-surface $-1 -126.24669714413626 8.5550385951893535 61.69254186401583 0 1 0 -0.79863551827123203 0 0.60181501223851219 forward_v I I I I #
face $-1 $110 $111 $37 $-1 $112 forward single #
loop $-1 $113 $114 $47 #
cone-surface $-1 -44.364910312342388 12.411561726283896 4.696918593618566 0.79863551827123203 0 -0.60181501223851219 0.90272251835776829 0 1.197953277406848 1 I I 0 1 1.5 forward I I I I #
face $-1 $115 $116 $38 $-1 $117 reversed single #
loop $-1 $-1 $118 $48 #
plane-surface $-1 -126.24669714413626 21.997170642861711 61.69254186401583 0 1 0 -0.79863551827123203 0 0.60181501223851219 forward_v I I I I #
face $-1 $119 $120 $39 $-1 $121 forward single #
loop $-1 $122 $123 $49 #
cone-surface $-1 -44.364910312342388 25.853693773956255 4.696918593618566 0.79863551827123203 0 -0.60181501223851219 0.90272251835776829 0 1.197953277406848 1 I I 0 1 1.5 forward I I I I #
face $-1 $124 $125 $30 $-1 $126 reversed single #
loop $-1 $-1 $127 $50 #
plane-surface $-1 0 0 -9.1912441708062786 0 0 1 1 0 0 forward_v I I I I #
coedge $-1 $128 $129 $130 $131 forward $51 $-1 #
face $-1 $132 $133 $31 $-1 $134 reversed single #
loop $-1 $-1 $135 $53 #
plane-surface $-1 0 -24.019721202603073 -6.9482091265170611 0 0 1 1 0 0 forward_v I I I I #
coedge $-1 $136 $137 $138 $139 reversed $54 $-1 #
face $-1 $140 $141 $32 $-1 $142 reversed single #
loop $-1 $-1 $143 $56 #
plane-surface $-1 -48.607440412610245 -14.472702369060825 3.1871671704202598 -0.79863551827123203 0 0.60181501223851219 0.60181501223851219 0 0.79863551827123203 forward_v I I I I #
coedge $-1 $144 $145 $146 $147 reversed $57 $-1 #
face $-1 $-1 $148 $33 $-1 $149 forward single #
loop $-1 $150 $151 $59 #
cone-surface $-1 -41.785601779437584 -14.472702369060823 2.753270257444985 0.79863551827123203 0 -0.60181501223851219 0.45136125917888414 0 0.59897663870342399 1 I I -0.70710678118654757 0.70710678118654757 0.75 forward I I I I #
loop $-1 $-1 $152 $43 #
coedge $-1 $96 $96 $153 $154 reversed $60 $-1 #
face $-1 $155 $156 $34 $-1 $157 reversed single #
loop $-1 $-1 $158 $62 #
plane-surface $-1 -48.607440412610245 -1.0305703213884669 3.1871671704202598 -0.79863551827123203 0 0.60181501223851219 0.60181501223851219 0 0.79863551827123203 forward_v I I I I #
coedge $-1 $159 $160 $161 $162 reversed $63 $-1 #
face $-1 $-1 $163 $35 $-1 $164 forward single #
loop $-1 $165 $166 $65 #
cone-surface $-1 -41.785601779437584 -1.0305703213884634 2.753270257444985 0.79863551827123203 0 -0.60181501223851219 0.45136125917888414 0 0.59897663870342399 1 I I -0.70710678118654757 0.70710678118654757 0.75 forward I I I I #
loop $-1 $-1 $167 $45 #
coedge $-1 $105 $105 $168 $169 reversed $66 $-1 #
face $-1 $170 $171 $36 $-1 $172 reversed single #
loop $-1 $-1 $173 $68 #
plane-surface $-1 -48.607440412610245 12.411561726283889 3.1871671704202598 -0.79863551827123203 0 0.60181501223851219 0.60181501223851219 0 0.79863551827123203 forward_v I I I I #
coedge $-1 $174 $175 $176 $177 reversed $69 $-1 #
face $-1 $-1 $178 $37 $-1 $179 forward single #
loop $-1 $180 $181 $71 #
cone-surface $-1 -41.785601779437584 12.411561726283896 2.753270257444985 0.79863551827123203 0 -0.60181501223851219 0.45136125917888414 0 0.59897663870342399 1 I I -0.70710678118654757 0.70710678118654757 0.75 forward I I I I #
loop $-1 $-1 $182 $47 #
coedge $-1 $114 $114 $183 $184 reversed $72 $-1 #
face $-1 $185 $186 $38 $-1 $187 forward single #
loop $-1 $-1 $188 $74 #
plane-surface $-1 -48.607440412610245 25.853693773956248 3.1871671704202598 -0.79863551827123203 0 0.60181501223851219 0.60181501223851219 0 0.79863551827123203 forward_v I I I I #
coedge $-1 $189 $190 $191 $192 reversed $75 $-1 #
face $-1 $-1 $193 $39 $-1 $194 forward single #
loop $-1 $195 $196 $77 #
cone-surface $-1 -41.785601779437584 25.853693773956255 2.753270257444985 0.79863551827123203 0 -0.60181501223851219 0.45136125917888414 0 0.59897663870342399 1 I I -0.70710678118654757 0.70710678118654757 0.75 forward I I I I #
loop $-1 $-1 $197 $49 #
coedge $-1 $123 $123 $198 $199 reversed $78 $-1 #
face $-1 $200 $201 $30 $-1 $202 reversed single #
loop $-1 $-1 $203 $80 #
plane-surface $-1 0 -29.710216905050789 0 0 1 0 0 0 1 forward_v I I I I #
coedge $-1 $204 $205 $206 $207 forward $81 $-1 #
coedge $-1 $208 $83 $209 $210 forward $51 $-1 #
coedge $-1 $83 $208 $211 $212 forward $51 $-1 #
coedge $-1 $213 $214 $83 $131 reversed $215 $-1 #
edge $-1 $216 -29.710216905050789 $217 29.710216905050789 $130 $218 forward 7 unknown #
face $-1 $219 $220 $31 $-1 $221 reversed single #
loop $-1 $-1 $222 $84 #
plane-surface $-1 0 -18.32922550015536 -5.4482091265170611 0 -1 0 0 0 -1 forward_v I I I I #
coedge $-1 $223 $224 $225 $226 reversed $85 $-1 #
coedge $-1 $227 $87 $228 $229 forward $54 $-1 #
coedge $-1 $87 $227 $230 $231 reversed $54 $-1 #
coedge $-1 $232 $233 $87 $139 forward $234 $-1 #
edge $-1 $235 6.3193648988538236 $236 17.700356303749249 $138 $237 forward 7 unknown #
face $-1 $238 $239 $32 $-1 $240 reversed single #
loop $-1 $-1 $241 $88 #
plane-surface $-1 -126.24669714413626 -10.616179237966289 61.69254186401583 0 -1 0 0.79863551827123203 0 -0.60181501223851219 forward_v I I I I #
coedge $-1 $242 $243 $244 $245 reversed $89 $-1 #
coedge $-1 $145 $91 $246 $247 reversed $57 $-1 #
coedge $-1 $91 $144 $242 $248 reversed $57 $-1 #
coedge $-1 $244 $249 $91 $147 forward $250 $-1 #
edge $-1 $251 14.515908159457886 $252 19.040304571590809 $146 $253 forward 7 unknown #
loop $-1 $-1 $153 $92 #
plane-surface $-1 -48.607440412610245 -14.472702369060825 3.1871671704202598 -0.79863551827123203 0 0.60181501223851219 0.60181501223851219 0 0.79863551827123203 forward_v I I I I #
loop $-1 $-1 $254 $59 #
coedge $-1 $151 $151 $152 $255 reversed $93 $-1 #
coedge $-1 $152 $152 $151 $255 forward $95 $-1 #
coedge $-1 $153 $153 $96 $154 forward $148 $-1 #
edge $-1 $256 0 $256 6.2831853071796004 $153 $257 forward 7 unknown #
face $-1 $258 $259 $34 $-1 $260 forward single #
loop $-1 $-1 $261 $97 #
plane-surface $-1 -126.24669714413626 2.8259528097060684 61.69254186401583 0 -1 0 0.79863551827123203 0 -0.60181501223851219 forward_v I I I I #
coedge $-1 $262 $263 $264 $265 reversed $98 $-1 #
coedge $-1 $160 $100 $266 $267 reversed $63 $-1 #
coedge $-1 $100 $159 $262 $268 reversed $63 $-1 #
coedge $-1 $264 $269 $100 $162 forward $259 $-1 #
edge $-1 $270 14.515908159457886 $271 19.040304571590809 $161 $272 forward 7 unknown #
loop $-1 $-1 $168 $101 #
plane-surface $-1 -48.607440412610245 -1.0305703213884669 3.1871671704202598 -0.79863551827123203 0 0.60181501223851219 0.60181501223851219 0 0.79863551827123203 forward_v I I I I #
loop $-1 $-1 $273 $65 #
coedge $-1 $166 $166 $167 $274 reversed $102 $-1 #
coedge $-1 $167 $167 $166 $274 forward $104 $-1 #
coedge $-1 $168 $168 $105 $169 forward $163 $-1 #
edge $-1 $275 0 $275 6.2831853071796004 $168 $276 forward 7 unknown #
face $-1 $277 $278 $36 $-1 $279 forward single #
loop $-1 $-1 $280 $106 #
plane-surface $-1 -126.24669714413626 16.268084857378426 61.69254186401583 0 -1 0 0.79863551827123203 0 -0.60181501223851219 forward_v I I I I #
coedge $-1 $281 $282 $283 $284 reversed $107 $-1 #
coedge $-1 $175 $109 $285 $286 reversed $69 $-1 #
coedge $-1 $109 $174 $281 $287 reversed $69 $-1 #
coedge $-1 $283 $288 $109 $177 forward $278 $-1 #
edge $-1 $289 14.515908159457886 $290 19.040304571590809 $176 $291 forward 7 unknown #
loop $-1 $-1 $183 $110 #
plane-surface $-1 -48.607440412610245 12.411561726283889 3.1871671704202598 -0.79863551827123203 0 0.60181501223851219 0.60181501223851219 0 0.79863551827123203 forward_v I I I I #
loop $-1 $-1 $292 $71 #
coedge $-1 $181 $181 $182 $293 reversed $111 $-1 #
coedge $-1 $182 $182 $181 $293 forward $113 $-1 #
coedge $-1 $183 $183 $114 $184 forward $178 $-1 #
edge $-1 $294 0 $294 6.2831853071796004 $183 $295 forward 7 unknown #
face $-1 $296 $297 $38 $-1 $298 reversed single #
loop $-1 $-1 $191 $115 #
plane-surface $-1 0 0 9.1912441708062786 0 0 1 1 0 0 forward_v I I I I #
coedge $-1 $299 $300 $301 $302 reversed $116 $-1 #
coedge $-1 $190 $118 $303 $304 reversed $75 $-1 #
coedge $-1 $118 $189 $299 $305 reversed $75 $-1 #
coedge $-1 $301 $306 $118 $192 forward $186 $-1 #
edge $-1 $307 14.515908159457886 $308 19.040304571590809 $191 $309 forward 7 unknown #
loop $-1 $-1 $198 $119 #
plane-surface $-1 -48.607440412610245 25.853693773956248 3.1871671704202598 -0.79863551827123203 0 0.60181501223851219 0.60181501223851219 0 0.79863551827123203 forward_v I I I I #
loop $-1 $-1 $310 $77 #
coedge $-1 $196 $196 $197 $311 reversed $120 $-1 #
coedge $-1 $197 $197 $196 $311 forward $122 $-1 #
coedge $-1 $198 $198 $123 $199 forward $193 $-1 #
edge $-1 $312 0 $312 6.2831853071796004 $198 $313 forward 7 unknown #
face $-1 $314 $315 $30 $-1 $316 reversed single #
loop $-1 $-1 $317 $124 #
plane-surface $-1 -48.607440412610245 0 0 1 0 0 0 0 -1 forward_v I I I I #
coedge $-1 $318 $211 $319 $320 forward $125 $-1 #
coedge $-1 $321 $127 $318 $322 forward $81 $-1 #
coedge $-1 $127 $321 $323 $324 forward $81 $-1 #
coedge $-1 $214 $213 $127 $207 reversed $215 $-1 #
edge $-1 $325 -29.710216905050789 $326 29.710216905050789 $206 $327 forward 7 unknown #
coedge $-1 $129 $128 $328 $329 forward $51 $-1 #
coedge $-1 $330 $331 $128 $210 reversed $315 $-1 #
edge $-1 $217 -48.607440412610245 $332 48.607440412610245 $209 $333 forward 7 unknown #
coedge $-1 $203 $334 $129 $212 reversed $125 $-1 #
edge $-1 $335 -48.607440412610245 $216 48.607440412610245 $211 $336 forward 7 unknown #
coedge $-1 $206 $130 $334 $337 forward $215 $-1 #
coedge $-1 $130 $206 $330 $338 reversed $215 $-1 #
loop $-1 $-1 $213 $314 #
vertex $-1 $131 $339 #
vertex $-1 $131 $340 #
straight-curve $-1 48.607440412610245 0 9.1912441708062786 0 1 0 I I #
face $-1 $341 $342 $31 $-1 $343 reversed single #
loop $-1 $-1 $344 $132 #
plane-surface $-1 -48.607440412610245 0 0 1 0 0 0 0 -1 forward_v I I I I #
coedge $-1 $345 $228 $233 $346 reversed $133 $-1 #
coedge $-1 $347 $135 $348 $349 reversed $85 $-1 #
coedge $-1 $135 $347 $345 $350 forward $85 $-1 #
coedge $-1 $233 $232 $135 $226 forward $234 $-1 #
edge $-1 $351 -17.700356303749249 $352 -6.3193648988538236 $225 $353 forward 7 unknown #
coedge $-1 $137 $136 $344 $354 reversed $54 $-1 #
coedge $-1 $222 $355 $136 $229 reversed $133 $-1 #
edge $-1 $235 -48.607440412610245 $356 48.607440412610245 $228 $357 forward 7 unknown #
coedge $-1 $358 $359 $137 $231 forward $342 $-1 #
edge $-1 $236 -48.607440412610245 $360 48.607440412610245 $230 $361 forward 7 unknown #
coedge $-1 $225 $138 $359 $362 forward $234 $-1 #
coedge $-1 $138 $225 $222 $346 forward $234 $-1 #
loop $-1 $-1 $138 $341 #
vertex $-1 $139 $363 #
vertex $-1 $362 $364 #
straight-curve $-1 48.607440412610245 -12.009860601301536 -3.9482091265170611 0 -1 0 I I #
face $-1 $-1 $250 $32 $-1 $365 forward single #
loop $-1 $-1 $366 $140 #
plane-surface $-1 -48.607440412610245 0 0 1 0 0 0 0 -1 forward_v I I I I #
coedge $-1 $367 $368 $369 $370 reversed $141 $-1 #
coedge $-1 $371 $143 $145 $248 forward $89 $-1 #
coedge $-1 $143 $371 $367 $372 forward $89 $-1 #
coedge $-1 $369 $146 $143 $245 forward $250 $-1 #
edge $-1 $252 -11.092874315624947 $373 -3.3798280534358769 $244 $374 forward 7 unknown #
coedge $-1 $375 $376 $144 $247 forward $239 $-1 #
edge $-1 $377 -27.659103761587655 $251 -21.655026761201636 $246 $378 forward 7 unknown #
edge $-1 $252 -7.5179188290833281 $377 0 $145 $379 forward 7 unknown #
coedge $-1 $146 $369 $375 $380 forward $250 $-1 #
loop $-1 $-1 $369 $238 #
vertex $-1 $247 $381 #
vertex $-1 $147 $382 #
straight-curve $-1 -63.123348572068132 -18.32922550015536 9.1912441708062786 1 0 0 I I #
coedge $-1 $254 $254 $-1 $383 reversed $150 $-1 #
edge $-1 $384 0 $384 6.2831853071796004 $151 $385 forward 7 unknown #
vertex $-1 $154 $386 #
ellipse-curve $-1 -46.34524220654378 -14.472702369060823 6.1892056706132701 -0.79863551827123203 0 0.60181501223851219 0.90272251835776829 0 1.197953277406848 1 I I #
face $-1 $-1 $387 $34 $-1 $388 reversed single #
loop $-1 $-1 $161 $155 #
plane-surface $-1 0 0 9.1912441708062786 0 0 1 1 0 0 forward_v I I I I #
coedge $-1 $389 $390 $391 $392 reversed $156 $-1 #
coedge $-1 $393 $158 $160 $268 forward $98 $-1 #
coedge $-1 $158 $393 $389 $394 forward $98 $-1 #
coedge $-1 $391 $161 $158 $265 forward $259 $-1 #
edge $-1 $271 -4.3718082917887688 $395 3.3412379704003019 $264 $396 forward 7 unknown #
coedge $-1 $397 $398 $159 $267 forward $387 $-1 #
edge $-1 $399 -27.659103761587655 $270 -21.655026761201636 $266 $400 forward 7 unknown #
edge $-1 $271 -7.5179188290833281 $399 0 $160 $401 forward 7 unknown #
coedge $-1 $161 $391 $397 $402 forward $259 $-1 #
vertex $-1 $162 $403 #
vertex $-1 $162 $404 #
straight-curve $-1 -63.123348572068132 -4.8870934524830023 9.1912441708062786 1 0 0 I I #
coedge $-1 $273 $273 $-1 $405 reversed $165 $-1 #
edge $-1 $406 0 $406 6.2831853071796004 $166 $407 forward 7 unknown #
vertex $-1 $169 $408 #
ellipse-curve $-1 -46.34524220654378 -1.0305703213884634 6.1892056706132701 -0.79863551827123203 0 0.60181501223851219 0.90272251835776829 0 1.197953277406848 1 I I #
face $-1 $-1 $409 $36 $-1 $410 reversed single #
loop $-1 $-1 $176 $170 #
plane-surface $-1 0 0 9.1912441708062786 0 0 1 1 0 0 forward_v I I I I #
coedge $-1 $411 $412 $413 $414 reversed $171 $-1 #
coedge $-1 $415 $173 $175 $287 forward $107 $-1 #
coedge $-1 $173 $415 $411 $416 forward $107 $-1 #
coedge $-1 $413 $176 $173 $284 forward $278 $-1 #
edge $-1 $290 2.3492577320474091 $417 10.062303994236482 $283 $418 forward 7 unknown #
coedge $-1 $419 $420 $174 $286 forward $409 $-1 #
edge $-1 $421 -27.659103761587655 $289 -21.655026761201636 $285 $422 forward 7 unknown #
edge $-1 $290 -7.5179188290833281 $421 0 $175 $423 forward 7 unknown #
coedge $-1 $176 $413 $419 $424 forward $278 $-1 #
vertex $-1 $177 $425 #
vertex $-1 $177 $426 #
straight-curve $-1 -63.123348572068132 8.5550385951893535 9.1912441708062786 1 0 0 I I #
coedge $-1 $292 $292 $-1 $427 reversed $180 $-1 #
edge $-1 $428 0 $428 6.2831853071796004 $181 $429 forward 7 unknown #
vertex $-1 $184 $430 #
ellipse-curve $-1 -46.34524220654378 12.411561726283896 6.1892056706132701 -0.79863551827123203 0 0.60181501223851219 0.90272251835776829 0 1.197953277406848 1 I I #
face $-1 $-1 $431 $38 $-1 $432 reversed single #
loop $-1 $-1 $433 $185 #
plane-surface $-1 0 29.710216905050789 0 0 -1 0 0 0 -1 forward_v I I I I #
coedge $-1 $434 $188 $190 $305 forward $116 $-1 #
coedge $-1 $188 $434 $433 $435 reversed $116 $-1 #
coedge $-1 $436 $191 $188 $302 forward $186 $-1 #
edge $-1 $308 9.070323755883587 $437 16.783370018072659 $301 $438 forward 7 unknown #
coedge $-1 $439 $440 $189 $304 forward $431 $-1 #
edge $-1 $441 -27.659103761587655 $307 -21.655026761201636 $303 $442 forward 7 unknown #
edge $-1 $308 -7.5179188290833281 $441 0 $190 $443 forward 7 unknown #
coedge $-1 $191 $436 $439 $444 forward $186 $-1 #
vertex $-1 $304 $445 #
vertex $-1 $192 $446 #
straight-curve $-1 -63.123348572068132 21.997170642861711 9.1912441708062786 1 0 0 I I #
coedge $-1 $310 $310 $-1 $447 reversed $195 $-1 #
edge $-1 $448 0 $448 6.2831853071796004 $196 $449 forward 7 unknown #
vertex $-1 $199 $450 #
ellipse-curve $-1 -46.34524220654378 25.853693773956255 6.1892056706132701 -0.79863551827123203 0 0.60181501223851219 0.90272251835776829 0 1.197953277406848 1 I I #
face $-1 $-1 $215 $30 $-1 $451 reversed single #
loop $-1 $-1 $330 $200 #
plane-surface $-1 0 29.710216905050789 0 0 -1 0 0 0 -1 forward_v I I I I #
coedge $-1 $452 $328 $331 $453 forward $201 $-1 #
coedge $-1 $334 $203 $204 $322 reversed $125 $-1 #
coedge $-1 $328 $452 $203 $320 reversed $201 $-1 #
edge $-1 $335 -9.1912441708062786 $454 9.1912441708062786 $319 $455 forward 7 unknown #
coedge $-1 $205 $204 $452 $456 forward $81 $-1 #
edge $-1 $326 -48.607440412610245 $454 48.607440412610245 $318 $457 forward 7 unknown #
coedge $-1 $331 $330 $205 $324 reversed $315 $-1 #
edge $-1 $458 -48.607440412610245 $325 48.607440412610245 $323 $459 forward 7 unknown #
vertex $-1 $207 $460 #
vertex $-1 $337 $461 #
straight-curve $-1 48.607440412610245 0 -9.1912441708062786 0 -1 0 I I #
coedge $-1 $317 $319 $208 $329 reversed $201 $-1 #
edge $-1 $332 -29.710216905050789 $335 29.710216905050789 $328 $462 forward 7 unknown #
coedge $-1 $323 $209 $214 $338 forward $315 $-1 #
coedge $-1 $209 $323 $317 $453 reversed $315 $-1 #
vertex $-1 $210 $463 #
straight-curve $-1 0 29.710216905050789 9.1912441708062786 -1 0 0 I I #
coedge $-1 $211 $318 $213 $337 reversed $125 $-1 #
vertex $-1 $329 $464 #
straight-curve $-1 0 -29.710216905050789 9.1912441708062786 1 0 0 I I #
edge $-1 $216 -9.1912441708062786 $326 9.1912441708062786 $213 $465 forward 7 unknown #
edge $-1 $217 -9.1912441708062786 $325 9.1912441708062786 $214 $466 forward 7 unknown #
point $-1 48.607440412610245 -29.710216905050789 9.1912441708062786 #
point $-1 48.607440412610245 29.710216905050789 9.1912441708062786 #
face $-1 $-1 $234 $31 $-1 $467 reversed single #
loop $-1 $-1 $230 $219 #
plane-surface $-1 0 -29.710216905050789 0 0 1 0 0 0 1 forward_v I I I I #
coedge $-1 $468 $469 $227 $354 forward $220 $-1 #
coedge $-1 $355 $222 $224 $350 reversed $133 $-1 #
edge $-1 $352 -4.2241045632585301 $235 -1.2241045632585306 $233 $470 forward 7 unknown #
coedge $-1 $224 $223 $471 $472 reversed $85 $-1 #
coedge $-1 $359 $358 $223 $349 forward $342 $-1 #
edge $-1 $473 -48.607440412610245 $351 48.607440412610245 $348 $474 forward 7 unknown #
edge $-1 $475 -48.607440412610245 $352 48.607440412610245 $345 $476 forward 7 unknown #
vertex $-1 $349 $477 #
vertex $-1 $226 $478 #
straight-curve $-1 48.607440412610245 -12.009860601301536 -6.9482091265170611 0 1 0 I I #
edge $-1 $360 -17.700356303749249 $356 -6.3193648988538236 $344 $479 forward 7 unknown #
coedge $-1 $228 $345 $468 $480 reversed $133 $-1 #
vertex $-1 $354 $481 #
straight-curve $-1 0 -18.32922550015536 -3.9482091265170611 -1 0 0 I I #
coedge $-1 $348 $230 $469 $482 forward $342 $-1 #
coedge $-1 $230 $348 $232 $362 reversed $342 $-1 #
vertex $-1 $482 $483 #
straight-curve $-1 0 -29.710216905050789 -3.9482091265170611 -1 0 0 I I #
edge $-1 $236 3.9482091265170611 $351 6.9482091265170611 $232 $484 forward 7 unknown #
point $-1 48.607440412610245 -18.32922550015536 -3.9482091265170611 #
point $-1 48.607440412610245 -29.710216905050785 -3.9482091265170611 #
plane-surface $-1 0 0 9.1912441708062786 0 0 1 1 0 0 forward_v I I I I #
coedge $-1 $376 $375 $368 $485 forward $239 $-1 #
coedge $-1 $368 $241 $243 $372 reversed $141 $-1 #
coedge $-1 $241 $367 $366 $485 reversed $141 $-1 #
coedge $-1 $249 $244 $241 $370 forward $250 $-1 #
edge $-1 $373 -19.040304571590809 $486 -14.515908159457886 $369 $487 forward 7 unknown #
coedge $-1 $243 $242 $376 $488 reversed $89 $-1 #
edge $-1 $489 0 $373 7.5179188290833281 $367 $490 forward 7 unknown #
vertex $-1 $245 $491 #
straight-curve $-1 -44.083044000477322 -7.2363511845304123 9.1912441708062786 0 1 0 I I #
coedge $-1 $366 $246 $249 $380 reversed $239 $-1 #
coedge $-1 $246 $366 $371 $488 forward $239 $-1 #
vertex $-1 $247 $492 #
straight-curve $-1 -48.607440412610245 -18.32922550015536 30.846270932007915 0 0 1 I I #
straight-curve $-1 -48.607440412610245 -18.32922550015536 3.1871671704202598 -0.60181501223851219 0 -0.79863551827123203 I I #
edge $-1 $486 10.616179237966289 $251 18.32922550015536 $375 $493 forward 7 unknown #
point $-1 -48.607440412610245 -18.32922550015536 9.1912441708062786 #
point $-1 -44.083044000477322 -18.32922550015536 9.1912441708062786 #
edge $-1 $494 1 $494 0 $254 $-1 forward 7 unknown #
vertex $-1 $255 $495 #
ellipse-curve $-1 -42.384578418141011 -14.472702369060823 3.204631516623869 -0.79863551827123203 0 0.60181501223851219 0.90272251835776829 0 1.197953277406848 1 I I #
point $-1 -45.44251968818601 -14.472702369060823 7.3871589480201107 #
loop $-1 $-1 $266 $258 #
plane-surface $-1 -48.607440412610245 0 0 1 0 0 0 0 -1 forward_v I I I I #
coedge $-1 $390 $261 $263 $394 reversed $156 $-1 #
coedge $-1 $261 $389 $496 $497 reversed $156 $-1 #
coedge $-1 $269 $264 $261 $392 forward $259 $-1 #
edge $-1 $395 -19.040304571590809 $498 -14.515908159457886 $391 $499 forward 7 unknown #
coedge $-1 $263 $262 $398 $500 reversed $98 $-1 #
edge $-1 $501 0 $395 7.5179188290833281 $389 $502 forward 7 unknown #
vertex $-1 $265 $503 #
straight-curve $-1 -44.083044000477322 -0.51528516069423347 9.1912441708062786 0 1 0 I I #
coedge $-1 $496 $266 $269 $402 reversed $387 $-1 #
coedge $-1 $266 $496 $393 $500 forward $387 $-1 #
vertex $-1 $267 $504 #
straight-curve $-1 -48.607440412610245 -4.8870934524830023 30.846270932007915 0 0 1 I I #
straight-curve $-1 -48.607440412610245 -4.8870934524830023 3.1871671704202598 -0.60181501223851219 0 -0.79863551827123203 I I #
edge $-1 $498 -2.8259528097060684 $270 4.8870934524830023 $397 $505 forward 7 unknown #
point $-1 -48.607440412610245 -4.8870934524830023 9.1912441708062786 #
point $-1 -44.083044000477322 -4.8870934524830023 9.1912441708062786 #
edge $-1 $506 1 $506 0 $273 $-1 forward 7 unknown #
vertex $-1 $274 $507 #
ellipse-curve $-1 -42.384578418141011 -1.0305703213884634 3.204631516623869 -0.79863551827123203 0 0.60181501223851219 0.90272251835776829 0 1.197953277406848 1 I I #
point $-1 -45.44251968818601 -1.0305703213884634 7.3871589480201107 #
loop $-1 $-1 $285 $277 #
plane-surface $-1 -48.607440412610245 0 0 1 0 0 0 0 -1 forward_v I I I I #
coedge $-1 $412 $280 $282 $416 reversed $171 $-1 #
coedge $-1 $280 $411 $508 $509 reversed $171 $-1 #
coedge $-1 $288 $283 $280 $414 forward $278 $-1 #
edge $-1 $417 -19.040304571590809 $510 -14.515908159457886 $413 $511 forward 7 unknown #
coedge $-1 $282 $281 $420 $512 reversed $107 $-1 #
edge $-1 $513 0 $417 7.5179188290833281 $411 $514 forward 7 unknown #
vertex $-1 $284 $515 #
straight-curve $-1 -44.083044000477322 6.2057808631419444 9.1912441708062786 0 1 0 I I #
coedge $-1 $508 $285 $288 $424 reversed $409 $-1 #
coedge $-1 $285 $508 $415 $512 forward $409 $-1 #
vertex $-1 $286 $516 #
straight-curve $-1 -48.607440412610245 8.5550385951893535 30.846270932007915 0 0 1 I I #
straight-curve $-1 -48.607440412610245 8.5550385951893535 3.1871671704202598 -0.60181501223851219 0 -0.79863551827123203 I I #
edge $-1 $510 -16.268084857378426 $289 -8.5550385951893535 $419 $517 forward 7 unknown #
point $-1 -48.607440412610245 8.5550385951893535 9.1912441708062786 #
point $-1 -44.083044000477322 8.5550385951893535 9.1912441708062786 #
edge $-1 $518 1 $518 0 $292 $-1 forward 7 unknown #
vertex $-1 $293 $519 #
ellipse-curve $-1 -42.384578418141011 12.411561726283896 3.204631516623869 -0.79863551827123203 0 0.60181501223851219 0.90272251835776829 0 1.197953277406848 1 I I #
point $-1 -45.44251968818601 12.411561726283896 7.3871589480201107 #
loop $-1 $-1 $303 $296 #
plane-surface $-1 -48.607440412610245 0 0 1 0 0 0 0 -1 forward_v I I I I #
coedge $-1 $520 $521 $300 $435 forward $297 $-1 #
coedge $-1 $300 $299 $440 $522 reversed $116 $-1 #
edge $-1 $437 5.8357323918327486 $523 13.353651220916076 $433 $524 forward 7 unknown #
coedge $-1 $306 $301 $521 $525 forward $186 $-1 #
vertex $-1 $525 $526 #
straight-curve $-1 -44.083044000477322 12.926846886978124 9.1912441708062786 0 1 0 I I #
coedge $-1 $527 $303 $306 $444 reversed $431 $-1 #
coedge $-1 $303 $527 $434 $522 forward $431 $-1 #
vertex $-1 $304 $528 #
straight-curve $-1 -48.607440412610245 21.997170642861711 30.846270932007915 0 0 1 I I #
straight-curve $-1 -48.607440412610245 21.997170642861711 3.1871671704202598 -0.60181501223851219 0 -0.79863551827123203 I I #
edge $-1 $529 -29.710216905050789 $307 -21.997170642861711 $439 $530 forward 7 unknown #
point $-1 -48.607440412610245 21.997170642861711 9.1912441708062786 #
point $-1 -44.083044000477322 21.997170642861711 9.1912441708062786 #
edge $-1 $531 1 $531 0 $310 $-1 forward 7 unknown #
vertex $-1 $311 $532 #
ellipse-curve $-1 -42.384578418141011 25.853693773956255 3.204631516623869 -0.79863551827123203 0 0.60181501223851219 0.90272251835776829 0 1.197953277406848 1 I I #
point $-1 -45.44251968818601 25.853693773956255 7.3871589480201107 #
plane-surface $-1 48.607440412610245 0 0 -1 0 0 0 0 1 forward_v I I I I #
coedge $-1 $319 $317 $321 $456 reversed $201 $-1 #
edge $-1 $332 -9.1912441708062786 $458 9.1912441708062786 $331 $533 forward 7 unknown #
vertex $-1 $456 $534 #
straight-curve $-1 -48.607440412610245 -29.710216905050789 0 0 0 -1 I I #
edge $-1 $454 -29.710216905050789 $458 29.710216905050789 $452 $535 forward 7 unknown #
straight-curve $-1 0 -29.710216905050789 -9.1912441708062786 -1 0 0 I I #
vertex $-1 $324 $536 #
straight-curve $-1 0 29.710216905050789 -9.1912441708062786 1 0 0 I I #
point $-1 48.607440412610245 29.710216905050789 -9.1912441708062786 #
point $-1 48.607440412610245 -29.710216905050789 -9.1912441708062786 #
straight-curve $-1 -48.607440412610245 0 9.1912441708062786 0 -1 0 I I #
point $-1 -48.607440412610245 29.710216905050789 9.1912441708062786 #
point $-1 -48.607440412610245 -29.710216905050789 9.1912441708062786 #
straight-curve $-1 48.607440412610245 -29.710216905050789 0 0 0 -1 I I #
straight-curve $-1 48.607440412610245 29.710216905050789 0 0 0 -1 I I #
plane-surface $-1 48.607440412610245 0 0 -1 0 0 0 0 1 forward_v I I I I #
coedge $-1 $471 $344 $355 $480 forward $220 $-1 #
coedge $-1 $344 $471 $358 $482 reversed $220 $-1 #
straight-curve $-1 48.607440412610245 -18.32922550015536 -2.7241045632585306 0 0 1 I I #
coedge $-1 $469 $468 $347 $472 forward $220 $-1 #
edge $-1 $475 6.3193648988538236 $473 17.700356303749249 $471 $537 forward 7 unknown #
vertex $-1 $349 $538 #
straight-curve $-1 0 -29.710216905050789 -6.9482091265170611 1 0 0 I I #
vertex $-1 $472 $539 #
straight-curve $-1 0 -18.32922550015536 -6.9482091265170611 1 0 0 I I #
point $-1 48.607440412610245 -29.710216905050785 -6.9482091265170611 #
point $-1 48.607440412610245 -18.32922550015536 -6.9482091265170611 #
straight-curve $-1 -48.607440412610245 -12.009860601301536 -3.9482091265170611 0 1 0 I I #
edge $-1 $356 1.2241045632585306 $475 4.2241045632585301 $468 $540 forward 7 unknown #
point $-1 -48.607440412610245 -18.32922550015536 -3.9482091265170611 #
edge $-1 $360 3.9482091265170611 $473 6.9482091265170611 $469 $541 forward 7 unknown #
point $-1 -48.607440412610245 -29.710216905050785 -3.9482091265170611 #
straight-curve $-1 48.607440412610245 -29.710216905050789 0 0 0 -1 I I #
edge $-1 $486 21.655026761201636 $489 27.659103761587655 $366 $542 forward 7 unknown #
vertex $-1 $380 $543 #
straight-curve $-1 -63.123348572068132 -10.616179237966289 9.1912441708062786 -1 0 0 I I #
edge $-1 $489 3.3798280534358769 $377 11.092874315624947 $376 $544 forward 7 unknown #
vertex $-1 $488 $545 #
straight-curve $-1 -48.607440412610245 -10.616179237966289 3.1871671704202598 0.60181501223851219 0 0.79863551827123203 I I #
point $-1 -44.083044000477322 -10.616179237966289 9.1912441708062786 #
point $-1 -48.607440412610245 -18.32922550015536 3.1871671704202598 #
straight-curve $-1 -48.607440412610245 0 9.1912441708062786 0 -1 0 I I #
vertex $-1 $383 $546 #
point $-1 -41.481855899783241 -14.472702369060823 4.4025847940307177 #
coedge $-1 $398 $397 $390 $497 forward $387 $-1 #
edge $-1 $498 21.655026761201636 $501 27.659103761587655 $496 $547 forward 7 unknown #
vertex $-1 $402 $548 #
straight-curve $-1 -63.123348572068132 2.8259528097060684 9.1912441708062786 -1 0 0 I I #
edge $-1 $501 -3.3412379704003019 $399 4.3718082917887688 $398 $549 forward 7 unknown #
vertex $-1 $500 $550 #
straight-curve $-1 -48.607440412610245 2.8259528097060684 3.1871671704202598 0.60181501223851219 0 0.79863551827123203 I I #
point $-1 -44.083044000477322 2.8259528097060684 9.1912441708062786 #
point $-1 -48.607440412610245 -4.8870934524830023 3.1871671704202598 #
straight-curve $-1 -48.607440412610245 0 9.1912441708062786 0 -1 0 I I #
vertex $-1 $405 $551 #
point $-1 -41.481855899783241 -1.0305703213884634 4.4025847940307177 #
coedge $-1 $420 $419 $412 $509 forward $409 $-1 #
edge $-1 $510 21.655026761201636 $513 27.659103761587655 $508 $552 forward 7 unknown #
vertex $-1 $424 $553 #
straight-curve $-1 -63.123348572068132 16.268084857378426 9.1912441708062786 -1 0 0 I I #
edge $-1 $513 -10.062303994236482 $421 -2.3492577320474091 $420 $554 forward 7 unknown #
vertex $-1 $512 $555 #
straight-curve $-1 -48.607440412610245 16.268084857378426 3.1871671704202598 0.60181501223851219 0 0.79863551827123203 I I #
point $-1 -44.083044000477322 16.268084857378426 9.1912441708062786 #
point $-1 -48.607440412610245 8.5550385951893535 3.1871671704202598 #
straight-curve $-1 -48.607440412610245 0 9.1912441708062786 0 -1 0 I I #
vertex $-1 $427 $556 #
point $-1 -41.481855899783241 12.411561726283896 4.4025847940307177 #
coedge $-1 $521 $433 $527 $557 reversed $297 $-1 #
coedge $-1 $433 $520 $436 $525 reversed $297 $-1 #
edge $-1 $523 -16.783370018072659 $441 -9.070323755883587 $440 $558 forward 7 unknown #
vertex $-1 $435 $559 #
straight-curve $-1 -40.57101263966581 29.710216905050789 13.851867334049839 -0.60181501223851219 0 -0.79863551827123203 I I #
edge $-1 $437 44.083044000477322 $529 48.607440412610245 $521 $560 forward 7 unknown #
point $-1 -44.083044000477322 29.710216905050785 9.1912441708062786 #
coedge $-1 $440 $439 $520 $557 forward $431 $-1 #
point $-1 -48.607440412610245 21.997170642861711 3.1871671704202598 #
vertex $-1 $525 $561 #
straight-curve $-1 -48.607440412610245 0 9.1912441708062786 0 -1 0 I I #
vertex $-1 $447 $562 #
point $-1 -41.481855899783241 25.853693773956255 4.4025847940307177 #
straight-curve $-1 -48.607440412610245 29.710216905050789 0 0 0 -1 I I #
point $-1 -48.607440412610245 -29.710216905050789 -9.1912441708062786 #
straight-curve $-1 -48.607440412610245 0 -9.1912441708062786 0 1 0 I I #
point $-1 -48.607440412610245 29.710216905050789 -9.1912441708062786 #
straight-curve $-1 -48.607440412610245 -12.009860601301536 -6.9482091265170611 0 -1 0 I I #
point $-1 -48.607440412610245 -29.710216905050785 -6.9482091265170611 #
point $-1 -48.607440412610245 -18.32922550015536 -6.9482091265170611 #
straight-curve $-1 -48.607440412610245 -18.32922550015536 -2.7241045632585306 0 0 -1 I I #
straight-curve $-1 -48.607440412610245 -29.710216905050789 0 0 0 -1 I I #
straight-curve $-1 -48.607440412610245 -10.616179237966289 30.846270932007915 0 0 -1 I I #
point $-1 -48.607440412610245 -10.616179237966289 9.1912441708062786 #
straight-curve $-1 -48.607440412610245 -7.2363511845304123 3.1871671704202607 0 -1 0 I I #
point $-1 -48.607440412610245 -10.616179237966289 3.1871671704202598 #
point $-1 -41.186625140734158 -14.472702369060823 2.301908998266101 #
straight-curve $-1 -48.607440412610245 2.8259528097060684 30.846270932007915 0 0 -1 I I #
point $-1 -48.607440412610245 2.8259528097060684 9.1912441708062786 #
straight-curve $-1 -48.607440412610245 -0.51528516069423347 3.1871671704202607 0 -1 0 I I #
point $-1 -48.607440412610245 2.8259528097060684 3.1871671704202598 #
point $-1 -41.186625140734158 -1.0305703213884634 2.301908998266101 #
straight-curve $-1 -48.607440412610245 16.268084857378426 30.846270932007915 0 0 -1 I I #
point $-1 -48.607440412610245 16.268084857378426 9.1912441708062786 #
straight-curve $-1 -48.607440412610245 6.2057808631419444 3.1871671704202607 0 -1 0 I I #
point $-1 -48.607440412610245 16.268084857378426 3.1871671704202598 #
point $-1 -41.186625140734158 12.411561726283896 2.301908998266101 #
edge $-1 $529 -9.1912441708062786 $523 -3.1871671704202598 $520 $563 forward 7 unknown #
straight-curve $-1 -48.607440412610245 12.926846886978124 3.1871671704202607 0 -1 0 I I #
point $-1 -48.607440412610245 29.710216905050785 3.1871671704202598 #
straight-curve $-1 0 29.710216905050789 9.1912441708062786 -1 0 0 I I #
point $-1 -48.607440412610245 29.710216905050789 9.1912441708062786 #
point $-1 -41.186625140734158 25.853693773956255 2.301908998266101 #
straight-curve $-1 -48.607440412610245 29.710216905050789 0 0 0 -1 I I #
End-of-ACIS-data 