500 0 15 0           
7 Unknown 11 ACIS 5.0 NT 24 Thu Mar 25 22:51:40 1999 
-1 9.9999999999999995e-007 1e-010 
body $-1 $15 $-1 $16 #
body $-1 $17 $-1 $18 #
body $-1 $19 $-1 $20 #
body $-1 $21 $-1 $22 #
body $-1 $23 $-1 $24 #
body $-1 $25 $-1 $26 #
body $-1 $27 $-1 $28 #
body $-1 $29 $-1 $30 #
body $-1 $31 $-1 $32 #
body $-1 $33 $-1 $34 #
body $-1 $35 $-1 $36 #
body $-1 $37 $-1 $38 #
body $-1 $39 $-1 $40 #
body $-1 $41 $-1 $42 #
body $-1 $43 $-1 $44 #
lump $-1 $-1 $45 $0 #
transform $-1 1 0 0 0 1 0 0 0 1 58.419751579332868 40.266429316667157 13.494359781769884 1 rotate no_reflect no_shear #
lump $-1 $-1 $46 $1 #
transform $-1 1 0 0 0 1 0 0 0 1 58.419751579332868 40.266429316667157 13.494359781769884 1 rotate no_reflect no_shear #
lump $-1 $-1 $47 $2 #
transform $-1 1 0 0 0 1 0 0 0 1 58.419751579332868 40.266429316667157 13.494359781769884 1 rotate no_reflect no_shear #
lump $-1 $-1 $48 $3 #
transform $-1 1 0 0 0 1 0 0 0 1 58.419751579332868 40.266429316667157 13.494359781769884 1 rotate no_reflect no_shear #
lump $-1 $-1 $49 $4 #
transform $-1 1 0 0 0 1 0 0 0 1 58.419751579332868 40.266429316667157 13.494359781769884 1 rotate no_reflect no_shear #
lump $-1 $-1 $50 $5 #
transform $-1 1 0 0 0 1 0 0 0 1 58.419751579332868 40.266429316667157 13.494359781769884 1 rotate no_reflect no_shear #
lump $-1 $-1 $51 $6 #
transform $-1 1 0 0 0 1 0 0 0 1 58.419751579332868 40.266429316667157 13.494359781769884 1 rotate no_reflect no_shear #
lump $-1 $-1 $52 $7 #
transform $-1 1 0 0 0 1 0 0 0 1 58.419751579332868 40.266429316667157 13.494359781769884 1 rotate no_reflect no_shear #
lump $-1 $-1 $53 $8 #
transform $-1 1 0 0 0 1 0 0 0 1 58.419751579332868 40.266429316667157 13.494359781769884 1 rotate no_reflect no_shear #
lump $-1 $-1 $54 $9 #
transform $-1 1 0 0 0 1 0 0 0 1 58.419751579332868 40.266429316667157 13.494359781769884 1 rotate no_reflect no_shear #
lump $-1 $-1 $55 $10 #
transform $-1 1 0 0 0 1 0 0 0 1 58.419751579332868 40.266429316667157 13.494359781769884 1 rotate no_reflect no_shear #
lump $-1 $-1 $56 $11 #
transform $-1 1 0 0 0 1 0 0 0 1 58.419751579332868 40.266429316667157 13.494359781769884 1 rotate no_reflect no_shear #
lump $-1 $-1 $57 $12 #
transform $-1 1 0 0 0 1 0 0 0 1 58.419751579332868 40.266429316667157 13.494359781769884 1 rotate no_reflect no_shear #
lump $-1 $-1 $58 $13 #
transform $-1 1 0 0 0 1 0 0 0 1 58.419751579332868 40.266429316667157 13.494359781769884 1 rotate no_reflect no_shear #
lump $-1 $-1 $59 $14 #
transform $-1 1 0 0 0 1 0 0 0 1 58.419751579332868 40.266429316667157 13.494359781769884 1 rotate no_reflect no_shear #
shell $-1 $-1 $-1 $60 $-1 $15 #
shell $-1 $-1 $-1 $61 $-1 $17 #
shell $-1 $-1 $-1 $62 $-1 $19 #
shell $-1 $-1 $-1 $63 $-1 $21 #
shell $-1 $-1 $-1 $64 $-1 $23 #
shell $-1 $-1 $-1 $65 $-1 $25 #
shell $-1 $-1 $-1 $66 $-1 $27 #
shell $-1 $-1 $-1 $67 $-1 $29 #
shell $-1 $-1 $-1 $68 $-1 $31 #
shell $-1 $-1 $-1 $69 $-1 $33 #
shell $-1 $-1 $-1 $70 $-1 $35 #
shell $-1 $-1 $-1 $71 $-1 $37 #
shell $-1 $-1 $-1 $72 $-1 $39 #
shell $-1 $-1 $-1 $73 $-1 $41 #
shell $-1 $-1 $-1 $74 $-1 $43 #
face $-1 $75 $76 $45 $-1 $77 forward single #
face $-1 $78 $79 $46 $-1 $80 forward single #
face $-1 $81 $82 $47 $-1 $83 forward single #
face $-1 $84 $85 $48 $-1 $86 reversed single #
face $-1 $87 $88 $49 $-1 $89 forward single #
face $-1 $90 $91 $50 $-1 $92 forward single #
face $-1 $93 $94 $51 $-1 $95 reversed single #
face $-1 $96 $97 $52 $-1 $98 forward single #
face $-1 $99 $100 $53 $-1 $101 forward single #
face $-1 $102 $103 $54 $-1 $104 reversed single #
face $-1 $105 $106 $55 $-1 $107 forward single #
face $-1 $108 $109 $56 $-1 $110 forward single #
face $-1 $111 $112 $57 $-1 $113 reversed single #
face $-1 $114 $115 $58 $-1 $116 forward single #
face $-1 $117 $118 $59 $-1 $119 forward single #
face $-1 $120 $121 $45 $-1 $122 reversed single #
loop $-1 $-1 $123 $60 #
plane-surface $-1 0 0 13.494359781769884 0 0 1 1 0 0 forward_v I I I I #
face $-1 $124 $125 $46 $-1 $126 reversed single #
loop $-1 $-1 $127 $61 #
plane-surface $-1 0 -34.632428062133414 3.0911910934401376 0 0 1 1 0 0 forward_v I I I I #
face $-1 $128 $129 $47 $-1 $130 reversed single #
loop $-1 $-1 $131 $62 #
plane-surface $-1 0 34.632428062133414 3.0911910934401376 0 0 1 1 0 0 forward_v I I I I #
face $-1 $132 $133 $48 $-1 $134 reversed single #
loop $-1 $-1 $135 $63 #
plane-surface $-1 -157.50527071481125 -1.7763568394002505e-015 62.759099088831618 0 -1 0 0.84804810408105047 0 -0.52991925155115449 forward_v I I I I #
face $-1 $136 $137 $49 $-1 $138 forward single #
loop $-1 $139 $140 $64 #
cone-surface $-1 -53.458315208898149 -8.8638299684764235 6.5385480224997945 0.84804810408105047 0 -0.52991925155115449 0.79487887732673168 0 1.2720721561215758 1 I I 0 1 1.5 forward I I I I #
face $-1 $141 $142 $50 $-1 $143 forward single #
loop $-1 $144 $145 $65 #
cone-surface $-1 -53.458315208898149 -3.545531987390568 6.5385480224997945 0.84804810408105047 0 -0.52991925155115449 0.79487887732673168 0 1.2720721561215758 1 I I 0 1 1.5 forward I I I I #
face $-1 $146 $147 $51 $-1 $148 reversed single #
loop $-1 $-1 $149 $66 #
plane-surface $-1 -58.419751579332868 -6.2046809779334993 0.84359702338272058 -0.84804810408105047 0 0.52991925155115449 0.52991925155115449 0 0.84804810408105047 forward_v I I I I #
face $-1 $150 $151 $52 $-1 $152 forward single #
loop $-1 $153 $154 $67 #
cone-surface $-1 -53.458315208898149 3.5455319873905751 6.5385480224997945 0.84804810408105047 0 -0.52991925155115449 0.79487887732673168 0 1.2720721561215758 1 I I 0 1 1.5 forward I I I I #
face $-1 $155 $156 $53 $-1 $157 forward single #
loop $-1 $158 $159 $68 #
cone-surface $-1 -53.458315208898149 8.8638299684764306 6.5385480224997945 0.84804810408105047 0 -0.52991925155115449 0.79487887732673168 0 1.2720721561215758 1 I I 0 1 1.5 forward I I I I #
face $-1 $160 $161 $54 $-1 $162 reversed single #
loop $-1 $-1 $163 $69 #
plane-surface $-1 95.589768649362341 -1.7763568394002505e-015 161.84461822431001 0 -1 0 -0.84804810408105047 0 -0.52991925155115449 forward_v I I I I #
face $-1 $164 $165 $55 $-1 $166 forward single #
loop $-1 $167 $168 $70 #
cone-surface $-1 53.458315208898149 -8.8638299684764235 6.5385480224997909 -0.84804810408105047 0 -0.52991925155115449 0.79487887732673168 0 -1.2720721561215758 1 I I 0 1 1.5 forward I I I I #
face $-1 $169 $170 $56 $-1 $171 forward single #
loop $-1 $172 $173 $71 #
cone-surface $-1 53.458315208898149 -3.545531987390568 6.5385480224997909 -0.84804810408105047 0 -0.52991925155115449 0.79487887732673168 0 -1.2720721561215758 1 I I 0 1 1.5 forward I I I I #
face $-1 $174 $175 $57 $-1 $176 reversed single #
loop $-1 $-1 $177 $72 #
plane-surface $-1 95.589768649362341 12.409361955866997 161.84461822431001 0 -1 0 -0.84804810408105047 0 -0.52991925155115449 forward_v I I I I #
face $-1 $178 $179 $58 $-1 $180 forward single #
loop $-1 $181 $182 $73 #
cone-surface $-1 53.458315208898149 3.5455319873905751 6.5385480224997909 -0.84804810408105047 0 -0.52991925155115449 0.79487887732673168 0 -1.2720721561215758 1 I I 0 1 1.5 forward I I I I #
face $-1 $183 $184 $59 $-1 $185 forward single #
loop $-1 $186 $187 $74 #
cone-surface $-1 53.458315208898149 8.8638299684764306 6.5385480224997909 -0.84804810408105047 0 -0.52991925155115449 0.79487887732673168 0 -1.2720721561215758 1 I I 0 1 1.5 forward I I I I #
face $-1 $188 $189 $45 $-1 $190 reversed single #
loop $-1 $-1 $191 $75 #
plane-surface $-1 0 0 -13.494359781769884 0 0 1 1 0 0 forward_v I I I I #
coedge $-1 $192 $193 $194 $195 forward $76 $-1 #
face $-1 $196 $197 $46 $-1 $198 reversed single #
loop $-1 $-1 $199 $78 #
plane-surface $-1 0 -34.632428062133414 -1.2129854202226866 0 0 1 1 0 0 forward_v I I I I #
coedge $-1 $200 $201 $202 $203 reversed $79 $-1 #
face $-1 $204 $205 $47 $-1 $206 reversed single #
loop $-1 $-1 $207 $81 #
plane-surface $-1 0 34.632428062133414 -1.2129854202226866 0 0 1 1 0 0 forward_v I I I I #
coedge $-1 $208 $209 $210 $211 reversed $82 $-1 #
face $-1 $212 $213 $48 $-1 $214 reversed single #
loop $-1 $-1 $215 $84 #
plane-surface $-1 -58.419751579332868 -6.2046809779334993 0.84359702338272058 -0.84804810408105047 0 0.52991925155115449 0.52991925155115449 0 0.84804810408105047 forward_v I I I I #
coedge $-1 $216 $217 $218 $219 reversed $85 $-1 #
face $-1 $-1 $220 $49 $-1 $221 forward single #
loop $-1 $222 $223 $87 #
cone-surface $-1 -51.813379591871708 -8.8638299684764235 5.510678203759916 0.84804810408105047 0 -0.52991925155115449 0.39743943866336584 0 0.63603607806078788 1 I I -0.70710678118654757 0.70710678118654757 0.75 forward I I I I #
loop $-1 $-1 $224 $64 #
coedge $-1 $140 $140 $225 $226 reversed $88 $-1 #
face $-1 $-1 $227 $50 $-1 $228 forward single #
loop $-1 $229 $230 $90 #
cone-surface $-1 -51.813379591871708 -3.545531987390568 5.510678203759916 0.84804810408105047 0 -0.52991925155115449 0.39743943866336584 0 0.63603607806078788 1 I I -0.70710678118654757 0.70710678118654757 0.75 forward I I I I #
loop $-1 $-1 $231 $65 #
coedge $-1 $145 $145 $232 $233 reversed $91 $-1 #
face $-1 $234 $235 $51 $-1 $236 reversed single #
loop $-1 $-1 $237 $93 #
plane-surface $-1 -157.50527071481125 12.409361955866997 62.759099088831618 0 -1 0 0.84804810408105047 0 -0.52991925155115449 forward_v I I I I #
coedge $-1 $238 $239 $240 $241 reversed $94 $-1 #
face $-1 $-1 $242 $52 $-1 $243 forward single #
loop $-1 $244 $245 $96 #
cone-surface $-1 -51.813379591871708 3.5455319873905751 5.510678203759916 0.84804810408105047 0 -0.52991925155115449 0.39743943866336584 0 0.63603607806078788 1 I I -0.70710678118654757 0.70710678118654757 0.75 forward I I I I #
loop $-1 $-1 $246 $67 #
coedge $-1 $154 $154 $247 $248 reversed $97 $-1 #
face $-1 $-1 $249 $53 $-1 $250 forward single #
loop $-1 $251 $252 $99 #
cone-surface $-1 -51.813379591871708 8.8638299684764306 5.510678203759916 0.84804810408105047 0 -0.52991925155115449 0.39743943866336584 0 0.63603607806078788 1 I I -0.70710678118654757 0.70710678118654757 0.75 forward I I I I #
loop $-1 $-1 $253 $68 #
coedge $-1 $159 $159 $254 $255 reversed $100 $-1 #
face $-1 $256 $257 $54 $-1 $258 reversed single #
loop $-1 $-1 $259 $102 #
plane-surface $-1 -3.4957504861160373 -6.2046809779334993 99.92911615886112 0.84804810408105047 0 0.52991925155115449 0.52991925155115449 0 -0.84804810408105047 forward_v I I I I #
coedge $-1 $260 $261 $262 $263 reversed $103 $-1 #
face $-1 $-1 $264 $55 $-1 $265 forward single #
loop $-1 $266 $267 $105 #
cone-surface $-1 51.813379591871708 -8.8638299684764235 5.5106782037599125 -0.84804810408105047 0 -0.52991925155115449 0.39743943866336584 0 -0.63603607806078788 1 I I -0.70710678118654757 0.70710678118654757 0.75 forward I I I I #
loop $-1 $-1 $268 $70 #
coedge $-1 $168 $168 $269 $270 reversed $106 $-1 #
face $-1 $-1 $271 $56 $-1 $272 forward single #
loop $-1 $273 $274 $108 #
cone-surface $-1 51.813379591871708 -3.545531987390568 5.5106782037599125 -0.84804810408105047 0 -0.52991925155115449 0.39743943866336584 0 -0.63603607806078788 1 I I -0.70710678118654757 0.70710678118654757 0.75 forward I I I I #
loop $-1 $-1 $275 $71 #
coedge $-1 $173 $173 $276 $277 reversed $109 $-1 #
face $-1 $278 $279 $57 $-1 $280 forward single #
loop $-1 $-1 $281 $111 #
plane-surface $-1 -3.4957504861160373 -6.2046809779334993 99.92911615886112 0.84804810408105047 0 0.52991925155115449 0.52991925155115449 0 -0.84804810408105047 forward_v I I I I #
coedge $-1 $282 $283 $284 $285 reversed $112 $-1 #
face $-1 $-1 $286 $58 $-1 $287 forward single #
loop $-1 $288 $289 $114 #
cone-surface $-1 51.813379591871708 3.5455319873905751 5.5106782037599125 -0.84804810408105047 0 -0.52991925155115449 0.39743943866336584 0 -0.63603607806078788 1 I I -0.70710678118654757 0.70710678118654757 0.75 forward I I I I #
loop $-1 $-1 $290 $73 #
coedge $-1 $182 $182 $291 $292 reversed $115 $-1 #
face $-1 $-1 $293 $59 $-1 $294 forward single #
loop $-1 $295 $296 $117 #
cone-surface $-1 51.813379591871708 8.8638299684764306 5.5106782037599125 -0.84804810408105047 0 -0.52991925155115449 0.39743943866336584 0 -0.63603607806078788 1 I I -0.70710678118654757 0.70710678118654757 0.75 forward I I I I #
loop $-1 $-1 $297 $74 #
coedge $-1 $187 $187 $298 $299 reversed $118 $-1 #
face $-1 $300 $301 $45 $-1 $302 reversed single #
loop $-1 $-1 $303 $120 #
plane-surface $-1 0 -40.266429316667157 0 0 1 0 0 0 1 forward_v I I I I #
coedge $-1 $304 $305 $306 $307 forward $121 $-1 #
coedge $-1 $308 $123 $309 $310 forward $76 $-1 #
coedge $-1 $123 $308 $311 $312 forward $76 $-1 #
coedge $-1 $313 $314 $123 $195 reversed $315 $-1 #
edge $-1 $316 -40.266429316667157 $317 40.266429316667157 $194 $318 forward 7 unknown #
face $-1 $319 $320 $46 $-1 $321 reversed single #
loop $-1 $-1 $322 $124 #
plane-surface $-1 0 -28.998426807599667 0.93910283660872551 0 -1 0 0 0 -1 forward_v I I I I #
coedge $-1 $323 $324 $325 $326 reversed $125 $-1 #
coedge $-1 $327 $127 $328 $329 forward $79 $-1 #
coedge $-1 $127 $327 $330 $331 reversed $79 $-1 #
coedge $-1 $332 $333 $127 $203 forward $334 $-1 #
edge $-1 $335 11.68221277653296 $336 22.95021528560045 $202 $337 forward 7 unknown #
face $-1 $338 $339 $47 $-1 $340 reversed single #
loop $-1 $-1 $341 $128 #
plane-surface $-1 0 28.998426807599671 0.93910283660872551 0 1 0 0 0 1 forward_v I I I I #
coedge $-1 $342 $343 $344 $345 reversed $129 $-1 #
coedge $-1 $346 $131 $347 $348 reversed $82 $-1 #
coedge $-1 $131 $346 $349 $350 forward $82 $-1 #
coedge $-1 $351 $352 $131 $211 forward $339 $-1 #
edge $-1 $353 -22.95021528560045 $354 -11.682212776532964 $210 $355 forward 7 unknown #
face $-1 $356 $357 $48 $-1 $358 reversed single #
loop $-1 $-1 $359 $132 #
plane-surface $-1 -157.50527071481125 -12.409361955866997 62.759099088831618 0 1 0 -0.84804810408105047 0 0.52991925155115449 forward_v I I I I #
coedge $-1 $360 $361 $362 $363 reversed $133 $-1 #
coedge $-1 $217 $135 $364 $365 reversed $85 $-1 #
coedge $-1 $135 $216 $360 $366 reversed $85 $-1 #
coedge $-1 $362 $367 $135 $219 forward $357 $-1 #
edge $-1 $368 17.885189762645926 $369 30.535952521033089 $218 $370 forward 7 unknown #
loop $-1 $-1 $225 $136 #
plane-surface $-1 -58.419751579332868 -6.2046809779334993 0.84359702338272058 -0.84804810408105047 0 0.52991925155115449 0.52991925155115449 0 0.84804810408105047 forward_v I I I I #
loop $-1 $-1 $371 $87 #
coedge $-1 $223 $223 $224 $372 reversed $137 $-1 #
coedge $-1 $224 $224 $223 $372 forward $139 $-1 #
coedge $-1 $225 $225 $140 $226 forward $220 $-1 #
edge $-1 $373 0 $373 6.2831853071796004 $225 $374 forward 7 unknown #
loop $-1 $-1 $232 $141 #
plane-surface $-1 -58.419751579332868 -6.2046809779334993 0.84359702338272058 -0.84804810408105047 0 0.52991925155115449 0.52991925155115449 0 0.84804810408105047 forward_v I I I I #
loop $-1 $-1 $375 $90 #
coedge $-1 $230 $230 $231 $376 reversed $142 $-1 #
coedge $-1 $231 $231 $230 $376 forward $144 $-1 #
coedge $-1 $232 $232 $145 $233 forward $227 $-1 #
edge $-1 $377 0 $377 6.2831853071796004 $232 $378 forward 7 unknown #
face $-1 $379 $380 $51 $-1 $381 forward single #
loop $-1 $-1 $382 $146 #
plane-surface $-1 -58.419751579332868 0 0 1 0 0 0 0 -1 forward_v I I I I #
coedge $-1 $383 $384 $385 $386 reversed $147 $-1 #
coedge $-1 $387 $149 $388 $389 reversed $94 $-1 #
coedge $-1 $149 $387 $390 $391 reversed $94 $-1 #
coedge $-1 $392 $393 $149 $241 forward $380 $-1 #
edge $-1 $394 0 $395 14.917506091350322 $240 $396 forward 7 unknown #
loop $-1 $-1 $247 $150 #
plane-surface $-1 -58.419751579332868 -6.2046809779334993 0.84359702338272058 -0.84804810408105047 0 0.52991925155115449 0.52991925155115449 0 0.84804810408105047 forward_v I I I I #
loop $-1 $-1 $397 $96 #
coedge $-1 $245 $245 $246 $398 reversed $151 $-1 #
coedge $-1 $246 $246 $245 $398 forward $153 $-1 #
coedge $-1 $247 $247 $154 $248 forward $242 $-1 #
edge $-1 $399 0 $399 6.2831853071796004 $247 $400 forward 7 unknown #
loop $-1 $-1 $254 $155 #
plane-surface $-1 -58.419751579332868 -6.2046809779334993 0.84359702338272058 -0.84804810408105047 0 0.52991925155115449 0.52991925155115449 0 0.84804810408105047 forward_v I I I I #
loop $-1 $-1 $401 $99 #
coedge $-1 $252 $252 $253 $402 reversed $156 $-1 #
coedge $-1 $253 $253 $252 $402 forward $158 $-1 #
coedge $-1 $254 $254 $159 $255 forward $249 $-1 #
edge $-1 $403 0 $403 6.2831853071796004 $254 $404 forward 7 unknown #
face $-1 $405 $406 $54 $-1 $407 forward single #
loop $-1 $-1 $408 $160 #
plane-surface $-1 95.589768649362341 -12.409361955866997 161.84461822431001 0 1 0 0.84804810408105047 0 0.52991925155115449 forward_v I I I I #
coedge $-1 $409 $410 $411 $412 reversed $161 $-1 #
coedge $-1 $261 $163 $413 $414 reversed $103 $-1 #
coedge $-1 $163 $260 $409 $415 reversed $103 $-1 #
coedge $-1 $411 $416 $163 $263 forward $406 $-1 #
edge $-1 $417 -10.624867254651697 $418 -2.7197935917135467 $262 $419 forward 7 unknown #
loop $-1 $-1 $269 $164 #
plane-surface $-1 -3.4957504861160373 -6.2046809779334993 99.92911615886112 0.84804810408105047 0 0.52991925155115449 0.52991925155115449 0 -0.84804810408105047 forward_v I I I I #
loop $-1 $-1 $420 $105 #
coedge $-1 $267 $267 $268 $421 reversed $165 $-1 #
coedge $-1 $268 $268 $267 $421 forward $167 $-1 #
coedge $-1 $269 $269 $168 $270 forward $264 $-1 #
edge $-1 $422 0 $422 6.2831853071796004 $269 $423 forward 7 unknown #
loop $-1 $-1 $276 $169 #
plane-surface $-1 -3.4957504861160373 -6.2046809779334993 99.92911615886112 0.84804810408105047 0 0.52991925155115449 0.52991925155115449 0 -0.84804810408105047 forward_v I I I I #
loop $-1 $-1 $424 $108 #
coedge $-1 $274 $274 $275 $425 reversed $170 $-1 #
coedge $-1 $275 $275 $274 $425 forward $172 $-1 #
coedge $-1 $276 $276 $173 $277 forward $271 $-1 #
edge $-1 $426 0 $426 6.2831853071796004 $276 $427 forward 7 unknown #
face $-1 $428 $429 $57 $-1 $430 forward single #
loop $-1 $-1 $431 $174 #
plane-surface $-1 0 0 13.494359781769884 0 0 1 1 0 0 forward_v I I I I #
coedge $-1 $432 $433 $434 $435 reversed $175 $-1 #
coedge $-1 $283 $177 $436 $437 reversed $112 $-1 #
coedge $-1 $177 $282 $431 $438 reversed $112 $-1 #
coedge $-1 $439 $440 $177 $285 forward $441 $-1 #
edge $-1 $442 -80.078712088772278 $443 -67.427949330385118 $284 $444 forward 7 unknown #
loop $-1 $-1 $291 $178 #
plane-surface $-1 -3.4957504861160373 -6.2046809779334993 99.92911615886112 0.84804810408105047 0 0.52991925155115449 0.52991925155115449 0 -0.84804810408105047 forward_v I I I I #
loop $-1 $-1 $445 $114 #
coedge $-1 $289 $289 $290 $446 reversed $179 $-1 #
coedge $-1 $290 $290 $289 $446 forward $181 $-1 #
coedge $-1 $291 $291 $182 $292 forward $286 $-1 #
edge $-1 $447 0 $447 6.2831853071796004 $291 $448 forward 7 unknown #
loop $-1 $-1 $298 $183 #
plane-surface $-1 -3.4957504861160373 -6.2046809779334993 99.92911615886112 0.84804810408105047 0 0.52991925155115449 0.52991925155115449 0 -0.84804810408105047 forward_v I I I I #
loop $-1 $-1 $449 $117 #
coedge $-1 $296 $296 $297 $450 reversed $184 $-1 #
coedge $-1 $297 $297 $296 $450 forward $186 $-1 #
coedge $-1 $298 $298 $187 $299 forward $293 $-1 #
edge $-1 $451 0 $451 6.2831853071796004 $298 $452 forward 7 unknown #
face $-1 $453 $454 $45 $-1 $455 reversed single #
loop $-1 $-1 $456 $188 #
plane-surface $-1 -58.419751579332868 0 0 1 0 0 0 0 -1 forward_v I I I I #
coedge $-1 $457 $311 $458 $459 forward $189 $-1 #
coedge $-1 $460 $191 $457 $461 forward $121 $-1 #
coedge $-1 $191 $460 $462 $463 forward $121 $-1 #
coedge $-1 $314 $313 $191 $307 reversed $315 $-1 #
edge $-1 $464 -40.266429316667157 $465 40.266429316667157 $306 $466 forward 7 unknown #
coedge $-1 $193 $192 $467 $468 forward $76 $-1 #
coedge $-1 $469 $470 $192 $310 reversed $454 $-1 #
edge $-1 $317 -58.419751579332868 $471 58.419751579332868 $309 $472 forward 7 unknown #
coedge $-1 $303 $473 $193 $312 reversed $189 $-1 #
edge $-1 $474 -58.419751579332868 $316 58.419751579332868 $311 $475 forward 7 unknown #
coedge $-1 $306 $194 $473 $476 forward $315 $-1 #
coedge $-1 $194 $306 $469 $477 reversed $315 $-1 #
loop $-1 $-1 $313 $453 #
vertex $-1 $195 $478 #
vertex $-1 $195 $479 #
straight-curve $-1 58.419751579332868 0 13.494359781769884 0 1 0 I I #
face $-1 $480 $481 $46 $-1 $482 reversed single #
loop $-1 $-1 $483 $196 #
plane-surface $-1 -58.419751579332868 0 0 1 0 0 0 0 -1 forward_v I I I I #
coedge $-1 $484 $328 $333 $485 reversed $197 $-1 #
coedge $-1 $486 $199 $487 $488 reversed $125 $-1 #
coedge $-1 $199 $486 $484 $489 forward $125 $-1 #
coedge $-1 $333 $332 $199 $326 forward $334 $-1 #
edge $-1 $490 -22.95021528560045 $491 -11.68221277653296 $325 $492 forward 7 unknown #
coedge $-1 $201 $200 $483 $493 reversed $79 $-1 #
coedge $-1 $322 $494 $200 $329 reversed $197 $-1 #
edge $-1 $335 -58.419751579332868 $495 58.419751579332868 $328 $496 forward 7 unknown #
coedge $-1 $497 $498 $201 $331 forward $481 $-1 #
edge $-1 $336 -58.419751579332868 $499 58.419751579332868 $330 $500 forward 7 unknown #
coedge $-1 $325 $202 $498 $501 forward $334 $-1 #
coedge $-1 $202 $325 $322 $485 forward $334 $-1 #
loop $-1 $-1 $202 $480 #
vertex $-1 $203 $502 #
vertex $-1 $501 $503 #
straight-curve $-1 58.419751579332868 -17.316214031066707 3.0911910934401376 0 -1 0 I I #
face $-1 $504 $505 $47 $-1 $506 reversed single #
loop $-1 $-1 $210 $204 #
plane-surface $-1 58.419751579332868 0 0 -1 0 0 0 0 1 forward_v I I I I #
coedge $-1 $507 $349 $508 $509 reversed $205 $-1 #
coedge $-1 $510 $207 $507 $511 forward $129 $-1 #
coedge $-1 $207 $510 $512 $513 reversed $129 $-1 #
coedge $-1 $352 $351 $207 $345 forward $339 $-1 #
edge $-1 $514 11.682212776532964 $515 22.95021528560045 $344 $516 forward 7 unknown #
coedge $-1 $209 $208 $517 $518 reversed $82 $-1 #
coedge $-1 $519 $520 $208 $348 forward $521 $-1 #
edge $-1 $522 -58.419751579332868 $353 58.419751579332868 $347 $523 forward 7 unknown #
coedge $-1 $341 $524 $209 $350 reversed $205 $-1 #
edge $-1 $525 -58.419751579332868 $354 58.419751579332868 $349 $526 forward 7 unknown #
coedge $-1 $344 $210 $524 $527 forward $339 $-1 #
coedge $-1 $210 $344 $519 $528 reversed $339 $-1 #
vertex $-1 $528 $529 #
vertex $-1 $211 $530 #
straight-curve $-1 58.419751579332868 17.316214031066707 3.0911910934401376 0 -1 0 I I #
face $-1 $-1 $531 $48 $-1 $532 forward single #
loop $-1 $-1 $218 $212 #
plane-surface $-1 -58.419751579332868 0 0 1 0 0 0 0 -1 forward_v I I I I #
coedge $-1 $533 $534 $535 $536 reversed $213 $-1 #
coedge $-1 $537 $215 $217 $366 forward $133 $-1 #
coedge $-1 $215 $537 $533 $538 forward $133 $-1 #
coedge $-1 $535 $218 $215 $363 forward $357 $-1 #
edge $-1 $369 -3.1023404889667479 $539 9.3070214669002471 $362 $540 forward 7 unknown #
coedge $-1 $541 $542 $216 $365 forward $531 $-1 #
edge $-1 $543 -28.237957441010906 $368 -20.332883778072755 $364 $544 forward 7 unknown #
edge $-1 $369 0 $543 14.917506091350322 $217 $545 forward 7 unknown #
coedge $-1 $218 $535 $541 $546 reversed $357 $-1 #
vertex $-1 $546 $547 #
vertex $-1 $219 $548 #
straight-curve $-1 -58.419751579332868 -1.7763568394002505e-015 31.379549544415809 0 0 -1 I I #
coedge $-1 $371 $371 $-1 $549 reversed $222 $-1 #
edge $-1 $550 0 $550 6.2831853071796004 $223 $551 forward 7 unknown #
vertex $-1 $226 $552 #
ellipse-curve $-1 -54.467214747863792 -8.8638299684764235 7.1689784025763021 -0.84804810408105047 0 0.52991925155115449 0.79487887732673168 0 1.2720721561215758 1 I I #
coedge $-1 $375 $375 $-1 $553 reversed $229 $-1 #
edge $-1 $554 0 $554 6.2831853071796004 $230 $555 forward 7 unknown #
vertex $-1 $233 $556 #
ellipse-curve $-1 -54.467214747863792 -3.545531987390568 7.1689784025763021 -0.84804810408105047 0 0.52991925155115449 0.79487887732673168 0 1.2720721561215758 1 I I #
face $-1 $-1 $557 $51 $-1 $558 forward single #
loop $-1 $-1 $393 $234 #
plane-surface $-1 -157.50527071481125 -1.7763568394002505e-015 62.759099088831618 0 -1 0 0.84804810408105047 0 -0.52991925155115449 forward_v I I I I #
coedge $-1 $388 $559 $384 $560 forward $235 $-1 #
coedge $-1 $384 $237 $387 $561 reversed $147 $-1 #
coedge $-1 $237 $383 $382 $560 reversed $147 $-1 #
coedge $-1 $562 $390 $237 $386 forward $557 $-1 #
edge $-1 $563 -28.237957441010906 $564 -20.332883778072755 $385 $565 forward 7 unknown #
coedge $-1 $239 $238 $383 $561 forward $94 $-1 #
coedge $-1 $566 $382 $238 $389 forward $235 $-1 #
edge $-1 $567 -15.511702444833746 $394 -3.1023404889667479 $388 $568 forward 7 unknown #
coedge $-1 $385 $569 $239 $391 forward $557 $-1 #
edge $-1 $395 3.1023404889667479 $563 15.511702444833746 $390 $570 forward 7 unknown #
coedge $-1 $393 $240 $569 $571 reversed $380 $-1 #
coedge $-1 $240 $392 $566 $572 reversed $380 $-1 #
vertex $-1 $389 $573 #
vertex $-1 $391 $574 #
straight-curve $-1 -58.419751579332868 -1.7763568394002505e-015 0.84359702338272058 0.52991925155115449 0 0.84804810408105047 I I #
coedge $-1 $397 $397 $-1 $575 reversed $244 $-1 #
edge $-1 $576 0 $576 6.2831853071796004 $245 $577 forward 7 unknown #
vertex $-1 $248 $578 #
ellipse-curve $-1 -54.467214747863792 3.5455319873905751 7.1689784025763021 -0.84804810408105047 0 0.52991925155115449 0.79487887732673168 0 1.2720721561215758 1 I I #
coedge $-1 $401 $401 $-1 $579 reversed $251 $-1 #
edge $-1 $580 0 $580 6.2831853071796004 $252 $581 forward 7 unknown #
vertex $-1 $255 $582 #
ellipse-curve $-1 -54.467214747863792 8.8638299684764306 7.1689784025763021 -0.84804810408105047 0 0.52991925155115449 0.79487887732673168 0 1.2720721561215758 1 I I #
face $-1 $-1 $583 $54 $-1 $584 reversed single #
loop $-1 $-1 $262 $256 #
plane-surface $-1 0 0 13.494359781769884 0 0 1 1 0 0 forward_v I I I I #
coedge $-1 $585 $586 $587 $588 reversed $257 $-1 #
coedge $-1 $589 $259 $261 $415 forward $161 $-1 #
coedge $-1 $259 $589 $585 $590 forward $161 $-1 #
coedge $-1 $587 $262 $259 $412 forward $406 $-1 #
edge $-1 $418 -3.1023404889667479 $591 9.3070214669002471 $411 $592 forward 7 unknown #
coedge $-1 $593 $594 $260 $414 forward $583 $-1 #
edge $-1 $595 -80.078712088772278 $417 -67.427949330385118 $413 $596 forward 7 unknown #
edge $-1 $418 101.92199706731542 $595 116.83950315866574 $261 $597 forward 7 unknown #
coedge $-1 $262 $587 $593 $598 forward $406 $-1 #
vertex $-1 $263 $599 #
vertex $-1 $263 $600 #
straight-curve $-1 47.794884324681171 -1.7763568394002505e-015 13.494359781769887 -1 0 0 I I #
coedge $-1 $420 $420 $-1 $601 reversed $266 $-1 #
edge $-1 $602 0 $602 6.2831853071796004 $267 $603 forward 7 unknown #
vertex $-1 $270 $604 #
ellipse-curve $-1 54.4672147478638 -8.8638299684764235 7.1689784025763013 0.84804810408105047 0 0.52991925155115449 0.79487887732673168 0 -1.2720721561215758 1 I I #
coedge $-1 $424 $424 $-1 $605 reversed $273 $-1 #
edge $-1 $606 0 $606 6.2831853071796004 $274 $607 forward 7 unknown #
vertex $-1 $277 $608 #
ellipse-curve $-1 54.4672147478638 -3.545531987390568 7.1689784025763013 0.84804810408105047 0 0.52991925155115449 0.79487887732673168 0 -1.2720721561215758 1 I I #
face $-1 $-1 $441 $57 $-1 $609 reversed single #
loop $-1 $-1 $610 $278 #
plane-surface $-1 95.589768649362341 -1.7763568394002505e-015 161.84461822431001 0 -1 0 -0.84804810408105047 0 -0.52991925155115449 forward_v I I I I #
coedge $-1 $611 $612 $283 $438 forward $279 $-1 #
coedge $-1 $436 $281 $611 $613 reversed $175 $-1 #
coedge $-1 $281 $436 $440 $614 reversed $175 $-1 #
coedge $-1 $615 $610 $281 $435 forward $429 $-1 #
edge $-1 $616 101.92199706731542 $617 116.83950315866574 $434 $618 forward 7 unknown #
coedge $-1 $433 $432 $282 $437 forward $175 $-1 #
edge $-1 $619 101.92199706731542 $442 116.83950315866574 $282 $620 forward 7 unknown #
edge $-1 $443 -10.624867254651697 $619 -2.7197935917135467 $431 $621 forward 7 unknown #
coedge $-1 $622 $284 $612 $623 reversed $441 $-1 #
coedge $-1 $284 $622 $433 $614 forward $441 $-1 #
loop $-1 $-1 $284 $428 #
vertex $-1 $285 $624 #
vertex $-1 $438 $625 #
straight-curve $-1 58.419751579332868 12.409361955866997 80.922309112155006 0 0 1 I I #
coedge $-1 $445 $445 $-1 $626 reversed $288 $-1 #
edge $-1 $627 0 $627 6.2831853071796004 $289 $628 forward 7 unknown #
vertex $-1 $292 $629 #
ellipse-curve $-1 54.4672147478638 3.5455319873905751 7.1689784025763013 0.84804810408105047 0 0.52991925155115449 0.79487887732673168 0 -1.2720721561215758 1 I I #
coedge $-1 $449 $449 $-1 $630 reversed $295 $-1 #
edge $-1 $631 0 $631 6.2831853071796004 $296 $632 forward 7 unknown #
vertex $-1 $299 $633 #
ellipse-curve $-1 54.4672147478638 8.8638299684764306 7.1689784025763013 0.84804810408105047 0 0.52991925155115449 0.79487887732673168 0 -1.2720721561215758 1 I I #
face $-1 $-1 $315 $45 $-1 $634 reversed single #
loop $-1 $-1 $469 $300 #
plane-surface $-1 0 40.266429316667157 0 0 -1 0 0 0 -1 forward_v I I I I #
coedge $-1 $635 $467 $470 $636 forward $301 $-1 #
coedge $-1 $473 $303 $304 $461 reversed $189 $-1 #
coedge $-1 $467 $635 $303 $459 reversed $301 $-1 #
edge $-1 $474 -13.494359781769884 $637 13.494359781769884 $458 $638 forward 7 unknown #
coedge $-1 $305 $304 $635 $639 forward $121 $-1 #
edge $-1 $465 -58.419751579332868 $637 58.419751579332868 $457 $640 forward 7 unknown #
coedge $-1 $470 $469 $305 $463 reversed $454 $-1 #
edge $-1 $641 -58.419751579332868 $464 58.419751579332868 $462 $642 forward 7 unknown #
vertex $-1 $307 $643 #
vertex $-1 $476 $644 #
straight-curve $-1 58.419751579332868 0 -13.494359781769884 0 -1 0 I I #
coedge $-1 $456 $458 $308 $468 reversed $301 $-1 #
edge $-1 $471 -40.266429316667157 $474 40.266429316667157 $467 $645 forward 7 unknown #
coedge $-1 $462 $309 $314 $477 forward $454 $-1 #
coedge $-1 $309 $462 $456 $636 reversed $454 $-1 #
vertex $-1 $310 $646 #
straight-curve $-1 0 40.266429316667157 13.494359781769884 -1 0 0 I I #
coedge $-1 $311 $457 $313 $476 reversed $189 $-1 #
vertex $-1 $468 $647 #
straight-curve $-1 0 -40.266429316667157 13.494359781769884 1 0 0 I I #
edge $-1 $316 -13.494359781769884 $465 13.494359781769884 $313 $648 forward 7 unknown #
edge $-1 $317 -13.494359781769884 $464 13.494359781769884 $314 $649 forward 7 unknown #
point $-1 58.419751579332868 -40.266429316667157 13.494359781769884 #
point $-1 58.419751579332868 40.266429316667157 13.494359781769884 #
face $-1 $-1 $334 $46 $-1 $650 reversed single #
loop $-1 $-1 $330 $319 #
plane-surface $-1 0 -40.266429316667157 0 0 1 0 0 0 1 forward_v I I I I #
coedge $-1 $651 $652 $327 $493 forward $320 $-1 #
coedge $-1 $494 $322 $324 $489 reversed $197 $-1 #
edge $-1 $491 -1.6825368385270494 $335 2.6216396751357749 $333 $653 forward 7 unknown #
coedge $-1 $324 $323 $654 $655 reversed $125 $-1 #
coedge $-1 $498 $497 $323 $488 forward $481 $-1 #
edge $-1 $656 -58.419751579332868 $490 58.419751579332868 $487 $657 forward 7 unknown #
edge $-1 $658 -58.419751579332868 $491 58.419751579332868 $484 $659 forward 7 unknown #
vertex $-1 $488 $660 #
vertex $-1 $326 $661 #
straight-curve $-1 58.419751579332868 -17.316214031066707 -1.2129854202226866 0 1 0 I I #
edge $-1 $499 -22.95021528560045 $495 -11.68221277653296 $483 $662 forward 7 unknown #
coedge $-1 $328 $484 $651 $663 reversed $197 $-1 #
vertex $-1 $493 $664 #
straight-curve $-1 0 -28.998426807599667 3.0911910934401376 -1 0 0 I I #
coedge $-1 $487 $330 $652 $665 forward $481 $-1 #
coedge $-1 $330 $487 $332 $501 reversed $481 $-1 #
vertex $-1 $665 $666 #
straight-curve $-1 0 -40.266429316667157 3.0911910934401376 -1 0 0 I I #
edge $-1 $336 -3.0911910934401376 $490 1.2129854202226866 $332 $667 forward 7 unknown #
point $-1 58.419751579332868 -28.998426807599667 3.0911910934401376 #
point $-1 58.419751579332868 -40.266429316667157 3.0911910934401376 #
face $-1 $-1 $521 $47 $-1 $668 reversed single #
loop $-1 $-1 $517 $338 #
plane-surface $-1 -58.419751579332868 0 0 1 0 0 0 0 -1 forward_v I I I I #
coedge $-1 $524 $341 $342 $511 reversed $205 $-1 #
coedge $-1 $517 $669 $341 $509 forward $505 $-1 #
edge $-1 $670 -1.6825368385270494 $525 2.6216396751357749 $508 $671 forward 7 unknown #
coedge $-1 $343 $342 $669 $672 reversed $129 $-1 #
edge $-1 $514 -58.419751579332868 $670 58.419751579332868 $507 $673 forward 7 unknown #
coedge $-1 $520 $519 $343 $513 forward $521 $-1 #
edge $-1 $515 -58.419751579332868 $674 58.419751579332868 $512 $675 forward 7 unknown #
vertex $-1 $345 $676 #
vertex $-1 $513 $677 #
straight-curve $-1 58.419751579332868 17.316214031066707 -1.2129854202226866 0 1 0 I I #
coedge $-1 $678 $508 $346 $518 forward $505 $-1 #
edge $-1 $525 11.682212776532964 $522 22.95021528560045 $517 $679 forward 7 unknown #
coedge $-1 $512 $347 $352 $528 forward $521 $-1 #
coedge $-1 $347 $512 $678 $680 reversed $521 $-1 #
loop $-1 $-1 $347 $504 #
vertex $-1 $680 $681 #
straight-curve $-1 0 40.266429316667157 3.0911910934401376 1 0 0 I I #
coedge $-1 $349 $507 $351 $527 reversed $205 $-1 #
vertex $-1 $518 $682 #
straight-curve $-1 0 28.998426807599671 3.0911910934401376 1 0 0 I I #
edge $-1 $354 -2.6216396751357749 $514 1.6825368385270494 $351 $683 forward 7 unknown #
edge $-1 $353 -3.0911910934401376 $515 1.2129854202226866 $352 $684 forward 7 unknown #
point $-1 58.419751579332868 40.266429316667157 3.0911910934401376 #
point $-1 58.419751579332868 28.998426807599671 3.0911910934401376 #
loop $-1 $-1 $364 $356 #
plane-surface $-1 0 0 13.494359781769884 0 0 1 1 0 0 forward_v I I I I #
coedge $-1 $534 $359 $361 $538 reversed $213 $-1 #
coedge $-1 $359 $533 $685 $686 reversed $213 $-1 #
coedge $-1 $367 $362 $359 $536 forward $357 $-1 #
edge $-1 $539 -30.535952521033089 $687 -17.885189762645926 $535 $688 forward 7 unknown #
coedge $-1 $361 $360 $542 $689 reversed $133 $-1 #
edge $-1 $690 -14.917506091350322 $539 0 $533 $691 forward 7 unknown #
vertex $-1 $363 $692 #
straight-curve $-1 -58.419751579332868 -3.1023404889667496 0.84359702338272391 0 -1 0 I I #
coedge $-1 $685 $364 $367 $546 forward $531 $-1 #
coedge $-1 $364 $685 $537 $689 forward $531 $-1 #
vertex $-1 $365 $693 #
straight-curve $-1 -78.752635357405623 -1.7763568394002505e-015 13.494359781769884 -1 0 0 I I #
straight-curve $-1 -58.419751579332868 -1.7763568394002505e-015 0.84359702338272058 0.52991925155115449 0 0.84804810408105047 I I #
edge $-1 $368 1.7763568394002505e-015 $687 12.409361955866997 $367 $694 forward 7 unknown #
point $-1 -58.419751579332868 -1.7763568394002505e-015 13.494359781769884 #
point $-1 -58.419751579332868 -1.7763568394002505e-015 0.84359702338272058 #
edge $-1 $695 1 $695 0 $371 $-1 forward 7 unknown #
vertex $-1 $372 $696 #
ellipse-curve $-1 -52.449415669932499 -8.8638299684764235 5.9081176424232815 -0.84804810408105047 0 0.52991925155115449 0.79487887732673168 0 1.2720721561215758 1 I I #
point $-1 -53.672335870537069 -8.8638299684764235 8.4410505586978832 #
edge $-1 $697 1 $697 0 $375 $-1 forward 7 unknown #
vertex $-1 $376 $698 #
ellipse-curve $-1 -52.449415669932499 -3.545531987390568 5.9081176424232815 -0.84804810408105047 0 0.52991925155115449 0.79487887732673168 0 1.2720721561215758 1 I I #
point $-1 -53.672335870537069 -3.545531987390568 8.4410505586978832 #
loop $-1 $-1 $385 $379 #
plane-surface $-1 0 0 13.494359781769884 0 0 1 1 0 0 forward_v I I I I #
coedge $-1 $382 $566 $562 $699 reversed $235 $-1 #
edge $-1 $564 17.885189762645926 $567 30.535952521033089 $382 $700 forward 7 unknown #
edge $-1 $567 0 $563 14.917506091350322 $383 $701 forward 7 unknown #
coedge $-1 $569 $385 $559 $699 forward $557 $-1 #
vertex $-1 $386 $702 #
vertex $-1 $699 $703 #
straight-curve $-1 -78.752635357405623 12.409361955866997 13.494359781769884 -1 0 0 I I #
coedge $-1 $559 $388 $393 $572 forward $235 $-1 #
vertex $-1 $560 $704 #
straight-curve $-1 -58.419751579332868 -3.1023404889667496 0.84359702338272391 0 -1 0 I I #
coedge $-1 $390 $562 $392 $571 forward $557 $-1 #
straight-curve $-1 -50.514677916394717 -3.1023404889667496 13.494359781769884 0 1 0 I I #
edge $-1 $705 20.332883778072755 $395 28.237957441010906 $569 $706 forward 7 unknown #
edge $-1 $394 -30.535952521033089 $705 -17.885189762645926 $566 $707 forward 7 unknown #
point $-1 -58.419751579332868 -1.7763568394002505e-015 0.84359702338272058 #
point $-1 -50.514677916394717 -1.7763568394002505e-015 13.494359781769884 #
edge $-1 $708 1 $708 0 $397 $-1 forward 7 unknown #
vertex $-1 $398 $709 #
ellipse-curve $-1 -52.449415669932499 3.5455319873905751 5.9081176424232815 -0.84804810408105047 0 0.52991925155115449 0.79487887732673168 0 1.2720721561215758 1 I I #
point $-1 -53.672335870537069 3.5455319873905751 8.4410505586978832 #
edge $-1 $710 1 $710 0 $401 $-1 forward 7 unknown #
vertex $-1 $402 $711 #
ellipse-curve $-1 -52.449415669932499 8.8638299684764306 5.9081176424232815 -0.84804810408105047 0 0.52991925155115449 0.79487887732673168 0 1.2720721561215758 1 I I #
point $-1 -53.672335870537069 8.8638299684764306 8.4410505586978832 #
loop $-1 $-1 $413 $405 #
plane-surface $-1 58.419751579332868 0 0 -1 0 0 0 0 1 forward_v I I I I #
coedge $-1 $586 $408 $410 $590 reversed $257 $-1 #
coedge $-1 $408 $585 $712 $713 reversed $257 $-1 #
coedge $-1 $416 $411 $408 $588 forward $406 $-1 #
edge $-1 $591 2.7197935917135467 $714 10.624867254651697 $587 $715 forward 7 unknown #
coedge $-1 $410 $409 $594 $716 reversed $161 $-1 #
edge $-1 $717 -116.83950315866574 $591 -101.92199706731542 $585 $718 forward 7 unknown #
vertex $-1 $412 $719 #
straight-curve $-1 50.51467791639471 -3.1023404889667496 13.494359781769887 0 -1 0 I I #
coedge $-1 $712 $413 $416 $598 reversed $583 $-1 #
coedge $-1 $413 $712 $589 $716 forward $583 $-1 #
vertex $-1 $414 $720 #
straight-curve $-1 58.419751579332868 -1.7763568394002505e-015 80.922309112155006 0 0 1 I I #
straight-curve $-1 -3.4957504861160373 -1.7763568394002505e-015 99.92911615886112 0.52991925155115449 0 -0.84804810408105047 I I #
edge $-1 $714 -12.409361955866997 $417 -1.7763568394002505e-015 $593 $721 forward 7 unknown #
point $-1 58.419751579332868 -1.7763568394002505e-015 13.494359781769884 #
point $-1 50.514677916394717 -1.7763568394002505e-015 13.494359781769887 #
edge $-1 $722 1 $722 0 $420 $-1 forward 7 unknown #
vertex $-1 $421 $723 #
ellipse-curve $-1 52.449415669932499 -8.8638299684764235 5.908117642423278 0.84804810408105047 0 0.52991925155115449 0.79487887732673168 0 -1.2720721561215758 1 I I #
point $-1 55.262093625190531 -8.8638299684764235 5.8969062464547282 #
edge $-1 $724 1 $724 0 $424 $-1 forward 7 unknown #
vertex $-1 $425 $725 #
ellipse-curve $-1 52.449415669932499 -3.545531987390568 5.908117642423278 0.84804810408105047 0 0.52991925155115449 0.79487887732673168 0 -1.2720721561215758 1 I I #
point $-1 55.262093625190531 -3.545531987390568 5.8969062464547282 #
plane-surface $-1 58.419751579332868 0 0 -1 0 0 0 0 1 forward_v I I I I #
coedge $-1 $434 $615 $726 $727 reversed $429 $-1 #
coedge $-1 $726 $431 $432 $613 forward $279 $-1 #
coedge $-1 $431 $726 $439 $623 forward $279 $-1 #
edge $-1 $619 -15.511702444833746 $616 -3.1023404889667479 $611 $728 forward 7 unknown #
edge $-1 $617 3.1023404889667479 $442 15.511702444833746 $440 $729 forward 7 unknown #
coedge $-1 $610 $434 $622 $730 reversed $429 $-1 #
vertex $-1 $613 $731 #
vertex $-1 $614 $732 #
straight-curve $-1 -3.4957504861160373 -1.7763568394002505e-015 99.92911615886112 0.52991925155115449 0 -0.84804810408105047 I I #
vertex $-1 $438 $733 #
straight-curve $-1 -3.4957504861160373 12.409361955866997 99.92911615886112 0.52991925155115449 0 -0.84804810408105047 I I #
straight-curve $-1 47.794884324681171 12.409361955866997 13.494359781769887 -1 0 0 I I #
coedge $-1 $440 $439 $615 $730 forward $441 $-1 #
edge $-1 $734 -1.7763568394002505e-015 $443 12.409361955866997 $439 $735 forward 7 unknown #
point $-1 58.419751579332868 12.409361955866997 0.84359702338272768 #
point $-1 58.419751579332868 12.409361955866997 13.494359781769884 #
edge $-1 $736 1 $736 0 $445 $-1 forward 7 unknown #
vertex $-1 $446 $737 #
ellipse-curve $-1 52.449415669932499 3.5455319873905751 5.908117642423278 0.84804810408105047 0 0.52991925155115449 0.79487887732673168 0 -1.2720721561215758 1 I I #
point $-1 55.262093625190531 3.5455319873905751 5.8969062464547282 #
edge $-1 $738 1 $738 0 $449 $-1 forward 7 unknown #
vertex $-1 $450 $739 #
ellipse-curve $-1 52.449415669932499 8.8638299684764306 5.908117642423278 0.84804810408105047 0 0.52991925155115449 0.79487887732673168 0 -1.2720721561215758 1 I I #
point $-1 55.262093625190531 8.8638299684764306 5.8969062464547282 #
plane-surface $-1 58.419751579332868 0 0 -1 0 0 0 0 1 forward_v I I I I #
coedge $-1 $458 $456 $460 $639 reversed $301 $-1 #
edge $-1 $471 -13.494359781769884 $641 13.494359781769884 $470 $740 forward 7 unknown #
vertex $-1 $639 $741 #
straight-curve $-1 -58.419751579332868 -40.266429316667157 0 0 0 -1 I I #
edge $-1 $637 -40.266429316667157 $641 40.266429316667157 $635 $742 forward 7 unknown #
straight-curve $-1 0 -40.266429316667157 -13.494359781769884 -1 0 0 I I #
vertex $-1 $463 $743 #
straight-curve $-1 0 40.266429316667157 -13.494359781769884 1 0 0 I I #
point $-1 58.419751579332868 40.266429316667157 -13.494359781769884 #
point $-1 58.419751579332868 -40.266429316667157 -13.494359781769884 #
straight-curve $-1 -58.419751579332868 0 13.494359781769884 0 -1 0 I I #
point $-1 -58.419751579332868 40.266429316667157 13.494359781769884 #
point $-1 -58.419751579332868 -40.266429316667157 13.494359781769884 #
straight-curve $-1 58.419751579332868 -40.266429316667157 0 0 0 -1 I I #
straight-curve $-1 58.419751579332868 40.266429316667157 0 0 0 -1 I I #
plane-surface $-1 58.419751579332868 0 0 -1 0 0 0 0 1 forward_v I I I I #
coedge $-1 $654 $483 $494 $663 forward $320 $-1 #
coedge $-1 $483 $654 $497 $665 reversed $320 $-1 #
straight-curve $-1 58.419751579332868 -28.998426807599667 0.46955141830436276 0 0 1 I I #
coedge $-1 $652 $651 $486 $655 forward $320 $-1 #
edge $-1 $658 11.68221277653296 $656 22.95021528560045 $654 $744 forward 7 unknown #
vertex $-1 $488 $745 #
straight-curve $-1 0 -40.266429316667157 -1.2129854202226866 1 0 0 I I #
vertex $-1 $655 $746 #
straight-curve $-1 0 -28.998426807599667 -1.2129854202226866 1 0 0 I I #
point $-1 58.419751579332868 -40.266429316667157 -1.2129854202226866 #
point $-1 58.419751579332868 -28.998426807599667 -1.2129854202226866 #
straight-curve $-1 -58.419751579332868 -17.316214031066707 3.0911910934401376 0 1 0 I I #
edge $-1 $495 -2.6216396751357749 $658 1.6825368385270494 $651 $747 forward 7 unknown #
point $-1 -58.419751579332868 -28.998426807599667 3.0911910934401376 #
edge $-1 $499 -3.0911910934401376 $656 1.2129854202226866 $652 $748 forward 7 unknown #
point $-1 -58.419751579332868 -40.266429316667157 3.0911910934401376 #
straight-curve $-1 58.419751579332868 -40.266429316667157 0 0 0 -1 I I #
plane-surface $-1 0 40.266429316667157 0 0 -1 0 0 0 -1 forward_v I I I I #
coedge $-1 $508 $678 $510 $672 forward $505 $-1 #
vertex $-1 $672 $749 #
straight-curve $-1 -58.419751579332868 28.998426807599671 0.46955141830436276 0 0 1 I I #
edge $-1 $674 -22.95021528560045 $670 -11.682212776532964 $669 $750 forward 7 unknown #
straight-curve $-1 0 28.998426807599671 -1.2129854202226866 -1 0 0 I I #
vertex $-1 $513 $751 #
straight-curve $-1 0 40.266429316667157 -1.2129854202226866 -1 0 0 I I #
point $-1 58.419751579332868 28.998426807599671 -1.2129854202226866 #
point $-1 58.419751579332868 40.266429316667157 -1.2129854202226866 #
coedge $-1 $669 $517 $520 $680 forward $505 $-1 #
straight-curve $-1 -58.419751579332868 17.316214031066707 3.0911910934401376 0 1 0 I I #
edge $-1 $522 -3.0911910934401376 $674 1.2129854202226866 $520 $752 forward 7 unknown #
point $-1 -58.419751579332868 40.266429316667157 3.0911910934401376 #
point $-1 -58.419751579332868 28.998426807599671 3.0911910934401376 #
straight-curve $-1 58.419751579332868 28.998426807599671 0.46955141830436276 0 0 -1 I I #
straight-curve $-1 58.419751579332868 40.266429316667157 0 0 0 -1 I I #
coedge $-1 $542 $541 $534 $686 forward $531 $-1 #
edge $-1 $687 20.332883778072755 $690 28.237957441010906 $685 $753 forward 7 unknown #
vertex $-1 $686 $754 #
straight-curve $-1 -58.419751579332868 -12.409361955866997 31.379549544415809 0 0 1 I I #
edge $-1 $690 -9.3070214669002471 $543 3.1023404889667479 $542 $755 forward 7 unknown #
vertex $-1 $689 $756 #
straight-curve $-1 -58.419751579332868 -12.409361955866997 0.84359702338272058 -0.52991925155115449 0 -0.84804810408105047 I I #
point $-1 -58.419751579332868 -12.409361955866997 0.84359702338272058 #
point $-1 -50.514677916394717 -1.7763568394002505e-015 13.494359781769884 #
straight-curve $-1 -58.419751579332868 0 13.494359781769884 0 -1 0 I I #
vertex $-1 $549 $757 #
point $-1 -51.654536792605768 -8.8638299684764235 7.1801897985448573 #
vertex $-1 $553 $758 #
point $-1 -51.654536792605768 -3.545531987390568 7.1801897985448573 #
edge $-1 $564 -12.409361955866997 $705 1.7763568394002505e-015 $559 $759 forward 7 unknown #
straight-curve $-1 -58.419751579332868 12.409361955866997 31.379549544415809 0 0 -1 I I #
straight-curve $-1 -58.419751579332868 12.409361955866997 0.84359702338272058 0.52991925155115449 0 0.84804810408105047 I I #
point $-1 -50.514677916394717 12.409361955866997 13.494359781769884 #
point $-1 -58.419751579332868 12.409361955866997 13.494359781769884 #
point $-1 -58.419751579332868 12.409361955866997 0.84359702338272058 #
vertex $-1 $571 $760 #
straight-curve $-1 -78.752635357405623 -1.7763568394002505e-015 13.494359781769884 1 0 0 I I #
straight-curve $-1 -58.419751579332868 -1.7763568394002505e-015 31.379549544415809 0 0 1 I I #
vertex $-1 $575 $761 #
point $-1 -51.654536792605768 3.5455319873905751 7.1801897985448573 #
vertex $-1 $579 $762 #
point $-1 -51.654536792605768 8.8638299684764306 7.1801897985448573 #
coedge $-1 $594 $593 $586 $713 forward $583 $-1 #
edge $-1 $714 67.427949330385118 $717 80.078712088772278 $712 $763 forward 7 unknown #
vertex $-1 $598 $764 #
straight-curve $-1 47.794884324681171 -12.409361955866997 13.494359781769887 1 0 0 I I #
edge $-1 $717 -9.3070214669002471 $595 3.1023404889667479 $594 $765 forward 7 unknown #
vertex $-1 $716 $766 #
straight-curve $-1 -3.4957504861160373 -12.409361955866997 99.92911615886112 -0.52991925155115449 0 0.84804810408105047 I I #
point $-1 50.514677916394717 -12.409361955866997 13.494359781769887 #
point $-1 58.419751579332868 -1.7763568394002505e-015 0.84359702338272768 #
straight-curve $-1 58.419751579332868 0 13.494359781769884 0 1 0 I I #
vertex $-1 $601 $767 #
point $-1 53.24429454725923 -8.8638299684764235 4.6360454863017022 #
vertex $-1 $605 $768 #
point $-1 53.24429454725923 -3.545531987390568 4.6360454863017022 #
coedge $-1 $612 $611 $610 $727 forward $279 $-1 #
edge $-1 $616 2.7197935917135467 $734 10.624867254651697 $726 $769 forward 7 unknown #
straight-curve $-1 50.51467791639471 -3.1023404889667496 13.494359781769887 0 -1 0 I I #
straight-curve $-1 58.419751579332868 -3.1023404889667496 0.84359702338272768 0 1 0 I I #
edge $-1 $734 67.427949330385118 $617 80.078712088772278 $622 $770 forward 7 unknown #
point $-1 50.514677916394717 -1.7763568394002505e-015 13.494359781769887 #
point $-1 58.419751579332868 -1.7763568394002505e-015 0.84359702338272768 #
point $-1 50.514677916394717 12.409361955866997 13.494359781769887 #
vertex $-1 $623 $771 #
straight-curve $-1 58.419751579332868 0 13.494359781769884 0 1 0 I I #
vertex $-1 $626 $772 #
point $-1 53.24429454725923 3.5455319873905751 4.6360454863017022 #
vertex $-1 $630 $773 #
point $-1 53.24429454725923 8.8638299684764306 4.6360454863017022 #
straight-curve $-1 -58.419751579332868 40.266429316667157 0 0 0 -1 I I #
point $-1 -58.419751579332868 -40.266429316667157 -13.494359781769884 #
straight-curve $-1 -58.419751579332868 0 -13.494359781769884 0 1 0 I I #
point $-1 -58.419751579332868 40.266429316667157 -13.494359781769884 #
straight-curve $-1 -58.419751579332868 -17.316214031066707 -1.2129854202226866 0 -1 0 I I #
point $-1 -58.419751579332868 -40.266429316667157 -1.2129854202226866 #
point $-1 -58.419751579332868 -28.998426807599667 -1.2129854202226866 #
straight-curve $-1 -58.419751579332868 -28.998426807599667 0.46955141830436276 0 0 -1 I I #
straight-curve $-1 -58.419751579332868 -40.266429316667157 0 0 0 -1 I I #
point $-1 -58.419751579332868 28.998426807599671 -1.2129854202226866 #
straight-curve $-1 -58.419751579332868 17.316214031066707 -1.2129854202226866 0 -1 0 I I #
point $-1 -58.419751579332868 40.266429316667157 -1.2129854202226866 #
straight-curve $-1 -58.419751579332868 40.266429316667157 0 0 0 -1 I I #
straight-curve $-1 -78.752635357405623 -12.409361955866997 13.494359781769884 1 0 0 I I #
point $-1 -58.419751579332868 -12.409361955866997 13.494359781769884 #
straight-curve $-1 -50.514677916394717 -3.1023404889667496 13.494359781769884 0 1 0 I I #
point $-1 -50.514677916394717 -12.409361955866997 13.494359781769884 #
point $-1 -51.177343513810918 -8.8638299684764235 5.1132387650965505 #
point $-1 -51.177343513810918 -3.545531987390568 5.1132387650965505 #
straight-curve $-1 -58.419751579332868 0 13.494359781769884 0 -1 0 I I #
point $-1 -58.419751579332868 -1.7763568394002505e-015 13.494359781769884 #
point $-1 -51.177343513810918 3.5455319873905751 5.1132387650965505 #
point $-1 -51.177343513810918 8.8638299684764306 5.1132387650965505 #
straight-curve $-1 58.419751579332868 -12.409361955866997 80.922309112155006 0 0 -1 I I #
point $-1 58.419751579332868 -12.409361955866997 13.494359781769884 #
straight-curve $-1 58.419751579332868 -3.1023404889667496 0.84359702338272768 0 1 0 I I #
point $-1 58.419751579332868 -12.409361955866997 0.84359702338272768 #
point $-1 51.177343513810918 -8.8638299684764235 5.113238765096547 #
point $-1 51.177343513810918 -3.545531987390568 5.113238765096547 #
straight-curve $-1 47.794884324681171 -1.7763568394002505e-015 13.494359781769887 1 0 0 I I #
straight-curve $-1 58.419751579332868 -1.7763568394002505e-015 80.922309112155006 0 0 -1 I I #
point $-1 58.419751579332868 -1.7763568394002505e-015 13.494359781769884 #
point $-1 51.177343513810918 3.5455319873905751 5.113238765096547 #
point $-1 51.177343513810918 8.8638299684764306 5.113238765096547 #
End-of-ACIS-data 