500 0 5 0           
7 Unknown 11 ACIS 5.0 NT 24 Fri Mar 26 15:36:20 1999 
-1 9.9999999999999995e-007 1e-010 
body $-1 $5 $-1 $6 #
body $-1 $7 $-1 $8 #
body $-1 $9 $-1 $10 #
body $-1 $11 $-1 $12 #
body $-1 $13 $-1 $14 #
lump $-1 $-1 $15 $0 #
transform $-1 1 0 0 0 1 0 0 0 1 67.597277748954738 46.975848006269977 20.480305620849339 1 rotate no_reflect no_shear #
lump $-1 $-1 $16 $1 #
transform $-1 1 0 0 0 1 0 0 0 1 67.597277748954738 46.975848006269977 20.480305620849339 1 rotate no_reflect no_shear #
lump $-1 $-1 $17 $2 #
transform $-1 1 0 0 0 1 0 0 0 1 67.597277748954738 46.975848006269977 20.480305620849339 1 rotate no_reflect no_shear #
lump $-1 $-1 $18 $3 #
transform $-1 1 0 0 0 1 0 0 0 1 67.597277748954738 46.975848006269977 20.480305620849339 1 rotate no_reflect no_shear #
lump $-1 $-1 $19 $4 #
transform $-1 1 0 0 0 1 0 0 0 1 67.597277748954738 46.975848006269977 20.480305620849339 1 rotate no_reflect no_shear #
shell $-1 $-1 $-1 $20 $-1 $5 #
shell $-1 $-1 $-1 $21 $-1 $7 #
shell $-1 $-1 $-1 $22 $-1 $9 #
shell $-1 $-1 $-1 $23 $-1 $11 #
shell $-1 $-1 $-1 $24 $-1 $13 #
face $-1 $25 $26 $15 $-1 $27 forward single #
face $-1 $28 $29 $16 $-1 $30 reversed single #
face $-1 $31 $32 $17 $-1 $33 reversed single #
face $-1 $34 $35 $18 $-1 $36 reversed single #
face $-1 $37 $38 $19 $-1 $39 forward single #
face $-1 $40 $41 $15 $-1 $42 reversed single #
loop $-1 $-1 $43 $20 #
plane-surface $-1 0 0 20.480305620849339 0 0 1 1 0 0 forward_v I I I I #
face $-1 $44 $45 $16 $-1 $46 reversed single #
loop $-1 $-1 $47 $21 #
plane-surface $-1 -36.57999332996927 -38.217456276762199 0 1 0 0 0 0 -1 forward_v I I I I #
face $-1 $48 $49 $17 $-1 $50 reversed single #
loop $-1 $-1 $51 $22 #
plane-surface $-1 -32.263635250988237 27.239301181666427 0 0 1 0 0 0 1 forward_v I I I I #
face $-1 $52 $53 $18 $-1 $54 reversed single #
loop $-1 $-1 $55 $23 #
plane-surface $-1 -175.56845164647649 -29.459064547254417 93.30443680056041 0 1 0 -0.79863551827123203 0 0.60181501223851219 forward_v I I I I #
face $-1 $56 $57 $19 $-1 $58 forward single #
loop $-1 $59 $60 $24 #
cone-surface $-1 -61.720616350483539 -22.726341129802901 14.207052306522169 0.79863551827123203 0 -0.60181501223851219 1.2036300244770244 0 1.5972710365424641 1 I I 0 1 2 forward I I I I #
face $-1 $61 $62 $15 $-1 $63 reversed single #
loop $-1 $-1 $64 $25 #
plane-surface $-1 0 0 -20.480305620849339 0 0 1 1 0 0 forward_v I I I I #
coedge $-1 $65 $66 $67 $68 forward $26 $-1 #
face $-1 $69 $70 $16 $-1 $71 reversed single #
loop $-1 $-1 $72 $28 #
plane-surface $-1 -31.608329918612668 -29.459064547254421 0 0 -1 0 0 0 -1 forward_v I I I I #
coedge $-1 $73 $74 $75 $76 forward $29 $-1 #
face $-1 $77 $78 $17 $-1 $79 reversed single #
loop $-1 $-1 $80 $31 #
plane-surface $-1 -36.316381906957631 37.107574593968202 0 1 0 0 0 0 -1 forward_v I I I I #
coedge $-1 $81 $82 $83 $84 forward $32 $-1 #
face $-1 $85 $86 $18 $-1 $87 reversed single #
loop $-1 $-1 $88 $34 #
plane-surface $-1 -67.59727774895471 -22.726341129802901 11.942323729005807 -0.79863551827123203 0 0.60181501223851219 0.60181501223851219 0 0.79863551827123203 forward_v I I I I #
coedge $-1 $89 $90 $91 $92 reversed $35 $-1 #
face $-1 $-1 $93 $19 $-1 $94 forward single #
loop $-1 $95 $96 $37 #
cone-surface $-1 -58.262234759429738 -22.726341129802901 11.600974925878251 0.79863551827123203 0 -0.60181501223851219 0.60181501223851219 0 0.79863551827123203 1 I I -0.70710678118654746 0.70710678118654746 1 forward I I I I #
loop $-1 $-1 $97 $24 #
coedge $-1 $60 $60 $98 $99 reversed $38 $-1 #
face $-1 $100 $101 $15 $-1 $102 reversed single #
loop $-1 $-1 $103 $40 #
plane-surface $-1 0 -46.975848006269977 0 0 1 0 0 0 1 forward_v I I I I #
coedge $-1 $104 $105 $106 $107 forward $41 $-1 #
coedge $-1 $108 $43 $109 $110 forward $26 $-1 #
coedge $-1 $43 $108 $111 $112 forward $26 $-1 #
coedge $-1 $113 $114 $43 $68 reversed $115 $-1 #
edge $-1 $116 -46.975848006269977 $117 46.975848006269977 $67 $118 forward 7 unknown #
face $-1 $119 $120 $16 $-1 $121 forward single #
loop $-1 $-1 $122 $44 #
plane-surface $-1 -26.636666507256063 -38.217456276762199 0 -1 0 0 0 0 1 forward_v I I I I #
coedge $-1 $123 $124 $125 $126 forward $45 $-1 #
coedge $-1 $127 $47 $128 $129 reversed $29 $-1 #
coedge $-1 $47 $127 $130 $131 reversed $29 $-1 #
coedge $-1 $124 $123 $47 $76 reversed $45 $-1 #
edge $-1 $132 -20.480305620849339 $133 20.480305620849339 $75 $134 forward 7 unknown #
face $-1 $135 $136 $17 $-1 $137 reversed single #
loop $-1 $-1 $138 $48 #
plane-surface $-1 -28.210888595018844 37.107574593968202 0 -1 0 0 0 0 1 forward_v I I I I #
coedge $-1 $139 $140 $141 $142 reversed $49 $-1 #
coedge $-1 $143 $51 $144 $145 reversed $32 $-1 #
coedge $-1 $51 $143 $146 $147 reversed $32 $-1 #
coedge $-1 $140 $139 $51 $84 reversed $49 $-1 #
edge $-1 $148 -20.480305620849339 $149 20.480305620849339 $83 $150 forward 7 unknown #
face $-1 $151 $152 $18 $-1 $153 reversed single #
loop $-1 $-1 $154 $52 #
plane-surface $-1 -175.56845164647649 -15.993617712351384 93.30443680056041 0 -1 0 0.79863551827123203 0 -0.60181501223851219 forward_v I I I I #
coedge $-1 $155 $156 $157 $158 reversed $53 $-1 #
coedge $-1 $90 $55 $159 $160 reversed $35 $-1 #
coedge $-1 $55 $89 $155 $161 reversed $35 $-1 #
coedge $-1 $157 $162 $55 $92 forward $163 $-1 #
edge $-1 $164 20.186948074283507 $165 26.620778725660792 $91 $166 forward 7 unknown #
loop $-1 $-1 $98 $56 #
plane-surface $-1 -67.59727774895471 -22.726341129802901 11.942323729005807 -0.79863551827123203 0 0.60181501223851219 0.60181501223851219 0 0.79863551827123203 forward_v I I I I #
loop $-1 $-1 $167 $37 #
coedge $-1 $96 $96 $97 $168 reversed $57 $-1 #
coedge $-1 $97 $97 $96 $168 forward $59 $-1 #
coedge $-1 $98 $98 $60 $99 forward $93 $-1 #
edge $-1 $169 0 $169 6.2831853071796004 $98 $170 forward 7 unknown #
face $-1 $171 $172 $15 $-1 $173 reversed single #
loop $-1 $-1 $174 $61 #
plane-surface $-1 -67.597277748954738 0 0 1 0 0 0 0 -1 forward_v I I I I #
coedge $-1 $175 $111 $176 $177 forward $62 $-1 #
coedge $-1 $178 $64 $175 $179 forward $41 $-1 #
coedge $-1 $64 $178 $180 $181 forward $41 $-1 #
coedge $-1 $114 $113 $64 $107 reversed $115 $-1 #
edge $-1 $182 -46.975848006269977 $183 46.975848006269977 $106 $184 forward 7 unknown #
coedge $-1 $66 $65 $185 $186 forward $26 $-1 #
coedge $-1 $187 $188 $65 $110 reversed $172 $-1 #
edge $-1 $117 -67.597277748954738 $189 67.597277748954738 $109 $190 forward 7 unknown #
coedge $-1 $103 $191 $66 $112 reversed $62 $-1 #
edge $-1 $192 -67.597277748954738 $116 67.597277748954738 $111 $193 forward 7 unknown #
coedge $-1 $106 $67 $191 $194 forward $115 $-1 #
coedge $-1 $67 $106 $187 $195 reversed $115 $-1 #
loop $-1 $-1 $113 $171 #
vertex $-1 $68 $196 #
vertex $-1 $68 $197 #
straight-curve $-1 67.597277748954738 0 20.480305620849339 0 1 0 I I #
face $-1 $198 $199 $16 $-1 $200 reversed single #
loop $-1 $-1 $201 $69 #
plane-surface $-1 0 0 20.480305620849339 0 0 1 1 0 0 forward_v I I I I #
coedge $-1 $202 $203 $204 $205 reversed $70 $-1 #
coedge $-1 $75 $72 $206 $207 reversed $45 $-1 #
coedge $-1 $72 $75 $208 $209 reversed $45 $-1 #
coedge $-1 $203 $202 $72 $126 reversed $70 $-1 #
edge $-1 $210 -20.480305620849339 $211 20.480305620849339 $125 $212 forward 7 unknown #
coedge $-1 $74 $73 $213 $214 reversed $29 $-1 #
coedge $-1 $206 $215 $73 $129 forward $199 $-1 #
edge $-1 $216 -27.867119867888878 $133 -10.350336408873321 $128 $217 forward 7 unknown #
coedge $-1 $218 $208 $74 $131 forward $120 $-1 #
edge $-1 $132 10.350336408873321 $219 27.867119867888878 $130 $220 forward 7 unknown #
vertex $-1 $131 $221 #
vertex $-1 $129 $222 #
straight-curve $-1 -36.57999332996927 -29.459064547254421 0 0 0 -1 I I #
face $-1 $223 $224 $17 $-1 $225 forward single #
loop $-1 $-1 $226 $77 #
plane-surface $-1 0 0 -20.480305620849339 0 0 1 1 0 0 forward_v I I I I #
coedge $-1 $227 $228 $143 $229 forward $78 $-1 #
coedge $-1 $83 $80 $230 $231 reversed $49 $-1 #
coedge $-1 $80 $83 $232 $233 reversed $49 $-1 #
coedge $-1 $234 $235 $80 $142 forward $236 $-1 #
edge $-1 $237 -20.480305620849339 $238 20.480305620849339 $141 $239 forward 7 unknown #
coedge $-1 $82 $81 $138 $229 reversed $32 $-1 #
coedge $-1 $230 $226 $81 $145 forward $136 $-1 #
edge $-1 $240 12.079070969524725 $149 20.184564281463512 $144 $241 forward 7 unknown #
coedge $-1 $242 $232 $82 $147 forward $224 $-1 #
edge $-1 $148 -20.184564281463512 $243 -12.079070969524725 $146 $244 forward 7 unknown #
vertex $-1 $147 $245 #
vertex $-1 $145 $246 #
straight-curve $-1 -36.316381906957631 27.239301181666427 0 0 0 -1 I I #
face $-1 $-1 $163 $18 $-1 $247 forward single #
loop $-1 $-1 $248 $85 #
plane-surface $-1 -67.597277748954738 0 0 1 0 0 0 0 -1 forward_v I I I I #
coedge $-1 $249 $250 $251 $252 reversed $86 $-1 #
coedge $-1 $253 $88 $90 $161 forward $53 $-1 #
coedge $-1 $88 $253 $249 $254 forward $53 $-1 #
coedge $-1 $251 $91 $88 $158 forward $163 $-1 #
edge $-1 $165 -18.095893982352969 $255 -4.6304471474499334 $157 $256 forward 7 unknown #
coedge $-1 $257 $258 $89 $160 forward $152 $-1 #
edge $-1 $259 -34.709894671274434 $164 -26.171912779430865 $159 $260 forward 7 unknown #
edge $-1 $165 -10.690711465381973 $259 4.6896506375148425e-014 $90 $261 forward 7 unknown #
coedge $-1 $91 $251 $257 $262 forward $163 $-1 #
loop $-1 $-1 $251 $151 #
vertex $-1 $160 $263 #
vertex $-1 $92 $264 #
straight-curve $-1 -87.784225823238245 -29.459064547254417 20.480305620849343 1 0 0 I I #
coedge $-1 $167 $167 $-1 $265 reversed $95 $-1 #
edge $-1 $266 0 $266 6.2831853071796004 $96 $267 forward 7 unknown #
vertex $-1 $99 $268 #
ellipse-curve $-1 -64.380362423266092 -22.726341129802901 16.211314674927561 -0.79863551827123203 0 0.60181501223851219 1.2036300244770244 0 1.5972710365424641 1 I I #
face $-1 $-1 $115 $15 $-1 $269 reversed single #
loop $-1 $-1 $187 $100 #
plane-surface $-1 0 46.975848006269977 0 0 -1 0 0 0 -1 forward_v I I I I #
coedge $-1 $270 $185 $188 $271 forward $101 $-1 #
coedge $-1 $191 $103 $104 $179 reversed $62 $-1 #
coedge $-1 $185 $270 $103 $177 reversed $101 $-1 #
edge $-1 $192 -20.480305620849339 $272 20.480305620849339 $176 $273 forward 7 unknown #
coedge $-1 $105 $104 $270 $274 forward $41 $-1 #
edge $-1 $183 -67.597277748954738 $272 67.597277748954738 $175 $275 forward 7 unknown #
coedge $-1 $188 $187 $105 $181 reversed $172 $-1 #
edge $-1 $276 -67.597277748954738 $182 67.597277748954738 $180 $277 forward 7 unknown #
vertex $-1 $107 $278 #
vertex $-1 $194 $279 #
straight-curve $-1 67.597277748954738 0 -20.480305620849339 0 -1 0 I I #
coedge $-1 $174 $176 $108 $186 reversed $101 $-1 #
edge $-1 $189 -46.975848006269977 $192 46.975848006269977 $185 $280 forward 7 unknown #
coedge $-1 $180 $109 $114 $195 forward $172 $-1 #
coedge $-1 $109 $180 $174 $271 reversed $172 $-1 #
vertex $-1 $110 $281 #
straight-curve $-1 0 46.975848006269977 20.480305620849339 -1 0 0 I I #
coedge $-1 $111 $175 $113 $194 reversed $62 $-1 #
vertex $-1 $186 $282 #
straight-curve $-1 0 -46.975848006269977 20.480305620849339 1 0 0 I I #
edge $-1 $116 -20.480305620849339 $183 20.480305620849339 $113 $283 forward 7 unknown #
edge $-1 $117 -20.480305620849339 $182 20.480305620849339 $114 $284 forward 7 unknown #
point $-1 67.597277748954738 -46.975848006269977 20.480305620849339 #
point $-1 67.597277748954738 46.975848006269977 20.480305620849339 #
face $-1 $-1 $285 $16 $-1 $286 reversed single #
loop $-1 $-1 $287 $119 #
plane-surface $-1 0 0 -20.480305620849339 0 0 1 1 0 0 forward_v I I I I #
coedge $-1 $208 $218 $203 $288 forward $120 $-1 #
coedge $-1 $125 $122 $287 $289 reversed $70 $-1 #
coedge $-1 $122 $125 $201 $288 reversed $70 $-1 #
coedge $-1 $290 $291 $122 $205 forward $285 $-1 #
edge $-1 $292 -20.480305620849339 $293 20.480305620849339 $204 $294 forward 7 unknown #
coedge $-1 $287 $128 $123 $207 forward $199 $-1 #
edge $-1 $133 -20.775828370662936 $211 -10.832501547949729 $206 $295 forward 7 unknown #
coedge $-1 $130 $201 $124 $209 forward $120 $-1 #
edge $-1 $210 10.832501547949729 $132 20.775828370662936 $208 $296 forward 7 unknown #
vertex $-1 $209 $297 #
vertex $-1 $207 $298 #
straight-curve $-1 -26.636666507256063 -29.459064547254421 0 0 0 -1 I I #
coedge $-1 $291 $290 $127 $214 forward $285 $-1 #
edge $-1 $219 -20.480305620849339 $216 20.480305620849339 $213 $299 forward 7 unknown #
coedge $-1 $128 $287 $291 $300 forward $199 $-1 #
vertex $-1 $129 $301 #
straight-curve $-1 -36.57999332996927 -19.1087281383811 -20.480305620849339 0 1 0 I I #
coedge $-1 $201 $130 $290 $302 forward $120 $-1 #
vertex $-1 $302 $303 #
straight-curve $-1 -36.57999332996927 -19.1087281383811 20.480305620849339 0 -1 0 I I #
point $-1 -36.57999332996927 -29.459064547254421 20.480305620849339 #
point $-1 -36.57999332996927 -29.459064547254421 -20.480305620849339 #
face $-1 $-1 $236 $17 $-1 $304 reversed single #
loop $-1 $-1 $242 $135 #
plane-surface $-1 0 0 20.480305620849339 0 0 1 1 0 0 forward_v I I I I #
coedge $-1 $144 $305 $227 $306 forward $136 $-1 #
coedge $-1 $307 $138 $226 $306 reversed $78 $-1 #
coedge $-1 $138 $307 $242 $308 reversed $78 $-1 #
edge $-1 $243 -20.480305620849339 $240 20.480305620849339 $138 $309 forward 7 unknown #
coedge $-1 $305 $144 $139 $231 forward $136 $-1 #
edge $-1 $149 8.6855138846823259 $237 28.422060709285876 $230 $310 forward 7 unknown #
coedge $-1 $146 $311 $140 $233 forward $224 $-1 #
edge $-1 $238 -28.422060709285876 $148 -8.6855138846823259 $232 $312 forward 7 unknown #
coedge $-1 $313 $141 $311 $314 reversed $236 $-1 #
coedge $-1 $141 $313 $305 $315 reversed $236 $-1 #
loop $-1 $-1 $313 $223 #
vertex $-1 $315 $316 #
vertex $-1 $142 $317 #
straight-curve $-1 -36.316381906957631 46.975848006269977 0 0 0 1 I I #
vertex $-1 $145 $318 #
straight-curve $-1 -16.131817625494119 27.239301181666427 -20.480305620849339 -1 0 0 I I #
coedge $-1 $311 $146 $228 $308 forward $224 $-1 #
vertex $-1 $147 $319 #
straight-curve $-1 -16.131817625494119 27.239301181666427 20.480305620849339 1 0 0 I I #
point $-1 -36.316381906957631 27.239301181666427 20.480305620849339 #
point $-1 -36.316381906957631 27.239301181666427 -20.480305620849339 #
plane-surface $-1 0 0 20.480305620849339 0 0 1 1 0 0 forward_v I I I I #
coedge $-1 $258 $257 $250 $320 forward $152 $-1 #
coedge $-1 $250 $154 $156 $254 reversed $86 $-1 #
coedge $-1 $154 $249 $248 $320 reversed $86 $-1 #
coedge $-1 $162 $157 $154 $252 forward $163 $-1 #
edge $-1 $255 -26.620778725660792 $321 -20.186948074283507 $251 $322 forward 7 unknown #
coedge $-1 $156 $155 $258 $323 reversed $53 $-1 #
edge $-1 $324 -4.6896506375148425e-014 $255 10.690711465381973 $249 $325 forward 7 unknown #
vertex $-1 $158 $326 #
straight-curve $-1 -61.163447097577453 -11.36317056490145 20.480305620849339 0 1 0 I I #
coedge $-1 $248 $159 $162 $262 reversed $152 $-1 #
coedge $-1 $159 $248 $253 $323 forward $152 $-1 #
vertex $-1 $160 $327 #
straight-curve $-1 -67.597277748954738 -29.459064547254417 46.652218400280205 0 0 1 I I #
straight-curve $-1 -67.59727774895471 -29.459064547254417 11.942323729005807 -0.60181501223851219 0 -0.79863551827123203 I I #
edge $-1 $321 15.993617712351384 $164 29.459064547254417 $257 $328 forward 7 unknown #
point $-1 -67.597277748954738 -29.459064547254417 20.480305620849339 #
point $-1 -61.163447097577453 -29.459064547254417 20.480305620849339 #
edge $-1 $329 1 $329 0 $167 $-1 forward 7 unknown #
vertex $-1 $168 $330 #
ellipse-curve $-1 -59.060870277700971 -22.726341129802901 12.202789938116764 -0.79863551827123203 0 0.60181501223851219 1.2036300244770244 0 1.5972710365424641 1 I I #
point $-1 -63.176732398789085 -22.726341129802901 17.808585711470037 #
plane-surface $-1 67.597277748954738 0 0 -1 0 0 0 0 1 forward_v I I I I #
coedge $-1 $176 $174 $178 $274 reversed $101 $-1 #
edge $-1 $189 -20.480305620849339 $276 20.480305620849339 $188 $331 forward 7 unknown #
vertex $-1 $274 $332 #
straight-curve $-1 -67.597277748954738 -46.975848006269977 0 0 0 -1 I I #
edge $-1 $272 -46.975848006269977 $276 46.975848006269977 $270 $333 forward 7 unknown #
straight-curve $-1 0 -46.975848006269977 -20.480305620849339 -1 0 0 I I #
vertex $-1 $181 $334 #
straight-curve $-1 0 46.975848006269977 -20.480305620849339 1 0 0 I I #
point $-1 67.597277748954738 46.975848006269977 -20.480305620849339 #
point $-1 67.597277748954738 -46.975848006269977 -20.480305620849339 #
straight-curve $-1 -67.597277748954738 0 20.480305620849339 0 -1 0 I I #
point $-1 -67.597277748954738 46.975848006269977 20.480305620849339 #
point $-1 -67.597277748954738 -46.975848006269977 20.480305620849339 #
straight-curve $-1 67.597277748954738 -46.975848006269977 0 0 0 -1 I I #
straight-curve $-1 67.597277748954738 46.975848006269977 0 0 0 -1 I I #
loop $-1 $-1 $204 $198 #
plane-surface $-1 0 -46.975848006269977 0 0 1 0 0 0 1 forward_v I I I I #
coedge $-1 $215 $206 $202 $289 forward $199 $-1 #
edge $-1 $293 -27.867119867888878 $210 -10.350336408873321 $201 $335 forward 7 unknown #
edge $-1 $211 10.350336408873321 $292 27.867119867888878 $287 $336 forward 7 unknown #
coedge $-1 $213 $204 $218 $302 reversed $285 $-1 #
coedge $-1 $204 $213 $215 $300 reversed $285 $-1 #
vertex $-1 $300 $337 #
vertex $-1 $205 $338 #
straight-curve $-1 -26.636666507256063 -46.975848006269977 0 0 0 1 I I #
straight-curve $-1 -15.804164959306334 -29.459064547254421 -20.480305620849339 1 0 0 I I #
straight-curve $-1 -15.804164959306334 -29.459064547254421 20.480305620849339 -1 0 0 I I #
point $-1 -26.636666507256063 -29.459064547254421 20.480305620849339 #
point $-1 -26.636666507256063 -29.459064547254421 -20.480305620849339 #
straight-curve $-1 -36.57999332996927 -46.975848006269977 0 0 0 -1 I I #
edge $-1 $292 26.636666507256063 $216 36.57999332996927 $291 $339 forward 7 unknown #
point $-1 -36.57999332996927 -46.975848006269977 -20.480305620849339 #
edge $-1 $219 -36.57999332996927 $293 -26.636666507256063 $290 $340 forward 7 unknown #
point $-1 -36.57999332996927 -46.975848006269977 20.480305620849339 #
plane-surface $-1 0 46.975848006269977 0 0 -1 0 0 0 -1 forward_v I I I I #
coedge $-1 $226 $230 $235 $315 forward $136 $-1 #
edge $-1 $341 -28.422060709285876 $240 -8.6855138846823259 $226 $342 forward 7 unknown #
coedge $-1 $228 $227 $313 $343 reversed $78 $-1 #
edge $-1 $243 8.6855138846823259 $344 28.422060709285876 $242 $345 forward 7 unknown #
straight-curve $-1 -28.210888595018844 27.239301181666427 0 0 0 -1 I I #
straight-curve $-1 -36.316381906957631 18.553787296984101 -20.480305620849339 0 1 0 I I #
coedge $-1 $232 $242 $234 $314 forward $224 $-1 #
straight-curve $-1 -36.316381906957631 18.553787296984101 20.480305620849339 0 -1 0 I I #
coedge $-1 $235 $234 $307 $343 forward $236 $-1 #
edge $-1 $344 28.210888595018844 $238 36.316381906957631 $234 $346 forward 7 unknown #
edge $-1 $237 -36.316381906957631 $341 -28.210888595018844 $235 $347 forward 7 unknown #
point $-1 -36.316381906957631 46.975848006269977 -20.480305620849339 #
point $-1 -36.316381906957631 46.975848006269977 20.480305620849339 #
point $-1 -28.210888595018844 27.239301181666427 -20.480305620849339 #
point $-1 -28.210888595018844 27.239301181666427 20.480305620849339 #
edge $-1 $321 26.171912779430865 $324 34.709894671274434 $248 $348 forward 7 unknown #
vertex $-1 $262 $349 #
straight-curve $-1 -87.784225823238245 -15.993617712351384 20.480305620849343 -1 0 0 I I #
edge $-1 $324 4.6304471474499334 $259 18.095893982352969 $258 $350 forward 7 unknown #
vertex $-1 $323 $351 #
straight-curve $-1 -67.59727774895471 -15.993617712351384 11.942323729005807 0.60181501223851219 0 0.79863551827123203 I I #
point $-1 -61.163447097577453 -15.993617712351384 20.480305620849339 #
point $-1 -67.597277748954738 -29.459064547254417 11.94232372900577 #
straight-curve $-1 -67.597277748954738 0 20.480305620849339 0 -1 0 I I #
vertex $-1 $265 $352 #
point $-1 -57.857240253223942 -22.726341129802901 13.800060974659228 #
straight-curve $-1 -67.597277748954738 46.975848006269977 0 0 0 -1 I I #
point $-1 -67.597277748954738 -46.975848006269977 -20.480305620849339 #
straight-curve $-1 -67.597277748954738 0 -20.480305620849339 0 1 0 I I #
point $-1 -67.597277748954738 46.975848006269977 -20.480305620849339 #
straight-curve $-1 -26.636666507256063 -19.1087281383811 20.480305620849339 0 1 0 I I #
straight-curve $-1 -26.636666507256063 -19.1087281383811 -20.480305620849339 0 -1 0 I I #
point $-1 -26.636666507256063 -46.975848006269977 -20.480305620849339 #
point $-1 -26.636666507256063 -46.975848006269977 20.480305620849339 #
straight-curve $-1 0 -46.975848006269977 -20.480305620849339 -1 0 0 I I #
straight-curve $-1 0 -46.975848006269977 20.480305620849339 1 0 0 I I #
vertex $-1 $343 $353 #
straight-curve $-1 -28.210888595018844 18.553787296984101 -20.480305620849339 0 -1 0 I I #
edge $-1 $344 -20.480305620849339 $341 20.480305620849339 $313 $354 forward 7 unknown #
vertex $-1 $314 $355 #
straight-curve $-1 -28.210888595018844 18.553787296984101 20.480305620849339 0 1 0 I I #
straight-curve $-1 0 46.975848006269977 20.480305620849339 -1 0 0 I I #
straight-curve $-1 0 46.975848006269977 -20.480305620849339 1 0 0 I I #
straight-curve $-1 -67.597277748954738 -15.993617712351384 46.652218400280205 0 0 -1 I I #
point $-1 -67.597277748954738 -15.993617712351384 20.480305620849339 #
straight-curve $-1 -67.597277748954738 -11.36317056490145 11.942323729005768 0 -1 0 I I #
point $-1 -67.597277748954738 -15.993617712351384 11.94232372900577 #
point $-1 -57.463599241158505 -22.726341129802901 10.999159913639739 #
point $-1 -28.210888595018844 46.975848006269977 -20.480305620849339 #
straight-curve $-1 -28.210888595018844 46.975848006269977 0 0 0 -1 I I #
point $-1 -28.210888595018844 46.975848006269977 20.480305620849339 #
End-of-ACIS-data 