500 0 7 0           
7 Unknown 11 ACIS 5.0 NT 24 Thu Mar 25 20:32:43 1999 
-1 9.9999999999999995e-007 1e-010 
body $-1 $7 $-1 $8 #
body $-1 $9 $-1 $10 #
body $-1 $11 $-1 $12 #
body $-1 $13 $-1 $14 #
body $-1 $15 $-1 $16 #
body $-1 $17 $-1 $18 #
body $-1 $19 $-1 $20 #
lump $-1 $-1 $21 $0 #
transform $-1 1 0 0 0 1 0 0 0 1 50.733970152897733 26.128606217176134 6.7624823110258472 1 rotate no_reflect no_shear #
lump $-1 $-1 $22 $1 #
transform $-1 1 0 0 0 1 0 0 0 1 50.733970152897733 26.128606217176134 6.7624823110258472 1 rotate no_reflect no_shear #
lump $-1 $-1 $23 $2 #
transform $-1 1 0 0 0 1 0 0 0 1 50.733970152897733 26.128606217176134 6.7624823110258472 1 rotate no_reflect no_shear #
lump $-1 $-1 $24 $3 #
transform $-1 1 0 0 0 1 0 0 0 1 50.733970152897733 26.128606217176134 6.7624823110258472 1 rotate no_reflect no_shear #
lump $-1 $-1 $25 $4 #
transform $-1 1 0 0 0 1 0 0 0 1 50.733970152897733 26.128606217176134 6.7624823110258472 1 rotate no_reflect no_shear #
lump $-1 $-1 $26 $5 #
transform $-1 1 0 0 0 1 0 0 0 1 50.733970152897733 26.128606217176134 6.7624823110258472 1 rotate no_reflect no_shear #
lump $-1 $-1 $27 $6 #
transform $-1 1 0 0 0 1 0 0 0 1 50.733970152897733 26.128606217176134 6.7624823110258472 1 rotate no_reflect no_shear #
shell $-1 $-1 $-1 $28 $-1 $7 #
shell $-1 $-1 $-1 $29 $-1 $9 #
shell $-1 $-1 $-1 $30 $-1 $11 #
shell $-1 $-1 $-1 $31 $-1 $13 #
shell $-1 $-1 $-1 $32 $-1 $15 #
shell $-1 $-1 $-1 $33 $-1 $17 #
shell $-1 $-1 $-1 $34 $-1 $19 #
face $-1 $35 $36 $21 $-1 $37 reversed single #
face $-1 $38 $39 $22 $-1 $40 forward single #
face $-1 $41 $42 $23 $-1 $43 reversed single #
face $-1 $44 $45 $24 $-1 $46 reversed single #
face $-1 $47 $48 $25 $-1 $49 forward single #
face $-1 $50 $51 $26 $-1 $52 reversed single #
face $-1 $53 $54 $27 $-1 $55 forward single #
face $-1 $56 $57 $21 $-1 $58 forward single #
loop $-1 $-1 $59 $28 #
plane-surface $-1 -50.733970152897733 0 0 1 0 0 0 0 -1 forward_v I I I I #
face $-1 $60 $61 $22 $-1 $62 reversed single #
loop $-1 $-1 $63 $29 #
plane-surface $-1 -50.733970152897733 0 0 1 0 0 0 0 -1 forward_v I I I I #
face $-1 $64 $65 $23 $-1 $66 reversed single #
loop $-1 $-1 $67 $30 #
plane-surface $-1 47.843905173907707 0 3.7624823110258472 0 0 1 1 0 0 forward_v I I I I #
face $-1 $68 $69 $24 $-1 $70 reversed single #
loop $-1 $-1 $71 $31 #
plane-surface $-1 -30.665547842137045 -88.598508827501632 83.150890885378587 -1 0 0 0 -0.61566148304635926 0.78801074757464917 forward_v I I I I #
face $-1 $72 $73 $25 $-1 $74 forward single #
loop $-1 $75 $76 $32 #
cone-surface $-1 -37.501107134591848 -23.162680596490414 4.1053624412000955 0 0.61566148304635926 -0.78801074757464917 1 0 0 1 I I 0 1 1 forward I I I I #
face $-1 $77 $78 $26 $-1 $79 reversed single #
loop $-1 $-1 $80 $33 #
plane-surface $-1 -44.336666427046652 47.419263790940441 115.32364379258055 1 0 0 0 -0.61566148304635926 -0.78801074757464917 forward_v I I I I #
face $-1 $81 $82 $27 $-1 $83 forward single #
loop $-1 $84 $85 $34 #
cone-surface $-1 -37.501107134591848 23.162680596490414 4.1053624412000955 0 -0.61566148304635926 -0.78801074757464917 1 0 0 1 I I 0 1 1 forward I I I I #
face $-1 $86 $87 $21 $-1 $88 reversed single #
loop $-1 $-1 $89 $35 #
plane-surface $-1 0 0 6.7624823110258472 0 0 1 1 0 0 forward_v I I I I #
coedge $-1 $90 $91 $92 $93 reversed $36 $-1 #
face $-1 $94 $95 $22 $-1 $96 reversed single #
loop $-1 $-1 $97 $38 #
plane-surface $-1 0 0 -6.7624823110258472 0 0 1 1 0 0 forward_v I I I I #
coedge $-1 $98 $99 $100 $101 forward $39 $-1 #
face $-1 $102 $103 $23 $-1 $104 reversed single #
loop $-1 $-1 $105 $41 #
plane-surface $-1 44.953840194917689 0 5.2624823110258472 1 0 0 0 0 -1 forward_v I I I I #
coedge $-1 $106 $107 $108 $109 reversed $42 $-1 #
face $-1 $110 $111 $24 $-1 $112 reversed single #
loop $-1 $-1 $113 $44 #
plane-surface $-1 -37.501107134591848 -26.128606217176142 3.1930633901488221 0 -0.61566148304635926 0.78801074757464917 1 0 0 forward_v I I I I #
coedge $-1 $114 $115 $116 $117 reversed $45 $-1 #
face $-1 $-1 $118 $25 $-1 $119 forward single #
loop $-1 $120 $121 $47 #
cone-surface $-1 -37.501107134591848 -22.173248127932986 2.8389466580255291 0 0.61566148304635926 -0.78801074757464917 0.5 0 0 1 I I -0.70710678118654746 0.70710678118654746 0.5 forward I I I I #
loop $-1 $-1 $122 $32 #
coedge $-1 $76 $76 $123 $124 reversed $48 $-1 #
face $-1 $125 $126 $26 $-1 $127 reversed single #
loop $-1 $-1 $128 $50 #
plane-surface $-1 -37.501107134591848 -15.05063881938505 35.36581629735079 0 0.61566148304635926 0.78801074757464917 1 0 0 forward_v I I I I #
coedge $-1 $129 $130 $131 $132 reversed $51 $-1 #
face $-1 $-1 $133 $27 $-1 $134 forward single #
loop $-1 $135 $136 $53 #
cone-surface $-1 -37.501107134591848 22.173248127932986 2.8389466580255291 0 -0.61566148304635926 -0.78801074757464917 0.5 0 0 1 I I -0.70710678118654746 0.70710678118654746 0.5 forward I I I I #
loop $-1 $-1 $137 $34 #
coedge $-1 $85 $85 $138 $139 reversed $54 $-1 #
face $-1 $140 $141 $21 $-1 $142 reversed single #
loop $-1 $-1 $143 $56 #
plane-surface $-1 0 0 -6.7624823110258472 0 0 1 1 0 0 forward_v I I I I #
coedge $-1 $144 $145 $146 $147 forward $57 $-1 #
coedge $-1 $148 $59 $149 $150 reversed $36 $-1 #
coedge $-1 $59 $148 $151 $152 forward $36 $-1 #
coedge $-1 $153 $154 $59 $93 forward $87 $-1 #
edge $-1 $155 -26.128606217176134 $156 26.128606217176134 $59 $157 forward 7 unknown #
face $-1 $158 $159 $22 $-1 $160 reversed single #
loop $-1 $-1 $161 $60 #
plane-surface $-1 -53.93262201582327 -25.628606217176134 0 0 1 0 0 0 1 forward_v I I I I #
coedge $-1 $162 $163 $99 $164 forward $61 $-1 #
coedge $-1 $165 $63 $166 $167 reversed $39 $-1 #
coedge $-1 $63 $165 $97 $164 reversed $39 $-1 #
coedge $-1 $168 $169 $63 $101 reversed $170 $-1 #
edge $-1 $171 -6.7624823110258472 $172 6.7624823110258472 $100 $173 forward 7 unknown #
face $-1 $174 $175 $23 $-1 $176 forward single #
loop $-1 $-1 $177 $64 #
plane-surface $-1 0 26.128606217176134 0 0 -1 0 0 0 -1 forward_v I I I I #
coedge $-1 $178 $179 $180 $181 reversed $65 $-1 #
coedge $-1 $182 $67 $183 $184 reversed $42 $-1 #
coedge $-1 $67 $182 $177 $185 reversed $42 $-1 #
coedge $-1 $186 $187 $67 $109 forward $188 $-1 #
edge $-1 $189 -26.128606217176134 $190 26.128606217176134 $108 $191 forward 7 unknown #
face $-1 $192 $193 $24 $-1 $194 reversed single #
loop $-1 $-1 $195 $68 #
plane-surface $-1 -44.336666427046652 -88.598508827501632 83.150890885378587 1 0 0 0 0.61566148304635926 -0.78801074757464917 forward_v I I I I #
coedge $-1 $196 $197 $198 $199 reversed $69 $-1 #
coedge $-1 $115 $71 $200 $201 reversed $45 $-1 #
coedge $-1 $71 $114 $196 $202 reversed $45 $-1 #
coedge $-1 $198 $203 $71 $117 forward $204 $-1 #
edge $-1 $205 18.170648196574682 $206 22.739295983877625 $116 $207 forward 7 unknown #
loop $-1 $-1 $123 $72 #
plane-surface $-1 -37.501107134591848 -26.128606217176142 3.1930633901488221 0 -0.61566148304635926 0.78801074757464917 1 0 0 forward_v I I I I #
loop $-1 $-1 $208 $47 #
coedge $-1 $121 $121 $122 $209 reversed $73 $-1 #
coedge $-1 $122 $122 $121 $209 forward $75 $-1 #
coedge $-1 $123 $123 $76 $124 forward $118 $-1 #
edge $-1 $210 0 $210 6.2831853071796004 $123 $211 forward 7 unknown #
face $-1 $212 $213 $26 $-1 $214 forward single #
loop $-1 $-1 $215 $77 #
plane-surface $-1 -30.665547842137045 47.419263790940441 115.32364379258055 -1 0 0 0 0.61566148304635926 0.78801074757464917 forward_v I I I I #
coedge $-1 $216 $217 $218 $219 reversed $78 $-1 #
coedge $-1 $130 $80 $220 $221 reversed $51 $-1 #
coedge $-1 $80 $129 $216 $222 reversed $51 $-1 #
coedge $-1 $218 $223 $80 $132 forward $213 $-1 #
edge $-1 $224 -2.4189743217059139 $225 2.1496734655970364 $131 $226 forward 7 unknown #
loop $-1 $-1 $138 $81 #
plane-surface $-1 -37.501107134591848 -15.05063881938505 35.36581629735079 0 0.61566148304635926 0.78801074757464917 1 0 0 forward_v I I I I #
loop $-1 $-1 $227 $53 #
coedge $-1 $136 $136 $137 $228 reversed $82 $-1 #
coedge $-1 $137 $137 $136 $228 forward $84 $-1 #
coedge $-1 $138 $138 $85 $139 forward $133 $-1 #
edge $-1 $229 5.4681724308235081e-016 $229 6.2831853071796013 $138 $230 forward 7 unknown #
face $-1 $231 $232 $21 $-1 $233 reversed single #
loop $-1 $-1 $149 $86 #
plane-surface $-1 0 -26.128606217176134 0 0 1 0 0 0 1 forward_v I I I I #
coedge $-1 $154 $153 $234 $235 forward $87 $-1 #
coedge $-1 $236 $89 $237 $238 forward $57 $-1 #
coedge $-1 $89 $236 $239 $240 forward $57 $-1 #
coedge $-1 $241 $242 $89 $147 reversed $243 $-1 #
edge $-1 $244 -26.128606217176134 $245 26.128606217176134 $146 $246 forward 7 unknown #
coedge $-1 $91 $90 $236 $247 reversed $36 $-1 #
coedge $-1 $248 $239 $90 $150 forward $141 $-1 #
edge $-1 $249 -6.7624823110258472 $155 6.7624823110258472 $90 $250 forward 7 unknown #
coedge $-1 $237 $251 $91 $152 reversed $232 $-1 #
edge $-1 $252 -6.7624823110258472 $156 6.7624823110258472 $151 $253 forward 7 unknown #
coedge $-1 $143 $92 $251 $254 forward $87 $-1 #
coedge $-1 $92 $143 $248 $255 forward $87 $-1 #
vertex $-1 $93 $256 #
vertex $-1 $254 $257 #
straight-curve $-1 -50.733970152897733 0 -6.7624823110258472 0 1 0 I I #
face $-1 $258 $170 $22 $-1 $259 reversed single #
loop $-1 $-1 $260 $94 #
plane-surface $-1 -57.131273878748807 -24.128606217176134 0 1 0 0 0 0 -1 forward_v I I I I #
coedge $-1 $261 $262 $263 $264 forward $95 $-1 #
coedge $-1 $265 $97 $261 $266 forward $61 $-1 #
coedge $-1 $97 $265 $168 $267 forward $61 $-1 #
edge $-1 $171 22.628606217176134 $268 25.628606217176134 $97 $269 forward 7 unknown #
coedge $-1 $99 $98 $270 $271 forward $39 $-1 #
coedge $-1 $272 $273 $98 $167 forward $274 $-1 #
edge $-1 $275 -25.628606217176134 $172 -22.628606217176134 $166 $276 forward 7 unknown #
coedge $-1 $277 $100 $163 $267 reversed $170 $-1 #
coedge $-1 $100 $277 $272 $278 reversed $170 $-1 #
loop $-1 $-1 $100 $158 #
vertex $-1 $164 $279 #
vertex $-1 $278 $280 #
straight-curve $-1 -50.733970152897733 -22.628606217176134 0 0 0 1 I I #
face $-1 $281 $282 $23 $-1 $283 reversed single #
loop $-1 $-1 $284 $102 #
plane-surface $-1 0 0 6.7624823110258472 0 0 1 1 0 0 forward_v I I I I #
coedge $-1 $180 $285 $107 $185 forward $103 $-1 #
coedge $-1 $286 $105 $182 $287 reversed $65 $-1 #
coedge $-1 $105 $286 $284 $288 reversed $65 $-1 #
coedge $-1 $289 $177 $105 $181 forward $103 $-1 #
edge $-1 $290 1.1312411555129236 $291 4.1312411555129236 $180 $292 forward 7 unknown #
coedge $-1 $107 $106 $178 $287 forward $42 $-1 #
coedge $-1 $293 $294 $106 $184 forward $282 $-1 #
edge $-1 $295 21.031887607963835 $189 26.812017565943872 $183 $296 forward 7 unknown #
edge $-1 $190 -26.812017565943872 $290 -21.031887607963835 $177 $297 forward 7 unknown #
coedge $-1 $298 $108 $285 $299 reversed $188 $-1 #
coedge $-1 $108 $298 $293 $300 forward $188 $-1 #
loop $-1 $-1 $108 $281 #
vertex $-1 $184 $301 #
vertex $-1 $185 $302 #
straight-curve $-1 50.733970152897733 0 3.7624823110258472 0 1 0 I I #
face $-1 $-1 $204 $24 $-1 $303 forward single #
loop $-1 $-1 $304 $110 #
plane-surface $-1 0 -26.128606217176134 0 0 1 0 0 0 1 forward_v I I I I #
coedge $-1 $305 $306 $307 $308 reversed $111 $-1 #
coedge $-1 $309 $113 $115 $202 forward $69 $-1 #
coedge $-1 $113 $309 $305 $310 forward $69 $-1 #
coedge $-1 $307 $116 $113 $199 forward $204 $-1 #
edge $-1 $206 11.914994274841121 $311 25.586112859750727 $198 $312 forward 7 unknown #
coedge $-1 $313 $314 $114 $201 forward $193 $-1 #
edge $-1 $315 -38.382382052540464 $205 -34.812963131663444 $200 $316 forward 7 unknown #
edge $-1 $206 -5.7976973047187492 $315 -9.1534652039358102e-015 $115 $317 forward 7 unknown #
coedge $-1 $116 $307 $313 $318 forward $204 $-1 #
loop $-1 $-1 $307 $192 #
vertex $-1 $201 $319 #
vertex $-1 $117 $320 #
straight-curve $-1 -30.665547842137045 -44.299254413750816 6.762482311025849 0 1 0 I I #
coedge $-1 $208 $208 $-1 $321 reversed $120 $-1 #
edge $-1 $322 0 $322 6.2831853071796004 $121 $323 forward 7 unknown #
vertex $-1 $124 $324 #
ellipse-curve $-1 -37.501107134591848 -23.844282323524663 4.9777728505873373 0 -0.61566148304635926 0.78801074757464917 1 0 0 1 I I #
face $-1 $-1 $325 $26 $-1 $326 reversed single #
loop $-1 $-1 $131 $125 #
plane-surface $-1 0 0 6.7624823110258472 0 0 1 1 0 0 forward_v I I I I #
coedge $-1 $327 $328 $329 $330 reversed $126 $-1 #
coedge $-1 $331 $128 $130 $222 forward $78 $-1 #
coedge $-1 $128 $331 $327 $332 forward $78 $-1 #
coedge $-1 $329 $131 $128 $219 forward $213 $-1 #
edge $-1 $225 -25.586112859750727 $333 -11.914994274841121 $218 $334 forward 7 unknown #
coedge $-1 $335 $336 $129 $221 forward $325 $-1 #
edge $-1 $337 -54.468758506141448 $224 -50.899339585264428 $220 $338 forward 7 unknown #
edge $-1 $225 46.459515129633516 $337 52.257212434352269 $130 $339 forward 7 unknown #
coedge $-1 $131 $329 $335 $340 forward $213 $-1 #
vertex $-1 $132 $341 #
vertex $-1 $132 $342 #
straight-curve $-1 -44.336666427046652 23.709631895470221 6.762482311025849 0 -1 0 I I #
coedge $-1 $227 $227 $-1 $343 reversed $135 $-1 #
edge $-1 $344 0 $344 6.2831853071796004 $136 $345 forward 7 unknown #
vertex $-1 $139 $346 #
ellipse-curve $-1 -37.501107134591848 23.844282323524663 4.9777728505873382 0 0.61566148304635926 0.78801074757464917 1 0 0 1 I I #
face $-1 $-1 $243 $21 $-1 $347 reversed single #
loop $-1 $-1 $348 $140 #
plane-surface $-1 0 26.128606217176134 0 0 -1 0 0 0 -1 forward_v I I I I #
coedge $-1 $242 $241 $143 $235 reversed $243 $-1 #
edge $-1 $349 -26.128606217176134 $350 26.128606217176134 $234 $351 forward 7 unknown #
coedge $-1 $145 $144 $148 $247 forward $57 $-1 #
coedge $-1 $348 $151 $144 $238 reversed $232 $-1 #
edge $-1 $245 -50.733970152897733 $252 50.733970152897733 $237 $352 forward 7 unknown #
coedge $-1 $149 $353 $145 $240 reversed $141 $-1 #
edge $-1 $249 -50.733970152897733 $244 50.733970152897733 $239 $354 forward 7 unknown #
coedge $-1 $234 $146 $353 $355 forward $243 $-1 #
coedge $-1 $146 $234 $348 $356 reversed $243 $-1 #
loop $-1 $-1 $241 $231 #
vertex $-1 $147 $357 #
vertex $-1 $147 $358 #
straight-curve $-1 50.733970152897733 0 6.7624823110258472 0 1 0 I I #
edge $-1 $252 -26.128606217176134 $249 26.128606217176134 $148 $359 forward 7 unknown #
coedge $-1 $353 $149 $154 $255 reversed $141 $-1 #
vertex $-1 $247 $360 #
straight-curve $-1 -50.733970152897733 -26.128606217176134 0 0 0 -1 I I #
coedge $-1 $151 $348 $153 $254 reversed $232 $-1 #
vertex $-1 $238 $361 #
straight-curve $-1 -50.733970152897733 26.128606217176134 0 0 0 -1 I I #
edge $-1 $156 -50.733970152897733 $349 50.733970152897733 $251 $362 forward 7 unknown #
edge $-1 $350 -50.733970152897733 $155 50.733970152897733 $248 $363 forward 7 unknown #
point $-1 -50.733970152897733 -26.128606217176134 -6.7624823110258472 #
point $-1 -50.733970152897733 26.128606217176134 -6.7624823110258472 #
face $-1 $-1 $274 $22 $-1 $364 forward single #
plane-surface $-1 -53.93262201582327 -22.628606217176134 0 0 -1 0 0 0 -1 forward_v I I I I #
coedge $-1 $365 $366 $277 $367 forward $159 $-1 #
coedge $-1 $270 $161 $162 $266 reversed $95 $-1 #
coedge $-1 $161 $270 $273 $368 reversed $95 $-1 #
coedge $-1 $366 $365 $161 $264 reversed $159 $-1 #
edge $-1 $369 -6.7624823110258472 $370 6.7624823110258472 $263 $371 forward 7 unknown #
coedge $-1 $163 $162 $365 $372 forward $61 $-1 #
edge $-1 $268 -3.1986518629255372 $370 3.1986518629255372 $261 $373 forward 7 unknown #
edge $-1 $374 -3.1986518629255372 $171 3.1986518629255372 $168 $375 forward 7 unknown #
vertex $-1 $266 $376 #
straight-curve $-1 -50.733970152897733 0 -6.7624823110258472 0 -1 0 I I #
coedge $-1 $262 $261 $165 $271 reversed $95 $-1 #
edge $-1 $275 -6.7624823110258472 $268 6.7624823110258472 $270 $377 forward 7 unknown #
coedge $-1 $378 $166 $169 $278 forward $274 $-1 #
coedge $-1 $166 $378 $262 $368 forward $274 $-1 #
loop $-1 $-1 $166 $258 #
vertex $-1 $167 $379 #
straight-curve $-1 -50.733970152897733 0 6.7624823110258472 0 1 0 I I #
coedge $-1 $169 $168 $260 $367 reversed $170 $-1 #
edge $-1 $172 -3.1986518629255372 $380 3.1986518629255372 $169 $381 forward 7 unknown #
point $-1 -50.733970152897733 -22.628606217176134 -6.7624823110258472 #
point $-1 -50.733970152897733 -22.628606217176134 6.7624823110258472 #
face $-1 $-1 $188 $23 $-1 $382 reversed single #
loop $-1 $-1 $183 $174 #
plane-surface $-1 0 -26.128606217176134 0 0 1 0 0 0 1 forward_v I I I I #
coedge $-1 $383 $384 $179 $288 forward $175 $-1 #
coedge $-1 $177 $289 $186 $299 forward $103 $-1 #
coedge $-1 $179 $178 $294 $385 reversed $65 $-1 #
edge $-1 $295 -26.128606217176134 $290 26.128606217176134 $178 $386 forward 7 unknown #
edge $-1 $291 -26.128606217176134 $387 26.128606217176134 $284 $388 forward 7 unknown #
coedge $-1 $285 $180 $384 $389 reversed $103 $-1 #
vertex $-1 $185 $390 #
vertex $-1 $288 $391 #
straight-curve $-1 44.953840194917689 26.128606217176134 2.6312411555129236 0 0 1 I I #
coedge $-1 $392 $183 $187 $300 reversed $282 $-1 #
coedge $-1 $183 $392 $286 $385 forward $282 $-1 #
vertex $-1 $184 $393 #
straight-curve $-1 23.921952586953854 -26.128606217176134 3.7624823110258472 1 0 0 I I #
straight-curve $-1 23.921952586953854 26.128606217176134 3.7624823110258472 -1 0 0 I I #
coedge $-1 $187 $186 $394 $395 reversed $188 $-1 #
edge $-1 $396 -6.7624823110258472 $190 -3.7624823110258472 $186 $397 forward 7 unknown #
edge $-1 $398 -6.7624823110258472 $189 -3.7624823110258472 $187 $399 forward 7 unknown #
point $-1 50.733970152897726 -26.128606217176134 3.7624823110258472 #
point $-1 50.733970152897726 26.128606217176134 3.7624823110258472 #
plane-surface $-1 0 0 6.7624823110258472 0 0 1 1 0 0 forward_v I I I I #
coedge $-1 $314 $313 $306 $400 forward $193 $-1 #
coedge $-1 $306 $195 $197 $310 reversed $111 $-1 #
coedge $-1 $195 $305 $304 $400 reversed $111 $-1 #
coedge $-1 $203 $198 $195 $308 forward $204 $-1 #
edge $-1 $311 -22.739295983877625 $401 -18.170648196574682 $307 $402 forward 7 unknown #
coedge $-1 $197 $196 $314 $403 reversed $69 $-1 #
edge $-1 $404 9.1534652039358102e-015 $311 5.7976973047187492 $305 $405 forward 7 unknown #
vertex $-1 $199 $406 #
straight-curve $-1 -18.750553567295924 -21.559958429873191 6.7624823110258472 -1 0 0 I I #
coedge $-1 $304 $200 $203 $318 reversed $193 $-1 #
coedge $-1 $200 $304 $309 $403 forward $193 $-1 #
vertex $-1 $201 $407 #
straight-curve $-1 -30.665547842137045 -26.128606217176134 41.575445442689293 0 0 1 I I #
straight-curve $-1 -30.665547842137045 -26.128606217176142 3.1930633901488221 0 -0.78801074757464917 -0.61566148304635926 I I #
edge $-1 $401 -44.336666427046652 $205 -30.665547842137045 $313 $408 forward 7 unknown #
point $-1 -30.665547842137045 -26.128606217176134 6.7624823110258472 #
point $-1 -30.665547842137045 -21.559958429873191 6.7624823110258472 #
edge $-1 $409 1 $409 0 $208 $-1 forward 7 unknown #
vertex $-1 $209 $410 #
ellipse-curve $-1 -37.501107134591848 -22.481078869456166 3.2329520318128537 0 -0.61566148304635926 0.78801074757464917 1 0 0 1 I I #
point $-1 -36.501107134591848 -23.844282323524663 4.9777728505873373 #
loop $-1 $-1 $220 $212 #
plane-surface $-1 0 26.128606217176134 0 0 -1 0 0 0 -1 forward_v I I I I #
coedge $-1 $328 $215 $217 $332 reversed $126 $-1 #
coedge $-1 $215 $327 $411 $412 reversed $126 $-1 #
coedge $-1 $223 $218 $215 $330 forward $213 $-1 #
edge $-1 $333 -2.1496734655970364 $413 2.4189743217059139 $329 $414 forward 7 unknown #
coedge $-1 $217 $216 $336 $415 reversed $78 $-1 #
edge $-1 $416 -52.257212434352269 $333 -46.459515129633516 $327 $417 forward 7 unknown #
vertex $-1 $219 $418 #
straight-curve $-1 -18.750553567295924 21.559958429873188 6.762482311025849 1 0 0 I I #
coedge $-1 $411 $220 $223 $340 reversed $325 $-1 #
coedge $-1 $220 $411 $331 $415 forward $325 $-1 #
vertex $-1 $221 $419 #
straight-curve $-1 -44.336666427046652 26.128606217176134 57.661821896290277 0 0 1 I I #
straight-curve $-1 -44.336666427046652 -15.05063881938505 35.36581629735079 0 0.78801074757464917 -0.61566148304635926 I I #
edge $-1 $413 30.665547842137045 $224 44.336666427046652 $335 $420 forward 7 unknown #
point $-1 -44.336666427046652 26.128606217176134 6.7624823110258472 #
point $-1 -44.336666427046652 21.559958429873184 6.762482311025849 #
edge $-1 $421 1 $421 0 $227 $-1 forward 7 unknown #
vertex $-1 $228 $422 #
ellipse-curve $-1 -37.501107134591848 22.481078869456166 3.2329520318128537 0 0.61566148304635926 0.78801074757464917 1 0 0 1 I I #
point $-1 -36.501107134591848 23.844282323524663 4.9777728505873373 #
plane-surface $-1 50.733970152897733 0 0 -1 0 0 0 0 1 forward_v I I I I #
coedge $-1 $251 $237 $242 $356 forward $232 $-1 #
vertex $-1 $235 $423 #
vertex $-1 $355 $424 #
straight-curve $-1 50.733970152897733 0 -6.7624823110258472 0 -1 0 I I #
straight-curve $-1 0 26.128606217176134 6.7624823110258472 -1 0 0 I I #
coedge $-1 $239 $248 $241 $355 reversed $141 $-1 #
straight-curve $-1 0 -26.128606217176134 6.7624823110258472 1 0 0 I I #
edge $-1 $244 -6.7624823110258472 $350 6.7624823110258472 $241 $425 forward 7 unknown #
edge $-1 $245 -6.7624823110258472 $349 6.7624823110258472 $242 $426 forward 7 unknown #
point $-1 50.733970152897733 -26.128606217176134 6.7624823110258472 #
point $-1 50.733970152897733 26.128606217176134 6.7624823110258472 #
straight-curve $-1 -50.733970152897733 0 6.7624823110258472 0 -1 0 I I #
point $-1 -50.733970152897733 -26.128606217176134 6.7624823110258472 #
point $-1 -50.733970152897733 26.128606217176134 6.7624823110258472 #
straight-curve $-1 0 26.128606217176134 -6.7624823110258472 1 0 0 I I #
straight-curve $-1 0 -26.128606217176134 -6.7624823110258472 -1 0 0 I I #
plane-surface $-1 0 0 6.7624823110258472 0 0 1 1 0 0 forward_v I I I I #
coedge $-1 $263 $260 $265 $372 reversed $159 $-1 #
coedge $-1 $260 $263 $378 $427 reversed $159 $-1 #
edge $-1 $380 -6.7624823110258472 $374 6.7624823110258472 $277 $428 forward 7 unknown #
edge $-1 $369 -3.1986518629255372 $275 3.1986518629255372 $262 $429 forward 7 unknown #
vertex $-1 $427 $430 #
vertex $-1 $372 $431 #
straight-curve $-1 -57.131273878748807 -25.628606217176134 0 0 0 -1 I I #
edge $-1 $370 -1.5 $374 1.5 $365 $432 forward 7 unknown #
straight-curve $-1 -53.93262201582327 -25.628606217176134 -6.7624823110258472 -1 0 0 I I #
vertex $-1 $267 $433 #
straight-curve $-1 -53.93262201582327 -22.628606217176134 -6.7624823110258472 1 0 0 I I #
point $-1 -50.733970152897733 -25.628606217176134 -6.7624823110258472 #
straight-curve $-1 -50.733970152897733 -25.628606217176134 0 0 0 -1 I I #
coedge $-1 $273 $272 $366 $427 forward $274 $-1 #
point $-1 -50.733970152897733 -25.628606217176134 6.7624823110258472 #
vertex $-1 $278 $434 #
straight-curve $-1 -53.93262201582327 -22.628606217176134 6.7624823110258472 -1 0 0 I I #
plane-surface $-1 50.733970152897733 0 0 -1 0 0 0 0 1 forward_v I I I I #
coedge $-1 $394 $284 $392 $435 forward $175 $-1 #
coedge $-1 $284 $394 $289 $389 forward $175 $-1 #
edge $-1 $387 -4.1312411555129236 $295 -1.1312411555129236 $294 $436 forward 7 unknown #
straight-curve $-1 44.953840194917689 0 3.7624823110258472 0 1 0 I I #
vertex $-1 $435 $437 #
straight-curve $-1 44.953840194917689 0 6.7624823110258472 0 -1 0 I I #
edge $-1 $396 -50.733970152897733 $291 -44.953840194917689 $289 $438 forward 7 unknown #
point $-1 44.953840194917689 26.128606217176134 3.7624823110258472 #
point $-1 44.953840194917689 26.128606217176134 6.7624823110258472 #
coedge $-1 $294 $293 $383 $435 reversed $282 $-1 #
point $-1 44.953840194917689 -26.128606217176134 3.7624823110258472 #
coedge $-1 $384 $383 $298 $395 forward $175 $-1 #
edge $-1 $398 -26.128606217176134 $396 26.128606217176134 $298 $439 forward 7 unknown #
vertex $-1 $395 $440 #
straight-curve $-1 50.733970152897733 26.128606217176134 0 0 0 -1 I I #
vertex $-1 $395 $441 #
straight-curve $-1 50.733970152897733 -26.128606217176134 0 0 0 -1 I I #
edge $-1 $401 34.812963131663444 $404 38.382382052540464 $304 $442 forward 7 unknown #
vertex $-1 $318 $443 #
straight-curve $-1 -44.336666427046652 -44.299254413750816 6.762482311025849 0 -1 0 I I #
edge $-1 $404 -25.586112859750727 $315 -11.914994274841121 $314 $444 forward 7 unknown #
vertex $-1 $403 $445 #
straight-curve $-1 -44.336666427046652 -26.128606217176142 3.1930633901488221 0 0.78801074757464917 0.61566148304635926 I I #
point $-1 -44.336666427046652 -21.559958429873191 6.7624823110258472 #
point $-1 -30.665547842137045 -26.128606217176134 3.1930633901488279 #
straight-curve $-1 0 -26.128606217176134 6.7624823110258472 1 0 0 I I #
vertex $-1 $321 $446 #
point $-1 -36.501107134591848 -22.481078869456166 3.2329520318128537 #
coedge $-1 $336 $335 $328 $412 forward $325 $-1 #
edge $-1 $413 50.899339585264428 $416 54.468758506141448 $411 $447 forward 7 unknown #
vertex $-1 $340 $448 #
straight-curve $-1 -30.665547842137045 23.709631895470221 6.762482311025849 0 1 0 I I #
edge $-1 $416 11.914994274841121 $337 25.586112859750727 $336 $449 forward 7 unknown #
vertex $-1 $415 $450 #
straight-curve $-1 -30.665547842137045 -15.05063881938505 35.36581629735079 0 -0.78801074757464917 0.61566148304635926 I I #
point $-1 -30.665547842137045 21.559958429873184 6.762482311025849 #
point $-1 -44.336666427046652 26.128606217176134 3.1930633901488292 #
straight-curve $-1 0 26.128606217176134 6.7624823110258472 -1 0 0 I I #
vertex $-1 $343 $451 #
point $-1 -36.501107134591848 22.481078869456166 3.2329520318128537 #
point $-1 50.733970152897733 26.128606217176134 -6.7624823110258472 #
point $-1 50.733970152897733 -26.128606217176134 -6.7624823110258472 #
straight-curve $-1 50.733970152897733 -26.128606217176134 0 0 0 -1 I I #
straight-curve $-1 50.733970152897733 26.128606217176134 0 0 0 -1 I I #
edge $-1 $380 -1.5 $369 1.5 $366 $452 forward 7 unknown #
straight-curve $-1 -57.131273878748807 -22.628606217176134 0 0 0 -1 I I #
straight-curve $-1 -53.93262201582327 -25.628606217176134 6.7624823110258472 1 0 0 I I #
point $-1 -57.131273878748807 -25.628606217176134 6.7624823110258472 #
point $-1 -57.131273878748807 -25.628606217176134 -6.7624823110258472 #
straight-curve $-1 -57.131273878748807 -24.128606217176134 -6.7624823110258472 0 1 0 I I #
point $-1 -57.131273878748807 -22.628606217176134 -6.7624823110258472 #
point $-1 -57.131273878748807 -22.628606217176134 6.7624823110258472 #
edge $-1 $387 44.953840194917689 $398 50.733970152897733 $392 $453 forward 7 unknown #
straight-curve $-1 44.953840194917689 -26.128606217176134 2.6312411555129236 0 0 -1 I I #
point $-1 44.953840194917689 -26.128606217176134 6.7624823110258472 #
straight-curve $-1 0 26.128606217176134 6.7624823110258472 -1 0 0 I I #
straight-curve $-1 50.733970152897733 0 6.7624823110258472 0 1 0 I I #
point $-1 50.733970152897733 26.128606217176134 6.7624823110258472 #
point $-1 50.733970152897733 -26.128606217176134 6.7624823110258472 #
straight-curve $-1 -44.336666427046652 -26.128606217176134 41.575445442689293 0 0 -1 I I #
point $-1 -44.336666427046652 -26.128606217176134 6.7624823110258472 #
straight-curve $-1 -18.750553567295924 -26.128606217176134 3.1930633901488283 1 0 0 I I #
point $-1 -44.336666427046652 -26.128606217176134 3.1930633901488279 #
point $-1 -37.501107134591848 -21.865417386409806 2.4449412842382046 #
straight-curve $-1 -30.665547842137045 26.128606217176134 57.661821896290277 0 0 -1 I I #
point $-1 -30.665547842137045 26.128606217176134 6.7624823110258472 #
straight-curve $-1 -18.750553567295924 26.128606217176134 3.1930633901488257 -1 0 0 I I #
point $-1 -30.665547842137045 26.128606217176134 3.1930633901488292 #
point $-1 -37.501107134591848 21.865417386409806 2.4449412842382046 #
straight-curve $-1 -57.131273878748807 -24.128606217176134 6.7624823110258472 0 -1 0 I I #
straight-curve $-1 0 -26.128606217176134 6.7624823110258472 1 0 0 I I #
End-of-ACIS-data 