500 0 10 0           
7 Unknown 11 ACIS 5.0 NT 24 Fri Mar 26 00:29:24 1999 
-1 9.9999999999999995e-007 1e-010 
body $-1 $10 $-1 $11 #
body $-1 $12 $-1 $13 #
body $-1 $14 $-1 $15 #
body $-1 $16 $-1 $17 #
body $-1 $18 $-1 $19 #
body $-1 $20 $-1 $21 #
body $-1 $22 $-1 $23 #
body $-1 $24 $-1 $25 #
body $-1 $26 $-1 $27 #
body $-1 $28 $-1 $29 #
lump $-1 $-1 $30 $0 #
transform $-1 1 0 0 0 1 0 0 0 1 67.703482161931205 44.37742481244269 19.867115018194085 1 rotate no_reflect no_shear #
lump $-1 $-1 $31 $1 #
transform $-1 1 0 0 0 1 0 0 0 1 67.703482161931205 44.37742481244269 19.867115018194085 1 rotate no_reflect no_shear #
lump $-1 $-1 $32 $2 #
transform $-1 1 0 0 0 1 0 0 0 1 67.703482161931205 44.37742481244269 19.867115018194085 1 rotate no_reflect no_shear #
lump $-1 $-1 $33 $3 #
transform $-1 1 0 0 0 1 0 0 0 1 67.703482161931205 44.37742481244269 19.867115018194085 1 rotate no_reflect no_shear #
lump $-1 $-1 $34 $4 #
transform $-1 1 0 0 0 1 0 0 0 1 67.703482161931205 44.37742481244269 19.867115018194085 1 rotate no_reflect no_shear #
lump $-1 $-1 $35 $5 #
transform $-1 1 0 0 0 1 0 0 0 1 67.703482161931205 44.37742481244269 19.867115018194085 1 rotate no_reflect no_shear #
lump $-1 $-1 $36 $6 #
transform $-1 1 0 0 0 1 0 0 0 1 67.703482161931205 44.37742481244269 19.867115018194085 1 rotate no_reflect no_shear #
lump $-1 $-1 $37 $7 #
transform $-1 1 0 0 0 1 0 0 0 1 67.703482161931205 44.37742481244269 19.867115018194085 1 rotate no_reflect no_shear #
lump $-1 $-1 $38 $8 #
transform $-1 1 0 0 0 1 0 0 0 1 67.703482161931205 44.37742481244269 19.867115018194085 1 rotate no_reflect no_shear #
lump $-1 $-1 $39 $9 #
transform $-1 1 0 0 0 1 0 0 0 1 67.703482161931205 44.37742481244269 19.867115018194085 1 rotate no_reflect no_shear #
shell $-1 $-1 $-1 $40 $-1 $10 #
shell $-1 $-1 $-1 $41 $-1 $12 #
shell $-1 $-1 $-1 $42 $-1 $14 #
shell $-1 $-1 $-1 $43 $-1 $16 #
shell $-1 $-1 $-1 $44 $-1 $18 #
shell $-1 $-1 $-1 $45 $-1 $20 #
shell $-1 $-1 $-1 $46 $-1 $22 #
shell $-1 $-1 $-1 $47 $-1 $24 #
shell $-1 $-1 $-1 $48 $-1 $26 #
shell $-1 $-1 $-1 $49 $-1 $28 #
face $-1 $50 $51 $30 $-1 $52 forward single #
face $-1 $53 $54 $31 $-1 $55 forward single #
face $-1 $56 $57 $32 $-1 $58 forward single #
face $-1 $59 $60 $33 $-1 $61 reversed single #
face $-1 $62 $63 $34 $-1 $64 forward single #
face $-1 $65 $66 $35 $-1 $67 reversed single #
face $-1 $68 $69 $36 $-1 $70 forward single #
face $-1 $71 $72 $37 $-1 $73 reversed single #
face $-1 $74 $75 $38 $-1 $76 forward single #
face $-1 $77 $78 $39 $-1 $79 forward single #
face $-1 $80 $81 $30 $-1 $82 reversed single #
loop $-1 $-1 $83 $40 #
plane-surface $-1 0 0 19.867115018194085 0 0 1 1 0 0 forward_v I I I I #
face $-1 $84 $85 $31 $-1 $86 reversed single #
loop $-1 $-1 $87 $41 #
plane-surface $-1 -67.703482161931205 0 0 1 0 0 0 0 -1 forward_v I I I I #
face $-1 $88 $89 $32 $-1 $90 reversed single #
loop $-1 $-1 $91 $42 #
plane-surface $-1 67.703482161931205 0 0 -1 0 0 0 0 1 forward_v I I I I #
face $-1 $92 $93 $33 $-1 $94 reversed single #
loop $-1 $-1 $95 $43 #
plane-surface $-1 -35.5237725865288 52.163461321025203 168.35675022256922 1 0 0 0 -0.5877852598018023 -0.80901698891910034 forward_v I I I I #
face $-1 $96 $97 $34 $-1 $98 forward single #
loop $-1 $99 $100 $44 #
cone-surface $-1 -26.519843341049246 33.108197889053081 10.271063773653951 0 -0.5877852598018023 -0.80901698891910034 3 0 0 1 I I 0 1 3 forward I I I I #
face $-1 $101 $102 $35 $-1 $103 reversed single #
loop $-1 $-1 $104 $45 #
plane-surface $-1 17.515914095569698 52.163461321025203 168.35675022256922 1 0 0 0 -0.5877852598018023 -0.80901698891910034 forward_v I I I I #
face $-1 $105 $106 $36 $-1 $107 forward single #
loop $-1 $108 $109 $46 #
cone-surface $-1 26.519843341049253 33.108197889053081 10.271063773653951 0 -0.5877852598018023 -0.80901698891910034 3 0 0 1 I I 0 1 3 forward I I I I #
face $-1 $110 $111 $37 $-1 $112 reversed single #
loop $-1 $-1 $113 $47 #
plane-surface $-1 -20.381976972434472 -161.64329681361824 72.665244368339913 -1 0 0 0 -0.86602541151947299 0.49999998660252726 forward_v I I I I #
face $-1 $114 $115 $38 $-1 $116 forward single #
loop $-1 $117 $118 $48 #
cone-surface $-1 -28.786999496653401 -38.887050344891435 11.728795444586254 0 0.86602541151947299 -0.49999998660252726 1 0 0 1 I I 0 1 1 forward I I I I #
face $-1 $119 $120 $39 $-1 $121 forward single #
loop $-1 $122 $123 $49 #
cone-surface $-1 -23.743985982122041 -38.887050344891435 11.728795444586254 0 0.86602541151947299 -0.49999998660252726 1 0 0 1 I I 0 1 1 forward I I I I #
face $-1 $124 $125 $30 $-1 $126 reversed single #
loop $-1 $-1 $127 $50 #
plane-surface $-1 0 0 -19.867115018194085 0 0 1 1 0 0 forward_v I I I I #
coedge $-1 $128 $129 $130 $131 forward $51 $-1 #
face $-1 $132 $133 $31 $-1 $134 forward single #
loop $-1 $-1 $135 $53 #
plane-surface $-1 0 44.37742481244269 0 0 -1 0 0 0 -1 forward_v I I I I #
coedge $-1 $136 $137 $138 $139 forward $54 $-1 #
face $-1 $140 $141 $32 $-1 $142 forward single #
loop $-1 $-1 $143 $56 #
plane-surface $-1 0 -44.37742481244269 0 0 1 0 0 0 1 forward_v I I I I #
coedge $-1 $144 $145 $146 $147 forward $57 $-1 #
face $-1 $148 $149 $33 $-1 $150 reversed single #
loop $-1 $-1 $151 $59 #
plane-surface $-1 -26.519843341049246 -27.426756383049643 58.810215666602005 0 0.5877852598018023 0.80901698891910034 1 0 0 forward_v I I I I #
coedge $-1 $152 $153 $154 $155 reversed $60 $-1 #
face $-1 $-1 $156 $34 $-1 $157 forward single #
loop $-1 $158 $159 $62 #
cone-surface $-1 -26.519843341049246 30.059094367054392 6.0743328942477817 0 -0.5877852598018023 -0.80901698891910034 1.5 0 0 1 I I -0.70710678118654757 0.70710678118654757 1.5 forward I I I I #
loop $-1 $-1 $160 $44 #
coedge $-1 $100 $100 $161 $162 reversed $63 $-1 #
face $-1 $163 $164 $35 $-1 $165 reversed single #
loop $-1 $-1 $166 $65 #
plane-surface $-1 26.519843341049253 -27.426756383049643 58.810215666602005 0 0.5877852598018023 0.80901698891910034 1 0 0 forward_v I I I I #
coedge $-1 $167 $168 $169 $170 reversed $66 $-1 #
face $-1 $-1 $171 $36 $-1 $172 forward single #
loop $-1 $173 $174 $68 #
cone-surface $-1 26.519843341049253 30.059094367054392 6.0743328942477817 0 -0.5877852598018023 -0.80901698891910034 1.5 0 0 1 I I -0.70710678118654757 0.70710678118654757 1.5 forward I I I I #
loop $-1 $-1 $175 $46 #
coedge $-1 $109 $109 $176 $177 reversed $69 $-1 #
face $-1 $178 $179 $37 $-1 $180 reversed single #
loop $-1 $-1 $181 $71 #
plane-surface $-1 -26.265492739387724 -44.377424812442698 4.9617640205198228 0 -0.86602541151947299 0.49999998660252726 1 0 0 forward_v I I I I #
coedge $-1 $182 $183 $184 $185 reversed $72 $-1 #
face $-1 $-1 $186 $38 $-1 $187 forward single #
loop $-1 $188 $189 $74 #
cone-surface $-1 -28.786999496653401 -37.266467223292459 10.793151376514295 0 0.86602541151947299 -0.49999998660252726 0.5 0 0 1 I I -0.70710678118654746 0.70710678118654746 0.5 forward I I I I #
loop $-1 $-1 $190 $48 #
coedge $-1 $118 $118 $191 $192 reversed $75 $-1 #
face $-1 $-1 $193 $39 $-1 $194 forward single #
loop $-1 $195 $196 $77 #
cone-surface $-1 -23.743985982122041 -37.266467223292459 10.793151376514295 0 0.86602541151947299 -0.49999998660252726 0.5 0 0 1 I I -0.70710678118654746 0.70710678118654746 0.5 forward I I I I #
loop $-1 $-1 $197 $49 #
coedge $-1 $123 $123 $198 $199 reversed $78 $-1 #
face $-1 $200 $201 $30 $-1 $202 reversed single #
loop $-1 $-1 $203 $80 #
plane-surface $-1 0 -44.37742481244269 0 0 1 0 0 0 1 forward_v I I I I #
coedge $-1 $204 $205 $206 $207 forward $81 $-1 #
coedge $-1 $208 $83 $209 $210 forward $51 $-1 #
coedge $-1 $83 $208 $211 $212 forward $51 $-1 #
coedge $-1 $213 $214 $83 $131 reversed $215 $-1 #
edge $-1 $216 -44.37742481244269 $217 44.37742481244269 $130 $218 forward 7 unknown #
face $-1 $219 $220 $31 $-1 $221 reversed single #
loop $-1 $-1 $138 $84 #
plane-surface $-1 -75.935932726517123 0 1.1221827824802872 0 0 1 1 0 0 forward_v I I I I #
coedge $-1 $222 $223 $137 $224 forward $85 $-1 #
coedge $-1 $225 $87 $226 $227 reversed $54 $-1 #
coedge $-1 $87 $225 $135 $224 reversed $54 $-1 #
coedge $-1 $228 $229 $87 $139 reversed $133 $-1 #
edge $-1 $230 -44.37742481244269 $231 44.37742481244269 $138 $232 forward 7 unknown #
face $-1 $233 $234 $32 $-1 $235 reversed single #
loop $-1 $-1 $236 $88 #
plane-surface $-1 75.935932726517123 0 1.1221827824802872 0 0 1 1 0 0 forward_v I I I I #
coedge $-1 $237 $238 $145 $239 forward $89 $-1 #
coedge $-1 $240 $91 $241 $242 reversed $57 $-1 #
coedge $-1 $91 $240 $143 $239 reversed $57 $-1 #
coedge $-1 $243 $244 $91 $147 reversed $141 $-1 #
edge $-1 $245 -44.37742481244269 $246 44.37742481244269 $146 $247 forward 7 unknown #
face $-1 $248 $249 $33 $-1 $250 reversed single #
loop $-1 $-1 $251 $92 #
plane-surface $-1 -17.515914095569691 52.163461321025203 168.35675022256922 -1 0 0 0 0.5877852598018023 0.80901698891910034 forward_v I I I I #
coedge $-1 $252 $253 $254 $255 reversed $93 $-1 #
coedge $-1 $153 $95 $256 $257 reversed $60 $-1 #
coedge $-1 $95 $152 $252 $258 reversed $60 $-1 #
coedge $-1 $254 $259 $95 $155 forward $260 $-1 #
edge $-1 $261 -18.295694151930089 $262 -0.092091569742809298 $154 $263 forward 7 unknown #
loop $-1 $-1 $161 $96 #
plane-surface $-1 -26.519843341049246 -27.426756383049643 58.810215666602005 0 0.5877852598018023 0.80901698891910034 1 0 0 forward_v I I I I #
loop $-1 $-1 $264 $62 #
coedge $-1 $159 $159 $160 $265 reversed $97 $-1 #
coedge $-1 $160 $160 $159 $265 forward $99 $-1 #
coedge $-1 $161 $161 $100 $162 forward $156 $-1 #
edge $-1 $266 -1.7209558408524861e-016 $266 6.2831853071796004 $161 $267 forward 7 unknown #
face $-1 $268 $269 $35 $-1 $270 forward single #
loop $-1 $-1 $271 $101 #
plane-surface $-1 35.523772586528807 52.163461321025203 168.35675022256922 -1 0 0 0 0.5877852598018023 0.80901698891910034 forward_v I I I I #
coedge $-1 $272 $273 $274 $275 reversed $102 $-1 #
coedge $-1 $168 $104 $276 $277 reversed $66 $-1 #
coedge $-1 $104 $167 $272 $278 reversed $66 $-1 #
coedge $-1 $274 $279 $104 $170 forward $269 $-1 #
edge $-1 $280 -18.295694151930089 $281 -0.092091569742809298 $169 $282 forward 7 unknown #
loop $-1 $-1 $176 $105 #
plane-surface $-1 26.519843341049253 -27.426756383049643 58.810215666602005 0 0.5877852598018023 0.80901698891910034 1 0 0 forward_v I I I I #
loop $-1 $-1 $283 $68 #
coedge $-1 $174 $174 $175 $284 reversed $106 $-1 #
coedge $-1 $175 $175 $174 $284 forward $108 $-1 #
coedge $-1 $176 $176 $109 $177 forward $171 $-1 #
edge $-1 $285 -1.7209558408524861e-016 $285 6.2831853071796004 $176 $286 forward 7 unknown #
face $-1 $287 $288 $37 $-1 $289 forward single #
loop $-1 $-1 $290 $110 #
plane-surface $-1 -32.149008506340977 -161.64329681361824 72.665244368339913 1 0 0 0 0.86602541151947299 -0.49999998660252726 forward_v I I I I #
coedge $-1 $291 $292 $293 $294 reversed $111 $-1 #
coedge $-1 $183 $113 $295 $296 reversed $72 $-1 #
coedge $-1 $113 $182 $291 $297 reversed $72 $-1 #
coedge $-1 $293 $298 $113 $185 forward $288 $-1 #
edge $-1 $299 36.444223594366427 $300 45.049831697790438 $184 $301 forward 7 unknown #
loop $-1 $-1 $191 $114 #
plane-surface $-1 -26.265492739387724 -44.377424812442698 4.9617640205198228 0 -0.86602541151947299 0.49999998660252726 1 0 0 forward_v I I I I #
loop $-1 $-1 $302 $74 #
coedge $-1 $189 $189 $190 $303 reversed $115 $-1 #
coedge $-1 $190 $190 $189 $303 forward $117 $-1 #
coedge $-1 $191 $191 $118 $192 forward $186 $-1 #
edge $-1 $304 -1.0623969049353655e-015 $304 6.2831853071795996 $191 $305 forward 7 unknown #
loop $-1 $-1 $198 $119 #
plane-surface $-1 -26.265492739387724 -44.377424812442698 4.9617640205198228 0 -0.86602541151947299 0.49999998660252726 1 0 0 forward_v I I I I #
loop $-1 $-1 $306 $77 #
coedge $-1 $196 $196 $197 $307 reversed $120 $-1 #
coedge $-1 $197 $197 $196 $307 forward $122 $-1 #
coedge $-1 $198 $198 $123 $199 forward $193 $-1 #
edge $-1 $308 -1.0623969049353655e-015 $308 6.2831853071795996 $198 $309 forward 7 unknown #
face $-1 $310 $311 $30 $-1 $312 reversed single #
loop $-1 $-1 $313 $124 #
plane-surface $-1 -67.703482161931205 0 0 1 0 0 0 0 -1 forward_v I I I I #
coedge $-1 $314 $211 $315 $316 forward $125 $-1 #
coedge $-1 $317 $127 $314 $318 forward $81 $-1 #
coedge $-1 $127 $317 $319 $320 forward $81 $-1 #
coedge $-1 $214 $213 $127 $207 reversed $215 $-1 #
edge $-1 $321 -44.37742481244269 $322 44.37742481244269 $206 $323 forward 7 unknown #
coedge $-1 $129 $128 $324 $325 forward $51 $-1 #
coedge $-1 $326 $327 $128 $210 reversed $311 $-1 #
edge $-1 $217 -67.703482161931205 $328 67.703482161931205 $209 $329 forward 7 unknown #
coedge $-1 $203 $330 $129 $212 reversed $125 $-1 #
edge $-1 $331 -67.703482161931205 $216 67.703482161931205 $211 $332 forward 7 unknown #
coedge $-1 $206 $130 $330 $333 forward $215 $-1 #
coedge $-1 $130 $206 $326 $334 reversed $215 $-1 #
loop $-1 $-1 $213 $310 #
vertex $-1 $131 $335 #
vertex $-1 $131 $336 #
straight-curve $-1 67.703482161931205 0 19.867115018194085 0 1 0 I I #
face $-1 $337 $338 $31 $-1 $339 reversed single #
loop $-1 $-1 $340 $132 #
plane-surface $-1 -75.935932726517123 0 -7.4146074648163562 0 0 1 1 0 0 forward_v I I I I #
coedge $-1 $341 $135 $342 $343 reversed $85 $-1 #
coedge $-1 $135 $341 $228 $344 reversed $85 $-1 #
edge $-1 $230 -1.1221827824802872 $345 7.4146074648163562 $135 $346 forward 7 unknown #
coedge $-1 $137 $136 $340 $347 forward $54 $-1 #
coedge $-1 $348 $349 $136 $227 forward $350 $-1 #
edge $-1 $351 -7.4146074648163562 $231 1.1221827824802872 $226 $352 forward 7 unknown #
coedge $-1 $353 $138 $223 $344 forward $133 $-1 #
coedge $-1 $138 $353 $348 $354 forward $133 $-1 #
vertex $-1 $224 $355 #
vertex $-1 $354 $356 #
straight-curve $-1 -67.703482161931205 0 1.1221827824802872 0 -1 0 I I #
face $-1 $357 $358 $32 $-1 $359 reversed single #
loop $-1 $-1 $360 $140 #
plane-surface $-1 75.935932726517123 0 -7.4146074648163562 0 0 1 1 0 0 forward_v I I I I #
coedge $-1 $244 $243 $361 $362 forward $141 $-1 #
coedge $-1 $363 $143 $364 $365 reversed $89 $-1 #
coedge $-1 $143 $363 $243 $366 reversed $89 $-1 #
edge $-1 $245 -1.1221827824802872 $367 7.4146074648163562 $143 $368 forward 7 unknown #
coedge $-1 $145 $144 $369 $370 forward $57 $-1 #
coedge $-1 $371 $372 $144 $242 forward $373 $-1 #
edge $-1 $374 -7.4146074648163562 $246 1.1221827824802872 $241 $375 forward 7 unknown #
coedge $-1 $236 $146 $238 $366 forward $141 $-1 #
coedge $-1 $146 $236 $371 $376 forward $141 $-1 #
vertex $-1 $239 $377 #
vertex $-1 $376 $378 #
straight-curve $-1 67.703482161931205 0 1.1221827824802872 0 1 0 I I #
face $-1 $-1 $260 $33 $-1 $379 forward single #
loop $-1 $-1 $380 $148 #
plane-surface $-1 0 44.37742481244269 0 0 -1 0 0 0 -1 forward_v I I I I #
coedge $-1 $381 $382 $383 $384 reversed $149 $-1 #
coedge $-1 $385 $151 $153 $258 forward $93 $-1 #
coedge $-1 $151 $385 $381 $386 forward $93 $-1 #
coedge $-1 $383 $154 $151 $255 forward $260 $-1 #
edge $-1 $262 -22.263850916004177 $387 -4.2559924250450685 $254 $388 forward 7 unknown #
coedge $-1 $389 $390 $152 $257 forward $249 $-1 #
edge $-1 $391 -77.536951790115779 $261 -64.311260093090524 $256 $392 forward 7 unknown #
edge $-1 $262 66.253959246169771 $391 88.754849624885395 $153 $393 forward 7 unknown #
coedge $-1 $154 $383 $389 $394 forward $260 $-1 #
loop $-1 $-1 $383 $248 #
vertex $-1 $257 $395 #
vertex $-1 $155 $396 #
straight-curve $-1 -35.5237725865288 26.081730660512601 19.867115018194085 0 -1 0 I I #
coedge $-1 $264 $264 $-1 $397 reversed $158 $-1 #
edge $-1 $398 0 $398 6.2831853071796004 $159 $399 forward 7 unknown #
vertex $-1 $162 $400 #
ellipse-curve $-1 -26.519843341049246 35.275623521349054 13.254269169681459 0 0.5877852598018023 0.80901698891910034 3 0 0 1 I I #
face $-1 $-1 $401 $35 $-1 $402 reversed single #
loop $-1 $-1 $169 $163 #
plane-surface $-1 0 0 19.867115018194085 0 0 1 1 0 0 forward_v I I I I #
coedge $-1 $403 $404 $405 $406 reversed $164 $-1 #
coedge $-1 $407 $166 $168 $278 forward $102 $-1 #
coedge $-1 $166 $407 $403 $408 forward $102 $-1 #
coedge $-1 $405 $169 $166 $275 forward $269 $-1 #
edge $-1 $281 4.255992425045072 $409 22.263850916004181 $274 $410 forward 7 unknown #
coedge $-1 $411 $412 $167 $277 forward $401 $-1 #
edge $-1 $413 -77.536951790115779 $280 -64.311260093090524 $276 $414 forward 7 unknown #
edge $-1 $281 66.253959246169771 $413 88.754849624885395 $168 $415 forward 7 unknown #
coedge $-1 $169 $405 $411 $416 forward $269 $-1 #
vertex $-1 $170 $417 #
vertex $-1 $170 $418 #
straight-curve $-1 17.515914095569698 26.081730660512601 19.867115018194085 0 -1 0 I I #
coedge $-1 $283 $283 $-1 $419 reversed $173 $-1 #
edge $-1 $420 0 $420 6.2831853071796004 $174 $421 forward 7 unknown #
vertex $-1 $177 $422 #
ellipse-curve $-1 26.519843341049253 35.275623521349054 13.254269169681459 0 0.5877852598018023 0.80901698891910034 3 0 0 1 I I #
face $-1 $-1 $423 $37 $-1 $424 reversed single #
loop $-1 $-1 $184 $178 #
plane-surface $-1 0 0 19.867115018194085 0 0 1 1 0 0 forward_v I I I I #
coedge $-1 $425 $426 $427 $428 reversed $179 $-1 #
coedge $-1 $429 $181 $183 $297 forward $111 $-1 #
coedge $-1 $181 $429 $425 $430 forward $111 $-1 #
coedge $-1 $427 $184 $181 $294 forward $288 $-1 #
edge $-1 $300 7.2492306027406102 $431 19.016262136647114 $293 $432 forward 7 unknown #
coedge $-1 $433 $434 $182 $296 forward $423 $-1 #
edge $-1 $435 -31.370858163650119 $299 -16.465507165975872 $295 $436 forward 7 unknown #
edge $-1 $300 -17.211216668021649 $435 -1.4321304723534956e-014 $183 $437 forward 7 unknown #
coedge $-1 $184 $427 $433 $438 forward $288 $-1 #
vertex $-1 $296 $439 #
vertex $-1 $185 $440 #
straight-curve $-1 -20.381976972434472 -80.821648406809118 19.867115018194085 0 1 0 I I #
coedge $-1 $302 $302 $-1 $441 reversed $188 $-1 #
edge $-1 $442 0 $442 6.2831853071796004 $189 $443 forward 7 unknown #
vertex $-1 $192 $444 #
ellipse-curve $-1 -28.786999496653401 -40.074620760730689 12.414439519356954 0 -0.86602541151947299 0.49999998660252726 1 0 0 1 I I #
coedge $-1 $306 $306 $-1 $445 reversed $195 $-1 #
edge $-1 $446 0 $446 6.2831853071796004 $196 $447 forward 7 unknown #
vertex $-1 $199 $448 #
ellipse-curve $-1 -23.743985982122041 -40.074620760730689 12.414439519356954 0 -0.86602541151947299 0.49999998660252726 1 0 0 1 I I #
face $-1 $-1 $215 $30 $-1 $449 reversed single #
loop $-1 $-1 $326 $200 #
plane-surface $-1 0 44.37742481244269 0 0 -1 0 0 0 -1 forward_v I I I I #
coedge $-1 $450 $324 $327 $451 forward $201 $-1 #
coedge $-1 $330 $203 $204 $318 reversed $125 $-1 #
coedge $-1 $324 $450 $203 $316 reversed $201 $-1 #
edge $-1 $331 -19.867115018194085 $452 19.867115018194085 $315 $453 forward 7 unknown #
coedge $-1 $205 $204 $450 $454 forward $81 $-1 #
edge $-1 $322 -67.703482161931205 $452 67.703482161931205 $314 $455 forward 7 unknown #
coedge $-1 $327 $326 $205 $320 reversed $311 $-1 #
edge $-1 $456 -67.703482161931205 $321 67.703482161931205 $319 $457 forward 7 unknown #
vertex $-1 $207 $458 #
vertex $-1 $333 $459 #
straight-curve $-1 67.703482161931205 0 -19.867115018194085 0 -1 0 I I #
coedge $-1 $313 $315 $208 $325 reversed $201 $-1 #
edge $-1 $328 -44.37742481244269 $331 44.37742481244269 $324 $460 forward 7 unknown #
coedge $-1 $319 $209 $214 $334 forward $311 $-1 #
coedge $-1 $209 $319 $313 $451 reversed $311 $-1 #
vertex $-1 $210 $461 #
straight-curve $-1 0 44.37742481244269 19.867115018194085 -1 0 0 I I #
coedge $-1 $211 $314 $213 $333 reversed $125 $-1 #
vertex $-1 $325 $462 #
straight-curve $-1 0 -44.37742481244269 19.867115018194085 1 0 0 I I #
edge $-1 $216 -19.867115018194085 $322 19.867115018194085 $213 $463 forward 7 unknown #
edge $-1 $217 -19.867115018194085 $321 19.867115018194085 $214 $464 forward 7 unknown #
point $-1 67.703482161931205 -44.37742481244269 19.867115018194085 #
point $-1 67.703482161931205 44.37742481244269 19.867115018194085 #
face $-1 $-1 $350 $31 $-1 $465 reversed single #
loop $-1 $-1 $466 $219 #
plane-surface $-1 -84.168383291103041 0 -3.1462123411680345 1 0 0 0 0 -1 forward_v I I I I #
coedge $-1 $467 $342 $225 $347 reversed $220 $-1 #
coedge $-1 $223 $222 $466 $468 reversed $85 $-1 #
coedge $-1 $340 $469 $222 $343 forward $220 $-1 #
edge $-1 $470 -8.2324505645859176 $345 8.2324505645859176 $222 $471 forward 7 unknown #
edge $-1 $230 -8.2324505645859176 $472 8.2324505645859176 $223 $473 forward 7 unknown #
vertex $-1 $224 $474 #
straight-curve $-1 -67.703482161931205 44.37742481244269 0 0 0 -1 I I #
edge $-1 $351 -44.37742481244269 $345 44.37742481244269 $340 $475 forward 7 unknown #
coedge $-1 $476 $226 $229 $354 reversed $350 $-1 #
coedge $-1 $226 $476 $467 $477 reversed $350 $-1 #
loop $-1 $-1 $226 $337 #
vertex $-1 $227 $478 #
straight-curve $-1 -67.703482161931205 -44.37742481244269 0 0 0 1 I I #
coedge $-1 $229 $228 $479 $480 forward $133 $-1 #
edge $-1 $481 -8.2324505645859176 $231 8.2324505645859176 $348 $482 forward 7 unknown #
point $-1 -67.703482161931205 44.37742481244269 1.1221827824802872 #
point $-1 -67.703482161931205 -44.37742481244269 1.1221827824802872 #
face $-1 $-1 $373 $32 $-1 $483 reversed single #
loop $-1 $-1 $484 $233 #
plane-surface $-1 84.168383291103041 0 -3.1462123411680345 -1 0 0 0 0 1 forward_v I I I I #
coedge $-1 $364 $485 $486 $487 forward $234 $-1 #
coedge $-1 $484 $488 $236 $362 reversed $358 $-1 #
edge $-1 $489 -44.37742481244269 $490 44.37742481244269 $361 $491 forward 7 unknown #
coedge $-1 $238 $237 $484 $492 reversed $89 $-1 #
coedge $-1 $369 $360 $237 $365 forward $234 $-1 #
edge $-1 $493 -8.2324505645859176 $367 8.2324505645859176 $237 $494 forward 7 unknown #
edge $-1 $245 -8.2324505645859176 $489 8.2324505645859176 $238 $495 forward 7 unknown #
vertex $-1 $239 $496 #
straight-curve $-1 67.703482161931205 -44.37742481244269 0 0 0 -1 I I #
coedge $-1 $485 $364 $240 $370 reversed $234 $-1 #
edge $-1 $374 -44.37742481244269 $367 44.37742481244269 $369 $497 forward 7 unknown #
coedge $-1 $498 $241 $244 $376 reversed $373 $-1 #
coedge $-1 $241 $498 $485 $499 reversed $373 $-1 #
loop $-1 $-1 $241 $357 #
vertex $-1 $242 $500 #
straight-curve $-1 67.703482161931205 44.37742481244269 0 0 0 1 I I #
edge $-1 $490 -8.2324505645859176 $246 8.2324505645859176 $371 $501 forward 7 unknown #
point $-1 67.703482161931205 -44.37742481244269 1.1221827824802872 #
point $-1 67.703482161931205 44.37742481244269 1.1221827824802872 #
plane-surface $-1 0 0 19.867115018194085 0 0 1 1 0 0 forward_v I I I I #
coedge $-1 $390 $389 $382 $502 forward $249 $-1 #
coedge $-1 $382 $251 $253 $386 reversed $149 $-1 #
coedge $-1 $251 $381 $380 $502 reversed $149 $-1 #
coedge $-1 $259 $254 $251 $384 forward $260 $-1 #
edge $-1 $387 0.092091569742809298 $503 18.295694151930089 $383 $504 forward 7 unknown #
coedge $-1 $253 $252 $390 $505 reversed $93 $-1 #
edge $-1 $506 -88.754849624885395 $387 -66.253959246169771 $381 $507 forward 7 unknown #
vertex $-1 $255 $508 #
straight-curve $-1 -13.259921670524623 26.173822230255414 19.867115018194085 1 0 0 I I #
coedge $-1 $380 $256 $259 $394 reversed $249 $-1 #
coedge $-1 $256 $380 $385 $505 forward $249 $-1 #
vertex $-1 $257 $509 #
straight-curve $-1 -35.5237725865288 44.37742481244269 84.178375111284609 0 0 1 I I #
straight-curve $-1 -35.5237725865288 -27.426756383049643 58.810215666602005 0 0.80901698891910034 -0.5877852598018023 I I #
edge $-1 $503 17.515914095569691 $261 35.5237725865288 $389 $510 forward 7 unknown #
point $-1 -35.5237725865288 44.37742481244269 19.867115018194085 #
point $-1 -35.5237725865288 26.173822230255411 19.867115018194085 #
edge $-1 $511 1 $511 0 $264 $-1 forward 7 unknown #
vertex $-1 $265 $512 #
ellipse-curve $-1 -26.519843341049246 30.940772256757096 7.2878583776264323 0 0.5877852598018023 0.80901698891910034 3 0 0 1 I I #
point $-1 -23.519843341049246 35.275623521349061 13.25426916968147 #
loop $-1 $-1 $276 $268 #
plane-surface $-1 0 44.37742481244269 0 0 -1 0 0 0 -1 forward_v I I I I #
coedge $-1 $404 $271 $273 $408 reversed $164 $-1 #
coedge $-1 $271 $403 $513 $514 reversed $164 $-1 #
coedge $-1 $279 $274 $271 $406 forward $269 $-1 #
edge $-1 $409 0.092091569742809298 $515 18.295694151930089 $405 $516 forward 7 unknown #
coedge $-1 $273 $272 $412 $517 reversed $102 $-1 #
edge $-1 $518 -88.754849624885395 $409 -66.253959246169771 $403 $519 forward 7 unknown #
vertex $-1 $275 $520 #
straight-curve $-1 13.259921670524626 26.173822230255414 19.867115018194085 1 0 0 I I #
coedge $-1 $513 $276 $279 $416 reversed $401 $-1 #
coedge $-1 $276 $513 $407 $517 forward $401 $-1 #
vertex $-1 $277 $521 #
straight-curve $-1 17.515914095569698 44.37742481244269 84.178375111284609 0 0 1 I I #
straight-curve $-1 17.515914095569698 -27.426756383049643 58.810215666602005 0 0.80901698891910034 -0.5877852598018023 I I #
edge $-1 $515 -35.523772586528807 $280 -17.515914095569698 $411 $522 forward 7 unknown #
point $-1 17.515914095569698 44.37742481244269 19.867115018194085 #
point $-1 17.515914095569698 26.173822230255411 19.867115018194085 #
edge $-1 $523 1 $523 0 $283 $-1 forward 7 unknown #
vertex $-1 $284 $524 #
ellipse-curve $-1 26.519843341049253 30.940772256757096 7.2878583776264323 0 0.5877852598018023 0.80901698891910034 3 0 0 1 I I #
point $-1 29.519843341049253 35.275623521349061 13.25426916968147 #
loop $-1 $-1 $295 $287 #
plane-surface $-1 0 -44.37742481244269 0 0 1 0 0 0 1 forward_v I I I I #
coedge $-1 $426 $290 $292 $430 reversed $179 $-1 #
coedge $-1 $290 $425 $525 $526 reversed $179 $-1 #
coedge $-1 $298 $293 $290 $428 forward $288 $-1 #
edge $-1 $431 -45.049831697790438 $527 -36.444223594366427 $427 $528 forward 7 unknown #
coedge $-1 $292 $291 $434 $529 reversed $111 $-1 #
edge $-1 $530 1.4321304723534956e-014 $431 17.211216668021649 $425 $531 forward 7 unknown #
vertex $-1 $294 $532 #
straight-curve $-1 -13.132746369693862 -35.77181670901868 19.867115018194085 -1 0 0 I I #
coedge $-1 $525 $295 $298 $438 reversed $423 $-1 #
coedge $-1 $295 $525 $429 $529 forward $423 $-1 #
vertex $-1 $296 $533 #
straight-curve $-1 -20.381976972434472 -44.37742481244269 36.332622184169956 0 0 1 I I #
straight-curve $-1 -20.381976972434472 -44.377424812442698 4.9617640205198228 0 -0.49999998660252726 -0.86602541151947299 I I #
edge $-1 $527 -32.149008506340977 $299 -20.381976972434472 $433 $534 forward 7 unknown #
point $-1 -20.381976972434472 -44.37742481244269 19.867115018194085 #
point $-1 -20.381976972434472 -35.77181670901868 19.867115018194085 #
edge $-1 $535 1 $535 0 $302 $-1 forward 7 unknown #
vertex $-1 $303 $536 #
ellipse-curve $-1 -28.786999496653401 -37.699479929052195 11.043151369815559 0 -0.86602541151947299 0.49999998660252726 1 0 0 1 I I #
point $-1 -27.786999496653401 -40.074620760730681 12.414439519356948 #
edge $-1 $537 1 $537 0 $306 $-1 forward 7 unknown #
vertex $-1 $307 $538 #
ellipse-curve $-1 -23.743985982122041 -37.699479929052195 11.043151369815559 0 -0.86602541151947299 0.49999998660252726 1 0 0 1 I I #
point $-1 -22.743985982122041 -40.074620760730681 12.414439519356948 #
plane-surface $-1 67.703482161931205 0 0 -1 0 0 0 0 1 forward_v I I I I #
coedge $-1 $315 $313 $317 $454 reversed $201 $-1 #
edge $-1 $328 -19.867115018194085 $456 19.867115018194085 $327 $539 forward 7 unknown #
vertex $-1 $454 $540 #
straight-curve $-1 -67.703482161931205 -44.37742481244269 0 0 0 -1 I I #
edge $-1 $452 -44.37742481244269 $456 44.37742481244269 $450 $541 forward 7 unknown #
straight-curve $-1 0 -44.37742481244269 -19.867115018194085 -1 0 0 I I #
vertex $-1 $320 $542 #
straight-curve $-1 0 44.37742481244269 -19.867115018194085 1 0 0 I I #
point $-1 67.703482161931205 44.37742481244269 -19.867115018194085 #
point $-1 67.703482161931205 -44.37742481244269 -19.867115018194085 #
straight-curve $-1 -67.703482161931205 0 19.867115018194085 0 -1 0 I I #
point $-1 -67.703482161931205 44.37742481244269 19.867115018194085 #
point $-1 -67.703482161931205 -44.37742481244269 19.867115018194085 #
straight-curve $-1 67.703482161931205 -44.37742481244269 0 0 0 -1 I I #
straight-curve $-1 67.703482161931205 44.37742481244269 0 0 0 -1 I I #
plane-surface $-1 0 -44.37742481244269 0 0 1 0 0 0 1 forward_v I I I I #
coedge $-1 $543 $479 $341 $468 forward $338 $-1 #
coedge $-1 $469 $340 $349 $477 forward $220 $-1 #
edge $-1 $472 -4.2683951236483217 $470 4.2683951236483217 $341 $544 forward 7 unknown #
coedge $-1 $342 $467 $543 $545 forward $220 $-1 #
vertex $-1 $343 $546 #
straight-curve $-1 -75.935932726517123 44.37742481244269 -7.4146074648163562 1 0 0 I I #
vertex $-1 $344 $547 #
straight-curve $-1 -75.935932726517123 44.37742481244269 1.1221827824802872 -1 0 0 I I #
point $-1 -67.703482161931205 44.37742481244269 -7.4146074648163562 #
straight-curve $-1 -67.703482161931205 0 -7.4146074648163562 0 1 0 I I #
coedge $-1 $349 $348 $548 $549 forward $350 $-1 #
edge $-1 $351 -8.2324505645859176 $550 8.2324505645859176 $349 $551 forward 7 unknown #
point $-1 -67.703482161931205 -44.37742481244269 -7.4146074648163562 #
coedge $-1 $466 $548 $353 $480 reversed $338 $-1 #
edge $-1 $472 -44.37742481244269 $481 44.37742481244269 $479 $552 forward 7 unknown #
vertex $-1 $480 $553 #
straight-curve $-1 -75.935932726517123 -44.37742481244269 1.1221827824802872 1 0 0 I I #
plane-surface $-1 0 44.37742481244269 0 0 -1 0 0 0 -1 forward_v I I I I #
coedge $-1 $486 $361 $363 $492 forward $358 $-1 #
coedge $-1 $360 $369 $372 $499 forward $234 $-1 #
coedge $-1 $488 $484 $360 $487 reversed $358 $-1 #
edge $-1 $554 -44.37742481244269 $493 44.37742481244269 $486 $555 forward 7 unknown #
coedge $-1 $361 $486 $498 $556 reversed $358 $-1 #
vertex $-1 $362 $557 #
vertex $-1 $362 $558 #
straight-curve $-1 84.168383291103041 0 1.1221827824802872 0 1 0 I I #
edge $-1 $489 -4.2683951236483217 $493 4.2683951236483217 $484 $559 forward 7 unknown #
vertex $-1 $492 $560 #
straight-curve $-1 75.935932726517123 -44.37742481244269 -7.4146074648163562 -1 0 0 I I #
straight-curve $-1 75.935932726517123 -44.37742481244269 1.1221827824802872 1 0 0 I I #
point $-1 67.703482161931205 -44.37742481244269 -7.4146074648163562 #
straight-curve $-1 67.703482161931205 0 -7.4146074648163562 0 -1 0 I I #
coedge $-1 $372 $371 $488 $556 forward $373 $-1 #
edge $-1 $374 -8.2324505645859176 $554 8.2324505645859176 $372 $561 forward 7 unknown #
point $-1 67.703482161931205 44.37742481244269 -7.4146074648163562 #
straight-curve $-1 75.935932726517123 44.37742481244269 1.1221827824802872 -1 0 0 I I #
edge $-1 $503 64.311260093090524 $506 77.536951790115779 $380 $562 forward 7 unknown #
vertex $-1 $394 $563 #
straight-curve $-1 -17.515914095569691 26.081730660512601 19.867115018194085 0 1 0 I I #
edge $-1 $506 4.2559924250450685 $391 22.263850916004177 $390 $564 forward 7 unknown #
vertex $-1 $505 $565 #
straight-curve $-1 -17.515914095569691 -27.426756383049643 58.810215666602005 0 -0.80901698891910034 0.5877852598018023 I I #
point $-1 -17.515914095569691 26.173822230255411 19.867115018194085 #
point $-1 -35.5237725865288 44.37742481244269 6.6414233211688369 #
straight-curve $-1 0 44.37742481244269 19.867115018194085 -1 0 0 I I #
vertex $-1 $397 $566 #
point $-1 -23.519843341049246 30.940772256757096 7.2878583776264323 #
coedge $-1 $412 $411 $404 $514 forward $401 $-1 #
edge $-1 $515 64.311260093090524 $518 77.536951790115779 $513 $567 forward 7 unknown #
vertex $-1 $416 $568 #
straight-curve $-1 35.523772586528807 26.081730660512601 19.867115018194085 0 1 0 I I #
edge $-1 $518 -22.263850916004181 $413 -4.255992425045072 $412 $569 forward 7 unknown #
vertex $-1 $517 $570 #
straight-curve $-1 35.523772586528807 -27.426756383049643 58.810215666602005 0 -0.80901698891910034 0.5877852598018023 I I #
point $-1 35.523772586528807 26.173822230255411 19.867115018194085 #
point $-1 17.515914095569698 44.37742481244269 6.6414233211688369 #
straight-curve $-1 0 44.37742481244269 19.867115018194085 -1 0 0 I I #
vertex $-1 $419 $571 #
point $-1 29.519843341049253 30.940772256757096 7.2878583776264323 #
coedge $-1 $434 $433 $426 $526 forward $423 $-1 #
edge $-1 $527 16.465507165975872 $530 31.370858163650119 $525 $572 forward 7 unknown #
vertex $-1 $438 $573 #
straight-curve $-1 -32.149008506340977 -80.821648406809118 19.867115018194085 0 -1 0 I I #
edge $-1 $530 -19.016262136647114 $435 -7.2492306027406102 $434 $574 forward 7 unknown #
vertex $-1 $529 $575 #
straight-curve $-1 -32.149008506340977 -44.377424812442698 4.9617640205198228 0 0.49999998660252726 0.86602541151947299 I I #
point $-1 -32.149008506340977 -35.77181670901868 19.867115018194085 #
point $-1 -20.381976972434472 -44.37742481244269 4.9617640205198352 #
straight-curve $-1 0 -44.37742481244269 19.867115018194085 1 0 0 I I #
vertex $-1 $441 $576 #
point $-1 -27.786999496653401 -37.699479929052195 11.043151369815559 #
vertex $-1 $445 $577 #
point $-1 -22.743985982122041 -37.699479929052195 11.043151369815559 #
straight-curve $-1 -67.703482161931205 44.37742481244269 0 0 0 -1 I I #
point $-1 -67.703482161931205 -44.37742481244269 -19.867115018194085 #
straight-curve $-1 -67.703482161931205 0 -19.867115018194085 0 1 0 I I #
point $-1 -67.703482161931205 44.37742481244269 -19.867115018194085 #
coedge $-1 $548 $466 $469 $545 reversed $338 $-1 #
straight-curve $-1 -84.168383291103041 44.37742481244269 -3.1462123411680345 0 0 -1 I I #
edge $-1 $550 -44.37742481244269 $470 44.37742481244269 $543 $578 forward 7 unknown #
point $-1 -84.168383291103041 44.37742481244269 -7.4146074648163562 #
point $-1 -84.168383291103041 44.37742481244269 1.1221827824802872 #
coedge $-1 $479 $543 $476 $549 reversed $338 $-1 #
edge $-1 $481 -4.2683951236483217 $550 4.2683951236483217 $548 $579 forward 7 unknown #
vertex $-1 $545 $580 #
straight-curve $-1 -75.935932726517123 -44.37742481244269 -7.4146074648163562 -1 0 0 I I #
straight-curve $-1 -84.168383291103041 0 1.1221827824802872 0 -1 0 I I #
point $-1 -84.168383291103041 -44.37742481244269 1.1221827824802872 #
vertex $-1 $487 $581 #
straight-curve $-1 84.168383291103041 0 -7.4146074648163562 0 -1 0 I I #
edge $-1 $490 -4.2683951236483217 $554 4.2683951236483217 $488 $582 forward 7 unknown #
point $-1 84.168383291103041 -44.37742481244269 1.1221827824802872 #
point $-1 84.168383291103041 44.37742481244269 1.1221827824802872 #
straight-curve $-1 84.168383291103041 -44.37742481244269 -3.1462123411680345 0 0 -1 I I #
point $-1 84.168383291103041 -44.37742481244269 -7.4146074648163562 #
straight-curve $-1 75.935932726517123 44.37742481244269 -7.4146074648163562 1 0 0 I I #
straight-curve $-1 -17.515914095569691 44.37742481244269 84.178375111284609 0 0 -1 I I #
point $-1 -17.515914095569691 44.37742481244269 19.867115018194085 #
straight-curve $-1 -13.259921670524623 44.37742481244269 6.6414233211688405 -1 0 0 I I #
point $-1 -17.515914095569691 44.37742481244269 6.6414233211688369 #
point $-1 -26.519843341049246 29.177416477351688 4.860807410869131 #
straight-curve $-1 35.523772586528807 44.37742481244269 84.178375111284609 0 0 -1 I I #
point $-1 35.523772586528807 44.37742481244269 19.867115018194085 #
straight-curve $-1 13.259921670524626 44.37742481244269 6.6414233211688405 -1 0 0 I I #
point $-1 35.523772586528807 44.37742481244269 6.6414233211688369 #
point $-1 26.519843341049253 29.177416477351688 4.860807410869131 #
straight-curve $-1 -32.149008506340977 -44.37742481244269 36.332622184169956 0 0 -1 I I #
point $-1 -32.149008506340977 -44.37742481244269 19.867115018194085 #
straight-curve $-1 -13.132746369693862 -44.37742481244269 4.9617640205198397 1 0 0 I I #
point $-1 -32.149008506340977 -44.37742481244269 4.9617640205198352 #
point $-1 -28.786999496653401 -36.833454517532722 10.543151383213031 #
point $-1 -23.743985982122041 -36.833454517532722 10.543151383213031 #
straight-curve $-1 -84.168383291103041 0 -7.4146074648163562 0 1 0 I I #
straight-curve $-1 -84.168383291103041 -44.37742481244269 -3.1462123411680345 0 0 -1 I I #
point $-1 -84.168383291103041 -44.37742481244269 -7.4146074648163562 #
point $-1 84.168383291103041 44.37742481244269 -7.4146074648163562 #
straight-curve $-1 84.168383291103041 44.37742481244269 -3.1462123411680345 0 0 -1 I I #
End-of-ACIS-data 