500 0 9 0           
7 Unknown 11 ACIS 5.0 NT 24 Fri Mar 26 20:45:46 1999 
-1 9.9999999999999995e-007 1e-010 
body $-1 $9 $-1 $10 #
body $-1 $11 $-1 $12 #
body $-1 $13 $-1 $14 #
body $-1 $15 $-1 $16 #
body $-1 $17 $-1 $18 #
body $-1 $19 $-1 $20 #
body $-1 $21 $-1 $22 #
body $-1 $23 $-1 $24 #
body $-1 $25 $-1 $26 #
lump $-1 $-1 $27 $0 #
transform $-1 1 0 0 0 1 0 0 0 1 63.097628711813712 36.48848039709295 17.742129666271648 1 rotate no_reflect no_shear #
lump $-1 $-1 $28 $1 #
transform $-1 1 0 0 0 1 0 0 0 1 63.097628711813712 36.48848039709295 17.742129666271648 1 rotate no_reflect no_shear #
lump $-1 $-1 $29 $2 #
transform $-1 1 0 0 0 1 0 0 0 1 63.097628711813712 36.48848039709295 17.742129666271648 1 rotate no_reflect no_shear #
lump $-1 $-1 $30 $3 #
transform $-1 1 0 0 0 1 0 0 0 1 63.097628711813712 36.48848039709295 17.742129666271648 1 rotate no_reflect no_shear #
lump $-1 $-1 $31 $4 #
transform $-1 1 0 0 0 1 0 0 0 1 63.097628711813712 36.48848039709295 17.742129666271648 1 rotate no_reflect no_shear #
lump $-1 $-1 $32 $5 #
transform $-1 1 0 0 0 1 0 0 0 1 63.097628711813712 36.48848039709295 17.742129666271648 1 rotate no_reflect no_shear #
lump $-1 $-1 $33 $6 #
transform $-1 1 0 0 0 1 0 0 0 1 63.097628711813712 36.48848039709295 17.742129666271648 1 rotate no_reflect no_shear #
lump $-1 $-1 $34 $7 #
transform $-1 1 0 0 0 1 0 0 0 1 63.097628711813712 36.48848039709295 17.742129666271648 1 rotate no_reflect no_shear #
lump $-1 $-1 $35 $8 #
transform $-1 1 0 0 0 1 0 0 0 1 63.097628711813712 36.48848039709295 17.742129666271648 1 rotate no_reflect no_shear #
shell $-1 $-1 $-1 $36 $-1 $9 #
shell $-1 $-1 $-1 $37 $-1 $11 #
shell $-1 $-1 $-1 $38 $-1 $13 #
shell $-1 $-1 $-1 $39 $-1 $15 #
shell $-1 $-1 $-1 $40 $-1 $17 #
shell $-1 $-1 $-1 $41 $-1 $19 #
shell $-1 $-1 $-1 $42 $-1 $21 #
shell $-1 $-1 $-1 $43 $-1 $23 #
shell $-1 $-1 $-1 $44 $-1 $25 #
face $-1 $45 $46 $27 $-1 $47 forward single #
face $-1 $48 $49 $28 $-1 $50 reversed single #
face $-1 $51 $52 $29 $-1 $53 forward single #
face $-1 $54 $55 $30 $-1 $56 reversed single #
face $-1 $57 $58 $31 $-1 $59 forward single #
face $-1 $60 $61 $32 $-1 $62 reversed single #
face $-1 $63 $64 $33 $-1 $65 forward single #
face $-1 $66 $67 $34 $-1 $68 forward single #
face $-1 $69 $70 $35 $-1 $71 forward single #
face $-1 $72 $73 $27 $-1 $74 reversed single #
loop $-1 $-1 $75 $36 #
plane-surface $-1 0 0 17.742129666271648 0 0 1 1 0 0 forward_v I I I I #
face $-1 $76 $77 $28 $-1 $78 reversed single #
loop $-1 $-1 $79 $37 #
plane-surface $-1 -55.748797869181111 -30.151669809003195 0 1 0 0 0 0 -1 forward_v I I I I #
face $-1 $80 $81 $29 $-1 $82 reversed single #
loop $-1 $-1 $83 $38 #
plane-surface $-1 0 36.48848039709295 0 0 -1 0 0 0 -1 forward_v I I I I #
face $-1 $84 $85 $30 $-1 $86 reversed single #
loop $-1 $-1 $87 $39 #
plane-surface $-1 81.752516957043497 -0.99647113026330913 190.29690919039422 0 -1 0 -0.77714596973225614 0 -0.62932038083071107 forward_v I I I I #
face $-1 $88 $89 $31 $-1 $90 forward single #
loop $-1 $91 $92 $40 #
cone-surface $-1 59.358148338563424 -6.9067085146665832 13.864589955103838 -0.77714596973225614 0 -0.62932038083071107 0.9439805712460666 0 -1.1657189545983841 1 I I 0 1 1.5 forward I I I I #
face $-1 $93 $94 $32 $-1 $95 reversed single #
loop $-1 $-1 $96 $41 #
plane-surface $-1 -126.19525826897618 7.6940634796293423 123.00733755260133 0 1 0 -0.50000000669873634 0 0.8660253999169214 forward_v I I I I #
face $-1 $97 $98 $33 $-1 $99 forward single #
loop $-1 $100 $101 $42 #
cone-surface $-1 -59.151102386999824 9.820189129143607 14.929635856381113 0.50000000669873634 0 -0.8660253999169214 0.4330126999584607 0 0.25000000334936817 1 I I 0 1 0.5 forward I I I I #
face $-1 $102 $103 $34 $-1 $104 forward single #
loop $-1 $105 $106 $43 #
cone-surface $-1 -59.151102386999824 13.009377603414997 14.929635856381113 0.50000000669873634 0 -0.8660253999169214 0.4330126999584607 0 0.25000000334936817 1 I I 0 1 0.5 forward I I I I #
face $-1 $107 $108 $35 $-1 $109 forward single #
loop $-1 $110 $111 $44 #
cone-surface $-1 -59.151102386999824 16.198566077686387 14.929635856381113 0.50000000669873634 0 -0.8660253999169214 0.4330126999584607 0 0.25000000334936817 1 I I 0 1 0.5 forward I I I I #
face $-1 $112 $113 $27 $-1 $114 reversed single #
loop $-1 $-1 $115 $45 #
plane-surface $-1 0 0 -17.742129666271648 0 0 1 1 0 0 forward_v I I I I #
coedge $-1 $116 $117 $118 $119 forward $46 $-1 #
face $-1 $120 $121 $28 $-1 $122 reversed single #
loop $-1 $-1 $123 $48 #
plane-surface $-1 -51.325204719532394 -23.814859220913441 0 0 -1 0 0 0 -1 forward_v I I I I #
coedge $-1 $124 $125 $126 $127 forward $49 $-1 #
face $-1 $128 $129 $29 $-1 $130 forward single #
loop $-1 $-1 $131 $51 #
plane-surface $-1 -63.097628711813712 0 0 1 0 0 0 0 -1 forward_v I I I I #
coedge $-1 $132 $133 $134 $135 forward $52 $-1 #
face $-1 $136 $137 $30 $-1 $138 reversed single #
loop $-1 $-1 $139 $54 #
plane-surface $-1 -16.319618749053134 -6.9067085146665832 110.87966172952738 0.77714596973225614 0 0.62932038083071107 0.62932038083071107 0 -0.77714596973225614 forward_v I I I I #
coedge $-1 $140 $141 $142 $143 reversed $55 $-1 #
face $-1 $-1 $144 $31 $-1 $145 forward single #
loop $-1 $146 $147 $57 #
cone-surface $-1 57.033790054354142 -6.9067085146665832 11.982361779733441 -0.77714596973225614 0 -0.62932038083071107 0.4719902856230333 0 -0.58285947729919207 1 I I -0.70710678118654757 0.70710678118654757 0.75 forward I I I I #
loop $-1 $-1 $148 $40 #
coedge $-1 $92 $92 $149 $150 reversed $58 $-1 #
face $-1 $151 $152 $32 $-1 $153 reversed single #
loop $-1 $-1 $154 $60 #
plane-surface $-1 -63.097628711813712 13.009377603414997 13.719039274685557 -0.50000000669873634 0 0.8660253999169214 0.8660253999169214 0 0.50000000669873634 forward_v I I I I #
coedge $-1 $155 $156 $157 $158 reversed $61 $-1 #
face $-1 $-1 $159 $33 $-1 $160 forward single #
loop $-1 $161 $162 $63 #
cone-surface $-1 -58.563674479108414 9.820189129143607 13.912180892304395 0.50000000669873634 0 -0.8660253999169214 0.21650634997923035 0 0.12500000167468409 1 I I -0.70710678118654746 0.70710678118654746 0.25 forward I I I I #
loop $-1 $-1 $163 $42 #
coedge $-1 $101 $101 $164 $165 reversed $64 $-1 #
face $-1 $-1 $166 $34 $-1 $167 forward single #
loop $-1 $168 $169 $66 #
cone-surface $-1 -58.563674479108414 13.009377603414997 13.912180892304395 0.50000000669873634 0 -0.8660253999169214 0.21650634997923035 0 0.12500000167468409 1 I I -0.70710678118654746 0.70710678118654746 0.25 forward I I I I #
loop $-1 $-1 $170 $43 #
coedge $-1 $106 $106 $171 $172 reversed $67 $-1 #
face $-1 $-1 $173 $35 $-1 $174 forward single #
loop $-1 $175 $176 $69 #
cone-surface $-1 -58.563674479108414 16.198566077686387 13.912180892304395 0.50000000669873634 0 -0.8660253999169214 0.21650634997923035 0 0.12500000167468409 1 I I -0.70710678118654746 0.70710678118654746 0.25 forward I I I I #
loop $-1 $-1 $177 $44 #
coedge $-1 $111 $111 $178 $179 reversed $70 $-1 #
face $-1 $180 $181 $27 $-1 $182 reversed single #
loop $-1 $-1 $183 $72 #
plane-surface $-1 0 -36.48848039709295 0 0 1 0 0 0 1 forward_v I I I I #
coedge $-1 $184 $185 $186 $187 forward $73 $-1 #
coedge $-1 $188 $75 $189 $190 forward $46 $-1 #
coedge $-1 $75 $188 $191 $192 forward $46 $-1 #
coedge $-1 $193 $194 $75 $119 reversed $195 $-1 #
edge $-1 $196 -36.48848039709295 $197 36.48848039709295 $118 $198 forward 7 unknown #
face $-1 $199 $200 $28 $-1 $201 forward single #
loop $-1 $-1 $202 $76 #
plane-surface $-1 -46.901611569883677 -30.151669809003195 0 -1 0 0 0 0 1 forward_v I I I I #
coedge $-1 $203 $204 $205 $206 forward $77 $-1 #
coedge $-1 $207 $79 $208 $209 reversed $49 $-1 #
coedge $-1 $79 $207 $210 $211 reversed $49 $-1 #
coedge $-1 $204 $203 $79 $127 reversed $77 $-1 #
edge $-1 $212 -17.742129666271648 $213 17.742129666271648 $126 $214 forward 7 unknown #
face $-1 $215 $216 $29 $-1 $217 reversed single #
loop $-1 $-1 $218 $80 #
plane-surface $-1 0 0 17.742129666271648 0 0 1 1 0 0 forward_v I I I I #
coedge $-1 $219 $220 $133 $221 forward $81 $-1 #
coedge $-1 $222 $83 $223 $224 reversed $52 $-1 #
coedge $-1 $83 $222 $131 $221 reversed $52 $-1 #
coedge $-1 $225 $226 $83 $135 reversed $216 $-1 #
edge $-1 $227 -63.097628711813712 $228 63.097628711813712 $134 $229 forward 7 unknown #
face $-1 $230 $231 $30 $-1 $232 reversed single #
loop $-1 $-1 $233 $84 #
plane-surface $-1 81.752516957043497 -12.816945899069857 190.29690919039422 0 1 0 0.77714596973225614 0 0.62932038083071107 forward_v I I I I #
coedge $-1 $234 $235 $236 $237 reversed $85 $-1 #
coedge $-1 $141 $87 $238 $239 reversed $55 $-1 #
coedge $-1 $87 $140 $234 $240 reversed $55 $-1 #
coedge $-1 $236 $241 $87 $143 forward $242 $-1 #
edge $-1 $243 -22.221370233291964 $244 -18.225407100611562 $142 $245 forward 7 unknown #
loop $-1 $-1 $149 $88 #
plane-surface $-1 -16.319618749053134 -6.9067085146665832 110.87966172952738 0.77714596973225614 0 0.62932038083071107 0.62932038083071107 0 -0.77714596973225614 forward_v I I I I #
loop $-1 $-1 $246 $57 #
coedge $-1 $147 $147 $148 $247 reversed $89 $-1 #
coedge $-1 $148 $148 $147 $247 forward $91 $-1 #
coedge $-1 $149 $149 $92 $150 forward $144 $-1 #
edge $-1 $248 0 $248 6.2831853071796004 $149 $249 forward 7 unknown #
face $-1 $250 $251 $32 $-1 $252 forward single #
loop $-1 $-1 $253 $93 #
plane-surface $-1 -126.19525826897618 18.324691727200651 123.00733755260133 0 -1 0 0.50000000669873634 0 -0.8660253999169214 forward_v I I I I #
coedge $-1 $254 $255 $256 $257 reversed $94 $-1 #
coedge $-1 $156 $96 $258 $259 reversed $61 $-1 #
coedge $-1 $96 $155 $254 $260 reversed $61 $-1 #
coedge $-1 $256 $261 $96 $158 forward $251 $-1 #
edge $-1 $262 4.2267437549980968e-007 $263 6.9681972598686883 $157 $264 forward 7 unknown #
loop $-1 $-1 $164 $97 #
plane-surface $-1 -63.097628711813712 13.009377603414997 13.719039274685557 -0.50000000669873634 0 0.8660253999169214 0.8660253999169214 0 0.50000000669873634 forward_v I I I I #
loop $-1 $-1 $265 $63 #
coedge $-1 $162 $162 $163 $266 reversed $98 $-1 #
coedge $-1 $163 $163 $162 $266 forward $100 $-1 #
coedge $-1 $164 $164 $101 $165 forward $159 $-1 #
edge $-1 $267 0 $267 6.2831853071796004 $164 $268 forward 7 unknown #
loop $-1 $-1 $171 $102 #
plane-surface $-1 -63.097628711813712 13.009377603414997 13.719039274685557 -0.50000000669873634 0 0.8660253999169214 0.8660253999169214 0 0.50000000669873634 forward_v I I I I #
loop $-1 $-1 $269 $66 #
coedge $-1 $169 $169 $170 $270 reversed $103 $-1 #
coedge $-1 $170 $170 $169 $270 forward $105 $-1 #
coedge $-1 $171 $171 $106 $172 forward $166 $-1 #
edge $-1 $271 0 $271 6.2831853071796004 $171 $272 forward 7 unknown #
loop $-1 $-1 $178 $107 #
plane-surface $-1 -63.097628711813712 13.009377603414997 13.719039274685557 -0.50000000669873634 0 0.8660253999169214 0.8660253999169214 0 0.50000000669873634 forward_v I I I I #
loop $-1 $-1 $273 $69 #
coedge $-1 $176 $176 $177 $274 reversed $108 $-1 #
coedge $-1 $177 $177 $176 $274 forward $110 $-1 #
coedge $-1 $178 $178 $111 $179 forward $173 $-1 #
edge $-1 $275 0 $275 6.2831853071796004 $178 $276 forward 7 unknown #
face $-1 $277 $278 $27 $-1 $279 reversed single #
loop $-1 $-1 $280 $112 #
plane-surface $-1 -63.097628711813712 0 0 1 0 0 0 0 -1 forward_v I I I I #
coedge $-1 $281 $191 $282 $283 forward $113 $-1 #
coedge $-1 $284 $115 $281 $285 forward $73 $-1 #
coedge $-1 $115 $284 $286 $287 forward $73 $-1 #
coedge $-1 $194 $193 $115 $187 reversed $195 $-1 #
edge $-1 $288 -36.48848039709295 $289 36.48848039709295 $186 $290 forward 7 unknown #
coedge $-1 $117 $116 $291 $292 forward $46 $-1 #
coedge $-1 $293 $294 $116 $190 reversed $278 $-1 #
edge $-1 $197 -63.097628711813712 $295 63.097628711813712 $189 $296 forward 7 unknown #
coedge $-1 $183 $297 $117 $192 reversed $113 $-1 #
edge $-1 $298 -63.097628711813712 $196 63.097628711813712 $191 $299 forward 7 unknown #
coedge $-1 $186 $118 $297 $300 forward $195 $-1 #
coedge $-1 $118 $186 $293 $301 reversed $195 $-1 #
loop $-1 $-1 $193 $277 #
vertex $-1 $119 $302 #
vertex $-1 $119 $303 #
straight-curve $-1 63.097628711813712 0 17.742129666271648 0 1 0 I I #
face $-1 $304 $305 $28 $-1 $306 reversed single #
loop $-1 $-1 $307 $120 #
plane-surface $-1 0 0 17.742129666271648 0 0 1 1 0 0 forward_v I I I I #
coedge $-1 $308 $309 $310 $311 reversed $121 $-1 #
coedge $-1 $126 $123 $312 $313 reversed $77 $-1 #
coedge $-1 $123 $126 $314 $315 reversed $77 $-1 #
coedge $-1 $309 $308 $123 $206 reversed $121 $-1 #
edge $-1 $316 -17.742129666271648 $317 17.742129666271648 $205 $318 forward 7 unknown #
coedge $-1 $125 $124 $319 $320 reversed $49 $-1 #
coedge $-1 $312 $321 $124 $209 forward $305 $-1 #
edge $-1 $322 -21.412645492591352 $213 -8.7390243164118431 $208 $323 forward 7 unknown #
coedge $-1 $324 $314 $125 $211 forward $200 $-1 #
edge $-1 $212 8.7390243164118431 $325 21.412645492591352 $210 $326 forward 7 unknown #
vertex $-1 $211 $327 #
vertex $-1 $209 $328 #
straight-curve $-1 -55.748797869181111 -23.814859220913441 0 0 0 -1 I I #
face $-1 $329 $330 $29 $-1 $331 reversed single #
loop $-1 $-1 $226 $128 #
plane-surface $-1 0 44.537430593097106 8.1106878474384665 0 0 1 1 0 0 forward_v I I I I #
coedge $-1 $332 $333 $222 $334 forward $129 $-1 #
coedge $-1 $335 $131 $333 $336 reversed $81 $-1 #
coedge $-1 $131 $335 $225 $337 reversed $81 $-1 #
edge $-1 $227 8.1106878474384665 $338 17.742129666271648 $131 $339 forward 7 unknown #
coedge $-1 $133 $132 $218 $334 reversed $52 $-1 #
coedge $-1 $340 $341 $132 $224 forward $342 $-1 #
edge $-1 $343 -17.742129666271648 $228 -8.1106878474384665 $223 $344 forward 7 unknown #
coedge $-1 $345 $134 $220 $337 forward $216 $-1 #
coedge $-1 $134 $345 $340 $346 forward $216 $-1 #
vertex $-1 $221 $347 #
vertex $-1 $224 $348 #
straight-curve $-1 0 36.48848039709295 8.1106878474384665 1 0 0 I I #
face $-1 $-1 $242 $30 $-1 $349 forward single #
loop $-1 $-1 $350 $136 #
plane-surface $-1 63.097628711813712 0 0 -1 0 0 0 0 1 forward_v I I I I #
coedge $-1 $351 $352 $353 $354 reversed $137 $-1 #
coedge $-1 $355 $139 $141 $240 forward $85 $-1 #
coedge $-1 $139 $355 $351 $356 forward $85 $-1 #
coedge $-1 $353 $142 $139 $237 forward $242 $-1 #
edge $-1 $244 -2.4568831270699825 $357 9.3635916417365657 $236 $358 forward 7 unknown #
coedge $-1 $359 $360 $140 $239 forward $231 $-1 #
edge $-1 $361 -82.340928571766369 $243 -77.406324928925457 $238 $362 forward 7 unknown #
edge $-1 $244 119.84560904992361 $361 126.19525742362745 $141 $363 forward 7 unknown #
coedge $-1 $142 $353 $359 $364 forward $242 $-1 #
loop $-1 $-1 $353 $230 #
vertex $-1 $239 $365 #
vertex $-1 $143 $366 #
straight-curve $-1 40.876258478521748 -0.99647113026330913 17.742129666271651 -1 0 0 I I #
coedge $-1 $246 $246 $-1 $367 reversed $146 $-1 #
edge $-1 $368 0 $368 6.2831853071796004 $147 $369 forward 7 unknown #
vertex $-1 $150 $370 #
ellipse-curve $-1 61.099647145473504 -6.9067085146665832 15.274827844851197 0.77714596973225614 0 0.62932038083071107 0.9439805712460666 0 -1.1657189545983841 1 I I #
face $-1 $-1 $371 $32 $-1 $372 reversed single #
loop $-1 $-1 $157 $151 #
plane-surface $-1 0 0 17.742129666271648 0 0 1 1 0 0 forward_v I I I I #
coedge $-1 $373 $374 $375 $376 reversed $152 $-1 #
coedge $-1 $377 $154 $156 $260 forward $94 $-1 #
coedge $-1 $154 $377 $373 $378 forward $94 $-1 #
coedge $-1 $375 $157 $154 $257 forward $251 $-1 #
edge $-1 $263 1.1893746779218439 $379 11.820002925493153 $256 $380 forward 7 unknown #
coedge $-1 $381 $382 $155 $259 forward $371 $-1 #
edge $-1 $383 -47.784629501615107 $262 -43.76153911002902 $258 $384 forward 7 unknown #
edge $-1 $263 -8.0461806753736997 $383 0 $156 $385 forward 7 unknown #
coedge $-1 $157 $375 $381 $386 forward $251 $-1 #
vertex $-1 $158 $387 #
vertex $-1 $158 $388 #
straight-curve $-1 -63.097629134488088 7.6940634796293423 17.742129666271651 1 0 0 I I #
coedge $-1 $265 $265 $-1 $389 reversed $161 $-1 #
edge $-1 $390 0 $390 6.2831853071796004 $162 $391 forward 7 unknown #
vertex $-1 $165 $392 #
ellipse-curve $-1 -59.613530293216556 9.820189129143607 15.730584470478604 -0.50000000669873634 0 0.8660253999169214 0.4330126999584607 0 0.25000000334936817 1 I I #
coedge $-1 $269 $269 $-1 $393 reversed $168 $-1 #
edge $-1 $394 0 $394 6.2831853071796004 $169 $395 forward 7 unknown #
vertex $-1 $172 $396 #
ellipse-curve $-1 -59.613530293216556 13.009377603414997 15.730584470478604 -0.50000000669873634 0 0.8660253999169214 0.4330126999584607 0 0.25000000334936817 1 I I #
coedge $-1 $273 $273 $-1 $397 reversed $175 $-1 #
edge $-1 $398 0 $398 6.2831853071796004 $176 $399 forward 7 unknown #
vertex $-1 $179 $400 #
ellipse-curve $-1 -59.613530293216556 16.198566077686387 15.730584470478604 -0.50000000669873634 0 0.8660253999169214 0.4330126999584607 0 0.25000000334936817 1 I I #
face $-1 $-1 $195 $27 $-1 $401 reversed single #
loop $-1 $-1 $293 $180 #
plane-surface $-1 0 36.48848039709295 0 0 -1 0 0 0 -1 forward_v I I I I #
coedge $-1 $402 $291 $294 $403 forward $181 $-1 #
coedge $-1 $297 $183 $184 $285 reversed $113 $-1 #
coedge $-1 $291 $402 $183 $283 reversed $181 $-1 #
edge $-1 $298 -17.742129666271648 $404 17.742129666271648 $282 $405 forward 7 unknown #
coedge $-1 $185 $184 $402 $406 forward $73 $-1 #
edge $-1 $289 -63.097628711813712 $404 63.097628711813712 $281 $407 forward 7 unknown #
coedge $-1 $294 $293 $185 $287 reversed $278 $-1 #
edge $-1 $408 -63.097628711813712 $288 63.097628711813712 $286 $409 forward 7 unknown #
vertex $-1 $187 $410 #
vertex $-1 $300 $411 #
straight-curve $-1 63.097628711813712 0 -17.742129666271648 0 -1 0 I I #
coedge $-1 $280 $282 $188 $292 reversed $181 $-1 #
edge $-1 $295 -36.48848039709295 $298 36.48848039709295 $291 $412 forward 7 unknown #
coedge $-1 $286 $189 $194 $301 forward $278 $-1 #
coedge $-1 $189 $286 $280 $403 reversed $278 $-1 #
vertex $-1 $190 $413 #
straight-curve $-1 0 36.48848039709295 17.742129666271648 -1 0 0 I I #
coedge $-1 $191 $281 $193 $300 reversed $113 $-1 #
vertex $-1 $292 $414 #
straight-curve $-1 0 -36.48848039709295 17.742129666271648 1 0 0 I I #
edge $-1 $196 -17.742129666271648 $289 17.742129666271648 $193 $415 forward 7 unknown #
edge $-1 $197 -17.742129666271648 $288 17.742129666271648 $194 $416 forward 7 unknown #
point $-1 63.097628711813712 -36.48848039709295 17.742129666271648 #
point $-1 63.097628711813712 36.48848039709295 17.742129666271648 #
face $-1 $-1 $417 $28 $-1 $418 reversed single #
loop $-1 $-1 $419 $199 #
plane-surface $-1 0 0 -17.742129666271648 0 0 1 1 0 0 forward_v I I I I #
coedge $-1 $314 $324 $309 $420 forward $200 $-1 #
coedge $-1 $205 $202 $419 $421 reversed $121 $-1 #
coedge $-1 $202 $205 $307 $420 reversed $121 $-1 #
coedge $-1 $422 $423 $202 $311 forward $417 $-1 #
edge $-1 $424 -17.742129666271648 $425 17.742129666271648 $310 $426 forward 7 unknown #
coedge $-1 $419 $208 $203 $313 forward $305 $-1 #
edge $-1 $213 -30.086195509414914 $317 -21.23900921011748 $312 $427 forward 7 unknown #
coedge $-1 $210 $307 $204 $315 forward $200 $-1 #
edge $-1 $316 21.23900921011748 $212 30.086195509414914 $314 $428 forward 7 unknown #
vertex $-1 $315 $429 #
vertex $-1 $313 $430 #
straight-curve $-1 -46.901611569883677 -23.814859220913441 0 0 0 -1 I I #
coedge $-1 $423 $422 $207 $320 forward $417 $-1 #
edge $-1 $325 -17.742129666271648 $322 17.742129666271648 $319 $431 forward 7 unknown #
coedge $-1 $208 $419 $423 $432 forward $305 $-1 #
vertex $-1 $209 $433 #
straight-curve $-1 -55.748797869181111 -15.075834904501598 -17.742129666271648 0 1 0 I I #
coedge $-1 $307 $210 $422 $434 forward $200 $-1 #
vertex $-1 $434 $435 #
straight-curve $-1 -55.748797869181111 -15.075834904501598 17.742129666271648 0 -1 0 I I #
point $-1 -55.748797869181111 -23.814859220913441 17.742129666271648 #
point $-1 -55.748797869181111 -23.814859220913441 -17.742129666271648 #
face $-1 $-1 $342 $29 $-1 $436 reversed single #
loop $-1 $-1 $437 $215 #
plane-surface $-1 0 52.586380789101256 12.926408756855057 0 -1 0 0 0 -1 forward_v I I I I #
coedge $-1 $438 $218 $341 $439 forward $129 $-1 #
coedge $-1 $218 $438 $219 $336 forward $129 $-1 #
edge $-1 $338 -63.097628711813712 $343 63.097628711813712 $218 $440 forward 7 unknown #
coedge $-1 $220 $219 $441 $442 forward $81 $-1 #
edge $-1 $443 -52.586380789101256 $338 -36.48848039709295 $219 $444 forward 7 unknown #
edge $-1 $227 -8.0489501960041494 $445 8.0489501960041494 $220 $446 forward 7 unknown #
vertex $-1 $334 $447 #
straight-curve $-1 -63.097628711813712 36.48848039709295 0 0 0 1 I I #
coedge $-1 $448 $223 $226 $346 reversed $342 $-1 #
coedge $-1 $223 $448 $332 $439 reversed $342 $-1 #
loop $-1 $-1 $223 $329 #
vertex $-1 $439 $449 #
straight-curve $-1 63.097628711813712 36.48848039709295 0 0 0 -1 I I #
coedge $-1 $226 $225 $450 $451 forward $216 $-1 #
edge $-1 $452 -8.0489501960041494 $228 8.0489501960041494 $340 $453 forward 7 unknown #
point $-1 -63.097628711813712 36.488480397092957 8.1106878474384665 #
point $-1 63.097628711813712 36.488480397092957 8.1106878474384665 #
plane-surface $-1 0 0 17.742129666271648 0 0 1 1 0 0 forward_v I I I I #
coedge $-1 $360 $359 $352 $454 forward $231 $-1 #
coedge $-1 $352 $233 $235 $356 reversed $137 $-1 #
coedge $-1 $233 $351 $350 $454 reversed $137 $-1 #
coedge $-1 $241 $236 $233 $354 forward $242 $-1 #
edge $-1 $357 18.225407100611562 $455 22.221370233291964 $353 $456 forward 7 unknown #
coedge $-1 $235 $234 $360 $457 reversed $85 $-1 #
edge $-1 $458 -126.19525742362745 $357 -119.84560904992361 $351 $459 forward 7 unknown #
vertex $-1 $237 $460 #
straight-curve $-1 59.101665579133297 -3.4533542573332916 17.742129666271659 0 -1 0 I I #
coedge $-1 $350 $238 $241 $364 reversed $231 $-1 #
coedge $-1 $238 $350 $355 $457 forward $231 $-1 #
vertex $-1 $239 $461 #
straight-curve $-1 63.097628711813712 -0.99647113026330913 95.148454595197109 0 0 1 I I #
straight-curve $-1 -16.319618749053134 -0.99647113026330913 110.87966172952738 0.62932038083071107 0 -0.77714596973225614 I I #
edge $-1 $455 -12.816945899069857 $243 -0.99647113026330913 $359 $462 forward 7 unknown #
point $-1 63.097628711813712 -0.99647113026330913 17.742129666271648 #
point $-1 59.101665579133311 -0.99647113026330913 17.742129666271651 #
edge $-1 $463 1 $463 0 $246 $-1 forward 7 unknown #
vertex $-1 $247 $464 #
ellipse-curve $-1 57.616649531653337 -6.9067085146665832 12.454352065356474 0.77714596973225614 0 0.62932038083071107 0.9439805712460666 0 -1.1657189545983841 1 I I #
point $-1 62.043627716719577 -6.9067085146665832 14.109108890252816 #
loop $-1 $-1 $258 $250 #
plane-surface $-1 -63.097628711813712 0 0 1 0 0 0 0 -1 forward_v I I I I #
coedge $-1 $374 $253 $255 $378 reversed $152 $-1 #
coedge $-1 $253 $373 $465 $466 reversed $152 $-1 #
coedge $-1 $261 $256 $253 $376 forward $251 $-1 #
edge $-1 $379 -6.9681972598686883 $467 -4.2267437549980968e-007 $375 $468 forward 7 unknown #
coedge $-1 $255 $254 $382 $469 reversed $94 $-1 #
edge $-1 $470 0 $379 8.0461806753736997 $373 $471 forward 7 unknown #
vertex $-1 $257 $472 #
straight-curve $-1 -56.129431874619399 6.5046888017074984 17.742129666271648 0 1 0 I I #
coedge $-1 $465 $258 $261 $386 reversed $371 $-1 #
coedge $-1 $258 $465 $377 $469 forward $371 $-1 #
vertex $-1 $259 $473 #
straight-curve $-1 -63.097628711813712 7.6940634796293423 61.503668776300664 0 0 1 I I #
straight-curve $-1 -63.097628711813712 7.6940634796293423 13.719039274685557 -0.8660253999169214 0 -0.50000000669873634 I I #
edge $-1 $467 -18.324691727200651 $262 -7.6940634796293423 $381 $474 forward 7 unknown #
point $-1 -63.097628711813712 7.6940634796293423 17.742129666271648 #
point $-1 -56.129431874619399 7.6940634796293423 17.742129666271648 #
edge $-1 $475 1 $475 0 $265 $-1 forward 7 unknown #
vertex $-1 $266 $476 #
ellipse-curve $-1 -58.688674480783099 9.820189129143607 14.128687242283625 -0.50000000669873634 0 0.8660253999169214 0.4330126999584607 0 0.25000000334936817 1 I I #
point $-1 -59.180517593258095 9.820189129143607 15.980584473827967 #
edge $-1 $477 1 $477 0 $269 $-1 forward 7 unknown #
vertex $-1 $270 $478 #
ellipse-curve $-1 -58.688674480783099 13.009377603414997 14.128687242283625 -0.50000000669873634 0 0.8660253999169214 0.4330126999584607 0 0.25000000334936817 1 I I #
point $-1 -59.180517593258095 13.009377603414997 15.980584473827967 #
edge $-1 $479 1 $479 0 $273 $-1 forward 7 unknown #
vertex $-1 $274 $480 #
ellipse-curve $-1 -58.688674480783099 16.198566077686387 14.128687242283625 -0.50000000669873634 0 0.8660253999169214 0.4330126999584607 0 0.25000000334936817 1 I I #
point $-1 -59.180517593258095 16.198566077686387 15.980584473827967 #
plane-surface $-1 63.097628711813712 0 0 -1 0 0 0 0 1 forward_v I I I I #
coedge $-1 $282 $280 $284 $406 reversed $181 $-1 #
edge $-1 $295 -17.742129666271648 $408 17.742129666271648 $294 $481 forward 7 unknown #
vertex $-1 $406 $482 #
straight-curve $-1 -63.097628711813712 -36.48848039709295 0 0 0 -1 I I #
edge $-1 $404 -36.48848039709295 $408 36.48848039709295 $402 $483 forward 7 unknown #
straight-curve $-1 0 -36.48848039709295 -17.742129666271648 -1 0 0 I I #
vertex $-1 $287 $484 #
straight-curve $-1 0 36.48848039709295 -17.742129666271648 1 0 0 I I #
point $-1 63.097628711813712 36.48848039709295 -17.742129666271648 #
point $-1 63.097628711813712 -36.48848039709295 -17.742129666271648 #
straight-curve $-1 -63.097628711813712 0 17.742129666271648 0 -1 0 I I #
point $-1 -63.097628711813712 36.48848039709295 17.742129666271648 #
point $-1 -63.097628711813712 -36.48848039709295 17.742129666271648 #
straight-curve $-1 63.097628711813712 -36.48848039709295 0 0 0 -1 I I #
straight-curve $-1 63.097628711813712 36.48848039709295 0 0 0 -1 I I #
loop $-1 $-1 $310 $304 #
plane-surface $-1 0 -36.48848039709295 0 0 1 0 0 0 1 forward_v I I I I #
coedge $-1 $321 $312 $308 $421 forward $305 $-1 #
edge $-1 $425 -21.412645492591352 $316 -8.7390243164118431 $307 $485 forward 7 unknown #
edge $-1 $317 8.7390243164118431 $424 21.412645492591352 $419 $486 forward 7 unknown #
coedge $-1 $319 $310 $324 $434 reversed $417 $-1 #
coedge $-1 $310 $319 $321 $432 reversed $417 $-1 #
vertex $-1 $432 $487 #
vertex $-1 $311 $488 #
straight-curve $-1 -46.901611569883677 -36.48848039709295 0 0 0 1 I I #
straight-curve $-1 -25.662602359766197 -23.814859220913441 -17.742129666271648 1 0 0 I I #
straight-curve $-1 -25.662602359766197 -23.814859220913441 17.742129666271648 -1 0 0 I I #
point $-1 -46.901611569883677 -23.814859220913441 17.742129666271648 #
point $-1 -46.901611569883677 -23.814859220913441 -17.742129666271648 #
straight-curve $-1 -55.748797869181111 -36.48848039709295 0 0 0 -1 I I #
edge $-1 $424 46.901611569883677 $322 55.748797869181111 $423 $489 forward 7 unknown #
point $-1 -55.748797869181111 -36.48848039709295 -17.742129666271648 #
edge $-1 $325 -55.748797869181111 $425 -46.901611569883677 $422 $490 forward 7 unknown #
point $-1 -55.748797869181111 -36.48848039709295 17.742129666271648 #
plane-surface $-1 63.097628711813712 0 0 -1 0 0 0 0 1 forward_v I I I I #
coedge $-1 $450 $491 $448 $492 forward $330 $-1 #
coedge $-1 $333 $332 $491 $493 forward $129 $-1 #
edge $-1 $343 36.48848039709295 $494 52.586380789101256 $341 $495 forward 7 unknown #
straight-curve $-1 0 36.48848039709295 17.742129666271648 1 0 0 I I #
coedge $-1 $491 $450 $335 $442 reversed $330 $-1 #
edge $-1 $443 -4.8157209094165907 $445 4.8157209094165907 $441 $496 forward 7 unknown #
vertex $-1 $493 $497 #
straight-curve $-1 -63.097628711813712 0 17.742129666271648 0 -1 0 I I #
vertex $-1 $451 $498 #
straight-curve $-1 -63.097628711813712 44.537430593097106 8.1106878474384665 0 1 0 I I #
point $-1 -63.097628711813712 36.48848039709295 17.742129666271648 #
coedge $-1 $341 $340 $437 $492 reversed $342 $-1 #
point $-1 63.097628711813712 36.48848039709295 17.742129666271648 #
coedge $-1 $441 $437 $345 $451 reversed $330 $-1 #
edge $-1 $445 -63.097628711813712 $452 63.097628711813712 $450 $499 forward 7 unknown #
vertex $-1 $346 $500 #
straight-curve $-1 63.097628711813712 44.537430593097106 8.1106878474384665 0 -1 0 I I #
edge $-1 $455 77.406324928925457 $458 82.340928571766369 $350 $501 forward 7 unknown #
vertex $-1 $364 $502 #
straight-curve $-1 40.876258478521748 -12.816945899069857 17.742129666271651 1 0 0 I I #
edge $-1 $458 -9.3635916417365657 $361 2.4568831270699825 $360 $503 forward 7 unknown #
vertex $-1 $457 $504 #
straight-curve $-1 -16.319618749053134 -12.816945899069857 110.87966172952738 -0.62932038083071107 0 0.77714596973225614 I I #
point $-1 59.101665579133311 -12.816945899069857 17.742129666271651 #
point $-1 63.097628711813712 -0.99647113026330913 12.807526023430739 #
straight-curve $-1 63.097628711813712 0 17.742129666271648 0 1 0 I I #
vertex $-1 $367 $505 #
point $-1 58.560630102899403 -6.9067085146665832 11.288633110758092 #
coedge $-1 $382 $381 $374 $466 forward $371 $-1 #
edge $-1 $467 43.76153911002902 $470 47.784629501615107 $465 $506 forward 7 unknown #
vertex $-1 $386 $507 #
straight-curve $-1 -63.097629134488088 18.324691727200651 17.742129666271651 -1 0 0 I I #
edge $-1 $470 -11.820002925493153 $383 -1.1893746779218439 $382 $508 forward 7 unknown #
vertex $-1 $469 $509 #
straight-curve $-1 -63.097628711813712 18.324691727200651 13.719039274685557 0.8660253999169214 0 0.50000000669873634 I I #
point $-1 -56.129431874619399 18.324691727200651 17.742129666271648 #
point $-1 -63.097628711813712 7.6940634796293423 13.719039274685557 #
straight-curve $-1 -63.097628711813712 0 17.742129666271648 0 -1 0 I I #
vertex $-1 $389 $510 #
point $-1 -58.255661780824639 9.820189129143607 14.378687245632994 #
vertex $-1 $393 $511 #
point $-1 -58.255661780824639 13.009377603414997 14.378687245632994 #
vertex $-1 $397 $512 #
point $-1 -58.255661780824639 16.198566077686387 14.378687245632994 #
straight-curve $-1 -63.097628711813712 36.48848039709295 0 0 0 -1 I I #
point $-1 -63.097628711813712 -36.48848039709295 -17.742129666271648 #
straight-curve $-1 -63.097628711813712 0 -17.742129666271648 0 1 0 I I #
point $-1 -63.097628711813712 36.48848039709295 -17.742129666271648 #
straight-curve $-1 -46.901611569883677 -15.075834904501598 17.742129666271648 0 1 0 I I #
straight-curve $-1 -46.901611569883677 -15.075834904501598 -17.742129666271648 0 -1 0 I I #
point $-1 -46.901611569883677 -36.48848039709295 -17.742129666271648 #
point $-1 -46.901611569883677 -36.48848039709295 17.742129666271648 #
straight-curve $-1 0 -36.48848039709295 -17.742129666271648 -1 0 0 I I #
straight-curve $-1 0 -36.48848039709295 17.742129666271648 1 0 0 I I #
coedge $-1 $437 $441 $438 $493 reversed $330 $-1 #
edge $-1 $494 -4.8157209094165907 $452 4.8157209094165907 $448 $513 forward 7 unknown #
edge $-1 $494 -63.097628711813712 $443 63.097628711813712 $491 $514 forward 7 unknown #
vertex $-1 $439 $515 #
straight-curve $-1 63.097628711813712 0 17.742129666271648 0 1 0 I I #
straight-curve $-1 -63.097628711813712 52.586380789101256 12.926408756855057 0 0 -1 I I #
point $-1 -63.097628711813712 52.586380789101256 17.742129666271648 #
point $-1 -63.097628711813712 52.586380789101256 8.1106878474384665 #
straight-curve $-1 0 52.586380789101256 8.1106878474384665 1 0 0 I I #
point $-1 63.097628711813712 52.586380789101256 8.1106878474384665 #
straight-curve $-1 63.097628711813712 -12.816945899069857 95.148454595197109 0 0 -1 I I #
point $-1 63.097628711813712 -12.816945899069857 17.742129666271648 #
straight-curve $-1 63.097628711813712 -3.4533542573332916 12.807526023430732 0 1 0 I I #
point $-1 63.097628711813712 -12.816945899069857 12.807526023430739 #
point $-1 56.450930577054947 -6.9067085146665832 11.510371494110409 #
straight-curve $-1 -63.097628711813712 18.324691727200651 61.503668776300664 0 0 -1 I I #
point $-1 -63.097628711813712 18.324691727200651 17.742129666271648 #
straight-curve $-1 -63.097628711813712 6.5046888017074984 13.719039274685557 0 -1 0 I I #
point $-1 -63.097628711813712 18.324691727200651 13.719039274685557 #
point $-1 -58.438674477433729 9.820189129143607 13.695674542325165 #
point $-1 -58.438674477433729 13.009377603414997 13.695674542325165 #
point $-1 -58.438674477433729 16.198566077686387 13.695674542325165 #
straight-curve $-1 63.097628711813712 52.586380789101256 12.926408756855057 0 0 -1 I I #
straight-curve $-1 0 52.586380789101256 17.742129666271648 -1 0 0 I I #
point $-1 63.097628711813712 52.586380789101256 17.742129666271648 #
End-of-ACIS-data 