500 0 3 0           
7 Unknown 11 ACIS 5.0 NT 24 Fri Mar 26 15:15:35 1999 
-1 9.9999999999999995e-007 1e-010 
body $-1 $3 $-1 $4 #
body $-1 $5 $-1 $6 #
body $-1 $7 $-1 $8 #
lump $-1 $-1 $9 $0 #
transform $-1 1 0 0 0 1 0 0 0 1 70.384228034302794 37.26624379985725 11.374580648686553 1 rotate no_reflect no_shear #
lump $-1 $-1 $10 $1 #
transform $-1 1 0 0 0 1 0 0 0 1 70.384228034302794 37.26624379985725 11.374580648686553 1 rotate no_reflect no_shear #
lump $-1 $-1 $11 $2 #
transform $-1 1 0 0 0 1 0 0 0 1 70.384228034302794 37.26624379985725 11.374580648686553 1 rotate no_reflect no_shear #
shell $-1 $-1 $-1 $12 $-1 $3 #
shell $-1 $-1 $-1 $13 $-1 $5 #
shell $-1 $-1 $-1 $14 $-1 $7 #
face $-1 $15 $16 $9 $-1 $17 forward single #
face $-1 $18 $19 $10 $-1 $20 forward single #
face $-1 $21 $22 $11 $-1 $23 reversed single #
face $-1 $24 $25 $9 $-1 $26 reversed single #
loop $-1 $-1 $27 $12 #
plane-surface $-1 0 0 11.374580648686553 0 0 1 1 0 0 forward_v I I I I #
face $-1 $28 $29 $10 $-1 $30 forward single #
loop $-1 $-1 $31 $13 #
plane-surface $-1 -185.6949977392926 -28.425931502231887 85.982896622141652 0 -1 0 0.81915205242281985 0 -0.57357642473473569 forward_v I I I I #
face $-1 $32 $33 $11 $-1 $34 reversed single #
loop $-1 $35 $36 $14 #
cone-surface $-1 -67.045684419587687 -32.84608765104457 7.4738446569198054 0.81915205242281985 0 -0.57357642473473569 0.86036463710210354 0 1.2287280786342298 1 I I 0 1 1.5 forward I I I I #
face $-1 $37 $38 $9 $-1 $39 reversed single #
loop $-1 $-1 $40 $15 #
plane-surface $-1 0 0 -11.374580648686553 0 0 1 1 0 0 forward_v I I I I #
coedge $-1 $41 $42 $43 $44 forward $16 $-1 #
face $-1 $45 $46 $10 $-1 $47 reversed single #
loop $-1 $-1 $48 $18 #
plane-surface $-1 -70.38422803430278 -32.84608765104457 5.2414288748821463 -0.81915205242281985 0 0.57357642473473569 0.57357642473473569 0 0.81915205242281985 forward_v I I I I #
coedge $-1 $49 $50 $51 $52 reversed $19 $-1 #
face $-1 $53 $54 $11 $-1 $55 forward single #
loop $-1 $56 $57 $21 #
cone-surface $-1 -65.240016253248541 -32.84608765104457 6.2095022335042032 0.81915205242281985 0 -0.57357642473473569 0.43018231855105177 0 0.61436403931711492 1 I I -0.70710678118654757 0.70710678118654757 0.75 forward I I I I #
loop $-1 $-1 $58 $14 #
coedge $-1 $36 $36 $59 $60 reversed $22 $-1 #
face $-1 $61 $62 $9 $-1 $63 reversed single #
loop $-1 $-1 $64 $24 #
plane-surface $-1 0 -37.26624379985725 0 0 1 0 0 0 1 forward_v I I I I #
coedge $-1 $65 $66 $67 $68 forward $25 $-1 #
coedge $-1 $69 $27 $70 $71 forward $16 $-1 #
coedge $-1 $27 $69 $72 $73 forward $16 $-1 #
coedge $-1 $74 $75 $27 $44 reversed $76 $-1 #
edge $-1 $77 -37.26624379985725 $78 37.26624379985725 $43 $79 forward 7 unknown #
face $-1 $80 $81 $10 $-1 $82 forward single #
loop $-1 $-1 $83 $28 #
plane-surface $-1 -70.384228034302794 0 0 1 0 0 0 0 -1 forward_v I I I I #
coedge $-1 $84 $85 $83 $86 reversed $29 $-1 #
coedge $-1 $50 $31 $85 $87 forward $19 $-1 #
coedge $-1 $31 $49 $88 $89 reversed $19 $-1 #
coedge $-1 $90 $83 $31 $52 forward $46 $-1 #
edge $-1 $91 -37.750019436188701 $92 -31.616867662384273 $51 $93 forward 7 unknown #
face $-1 $94 $95 $11 $-1 $96 forward single #
loop $-1 $-1 $97 $32 #
plane-surface $-1 -185.6949977392926 -28.425931502231887 85.982896622141652 0 -1 0 0.81915205242281985 0 -0.57357642473473569 forward_v I I I I #
loop $-1 $-1 $98 $21 #
coedge $-1 $57 $57 $58 $99 forward $33 $-1 #
coedge $-1 $58 $58 $57 $99 reversed $35 $-1 #
coedge $-1 $59 $59 $36 $60 forward $95 $-1 #
edge $-1 $100 0 $100 6.2831853071796004 $59 $101 forward 7 unknown #
face $-1 $102 $103 $9 $-1 $104 reversed single #
loop $-1 $-1 $105 $37 #
plane-surface $-1 -70.384228034302794 0 0 1 0 0 0 0 -1 forward_v I I I I #
coedge $-1 $106 $72 $107 $108 forward $38 $-1 #
coedge $-1 $109 $40 $106 $110 forward $25 $-1 #
coedge $-1 $40 $109 $111 $112 forward $25 $-1 #
coedge $-1 $75 $74 $40 $68 reversed $76 $-1 #
edge $-1 $113 -37.26624379985725 $114 37.26624379985725 $67 $115 forward 7 unknown #
coedge $-1 $42 $41 $116 $117 forward $16 $-1 #
coedge $-1 $118 $119 $41 $71 reversed $103 $-1 #
edge $-1 $78 -70.384228034302794 $120 70.384228034302794 $70 $121 forward 7 unknown #
coedge $-1 $64 $122 $42 $73 reversed $38 $-1 #
edge $-1 $123 -70.384228034302794 $77 70.384228034302794 $72 $124 forward 7 unknown #
coedge $-1 $67 $43 $122 $125 forward $76 $-1 #
coedge $-1 $43 $67 $118 $126 reversed $76 $-1 #
loop $-1 $-1 $74 $102 #
vertex $-1 $44 $127 #
vertex $-1 $44 $128 #
straight-curve $-1 70.384228034302794 0 11.374580648686553 0 1 0 I I #
face $-1 $129 $130 $10 $-1 $131 reversed single #
loop $-1 $-1 $88 $45 #
plane-surface $-1 0 0 11.374580648686553 0 0 1 1 0 0 forward_v I I I I #
coedge $-1 $51 $132 $48 $86 forward $46 $-1 #
coedge $-1 $133 $48 $134 $135 reversed $29 $-1 #
coedge $-1 $48 $133 $49 $87 reversed $29 $-1 #
edge $-1 $136 -20.843199974334965 $91 -12.002887676709602 $83 $137 forward 7 unknown #
edge $-1 $91 -2.4884734274515653e-014 $138 7.4871957601330283 $49 $139 forward 7 unknown #
coedge $-1 $140 $141 $50 $89 forward $81 $-1 #
edge $-1 $92 22.463270835343508 $138 26.757749810729692 $88 $142 forward 7 unknown #
coedge $-1 $143 $51 $141 $144 reversed $46 $-1 #
vertex $-1 $86 $145 #
vertex $-1 $89 $146 #
straight-curve $-1 -70.384228034302794 -28.425931502231887 42.991448311070826 0 0 1 I I #
face $-1 $147 $148 $11 $-1 $149 reversed single #
loop $-1 $150 $59 $53 #
plane-surface $-1 -70.38422803430278 -32.84608765104457 5.2414288748821463 -0.81915205242281985 0 0.57357642473473569 0.57357642473473569 0 0.81915205242281985 forward_v I I I I #
coedge $-1 $151 $152 $153 $154 reversed $54 $-1 #
coedge $-1 $98 $98 $-1 $155 forward $56 $-1 #
edge $-1 $156 0 $156 6.2831853071796004 $57 $157 forward 7 unknown #
vertex $-1 $60 $158 #
ellipse-curve $-1 -68.236988546609695 -32.84608765104457 8.3080047617843427 0.81915205242281985 0 -0.57357642473473569 0.86036463710210354 0 1.2287280786342298 1 I I #
face $-1 $-1 $76 $9 $-1 $159 reversed single #
loop $-1 $-1 $118 $61 #
plane-surface $-1 0 37.26624379985725 0 0 -1 0 0 0 -1 forward_v I I I I #
coedge $-1 $160 $116 $119 $161 forward $62 $-1 #
coedge $-1 $122 $64 $65 $110 reversed $38 $-1 #
coedge $-1 $116 $160 $64 $108 reversed $62 $-1 #
edge $-1 $123 -11.374580648686553 $162 11.374580648686553 $107 $163 forward 7 unknown #
coedge $-1 $66 $65 $160 $164 forward $25 $-1 #
edge $-1 $114 -70.384228034302794 $162 70.384228034302794 $106 $165 forward 7 unknown #
coedge $-1 $119 $118 $66 $112 reversed $103 $-1 #
edge $-1 $166 -70.384228034302794 $113 70.384228034302794 $111 $167 forward 7 unknown #
vertex $-1 $68 $168 #
vertex $-1 $125 $169 #
straight-curve $-1 70.384228034302794 0 -11.374580648686553 0 -1 0 I I #
coedge $-1 $105 $107 $69 $117 reversed $62 $-1 #
edge $-1 $120 -37.26624379985725 $123 37.26624379985725 $116 $170 forward 7 unknown #
coedge $-1 $111 $70 $75 $126 forward $103 $-1 #
coedge $-1 $70 $111 $105 $161 reversed $103 $-1 #
vertex $-1 $71 $171 #
straight-curve $-1 0 37.26624379985725 11.374580648686553 -1 0 0 I I #
coedge $-1 $72 $106 $74 $125 reversed $38 $-1 #
vertex $-1 $117 $172 #
straight-curve $-1 0 -37.26624379985725 11.374580648686553 1 0 0 I I #
edge $-1 $77 -11.374580648686553 $114 11.374580648686553 $74 $173 forward 7 unknown #
edge $-1 $78 -11.374580648686553 $113 11.374580648686553 $75 $174 forward 7 unknown #
point $-1 70.384228034302794 -37.26624379985725 11.374580648686553 #
point $-1 70.384228034302794 37.26624379985725 11.374580648686553 #
face $-1 $175 $176 $10 $-1 $177 reversed single #
loop $-1 $-1 $178 $80 #
plane-surface $-1 0 0 -11.374580648686553 0 0 1 1 0 0 forward_v I I I I #
coedge $-1 $83 $179 $180 $181 reversed $46 $-1 #
coedge $-1 $85 $84 $140 $182 reversed $29 $-1 #
coedge $-1 $180 $183 $84 $135 forward $176 $-1 #
edge $-1 $184 10.551407566437872 $136 18.038603326570925 $134 $185 forward 7 unknown #
vertex $-1 $181 $186 #
straight-curve $-1 -70.384228034302794 -16.423043825522285 5.2414288748821347 0 1 0 I I #
vertex $-1 $182 $187 #
straight-curve $-1 -70.38422803430278 -28.425931502231887 5.2414288748821463 0.57357642473473569 0 0.81915205242281985 I I #
coedge $-1 $188 $88 $133 $182 forward $81 $-1 #
coedge $-1 $88 $189 $90 $144 forward $81 $-1 #
straight-curve $-1 -92.847498869646302 -28.425931502231887 11.374580648686553 1 0 0 I I #
coedge $-1 $179 $90 $190 $191 forward $46 $-1 #
edge $-1 $192 -37.26624379985725 $92 28.425931502231887 $90 $193 forward 7 unknown #
point $-1 -70.384228034302794 -28.425931502231887 5.2414288748821258 #
point $-1 -70.384228034302794 -28.425931502231887 11.374580648686553 #
face $-1 $194 $195 $11 $-1 $196 forward single #
loop $-1 $-1 $197 $94 #
plane-surface $-1 -70.384228034302794 0 0 1 0 0 0 0 -1 forward_v I I I I #
loop $-1 $-1 $198 $53 #
coedge $-1 $152 $97 $199 $200 forward $54 $-1 #
coedge $-1 $97 $151 $201 $202 reversed $54 $-1 #
coedge $-1 $203 $197 $97 $154 forward $148 $-1 #
edge $-1 $204 -37.750019436188701 $205 -31.616867662384273 $153 $206 forward 7 unknown #
edge $-1 $207 1 $207 0 $98 $-1 forward 7 unknown #
vertex $-1 $99 $208 #
ellipse-curve $-1 -65.854380292565651 -32.84608765104457 6.6396845520552548 -0.81915205242281985 0 0.57357642473473569 0.86036463710210354 0 1.2287280786342298 1 I I #
point $-1 -67.376623909507614 -32.84608765104457 9.5367328404185852 #
plane-surface $-1 70.384228034302794 0 0 -1 0 0 0 0 1 forward_v I I I I #
coedge $-1 $107 $105 $109 $164 reversed $62 $-1 #
edge $-1 $120 -11.374580648686553 $166 11.374580648686553 $119 $209 forward 7 unknown #
vertex $-1 $164 $210 #
straight-curve $-1 -70.384228034302794 -37.26624379985725 0 0 0 -1 I I #
edge $-1 $162 -37.26624379985725 $166 37.26624379985725 $160 $211 forward 7 unknown #
straight-curve $-1 0 -37.26624379985725 -11.374580648686553 -1 0 0 I I #
vertex $-1 $112 $212 #
straight-curve $-1 0 37.26624379985725 -11.374580648686553 1 0 0 I I #
point $-1 70.384228034302794 37.26624379985725 -11.374580648686553 #
point $-1 70.384228034302794 -37.26624379985725 -11.374580648686553 #
straight-curve $-1 -70.384228034302794 0 11.374580648686553 0 -1 0 I I #
point $-1 -70.384228034302794 37.26624379985725 11.374580648686553 #
point $-1 -70.384228034302794 -37.26624379985725 11.374580648686553 #
straight-curve $-1 70.384228034302794 -37.26624379985725 0 0 0 -1 I I #
straight-curve $-1 70.384228034302794 37.26624379985725 0 0 0 -1 I I #
face $-1 $213 $214 $10 $-1 $215 reversed single #
loop $-1 $-1 $134 $129 #
plane-surface $-1 0 -37.26624379985725 0 0 1 0 0 0 1 forward_v I I I I #
coedge $-1 $216 $217 $218 $219 forward $130 $-1 #
coedge $-1 $132 $143 $220 $221 reversed $46 $-1 #
coedge $-1 $222 $134 $132 $181 forward $176 $-1 #
edge $-1 $136 -5.2414288748821258 $223 11.374580648686553 $132 $224 forward 7 unknown #
edge $-1 $138 12.002887676709602 $184 20.843199974334965 $140 $225 forward 7 unknown #
coedge $-1 $134 $226 $188 $227 reversed $176 $-1 #
vertex $-1 $227 $228 #
straight-curve $-1 -60.037710431040139 -37.26624379985725 20.017787812683807 -0.57357642473473569 0 -0.81915205242281985 I I #
point $-1 -70.384228034302794 -37.26624379985725 5.2414288748821258 #
point $-1 -66.08974905891661 -28.425931502231887 11.374580648686553 #
coedge $-1 $229 $140 $183 $227 forward $81 $-1 #
coedge $-1 $141 $229 $230 $231 forward $81 $-1 #
coedge $-1 $230 $232 $143 $191 reversed $214 $-1 #
edge $-1 $192 -11.374580648686553 $233 11.374580648686553 $190 $234 forward 7 unknown #
vertex $-1 $231 $235 #
straight-curve $-1 -70.384228034302794 0 11.374580648686553 0 -1 0 I I #
face $-1 $236 $237 $11 $-1 $238 reversed single #
loop $-1 $-1 $201 $147 #
plane-surface $-1 0 0 11.374580648686553 0 0 1 1 0 0 forward_v I I I I #
coedge $-1 $153 $239 $198 $240 forward $148 $-1 #
coedge $-1 $241 $199 $197 $240 reversed $150 $-1 #
coedge $-1 $198 $242 $151 $200 reversed $150 $-1 #
edge $-1 $204 -2.4884734274515653e-014 $243 7.4871957601330283 $151 $244 forward 7 unknown #
coedge $-1 $245 $246 $152 $202 forward $195 $-1 #
edge $-1 $205 22.463270835343508 $243 26.757749810729692 $201 $247 forward 7 unknown #
coedge $-1 $248 $153 $246 $249 reversed $148 $-1 #
vertex $-1 $240 $250 #
vertex $-1 $202 $251 #
straight-curve $-1 -70.384228034302794 -28.425931502231887 42.991448311070826 0 0 1 I I #
vertex $-1 $155 $252 #
point $-1 -64.994015655463556 -32.84608765104457 7.8684126306894848 #
straight-curve $-1 -70.384228034302794 37.26624379985725 0 0 0 -1 I I #
point $-1 -70.384228034302794 -37.26624379985725 -11.374580648686553 #
straight-curve $-1 -70.384228034302794 0 -11.374580648686553 0 1 0 I I #
point $-1 -70.384228034302794 37.26624379985725 -11.374580648686553 #
face $-1 $-1 $253 $10 $-1 $254 reversed single #
loop $-1 $-1 $255 $175 #
plane-surface $-1 0 37.26624379985725 0 0 -1 0 0 0 -1 forward_v I I I I #
coedge $-1 $220 $178 $222 $256 forward $130 $-1 #
coedge $-1 $178 $220 $232 $257 forward $130 $-1 #
coedge $-1 $258 $259 $178 $219 reversed $253 $-1 #
edge $-1 $260 -37.26624379985725 $261 37.26624379985725 $218 $262 forward 7 unknown #
coedge $-1 $217 $216 $179 $221 forward $130 $-1 #
edge $-1 $223 -37.26624379985725 $233 37.26624379985725 $179 $263 forward 7 unknown #
coedge $-1 $226 $180 $216 $256 reversed $176 $-1 #
vertex $-1 $221 $264 #
straight-curve $-1 -70.384228034302794 -37.26624379985725 0 0 0 -1 I I #
straight-curve $-1 -66.08974905891661 -16.423043825522285 11.374580648686553 0 -1 0 I I #
coedge $-1 $183 $222 $259 $265 reversed $176 $-1 #
edge $-1 $184 -66.08974905891661 $266 70.384228034302794 $183 $267 forward 7 unknown #
point $-1 -66.08974905891661 -37.26624379985725 11.374580648686553 #
coedge $-1 $189 $188 $268 $269 forward $81 $-1 #
coedge $-1 $255 $190 $189 $231 reversed $214 $-1 #
edge $-1 $270 -70.384228034302794 $192 70.384228034302794 $230 $271 forward 7 unknown #
coedge $-1 $190 $255 $217 $257 reversed $214 $-1 #
vertex $-1 $257 $272 #
straight-curve $-1 -70.384228034302794 37.26624379985725 0 0 0 -1 I I #
point $-1 -70.384228034302794 37.26624379985725 11.374580648686553 #
face $-1 $273 $274 $11 $-1 $275 reversed single #
loop $-1 $-1 $276 $194 #
plane-surface $-1 0 0 -11.374580648686553 0 0 1 1 0 0 forward_v I I I I #
coedge $-1 $197 $277 $278 $279 reversed $148 $-1 #
edge $-1 $280 -20.843199974334965 $204 -12.002887676709602 $197 $281 forward 7 unknown #
coedge $-1 $242 $198 $282 $283 reversed $150 $-1 #
coedge $-1 $199 $241 $245 $284 reversed $150 $-1 #
vertex $-1 $284 $285 #
straight-curve $-1 -70.38422803430278 -28.425931502231887 5.2414288748821463 0.57357642473473569 0 0.81915205242281985 I I #
coedge $-1 $286 $201 $242 $284 forward $195 $-1 #
coedge $-1 $201 $287 $203 $249 forward $195 $-1 #
straight-curve $-1 -92.847498869646302 -28.425931502231887 11.374580648686553 1 0 0 I I #
coedge $-1 $277 $203 $288 $289 forward $148 $-1 #
edge $-1 $290 -37.26624379985725 $205 28.425931502231887 $203 $291 forward 7 unknown #
point $-1 -70.384228034302794 -28.425931502231887 5.2414288748821258 #
point $-1 -70.384228034302794 -28.425931502231887 11.374580648686553 #
point $-1 -64.625652213931431 -32.84608765104457 5.7793199149531516 #
loop $-1 $-1 $259 $213 #
plane-surface $-1 70.384228034302794 0 0 -1 0 0 0 0 1 forward_v I I I I #
coedge $-1 $232 $230 $258 $292 forward $214 $-1 #
edge $-1 $261 -70.384228034302794 $223 70.384228034302794 $222 $293 forward 7 unknown #
edge $-1 $233 -70.384228034302794 $260 70.384228034302794 $232 $294 forward 7 unknown #
coedge $-1 $268 $218 $255 $292 reversed $253 $-1 #
coedge $-1 $218 $268 $226 $265 forward $253 $-1 #
vertex $-1 $219 $295 #
vertex $-1 $265 $296 #
straight-curve $-1 70.384228034302794 0 -11.374580648686553 0 -1 0 I I #
straight-curve $-1 -70.384228034302794 0 -11.374580648686553 0 1 0 I I #
point $-1 -70.384228034302794 -37.26624379985725 -11.374580648686553 #
edge $-1 $266 -11.374580648686553 $261 11.374580648686553 $259 $297 forward 7 unknown #
vertex $-1 $269 $298 #
straight-curve $-1 0 -37.26624379985725 11.374580648686553 1 0 0 I I #
coedge $-1 $259 $258 $229 $269 reversed $253 $-1 #
edge $-1 $266 -37.26624379985725 $270 37.26624379985725 $268 $299 forward 7 unknown #
vertex $-1 $269 $300 #
straight-curve $-1 0 37.26624379985725 11.374580648686553 -1 0 0 I I #
point $-1 -70.384228034302794 37.26624379985725 -11.374580648686553 #
face $-1 $301 $302 $11 $-1 $303 reversed single #
loop $-1 $-1 $282 $236 #
plane-surface $-1 0 -37.26624379985725 0 0 1 0 0 0 1 forward_v I I I I #
coedge $-1 $304 $305 $306 $307 forward $237 $-1 #
coedge $-1 $239 $248 $308 $309 reversed $148 $-1 #
coedge $-1 $310 $282 $239 $279 forward $274 $-1 #
edge $-1 $280 -5.2414288748821258 $311 11.374580648686553 $239 $312 forward 7 unknown #
vertex $-1 $279 $313 #
straight-curve $-1 -70.384228034302794 -16.423043825522285 5.2414288748821347 0 1 0 I I #
coedge $-1 $278 $314 $241 $283 forward $274 $-1 #
edge $-1 $315 10.551407566437872 $280 18.038603326570925 $282 $316 forward 7 unknown #
edge $-1 $243 12.002887676709602 $315 20.843199974334965 $245 $317 forward 7 unknown #
point $-1 -66.08974905891661 -28.425931502231887 11.374580648686553 #
coedge $-1 $318 $245 $314 $319 forward $195 $-1 #
coedge $-1 $246 $318 $320 $321 forward $195 $-1 #
coedge $-1 $320 $322 $248 $289 reversed $302 $-1 #
edge $-1 $290 -11.374580648686553 $323 11.374580648686553 $288 $324 forward 7 unknown #
vertex $-1 $321 $325 #
straight-curve $-1 -70.384228034302794 0 11.374580648686553 0 -1 0 I I #
edge $-1 $270 -11.374580648686553 $260 11.374580648686553 $258 $326 forward 7 unknown #
straight-curve $-1 0 -37.26624379985725 -11.374580648686553 -1 0 0 I I #
straight-curve $-1 0 37.26624379985725 -11.374580648686553 1 0 0 I I #
point $-1 70.384228034302794 37.26624379985725 -11.374580648686553 #
point $-1 70.384228034302794 -37.26624379985725 -11.374580648686553 #
straight-curve $-1 70.384228034302794 -37.26624379985725 0 0 0 -1 I I #
point $-1 70.384228034302794 -37.26624379985725 11.374580648686553 #
straight-curve $-1 70.384228034302794 0 11.374580648686553 0 1 0 I I #
point $-1 70.384228034302794 37.26624379985725 11.374580648686553 #
face $-1 $-1 $327 $11 $-1 $328 reversed single #
loop $-1 $-1 $329 $273 #
plane-surface $-1 0 37.26624379985725 0 0 -1 0 0 0 -1 forward_v I I I I #
coedge $-1 $308 $276 $310 $330 forward $237 $-1 #
coedge $-1 $276 $308 $322 $331 forward $237 $-1 #
coedge $-1 $332 $333 $276 $307 reversed $327 $-1 #
edge $-1 $334 -37.26624379985725 $335 37.26624379985725 $306 $336 forward 7 unknown #
coedge $-1 $305 $304 $277 $309 forward $237 $-1 #
edge $-1 $311 -37.26624379985725 $323 37.26624379985725 $277 $337 forward 7 unknown #
coedge $-1 $338 $278 $304 $330 reversed $274 $-1 #
vertex $-1 $309 $339 #
straight-curve $-1 -70.384228034302794 -37.26624379985725 0 0 0 -1 I I #
point $-1 -70.384228034302794 -37.26624379985725 5.2414288748821258 #
coedge $-1 $282 $338 $286 $319 reversed $274 $-1 #
vertex $-1 $319 $340 #
straight-curve $-1 -60.037710431040139 -37.26624379985725 20.017787812683807 -0.57357642473473569 0 -0.81915205242281985 I I #
straight-curve $-1 -66.08974905891661 -16.423043825522285 11.374580648686553 0 -1 0 I I #
coedge $-1 $287 $286 $341 $342 forward $195 $-1 #
edge $-1 $315 -66.08974905891661 $343 70.384228034302794 $314 $344 forward 7 unknown #
coedge $-1 $329 $288 $287 $321 reversed $302 $-1 #
edge $-1 $345 -70.384228034302794 $290 70.384228034302794 $320 $346 forward 7 unknown #
coedge $-1 $288 $329 $305 $331 reversed $302 $-1 #
vertex $-1 $331 $347 #
straight-curve $-1 -70.384228034302794 37.26624379985725 0 0 0 -1 I I #
point $-1 -70.384228034302794 37.26624379985725 11.374580648686553 #
straight-curve $-1 70.384228034302794 37.26624379985725 0 0 0 -1 I I #
loop $-1 $-1 $333 $301 #
plane-surface $-1 70.384228034302794 0 0 -1 0 0 0 0 1 forward_v I I I I #
coedge $-1 $322 $320 $332 $348 forward $302 $-1 #
edge $-1 $335 -70.384228034302794 $311 70.384228034302794 $310 $349 forward 7 unknown #
edge $-1 $323 -70.384228034302794 $334 70.384228034302794 $322 $350 forward 7 unknown #
coedge $-1 $341 $306 $329 $348 reversed $327 $-1 #
coedge $-1 $306 $341 $338 $351 forward $327 $-1 #
vertex $-1 $307 $352 #
vertex $-1 $351 $353 #
straight-curve $-1 70.384228034302794 0 -11.374580648686553 0 -1 0 I I #
straight-curve $-1 -70.384228034302794 0 -11.374580648686553 0 1 0 I I #
coedge $-1 $314 $310 $333 $351 reversed $274 $-1 #
point $-1 -70.384228034302794 -37.26624379985725 -11.374580648686553 #
point $-1 -66.08974905891661 -37.26624379985725 11.374580648686553 #
coedge $-1 $333 $332 $318 $342 reversed $327 $-1 #
edge $-1 $343 -37.26624379985725 $345 37.26624379985725 $341 $354 forward 7 unknown #
vertex $-1 $342 $355 #
straight-curve $-1 0 -37.26624379985725 11.374580648686553 1 0 0 I I #
vertex $-1 $342 $356 #
straight-curve $-1 0 37.26624379985725 11.374580648686553 -1 0 0 I I #
point $-1 -70.384228034302794 37.26624379985725 -11.374580648686553 #
edge $-1 $345 -11.374580648686553 $334 11.374580648686553 $332 $357 forward 7 unknown #
straight-curve $-1 0 -37.26624379985725 -11.374580648686553 -1 0 0 I I #
straight-curve $-1 0 37.26624379985725 -11.374580648686553 1 0 0 I I #
edge $-1 $343 -11.374580648686553 $335 11.374580648686553 $333 $358 forward 7 unknown #
point $-1 70.384228034302794 37.26624379985725 -11.374580648686553 #
point $-1 70.384228034302794 -37.26624379985725 -11.374580648686553 #
straight-curve $-1 70.384228034302794 0 11.374580648686553 0 1 0 I I #
point $-1 70.384228034302794 -37.26624379985725 11.374580648686553 #
point $-1 70.384228034302794 37.26624379985725 11.374580648686553 #
straight-curve $-1 70.384228034302794 37.26624379985725 0 0 0 -1 I I #
straight-curve $-1 70.384228034302794 -37.26624379985725 0 0 0 -1 I I #
End-of-ACIS-data 