500 0 7 0           
7 Unknown 11 ACIS 5.0 NT 24 Fri Mar 26 02:39:26 1999 
-1 9.9999999999999995e-007 1e-010 
body $-1 $7 $-1 $8 #
body $-1 $9 $-1 $10 #
body $-1 $11 $-1 $12 #
body $-1 $13 $-1 $14 #
body $-1 $15 $-1 $16 #
body $-1 $17 $-1 $18 #
body $-1 $19 $-1 $20 #
lump $-1 $-1 $21 $0 #
transform $-1 1 0 0 0 1 0 0 0 1 56.417737357707452 39.162349917555083 13.909225619389096 1 rotate no_reflect no_shear #
lump $-1 $-1 $22 $1 #
transform $-1 1 0 0 0 1 0 0 0 1 56.417737357707452 39.162349917555083 13.909225619389096 1 rotate no_reflect no_shear #
lump $-1 $-1 $23 $2 #
transform $-1 1 0 0 0 1 0 0 0 1 56.417737357707452 39.162349917555083 13.909225619389096 1 rotate no_reflect no_shear #
lump $-1 $-1 $24 $3 #
transform $-1 1 0 0 0 1 0 0 0 1 56.417737357707452 39.162349917555083 13.909225619389096 1 rotate no_reflect no_shear #
lump $-1 $-1 $25 $4 #
transform $-1 1 0 0 0 1 0 0 0 1 56.417737357707452 39.162349917555083 13.909225619389096 1 rotate no_reflect no_shear #
lump $-1 $-1 $26 $5 #
transform $-1 1 0 0 0 1 0 0 0 1 56.417737357707452 39.162349917555083 13.909225619389096 1 rotate no_reflect no_shear #
lump $-1 $-1 $27 $6 #
transform $-1 1 0 0 0 1 0 0 0 1 56.417737357707452 39.162349917555083 13.909225619389096 1 rotate no_reflect no_shear #
shell $-1 $-1 $-1 $28 $-1 $7 #
shell $-1 $-1 $-1 $29 $-1 $9 #
shell $-1 $-1 $-1 $30 $-1 $11 #
shell $-1 $-1 $-1 $31 $-1 $13 #
shell $-1 $-1 $-1 $32 $-1 $15 #
shell $-1 $-1 $-1 $33 $-1 $17 #
shell $-1 $-1 $-1 $34 $-1 $19 #
face $-1 $35 $36 $21 $-1 $37 forward single #
face $-1 $38 $39 $22 $-1 $40 forward single #
face $-1 $41 $42 $23 $-1 $43 forward single #
face $-1 $44 $45 $24 $-1 $46 reversed single #
face $-1 $47 $48 $25 $-1 $49 forward single #
face $-1 $50 $51 $26 $-1 $52 reversed single #
face $-1 $53 $54 $27 $-1 $55 forward single #
face $-1 $56 $57 $21 $-1 $58 reversed single #
loop $-1 $-1 $59 $28 #
plane-surface $-1 0 0 13.909225619389096 0 0 1 1 0 0 forward_v I I I I #
face $-1 $60 $61 $22 $-1 $62 reversed single #
loop $-1 $-1 $63 $29 #
plane-surface $-1 0 -34.042658010473176 -3.6254529009907688 0 0 1 1 0 0 forward_v I I I I #
face $-1 $64 $65 $23 $-1 $66 reversed single #
loop $-1 $-1 $67 $30 #
plane-surface $-1 0 34.042658010473183 -3.6254529009907688 0 0 1 1 0 0 forward_v I I I I #
face $-1 $68 $69 $24 $-1 $70 reversed single #
loop $-1 $-1 $71 $31 #
plane-surface $-1 39.73777054154948 13.693955474778257 169.06051612272299 0 1 0 0.62932039886446345 0 0.77714595512881146 forward_v I I I I #
face $-1 $72 $73 $25 $-1 $74 forward single #
loop $-1 $75 $76 $32 #
cone-surface $-1 53.270387471218783 19.56245930278066 10.953872851764787 -0.62932039886446345 0 -0.77714595512881146 0.77714595512881146 0 -0.62932039886446345 1 I I 0 1 1 forward I I I I #
face $-1 $77 $78 $26 $-1 $79 reversed single #
loop $-1 $-1 $80 $33 #
plane-surface $-1 -127.42740331167344 25.430963130783063 98.050850168756995 0 -1 0 0.62932039886446345 0 -0.77714595512881146 forward_v I I I I #
face $-1 $81 $82 $27 $-1 $83 forward single #
loop $-1 $84 $85 $34 #
cone-surface $-1 -53.270387471218783 19.56245930278066 10.953872851764787 0.62932039886446345 0 -0.77714595512881146 0.77714595512881146 0 0.62932039886446345 1 I I 0 1 1 forward I I I I #
face $-1 $86 $87 $21 $-1 $88 reversed single #
loop $-1 $-1 $89 $35 #
plane-surface $-1 0 0 -13.909225619389096 0 0 1 1 0 0 forward_v I I I I #
coedge $-1 $90 $91 $92 $93 forward $36 $-1 #
face $-1 $94 $95 $22 $-1 $96 reversed single #
loop $-1 $-1 $97 $38 #
plane-surface $-1 0 -34.042658010473176 -7.4759911130174572 0 0 1 1 0 0 forward_v I I I I #
coedge $-1 $98 $99 $100 $101 reversed $39 $-1 #
face $-1 $102 $103 $23 $-1 $104 reversed single #
loop $-1 $-1 $105 $41 #
plane-surface $-1 0 34.042658010473183 -7.4759911130174572 0 0 1 1 0 0 forward_v I I I I #
coedge $-1 $106 $107 $108 $109 reversed $42 $-1 #
face $-1 $110 $111 $24 $-1 $112 reversed single #
loop $-1 $-1 $113 $44 #
plane-surface $-1 -31.271895412416512 19.56245930278066 81.370883352599023 0.62932039886446345 0 0.77714595512881146 0.77714595512881146 0 -0.62932039886446345 forward_v I I I I #
coedge $-1 $114 $115 $116 $117 reversed $45 $-1 #
face $-1 $-1 $118 $25 $-1 $119 forward single #
loop $-1 $120 $121 $47 #
cone-surface $-1 51.999089971843333 19.56245930278066 9.3839512169541113 -0.62932039886446345 0 -0.77714595512881146 0.38857297756440573 0 -0.31466019943223172 1 I I -0.70710678118654746 0.70710678118654746 0.5 forward I I I I #
loop $-1 $-1 $122 $32 #
coedge $-1 $76 $76 $123 $124 reversed $48 $-1 #
face $-1 $125 $126 $26 $-1 $127 reversed single #
loop $-1 $-1 $128 $50 #
plane-surface $-1 -56.417737357707452 19.56245930278066 10.36121739863303 -0.62932039886446345 0 0.77714595512881146 0.77714595512881146 0 0.62932039886446345 forward_v I I I I #
coedge $-1 $129 $130 $131 $132 reversed $51 $-1 #
face $-1 $-1 $133 $27 $-1 $134 forward single #
loop $-1 $135 $136 $53 #
cone-surface $-1 -51.999089971843333 19.56245930278066 9.3839512169541113 0.62932039886446345 0 -0.77714595512881146 0.38857297756440573 0 0.31466019943223172 1 I I -0.70710678118654746 0.70710678118654746 0.5 forward I I I I #
loop $-1 $-1 $137 $34 #
coedge $-1 $85 $85 $138 $139 reversed $54 $-1 #
face $-1 $140 $141 $21 $-1 $142 reversed single #
loop $-1 $-1 $143 $56 #
plane-surface $-1 0 -39.162349917555083 0 0 1 0 0 0 1 forward_v I I I I #
coedge $-1 $144 $145 $146 $147 forward $57 $-1 #
coedge $-1 $148 $59 $149 $150 forward $36 $-1 #
coedge $-1 $59 $148 $151 $152 forward $36 $-1 #
coedge $-1 $153 $154 $59 $93 reversed $155 $-1 #
edge $-1 $156 -39.162349917555083 $157 39.162349917555083 $92 $158 forward 7 unknown #
face $-1 $159 $160 $22 $-1 $161 reversed single #
loop $-1 $-1 $162 $60 #
plane-surface $-1 0 -28.922966103391271 -5.5507220070041132 0 -1 0 0 0 -1 forward_v I I I I #
coedge $-1 $163 $164 $165 $166 reversed $61 $-1 #
coedge $-1 $167 $63 $168 $169 forward $39 $-1 #
coedge $-1 $63 $167 $170 $171 reversed $39 $-1 #
coedge $-1 $172 $173 $63 $101 forward $174 $-1 #
edge $-1 $175 11.901637098154684 $176 22.141020912318496 $100 $177 forward 7 unknown #
face $-1 $178 $179 $23 $-1 $180 reversed single #
loop $-1 $-1 $181 $64 #
plane-surface $-1 0 28.922966103391275 -5.5507220070041132 0 1 0 0 0 1 forward_v I I I I #
coedge $-1 $182 $183 $184 $185 reversed $65 $-1 #
coedge $-1 $186 $67 $187 $188 reversed $42 $-1 #
coedge $-1 $67 $186 $189 $190 forward $42 $-1 #
coedge $-1 $191 $192 $67 $109 forward $179 $-1 #
edge $-1 $193 -22.141020912318499 $194 -11.901637098154684 $108 $195 forward 7 unknown #
face $-1 $196 $197 $24 $-1 $198 forward single #
loop $-1 $-1 $199 $68 #
plane-surface $-1 39.73777054154948 25.430963130783063 169.06051612272299 0 -1 0 -0.62932039886446345 0 -0.77714595512881146 forward_v I I I I #
coedge $-1 $200 $201 $202 $203 reversed $69 $-1 #
coedge $-1 $115 $71 $204 $205 reversed $45 $-1 #
coedge $-1 $71 $114 $200 $206 reversed $45 $-1 #
coedge $-1 $202 $207 $71 $117 forward $208 $-1 #
edge $-1 $209 70.621032441972403 $210 74.169040662728449 $116 $211 forward 7 unknown #
loop $-1 $-1 $123 $72 #
plane-surface $-1 -31.271895412416512 19.56245930278066 81.370883352599023 0.62932039886446345 0 0.77714595512881146 0.77714595512881146 0 -0.62932039886446345 forward_v I I I I #
loop $-1 $-1 $212 $47 #
coedge $-1 $121 $121 $122 $213 reversed $73 $-1 #
coedge $-1 $122 $122 $121 $213 forward $75 $-1 #
coedge $-1 $123 $123 $76 $124 forward $118 $-1 #
edge $-1 $214 0 $214 6.2831853071796004 $123 $215 forward 7 unknown #
face $-1 $216 $217 $26 $-1 $218 reversed single #
loop $-1 $-1 $219 $77 #
plane-surface $-1 -127.42740331167344 13.693955474778257 98.050850168756995 0 1 0 -0.62932039886446345 0 0.77714595512881146 forward_v I I I I #
coedge $-1 $220 $221 $222 $223 reversed $78 $-1 #
coedge $-1 $130 $80 $224 $225 reversed $51 $-1 #
coedge $-1 $80 $129 $220 $226 reversed $51 $-1 #
coedge $-1 $222 $227 $80 $132 forward $217 $-1 #
edge $-1 $228 35.1161994649894 $229 38.664207685745467 $131 $230 forward 7 unknown #
loop $-1 $-1 $138 $81 #
plane-surface $-1 -56.417737357707452 19.56245930278066 10.36121739863303 -0.62932039886446345 0 0.77714595512881146 0.77714595512881146 0 0.62932039886446345 forward_v I I I I #
loop $-1 $-1 $231 $53 #
coedge $-1 $136 $136 $137 $232 reversed $82 $-1 #
coedge $-1 $137 $137 $136 $232 forward $84 $-1 #
coedge $-1 $138 $138 $85 $139 forward $133 $-1 #
edge $-1 $233 0 $233 6.2831853071796004 $138 $234 forward 7 unknown #
face $-1 $235 $236 $21 $-1 $237 reversed single #
loop $-1 $-1 $238 $86 #
plane-surface $-1 -56.417737357707452 0 0 1 0 0 0 0 -1 forward_v I I I I #
coedge $-1 $239 $151 $240 $241 forward $87 $-1 #
coedge $-1 $242 $89 $239 $243 forward $57 $-1 #
coedge $-1 $89 $242 $244 $245 forward $57 $-1 #
coedge $-1 $154 $153 $89 $147 reversed $155 $-1 #
edge $-1 $246 -39.162349917555083 $247 39.162349917555083 $146 $248 forward 7 unknown #
coedge $-1 $91 $90 $249 $250 forward $36 $-1 #
coedge $-1 $251 $252 $90 $150 reversed $236 $-1 #
edge $-1 $157 -56.417737357707452 $253 56.417737357707452 $149 $254 forward 7 unknown #
coedge $-1 $143 $255 $91 $152 reversed $87 $-1 #
edge $-1 $256 -56.417737357707452 $156 56.417737357707452 $151 $257 forward 7 unknown #
coedge $-1 $146 $92 $255 $258 forward $155 $-1 #
coedge $-1 $92 $146 $251 $259 reversed $155 $-1 #
loop $-1 $-1 $153 $235 #
vertex $-1 $93 $260 #
vertex $-1 $93 $261 #
straight-curve $-1 56.417737357707452 0 13.909225619389096 0 1 0 I I #
face $-1 $262 $263 $22 $-1 $264 reversed single #
loop $-1 $-1 $265 $94 #
plane-surface $-1 -56.417737357707452 0 0 1 0 0 0 0 -1 forward_v I I I I #
coedge $-1 $266 $168 $173 $267 reversed $95 $-1 #
coedge $-1 $268 $97 $269 $270 reversed $61 $-1 #
coedge $-1 $97 $268 $266 $271 forward $61 $-1 #
coedge $-1 $173 $172 $97 $166 forward $174 $-1 #
edge $-1 $272 -22.141020912318496 $273 -11.901637098154684 $165 $274 forward 7 unknown #
coedge $-1 $99 $98 $265 $275 reversed $39 $-1 #
coedge $-1 $162 $276 $98 $169 reversed $95 $-1 #
edge $-1 $175 -56.417737357707452 $277 56.417737357707452 $168 $278 forward 7 unknown #
coedge $-1 $279 $280 $99 $171 forward $263 $-1 #
edge $-1 $176 -56.417737357707452 $281 56.417737357707452 $170 $282 forward 7 unknown #
coedge $-1 $165 $100 $280 $283 forward $174 $-1 #
coedge $-1 $100 $165 $162 $267 forward $174 $-1 #
loop $-1 $-1 $100 $262 #
vertex $-1 $101 $284 #
vertex $-1 $283 $285 #
straight-curve $-1 56.417737357707452 -17.021329005236588 -3.6254529009907688 0 -1 0 I I #
face $-1 $286 $287 $23 $-1 $288 reversed single #
loop $-1 $-1 $108 $102 #
plane-surface $-1 56.417737357707452 0 0 -1 0 0 0 0 1 forward_v I I I I #
coedge $-1 $289 $189 $290 $291 reversed $103 $-1 #
coedge $-1 $292 $105 $289 $293 forward $65 $-1 #
coedge $-1 $105 $292 $294 $295 reversed $65 $-1 #
coedge $-1 $192 $191 $105 $185 forward $179 $-1 #
edge $-1 $296 11.901637098154684 $297 22.141020912318499 $184 $298 forward 7 unknown #
coedge $-1 $107 $106 $299 $300 reversed $42 $-1 #
coedge $-1 $301 $302 $106 $188 forward $303 $-1 #
edge $-1 $304 -56.417737357707452 $193 56.417737357707452 $187 $305 forward 7 unknown #
coedge $-1 $181 $306 $107 $190 reversed $103 $-1 #
edge $-1 $307 -56.417737357707452 $194 56.417737357707452 $189 $308 forward 7 unknown #
coedge $-1 $184 $108 $306 $309 forward $179 $-1 #
coedge $-1 $108 $184 $301 $310 reversed $179 $-1 #
vertex $-1 $310 $311 #
vertex $-1 $109 $312 #
straight-curve $-1 56.417737357707452 17.021329005236591 -3.6254529009907688 0 -1 0 I I #
face $-1 $-1 $208 $24 $-1 $313 reversed single #
loop $-1 $-1 $314 $110 #
plane-surface $-1 0 0 13.909225619389096 0 0 1 1 0 0 forward_v I I I I #
coedge $-1 $315 $316 $317 $318 reversed $111 $-1 #
coedge $-1 $319 $113 $115 $206 forward $69 $-1 #
coedge $-1 $113 $319 $315 $320 forward $69 $-1 #
coedge $-1 $317 $116 $113 $203 forward $208 $-1 #
edge $-1 $210 3.9127258233879267 $321 15.649733479392733 $202 $322 forward 7 unknown #
coedge $-1 $323 $324 $114 $205 forward $197 $-1 #
edge $-1 $325 32.167426913841865 $209 36.548852086932712 $204 $326 forward 7 unknown #
edge $-1 $210 -112.8354747154149 $325 -107.19763391578719 $115 $327 forward 7 unknown #
coedge $-1 $116 $317 $323 $328 reversed $208 $-1 #
loop $-1 $-1 $317 $196 #
vertex $-1 $328 $329 #
vertex $-1 $117 $330 #
straight-curve $-1 56.417737357707452 13.693955474778257 84.530258061361494 0 0 -1 I I #
coedge $-1 $212 $212 $-1 $331 reversed $120 $-1 #
edge $-1 $332 0 $332 6.2831853071796004 $121 $333 forward 7 unknown #
vertex $-1 $124 $334 #
ellipse-curve $-1 54.227024771162014 19.56245930278066 12.135221509011073 0.62932039886446345 0 0.77714595512881146 0.77714595512881146 0 -0.62932039886446345 1 I I #
face $-1 $-1 $335 $26 $-1 $336 forward single #
loop $-1 $-1 $131 $125 #
plane-surface $-1 -56.417737357707452 0 0 1 0 0 0 0 -1 forward_v I I I I #
coedge $-1 $337 $338 $339 $340 reversed $126 $-1 #
coedge $-1 $341 $128 $130 $226 forward $78 $-1 #
coedge $-1 $128 $341 $337 $342 forward $78 $-1 #
coedge $-1 $339 $131 $128 $223 forward $217 $-1 #
edge $-1 $229 -15.649733479392733 $343 -3.9127258233879267 $222 $344 forward 7 unknown #
coedge $-1 $345 $346 $129 $225 forward $335 $-1 #
edge $-1 $347 -11.677389471220138 $228 -7.2959642981292703 $224 $348 forward 7 unknown #
edge $-1 $229 0 $347 5.6378407996277229 $130 $349 forward 7 unknown #
coedge $-1 $131 $339 $345 $350 reversed $217 $-1 #
vertex $-1 $350 $351 #
vertex $-1 $132 $352 #
straight-curve $-1 -56.417737357707452 25.430963130783063 49.025425084378497 0 0 -1 I I #
coedge $-1 $231 $231 $-1 $353 reversed $135 $-1 #
edge $-1 $354 0 $354 6.2831853071796004 $136 $355 forward 7 unknown #
vertex $-1 $139 $356 #
ellipse-curve $-1 -54.227024771162014 19.56245930278066 12.135221509011068 -0.62932039886446345 0 0.77714595512881146 0.77714595512881146 0 0.62932039886446345 1 I I #
face $-1 $-1 $155 $21 $-1 $357 reversed single #
loop $-1 $-1 $251 $140 #
plane-surface $-1 0 39.162349917555083 0 0 -1 0 0 0 -1 forward_v I I I I #
coedge $-1 $358 $249 $252 $359 forward $141 $-1 #
coedge $-1 $255 $143 $144 $243 reversed $87 $-1 #
coedge $-1 $249 $358 $143 $241 reversed $141 $-1 #
edge $-1 $256 -13.909225619389096 $360 13.909225619389096 $240 $361 forward 7 unknown #
coedge $-1 $145 $144 $358 $362 forward $57 $-1 #
edge $-1 $247 -56.417737357707452 $360 56.417737357707452 $239 $363 forward 7 unknown #
coedge $-1 $252 $251 $145 $245 reversed $236 $-1 #
edge $-1 $364 -56.417737357707452 $246 56.417737357707452 $244 $365 forward 7 unknown #
vertex $-1 $147 $366 #
vertex $-1 $258 $367 #
straight-curve $-1 56.417737357707452 0 -13.909225619389096 0 -1 0 I I #
coedge $-1 $238 $240 $148 $250 reversed $141 $-1 #
edge $-1 $253 -39.162349917555083 $256 39.162349917555083 $249 $368 forward 7 unknown #
coedge $-1 $244 $149 $154 $259 forward $236 $-1 #
coedge $-1 $149 $244 $238 $359 reversed $236 $-1 #
vertex $-1 $150 $369 #
straight-curve $-1 0 39.162349917555083 13.909225619389096 -1 0 0 I I #
coedge $-1 $151 $239 $153 $258 reversed $87 $-1 #
vertex $-1 $250 $370 #
straight-curve $-1 0 -39.162349917555083 13.909225619389096 1 0 0 I I #
edge $-1 $156 -13.909225619389096 $247 13.909225619389096 $153 $371 forward 7 unknown #
edge $-1 $157 -13.909225619389096 $246 13.909225619389096 $154 $372 forward 7 unknown #
point $-1 56.417737357707452 -39.162349917555083 13.909225619389096 #
point $-1 56.417737357707452 39.162349917555083 13.909225619389096 #
face $-1 $-1 $174 $22 $-1 $373 reversed single #
loop $-1 $-1 $170 $159 #
plane-surface $-1 0 -39.162349917555083 0 0 1 0 0 0 1 forward_v I I I I #
coedge $-1 $374 $375 $167 $275 forward $160 $-1 #
coedge $-1 $276 $162 $164 $271 reversed $95 $-1 #
edge $-1 $273 -4.7006301095154006 $175 -0.85009189748871217 $173 $376 forward 7 unknown #
coedge $-1 $164 $163 $377 $378 reversed $61 $-1 #
coedge $-1 $280 $279 $163 $270 forward $263 $-1 #
edge $-1 $379 -56.417737357707452 $272 56.417737357707452 $269 $380 forward 7 unknown #
edge $-1 $381 -56.417737357707452 $273 56.417737357707452 $266 $382 forward 7 unknown #
vertex $-1 $270 $383 #
vertex $-1 $166 $384 #
straight-curve $-1 56.417737357707452 -17.021329005236588 -7.4759911130174572 0 1 0 I I #
edge $-1 $281 -22.141020912318496 $277 -11.901637098154684 $265 $385 forward 7 unknown #
coedge $-1 $168 $266 $374 $386 reversed $95 $-1 #
vertex $-1 $275 $387 #
straight-curve $-1 0 -28.922966103391271 -3.6254529009907688 -1 0 0 I I #
coedge $-1 $269 $170 $375 $388 forward $263 $-1 #
coedge $-1 $170 $269 $172 $283 reversed $263 $-1 #
vertex $-1 $388 $389 #
straight-curve $-1 0 -39.162349917555083 -3.6254529009907688 -1 0 0 I I #
edge $-1 $176 3.6254529009907688 $272 7.4759911130174572 $172 $390 forward 7 unknown #
point $-1 56.417737357707452 -28.922966103391271 -3.6254529009907688 #
point $-1 56.417737357707452 -39.162349917555083 -3.6254529009907688 #
face $-1 $-1 $303 $23 $-1 $391 reversed single #
loop $-1 $-1 $299 $178 #
plane-surface $-1 -56.417737357707452 0 0 1 0 0 0 0 -1 forward_v I I I I #
coedge $-1 $306 $181 $182 $293 reversed $103 $-1 #
coedge $-1 $299 $392 $181 $291 forward $287 $-1 #
edge $-1 $393 -4.7006301095154006 $307 -0.85009189748871217 $290 $394 forward 7 unknown #
coedge $-1 $183 $182 $392 $395 reversed $65 $-1 #
edge $-1 $296 -56.417737357707452 $393 56.417737357707452 $289 $396 forward 7 unknown #
coedge $-1 $302 $301 $183 $295 forward $303 $-1 #
edge $-1 $297 -56.417737357707452 $397 56.417737357707452 $294 $398 forward 7 unknown #
vertex $-1 $185 $399 #
vertex $-1 $295 $400 #
straight-curve $-1 56.417737357707452 17.021329005236591 -7.4759911130174572 0 1 0 I I #
coedge $-1 $401 $290 $186 $300 forward $287 $-1 #
edge $-1 $307 11.901637098154684 $304 22.141020912318499 $299 $402 forward 7 unknown #
coedge $-1 $294 $187 $192 $310 forward $303 $-1 #
coedge $-1 $187 $294 $401 $403 reversed $303 $-1 #
loop $-1 $-1 $187 $286 #
vertex $-1 $403 $404 #
straight-curve $-1 0 39.162349917555083 -3.6254529009907688 1 0 0 I I #
coedge $-1 $189 $289 $191 $309 reversed $103 $-1 #
vertex $-1 $300 $405 #
straight-curve $-1 0 28.922966103391275 -3.6254529009907688 1 0 0 I I #
edge $-1 $194 0.85009189748871217 $296 4.7006301095154006 $191 $406 forward 7 unknown #
edge $-1 $193 3.6254529009907688 $297 7.4759911130174572 $192 $407 forward 7 unknown #
point $-1 56.417737357707452 39.16234991755509 -3.6254529009907688 #
point $-1 56.417737357707452 28.922966103391275 -3.6254529009907688 #
plane-surface $-1 56.417737357707452 0 0 -1 0 0 0 0 1 forward_v I I I I #
coedge $-1 $324 $323 $316 $408 forward $197 $-1 #
coedge $-1 $316 $199 $201 $320 reversed $111 $-1 #
coedge $-1 $199 $315 $314 $408 reversed $111 $-1 #
coedge $-1 $207 $202 $199 $318 forward $208 $-1 #
edge $-1 $321 -74.169040662728449 $409 -70.621032441972403 $317 $410 forward 7 unknown #
coedge $-1 $201 $200 $324 $411 reversed $69 $-1 #
edge $-1 $412 107.19763391578719 $321 112.8354747154149 $315 $413 forward 7 unknown #
vertex $-1 $203 $414 #
straight-curve $-1 56.417737357707452 9.7812296513903298 10.361217398633045 0 1 0 I I #
coedge $-1 $314 $204 $207 $328 forward $197 $-1 #
coedge $-1 $204 $314 $319 $411 forward $197 $-1 #
vertex $-1 $205 $415 #
straight-curve $-1 19.86888527077474 13.693955474778257 13.90922561938909 1 0 0 I I #
straight-curve $-1 -31.271895412416512 13.693955474778257 81.370883352599023 -0.77714595512881146 0 0.62932039886446345 I I #
edge $-1 $209 13.693955474778257 $409 25.430963130783063 $207 $416 forward 7 unknown #
point $-1 56.417737357707452 13.693955474778257 13.909225619389096 #
point $-1 56.417737357707452 13.693955474778257 10.361217398633045 #
edge $-1 $417 1 $417 0 $212 $-1 forward 7 unknown #
vertex $-1 $213 $418 #
ellipse-curve $-1 52.313750171275565 19.56245930278066 9.7725241945185175 0.62932039886446345 0 0.77714595512881146 0.77714595512881146 0 -0.62932039886446345 1 I I #
point $-1 55.004170726290816 19.56245930278066 11.505901110146592 #
loop $-1 $-1 $224 $216 #
plane-surface $-1 0 0 13.909225619389096 0 0 1 1 0 0 forward_v I I I I #
coedge $-1 $338 $219 $221 $342 reversed $126 $-1 #
coedge $-1 $219 $337 $419 $420 reversed $126 $-1 #
coedge $-1 $227 $222 $219 $340 forward $217 $-1 #
edge $-1 $343 -38.664207685745467 $421 -35.1161994649894 $339 $422 forward 7 unknown #
coedge $-1 $221 $220 $346 $423 reversed $78 $-1 #
edge $-1 $424 -5.6378407996277229 $343 0 $337 $425 forward 7 unknown #
vertex $-1 $223 $426 #
straight-curve $-1 -56.417737357707452 9.7812296513903298 10.361217398633032 0 -1 0 I I #
coedge $-1 $419 $224 $227 $350 forward $335 $-1 #
coedge $-1 $224 $419 $341 $423 forward $335 $-1 #
vertex $-1 $225 $427 #
straight-curve $-1 -63.713701655836722 25.430963130783063 13.909225619389098 -1 0 0 I I #
straight-curve $-1 -56.417737357707452 25.430963130783063 10.36121739863303 0.77714595512881146 0 0.62932039886446345 I I #
edge $-1 $228 -25.430963130783063 $421 -13.693955474778257 $227 $428 forward 7 unknown #
point $-1 -56.417737357707452 25.430963130783063 13.909225619389096 #
point $-1 -56.417737357707452 25.430963130783063 10.36121739863303 #
edge $-1 $429 1 $429 0 $231 $-1 forward 7 unknown #
vertex $-1 $232 $430 #
ellipse-curve $-1 -52.313750171275565 19.56245930278066 9.7725241945185175 -0.62932039886446345 0 0.77714595512881146 0.77714595512881146 0 0.62932039886446345 1 I I #
point $-1 -53.449878816033191 19.56245930278066 12.76454190787552 #
plane-surface $-1 56.417737357707452 0 0 -1 0 0 0 0 1 forward_v I I I I #
coedge $-1 $240 $238 $242 $362 reversed $141 $-1 #
edge $-1 $253 -13.909225619389096 $364 13.909225619389096 $252 $431 forward 7 unknown #
vertex $-1 $362 $432 #
straight-curve $-1 -56.417737357707452 -39.162349917555083 0 0 0 -1 I I #
edge $-1 $360 -39.162349917555083 $364 39.162349917555083 $358 $433 forward 7 unknown #
straight-curve $-1 0 -39.162349917555083 -13.909225619389096 -1 0 0 I I #
vertex $-1 $245 $434 #
straight-curve $-1 0 39.162349917555083 -13.909225619389096 1 0 0 I I #
point $-1 56.417737357707452 39.162349917555083 -13.909225619389096 #
point $-1 56.417737357707452 -39.162349917555083 -13.909225619389096 #
straight-curve $-1 -56.417737357707452 0 13.909225619389096 0 -1 0 I I #
point $-1 -56.417737357707452 39.162349917555083 13.909225619389096 #
point $-1 -56.417737357707452 -39.162349917555083 13.909225619389096 #
straight-curve $-1 56.417737357707452 -39.162349917555083 0 0 0 -1 I I #
straight-curve $-1 56.417737357707452 39.162349917555083 0 0 0 -1 I I #
plane-surface $-1 56.417737357707452 0 0 -1 0 0 0 0 1 forward_v I I I I #
coedge $-1 $377 $265 $276 $386 forward $160 $-1 #
coedge $-1 $265 $377 $279 $388 reversed $160 $-1 #
straight-curve $-1 56.417737357707452 -28.922966103391271 -2.7753610035020566 0 0 1 I I #
coedge $-1 $375 $374 $268 $378 forward $160 $-1 #
edge $-1 $381 11.901637098154684 $379 22.141020912318496 $377 $435 forward 7 unknown #
vertex $-1 $270 $436 #
straight-curve $-1 0 -39.162349917555083 -7.4759911130174572 1 0 0 I I #
vertex $-1 $378 $437 #
straight-curve $-1 0 -28.922966103391271 -7.4759911130174572 1 0 0 I I #
point $-1 56.417737357707452 -39.162349917555083 -7.4759911130174572 #
point $-1 56.417737357707452 -28.922966103391271 -7.4759911130174572 #
straight-curve $-1 -56.417737357707452 -17.021329005236588 -3.6254529009907688 0 1 0 I I #
edge $-1 $277 0.85009189748871217 $381 4.7006301095154006 $374 $438 forward 7 unknown #
point $-1 -56.417737357707452 -28.922966103391271 -3.6254529009907688 #
edge $-1 $281 3.6254529009907688 $379 7.4759911130174572 $375 $439 forward 7 unknown #
point $-1 -56.417737357707452 -39.162349917555083 -3.6254529009907688 #
straight-curve $-1 56.417737357707452 -39.162349917555083 0 0 0 -1 I I #
plane-surface $-1 0 39.162349917555083 0 0 -1 0 0 0 -1 forward_v I I I I #
coedge $-1 $290 $401 $292 $395 forward $287 $-1 #
vertex $-1 $395 $440 #
straight-curve $-1 -56.417737357707452 28.922966103391275 -2.7753610035020566 0 0 1 I I #
edge $-1 $397 -22.141020912318499 $393 -11.901637098154684 $392 $441 forward 7 unknown #
straight-curve $-1 0 28.922966103391275 -7.4759911130174572 -1 0 0 I I #
vertex $-1 $295 $442 #
straight-curve $-1 0 39.162349917555083 -7.4759911130174572 -1 0 0 I I #
point $-1 56.417737357707452 28.922966103391275 -7.4759911130174572 #
point $-1 56.417737357707452 39.16234991755509 -7.4759911130174572 #
coedge $-1 $392 $299 $302 $403 forward $287 $-1 #
straight-curve $-1 -56.417737357707452 17.021329005236591 -3.6254529009907688 0 1 0 I I #
edge $-1 $304 3.6254529009907688 $397 7.4759911130174572 $302 $443 forward 7 unknown #
point $-1 -56.417737357707452 39.16234991755509 -3.6254529009907688 #
point $-1 -56.417737357707452 28.922966103391275 -3.6254529009907688 #
straight-curve $-1 56.417737357707452 28.922966103391275 -2.7753610035020566 0 0 -1 I I #
straight-curve $-1 56.417737357707452 39.162349917555083 0 0 0 -1 I I #
edge $-1 $409 -36.548852086932712 $412 -32.167426913841865 $314 $444 forward 7 unknown #
vertex $-1 $408 $445 #
straight-curve $-1 56.417737357707452 25.430963130783063 84.530258061361494 0 0 1 I I #
edge $-1 $412 -15.649733479392733 $325 -3.9127258233879267 $324 $446 forward 7 unknown #
vertex $-1 $411 $447 #
straight-curve $-1 -31.271895412416512 25.430963130783063 81.370883352599023 0.77714595512881146 0 -0.62932039886446345 I I #
point $-1 56.417737357707452 25.430963130783063 10.361217398633045 #
point $-1 52.036312184616605 13.693955474778257 13.90922561938909 #
straight-curve $-1 56.417737357707452 0 13.909225619389096 0 1 0 I I #
vertex $-1 $331 $448 #
point $-1 53.090896126404374 19.56245930278066 9.1432037956540544 #
coedge $-1 $346 $345 $338 $420 forward $335 $-1 #
edge $-1 $421 7.2959642981292703 $424 11.677389471220138 $419 $449 forward 7 unknown #
vertex $-1 $420 $450 #
straight-curve $-1 -56.417737357707452 13.693955474778257 49.025425084378497 0 0 1 I I #
edge $-1 $424 3.9127258233879267 $347 15.649733479392733 $346 $451 forward 7 unknown #
vertex $-1 $423 $452 #
straight-curve $-1 -56.417737357707452 13.693955474778257 10.36121739863303 -0.77714595512881146 0 -0.62932039886446345 I I #
point $-1 -56.417737357707452 13.693955474778257 10.36121739863303 #
point $-1 -52.036312184616584 25.430963130783063 13.909225619389096 #
straight-curve $-1 -56.417737357707452 0 13.909225619389096 0 -1 0 I I #
vertex $-1 $353 $453 #
point $-1 -51.536604216146756 19.56245930278066 10.401844593382981 #
straight-curve $-1 -56.417737357707452 39.162349917555083 0 0 0 -1 I I #
point $-1 -56.417737357707452 -39.162349917555083 -13.909225619389096 #
straight-curve $-1 -56.417737357707452 0 -13.909225619389096 0 1 0 I I #
point $-1 -56.417737357707452 39.162349917555083 -13.909225619389096 #
straight-curve $-1 -56.417737357707452 -17.021329005236588 -7.4759911130174572 0 -1 0 I I #
point $-1 -56.417737357707452 -39.162349917555083 -7.4759911130174572 #
point $-1 -56.417737357707452 -28.922966103391271 -7.4759911130174572 #
straight-curve $-1 -56.417737357707452 -28.922966103391271 -2.7753610035020566 0 0 -1 I I #
straight-curve $-1 -56.417737357707452 -39.162349917555083 0 0 0 -1 I I #
point $-1 -56.417737357707452 28.922966103391275 -7.4759911130174572 #
straight-curve $-1 -56.417737357707452 17.021329005236591 -7.4759911130174572 0 -1 0 I I #
point $-1 -56.417737357707452 39.16234991755509 -7.4759911130174572 #
straight-curve $-1 -56.417737357707452 39.162349917555083 0 0 0 -1 I I #
straight-curve $-1 19.86888527077474 25.430963130783063 13.90922561938909 -1 0 0 I I #
point $-1 56.417737357707452 25.430963130783063 13.909225619389096 #
straight-curve $-1 52.036312184616591 9.7812296513903298 13.90922561938909 0 -1 0 I I #
point $-1 52.036312184616605 25.430963130783063 13.90922561938909 #
point $-1 51.6844297724111 19.56245930278066 8.995378239389705 #
straight-curve $-1 -63.713701655836722 13.693955474778257 13.909225619389098 1 0 0 I I #
point $-1 -56.417737357707452 13.693955474778257 13.909225619389096 #
straight-curve $-1 -52.036312184616591 9.7812296513903298 13.909225619389094 0 1 0 I I #
point $-1 -52.036312184616584 13.693955474778257 13.909225619389096 #
point $-1 -51.6844297724111 19.56245930278066 8.995378239389705 #
End-of-ACIS-data 