500 0 7 0           
7 Unknown 11 ACIS 5.0 NT 24 Thu Mar 25 20:11:03 1999 
-1 9.9999999999999995e-007 1e-010 
body $-1 $7 $-1 $8 #
body $-1 $9 $-1 $10 #
body $-1 $11 $-1 $12 #
body $-1 $13 $-1 $14 #
body $-1 $15 $-1 $16 #
body $-1 $17 $-1 $18 #
body $-1 $19 $-1 $20 #
lump $-1 $-1 $21 $0 #
transform $-1 1 0 0 0 1 0 0 0 1 49.846491897335738 22.288457168303921 8.4261074609321831 1 rotate no_reflect no_shear #
lump $-1 $-1 $22 $1 #
transform $-1 1 0 0 0 1 0 0 0 1 49.846491897335738 22.288457168303921 8.4261074609321831 1 rotate no_reflect no_shear #
lump $-1 $-1 $23 $2 #
transform $-1 1 0 0 0 1 0 0 0 1 49.846491897335738 22.288457168303921 8.4261074609321831 1 rotate no_reflect no_shear #
lump $-1 $-1 $24 $3 #
transform $-1 1 0 0 0 1 0 0 0 1 49.846491897335738 22.288457168303921 8.4261074609321831 1 rotate no_reflect no_shear #
lump $-1 $-1 $25 $4 #
transform $-1 1 0 0 0 1 0 0 0 1 49.846491897335738 22.288457168303921 8.4261074609321831 1 rotate no_reflect no_shear #
lump $-1 $-1 $26 $5 #
transform $-1 1 0 0 0 1 0 0 0 1 49.846491897335738 22.288457168303921 8.4261074609321831 1 rotate no_reflect no_shear #
lump $-1 $-1 $27 $6 #
transform $-1 1 0 0 0 1 0 0 0 1 49.846491897335738 22.288457168303921 8.4261074609321831 1 rotate no_reflect no_shear #
shell $-1 $-1 $-1 $28 $-1 $7 #
shell $-1 $-1 $-1 $29 $-1 $9 #
shell $-1 $-1 $-1 $30 $-1 $11 #
shell $-1 $-1 $-1 $31 $-1 $13 #
shell $-1 $-1 $-1 $32 $-1 $15 #
shell $-1 $-1 $-1 $33 $-1 $17 #
shell $-1 $-1 $-1 $34 $-1 $19 #
face $-1 $35 $36 $21 $-1 $37 forward single #
face $-1 $38 $39 $22 $-1 $40 forward single #
face $-1 $41 $42 $23 $-1 $43 reversed single #
face $-1 $44 $45 $24 $-1 $46 forward single #
face $-1 $47 $48 $25 $-1 $49 forward single #
face $-1 $50 $51 $26 $-1 $52 reversed single #
face $-1 $53 $54 $27 $-1 $55 forward single #
face $-1 $56 $57 $21 $-1 $58 reversed single #
loop $-1 $-1 $59 $28 #
plane-surface $-1 0 0 8.4261074609321831 0 0 1 1 0 0 forward_v I I I I #
face $-1 $60 $61 $22 $-1 $62 reversed single #
loop $-1 $-1 $63 $29 #
plane-surface $-1 -49.846491897335738 0 0 1 0 0 0 0 -1 forward_v I I I I #
face $-1 $64 $65 $23 $-1 $66 reversed single #
loop $-1 $-1 $67 $30 #
plane-surface $-1 5.598627693840827 -75.117690487540202 89.597959530358892 -1 0 0 0 -0.52991927123019833 0.84804809178421925 forward_v I I I I #
face $-1 $68 $69 $24 $-1 $70 forward single #
loop $-1 $71 $72 $31 #
cone-surface $-1 -13.189392245807689 -19.007776277872566 5.808348077501817 0 0.52991927123019833 -0.84804809178421925 1 0 0 1 I I 0 1 1 forward I I I I #
face $-1 $73 $74 $25 $-1 $75 forward single #
loop $-1 $76 $77 $32 #
cone-surface $-1 -1.9165802820185789 -19.007776277872566 5.808348077501817 0 0.52991927123019833 -0.84804809178421925 1 0 0 1 I I 0 1 1 forward I I I I #
face $-1 $78 $79 $26 $-1 $80 reversed single #
loop $-1 $-1 $81 $33 #
plane-surface $-1 22.716228011540522 84.783216203505106 93.763367291512637 1 0 0 0 -0.85716730853699208 -0.51503806187062418 forward_v I I I I #
face $-1 $82 $83 $27 $-1 $84 forward single #
loop $-1 $85 $86 $34 #
cone-surface $-1 36.28135995443813 20.373602050101486 5.9278717823963261 0 -0.85716730853699208 -0.51503806187062418 0.5 0 0 1 I I 0 1 0.5 forward I I I I #
face $-1 $87 $88 $21 $-1 $89 reversed single #
loop $-1 $-1 $90 $35 #
plane-surface $-1 0 0 -8.4261074609321831 0 0 1 1 0 0 forward_v I I I I #
coedge $-1 $91 $92 $93 $94 forward $36 $-1 #
face $-1 $95 $96 $22 $-1 $97 forward single #
loop $-1 $-1 $98 $38 #
plane-surface $-1 0 22.288457168303921 0 0 -1 0 0 0 -1 forward_v I I I I #
coedge $-1 $99 $100 $101 $102 forward $39 $-1 #
face $-1 $103 $104 $23 $-1 $105 reversed single #
loop $-1 $-1 $106 $41 #
plane-surface $-1 -7.5529862639131338 -22.288457168303921 5.0535148590126511 0 -0.52991927123019833 0.84804809178421925 1 0 0 forward_v I I I I #
coedge $-1 $107 $108 $109 $110 reversed $42 $-1 #
face $-1 $-1 $111 $24 $-1 $112 forward single #
loop $-1 $113 $114 $44 #
cone-surface $-1 -13.189392245807689 -18.16077389890059 4.4528609491391116 0 0.52991927123019833 -0.84804809178421925 0.5 0 0 1 I I -0.70710678118654746 0.70710678118654746 0.5 forward I I I I #
loop $-1 $-1 $115 $31 #
coedge $-1 $72 $72 $116 $117 reversed $45 $-1 #
face $-1 $-1 $118 $25 $-1 $119 forward single #
loop $-1 $120 $121 $47 #
cone-surface $-1 -1.9165802820185789 -18.16077389890059 4.4528609491391116 0 0.52991927123019833 -0.84804809178421925 0.5 0 0 1 I I -0.70710678118654746 0.70710678118654746 0.5 forward I I I I #
loop $-1 $-1 $122 $32 #
coedge $-1 $77 $77 $123 $124 reversed $48 $-1 #
face $-1 $125 $126 $26 $-1 $127 reversed single #
loop $-1 $-1 $128 $50 #
plane-surface $-1 36.28135995443813 -0.67035039579540978 42.417686135805496 0 0.85716730853699208 0.51503806187062418 1 0 0 forward_v I I I I #
coedge $-1 $129 $130 $131 $132 reversed $51 $-1 #
face $-1 $-1 $133 $27 $-1 $134 forward single #
loop $-1 $135 $136 $53 #
cone-surface $-1 36.28135995443813 19.511758736547222 5.4100240933532611 0 -0.85716730853699208 -0.51503806187062418 0.25 0 0 1 I I -0.70710678118654746 0.70710678118654746 0.25 forward I I I I #
loop $-1 $-1 $137 $34 #
coedge $-1 $86 $86 $138 $139 reversed $54 $-1 #
face $-1 $140 $141 $21 $-1 $142 reversed single #
loop $-1 $-1 $143 $56 #
plane-surface $-1 0 -22.288457168303921 0 0 1 0 0 0 1 forward_v I I I I #
coedge $-1 $144 $145 $146 $147 forward $57 $-1 #
coedge $-1 $148 $59 $149 $150 forward $36 $-1 #
coedge $-1 $59 $148 $151 $152 forward $36 $-1 #
coedge $-1 $153 $154 $59 $94 reversed $155 $-1 #
edge $-1 $156 -22.288457168303921 $157 22.288457168303921 $93 $158 forward 7 unknown #
face $-1 $159 $160 $22 $-1 $161 reversed single #
loop $-1 $-1 $101 $60 #
plane-surface $-1 -52.905194363725919 0 -4.8851725411792621 0 0 1 1 0 0 forward_v I I I I #
coedge $-1 $162 $163 $100 $164 forward $61 $-1 #
coedge $-1 $165 $63 $166 $167 reversed $39 $-1 #
coedge $-1 $63 $165 $98 $164 reversed $39 $-1 #
coedge $-1 $168 $169 $63 $102 reversed $96 $-1 #
edge $-1 $170 -22.288457168303921 $171 22.288457168303921 $101 $172 forward 7 unknown #
face $-1 $173 $174 $23 $-1 $175 reversed single #
loop $-1 $-1 $176 $64 #
plane-surface $-1 -20.704600221667093 -75.117690487540202 89.597959530358892 1 0 0 0 0.52991927123019833 -0.84804809178421925 forward_v I I I I #
coedge $-1 $177 $178 $179 $180 reversed $65 $-1 #
coedge $-1 $108 $67 $181 $182 reversed $42 $-1 #
coedge $-1 $67 $107 $177 $183 reversed $42 $-1 #
coedge $-1 $179 $184 $67 $110 forward $185 $-1 #
edge $-1 $186 15.27038807546618 $187 20.667664369615125 $109 $188 forward 7 unknown #
loop $-1 $-1 $116 $68 #
plane-surface $-1 -7.5529862639131338 -22.288457168303921 5.0535148590126511 0 -0.52991927123019833 0.84804809178421925 1 0 0 forward_v I I I I #
loop $-1 $-1 $189 $44 #
coedge $-1 $114 $114 $115 $190 reversed $69 $-1 #
coedge $-1 $115 $115 $114 $190 forward $71 $-1 #
coedge $-1 $116 $116 $72 $117 forward $111 $-1 #
edge $-1 $191 -2.8239771653392775e-015 $191 6.2831853071795978 $116 $192 forward 7 unknown #
loop $-1 $-1 $123 $73 #
plane-surface $-1 -7.5529862639131338 -22.288457168303921 5.0535148590126511 0 -0.52991927123019833 0.84804809178421925 1 0 0 forward_v I I I I #
loop $-1 $-1 $193 $47 #
coedge $-1 $121 $121 $122 $194 reversed $74 $-1 #
coedge $-1 $122 $122 $121 $194 forward $76 $-1 #
coedge $-1 $123 $123 $77 $124 forward $118 $-1 #
edge $-1 $195 -2.8239771653392775e-015 $195 6.2831853071795978 $123 $196 forward 7 unknown #
face $-1 $197 $198 $26 $-1 $199 reversed single #
loop $-1 $-1 $200 $78 #
plane-surface $-1 49.846491897335738 0 0 -1 0 0 0 0 1 forward_v I I I I #
coedge $-1 $201 $202 $203 $204 reversed $79 $-1 #
coedge $-1 $130 $81 $205 $206 reversed $51 $-1 #
coedge $-1 $81 $129 $201 $207 reversed $51 $-1 #
coedge $-1 $203 $208 $81 $132 forward $209 $-1 #
edge $-1 $210 20.103150933448632 $211 22.637758197013454 $131 $212 forward 7 unknown #
loop $-1 $-1 $138 $82 #
plane-surface $-1 36.28135995443813 -0.67035039579540978 42.417686135805496 0 0.85716730853699208 0.51503806187062418 1 0 0 forward_v I I I I #
loop $-1 $-1 $213 $53 #
coedge $-1 $136 $136 $137 $214 reversed $83 $-1 #
coedge $-1 $137 $137 $136 $214 forward $85 $-1 #
coedge $-1 $138 $138 $86 $139 forward $133 $-1 #
edge $-1 $215 1.2023834831759341e-015 $215 6.2831853071796013 $138 $216 forward 7 unknown #
face $-1 $217 $218 $21 $-1 $219 reversed single #
loop $-1 $-1 $220 $87 #
plane-surface $-1 -49.846491897335738 0 0 1 0 0 0 0 -1 forward_v I I I I #
coedge $-1 $221 $151 $222 $223 forward $88 $-1 #
coedge $-1 $224 $90 $221 $225 forward $57 $-1 #
coedge $-1 $90 $224 $226 $227 forward $57 $-1 #
coedge $-1 $154 $153 $90 $147 reversed $155 $-1 #
edge $-1 $228 -22.288457168303921 $229 22.288457168303921 $146 $230 forward 7 unknown #
coedge $-1 $92 $91 $231 $232 forward $36 $-1 #
coedge $-1 $233 $234 $91 $150 reversed $218 $-1 #
edge $-1 $157 -49.846491897335738 $235 49.846491897335738 $149 $236 forward 7 unknown #
coedge $-1 $143 $237 $92 $152 reversed $88 $-1 #
edge $-1 $238 -49.846491897335738 $156 49.846491897335738 $151 $239 forward 7 unknown #
coedge $-1 $146 $93 $237 $240 forward $155 $-1 #
coedge $-1 $93 $146 $233 $241 reversed $155 $-1 #
loop $-1 $-1 $153 $217 #
vertex $-1 $94 $242 #
vertex $-1 $94 $243 #
straight-curve $-1 49.846491897335738 0 8.4261074609321831 0 1 0 I I #
face $-1 $244 $245 $22 $-1 $246 reversed single #
loop $-1 $-1 $247 $95 #
plane-surface $-1 -55.963896830116099 0 -6.6556400010557226 1 0 0 0 0 -1 forward_v I I I I #
coedge $-1 $248 $98 $249 $250 reversed $61 $-1 #
coedge $-1 $98 $248 $168 $251 reversed $61 $-1 #
edge $-1 $170 4.8851725411792621 $252 8.4261074609321831 $98 $253 forward 7 unknown #
coedge $-1 $100 $99 $254 $255 reversed $39 $-1 #
coedge $-1 $256 $257 $99 $167 forward $258 $-1 #
edge $-1 $259 -8.4261074609321831 $171 -4.8851725411792621 $166 $260 forward 7 unknown #
coedge $-1 $261 $101 $163 $251 forward $96 $-1 #
coedge $-1 $101 $261 $256 $262 forward $96 $-1 #
vertex $-1 $164 $263 #
vertex $-1 $262 $264 #
straight-curve $-1 -49.846491897335738 0 -4.8851725411792621 0 -1 0 I I #
face $-1 $-1 $185 $23 $-1 $265 forward single #
loop $-1 $-1 $266 $103 #
plane-surface $-1 0 -22.288457168303921 0 0 1 0 0 0 1 forward_v I I I I #
coedge $-1 $267 $268 $269 $270 reversed $104 $-1 #
coedge $-1 $271 $106 $108 $183 forward $65 $-1 #
coedge $-1 $106 $271 $267 $272 forward $65 $-1 #
coedge $-1 $269 $109 $106 $180 forward $185 $-1 #
edge $-1 $187 -9.3751208257973939 $273 16.928107089710526 $179 $274 forward 7 unknown #
coedge $-1 $275 $276 $107 $182 forward $174 $-1 #
edge $-1 $277 -39.745464906166795 $186 -36.372872304247267 $181 $278 forward 7 unknown #
edge $-1 $187 -6.3643516758507719 $277 0 $108 $279 forward 7 unknown #
coedge $-1 $109 $269 $275 $280 forward $185 $-1 #
loop $-1 $-1 $269 $173 #
vertex $-1 $182 $281 #
vertex $-1 $110 $282 #
straight-curve $-1 5.598627693840827 -37.558845243770101 8.4261074609321867 0 1 0 I I #
coedge $-1 $189 $189 $-1 $283 reversed $113 $-1 #
edge $-1 $284 0 $284 6.2831853071796004 $114 $285 forward 7 unknown #
vertex $-1 $117 $286 #
ellipse-curve $-1 -13.189392245807689 -19.589819021229445 6.7398111599724189 0 -0.52991927123019833 0.84804809178421925 1 0 0 1 I I #
coedge $-1 $193 $193 $-1 $287 reversed $120 $-1 #
edge $-1 $288 0 $288 6.2831853071796004 $121 $289 forward 7 unknown #
vertex $-1 $124 $290 #
ellipse-curve $-1 -1.9165802820185789 -19.589819021229445 6.7398111599724189 0 -0.52991927123019833 0.84804809178421925 1 0 0 1 I I #
face $-1 $-1 $209 $26 $-1 $291 forward single #
loop $-1 $-1 $292 $125 #
plane-surface $-1 0 22.288457168303921 0 0 -1 0 0 0 -1 forward_v I I I I #
coedge $-1 $293 $294 $202 $295 forward $126 $-1 #
coedge $-1 $296 $128 $130 $207 forward $79 $-1 #
coedge $-1 $128 $296 $200 $295 reversed $79 $-1 #
coedge $-1 $297 $131 $128 $204 forward $209 $-1 #
edge $-1 $211 4.5755480343214572 $298 31.705811920116673 $203 $299 forward 7 unknown #
coedge $-1 $300 $292 $129 $206 forward $198 $-1 #
edge $-1 $301 -42.673871194744997 $210 -38.455576184824139 $205 $302 forward 7 unknown #
edge $-1 $211 39.655710543709297 $301 44.576914336607821 $130 $303 forward 7 unknown #
coedge $-1 $131 $297 $300 $304 forward $209 $-1 #
loop $-1 $-1 $203 $197 #
vertex $-1 $206 $305 #
vertex $-1 $132 $306 #
straight-curve $-1 22.716228011540522 42.391608101752553 8.4261074609321867 0 -1 0 I I #
coedge $-1 $213 $213 $-1 $307 reversed $135 $-1 #
edge $-1 $308 0 $308 6.2831853071796004 $136 $309 forward 7 unknown #
vertex $-1 $139 $310 #
ellipse-curve $-1 36.28135995443813 21.021153536521513 6.3169599559717424 0 0.85716730853699208 0.51503806187062418 0.5 0 0 1 I I #
face $-1 $-1 $155 $21 $-1 $311 reversed single #
loop $-1 $-1 $233 $140 #
plane-surface $-1 0 22.288457168303921 0 0 -1 0 0 0 -1 forward_v I I I I #
coedge $-1 $312 $231 $234 $313 forward $141 $-1 #
coedge $-1 $237 $143 $144 $225 reversed $88 $-1 #
coedge $-1 $231 $312 $143 $223 reversed $141 $-1 #
edge $-1 $238 -8.4261074609321831 $314 8.4261074609321831 $222 $315 forward 7 unknown #
coedge $-1 $145 $144 $312 $316 forward $57 $-1 #
edge $-1 $229 -49.846491897335738 $314 49.846491897335738 $221 $317 forward 7 unknown #
coedge $-1 $234 $233 $145 $227 reversed $218 $-1 #
edge $-1 $318 -49.846491897335738 $228 49.846491897335738 $226 $319 forward 7 unknown #
vertex $-1 $147 $320 #
vertex $-1 $240 $321 #
straight-curve $-1 49.846491897335738 0 -8.4261074609321831 0 -1 0 I I #
coedge $-1 $220 $222 $148 $232 reversed $141 $-1 #
edge $-1 $235 -22.288457168303921 $238 22.288457168303921 $231 $322 forward 7 unknown #
coedge $-1 $226 $149 $154 $241 forward $218 $-1 #
coedge $-1 $149 $226 $220 $313 reversed $218 $-1 #
vertex $-1 $150 $323 #
straight-curve $-1 0 22.288457168303921 8.4261074609321831 -1 0 0 I I #
coedge $-1 $151 $221 $153 $240 reversed $88 $-1 #
vertex $-1 $232 $324 #
straight-curve $-1 0 -22.288457168303921 8.4261074609321831 1 0 0 I I #
edge $-1 $156 -8.4261074609321831 $229 8.4261074609321831 $153 $325 forward 7 unknown #
edge $-1 $157 -8.4261074609321831 $228 8.4261074609321831 $154 $326 forward 7 unknown #
point $-1 49.846491897335738 -22.288457168303921 8.4261074609321831 #
point $-1 49.846491897335738 22.288457168303921 8.4261074609321831 #
face $-1 $-1 $258 $22 $-1 $327 reversed single #
loop $-1 $-1 $254 $159 #
plane-surface $-1 0 0 -8.4261074609321831 0 0 1 1 0 0 forward_v I I I I #
coedge $-1 $328 $329 $248 $330 forward $160 $-1 #
coedge $-1 $163 $162 $247 $330 reversed $61 $-1 #
coedge $-1 $254 $331 $162 $250 forward $245 $-1 #
edge $-1 $332 -55.963896830116099 $252 -49.846491897335738 $162 $333 forward 7 unknown #
edge $-1 $170 -3.0587024663901801 $334 3.0587024663901801 $163 $335 forward 7 unknown #
vertex $-1 $164 $336 #
straight-curve $-1 -49.846491897335738 22.288457168303921 0 0 0 -1 I I #
coedge $-1 $337 $249 $165 $255 forward $245 $-1 #
edge $-1 $252 -22.288457168303921 $259 22.288457168303921 $254 $338 forward 7 unknown #
coedge $-1 $339 $166 $169 $262 reversed $258 $-1 #
coedge $-1 $166 $339 $337 $340 reversed $258 $-1 #
loop $-1 $-1 $166 $244 #
vertex $-1 $340 $341 #
straight-curve $-1 -49.846491897335738 -22.288457168303921 0 0 0 1 I I #
coedge $-1 $169 $168 $329 $342 forward $96 $-1 #
edge $-1 $343 -3.0587024663901801 $171 3.0587024663901801 $256 $344 forward 7 unknown #
point $-1 -49.846491897335738 22.288457168303921 -4.8851725411792621 #
point $-1 -49.846491897335738 -22.288457168303921 -4.8851725411792621 #
plane-surface $-1 0 0 8.4261074609321831 0 0 1 1 0 0 forward_v I I I I #
coedge $-1 $276 $275 $268 $345 forward $174 $-1 #
coedge $-1 $268 $176 $178 $272 reversed $104 $-1 #
coedge $-1 $176 $267 $266 $345 reversed $104 $-1 #
coedge $-1 $184 $179 $176 $270 forward $185 $-1 #
edge $-1 $273 -20.667664369615125 $346 -15.27038807546618 $269 $347 forward 7 unknown #
coedge $-1 $178 $177 $276 $348 reversed $65 $-1 #
edge $-1 $349 0 $273 6.3643516758507719 $267 $350 forward 7 unknown #
vertex $-1 $180 $351 #
straight-curve $-1 -3.7764931319565669 -16.89118087415498 8.4261074609321831 -1 0 0 I I #
coedge $-1 $266 $181 $184 $280 reversed $174 $-1 #
coedge $-1 $181 $266 $271 $348 forward $174 $-1 #
vertex $-1 $182 $352 #
straight-curve $-1 5.598627693840827 -22.288457168303921 44.798979765179446 0 0 1 I I #
straight-curve $-1 5.598627693840827 -22.288457168303921 5.0535148590126511 0 -0.84804809178421925 -0.52991927123019833 I I #
edge $-1 $346 -20.704600221667093 $186 5.598627693840827 $275 $353 forward 7 unknown #
point $-1 5.598627693840827 -22.288457168303921 8.4261074609321831 #
point $-1 5.598627693840827 -16.891180874154976 8.4261074609321831 #
edge $-1 $354 1 $354 0 $189 $-1 forward 7 unknown #
vertex $-1 $190 $355 #
ellipse-curve $-1 -13.189392245807689 -18.42573353451569 4.8768849950312214 0 -0.52991927123019833 0.84804809178421925 1 0 0 1 I I #
point $-1 -12.189392245807689 -19.589819021229445 6.7398111599724135 #
edge $-1 $356 1 $356 0 $193 $-1 forward 7 unknown #
vertex $-1 $194 $357 #
ellipse-curve $-1 -1.9165802820185789 -18.42573353451569 4.8768849950312214 0 -0.52991927123019833 0.84804809178421925 1 0 0 1 I I #
point $-1 -0.91658028201857888 -19.589819021229445 6.7398111599724135 #
plane-surface $-1 0 0 8.4261074609321831 0 0 1 1 0 0 forward_v I I I I #
coedge $-1 $205 $358 $296 $359 forward $198 $-1 #
coedge $-1 $294 $200 $358 $360 reversed $126 $-1 #
coedge $-1 $200 $293 $297 $361 reversed $126 $-1 #
edge $-1 $298 21.303555629699311 $362 26.224759422597835 $200 $363 forward 7 unknown #
coedge $-1 $202 $201 $292 $359 reversed $79 $-1 #
coedge $-1 $208 $203 $294 $361 forward $209 $-1 #
vertex $-1 $361 $364 #
straight-curve $-1 18.140679977219065 19.753849904739099 8.4261074609321867 1 0 0 I I #
coedge $-1 $358 $205 $208 $304 reversed $198 $-1 #
vertex $-1 $206 $365 #
straight-curve $-1 22.716228011540522 22.288457168303921 46.881683645756318 0 0 1 I I #
straight-curve $-1 22.716228011540522 -0.67035039579540978 42.417686135805496 0 0.51503806187062418 -0.85716730853699208 I I #
edge $-1 $366 -49.846491897335738 $210 -22.716228011540522 $300 $367 forward 7 unknown #
point $-1 22.716228011540522 22.288457168303921 8.4261074609321831 #
point $-1 22.716228011540522 19.753849904739099 8.4261074609321867 #
edge $-1 $368 1 $368 0 $213 $-1 forward 7 unknown #
vertex $-1 $214 $369 #
ellipse-curve $-1 36.28135995443813 19.726050563681468 5.5387836088209168 0 0.85716730853699208 0.51503806187062418 0.5 0 0 1 I I #
point $-1 36.78135995443813 21.021153536521503 6.3169599559717353 #
plane-surface $-1 49.846491897335738 0 0 -1 0 0 0 0 1 forward_v I I I I #
coedge $-1 $222 $220 $224 $316 reversed $141 $-1 #
edge $-1 $235 -8.4261074609321831 $318 8.4261074609321831 $234 $370 forward 7 unknown #
vertex $-1 $316 $371 #
straight-curve $-1 -49.846491897335738 -22.288457168303921 0 0 0 -1 I I #
edge $-1 $314 -22.288457168303921 $318 22.288457168303921 $312 $372 forward 7 unknown #
straight-curve $-1 0 -22.288457168303921 -8.4261074609321831 -1 0 0 I I #
vertex $-1 $227 $373 #
straight-curve $-1 0 22.288457168303921 -8.4261074609321831 1 0 0 I I #
point $-1 49.846491897335738 22.288457168303921 -8.4261074609321831 #
point $-1 49.846491897335738 -22.288457168303921 -8.4261074609321831 #
straight-curve $-1 -49.846491897335738 0 8.4261074609321831 0 -1 0 I I #
point $-1 -49.846491897335738 22.288457168303921 8.4261074609321831 #
point $-1 -49.846491897335738 -22.288457168303921 8.4261074609321831 #
straight-curve $-1 49.846491897335738 -22.288457168303921 0 0 0 -1 I I #
straight-curve $-1 49.846491897335738 22.288457168303921 0 0 0 -1 I I #
plane-surface $-1 0 -22.288457168303921 0 0 1 0 0 0 1 forward_v I I I I #
coedge $-1 $374 $247 $331 $375 reversed $160 $-1 #
coedge $-1 $247 $374 $261 $342 reversed $160 $-1 #
edge $-1 $334 -1.7704674598764605 $332 1.7704674598764605 $248 $376 forward 7 unknown #
coedge $-1 $249 $337 $328 $375 forward $245 $-1 #
vertex $-1 $250 $377 #
straight-curve $-1 0 22.288457168303921 -8.4261074609321831 1 0 0 I I #
vertex $-1 $251 $378 #
straight-curve $-1 -52.905194363725919 22.288457168303921 -4.8851725411792621 -1 0 0 I I #
point $-1 -49.846491897335738 22.288457168303921 -8.4261074609321831 #
coedge $-1 $331 $254 $257 $340 forward $245 $-1 #
straight-curve $-1 -49.846491897335738 0 -8.4261074609321831 0 -1 0 I I #
coedge $-1 $257 $256 $374 $379 forward $258 $-1 #
edge $-1 $259 -3.0587024663901801 $380 3.0587024663901801 $257 $381 forward 7 unknown #
point $-1 -49.846491897335738 -22.288457168303921 -8.4261074609321831 #
edge $-1 $334 -22.288457168303921 $343 22.288457168303921 $329 $382 forward 7 unknown #
vertex $-1 $342 $383 #
straight-curve $-1 -52.905194363725919 -22.288457168303921 -4.8851725411792621 1 0 0 I I #
edge $-1 $346 36.372872304247267 $349 39.745464906166795 $266 $384 forward 7 unknown #
vertex $-1 $280 $385 #
straight-curve $-1 -20.704600221667093 -37.558845243770101 8.4261074609321867 0 -1 0 I I #
edge $-1 $349 -16.928107089710526 $277 9.3751208257973939 $276 $386 forward 7 unknown #
vertex $-1 $348 $387 #
straight-curve $-1 -20.704600221667093 -22.288457168303921 5.0535148590126511 0 0.84804809178421925 0.52991927123019833 I I #
point $-1 -20.704600221667093 -16.891180874154976 8.4261074609321831 #
point $-1 5.598627693840827 -22.288457168303921 5.0535148590126511 #
straight-curve $-1 0 -22.288457168303921 8.4261074609321831 1 0 0 I I #
vertex $-1 $283 $388 #
point $-1 -12.189392245807689 -18.42573353451569 4.8768849950312214 #
vertex $-1 $287 $389 #
point $-1 -0.91658028201857888 -18.42573353451569 4.8768849950312214 #
coedge $-1 $292 $300 $293 $360 forward $198 $-1 #
edge $-1 $362 -31.705811920116673 $301 -4.5755480343214572 $292 $390 forward 7 unknown #
edge $-1 $366 -8.4261074609321831 $362 -4.2078124510113213 $293 $391 forward 7 unknown #
edge $-1 $298 19.753849904739099 $366 22.288457168303921 $294 $392 forward 7 unknown #
vertex $-1 $295 $393 #
straight-curve $-1 49.846491897335738 8.7817079022657403 26.686818902309628 0 0.51503806187062429 -0.85716730853699219 I I #
point $-1 49.846491897335738 19.753849904739099 8.4261074609321867 #
point $-1 22.716228011540522 22.288457168303921 4.2078124510113213 #
vertex $-1 $361 $394 #
straight-curve $-1 0 22.288457168303921 8.4261074609321831 -1 0 0 I I #
vertex $-1 $307 $395 #
point $-1 36.78135995443813 19.726050563681468 5.5387836088209168 #
straight-curve $-1 -49.846491897335738 22.288457168303921 0 0 0 -1 I I #
point $-1 -49.846491897335738 -22.288457168303921 -8.4261074609321831 #
straight-curve $-1 -49.846491897335738 0 -8.4261074609321831 0 1 0 I I #
point $-1 -49.846491897335738 22.288457168303921 -8.4261074609321831 #
coedge $-1 $329 $328 $339 $379 reversed $160 $-1 #
edge $-1 $380 -22.288457168303921 $332 22.288457168303921 $328 $396 forward 7 unknown #
straight-curve $-1 -55.963896830116099 22.288457168303921 -6.6556400010557226 0 0 -1 I I #
point $-1 -55.963896830116099 22.288457168303921 -8.4261074609321831 #
point $-1 -55.963896830116099 22.288457168303921 -4.8851725411792621 #
edge $-1 $343 -1.7704674598764605 $380 1.7704674598764605 $374 $397 forward 7 unknown #
vertex $-1 $375 $398 #
straight-curve $-1 -52.905194363725919 -22.288457168303921 -8.4261074609321831 -1 0 0 I I #
straight-curve $-1 -55.963896830116099 0 -4.8851725411792621 0 -1 0 I I #
point $-1 -55.963896830116099 -22.288457168303921 -4.8851725411792621 #
straight-curve $-1 -20.704600221667093 -22.288457168303921 44.798979765179446 0 0 -1 I I #
point $-1 -20.704600221667093 -22.288457168303921 8.4261074609321831 #
straight-curve $-1 -3.7764931319565669 -22.288457168303921 5.053514859012652 1 0 0 I I #
point $-1 -20.704600221667093 -22.288457168303921 5.0535148590126511 #
point $-1 -13.189392245807689 -17.895814263285491 4.0288369032470017 #
point $-1 -1.9165802820185789 -17.895814263285491 4.0288369032470017 #
straight-curve $-1 18.140679977219065 22.288457168303921 4.2078124510113213 -1 0 0 I I #
straight-curve $-1 49.846491897335738 22.288457168303921 0 0 0 -1 I I #
straight-curve $-1 49.846491897335738 0 8.4261074609321831 0 1 0 I I #
point $-1 49.846491897335738 22.288457168303921 4.2078124510113213 #
point $-1 49.846491897335738 22.288457168303921 8.4261074609321831 #
point $-1 36.28135995443813 19.297466909412975 5.2812645778856053 #
straight-curve $-1 -55.963896830116099 0 -8.4261074609321831 0 1 0 I I #
straight-curve $-1 -55.963896830116099 -22.288457168303921 -6.6556400010557226 0 0 -1 I I #
point $-1 -55.963896830116099 -22.288457168303921 -8.4261074609321831 #
End-of-ACIS-data 