500 0 9 0           
7 Unknown 11 ACIS 5.0 NT 24 Thu Mar 25 17:53:48 1999 
-1 9.9999999999999995e-007 1e-010 
body $-1 $9 $-1 $10 #
body $-1 $11 $-1 $12 #
body $-1 $13 $-1 $14 #
body $-1 $15 $-1 $16 #
body $-1 $17 $-1 $18 #
body $-1 $19 $-1 $20 #
body $-1 $21 $-1 $22 #
body $-1 $23 $-1 $24 #
body $-1 $25 $-1 $26 #
lump $-1 $-1 $27 $0 #
transform $-1 1 0 0 0 1 0 0 0 1 78.188421277504801 47.014943253534021 23.030105019495952 1 rotate no_reflect no_shear #
lump $-1 $-1 $28 $1 #
transform $-1 1 0 0 0 1 0 0 0 1 78.188421277504801 47.014943253534021 23.030105019495952 1 rotate no_reflect no_shear #
lump $-1 $-1 $29 $2 #
transform $-1 1 0 0 0 1 0 0 0 1 78.188421277504801 47.014943253534021 23.030105019495952 1 rotate no_reflect no_shear #
lump $-1 $-1 $30 $3 #
transform $-1 1 0 0 0 1 0 0 0 1 78.188421277504801 47.014943253534021 23.030105019495952 1 rotate no_reflect no_shear #
lump $-1 $-1 $31 $4 #
transform $-1 1 0 0 0 1 0 0 0 1 78.188421277504801 47.014943253534021 23.030105019495952 1 rotate no_reflect no_shear #
lump $-1 $-1 $32 $5 #
transform $-1 1 0 0 0 1 0 0 0 1 78.188421277504801 47.014943253534021 23.030105019495952 1 rotate no_reflect no_shear #
lump $-1 $-1 $33 $6 #
transform $-1 1 0 0 0 1 0 0 0 1 78.188421277504801 47.014943253534021 23.030105019495952 1 rotate no_reflect no_shear #
lump $-1 $-1 $34 $7 #
transform $-1 1 0 0 0 1 0 0 0 1 78.188421277504801 47.014943253534021 23.030105019495952 1 rotate no_reflect no_shear #
lump $-1 $-1 $35 $8 #
transform $-1 1 0 0 0 1 0 0 0 1 78.188421277504801 47.014943253534021 23.030105019495952 1 rotate no_reflect no_shear #
shell $-1 $-1 $-1 $36 $-1 $9 #
shell $-1 $-1 $-1 $37 $-1 $11 #
shell $-1 $-1 $-1 $38 $-1 $13 #
shell $-1 $-1 $-1 $39 $-1 $15 #
shell $-1 $-1 $-1 $40 $-1 $17 #
shell $-1 $-1 $-1 $41 $-1 $19 #
shell $-1 $-1 $-1 $42 $-1 $21 #
shell $-1 $-1 $-1 $43 $-1 $23 #
shell $-1 $-1 $-1 $44 $-1 $25 #
face $-1 $45 $46 $27 $-1 $47 forward single #
face $-1 $48 $49 $28 $-1 $50 forward single #
face $-1 $51 $52 $29 $-1 $53 forward single #
face $-1 $54 $55 $30 $-1 $56 reversed single #
face $-1 $57 $58 $31 $-1 $59 forward single #
face $-1 $60 $61 $32 $-1 $62 forward single #
face $-1 $63 $64 $33 $-1 $65 reversed single #
face $-1 $66 $67 $34 $-1 $68 forward single #
face $-1 $69 $70 $35 $-1 $71 forward single #
face $-1 $72 $73 $27 $-1 $74 reversed single #
loop $-1 $-1 $75 $36 #
plane-surface $-1 0 0 23.030105019495952 0 0 1 1 0 0 forward_v I I I I #
face $-1 $76 $77 $28 $-1 $78 reversed single #
loop $-1 $-1 $79 $37 #
plane-surface $-1 0 -47.014943253534021 0 0 1 0 0 0 1 forward_v I I I I #
face $-1 $80 $81 $29 $-1 $82 reversed single #
loop $-1 $-1 $83 $38 #
plane-surface $-1 0 47.014943253534021 0 0 -1 0 0 0 -1 forward_v I I I I #
face $-1 $84 $85 $30 $-1 $86 reversed single #
loop $-1 $-1 $87 $39 #
plane-surface $-1 -214.95869070873019 -4.6985318554104545 93.479857442709942 0 1 0 -0.87461971476443456 0 0.48480960649040278 forward_v I I I I #
face $-1 $88 $89 $31 $-1 $90 forward single #
loop $-1 $91 $92 $40 #
cone-surface $-1 -76.186069523878842 -1.8559239291801788 20.062512835990226 0.87461971476443456 0 -0.48480960649040278 0.48480960649040278 0 0.87461971476443456 1 I I 0 1 1 forward I I I I #
face $-1 $93 $94 $32 $-1 $95 forward single #
loop $-1 $96 $97 $41 #
cone-surface $-1 -76.186069523878842 2.4079879601652294 20.062512835990226 0.87461971476443456 0 -0.48480960649040278 0.48480960649040278 0 0.87461971476443456 1 I I 0 1 1 forward I I I I #
face $-1 $98 $99 $33 $-1 $100 reversed single #
loop $-1 $-1 $101 $42 #
plane-surface $-1 58.913909114138534 9.5178297220460522 234.11589181690189 0 -1 0 -0.64278761758704617 0 -0.76604443648966558 forward_v I I I I #
face $-1 $102 $103 $34 $-1 $104 forward single #
loop $-1 $105 $106 $43 #
cone-surface $-1 72.371302662298817 3.8561410970345946 18.035622046551747 -0.64278761758704617 0 -0.76604443648966558 0.38302221824483279 0 -0.32139380879352308 1 I I 0 1 0.5 forward I I I I #
face $-1 $107 $108 $35 $-1 $109 forward single #
loop $-1 $110 $111 $44 #
cone-surface $-1 72.371302662298817 7.2531542720414706 18.035622046551747 -0.64278761758704617 0 -0.76604443648966558 0.38302221824483279 0 -0.32139380879352308 1 I I 0 1 0.5 forward I I I I #
face $-1 $112 $113 $27 $-1 $114 reversed single #
loop $-1 $-1 $115 $45 #
plane-surface $-1 0 0 -23.030105019495952 0 0 1 1 0 0 forward_v I I I I #
coedge $-1 $116 $117 $118 $119 forward $46 $-1 #
face $-1 $120 $121 $28 $-1 $122 forward single #
loop $-1 $-1 $123 $48 #
plane-surface $-1 -78.188421277504801 0 0 1 0 0 0 0 -1 forward_v I I I I #
coedge $-1 $124 $125 $126 $127 forward $49 $-1 #
face $-1 $128 $129 $29 $-1 $130 forward single #
loop $-1 $-1 $131 $51 #
plane-surface $-1 78.188421277504801 0 0 -1 0 0 0 0 1 forward_v I I I I #
coedge $-1 $132 $133 $134 $135 forward $52 $-1 #
face $-1 $136 $137 $30 $-1 $138 reversed single #
loop $-1 $-1 $139 $54 #
plane-surface $-1 -78.188421277504801 0.27603201549252532 17.666861939404072 -0.87461971476443456 0 0.48480960649040278 0.48480960649040278 0 0.87461971476443456 forward_v I I I I #
coedge $-1 $140 $141 $142 $143 reversed $55 $-1 #
face $-1 $-1 $144 $31 $-1 $145 forward single #
loop $-1 $146 $147 $57 #
cone-surface $-1 -75.232854949953548 -1.8559239291801788 19.534137389285245 0.87461971476443456 0 -0.48480960649040278 0.24240480324520139 0 0.43730985738221728 1 I I -0.70710678118654746 0.70710678118654746 0.5 forward I I I I #
loop $-1 $-1 $148 $40 #
coedge $-1 $92 $92 $149 $150 reversed $58 $-1 #
face $-1 $-1 $151 $32 $-1 $152 forward single #
loop $-1 $153 $154 $60 #
cone-surface $-1 -75.232854949953548 2.4079879601652294 19.534137389285245 0.87461971476443456 0 -0.48480960649040278 0.24240480324520139 0 0.43730985738221728 1 I I -0.70710678118654746 0.70710678118654746 0.5 forward I I I I #
loop $-1 $-1 $155 $41 #
coedge $-1 $97 $97 $156 $157 reversed $61 $-1 #
face $-1 $158 $159 $33 $-1 $160 reversed single #
loop $-1 $-1 $161 $63 #
plane-surface $-1 -41.603188957580713 5.5546476845380326 114.32428158181641 0.64278761758704617 0 0.76604443648966558 0.76604443648966558 0 -0.64278761758704617 forward_v I I I I #
coedge $-1 $162 $163 $164 $165 reversed $64 $-1 #
face $-1 $-1 $166 $34 $-1 $167 forward single #
loop $-1 $168 $169 $66 #
cone-surface $-1 71.889211949108528 3.8561410970345946 17.461088719184499 -0.64278761758704617 0 -0.76604443648966558 0.1915111091224164 0 -0.16069690439676154 1 I I -0.70710678118654746 0.70710678118654746 0.25 forward I I I I #
loop $-1 $-1 $170 $43 #
coedge $-1 $106 $106 $171 $172 reversed $67 $-1 #
face $-1 $-1 $173 $35 $-1 $174 forward single #
loop $-1 $175 $176 $69 #
cone-surface $-1 71.889211949108528 7.2531542720414706 17.461088719184499 -0.64278761758704617 0 -0.76604443648966558 0.1915111091224164 0 -0.16069690439676154 1 I I -0.70710678118654746 0.70710678118654746 0.25 forward I I I I #
loop $-1 $-1 $177 $44 #
coedge $-1 $111 $111 $178 $179 reversed $70 $-1 #
face $-1 $180 $181 $27 $-1 $182 reversed single #
loop $-1 $-1 $183 $72 #
plane-surface $-1 0 -47.014943253534021 0 0 1 0 0 0 1 forward_v I I I I #
coedge $-1 $184 $185 $186 $187 forward $73 $-1 #
coedge $-1 $188 $75 $189 $190 forward $46 $-1 #
coedge $-1 $75 $188 $191 $192 forward $46 $-1 #
coedge $-1 $193 $194 $75 $119 reversed $195 $-1 #
edge $-1 $196 -47.014943253534021 $197 47.014943253534021 $118 $198 forward 7 unknown #
face $-1 $199 $200 $28 $-1 $201 reversed single #
loop $-1 $-1 $202 $76 #
plane-surface $-1 0 -60.583819783905497 -7.818331295491352 0 0 1 1 0 0 forward_v I I I I #
coedge $-1 $203 $204 $125 $205 forward $77 $-1 #
coedge $-1 $206 $79 $207 $208 reversed $49 $-1 #
coedge $-1 $79 $206 $123 $205 reversed $49 $-1 #
coedge $-1 $209 $202 $79 $127 reversed $121 $-1 #
edge $-1 $210 -78.188421277504801 $211 78.188421277504801 $126 $212 forward 7 unknown #
face $-1 $213 $214 $29 $-1 $215 reversed single #
loop $-1 $-1 $216 $80 #
plane-surface $-1 0 60.58381978390549 -7.818331295491352 0 0 1 1 0 0 forward_v I I I I #
coedge $-1 $217 $218 $133 $219 forward $81 $-1 #
coedge $-1 $220 $83 $221 $222 reversed $52 $-1 #
coedge $-1 $83 $220 $131 $219 reversed $52 $-1 #
coedge $-1 $216 $223 $83 $135 reversed $129 $-1 #
edge $-1 $224 -78.188421277504801 $225 78.188421277504801 $134 $226 forward 7 unknown #
face $-1 $227 $228 $30 $-1 $229 reversed single #
loop $-1 $-1 $230 $84 #
plane-surface $-1 -214.95869070873019 5.2505958863955051 93.479857442709942 0 -1 0 0.87461971476443456 0 -0.48480960649040278 forward_v I I I I #
coedge $-1 $231 $232 $233 $234 reversed $85 $-1 #
coedge $-1 $141 $87 $235 $236 reversed $55 $-1 #
coedge $-1 $87 $140 $231 $237 reversed $55 $-1 #
coedge $-1 $233 $238 $87 $143 forward $239 $-1 #
edge $-1 $240 29.290924076860293 $241 32.26381815102603 $142 $242 forward 7 unknown #
loop $-1 $-1 $149 $88 #
plane-surface $-1 -78.188421277504801 0.27603201549252532 17.666861939404072 -0.87461971476443456 0 0.48480960649040278 0.48480960649040278 0 0.87461971476443456 forward_v I I I I #
loop $-1 $-1 $243 $57 #
coedge $-1 $147 $147 $148 $244 reversed $89 $-1 #
coedge $-1 $148 $148 $147 $244 forward $91 $-1 #
coedge $-1 $149 $149 $92 $150 forward $144 $-1 #
edge $-1 $245 0 $245 6.2831853071796004 $149 $246 forward 7 unknown #
loop $-1 $-1 $156 $93 #
plane-surface $-1 -78.188421277504801 0.27603201549252532 17.666861939404072 -0.87461971476443456 0 0.48480960649040278 0.48480960649040278 0 0.87461971476443456 forward_v I I I I #
loop $-1 $-1 $247 $60 #
coedge $-1 $154 $154 $155 $248 reversed $94 $-1 #
coedge $-1 $155 $155 $154 $248 forward $96 $-1 #
coedge $-1 $156 $156 $97 $157 forward $151 $-1 #
edge $-1 $249 0 $249 6.2831853071796004 $156 $250 forward 7 unknown #
face $-1 $251 $252 $33 $-1 $253 forward single #
loop $-1 $-1 $254 $98 #
plane-surface $-1 58.913909114138534 1.591465647030013 234.11589181690189 0 1 0 0.64278761758704617 0 0.76604443648966558 forward_v I I I I #
coedge $-1 $255 $256 $257 $258 reversed $99 $-1 #
coedge $-1 $163 $101 $259 $260 reversed $64 $-1 #
coedge $-1 $101 $162 $255 $261 reversed $64 $-1 #
coedge $-1 $257 $262 $101 $165 forward $252 $-1 #
edge $-1 $263 -48.731466720435535 $264 -37.740017107610569 $164 $265 forward 7 unknown #
loop $-1 $-1 $171 $102 #
plane-surface $-1 -41.603188957580713 5.5546476845380326 114.32428158181641 0.64278761758704617 0 0.76604443648966558 0.76604443648966558 0 -0.64278761758704617 forward_v I I I I #
loop $-1 $-1 $266 $66 #
coedge $-1 $169 $169 $170 $267 reversed $103 $-1 #
coedge $-1 $170 $170 $169 $267 forward $105 $-1 #
coedge $-1 $171 $171 $106 $172 forward $166 $-1 #
edge $-1 $268 0 $268 6.2831853071796004 $171 $269 forward 7 unknown #
loop $-1 $-1 $178 $107 #
plane-surface $-1 -41.603188957580713 5.5546476845380326 114.32428158181641 0.64278761758704617 0 0.76604443648966558 0.76604443648966558 0 -0.64278761758704617 forward_v I I I I #
loop $-1 $-1 $270 $69 #
coedge $-1 $176 $176 $177 $271 reversed $108 $-1 #
coedge $-1 $177 $177 $176 $271 forward $110 $-1 #
coedge $-1 $178 $178 $111 $179 forward $173 $-1 #
edge $-1 $272 0 $272 6.2831853071796004 $178 $273 forward 7 unknown #
face $-1 $274 $275 $27 $-1 $276 reversed single #
loop $-1 $-1 $277 $112 #
plane-surface $-1 -78.188421277504801 0 0 1 0 0 0 0 -1 forward_v I I I I #
coedge $-1 $278 $191 $279 $280 forward $113 $-1 #
coedge $-1 $281 $115 $278 $282 forward $73 $-1 #
coedge $-1 $115 $281 $283 $284 forward $73 $-1 #
coedge $-1 $194 $193 $115 $187 reversed $195 $-1 #
edge $-1 $285 -47.014943253534021 $286 47.014943253534021 $186 $287 forward 7 unknown #
coedge $-1 $117 $116 $288 $289 forward $46 $-1 #
coedge $-1 $290 $291 $116 $190 reversed $275 $-1 #
edge $-1 $197 -78.188421277504801 $292 78.188421277504801 $189 $293 forward 7 unknown #
coedge $-1 $183 $294 $117 $192 reversed $113 $-1 #
edge $-1 $295 -78.188421277504801 $196 78.188421277504801 $191 $296 forward 7 unknown #
coedge $-1 $186 $118 $294 $297 forward $195 $-1 #
coedge $-1 $118 $186 $290 $298 reversed $195 $-1 #
loop $-1 $-1 $193 $274 #
vertex $-1 $119 $299 #
vertex $-1 $119 $300 #
straight-curve $-1 78.188421277504801 0 23.030105019495952 0 1 0 I I #
face $-1 $301 $302 $28 $-1 $303 reversed single #
loop $-1 $-1 $304 $120 #
plane-surface $-1 0 -60.583819783905497 -20.453366481363684 0 0 1 1 0 0 forward_v I I I I #
coedge $-1 $126 $305 $306 $307 forward $121 $-1 #
coedge $-1 $308 $123 $309 $310 reversed $77 $-1 #
coedge $-1 $123 $308 $209 $311 reversed $77 $-1 #
edge $-1 $210 7.818331295491352 $312 20.453366481363684 $123 $313 forward 7 unknown #
coedge $-1 $125 $124 $314 $315 forward $49 $-1 #
coedge $-1 $306 $316 $124 $208 forward $317 $-1 #
edge $-1 $318 -20.453366481363684 $211 -7.818331295491352 $207 $319 forward 7 unknown #
coedge $-1 $305 $126 $204 $311 forward $121 $-1 #
vertex $-1 $205 $320 #
vertex $-1 $307 $321 #
straight-curve $-1 0 -47.014943253534021 -7.818331295491352 1 0 0 I I #
face $-1 $322 $323 $29 $-1 $324 reversed single #
loop $-1 $-1 $325 $128 #
plane-surface $-1 0 60.58381978390549 -20.453366481363684 0 0 1 1 0 0 forward_v I I I I #
coedge $-1 $326 $134 $218 $327 forward $129 $-1 #
coedge $-1 $328 $131 $325 $329 reversed $81 $-1 #
coedge $-1 $131 $328 $216 $327 reversed $81 $-1 #
edge $-1 $224 7.818331295491352 $330 20.453366481363684 $131 $331 forward 7 unknown #
coedge $-1 $133 $132 $332 $333 forward $52 $-1 #
coedge $-1 $334 $335 $132 $222 forward $336 $-1 #
edge $-1 $337 -20.453366481363684 $225 -7.818331295491352 $221 $338 forward 7 unknown #
coedge $-1 $134 $326 $334 $339 forward $129 $-1 #
vertex $-1 $219 $340 #
vertex $-1 $339 $341 #
straight-curve $-1 0 47.014943253534021 -7.818331295491352 -1 0 0 I I #
face $-1 $-1 $239 $30 $-1 $342 forward single #
loop $-1 $-1 $343 $136 #
plane-surface $-1 -78.188421277504801 0 0 1 0 0 0 0 -1 forward_v I I I I #
coedge $-1 $344 $345 $346 $347 reversed $137 $-1 #
coedge $-1 $348 $139 $141 $237 forward $85 $-1 #
coedge $-1 $139 $348 $344 $349 forward $85 $-1 #
coedge $-1 $346 $142 $139 $234 forward $239 $-1 #
edge $-1 $241 -4.8365478631567171 $350 5.1125798786492425 $233 $351 forward 7 unknown #
coedge $-1 $352 $353 $140 $236 forward $228 $-1 #
edge $-1 $354 -29.073066781950899 $240 -23.709823701859019 $235 $355 forward 7 unknown #
edge $-1 $241 -6.1320857391562296 $354 0 $141 $356 forward 7 unknown #
coedge $-1 $142 $346 $352 $357 forward $239 $-1 #
loop $-1 $-1 $346 $227 #
vertex $-1 $236 $358 #
vertex $-1 $143 $359 #
straight-curve $-1 -107.47934535436509 -4.6985318554104545 23.030105019495949 1 0 0 I I #
coedge $-1 $243 $243 $-1 $360 reversed $146 $-1 #
edge $-1 $361 0 $361 6.2831853071796004 $147 $362 forward 7 unknown #
vertex $-1 $150 $363 #
ellipse-curve $-1 -76.701974240421933 -1.8559239291801788 20.34848347945001 -0.87461971476443456 0 0.48480960649040278 0.48480960649040278 0 0.87461971476443456 1 I I #
coedge $-1 $247 $247 $-1 $364 reversed $153 $-1 #
edge $-1 $365 0 $365 6.2831853071796004 $154 $366 forward 7 unknown #
vertex $-1 $157 $367 #
ellipse-curve $-1 -76.701974240421933 2.4079879601652294 20.34848347945001 -0.87461971476443456 0 0.48480960649040278 0.48480960649040278 0 0.87461971476443456 1 I I #
face $-1 $-1 $368 $33 $-1 $369 reversed single #
loop $-1 $-1 $164 $158 #
plane-surface $-1 0 0 23.030105019495952 0 0 1 1 0 0 forward_v I I I I #
coedge $-1 $370 $371 $372 $373 reversed $159 $-1 #
coedge $-1 $374 $161 $163 $261 forward $99 $-1 #
coedge $-1 $161 $374 $370 $375 forward $99 $-1 #
coedge $-1 $372 $164 $161 $258 forward $252 $-1 #
edge $-1 $264 -6.7405058797770359 $376 1.1858581952390033 $257 $377 forward 7 unknown #
coedge $-1 $378 $379 $162 $260 forward $368 $-1 #
edge $-1 $380 -103.2507623983538 $263 -94.027840888954998 $259 $381 forward 7 unknown #
edge $-1 $264 142.02852398592981 $380 156.37684255500963 $163 $382 forward 7 unknown #
coedge $-1 $164 $372 $378 $383 forward $252 $-1 #
vertex $-1 $260 $384 #
vertex $-1 $165 $385 #
straight-curve $-1 29.456954557069267 9.5178297220460522 23.030105019495949 -1 0 0 I I #
coedge $-1 $266 $266 $-1 $386 reversed $168 $-1 #
edge $-1 $387 0 $387 6.2831853071796004 $169 $388 forward 7 unknown #
vertex $-1 $172 $389 #
ellipse-curve $-1 72.692696471092319 3.8561410970345946 18.418644264796548 0.64278761758704617 0 0.76604443648966558 0.38302221824483279 0 -0.32139380879352308 1 I I #
coedge $-1 $270 $270 $-1 $390 reversed $175 $-1 #
edge $-1 $391 0 $391 6.2831853071796004 $176 $392 forward 7 unknown #
vertex $-1 $179 $393 #
ellipse-curve $-1 72.692696471092319 7.2531542720414706 18.418644264796548 0.64278761758704617 0 0.76604443648966558 0.38302221824483279 0 -0.32139380879352308 1 I I #
face $-1 $-1 $195 $27 $-1 $394 reversed single #
loop $-1 $-1 $291 $180 #
plane-surface $-1 0 47.014943253534021 0 0 -1 0 0 0 -1 forward_v I I I I #
coedge $-1 $395 $288 $291 $396 forward $181 $-1 #
coedge $-1 $294 $183 $184 $282 reversed $113 $-1 #
coedge $-1 $288 $395 $183 $280 reversed $181 $-1 #
edge $-1 $295 -23.030105019495952 $397 23.030105019495952 $279 $398 forward 7 unknown #
coedge $-1 $185 $184 $395 $399 forward $73 $-1 #
edge $-1 $286 -78.188421277504801 $397 78.188421277504801 $278 $400 forward 7 unknown #
coedge $-1 $291 $290 $185 $284 reversed $275 $-1 #
edge $-1 $401 -78.188421277504801 $285 78.188421277504801 $283 $402 forward 7 unknown #
vertex $-1 $187 $403 #
vertex $-1 $297 $404 #
straight-curve $-1 78.188421277504801 0 -23.030105019495952 0 -1 0 I I #
coedge $-1 $277 $279 $188 $289 reversed $181 $-1 #
edge $-1 $292 -47.014943253534021 $295 47.014943253534021 $288 $405 forward 7 unknown #
coedge $-1 $283 $189 $194 $298 forward $275 $-1 #
coedge $-1 $189 $283 $277 $396 reversed $275 $-1 #
vertex $-1 $190 $406 #
straight-curve $-1 0 47.014943253534021 23.030105019495952 -1 0 0 I I #
coedge $-1 $191 $278 $193 $297 reversed $113 $-1 #
vertex $-1 $289 $407 #
straight-curve $-1 0 -47.014943253534021 23.030105019495952 1 0 0 I I #
edge $-1 $196 -23.030105019495952 $286 23.030105019495952 $193 $408 forward 7 unknown #
edge $-1 $197 -23.030105019495952 $285 23.030105019495952 $194 $409 forward 7 unknown #
point $-1 78.188421277504801 -47.014943253534021 23.030105019495952 #
point $-1 78.188421277504801 47.014943253534021 23.030105019495952 #
face $-1 $-1 $317 $28 $-1 $410 reversed single #
loop $-1 $-1 $411 $199 #
plane-surface $-1 0 -74.15269631427698 -14.135848888427518 0 1 0 0 0 1 forward_v I I I I #
coedge $-1 $412 $314 $316 $413 forward $200 $-1 #
coedge $-1 $202 $209 $414 $415 forward $121 $-1 #
coedge $-1 $416 $207 $202 $307 reversed $317 $-1 #
edge $-1 $417 -13.568876530371483 $211 13.568876530371476 $306 $418 forward 7 unknown #
coedge $-1 $204 $203 $411 $419 reversed $77 $-1 #
coedge $-1 $314 $412 $203 $310 forward $200 $-1 #
edge $-1 $420 -13.568876530371483 $312 13.568876530371476 $203 $421 forward 7 unknown #
edge $-1 $210 -13.568876530371476 $422 13.568876530371483 $204 $423 forward 7 unknown #
vertex $-1 $205 $424 #
straight-curve $-1 -78.188421277504801 -47.014943253534021 0 0 0 -1 I I #
coedge $-1 $304 $309 $206 $315 reversed $200 $-1 #
edge $-1 $318 -78.188421277504801 $312 78.188421277504801 $314 $425 forward 7 unknown #
coedge $-1 $207 $416 $304 $413 reversed $317 $-1 #
loop $-1 $-1 $207 $301 #
vertex $-1 $208 $426 #
straight-curve $-1 78.188421277504801 -47.014943253534021 0 0 0 1 I I #
point $-1 -78.188421277504801 -47.014943253534021 -7.818331295491352 #
point $-1 78.188421277504801 -47.014943253534021 -7.818331295491352 #
face $-1 $-1 $336 $29 $-1 $427 reversed single #
loop $-1 $-1 $428 $213 #
plane-surface $-1 0 74.152696314276966 -14.135848888427518 0 -1 0 0 0 -1 forward_v I I I I #
coedge $-1 $332 $429 $217 $329 forward $214 $-1 #
coedge $-1 $223 $216 $430 $431 forward $129 $-1 #
edge $-1 $224 -13.568876530371476 $432 13.568876530371476 $218 $433 forward 7 unknown #
coedge $-1 $218 $217 $428 $434 reversed $81 $-1 #
edge $-1 $435 -13.568876530371476 $330 13.568876530371476 $217 $436 forward 7 unknown #
vertex $-1 $219 $437 #
straight-curve $-1 78.188421277504801 47.014943253534021 0 0 0 -1 I I #
coedge $-1 $438 $325 $220 $333 reversed $214 $-1 #
edge $-1 $337 -78.188421277504801 $330 78.188421277504801 $332 $439 forward 7 unknown #
coedge $-1 $440 $221 $223 $339 reversed $336 $-1 #
coedge $-1 $221 $440 $438 $441 reversed $336 $-1 #
loop $-1 $-1 $221 $322 #
vertex $-1 $222 $442 #
straight-curve $-1 -78.188421277504801 47.014943253534021 0 0 0 1 I I #
edge $-1 $443 -13.568876530371476 $225 13.568876530371476 $334 $444 forward 7 unknown #
point $-1 78.188421277504801 47.014943253534014 -7.818331295491352 #
point $-1 -78.188421277504801 47.014943253534014 -7.818331295491352 #
plane-surface $-1 0 0 23.030105019495952 0 0 1 1 0 0 forward_v I I I I #
coedge $-1 $353 $352 $345 $445 forward $228 $-1 #
coedge $-1 $345 $230 $232 $349 reversed $137 $-1 #
coedge $-1 $230 $344 $343 $445 reversed $137 $-1 #
coedge $-1 $238 $233 $230 $347 forward $239 $-1 #
edge $-1 $350 -32.26381815102603 $446 -29.290924076860293 $346 $447 forward 7 unknown #
coedge $-1 $232 $231 $353 $448 reversed $85 $-1 #
edge $-1 $449 0 $350 6.1320857391562296 $344 $450 forward 7 unknown #
vertex $-1 $234 $451 #
straight-curve $-1 -75.21552720333905 0.13801600774626266 23.030105019495956 0 1 0 I I #
coedge $-1 $343 $235 $238 $357 reversed $228 $-1 #
coedge $-1 $235 $343 $348 $448 forward $228 $-1 #
vertex $-1 $236 $452 #
straight-curve $-1 -78.188421277504801 -4.6985318554104545 46.739928721354971 0 0 1 I I #
straight-curve $-1 -78.188421277504801 -4.6985318554104545 17.666861939404072 -0.48480960649040278 0 -0.87461971476443456 I I #
edge $-1 $446 -5.2505958863955051 $240 4.6985318554104545 $352 $453 forward 7 unknown #
point $-1 -78.188421277504801 -4.6985318554104545 23.030105019495952 #
point $-1 -75.215527203339064 -4.6985318554104545 23.030105019495952 #
edge $-1 $454 1 $454 0 $243 $-1 forward 7 unknown #
vertex $-1 $244 $455 #
ellipse-curve $-1 -75.670164807335766 -1.8559239291801788 19.776542192530446 -0.87461971476443456 0 0.48480960649040278 0.48480960649040278 0 0.87461971476443456 1 I I #
point $-1 -76.217164633931517 -1.8559239291801788 21.223103194214438 #
edge $-1 $456 1 $456 0 $247 $-1 forward 7 unknown #
vertex $-1 $248 $457 #
ellipse-curve $-1 -75.670164807335766 2.4079879601652294 19.776542192530446 -0.87461971476443456 0 0.48480960649040278 0.48480960649040278 0 0.87461971476443456 1 I I #
point $-1 -76.217164633931517 2.4079879601652294 21.223103194214438 #
loop $-1 $-1 $259 $251 #
plane-surface $-1 78.188421277504801 0 0 -1 0 0 0 0 1 forward_v I I I I #
coedge $-1 $371 $254 $256 $375 reversed $159 $-1 #
coedge $-1 $254 $370 $458 $459 reversed $159 $-1 #
coedge $-1 $262 $257 $254 $373 forward $252 $-1 #
edge $-1 $376 37.740017107610569 $460 48.731466720435535 $372 $461 forward 7 unknown #
coedge $-1 $256 $255 $379 $462 reversed $99 $-1 #
edge $-1 $463 -156.37684255500963 $376 -142.02852398592981 $370 $464 forward 7 unknown #
vertex $-1 $258 $465 #
straight-curve $-1 67.196971664679836 2.7773238422690163 23.030105019495949 0 -1 0 I I #
coedge $-1 $458 $259 $262 $383 reversed $368 $-1 #
coedge $-1 $259 $458 $374 $462 forward $368 $-1 #
vertex $-1 $260 $466 #
straight-curve $-1 78.188421277504801 9.5178297220460522 117.05794590845095 0 0 1 I I #
straight-curve $-1 -41.603188957580713 9.5178297220460522 114.32428158181641 0.76604443648966558 0 -0.64278761758704617 I I #
edge $-1 $460 1.591465647030013 $263 9.5178297220460522 $378 $467 forward 7 unknown #
point $-1 78.188421277504801 9.5178297220460522 23.030105019495952 #
point $-1 67.196971664679836 9.5178297220460522 23.030105019495949 #
edge $-1 $468 1 $468 0 $266 $-1 forward 7 unknown #
vertex $-1 $267 $469 #
ellipse-curve $-1 72.049908853505286 3.8561410970345946 17.652599828306915 0.64278761758704617 0 0.76604443648966558 0.38302221824483279 0 -0.32139380879352308 1 I I #
point $-1 73.075718689337165 3.8561410970345946 18.097250456003056 #
edge $-1 $470 1 $470 0 $270 $-1 forward 7 unknown #
vertex $-1 $271 $471 #
ellipse-curve $-1 72.049908853505286 7.2531542720414706 17.652599828306915 0.64278761758704617 0 0.76604443648966558 0.38302221824483279 0 -0.32139380879352308 1 I I #
point $-1 73.075718689337165 7.2531542720414706 18.097250456003056 #
plane-surface $-1 78.188421277504801 0 0 -1 0 0 0 0 1 forward_v I I I I #
coedge $-1 $279 $277 $281 $399 reversed $181 $-1 #
edge $-1 $292 -23.030105019495952 $401 23.030105019495952 $291 $472 forward 7 unknown #
vertex $-1 $399 $473 #
straight-curve $-1 -78.188421277504801 -47.014943253534021 0 0 0 -1 I I #
edge $-1 $397 -47.014943253534021 $401 47.014943253534021 $395 $474 forward 7 unknown #
straight-curve $-1 0 -47.014943253534021 -23.030105019495952 -1 0 0 I I #
vertex $-1 $284 $475 #
straight-curve $-1 0 47.014943253534021 -23.030105019495952 1 0 0 I I #
point $-1 78.188421277504801 47.014943253534021 -23.030105019495952 #
point $-1 78.188421277504801 -47.014943253534021 -23.030105019495952 #
straight-curve $-1 -78.188421277504801 0 23.030105019495952 0 -1 0 I I #
point $-1 -78.188421277504801 47.014943253534021 23.030105019495952 #
point $-1 -78.188421277504801 -47.014943253534021 23.030105019495952 #
straight-curve $-1 78.188421277504801 -47.014943253534021 0 0 0 -1 I I #
straight-curve $-1 78.188421277504801 47.014943253534021 0 0 0 -1 I I #
plane-surface $-1 78.188421277504801 0 0 -1 0 0 0 0 1 forward_v I I I I #
coedge $-1 $476 $414 $308 $419 forward $302 $-1 #
coedge $-1 $309 $304 $476 $477 forward $200 $-1 #
edge $-1 $318 -13.568876530371476 $478 13.568876530371483 $316 $479 forward 7 unknown #
coedge $-1 $411 $480 $305 $415 reversed $302 $-1 #
edge $-1 $422 -78.188421277504801 $417 78.188421277504801 $414 $481 forward 7 unknown #
coedge $-1 $316 $306 $480 $482 forward $317 $-1 #
vertex $-1 $307 $483 #
straight-curve $-1 78.188421277504801 -60.583819783905497 -7.818331295491352 0 1 0 I I #
edge $-1 $422 -6.3175175929361655 $420 6.3175175929361664 $308 $484 forward 7 unknown #
vertex $-1 $310 $485 #
straight-curve $-1 -78.188421277504801 -60.583819783905497 -20.453366481363684 0 1 0 I I #
vertex $-1 $311 $486 #
straight-curve $-1 -78.188421277504801 -60.583819783905497 -7.818331295491352 0 -1 0 I I #
point $-1 -78.188421277504801 -47.014943253534021 -20.453366481363684 #
straight-curve $-1 0 -47.014943253534021 -20.453366481363684 -1 0 0 I I #
point $-1 78.188421277504801 -47.014943253534021 -20.453366481363684 #
plane-surface $-1 -78.188421277504801 0 0 1 0 0 0 0 -1 forward_v I I I I #
coedge $-1 $487 $430 $328 $434 forward $323 $-1 #
coedge $-1 $325 $438 $487 $488 forward $214 $-1 #
coedge $-1 $428 $489 $326 $431 reversed $323 $-1 #
edge $-1 $432 -78.188421277504801 $443 78.188421277504801 $430 $490 forward 7 unknown #
vertex $-1 $327 $491 #
straight-curve $-1 78.188421277504801 60.58381978390549 -7.818331295491352 0 1 0 I I #
edge $-1 $432 -6.3175175929361655 $435 6.3175175929361664 $328 $492 forward 7 unknown #
vertex $-1 $329 $493 #
straight-curve $-1 78.188421277504801 60.58381978390549 -20.453366481363684 0 -1 0 I I #
point $-1 78.188421277504801 47.014943253534014 -20.453366481363684 #
coedge $-1 $429 $332 $335 $441 forward $214 $-1 #
straight-curve $-1 0 47.014943253534021 -20.453366481363684 1 0 0 I I #
coedge $-1 $335 $334 $489 $494 forward $336 $-1 #
edge $-1 $337 -13.568876530371476 $495 13.568876530371476 $335 $496 forward 7 unknown #
point $-1 -78.188421277504801 47.014943253534014 -20.453366481363684 #
vertex $-1 $431 $497 #
straight-curve $-1 -78.188421277504801 60.58381978390549 -7.818331295491352 0 -1 0 I I #
edge $-1 $446 23.709823701859019 $449 29.073066781950899 $343 $498 forward 7 unknown #
vertex $-1 $357 $499 #
straight-curve $-1 -107.47934535436509 5.2505958863955051 23.030105019495949 -1 0 0 I I #
edge $-1 $449 -5.1125798786492425 $354 4.8365478631567171 $353 $500 forward 7 unknown #
vertex $-1 $448 $501 #
straight-curve $-1 -78.188421277504801 5.2505958863955051 17.666861939404072 0.48480960649040278 0 0.87461971476443456 I I #
point $-1 -75.215527203339064 5.2505958863955051 23.030105019495952 #
point $-1 -78.188421277504801 -4.6985318554104545 17.666861939404072 #
straight-curve $-1 -78.188421277504801 0 23.030105019495952 0 -1 0 I I #
vertex $-1 $360 $502 #
point $-1 -75.185355200845365 -1.8559239291801788 20.651161907294881 #
vertex $-1 $364 $503 #
point $-1 -75.185355200845365 2.4079879601652294 20.651161907294881 #
coedge $-1 $379 $378 $371 $459 forward $368 $-1 #
edge $-1 $460 94.027840888954998 $463 103.2507623983538 $458 $504 forward 7 unknown #
vertex $-1 $383 $505 #
straight-curve $-1 29.456954557069267 1.591465647030013 23.030105019495949 1 0 0 I I #
edge $-1 $463 -1.1858581952390033 $380 6.7405058797770359 $379 $506 forward 7 unknown #
vertex $-1 $462 $507 #
straight-curve $-1 -41.603188957580713 1.591465647030013 114.32428158181641 -0.76604443648966558 0 0.64278761758704617 I I #
point $-1 67.196971664679836 1.591465647030013 23.030105019495949 #
point $-1 78.188421277504801 9.5178297220460522 13.807183510097147 #
straight-curve $-1 78.188421277504801 0 23.030105019495952 0 1 0 I I #
vertex $-1 $386 $508 #
point $-1 72.432931071750119 3.8561410970345946 17.331206019513392 #
vertex $-1 $390 $509 #
point $-1 72.432931071750119 7.2531542720414706 17.331206019513392 #
straight-curve $-1 -78.188421277504801 47.014943253534021 0 0 0 -1 I I #
point $-1 -78.188421277504801 -47.014943253534021 -23.030105019495952 #
straight-curve $-1 -78.188421277504801 0 -23.030105019495952 0 1 0 I I #
point $-1 -78.188421277504801 47.014943253534021 -23.030105019495952 #
coedge $-1 $480 $411 $412 $477 reversed $302 $-1 #
edge $-1 $478 -78.188421277504801 $420 78.188421277504801 $476 $510 forward 7 unknown #
vertex $-1 $482 $511 #
straight-curve $-1 78.188421277504801 -60.583819783905497 -20.453366481363684 0 -1 0 I I #
coedge $-1 $414 $476 $416 $482 reversed $302 $-1 #
straight-curve $-1 0 -74.15269631427698 -7.818331295491352 1 0 0 I I #
edge $-1 $417 -6.3175175929361655 $478 6.3175175929361664 $416 $512 forward 7 unknown #
point $-1 78.188421277504801 -74.15269631427698 -7.818331295491352 #
straight-curve $-1 -78.188421277504801 -74.15269631427698 -14.135848888427518 0 0 -1 I I #
point $-1 -78.188421277504801 -74.15269631427698 -20.453366481363684 #
point $-1 -78.188421277504801 -74.15269631427698 -7.818331295491352 #
coedge $-1 $489 $428 $429 $488 reversed $323 $-1 #
edge $-1 $495 -78.188421277504801 $435 78.188421277504801 $487 $513 forward 7 unknown #
coedge $-1 $430 $487 $440 $494 reversed $323 $-1 #
straight-curve $-1 0 74.152696314276966 -7.818331295491352 -1 0 0 I I #
point $-1 78.188421277504801 74.152696314276966 -7.818331295491352 #
straight-curve $-1 78.188421277504801 74.152696314276966 -14.135848888427518 0 0 -1 I I #
point $-1 78.188421277504801 74.152696314276966 -20.453366481363684 #
edge $-1 $443 -6.3175175929361655 $495 6.3175175929361664 $489 $514 forward 7 unknown #
vertex $-1 $488 $515 #
straight-curve $-1 -78.188421277504801 60.58381978390549 -20.453366481363684 0 1 0 I I #
point $-1 -78.188421277504801 74.152696314276966 -7.818331295491352 #
straight-curve $-1 -78.188421277504801 5.2505958863955051 46.739928721354971 0 0 -1 I I #
point $-1 -78.188421277504801 5.2505958863955051 23.030105019495952 #
straight-curve $-1 -78.188421277504801 0.13801600774626266 17.666861939404082 0 -1 0 I I #
point $-1 -78.188421277504801 5.2505958863955051 17.666861939404072 #
point $-1 -74.795545092571331 -1.8559239291801788 19.291732586040045 #
point $-1 -74.795545092571331 2.4079879601652294 19.291732586040045 #
straight-curve $-1 78.188421277504801 1.591465647030013 117.05794590845095 0 0 -1 I I #
point $-1 78.188421277504801 1.591465647030013 23.030105019495952 #
straight-curve $-1 78.188421277504801 2.7773238422690163 13.807183510097154 0 1 0 I I #
point $-1 78.188421277504801 1.591465647030013 13.807183510097147 #
point $-1 71.72851504471177 3.8561410970345946 17.269577610062083 #
point $-1 71.72851504471177 7.2531542720414706 17.269577610062083 #
straight-curve $-1 0 -74.15269631427698 -20.453366481363684 -1 0 0 I I #
point $-1 78.188421277504801 -74.15269631427698 -20.453366481363684 #
straight-curve $-1 78.188421277504801 -74.15269631427698 -14.135848888427518 0 0 -1 I I #
straight-curve $-1 0 74.152696314276966 -20.453366481363684 1 0 0 I I #
straight-curve $-1 -78.188421277504801 74.152696314276966 -14.135848888427518 0 0 -1 I I #
point $-1 -78.188421277504801 74.152696314276966 -20.453366481363684 #
End-of-ACIS-data 