500 0 5 0           
7 Unknown 11 ACIS 5.0 NT 24 Thu Mar 25 19:28:18 1999 
-1 9.9999999999999995e-007 1e-010 
body $-1 $5 $-1 $6 #
body $-1 $7 $-1 $8 #
body $-1 $9 $-1 $10 #
body $-1 $11 $-1 $12 #
body $-1 $13 $-1 $14 #
lump $-1 $-1 $15 $0 #
transform $-1 1 0 0 0 1 0 0 0 1 79.062471388897364 35.219680467396444 8.2602387887796151 1 rotate no_reflect no_shear #
lump $-1 $-1 $16 $1 #
transform $-1 1 0 0 0 1 0 0 0 1 79.062471388897364 35.219680467396444 8.2602387887796151 1 rotate no_reflect no_shear #
lump $-1 $-1 $17 $2 #
transform $-1 1 0 0 0 1 0 0 0 1 79.062471388897364 35.219680467396444 8.2602387887796151 1 rotate no_reflect no_shear #
lump $-1 $-1 $18 $3 #
transform $-1 1 0 0 0 1 0 0 0 1 79.062471388897364 35.219680467396444 8.2602387887796151 1 rotate no_reflect no_shear #
lump $-1 $-1 $19 $4 #
transform $-1 1 0 0 0 1 0 0 0 1 79.062471388897364 35.219680467396444 8.2602387887796151 1 rotate no_reflect no_shear #
shell $-1 $-1 $-1 $20 $-1 $5 #
shell $-1 $-1 $-1 $21 $-1 $7 #
shell $-1 $-1 $-1 $22 $-1 $9 #
shell $-1 $-1 $-1 $23 $-1 $11 #
shell $-1 $-1 $-1 $24 $-1 $13 #
face $-1 $25 $26 $15 $-1 $27 forward single #
face $-1 $28 $29 $16 $-1 $30 forward single #
face $-1 $31 $32 $17 $-1 $33 reversed single #
face $-1 $34 $35 $18 $-1 $36 forward single #
face $-1 $37 $38 $19 $-1 $39 forward single #
face $-1 $40 $41 $15 $-1 $42 reversed single #
loop $-1 $-1 $43 $20 #
plane-surface $-1 0 0 8.2602387887796151 0 0 1 1 0 0 forward_v I I I I #
face $-1 $44 $45 $16 $-1 $46 reversed single #
loop $-1 $-1 $47 $21 #
plane-surface $-1 0 -35.219680467396444 0 0 1 0 0 0 1 forward_v I I I I #
face $-1 $48 $49 $17 $-1 $50 reversed single #
loop $-1 $-1 $51 $22 #
plane-surface $-1 -214.60200300230557 4.7603245122624642 84.438027531110876 0 1 0 -0.85716730853699208 0 0.51503806187062418 forward_v I I I I #
face $-1 $52 $53 $18 $-1 $54 forward single #
loop $-1 $55 $56 $23 #
cone-surface $-1 -76.624875210453951 6.5286647386197316 5.1142785152450774 0.85716730853699208 0 -0.51503806187062418 0.25751903093531209 0 0.42858365426849604 1 I I 0 1 0.5 forward I I I I #
face $-1 $57 $58 $19 $-1 $59 forward single #
loop $-1 $60 $61 $24 #
cone-surface $-1 -76.624875210453951 9.1811750781556327 5.1142785152450774 0.85716730853699208 0 -0.51503806187062418 0.25751903093531209 0 0.42858365426849604 1 I I 0 1 0.5 forward I I I I #
face $-1 $62 $63 $15 $-1 $64 reversed single #
loop $-1 $-1 $65 $25 #
plane-surface $-1 0 0 -8.2602387887796151 0 0 1 1 0 0 forward_v I I I I #
coedge $-1 $66 $67 $68 $69 forward $26 $-1 #
face $-1 $70 $71 $16 $-1 $72 reversed single #
loop $-1 $-1 $73 $28 #
plane-surface $-1 0 0 -8.2602387887796151 0 0 1 1 0 0 forward_v I I I I #
coedge $-1 $74 $75 $76 $77 forward $29 $-1 #
face $-1 $78 $79 $17 $-1 $80 reversed single #
loop $-1 $-1 $81 $31 #
plane-surface $-1 -79.062471388897364 7.8549199083876857 2.9976634694321262 -0.85716730853699208 0 0.51503806187062418 0.51503806187062418 0 0.85716730853699208 forward_v I I I I #
coedge $-1 $82 $83 $84 $85 reversed $32 $-1 #
face $-1 $-1 $86 $18 $-1 $87 forward single #
loop $-1 $88 $89 $34 #
cone-surface $-1 -75.554024282428315 6.5286647386197316 4.470846385916639 0.85716730853699208 0 -0.51503806187062418 0.12875951546765604 0 0.21429182713424802 1 I I -0.70710678118654746 0.70710678118654746 0.25 forward I I I I #
loop $-1 $-1 $90 $23 #
coedge $-1 $56 $56 $91 $92 reversed $35 $-1 #
face $-1 $-1 $93 $19 $-1 $94 forward single #
loop $-1 $95 $96 $37 #
cone-surface $-1 -75.554024282428315 9.1811750781556327 4.470846385916639 0.85716730853699208 0 -0.51503806187062418 0.12875951546765604 0 0.21429182713424802 1 I I -0.70710678118654746 0.70710678118654746 0.25 forward I I I I #
loop $-1 $-1 $97 $24 #
coedge $-1 $61 $61 $98 $99 reversed $38 $-1 #
face $-1 $100 $101 $15 $-1 $102 reversed single #
loop $-1 $-1 $103 $40 #
plane-surface $-1 0 -35.219680467396444 0 0 1 0 0 0 1 forward_v I I I I #
coedge $-1 $104 $105 $106 $107 forward $41 $-1 #
coedge $-1 $108 $43 $109 $110 forward $26 $-1 #
coedge $-1 $43 $108 $111 $112 forward $26 $-1 #
coedge $-1 $113 $114 $43 $69 reversed $115 $-1 #
edge $-1 $116 -35.219680467396444 $117 35.219680467396444 $68 $118 forward 7 unknown #
face $-1 $119 $120 $16 $-1 $121 forward single #
loop $-1 $-1 $122 $44 #
plane-surface $-1 79.062471388897364 0 0 -1 0 0 0 0 1 forward_v I I I I #
coedge $-1 $123 $124 $125 $126 forward $45 $-1 #
coedge $-1 $125 $47 $122 $127 reversed $29 $-1 #
coedge $-1 $47 $125 $128 $129 reversed $29 $-1 #
coedge $-1 $130 $131 $47 $77 reversed $120 $-1 #
edge $-1 $132 -79.062471388897364 $133 79.062471388897364 $76 $134 forward 7 unknown #
face $-1 $135 $136 $17 $-1 $137 forward single #
loop $-1 $-1 $138 $48 #
plane-surface $-1 -214.60200300230557 10.949515304512907 84.438027531110876 0 -1 0 0.85716730853699208 0 -0.51503806187062418 forward_v I I I I #
coedge $-1 $139 $140 $141 $142 reversed $49 $-1 #
coedge $-1 $83 $51 $143 $144 reversed $32 $-1 #
coedge $-1 $51 $82 $139 $145 reversed $32 $-1 #
coedge $-1 $141 $146 $51 $85 forward $136 $-1 #
edge $-1 $147 28.238530112255418 $148 31.400604267359455 $84 $149 forward 7 unknown #
loop $-1 $-1 $91 $52 #
plane-surface $-1 -79.062471388897364 7.8549199083876857 2.9976634694321262 -0.85716730853699208 0 0.51503806187062418 0.51503806187062418 0 0.85716730853699208 forward_v I I I I #
loop $-1 $-1 $150 $34 #
coedge $-1 $89 $89 $90 $151 reversed $53 $-1 #
coedge $-1 $90 $90 $89 $151 forward $55 $-1 #
coedge $-1 $91 $91 $56 $92 forward $86 $-1 #
edge $-1 $152 0 $152 6.2831853071796004 $91 $153 forward 7 unknown #
loop $-1 $-1 $98 $57 #
plane-surface $-1 -79.062471388897364 7.8549199083876857 2.9976634694321262 -0.85716730853699208 0 0.51503806187062418 0.51503806187062418 0 0.85716730853699208 forward_v I I I I #
loop $-1 $-1 $154 $37 #
coedge $-1 $96 $96 $97 $155 reversed $58 $-1 #
coedge $-1 $97 $97 $96 $155 forward $60 $-1 #
coedge $-1 $98 $98 $61 $99 forward $93 $-1 #
edge $-1 $156 0 $156 6.2831853071796004 $98 $157 forward 7 unknown #
face $-1 $158 $159 $15 $-1 $160 reversed single #
loop $-1 $-1 $161 $62 #
plane-surface $-1 -79.062471388897364 0 0 1 0 0 0 0 -1 forward_v I I I I #
coedge $-1 $162 $111 $163 $164 forward $63 $-1 #
coedge $-1 $165 $65 $162 $166 forward $41 $-1 #
coedge $-1 $65 $165 $167 $168 forward $41 $-1 #
coedge $-1 $114 $113 $65 $107 reversed $115 $-1 #
edge $-1 $169 -35.219680467396444 $170 35.219680467396444 $106 $171 forward 7 unknown #
coedge $-1 $67 $66 $172 $173 forward $26 $-1 #
coedge $-1 $174 $175 $66 $110 reversed $159 $-1 #
edge $-1 $117 -79.062471388897364 $176 79.062471388897364 $109 $177 forward 7 unknown #
coedge $-1 $103 $178 $67 $112 reversed $63 $-1 #
edge $-1 $179 -79.062471388897364 $116 79.062471388897364 $111 $180 forward 7 unknown #
coedge $-1 $106 $68 $178 $181 forward $115 $-1 #
coedge $-1 $68 $106 $174 $182 reversed $115 $-1 #
loop $-1 $-1 $113 $158 #
vertex $-1 $69 $183 #
vertex $-1 $69 $184 #
straight-curve $-1 79.062471388897364 0 8.2602387887796151 0 1 0 I I #
face $-1 $185 $186 $16 $-1 $187 reversed single #
loop $-1 $-1 $131 $70 #
plane-surface $-1 0 -39.885045285642583 -3.8065616538154909 0 0 1 1 0 0 forward_v I I I I #
coedge $-1 $188 $189 $74 $127 forward $71 $-1 #
coedge $-1 $190 $73 $189 $191 forward $45 $-1 #
coedge $-1 $73 $190 $192 $193 forward $45 $-1 #
coedge $-1 $75 $74 $73 $126 reversed $29 $-1 #
edge $-1 $194 -79.062471388897364 $195 79.062471388897364 $73 $196 forward 7 unknown #
edge $-1 $195 -8.2602387887796151 $133 -3.8065616538154909 $122 $197 forward 7 unknown #
coedge $-1 $192 $198 $75 $129 forward $199 $-1 #
edge $-1 $132 3.8065616538154909 $194 8.2602387887796151 $128 $200 forward 7 unknown #
coedge $-1 $201 $76 $198 $202 forward $120 $-1 #
coedge $-1 $76 $201 $188 $203 forward $120 $-1 #
vertex $-1 $129 $204 #
vertex $-1 $203 $205 #
straight-curve $-1 0 -35.219680467396444 -3.8065616538154909 1 0 0 I I #
face $-1 $-1 $206 $17 $-1 $207 reversed single #
loop $-1 $-1 $84 $78 #
plane-surface $-1 0 0 8.2602387887796151 0 0 1 1 0 0 forward_v I I I I #
coedge $-1 $208 $209 $210 $211 reversed $79 $-1 #
coedge $-1 $212 $81 $83 $145 forward $49 $-1 #
coedge $-1 $81 $212 $208 $213 forward $49 $-1 #
coedge $-1 $210 $84 $81 $142 forward $136 $-1 #
edge $-1 $148 0.83286455806862136 $214 7.0220553503190644 $141 $215 forward 7 unknown #
coedge $-1 $216 $217 $82 $144 forward $206 $-1 #
edge $-1 $218 -39.221350296123312 $147 -33.958774976775821 $143 $219 forward 7 unknown #
edge $-1 $148 -6.1394960667942655 $218 0 $83 $220 forward 7 unknown #
coedge $-1 $84 $210 $216 $221 forward $136 $-1 #
vertex $-1 $144 $222 #
vertex $-1 $85 $223 #
straight-curve $-1 -107.30100150115278 4.7603245122624642 8.2602387887796169 1 0 0 I I #
coedge $-1 $150 $150 $-1 $224 reversed $88 $-1 #
edge $-1 $225 0 $225 6.2831853071796004 $89 $226 forward 7 unknown #
vertex $-1 $92 $227 #
ellipse-curve $-1 -77.481434311345353 6.5286647386197316 5.6289511291058654 -0.85716730853699208 0 0.51503806187062418 0.25751903093531209 0 0.42858365426849604 1 I I #
coedge $-1 $154 $154 $-1 $228 reversed $95 $-1 #
edge $-1 $229 0 $229 6.2831853071796004 $96 $230 forward 7 unknown #
vertex $-1 $99 $231 #
ellipse-curve $-1 -77.481434311345353 9.1811750781556327 5.6289511291058654 -0.85716730853699208 0 0.51503806187062418 0.25751903093531209 0 0.42858365426849604 1 I I #
face $-1 $-1 $115 $15 $-1 $232 reversed single #
loop $-1 $-1 $174 $100 #
plane-surface $-1 0 35.219680467396444 0 0 -1 0 0 0 -1 forward_v I I I I #
coedge $-1 $233 $172 $175 $234 forward $101 $-1 #
coedge $-1 $178 $103 $104 $166 reversed $63 $-1 #
coedge $-1 $172 $233 $103 $164 reversed $101 $-1 #
edge $-1 $179 -8.2602387887796151 $235 8.2602387887796151 $163 $236 forward 7 unknown #
coedge $-1 $105 $104 $233 $237 forward $41 $-1 #
edge $-1 $170 -79.062471388897364 $235 79.062471388897364 $162 $238 forward 7 unknown #
coedge $-1 $175 $174 $105 $168 reversed $159 $-1 #
edge $-1 $239 -79.062471388897364 $169 79.062471388897364 $167 $240 forward 7 unknown #
vertex $-1 $107 $241 #
vertex $-1 $181 $242 #
straight-curve $-1 79.062471388897364 0 -8.2602387887796151 0 -1 0 I I #
coedge $-1 $161 $163 $108 $173 reversed $101 $-1 #
edge $-1 $176 -35.219680467396444 $179 35.219680467396444 $172 $243 forward 7 unknown #
coedge $-1 $167 $109 $114 $182 forward $159 $-1 #
coedge $-1 $109 $167 $161 $234 reversed $159 $-1 #
vertex $-1 $110 $244 #
straight-curve $-1 0 35.219680467396444 8.2602387887796151 -1 0 0 I I #
coedge $-1 $111 $162 $113 $181 reversed $63 $-1 #
vertex $-1 $173 $245 #
straight-curve $-1 0 -35.219680467396444 8.2602387887796151 1 0 0 I I #
edge $-1 $116 -8.2602387887796151 $170 8.2602387887796151 $113 $246 forward 7 unknown #
edge $-1 $117 -8.2602387887796151 $169 8.2602387887796151 $114 $247 forward 7 unknown #
point $-1 79.062471388897364 -35.219680467396444 8.2602387887796151 #
point $-1 79.062471388897364 35.219680467396444 8.2602387887796151 #
face $-1 $-1 $199 $16 $-1 $248 reversed single #
loop $-1 $-1 $249 $119 #
plane-surface $-1 0 -44.550410103888723 -6.033400221297553 0 1 0 0 0 1 forward_v I I I I #
coedge $-1 $250 $122 $131 $203 reversed $71 $-1 #
coedge $-1 $122 $250 $123 $191 reversed $71 $-1 #
coedge $-1 $124 $123 $251 $252 forward $45 $-1 #
edge $-1 $195 35.219680467396444 $253 44.550410103888723 $189 $254 forward 7 unknown #
coedge $-1 $255 $128 $124 $193 reversed $199 $-1 #
edge $-1 $256 -44.550410103888723 $194 -35.219680467396444 $192 $257 forward 7 unknown #
vertex $-1 $129 $258 #
vertex $-1 $191 $259 #
straight-curve $-1 0 -35.219680467396444 -8.2602387887796151 1 0 0 I I #
straight-curve $-1 79.062471388897364 -35.219680467396444 0 0 0 1 I I #
coedge $-1 $128 $255 $130 $202 reversed $199 $-1 #
loop $-1 $-1 $128 $185 #
straight-curve $-1 -79.062471388897364 -35.219680467396444 0 0 0 -1 I I #
coedge $-1 $131 $130 $260 $261 forward $120 $-1 #
edge $-1 $132 -4.6653648182461396 $262 4.6653648182461396 $198 $263 forward 7 unknown #
edge $-1 $264 -4.6653648182461396 $133 4.6653648182461396 $188 $265 forward 7 unknown #
point $-1 -79.062471388897364 -35.219680467396444 -3.8065616538154909 #
point $-1 79.062471388897364 -35.219680467396444 -3.8065616538154909 #
loop $-1 $-1 $143 $135 #
plane-surface $-1 -79.062471388897364 0 0 1 0 0 0 0 -1 forward_v I I I I #
coedge $-1 $209 $138 $140 $213 reversed $79 $-1 #
coedge $-1 $138 $208 $266 $267 reversed $79 $-1 #
coedge $-1 $146 $141 $138 $211 forward $136 $-1 #
edge $-1 $214 -31.400604267359455 $268 -28.238530112255418 $210 $269 forward 7 unknown #
coedge $-1 $140 $139 $217 $270 reversed $49 $-1 #
edge $-1 $271 0 $214 6.1394960667942655 $208 $272 forward 7 unknown #
vertex $-1 $142 $273 #
straight-curve $-1 -75.900397233793313 3.9274599541938429 8.2602387887796151 0 1 0 I I #
coedge $-1 $266 $143 $146 $221 reversed $206 $-1 #
coedge $-1 $143 $266 $212 $270 forward $206 $-1 #
vertex $-1 $144 $274 #
straight-curve $-1 -79.062471388897364 4.7603245122624642 42.219013765555438 0 0 1 I I #
straight-curve $-1 -79.062471388897364 4.7603245122624642 2.9976634694321262 -0.51503806187062418 0 -0.85716730853699208 I I #
edge $-1 $268 -10.949515304512907 $147 -4.7603245122624642 $216 $275 forward 7 unknown #
point $-1 -79.062471388897364 4.7603245122624642 8.2602387887796151 #
point $-1 -75.900397233793328 4.7603245122624642 8.2602387887796151 #
edge $-1 $276 1 $276 0 $150 $-1 forward 7 unknown #
vertex $-1 $151 $277 #
ellipse-curve $-1 -75.768316109562562 6.5286647386197316 4.5996059013842947 -0.85716730853699208 0 0.51503806187062418 0.25751903093531209 0 0.42858365426849604 1 I I #
point $-1 -77.223915280410026 6.5286647386197316 6.0575347833743551 #
edge $-1 $278 1 $278 0 $154 $-1 forward 7 unknown #
vertex $-1 $155 $279 #
ellipse-curve $-1 -75.768316109562562 9.1811750781556327 4.5996059013842947 -0.85716730853699208 0 0.51503806187062418 0.25751903093531209 0 0.42858365426849604 1 I I #
point $-1 -77.223915280410026 9.1811750781556327 6.0575347833743551 #
plane-surface $-1 79.062471388897364 0 0 -1 0 0 0 0 1 forward_v I I I I #
coedge $-1 $163 $161 $165 $237 reversed $101 $-1 #
edge $-1 $176 -8.2602387887796151 $239 8.2602387887796151 $175 $280 forward 7 unknown #
vertex $-1 $237 $281 #
straight-curve $-1 -79.062471388897364 -35.219680467396444 0 0 0 -1 I I #
edge $-1 $235 -35.219680467396444 $239 35.219680467396444 $233 $282 forward 7 unknown #
straight-curve $-1 0 -35.219680467396444 -8.2602387887796151 -1 0 0 I I #
vertex $-1 $168 $283 #
straight-curve $-1 0 35.219680467396444 -8.2602387887796151 1 0 0 I I #
point $-1 79.062471388897364 35.219680467396444 -8.2602387887796151 #
point $-1 79.062471388897364 -35.219680467396444 -8.2602387887796151 #
straight-curve $-1 -79.062471388897364 0 8.2602387887796151 0 -1 0 I I #
point $-1 -79.062471388897364 35.219680467396444 8.2602387887796151 #
point $-1 -79.062471388897364 -35.219680467396444 8.2602387887796151 #
straight-curve $-1 79.062471388897364 -35.219680467396444 0 0 0 -1 I I #
straight-curve $-1 79.062471388897364 35.219680467396444 0 0 0 -1 I I #
plane-surface $-1 -79.062471388897364 0 0 1 0 0 0 0 -1 forward_v I I I I #
coedge $-1 $251 $260 $255 $284 forward $186 $-1 #
coedge $-1 $189 $188 $285 $286 forward $71 $-1 #
coedge $-1 $285 $249 $190 $252 reversed $186 $-1 #
edge $-1 $253 -79.062471388897364 $256 79.062471388897364 $251 $287 forward 7 unknown #
vertex $-1 $286 $288 #
straight-curve $-1 79.062471388897364 0 -8.2602387887796151 0 -1 0 I I #
coedge $-1 $198 $192 $249 $284 reversed $199 $-1 #
vertex $-1 $193 $289 #
straight-curve $-1 -79.062471388897364 0 -8.2602387887796151 0 1 0 I I #
point $-1 -79.062471388897364 -35.219680467396444 -8.2602387887796151 #
point $-1 79.062471388897364 -35.219680467396444 -8.2602387887796151 #
coedge $-1 $249 $285 $201 $261 reversed $186 $-1 #
edge $-1 $262 -79.062471388897364 $264 79.062471388897364 $260 $290 forward 7 unknown #
vertex $-1 $202 $291 #
straight-curve $-1 -79.062471388897364 -39.885045285642583 -3.8065616538154909 0 -1 0 I I #
vertex $-1 $203 $292 #
straight-curve $-1 79.062471388897364 -39.885045285642583 -3.8065616538154909 0 1 0 I I #
coedge $-1 $217 $216 $209 $267 forward $206 $-1 #
edge $-1 $268 33.958774976775821 $271 39.221350296123312 $266 $293 forward 7 unknown #
vertex $-1 $221 $294 #
straight-curve $-1 -107.30100150115278 10.949515304512907 8.2602387887796169 -1 0 0 I I #
edge $-1 $271 -7.0220553503190644 $218 -0.83286455806862136 $217 $295 forward 7 unknown #
vertex $-1 $270 $296 #
straight-curve $-1 -79.062471388897364 10.949515304512907 2.9976634694321262 0.51503806187062418 0 0.85716730853699208 I I #
point $-1 -75.900397233793328 10.949515304512907 8.2602387887796151 #
point $-1 -79.062471388897364 4.7603245122624642 2.9976634694321262 #
straight-curve $-1 -79.062471388897364 0 8.2602387887796151 0 -1 0 I I #
vertex $-1 $224 $297 #
point $-1 -75.510797078627249 6.5286647386197316 5.0281895556527907 #
vertex $-1 $228 $298 #
point $-1 -75.510797078627249 9.1811750781556327 5.0281895556527907 #
straight-curve $-1 -79.062471388897364 35.219680467396444 0 0 0 -1 I I #
point $-1 -79.062471388897364 -35.219680467396444 -8.2602387887796151 #
straight-curve $-1 -79.062471388897364 0 -8.2602387887796151 0 1 0 I I #
point $-1 -79.062471388897364 35.219680467396444 -8.2602387887796151 #
edge $-1 $262 -2.2268385674820621 $256 2.2268385674820621 $255 $299 forward 7 unknown #
coedge $-1 $260 $251 $250 $286 reversed $186 $-1 #
edge $-1 $264 -2.2268385674820621 $253 2.2268385674820621 $250 $300 forward 7 unknown #
straight-curve $-1 0 -44.550410103888723 -8.2602387887796151 -1 0 0 I I #
point $-1 79.062471388897364 -44.550410103888723 -8.2602387887796151 #
point $-1 -79.062471388897364 -44.550410103888723 -8.2602387887796151 #
straight-curve $-1 0 -44.550410103888723 -3.8065616538154909 1 0 0 I I #
point $-1 -79.062471388897364 -44.550410103888723 -3.8065616538154909 #
point $-1 79.062471388897364 -44.550410103888723 -3.8065616538154909 #
straight-curve $-1 -79.062471388897364 10.949515304512907 42.219013765555438 0 0 -1 I I #
point $-1 -79.062471388897364 10.949515304512907 8.2602387887796151 #
straight-curve $-1 -79.062471388897364 3.9274599541938429 2.9976634694321147 0 -1 0 I I #
point $-1 -79.062471388897364 10.949515304512907 2.9976634694321262 #
point $-1 -75.339732455294069 6.5286647386197316 4.3420868704489832 #
point $-1 -75.339732455294069 9.1811750781556327 4.3420868704489832 #
straight-curve $-1 -79.062471388897364 -44.550410103888723 -6.033400221297553 0 0 -1 I I #
straight-curve $-1 79.062471388897364 -44.550410103888723 -6.033400221297553 0 0 -1 I I #
End-of-ACIS-data 