500 0 6 0           
7 Unknown 11 ACIS 5.0 NT 24 Thu Mar 25 22:49:44 1999 
-1 9.9999999999999995e-007 1e-010 
body $-1 $6 $-1 $7 #
body $-1 $8 $-1 $9 #
body $-1 $10 $-1 $11 #
body $-1 $12 $-1 $13 #
body $-1 $14 $-1 $15 #
body $-1 $16 $-1 $17 #
lump $-1 $-1 $18 $0 #
transform $-1 1 0 0 0 1 0 0 0 1 43.072603534043395 27.140327872137625 5.557029136843731 1 rotate no_reflect no_shear #
lump $-1 $-1 $19 $1 #
transform $-1 1 0 0 0 1 0 0 0 1 43.072603534043395 27.140327872137625 5.557029136843731 1 rotate no_reflect no_shear #
lump $-1 $-1 $20 $2 #
transform $-1 1 0 0 0 1 0 0 0 1 43.072603534043395 27.140327872137625 5.557029136843731 1 rotate no_reflect no_shear #
lump $-1 $-1 $21 $3 #
transform $-1 1 0 0 0 1 0 0 0 1 43.072603534043395 27.140327872137625 5.557029136843731 1 rotate no_reflect no_shear #
lump $-1 $-1 $22 $4 #
transform $-1 1 0 0 0 1 0 0 0 1 43.072603534043395 27.140327872137625 5.557029136843731 1 rotate no_reflect no_shear #
lump $-1 $-1 $23 $5 #
transform $-1 1 0 0 0 1 0 0 0 1 43.072603534043395 27.140327872137625 5.557029136843731 1 rotate no_reflect no_shear #
shell $-1 $-1 $-1 $24 $-1 $6 #
shell $-1 $-1 $-1 $25 $-1 $8 #
shell $-1 $-1 $-1 $26 $-1 $10 #
shell $-1 $-1 $-1 $27 $-1 $12 #
shell $-1 $-1 $-1 $28 $-1 $14 #
shell $-1 $-1 $-1 $29 $-1 $16 #
face $-1 $30 $31 $18 $-1 $32 reversed single #
face $-1 $33 $34 $19 $-1 $35 forward single #
face $-1 $36 $37 $20 $-1 $38 reversed single #
face $-1 $39 $40 $21 $-1 $41 reversed single #
face $-1 $42 $43 $22 $-1 $44 forward single #
face $-1 $45 $46 $23 $-1 $47 forward single #
face $-1 $48 $49 $18 $-1 $50 forward single #
loop $-1 $-1 $51 $24 #
plane-surface $-1 0 -27.140327872137625 0 0 1 0 0 0 1 forward_v I I I I #
face $-1 $52 $53 $19 $-1 $54 reversed single #
loop $-1 $-1 $55 $25 #
plane-surface $-1 0 -27.140327872137625 0 0 1 0 0 0 1 forward_v I I I I #
face $-1 $56 $57 $20 $-1 $58 reversed single #
loop $-1 $-1 $59 $26 #
plane-surface $-1 0 24.907362729609893 2.4734011579755162 0 0 1 1 0 0 forward_v I I I I #
face $-1 $60 $61 $21 $-1 $62 reversed single #
loop $-1 $-1 $63 $27 #
plane-surface $-1 -89.990646597496038 -20.55946356026136 72.92831970241869 0 1 0 -0.54463904215088732 0 0.83867056331134215 forward_v I I I I #
face $-1 $64 $65 $22 $-1 $66 forward single #
loop $-1 $67 $68 $28 #
cone-surface $-1 -38.368355285098673 -17.315972468627415 1.6561777024687747 0.54463904215088732 0 -0.83867056331134215 1.2580058449670133 0 0.81695856322633098 1 I I 0 1 1.5 forward I I I I #
face $-1 $69 $70 $23 $-1 $71 forward single #
loop $-1 $72 $73 $29 #
cone-surface $-1 -38.368355285098673 -12.450735831176498 1.6561777024687747 0.54463904215088732 0 -0.83867056331134215 1.2580058449670133 0 0.81695856322633098 1 I I 0 1 1.5 forward I I I I #
face $-1 $74 $75 $18 $-1 $76 reversed single #
loop $-1 $-1 $77 $30 #
plane-surface $-1 0 0 5.557029136843731 0 0 1 1 0 0 forward_v I I I I #
coedge $-1 $78 $79 $80 $81 reversed $31 $-1 #
face $-1 $82 $83 $19 $-1 $84 reversed single #
loop $-1 $-1 $85 $33 #
plane-surface $-1 0 0 -5.557029136843731 0 0 1 1 0 0 forward_v I I I I #
coedge $-1 $86 $87 $88 $89 forward $34 $-1 #
face $-1 $90 $91 $20 $-1 $92 reversed single #
loop $-1 $-1 $93 $36 #
plane-surface $-1 0 22.674397587082161 4.0152151474096236 0 1 0 0 0 1 forward_v I I I I #
coedge $-1 $94 $95 $96 $97 reversed $37 $-1 #
face $-1 $98 $99 $21 $-1 $100 reversed single #
loop $-1 $-1 $101 $39 #
plane-surface $-1 -43.072603534043402 -14.883354149901958 0.6808703640541296 -0.54463904215088732 0 0.83867056331134215 0.83867056331134215 0 0.54463904215088732 forward_v I I I I #
coedge $-1 $102 $103 $104 $105 reversed $40 $-1 #
face $-1 $-1 $106 $22 $-1 $107 forward single #
loop $-1 $108 $109 $42 #
cone-surface $-1 -37.009940710715192 -17.315972468627415 -0.43559726799488541 0.54463904215088732 0 -0.83867056331134215 0.62900292248350664 0 0.40847928161316549 1 I I -0.70710678118654757 0.70710678118654757 0.75 forward I I I I #
loop $-1 $-1 $110 $28 #
coedge $-1 $68 $68 $111 $112 reversed $43 $-1 #
face $-1 $-1 $113 $23 $-1 $114 forward single #
loop $-1 $115 $116 $45 #
cone-surface $-1 -37.009940710715192 -12.450735831176498 -0.43559726799488541 0.54463904215088732 0 -0.83867056331134215 0.62900292248350664 0 0.40847928161316549 1 I I -0.70710678118654757 0.70710678118654757 0.75 forward I I I I #
loop $-1 $-1 $117 $29 #
coedge $-1 $73 $73 $118 $119 reversed $46 $-1 #
face $-1 $120 $121 $18 $-1 $122 reversed single #
loop $-1 $-1 $123 $48 #
plane-surface $-1 0 0 -5.557029136843731 0 0 1 1 0 0 forward_v I I I I #
coedge $-1 $124 $125 $126 $127 forward $49 $-1 #
coedge $-1 $128 $51 $129 $130 reversed $31 $-1 #
coedge $-1 $51 $128 $131 $132 forward $31 $-1 #
coedge $-1 $133 $123 $51 $81 forward $75 $-1 #
edge $-1 $134 -43.072603534043395 $135 43.072603534043395 $51 $136 forward 7 unknown #
face $-1 $137 $138 $19 $-1 $139 reversed single #
loop $-1 $-1 $140 $52 #
plane-surface $-1 -33.458545260355933 -33.721192184013894 0 0 1 0 0 0 1 forward_v I I I I #
coedge $-1 $141 $142 $87 $143 forward $53 $-1 #
coedge $-1 $144 $55 $145 $146 reversed $34 $-1 #
coedge $-1 $55 $144 $85 $143 reversed $34 $-1 #
coedge $-1 $147 $148 $55 $89 reversed $138 $-1 #
edge $-1 $149 -5.557029136843731 $150 5.557029136843731 $88 $151 forward 7 unknown #
face $-1 $152 $153 $20 $-1 $154 forward single #
loop $-1 $-1 $155 $56 #
plane-surface $-1 -43.072603534043395 0 0 1 0 0 0 0 -1 forward_v I I I I #
coedge $-1 $156 $157 $158 $159 reversed $57 $-1 #
coedge $-1 $160 $59 $156 $161 forward $37 $-1 #
coedge $-1 $59 $160 $162 $163 reversed $37 $-1 #
coedge $-1 $164 $165 $59 $97 forward $166 $-1 #
edge $-1 $167 10.220716222277215 $168 14.686646507332679 $96 $169 forward 7 unknown #
face $-1 $170 $171 $21 $-1 $172 forward single #
loop $-1 $-1 $173 $60 #
plane-surface $-1 -89.990646597496038 -9.2072447395425563 72.92831970241869 0 -1 0 0.54463904215088732 0 -0.83867056331134215 forward_v I I I I #
coedge $-1 $174 $175 $176 $177 reversed $61 $-1 #
coedge $-1 $103 $63 $178 $179 reversed $40 $-1 #
coedge $-1 $63 $102 $174 $180 reversed $40 $-1 #
coedge $-1 $176 $181 $63 $105 forward $171 $-1 #
edge $-1 $182 1.9227197647046239 $183 9.431345677053443 $104 $184 forward 7 unknown #
loop $-1 $-1 $111 $64 #
plane-surface $-1 -43.072603534043402 -14.883354149901958 0.6808703640541296 -0.54463904215088732 0 0.83867056331134215 0.83867056331134215 0 0.54463904215088732 forward_v I I I I #
loop $-1 $-1 $185 $42 #
coedge $-1 $109 $109 $110 $186 reversed $65 $-1 #
coedge $-1 $110 $110 $109 $186 forward $67 $-1 #
coedge $-1 $111 $111 $68 $112 forward $106 $-1 #
edge $-1 $187 0 $187 6.2831853071796004 $111 $188 forward 7 unknown #
loop $-1 $-1 $118 $69 #
plane-surface $-1 -43.072603534043402 -14.883354149901958 0.6808703640541296 -0.54463904215088732 0 0.83867056331134215 0.83867056331134215 0 0.54463904215088732 forward_v I I I I #
loop $-1 $-1 $189 $45 #
coedge $-1 $116 $116 $117 $190 reversed $70 $-1 #
coedge $-1 $117 $117 $116 $190 forward $72 $-1 #
coedge $-1 $118 $118 $73 $119 forward $113 $-1 #
edge $-1 $191 0 $191 6.2831853071796004 $118 $192 forward 7 unknown #
face $-1 $193 $194 $18 $-1 $195 reversed single #
loop $-1 $-1 $196 $74 #
plane-surface $-1 -43.072603534043395 0 0 1 0 0 0 0 -1 forward_v I I I I #
coedge $-1 $80 $197 $198 $199 forward $75 $-1 #
coedge $-1 $200 $77 $201 $202 forward $49 $-1 #
coedge $-1 $77 $200 $128 $203 forward $49 $-1 #
coedge $-1 $129 $204 $77 $127 reversed $205 $-1 #
edge $-1 $206 -27.140327872137625 $207 27.140327872137625 $126 $208 forward 7 unknown #
coedge $-1 $79 $78 $125 $203 reversed $31 $-1 #
coedge $-1 $198 $126 $78 $130 forward $205 $-1 #
edge $-1 $206 -5.557029136843731 $134 5.557029136843731 $129 $209 forward 7 unknown #
coedge $-1 $210 $211 $79 $132 reversed $121 $-1 #
edge $-1 $212 -5.557029136843731 $135 5.557029136843731 $131 $213 forward 7 unknown #
coedge $-1 $197 $80 $211 $214 forward $75 $-1 #
vertex $-1 $130 $215 #
vertex $-1 $214 $216 #
straight-curve $-1 0 -27.140327872137625 -5.557029136843731 -1 0 0 I I #
face $-1 $217 $218 $19 $-1 $219 reversed single #
loop $-1 $-1 $88 $82 #
plane-surface $-1 -34.958545260355933 -30.43076002807576 0 1 0 0 0 0 -1 forward_v I I I I #
coedge $-1 $220 $221 $222 $223 forward $83 $-1 #
coedge $-1 $224 $85 $225 $226 forward $53 $-1 #
coedge $-1 $85 $224 $147 $227 forward $53 $-1 #
edge $-1 $149 -34.958545260355933 $228 -31.958545260355933 $85 $229 forward 7 unknown #
coedge $-1 $87 $86 $230 $231 forward $34 $-1 #
coedge $-1 $232 $233 $86 $146 forward $234 $-1 #
edge $-1 $235 31.958545260355933 $150 34.958545260355933 $145 $236 forward 7 unknown #
coedge $-1 $222 $88 $142 $227 reversed $138 $-1 #
coedge $-1 $88 $222 $232 $237 reversed $138 $-1 #
vertex $-1 $143 $238 #
vertex $-1 $237 $239 #
straight-curve $-1 -34.958545260355933 -27.140327872137625 0 0 0 1 I I #
face $-1 $240 $241 $20 $-1 $242 reversed single #
loop $-1 $-1 $243 $90 #
plane-surface $-1 0 0 5.557029136843731 0 0 1 1 0 0 forward_v I I I I #
coedge $-1 $158 $244 $160 $245 forward $91 $-1 #
coedge $-1 $246 $93 $94 $161 reversed $57 $-1 #
coedge $-1 $93 $246 $243 $247 reversed $57 $-1 #
coedge $-1 $248 $155 $93 $159 forward $91 $-1 #
edge $-1 $249 0.46579358427070439 $250 3.5494215631389192 $158 $251 forward 7 unknown #
coedge $-1 $95 $94 $155 $245 reversed $37 $-1 #
edge $-1 $167 -43.072603534043395 $249 43.072603534043395 $156 $252 forward 7 unknown #
coedge $-1 $253 $254 $95 $163 forward $241 $-1 #
edge $-1 $168 -43.072603534043395 $255 43.072603534043395 $162 $256 forward 7 unknown #
coedge $-1 $257 $96 $254 $258 reversed $166 $-1 #
coedge $-1 $96 $257 $246 $259 forward $166 $-1 #
loop $-1 $-1 $96 $240 #
vertex $-1 $97 $260 #
vertex $-1 $97 $261 #
straight-curve $-1 43.072603534043395 12.453681364804947 2.4734011579755162 0 1 0 I I #
face $-1 $-1 $262 $21 $-1 $263 reversed single #
loop $-1 $-1 $104 $98 #
plane-surface $-1 0 0 5.557029136843731 0 0 1 1 0 0 forward_v I I I I #
coedge $-1 $264 $265 $266 $267 reversed $99 $-1 #
coedge $-1 $268 $101 $103 $180 forward $61 $-1 #
coedge $-1 $101 $268 $264 $269 forward $61 $-1 #
coedge $-1 $266 $104 $101 $177 forward $171 $-1 #
edge $-1 $183 -13.117786485310381 $270 -1.7655676645915772 $176 $271 forward 7 unknown #
coedge $-1 $272 $273 $102 $179 forward $262 $-1 #
edge $-1 $274 -35.783289487155209 $182 -30.907130714365614 $178 $275 forward 7 unknown #
edge $-1 $183 -8.9530099669915053 $274 -8.4987301443310198e-015 $103 $276 forward 7 unknown #
coedge $-1 $104 $266 $272 $277 forward $171 $-1 #
vertex $-1 $105 $278 #
vertex $-1 $105 $279 #
straight-curve $-1 -44.995323298748019 -20.55946356026136 5.557029136843731 1 0 0 I I #
coedge $-1 $185 $185 $-1 $280 reversed $108 $-1 #
edge $-1 $281 0 $281 6.2831853071796004 $109 $282 forward 7 unknown #
vertex $-1 $112 $283 #
ellipse-curve $-1 -39.318290577868986 -17.315972468627415 3.1189497504489312 -0.54463904215088732 0 0.83867056331134215 1.2580058449670133 0 0.81695856322633098 1 I I #
coedge $-1 $189 $189 $-1 $284 reversed $115 $-1 #
edge $-1 $285 0 $285 6.2831853071796004 $116 $286 forward 7 unknown #
vertex $-1 $119 $287 #
ellipse-curve $-1 -39.318290577868986 -12.450735831176498 3.1189497504489312 -0.54463904215088732 0 0.83867056331134215 1.2580058449670133 0 0.81695856322633098 1 I I #
face $-1 $-1 $205 $18 $-1 $288 reversed single #
loop $-1 $-1 $289 $120 #
plane-surface $-1 0 27.140327872137625 0 0 -1 0 0 0 -1 forward_v I I I I #
coedge $-1 $211 $210 $290 $291 forward $121 $-1 #
coedge $-1 $123 $133 $292 $293 forward $75 $-1 #
coedge $-1 $204 $129 $123 $199 reversed $205 $-1 #
edge $-1 $294 -27.140327872137625 $134 27.140327872137625 $198 $295 forward 7 unknown #
coedge $-1 $125 $124 $210 $296 forward $49 $-1 #
coedge $-1 $289 $290 $124 $202 reversed $194 $-1 #
edge $-1 $207 -43.072603534043395 $297 43.072603534043395 $201 $298 forward 7 unknown #
edge $-1 $212 -43.072603534043395 $206 43.072603534043395 $128 $299 forward 7 unknown #
coedge $-1 $126 $198 $289 $300 reversed $205 $-1 #
loop $-1 $-1 $129 $193 #
vertex $-1 $127 $301 #
vertex $-1 $127 $302 #
straight-curve $-1 43.072603534043395 0 5.557029136843731 0 1 0 I I #
straight-curve $-1 43.072603534043395 -27.140327872137625 0 0 0 -1 I I #
coedge $-1 $196 $131 $200 $296 reversed $121 $-1 #
coedge $-1 $131 $196 $133 $214 reversed $121 $-1 #
vertex $-1 $296 $303 #
straight-curve $-1 -43.072603534043395 -27.140327872137625 0 0 0 -1 I I #
edge $-1 $135 -27.140327872137625 $304 27.140327872137625 $211 $305 forward 7 unknown #
point $-1 43.072603534043395 -27.140327872137625 -5.557029136843731 #
point $-1 -43.072603534043395 -27.140327872137625 -5.557029136843731 #
face $-1 $-1 $234 $19 $-1 $306 forward single #
loop $-1 $-1 $307 $137 #
plane-surface $-1 -31.958545260355933 -30.43076002807576 0 -1 0 0 0 0 1 forward_v I I I I #
coedge $-1 $308 $140 $224 $309 reversed $83 $-1 #
coedge $-1 $140 $308 $310 $311 reversed $83 $-1 #
coedge $-1 $148 $147 $140 $223 reversed $138 $-1 #
edge $-1 $312 -5.557029136843731 $313 5.557029136843731 $222 $314 forward 7 unknown #
coedge $-1 $142 $141 $220 $309 forward $53 $-1 #
coedge $-1 $230 $307 $141 $226 reversed $218 $-1 #
edge $-1 $228 -3.2904321559381344 $315 3.2904321559381344 $225 $316 forward 7 unknown #
edge $-1 $313 -3.2904321559381344 $149 3.2904321559381344 $147 $317 forward 7 unknown #
vertex $-1 $226 $318 #
straight-curve $-1 0 -27.140327872137625 -5.557029136843731 1 0 0 I I #
coedge $-1 $319 $225 $144 $231 reversed $218 $-1 #
edge $-1 $235 -5.557029136843731 $228 5.557029136843731 $230 $320 forward 7 unknown #
coedge $-1 $310 $145 $148 $237 forward $234 $-1 #
coedge $-1 $145 $310 $319 $321 forward $234 $-1 #
loop $-1 $-1 $145 $217 #
vertex $-1 $146 $322 #
straight-curve $-1 0 -27.140327872137625 5.557029136843731 -1 0 0 I I #
edge $-1 $150 -3.2904321559381344 $312 3.2904321559381344 $148 $323 forward 7 unknown #
point $-1 -34.958545260355933 -27.140327872137625 -5.557029136843731 #
point $-1 -34.958545260355933 -27.140327872137625 5.557029136843731 #
face $-1 $-1 $166 $20 $-1 $324 reversed single #
loop $-1 $-1 $162 $152 #
plane-surface $-1 0 27.140327872137625 0 0 -1 0 0 0 -1 forward_v I I I I #
coedge $-1 $325 $326 $157 $247 forward $153 $-1 #
coedge $-1 $155 $248 $253 $327 forward $91 $-1 #
edge $-1 $255 -14.686646507332679 $249 -10.220716222277215 $155 $328 forward 7 unknown #
coedge $-1 $157 $156 $165 $259 reversed $57 $-1 #
edge $-1 $250 -43.072603534043395 $329 43.072603534043395 $243 $330 forward 7 unknown #
coedge $-1 $244 $158 $326 $331 reversed $91 $-1 #
vertex $-1 $245 $332 #
vertex $-1 $247 $333 #
straight-curve $-1 -43.072603534043395 22.674397587082161 2.0076075737048118 0 0 1 I I #
straight-curve $-1 0 22.674397587082161 2.4734011579755162 -1 0 0 I I #
coedge $-1 $334 $162 $244 $327 reversed $241 $-1 #
coedge $-1 $162 $334 $164 $258 forward $241 $-1 #
vertex $-1 $245 $335 #
straight-curve $-1 0 27.140327872137625 2.4734011579755162 -1 0 0 I I #
coedge $-1 $165 $164 $325 $336 reversed $166 $-1 #
edge $-1 $337 -5.557029136843731 $168 -2.4734011579755162 $164 $338 forward 7 unknown #
edge $-1 $329 -3.5494215631389192 $167 -0.46579358427070439 $165 $339 forward 7 unknown #
point $-1 43.072603534043395 22.674397587082161 2.4734011579755162 #
point $-1 43.072603534043395 27.140327872137625 2.4734011579755162 #
loop $-1 $-1 $178 $170 #
plane-surface $-1 -43.072603534043395 0 0 1 0 0 0 0 -1 forward_v I I I I #
coedge $-1 $265 $173 $175 $269 reversed $99 $-1 #
coedge $-1 $173 $264 $340 $341 reversed $99 $-1 #
coedge $-1 $181 $176 $173 $267 forward $171 $-1 #
edge $-1 $270 -9.431345677053443 $342 -1.9227197647046239 $266 $343 forward 7 unknown #
coedge $-1 $175 $174 $273 $344 reversed $61 $-1 #
edge $-1 $345 8.4987301443310198e-015 $270 8.9530099669915053 $264 $346 forward 7 unknown #
vertex $-1 $177 $347 #
straight-curve $-1 -35.563977621694576 -7.4416770749509791 5.557029136843731 0 1 0 I I #
coedge $-1 $340 $178 $181 $277 reversed $262 $-1 #
coedge $-1 $178 $340 $268 $344 forward $262 $-1 #
vertex $-1 $179 $348 #
straight-curve $-1 -43.072603534043395 -20.55946356026136 36.464159851209345 0 0 1 I I #
straight-curve $-1 -43.072603534043402 -20.55946356026136 0.6808703640541296 -0.83867056331134215 0 -0.54463904215088732 I I #
edge $-1 $342 9.2072447395425563 $182 20.55946356026136 $272 $349 forward 7 unknown #
point $-1 -43.072603534043395 -20.55946356026136 5.557029136843731 #
point $-1 -35.563977621694576 -20.55946356026136 5.557029136843731 #
edge $-1 $350 1 $350 0 $185 $-1 forward 7 unknown #
vertex $-1 $186 $351 #
ellipse-curve $-1 -37.41841999232836 -17.315972468627415 0.19340565448862124 -0.54463904215088732 0 0.83867056331134215 1.2580058449670133 0 0.81695856322633098 1 I I #
point $-1 -38.06028473290197 -17.315972468627415 3.9359083136752595 #
edge $-1 $352 1 $352 0 $189 $-1 forward 7 unknown #
vertex $-1 $190 $353 #
ellipse-curve $-1 -37.41841999232836 -12.450735831176498 0.19340565448862124 -0.54463904215088732 0 0.83867056331134215 1.2580058449670133 0 0.81695856322633098 1 I I #
point $-1 -38.06028473290197 -12.450735831176498 3.9359083136752595 #
plane-surface $-1 43.072603534043395 0 0 -1 0 0 0 0 1 forward_v I I I I #
coedge $-1 $292 $201 $204 $300 forward $194 $-1 #
coedge $-1 $201 $292 $196 $291 reversed $194 $-1 #
edge $-1 $297 -5.557029136843731 $304 5.557029136843731 $290 $354 forward 7 unknown #
coedge $-1 $290 $289 $197 $293 reversed $194 $-1 #
edge $-1 $304 -43.072603534043395 $294 43.072603534043395 $292 $355 forward 7 unknown #
vertex $-1 $199 $356 #
straight-curve $-1 43.072603534043395 0 -5.557029136843731 0 -1 0 I I #
edge $-1 $297 -27.140327872137625 $212 27.140327872137625 $210 $357 forward 7 unknown #
vertex $-1 $202 $358 #
straight-curve $-1 0 27.140327872137625 5.557029136843731 -1 0 0 I I #
straight-curve $-1 0 -27.140327872137625 5.557029136843731 1 0 0 I I #
edge $-1 $207 -5.557029136843731 $294 5.557029136843731 $204 $359 forward 7 unknown #
point $-1 43.072603534043395 -27.140327872137625 5.557029136843731 #
point $-1 43.072603534043395 27.140327872137625 5.557029136843731 #
point $-1 -43.072603534043395 -27.140327872137625 5.557029136843731 #
vertex $-1 $293 $360 #
straight-curve $-1 -43.072603534043395 0 -5.557029136843731 0 1 0 I I #
plane-surface $-1 0 0 5.557029136843731 0 0 1 1 0 0 forward_v I I I I #
coedge $-1 $225 $319 $308 $361 forward $218 $-1 #
coedge $-1 $221 $220 $307 $361 reversed $83 $-1 #
edge $-1 $315 -1.5 $313 1.5 $220 $362 forward 7 unknown #
coedge $-1 $233 $232 $221 $311 forward $234 $-1 #
edge $-1 $312 -1.5 $363 1.5 $221 $364 forward 7 unknown #
vertex $-1 $237 $365 #
vertex $-1 $227 $366 #
straight-curve $-1 -34.958545260355933 -33.721192184013894 0 0 0 -1 I I #
vertex $-1 $361 $367 #
straight-curve $-1 -31.958545260355933 -30.43076002807576 -5.557029136843731 0 -1 0 I I #
straight-curve $-1 -34.958545260355933 -30.43076002807576 -5.557029136843731 0 1 0 I I #
point $-1 -31.958545260355933 -27.140327872137625 -5.557029136843731 #
coedge $-1 $307 $230 $233 $321 reversed $218 $-1 #
straight-curve $-1 -31.958545260355933 -27.140327872137625 0 0 0 -1 I I #
edge $-1 $363 -3.2904321559381344 $235 3.2904321559381344 $319 $368 forward 7 unknown #
point $-1 -31.958545260355933 -27.140327872137625 5.557029136843731 #
straight-curve $-1 -34.958545260355933 -30.43076002807576 5.557029136843731 0 -1 0 I I #
plane-surface $-1 43.072603534043395 0 0 -1 0 0 0 0 1 forward_v I I I I #
coedge $-1 $369 $243 $257 $336 forward $153 $-1 #
coedge $-1 $243 $369 $248 $331 forward $153 $-1 #
edge $-1 $370 -5.557029136843731 $255 -2.4734011579755162 $253 $371 forward 7 unknown #
straight-curve $-1 -43.072603534043395 12.453681364804947 2.4734011579755162 0 -1 0 I I #
vertex $-1 $336 $372 #
straight-curve $-1 0 22.674397587082161 5.557029136843731 1 0 0 I I #
edge $-1 $370 -27.140327872137625 $250 -22.674397587082161 $248 $373 forward 7 unknown #
point $-1 -43.072603534043395 22.674397587082161 2.4734011579755162 #
point $-1 -43.072603534043395 22.674397587082161 5.557029136843731 #
coedge $-1 $254 $253 $369 $374 reversed $241 $-1 #
point $-1 -43.072603534043395 27.140327872137625 2.4734011579755162 #
edge $-1 $329 22.674397587082161 $337 27.140327872137625 $257 $375 forward 7 unknown #
vertex $-1 $336 $376 #
straight-curve $-1 43.072603534043395 27.140327872137625 0 0 0 -1 I I #
straight-curve $-1 43.072603534043395 22.674397587082161 2.0076075737048118 0 0 -1 I I #
coedge $-1 $273 $272 $265 $341 forward $262 $-1 #
edge $-1 $342 30.907130714365614 $345 35.783289487155209 $340 $377 forward 7 unknown #
vertex $-1 $277 $378 #
straight-curve $-1 -44.995323298748019 -9.2072447395425563 5.557029136843731 -1 0 0 I I #
edge $-1 $345 1.7655676645915772 $274 13.117786485310381 $273 $379 forward 7 unknown #
vertex $-1 $344 $380 #
straight-curve $-1 -43.072603534043402 -9.2072447395425563 0.6808703640541296 0.83867056331134215 0 0.54463904215088732 I I #
point $-1 -35.563977621694576 -9.2072447395425563 5.557029136843731 #
point $-1 -43.072603534043395 -20.55946356026136 0.68087036405413426 #
straight-curve $-1 -43.072603534043395 0 5.557029136843731 0 -1 0 I I #
vertex $-1 $280 $381 #
point $-1 -36.160414147361344 -17.315972468627415 1.0103642177149523 #
vertex $-1 $284 $382 #
point $-1 -36.160414147361344 -12.450735831176498 1.0103642177149523 #
straight-curve $-1 -43.072603534043395 27.140327872137625 0 0 0 -1 I I #
straight-curve $-1 0 27.140327872137625 -5.557029136843731 1 0 0 I I #
point $-1 43.072603534043395 27.140327872137625 -5.557029136843731 #
straight-curve $-1 -43.072603534043395 0 5.557029136843731 0 -1 0 I I #
point $-1 -43.072603534043395 27.140327872137625 5.557029136843731 #
straight-curve $-1 43.072603534043395 27.140327872137625 0 0 0 -1 I I #
point $-1 -43.072603534043395 27.140327872137625 -5.557029136843731 #
edge $-1 $363 -5.557029136843731 $315 5.557029136843731 $307 $383 forward 7 unknown #
straight-curve $-1 -33.458545260355933 -33.721192184013894 -5.557029136843731 -1 0 0 I I #
vertex $-1 $321 $384 #
straight-curve $-1 -33.458545260355933 -33.721192184013894 5.557029136843731 1 0 0 I I #
point $-1 -34.958545260355933 -33.721192184013894 5.557029136843731 #
point $-1 -34.958545260355933 -33.721192184013894 -5.557029136843731 #
point $-1 -31.958545260355933 -33.721192184013894 -5.557029136843731 #
straight-curve $-1 -31.958545260355933 -30.43076002807576 5.557029136843731 0 1 0 I I #
coedge $-1 $326 $325 $334 $374 forward $153 $-1 #
vertex $-1 $374 $385 #
straight-curve $-1 -43.072603534043395 27.140327872137625 0 0 0 -1 I I #
point $-1 43.072603534043395 22.674397587082161 5.557029136843731 #
straight-curve $-1 -43.072603534043395 0 5.557029136843731 0 -1 0 I I #
edge $-1 $337 -43.072603534043395 $370 43.072603534043395 $334 $386 forward 7 unknown #
straight-curve $-1 43.072603534043395 0 5.557029136843731 0 1 0 I I #
point $-1 43.072603534043395 27.140327872137625 5.557029136843731 #
straight-curve $-1 -43.072603534043395 -9.2072447395425563 36.464159851209345 0 0 -1 I I #
point $-1 -43.072603534043395 -9.2072447395425563 5.557029136843731 #
straight-curve $-1 -43.072603534043395 -7.4416770749509791 0.68087036405413093 0 -1 0 I I #
point $-1 -43.072603534043395 -9.2072447395425563 0.68087036405413426 #
point $-1 -36.601461429102024 -17.315972468627415 -1.0646001904783922 #
point $-1 -36.601461429102024 -12.450735831176498 -1.0646001904783922 #
straight-curve $-1 -31.958545260355933 -33.721192184013894 0 0 0 -1 I I #
point $-1 -31.958545260355933 -33.721192184013894 5.557029136843731 #
point $-1 -43.072603534043395 27.140327872137625 5.557029136843731 #
straight-curve $-1 0 27.140327872137625 5.557029136843731 -1 0 0 I I #
End-of-ACIS-data 