500 0 10 0           
7 Unknown 11 ACIS 5.0 NT 24 Thu Mar 25 20:27:35 1999 
-1 9.9999999999999995e-007 1e-010 
body $-1 $10 $-1 $11 #
body $-1 $12 $-1 $13 #
body $-1 $14 $-1 $15 #
body $-1 $16 $-1 $17 #
body $-1 $18 $-1 $19 #
body $-1 $20 $-1 $21 #
body $-1 $22 $-1 $23 #
body $-1 $24 $-1 $25 #
body $-1 $26 $-1 $27 #
body $-1 $28 $-1 $29 #
lump $-1 $-1 $30 $0 #
transform $-1 1 0 0 0 1 0 0 0 1 49.217810602130193 32.094392502692209 13.967970920839344 1 rotate no_reflect no_shear #
lump $-1 $-1 $31 $1 #
transform $-1 1 0 0 0 1 0 0 0 1 49.217810602130193 32.094392502692209 13.967970920839344 1 rotate no_reflect no_shear #
lump $-1 $-1 $32 $2 #
transform $-1 1 0 0 0 1 0 0 0 1 49.217810602130193 32.094392502692209 13.967970920839344 1 rotate no_reflect no_shear #
lump $-1 $-1 $33 $3 #
transform $-1 1 0 0 0 1 0 0 0 1 49.217810602130193 32.094392502692209 13.967970920839344 1 rotate no_reflect no_shear #
lump $-1 $-1 $34 $4 #
transform $-1 1 0 0 0 1 0 0 0 1 49.217810602130193 32.094392502692209 13.967970920839344 1 rotate no_reflect no_shear #
lump $-1 $-1 $35 $5 #
transform $-1 1 0 0 0 1 0 0 0 1 49.217810602130193 32.094392502692209 13.967970920839344 1 rotate no_reflect no_shear #
lump $-1 $-1 $36 $6 #
transform $-1 1 0 0 0 1 0 0 0 1 49.217810602130193 32.094392502692209 13.967970920839344 1 rotate no_reflect no_shear #
lump $-1 $-1 $37 $7 #
transform $-1 1 0 0 0 1 0 0 0 1 49.217810602130193 32.094392502692209 13.967970920839344 1 rotate no_reflect no_shear #
lump $-1 $-1 $38 $8 #
transform $-1 1 0 0 0 1 0 0 0 1 49.217810602130193 32.094392502692209 13.967970920839344 1 rotate no_reflect no_shear #
lump $-1 $-1 $39 $9 #
transform $-1 1 0 0 0 1 0 0 0 1 49.217810602130193 32.094392502692209 13.967970920839344 1 rotate no_reflect no_shear #
shell $-1 $-1 $-1 $40 $-1 $10 #
shell $-1 $-1 $-1 $41 $-1 $12 #
shell $-1 $-1 $-1 $42 $-1 $14 #
shell $-1 $-1 $-1 $43 $-1 $16 #
shell $-1 $-1 $-1 $44 $-1 $18 #
shell $-1 $-1 $-1 $45 $-1 $20 #
shell $-1 $-1 $-1 $46 $-1 $22 #
shell $-1 $-1 $-1 $47 $-1 $24 #
shell $-1 $-1 $-1 $48 $-1 $26 #
shell $-1 $-1 $-1 $49 $-1 $28 #
face $-1 $50 $51 $30 $-1 $52 forward single #
face $-1 $53 $54 $31 $-1 $55 reversed single #
face $-1 $56 $57 $32 $-1 $58 reversed single #
face $-1 $59 $60 $33 $-1 $61 forward single #
face $-1 $62 $63 $34 $-1 $64 forward single #
face $-1 $65 $66 $35 $-1 $67 forward single #
face $-1 $68 $69 $36 $-1 $70 reversed single #
face $-1 $71 $72 $37 $-1 $73 forward single #
face $-1 $74 $75 $38 $-1 $76 forward single #
face $-1 $77 $78 $39 $-1 $79 forward single #
face $-1 $80 $81 $30 $-1 $82 reversed single #
loop $-1 $-1 $83 $40 #
plane-surface $-1 0 0 13.967970920839344 0 0 1 1 0 0 forward_v I I I I #
face $-1 $84 $85 $31 $-1 $86 reversed single #
loop $-1 $-1 $87 $41 #
plane-surface $-1 -42.62207820836268 0 10.383027476212902 0 0 1 1 0 0 forward_v I I I I #
face $-1 $88 $89 $32 $-1 $90 reversed single #
loop $-1 $-1 $91 $42 #
plane-surface $-1 27.00209131990642 38.023582118558586 123.57582005340751 1 0 0 0 -0.5877852598018023 -0.80901698891910034 forward_v I I I I #
face $-1 $92 $93 $33 $-1 $94 forward single #
loop $-1 $95 $96 $43 #
cone-surface $-1 31.445235176351169 25.125380226583083 7.8451909759309659 0 -0.5877852598018023 -0.80901698891910034 2 0 0 1 I I 0 1 2 forward I I I I #
face $-1 $97 $98 $34 $-1 $99 forward single #
loop $-1 $100 $101 $44 #
cone-surface $-1 38.109950961018306 25.125380226583083 7.8451909759309659 0 -0.5877852598018023 -0.80901698891910034 2 0 0 1 I I 0 1 2 forward I I I I #
face $-1 $102 $103 $35 $-1 $104 forward single #
loop $-1 $105 $106 $45 #
cone-surface $-1 44.774666745685444 25.125380226583083 7.8451909759309659 0 -0.5877852598018023 -0.80901698891910034 2 0 0 1 I I 0 1 2 forward I I I I #
face $-1 $107 $108 $36 $-1 $109 reversed single #
loop $-1 $-1 $110 $46 #
plane-surface $-1 38.109950961018306 -32.094392502692202 6.2105085136037133 0 -0.5877852598018023 0.80901698891910034 1 0 0 forward_v I I I I #
face $-1 $111 $112 $37 $-1 $113 forward single #
loop $-1 $114 $115 $47 #
cone-surface $-1 31.445235176351169 -25.125380226583083 7.8451909759309624 0 0.5877852598018023 -0.80901698891910034 2 0 0 1 I I 0 1 2 forward I I I I #
face $-1 $116 $117 $38 $-1 $118 forward single #
loop $-1 $119 $120 $48 #
cone-surface $-1 38.109950961018306 -25.125380226583083 7.8451909759309624 0 0.5877852598018023 -0.80901698891910034 2 0 0 1 I I 0 1 2 forward I I I I #
face $-1 $121 $122 $39 $-1 $123 forward single #
loop $-1 $124 $125 $49 #
cone-surface $-1 44.774666745685444 -25.125380226583083 7.8451909759309624 0 0.5877852598018023 -0.80901698891910034 2 0 0 1 I I 0 1 2 forward I I I I #
face $-1 $126 $127 $30 $-1 $128 reversed single #
loop $-1 $-1 $129 $50 #
plane-surface $-1 0 0 -13.967970920839344 0 0 1 1 0 0 forward_v I I I I #
coedge $-1 $130 $131 $132 $133 forward $51 $-1 #
face $-1 $134 $135 $31 $-1 $136 reversed single #
loop $-1 $-1 $137 $53 #
plane-surface $-1 -36.026345814595167 0 12.175499198526124 -1 0 0 0 0 1 forward_v I I I I #
coedge $-1 $138 $139 $140 $141 forward $54 $-1 #
face $-1 $142 $143 $32 $-1 $144 forward single #
loop $-1 $-1 $145 $56 #
plane-surface $-1 38.109950961018306 -19.835425064739404 43.939730184355625 0 0.5877852598018023 0.80901698891910034 1 0 0 forward_v I I I I #
coedge $-1 $146 $147 $148 $149 reversed $57 $-1 #
face $-1 $-1 $150 $33 $-1 $151 forward single #
loop $-1 $152 $153 $59 #
cone-surface $-1 31.445235176351169 22.907198089492361 4.7921252457212962 0 -0.5877852598018023 -0.80901698891910034 1 0 0 1 I I -0.70710678118654746 0.70710678118654746 1 forward I I I I #
loop $-1 $-1 $154 $43 #
coedge $-1 $96 $96 $155 $156 reversed $60 $-1 #
face $-1 $-1 $157 $34 $-1 $158 forward single #
loop $-1 $159 $160 $62 #
cone-surface $-1 38.109950961018306 22.907198089492361 4.7921252457212962 0 -0.5877852598018023 -0.80901698891910034 1 0 0 1 I I -0.70710678118654746 0.70710678118654746 1 forward I I I I #
loop $-1 $-1 $161 $44 #
coedge $-1 $101 $101 $162 $163 reversed $63 $-1 #
face $-1 $-1 $164 $35 $-1 $165 forward single #
loop $-1 $166 $167 $65 #
cone-surface $-1 44.774666745685444 22.907198089492361 4.7921252457212962 0 -0.5877852598018023 -0.80901698891910034 1 0 0 1 I I -0.70710678118654746 0.70710678118654746 1 forward I I I I #
loop $-1 $-1 $168 $45 #
coedge $-1 $106 $106 $169 $170 reversed $66 $-1 #
face $-1 $171 $172 $36 $-1 $173 forward single #
loop $-1 $-1 $174 $68 #
plane-surface $-1 27.00209131990642 -89.953399685990192 85.8465983826556 1 0 0 0 0.5877852598018023 -0.80901698891910034 forward_v I I I I #
coedge $-1 $175 $176 $177 $178 reversed $69 $-1 #
face $-1 $-1 $179 $37 $-1 $180 forward single #
loop $-1 $181 $182 $71 #
cone-surface $-1 31.445235176351169 -22.907198089492361 4.7921252457212926 0 0.5877852598018023 -0.80901698891910034 1 0 0 1 I I -0.70710678118654746 0.70710678118654746 1 forward I I I I #
loop $-1 $-1 $183 $47 #
coedge $-1 $115 $115 $184 $185 reversed $72 $-1 #
face $-1 $-1 $186 $38 $-1 $187 forward single #
loop $-1 $188 $189 $74 #
cone-surface $-1 38.109950961018306 -22.907198089492361 4.7921252457212926 0 0.5877852598018023 -0.80901698891910034 1 0 0 1 I I -0.70710678118654746 0.70710678118654746 1 forward I I I I #
loop $-1 $-1 $190 $48 #
coedge $-1 $120 $120 $191 $192 reversed $75 $-1 #
face $-1 $-1 $193 $39 $-1 $194 forward single #
loop $-1 $195 $196 $77 #
cone-surface $-1 44.774666745685444 -22.907198089492361 4.7921252457212926 0 0.5877852598018023 -0.80901698891910034 1 0 0 1 I I -0.70710678118654746 0.70710678118654746 1 forward I I I I #
loop $-1 $-1 $197 $49 #
coedge $-1 $125 $125 $198 $199 reversed $78 $-1 #
face $-1 $200 $201 $30 $-1 $202 reversed single #
loop $-1 $-1 $203 $80 #
plane-surface $-1 0 -32.094392502692209 0 0 1 0 0 0 1 forward_v I I I I #
coedge $-1 $204 $205 $206 $207 forward $81 $-1 #
coedge $-1 $208 $83 $209 $210 forward $51 $-1 #
coedge $-1 $83 $208 $211 $212 forward $51 $-1 #
coedge $-1 $213 $214 $83 $133 reversed $215 $-1 #
edge $-1 $216 -32.094392502692209 $217 32.094392502692209 $132 $218 forward 7 unknown #
face $-1 $219 $220 $31 $-1 $221 reversed single #
loop $-1 $-1 $222 $84 #
plane-surface $-1 0 32.094392502692209 0 0 -1 0 0 0 -1 forward_v I I I I #
coedge $-1 $140 $223 $224 $225 reversed $85 $-1 #
coedge $-1 $226 $87 $227 $228 reversed $54 $-1 #
coedge $-1 $87 $226 $229 $230 reversed $54 $-1 #
coedge $-1 $231 $137 $87 $141 reversed $85 $-1 #
edge $-1 $232 -32.094392502692209 $233 32.094392502692209 $140 $234 forward 7 unknown #
face $-1 $235 $236 $32 $-1 $237 reversed single #
loop $-1 $-1 $148 $88 #
plane-surface $-1 0 0 13.967970920839344 0 0 1 1 0 0 forward_v I I I I #
coedge $-1 $238 $239 $240 $241 reversed $89 $-1 #
coedge $-1 $147 $91 $242 $243 reversed $57 $-1 #
coedge $-1 $91 $146 $238 $244 reversed $57 $-1 #
coedge $-1 $240 $245 $91 $149 forward $143 $-1 #
edge $-1 $246 -13.082601443412916 $247 -2.4053706457724751 $148 $248 forward 7 unknown #
loop $-1 $-1 $155 $92 #
plane-surface $-1 38.109950961018306 -19.835425064739404 43.939730184355625 0 0.5877852598018023 0.80901698891910034 1 0 0 forward_v I I I I #
loop $-1 $-1 $249 $59 #
coedge $-1 $153 $153 $154 $250 reversed $93 $-1 #
coedge $-1 $154 $154 $153 $250 forward $95 $-1 #
coedge $-1 $155 $155 $96 $156 forward $150 $-1 #
edge $-1 $251 -1.3022597424754572e-015 $251 6.2831853071795996 $155 $252 forward 7 unknown #
loop $-1 $-1 $162 $97 #
plane-surface $-1 38.109950961018306 -19.835425064739404 43.939730184355625 0 0.5877852598018023 0.80901698891910034 1 0 0 forward_v I I I I #
loop $-1 $-1 $253 $62 #
coedge $-1 $160 $160 $161 $254 reversed $98 $-1 #
coedge $-1 $161 $161 $160 $254 forward $100 $-1 #
coedge $-1 $162 $162 $101 $163 forward $157 $-1 #
edge $-1 $255 -1.3022597424754572e-015 $255 6.2831853071795996 $162 $256 forward 7 unknown #
loop $-1 $-1 $169 $102 #
plane-surface $-1 38.109950961018306 -19.835425064739404 43.939730184355625 0 0.5877852598018023 0.80901698891910034 1 0 0 forward_v I I I I #
loop $-1 $-1 $257 $65 #
coedge $-1 $167 $167 $168 $258 reversed $103 $-1 #
coedge $-1 $168 $168 $167 $258 forward $105 $-1 #
coedge $-1 $169 $169 $106 $170 forward $164 $-1 #
edge $-1 $259 -1.3022597424754572e-015 $259 6.2831853071795996 $169 $260 forward 7 unknown #
face $-1 $261 $262 $36 $-1 $263 reversed single #
loop $-1 $-1 $177 $107 #
plane-surface $-1 0 0 13.967970920839344 0 0 1 1 0 0 forward_v I I I I #
coedge $-1 $264 $265 $266 $267 reversed $108 $-1 #
coedge $-1 $268 $110 $269 $270 reversed $69 $-1 #
coedge $-1 $110 $268 $264 $271 forward $69 $-1 #
coedge $-1 $266 $272 $110 $178 forward $172 $-1 #
edge $-1 $273 -30.16283512162104 $274 -7.9471158393972665 $177 $275 forward 7 unknown #
loop $-1 $-1 $184 $111 #
plane-surface $-1 38.109950961018306 -32.094392502692202 6.2105085136037133 0 -0.5877852598018023 0.80901698891910034 1 0 0 forward_v I I I I #
loop $-1 $-1 $276 $71 #
coedge $-1 $182 $182 $183 $277 reversed $112 $-1 #
coedge $-1 $183 $183 $182 $277 forward $114 $-1 #
coedge $-1 $184 $184 $115 $185 forward $179 $-1 #
edge $-1 $278 1.173188054411521e-015 $278 6.2831853071796013 $184 $279 forward 7 unknown #
loop $-1 $-1 $191 $116 #
plane-surface $-1 38.109950961018306 -32.094392502692202 6.2105085136037133 0 -0.5877852598018023 0.80901698891910034 1 0 0 forward_v I I I I #
loop $-1 $-1 $280 $74 #
coedge $-1 $189 $189 $190 $281 reversed $117 $-1 #
coedge $-1 $190 $190 $189 $281 forward $119 $-1 #
coedge $-1 $191 $191 $120 $192 forward $186 $-1 #
edge $-1 $282 1.173188054411521e-015 $282 6.2831853071796013 $191 $283 forward 7 unknown #
loop $-1 $-1 $198 $121 #
plane-surface $-1 38.109950961018306 -32.094392502692202 6.2105085136037133 0 -0.5877852598018023 0.80901698891910034 1 0 0 forward_v I I I I #
loop $-1 $-1 $284 $77 #
coedge $-1 $196 $196 $197 $285 reversed $122 $-1 #
coedge $-1 $197 $197 $196 $285 forward $124 $-1 #
coedge $-1 $198 $198 $125 $199 forward $193 $-1 #
edge $-1 $286 1.173188054411521e-015 $286 6.2831853071796013 $198 $287 forward 7 unknown #
face $-1 $288 $289 $30 $-1 $290 reversed single #
loop $-1 $-1 $291 $126 #
plane-surface $-1 -49.217810602130193 0 0 1 0 0 0 0 -1 forward_v I I I I #
coedge $-1 $292 $211 $293 $294 forward $127 $-1 #
coedge $-1 $295 $129 $292 $296 forward $81 $-1 #
coedge $-1 $129 $295 $297 $298 forward $81 $-1 #
coedge $-1 $214 $213 $129 $207 reversed $215 $-1 #
edge $-1 $299 -32.094392502692209 $300 32.094392502692209 $206 $301 forward 7 unknown #
coedge $-1 $131 $130 $302 $303 forward $51 $-1 #
coedge $-1 $304 $305 $130 $210 reversed $289 $-1 #
edge $-1 $217 -49.217810602130193 $306 49.217810602130193 $209 $307 forward 7 unknown #
coedge $-1 $203 $308 $131 $212 reversed $127 $-1 #
edge $-1 $309 -49.217810602130193 $216 49.217810602130193 $211 $310 forward 7 unknown #
coedge $-1 $206 $132 $308 $311 forward $215 $-1 #
coedge $-1 $132 $206 $304 $312 reversed $215 $-1 #
loop $-1 $-1 $213 $288 #
vertex $-1 $133 $313 #
vertex $-1 $133 $314 #
straight-curve $-1 49.217810602130193 0 13.967970920839344 0 1 0 I I #
face $-1 $315 $316 $31 $-1 $317 forward single #
loop $-1 $-1 $318 $134 #
plane-surface $-1 -49.217810602130193 0 0 1 0 0 0 0 -1 forward_v I I I I #
coedge $-1 $229 $319 $231 $320 forward $135 $-1 #
coedge $-1 $137 $231 $321 $322 reversed $85 $-1 #
coedge $-1 $323 $227 $137 $225 forward $324 $-1 #
edge $-1 $233 4.2952778769498403 $325 7.8802213215762835 $224 $326 forward 7 unknown #
coedge $-1 $139 $138 $318 $327 reversed $54 $-1 #
coedge $-1 $224 $328 $138 $228 forward $324 $-1 #
edge $-1 $329 -27.906771497948853 $233 -14.715306710413827 $227 $330 forward 7 unknown #
coedge $-1 $331 $222 $139 $230 forward $135 $-1 #
edge $-1 $232 14.715306710413827 $332 27.906771497948853 $229 $333 forward 7 unknown #
coedge $-1 $223 $140 $222 $320 reversed $85 $-1 #
vertex $-1 $230 $334 #
vertex $-1 $228 $335 #
straight-curve $-1 -36.026345814595167 0 10.383027476212902 0 -1 0 I I #
face $-1 $-1 $336 $32 $-1 $337 reversed single #
loop $-1 $-1 $338 $142 #
plane-surface $-1 49.217810602130193 0 0 -1 0 0 0 0 1 forward_v I I I I #
coedge $-1 $339 $145 $147 $244 forward $89 $-1 #
coedge $-1 $145 $339 $338 $340 reversed $89 $-1 #
coedge $-1 $341 $148 $145 $241 forward $143 $-1 #
edge $-1 $247 7.9471158393972665 $342 30.16283512162104 $240 $343 forward 7 unknown #
coedge $-1 $344 $345 $146 $243 forward $336 $-1 #
edge $-1 $346 -55.57740151310005 $246 -47.819939105864414 $242 $347 forward 7 unknown #
edge $-1 $247 50.991001839043363 $346 64.188785005384432 $147 $348 forward 7 unknown #
coedge $-1 $148 $341 $344 $349 forward $143 $-1 #
vertex $-1 $243 $350 #
vertex $-1 $149 $351 #
straight-curve $-1 27.00209131990642 19.011791059279293 13.967970920839342 0 -1 0 I I #
coedge $-1 $249 $249 $-1 $352 reversed $152 $-1 #
edge $-1 $353 0 $353 6.2831853071796004 $153 $354 forward 7 unknown #
vertex $-1 $156 $355 #
ellipse-curve $-1 31.445235176351169 26.755777103871992 10.08923971722152 0 0.5877852598018023 0.80901698891910034 2 0 0 1 I I #
coedge $-1 $253 $253 $-1 $356 reversed $159 $-1 #
edge $-1 $357 0 $357 6.2831853071796004 $160 $358 forward 7 unknown #
vertex $-1 $163 $359 #
ellipse-curve $-1 38.109950961018306 26.755777103871992 10.08923971722152 0 0.5877852598018023 0.80901698891910034 2 0 0 1 I I #
coedge $-1 $257 $257 $-1 $360 reversed $166 $-1 #
edge $-1 $361 0 $361 6.2831853071796004 $167 $362 forward 7 unknown #
vertex $-1 $170 $363 #
ellipse-curve $-1 44.774666745685444 26.755777103871992 10.08923971722152 0 0.5877852598018023 0.80901698891910034 2 0 0 1 I I #
face $-1 $-1 $364 $36 $-1 $365 reversed single #
loop $-1 $-1 $366 $171 #
plane-surface $-1 0 -32.094392502692209 0 0 1 0 0 0 1 forward_v I I I I #
coedge $-1 $265 $174 $176 $271 reversed $108 $-1 #
coedge $-1 $174 $264 $367 $368 reversed $108 $-1 #
coedge $-1 $369 $177 $174 $267 forward $172 $-1 #
edge $-1 $274 -23.559538137943328 $370 -12.882307340302887 $266 $371 forward 7 unknown #
coedge $-1 $176 $175 $366 $372 reversed $69 $-1 #
coedge $-1 $373 $374 $175 $270 forward $364 $-1 #
edge $-1 $375 -11.157231711772974 $273 2.0405514545680914 $269 $376 forward 7 unknown #
edge $-1 $377 -8.8807605448725156e-015 $274 13.197783166341058 $264 $378 forward 7 unknown #
coedge $-1 $177 $369 $373 $379 forward $172 $-1 #
vertex $-1 $270 $380 #
vertex $-1 $178 $381 #
straight-curve $-1 19.054975480509153 -21.417161705051768 13.967970920839344 -1 0 0 I I #
coedge $-1 $276 $276 $-1 $382 reversed $181 $-1 #
edge $-1 $383 0 $383 6.2831853071796004 $182 $384 forward 7 unknown #
vertex $-1 $185 $385 #
ellipse-curve $-1 31.445235176351169 -26.755777103871996 10.089239717221522 0 -0.5877852598018023 0.80901698891910034 2 0 0 1 I I #
coedge $-1 $280 $280 $-1 $386 reversed $188 $-1 #
edge $-1 $387 0 $387 6.2831853071796004 $189 $388 forward 7 unknown #
vertex $-1 $192 $389 #
ellipse-curve $-1 38.109950961018306 -26.755777103871996 10.089239717221522 0 -0.5877852598018023 0.80901698891910034 2 0 0 1 I I #
coedge $-1 $284 $284 $-1 $390 reversed $195 $-1 #
edge $-1 $391 0 $391 6.2831853071796004 $196 $392 forward 7 unknown #
vertex $-1 $199 $393 #
ellipse-curve $-1 44.774666745685444 -26.755777103871996 10.089239717221522 0 -0.5877852598018023 0.80901698891910034 2 0 0 1 I I #
face $-1 $-1 $215 $30 $-1 $394 reversed single #
loop $-1 $-1 $304 $200 #
plane-surface $-1 0 32.094392502692209 0 0 -1 0 0 0 -1 forward_v I I I I #
coedge $-1 $395 $302 $305 $396 forward $201 $-1 #
coedge $-1 $308 $203 $204 $296 reversed $127 $-1 #
coedge $-1 $302 $395 $203 $294 reversed $201 $-1 #
edge $-1 $309 -13.967970920839344 $397 13.967970920839344 $293 $398 forward 7 unknown #
coedge $-1 $205 $204 $395 $399 forward $81 $-1 #
edge $-1 $300 -49.217810602130193 $397 49.217810602130193 $292 $400 forward 7 unknown #
coedge $-1 $305 $304 $205 $298 reversed $289 $-1 #
edge $-1 $401 -49.217810602130193 $299 49.217810602130193 $297 $402 forward 7 unknown #
vertex $-1 $207 $403 #
vertex $-1 $311 $404 #
straight-curve $-1 49.217810602130193 0 -13.967970920839344 0 -1 0 I I #
coedge $-1 $291 $293 $208 $303 reversed $201 $-1 #
edge $-1 $306 -32.094392502692209 $309 32.094392502692209 $302 $405 forward 7 unknown #
coedge $-1 $297 $209 $214 $312 forward $289 $-1 #
coedge $-1 $209 $297 $291 $396 reversed $289 $-1 #
vertex $-1 $210 $406 #
straight-curve $-1 0 32.094392502692209 13.967970920839344 -1 0 0 I I #
coedge $-1 $211 $292 $213 $311 reversed $127 $-1 #
vertex $-1 $303 $407 #
straight-curve $-1 0 -32.094392502692209 13.967970920839344 1 0 0 I I #
edge $-1 $216 -13.967970920839344 $300 13.967970920839344 $213 $408 forward 7 unknown #
edge $-1 $217 -13.967970920839344 $299 13.967970920839344 $214 $409 forward 7 unknown #
point $-1 49.217810602130193 -32.094392502692209 13.967970920839344 #
point $-1 49.217810602130193 32.094392502692209 13.967970920839344 #
face $-1 $-1 $324 $31 $-1 $410 reversed single #
loop $-1 $-1 $321 $219 #
plane-surface $-1 0 0 13.967970920839344 0 0 1 1 0 0 forward_v I I I I #
coedge $-1 $411 $412 $226 $327 forward $220 $-1 #
coedge $-1 $222 $331 $413 $414 reversed $135 $-1 #
edge $-1 $415 -7.8802213215762835 $232 -4.2952778769498403 $222 $416 forward 7 unknown #
coedge $-1 $413 $417 $223 $322 forward $316 $-1 #
edge $-1 $325 -32.094392502692209 $415 32.094392502692209 $321 $418 forward 7 unknown #
coedge $-1 $328 $224 $417 $419 reversed $324 $-1 #
loop $-1 $-1 $224 $315 #
vertex $-1 $225 $420 #
straight-curve $-1 -36.026345814595167 -32.094392502692209 6.0877495992630619 0 0 1 I I #
edge $-1 $332 -32.094392502692209 $329 32.094392502692209 $318 $421 forward 7 unknown #
coedge $-1 $227 $323 $411 $422 forward $324 $-1 #
vertex $-1 $327 $423 #
straight-curve $-1 -21.31103910418134 -32.094392502692209 10.383027476212902 1 0 0 I I #
coedge $-1 $319 $229 $412 $424 reversed $135 $-1 #
vertex $-1 $327 $425 #
straight-curve $-1 -21.31103910418134 32.094392502692209 10.383027476212902 -1 0 0 I I #
point $-1 -36.026345814595167 32.094392502692209 10.383027476212902 #
point $-1 -36.026345814595167 -32.094392502692209 10.383027476212902 #
loop $-1 $-1 $242 $235 #
plane-surface $-1 0 32.094392502692209 0 0 -1 0 0 0 -1 forward_v I I I I #
coedge $-1 $426 $427 $239 $340 forward $236 $-1 #
coedge $-1 $239 $238 $345 $428 reversed $89 $-1 #
edge $-1 $342 30.053841048124116 $429 43.251624214465181 $338 $430 forward 7 unknown #
coedge $-1 $245 $240 $427 $431 forward $143 $-1 #
vertex $-1 $431 $432 #
straight-curve $-1 19.054975480509153 21.417161705051765 13.967970920839342 1 0 0 I I #
coedge $-1 $433 $242 $245 $349 reversed $336 $-1 #
coedge $-1 $242 $433 $339 $428 forward $336 $-1 #
vertex $-1 $243 $434 #
straight-curve $-1 27.00209131990642 32.094392502692209 61.787910026703756 0 0 1 I I #
straight-curve $-1 27.00209131990642 -19.835425064739404 43.939730184355625 0 0.80901698891910034 -0.5877852598018023 I I #
edge $-1 $435 -49.217810602130193 $246 -27.00209131990642 $344 $436 forward 7 unknown #
point $-1 27.00209131990642 32.094392502692209 13.967970920839344 #
point $-1 27.00209131990642 21.417161705051768 13.967970920839342 #
edge $-1 $437 1 $437 0 $249 $-1 forward 7 unknown #
vertex $-1 $250 $438 #
ellipse-curve $-1 31.445235176351169 23.494983349294163 5.6011422346403963 0 0.5877852598018023 0.80901698891910034 2 0 0 1 I I #
point $-1 33.445235176351169 26.755777103871999 10.089239717221535 #
edge $-1 $439 1 $439 0 $253 $-1 forward 7 unknown #
vertex $-1 $254 $440 #
ellipse-curve $-1 38.109950961018306 23.494983349294163 5.6011422346403963 0 0.5877852598018023 0.80901698891910034 2 0 0 1 I I #
point $-1 40.109950961018306 26.755777103871999 10.089239717221535 #
edge $-1 $441 1 $441 0 $257 $-1 forward 7 unknown #
vertex $-1 $258 $442 #
ellipse-curve $-1 44.774666745685444 23.494983349294163 5.6011422346403963 0 0.5877852598018023 0.80901698891910034 2 0 0 1 I I #
point $-1 46.774666745685444 26.755777103871999 10.089239717221535 #
loop $-1 $-1 $269 $261 #
plane-surface $-1 49.217810602130193 0 0 -1 0 0 0 0 1 forward_v I I I I #
coedge $-1 $443 $367 $268 $372 forward $262 $-1 #
coedge $-1 $366 $444 $265 $368 forward $262 $-1 #
edge $-1 $370 28.955328270488458 $377 36.712790677724094 $367 $445 forward 7 unknown #
coedge $-1 $272 $266 $444 $446 forward $172 $-1 #
vertex $-1 $446 $447 #
straight-curve $-1 27.00209131990642 -44.976699842995096 13.967970920839342 0 -1 0 I I #
edge $-1 $377 7.9471158393972665 $375 30.16283512162104 $366 $448 forward 7 unknown #
coedge $-1 $374 $269 $272 $379 reversed $364 $-1 #
coedge $-1 $269 $373 $443 $449 forward $364 $-1 #
vertex $-1 $372 $450 #
straight-curve $-1 49.217810602130193 -23.068002498560936 12.768564853977093 0 0.80901698891910034 0.5877852598018023 I I #
vertex $-1 $372 $451 #
straight-curve $-1 27.00209131990642 -32.094392502692202 6.2105085136037133 0 0.80901698891910034 0.5877852598018023 I I #
edge $-1 $452 -32.094392502692209 $273 -21.417161705051768 $373 $453 forward 7 unknown #
point $-1 49.217810602130193 -21.417161705051768 13.967970920839344 #
point $-1 27.00209131990642 -21.417161705051768 13.967970920839344 #
edge $-1 $454 1 $454 0 $276 $-1 forward 7 unknown #
vertex $-1 $277 $455 #
ellipse-curve $-1 31.445235176351169 -23.494983349294163 5.6011422346403927 0 -0.5877852598018023 0.80901698891910034 2 0 0 1 I I #
point $-1 33.445235176351169 -26.755777103871999 10.089239717221531 #
edge $-1 $456 1 $456 0 $280 $-1 forward 7 unknown #
vertex $-1 $281 $457 #
ellipse-curve $-1 38.109950961018306 -23.494983349294163 5.6011422346403927 0 -0.5877852598018023 0.80901698891910034 2 0 0 1 I I #
point $-1 40.109950961018306 -26.755777103871999 10.089239717221531 #
edge $-1 $458 1 $458 0 $284 $-1 forward 7 unknown #
vertex $-1 $285 $459 #
ellipse-curve $-1 44.774666745685444 -23.494983349294163 5.6011422346403927 0 -0.5877852598018023 0.80901698891910034 2 0 0 1 I I #
point $-1 46.774666745685444 -26.755777103871999 10.089239717221531 #
plane-surface $-1 49.217810602130193 0 0 -1 0 0 0 0 1 forward_v I I I I #
coedge $-1 $293 $291 $295 $399 reversed $201 $-1 #
edge $-1 $306 -13.967970920839344 $401 13.967970920839344 $305 $460 forward 7 unknown #
vertex $-1 $399 $461 #
straight-curve $-1 -49.217810602130193 -32.094392502692209 0 0 0 -1 I I #
edge $-1 $397 -32.094392502692209 $401 32.094392502692209 $395 $462 forward 7 unknown #
straight-curve $-1 0 -32.094392502692209 -13.967970920839344 -1 0 0 I I #
vertex $-1 $298 $463 #
straight-curve $-1 0 32.094392502692209 -13.967970920839344 1 0 0 I I #
point $-1 49.217810602130193 32.094392502692209 -13.967970920839344 #
point $-1 49.217810602130193 -32.094392502692209 -13.967970920839344 #
straight-curve $-1 -49.217810602130193 0 13.967970920839344 0 -1 0 I I #
point $-1 -49.217810602130193 32.094392502692209 13.967970920839344 #
point $-1 -49.217810602130193 -32.094392502692209 13.967970920839344 #
straight-curve $-1 49.217810602130193 -32.094392502692209 0 0 0 -1 I I #
straight-curve $-1 49.217810602130193 32.094392502692209 0 0 0 -1 I I #
plane-surface $-1 0 -32.094392502692209 0 0 1 0 0 0 1 forward_v I I I I #
coedge $-1 $464 $318 $328 $422 reversed $220 $-1 #
coedge $-1 $318 $464 $331 $424 forward $220 $-1 #
coedge $-1 $465 $321 $319 $414 forward $316 $-1 #
edge $-1 $415 36.026345814595167 $466 49.217810602130193 $319 $467 forward 7 unknown #
vertex $-1 $414 $468 #
straight-curve $-1 -36.026345814595167 32.094392502692209 6.0877495992630619 0 0 -1 I I #
coedge $-1 $321 $465 $323 $419 forward $316 $-1 #
straight-curve $-1 -36.026345814595167 0 13.967970920839344 0 1 0 I I #
edge $-1 $469 -49.217810602130193 $325 -36.026345814595167 $323 $470 forward 7 unknown #
point $-1 -36.026345814595167 -32.094392502692209 13.967970920839345 #
straight-curve $-1 -49.217810602130193 0 10.383027476212902 0 -1 0 I I #
edge $-1 $469 -13.967970920839344 $329 -10.383027476212902 $411 $471 forward 7 unknown #
point $-1 -49.217810602130193 -32.094392502692209 10.383027476212902 #
edge $-1 $466 -13.967970920839344 $332 -10.383027476212902 $331 $472 forward 7 unknown #
point $-1 -49.217810602130193 32.094392502692209 10.383027476212902 #
coedge $-1 $427 $338 $433 $473 reversed $236 $-1 #
coedge $-1 $338 $426 $341 $431 reversed $236 $-1 #
edge $-1 $429 -30.16283512162104 $346 -7.9471158393972665 $345 $474 forward 7 unknown #
vertex $-1 $340 $475 #
straight-curve $-1 49.217810602130193 -2.8969062851548664 31.633175689353045 0 0.80901698891910034 -0.5877852598018023 I I #
edge $-1 $342 21.417161705051768 $435 32.094392502692209 $427 $476 forward 7 unknown #
point $-1 49.217810602130193 21.417161705051768 13.967970920839342 #
coedge $-1 $345 $344 $426 $473 forward $336 $-1 #
point $-1 27.00209131990642 32.094392502692209 6.2105085136037061 #
vertex $-1 $431 $477 #
straight-curve $-1 0 32.094392502692209 13.967970920839344 -1 0 0 I I #
vertex $-1 $352 $478 #
point $-1 33.445235176351169 23.494983349294163 5.6011422346403963 #
vertex $-1 $356 $479 #
point $-1 40.109950961018306 23.494983349294163 5.6011422346403963 #
vertex $-1 $360 $480 #
point $-1 46.774666745685444 23.494983349294163 5.6011422346403963 #
coedge $-1 $444 $366 $374 $449 reversed $262 $-1 #
coedge $-1 $367 $443 $369 $446 reversed $262 $-1 #
straight-curve $-1 27.00209131990642 -32.094392502692209 42.9232991913278 0 0 -1 I I #
edge $-1 $370 27.00209131990642 $452 49.217810602130193 $444 $481 forward 7 unknown #
point $-1 27.00209131990642 -32.094392502692209 13.967970920839344 #
straight-curve $-1 19.054975480509153 -32.094392502692209 6.2105085136037044 1 0 0 I I #
edge $-1 $452 -13.967970920839344 $375 -6.2105085136037079 $374 $482 forward 7 unknown #
point $-1 49.217810602130193 -32.094392502692209 6.2105085136037079 #
point $-1 27.00209131990642 -32.094392502692209 6.2105085136037079 #
vertex $-1 $379 $483 #
straight-curve $-1 49.217810602130193 0 13.967970920839344 0 1 0 I I #
vertex $-1 $382 $484 #
point $-1 33.445235176351169 -23.494983349294163 5.6011422346403927 #
vertex $-1 $386 $485 #
point $-1 40.109950961018306 -23.494983349294163 5.6011422346403927 #
vertex $-1 $390 $486 #
point $-1 46.774666745685444 -23.494983349294163 5.6011422346403927 #
straight-curve $-1 -49.217810602130193 32.094392502692209 0 0 0 -1 I I #
point $-1 -49.217810602130193 -32.094392502692209 -13.967970920839344 #
straight-curve $-1 -49.217810602130193 0 -13.967970920839344 0 1 0 I I #
point $-1 -49.217810602130193 32.094392502692209 -13.967970920839344 #
coedge $-1 $412 $411 $465 $487 reversed $220 $-1 #
coedge $-1 $417 $413 $464 $487 forward $316 $-1 #
vertex $-1 $414 $488 #
straight-curve $-1 0 32.094392502692209 13.967970920839344 -1 0 0 I I #
point $-1 -36.026345814595167 32.094392502692209 13.967970920839345 #
vertex $-1 $487 $489 #
straight-curve $-1 0 -32.094392502692209 13.967970920839344 1 0 0 I I #
straight-curve $-1 -49.217810602130193 -32.094392502692209 0 0 0 -1 I I #
straight-curve $-1 -49.217810602130193 32.094392502692209 0 0 0 -1 I I #
edge $-1 $435 -13.967970920839344 $429 -6.2105085136037061 $426 $490 forward 7 unknown #
straight-curve $-1 19.054975480509153 32.094392502692216 6.210508513603699 -1 0 0 I I #
point $-1 49.217810602130193 32.094392502692209 6.2105085136037061 #
straight-curve $-1 49.217810602130193 0 13.967970920839344 0 1 0 I I #
point $-1 49.217810602130193 32.094392502692209 13.967970920839344 #
point $-1 31.445235176351169 22.31941282969056 3.983108256802196 #
point $-1 38.109950961018306 22.31941282969056 3.983108256802196 #
point $-1 44.774666745685444 22.31941282969056 3.983108256802196 #
straight-curve $-1 0 -32.094392502692209 13.967970920839344 1 0 0 I I #
straight-curve $-1 49.217810602130193 -32.094392502692209 0 0 0 -1 I I #
point $-1 49.217810602130193 -32.094392502692209 13.967970920839344 #
point $-1 31.445235176351169 -22.31941282969056 3.9831082568021925 #
point $-1 38.109950961018306 -22.31941282969056 3.9831082568021925 #
point $-1 44.774666745685444 -22.31941282969056 3.9831082568021925 #
edge $-1 $466 -32.094392502692209 $469 32.094392502692209 $464 $491 forward 7 unknown #
point $-1 -49.217810602130193 32.094392502692209 13.967970920839344 #
point $-1 -49.217810602130193 -32.094392502692209 13.967970920839344 #
straight-curve $-1 49.217810602130193 32.094392502692209 0 0 0 -1 I I #
straight-curve $-1 -49.217810602130193 0 13.967970920839344 0 -1 0 I I #
End-of-ACIS-data 