500 0 5 0           
7 Unknown 11 ACIS 5.0 NT 24 Thu Mar 25 23:36:48 1999 
-1 9.9999999999999995e-007 1e-010 
body $-1 $5 $-1 $6 #
body $-1 $7 $-1 $8 #
body $-1 $9 $-1 $10 #
body $-1 $11 $-1 $12 #
body $-1 $13 $-1 $14 #
lump $-1 $-1 $15 $0 #
transform $-1 1 0 0 0 1 0 0 0 1 44.256721701712088 29.755206644039056 11.477734744631235 1 rotate no_reflect no_shear #
lump $-1 $-1 $16 $1 #
transform $-1 1 0 0 0 1 0 0 0 1 44.256721701712088 29.755206644039056 11.477734744631235 1 rotate no_reflect no_shear #
lump $-1 $-1 $17 $2 #
transform $-1 1 0 0 0 1 0 0 0 1 44.256721701712088 29.755206644039056 11.477734744631235 1 rotate no_reflect no_shear #
lump $-1 $-1 $18 $3 #
transform $-1 1 0 0 0 1 0 0 0 1 44.256721701712088 29.755206644039056 11.477734744631235 1 rotate no_reflect no_shear #
lump $-1 $-1 $19 $4 #
transform $-1 1 0 0 0 1 0 0 0 1 44.256721701712088 29.755206644039056 11.477734744631235 1 rotate no_reflect no_shear #
shell $-1 $-1 $-1 $20 $-1 $5 #
shell $-1 $-1 $-1 $21 $-1 $7 #
shell $-1 $-1 $-1 $22 $-1 $9 #
shell $-1 $-1 $-1 $23 $-1 $11 #
shell $-1 $-1 $-1 $24 $-1 $13 #
face $-1 $25 $26 $15 $-1 $27 forward single #
face $-1 $28 $29 $16 $-1 $30 forward single #
face $-1 $31 $32 $17 $-1 $33 reversed single #
face $-1 $34 $35 $18 $-1 $36 forward single #
face $-1 $37 $38 $19 $-1 $39 forward single #
face $-1 $40 $41 $15 $-1 $42 reversed single #
loop $-1 $-1 $43 $20 #
plane-surface $-1 0 0 11.477734744631235 0 0 1 1 0 0 forward_v I I I I #
face $-1 $44 $45 $16 $-1 $46 reversed single #
loop $-1 $-1 $47 $21 #
plane-surface $-1 0 -29.755206644039056 0 0 1 0 0 0 1 forward_v I I I I #
face $-1 $48 $49 $17 $-1 $50 reversed single #
loop $-1 $-1 $51 $22 #
plane-surface $-1 -117.63769267403563 -13.027593509793249 57.75752663373332 0 1 0 -0.82903758062907751 0 0.55919289150049634 forward_v I I I I #
face $-1 $52 $53 $18 $-1 $54 forward single #
loop $-1 $55 $56 $23 #
cone-surface $-1 -42.757493266242776 -9.121893291665824 9.589990066718876 0.82903758062907751 0 -0.55919289150049634 0.27959644575024817 0 0.41451879031453875 1 I I 0 1 0.5 forward I I I I #
face $-1 $57 $58 $19 $-1 $59 forward single #
loop $-1 $60 $61 $24 #
cone-surface $-1 -42.757493266242776 -3.2633429644746847 9.589990066718876 0.82903758062907751 0 -0.55919289150049634 0.27959644575024817 0 0.41451879031453875 1 I I 0 1 0.5 forward I I I I #
face $-1 $62 $63 $15 $-1 $64 reversed single #
loop $-1 $-1 $65 $25 #
plane-surface $-1 0 0 -11.477734744631235 0 0 1 1 0 0 forward_v I I I I #
coedge $-1 $66 $67 $68 $69 forward $26 $-1 #
face $-1 $70 $71 $16 $-1 $72 reversed single #
loop $-1 $-1 $73 $28 #
plane-surface $-1 0 0 -11.477734744631235 0 0 1 1 0 0 forward_v I I I I #
coedge $-1 $74 $75 $76 $77 forward $29 $-1 #
face $-1 $78 $79 $17 $-1 $80 reversed single #
loop $-1 $-1 $81 $31 #
plane-surface $-1 -44.256721701712081 -6.1926181280702544 8.2614382803070185 -0.82903758062907751 0 0.55919289150049634 0.55919289150049634 0 0.82903758062907751 forward_v I I I I #
coedge $-1 $82 $83 $84 $85 reversed $32 $-1 #
face $-1 $-1 $86 $18 $-1 $87 forward single #
loop $-1 $88 $89 $34 #
cone-surface $-1 -42.135715080770964 -9.121893291665824 9.1705953980935035 0.82903758062907751 0 -0.55919289150049634 0.13979822287512408 0 0.20725939515726938 1 I I -0.70710678118654746 0.70710678118654746 0.25 forward I I I I #
loop $-1 $-1 $90 $23 #
coedge $-1 $56 $56 $91 $92 reversed $35 $-1 #
face $-1 $-1 $93 $19 $-1 $94 forward single #
loop $-1 $95 $96 $37 #
cone-surface $-1 -42.135715080770964 -3.2633429644746847 9.1705953980935035 0.82903758062907751 0 -0.55919289150049634 0.13979822287512408 0 0.20725939515726938 1 I I -0.70710678118654746 0.70710678118654746 0.25 forward I I I I #
loop $-1 $-1 $97 $24 #
coedge $-1 $61 $61 $98 $99 reversed $38 $-1 #
face $-1 $100 $101 $15 $-1 $102 reversed single #
loop $-1 $-1 $103 $40 #
plane-surface $-1 0 -29.755206644039056 0 0 1 0 0 0 1 forward_v I I I I #
coedge $-1 $104 $105 $106 $107 forward $41 $-1 #
coedge $-1 $108 $43 $109 $110 forward $26 $-1 #
coedge $-1 $43 $108 $111 $112 forward $26 $-1 #
coedge $-1 $113 $114 $43 $69 reversed $115 $-1 #
edge $-1 $116 -29.755206644039056 $117 29.755206644039056 $68 $118 forward 7 unknown #
face $-1 $119 $120 $16 $-1 $121 forward single #
loop $-1 $-1 $122 $44 #
plane-surface $-1 44.256721701712088 0 0 -1 0 0 0 0 1 forward_v I I I I #
coedge $-1 $123 $124 $125 $126 forward $45 $-1 #
coedge $-1 $125 $47 $122 $127 reversed $29 $-1 #
coedge $-1 $47 $125 $128 $129 reversed $29 $-1 #
coedge $-1 $130 $131 $47 $77 reversed $120 $-1 #
edge $-1 $132 -44.256721701712088 $133 44.256721701712088 $76 $134 forward 7 unknown #
face $-1 $135 $136 $17 $-1 $137 forward single #
loop $-1 $-1 $138 $48 #
plane-surface $-1 -117.63769267403563 0.64235725365274021 57.75752663373332 0 -1 0 0.82903758062907751 0 -0.55919289150049634 forward_v I I I I #
coedge $-1 $139 $140 $141 $142 reversed $49 $-1 #
coedge $-1 $83 $51 $143 $144 reversed $32 $-1 #
coedge $-1 $51 $82 $139 $145 reversed $32 $-1 #
coedge $-1 $141 $146 $51 $85 forward $136 $-1 #
edge $-1 $147 14.562124635305729 $148 16.731543925615291 $84 $149 forward 7 unknown #
loop $-1 $-1 $91 $52 #
plane-surface $-1 -44.256721701712081 -6.1926181280702544 8.2614382803070185 -0.82903758062907751 0 0.55919289150049634 0.55919289150049634 0 0.82903758062907751 forward_v I I I I #
loop $-1 $-1 $150 $34 #
coedge $-1 $89 $89 $90 $151 reversed $53 $-1 #
coedge $-1 $90 $90 $89 $151 forward $55 $-1 #
coedge $-1 $91 $91 $56 $92 forward $86 $-1 #
edge $-1 $152 0 $152 6.2831853071796004 $91 $153 forward 7 unknown #
loop $-1 $-1 $98 $57 #
plane-surface $-1 -44.256721701712081 -6.1926181280702544 8.2614382803070185 -0.82903758062907751 0 0.55919289150049634 0.55919289150049634 0 0.82903758062907751 forward_v I I I I #
loop $-1 $-1 $154 $37 #
coedge $-1 $96 $96 $97 $155 reversed $58 $-1 #
coedge $-1 $97 $97 $96 $155 forward $60 $-1 #
coedge $-1 $98 $98 $61 $99 forward $93 $-1 #
edge $-1 $156 0 $156 6.2831853071796004 $98 $157 forward 7 unknown #
face $-1 $158 $159 $15 $-1 $160 reversed single #
loop $-1 $-1 $161 $62 #
plane-surface $-1 -44.256721701712088 0 0 1 0 0 0 0 -1 forward_v I I I I #
coedge $-1 $162 $111 $163 $164 forward $63 $-1 #
coedge $-1 $165 $65 $162 $166 forward $41 $-1 #
coedge $-1 $65 $165 $167 $168 forward $41 $-1 #
coedge $-1 $114 $113 $65 $107 reversed $115 $-1 #
edge $-1 $169 -29.755206644039056 $170 29.755206644039056 $106 $171 forward 7 unknown #
coedge $-1 $67 $66 $172 $173 forward $26 $-1 #
coedge $-1 $174 $175 $66 $110 reversed $159 $-1 #
edge $-1 $117 -44.256721701712088 $176 44.256721701712088 $109 $177 forward 7 unknown #
coedge $-1 $103 $178 $67 $112 reversed $63 $-1 #
edge $-1 $179 -44.256721701712088 $116 44.256721701712088 $111 $180 forward 7 unknown #
coedge $-1 $106 $68 $178 $181 forward $115 $-1 #
coedge $-1 $68 $106 $174 $182 reversed $115 $-1 #
loop $-1 $-1 $113 $158 #
vertex $-1 $69 $183 #
vertex $-1 $69 $184 #
straight-curve $-1 44.256721701712088 0 11.477734744631235 0 1 0 I I #
face $-1 $185 $186 $16 $-1 $187 reversed single #
loop $-1 $-1 $131 $70 #
plane-surface $-1 0 -34.408423295178707 -5.1114748523684455 0 0 1 1 0 0 forward_v I I I I #
coedge $-1 $188 $189 $74 $127 forward $71 $-1 #
coedge $-1 $190 $73 $189 $191 forward $45 $-1 #
coedge $-1 $73 $190 $192 $193 forward $45 $-1 #
coedge $-1 $75 $74 $73 $126 reversed $29 $-1 #
edge $-1 $194 -44.256721701712088 $195 44.256721701712088 $73 $196 forward 7 unknown #
edge $-1 $195 -11.477734744631235 $133 -5.1114748523684455 $122 $197 forward 7 unknown #
coedge $-1 $192 $198 $75 $129 forward $199 $-1 #
edge $-1 $132 5.1114748523684455 $194 11.477734744631235 $128 $200 forward 7 unknown #
coedge $-1 $201 $76 $198 $202 forward $120 $-1 #
coedge $-1 $76 $201 $188 $203 forward $120 $-1 #
vertex $-1 $129 $204 #
vertex $-1 $203 $205 #
straight-curve $-1 0 -29.755206644039056 -5.1114748523684455 1 0 0 I I #
face $-1 $-1 $206 $17 $-1 $207 reversed single #
loop $-1 $-1 $84 $78 #
plane-surface $-1 0 0 11.477734744631235 0 0 1 1 0 0 forward_v I I I I #
coedge $-1 $208 $209 $210 $211 reversed $79 $-1 #
coedge $-1 $212 $81 $83 $145 forward $49 $-1 #
coedge $-1 $81 $212 $208 $213 forward $49 $-1 #
coedge $-1 $210 $84 $81 $142 forward $136 $-1 #
edge $-1 $148 -9.9312844457581217 $214 3.7386663176878674 $141 $215 forward 7 unknown #
coedge $-1 $216 $217 $82 $144 forward $206 $-1 #
edge $-1 $218 -20.617325036559652 $147 -17.401028572235425 $143 $219 forward 7 unknown #
edge $-1 $148 -3.8795544851943591 $218 1.2809303928265426e-014 $83 $220 forward 7 unknown #
coedge $-1 $84 $210 $216 $221 forward $136 $-1 #
vertex $-1 $144 $222 #
vertex $-1 $85 $223 #
straight-curve $-1 -58.818846337017817 -13.027593509793249 11.477734744631235 1 0 0 I I #
coedge $-1 $150 $150 $-1 $224 reversed $88 $-1 #
edge $-1 $225 0 $225 6.2831853071796004 $89 $226 forward 7 unknown #
vertex $-1 $92 $227 #
ellipse-curve $-1 -43.172012056557307 -9.121893291665824 9.8695865124691213 -0.82903758062907751 0 0.55919289150049634 0.27959644575024817 0 0.41451879031453875 1 I I #
coedge $-1 $154 $154 $-1 $228 reversed $95 $-1 #
edge $-1 $229 0 $229 6.2831853071796004 $96 $230 forward 7 unknown #
vertex $-1 $99 $231 #
ellipse-curve $-1 -43.172012056557307 -3.2633429644746847 9.8695865124691213 -0.82903758062907751 0 0.55919289150049634 0.27959644575024817 0 0.41451879031453875 1 I I #
face $-1 $-1 $115 $15 $-1 $232 reversed single #
loop $-1 $-1 $174 $100 #
plane-surface $-1 0 29.755206644039056 0 0 -1 0 0 0 -1 forward_v I I I I #
coedge $-1 $233 $172 $175 $234 forward $101 $-1 #
coedge $-1 $178 $103 $104 $166 reversed $63 $-1 #
coedge $-1 $172 $233 $103 $164 reversed $101 $-1 #
edge $-1 $179 -11.477734744631235 $235 11.477734744631235 $163 $236 forward 7 unknown #
coedge $-1 $105 $104 $233 $237 forward $41 $-1 #
edge $-1 $170 -44.256721701712088 $235 44.256721701712088 $162 $238 forward 7 unknown #
coedge $-1 $175 $174 $105 $168 reversed $159 $-1 #
edge $-1 $239 -44.256721701712088 $169 44.256721701712088 $167 $240 forward 7 unknown #
vertex $-1 $107 $241 #
vertex $-1 $181 $242 #
straight-curve $-1 44.256721701712088 0 -11.477734744631235 0 -1 0 I I #
coedge $-1 $161 $163 $108 $173 reversed $101 $-1 #
edge $-1 $176 -29.755206644039056 $179 29.755206644039056 $172 $243 forward 7 unknown #
coedge $-1 $167 $109 $114 $182 forward $159 $-1 #
coedge $-1 $109 $167 $161 $234 reversed $159 $-1 #
vertex $-1 $110 $244 #
straight-curve $-1 0 29.755206644039056 11.477734744631235 -1 0 0 I I #
coedge $-1 $111 $162 $113 $181 reversed $63 $-1 #
vertex $-1 $173 $245 #
straight-curve $-1 0 -29.755206644039056 11.477734744631235 1 0 0 I I #
edge $-1 $116 -11.477734744631235 $170 11.477734744631235 $113 $246 forward 7 unknown #
edge $-1 $117 -11.477734744631235 $169 11.477734744631235 $114 $247 forward 7 unknown #
point $-1 44.256721701712088 -29.755206644039056 11.477734744631235 #
point $-1 44.256721701712088 29.755206644039056 11.477734744631235 #
face $-1 $-1 $199 $16 $-1 $248 reversed single #
loop $-1 $-1 $249 $119 #
plane-surface $-1 0 -39.061639946318358 -8.2946047984998401 0 1 0 0 0 1 forward_v I I I I #
coedge $-1 $250 $122 $131 $203 reversed $71 $-1 #
coedge $-1 $122 $250 $123 $191 reversed $71 $-1 #
coedge $-1 $124 $123 $251 $252 forward $45 $-1 #
edge $-1 $195 29.755206644039056 $253 39.061639946318358 $189 $254 forward 7 unknown #
coedge $-1 $255 $128 $124 $193 reversed $199 $-1 #
edge $-1 $256 -39.061639946318358 $194 -29.755206644039056 $192 $257 forward 7 unknown #
vertex $-1 $129 $258 #
vertex $-1 $191 $259 #
straight-curve $-1 0 -29.755206644039056 -11.477734744631235 1 0 0 I I #
straight-curve $-1 44.256721701712088 -29.755206644039056 0 0 0 1 I I #
coedge $-1 $128 $255 $130 $202 reversed $199 $-1 #
loop $-1 $-1 $128 $185 #
straight-curve $-1 -44.256721701712088 -29.755206644039056 0 0 0 -1 I I #
coedge $-1 $131 $130 $260 $261 forward $120 $-1 #
edge $-1 $132 -4.6532166511396511 $262 4.6532166511396511 $198 $263 forward 7 unknown #
edge $-1 $264 -4.6532166511396511 $133 4.6532166511396511 $188 $265 forward 7 unknown #
point $-1 -44.256721701712088 -29.755206644039056 -5.1114748523684455 #
point $-1 44.256721701712088 -29.755206644039056 -5.1114748523684455 #
loop $-1 $-1 $143 $135 #
plane-surface $-1 -44.256721701712088 0 0 1 0 0 0 0 -1 forward_v I I I I #
coedge $-1 $209 $138 $140 $213 reversed $79 $-1 #
coedge $-1 $138 $208 $266 $267 reversed $79 $-1 #
coedge $-1 $146 $141 $138 $211 forward $136 $-1 #
edge $-1 $214 -16.731543925615291 $268 -14.562124635305729 $210 $269 forward 7 unknown #
coedge $-1 $140 $139 $217 $270 reversed $49 $-1 #
edge $-1 $271 -1.2809303928265426e-014 $214 3.8795544851943591 $208 $272 forward 7 unknown #
vertex $-1 $142 $273 #
straight-curve $-1 -42.087302411402526 -3.0963090640351272 11.477734744631235 0 1 0 I I #
coedge $-1 $266 $143 $146 $221 reversed $206 $-1 #
coedge $-1 $143 $266 $212 $270 forward $206 $-1 #
vertex $-1 $144 $274 #
straight-curve $-1 -44.256721701712088 -13.027593509793249 28.87876331686666 0 0 1 I I #
straight-curve $-1 -44.256721701712081 -13.027593509793249 8.2614382803070185 -0.55919289150049634 0 -0.82903758062907751 I I #
edge $-1 $268 -0.64235725365274021 $147 13.027593509793249 $216 $275 forward 7 unknown #
point $-1 -44.256721701712088 -13.027593509793249 11.477734744631235 #
point $-1 -42.087302411402526 -13.027593509793249 11.477734744631235 #
edge $-1 $276 1 $276 0 $150 $-1 forward 7 unknown #
vertex $-1 $151 $277 #
ellipse-curve $-1 -42.342974475928237 -9.121893291665824 9.3103936209686271 -0.82903758062907751 0 0.55919289150049634 0.27959644575024817 0 0.41451879031453875 1 I I #
point $-1 -42.892415610807063 -9.121893291665824 10.284105302783663 #
edge $-1 $278 1 $278 0 $154 $-1 forward 7 unknown #
vertex $-1 $155 $279 #
ellipse-curve $-1 -42.342974475928237 -3.2633429644746847 9.3103936209686271 -0.82903758062907751 0 0.55919289150049634 0.27959644575024817 0 0.41451879031453875 1 I I #
point $-1 -42.892415610807063 -3.2633429644746847 10.284105302783663 #
plane-surface $-1 44.256721701712088 0 0 -1 0 0 0 0 1 forward_v I I I I #
coedge $-1 $163 $161 $165 $237 reversed $101 $-1 #
edge $-1 $176 -11.477734744631235 $239 11.477734744631235 $175 $280 forward 7 unknown #
vertex $-1 $237 $281 #
straight-curve $-1 -44.256721701712088 -29.755206644039056 0 0 0 -1 I I #
edge $-1 $235 -29.755206644039056 $239 29.755206644039056 $233 $282 forward 7 unknown #
straight-curve $-1 0 -29.755206644039056 -11.477734744631235 -1 0 0 I I #
vertex $-1 $168 $283 #
straight-curve $-1 0 29.755206644039056 -11.477734744631235 1 0 0 I I #
point $-1 44.256721701712088 29.755206644039056 -11.477734744631235 #
point $-1 44.256721701712088 -29.755206644039056 -11.477734744631235 #
straight-curve $-1 -44.256721701712088 0 11.477734744631235 0 -1 0 I I #
point $-1 -44.256721701712088 29.755206644039056 11.477734744631235 #
point $-1 -44.256721701712088 -29.755206644039056 11.477734744631235 #
straight-curve $-1 44.256721701712088 -29.755206644039056 0 0 0 -1 I I #
straight-curve $-1 44.256721701712088 29.755206644039056 0 0 0 -1 I I #
plane-surface $-1 -44.256721701712088 0 0 1 0 0 0 0 -1 forward_v I I I I #
coedge $-1 $251 $260 $255 $284 forward $186 $-1 #
coedge $-1 $189 $188 $285 $286 forward $71 $-1 #
coedge $-1 $285 $249 $190 $252 reversed $186 $-1 #
edge $-1 $253 -44.256721701712088 $256 44.256721701712088 $251 $287 forward 7 unknown #
vertex $-1 $286 $288 #
straight-curve $-1 44.256721701712088 0 -11.477734744631235 0 -1 0 I I #
coedge $-1 $198 $192 $249 $284 reversed $199 $-1 #
vertex $-1 $193 $289 #
straight-curve $-1 -44.256721701712088 0 -11.477734744631235 0 1 0 I I #
point $-1 -44.256721701712088 -29.755206644039056 -11.477734744631235 #
point $-1 44.256721701712088 -29.755206644039056 -11.477734744631235 #
coedge $-1 $249 $285 $201 $261 reversed $186 $-1 #
edge $-1 $262 -44.256721701712088 $264 44.256721701712088 $260 $290 forward 7 unknown #
vertex $-1 $202 $291 #
straight-curve $-1 -44.256721701712088 -34.408423295178707 -5.1114748523684455 0 -1 0 I I #
vertex $-1 $203 $292 #
straight-curve $-1 44.256721701712088 -34.408423295178707 -5.1114748523684455 0 1 0 I I #
coedge $-1 $217 $216 $209 $267 forward $206 $-1 #
edge $-1 $268 17.401028572235425 $271 20.617325036559652 $266 $293 forward 7 unknown #
vertex $-1 $221 $294 #
straight-curve $-1 -58.818846337017817 0.64235725365274021 11.477734744631235 -1 0 0 I I #
edge $-1 $271 -3.7386663176878674 $218 9.9312844457581217 $217 $295 forward 7 unknown #
vertex $-1 $270 $296 #
straight-curve $-1 -44.256721701712081 0.64235725365274021 8.2614382803070185 0.55919289150049634 0 0.82903758062907751 I I #
point $-1 -42.087302411402526 0.64235725365274021 11.477734744631235 #
point $-1 -44.256721701712088 -13.027593509793249 8.2614382803070079 #
straight-curve $-1 -44.256721701712088 0 11.477734744631235 0 -1 0 I I #
vertex $-1 $224 $297 #
point $-1 -42.063378030177986 -9.121893291665824 9.7249124112831673 #
vertex $-1 $228 $298 #
point $-1 -42.063378030177986 -3.2633429644746847 9.7249124112831673 #
straight-curve $-1 -44.256721701712088 29.755206644039056 0 0 0 -1 I I #
point $-1 -44.256721701712088 -29.755206644039056 -11.477734744631235 #
straight-curve $-1 -44.256721701712088 0 -11.477734744631235 0 1 0 I I #
point $-1 -44.256721701712088 29.755206644039056 -11.477734744631235 #
edge $-1 $262 -3.1831299461313947 $256 3.1831299461313947 $255 $299 forward 7 unknown #
coedge $-1 $260 $251 $250 $286 reversed $186 $-1 #
edge $-1 $264 -3.1831299461313947 $253 3.1831299461313947 $250 $300 forward 7 unknown #
straight-curve $-1 0 -39.061639946318358 -11.477734744631235 -1 0 0 I I #
point $-1 44.256721701712088 -39.061639946318358 -11.477734744631235 #
point $-1 -44.256721701712088 -39.061639946318358 -11.477734744631235 #
straight-curve $-1 0 -39.061639946318358 -5.1114748523684455 1 0 0 I I #
point $-1 -44.256721701712088 -39.061639946318358 -5.1114748523684455 #
point $-1 44.256721701712088 -39.061639946318358 -5.1114748523684455 #
straight-curve $-1 -44.256721701712088 0.64235725365274021 28.87876331686666 0 0 -1 I I #
point $-1 -44.256721701712088 0.64235725365274021 11.477734744631235 #
straight-curve $-1 -44.256721701712088 -3.0963090640351272 8.2614382803070043 0 -1 0 I I #
point $-1 -44.256721701712088 0.64235725365274021 8.2614382803070079 #
point $-1 -41.928455685613692 -9.121893291665824 9.03079717521838 #
point $-1 -41.928455685613692 -3.2633429644746847 9.03079717521838 #
straight-curve $-1 -44.256721701712088 -39.061639946318358 -8.2946047984998401 0 0 -1 I I #
straight-curve $-1 44.256721701712088 -39.061639946318358 -8.2946047984998401 0 0 -1 I I #
End-of-ACIS-data 