500 0 8 0           
7 Unknown 11 ACIS 5.0 NT 24 Fri Mar 26 15:49:20 1999 
-1 9.9999999999999995e-007 1e-010 
body $-1 $8 $-1 $9 #
body $-1 $10 $-1 $11 #
body $-1 $12 $-1 $13 #
body $-1 $14 $-1 $15 #
body $-1 $16 $-1 $17 #
body $-1 $18 $-1 $19 #
body $-1 $20 $-1 $21 #
body $-1 $22 $-1 $23 #
lump $-1 $-1 $24 $0 #
transform $-1 1 0 0 0 1 0 0 0 1 44.15540025025178 25.726075949508093 8.6782619068054068 1 rotate no_reflect no_shear #
lump $-1 $-1 $25 $1 #
transform $-1 1 0 0 0 1 0 0 0 1 44.15540025025178 25.726075949508093 8.6782619068054068 1 rotate no_reflect no_shear #
lump $-1 $-1 $26 $2 #
transform $-1 1 0 0 0 1 0 0 0 1 44.15540025025178 25.726075949508093 8.6782619068054068 1 rotate no_reflect no_shear #
lump $-1 $-1 $27 $3 #
transform $-1 1 0 0 0 1 0 0 0 1 44.15540025025178 25.726075949508093 8.6782619068054068 1 rotate no_reflect no_shear #
lump $-1 $-1 $28 $4 #
transform $-1 1 0 0 0 1 0 0 0 1 44.15540025025178 25.726075949508093 8.6782619068054068 1 rotate no_reflect no_shear #
lump $-1 $-1 $29 $5 #
transform $-1 1 0 0 0 1 0 0 0 1 44.15540025025178 25.726075949508093 8.6782619068054068 1 rotate no_reflect no_shear #
lump $-1 $-1 $30 $6 #
transform $-1 1 0 0 0 1 0 0 0 1 44.15540025025178 25.726075949508093 8.6782619068054068 1 rotate no_reflect no_shear #
lump $-1 $-1 $31 $7 #
transform $-1 1 0 0 0 1 0 0 0 1 44.15540025025178 25.726075949508093 8.6782619068054068 1 rotate no_reflect no_shear #
shell $-1 $-1 $-1 $32 $-1 $8 #
shell $-1 $-1 $-1 $33 $-1 $10 #
shell $-1 $-1 $-1 $34 $-1 $12 #
shell $-1 $-1 $-1 $35 $-1 $14 #
shell $-1 $-1 $-1 $36 $-1 $16 #
shell $-1 $-1 $-1 $37 $-1 $18 #
shell $-1 $-1 $-1 $38 $-1 $20 #
shell $-1 $-1 $-1 $39 $-1 $22 #
face $-1 $40 $41 $24 $-1 $42 forward single #
face $-1 $43 $44 $25 $-1 $45 reversed single #
face $-1 $46 $47 $26 $-1 $48 reversed single #
face $-1 $49 $50 $27 $-1 $51 reversed single #
face $-1 $52 $53 $28 $-1 $54 forward single #
face $-1 $55 $56 $29 $-1 $57 forward single #
face $-1 $58 $59 $30 $-1 $60 reversed single #
face $-1 $61 $62 $31 $-1 $63 forward single #
face $-1 $64 $65 $24 $-1 $66 reversed single #
loop $-1 $-1 $67 $32 #
plane-surface $-1 0 0 8.6782619068054068 0 0 1 1 0 0 forward_v I I I I #
face $-1 $68 $69 $25 $-1 $70 reversed single #
loop $-1 $-1 $71 $33 #
plane-surface $-1 0 -20.80512245140773 5.1962043307827805 0 0 1 1 0 0 forward_v I I I I #
face $-1 $72 $73 $26 $-1 $74 reversed single #
loop $-1 $-1 $75 $34 #
plane-surface $-1 0 20.805122451407733 5.1962043307827805 0 0 1 1 0 0 forward_v I I I I #
face $-1 $76 $77 $27 $-1 $78 reversed single #
loop $-1 $-1 $79 $35 #
plane-surface $-1 -44.155400250251787 -11.61621826677785 4.5126993107431304 -0.51503808176128008 0 0.85716729658548041 0.85716729658548041 0 0.51503808176128008 forward_v I I I I #
face $-1 $80 $81 $28 $-1 $82 forward single #
loop $-1 $83 $84 $36 #
cone-surface $-1 -40.431551091592318 -13.445339989576212 6.1668969604815196 0.51503808176128008 0 -0.85716729658548041 0.4285836482927402 0 0.25751904088064004 1 I I 0 1 0.5 forward I I I I #
face $-1 $85 $86 $29 $-1 $87 forward single #
loop $-1 $88 $89 $37 #
cone-surface $-1 -40.431551091592318 -9.7870965439794837 6.1668969604815196 0.51503808176128008 0 -0.85716729658548041 0.4285836482927402 0 0.25751904088064004 1 I I 0 1 0.5 forward I I I I #
face $-1 $90 $91 $30 $-1 $92 reversed single #
loop $-1 $-1 $93 $38 #
plane-surface $-1 16.061189444845141 0.37713692134965271 122.84629888294299 0 -1 0 -0.52991927123019833 0 -0.84804809178421925 forward_v I I I I #
face $-1 $94 $95 $31 $-1 $96 forward single #
loop $-1 $97 $98 $39 #
cone-surface $-1 37.463893428815588 -3.6331939409538201 3.840302390290125 -0.52991927123019833 0 -0.84804809178421925 0.84804809178421925 0 -0.52991927123019833 1 I I 0 1 1 forward I I I I #
face $-1 $99 $100 $24 $-1 $101 reversed single #
loop $-1 $-1 $102 $40 #
plane-surface $-1 0 0 -8.6782619068054068 0 0 1 1 0 0 forward_v I I I I #
coedge $-1 $103 $104 $105 $106 forward $41 $-1 #
face $-1 $107 $108 $25 $-1 $109 reversed single #
loop $-1 $-1 $110 $43 #
plane-surface $-1 0 -15.884168953307366 6.9372331187940937 0 -1 0 0 0 -1 forward_v I I I I #
coedge $-1 $111 $112 $113 $114 reversed $44 $-1 #
face $-1 $115 $116 $26 $-1 $117 forward single #
loop $-1 $-1 $118 $46 #
plane-surface $-1 0 15.88416895330737 6.9372331187940937 0 1 0 0 0 1 forward_v I I I I #
coedge $-1 $119 $120 $121 $122 reversed $47 $-1 #
face $-1 $123 $124 $27 $-1 $125 reversed single #
loop $-1 $-1 $126 $49 #
plane-surface $-1 -89.638825538834226 -7.3482675802483337 80.209829435059447 0 -1 0 0.51503808176128008 0 -0.85716729658548041 forward_v I I I I #
coedge $-1 $127 $128 $129 $130 reversed $50 $-1 #
face $-1 $-1 $131 $28 $-1 $132 forward single #
loop $-1 $133 $134 $52 #
cone-surface $-1 -40.045272530271362 -13.445339989576212 5.5240214880424094 0.51503808176128008 0 -0.85716729658548041 0.2142918241463701 0 0.12875952044032002 1 I I -0.70710678118654746 0.70710678118654746 0.25 forward I I I I #
loop $-1 $-1 $135 $36 #
coedge $-1 $84 $84 $136 $137 reversed $53 $-1 #
face $-1 $-1 $138 $29 $-1 $139 forward single #
loop $-1 $140 $141 $55 #
cone-surface $-1 -40.045272530271362 -9.7870965439794837 5.5240214880424094 0.51503808176128008 0 -0.85716729658548041 0.2142918241463701 0 0.12875952044032002 1 I I -0.70710678118654746 0.70710678118654746 0.25 forward I I I I #
loop $-1 $-1 $142 $37 #
coedge $-1 $89 $89 $143 $144 reversed $56 $-1 #
face $-1 $145 $146 $30 $-1 $147 reversed single #
loop $-1 $-1 $148 $58 #
plane-surface $-1 -30.736405598137146 -3.6331939409538201 47.954493034554062 0.52991927123019833 0 0.84804809178421925 0.84804809178421925 0 -0.52991927123019833 forward_v I I I I #
coedge $-1 $149 $150 $151 $152 reversed $59 $-1 #
face $-1 $-1 $153 $31 $-1 $154 forward single #
loop $-1 $155 $156 $61 #
cone-surface $-1 36.525776050786298 -3.6331939409538201 2.3390007854995396 -0.52991927123019833 0 -0.84804809178421925 0.42402404589210962 0 -0.26495963561509916 1 I I -0.70710678118654746 0.70710678118654746 0.5 forward I I I I #
loop $-1 $-1 $157 $39 #
coedge $-1 $98 $98 $158 $159 reversed $62 $-1 #
face $-1 $160 $161 $24 $-1 $162 reversed single #
loop $-1 $-1 $163 $64 #
plane-surface $-1 0 -25.726075949508093 0 0 1 0 0 0 1 forward_v I I I I #
coedge $-1 $164 $165 $166 $167 forward $65 $-1 #
coedge $-1 $168 $67 $169 $170 forward $41 $-1 #
coedge $-1 $67 $168 $171 $172 forward $41 $-1 #
coedge $-1 $173 $174 $67 $106 reversed $175 $-1 #
edge $-1 $176 -25.726075949508093 $177 25.726075949508093 $105 $178 forward 7 unknown #
face $-1 $179 $180 $25 $-1 $181 reversed single #
loop $-1 $-1 $182 $68 #
plane-surface $-1 -44.15540025025178 0 0 1 0 0 0 0 -1 forward_v I I I I #
coedge $-1 $183 $184 $185 $186 reversed $69 $-1 #
coedge $-1 $187 $71 $188 $189 reversed $44 $-1 #
coedge $-1 $71 $187 $183 $190 forward $44 $-1 #
coedge $-1 $185 $191 $71 $114 forward $192 $-1 #
edge $-1 $193 -15.323514723804228 $194 -5.4816077276035013 $113 $195 forward 7 unknown #
face $-1 $196 $197 $26 $-1 $198 reversed single #
loop $-1 $-1 $199 $72 #
plane-surface $-1 0 0 8.6782619068054068 0 0 1 1 0 0 forward_v I I I I #
coedge $-1 $200 $201 $202 $203 reversed $73 $-1 #
coedge $-1 $204 $75 $200 $205 forward $47 $-1 #
coedge $-1 $75 $204 $206 $207 reversed $47 $-1 #
coedge $-1 $208 $209 $75 $122 forward $197 $-1 #
edge $-1 $210 5.4816077276035031 $211 15.32351472380423 $121 $212 forward 7 unknown #
face $-1 $213 $214 $27 $-1 $215 forward single #
loop $-1 $-1 $216 $76 #
plane-surface $-1 -44.15540025025178 0 0 1 0 0 0 0 -1 forward_v I I I I #
coedge $-1 $217 $218 $219 $220 reversed $77 $-1 #
coedge $-1 $221 $79 $222 $223 reversed $50 $-1 #
coedge $-1 $79 $221 $217 $224 forward $50 $-1 #
coedge $-1 $219 $225 $79 $130 forward $214 $-1 #
edge $-1 $226 -10.076059819918441 $227 -1.5401584468594089 $129 $228 forward 7 unknown #
loop $-1 $-1 $136 $80 #
plane-surface $-1 -44.155400250251787 -11.61621826677785 4.5126993107431304 -0.51503808176128008 0 0.85716729658548041 0.85716729658548041 0 0.51503808176128008 forward_v I I I I #
loop $-1 $-1 $229 $52 #
coedge $-1 $134 $134 $135 $230 reversed $81 $-1 #
coedge $-1 $135 $135 $134 $230 forward $83 $-1 #
coedge $-1 $136 $136 $84 $137 forward $131 $-1 #
edge $-1 $231 0 $231 6.2831853071796004 $136 $232 forward 7 unknown #
loop $-1 $-1 $143 $85 #
plane-surface $-1 -44.155400250251787 -11.61621826677785 4.5126993107431304 -0.51503808176128008 0 0.85716729658548041 0.85716729658548041 0 0.51503808176128008 forward_v I I I I #
loop $-1 $-1 $233 $55 #
coedge $-1 $141 $141 $142 $234 reversed $86 $-1 #
coedge $-1 $142 $142 $141 $234 forward $88 $-1 #
coedge $-1 $143 $143 $89 $144 forward $138 $-1 #
edge $-1 $235 0 $235 6.2831853071796004 $143 $236 forward 7 unknown #
face $-1 $237 $238 $30 $-1 $239 forward single #
loop $-1 $-1 $240 $90 #
plane-surface $-1 16.061189444845141 -7.6435248032572929 122.84629888294299 0 1 0 0.52991927123019833 0 0.84804809178421925 forward_v I I I I #
coedge $-1 $241 $242 $243 $244 reversed $91 $-1 #
coedge $-1 $150 $93 $245 $246 reversed $59 $-1 #
coedge $-1 $93 $149 $241 $247 reversed $59 $-1 #
coedge $-1 $243 $248 $93 $152 forward $238 $-1 #
edge $-1 $249 -36.12480552782921 $250 -24.088107369785178 $151 $251 forward 7 unknown #
loop $-1 $-1 $158 $94 #
plane-surface $-1 -30.736405598137146 -3.6331939409538201 47.954493034554062 0.52991927123019833 0 0.84804809178421925 0.84804809178421925 0 -0.52991927123019833 forward_v I I I I #
loop $-1 $-1 $252 $61 #
coedge $-1 $156 $156 $157 $253 reversed $95 $-1 #
coedge $-1 $157 $157 $156 $253 forward $97 $-1 #
coedge $-1 $158 $158 $98 $159 forward $153 $-1 #
edge $-1 $254 0 $254 6.2831853071796004 $158 $255 forward 7 unknown #
face $-1 $256 $257 $24 $-1 $258 reversed single #
loop $-1 $-1 $259 $99 #
plane-surface $-1 -44.15540025025178 0 0 1 0 0 0 0 -1 forward_v I I I I #
coedge $-1 $260 $171 $261 $262 forward $100 $-1 #
coedge $-1 $263 $102 $260 $264 forward $65 $-1 #
coedge $-1 $102 $263 $265 $266 forward $65 $-1 #
coedge $-1 $174 $173 $102 $167 reversed $175 $-1 #
edge $-1 $267 -25.726075949508093 $268 25.726075949508093 $166 $269 forward 7 unknown #
coedge $-1 $104 $103 $270 $271 forward $41 $-1 #
coedge $-1 $272 $273 $103 $170 reversed $257 $-1 #
edge $-1 $177 -44.15540025025178 $274 44.15540025025178 $169 $275 forward 7 unknown #
coedge $-1 $163 $276 $104 $172 reversed $100 $-1 #
edge $-1 $277 -44.15540025025178 $176 44.15540025025178 $171 $278 forward 7 unknown #
coedge $-1 $166 $105 $276 $279 forward $175 $-1 #
coedge $-1 $105 $166 $272 $280 reversed $175 $-1 #
loop $-1 $-1 $173 $256 #
vertex $-1 $106 $281 #
vertex $-1 $106 $282 #
straight-curve $-1 44.15540025025178 0 8.6782619068054068 0 1 0 I I #
face $-1 $283 $284 $25 $-1 $285 forward single #
loop $-1 $-1 $188 $107 #
plane-surface $-1 0 -25.726075949508093 0 0 1 0 0 0 1 forward_v I I I I #
coedge $-1 $286 $287 $288 $289 forward $108 $-1 #
coedge $-1 $288 $110 $112 $190 reversed $69 $-1 #
coedge $-1 $110 $288 $290 $291 reversed $69 $-1 #
coedge $-1 $292 $113 $110 $186 forward $192 $-1 #
edge $-1 $194 1.7275877713857337 $293 5.2096453474083599 $185 $294 forward 7 unknown #
coedge $-1 $112 $111 $286 $295 reversed $44 $-1 #
coedge $-1 $296 $297 $111 $189 forward $180 $-1 #
edge $-1 $298 -44.15540025025178 $193 44.15540025025178 $188 $299 forward 7 unknown #
edge $-1 $300 -44.15540025025178 $194 44.15540025025178 $183 $301 forward 7 unknown #
coedge $-1 $113 $292 $296 $302 forward $192 $-1 #
loop $-1 $-1 $185 $283 #
vertex $-1 $189 $303 #
vertex $-1 $114 $304 #
straight-curve $-1 44.15540025025178 -10.402561225703865 5.1962043307827805 0 1 0 I I #
face $-1 $305 $306 $26 $-1 $307 reversed single #
loop $-1 $-1 $209 $115 #
plane-surface $-1 44.15540025025178 0 0 -1 0 0 0 0 1 forward_v I I I I #
coedge $-1 $308 $309 $201 $310 forward $116 $-1 #
coedge $-1 $311 $118 $119 $205 reversed $73 $-1 #
coedge $-1 $118 $311 $199 $310 reversed $73 $-1 #
coedge $-1 $312 $313 $118 $203 forward $306 $-1 #
edge $-1 $314 1.7275877713857337 $315 5.2096453474083599 $202 $316 forward 7 unknown #
coedge $-1 $120 $119 $313 $317 reversed $47 $-1 #
edge $-1 $210 -44.15540025025178 $314 44.15540025025178 $200 $318 forward 7 unknown #
coedge $-1 $319 $320 $120 $207 forward $321 $-1 #
edge $-1 $211 -44.15540025025178 $322 44.15540025025178 $206 $323 forward 7 unknown #
coedge $-1 $324 $121 $320 $325 reversed $197 $-1 #
coedge $-1 $121 $324 $311 $326 forward $197 $-1 #
vertex $-1 $122 $327 #
vertex $-1 $207 $328 #
straight-curve $-1 44.15540025025178 10.402561225703867 5.1962043307827805 0 1 0 I I #
face $-1 $-1 $329 $27 $-1 $330 forward single #
loop $-1 $-1 $219 $123 #
plane-surface $-1 0 0 8.6782619068054068 0 0 1 1 0 0 forward_v I I I I #
coedge $-1 $331 $332 $218 $333 forward $124 $-1 #
coedge $-1 $218 $126 $128 $224 reversed $77 $-1 #
coedge $-1 $126 $217 $216 $333 reversed $77 $-1 #
coedge $-1 $334 $129 $126 $220 forward $214 $-1 #
edge $-1 $227 -7.5966727547229382 $335 -0.66401251916533255 $219 $336 forward 7 unknown #
coedge $-1 $128 $127 $331 $337 reversed $50 $-1 #
coedge $-1 $338 $339 $127 $223 forward $329 $-1 #
edge $-1 $340 -19.548646151911047 $226 -11.460773150720023 $222 $341 forward 7 unknown #
edge $-1 $342 8.3777685069199533e-015 $227 8.0878730011910314 $217 $343 forward 7 unknown #
coedge $-1 $129 $334 $338 $344 forward $214 $-1 #
vertex $-1 $223 $345 #
vertex $-1 $130 $346 #
straight-curve $-1 -37.222740014694175 -5.8081091333889248 8.6782619068054068 0 1 0 I I #
coedge $-1 $229 $229 $-1 $347 reversed $133 $-1 #
edge $-1 $348 0 $348 6.2831853071796004 $134 $349 forward 7 unknown #
vertex $-1 $137 $350 #
ellipse-curve $-1 -40.68907013247297 -13.445339989576212 6.5954806087742766 -0.51503808176128008 0 0.85716729658548041 0.4285836482927402 0 0.25751904088064004 1 I I #
coedge $-1 $233 $233 $-1 $351 reversed $140 $-1 #
edge $-1 $352 0 $352 6.2831853071796004 $141 $353 forward 7 unknown #
vertex $-1 $144 $354 #
ellipse-curve $-1 -40.68907013247297 -9.7870965439794837 6.5954806087742766 -0.51503808176128008 0 0.85716729658548041 0.4285836482927402 0 0.25751904088064004 1 I I #
face $-1 $-1 $355 $30 $-1 $356 reversed single #
loop $-1 $-1 $151 $145 #
plane-surface $-1 0 0 8.6782619068054068 0 0 1 1 0 0 forward_v I I I I #
coedge $-1 $357 $358 $359 $360 reversed $146 $-1 #
coedge $-1 $361 $148 $150 $247 forward $91 $-1 #
coedge $-1 $148 $361 $357 $362 forward $91 $-1 #
coedge $-1 $359 $151 $148 $244 forward $238 $-1 #
edge $-1 $250 -2.1937338918265628 $363 5.8269278327803828 $243 $364 forward 7 unknown #
coedge $-1 $365 $366 $149 $246 forward $355 $-1 #
edge $-1 $367 -60.26625144989972 $249 -52.744887534666091 $245 $368 forward 7 unknown #
edge $-1 $250 74.11738591157399 $367 88.310800500503575 $150 $369 forward 7 unknown #
coedge $-1 $151 $359 $365 $370 forward $238 $-1 #
vertex $-1 $246 $371 #
vertex $-1 $152 $372 #
straight-curve $-1 8.0305947224225704 0.37713692134965271 8.6782619068054032 -1 0 0 I I #
coedge $-1 $252 $252 $-1 $373 reversed $155 $-1 #
edge $-1 $374 0 $374 6.2831853071796004 $156 $375 forward 7 unknown #
vertex $-1 $159 $376 #
ellipse-curve $-1 38.137051171229771 -3.6331939409538201 4.9175799491885881 0.52991927123019833 0 0.84804809178421925 0.84804809178421925 0 -0.52991927123019833 1 I I #
face $-1 $-1 $175 $24 $-1 $377 reversed single #
loop $-1 $-1 $272 $160 #
plane-surface $-1 0 25.726075949508093 0 0 -1 0 0 0 -1 forward_v I I I I #
coedge $-1 $378 $270 $273 $379 forward $161 $-1 #
coedge $-1 $276 $163 $164 $264 reversed $100 $-1 #
coedge $-1 $270 $378 $163 $262 reversed $161 $-1 #
edge $-1 $277 -8.6782619068054068 $380 8.6782619068054068 $261 $381 forward 7 unknown #
coedge $-1 $165 $164 $378 $382 forward $65 $-1 #
edge $-1 $268 -44.15540025025178 $380 44.15540025025178 $260 $383 forward 7 unknown #
coedge $-1 $273 $272 $165 $266 reversed $257 $-1 #
edge $-1 $384 -44.15540025025178 $267 44.15540025025178 $265 $385 forward 7 unknown #
vertex $-1 $167 $386 #
vertex $-1 $279 $387 #
straight-curve $-1 44.15540025025178 0 -8.6782619068054068 0 -1 0 I I #
coedge $-1 $259 $261 $168 $271 reversed $161 $-1 #
edge $-1 $274 -25.726075949508093 $277 25.726075949508093 $270 $388 forward 7 unknown #
coedge $-1 $265 $169 $174 $280 forward $257 $-1 #
coedge $-1 $169 $265 $259 $379 reversed $257 $-1 #
vertex $-1 $170 $389 #
straight-curve $-1 0 25.726075949508093 8.6782619068054068 -1 0 0 I I #
coedge $-1 $171 $260 $173 $279 reversed $100 $-1 #
vertex $-1 $271 $390 #
straight-curve $-1 0 -25.726075949508093 8.6782619068054068 1 0 0 I I #
edge $-1 $176 -8.6782619068054068 $268 8.6782619068054068 $173 $391 forward 7 unknown #
edge $-1 $177 -8.6782619068054068 $267 8.6782619068054068 $174 $392 forward 7 unknown #
point $-1 44.15540025025178 -25.726075949508093 8.6782619068054068 #
point $-1 44.15540025025178 25.726075949508093 8.6782619068054068 #
face $-1 $-1 $192 $25 $-1 $393 reversed single #
loop $-1 $-1 $290 $179 #
plane-surface $-1 0 0 8.6782619068054068 0 0 1 1 0 0 forward_v I I I I #
coedge $-1 $394 $182 $187 $295 forward $108 $-1 #
coedge $-1 $182 $394 $395 $396 reversed $108 $-1 #
coedge $-1 $184 $183 $182 $289 reversed $69 $-1 #
edge $-1 $397 -5.2096453474083599 $300 -1.7275877713857337 $182 $398 forward 7 unknown #
coedge $-1 $395 $399 $184 $291 forward $284 $-1 #
edge $-1 $293 -44.15540025025178 $397 44.15540025025178 $290 $400 forward 7 unknown #
coedge $-1 $191 $185 $399 $401 reversed $192 $-1 #
vertex $-1 $186 $402 #
straight-curve $-1 44.15540025025178 -15.884168953307366 3.4686165593970468 0 0 1 I I #
edge $-1 $300 5.4816077276035013 $298 15.323514723804228 $286 $403 forward 7 unknown #
coedge $-1 $404 $188 $191 $302 reversed $180 $-1 #
coedge $-1 $188 $404 $394 $405 forward $180 $-1 #
vertex $-1 $189 $406 #
straight-curve $-1 0 -25.726075949508093 5.1962043307827805 1 0 0 I I #
vertex $-1 $295 $407 #
straight-curve $-1 0 -15.884168953307366 5.1962043307827805 1 0 0 I I #
edge $-1 $408 -8.6782619068054068 $193 -5.1962043307827805 $191 $409 forward 7 unknown #
point $-1 44.15540025025178 -25.726075949508093 5.1962043307827805 #
point $-1 44.15540025025178 -15.884168953307366 5.1962043307827805 #
face $-1 $-1 $321 $26 $-1 $410 reversed single #
loop $-1 $-1 $202 $196 #
plane-surface $-1 -44.15540025025178 0 0 1 0 0 0 0 -1 forward_v I I I I #
coedge $-1 $411 $199 $324 $412 forward $116 $-1 #
coedge $-1 $199 $411 $312 $413 forward $116 $-1 #
edge $-1 $315 -44.15540025025178 $414 44.15540025025178 $199 $415 forward 7 unknown #
coedge $-1 $201 $200 $209 $326 reversed $73 $-1 #
coedge $-1 $416 $202 $309 $413 reversed $306 $-1 #
coedge $-1 $202 $416 $204 $317 forward $306 $-1 #
vertex $-1 $317 $417 #
vertex $-1 $203 $418 #
straight-curve $-1 -44.15540025025178 15.88416895330737 3.4686165593970468 0 0 1 I I #
edge $-1 $322 -15.32351472380423 $314 -5.4816077276035031 $313 $419 forward 7 unknown #
straight-curve $-1 0 15.88416895330737 5.1962043307827805 -1 0 0 I I #
coedge $-1 $420 $206 $416 $421 reversed $321 $-1 #
coedge $-1 $206 $420 $208 $325 forward $321 $-1 #
loop $-1 $-1 $206 $305 #
vertex $-1 $207 $422 #
straight-curve $-1 0 25.726075949508093 5.1962043307827805 -1 0 0 I I #
coedge $-1 $209 $208 $308 $412 reversed $197 $-1 #
edge $-1 $423 -8.6782619068054068 $211 -5.1962043307827805 $208 $424 forward 7 unknown #
edge $-1 $414 -5.2096453474083599 $210 -1.7275877713857337 $209 $425 forward 7 unknown #
point $-1 44.15540025025178 15.88416895330737 5.1962043307827805 #
point $-1 44.15540025025178 25.726075949508097 5.1962043307827805 #
loop $-1 $-1 $222 $213 #
plane-surface $-1 0 -15.884168953307366 6.9372331187940937 0 -1 0 0 0 -1 forward_v I I I I #
coedge $-1 $426 $216 $221 $337 forward $124 $-1 #
coedge $-1 $216 $426 $334 $427 reversed $124 $-1 #
edge $-1 $335 31.426652810724317 $342 35.592215406786586 $216 $428 forward 7 unknown #
coedge $-1 $225 $219 $332 $427 forward $214 $-1 #
vertex $-1 $427 $429 #
straight-curve $-1 -44.819412769417113 -7.3482675802483337 8.6782619068054032 -1 0 0 I I #
edge $-1 $342 1.5401584468594089 $340 10.076059819918441 $331 $430 forward 7 unknown #
coedge $-1 $339 $222 $225 $344 reversed $329 $-1 #
coedge $-1 $222 $338 $426 $431 reversed $329 $-1 #
vertex $-1 $431 $432 #
straight-curve $-1 -27.398940076312034 -15.884168953307366 14.580996525853429 0.85716729658548041 0 0.51503808176128008 I I #
vertex $-1 $337 $433 #
straight-curve $-1 -44.155400250251787 -7.3482675802483337 4.5126993107431304 0.85716729658548041 0 0.51503808176128008 I I #
edge $-1 $434 -44.15540025025178 $226 -37.222740014694175 $225 $435 forward 7 unknown #
point $-1 -37.222740014694175 -15.884168953307366 8.6782619068054068 #
point $-1 -37.222740014694175 -7.3482675802483337 8.6782619068054068 #
edge $-1 $436 1 $436 0 $229 $-1 forward 7 unknown #
vertex $-1 $230 $437 #
ellipse-curve $-1 -40.174032050711681 -13.445339989576212 5.7383133121887795 -0.51503808176128008 0 0.85716729658548041 0.4285836482927402 0 0.25751904088064004 1 I I #
point $-1 -40.26048648418022 -13.445339989576212 6.8529996496549002 #
edge $-1 $438 1 $438 0 $233 $-1 forward 7 unknown #
vertex $-1 $234 $439 #
ellipse-curve $-1 -40.174032050711681 -9.7870965439794837 5.7383133121887795 -0.51503808176128008 0 0.85716729658548041 0.4285836482927402 0 0.25751904088064004 1 I I #
point $-1 -40.26048648418022 -9.7870965439794837 6.8529996496549002 #
loop $-1 $-1 $245 $237 #
plane-surface $-1 44.15540025025178 0 0 -1 0 0 0 0 1 forward_v I I I I #
coedge $-1 $358 $240 $242 $362 reversed $146 $-1 #
coedge $-1 $240 $357 $440 $441 reversed $146 $-1 #
coedge $-1 $248 $243 $240 $360 forward $238 $-1 #
edge $-1 $363 24.088107369785178 $442 36.12480552782921 $359 $443 forward 7 unknown #
coedge $-1 $242 $241 $366 $444 reversed $91 $-1 #
edge $-1 $445 -88.310800500503575 $363 -74.11738591157399 $357 $446 forward 7 unknown #
vertex $-1 $244 $447 #
straight-curve $-1 32.118702092207755 -1.81659697047691 8.6782619068054032 0 -1 0 I I #
coedge $-1 $440 $245 $248 $370 reversed $355 $-1 #
coedge $-1 $245 $440 $361 $444 forward $355 $-1 #
vertex $-1 $246 $448 #
straight-curve $-1 44.15540025025178 0.37713692134965271 61.423149441471494 0 0 1 I I #
straight-curve $-1 -30.736405598137146 0.37713692134965271 47.954493034554062 0.84804809178421925 0 -0.52991927123019833 I I #
edge $-1 $442 -7.6435248032572929 $249 0.37713692134965271 $365 $449 forward 7 unknown #
point $-1 44.15540025025178 0.37713692134965271 8.6782619068054068 #
point $-1 32.118702092207748 0.37713692134965271 8.6782619068054032 #
edge $-1 $450 1 $450 0 $252 $-1 forward 7 unknown #
vertex $-1 $253 $451 #
ellipse-curve $-1 36.790735686401398 -3.6331939409538201 2.7630248313916494 0.52991927123019833 0 0.84804809178421925 0.84804809178421925 0 -0.52991927123019833 1 I I #
point $-1 38.985099263014 -3.6331939409538201 4.3876606779584018 #
plane-surface $-1 44.15540025025178 0 0 -1 0 0 0 0 1 forward_v I I I I #
coedge $-1 $261 $259 $263 $382 reversed $161 $-1 #
edge $-1 $274 -8.6782619068054068 $384 8.6782619068054068 $273 $452 forward 7 unknown #
vertex $-1 $382 $453 #
straight-curve $-1 -44.15540025025178 -25.726075949508093 0 0 0 -1 I I #
edge $-1 $380 -25.726075949508093 $384 25.726075949508093 $378 $454 forward 7 unknown #
straight-curve $-1 0 -25.726075949508093 -8.6782619068054068 -1 0 0 I I #
vertex $-1 $266 $455 #
straight-curve $-1 0 25.726075949508093 -8.6782619068054068 1 0 0 I I #
point $-1 44.15540025025178 25.726075949508093 -8.6782619068054068 #
point $-1 44.15540025025178 -25.726075949508093 -8.6782619068054068 #
straight-curve $-1 -44.15540025025178 0 8.6782619068054068 0 -1 0 I I #
point $-1 -44.15540025025178 25.726075949508093 8.6782619068054068 #
point $-1 -44.15540025025178 -25.726075949508093 8.6782619068054068 #
straight-curve $-1 44.15540025025178 -25.726075949508093 0 0 0 -1 I I #
straight-curve $-1 44.15540025025178 25.726075949508093 0 0 0 -1 I I #
plane-surface $-1 44.15540025025178 0 0 -1 0 0 0 0 1 forward_v I I I I #
coedge $-1 $287 $286 $297 $405 reversed $108 $-1 #
coedge $-1 $456 $290 $287 $396 forward $284 $-1 #
edge $-1 $397 15.884168953307366 $457 25.726075949508093 $287 $458 forward 7 unknown #
vertex $-1 $396 $459 #
straight-curve $-1 -44.15540025025178 -15.884168953307366 3.4686165593970468 0 0 -1 I I #
coedge $-1 $290 $456 $292 $401 forward $284 $-1 #
straight-curve $-1 0 -15.884168953307366 8.6782619068054068 -1 0 0 I I #
edge $-1 $408 -25.726075949508093 $293 -15.884168953307366 $292 $460 forward 7 unknown #
point $-1 44.15540025025178 -15.884168953307366 8.6782619068054068 #
straight-curve $-1 -44.15540025025178 -10.402561225703865 5.1962043307827805 0 -1 0 I I #
coedge $-1 $297 $296 $456 $461 reversed $180 $-1 #
edge $-1 $457 -8.6782619068054068 $298 -5.1962043307827805 $394 $462 forward 7 unknown #
point $-1 -44.15540025025178 -25.726075949508093 5.1962043307827805 #
point $-1 -44.15540025025178 -15.884168953307366 5.1962043307827805 #
vertex $-1 $401 $463 #
straight-curve $-1 44.15540025025178 -25.726075949508093 0 0 0 -1 I I #
plane-surface $-1 0 25.726075949508093 0 0 -1 0 0 0 -1 forward_v I I I I #
coedge $-1 $309 $308 $420 $464 forward $116 $-1 #
edge $-1 $414 15.88416895330737 $423 25.726075949508093 $324 $465 forward 7 unknown #
edge $-1 $466 -25.726075949508093 $315 -15.88416895330737 $312 $467 forward 7 unknown #
vertex $-1 $412 $468 #
straight-curve $-1 0 15.88416895330737 8.6782619068054068 1 0 0 I I #
coedge $-1 $313 $312 $319 $421 forward $306 $-1 #
point $-1 -44.15540025025178 15.88416895330737 5.1962043307827805 #
point $-1 -44.15540025025178 15.88416895330737 8.6782619068054068 #
straight-curve $-1 -44.15540025025178 10.402561225703867 5.1962043307827805 0 -1 0 I I #
coedge $-1 $320 $319 $411 $464 reversed $321 $-1 #
edge $-1 $466 -8.6782619068054068 $322 -5.1962043307827805 $319 $469 forward 7 unknown #
point $-1 -44.15540025025178 25.726075949508097 5.1962043307827805 #
vertex $-1 $412 $470 #
straight-curve $-1 44.15540025025178 25.726075949508093 0 0 0 -1 I I #
straight-curve $-1 44.15540025025178 15.88416895330737 3.4686165593970468 0 0 -1 I I #
coedge $-1 $332 $331 $339 $431 forward $124 $-1 #
edge $-1 $335 7.3482675802483337 $434 15.884168953307366 $332 $471 forward 7 unknown #
straight-curve $-1 -44.15540025025178 -7.3482675802483337 40.104914717529724 0 0 -1 I I #
point $-1 -44.15540025025178 -7.3482675802483337 8.6782619068054068 #
straight-curve $-1 -44.15540025025178 -5.8081091333889248 4.5126993107431375 0 -1 0 I I #
edge $-1 $340 -35.592215406786586 $434 -31.426652810724317 $426 $472 forward 7 unknown #
point $-1 -44.15540025025178 -15.884168953307366 4.5126993107431348 #
point $-1 -44.15540025025178 -7.3482675802483337 4.5126993107431348 #
vertex $-1 $431 $473 #
straight-curve $-1 0 -15.884168953307366 8.6782619068054068 1 0 0 I I #
vertex $-1 $347 $474 #
point $-1 -39.745448402418944 -13.445339989576212 5.99583235306942 #
vertex $-1 $351 $475 #
point $-1 -39.745448402418944 -9.7870965439794837 5.99583235306942 #
coedge $-1 $366 $365 $358 $441 forward $355 $-1 #
edge $-1 $442 52.744887534666091 $445 60.26625144989972 $440 $476 forward 7 unknown #
vertex $-1 $370 $477 #
straight-curve $-1 8.0305947224225704 -7.6435248032572929 8.6782619068054032 1 0 0 I I #
edge $-1 $445 -5.8269278327803828 $367 2.1937338918265628 $366 $478 forward 7 unknown #
vertex $-1 $444 $479 #
straight-curve $-1 -30.736405598137146 -7.6435248032572929 47.954493034554062 -0.84804809178421925 0 0.52991927123019833 I I #
point $-1 32.118702092207748 -7.6435248032572929 8.6782619068054032 #
point $-1 44.15540025025178 0.37713692134965271 1.1568979915717748 #
straight-curve $-1 44.15540025025178 0 8.6782619068054068 0 1 0 I I #
vertex $-1 $373 $480 #
point $-1 37.638783778185619 -3.6331939409538201 2.2331055601614507 #
straight-curve $-1 -44.15540025025178 25.726075949508093 0 0 0 -1 I I #
point $-1 -44.15540025025178 -25.726075949508093 -8.6782619068054068 #
straight-curve $-1 -44.15540025025178 0 -8.6782619068054068 0 1 0 I I #
point $-1 -44.15540025025178 25.726075949508093 -8.6782619068054068 #
coedge $-1 $399 $395 $404 $461 forward $284 $-1 #
vertex $-1 $396 $481 #
straight-curve $-1 -44.15540025025178 0 8.6782619068054068 0 -1 0 I I #
point $-1 -44.15540025025178 -15.884168953307366 8.6782619068054068 #
straight-curve $-1 44.15540025025178 0 8.6782619068054068 0 1 0 I I #
edge $-1 $457 -44.15540025025178 $408 44.15540025025178 $404 $482 forward 7 unknown #
straight-curve $-1 -44.15540025025178 -25.726075949508093 0 0 0 -1 I I #
point $-1 44.15540025025178 -25.726075949508093 8.6782619068054068 #
edge $-1 $423 -44.15540025025178 $466 44.15540025025178 $420 $483 forward 7 unknown #
straight-curve $-1 44.15540025025178 0 8.6782619068054068 0 1 0 I I #
vertex $-1 $464 $484 #
straight-curve $-1 -44.15540025025178 0 8.6782619068054068 0 -1 0 I I #
point $-1 44.15540025025178 15.88416895330737 8.6782619068054068 #
straight-curve $-1 -44.15540025025178 25.726075949508093 0 0 0 -1 I I #
point $-1 44.15540025025178 25.726075949508093 8.6782619068054068 #
straight-curve $-1 -44.15540025025178 0 8.6782619068054068 0 -1 0 I I #
straight-curve $-1 -44.15540025025178 -15.884168953307366 40.104914717529724 0 0 1 I I #
point $-1 -44.15540025025178 -15.884168953307366 8.6782619068054068 #
point $-1 -39.916513009831043 -13.445339989576212 5.3097296638960394 #
point $-1 -39.916513009831043 -9.7870965439794837 5.3097296638960394 #
straight-curve $-1 44.15540025025178 -7.6435248032572929 61.423149441471494 0 0 -1 I I #
point $-1 44.15540025025178 -7.6435248032572929 8.6782619068054068 #
straight-curve $-1 44.155400250251773 -1.81659697047691 1.1568979915717748 0 1 0 I I #
point $-1 44.15540025025178 -7.6435248032572929 1.1568979915717748 #
point $-1 36.260816415171199 -3.6331939409538201 1.91497673960743 #
point $-1 -44.15540025025178 -25.726075949508093 8.6782619068054068 #
straight-curve $-1 0 -25.726075949508093 8.6782619068054068 1 0 0 I I #
straight-curve $-1 0 25.726075949508093 8.6782619068054068 -1 0 0 I I #
point $-1 -44.15540025025178 25.726075949508093 8.6782619068054068 #
End-of-ACIS-data 