500 0 12 0           
7 Unknown 11 ACIS 5.0 NT 24 Thu Mar 25 18:21:18 1999 
-1 9.9999999999999995e-007 1e-010 
body $-1 $12 $-1 $13 #
body $-1 $14 $-1 $15 #
body $-1 $16 $-1 $17 #
body $-1 $18 $-1 $19 #
body $-1 $20 $-1 $21 #
body $-1 $22 $-1 $23 #
body $-1 $24 $-1 $25 #
body $-1 $26 $-1 $27 #
body $-1 $28 $-1 $29 #
body $-1 $30 $-1 $31 #
body $-1 $32 $-1 $33 #
body $-1 $34 $-1 $35 #
lump $-1 $-1 $36 $0 #
transform $-1 1 0 0 0 1 0 0 0 1 66.582842493972592 29.074595942762784 8.9094244331701677 1 rotate no_reflect no_shear #
lump $-1 $-1 $37 $1 #
transform $-1 1 0 0 0 1 0 0 0 1 66.582842493972592 29.074595942762784 8.9094244331701677 1 rotate no_reflect no_shear #
lump $-1 $-1 $38 $2 #
transform $-1 1 0 0 0 1 0 0 0 1 66.582842493972592 29.074595942762784 8.9094244331701677 1 rotate no_reflect no_shear #
lump $-1 $-1 $39 $3 #
transform $-1 1 0 0 0 1 0 0 0 1 66.582842493972592 29.074595942762784 8.9094244331701677 1 rotate no_reflect no_shear #
lump $-1 $-1 $40 $4 #
transform $-1 1 0 0 0 1 0 0 0 1 66.582842493972592 29.074595942762784 8.9094244331701677 1 rotate no_reflect no_shear #
lump $-1 $-1 $41 $5 #
transform $-1 1 0 0 0 1 0 0 0 1 66.582842493972592 29.074595942762784 8.9094244331701677 1 rotate no_reflect no_shear #
lump $-1 $-1 $42 $6 #
transform $-1 1 0 0 0 1 0 0 0 1 66.582842493972592 29.074595942762784 8.9094244331701677 1 rotate no_reflect no_shear #
lump $-1 $-1 $43 $7 #
transform $-1 1 0 0 0 1 0 0 0 1 66.582842493972592 29.074595942762784 8.9094244331701677 1 rotate no_reflect no_shear #
lump $-1 $-1 $44 $8 #
transform $-1 1 0 0 0 1 0 0 0 1 66.582842493972592 29.074595942762784 8.9094244331701677 1 rotate no_reflect no_shear #
lump $-1 $-1 $45 $9 #
transform $-1 1 0 0 0 1 0 0 0 1 66.582842493972592 29.074595942762784 8.9094244331701677 1 rotate no_reflect no_shear #
lump $-1 $-1 $46 $10 #
transform $-1 1 0 0 0 1 0 0 0 1 66.582842493972592 29.074595942762784 8.9094244331701677 1 rotate no_reflect no_shear #
lump $-1 $-1 $47 $11 #
transform $-1 1 0 0 0 1 0 0 0 1 66.582842493972592 29.074595942762784 8.9094244331701677 1 rotate no_reflect no_shear #
shell $-1 $-1 $-1 $48 $-1 $12 #
shell $-1 $-1 $-1 $49 $-1 $14 #
shell $-1 $-1 $-1 $50 $-1 $16 #
shell $-1 $-1 $-1 $51 $-1 $18 #
shell $-1 $-1 $-1 $52 $-1 $20 #
shell $-1 $-1 $-1 $53 $-1 $22 #
shell $-1 $-1 $-1 $54 $-1 $24 #
shell $-1 $-1 $-1 $55 $-1 $26 #
shell $-1 $-1 $-1 $56 $-1 $28 #
shell $-1 $-1 $-1 $57 $-1 $30 #
shell $-1 $-1 $-1 $58 $-1 $32 #
shell $-1 $-1 $-1 $59 $-1 $34 #
face $-1 $60 $61 $36 $-1 $62 reversed single #
face $-1 $63 $64 $37 $-1 $65 forward single #
face $-1 $66 $67 $38 $-1 $68 forward single #
face $-1 $69 $70 $39 $-1 $71 reversed single #
face $-1 $72 $73 $40 $-1 $74 forward single #
face $-1 $75 $76 $41 $-1 $77 forward single #
face $-1 $78 $79 $42 $-1 $80 reversed single #
face $-1 $81 $82 $43 $-1 $83 forward single #
face $-1 $84 $85 $44 $-1 $86 forward single #
face $-1 $87 $88 $45 $-1 $89 reversed single #
face $-1 $90 $91 $46 $-1 $92 forward single #
face $-1 $93 $94 $47 $-1 $95 forward single #
face $-1 $96 $97 $36 $-1 $98 forward single #
loop $-1 $-1 $99 $48 #
plane-surface $-1 0 -29.074595942762784 0 0 1 0 0 0 1 forward_v I I I I #
face $-1 $100 $101 $37 $-1 $102 forward single #
loop $-1 $-1 $103 $49 #
plane-surface $-1 0 -29.074595942762784 0 0 1 0 0 0 1 forward_v I I I I #
face $-1 $104 $105 $38 $-1 $106 forward single #
loop $-1 $-1 $107 $50 #
plane-surface $-1 0 29.074595942762784 0 0 -1 0 0 0 -1 forward_v I I I I #
face $-1 $108 $109 $39 $-1 $110 reversed single #
loop $-1 $-1 $111 $51 #
plane-surface $-1 -148.56782560453522 -9.2330720178176264 106.08443956381586 0 1 0 -0.61566148304635926 0 0.78801074757464917 forward_v I I I I #
face $-1 $112 $113 $40 $-1 $114 forward single #
loop $-1 $115 $116 $52 #
cone-surface $-1 -61.111633152317815 -6.7208725542480998 4.3833193782362816 0.61566148304635926 0 -0.78801074757464917 0.78801074757464917 0 0.61566148304635926 1 I I 0 1 1 forward I I I I #
face $-1 $117 $118 $41 $-1 $119 forward single #
loop $-1 $120 $121 $53 #
cone-surface $-1 -61.111633152317815 -2.9525733588938117 4.3833193782362816 0.61566148304635926 0 -0.78801074757464917 0.78801074757464917 0 0.61566148304635926 1 I I 0 1 1 forward I I I I #
face $-1 $122 $123 $42 $-1 $124 reversed single #
loop $-1 $-1 $125 $54 #
plane-surface $-1 96.043321559236503 -6.3197624110291493 189.45093227503594 0 -1 0 -0.80901700255871778 0 -0.5877852410284794 forward_v I I I I #
face $-1 $126 $127 $43 $-1 $128 forward single #
loop $-1 $129 $130 $55 #
cone-surface $-1 64.135926299620294 -10.720442953589341 5.8416139984398772 -0.80901700255871778 0 -0.5877852410284794 0.2938926205142397 0 -0.40450850127935889 1 I I 0 1 0.5 forward I I I I #
face $-1 $131 $132 $44 $-1 $133 forward single #
loop $-1 $134 $135 $56 #
cone-surface $-1 64.135926299620294 -8.0800346280532267 5.8416139984398772 -0.80901700255871778 0 -0.5877852410284794 0.2938926205142397 0 -0.40450850127935889 1 I I 0 1 0.5 forward I I I I #
face $-1 $136 $137 $45 $-1 $138 reversed single #
loop $-1 $-1 $139 $57 #
plane-surface $-1 96.043321559236503 12.480715170613419 189.45093227503594 0 -1 0 -0.80901700255871778 0 -0.5877852410284794 forward_v I I I I #
face $-1 $140 $141 $46 $-1 $142 forward single #
loop $-1 $143 $144 $58 #
cone-surface $-1 64.135926299620294 8.0800346280532267 5.8416139984398772 -0.80901700255871778 0 -0.5877852410284794 0.2938926205142397 0 -0.40450850127935889 1 I I 0 1 0.5 forward I I I I #
face $-1 $145 $146 $47 $-1 $147 forward single #
loop $-1 $148 $149 $59 #
cone-surface $-1 64.135926299620294 10.720442953589341 5.8416139984398772 -0.80901700255871778 0 -0.5877852410284794 0.2938926205142397 0 -0.40450850127935889 1 I I 0 1 0.5 forward I I I I #
face $-1 $150 $151 $36 $-1 $152 reversed single #
loop $-1 $-1 $153 $60 #
plane-surface $-1 0 0 8.9094244331701677 0 0 1 1 0 0 forward_v I I I I #
coedge $-1 $154 $155 $156 $157 reversed $61 $-1 #
face $-1 $158 $159 $37 $-1 $160 reversed single #
loop $-1 $-1 $161 $63 #
plane-surface $-1 0 0 8.9094244331701677 0 0 1 1 0 0 forward_v I I I I #
coedge $-1 $162 $163 $164 $165 forward $64 $-1 #
face $-1 $166 $167 $38 $-1 $168 reversed single #
loop $-1 $-1 $169 $66 #
plane-surface $-1 0 0 8.9094244331701677 0 0 1 1 0 0 forward_v I I I I #
coedge $-1 $170 $171 $172 $173 forward $67 $-1 #
face $-1 $174 $175 $39 $-1 $176 reversed single #
loop $-1 $-1 $177 $69 #
plane-surface $-1 -66.582842493972578 -4.8367229565709557 1.1484485851749469 -0.61566148304635926 0 0.78801074757464917 0.78801074757464917 0 0.61566148304635926 forward_v I I I I #
coedge $-1 $178 $179 $180 $181 reversed $70 $-1 #
face $-1 $-1 $182 $40 $-1 $183 forward single #
loop $-1 $184 $185 $72 #
cone-surface $-1 -60.299391015980873 -6.7208725542480998 3.3436968735126786 0.61566148304635926 0 -0.78801074757464917 0.39400537378732459 0 0.30783074152317963 1 I I -0.70710678118654746 0.70710678118654746 0.5 forward I I I I #
loop $-1 $-1 $186 $52 #
coedge $-1 $116 $116 $187 $188 reversed $73 $-1 #
face $-1 $-1 $189 $41 $-1 $190 forward single #
loop $-1 $191 $192 $75 #
cone-surface $-1 -60.299391015980873 -2.9525733588938117 3.3436968735126786 0.61566148304635926 0 -0.78801074757464917 0.39400537378732459 0 0.30783074152317963 1 I I -0.70710678118654746 0.70710678118654746 0.5 forward I I I I #
loop $-1 $-1 $193 $53 #
coedge $-1 $121 $121 $194 $195 reversed $76 $-1 #
face $-1 $196 $197 $42 $-1 $198 reversed single #
loop $-1 $-1 $199 $78 #
plane-surface $-1 -11.689981753389347 -9.4002387908212839 111.17810802767401 0.80901700255871778 0 0.5877852410284794 0.5877852410284794 0 -0.80901700255871778 forward_v I I I I #
coedge $-1 $200 $201 $202 $203 reversed $79 $-1 #
face $-1 $-1 $204 $43 $-1 $205 forward single #
loop $-1 $206 $207 $81 #
cone-surface $-1 63.471895108801291 -10.720442953589341 5.3591671125134663 -0.80901700255871778 0 -0.5877852410284794 0.14694631025711985 0 -0.20225425063967944 1 I I -0.70710678118654746 0.70710678118654746 0.25 forward I I I I #
loop $-1 $-1 $208 $55 #
coedge $-1 $130 $130 $209 $210 reversed $82 $-1 #
face $-1 $-1 $211 $44 $-1 $212 forward single #
loop $-1 $213 $214 $84 #
cone-surface $-1 63.471895108801291 -8.0800346280532267 5.3591671125134663 -0.80901700255871778 0 -0.5877852410284794 0.14694631025711985 0 -0.20225425063967944 1 I I -0.70710678118654746 0.70710678118654746 0.25 forward I I I I #
loop $-1 $-1 $215 $56 #
coedge $-1 $135 $135 $216 $217 reversed $85 $-1 #
face $-1 $218 $219 $45 $-1 $220 reversed single #
loop $-1 $-1 $221 $87 #
plane-surface $-1 -11.689981753389347 9.4002387908212839 111.17810802767401 0.80901700255871778 0 0.5877852410284794 0.5877852410284794 0 -0.80901700255871778 forward_v I I I I #
coedge $-1 $222 $223 $224 $225 reversed $88 $-1 #
face $-1 $-1 $226 $46 $-1 $227 forward single #
loop $-1 $228 $229 $90 #
cone-surface $-1 63.471895108801291 8.0800346280532267 5.3591671125134663 -0.80901700255871778 0 -0.5877852410284794 0.14694631025711985 0 -0.20225425063967944 1 I I -0.70710678118654746 0.70710678118654746 0.25 forward I I I I #
loop $-1 $-1 $230 $58 #
coedge $-1 $144 $144 $231 $232 reversed $91 $-1 #
face $-1 $-1 $233 $47 $-1 $234 forward single #
loop $-1 $235 $236 $93 #
cone-surface $-1 63.471895108801291 10.720442953589341 5.3591671125134663 -0.80901700255871778 0 -0.5877852410284794 0.14694631025711985 0 -0.20225425063967944 1 I I -0.70710678118654746 0.70710678118654746 0.25 forward I I I I #
loop $-1 $-1 $237 $59 #
coedge $-1 $149 $149 $238 $239 reversed $94 $-1 #
face $-1 $240 $241 $36 $-1 $242 reversed single #
loop $-1 $-1 $243 $96 #
plane-surface $-1 0 0 -8.9094244331701677 0 0 1 1 0 0 forward_v I I I I #
coedge $-1 $244 $245 $246 $247 forward $97 $-1 #
coedge $-1 $248 $99 $249 $250 reversed $61 $-1 #
coedge $-1 $99 $248 $251 $252 forward $61 $-1 #
coedge $-1 $253 $243 $99 $157 forward $151 $-1 #
edge $-1 $254 -66.582842493972592 $255 66.582842493972592 $99 $256 forward 7 unknown #
face $-1 $257 $258 $37 $-1 $259 reversed single #
loop $-1 $-1 $260 $100 #
plane-surface $-1 -66.582842493972592 0 0 1 0 0 0 0 -1 forward_v I I I I #
coedge $-1 $261 $262 $163 $263 forward $101 $-1 #
coedge $-1 $264 $103 $265 $266 reversed $64 $-1 #
coedge $-1 $103 $264 $161 $263 reversed $64 $-1 #
coedge $-1 $267 $268 $103 $165 reversed $269 $-1 #
edge $-1 $270 -8.9094244331701677 $271 8.9094244331701677 $164 $272 forward 7 unknown #
face $-1 $273 $274 $38 $-1 $275 reversed single #
loop $-1 $-1 $276 $104 #
plane-surface $-1 -65.082842493972592 37.837231171108243 0 0 -1 0 0 0 -1 forward_v I I I I #
coedge $-1 $277 $278 $170 $279 forward $105 $-1 #
coedge $-1 $280 $107 $169 $279 reversed $67 $-1 #
coedge $-1 $107 $280 $281 $282 reversed $67 $-1 #
coedge $-1 $283 $284 $107 $173 reversed $274 $-1 #
edge $-1 $285 -8.9094244331701677 $286 8.9094244331701677 $172 $287 forward 7 unknown #
face $-1 $288 $289 $39 $-1 $290 reversed single #
loop $-1 $-1 $291 $108 #
plane-surface $-1 -148.56782560453522 -0.44037389532428506 106.08443956381586 0 -1 0 0.61566148304635926 0 -0.78801074757464917 forward_v I I I I #
coedge $-1 $292 $293 $294 $295 reversed $109 $-1 #
coedge $-1 $179 $111 $296 $297 reversed $70 $-1 #
coedge $-1 $111 $178 $292 $298 reversed $70 $-1 #
coedge $-1 $294 $299 $111 $181 forward $300 $-1 #
edge $-1 $301 7.7010703082950158 $302 17.634666201977069 $180 $303 forward 7 unknown #
loop $-1 $-1 $187 $112 #
plane-surface $-1 -66.582842493972578 -4.8367229565709557 1.1484485851749469 -0.61566148304635926 0 0.78801074757464917 0.78801074757464917 0 0.61566148304635926 forward_v I I I I #
loop $-1 $-1 $304 $72 #
coedge $-1 $185 $185 $186 $305 reversed $113 $-1 #
coedge $-1 $186 $186 $185 $305 forward $115 $-1 #
coedge $-1 $187 $187 $116 $188 forward $182 $-1 #
edge $-1 $306 0 $306 6.2831853071796004 $187 $307 forward 7 unknown #
loop $-1 $-1 $194 $117 #
plane-surface $-1 -66.582842493972578 -4.8367229565709557 1.1484485851749469 -0.61566148304635926 0 0.78801074757464917 0.78801074757464917 0 0.61566148304635926 forward_v I I I I #
loop $-1 $-1 $308 $75 #
coedge $-1 $192 $192 $193 $309 reversed $118 $-1 #
coedge $-1 $193 $193 $192 $309 forward $120 $-1 #
coedge $-1 $194 $194 $121 $195 forward $189 $-1 #
edge $-1 $310 0 $310 6.2831853071796004 $194 $311 forward 7 unknown #
face $-1 $312 $313 $42 $-1 $314 forward single #
loop $-1 $-1 $315 $122 #
plane-surface $-1 96.043321559236503 -12.480715170613419 189.45093227503594 0 1 0 0.80901700255871778 0 0.5877852410284794 forward_v I I I I #
coedge $-1 $316 $317 $318 $319 reversed $123 $-1 #
coedge $-1 $201 $125 $320 $321 reversed $79 $-1 #
coedge $-1 $125 $200 $316 $322 reversed $79 $-1 #
coedge $-1 $318 $323 $125 $203 forward $313 $-1 #
edge $-1 $324 -18.56118171435434 $325 -14.590903206008385 $202 $326 forward 7 unknown #
loop $-1 $-1 $209 $126 #
plane-surface $-1 -11.689981753389347 -9.4002387908212839 111.17810802767401 0.80901700255871778 0 0.5877852410284794 0.5877852410284794 0 -0.80901700255871778 forward_v I I I I #
loop $-1 $-1 $327 $81 #
coedge $-1 $207 $207 $208 $328 reversed $127 $-1 #
coedge $-1 $208 $208 $207 $328 forward $129 $-1 #
coedge $-1 $209 $209 $130 $210 forward $204 $-1 #
edge $-1 $329 0 $329 6.2831853071796004 $209 $330 forward 7 unknown #
loop $-1 $-1 $216 $131 #
plane-surface $-1 -11.689981753389347 -9.4002387908212839 111.17810802767401 0.80901700255871778 0 0.5877852410284794 0.5877852410284794 0 -0.80901700255871778 forward_v I I I I #
loop $-1 $-1 $331 $84 #
coedge $-1 $214 $214 $215 $332 reversed $132 $-1 #
coedge $-1 $215 $215 $214 $332 forward $134 $-1 #
coedge $-1 $216 $216 $135 $217 forward $211 $-1 #
edge $-1 $333 0 $333 6.2831853071796004 $216 $334 forward 7 unknown #
face $-1 $335 $336 $45 $-1 $337 reversed single #
loop $-1 $-1 $338 $136 #
plane-surface $-1 96.043321559236503 6.3197624110291493 189.45093227503594 0 1 0 0.80901700255871778 0 0.5877852410284794 forward_v I I I I #
coedge $-1 $339 $340 $341 $342 reversed $137 $-1 #
coedge $-1 $223 $139 $343 $344 reversed $88 $-1 #
coedge $-1 $139 $222 $339 $345 reversed $88 $-1 #
coedge $-1 $341 $346 $139 $225 forward $347 $-1 #
edge $-1 $348 -18.56118171435434 $349 -14.590903206008385 $224 $350 forward 7 unknown #
loop $-1 $-1 $231 $140 #
plane-surface $-1 -11.689981753389347 9.4002387908212839 111.17810802767401 0.80901700255871778 0 0.5877852410284794 0.5877852410284794 0 -0.80901700255871778 forward_v I I I I #
loop $-1 $-1 $351 $90 #
coedge $-1 $229 $229 $230 $352 reversed $141 $-1 #
coedge $-1 $230 $230 $229 $352 forward $143 $-1 #
coedge $-1 $231 $231 $144 $232 forward $226 $-1 #
edge $-1 $353 0 $353 6.2831853071796004 $231 $354 forward 7 unknown #
loop $-1 $-1 $238 $145 #
plane-surface $-1 -11.689981753389347 9.4002387908212839 111.17810802767401 0.80901700255871778 0 0.5877852410284794 0.5877852410284794 0 -0.80901700255871778 forward_v I I I I #
loop $-1 $-1 $355 $93 #
coedge $-1 $236 $236 $237 $356 reversed $146 $-1 #
coedge $-1 $237 $237 $236 $356 forward $148 $-1 #
coedge $-1 $238 $238 $149 $239 forward $233 $-1 #
edge $-1 $357 0 $357 6.2831853071796004 $238 $358 forward 7 unknown #
face $-1 $359 $360 $36 $-1 $361 reversed single #
loop $-1 $-1 $362 $150 #
plane-surface $-1 -66.582842493972592 0 0 1 0 0 0 0 -1 forward_v I I I I #
coedge $-1 $156 $363 $364 $365 forward $151 $-1 #
coedge $-1 $366 $153 $367 $368 forward $97 $-1 #
coedge $-1 $153 $366 $248 $369 forward $97 $-1 #
coedge $-1 $249 $370 $153 $247 reversed $371 $-1 #
edge $-1 $372 -29.074595942762784 $373 29.074595942762784 $246 $374 forward 7 unknown #
coedge $-1 $155 $154 $245 $369 reversed $61 $-1 #
coedge $-1 $364 $246 $154 $250 forward $371 $-1 #
edge $-1 $372 -8.9094244331701677 $254 8.9094244331701677 $249 $375 forward 7 unknown #
coedge $-1 $376 $377 $155 $252 reversed $241 $-1 #
edge $-1 $378 -8.9094244331701677 $255 8.9094244331701677 $251 $379 forward 7 unknown #
coedge $-1 $363 $156 $377 $380 forward $151 $-1 #
vertex $-1 $250 $381 #
vertex $-1 $380 $382 #
straight-curve $-1 0 -29.074595942762784 -8.9094244331701677 -1 0 0 I I #
face $-1 $383 $269 $37 $-1 $384 reversed single #
loop $-1 $-1 $385 $158 #
plane-surface $-1 -65.082842493972592 -37.837231171108243 0 0 1 0 0 0 1 forward_v I I I I #
coedge $-1 $386 $387 $264 $388 forward $159 $-1 #
coedge $-1 $389 $161 $387 $390 forward $101 $-1 #
coedge $-1 $161 $389 $267 $391 forward $101 $-1 #
edge $-1 $270 63.582842493972592 $392 66.582842493972592 $161 $393 forward 7 unknown #
coedge $-1 $163 $162 $260 $388 reversed $64 $-1 #
coedge $-1 $394 $395 $162 $266 forward $396 $-1 #
edge $-1 $397 -66.582842493972592 $271 -63.582842493972592 $265 $398 forward 7 unknown #
coedge $-1 $399 $164 $262 $391 reversed $269 $-1 #
coedge $-1 $164 $399 $394 $400 reversed $269 $-1 #
loop $-1 $-1 $399 $257 #
vertex $-1 $263 $401 #
vertex $-1 $400 $402 #
straight-curve $-1 -63.582842493972592 -29.074595942762784 0 0 0 -1 I I #
face $-1 $403 $404 $38 $-1 $405 reversed single #
loop $-1 $-1 $172 $166 #
plane-surface $-1 -63.582842493972592 33.455913556935513 0 -1 0 0 0 0 1 forward_v I I I I #
coedge $-1 $406 $407 $408 $409 forward $167 $-1 #
coedge $-1 $410 $169 $284 $411 forward $105 $-1 #
coedge $-1 $169 $410 $412 $413 forward $105 $-1 #
edge $-1 $414 -66.582842493972592 $286 -63.582842493972592 $169 $415 forward 7 unknown #
coedge $-1 $171 $170 $416 $417 reversed $67 $-1 #
coedge $-1 $418 $419 $171 $282 forward $404 $-1 #
edge $-1 $285 63.582842493972592 $420 66.582842493972592 $281 $421 forward 7 unknown #
coedge $-1 $408 $172 $419 $422 reversed $274 $-1 #
coedge $-1 $172 $408 $277 $411 reversed $274 $-1 #
vertex $-1 $282 $423 #
vertex $-1 $411 $424 #
straight-curve $-1 -63.582842493972592 29.074595942762784 0 0 0 1 I I #
face $-1 $-1 $300 $39 $-1 $425 forward single #
loop $-1 $-1 $426 $174 #
plane-surface $-1 -66.582842493972592 0 0 1 0 0 0 0 -1 forward_v I I I I #
coedge $-1 $427 $428 $429 $430 reversed $175 $-1 #
coedge $-1 $431 $177 $179 $298 forward $109 $-1 #
coedge $-1 $177 $431 $427 $432 forward $109 $-1 #
coedge $-1 $429 $180 $177 $295 forward $300 $-1 #
edge $-1 $302 -6.8147105395321486 $433 1.9779875829611928 $294 $434 forward 7 unknown #
coedge $-1 $435 $436 $178 $297 forward $289 $-1 #
edge $-1 $437 -51.893771196732999 $301 -44.132795348737766 $296 $438 forward 7 unknown #
edge $-1 $302 -12.605914226748563 $437 1.8033521786330445e-014 $179 $439 forward 7 unknown #
coedge $-1 $180 $429 $435 $440 forward $300 $-1 #
loop $-1 $-1 $429 $288 #
vertex $-1 $297 $441 #
vertex $-1 $181 $442 #
straight-curve $-1 -74.283912802267608 -9.2330720178176264 8.909424433170166 1 0 0 I I #
coedge $-1 $304 $304 $-1 $443 reversed $184 $-1 #
edge $-1 $444 0 $444 6.2831853071796004 $185 $445 forward 7 unknown #
vertex $-1 $188 $446 #
ellipse-curve $-1 -61.616044547131565 -6.7208725542480998 5.0289365091725484 -0.61566148304635926 0 0.78801074757464917 0.78801074757464917 0 0.61566148304635926 1 I I #
coedge $-1 $308 $308 $-1 $447 reversed $191 $-1 #
edge $-1 $448 0 $448 6.2831853071796004 $192 $449 forward 7 unknown #
vertex $-1 $195 $450 #
ellipse-curve $-1 -61.616044547131565 -2.9525733588938117 5.0289365091725484 -0.61566148304635926 0 0.78801074757464917 0.78801074757464917 0 0.61566148304635926 1 I I #
face $-1 $-1 $451 $42 $-1 $452 reversed single #
loop $-1 $-1 $202 $196 #
plane-surface $-1 0 0 8.9094244331701677 0 0 1 1 0 0 forward_v I I I I #
coedge $-1 $453 $454 $455 $456 reversed $197 $-1 #
coedge $-1 $457 $199 $201 $322 forward $123 $-1 #
coedge $-1 $199 $457 $453 $458 forward $123 $-1 #
coedge $-1 $455 $202 $199 $319 forward $313 $-1 #
edge $-1 $325 1.6196430156185073 $459 7.7805957752027766 $318 $460 forward 7 unknown #
coedge $-1 $461 $462 $200 $321 forward $451 $-1 #
edge $-1 $463 -91.280661422469834 $324 -85.816041704347796 $320 $464 forward 7 unknown #
edge $-1 $325 126.41104361348854 $463 133.16568498794521 $201 $465 forward 7 unknown #
coedge $-1 $202 $455 $461 $466 forward $313 $-1 #
vertex $-1 $203 $467 #
vertex $-1 $203 $468 #
straight-curve $-1 48.021660779618252 -6.3197624110291493 8.9094244331701731 -1 0 0 I I #
coedge $-1 $327 $327 $-1 $469 reversed $206 $-1 #
edge $-1 $470 0 $470 6.2831853071796004 $207 $471 forward 7 unknown #
vertex $-1 $210 $472 #
ellipse-curve $-1 64.5977032397996 -10.720442953589341 6.1771145741091624 0.80901700255871778 0 0.5877852410284794 0.2938926205142397 0 -0.40450850127935889 1 I I #
coedge $-1 $331 $331 $-1 $473 reversed $213 $-1 #
edge $-1 $474 0 $474 6.2831853071796004 $214 $475 forward 7 unknown #
vertex $-1 $217 $476 #
ellipse-curve $-1 64.5977032397996 -8.0800346280532267 6.1771145741091624 0.80901700255871778 0 0.5877852410284794 0.2938926205142397 0 -0.40450850127935889 1 I I #
face $-1 $-1 $347 $45 $-1 $477 forward single #
loop $-1 $-1 $478 $218 #
plane-surface $-1 66.582842493972592 0 0 -1 0 0 0 0 1 forward_v I I I I #
coedge $-1 $479 $480 $481 $482 reversed $219 $-1 #
coedge $-1 $483 $221 $223 $345 forward $137 $-1 #
coedge $-1 $221 $483 $479 $484 forward $137 $-1 #
coedge $-1 $481 $224 $221 $342 forward $347 $-1 #
edge $-1 $349 -7.7805957752027766 $485 -1.6196430156185073 $341 $486 forward 7 unknown #
coedge $-1 $487 $488 $222 $344 forward $336 $-1 #
edge $-1 $489 -91.280661422469834 $348 -85.816041704347796 $343 $490 forward 7 unknown #
edge $-1 $349 126.41104361348854 $489 133.16568498794521 $223 $491 forward 7 unknown #
coedge $-1 $224 $481 $487 $492 forward $347 $-1 #
loop $-1 $-1 $481 $335 #
vertex $-1 $344 $493 #
vertex $-1 $225 $494 #
straight-curve $-1 48.021660779618252 12.480715170613419 8.9094244331701731 -1 0 0 I I #
coedge $-1 $351 $351 $-1 $495 reversed $228 $-1 #
edge $-1 $496 0 $496 6.2831853071796004 $229 $497 forward 7 unknown #
vertex $-1 $232 $498 #
ellipse-curve $-1 64.5977032397996 8.0800346280532267 6.1771145741091624 0.80901700255871778 0 0.5877852410284794 0.2938926205142397 0 -0.40450850127935889 1 I I #
coedge $-1 $355 $355 $-1 $499 reversed $235 $-1 #
edge $-1 $500 0 $500 6.2831853071796004 $236 $501 forward 7 unknown #
vertex $-1 $239 $502 #
ellipse-curve $-1 64.5977032397996 10.720442953589341 6.1771145741091624 0.80901700255871778 0 0.5877852410284794 0.2938926205142397 0 -0.40450850127935889 1 I I #
face $-1 $-1 $371 $36 $-1 $503 reversed single #
loop $-1 $-1 $367 $240 #
plane-surface $-1 0 29.074595942762784 0 0 -1 0 0 0 -1 forward_v I I I I #
coedge $-1 $377 $376 $504 $505 forward $241 $-1 #
coedge $-1 $243 $253 $506 $507 forward $151 $-1 #
coedge $-1 $370 $249 $243 $365 reversed $371 $-1 #
edge $-1 $508 -29.074595942762784 $254 29.074595942762784 $364 $509 forward 7 unknown #
coedge $-1 $245 $244 $376 $510 forward $97 $-1 #
coedge $-1 $511 $504 $244 $368 reversed $360 $-1 #
edge $-1 $373 -66.582842493972592 $512 66.582842493972592 $367 $513 forward 7 unknown #
edge $-1 $378 -66.582842493972592 $372 66.582842493972592 $248 $514 forward 7 unknown #
coedge $-1 $246 $364 $511 $515 reversed $371 $-1 #
loop $-1 $-1 $249 $359 #
vertex $-1 $247 $516 #
vertex $-1 $247 $517 #
straight-curve $-1 66.582842493972592 0 8.9094244331701677 0 1 0 I I #
straight-curve $-1 66.582842493972592 -29.074595942762784 0 0 0 -1 I I #
coedge $-1 $362 $251 $366 $510 reversed $241 $-1 #
coedge $-1 $251 $362 $253 $380 reversed $241 $-1 #
vertex $-1 $510 $518 #
straight-curve $-1 -66.582842493972592 -29.074595942762784 0 0 0 -1 I I #
edge $-1 $255 -29.074595942762784 $519 29.074595942762784 $377 $520 forward 7 unknown #
point $-1 66.582842493972592 -29.074595942762784 -8.9094244331701677 #
point $-1 -66.582842493972592 -29.074595942762784 -8.9094244331701677 #
face $-1 $-1 $396 $37 $-1 $521 reversed single #
plane-surface $-1 -63.582842493972592 -33.455913556935513 0 -1 0 0 0 0 1 forward_v I I I I #
coedge $-1 $522 $523 $524 $525 forward $258 $-1 #
coedge $-1 $524 $260 $395 $526 reversed $159 $-1 #
coedge $-1 $260 $524 $261 $390 reversed $159 $-1 #
edge $-1 $392 -8.9094244331701677 $397 8.9094244331701677 $260 $527 forward 7 unknown #
coedge $-1 $262 $261 $523 $528 forward $101 $-1 #
edge $-1 $392 29.074595942762784 $529 37.837231171108243 $387 $530 forward 7 unknown #
edge $-1 $531 -4.3813176141727297 $270 4.3813176141727297 $267 $532 forward 7 unknown #
vertex $-1 $390 $533 #
straight-curve $-1 0 -29.074595942762784 8.9094244331701677 -1 0 0 I I #
coedge $-1 $534 $265 $268 $400 forward $396 $-1 #
coedge $-1 $265 $534 $386 $526 forward $396 $-1 #
loop $-1 $-1 $265 $383 #
vertex $-1 $388 $535 #
straight-curve $-1 0 -29.074595942762784 -8.9094244331701677 1 0 0 I I #
coedge $-1 $268 $267 $536 $537 forward $269 $-1 #
edge $-1 $271 -4.3813176141727297 $538 4.3813176141727297 $268 $539 forward 7 unknown #
point $-1 -63.582842493972592 -29.074595942762784 8.9094244331701677 #
point $-1 -63.582842493972592 -29.074595942762784 -8.9094244331701677 #
face $-1 $-1 $540 $38 $-1 $541 reversed single #
loop $-1 $-1 $281 $273 #
plane-surface $-1 0 0 -8.9094244331701677 0 0 1 1 0 0 forward_v I I I I #
coedge $-1 $542 $276 $543 $544 reversed $167 $-1 #
coedge $-1 $276 $542 $410 $545 reversed $167 $-1 #
coedge $-1 $284 $283 $276 $409 reversed $274 $-1 #
edge $-1 $546 -8.9094244331701677 $547 8.9094244331701677 $408 $548 forward 7 unknown #
coedge $-1 $278 $277 $407 $545 forward $105 $-1 #
edge $-1 $286 -4.3813176141727297 $546 4.3813176141727297 $284 $549 forward 7 unknown #
coedge $-1 $550 $416 $278 $413 reversed $540 $-1 #
edge $-1 $551 -37.837231171108243 $414 -29.074595942762784 $412 $552 forward 7 unknown #
vertex $-1 $417 $553 #
straight-curve $-1 0 29.074595942762784 8.9094244331701677 1 0 0 I I #
coedge $-1 $412 $554 $280 $417 forward $540 $-1 #
edge $-1 $420 -8.9094244331701677 $414 8.9094244331701677 $416 $555 forward 7 unknown #
coedge $-1 $543 $281 $554 $556 forward $404 $-1 #
coedge $-1 $281 $543 $283 $422 forward $404 $-1 #
vertex $-1 $556 $557 #
straight-curve $-1 0 29.074595942762784 -8.9094244331701677 -1 0 0 I I #
edge $-1 $547 -4.3813176141727297 $285 4.3813176141727297 $283 $558 forward 7 unknown #
point $-1 -63.582842493972592 29.074595942762784 -8.9094244331701677 #
point $-1 -63.582842493972592 29.074595942762784 8.9094244331701677 #
plane-surface $-1 0 0 8.9094244331701677 0 0 1 1 0 0 forward_v I I I I #
coedge $-1 $436 $435 $428 $559 forward $289 $-1 #
coedge $-1 $428 $291 $293 $432 reversed $175 $-1 #
coedge $-1 $291 $427 $426 $559 reversed $175 $-1 #
coedge $-1 $299 $294 $291 $430 forward $300 $-1 #
edge $-1 $433 -17.634666201977069 $560 -7.7010703082950158 $429 $561 forward 7 unknown #
coedge $-1 $293 $292 $436 $562 reversed $109 $-1 #
edge $-1 $563 -1.8033521786330445e-014 $433 12.605914226748563 $427 $564 forward 7 unknown #
vertex $-1 $295 $565 #
straight-curve $-1 -56.649246600290532 -2.4183614782854779 8.9094244331701677 0 1 0 I I #
coedge $-1 $426 $296 $299 $440 reversed $289 $-1 #
coedge $-1 $296 $426 $431 $562 forward $289 $-1 #
vertex $-1 $297 $566 #
straight-curve $-1 -66.582842493972592 -9.2330720178176264 53.042219781907932 0 0 1 I I #
straight-curve $-1 -66.582842493972578 -9.2330720178176264 1.1484485851749469 -0.78801074757464917 0 -0.61566148304635926 I I #
edge $-1 $560 0.44037389532428506 $301 9.2330720178176264 $435 $567 forward 7 unknown #
point $-1 -66.582842493972592 -9.2330720178176264 8.9094244331701677 #
point $-1 -56.649246600290539 -9.2330720178176264 8.9094244331701677 #
edge $-1 $568 1 $568 0 $304 $-1 forward 7 unknown #
vertex $-1 $305 $569 #
ellipse-curve $-1 -60.60722175750405 -6.7208725542480998 3.7377022473000032 -0.61566148304635926 0 0.78801074757464917 0.78801074757464917 0 0.61566148304635926 1 I I #
point $-1 -60.828033799556927 -6.7208725542480998 5.6445979922189187 #
edge $-1 $570 1 $570 0 $308 $-1 forward 7 unknown #
vertex $-1 $309 $571 #
ellipse-curve $-1 -60.60722175750405 -2.9525733588938117 3.7377022473000032 -0.61566148304635926 0 0.78801074757464917 0.78801074757464917 0 0.61566148304635926 1 I I #
point $-1 -60.828033799556927 -2.9525733588938117 5.6445979922189187 #
loop $-1 $-1 $320 $312 #
plane-surface $-1 66.582842493972592 0 0 -1 0 0 0 0 1 forward_v I I I I #
coedge $-1 $454 $315 $317 $458 reversed $197 $-1 #
coedge $-1 $315 $453 $572 $573 reversed $197 $-1 #
coedge $-1 $323 $318 $315 $456 forward $313 $-1 #
edge $-1 $459 14.590903206008385 $574 18.56118171435434 $455 $575 forward 7 unknown #
coedge $-1 $317 $316 $462 $576 reversed $123 $-1 #
edge $-1 $577 -133.16568498794521 $459 -126.41104361348854 $453 $578 forward 7 unknown #
vertex $-1 $319 $579 #
straight-curve $-1 62.612563985626629 -4.7001193954106419 8.9094244331701873 0 -1 0 I I #
coedge $-1 $572 $320 $323 $466 reversed $451 $-1 #
coedge $-1 $320 $572 $457 $576 forward $451 $-1 #
vertex $-1 $321 $580 #
straight-curve $-1 66.582842493972592 -6.3197624110291493 94.725466137517969 0 0 1 I I #
straight-curve $-1 -11.689981753389347 -6.3197624110291493 111.17810802767401 0.5877852410284794 0 -0.80901700255871778 I I #
edge $-1 $574 -12.480715170613419 $324 -6.3197624110291493 $461 $581 forward 7 unknown #
point $-1 66.582842493972592 -6.3197624110291493 8.9094244331701677 #
point $-1 62.612563985626636 -6.3197624110291493 8.9094244331701731 #
edge $-1 $582 1 $582 0 $327 $-1 forward 7 unknown #
vertex $-1 $328 $583 #
ellipse-curve $-1 63.674149359440968 -10.720442953589341 5.5061134227705866 0.80901700255871778 0 0.5877852410284794 0.2938926205142397 0 -0.40450850127935889 1 I I #
point $-1 64.891595860313842 -10.720442953589341 5.7726060728298085 #
edge $-1 $584 1 $584 0 $331 $-1 forward 7 unknown #
vertex $-1 $332 $585 #
ellipse-curve $-1 63.674149359440968 -8.0800346280532267 5.5061134227705866 0.80901700255871778 0 0.5877852410284794 0.2938926205142397 0 -0.40450850127935889 1 I I #
point $-1 64.891595860313842 -8.0800346280532267 5.7726060728298085 #
plane-surface $-1 0 0 8.9094244331701677 0 0 1 1 0 0 forward_v I I I I #
coedge $-1 $488 $487 $480 $586 forward $336 $-1 #
coedge $-1 $480 $338 $340 $484 reversed $219 $-1 #
coedge $-1 $338 $479 $478 $586 reversed $219 $-1 #
coedge $-1 $346 $341 $338 $482 forward $347 $-1 #
edge $-1 $485 14.590903206008385 $587 18.56118171435434 $481 $588 forward 7 unknown #
coedge $-1 $340 $339 $488 $589 reversed $137 $-1 #
edge $-1 $590 -133.16568498794521 $485 -126.41104361348854 $479 $591 forward 7 unknown #
vertex $-1 $342 $592 #
straight-curve $-1 62.612563985626629 4.7001193954106419 8.9094244331701873 0 -1 0 I I #
coedge $-1 $478 $343 $346 $492 reversed $336 $-1 #
coedge $-1 $343 $478 $483 $589 forward $336 $-1 #
vertex $-1 $344 $593 #
straight-curve $-1 66.582842493972592 12.480715170613419 94.725466137517969 0 0 1 I I #
straight-curve $-1 -11.689981753389347 12.480715170613419 111.17810802767401 0.5877852410284794 0 -0.80901700255871778 I I #
edge $-1 $587 6.3197624110291493 $348 12.480715170613419 $487 $594 forward 7 unknown #
point $-1 66.582842493972592 12.480715170613419 8.9094244331701677 #
point $-1 62.612563985626636 12.480715170613419 8.9094244331701731 #
edge $-1 $595 1 $595 0 $351 $-1 forward 7 unknown #
vertex $-1 $352 $596 #
ellipse-curve $-1 63.674149359440968 8.0800346280532267 5.5061134227705866 0.80901700255871778 0 0.5877852410284794 0.2938926205142397 0 -0.40450850127935889 1 I I #
point $-1 64.891595860313842 8.0800346280532267 5.7726060728298085 #
edge $-1 $597 1 $597 0 $355 $-1 forward 7 unknown #
vertex $-1 $356 $598 #
ellipse-curve $-1 63.674149359440968 10.720442953589341 5.5061134227705866 0.80901700255871778 0 0.5877852410284794 0.2938926205142397 0 -0.40450850127935889 1 I I #
point $-1 64.891595860313842 10.720442953589341 5.7726060728298085 #
plane-surface $-1 66.582842493972592 0 0 -1 0 0 0 0 1 forward_v I I I I #
coedge $-1 $367 $506 $362 $505 reversed $360 $-1 #
edge $-1 $512 -8.9094244331701677 $519 8.9094244331701677 $504 $599 forward 7 unknown #
coedge $-1 $504 $511 $363 $507 reversed $360 $-1 #
edge $-1 $519 -66.582842493972592 $508 66.582842493972592 $506 $600 forward 7 unknown #
vertex $-1 $365 $601 #
straight-curve $-1 66.582842493972592 0 -8.9094244331701677 0 -1 0 I I #
edge $-1 $512 -29.074595942762784 $378 29.074595942762784 $376 $602 forward 7 unknown #
coedge $-1 $506 $367 $370 $515 forward $360 $-1 #
vertex $-1 $368 $603 #
straight-curve $-1 0 29.074595942762784 8.9094244331701677 -1 0 0 I I #
straight-curve $-1 0 -29.074595942762784 8.9094244331701677 1 0 0 I I #
edge $-1 $373 -8.9094244331701677 $508 8.9094244331701677 $370 $604 forward 7 unknown #
point $-1 66.582842493972592 -29.074595942762784 8.9094244331701677 #
point $-1 66.582842493972592 29.074595942762784 8.9094244331701677 #
point $-1 -66.582842493972592 -29.074595942762784 8.9094244331701677 #
vertex $-1 $507 $605 #
straight-curve $-1 -66.582842493972592 0 -8.9094244331701677 0 1 0 I I #
plane-surface $-1 0 0 -8.9094244331701677 0 0 1 1 0 0 forward_v I I I I #
coedge $-1 $536 $385 $534 $606 reversed $258 $-1 #
coedge $-1 $385 $536 $389 $528 reversed $258 $-1 #
coedge $-1 $387 $386 $385 $525 reversed $159 $-1 #
edge $-1 $529 -8.9094244331701677 $607 8.9094244331701677 $524 $608 forward 7 unknown #
edge $-1 $607 -37.837231171108243 $397 -29.074595942762784 $386 $609 forward 7 unknown #
straight-curve $-1 -66.582842493972592 -29.074595942762784 0 0 0 -1 I I #
edge $-1 $529 -1.5 $531 1.5 $523 $610 forward 7 unknown #
vertex $-1 $390 $611 #
straight-curve $-1 -66.582842493972592 0 8.9094244331701677 0 -1 0 I I #
vertex $-1 $391 $612 #
straight-curve $-1 -63.582842493972592 -33.455913556935513 8.9094244331701677 0 1 0 I I #
point $-1 -66.582842493972592 -29.074595942762784 8.9094244331701677 #
coedge $-1 $395 $394 $522 $606 forward $396 $-1 #
point $-1 -66.582842493972592 -29.074595942762784 -8.9094244331701677 #
coedge $-1 $523 $522 $399 $537 reversed $258 $-1 #
edge $-1 $531 -8.9094244331701677 $538 8.9094244331701677 $399 $613 forward 7 unknown #
vertex $-1 $537 $614 #
straight-curve $-1 -63.582842493972592 -33.455913556935513 -8.9094244331701677 0 -1 0 I I #
loop $-1 $-1 $416 $403 #
plane-surface $-1 -66.582842493972592 0 0 1 0 0 0 0 -1 forward_v I I I I #
coedge $-1 $407 $406 $550 $615 reversed $167 $-1 #
coedge $-1 $419 $418 $406 $544 forward $404 $-1 #
edge $-1 $616 -1.5 $547 1.5 $406 $617 forward 7 unknown #
edge $-1 $546 -1.5 $551 1.5 $407 $618 forward 7 unknown #
vertex $-1 $411 $619 #
vertex $-1 $422 $620 #
straight-curve $-1 -63.582842493972592 37.837231171108243 0 0 0 -1 I I #
straight-curve $-1 -63.582842493972592 33.455913556935513 8.9094244331701677 0 1 0 I I #
coedge $-1 $554 $412 $542 $615 forward $540 $-1 #
vertex $-1 $545 $621 #
straight-curve $-1 -66.582842493972592 0 8.9094244331701677 0 -1 0 I I #
point $-1 -66.582842493972592 29.074595942762784 8.9094244331701677 #
coedge $-1 $416 $550 $418 $556 reversed $540 $-1 #
straight-curve $-1 -66.582842493972592 29.074595942762784 0 0 0 1 I I #
edge $-1 $420 -4.3813176141727297 $616 4.3813176141727297 $554 $622 forward 7 unknown #
point $-1 -66.582842493972592 29.074595942762784 -8.9094244331701677 #
straight-curve $-1 -63.582842493972592 33.455913556935513 -8.9094244331701677 0 -1 0 I I #
edge $-1 $560 44.132795348737766 $563 51.893771196732999 $426 $623 forward 7 unknown #
vertex $-1 $440 $624 #
straight-curve $-1 -74.283912802267608 -0.44037389532428506 8.909424433170166 -1 0 0 I I #
edge $-1 $563 -1.9779875829611928 $437 6.8147105395321486 $436 $625 forward 7 unknown #
vertex $-1 $562 $626 #
straight-curve $-1 -66.582842493972578 -0.44037389532428506 1.1484485851749469 0.78801074757464917 0 0.61566148304635926 I I #
point $-1 -56.649246600290539 -0.44037389532428506 8.9094244331701677 #
point $-1 -66.582842493972592 -9.2330720178176264 1.1484485851749358 #
straight-curve $-1 -66.582842493972592 0 8.9094244331701677 0 -1 0 I I #
vertex $-1 $443 $627 #
point $-1 -59.819211009929404 -6.7208725542480998 4.3533637303463628 #
vertex $-1 $447 $628 #
point $-1 -59.819211009929404 -2.9525733588938117 4.3533637303463628 #
coedge $-1 $462 $461 $454 $573 forward $451 $-1 #
edge $-1 $574 85.816041704347796 $577 91.280661422469834 $572 $629 forward 7 unknown #
vertex $-1 $466 $630 #
straight-curve $-1 48.021660779618252 -12.480715170613419 8.9094244331701731 1 0 0 I I #
edge $-1 $577 -7.7805957752027766 $463 -1.6196430156185073 $462 $631 forward 7 unknown #
vertex $-1 $576 $632 #
straight-curve $-1 -11.689981753389347 -12.480715170613419 111.17810802767401 -0.5877852410284794 0 0.80901700255871778 I I #
point $-1 62.612563985626636 -12.480715170613419 8.9094244331701731 #
point $-1 66.582842493972592 -6.3197624110291493 3.4448047150481358 #
straight-curve $-1 66.582842493972592 0 8.9094244331701677 0 1 0 I I #
vertex $-1 $469 $633 #
point $-1 63.96804197995521 -10.720442953589341 5.1016049214912274 #
vertex $-1 $473 $634 #
point $-1 63.96804197995521 -8.0800346280532267 5.1016049214912274 #
edge $-1 $587 85.816041704347796 $590 91.280661422469834 $478 $635 forward 7 unknown #
vertex $-1 $492 $636 #
straight-curve $-1 48.021660779618252 6.3197624110291493 8.9094244331701731 1 0 0 I I #
edge $-1 $590 1.6196430156185073 $489 7.7805957752027766 $488 $637 forward 7 unknown #
vertex $-1 $589 $638 #
straight-curve $-1 -11.689981753389347 6.3197624110291493 111.17810802767401 -0.5877852410284794 0 0.80901700255871778 I I #
point $-1 62.612563985626636 6.3197624110291493 8.9094244331701731 #
point $-1 66.582842493972592 12.480715170613419 3.4448047150481358 #
straight-curve $-1 66.582842493972592 0 8.9094244331701677 0 1 0 I I #
vertex $-1 $495 $639 #
point $-1 63.96804197995521 8.0800346280532267 5.1016049214912274 #
vertex $-1 $499 $640 #
point $-1 63.96804197995521 10.720442953589341 5.1016049214912274 #
straight-curve $-1 -66.582842493972592 29.074595942762784 0 0 0 -1 I I #
straight-curve $-1 0 29.074595942762784 -8.9094244331701677 1 0 0 I I #
point $-1 66.582842493972592 29.074595942762784 -8.9094244331701677 #
straight-curve $-1 -66.582842493972592 0 8.9094244331701677 0 -1 0 I I #
point $-1 -66.582842493972592 29.074595942762784 8.9094244331701677 #
straight-curve $-1 66.582842493972592 29.074595942762784 0 0 0 -1 I I #
point $-1 -66.582842493972592 29.074595942762784 -8.9094244331701677 #
edge $-1 $538 -1.5 $607 1.5 $522 $641 forward 7 unknown #
vertex $-1 $526 $642 #
straight-curve $-1 -66.582842493972592 -37.837231171108243 0 0 0 -1 I I #
straight-curve $-1 -66.582842493972592 0 -8.9094244331701677 0 1 0 I I #
straight-curve $-1 -65.082842493972592 -37.837231171108243 8.9094244331701677 1 0 0 I I #
point $-1 -66.582842493972592 -37.837231171108243 8.9094244331701677 #
point $-1 -63.582842493972592 -37.837231171108243 8.9094244331701677 #
straight-curve $-1 -63.582842493972592 -37.837231171108243 0 0 0 -1 I I #
point $-1 -63.582842493972592 -37.837231171108243 -8.9094244331701677 #
edge $-1 $551 -8.9094244331701677 $616 8.9094244331701677 $542 $643 forward 7 unknown #
vertex $-1 $544 $644 #
straight-curve $-1 -65.082842493972592 37.837231171108243 -8.9094244331701677 1 0 0 I I #
straight-curve $-1 -65.082842493972592 37.837231171108243 8.9094244331701677 -1 0 0 I I #
point $-1 -63.582842493972592 37.837231171108243 8.9094244331701677 #
point $-1 -63.582842493972592 37.837231171108243 -8.9094244331701677 #
point $-1 -66.582842493972592 37.837231171108243 8.9094244331701677 #
straight-curve $-1 -66.582842493972592 33.455913556935513 -8.9094244331701677 0 1 0 I I #
straight-curve $-1 -66.582842493972592 -0.44037389532428506 53.042219781907932 0 0 -1 I I #
point $-1 -66.582842493972592 -0.44037389532428506 8.9094244331701677 #
straight-curve $-1 -66.582842493972592 -2.4183614782854779 1.1484485851749282 0 -1 0 I I #
point $-1 -66.582842493972592 -0.44037389532428506 1.1484485851749358 #
point $-1 -59.991560274457697 -6.7208725542480998 2.949691499725354 #
point $-1 -59.991560274457697 -2.9525733588938117 2.949691499725354 #
straight-curve $-1 66.582842493972592 -12.480715170613419 94.725466137517969 0 0 -1 I I #
point $-1 66.582842493972592 -12.480715170613419 8.9094244331701677 #
straight-curve $-1 66.582842493972592 -4.7001193954106419 3.4448047150481358 0 1 0 I I #
point $-1 66.582842493972592 -12.480715170613419 3.4448047150481358 #
point $-1 63.269640858161615 -10.720442953589341 5.2122208022563461 #
point $-1 63.269640858161615 -8.0800346280532267 5.2122208022563461 #
straight-curve $-1 66.582842493972592 6.3197624110291493 94.725466137517969 0 0 -1 I I #
point $-1 66.582842493972592 6.3197624110291493 8.9094244331701677 #
straight-curve $-1 66.582842493972592 4.7001193954106419 3.4448047150481358 0 1 0 I I #
point $-1 66.582842493972592 6.3197624110291493 3.4448047150481358 #
point $-1 63.269640858161615 8.0800346280532267 5.2122208022563461 #
point $-1 63.269640858161615 10.720442953589341 5.2122208022563461 #
straight-curve $-1 -65.082842493972592 -37.837231171108243 -8.9094244331701677 -1 0 0 I I #
point $-1 -66.582842493972592 -37.837231171108243 -8.9094244331701677 #
straight-curve $-1 -66.582842493972592 37.837231171108243 0 0 0 -1 I I #
point $-1 -66.582842493972592 37.837231171108243 -8.9094244331701677 #
End-of-ACIS-data 