500 0 6 0           
7 Unknown 11 ACIS 5.0 NT 24 Fri Mar 26 14:36:55 1999 
-1 9.9999999999999995e-007 1e-010 
body $-1 $6 $-1 $7 #
body $-1 $8 $-1 $9 #
body $-1 $10 $-1 $11 #
body $-1 $12 $-1 $13 #
body $-1 $14 $-1 $15 #
body $-1 $16 $-1 $17 #
lump $-1 $-1 $18 $0 #
transform $-1 1 0 0 0 1 0 0 0 1 45.704519791253396 22.684740353803232 9.0301424994313741 1 rotate no_reflect no_shear #
lump $-1 $-1 $19 $1 #
transform $-1 1 0 0 0 1 0 0 0 1 45.704519791253396 22.684740353803232 9.0301424994313741 1 rotate no_reflect no_shear #
lump $-1 $-1 $20 $2 #
transform $-1 1 0 0 0 1 0 0 0 1 45.704519791253396 22.684740353803232 9.0301424994313741 1 rotate no_reflect no_shear #
lump $-1 $-1 $21 $3 #
transform $-1 1 0 0 0 1 0 0 0 1 45.704519791253396 22.684740353803232 9.0301424994313741 1 rotate no_reflect no_shear #
lump $-1 $-1 $22 $4 #
transform $-1 1 0 0 0 1 0 0 0 1 45.704519791253396 22.684740353803232 9.0301424994313741 1 rotate no_reflect no_shear #
lump $-1 $-1 $23 $5 #
transform $-1 1 0 0 0 1 0 0 0 1 45.704519791253396 22.684740353803232 9.0301424994313741 1 rotate no_reflect no_shear #
shell $-1 $-1 $-1 $24 $-1 $6 #
shell $-1 $-1 $-1 $25 $-1 $8 #
shell $-1 $-1 $-1 $26 $-1 $10 #
shell $-1 $-1 $-1 $27 $-1 $12 #
shell $-1 $-1 $-1 $28 $-1 $14 #
shell $-1 $-1 $-1 $29 $-1 $16 #
face $-1 $30 $31 $18 $-1 $32 forward single #
face $-1 $33 $34 $19 $-1 $35 reversed single #
face $-1 $36 $37 $20 $-1 $38 reversed single #
face $-1 $39 $40 $21 $-1 $41 reversed single #
face $-1 $42 $43 $22 $-1 $44 forward single #
face $-1 $45 $46 $23 $-1 $47 forward single #
face $-1 $48 $49 $18 $-1 $50 reversed single #
loop $-1 $-1 $51 $24 #
plane-surface $-1 0 0 9.0301424994313741 0 0 1 1 0 0 forward_v I I I I #
face $-1 $52 $53 $19 $-1 $54 reversed single #
loop $-1 $-1 $55 $25 #
plane-surface $-1 -42.332060441263572 -14.895603421043841 0 0 1 0 0 0 1 forward_v I I I I #
face $-1 $56 $57 $20 $-1 $58 reversed single #
loop $-1 $-1 $59 $26 #
plane-surface $-1 42.332060441263572 -14.895603421043841 0 0 1 0 0 0 1 forward_v I I I I #
face $-1 $60 $61 $21 $-1 $62 reversed single #
loop $-1 $-1 $63 $27 #
plane-surface $-1 -18.958191091041041 -76.413626433040207 77.834887302270275 -1 0 0 0 -0.5877852598018023 0.80901698891910034 forward_v I I I I #
face $-1 $64 $65 $22 $-1 $66 forward single #
loop $-1 $67 $68 $28 #
cone-surface $-1 -33.244912519778694 -17.118759916043079 3.6709112895057996 0 0.5877852598018023 -0.80901698891910034 2 0 0 1 I I 0 1 2 forward I I I I #
face $-1 $69 $70 $23 $-1 $71 forward single #
loop $-1 $72 $73 $29 #
cone-surface $-1 -24.672879662536101 -17.118759916043079 3.6709112895057996 0 0.5877852598018023 -0.80901698891910034 2 0 0 1 I I 0 1 2 forward I I I I #
face $-1 $74 $75 $18 $-1 $76 reversed single #
loop $-1 $-1 $77 $30 #
plane-surface $-1 0 0 -9.0301424994313741 0 0 1 1 0 0 forward_v I I I I #
coedge $-1 $78 $79 $80 $81 forward $31 $-1 #
face $-1 $82 $83 $19 $-1 $84 reversed single #
loop $-1 $-1 $85 $33 #
plane-surface $-1 -42.332060441263572 -11.895603421043841 0 0 -1 0 0 0 -1 forward_v I I I I #
coedge $-1 $86 $87 $88 $89 reversed $34 $-1 #
face $-1 $90 $91 $20 $-1 $92 reversed single #
loop $-1 $-1 $93 $36 #
plane-surface $-1 38.959601091273747 -13.395603421043841 0 1 0 0 0 0 -1 forward_v I I I I #
coedge $-1 $94 $95 $96 $97 forward $37 $-1 #
face $-1 $98 $99 $21 $-1 $100 reversed single #
loop $-1 $-1 $101 $39 #
plane-surface $-1 -28.958896091157396 -22.684740353803221 3.8834213392437675 0 -0.5877852598018023 0.80901698891910034 1 0 0 forward_v I I I I #
coedge $-1 $102 $103 $104 $105 reversed $40 $-1 #
face $-1 $-1 $106 $22 $-1 $107 forward single #
loop $-1 $108 $109 $42 #
cone-surface $-1 -33.244912519778694 -14.506921126639039 0.076023670754924666 0 0.5877852598018023 -0.80901698891910034 1 0 0 1 I I -0.70710678118654768 0.70710678118654735 1 forward I I I I #
loop $-1 $-1 $110 $28 #
coedge $-1 $68 $68 $111 $112 reversed $43 $-1 #
face $-1 $-1 $113 $23 $-1 $114 forward single #
loop $-1 $115 $116 $45 #
cone-surface $-1 -24.672879662536101 -14.506921126639039 0.076023670754924666 0 0.5877852598018023 -0.80901698891910034 1 0 0 1 I I -0.70710678118654768 0.70710678118654735 1 forward I I I I #
loop $-1 $-1 $117 $29 #
coedge $-1 $73 $73 $118 $119 reversed $46 $-1 #
face $-1 $120 $121 $18 $-1 $122 reversed single #
loop $-1 $-1 $123 $48 #
plane-surface $-1 0 -22.684740353803232 0 0 1 0 0 0 1 forward_v I I I I #
coedge $-1 $124 $125 $126 $127 forward $49 $-1 #
coedge $-1 $128 $51 $129 $130 forward $31 $-1 #
coedge $-1 $51 $128 $131 $132 forward $31 $-1 #
coedge $-1 $133 $134 $51 $81 reversed $135 $-1 #
edge $-1 $136 -22.684740353803232 $137 22.684740353803232 $80 $138 forward 7 unknown #
face $-1 $139 $140 $19 $-1 $141 reversed single #
loop $-1 $-1 $142 $52 #
plane-surface $-1 -38.959601091273747 -13.395603421043841 0 -1 0 0 0 0 1 forward_v I I I I #
coedge $-1 $143 $144 $145 $146 forward $53 $-1 #
coedge $-1 $147 $55 $148 $149 reversed $34 $-1 #
coedge $-1 $55 $147 $150 $151 reversed $34 $-1 #
coedge $-1 $152 $153 $55 $89 forward $154 $-1 #
edge $-1 $155 -9.0301424994313741 $156 9.0301424994313741 $88 $157 forward 7 unknown #
face $-1 $158 $159 $20 $-1 $160 reversed single #
loop $-1 $-1 $161 $56 #
plane-surface $-1 42.332060441263572 -11.895603421043841 0 0 -1 0 0 0 -1 forward_v I I I I #
coedge $-1 $162 $163 $164 $165 forward $57 $-1 #
coedge $-1 $166 $59 $167 $168 reversed $37 $-1 #
coedge $-1 $59 $166 $169 $170 reversed $37 $-1 #
coedge $-1 $163 $162 $59 $97 reversed $57 $-1 #
edge $-1 $171 -9.0301424994313741 $172 9.0301424994313741 $96 $173 forward 7 unknown #
face $-1 $174 $175 $21 $-1 $176 forward single #
loop $-1 $-1 $177 $60 #
plane-surface $-1 -38.959601091273754 -76.413626433040207 77.834887302270275 1 0 0 0 0.5877852598018023 -0.80901698891910034 forward_v I I I I #
coedge $-1 $178 $179 $180 $181 reversed $61 $-1 #
coedge $-1 $103 $63 $182 $183 reversed $40 $-1 #
coedge $-1 $63 $102 $178 $184 reversed $40 $-1 #
coedge $-1 $180 $185 $63 $105 forward $175 $-1 #
edge $-1 $186 15.522072862716872 $187 22.605926679032727 $104 $188 forward 7 unknown #
loop $-1 $-1 $111 $64 #
plane-surface $-1 -28.958896091157396 -22.684740353803221 3.8834213392437675 0 -0.5877852598018023 0.80901698891910034 1 0 0 forward_v I I I I #
loop $-1 $-1 $189 $42 #
coedge $-1 $109 $109 $110 $190 reversed $65 $-1 #
coedge $-1 $110 $110 $109 $190 forward $67 $-1 #
coedge $-1 $111 $111 $68 $112 forward $106 $-1 #
edge $-1 $191 -1.1789594853295674e-015 $191 6.2831853071795996 $111 $192 forward 7 unknown #
loop $-1 $-1 $118 $69 #
plane-surface $-1 -28.958896091157396 -22.684740353803221 3.8834213392437675 0 -0.5877852598018023 0.80901698891910034 1 0 0 forward_v I I I I #
loop $-1 $-1 $193 $45 #
coedge $-1 $116 $116 $117 $194 reversed $70 $-1 #
coedge $-1 $117 $117 $116 $194 forward $72 $-1 #
coedge $-1 $118 $118 $73 $119 forward $113 $-1 #
edge $-1 $195 -1.1789594853295674e-015 $195 6.2831853071795996 $118 $196 forward 7 unknown #
face $-1 $197 $198 $18 $-1 $199 reversed single #
loop $-1 $-1 $200 $74 #
plane-surface $-1 -45.704519791253396 0 0 1 0 0 0 0 -1 forward_v I I I I #
coedge $-1 $201 $131 $202 $203 forward $75 $-1 #
coedge $-1 $204 $77 $201 $205 forward $49 $-1 #
coedge $-1 $77 $204 $206 $207 forward $49 $-1 #
coedge $-1 $134 $133 $77 $127 reversed $135 $-1 #
edge $-1 $208 -22.684740353803232 $209 22.684740353803232 $126 $210 forward 7 unknown #
coedge $-1 $79 $78 $211 $212 forward $31 $-1 #
coedge $-1 $213 $214 $78 $130 reversed $198 $-1 #
edge $-1 $137 -45.704519791253396 $215 45.704519791253396 $129 $216 forward 7 unknown #
coedge $-1 $123 $217 $79 $132 reversed $75 $-1 #
edge $-1 $218 -45.704519791253396 $136 45.704519791253396 $131 $219 forward 7 unknown #
coedge $-1 $126 $80 $217 $220 forward $135 $-1 #
coedge $-1 $80 $126 $213 $221 reversed $135 $-1 #
loop $-1 $-1 $133 $197 #
vertex $-1 $81 $222 #
vertex $-1 $81 $223 #
straight-curve $-1 45.704519791253396 0 9.0301424994313741 0 1 0 I I #
face $-1 $224 $225 $19 $-1 $226 forward single #
loop $-1 $-1 $227 $82 #
plane-surface $-1 0 0 -9.0301424994313741 0 0 1 1 0 0 forward_v I I I I #
coedge $-1 $228 $229 $147 $230 forward $83 $-1 #
coedge $-1 $231 $85 $227 $232 reversed $53 $-1 #
coedge $-1 $85 $231 $233 $234 reversed $53 $-1 #
coedge $-1 $229 $228 $85 $146 reversed $83 $-1 #
edge $-1 $235 -9.0301424994313741 $236 9.0301424994313741 $145 $237 forward 7 unknown #
coedge $-1 $87 $86 $142 $230 reversed $34 $-1 #
coedge $-1 $238 $239 $86 $149 forward $140 $-1 #
edge $-1 $240 17.793570870641961 $155 24.538489570621611 $148 $241 forward 7 unknown #
coedge $-1 $242 $243 $87 $151 forward $225 $-1 #
edge $-1 $156 -24.538489570621611 $244 -17.793570870641961 $150 $245 forward 7 unknown #
coedge $-1 $246 $88 $243 $247 reversed $154 $-1 #
coedge $-1 $88 $246 $238 $248 reversed $154 $-1 #
loop $-1 $-1 $246 $224 #
vertex $-1 $248 $249 #
vertex $-1 $89 $250 #
straight-curve $-1 -45.704519791253396 -14.895603421043841 0 0 0 1 I I #
face $-1 $251 $252 $20 $-1 $253 forward single #
loop $-1 $-1 $167 $90 #
plane-surface $-1 0 0 -9.0301424994313741 0 0 1 1 0 0 forward_v I I I I #
coedge $-1 $254 $255 $256 $257 reversed $91 $-1 #
coedge $-1 $96 $93 $258 $259 reversed $57 $-1 #
coedge $-1 $93 $96 $260 $261 reversed $57 $-1 #
coedge $-1 $255 $254 $93 $165 reversed $91 $-1 #
edge $-1 $262 -9.0301424994313741 $263 9.0301424994313741 $164 $264 forward 7 unknown #
coedge $-1 $95 $94 $265 $266 reversed $37 $-1 #
coedge $-1 $258 $267 $94 $168 forward $159 $-1 #
edge $-1 $268 -24.538489570621611 $172 -17.793570870641961 $167 $269 forward 7 unknown #
coedge $-1 $270 $260 $95 $170 forward $252 $-1 #
edge $-1 $171 17.793570870641961 $271 24.538489570621611 $169 $272 forward 7 unknown #
vertex $-1 $170 $273 #
vertex $-1 $168 $274 #
straight-curve $-1 38.959601091273747 -14.895603421043841 0 0 0 -1 I I #
face $-1 $-1 $275 $21 $-1 $276 reversed single #
loop $-1 $-1 $104 $98 #
plane-surface $-1 0 0 9.0301424994313741 0 0 1 1 0 0 forward_v I I I I #
coedge $-1 $277 $278 $279 $280 reversed $99 $-1 #
coedge $-1 $281 $101 $103 $184 forward $61 $-1 #
coedge $-1 $101 $281 $277 $282 forward $61 $-1 #
coedge $-1 $279 $104 $101 $181 forward $175 $-1 #
edge $-1 $187 4.4787430454623429 $283 24.480153045695054 $180 $284 forward 7 unknown #
coedge $-1 $285 $286 $102 $183 forward $275 $-1 #
edge $-1 $287 -35.034022311891377 $186 -29.887301151703763 $182 $288 forward 7 unknown #
edge $-1 $187 -8.7561249186872274 $287 1.3060111725721878e-014 $103 $289 forward 7 unknown #
coedge $-1 $104 $279 $285 $290 forward $175 $-1 #
vertex $-1 $105 $291 #
vertex $-1 $105 $292 #
straight-curve $-1 -18.958191091041041 -38.206813216520104 9.0301424994313706 0 1 0 I I #
coedge $-1 $189 $189 $-1 $293 reversed $108 $-1 #
edge $-1 $294 0 $294 6.2831853071796004 $109 $295 forward 7 unknown #
vertex $-1 $112 $296 #
ellipse-curve $-1 -33.244912519778694 -19.142813445645309 6.4567819193375637 0 -0.5877852598018023 0.80901698891910034 2 0 0 1 I I #
coedge $-1 $193 $193 $-1 $297 reversed $115 $-1 #
edge $-1 $298 0 $298 6.2831853071796004 $116 $299 forward 7 unknown #
vertex $-1 $119 $300 #
ellipse-curve $-1 -24.672879662536101 -19.142813445645309 6.4567819193375637 0 -0.5877852598018023 0.80901698891910034 2 0 0 1 I I #
face $-1 $-1 $135 $18 $-1 $301 reversed single #
loop $-1 $-1 $213 $120 #
plane-surface $-1 0 22.684740353803232 0 0 -1 0 0 0 -1 forward_v I I I I #
coedge $-1 $302 $211 $214 $303 forward $121 $-1 #
coedge $-1 $217 $123 $124 $205 reversed $75 $-1 #
coedge $-1 $211 $302 $123 $203 reversed $121 $-1 #
edge $-1 $218 -9.0301424994313741 $304 9.0301424994313741 $202 $305 forward 7 unknown #
coedge $-1 $125 $124 $302 $306 forward $49 $-1 #
edge $-1 $209 -45.704519791253396 $304 45.704519791253396 $201 $307 forward 7 unknown #
coedge $-1 $214 $213 $125 $207 reversed $198 $-1 #
edge $-1 $308 -45.704519791253396 $208 45.704519791253396 $206 $309 forward 7 unknown #
vertex $-1 $127 $310 #
vertex $-1 $220 $311 #
straight-curve $-1 45.704519791253396 0 -9.0301424994313741 0 -1 0 I I #
coedge $-1 $200 $202 $128 $212 reversed $121 $-1 #
edge $-1 $215 -22.684740353803232 $218 22.684740353803232 $211 $312 forward 7 unknown #
coedge $-1 $206 $129 $134 $221 forward $198 $-1 #
coedge $-1 $129 $206 $200 $303 reversed $198 $-1 #
vertex $-1 $130 $313 #
straight-curve $-1 0 22.684740353803232 9.0301424994313741 -1 0 0 I I #
coedge $-1 $131 $201 $133 $220 reversed $75 $-1 #
vertex $-1 $212 $314 #
straight-curve $-1 0 -22.684740353803232 9.0301424994313741 1 0 0 I I #
edge $-1 $136 -9.0301424994313741 $209 9.0301424994313741 $133 $315 forward 7 unknown #
edge $-1 $137 -9.0301424994313741 $208 9.0301424994313741 $134 $316 forward 7 unknown #
point $-1 45.704519791253396 -22.684740353803232 9.0301424994313741 #
point $-1 45.704519791253396 22.684740353803232 9.0301424994313741 #
face $-1 $-1 $154 $19 $-1 $317 reversed single #
loop $-1 $-1 $233 $139 #
plane-surface $-1 0 0 9.0301424994313741 0 0 1 1 0 0 forward_v I I I I #
coedge $-1 $239 $238 $143 $232 forward $140 $-1 #
coedge $-1 $145 $142 $239 $318 reversed $83 $-1 #
coedge $-1 $142 $145 $242 $319 reversed $83 $-1 #
edge $-1 $244 -9.0301424994313741 $240 9.0301424994313741 $142 $320 forward 7 unknown #
coedge $-1 $144 $143 $246 $321 reversed $53 $-1 #
edge $-1 $322 -24.538489570621611 $236 -17.793570870641961 $227 $323 forward 7 unknown #
coedge $-1 $243 $242 $144 $234 forward $225 $-1 #
edge $-1 $235 17.793570870641961 $324 24.538489570621611 $233 $325 forward 7 unknown #
vertex $-1 $234 $326 #
vertex $-1 $232 $327 #
straight-curve $-1 -38.959601091273747 -11.895603421043841 0 0 0 -1 I I #
coedge $-1 $227 $148 $153 $248 forward $140 $-1 #
coedge $-1 $148 $227 $228 $318 forward $140 $-1 #
vertex $-1 $149 $328 #
straight-curve $-1 -21.166030220631786 -14.895603421043841 -9.0301424994313741 -1 0 0 I I #
coedge $-1 $233 $150 $229 $319 forward $225 $-1 #
coedge $-1 $150 $233 $152 $247 forward $225 $-1 #
vertex $-1 $151 $329 #
straight-curve $-1 -21.166030220631786 -14.895603421043841 9.0301424994313741 1 0 0 I I #
coedge $-1 $153 $152 $231 $321 forward $154 $-1 #
edge $-1 $324 11.895603421043841 $156 14.895603421043841 $152 $330 forward 7 unknown #
edge $-1 $155 -14.895603421043841 $322 -11.895603421043841 $153 $331 forward 7 unknown #
point $-1 -45.704519791253396 -14.895603421043841 -9.0301424994313741 #
point $-1 -45.704519791253396 -14.895603421043841 9.0301424994313741 #
face $-1 $-1 $332 $20 $-1 $333 reversed single #
loop $-1 $-1 $169 $158 #
plane-surface $-1 0 0 9.0301424994313741 0 0 1 1 0 0 forward_v I I I I #
coedge $-1 $164 $161 $334 $335 reversed $91 $-1 #
coedge $-1 $161 $164 $336 $337 reversed $91 $-1 #
coedge $-1 $338 $339 $161 $257 forward $332 $-1 #
edge $-1 $340 -9.0301424994313741 $341 9.0301424994313741 $256 $342 forward 7 unknown #
coedge $-1 $334 $167 $162 $259 forward $159 $-1 #
edge $-1 $172 -8.1978017105219205 $263 -5.1978017105219205 $258 $343 forward 7 unknown #
coedge $-1 $169 $336 $163 $261 forward $252 $-1 #
edge $-1 $262 5.1978017105219205 $171 8.1978017105219205 $260 $344 forward 7 unknown #
vertex $-1 $261 $345 #
vertex $-1 $259 $346 #
straight-curve $-1 38.959601091273747 -11.895603421043841 0 0 0 -1 I I #
coedge $-1 $339 $338 $166 $266 forward $332 $-1 #
edge $-1 $271 -9.0301424994313741 $268 9.0301424994313741 $265 $347 forward 7 unknown #
coedge $-1 $167 $334 $339 $348 forward $159 $-1 #
vertex $-1 $266 $349 #
straight-curve $-1 21.166030220631786 -14.895603421043841 -9.0301424994313741 -1 0 0 I I #
coedge $-1 $336 $169 $338 $350 forward $252 $-1 #
vertex $-1 $350 $351 #
straight-curve $-1 21.166030220631786 -14.895603421043841 9.0301424994313741 1 0 0 I I #
point $-1 38.959601091273747 -14.895603421043841 9.0301424994313741 #
point $-1 38.959601091273747 -14.895603421043841 -9.0301424994313741 #
loop $-1 $-1 $182 $174 #
plane-surface $-1 0 -22.684740353803232 0 0 1 0 0 0 1 forward_v I I I I #
coedge $-1 $278 $177 $179 $282 reversed $99 $-1 #
coedge $-1 $177 $277 $352 $353 reversed $99 $-1 #
coedge $-1 $185 $180 $177 $280 forward $175 $-1 #
edge $-1 $283 -22.605926679032727 $354 -15.522072862716872 $279 $355 forward 7 unknown #
coedge $-1 $179 $178 $286 $356 reversed $61 $-1 #
edge $-1 $357 -1.3060111725721878e-014 $283 8.7561249186872274 $277 $358 forward 7 unknown #
vertex $-1 $181 $359 #
straight-curve $-1 -14.479448045578698 -15.600886537487378 9.0301424994313741 -1 0 0 I I #
coedge $-1 $352 $182 $185 $290 reversed $275 $-1 #
coedge $-1 $182 $352 $281 $356 forward $275 $-1 #
vertex $-1 $183 $360 #
straight-curve $-1 -18.958191091041041 -22.684740353803232 38.917443651135137 0 0 1 I I #
straight-curve $-1 -18.958191091041041 -22.684740353803221 3.8834213392437675 0 -0.80901698891910034 -0.5877852598018023 I I #
edge $-1 $354 -38.959601091273754 $186 -18.958191091041041 $285 $361 forward 7 unknown #
point $-1 -18.958191091041041 -22.684740353803232 9.0301424994313741 #
point $-1 -18.958191091041041 -15.600886537487378 9.0301424994313741 #
edge $-1 $362 1 $362 0 $189 $-1 forward 7 unknown #
vertex $-1 $190 $363 #
ellipse-curve $-1 -33.244912519778694 -15.094706386440841 0.88504065967402468 0 -0.5877852598018023 0.80901698891910034 2 0 0 1 I I #
point $-1 -31.244912519778694 -19.14281344564532 6.4567819193375744 #
edge $-1 $364 1 $364 0 $193 $-1 forward 7 unknown #
vertex $-1 $194 $365 #
ellipse-curve $-1 -24.672879662536101 -15.094706386440841 0.88504065967402468 0 -0.5877852598018023 0.80901698891910034 2 0 0 1 I I #
point $-1 -22.672879662536101 -19.14281344564532 6.4567819193375744 #
plane-surface $-1 45.704519791253396 0 0 -1 0 0 0 0 1 forward_v I I I I #
coedge $-1 $202 $200 $204 $306 reversed $121 $-1 #
edge $-1 $215 -9.0301424994313741 $308 9.0301424994313741 $214 $366 forward 7 unknown #
vertex $-1 $306 $367 #
straight-curve $-1 -45.704519791253396 -22.684740353803232 0 0 0 -1 I I #
edge $-1 $304 -22.684740353803232 $308 22.684740353803232 $302 $368 forward 7 unknown #
straight-curve $-1 0 -22.684740353803232 -9.0301424994313741 -1 0 0 I I #
vertex $-1 $207 $369 #
straight-curve $-1 0 22.684740353803232 -9.0301424994313741 1 0 0 I I #
point $-1 45.704519791253396 22.684740353803232 -9.0301424994313741 #
point $-1 45.704519791253396 -22.684740353803232 -9.0301424994313741 #
straight-curve $-1 -45.704519791253396 0 9.0301424994313741 0 -1 0 I I #
point $-1 -45.704519791253396 22.684740353803232 9.0301424994313741 #
point $-1 -45.704519791253396 -22.684740353803232 9.0301424994313741 #
straight-curve $-1 45.704519791253396 -22.684740353803232 0 0 0 -1 I I #
straight-curve $-1 45.704519791253396 22.684740353803232 0 0 0 -1 I I #
plane-surface $-1 -45.704519791253396 0 0 1 0 0 0 0 -1 forward_v I I I I #
edge $-1 $236 5.1978017105219205 $240 8.1978017105219205 $239 $370 forward 7 unknown #
edge $-1 $244 -8.1978017105219205 $235 -5.1978017105219205 $242 $371 forward 7 unknown #
straight-curve $-1 -38.959601091273747 -14.895603421043841 0 0 0 -1 I I #
edge $-1 $324 -9.0301424994313741 $322 9.0301424994313741 $246 $372 forward 7 unknown #
vertex $-1 $321 $373 #
straight-curve $-1 -21.166030220631786 -11.895603421043841 -9.0301424994313741 1 0 0 I I #
vertex $-1 $247 $374 #
straight-curve $-1 -21.166030220631786 -11.895603421043841 9.0301424994313741 -1 0 0 I I #
point $-1 -38.959601091273747 -11.895603421043841 9.0301424994313741 #
point $-1 -38.959601091273747 -11.895603421043841 -9.0301424994313741 #
point $-1 -38.959601091273747 -14.895603421043841 -9.0301424994313741 #
point $-1 -38.959601091273747 -14.895603421043841 9.0301424994313741 #
straight-curve $-1 -45.704519791253396 0 9.0301424994313741 0 -1 0 I I #
straight-curve $-1 -45.704519791253396 0 -9.0301424994313741 0 1 0 I I #
loop $-1 $-1 $265 $251 #
plane-surface $-1 45.704519791253396 0 0 -1 0 0 0 0 1 forward_v I I I I #
coedge $-1 $267 $258 $254 $335 forward $159 $-1 #
edge $-1 $263 17.793570870641961 $340 24.538489570621611 $334 $375 forward 7 unknown #
coedge $-1 $260 $270 $255 $337 forward $252 $-1 #
edge $-1 $341 -24.538489570621611 $262 -17.793570870641961 $336 $376 forward 7 unknown #
coedge $-1 $265 $256 $270 $350 reversed $332 $-1 #
coedge $-1 $256 $265 $267 $348 reversed $332 $-1 #
vertex $-1 $348 $377 #
vertex $-1 $257 $378 #
straight-curve $-1 45.704519791253396 -11.895603421043841 0 0 0 1 I I #
straight-curve $-1 38.959601091273747 -6.6978017105219205 -9.0301424994313741 0 1 0 I I #
straight-curve $-1 38.959601091273747 -6.6978017105219205 9.0301424994313741 0 -1 0 I I #
point $-1 38.959601091273747 -11.895603421043841 9.0301424994313741 #
point $-1 38.959601091273747 -11.895603421043841 -9.0301424994313741 #
straight-curve $-1 45.704519791253396 -14.895603421043841 0 0 0 -1 I I #
edge $-1 $340 11.895603421043841 $268 14.895603421043841 $339 $379 forward 7 unknown #
point $-1 45.704519791253396 -14.895603421043841 -9.0301424994313741 #
edge $-1 $271 -14.895603421043841 $341 -11.895603421043841 $338 $380 forward 7 unknown #
point $-1 45.704519791253396 -14.895603421043841 9.0301424994313741 #
coedge $-1 $286 $285 $278 $353 forward $275 $-1 #
edge $-1 $354 29.887301151703763 $357 35.034022311891377 $352 $381 forward 7 unknown #
vertex $-1 $290 $382 #
straight-curve $-1 -38.959601091273754 -38.206813216520104 9.0301424994313706 0 -1 0 I I #
edge $-1 $357 -24.480153045695054 $287 -4.4787430454623429 $286 $383 forward 7 unknown #
vertex $-1 $356 $384 #
straight-curve $-1 -38.959601091273754 -22.684740353803221 3.8834213392437675 0 0.80901698891910034 0.5877852598018023 I I #
point $-1 -38.959601091273754 -15.600886537487378 9.0301424994313741 #
point $-1 -18.958191091041041 -22.684740353803232 3.88342133924376 #
straight-curve $-1 0 -22.684740353803232 9.0301424994313741 1 0 0 I I #
vertex $-1 $293 $385 #
point $-1 -31.244912519778694 -15.094706386440841 0.88504065967402468 #
vertex $-1 $297 $386 #
point $-1 -22.672879662536101 -15.094706386440841 0.88504065967402468 #
straight-curve $-1 -45.704519791253396 22.684740353803232 0 0 0 -1 I I #
point $-1 -45.704519791253396 -22.684740353803232 -9.0301424994313741 #
straight-curve $-1 -45.704519791253396 0 -9.0301424994313741 0 1 0 I I #
point $-1 -45.704519791253396 22.684740353803232 -9.0301424994313741 #
straight-curve $-1 -38.959601091273747 -6.6978017105219205 -9.0301424994313741 0 -1 0 I I #
straight-curve $-1 -38.959601091273747 -6.6978017105219205 9.0301424994313741 0 1 0 I I #
straight-curve $-1 -45.704519791253396 -11.895603421043841 0 0 0 -1 I I #
point $-1 -45.704519791253396 -11.895603421043841 -9.0301424994313741 #
point $-1 -45.704519791253396 -11.895603421043841 9.0301424994313741 #
straight-curve $-1 21.166030220631786 -11.895603421043841 -9.0301424994313741 1 0 0 I I #
straight-curve $-1 21.166030220631786 -11.895603421043841 9.0301424994313741 -1 0 0 I I #
point $-1 45.704519791253396 -11.895603421043841 -9.0301424994313741 #
point $-1 45.704519791253396 -11.895603421043841 9.0301424994313741 #
straight-curve $-1 45.704519791253396 0 -9.0301424994313741 0 -1 0 I I #
straight-curve $-1 45.704519791253396 0 9.0301424994313741 0 1 0 I I #
straight-curve $-1 -38.959601091273754 -22.684740353803232 38.917443651135137 0 0 -1 I I #
point $-1 -38.959601091273754 -22.684740353803232 9.0301424994313741 #
straight-curve $-1 -14.479448045578698 -22.684740353803232 3.8834213392437618 1 0 0 I I #
point $-1 -38.959601091273754 -22.684740353803232 3.88342133924376 #
point $-1 -33.244912519778694 -13.919135866837237 -0.73299331816417534 #
point $-1 -24.672879662536101 -13.919135866837237 -0.73299331816417534 #
End-of-ACIS-data 