500 0 8 0           
7 Unknown 11 ACIS 5.0 NT 24 Thu Mar 25 16:13:19 1999 
-1 9.9999999999999995e-007 1e-010 
body $-1 $8 $-1 $9 #
body $-1 $10 $-1 $11 #
body $-1 $12 $-1 $13 #
body $-1 $14 $-1 $15 #
body $-1 $16 $-1 $17 #
body $-1 $18 $-1 $19 #
body $-1 $20 $-1 $21 #
body $-1 $22 $-1 $23 #
lump $-1 $-1 $24 $0 #
transform $-1 1 0 0 0 1 0 0 0 1 76.246223334452338 30.69604493426603 15.174621242811819 1 rotate no_reflect no_shear #
lump $-1 $-1 $25 $1 #
transform $-1 1 0 0 0 1 0 0 0 1 76.246223334452338 30.69604493426603 15.174621242811819 1 rotate no_reflect no_shear #
lump $-1 $-1 $26 $2 #
transform $-1 1 0 0 0 1 0 0 0 1 76.246223334452338 30.69604493426603 15.174621242811819 1 rotate no_reflect no_shear #
lump $-1 $-1 $27 $3 #
transform $-1 1 0 0 0 1 0 0 0 1 76.246223334452338 30.69604493426603 15.174621242811819 1 rotate no_reflect no_shear #
lump $-1 $-1 $28 $4 #
transform $-1 1 0 0 0 1 0 0 0 1 76.246223334452338 30.69604493426603 15.174621242811819 1 rotate no_reflect no_shear #
lump $-1 $-1 $29 $5 #
transform $-1 1 0 0 0 1 0 0 0 1 76.246223334452338 30.69604493426603 15.174621242811819 1 rotate no_reflect no_shear #
lump $-1 $-1 $30 $6 #
transform $-1 1 0 0 0 1 0 0 0 1 76.246223334452338 30.69604493426603 15.174621242811819 1 rotate no_reflect no_shear #
lump $-1 $-1 $31 $7 #
transform $-1 1 0 0 0 1 0 0 0 1 76.246223334452338 30.69604493426603 15.174621242811819 1 rotate no_reflect no_shear #
shell $-1 $-1 $-1 $32 $-1 $8 #
shell $-1 $-1 $-1 $33 $-1 $10 #
shell $-1 $-1 $-1 $34 $-1 $12 #
shell $-1 $-1 $-1 $35 $-1 $14 #
shell $-1 $-1 $-1 $36 $-1 $16 #
shell $-1 $-1 $-1 $37 $-1 $18 #
shell $-1 $-1 $-1 $38 $-1 $20 #
shell $-1 $-1 $-1 $39 $-1 $22 #
face $-1 $40 $41 $24 $-1 $42 forward single #
face $-1 $43 $44 $25 $-1 $45 forward single #
face $-1 $46 $47 $26 $-1 $48 reversed single #
face $-1 $49 $50 $27 $-1 $51 forward single #
face $-1 $52 $53 $28 $-1 $54 forward single #
face $-1 $55 $56 $29 $-1 $57 reversed single #
face $-1 $58 $59 $30 $-1 $60 forward single #
face $-1 $61 $62 $31 $-1 $63 forward single #
face $-1 $64 $65 $24 $-1 $66 reversed single #
loop $-1 $-1 $67 $32 #
plane-surface $-1 0 0 15.174621242811819 0 0 1 1 0 0 forward_v I I I I #
face $-1 $68 $69 $25 $-1 $70 reversed single #
loop $-1 $-1 $71 $33 #
plane-surface $-1 0 -20.814517008918582 5.9055997981423829 0 0 1 1 0 0 forward_v I I I I #
face $-1 $72 $73 $26 $-1 $74 reversed single #
loop $-1 $-1 $75 $34 #
plane-surface $-1 -170.12994920399802 -5.2111138578819212 130.09725298140083 0 1 0 -0.61566148304635926 0 0.78801074757464917 forward_v I I I I #
face $-1 $76 $77 $27 $-1 $78 forward single #
loop $-1 $79 $80 $35 #
cone-surface $-1 -72.39475676222682 -2.6067259808777372 11.91816026145233 0.61566148304635926 0 -0.78801074757464917 0.39400537378732459 0 0.30783074152317963 1 I I 0 1 0.5 forward I I I I #
face $-1 $81 $82 $28 $-1 $83 forward single #
loop $-1 $84 $85 $36 #
cone-surface $-1 -72.39475676222682 1.2998558346285343 11.91816026145233 0.61566148304635926 0 -0.78801074757464917 0.39400537378732459 0 0.30783074152317963 1 I I 0 1 0.5 forward I I I I #
face $-1 $86 $87 $29 $-1 $88 reversed single #
loop $-1 $-1 $89 $37 #
plane-surface $-1 -170.12994920399802 15.603403151036664 130.09725298140083 0 1 0 -0.61566148304635926 0 0.78801074757464917 forward_v I I I I #
face $-1 $90 $91 $30 $-1 $92 forward single #
loop $-1 $93 $94 $38 #
cone-surface $-1 -72.39475676222682 18.207791028040841 11.91816026145233 0.61566148304635926 0 -0.78801074757464917 0.39400537378732459 0 0.30783074152317963 1 I I 0 1 0.5 forward I I I I #
face $-1 $95 $96 $31 $-1 $97 forward single #
loop $-1 $98 $99 $39 #
cone-surface $-1 -72.39475676222682 22.114372843547113 11.91816026145233 0.61566148304635926 0 -0.78801074757464917 0.39400537378732459 0 0.30783074152317963 1 I I 0 1 0.5 forward I I I I #
face $-1 $100 $101 $24 $-1 $102 reversed single #
loop $-1 $-1 $103 $40 #
plane-surface $-1 0 0 -15.174621242811819 0 0 1 1 0 0 forward_v I I I I #
coedge $-1 $104 $105 $106 $107 forward $41 $-1 #
face $-1 $108 $109 $25 $-1 $110 reversed single #
loop $-1 $-1 $111 $43 #
plane-surface $-1 0 -20.814517008918582 1.8933349120230254 0 0 1 1 0 0 forward_v I I I I #
coedge $-1 $112 $113 $114 $115 reversed $44 $-1 #
face $-1 $116 $117 $26 $-1 $118 reversed single #
loop $-1 $-1 $119 $46 #
plane-surface $-1 -76.246223334452324 -0.65343507312460147 9.9315660823499314 -0.61566148304635926 0 0.78801074757464917 0.78801074757464917 0 0.61566148304635926 forward_v I I I I #
coedge $-1 $120 $121 $122 $123 reversed $47 $-1 #
face $-1 $-1 $124 $27 $-1 $125 forward single #
loop $-1 $126 $127 $49 #
cone-surface $-1 -71.744777041356301 -2.6067259808777372 11.086224173430123 0.61566148304635926 0 -0.78801074757464917 0.19700268689366229 0 0.15391537076158981 1 I I -0.70710678118654746 0.70710678118654746 0.25 forward I I I I #
loop $-1 $-1 $128 $35 #
coedge $-1 $80 $80 $129 $130 reversed $50 $-1 #
face $-1 $-1 $131 $28 $-1 $132 forward single #
loop $-1 $133 $134 $52 #
cone-surface $-1 -71.744777041356301 1.2998558346285343 11.086224173430123 0.61566148304635926 0 -0.78801074757464917 0.19700268689366229 0 0.15391537076158981 1 I I -0.70710678118654746 0.70710678118654746 0.25 forward I I I I #
loop $-1 $-1 $135 $36 #
coedge $-1 $85 $85 $136 $137 reversed $53 $-1 #
face $-1 $138 $139 $29 $-1 $140 reversed single #
loop $-1 $-1 $141 $55 #
plane-surface $-1 -76.246223334452324 20.161081935793984 9.9315660823499314 -0.61566148304635926 0 0.78801074757464917 0.78801074757464917 0 0.61566148304635926 forward_v I I I I #
coedge $-1 $142 $143 $144 $145 reversed $56 $-1 #
face $-1 $-1 $146 $30 $-1 $147 forward single #
loop $-1 $148 $149 $58 #
cone-surface $-1 -71.744777041356301 18.207791028040841 11.086224173430123 0.61566148304635926 0 -0.78801074757464917 0.19700268689366229 0 0.15391537076158981 1 I I -0.70710678118654746 0.70710678118654746 0.25 forward I I I I #
loop $-1 $-1 $150 $38 #
coedge $-1 $94 $94 $151 $152 reversed $59 $-1 #
face $-1 $-1 $153 $31 $-1 $154 forward single #
loop $-1 $155 $156 $61 #
cone-surface $-1 -71.744777041356301 22.114372843547113 11.086224173430123 0.61566148304635926 0 -0.78801074757464917 0.19700268689366229 0 0.15391537076158981 1 I I -0.70710678118654746 0.70710678118654746 0.25 forward I I I I #
loop $-1 $-1 $157 $39 #
coedge $-1 $99 $99 $158 $159 reversed $62 $-1 #
face $-1 $160 $161 $24 $-1 $162 reversed single #
loop $-1 $-1 $163 $64 #
plane-surface $-1 0 -30.69604493426603 0 0 1 0 0 0 1 forward_v I I I I #
coedge $-1 $164 $165 $166 $167 forward $65 $-1 #
coedge $-1 $168 $67 $169 $170 forward $41 $-1 #
coedge $-1 $67 $168 $171 $172 forward $41 $-1 #
coedge $-1 $173 $174 $67 $107 reversed $175 $-1 #
edge $-1 $176 -30.69604493426603 $177 30.69604493426603 $106 $178 forward 7 unknown #
face $-1 $179 $180 $25 $-1 $181 reversed single #
loop $-1 $-1 $182 $68 #
plane-surface $-1 0 -10.932989083571133 3.8994673550827041 0 -1 0 0 0 -1 forward_v I I I I #
coedge $-1 $183 $184 $185 $186 reversed $69 $-1 #
coedge $-1 $187 $71 $188 $189 forward $44 $-1 #
coedge $-1 $71 $187 $190 $191 reversed $44 $-1 #
coedge $-1 $192 $193 $71 $115 forward $194 $-1 #
edge $-1 $195 0.52573057911184229 $196 20.288786429806741 $114 $197 forward 7 unknown #
face $-1 $198 $199 $26 $-1 $200 reversed single #
loop $-1 $-1 $201 $72 #
plane-surface $-1 -170.12994920399802 3.9042437116327182 130.09725298140083 0 -1 0 0.61566148304635926 0 -0.78801074757464917 forward_v I I I I #
coedge $-1 $202 $203 $204 $205 reversed $73 $-1 #
coedge $-1 $121 $75 $206 $207 reversed $47 $-1 #
coedge $-1 $75 $120 $202 $208 reversed $47 $-1 #
coedge $-1 $204 $209 $75 $123 forward $210 $-1 #
edge $-1 $211 8.8187512675466735 $212 15.529555711779864 $122 $213 forward 7 unknown #
loop $-1 $-1 $129 $76 #
plane-surface $-1 -76.246223334452324 -0.65343507312460147 9.9315660823499314 -0.61566148304635926 0 0.78801074757464917 0.78801074757464917 0 0.61566148304635926 forward_v I I I I #
loop $-1 $-1 $214 $49 #
coedge $-1 $127 $127 $128 $215 reversed $77 $-1 #
coedge $-1 $128 $128 $127 $215 forward $79 $-1 #
coedge $-1 $129 $129 $80 $130 forward $124 $-1 #
edge $-1 $216 0 $216 6.2831853071796004 $129 $217 forward 7 unknown #
loop $-1 $-1 $136 $81 #
plane-surface $-1 -76.246223334452324 -0.65343507312460147 9.9315660823499314 -0.61566148304635926 0 0.78801074757464917 0.78801074757464917 0 0.61566148304635926 forward_v I I I I #
loop $-1 $-1 $218 $52 #
coedge $-1 $134 $134 $135 $219 reversed $82 $-1 #
coedge $-1 $135 $135 $134 $219 forward $84 $-1 #
coedge $-1 $136 $136 $85 $137 forward $131 $-1 #
edge $-1 $220 0 $220 6.2831853071796004 $136 $221 forward 7 unknown #
face $-1 $222 $223 $29 $-1 $224 forward single #
loop $-1 $-1 $225 $86 #
plane-surface $-1 -170.12994920399802 24.718760720551302 130.09725298140083 0 -1 0 0.61566148304635926 0 -0.78801074757464917 forward_v I I I I #
coedge $-1 $226 $227 $228 $229 reversed $87 $-1 #
coedge $-1 $143 $89 $230 $231 reversed $56 $-1 #
coedge $-1 $89 $142 $226 $232 reversed $56 $-1 #
coedge $-1 $228 $233 $89 $145 forward $223 $-1 #
edge $-1 $234 8.8187512675466735 $235 15.529555711779864 $144 $236 forward 7 unknown #
loop $-1 $-1 $151 $90 #
plane-surface $-1 -76.246223334452324 20.161081935793984 9.9315660823499314 -0.61566148304635926 0 0.78801074757464917 0.78801074757464917 0 0.61566148304635926 forward_v I I I I #
loop $-1 $-1 $237 $58 #
coedge $-1 $149 $149 $150 $238 reversed $91 $-1 #
coedge $-1 $150 $150 $149 $238 forward $93 $-1 #
coedge $-1 $151 $151 $94 $152 forward $146 $-1 #
edge $-1 $239 0 $239 6.2831853071796004 $151 $240 forward 7 unknown #
loop $-1 $-1 $158 $95 #
plane-surface $-1 -76.246223334452324 20.161081935793984 9.9315660823499314 -0.61566148304635926 0 0.78801074757464917 0.78801074757464917 0 0.61566148304635926 forward_v I I I I #
loop $-1 $-1 $241 $61 #
coedge $-1 $156 $156 $157 $242 reversed $96 $-1 #
coedge $-1 $157 $157 $156 $242 forward $98 $-1 #
coedge $-1 $158 $158 $99 $159 forward $153 $-1 #
edge $-1 $243 0 $243 6.2831853071796004 $158 $244 forward 7 unknown #
face $-1 $245 $246 $24 $-1 $247 reversed single #
loop $-1 $-1 $248 $100 #
plane-surface $-1 -76.246223334452338 0 0 1 0 0 0 0 -1 forward_v I I I I #
coedge $-1 $249 $171 $250 $251 forward $101 $-1 #
coedge $-1 $252 $103 $249 $253 forward $65 $-1 #
coedge $-1 $103 $252 $254 $255 forward $65 $-1 #
coedge $-1 $174 $173 $103 $167 reversed $175 $-1 #
edge $-1 $256 -30.69604493426603 $257 30.69604493426603 $166 $258 forward 7 unknown #
coedge $-1 $105 $104 $259 $260 forward $41 $-1 #
coedge $-1 $261 $262 $104 $170 reversed $246 $-1 #
edge $-1 $177 -76.246223334452338 $263 76.246223334452338 $169 $264 forward 7 unknown #
coedge $-1 $163 $265 $105 $172 reversed $101 $-1 #
edge $-1 $266 -76.246223334452338 $176 76.246223334452338 $171 $267 forward 7 unknown #
coedge $-1 $166 $106 $265 $268 forward $175 $-1 #
coedge $-1 $106 $166 $261 $269 reversed $175 $-1 #
loop $-1 $-1 $173 $245 #
vertex $-1 $107 $270 #
vertex $-1 $107 $271 #
straight-curve $-1 76.246223334452338 0 15.174621242811819 0 1 0 I I #
face $-1 $272 $273 $25 $-1 $274 reversed single #
loop $-1 $-1 $275 $108 #
plane-surface $-1 -76.246223334452338 0 0 1 0 0 0 0 -1 forward_v I I I I #
coedge $-1 $276 $188 $193 $277 reversed $109 $-1 #
coedge $-1 $278 $111 $279 $280 reversed $69 $-1 #
coedge $-1 $111 $278 $276 $281 forward $69 $-1 #
coedge $-1 $193 $192 $111 $186 forward $194 $-1 #
edge $-1 $282 -20.288786429806741 $283 -0.52573057911184229 $185 $284 forward 7 unknown #
coedge $-1 $113 $112 $275 $285 reversed $44 $-1 #
coedge $-1 $182 $286 $112 $189 reversed $109 $-1 #
edge $-1 $195 -76.246223334452338 $287 76.246223334452338 $188 $288 forward 7 unknown #
coedge $-1 $289 $290 $113 $191 forward $273 $-1 #
edge $-1 $196 -76.246223334452338 $291 76.246223334452338 $190 $292 forward 7 unknown #
coedge $-1 $185 $114 $290 $293 forward $194 $-1 #
coedge $-1 $114 $185 $182 $277 forward $194 $-1 #
loop $-1 $-1 $114 $272 #
vertex $-1 $115 $294 #
vertex $-1 $293 $295 #
straight-curve $-1 76.246223334452338 -10.407258504459291 5.9055997981423829 0 -1 0 I I #
face $-1 $-1 $210 $26 $-1 $296 forward single #
loop $-1 $-1 $297 $116 #
plane-surface $-1 -76.246223334452338 0 0 1 0 0 0 0 -1 forward_v I I I I #
coedge $-1 $298 $299 $300 $301 reversed $117 $-1 #
coedge $-1 $302 $119 $121 $208 forward $73 $-1 #
coedge $-1 $119 $302 $298 $303 forward $73 $-1 #
coedge $-1 $300 $122 $119 $205 forward $210 $-1 #
edge $-1 $212 -4.8843963213196204 $304 4.230961248195019 $204 $305 forward 7 unknown #
coedge $-1 $306 $307 $120 $207 forward $199 $-1 #
edge $-1 $308 -55.117060408350497 $211 -49.874005247888597 $206 $309 forward 7 unknown #
edge $-1 $212 -8.516133142711297 $308 1.7760113164789269e-014 $121 $310 forward 7 unknown #
coedge $-1 $122 $300 $306 $311 forward $210 $-1 #
loop $-1 $-1 $300 $198 #
vertex $-1 $207 $312 #
vertex $-1 $123 $313 #
straight-curve $-1 -85.064974601999012 -5.2111138578819212 15.174621242811817 1 0 0 I I #
coedge $-1 $214 $214 $-1 $314 reversed $126 $-1 #
edge $-1 $315 0 $315 6.2831853071796004 $127 $316 forward 7 unknown #
vertex $-1 $130 $317 #
ellipse-curve $-1 -72.890821112335743 -2.6067259808777372 12.553093662580871 -0.61566148304635926 0 0.78801074757464917 0.39400537378732459 0 0.30783074152317963 1 I I #
coedge $-1 $218 $218 $-1 $318 reversed $133 $-1 #
edge $-1 $319 0 $319 6.2831853071796004 $134 $320 forward 7 unknown #
vertex $-1 $137 $321 #
ellipse-curve $-1 -72.890821112335743 1.2998558346285343 12.553093662580871 -0.61566148304635926 0 0.78801074757464917 0.39400537378732459 0 0.30783074152317963 1 I I #
face $-1 $-1 $322 $29 $-1 $323 reversed single #
loop $-1 $-1 $144 $138 #
plane-surface $-1 0 0 15.174621242811819 0 0 1 1 0 0 forward_v I I I I #
coedge $-1 $324 $325 $326 $327 reversed $139 $-1 #
coedge $-1 $328 $141 $143 $232 forward $87 $-1 #
coedge $-1 $141 $328 $324 $329 forward $87 $-1 #
coedge $-1 $326 $144 $141 $229 forward $223 $-1 #
edge $-1 $235 5.5228621831396723 $330 14.63821975265431 $228 $331 forward 7 unknown #
coedge $-1 $332 $333 $142 $231 forward $322 $-1 #
edge $-1 $334 -55.117060408350497 $234 -49.874005247888597 $230 $335 forward 7 unknown #
edge $-1 $235 -8.516133142711297 $334 1.7760113164789269e-014 $143 $336 forward 7 unknown #
coedge $-1 $144 $326 $332 $337 forward $223 $-1 #
vertex $-1 $145 $338 #
vertex $-1 $145 $339 #
straight-curve $-1 -85.064974601999012 15.603403151036664 15.174621242811817 1 0 0 I I #
coedge $-1 $237 $237 $-1 $340 reversed $148 $-1 #
edge $-1 $341 0 $341 6.2831853071796004 $149 $342 forward 7 unknown #
vertex $-1 $152 $343 #
ellipse-curve $-1 -72.890821112335743 18.207791028040841 12.553093662580871 -0.61566148304635926 0 0.78801074757464917 0.39400537378732459 0 0.30783074152317963 1 I I #
coedge $-1 $241 $241 $-1 $344 reversed $155 $-1 #
edge $-1 $345 0 $345 6.2831853071796004 $156 $346 forward 7 unknown #
vertex $-1 $159 $347 #
ellipse-curve $-1 -72.890821112335743 22.114372843547113 12.553093662580871 -0.61566148304635926 0 0.78801074757464917 0.39400537378732459 0 0.30783074152317963 1 I I #
face $-1 $-1 $175 $24 $-1 $348 reversed single #
loop $-1 $-1 $261 $160 #
plane-surface $-1 0 30.69604493426603 0 0 -1 0 0 0 -1 forward_v I I I I #
coedge $-1 $349 $259 $262 $350 forward $161 $-1 #
coedge $-1 $265 $163 $164 $253 reversed $101 $-1 #
coedge $-1 $259 $349 $163 $251 reversed $161 $-1 #
edge $-1 $266 -15.174621242811819 $351 15.174621242811819 $250 $352 forward 7 unknown #
coedge $-1 $165 $164 $349 $353 forward $65 $-1 #
edge $-1 $257 -76.246223334452338 $351 76.246223334452338 $249 $354 forward 7 unknown #
coedge $-1 $262 $261 $165 $255 reversed $246 $-1 #
edge $-1 $355 -76.246223334452338 $256 76.246223334452338 $254 $356 forward 7 unknown #
vertex $-1 $167 $357 #
vertex $-1 $268 $358 #
straight-curve $-1 76.246223334452338 0 -15.174621242811819 0 -1 0 I I #
coedge $-1 $248 $250 $168 $260 reversed $161 $-1 #
edge $-1 $263 -30.69604493426603 $266 30.69604493426603 $259 $359 forward 7 unknown #
coedge $-1 $254 $169 $174 $269 forward $246 $-1 #
coedge $-1 $169 $254 $248 $350 reversed $246 $-1 #
vertex $-1 $170 $360 #
straight-curve $-1 0 30.69604493426603 15.174621242811819 -1 0 0 I I #
coedge $-1 $171 $249 $173 $268 reversed $101 $-1 #
vertex $-1 $260 $361 #
straight-curve $-1 0 -30.69604493426603 15.174621242811819 1 0 0 I I #
edge $-1 $176 -15.174621242811819 $257 15.174621242811819 $173 $362 forward 7 unknown #
edge $-1 $177 -15.174621242811819 $256 15.174621242811819 $174 $363 forward 7 unknown #
point $-1 76.246223334452338 -30.69604493426603 15.174621242811819 #
point $-1 76.246223334452338 30.69604493426603 15.174621242811819 #
face $-1 $-1 $194 $25 $-1 $364 reversed single #
loop $-1 $-1 $190 $179 #
plane-surface $-1 0 -30.69604493426603 0 0 1 0 0 0 1 forward_v I I I I #
coedge $-1 $365 $366 $187 $285 forward $180 $-1 #
coedge $-1 $286 $182 $184 $281 reversed $109 $-1 #
edge $-1 $283 -0.056398765518326677 $195 3.9558661206010308 $193 $367 forward 7 unknown #
coedge $-1 $184 $183 $368 $369 reversed $69 $-1 #
coedge $-1 $290 $289 $183 $280 forward $273 $-1 #
edge $-1 $370 -76.246223334452338 $282 76.246223334452338 $279 $371 forward 7 unknown #
edge $-1 $372 -76.246223334452338 $283 76.246223334452338 $276 $373 forward 7 unknown #
vertex $-1 $280 $374 #
vertex $-1 $186 $375 #
straight-curve $-1 76.246223334452338 -10.407258504459291 1.8933349120230254 0 1 0 I I #
edge $-1 $291 -20.288786429806741 $287 -0.52573057911184229 $275 $376 forward 7 unknown #
coedge $-1 $188 $276 $365 $377 reversed $109 $-1 #
vertex $-1 $285 $378 #
straight-curve $-1 0 -10.932989083571133 5.9055997981423829 -1 0 0 I I #
coedge $-1 $279 $190 $366 $379 forward $273 $-1 #
coedge $-1 $190 $279 $192 $293 reversed $273 $-1 #
vertex $-1 $379 $380 #
straight-curve $-1 0 -30.69604493426603 5.9055997981423829 -1 0 0 I I #
edge $-1 $196 -5.9055997981423829 $282 -1.8933349120230254 $192 $381 forward 7 unknown #
point $-1 76.246223334452338 -10.932989083571133 5.9055997981423829 #
point $-1 76.246223334452338 -30.69604493426603 5.9055997981423829 #
plane-surface $-1 0 0 15.174621242811819 0 0 1 1 0 0 forward_v I I I I #
coedge $-1 $307 $306 $299 $382 forward $199 $-1 #
coedge $-1 $299 $201 $203 $303 reversed $117 $-1 #
coedge $-1 $201 $298 $297 $382 reversed $117 $-1 #
coedge $-1 $209 $204 $201 $301 forward $210 $-1 #
edge $-1 $304 -15.529555711779864 $383 -8.8187512675466735 $300 $384 forward 7 unknown #
coedge $-1 $203 $202 $307 $385 reversed $73 $-1 #
edge $-1 $386 -1.7760113164789269e-014 $304 8.516133142711297 $298 $387 forward 7 unknown #
vertex $-1 $205 $388 #
straight-curve $-1 -69.535418890219148 -0.32671753656230074 15.174621242811819 0 1 0 I I #
coedge $-1 $297 $206 $209 $311 reversed $199 $-1 #
coedge $-1 $206 $297 $302 $385 forward $199 $-1 #
vertex $-1 $207 $389 #
straight-curve $-1 -76.246223334452338 -5.2111138578819212 65.048626490700414 0 0 1 I I #
straight-curve $-1 -76.246223334452324 -5.2111138578819212 9.9315660823499314 -0.78801074757464917 0 -0.61566148304635926 I I #
edge $-1 $383 -3.9042437116327182 $211 5.2111138578819212 $306 $390 forward 7 unknown #
point $-1 -76.246223334452338 -5.2111138578819212 15.174621242811819 #
point $-1 -69.535418890219148 -5.2111138578819212 15.174621242811819 #
edge $-1 $391 1 $391 0 $214 $-1 forward 7 unknown #
vertex $-1 $215 $392 #
ellipse-curve $-1 -71.898692412117896 -2.6067259808777372 11.283226860323786 -0.61566148304635926 0 0.78801074757464917 0.39400537378732459 0 0.30783074152317963 1 I I #
point $-1 -72.49681573854842 -2.6067259808777372 12.860924404104054 #
edge $-1 $393 1 $393 0 $218 $-1 forward 7 unknown #
vertex $-1 $219 $394 #
ellipse-curve $-1 -71.898692412117896 1.2998558346285343 11.283226860323786 -0.61566148304635926 0 0.78801074757464917 0.39400537378732459 0 0.30783074152317963 1 I I #
point $-1 -72.49681573854842 1.2998558346285343 12.860924404104054 #
loop $-1 $-1 $230 $222 #
plane-surface $-1 -76.246223334452338 0 0 1 0 0 0 0 -1 forward_v I I I I #
coedge $-1 $325 $225 $227 $329 reversed $139 $-1 #
coedge $-1 $225 $324 $395 $396 reversed $139 $-1 #
coedge $-1 $233 $228 $225 $327 forward $223 $-1 #
edge $-1 $330 -15.529555711779864 $397 -8.8187512675466735 $326 $398 forward 7 unknown #
coedge $-1 $227 $226 $333 $399 reversed $87 $-1 #
edge $-1 $400 -1.7760113164789269e-014 $330 8.516133142711297 $324 $401 forward 7 unknown #
vertex $-1 $229 $402 #
straight-curve $-1 -69.535418890219148 10.080540967896992 15.174621242811819 0 1 0 I I #
coedge $-1 $395 $230 $233 $337 reversed $322 $-1 #
coedge $-1 $230 $395 $328 $399 forward $322 $-1 #
vertex $-1 $231 $403 #
straight-curve $-1 -76.246223334452338 15.603403151036664 65.048626490700414 0 0 1 I I #
straight-curve $-1 -76.246223334452324 15.603403151036664 9.9315660823499314 -0.78801074757464917 0 -0.61566148304635926 I I #
edge $-1 $397 -24.718760720551302 $234 -15.603403151036664 $332 $404 forward 7 unknown #
point $-1 -76.246223334452338 15.603403151036664 15.174621242811819 #
point $-1 -69.535418890219148 15.603403151036664 15.174621242811819 #
edge $-1 $405 1 $405 0 $237 $-1 forward 7 unknown #
vertex $-1 $238 $406 #
ellipse-curve $-1 -71.898692412117896 18.207791028040841 11.283226860323786 -0.61566148304635926 0 0.78801074757464917 0.39400537378732459 0 0.30783074152317963 1 I I #
point $-1 -72.49681573854842 18.207791028040841 12.860924404104054 #
edge $-1 $407 1 $407 0 $241 $-1 forward 7 unknown #
vertex $-1 $242 $408 #
ellipse-curve $-1 -71.898692412117896 22.114372843547113 11.283226860323786 -0.61566148304635926 0 0.78801074757464917 0.39400537378732459 0 0.30783074152317963 1 I I #
point $-1 -72.49681573854842 22.114372843547113 12.860924404104054 #
plane-surface $-1 76.246223334452338 0 0 -1 0 0 0 0 1 forward_v I I I I #
coedge $-1 $250 $248 $252 $353 reversed $161 $-1 #
edge $-1 $263 -15.174621242811819 $355 15.174621242811819 $262 $409 forward 7 unknown #
vertex $-1 $353 $410 #
straight-curve $-1 -76.246223334452338 -30.69604493426603 0 0 0 -1 I I #
edge $-1 $351 -30.69604493426603 $355 30.69604493426603 $349 $411 forward 7 unknown #
straight-curve $-1 0 -30.69604493426603 -15.174621242811819 -1 0 0 I I #
vertex $-1 $255 $412 #
straight-curve $-1 0 30.69604493426603 -15.174621242811819 1 0 0 I I #
point $-1 76.246223334452338 30.69604493426603 -15.174621242811819 #
point $-1 76.246223334452338 -30.69604493426603 -15.174621242811819 #
straight-curve $-1 -76.246223334452338 0 15.174621242811819 0 -1 0 I I #
point $-1 -76.246223334452338 30.69604493426603 15.174621242811819 #
point $-1 -76.246223334452338 -30.69604493426603 15.174621242811819 #
straight-curve $-1 76.246223334452338 -30.69604493426603 0 0 0 -1 I I #
straight-curve $-1 76.246223334452338 30.69604493426603 0 0 0 -1 I I #
plane-surface $-1 76.246223334452338 0 0 -1 0 0 0 0 1 forward_v I I I I #
coedge $-1 $368 $275 $286 $377 forward $180 $-1 #
coedge $-1 $275 $368 $289 $379 reversed $180 $-1 #
straight-curve $-1 76.246223334452338 -10.932989083571133 1.9497336775413521 0 0 1 I I #
coedge $-1 $366 $365 $278 $369 forward $180 $-1 #
edge $-1 $372 0.52573057911184229 $370 20.288786429806741 $368 $413 forward 7 unknown #
vertex $-1 $280 $414 #
straight-curve $-1 0 -30.69604493426603 1.8933349120230254 1 0 0 I I #
vertex $-1 $369 $415 #
straight-curve $-1 0 -10.932989083571133 1.8933349120230254 1 0 0 I I #
point $-1 76.246223334452338 -30.69604493426603 1.8933349120230254 #
point $-1 76.246223334452338 -10.932989083571133 1.8933349120230254 #
straight-curve $-1 -76.246223334452338 -10.407258504459291 5.9055997981423829 0 1 0 I I #
edge $-1 $287 -3.9558661206010308 $372 0.056398765518326677 $365 $416 forward 7 unknown #
point $-1 -76.246223334452338 -10.932989083571133 5.9055997981423829 #
edge $-1 $291 -5.9055997981423829 $370 -1.8933349120230254 $366 $417 forward 7 unknown #
point $-1 -76.246223334452338 -30.69604493426603 5.9055997981423829 #
straight-curve $-1 76.246223334452338 -30.69604493426603 0 0 0 -1 I I #
edge $-1 $383 49.874005247888597 $386 55.117060408350497 $297 $418 forward 7 unknown #
vertex $-1 $311 $419 #
straight-curve $-1 -85.064974601999012 3.9042437116327182 15.174621242811817 -1 0 0 I I #
edge $-1 $386 -4.230961248195019 $308 4.8843963213196204 $307 $420 forward 7 unknown #
vertex $-1 $385 $421 #
straight-curve $-1 -76.246223334452324 3.9042437116327182 9.9315660823499314 0.78801074757464917 0 0.61566148304635926 I I #
point $-1 -69.535418890219148 3.9042437116327182 15.174621242811819 #
point $-1 -76.246223334452338 -5.2111138578819212 9.9315660823499208 #
straight-curve $-1 -76.246223334452338 0 15.174621242811819 0 -1 0 I I #
vertex $-1 $314 $422 #
point $-1 -71.504687038330559 -2.6067259808777372 11.591057601846964 #
vertex $-1 $318 $423 #
point $-1 -71.504687038330559 1.2998558346285343 11.591057601846964 #
coedge $-1 $333 $332 $325 $396 forward $322 $-1 #
edge $-1 $397 49.874005247888597 $400 55.117060408350497 $395 $424 forward 7 unknown #
vertex $-1 $337 $425 #
straight-curve $-1 -85.064974601999012 24.718760720551302 15.174621242811817 -1 0 0 I I #
edge $-1 $400 -14.63821975265431 $334 -5.5228621831396723 $333 $426 forward 7 unknown #
vertex $-1 $399 $427 #
straight-curve $-1 -76.246223334452324 24.718760720551302 9.9315660823499314 0.78801074757464917 0 0.61566148304635926 I I #
point $-1 -69.535418890219148 24.718760720551302 15.174621242811819 #
point $-1 -76.246223334452338 15.603403151036664 9.9315660823499208 #
straight-curve $-1 -76.246223334452338 0 15.174621242811819 0 -1 0 I I #
vertex $-1 $340 $428 #
point $-1 -71.504687038330559 18.207791028040841 11.591057601846964 #
vertex $-1 $344 $429 #
point $-1 -71.504687038330559 22.114372843547113 11.591057601846964 #
straight-curve $-1 -76.246223334452338 30.69604493426603 0 0 0 -1 I I #
point $-1 -76.246223334452338 -30.69604493426603 -15.174621242811819 #
straight-curve $-1 -76.246223334452338 0 -15.174621242811819 0 1 0 I I #
point $-1 -76.246223334452338 30.69604493426603 -15.174621242811819 #
straight-curve $-1 -76.246223334452338 -10.407258504459291 1.8933349120230254 0 -1 0 I I #
point $-1 -76.246223334452338 -30.69604493426603 1.8933349120230254 #
point $-1 -76.246223334452338 -10.932989083571133 1.8933349120230254 #
straight-curve $-1 -76.246223334452338 -10.932989083571133 1.9497336775413521 0 0 -1 I I #
straight-curve $-1 -76.246223334452338 -30.69604493426603 0 0 0 -1 I I #
straight-curve $-1 -76.246223334452338 3.9042437116327182 65.048626490700414 0 0 -1 I I #
point $-1 -76.246223334452338 3.9042437116327182 15.174621242811819 #
straight-curve $-1 -76.246223334452338 -0.32671753656230074 9.9315660823499208 0 -1 0 I I #
point $-1 -76.246223334452338 3.9042437116327182 9.9315660823499208 #
point $-1 -71.590861670594705 -2.6067259808777372 10.88922148653646 #
point $-1 -71.590861670594705 1.2998558346285343 10.88922148653646 #
straight-curve $-1 -76.246223334452338 24.718760720551302 65.048626490700414 0 0 -1 I I #
point $-1 -76.246223334452338 24.718760720551302 15.174621242811819 #
straight-curve $-1 -76.246223334452338 10.080540967896992 9.9315660823499208 0 -1 0 I I #
point $-1 -76.246223334452338 24.718760720551302 9.9315660823499208 #
point $-1 -71.590861670594705 18.207791028040841 10.88922148653646 #
point $-1 -71.590861670594705 22.114372843547113 10.88922148653646 #
End-of-ACIS-data 