500 0 11 0           
7 Unknown 11 ACIS 5.0 NT 24 Thu Mar 25 17:01:04 1999 
-1 9.9999999999999995e-007 1e-010 
body $-1 $11 $-1 $12 #
body $-1 $13 $-1 $14 #
body $-1 $15 $-1 $16 #
body $-1 $17 $-1 $18 #
body $-1 $19 $-1 $20 #
body $-1 $21 $-1 $22 #
body $-1 $23 $-1 $24 #
body $-1 $25 $-1 $26 #
body $-1 $27 $-1 $28 #
body $-1 $29 $-1 $30 #
body $-1 $31 $-1 $32 #
lump $-1 $-1 $33 $0 #
transform $-1 1 0 0 0 1 0 0 0 1 57.376018555253765 31.324886206926379 7.7502970967184321 1 rotate no_reflect no_shear #
lump $-1 $-1 $34 $1 #
transform $-1 1 0 0 0 1 0 0 0 1 57.376018555253765 31.324886206926379 7.7502970967184321 1 rotate no_reflect no_shear #
lump $-1 $-1 $35 $2 #
transform $-1 1 0 0 0 1 0 0 0 1 57.376018555253765 31.324886206926379 7.7502970967184321 1 rotate no_reflect no_shear #
lump $-1 $-1 $36 $3 #
transform $-1 1 0 0 0 1 0 0 0 1 57.376018555253765 31.324886206926379 7.7502970967184321 1 rotate no_reflect no_shear #
lump $-1 $-1 $37 $4 #
transform $-1 1 0 0 0 1 0 0 0 1 57.376018555253765 31.324886206926379 7.7502970967184321 1 rotate no_reflect no_shear #
lump $-1 $-1 $38 $5 #
transform $-1 1 0 0 0 1 0 0 0 1 57.376018555253765 31.324886206926379 7.7502970967184321 1 rotate no_reflect no_shear #
lump $-1 $-1 $39 $6 #
transform $-1 1 0 0 0 1 0 0 0 1 57.376018555253765 31.324886206926379 7.7502970967184321 1 rotate no_reflect no_shear #
lump $-1 $-1 $40 $7 #
transform $-1 1 0 0 0 1 0 0 0 1 57.376018555253765 31.324886206926379 7.7502970967184321 1 rotate no_reflect no_shear #
lump $-1 $-1 $41 $8 #
transform $-1 1 0 0 0 1 0 0 0 1 57.376018555253765 31.324886206926379 7.7502970967184321 1 rotate no_reflect no_shear #
lump $-1 $-1 $42 $9 #
transform $-1 1 0 0 0 1 0 0 0 1 57.376018555253765 31.324886206926379 7.7502970967184321 1 rotate no_reflect no_shear #
lump $-1 $-1 $43 $10 #
transform $-1 1 0 0 0 1 0 0 0 1 57.376018555253765 31.324886206926379 7.7502970967184321 1 rotate no_reflect no_shear #
shell $-1 $-1 $-1 $44 $-1 $11 #
shell $-1 $-1 $-1 $45 $-1 $13 #
shell $-1 $-1 $-1 $46 $-1 $15 #
shell $-1 $-1 $-1 $47 $-1 $17 #
shell $-1 $-1 $-1 $48 $-1 $19 #
shell $-1 $-1 $-1 $49 $-1 $21 #
shell $-1 $-1 $-1 $50 $-1 $23 #
shell $-1 $-1 $-1 $51 $-1 $25 #
shell $-1 $-1 $-1 $52 $-1 $27 #
shell $-1 $-1 $-1 $53 $-1 $29 #
shell $-1 $-1 $-1 $54 $-1 $31 #
face $-1 $55 $56 $33 $-1 $57 forward single #
face $-1 $58 $59 $34 $-1 $60 forward single #
face $-1 $61 $62 $35 $-1 $63 reversed single #
face $-1 $64 $65 $36 $-1 $66 forward single #
face $-1 $67 $68 $37 $-1 $69 forward single #
face $-1 $70 $71 $38 $-1 $72 reversed single #
face $-1 $73 $74 $39 $-1 $75 forward single #
face $-1 $76 $77 $40 $-1 $78 forward single #
face $-1 $79 $80 $41 $-1 $81 reversed single #
face $-1 $82 $83 $42 $-1 $84 forward single #
face $-1 $85 $86 $43 $-1 $87 forward single #
face $-1 $88 $89 $33 $-1 $90 reversed single #
loop $-1 $-1 $91 $44 #
plane-surface $-1 0 0 7.7502970967184321 0 0 1 1 0 0 forward_v I I I I #
face $-1 $92 $93 $34 $-1 $94 reversed single #
loop $-1 $-1 $95 $45 #
plane-surface $-1 0 -31.324886206926379 0 0 1 0 0 0 1 forward_v I I I I #
face $-1 $96 $97 $35 $-1 $98 reversed single #
loop $-1 $-1 $99 $46 #
plane-surface $-1 -145.28117987124966 -9.7198544310153601 77.502478575151912 0 1 0 -0.7660444514056185 0 0.64278759981090561 forward_v I I I I #
face $-1 $100 $101 $36 $-1 $102 forward single #
loop $-1 $103 $104 $47 #
cone-surface $-1 -55.311019052874883 -8.0053934869793508 5.4244007821921665 0.7660444514056185 0 -0.64278759981090561 0.1606968999527264 0 0.19151111285140462 1 I I 0 1 0.25 forward I I I I #
face $-1 $105 $106 $37 $-1 $107 forward single #
loop $-1 $108 $109 $48 #
cone-surface $-1 -55.311019052874883 -5.4337020709253352 5.4244007821921665 0.7660444514056185 0 -0.64278759981090561 0.1606968999527264 0 0.19151111285140462 1 I I 0 1 0.25 forward I I I I #
face $-1 $110 $111 $38 $-1 $112 reversed single #
loop $-1 $-1 $113 $49 #
plane-surface $-1 29.195718721957746 -11.365068253396338 162.77006020407691 0 -1 0 -0.57357644374324357 0 -0.81915203911291934 forward_v I I I I #
face $-1 $114 $115 $39 $-1 $116 forward single #
loop $-1 $117 $118 $50 #
cone-surface $-1 53.448968758644703 -19.081929707607536 4.636252159015827 -0.57357644374324357 0 -0.81915203911291934 1.228728058669379 0 -0.86036466561486535 1 I I 0 1 1.5 forward I I I I #
face $-1 $119 $120 $40 $-1 $121 forward single #
loop $-1 $122 $123 $51 #
cone-surface $-1 53.448968758644703 -14.451812835080815 4.636252159015827 -0.57357644374324357 0 -0.81915203911291934 1.228728058669379 0 -0.86036466561486535 1 I I 0 1 1.5 forward I I I I #
face $-1 $124 $125 $41 $-1 $126 reversed single #
loop $-1 $-1 $127 $52 #
plane-surface $-1 29.195718721957746 20.5212801710307 162.77006020407691 0 1 0 0.57357644374324357 0 0.81915203911291934 forward_v I I I I #
face $-1 $128 $129 $42 $-1 $130 forward single #
loop $-1 $131 $132 $53 #
cone-surface $-1 53.448968758644703 23.608024752715181 4.636252159015827 -0.57357644374324357 0 -0.81915203911291934 1.228728058669379 0 -0.86036466561486535 1 I I 0 1 1.5 forward I I I I #
face $-1 $133 $134 $43 $-1 $135 forward single #
loop $-1 $136 $137 $54 #
cone-surface $-1 53.448968758644703 28.238141625241902 4.636252159015827 -0.57357644374324357 0 -0.81915203911291934 1.228728058669379 0 -0.86036466561486535 1 I I 0 1 1.5 forward I I I I #
face $-1 $138 $139 $33 $-1 $140 reversed single #
loop $-1 $-1 $141 $55 #
plane-surface $-1 0 0 -7.7502970967184321 0 0 1 1 0 0 forward_v I I I I #
coedge $-1 $142 $143 $144 $145 forward $56 $-1 #
face $-1 $146 $147 $34 $-1 $148 forward single #
loop $-1 $-1 $149 $58 #
plane-surface $-1 -57.376018555253765 0 0 1 0 0 0 0 -1 forward_v I I I I #
coedge $-1 $150 $151 $152 $153 forward $59 $-1 #
face $-1 $154 $155 $35 $-1 $156 reversed single #
loop $-1 $-1 $157 $61 #
plane-surface $-1 -57.376018555253751 -6.719547778952343 3.741292067476806 -0.7660444514056185 0 0.64278759981090561 0.64278759981090561 0 0.7660444514056185 forward_v I I I I #
coedge $-1 $158 $159 $160 $161 reversed $62 $-1 #
face $-1 $-1 $162 $36 $-1 $163 forward single #
loop $-1 $164 $165 $64 #
cone-surface $-1 -54.832241270746373 -8.0053934869793508 5.0226585323103503 0.7660444514056185 0 -0.64278759981090561 0.080348449976363201 0 0.095755556425702312 1 I I -0.70710678118654746 0.70710678118654746 0.125 forward I I I I #
loop $-1 $-1 $166 $47 #
coedge $-1 $104 $104 $167 $168 reversed $65 $-1 #
face $-1 $-1 $169 $37 $-1 $170 forward single #
loop $-1 $171 $172 $67 #
cone-surface $-1 -54.832241270746373 -5.4337020709253352 5.0226585323103503 0.7660444514056185 0 -0.64278759981090561 0.080348449976363201 0 0.095755556425702312 1 I I -0.70710678118654746 0.70710678118654746 0.125 forward I I I I #
loop $-1 $-1 $173 $48 #
coedge $-1 $109 $109 $174 $175 reversed $68 $-1 #
face $-1 $176 $177 $38 $-1 $178 reversed single #
loop $-1 $-1 $179 $70 #
plane-surface $-1 -36.623346636179875 -16.766871271344176 68.770695012643273 0.57357644374324357 0 0.81915203911291934 0.81915203911291934 0 -0.57357644374324357 forward_v I I I I #
coedge $-1 $180 $181 $182 $183 reversed $71 $-1 #
face $-1 $-1 $184 $39 $-1 $185 forward single #
loop $-1 $186 $187 $73 #
cone-surface $-1 52.51834023472162 -19.081929707607536 3.3071769130848967 -0.57357644374324357 0 -0.81915203911291934 0.61436402933468948 0 -0.43018233280743268 1 I I -0.70710678118654757 0.70710678118654757 0.75 forward I I I I #
loop $-1 $-1 $188 $50 #
coedge $-1 $118 $118 $189 $190 reversed $74 $-1 #
face $-1 $-1 $191 $40 $-1 $192 forward single #
loop $-1 $193 $194 $76 #
cone-surface $-1 52.51834023472162 -14.451812835080815 3.3071769130848967 -0.57357644374324357 0 -0.81915203911291934 0.61436402933468948 0 -0.43018233280743268 1 I I -0.70710678118654757 0.70710678118654757 0.75 forward I I I I #
loop $-1 $-1 $195 $51 #
coedge $-1 $123 $123 $196 $197 reversed $77 $-1 #
face $-1 $198 $199 $41 $-1 $200 reversed single #
loop $-1 $-1 $201 $79 #
plane-surface $-1 -36.623346636179875 25.923083188978538 68.770695012643273 0.57357644374324357 0 0.81915203911291934 0.81915203911291934 0 -0.57357644374324357 forward_v I I I I #
coedge $-1 $202 $203 $204 $205 reversed $80 $-1 #
face $-1 $-1 $206 $42 $-1 $207 forward single #
loop $-1 $208 $209 $82 #
cone-surface $-1 52.51834023472162 23.608024752715181 3.3071769130848967 -0.57357644374324357 0 -0.81915203911291934 0.61436402933468948 0 -0.43018233280743268 1 I I -0.70710678118654757 0.70710678118654757 0.75 forward I I I I #
loop $-1 $-1 $210 $53 #
coedge $-1 $132 $132 $211 $212 reversed $83 $-1 #
face $-1 $-1 $213 $43 $-1 $214 forward single #
loop $-1 $215 $216 $85 #
cone-surface $-1 52.51834023472162 28.238141625241902 3.3071769130848967 -0.57357644374324357 0 -0.81915203911291934 0.61436402933468948 0 -0.43018233280743268 1 I I -0.70710678118654757 0.70710678118654757 0.75 forward I I I I #
loop $-1 $-1 $217 $54 #
coedge $-1 $137 $137 $218 $219 reversed $86 $-1 #
face $-1 $220 $221 $33 $-1 $222 reversed single #
loop $-1 $-1 $223 $88 #
plane-surface $-1 0 -31.324886206926379 0 0 1 0 0 0 1 forward_v I I I I #
coedge $-1 $224 $225 $226 $227 forward $89 $-1 #
coedge $-1 $228 $91 $229 $230 forward $56 $-1 #
coedge $-1 $91 $228 $231 $232 forward $56 $-1 #
coedge $-1 $233 $234 $91 $145 reversed $235 $-1 #
edge $-1 $236 -31.324886206926379 $237 31.324886206926379 $144 $238 forward 7 unknown #
face $-1 $239 $240 $34 $-1 $241 reversed single #
loop $-1 $-1 $242 $92 #
plane-surface $-1 0 -35.902992165743562 1.2251296085582677 0 0 1 1 0 0 forward_v I I I I #
coedge $-1 $243 $244 $151 $245 forward $93 $-1 #
coedge $-1 $246 $95 $247 $248 reversed $59 $-1 #
coedge $-1 $95 $246 $149 $245 reversed $59 $-1 #
coedge $-1 $249 $242 $95 $153 reversed $147 $-1 #
edge $-1 $250 -57.376018555253765 $251 57.376018555253765 $152 $252 forward 7 unknown #
face $-1 $253 $254 $35 $-1 $255 forward single #
loop $-1 $-1 $256 $96 #
plane-surface $-1 -145.28117987124966 -3.719241126889326 77.502478575151912 0 -1 0 0.7660444514056185 0 -0.64278759981090561 forward_v I I I I #
coedge $-1 $257 $258 $259 $260 reversed $97 $-1 #
coedge $-1 $159 $99 $261 $262 reversed $62 $-1 #
coedge $-1 $99 $158 $257 $263 reversed $62 $-1 #
coedge $-1 $259 $264 $99 $161 forward $254 $-1 #
edge $-1 $265 15.264571380371066 $266 18.628525933723225 $160 $267 forward 7 unknown #
loop $-1 $-1 $167 $100 #
plane-surface $-1 -57.376018555253751 -6.719547778952343 3.741292067476806 -0.7660444514056185 0 0.64278759981090561 0.64278759981090561 0 0.7660444514056185 forward_v I I I I #
loop $-1 $-1 $268 $64 #
coedge $-1 $165 $165 $166 $269 reversed $101 $-1 #
coedge $-1 $166 $166 $165 $269 forward $103 $-1 #
coedge $-1 $167 $167 $104 $168 forward $162 $-1 #
edge $-1 $270 0 $270 6.2831853071796004 $167 $271 forward 7 unknown #
loop $-1 $-1 $174 $105 #
plane-surface $-1 -57.376018555253751 -6.719547778952343 3.741292067476806 -0.7660444514056185 0 0.64278759981090561 0.64278759981090561 0 0.7660444514056185 forward_v I I I I #
loop $-1 $-1 $272 $67 #
coedge $-1 $172 $172 $173 $273 reversed $106 $-1 #
coedge $-1 $173 $173 $172 $273 forward $108 $-1 #
coedge $-1 $174 $174 $109 $175 forward $169 $-1 #
edge $-1 $274 0 $274 6.2831853071796004 $174 $275 forward 7 unknown #
face $-1 $276 $277 $38 $-1 $278 reversed single #
loop $-1 $-1 $279 $110 #
plane-surface $-1 29.195718721957746 -22.168674289292014 162.77006020407691 0 1 0 0.57357644374324357 0 0.81915203911291934 forward_v I I I I #
coedge $-1 $280 $281 $282 $283 reversed $111 $-1 #
coedge $-1 $181 $113 $284 $285 reversed $71 $-1 #
coedge $-1 $113 $180 $280 $286 reversed $71 $-1 #
coedge $-1 $282 $287 $113 $183 forward $288 $-1 #
edge $-1 $289 -42.778159194274892 $290 -35.924951983288068 $182 $291 forward 7 unknown #
loop $-1 $-1 $189 $114 #
plane-surface $-1 -36.623346636179875 -16.766871271344176 68.770695012643273 0.57357644374324357 0 0.81915203911291934 0.81915203911291934 0 -0.57357644374324357 forward_v I I I I #
loop $-1 $-1 $292 $73 #
coedge $-1 $187 $187 $188 $293 reversed $115 $-1 #
coedge $-1 $188 $188 $187 $293 forward $117 $-1 #
coedge $-1 $189 $189 $118 $190 forward $184 $-1 #
edge $-1 $294 0 $294 6.2831853071796004 $189 $295 forward 7 unknown #
loop $-1 $-1 $196 $119 #
plane-surface $-1 -36.623346636179875 -16.766871271344176 68.770695012643273 0.57357644374324357 0 0.81915203911291934 0.81915203911291934 0 -0.57357644374324357 forward_v I I I I #
loop $-1 $-1 $296 $76 #
coedge $-1 $194 $194 $195 $297 reversed $120 $-1 #
coedge $-1 $195 $195 $194 $297 forward $122 $-1 #
coedge $-1 $196 $196 $123 $197 forward $191 $-1 #
edge $-1 $298 0 $298 6.2831853071796004 $196 $299 forward 7 unknown #
face $-1 $300 $301 $41 $-1 $302 reversed single #
loop $-1 $-1 $204 $124 #
plane-surface $-1 57.376018555253765 0 0 -1 0 0 0 0 1 forward_v I I I I #
coedge $-1 $303 $304 $305 $306 reversed $125 $-1 #
coedge $-1 $203 $127 $307 $308 reversed $80 $-1 #
coedge $-1 $127 $202 $303 $309 reversed $80 $-1 #
coedge $-1 $305 $310 $127 $205 forward $199 $-1 #
edge $-1 $311 73.63473300532003 $312 78.433400447532804 $204 $313 forward 7 unknown #
loop $-1 $-1 $211 $128 #
plane-surface $-1 -36.623346636179875 25.923083188978538 68.770695012643273 0.57357644374324357 0 0.81915203911291934 0.81915203911291934 0 -0.57357644374324357 forward_v I I I I #
loop $-1 $-1 $314 $82 #
coedge $-1 $209 $209 $210 $315 reversed $129 $-1 #
coedge $-1 $210 $210 $209 $315 forward $131 $-1 #
coedge $-1 $211 $211 $132 $212 forward $206 $-1 #
edge $-1 $316 0 $316 6.2831853071796004 $211 $317 forward 7 unknown #
loop $-1 $-1 $218 $133 #
plane-surface $-1 -36.623346636179875 25.923083188978538 68.770695012643273 0.57357644374324357 0 0.81915203911291934 0.81915203911291934 0 -0.57357644374324357 forward_v I I I I #
loop $-1 $-1 $318 $85 #
coedge $-1 $216 $216 $217 $319 reversed $134 $-1 #
coedge $-1 $217 $217 $216 $319 forward $136 $-1 #
coedge $-1 $218 $218 $137 $219 forward $213 $-1 #
edge $-1 $320 0 $320 6.2831853071796004 $218 $321 forward 7 unknown #
face $-1 $322 $323 $33 $-1 $324 reversed single #
loop $-1 $-1 $325 $138 #
plane-surface $-1 -57.376018555253765 0 0 1 0 0 0 0 -1 forward_v I I I I #
coedge $-1 $326 $231 $327 $328 forward $139 $-1 #
coedge $-1 $329 $141 $326 $330 forward $89 $-1 #
coedge $-1 $141 $329 $331 $332 forward $89 $-1 #
coedge $-1 $234 $233 $141 $227 reversed $235 $-1 #
edge $-1 $333 -31.324886206926379 $334 31.324886206926379 $226 $335 forward 7 unknown #
coedge $-1 $143 $142 $336 $337 forward $56 $-1 #
coedge $-1 $338 $339 $142 $230 reversed $323 $-1 #
edge $-1 $237 -57.376018555253765 $340 57.376018555253765 $229 $341 forward 7 unknown #
coedge $-1 $223 $342 $143 $232 reversed $139 $-1 #
edge $-1 $343 -57.376018555253765 $236 57.376018555253765 $231 $344 forward 7 unknown #
coedge $-1 $226 $144 $342 $345 forward $235 $-1 #
coedge $-1 $144 $226 $338 $346 reversed $235 $-1 #
loop $-1 $-1 $233 $322 #
vertex $-1 $145 $347 #
vertex $-1 $145 $348 #
straight-curve $-1 57.376018555253765 0 7.7502970967184321 0 1 0 I I #
face $-1 $349 $350 $34 $-1 $351 reversed single #
loop $-1 $-1 $352 $146 #
plane-surface $-1 0 -35.902992165743562 -1.7748703914417323 0 0 1 1 0 0 forward_v I I I I #
coedge $-1 $152 $353 $354 $355 forward $147 $-1 #
coedge $-1 $356 $149 $357 $358 reversed $93 $-1 #
coedge $-1 $149 $356 $249 $359 reversed $93 $-1 #
edge $-1 $250 -1.2251296085582677 $360 1.7748703914417323 $149 $361 forward 7 unknown #
coedge $-1 $151 $150 $362 $363 forward $59 $-1 #
coedge $-1 $354 $364 $150 $248 forward $365 $-1 #
edge $-1 $366 -1.7748703914417323 $251 1.2251296085582677 $247 $367 forward 7 unknown #
coedge $-1 $353 $152 $244 $359 forward $147 $-1 #
vertex $-1 $245 $368 #
vertex $-1 $355 $369 #
straight-curve $-1 0 -31.324886206926379 1.2251296085582677 1 0 0 I I #
face $-1 $-1 $370 $35 $-1 $371 reversed single #
loop $-1 $-1 $160 $154 #
plane-surface $-1 0 0 7.7502970967184321 0 0 1 1 0 0 forward_v I I I I #
coedge $-1 $372 $373 $374 $375 reversed $155 $-1 #
coedge $-1 $376 $157 $159 $263 forward $97 $-1 #
coedge $-1 $157 $376 $372 $377 forward $97 $-1 #
coedge $-1 $374 $160 $157 $260 forward $254 $-1 #
edge $-1 $266 -6.3600805415391886 $378 -0.35946723741315445 $259 $379 forward 7 unknown #
coedge $-1 $380 $381 $158 $262 forward $370 $-1 #
edge $-1 $382 -35.009947220099164 $265 -31.000942190857522 $261 $383 forward 7 unknown #
edge $-1 $266 -5.2333843315299609 $382 2.2061860048766535e-014 $159 $384 forward 7 unknown #
coedge $-1 $160 $374 $380 $385 forward $254 $-1 #
vertex $-1 $262 $386 #
vertex $-1 $161 $387 #
straight-curve $-1 -72.640589935624831 -9.7198544310153601 7.7502970967184339 1 0 0 I I #
coedge $-1 $268 $268 $-1 $388 reversed $164 $-1 #
edge $-1 $389 0 $389 6.2831853071796004 $165 $390 forward 7 unknown #
vertex $-1 $168 $391 #
ellipse-curve $-1 -55.694041278577686 -8.0053934869793508 5.7457945820976128 -0.7660444514056185 0 0.64278759981090561 0.1606968999527264 0 0.19151111285140462 1 I I #
coedge $-1 $272 $272 $-1 $392 reversed $171 $-1 #
edge $-1 $393 0 $393 6.2831853071796004 $172 $394 forward 7 unknown #
vertex $-1 $175 $395 #
ellipse-curve $-1 -55.694041278577686 -5.4337020709253352 5.7457945820976128 -0.7660444514056185 0 0.64278759981090561 0.1606968999527264 0 0.19151111285140462 1 I I #
face $-1 $-1 $288 $38 $-1 $396 forward single #
loop $-1 $-1 $397 $176 #
plane-surface $-1 57.376018555253765 0 0 -1 0 0 0 0 1 forward_v I I I I #
coedge $-1 $398 $399 $400 $401 reversed $177 $-1 #
coedge $-1 $402 $179 $181 $286 forward $111 $-1 #
coedge $-1 $179 $402 $398 $403 forward $111 $-1 #
coedge $-1 $400 $182 $179 $283 forward $288 $-1 #
edge $-1 $290 2.9816326177242498 $404 13.785238653619926 $282 $405 forward 7 unknown #
coedge $-1 $406 $407 $180 $285 forward $277 $-1 #
edge $-1 $408 -78.433400447532804 $289 -73.63473300532003 $284 $409 forward 7 unknown #
edge $-1 $290 106.38581584295343 $408 114.75203711050753 $181 $410 forward 7 unknown #
coedge $-1 $182 $400 $406 $411 forward $288 $-1 #
loop $-1 $-1 $400 $276 #
vertex $-1 $285 $412 #
vertex $-1 $183 $413 #
straight-curve $-1 14.597859360978873 -11.365068253396338 7.7502970967184268 -1 0 0 I I #
coedge $-1 $292 $292 $-1 $414 reversed $186 $-1 #
edge $-1 $415 0 $415 6.2831853071796004 $187 $416 forward 7 unknown #
vertex $-1 $190 $417 #
ellipse-curve $-1 53.949414949760339 -19.081929707607536 5.3509633756120474 0.57357644374324357 0 0.81915203911291934 1.228728058669379 0 -0.86036466561486535 1 I I #
coedge $-1 $296 $296 $-1 $418 reversed $193 $-1 #
edge $-1 $419 0 $419 6.2831853071796004 $194 $420 forward 7 unknown #
vertex $-1 $197 $421 #
ellipse-curve $-1 53.949414949760339 -14.451812835080815 5.3509633756120474 0.57357644374324357 0 0.81915203911291934 1.228728058669379 0 -0.86036466561486535 1 I I #
face $-1 $-1 $422 $41 $-1 $423 forward single #
loop $-1 $-1 $424 $198 #
plane-surface $-1 0 31.324886206926379 0 0 -1 0 0 0 -1 forward_v I I I I #
coedge $-1 $425 $201 $203 $309 forward $125 $-1 #
coedge $-1 $201 $425 $424 $426 reversed $125 $-1 #
coedge $-1 $427 $204 $201 $306 forward $199 $-1 #
edge $-1 $312 7.5597385765414309 $428 18.36334461243711 $305 $429 forward 7 unknown #
coedge $-1 $430 $431 $202 $308 forward $422 $-1 #
edge $-1 $432 35.924951983288068 $311 42.778159194274892 $307 $433 forward 7 unknown #
edge $-1 $312 -114.75203711050753 $432 -106.38581584295343 $203 $434 forward 7 unknown #
coedge $-1 $204 $427 $430 $435 reversed $199 $-1 #
vertex $-1 $435 $436 #
vertex $-1 $205 $437 #
straight-curve $-1 57.376018555253765 20.5212801710307 81.385030102038456 0 0 -1 I I #
coedge $-1 $314 $314 $-1 $438 reversed $208 $-1 #
edge $-1 $439 0 $439 6.2831853071796004 $209 $440 forward 7 unknown #
vertex $-1 $212 $441 #
ellipse-curve $-1 53.949414949760339 23.608024752715181 5.3509633756120474 0.57357644374324357 0 0.81915203911291934 1.228728058669379 0 -0.86036466561486535 1 I I #
coedge $-1 $318 $318 $-1 $442 reversed $215 $-1 #
edge $-1 $443 0 $443 6.2831853071796004 $216 $444 forward 7 unknown #
vertex $-1 $219 $445 #
ellipse-curve $-1 53.949414949760339 28.238141625241902 5.3509633756120474 0.57357644374324357 0 0.81915203911291934 1.228728058669379 0 -0.86036466561486535 1 I I #
face $-1 $-1 $235 $33 $-1 $446 reversed single #
loop $-1 $-1 $338 $220 #
plane-surface $-1 0 31.324886206926379 0 0 -1 0 0 0 -1 forward_v I I I I #
coedge $-1 $447 $336 $339 $448 forward $221 $-1 #
coedge $-1 $342 $223 $224 $330 reversed $139 $-1 #
coedge $-1 $336 $447 $223 $328 reversed $221 $-1 #
edge $-1 $343 -7.7502970967184321 $449 7.7502970967184321 $327 $450 forward 7 unknown #
coedge $-1 $225 $224 $447 $451 forward $89 $-1 #
edge $-1 $334 -57.376018555253765 $449 57.376018555253765 $326 $452 forward 7 unknown #
coedge $-1 $339 $338 $225 $332 reversed $323 $-1 #
edge $-1 $453 -57.376018555253765 $333 57.376018555253765 $331 $454 forward 7 unknown #
vertex $-1 $227 $455 #
vertex $-1 $345 $456 #
straight-curve $-1 57.376018555253765 0 -7.7502970967184321 0 -1 0 I I #
coedge $-1 $325 $327 $228 $337 reversed $221 $-1 #
edge $-1 $340 -31.324886206926379 $343 31.324886206926379 $336 $457 forward 7 unknown #
coedge $-1 $331 $229 $234 $346 forward $323 $-1 #
coedge $-1 $229 $331 $325 $448 reversed $323 $-1 #
vertex $-1 $230 $458 #
straight-curve $-1 0 31.324886206926379 7.7502970967184321 -1 0 0 I I #
coedge $-1 $231 $326 $233 $345 reversed $139 $-1 #
vertex $-1 $337 $459 #
straight-curve $-1 0 -31.324886206926379 7.7502970967184321 1 0 0 I I #
edge $-1 $236 -7.7502970967184321 $334 7.7502970967184321 $233 $460 forward 7 unknown #
edge $-1 $237 -7.7502970967184321 $333 7.7502970967184321 $234 $461 forward 7 unknown #
point $-1 57.376018555253765 -31.324886206926379 7.7502970967184321 #
point $-1 57.376018555253765 31.324886206926379 7.7502970967184321 #
face $-1 $-1 $365 $34 $-1 $462 reversed single #
loop $-1 $-1 $463 $239 #
plane-surface $-1 0 -40.481098124560745 -0.27487039144173231 0 1 0 0 0 1 forward_v I I I I #
coedge $-1 $464 $362 $364 $465 forward $240 $-1 #
coedge $-1 $242 $249 $466 $467 forward $147 $-1 #
coedge $-1 $468 $247 $242 $355 reversed $365 $-1 #
edge $-1 $469 -4.5781059588171829 $251 4.5781059588171829 $354 $470 forward 7 unknown #
coedge $-1 $244 $243 $463 $471 reversed $93 $-1 #
coedge $-1 $362 $464 $243 $358 forward $240 $-1 #
edge $-1 $472 -4.5781059588171829 $360 4.5781059588171829 $243 $473 forward 7 unknown #
edge $-1 $250 -4.5781059588171829 $474 4.5781059588171829 $244 $475 forward 7 unknown #
vertex $-1 $245 $476 #
straight-curve $-1 -57.376018555253765 -31.324886206926379 0 0 0 -1 I I #
coedge $-1 $352 $357 $246 $363 reversed $240 $-1 #
edge $-1 $366 -57.376018555253765 $360 57.376018555253765 $362 $477 forward 7 unknown #
coedge $-1 $247 $468 $352 $465 reversed $365 $-1 #
loop $-1 $-1 $247 $349 #
vertex $-1 $248 $478 #
straight-curve $-1 57.376018555253765 -31.324886206926379 0 0 0 1 I I #
point $-1 -57.376018555253765 -31.324886206926379 1.2251296085582677 #
point $-1 57.376018555253765 -31.324886206926379 1.2251296085582677 #
loop $-1 $-1 $261 $253 #
plane-surface $-1 -57.376018555253765 0 0 1 0 0 0 0 -1 forward_v I I I I #
coedge $-1 $373 $256 $258 $377 reversed $155 $-1 #
coedge $-1 $256 $372 $479 $480 reversed $155 $-1 #
coedge $-1 $264 $259 $256 $375 forward $254 $-1 #
edge $-1 $378 -18.628525933723225 $481 -15.264571380371066 $374 $482 forward 7 unknown #
coedge $-1 $258 $257 $381 $483 reversed $97 $-1 #
edge $-1 $484 -2.2061860048766535e-014 $378 5.2333843315299609 $372 $485 forward 7 unknown #
vertex $-1 $260 $486 #
straight-curve $-1 -54.012064001901607 -3.3597738894761715 7.7502970967184321 0 1 0 I I #
coedge $-1 $479 $261 $264 $385 reversed $370 $-1 #
coedge $-1 $261 $479 $376 $483 forward $370 $-1 #
vertex $-1 $262 $487 #
straight-curve $-1 -57.376018555253765 -9.7198544310153601 38.751239287575956 0 0 1 I I #
straight-curve $-1 -57.376018555253751 -9.7198544310153601 3.741292067476806 -0.64278759981090561 0 -0.7660444514056185 I I #
edge $-1 $481 3.719241126889326 $265 9.7198544310153601 $380 $488 forward 7 unknown #
point $-1 -57.376018555253765 -9.7198544310153601 7.7502970967184321 #
point $-1 -54.012064001901607 -9.7198544310153601 7.7502970967184321 #
edge $-1 $489 1 $489 0 $268 $-1 forward 7 unknown #
vertex $-1 $269 $490 #
ellipse-curve $-1 -54.927996827172073 -8.0053934869793508 5.1030069822867139 -0.7660444514056185 0 0.64278759981090561 0.1606968999527264 0 0.19151111285140462 1 I I #
point $-1 -55.533344378624967 -8.0053934869793508 5.9373056949490239 #
edge $-1 $491 1 $491 0 $272 $-1 forward 7 unknown #
vertex $-1 $273 $492 #
ellipse-curve $-1 -54.927996827172073 -5.4337020709253352 5.1030069822867139 -0.7660444514056185 0 0.64278759981090561 0.1606968999527264 0 0.19151111285140462 1 I I #
point $-1 -55.533344378624967 -5.4337020709253352 5.9373056949490239 #
plane-surface $-1 0 0 7.7502970967184321 0 0 1 1 0 0 forward_v I I I I #
coedge $-1 $407 $406 $399 $493 forward $277 $-1 #
coedge $-1 $399 $279 $281 $403 reversed $177 $-1 #
coedge $-1 $279 $398 $397 $493 reversed $177 $-1 #
coedge $-1 $287 $282 $279 $401 forward $288 $-1 #
edge $-1 $404 35.924951983288068 $494 42.778159194274892 $400 $495 forward 7 unknown #
coedge $-1 $281 $280 $407 $496 reversed $111 $-1 #
edge $-1 $497 -114.75203711050753 $404 -106.38581584295343 $398 $498 forward 7 unknown #
vertex $-1 $283 $499 #
straight-curve $-1 50.522811344266934 -8.3834356356720878 7.7502970967184339 0 -1 0 I I #
coedge $-1 $397 $284 $287 $411 reversed $277 $-1 #
coedge $-1 $284 $397 $402 $496 forward $277 $-1 #
vertex $-1 $285 $500 #
straight-curve $-1 57.376018555253765 -11.365068253396338 81.385030102038456 0 0 1 I I #
straight-curve $-1 -36.623346636179875 -11.365068253396338 68.770695012643273 0.81915203911291934 0 -0.57357644374324357 I I #
edge $-1 $494 -22.168674289292014 $289 -11.365068253396338 $406 $501 forward 7 unknown #
point $-1 57.376018555253765 -11.365068253396338 7.7502970967184321 #
point $-1 50.522811344266941 -11.365068253396338 7.7502970967184268 #
edge $-1 $502 1 $502 0 $292 $-1 forward 7 unknown #
vertex $-1 $293 $503 #
ellipse-curve $-1 52.948522567529054 -19.081929707607536 3.9215409424195862 0.57357644374324357 0 0.81915203911291934 1.228728058669379 0 -0.86036466561486535 1 I I #
point $-1 55.178143008429736 -19.081929707607536 4.4905987099972027 #
edge $-1 $504 1 $504 0 $296 $-1 forward 7 unknown #
vertex $-1 $297 $505 #
ellipse-curve $-1 52.948522567529054 -14.451812835080815 3.9215409424195862 0.57357644374324357 0 0.81915203911291934 1.228728058669379 0 -0.86036466561486535 1 I I #
point $-1 55.178143008429736 -14.451812835080815 4.4905987099972027 #
loop $-1 $-1 $307 $300 #
plane-surface $-1 0 0 7.7502970967184321 0 0 1 1 0 0 forward_v I I I I #
coedge $-1 $506 $507 $304 $426 forward $301 $-1 #
coedge $-1 $304 $303 $431 $508 reversed $125 $-1 #
edge $-1 $428 -80.029367232872943 $509 -71.663145965318847 $424 $510 forward 7 unknown #
coedge $-1 $310 $305 $507 $511 reversed $199 $-1 #
vertex $-1 $426 $512 #
straight-curve $-1 57.376018555253765 12.961541594489269 2.951629654505652 0 1 0 I I #
coedge $-1 $513 $307 $310 $435 forward $422 $-1 #
coedge $-1 $307 $513 $425 $508 forward $422 $-1 #
vertex $-1 $308 $514 #
straight-curve $-1 14.597859360978873 20.5212801710307 7.7502970967184268 1 0 0 I I #
straight-curve $-1 -36.623346636179875 20.5212801710307 68.770695012643273 -0.81915203911291934 0 0.57357644374324357 I I #
edge $-1 $311 20.5212801710307 $515 31.324886206926379 $310 $516 forward 7 unknown #
point $-1 57.376018555253765 20.5212801710307 7.7502970967184321 #
point $-1 57.376018555253765 20.5212801710307 2.951629654505652 #
edge $-1 $517 1 $517 0 $314 $-1 forward 7 unknown #
vertex $-1 $315 $518 #
ellipse-curve $-1 52.948522567529054 23.608024752715181 3.9215409424195862 0.57357644374324357 0 0.81915203911291934 1.228728058669379 0 -0.86036466561486535 1 I I #
point $-1 55.178143008429736 23.608024752715181 4.4905987099972027 #
edge $-1 $519 1 $519 0 $318 $-1 forward 7 unknown #
vertex $-1 $319 $520 #
ellipse-curve $-1 52.948522567529054 28.238141625241902 3.9215409424195862 0.57357644374324357 0 0.81915203911291934 1.228728058669379 0 -0.86036466561486535 1 I I #
point $-1 55.178143008429736 28.238141625241902 4.4905987099972027 #
plane-surface $-1 57.376018555253765 0 0 -1 0 0 0 0 1 forward_v I I I I #
coedge $-1 $327 $325 $329 $451 reversed $221 $-1 #
edge $-1 $340 -7.7502970967184321 $453 7.7502970967184321 $339 $521 forward 7 unknown #
vertex $-1 $451 $522 #
straight-curve $-1 -57.376018555253765 -31.324886206926379 0 0 0 -1 I I #
edge $-1 $449 -31.324886206926379 $453 31.324886206926379 $447 $523 forward 7 unknown #
straight-curve $-1 0 -31.324886206926379 -7.7502970967184321 -1 0 0 I I #
vertex $-1 $332 $524 #
straight-curve $-1 0 31.324886206926379 -7.7502970967184321 1 0 0 I I #
point $-1 57.376018555253765 31.324886206926379 -7.7502970967184321 #
point $-1 57.376018555253765 -31.324886206926379 -7.7502970967184321 #
straight-curve $-1 -57.376018555253765 0 7.7502970967184321 0 -1 0 I I #
point $-1 -57.376018555253765 31.324886206926379 7.7502970967184321 #
point $-1 -57.376018555253765 -31.324886206926379 7.7502970967184321 #
straight-curve $-1 57.376018555253765 -31.324886206926379 0 0 0 -1 I I #
straight-curve $-1 57.376018555253765 31.324886206926379 0 0 0 -1 I I #
plane-surface $-1 57.376018555253765 0 0 -1 0 0 0 0 1 forward_v I I I I #
coedge $-1 $525 $466 $356 $471 forward $350 $-1 #
coedge $-1 $357 $352 $525 $526 forward $240 $-1 #
edge $-1 $366 -4.5781059588171829 $527 4.5781059588171829 $364 $528 forward 7 unknown #
coedge $-1 $463 $529 $353 $467 reversed $350 $-1 #
edge $-1 $474 -57.376018555253765 $469 57.376018555253765 $466 $530 forward 7 unknown #
coedge $-1 $364 $354 $529 $531 forward $365 $-1 #
vertex $-1 $355 $532 #
straight-curve $-1 57.376018555253765 -35.902992165743562 1.2251296085582677 0 1 0 I I #
edge $-1 $474 -1.5 $472 1.5 $356 $533 forward 7 unknown #
vertex $-1 $358 $534 #
straight-curve $-1 -57.376018555253765 -35.902992165743562 -1.7748703914417323 0 1 0 I I #
vertex $-1 $359 $535 #
straight-curve $-1 -57.376018555253765 -35.902992165743562 1.2251296085582677 0 -1 0 I I #
point $-1 -57.376018555253765 -31.324886206926379 -1.7748703914417323 #
straight-curve $-1 0 -31.324886206926379 -1.7748703914417323 -1 0 0 I I #
point $-1 57.376018555253765 -31.324886206926379 -1.7748703914417323 #
coedge $-1 $381 $380 $373 $480 forward $370 $-1 #
edge $-1 $481 31.000942190857522 $484 35.009947220099164 $479 $536 forward 7 unknown #
vertex $-1 $385 $537 #
straight-curve $-1 -72.640589935624831 -3.719241126889326 7.7502970967184339 -1 0 0 I I #
edge $-1 $484 0.35946723741315445 $382 6.3600805415391886 $381 $538 forward 7 unknown #
vertex $-1 $483 $539 #
straight-curve $-1 -57.376018555253751 -3.719241126889326 3.741292067476806 0.64278759981090561 0 0.7660444514056185 I I #
point $-1 -54.012064001901607 -3.719241126889326 7.7502970967184321 #
point $-1 -57.376018555253765 -9.7198544310153601 3.7412920674767891 #
straight-curve $-1 -57.376018555253765 0 7.7502970967184321 0 -1 0 I I #
vertex $-1 $388 $540 #
point $-1 -54.767299927219348 -8.0053934869793508 5.2945180951381179 #
vertex $-1 $392 $541 #
point $-1 -54.767299927219348 -5.4337020709253352 5.2945180951381179 #
edge $-1 $494 73.63473300532003 $497 78.433400447532804 $397 $542 forward 7 unknown #
vertex $-1 $411 $543 #
straight-curve $-1 14.597859360978873 -22.168674289292014 7.7502970967184268 1 0 0 I I #
edge $-1 $497 -13.785238653619926 $408 -2.9816326177242498 $407 $544 forward 7 unknown #
vertex $-1 $496 $545 #
straight-curve $-1 -36.623346636179875 -22.168674289292014 68.770695012643273 -0.81915203911291934 0 0.57357644374324357 I I #
point $-1 50.522811344266941 -22.168674289292014 7.7502970967184268 #
point $-1 57.376018555253765 -11.365068253396338 2.951629654505652 #
straight-curve $-1 57.376018555253765 0 7.7502970967184321 0 1 0 I I #
vertex $-1 $414 $546 #
point $-1 54.177250626198429 -19.081929707607536 3.061176276804721 #
vertex $-1 $418 $547 #
point $-1 54.177250626198429 -14.451812835080815 3.061176276804721 #
coedge $-1 $507 $424 $513 $548 reversed $301 $-1 #
coedge $-1 $424 $506 $427 $511 forward $301 $-1 #
edge $-1 $509 -18.363344612437107 $432 -7.5597385765414309 $431 $549 forward 7 unknown #
vertex $-1 $426 $550 #
straight-curve $-1 -8.1802008024707646 31.324886206926379 48.85458950695898 -0.81915203911291934 0 0.57357644374324357 I I #
edge $-1 $515 -7.7502970967184321 $428 -2.9516296545056497 $427 $551 forward 7 unknown #
point $-1 57.376018555253765 31.324886206926379 2.9516296545056497 #
coedge $-1 $431 $430 $506 $548 forward $422 $-1 #
point $-1 50.522811344266941 20.5212801710307 7.7502970967184268 #
vertex $-1 $435 $552 #
straight-curve $-1 57.376018555253765 0 7.7502970967184321 0 1 0 I I #
vertex $-1 $438 $553 #
point $-1 54.177250626198429 23.608024752715181 3.061176276804721 #
vertex $-1 $442 $554 #
point $-1 54.177250626198429 28.238141625241902 3.061176276804721 #
straight-curve $-1 -57.376018555253765 31.324886206926379 0 0 0 -1 I I #
point $-1 -57.376018555253765 -31.324886206926379 -7.7502970967184321 #
straight-curve $-1 -57.376018555253765 0 -7.7502970967184321 0 1 0 I I #
point $-1 -57.376018555253765 31.324886206926379 -7.7502970967184321 #
coedge $-1 $529 $463 $464 $526 reversed $350 $-1 #
edge $-1 $527 -57.376018555253765 $472 57.376018555253765 $525 $555 forward 7 unknown #
vertex $-1 $531 $556 #
straight-curve $-1 57.376018555253765 -35.902992165743562 -1.7748703914417323 0 -1 0 I I #
coedge $-1 $466 $525 $468 $531 reversed $350 $-1 #
straight-curve $-1 0 -40.481098124560745 1.2251296085582677 1 0 0 I I #
edge $-1 $469 -1.5 $527 1.5 $468 $557 forward 7 unknown #
point $-1 57.376018555253765 -40.481098124560745 1.2251296085582677 #
straight-curve $-1 -57.376018555253765 -40.481098124560745 -0.27487039144173231 0 0 -1 I I #
point $-1 -57.376018555253765 -40.481098124560745 -1.7748703914417323 #
point $-1 -57.376018555253765 -40.481098124560745 1.2251296085582677 #
straight-curve $-1 -57.376018555253765 -3.719241126889326 38.751239287575956 0 0 -1 I I #
point $-1 -57.376018555253765 -3.719241126889326 7.7502970967184321 #
straight-curve $-1 -57.376018555253765 -3.3597738894761715 3.7412920674767873 0 -1 0 I I #
point $-1 -57.376018555253765 -3.719241126889326 3.7412920674767891 #
point $-1 -54.736485714320672 -8.0053934869793508 4.9423100823339867 #
point $-1 -54.736485714320672 -5.4337020709253352 4.9423100823339867 #
straight-curve $-1 57.376018555253765 -22.168674289292014 81.385030102038456 0 0 -1 I I #
point $-1 57.376018555253765 -22.168674289292014 7.7502970967184321 #
straight-curve $-1 57.376018555253765 -8.3834356356720878 2.951629654505652 0 1 0 I I #
point $-1 57.376018555253765 -22.168674289292014 2.951629654505652 #
point $-1 52.088157901914187 -19.081929707607536 2.6928128837502072 #
point $-1 52.088157901914187 -14.451812835080815 2.6928128837502072 #
edge $-1 $515 -57.376018555253765 $509 -50.522811344266941 $506 $558 forward 7 unknown #
straight-curve $-1 50.522811344266934 12.961541594489269 7.7502970967184339 0 -1 0 I I #
point $-1 50.522811344266941 31.324886206926376 7.7502970967184268 #
straight-curve $-1 57.376018555253765 31.324886206926379 0 0 0 -1 I I #
point $-1 57.376018555253765 31.324886206926379 7.7502970967184321 #
point $-1 52.088157901914187 23.608024752715181 2.6928128837502072 #
point $-1 52.088157901914187 28.238141625241902 2.6928128837502072 #
straight-curve $-1 0 -40.481098124560745 -1.7748703914417323 -1 0 0 I I #
point $-1 57.376018555253765 -40.481098124560745 -1.7748703914417323 #
straight-curve $-1 57.376018555253765 -40.481098124560745 -0.27487039144173231 0 0 -1 I I #
straight-curve $-1 0 31.324886206926379 7.7502970967184321 -1 0 0 I I #
End-of-ACIS-data 