500 0 5 0           
7 Unknown 11 ACIS 5.0 NT 24 Thu Mar 25 17:34:58 1999 
-1 9.9999999999999995e-007 1e-010 
body $-1 $5 $-1 $6 #
body $-1 $7 $-1 $8 #
body $-1 $9 $-1 $10 #
body $-1 $11 $-1 $12 #
body $-1 $13 $-1 $14 #
lump $-1 $-1 $15 $0 #
transform $-1 1 0 0 0 1 0 0 0 1 59.662465285195474 34.821525272595458 16.739666923853989 1 rotate no_reflect no_shear #
lump $-1 $-1 $16 $1 #
transform $-1 1 0 0 0 1 0 0 0 1 59.662465285195474 34.821525272595458 16.739666923853989 1 rotate no_reflect no_shear #
lump $-1 $-1 $17 $2 #
transform $-1 1 0 0 0 1 0 0 0 1 59.662465285195474 34.821525272595458 16.739666923853989 1 rotate no_reflect no_shear #
lump $-1 $-1 $18 $3 #
transform $-1 1 0 0 0 1 0 0 0 1 59.662465285195474 34.821525272595458 16.739666923853989 1 rotate no_reflect no_shear #
lump $-1 $-1 $19 $4 #
transform $-1 1 0 0 0 1 0 0 0 1 59.662465285195474 34.821525272595458 16.739666923853989 1 rotate no_reflect no_shear #
shell $-1 $-1 $-1 $20 $-1 $5 #
shell $-1 $-1 $-1 $21 $-1 $7 #
shell $-1 $-1 $-1 $22 $-1 $9 #
shell $-1 $-1 $-1 $23 $-1 $11 #
shell $-1 $-1 $-1 $24 $-1 $13 #
face $-1 $25 $26 $15 $-1 $27 reversed single #
face $-1 $28 $29 $16 $-1 $30 forward single #
face $-1 $31 $32 $17 $-1 $33 reversed single #
face $-1 $34 $35 $18 $-1 $36 forward single #
face $-1 $37 $38 $19 $-1 $39 forward single #
face $-1 $40 $41 $15 $-1 $42 forward single #
loop $-1 $-1 $43 $20 #
plane-surface $-1 0 -34.821525272595458 0 0 1 0 0 0 1 forward_v I I I I #
face $-1 $44 $45 $16 $-1 $46 reversed single #
loop $-1 $-1 $47 $21 #
plane-surface $-1 0 -34.821525272595458 0 0 1 0 0 0 1 forward_v I I I I #
face $-1 $48 $49 $17 $-1 $50 reversed single #
loop $-1 $-1 $51 $22 #
plane-surface $-1 4.0977767433449337 34.171340657283857 150.28776976761407 1 0 0 0 -0.50000000669873634 -0.8660253999169214 forward_v I I I I #
face $-1 $52 $53 $18 $-1 $54 forward single #
loop $-1 $55 $56 $23 #
cone-surface $-1 12.924957212075576 29.420526237383918 11.996705715834125 0 -0.50000000669873634 -0.8660253999169214 1.5 0 0 1 I I 0 1 1.5 forward I I I I #
face $-1 $57 $58 $19 $-1 $59 forward single #
loop $-1 $60 $61 $24 #
cone-surface $-1 26.165727915171537 29.420526237383918 11.996705715834125 0 -0.50000000669873634 -0.8660253999169214 1.5 0 0 1 I I 0 1 1.5 forward I I I I #
face $-1 $62 $63 $15 $-1 $64 reversed single #
loop $-1 $-1 $65 $25 #
plane-surface $-1 0 0 16.739666923853989 0 0 1 1 0 0 forward_v I I I I #
coedge $-1 $66 $67 $68 $69 reversed $26 $-1 #
face $-1 $70 $71 $16 $-1 $72 reversed single #
loop $-1 $-1 $73 $28 #
plane-surface $-1 0 0 -16.739666923853989 0 0 1 1 0 0 forward_v I I I I #
coedge $-1 $74 $75 $76 $77 forward $29 $-1 #
face $-1 $78 $79 $17 $-1 $80 reversed single #
loop $-1 $-1 $81 $31 #
plane-surface $-1 19.545342563623556 -25.491125427237876 46.949349050332359 0 0.50000000669873634 0.8660253999169214 1 0 0 forward_v I I I I #
coedge $-1 $82 $83 $84 $85 reversed $32 $-1 #
face $-1 $-1 $86 $18 $-1 $87 forward single #
loop $-1 $88 $89 $34 #
cone-surface $-1 12.924957212075576 27.638500852627907 8.9101472641953485 0 -0.50000000669873634 -0.8660253999169214 0.75 0 0 1 I I -0.70710678118654757 0.70710678118654757 0.75 forward I I I I #
loop $-1 $-1 $90 $23 #
coedge $-1 $56 $56 $91 $92 reversed $35 $-1 #
face $-1 $-1 $93 $19 $-1 $94 forward single #
loop $-1 $95 $96 $37 #
cone-surface $-1 26.165727915171537 27.638500852627907 8.9101472641953485 0 -0.50000000669873634 -0.8660253999169214 0.75 0 0 1 I I -0.70710678118654757 0.70710678118654757 0.75 forward I I I I #
loop $-1 $-1 $97 $24 #
coedge $-1 $61 $61 $98 $99 reversed $38 $-1 #
face $-1 $100 $101 $15 $-1 $102 reversed single #
loop $-1 $-1 $103 $40 #
plane-surface $-1 0 0 -16.739666923853989 0 0 1 1 0 0 forward_v I I I I #
coedge $-1 $104 $105 $106 $107 forward $41 $-1 #
coedge $-1 $108 $43 $109 $110 reversed $26 $-1 #
coedge $-1 $43 $108 $111 $112 forward $26 $-1 #
coedge $-1 $113 $103 $43 $69 forward $63 $-1 #
edge $-1 $114 -59.662465285195474 $115 59.662465285195474 $43 $116 forward 7 unknown #
face $-1 $117 $118 $16 $-1 $119 reversed single #
loop $-1 $-1 $120 $44 #
plane-surface $-1 -30.39877697992198 -54.086972781943636 0 0 1 0 0 0 1 forward_v I I I I #
coedge $-1 $121 $122 $75 $123 forward $45 $-1 #
coedge $-1 $124 $47 $125 $126 reversed $29 $-1 #
coedge $-1 $47 $124 $73 $123 reversed $29 $-1 #
coedge $-1 $127 $128 $47 $77 reversed $118 $-1 #
edge $-1 $129 -16.739666923853989 $130 16.739666923853989 $76 $131 forward 7 unknown #
face $-1 $132 $133 $17 $-1 $134 forward single #
loop $-1 $-1 $135 $48 #
plane-surface $-1 34.992908383902176 34.171340657283857 150.28776976761407 -1 0 0 0 0.50000000669873634 0.8660253999169214 forward_v I I I I #
coedge $-1 $136 $137 $138 $139 reversed $49 $-1 #
coedge $-1 $83 $51 $140 $141 reversed $32 $-1 #
coedge $-1 $51 $82 $136 $142 reversed $32 $-1 #
coedge $-1 $138 $143 $51 $85 forward $133 $-1 #
edge $-1 $144 -17.73585494395353 $145 -9.7479076329944228 $84 $146 forward 7 unknown #
loop $-1 $-1 $91 $52 #
plane-surface $-1 19.545342563623556 -25.491125427237876 46.949349050332359 0 0.50000000669873634 0.8660253999169214 1 0 0 forward_v I I I I #
loop $-1 $-1 $147 $34 #
coedge $-1 $89 $89 $90 $148 reversed $53 $-1 #
coedge $-1 $90 $90 $89 $148 forward $55 $-1 #
coedge $-1 $91 $91 $56 $92 forward $86 $-1 #
edge $-1 $149 -1.9661355866500036e-015 $149 6.2831853071795987 $91 $150 forward 7 unknown #
loop $-1 $-1 $98 $57 #
plane-surface $-1 19.545342563623556 -25.491125427237876 46.949349050332359 0 0.50000000669873634 0.8660253999169214 1 0 0 forward_v I I I I #
loop $-1 $-1 $151 $37 #
coedge $-1 $96 $96 $97 $152 reversed $58 $-1 #
coedge $-1 $97 $97 $96 $152 forward $60 $-1 #
coedge $-1 $98 $98 $61 $99 forward $93 $-1 #
edge $-1 $153 -1.9661355866500036e-015 $153 6.2831853071795987 $98 $154 forward 7 unknown #
face $-1 $155 $156 $15 $-1 $157 reversed single #
loop $-1 $-1 $158 $62 #
plane-surface $-1 -59.662465285195474 0 0 1 0 0 0 0 -1 forward_v I I I I #
coedge $-1 $68 $159 $160 $161 forward $63 $-1 #
coedge $-1 $162 $65 $163 $164 forward $41 $-1 #
coedge $-1 $65 $162 $108 $165 forward $41 $-1 #
coedge $-1 $109 $166 $65 $107 reversed $167 $-1 #
edge $-1 $168 -34.821525272595458 $169 34.821525272595458 $106 $170 forward 7 unknown #
coedge $-1 $67 $66 $105 $165 reversed $26 $-1 #
coedge $-1 $160 $106 $66 $110 forward $167 $-1 #
edge $-1 $168 -16.739666923853989 $114 16.739666923853989 $109 $171 forward 7 unknown #
coedge $-1 $172 $173 $67 $112 reversed $101 $-1 #
edge $-1 $174 -16.739666923853989 $115 16.739666923853989 $111 $175 forward 7 unknown #
coedge $-1 $159 $68 $173 $176 forward $63 $-1 #
vertex $-1 $110 $177 #
vertex $-1 $176 $178 #
straight-curve $-1 0 -34.821525272595458 -16.739666923853989 -1 0 0 I I #
face $-1 $179 $180 $16 $-1 $181 reversed single #
loop $-1 $-1 $76 $70 #
plane-surface $-1 -34.614422522356463 -44.454249027269547 0 1 0 0 0 0 -1 forward_v I I I I #
coedge $-1 $182 $183 $184 $185 forward $71 $-1 #
coedge $-1 $186 $73 $187 $188 forward $45 $-1 #
coedge $-1 $73 $186 $127 $189 forward $45 $-1 #
edge $-1 $129 -34.614422522356463 $190 -26.183131437487496 $73 $191 forward 7 unknown #
coedge $-1 $75 $74 $192 $193 forward $29 $-1 #
coedge $-1 $194 $195 $74 $126 forward $196 $-1 #
edge $-1 $197 26.183131437487496 $130 34.614422522356463 $125 $198 forward 7 unknown #
coedge $-1 $184 $76 $122 $189 reversed $118 $-1 #
coedge $-1 $76 $184 $194 $199 reversed $118 $-1 #
vertex $-1 $123 $200 #
vertex $-1 $199 $201 #
straight-curve $-1 -34.614422522356463 -34.821525272595458 0 0 0 1 I I #
face $-1 $-1 $202 $17 $-1 $203 reversed single #
loop $-1 $-1 $84 $78 #
plane-surface $-1 0 0 16.739666923853989 0 0 1 1 0 0 forward_v I I I I #
coedge $-1 $204 $205 $206 $207 reversed $79 $-1 #
coedge $-1 $208 $81 $83 $142 forward $49 $-1 #
coedge $-1 $81 $208 $204 $209 forward $49 $-1 #
coedge $-1 $206 $84 $81 $139 forward $133 $-1 #
edge $-1 $145 -5.6748945384668446 $210 25.220237102090397 $138 $211 forward 7 unknown #
coedge $-1 $212 $213 $82 $141 forward $202 $-1 #
edge $-1 $214 -63.016061572590566 $144 -58.404217959953044 $140 $215 forward 7 unknown #
edge $-1 $145 60.419363443489971 $214 69.643050545190917 $83 $216 forward 7 unknown #
coedge $-1 $84 $206 $212 $217 forward $133 $-1 #
vertex $-1 $141 $218 #
vertex $-1 $85 $219 #
straight-curve $-1 4.0977767433449337 17.085670328641928 16.739666923853989 0 -1 0 I I #
coedge $-1 $147 $147 $-1 $220 reversed $88 $-1 #
edge $-1 $221 0 $221 6.2831853071796004 $89 $222 forward 7 unknown #
vertex $-1 $92 $223 #
ellipse-curve $-1 12.924957212075576 30.827551617115891 14.433745117535235 0 0.50000000669873634 0.8660253999169214 1.5 0 0 1 I I #
coedge $-1 $151 $151 $-1 $224 reversed $95 $-1 #
edge $-1 $225 0 $225 6.2831853071796004 $96 $226 forward 7 unknown #
vertex $-1 $99 $227 #
ellipse-curve $-1 26.165727915171537 30.827551617115891 14.433745117535235 0 0.50000000669873634 0.8660253999169214 1.5 0 0 1 I I #
face $-1 $-1 $167 $15 $-1 $228 reversed single #
loop $-1 $-1 $229 $100 #
plane-surface $-1 0 34.821525272595458 0 0 -1 0 0 0 -1 forward_v I I I I #
coedge $-1 $173 $172 $230 $231 forward $101 $-1 #
coedge $-1 $103 $113 $232 $233 forward $63 $-1 #
coedge $-1 $166 $109 $103 $161 reversed $167 $-1 #
edge $-1 $234 -34.821525272595458 $114 34.821525272595458 $160 $235 forward 7 unknown #
coedge $-1 $105 $104 $172 $236 forward $41 $-1 #
coedge $-1 $229 $230 $104 $164 reversed $156 $-1 #
edge $-1 $169 -59.662465285195474 $237 59.662465285195474 $163 $238 forward 7 unknown #
edge $-1 $174 -59.662465285195474 $168 59.662465285195474 $108 $239 forward 7 unknown #
coedge $-1 $106 $160 $229 $240 reversed $167 $-1 #
loop $-1 $-1 $109 $155 #
vertex $-1 $107 $241 #
vertex $-1 $107 $242 #
straight-curve $-1 59.662465285195474 0 16.739666923853989 0 1 0 I I #
straight-curve $-1 59.662465285195474 -34.821525272595458 0 0 0 -1 I I #
coedge $-1 $158 $111 $162 $236 reversed $101 $-1 #
coedge $-1 $111 $158 $113 $176 reversed $101 $-1 #
vertex $-1 $236 $243 #
straight-curve $-1 -59.662465285195474 -34.821525272595458 0 0 0 -1 I I #
edge $-1 $115 -34.821525272595458 $244 34.821525272595458 $173 $245 forward 7 unknown #
point $-1 59.662465285195474 -34.821525272595458 -16.739666923853989 #
point $-1 -59.662465285195474 -34.821525272595458 -16.739666923853989 #
face $-1 $-1 $196 $16 $-1 $246 forward single #
loop $-1 $-1 $247 $117 #
plane-surface $-1 -26.183131437487496 -44.454249027269547 0 -1 0 0 0 0 1 forward_v I I I I #
coedge $-1 $248 $120 $186 $249 reversed $71 $-1 #
coedge $-1 $120 $248 $250 $251 reversed $71 $-1 #
coedge $-1 $128 $127 $120 $185 reversed $118 $-1 #
edge $-1 $252 -16.739666923853989 $253 16.739666923853989 $184 $254 forward 7 unknown #
coedge $-1 $122 $121 $182 $249 forward $45 $-1 #
coedge $-1 $192 $247 $121 $188 reversed $180 $-1 #
edge $-1 $190 -9.6327237546740889 $255 9.6327237546740889 $187 $256 forward 7 unknown #
edge $-1 $253 -9.6327237546740889 $129 9.6327237546740889 $127 $257 forward 7 unknown #
vertex $-1 $188 $258 #
straight-curve $-1 0 -34.821525272595458 -16.739666923853989 1 0 0 I I #
coedge $-1 $259 $187 $124 $193 reversed $180 $-1 #
edge $-1 $197 -16.739666923853989 $190 16.739666923853989 $192 $260 forward 7 unknown #
coedge $-1 $250 $125 $128 $199 forward $196 $-1 #
coedge $-1 $125 $250 $259 $261 forward $196 $-1 #
loop $-1 $-1 $125 $179 #
vertex $-1 $126 $262 #
straight-curve $-1 0 -34.821525272595458 16.739666923853989 -1 0 0 I I #
edge $-1 $130 -9.6327237546740889 $252 9.6327237546740889 $128 $263 forward 7 unknown #
point $-1 -34.614422522356463 -34.821525272595458 -16.739666923853989 #
point $-1 -34.614422522356463 -34.821525272595458 16.739666923853989 #
loop $-1 $-1 $140 $132 #
plane-surface $-1 0 34.821525272595458 0 0 -1 0 0 0 -1 forward_v I I I I #
coedge $-1 $205 $135 $137 $209 reversed $79 $-1 #
coedge $-1 $135 $204 $264 $265 reversed $79 $-1 #
coedge $-1 $143 $138 $135 $207 forward $133 $-1 #
edge $-1 $210 9.7479076329944228 $266 17.73585494395353 $206 $267 forward 7 unknown #
coedge $-1 $137 $136 $213 $268 reversed $49 $-1 #
edge $-1 $269 -69.643050545190917 $210 -60.419363443489971 $204 $270 forward 7 unknown #
vertex $-1 $139 $271 #
straight-curve $-1 9.7726712818117782 26.83357796163633 16.739666923853992 1 0 0 I I #
coedge $-1 $264 $140 $143 $217 reversed $202 $-1 #
coedge $-1 $140 $264 $208 $268 forward $202 $-1 #
vertex $-1 $141 $272 #
straight-curve $-1 4.0977767433449337 34.821525272595458 75.143884883807033 0 0 1 I I #
straight-curve $-1 4.0977767433449337 -25.491125427237876 46.949349050332359 0 0.8660253999169214 -0.50000000669873634 I I #
edge $-1 $266 -34.992908383902176 $144 -4.0977767433449337 $212 $273 forward 7 unknown #
point $-1 4.0977767433449337 34.821525272595458 16.739666923853989 #
point $-1 4.0977767433449337 26.833577961636351 16.739666923853989 #
edge $-1 $274 1 $274 0 $147 $-1 forward 7 unknown #
vertex $-1 $148 $275 #
ellipse-curve $-1 12.924957212075576 28.013500857651959 9.5596663141330396 0 0.50000000669873634 0.8660253999169214 1.5 0 0 1 I I #
point $-1 14.424957212075576 30.827551617115873 14.43374511753521 #
edge $-1 $276 1 $276 0 $151 $-1 forward 7 unknown #
vertex $-1 $152 $277 #
ellipse-curve $-1 26.165727915171537 28.013500857651959 9.5596663141330396 0 0.50000000669873634 0.8660253999169214 1.5 0 0 1 I I #
point $-1 27.665727915171537 30.827551617115873 14.43374511753521 #
plane-surface $-1 59.662465285195474 0 0 -1 0 0 0 0 1 forward_v I I I I #
coedge $-1 $232 $163 $166 $240 forward $156 $-1 #
coedge $-1 $163 $232 $158 $231 reversed $156 $-1 #
edge $-1 $237 -16.739666923853989 $244 16.739666923853989 $230 $278 forward 7 unknown #
coedge $-1 $230 $229 $159 $233 reversed $156 $-1 #
edge $-1 $244 -59.662465285195474 $234 59.662465285195474 $232 $279 forward 7 unknown #
vertex $-1 $161 $280 #
straight-curve $-1 59.662465285195474 0 -16.739666923853989 0 -1 0 I I #
edge $-1 $237 -34.821525272595458 $174 34.821525272595458 $172 $281 forward 7 unknown #
vertex $-1 $164 $282 #
straight-curve $-1 0 34.821525272595458 16.739666923853989 -1 0 0 I I #
straight-curve $-1 0 -34.821525272595458 16.739666923853989 1 0 0 I I #
edge $-1 $169 -16.739666923853989 $234 16.739666923853989 $166 $283 forward 7 unknown #
point $-1 59.662465285195474 -34.821525272595458 16.739666923853989 #
point $-1 59.662465285195474 34.821525272595458 16.739666923853989 #
point $-1 -59.662465285195474 -34.821525272595458 16.739666923853989 #
vertex $-1 $233 $284 #
straight-curve $-1 -59.662465285195474 0 -16.739666923853989 0 1 0 I I #
plane-surface $-1 0 0 16.739666923853989 0 0 1 1 0 0 forward_v I I I I #
coedge $-1 $187 $259 $248 $285 forward $180 $-1 #
coedge $-1 $183 $182 $247 $285 reversed $71 $-1 #
edge $-1 $255 -4.2156455424344834 $253 4.2156455424344834 $182 $286 forward 7 unknown #
coedge $-1 $195 $194 $183 $251 forward $196 $-1 #
edge $-1 $252 -4.2156455424344834 $287 4.2156455424344834 $183 $288 forward 7 unknown #
vertex $-1 $199 $289 #
vertex $-1 $189 $290 #
straight-curve $-1 -34.614422522356463 -54.086972781943636 0 0 0 -1 I I #
vertex $-1 $285 $291 #
straight-curve $-1 -26.183131437487496 -44.454249027269547 -16.739666923853989 0 -1 0 I I #
straight-curve $-1 -34.614422522356463 -44.454249027269547 -16.739666923853989 0 1 0 I I #
point $-1 -26.183131437487496 -34.821525272595458 -16.739666923853989 #
coedge $-1 $247 $192 $195 $261 reversed $180 $-1 #
straight-curve $-1 -26.183131437487496 -34.821525272595458 0 0 0 -1 I I #
edge $-1 $287 -9.6327237546740889 $197 9.6327237546740889 $259 $292 forward 7 unknown #
point $-1 -26.183131437487496 -34.821525272595458 16.739666923853989 #
straight-curve $-1 -34.614422522356463 -44.454249027269547 16.739666923853989 0 -1 0 I I #
coedge $-1 $213 $212 $205 $265 forward $202 $-1 #
edge $-1 $266 58.404217959953044 $269 63.016061572590566 $264 $293 forward 7 unknown #
vertex $-1 $217 $294 #
straight-curve $-1 34.992908383902176 17.085670328641928 16.739666923853989 0 1 0 I I #
edge $-1 $269 -25.220237102090397 $214 5.6748945384668446 $213 $295 forward 7 unknown #
vertex $-1 $268 $296 #
straight-curve $-1 34.992908383902176 -25.491125427237876 46.949349050332359 0 -0.8660253999169214 0.50000000669873634 I I #
point $-1 34.992908383902176 26.833577961636351 16.739666923853989 #
point $-1 4.0977767433449337 34.821525272595458 12.127823311216467 #
straight-curve $-1 0 34.821525272595458 16.739666923853989 -1 0 0 I I #
vertex $-1 $220 $297 #
point $-1 14.424957212075576 28.013500857651959 9.5596663141330396 #
vertex $-1 $224 $298 #
point $-1 27.665727915171537 28.013500857651959 9.5596663141330396 #
straight-curve $-1 -59.662465285195474 34.821525272595458 0 0 0 -1 I I #
straight-curve $-1 0 34.821525272595458 -16.739666923853989 1 0 0 I I #
point $-1 59.662465285195474 34.821525272595458 -16.739666923853989 #
straight-curve $-1 -59.662465285195474 0 16.739666923853989 0 -1 0 I I #
point $-1 -59.662465285195474 34.821525272595458 16.739666923853989 #
straight-curve $-1 59.662465285195474 34.821525272595458 0 0 0 -1 I I #
point $-1 -59.662465285195474 34.821525272595458 -16.739666923853989 #
edge $-1 $287 -16.739666923853989 $255 16.739666923853989 $247 $299 forward 7 unknown #
straight-curve $-1 -30.39877697992198 -54.086972781943636 -16.739666923853989 -1 0 0 I I #
vertex $-1 $261 $300 #
straight-curve $-1 -30.39877697992198 -54.086972781943636 16.739666923853989 1 0 0 I I #
point $-1 -34.614422522356463 -54.086972781943636 16.739666923853989 #
point $-1 -34.614422522356463 -54.086972781943636 -16.739666923853989 #
point $-1 -26.183131437487496 -54.086972781943636 -16.739666923853989 #
straight-curve $-1 -26.183131437487496 -44.454249027269547 16.739666923853989 0 1 0 I I #
straight-curve $-1 34.992908383902176 34.821525272595458 75.143884883807033 0 0 -1 I I #
point $-1 34.992908383902176 34.821525272595458 16.739666923853989 #
straight-curve $-1 9.7726712818117782 34.821525272595458 12.127823311216467 -1 0 0 I I #
point $-1 34.992908383902176 34.821525272595458 12.127823311216467 #
point $-1 12.924957212075576 27.263500847603854 8.2606282142576575 #
point $-1 26.165727915171537 27.263500847603854 8.2606282142576575 #
straight-curve $-1 -26.183131437487496 -54.086972781943636 0 0 0 -1 I I #
point $-1 -26.183131437487496 -54.086972781943636 16.739666923853989 #
End-of-ACIS-data 