500 0 8 0           
7 Unknown 11 ACIS 5.0 NT 24 Fri Mar 26 16:28:56 1999 
-1 9.9999999999999995e-007 1e-010 
body $-1 $8 $-1 $9 #
body $-1 $10 $-1 $11 #
body $-1 $12 $-1 $13 #
body $-1 $14 $-1 $15 #
body $-1 $16 $-1 $17 #
body $-1 $18 $-1 $19 #
body $-1 $20 $-1 $21 #
body $-1 $22 $-1 $23 #
lump $-1 $-1 $24 $0 #
transform $-1 1 0 0 0 1 0 0 0 1 64.319589831232648 27.251272123417458 7.1044424874746328 1 rotate no_reflect no_shear #
lump $-1 $-1 $25 $1 #
transform $-1 1 0 0 0 1 0 0 0 1 64.319589831232648 27.251272123417458 7.1044424874746328 1 rotate no_reflect no_shear #
lump $-1 $-1 $26 $2 #
transform $-1 1 0 0 0 1 0 0 0 1 64.319589831232648 27.251272123417458 7.1044424874746328 1 rotate no_reflect no_shear #
lump $-1 $-1 $27 $3 #
transform $-1 1 0 0 0 1 0 0 0 1 64.319589831232648 27.251272123417458 7.1044424874746328 1 rotate no_reflect no_shear #
lump $-1 $-1 $28 $4 #
transform $-1 1 0 0 0 1 0 0 0 1 64.319589831232648 27.251272123417458 7.1044424874746328 1 rotate no_reflect no_shear #
lump $-1 $-1 $29 $5 #
transform $-1 1 0 0 0 1 0 0 0 1 64.319589831232648 27.251272123417458 7.1044424874746328 1 rotate no_reflect no_shear #
lump $-1 $-1 $30 $6 #
transform $-1 1 0 0 0 1 0 0 0 1 64.319589831232648 27.251272123417458 7.1044424874746328 1 rotate no_reflect no_shear #
lump $-1 $-1 $31 $7 #
transform $-1 1 0 0 0 1 0 0 0 1 64.319589831232648 27.251272123417458 7.1044424874746328 1 rotate no_reflect no_shear #
shell $-1 $-1 $-1 $32 $-1 $8 #
shell $-1 $-1 $-1 $33 $-1 $10 #
shell $-1 $-1 $-1 $34 $-1 $12 #
shell $-1 $-1 $-1 $35 $-1 $14 #
shell $-1 $-1 $-1 $36 $-1 $16 #
shell $-1 $-1 $-1 $37 $-1 $18 #
shell $-1 $-1 $-1 $38 $-1 $20 #
shell $-1 $-1 $-1 $39 $-1 $22 #
face $-1 $40 $41 $24 $-1 $42 forward single #
face $-1 $43 $44 $25 $-1 $45 reversed single #
face $-1 $46 $47 $26 $-1 $48 reversed single #
face $-1 $49 $50 $27 $-1 $51 forward single #
face $-1 $52 $53 $28 $-1 $54 forward single #
face $-1 $55 $56 $29 $-1 $57 reversed single #
face $-1 $58 $59 $30 $-1 $60 forward single #
face $-1 $61 $62 $31 $-1 $63 forward single #
face $-1 $64 $65 $24 $-1 $66 reversed single #
loop $-1 $-1 $67 $32 #
plane-surface $-1 0 0 7.1044424874746328 0 0 1 1 0 0 forward_v I I I I #
face $-1 $68 $69 $25 $-1 $70 reversed single #
loop $-1 $-1 $71 $33 #
plane-surface $-1 -60.894152325541256 -23.207851976656556 0 0 -1 0 0 0 -1 forward_v I I I I #
face $-1 $72 $73 $26 $-1 $74 reversed single #
loop $-1 $-1 $75 $34 #
plane-surface $-1 3.425437505691395 -113.32768544769934 99.675552105640989 -1 0 0 0 -0.66913061440640931 0.74314481823134659 forward_v I I I I #
face $-1 $76 $77 $27 $-1 $78 forward single #
loop $-1 $79 $80 $35 #
cone-surface $-1 -15.65792843875721 -25.111783886379577 5.0815754794629493 0 0.66913061440640931 -0.74314481823134659 0.5 0 0 1 I I 0 1 0.5 forward I I I I #
face $-1 $81 $82 $28 $-1 $83 forward single #
loop $-1 $84 $85 $36 #
cone-surface $-1 -4.2079088720880478 -25.111783886379577 5.0815754794629493 0 0.66913061440640931 -0.74314481823134659 0.5 0 0 1 I I 0 1 0.5 forward I I I I #
face $-1 $86 $87 $29 $-1 $88 reversed single #
loop $-1 $-1 $89 $37 #
plane-surface $-1 30.142149827919443 -113.32768544769934 99.675552105640989 -1 0 0 0 -0.66913061440640931 0.74314481823134659 forward_v I I I I #
face $-1 $90 $91 $30 $-1 $92 forward single #
loop $-1 $93 $94 $38 #
cone-surface $-1 11.058783883470838 -25.111783886379577 5.0815754794629493 0 0.66913061440640931 -0.74314481823134659 0.5 0 0 1 I I 0 1 0.5 forward I I I I #
face $-1 $95 $96 $31 $-1 $97 forward single #
loop $-1 $98 $99 $39 #
cone-surface $-1 22.508803450140007 -25.111783886379577 5.0815754794629493 0 0.66913061440640931 -0.74314481823134659 0.5 0 0 1 I I 0 1 0.5 forward I I I I #
face $-1 $100 $101 $24 $-1 $102 reversed single #
loop $-1 $-1 $103 $40 #
plane-surface $-1 0 0 -7.1044424874746328 0 0 1 1 0 0 forward_v I I I I #
coedge $-1 $104 $105 $106 $107 forward $41 $-1 #
face $-1 $108 $109 $25 $-1 $110 forward single #
loop $-1 $-1 $111 $43 #
plane-surface $-1 -57.468714819849865 -25.229562050037007 0 -1 0 0 0 0 1 forward_v I I I I #
coedge $-1 $112 $113 $114 $115 forward $44 $-1 #
face $-1 $116 $117 $26 $-1 $118 reversed single #
loop $-1 $-1 $119 $46 #
plane-surface $-1 -9.9329186554226254 -27.251272123417436 4.0780123179486623 0 -0.66913061440640931 0.74314481823134659 1 0 0 forward_v I I I I #
coedge $-1 $120 $121 $122 $123 reversed $47 $-1 #
face $-1 $-1 $124 $27 $-1 $125 forward single #
loop $-1 $126 $127 $49 #
cone-surface $-1 -15.65792843875721 -24.485608569907182 4.3861373516564095 0 0.66913061440640931 -0.74314481823134659 0.25 0 0 1 I I -0.70710678118654746 0.70710678118654746 0.25 forward I I I I #
loop $-1 $-1 $128 $35 #
coedge $-1 $80 $80 $129 $130 reversed $50 $-1 #
face $-1 $-1 $131 $28 $-1 $132 forward single #
loop $-1 $133 $134 $52 #
cone-surface $-1 -4.2079088720880478 -24.485608569907182 4.3861373516564095 0 0.66913061440640931 -0.74314481823134659 0.25 0 0 1 I I -0.70710678118654746 0.70710678118654746 0.25 forward I I I I #
loop $-1 $-1 $135 $36 #
coedge $-1 $85 $85 $136 $137 reversed $53 $-1 #
face $-1 $138 $139 $29 $-1 $140 reversed single #
loop $-1 $-1 $141 $55 #
plane-surface $-1 -9.9329186554226254 -27.251272123417436 4.0780123179486623 0 -0.66913061440640931 0.74314481823134659 1 0 0 forward_v I I I I #
coedge $-1 $142 $143 $144 $145 reversed $56 $-1 #
face $-1 $-1 $146 $30 $-1 $147 forward single #
loop $-1 $148 $149 $58 #
cone-surface $-1 11.058783883470838 -24.485608569907182 4.3861373516564095 0 0.66913061440640931 -0.74314481823134659 0.25 0 0 1 I I -0.70710678118654746 0.70710678118654746 0.25 forward I I I I #
loop $-1 $-1 $150 $38 #
coedge $-1 $94 $94 $151 $152 reversed $59 $-1 #
face $-1 $-1 $153 $31 $-1 $154 forward single #
loop $-1 $155 $156 $61 #
cone-surface $-1 22.508803450140007 -24.485608569907182 4.3861373516564095 0 0.66913061440640931 -0.74314481823134659 0.25 0 0 1 I I -0.70710678118654746 0.70710678118654746 0.25 forward I I I I #
loop $-1 $-1 $157 $39 #
coedge $-1 $99 $99 $158 $159 reversed $62 $-1 #
face $-1 $160 $161 $24 $-1 $162 reversed single #
loop $-1 $-1 $163 $64 #
plane-surface $-1 0 -27.251272123417458 0 0 1 0 0 0 1 forward_v I I I I #
coedge $-1 $164 $165 $166 $167 forward $65 $-1 #
coedge $-1 $168 $67 $169 $170 forward $41 $-1 #
coedge $-1 $67 $168 $171 $172 forward $41 $-1 #
coedge $-1 $173 $174 $67 $107 reversed $175 $-1 #
edge $-1 $176 -27.251272123417458 $177 27.251272123417458 $106 $178 forward 7 unknown #
face $-1 $179 $180 $25 $-1 $181 reversed single #
loop $-1 $-1 $182 $68 #
plane-surface $-1 0 0 7.1044424874746328 0 0 1 1 0 0 forward_v I I I I #
coedge $-1 $183 $184 $185 $186 reversed $69 $-1 #
coedge $-1 $187 $71 $188 $189 reversed $44 $-1 #
coedge $-1 $71 $187 $190 $191 reversed $44 $-1 #
coedge $-1 $184 $183 $71 $115 reversed $69 $-1 #
edge $-1 $192 -7.1044424874746328 $193 7.1044424874746328 $114 $194 forward 7 unknown #
face $-1 $195 $196 $26 $-1 $197 forward single #
loop $-1 $-1 $198 $72 #
plane-surface $-1 -23.291274816536646 -113.32768544769934 99.675552105640989 1 0 0 0 0.66913061440640931 -0.74314481823134659 forward_v I I I I #
coedge $-1 $199 $200 $201 $202 reversed $73 $-1 #
coedge $-1 $121 $75 $203 $204 reversed $47 $-1 #
coedge $-1 $75 $120 $199 $205 reversed $47 $-1 #
coedge $-1 $201 $206 $75 $123 forward $196 $-1 #
edge $-1 $207 29.412570600432211 $208 32.773761748766418 $122 $209 forward 7 unknown #
loop $-1 $-1 $129 $76 #
plane-surface $-1 -9.9329186554226254 -27.251272123417436 4.0780123179486623 0 -0.66913061440640931 0.74314481823134659 1 0 0 forward_v I I I I #
loop $-1 $-1 $210 $49 #
coedge $-1 $127 $127 $128 $211 reversed $77 $-1 #
coedge $-1 $128 $128 $127 $211 forward $79 $-1 #
coedge $-1 $129 $129 $80 $130 forward $124 $-1 #
edge $-1 $212 2.7361929187076867e-016 $212 6.2831853071796004 $129 $213 forward 7 unknown #
loop $-1 $-1 $136 $81 #
plane-surface $-1 -9.9329186554226254 -27.251272123417436 4.0780123179486623 0 -0.66913061440640931 0.74314481823134659 1 0 0 forward_v I I I I #
loop $-1 $-1 $214 $52 #
coedge $-1 $134 $134 $135 $215 reversed $82 $-1 #
coedge $-1 $135 $135 $134 $215 forward $84 $-1 #
coedge $-1 $136 $136 $85 $137 forward $131 $-1 #
edge $-1 $216 2.7361929187076867e-016 $216 6.2831853071796004 $136 $217 forward 7 unknown #
face $-1 $218 $219 $29 $-1 $220 forward single #
loop $-1 $-1 $221 $86 #
plane-surface $-1 0 -27.251272123417458 0 0 1 0 0 0 1 forward_v I I I I #
coedge $-1 $222 $223 $224 $225 reversed $87 $-1 #
coedge $-1 $143 $89 $226 $227 reversed $56 $-1 #
coedge $-1 $89 $142 $228 $229 reversed $56 $-1 #
coedge $-1 $230 $221 $89 $145 forward $139 $-1 #
edge $-1 $231 -45.759763734871854 $232 -42.733333565345859 $144 $233 forward 7 unknown #
loop $-1 $-1 $151 $90 #
plane-surface $-1 -9.9329186554226254 -27.251272123417436 4.0780123179486623 0 -0.66913061440640931 0.74314481823134659 1 0 0 forward_v I I I I #
loop $-1 $-1 $234 $58 #
coedge $-1 $149 $149 $150 $235 reversed $91 $-1 #
coedge $-1 $150 $150 $149 $235 forward $93 $-1 #
coedge $-1 $151 $151 $94 $152 forward $146 $-1 #
edge $-1 $236 2.7361929187076867e-016 $236 6.2831853071796004 $151 $237 forward 7 unknown #
loop $-1 $-1 $158 $95 #
plane-surface $-1 -9.9329186554226254 -27.251272123417436 4.0780123179486623 0 -0.66913061440640931 0.74314481823134659 1 0 0 forward_v I I I I #
loop $-1 $-1 $238 $61 #
coedge $-1 $156 $156 $157 $239 reversed $96 $-1 #
coedge $-1 $157 $157 $156 $239 forward $98 $-1 #
coedge $-1 $158 $158 $99 $159 forward $153 $-1 #
edge $-1 $240 2.7361929187076867e-016 $240 6.2831853071796004 $158 $241 forward 7 unknown #
face $-1 $242 $243 $24 $-1 $244 reversed single #
loop $-1 $-1 $245 $100 #
plane-surface $-1 -64.319589831232648 0 0 1 0 0 0 0 -1 forward_v I I I I #
coedge $-1 $246 $171 $247 $248 forward $101 $-1 #
coedge $-1 $249 $103 $246 $250 forward $65 $-1 #
coedge $-1 $103 $249 $251 $252 forward $65 $-1 #
coedge $-1 $174 $173 $103 $167 reversed $175 $-1 #
edge $-1 $253 -27.251272123417458 $254 27.251272123417458 $166 $255 forward 7 unknown #
coedge $-1 $105 $104 $256 $257 forward $41 $-1 #
coedge $-1 $258 $259 $104 $170 reversed $243 $-1 #
edge $-1 $177 -64.319589831232648 $260 64.319589831232648 $169 $261 forward 7 unknown #
coedge $-1 $163 $262 $105 $172 reversed $101 $-1 #
edge $-1 $263 -64.319589831232648 $176 64.319589831232648 $171 $264 forward 7 unknown #
coedge $-1 $166 $106 $262 $265 forward $175 $-1 #
coedge $-1 $106 $166 $258 $266 reversed $175 $-1 #
loop $-1 $-1 $173 $242 #
vertex $-1 $107 $267 #
vertex $-1 $107 $268 #
straight-curve $-1 64.319589831232648 0 7.1044424874746328 0 1 0 I I #
face $-1 $269 $270 $25 $-1 $271 reversed single #
loop $-1 $-1 $272 $108 #
plane-surface $-1 -64.319589831232648 0 0 1 0 0 0 0 -1 forward_v I I I I #
coedge $-1 $190 $273 $184 $274 forward $109 $-1 #
coedge $-1 $114 $111 $275 $276 reversed $69 $-1 #
coedge $-1 $111 $114 $182 $274 reversed $69 $-1 #
coedge $-1 $277 $278 $111 $186 forward $279 $-1 #
edge $-1 $280 -7.1044424874746328 $281 7.1044424874746328 $185 $282 forward 7 unknown #
coedge $-1 $113 $112 $272 $283 reversed $44 $-1 #
coedge $-1 $275 $284 $112 $189 forward $270 $-1 #
edge $-1 $285 -33.87251366846202 $193 -27.021638657079237 $188 $286 forward 7 unknown #
coedge $-1 $287 $182 $113 $191 forward $109 $-1 #
edge $-1 $192 27.021638657079237 $288 33.87251366846202 $190 $289 forward 7 unknown #
vertex $-1 $191 $290 #
vertex $-1 $189 $291 #
straight-curve $-1 -57.468714819849865 -23.207851976656556 0 0 0 -1 I I #
face $-1 $-1 $292 $26 $-1 $293 reversed single #
loop $-1 $-1 $122 $116 #
plane-surface $-1 0 0 7.1044424874746328 0 0 1 1 0 0 forward_v I I I I #
coedge $-1 $294 $295 $296 $297 reversed $117 $-1 #
coedge $-1 $298 $119 $121 $205 forward $73 $-1 #
coedge $-1 $119 $298 $294 $299 forward $73 $-1 #
coedge $-1 $296 $122 $119 $202 forward $196 $-1 #
edge $-1 $208 -8.3918968334027078 $300 18.324815488825333 $201 $301 forward 7 unknown #
coedge $-1 $302 $303 $120 $204 forward $292 $-1 #
edge $-1 $304 -45.759763734871854 $207 -42.733333565345859 $203 $305 forward 7 unknown #
edge $-1 $208 -4.5229288637626279 $304 2.8915846743243384e-014 $121 $306 forward 7 unknown #
coedge $-1 $122 $296 $302 $307 forward $196 $-1 #
vertex $-1 $204 $308 #
vertex $-1 $123 $309 #
straight-curve $-1 3.425437505691395 -56.663842723849669 7.1044424874746355 0 1 0 I I #
coedge $-1 $210 $210 $-1 $310 reversed $126 $-1 #
edge $-1 $311 0 $311 6.2831853071796004 $127 $312 forward 7 unknown #
vertex $-1 $130 $313 #
ellipse-curve $-1 -15.65792843875721 -25.570676549250354 5.5912274027116364 0 -0.66913061440640931 0.74314481823134659 0.5 0 0 1 I I #
coedge $-1 $214 $214 $-1 $314 reversed $133 $-1 #
edge $-1 $315 0 $315 6.2831853071796004 $134 $316 forward 7 unknown #
vertex $-1 $137 $317 #
ellipse-curve $-1 -4.2079088720880478 -25.570676549250354 5.5912274027116364 0 -0.66913061440640931 0.74314481823134659 0.5 0 0 1 I I #
face $-1 $-1 $318 $29 $-1 $319 forward single #
loop $-1 $-1 $320 $138 #
plane-surface $-1 3.425437505691395 -113.32768544769934 99.675552105640989 -1 0 0 0 -0.66913061440640931 0.74314481823134659 forward_v I I I I #
coedge $-1 $144 $321 $223 $322 forward $139 $-1 #
coedge $-1 $226 $141 $323 $324 reversed $87 $-1 #
coedge $-1 $141 $226 $221 $322 reversed $87 $-1 #
coedge $-1 $325 $320 $141 $225 forward $219 $-1 #
edge $-1 $326 -4.5229288637626279 $327 2.8915846743243384e-014 $224 $328 forward 7 unknown #
coedge $-1 $223 $222 $142 $227 forward $87 $-1 #
edge $-1 $329 -4.5229288637626279 $231 2.8915846743243384e-014 $142 $330 forward 7 unknown #
coedge $-1 $323 $331 $143 $229 forward $318 $-1 #
edge $-1 $232 29.412570600432211 $329 32.773761748766418 $228 $332 forward 7 unknown #
coedge $-1 $321 $144 $331 $333 reversed $139 $-1 #
vertex $-1 $145 $334 #
vertex $-1 $145 $335 #
straight-curve $-1 30.142149827919443 -27.251272123417458 49.837776052820494 0 0 1 I I #
coedge $-1 $234 $234 $-1 $336 reversed $148 $-1 #
edge $-1 $337 0 $337 6.2831853071796004 $149 $338 forward 7 unknown #
vertex $-1 $152 $339 #
ellipse-curve $-1 11.058783883470838 -25.570676549250354 5.5912274027116364 0 -0.66913061440640931 0.74314481823134659 0.5 0 0 1 I I #
coedge $-1 $238 $238 $-1 $340 reversed $155 $-1 #
edge $-1 $341 0 $341 6.2831853071796004 $156 $342 forward 7 unknown #
vertex $-1 $159 $343 #
ellipse-curve $-1 22.508803450140007 -25.570676549250354 5.5912274027116364 0 -0.66913061440640931 0.74314481823134659 0.5 0 0 1 I I #
face $-1 $-1 $175 $24 $-1 $344 reversed single #
loop $-1 $-1 $258 $160 #
plane-surface $-1 0 27.251272123417458 0 0 -1 0 0 0 -1 forward_v I I I I #
coedge $-1 $345 $256 $259 $346 forward $161 $-1 #
coedge $-1 $262 $163 $164 $250 reversed $101 $-1 #
coedge $-1 $256 $345 $163 $248 reversed $161 $-1 #
edge $-1 $263 -7.1044424874746328 $347 7.1044424874746328 $247 $348 forward 7 unknown #
coedge $-1 $165 $164 $345 $349 forward $65 $-1 #
edge $-1 $254 -64.319589831232648 $347 64.319589831232648 $246 $350 forward 7 unknown #
coedge $-1 $259 $258 $165 $252 reversed $243 $-1 #
edge $-1 $351 -64.319589831232648 $253 64.319589831232648 $251 $352 forward 7 unknown #
vertex $-1 $167 $353 #
vertex $-1 $265 $354 #
straight-curve $-1 64.319589831232648 0 -7.1044424874746328 0 -1 0 I I #
coedge $-1 $245 $247 $168 $257 reversed $161 $-1 #
edge $-1 $260 -27.251272123417458 $263 27.251272123417458 $256 $355 forward 7 unknown #
coedge $-1 $251 $169 $174 $266 forward $243 $-1 #
coedge $-1 $169 $251 $245 $346 reversed $243 $-1 #
vertex $-1 $170 $356 #
straight-curve $-1 0 27.251272123417458 7.1044424874746328 -1 0 0 I I #
coedge $-1 $171 $246 $173 $265 reversed $101 $-1 #
vertex $-1 $257 $357 #
straight-curve $-1 0 -27.251272123417458 7.1044424874746328 1 0 0 I I #
edge $-1 $176 -7.1044424874746328 $254 7.1044424874746328 $173 $358 forward 7 unknown #
edge $-1 $177 -7.1044424874746328 $253 7.1044424874746328 $174 $359 forward 7 unknown #
point $-1 64.319589831232648 -27.251272123417458 7.1044424874746328 #
point $-1 64.319589831232648 27.251272123417458 7.1044424874746328 #
face $-1 $-1 $279 $25 $-1 $360 reversed single #
loop $-1 $-1 $275 $179 #
plane-surface $-1 0 0 -7.1044424874746328 0 0 1 1 0 0 forward_v I I I I #
coedge $-1 $361 $362 $187 $283 forward $180 $-1 #
coedge $-1 $182 $287 $277 $363 forward $109 $-1 #
edge $-1 $281 -14.636491098398954 $192 -10.593070951638053 $182 $364 forward 7 unknown #
coedge $-1 $365 $188 $183 $276 forward $270 $-1 #
edge $-1 $193 10.593070951638053 $280 14.636491098398954 $275 $366 forward 7 unknown #
coedge $-1 $367 $185 $273 $363 reversed $279 $-1 #
coedge $-1 $185 $367 $365 $368 reversed $279 $-1 #
loop $-1 $-1 $185 $269 #
vertex $-1 $368 $369 #
vertex $-1 $186 $370 #
straight-curve $-1 -57.468714819849865 -27.251272123417458 0 0 0 1 I I #
edge $-1 $288 -7.1044424874746328 $285 7.1044424874746328 $272 $371 forward 7 unknown #
coedge $-1 $188 $365 $361 $372 forward $270 $-1 #
vertex $-1 $189 $373 #
straight-curve $-1 -30.447076162770628 -23.207851976656556 -7.1044424874746328 1 0 0 I I #
coedge $-1 $273 $190 $362 $374 forward $109 $-1 #
vertex $-1 $374 $375 #
straight-curve $-1 -30.447076162770628 -23.207851976656556 7.1044424874746328 -1 0 0 I I #
point $-1 -57.468714819849865 -23.207851976656556 7.1044424874746328 #
point $-1 -57.468714819849865 -23.207851976656556 -7.1044424874746328 #
loop $-1 $-1 $203 $195 #
plane-surface $-1 0 -27.251272123417458 0 0 1 0 0 0 1 forward_v I I I I #
coedge $-1 $295 $198 $200 $299 reversed $117 $-1 #
coedge $-1 $198 $294 $376 $377 reversed $117 $-1 #
coedge $-1 $206 $201 $198 $297 forward $196 $-1 #
edge $-1 $300 -32.773761748766418 $378 -29.412570600432211 $296 $379 forward 7 unknown #
coedge $-1 $200 $199 $303 $380 reversed $73 $-1 #
edge $-1 $381 -2.8915846743243384e-014 $300 4.5229288637626279 $294 $382 forward 7 unknown #
vertex $-1 $202 $383 #
straight-curve $-1 -4.9664593277113127 -23.890080975083247 7.1044424874746319 -1 0 0 I I #
coedge $-1 $376 $203 $206 $307 reversed $292 $-1 #
coedge $-1 $203 $376 $298 $380 forward $292 $-1 #
vertex $-1 $204 $384 #
straight-curve $-1 3.425437505691395 -27.251272123417458 49.837776052820494 0 0 1 I I #
straight-curve $-1 3.425437505691395 -27.251272123417436 4.0780123179486623 0 -0.74314481823134659 -0.66913061440640931 I I #
edge $-1 $378 -23.291274816536646 $207 3.425437505691395 $302 $385 forward 7 unknown #
point $-1 3.425437505691395 -27.251272123417458 7.1044424874746328 #
point $-1 3.425437505691395 -23.890080975083247 7.1044424874746328 #
edge $-1 $386 1 $386 0 $210 $-1 forward 7 unknown #
vertex $-1 $211 $387 #
ellipse-curve $-1 -15.65792843875721 -24.652891223508785 4.5719235562142462 0 -0.66913061440640931 0.74314481823134659 0.5 0 0 1 I I #
point $-1 -15.15792843875721 -25.570676549250368 5.5912274027116524 #
edge $-1 $388 1 $388 0 $214 $-1 forward 7 unknown #
vertex $-1 $215 $389 #
ellipse-curve $-1 -4.2079088720880478 -24.652891223508785 4.5719235562142462 0 -0.66913061440640931 0.74314481823134659 0.5 0 0 1 I I #
point $-1 -3.7079088720880478 -25.570676549250368 5.5912274027116524 #
loop $-1 $-1 $323 $218 #
plane-surface $-1 0 0 7.1044424874746328 0 0 1 1 0 0 forward_v I I I I #
coedge $-1 $224 $325 $390 $391 reversed $219 $-1 #
coedge $-1 $221 $230 $325 $392 forward $139 $-1 #
edge $-1 $327 8.3918968334027078 $231 35.108609155630759 $221 $393 forward 7 unknown #
coedge $-1 $390 $228 $222 $324 forward $318 $-1 #
edge $-1 $329 -35.108609155630759 $326 -8.3918968334027078 $323 $394 forward 7 unknown #
coedge $-1 $320 $224 $321 $392 reversed $219 $-1 #
vertex $-1 $324 $395 #
vertex $-1 $322 $396 #
straight-curve $-1 3.425437505691395 -27.251272123417436 4.0780123179486623 0 -0.74314481823134659 -0.66913061440640931 I I #
vertex $-1 $229 $397 #
straight-curve $-1 30.142149827919443 -27.251272123417436 4.0780123179486623 0 -0.74314481823134659 -0.66913061440640931 I I #
coedge $-1 $228 $390 $230 $333 forward $318 $-1 #
straight-curve $-1 30.142149827919443 -56.663842723849669 7.1044424874746355 0 1 0 I I #
edge $-1 $398 3.425437505691395 $232 30.142149827919443 $230 $399 forward 7 unknown #
point $-1 30.142149827919443 -27.251272123417458 4.0780123179486427 #
point $-1 30.142149827919443 -27.251272123417458 7.1044424874746328 #
edge $-1 $400 1 $400 0 $234 $-1 forward 7 unknown #
vertex $-1 $235 $401 #
ellipse-curve $-1 11.058783883470838 -24.652891223508785 4.5719235562142462 0 -0.66913061440640931 0.74314481823134659 0.5 0 0 1 I I #
point $-1 11.558783883470838 -25.570676549250368 5.5912274027116524 #
edge $-1 $402 1 $402 0 $238 $-1 forward 7 unknown #
vertex $-1 $239 $403 #
ellipse-curve $-1 22.508803450140007 -24.652891223508785 4.5719235562142462 0 -0.66913061440640931 0.74314481823134659 0.5 0 0 1 I I #
point $-1 23.008803450140007 -25.570676549250368 5.5912274027116524 #
plane-surface $-1 64.319589831232648 0 0 -1 0 0 0 0 1 forward_v I I I I #
coedge $-1 $247 $245 $249 $349 reversed $161 $-1 #
edge $-1 $260 -7.1044424874746328 $351 7.1044424874746328 $259 $404 forward 7 unknown #
vertex $-1 $349 $405 #
straight-curve $-1 -64.319589831232648 -27.251272123417458 0 0 0 -1 I I #
edge $-1 $347 -27.251272123417458 $351 27.251272123417458 $345 $406 forward 7 unknown #
straight-curve $-1 0 -27.251272123417458 -7.1044424874746328 -1 0 0 I I #
vertex $-1 $252 $407 #
straight-curve $-1 0 27.251272123417458 -7.1044424874746328 1 0 0 I I #
point $-1 64.319589831232648 27.251272123417458 -7.1044424874746328 #
point $-1 64.319589831232648 -27.251272123417458 -7.1044424874746328 #
straight-curve $-1 -64.319589831232648 0 7.1044424874746328 0 -1 0 I I #
point $-1 -64.319589831232648 27.251272123417458 7.1044424874746328 #
point $-1 -64.319589831232648 -27.251272123417458 7.1044424874746328 #
straight-curve $-1 64.319589831232648 -27.251272123417458 0 0 0 -1 I I #
straight-curve $-1 64.319589831232648 27.251272123417458 0 0 0 -1 I I #
plane-surface $-1 0 -27.251272123417458 0 0 1 0 0 0 1 forward_v I I I I #
coedge $-1 $408 $272 $284 $372 reversed $180 $-1 #
coedge $-1 $272 $408 $287 $374 reversed $180 $-1 #
edge $-1 $409 -64.319589831232648 $281 -57.468714819849865 $277 $410 forward 7 unknown #
straight-curve $-1 -57.468714819849865 -12.614781025018504 7.1044424874746328 0 1 0 I I #
coedge $-1 $284 $275 $278 $368 forward $270 $-1 #
straight-curve $-1 -57.468714819849865 -12.614781025018504 -7.1044424874746328 0 -1 0 I I #
coedge $-1 $278 $277 $408 $411 forward $279 $-1 #
edge $-1 $280 57.468714819849865 $412 64.319589831232648 $278 $413 forward 7 unknown #
point $-1 -57.468714819849865 -27.251272123417458 -7.1044424874746328 #
point $-1 -57.468714819849865 -27.251272123417458 7.1044424874746328 #
straight-curve $-1 -64.319589831232648 -23.207851976656556 0 0 0 -1 I I #
edge $-1 $412 -27.251272123417458 $285 -23.207851976656556 $361 $414 forward 7 unknown #
point $-1 -64.319589831232648 -23.207851976656556 -7.1044424874746328 #
edge $-1 $288 23.207851976656556 $409 27.251272123417458 $362 $415 forward 7 unknown #
point $-1 -64.319589831232648 -23.207851976656556 7.1044424874746328 #
coedge $-1 $303 $302 $295 $377 forward $292 $-1 #
edge $-1 $378 42.733333565345859 $381 45.759763734871854 $376 $416 forward 7 unknown #
vertex $-1 $307 $417 #
straight-curve $-1 -23.291274816536646 -56.663842723849669 7.1044424874746355 0 -1 0 I I #
edge $-1 $381 -18.324815488825333 $304 8.3918968334027078 $303 $418 forward 7 unknown #
vertex $-1 $380 $419 #
straight-curve $-1 -23.291274816536646 -27.251272123417436 4.0780123179486623 0 0.74314481823134659 0.66913061440640931 I I #
point $-1 -23.291274816536646 -23.890080975083247 7.1044424874746328 #
point $-1 3.425437505691395 -27.251272123417458 4.0780123179486427 #
straight-curve $-1 0 -27.251272123417458 7.1044424874746328 1 0 0 I I #
vertex $-1 $310 $420 #
point $-1 -15.15792843875721 -24.652891223508785 4.5719235562142462 #
vertex $-1 $314 $421 #
point $-1 -3.7079088720880478 -24.652891223508785 4.5719235562142462 #
coedge $-1 $331 $323 $320 $391 forward $318 $-1 #
edge $-1 $326 -32.773761748766418 $398 -29.412570600432211 $390 $422 forward 7 unknown #
edge $-1 $398 42.733333565345859 $327 45.759763734871854 $321 $423 forward 7 unknown #
straight-curve $-1 -4.9664593277113127 -27.251272123417458 4.0780123179486418 1 0 0 I I #
straight-curve $-1 -4.9664593277113127 -23.890080975083247 7.1044424874746319 -1 0 0 I I #
point $-1 3.425437505691395 -23.890080975083247 7.1044424874746328 #
point $-1 3.425437505691395 -27.251272123417458 4.0780123179486427 #
point $-1 30.142149827919443 -23.890080975083247 7.1044424874746328 #
vertex $-1 $333 $424 #
straight-curve $-1 0 -27.251272123417458 7.1044424874746328 1 0 0 I I #
vertex $-1 $336 $425 #
point $-1 11.558783883470838 -24.652891223508785 4.5719235562142462 #
vertex $-1 $340 $426 #
point $-1 23.008803450140007 -24.652891223508785 4.5719235562142462 #
straight-curve $-1 -64.319589831232648 27.251272123417458 0 0 0 -1 I I #
point $-1 -64.319589831232648 -27.251272123417458 -7.1044424874746328 #
straight-curve $-1 -64.319589831232648 0 -7.1044424874746328 0 1 0 I I #
point $-1 -64.319589831232648 27.251272123417458 -7.1044424874746328 #
coedge $-1 $362 $361 $367 $411 reversed $180 $-1 #
vertex $-1 $374 $427 #
straight-curve $-1 0 -27.251272123417458 7.1044424874746328 1 0 0 I I #
edge $-1 $409 -7.1044424874746328 $412 7.1044424874746328 $408 $428 forward 7 unknown #
vertex $-1 $372 $429 #
straight-curve $-1 0 -27.251272123417458 -7.1044424874746328 -1 0 0 I I #
straight-curve $-1 -64.319589831232648 0 -7.1044424874746328 0 1 0 I I #
straight-curve $-1 -64.319589831232648 0 7.1044424874746328 0 -1 0 I I #
straight-curve $-1 -23.291274816536646 -27.251272123417458 49.837776052820494 0 0 -1 I I #
point $-1 -23.291274816536646 -27.251272123417458 7.1044424874746328 #
straight-curve $-1 -4.9664593277113127 -27.251272123417458 4.0780123179486418 1 0 0 I I #
point $-1 -23.291274816536646 -27.251272123417458 4.0780123179486427 #
point $-1 -15.65792843875721 -24.318325916305579 4.2003511470985728 #
point $-1 -4.2079088720880478 -24.318325916305579 4.2003511470985728 #
straight-curve $-1 3.425437505691395 -56.663842723849669 7.1044424874746355 0 -1 0 I I #
straight-curve $-1 3.425437505691395 -27.251272123417458 49.837776052820494 0 0 -1 I I #
point $-1 3.425437505691395 -27.251272123417458 7.1044424874746328 #
point $-1 11.058783883470838 -24.318325916305579 4.2003511470985728 #
point $-1 22.508803450140007 -24.318325916305579 4.2003511470985728 #
point $-1 -64.319589831232648 -27.251272123417458 7.1044424874746328 #
straight-curve $-1 -64.319589831232648 -27.251272123417458 0 0 0 -1 I I #
point $-1 -64.319589831232648 -27.251272123417458 -7.1044424874746328 #
End-of-ACIS-data 