500 0 10 0           
7 Unknown 11 ACIS 5.0 NT 24 Fri Mar 26 01:52:20 1999 
-1 9.9999999999999995e-007 1e-010 
body $-1 $10 $-1 $11 #
body $-1 $12 $-1 $13 #
body $-1 $14 $-1 $15 #
body $-1 $16 $-1 $17 #
body $-1 $18 $-1 $19 #
body $-1 $20 $-1 $21 #
body $-1 $22 $-1 $23 #
body $-1 $24 $-1 $25 #
body $-1 $26 $-1 $27 #
body $-1 $28 $-1 $29 #
lump $-1 $-1 $30 $0 #
transform $-1 1 0 0 0 1 0 0 0 1 76.271858882412175 45.496593284645023 14.569823368442812 1 rotate no_reflect no_shear #
lump $-1 $-1 $31 $1 #
transform $-1 1 0 0 0 1 0 0 0 1 76.271858882412175 45.496593284645023 14.569823368442812 1 rotate no_reflect no_shear #
lump $-1 $-1 $32 $2 #
transform $-1 1 0 0 0 1 0 0 0 1 76.271858882412175 45.496593284645023 14.569823368442812 1 rotate no_reflect no_shear #
lump $-1 $-1 $33 $3 #
transform $-1 1 0 0 0 1 0 0 0 1 76.271858882412175 45.496593284645023 14.569823368442812 1 rotate no_reflect no_shear #
lump $-1 $-1 $34 $4 #
transform $-1 1 0 0 0 1 0 0 0 1 76.271858882412175 45.496593284645023 14.569823368442812 1 rotate no_reflect no_shear #
lump $-1 $-1 $35 $5 #
transform $-1 1 0 0 0 1 0 0 0 1 76.271858882412175 45.496593284645023 14.569823368442812 1 rotate no_reflect no_shear #
lump $-1 $-1 $36 $6 #
transform $-1 1 0 0 0 1 0 0 0 1 76.271858882412175 45.496593284645023 14.569823368442812 1 rotate no_reflect no_shear #
lump $-1 $-1 $37 $7 #
transform $-1 1 0 0 0 1 0 0 0 1 76.271858882412175 45.496593284645023 14.569823368442812 1 rotate no_reflect no_shear #
lump $-1 $-1 $38 $8 #
transform $-1 1 0 0 0 1 0 0 0 1 76.271858882412175 45.496593284645023 14.569823368442812 1 rotate no_reflect no_shear #
lump $-1 $-1 $39 $9 #
transform $-1 1 0 0 0 1 0 0 0 1 76.271858882412175 45.496593284645023 14.569823368442812 1 rotate no_reflect no_shear #
shell $-1 $-1 $-1 $40 $-1 $10 #
shell $-1 $-1 $-1 $41 $-1 $12 #
shell $-1 $-1 $-1 $42 $-1 $14 #
shell $-1 $-1 $-1 $43 $-1 $16 #
shell $-1 $-1 $-1 $44 $-1 $18 #
shell $-1 $-1 $-1 $45 $-1 $20 #
shell $-1 $-1 $-1 $46 $-1 $22 #
shell $-1 $-1 $-1 $47 $-1 $24 #
shell $-1 $-1 $-1 $48 $-1 $26 #
shell $-1 $-1 $-1 $49 $-1 $28 #
face $-1 $50 $51 $30 $-1 $52 forward single #
face $-1 $53 $54 $31 $-1 $55 forward single #
face $-1 $56 $57 $32 $-1 $58 reversed single #
face $-1 $59 $60 $33 $-1 $61 forward single #
face $-1 $62 $63 $34 $-1 $64 forward single #
face $-1 $65 $66 $35 $-1 $67 forward single #
face $-1 $68 $69 $36 $-1 $70 reversed single #
face $-1 $71 $72 $37 $-1 $73 forward single #
face $-1 $74 $75 $38 $-1 $76 reversed single #
face $-1 $77 $78 $39 $-1 $79 forward single #
face $-1 $80 $81 $30 $-1 $82 reversed single #
loop $-1 $-1 $83 $40 #
plane-surface $-1 0 0 14.569823368442812 0 0 1 1 0 0 forward_v I I I I #
face $-1 $84 $85 $31 $-1 $86 reversed single #
loop $-1 $-1 $87 $41 #
plane-surface $-1 0 -45.496593284645023 0 0 1 0 0 0 1 forward_v I I I I #
face $-1 $88 $89 $32 $-1 $90 reversed single #
loop $-1 $-1 $91 $42 #
plane-surface $-1 -187.83527278918027 32.452741177807212 113.54231978756381 0 1 0 -0.73135370988377701 0 0.68199835119979291 forward_v I I I I #
face $-1 $92 $93 $33 $-1 $94 forward single #
loop $-1 $95 $96 $43 #
cone-surface $-1 -72.627136969894622 35.061511599174786 10.840978849621266 0.73135370988377701 0 -0.68199835119979291 0.68199835119979291 0 0.73135370988377701 1 I I 0 1 1 forward I I I I #
face $-1 $97 $98 $34 $-1 $99 forward single #
loop $-1 $100 $101 $44 #
cone-surface $-1 -72.627136969894622 38.974667231226128 10.840978849621266 0.73135370988377701 0 -0.68199835119979291 0.68199835119979291 0 0.73135370988377701 1 I I 0 1 1 forward I I I I #
face $-1 $102 $103 $35 $-1 $104 forward single #
loop $-1 $105 $106 $45 #
cone-surface $-1 -72.627136969894622 42.887822863277471 10.840978849621266 0.73135370988377701 0 -0.68199835119979291 0.68199835119979291 0 0.73135370988377701 1 I I 0 1 1 forward I I I I #
face $-1 $107 $108 $36 $-1 $109 reversed single #
loop $-1 $-1 $110 $46 #
plane-surface $-1 113.73287812238289 -18.935214432305798 215.35405738973833 0 -1 0 -0.81915205242281985 0 -0.57357642473473569 forward_v I I I I #
face $-1 $111 $112 $37 $-1 $113 forward single #
loop $-1 $114 $115 $47 #
cone-surface $-1 70.819688053604295 -26.94139391357124 7.7785923415667986 -0.81915205242281985 0 -0.57357642473473569 0.86036463710210354 0 -1.2287280786342298 1 I I 0 1 1.5 forward I I I I #
face $-1 $116 $117 $38 $-1 $118 reversed single #
loop $-1 $-1 $119 $48 #
plane-surface $-1 113.73287812238289 21.28686890743505 215.35405738973833 0 -1 0 -0.81915205242281985 0 -0.57357642473473569 forward_v I I I I #
face $-1 $120 $121 $39 $-1 $122 forward single #
loop $-1 $123 $124 $49 #
cone-surface $-1 70.819688053604295 13.280689426169609 7.7785923415667986 -0.81915205242281985 0 -0.57357642473473569 0.86036463710210354 0 -1.2287280786342298 1 I I 0 1 1.5 forward I I I I #
face $-1 $125 $126 $30 $-1 $127 reversed single #
loop $-1 $-1 $128 $50 #
plane-surface $-1 0 0 -14.569823368442812 0 0 1 1 0 0 forward_v I I I I #
coedge $-1 $129 $130 $131 $132 forward $51 $-1 #
face $-1 $133 $134 $31 $-1 $135 reversed single #
loop $-1 $-1 $136 $53 #
plane-surface $-1 0 0 -14.569823368442812 0 0 1 1 0 0 forward_v I I I I #
coedge $-1 $137 $138 $139 $140 forward $54 $-1 #
face $-1 $141 $142 $32 $-1 $143 reversed single #
loop $-1 $-1 $144 $56 #
plane-surface $-1 -76.271858882412161 38.974667231226114 9.507755786067051 -0.73135370988377701 0 0.68199835119979291 0.68199835119979291 0 0.73135370988377701 forward_v I I I I #
coedge $-1 $145 $146 $147 $148 reversed $57 $-1 #
face $-1 $-1 $149 $33 $-1 $150 forward single #
loop $-1 $151 $152 $59 #
cone-surface $-1 -70.976965338898893 35.061511599174786 9.3021689463876989 0.73135370988377701 0 -0.68199835119979291 0.34099917559989645 0 0.36567685494188851 1 I I -0.70710678118654746 0.70710678118654746 0.5 forward I I I I #
loop $-1 $-1 $153 $43 #
coedge $-1 $96 $96 $154 $155 reversed $60 $-1 #
face $-1 $-1 $156 $34 $-1 $157 forward single #
loop $-1 $158 $159 $62 #
cone-surface $-1 -70.976965338898893 38.974667231226128 9.3021689463876989 0.73135370988377701 0 -0.68199835119979291 0.34099917559989645 0 0.36567685494188851 1 I I -0.70710678118654746 0.70710678118654746 0.5 forward I I I I #
loop $-1 $-1 $160 $44 #
coedge $-1 $101 $101 $161 $162 reversed $63 $-1 #
face $-1 $-1 $163 $35 $-1 $164 forward single #
loop $-1 $165 $166 $65 #
cone-surface $-1 -70.976965338898893 42.887822863277471 9.3021689463876989 0.73135370988377701 0 -0.68199835119979291 0.34099917559989645 0 0.36567685494188851 1 I I -0.70710678118654746 0.70710678118654746 0.5 forward I I I I #
loop $-1 $-1 $167 $45 #
coedge $-1 $106 $106 $168 $169 reversed $66 $-1 #
face $-1 $170 $171 $36 $-1 $172 reversed single #
loop $-1 $-1 $173 $68 #
plane-surface $-1 -11.223621368880345 -26.94139391357124 127.8585771384458 0.81915205242281985 0 0.57357642473473569 0.57357642473473569 0 -0.81915205242281985 forward_v I I I I #
coedge $-1 $174 $175 $176 $177 reversed $69 $-1 #
face $-1 $-1 $178 $37 $-1 $179 forward single #
loop $-1 $180 $181 $71 #
cone-surface $-1 68.838074816158496 -26.94139391357124 6.3910518567698347 -0.81915205242281985 0 -0.57357642473473569 0.43018231855105177 0 -0.61436403931711492 1 I I -0.70710678118654757 0.70710678118654757 0.75 forward I I I I #
loop $-1 $-1 $182 $47 #
coedge $-1 $115 $115 $183 $184 reversed $72 $-1 #
face $-1 $185 $186 $38 $-1 $187 reversed single #
loop $-1 $-1 $188 $74 #
plane-surface $-1 -11.223621368880345 13.280689426169609 127.8585771384458 0.81915205242281985 0 0.57357642473473569 0.57357642473473569 0 -0.81915205242281985 forward_v I I I I #
coedge $-1 $189 $190 $191 $192 reversed $75 $-1 #
face $-1 $-1 $193 $39 $-1 $194 forward single #
loop $-1 $195 $196 $77 #
cone-surface $-1 68.838074816158496 13.280689426169609 6.3910518567698347 -0.81915205242281985 0 -0.57357642473473569 0.43018231855105177 0 -0.61436403931711492 1 I I -0.70710678118654757 0.70710678118654757 0.75 forward I I I I #
loop $-1 $-1 $197 $49 #
coedge $-1 $124 $124 $198 $199 reversed $78 $-1 #
face $-1 $200 $201 $30 $-1 $202 reversed single #
loop $-1 $-1 $203 $80 #
plane-surface $-1 0 -45.496593284645023 0 0 1 0 0 0 1 forward_v I I I I #
coedge $-1 $204 $205 $206 $207 forward $81 $-1 #
coedge $-1 $208 $83 $209 $210 forward $51 $-1 #
coedge $-1 $83 $208 $211 $212 forward $51 $-1 #
coedge $-1 $213 $214 $83 $132 reversed $215 $-1 #
edge $-1 $216 -45.496593284645023 $217 45.496593284645023 $131 $218 forward 7 unknown #
face $-1 $219 $220 $31 $-1 $221 reversed single #
loop $-1 $-1 $222 $84 #
plane-surface $-1 -71.02051034638724 -56.045613174453365 0 0 1 0 0 0 1 forward_v I I I I #
coedge $-1 $223 $224 $138 $225 forward $85 $-1 #
coedge $-1 $226 $87 $227 $228 reversed $54 $-1 #
coedge $-1 $87 $226 $136 $225 reversed $54 $-1 #
coedge $-1 $229 $230 $87 $140 reversed $220 $-1 #
edge $-1 $231 -14.569823368442812 $232 14.569823368442812 $139 $233 forward 7 unknown #
face $-1 $234 $235 $32 $-1 $236 forward single #
loop $-1 $-1 $237 $88 #
plane-surface $-1 -76.271858882412175 0 0 1 0 0 0 0 -1 forward_v I I I I #
coedge $-1 $238 $239 $240 $241 reversed $89 $-1 #
coedge $-1 $146 $91 $242 $243 reversed $57 $-1 #
coedge $-1 $91 $145 $238 $244 reversed $57 $-1 #
coedge $-1 $240 $245 $91 $148 forward $235 $-1 #
edge $-1 $246 17.645777512177958 $247 22.366231785105384 $147 $248 forward 7 unknown #
loop $-1 $-1 $154 $92 #
plane-surface $-1 -76.271858882412161 38.974667231226114 9.507755786067051 -0.73135370988377701 0 0.68199835119979291 0.68199835119979291 0 0.73135370988377701 forward_v I I I I #
loop $-1 $-1 $249 $59 #
coedge $-1 $152 $152 $153 $250 reversed $93 $-1 #
coedge $-1 $153 $153 $152 $250 forward $95 $-1 #
coedge $-1 $154 $154 $96 $155 forward $149 $-1 #
edge $-1 $251 0 $251 6.2831853071796004 $154 $252 forward 7 unknown #
loop $-1 $-1 $161 $97 #
plane-surface $-1 -76.271858882412161 38.974667231226114 9.507755786067051 -0.73135370988377701 0 0.68199835119979291 0.68199835119979291 0 0.73135370988377701 forward_v I I I I #
loop $-1 $-1 $253 $62 #
coedge $-1 $159 $159 $160 $254 reversed $98 $-1 #
coedge $-1 $160 $160 $159 $254 forward $100 $-1 #
coedge $-1 $161 $161 $101 $162 forward $156 $-1 #
edge $-1 $255 0 $255 6.2831853071796004 $161 $256 forward 7 unknown #
loop $-1 $-1 $168 $102 #
plane-surface $-1 -76.271858882412161 38.974667231226114 9.507755786067051 -0.73135370988377701 0 0.68199835119979291 0.68199835119979291 0 0.73135370988377701 forward_v I I I I #
loop $-1 $-1 $257 $65 #
coedge $-1 $166 $166 $167 $258 reversed $103 $-1 #
coedge $-1 $167 $167 $166 $258 forward $105 $-1 #
coedge $-1 $168 $168 $106 $169 forward $163 $-1 #
edge $-1 $259 0 $259 6.2831853071796004 $168 $260 forward 7 unknown #
face $-1 $261 $262 $36 $-1 $263 forward single #
loop $-1 $-1 $264 $107 #
plane-surface $-1 113.73287812238289 -34.947573394836681 215.35405738973833 0 1 0 0.81915205242281985 0 0.57357642473473569 forward_v I I I I #
coedge $-1 $265 $266 $267 $268 reversed $108 $-1 #
coedge $-1 $175 $110 $269 $270 reversed $69 $-1 #
coedge $-1 $110 $174 $265 $271 reversed $69 $-1 #
coedge $-1 $267 $272 $110 $177 forward $262 $-1 #
edge $-1 $273 -19.405419821220733 $274 -11.23557655986238 $176 $275 forward 7 unknown #
loop $-1 $-1 $183 $111 #
plane-surface $-1 -11.223621368880345 -26.94139391357124 127.8585771384458 0.81915205242281985 0 0.57357642473473569 0.57357642473473569 0 -0.81915205242281985 forward_v I I I I #
loop $-1 $-1 $276 $71 #
coedge $-1 $181 $181 $182 $277 reversed $112 $-1 #
coedge $-1 $182 $182 $181 $277 forward $114 $-1 #
coedge $-1 $183 $183 $115 $184 forward $178 $-1 #
edge $-1 $278 0 $278 6.2831853071796004 $183 $279 forward 7 unknown #
face $-1 $280 $281 $38 $-1 $282 reversed single #
loop $-1 $-1 $283 $116 #
plane-surface $-1 113.73287812238289 5.2745099449041657 215.35405738973833 0 1 0 0.81915205242281985 0 0.57357642473473569 forward_v I I I I #
coedge $-1 $284 $285 $286 $287 reversed $117 $-1 #
coedge $-1 $190 $119 $288 $289 reversed $75 $-1 #
coedge $-1 $119 $189 $284 $290 reversed $75 $-1 #
coedge $-1 $286 $291 $119 $192 forward $292 $-1 #
edge $-1 $293 -19.405419821220733 $294 -11.23557655986238 $191 $295 forward 7 unknown #
loop $-1 $-1 $198 $120 #
plane-surface $-1 -11.223621368880345 13.280689426169609 127.8585771384458 0.81915205242281985 0 0.57357642473473569 0.57357642473473569 0 -0.81915205242281985 forward_v I I I I #
loop $-1 $-1 $296 $77 #
coedge $-1 $196 $196 $197 $297 reversed $121 $-1 #
coedge $-1 $197 $197 $196 $297 forward $123 $-1 #
coedge $-1 $198 $198 $124 $199 forward $193 $-1 #
edge $-1 $298 0 $298 6.2831853071796004 $198 $299 forward 7 unknown #
face $-1 $300 $301 $30 $-1 $302 reversed single #
loop $-1 $-1 $303 $125 #
plane-surface $-1 -76.271858882412175 0 0 1 0 0 0 0 -1 forward_v I I I I #
coedge $-1 $304 $211 $305 $306 forward $126 $-1 #
coedge $-1 $307 $128 $304 $308 forward $81 $-1 #
coedge $-1 $128 $307 $309 $310 forward $81 $-1 #
coedge $-1 $214 $213 $128 $207 reversed $215 $-1 #
edge $-1 $311 -45.496593284645023 $312 45.496593284645023 $206 $313 forward 7 unknown #
coedge $-1 $130 $129 $314 $315 forward $51 $-1 #
coedge $-1 $316 $317 $129 $210 reversed $301 $-1 #
edge $-1 $217 -76.271858882412175 $318 76.271858882412175 $209 $319 forward 7 unknown #
coedge $-1 $203 $320 $130 $212 reversed $126 $-1 #
edge $-1 $321 -76.271858882412175 $216 76.271858882412175 $211 $322 forward 7 unknown #
coedge $-1 $206 $131 $320 $323 forward $215 $-1 #
coedge $-1 $131 $206 $316 $324 reversed $215 $-1 #
loop $-1 $-1 $213 $300 #
vertex $-1 $132 $325 #
vertex $-1 $132 $326 #
straight-curve $-1 76.271858882412175 0 14.569823368442812 0 1 0 I I #
face $-1 $327 $328 $31 $-1 $329 reversed single #
loop $-1 $-1 $139 $133 #
plane-surface $-1 -74.652183443154001 -50.771103229549198 0 1 0 0 0 0 -1 forward_v I I I I #
coedge $-1 $330 $331 $332 $333 forward $134 $-1 #
coedge $-1 $334 $136 $335 $336 forward $85 $-1 #
coedge $-1 $136 $334 $229 $337 forward $85 $-1 #
edge $-1 $231 -74.652183443154001 $338 -67.388837249620479 $136 $339 forward 7 unknown #
coedge $-1 $138 $137 $340 $341 forward $54 $-1 #
coedge $-1 $342 $343 $137 $228 forward $344 $-1 #
edge $-1 $345 67.388837249620479 $232 74.652183443154001 $227 $346 forward 7 unknown #
coedge $-1 $332 $139 $224 $337 reversed $220 $-1 #
coedge $-1 $139 $332 $342 $347 reversed $220 $-1 #
vertex $-1 $225 $348 #
vertex $-1 $347 $349 #
straight-curve $-1 -74.652183443154001 -45.496593284645023 0 0 0 1 I I #
face $-1 $-1 $350 $32 $-1 $351 reversed single #
loop $-1 $-1 $240 $141 #
plane-surface $-1 0 0 14.569823368442812 0 0 1 1 0 0 forward_v I I I I #
coedge $-1 $242 $352 $353 $354 forward $142 $-1 #
coedge $-1 $353 $144 $146 $244 forward $89 $-1 #
coedge $-1 $144 $353 $355 $356 reversed $89 $-1 #
coedge $-1 $357 $147 $144 $241 forward $235 $-1 #
edge $-1 $247 12.965407562194155 $358 26.009259669031959 $240 $359 forward 7 unknown #
coedge $-1 $360 $237 $145 $243 forward $142 $-1 #
edge $-1 $361 -47.263404107714869 $246 -42.201336525339094 $242 $362 forward 7 unknown #
edge $-1 $247 -6.9215039371034273 $361 2.1384085966062714e-014 $146 $363 forward 7 unknown #
coedge $-1 $147 $357 $360 $364 forward $235 $-1 #
vertex $-1 $243 $365 #
vertex $-1 $148 $366 #
straight-curve $-1 -93.917636394590133 32.452741177807212 14.569823368442812 1 0 0 I I #
coedge $-1 $249 $249 $-1 $367 reversed $151 $-1 #
edge $-1 $368 0 $368 6.2831853071796004 $152 $369 forward 7 unknown #
vertex $-1 $155 $370 #
ellipse-curve $-1 -73.911631745948455 35.061511599174786 12.038789577254926 -0.73135370988377701 0 0.68199835119979291 0.68199835119979291 0 0.73135370988377701 1 I I #
coedge $-1 $253 $253 $-1 $371 reversed $158 $-1 #
edge $-1 $372 0 $372 6.2831853071796004 $159 $373 forward 7 unknown #
vertex $-1 $162 $374 #
ellipse-curve $-1 -73.911631745948455 38.974667231226128 12.038789577254926 -0.73135370988377701 0 0.68199835119979291 0.68199835119979291 0 0.73135370988377701 1 I I #
coedge $-1 $257 $257 $-1 $375 reversed $165 $-1 #
edge $-1 $376 0 $376 6.2831853071796004 $166 $377 forward 7 unknown #
vertex $-1 $169 $378 #
ellipse-curve $-1 -73.911631745948455 42.887822863277471 12.038789577254926 -0.73135370988377701 0 0.68199835119979291 0.68199835119979291 0 0.73135370988377701 1 I I #
face $-1 $-1 $379 $36 $-1 $380 reversed single #
loop $-1 $-1 $176 $170 #
plane-surface $-1 0 0 14.569823368442812 0 0 1 1 0 0 forward_v I I I I #
coedge $-1 $381 $382 $383 $384 reversed $171 $-1 #
coedge $-1 $385 $173 $175 $271 forward $108 $-1 #
coedge $-1 $173 $385 $381 $386 forward $108 $-1 #
coedge $-1 $383 $176 $173 $268 forward $262 $-1 #
edge $-1 $274 5.4645174755201786 $387 21.476876438051061 $267 $388 forward 7 unknown #
coedge $-1 $389 $390 $174 $270 forward $379 $-1 #
edge $-1 $391 -104.77495104768659 $273 -93.107205326426353 $269 $392 forward 7 unknown #
edge $-1 $274 138.30003042161337 $391 152.54371776482435 $175 $393 forward 7 unknown #
coedge $-1 $176 $383 $389 $394 forward $262 $-1 #
vertex $-1 $177 $395 #
vertex $-1 $177 $396 #
straight-curve $-1 56.866439061191443 -18.935214432305798 14.569823368442812 -1 0 0 I I #
coedge $-1 $276 $276 $-1 $397 reversed $180 $-1 #
edge $-1 $398 0 $398 6.2831853071796004 $181 $399 forward 7 unknown #
vertex $-1 $184 $400 #
ellipse-curve $-1 72.186937251732971 -26.94139391357124 8.7359505078127082 0.81915205242281985 0 0.57357642473473569 0.86036463710210354 0 -1.2287280786342298 1 I I #
face $-1 $-1 $292 $38 $-1 $401 forward single #
loop $-1 $-1 $402 $185 #
plane-surface $-1 76.271858882412175 0 0 -1 0 0 0 0 1 forward_v I I I I #
coedge $-1 $403 $404 $405 $406 reversed $186 $-1 #
coedge $-1 $407 $188 $190 $290 forward $117 $-1 #
coedge $-1 $188 $407 $403 $408 forward $117 $-1 #
coedge $-1 $405 $191 $188 $287 forward $292 $-1 #
edge $-1 $294 -14.646524194350246 $409 1.3658347681806386 $286 $410 forward 7 unknown #
coedge $-1 $411 $412 $189 $289 forward $281 $-1 #
edge $-1 $413 -104.77495104768659 $293 -93.107205326426353 $288 $414 forward 7 unknown #
edge $-1 $294 138.30003042161337 $413 152.54371776482435 $190 $415 forward 7 unknown #
coedge $-1 $191 $405 $411 $416 forward $292 $-1 #
loop $-1 $-1 $405 $280 #
vertex $-1 $289 $417 #
vertex $-1 $192 $418 #
straight-curve $-1 56.866439061191443 21.28686890743505 14.569823368442812 -1 0 0 I I #
coedge $-1 $296 $296 $-1 $419 reversed $195 $-1 #
edge $-1 $420 0 $420 6.2831853071796004 $196 $421 forward 7 unknown #
vertex $-1 $199 $422 #
ellipse-curve $-1 72.186937251732971 13.280689426169609 8.7359505078127082 0.81915205242281985 0 0.57357642473473569 0.86036463710210354 0 -1.2287280786342298 1 I I #
face $-1 $-1 $215 $30 $-1 $423 reversed single #
loop $-1 $-1 $316 $200 #
plane-surface $-1 0 45.496593284645023 0 0 -1 0 0 0 -1 forward_v I I I I #
coedge $-1 $424 $314 $317 $425 forward $201 $-1 #
coedge $-1 $320 $203 $204 $308 reversed $126 $-1 #
coedge $-1 $314 $424 $203 $306 reversed $201 $-1 #
edge $-1 $321 -14.569823368442812 $426 14.569823368442812 $305 $427 forward 7 unknown #
coedge $-1 $205 $204 $424 $428 forward $81 $-1 #
edge $-1 $312 -76.271858882412175 $426 76.271858882412175 $304 $429 forward 7 unknown #
coedge $-1 $317 $316 $205 $310 reversed $301 $-1 #
edge $-1 $430 -76.271858882412175 $311 76.271858882412175 $309 $431 forward 7 unknown #
vertex $-1 $207 $432 #
vertex $-1 $323 $433 #
straight-curve $-1 76.271858882412175 0 -14.569823368442812 0 -1 0 I I #
coedge $-1 $303 $305 $208 $315 reversed $201 $-1 #
edge $-1 $318 -45.496593284645023 $321 45.496593284645023 $314 $434 forward 7 unknown #
coedge $-1 $309 $209 $214 $324 forward $301 $-1 #
coedge $-1 $209 $309 $303 $425 reversed $301 $-1 #
vertex $-1 $210 $435 #
straight-curve $-1 0 45.496593284645023 14.569823368442812 -1 0 0 I I #
coedge $-1 $211 $304 $213 $323 reversed $126 $-1 #
vertex $-1 $315 $436 #
straight-curve $-1 0 -45.496593284645023 14.569823368442812 1 0 0 I I #
edge $-1 $216 -14.569823368442812 $312 14.569823368442812 $213 $437 forward 7 unknown #
edge $-1 $217 -14.569823368442812 $311 14.569823368442812 $214 $438 forward 7 unknown #
point $-1 76.271858882412175 -45.496593284645023 14.569823368442812 #
point $-1 76.271858882412175 45.496593284645023 14.569823368442812 #
face $-1 $-1 $344 $31 $-1 $439 forward single #
loop $-1 $-1 $440 $219 #
plane-surface $-1 -67.388837249620479 -50.771103229549198 0 -1 0 0 0 0 1 forward_v I I I I #
coedge $-1 $441 $222 $334 $442 reversed $134 $-1 #
coedge $-1 $222 $441 $443 $444 reversed $134 $-1 #
coedge $-1 $230 $229 $222 $333 reversed $220 $-1 #
edge $-1 $445 -14.569823368442812 $446 14.569823368442812 $332 $447 forward 7 unknown #
coedge $-1 $224 $223 $330 $442 forward $85 $-1 #
coedge $-1 $340 $440 $223 $336 reversed $328 $-1 #
edge $-1 $338 -5.2745099449041675 $448 5.2745099449041675 $335 $449 forward 7 unknown #
edge $-1 $446 -5.2745099449041675 $231 5.2745099449041675 $229 $450 forward 7 unknown #
vertex $-1 $336 $451 #
straight-curve $-1 0 -45.496593284645023 -14.569823368442812 1 0 0 I I #
coedge $-1 $452 $335 $226 $341 reversed $328 $-1 #
edge $-1 $345 -14.569823368442812 $338 14.569823368442812 $340 $453 forward 7 unknown #
coedge $-1 $443 $227 $230 $347 forward $344 $-1 #
coedge $-1 $227 $443 $452 $454 forward $344 $-1 #
loop $-1 $-1 $227 $327 #
vertex $-1 $228 $455 #
straight-curve $-1 0 -45.496593284645023 14.569823368442812 -1 0 0 I I #
edge $-1 $232 -5.2745099449041675 $445 5.2745099449041675 $230 $456 forward 7 unknown #
point $-1 -74.652183443154001 -45.49659328464503 -14.569823368442812 #
point $-1 -74.652183443154001 -45.49659328464503 14.569823368442812 #
loop $-1 $-1 $355 $234 #
plane-surface $-1 0 45.496593284645023 0 0 -1 0 0 0 -1 forward_v I I I I #
coedge $-1 $237 $360 $457 $458 forward $142 $-1 #
coedge $-1 $239 $238 $237 $354 reversed $89 $-1 #
edge $-1 $459 -26.009259669031959 $361 -12.965407562194155 $237 $460 forward 7 unknown #
coedge $-1 $457 $461 $239 $356 forward $350 $-1 #
edge $-1 $358 15.610370829866216 $459 22.531874766969665 $355 $462 forward 7 unknown #
coedge $-1 $245 $240 $461 $463 forward $235 $-1 #
vertex $-1 $463 $464 #
straight-curve $-1 -71.551404609484749 19.487333615613057 14.56982336844281 0 1 0 I I #
coedge $-1 $352 $242 $245 $364 reversed $142 $-1 #
vertex $-1 $243 $465 #
straight-curve $-1 -76.271858882412175 32.452741177807212 56.771159893781906 0 0 1 I I #
straight-curve $-1 -76.271858882412161 32.452741177807212 9.507755786067051 -0.68199835119979291 0 -0.73135370988377701 I I #
edge $-1 $466 -45.496593284645023 $246 -32.452741177807212 $360 $467 forward 7 unknown #
point $-1 -76.271858882412175 32.452741177807212 14.569823368442812 #
point $-1 -71.551404609484749 32.452741177807212 14.569823368442812 #
edge $-1 $468 1 $468 0 $249 $-1 forward 7 unknown #
vertex $-1 $250 $469 #
ellipse-curve $-1 -71.342642193840788 35.061511599174786 9.6431681219875962 -0.73135370988377701 0 0.68199835119979291 0.68199835119979291 0 0.73135370988377701 1 I I #
point $-1 -73.229633394748689 35.061511599174786 12.770143287138714 #
edge $-1 $470 1 $470 0 $253 $-1 forward 7 unknown #
vertex $-1 $254 $471 #
ellipse-curve $-1 -71.342642193840788 38.974667231226128 9.6431681219875962 -0.73135370988377701 0 0.68199835119979291 0.68199835119979291 0 0.73135370988377701 1 I I #
point $-1 -73.229633394748689 38.974667231226128 12.770143287138714 #
edge $-1 $472 1 $472 0 $257 $-1 forward 7 unknown #
vertex $-1 $258 $473 #
ellipse-curve $-1 -71.342642193840788 42.887822863277471 9.6431681219875962 -0.73135370988377701 0 0.68199835119979291 0.68199835119979291 0 0.73135370988377701 1 I I #
point $-1 -73.229633394748689 42.887822863277471 12.770143287138714 #
loop $-1 $-1 $269 $261 #
plane-surface $-1 76.271858882412175 0 0 -1 0 0 0 0 1 forward_v I I I I #
coedge $-1 $382 $264 $266 $386 reversed $171 $-1 #
coedge $-1 $264 $381 $474 $475 reversed $171 $-1 #
coedge $-1 $272 $267 $264 $384 forward $262 $-1 #
edge $-1 $387 11.23557655986238 $476 19.405419821220733 $383 $477 forward 7 unknown #
coedge $-1 $266 $265 $390 $478 reversed $108 $-1 #
edge $-1 $479 -152.54371776482435 $387 -138.30003042161337 $381 $480 forward 7 unknown #
vertex $-1 $268 $481 #
straight-curve $-1 68.102015621053809 -13.47069695678562 14.569823368442812 0 -1 0 I I #
coedge $-1 $474 $269 $272 $394 reversed $379 $-1 #
coedge $-1 $269 $474 $385 $478 forward $379 $-1 #
vertex $-1 $270 $482 #
straight-curve $-1 76.271858882412175 -18.935214432305798 107.67702869486916 0 0 1 I I #
straight-curve $-1 -11.223621368880345 -18.935214432305798 127.8585771384458 0.57357642473473569 0 -0.81915205242281985 I I #
edge $-1 $476 -34.947573394836681 $273 -18.935214432305798 $389 $483 forward 7 unknown #
point $-1 76.271858882412175 -18.935214432305798 14.569823368442812 #
point $-1 68.102015621053823 -18.935214432305798 14.569823368442798 #
edge $-1 $484 1 $484 0 $276 $-1 forward 7 unknown #
vertex $-1 $277 $485 #
ellipse-curve $-1 69.452438855475606 -26.94139391357124 6.8212341753208863 0.81915205242281985 0 0.57357642473473569 0.86036463710210354 0 -1.2287280786342298 1 I I #
point $-1 73.047301888835079 -26.94139391357124 7.5072224291784808 #
plane-surface $-1 0 0 14.569823368442812 0 0 1 1 0 0 forward_v I I I I #
coedge $-1 $412 $411 $404 $486 forward $281 $-1 #
coedge $-1 $404 $283 $285 $408 reversed $186 $-1 #
coedge $-1 $283 $403 $402 $486 reversed $186 $-1 #
coedge $-1 $291 $286 $283 $406 forward $292 $-1 #
edge $-1 $409 11.23557655986238 $487 19.405419821220733 $405 $488 forward 7 unknown #
coedge $-1 $285 $284 $412 $489 reversed $117 $-1 #
edge $-1 $490 -152.54371776482435 $409 -138.30003042161337 $403 $491 forward 7 unknown #
vertex $-1 $287 $492 #
straight-curve $-1 68.102015621053809 6.6403447130848043 14.569823368442812 0 -1 0 I I #
coedge $-1 $402 $288 $291 $416 reversed $281 $-1 #
coedge $-1 $288 $402 $407 $489 forward $281 $-1 #
vertex $-1 $289 $493 #
straight-curve $-1 76.271858882412175 21.28686890743505 107.67702869486916 0 0 1 I I #
straight-curve $-1 -11.223621368880345 21.28686890743505 127.8585771384458 0.57357642473473569 0 -0.81915205242281985 I I #
edge $-1 $487 5.2745099449041657 $293 21.28686890743505 $411 $494 forward 7 unknown #
point $-1 76.271858882412175 21.28686890743505 14.569823368442812 #
point $-1 68.102015621053823 21.28686890743505 14.569823368442798 #
edge $-1 $495 1 $495 0 $296 $-1 forward 7 unknown #
vertex $-1 $297 $496 #
ellipse-curve $-1 69.452438855475606 13.280689426169609 6.8212341753208863 0.81915205242281985 0 0.57357642473473569 0.86036463710210354 0 -1.2287280786342298 1 I I #
point $-1 73.047301888835079 13.280689426169609 7.5072224291784808 #
plane-surface $-1 76.271858882412175 0 0 -1 0 0 0 0 1 forward_v I I I I #
coedge $-1 $305 $303 $307 $428 reversed $201 $-1 #
edge $-1 $318 -14.569823368442812 $430 14.569823368442812 $317 $497 forward 7 unknown #
vertex $-1 $428 $498 #
straight-curve $-1 -76.271858882412175 -45.496593284645023 0 0 0 -1 I I #
edge $-1 $426 -45.496593284645023 $430 45.496593284645023 $424 $499 forward 7 unknown #
straight-curve $-1 0 -45.496593284645023 -14.569823368442812 -1 0 0 I I #
vertex $-1 $310 $500 #
straight-curve $-1 0 45.496593284645023 -14.569823368442812 1 0 0 I I #
point $-1 76.271858882412175 45.496593284645023 -14.569823368442812 #
point $-1 76.271858882412175 -45.496593284645023 -14.569823368442812 #
straight-curve $-1 -76.271858882412175 0 14.569823368442812 0 -1 0 I I #
point $-1 -76.271858882412175 45.496593284645023 14.569823368442812 #
point $-1 -76.271858882412175 -45.496593284645023 14.569823368442812 #
straight-curve $-1 76.271858882412175 -45.496593284645023 0 0 0 -1 I I #
straight-curve $-1 76.271858882412175 45.496593284645023 0 0 0 -1 I I #
plane-surface $-1 0 0 14.569823368442812 0 0 1 1 0 0 forward_v I I I I #
coedge $-1 $335 $452 $441 $501 forward $328 $-1 #
coedge $-1 $331 $330 $440 $501 reversed $134 $-1 #
edge $-1 $448 -3.631673096766761 $446 3.631673096766761 $330 $502 forward 7 unknown #
coedge $-1 $343 $342 $331 $444 forward $344 $-1 #
edge $-1 $445 -3.631673096766761 $503 3.631673096766761 $331 $504 forward 7 unknown #
vertex $-1 $347 $505 #
vertex $-1 $337 $506 #
straight-curve $-1 -74.652183443154001 -56.045613174453365 0 0 0 -1 I I #
vertex $-1 $501 $507 #
straight-curve $-1 -67.388837249620479 -50.771103229549198 -14.569823368442812 0 -1 0 I I #
straight-curve $-1 -74.652183443154001 -50.771103229549198 -14.569823368442812 0 1 0 I I #
point $-1 -67.388837249620479 -45.49659328464503 -14.569823368442812 #
coedge $-1 $440 $340 $343 $454 reversed $328 $-1 #
straight-curve $-1 -67.388837249620479 -45.496593284645023 0 0 0 -1 I I #
edge $-1 $503 -5.2745099449041675 $345 5.2745099449041675 $452 $508 forward 7 unknown #
point $-1 -67.388837249620479 -45.49659328464503 14.569823368442812 #
straight-curve $-1 -74.652183443154001 -50.771103229549198 14.569823368442812 0 -1 0 I I #
coedge $-1 $461 $355 $352 $458 reversed $350 $-1 #
edge $-1 $466 -14.569823368442812 $459 -9.507755786067035 $457 $509 forward 7 unknown #
vertex $-1 $356 $510 #
straight-curve $-1 -76.271858882412175 19.487333615613057 9.5077557860670439 0 -1 0 I I #
coedge $-1 $355 $457 $357 $463 reversed $350 $-1 #
straight-curve $-1 -60.905157441898645 45.496593284645023 25.986525987526964 -0.68199835119979291 0 -0.73135370988377701 I I #
edge $-1 $358 71.551404609484749 $466 76.271858882412175 $461 $511 forward 7 unknown #
point $-1 -71.551404609484749 45.496593284645016 14.569823368442812 #
point $-1 -76.271858882412175 32.452741177807212 9.507755786067035 #
vertex $-1 $463 $512 #
straight-curve $-1 -76.271858882412175 0 14.569823368442812 0 -1 0 I I #
vertex $-1 $367 $513 #
point $-1 -70.660643842640994 35.061511599174786 10.374521831871373 #
vertex $-1 $371 $514 #
point $-1 -70.660643842640994 38.974667231226128 10.374521831871373 #
vertex $-1 $375 $515 #
point $-1 -70.660643842640994 42.887822863277471 10.374521831871373 #
coedge $-1 $390 $389 $382 $475 forward $379 $-1 #
edge $-1 $476 93.107205326426353 $479 104.77495104768659 $474 $516 forward 7 unknown #
vertex $-1 $394 $517 #
straight-curve $-1 56.866439061191443 -34.947573394836681 14.569823368442812 1 0 0 I I #
edge $-1 $479 -21.476876438051061 $391 -5.4645174755201786 $390 $518 forward 7 unknown #
vertex $-1 $478 $519 #
straight-curve $-1 -11.223621368880345 -34.947573394836681 127.8585771384458 -0.57357642473473569 0 0.81915205242281985 I I #
point $-1 68.102015621053823 -34.947573394836681 14.569823368442798 #
point $-1 76.271858882412175 -18.935214432305798 2.9020776471825798 #
straight-curve $-1 76.271858882412175 0 14.569823368442812 0 1 0 I I #
vertex $-1 $397 $520 #
point $-1 70.312803492577714 -26.94139391357124 5.5925060966866571 #
edge $-1 $487 93.107205326426353 $490 104.77495104768659 $402 $521 forward 7 unknown #
vertex $-1 $416 $522 #
straight-curve $-1 56.866439061191443 5.2745099449041657 14.569823368442812 1 0 0 I I #
edge $-1 $490 -1.3658347681806386 $413 14.646524194350246 $412 $523 forward 7 unknown #
vertex $-1 $489 $524 #
straight-curve $-1 -11.223621368880345 5.2745099449041657 127.8585771384458 -0.57357642473473569 0 0.81915205242281985 I I #
point $-1 68.102015621053823 5.2745099449041657 14.569823368442798 #
point $-1 76.271858882412175 21.28686890743505 2.9020776471825798 #
straight-curve $-1 76.271858882412175 0 14.569823368442812 0 1 0 I I #
vertex $-1 $419 $525 #
point $-1 70.312803492577714 13.280689426169609 5.5925060966866571 #
straight-curve $-1 -76.271858882412175 45.496593284645023 0 0 0 -1 I I #
point $-1 -76.271858882412175 -45.496593284645023 -14.569823368442812 #
straight-curve $-1 -76.271858882412175 0 -14.569823368442812 0 1 0 I I #
point $-1 -76.271858882412175 45.496593284645023 -14.569823368442812 #
edge $-1 $503 -14.569823368442812 $448 14.569823368442812 $440 $526 forward 7 unknown #
straight-curve $-1 -71.02051034638724 -56.045613174453365 -14.569823368442812 -1 0 0 I I #
vertex $-1 $454 $527 #
straight-curve $-1 -71.02051034638724 -56.045613174453365 14.569823368442812 1 0 0 I I #
point $-1 -74.652183443154001 -56.045613174453365 14.569823368442812 #
point $-1 -74.652183443154001 -56.045613174453365 -14.569823368442812 #
point $-1 -67.388837249620479 -56.045613174453365 -14.569823368442812 #
straight-curve $-1 -67.388837249620479 -50.771103229549198 14.569823368442812 0 1 0 I I #
straight-curve $-1 -76.271858882412175 45.496593284645023 0 0 0 -1 I I #
point $-1 -76.271858882412175 45.496593284645016 9.507755786067035 #
straight-curve $-1 0 45.496593284645023 14.569823368442812 -1 0 0 I I #
point $-1 -76.271858882412175 45.496593284645023 14.569823368442812 #
point $-1 -70.611288483956997 35.061511599174786 8.9611697707878015 #
point $-1 -70.611288483956997 38.974667231226128 8.9611697707878015 #
point $-1 -70.611288483956997 42.887822863277471 8.9611697707878015 #
straight-curve $-1 76.271858882412175 -34.947573394836681 107.67702869486916 0 0 -1 I I #
point $-1 76.271858882412175 -34.947573394836681 14.569823368442812 #
straight-curve $-1 76.271858882412175 -13.47069695678562 2.9020776471825869 0 1 0 I I #
point $-1 76.271858882412175 -34.947573394836681 2.9020776471825798 #
point $-1 68.223710776841386 -26.94139391357124 5.9608695382187831 #
straight-curve $-1 76.271858882412175 5.2745099449041657 107.67702869486916 0 0 -1 I I #
point $-1 76.271858882412175 5.2745099449041657 14.569823368442812 #
straight-curve $-1 76.271858882412175 6.6403447130848043 2.9020776471825869 0 1 0 I I #
point $-1 76.271858882412175 5.2745099449041657 2.9020776471825798 #
point $-1 68.223710776841386 13.280689426169609 5.9608695382187831 #
straight-curve $-1 -67.388837249620479 -56.045613174453365 0 0 0 -1 I I #
point $-1 -67.388837249620479 -56.045613174453365 14.569823368442812 #
End-of-ACIS-data 