500 0 13 0           
7 Unknown 11 ACIS 5.0 NT 24 Fri Mar 26 00:44:29 1999 
-1 9.9999999999999995e-007 1e-010 
body $-1 $13 $-1 $14 #
body $-1 $15 $-1 $16 #
body $-1 $17 $-1 $18 #
body $-1 $19 $-1 $20 #
body $-1 $21 $-1 $22 #
body $-1 $23 $-1 $24 #
body $-1 $25 $-1 $26 #
body $-1 $27 $-1 $28 #
body $-1 $29 $-1 $30 #
body $-1 $31 $-1 $32 #
body $-1 $33 $-1 $34 #
body $-1 $35 $-1 $36 #
body $-1 $37 $-1 $38 #
lump $-1 $-1 $39 $0 #
transform $-1 1 0 0 0 1 0 0 0 1 56.160161137730029 36.508303854328659 16.725943987267566 1 rotate no_reflect no_shear #
lump $-1 $-1 $40 $1 #
transform $-1 1 0 0 0 1 0 0 0 1 56.160161137730029 36.508303854328659 16.725943987267566 1 rotate no_reflect no_shear #
lump $-1 $-1 $41 $2 #
transform $-1 1 0 0 0 1 0 0 0 1 56.160161137730029 36.508303854328659 16.725943987267566 1 rotate no_reflect no_shear #
lump $-1 $-1 $42 $3 #
transform $-1 1 0 0 0 1 0 0 0 1 56.160161137730029 36.508303854328659 16.725943987267566 1 rotate no_reflect no_shear #
lump $-1 $-1 $43 $4 #
transform $-1 1 0 0 0 1 0 0 0 1 56.160161137730029 36.508303854328659 16.725943987267566 1 rotate no_reflect no_shear #
lump $-1 $-1 $44 $5 #
transform $-1 1 0 0 0 1 0 0 0 1 56.160161137730029 36.508303854328659 16.725943987267566 1 rotate no_reflect no_shear #
lump $-1 $-1 $45 $6 #
transform $-1 1 0 0 0 1 0 0 0 1 56.160161137730029 36.508303854328659 16.725943987267566 1 rotate no_reflect no_shear #
lump $-1 $-1 $46 $7 #
transform $-1 1 0 0 0 1 0 0 0 1 56.160161137730029 36.508303854328659 16.725943987267566 1 rotate no_reflect no_shear #
lump $-1 $-1 $47 $8 #
transform $-1 1 0 0 0 1 0 0 0 1 56.160161137730029 36.508303854328659 16.725943987267566 1 rotate no_reflect no_shear #
lump $-1 $-1 $48 $9 #
transform $-1 1 0 0 0 1 0 0 0 1 56.160161137730029 36.508303854328659 16.725943987267566 1 rotate no_reflect no_shear #
lump $-1 $-1 $49 $10 #
transform $-1 1 0 0 0 1 0 0 0 1 56.160161137730029 36.508303854328659 16.725943987267566 1 rotate no_reflect no_shear #
lump $-1 $-1 $50 $11 #
transform $-1 1 0 0 0 1 0 0 0 1 56.160161137730029 36.508303854328659 16.725943987267566 1 rotate no_reflect no_shear #
lump $-1 $-1 $51 $12 #
transform $-1 1 0 0 0 1 0 0 0 1 56.160161137730029 36.508303854328659 16.725943987267566 1 rotate no_reflect no_shear #
shell $-1 $-1 $-1 $52 $-1 $13 #
shell $-1 $-1 $-1 $53 $-1 $15 #
shell $-1 $-1 $-1 $54 $-1 $17 #
shell $-1 $-1 $-1 $55 $-1 $19 #
shell $-1 $-1 $-1 $56 $-1 $21 #
shell $-1 $-1 $-1 $57 $-1 $23 #
shell $-1 $-1 $-1 $58 $-1 $25 #
shell $-1 $-1 $-1 $59 $-1 $27 #
shell $-1 $-1 $-1 $60 $-1 $29 #
shell $-1 $-1 $-1 $61 $-1 $31 #
shell $-1 $-1 $-1 $62 $-1 $33 #
shell $-1 $-1 $-1 $63 $-1 $35 #
shell $-1 $-1 $-1 $64 $-1 $37 #
face $-1 $65 $66 $39 $-1 $67 forward single #
face $-1 $68 $69 $40 $-1 $70 forward single #
face $-1 $71 $72 $41 $-1 $73 reversed single #
face $-1 $74 $75 $42 $-1 $76 forward single #
face $-1 $77 $78 $43 $-1 $79 forward single #
face $-1 $80 $81 $44 $-1 $82 forward single #
face $-1 $83 $84 $45 $-1 $85 reversed single #
face $-1 $86 $87 $46 $-1 $88 forward single #
face $-1 $89 $90 $47 $-1 $91 forward single #
face $-1 $92 $93 $48 $-1 $94 forward single #
face $-1 $95 $96 $49 $-1 $97 reversed single #
face $-1 $98 $99 $50 $-1 $100 forward single #
face $-1 $101 $102 $51 $-1 $103 forward single #
face $-1 $104 $105 $39 $-1 $106 reversed single #
loop $-1 $-1 $107 $52 #
plane-surface $-1 0 0 16.725943987267566 0 0 1 1 0 0 forward_v I I I I #
face $-1 $108 $109 $40 $-1 $110 reversed single #
loop $-1 $-1 $111 $53 #
plane-surface $-1 -56.160161137730029 0 0 1 0 0 0 0 -1 forward_v I I I I #
face $-1 $112 $113 $41 $-1 $114 reversed single #
loop $-1 $-1 $115 $54 #
plane-surface $-1 -9.2997126037478175 -132.78561219319232 68.75727605020576 -1 0 0 0 -0.85716730853699208 0.51503806187062418 forward_v I I I I #
face $-1 $116 $117 $42 $-1 $118 forward single #
loop $-1 $119 $120 $55 #
cone-surface $-1 -20.420120326847275 -34.289544188760843 13.5340541214307 0 0.85716730853699208 -0.51503806187062418 1 0 0 1 I I 0 1 1 forward I I I I #
face $-1 $121 $122 $43 $-1 $123 forward single #
loop $-1 $124 $125 $56 #
cone-surface $-1 -16.249967430684983 -34.289544188760843 13.5340541214307 0 0.85716730853699208 -0.51503806187062418 1 0 0 1 I I 0 1 1 forward I I I I #
face $-1 $126 $127 $44 $-1 $128 forward single #
loop $-1 $129 $130 $57 #
cone-surface $-1 -12.07981453452269 -34.289544188760843 13.5340541214307 0 0.85716730853699208 -0.51503806187062418 1 0 0 1 I I 0 1 1 forward I I I I #
face $-1 $131 $132 $45 $-1 $133 reversed single #
loop $-1 $-1 $134 $58 #
plane-surface $-1 36.858296256231071 -132.78561219319232 68.75727605020576 -1 0 0 0 -0.85716730853699208 0.51503806187062418 forward_v I I I I #
face $-1 $135 $136 $46 $-1 $137 forward single #
loop $-1 $138 $139 $59 #
cone-surface $-1 25.737888533131624 -34.289544188760843 13.5340541214307 0 0.85716730853699208 -0.51503806187062418 1 0 0 1 I I 0 1 1 forward I I I I #
face $-1 $140 $141 $47 $-1 $142 forward single #
loop $-1 $143 $144 $60 #
cone-surface $-1 29.908041429293917 -34.289544188760843 13.5340541214307 0 0.85716730853699208 -0.51503806187062418 1 0 0 1 I I 0 1 1 forward I I I I #
face $-1 $145 $146 $48 $-1 $147 forward single #
loop $-1 $148 $149 $61 #
cone-surface $-1 34.078194325456209 -34.289544188760843 13.5340541214307 0 0.85716730853699208 -0.51503806187062418 1 0 0 1 I I 0 1 1 forward I I I I #
face $-1 $150 $151 $49 $-1 $152 reversed single #
loop $-1 $-1 $153 $62 #
plane-surface $-1 7.5496818103653993 77.84675025955174 132.07599873879116 1 0 0 0 -0.77714596973225614 -0.62932038083071107 forward_v I I I I #
face $-1 $154 $155 $50 $-1 $156 forward single #
loop $-1 $157 $158 $63 #
cone-surface $-1 12.877285481999678 30.040080623629517 9.4088153020598675 0 -0.77714596973225614 -0.62932038083071107 1.5 0 0 1 I I 0 1 1.5 forward I I I I #
face $-1 $159 $160 $51 $-1 $161 forward single #
loop $-1 $162 $163 $64 #
cone-surface $-1 20.868690989451082 30.040080623629517 9.4088153020598675 0 -0.77714596973225614 -0.62932038083071107 1.5 0 0 1 I I 0 1 1.5 forward I I I I #
face $-1 $164 $165 $39 $-1 $166 reversed single #
loop $-1 $-1 $167 $65 #
plane-surface $-1 0 0 -16.725943987267566 0 0 1 1 0 0 forward_v I I I I #
coedge $-1 $168 $169 $170 $171 forward $66 $-1 #
face $-1 $172 $173 $40 $-1 $174 forward single #
loop $-1 $-1 $175 $68 #
plane-surface $-1 0 36.508303854328659 0 0 -1 0 0 0 -1 forward_v I I I I #
coedge $-1 $176 $177 $178 $179 forward $69 $-1 #
face $-1 $180 $181 $41 $-1 $182 reversed single #
loop $-1 $-1 $183 $71 #
plane-surface $-1 -16.249967430684976 -36.508303854328659 10.908034956768915 0 -0.85716730853699208 0.51503806187062418 1 0 0 forward_v I I I I #
coedge $-1 $184 $185 $186 $187 reversed $72 $-1 #
face $-1 $-1 $188 $42 $-1 $189 forward single #
loop $-1 $190 $191 $74 #
cone-surface $-1 -20.420120326847275 -33.390077019452207 12.99359973990784 0 0.85716730853699208 -0.51503806187062418 0.5 0 0 1 I I -0.70710678118654746 0.70710678118654746 0.5 forward I I I I #
loop $-1 $-1 $192 $55 #
coedge $-1 $120 $120 $193 $194 reversed $75 $-1 #
face $-1 $-1 $195 $43 $-1 $196 forward single #
loop $-1 $197 $198 $77 #
cone-surface $-1 -16.249967430684983 -33.390077019452207 12.99359973990784 0 0.85716730853699208 -0.51503806187062418 0.5 0 0 1 I I -0.70710678118654746 0.70710678118654746 0.5 forward I I I I #
loop $-1 $-1 $199 $56 #
coedge $-1 $125 $125 $200 $201 reversed $78 $-1 #
face $-1 $-1 $202 $44 $-1 $203 forward single #
loop $-1 $204 $205 $80 #
cone-surface $-1 -12.07981453452269 -33.390077019452207 12.99359973990784 0 0.85716730853699208 -0.51503806187062418 0.5 0 0 1 I I -0.70710678118654746 0.70710678118654746 0.5 forward I I I I #
loop $-1 $-1 $206 $57 #
coedge $-1 $130 $130 $207 $208 reversed $81 $-1 #
face $-1 $209 $210 $45 $-1 $211 reversed single #
loop $-1 $-1 $212 $83 #
plane-surface $-1 29.908041429293917 -36.508303854328659 10.908034956768915 0 -0.85716730853699208 0.51503806187062418 1 0 0 forward_v I I I I #
coedge $-1 $213 $214 $215 $216 reversed $84 $-1 #
face $-1 $-1 $217 $46 $-1 $218 forward single #
loop $-1 $219 $220 $86 #
cone-surface $-1 25.737888533131624 -33.390077019452207 12.99359973990784 0 0.85716730853699208 -0.51503806187062418 0.5 0 0 1 I I -0.70710678118654746 0.70710678118654746 0.5 forward I I I I #
loop $-1 $-1 $221 $59 #
coedge $-1 $139 $139 $222 $223 reversed $87 $-1 #
face $-1 $-1 $224 $47 $-1 $225 forward single #
loop $-1 $226 $227 $89 #
cone-surface $-1 29.908041429293917 -33.390077019452207 12.99359973990784 0 0.85716730853699208 -0.51503806187062418 0.5 0 0 1 I I -0.70710678118654746 0.70710678118654746 0.5 forward I I I I #
loop $-1 $-1 $228 $60 #
coedge $-1 $144 $144 $229 $230 reversed $90 $-1 #
face $-1 $-1 $231 $48 $-1 $232 forward single #
loop $-1 $233 $234 $92 #
cone-surface $-1 34.078194325456209 -33.390077019452207 12.99359973990784 0 0.85716730853699208 -0.51503806187062418 0.5 0 0 1 I I -0.70710678118654746 0.70710678118654746 0.5 forward I I I I #
loop $-1 $-1 $235 $61 #
coedge $-1 $149 $149 $236 $237 reversed $93 $-1 #
face $-1 $238 $239 $49 $-1 $240 reversed single #
loop $-1 $-1 $241 $95 #
plane-surface $-1 16.872988235725373 -9.4425355158501958 61.390530749370427 0 0.77714596973225614 0.62932038083071107 1 0 0 forward_v I I I I #
coedge $-1 $242 $243 $244 $245 reversed $96 $-1 #
face $-1 $-1 $246 $50 $-1 $247 forward single #
loop $-1 $248 $249 $98 #
cone-surface $-1 12.877285481999678 27.880083482345881 7.659684152329806 0 -0.77714596973225614 -0.62932038083071107 0.75 0 0 1 I I -0.70710678118654713 0.70710678118654802 0.75 forward I I I I #
loop $-1 $-1 $250 $63 #
coedge $-1 $158 $158 $251 $252 reversed $99 $-1 #
face $-1 $-1 $253 $51 $-1 $254 forward single #
loop $-1 $255 $256 $101 #
cone-surface $-1 20.868690989451082 27.880083482345881 7.659684152329806 0 -0.77714596973225614 -0.62932038083071107 0.75 0 0 1 I I -0.70710678118654713 0.70710678118654802 0.75 forward I I I I #
loop $-1 $-1 $257 $64 #
coedge $-1 $163 $163 $258 $259 reversed $102 $-1 #
face $-1 $260 $261 $39 $-1 $262 reversed single #
loop $-1 $-1 $263 $104 #
plane-surface $-1 0 -36.508303854328659 0 0 1 0 0 0 1 forward_v I I I I #
coedge $-1 $264 $265 $266 $267 forward $105 $-1 #
coedge $-1 $268 $107 $269 $270 forward $66 $-1 #
coedge $-1 $107 $268 $271 $272 forward $66 $-1 #
coedge $-1 $273 $274 $107 $171 reversed $275 $-1 #
edge $-1 $276 -36.508303854328659 $277 36.508303854328659 $170 $278 forward 7 unknown #
face $-1 $279 $280 $40 $-1 $281 reversed single #
loop $-1 $-1 $178 $108 #
plane-surface $-1 -66.162313415481165 0 7.5952090188121888 0 0 1 1 0 0 forward_v I I I I #
coedge $-1 $282 $283 $177 $284 forward $109 $-1 #
coedge $-1 $285 $111 $286 $287 reversed $69 $-1 #
coedge $-1 $111 $285 $175 $284 reversed $69 $-1 #
coedge $-1 $288 $289 $111 $179 reversed $173 $-1 #
edge $-1 $290 -36.508303854328659 $291 36.508303854328659 $178 $292 forward 7 unknown #
face $-1 $293 $294 $41 $-1 $295 reversed single #
loop $-1 $-1 $296 $112 #
plane-surface $-1 -23.200222257622134 -132.78561219319232 68.75727605020576 1 0 0 0 0.85716730853699208 -0.51503806187062418 forward_v I I I I #
coedge $-1 $297 $298 $299 $300 reversed $113 $-1 #
coedge $-1 $185 $115 $301 $302 reversed $72 $-1 #
coedge $-1 $115 $184 $297 $303 reversed $72 $-1 #
coedge $-1 $299 $304 $115 $187 forward $305 $-1 #
edge $-1 $306 29.884502242267502 $307 33.38025454332287 $186 $308 forward 7 unknown #
loop $-1 $-1 $193 $116 #
plane-surface $-1 -16.249967430684976 -36.508303854328659 10.908034956768915 0 -0.85716730853699208 0.51503806187062418 1 0 0 forward_v I I I I #
loop $-1 $-1 $309 $74 #
coedge $-1 $191 $191 $192 $310 reversed $117 $-1 #
coedge $-1 $192 $192 $191 $310 forward $119 $-1 #
coedge $-1 $193 $193 $120 $194 forward $188 $-1 #
edge $-1 $311 -6.1429551296134909e-016 $311 6.2831853071795996 $193 $312 forward 7 unknown #
loop $-1 $-1 $200 $121 #
plane-surface $-1 -16.249967430684976 -36.508303854328659 10.908034956768915 0 -0.85716730853699208 0.51503806187062418 1 0 0 forward_v I I I I #
loop $-1 $-1 $313 $77 #
coedge $-1 $198 $198 $199 $314 reversed $122 $-1 #
coedge $-1 $199 $199 $198 $314 forward $124 $-1 #
coedge $-1 $200 $200 $125 $201 forward $195 $-1 #
edge $-1 $315 -6.1429551296134909e-016 $315 6.2831853071795996 $200 $316 forward 7 unknown #
loop $-1 $-1 $207 $126 #
plane-surface $-1 -16.249967430684976 -36.508303854328659 10.908034956768915 0 -0.85716730853699208 0.51503806187062418 1 0 0 forward_v I I I I #
loop $-1 $-1 $317 $80 #
coedge $-1 $205 $205 $206 $318 reversed $127 $-1 #
coedge $-1 $206 $206 $205 $318 forward $129 $-1 #
coedge $-1 $207 $207 $130 $208 forward $202 $-1 #
edge $-1 $319 -6.1429551296134909e-016 $319 6.2831853071795996 $207 $320 forward 7 unknown #
face $-1 $321 $322 $45 $-1 $323 reversed single #
loop $-1 $-1 $324 $131 #
plane-surface $-1 22.957786602356759 -132.78561219319232 68.75727605020576 1 0 0 0 0.85716730853699208 -0.51503806187062418 forward_v I I I I #
coedge $-1 $325 $326 $327 $328 reversed $132 $-1 #
coedge $-1 $214 $134 $329 $330 reversed $84 $-1 #
coedge $-1 $134 $213 $325 $331 reversed $84 $-1 #
coedge $-1 $327 $332 $134 $216 forward $333 $-1 #
edge $-1 $334 29.884502242267502 $335 33.38025454332287 $215 $336 forward 7 unknown #
loop $-1 $-1 $222 $135 #
plane-surface $-1 29.908041429293917 -36.508303854328659 10.908034956768915 0 -0.85716730853699208 0.51503806187062418 1 0 0 forward_v I I I I #
loop $-1 $-1 $337 $86 #
coedge $-1 $220 $220 $221 $338 reversed $136 $-1 #
coedge $-1 $221 $221 $220 $338 forward $138 $-1 #
coedge $-1 $222 $222 $139 $223 forward $217 $-1 #
edge $-1 $339 -6.1429551296134909e-016 $339 6.2831853071795996 $222 $340 forward 7 unknown #
loop $-1 $-1 $229 $140 #
plane-surface $-1 29.908041429293917 -36.508303854328659 10.908034956768915 0 -0.85716730853699208 0.51503806187062418 1 0 0 forward_v I I I I #
loop $-1 $-1 $341 $89 #
coedge $-1 $227 $227 $228 $342 reversed $141 $-1 #
coedge $-1 $228 $228 $227 $342 forward $143 $-1 #
coedge $-1 $229 $229 $144 $230 forward $224 $-1 #
edge $-1 $343 -6.1429551296134909e-016 $343 6.2831853071795996 $229 $344 forward 7 unknown #
loop $-1 $-1 $236 $145 #
plane-surface $-1 29.908041429293917 -36.508303854328659 10.908034956768915 0 -0.85716730853699208 0.51503806187062418 1 0 0 forward_v I I I I #
loop $-1 $-1 $345 $92 #
coedge $-1 $234 $234 $235 $346 reversed $146 $-1 #
coedge $-1 $235 $235 $234 $346 forward $148 $-1 #
coedge $-1 $236 $236 $149 $237 forward $231 $-1 #
edge $-1 $347 -6.1429551296134909e-016 $347 6.2831853071795996 $236 $348 forward 7 unknown #
face $-1 $349 $350 $49 $-1 $351 forward single #
loop $-1 $-1 $352 $150 #
plane-surface $-1 26.196294661085346 77.84675025955174 132.07599873879116 -1 0 0 0 0.77714596973225614 0.62932038083071107 forward_v I I I I #
coedge $-1 $353 $354 $355 $356 reversed $151 $-1 #
coedge $-1 $243 $153 $357 $358 reversed $96 $-1 #
coedge $-1 $153 $242 $353 $359 reversed $96 $-1 #
coedge $-1 $355 $360 $153 $245 forward $350 $-1 #
edge $-1 $361 2.415071275447211 $362 12.197242408876612 $244 $363 forward 7 unknown #
loop $-1 $-1 $251 $154 #
plane-surface $-1 16.872988235725373 -9.4425355158501958 61.390530749370427 0 0.77714596973225614 0.62932038083071107 1 0 0 forward_v I I I I #
loop $-1 $-1 $364 $98 #
coedge $-1 $249 $249 $250 $365 reversed $155 $-1 #
coedge $-1 $250 $250 $249 $365 forward $157 $-1 #
coedge $-1 $251 $251 $158 $252 forward $246 $-1 #
edge $-1 $366 -1.2704470335423277e-015 $366 6.2831853071795996 $251 $367 forward 7 unknown #
loop $-1 $-1 $258 $159 #
plane-surface $-1 16.872988235725373 -9.4425355158501958 61.390530749370427 0 0.77714596973225614 0.62932038083071107 1 0 0 forward_v I I I I #
loop $-1 $-1 $368 $101 #
coedge $-1 $256 $256 $257 $369 reversed $160 $-1 #
coedge $-1 $257 $257 $256 $369 forward $162 $-1 #
coedge $-1 $258 $258 $163 $259 forward $253 $-1 #
edge $-1 $370 -1.2704470335423277e-015 $370 6.2831853071795996 $258 $371 forward 7 unknown #
face $-1 $372 $373 $39 $-1 $374 reversed single #
loop $-1 $-1 $375 $164 #
plane-surface $-1 -56.160161137730029 0 0 1 0 0 0 0 -1 forward_v I I I I #
coedge $-1 $376 $271 $375 $377 forward $165 $-1 #
coedge $-1 $378 $167 $376 $379 forward $105 $-1 #
coedge $-1 $167 $378 $380 $381 forward $105 $-1 #
coedge $-1 $274 $273 $167 $267 reversed $275 $-1 #
edge $-1 $382 -36.508303854328659 $383 36.508303854328659 $266 $384 forward 7 unknown #
coedge $-1 $169 $168 $385 $386 forward $66 $-1 #
coedge $-1 $387 $388 $168 $270 reversed $373 $-1 #
edge $-1 $277 -56.160161137730029 $389 56.160161137730029 $269 $390 forward 7 unknown #
coedge $-1 $263 $391 $169 $272 reversed $165 $-1 #
edge $-1 $392 -56.160161137730029 $276 56.160161137730029 $271 $393 forward 7 unknown #
coedge $-1 $266 $170 $391 $394 forward $275 $-1 #
coedge $-1 $170 $266 $387 $395 reversed $275 $-1 #
loop $-1 $-1 $273 $372 #
vertex $-1 $171 $396 #
vertex $-1 $171 $397 #
straight-curve $-1 56.160161137730029 0 16.725943987267566 0 1 0 I I #
face $-1 $398 $399 $40 $-1 $400 reversed single #
loop $-1 $-1 $401 $172 #
plane-surface $-1 -66.162313415481165 0 -0.89532464975119286 0 0 1 1 0 0 forward_v I I I I #
coedge $-1 $402 $175 $403 $404 reversed $109 $-1 #
coedge $-1 $175 $402 $288 $405 reversed $109 $-1 #
edge $-1 $290 -7.5952090188121888 $406 0.89532464975119286 $175 $407 forward 7 unknown #
coedge $-1 $177 $176 $401 $408 forward $69 $-1 #
coedge $-1 $409 $410 $176 $287 forward $411 $-1 #
edge $-1 $412 -0.89532464975119286 $291 7.5952090188121888 $286 $413 forward 7 unknown #
coedge $-1 $414 $178 $283 $405 forward $173 $-1 #
coedge $-1 $178 $414 $409 $415 forward $173 $-1 #
vertex $-1 $284 $416 #
vertex $-1 $415 $417 #
straight-curve $-1 -56.160161137730029 0 7.5952090188121888 0 -1 0 I I #
face $-1 $-1 $305 $41 $-1 $418 forward single #
loop $-1 $-1 $419 $180 #
plane-surface $-1 0 -36.508303854328659 0 0 1 0 0 0 1 forward_v I I I I #
coedge $-1 $420 $421 $422 $423 reversed $181 $-1 #
coedge $-1 $424 $183 $185 $303 forward $113 $-1 #
coedge $-1 $183 $424 $420 $425 forward $113 $-1 #
coedge $-1 $422 $186 $183 $300 forward $305 $-1 #
edge $-1 $307 1.1747288884053297 $426 15.075238542279646 $299 $427 forward 7 unknown #
coedge $-1 $428 $429 $184 $302 forward $294 $-1 #
edge $-1 $430 -23.470603068333965 $306 -17.652694037835314 $301 $431 forward 7 unknown #
edge $-1 $307 -6.7873669149009235 $430 0 $185 $432 forward 7 unknown #
coedge $-1 $186 $422 $428 $433 forward $305 $-1 #
loop $-1 $-1 $422 $293 #
vertex $-1 $302 $434 #
vertex $-1 $187 $435 #
straight-curve $-1 -9.2997126037478175 -66.392806096596161 16.725943987267566 0 1 0 I I #
coedge $-1 $309 $309 $-1 $436 reversed $190 $-1 #
edge $-1 $437 0 $437 6.2831853071796004 $191 $438 forward 7 unknown #
vertex $-1 $194 $439 #
ellipse-curve $-1 -20.420120326847275 -34.760427703800971 13.816989472018244 0 -0.85716730853699208 0.51503806187062418 1 0 0 1 I I #
coedge $-1 $313 $313 $-1 $440 reversed $197 $-1 #
edge $-1 $441 0 $441 6.2831853071796004 $198 $442 forward 7 unknown #
vertex $-1 $201 $443 #
ellipse-curve $-1 -16.249967430684983 -34.760427703800971 13.816989472018244 0 -0.85716730853699208 0.51503806187062418 1 0 0 1 I I #
coedge $-1 $317 $317 $-1 $444 reversed $204 $-1 #
edge $-1 $445 0 $445 6.2831853071796004 $205 $446 forward 7 unknown #
vertex $-1 $208 $447 #
ellipse-curve $-1 -12.07981453452269 -34.760427703800971 13.816989472018244 0 -0.85716730853699208 0.51503806187062418 1 0 0 1 I I #
face $-1 $-1 $333 $45 $-1 $448 forward single #
loop $-1 $-1 $449 $209 #
plane-surface $-1 0 -36.508303854328659 0 0 1 0 0 0 1 forward_v I I I I #
coedge $-1 $450 $451 $452 $453 reversed $210 $-1 #
coedge $-1 $454 $212 $214 $331 forward $132 $-1 #
coedge $-1 $212 $454 $450 $455 forward $132 $-1 #
coedge $-1 $452 $215 $212 $328 forward $333 $-1 #
edge $-1 $335 -21.904275541584113 $456 -8.0037658877098004 $327 $457 forward 7 unknown #
coedge $-1 $458 $459 $213 $330 forward $322 $-1 #
edge $-1 $460 -23.470603068333965 $334 -17.652694037835314 $329 $461 forward 7 unknown #
edge $-1 $335 -6.7873669149009235 $460 0 $214 $462 forward 7 unknown #
coedge $-1 $215 $452 $458 $463 forward $333 $-1 #
loop $-1 $-1 $452 $321 #
vertex $-1 $330 $464 #
vertex $-1 $216 $465 #
straight-curve $-1 36.858296256231071 -66.392806096596161 16.725943987267566 0 1 0 I I #
coedge $-1 $337 $337 $-1 $466 reversed $219 $-1 #
edge $-1 $467 0 $467 6.2831853071796004 $220 $468 forward 7 unknown #
vertex $-1 $223 $469 #
ellipse-curve $-1 25.737888533131624 -34.760427703800971 13.816989472018244 0 -0.85716730853699208 0.51503806187062418 1 0 0 1 I I #
coedge $-1 $341 $341 $-1 $470 reversed $226 $-1 #
edge $-1 $471 0 $471 6.2831853071796004 $227 $472 forward 7 unknown #
vertex $-1 $230 $473 #
ellipse-curve $-1 29.908041429293917 -34.760427703800971 13.816989472018244 0 -0.85716730853699208 0.51503806187062418 1 0 0 1 I I #
coedge $-1 $345 $345 $-1 $474 reversed $233 $-1 #
edge $-1 $475 0 $475 6.2831853071796004 $234 $476 forward 7 unknown #
vertex $-1 $237 $477 #
ellipse-curve $-1 34.078194325456209 -34.760427703800971 13.816989472018244 0 -0.85716730853699208 0.51503806187062418 1 0 0 1 I I #
face $-1 $-1 $478 $49 $-1 $479 reversed single #
loop $-1 $-1 $244 $238 #
plane-surface $-1 0 0 16.725943987267566 0 0 1 1 0 0 forward_v I I I I #
coedge $-1 $480 $481 $482 $483 reversed $239 $-1 #
coedge $-1 $484 $241 $243 $359 forward $151 $-1 #
coedge $-1 $241 $484 $480 $485 forward $151 $-1 #
coedge $-1 $482 $244 $241 $356 forward $350 $-1 #
edge $-1 $362 -0.88681230749728712 $486 17.75980054322266 $355 $487 forward 7 unknown #
coedge $-1 $488 $489 $242 $358 forward $478 $-1 #
edge $-1 $490 -61.39203102432937 $361 -49.312055382128008 $357 $491 forward 7 unknown #
edge $-1 $362 57.472583660815729 $490 73.016607708657318 $243 $492 forward 7 unknown #
coedge $-1 $244 $482 $488 $493 forward $350 $-1 #
vertex $-1 $245 $494 #
vertex $-1 $245 $495 #
straight-curve $-1 7.5496818103653993 38.92337512977587 16.72594398726757 0 -1 0 I I #
coedge $-1 $364 $364 $-1 $496 reversed $248 $-1 #
edge $-1 $497 0 $497 6.2831853071796004 $249 $498 forward 7 unknown #
vertex $-1 $252 $499 #
ellipse-curve $-1 12.877285481999678 31.617218287613955 10.685956166166891 0 0.77714596973225614 0.62932038083071107 1.5 0 0 1 I I #
coedge $-1 $368 $368 $-1 $500 reversed $255 $-1 #
edge $-1 $501 0 $501 6.2831853071796004 $256 $502 forward 7 unknown #
vertex $-1 $259 $503 #
ellipse-curve $-1 20.868690989451082 31.617218287613955 10.685956166166891 0 0.77714596973225614 0.62932038083071107 1.5 0 0 1 I I #
face $-1 $-1 $275 $39 $-1 $504 reversed single #
loop $-1 $-1 $387 $260 #
plane-surface $-1 0 36.508303854328659 0 0 -1 0 0 0 -1 forward_v I I I I #
coedge $-1 $385 $505 $263 $377 reversed $261 $-1 #
coedge $-1 $391 $263 $264 $379 reversed $165 $-1 #
edge $-1 $392 -16.725943987267566 $506 16.725943987267566 $375 $507 forward 7 unknown #
coedge $-1 $265 $264 $505 $508 forward $105 $-1 #
edge $-1 $383 -56.160161137730029 $506 56.160161137730029 $376 $509 forward 7 unknown #
coedge $-1 $388 $387 $265 $381 reversed $373 $-1 #
edge $-1 $510 -56.160161137730029 $382 56.160161137730029 $380 $511 forward 7 unknown #
vertex $-1 $267 $512 #
vertex $-1 $394 $513 #
straight-curve $-1 56.160161137730029 0 -16.725943987267566 0 -1 0 I I #
coedge $-1 $514 $375 $268 $386 reversed $261 $-1 #
edge $-1 $389 -36.508303854328659 $392 36.508303854328659 $385 $515 forward 7 unknown #
coedge $-1 $380 $269 $274 $395 forward $373 $-1 #
coedge $-1 $269 $380 $514 $516 reversed $373 $-1 #
vertex $-1 $270 $517 #
straight-curve $-1 0 36.508303854328659 16.725943987267566 -1 0 0 I I #
coedge $-1 $271 $376 $273 $394 reversed $165 $-1 #
vertex $-1 $386 $518 #
straight-curve $-1 0 -36.508303854328659 16.725943987267566 1 0 0 I I #
edge $-1 $276 -16.725943987267566 $383 16.725943987267566 $273 $519 forward 7 unknown #
edge $-1 $277 -16.725943987267566 $382 16.725943987267566 $274 $520 forward 7 unknown #
point $-1 56.160161137730029 -36.508303854328659 16.725943987267566 #
point $-1 56.160161137730029 36.508303854328659 16.725943987267566 #
face $-1 $-1 $411 $40 $-1 $521 reversed single #
loop $-1 $-1 $522 $279 #
plane-surface $-1 -76.164465693232302 0 3.349942184530498 1 0 0 0 0 -1 forward_v I I I I #
coedge $-1 $523 $403 $285 $408 reversed $280 $-1 #
coedge $-1 $283 $282 $522 $524 reversed $109 $-1 #
coedge $-1 $401 $525 $282 $404 forward $280 $-1 #
edge $-1 $526 -10.002152277751136 $406 10.002152277751129 $282 $527 forward 7 unknown #
edge $-1 $290 -10.002152277751129 $528 10.002152277751136 $283 $529 forward 7 unknown #
vertex $-1 $284 $530 #
straight-curve $-1 -56.160161137730029 36.508303854328659 0 0 0 -1 I I #
edge $-1 $412 -36.508303854328659 $406 36.508303854328659 $401 $531 forward 7 unknown #
coedge $-1 $532 $286 $289 $415 reversed $411 $-1 #
coedge $-1 $286 $532 $523 $533 reversed $411 $-1 #
loop $-1 $-1 $286 $398 #
vertex $-1 $287 $534 #
straight-curve $-1 -56.160161137730029 -36.508303854328659 0 0 0 1 I I #
coedge $-1 $289 $288 $535 $536 forward $173 $-1 #
edge $-1 $537 -10.002152277751136 $291 10.002152277751129 $409 $538 forward 7 unknown #
point $-1 -56.160161137730036 36.508303854328659 7.5952090188121888 #
point $-1 -56.160161137730036 -36.508303854328659 7.5952090188121888 #
plane-surface $-1 0 0 16.725943987267566 0 0 1 1 0 0 forward_v I I I I #
coedge $-1 $429 $428 $421 $539 forward $294 $-1 #
coedge $-1 $421 $296 $298 $425 reversed $181 $-1 #
coedge $-1 $296 $420 $419 $539 reversed $181 $-1 #
coedge $-1 $304 $299 $296 $423 forward $305 $-1 #
edge $-1 $426 -33.38025454332287 $540 -29.884502242267502 $422 $541 forward 7 unknown #
coedge $-1 $298 $297 $429 $542 reversed $113 $-1 #
edge $-1 $543 0 $426 6.7873669149009235 $420 $544 forward 7 unknown #
vertex $-1 $300 $545 #
straight-curve $-1 -8.1249837153424878 -33.01255155327329 16.725943987267566 -1 0 0 I I #
coedge $-1 $419 $301 $304 $433 reversed $294 $-1 #
coedge $-1 $301 $419 $424 $542 forward $294 $-1 #
vertex $-1 $302 $546 #
straight-curve $-1 -9.2997126037478175 -36.508303854328659 34.37863802510288 0 0 1 I I #
straight-curve $-1 -9.2997126037478175 -36.508303854328659 10.908034956768915 0 -0.51503806187062418 -0.85716730853699208 I I #
edge $-1 $540 -23.200222257622134 $306 -9.2997126037478175 $428 $547 forward 7 unknown #
point $-1 -9.2997126037478175 -36.508303854328659 16.725943987267566 #
point $-1 -9.2997126037478175 -33.01255155327329 16.725943987267566 #
edge $-1 $548 1 $548 0 $309 $-1 forward 7 unknown #
vertex $-1 $310 $549 #
ellipse-curve $-1 -20.420120326847275 -33.8186606737207 13.251118770843151 0 -0.85716730853699208 0.51503806187062418 1 0 0 1 I I #
point $-1 -19.420120326847275 -34.760427703800978 13.816989472018248 #
edge $-1 $550 1 $550 0 $313 $-1 forward 7 unknown #
vertex $-1 $314 $551 #
ellipse-curve $-1 -16.249967430684983 -33.8186606737207 13.251118770843151 0 -0.85716730853699208 0.51503806187062418 1 0 0 1 I I #
point $-1 -15.249967430684983 -34.760427703800978 13.816989472018248 #
edge $-1 $552 1 $552 0 $317 $-1 forward 7 unknown #
vertex $-1 $318 $553 #
ellipse-curve $-1 -12.07981453452269 -33.8186606737207 13.251118770843151 0 -0.85716730853699208 0.51503806187062418 1 0 0 1 I I #
point $-1 -11.07981453452269 -34.760427703800978 13.816989472018248 #
plane-surface $-1 0 0 16.725943987267566 0 0 1 1 0 0 forward_v I I I I #
coedge $-1 $459 $458 $451 $554 forward $322 $-1 #
coedge $-1 $451 $324 $326 $455 reversed $210 $-1 #
coedge $-1 $324 $450 $449 $554 reversed $210 $-1 #
coedge $-1 $332 $327 $324 $453 forward $333 $-1 #
edge $-1 $456 -33.38025454332287 $555 -29.884502242267502 $452 $556 forward 7 unknown #
coedge $-1 $326 $325 $459 $557 reversed $132 $-1 #
edge $-1 $558 0 $456 6.7873669149009235 $450 $559 forward 7 unknown #
vertex $-1 $328 $560 #
straight-curve $-1 14.954020714646958 -33.01255155327329 16.725943987267566 -1 0 0 I I #
coedge $-1 $449 $329 $332 $463 reversed $322 $-1 #
coedge $-1 $329 $449 $454 $557 forward $322 $-1 #
vertex $-1 $330 $561 #
straight-curve $-1 36.858296256231071 -36.508303854328659 34.37863802510288 0 0 1 I I #
straight-curve $-1 36.858296256231071 -36.508303854328659 10.908034956768915 0 -0.51503806187062418 -0.85716730853699208 I I #
edge $-1 $555 22.957786602356759 $334 36.858296256231071 $458 $562 forward 7 unknown #
point $-1 36.858296256231071 -36.508303854328659 16.725943987267566 #
point $-1 36.858296256231071 -33.01255155327329 16.725943987267566 #
edge $-1 $563 1 $563 0 $337 $-1 forward 7 unknown #
vertex $-1 $338 $564 #
ellipse-curve $-1 25.737888533131624 -33.8186606737207 13.251118770843151 0 -0.85716730853699208 0.51503806187062418 1 0 0 1 I I #
point $-1 26.737888533131624 -34.760427703800978 13.816989472018248 #
edge $-1 $565 1 $565 0 $341 $-1 forward 7 unknown #
vertex $-1 $342 $566 #
ellipse-curve $-1 29.908041429293917 -33.8186606737207 13.251118770843151 0 -0.85716730853699208 0.51503806187062418 1 0 0 1 I I #
point $-1 30.908041429293917 -34.760427703800978 13.816989472018248 #
edge $-1 $567 1 $567 0 $345 $-1 forward 7 unknown #
vertex $-1 $346 $568 #
ellipse-curve $-1 34.078194325456209 -33.8186606737207 13.251118770843151 0 -0.85716730853699208 0.51503806187062418 1 0 0 1 I I #
point $-1 35.078194325456209 -34.760427703800978 13.816989472018248 #
loop $-1 $-1 $357 $349 #
plane-surface $-1 0 36.508303854328659 0 0 -1 0 0 0 -1 forward_v I I I I #
coedge $-1 $481 $352 $354 $485 reversed $239 $-1 #
coedge $-1 $352 $480 $569 $570 reversed $239 $-1 #
coedge $-1 $360 $355 $352 $483 forward $350 $-1 #
edge $-1 $486 -12.197242408876612 $571 -2.415071275447211 $482 $572 forward 7 unknown #
coedge $-1 $354 $353 $489 $573 reversed $151 $-1 #
edge $-1 $574 -73.016607708657318 $486 -57.472583660815729 $480 $575 forward 7 unknown #
vertex $-1 $356 $576 #
straight-curve $-1 8.4364941178626864 26.726132720899265 16.725943987267563 1 0 0 I I #
coedge $-1 $569 $357 $360 $493 reversed $478 $-1 #
coedge $-1 $357 $569 $484 $573 forward $478 $-1 #
vertex $-1 $358 $577 #
straight-curve $-1 7.5496818103653993 36.508303854328659 66.037999369395578 0 0 1 I I #
straight-curve $-1 7.5496818103653993 -9.4425355158501958 61.390530749370427 0 0.62932038083071107 -0.77714596973225614 I I #
edge $-1 $571 -26.196294661085346 $361 -7.5496818103653993 $488 $578 forward 7 unknown #
point $-1 7.5496818103653993 36.508303854328659 16.725943987267566 #
point $-1 7.5496818103653993 26.726132720899258 16.72594398726757 #
edge $-1 $579 1 $579 0 $364 $-1 forward 7 unknown #
vertex $-1 $365 $580 #
ellipse-curve $-1 12.877285481999678 28.462942959645073 8.1316744379528405 0 0.77714596973225614 0.62932038083071107 1.5 0 0 1 I I #
point $-1 14.377285481999678 31.617218287613959 10.685956166166896 #
edge $-1 $581 1 $581 0 $368 $-1 forward 7 unknown #
vertex $-1 $369 $582 #
ellipse-curve $-1 20.868690989451082 28.462942959645073 8.1316744379528405 0 0.77714596973225614 0.62932038083071107 1.5 0 0 1 I I #
point $-1 22.368690989451082 31.617218287613959 10.685956166166896 #
plane-surface $-1 56.160161137730029 0 0 -1 0 0 0 0 1 forward_v I I I I #
coedge $-1 $375 $514 $378 $508 reversed $261 $-1 #
vertex $-1 $508 $583 #
straight-curve $-1 -56.160161137730029 -36.508303854328659 0 0 0 -1 I I #
edge $-1 $506 -36.508303854328659 $510 36.508303854328659 $505 $584 forward 7 unknown #
straight-curve $-1 0 -36.508303854328659 -16.725943987267566 -1 0 0 I I #
vertex $-1 $381 $585 #
straight-curve $-1 0 36.508303854328659 -16.725943987267566 1 0 0 I I #
point $-1 56.160161137730029 36.508303854328659 -16.725943987267566 #
point $-1 56.160161137730029 -36.508303854328659 -16.725943987267566 #
coedge $-1 $505 $385 $388 $516 forward $261 $-1 #
straight-curve $-1 -56.160161137730029 0 16.725943987267566 0 -1 0 I I #
edge $-1 $389 -16.725943987267566 $510 16.725943987267566 $388 $586 forward 7 unknown #
point $-1 -56.160161137730029 36.508303854328659 16.725943987267566 #
point $-1 -56.160161137730029 -36.508303854328659 16.725943987267566 #
straight-curve $-1 56.160161137730029 -36.508303854328659 0 0 0 -1 I I #
straight-curve $-1 56.160161137730029 36.508303854328659 0 0 0 -1 I I #
plane-surface $-1 0 -36.508303854328659 0 0 1 0 0 0 1 forward_v I I I I #
coedge $-1 $587 $535 $402 $524 forward $399 $-1 #
coedge $-1 $525 $401 $410 $533 forward $280 $-1 #
edge $-1 $528 -4.2452668342816908 $526 4.2452668342816908 $402 $588 forward 7 unknown #
coedge $-1 $403 $523 $587 $589 forward $280 $-1 #
vertex $-1 $404 $590 #
straight-curve $-1 -66.162313415481165 36.508303854328659 -0.89532464975119286 1 0 0 I I #
vertex $-1 $405 $591 #
straight-curve $-1 -66.162313415481165 36.508303854328659 7.5952090188121888 -1 0 0 I I #
point $-1 -56.160161137730036 36.508303854328659 -0.89532464975119286 #
straight-curve $-1 -56.160161137730029 0 -0.89532464975119286 0 1 0 I I #
coedge $-1 $410 $409 $592 $593 forward $411 $-1 #
edge $-1 $412 -10.002152277751129 $594 10.002152277751136 $410 $595 forward 7 unknown #
point $-1 -56.160161137730036 -36.508303854328659 -0.89532464975119286 #
coedge $-1 $522 $592 $414 $536 reversed $399 $-1 #
edge $-1 $528 -36.508303854328659 $537 36.508303854328659 $535 $596 forward 7 unknown #
vertex $-1 $536 $597 #
straight-curve $-1 -66.162313415481165 -36.508303854328659 7.5952090188121888 1 0 0 I I #
edge $-1 $540 17.652694037835314 $543 23.470603068333965 $419 $598 forward 7 unknown #
vertex $-1 $433 $599 #
straight-curve $-1 -23.200222257622134 -66.392806096596161 16.725943987267566 0 -1 0 I I #
edge $-1 $543 -15.075238542279646 $430 -1.1747288884053297 $429 $600 forward 7 unknown #
vertex $-1 $542 $601 #
straight-curve $-1 -23.200222257622134 -36.508303854328659 10.908034956768915 0 0.51503806187062418 0.85716730853699208 I I #
point $-1 -23.200222257622134 -33.01255155327329 16.725943987267566 #
point $-1 -9.2997126037478175 -36.508303854328659 10.908034956768915 #
straight-curve $-1 0 -36.508303854328659 16.725943987267566 1 0 0 I I #
vertex $-1 $436 $602 #
point $-1 -19.420120326847275 -33.8186606737207 13.251118770843151 #
vertex $-1 $440 $603 #
point $-1 -15.249967430684983 -33.8186606737207 13.251118770843151 #
vertex $-1 $444 $604 #
point $-1 -11.07981453452269 -33.8186606737207 13.251118770843151 #
edge $-1 $555 17.652694037835314 $558 23.470603068333965 $449 $605 forward 7 unknown #
vertex $-1 $463 $606 #
straight-curve $-1 22.957786602356759 -66.392806096596161 16.725943987267566 0 -1 0 I I #
edge $-1 $558 8.0037658877098004 $460 21.904275541584113 $459 $607 forward 7 unknown #
vertex $-1 $557 $608 #
straight-curve $-1 22.957786602356759 -36.508303854328659 10.908034956768915 0 0.51503806187062418 0.85716730853699208 I I #
point $-1 22.957786602356759 -33.01255155327329 16.725943987267566 #
point $-1 36.858296256231071 -36.508303854328659 10.908034956768915 #
straight-curve $-1 0 -36.508303854328659 16.725943987267566 1 0 0 I I #
vertex $-1 $466 $609 #
point $-1 26.737888533131624 -33.8186606737207 13.251118770843151 #
vertex $-1 $470 $610 #
point $-1 30.908041429293917 -33.8186606737207 13.251118770843151 #
vertex $-1 $474 $611 #
point $-1 35.078194325456209 -33.8186606737207 13.251118770843151 #
coedge $-1 $489 $488 $481 $570 forward $478 $-1 #
edge $-1 $571 49.312055382128008 $574 61.39203102432937 $569 $612 forward 7 unknown #
vertex $-1 $493 $613 #
straight-curve $-1 26.196294661085346 38.92337512977587 16.72594398726757 0 1 0 I I #
edge $-1 $574 -17.75980054322266 $490 0.88681230749728712 $489 $614 forward 7 unknown #
vertex $-1 $573 $615 #
straight-curve $-1 26.196294661085346 -9.4425355158501958 61.390530749370427 0 -0.62932038083071107 0.77714596973225614 I I #
point $-1 26.196294661085346 26.726132720899258 16.72594398726757 #
point $-1 7.5496818103653993 36.508303854328659 4.6459683450662084 #
straight-curve $-1 0 36.508303854328659 16.725943987267566 -1 0 0 I I #
vertex $-1 $496 $616 #
point $-1 14.377285481999678 28.462942959645073 8.1316744379528405 #
vertex $-1 $500 $617 #
point $-1 22.368690989451082 28.462942959645073 8.1316744379528405 #
point $-1 -56.160161137730029 -36.508303854328659 -16.725943987267566 #
straight-curve $-1 -56.160161137730029 0 -16.725943987267566 0 1 0 I I #
point $-1 -56.160161137730029 36.508303854328659 -16.725943987267566 #
straight-curve $-1 -56.160161137730029 36.508303854328659 0 0 0 -1 I I #
coedge $-1 $592 $522 $525 $589 reversed $399 $-1 #
straight-curve $-1 -76.164465693232302 36.508303854328659 3.349942184530498 0 0 -1 I I #
edge $-1 $594 -36.508303854328659 $526 36.508303854328659 $587 $618 forward 7 unknown #
point $-1 -76.164465693232302 36.508303854328659 -0.89532464975119286 #
point $-1 -76.164465693232302 36.508303854328659 7.5952090188121888 #
coedge $-1 $535 $587 $532 $593 reversed $399 $-1 #
edge $-1 $537 -4.2452668342816908 $594 4.2452668342816908 $592 $619 forward 7 unknown #
vertex $-1 $589 $620 #
straight-curve $-1 -66.162313415481165 -36.508303854328659 -0.89532464975119286 -1 0 0 I I #
straight-curve $-1 -76.164465693232302 0 7.5952090188121888 0 -1 0 I I #
point $-1 -76.164465693232302 -36.508303854328659 7.5952090188121888 #
straight-curve $-1 -23.200222257622134 -36.508303854328659 34.37863802510288 0 0 -1 I I #
point $-1 -23.200222257622134 -36.508303854328659 16.725943987267566 #
straight-curve $-1 -8.1249837153424878 -36.508303854328659 10.908034956768915 1 0 0 I I #
point $-1 -23.200222257622134 -36.508303854328659 10.908034956768915 #
point $-1 -20.420120326847275 -32.961493365183713 12.736080708972528 #
point $-1 -16.249967430684983 -32.961493365183713 12.736080708972528 #
point $-1 -12.07981453452269 -32.961493365183713 12.736080708972528 #
straight-curve $-1 22.957786602356759 -36.508303854328659 34.37863802510288 0 0 -1 I I #
point $-1 22.957786602356759 -36.508303854328659 16.725943987267566 #
straight-curve $-1 14.954020714646958 -36.508303854328659 10.908034956768915 1 0 0 I I #
point $-1 22.957786602356759 -36.508303854328659 10.908034956768915 #
point $-1 25.737888533131624 -32.961493365183713 12.736080708972528 #
point $-1 29.908041429293917 -32.961493365183713 12.736080708972528 #
point $-1 34.078194325456209 -32.961493365183713 12.736080708972528 #
straight-curve $-1 26.196294661085346 36.508303854328659 66.037999369395578 0 0 -1 I I #
point $-1 26.196294661085346 36.508303854328659 16.725943987267566 #
straight-curve $-1 8.4364941178626864 36.508303854328659 4.6459683450662119 -1 0 0 I I #
point $-1 26.196294661085346 36.508303854328659 4.6459683450662084 #
point $-1 12.877285481999678 27.29722400504669 7.1876938667067725 #
point $-1 20.868690989451082 27.29722400504669 7.1876938667067725 #
straight-curve $-1 -76.164465693232302 0 -0.89532464975119286 0 1 0 I I #
straight-curve $-1 -76.164465693232302 -36.508303854328659 3.349942184530498 0 0 -1 I I #
point $-1 -76.164465693232302 -36.508303854328659 -0.89532464975119286 #
End-of-ACIS-data 