500 0 8 0           
7 Unknown 11 ACIS 5.0 NT 24 Thu Mar 25 21:10:54 1999 
-1 9.9999999999999995e-007 1e-010 
body $-1 $8 $-1 $9 #
body $-1 $10 $-1 $11 #
body $-1 $12 $-1 $13 #
body $-1 $14 $-1 $15 #
body $-1 $16 $-1 $17 #
body $-1 $18 $-1 $19 #
body $-1 $20 $-1 $21 #
body $-1 $22 $-1 $23 #
lump $-1 $-1 $24 $0 #
transform $-1 1 0 0 0 1 0 0 0 1 66.209295937986383 45.774270680573807 15.477646168566471 1 rotate no_reflect no_shear #
lump $-1 $-1 $25 $1 #
transform $-1 1 0 0 0 1 0 0 0 1 66.209295937986383 45.774270680573807 15.477646168566471 1 rotate no_reflect no_shear #
lump $-1 $-1 $26 $2 #
transform $-1 1 0 0 0 1 0 0 0 1 66.209295937986383 45.774270680573807 15.477646168566471 1 rotate no_reflect no_shear #
lump $-1 $-1 $27 $3 #
transform $-1 1 0 0 0 1 0 0 0 1 66.209295937986383 45.774270680573807 15.477646168566471 1 rotate no_reflect no_shear #
lump $-1 $-1 $28 $4 #
transform $-1 1 0 0 0 1 0 0 0 1 66.209295937986383 45.774270680573807 15.477646168566471 1 rotate no_reflect no_shear #
lump $-1 $-1 $29 $5 #
transform $-1 1 0 0 0 1 0 0 0 1 66.209295937986383 45.774270680573807 15.477646168566471 1 rotate no_reflect no_shear #
lump $-1 $-1 $30 $6 #
transform $-1 1 0 0 0 1 0 0 0 1 66.209295937986383 45.774270680573807 15.477646168566471 1 rotate no_reflect no_shear #
lump $-1 $-1 $31 $7 #
transform $-1 1 0 0 0 1 0 0 0 1 66.209295937986383 45.774270680573807 15.477646168566471 1 rotate no_reflect no_shear #
shell $-1 $-1 $-1 $32 $-1 $8 #
shell $-1 $-1 $-1 $33 $-1 $10 #
shell $-1 $-1 $-1 $34 $-1 $12 #
shell $-1 $-1 $-1 $35 $-1 $14 #
shell $-1 $-1 $-1 $36 $-1 $16 #
shell $-1 $-1 $-1 $37 $-1 $18 #
shell $-1 $-1 $-1 $38 $-1 $20 #
shell $-1 $-1 $-1 $39 $-1 $22 #
face $-1 $40 $41 $24 $-1 $42 forward single #
face $-1 $43 $44 $25 $-1 $45 forward single #
face $-1 $46 $47 $26 $-1 $48 reversed single #
face $-1 $49 $50 $27 $-1 $51 forward single #
face $-1 $52 $53 $28 $-1 $54 forward single #
face $-1 $55 $56 $29 $-1 $57 reversed single #
face $-1 $58 $59 $30 $-1 $60 forward single #
face $-1 $61 $62 $31 $-1 $63 forward single #
face $-1 $64 $65 $24 $-1 $66 reversed single #
loop $-1 $-1 $67 $32 #
plane-surface $-1 0 0 15.477646168566471 0 0 1 1 0 0 forward_v I I I I #
face $-1 $68 $69 $25 $-1 $70 reversed single #
loop $-1 $-1 $71 $33 #
plane-surface $-1 -60.467253116526088 0 5.3552214022481053 0 0 1 1 0 0 forward_v I I I I #
face $-1 $72 $73 $26 $-1 $74 reversed single #
loop $-1 $-1 $75 $34 #
plane-surface $-1 -33.520083482330321 49.543641837049933 166.74543768140501 1 0 0 0 -0.5877852598018023 -0.80901698891910034 forward_v I I I I #
face $-1 $76 $77 $27 $-1 $78 forward single #
loop $-1 $79 $80 $35 #
cone-surface $-1 -30.061648383493598 37.612047281526493 8.5687512177728529 0 -0.5877852598018023 -0.80901698891910034 1.5 0 0 1 I I 0 1 1.5 forward I I I I #
face $-1 $81 $82 $28 $-1 $83 forward single #
loop $-1 $84 $85 $36 #
cone-surface $-1 -24.873995735238495 37.612047281526493 8.5687512177728529 0 -0.5877852598018023 -0.80901698891910034 1.5 0 0 1 I I 0 1 1.5 forward I I I I #
face $-1 $86 $87 $29 $-1 $88 reversed single #
loop $-1 $-1 $89 $37 #
plane-surface $-1 -21.415560636401761 -123.60796710898128 112.93455451296684 -1 0 0 0 -0.5877852598018023 0.80901698891910034 forward_v I I I I #
face $-1 $90 $91 $30 $-1 $92 forward single #
loop $-1 $93 $94 $38 #
cone-surface $-1 -30.061648383493598 -37.612047281526493 8.5687512177728493 0 0.5877852598018023 -0.80901698891910034 1.5 0 0 1 I I 0 1 1.5 forward I I I I #
face $-1 $95 $96 $31 $-1 $97 forward single #
loop $-1 $98 $99 $39 #
cone-surface $-1 -24.873995735238495 -37.612047281526493 8.5687512177728493 0 0.5877852598018023 -0.80901698891910034 1.5 0 0 1 I I 0 1 1.5 forward I I I I #
face $-1 $100 $101 $24 $-1 $102 reversed single #
loop $-1 $-1 $103 $40 #
plane-surface $-1 0 0 -15.477646168566471 0 0 1 1 0 0 forward_v I I I I #
coedge $-1 $104 $105 $106 $107 forward $41 $-1 #
face $-1 $108 $109 $25 $-1 $110 reversed single #
loop $-1 $-1 $111 $43 #
plane-surface $-1 -60.467253116526088 0 -3.9243754494611061 0 0 1 1 0 0 forward_v I I I I #
coedge $-1 $112 $113 $114 $115 forward $44 $-1 #
face $-1 $116 $117 $26 $-1 $118 reversed single #
loop $-1 $-1 $119 $46 #
plane-surface $-1 -27.467822059366043 -28.290054591357546 59.616547204998284 0 0.5877852598018023 0.80901698891910034 1 0 0 forward_v I I I I #
coedge $-1 $120 $121 $122 $123 reversed $47 $-1 #
face $-1 $-1 $124 $27 $-1 $125 forward single #
loop $-1 $126 $127 $49 #
cone-surface $-1 -30.061648383493598 35.665155478510073 5.8890845912930931 0 -0.5877852598018023 -0.80901698891910034 0.75 0 0 1 I I -0.70710678118654757 0.70710678118654757 0.75 forward I I I I #
loop $-1 $-1 $128 $35 #
coedge $-1 $80 $80 $129 $130 reversed $50 $-1 #
face $-1 $-1 $131 $28 $-1 $132 forward single #
loop $-1 $133 $134 $52 #
cone-surface $-1 -24.873995735238495 35.665155478510073 5.8890845912930931 0 -0.5877852598018023 -0.80901698891910034 0.75 0 0 1 I I -0.70710678118654757 0.70710678118654757 0.75 forward I I I I #
loop $-1 $-1 $135 $36 #
coedge $-1 $85 $85 $136 $137 reversed $53 $-1 #
face $-1 $138 $139 $29 $-1 $140 reversed single #
loop $-1 $-1 $141 $55 #
plane-surface $-1 -27.467822059366043 -45.774270680573807 5.8056640365601169 0 -0.5877852598018023 0.80901698891910034 1 0 0 forward_v I I I I #
coedge $-1 $142 $143 $144 $145 reversed $56 $-1 #
face $-1 $-1 $146 $30 $-1 $147 forward single #
loop $-1 $148 $149 $58 #
cone-surface $-1 -30.061648383493598 -35.665155478510073 5.8890845912930896 0 0.5877852598018023 -0.80901698891910034 0.75 0 0 1 I I -0.70710678118654757 0.70710678118654757 0.75 forward I I I I #
loop $-1 $-1 $150 $38 #
coedge $-1 $94 $94 $151 $152 reversed $59 $-1 #
face $-1 $-1 $153 $31 $-1 $154 forward single #
loop $-1 $155 $156 $61 #
cone-surface $-1 -24.873995735238495 -35.665155478510073 5.8890845912930896 0 0.5877852598018023 -0.80901698891910034 0.75 0 0 1 I I -0.70710678118654757 0.70710678118654757 0.75 forward I I I I #
loop $-1 $-1 $157 $39 #
coedge $-1 $99 $99 $158 $159 reversed $62 $-1 #
face $-1 $160 $161 $24 $-1 $162 reversed single #
loop $-1 $-1 $163 $64 #
plane-surface $-1 0 -45.774270680573807 0 0 1 0 0 0 1 forward_v I I I I #
coedge $-1 $164 $165 $166 $167 forward $65 $-1 #
coedge $-1 $168 $67 $169 $170 forward $41 $-1 #
coedge $-1 $67 $168 $171 $172 forward $41 $-1 #
coedge $-1 $173 $174 $67 $107 reversed $175 $-1 #
edge $-1 $176 -45.774270680573807 $177 45.774270680573807 $106 $178 forward 7 unknown #
face $-1 $179 $180 $25 $-1 $181 reversed single #
loop $-1 $-1 $182 $68 #
plane-surface $-1 -54.725210295065793 0 0.71542297639349961 -1 0 0 0 0 1 forward_v I I I I #
coedge $-1 $183 $184 $185 $186 forward $69 $-1 #
coedge $-1 $187 $71 $188 $189 reversed $44 $-1 #
coedge $-1 $71 $187 $190 $191 reversed $44 $-1 #
coedge $-1 $182 $192 $71 $115 reversed $109 $-1 #
edge $-1 $193 -45.774270680573807 $194 45.774270680573807 $114 $195 forward 7 unknown #
face $-1 $196 $197 $26 $-1 $198 forward single #
loop $-1 $-1 $199 $72 #
plane-surface $-1 -21.415560636401761 49.543641837049933 166.74543768140501 -1 0 0 0 0.5877852598018023 0.80901698891910034 forward_v I I I I #
coedge $-1 $200 $201 $202 $203 reversed $73 $-1 #
coedge $-1 $121 $75 $204 $205 reversed $47 $-1 #
coedge $-1 $75 $120 $200 $206 reversed $47 $-1 #
coedge $-1 $202 $207 $75 $123 forward $197 $-1 #
edge $-1 $208 -21.00244976204884 $209 -7.6901086802843608 $122 $210 forward 7 unknown #
loop $-1 $-1 $129 $76 #
plane-surface $-1 -27.467822059366043 -28.290054591357546 59.616547204998284 0 0.5877852598018023 0.80901698891910034 1 0 0 forward_v I I I I #
loop $-1 $-1 $211 $49 #
coedge $-1 $127 $127 $128 $212 reversed $77 $-1 #
coedge $-1 $128 $128 $127 $212 forward $79 $-1 #
coedge $-1 $129 $129 $80 $130 forward $124 $-1 #
edge $-1 $213 -1.3921551551301128e-015 $213 6.2831853071795987 $129 $214 forward 7 unknown #
loop $-1 $-1 $136 $81 #
plane-surface $-1 -27.467822059366043 -28.290054591357546 59.616547204998284 0 0.5877852598018023 0.80901698891910034 1 0 0 forward_v I I I I #
loop $-1 $-1 $215 $52 #
coedge $-1 $134 $134 $135 $216 reversed $82 $-1 #
coedge $-1 $135 $135 $134 $216 forward $84 $-1 #
coedge $-1 $136 $136 $85 $137 forward $131 $-1 #
edge $-1 $217 -1.3921551551301128e-015 $217 6.2831853071795987 $136 $218 forward 7 unknown #
face $-1 $219 $220 $29 $-1 $221 reversed single #
loop $-1 $-1 $222 $86 #
plane-surface $-1 -33.520083482330321 -123.60796710898128 112.93455451296684 1 0 0 0 0.5877852598018023 -0.80901698891910034 forward_v I I I I #
coedge $-1 $223 $224 $225 $226 reversed $87 $-1 #
coedge $-1 $143 $89 $227 $228 reversed $56 $-1 #
coedge $-1 $89 $142 $223 $229 reversed $56 $-1 #
coedge $-1 $225 $230 $89 $145 forward $231 $-1 #
edge $-1 $232 16.029712873916836 $233 29.34205395568128 $144 $234 forward 7 unknown #
loop $-1 $-1 $151 $90 #
plane-surface $-1 -27.467822059366043 -45.774270680573807 5.8056640365601169 0 -0.5877852598018023 0.80901698891910034 1 0 0 forward_v I I I I #
loop $-1 $-1 $235 $58 #
coedge $-1 $149 $149 $150 $236 reversed $91 $-1 #
coedge $-1 $150 $150 $149 $236 forward $93 $-1 #
coedge $-1 $151 $151 $94 $152 forward $146 $-1 #
edge $-1 $237 2.0959279739192315e-015 $237 6.2831853071796022 $151 $238 forward 7 unknown #
loop $-1 $-1 $158 $95 #
plane-surface $-1 -27.467822059366043 -45.774270680573807 5.8056640365601169 0 -0.5877852598018023 0.80901698891910034 1 0 0 forward_v I I I I #
loop $-1 $-1 $239 $61 #
coedge $-1 $156 $156 $157 $240 reversed $96 $-1 #
coedge $-1 $157 $157 $156 $240 forward $98 $-1 #
coedge $-1 $158 $158 $99 $159 forward $153 $-1 #
edge $-1 $241 2.0959279739192315e-015 $241 6.2831853071796022 $158 $242 forward 7 unknown #
face $-1 $243 $244 $24 $-1 $245 reversed single #
loop $-1 $-1 $246 $100 #
plane-surface $-1 -66.209295937986383 0 0 1 0 0 0 0 -1 forward_v I I I I #
coedge $-1 $247 $171 $248 $249 forward $101 $-1 #
coedge $-1 $250 $103 $247 $251 forward $65 $-1 #
coedge $-1 $103 $250 $252 $253 forward $65 $-1 #
coedge $-1 $174 $173 $103 $167 reversed $175 $-1 #
edge $-1 $254 -45.774270680573807 $255 45.774270680573807 $166 $256 forward 7 unknown #
coedge $-1 $105 $104 $257 $258 forward $41 $-1 #
coedge $-1 $259 $260 $104 $170 reversed $244 $-1 #
edge $-1 $177 -66.209295937986383 $261 66.209295937986383 $169 $262 forward 7 unknown #
coedge $-1 $163 $263 $105 $172 reversed $101 $-1 #
edge $-1 $264 -66.209295937986383 $176 66.209295937986383 $171 $265 forward 7 unknown #
coedge $-1 $166 $106 $263 $266 forward $175 $-1 #
coedge $-1 $106 $166 $259 $267 reversed $175 $-1 #
loop $-1 $-1 $173 $243 #
vertex $-1 $107 $268 #
vertex $-1 $107 $269 #
straight-curve $-1 66.209295937986383 0 15.477646168566471 0 1 0 I I #
face $-1 $270 $271 $25 $-1 $272 reversed single #
loop $-1 $-1 $273 $108 #
plane-surface $-1 0 -45.774270680573807 0 0 1 0 0 0 1 forward_v I I I I #
coedge $-1 $185 $114 $274 $275 reversed $109 $-1 #
coedge $-1 $276 $111 $273 $277 reversed $69 $-1 #
coedge $-1 $111 $276 $278 $279 reversed $69 $-1 #
coedge $-1 $192 $182 $111 $186 reversed $109 $-1 #
edge $-1 $280 -45.774270680573807 $281 45.774270680573807 $185 $282 forward 7 unknown #
coedge $-1 $113 $112 $283 $284 reversed $44 $-1 #
coedge $-1 $285 $286 $112 $189 forward $287 $-1 #
edge $-1 $288 -35.975669379723342 $194 -24.491583736802749 $188 $289 forward 7 unknown #
coedge $-1 $290 $274 $113 $191 forward $180 $-1 #
edge $-1 $193 24.491583736802749 $291 35.975669379723342 $190 $292 forward 7 unknown #
coedge $-1 $114 $185 $285 $293 reversed $109 $-1 #
vertex $-1 $191 $294 #
vertex $-1 $189 $295 #
straight-curve $-1 -54.725210295065793 0 5.3552214022481053 0 1 0 I I #
face $-1 $-1 $296 $26 $-1 $297 reversed single #
loop $-1 $-1 $122 $116 #
plane-surface $-1 0 0 15.477646168566471 0 0 1 1 0 0 forward_v I I I I #
coedge $-1 $298 $299 $300 $301 reversed $117 $-1 #
coedge $-1 $302 $119 $121 $206 forward $73 $-1 #
coedge $-1 $119 $302 $298 $303 forward $73 $-1 #
coedge $-1 $300 $122 $119 $203 forward $197 $-1 #
edge $-1 $209 -19.7861724526473 $304 -7.6816496067187394 $202 $305 forward 7 unknown #
coedge $-1 $306 $307 $120 $205 forward $296 $-1 #
edge $-1 $308 -77.567054804142401 $208 -67.895072672136038 $204 $309 forward 7 unknown #
edge $-1 $209 75.09358273345471 $308 91.548541361147599 $121 $310 forward 7 unknown #
coedge $-1 $122 $300 $306 $311 forward $197 $-1 #
vertex $-1 $205 $312 #
vertex $-1 $123 $313 #
straight-curve $-1 -33.520083482330321 24.771820918524966 15.477646168566466 0 -1 0 I I #
coedge $-1 $211 $211 $-1 $314 reversed $126 $-1 #
edge $-1 $315 0 $315 6.2831853071796004 $127 $316 forward 7 unknown #
vertex $-1 $130 $317 #
ellipse-curve $-1 -30.061648383493598 39.118100139691563 10.641655102563284 0 0.5877852598018023 0.80901698891910034 1.5 0 0 1 I I #
coedge $-1 $215 $215 $-1 $318 reversed $133 $-1 #
edge $-1 $319 0 $319 6.2831853071796004 $134 $320 forward 7 unknown #
vertex $-1 $137 $321 #
ellipse-curve $-1 -24.873995735238495 39.118100139691563 10.641655102563284 0 0.5877852598018023 0.80901698891910034 1.5 0 0 1 I I #
face $-1 $-1 $231 $29 $-1 $322 forward single #
loop $-1 $-1 $323 $138 #
plane-surface $-1 0 -45.774270680573807 0 0 1 0 0 0 1 forward_v I I I I #
coedge $-1 $324 $325 $326 $327 reversed $139 $-1 #
coedge $-1 $328 $141 $143 $229 forward $87 $-1 #
coedge $-1 $141 $328 $324 $329 forward $87 $-1 #
coedge $-1 $326 $144 $141 $226 forward $231 $-1 #
edge $-1 $233 7.6816496067187394 $330 19.7861724526473 $225 $331 forward 7 unknown #
coedge $-1 $332 $333 $142 $228 forward $220 $-1 #
edge $-1 $334 -50.661613219923304 $232 -40.989631087916948 $227 $335 forward 7 unknown #
edge $-1 $233 -16.454958627692854 $334 0 $143 $336 forward 7 unknown #
coedge $-1 $144 $326 $332 $337 forward $231 $-1 #
loop $-1 $-1 $326 $219 #
vertex $-1 $228 $338 #
vertex $-1 $145 $339 #
straight-curve $-1 -21.415560636401761 -61.803983554490642 15.477646168566473 0 1 0 I I #
coedge $-1 $235 $235 $-1 $340 reversed $148 $-1 #
edge $-1 $341 0 $341 6.2831853071796004 $149 $342 forward 7 unknown #
vertex $-1 $152 $343 #
ellipse-curve $-1 -30.061648383493598 -39.118100139691578 10.641655102563298 0 -0.5877852598018023 0.80901698891910034 1.5 0 0 1 I I #
coedge $-1 $239 $239 $-1 $344 reversed $155 $-1 #
edge $-1 $345 0 $345 6.2831853071796004 $156 $346 forward 7 unknown #
vertex $-1 $159 $347 #
ellipse-curve $-1 -24.873995735238495 -39.118100139691578 10.641655102563298 0 -0.5877852598018023 0.80901698891910034 1.5 0 0 1 I I #
face $-1 $-1 $175 $24 $-1 $348 reversed single #
loop $-1 $-1 $259 $160 #
plane-surface $-1 0 45.774270680573807 0 0 -1 0 0 0 -1 forward_v I I I I #
coedge $-1 $349 $257 $260 $350 forward $161 $-1 #
coedge $-1 $263 $163 $164 $251 reversed $101 $-1 #
coedge $-1 $257 $349 $163 $249 reversed $161 $-1 #
edge $-1 $264 -15.477646168566471 $351 15.477646168566471 $248 $352 forward 7 unknown #
coedge $-1 $165 $164 $349 $353 forward $65 $-1 #
edge $-1 $255 -66.209295937986383 $351 66.209295937986383 $247 $354 forward 7 unknown #
coedge $-1 $260 $259 $165 $253 reversed $244 $-1 #
edge $-1 $355 -66.209295937986383 $254 66.209295937986383 $252 $356 forward 7 unknown #
vertex $-1 $167 $357 #
vertex $-1 $266 $358 #
straight-curve $-1 66.209295937986383 0 -15.477646168566471 0 -1 0 I I #
coedge $-1 $246 $248 $168 $258 reversed $161 $-1 #
edge $-1 $261 -45.774270680573807 $264 45.774270680573807 $257 $359 forward 7 unknown #
coedge $-1 $252 $169 $174 $267 forward $244 $-1 #
coedge $-1 $169 $252 $246 $350 reversed $244 $-1 #
vertex $-1 $170 $360 #
straight-curve $-1 0 45.774270680573807 15.477646168566471 -1 0 0 I I #
coedge $-1 $171 $247 $173 $266 reversed $101 $-1 #
vertex $-1 $258 $361 #
straight-curve $-1 0 -45.774270680573807 15.477646168566471 1 0 0 I I #
edge $-1 $176 -15.477646168566471 $255 15.477646168566471 $173 $362 forward 7 unknown #
edge $-1 $177 -15.477646168566471 $254 15.477646168566471 $174 $363 forward 7 unknown #
point $-1 66.209295937986383 -45.774270680573807 15.477646168566471 #
point $-1 66.209295937986383 45.774270680573807 15.477646168566471 #
face $-1 $-1 $287 $25 $-1 $364 reversed single #
loop $-1 $-1 $365 $179 #
plane-surface $-1 -66.209295937986383 0 0 1 0 0 0 0 -1 forward_v I I I I #
coedge $-1 $274 $290 $183 $277 forward $180 $-1 #
coedge $-1 $190 $273 $182 $275 forward $180 $-1 #
edge $-1 $281 -4.2820869376578559 $193 4.9975099140513555 $274 $366 forward 7 unknown #
coedge $-1 $184 $183 $365 $367 reversed $69 $-1 #
edge $-1 $368 -35.975669379723342 $281 -24.491583736802749 $273 $369 forward 7 unknown #
coedge $-1 $286 $285 $184 $279 forward $287 $-1 #
edge $-1 $280 24.491583736802749 $370 35.975669379723342 $278 $371 forward 7 unknown #
vertex $-1 $279 $372 #
vertex $-1 $277 $373 #
straight-curve $-1 -54.725210295065793 0 -3.9243754494611061 0 -1 0 I I #
coedge $-1 $374 $375 $187 $284 forward $271 $-1 #
edge $-1 $291 -45.774270680573807 $288 45.774270680573807 $283 $376 forward 7 unknown #
coedge $-1 $278 $188 $192 $293 forward $287 $-1 #
coedge $-1 $188 $278 $374 $377 reversed $287 $-1 #
loop $-1 $-1 $278 $270 #
vertex $-1 $377 $378 #
straight-curve $-1 -30.233626558263044 45.774270680573807 5.3552214022481053 1 0 0 I I #
coedge $-1 $273 $190 $375 $379 forward $180 $-1 #
vertex $-1 $379 $380 #
straight-curve $-1 -30.233626558263044 -45.774270680573807 5.3552214022481053 -1 0 0 I I #
edge $-1 $194 -4.9975099140513555 $280 4.2820869376578559 $285 $381 forward 7 unknown #
point $-1 -54.725210295065793 -45.774270680573807 5.3552214022481053 #
point $-1 -54.725210295065793 45.774270680573807 5.3552214022481053 #
loop $-1 $-1 $204 $196 #
plane-surface $-1 0 45.774270680573807 0 0 -1 0 0 0 -1 forward_v I I I I #
coedge $-1 $299 $199 $201 $303 reversed $117 $-1 #
coedge $-1 $199 $298 $382 $383 reversed $117 $-1 #
coedge $-1 $207 $202 $199 $301 forward $197 $-1 #
edge $-1 $304 7.6901086802843608 $384 21.00244976204884 $300 $385 forward 7 unknown #
coedge $-1 $201 $200 $307 $386 reversed $73 $-1 #
edge $-1 $387 -91.548541361147599 $304 -75.09358273345471 $298 $388 forward 7 unknown #
vertex $-1 $203 $389 #
straight-curve $-1 -13.733911029683021 32.461929598809327 15.477646168566473 1 0 0 I I #
coedge $-1 $382 $204 $207 $311 reversed $296 $-1 #
coedge $-1 $204 $382 $302 $386 forward $296 $-1 #
vertex $-1 $205 $390 #
straight-curve $-1 -33.520083482330321 45.774270680573807 83.372718840702504 0 0 1 I I #
straight-curve $-1 -33.520083482330321 -28.290054591357546 59.616547204998284 0 0.80901698891910034 -0.5877852598018023 I I #
edge $-1 $384 21.415560636401761 $208 33.520083482330321 $306 $391 forward 7 unknown #
point $-1 -33.520083482330321 45.774270680573807 15.477646168566471 #
point $-1 -33.520083482330321 32.461929598809327 15.477646168566473 #
edge $-1 $392 1 $392 0 $211 $-1 forward 7 unknown #
vertex $-1 $212 $393 #
ellipse-curve $-1 -30.061648383493598 36.105994423361423 6.495847332982418 0 0.5877852598018023 0.80901698891910034 1.5 0 0 1 I I #
point $-1 -28.561648383493598 39.118100139691563 10.641655102563288 #
edge $-1 $394 1 $394 0 $215 $-1 forward 7 unknown #
vertex $-1 $216 $395 #
ellipse-curve $-1 -24.873995735238495 36.105994423361423 6.495847332982418 0 0.5877852598018023 0.80901698891910034 1.5 0 0 1 I I #
point $-1 -23.373995735238495 39.118100139691563 10.641655102563288 #
plane-surface $-1 0 0 15.477646168566471 0 0 1 1 0 0 forward_v I I I I #
coedge $-1 $333 $332 $325 $396 forward $220 $-1 #
coedge $-1 $325 $222 $224 $329 reversed $139 $-1 #
coedge $-1 $222 $324 $323 $396 reversed $139 $-1 #
coedge $-1 $230 $225 $222 $327 forward $231 $-1 #
edge $-1 $330 -29.34205395568128 $397 -16.029712873916836 $326 $398 forward 7 unknown #
coedge $-1 $224 $223 $333 $399 reversed $87 $-1 #
edge $-1 $400 0 $330 16.454958627692854 $324 $401 forward 7 unknown #
vertex $-1 $226 $402 #
straight-curve $-1 -13.733911029683021 -32.46192959880937 15.477646168566471 -1 0 0 I I #
coedge $-1 $323 $227 $230 $337 reversed $220 $-1 #
coedge $-1 $227 $323 $328 $399 forward $220 $-1 #
vertex $-1 $228 $403 #
straight-curve $-1 -21.415560636401761 -45.774270680573807 56.46727725648342 0 0 1 I I #
straight-curve $-1 -21.415560636401761 -45.774270680573807 5.8056640365601169 0 -0.80901698891910034 -0.5877852598018023 I I #
edge $-1 $397 -33.520083482330321 $232 -21.415560636401761 $332 $404 forward 7 unknown #
point $-1 -21.415560636401761 -45.774270680573807 15.477646168566471 #
point $-1 -21.415560636401761 -32.461929598809363 15.477646168566471 #
edge $-1 $405 1 $405 0 $235 $-1 forward 7 unknown #
vertex $-1 $236 $406 #
ellipse-curve $-1 -30.061648383493598 -36.105994423361423 6.4958473329824145 0 -0.5877852598018023 0.80901698891910034 1.5 0 0 1 I I #
point $-1 -28.561648383493598 -39.118100139691563 10.641655102563284 #
edge $-1 $407 1 $407 0 $239 $-1 forward 7 unknown #
vertex $-1 $240 $408 #
ellipse-curve $-1 -24.873995735238495 -36.105994423361423 6.4958473329824145 0 -0.5877852598018023 0.80901698891910034 1.5 0 0 1 I I #
point $-1 -23.373995735238495 -39.118100139691563 10.641655102563284 #
plane-surface $-1 66.209295937986383 0 0 -1 0 0 0 0 1 forward_v I I I I #
coedge $-1 $248 $246 $250 $353 reversed $161 $-1 #
edge $-1 $261 -15.477646168566471 $355 15.477646168566471 $260 $409 forward 7 unknown #
vertex $-1 $353 $410 #
straight-curve $-1 -66.209295937986383 -45.774270680573807 0 0 0 -1 I I #
edge $-1 $351 -45.774270680573807 $355 45.774270680573807 $349 $411 forward 7 unknown #
straight-curve $-1 0 -45.774270680573807 -15.477646168566471 -1 0 0 I I #
vertex $-1 $253 $412 #
straight-curve $-1 0 45.774270680573807 -15.477646168566471 1 0 0 I I #
point $-1 66.209295937986383 45.774270680573807 -15.477646168566471 #
point $-1 66.209295937986383 -45.774270680573807 -15.477646168566471 #
straight-curve $-1 -66.209295937986383 0 15.477646168566471 0 -1 0 I I #
point $-1 -66.209295937986383 45.774270680573807 15.477646168566471 #
point $-1 -66.209295937986383 -45.774270680573807 15.477646168566471 #
straight-curve $-1 66.209295937986383 -45.774270680573807 0 0 0 -1 I I #
straight-curve $-1 66.209295937986383 45.774270680573807 0 0 0 -1 I I #
plane-surface $-1 0 45.774270680573807 0 0 -1 0 0 0 -1 forward_v I I I I #
coedge $-1 $375 $374 $276 $367 forward $271 $-1 #
straight-curve $-1 -54.725210295065793 -45.774270680573807 0.35771148819674981 0 0 1 I I #
edge $-1 $370 -45.774270680573807 $368 45.774270680573807 $365 $413 forward 7 unknown #
vertex $-1 $277 $414 #
straight-curve $-1 -30.233626558263044 -45.774270680573807 -3.9243754494611061 1 0 0 I I #
vertex $-1 $279 $415 #
straight-curve $-1 -30.233626558263044 45.774270680573807 -3.9243754494611061 -1 0 0 I I #
point $-1 -54.725210295065793 45.774270680573807 -3.9243754494611061 #
point $-1 -54.725210295065793 -45.774270680573807 -3.9243754494611061 #
coedge $-1 $365 $283 $286 $377 forward $271 $-1 #
coedge $-1 $283 $365 $290 $379 reversed $271 $-1 #
straight-curve $-1 -66.209295937986383 0 5.3552214022481053 0 1 0 I I #
edge $-1 $288 -5.3552214022481053 $370 3.9243754494611061 $286 $416 forward 7 unknown #
point $-1 -66.209295937986383 45.774270680573807 5.3552214022481053 #
edge $-1 $291 -5.3552214022481053 $368 3.9243754494611061 $375 $417 forward 7 unknown #
point $-1 -66.209295937986383 -45.774270680573807 5.3552214022481053 #
straight-curve $-1 -54.725210295065793 45.774270680573807 0.35771148819674981 0 0 -1 I I #
coedge $-1 $307 $306 $299 $383 forward $296 $-1 #
edge $-1 $384 67.895072672136038 $387 77.567054804142401 $382 $418 forward 7 unknown #
vertex $-1 $311 $419 #
straight-curve $-1 -21.415560636401761 24.771820918524966 15.477646168566466 0 1 0 I I #
edge $-1 $387 7.6816496067187394 $308 19.7861724526473 $307 $420 forward 7 unknown #
vertex $-1 $386 $421 #
straight-curve $-1 -21.415560636401761 -28.290054591357546 59.616547204998284 0 -0.80901698891910034 0.5877852598018023 I I #
point $-1 -21.415560636401761 32.461929598809327 15.477646168566473 #
point $-1 -33.520083482330321 45.774270680573807 5.8056640365601027 #
straight-curve $-1 0 45.774270680573807 15.477646168566471 -1 0 0 I I #
vertex $-1 $314 $422 #
point $-1 -28.561648383493598 36.105994423361423 6.495847332982418 #
vertex $-1 $318 $423 #
point $-1 -23.373995735238495 36.105994423361423 6.495847332982418 #
edge $-1 $397 40.989631087916948 $400 50.661613219923304 $323 $424 forward 7 unknown #
vertex $-1 $337 $425 #
straight-curve $-1 -33.520083482330321 -61.803983554490642 15.477646168566473 0 -1 0 I I #
edge $-1 $400 -19.7861724526473 $334 -7.6816496067187394 $333 $426 forward 7 unknown #
vertex $-1 $399 $427 #
straight-curve $-1 -33.520083482330321 -45.774270680573807 5.8056640365601169 0 0.80901698891910034 0.5877852598018023 I I #
point $-1 -33.520083482330321 -32.461929598809363 15.477646168566471 #
point $-1 -21.415560636401761 -45.774270680573807 5.8056640365601169 #
straight-curve $-1 0 -45.774270680573807 15.477646168566471 1 0 0 I I #
vertex $-1 $340 $428 #
point $-1 -28.561648383493598 -36.105994423361423 6.4958473329824145 #
vertex $-1 $344 $429 #
point $-1 -23.373995735238495 -36.105994423361423 6.4958473329824145 #
straight-curve $-1 -66.209295937986383 45.774270680573807 0 0 0 -1 I I #
point $-1 -66.209295937986383 -45.774270680573807 -15.477646168566471 #
straight-curve $-1 -66.209295937986383 0 -15.477646168566471 0 1 0 I I #
point $-1 -66.209295937986383 45.774270680573807 -15.477646168566471 #
straight-curve $-1 -66.209295937986383 0 -3.9243754494611061 0 -1 0 I I #
point $-1 -66.209295937986383 -45.774270680573807 -3.9243754494611061 #
point $-1 -66.209295937986383 45.774270680573807 -3.9243754494611061 #
straight-curve $-1 -66.209295937986383 45.774270680573807 0 0 0 -1 I I #
straight-curve $-1 -66.209295937986383 -45.774270680573807 0 0 0 -1 I I #
straight-curve $-1 -21.415560636401761 45.774270680573807 83.372718840702504 0 0 -1 I I #
point $-1 -21.415560636401761 45.774270680573807 15.477646168566471 #
straight-curve $-1 -13.733911029683021 45.774270680573807 5.8056640365600991 -1 0 0 I I #
point $-1 -21.415560636401761 45.774270680573807 5.8056640365601027 #
point $-1 -30.061648383493598 35.224316533658723 5.2823218496037683 #
point $-1 -24.873995735238495 35.224316533658723 5.2823218496037683 #
straight-curve $-1 -33.520083482330321 -45.774270680573807 56.46727725648342 0 0 -1 I I #
point $-1 -33.520083482330321 -45.774270680573807 15.477646168566471 #
straight-curve $-1 -13.733911029683021 -45.774270680573807 5.8056640365601195 1 0 0 I I #
point $-1 -33.520083482330321 -45.774270680573807 5.8056640365601169 #
point $-1 -30.061648383493598 -35.224316533658723 5.2823218496037647 #
point $-1 -24.873995735238495 -35.224316533658723 5.2823218496037647 #
End-of-ACIS-data 