500 0 8 0           
7 Unknown 11 ACIS 5.0 NT 24 Thu Mar 25 19:06:25 1999 
-1 9.9999999999999995e-007 1e-010 
body $-1 $8 $-1 $9 #
body $-1 $10 $-1 $11 #
body $-1 $12 $-1 $13 #
body $-1 $14 $-1 $15 #
body $-1 $16 $-1 $17 #
body $-1 $18 $-1 $19 #
body $-1 $20 $-1 $21 #
body $-1 $22 $-1 $23 #
lump $-1 $-1 $24 $0 #
transform $-1 1 0 0 0 1 0 0 0 1 53.226722006897184 29.816840677199679 13.176573932860942 1 rotate no_reflect no_shear #
lump $-1 $-1 $25 $1 #
transform $-1 1 0 0 0 1 0 0 0 1 53.226722006897184 29.816840677199679 13.176573932860942 1 rotate no_reflect no_shear #
lump $-1 $-1 $26 $2 #
transform $-1 1 0 0 0 1 0 0 0 1 53.226722006897184 29.816840677199679 13.176573932860942 1 rotate no_reflect no_shear #
lump $-1 $-1 $27 $3 #
transform $-1 1 0 0 0 1 0 0 0 1 53.226722006897184 29.816840677199679 13.176573932860942 1 rotate no_reflect no_shear #
lump $-1 $-1 $28 $4 #
transform $-1 1 0 0 0 1 0 0 0 1 53.226722006897184 29.816840677199679 13.176573932860942 1 rotate no_reflect no_shear #
lump $-1 $-1 $29 $5 #
transform $-1 1 0 0 0 1 0 0 0 1 53.226722006897184 29.816840677199679 13.176573932860942 1 rotate no_reflect no_shear #
lump $-1 $-1 $30 $6 #
transform $-1 1 0 0 0 1 0 0 0 1 53.226722006897184 29.816840677199679 13.176573932860942 1 rotate no_reflect no_shear #
lump $-1 $-1 $31 $7 #
transform $-1 1 0 0 0 1 0 0 0 1 53.226722006897184 29.816840677199679 13.176573932860942 1 rotate no_reflect no_shear #
shell $-1 $-1 $-1 $32 $-1 $8 #
shell $-1 $-1 $-1 $33 $-1 $10 #
shell $-1 $-1 $-1 $34 $-1 $12 #
shell $-1 $-1 $-1 $35 $-1 $14 #
shell $-1 $-1 $-1 $36 $-1 $16 #
shell $-1 $-1 $-1 $37 $-1 $18 #
shell $-1 $-1 $-1 $38 $-1 $20 #
shell $-1 $-1 $-1 $39 $-1 $22 #
face $-1 $40 $41 $24 $-1 $42 forward single #
face $-1 $43 $44 $25 $-1 $45 reversed single #
face $-1 $46 $47 $26 $-1 $48 reversed single #
face $-1 $49 $50 $27 $-1 $51 forward single #
face $-1 $52 $53 $28 $-1 $54 forward single #
face $-1 $55 $56 $29 $-1 $57 reversed single #
face $-1 $58 $59 $30 $-1 $60 forward single #
face $-1 $61 $62 $31 $-1 $63 forward single #
face $-1 $64 $65 $24 $-1 $66 reversed single #
loop $-1 $-1 $67 $32 #
plane-surface $-1 0 0 13.176573932860942 0 0 1 1 0 0 forward_v I I I I #
face $-1 $68 $69 $25 $-1 $70 reversed single #
loop $-1 $-1 $71 $33 #
plane-surface $-1 -31.682478741337381 -21.314976743617763 0 1 0 0 0 0 -1 forward_v I I I I #
face $-1 $72 $73 $26 $-1 $74 reversed single #
loop $-1 $-1 $75 $34 #
plane-surface $-1 -143.50436337569377 21.697082498594003 66.465626631832308 0 1 0 -0.84804810408105047 0 0.52991925155115449 forward_v I I I I #
face $-1 $76 $77 $27 $-1 $78 forward single #
loop $-1 $79 $80 $35 #
cone-surface $-1 -51.448521134938687 24.017013406767056 11.113735196860441 0.84804810408105047 0 -0.52991925155115449 0.26495962577557725 0 0.42402405204052523 1 I I 0 1 0.5 forward I I I I #
face $-1 $81 $82 $28 $-1 $83 forward single #
loop $-1 $84 $85 $36 #
cone-surface $-1 -51.448521134938687 27.49690976902663 11.113735196860441 0.84804810408105047 0 -0.52991925155115449 0.26495962577557725 0 0.42402405204052523 1 I I 0 1 0.5 forward I I I I #
face $-1 $86 $87 $29 $-1 $88 reversed single #
loop $-1 $-1 $89 $37 #
plane-surface $-1 79.369093340143053 21.468195491313804 149.80802197990087 0 -1 0 -0.81915205242281985 0 -0.57357642473473569 forward_v I I I I #
face $-1 $90 $91 $30 $-1 $92 forward single #
loop $-1 $93 $94 $38 #
cone-surface $-1 48.564591192342668 17.002226136164765 6.9483342301816959 -0.81915205242281985 0 -0.57357642473473569 0.28678821236736785 0 -0.40957602621140993 1 I I 0 1 0.5 forward I I I I #
face $-1 $95 $96 $31 $-1 $97 forward single #
loop $-1 $98 $99 $39 #
cone-surface $-1 48.564591192342668 19.68180774925419 6.9483342301816959 -0.81915205242281985 0 -0.57357642473473569 0.28678821236736785 0 -0.40957602621140993 1 I I 0 1 0.5 forward I I I I #
face $-1 $100 $101 $24 $-1 $102 reversed single #
loop $-1 $-1 $103 $40 #
plane-surface $-1 0 0 -13.176573932860942 0 0 1 1 0 0 forward_v I I I I #
coedge $-1 $104 $105 $106 $107 forward $41 $-1 #
face $-1 $108 $109 $25 $-1 $110 reversed single #
loop $-1 $-1 $111 $43 #
plane-surface $-1 -29.27802644125634 -12.813112810035847 0 0 -1 0 0 0 -1 forward_v I I I I #
coedge $-1 $112 $113 $114 $115 forward $44 $-1 #
face $-1 $116 $117 $26 $-1 $118 forward single #
loop $-1 $-1 $119 $46 #
plane-surface $-1 -53.226722006897205 25.756961587896839 10.053897254999669 -0.84804810408105047 0 0.52991925155115449 0.52991925155115449 0 0.84804810408105047 forward_v I I I I #
coedge $-1 $120 $121 $122 $123 reversed $47 $-1 #
face $-1 $-1 $124 $27 $-1 $125 forward single #
loop $-1 $126 $127 $49 #
cone-surface $-1 -50.433940680452977 24.017013406767056 10.479754986902782 0.84804810408105047 0 -0.52991925155115449 0.13247981288778862 0 0.21201202602026262 1 I I -0.70710678118654746 0.70710678118654746 0.25 forward I I I I #
loop $-1 $-1 $128 $35 #
coedge $-1 $80 $80 $129 $130 reversed $50 $-1 #
face $-1 $-1 $131 $28 $-1 $132 forward single #
loop $-1 $133 $134 $52 #
cone-surface $-1 -50.433940680452977 27.49690976902663 10.479754986902782 0.84804810408105047 0 -0.52991925155115449 0.13247981288778862 0 0.21201202602026262 1 I I -0.70710678118654746 0.70710678118654746 0.25 forward I I I I #
loop $-1 $-1 $135 $36 #
coedge $-1 $85 $85 $136 $137 reversed $53 $-1 #
face $-1 $138 $139 $29 $-1 $140 reversed single #
loop $-1 $-1 $141 $55 #
plane-surface $-1 -7.8324638112343479 18.342016942709478 88.748836161769347 0.81915205242281985 0 0.57357642473473569 0.57357642473473569 0 -0.81915205242281985 forward_v I I I I #
coedge $-1 $142 $143 $144 $145 reversed $56 $-1 #
face $-1 $-1 $146 $30 $-1 $147 forward single #
loop $-1 $148 $149 $58 #
cone-surface $-1 47.769132226186024 17.002226136164765 6.3913478825532675 -0.81915205242281985 0 -0.57357642473473569 0.14339410618368392 0 -0.20478801310570496 1 I I -0.70710678118654746 0.70710678118654746 0.25 forward I I I I #
loop $-1 $-1 $150 $38 #
coedge $-1 $94 $94 $151 $152 reversed $59 $-1 #
face $-1 $-1 $153 $31 $-1 $154 forward single #
loop $-1 $155 $156 $61 #
cone-surface $-1 47.769132226186024 19.68180774925419 6.3913478825532675 -0.81915205242281985 0 -0.57357642473473569 0.14339410618368392 0 -0.20478801310570496 1 I I -0.70710678118654746 0.70710678118654746 0.25 forward I I I I #
loop $-1 $-1 $157 $39 #
coedge $-1 $99 $99 $158 $159 reversed $62 $-1 #
face $-1 $160 $161 $24 $-1 $162 reversed single #
loop $-1 $-1 $163 $64 #
plane-surface $-1 0 -29.816840677199679 0 0 1 0 0 0 1 forward_v I I I I #
coedge $-1 $164 $165 $166 $167 forward $65 $-1 #
coedge $-1 $168 $67 $169 $170 forward $41 $-1 #
coedge $-1 $67 $168 $171 $172 forward $41 $-1 #
coedge $-1 $173 $174 $67 $107 reversed $175 $-1 #
edge $-1 $176 -29.816840677199679 $177 29.816840677199679 $106 $178 forward 7 unknown #
face $-1 $179 $180 $25 $-1 $181 forward single #
loop $-1 $-1 $182 $68 #
plane-surface $-1 -26.8735741411753 -21.314976743617763 0 -1 0 0 0 0 1 forward_v I I I I #
coedge $-1 $183 $184 $185 $186 forward $69 $-1 #
coedge $-1 $187 $71 $188 $189 reversed $44 $-1 #
coedge $-1 $71 $187 $190 $191 reversed $44 $-1 #
coedge $-1 $184 $183 $71 $115 reversed $69 $-1 #
edge $-1 $192 -13.176573932860942 $193 13.176573932860942 $114 $194 forward 7 unknown #
face $-1 $195 $196 $26 $-1 $197 reversed single #
loop $-1 $-1 $122 $72 #
plane-surface $-1 0 0 13.176573932860942 0 0 1 1 0 0 forward_v I I I I #
coedge $-1 $198 $199 $200 $201 reversed $73 $-1 #
coedge $-1 $121 $75 $202 $203 reversed $47 $-1 #
coedge $-1 $75 $120 $198 $204 reversed $47 $-1 #
coedge $-1 $200 $205 $75 $123 forward $117 $-1 #
edge $-1 $206 18.525459680949702 $207 20.476724567935783 $122 $208 forward 7 unknown #
loop $-1 $-1 $129 $76 #
plane-surface $-1 -53.226722006897205 25.756961587896839 10.053897254999669 -0.84804810408105047 0 0.52991925155115449 0.52991925155115449 0 0.84804810408105047 forward_v I I I I #
loop $-1 $-1 $209 $49 #
coedge $-1 $127 $127 $128 $210 reversed $77 $-1 #
coedge $-1 $128 $128 $127 $210 forward $79 $-1 #
coedge $-1 $129 $129 $80 $130 forward $124 $-1 #
edge $-1 $211 0 $211 6.2831853071796004 $129 $212 forward 7 unknown #
loop $-1 $-1 $136 $81 #
plane-surface $-1 -53.226722006897205 25.756961587896839 10.053897254999669 -0.84804810408105047 0 0.52991925155115449 0.52991925155115449 0 0.84804810408105047 forward_v I I I I #
loop $-1 $-1 $213 $52 #
coedge $-1 $134 $134 $135 $214 reversed $82 $-1 #
coedge $-1 $135 $135 $134 $214 forward $84 $-1 #
coedge $-1 $136 $136 $85 $137 forward $131 $-1 #
edge $-1 $215 0 $215 6.2831853071796004 $136 $216 forward 7 unknown #
face $-1 $217 $218 $29 $-1 $219 reversed single #
loop $-1 $-1 $220 $86 #
plane-surface $-1 79.369093340143053 15.215838394105152 149.80802197990087 0 1 0 0.81915205242281985 0 0.57357642473473569 forward_v I I I I #
coedge $-1 $221 $222 $223 $224 reversed $87 $-1 #
coedge $-1 $143 $89 $225 $226 reversed $56 $-1 #
coedge $-1 $89 $142 $221 $227 reversed $56 $-1 #
coedge $-1 $223 $228 $89 $145 forward $229 $-1 #
edge $-1 $230 -13.542175336825657 $231 -5.3992556138184753 $144 $232 forward 7 unknown #
loop $-1 $-1 $151 $90 #
plane-surface $-1 -7.8324638112343479 18.342016942709478 88.748836161769347 0.81915205242281985 0 0.57357642473473569 0.57357642473473569 0 -0.81915205242281985 forward_v I I I I #
loop $-1 $-1 $233 $58 #
coedge $-1 $149 $149 $150 $234 reversed $91 $-1 #
coedge $-1 $150 $150 $149 $234 forward $93 $-1 #
coedge $-1 $151 $151 $94 $152 forward $146 $-1 #
edge $-1 $235 0 $235 6.2831853071796004 $151 $236 forward 7 unknown #
loop $-1 $-1 $158 $95 #
plane-surface $-1 -7.8324638112343479 18.342016942709478 88.748836161769347 0.81915205242281985 0 0.57357642473473569 0.57357642473473569 0 -0.81915205242281985 forward_v I I I I #
loop $-1 $-1 $237 $61 #
coedge $-1 $156 $156 $157 $238 reversed $96 $-1 #
coedge $-1 $157 $157 $156 $238 forward $98 $-1 #
coedge $-1 $158 $158 $99 $159 forward $153 $-1 #
edge $-1 $239 0 $239 6.2831853071796004 $158 $240 forward 7 unknown #
face $-1 $241 $242 $24 $-1 $243 reversed single #
loop $-1 $-1 $244 $100 #
plane-surface $-1 -53.226722006897184 0 0 1 0 0 0 0 -1 forward_v I I I I #
coedge $-1 $245 $171 $246 $247 forward $101 $-1 #
coedge $-1 $248 $103 $245 $249 forward $65 $-1 #
coedge $-1 $103 $248 $250 $251 forward $65 $-1 #
coedge $-1 $174 $173 $103 $167 reversed $175 $-1 #
edge $-1 $252 -29.816840677199679 $253 29.816840677199679 $166 $254 forward 7 unknown #
coedge $-1 $105 $104 $255 $256 forward $41 $-1 #
coedge $-1 $257 $258 $104 $170 reversed $242 $-1 #
edge $-1 $177 -53.226722006897184 $259 53.226722006897184 $169 $260 forward 7 unknown #
coedge $-1 $163 $261 $105 $172 reversed $101 $-1 #
edge $-1 $262 -53.226722006897184 $176 53.226722006897184 $171 $263 forward 7 unknown #
coedge $-1 $166 $106 $261 $264 forward $175 $-1 #
coedge $-1 $106 $166 $257 $265 reversed $175 $-1 #
loop $-1 $-1 $173 $241 #
vertex $-1 $107 $266 #
vertex $-1 $107 $267 #
straight-curve $-1 53.226722006897184 0 13.176573932860942 0 1 0 I I #
face $-1 $268 $269 $25 $-1 $270 reversed single #
loop $-1 $-1 $271 $108 #
plane-surface $-1 0 0 13.176573932860942 0 0 1 1 0 0 forward_v I I I I #
coedge $-1 $272 $273 $274 $275 reversed $109 $-1 #
coedge $-1 $114 $111 $276 $277 reversed $69 $-1 #
coedge $-1 $111 $114 $278 $279 reversed $69 $-1 #
coedge $-1 $273 $272 $111 $186 reversed $109 $-1 #
edge $-1 $280 -13.176573932860942 $281 13.176573932860942 $185 $282 forward 7 unknown #
coedge $-1 $113 $112 $283 $284 reversed $44 $-1 #
coedge $-1 $276 $285 $112 $189 forward $269 $-1 #
edge $-1 $286 -19.159352305390797 $193 -2.1556244382269654 $188 $287 forward 7 unknown #
coedge $-1 $288 $278 $113 $191 forward $180 $-1 #
edge $-1 $192 2.1556244382269654 $289 19.159352305390797 $190 $290 forward 7 unknown #
vertex $-1 $191 $291 #
vertex $-1 $189 $292 #
straight-curve $-1 -31.682478741337381 -12.813112810035847 0 0 0 -1 I I #
face $-1 $-1 $293 $26 $-1 $294 reversed single #
loop $-1 $-1 $295 $116 #
plane-surface $-1 0 29.816840677199679 0 0 -1 0 0 0 -1 forward_v I I I I #
coedge $-1 $296 $119 $121 $204 forward $73 $-1 #
coedge $-1 $119 $296 $295 $297 reversed $73 $-1 #
coedge $-1 $298 $122 $119 $201 forward $117 $-1 #
edge $-1 $207 8.8186017046455838 $299 16.938359883251255 $200 $300 forward 7 unknown #
coedge $-1 $301 $302 $120 $203 forward $293 $-1 #
edge $-1 $303 -23.17891606091645 $206 -20.056239383055214 $202 $304 forward 7 unknown #
edge $-1 $207 -3.6821928648080897 $303 -3.9918193188544054e-014 $121 $305 forward 7 unknown #
coedge $-1 $122 $298 $301 $306 forward $117 $-1 #
vertex $-1 $203 $307 #
vertex $-1 $123 $308 #
straight-curve $-1 -71.752181687846885 21.697082498594003 13.17657393286094 1 0 0 I I #
coedge $-1 $209 $209 $-1 $309 reversed $126 $-1 #
edge $-1 $310 0 $310 6.2831853071796004 $127 $311 forward 7 unknown #
vertex $-1 $130 $312 #
ellipse-curve $-1 -52.251089563404143 24.017013406767056 11.615235593930317 -0.84804810408105047 0 0.52991925155115449 0.26495962577557725 0 0.42402405204052523 1 I I #
coedge $-1 $213 $213 $-1 $313 reversed $133 $-1 #
edge $-1 $314 0 $314 6.2831853071796004 $134 $315 forward 7 unknown #
vertex $-1 $137 $316 #
ellipse-curve $-1 -52.251089563404143 27.49690976902663 11.615235593930317 -0.84804810408105047 0 0.52991925155115449 0.26495962577557725 0 0.42402405204052523 1 I I #
face $-1 $-1 $229 $29 $-1 $317 forward single #
loop $-1 $-1 $318 $138 #
plane-surface $-1 53.226722006897184 0 0 -1 0 0 0 0 1 forward_v I I I I #
coedge $-1 $319 $320 $321 $322 reversed $139 $-1 #
coedge $-1 $323 $141 $143 $227 forward $87 $-1 #
coedge $-1 $141 $323 $319 $324 forward $87 $-1 #
coedge $-1 $321 $144 $141 $224 forward $229 $-1 #
edge $-1 $231 -12.297187019959065 $325 -6.044829922750413 $223 $326 forward 7 unknown #
coedge $-1 $327 $328 $142 $226 forward $218 $-1 #
edge $-1 $329 -73.356731979558504 $230 -61.727437057089496 $225 $330 forward 7 unknown #
edge $-1 $231 92.256696428199206 $329 106.45344401379438 $143 $331 forward 7 unknown #
coedge $-1 $144 $321 $327 $332 forward $229 $-1 #
loop $-1 $-1 $321 $217 #
vertex $-1 $226 $333 #
vertex $-1 $145 $334 #
straight-curve $-1 39.684546670071526 21.468195491313804 13.176573932860947 -1 0 0 I I #
coedge $-1 $233 $233 $-1 $335 reversed $148 $-1 #
edge $-1 $336 0 $336 6.2831853071796004 $149 $337 forward 7 unknown #
vertex $-1 $152 $338 #
ellipse-curve $-1 49.1552621453936 17.002226136164765 7.3619264716264334 0.81915205242281985 0 0.57357642473473569 0.28678821236736785 0 -0.40957602621140993 1 I I #
coedge $-1 $237 $237 $-1 $339 reversed $155 $-1 #
edge $-1 $340 0 $340 6.2831853071796004 $156 $341 forward 7 unknown #
vertex $-1 $159 $342 #
ellipse-curve $-1 49.1552621453936 19.68180774925419 7.3619264716264334 0.81915205242281985 0 0.57357642473473569 0.28678821236736785 0 -0.40957602621140993 1 I I #
face $-1 $-1 $175 $24 $-1 $343 reversed single #
loop $-1 $-1 $257 $160 #
plane-surface $-1 0 29.816840677199679 0 0 -1 0 0 0 -1 forward_v I I I I #
coedge $-1 $344 $255 $258 $345 forward $161 $-1 #
coedge $-1 $261 $163 $164 $249 reversed $101 $-1 #
coedge $-1 $255 $344 $163 $247 reversed $161 $-1 #
edge $-1 $262 -13.176573932860942 $346 13.176573932860942 $246 $347 forward 7 unknown #
coedge $-1 $165 $164 $344 $348 forward $65 $-1 #
edge $-1 $253 -53.226722006897184 $346 53.226722006897184 $245 $349 forward 7 unknown #
coedge $-1 $258 $257 $165 $251 reversed $242 $-1 #
edge $-1 $350 -53.226722006897184 $252 53.226722006897184 $250 $351 forward 7 unknown #
vertex $-1 $167 $352 #
vertex $-1 $264 $353 #
straight-curve $-1 53.226722006897184 0 -13.176573932860942 0 -1 0 I I #
coedge $-1 $244 $246 $168 $256 reversed $161 $-1 #
edge $-1 $259 -29.816840677199679 $262 29.816840677199679 $255 $354 forward 7 unknown #
coedge $-1 $250 $169 $174 $265 forward $242 $-1 #
coedge $-1 $169 $250 $244 $345 reversed $242 $-1 #
vertex $-1 $170 $355 #
straight-curve $-1 0 29.816840677199679 13.176573932860942 -1 0 0 I I #
coedge $-1 $171 $245 $173 $264 reversed $101 $-1 #
vertex $-1 $256 $356 #
straight-curve $-1 0 -29.816840677199679 13.176573932860942 1 0 0 I I #
edge $-1 $176 -13.176573932860942 $253 13.176573932860942 $173 $357 forward 7 unknown #
edge $-1 $177 -13.176573932860942 $252 13.176573932860942 $174 $358 forward 7 unknown #
point $-1 53.226722006897184 -29.816840677199679 13.176573932860942 #
point $-1 53.226722006897184 29.816840677199679 13.176573932860942 #
face $-1 $-1 $359 $25 $-1 $360 reversed single #
loop $-1 $-1 $361 $179 #
plane-surface $-1 0 0 -13.176573932860942 0 0 1 1 0 0 forward_v I I I I #
coedge $-1 $278 $288 $273 $362 forward $180 $-1 #
coedge $-1 $185 $182 $361 $363 reversed $109 $-1 #
coedge $-1 $182 $185 $271 $362 reversed $109 $-1 #
coedge $-1 $364 $365 $182 $275 forward $359 $-1 #
edge $-1 $366 -13.176573932860942 $367 13.176573932860942 $274 $368 forward 7 unknown #
coedge $-1 $361 $188 $183 $277 forward $269 $-1 #
edge $-1 $193 -17.043465520709212 $281 -12.23456092054713 $276 $369 forward 7 unknown #
coedge $-1 $190 $271 $184 $279 forward $180 $-1 #
edge $-1 $280 12.23456092054713 $192 17.043465520709212 $278 $370 forward 7 unknown #
vertex $-1 $279 $371 #
vertex $-1 $277 $372 #
straight-curve $-1 -26.8735741411753 -12.813112810035847 0 0 0 -1 I I #
coedge $-1 $365 $364 $187 $284 forward $359 $-1 #
edge $-1 $289 -13.176573932860942 $286 13.176573932860942 $283 $373 forward 7 unknown #
coedge $-1 $188 $361 $365 $374 forward $269 $-1 #
vertex $-1 $189 $375 #
straight-curve $-1 -31.682478741337381 -10.657488371808881 -13.176573932860942 0 1 0 I I #
coedge $-1 $271 $190 $364 $376 forward $180 $-1 #
vertex $-1 $376 $377 #
straight-curve $-1 -31.682478741337381 -10.657488371808881 13.176573932860942 0 -1 0 I I #
point $-1 -31.682478741337381 -12.813112810035847 13.176573932860942 #
point $-1 -31.682478741337381 -12.813112810035847 -13.176573932860942 #
loop $-1 $-1 $202 $195 #
plane-surface $-1 -53.226722006897184 0 0 1 0 0 0 0 -1 forward_v I I I I #
coedge $-1 $378 $379 $199 $297 forward $196 $-1 #
coedge $-1 $199 $198 $302 $380 reversed $73 $-1 #
edge $-1 $299 6.1576452265360011 $381 9.8398380913440509 $295 $382 forward 7 unknown #
coedge $-1 $205 $200 $379 $383 forward $117 $-1 #
vertex $-1 $383 $384 #
straight-curve $-1 -51.275457119911096 12.87848079394842 13.176573932860942 0 1 0 I I #
coedge $-1 $385 $202 $205 $306 reversed $293 $-1 #
coedge $-1 $202 $385 $296 $380 forward $293 $-1 #
vertex $-1 $203 $386 #
straight-curve $-1 -53.226722006897184 21.697082498594003 33.232813315916154 0 0 1 I I #
straight-curve $-1 -53.226722006897205 21.697082498594003 10.053897254999669 -0.52991925155115449 0 -0.84804810408105047 I I #
edge $-1 $387 -29.816840677199679 $206 -21.697082498594003 $301 $388 forward 7 unknown #
point $-1 -53.226722006897184 21.697082498594003 13.176573932860942 #
point $-1 -51.275457119911103 21.697082498594003 13.176573932860942 #
edge $-1 $389 1 $389 0 $209 $-1 forward 7 unknown #
vertex $-1 $210 $390 #
ellipse-curve $-1 -50.645952706473238 24.017013406767056 10.612234799790571 -0.84804810408105047 0 0.52991925155115449 0.26495962577557725 0 0.42402405204052523 1 I I #
point $-1 -51.986129937628561 24.017013406767056 12.039259645970835 #
edge $-1 $391 1 $391 0 $213 $-1 forward 7 unknown #
vertex $-1 $214 $392 #
ellipse-curve $-1 -50.645952706473238 27.49690976902663 10.612234799790571 -0.84804810408105047 0 0.52991925155115449 0.26495962577557725 0 0.42402405204052523 1 I I #
point $-1 -51.986129937628561 27.49690976902663 12.039259645970835 #
plane-surface $-1 0 0 13.176573932860942 0 0 1 1 0 0 forward_v I I I I #
coedge $-1 $328 $327 $320 $393 forward $218 $-1 #
coedge $-1 $320 $220 $222 $324 reversed $139 $-1 #
coedge $-1 $220 $319 $318 $393 reversed $139 $-1 #
coedge $-1 $228 $223 $220 $322 forward $229 $-1 #
edge $-1 $325 5.3992556138184753 $394 13.542175336825657 $321 $395 forward 7 unknown #
coedge $-1 $222 $221 $328 $396 reversed $87 $-1 #
edge $-1 $397 -106.45344401379438 $325 -92.256696428199206 $319 $398 forward 7 unknown #
vertex $-1 $224 $399 #
straight-curve $-1 45.083802283890016 9.1710084713547388 13.17657393286094 0 -1 0 I I #
coedge $-1 $318 $225 $228 $332 reversed $218 $-1 #
coedge $-1 $225 $318 $323 $396 forward $218 $-1 #
vertex $-1 $226 $400 #
straight-curve $-1 53.226722006897184 21.468195491313804 74.904010989950436 0 0 1 I I #
straight-curve $-1 -7.8324638112343479 21.468195491313804 88.748836161769347 0.57357642473473569 0 -0.81915205242281985 I I #
edge $-1 $394 15.215838394105152 $230 21.468195491313804 $327 $401 forward 7 unknown #
point $-1 53.226722006897184 21.468195491313804 13.176573932860942 #
point $-1 45.083802283890002 21.468195491313804 13.176573932860947 #
edge $-1 $402 1 $402 0 $233 $-1 forward 7 unknown #
vertex $-1 $234 $403 #
ellipse-curve $-1 47.973920239291729 17.002226136164765 6.5347419887369513 0.81915205242281985 0 0.57357642473473569 0.28678821236736785 0 -0.40957602621140993 1 I I #
point $-1 49.442050357760976 17.002226136164765 6.9523504454150311 #
edge $-1 $404 1 $404 0 $237 $-1 forward 7 unknown #
vertex $-1 $238 $405 #
ellipse-curve $-1 47.973920239291729 19.68180774925419 6.5347419887369513 0.81915205242281985 0 0.57357642473473569 0.28678821236736785 0 -0.40957602621140993 1 I I #
point $-1 49.442050357760976 19.68180774925419 6.9523504454150311 #
plane-surface $-1 53.226722006897184 0 0 -1 0 0 0 0 1 forward_v I I I I #
coedge $-1 $246 $244 $248 $348 reversed $161 $-1 #
edge $-1 $259 -13.176573932860942 $350 13.176573932860942 $258 $406 forward 7 unknown #
vertex $-1 $348 $407 #
straight-curve $-1 -53.226722006897184 -29.816840677199679 0 0 0 -1 I I #
edge $-1 $346 -29.816840677199679 $350 29.816840677199679 $344 $408 forward 7 unknown #
straight-curve $-1 0 -29.816840677199679 -13.176573932860942 -1 0 0 I I #
vertex $-1 $251 $409 #
straight-curve $-1 0 29.816840677199679 -13.176573932860942 1 0 0 I I #
point $-1 53.226722006897184 29.816840677199679 -13.176573932860942 #
point $-1 53.226722006897184 -29.816840677199679 -13.176573932860942 #
straight-curve $-1 -53.226722006897184 0 13.176573932860942 0 -1 0 I I #
point $-1 -53.226722006897184 29.816840677199679 13.176573932860942 #
point $-1 -53.226722006897184 -29.816840677199679 13.176573932860942 #
straight-curve $-1 53.226722006897184 -29.816840677199679 0 0 0 -1 I I #
straight-curve $-1 53.226722006897184 29.816840677199679 0 0 0 -1 I I #
loop $-1 $-1 $274 $268 #
plane-surface $-1 0 -29.816840677199679 0 0 1 0 0 0 1 forward_v I I I I #
coedge $-1 $285 $276 $272 $363 forward $269 $-1 #
edge $-1 $367 -19.159352305390797 $280 -2.1556244382269654 $271 $410 forward 7 unknown #
edge $-1 $281 2.1556244382269654 $366 19.159352305390797 $361 $411 forward 7 unknown #
coedge $-1 $283 $274 $288 $376 reversed $359 $-1 #
coedge $-1 $274 $283 $285 $374 reversed $359 $-1 #
vertex $-1 $374 $412 #
vertex $-1 $275 $413 #
straight-curve $-1 -26.8735741411753 -29.816840677199679 0 0 0 1 I I #
straight-curve $-1 -14.63901322062817 -12.813112810035847 -13.176573932860942 1 0 0 I I #
straight-curve $-1 -14.63901322062817 -12.813112810035847 13.176573932860942 -1 0 0 I I #
point $-1 -26.8735741411753 -12.813112810035847 13.176573932860942 #
point $-1 -26.8735741411753 -12.813112810035847 -13.176573932860942 #
straight-curve $-1 -31.682478741337381 -29.816840677199679 0 0 0 -1 I I #
edge $-1 $366 26.8735741411753 $286 31.682478741337381 $365 $414 forward 7 unknown #
point $-1 -31.682478741337381 -29.816840677199679 -13.176573932860942 #
edge $-1 $289 -31.682478741337381 $367 -26.8735741411753 $364 $415 forward 7 unknown #
point $-1 -31.682478741337381 -29.816840677199679 13.176573932860942 #
coedge $-1 $379 $295 $385 $416 reversed $196 $-1 #
coedge $-1 $295 $378 $298 $383 reversed $196 $-1 #
edge $-1 $381 -16.938359883251255 $303 -8.8186017046455838 $302 $417 forward 7 unknown #
vertex $-1 $297 $418 #
straight-curve $-1 -48.012402370147598 29.816840677199679 18.398553292828524 -0.52991925155115449 0 -0.84804810408105047 I I #
edge $-1 $299 51.275457119911103 $387 53.226722006897184 $379 $419 forward 7 unknown #
point $-1 -51.275457119911103 29.816840677199675 13.176573932860942 #
coedge $-1 $302 $301 $378 $416 forward $293 $-1 #
point $-1 -53.226722006897184 21.697082498594003 10.053897254999702 #
vertex $-1 $383 $420 #
straight-curve $-1 -53.226722006897184 0 13.176573932860942 0 -1 0 I I #
vertex $-1 $309 $421 #
point $-1 -50.380993080697664 24.017013406767056 11.036258851831095 #
vertex $-1 $313 $422 #
point $-1 -50.380993080697664 27.49690976902663 11.036258851831095 #
edge $-1 $394 61.727437057089496 $397 73.356731979558504 $318 $423 forward 7 unknown #
vertex $-1 $332 $424 #
straight-curve $-1 39.684546670071526 15.215838394105152 13.176573932860947 1 0 0 I I #
edge $-1 $397 6.044829922750413 $329 12.297187019959065 $328 $425 forward 7 unknown #
vertex $-1 $396 $426 #
straight-curve $-1 -7.8324638112343479 15.215838394105152 88.748836161769347 -0.57357642473473569 0 0.81915205242281985 I I #
point $-1 45.083802283890002 15.215838394105152 13.176573932860947 #
point $-1 53.226722006897184 21.468195491313804 1.5472790103919323 #
straight-curve $-1 53.226722006897184 0 13.176573932860942 0 1 0 I I #
vertex $-1 $335 $427 #
point $-1 48.260708451659099 17.002226136164765 6.125165962525541 #
vertex $-1 $339 $428 #
point $-1 48.260708451659099 19.68180774925419 6.125165962525541 #
straight-curve $-1 -53.226722006897184 29.816840677199679 0 0 0 -1 I I #
point $-1 -53.226722006897184 -29.816840677199679 -13.176573932860942 #
straight-curve $-1 -53.226722006897184 0 -13.176573932860942 0 1 0 I I #
point $-1 -53.226722006897184 29.816840677199679 -13.176573932860942 #
straight-curve $-1 -26.8735741411753 -10.657488371808881 13.176573932860942 0 1 0 I I #
straight-curve $-1 -26.8735741411753 -10.657488371808881 -13.176573932860942 0 -1 0 I I #
point $-1 -26.8735741411753 -29.816840677199679 -13.176573932860942 #
point $-1 -26.8735741411753 -29.816840677199679 13.176573932860942 #
straight-curve $-1 0 -29.816840677199679 -13.176573932860942 -1 0 0 I I #
straight-curve $-1 0 -29.816840677199679 13.176573932860942 1 0 0 I I #
edge $-1 $387 -13.176573932860942 $381 -10.053897254999702 $378 $429 forward 7 unknown #
straight-curve $-1 -53.226722006897184 12.87848079394842 10.053897254999701 0 -1 0 I I #
point $-1 -53.226722006897184 29.816840677199675 10.053897254999702 #
straight-curve $-1 0 29.816840677199679 13.176573932860942 -1 0 0 I I #
point $-1 -53.226722006897184 29.816840677199679 13.176573932860942 #
point $-1 -50.221928654432716 24.017013406767056 10.347275174014992 #
point $-1 -50.221928654432716 27.49690976902663 10.347275174014992 #
straight-curve $-1 53.226722006897184 15.215838394105152 74.904010989950436 0 0 -1 I I #
point $-1 53.226722006897184 15.215838394105152 13.176573932860942 #
straight-curve $-1 53.226722006897191 9.1710084713547388 1.5472790103919252 0 1 0 I I #
point $-1 53.226722006897184 15.215838394105152 1.5472790103919323 #
point $-1 47.564344213080318 17.002226136164765 6.2479537763695836 #
point $-1 47.564344213080318 19.68180774925419 6.2479537763695836 #
straight-curve $-1 -53.226722006897184 29.816840677199679 0 0 0 -1 I I #
End-of-ACIS-data 