500 0 14 0           
7 Unknown 11 ACIS 5.0 NT 24 Thu Mar 25 18:25:38 1999 
-1 9.9999999999999995e-007 1e-010 
body $-1 $14 $-1 $15 #
body $-1 $16 $-1 $17 #
body $-1 $18 $-1 $19 #
body $-1 $20 $-1 $21 #
body $-1 $22 $-1 $23 #
body $-1 $24 $-1 $25 #
body $-1 $26 $-1 $27 #
body $-1 $28 $-1 $29 #
body $-1 $30 $-1 $31 #
body $-1 $32 $-1 $33 #
body $-1 $34 $-1 $35 #
body $-1 $36 $-1 $37 #
body $-1 $38 $-1 $39 #
body $-1 $40 $-1 $41 #
lump $-1 $-1 $42 $0 #
transform $-1 1 0 0 0 1 0 0 0 1 55.283669545579393 22.550783628230054 5.790651980588021 1 rotate no_reflect no_shear #
lump $-1 $-1 $43 $1 #
transform $-1 1 0 0 0 1 0 0 0 1 55.283669545579393 22.550783628230054 5.790651980588021 1 rotate no_reflect no_shear #
lump $-1 $-1 $44 $2 #
transform $-1 1 0 0 0 1 0 0 0 1 55.283669545579393 22.550783628230054 5.790651980588021 1 rotate no_reflect no_shear #
lump $-1 $-1 $45 $3 #
transform $-1 1 0 0 0 1 0 0 0 1 55.283669545579393 22.550783628230054 5.790651980588021 1 rotate no_reflect no_shear #
lump $-1 $-1 $46 $4 #
transform $-1 1 0 0 0 1 0 0 0 1 55.283669545579393 22.550783628230054 5.790651980588021 1 rotate no_reflect no_shear #
lump $-1 $-1 $47 $5 #
transform $-1 1 0 0 0 1 0 0 0 1 55.283669545579393 22.550783628230054 5.790651980588021 1 rotate no_reflect no_shear #
lump $-1 $-1 $48 $6 #
transform $-1 1 0 0 0 1 0 0 0 1 55.283669545579393 22.550783628230054 5.790651980588021 1 rotate no_reflect no_shear #
lump $-1 $-1 $49 $7 #
transform $-1 1 0 0 0 1 0 0 0 1 55.283669545579393 22.550783628230054 5.790651980588021 1 rotate no_reflect no_shear #
lump $-1 $-1 $50 $8 #
transform $-1 1 0 0 0 1 0 0 0 1 55.283669545579393 22.550783628230054 5.790651980588021 1 rotate no_reflect no_shear #
lump $-1 $-1 $51 $9 #
transform $-1 1 0 0 0 1 0 0 0 1 55.283669545579393 22.550783628230054 5.790651980588021 1 rotate no_reflect no_shear #
lump $-1 $-1 $52 $10 #
transform $-1 1 0 0 0 1 0 0 0 1 55.283669545579393 22.550783628230054 5.790651980588021 1 rotate no_reflect no_shear #
lump $-1 $-1 $53 $11 #
transform $-1 1 0 0 0 1 0 0 0 1 55.283669545579393 22.550783628230054 5.790651980588021 1 rotate no_reflect no_shear #
lump $-1 $-1 $54 $12 #
transform $-1 1 0 0 0 1 0 0 0 1 55.283669545579393 22.550783628230054 5.790651980588021 1 rotate no_reflect no_shear #
lump $-1 $-1 $55 $13 #
transform $-1 1 0 0 0 1 0 0 0 1 55.283669545579393 22.550783628230054 5.790651980588021 1 rotate no_reflect no_shear #
shell $-1 $-1 $-1 $56 $-1 $14 #
shell $-1 $-1 $-1 $57 $-1 $16 #
shell $-1 $-1 $-1 $58 $-1 $18 #
shell $-1 $-1 $-1 $59 $-1 $20 #
shell $-1 $-1 $-1 $60 $-1 $22 #
shell $-1 $-1 $-1 $61 $-1 $24 #
shell $-1 $-1 $-1 $62 $-1 $26 #
shell $-1 $-1 $-1 $63 $-1 $28 #
shell $-1 $-1 $-1 $64 $-1 $30 #
shell $-1 $-1 $-1 $65 $-1 $32 #
shell $-1 $-1 $-1 $66 $-1 $34 #
shell $-1 $-1 $-1 $67 $-1 $36 #
shell $-1 $-1 $-1 $68 $-1 $38 #
shell $-1 $-1 $-1 $69 $-1 $40 #
face $-1 $70 $71 $42 $-1 $72 reversed single #
face $-1 $73 $74 $43 $-1 $75 forward single #
face $-1 $76 $77 $44 $-1 $78 reversed single #
face $-1 $79 $80 $45 $-1 $81 forward single #
face $-1 $82 $83 $46 $-1 $84 forward single #
face $-1 $85 $86 $47 $-1 $87 reversed single #
face $-1 $88 $89 $48 $-1 $90 forward single #
face $-1 $91 $92 $49 $-1 $93 forward single #
face $-1 $94 $95 $50 $-1 $96 reversed single #
face $-1 $97 $98 $51 $-1 $99 forward single #
face $-1 $100 $101 $52 $-1 $102 forward single #
face $-1 $103 $104 $53 $-1 $105 reversed single #
face $-1 $106 $107 $54 $-1 $108 forward single #
face $-1 $109 $110 $55 $-1 $111 forward single #
face $-1 $112 $113 $42 $-1 $114 forward single #
loop $-1 $-1 $115 $56 #
plane-surface $-1 -55.283669545579393 0 0 1 0 0 0 0 -1 forward_v I I I I #
face $-1 $116 $117 $43 $-1 $118 reversed single #
loop $-1 $-1 $119 $57 #
plane-surface $-1 -55.283669545579393 0 0 1 0 0 0 0 -1 forward_v I I I I #
face $-1 $120 $121 $44 $-1 $122 reversed single #
loop $-1 $-1 $123 $58 #
plane-surface $-1 2.2609998017774409 -79.497173859189473 95.410645685487921 -1 0 0 0 -0.51503808176128008 0.85716729658548041 forward_v I I I I #
face $-1 $124 $125 $45 $-1 $126 forward single #
loop $-1 $127 $128 $59 #
cone-surface $-1 -14.929775043549668 -16.587157602590082 0.4269848999276169 0 0.51503808176128008 -0.85716729658548041 2.5 0 0 1 I I 0 1 2.5 forward I I I I #
face $-1 $129 $130 $46 $-1 $131 forward single #
loop $-1 $132 $133 $60 #
cone-surface $-1 -4.6153101363534077 -16.587157602590082 0.4269848999276169 0 0.51503808176128008 -0.85716729658548041 2.5 0 0 1 I I 0 1 2.5 forward I I I I #
face $-1 $134 $135 $47 $-1 $136 reversed single #
loop $-1 $-1 $137 $61 #
plane-surface $-1 26.328084585235398 -79.497173859189473 95.410645685487921 -1 0 0 0 -0.51503808176128008 0.85716729658548041 forward_v I I I I #
face $-1 $138 $139 $48 $-1 $140 forward single #
loop $-1 $141 $142 $62 #
cone-surface $-1 9.1373097399082823 -16.587157602590082 0.4269848999276169 0 0.51503808176128008 -0.85716729658548041 2.5 0 0 1 I I 0 1 2.5 forward I I I I #
face $-1 $143 $144 $49 $-1 $145 forward single #
loop $-1 $146 $147 $63 #
cone-surface $-1 19.451774647104536 -16.587157602590082 0.4269848999276169 0 0.51503808176128008 -0.85716729658548041 2.5 0 0 1 I I 0 1 2.5 forward I I I I #
face $-1 $148 $149 $50 $-1 $150 reversed single #
loop $-1 $-1 $151 $64 #
plane-surface $-1 -26.237399698966566 78.259552081205669 107.77430029521139 1 0 0 0 -0.7660444514056185 -0.64278759981090561 forward_v I I I I #
face $-1 $152 $153 $51 $-1 $154 forward single #
loop $-1 $155 $156 $65 #
cone-surface $-1 -19.683291091830377 20.641660927084885 3.6505224087977255 0 -0.7660444514056185 -0.64278759981090561 0.5 0 0 1 I I 0 1 0.5 forward I I I I #
face $-1 $157 $158 $52 $-1 $159 forward single #
loop $-1 $160 $161 $66 #
cone-surface $-1 -9.8521281811260835 20.641660927084885 3.6505224087977255 0 -0.7660444514056185 -0.64278759981090561 0.5 0 0 1 I I 0 1 0.5 forward I I I I #
face $-1 $162 $163 $53 $-1 $164 reversed single #
loop $-1 $-1 $165 $67 #
plane-surface $-1 26.785270044835389 78.259552081205669 107.77430029521139 1 0 0 0 -0.7660444514056185 -0.64278759981090561 forward_v I I I I #
face $-1 $166 $167 $54 $-1 $168 forward single #
loop $-1 $169 $170 $68 #
cone-surface $-1 33.339378651971593 20.641660927084885 3.6505224087977255 0 -0.7660444514056185 -0.64278759981090561 0.5 0 0 1 I I 0 1 0.5 forward I I I I #
face $-1 $171 $172 $55 $-1 $173 forward single #
loop $-1 $174 $175 $69 #
cone-surface $-1 43.170541562675872 20.641660927084885 3.6505224087977255 0 -0.7660444514056185 -0.64278759981090561 0.5 0 0 1 I I 0 1 0.5 forward I I I I #
face $-1 $176 $177 $42 $-1 $178 reversed single #
loop $-1 $-1 $179 $70 #
plane-surface $-1 0 0 5.790651980588021 0 0 1 1 0 0 forward_v I I I I #
coedge $-1 $180 $181 $182 $183 reversed $71 $-1 #
face $-1 $184 $185 $43 $-1 $186 reversed single #
loop $-1 $-1 $187 $73 #
plane-surface $-1 0 0 -5.790651980588021 0 0 1 1 0 0 forward_v I I I I #
coedge $-1 $188 $189 $190 $191 forward $74 $-1 #
face $-1 $192 $193 $44 $-1 $194 reversed single #
loop $-1 $-1 $195 $76 #
plane-surface $-1 -9.7725425899515344 -22.550783628230057 0.63593854606924083 0 -0.51503808176128008 0.85716729658548041 1 0 0 forward_v I I I I #
coedge $-1 $196 $197 $198 $199 reversed $77 $-1 #
face $-1 $-1 $200 $45 $-1 $201 forward single #
loop $-1 $202 $203 $79 #
cone-surface $-1 -14.929775043549668 -14.269175800321392 -3.4307845842052465 0 0.51503808176128008 -0.85716729658548041 1.25 0 0 1 I I -0.70710678118654757 0.70710678118654735 1.25 forward I I I I #
loop $-1 $-1 $204 $59 #
coedge $-1 $128 $128 $205 $206 reversed $80 $-1 #
face $-1 $-1 $207 $46 $-1 $208 forward single #
loop $-1 $209 $210 $82 #
cone-surface $-1 -4.6153101363534077 -14.269175800321392 -3.4307845842052465 0 0.51503808176128008 -0.85716729658548041 1.25 0 0 1 I I -0.70710678118654757 0.70710678118654735 1.25 forward I I I I #
loop $-1 $-1 $211 $60 #
coedge $-1 $133 $133 $212 $213 reversed $83 $-1 #
face $-1 $214 $215 $47 $-1 $216 forward single #
loop $-1 $-1 $217 $85 #
plane-surface $-1 -9.7725425899515344 -22.550783628230057 0.63593854606924083 0 -0.51503808176128008 0.85716729658548041 1 0 0 forward_v I I I I #
coedge $-1 $218 $219 $220 $221 reversed $86 $-1 #
face $-1 $-1 $222 $48 $-1 $223 forward single #
loop $-1 $224 $225 $88 #
cone-surface $-1 9.1373097399082823 -14.269175800321392 -3.4307845842052465 0 0.51503808176128008 -0.85716729658548041 1.25 0 0 1 I I -0.70710678118654757 0.70710678118654735 1.25 forward I I I I #
loop $-1 $-1 $226 $62 #
coedge $-1 $142 $142 $227 $228 reversed $89 $-1 #
face $-1 $-1 $229 $49 $-1 $230 forward single #
loop $-1 $231 $232 $91 #
cone-surface $-1 19.451774647104536 -14.269175800321392 -3.4307845842052465 0 0.51503808176128008 -0.85716729658548041 1.25 0 0 1 I I -0.70710678118654757 0.70710678118654735 1.25 forward I I I I #
loop $-1 $-1 $233 $63 #
coedge $-1 $147 $147 $234 $235 reversed $92 $-1 #
face $-1 $236 $237 $50 $-1 $238 reversed single #
loop $-1 $-1 $239 $94 #
plane-surface $-1 -14.767709636478223 -6.4399445362600574 36.702985783326923 0 0.7660444514056185 0.64278759981090561 1 0 0 forward_v I I I I #
coedge $-1 $240 $241 $242 $243 reversed $95 $-1 #
face $-1 $-1 $244 $51 $-1 $245 forward single #
loop $-1 $246 $247 $97 #
cone-surface $-1 -19.683291091830377 20.067127588530671 3.1684317089395462 0 -0.7660444514056185 -0.64278759981090561 0.25 0 0 1 I I -0.70710678118654746 0.70710678118654746 0.25 forward I I I I #
loop $-1 $-1 $248 $65 #
coedge $-1 $156 $156 $249 $250 reversed $98 $-1 #
face $-1 $-1 $251 $52 $-1 $252 forward single #
loop $-1 $253 $254 $100 #
cone-surface $-1 -9.8521281811260835 20.067127588530671 3.1684317089395462 0 -0.7660444514056185 -0.64278759981090561 0.25 0 0 1 I I -0.70710678118654746 0.70710678118654746 0.25 forward I I I I #
loop $-1 $-1 $255 $66 #
coedge $-1 $161 $161 $256 $257 reversed $101 $-1 #
face $-1 $258 $259 $53 $-1 $260 reversed single #
loop $-1 $-1 $261 $103 #
plane-surface $-1 38.254960107323733 -6.4399445362600574 36.702985783326923 0 0.7660444514056185 0.64278759981090561 1 0 0 forward_v I I I I #
coedge $-1 $262 $263 $264 $265 reversed $104 $-1 #
face $-1 $-1 $266 $54 $-1 $267 forward single #
loop $-1 $268 $269 $106 #
cone-surface $-1 33.339378651971593 20.067127588530671 3.1684317089395462 0 -0.7660444514056185 -0.64278759981090561 0.25 0 0 1 I I -0.70710678118654746 0.70710678118654746 0.25 forward I I I I #
loop $-1 $-1 $270 $68 #
coedge $-1 $170 $170 $271 $272 reversed $107 $-1 #
face $-1 $-1 $273 $55 $-1 $274 forward single #
loop $-1 $275 $276 $109 #
cone-surface $-1 43.170541562675872 20.067127588530671 3.1684317089395462 0 -0.7660444514056185 -0.64278759981090561 0.25 0 0 1 I I -0.70710678118654746 0.70710678118654746 0.25 forward I I I I #
loop $-1 $-1 $277 $69 #
coedge $-1 $175 $175 $278 $279 reversed $110 $-1 #
face $-1 $280 $281 $42 $-1 $282 reversed single #
loop $-1 $-1 $283 $112 #
plane-surface $-1 0 0 -5.790651980588021 0 0 1 1 0 0 forward_v I I I I #
coedge $-1 $284 $285 $286 $287 forward $113 $-1 #
coedge $-1 $288 $115 $289 $290 reversed $71 $-1 #
coedge $-1 $115 $288 $291 $292 forward $71 $-1 #
coedge $-1 $293 $294 $115 $183 forward $177 $-1 #
edge $-1 $295 -22.550783628230054 $296 22.550783628230054 $115 $297 forward 7 unknown #
face $-1 $298 $299 $43 $-1 $300 reversed single #
loop $-1 $-1 $301 $116 #
plane-surface $-1 -57.54466934735683 -13.990543408261697 0 0 1 0 0 0 1 forward_v I I I I #
coedge $-1 $302 $303 $189 $304 forward $117 $-1 #
coedge $-1 $305 $119 $306 $307 reversed $74 $-1 #
coedge $-1 $119 $305 $187 $304 reversed $74 $-1 #
coedge $-1 $308 $309 $119 $191 reversed $310 $-1 #
edge $-1 $311 -5.790651980588021 $312 5.790651980588021 $190 $313 forward 7 unknown #
face $-1 $314 $315 $44 $-1 $316 forward single #
loop $-1 $-1 $317 $120 #
plane-surface $-1 -21.80608498168051 -79.497173859189473 95.410645685487921 1 0 0 0 0.51503808176128008 -0.85716729658548041 forward_v I I I I #
coedge $-1 $318 $319 $320 $321 reversed $121 $-1 #
coedge $-1 $197 $123 $322 $323 reversed $77 $-1 #
coedge $-1 $123 $196 $318 $324 reversed $77 $-1 #
coedge $-1 $320 $325 $123 $199 forward $315 $-1 #
edge $-1 $326 17.197803301364683 $327 25.776686952510438 $198 $328 forward 7 unknown #
loop $-1 $-1 $205 $124 #
plane-surface $-1 -9.7725425899515344 -22.550783628230057 0.63593854606924083 0 -0.51503808176128008 0.85716729658548041 1 0 0 forward_v I I I I #
loop $-1 $-1 $329 $79 #
coedge $-1 $203 $203 $204 $330 reversed $125 $-1 #
coedge $-1 $204 $204 $203 $330 forward $127 $-1 #
coedge $-1 $205 $205 $128 $206 forward $200 $-1 #
edge $-1 $331 4.8619485656928458e-016 $331 6.2831853071796013 $205 $332 forward 7 unknown #
loop $-1 $-1 $212 $129 #
plane-surface $-1 -9.7725425899515344 -22.550783628230057 0.63593854606924083 0 -0.51503808176128008 0.85716729658548041 1 0 0 forward_v I I I I #
loop $-1 $-1 $333 $82 #
coedge $-1 $210 $210 $211 $334 reversed $130 $-1 #
coedge $-1 $211 $211 $210 $334 forward $132 $-1 #
coedge $-1 $212 $212 $133 $213 forward $207 $-1 #
edge $-1 $335 4.8619485656928458e-016 $335 6.2831853071796013 $212 $336 forward 7 unknown #
face $-1 $337 $338 $47 $-1 $339 forward single #
loop $-1 $-1 $340 $134 #
plane-surface $-1 0 0 5.790651980588021 0 0 1 1 0 0 forward_v I I I I #
coedge $-1 $341 $342 $343 $344 reversed $135 $-1 #
coedge $-1 $219 $137 $345 $346 reversed $86 $-1 #
coedge $-1 $137 $218 $340 $347 reversed $86 $-1 #
coedge $-1 $348 $349 $137 $221 forward $350 $-1 #
edge $-1 $351 -47.06938429667472 $352 -41.914670862155937 $220 $353 forward 7 unknown #
loop $-1 $-1 $227 $138 #
plane-surface $-1 -9.7725425899515344 -22.550783628230057 0.63593854606924083 0 -0.51503808176128008 0.85716729658548041 1 0 0 forward_v I I I I #
loop $-1 $-1 $354 $88 #
coedge $-1 $225 $225 $226 $355 reversed $139 $-1 #
coedge $-1 $226 $226 $225 $355 forward $141 $-1 #
coedge $-1 $227 $227 $142 $228 forward $222 $-1 #
edge $-1 $356 4.8619485656928458e-016 $356 6.2831853071796013 $227 $357 forward 7 unknown #
loop $-1 $-1 $234 $143 #
plane-surface $-1 -9.7725425899515344 -22.550783628230057 0.63593854606924083 0 -0.51503808176128008 0.85716729658548041 1 0 0 forward_v I I I I #
loop $-1 $-1 $358 $91 #
coedge $-1 $232 $232 $233 $359 reversed $144 $-1 #
coedge $-1 $233 $233 $232 $359 forward $146 $-1 #
coedge $-1 $234 $234 $147 $235 forward $229 $-1 #
edge $-1 $360 4.8619485656928458e-016 $360 6.2831853071796013 $234 $361 forward 7 unknown #
face $-1 $362 $363 $50 $-1 $364 reversed single #
loop $-1 $-1 $365 $148 #
plane-surface $-1 -3.2980195739898797 78.259552081205669 107.77430029521139 -1 0 0 0 0.7660444514056185 0.64278759981090561 forward_v I I I I #
coedge $-1 $366 $367 $368 $369 reversed $149 $-1 #
coedge $-1 $241 $151 $370 $371 reversed $95 $-1 #
coedge $-1 $151 $240 $366 $372 reversed $95 $-1 #
coedge $-1 $368 $373 $151 $243 forward $374 $-1 #
edge $-1 $375 16.578992412372781 $376 19.631193363257477 $242 $377 forward 7 unknown #
loop $-1 $-1 $249 $152 #
plane-surface $-1 -14.767709636478223 -6.4399445362600574 36.702985783326923 0 0.7660444514056185 0.64278759981090561 1 0 0 forward_v I I I I #
loop $-1 $-1 $378 $97 #
coedge $-1 $247 $247 $248 $379 reversed $153 $-1 #
coedge $-1 $248 $248 $247 $379 forward $155 $-1 #
coedge $-1 $249 $249 $156 $250 forward $244 $-1 #
edge $-1 $380 2.916945056141314e-015 $380 6.2831853071796031 $249 $381 forward 7 unknown #
loop $-1 $-1 $256 $157 #
plane-surface $-1 -14.767709636478223 -6.4399445362600574 36.702985783326923 0 0.7660444514056185 0.64278759981090561 1 0 0 forward_v I I I I #
loop $-1 $-1 $382 $100 #
coedge $-1 $254 $254 $255 $383 reversed $158 $-1 #
coedge $-1 $255 $255 $254 $383 forward $160 $-1 #
coedge $-1 $256 $256 $161 $257 forward $251 $-1 #
edge $-1 $384 2.916945056141314e-015 $384 6.2831853071796031 $256 $385 forward 7 unknown #
face $-1 $386 $387 $53 $-1 $388 forward single #
loop $-1 $-1 $389 $162 #
plane-surface $-1 49.72465016981208 78.259552081205669 107.77430029521139 -1 0 0 0 0.7660444514056185 0.64278759981090561 forward_v I I I I #
coedge $-1 $390 $391 $392 $393 reversed $163 $-1 #
coedge $-1 $263 $165 $394 $395 reversed $104 $-1 #
coedge $-1 $165 $262 $390 $396 reversed $104 $-1 #
coedge $-1 $392 $397 $165 $265 forward $387 $-1 #
edge $-1 $398 16.578992412372781 $399 19.631193363257477 $264 $400 forward 7 unknown #
loop $-1 $-1 $271 $166 #
plane-surface $-1 38.254960107323733 -6.4399445362600574 36.702985783326923 0 0.7660444514056185 0.64278759981090561 1 0 0 forward_v I I I I #
loop $-1 $-1 $401 $106 #
coedge $-1 $269 $269 $270 $402 reversed $167 $-1 #
coedge $-1 $270 $270 $269 $402 forward $169 $-1 #
coedge $-1 $271 $271 $170 $272 forward $266 $-1 #
edge $-1 $403 2.916945056141314e-015 $403 6.2831853071796031 $271 $404 forward 7 unknown #
loop $-1 $-1 $278 $171 #
plane-surface $-1 38.254960107323733 -6.4399445362600574 36.702985783326923 0 0.7660444514056185 0.64278759981090561 1 0 0 forward_v I I I I #
loop $-1 $-1 $405 $109 #
coedge $-1 $276 $276 $277 $406 reversed $172 $-1 #
coedge $-1 $277 $277 $276 $406 forward $174 $-1 #
coedge $-1 $278 $278 $175 $279 forward $273 $-1 #
edge $-1 $407 2.916945056141314e-015 $407 6.2831853071796031 $278 $408 forward 7 unknown #
face $-1 $409 $410 $42 $-1 $411 reversed single #
loop $-1 $-1 $289 $176 #
plane-surface $-1 0 -22.550783628230054 0 0 1 0 0 0 1 forward_v I I I I #
coedge $-1 $294 $293 $412 $413 forward $177 $-1 #
coedge $-1 $414 $179 $415 $416 forward $113 $-1 #
coedge $-1 $179 $414 $417 $418 forward $113 $-1 #
coedge $-1 $419 $420 $179 $287 reversed $421 $-1 #
edge $-1 $422 -22.550783628230054 $423 22.550783628230054 $286 $424 forward 7 unknown #
coedge $-1 $181 $180 $414 $425 reversed $71 $-1 #
coedge $-1 $426 $417 $180 $290 forward $281 $-1 #
edge $-1 $427 -5.790651980588021 $295 5.790651980588021 $180 $428 forward 7 unknown #
coedge $-1 $415 $429 $181 $292 reversed $410 $-1 #
edge $-1 $430 -5.790651980588021 $296 5.790651980588021 $291 $431 forward 7 unknown #
coedge $-1 $283 $182 $429 $432 forward $177 $-1 #
coedge $-1 $182 $283 $426 $433 forward $177 $-1 #
vertex $-1 $183 $434 #
vertex $-1 $432 $435 #
straight-curve $-1 -55.283669545579393 0 -5.790651980588021 0 1 0 I I #
face $-1 $436 $310 $43 $-1 $437 reversed single #
loop $-1 $-1 $438 $184 #
plane-surface $-1 -59.805669149134268 -12.480011537657855 0 1 0 0 0 0 -1 forward_v I I I I #
coedge $-1 $439 $440 $441 $442 forward $185 $-1 #
coedge $-1 $443 $187 $439 $444 forward $117 $-1 #
coedge $-1 $187 $443 $308 $445 forward $117 $-1 #
edge $-1 $311 10.969479667054014 $446 13.990543408261697 $187 $447 forward 7 unknown #
coedge $-1 $189 $188 $448 $449 forward $74 $-1 #
coedge $-1 $450 $451 $188 $307 forward $452 $-1 #
edge $-1 $453 -13.990543408261697 $312 -10.969479667054014 $306 $454 forward 7 unknown #
coedge $-1 $455 $190 $303 $445 reversed $310 $-1 #
coedge $-1 $190 $455 $450 $456 reversed $310 $-1 #
loop $-1 $-1 $190 $298 #
vertex $-1 $304 $457 #
vertex $-1 $456 $458 #
straight-curve $-1 -55.283669545579393 -10.969479667054014 0 0 0 1 I I #
face $-1 $-1 $459 $44 $-1 $460 reversed single #
loop $-1 $-1 $198 $192 #
plane-surface $-1 0 0 5.790651980588021 0 0 1 1 0 0 forward_v I I I I #
coedge $-1 $461 $462 $463 $464 reversed $193 $-1 #
coedge $-1 $465 $195 $197 $324 forward $121 $-1 #
coedge $-1 $195 $465 $461 $466 forward $121 $-1 #
coedge $-1 $463 $198 $195 $321 forward $315 $-1 #
edge $-1 $327 -7.147271096753208 $467 16.919813686704742 $320 $468 forward 7 unknown #
coedge $-1 $469 $470 $196 $323 forward $459 $-1 #
edge $-1 $471 -47.06938429667472 $326 -41.914670862155937 $322 $472 forward 7 unknown #
edge $-1 $327 -10.00841222631764 $471 -4.1317035397669616e-015 $197 $473 forward 7 unknown #
coedge $-1 $198 $463 $469 $474 forward $315 $-1 #
vertex $-1 $199 $475 #
vertex $-1 $199 $476 #
straight-curve $-1 2.2609998017774409 -39.748586929594737 5.7906519805880237 0 1 0 I I #
coedge $-1 $329 $329 $-1 $477 reversed $202 $-1 #
edge $-1 $478 0 $478 6.2831853071796004 $203 $479 forward 7 unknown #
vertex $-1 $206 $480 #
ellipse-curve $-1 -14.929775043549668 -18.261341802657174 3.2132952633286327 0 -0.51503808176128008 0.85716729658548041 2.5 0 0 1 I I #
coedge $-1 $333 $333 $-1 $481 reversed $209 $-1 #
edge $-1 $482 0 $482 6.2831853071796004 $210 $483 forward 7 unknown #
vertex $-1 $213 $484 #
ellipse-curve $-1 -4.6153101363534077 -18.261341802657174 3.2132952633286327 0 -0.51503808176128008 0.85716729658548041 2.5 0 0 1 I I #
face $-1 $-1 $350 $47 $-1 $485 reversed single #
loop $-1 $-1 $486 $214 #
plane-surface $-1 2.2609998017774409 -79.497173859189473 95.410645685487921 -1 0 0 0 -0.51503808176128008 0.85716729658548041 forward_v I I I I #
coedge $-1 $487 $488 $219 $347 forward $215 $-1 #
coedge $-1 $345 $217 $487 $489 reversed $135 $-1 #
coedge $-1 $217 $345 $349 $490 reversed $135 $-1 #
coedge $-1 $491 $486 $217 $344 forward $338 $-1 #
edge $-1 $492 -10.00841222631764 $493 -4.1317035397669616e-015 $343 $494 forward 7 unknown #
coedge $-1 $342 $341 $218 $346 forward $135 $-1 #
edge $-1 $495 -10.00841222631764 $351 -4.1317035397669616e-015 $218 $496 forward 7 unknown #
edge $-1 $352 17.197803301364683 $495 25.776686952510438 $340 $497 forward 7 unknown #
coedge $-1 $498 $220 $488 $499 reversed $350 $-1 #
coedge $-1 $220 $498 $342 $490 forward $350 $-1 #
loop $-1 $-1 $220 $337 #
vertex $-1 $221 $500 #
vertex $-1 $347 $501 #
straight-curve $-1 26.328084585235398 -22.550783628230054 47.705322842743961 0 0 1 I I #
coedge $-1 $354 $354 $-1 $502 reversed $224 $-1 #
edge $-1 $503 0 $503 6.2831853071796004 $225 $504 forward 7 unknown #
vertex $-1 $228 $505 #
ellipse-curve $-1 9.1373097399082823 -18.261341802657174 3.2132952633286327 0 -0.51503808176128008 0.85716729658548041 2.5 0 0 1 I I #
coedge $-1 $358 $358 $-1 $506 reversed $231 $-1 #
edge $-1 $507 0 $507 6.2831853071796004 $232 $508 forward 7 unknown #
vertex $-1 $235 $509 #
ellipse-curve $-1 19.451774647104536 -18.261341802657174 3.2132952633286327 0 -0.51503808176128008 0.85716729658548041 2.5 0 0 1 I I #
face $-1 $-1 $374 $50 $-1 $510 forward single #
loop $-1 $-1 $511 $236 #
plane-surface $-1 0 22.550783628230054 0 0 -1 0 0 0 -1 forward_v I I I I #
coedge $-1 $512 $513 $514 $515 reversed $237 $-1 #
coedge $-1 $516 $239 $241 $372 forward $149 $-1 #
coedge $-1 $239 $516 $512 $517 forward $149 $-1 #
coedge $-1 $514 $242 $239 $369 forward $374 $-1 #
edge $-1 $376 -18.853544880727455 $518 4.0858352442492318 $368 $519 forward 7 unknown #
coedge $-1 $520 $521 $240 $371 forward $363 $-1 #
edge $-1 $522 -51.733969710787342 $375 -48.096498167017671 $370 $523 forward 7 unknown #
edge $-1 $376 40.353185439849774 $522 45.101567256460093 $241 $524 forward 7 unknown #
coedge $-1 $242 $514 $520 $525 forward $374 $-1 #
loop $-1 $-1 $514 $362 #
vertex $-1 $371 $526 #
vertex $-1 $243 $527 #
straight-curve $-1 -26.237399698966566 39.129776040602835 5.7906519805880237 0 -1 0 I I #
coedge $-1 $378 $378 $-1 $528 reversed $246 $-1 #
edge $-1 $529 0 $529 6.2831853071796004 $247 $530 forward 7 unknown #
vertex $-1 $250 $531 #
ellipse-curve $-1 -19.683291091830377 21.024683152787699 3.971916208703183 0 0.7660444514056185 0.64278759981090561 0.5 0 0 1 I I #
coedge $-1 $382 $382 $-1 $532 reversed $253 $-1 #
edge $-1 $533 0 $533 6.2831853071796004 $254 $534 forward 7 unknown #
vertex $-1 $257 $535 #
ellipse-curve $-1 -9.8521281811260835 21.024683152787699 3.971916208703183 0 0.7660444514056185 0.64278759981090561 0.5 0 0 1 I I #
face $-1 $-1 $536 $53 $-1 $537 reversed single #
loop $-1 $-1 $264 $258 #
plane-surface $-1 0 0 5.790651980588021 0 0 1 1 0 0 forward_v I I I I #
coedge $-1 $538 $539 $540 $541 reversed $259 $-1 #
coedge $-1 $542 $261 $263 $396 forward $163 $-1 #
coedge $-1 $261 $542 $538 $543 forward $163 $-1 #
coedge $-1 $540 $264 $261 $393 forward $387 $-1 #
edge $-1 $399 7.657789991173523 $544 30.597170116150213 $392 $545 forward 7 unknown #
coedge $-1 $546 $547 $262 $395 forward $536 $-1 #
edge $-1 $548 -51.733969710787342 $398 -48.096498167017671 $394 $549 forward 7 unknown #
edge $-1 $399 40.353185439849774 $548 45.101567256460093 $263 $550 forward 7 unknown #
coedge $-1 $264 $540 $546 $551 forward $387 $-1 #
vertex $-1 $265 $552 #
vertex $-1 $265 $553 #
straight-curve $-1 26.785270044835389 39.129776040602835 5.7906519805880237 0 -1 0 I I #
coedge $-1 $401 $401 $-1 $554 reversed $268 $-1 #
edge $-1 $555 0 $555 6.2831853071796004 $269 $556 forward 7 unknown #
vertex $-1 $272 $557 #
ellipse-curve $-1 33.339378651971593 21.024683152787699 3.971916208703183 0 0.7660444514056185 0.64278759981090561 0.5 0 0 1 I I #
coedge $-1 $405 $405 $-1 $558 reversed $275 $-1 #
edge $-1 $559 0 $559 6.2831853071796004 $276 $560 forward 7 unknown #
vertex $-1 $279 $561 #
ellipse-curve $-1 43.170541562675872 21.024683152787699 3.971916208703183 0 0.7660444514056185 0.64278759981090561 0.5 0 0 1 I I #
face $-1 $-1 $421 $42 $-1 $562 reversed single #
loop $-1 $-1 $563 $280 #
plane-surface $-1 0 22.550783628230054 0 0 -1 0 0 0 -1 forward_v I I I I #
coedge $-1 $420 $419 $283 $413 reversed $421 $-1 #
edge $-1 $564 -22.550783628230054 $565 22.550783628230054 $412 $566 forward 7 unknown #
coedge $-1 $285 $284 $288 $425 forward $113 $-1 #
coedge $-1 $563 $291 $284 $416 reversed $410 $-1 #
edge $-1 $423 -55.283669545579393 $430 55.283669545579393 $415 $567 forward 7 unknown #
coedge $-1 $289 $568 $285 $418 reversed $281 $-1 #
edge $-1 $427 -55.283669545579393 $422 55.283669545579393 $417 $569 forward 7 unknown #
coedge $-1 $412 $286 $568 $570 forward $421 $-1 #
coedge $-1 $286 $412 $563 $571 reversed $421 $-1 #
loop $-1 $-1 $419 $409 #
vertex $-1 $287 $572 #
vertex $-1 $287 $573 #
straight-curve $-1 55.283669545579393 0 5.790651980588021 0 1 0 I I #
edge $-1 $430 -22.550783628230054 $427 22.550783628230054 $288 $574 forward 7 unknown #
coedge $-1 $568 $289 $294 $433 reversed $281 $-1 #
vertex $-1 $425 $575 #
straight-curve $-1 -55.283669545579393 -22.550783628230054 0 0 0 -1 I I #
coedge $-1 $291 $563 $293 $432 reversed $410 $-1 #
vertex $-1 $416 $576 #
straight-curve $-1 -55.283669545579393 22.550783628230054 0 0 0 -1 I I #
edge $-1 $296 -55.283669545579393 $564 55.283669545579393 $429 $577 forward 7 unknown #
edge $-1 $565 -55.283669545579393 $295 55.283669545579393 $426 $578 forward 7 unknown #
point $-1 -55.283669545579393 -22.550783628230054 -5.790651980588021 #
point $-1 -55.283669545579393 22.550783628230054 -5.790651980588021 #
face $-1 $-1 $452 $43 $-1 $579 forward single #
plane-surface $-1 -57.54466934735683 -10.969479667054014 0 0 -1 0 0 0 -1 forward_v I I I I #
coedge $-1 $580 $581 $455 $582 forward $299 $-1 #
coedge $-1 $448 $301 $302 $444 reversed $185 $-1 #
coedge $-1 $301 $448 $451 $583 reversed $185 $-1 #
coedge $-1 $581 $580 $301 $442 reversed $299 $-1 #
edge $-1 $584 -5.790651980588021 $585 5.790651980588021 $441 $586 forward 7 unknown #
coedge $-1 $303 $302 $580 $587 forward $117 $-1 #
edge $-1 $446 -2.2609998017774373 $585 2.2609998017774373 $439 $588 forward 7 unknown #
edge $-1 $589 -2.2609998017774373 $311 2.2609998017774373 $308 $590 forward 7 unknown #
vertex $-1 $444 $591 #
straight-curve $-1 -55.283669545579393 0 -5.790651980588021 0 -1 0 I I #
coedge $-1 $440 $439 $305 $449 reversed $185 $-1 #
edge $-1 $453 -5.790651980588021 $446 5.790651980588021 $448 $592 forward 7 unknown #
coedge $-1 $593 $306 $309 $456 forward $452 $-1 #
coedge $-1 $306 $593 $440 $583 forward $452 $-1 #
loop $-1 $-1 $306 $436 #
vertex $-1 $307 $594 #
straight-curve $-1 -55.283669545579393 0 5.790651980588021 0 1 0 I I #
coedge $-1 $309 $308 $438 $582 reversed $310 $-1 #
edge $-1 $312 -2.2609998017774373 $595 2.2609998017774373 $309 $596 forward 7 unknown #
point $-1 -55.283669545579393 -10.969479667054014 -5.790651980588021 #
point $-1 -55.283669545579393 -10.969479667054014 5.790651980588021 #
loop $-1 $-1 $322 $314 #
plane-surface $-1 0 -22.550783628230054 0 0 1 0 0 0 1 forward_v I I I I #
coedge $-1 $462 $317 $319 $466 reversed $193 $-1 #
coedge $-1 $317 $461 $597 $598 reversed $193 $-1 #
coedge $-1 $325 $320 $317 $464 forward $315 $-1 #
edge $-1 $467 -25.776686952510438 $599 -17.197803301364683 $463 $600 forward 7 unknown #
coedge $-1 $319 $318 $470 $601 reversed $121 $-1 #
edge $-1 $602 4.1317035397669616e-015 $467 10.00841222631764 $461 $603 forward 7 unknown #
vertex $-1 $321 $604 #
straight-curve $-1 -4.8862712949757672 -13.971899977084297 5.790651980588021 -1 0 0 I I #
coedge $-1 $597 $322 $325 $474 reversed $459 $-1 #
coedge $-1 $322 $597 $465 $601 forward $459 $-1 #
vertex $-1 $323 $605 #
straight-curve $-1 2.2609998017774409 -22.550783628230054 47.705322842743961 0 0 1 I I #
straight-curve $-1 2.2609998017774409 -22.550783628230057 0.63593854606924083 0 -0.85716729658548041 -0.51503808176128008 I I #
edge $-1 $599 -21.80608498168051 $326 2.2609998017774409 $469 $606 forward 7 unknown #
point $-1 2.2609998017774409 -22.550783628230054 5.790651980588021 #
point $-1 2.2609998017774409 -13.971899977084297 5.790651980588021 #
edge $-1 $607 1 $607 0 $329 $-1 forward 7 unknown #
vertex $-1 $330 $608 #
ellipse-curve $-1 -14.929775043549668 -14.912973402522992 -2.3593254634733962 0 -0.51503808176128008 0.85716729658548041 2.5 0 0 1 I I #
point $-1 -12.429775043549668 -18.261341802657171 3.2132952633286291 #
edge $-1 $609 1 $609 0 $333 $-1 forward 7 unknown #
vertex $-1 $334 $610 #
ellipse-curve $-1 -4.6153101363534077 -14.912973402522992 -2.3593254634733962 0 -0.51503808176128008 0.85716729658548041 2.5 0 0 1 I I #
point $-1 -2.1153101363534077 -18.261341802657171 3.2132952633286291 #
plane-surface $-1 0 -22.550783628230054 0 0 1 0 0 0 1 forward_v I I I I #
coedge $-1 $343 $491 $611 $612 reversed $338 $-1 #
coedge $-1 $611 $340 $341 $489 forward $215 $-1 #
coedge $-1 $340 $611 $348 $499 forward $215 $-1 #
edge $-1 $495 -31.214355880211166 $492 -7.147271096753208 $487 $613 forward 7 unknown #
edge $-1 $493 7.147271096753208 $351 31.214355880211166 $349 $614 forward 7 unknown #
coedge $-1 $486 $343 $498 $615 reversed $338 $-1 #
vertex $-1 $489 $616 #
vertex $-1 $490 $617 #
straight-curve $-1 2.2609998017774409 -22.550783628230057 0.63593854606924083 0 -0.85716729658548041 -0.51503808176128008 I I #
vertex $-1 $347 $618 #
straight-curve $-1 26.328084585235398 -22.550783628230057 0.63593854606924083 0 -0.85716729658548041 -0.51503808176128008 I I #
straight-curve $-1 26.328084585235398 -39.748586929594737 5.7906519805880237 0 1 0 I I #
coedge $-1 $349 $348 $491 $615 forward $350 $-1 #
edge $-1 $619 2.2609998017774409 $352 26.328084585235398 $348 $620 forward 7 unknown #
point $-1 26.328084585235398 -22.550783628230054 0.63593854606924294 #
point $-1 26.328084585235398 -22.550783628230054 5.790651980588021 #
edge $-1 $621 1 $621 0 $354 $-1 forward 7 unknown #
vertex $-1 $355 $622 #
ellipse-curve $-1 9.1373097399082823 -14.912973402522992 -2.3593254634733962 0 -0.51503808176128008 0.85716729658548041 2.5 0 0 1 I I #
point $-1 11.637309739908282 -18.261341802657171 3.2132952633286291 #
edge $-1 $623 1 $623 0 $358 $-1 forward 7 unknown #
vertex $-1 $359 $624 #
ellipse-curve $-1 19.451774647104536 -14.912973402522992 -2.3593254634733962 0 -0.51503808176128008 0.85716729658548041 2.5 0 0 1 I I #
point $-1 21.951774647104536 -18.261341802657171 3.2132952633286291 #
plane-surface $-1 0 0 5.790651980588021 0 0 1 1 0 0 forward_v I I I I #
coedge $-1 $521 $520 $513 $625 forward $363 $-1 #
coedge $-1 $513 $365 $367 $517 reversed $237 $-1 #
coedge $-1 $365 $512 $511 $625 reversed $237 $-1 #
coedge $-1 $373 $368 $365 $515 forward $374 $-1 #
edge $-1 $518 -19.631193363257477 $626 -16.578992412372781 $514 $627 forward 7 unknown #
coedge $-1 $367 $366 $521 $628 reversed $149 $-1 #
edge $-1 $629 -45.101567256460093 $518 -40.353185439849774 $512 $630 forward 7 unknown #
vertex $-1 $369 $631 #
straight-curve $-1 -7.3838548182391115 19.498582677345357 5.7906519805880201 1 0 0 I I #
coedge $-1 $511 $370 $373 $525 reversed $363 $-1 #
coedge $-1 $370 $511 $516 $628 forward $363 $-1 #
vertex $-1 $371 $632 #
straight-curve $-1 -26.237399698966566 22.550783628230054 53.887150147605695 0 0 1 I I #
straight-curve $-1 -26.237399698966566 -6.4399445362600574 36.702985783326923 0 0.64278759981090561 -0.7660444514056185 I I #
edge $-1 $626 3.2980195739898797 $375 26.237399698966566 $520 $633 forward 7 unknown #
point $-1 -26.237399698966566 22.550783628230054 5.790651980588021 #
point $-1 -26.237399698966566 19.498582677345357 5.7906519805880166 #
edge $-1 $634 1 $634 0 $378 $-1 forward 7 unknown #
vertex $-1 $379 $635 #
ellipse-curve $-1 -19.683291091830377 20.258638701382075 3.3291286088922725 0 0.7660444514056185 0.64278759981090561 0.5 0 0 1 I I #
point $-1 -19.183291091830377 21.024683152787695 3.9719162087031781 #
edge $-1 $636 1 $636 0 $382 $-1 forward 7 unknown #
vertex $-1 $383 $637 #
ellipse-curve $-1 -9.8521281811260835 20.258638701382075 3.3291286088922725 0 0.7660444514056185 0.64278759981090561 0.5 0 0 1 I I #
point $-1 -9.3521281811260835 21.024683152787695 3.9719162087031781 #
loop $-1 $-1 $394 $386 #
plane-surface $-1 0 22.550783628230054 0 0 -1 0 0 0 -1 forward_v I I I I #
coedge $-1 $539 $389 $391 $543 reversed $259 $-1 #
coedge $-1 $389 $538 $638 $639 reversed $259 $-1 #
coedge $-1 $397 $392 $389 $541 forward $387 $-1 #
edge $-1 $544 -19.631193363257477 $640 -16.578992412372781 $540 $641 forward 7 unknown #
coedge $-1 $391 $390 $547 $642 reversed $163 $-1 #
edge $-1 $643 -45.101567256460093 $544 -40.353185439849774 $538 $644 forward 7 unknown #
vertex $-1 $393 $645 #
straight-curve $-1 19.127480053661866 19.498582677345357 5.7906519805880201 1 0 0 I I #
coedge $-1 $638 $394 $397 $551 reversed $536 $-1 #
coedge $-1 $394 $638 $542 $642 forward $536 $-1 #
vertex $-1 $395 $646 #
straight-curve $-1 26.785270044835389 22.550783628230054 53.887150147605695 0 0 1 I I #
straight-curve $-1 26.785270044835389 -6.4399445362600574 36.702985783326923 0 0.64278759981090561 -0.7660444514056185 I I #
edge $-1 $640 -49.72465016981208 $398 -26.785270044835389 $546 $647 forward 7 unknown #
point $-1 26.785270044835389 22.550783628230054 5.790651980588021 #
point $-1 26.785270044835389 19.498582677345357 5.7906519805880166 #
edge $-1 $648 1 $648 0 $401 $-1 forward 7 unknown #
vertex $-1 $402 $649 #
ellipse-curve $-1 33.339378651971593 20.258638701382075 3.3291286088922725 0 0.7660444514056185 0.64278759981090561 0.5 0 0 1 I I #
point $-1 33.839378651971593 21.024683152787695 3.9719162087031781 #
edge $-1 $650 1 $650 0 $405 $-1 forward 7 unknown #
vertex $-1 $406 $651 #
ellipse-curve $-1 43.170541562675872 20.258638701382075 3.3291286088922725 0 0.7660444514056185 0.64278759981090561 0.5 0 0 1 I I #
point $-1 43.670541562675872 21.024683152787695 3.9719162087031781 #
plane-surface $-1 55.283669545579393 0 0 -1 0 0 0 0 1 forward_v I I I I #
coedge $-1 $429 $415 $420 $571 forward $410 $-1 #
vertex $-1 $413 $652 #
vertex $-1 $570 $653 #
straight-curve $-1 55.283669545579393 0 -5.790651980588021 0 -1 0 I I #
straight-curve $-1 0 22.550783628230054 5.790651980588021 -1 0 0 I I #
coedge $-1 $417 $426 $419 $570 reversed $281 $-1 #
straight-curve $-1 0 -22.550783628230054 5.790651980588021 1 0 0 I I #
edge $-1 $422 -5.790651980588021 $565 5.790651980588021 $419 $654 forward 7 unknown #
edge $-1 $423 -5.790651980588021 $564 5.790651980588021 $420 $655 forward 7 unknown #
point $-1 55.283669545579393 -22.550783628230054 5.790651980588021 #
point $-1 55.283669545579393 22.550783628230054 5.790651980588021 #
straight-curve $-1 -55.283669545579393 0 5.790651980588021 0 -1 0 I I #
point $-1 -55.283669545579393 -22.550783628230054 5.790651980588021 #
point $-1 -55.283669545579393 22.550783628230054 5.790651980588021 #
straight-curve $-1 0 22.550783628230054 -5.790651980588021 1 0 0 I I #
straight-curve $-1 0 -22.550783628230054 -5.790651980588021 -1 0 0 I I #
plane-surface $-1 0 0 5.790651980588021 0 0 1 1 0 0 forward_v I I I I #
coedge $-1 $441 $438 $443 $587 reversed $299 $-1 #
coedge $-1 $438 $441 $593 $656 reversed $299 $-1 #
edge $-1 $595 -5.790651980588021 $589 5.790651980588021 $455 $657 forward 7 unknown #
edge $-1 $584 -2.2609998017774373 $453 2.2609998017774373 $440 $658 forward 7 unknown #
vertex $-1 $656 $659 #
vertex $-1 $587 $660 #
straight-curve $-1 -59.805669149134268 -13.990543408261697 0 0 0 -1 I I #
edge $-1 $585 -1.5105318706038418 $589 1.5105318706038418 $580 $661 forward 7 unknown #
straight-curve $-1 -57.54466934735683 -13.990543408261697 -5.790651980588021 -1 0 0 I I #
vertex $-1 $445 $662 #
straight-curve $-1 -57.54466934735683 -10.969479667054014 -5.790651980588021 1 0 0 I I #
point $-1 -55.283669545579393 -13.990543408261697 -5.790651980588021 #
straight-curve $-1 -55.283669545579393 -13.990543408261697 0 0 0 -1 I I #
coedge $-1 $451 $450 $581 $656 forward $452 $-1 #
point $-1 -55.283669545579393 -13.990543408261697 5.790651980588021 #
vertex $-1 $456 $663 #
straight-curve $-1 -57.54466934735683 -10.969479667054014 5.790651980588021 -1 0 0 I I #
coedge $-1 $470 $469 $462 $598 forward $459 $-1 #
edge $-1 $599 41.914670862155937 $602 47.06938429667472 $597 $664 forward 7 unknown #
vertex $-1 $474 $665 #
straight-curve $-1 -21.80608498168051 -39.748586929594737 5.7906519805880237 0 -1 0 I I #
edge $-1 $602 -16.919813686704742 $471 7.147271096753208 $470 $666 forward 7 unknown #
vertex $-1 $601 $667 #
straight-curve $-1 -21.80608498168051 -22.550783628230057 0.63593854606924083 0 0.85716729658548041 0.51503808176128008 I I #
point $-1 -21.80608498168051 -13.971899977084297 5.790651980588021 #
point $-1 2.2609998017774409 -22.550783628230054 0.63593854606924294 #
straight-curve $-1 0 -22.550783628230054 5.790651980588021 1 0 0 I I #
vertex $-1 $477 $668 #
point $-1 -12.429775043549668 -14.912973402522992 -2.3593254634733962 #
vertex $-1 $481 $669 #
point $-1 -2.1153101363534077 -14.912973402522992 -2.3593254634733962 #
coedge $-1 $488 $487 $486 $612 forward $215 $-1 #
edge $-1 $492 -25.776686952510438 $619 -17.197803301364683 $611 $670 forward 7 unknown #
straight-curve $-1 -4.8862712949757672 -13.971899977084297 5.790651980588021 -1 0 0 I I #
straight-curve $-1 -4.8862712949757672 -22.550783628230054 0.63593854606924305 1 0 0 I I #
edge $-1 $619 41.914670862155937 $493 47.06938429667472 $498 $671 forward 7 unknown #
point $-1 2.2609998017774409 -13.971899977084297 5.790651980588021 #
point $-1 2.2609998017774409 -22.550783628230054 0.63593854606924294 #
point $-1 26.328084585235398 -13.971899977084297 5.790651980588021 #
vertex $-1 $499 $672 #
straight-curve $-1 0 -22.550783628230054 5.790651980588021 1 0 0 I I #
vertex $-1 $502 $673 #
point $-1 11.637309739908282 -14.912973402522992 -2.3593254634733962 #
vertex $-1 $506 $674 #
point $-1 21.951774647104536 -14.912973402522992 -2.3593254634733962 #
edge $-1 $626 48.096498167017671 $629 51.733969710787342 $511 $675 forward 7 unknown #
vertex $-1 $525 $676 #
straight-curve $-1 -3.2980195739898797 39.129776040602835 5.7906519805880237 0 1 0 I I #
edge $-1 $629 -4.0858352442492318 $522 18.853544880727455 $521 $677 forward 7 unknown #
vertex $-1 $628 $678 #
straight-curve $-1 -3.2980195739898797 -6.4399445362600574 36.702985783326923 0 -0.64278759981090561 0.7660444514056185 I I #
point $-1 -3.2980195739898797 19.498582677345357 5.7906519805880166 #
point $-1 -26.237399698966566 22.550783628230054 2.1531804368183529 #
straight-curve $-1 0 22.550783628230054 5.790651980588021 -1 0 0 I I #
vertex $-1 $528 $679 #
point $-1 -19.183291091830377 20.258638701382075 3.3291286088922725 #
vertex $-1 $532 $680 #
point $-1 -9.3521281811260835 20.258638701382075 3.3291286088922725 #
coedge $-1 $547 $546 $539 $639 forward $536 $-1 #
edge $-1 $640 48.096498167017671 $643 51.733969710787342 $638 $681 forward 7 unknown #
vertex $-1 $551 $682 #
straight-curve $-1 49.72465016981208 39.129776040602835 5.7906519805880237 0 1 0 I I #
edge $-1 $643 -30.597170116150213 $548 -7.657789991173523 $547 $683 forward 7 unknown #
vertex $-1 $642 $684 #
straight-curve $-1 49.72465016981208 -6.4399445362600574 36.702985783326923 0 -0.64278759981090561 0.7660444514056185 I I #
point $-1 49.72465016981208 19.498582677345357 5.7906519805880166 #
point $-1 26.785270044835389 22.550783628230054 2.1531804368183529 #
straight-curve $-1 0 22.550783628230054 5.790651980588021 -1 0 0 I I #
vertex $-1 $554 $685 #
point $-1 33.839378651971593 20.258638701382075 3.3291286088922725 #
vertex $-1 $558 $686 #
point $-1 43.670541562675872 20.258638701382075 3.3291286088922725 #
point $-1 55.283669545579393 22.550783628230054 -5.790651980588021 #
point $-1 55.283669545579393 -22.550783628230054 -5.790651980588021 #
straight-curve $-1 55.283669545579393 -22.550783628230054 0 0 0 -1 I I #
straight-curve $-1 55.283669545579393 22.550783628230054 0 0 0 -1 I I #
edge $-1 $595 -1.5105318706038418 $584 1.5105318706038418 $581 $687 forward 7 unknown #
straight-curve $-1 -59.805669149134268 -10.969479667054014 0 0 0 -1 I I #
straight-curve $-1 -57.54466934735683 -13.990543408261697 5.790651980588021 1 0 0 I I #
point $-1 -59.805669149134268 -13.990543408261697 5.790651980588021 #
point $-1 -59.805669149134268 -13.990543408261697 -5.790651980588021 #
straight-curve $-1 -59.805669149134268 -12.480011537657855 -5.790651980588021 0 1 0 I I #
point $-1 -59.805669149134268 -10.969479667054014 -5.790651980588021 #
point $-1 -59.805669149134268 -10.969479667054014 5.790651980588021 #
straight-curve $-1 -21.80608498168051 -22.550783628230054 47.705322842743961 0 0 -1 I I #
point $-1 -21.80608498168051 -22.550783628230054 5.790651980588021 #
straight-curve $-1 -4.8862712949757672 -22.550783628230054 0.63593854606924305 1 0 0 I I #
point $-1 -21.80608498168051 -22.550783628230054 0.63593854606924294 #
point $-1 -14.929775043549668 -13.625378198119792 -4.5022437049370971 #
point $-1 -4.6153101363534077 -13.625378198119792 -4.5022437049370971 #
straight-curve $-1 2.2609998017774409 -39.748586929594737 5.7906519805880237 0 -1 0 I I #
straight-curve $-1 2.2609998017774409 -22.550783628230054 47.705322842743961 0 0 -1 I I #
point $-1 2.2609998017774409 -22.550783628230054 5.790651980588021 #
point $-1 9.1373097399082823 -13.625378198119792 -4.5022437049370971 #
point $-1 19.451774647104536 -13.625378198119792 -4.5022437049370971 #
straight-curve $-1 -3.2980195739898797 22.550783628230054 53.887150147605695 0 0 -1 I I #
point $-1 -3.2980195739898797 22.550783628230054 5.790651980588021 #
straight-curve $-1 -7.3838548182391115 22.550783628230054 2.1531804368183494 -1 0 0 I I #
point $-1 -3.2980195739898797 22.550783628230054 2.1531804368183529 #
point $-1 -19.683291091830377 19.875616475679266 3.0077348089868199 #
point $-1 -9.8521281811260835 19.875616475679266 3.0077348089868199 #
straight-curve $-1 49.72465016981208 22.550783628230054 53.887150147605695 0 0 -1 I I #
point $-1 49.72465016981208 22.550783628230054 5.790651980588021 #
straight-curve $-1 19.127480053661866 22.550783628230054 2.1531804368183494 -1 0 0 I I #
point $-1 49.72465016981208 22.550783628230054 2.1531804368183529 #
point $-1 33.339378651971593 19.875616475679266 3.0077348089868199 #
point $-1 43.170541562675872 19.875616475679266 3.0077348089868199 #
straight-curve $-1 -59.805669149134268 -12.480011537657855 5.790651980588021 0 -1 0 I I #
End-of-ACIS-data 