500 0 9 0           
7 Unknown 11 ACIS 5.0 NT 24 Thu Mar 25 15:14:42 1999 
-1 9.9999999999999995e-007 1e-010 
body $-1 $9 $-1 $10 #
body $-1 $11 $-1 $12 #
body $-1 $13 $-1 $14 #
body $-1 $15 $-1 $16 #
body $-1 $17 $-1 $18 #
body $-1 $19 $-1 $20 #
body $-1 $21 $-1 $22 #
body $-1 $23 $-1 $24 #
body $-1 $25 $-1 $26 #
lump $-1 $-1 $27 $0 #
transform $-1 1 0 0 0 1 0 0 0 1 79.725333414716033 52.339838321604212 20.954304667937272 1 rotate no_reflect no_shear #
lump $-1 $-1 $28 $1 #
transform $-1 1 0 0 0 1 0 0 0 1 79.725333414716033 52.339838321604212 20.954304667937272 1 rotate no_reflect no_shear #
lump $-1 $-1 $29 $2 #
transform $-1 1 0 0 0 1 0 0 0 1 79.725333414716033 52.339838321604212 20.954304667937272 1 rotate no_reflect no_shear #
lump $-1 $-1 $30 $3 #
transform $-1 1 0 0 0 1 0 0 0 1 79.725333414716033 52.339838321604212 20.954304667937272 1 rotate no_reflect no_shear #
lump $-1 $-1 $31 $4 #
transform $-1 1 0 0 0 1 0 0 0 1 79.725333414716033 52.339838321604212 20.954304667937272 1 rotate no_reflect no_shear #
lump $-1 $-1 $32 $5 #
transform $-1 1 0 0 0 1 0 0 0 1 79.725333414716033 52.339838321604212 20.954304667937272 1 rotate no_reflect no_shear #
lump $-1 $-1 $33 $6 #
transform $-1 1 0 0 0 1 0 0 0 1 79.725333414716033 52.339838321604212 20.954304667937272 1 rotate no_reflect no_shear #
lump $-1 $-1 $34 $7 #
transform $-1 1 0 0 0 1 0 0 0 1 79.725333414716033 52.339838321604212 20.954304667937272 1 rotate no_reflect no_shear #
lump $-1 $-1 $35 $8 #
transform $-1 1 0 0 0 1 0 0 0 1 79.725333414716033 52.339838321604212 20.954304667937272 1 rotate no_reflect no_shear #
shell $-1 $-1 $-1 $36 $-1 $9 #
shell $-1 $-1 $-1 $37 $-1 $11 #
shell $-1 $-1 $-1 $38 $-1 $13 #
shell $-1 $-1 $-1 $39 $-1 $15 #
shell $-1 $-1 $-1 $40 $-1 $17 #
shell $-1 $-1 $-1 $41 $-1 $19 #
shell $-1 $-1 $-1 $42 $-1 $21 #
shell $-1 $-1 $-1 $43 $-1 $23 #
shell $-1 $-1 $-1 $44 $-1 $25 #
face $-1 $45 $46 $27 $-1 $47 reversed single #
face $-1 $48 $49 $28 $-1 $50 forward single #
face $-1 $51 $52 $29 $-1 $53 reversed single #
face $-1 $54 $55 $30 $-1 $56 forward single #
face $-1 $57 $58 $31 $-1 $59 forward single #
face $-1 $60 $61 $32 $-1 $62 forward single #
face $-1 $63 $64 $33 $-1 $65 reversed single #
face $-1 $66 $67 $34 $-1 $68 forward single #
face $-1 $69 $70 $35 $-1 $71 forward single #
face $-1 $72 $73 $27 $-1 $74 forward single #
loop $-1 $-1 $75 $36 #
plane-surface $-1 0 -52.339838321604212 0 0 1 0 0 0 1 forward_v I I I I #
face $-1 $76 $77 $28 $-1 $78 reversed single #
loop $-1 $-1 $79 $37 #
plane-surface $-1 0 -52.339838321604212 0 0 1 0 0 0 1 forward_v I I I I #
face $-1 $80 $81 $29 $-1 $82 reversed single #
loop $-1 $-1 $83 $38 #
plane-surface $-1 -177.89296742765509 14.480704401912369 126.5091027984522 0 1 0 -0.61566148304635926 0 0.78801074757464917 forward_v I I I I #
face $-1 $84 $85 $30 $-1 $86 forward single #
loop $-1 $87 $88 $39 #
cone-surface $-1 -66.035219324305046 17.680274279559306 9.8442740753558926 0.61566148304635926 0 -0.78801074757464917 1.1820161213619738 0 0.92349222456953894 1 I I 0 1 1.5 forward I I I I #
face $-1 $89 $90 $31 $-1 $91 forward single #
loop $-1 $92 $93 $40 #
cone-surface $-1 -66.035219324305046 22.479629096029718 9.8442740753558926 0.61566148304635926 0 -0.78801074757464917 1.1820161213619738 0 0.92349222456953894 1 I I 0 1 1.5 forward I I I I #
face $-1 $94 $95 $32 $-1 $96 forward single #
loop $-1 $97 $98 $41 #
cone-surface $-1 -66.035219324305046 27.278983912500131 9.8442740753558926 0.61566148304635926 0 -0.78801074757464917 1.1820161213619738 0 0.92349222456953894 1 I I 0 1 1.5 forward I I I I #
face $-1 $99 $100 $33 $-1 $101 reversed single #
loop $-1 $-1 $102 $42 #
plane-surface $-1 75.78986551991477 41.537197975805221 227.8070326780684 0 1 0 0.69465837861970381 0 0.71933979245794832 forward_v I I I I #
face $-1 $103 $104 $34 $-1 $105 forward single #
loop $-1 $106 $107 $43 #
cone-surface $-1 69.727990517710751 44.623666646033506 11.27472669765363 -0.69465837861970381 0 -0.71933979245794832 0.35966989622897416 0 -0.3473291893098519 1 I I 0 1 0.5 forward I I I I #
face $-1 $108 $109 $35 $-1 $110 forward single #
loop $-1 $111 $112 $44 #
cone-surface $-1 69.727990517710751 49.253369651375927 11.27472669765363 -0.69465837861970381 0 -0.71933979245794832 0.35966989622897416 0 -0.3473291893098519 1 I I 0 1 0.5 forward I I I I #
face $-1 $113 $114 $27 $-1 $115 reversed single #
loop $-1 $-1 $116 $45 #
plane-surface $-1 0 0 20.954304667937272 0 0 1 1 0 0 forward_v I I I I #
coedge $-1 $117 $118 $119 $120 reversed $46 $-1 #
face $-1 $121 $122 $28 $-1 $123 reversed single #
loop $-1 $-1 $124 $48 #
plane-surface $-1 0 0 -20.954304667937272 0 0 1 1 0 0 forward_v I I I I #
coedge $-1 $125 $126 $127 $128 forward $49 $-1 #
face $-1 $129 $130 $29 $-1 $131 reversed single #
loop $-1 $-1 $132 $51 #
plane-surface $-1 -79.725333414716019 22.479629096029718 0.86026362891512065 -0.61566148304635926 0 0.78801074757464917 0.78801074757464917 0 0.61566148304635926 forward_v I I I I #
coedge $-1 $133 $134 $135 $136 reversed $52 $-1 #
face $-1 $-1 $137 $30 $-1 $138 forward single #
loop $-1 $139 $140 $54 #
cone-surface $-1 -64.742958704326099 17.680274279559306 8.190255941604601 0.61566148304635926 0 -0.78801074757464917 0.59100806068098688 0 0.46174611228476947 1 I I -0.70710678118654757 0.70710678118654757 0.75 forward I I I I #
loop $-1 $-1 $141 $39 #
coedge $-1 $88 $88 $142 $143 reversed $55 $-1 #
face $-1 $-1 $144 $31 $-1 $145 forward single #
loop $-1 $146 $147 $57 #
cone-surface $-1 -64.742958704326099 22.479629096029718 8.190255941604601 0.61566148304635926 0 -0.78801074757464917 0.59100806068098688 0 0.46174611228476947 1 I I -0.70710678118654757 0.70710678118654757 0.75 forward I I I I #
loop $-1 $-1 $148 $40 #
coedge $-1 $93 $93 $149 $150 reversed $58 $-1 #
face $-1 $-1 $151 $32 $-1 $152 forward single #
loop $-1 $153 $154 $60 #
cone-surface $-1 -64.742958704326099 27.278983912500131 8.190255941604601 0.61566148304635926 0 -0.78801074757464917 0.59100806068098688 0 0.46174611228476947 1 I I -0.70710678118654757 0.70710678118654757 0.75 forward I I I I #
loop $-1 $-1 $155 $41 #
coedge $-1 $98 $98 $156 $157 reversed $61 $-1 #
face $-1 $158 $159 $33 $-1 $160 reversed single #
loop $-1 $-1 $161 $63 #
plane-surface $-1 -34.973876169649103 46.938518148704709 113.10782309370327 0.69465837861970381 0 0.71933979245794832 0.71933979245794832 0 -0.69465837861970381 forward_v I I I I #
coedge $-1 $162 $163 $164 $165 reversed $64 $-1 #
face $-1 $-1 $166 $34 $-1 $167 forward single #
loop $-1 $168 $169 $66 #
cone-surface $-1 69.192707975324709 44.623666646033506 10.720425411154444 -0.69465837861970381 0 -0.71933979245794832 0.17983494811448708 0 -0.17366459465492595 1 I I -0.70710678118654746 0.70710678118654746 0.25 forward I I I I #
loop $-1 $-1 $170 $43 #
coedge $-1 $107 $107 $171 $172 reversed $67 $-1 #
face $-1 $-1 $173 $35 $-1 $174 forward single #
loop $-1 $175 $176 $69 #
cone-surface $-1 69.192707975324709 49.253369651375927 10.720425411154444 -0.69465837861970381 0 -0.71933979245794832 0.17983494811448708 0 -0.17366459465492595 1 I I -0.70710678118654746 0.70710678118654746 0.25 forward I I I I #
loop $-1 $-1 $177 $44 #
coedge $-1 $112 $112 $178 $179 reversed $70 $-1 #
face $-1 $180 $181 $27 $-1 $182 reversed single #
loop $-1 $-1 $183 $72 #
plane-surface $-1 0 0 -20.954304667937272 0 0 1 1 0 0 forward_v I I I I #
coedge $-1 $184 $185 $186 $187 forward $73 $-1 #
coedge $-1 $188 $75 $189 $190 reversed $46 $-1 #
coedge $-1 $75 $188 $191 $192 forward $46 $-1 #
coedge $-1 $193 $183 $75 $120 forward $114 $-1 #
edge $-1 $194 -79.725333414716033 $195 79.725333414716033 $75 $196 forward 7 unknown #
face $-1 $197 $198 $28 $-1 $199 reversed single #
loop $-1 $-1 $200 $76 #
plane-surface $-1 -65.183241858740885 -70.931007483528674 0 0 1 0 0 0 1 forward_v I I I I #
coedge $-1 $201 $202 $126 $203 forward $77 $-1 #
coedge $-1 $204 $79 $205 $206 reversed $49 $-1 #
coedge $-1 $79 $204 $124 $203 reversed $49 $-1 #
coedge $-1 $207 $208 $79 $128 reversed $198 $-1 #
edge $-1 $209 -20.954304667937272 $210 20.954304667937272 $127 $211 forward 7 unknown #
face $-1 $212 $213 $29 $-1 $214 reversed single #
loop $-1 $-1 $215 $80 #
plane-surface $-1 -177.89296742765509 30.478553790147068 126.5091027984522 0 -1 0 0.61566148304635926 0 -0.78801074757464917 forward_v I I I I #
coedge $-1 $216 $217 $218 $219 reversed $81 $-1 #
coedge $-1 $134 $83 $220 $221 reversed $52 $-1 #
coedge $-1 $83 $133 $216 $222 reversed $52 $-1 #
coedge $-1 $218 $223 $83 $136 forward $224 $-1 #
edge $-1 $225 9.221150299111514 $226 34.940349464545108 $135 $227 forward 7 unknown #
loop $-1 $-1 $142 $84 #
plane-surface $-1 -79.725333414716019 22.479629096029718 0.86026362891512065 -0.61566148304635926 0 0.78801074757464917 0.78801074757464917 0 0.61566148304635926 forward_v I I I I #
loop $-1 $-1 $228 $54 #
coedge $-1 $140 $140 $141 $229 reversed $85 $-1 #
coedge $-1 $141 $141 $140 $229 forward $87 $-1 #
coedge $-1 $142 $142 $88 $143 forward $137 $-1 #
edge $-1 $230 0 $230 6.2831853071796004 $142 $231 forward 7 unknown #
loop $-1 $-1 $149 $89 #
plane-surface $-1 -79.725333414716019 22.479629096029718 0.86026362891512065 -0.61566148304635926 0 0.78801074757464917 0.78801074757464917 0 0.61566148304635926 forward_v I I I I #
loop $-1 $-1 $232 $57 #
coedge $-1 $147 $147 $148 $233 reversed $90 $-1 #
coedge $-1 $148 $148 $147 $233 forward $92 $-1 #
coedge $-1 $149 $149 $93 $150 forward $144 $-1 #
edge $-1 $234 0 $234 6.2831853071796004 $149 $235 forward 7 unknown #
loop $-1 $-1 $156 $94 #
plane-surface $-1 -79.725333414716019 22.479629096029718 0.86026362891512065 -0.61566148304635926 0 0.78801074757464917 0.78801074757464917 0 0.61566148304635926 forward_v I I I I #
loop $-1 $-1 $236 $60 #
coedge $-1 $154 $154 $155 $237 reversed $95 $-1 #
coedge $-1 $155 $155 $154 $237 forward $97 $-1 #
coedge $-1 $156 $156 $98 $157 forward $151 $-1 #
edge $-1 $238 0 $238 6.2831853071796004 $156 $239 forward 7 unknown #
face $-1 $240 $241 $33 $-1 $242 forward single #
loop $-1 $-1 $243 $99 #
plane-surface $-1 0 52.339838321604212 0 0 -1 0 0 0 -1 forward_v I I I I #
coedge $-1 $244 $245 $246 $247 reversed $100 $-1 #
coedge $-1 $163 $102 $248 $249 reversed $64 $-1 #
coedge $-1 $102 $162 $244 $250 reversed $64 $-1 #
coedge $-1 $246 $251 $102 $165 forward $252 $-1 #
edge $-1 $253 92.949211671096919 $254 111.5594349348948 $164 $255 forward 7 unknown #
loop $-1 $-1 $171 $103 #
plane-surface $-1 -34.973876169649103 46.938518148704709 113.10782309370327 0.69465837861970381 0 0.71933979245794832 0.71933979245794832 0 -0.69465837861970381 forward_v I I I I #
loop $-1 $-1 $256 $66 #
coedge $-1 $169 $169 $170 $257 reversed $104 $-1 #
coedge $-1 $170 $170 $169 $257 forward $106 $-1 #
coedge $-1 $171 $171 $107 $172 forward $166 $-1 #
edge $-1 $258 0 $258 6.2831853071796004 $171 $259 forward 7 unknown #
loop $-1 $-1 $178 $108 #
plane-surface $-1 -34.973876169649103 46.938518148704709 113.10782309370327 0.69465837861970381 0 0.71933979245794832 0.71933979245794832 0 -0.69465837861970381 forward_v I I I I #
loop $-1 $-1 $260 $69 #
coedge $-1 $176 $176 $177 $261 reversed $109 $-1 #
coedge $-1 $177 $177 $176 $261 forward $111 $-1 #
coedge $-1 $178 $178 $112 $179 forward $173 $-1 #
edge $-1 $262 0 $262 6.2831853071796004 $178 $263 forward 7 unknown #
face $-1 $264 $265 $27 $-1 $266 reversed single #
loop $-1 $-1 $267 $113 #
plane-surface $-1 -79.725333414716033 0 0 1 0 0 0 0 -1 forward_v I I I I #
coedge $-1 $119 $268 $269 $270 forward $114 $-1 #
coedge $-1 $271 $116 $272 $273 forward $73 $-1 #
coedge $-1 $116 $271 $188 $274 forward $73 $-1 #
coedge $-1 $189 $275 $116 $187 reversed $276 $-1 #
edge $-1 $277 -52.339838321604212 $278 52.339838321604212 $186 $279 forward 7 unknown #
coedge $-1 $118 $117 $185 $274 reversed $46 $-1 #
coedge $-1 $269 $186 $117 $190 forward $276 $-1 #
edge $-1 $277 -20.954304667937272 $194 20.954304667937272 $189 $280 forward 7 unknown #
coedge $-1 $281 $282 $118 $192 reversed $181 $-1 #
edge $-1 $283 -20.954304667937272 $195 20.954304667937272 $191 $284 forward 7 unknown #
coedge $-1 $268 $119 $282 $285 forward $114 $-1 #
vertex $-1 $190 $286 #
vertex $-1 $285 $287 #
straight-curve $-1 0 -52.339838321604212 -20.954304667937272 -1 0 0 I I #
face $-1 $288 $289 $28 $-1 $290 reversed single #
loop $-1 $-1 $127 $121 #
plane-surface $-1 -68.091597283384942 -61.63542290256644 0 1 0 0 0 0 -1 forward_v I I I I #
coedge $-1 $291 $292 $293 $294 forward $122 $-1 #
coedge $-1 $295 $124 $296 $297 forward $77 $-1 #
coedge $-1 $124 $295 $207 $298 forward $77 $-1 #
edge $-1 $209 -68.091597283384942 $299 -62.274886434096828 $124 $300 forward 7 unknown #
coedge $-1 $126 $125 $301 $302 forward $49 $-1 #
coedge $-1 $303 $304 $125 $206 forward $305 $-1 #
edge $-1 $306 62.274886434096828 $210 68.091597283384942 $205 $307 forward 7 unknown #
coedge $-1 $293 $127 $202 $298 reversed $198 $-1 #
coedge $-1 $127 $293 $303 $308 reversed $198 $-1 #
vertex $-1 $203 $309 #
vertex $-1 $308 $310 #
straight-curve $-1 -68.091597283384942 -52.339838321604212 0 0 0 1 I I #
face $-1 $-1 $224 $29 $-1 $311 forward single #
loop $-1 $-1 $312 $129 #
plane-surface $-1 -79.725333414716033 0 0 1 0 0 0 0 -1 forward_v I I I I #
coedge $-1 $313 $314 $315 $316 reversed $130 $-1 #
coedge $-1 $317 $132 $134 $222 forward $81 $-1 #
coedge $-1 $132 $317 $313 $318 forward $81 $-1 #
coedge $-1 $315 $135 $132 $219 forward $224 $-1 #
edge $-1 $226 3.2408898538975102 $319 19.238739242132208 $218 $320 forward 7 unknown #
coedge $-1 $321 $322 $133 $221 forward $213 $-1 #
edge $-1 $323 -62.394287770310996 $225 -42.30024673128883 $220 $324 forward 7 unknown #
edge $-1 $226 -32.638132467853389 $323 1.8033521786330445e-014 $134 $325 forward 7 unknown #
coedge $-1 $135 $315 $321 $326 forward $224 $-1 #
loop $-1 $-1 $315 $212 #
vertex $-1 $221 $327 #
vertex $-1 $136 $328 #
straight-curve $-1 -88.946483713827547 14.480704401912369 20.954304667937272 1 0 0 I I #
coedge $-1 $228 $228 $-1 $329 reversed $139 $-1 #
edge $-1 $330 0 $330 6.2831853071796004 $140 $331 forward 7 unknown #
vertex $-1 $143 $332 #
ellipse-curve $-1 -66.865733831999222 17.680274279559306 10.907284148426196 -0.61566148304635926 0 0.78801074757464917 1.1820161213619738 0 0.92349222456953894 1 I I #
coedge $-1 $232 $232 $-1 $333 reversed $146 $-1 #
edge $-1 $334 0 $334 6.2831853071796004 $147 $335 forward 7 unknown #
vertex $-1 $150 $336 #
ellipse-curve $-1 -66.865733831999222 22.479629096029718 10.907284148426196 -0.61566148304635926 0 0.78801074757464917 1.1820161213619738 0 0.92349222456953894 1 I I #
coedge $-1 $236 $236 $-1 $337 reversed $153 $-1 #
edge $-1 $338 0 $338 6.2831853071796004 $154 $339 forward 7 unknown #
vertex $-1 $157 $340 #
ellipse-curve $-1 -66.865733831999222 27.278983912500131 10.907284148426196 -0.61566148304635926 0 0.78801074757464917 1.1820161213619738 0 0.92349222456953894 1 I I #
face $-1 $-1 $252 $33 $-1 $341 reversed single #
loop $-1 $-1 $342 $158 #
plane-surface $-1 0 0 20.954304667937272 0 0 1 1 0 0 forward_v I I I I #
coedge $-1 $343 $344 $245 $345 forward $159 $-1 #
coedge $-1 $346 $161 $163 $250 forward $100 $-1 #
coedge $-1 $161 $346 $243 $345 reversed $100 $-1 #
coedge $-1 $347 $164 $161 $247 forward $252 $-1 #
edge $-1 $254 18.067938901452866 $348 28.870579247251857 $246 $349 forward 7 unknown #
coedge $-1 $350 $342 $162 $249 forward $241 $-1 #
edge $-1 $351 22.558950756210308 $253 41.830400654758648 $248 $352 forward 7 unknown #
edge $-1 $254 -159.45066682943207 $351 -132.66019854086602 $163 $353 forward 7 unknown #
coedge $-1 $164 $347 $350 $354 reversed $252 $-1 #
loop $-1 $-1 $246 $240 #
vertex $-1 $354 $355 #
vertex $-1 $165 $356 #
straight-curve $-1 79.725333414716033 41.537197975805221 113.9035163390342 0 0 -1 I I #
coedge $-1 $256 $256 $-1 $357 reversed $168 $-1 #
edge $-1 $358 0 $358 6.2831853071796004 $169 $359 forward 7 unknown #
vertex $-1 $172 $360 #
ellipse-curve $-1 70.08960846544187 44.623666646033506 11.64919303603833 0.69465837861970381 0 0.71933979245794832 0.35966989622897416 0 -0.3473291893098519 1 I I #
coedge $-1 $260 $260 $-1 $361 reversed $175 $-1 #
edge $-1 $362 0 $362 6.2831853071796004 $176 $363 forward 7 unknown #
vertex $-1 $179 $364 #
ellipse-curve $-1 70.08960846544187 49.253369651375927 11.64919303603833 0.69465837861970381 0 0.71933979245794832 0.35966989622897416 0 -0.3473291893098519 1 I I #
face $-1 $-1 $276 $27 $-1 $365 reversed single #
loop $-1 $-1 $366 $180 #
plane-surface $-1 0 52.339838321604212 0 0 -1 0 0 0 -1 forward_v I I I I #
coedge $-1 $282 $281 $367 $368 forward $181 $-1 #
coedge $-1 $183 $193 $369 $370 forward $114 $-1 #
coedge $-1 $275 $189 $183 $270 reversed $276 $-1 #
edge $-1 $371 -52.339838321604212 $194 52.339838321604212 $269 $372 forward 7 unknown #
coedge $-1 $185 $184 $281 $373 forward $73 $-1 #
coedge $-1 $366 $367 $184 $273 reversed $265 $-1 #
edge $-1 $278 -79.725333414716033 $374 79.725333414716033 $272 $375 forward 7 unknown #
edge $-1 $283 -79.725333414716033 $277 79.725333414716033 $188 $376 forward 7 unknown #
coedge $-1 $186 $269 $366 $377 reversed $276 $-1 #
loop $-1 $-1 $189 $264 #
vertex $-1 $187 $378 #
vertex $-1 $187 $379 #
straight-curve $-1 79.725333414716033 0 20.954304667937272 0 1 0 I I #
straight-curve $-1 79.725333414716033 -52.339838321604212 0 0 0 -1 I I #
coedge $-1 $267 $191 $271 $373 reversed $181 $-1 #
coedge $-1 $191 $267 $193 $285 reversed $181 $-1 #
vertex $-1 $373 $380 #
straight-curve $-1 -79.725333414716033 -52.339838321604212 0 0 0 -1 I I #
edge $-1 $195 -52.339838321604212 $381 52.339838321604212 $282 $382 forward 7 unknown #
point $-1 79.725333414716033 -52.339838321604212 -20.954304667937272 #
point $-1 -79.725333414716033 -52.339838321604212 -20.954304667937272 #
face $-1 $-1 $305 $28 $-1 $383 forward single #
loop $-1 $-1 $384 $197 #
plane-surface $-1 -62.274886434096828 -61.63542290256644 0 -1 0 0 0 0 1 forward_v I I I I #
coedge $-1 $385 $200 $295 $386 reversed $122 $-1 #
coedge $-1 $200 $385 $387 $388 reversed $122 $-1 #
coedge $-1 $208 $207 $200 $294 reversed $198 $-1 #
edge $-1 $389 -20.954304667937272 $390 20.954304667937272 $293 $391 forward 7 unknown #
coedge $-1 $202 $201 $291 $386 forward $77 $-1 #
coedge $-1 $301 $384 $201 $297 reversed $289 $-1 #
edge $-1 $299 -9.2955845809622275 $392 9.2955845809622346 $296 $393 forward 7 unknown #
edge $-1 $390 -9.2955845809622346 $209 9.2955845809622275 $207 $394 forward 7 unknown #
vertex $-1 $297 $395 #
straight-curve $-1 0 -52.339838321604212 -20.954304667937272 1 0 0 I I #
coedge $-1 $396 $296 $204 $302 reversed $289 $-1 #
edge $-1 $306 -20.954304667937272 $299 20.954304667937272 $301 $397 forward 7 unknown #
coedge $-1 $387 $205 $208 $308 forward $305 $-1 #
coedge $-1 $205 $387 $396 $398 forward $305 $-1 #
loop $-1 $-1 $205 $288 #
vertex $-1 $206 $399 #
straight-curve $-1 0 -52.339838321604212 20.954304667937272 -1 0 0 I I #
edge $-1 $210 -9.2955845809622275 $389 9.2955845809622346 $208 $400 forward 7 unknown #
point $-1 -68.091597283384942 -52.339838321604212 -20.954304667937272 #
point $-1 -68.091597283384942 -52.339838321604212 20.954304667937272 #
plane-surface $-1 0 0 20.954304667937272 0 0 1 1 0 0 forward_v I I I I #
coedge $-1 $322 $321 $314 $401 forward $213 $-1 #
coedge $-1 $314 $215 $217 $318 reversed $130 $-1 #
coedge $-1 $215 $313 $312 $401 reversed $130 $-1 #
coedge $-1 $223 $218 $215 $316 forward $224 $-1 #
edge $-1 $319 -34.940349464545108 $402 -9.221150299111514 $315 $403 forward 7 unknown #
coedge $-1 $217 $216 $322 $404 reversed $81 $-1 #
edge $-1 $405 -1.8033521786330445e-014 $319 32.638132467853389 $313 $406 forward 7 unknown #
vertex $-1 $219 $407 #
straight-curve $-1 -54.006134249282432 11.239814548014859 20.954304667937272 0 1 0 I I #
coedge $-1 $312 $220 $223 $326 reversed $213 $-1 #
coedge $-1 $220 $312 $317 $404 forward $213 $-1 #
vertex $-1 $221 $408 #
straight-curve $-1 -79.725333414716033 14.480704401912369 63.254551399226102 0 0 1 I I #
straight-curve $-1 -79.725333414716019 14.480704401912369 0.86026362891512065 -0.78801074757464917 0 -0.61566148304635926 I I #
edge $-1 $402 -30.478553790147068 $225 -14.480704401912369 $321 $409 forward 7 unknown #
point $-1 -79.725333414716033 14.480704401912369 20.954304667937272 #
point $-1 -54.006134249282439 14.480704401912369 20.954304667937272 #
edge $-1 $410 1 $410 0 $228 $-1 forward 7 unknown #
vertex $-1 $229 $411 #
ellipse-curve $-1 -65.204704816610871 17.680274279559306 8.7812640022855888 -0.61566148304635926 0 0.78801074757464917 1.1820161213619738 0 0.92349222456953894 1 I I #
point $-1 -65.683717710637254 17.680274279559306 11.830776372995736 #
edge $-1 $412 1 $412 0 $232 $-1 forward 7 unknown #
vertex $-1 $233 $413 #
ellipse-curve $-1 -65.204704816610871 22.479629096029718 8.7812640022855888 -0.61566148304635926 0 0.78801074757464917 1.1820161213619738 0 0.92349222456953894 1 I I #
point $-1 -65.683717710637254 22.479629096029718 11.830776372995736 #
edge $-1 $414 1 $414 0 $236 $-1 forward 7 unknown #
vertex $-1 $237 $415 #
ellipse-curve $-1 -65.204704816610871 27.278983912500131 8.7812640022855888 -0.61566148304635926 0 0.78801074757464917 1.1820161213619738 0 0.92349222456953894 1 I I #
point $-1 -65.683717710637254 27.278983912500131 11.830776372995736 #
plane-surface $-1 79.725333414716033 0 0 -1 0 0 0 0 1 forward_v I I I I #
coedge $-1 $248 $416 $346 $417 forward $241 $-1 #
coedge $-1 $344 $243 $416 $418 reversed $159 $-1 #
coedge $-1 $243 $343 $347 $419 forward $159 $-1 #
edge $-1 $348 -107.58596791703128 $420 -80.795499628465251 $243 $421 forward 7 unknown #
coedge $-1 $245 $244 $342 $417 reversed $100 $-1 #
coedge $-1 $251 $246 $344 $419 reversed $252 $-1 #
vertex $-1 $247 $422 #
straight-curve $-1 79.725333414716033 23.469259074352355 2.344081404139402 0 1 0 I I #
coedge $-1 $416 $248 $251 $354 forward $241 $-1 #
vertex $-1 $249 $423 #
straight-curve $-1 37.894932759957385 41.537197975805221 20.954304667937279 1 0 0 I I #
straight-curve $-1 -34.973876169649103 41.537197975805221 113.10782309370327 -0.71933979245794832 0 0.69465837861970381 I I #
edge $-1 $253 41.537197975805221 $424 52.339838321604212 $251 $425 forward 7 unknown #
point $-1 79.725333414716033 41.537197975805221 20.954304667937272 #
point $-1 79.725333414716019 41.537197975805221 2.344081404139402 #
edge $-1 $426 1 $426 0 $256 $-1 forward 7 unknown #
vertex $-1 $257 $427 #
ellipse-curve $-1 69.366372569979632 44.623666646033506 10.900260359268932 0.69465837861970381 0 0.71933979245794832 0.35966989622897416 0 -0.3473291893098519 1 I I #
point $-1 70.449278361670849 44.623666646033506 11.301863846728478 #
edge $-1 $428 1 $428 0 $260 $-1 forward 7 unknown #
vertex $-1 $261 $429 #
ellipse-curve $-1 69.366372569979632 49.253369651375927 10.900260359268932 0.69465837861970381 0 0.71933979245794832 0.35966989622897416 0 -0.3473291893098519 1 I I #
point $-1 70.449278361670849 49.253369651375927 11.301863846728478 #
plane-surface $-1 79.725333414716033 0 0 -1 0 0 0 0 1 forward_v I I I I #
coedge $-1 $369 $272 $275 $377 forward $265 $-1 #
coedge $-1 $272 $369 $267 $368 reversed $265 $-1 #
edge $-1 $374 -20.954304667937272 $381 20.954304667937272 $367 $430 forward 7 unknown #
coedge $-1 $367 $366 $268 $370 reversed $265 $-1 #
edge $-1 $381 -79.725333414716033 $371 79.725333414716033 $369 $431 forward 7 unknown #
vertex $-1 $270 $432 #
straight-curve $-1 79.725333414716033 0 -20.954304667937272 0 -1 0 I I #
edge $-1 $374 -52.339838321604212 $283 52.339838321604212 $281 $433 forward 7 unknown #
vertex $-1 $273 $434 #
straight-curve $-1 0 52.339838321604212 20.954304667937272 -1 0 0 I I #
straight-curve $-1 0 -52.339838321604212 20.954304667937272 1 0 0 I I #
edge $-1 $278 -20.954304667937272 $371 20.954304667937272 $275 $435 forward 7 unknown #
point $-1 79.725333414716033 -52.339838321604212 20.954304667937272 #
point $-1 79.725333414716033 52.339838321604212 20.954304667937272 #
point $-1 -79.725333414716033 -52.339838321604212 20.954304667937272 #
vertex $-1 $370 $436 #
straight-curve $-1 -79.725333414716033 0 -20.954304667937272 0 1 0 I I #
plane-surface $-1 0 0 20.954304667937272 0 0 1 1 0 0 forward_v I I I I #
coedge $-1 $296 $396 $385 $437 forward $289 $-1 #
coedge $-1 $292 $291 $384 $437 reversed $122 $-1 #
edge $-1 $392 -2.9083554246440571 $390 2.9083554246440571 $291 $438 forward 7 unknown #
coedge $-1 $304 $303 $292 $388 forward $305 $-1 #
edge $-1 $389 -2.9083554246440571 $439 2.9083554246440571 $292 $440 forward 7 unknown #
vertex $-1 $308 $441 #
vertex $-1 $298 $442 #
straight-curve $-1 -68.091597283384942 -70.931007483528674 0 0 0 -1 I I #
vertex $-1 $437 $443 #
straight-curve $-1 -62.274886434096828 -61.63542290256644 -20.954304667937272 0 -1 0 I I #
straight-curve $-1 -68.091597283384942 -61.63542290256644 -20.954304667937272 0 1 0 I I #
point $-1 -62.274886434096828 -52.339838321604212 -20.954304667937272 #
coedge $-1 $384 $301 $304 $398 reversed $289 $-1 #
straight-curve $-1 -62.274886434096828 -52.339838321604212 0 0 0 -1 I I #
edge $-1 $439 -9.2955845809622346 $306 9.2955845809622275 $396 $444 forward 7 unknown #
point $-1 -62.274886434096828 -52.339838321604212 20.954304667937272 #
straight-curve $-1 -68.091597283384942 -61.63542290256644 20.954304667937272 0 -1 0 I I #
edge $-1 $402 42.30024673128883 $405 62.394287770310996 $312 $445 forward 7 unknown #
vertex $-1 $326 $446 #
straight-curve $-1 -88.946483713827547 30.478553790147068 20.954304667937272 -1 0 0 I I #
edge $-1 $405 -19.238739242132208 $323 -3.2408898538975102 $322 $447 forward 7 unknown #
vertex $-1 $404 $448 #
straight-curve $-1 -79.725333414716019 30.478553790147068 0.86026362891512065 0.78801074757464917 0 0.61566148304635926 I I #
point $-1 -54.006134249282439 30.478553790147068 20.954304667937272 #
point $-1 -79.725333414716033 14.480704401912369 0.86026362891510955 #
straight-curve $-1 -79.725333414716033 0 20.954304667937272 0 -1 0 I I #
vertex $-1 $329 $449 #
point $-1 -64.022688695248888 17.680274279559306 9.7047562268551264 #
vertex $-1 $333 $450 #
point $-1 -64.022688695248888 22.479629096029718 9.7047562268551264 #
vertex $-1 $337 $451 #
point $-1 -64.022688695248888 27.278983912500131 9.7047562268551264 #
coedge $-1 $342 $350 $343 $418 forward $241 $-1 #
edge $-1 $420 -28.870579247251843 $351 -18.067938901452866 $342 $452 forward 7 unknown #
edge $-1 $424 -79.725333414716033 $420 -60.453883516167693 $343 $453 forward 7 unknown #
edge $-1 $424 -20.954304667937272 $348 -2.3440814041393927 $347 $454 forward 7 unknown #
vertex $-1 $417 $455 #
straight-curve $-1 2.3344655818912585 52.339838321604212 77.079575439615823 -0.71933979245794832 0 0.69465837861970381 I I #
point $-1 79.725333414716033 52.339838321604212 2.3440814041393927 #
point $-1 60.453883516167693 41.537197975805221 20.954304667937265 #
vertex $-1 $354 $456 #
straight-curve $-1 79.725333414716033 0 20.954304667937272 0 1 0 I I #
vertex $-1 $357 $457 #
point $-1 69.726042466208611 44.623666646033506 10.552931169959079 #
vertex $-1 $361 $458 #
point $-1 69.726042466208611 49.253369651375927 10.552931169959079 #
straight-curve $-1 -79.725333414716033 52.339838321604212 0 0 0 -1 I I #
straight-curve $-1 0 52.339838321604212 -20.954304667937272 1 0 0 I I #
point $-1 79.725333414716033 52.339838321604212 -20.954304667937272 #
straight-curve $-1 -79.725333414716033 0 20.954304667937272 0 -1 0 I I #
point $-1 -79.725333414716033 52.339838321604212 20.954304667937272 #
straight-curve $-1 79.725333414716033 52.339838321604212 0 0 0 -1 I I #
point $-1 -79.725333414716033 52.339838321604212 -20.954304667937272 #
edge $-1 $439 -20.954304667937272 $392 20.954304667937272 $384 $459 forward 7 unknown #
straight-curve $-1 -65.183241858740885 -70.931007483528674 -20.954304667937272 -1 0 0 I I #
vertex $-1 $398 $460 #
straight-curve $-1 -65.183241858740885 -70.931007483528674 20.954304667937272 1 0 0 I I #
point $-1 -68.091597283384942 -70.931007483528674 20.954304667937272 #
point $-1 -68.091597283384942 -70.931007483528674 -20.954304667937272 #
point $-1 -62.274886434096828 -70.931007483528674 -20.954304667937272 #
straight-curve $-1 -62.274886434096828 -61.63542290256644 20.954304667937272 0 1 0 I I #
straight-curve $-1 -79.725333414716033 30.478553790147068 63.254551399226102 0 0 -1 I I #
point $-1 -79.725333414716033 30.478553790147068 20.954304667937272 #
straight-curve $-1 -79.725333414716033 11.239814548014859 0.86026362891511421 0 -1 0 I I #
point $-1 -79.725333414716033 30.478553790147068 0.86026362891510955 #
point $-1 -64.281212592041328 17.680274279559306 7.5992478809236141 #
point $-1 -64.281212592041328 22.479629096029718 7.5992478809236141 #
point $-1 -64.281212592041328 27.278983912500131 7.5992478809236141 #
straight-curve $-1 60.453883516167686 23.469259074352355 20.954304667937272 0 -1 0 I I #
straight-curve $-1 0 52.339838321604212 20.954304667937272 -1 0 0 I I #
straight-curve $-1 79.725333414716033 52.339838321604212 0 0 0 -1 I I #
point $-1 60.453883516167693 52.339838321604198 20.954304667937265 #
point $-1 79.725333414716033 52.339838321604212 20.954304667937272 #
point $-1 69.019043380669785 44.623666646033506 10.540590463039957 #
point $-1 69.019043380669785 49.253369651375927 10.540590463039957 #
straight-curve $-1 -62.274886434096828 -70.931007483528674 0 0 0 -1 I I #
point $-1 -62.274886434096828 -70.931007483528674 20.954304667937272 #
End-of-ACIS-data 