500 0 11 0           
7 Unknown 11 ACIS 5.0 NT 24 Fri Mar 26 03:29:58 1999 
-1 9.9999999999999995e-007 1e-010 
body $-1 $11 $-1 $12 #
body $-1 $13 $-1 $14 #
body $-1 $15 $-1 $16 #
body $-1 $17 $-1 $18 #
body $-1 $19 $-1 $20 #
body $-1 $21 $-1 $22 #
body $-1 $23 $-1 $24 #
body $-1 $25 $-1 $26 #
body $-1 $27 $-1 $28 #
body $-1 $29 $-1 $30 #
body $-1 $31 $-1 $32 #
lump $-1 $-1 $33 $0 #
transform $-1 1 0 0 0 1 0 0 0 1 60.149540696432382 27.24728118122761 11.955724803593133 1 rotate no_reflect no_shear #
lump $-1 $-1 $34 $1 #
transform $-1 1 0 0 0 1 0 0 0 1 60.149540696432382 27.24728118122761 11.955724803593133 1 rotate no_reflect no_shear #
lump $-1 $-1 $35 $2 #
transform $-1 1 0 0 0 1 0 0 0 1 60.149540696432382 27.24728118122761 11.955724803593133 1 rotate no_reflect no_shear #
lump $-1 $-1 $36 $3 #
transform $-1 1 0 0 0 1 0 0 0 1 60.149540696432382 27.24728118122761 11.955724803593133 1 rotate no_reflect no_shear #
lump $-1 $-1 $37 $4 #
transform $-1 1 0 0 0 1 0 0 0 1 60.149540696432382 27.24728118122761 11.955724803593133 1 rotate no_reflect no_shear #
lump $-1 $-1 $38 $5 #
transform $-1 1 0 0 0 1 0 0 0 1 60.149540696432382 27.24728118122761 11.955724803593133 1 rotate no_reflect no_shear #
lump $-1 $-1 $39 $6 #
transform $-1 1 0 0 0 1 0 0 0 1 60.149540696432382 27.24728118122761 11.955724803593133 1 rotate no_reflect no_shear #
lump $-1 $-1 $40 $7 #
transform $-1 1 0 0 0 1 0 0 0 1 60.149540696432382 27.24728118122761 11.955724803593133 1 rotate no_reflect no_shear #
lump $-1 $-1 $41 $8 #
transform $-1 1 0 0 0 1 0 0 0 1 60.149540696432382 27.24728118122761 11.955724803593133 1 rotate no_reflect no_shear #
lump $-1 $-1 $42 $9 #
transform $-1 1 0 0 0 1 0 0 0 1 60.149540696432382 27.24728118122761 11.955724803593133 1 rotate no_reflect no_shear #
lump $-1 $-1 $43 $10 #
transform $-1 1 0 0 0 1 0 0 0 1 60.149540696432382 27.24728118122761 11.955724803593133 1 rotate no_reflect no_shear #
shell $-1 $-1 $-1 $44 $-1 $11 #
shell $-1 $-1 $-1 $45 $-1 $13 #
shell $-1 $-1 $-1 $46 $-1 $15 #
shell $-1 $-1 $-1 $47 $-1 $17 #
shell $-1 $-1 $-1 $48 $-1 $19 #
shell $-1 $-1 $-1 $49 $-1 $21 #
shell $-1 $-1 $-1 $50 $-1 $23 #
shell $-1 $-1 $-1 $51 $-1 $25 #
shell $-1 $-1 $-1 $52 $-1 $27 #
shell $-1 $-1 $-1 $53 $-1 $29 #
shell $-1 $-1 $-1 $54 $-1 $31 #
face $-1 $55 $56 $33 $-1 $57 forward single #
face $-1 $58 $59 $34 $-1 $60 forward single #
face $-1 $61 $62 $35 $-1 $63 reversed single #
face $-1 $64 $65 $36 $-1 $66 forward single #
face $-1 $67 $68 $37 $-1 $69 forward single #
face $-1 $70 $71 $38 $-1 $72 reversed single #
face $-1 $73 $74 $39 $-1 $75 forward single #
face $-1 $76 $77 $40 $-1 $78 forward single #
face $-1 $79 $80 $41 $-1 $81 reversed single #
face $-1 $82 $83 $42 $-1 $84 forward single #
face $-1 $85 $86 $43 $-1 $87 forward single #
face $-1 $88 $89 $33 $-1 $90 reversed single #
loop $-1 $-1 $91 $44 #
plane-surface $-1 0 0 11.955724803593133 0 0 1 1 0 0 forward_v I I I I #
face $-1 $92 $93 $34 $-1 $94 reversed single #
loop $-1 $-1 $95 $45 #
plane-surface $-1 -60.149540696432382 0 0 1 0 0 0 0 -1 forward_v I I I I #
face $-1 $96 $97 $35 $-1 $98 reversed single #
loop $-1 $-1 $99 $46 #
plane-surface $-1 -22.651089320650073 -126.97974057106867 72.363896446793348 -1 0 0 0 -0.82903758062907751 0.55919289150049634 forward_v I I I I #
face $-1 $100 $101 $36 $-1 $102 forward single #
loop $-1 $103 $104 $47 #
cone-surface $-1 -33.69539082493057 -24.114614258964867 7.9726281552228864 0 0.82903758062907751 -0.55919289150049634 0.5 0 0 1 I I 0 1 0.5 forward I I I I #
face $-1 $105 $106 $37 $-1 $107 forward single #
loop $-1 $108 $109 $48 #
cone-surface $-1 -27.068809922362277 -24.114614258964867 7.9726281552228864 0 0.82903758062907751 -0.55919289150049634 0.5 0 0 1 I I 0 1 0.5 forward I I I I #
face $-1 $110 $111 $38 $-1 $112 reversed single #
loop $-1 $-1 $113 $49 #
plane-surface $-1 -19.370859539875369 98.458715872230115 112.16905125711385 1 0 0 0 -0.83867057594974714 -0.54463902268945019 forward_v I I I I #
face $-1 $114 $115 $39 $-1 $116 forward single #
loop $-1 $117 $118 $50 #
cone-surface $-1 -12.263188396841485 21.331176916490907 4.9306081917482727 0 -0.83867057594974714 -0.54463902268945019 3 0 0 1 I I 0 1 3 forward I I I I #
face $-1 $119 $120 $40 $-1 $121 forward single #
loop $-1 $122 $123 $51 #
cone-surface $-1 -1.6016816822906605 21.331176916490907 4.9306081917482727 0 -0.83867057594974714 -0.54463902268945019 3 0 0 1 I I 0 1 3 forward I I I I #
face $-1 $124 $125 $41 $-1 $126 reversed single #
loop $-1 $-1 $127 $52 #
plane-surface $-1 -6.932435039566073 -2.4325840057492911 46.649477136865357 0 0.83867057594974714 0.54463902268945019 1 0 0 forward_v I I I I #
face $-1 $128 $129 $42 $-1 $130 forward single #
loop $-1 $131 $132 $53 #
cone-surface $-1 12.613660603777106 21.331176916490907 4.9306081917482727 0 -0.83867057594974714 -0.54463902268945019 3 0 0 1 I I 0 1 3 forward I I I I #
face $-1 $133 $134 $43 $-1 $135 forward single #
loop $-1 $136 $137 $54 #
cone-surface $-1 23.275167318327931 21.331176916490907 4.9306081917482727 0 -0.83867057594974714 -0.54463902268945019 3 0 0 1 I I 0 1 3 forward I I I I #
face $-1 $138 $139 $33 $-1 $140 reversed single #
loop $-1 $-1 $141 $55 #
plane-surface $-1 0 0 -11.955724803593133 0 0 1 1 0 0 forward_v I I I I #
coedge $-1 $142 $143 $144 $145 forward $56 $-1 #
face $-1 $146 $147 $34 $-1 $148 reversed single #
loop $-1 $-1 $149 $58 #
plane-surface $-1 0 0 -11.955724803593133 0 0 1 1 0 0 forward_v I I I I #
coedge $-1 $150 $151 $152 $153 forward $59 $-1 #
face $-1 $154 $155 $35 $-1 $156 reversed single #
loop $-1 $-1 $157 $61 #
plane-surface $-1 -30.382100373646423 -27.247281181227606 5.0935052778637555 0 -0.82903758062907751 0.55919289150049634 1 0 0 forward_v I I I I #
coedge $-1 $158 $159 $160 $161 reversed $62 $-1 #
face $-1 $-1 $162 $36 $-1 $163 forward single #
loop $-1 $164 $165 $64 #
cone-surface $-1 -33.69539082493057 -23.089000626738219 7.2808430468422021 0 0.82903758062907751 -0.55919289150049634 0.25 0 0 1 I I -0.70710678118654746 0.70710678118654746 0.25 forward I I I I #
loop $-1 $-1 $166 $47 #
coedge $-1 $104 $104 $167 $168 reversed $65 $-1 #
face $-1 $-1 $169 $37 $-1 $170 forward single #
loop $-1 $171 $172 $67 #
cone-surface $-1 -27.068809922362277 -23.089000626738219 7.2808430468422021 0 0.82903758062907751 -0.55919289150049634 0.25 0 0 1 I I -0.70710678118654746 0.70710678118654746 0.25 forward I I I I #
loop $-1 $-1 $173 $48 #
coedge $-1 $109 $109 $174 $175 reversed $68 $-1 #
face $-1 $176 $177 $38 $-1 $178 reversed single #
loop $-1 $-1 $179 $70 #
plane-surface $-1 -6.932435039566073 -2.4325840057492911 46.649477136865357 0 0.83867057594974714 0.54463902268945019 1 0 0 forward_v I I I I #
coedge $-1 $180 $181 $182 $183 reversed $71 $-1 #
face $-1 $-1 $184 $39 $-1 $185 forward single #
loop $-1 $186 $187 $73 #
cone-surface $-1 -12.263188396841485 17.731806642902814 2.5931498805579896 0 -0.83867057594974714 -0.54463902268945019 1.5 0 0 1 I I -0.70710678118654757 0.70710678118654757 1.5 forward I I I I #
loop $-1 $-1 $188 $50 #
coedge $-1 $118 $118 $189 $190 reversed $74 $-1 #
face $-1 $-1 $191 $40 $-1 $192 forward single #
loop $-1 $193 $194 $76 #
cone-surface $-1 -1.6016816822906605 17.731806642902814 2.5931498805579896 0 -0.83867057594974714 -0.54463902268945019 1.5 0 0 1 I I -0.70710678118654757 0.70710678118654757 1.5 forward I I I I #
loop $-1 $-1 $195 $51 #
coedge $-1 $123 $123 $196 $197 reversed $77 $-1 #
face $-1 $198 $199 $41 $-1 $200 forward single #
loop $-1 $-1 $201 $79 #
plane-surface $-1 30.382838461361814 98.458715872230115 112.16905125711385 -1 0 0 0 0.83867057594974714 0.54463902268945019 forward_v I I I I #
coedge $-1 $202 $203 $204 $205 reversed $80 $-1 #
face $-1 $-1 $206 $42 $-1 $207 forward single #
loop $-1 $208 $209 $82 #
cone-surface $-1 12.613660603777106 17.731806642902814 2.5931498805579896 0 -0.83867057594974714 -0.54463902268945019 1.5 0 0 1 I I -0.70710678118654757 0.70710678118654757 1.5 forward I I I I #
loop $-1 $-1 $210 $53 #
coedge $-1 $132 $132 $211 $212 reversed $83 $-1 #
face $-1 $-1 $213 $43 $-1 $214 forward single #
loop $-1 $215 $216 $85 #
cone-surface $-1 23.275167318327931 17.731806642902814 2.5931498805579896 0 -0.83867057594974714 -0.54463902268945019 1.5 0 0 1 I I -0.70710678118654757 0.70710678118654757 1.5 forward I I I I #
loop $-1 $-1 $217 $54 #
coedge $-1 $137 $137 $218 $219 reversed $86 $-1 #
face $-1 $220 $221 $33 $-1 $222 reversed single #
loop $-1 $-1 $223 $88 #
plane-surface $-1 0 -27.24728118122761 0 0 1 0 0 0 1 forward_v I I I I #
coedge $-1 $224 $225 $226 $227 forward $89 $-1 #
coedge $-1 $228 $91 $229 $230 forward $56 $-1 #
coedge $-1 $91 $228 $231 $232 forward $56 $-1 #
coedge $-1 $233 $234 $91 $145 reversed $235 $-1 #
edge $-1 $236 -27.24728118122761 $237 27.24728118122761 $144 $238 forward 7 unknown #
face $-1 $239 $240 $34 $-1 $241 reversed single #
loop $-1 $-1 $242 $92 #
plane-surface $-1 -65.655530157175605 -19.074209281936682 0 0 1 0 0 0 1 forward_v I I I I #
coedge $-1 $243 $244 $151 $245 forward $93 $-1 #
coedge $-1 $246 $95 $247 $248 reversed $59 $-1 #
coedge $-1 $95 $246 $149 $245 reversed $59 $-1 #
coedge $-1 $249 $250 $95 $153 reversed $251 $-1 #
edge $-1 $252 -11.955724803593133 $253 11.955724803593133 $152 $254 forward 7 unknown #
face $-1 $255 $256 $35 $-1 $257 forward single #
loop $-1 $-1 $258 $96 #
plane-surface $-1 -38.113111426642774 -126.97974057106867 72.363896446793348 1 0 0 0 0.82903758062907751 -0.55919289150049634 forward_v I I I I #
coedge $-1 $259 $260 $261 $262 reversed $97 $-1 #
coedge $-1 $159 $99 $263 $264 reversed $62 $-1 #
coedge $-1 $99 $158 $259 $265 reversed $62 $-1 #
coedge $-1 $261 $266 $99 $161 forward $256 $-1 #
edge $-1 $267 36.242589104306731 $268 40.871214474693453 $160 $269 forward 7 unknown #
loop $-1 $-1 $167 $100 #
plane-surface $-1 -30.382100373646423 -27.247281181227606 5.0935052778637555 0 -0.82903758062907751 0.55919289150049634 1 0 0 forward_v I I I I #
loop $-1 $-1 $270 $64 #
coedge $-1 $165 $165 $166 $271 reversed $101 $-1 #
coedge $-1 $166 $166 $165 $271 forward $103 $-1 #
coedge $-1 $167 $167 $104 $168 forward $162 $-1 #
edge $-1 $272 -3.9733044694436354e-015 $272 6.2831853071795969 $167 $273 forward 7 unknown #
loop $-1 $-1 $174 $105 #
plane-surface $-1 -30.382100373646423 -27.247281181227606 5.0935052778637555 0 -0.82903758062907751 0.55919289150049634 1 0 0 forward_v I I I I #
loop $-1 $-1 $274 $67 #
coedge $-1 $172 $172 $173 $275 reversed $106 $-1 #
coedge $-1 $173 $173 $172 $275 forward $108 $-1 #
coedge $-1 $174 $174 $109 $175 forward $169 $-1 #
edge $-1 $276 -3.9733044694436354e-015 $276 6.2831853071795969 $174 $277 forward 7 unknown #
face $-1 $278 $279 $38 $-1 $280 reversed single #
loop $-1 $-1 $281 $110 #
plane-surface $-1 5.5059894607432227 98.458715872230115 112.16905125711385 -1 0 0 0 0.83867057594974714 0.54463902268945019 forward_v I I I I #
coedge $-1 $282 $283 $284 $285 reversed $111 $-1 #
coedge $-1 $181 $113 $286 $287 reversed $71 $-1 #
coedge $-1 $113 $180 $282 $288 reversed $71 $-1 #
coedge $-1 $284 $289 $113 $183 forward $290 $-1 #
edge $-1 $291 21.982076754887448 $292 29.131556465033896 $182 $293 forward 7 unknown #
loop $-1 $-1 $189 $114 #
plane-surface $-1 -6.932435039566073 -2.4325840057492911 46.649477136865357 0 0.83867057594974714 0.54463902268945019 1 0 0 forward_v I I I I #
loop $-1 $-1 $294 $73 #
coedge $-1 $187 $187 $188 $295 reversed $115 $-1 #
coedge $-1 $188 $188 $187 $295 forward $117 $-1 #
coedge $-1 $189 $189 $118 $190 forward $184 $-1 #
edge $-1 $296 1.9981387631384989e-016 $296 6.2831853071796004 $189 $297 forward 7 unknown #
loop $-1 $-1 $196 $119 #
plane-surface $-1 -6.932435039566073 -2.4325840057492911 46.649477136865357 0 0.83867057594974714 0.54463902268945019 1 0 0 forward_v I I I I #
loop $-1 $-1 $298 $76 #
coedge $-1 $194 $194 $195 $299 reversed $120 $-1 #
coedge $-1 $195 $195 $194 $299 forward $122 $-1 #
coedge $-1 $196 $196 $123 $197 forward $191 $-1 #
edge $-1 $300 1.9981387631384989e-016 $300 6.2831853071796004 $196 $301 forward 7 unknown #
face $-1 $302 $303 $41 $-1 $304 forward single #
loop $-1 $-1 $305 $124 #
plane-surface $-1 0 0 11.955724803593133 0 0 1 1 0 0 forward_v I I I I #
coedge $-1 $306 $307 $308 $309 reversed $125 $-1 #
coedge $-1 $310 $127 $311 $312 reversed $80 $-1 #
coedge $-1 $127 $310 $305 $313 reversed $80 $-1 #
coedge $-1 $314 $315 $127 $205 forward $303 $-1 #
edge $-1 $316 -54.494562362455206 $317 -41.367556378120824 $204 $318 forward 7 unknown #
loop $-1 $-1 $211 $128 #
plane-surface $-1 -6.932435039566073 -2.4325840057492911 46.649477136865357 0 0.83867057594974714 0.54463902268945019 1 0 0 forward_v I I I I #
loop $-1 $-1 $319 $82 #
coedge $-1 $209 $209 $210 $320 reversed $129 $-1 #
coedge $-1 $210 $210 $209 $320 forward $131 $-1 #
coedge $-1 $211 $211 $132 $212 forward $206 $-1 #
edge $-1 $321 1.9981387631384989e-016 $321 6.2831853071796004 $211 $322 forward 7 unknown #
loop $-1 $-1 $218 $133 #
plane-surface $-1 -6.932435039566073 -2.4325840057492911 46.649477136865357 0 0.83867057594974714 0.54463902268945019 1 0 0 forward_v I I I I #
loop $-1 $-1 $323 $85 #
coedge $-1 $216 $216 $217 $324 reversed $134 $-1 #
coedge $-1 $217 $217 $216 $324 forward $136 $-1 #
coedge $-1 $218 $218 $137 $219 forward $213 $-1 #
edge $-1 $325 1.9981387631384989e-016 $325 6.2831853071796004 $218 $326 forward 7 unknown #
face $-1 $327 $328 $33 $-1 $329 reversed single #
loop $-1 $-1 $330 $138 #
plane-surface $-1 -60.149540696432382 0 0 1 0 0 0 0 -1 forward_v I I I I #
coedge $-1 $331 $231 $332 $333 forward $139 $-1 #
coedge $-1 $334 $141 $331 $335 forward $89 $-1 #
coedge $-1 $141 $334 $336 $337 forward $89 $-1 #
coedge $-1 $234 $233 $141 $227 reversed $235 $-1 #
edge $-1 $338 -27.24728118122761 $339 27.24728118122761 $226 $340 forward 7 unknown #
coedge $-1 $143 $142 $341 $342 forward $56 $-1 #
coedge $-1 $343 $344 $142 $230 reversed $328 $-1 #
edge $-1 $237 -60.149540696432382 $345 60.149540696432382 $229 $346 forward 7 unknown #
coedge $-1 $223 $347 $143 $232 reversed $139 $-1 #
edge $-1 $348 -60.149540696432382 $236 60.149540696432382 $231 $349 forward 7 unknown #
coedge $-1 $226 $144 $347 $350 forward $235 $-1 #
coedge $-1 $144 $226 $343 $351 reversed $235 $-1 #
loop $-1 $-1 $233 $327 #
vertex $-1 $145 $352 #
vertex $-1 $145 $353 #
straight-curve $-1 60.149540696432382 0 11.955724803593133 0 1 0 I I #
face $-1 $354 $251 $34 $-1 $355 reversed single #
loop $-1 $-1 $356 $146 #
plane-surface $-1 -71.161519617918827 -17.380077202846032 0 1 0 0 0 0 -1 forward_v I I I I #
coedge $-1 $357 $358 $359 $360 forward $147 $-1 #
coedge $-1 $361 $149 $357 $362 forward $93 $-1 #
coedge $-1 $149 $361 $249 $363 forward $93 $-1 #
edge $-1 $252 15.685945123755383 $364 19.074209281936682 $149 $365 forward 7 unknown #
coedge $-1 $151 $150 $366 $367 forward $59 $-1 #
coedge $-1 $368 $369 $150 $248 forward $370 $-1 #
edge $-1 $371 -19.074209281936682 $253 -15.685945123755383 $247 $372 forward 7 unknown #
coedge $-1 $373 $152 $244 $363 reversed $251 $-1 #
coedge $-1 $152 $373 $368 $374 reversed $251 $-1 #
loop $-1 $-1 $152 $239 #
vertex $-1 $245 $375 #
vertex $-1 $374 $376 #
straight-curve $-1 -60.149540696432382 -15.685945123755383 0 0 0 1 I I #
face $-1 $-1 $377 $35 $-1 $378 reversed single #
loop $-1 $-1 $160 $154 #
plane-surface $-1 0 0 11.955724803593133 0 0 1 1 0 0 forward_v I I I I #
coedge $-1 $379 $380 $381 $382 reversed $155 $-1 #
coedge $-1 $383 $157 $159 $265 forward $97 $-1 #
coedge $-1 $157 $383 $379 $384 forward $97 $-1 #
coedge $-1 $381 $160 $157 $262 forward $256 $-1 #
edge $-1 $268 7.4600391338268608 $385 22.922061239819563 $261 $386 forward 7 unknown #
coedge $-1 $387 $388 $158 $264 forward $377 $-1 #
edge $-1 $389 -31.088442945532925 $267 -24.226223419803539 $263 $390 forward 7 unknown #
edge $-1 $268 -8.2773322778954057 $389 6.404651964132713e-015 $159 $391 forward 7 unknown #
coedge $-1 $160 $381 $387 $392 forward $256 $-1 #
vertex $-1 $161 $393 #
vertex $-1 $161 $394 #
straight-curve $-1 -22.651089320650073 -63.489870285534337 11.955724803593135 0 1 0 I I #
coedge $-1 $270 $270 $-1 $395 reversed $164 $-1 #
edge $-1 $396 0 $396 6.2831853071796004 $165 $397 forward 7 unknown #
vertex $-1 $168 $398 #
ellipse-curve $-1 -33.69539082493057 -24.932968496034245 8.5246150407284453 0 -0.82903758062907751 0.55919289150049634 0.5 0 0 1 I I #
coedge $-1 $274 $274 $-1 $399 reversed $171 $-1 #
edge $-1 $400 0 $400 6.2831853071796004 $172 $401 forward 7 unknown #
vertex $-1 $175 $402 #
ellipse-curve $-1 -27.068809922362277 -24.932968496034245 8.5246150407284453 0 -0.82903758062907751 0.55919289150049634 0.5 0 0 1 I I #
face $-1 $-1 $290 $38 $-1 $403 forward single #
loop $-1 $-1 $404 $176 #
plane-surface $-1 0 27.24728118122761 0 0 -1 0 0 0 -1 forward_v I I I I #
coedge $-1 $405 $406 $407 $408 reversed $177 $-1 #
coedge $-1 $409 $179 $181 $288 forward $111 $-1 #
coedge $-1 $179 $409 $405 $410 forward $111 $-1 #
coedge $-1 $407 $182 $179 $285 forward $290 $-1 #
edge $-1 $292 -15.904642020092332 $411 8.9722069805262592 $284 $412 forward 7 unknown #
coedge $-1 $413 $414 $180 $287 forward $279 $-1 #
edge $-1 $415 -55.138034494341291 $291 -44.12880082496379 $286 $416 forward 7 unknown #
edge $-1 $292 41.367556378120824 $415 54.494562362455206 $181 $417 forward 7 unknown #
coedge $-1 $182 $407 $413 $418 forward $290 $-1 #
loop $-1 $-1 $407 $278 #
vertex $-1 $287 $419 #
vertex $-1 $183 $420 #
straight-curve $-1 -19.370859539875369 49.229357936115058 11.955724803593135 0 -1 0 I I #
coedge $-1 $294 $294 $-1 $421 reversed $186 $-1 #
edge $-1 $422 0 $422 6.2831853071796004 $187 $423 forward 7 unknown #
vertex $-1 $190 $424 #
ellipse-curve $-1 -12.263188396841485 23.672541326154388 6.4511079689043855 0 0.83867057594974714 0.54463902268945019 3 0 0 1 I I #
coedge $-1 $298 $298 $-1 $425 reversed $193 $-1 #
edge $-1 $426 0 $426 6.2831853071796004 $194 $427 forward 7 unknown #
vertex $-1 $197 $428 #
ellipse-curve $-1 -1.6016816822906605 23.672541326154388 6.4511079689043855 0 0.83867057594974714 0.54463902268945019 3 0 0 1 I I #
face $-1 $-1 $429 $41 $-1 $430 reversed single #
loop $-1 $-1 $314 $198 #
plane-surface $-1 5.5059894607432227 98.458715872230115 112.16905125711385 -1 0 0 0 0.83867057594974714 0.54463902268945019 forward_v I I I I #
coedge $-1 $308 $431 $203 $313 forward $199 $-1 #
coedge $-1 $307 $201 $310 $432 reversed $125 $-1 #
coedge $-1 $201 $306 $433 $434 reversed $125 $-1 #
coedge $-1 $435 $305 $201 $309 forward $199 $-1 #
edge $-1 $436 -29.131556465033896 $437 -21.982076754887448 $308 $438 forward 7 unknown #
coedge $-1 $203 $202 $306 $432 forward $80 $-1 #
coedge $-1 $439 $433 $202 $312 forward $429 $-1 #
edge $-1 $440 -33.849055981144851 $316 -8.9722069805262592 $311 $441 forward 7 unknown #
edge $-1 $317 8.9722069805262592 $436 33.849055981144851 $305 $442 forward 7 unknown #
coedge $-1 $315 $204 $431 $443 reversed $303 $-1 #
coedge $-1 $204 $314 $439 $444 reversed $303 $-1 #
vertex $-1 $312 $445 #
vertex $-1 $313 $446 #
straight-curve $-1 5.5059894607432227 -2.4325840057492911 46.649477136865357 0 -0.54463902268945019 0.83867057594974714 I I #
coedge $-1 $319 $319 $-1 $447 reversed $208 $-1 #
edge $-1 $448 0 $448 6.2831853071796004 $209 $449 forward 7 unknown #
vertex $-1 $212 $450 #
ellipse-curve $-1 12.613660603777106 23.672541326154388 6.4511079689043855 0 0.83867057594974714 0.54463902268945019 3 0 0 1 I I #
coedge $-1 $323 $323 $-1 $451 reversed $215 $-1 #
edge $-1 $452 0 $452 6.2831853071796004 $216 $453 forward 7 unknown #
vertex $-1 $219 $454 #
ellipse-curve $-1 23.275167318327931 23.672541326154388 6.4511079689043855 0 0.83867057594974714 0.54463902268945019 3 0 0 1 I I #
face $-1 $-1 $235 $33 $-1 $455 reversed single #
loop $-1 $-1 $343 $220 #
plane-surface $-1 0 27.24728118122761 0 0 -1 0 0 0 -1 forward_v I I I I #
coedge $-1 $456 $341 $344 $457 forward $221 $-1 #
coedge $-1 $347 $223 $224 $335 reversed $139 $-1 #
coedge $-1 $341 $456 $223 $333 reversed $221 $-1 #
edge $-1 $348 -11.955724803593133 $458 11.955724803593133 $332 $459 forward 7 unknown #
coedge $-1 $225 $224 $456 $460 forward $89 $-1 #
edge $-1 $339 -60.149540696432382 $458 60.149540696432382 $331 $461 forward 7 unknown #
coedge $-1 $344 $343 $225 $337 reversed $328 $-1 #
edge $-1 $462 -60.149540696432382 $338 60.149540696432382 $336 $463 forward 7 unknown #
vertex $-1 $227 $464 #
vertex $-1 $350 $465 #
straight-curve $-1 60.149540696432382 0 -11.955724803593133 0 -1 0 I I #
coedge $-1 $330 $332 $228 $342 reversed $221 $-1 #
edge $-1 $345 -27.24728118122761 $348 27.24728118122761 $341 $466 forward 7 unknown #
coedge $-1 $336 $229 $234 $351 forward $328 $-1 #
coedge $-1 $229 $336 $330 $457 reversed $328 $-1 #
vertex $-1 $230 $467 #
straight-curve $-1 0 27.24728118122761 11.955724803593133 -1 0 0 I I #
coedge $-1 $231 $331 $233 $350 reversed $139 $-1 #
vertex $-1 $342 $468 #
straight-curve $-1 0 -27.24728118122761 11.955724803593133 1 0 0 I I #
edge $-1 $236 -11.955724803593133 $339 11.955724803593133 $233 $469 forward 7 unknown #
edge $-1 $237 -11.955724803593133 $338 11.955724803593133 $234 $470 forward 7 unknown #
point $-1 60.149540696432382 -27.24728118122761 11.955724803593133 #
point $-1 60.149540696432382 27.24728118122761 11.955724803593133 #
face $-1 $-1 $370 $34 $-1 $471 forward single #
plane-surface $-1 -65.655530157175605 -15.685945123755383 0 0 -1 0 0 0 -1 forward_v I I I I #
coedge $-1 $472 $473 $373 $474 forward $240 $-1 #
coedge $-1 $366 $242 $243 $362 reversed $147 $-1 #
coedge $-1 $242 $366 $369 $475 reversed $147 $-1 #
coedge $-1 $473 $472 $242 $360 reversed $240 $-1 #
edge $-1 $476 -11.955724803593133 $477 11.955724803593133 $359 $478 forward 7 unknown #
coedge $-1 $244 $243 $472 $479 forward $93 $-1 #
edge $-1 $364 -5.5059894607432227 $477 5.5059894607432227 $357 $480 forward 7 unknown #
edge $-1 $481 -5.5059894607432227 $252 5.5059894607432227 $249 $482 forward 7 unknown #
vertex $-1 $362 $483 #
straight-curve $-1 -60.149540696432382 0 -11.955724803593133 0 -1 0 I I #
coedge $-1 $358 $357 $246 $367 reversed $147 $-1 #
edge $-1 $371 -11.955724803593133 $364 11.955724803593133 $366 $484 forward 7 unknown #
coedge $-1 $485 $247 $250 $374 forward $370 $-1 #
coedge $-1 $247 $485 $358 $475 forward $370 $-1 #
loop $-1 $-1 $247 $354 #
vertex $-1 $248 $486 #
straight-curve $-1 -60.149540696432382 0 11.955724803593133 0 1 0 I I #
coedge $-1 $250 $249 $356 $474 reversed $251 $-1 #
edge $-1 $253 -5.5059894607432227 $487 5.5059894607432227 $250 $488 forward 7 unknown #
point $-1 -60.149540696432382 -15.685945123755383 -11.955724803593133 #
point $-1 -60.149540696432382 -15.685945123755383 11.955724803593133 #
loop $-1 $-1 $263 $255 #
plane-surface $-1 0 -27.24728118122761 0 0 1 0 0 0 1 forward_v I I I I #
coedge $-1 $380 $258 $260 $384 reversed $155 $-1 #
coedge $-1 $258 $379 $489 $490 reversed $155 $-1 #
coedge $-1 $266 $261 $258 $382 forward $256 $-1 #
edge $-1 $385 -40.871214474693453 $491 -36.242589104306731 $381 $492 forward 7 unknown #
coedge $-1 $260 $259 $388 $493 reversed $97 $-1 #
edge $-1 $494 -6.404651964132713e-015 $385 8.2773322778954057 $379 $495 forward 7 unknown #
vertex $-1 $262 $496 #
straight-curve $-1 -15.191050186823212 -22.618655810840885 11.955724803593133 -1 0 0 I I #
coedge $-1 $489 $263 $266 $392 reversed $377 $-1 #
coedge $-1 $263 $489 $383 $493 forward $377 $-1 #
vertex $-1 $264 $497 #
straight-curve $-1 -22.651089320650073 -27.247281181227606 36.181948223396674 0 0 1 I I #
straight-curve $-1 -22.651089320650073 -27.247281181227606 5.0935052778637555 0 -0.55919289150049634 -0.82903758062907751 I I #
edge $-1 $491 -38.113111426642774 $267 -22.651089320650073 $387 $498 forward 7 unknown #
point $-1 -22.651089320650073 -27.24728118122761 11.955724803593133 #
point $-1 -22.651089320650073 -22.618655810840885 11.955724803593133 #
edge $-1 $499 1 $499 0 $270 $-1 forward 7 unknown #
vertex $-1 $271 $500 #
ellipse-curve $-1 -33.69539082493057 -23.296260021895488 7.4206412697173265 0 -0.82903758062907751 0.55919289150049634 0.5 0 0 1 I I #
point $-1 -33.19539082493057 -24.932968496034249 8.5246150407284453 #
edge $-1 $501 1 $501 0 $274 $-1 forward 7 unknown #
vertex $-1 $275 $502 #
ellipse-curve $-1 -27.068809922362277 -23.296260021895488 7.4206412697173265 0 -0.82903758062907751 0.55919289150049634 0.5 0 0 1 I I #
point $-1 -26.568809922362277 -24.932968496034249 8.5246150407284453 #
plane-surface $-1 0 0 11.955724803593133 0 0 1 1 0 0 forward_v I I I I #
coedge $-1 $414 $413 $406 $503 forward $279 $-1 #
coedge $-1 $406 $281 $283 $410 reversed $177 $-1 #
coedge $-1 $281 $405 $404 $503 reversed $177 $-1 #
coedge $-1 $289 $284 $281 $408 forward $290 $-1 #
edge $-1 $411 -29.131556465033896 $504 -21.982076754887448 $407 $505 forward 7 unknown #
coedge $-1 $283 $282 $414 $506 reversed $111 $-1 #
edge $-1 $507 -54.494562362455206 $411 -41.367556378120824 $405 $508 forward 7 unknown #
vertex $-1 $285 $509 #
straight-curve $-1 -3.4662175197830365 20.097801471081162 11.955724803593135 1 0 0 I I #
coedge $-1 $404 $286 $289 $418 reversed $279 $-1 #
coedge $-1 $286 $404 $409 $506 forward $279 $-1 #
vertex $-1 $287 $510 #
straight-curve $-1 -19.370859539875369 27.247281181227613 56.084525628556925 0 0 1 I I #
straight-curve $-1 -19.370859539875369 -2.4325840057492911 46.649477136865357 0 0.54463902268945019 -0.83867057594974714 I I #
edge $-1 $504 -5.5059894607432227 $291 19.370859539875369 $413 $511 forward 7 unknown #
point $-1 -19.370859539875369 27.24728118122761 11.955724803593133 #
point $-1 -19.370859539875369 20.097801471081162 11.955724803593135 #
edge $-1 $512 1 $512 0 $294 $-1 forward 7 unknown #
vertex $-1 $295 $513 #
ellipse-curve $-1 -12.263188396841485 18.989812506827434 3.4101084145921647 0 0.83867057594974714 0.54463902268945019 3 0 0 1 I I #
point $-1 -9.2631883968414854 23.672541326154381 6.4511079689043802 #
edge $-1 $514 1 $514 0 $298 $-1 forward 7 unknown #
vertex $-1 $299 $515 #
ellipse-curve $-1 -1.6016816822906605 18.989812506827434 3.4101084145921647 0 0.83867057594974714 0.54463902268945019 3 0 0 1 I I #
point $-1 1.3983183177093395 23.672541326154381 6.4511079689043802 #
loop $-1 $-1 $311 $302 #
plane-surface $-1 0 27.24728118122761 0 0 -1 0 0 0 -1 forward_v I I I I #
coedge $-1 $305 $435 $314 $443 forward $199 $-1 #
edge $-1 $440 -54.494562362455206 $436 -41.367556378120824 $306 $516 forward 7 unknown #
coedge $-1 $311 $517 $307 $434 forward $429 $-1 #
edge $-1 $437 44.12880082496379 $440 55.138034494341291 $433 $518 forward 7 unknown #
coedge $-1 $431 $308 $517 $519 forward $199 $-1 #
vertex $-1 $309 $520 #
vertex $-1 $519 $521 #
straight-curve $-1 30.382838461361814 49.229357936115058 11.955724803593135 0 1 0 I I #
coedge $-1 $517 $311 $315 $444 forward $429 $-1 #
vertex $-1 $434 $522 #
straight-curve $-1 -3.4662175197830365 27.24728118122761 0.94649113421563769 -1 0 0 I I #
straight-curve $-1 -3.4662175197830365 20.097801471081162 11.955724803593135 1 0 0 I I #
edge $-1 $523 21.982076754887448 $317 29.131556465033896 $431 $524 forward 7 unknown #
edge $-1 $316 -55.138034494341291 $523 -44.12880082496379 $439 $525 forward 7 unknown #
point $-1 5.5059894607432227 27.247281181227606 0.94649113421563413 #
point $-1 5.5059894607432227 20.097801471081162 11.955724803593135 #
edge $-1 $526 1 $526 0 $319 $-1 forward 7 unknown #
vertex $-1 $320 $527 #
ellipse-curve $-1 12.613660603777106 18.989812506827434 3.4101084145921647 0 0.83867057594974714 0.54463902268945019 3 0 0 1 I I #
point $-1 15.613660603777106 23.672541326154381 6.4511079689043802 #
edge $-1 $528 1 $528 0 $323 $-1 forward 7 unknown #
vertex $-1 $324 $529 #
ellipse-curve $-1 23.275167318327931 18.989812506827434 3.4101084145921647 0 0.83867057594974714 0.54463902268945019 3 0 0 1 I I #
point $-1 26.275167318327931 23.672541326154381 6.4511079689043802 #
plane-surface $-1 60.149540696432382 0 0 -1 0 0 0 0 1 forward_v I I I I #
coedge $-1 $332 $330 $334 $460 reversed $221 $-1 #
edge $-1 $345 -11.955724803593133 $462 11.955724803593133 $344 $530 forward 7 unknown #
vertex $-1 $460 $531 #
straight-curve $-1 -60.149540696432382 -27.24728118122761 0 0 0 -1 I I #
edge $-1 $458 -27.24728118122761 $462 27.24728118122761 $456 $532 forward 7 unknown #
straight-curve $-1 0 -27.24728118122761 -11.955724803593133 -1 0 0 I I #
vertex $-1 $337 $533 #
straight-curve $-1 0 27.24728118122761 -11.955724803593133 1 0 0 I I #
point $-1 60.149540696432382 27.24728118122761 -11.955724803593133 #
point $-1 60.149540696432382 -27.24728118122761 -11.955724803593133 #
straight-curve $-1 -60.149540696432382 0 11.955724803593133 0 -1 0 I I #
point $-1 -60.149540696432382 27.24728118122761 11.955724803593133 #
point $-1 -60.149540696432382 -27.24728118122761 11.955724803593133 #
straight-curve $-1 60.149540696432382 -27.24728118122761 0 0 0 -1 I I #
straight-curve $-1 60.149540696432382 27.24728118122761 0 0 0 -1 I I #
plane-surface $-1 0 0 11.955724803593133 0 0 1 1 0 0 forward_v I I I I #
coedge $-1 $359 $356 $361 $479 reversed $240 $-1 #
coedge $-1 $356 $359 $485 $534 reversed $240 $-1 #
edge $-1 $487 -11.955724803593133 $481 11.955724803593133 $373 $535 forward 7 unknown #
edge $-1 $476 -5.5059894607432227 $371 5.5059894607432227 $358 $536 forward 7 unknown #
vertex $-1 $534 $537 #
vertex $-1 $479 $538 #
straight-curve $-1 -71.161519617918827 -19.074209281936682 0 0 0 -1 I I #
edge $-1 $477 -1.6941320790906502 $481 1.6941320790906484 $472 $539 forward 7 unknown #
straight-curve $-1 -65.655530157175605 -19.074209281936682 -11.955724803593133 -1 0 0 I I #
vertex $-1 $363 $540 #
straight-curve $-1 -65.655530157175605 -15.685945123755383 -11.955724803593133 1 0 0 I I #
point $-1 -60.149540696432382 -19.074209281936682 -11.955724803593133 #
straight-curve $-1 -60.149540696432382 -19.074209281936682 0 0 0 -1 I I #
coedge $-1 $369 $368 $473 $534 forward $370 $-1 #
point $-1 -60.149540696432382 -19.074209281936682 11.955724803593133 #
vertex $-1 $374 $541 #
straight-curve $-1 -65.655530157175605 -15.685945123755383 11.955724803593133 -1 0 0 I I #
coedge $-1 $388 $387 $380 $490 forward $377 $-1 #
edge $-1 $491 24.226223419803539 $494 31.088442945532925 $489 $542 forward 7 unknown #
vertex $-1 $392 $543 #
straight-curve $-1 -38.113111426642774 -63.489870285534337 11.955724803593135 0 -1 0 I I #
edge $-1 $494 -22.922061239819563 $389 -7.4600391338268608 $388 $544 forward 7 unknown #
vertex $-1 $493 $545 #
straight-curve $-1 -38.113111426642774 -27.247281181227606 5.0935052778637555 0 0.55919289150049634 0.82903758062907751 I I #
point $-1 -38.113111426642774 -22.618655810840885 11.955724803593133 #
point $-1 -22.651089320650073 -27.24728118122761 5.0935052778637502 #
straight-curve $-1 0 -27.24728118122761 11.955724803593133 1 0 0 I I #
vertex $-1 $395 $546 #
point $-1 -33.19539082493057 -23.296260021895488 7.4206412697173265 #
vertex $-1 $399 $547 #
point $-1 -26.568809922362277 -23.296260021895488 7.4206412697173265 #
edge $-1 $504 44.12880082496379 $507 55.138034494341291 $404 $548 forward 7 unknown #
vertex $-1 $418 $549 #
straight-curve $-1 5.5059894607432227 49.229357936115058 11.955724803593135 0 1 0 I I #
edge $-1 $507 -8.9722069805262592 $415 15.904642020092332 $414 $550 forward 7 unknown #
vertex $-1 $506 $551 #
straight-curve $-1 5.5059894607432227 -2.4325840057492911 46.649477136865357 0 -0.54463902268945019 0.83867057594974714 I I #
point $-1 5.5059894607432227 20.097801471081162 11.955724803593135 #
point $-1 -19.370859539875369 27.247281181227606 0.94649113421563413 #
straight-curve $-1 0 27.24728118122761 11.955724803593133 -1 0 0 I I #
vertex $-1 $421 $552 #
point $-1 -9.2631883968414854 18.989812506827434 3.4101084145921647 #
vertex $-1 $425 $553 #
point $-1 1.3983183177093395 18.989812506827434 3.4101084145921647 #
straight-curve $-1 30.382838461361814 -2.4325840057492911 46.649477136865357 0 -0.54463902268945019 0.83867057594974714 I I #
coedge $-1 $433 $439 $435 $519 reversed $429 $-1 #
straight-curve $-1 30.382838461361814 27.247281181227613 56.084525628556925 0 0 -1 I I #
edge $-1 $437 -30.382838461361814 $523 -5.5059894607432227 $517 $554 forward 7 unknown #
point $-1 30.382838461361814 20.097801471081162 11.955724803593135 #
point $-1 30.382838461361814 27.24728118122761 11.955724803593133 #
point $-1 30.382838461361814 27.247281181227606 0.94649113421563413 #
vertex $-1 $444 $555 #
straight-curve $-1 5.5059894607432227 49.229357936115058 11.955724803593135 0 -1 0 I I #
straight-curve $-1 5.5059894607432227 27.247281181227613 56.084525628556925 0 0 1 I I #
vertex $-1 $447 $556 #
point $-1 15.613660603777106 18.989812506827434 3.4101084145921647 #
vertex $-1 $451 $557 #
point $-1 26.275167318327931 18.989812506827434 3.4101084145921647 #
straight-curve $-1 -60.149540696432382 27.24728118122761 0 0 0 -1 I I #
point $-1 -60.149540696432382 -27.24728118122761 -11.955724803593133 #
straight-curve $-1 -60.149540696432382 0 -11.955724803593133 0 1 0 I I #
point $-1 -60.149540696432382 27.24728118122761 -11.955724803593133 #
edge $-1 $487 -1.6941320790906484 $476 1.6941320790906502 $473 $558 forward 7 unknown #
straight-curve $-1 -71.161519617918827 -15.685945123755383 0 0 0 -1 I I #
straight-curve $-1 -65.655530157175605 -19.074209281936682 11.955724803593133 1 0 0 I I #
point $-1 -71.161519617918827 -19.074209281936682 11.955724803593133 #
point $-1 -71.161519617918827 -19.074209281936682 -11.955724803593133 #
straight-curve $-1 -71.161519617918827 -17.380077202846032 -11.955724803593133 0 1 0 I I #
point $-1 -71.161519617918827 -15.685945123755383 -11.955724803593133 #
point $-1 -71.161519617918827 -15.685945123755383 11.955724803593133 #
straight-curve $-1 -38.113111426642774 -27.247281181227606 36.181948223396674 0 0 -1 I I #
point $-1 -38.113111426642774 -27.24728118122761 11.955724803593133 #
straight-curve $-1 -15.191050186823212 -27.24728118122761 5.0935052778637457 1 0 0 I I #
point $-1 -38.113111426642774 -27.24728118122761 5.0935052778637502 #
point $-1 -33.69539082493057 -22.88174123158095 7.1410448239670776 #
point $-1 -27.068809922362277 -22.88174123158095 7.1410448239670776 #
straight-curve $-1 5.5059894607432227 27.247281181227613 56.084525628556925 0 0 -1 I I #
point $-1 5.5059894607432227 27.24728118122761 11.955724803593133 #
straight-curve $-1 -3.4662175197830365 27.24728118122761 0.94649113421563769 -1 0 0 I I #
point $-1 5.5059894607432227 27.247281181227606 0.94649113421563413 #
point $-1 -12.263188396841485 16.473800778978195 1.7761913465238144 #
point $-1 -1.6016816822906605 16.473800778978195 1.7761913465238144 #
straight-curve $-1 0 27.24728118122761 11.955724803593133 -1 0 0 I I #
point $-1 5.5059894607432227 27.24728118122761 11.955724803593133 #
point $-1 12.613660603777106 16.473800778978195 1.7761913465238144 #
point $-1 23.275167318327931 16.473800778978195 1.7761913465238144 #
straight-curve $-1 -71.161519617918827 -17.380077202846032 11.955724803593133 0 -1 0 I I #
End-of-ACIS-data 