500 0 10 0           
7 Unknown 11 ACIS 5.0 NT 24 Fri Mar 26 19:11:14 1999 
-1 9.9999999999999995e-007 1e-010 
body $-1 $10 $-1 $11 #
body $-1 $12 $-1 $13 #
body $-1 $14 $-1 $15 #
body $-1 $16 $-1 $17 #
body $-1 $18 $-1 $19 #
body $-1 $20 $-1 $21 #
body $-1 $22 $-1 $23 #
body $-1 $24 $-1 $25 #
body $-1 $26 $-1 $27 #
body $-1 $28 $-1 $29 #
lump $-1 $-1 $30 $0 #
transform $-1 1 0 0 0 1 0 0 0 1 46.103701895199436 29.802433575023279 12.864879358661895 1 rotate no_reflect no_shear #
lump $-1 $-1 $31 $1 #
transform $-1 1 0 0 0 1 0 0 0 1 46.103701895199436 29.802433575023279 12.864879358661895 1 rotate no_reflect no_shear #
lump $-1 $-1 $32 $2 #
transform $-1 1 0 0 0 1 0 0 0 1 46.103701895199436 29.802433575023279 12.864879358661895 1 rotate no_reflect no_shear #
lump $-1 $-1 $33 $3 #
transform $-1 1 0 0 0 1 0 0 0 1 46.103701895199436 29.802433575023279 12.864879358661895 1 rotate no_reflect no_shear #
lump $-1 $-1 $34 $4 #
transform $-1 1 0 0 0 1 0 0 0 1 46.103701895199436 29.802433575023279 12.864879358661895 1 rotate no_reflect no_shear #
lump $-1 $-1 $35 $5 #
transform $-1 1 0 0 0 1 0 0 0 1 46.103701895199436 29.802433575023279 12.864879358661895 1 rotate no_reflect no_shear #
lump $-1 $-1 $36 $6 #
transform $-1 1 0 0 0 1 0 0 0 1 46.103701895199436 29.802433575023279 12.864879358661895 1 rotate no_reflect no_shear #
lump $-1 $-1 $37 $7 #
transform $-1 1 0 0 0 1 0 0 0 1 46.103701895199436 29.802433575023279 12.864879358661895 1 rotate no_reflect no_shear #
lump $-1 $-1 $38 $8 #
transform $-1 1 0 0 0 1 0 0 0 1 46.103701895199436 29.802433575023279 12.864879358661895 1 rotate no_reflect no_shear #
lump $-1 $-1 $39 $9 #
transform $-1 1 0 0 0 1 0 0 0 1 46.103701895199436 29.802433575023279 12.864879358661895 1 rotate no_reflect no_shear #
shell $-1 $-1 $-1 $40 $-1 $10 #
shell $-1 $-1 $-1 $41 $-1 $12 #
shell $-1 $-1 $-1 $42 $-1 $14 #
shell $-1 $-1 $-1 $43 $-1 $16 #
shell $-1 $-1 $-1 $44 $-1 $18 #
shell $-1 $-1 $-1 $45 $-1 $20 #
shell $-1 $-1 $-1 $46 $-1 $22 #
shell $-1 $-1 $-1 $47 $-1 $24 #
shell $-1 $-1 $-1 $48 $-1 $26 #
shell $-1 $-1 $-1 $49 $-1 $28 #
face $-1 $50 $51 $30 $-1 $52 forward single #
face $-1 $53 $54 $31 $-1 $55 forward single #
face $-1 $56 $57 $32 $-1 $58 reversed single #
face $-1 $59 $60 $33 $-1 $61 forward single #
face $-1 $62 $63 $34 $-1 $64 forward single #
face $-1 $65 $66 $35 $-1 $67 forward single #
face $-1 $68 $69 $36 $-1 $70 reversed single #
face $-1 $71 $72 $37 $-1 $73 forward single #
face $-1 $74 $75 $38 $-1 $76 reversed single #
face $-1 $77 $78 $39 $-1 $79 forward single #
face $-1 $80 $81 $30 $-1 $82 reversed single #
loop $-1 $-1 $83 $40 #
plane-surface $-1 0 0 12.864879358661895 0 0 1 1 0 0 forward_v I I I I #
face $-1 $84 $85 $31 $-1 $86 reversed single #
loop $-1 $-1 $87 $41 #
plane-surface $-1 0 -29.802433575023279 0 0 1 0 0 0 1 forward_v I I I I #
face $-1 $88 $89 $32 $-1 $90 reversed single #
loop $-1 $-1 $91 $42 #
plane-surface $-1 41.552775431929788 3.5419565419906363 132.29799248406692 0 -1 0 -0.68199836817093118 0 -0.7313536940579346 forward_v I I I I #
face $-1 $92 $93 $33 $-1 $94 forward single #
loop $-1 $95 $96 $43 #
cone-surface $-1 39.663588158740737 -4.4448061712998808 6.7751956026531719 -0.68199836817093118 0 -0.7313536940579346 0.3656768470289673 0 -0.34099918408546559 1 I I 0 1 0.5 forward I I I I #
face $-1 $97 $98 $34 $-1 $99 forward single #
loop $-1 $100 $101 $44 #
cone-surface $-1 39.663588158740737 -1.4497701538159369 6.7751956026531719 -0.68199836817093118 0 -0.7313536940579346 0.3656768470289673 0 -0.34099918408546559 1 I I 0 1 0.5 forward I I I I #
face $-1 $102 $103 $35 $-1 $104 forward single #
loop $-1 $105 $106 $45 #
cone-surface $-1 39.663588158740737 1.545265863668007 6.7751956026531719 -0.68199836817093118 0 -0.7313536940579346 0.3656768470289673 0 -0.34099918408546559 1 I I 0 1 0.5 forward I I I I #
face $-1 $107 $108 $36 $-1 $109 reversed single #
loop $-1 $-1 $110 $46 #
plane-surface $-1 -115.69351366755119 -16.03863416922805 60.834300438134264 0 1 0 -0.75470958851134928 0 0.65605901945558964 forward_v I I I I #
face $-1 $111 $112 $37 $-1 $113 forward single #
loop $-1 $114 $115 $47 #
cone-surface $-1 -40.13956549469318 -11.725683847586183 6.150264431100366 0.75470958851134928 0 -0.65605901945558964 0.65605901945558964 0 0.75470958851134928 1 I I 0 1 1 forward I I I I #
face $-1 $116 $117 $38 $-1 $118 reversed single #
loop $-1 $-1 $119 $48 #
plane-surface $-1 -115.69351366755119 21.176532931739541 60.834300438134264 0 1 0 -0.75470958851134928 0 0.65605901945558964 forward_v I I I I #
face $-1 $120 $121 $39 $-1 $122 forward single #
loop $-1 $123 $124 $49 #
cone-surface $-1 -40.13956549469318 25.489483253381408 6.150264431100366 0.75470958851134928 0 -0.65605901945558964 0.65605901945558964 0 0.75470958851134928 1 I I 0 1 1 forward I I I I #
face $-1 $125 $126 $30 $-1 $127 reversed single #
loop $-1 $-1 $128 $50 #
plane-surface $-1 0 0 -12.864879358661895 0 0 1 1 0 0 forward_v I I I I #
coedge $-1 $129 $130 $131 $132 forward $51 $-1 #
face $-1 $133 $134 $31 $-1 $135 reversed single #
loop $-1 $-1 $136 $53 #
plane-surface $-1 0 0 -12.864879358661895 0 0 1 1 0 0 forward_v I I I I #
coedge $-1 $137 $138 $139 $140 forward $54 $-1 #
face $-1 $141 $142 $32 $-1 $143 reversed single #
loop $-1 $-1 $144 $56 #
plane-surface $-1 -21.332523486400376 -1.4497701538159369 64.861767102467113 0.68199836817093118 0 0.7313536940579346 0.7313536940579346 0 -0.68199836817093118 forward_v I I I I #
coedge $-1 $145 $146 $147 $148 reversed $57 $-1 #
face $-1 $-1 $149 $33 $-1 $150 forward single #
loop $-1 $151 $152 $59 #
cone-surface $-1 38.891170423190232 -4.4448061712998808 5.9468790103924363 -0.68199836817093118 0 -0.7313536940579346 0.18283842351448365 0 -0.17049959204273279 1 I I -0.70710678118654746 0.70710678118654746 0.25 forward I I I I #
loop $-1 $-1 $153 $43 #
coedge $-1 $96 $96 $154 $155 reversed $60 $-1 #
face $-1 $-1 $156 $34 $-1 $157 forward single #
loop $-1 $158 $159 $62 #
cone-surface $-1 38.891170423190232 -1.4497701538159369 5.9468790103924363 -0.68199836817093118 0 -0.7313536940579346 0.18283842351448365 0 -0.17049959204273279 1 I I -0.70710678118654746 0.70710678118654746 0.25 forward I I I I #
loop $-1 $-1 $160 $44 #
coedge $-1 $101 $101 $161 $162 reversed $63 $-1 #
face $-1 $-1 $163 $35 $-1 $164 forward single #
loop $-1 $165 $166 $65 #
cone-surface $-1 38.891170423190232 1.545265863668007 5.9468790103924363 -0.68199836817093118 0 -0.7313536940579346 0.18283842351448365 0 -0.17049959204273279 1 I I -0.70710678118654746 0.70710678118654746 0.25 forward I I I I #
loop $-1 $-1 $167 $45 #
coedge $-1 $106 $106 $168 $169 reversed $66 $-1 #
face $-1 $170 $171 $36 $-1 $172 reversed single #
loop $-1 $-1 $173 $68 #
plane-surface $-1 -46.103701895199421 -11.725683847586183 0.34080152085955717 -0.75470958851134928 0 0.65605901945558964 0.65605901945558964 0 0.75470958851134928 forward_v I I I I #
coedge $-1 $174 $175 $176 $177 reversed $69 $-1 #
face $-1 $-1 $178 $37 $-1 $179 forward single #
loop $-1 $180 $181 $71 #
cone-surface $-1 -39.241581544924017 -11.725683847586183 5.3696589127122074 0.75470958851134928 0 -0.65605901945558964 0.32802950972779482 0 0.37735479425567464 1 I I -0.70710678118654746 0.70710678118654746 0.5 forward I I I I #
loop $-1 $-1 $182 $47 #
coedge $-1 $115 $115 $183 $184 reversed $72 $-1 #
face $-1 $185 $186 $38 $-1 $187 forward single #
loop $-1 $-1 $188 $74 #
plane-surface $-1 -46.103701895199421 25.489483253381408 0.34080152085955717 -0.75470958851134928 0 0.65605901945558964 0.65605901945558964 0 0.75470958851134928 forward_v I I I I #
coedge $-1 $189 $190 $191 $192 reversed $75 $-1 #
face $-1 $-1 $193 $39 $-1 $194 forward single #
loop $-1 $195 $196 $77 #
cone-surface $-1 -39.241581544924017 25.489483253381408 5.3696589127122074 0.75470958851134928 0 -0.65605901945558964 0.32802950972779482 0 0.37735479425567464 1 I I -0.70710678118654746 0.70710678118654746 0.5 forward I I I I #
loop $-1 $-1 $197 $49 #
coedge $-1 $124 $124 $198 $199 reversed $78 $-1 #
face $-1 $200 $201 $30 $-1 $202 reversed single #
loop $-1 $-1 $203 $80 #
plane-surface $-1 0 -29.802433575023279 0 0 1 0 0 0 1 forward_v I I I I #
coedge $-1 $204 $205 $206 $207 forward $81 $-1 #
coedge $-1 $208 $83 $209 $210 forward $51 $-1 #
coedge $-1 $83 $208 $211 $212 forward $51 $-1 #
coedge $-1 $213 $214 $83 $132 reversed $215 $-1 #
edge $-1 $216 -29.802433575023279 $217 29.802433575023279 $131 $218 forward 7 unknown #
face $-1 $219 $220 $31 $-1 $221 forward single #
loop $-1 $-1 $222 $84 #
plane-surface $-1 46.103701895199436 0 0 -1 0 0 0 0 1 forward_v I I I I #
coedge $-1 $223 $224 $225 $226 forward $85 $-1 #
coedge $-1 $225 $87 $222 $227 reversed $54 $-1 #
coedge $-1 $87 $225 $228 $229 reversed $54 $-1 #
coedge $-1 $230 $231 $87 $140 reversed $220 $-1 #
edge $-1 $232 -46.103701895199436 $233 46.103701895199436 $139 $234 forward 7 unknown #
face $-1 $235 $236 $32 $-1 $237 reversed single #
loop $-1 $-1 $238 $88 #
plane-surface $-1 41.552775431929788 -6.44149684962251 132.29799248406692 0 1 0 0.68199836817093118 0 0.7313536940579346 forward_v I I I I #
coedge $-1 $239 $240 $241 $242 reversed $89 $-1 #
coedge $-1 $146 $91 $243 $244 reversed $57 $-1 #
coedge $-1 $91 $145 $239 $245 reversed $57 $-1 #
coedge $-1 $241 $246 $91 $148 forward $247 $-1 #
edge $-1 $248 -25.327314179234541 $249 -13.650922993332685 $147 $250 forward 7 unknown #
loop $-1 $-1 $154 $92 #
plane-surface $-1 -21.332523486400376 -1.4497701538159369 64.861767102467113 0.68199836817093118 0 0.7313536940579346 0.7313536940579346 0 -0.68199836817093118 forward_v I I I I #
loop $-1 $-1 $251 $59 #
coedge $-1 $152 $152 $153 $252 reversed $93 $-1 #
coedge $-1 $153 $153 $152 $252 forward $95 $-1 #
coedge $-1 $154 $154 $96 $155 forward $149 $-1 #
edge $-1 $253 0 $253 6.2831853071796004 $154 $254 forward 7 unknown #
loop $-1 $-1 $161 $97 #
plane-surface $-1 -21.332523486400376 -1.4497701538159369 64.861767102467113 0.68199836817093118 0 0.7313536940579346 0.7313536940579346 0 -0.68199836817093118 forward_v I I I I #
loop $-1 $-1 $255 $62 #
coedge $-1 $159 $159 $160 $256 reversed $98 $-1 #
coedge $-1 $160 $160 $159 $256 forward $100 $-1 #
coedge $-1 $161 $161 $101 $162 forward $156 $-1 #
edge $-1 $257 0 $257 6.2831853071796004 $161 $258 forward 7 unknown #
loop $-1 $-1 $168 $102 #
plane-surface $-1 -21.332523486400376 -1.4497701538159369 64.861767102467113 0.68199836817093118 0 0.7313536940579346 0.7313536940579346 0 -0.68199836817093118 forward_v I I I I #
loop $-1 $-1 $259 $65 #
coedge $-1 $166 $166 $167 $260 reversed $103 $-1 #
coedge $-1 $167 $167 $166 $260 forward $105 $-1 #
coedge $-1 $168 $168 $106 $169 forward $163 $-1 #
edge $-1 $261 0 $261 6.2831853071796004 $168 $262 forward 7 unknown #
face $-1 $263 $264 $36 $-1 $265 forward single #
loop $-1 $-1 $266 $107 #
plane-surface $-1 -115.69351366755119 -7.4127335259443159 60.834300438134264 0 -1 0 0.75470958851134928 0 -0.65605901945558964 forward_v I I I I #
coedge $-1 $267 $268 $269 $270 reversed $108 $-1 #
coedge $-1 $175 $110 $271 $272 reversed $69 $-1 #
coedge $-1 $110 $174 $267 $273 reversed $69 $-1 #
coedge $-1 $269 $274 $110 $177 forward $264 $-1 #
edge $-1 $275 11.743054938576158 $276 22.630069428561711 $176 $277 forward 7 unknown #
loop $-1 $-1 $183 $111 #
plane-surface $-1 -46.103701895199421 -11.725683847586183 0.34080152085955717 -0.75470958851134928 0 0.65605901945558964 0.65605901945558964 0 0.75470958851134928 forward_v I I I I #
loop $-1 $-1 $278 $71 #
coedge $-1 $181 $181 $182 $279 reversed $112 $-1 #
coedge $-1 $182 $182 $181 $279 forward $114 $-1 #
coedge $-1 $183 $183 $115 $184 forward $178 $-1 #
edge $-1 $280 0 $280 6.2831853071796004 $183 $281 forward 7 unknown #
face $-1 $282 $283 $38 $-1 $284 reversed single #
loop $-1 $-1 $191 $116 #
plane-surface $-1 0 0 12.864879358661895 0 0 1 1 0 0 forward_v I I I I #
coedge $-1 $285 $286 $287 $288 reversed $117 $-1 #
coedge $-1 $190 $119 $289 $290 reversed $75 $-1 #
coedge $-1 $119 $189 $285 $291 reversed $75 $-1 #
coedge $-1 $287 $292 $119 $192 forward $186 $-1 #
edge $-1 $293 11.743054938576158 $294 22.630069428561711 $191 $295 forward 7 unknown #
loop $-1 $-1 $198 $120 #
plane-surface $-1 -46.103701895199421 25.489483253381408 0.34080152085955717 -0.75470958851134928 0 0.65605901945558964 0.65605901945558964 0 0.75470958851134928 forward_v I I I I #
loop $-1 $-1 $296 $77 #
coedge $-1 $196 $196 $197 $297 reversed $121 $-1 #
coedge $-1 $197 $197 $196 $297 forward $123 $-1 #
coedge $-1 $198 $198 $124 $199 forward $193 $-1 #
edge $-1 $298 0 $298 6.2831853071796004 $198 $299 forward 7 unknown #
face $-1 $300 $301 $30 $-1 $302 reversed single #
loop $-1 $-1 $303 $125 #
plane-surface $-1 -46.103701895199436 0 0 1 0 0 0 0 -1 forward_v I I I I #
coedge $-1 $304 $211 $305 $306 forward $126 $-1 #
coedge $-1 $307 $128 $304 $308 forward $81 $-1 #
coedge $-1 $128 $307 $309 $310 forward $81 $-1 #
coedge $-1 $214 $213 $128 $207 reversed $215 $-1 #
edge $-1 $311 -29.802433575023279 $312 29.802433575023279 $206 $313 forward 7 unknown #
coedge $-1 $130 $129 $314 $315 forward $51 $-1 #
coedge $-1 $316 $317 $129 $210 reversed $301 $-1 #
edge $-1 $217 -46.103701895199436 $318 46.103701895199436 $209 $319 forward 7 unknown #
coedge $-1 $203 $320 $130 $212 reversed $126 $-1 #
edge $-1 $321 -46.103701895199436 $216 46.103701895199436 $211 $322 forward 7 unknown #
coedge $-1 $206 $131 $320 $323 forward $215 $-1 #
coedge $-1 $131 $206 $316 $324 reversed $215 $-1 #
loop $-1 $-1 $213 $300 #
vertex $-1 $132 $325 #
vertex $-1 $132 $326 #
straight-curve $-1 46.103701895199436 0 12.864879358661895 0 1 0 I I #
face $-1 $327 $328 $31 $-1 $329 reversed single #
loop $-1 $-1 $231 $133 #
plane-surface $-1 0 -36.684333277920892 -7.1596055187479735 0 0 1 1 0 0 forward_v I I I I #
coedge $-1 $330 $331 $137 $227 forward $134 $-1 #
coedge $-1 $332 $136 $331 $333 forward $85 $-1 #
coedge $-1 $136 $332 $334 $335 forward $85 $-1 #
coedge $-1 $138 $137 $136 $226 reversed $54 $-1 #
edge $-1 $336 -46.103701895199436 $337 46.103701895199436 $136 $338 forward 7 unknown #
edge $-1 $337 -12.864879358661895 $233 -7.1596055187479735 $222 $339 forward 7 unknown #
coedge $-1 $334 $340 $138 $229 forward $341 $-1 #
edge $-1 $232 7.1596055187479735 $336 12.864879358661895 $228 $342 forward 7 unknown #
coedge $-1 $343 $139 $340 $344 forward $220 $-1 #
coedge $-1 $139 $343 $330 $345 forward $220 $-1 #
vertex $-1 $229 $346 #
vertex $-1 $345 $347 #
straight-curve $-1 0 -29.802433575023279 -7.1596055187479735 1 0 0 I I #
face $-1 $-1 $247 $32 $-1 $348 forward single #
loop $-1 $-1 $349 $141 #
plane-surface $-1 46.103701895199436 0 0 -1 0 0 0 0 1 forward_v I I I I #
coedge $-1 $350 $351 $352 $353 reversed $142 $-1 #
coedge $-1 $354 $144 $146 $245 forward $89 $-1 #
coedge $-1 $144 $354 $350 $355 forward $89 $-1 #
coedge $-1 $352 $147 $144 $242 forward $247 $-1 #
edge $-1 $249 -4.2668416188986047 $356 5.7166117727145416 $241 $357 forward 7 unknown #
coedge $-1 $358 $359 $145 $244 forward $236 $-1 #
edge $-1 $360 -64.172528057896514 $248 -53.284116883371567 $243 $361 forward 7 unknown #
edge $-1 $249 76.241953310323893 $360 92.207403790398871 $146 $362 forward 7 unknown #
coedge $-1 $147 $352 $358 $363 forward $247 $-1 #
loop $-1 $-1 $352 $235 #
vertex $-1 $244 $364 #
vertex $-1 $148 $365 #
straight-curve $-1 20.776387715964894 3.5419565419906363 12.864879358661895 -1 0 0 I I #
coedge $-1 $251 $251 $-1 $366 reversed $151 $-1 #
edge $-1 $367 0 $367 6.2831853071796004 $152 $368 forward 7 unknown #
vertex $-1 $155 $369 #
ellipse-curve $-1 40.265506302248511 -4.4448061712998808 7.4206737713994215 0.68199836817093118 0 0.7313536940579346 0.3656768470289673 0 -0.34099918408546559 1 I I #
coedge $-1 $255 $255 $-1 $370 reversed $158 $-1 #
edge $-1 $371 0 $371 6.2831853071796004 $159 $372 forward 7 unknown #
vertex $-1 $162 $373 #
ellipse-curve $-1 40.265506302248511 -1.4497701538159369 7.4206737713994215 0.68199836817093118 0 0.7313536940579346 0.3656768470289673 0 -0.34099918408546559 1 I I #
coedge $-1 $259 $259 $-1 $374 reversed $165 $-1 #
edge $-1 $375 0 $375 6.2831853071796004 $166 $376 forward 7 unknown #
vertex $-1 $169 $377 #
ellipse-curve $-1 40.265506302248511 1.545265863668007 7.4206737713994215 0.68199836817093118 0 0.7313536940579346 0.3656768470289673 0 -0.34099918408546559 1 I I #
face $-1 $-1 $378 $36 $-1 $379 reversed single #
loop $-1 $-1 $176 $170 #
plane-surface $-1 0 0 12.864879358661895 0 0 1 1 0 0 forward_v I I I I #
coedge $-1 $380 $381 $382 $383 reversed $171 $-1 #
coedge $-1 $384 $173 $175 $273 forward $108 $-1 #
coedge $-1 $173 $384 $380 $385 forward $108 $-1 #
coedge $-1 $382 $176 $173 $270 forward $264 $-1 #
edge $-1 $276 -10.175792245434959 $386 -1.5498916021512246 $269 $387 forward 7 unknown #
coedge $-1 $388 $389 $174 $272 forward $378 $-1 #
edge $-1 $390 -30.076348698207592 $275 -17.552270860405237 $271 $391 forward 7 unknown #
edge $-1 $276 -16.594565682550627 $390 2.1640230052520235e-014 $175 $392 forward 7 unknown #
coedge $-1 $176 $382 $388 $393 forward $264 $-1 #
vertex $-1 $272 $394 #
vertex $-1 $177 $395 #
straight-curve $-1 -57.846756833775594 -16.03863416922805 12.864879358661895 1 0 0 I I #
coedge $-1 $278 $278 $-1 $396 reversed $180 $-1 #
edge $-1 $397 0 $397 6.2831853071796004 $181 $398 forward 7 unknown #
vertex $-1 $184 $399 #
ellipse-curve $-1 -40.660194650206655 -11.725683847586183 6.602840439760719 -0.75470958851134928 0 0.65605901945558964 0.65605901945558964 0 0.75470958851134928 1 I I #
face $-1 $-1 $400 $38 $-1 $401 reversed single #
loop $-1 $-1 $402 $185 #
plane-surface $-1 0 29.802433575023279 0 0 -1 0 0 0 -1 forward_v I I I I #
coedge $-1 $403 $188 $190 $291 forward $117 $-1 #
coedge $-1 $188 $403 $402 $404 reversed $117 $-1 #
coedge $-1 $405 $191 $188 $288 forward $186 $-1 #
edge $-1 $294 8.4317913050488364 $406 17.057691948332572 $287 $407 forward 7 unknown #
coedge $-1 $408 $409 $189 $290 forward $400 $-1 #
edge $-1 $410 -30.076348698207592 $293 -17.552270860405237 $289 $411 forward 7 unknown #
edge $-1 $294 -16.594565682550627 $410 2.1640230052520235e-014 $190 $412 forward 7 unknown #
coedge $-1 $191 $405 $408 $413 forward $186 $-1 #
vertex $-1 $290 $414 #
vertex $-1 $192 $415 #
straight-curve $-1 -57.846756833775594 21.176532931739541 12.864879358661895 1 0 0 I I #
coedge $-1 $296 $296 $-1 $416 reversed $195 $-1 #
edge $-1 $417 0 $417 6.2831853071796004 $196 $418 forward 7 unknown #
vertex $-1 $199 $419 #
ellipse-curve $-1 -40.660194650206655 25.489483253381408 6.602840439760719 -0.75470958851134928 0 0.65605901945558964 0.65605901945558964 0 0.75470958851134928 1 I I #
face $-1 $-1 $215 $30 $-1 $420 reversed single #
loop $-1 $-1 $316 $200 #
plane-surface $-1 0 29.802433575023279 0 0 -1 0 0 0 -1 forward_v I I I I #
coedge $-1 $421 $314 $317 $422 forward $201 $-1 #
coedge $-1 $320 $203 $204 $308 reversed $126 $-1 #
coedge $-1 $314 $421 $203 $306 reversed $201 $-1 #
edge $-1 $321 -12.864879358661895 $423 12.864879358661895 $305 $424 forward 7 unknown #
coedge $-1 $205 $204 $421 $425 forward $81 $-1 #
edge $-1 $312 -46.103701895199436 $423 46.103701895199436 $304 $426 forward 7 unknown #
coedge $-1 $317 $316 $205 $310 reversed $301 $-1 #
edge $-1 $427 -46.103701895199436 $311 46.103701895199436 $309 $428 forward 7 unknown #
vertex $-1 $207 $429 #
vertex $-1 $323 $430 #
straight-curve $-1 46.103701895199436 0 -12.864879358661895 0 -1 0 I I #
coedge $-1 $303 $305 $208 $315 reversed $201 $-1 #
edge $-1 $318 -29.802433575023279 $321 29.802433575023279 $314 $431 forward 7 unknown #
coedge $-1 $309 $209 $214 $324 forward $301 $-1 #
coedge $-1 $209 $309 $303 $422 reversed $301 $-1 #
vertex $-1 $210 $432 #
straight-curve $-1 0 29.802433575023279 12.864879358661895 -1 0 0 I I #
coedge $-1 $211 $304 $213 $323 reversed $126 $-1 #
vertex $-1 $315 $433 #
straight-curve $-1 0 -29.802433575023279 12.864879358661895 1 0 0 I I #
edge $-1 $216 -12.864879358661895 $312 12.864879358661895 $213 $434 forward 7 unknown #
edge $-1 $217 -12.864879358661895 $311 12.864879358661895 $214 $435 forward 7 unknown #
point $-1 46.103701895199436 -29.802433575023279 12.864879358661895 #
point $-1 46.103701895199436 29.802433575023279 12.864879358661895 #
face $-1 $-1 $341 $31 $-1 $436 reversed single #
loop $-1 $-1 $437 $219 #
plane-surface $-1 0 -43.566232980818505 -10.012242438704934 0 1 0 0 0 1 forward_v I I I I #
coedge $-1 $438 $222 $231 $345 reversed $134 $-1 #
coedge $-1 $222 $438 $223 $333 reversed $134 $-1 #
coedge $-1 $224 $223 $439 $440 forward $85 $-1 #
edge $-1 $337 29.802433575023279 $441 43.566232980818505 $331 $442 forward 7 unknown #
coedge $-1 $443 $228 $224 $335 reversed $341 $-1 #
edge $-1 $444 -43.566232980818505 $336 -29.802433575023279 $334 $445 forward 7 unknown #
vertex $-1 $229 $446 #
vertex $-1 $333 $447 #
straight-curve $-1 0 -29.802433575023279 -12.864879358661895 1 0 0 I I #
straight-curve $-1 46.103701895199436 -29.802433575023279 0 0 0 1 I I #
coedge $-1 $228 $443 $230 $344 reversed $341 $-1 #
loop $-1 $-1 $228 $327 #
straight-curve $-1 -46.103701895199436 -29.802433575023279 0 0 0 -1 I I #
coedge $-1 $231 $230 $448 $449 forward $220 $-1 #
edge $-1 $232 -6.8818997028976163 $450 6.8818997028976128 $340 $451 forward 7 unknown #
edge $-1 $452 -6.8818997028976128 $233 6.8818997028976163 $330 $453 forward 7 unknown #
point $-1 -46.103701895199436 -29.802433575023276 -7.1596055187479735 #
point $-1 46.103701895199436 -29.802433575023276 -7.1596055187479735 #
plane-surface $-1 0 0 12.864879358661895 0 0 1 1 0 0 forward_v I I I I #
coedge $-1 $359 $358 $351 $454 forward $236 $-1 #
coedge $-1 $351 $238 $240 $355 reversed $142 $-1 #
coedge $-1 $238 $350 $349 $454 reversed $142 $-1 #
coedge $-1 $246 $241 $238 $353 forward $247 $-1 #
edge $-1 $356 13.650922993332685 $455 25.327314179234541 $352 $456 forward 7 unknown #
coedge $-1 $240 $239 $359 $457 reversed $89 $-1 #
edge $-1 $458 -92.207403790398871 $356 -76.241953310323893 $350 $459 forward 7 unknown #
vertex $-1 $242 $460 #
straight-curve $-1 34.427310709297579 -0.72488507690796844 12.864879358661895 0 -1 0 I I #
coedge $-1 $349 $243 $246 $363 reversed $236 $-1 #
coedge $-1 $243 $349 $354 $457 forward $236 $-1 #
vertex $-1 $244 $461 #
straight-curve $-1 46.103701895199436 3.5419565419906363 66.148996242033462 0 0 1 I I #
straight-curve $-1 -21.332523486400376 3.5419565419906363 64.861767102467113 0.7313536940579346 0 -0.68199836817093118 I I #
edge $-1 $455 -6.44149684962251 $248 3.5419565419906363 $358 $462 forward 7 unknown #
point $-1 46.103701895199436 3.5419565419906363 12.864879358661895 #
point $-1 34.427310709297579 3.5419565419906363 12.864879358661895 #
edge $-1 $463 1 $463 0 $251 $-1 forward 7 unknown #
vertex $-1 $252 $464 #
ellipse-curve $-1 39.061670015232963 -4.4448061712998808 6.1297174339069196 0.68199836817093118 0 0.7313536940579346 0.3656768470289673 0 -0.34099918408546559 1 I I #
point $-1 40.631183149277483 -4.4448061712998808 7.0796745873139582 #
edge $-1 $465 1 $465 0 $255 $-1 forward 7 unknown #
vertex $-1 $256 $466 #
ellipse-curve $-1 39.061670015232963 -1.4497701538159369 6.1297174339069196 0.68199836817093118 0 0.7313536940579346 0.3656768470289673 0 -0.34099918408546559 1 I I #
point $-1 40.631183149277483 -1.4497701538159369 7.0796745873139582 #
edge $-1 $467 1 $467 0 $259 $-1 forward 7 unknown #
vertex $-1 $260 $468 #
ellipse-curve $-1 39.061670015232963 1.545265863668007 6.1297174339069196 0.68199836817093118 0 0.7313536940579346 0.3656768470289673 0 -0.34099918408546559 1 I I #
point $-1 40.631183149277483 1.545265863668007 7.0796745873139582 #
loop $-1 $-1 $271 $263 #
plane-surface $-1 -46.103701895199436 0 0 1 0 0 0 0 -1 forward_v I I I I #
coedge $-1 $381 $266 $268 $385 reversed $171 $-1 #
coedge $-1 $266 $380 $469 $470 reversed $171 $-1 #
coedge $-1 $274 $269 $266 $383 forward $264 $-1 #
edge $-1 $386 -22.630069428561711 $471 -11.743054938576158 $382 $472 forward 7 unknown #
coedge $-1 $268 $267 $389 $473 reversed $108 $-1 #
edge $-1 $474 -2.1640230052520235e-014 $386 16.594565682550627 $380 $475 forward 7 unknown #
vertex $-1 $270 $476 #
straight-curve $-1 -35.216687405213882 -5.8628419237930913 12.864879358661895 0 1 0 I I #
coedge $-1 $469 $271 $274 $393 reversed $378 $-1 #
coedge $-1 $271 $469 $384 $473 forward $378 $-1 #
vertex $-1 $272 $477 #
straight-curve $-1 -46.103701895199436 -16.03863416922805 30.417150219067132 0 0 1 I I #
straight-curve $-1 -46.103701895199421 -16.03863416922805 0.34080152085955717 -0.65605901945558964 0 -0.75470958851134928 I I #
edge $-1 $471 7.4127335259443159 $275 16.03863416922805 $388 $478 forward 7 unknown #
point $-1 -46.103701895199436 -16.03863416922805 12.864879358661895 #
point $-1 -35.216687405213882 -16.03863416922805 12.864879358661895 #
edge $-1 $479 1 $479 0 $278 $-1 forward 7 unknown #
vertex $-1 $279 $480 #
ellipse-curve $-1 -39.61893633917969 -11.725683847586183 5.6976884224400024 -0.75470958851134928 0 0.65605901945558964 0.65605901945558964 0 0.75470958851134928 1 I I #
point $-1 -40.00413563075108 -11.725683847586183 7.3575500282720796 #
loop $-1 $-1 $289 $282 #
plane-surface $-1 -46.103701895199436 0 0 1 0 0 0 0 -1 forward_v I I I I #
coedge $-1 $481 $482 $286 $404 forward $283 $-1 #
coedge $-1 $286 $285 $409 $483 reversed $117 $-1 #
edge $-1 $406 -1.5997940410179297 $484 14.994771641532715 $402 $485 forward 7 unknown #
coedge $-1 $292 $287 $482 $486 forward $186 $-1 #
vertex $-1 $486 $487 #
straight-curve $-1 -35.216687405213882 12.744741626690704 12.864879358661895 0 1 0 I I #
coedge $-1 $488 $289 $292 $413 reversed $400 $-1 #
coedge $-1 $289 $488 $403 $483 forward $400 $-1 #
vertex $-1 $290 $489 #
straight-curve $-1 -46.103701895199436 21.176532931739541 30.417150219067132 0 0 1 I I #
straight-curve $-1 -46.103701895199421 21.176532931739541 0.34080152085955717 -0.65605901945558964 0 -0.75470958851134928 I I #
edge $-1 $490 -29.802433575023279 $293 -21.176532931739541 $408 $491 forward 7 unknown #
point $-1 -46.103701895199436 21.176532931739541 12.864879358661895 #
point $-1 -35.216687405213882 21.176532931739541 12.864879358661895 #
edge $-1 $492 1 $492 0 $296 $-1 forward 7 unknown #
vertex $-1 $297 $493 #
ellipse-curve $-1 -39.61893633917969 25.489483253381408 5.6976884224400024 -0.75470958851134928 0 0.65605901945558964 0.65605901945558964 0 0.75470958851134928 1 I I #
point $-1 -40.00413563075108 25.489483253381408 7.3575500282720796 #
plane-surface $-1 46.103701895199436 0 0 -1 0 0 0 0 1 forward_v I I I I #
coedge $-1 $305 $303 $307 $425 reversed $201 $-1 #
edge $-1 $318 -12.864879358661895 $427 12.864879358661895 $317 $494 forward 7 unknown #
vertex $-1 $425 $495 #
straight-curve $-1 -46.103701895199436 -29.802433575023279 0 0 0 -1 I I #
edge $-1 $423 -29.802433575023279 $427 29.802433575023279 $421 $496 forward 7 unknown #
straight-curve $-1 0 -29.802433575023279 -12.864879358661895 -1 0 0 I I #
vertex $-1 $310 $497 #
straight-curve $-1 0 29.802433575023279 -12.864879358661895 1 0 0 I I #
point $-1 46.103701895199436 29.802433575023279 -12.864879358661895 #
point $-1 46.103701895199436 -29.802433575023279 -12.864879358661895 #
straight-curve $-1 -46.103701895199436 0 12.864879358661895 0 -1 0 I I #
point $-1 -46.103701895199436 29.802433575023279 12.864879358661895 #
point $-1 -46.103701895199436 -29.802433575023279 12.864879358661895 #
straight-curve $-1 46.103701895199436 -29.802433575023279 0 0 0 -1 I I #
straight-curve $-1 46.103701895199436 29.802433575023279 0 0 0 -1 I I #
plane-surface $-1 -46.103701895199436 0 0 1 0 0 0 0 -1 forward_v I I I I #
coedge $-1 $439 $448 $443 $498 forward $328 $-1 #
coedge $-1 $331 $330 $499 $500 forward $134 $-1 #
coedge $-1 $499 $437 $332 $440 reversed $328 $-1 #
edge $-1 $441 -46.103701895199436 $444 46.103701895199436 $439 $501 forward 7 unknown #
vertex $-1 $500 $502 #
straight-curve $-1 46.103701895199436 0 -12.864879358661895 0 -1 0 I I #
coedge $-1 $340 $334 $437 $498 reversed $341 $-1 #
vertex $-1 $335 $503 #
straight-curve $-1 -46.103701895199436 0 -12.864879358661895 0 1 0 I I #
point $-1 -46.103701895199436 -29.802433575023279 -12.864879358661895 #
point $-1 46.103701895199436 -29.802433575023279 -12.864879358661895 #
coedge $-1 $437 $499 $343 $449 reversed $328 $-1 #
edge $-1 $450 -46.103701895199436 $452 46.103701895199436 $448 $504 forward 7 unknown #
vertex $-1 $344 $505 #
straight-curve $-1 -46.103701895199436 -36.684333277920892 -7.1596055187479735 0 -1 0 I I #
vertex $-1 $345 $506 #
straight-curve $-1 46.103701895199436 -36.684333277920892 -7.1596055187479735 0 1 0 I I #
edge $-1 $455 53.284116883371567 $458 64.172528057896514 $349 $507 forward 7 unknown #
vertex $-1 $363 $508 #
straight-curve $-1 20.776387715964894 -6.44149684962251 12.864879358661895 1 0 0 I I #
edge $-1 $458 -5.7166117727145416 $360 4.2668416188986047 $359 $509 forward 7 unknown #
vertex $-1 $457 $510 #
straight-curve $-1 -21.332523486400376 -6.44149684962251 64.861767102467113 -0.7313536940579346 0 0.68199836817093118 I I #
point $-1 34.427310709297579 -6.44149684962251 12.864879358661895 #
point $-1 46.103701895199436 3.5419565419906363 1.976468184136948 #
straight-curve $-1 46.103701895199436 0 12.864879358661895 0 1 0 I I #
vertex $-1 $366 $511 #
point $-1 39.427346862261935 -4.4448061712998808 5.7887182498214544 #
vertex $-1 $370 $512 #
point $-1 39.427346862261935 -1.4497701538159369 5.7887182498214544 #
vertex $-1 $374 $513 #
point $-1 39.427346862261935 1.545265863668007 5.7887182498214544 #
coedge $-1 $389 $388 $381 $470 forward $378 $-1 #
edge $-1 $471 17.552270860405237 $474 30.076348698207592 $469 $514 forward 7 unknown #
vertex $-1 $393 $515 #
straight-curve $-1 -57.846756833775594 -7.4127335259443159 12.864879358661895 -1 0 0 I I #
edge $-1 $474 1.5498916021512246 $390 10.175792245434959 $389 $516 forward 7 unknown #
vertex $-1 $473 $517 #
straight-curve $-1 -46.103701895199421 -7.4127335259443159 0.34080152085955717 0.65605901945558964 0 0.75470958851134928 I I #
point $-1 -35.216687405213882 -7.4127335259443159 12.864879358661895 #
point $-1 -46.103701895199436 -16.03863416922805 0.34080152085954085 #
straight-curve $-1 -46.103701895199436 0 12.864879358661895 0 -1 0 I I #
vertex $-1 $396 $518 #
point $-1 -38.9628773197241 -11.725683847586183 6.4523980109513515 #
coedge $-1 $482 $402 $488 $519 reversed $283 $-1 #
coedge $-1 $402 $481 $405 $486 reversed $283 $-1 #
edge $-1 $484 -17.057691948332572 $410 -8.4317913050488364 $409 $520 forward 7 unknown #
vertex $-1 $404 $521 #
straight-curve $-1 -36.266246715095001 29.802433575023279 11.657499456262345 -0.65605901945558975 0 -0.75470958851134939 I I #
edge $-1 $406 35.216687405213882 $490 46.103701895199436 $482 $522 forward 7 unknown #
point $-1 -35.216687405213882 29.802433575023276 12.864879358661895 #
coedge $-1 $409 $408 $481 $519 forward $400 $-1 #
point $-1 -46.103701895199436 21.176532931739541 0.34080152085954085 #
vertex $-1 $486 $523 #
straight-curve $-1 -46.103701895199436 0 12.864879358661895 0 -1 0 I I #
vertex $-1 $416 $524 #
point $-1 -38.9628773197241 25.489483253381408 6.4523980109513515 #
straight-curve $-1 -46.103701895199436 29.802433575023279 0 0 0 -1 I I #
point $-1 -46.103701895199436 -29.802433575023279 -12.864879358661895 #
straight-curve $-1 -46.103701895199436 0 -12.864879358661895 0 1 0 I I #
point $-1 -46.103701895199436 29.802433575023279 -12.864879358661895 #
edge $-1 $450 -2.8526369199569608 $444 2.8526369199569608 $443 $525 forward 7 unknown #
coedge $-1 $448 $439 $438 $500 reversed $328 $-1 #
edge $-1 $452 -2.8526369199569608 $441 2.8526369199569608 $438 $526 forward 7 unknown #
straight-curve $-1 0 -43.566232980818505 -12.864879358661895 -1 0 0 I I #
point $-1 46.103701895199436 -43.566232980818505 -12.864879358661895 #
point $-1 -46.103701895199436 -43.566232980818505 -12.864879358661895 #
straight-curve $-1 0 -43.566232980818505 -7.1596055187479735 1 0 0 I I #
point $-1 -46.103701895199436 -43.566232980818505 -7.1596055187479735 #
point $-1 46.103701895199436 -43.566232980818505 -7.1596055187479735 #
straight-curve $-1 46.103701895199436 -6.44149684962251 66.148996242033462 0 0 -1 I I #
point $-1 46.103701895199436 -6.44149684962251 12.864879358661895 #
straight-curve $-1 46.103701895199436 -0.72488507690796844 1.976468184136948 0 1 0 I I #
point $-1 46.103701895199436 -6.44149684962251 1.976468184136948 #
point $-1 38.720670831147501 -4.4448061712998808 5.764040586877953 #
point $-1 38.720670831147501 -1.4497701538159369 5.764040586877953 #
point $-1 38.720670831147501 1.545265863668007 5.764040586877953 #
straight-curve $-1 -46.103701895199436 -7.4127335259443159 30.417150219067132 0 0 -1 I I #
point $-1 -46.103701895199436 -7.4127335259443159 12.864879358661895 #
straight-curve $-1 -46.103701895199436 -5.8628419237930913 0.3408015208595444 0 -1 0 I I #
point $-1 -46.103701895199436 -7.4127335259443159 0.34080152085954085 #
point $-1 -38.864226750668344 -11.725683847586183 5.0416294029844124 #
edge $-1 $490 -12.864879358661895 $484 -0.34080152085954085 $481 $527 forward 7 unknown #
straight-curve $-1 -46.103701895199436 12.744741626690704 0.3408015208595444 0 -1 0 I I #
point $-1 -46.103701895199436 29.802433575023276 0.34080152085954085 #
straight-curve $-1 0 29.802433575023279 12.864879358661895 -1 0 0 I I #
point $-1 -46.103701895199436 29.802433575023279 12.864879358661895 #
point $-1 -38.864226750668344 25.489483253381408 5.0416294029844124 #
straight-curve $-1 -46.103701895199436 -43.566232980818505 -10.012242438704934 0 0 -1 I I #
straight-curve $-1 46.103701895199436 -43.566232980818505 -10.012242438704934 0 0 -1 I I #
straight-curve $-1 -46.103701895199436 29.802433575023279 0 0 0 -1 I I #
End-of-ACIS-data 