500 0 10 0           
7 Unknown 11 ACIS 5.0 NT 24 Fri Mar 26 00:39:06 1999 
-1 9.9999999999999995e-007 1e-010 
body $-1 $10 $-1 $11 #
body $-1 $12 $-1 $13 #
body $-1 $14 $-1 $15 #
body $-1 $16 $-1 $17 #
body $-1 $18 $-1 $19 #
body $-1 $20 $-1 $21 #
body $-1 $22 $-1 $23 #
body $-1 $24 $-1 $25 #
body $-1 $26 $-1 $27 #
body $-1 $28 $-1 $29 #
lump $-1 $-1 $30 $0 #
transform $-1 1 0 0 0 1 0 0 0 1 74.26984466078676 37.035418372734497 9.8704979127553063 1 rotate no_reflect no_shear #
lump $-1 $-1 $31 $1 #
transform $-1 1 0 0 0 1 0 0 0 1 74.26984466078676 37.035418372734497 9.8704979127553063 1 rotate no_reflect no_shear #
lump $-1 $-1 $32 $2 #
transform $-1 1 0 0 0 1 0 0 0 1 74.26984466078676 37.035418372734497 9.8704979127553063 1 rotate no_reflect no_shear #
lump $-1 $-1 $33 $3 #
transform $-1 1 0 0 0 1 0 0 0 1 74.26984466078676 37.035418372734497 9.8704979127553063 1 rotate no_reflect no_shear #
lump $-1 $-1 $34 $4 #
transform $-1 1 0 0 0 1 0 0 0 1 74.26984466078676 37.035418372734497 9.8704979127553063 1 rotate no_reflect no_shear #
lump $-1 $-1 $35 $5 #
transform $-1 1 0 0 0 1 0 0 0 1 74.26984466078676 37.035418372734497 9.8704979127553063 1 rotate no_reflect no_shear #
lump $-1 $-1 $36 $6 #
transform $-1 1 0 0 0 1 0 0 0 1 74.26984466078676 37.035418372734497 9.8704979127553063 1 rotate no_reflect no_shear #
lump $-1 $-1 $37 $7 #
transform $-1 1 0 0 0 1 0 0 0 1 74.26984466078676 37.035418372734497 9.8704979127553063 1 rotate no_reflect no_shear #
lump $-1 $-1 $38 $8 #
transform $-1 1 0 0 0 1 0 0 0 1 74.26984466078676 37.035418372734497 9.8704979127553063 1 rotate no_reflect no_shear #
lump $-1 $-1 $39 $9 #
transform $-1 1 0 0 0 1 0 0 0 1 74.26984466078676 37.035418372734497 9.8704979127553063 1 rotate no_reflect no_shear #
shell $-1 $-1 $-1 $40 $-1 $10 #
shell $-1 $-1 $-1 $41 $-1 $12 #
shell $-1 $-1 $-1 $42 $-1 $14 #
shell $-1 $-1 $-1 $43 $-1 $16 #
shell $-1 $-1 $-1 $44 $-1 $18 #
shell $-1 $-1 $-1 $45 $-1 $20 #
shell $-1 $-1 $-1 $46 $-1 $22 #
shell $-1 $-1 $-1 $47 $-1 $24 #
shell $-1 $-1 $-1 $48 $-1 $26 #
shell $-1 $-1 $-1 $49 $-1 $28 #
face $-1 $50 $51 $30 $-1 $52 forward single #
face $-1 $53 $54 $31 $-1 $55 reversed single #
face $-1 $56 $57 $32 $-1 $58 reversed single #
face $-1 $59 $60 $33 $-1 $61 forward single #
face $-1 $62 $63 $34 $-1 $64 forward single #
face $-1 $65 $66 $35 $-1 $67 reversed single #
face $-1 $68 $69 $36 $-1 $70 forward single #
face $-1 $71 $72 $37 $-1 $73 forward single #
face $-1 $74 $75 $38 $-1 $76 reversed single #
face $-1 $77 $78 $39 $-1 $79 forward single #
face $-1 $80 $81 $30 $-1 $82 reversed single #
loop $-1 $-1 $83 $40 #
plane-surface $-1 0 0 9.8704979127553063 0 0 1 1 0 0 forward_v I I I I #
face $-1 $84 $85 $31 $-1 $86 reversed single #
loop $-1 $-1 $87 $41 #
plane-surface $-1 0 -33.713141980482405 5.437976516624162 0 0 1 1 0 0 forward_v I I I I #
face $-1 $88 $89 $32 $-1 $90 reversed single #
loop $-1 $-1 $91 $42 #
plane-surface $-1 -184.65634738822033 -10.603242146054827 100.53078938180377 0 1 0 -0.74314483375859142 0 0.66913059716165679 forward_v I I I I #
face $-1 $92 $93 $33 $-1 $94 forward single #
loop $-1 $95 $96 $43 #
cone-surface $-1 -69.612246995989224 -8.0347589879971402 4.8503989838100665 0.74314483375859142 0 -0.66913059716165679 0.66913059716165679 0 0.74314483375859142 1 I I 0 1 1 forward I I I I #
face $-1 $97 $98 $34 $-1 $99 forward single #
loop $-1 $100 $101 $44 #
cone-surface $-1 -69.612246995989224 -4.1820342509106041 4.8503989838100665 0.74314483375859142 0 -0.66913059716165679 0.66913059716165679 0 0.74314483375859142 1 I I 0 1 1 forward I I I I #
face $-1 $102 $103 $35 $-1 $104 reversed single #
loop $-1 $-1 $105 $45 #
plane-surface $-1 -184.65634738822033 8.2581038773571134 100.53078938180377 0 1 0 -0.74314483375859142 0 0.66913059716165679 forward_v I I I I #
face $-1 $106 $107 $36 $-1 $108 forward single #
loop $-1 $109 $110 $46 #
cone-surface $-1 -69.612246995989224 10.826587035414803 4.8503989838100665 0.74314483375859142 0 -0.66913059716165679 0.66913059716165679 0 0.74314483375859142 1 I I 0 1 1 forward I I I I #
face $-1 $111 $112 $37 $-1 $113 forward single #
loop $-1 $114 $115 $47 #
cone-surface $-1 -69.612246995989224 14.679311772501336 4.8503989838100665 0.74314483375859142 0 -0.66913059716165679 0.66913059716165679 0 0.74314483375859142 1 I I 0 1 1 forward I I I I #
face $-1 $116 $117 $38 $-1 $118 reversed single #
loop $-1 $-1 $119 $48 #
plane-surface $-1 107.13154178655282 22.032260330669118 209.15379660424799 0 -1 0 -0.80901700255871778 0 -0.5877852410284794 forward_v I I I I #
face $-1 $120 $121 $39 $-1 $122 forward single #
loop $-1 $123 $124 $49 #
cone-surface $-1 69.19421973114342 14.571991731582237 4.2477269592951892 -0.80901700255871778 0 -0.5877852410284794 0.8816778615427191 0 -1.2135255038380768 1 I I 0 1 1.5 forward I I I I #
face $-1 $125 $126 $30 $-1 $127 reversed single #
loop $-1 $-1 $128 $50 #
plane-surface $-1 0 0 -9.8704979127553063 0 0 1 1 0 0 forward_v I I I I #
coedge $-1 $129 $130 $131 $132 forward $51 $-1 #
face $-1 $133 $134 $31 $-1 $135 reversed single #
loop $-1 $-1 $136 $53 #
plane-surface $-1 0 -30.390865588230309 7.6542372146897346 0 -1 0 0 0 -1 forward_v I I I I #
coedge $-1 $137 $138 $139 $140 reversed $54 $-1 #
face $-1 $141 $142 $32 $-1 $143 reversed single #
loop $-1 $-1 $144 $56 #
plane-surface $-1 -74.26984466078676 -6.1083966194538704 1.1383383638523128 -0.74314483375859142 0 0.66913059716165679 0.66913059716165679 0 0.74314483375859142 forward_v I I I I #
coedge $-1 $145 $146 $147 $148 reversed $57 $-1 #
face $-1 $-1 $149 $33 $-1 $150 forward single #
loop $-1 $151 $152 $59 #
cone-surface $-1 -68.514312703113148 -8.0347589879971402 3.861814530735499 0.74314483375859142 0 -0.66913059716165679 0.3345652985808284 0 0.37157241687929571 1 I I -0.70710678118654746 0.70710678118654746 0.5 forward I I I I #
loop $-1 $-1 $153 $43 #
coedge $-1 $96 $96 $154 $155 reversed $60 $-1 #
face $-1 $-1 $156 $34 $-1 $157 forward single #
loop $-1 $158 $159 $62 #
cone-surface $-1 -68.514312703113148 -4.1820342509106041 3.861814530735499 0.74314483375859142 0 -0.66913059716165679 0.3345652985808284 0 0.37157241687929571 1 I I -0.70710678118654746 0.70710678118654746 0.5 forward I I I I #
loop $-1 $-1 $160 $44 #
coedge $-1 $101 $101 $161 $162 reversed $63 $-1 #
face $-1 $163 $164 $35 $-1 $165 reversed single #
loop $-1 $-1 $166 $65 #
plane-surface $-1 -74.26984466078676 12.75294940395807 1.1383383638523128 -0.74314483375859142 0 0.66913059716165679 0.66913059716165679 0 0.74314483375859142 forward_v I I I I #
coedge $-1 $167 $168 $169 $170 reversed $66 $-1 #
face $-1 $-1 $171 $36 $-1 $172 forward single #
loop $-1 $173 $174 $68 #
cone-surface $-1 -68.514312703113148 10.826587035414803 3.861814530735499 0.74314483375859142 0 -0.66913059716165679 0.3345652985808284 0 0.37157241687929571 1 I I -0.70710678118654746 0.70710678118654746 0.5 forward I I I I #
loop $-1 $-1 $175 $46 #
coedge $-1 $110 $110 $176 $177 reversed $69 $-1 #
face $-1 $-1 $178 $37 $-1 $179 forward single #
loop $-1 $180 $181 $71 #
cone-surface $-1 -68.514312703113148 14.679311772501336 3.861814530735499 0.74314483375859142 0 -0.66913059716165679 0.3345652985808284 0 0.37157241687929571 1 I I -0.70710678118654746 0.70710678118654746 0.5 forward I I I I #
loop $-1 $-1 $182 $47 #
coedge $-1 $115 $115 $183 $184 reversed $72 $-1 #
face $-1 $185 $186 $38 $-1 $187 reversed single #
loop $-1 $-1 $188 $74 #
plane-surface $-1 -13.039592429389771 14.571991731582237 121.84435951407144 0.80901700255871778 0 0.5877852410284794 0.5877852410284794 0 -0.80901700255871778 forward_v I I I I #
coedge $-1 $189 $190 $191 $192 reversed $75 $-1 #
face $-1 $-1 $193 $39 $-1 $194 forward single #
loop $-1 $195 $196 $77 #
cone-surface $-1 66.489665546482541 14.571991731582237 2.2827533823769439 -0.80901700255871778 0 -0.5877852410284794 0.44083893077135955 0 -0.60676275191903839 1 I I -0.70710678118654757 0.70710678118654757 0.75 forward I I I I #
loop $-1 $-1 $197 $49 #
coedge $-1 $124 $124 $198 $199 reversed $78 $-1 #
face $-1 $200 $201 $30 $-1 $202 reversed single #
loop $-1 $-1 $203 $80 #
plane-surface $-1 0 -37.035418372734497 0 0 1 0 0 0 1 forward_v I I I I #
coedge $-1 $204 $205 $206 $207 forward $81 $-1 #
coedge $-1 $208 $83 $209 $210 forward $51 $-1 #
coedge $-1 $83 $208 $211 $212 forward $51 $-1 #
coedge $-1 $213 $214 $83 $132 reversed $215 $-1 #
edge $-1 $216 -37.035418372734497 $217 37.035418372734497 $131 $218 forward 7 unknown #
face $-1 $219 $220 $31 $-1 $221 reversed single #
loop $-1 $-1 $222 $84 #
plane-surface $-1 -74.26984466078676 0 0 1 0 0 0 0 -1 forward_v I I I I #
coedge $-1 $223 $224 $225 $226 reversed $85 $-1 #
coedge $-1 $227 $87 $228 $229 reversed $54 $-1 #
coedge $-1 $87 $227 $223 $230 forward $54 $-1 #
coedge $-1 $225 $231 $87 $140 forward $232 $-1 #
edge $-1 $233 -20.178847382493295 $234 -13.534294597989106 $139 $235 forward 7 unknown #
face $-1 $236 $237 $32 $-1 $238 forward single #
loop $-1 $-1 $239 $88 #
plane-surface $-1 -184.65634738822033 -1.613551092852914 100.53078938180377 0 -1 0 0.74314483375859142 0 -0.66913059716165679 forward_v I I I I #
coedge $-1 $240 $241 $242 $243 reversed $89 $-1 #
coedge $-1 $146 $91 $244 $245 reversed $57 $-1 #
coedge $-1 $91 $145 $240 $246 reversed $57 $-1 #
coedge $-1 $242 $247 $91 $148 forward $237 $-1 #
edge $-1 $248 18.058329033323403 $249 25.920800610924914 $147 $250 forward 7 unknown #
loop $-1 $-1 $154 $92 #
plane-surface $-1 -74.26984466078676 -6.1083966194538704 1.1383383638523128 -0.74314483375859142 0 0.66913059716165679 0.66913059716165679 0 0.74314483375859142 forward_v I I I I #
loop $-1 $-1 $251 $59 #
coedge $-1 $152 $152 $153 $252 reversed $93 $-1 #
coedge $-1 $153 $153 $152 $252 forward $95 $-1 #
coedge $-1 $154 $154 $96 $155 forward $149 $-1 #
edge $-1 $253 0 $253 6.2831853071796004 $154 $254 forward 7 unknown #
loop $-1 $-1 $161 $97 #
plane-surface $-1 -74.26984466078676 -6.1083966194538704 1.1383383638523128 -0.74314483375859142 0 0.66913059716165679 0.66913059716165679 0 0.74314483375859142 forward_v I I I I #
loop $-1 $-1 $255 $62 #
coedge $-1 $159 $159 $160 $256 reversed $98 $-1 #
coedge $-1 $160 $160 $159 $256 forward $100 $-1 #
coedge $-1 $161 $161 $101 $162 forward $156 $-1 #
edge $-1 $257 0 $257 6.2831853071796004 $161 $258 forward 7 unknown #
face $-1 $259 $260 $35 $-1 $261 forward single #
loop $-1 $-1 $262 $102 #
plane-surface $-1 -184.65634738822033 17.247794930559024 100.53078938180377 0 -1 0 0.74314483375859142 0 -0.66913059716165679 forward_v I I I I #
coedge $-1 $263 $264 $265 $266 reversed $103 $-1 #
coedge $-1 $168 $105 $267 $268 reversed $66 $-1 #
coedge $-1 $105 $167 $263 $269 reversed $66 $-1 #
coedge $-1 $265 $270 $105 $170 forward $260 $-1 #
edge $-1 $271 18.058329033323403 $272 25.920800610924914 $169 $273 forward 7 unknown #
loop $-1 $-1 $176 $106 #
plane-surface $-1 -74.26984466078676 12.75294940395807 1.1383383638523128 -0.74314483375859142 0 0.66913059716165679 0.66913059716165679 0 0.74314483375859142 forward_v I I I I #
loop $-1 $-1 $274 $68 #
coedge $-1 $174 $174 $175 $275 reversed $107 $-1 #
coedge $-1 $175 $175 $174 $275 forward $109 $-1 #
coedge $-1 $176 $176 $110 $177 forward $171 $-1 #
edge $-1 $276 0 $276 6.2831853071796004 $176 $277 forward 7 unknown #
loop $-1 $-1 $183 $111 #
plane-surface $-1 -74.26984466078676 12.75294940395807 1.1383383638523128 -0.74314483375859142 0 0.66913059716165679 0.66913059716165679 0 0.74314483375859142 forward_v I I I I #
loop $-1 $-1 $278 $71 #
coedge $-1 $181 $181 $182 $279 reversed $112 $-1 #
coedge $-1 $182 $182 $181 $279 forward $114 $-1 #
coedge $-1 $183 $183 $115 $184 forward $178 $-1 #
edge $-1 $280 0 $280 6.2831853071796004 $183 $281 forward 7 unknown #
face $-1 $282 $283 $38 $-1 $284 reversed single #
loop $-1 $-1 $285 $116 #
plane-surface $-1 107.13154178655282 7.1117231324953565 209.15379660424799 0 1 0 0.80901700255871778 0 0.5877852410284794 forward_v I I I I #
coedge $-1 $286 $287 $288 $289 reversed $117 $-1 #
coedge $-1 $190 $119 $290 $291 reversed $75 $-1 #
coedge $-1 $119 $189 $286 $292 reversed $75 $-1 #
coedge $-1 $288 $293 $119 $192 forward $294 $-1 #
edge $-1 $295 -20.704073767510351 $296 -14.748406773707387 $191 $297 forward 7 unknown #
loop $-1 $-1 $198 $120 #
plane-surface $-1 -13.039592429389771 14.571991731582237 121.84435951407144 0.80901700255871778 0 0.5877852410284794 0.5877852410284794 0 -0.80901700255871778 forward_v I I I I #
loop $-1 $-1 $298 $77 #
coedge $-1 $196 $196 $197 $299 reversed $121 $-1 #
coedge $-1 $197 $197 $196 $299 forward $123 $-1 #
coedge $-1 $198 $198 $124 $199 forward $193 $-1 #
edge $-1 $300 0 $300 6.2831853071796004 $198 $301 forward 7 unknown #
face $-1 $302 $303 $30 $-1 $304 reversed single #
loop $-1 $-1 $305 $125 #
plane-surface $-1 -74.26984466078676 0 0 1 0 0 0 0 -1 forward_v I I I I #
coedge $-1 $306 $211 $307 $308 forward $126 $-1 #
coedge $-1 $309 $128 $306 $310 forward $81 $-1 #
coedge $-1 $128 $309 $311 $312 forward $81 $-1 #
coedge $-1 $214 $213 $128 $207 reversed $215 $-1 #
edge $-1 $313 -37.035418372734497 $314 37.035418372734497 $206 $315 forward 7 unknown #
coedge $-1 $130 $129 $316 $317 forward $51 $-1 #
coedge $-1 $318 $319 $129 $210 reversed $303 $-1 #
edge $-1 $217 -74.26984466078676 $320 74.26984466078676 $209 $321 forward 7 unknown #
coedge $-1 $203 $322 $130 $212 reversed $126 $-1 #
edge $-1 $323 -74.26984466078676 $216 74.26984466078676 $211 $324 forward 7 unknown #
coedge $-1 $206 $131 $322 $325 forward $215 $-1 #
coedge $-1 $131 $206 $318 $326 reversed $215 $-1 #
loop $-1 $-1 $213 $302 #
vertex $-1 $132 $327 #
vertex $-1 $132 $328 #
straight-curve $-1 74.26984466078676 0 9.8704979127553063 0 1 0 I I #
face $-1 $329 $330 $31 $-1 $331 forward single #
loop $-1 $-1 $228 $133 #
plane-surface $-1 0 -37.035418372734497 0 0 1 0 0 0 1 forward_v I I I I #
coedge $-1 $332 $333 $334 $335 forward $134 $-1 #
coedge $-1 $334 $136 $138 $230 reversed $85 $-1 #
coedge $-1 $136 $334 $336 $337 reversed $85 $-1 #
coedge $-1 $338 $139 $136 $226 forward $232 $-1 #
edge $-1 $234 1.6108579092792947 $339 6.0433793054104408 $225 $340 forward 7 unknown #
coedge $-1 $138 $137 $332 $341 reversed $54 $-1 #
coedge $-1 $342 $343 $137 $229 forward $220 $-1 #
edge $-1 $344 -74.26984466078676 $233 74.26984466078676 $228 $345 forward 7 unknown #
edge $-1 $346 -74.26984466078676 $234 74.26984466078676 $223 $347 forward 7 unknown #
coedge $-1 $139 $338 $342 $348 forward $232 $-1 #
loop $-1 $-1 $225 $329 #
vertex $-1 $229 $349 #
vertex $-1 $140 $350 #
straight-curve $-1 74.26984466078676 -16.856570990241202 5.437976516624162 0 1 0 I I #
face $-1 $-1 $351 $32 $-1 $352 reversed single #
loop $-1 $-1 $147 $141 #
plane-surface $-1 0 0 9.8704979127553063 0 0 1 1 0 0 forward_v I I I I #
coedge $-1 $353 $354 $355 $356 reversed $142 $-1 #
coedge $-1 $357 $144 $146 $246 forward $89 $-1 #
coedge $-1 $144 $357 $353 $358 forward $89 $-1 #
coedge $-1 $355 $147 $144 $243 forward $237 $-1 #
edge $-1 $249 -7.5490438363278916 $359 1.4406472168740212 $242 $360 forward 7 unknown #
coedge $-1 $361 $362 $145 $245 forward $351 $-1 #
edge $-1 $363 -49.127056327049573 $248 -40.394896778146581 $244 $364 forward 7 unknown #
edge $-1 $249 -11.750279558210064 $363 0 $146 $365 forward 7 unknown #
coedge $-1 $147 $355 $361 $366 forward $237 $-1 #
vertex $-1 $245 $367 #
vertex $-1 $148 $368 #
straight-curve $-1 -92.328173694110163 -10.603242146054827 9.8704979127553045 1 0 0 I I #
coedge $-1 $251 $251 $-1 $369 reversed $151 $-1 #
edge $-1 $370 0 $370 6.2831853071796004 $152 $371 forward 7 unknown #
vertex $-1 $155 $372 #
ellipse-curve $-1 -70.338608871986011 -8.0347589879971402 5.5044181383038087 -0.74314483375859142 0 0.66913059716165679 0.66913059716165679 0 0.74314483375859142 1 I I #
coedge $-1 $255 $255 $-1 $373 reversed $158 $-1 #
edge $-1 $374 0 $374 6.2831853071796004 $159 $375 forward 7 unknown #
vertex $-1 $162 $376 #
ellipse-curve $-1 -70.338608871986011 -4.1820342509106041 5.5044181383038087 -0.74314483375859142 0 0.66913059716165679 0.66913059716165679 0 0.74314483375859142 1 I I #
face $-1 $-1 $377 $35 $-1 $378 reversed single #
loop $-1 $-1 $169 $163 #
plane-surface $-1 0 0 9.8704979127553063 0 0 1 1 0 0 forward_v I I I I #
coedge $-1 $379 $380 $381 $382 reversed $164 $-1 #
coedge $-1 $383 $166 $168 $269 forward $103 $-1 #
coedge $-1 $166 $383 $379 $384 forward $103 $-1 #
coedge $-1 $381 $169 $166 $266 forward $260 $-1 #
edge $-1 $272 1.8816291753780785 $385 10.871320228579989 $265 $386 forward 7 unknown #
coedge $-1 $387 $388 $167 $268 forward $377 $-1 #
edge $-1 $389 -49.127056327049573 $271 -40.394896778146581 $267 $390 forward 7 unknown #
edge $-1 $272 -11.750279558210064 $389 0 $168 $391 forward 7 unknown #
coedge $-1 $169 $381 $387 $392 forward $260 $-1 #
vertex $-1 $170 $393 #
vertex $-1 $170 $394 #
straight-curve $-1 -92.328173694110163 8.2581038773571134 9.8704979127553045 1 0 0 I I #
coedge $-1 $274 $274 $-1 $395 reversed $173 $-1 #
edge $-1 $396 0 $396 6.2831853071796004 $174 $397 forward 7 unknown #
vertex $-1 $177 $398 #
ellipse-curve $-1 -70.338608871986011 10.826587035414803 5.5044181383038087 -0.74314483375859142 0 0.66913059716165679 0.66913059716165679 0 0.74314483375859142 1 I I #
coedge $-1 $278 $278 $-1 $399 reversed $180 $-1 #
edge $-1 $400 0 $400 6.2831853071796004 $181 $401 forward 7 unknown #
vertex $-1 $184 $402 #
ellipse-curve $-1 -70.338608871986011 14.679311772501336 5.5044181383038087 -0.74314483375859142 0 0.66913059716165679 0.66913059716165679 0 0.74314483375859142 1 I I #
face $-1 $-1 $294 $38 $-1 $403 forward single #
loop $-1 $-1 $404 $185 #
plane-surface $-1 74.26984466078676 0 0 -1 0 0 0 0 1 forward_v I I I I #
coedge $-1 $405 $406 $407 $408 reversed $186 $-1 #
coedge $-1 $409 $188 $190 $292 forward $117 $-1 #
coedge $-1 $188 $409 $405 $410 forward $117 $-1 #
coedge $-1 $407 $191 $188 $289 forward $294 $-1 #
edge $-1 $296 -14.746264464877999 $411 0.17427273329576209 $288 $412 forward 7 unknown #
coedge $-1 $413 $414 $189 $291 forward $283 $-1 #
edge $-1 $415 -102.90367300399514 $295 -94.706400389368682 $290 $416 forward 7 unknown #
edge $-1 $296 138.40730324229392 $415 148.53968932157352 $190 $417 forward 7 unknown #
coedge $-1 $191 $407 $413 $418 forward $294 $-1 #
loop $-1 $-1 $407 $282 #
vertex $-1 $291 $419 #
vertex $-1 $192 $420 #
straight-curve $-1 53.565770893276408 22.032260330669118 9.8704979127553116 -1 0 0 I I #
coedge $-1 $298 $298 $-1 $421 reversed $195 $-1 #
edge $-1 $422 0 $422 6.2831853071796004 $196 $423 forward 7 unknown #
vertex $-1 $199 $424 #
ellipse-curve $-1 71.292011163885277 14.571991731582237 5.7718616054420862 0.80901700255871778 0 0.5877852410284794 0.8816778615427191 0 -1.2135255038380768 1 I I #
face $-1 $-1 $215 $30 $-1 $425 reversed single #
loop $-1 $-1 $318 $200 #
plane-surface $-1 0 37.035418372734497 0 0 -1 0 0 0 -1 forward_v I I I I #
coedge $-1 $426 $316 $319 $427 forward $201 $-1 #
coedge $-1 $322 $203 $204 $310 reversed $126 $-1 #
coedge $-1 $316 $426 $203 $308 reversed $201 $-1 #
edge $-1 $323 -9.8704979127553063 $428 9.8704979127553063 $307 $429 forward 7 unknown #
coedge $-1 $205 $204 $426 $430 forward $81 $-1 #
edge $-1 $314 -74.26984466078676 $428 74.26984466078676 $306 $431 forward 7 unknown #
coedge $-1 $319 $318 $205 $312 reversed $303 $-1 #
edge $-1 $432 -74.26984466078676 $313 74.26984466078676 $311 $433 forward 7 unknown #
vertex $-1 $207 $434 #
vertex $-1 $325 $435 #
straight-curve $-1 74.26984466078676 0 -9.8704979127553063 0 -1 0 I I #
coedge $-1 $305 $307 $208 $317 reversed $201 $-1 #
edge $-1 $320 -37.035418372734497 $323 37.035418372734497 $316 $436 forward 7 unknown #
coedge $-1 $311 $209 $214 $326 forward $303 $-1 #
coedge $-1 $209 $311 $305 $427 reversed $303 $-1 #
vertex $-1 $210 $437 #
straight-curve $-1 0 37.035418372734497 9.8704979127553063 -1 0 0 I I #
coedge $-1 $211 $306 $213 $325 reversed $126 $-1 #
vertex $-1 $317 $438 #
straight-curve $-1 0 -37.035418372734497 9.8704979127553063 1 0 0 I I #
edge $-1 $216 -9.8704979127553063 $314 9.8704979127553063 $213 $439 forward 7 unknown #
edge $-1 $217 -9.8704979127553063 $313 9.8704979127553063 $214 $440 forward 7 unknown #
point $-1 74.26984466078676 -37.035418372734497 9.8704979127553063 #
point $-1 74.26984466078676 37.035418372734497 9.8704979127553063 #
face $-1 $-1 $232 $31 $-1 $441 reversed single #
loop $-1 $-1 $336 $219 #
plane-surface $-1 0 0 9.8704979127553063 0 0 1 1 0 0 forward_v I I I I #
coedge $-1 $442 $222 $227 $341 forward $134 $-1 #
coedge $-1 $222 $442 $443 $444 reversed $134 $-1 #
coedge $-1 $224 $223 $222 $335 reversed $85 $-1 #
edge $-1 $445 -6.0433793054104408 $346 -1.6108579092792947 $222 $446 forward 7 unknown #
coedge $-1 $443 $447 $224 $337 forward $330 $-1 #
edge $-1 $339 -74.26984466078676 $445 74.26984466078676 $336 $448 forward 7 unknown #
coedge $-1 $231 $225 $447 $449 reversed $232 $-1 #
vertex $-1 $226 $450 #
straight-curve $-1 74.26984466078676 -30.390865588230309 3.8271186073448673 0 0 1 I I #
edge $-1 $346 13.534294597989106 $344 20.178847382493295 $332 $451 forward 7 unknown #
coedge $-1 $452 $228 $231 $348 reversed $220 $-1 #
coedge $-1 $228 $452 $442 $453 forward $220 $-1 #
vertex $-1 $229 $454 #
straight-curve $-1 0 -37.035418372734497 5.437976516624162 1 0 0 I I #
vertex $-1 $341 $455 #
straight-curve $-1 0 -30.390865588230309 5.437976516624162 1 0 0 I I #
edge $-1 $456 -9.8704979127553063 $233 -5.437976516624162 $231 $457 forward 7 unknown #
point $-1 74.26984466078676 -37.035418372734497 5.437976516624162 #
point $-1 74.26984466078676 -30.390865588230309 5.437976516624162 #
loop $-1 $-1 $244 $236 #
plane-surface $-1 -74.26984466078676 0 0 1 0 0 0 0 -1 forward_v I I I I #
coedge $-1 $354 $239 $241 $358 reversed $142 $-1 #
coedge $-1 $239 $353 $458 $459 reversed $142 $-1 #
coedge $-1 $247 $242 $239 $356 forward $237 $-1 #
edge $-1 $359 -25.920800610924914 $460 -18.058329033323403 $355 $461 forward 7 unknown #
coedge $-1 $241 $240 $362 $462 reversed $89 $-1 #
edge $-1 $463 0 $359 11.750279558210064 $353 $464 forward 7 unknown #
vertex $-1 $243 $465 #
straight-curve $-1 -66.407373083185249 -3.0541983097269352 9.8704979127553063 0 1 0 I I #
coedge $-1 $458 $244 $247 $366 reversed $351 $-1 #
coedge $-1 $244 $458 $357 $462 forward $351 $-1 #
vertex $-1 $245 $466 #
straight-curve $-1 -74.26984466078676 -10.603242146054827 50.265394690901886 0 0 1 I I #
straight-curve $-1 -74.26984466078676 -10.603242146054827 1.1383383638523128 -0.66913059716165679 0 -0.74314483375859142 I I #
edge $-1 $460 1.613551092852914 $248 10.603242146054827 $361 $467 forward 7 unknown #
point $-1 -74.26984466078676 -10.603242146054827 9.8704979127553063 #
point $-1 -66.407373083185249 -10.603242146054827 9.8704979127553063 #
edge $-1 $468 1 $468 0 $251 $-1 forward 7 unknown #
vertex $-1 $252 $469 #
ellipse-curve $-1 -68.885885119992437 -8.0347589879971402 4.196379829316327 -0.74314483375859142 0 0.66913059716165679 0.66913059716165679 0 0.74314483375859142 1 I I #
point $-1 -69.669478274824343 -8.0347589879971402 6.247562972062398 #
edge $-1 $470 1 $470 0 $255 $-1 forward 7 unknown #
vertex $-1 $256 $471 #
ellipse-curve $-1 -68.885885119992437 -4.1820342509106041 4.196379829316327 -0.74314483375859142 0 0.66913059716165679 0.66913059716165679 0 0.74314483375859142 1 I I #
point $-1 -69.669478274824343 -4.1820342509106041 6.247562972062398 #
loop $-1 $-1 $267 $259 #
plane-surface $-1 -74.26984466078676 0 0 1 0 0 0 0 -1 forward_v I I I I #
coedge $-1 $380 $262 $264 $384 reversed $164 $-1 #
coedge $-1 $262 $379 $472 $473 reversed $164 $-1 #
coedge $-1 $270 $265 $262 $382 forward $260 $-1 #
edge $-1 $385 -25.920800610924914 $474 -18.058329033323403 $381 $475 forward 7 unknown #
coedge $-1 $264 $263 $388 $476 reversed $103 $-1 #
edge $-1 $477 0 $385 11.750279558210064 $379 $478 forward 7 unknown #
vertex $-1 $266 $479 #
straight-curve $-1 -66.407373083185249 6.3764747019790349 9.8704979127553063 0 1 0 I I #
coedge $-1 $472 $267 $270 $392 reversed $377 $-1 #
coedge $-1 $267 $472 $383 $476 forward $377 $-1 #
vertex $-1 $268 $480 #
straight-curve $-1 -74.26984466078676 8.2581038773571134 50.265394690901886 0 0 1 I I #
straight-curve $-1 -74.26984466078676 8.2581038773571134 1.1383383638523128 -0.66913059716165679 0 -0.74314483375859142 I I #
edge $-1 $474 -17.247794930559024 $271 -8.2581038773571134 $387 $481 forward 7 unknown #
point $-1 -74.26984466078676 8.2581038773571134 9.8704979127553063 #
point $-1 -66.407373083185249 8.2581038773571134 9.8704979127553063 #
edge $-1 $482 1 $482 0 $274 $-1 forward 7 unknown #
vertex $-1 $275 $483 #
ellipse-curve $-1 -68.885885119992437 10.826587035414803 4.196379829316327 -0.74314483375859142 0 0.66913059716165679 0.66913059716165679 0 0.74314483375859142 1 I I #
point $-1 -69.669478274824343 10.826587035414803 6.247562972062398 #
edge $-1 $484 1 $484 0 $278 $-1 forward 7 unknown #
vertex $-1 $279 $485 #
ellipse-curve $-1 -68.885885119992437 14.679311772501336 4.196379829316327 -0.74314483375859142 0 0.66913059716165679 0.66913059716165679 0 0.74314483375859142 1 I I #
point $-1 -69.669478274824343 14.679311772501336 6.247562972062398 #
plane-surface $-1 0 0 9.8704979127553063 0 0 1 1 0 0 forward_v I I I I #
coedge $-1 $414 $413 $406 $486 forward $283 $-1 #
coedge $-1 $406 $285 $287 $410 reversed $186 $-1 #
coedge $-1 $285 $405 $404 $486 reversed $186 $-1 #
coedge $-1 $293 $288 $285 $408 forward $294 $-1 #
edge $-1 $411 14.748406773707387 $487 20.704073767510351 $407 $488 forward 7 unknown #
coedge $-1 $287 $286 $414 $489 reversed $117 $-1 #
edge $-1 $490 -148.53968932157352 $411 -138.40730324229392 $405 $491 forward 7 unknown #
vertex $-1 $289 $492 #
straight-curve $-1 68.314177666983795 7.2859958657911186 9.8704979127553116 0 -1 0 I I #
coedge $-1 $404 $290 $293 $418 reversed $283 $-1 #
coedge $-1 $290 $404 $409 $489 forward $283 $-1 #
vertex $-1 $291 $493 #
straight-curve $-1 74.26984466078676 22.032260330669118 104.57689830212399 0 0 1 I I #
straight-curve $-1 -13.039592429389771 22.032260330669118 121.84435951407144 0.5877852410284794 0 -0.80901700255871778 I I #
edge $-1 $487 7.1117231324953565 $295 22.032260330669118 $413 $494 forward 7 unknown #
point $-1 74.26984466078676 22.032260330669118 9.8704979127553063 #
point $-1 68.314177666983795 22.032260330669118 9.8704979127553116 #
edge $-1 $495 1 $495 0 $298 $-1 forward 7 unknown #
vertex $-1 $299 $496 #
ellipse-curve $-1 67.096428298401577 14.571991731582237 2.7235923131483033 0.80901700255871778 0 0.5877852410284794 0.8816778615427191 0 -1.2135255038380768 1 I I #
point $-1 72.17368902542799 14.571991731582237 4.5583361016039978 #
plane-surface $-1 74.26984466078676 0 0 -1 0 0 0 0 1 forward_v I I I I #
coedge $-1 $307 $305 $309 $430 reversed $201 $-1 #
edge $-1 $320 -9.8704979127553063 $432 9.8704979127553063 $319 $497 forward 7 unknown #
vertex $-1 $430 $498 #
straight-curve $-1 -74.26984466078676 -37.035418372734497 0 0 0 -1 I I #
edge $-1 $428 -37.035418372734497 $432 37.035418372734497 $426 $499 forward 7 unknown #
straight-curve $-1 0 -37.035418372734497 -9.8704979127553063 -1 0 0 I I #
vertex $-1 $312 $500 #
straight-curve $-1 0 37.035418372734497 -9.8704979127553063 1 0 0 I I #
point $-1 74.26984466078676 37.035418372734497 -9.8704979127553063 #
point $-1 74.26984466078676 -37.035418372734497 -9.8704979127553063 #
straight-curve $-1 -74.26984466078676 0 9.8704979127553063 0 -1 0 I I #
point $-1 -74.26984466078676 37.035418372734497 9.8704979127553063 #
point $-1 -74.26984466078676 -37.035418372734497 9.8704979127553063 #
straight-curve $-1 74.26984466078676 -37.035418372734497 0 0 0 -1 I I #
straight-curve $-1 74.26984466078676 37.035418372734497 0 0 0 -1 I I #
plane-surface $-1 74.26984466078676 0 0 -1 0 0 0 0 1 forward_v I I I I #
coedge $-1 $333 $332 $343 $453 reversed $134 $-1 #
coedge $-1 $501 $336 $333 $444 forward $330 $-1 #
edge $-1 $445 30.390865588230309 $502 37.035418372734497 $333 $503 forward 7 unknown #
vertex $-1 $444 $504 #
straight-curve $-1 -74.26984466078676 -30.390865588230309 3.8271186073448673 0 0 -1 I I #
coedge $-1 $336 $501 $338 $449 forward $330 $-1 #
straight-curve $-1 0 -30.390865588230309 9.8704979127553063 -1 0 0 I I #
edge $-1 $456 -37.035418372734497 $339 -30.390865588230309 $338 $505 forward 7 unknown #
point $-1 74.26984466078676 -30.390865588230309 9.8704979127553081 #
straight-curve $-1 -74.26984466078676 -16.856570990241202 5.437976516624162 0 -1 0 I I #
coedge $-1 $343 $342 $501 $506 reversed $220 $-1 #
edge $-1 $502 -9.8704979127553063 $344 -5.437976516624162 $442 $507 forward 7 unknown #
point $-1 -74.26984466078676 -37.035418372734497 5.437976516624162 #
point $-1 -74.26984466078676 -30.390865588230309 5.437976516624162 #
vertex $-1 $449 $508 #
straight-curve $-1 74.26984466078676 -37.035418372734497 0 0 0 -1 I I #
coedge $-1 $362 $361 $354 $459 forward $351 $-1 #
edge $-1 $460 40.394896778146581 $463 49.127056327049573 $458 $509 forward 7 unknown #
vertex $-1 $366 $510 #
straight-curve $-1 -92.328173694110163 -1.613551092852914 9.8704979127553045 -1 0 0 I I #
edge $-1 $463 -1.4406472168740212 $363 7.5490438363278916 $362 $511 forward 7 unknown #
vertex $-1 $462 $512 #
straight-curve $-1 -74.26984466078676 -1.613551092852914 1.1383383638523128 0.66913059716165679 0 0.74314483375859142 I I #
point $-1 -66.407373083185249 -1.613551092852914 9.8704979127553063 #
point $-1 -74.26984466078676 -10.603242146054827 1.1383383638523128 #
straight-curve $-1 -74.26984466078676 0 9.8704979127553063 0 -1 0 I I #
vertex $-1 $369 $513 #
point $-1 -68.216754522830783 -8.0347589879971402 4.939524663074919 #
vertex $-1 $373 $514 #
point $-1 -68.216754522830783 -4.1820342509106041 4.939524663074919 #
coedge $-1 $388 $387 $380 $473 forward $377 $-1 #
edge $-1 $474 40.394896778146581 $477 49.127056327049573 $472 $515 forward 7 unknown #
vertex $-1 $392 $516 #
straight-curve $-1 -92.328173694110163 17.247794930559024 9.8704979127553045 -1 0 0 I I #
edge $-1 $477 -10.871320228579989 $389 -1.8816291753780785 $388 $517 forward 7 unknown #
vertex $-1 $476 $518 #
straight-curve $-1 -74.26984466078676 17.247794930559024 1.1383383638523128 0.66913059716165679 0 0.74314483375859142 I I #
point $-1 -66.407373083185249 17.247794930559024 9.8704979127553063 #
point $-1 -74.26984466078676 8.2581038773571134 1.1383383638523128 #
straight-curve $-1 -74.26984466078676 0 9.8704979127553063 0 -1 0 I I #
vertex $-1 $395 $519 #
point $-1 -68.216754522830783 10.826587035414803 4.939524663074919 #
vertex $-1 $399 $520 #
point $-1 -68.216754522830783 14.679311772501336 4.939524663074919 #
edge $-1 $487 94.706400389368682 $490 102.90367300399514 $404 $521 forward 7 unknown #
vertex $-1 $418 $522 #
straight-curve $-1 53.565770893276408 7.1117231324953565 9.8704979127553116 1 0 0 I I #
edge $-1 $490 -0.17427273329576209 $415 14.746264464877999 $414 $523 forward 7 unknown #
vertex $-1 $489 $524 #
straight-curve $-1 -13.039592429389771 7.1117231324953565 121.84435951407144 -0.5877852410284794 0 0.80901700255871778 I I #
point $-1 68.314177666983795 7.1117231324953565 9.8704979127553116 #
point $-1 74.269844660786774 22.032260330669118 1.6732252981288553 #
straight-curve $-1 74.26984466078676 0 9.8704979127553063 0 1 0 I I #
vertex $-1 $421 $525 #
point $-1 67.978106159944303 14.571991731582237 1.5100668093102267 #
straight-curve $-1 -74.26984466078676 37.035418372734497 0 0 0 -1 I I #
point $-1 -74.26984466078676 -37.035418372734497 -9.8704979127553063 #
straight-curve $-1 -74.26984466078676 0 -9.8704979127553063 0 1 0 I I #
point $-1 -74.26984466078676 37.035418372734497 -9.8704979127553063 #
coedge $-1 $447 $443 $452 $506 forward $330 $-1 #
vertex $-1 $444 $526 #
straight-curve $-1 -74.26984466078676 0 9.8704979127553063 0 -1 0 I I #
point $-1 -74.26984466078676 -30.390865588230309 9.8704979127553081 #
straight-curve $-1 74.26984466078676 0 9.8704979127553063 0 1 0 I I #
edge $-1 $502 -74.26984466078676 $456 74.26984466078676 $452 $527 forward 7 unknown #
straight-curve $-1 -74.26984466078676 -37.035418372734497 0 0 0 -1 I I #
point $-1 74.26984466078676 -37.035418372734497 9.8704979127553063 #
straight-curve $-1 -74.26984466078676 -1.613551092852914 50.265394690901886 0 0 -1 I I #
point $-1 -74.26984466078676 -1.613551092852914 9.8704979127553063 #
straight-curve $-1 -74.26984466078676 -3.0541983097269352 1.1383383638523168 0 -1 0 I I #
point $-1 -74.26984466078676 -1.613551092852914 1.1383383638523128 #
point $-1 -68.14274028623386 -8.0347589879971402 3.5272492321546705 #
point $-1 -68.14274028623386 -4.1820342509106041 3.5272492321546705 #
straight-curve $-1 -74.26984466078676 17.247794930559024 50.265394690901886 0 0 -1 I I #
point $-1 -74.26984466078676 17.247794930559024 9.8704979127553063 #
straight-curve $-1 -74.26984466078676 6.3764747019790349 1.1383383638523168 0 -1 0 I I #
point $-1 -74.26984466078676 17.247794930559024 1.1383383638523128 #
point $-1 -68.14274028623386 10.826587035414803 3.5272492321546705 #
point $-1 -68.14274028623386 14.679311772501336 3.5272492321546705 #
straight-curve $-1 74.26984466078676 7.1117231324953565 104.57689830212399 0 0 -1 I I #
point $-1 74.26984466078676 7.1117231324953565 9.8704979127553063 #
straight-curve $-1 74.26984466078676 7.2859958657911186 1.6732252981288696 0 1 0 I I #
point $-1 74.269844660786774 7.1117231324953565 1.6732252981288553 #
point $-1 65.882902794563506 14.571991731582237 1.8419144516055843 #
point $-1 -74.26984466078676 -37.035418372734497 9.8704979127553063 #
straight-curve $-1 0 -37.035418372734497 9.8704979127553063 1 0 0 I I #
End-of-ACIS-data 