500 0 11 0           
7 Unknown 11 ACIS 5.0 NT 24 Fri Mar 26 18:37:26 1999 
-1 9.9999999999999995e-007 1e-010 
body $-1 $11 $-1 $12 #
body $-1 $13 $-1 $14 #
body $-1 $15 $-1 $16 #
body $-1 $17 $-1 $18 #
body $-1 $19 $-1 $20 #
body $-1 $21 $-1 $22 #
body $-1 $23 $-1 $24 #
body $-1 $25 $-1 $26 #
body $-1 $27 $-1 $28 #
body $-1 $29 $-1 $30 #
body $-1 $31 $-1 $32 #
lump $-1 $-1 $33 $0 #
transform $-1 1 0 0 0 1 0 0 0 1 67.439802240058597 27.406900069858956 12.209189743331132 1 rotate no_reflect no_shear #
lump $-1 $-1 $34 $1 #
transform $-1 1 0 0 0 1 0 0 0 1 67.439802240058597 27.406900069858956 12.209189743331132 1 rotate no_reflect no_shear #
lump $-1 $-1 $35 $2 #
transform $-1 1 0 0 0 1 0 0 0 1 67.439802240058597 27.406900069858956 12.209189743331132 1 rotate no_reflect no_shear #
lump $-1 $-1 $36 $3 #
transform $-1 1 0 0 0 1 0 0 0 1 67.439802240058597 27.406900069858956 12.209189743331132 1 rotate no_reflect no_shear #
lump $-1 $-1 $37 $4 #
transform $-1 1 0 0 0 1 0 0 0 1 67.439802240058597 27.406900069858956 12.209189743331132 1 rotate no_reflect no_shear #
lump $-1 $-1 $38 $5 #
transform $-1 1 0 0 0 1 0 0 0 1 67.439802240058597 27.406900069858956 12.209189743331132 1 rotate no_reflect no_shear #
lump $-1 $-1 $39 $6 #
transform $-1 1 0 0 0 1 0 0 0 1 67.439802240058597 27.406900069858956 12.209189743331132 1 rotate no_reflect no_shear #
lump $-1 $-1 $40 $7 #
transform $-1 1 0 0 0 1 0 0 0 1 67.439802240058597 27.406900069858956 12.209189743331132 1 rotate no_reflect no_shear #
lump $-1 $-1 $41 $8 #
transform $-1 1 0 0 0 1 0 0 0 1 67.439802240058597 27.406900069858956 12.209189743331132 1 rotate no_reflect no_shear #
lump $-1 $-1 $42 $9 #
transform $-1 1 0 0 0 1 0 0 0 1 67.439802240058597 27.406900069858956 12.209189743331132 1 rotate no_reflect no_shear #
lump $-1 $-1 $43 $10 #
transform $-1 1 0 0 0 1 0 0 0 1 67.439802240058597 27.406900069858956 12.209189743331132 1 rotate no_reflect no_shear #
shell $-1 $-1 $-1 $44 $-1 $11 #
shell $-1 $-1 $-1 $45 $-1 $13 #
shell $-1 $-1 $-1 $46 $-1 $15 #
shell $-1 $-1 $-1 $47 $-1 $17 #
shell $-1 $-1 $-1 $48 $-1 $19 #
shell $-1 $-1 $-1 $49 $-1 $21 #
shell $-1 $-1 $-1 $50 $-1 $23 #
shell $-1 $-1 $-1 $51 $-1 $25 #
shell $-1 $-1 $-1 $52 $-1 $27 #
shell $-1 $-1 $-1 $53 $-1 $29 #
shell $-1 $-1 $-1 $54 $-1 $31 #
face $-1 $55 $56 $33 $-1 $57 forward single #
face $-1 $58 $59 $34 $-1 $60 forward single #
face $-1 $61 $62 $35 $-1 $63 forward single #
face $-1 $64 $65 $36 $-1 $66 reversed single #
face $-1 $67 $68 $37 $-1 $69 forward single #
face $-1 $70 $71 $38 $-1 $72 reversed single #
face $-1 $73 $74 $39 $-1 $75 forward single #
face $-1 $76 $77 $40 $-1 $78 reversed single #
face $-1 $79 $80 $41 $-1 $81 forward single #
face $-1 $82 $83 $42 $-1 $84 reversed single #
face $-1 $85 $86 $43 $-1 $87 forward single #
face $-1 $88 $89 $33 $-1 $90 reversed single #
loop $-1 $-1 $91 $44 #
plane-surface $-1 0 0 12.209189743331132 0 0 1 1 0 0 forward_v I I I I #
face $-1 $92 $93 $34 $-1 $94 reversed single #
loop $-1 $-1 $95 $45 #
plane-surface $-1 0 -21.185735325724103 -8.036074008373399 0 0 1 1 0 0 forward_v I I I I #
face $-1 $96 $97 $35 $-1 $98 reversed single #
loop $-1 $-1 $99 $46 #
plane-surface $-1 0 21.185735325724103 -8.036074008373399 0 0 1 1 0 0 forward_v I I I I #
face $-1 $100 $101 $36 $-1 $102 reversed single #
loop $-1 $-1 $103 $47 #
plane-surface $-1 -136.90793500021829 -5.2435643413535544 121.12522893387938 0 -1 0 0.51503808176128008 0 -0.85716729658548041 forward_v I I I I #
face $-1 $104 $105 $37 $-1 $106 forward single #
loop $-1 $107 $108 $48 #
cone-surface $-1 -61.206538212142569 -8.8333661425981091 7.7627509340611569 0.51503808176128008 0 -0.85716729658548041 1.2857509448782207 0 0.77255712264192011 1 I I 0 1 1.5 forward I I I I #
face $-1 $109 $110 $38 $-1 $111 reversed single #
loop $-1 $-1 $112 $49 #
plane-surface $-1 -136.90793500021829 9.7210062402356954 121.12522893387938 0 -1 0 0.51503808176128008 0 -0.85716729658548041 forward_v I I I I #
face $-1 $113 $114 $39 $-1 $115 forward single #
loop $-1 $116 $117 $50 #
cone-surface $-1 -61.206538212142569 6.1312044389911406 7.7627509340611569 0.51503808176128008 0 -0.85716729658548041 1.2857509448782207 0 0.77255712264192011 1 I I 0 1 1.5 forward I I I I #
face $-1 $118 $119 $40 $-1 $120 reversed single #
loop $-1 $-1 $121 $51 #
plane-surface $-1 21.2935490634774 -5.2435643413535544 190.59336169403912 0 -1 0 -0.51503808176128008 0 -0.85716729658548041 forward_v I I I I #
face $-1 $122 $123 $41 $-1 $124 forward single #
loop $-1 $125 $126 $52 #
cone-surface $-1 61.206538212142569 -8.8333661425981091 7.762750934061164 -0.51503808176128008 0 -0.85716729658548041 1.2857509448782207 0 -0.77255712264192011 1 I I 0 1 1.5 forward I I I I #
face $-1 $127 $128 $42 $-1 $129 reversed single #
loop $-1 $-1 $130 $53 #
plane-surface $-1 21.2935490634774 9.7210062402356954 190.59336169403912 0 -1 0 -0.51503808176128008 0 -0.85716729658548041 forward_v I I I I #
face $-1 $131 $132 $43 $-1 $133 forward single #
loop $-1 $134 $135 $54 #
cone-surface $-1 61.206538212142569 6.1312044389911406 7.762750934061164 -0.51503808176128008 0 -0.85716729658548041 1.2857509448782207 0 -0.77255712264192011 1 I I 0 1 1.5 forward I I I I #
face $-1 $136 $137 $33 $-1 $138 reversed single #
loop $-1 $-1 $139 $55 #
plane-surface $-1 0 0 -12.209189743331132 0 0 1 1 0 0 forward_v I I I I #
coedge $-1 $140 $141 $142 $143 forward $56 $-1 #
face $-1 $144 $145 $34 $-1 $146 reversed single #
loop $-1 $-1 $147 $58 #
plane-surface $-1 0 -14.96457058158925 -10.122631875852266 0 -1 0 0 0 -1 forward_v I I I I #
coedge $-1 $148 $149 $150 $151 reversed $59 $-1 #
face $-1 $152 $153 $35 $-1 $154 reversed single #
loop $-1 $-1 $155 $61 #
plane-surface $-1 0 14.96457058158925 -10.122631875852266 0 1 0 0 0 1 forward_v I I I I #
coedge $-1 $156 $157 $158 $159 reversed $62 $-1 #
face $-1 $160 $161 $36 $-1 $162 reversed single #
loop $-1 $-1 $163 $64 #
plane-surface $-1 -67.439802240058569 -8.8333661425981091 5.5108429971384822 -0.51503808176128008 0 0.85716729658548041 0.85716729658548041 0 0.51503808176128008 forward_v I I I I #
coedge $-1 $164 $165 $166 $167 reversed $65 $-1 #
face $-1 $-1 $168 $37 $-1 $169 forward single #
loop $-1 $170 $171 $67 #
cone-surface $-1 -60.160956049668087 -8.8333661425981091 6.0226100254483921 0.51503808176128008 0 -0.85716729658548041 0.64287547243911036 0 0.38627856132096006 1 I I -0.70710678118654757 0.70710678118654757 0.75 forward I I I I #
loop $-1 $-1 $172 $48 #
coedge $-1 $108 $108 $173 $174 reversed $68 $-1 #
face $-1 $175 $176 $38 $-1 $177 reversed single #
loop $-1 $-1 $178 $70 #
plane-surface $-1 -67.439802240058569 6.1312044389911406 5.5108429971384822 -0.51503808176128008 0 0.85716729658548041 0.85716729658548041 0 0.51503808176128008 forward_v I I I I #
coedge $-1 $179 $180 $181 $182 reversed $71 $-1 #
face $-1 $-1 $183 $39 $-1 $184 forward single #
loop $-1 $185 $186 $73 #
cone-surface $-1 -60.160956049668087 6.1312044389911406 6.0226100254483921 0.51503808176128008 0 -0.85716729658548041 0.64287547243911036 0 0.38627856132096006 1 I I -0.70710678118654757 0.70710678118654757 0.75 forward I I I I #
loop $-1 $-1 $187 $50 #
coedge $-1 $117 $117 $188 $189 reversed $74 $-1 #
face $-1 $190 $191 $40 $-1 $192 reversed single #
loop $-1 $-1 $193 $76 #
plane-surface $-1 -48.174583696682319 -8.8333661425981091 74.978975757298215 0.51503808176128008 0 0.85716729658548041 0.85716729658548041 0 -0.51503808176128008 forward_v I I I I #
coedge $-1 $194 $195 $196 $197 reversed $77 $-1 #
face $-1 $-1 $198 $41 $-1 $199 forward single #
loop $-1 $200 $201 $79 #
cone-surface $-1 60.160956049668087 -8.8333661425981091 6.0226100254483992 -0.51503808176128008 0 -0.85716729658548041 0.64287547243911036 0 -0.38627856132096006 1 I I -0.70710678118654757 0.70710678118654757 0.75 forward I I I I #
loop $-1 $-1 $202 $52 #
coedge $-1 $126 $126 $203 $204 reversed $80 $-1 #
face $-1 $205 $206 $42 $-1 $207 reversed single #
loop $-1 $-1 $208 $82 #
plane-surface $-1 -48.174583696682319 6.1312044389911406 74.978975757298215 0.51503808176128008 0 0.85716729658548041 0.85716729658548041 0 -0.51503808176128008 forward_v I I I I #
coedge $-1 $209 $210 $211 $212 reversed $83 $-1 #
face $-1 $-1 $213 $43 $-1 $214 forward single #
loop $-1 $215 $216 $85 #
cone-surface $-1 60.160956049668087 6.1312044389911406 6.0226100254483992 -0.51503808176128008 0 -0.85716729658548041 0.64287547243911036 0 -0.38627856132096006 1 I I -0.70710678118654757 0.70710678118654757 0.75 forward I I I I #
loop $-1 $-1 $217 $54 #
coedge $-1 $135 $135 $218 $219 reversed $86 $-1 #
face $-1 $220 $221 $33 $-1 $222 reversed single #
loop $-1 $-1 $223 $88 #
plane-surface $-1 0 -27.406900069858956 0 0 1 0 0 0 1 forward_v I I I I #
coedge $-1 $224 $225 $226 $227 forward $89 $-1 #
coedge $-1 $228 $91 $229 $230 forward $56 $-1 #
coedge $-1 $91 $228 $231 $232 forward $56 $-1 #
coedge $-1 $233 $234 $91 $143 reversed $235 $-1 #
edge $-1 $236 -27.406900069858956 $237 27.406900069858956 $142 $238 forward 7 unknown #
face $-1 $239 $240 $34 $-1 $241 reversed single #
loop $-1 $-1 $242 $92 #
plane-surface $-1 0 0 -12.209189743331132 0 0 1 1 0 0 forward_v I I I I #
coedge $-1 $243 $244 $245 $246 reversed $93 $-1 #
coedge $-1 $247 $95 $244 $248 forward $59 $-1 #
coedge $-1 $95 $247 $249 $250 reversed $59 $-1 #
coedge $-1 $251 $245 $95 $151 forward $240 $-1 #
edge $-1 $252 4.3717029187271983 $253 16.814032406996905 $150 $254 forward 7 unknown #
face $-1 $255 $256 $35 $-1 $257 reversed single #
loop $-1 $-1 $158 $96 #
plane-surface $-1 67.439802240058597 0 0 -1 0 0 0 0 1 forward_v I I I I #
coedge $-1 $258 $259 $260 $261 reversed $97 $-1 #
coedge $-1 $262 $99 $263 $264 reversed $62 $-1 #
coedge $-1 $99 $262 $259 $265 forward $62 $-1 #
coedge $-1 $266 $267 $99 $159 forward $153 $-1 #
edge $-1 $268 -16.814032406996905 $269 -4.3717029187271983 $158 $270 forward 7 unknown #
face $-1 $271 $272 $36 $-1 $273 reversed single #
loop $-1 $-1 $274 $100 #
plane-surface $-1 -136.90793500021829 -12.423167943842664 121.12522893387938 0 1 0 -0.51503808176128008 0 0.85716729658548041 forward_v I I I I #
coedge $-1 $275 $276 $277 $278 reversed $101 $-1 #
coedge $-1 $165 $103 $279 $280 reversed $65 $-1 #
coedge $-1 $103 $164 $275 $281 reversed $65 $-1 #
coedge $-1 $277 $282 $103 $167 forward $272 $-1 #
edge $-1 $283 48.353424723608562 $284 55.051771469801224 $166 $285 forward 7 unknown #
loop $-1 $-1 $173 $104 #
plane-surface $-1 -67.439802240058569 -8.8333661425981091 5.5108429971384822 -0.51503808176128008 0 0.85716729658548041 0.85716729658548041 0 0.51503808176128008 forward_v I I I I #
loop $-1 $-1 $286 $67 #
coedge $-1 $171 $171 $172 $287 reversed $105 $-1 #
coedge $-1 $172 $172 $171 $287 forward $107 $-1 #
coedge $-1 $173 $173 $108 $174 forward $168 $-1 #
edge $-1 $288 0 $288 6.2831853071796004 $173 $289 forward 7 unknown #
face $-1 $290 $291 $38 $-1 $292 forward single #
loop $-1 $-1 $293 $109 #
plane-surface $-1 -136.90793500021829 2.5414026377465859 121.12522893387938 0 1 0 -0.51503808176128008 0 0.85716729658548041 forward_v I I I I #
coedge $-1 $294 $295 $296 $297 reversed $110 $-1 #
coedge $-1 $180 $112 $298 $299 reversed $71 $-1 #
coedge $-1 $112 $179 $294 $300 reversed $71 $-1 #
coedge $-1 $296 $301 $112 $182 forward $302 $-1 #
edge $-1 $303 48.353424723608562 $304 55.051771469801224 $181 $305 forward 7 unknown #
loop $-1 $-1 $188 $113 #
plane-surface $-1 -67.439802240058569 6.1312044389911406 5.5108429971384822 -0.51503808176128008 0 0.85716729658548041 0.85716729658548041 0 0.51503808176128008 forward_v I I I I #
loop $-1 $-1 $306 $73 #
coedge $-1 $186 $186 $187 $307 reversed $114 $-1 #
coedge $-1 $187 $187 $186 $307 forward $116 $-1 #
coedge $-1 $188 $188 $117 $189 forward $183 $-1 #
edge $-1 $308 0 $308 6.2831853071796004 $188 $309 forward 7 unknown #
face $-1 $310 $311 $40 $-1 $312 forward single #
loop $-1 $-1 $313 $118 #
plane-surface $-1 21.2935490634774 -12.423167943842664 190.59336169403912 0 1 0 0.51503808176128008 0 0.85716729658548041 forward_v I I I I #
coedge $-1 $314 $315 $316 $317 reversed $119 $-1 #
coedge $-1 $195 $121 $318 $319 reversed $77 $-1 #
coedge $-1 $121 $194 $314 $320 reversed $77 $-1 #
coedge $-1 $316 $321 $121 $197 forward $311 $-1 #
edge $-1 $322 -56.793027708319897 $323 -45.645106854794889 $196 $324 forward 7 unknown #
loop $-1 $-1 $203 $122 #
plane-surface $-1 -48.174583696682319 -8.8333661425981091 74.978975757298215 0.51503808176128008 0 0.85716729658548041 0.85716729658548041 0 -0.51503808176128008 forward_v I I I I #
loop $-1 $-1 $325 $79 #
coedge $-1 $201 $201 $202 $326 reversed $123 $-1 #
coedge $-1 $202 $202 $201 $326 forward $125 $-1 #
coedge $-1 $203 $203 $126 $204 forward $198 $-1 #
edge $-1 $327 0 $327 6.2831853071796004 $203 $328 forward 7 unknown #
face $-1 $329 $330 $42 $-1 $331 reversed single #
loop $-1 $-1 $332 $127 #
plane-surface $-1 21.2935490634774 2.5414026377465859 190.59336169403912 0 1 0 0.51503808176128008 0 0.85716729658548041 forward_v I I I I #
coedge $-1 $333 $334 $335 $336 reversed $128 $-1 #
coedge $-1 $210 $130 $337 $338 reversed $83 $-1 #
coedge $-1 $130 $209 $333 $339 reversed $83 $-1 #
coedge $-1 $335 $340 $130 $212 forward $341 $-1 #
edge $-1 $342 -56.793027708319897 $343 -45.645106854794889 $211 $344 forward 7 unknown #
loop $-1 $-1 $218 $131 #
plane-surface $-1 -48.174583696682319 6.1312044389911406 74.978975757298215 0.51503808176128008 0 0.85716729658548041 0.85716729658548041 0 -0.51503808176128008 forward_v I I I I #
loop $-1 $-1 $345 $85 #
coedge $-1 $216 $216 $217 $346 reversed $132 $-1 #
coedge $-1 $217 $217 $216 $346 forward $134 $-1 #
coedge $-1 $218 $218 $135 $219 forward $213 $-1 #
edge $-1 $347 0 $347 6.2831853071796004 $218 $348 forward 7 unknown #
face $-1 $349 $350 $33 $-1 $351 reversed single #
loop $-1 $-1 $352 $136 #
plane-surface $-1 -67.439802240058597 0 0 1 0 0 0 0 -1 forward_v I I I I #
coedge $-1 $353 $231 $354 $355 forward $137 $-1 #
coedge $-1 $356 $139 $353 $357 forward $89 $-1 #
coedge $-1 $139 $356 $358 $359 forward $89 $-1 #
coedge $-1 $234 $233 $139 $227 reversed $235 $-1 #
edge $-1 $360 -27.406900069858956 $361 27.406900069858956 $226 $362 forward 7 unknown #
coedge $-1 $141 $140 $363 $364 forward $56 $-1 #
coedge $-1 $365 $366 $140 $230 reversed $350 $-1 #
edge $-1 $237 -67.439802240058597 $367 67.439802240058597 $229 $368 forward 7 unknown #
coedge $-1 $223 $369 $141 $232 reversed $137 $-1 #
edge $-1 $370 -67.439802240058597 $236 67.439802240058597 $231 $371 forward 7 unknown #
coedge $-1 $226 $142 $369 $372 forward $235 $-1 #
coedge $-1 $142 $226 $365 $373 reversed $235 $-1 #
loop $-1 $-1 $233 $349 #
vertex $-1 $143 $374 #
vertex $-1 $143 $375 #
straight-curve $-1 67.439802240058597 0 12.209189743331132 0 1 0 I I #
face $-1 $376 $377 $34 $-1 $378 reversed single #
loop $-1 $-1 $245 $144 #
plane-surface $-1 67.439802240058597 0 0 -1 0 0 0 0 1 forward_v I I I I #
coedge $-1 $379 $380 $243 $381 forward $145 $-1 #
coedge $-1 $382 $147 $242 $381 reversed $93 $-1 #
coedge $-1 $147 $382 $148 $248 reversed $93 $-1 #
coedge $-1 $150 $383 $147 $246 forward $240 $-1 #
edge $-1 $384 -7.1478738054049993 $252 -2.9747580704472663 $245 $385 forward 7 unknown #
coedge $-1 $149 $148 $386 $387 reversed $59 $-1 #
edge $-1 $252 -67.439802240058597 $388 67.439802240058597 $244 $389 forward 7 unknown #
coedge $-1 $390 $391 $149 $250 forward $377 $-1 #
edge $-1 $253 -67.439802240058597 $392 67.439802240058597 $249 $393 forward 7 unknown #
coedge $-1 $383 $150 $391 $394 forward $240 $-1 #
vertex $-1 $151 $395 #
vertex $-1 $394 $396 #
straight-curve $-1 67.439802240058597 -10.592867662862052 -8.036074008373399 0 -1 0 I I #
face $-1 $397 $398 $35 $-1 $399 reversed single #
loop $-1 $-1 $400 $152 #
plane-surface $-1 0 0 -12.209189743331132 0 0 1 1 0 0 forward_v I I I I #
coedge $-1 $401 $155 $400 $402 reversed $97 $-1 #
coedge $-1 $155 $401 $157 $265 reversed $97 $-1 #
coedge $-1 $403 $404 $155 $261 forward $398 $-1 #
edge $-1 $405 -7.1478738054049993 $406 -2.9747580704472663 $260 $407 forward 7 unknown #
coedge $-1 $157 $156 $403 $408 reversed $62 $-1 #
coedge $-1 $409 $410 $156 $264 forward $411 $-1 #
edge $-1 $412 -67.439802240058597 $268 67.439802240058597 $263 $413 forward 7 unknown #
edge $-1 $406 -67.439802240058597 $269 67.439802240058597 $259 $414 forward 7 unknown #
coedge $-1 $415 $158 $401 $416 forward $153 $-1 #
coedge $-1 $158 $415 $409 $417 reversed $153 $-1 #
vertex $-1 $417 $418 #
vertex $-1 $159 $419 #
straight-curve $-1 67.439802240058597 10.592867662862052 -8.036074008373399 0 -1 0 I I #
face $-1 $-1 $420 $36 $-1 $421 forward single #
loop $-1 $-1 $166 $160 #
plane-surface $-1 -67.439802240058597 0 0 1 0 0 0 0 -1 forward_v I I I I #
coedge $-1 $422 $423 $424 $425 reversed $161 $-1 #
coedge $-1 $426 $163 $165 $281 forward $101 $-1 #
coedge $-1 $163 $426 $422 $427 forward $101 $-1 #
coedge $-1 $424 $166 $163 $278 forward $272 $-1 #
edge $-1 $284 0.82688127005449985 $428 8.0064848725436093 $277 $429 forward 7 unknown #
coedge $-1 $430 $431 $164 $280 forward $420 $-1 #
edge $-1 $432 -12.162086113575604 $283 -1.0141652600505466 $279 $433 forward 7 unknown #
edge $-1 $284 -3.3053628318135693e-014 $432 13.005536839695925 $165 $434 forward 7 unknown #
coedge $-1 $166 $424 $430 $435 reversed $272 $-1 #
vertex $-1 $435 $436 #
vertex $-1 $167 $437 #
straight-curve $-1 -67.439802240058597 -5.2435643413535544 60.562614466939692 0 0 -1 I I #
coedge $-1 $286 $286 $-1 $438 reversed $170 $-1 #
edge $-1 $439 0 $439 6.2831853071796004 $171 $440 forward 7 unknown #
vertex $-1 $174 $441 #
ellipse-curve $-1 -61.865841813296079 -8.8333661425981091 8.8600163702347938 -0.51503808176128008 0 0.85716729658548041 1.2857509448782207 0 0.77255712264192011 1 I I #
face $-1 $-1 $302 $38 $-1 $442 reversed single #
loop $-1 $-1 $443 $175 #
plane-surface $-1 0 0 12.209189743331132 0 0 1 1 0 0 forward_v I I I I #
coedge $-1 $444 $445 $446 $447 reversed $176 $-1 #
coedge $-1 $448 $178 $180 $300 forward $110 $-1 #
coedge $-1 $178 $448 $444 $449 forward $110 $-1 #
coedge $-1 $446 $181 $178 $297 forward $302 $-1 #
edge $-1 $304 -6.655404020740125 $450 0.5241995817489844 $296 $451 forward 7 unknown #
coedge $-1 $452 $453 $179 $299 forward $291 $-1 #
edge $-1 $454 -12.162086113575604 $303 -1.0141652600505466 $298 $455 forward 7 unknown #
edge $-1 $304 -3.3053628318135693e-014 $454 13.005536839695925 $180 $456 forward 7 unknown #
coedge $-1 $181 $446 $452 $457 reversed $302 $-1 #
loop $-1 $-1 $446 $290 #
vertex $-1 $457 $458 #
vertex $-1 $182 $459 #
straight-curve $-1 -67.439802240058597 9.7210062402356954 60.562614466939692 0 0 -1 I I #
coedge $-1 $306 $306 $-1 $460 reversed $185 $-1 #
edge $-1 $461 0 $461 6.2831853071796004 $186 $462 forward 7 unknown #
vertex $-1 $189 $463 #
ellipse-curve $-1 -61.865841813296079 6.1312044389911406 8.8600163702347938 -0.51503808176128008 0 0.85716729658548041 1.2857509448782207 0 0.77255712264192011 1 I I #
face $-1 $-1 $464 $40 $-1 $465 reversed single #
loop $-1 $-1 $196 $190 #
plane-surface $-1 0 0 12.209189743331132 0 0 1 1 0 0 forward_v I I I I #
coedge $-1 $466 $467 $468 $469 reversed $191 $-1 #
coedge $-1 $470 $193 $195 $320 forward $119 $-1 #
coedge $-1 $193 $470 $466 $471 forward $119 $-1 #
coedge $-1 $468 $196 $193 $317 forward $311 $-1 #
edge $-1 $323 0.82688127005449985 $472 8.0064848725436093 $316 $473 forward 7 unknown #
coedge $-1 $474 $475 $194 $319 forward $464 $-1 #
edge $-1 $476 -89.785837849881062 $322 -83.087491103688421 $318 $477 forward 7 unknown #
edge $-1 $323 121.8740676404213 $476 134.87960448011717 $195 $478 forward 7 unknown #
coedge $-1 $196 $468 $474 $479 forward $311 $-1 #
vertex $-1 $197 $480 #
vertex $-1 $197 $481 #
straight-curve $-1 10.6467745317387 -5.2435643413535544 12.209189743331137 -1 0 0 I I #
coedge $-1 $325 $325 $-1 $482 reversed $200 $-1 #
edge $-1 $483 0 $483 6.2831853071796004 $201 $484 forward 7 unknown #
vertex $-1 $204 $485 #
ellipse-curve $-1 61.865841813296086 -8.8333661425981091 8.8600163702348169 0.51503808176128008 0 0.85716729658548041 1.2857509448782207 0 -0.77255712264192011 1 I I #
face $-1 $-1 $341 $42 $-1 $486 forward single #
loop $-1 $-1 $487 $205 #
plane-surface $-1 67.439802240058597 0 0 -1 0 0 0 0 1 forward_v I I I I #
coedge $-1 $488 $489 $490 $491 reversed $206 $-1 #
coedge $-1 $492 $208 $210 $339 forward $128 $-1 #
coedge $-1 $208 $492 $488 $493 forward $128 $-1 #
coedge $-1 $490 $211 $208 $336 forward $341 $-1 #
edge $-1 $343 -6.655404020740125 $494 0.5241995817489844 $335 $495 forward 7 unknown #
coedge $-1 $496 $497 $209 $338 forward $330 $-1 #
edge $-1 $498 -89.785837849881062 $342 -83.087491103688421 $337 $499 forward 7 unknown #
edge $-1 $343 121.8740676404213 $498 134.87960448011717 $210 $500 forward 7 unknown #
coedge $-1 $211 $490 $496 $501 forward $341 $-1 #
loop $-1 $-1 $490 $329 #
vertex $-1 $338 $502 #
vertex $-1 $212 $503 #
straight-curve $-1 10.6467745317387 9.7210062402356954 12.209189743331137 -1 0 0 I I #
coedge $-1 $345 $345 $-1 $504 reversed $215 $-1 #
edge $-1 $505 0 $505 6.2831853071796004 $216 $506 forward 7 unknown #
vertex $-1 $219 $507 #
ellipse-curve $-1 61.865841813296086 6.1312044389911406 8.8600163702348169 0.51503808176128008 0 0.85716729658548041 1.2857509448782207 0 -0.77255712264192011 1 I I #
face $-1 $-1 $235 $33 $-1 $508 reversed single #
loop $-1 $-1 $365 $220 #
plane-surface $-1 0 27.406900069858956 0 0 -1 0 0 0 -1 forward_v I I I I #
coedge $-1 $509 $363 $366 $510 forward $221 $-1 #
coedge $-1 $369 $223 $224 $357 reversed $137 $-1 #
coedge $-1 $363 $509 $223 $355 reversed $221 $-1 #
edge $-1 $370 -12.209189743331132 $511 12.209189743331132 $354 $512 forward 7 unknown #
coedge $-1 $225 $224 $509 $513 forward $89 $-1 #
edge $-1 $361 -67.439802240058597 $511 67.439802240058597 $353 $514 forward 7 unknown #
coedge $-1 $366 $365 $225 $359 reversed $350 $-1 #
edge $-1 $515 -67.439802240058597 $360 67.439802240058597 $358 $516 forward 7 unknown #
vertex $-1 $227 $517 #
vertex $-1 $372 $518 #
straight-curve $-1 67.439802240058597 0 -12.209189743331132 0 -1 0 I I #
coedge $-1 $352 $354 $228 $364 reversed $221 $-1 #
edge $-1 $367 -27.406900069858956 $370 27.406900069858956 $363 $519 forward 7 unknown #
coedge $-1 $358 $229 $234 $373 forward $350 $-1 #
coedge $-1 $229 $358 $352 $510 reversed $350 $-1 #
vertex $-1 $230 $520 #
straight-curve $-1 0 27.406900069858956 12.209189743331132 -1 0 0 I I #
coedge $-1 $231 $353 $233 $372 reversed $137 $-1 #
vertex $-1 $364 $521 #
straight-curve $-1 0 -27.406900069858956 12.209189743331132 1 0 0 I I #
edge $-1 $236 -12.209189743331132 $361 12.209189743331132 $233 $522 forward 7 unknown #
edge $-1 $237 -12.209189743331132 $360 12.209189743331132 $234 $523 forward 7 unknown #
point $-1 67.439802240058597 -27.406900069858956 12.209189743331132 #
point $-1 67.439802240058597 27.406900069858956 12.209189743331132 #
face $-1 $-1 $524 $34 $-1 $525 reversed single #
loop $-1 $-1 $249 $239 #
plane-surface $-1 0 -27.406900069858956 0 0 1 0 0 0 1 forward_v I I I I #
coedge $-1 $526 $242 $383 $527 forward $145 $-1 #
coedge $-1 $242 $526 $528 $529 forward $145 $-1 #
edge $-1 $530 -67.439802240058597 $384 67.439802240058597 $242 $531 forward 7 unknown #
coedge $-1 $244 $243 $532 $533 reversed $93 $-1 #
coedge $-1 $245 $251 $379 $527 reversed $240 $-1 #
vertex $-1 $527 $534 #
straight-curve $-1 67.439802240058597 -14.96457058158925 -5.0613159379261328 0 0 1 I I #
coedge $-1 $532 $535 $247 $387 forward $524 $-1 #
edge $-1 $392 -16.814032406996905 $388 -4.3717029187271983 $386 $536 forward 7 unknown #
vertex $-1 $387 $537 #
straight-curve $-1 0 -14.96457058158925 -8.036074008373399 -1 0 0 I I #
coedge $-1 $538 $249 $535 $539 forward $377 $-1 #
coedge $-1 $249 $538 $251 $394 reversed $377 $-1 #
vertex $-1 $539 $540 #
straight-curve $-1 0 -27.406900069858956 -8.036074008373399 -1 0 0 I I #
edge $-1 $253 8.036074008373399 $541 12.209189743331132 $251 $542 forward 7 unknown #
point $-1 67.439802240058597 -14.96457058158925 -8.036074008373399 #
point $-1 67.439802240058597 -27.406900069858956 -8.036074008373399 #
face $-1 $-1 $411 $35 $-1 $543 reversed single #
loop $-1 $-1 $403 $255 #
plane-surface $-1 -67.439802240058597 0 0 1 0 0 0 0 -1 forward_v I I I I #
coedge $-1 $544 $545 $258 $402 forward $256 $-1 #
coedge $-1 $259 $258 $266 $416 reversed $97 $-1 #
edge $-1 $546 -67.439802240058597 $405 67.439802240058597 $400 $547 forward 7 unknown #
coedge $-1 $548 $260 $262 $408 forward $398 $-1 #
coedge $-1 $260 $548 $544 $549 reversed $398 $-1 #
vertex $-1 $549 $550 #
vertex $-1 $408 $551 #
straight-curve $-1 -67.439802240058597 14.96457058158925 -5.0613159379261328 0 0 1 I I #
edge $-1 $406 4.3717029187271983 $412 16.814032406996905 $403 $552 forward 7 unknown #
coedge $-1 $553 $263 $267 $417 forward $411 $-1 #
coedge $-1 $263 $553 $548 $554 reversed $411 $-1 #
loop $-1 $-1 $263 $397 #
vertex $-1 $554 $555 #
straight-curve $-1 0 27.406900069858956 -8.036074008373399 1 0 0 I I #
straight-curve $-1 0 14.96457058158925 -8.036074008373399 1 0 0 I I #
coedge $-1 $267 $266 $545 $556 reversed $153 $-1 #
edge $-1 $269 2.9747580704472663 $546 7.1478738054049993 $266 $557 forward 7 unknown #
edge $-1 $268 8.036074008373399 $558 12.209189743331132 $267 $559 forward 7 unknown #
point $-1 67.439802240058597 27.406900069858956 -8.036074008373399 #
point $-1 67.439802240058597 14.96457058158925 -8.036074008373399 #
loop $-1 $-1 $279 $271 #
plane-surface $-1 0 0 12.209189743331132 0 0 1 1 0 0 forward_v I I I I #
coedge $-1 $423 $274 $276 $427 reversed $161 $-1 #
coedge $-1 $274 $422 $560 $561 reversed $161 $-1 #
coedge $-1 $282 $277 $274 $425 forward $272 $-1 #
edge $-1 $428 -55.051771469801224 $562 -48.353424723608562 $424 $563 forward 7 unknown #
coedge $-1 $276 $275 $431 $564 reversed $101 $-1 #
edge $-1 $565 -13.005536839695925 $428 3.3053628318135693e-014 $422 $566 forward 7 unknown #
vertex $-1 $278 $567 #
straight-curve $-1 -67.439802240058597 -4.4166830712990546 5.5108429971384671 0 -1 0 I I #
coedge $-1 $560 $279 $282 $435 forward $420 $-1 #
coedge $-1 $279 $560 $426 $564 forward $420 $-1 #
vertex $-1 $280 $568 #
straight-curve $-1 -68.453967500109144 -5.2435643413535544 12.20918974333113 -1 0 0 I I #
straight-curve $-1 -67.439802240058569 -5.2435643413535544 5.5108429971384822 0.85716729658548041 0 0.51503808176128008 I I #
edge $-1 $283 5.2435643413535544 $562 12.423167943842664 $282 $569 forward 7 unknown #
point $-1 -67.439802240058597 -5.2435643413535544 12.209189743331132 #
point $-1 -67.439802240058597 -5.2435643413535544 5.5108429971384654 #
edge $-1 $570 1 $570 0 $286 $-1 forward 7 unknown #
vertex $-1 $287 $571 #
ellipse-curve $-1 -60.547234610989044 -8.8333661425981091 6.6654854978875022 -0.51503808176128008 0 0.85716729658548041 1.2857509448782207 0 0.77255712264192011 1 I I #
point $-1 -60.580090868417862 -8.8333661425981091 9.6325734928767304 #
plane-surface $-1 -67.439802240058597 0 0 1 0 0 0 0 -1 forward_v I I I I #
coedge $-1 $453 $452 $445 $572 forward $291 $-1 #
coedge $-1 $445 $293 $295 $449 reversed $176 $-1 #
coedge $-1 $293 $444 $443 $572 reversed $176 $-1 #
coedge $-1 $301 $296 $293 $447 forward $302 $-1 #
edge $-1 $450 -55.051771469801224 $573 -48.353424723608562 $446 $574 forward 7 unknown #
coedge $-1 $295 $294 $453 $575 reversed $110 $-1 #
edge $-1 $576 -13.005536839695925 $450 3.3053628318135693e-014 $444 $577 forward 7 unknown #
vertex $-1 $297 $578 #
straight-curve $-1 -67.439802240058597 3.0656022194955703 5.5108429971384671 0 -1 0 I I #
coedge $-1 $443 $298 $301 $457 forward $291 $-1 #
coedge $-1 $298 $443 $448 $575 forward $291 $-1 #
vertex $-1 $299 $579 #
straight-curve $-1 -68.453967500109144 9.7210062402356954 12.20918974333113 -1 0 0 I I #
straight-curve $-1 -67.439802240058569 9.7210062402356954 5.5108429971384822 0.85716729658548041 0 0.51503808176128008 I I #
edge $-1 $303 -9.7210062402356954 $573 -2.5414026377465859 $301 $580 forward 7 unknown #
point $-1 -67.439802240058597 9.7210062402356954 12.209189743331132 #
point $-1 -67.439802240058597 9.7210062402356954 5.5108429971384654 #
edge $-1 $581 1 $581 0 $306 $-1 forward 7 unknown #
vertex $-1 $307 $582 #
ellipse-curve $-1 -60.547234610989044 6.1312044389911406 6.6654854978875022 -0.51503808176128008 0 0.85716729658548041 1.2857509448782207 0 0.77255712264192011 1 I I #
point $-1 -60.580090868417862 6.1312044389911406 9.6325734928767304 #
loop $-1 $-1 $318 $310 #
plane-surface $-1 67.439802240058597 0 0 -1 0 0 0 0 1 forward_v I I I I #
coedge $-1 $467 $313 $315 $471 reversed $191 $-1 #
coedge $-1 $313 $466 $583 $584 reversed $191 $-1 #
coedge $-1 $321 $316 $313 $469 forward $311 $-1 #
edge $-1 $472 45.645106854794889 $585 56.793027708319897 $468 $586 forward 7 unknown #
coedge $-1 $315 $314 $475 $587 reversed $119 $-1 #
edge $-1 $588 -134.87960448011717 $472 -121.8740676404213 $466 $589 forward 7 unknown #
vertex $-1 $317 $590 #
straight-curve $-1 56.291881386533618 -4.4166830712990546 12.209189743331123 0 -1 0 I I #
coedge $-1 $583 $318 $321 $479 reversed $464 $-1 #
coedge $-1 $318 $583 $470 $587 forward $464 $-1 #
vertex $-1 $319 $591 #
straight-curve $-1 67.439802240058597 -5.2435643413535544 95.296680847019559 0 0 1 I I #
straight-curve $-1 -48.174583696682319 -5.2435643413535544 74.978975757298215 0.85716729658548041 0 -0.51503808176128008 I I #
edge $-1 $585 -12.423167943842664 $322 -5.2435643413535544 $474 $592 forward 7 unknown #
point $-1 67.439802240058597 -5.2435643413535544 12.209189743331132 #
point $-1 56.291881386533589 -5.2435643413535544 12.20918974333113 #
edge $-1 $593 1 $593 0 $325 $-1 forward 7 unknown #
vertex $-1 $326 $594 #
ellipse-curve $-1 60.547234610989044 -8.8333661425981091 6.6654854978875093 0.51503808176128008 0 0.85716729658548041 1.2857509448782207 0 -0.77255712264192011 1 I I #
point $-1 63.151592758174303 -8.8333661425981091 8.0874592475928981 #
plane-surface $-1 0 0 12.209189743331132 0 0 1 1 0 0 forward_v I I I I #
coedge $-1 $497 $496 $489 $595 forward $330 $-1 #
coedge $-1 $489 $332 $334 $493 reversed $206 $-1 #
coedge $-1 $332 $488 $487 $595 reversed $206 $-1 #
coedge $-1 $340 $335 $332 $491 forward $341 $-1 #
edge $-1 $494 45.645106854794889 $596 56.793027708319897 $490 $597 forward 7 unknown #
coedge $-1 $334 $333 $497 $598 reversed $128 $-1 #
edge $-1 $599 -134.87960448011717 $494 -121.8740676404213 $488 $600 forward 7 unknown #
vertex $-1 $336 $601 #
straight-curve $-1 56.291881386533618 3.0656022194955703 12.209189743331123 0 -1 0 I I #
coedge $-1 $487 $337 $340 $501 reversed $330 $-1 #
coedge $-1 $337 $487 $492 $598 forward $330 $-1 #
vertex $-1 $338 $602 #
straight-curve $-1 67.439802240058597 9.7210062402356954 95.296680847019559 0 0 1 I I #
straight-curve $-1 -48.174583696682319 9.7210062402356954 74.978975757298215 0.85716729658548041 0 -0.51503808176128008 I I #
edge $-1 $596 2.5414026377465859 $342 9.7210062402356954 $496 $603 forward 7 unknown #
point $-1 67.439802240058597 9.7210062402356954 12.209189743331132 #
point $-1 56.291881386533589 9.7210062402356954 12.20918974333113 #
edge $-1 $604 1 $604 0 $345 $-1 forward 7 unknown #
vertex $-1 $346 $605 #
ellipse-curve $-1 60.547234610989044 6.1312044389911406 6.6654854978875093 0.51503808176128008 0 0.85716729658548041 1.2857509448782207 0 -0.77255712264192011 1 I I #
point $-1 63.151592758174303 6.1312044389911406 8.0874592475928981 #
plane-surface $-1 67.439802240058597 0 0 -1 0 0 0 0 1 forward_v I I I I #
coedge $-1 $354 $352 $356 $513 reversed $221 $-1 #
edge $-1 $367 -12.209189743331132 $515 12.209189743331132 $366 $606 forward 7 unknown #
vertex $-1 $513 $607 #
straight-curve $-1 -67.439802240058597 -27.406900069858956 0 0 0 -1 I I #
edge $-1 $511 -27.406900069858956 $515 27.406900069858956 $509 $608 forward 7 unknown #
straight-curve $-1 0 -27.406900069858956 -12.209189743331132 -1 0 0 I I #
vertex $-1 $359 $609 #
straight-curve $-1 0 27.406900069858956 -12.209189743331132 1 0 0 I I #
point $-1 67.439802240058597 27.406900069858956 -12.209189743331132 #
point $-1 67.439802240058597 -27.406900069858956 -12.209189743331132 #
straight-curve $-1 -67.439802240058597 0 12.209189743331132 0 -1 0 I I #
point $-1 -67.439802240058597 27.406900069858956 12.209189743331132 #
point $-1 -67.439802240058597 -27.406900069858956 12.209189743331132 #
straight-curve $-1 67.439802240058597 -27.406900069858956 0 0 0 -1 I I #
straight-curve $-1 67.439802240058597 27.406900069858956 0 0 0 -1 I I #
loop $-1 $-1 $532 $376 #
plane-surface $-1 -67.439802240058597 0 0 1 0 0 0 0 -1 forward_v I I I I #
coedge $-1 $380 $379 $538 $610 forward $145 $-1 #
edge $-1 $384 14.96457058158925 $541 27.406900069858956 $383 $611 forward 7 unknown #
coedge $-1 $535 $532 $380 $529 reversed $524 $-1 #
edge $-1 $612 -27.406900069858956 $530 -14.96457058158925 $528 $613 forward 7 unknown #
vertex $-1 $533 $614 #
straight-curve $-1 0 -14.96457058158925 -12.209189743331132 1 0 0 I I #
coedge $-1 $528 $386 $382 $533 forward $524 $-1 #
edge $-1 $388 2.9747580704472663 $530 7.1478738054049993 $532 $615 forward 7 unknown #
point $-1 67.439802240058597 -14.96457058158925 -12.209189743331132 #
coedge $-1 $386 $528 $390 $539 reversed $524 $-1 #
straight-curve $-1 -67.439802240058597 -10.592867662862052 -8.036074008373399 0 1 0 I I #
point $-1 -67.439802240058597 -14.96457058158925 -8.036074008373399 #
coedge $-1 $391 $390 $526 $610 reversed $377 $-1 #
edge $-1 $392 8.036074008373399 $612 12.209189743331132 $535 $616 forward 7 unknown #
point $-1 -67.439802240058597 -27.406900069858956 -8.036074008373399 #
vertex $-1 $394 $617 #
straight-curve $-1 67.439802240058597 -27.406900069858956 0 0 0 -1 I I #
plane-surface $-1 0 27.406900069858956 0 0 -1 0 0 0 -1 forward_v I I I I #
coedge $-1 $618 $400 $404 $549 forward $256 $-1 #
coedge $-1 $400 $618 $415 $556 forward $256 $-1 #
vertex $-1 $402 $619 #
straight-curve $-1 0 14.96457058158925 -12.209189743331132 -1 0 0 I I #
coedge $-1 $404 $403 $410 $554 forward $398 $-1 #
edge $-1 $405 14.96457058158925 $620 27.406900069858956 $404 $621 forward 7 unknown #
point $-1 -67.439802240058597 14.96457058158925 -12.209189743331132 #
point $-1 -67.439802240058597 14.96457058158925 -8.036074008373399 #
straight-curve $-1 -67.439802240058597 10.592867662862052 -8.036074008373399 0 1 0 I I #
coedge $-1 $410 $409 $618 $622 reversed $411 $-1 #
edge $-1 $412 8.036074008373399 $620 12.209189743331132 $410 $623 forward 7 unknown #
point $-1 -67.439802240058597 27.406900069858956 -8.036074008373399 #
edge $-1 $558 -27.406900069858956 $546 -14.96457058158925 $415 $624 forward 7 unknown #
straight-curve $-1 67.439802240058597 14.96457058158925 -5.0613159379261328 0 0 -1 I I #
vertex $-1 $556 $625 #
straight-curve $-1 67.439802240058597 27.406900069858956 0 0 0 -1 I I #
coedge $-1 $431 $430 $423 $561 forward $420 $-1 #
edge $-1 $562 1.0141652600505466 $565 12.162086113575604 $560 $626 forward 7 unknown #
vertex $-1 $561 $627 #
straight-curve $-1 -67.439802240058597 -12.423167943842664 60.562614466939692 0 0 1 I I #
edge $-1 $565 -8.0064848725436093 $432 -0.82688127005449985 $431 $628 forward 7 unknown #
vertex $-1 $564 $629 #
straight-curve $-1 -67.439802240058569 -12.423167943842664 5.5108429971384822 -0.85716729658548041 0 -0.51503808176128008 I I #
point $-1 -67.439802240058597 -12.423167943842664 5.5108429971384654 #
point $-1 -56.291881386533539 -5.2435643413535544 12.209189743331132 #
straight-curve $-1 -67.439802240058597 0 12.209189743331132 0 -1 0 I I #
vertex $-1 $438 $630 #
point $-1 -59.261483666110827 -8.8333661425981091 7.4380426205294228 #
edge $-1 $573 1.0141652600505466 $576 12.162086113575604 $443 $631 forward 7 unknown #
vertex $-1 $572 $632 #
straight-curve $-1 -67.439802240058597 2.5414026377465859 60.562614466939692 0 0 1 I I #
edge $-1 $576 -0.5241995817489844 $454 6.655404020740125 $453 $633 forward 7 unknown #
vertex $-1 $575 $634 #
straight-curve $-1 -67.439802240058569 2.5414026377465859 5.5108429971384822 -0.85716729658548041 0 -0.51503808176128008 I I #
point $-1 -67.439802240058597 2.5414026377465859 5.5108429971384654 #
point $-1 -56.291881386533539 9.7210062402356954 12.209189743331132 #
straight-curve $-1 -67.439802240058597 0 12.209189743331132 0 -1 0 I I #
vertex $-1 $460 $635 #
point $-1 -59.261483666110827 6.1312044389911406 7.4380426205294228 #
coedge $-1 $475 $474 $467 $584 forward $464 $-1 #
edge $-1 $585 83.087491103688421 $588 89.785837849881062 $583 $636 forward 7 unknown #
vertex $-1 $479 $637 #
straight-curve $-1 10.6467745317387 -12.423167943842664 12.209189743331137 1 0 0 I I #
edge $-1 $588 -8.0064848725436093 $476 -0.82688127005449985 $475 $638 forward 7 unknown #
vertex $-1 $587 $639 #
straight-curve $-1 -48.174583696682319 -12.423167943842664 74.978975757298215 -0.85716729658548041 0 0.51503808176128008 I I #
point $-1 56.291881386533589 -12.423167943842664 12.20918974333113 #
point $-1 67.439802240058583 -5.2435643413535544 5.5108429971384965 #
straight-curve $-1 67.439802240058597 0 12.209189743331132 0 1 0 I I #
vertex $-1 $482 $640 #
point $-1 61.832985555867268 -8.8333661425981091 5.8929283752455897 #
edge $-1 $596 83.087491103688421 $599 89.785837849881062 $487 $641 forward 7 unknown #
vertex $-1 $501 $642 #
straight-curve $-1 10.6467745317387 2.5414026377465859 12.209189743331137 1 0 0 I I #
edge $-1 $599 -0.5241995817489844 $498 6.655404020740125 $497 $643 forward 7 unknown #
vertex $-1 $598 $644 #
straight-curve $-1 -48.174583696682319 2.5414026377465859 74.978975757298215 -0.85716729658548041 0 0.51503808176128008 I I #
point $-1 56.291881386533589 2.5414026377465859 12.20918974333113 #
point $-1 67.439802240058583 9.7210062402356954 5.5108429971384965 #
straight-curve $-1 67.439802240058597 0 12.209189743331132 0 1 0 I I #
vertex $-1 $504 $645 #
point $-1 61.832985555867268 6.1312044389911406 5.8929283752455897 #
straight-curve $-1 -67.439802240058597 27.406900069858956 0 0 0 -1 I I #
point $-1 -67.439802240058597 -27.406900069858956 -12.209189743331132 #
straight-curve $-1 -67.439802240058597 0 -12.209189743331132 0 1 0 I I #
point $-1 -67.439802240058597 27.406900069858956 -12.209189743331132 #
edge $-1 $541 -67.439802240058597 $612 67.439802240058597 $538 $646 forward 7 unknown #
straight-curve $-1 67.439802240058597 0 -12.209189743331132 0 -1 0 I I #
vertex $-1 $529 $647 #
straight-curve $-1 -67.439802240058597 0 -12.209189743331132 0 1 0 I I #
point $-1 -67.439802240058597 -14.96457058158925 -12.209189743331132 #
straight-curve $-1 -67.439802240058597 -14.96457058158925 -5.0613159379261328 0 0 -1 I I #
straight-curve $-1 -67.439802240058597 -27.406900069858956 0 0 0 -1 I I #
point $-1 67.439802240058597 -27.406900069858956 -12.209189743331132 #
coedge $-1 $545 $544 $553 $622 forward $256 $-1 #
point $-1 67.439802240058597 14.96457058158925 -12.209189743331132 #
vertex $-1 $622 $648 #
straight-curve $-1 -67.439802240058597 0 -12.209189743331132 0 1 0 I I #
edge $-1 $620 -67.439802240058597 $558 67.439802240058597 $553 $649 forward 7 unknown #
straight-curve $-1 -67.439802240058597 27.406900069858956 0 0 0 -1 I I #
straight-curve $-1 67.439802240058597 0 -12.209189743331132 0 -1 0 I I #
point $-1 67.439802240058597 27.406900069858956 -12.209189743331132 #
straight-curve $-1 -68.453967500109144 -12.423167943842664 12.20918974333113 1 0 0 I I #
point $-1 -67.439802240058597 -12.423167943842664 12.209189743331132 #
straight-curve $-1 -56.291881386533532 -4.4166830712990546 12.209189743331132 0 1 0 I I #
point $-1 -56.291881386533539 -12.423167943842664 12.209189743331132 #
point $-1 -59.77467748834713 -8.8333661425981091 5.3797345530092819 #
straight-curve $-1 -68.453967500109144 2.5414026377465859 12.20918974333113 1 0 0 I I #
point $-1 -67.439802240058597 2.5414026377465859 12.209189743331132 #
straight-curve $-1 -56.291881386533532 3.0656022194955703 12.209189743331132 0 1 0 I I #
point $-1 -56.291881386533539 2.5414026377465859 12.209189743331132 #
point $-1 -59.77467748834713 6.1312044389911406 5.3797345530092819 #
straight-curve $-1 67.439802240058597 -12.423167943842664 95.296680847019559 0 0 -1 I I #
point $-1 67.439802240058597 -12.423167943842664 12.209189743331132 #
straight-curve $-1 67.439802240058597 -4.4166830712990546 5.5108429971384894 0 1 0 I I #
point $-1 67.439802240058583 -12.423167943842664 5.5108429971384965 #
point $-1 59.77467748834713 -8.8333661425981091 5.379734553009289 #
straight-curve $-1 67.439802240058597 2.5414026377465859 95.296680847019559 0 0 -1 I I #
point $-1 67.439802240058597 2.5414026377465859 12.209189743331132 #
straight-curve $-1 67.439802240058597 3.0656022194955703 5.5108429971384894 0 1 0 I I #
point $-1 67.439802240058583 2.5414026377465859 5.5108429971384965 #
point $-1 59.77467748834713 6.1312044389911406 5.379734553009289 #
straight-curve $-1 0 -27.406900069858956 -12.209189743331132 -1 0 0 I I #
point $-1 -67.439802240058597 -27.406900069858956 -12.209189743331132 #
point $-1 -67.439802240058597 27.406900069858956 -12.209189743331132 #
straight-curve $-1 0 27.406900069858956 -12.209189743331132 1 0 0 I I #
End-of-ACIS-data 