500 0 10 0           
7 Unknown 11 ACIS 5.0 NT 24 Fri Mar 26 19:38:24 1999 
-1 9.9999999999999995e-007 1e-010 
body $-1 $10 $-1 $11 #
body $-1 $12 $-1 $13 #
body $-1 $14 $-1 $15 #
body $-1 $16 $-1 $17 #
body $-1 $18 $-1 $19 #
body $-1 $20 $-1 $21 #
body $-1 $22 $-1 $23 #
body $-1 $24 $-1 $25 #
body $-1 $26 $-1 $27 #
body $-1 $28 $-1 $29 #
lump $-1 $-1 $30 $0 #
transform $-1 1 0 0 0 1 0 0 0 1 52.956938383129369 25.343758463124637 8.8172952087092042 1 rotate no_reflect no_shear #
lump $-1 $-1 $31 $1 #
transform $-1 1 0 0 0 1 0 0 0 1 52.956938383129369 25.343758463124637 8.8172952087092042 1 rotate no_reflect no_shear #
lump $-1 $-1 $32 $2 #
transform $-1 1 0 0 0 1 0 0 0 1 52.956938383129369 25.343758463124637 8.8172952087092042 1 rotate no_reflect no_shear #
lump $-1 $-1 $33 $3 #
transform $-1 1 0 0 0 1 0 0 0 1 52.956938383129369 25.343758463124637 8.8172952087092042 1 rotate no_reflect no_shear #
lump $-1 $-1 $34 $4 #
transform $-1 1 0 0 0 1 0 0 0 1 52.956938383129369 25.343758463124637 8.8172952087092042 1 rotate no_reflect no_shear #
lump $-1 $-1 $35 $5 #
transform $-1 1 0 0 0 1 0 0 0 1 52.956938383129369 25.343758463124637 8.8172952087092042 1 rotate no_reflect no_shear #
lump $-1 $-1 $36 $6 #
transform $-1 1 0 0 0 1 0 0 0 1 52.956938383129369 25.343758463124637 8.8172952087092042 1 rotate no_reflect no_shear #
lump $-1 $-1 $37 $7 #
transform $-1 1 0 0 0 1 0 0 0 1 52.956938383129369 25.343758463124637 8.8172952087092042 1 rotate no_reflect no_shear #
lump $-1 $-1 $38 $8 #
transform $-1 1 0 0 0 1 0 0 0 1 52.956938383129369 25.343758463124637 8.8172952087092042 1 rotate no_reflect no_shear #
lump $-1 $-1 $39 $9 #
transform $-1 1 0 0 0 1 0 0 0 1 52.956938383129369 25.343758463124637 8.8172952087092042 1 rotate no_reflect no_shear #
shell $-1 $-1 $-1 $40 $-1 $10 #
shell $-1 $-1 $-1 $41 $-1 $12 #
shell $-1 $-1 $-1 $42 $-1 $14 #
shell $-1 $-1 $-1 $43 $-1 $16 #
shell $-1 $-1 $-1 $44 $-1 $18 #
shell $-1 $-1 $-1 $45 $-1 $20 #
shell $-1 $-1 $-1 $46 $-1 $22 #
shell $-1 $-1 $-1 $47 $-1 $24 #
shell $-1 $-1 $-1 $48 $-1 $26 #
shell $-1 $-1 $-1 $49 $-1 $28 #
face $-1 $50 $51 $30 $-1 $52 forward single #
face $-1 $53 $54 $31 $-1 $55 reversed single #
face $-1 $56 $57 $32 $-1 $58 reversed single #
face $-1 $59 $60 $33 $-1 $61 reversed single #
face $-1 $62 $63 $34 $-1 $64 forward single #
face $-1 $65 $66 $35 $-1 $67 forward single #
face $-1 $68 $69 $36 $-1 $70 reversed single #
face $-1 $71 $72 $37 $-1 $73 forward single #
face $-1 $74 $75 $38 $-1 $76 forward single #
face $-1 $77 $78 $39 $-1 $79 forward single #
face $-1 $80 $81 $30 $-1 $82 reversed single #
loop $-1 $-1 $83 $40 #
plane-surface $-1 0 0 8.8172952087092042 0 0 1 1 0 0 forward_v I I I I #
face $-1 $84 $85 $31 $-1 $86 reversed single #
loop $-1 $-1 $87 $41 #
plane-surface $-1 0 -22.345606310549055 5.1283307012414943 0 0 1 1 0 0 forward_v I I I I #
face $-1 $88 $89 $32 $-1 $90 reversed single #
loop $-1 $-1 $91 $42 #
plane-surface $-1 0 22.345606310549051 5.1283307012414943 0 0 1 1 0 0 forward_v I I I I #
face $-1 $92 $93 $33 $-1 $94 reversed single #
loop $-1 $-1 $95 $43 #
plane-surface $-1 66.011549373528823 15.608616221841405 152.7158579858293 0 -1 0 -0.7660444514056185 0 -0.64278759981090561 forward_v I I I I #
face $-1 $96 $97 $34 $-1 $98 forward single #
loop $-1 $99 $100 $44 #
cone-surface $-1 50.288885720760611 11.084130637862899 5.7919549704428102 -0.7660444514056185 0 -0.64278759981090561 0.3213937999054528 0 -0.38302222570280925 1 I I 0 1 0.5 forward I I I I #
face $-1 $101 $102 $35 $-1 $103 forward single #
loop $-1 $104 $105 $45 #
cone-surface $-1 50.288885720760611 13.798821988250005 5.7919549704428102 -0.7660444514056185 0 -0.64278759981090561 0.3213937999054528 0 -0.38302222570280925 1 I I 0 1 0.5 forward I I I I #
face $-1 $106 $107 $36 $-1 $108 reversed single #
loop $-1 $-1 $109 $46 #
plane-surface $-1 -125.19002950437493 -9.987334719678703 82.089734816164849 0 1 0 -0.68199836817093118 0 0.7313536940579346 forward_v I I I I #
face $-1 $110 $111 $37 $-1 $112 forward single #
loop $-1 $113 $114 $47 #
cone-surface $-1 -50.086545000459211 -8.2974342107956502 6.0532269441278679 0.68199836817093118 0 -0.7313536940579346 0.3656768470289673 0 0.34099918408546559 1 I I 0 1 0.5 forward I I I I #
face $-1 $115 $116 $38 $-1 $117 forward single #
loop $-1 $118 $119 $48 #
cone-surface $-1 -50.086545000459211 -5.7625834474710693 6.0532269441278679 0.68199836817093118 0 -0.7313536940579346 0.3656768470289673 0 0.34099918408546559 1 I I 0 1 0.5 forward I I I I #
face $-1 $120 $121 $39 $-1 $122 forward single #
loop $-1 $123 $124 $49 #
cone-surface $-1 -50.086545000459211 -3.2277326841464884 6.0532269441278679 0.68199836817093118 0 -0.7313536940579346 0.3656768470289673 0 0.34099918408546559 1 I I 0 1 0.5 forward I I I I #
face $-1 $125 $126 $30 $-1 $127 reversed single #
loop $-1 $-1 $128 $50 #
plane-surface $-1 0 0 -8.8172952087092042 0 0 1 1 0 0 forward_v I I I I #
coedge $-1 $129 $130 $131 $132 forward $51 $-1 #
face $-1 $133 $134 $31 $-1 $135 reversed single #
loop $-1 $-1 $136 $53 #
plane-surface $-1 0 -19.347454157973473 6.9728129549753497 0 -1 0 0 0 -1 forward_v I I I I #
coedge $-1 $137 $138 $139 $140 reversed $54 $-1 #
face $-1 $141 $142 $32 $-1 $143 forward single #
loop $-1 $-1 $144 $56 #
plane-surface $-1 0 19.34745415797347 6.9728129549753497 0 1 0 0 0 1 forward_v I I I I #
coedge $-1 $145 $146 $147 $148 reversed $57 $-1 #
face $-1 $149 $150 $33 $-1 $151 reversed single #
loop $-1 $-1 $152 $59 #
plane-surface $-1 -15.123188250122141 12.441476313056448 84.635731352577807 0.7660444514056185 0 0.64278759981090561 0.64278759981090561 0 -0.7660444514056185 forward_v I I I I #
coedge $-1 $153 $154 $155 $156 reversed $60 $-1 #
face $-1 $-1 $157 $34 $-1 $158 forward single #
loop $-1 $159 $160 $62 #
cone-surface $-1 49.659775192600804 11.084130637862899 5.2640685721148728 -0.7660444514056185 0 -0.64278759981090561 0.1606968999527264 0 -0.19151111285140462 1 I I -0.70710678118654746 0.70710678118654746 0.25 forward I I I I #
loop $-1 $-1 $161 $44 #
coedge $-1 $100 $100 $162 $163 reversed $63 $-1 #
face $-1 $-1 $164 $35 $-1 $165 forward single #
loop $-1 $166 $167 $65 #
cone-surface $-1 49.659775192600804 13.798821988250005 5.2640685721148728 -0.7660444514056185 0 -0.64278759981090561 0.1606968999527264 0 -0.19151111285140462 1 I I -0.70710678118654746 0.70710678118654746 0.25 forward I I I I #
loop $-1 $-1 $168 $45 #
coedge $-1 $105 $105 $169 $170 reversed $66 $-1 #
face $-1 $171 $172 $36 $-1 $173 reversed single #
loop $-1 $-1 $174 $68 #
plane-surface $-1 -52.956938383129369 -5.7625834474710693 4.6292297911646756 -0.68199836817093118 0 0.7313536940579346 0.7313536940579346 0 0.68199836817093118 forward_v I I I I #
coedge $-1 $175 $176 $177 $178 reversed $69 $-1 #
face $-1 $-1 $179 $37 $-1 $180 forward single #
loop $-1 $181 $182 $71 #
cone-surface $-1 -49.291227130487485 -8.2974342107956502 5.200352964804317 0.68199836817093118 0 -0.7313536940579346 0.18283842351448365 0 0.17049959204273279 1 I I -0.70710678118654746 0.70710678118654746 0.25 forward I I I I #
loop $-1 $-1 $183 $47 #
coedge $-1 $114 $114 $184 $185 reversed $72 $-1 #
face $-1 $-1 $186 $38 $-1 $187 forward single #
loop $-1 $188 $189 $74 #
cone-surface $-1 -49.291227130487485 -5.7625834474710693 5.200352964804317 0.68199836817093118 0 -0.7313536940579346 0.18283842351448365 0 0.17049959204273279 1 I I -0.70710678118654746 0.70710678118654746 0.25 forward I I I I #
loop $-1 $-1 $190 $48 #
coedge $-1 $119 $119 $191 $192 reversed $75 $-1 #
face $-1 $-1 $193 $39 $-1 $194 forward single #
loop $-1 $195 $196 $77 #
cone-surface $-1 -49.291227130487485 -3.2277326841464884 5.200352964804317 0.68199836817093118 0 -0.7313536940579346 0.18283842351448365 0 0.17049959204273279 1 I I -0.70710678118654746 0.70710678118654746 0.25 forward I I I I #
loop $-1 $-1 $197 $49 #
coedge $-1 $124 $124 $198 $199 reversed $78 $-1 #
face $-1 $200 $201 $30 $-1 $202 reversed single #
loop $-1 $-1 $203 $80 #
plane-surface $-1 0 -25.343758463124637 0 0 1 0 0 0 1 forward_v I I I I #
coedge $-1 $204 $205 $206 $207 forward $81 $-1 #
coedge $-1 $208 $83 $209 $210 forward $51 $-1 #
coedge $-1 $83 $208 $211 $212 forward $51 $-1 #
coedge $-1 $213 $214 $83 $132 reversed $215 $-1 #
edge $-1 $216 -25.343758463124637 $217 25.343758463124637 $131 $218 forward 7 unknown #
face $-1 $219 $220 $31 $-1 $221 reversed single #
loop $-1 $-1 $222 $84 #
plane-surface $-1 -52.956938383129369 0 0 1 0 0 0 0 -1 forward_v I I I I #
coedge $-1 $223 $224 $225 $226 reversed $85 $-1 #
coedge $-1 $227 $87 $228 $229 reversed $54 $-1 #
coedge $-1 $87 $227 $223 $230 forward $54 $-1 #
coedge $-1 $225 $231 $87 $140 forward $232 $-1 #
edge $-1 $233 -14.170955307850109 $234 -8.1746510026989458 $139 $235 forward 7 unknown #
face $-1 $236 $237 $32 $-1 $238 reversed single #
loop $-1 $-1 $239 $88 #
plane-surface $-1 0 0 8.8172952087092042 0 0 1 1 0 0 forward_v I I I I #
coedge $-1 $240 $241 $242 $243 reversed $89 $-1 #
coedge $-1 $244 $91 $240 $245 forward $57 $-1 #
coedge $-1 $91 $244 $246 $247 reversed $57 $-1 #
coedge $-1 $248 $249 $91 $148 forward $237 $-1 #
edge $-1 $250 8.1746510026989441 $251 14.170955307850107 $147 $252 forward 7 unknown #
face $-1 $253 $254 $33 $-1 $255 forward single #
loop $-1 $-1 $256 $92 #
plane-surface $-1 66.011549373528823 9.2743364042714909 152.7158579858293 0 1 0 0.7660444514056185 0 0.64278759981090561 forward_v I I I I #
coedge $-1 $257 $258 $259 $260 reversed $93 $-1 #
coedge $-1 $154 $95 $261 $262 reversed $60 $-1 #
coedge $-1 $95 $153 $257 $263 reversed $60 $-1 #
coedge $-1 $259 $264 $95 $156 forward $254 $-1 #
edge $-1 $265 -19.951163696364958 $266 -15.49025720224423 $155 $267 forward 7 unknown #
loop $-1 $-1 $162 $96 #
plane-surface $-1 -15.123188250122141 12.441476313056448 84.635731352577807 0.7660444514056185 0 0.64278759981090561 0.64278759981090561 0 -0.7660444514056185 forward_v I I I I #
loop $-1 $-1 $268 $62 #
coedge $-1 $160 $160 $161 $269 reversed $97 $-1 #
coedge $-1 $161 $161 $160 $269 forward $99 $-1 #
coedge $-1 $162 $162 $100 $163 forward $157 $-1 #
edge $-1 $270 0 $270 6.2831853071796004 $162 $271 forward 7 unknown #
loop $-1 $-1 $169 $101 #
plane-surface $-1 -15.123188250122141 12.441476313056448 84.635731352577807 0.7660444514056185 0 0.64278759981090561 0.64278759981090561 0 -0.7660444514056185 forward_v I I I I #
loop $-1 $-1 $272 $65 #
coedge $-1 $167 $167 $168 $273 reversed $102 $-1 #
coedge $-1 $168 $168 $167 $273 forward $104 $-1 #
coedge $-1 $169 $169 $105 $170 forward $164 $-1 #
edge $-1 $274 0 $274 6.2831853071796004 $169 $275 forward 7 unknown #
face $-1 $276 $277 $36 $-1 $278 reversed single #
loop $-1 $-1 $279 $106 #
plane-surface $-1 -125.19002950437493 -1.5378321752634356 82.089734816164849 0 -1 0 0.68199836817093118 0 -0.7313536940579346 forward_v I I I I #
coedge $-1 $280 $281 $282 $283 reversed $107 $-1 #
coedge $-1 $176 $109 $284 $285 reversed $69 $-1 #
coedge $-1 $109 $175 $280 $286 reversed $69 $-1 #
coedge $-1 $282 $287 $109 $178 forward $288 $-1 #
edge $-1 $289 9.6380763690580977 $290 14.129226578540418 $177 $291 forward 7 unknown #
loop $-1 $-1 $184 $110 #
plane-surface $-1 -52.956938383129369 -5.7625834474710693 4.6292297911646756 -0.68199836817093118 0 0.7313536940579346 0.7313536940579346 0 0.68199836817093118 forward_v I I I I #
loop $-1 $-1 $292 $71 #
coedge $-1 $182 $182 $183 $293 reversed $111 $-1 #
coedge $-1 $183 $183 $182 $293 forward $113 $-1 #
coedge $-1 $184 $184 $114 $185 forward $179 $-1 #
edge $-1 $294 0 $294 6.2831853071796004 $184 $295 forward 7 unknown #
loop $-1 $-1 $191 $115 #
plane-surface $-1 -52.956938383129369 -5.7625834474710693 4.6292297911646756 -0.68199836817093118 0 0.7313536940579346 0.7313536940579346 0 0.68199836817093118 forward_v I I I I #
loop $-1 $-1 $296 $74 #
coedge $-1 $189 $189 $190 $297 reversed $116 $-1 #
coedge $-1 $190 $190 $189 $297 forward $118 $-1 #
coedge $-1 $191 $191 $119 $192 forward $186 $-1 #
edge $-1 $298 0 $298 6.2831853071796004 $191 $299 forward 7 unknown #
loop $-1 $-1 $198 $120 #
plane-surface $-1 -52.956938383129369 -5.7625834474710693 4.6292297911646756 -0.68199836817093118 0 0.7313536940579346 0.7313536940579346 0 0.68199836817093118 forward_v I I I I #
loop $-1 $-1 $300 $77 #
coedge $-1 $196 $196 $197 $301 reversed $121 $-1 #
coedge $-1 $197 $197 $196 $301 forward $123 $-1 #
coedge $-1 $198 $198 $124 $199 forward $193 $-1 #
edge $-1 $302 0 $302 6.2831853071796004 $198 $303 forward 7 unknown #
face $-1 $304 $305 $30 $-1 $306 reversed single #
loop $-1 $-1 $307 $125 #
plane-surface $-1 -52.956938383129369 0 0 1 0 0 0 0 -1 forward_v I I I I #
coedge $-1 $308 $211 $309 $310 forward $126 $-1 #
coedge $-1 $311 $128 $308 $312 forward $81 $-1 #
coedge $-1 $128 $311 $313 $314 forward $81 $-1 #
coedge $-1 $214 $213 $128 $207 reversed $215 $-1 #
edge $-1 $315 -25.343758463124637 $316 25.343758463124637 $206 $317 forward 7 unknown #
coedge $-1 $130 $129 $318 $319 forward $51 $-1 #
coedge $-1 $320 $321 $129 $210 reversed $305 $-1 #
edge $-1 $217 -52.956938383129369 $322 52.956938383129369 $209 $323 forward 7 unknown #
coedge $-1 $203 $324 $130 $212 reversed $126 $-1 #
edge $-1 $325 -52.956938383129369 $216 52.956938383129369 $211 $326 forward 7 unknown #
coedge $-1 $206 $131 $324 $327 forward $215 $-1 #
coedge $-1 $131 $206 $320 $328 reversed $215 $-1 #
loop $-1 $-1 $213 $304 #
vertex $-1 $132 $329 #
vertex $-1 $132 $330 #
straight-curve $-1 52.956938383129369 0 8.8172952087092042 0 1 0 I I #
face $-1 $331 $332 $31 $-1 $333 forward single #
loop $-1 $-1 $228 $133 #
plane-surface $-1 0 -25.343758463124637 0 0 1 0 0 0 1 forward_v I I I I #
coedge $-1 $334 $335 $336 $337 forward $134 $-1 #
coedge $-1 $336 $136 $138 $230 reversed $85 $-1 #
coedge $-1 $136 $336 $338 $339 reversed $85 $-1 #
coedge $-1 $340 $139 $136 $226 forward $232 $-1 #
edge $-1 $234 1.6419242237538194 $341 5.3308887312215294 $225 $342 forward 7 unknown #
coedge $-1 $138 $137 $334 $343 reversed $54 $-1 #
coedge $-1 $344 $345 $137 $229 forward $220 $-1 #
edge $-1 $346 -52.956938383129369 $233 52.956938383129369 $228 $347 forward 7 unknown #
edge $-1 $348 -52.956938383129369 $234 52.956938383129369 $223 $349 forward 7 unknown #
coedge $-1 $139 $340 $344 $350 forward $232 $-1 #
loop $-1 $-1 $225 $331 #
vertex $-1 $229 $351 #
vertex $-1 $140 $352 #
straight-curve $-1 52.956938383129369 -11.172803155274527 5.1283307012414943 0 1 0 I I #
face $-1 $353 $354 $32 $-1 $355 reversed single #
loop $-1 $-1 $249 $141 #
plane-surface $-1 52.956938383129369 0 0 -1 0 0 0 0 1 forward_v I I I I #
coedge $-1 $356 $357 $241 $358 forward $142 $-1 #
coedge $-1 $359 $144 $145 $245 reversed $89 $-1 #
coedge $-1 $144 $359 $239 $358 reversed $89 $-1 #
coedge $-1 $360 $361 $144 $243 forward $354 $-1 #
edge $-1 $362 1.6419242237538194 $363 5.3308887312215294 $242 $364 forward 7 unknown #
coedge $-1 $146 $145 $361 $365 reversed $57 $-1 #
edge $-1 $250 -52.956938383129369 $362 52.956938383129369 $240 $366 forward 7 unknown #
coedge $-1 $367 $368 $146 $247 forward $369 $-1 #
edge $-1 $251 -52.956938383129369 $370 52.956938383129369 $246 $371 forward 7 unknown #
coedge $-1 $372 $147 $368 $373 reversed $237 $-1 #
coedge $-1 $147 $372 $359 $374 forward $237 $-1 #
vertex $-1 $148 $375 #
vertex $-1 $247 $376 #
straight-curve $-1 52.956938383129369 11.172803155274526 5.1283307012414943 0 1 0 I I #
face $-1 $-1 $377 $33 $-1 $378 reversed single #
loop $-1 $-1 $155 $149 #
plane-surface $-1 0 0 8.8172952087092042 0 0 1 1 0 0 forward_v I I I I #
coedge $-1 $379 $380 $381 $382 reversed $150 $-1 #
coedge $-1 $383 $152 $154 $263 forward $93 $-1 #
coedge $-1 $152 $383 $379 $384 forward $93 $-1 #
coedge $-1 $381 $155 $152 $260 forward $254 $-1 #
edge $-1 $266 -9.3878780653131813 $385 -3.0535982477432668 $259 $386 forward 7 unknown #
coedge $-1 $387 $388 $153 $262 forward $377 $-1 #
edge $-1 $389 -72.856935263987808 $265 -67.540633784205454 $261 $390 forward 7 unknown #
edge $-1 $266 98.973938137335281 $389 105.91387676625878 $154 $391 forward 7 unknown #
coedge $-1 $155 $381 $387 $392 forward $254 $-1 #
vertex $-1 $262 $393 #
vertex $-1 $156 $394 #
straight-curve $-1 33.005774686764411 15.608616221841405 8.8172952087091971 -1 0 0 I I #
coedge $-1 $268 $268 $-1 $395 reversed $159 $-1 #
edge $-1 $396 0 $396 6.2831853071796004 $160 $397 forward 7 unknown #
vertex $-1 $163 $398 #
ellipse-curve $-1 50.726485136069002 11.084130637862899 6.159144468818015 0.7660444514056185 0 0.64278759981090561 0.3213937999054528 0 -0.38302222570280925 1 I I #
coedge $-1 $272 $272 $-1 $399 reversed $166 $-1 #
edge $-1 $400 0 $400 6.2831853071796004 $167 $401 forward 7 unknown #
vertex $-1 $170 $402 #
ellipse-curve $-1 50.726485136069002 13.798821988250005 6.159144468818015 0.7660444514056185 0 0.64278759981090561 0.3213937999054528 0 -0.38302222570280925 1 I I #
face $-1 $-1 $288 $36 $-1 $403 forward single #
loop $-1 $-1 $404 $171 #
plane-surface $-1 -52.956938383129369 0 0 1 0 0 0 0 -1 forward_v I I I I #
coedge $-1 $405 $406 $407 $408 reversed $172 $-1 #
coedge $-1 $409 $174 $176 $286 forward $107 $-1 #
coedge $-1 $174 $409 $405 $410 forward $107 $-1 #
coedge $-1 $407 $177 $174 $283 forward $288 $-1 #
edge $-1 $290 -7.1060429959431683 $411 1.343459548472099 $282 $412 forward 7 unknown #
coedge $-1 $413 $414 $175 $285 forward $277 $-1 #
edge $-1 $415 -36.415637616917749 $289 -32.22757219937322 $284 $416 forward 7 unknown #
edge $-1 $290 -6.14087307683244 $415 0 $176 $417 forward 7 unknown #
coedge $-1 $177 $407 $413 $418 forward $288 $-1 #
loop $-1 $-1 $407 $276 #
vertex $-1 $285 $419 #
vertex $-1 $178 $420 #
straight-curve $-1 -62.595014752187467 -9.987334719678703 8.8172952087092042 1 0 0 I I #
coedge $-1 $292 $292 $-1 $421 reversed $181 $-1 #
edge $-1 $422 0 $422 6.2831853071796004 $182 $423 forward 7 unknown #
vertex $-1 $185 $424 #
ellipse-curve $-1 -50.711363278388212 -8.2974342107956502 6.7232624999369408 -0.68199836817093118 0 0.7313536940579346 0.3656768470289673 0 0.34099918408546559 1 I I #
coedge $-1 $296 $296 $-1 $425 reversed $188 $-1 #
edge $-1 $426 0 $426 6.2831853071796004 $189 $427 forward 7 unknown #
vertex $-1 $192 $428 #
ellipse-curve $-1 -50.711363278388212 -5.7625834474710693 6.7232624999369408 -0.68199836817093118 0 0.7313536940579346 0.3656768470289673 0 0.34099918408546559 1 I I #
coedge $-1 $300 $300 $-1 $429 reversed $195 $-1 #
edge $-1 $430 0 $430 6.2831853071796004 $196 $431 forward 7 unknown #
vertex $-1 $199 $432 #
ellipse-curve $-1 -50.711363278388212 -3.2277326841464884 6.7232624999369408 -0.68199836817093118 0 0.7313536940579346 0.3656768470289673 0 0.34099918408546559 1 I I #
face $-1 $-1 $215 $30 $-1 $433 reversed single #
loop $-1 $-1 $320 $200 #
plane-surface $-1 0 25.343758463124637 0 0 -1 0 0 0 -1 forward_v I I I I #
coedge $-1 $434 $318 $321 $435 forward $201 $-1 #
coedge $-1 $324 $203 $204 $312 reversed $126 $-1 #
coedge $-1 $318 $434 $203 $310 reversed $201 $-1 #
edge $-1 $325 -8.8172952087092042 $436 8.8172952087092042 $309 $437 forward 7 unknown #
coedge $-1 $205 $204 $434 $438 forward $81 $-1 #
edge $-1 $316 -52.956938383129369 $436 52.956938383129369 $308 $439 forward 7 unknown #
coedge $-1 $321 $320 $205 $314 reversed $305 $-1 #
edge $-1 $440 -52.956938383129369 $315 52.956938383129369 $313 $441 forward 7 unknown #
vertex $-1 $207 $442 #
vertex $-1 $327 $443 #
straight-curve $-1 52.956938383129369 0 -8.8172952087092042 0 -1 0 I I #
coedge $-1 $307 $309 $208 $319 reversed $201 $-1 #
edge $-1 $322 -25.343758463124637 $325 25.343758463124637 $318 $444 forward 7 unknown #
coedge $-1 $313 $209 $214 $328 forward $305 $-1 #
coedge $-1 $209 $313 $307 $435 reversed $305 $-1 #
vertex $-1 $210 $445 #
straight-curve $-1 0 25.343758463124637 8.8172952087092042 -1 0 0 I I #
coedge $-1 $211 $308 $213 $327 reversed $126 $-1 #
vertex $-1 $319 $446 #
straight-curve $-1 0 -25.343758463124637 8.8172952087092042 1 0 0 I I #
edge $-1 $216 -8.8172952087092042 $316 8.8172952087092042 $213 $447 forward 7 unknown #
edge $-1 $217 -8.8172952087092042 $315 8.8172952087092042 $214 $448 forward 7 unknown #
point $-1 52.956938383129369 -25.343758463124637 8.8172952087092042 #
point $-1 52.956938383129369 25.343758463124637 8.8172952087092042 #
face $-1 $-1 $232 $31 $-1 $449 reversed single #
loop $-1 $-1 $338 $219 #
plane-surface $-1 0 0 8.8172952087092042 0 0 1 1 0 0 forward_v I I I I #
coedge $-1 $450 $222 $227 $343 forward $134 $-1 #
coedge $-1 $222 $450 $451 $452 reversed $134 $-1 #
coedge $-1 $224 $223 $222 $337 reversed $85 $-1 #
edge $-1 $453 -5.3308887312215294 $348 -1.6419242237538194 $222 $454 forward 7 unknown #
coedge $-1 $451 $455 $224 $339 forward $332 $-1 #
edge $-1 $341 -52.956938383129369 $453 52.956938383129369 $338 $456 forward 7 unknown #
coedge $-1 $231 $225 $455 $457 reversed $232 $-1 #
vertex $-1 $226 $458 #
straight-curve $-1 52.956938383129369 -19.347454157973473 3.4864064774876748 0 0 1 I I #
edge $-1 $348 8.1746510026989458 $346 14.170955307850109 $334 $459 forward 7 unknown #
coedge $-1 $460 $228 $231 $350 reversed $220 $-1 #
coedge $-1 $228 $460 $450 $461 forward $220 $-1 #
vertex $-1 $229 $462 #
straight-curve $-1 0 -25.343758463124637 5.1283307012414943 1 0 0 I I #
vertex $-1 $343 $463 #
straight-curve $-1 0 -19.347454157973473 5.1283307012414943 1 0 0 I I #
edge $-1 $464 -8.8172952087092042 $233 -5.1283307012414943 $231 $465 forward 7 unknown #
point $-1 52.956938383129369 -25.343758463124637 5.1283307012414943 #
point $-1 52.956938383129369 -19.347454157973473 5.1283307012414943 #
face $-1 $-1 $369 $32 $-1 $466 reversed single #
loop $-1 $-1 $242 $236 #
plane-surface $-1 -52.956938383129369 0 0 1 0 0 0 0 -1 forward_v I I I I #
coedge $-1 $467 $239 $372 $468 forward $142 $-1 #
coedge $-1 $239 $467 $360 $469 forward $142 $-1 #
edge $-1 $363 -52.956938383129369 $470 52.956938383129369 $239 $471 forward 7 unknown #
coedge $-1 $241 $240 $249 $374 reversed $89 $-1 #
coedge $-1 $472 $242 $357 $469 reversed $354 $-1 #
coedge $-1 $242 $472 $244 $365 forward $354 $-1 #
vertex $-1 $365 $473 #
vertex $-1 $243 $474 #
straight-curve $-1 -52.956938383129369 19.34745415797347 3.4864064774876748 0 0 1 I I #
edge $-1 $370 -14.170955307850107 $362 -8.1746510026989441 $361 $475 forward 7 unknown #
straight-curve $-1 0 19.34745415797347 5.1283307012414943 -1 0 0 I I #
coedge $-1 $476 $246 $472 $477 reversed $369 $-1 #
coedge $-1 $246 $476 $248 $373 forward $369 $-1 #
loop $-1 $-1 $246 $353 #
vertex $-1 $247 $478 #
straight-curve $-1 0 25.343758463124637 5.1283307012414943 -1 0 0 I I #
coedge $-1 $249 $248 $356 $468 reversed $237 $-1 #
edge $-1 $479 -8.8172952087092042 $251 -5.1283307012414943 $248 $480 forward 7 unknown #
edge $-1 $470 -5.3308887312215294 $250 -1.6419242237538194 $249 $481 forward 7 unknown #
point $-1 52.956938383129369 19.34745415797347 5.1283307012414943 #
point $-1 52.956938383129369 25.343758463124633 5.1283307012414943 #
loop $-1 $-1 $261 $253 #
plane-surface $-1 52.956938383129369 0 0 -1 0 0 0 0 1 forward_v I I I I #
coedge $-1 $380 $256 $258 $384 reversed $150 $-1 #
coedge $-1 $256 $379 $482 $483 reversed $150 $-1 #
coedge $-1 $264 $259 $256 $382 forward $254 $-1 #
edge $-1 $385 15.49025720224423 $484 19.951163696364958 $381 $485 forward 7 unknown #
coedge $-1 $258 $257 $388 $486 reversed $93 $-1 #
edge $-1 $487 -105.91387676625878 $385 -98.973938137335281 $379 $488 forward 7 unknown #
vertex $-1 $260 $489 #
straight-curve $-1 48.496031889008641 6.220738156528224 8.8172952087091971 0 -1 0 I I #
coedge $-1 $482 $261 $264 $392 reversed $377 $-1 #
coedge $-1 $261 $482 $383 $486 forward $377 $-1 #
vertex $-1 $262 $490 #
straight-curve $-1 52.956938383129369 15.608616221841405 76.357928992914651 0 0 1 I I #
straight-curve $-1 -15.123188250122141 15.608616221841405 84.635731352577807 0.64278759981090561 0 -0.7660444514056185 I I #
edge $-1 $484 9.2743364042714909 $265 15.608616221841405 $387 $491 forward 7 unknown #
point $-1 52.956938383129369 15.608616221841405 8.8172952087092042 #
point $-1 48.496031889008641 15.608616221841405 8.8172952087091971 #
edge $-1 $492 1 $492 0 $268 $-1 forward 7 unknown #
vertex $-1 $269 $493 #
ellipse-curve $-1 49.851286305452206 11.084130637862899 5.4247654720675991 0.7660444514056185 0 0.64278759981090561 0.3213937999054528 0 -0.38302222570280925 1 I I #
point $-1 51.04787893597446 11.084130637862899 5.7761222431152106 #
edge $-1 $494 1 $494 0 $272 $-1 forward 7 unknown #
vertex $-1 $273 $495 #
ellipse-curve $-1 49.851286305452206 13.798821988250005 5.4247654720675991 0.7660444514056185 0 0.64278759981090561 0.3213937999054528 0 -0.38302222570280925 1 I I #
point $-1 51.04787893597446 13.798821988250005 5.7761222431152106 #
plane-surface $-1 0 0 8.8172952087092042 0 0 1 1 0 0 forward_v I I I I #
coedge $-1 $414 $413 $406 $496 forward $277 $-1 #
coedge $-1 $406 $279 $281 $410 reversed $172 $-1 #
coedge $-1 $279 $405 $404 $496 reversed $172 $-1 #
coedge $-1 $287 $282 $279 $408 forward $288 $-1 #
edge $-1 $411 -14.129226578540418 $497 -9.6380763690580977 $407 $498 forward 7 unknown #
coedge $-1 $281 $280 $414 $499 reversed $107 $-1 #
edge $-1 $500 0 $411 6.14087307683244 $405 $501 forward 7 unknown #
vertex $-1 $283 $502 #
straight-curve $-1 -48.465788173647056 -2.8812917237355347 8.817295208709206 0 1 0 I I #
coedge $-1 $404 $284 $287 $418 reversed $277 $-1 #
coedge $-1 $284 $404 $409 $499 forward $277 $-1 #
vertex $-1 $285 $503 #
straight-curve $-1 -52.956938383129369 -9.987334719678703 41.044867408082425 0 0 1 I I #
straight-curve $-1 -52.956938383129369 -9.987334719678703 4.6292297911646756 -0.7313536940579346 0 -0.68199836817093118 I I #
edge $-1 $497 1.5378321752634356 $289 9.987334719678703 $413 $504 forward 7 unknown #
point $-1 -52.956938383129369 -9.987334719678703 8.8172952087092042 #
point $-1 -48.465788173647049 -9.987334719678703 8.8172952087092042 #
edge $-1 $505 1 $505 0 $292 $-1 forward 7 unknown #
vertex $-1 $293 $506 #
ellipse-curve $-1 -49.461726722530216 -8.2974342107956502 5.3831913883188003 -0.68199836817093118 0 0.7313536940579346 0.3656768470289673 0 0.34099918408546559 1 I I #
point $-1 -50.345686431359233 -8.2974342107956502 7.0642616840223997 #
edge $-1 $507 1 $507 0 $296 $-1 forward 7 unknown #
vertex $-1 $297 $508 #
ellipse-curve $-1 -49.461726722530216 -5.7625834474710693 5.3831913883188003 -0.68199836817093118 0 0.7313536940579346 0.3656768470289673 0 0.34099918408546559 1 I I #
point $-1 -50.345686431359233 -5.7625834474710693 7.0642616840223997 #
edge $-1 $509 1 $509 0 $300 $-1 forward 7 unknown #
vertex $-1 $301 $510 #
ellipse-curve $-1 -49.461726722530216 -3.2277326841464884 5.3831913883188003 -0.68199836817093118 0 0.7313536940579346 0.3656768470289673 0 0.34099918408546559 1 I I #
point $-1 -50.345686431359233 -3.2277326841464884 7.0642616840223997 #
plane-surface $-1 52.956938383129369 0 0 -1 0 0 0 0 1 forward_v I I I I #
coedge $-1 $309 $307 $311 $438 reversed $201 $-1 #
edge $-1 $322 -8.8172952087092042 $440 8.8172952087092042 $321 $511 forward 7 unknown #
vertex $-1 $438 $512 #
straight-curve $-1 -52.956938383129369 -25.343758463124637 0 0 0 -1 I I #
edge $-1 $436 -25.343758463124637 $440 25.343758463124637 $434 $513 forward 7 unknown #
straight-curve $-1 0 -25.343758463124637 -8.8172952087092042 -1 0 0 I I #
vertex $-1 $314 $514 #
straight-curve $-1 0 25.343758463124637 -8.8172952087092042 1 0 0 I I #
point $-1 52.956938383129369 25.343758463124637 -8.8172952087092042 #
point $-1 52.956938383129369 -25.343758463124637 -8.8172952087092042 #
straight-curve $-1 -52.956938383129369 0 8.8172952087092042 0 -1 0 I I #
point $-1 -52.956938383129369 25.343758463124637 8.8172952087092042 #
point $-1 -52.956938383129369 -25.343758463124637 8.8172952087092042 #
straight-curve $-1 52.956938383129369 -25.343758463124637 0 0 0 -1 I I #
straight-curve $-1 52.956938383129369 25.343758463124637 0 0 0 -1 I I #
plane-surface $-1 52.956938383129369 0 0 -1 0 0 0 0 1 forward_v I I I I #
coedge $-1 $335 $334 $345 $461 reversed $134 $-1 #
coedge $-1 $515 $338 $335 $452 forward $332 $-1 #
edge $-1 $453 19.347454157973473 $516 25.343758463124637 $335 $517 forward 7 unknown #
vertex $-1 $452 $518 #
straight-curve $-1 -52.956938383129369 -19.347454157973473 3.4864064774876748 0 0 -1 I I #
coedge $-1 $338 $515 $340 $457 forward $332 $-1 #
straight-curve $-1 0 -19.347454157973473 8.8172952087092042 -1 0 0 I I #
edge $-1 $464 -25.343758463124637 $341 -19.347454157973473 $340 $519 forward 7 unknown #
point $-1 52.956938383129369 -19.347454157973473 8.8172952087092042 #
straight-curve $-1 -52.956938383129369 -11.172803155274527 5.1283307012414943 0 -1 0 I I #
coedge $-1 $345 $344 $515 $520 reversed $220 $-1 #
edge $-1 $516 -8.8172952087092042 $346 -5.1283307012414943 $450 $521 forward 7 unknown #
point $-1 -52.956938383129369 -25.343758463124637 5.1283307012414943 #
point $-1 -52.956938383129369 -19.347454157973473 5.1283307012414943 #
vertex $-1 $457 $522 #
straight-curve $-1 52.956938383129369 -25.343758463124637 0 0 0 -1 I I #
plane-surface $-1 0 25.343758463124637 0 0 -1 0 0 0 -1 forward_v I I I I #
coedge $-1 $357 $356 $476 $523 forward $142 $-1 #
edge $-1 $470 19.34745415797347 $479 25.343758463124637 $372 $524 forward 7 unknown #
edge $-1 $525 -25.343758463124637 $363 -19.34745415797347 $360 $526 forward 7 unknown #
vertex $-1 $468 $527 #
straight-curve $-1 0 19.34745415797347 8.8172952087092042 1 0 0 I I #
coedge $-1 $361 $360 $367 $477 forward $354 $-1 #
point $-1 -52.956938383129369 19.34745415797347 5.1283307012414943 #
point $-1 -52.956938383129369 19.34745415797347 8.8172952087092042 #
straight-curve $-1 -52.956938383129369 11.172803155274526 5.1283307012414943 0 -1 0 I I #
coedge $-1 $368 $367 $467 $523 reversed $369 $-1 #
edge $-1 $525 -8.8172952087092042 $370 -5.1283307012414943 $367 $528 forward 7 unknown #
point $-1 -52.956938383129369 25.343758463124633 5.1283307012414943 #
vertex $-1 $468 $529 #
straight-curve $-1 52.956938383129369 25.343758463124637 0 0 0 -1 I I #
straight-curve $-1 52.956938383129369 19.34745415797347 3.4864064774876748 0 0 -1 I I #
coedge $-1 $388 $387 $380 $483 forward $377 $-1 #
edge $-1 $484 67.540633784205454 $487 72.856935263987808 $482 $530 forward 7 unknown #
vertex $-1 $392 $531 #
straight-curve $-1 33.005774686764411 9.2743364042714909 8.8172952087091971 1 0 0 I I #
edge $-1 $487 3.0535982477432668 $389 9.3878780653131813 $388 $532 forward 7 unknown #
vertex $-1 $486 $533 #
straight-curve $-1 -15.123188250122141 9.2743364042714909 84.635731352577807 -0.64278759981090561 0 0.7660444514056185 I I #
point $-1 48.496031889008641 9.2743364042714909 8.8172952087091971 #
point $-1 52.956938383129369 15.608616221841405 3.5009937289268436 #
straight-curve $-1 52.956938383129369 0 8.8172952087092042 0 1 0 I I #
vertex $-1 $395 $534 #
point $-1 50.172680105357664 11.084130637862899 5.0417432463647902 #
vertex $-1 $399 $535 #
point $-1 50.172680105357664 13.798821988250005 5.0417432463647902 #
edge $-1 $497 32.22757219937322 $500 36.415637616917749 $404 $536 forward 7 unknown #
vertex $-1 $418 $537 #
straight-curve $-1 -62.595014752187467 -1.5378321752634356 8.8172952087092042 -1 0 0 I I #
edge $-1 $500 -1.343459548472099 $415 7.1060429959431683 $414 $538 forward 7 unknown #
vertex $-1 $499 $539 #
straight-curve $-1 -52.956938383129369 -1.5378321752634356 4.6292297911646756 0.7313536940579346 0 0.68199836817093118 I I #
point $-1 -48.465788173647049 -1.5378321752634356 8.8172952087092042 #
point $-1 -52.956938383129369 -9.987334719678703 4.6292297911646756 #
straight-curve $-1 -52.956938383129369 0 8.8172952087092042 0 -1 0 I I #
vertex $-1 $421 $540 #
point $-1 -49.096049875501251 -8.2974342107956502 5.7241905724042663 #
vertex $-1 $425 $541 #
point $-1 -49.096049875501251 -5.7625834474710693 5.7241905724042663 #
vertex $-1 $429 $542 #
point $-1 -49.096049875501251 -3.2277326841464884 5.7241905724042663 #
straight-curve $-1 -52.956938383129369 25.343758463124637 0 0 0 -1 I I #
point $-1 -52.956938383129369 -25.343758463124637 -8.8172952087092042 #
straight-curve $-1 -52.956938383129369 0 -8.8172952087092042 0 1 0 I I #
point $-1 -52.956938383129369 25.343758463124637 -8.8172952087092042 #
coedge $-1 $455 $451 $460 $520 forward $332 $-1 #
vertex $-1 $452 $543 #
straight-curve $-1 -52.956938383129369 0 8.8172952087092042 0 -1 0 I I #
point $-1 -52.956938383129369 -19.347454157973473 8.8172952087092042 #
straight-curve $-1 52.956938383129369 0 8.8172952087092042 0 1 0 I I #
edge $-1 $516 -52.956938383129369 $464 52.956938383129369 $460 $544 forward 7 unknown #
straight-curve $-1 -52.956938383129369 -25.343758463124637 0 0 0 -1 I I #
point $-1 52.956938383129369 -25.343758463124637 8.8172952087092042 #
edge $-1 $479 -52.956938383129369 $525 52.956938383129369 $476 $545 forward 7 unknown #
straight-curve $-1 52.956938383129369 0 8.8172952087092042 0 1 0 I I #
vertex $-1 $523 $546 #
straight-curve $-1 -52.956938383129369 0 8.8172952087092042 0 -1 0 I I #
point $-1 52.956938383129369 19.34745415797347 8.8172952087092042 #
straight-curve $-1 -52.956938383129369 25.343758463124637 0 0 0 -1 I I #
point $-1 52.956938383129369 25.343758463124637 8.8172952087092042 #
straight-curve $-1 52.956938383129369 9.2743364042714909 76.357928992914651 0 0 -1 I I #
point $-1 52.956938383129369 9.2743364042714909 8.8172952087092042 #
straight-curve $-1 52.956938383129369 6.220738156528224 3.5009937289268365 0 1 0 I I #
point $-1 52.956938383129369 9.2743364042714909 3.5009937289268436 #
point $-1 49.468264079749403 11.084130637862899 5.1033716721621465 #
point $-1 49.468264079749403 13.798821988250005 5.1033716721621465 #
straight-curve $-1 -52.956938383129369 -1.5378321752634356 41.044867408082425 0 0 -1 I I #
point $-1 -52.956938383129369 -1.5378321752634356 8.8172952087092042 #
straight-curve $-1 -52.956938383129369 -2.8812917237355347 4.6292297911646783 0 -1 0 I I #
point $-1 -52.956938383129369 -1.5378321752634356 4.6292297911646756 #
point $-1 -49.120727538444754 -8.2974342107956502 5.0175145412898337 #
point $-1 -49.120727538444754 -5.7625834474710693 5.0175145412898337 #
point $-1 -49.120727538444754 -3.2277326841464884 5.0175145412898337 #
point $-1 -52.956938383129369 -25.343758463124637 8.8172952087092042 #
straight-curve $-1 0 -25.343758463124637 8.8172952087092042 1 0 0 I I #
straight-curve $-1 0 25.343758463124637 8.8172952087092042 -1 0 0 I I #
point $-1 -52.956938383129369 25.343758463124637 8.8172952087092042 #
End-of-ACIS-data 