500 0 4 0           
7 Unknown 11 ACIS 5.0 NT 24 Fri Mar 26 00:33:23 1999 
-1 9.9999999999999995e-007 1e-010 
body $-1 $4 $-1 $5 #
body $-1 $6 $-1 $7 #
body $-1 $8 $-1 $9 #
body $-1 $10 $-1 $11 #
lump $-1 $-1 $12 $0 #
transform $-1 1 0 0 0 1 0 0 0 1 48.531754509109774 21.069182843805915 4.7261790135972852 1 rotate no_reflect no_shear #
lump $-1 $-1 $13 $1 #
transform $-1 1 0 0 0 1 0 0 0 1 48.531754509109774 21.069182843805915 4.7261790135972852 1 rotate no_reflect no_shear #
lump $-1 $-1 $14 $2 #
transform $-1 1 0 0 0 1 0 0 0 1 48.531754509109774 21.069182843805915 4.7261790135972852 1 rotate no_reflect no_shear #
lump $-1 $-1 $15 $3 #
transform $-1 1 0 0 0 1 0 0 0 1 48.531754509109774 21.069182843805915 4.7261790135972852 1 rotate no_reflect no_shear #
shell $-1 $-1 $-1 $16 $-1 $4 #
shell $-1 $-1 $-1 $17 $-1 $6 #
shell $-1 $-1 $-1 $18 $-1 $8 #
shell $-1 $-1 $-1 $19 $-1 $10 #
face $-1 $20 $21 $12 $-1 $22 forward single #
face $-1 $23 $24 $13 $-1 $25 forward single #
face $-1 $26 $27 $14 $-1 $28 forward single #
face $-1 $29 $30 $15 $-1 $31 reversed single #
face $-1 $32 $33 $12 $-1 $34 reversed single #
loop $-1 $-1 $35 $16 #
plane-surface $-1 0 0 4.7261790135972852 0 0 1 1 0 0 forward_v I I I I #
face $-1 $36 $37 $13 $-1 $38 reversed single #
loop $-1 $-1 $39 $17 #
plane-surface $-1 -50.814071890061847 0 -1.7261790135972852 0 0 1 1 0 0 forward_v I I I I #
face $-1 $40 $41 $14 $-1 $42 forward single #
loop $-1 $-1 $43 $18 #
plane-surface $-1 74.72382692586045 2.1852684024377336 135.35234567262904 0 -1 0 -0.82903758062907751 0 -0.55919289150049634 forward_v I I I I #
face $-1 $44 $45 $15 $-1 $46 reversed single #
loop $-1 $47 $48 $19 #
cone-surface $-1 46.727628730932921 -1.0291765351289683 2.3864054219048576 -0.82903758062907751 0 -0.55919289150049634 0.27959644575024817 0 -0.41451879031453875 1 I I 0 1 0.5 forward I I I I #
face $-1 $49 $50 $12 $-1 $51 reversed single #
loop $-1 $-1 $52 $20 #
plane-surface $-1 0 0 -4.7261790135972852 0 0 1 1 0 0 forward_v I I I I #
coedge $-1 $53 $54 $55 $56 forward $21 $-1 #
face $-1 $57 $58 $13 $-1 $59 forward single #
loop $-1 $-1 $60 $23 #
plane-surface $-1 -53.096389271013919 0 -3.2261790135972852 1 0 0 0 0 -1 forward_v I I I I #
coedge $-1 $61 $62 $63 $64 reversed $24 $-1 #
face $-1 $65 $66 $14 $-1 $67 forward single #
loop $-1 $-1 $68 $26 #
plane-surface $-1 -5.745469757972927 -1.0291765351289648 81.075121405546355 0.82903758062907751 0 0.55919289150049634 0.55919289150049634 0 -0.82903758062907751 forward_v I I I I #
coedge $-1 $69 $70 $71 $72 reversed $27 $-1 #
face $-1 $73 $74 $15 $-1 $75 forward single #
loop $-1 $76 $77 $29 #
cone-surface $-1 46.105850545461109 -1.0291765351289683 1.9670107532794852 -0.82903758062907751 0 -0.55919289150049634 0.13979822287512408 0 -0.20725939515726938 1 I I -0.70710678118654746 0.70710678118654746 0.25 forward I I I I #
loop $-1 $-1 $78 $19 #
coedge $-1 $48 $48 $79 $80 reversed $30 $-1 #
face $-1 $81 $82 $12 $-1 $83 reversed single #
loop $-1 $-1 $84 $32 #
plane-surface $-1 0 -21.069182843805915 0 0 1 0 0 0 1 forward_v I I I I #
coedge $-1 $85 $86 $87 $88 forward $33 $-1 #
coedge $-1 $89 $35 $90 $91 forward $21 $-1 #
coedge $-1 $35 $89 $92 $93 forward $21 $-1 #
coedge $-1 $94 $95 $35 $56 reversed $96 $-1 #
edge $-1 $97 -21.069182843805915 $98 21.069182843805915 $55 $99 forward 7 unknown #
face $-1 $100 $101 $13 $-1 $102 reversed single #
loop $-1 $-1 $103 $36 #
plane-surface $-1 0 0 4.7261790135972852 0 0 1 1 0 0 forward_v I I I I #
coedge $-1 $104 $105 $106 $107 forward $37 $-1 #
coedge $-1 $108 $39 $109 $110 forward $24 $-1 #
coedge $-1 $39 $108 $111 $112 forward $24 $-1 #
coedge $-1 $113 $114 $39 $64 forward $115 $-1 #
edge $-1 $116 -21.069182843805915 $117 21.069182843805915 $63 $118 forward 7 unknown #
face $-1 $119 $120 $14 $-1 $121 forward single #
loop $-1 $-1 $122 $40 #
plane-surface $-1 74.72382692586045 -4.2436214726956631 135.35234567262904 0 1 0 0.82903758062907751 0 0.55919289150049634 forward_v I I I I #
coedge $-1 $123 $124 $125 $126 reversed $41 $-1 #
coedge $-1 $70 $43 $124 $127 forward $27 $-1 #
coedge $-1 $43 $69 $128 $129 reversed $27 $-1 #
coedge $-1 $130 $125 $43 $72 forward $120 $-1 #
edge $-1 $131 8.3906270704549044 $132 11.169841046179549 $71 $133 forward 7 unknown #
face $-1 $134 $135 $15 $-1 $136 forward single #
loop $-1 $-1 $137 $44 #
plane-surface $-1 74.72382692586045 2.1852684024377336 135.35234567262904 0 -1 0 -0.82903758062907751 0 -0.55919289150049634 forward_v I I I I #
loop $-1 $-1 $138 $29 #
coedge $-1 $77 $77 $78 $139 forward $45 $-1 #
coedge $-1 $78 $78 $77 $139 reversed $47 $-1 #
coedge $-1 $79 $79 $48 $80 forward $135 $-1 #
edge $-1 $140 0 $140 6.2831853071796004 $79 $141 forward 7 unknown #
face $-1 $142 $143 $12 $-1 $144 reversed single #
loop $-1 $-1 $145 $49 #
plane-surface $-1 -48.531754509109774 0 0 1 0 0 0 0 -1 forward_v I I I I #
coedge $-1 $146 $92 $147 $148 forward $50 $-1 #
coedge $-1 $149 $52 $146 $150 forward $33 $-1 #
coedge $-1 $52 $149 $151 $152 forward $33 $-1 #
coedge $-1 $95 $94 $52 $88 reversed $96 $-1 #
edge $-1 $153 -21.069182843805915 $154 21.069182843805915 $87 $155 forward 7 unknown #
coedge $-1 $54 $53 $156 $157 forward $21 $-1 #
coedge $-1 $158 $159 $53 $91 reversed $143 $-1 #
edge $-1 $98 -48.531754509109774 $160 48.531754509109774 $90 $161 forward 7 unknown #
coedge $-1 $84 $162 $54 $93 reversed $50 $-1 #
edge $-1 $163 -48.531754509109774 $97 48.531754509109774 $92 $164 forward 7 unknown #
coedge $-1 $87 $55 $162 $165 forward $96 $-1 #
coedge $-1 $55 $87 $158 $166 reversed $96 $-1 #
loop $-1 $-1 $94 $142 #
vertex $-1 $56 $167 #
vertex $-1 $56 $168 #
straight-curve $-1 48.531754509109774 0 4.7261790135972852 0 1 0 I I #
face $-1 $169 $170 $13 $-1 $171 reversed single #
loop $-1 $-1 $172 $57 #
plane-surface $-1 0 0 -4.7261790135972852 0 0 1 1 0 0 forward_v I I I I #
coedge $-1 $173 $174 $175 $176 forward $58 $-1 #
coedge $-1 $177 $60 $178 $179 reversed $37 $-1 #
coedge $-1 $60 $177 $108 $180 reversed $37 $-1 #
coedge $-1 $109 $181 $60 $107 reversed $182 $-1 #
edge $-1 $183 -1.5 $184 1.5 $106 $185 forward 7 unknown #
coedge $-1 $62 $61 $105 $180 forward $24 $-1 #
coedge $-1 $186 $106 $61 $110 reversed $182 $-1 #
edge $-1 $116 -2.2823173809520725 $183 2.2823173809520725 $109 $187 forward 7 unknown #
coedge $-1 $188 $189 $62 $112 reversed $170 $-1 #
edge $-1 $190 -2.2823173809520725 $117 2.2823173809520725 $111 $191 forward 7 unknown #
coedge $-1 $192 $63 $189 $193 reversed $115 $-1 #
coedge $-1 $63 $192 $186 $194 forward $115 $-1 #
loop $-1 $-1 $63 $169 #
vertex $-1 $194 $195 #
vertex $-1 $112 $196 #
straight-curve $-1 -48.531754509109774 0 -1.7261790135972852 0 -1 0 I I #
face $-1 $197 $198 $14 $-1 $199 forward single #
loop $-1 $-1 $200 $65 #
plane-surface $-1 0 0 4.7261790135972852 0 0 1 1 0 0 forward_v I I I I #
coedge $-1 $201 $202 $200 $203 reversed $66 $-1 #
coedge $-1 $204 $68 $202 $205 reversed $41 $-1 #
coedge $-1 $68 $204 $69 $127 reversed $41 $-1 #
coedge $-1 $71 $200 $68 $126 forward $120 $-1 #
edge $-1 $206 -3.7290332051311808 $131 2.699856670002216 $125 $207 forward 7 unknown #
edge $-1 $131 92.09346376555709 $208 97.063509018219577 $69 $209 forward 7 unknown #
coedge $-1 $210 $211 $70 $129 forward $212 $-1 #
edge $-1 $132 62.949993822717232 $208 67.070348114601558 $128 $213 forward 7 unknown #
coedge $-1 $214 $71 $211 $215 forward $120 $-1 #
vertex $-1 $126 $216 #
vertex $-1 $215 $217 #
straight-curve $-1 37.361913462930225 2.1852684024377336 4.7261790135972888 1 0 0 I I #
face $-1 $218 $219 $15 $-1 $220 forward single #
loop $-1 $221 $79 $73 #
plane-surface $-1 -5.745469757972927 -1.0291765351289648 81.075121405546355 0.82903758062907751 0 0.55919289150049634 0.55919289150049634 0 -0.82903758062907751 forward_v I I I I #
coedge $-1 $222 $223 $224 $225 reversed $74 $-1 #
coedge $-1 $138 $138 $-1 $226 forward $76 $-1 #
edge $-1 $227 0 $227 6.2831853071796004 $77 $228 forward 7 unknown #
vertex $-1 $80 $229 #
ellipse-curve $-1 47.142147521247466 -1.0291765351289683 2.6660018676551096 -0.82903758062907751 0 -0.55919289150049634 0.27959644575024817 0 -0.41451879031453875 1 I I #
face $-1 $-1 $96 $12 $-1 $230 reversed single #
loop $-1 $-1 $158 $81 #
plane-surface $-1 0 21.069182843805915 0 0 -1 0 0 0 -1 forward_v I I I I #
coedge $-1 $231 $156 $159 $232 forward $82 $-1 #
coedge $-1 $162 $84 $85 $150 reversed $50 $-1 #
coedge $-1 $156 $231 $84 $148 reversed $82 $-1 #
edge $-1 $163 -4.7261790135972852 $233 4.7261790135972852 $147 $234 forward 7 unknown #
coedge $-1 $86 $85 $231 $235 forward $33 $-1 #
edge $-1 $154 -48.531754509109774 $233 48.531754509109774 $146 $236 forward 7 unknown #
coedge $-1 $159 $158 $86 $152 reversed $143 $-1 #
edge $-1 $237 -48.531754509109774 $153 48.531754509109774 $151 $238 forward 7 unknown #
vertex $-1 $88 $239 #
vertex $-1 $165 $240 #
straight-curve $-1 48.531754509109774 0 -4.7261790135972852 0 -1 0 I I #
coedge $-1 $145 $147 $89 $157 reversed $82 $-1 #
edge $-1 $160 -21.069182843805915 $163 21.069182843805915 $156 $241 forward 7 unknown #
coedge $-1 $151 $90 $95 $166 forward $143 $-1 #
coedge $-1 $90 $151 $145 $232 reversed $143 $-1 #
vertex $-1 $91 $242 #
straight-curve $-1 0 21.069182843805915 4.7261790135972852 -1 0 0 I I #
coedge $-1 $92 $146 $94 $165 reversed $50 $-1 #
vertex $-1 $157 $243 #
straight-curve $-1 0 -21.069182843805915 4.7261790135972852 1 0 0 I I #
edge $-1 $97 -4.7261790135972852 $154 4.7261790135972852 $94 $244 forward 7 unknown #
edge $-1 $98 -4.7261790135972852 $153 4.7261790135972852 $95 $245 forward 7 unknown #
point $-1 48.531754509109774 -21.069182843805915 4.7261790135972852 #
point $-1 48.531754509109774 21.069182843805915 4.7261790135972852 #
face $-1 $246 $115 $13 $-1 $247 reversed single #
loop $-1 $-1 $189 $100 #
plane-surface $-1 0 -21.069182843805915 0 0 1 0 0 0 1 forward_v I I I I #
coedge $-1 $248 $249 $250 $251 forward $101 $-1 #
coedge $-1 $252 $103 $253 $254 forward $58 $-1 #
coedge $-1 $103 $252 $255 $256 forward $58 $-1 #
coedge $-1 $257 $258 $103 $176 reversed $259 $-1 #
edge $-1 $260 -21.069182843805915 $261 21.069182843805915 $175 $262 forward 7 unknown #
coedge $-1 $105 $104 $188 $263 reversed $37 $-1 #
coedge $-1 $249 $248 $104 $179 forward $101 $-1 #
edge $-1 $264 -21.069182843805915 $184 21.069182843805915 $104 $265 forward 7 unknown #
edge $-1 $183 -21.069182843805915 $190 21.069182843805915 $105 $266 forward 7 unknown #
coedge $-1 $106 $267 $249 $268 reversed $182 $-1 #
loop $-1 $-1 $267 $246 #
vertex $-1 $110 $269 #
vertex $-1 $268 $270 #
straight-curve $-1 -53.096389271013919 21.069182843805915 -3.2261790135972852 0 0 -1 I I #
coedge $-1 $253 $109 $114 $194 reversed $182 $-1 #
straight-curve $-1 -50.814071890061847 21.069182843805915 -1.7261790135972852 -1 0 0 I I #
coedge $-1 $271 $111 $177 $263 forward $170 $-1 #
coedge $-1 $111 $255 $113 $193 forward $170 $-1 #
vertex $-1 $180 $272 #
straight-curve $-1 -50.814071890061847 -21.069182843805915 -1.7261790135972852 1 0 0 I I #
coedge $-1 $114 $113 $252 $273 reversed $115 $-1 #
edge $-1 $274 -4.7261790135972852 $117 1.7261790135972852 $113 $275 forward 7 unknown #
edge $-1 $276 -4.7261790135972852 $116 1.7261790135972852 $186 $277 forward 7 unknown #
point $-1 -48.531754509109774 21.069182843805915 -1.7261790135972852 #
point $-1 -48.531754509109774 -21.069182843805915 -1.7261790135972852 #
face $-1 $278 $279 $14 $-1 $280 reversed single #
loop $-1 $-1 $281 $119 #
plane-surface $-1 -50.814071890061847 0 -1.7261790135972852 0 0 1 1 0 0 forward_v I I I I #
coedge $-1 $125 $282 $122 $203 forward $120 $-1 #
coedge $-1 $202 $122 $283 $284 reversed $66 $-1 #
coedge $-1 $122 $201 $123 $205 forward $66 $-1 #
edge $-1 $285 -11.169841046179549 $206 -8.3906270704549044 $200 $286 forward 7 unknown #
coedge $-1 $124 $123 $210 $287 reversed $41 $-1 #
edge $-1 $288 -97.063509018219577 $206 -92.09346376555709 $202 $289 forward 7 unknown #
vertex $-1 $126 $290 #
straight-curve $-1 45.752540533385144 -0.51458826756448239 4.7261790135972817 0 1 0 I I #
vertex $-1 $287 $291 #
straight-curve $-1 -5.745469757972927 2.1852684024377336 81.075121405546355 0.55919289150049634 0 -0.82903758062907751 I I #
coedge $-1 $283 $128 $204 $287 forward $212 $-1 #
coedge $-1 $128 $292 $130 $215 reversed $212 $-1 #
loop $-1 $-1 $283 $293 #
straight-curve $-1 48.531754509109774 2.1852684024377336 67.676172836314521 0 0 -1 I I #
coedge $-1 $294 $130 $295 $296 forward $120 $-1 #
edge $-1 $132 2.1852684024377336 $297 21.069182843805915 $211 $298 forward 7 unknown #
point $-1 45.75254053338513 2.1852684024377336 4.7261790135972888 #
point $-1 48.531754509109774 2.1852684024377336 4.7261790135972852 #
face $-1 $299 $300 $15 $-1 $301 forward single #
loop $-1 $-1 $302 $134 #
plane-surface $-1 74.72382692586045 -4.2436214726956631 135.35234567262904 0 1 0 0.82903758062907751 0 0.55919289150049634 forward_v I I I I #
loop $-1 $-1 $303 $73 #
coedge $-1 $223 $137 $304 $305 forward $74 $-1 #
coedge $-1 $137 $222 $306 $307 reversed $74 $-1 #
coedge $-1 $308 $309 $137 $225 forward $300 $-1 #
edge $-1 $310 8.3906270704549044 $311 11.169841046179549 $224 $312 forward 7 unknown #
edge $-1 $313 1 $313 0 $138 $-1 forward 7 unknown #
vertex $-1 $139 $314 #
ellipse-curve $-1 46.313109940618382 -1.0291765351289683 2.1068089761546092 0.82903758062907751 0 0.55919289150049634 0.27959644575024817 0 -0.41451879031453875 1 I I #
point $-1 47.421743966997703 -1.0291765351289683 2.2514830773405667 #
plane-surface $-1 48.531754509109774 0 0 -1 0 0 0 0 1 forward_v I I I I #
coedge $-1 $147 $145 $149 $235 reversed $82 $-1 #
edge $-1 $160 -4.7261790135972852 $237 4.7261790135972852 $159 $315 forward 7 unknown #
vertex $-1 $235 $316 #
straight-curve $-1 -48.531754509109774 -21.069182843805915 0 0 0 -1 I I #
edge $-1 $233 -21.069182843805915 $237 21.069182843805915 $231 $317 forward 7 unknown #
straight-curve $-1 0 -21.069182843805915 -4.7261790135972852 -1 0 0 I I #
vertex $-1 $152 $318 #
straight-curve $-1 0 21.069182843805915 -4.7261790135972852 1 0 0 I I #
point $-1 48.531754509109774 21.069182843805915 -4.7261790135972852 #
point $-1 48.531754509109774 -21.069182843805915 -4.7261790135972852 #
straight-curve $-1 -48.531754509109774 0 4.7261790135972852 0 -1 0 I I #
point $-1 -48.531754509109774 21.069182843805915 4.7261790135972852 #
point $-1 -48.531754509109774 -21.069182843805915 4.7261790135972852 #
straight-curve $-1 48.531754509109774 -21.069182843805915 0 0 0 -1 I I #
straight-curve $-1 48.531754509109774 21.069182843805915 0 0 0 -1 I I #
face $-1 $319 $182 $13 $-1 $320 reversed single #
plane-surface $-1 -48.531754509109774 0 0 1 0 0 0 0 -1 forward_v I I I I #
coedge $-1 $178 $172 $271 $321 forward $101 $-1 #
coedge $-1 $172 $178 $181 $268 forward $101 $-1 #
coedge $-1 $258 $257 $172 $251 reversed $259 $-1 #
edge $-1 $322 -21.069182843805915 $323 21.069182843805915 $250 $324 forward 7 unknown #
coedge $-1 $174 $173 $192 $273 forward $58 $-1 #
coedge $-1 $267 $186 $173 $254 reversed $182 $-1 #
edge $-1 $261 -48.531754509109774 $276 48.531754509109774 $253 $325 forward 7 unknown #
coedge $-1 $189 $326 $174 $256 reversed $170 $-1 #
edge $-1 $274 -48.531754509109774 $260 48.531754509109774 $255 $327 forward 7 unknown #
coedge $-1 $250 $175 $326 $328 forward $259 $-1 #
coedge $-1 $175 $250 $267 $329 reversed $259 $-1 #
loop $-1 $-1 $257 $319 #
vertex $-1 $176 $330 #
vertex $-1 $176 $331 #
straight-curve $-1 48.531754509109774 0 4.7261790135972852 0 1 0 I I #
edge $-1 $190 -1.5 $264 1.5 $177 $332 forward 7 unknown #
vertex $-1 $179 $333 #
straight-curve $-1 -53.096389271013919 0 -4.7261790135972852 0 1 0 I I #
straight-curve $-1 -53.096389271013919 0 -1.7261790135972852 0 -1 0 I I #
coedge $-1 $181 $253 $258 $329 forward $182 $-1 #
edge $-1 $184 -53.096389271013919 $322 48.531754509109774 $181 $334 forward 7 unknown #
point $-1 -53.096389271013919 21.069182843805915 -1.7261790135972852 #
point $-1 -53.096389271013919 21.069182843805915 -4.7261790135972852 #
coedge $-1 $326 $188 $248 $321 reversed $170 $-1 #
point $-1 -53.096389271013919 -21.069182843805915 -1.7261790135972852 #
edge $-1 $276 -21.069182843805915 $274 21.069182843805915 $192 $335 forward 7 unknown #
vertex $-1 $273 $336 #
straight-curve $-1 -48.531754509109774 -21.069182843805915 0 0 0 -1 I I #
vertex $-1 $254 $337 #
straight-curve $-1 -48.531754509109774 21.069182843805915 0 0 0 -1 I I #
face $-1 $338 $339 $14 $-1 $340 reversed single #
loop $-1 $-1 $341 $197 #
plane-surface $-1 -53.096389271013919 0 -3.2261790135972852 1 0 0 0 0 -1 forward_v I I I I #
coedge $-1 $342 $343 $344 $345 reversed $198 $-1 #
coedge $-1 $200 $346 $347 $348 forward $120 $-1 #
coedge $-1 $347 $210 $201 $284 forward $212 $-1 #
edge $-1 $288 -67.070348114601558 $285 -62.949993822717232 $283 $349 forward 7 unknown #
vertex $-1 $284 $350 #
straight-curve $-1 37.361913462930225 -4.2436214726956631 4.7261790135972888 -1 0 0 I I #
edge $-1 $208 -2.699856670002216 $288 3.7290332051311808 $210 $351 forward 7 unknown #
vertex $-1 $287 $352 #
straight-curve $-1 -5.745469757972927 -4.2436214726956631 81.075121405546355 -0.55919289150049634 0 0.82903758062907751 I I #
point $-1 45.75254053338513 -4.2436214726956631 4.7261790135972888 #
point $-1 48.531754509109774 2.1852684024377336 0.60582472171296331 #
coedge $-1 $211 $353 $354 $355 reversed $212 $-1 #
face $-1 $-1 $212 $14 $-1 $356 reversed single #
coedge $-1 $346 $214 $357 $358 forward $120 $-1 #
coedge $-1 $354 $359 $214 $296 reversed $360 $-1 #
edge $-1 $297 -48.531754509109774 $361 48.531754509109774 $295 $362 forward 7 unknown #
vertex $-1 $215 $363 #
straight-curve $-1 48.531754509109774 0 4.7261790135972852 0 1 0 I I #
face $-1 $364 $365 $15 $-1 $366 forward single #
loop $-1 $-1 $367 $218 #
plane-surface $-1 0 0 4.7261790135972852 0 0 1 1 0 0 forward_v I I I I #
coedge $-1 $368 $369 $367 $370 reversed $219 $-1 #
coedge $-1 $371 $304 $309 $372 reversed $221 $-1 #
coedge $-1 $303 $373 $222 $305 reversed $221 $-1 #
edge $-1 $310 92.09346376555709 $374 97.063509018219577 $222 $375 forward 7 unknown #
coedge $-1 $376 $377 $223 $307 forward $378 $-1 #
edge $-1 $311 62.949993822717232 $374 67.070348114601558 $306 $379 forward 7 unknown #
coedge $-1 $380 $224 $377 $381 forward $300 $-1 #
coedge $-1 $224 $367 $303 $372 forward $300 $-1 #
vertex $-1 $372 $382 #
vertex $-1 $381 $383 #
straight-curve $-1 37.361913462930225 2.1852684024377336 4.7261790135972888 1 0 0 I I #
vertex $-1 $226 $384 #
point $-1 46.592706386368626 -1.0291765351289683 1.6922901858400705 #
straight-curve $-1 -48.531754509109774 21.069182843805915 0 0 0 -1 I I #
point $-1 -48.531754509109774 -21.069182843805915 -4.7261790135972852 #
straight-curve $-1 -48.531754509109774 0 -4.7261790135972852 0 1 0 I I #
point $-1 -48.531754509109774 21.069182843805915 -4.7261790135972852 #
face $-1 $-1 $259 $13 $-1 $385 reversed single #
plane-surface $-1 0 21.069182843805915 0 0 -1 0 0 0 -1 forward_v I I I I #
edge $-1 $323 -99.345826399171614 $264 2.2823173809520725 $271 $386 forward 7 unknown #
vertex $-1 $251 $387 #
vertex $-1 $328 $388 #
straight-curve $-1 48.531754509109774 0 -4.7261790135972852 0 -1 0 I I #
straight-curve $-1 0 21.069182843805915 4.7261790135972852 -1 0 0 I I #
coedge $-1 $255 $271 $257 $328 reversed $170 $-1 #
straight-curve $-1 0 -21.069182843805915 4.7261790135972852 1 0 0 I I #
edge $-1 $260 -4.7261790135972852 $323 4.7261790135972852 $257 $389 forward 7 unknown #
edge $-1 $261 -4.7261790135972852 $322 4.7261790135972852 $258 $390 forward 7 unknown #
point $-1 48.531754509109774 -21.069182843805915 4.7261790135972852 #
point $-1 48.531754509109774 21.069182843805915 4.7261790135972852 #
straight-curve $-1 -53.096389271013919 -21.069182843805915 -3.2261790135972852 0 0 -1 I I #
point $-1 -53.096389271013919 -21.069182843805915 -4.7261790135972852 #
straight-curve $-1 0 21.069182843805915 -4.7261790135972852 1 0 0 I I #
straight-curve $-1 -48.531754509109774 0 4.7261790135972852 0 -1 0 I I #
point $-1 -48.531754509109774 -21.069182843805915 4.7261790135972852 #
point $-1 -48.531754509109774 21.069182843805915 4.7261790135972852 #
face $-1 $391 $392 $14 $-1 $393 reversed single #
loop $-1 $-1 $394 $278 #
plane-surface $-1 0 0 -4.7261790135972852 0 0 1 1 0 0 forward_v I I I I #
coedge $-1 $395 $396 $397 $398 forward $279 $-1 #
coedge $-1 $399 $281 $400 $401 forward $198 $-1 #
coedge $-1 $281 $399 $402 $403 forward $198 $-1 #
coedge $-1 $404 $405 $281 $345 forward $406 $-1 #
edge $-1 $407 -21.069182843805915 $408 21.069182843805915 $344 $409 forward 7 unknown #
coedge $-1 $282 $294 $410 $411 forward $120 $-1 #
coedge $-1 $412 $283 $282 $348 reversed $212 $-1 #
edge $-1 $413 -21.069182843805915 $285 -4.2436214726956631 $347 $298 forward 7 unknown #
straight-curve $-1 48.531754509109774 -4.2436214726956631 67.676172836314521 0 0 1 I I #
point $-1 48.531754509109774 -4.2436214726956631 4.7261790135972852 #
straight-curve $-1 48.531754509109774 -0.51458826756448239 0.6058247217129491 0 -1 0 I I #
point $-1 48.531754509109774 -4.2436214726956631 0.60582472171296331 #
coedge $-1 $292 $412 $394 $414 reversed $212 $-1 #
coedge $-1 $415 $295 $292 $355 forward $360 $-1 #
edge $-1 $297 -4.7261790135972852 $416 4.7261790135972852 $292 $417 forward 7 unknown #
plane-surface $-1 48.531754509109774 0 0 -1 0 0 0 0 1 forward_v I I I I #
coedge $-1 $405 $404 $294 $358 reversed $406 $-1 #
edge $-1 $361 -21.069182843805915 $418 21.069182843805915 $357 $419 forward 7 unknown #
coedge $-1 $295 $400 $405 $420 reversed $360 $-1 #
loop $-1 $-1 $354 $421 #
vertex $-1 $296 $422 #
straight-curve $-1 0 21.069182843805915 4.7261790135972852 -1 0 0 I I #
point $-1 48.531754509109774 21.069182843805915 4.7261790135972852 #
face $-1 $423 $424 $15 $-1 $425 reversed single #
loop $-1 $-1 $426 $299 #
plane-surface $-1 -50.814071890061847 0 -1.7261790135972852 0 0 1 1 0 0 forward_v I I I I #
coedge $-1 $309 $427 $302 $370 forward $300 $-1 #
coedge $-1 $369 $302 $428 $429 reversed $219 $-1 #
coedge $-1 $302 $368 $371 $430 forward $219 $-1 #
edge $-1 $431 -11.169841046179549 $432 -8.3906270704549044 $367 $433 forward 7 unknown #
coedge $-1 $373 $303 $369 $430 reversed $221 $-1 #
edge $-1 $432 -3.7290332051311808 $310 2.699856670002216 $309 $434 forward 7 unknown #
coedge $-1 $304 $371 $376 $435 reversed $221 $-1 #
vertex $-1 $435 $436 #
straight-curve $-1 -5.745469757972927 2.1852684024377336 81.075121405546355 0.55919289150049634 0 -0.82903758062907751 I I #
coedge $-1 $428 $306 $373 $435 forward $378 $-1 #
coedge $-1 $306 $437 $308 $381 reversed $378 $-1 #
loop $-1 $-1 $428 $438 #
straight-curve $-1 48.531754509109774 2.1852684024377336 67.676172836314521 0 0 -1 I I #
coedge $-1 $439 $308 $440 $441 forward $300 $-1 #
edge $-1 $311 2.1852684024377336 $442 21.069182843805915 $377 $443 forward 7 unknown #
point $-1 45.75254053338513 2.1852684024377336 4.7261790135972888 #
point $-1 48.531754509109774 2.1852684024377336 4.7261790135972852 #
point $-1 45.898591150303837 -1.0291765351289683 1.8272125304043612 #
plane-surface $-1 48.531754509109774 0 0 -1 0 0 0 0 1 forward_v I I I I #
straight-curve $-1 -50.814071890061847 -21.069182843805915 -4.7261790135972852 -1 0 0 I I #
point $-1 48.531754509109774 21.069182843805915 -4.7261790135972852 #
point $-1 48.531754509109774 -21.069182843805915 -4.7261790135972852 #
straight-curve $-1 48.531754509109774 -21.069182843805915 0 0 0 -1 I I #
straight-curve $-1 48.531754509109774 21.069182843805915 0 0 0 -1 I I #
face $-1 $421 $406 $14 $-1 $444 reversed single #
loop $-1 $-1 $445 $338 #
plane-surface $-1 0 -21.069182843805915 0 0 1 0 0 0 1 forward_v I I I I #
coedge $-1 $446 $447 $353 $414 forward $339 $-1 #
coedge $-1 $448 $341 $449 $450 reversed $279 $-1 #
coedge $-1 $341 $448 $399 $451 reversed $279 $-1 #
coedge $-1 $400 $415 $341 $398 reversed $360 $-1 #
edge $-1 $452 -1.5 $453 1.5 $397 $454 forward 7 unknown #
coedge $-1 $343 $342 $396 $451 forward $198 $-1 #
coedge $-1 $359 $397 $342 $401 reversed $360 $-1 #
edge $-1 $407 -2.2823173809520725 $452 2.2823173809520725 $400 $455 forward 7 unknown #
coedge $-1 $456 $445 $343 $403 reversed $392 $-1 #
edge $-1 $457 -2.2823173809520725 $408 2.2823173809520725 $402 $458 forward 7 unknown #
coedge $-1 $357 $344 $445 $459 reversed $406 $-1 #
coedge $-1 $344 $357 $359 $420 forward $406 $-1 #
loop $-1 $-1 $344 $391 #
vertex $-1 $420 $460 #
vertex $-1 $403 $461 #
straight-curve $-1 -48.531754509109774 0 -1.7261790135972852 0 -1 0 I I #
coedge $-1 $445 $462 $346 $411 reversed $392 $-1 #
edge $-1 $418 -48.531754509109774 $413 48.531754509109774 $410 $463 forward 7 unknown #
coedge $-1 $353 $347 $462 $464 forward $212 $-1 #
vertex $-1 $348 $465 #
edge $-1 $416 -21.069182843805915 $466 21.069182843805915 $353 $467 forward 7 unknown #
coedge $-1 $397 $354 $447 $468 reversed $360 $-1 #
vertex $-1 $414 $469 #
straight-curve $-1 48.531754509109774 21.069182843805915 0 0 0 -1 I I #
vertex $-1 $358 $470 #
straight-curve $-1 -48.531754509109774 0 4.7261790135972852 0 -1 0 I I #
edge $-1 $361 -4.7261790135972852 $407 1.7261790135972852 $359 $471 forward 7 unknown #
face $-1 $293 $360 $14 $-1 $472 reversed single #
point $-1 -48.531754509109774 21.069182843805915 4.7261790135972852 #
face $-1 $473 $474 $15 $-1 $475 reversed single #
loop $-1 $-1 $476 $364 #
plane-surface $-1 -53.096389271013919 0 -3.2261790135972852 1 0 0 0 0 -1 forward_v I I I I #
coedge $-1 $477 $478 $479 $480 reversed $365 $-1 #
coedge $-1 $367 $481 $482 $483 forward $300 $-1 #
coedge $-1 $482 $376 $368 $429 forward $378 $-1 #
edge $-1 $484 -67.070348114601558 $431 -62.949993822717232 $428 $485 forward 7 unknown #
edge $-1 $484 -97.063509018219577 $432 -92.09346376555709 $369 $486 forward 7 unknown #
vertex $-1 $429 $487 #
vertex $-1 $372 $488 #
straight-curve $-1 37.361913462930225 -4.2436214726956631 4.7261790135972888 -1 0 0 I I #
straight-curve $-1 45.752540533385144 -0.51458826756448239 4.7261790135972817 0 1 0 I I #
edge $-1 $374 -2.699856670002216 $484 3.7290332051311808 $376 $489 forward 7 unknown #
point $-1 48.531754509109774 2.1852684024377336 0.60582472171296331 #
coedge $-1 $377 $490 $491 $492 reversed $378 $-1 #
face $-1 $-1 $378 $15 $-1 $493 reversed single #
coedge $-1 $481 $380 $494 $495 forward $300 $-1 #
coedge $-1 $491 $496 $380 $441 reversed $497 $-1 #
edge $-1 $442 -48.531754509109774 $498 48.531754509109774 $440 $499 forward 7 unknown #
vertex $-1 $381 $500 #
straight-curve $-1 48.531754509109774 0 4.7261790135972852 0 1 0 I I #
plane-surface $-1 -48.531754509109774 0 0 1 0 0 0 0 -1 forward_v I I I I #
coedge $-1 $402 $410 $404 $459 forward $392 $-1 #
coedge $-1 $449 $394 $501 $502 forward $339 $-1 #
coedge $-1 $394 $449 $415 $468 forward $339 $-1 #
coedge $-1 $396 $395 $456 $503 reversed $279 $-1 #
coedge $-1 $447 $446 $395 $450 forward $339 $-1 #
edge $-1 $504 -21.069182843805915 $453 21.069182843805915 $395 $505 forward 7 unknown #
edge $-1 $452 -21.069182843805915 $457 21.069182843805915 $396 $506 forward 7 unknown #
vertex $-1 $401 $507 #
vertex $-1 $468 $508 #
straight-curve $-1 -53.096389271013919 21.069182843805915 -3.2261790135972852 0 0 -1 I I #
straight-curve $-1 -50.814071890061847 21.069182843805915 -1.7261790135972852 -1 0 0 I I #
coedge $-1 $501 $402 $448 $503 forward $392 $-1 #
vertex $-1 $451 $509 #
straight-curve $-1 -50.814071890061847 -21.069182843805915 -1.7261790135972852 1 0 0 I I #
edge $-1 $418 -4.7261790135972852 $408 1.7261790135972852 $404 $510 forward 7 unknown #
point $-1 -48.531754509109774 21.069182843805915 -1.7261790135972852 #
point $-1 -48.531754509109774 -21.069182843805915 -1.7261790135972852 #
coedge $-1 $410 $501 $412 $464 reversed $392 $-1 #
straight-curve $-1 0 -21.069182843805915 4.7261790135972852 1 0 0 I I #
edge $-1 $413 -4.7261790135972852 $466 4.7261790135972852 $412 $511 forward 7 unknown #
point $-1 48.531754509109774 -21.069182843805915 4.7261790135972852 #
vertex $-1 $464 $512 #
straight-curve $-1 48.531754509109774 0 -4.7261790135972852 0 -1 0 I I #
edge $-1 $453 -53.096389271013919 $416 48.531754509109774 $415 $513 forward 7 unknown #
point $-1 48.531754509109774 21.069182843805915 -4.7261790135972852 #
point $-1 -48.531754509109774 -21.069182843805915 4.7261790135972852 #
straight-curve $-1 -48.531754509109774 21.069182843805915 0 0 0 -1 I I #
plane-surface $-1 0 21.069182843805915 0 0 -1 0 0 0 -1 forward_v I I I I #
face $-1 $514 $515 $15 $-1 $516 reversed single #
loop $-1 $-1 $517 $423 #
plane-surface $-1 0 0 -4.7261790135972852 0 0 1 1 0 0 forward_v I I I I #
coedge $-1 $518 $519 $520 $521 forward $424 $-1 #
coedge $-1 $522 $426 $523 $524 forward $365 $-1 #
coedge $-1 $426 $522 $525 $526 forward $365 $-1 #
coedge $-1 $527 $528 $426 $480 forward $529 $-1 #
edge $-1 $530 -21.069182843805915 $531 21.069182843805915 $479 $532 forward 7 unknown #
coedge $-1 $427 $439 $533 $534 forward $300 $-1 #
coedge $-1 $535 $428 $427 $483 reversed $378 $-1 #
edge $-1 $536 -21.069182843805915 $431 -4.2436214726956631 $482 $443 forward 7 unknown #
vertex $-1 $435 $537 #
straight-curve $-1 48.531754509109774 -4.2436214726956631 67.676172836314521 0 0 1 I I #
straight-curve $-1 -5.745469757972927 -4.2436214726956631 81.075121405546355 -0.55919289150049634 0 0.82903758062907751 I I #
point $-1 48.531754509109774 -4.2436214726956631 4.7261790135972852 #
point $-1 45.75254053338513 -4.2436214726956631 4.7261790135972888 #
straight-curve $-1 48.531754509109774 -0.51458826756448239 0.6058247217129491 0 -1 0 I I #
coedge $-1 $437 $535 $517 $538 reversed $378 $-1 #
coedge $-1 $539 $440 $437 $492 forward $497 $-1 #
edge $-1 $442 -4.7261790135972852 $540 4.7261790135972852 $437 $541 forward 7 unknown #
plane-surface $-1 48.531754509109774 0 0 -1 0 0 0 0 1 forward_v I I I I #
coedge $-1 $528 $527 $439 $495 reversed $529 $-1 #
edge $-1 $498 -21.069182843805915 $542 21.069182843805915 $494 $543 forward 7 unknown #
coedge $-1 $440 $523 $528 $544 reversed $497 $-1 #
loop $-1 $-1 $491 $545 #
vertex $-1 $441 $546 #
straight-curve $-1 0 21.069182843805915 4.7261790135972852 -1 0 0 I I #
point $-1 48.531754509109774 21.069182843805915 4.7261790135972852 #
coedge $-1 $462 $456 $446 $502 reversed $392 $-1 #
edge $-1 $466 -99.345826399171614 $504 2.2823173809520725 $501 $547 forward 7 unknown #
edge $-1 $457 -1.5 $504 1.5 $448 $548 forward 7 unknown #
vertex $-1 $450 $549 #
straight-curve $-1 -53.096389271013919 0 -4.7261790135972852 0 1 0 I I #
straight-curve $-1 -53.096389271013919 0 -1.7261790135972852 0 -1 0 I I #
point $-1 -53.096389271013919 21.069182843805915 -1.7261790135972852 #
point $-1 -53.096389271013919 21.069182843805915 -4.7261790135972852 #
point $-1 -53.096389271013919 -21.069182843805915 -1.7261790135972852 #
straight-curve $-1 -48.531754509109774 -21.069182843805915 0 0 0 -1 I I #
straight-curve $-1 48.531754509109774 -21.069182843805915 0 0 0 -1 I I #
point $-1 48.531754509109774 -21.069182843805915 -4.7261790135972852 #
straight-curve $-1 0 21.069182843805915 -4.7261790135972852 1 0 0 I I #
face $-1 $545 $529 $15 $-1 $550 reversed single #
loop $-1 $-1 $551 $473 #
plane-surface $-1 0 -21.069182843805915 0 0 1 0 0 0 1 forward_v I I I I #
coedge $-1 $552 $553 $490 $538 forward $474 $-1 #
coedge $-1 $554 $476 $555 $556 reversed $424 $-1 #
coedge $-1 $476 $554 $522 $557 reversed $424 $-1 #
coedge $-1 $523 $539 $476 $521 reversed $497 $-1 #
edge $-1 $558 -1.5 $559 1.5 $520 $560 forward 7 unknown #
coedge $-1 $478 $477 $519 $557 forward $365 $-1 #
coedge $-1 $496 $520 $477 $524 reversed $497 $-1 #
edge $-1 $530 -2.2823173809520725 $558 2.2823173809520725 $523 $561 forward 7 unknown #
coedge $-1 $562 $551 $478 $526 reversed $515 $-1 #
edge $-1 $563 -2.2823173809520725 $531 2.2823173809520725 $525 $564 forward 7 unknown #
coedge $-1 $494 $479 $551 $565 reversed $529 $-1 #
coedge $-1 $479 $494 $496 $544 forward $529 $-1 #
loop $-1 $-1 $479 $514 #
vertex $-1 $544 $566 #
vertex $-1 $526 $567 #
straight-curve $-1 -48.531754509109774 0 -1.7261790135972852 0 -1 0 I I #
coedge $-1 $551 $568 $481 $534 reversed $515 $-1 #
edge $-1 $542 -48.531754509109774 $536 48.531754509109774 $533 $569 forward 7 unknown #
coedge $-1 $490 $482 $568 $570 forward $378 $-1 #
vertex $-1 $483 $571 #
point $-1 48.531754509109774 -4.2436214726956631 0.60582472171296331 #
edge $-1 $540 -21.069182843805915 $572 21.069182843805915 $490 $573 forward 7 unknown #
coedge $-1 $520 $491 $553 $574 reversed $497 $-1 #
vertex $-1 $538 $575 #
straight-curve $-1 48.531754509109774 21.069182843805915 0 0 0 -1 I I #
vertex $-1 $495 $576 #
straight-curve $-1 -48.531754509109774 0 4.7261790135972852 0 -1 0 I I #
edge $-1 $498 -4.7261790135972852 $530 1.7261790135972852 $496 $577 forward 7 unknown #
face $-1 $438 $497 $15 $-1 $578 reversed single #
point $-1 -48.531754509109774 21.069182843805915 4.7261790135972852 #
straight-curve $-1 -50.814071890061847 -21.069182843805915 -4.7261790135972852 -1 0 0 I I #
straight-curve $-1 -53.096389271013919 -21.069182843805915 -3.2261790135972852 0 0 -1 I I #
point $-1 -53.096389271013919 -21.069182843805915 -4.7261790135972852 #
plane-surface $-1 -48.531754509109774 0 0 1 0 0 0 0 -1 forward_v I I I I #
coedge $-1 $525 $533 $527 $565 forward $515 $-1 #
coedge $-1 $555 $517 $579 $580 forward $474 $-1 #
coedge $-1 $517 $555 $539 $574 forward $474 $-1 #
coedge $-1 $519 $518 $562 $581 reversed $424 $-1 #
coedge $-1 $553 $552 $518 $556 forward $474 $-1 #
edge $-1 $582 -21.069182843805915 $559 21.069182843805915 $518 $583 forward 7 unknown #
edge $-1 $558 -21.069182843805915 $563 21.069182843805915 $519 $584 forward 7 unknown #
vertex $-1 $524 $585 #
vertex $-1 $574 $586 #
straight-curve $-1 -53.096389271013919 21.069182843805915 -3.2261790135972852 0 0 -1 I I #
straight-curve $-1 -50.814071890061847 21.069182843805915 -1.7261790135972852 -1 0 0 I I #
coedge $-1 $579 $525 $554 $581 forward $515 $-1 #
vertex $-1 $557 $587 #
straight-curve $-1 -50.814071890061847 -21.069182843805915 -1.7261790135972852 1 0 0 I I #
edge $-1 $542 -4.7261790135972852 $531 1.7261790135972852 $527 $588 forward 7 unknown #
point $-1 -48.531754509109774 21.069182843805915 -1.7261790135972852 #
point $-1 -48.531754509109774 -21.069182843805915 -1.7261790135972852 #
coedge $-1 $533 $579 $535 $570 reversed $515 $-1 #
straight-curve $-1 0 -21.069182843805915 4.7261790135972852 1 0 0 I I #
edge $-1 $536 -4.7261790135972852 $572 4.7261790135972852 $535 $589 forward 7 unknown #
point $-1 48.531754509109774 -21.069182843805915 4.7261790135972852 #
vertex $-1 $570 $590 #
straight-curve $-1 48.531754509109774 0 -4.7261790135972852 0 -1 0 I I #
edge $-1 $559 -53.096389271013919 $540 48.531754509109774 $539 $591 forward 7 unknown #
point $-1 48.531754509109774 21.069182843805915 -4.7261790135972852 #
point $-1 -48.531754509109774 -21.069182843805915 4.7261790135972852 #
straight-curve $-1 -48.531754509109774 21.069182843805915 0 0 0 -1 I I #
plane-surface $-1 0 21.069182843805915 0 0 -1 0 0 0 -1 forward_v I I I I #
coedge $-1 $568 $562 $552 $580 reversed $515 $-1 #
edge $-1 $572 -99.345826399171614 $582 2.2823173809520725 $579 $592 forward 7 unknown #
edge $-1 $563 -1.5 $582 1.5 $554 $593 forward 7 unknown #
vertex $-1 $556 $594 #
straight-curve $-1 -53.096389271013919 0 -4.7261790135972852 0 1 0 I I #
straight-curve $-1 -53.096389271013919 0 -1.7261790135972852 0 -1 0 I I #
point $-1 -53.096389271013919 21.069182843805915 -1.7261790135972852 #
point $-1 -53.096389271013919 21.069182843805915 -4.7261790135972852 #
point $-1 -53.096389271013919 -21.069182843805915 -1.7261790135972852 #
straight-curve $-1 -48.531754509109774 -21.069182843805915 0 0 0 -1 I I #
straight-curve $-1 48.531754509109774 -21.069182843805915 0 0 0 -1 I I #
point $-1 48.531754509109774 -21.069182843805915 -4.7261790135972852 #
straight-curve $-1 0 21.069182843805915 -4.7261790135972852 1 0 0 I I #
straight-curve $-1 -50.814071890061847 -21.069182843805915 -4.7261790135972852 -1 0 0 I I #
straight-curve $-1 -53.096389271013919 -21.069182843805915 -3.2261790135972852 0 0 -1 I I #
point $-1 -53.096389271013919 -21.069182843805915 -4.7261790135972852 #
End-of-ACIS-data 