500 0 7 0           
7 Unknown 11 ACIS 5.0 NT 24 Fri Mar 26 00:58:02 1999 
-1 9.9999999999999995e-007 1e-010 
body $-1 $7 $-1 $8 #
body $-1 $9 $-1 $10 #
body $-1 $11 $-1 $12 #
body $-1 $13 $-1 $14 #
body $-1 $15 $-1 $16 #
body $-1 $17 $-1 $18 #
body $-1 $19 $-1 $20 #
lump $-1 $-1 $21 $0 #
transform $-1 1 0 0 0 1 0 0 0 1 45.08560441908017 18.612551638457575 6.7392466934462174 1 rotate no_reflect no_shear #
lump $-1 $-1 $22 $1 #
transform $-1 1 0 0 0 1 0 0 0 1 45.08560441908017 18.612551638457575 6.7392466934462174 1 rotate no_reflect no_shear #
lump $-1 $-1 $23 $2 #
transform $-1 1 0 0 0 1 0 0 0 1 45.08560441908017 18.612551638457575 6.7392466934462174 1 rotate no_reflect no_shear #
lump $-1 $-1 $24 $3 #
transform $-1 1 0 0 0 1 0 0 0 1 45.08560441908017 18.612551638457575 6.7392466934462174 1 rotate no_reflect no_shear #
lump $-1 $-1 $25 $4 #
transform $-1 1 0 0 0 1 0 0 0 1 45.08560441908017 18.612551638457575 6.7392466934462174 1 rotate no_reflect no_shear #
lump $-1 $-1 $26 $5 #
transform $-1 1 0 0 0 1 0 0 0 1 45.08560441908017 18.612551638457575 6.7392466934462174 1 rotate no_reflect no_shear #
lump $-1 $-1 $27 $6 #
transform $-1 1 0 0 0 1 0 0 0 1 45.08560441908017 18.612551638457575 6.7392466934462174 1 rotate no_reflect no_shear #
shell $-1 $-1 $-1 $28 $-1 $7 #
shell $-1 $-1 $-1 $29 $-1 $9 #
shell $-1 $-1 $-1 $30 $-1 $11 #
shell $-1 $-1 $-1 $31 $-1 $13 #
shell $-1 $-1 $-1 $32 $-1 $15 #
shell $-1 $-1 $-1 $33 $-1 $17 #
shell $-1 $-1 $-1 $34 $-1 $19 #
face $-1 $35 $36 $21 $-1 $37 forward single #
face $-1 $38 $39 $22 $-1 $40 forward single #
face $-1 $41 $42 $23 $-1 $43 reversed single #
face $-1 $44 $45 $24 $-1 $46 forward single #
face $-1 $47 $48 $25 $-1 $49 forward single #
face $-1 $50 $51 $26 $-1 $52 reversed single #
face $-1 $53 $54 $27 $-1 $55 forward single #
face $-1 $56 $57 $21 $-1 $58 reversed single #
loop $-1 $-1 $59 $28 #
plane-surface $-1 0 0 6.7392466934462174 0 0 1 1 0 0 forward_v I I I I #
face $-1 $60 $61 $22 $-1 $62 reversed single #
loop $-1 $-1 $63 $29 #
plane-surface $-1 0 -18.612551638457575 0 0 1 0 0 0 1 forward_v I I I I #
face $-1 $64 $65 $23 $-1 $66 reversed single #
loop $-1 $-1 $67 $30 #
plane-surface $-1 47.311160299404904 3.0376034584240319 129.83571546459294 0 -1 0 -0.71933980857756763 0 -0.69465836192734942 forward_v I I I I #
face $-1 $68 $69 $24 $-1 $70 forward single #
loop $-1 $71 $72 $31 #
cone-surface $-1 42.356773232333019 -2.9815729360024754 3.9554816190492299 -0.71933980857756763 0 -0.69465836192734942 0.34732918096367471 0 -0.35966990428878381 1 I I 0 1 0.5 forward I I I I #
face $-1 $73 $74 $25 $-1 $75 forward single #
loop $-1 $76 $77 $32 #
cone-surface $-1 42.356773232333019 0.62993290065342933 3.9554816190492299 -0.71933980857756763 0 -0.69465836192734942 0.34732918096367471 0 -0.35966990428878381 1 I I 0 1 0.5 forward I I I I #
face $-1 $78 $79 $26 $-1 $80 reversed single #
loop $-1 $-1 $81 $33 #
plane-surface $-1 -105.42192079072704 -3.6774546231763825 67.184978558511062 0 1 0 -0.66913061440640931 0 0.74314481823134659 forward_v I I I I #
face $-1 $82 $83 $27 $-1 $84 forward single #
loop $-1 $85 $86 $34 #
cone-surface $-1 -40.794293722778285 0.86440298941901261 2.7395419152924565 0.66913061440640931 0 -0.74314481823134659 1.1147172273470198 0 1.003695921609614 1 I I 0 1 1.5 forward I I I I #
face $-1 $87 $88 $21 $-1 $89 reversed single #
loop $-1 $-1 $90 $35 #
plane-surface $-1 0 0 -6.7392466934462174 0 0 1 1 0 0 forward_v I I I I #
coedge $-1 $91 $92 $93 $94 forward $36 $-1 #
face $-1 $95 $96 $22 $-1 $97 forward single #
loop $-1 $-1 $98 $38 #
plane-surface $-1 -45.08560441908017 0 0 1 0 0 0 0 -1 forward_v I I I I #
coedge $-1 $99 $100 $101 $102 forward $39 $-1 #
face $-1 $103 $104 $23 $-1 $105 reversed single #
loop $-1 $-1 $106 $41 #
plane-surface $-1 -17.552579805445234 -1.1758200176745248 67.197531240067548 0.71933980857756763 0 0.69465836192734942 0.69465836192734942 0 -0.71933980857756763 forward_v I I I I #
coedge $-1 $107 $108 $109 $110 reversed $42 $-1 #
face $-1 $-1 $111 $24 $-1 $112 forward single #
loop $-1 $113 $114 $44 #
cone-surface $-1 41.575256533199592 -2.9815729360024754 3.2007797332848273 -0.71933980857756763 0 -0.69465836192734942 0.17366459048183736 0 -0.17983495214439191 1 I I -0.70710678118654746 0.70710678118654746 0.25 forward I I I I #
loop $-1 $-1 $115 $31 #
coedge $-1 $72 $72 $116 $117 reversed $45 $-1 #
face $-1 $-1 $118 $25 $-1 $119 forward single #
loop $-1 $120 $121 $47 #
cone-surface $-1 41.575256533199592 0.62993290065342933 3.2007797332848273 -0.71933980857756763 0 -0.69465836192734942 0.17366459048183736 0 -0.17983495214439191 1 I I -0.70710678118654746 0.70710678118654746 0.25 forward I I I I #
loop $-1 $-1 $122 $32 #
coedge $-1 $77 $77 $123 $124 reversed $48 $-1 #
face $-1 $125 $126 $26 $-1 $127 reversed single #
loop $-1 $-1 $128 $50 #
plane-surface $-1 -45.08560441908017 0.86440298941901261 0.17471195677561013 -0.66913061440640931 0 0.74314481823134659 0.74314481823134659 0 0.66913061440640931 forward_v I I I I #
coedge $-1 $129 $130 $131 $132 reversed $51 $-1 #
face $-1 $-1 $133 $27 $-1 $134 forward single #
loop $-1 $135 $136 $53 #
cone-surface $-1 -39.646462202574533 0.86440298941901261 1.4647458918004919 0.66913061440640931 0 -0.74314481823134659 0.55735861367350992 0 0.50184796080480698 1 I I -0.70710678118654757 0.70710678118654757 0.75 forward I I I I #
loop $-1 $-1 $137 $34 #
coedge $-1 $86 $86 $138 $139 reversed $54 $-1 #
face $-1 $140 $141 $21 $-1 $142 reversed single #
loop $-1 $-1 $143 $56 #
plane-surface $-1 0 -18.612551638457575 0 0 1 0 0 0 1 forward_v I I I I #
coedge $-1 $144 $145 $146 $147 forward $57 $-1 #
coedge $-1 $148 $59 $149 $150 forward $36 $-1 #
coedge $-1 $59 $148 $151 $152 forward $36 $-1 #
coedge $-1 $153 $154 $59 $94 reversed $155 $-1 #
edge $-1 $156 -18.612551638457575 $157 18.612551638457575 $93 $158 forward 7 unknown #
face $-1 $159 $160 $22 $-1 $161 reversed single #
loop $-1 $-1 $162 $60 #
plane-surface $-1 0 -20.902813680750253 4.040555763791831 0 0 1 1 0 0 forward_v I I I I #
coedge $-1 $163 $164 $100 $165 forward $61 $-1 #
coedge $-1 $166 $63 $167 $168 reversed $39 $-1 #
coedge $-1 $63 $166 $98 $165 reversed $39 $-1 #
coedge $-1 $169 $162 $63 $102 reversed $96 $-1 #
edge $-1 $170 -45.08560441908017 $171 45.08560441908017 $101 $172 forward 7 unknown #
face $-1 $173 $174 $23 $-1 $175 reversed single #
loop $-1 $-1 $176 $64 #
plane-surface $-1 47.311160299404904 -5.3892434937730815 129.83571546459294 0 1 0 0.71933980857756763 0 0.69465836192734942 forward_v I I I I #
coedge $-1 $177 $178 $179 $180 reversed $65 $-1 #
coedge $-1 $108 $67 $181 $182 reversed $42 $-1 #
coedge $-1 $67 $107 $177 $183 reversed $42 $-1 #
coedge $-1 $179 $184 $67 $110 forward $185 $-1 #
edge $-1 $186 -21.430024269377718 $187 -17.175725389861483 $109 $188 forward 7 unknown #
loop $-1 $-1 $116 $68 #
plane-surface $-1 -17.552579805445234 -1.1758200176745248 67.197531240067548 0.71933980857756763 0 0.69465836192734942 0.69465836192734942 0 -0.71933980857756763 forward_v I I I I #
loop $-1 $-1 $189 $44 #
coedge $-1 $114 $114 $115 $190 reversed $69 $-1 #
coedge $-1 $115 $115 $114 $190 forward $71 $-1 #
coedge $-1 $116 $116 $72 $117 forward $111 $-1 #
edge $-1 $191 0 $191 6.2831853071796004 $116 $192 forward 7 unknown #
loop $-1 $-1 $123 $73 #
plane-surface $-1 -17.552579805445234 -1.1758200176745248 67.197531240067548 0.71933980857756763 0 0.69465836192734942 0.69465836192734942 0 -0.71933980857756763 forward_v I I I I #
loop $-1 $-1 $193 $47 #
coedge $-1 $121 $121 $122 $194 reversed $74 $-1 #
coedge $-1 $122 $122 $121 $194 forward $76 $-1 #
coedge $-1 $123 $123 $77 $124 forward $118 $-1 #
edge $-1 $195 0 $195 6.2831853071796004 $123 $196 forward 7 unknown #
face $-1 $197 $198 $26 $-1 $199 forward single #
loop $-1 $-1 $200 $78 #
plane-surface $-1 -105.42192079072704 5.4062606020144077 67.184978558511062 0 -1 0 0.66913061440640931 0 -0.74314481823134659 forward_v I I I I #
coedge $-1 $201 $202 $203 $204 reversed $79 $-1 #
coedge $-1 $130 $81 $205 $206 reversed $51 $-1 #
coedge $-1 $81 $129 $201 $207 reversed $51 $-1 #
coedge $-1 $203 $208 $81 $132 forward $198 $-1 #
edge $-1 $209 7.6253559762833518 $210 14.916010250089229 $131 $211 forward 7 unknown #
loop $-1 $-1 $138 $82 #
plane-surface $-1 -45.08560441908017 0.86440298941901261 0.17471195677561013 -0.66913061440640931 0 0.74314481823134659 0.74314481823134659 0 0.66913061440640931 forward_v I I I I #
loop $-1 $-1 $212 $53 #
coedge $-1 $136 $136 $137 $213 reversed $83 $-1 #
coedge $-1 $137 $137 $136 $213 forward $85 $-1 #
coedge $-1 $138 $138 $86 $139 forward $133 $-1 #
edge $-1 $214 0 $214 6.2831853071796004 $138 $215 forward 7 unknown #
face $-1 $216 $217 $21 $-1 $218 reversed single #
loop $-1 $-1 $219 $87 #
plane-surface $-1 -45.08560441908017 0 0 1 0 0 0 0 -1 forward_v I I I I #
coedge $-1 $220 $151 $221 $222 forward $88 $-1 #
coedge $-1 $223 $90 $220 $224 forward $57 $-1 #
coedge $-1 $90 $223 $225 $226 forward $57 $-1 #
coedge $-1 $154 $153 $90 $147 reversed $155 $-1 #
edge $-1 $227 -18.612551638457575 $228 18.612551638457575 $146 $229 forward 7 unknown #
coedge $-1 $92 $91 $230 $231 forward $36 $-1 #
coedge $-1 $232 $233 $91 $150 reversed $217 $-1 #
edge $-1 $157 -45.08560441908017 $234 45.08560441908017 $149 $235 forward 7 unknown #
coedge $-1 $143 $236 $92 $152 reversed $88 $-1 #
edge $-1 $237 -45.08560441908017 $156 45.08560441908017 $151 $238 forward 7 unknown #
coedge $-1 $146 $93 $236 $239 forward $155 $-1 #
coedge $-1 $93 $146 $232 $240 reversed $155 $-1 #
loop $-1 $-1 $153 $216 #
vertex $-1 $94 $241 #
vertex $-1 $94 $242 #
straight-curve $-1 45.08560441908017 0 6.7392466934462174 0 1 0 I I #
face $-1 $243 $244 $22 $-1 $245 reversed single #
loop $-1 $-1 $246 $95 #
plane-surface $-1 0 -20.902813680750253 1.0405557637918315 0 0 1 1 0 0 forward_v I I I I #
coedge $-1 $101 $247 $248 $249 forward $96 $-1 #
coedge $-1 $250 $98 $251 $252 reversed $61 $-1 #
coedge $-1 $98 $250 $169 $253 reversed $61 $-1 #
edge $-1 $170 -4.040555763791831 $254 -1.0405557637918315 $98 $255 forward 7 unknown #
coedge $-1 $100 $99 $256 $257 forward $39 $-1 #
coedge $-1 $248 $258 $99 $168 forward $259 $-1 #
edge $-1 $260 1.0405557637918315 $171 4.040555763791831 $167 $261 forward 7 unknown #
coedge $-1 $247 $101 $164 $253 forward $96 $-1 #
vertex $-1 $165 $262 #
vertex $-1 $249 $263 #
straight-curve $-1 0 -18.612551638457575 4.040555763791831 1 0 0 I I #
face $-1 $-1 $185 $23 $-1 $264 forward single #
loop $-1 $-1 $265 $103 #
plane-surface $-1 45.08560441908017 0 0 -1 0 0 0 0 1 forward_v I I I I #
coedge $-1 $266 $267 $268 $269 reversed $104 $-1 #
coedge $-1 $270 $106 $108 $183 forward $65 $-1 #
coedge $-1 $106 $270 $266 $271 forward $65 $-1 #
coedge $-1 $268 $109 $106 $180 forward $185 $-1 #
edge $-1 $187 -3.6255134672612943 $272 4.8013334849358191 $179 $273 forward 7 unknown #
coedge $-1 $274 $275 $107 $182 forward $174 $-1 #
edge $-1 $276 -62.584066597079058 $186 -58.178611038850249 $181 $277 forward 7 unknown #
edge $-1 $187 84.046904989412951 $276 90.171208838160354 $108 $278 forward 7 unknown #
coedge $-1 $109 $268 $274 $279 forward $185 $-1 #
loop $-1 $-1 $268 $173 #
vertex $-1 $182 $280 #
vertex $-1 $110 $281 #
straight-curve $-1 23.655580149702452 3.0376034584240319 6.7392466934462192 -1 0 0 I I #
coedge $-1 $189 $189 $-1 $282 reversed $113 $-1 #
edge $-1 $283 0 $283 6.2831853071796004 $114 $284 forward 7 unknown #
vertex $-1 $117 $285 #
ellipse-curve $-1 42.958454979322063 -2.9815729360024754 4.5365189143318041 0.71933980857756763 0 0.69465836192734942 0.34732918096367471 0 -0.35966990428878381 1 I I #
coedge $-1 $193 $193 $-1 $286 reversed $120 $-1 #
edge $-1 $287 0 $287 6.2831853071796004 $121 $288 forward 7 unknown #
vertex $-1 $124 $289 #
ellipse-curve $-1 42.958454979322063 0.62993290065342933 4.5365189143318041 0.71933980857756763 0 0.69465836192734942 0.34732918096367471 0 -0.35966990428878381 1 I I #
face $-1 $-1 $290 $26 $-1 $291 reversed single #
loop $-1 $-1 $131 $125 #
plane-surface $-1 0 0 6.7392466934462174 0 0 1 1 0 0 forward_v I I I I #
coedge $-1 $292 $293 $294 $295 reversed $126 $-1 #
coedge $-1 $296 $128 $130 $207 forward $79 $-1 #
coedge $-1 $128 $296 $292 $297 forward $79 $-1 #
coedge $-1 $294 $131 $128 $204 forward $198 $-1 #
edge $-1 $210 -4.1096561178858888 $298 4.9740591073049014 $203 $299 forward 7 unknown #
coedge $-1 $300 $301 $129 $206 forward $290 $-1 #
edge $-1 $302 -33.417777322479921 $209 -26.853242585809312 $205 $303 forward 7 unknown #
edge $-1 $210 -9.810543106735679 $302 0 $130 $304 forward 7 unknown #
coedge $-1 $131 $294 $300 $305 forward $198 $-1 #
vertex $-1 $132 $306 #
vertex $-1 $132 $307 #
straight-curve $-1 -52.710960395363522 -3.6774546231763825 6.7392466934462192 1 0 0 I I #
coedge $-1 $212 $212 $-1 $308 reversed $135 $-1 #
edge $-1 $309 0 $309 6.2831853071796004 $136 $310 forward 7 unknown #
vertex $-1 $139 $311 #
ellipse-curve $-1 -41.440277282177234 0.86440298941901261 3.4569793251109151 -0.66913061440640931 0 0.74314481823134659 1.1147172273470198 0 1.003695921609614 1 I I #
face $-1 $-1 $155 $21 $-1 $312 reversed single #
loop $-1 $-1 $232 $140 #
plane-surface $-1 0 18.612551638457575 0 0 -1 0 0 0 -1 forward_v I I I I #
coedge $-1 $313 $230 $233 $314 forward $141 $-1 #
coedge $-1 $236 $143 $144 $224 reversed $88 $-1 #
coedge $-1 $230 $313 $143 $222 reversed $141 $-1 #
edge $-1 $237 -6.7392466934462174 $315 6.7392466934462174 $221 $316 forward 7 unknown #
coedge $-1 $145 $144 $313 $317 forward $57 $-1 #
edge $-1 $228 -45.08560441908017 $315 45.08560441908017 $220 $318 forward 7 unknown #
coedge $-1 $233 $232 $145 $226 reversed $217 $-1 #
edge $-1 $319 -45.08560441908017 $227 45.08560441908017 $225 $320 forward 7 unknown #
vertex $-1 $147 $321 #
vertex $-1 $239 $322 #
straight-curve $-1 45.08560441908017 0 -6.7392466934462174 0 -1 0 I I #
coedge $-1 $219 $221 $148 $231 reversed $141 $-1 #
edge $-1 $234 -18.612551638457575 $237 18.612551638457575 $230 $323 forward 7 unknown #
coedge $-1 $225 $149 $154 $240 forward $217 $-1 #
coedge $-1 $149 $225 $219 $314 reversed $217 $-1 #
vertex $-1 $150 $324 #
straight-curve $-1 0 18.612551638457575 6.7392466934462174 -1 0 0 I I #
coedge $-1 $151 $220 $153 $239 reversed $88 $-1 #
vertex $-1 $231 $325 #
straight-curve $-1 0 -18.612551638457575 6.7392466934462174 1 0 0 I I #
edge $-1 $156 -6.7392466934462174 $228 6.7392466934462174 $153 $326 forward 7 unknown #
edge $-1 $157 -6.7392466934462174 $227 6.7392466934462174 $154 $327 forward 7 unknown #
point $-1 45.08560441908017 -18.612551638457575 6.7392466934462174 #
point $-1 45.08560441908017 18.612551638457575 6.7392466934462174 #
face $-1 $-1 $259 $22 $-1 $328 reversed single #
loop $-1 $-1 $329 $159 #
plane-surface $-1 0 -23.193075723042931 2.540555763791831 0 1 0 0 0 1 forward_v I I I I #
coedge $-1 $330 $256 $258 $331 forward $160 $-1 #
coedge $-1 $162 $169 $332 $333 forward $96 $-1 #
coedge $-1 $334 $167 $162 $249 reversed $259 $-1 #
edge $-1 $335 -2.290262042292678 $171 2.290262042292678 $248 $336 forward 7 unknown #
coedge $-1 $164 $163 $329 $337 reversed $61 $-1 #
coedge $-1 $256 $330 $163 $252 forward $160 $-1 #
edge $-1 $338 -2.290262042292678 $254 2.290262042292678 $163 $339 forward 7 unknown #
edge $-1 $170 -2.290262042292678 $340 2.290262042292678 $164 $341 forward 7 unknown #
vertex $-1 $165 $342 #
straight-curve $-1 -45.08560441908017 -18.612551638457575 0 0 0 -1 I I #
coedge $-1 $246 $251 $166 $257 reversed $160 $-1 #
edge $-1 $260 -45.08560441908017 $254 45.08560441908017 $256 $343 forward 7 unknown #
coedge $-1 $167 $334 $246 $331 reversed $259 $-1 #
loop $-1 $-1 $167 $243 #
vertex $-1 $168 $344 #
straight-curve $-1 45.08560441908017 -18.612551638457575 0 0 0 1 I I #
point $-1 -45.08560441908017 -18.612551638457575 4.040555763791831 #
point $-1 45.08560441908017 -18.612551638457575 4.040555763791831 #
plane-surface $-1 0 0 6.7392466934462174 0 0 1 1 0 0 forward_v I I I I #
coedge $-1 $275 $274 $267 $345 forward $174 $-1 #
coedge $-1 $267 $176 $178 $271 reversed $104 $-1 #
coedge $-1 $176 $266 $265 $345 reversed $104 $-1 #
coedge $-1 $184 $179 $176 $269 forward $185 $-1 #
edge $-1 $272 17.175725389861483 $346 21.430024269377718 $268 $347 forward 7 unknown #
coedge $-1 $178 $177 $275 $348 reversed $65 $-1 #
edge $-1 $349 -90.171208838160354 $272 -84.046904989412951 $266 $350 forward 7 unknown #
vertex $-1 $180 $351 #
straight-curve $-1 40.831305539563942 -0.58791000883726241 6.7392466934462263 0 -1 0 I I #
coedge $-1 $265 $181 $184 $279 reversed $174 $-1 #
coedge $-1 $181 $265 $270 $348 forward $174 $-1 #
vertex $-1 $182 $352 #
straight-curve $-1 45.08560441908017 3.0376034584240319 64.917857732296468 0 0 1 I I #
straight-curve $-1 -17.552579805445234 3.0376034584240319 67.197531240067548 0.69465836192734942 0 -0.71933980857756763 I I #
edge $-1 $346 -5.3892434937730815 $186 3.0376034584240319 $274 $353 forward 7 unknown #
point $-1 45.08560441908017 3.0376034584240319 6.7392466934462174 #
point $-1 40.831305539563935 3.0376034584240319 6.7392466934462192 #
edge $-1 $354 1 $354 0 $189 $-1 forward 7 unknown #
vertex $-1 $190 $355 #
ellipse-curve $-1 41.755091485343982 -2.9815729360024754 3.3744443237666646 0.71933980857756763 0 0.69465836192734942 0.34732918096367471 0 -0.35966990428878381 1 I I #
point $-1 43.305784160285725 -2.9815729360024754 4.1768490100430116 #
edge $-1 $356 1 $356 0 $193 $-1 forward 7 unknown #
vertex $-1 $194 $357 #
ellipse-curve $-1 41.755091485343982 0.62993290065342933 3.3744443237666646 0.71933980857756763 0 0.69465836192734942 0.34732918096367471 0 -0.35966990428878381 1 I I #
point $-1 43.305784160285725 0.62993290065342933 4.1768490100430116 #
loop $-1 $-1 $205 $197 #
plane-surface $-1 -45.08560441908017 0 0 1 0 0 0 0 -1 forward_v I I I I #
coedge $-1 $293 $200 $202 $297 reversed $126 $-1 #
coedge $-1 $200 $292 $358 $359 reversed $126 $-1 #
coedge $-1 $208 $203 $200 $295 forward $198 $-1 #
edge $-1 $298 -14.916010250089229 $360 -7.6253559762833518 $294 $361 forward 7 unknown #
coedge $-1 $202 $201 $301 $362 reversed $79 $-1 #
edge $-1 $363 0 $298 9.810543106735679 $292 $364 forward 7 unknown #
vertex $-1 $204 $365 #
straight-curve $-1 -37.794950145274292 0.43220149470950631 6.7392466934462156 0 1 0 I I #
coedge $-1 $358 $205 $208 $305 reversed $290 $-1 #
coedge $-1 $205 $358 $296 $362 forward $290 $-1 #
vertex $-1 $206 $366 #
straight-curve $-1 -45.08560441908017 -3.6774546231763825 33.592489279255531 0 0 1 I I #
straight-curve $-1 -45.08560441908017 -3.6774546231763825 0.17471195677561013 -0.74314481823134659 0 -0.66913061440640931 I I #
edge $-1 $360 -5.4062606020144077 $209 3.6774546231763825 $300 $367 forward 7 unknown #
point $-1 -45.08560441908017 -3.6774546231763825 6.7392466934462174 #
point $-1 -37.794950145274292 -3.6774546231763825 6.7392466934462174 #
edge $-1 $368 1 $368 0 $212 $-1 forward 7 unknown #
vertex $-1 $213 $369 #
ellipse-curve $-1 -40.148310163379342 0.86440298941901261 2.0221045054740019 -0.66913061440640931 0 0.74314481823134659 1.1147172273470198 0 1.003695921609614 1 I I #
point $-1 -40.325560054830206 0.86440298941901261 4.4606752467205251 #
plane-surface $-1 45.08560441908017 0 0 -1 0 0 0 0 1 forward_v I I I I #
coedge $-1 $221 $219 $223 $317 reversed $141 $-1 #
edge $-1 $234 -6.7392466934462174 $319 6.7392466934462174 $233 $370 forward 7 unknown #
vertex $-1 $317 $371 #
straight-curve $-1 -45.08560441908017 -18.612551638457575 0 0 0 -1 I I #
edge $-1 $315 -18.612551638457575 $319 18.612551638457575 $313 $372 forward 7 unknown #
straight-curve $-1 0 -18.612551638457575 -6.7392466934462174 -1 0 0 I I #
vertex $-1 $226 $373 #
straight-curve $-1 0 18.612551638457575 -6.7392466934462174 1 0 0 I I #
point $-1 45.08560441908017 18.612551638457575 -6.7392466934462174 #
point $-1 45.08560441908017 -18.612551638457575 -6.7392466934462174 #
straight-curve $-1 -45.08560441908017 0 6.7392466934462174 0 -1 0 I I #
point $-1 -45.08560441908017 18.612551638457575 6.7392466934462174 #
point $-1 -45.08560441908017 -18.612551638457575 6.7392466934462174 #
straight-curve $-1 45.08560441908017 -18.612551638457575 0 0 0 -1 I I #
straight-curve $-1 45.08560441908017 18.612551638457575 0 0 0 -1 I I #
plane-surface $-1 45.08560441908017 0 0 -1 0 0 0 0 1 forward_v I I I I #
coedge $-1 $374 $332 $250 $337 forward $244 $-1 #
coedge $-1 $251 $246 $374 $375 forward $160 $-1 #
edge $-1 $260 -2.290262042292678 $376 2.290262042292678 $258 $377 forward 7 unknown #
coedge $-1 $329 $378 $247 $333 reversed $244 $-1 #
edge $-1 $340 -45.08560441908017 $335 45.08560441908017 $332 $379 forward 7 unknown #
coedge $-1 $258 $248 $378 $380 forward $259 $-1 #
vertex $-1 $249 $381 #
straight-curve $-1 45.08560441908017 -20.902813680750253 4.040555763791831 0 1 0 I I #
edge $-1 $340 -1.5 $338 1.4999999999999996 $250 $382 forward 7 unknown #
vertex $-1 $252 $383 #
straight-curve $-1 -45.08560441908017 -20.902813680750253 1.0405557637918315 0 1 0 I I #
vertex $-1 $253 $384 #
straight-curve $-1 -45.08560441908017 -20.902813680750253 4.040555763791831 0 -1 0 I I #
point $-1 -45.08560441908017 -18.612551638457575 1.0405557637918315 #
straight-curve $-1 0 -18.612551638457575 1.0405557637918315 -1 0 0 I I #
point $-1 45.08560441908017 -18.612551638457575 1.0405557637918315 #
edge $-1 $346 58.178611038850249 $349 62.584066597079058 $265 $385 forward 7 unknown #
vertex $-1 $279 $386 #
straight-curve $-1 23.655580149702452 -5.3892434937730815 6.7392466934462192 1 0 0 I I #
edge $-1 $349 -4.8013334849358191 $276 3.6255134672612943 $275 $387 forward 7 unknown #
vertex $-1 $348 $388 #
straight-curve $-1 -17.552579805445234 -5.3892434937730815 67.197531240067548 -0.69465836192734942 0 0.71933980857756763 I I #
point $-1 40.831305539563935 -5.3892434937730815 6.7392466934462192 #
point $-1 45.08560441908017 3.0376034584240319 2.3337911352174103 #
straight-curve $-1 45.08560441908017 0 6.7392466934462174 0 1 0 I I #
vertex $-1 $282 $389 #
point $-1 42.102420666307658 -2.9815729360024754 3.0147744194778809 #
vertex $-1 $286 $390 #
point $-1 42.102420666307658 0.62993290065342933 3.0147744194778809 #
coedge $-1 $301 $300 $293 $359 forward $290 $-1 #
edge $-1 $360 26.853242585809312 $363 33.417777322479921 $358 $391 forward 7 unknown #
vertex $-1 $305 $392 #
straight-curve $-1 -52.710960395363522 5.4062606020144077 6.7392466934462192 -1 0 0 I I #
edge $-1 $363 -4.9740591073049014 $302 4.1096561178858888 $301 $393 forward 7 unknown #
vertex $-1 $362 $394 #
straight-curve $-1 -45.08560441908017 5.4062606020144077 0.17471195677561013 0.74314481823134659 0 0.66913061440640931 I I #
point $-1 -37.794950145274292 5.4062606020144077 6.7392466934462174 #
point $-1 -45.08560441908017 -3.6774546231763825 0.17471195677561013 #
straight-curve $-1 -45.08560441908017 0 6.7392466934462174 0 -1 0 I I #
vertex $-1 $308 $395 #
point $-1 -39.033592936032321 0.86440298941901261 3.0258004270836159 #
straight-curve $-1 -45.08560441908017 18.612551638457575 0 0 0 -1 I I #
point $-1 -45.08560441908017 -18.612551638457575 -6.7392466934462174 #
straight-curve $-1 -45.08560441908017 0 -6.7392466934462174 0 1 0 I I #
point $-1 -45.08560441908017 18.612551638457575 -6.7392466934462174 #
coedge $-1 $378 $329 $330 $375 reversed $244 $-1 #
edge $-1 $376 -45.08560441908017 $338 45.08560441908017 $374 $396 forward 7 unknown #
vertex $-1 $380 $397 #
straight-curve $-1 45.08560441908017 -20.902813680750253 1.0405557637918315 0 -1 0 I I #
coedge $-1 $332 $374 $334 $380 reversed $244 $-1 #
straight-curve $-1 0 -23.193075723042931 4.040555763791831 1 0 0 I I #
edge $-1 $335 -1.5 $376 1.4999999999999996 $334 $398 forward 7 unknown #
point $-1 45.08560441908017 -23.193075723042931 4.040555763791831 #
straight-curve $-1 -45.08560441908017 -23.193075723042931 2.540555763791831 0 0 -1 I I #
point $-1 -45.08560441908017 -23.193075723042931 1.0405557637918315 #
point $-1 -45.08560441908017 -23.193075723042931 4.040555763791831 #
straight-curve $-1 45.08560441908017 -5.3892434937730815 64.917857732296468 0 0 -1 I I #
point $-1 45.08560441908017 -5.3892434937730815 6.7392466934462174 #
straight-curve $-1 45.08560441908017 -0.58791000883726241 2.3337911352173997 0 1 0 I I #
point $-1 45.08560441908017 -5.3892434937730815 2.3337911352174103 #
point $-1 41.395421581055203 -2.9815729360024754 3.0271151428029901 #
point $-1 41.395421581055203 0.62993290065342933 3.0271151428029901 #
straight-curve $-1 -45.08560441908017 5.4062606020144077 33.592489279255531 0 0 -1 I I #
point $-1 -45.08560441908017 5.4062606020144077 6.7392466934462174 #
straight-curve $-1 -45.08560441908017 0.43220149470950631 0.17471195677561108 0 -1 0 I I #
point $-1 -45.08560441908017 5.4062606020144077 0.17471195677561013 #
point $-1 -39.144614241769723 0.86440298941901261 0.90738727812698194 #
straight-curve $-1 0 -23.193075723042931 1.0405557637918315 -1 0 0 I I #
point $-1 45.08560441908017 -23.193075723042931 1.0405557637918315 #
straight-curve $-1 45.08560441908017 -23.193075723042931 2.540555763791831 0 0 -1 I I #
End-of-ACIS-data 