500 0 17 0           
7 Unknown 11 ACIS 5.0 NT 24 Fri Mar 26 14:41:31 1999 
-1 9.9999999999999995e-007 1e-010 
body $-1 $17 $-1 $18 #
body $-1 $19 $-1 $20 #
body $-1 $21 $-1 $22 #
body $-1 $23 $-1 $24 #
body $-1 $25 $-1 $26 #
body $-1 $27 $-1 $28 #
body $-1 $29 $-1 $30 #
body $-1 $31 $-1 $32 #
body $-1 $33 $-1 $34 #
body $-1 $35 $-1 $36 #
body $-1 $37 $-1 $38 #
body $-1 $39 $-1 $40 #
body $-1 $41 $-1 $42 #
body $-1 $43 $-1 $44 #
body $-1 $45 $-1 $46 #
body $-1 $47 $-1 $48 #
body $-1 $49 $-1 $50 #
lump $-1 $-1 $51 $0 #
transform $-1 1 0 0 0 1 0 0 0 1 41.818903164769431 24.008698521235573 6.8660027232563925 1 rotate no_reflect no_shear #
lump $-1 $-1 $52 $1 #
transform $-1 1 0 0 0 1 0 0 0 1 41.818903164769431 24.008698521235573 6.8660027232563925 1 rotate no_reflect no_shear #
lump $-1 $-1 $53 $2 #
transform $-1 1 0 0 0 1 0 0 0 1 41.818903164769431 24.008698521235573 6.8660027232563925 1 rotate no_reflect no_shear #
lump $-1 $-1 $54 $3 #
transform $-1 1 0 0 0 1 0 0 0 1 41.818903164769431 24.008698521235573 6.8660027232563925 1 rotate no_reflect no_shear #
lump $-1 $-1 $55 $4 #
transform $-1 1 0 0 0 1 0 0 0 1 41.818903164769431 24.008698521235573 6.8660027232563925 1 rotate no_reflect no_shear #
lump $-1 $-1 $56 $5 #
transform $-1 1 0 0 0 1 0 0 0 1 41.818903164769431 24.008698521235573 6.8660027232563925 1 rotate no_reflect no_shear #
lump $-1 $-1 $57 $6 #
transform $-1 1 0 0 0 1 0 0 0 1 41.818903164769431 24.008698521235573 6.8660027232563925 1 rotate no_reflect no_shear #
lump $-1 $-1 $58 $7 #
transform $-1 1 0 0 0 1 0 0 0 1 41.818903164769431 24.008698521235573 6.8660027232563925 1 rotate no_reflect no_shear #
lump $-1 $-1 $59 $8 #
transform $-1 1 0 0 0 1 0 0 0 1 41.818903164769431 24.008698521235573 6.8660027232563925 1 rotate no_reflect no_shear #
lump $-1 $-1 $60 $9 #
transform $-1 1 0 0 0 1 0 0 0 1 41.818903164769431 24.008698521235573 6.8660027232563925 1 rotate no_reflect no_shear #
lump $-1 $-1 $61 $10 #
transform $-1 1 0 0 0 1 0 0 0 1 41.818903164769431 24.008698521235573 6.8660027232563925 1 rotate no_reflect no_shear #
lump $-1 $-1 $62 $11 #
transform $-1 1 0 0 0 1 0 0 0 1 41.818903164769431 24.008698521235573 6.8660027232563925 1 rotate no_reflect no_shear #
lump $-1 $-1 $63 $12 #
transform $-1 1 0 0 0 1 0 0 0 1 41.818903164769431 24.008698521235573 6.8660027232563925 1 rotate no_reflect no_shear #
lump $-1 $-1 $64 $13 #
transform $-1 1 0 0 0 1 0 0 0 1 41.818903164769431 24.008698521235573 6.8660027232563925 1 rotate no_reflect no_shear #
lump $-1 $-1 $65 $14 #
transform $-1 1 0 0 0 1 0 0 0 1 41.818903164769431 24.008698521235573 6.8660027232563925 1 rotate no_reflect no_shear #
lump $-1 $-1 $66 $15 #
transform $-1 1 0 0 0 1 0 0 0 1 41.818903164769431 24.008698521235573 6.8660027232563925 1 rotate no_reflect no_shear #
lump $-1 $-1 $67 $16 #
transform $-1 1 0 0 0 1 0 0 0 1 41.818903164769431 24.008698521235573 6.8660027232563925 1 rotate no_reflect no_shear #
shell $-1 $-1 $-1 $68 $-1 $17 #
shell $-1 $-1 $-1 $69 $-1 $19 #
shell $-1 $-1 $-1 $70 $-1 $21 #
shell $-1 $-1 $-1 $71 $-1 $23 #
shell $-1 $-1 $-1 $72 $-1 $25 #
shell $-1 $-1 $-1 $73 $-1 $27 #
shell $-1 $-1 $-1 $74 $-1 $29 #
shell $-1 $-1 $-1 $75 $-1 $31 #
shell $-1 $-1 $-1 $76 $-1 $33 #
shell $-1 $-1 $-1 $77 $-1 $35 #
shell $-1 $-1 $-1 $78 $-1 $37 #
shell $-1 $-1 $-1 $79 $-1 $39 #
shell $-1 $-1 $-1 $80 $-1 $41 #
shell $-1 $-1 $-1 $81 $-1 $43 #
shell $-1 $-1 $-1 $82 $-1 $45 #
shell $-1 $-1 $-1 $83 $-1 $47 #
shell $-1 $-1 $-1 $84 $-1 $49 #
face $-1 $85 $86 $51 $-1 $87 forward single #
face $-1 $88 $89 $52 $-1 $90 reversed single #
face $-1 $91 $92 $53 $-1 $93 reversed single #
face $-1 $94 $95 $54 $-1 $96 forward single #
face $-1 $97 $98 $55 $-1 $99 forward single #
face $-1 $100 $101 $56 $-1 $102 reversed single #
face $-1 $103 $104 $57 $-1 $105 forward single #
face $-1 $106 $107 $58 $-1 $108 forward single #
face $-1 $109 $110 $59 $-1 $111 reversed single #
face $-1 $112 $113 $60 $-1 $114 forward single #
face $-1 $115 $116 $61 $-1 $117 forward single #
face $-1 $118 $119 $62 $-1 $120 reversed single #
face $-1 $121 $122 $63 $-1 $123 forward single #
face $-1 $124 $125 $64 $-1 $126 forward single #
face $-1 $127 $128 $65 $-1 $129 reversed single #
face $-1 $130 $131 $66 $-1 $132 forward single #
face $-1 $133 $134 $67 $-1 $135 forward single #
face $-1 $136 $137 $51 $-1 $138 reversed single #
loop $-1 $-1 $139 $68 #
plane-surface $-1 0 0 6.8660027232563925 0 0 1 1 0 0 forward_v I I I I #
face $-1 $140 $141 $52 $-1 $142 reversed single #
loop $-1 $-1 $143 $69 #
plane-surface $-1 -37.957733707660402 -19.515058129190059 0 0 1 0 0 0 1 forward_v I I I I #
face $-1 $144 $145 $53 $-1 $146 reversed single #
loop $-1 $-1 $147 $70 #
plane-surface $-1 -18.734041881824787 -96.441164166360466 42.847138188317565 -1 0 0 0 -0.86602541151947299 0.49999998660252726 forward_v I I I I #
face $-1 $148 $149 $54 $-1 $150 forward single #
loop $-1 $151 $152 $71 #
cone-surface $-1 -26.980208067254658 -20.691862963393916 3.0051046269155073 0 0.86602541151947299 -0.49999998660252726 1.5 0 0 1 I I 0 1 1.5 forward I I I I #
face $-1 $153 $154 $55 $-1 $155 forward single #
loop $-1 $156 $157 $72 #
cone-surface $-1 -22.032508355996736 -20.691862963393916 3.0051046269155073 0 0.86602541151947299 -0.49999998660252726 1.5 0 0 1 I I 0 1 1.5 forward I I I I #
face $-1 $158 $159 $56 $-1 $160 reversed single #
loop $-1 $-1 $161 $73 #
plane-surface $-1 0.24482497200541875 -96.441164166360466 42.847138188317565 -1 0 0 0 -0.86602541151947299 0.49999998660252726 forward_v I I I I #
face $-1 $162 $163 $57 $-1 $164 forward single #
loop $-1 $165 $166 $74 #
cone-surface $-1 -8.0013412134244604 -20.691862963393916 3.0051046269155073 0 0.86602541151947299 -0.49999998660252726 1.5 0 0 1 I I 0 1 1.5 forward I I I I #
face $-1 $167 $168 $58 $-1 $169 forward single #
loop $-1 $170 $171 $75 #
cone-surface $-1 -3.0536415021665348 -20.691862963393916 3.0051046269155073 0 0.86602541151947299 -0.49999998660252726 1.5 0 0 1 I I 0 1 1.5 forward I I I I #
face $-1 $172 $173 $59 $-1 $174 reversed single #
loop $-1 $-1 $175 $76 #
plane-surface $-1 19.223691825835616 -96.441164166360466 42.847138188317565 -1 0 0 0 -0.86602541151947299 0.49999998660252726 forward_v I I I I #
face $-1 $176 $177 $60 $-1 $178 forward single #
loop $-1 $179 $180 $77 #
cone-surface $-1 10.977525640405737 -20.691862963393916 3.0051046269155073 0 0.86602541151947299 -0.49999998660252726 1.5 0 0 1 I I 0 1 1.5 forward I I I I #
face $-1 $181 $182 $61 $-1 $183 forward single #
loop $-1 $184 $185 $78 #
cone-surface $-1 15.925225351663663 -20.691862963393916 3.0051046269155073 0 0.86602541151947299 -0.49999998660252726 1.5 0 0 1 I I 0 1 1.5 forward I I I I #
face $-1 $186 $187 $62 $-1 $188 reversed single #
loop $-1 $-1 $189 $79 #
plane-surface $-1 38.202558679665813 -96.441164166360466 42.847138188317565 -1 0 0 0 -0.86602541151947299 0.49999998660252726 forward_v I I I I #
face $-1 $190 $191 $63 $-1 $192 forward single #
loop $-1 $193 $194 $80 #
cone-surface $-1 29.956392494235935 -20.691862963393916 3.0051046269155073 0 0.86602541151947299 -0.49999998660252726 1.5 0 0 1 I I 0 1 1.5 forward I I I I #
face $-1 $195 $196 $64 $-1 $197 forward single #
loop $-1 $198 $199 $81 #
cone-surface $-1 34.90409220549386 -20.691862963393916 3.0051046269155073 0 0.86602541151947299 -0.49999998660252726 1.5 0 0 1 I I 0 1 1.5 forward I I I I #
face $-1 $200 $201 $65 $-1 $202 reversed single #
loop $-1 $-1 $203 $82 #
plane-surface $-1 -34.096564250551374 29.290335821803389 97.181364116607639 1 0 0 0 -0.54463904215088732 -0.83867056331134215 forward_v I I I I #
face $-1 $204 $205 $66 $-1 $206 forward single #
loop $-1 $207 $208 $83 #
cone-surface $-1 -29.107376788810562 18.907322667938697 3.1113413550730611 0 -0.54463904215088732 -0.83867056331134215 1 0 0 1 I I 0 1 1 forward I I I I #
face $-1 $209 $210 $67 $-1 $211 forward single #
loop $-1 $212 $213 $84 #
cone-surface $-1 -21.62359559619934 18.907322667938697 3.1113413550730611 0 -0.54463904215088732 -0.83867056331134215 1 0 0 1 I I 0 1 1 forward I I I I #
face $-1 $214 $215 $51 $-1 $216 reversed single #
loop $-1 $-1 $217 $85 #
plane-surface $-1 0 0 -6.8660027232563925 0 0 1 1 0 0 forward_v I I I I #
coedge $-1 $218 $219 $220 $221 forward $86 $-1 #
face $-1 $222 $223 $52 $-1 $224 reversed single #
loop $-1 $-1 $225 $88 #
plane-surface $-1 -37.957733707660402 -16.515058129190059 0 0 -1 0 0 0 -1 forward_v I I I I #
coedge $-1 $226 $227 $228 $229 reversed $89 $-1 #
face $-1 $230 $231 $53 $-1 $232 reversed single #
loop $-1 $-1 $233 $91 #
plane-surface $-1 -24.506358211625695 -24.008698521235587 1.0282361440833654 0 -0.86602541151947299 0.49999998660252726 1 0 0 forward_v I I I I #
coedge $-1 $234 $235 $236 $237 reversed $92 $-1 #
face $-1 $-1 $238 $54 $-1 $239 forward single #
loop $-1 $240 $241 $94 #
cone-surface $-1 -26.980208067254658 -18.410726339681428 1.6880898302092424 0 0.86602541151947299 -0.49999998660252726 0.75 0 0 1 I I -0.70710678118654757 0.70710678118654757 0.75 forward I I I I #
loop $-1 $-1 $242 $71 #
coedge $-1 $152 $152 $243 $244 reversed $95 $-1 #
face $-1 $-1 $245 $55 $-1 $246 forward single #
loop $-1 $247 $248 $97 #
cone-surface $-1 -22.032508355996736 -18.410726339681428 1.6880898302092424 0 0.86602541151947299 -0.49999998660252726 0.75 0 0 1 I I -0.70710678118654757 0.70710678118654757 0.75 forward I I I I #
loop $-1 $-1 $249 $72 #
coedge $-1 $157 $157 $250 $251 reversed $98 $-1 #
face $-1 $252 $253 $56 $-1 $254 reversed single #
loop $-1 $-1 $255 $100 #
plane-surface $-1 -5.5274913577954905 -24.008698521235587 1.0282361440833654 0 -0.86602541151947299 0.49999998660252726 1 0 0 forward_v I I I I #
coedge $-1 $256 $257 $258 $259 reversed $101 $-1 #
face $-1 $-1 $260 $57 $-1 $261 forward single #
loop $-1 $262 $263 $103 #
cone-surface $-1 -8.0013412134244604 -18.410726339681428 1.6880898302092424 0 0.86602541151947299 -0.49999998660252726 0.75 0 0 1 I I -0.70710678118654757 0.70710678118654757 0.75 forward I I I I #
loop $-1 $-1 $264 $74 #
coedge $-1 $166 $166 $265 $266 reversed $104 $-1 #
face $-1 $-1 $267 $58 $-1 $268 forward single #
loop $-1 $269 $270 $106 #
cone-surface $-1 -3.0536415021665348 -18.410726339681428 1.6880898302092424 0 0.86602541151947299 -0.49999998660252726 0.75 0 0 1 I I -0.70710678118654757 0.70710678118654757 0.75 forward I I I I #
loop $-1 $-1 $271 $75 #
coedge $-1 $171 $171 $272 $273 reversed $107 $-1 #
face $-1 $274 $275 $59 $-1 $276 reversed single #
loop $-1 $-1 $277 $109 #
plane-surface $-1 13.451375496034707 -24.008698521235587 1.0282361440833654 0 -0.86602541151947299 0.49999998660252726 1 0 0 forward_v I I I I #
coedge $-1 $278 $279 $280 $281 reversed $110 $-1 #
face $-1 $-1 $282 $60 $-1 $283 forward single #
loop $-1 $284 $285 $112 #
cone-surface $-1 10.977525640405737 -18.410726339681428 1.6880898302092424 0 0.86602541151947299 -0.49999998660252726 0.75 0 0 1 I I -0.70710678118654757 0.70710678118654757 0.75 forward I I I I #
loop $-1 $-1 $286 $77 #
coedge $-1 $180 $180 $287 $288 reversed $113 $-1 #
face $-1 $-1 $289 $61 $-1 $290 forward single #
loop $-1 $291 $292 $115 #
cone-surface $-1 15.925225351663663 -18.410726339681428 1.6880898302092424 0 0.86602541151947299 -0.49999998660252726 0.75 0 0 1 I I -0.70710678118654757 0.70710678118654757 0.75 forward I I I I #
loop $-1 $-1 $293 $78 #
coedge $-1 $185 $185 $294 $295 reversed $116 $-1 #
face $-1 $296 $297 $62 $-1 $298 reversed single #
loop $-1 $-1 $299 $118 #
plane-surface $-1 32.430242349864905 -24.008698521235587 1.0282361440833654 0 -0.86602541151947299 0.49999998660252726 1 0 0 forward_v I I I I #
coedge $-1 $300 $301 $302 $303 reversed $119 $-1 #
face $-1 $-1 $304 $63 $-1 $305 forward single #
loop $-1 $306 $307 $121 #
cone-surface $-1 29.956392494235935 -18.410726339681428 1.6880898302092424 0 0.86602541151947299 -0.49999998660252726 0.75 0 0 1 I I -0.70710678118654757 0.70710678118654757 0.75 forward I I I I #
loop $-1 $-1 $308 $80 #
coedge $-1 $194 $194 $309 $310 reversed $122 $-1 #
face $-1 $-1 $311 $64 $-1 $312 forward single #
loop $-1 $313 $314 $124 #
cone-surface $-1 34.90409220549386 -18.410726339681428 1.6880898302092424 0 0.86602541151947299 -0.49999998660252726 0.75 0 0 1 I I -0.70710678118654757 0.70710678118654757 0.75 forward I I I I #
loop $-1 $-1 $315 $81 #
coedge $-1 $199 $199 $316 $317 reversed $125 $-1 #
face $-1 $318 $319 $65 $-1 $320 reversed single #
loop $-1 $-1 $321 $127 #
plane-surface $-1 -25.36548619250495 -16.262078905118081 27.036797968088351 0 0.54463904215088732 0.83867056331134215 1 0 0 forward_v I I I I #
coedge $-1 $322 $323 $324 $325 reversed $128 $-1 #
face $-1 $-1 $326 $66 $-1 $327 forward single #
loop $-1 $328 $329 $130 #
cone-surface $-1 -29.107376788810562 18.138865851133957 1.9280216487132593 0 -0.54463904215088732 -0.83867056331134215 0.5 0 0 1 I I -0.70710678118654746 0.70710678118654746 0.5 forward I I I I #
loop $-1 $-1 $330 $83 #
coedge $-1 $208 $208 $331 $332 reversed $131 $-1 #
face $-1 $-1 $333 $67 $-1 $334 forward single #
loop $-1 $335 $336 $133 #
cone-surface $-1 -21.62359559619934 18.138865851133957 1.9280216487132593 0 -0.54463904215088732 -0.83867056331134215 0.5 0 0 1 I I -0.70710678118654746 0.70710678118654746 0.5 forward I I I I #
loop $-1 $-1 $337 $84 #
coedge $-1 $213 $213 $338 $339 reversed $134 $-1 #
face $-1 $340 $341 $51 $-1 $342 reversed single #
loop $-1 $-1 $343 $136 #
plane-surface $-1 0 -24.008698521235573 0 0 1 0 0 0 1 forward_v I I I I #
coedge $-1 $344 $345 $346 $347 forward $137 $-1 #
coedge $-1 $348 $139 $349 $350 forward $86 $-1 #
coedge $-1 $139 $348 $351 $352 forward $86 $-1 #
coedge $-1 $353 $354 $139 $221 reversed $355 $-1 #
edge $-1 $356 -24.008698521235573 $357 24.008698521235573 $220 $358 forward 7 unknown #
face $-1 $359 $360 $52 $-1 $361 reversed single #
loop $-1 $-1 $362 $140 #
plane-surface $-1 -34.096564250551374 -18.015058129190059 0 -1 0 0 0 0 1 forward_v I I I I #
coedge $-1 $363 $364 $365 $366 forward $141 $-1 #
coedge $-1 $367 $143 $368 $369 reversed $89 $-1 #
coedge $-1 $143 $367 $370 $371 reversed $89 $-1 #
coedge $-1 $372 $373 $143 $229 forward $374 $-1 #
edge $-1 $375 -6.8660027232563925 $376 6.8660027232563925 $228 $377 forward 7 unknown #
face $-1 $378 $379 $53 $-1 $380 reversed single #
loop $-1 $-1 $381 $144 #
plane-surface $-1 -30.278674541426604 -96.441164166360466 42.847138188317565 1 0 0 0 0.86602541151947299 -0.49999998660252726 forward_v I I I I #
coedge $-1 $382 $383 $384 $385 reversed $145 $-1 #
coedge $-1 $235 $147 $386 $387 reversed $92 $-1 #
coedge $-1 $147 $234 $382 $388 reversed $92 $-1 #
coedge $-1 $384 $389 $147 $237 forward $390 $-1 #
edge $-1 $391 24.21188356194466 $392 27.582319547482193 $236 $393 forward 7 unknown #
loop $-1 $-1 $243 $148 #
plane-surface $-1 -24.506358211625695 -24.008698521235587 1.0282361440833654 0 -0.86602541151947299 0.49999998660252726 1 0 0 forward_v I I I I #
loop $-1 $-1 $394 $94 #
coedge $-1 $241 $241 $242 $395 reversed $149 $-1 #
coedge $-1 $242 $242 $241 $395 forward $151 $-1 #
coedge $-1 $243 $243 $152 $244 forward $238 $-1 #
edge $-1 $396 -3.6816796370677264e-017 $396 6.2831853071796004 $243 $397 forward 7 unknown #
loop $-1 $-1 $250 $153 #
plane-surface $-1 -24.506358211625695 -24.008698521235587 1.0282361440833654 0 -0.86602541151947299 0.49999998660252726 1 0 0 forward_v I I I I #
loop $-1 $-1 $398 $97 #
coedge $-1 $248 $248 $249 $399 reversed $154 $-1 #
coedge $-1 $249 $249 $248 $399 forward $156 $-1 #
coedge $-1 $250 $250 $157 $251 forward $245 $-1 #
edge $-1 $400 -3.6816796370677264e-017 $400 6.2831853071796004 $250 $401 forward 7 unknown #
face $-1 $402 $403 $56 $-1 $404 reversed single #
loop $-1 $-1 $405 $158 #
plane-surface $-1 -11.299807687596399 -96.441164166360466 42.847138188317565 1 0 0 0 0.86602541151947299 -0.49999998660252726 forward_v I I I I #
coedge $-1 $406 $407 $408 $409 reversed $159 $-1 #
coedge $-1 $257 $161 $410 $411 reversed $101 $-1 #
coedge $-1 $161 $256 $406 $412 reversed $101 $-1 #
coedge $-1 $408 $413 $161 $259 forward $414 $-1 #
edge $-1 $415 24.21188356194466 $416 27.582319547482193 $258 $417 forward 7 unknown #
loop $-1 $-1 $265 $162 #
plane-surface $-1 -5.5274913577954905 -24.008698521235587 1.0282361440833654 0 -0.86602541151947299 0.49999998660252726 1 0 0 forward_v I I I I #
loop $-1 $-1 $418 $103 #
coedge $-1 $263 $263 $264 $419 reversed $163 $-1 #
coedge $-1 $264 $264 $263 $419 forward $165 $-1 #
coedge $-1 $265 $265 $166 $266 forward $260 $-1 #
edge $-1 $420 -3.6816796370677264e-017 $420 6.2831853071796004 $265 $421 forward 7 unknown #
loop $-1 $-1 $272 $167 #
plane-surface $-1 -5.5274913577954905 -24.008698521235587 1.0282361440833654 0 -0.86602541151947299 0.49999998660252726 1 0 0 forward_v I I I I #
loop $-1 $-1 $422 $106 #
coedge $-1 $270 $270 $271 $423 reversed $168 $-1 #
coedge $-1 $271 $271 $270 $423 forward $170 $-1 #
coedge $-1 $272 $272 $171 $273 forward $267 $-1 #
edge $-1 $424 -3.6816796370677264e-017 $424 6.2831853071796004 $272 $425 forward 7 unknown #
face $-1 $426 $427 $59 $-1 $428 reversed single #
loop $-1 $-1 $429 $172 #
plane-surface $-1 7.6790591662337979 -96.441164166360466 42.847138188317565 1 0 0 0 0.86602541151947299 -0.49999998660252726 forward_v I I I I #
coedge $-1 $430 $431 $432 $433 reversed $173 $-1 #
coedge $-1 $279 $175 $434 $435 reversed $110 $-1 #
coedge $-1 $175 $278 $430 $436 reversed $110 $-1 #
coedge $-1 $432 $437 $175 $281 forward $438 $-1 #
edge $-1 $439 24.21188356194466 $440 27.582319547482193 $280 $441 forward 7 unknown #
loop $-1 $-1 $287 $176 #
plane-surface $-1 13.451375496034707 -24.008698521235587 1.0282361440833654 0 -0.86602541151947299 0.49999998660252726 1 0 0 forward_v I I I I #
loop $-1 $-1 $442 $112 #
coedge $-1 $285 $285 $286 $443 reversed $177 $-1 #
coedge $-1 $286 $286 $285 $443 forward $179 $-1 #
coedge $-1 $287 $287 $180 $288 forward $282 $-1 #
edge $-1 $444 -3.6816796370677264e-017 $444 6.2831853071796004 $287 $445 forward 7 unknown #
loop $-1 $-1 $294 $181 #
plane-surface $-1 13.451375496034707 -24.008698521235587 1.0282361440833654 0 -0.86602541151947299 0.49999998660252726 1 0 0 forward_v I I I I #
loop $-1 $-1 $446 $115 #
coedge $-1 $292 $292 $293 $447 reversed $182 $-1 #
coedge $-1 $293 $293 $292 $447 forward $184 $-1 #
coedge $-1 $294 $294 $185 $295 forward $289 $-1 #
edge $-1 $448 -3.6816796370677264e-017 $448 6.2831853071796004 $294 $449 forward 7 unknown #
face $-1 $450 $451 $62 $-1 $452 reversed single #
loop $-1 $-1 $453 $186 #
plane-surface $-1 26.657926020063996 -96.441164166360466 42.847138188317565 1 0 0 0 0.86602541151947299 -0.49999998660252726 forward_v I I I I #
coedge $-1 $454 $455 $456 $457 reversed $187 $-1 #
coedge $-1 $301 $189 $458 $459 reversed $119 $-1 #
coedge $-1 $189 $300 $454 $460 reversed $119 $-1 #
coedge $-1 $456 $461 $189 $303 forward $462 $-1 #
edge $-1 $463 24.21188356194466 $464 27.582319547482193 $302 $465 forward 7 unknown #
loop $-1 $-1 $309 $190 #
plane-surface $-1 32.430242349864905 -24.008698521235587 1.0282361440833654 0 -0.86602541151947299 0.49999998660252726 1 0 0 forward_v I I I I #
loop $-1 $-1 $466 $121 #
coedge $-1 $307 $307 $308 $467 reversed $191 $-1 #
coedge $-1 $308 $308 $307 $467 forward $193 $-1 #
coedge $-1 $309 $309 $194 $310 forward $304 $-1 #
edge $-1 $468 -3.6816796370677264e-017 $468 6.2831853071796004 $309 $469 forward 7 unknown #
loop $-1 $-1 $316 $195 #
plane-surface $-1 32.430242349864905 -24.008698521235587 1.0282361440833654 0 -0.86602541151947299 0.49999998660252726 1 0 0 forward_v I I I I #
loop $-1 $-1 $470 $124 #
coedge $-1 $314 $314 $315 $471 reversed $196 $-1 #
coedge $-1 $315 $315 $314 $471 forward $198 $-1 #
coedge $-1 $316 $316 $199 $317 forward $311 $-1 #
edge $-1 $472 -3.6816796370677264e-017 $472 6.2831853071796004 $316 $473 forward 7 unknown #
face $-1 $474 $475 $65 $-1 $476 reversed single #
loop $-1 $-1 $477 $200 #
plane-surface $-1 -16.634408134458525 29.290335821803389 97.181364116607639 -1 0 0 0 0.54463904215088732 0.83867056331134215 forward_v I I I I #
coedge $-1 $478 $479 $480 $481 reversed $201 $-1 #
coedge $-1 $323 $203 $482 $483 reversed $128 $-1 #
coedge $-1 $203 $322 $478 $484 reversed $128 $-1 #
coedge $-1 $480 $485 $203 $325 forward $486 $-1 #
edge $-1 $487 -9.3635306103338785 $488 -0.15305349519874056 $324 $489 forward 7 unknown #
loop $-1 $-1 $331 $204 #
plane-surface $-1 -25.36548619250495 -16.262078905118081 27.036797968088351 0 0.54463904215088732 0.83867056331134215 1 0 0 forward_v I I I I #
loop $-1 $-1 $490 $130 #
coedge $-1 $329 $329 $330 $491 reversed $205 $-1 #
coedge $-1 $330 $330 $329 $491 forward $207 $-1 #
coedge $-1 $331 $331 $208 $332 forward $326 $-1 #
edge $-1 $492 -1.1988828466175413e-015 $492 6.2831853071795996 $331 $493 forward 7 unknown #
loop $-1 $-1 $338 $209 #
plane-surface $-1 -25.36548619250495 -16.262078905118081 27.036797968088351 0 0.54463904215088732 0.83867056331134215 1 0 0 forward_v I I I I #
loop $-1 $-1 $494 $133 #
coedge $-1 $336 $336 $337 $495 reversed $210 $-1 #
coedge $-1 $337 $337 $336 $495 forward $212 $-1 #
coedge $-1 $338 $338 $213 $339 forward $333 $-1 #
edge $-1 $496 -1.1988828466175413e-015 $496 6.2831853071795996 $338 $497 forward 7 unknown #
face $-1 $498 $499 $51 $-1 $500 reversed single #
loop $-1 $-1 $501 $214 #
plane-surface $-1 -41.818903164769431 0 0 1 0 0 0 0 -1 forward_v I I I I #
coedge $-1 $502 $351 $503 $504 forward $215 $-1 #
coedge $-1 $505 $217 $502 $506 forward $137 $-1 #
coedge $-1 $217 $505 $507 $508 forward $137 $-1 #
coedge $-1 $354 $353 $217 $347 reversed $355 $-1 #
edge $-1 $509 -24.008698521235573 $510 24.008698521235573 $346 $511 forward 7 unknown #
coedge $-1 $219 $218 $512 $513 forward $86 $-1 #
coedge $-1 $514 $515 $218 $350 reversed $499 $-1 #
edge $-1 $357 -41.818903164769431 $516 41.818903164769431 $349 $517 forward 7 unknown #
coedge $-1 $343 $518 $219 $352 reversed $215 $-1 #
edge $-1 $519 -41.818903164769431 $356 41.818903164769431 $351 $520 forward 7 unknown #
coedge $-1 $346 $220 $518 $521 forward $355 $-1 #
coedge $-1 $220 $346 $514 $522 reversed $355 $-1 #
loop $-1 $-1 $353 $498 #
vertex $-1 $221 $523 #
vertex $-1 $221 $524 #
straight-curve $-1 41.818903164769431 0 6.8660027232563925 0 1 0 I I #
face $-1 $525 $526 $52 $-1 $527 forward single #
loop $-1 $-1 $528 $222 #
plane-surface $-1 0 0 -6.8660027232563925 0 0 1 1 0 0 forward_v I I I I #
coedge $-1 $529 $530 $367 $531 forward $223 $-1 #
coedge $-1 $532 $225 $528 $533 reversed $141 $-1 #
coedge $-1 $225 $532 $534 $535 reversed $141 $-1 #
coedge $-1 $530 $529 $225 $366 reversed $223 $-1 #
edge $-1 $536 -6.8660027232563925 $537 6.8660027232563925 $365 $538 forward 7 unknown #
coedge $-1 $227 $226 $362 $531 reversed $89 $-1 #
coedge $-1 $539 $540 $226 $369 forward $360 $-1 #
edge $-1 $541 15.117697396721173 $375 22.840036310939229 $368 $542 forward 7 unknown #
coedge $-1 $543 $544 $227 $371 forward $526 $-1 #
edge $-1 $376 -22.840036310939229 $545 -15.117697396721173 $370 $546 forward 7 unknown #
coedge $-1 $547 $228 $544 $548 reversed $374 $-1 #
coedge $-1 $228 $547 $539 $549 reversed $374 $-1 #
loop $-1 $-1 $547 $525 #
vertex $-1 $549 $550 #
vertex $-1 $229 $551 #
straight-curve $-1 -41.818903164769431 -19.515058129190059 0 0 0 1 I I #
face $-1 $-1 $390 $53 $-1 $552 forward single #
loop $-1 $-1 $553 $230 #
plane-surface $-1 0 -24.008698521235573 0 0 1 0 0 0 1 forward_v I I I I #
coedge $-1 $554 $555 $556 $557 reversed $231 $-1 #
coedge $-1 $558 $233 $235 $388 forward $145 $-1 #
coedge $-1 $233 $558 $554 $559 forward $145 $-1 #
coedge $-1 $556 $236 $233 $385 forward $390 $-1 #
edge $-1 $392 6.4808627760119393 $560 18.025495435613756 $384 $561 forward 7 unknown #
coedge $-1 $562 $563 $234 $387 forward $379 $-1 #
edge $-1 $564 -20.395332950075392 $391 -14.557566370902389 $386 $565 forward 7 unknown #
edge $-1 $392 -6.7408721516963963 $564 -2.8450313176714033e-014 $235 $566 forward 7 unknown #
coedge $-1 $236 $556 $562 $567 forward $390 $-1 #
loop $-1 $-1 $556 $378 #
vertex $-1 $387 $568 #
vertex $-1 $237 $569 #
straight-curve $-1 -18.734041881824787 -48.220582083180233 6.8660027232563934 0 1 0 I I #
coedge $-1 $394 $394 $-1 $570 reversed $240 $-1 #
edge $-1 $571 0 $571 6.2831853071796004 $241 $572 forward 7 unknown #
vertex $-1 $244 $573 #
ellipse-curve $-1 -26.980208067254658 -22.32348052846681 3.9471194336698834 0 -0.86602541151947299 0.49999998660252726 1.5 0 0 1 I I #
coedge $-1 $398 $398 $-1 $574 reversed $247 $-1 #
edge $-1 $575 0 $575 6.2831853071796004 $248 $576 forward 7 unknown #
vertex $-1 $251 $577 #
ellipse-curve $-1 -22.032508355996736 -22.32348052846681 3.9471194336698834 0 -0.86602541151947299 0.49999998660252726 1.5 0 0 1 I I #
face $-1 $-1 $414 $56 $-1 $578 forward single #
loop $-1 $-1 $579 $252 #
plane-surface $-1 0 -24.008698521235573 0 0 1 0 0 0 1 forward_v I I I I #
coedge $-1 $580 $581 $582 $583 reversed $253 $-1 #
coedge $-1 $584 $255 $257 $412 forward $159 $-1 #
coedge $-1 $255 $584 $580 $585 forward $159 $-1 #
coedge $-1 $582 $258 $255 $409 forward $414 $-1 #
edge $-1 $416 -3.008570650903164 $586 8.5360620086986536 $408 $587 forward 7 unknown #
coedge $-1 $588 $589 $256 $411 forward $403 $-1 #
edge $-1 $590 -20.395332950075392 $415 -14.557566370902389 $410 $591 forward 7 unknown #
edge $-1 $416 -6.7408721516963963 $590 -2.8450313176714033e-014 $257 $592 forward 7 unknown #
coedge $-1 $258 $582 $588 $593 forward $414 $-1 #
loop $-1 $-1 $582 $402 #
vertex $-1 $411 $594 #
vertex $-1 $259 $595 #
straight-curve $-1 0.24482497200541875 -48.220582083180233 6.8660027232563934 0 1 0 I I #
coedge $-1 $418 $418 $-1 $596 reversed $262 $-1 #
edge $-1 $597 0 $597 6.2831853071796004 $263 $598 forward 7 unknown #
vertex $-1 $266 $599 #
ellipse-curve $-1 -8.0013412134244604 -22.32348052846681 3.9471194336698834 0 -0.86602541151947299 0.49999998660252726 1.5 0 0 1 I I #
coedge $-1 $422 $422 $-1 $600 reversed $269 $-1 #
edge $-1 $601 0 $601 6.2831853071796004 $270 $602 forward 7 unknown #
vertex $-1 $273 $603 #
ellipse-curve $-1 -3.0536415021665348 -22.32348052846681 3.9471194336698834 0 -0.86602541151947299 0.49999998660252726 1.5 0 0 1 I I #
face $-1 $-1 $438 $59 $-1 $604 forward single #
loop $-1 $-1 $605 $274 #
plane-surface $-1 0 -24.008698521235573 0 0 1 0 0 0 1 forward_v I I I I #
coedge $-1 $606 $607 $608 $609 reversed $275 $-1 #
coedge $-1 $610 $277 $279 $436 forward $173 $-1 #
coedge $-1 $277 $610 $606 $611 forward $173 $-1 #
coedge $-1 $608 $280 $277 $433 forward $438 $-1 #
edge $-1 $440 -12.498004077818262 $612 -0.95337141821644433 $432 $613 forward 7 unknown #
coedge $-1 $614 $615 $278 $435 forward $427 $-1 #
edge $-1 $616 -20.395332950075392 $439 -14.557566370902389 $434 $617 forward 7 unknown #
edge $-1 $440 -6.7408721516963963 $616 -2.8450313176714033e-014 $279 $618 forward 7 unknown #
coedge $-1 $280 $608 $614 $619 forward $438 $-1 #
loop $-1 $-1 $608 $426 #
vertex $-1 $435 $620 #
vertex $-1 $281 $621 #
straight-curve $-1 19.223691825835616 -48.220582083180233 6.8660027232563934 0 1 0 I I #
coedge $-1 $442 $442 $-1 $622 reversed $284 $-1 #
edge $-1 $623 0 $623 6.2831853071796004 $285 $624 forward 7 unknown #
vertex $-1 $288 $625 #
ellipse-curve $-1 10.977525640405737 -22.32348052846681 3.9471194336698834 0 -0.86602541151947299 0.49999998660252726 1.5 0 0 1 I I #
coedge $-1 $446 $446 $-1 $626 reversed $291 $-1 #
edge $-1 $627 0 $627 6.2831853071796004 $292 $628 forward 7 unknown #
vertex $-1 $295 $629 #
ellipse-curve $-1 15.925225351663663 -22.32348052846681 3.9471194336698834 0 -0.86602541151947299 0.49999998660252726 1.5 0 0 1 I I #
face $-1 $-1 $462 $62 $-1 $630 forward single #
loop $-1 $-1 $631 $296 #
plane-surface $-1 0 -24.008698521235573 0 0 1 0 0 0 1 forward_v I I I I #
coedge $-1 $632 $633 $634 $635 reversed $297 $-1 #
coedge $-1 $636 $299 $301 $460 forward $187 $-1 #
coedge $-1 $299 $636 $632 $637 forward $187 $-1 #
coedge $-1 $634 $302 $299 $457 forward $462 $-1 #
edge $-1 $464 -21.987437504733361 $638 -10.442804845131544 $456 $639 forward 7 unknown #
coedge $-1 $640 $641 $300 $459 forward $451 $-1 #
edge $-1 $642 -20.395332950075392 $463 -14.557566370902389 $458 $643 forward 7 unknown #
edge $-1 $464 -6.7408721516963963 $642 -2.8450313176714033e-014 $301 $644 forward 7 unknown #
coedge $-1 $302 $634 $640 $645 forward $462 $-1 #
loop $-1 $-1 $634 $450 #
vertex $-1 $459 $646 #
vertex $-1 $303 $647 #
straight-curve $-1 38.202558679665813 -48.220582083180233 6.8660027232563934 0 1 0 I I #
coedge $-1 $466 $466 $-1 $648 reversed $306 $-1 #
edge $-1 $649 0 $649 6.2831853071796004 $307 $650 forward 7 unknown #
vertex $-1 $310 $651 #
ellipse-curve $-1 29.956392494235935 -22.32348052846681 3.9471194336698834 0 -0.86602541151947299 0.49999998660252726 1.5 0 0 1 I I #
coedge $-1 $470 $470 $-1 $652 reversed $313 $-1 #
edge $-1 $653 0 $653 6.2831853071796004 $314 $654 forward 7 unknown #
vertex $-1 $317 $655 #
ellipse-curve $-1 34.90409220549386 -22.32348052846681 3.9471194336698834 0 -0.86602541151947299 0.49999998660252726 1.5 0 0 1 I I #
face $-1 $-1 $486 $65 $-1 $656 forward single #
loop $-1 $-1 $657 $318 #
plane-surface $-1 0 24.008698521235573 0 0 -1 0 0 0 -1 forward_v I I I I #
coedge $-1 $658 $659 $660 $661 reversed $319 $-1 #
coedge $-1 $662 $321 $323 $484 forward $201 $-1 #
coedge $-1 $321 $662 $658 $663 forward $201 $-1 #
coedge $-1 $660 $324 $321 $481 forward $486 $-1 #
edge $-1 $488 -21.413821154298901 $664 -3.9516650382060501 $480 $665 forward 7 unknown #
coedge $-1 $666 $667 $322 $483 forward $475 $-1 #
edge $-1 $668 -47.706033222005807 $487 -41.724679335047426 $482 $669 forward 7 unknown #
edge $-1 $488 37.035162160196037 $668 48.017397042471153 $323 $670 forward 7 unknown #
coedge $-1 $324 $660 $666 $671 forward $486 $-1 #
loop $-1 $-1 $660 $474 #
vertex $-1 $483 $672 #
vertex $-1 $325 $673 #
straight-curve $-1 -34.096564250551374 14.645167910901694 6.8660027232563934 0 -1 0 I I #
coedge $-1 $490 $490 $-1 $674 reversed $328 $-1 #
edge $-1 $675 0 $675 6.2831853071796004 $329 $676 forward 7 unknown #
vertex $-1 $332 $677 #
ellipse-curve $-1 -29.107376788810562 19.403459963668002 3.8753257797772056 0 0.54463904215088732 0.83867056331134215 1 0 0 1 I I #
coedge $-1 $494 $494 $-1 $678 reversed $335 $-1 #
edge $-1 $679 0 $679 6.2831853071796004 $336 $680 forward 7 unknown #
vertex $-1 $339 $681 #
ellipse-curve $-1 -21.62359559619934 19.403459963668002 3.8753257797772056 0 0.54463904215088732 0.83867056331134215 1 0 0 1 I I #
face $-1 $-1 $355 $51 $-1 $682 reversed single #
loop $-1 $-1 $514 $340 #
plane-surface $-1 0 24.008698521235573 0 0 -1 0 0 0 -1 forward_v I I I I #
coedge $-1 $683 $512 $515 $684 forward $341 $-1 #
coedge $-1 $518 $343 $344 $506 reversed $215 $-1 #
coedge $-1 $512 $683 $343 $504 reversed $341 $-1 #
edge $-1 $519 -6.8660027232563925 $685 6.8660027232563925 $503 $686 forward 7 unknown #
coedge $-1 $345 $344 $683 $687 forward $137 $-1 #
edge $-1 $510 -41.818903164769431 $685 41.818903164769431 $502 $688 forward 7 unknown #
coedge $-1 $515 $514 $345 $508 reversed $499 $-1 #
edge $-1 $689 -41.818903164769431 $509 41.818903164769431 $507 $690 forward 7 unknown #
vertex $-1 $347 $691 #
vertex $-1 $521 $692 #
straight-curve $-1 41.818903164769431 0 -6.8660027232563925 0 -1 0 I I #
coedge $-1 $501 $503 $348 $513 reversed $341 $-1 #
edge $-1 $516 -24.008698521235573 $519 24.008698521235573 $512 $693 forward 7 unknown #
coedge $-1 $507 $349 $354 $522 forward $499 $-1 #
coedge $-1 $349 $507 $501 $684 reversed $499 $-1 #
vertex $-1 $350 $694 #
straight-curve $-1 0 24.008698521235573 6.8660027232563925 -1 0 0 I I #
coedge $-1 $351 $502 $353 $521 reversed $215 $-1 #
vertex $-1 $513 $695 #
straight-curve $-1 0 -24.008698521235573 6.8660027232563925 1 0 0 I I #
edge $-1 $356 -6.8660027232563925 $510 6.8660027232563925 $353 $696 forward 7 unknown #
edge $-1 $357 -6.8660027232563925 $509 6.8660027232563925 $354 $697 forward 7 unknown #
point $-1 41.818903164769431 -24.008698521235573 6.8660027232563925 #
point $-1 41.818903164769431 24.008698521235573 6.8660027232563925 #
face $-1 $-1 $374 $52 $-1 $698 reversed single #
loop $-1 $-1 $534 $359 #
plane-surface $-1 0 0 6.8660027232563925 0 0 1 1 0 0 forward_v I I I I #
coedge $-1 $540 $539 $363 $533 forward $360 $-1 #
coedge $-1 $365 $362 $540 $699 reversed $223 $-1 #
coedge $-1 $362 $365 $543 $700 reversed $223 $-1 #
edge $-1 $545 -6.8660027232563925 $541 6.8660027232563925 $362 $701 forward 7 unknown #
coedge $-1 $364 $363 $547 $702 reversed $141 $-1 #
edge $-1 $703 -22.840036310939229 $537 -15.117697396721173 $528 $704 forward 7 unknown #
coedge $-1 $544 $543 $364 $535 forward $526 $-1 #
edge $-1 $536 15.117697396721173 $705 22.840036310939229 $534 $706 forward 7 unknown #
vertex $-1 $535 $707 #
vertex $-1 $533 $708 #
straight-curve $-1 -34.096564250551374 -16.515058129190059 0 0 0 -1 I I #
coedge $-1 $528 $368 $373 $549 forward $360 $-1 #
coedge $-1 $368 $528 $529 $699 forward $360 $-1 #
vertex $-1 $369 $709 #
straight-curve $-1 -18.978866853830201 -19.515058129190059 -6.8660027232563925 -1 0 0 I I #
coedge $-1 $534 $370 $530 $700 forward $526 $-1 #
coedge $-1 $370 $534 $372 $548 forward $526 $-1 #
vertex $-1 $371 $710 #
straight-curve $-1 -18.978866853830201 -19.515058129190059 6.8660027232563925 1 0 0 I I #
coedge $-1 $373 $372 $532 $702 forward $374 $-1 #
edge $-1 $705 16.515058129190059 $376 19.515058129190059 $372 $711 forward 7 unknown #
edge $-1 $375 -19.515058129190059 $703 -16.515058129190059 $373 $712 forward 7 unknown #
point $-1 -41.818903164769431 -19.515058129190059 -6.8660027232563925 #
point $-1 -41.818903164769431 -19.515058129190059 6.8660027232563925 #
plane-surface $-1 0 0 6.8660027232563925 0 0 1 1 0 0 forward_v I I I I #
coedge $-1 $563 $562 $555 $713 forward $379 $-1 #
coedge $-1 $555 $381 $383 $559 reversed $231 $-1 #
coedge $-1 $381 $554 $553 $713 reversed $231 $-1 #
coedge $-1 $389 $384 $381 $557 forward $390 $-1 #
edge $-1 $560 -27.582319547482193 $714 -24.21188356194466 $556 $715 forward 7 unknown #
coedge $-1 $383 $382 $563 $716 reversed $145 $-1 #
edge $-1 $717 2.8450313176714033e-014 $560 6.7408721516963963 $554 $718 forward 7 unknown #
vertex $-1 $385 $719 #
straight-curve $-1 -12.253179105812848 -20.63826253569804 6.8660027232563925 -1 0 0 I I #
coedge $-1 $553 $386 $389 $567 reversed $379 $-1 #
coedge $-1 $386 $553 $558 $716 forward $379 $-1 #
vertex $-1 $387 $720 #
straight-curve $-1 -18.734041881824787 -24.008698521235573 21.423569094158783 0 0 1 I I #
straight-curve $-1 -18.734041881824787 -24.008698521235587 1.0282361440833654 0 -0.49999998660252726 -0.86602541151947299 I I #
edge $-1 $714 -30.278674541426604 $391 -18.734041881824787 $562 $721 forward 7 unknown #
point $-1 -18.734041881824787 -24.008698521235573 6.8660027232563925 #
point $-1 -18.734041881824787 -20.63826253569804 6.8660027232563925 #
edge $-1 $722 1 $722 0 $394 $-1 forward 7 unknown #
vertex $-1 $395 $723 #
ellipse-curve $-1 -26.980208067254658 -19.060245398321033 2.0630898201611378 0 -0.86602541151947299 0.49999998660252726 1.5 0 0 1 I I #
point $-1 -25.480208067254658 -22.323480528466799 3.9471194336698772 #
edge $-1 $724 1 $724 0 $398 $-1 forward 7 unknown #
vertex $-1 $399 $725 #
ellipse-curve $-1 -22.032508355996736 -19.060245398321033 2.0630898201611378 0 -0.86602541151947299 0.49999998660252726 1.5 0 0 1 I I #
point $-1 -20.532508355996736 -22.323480528466799 3.9471194336698772 #
plane-surface $-1 0 0 6.8660027232563925 0 0 1 1 0 0 forward_v I I I I #
coedge $-1 $589 $588 $581 $726 forward $403 $-1 #
coedge $-1 $581 $405 $407 $585 reversed $253 $-1 #
coedge $-1 $405 $580 $579 $726 reversed $253 $-1 #
coedge $-1 $413 $408 $405 $583 forward $414 $-1 #
edge $-1 $586 -27.582319547482193 $727 -24.21188356194466 $582 $728 forward 7 unknown #
coedge $-1 $407 $406 $589 $729 reversed $159 $-1 #
edge $-1 $730 2.8450313176714033e-014 $586 6.7408721516963963 $580 $731 forward 7 unknown #
vertex $-1 $409 $732 #
straight-curve $-1 -2.7637456788977453 -20.63826253569804 6.8660027232563925 -1 0 0 I I #
coedge $-1 $579 $410 $413 $593 reversed $403 $-1 #
coedge $-1 $410 $579 $584 $729 forward $403 $-1 #
vertex $-1 $411 $733 #
straight-curve $-1 0.24482497200541875 -24.008698521235573 21.423569094158783 0 0 1 I I #
straight-curve $-1 0.24482497200541875 -24.008698521235587 1.0282361440833654 0 -0.49999998660252726 -0.86602541151947299 I I #
edge $-1 $727 -11.299807687596399 $415 0.24482497200541875 $588 $734 forward 7 unknown #
point $-1 0.24482497200541875 -24.008698521235573 6.8660027232563925 #
point $-1 0.24482497200541875 -20.63826253569804 6.8660027232563925 #
edge $-1 $735 1 $735 0 $418 $-1 forward 7 unknown #
vertex $-1 $419 $736 #
ellipse-curve $-1 -8.0013412134244604 -19.060245398321033 2.0630898201611378 0 -0.86602541151947299 0.49999998660252726 1.5 0 0 1 I I #
point $-1 -6.5013412134244604 -22.323480528466799 3.9471194336698772 #
edge $-1 $737 1 $737 0 $422 $-1 forward 7 unknown #
vertex $-1 $423 $738 #
ellipse-curve $-1 -3.0536415021665348 -19.060245398321033 2.0630898201611378 0 -0.86602541151947299 0.49999998660252726 1.5 0 0 1 I I #
point $-1 -1.5536415021665348 -22.323480528466799 3.9471194336698772 #
plane-surface $-1 0 0 6.8660027232563925 0 0 1 1 0 0 forward_v I I I I #
coedge $-1 $615 $614 $607 $739 forward $427 $-1 #
coedge $-1 $607 $429 $431 $611 reversed $275 $-1 #
coedge $-1 $429 $606 $605 $739 reversed $275 $-1 #
coedge $-1 $437 $432 $429 $609 forward $438 $-1 #
edge $-1 $612 -27.582319547482193 $740 -24.21188356194466 $608 $741 forward 7 unknown #
coedge $-1 $431 $430 $615 $742 reversed $173 $-1 #
edge $-1 $743 2.8450313176714033e-014 $612 6.7408721516963963 $606 $744 forward 7 unknown #
vertex $-1 $433 $745 #
straight-curve $-1 6.7256877480173536 -20.63826253569804 6.8660027232563925 -1 0 0 I I #
coedge $-1 $605 $434 $437 $619 reversed $427 $-1 #
coedge $-1 $434 $605 $610 $742 forward $427 $-1 #
vertex $-1 $435 $746 #
straight-curve $-1 19.223691825835616 -24.008698521235573 21.423569094158783 0 0 1 I I #
straight-curve $-1 19.223691825835616 -24.008698521235587 1.0282361440833654 0 -0.49999998660252726 -0.86602541151947299 I I #
edge $-1 $740 7.6790591662337979 $439 19.223691825835616 $614 $747 forward 7 unknown #
point $-1 19.223691825835616 -24.008698521235573 6.8660027232563925 #
point $-1 19.223691825835616 -20.63826253569804 6.8660027232563925 #
edge $-1 $748 1 $748 0 $442 $-1 forward 7 unknown #
vertex $-1 $443 $749 #
ellipse-curve $-1 10.977525640405737 -19.060245398321033 2.0630898201611378 0 -0.86602541151947299 0.49999998660252726 1.5 0 0 1 I I #
point $-1 12.477525640405737 -22.323480528466799 3.9471194336698772 #
edge $-1 $750 1 $750 0 $446 $-1 forward 7 unknown #
vertex $-1 $447 $751 #
ellipse-curve $-1 15.925225351663663 -19.060245398321033 2.0630898201611378 0 -0.86602541151947299 0.49999998660252726 1.5 0 0 1 I I #
point $-1 17.425225351663663 -22.323480528466799 3.9471194336698772 #
plane-surface $-1 0 0 6.8660027232563925 0 0 1 1 0 0 forward_v I I I I #
coedge $-1 $641 $640 $633 $752 forward $451 $-1 #
coedge $-1 $633 $453 $455 $637 reversed $297 $-1 #
coedge $-1 $453 $632 $631 $752 reversed $297 $-1 #
coedge $-1 $461 $456 $453 $635 forward $462 $-1 #
edge $-1 $638 -27.582319547482193 $753 -24.21188356194466 $634 $754 forward 7 unknown #
coedge $-1 $455 $454 $641 $755 reversed $187 $-1 #
edge $-1 $756 2.8450313176714033e-014 $638 6.7408721516963963 $632 $757 forward 7 unknown #
vertex $-1 $457 $758 #
straight-curve $-1 16.215121174932452 -20.63826253569804 6.8660027232563925 -1 0 0 I I #
coedge $-1 $631 $458 $461 $645 reversed $451 $-1 #
coedge $-1 $458 $631 $636 $755 forward $451 $-1 #
vertex $-1 $459 $759 #
straight-curve $-1 38.202558679665813 -24.008698521235573 21.423569094158783 0 0 1 I I #
straight-curve $-1 38.202558679665813 -24.008698521235587 1.0282361440833654 0 -0.49999998660252726 -0.86602541151947299 I I #
edge $-1 $753 26.657926020063996 $463 38.202558679665813 $640 $760 forward 7 unknown #
point $-1 38.202558679665813 -24.008698521235573 6.8660027232563925 #
point $-1 38.202558679665813 -20.63826253569804 6.8660027232563925 #
edge $-1 $761 1 $761 0 $466 $-1 forward 7 unknown #
vertex $-1 $467 $762 #
ellipse-curve $-1 29.956392494235935 -19.060245398321033 2.0630898201611378 0 -0.86602541151947299 0.49999998660252726 1.5 0 0 1 I I #
point $-1 31.456392494235935 -22.323480528466799 3.9471194336698772 #
edge $-1 $763 1 $763 0 $470 $-1 forward 7 unknown #
vertex $-1 $471 $764 #
ellipse-curve $-1 34.90409220549386 -19.060245398321033 2.0630898201611378 0 -0.86602541151947299 0.49999998660252726 1.5 0 0 1 I I #
point $-1 36.40409220549386 -22.323480528466799 3.9471194336698772 #
plane-surface $-1 0 0 6.8660027232563925 0 0 1 1 0 0 forward_v I I I I #
coedge $-1 $667 $666 $659 $765 forward $475 $-1 #
coedge $-1 $659 $477 $479 $663 reversed $319 $-1 #
coedge $-1 $477 $658 $657 $765 reversed $319 $-1 #
coedge $-1 $485 $480 $477 $661 forward $486 $-1 #
edge $-1 $664 0.15305349519874056 $766 9.3635306103338785 $660 $767 forward 7 unknown #
coedge $-1 $479 $478 $667 $768 reversed $201 $-1 #
edge $-1 $769 -48.017397042471153 $664 -37.035162160196037 $658 $770 forward 7 unknown #
vertex $-1 $481 $771 #
straight-curve $-1 -12.682743096252475 14.798221406100435 6.8660027232563934 1 0 0 I I #
coedge $-1 $657 $482 $485 $671 reversed $475 $-1 #
coedge $-1 $482 $657 $662 $768 forward $475 $-1 #
vertex $-1 $483 $772 #
straight-curve $-1 -34.096564250551374 24.008698521235573 48.59068205830382 0 0 1 I I #
straight-curve $-1 -34.096564250551374 -16.262078905118081 27.036797968088351 0 0.83867056331134215 -0.54463904215088732 I I #
edge $-1 $766 16.634408134458525 $487 34.096564250551374 $666 $773 forward 7 unknown #
point $-1 -34.096564250551374 24.008698521235573 6.8660027232563925 #
point $-1 -34.096564250551374 14.798221406100435 6.8660027232563934 #
edge $-1 $774 1 $774 0 $490 $-1 forward 7 unknown #
vertex $-1 $491 $775 #
ellipse-curve $-1 -29.107376788810562 18.411185372209403 2.3473569303689303 0 0.54463904215088732 0.83867056331134215 1 0 0 1 I I #
point $-1 -28.107376788810562 19.403459963667991 3.8753257797771914 #
edge $-1 $776 1 $776 0 $494 $-1 forward 7 unknown #
vertex $-1 $495 $777 #
ellipse-curve $-1 -21.62359559619934 18.411185372209403 2.3473569303689303 0 0.54463904215088732 0.83867056331134215 1 0 0 1 I I #
point $-1 -20.62359559619934 19.403459963667991 3.8753257797771914 #
plane-surface $-1 41.818903164769431 0 0 -1 0 0 0 0 1 forward_v I I I I #
coedge $-1 $503 $501 $505 $687 reversed $341 $-1 #
edge $-1 $516 -6.8660027232563925 $689 6.8660027232563925 $515 $778 forward 7 unknown #
vertex $-1 $687 $779 #
straight-curve $-1 -41.818903164769431 -24.008698521235573 0 0 0 -1 I I #
edge $-1 $685 -24.008698521235573 $689 24.008698521235573 $683 $780 forward 7 unknown #
straight-curve $-1 0 -24.008698521235573 -6.8660027232563925 -1 0 0 I I #
vertex $-1 $508 $781 #
straight-curve $-1 0 24.008698521235573 -6.8660027232563925 1 0 0 I I #
point $-1 41.818903164769431 24.008698521235573 -6.8660027232563925 #
point $-1 41.818903164769431 -24.008698521235573 -6.8660027232563925 #
straight-curve $-1 -41.818903164769431 0 6.8660027232563925 0 -1 0 I I #
point $-1 -41.818903164769431 24.008698521235573 6.8660027232563925 #
point $-1 -41.818903164769431 -24.008698521235573 6.8660027232563925 #
straight-curve $-1 41.818903164769431 -24.008698521235573 0 0 0 -1 I I #
straight-curve $-1 41.818903164769431 24.008698521235573 0 0 0 -1 I I #
plane-surface $-1 -41.818903164769431 0 0 1 0 0 0 0 -1 forward_v I I I I #
edge $-1 $537 7.5075290645950297 $541 10.50752906459503 $540 $782 forward 7 unknown #
edge $-1 $545 -10.50752906459503 $536 -7.5075290645950297 $543 $783 forward 7 unknown #
straight-curve $-1 -34.096564250551374 -19.515058129190059 0 0 0 -1 I I #
edge $-1 $705 -6.8660027232563925 $703 6.8660027232563925 $547 $784 forward 7 unknown #
vertex $-1 $702 $785 #
straight-curve $-1 -18.978866853830201 -16.515058129190059 -6.8660027232563925 1 0 0 I I #
vertex $-1 $548 $786 #
straight-curve $-1 -18.978866853830201 -16.515058129190059 6.8660027232563925 -1 0 0 I I #
point $-1 -34.096564250551374 -16.515058129190059 6.8660027232563925 #
point $-1 -34.096564250551374 -16.515058129190059 -6.8660027232563925 #
point $-1 -34.096564250551374 -19.515058129190059 -6.8660027232563925 #
point $-1 -34.096564250551374 -19.515058129190059 6.8660027232563925 #
straight-curve $-1 -41.818903164769431 0 6.8660027232563925 0 -1 0 I I #
straight-curve $-1 -41.818903164769431 0 -6.8660027232563925 0 1 0 I I #
edge $-1 $714 14.557566370902389 $717 20.395332950075392 $553 $787 forward 7 unknown #
vertex $-1 $567 $788 #
straight-curve $-1 -30.278674541426604 -48.220582083180233 6.8660027232563934 0 -1 0 I I #
edge $-1 $717 -18.025495435613756 $564 -6.4808627760119393 $563 $789 forward 7 unknown #
vertex $-1 $716 $790 #
straight-curve $-1 -30.278674541426604 -24.008698521235587 1.0282361440833654 0 0.49999998660252726 0.86602541151947299 I I #
point $-1 -30.278674541426604 -20.63826253569804 6.8660027232563925 #
point $-1 -18.734041881824787 -24.008698521235573 1.02823614408339 #
straight-curve $-1 0 -24.008698521235573 6.8660027232563925 1 0 0 I I #
vertex $-1 $570 $791 #
point $-1 -25.480208067254658 -19.060245398321033 2.0630898201611378 #
vertex $-1 $574 $792 #
point $-1 -20.532508355996736 -19.060245398321033 2.0630898201611378 #
edge $-1 $727 14.557566370902389 $730 20.395332950075392 $579 $793 forward 7 unknown #
vertex $-1 $593 $794 #
straight-curve $-1 -11.299807687596399 -48.220582083180233 6.8660027232563934 0 -1 0 I I #
edge $-1 $730 -8.5360620086986536 $590 3.008570650903164 $589 $795 forward 7 unknown #
vertex $-1 $729 $796 #
straight-curve $-1 -11.299807687596399 -24.008698521235587 1.0282361440833654 0 0.49999998660252726 0.86602541151947299 I I #
point $-1 -11.299807687596399 -20.63826253569804 6.8660027232563925 #
point $-1 0.24482497200541875 -24.008698521235573 1.02823614408339 #
straight-curve $-1 0 -24.008698521235573 6.8660027232563925 1 0 0 I I #
vertex $-1 $596 $797 #
point $-1 -6.5013412134244604 -19.060245398321033 2.0630898201611378 #
vertex $-1 $600 $798 #
point $-1 -1.5536415021665348 -19.060245398321033 2.0630898201611378 #
edge $-1 $740 14.557566370902389 $743 20.395332950075392 $605 $799 forward 7 unknown #
vertex $-1 $619 $800 #
straight-curve $-1 7.6790591662337979 -48.220582083180233 6.8660027232563934 0 -1 0 I I #
edge $-1 $743 0.95337141821644433 $616 12.498004077818262 $615 $801 forward 7 unknown #
vertex $-1 $742 $802 #
straight-curve $-1 7.6790591662337979 -24.008698521235587 1.0282361440833654 0 0.49999998660252726 0.86602541151947299 I I #
point $-1 7.6790591662337979 -20.63826253569804 6.8660027232563925 #
point $-1 19.223691825835616 -24.008698521235573 1.02823614408339 #
straight-curve $-1 0 -24.008698521235573 6.8660027232563925 1 0 0 I I #
vertex $-1 $622 $803 #
point $-1 12.477525640405737 -19.060245398321033 2.0630898201611378 #
vertex $-1 $626 $804 #
point $-1 17.425225351663663 -19.060245398321033 2.0630898201611378 #
edge $-1 $753 14.557566370902389 $756 20.395332950075392 $631 $805 forward 7 unknown #
vertex $-1 $645 $806 #
straight-curve $-1 26.657926020063996 -48.220582083180233 6.8660027232563934 0 -1 0 I I #
edge $-1 $756 10.442804845131544 $642 21.987437504733361 $641 $807 forward 7 unknown #
vertex $-1 $755 $808 #
straight-curve $-1 26.657926020063996 -24.008698521235587 1.0282361440833654 0 0.49999998660252726 0.86602541151947299 I I #
point $-1 26.657926020063996 -20.63826253569804 6.8660027232563925 #
point $-1 38.202558679665813 -24.008698521235573 1.02823614408339 #
straight-curve $-1 0 -24.008698521235573 6.8660027232563925 1 0 0 I I #
vertex $-1 $648 $809 #
point $-1 31.456392494235935 -19.060245398321033 2.0630898201611378 #
vertex $-1 $652 $810 #
point $-1 36.40409220549386 -19.060245398321033 2.0630898201611378 #
edge $-1 $766 41.724679335047426 $769 47.706033222005807 $657 $811 forward 7 unknown #
vertex $-1 $671 $812 #
straight-curve $-1 -16.634408134458525 14.645167910901694 6.8660027232563934 0 1 0 I I #
edge $-1 $769 3.9516650382060501 $668 21.413821154298901 $667 $813 forward 7 unknown #
vertex $-1 $768 $814 #
straight-curve $-1 -16.634408134458525 -16.262078905118081 27.036797968088351 0 -0.83867056331134215 0.54463904215088732 I I #
point $-1 -16.634408134458525 14.798221406100435 6.8660027232563934 #
point $-1 -34.096564250551374 24.008698521235573 0.8846488362980125 #
straight-curve $-1 0 24.008698521235573 6.8660027232563925 -1 0 0 I I #
vertex $-1 $674 $815 #
point $-1 -28.107376788810562 18.411185372209403 2.3473569303689303 #
vertex $-1 $678 $816 #
point $-1 -20.62359559619934 18.411185372209403 2.3473569303689303 #
straight-curve $-1 -41.818903164769431 24.008698521235573 0 0 0 -1 I I #
point $-1 -41.818903164769431 -24.008698521235573 -6.8660027232563925 #
straight-curve $-1 -41.818903164769431 0 -6.8660027232563925 0 1 0 I I #
point $-1 -41.818903164769431 24.008698521235573 -6.8660027232563925 #
straight-curve $-1 -34.096564250551374 -9.0075290645950297 -6.8660027232563925 0 -1 0 I I #
straight-curve $-1 -34.096564250551374 -9.0075290645950297 6.8660027232563925 0 1 0 I I #
straight-curve $-1 -41.818903164769431 -16.515058129190059 0 0 0 -1 I I #
point $-1 -41.818903164769431 -16.515058129190059 -6.8660027232563925 #
point $-1 -41.818903164769431 -16.515058129190059 6.8660027232563925 #
straight-curve $-1 -30.278674541426604 -24.008698521235573 21.423569094158783 0 0 -1 I I #
point $-1 -30.278674541426604 -24.008698521235573 6.8660027232563925 #
straight-curve $-1 -12.253179105812848 -24.008698521235573 1.0282361440833916 1 0 0 I I #
point $-1 -30.278674541426604 -24.008698521235573 1.02823614408339 #
point $-1 -26.980208067254658 -17.761207281041823 1.313089840257347 #
point $-1 -22.032508355996736 -17.761207281041823 1.313089840257347 #
straight-curve $-1 -11.299807687596399 -24.008698521235573 21.423569094158783 0 0 -1 I I #
point $-1 -11.299807687596399 -24.008698521235573 6.8660027232563925 #
straight-curve $-1 -2.7637456788977453 -24.008698521235573 1.0282361440833916 1 0 0 I I #
point $-1 -11.299807687596399 -24.008698521235573 1.02823614408339 #
point $-1 -8.0013412134244604 -17.761207281041823 1.313089840257347 #
point $-1 -3.0536415021665348 -17.761207281041823 1.313089840257347 #
straight-curve $-1 7.6790591662337979 -24.008698521235573 21.423569094158783 0 0 -1 I I #
point $-1 7.6790591662337979 -24.008698521235573 6.8660027232563925 #
straight-curve $-1 6.7256877480173536 -24.008698521235573 1.0282361440833916 1 0 0 I I #
point $-1 7.6790591662337979 -24.008698521235573 1.02823614408339 #
point $-1 10.977525640405737 -17.761207281041823 1.313089840257347 #
point $-1 15.925225351663663 -17.761207281041823 1.313089840257347 #
straight-curve $-1 26.657926020063996 -24.008698521235573 21.423569094158783 0 0 -1 I I #
point $-1 26.657926020063996 -24.008698521235573 6.8660027232563925 #
straight-curve $-1 16.215121174932452 -24.008698521235573 1.0282361440833916 1 0 0 I I #
point $-1 26.657926020063996 -24.008698521235573 1.02823614408339 #
point $-1 29.956392494235935 -17.761207281041823 1.313089840257347 #
point $-1 34.90409220549386 -17.761207281041823 1.313089840257347 #
straight-curve $-1 -16.634408134458525 24.008698521235573 48.59068205830382 0 0 -1 I I #
point $-1 -16.634408134458525 24.008698521235573 6.8660027232563925 #
straight-curve $-1 -12.682743096252475 24.008698521235573 0.88464883629801072 -1 0 0 I I #
point $-1 -16.634408134458525 24.008698521235573 0.8846488362980125 #
point $-1 -29.107376788810562 17.866546330058512 1.5086863670575883 #
point $-1 -21.62359559619934 17.866546330058512 1.5086863670575883 #
End-of-ACIS-data 