500 0 8 0           
7 Unknown 11 ACIS 5.0 NT 24 Fri Mar 26 01:05:39 1999 
-1 9.9999999999999995e-007 1e-010 
body $-1 $8 $-1 $9 #
body $-1 $10 $-1 $11 #
body $-1 $12 $-1 $13 #
body $-1 $14 $-1 $15 #
body $-1 $16 $-1 $17 #
body $-1 $18 $-1 $19 #
body $-1 $20 $-1 $21 #
body $-1 $22 $-1 $23 #
lump $-1 $-1 $24 $0 #
transform $-1 1 0 0 0 1 0 0 0 1 57.556688131351663 36.07292136820206 17.860758354001693 1 rotate no_reflect no_shear #
lump $-1 $-1 $25 $1 #
transform $-1 1 0 0 0 1 0 0 0 1 57.556688131351663 36.07292136820206 17.860758354001693 1 rotate no_reflect no_shear #
lump $-1 $-1 $26 $2 #
transform $-1 1 0 0 0 1 0 0 0 1 57.556688131351663 36.07292136820206 17.860758354001693 1 rotate no_reflect no_shear #
lump $-1 $-1 $27 $3 #
transform $-1 1 0 0 0 1 0 0 0 1 57.556688131351663 36.07292136820206 17.860758354001693 1 rotate no_reflect no_shear #
lump $-1 $-1 $28 $4 #
transform $-1 1 0 0 0 1 0 0 0 1 57.556688131351663 36.07292136820206 17.860758354001693 1 rotate no_reflect no_shear #
lump $-1 $-1 $29 $5 #
transform $-1 1 0 0 0 1 0 0 0 1 57.556688131351663 36.07292136820206 17.860758354001693 1 rotate no_reflect no_shear #
lump $-1 $-1 $30 $6 #
transform $-1 1 0 0 0 1 0 0 0 1 57.556688131351663 36.07292136820206 17.860758354001693 1 rotate no_reflect no_shear #
lump $-1 $-1 $31 $7 #
transform $-1 1 0 0 0 1 0 0 0 1 57.556688131351663 36.07292136820206 17.860758354001693 1 rotate no_reflect no_shear #
shell $-1 $-1 $-1 $32 $-1 $8 #
shell $-1 $-1 $-1 $33 $-1 $10 #
shell $-1 $-1 $-1 $34 $-1 $12 #
shell $-1 $-1 $-1 $35 $-1 $14 #
shell $-1 $-1 $-1 $36 $-1 $16 #
shell $-1 $-1 $-1 $37 $-1 $18 #
shell $-1 $-1 $-1 $38 $-1 $20 #
shell $-1 $-1 $-1 $39 $-1 $22 #
face $-1 $40 $41 $24 $-1 $42 forward single #
face $-1 $43 $44 $25 $-1 $45 reversed single #
face $-1 $46 $47 $26 $-1 $48 reversed single #
face $-1 $49 $50 $27 $-1 $51 forward single #
face $-1 $52 $53 $28 $-1 $54 forward single #
face $-1 $55 $56 $29 $-1 $57 reversed single #
face $-1 $58 $59 $30 $-1 $60 forward single #
face $-1 $61 $62 $31 $-1 $63 forward single #
face $-1 $64 $65 $24 $-1 $66 reversed single #
loop $-1 $-1 $67 $32 #
plane-surface $-1 0 0 17.860758354001693 0 0 1 1 0 0 forward_v I I I I #
face $-1 $68 $69 $25 $-1 $70 reversed single #
loop $-1 $-1 $71 $33 #
plane-surface $-1 -49.531579644890044 -28.093729640478948 0 1 0 0 0 0 -1 forward_v I I I I #
face $-1 $72 $73 $26 $-1 $74 reversed single #
loop $-1 $-1 $75 $34 #
plane-surface $-1 -118.55748458933101 -8.7141027063997729 107.08998719807202 0 1 0 -0.52991927123019833 0 0.84804809178421925 forward_v I I I I #
face $-1 $76 $77 $27 $-1 $78 forward single #
loop $-1 $79 $80 $35 #
cone-surface $-1 -50.14669777586645 -5.811433129046744 12.552898433080953 0.52991927123019833 0 -0.84804809178421925 0.84804809178421925 0 0.52991927123019833 1 I I 0 1 1 forward I I I I #
face $-1 $81 $82 $28 $-1 $83 forward single #
loop $-1 $84 $85 $36 #
cone-surface $-1 -50.14669777586645 -1.457428763017198 12.552898433080953 0.52991927123019833 0 -0.84804809178421925 0.84804809178421925 0 0.52991927123019833 1 I I 0 1 1 forward I I I I #
face $-1 $86 $87 $29 $-1 $88 reversed single #
loop $-1 $-1 $89 $37 #
plane-surface $-1 68.912688205597135 19.933781199288958 164.92040787894101 0 -1 0 -0.75470958851134928 0 -0.65605901945558964 forward_v I I I I #
face $-1 $90 $91 $30 $-1 $92 forward single #
loop $-1 $93 $94 $38 #
cone-surface $-1 50.308192461053913 13.033982129553323 9.6858051909705285 -0.75470958851134928 0 -0.65605901945558964 0.32802950972779482 0 -0.37735479425567464 1 I I 0 1 0.5 forward I I I I #
face $-1 $95 $96 $31 $-1 $97 forward single #
loop $-1 $98 $99 $39 #
cone-surface $-1 50.308192461053913 17.173861571394703 9.6858051909705285 -0.75470958851134928 0 -0.65605901945558964 0.32802950972779482 0 -0.37735479425567464 1 I I 0 1 0.5 forward I I I I #
face $-1 $100 $101 $24 $-1 $102 reversed single #
loop $-1 $-1 $103 $40 #
plane-surface $-1 0 0 -17.860758354001693 0 0 1 1 0 0 forward_v I I I I #
coedge $-1 $104 $105 $106 $107 forward $41 $-1 #
face $-1 $108 $109 $25 $-1 $110 reversed single #
loop $-1 $-1 $111 $43 #
plane-surface $-1 -44.989233455388344 -20.114537912755836 0 0 -1 0 0 0 -1 forward_v I I I I #
coedge $-1 $112 $113 $114 $115 forward $44 $-1 #
face $-1 $116 $117 $26 $-1 $118 reversed single #
loop $-1 $-1 $119 $46 #
plane-surface $-1 -57.556688131351649 -3.6344309460319693 9.4683081196476166 -0.52991927123019833 0 0.84804809178421925 0.84804809178421925 0 0.52991927123019833 forward_v I I I I #
coedge $-1 $120 $121 $122 $123 reversed $47 $-1 #
face $-1 $-1 $124 $27 $-1 $125 forward single #
loop $-1 $126 $127 $49 #
cone-surface $-1 -49.187111608123175 -5.811433129046744 11.017239583445139 0.52991927123019833 0 -0.84804809178421925 0.42402404589210962 0 0.26495963561509916 1 I I -0.70710678118654746 0.70710678118654746 0.5 forward I I I I #
loop $-1 $-1 $128 $35 #
coedge $-1 $80 $80 $129 $130 reversed $50 $-1 #
face $-1 $-1 $131 $28 $-1 $132 forward single #
loop $-1 $133 $134 $52 #
cone-surface $-1 -49.187111608123175 -1.457428763017198 11.017239583445139 0.52991927123019833 0 -0.84804809178421925 0.42402404589210962 0 0.26495963561509916 1 I I -0.70710678118654746 0.70710678118654746 0.5 forward I I I I #
loop $-1 $-1 $135 $36 #
coedge $-1 $85 $85 $136 $137 reversed $53 $-1 #
face $-1 $138 $139 $29 $-1 $140 reversed single #
loop $-1 $-1 $141 $55 #
plane-surface $-1 -17.964480625779814 15.103921850474016 89.399239121809515 0.75470958851134928 0 0.65605901945558964 0.65605901945558964 0 -0.75470958851134928 forward_v I I I I #
coedge $-1 $142 $143 $144 $145 reversed $56 $-1 #
face $-1 $-1 $146 $30 $-1 $147 forward single #
loop $-1 $148 $149 $58 #
cone-surface $-1 49.537878278096429 13.033982129553323 9.0161813048600372 -0.75470958851134928 0 -0.65605901945558964 0.16401475486389741 0 -0.18867739712783732 1 I I -0.70710678118654746 0.70710678118654746 0.25 forward I I I I #
loop $-1 $-1 $150 $38 #
coedge $-1 $94 $94 $151 $152 reversed $59 $-1 #
face $-1 $-1 $153 $31 $-1 $154 forward single #
loop $-1 $155 $156 $61 #
cone-surface $-1 49.537878278096429 17.173861571394703 9.0161813048600372 -0.75470958851134928 0 -0.65605901945558964 0.16401475486389741 0 -0.18867739712783732 1 I I -0.70710678118654746 0.70710678118654746 0.25 forward I I I I #
loop $-1 $-1 $157 $39 #
coedge $-1 $99 $99 $158 $159 reversed $62 $-1 #
face $-1 $160 $161 $24 $-1 $162 reversed single #
loop $-1 $-1 $163 $64 #
plane-surface $-1 0 -36.07292136820206 0 0 1 0 0 0 1 forward_v I I I I #
coedge $-1 $164 $165 $166 $167 forward $65 $-1 #
coedge $-1 $168 $67 $169 $170 forward $41 $-1 #
coedge $-1 $67 $168 $171 $172 forward $41 $-1 #
coedge $-1 $173 $174 $67 $107 reversed $175 $-1 #
edge $-1 $176 -36.07292136820206 $177 36.07292136820206 $106 $178 forward 7 unknown #
face $-1 $179 $180 $25 $-1 $181 forward single #
loop $-1 $-1 $182 $68 #
plane-surface $-1 -40.446887265886645 -28.093729640478948 0 -1 0 0 0 0 1 forward_v I I I I #
coedge $-1 $183 $184 $185 $186 forward $69 $-1 #
coedge $-1 $187 $71 $188 $189 reversed $44 $-1 #
coedge $-1 $71 $187 $190 $191 reversed $44 $-1 #
coedge $-1 $184 $183 $71 $115 reversed $69 $-1 #
edge $-1 $192 -17.860758354001693 $193 17.860758354001693 $114 $194 forward 7 unknown #
face $-1 $195 $196 $26 $-1 $197 reversed single #
loop $-1 $-1 $198 $72 #
plane-surface $-1 -118.55748458933101 1.4452408143358344 107.08998719807202 0 -1 0 0.52991927123019833 0 -0.84804809178421925 forward_v I I I I #
coedge $-1 $199 $200 $201 $202 reversed $73 $-1 #
coedge $-1 $121 $75 $203 $204 reversed $47 $-1 #
coedge $-1 $75 $120 $199 $205 reversed $47 $-1 #
coedge $-1 $201 $206 $75 $123 forward $207 $-1 #
edge $-1 $208 1.7220541633138424 $209 15.152781810027932 $122 $210 forward 7 unknown #
loop $-1 $-1 $129 $76 #
plane-surface $-1 -57.556688131351649 -3.6344309460319693 9.4683081196476166 -0.52991927123019833 0 0.84804809178421925 0.84804809178421925 0 0.52991927123019833 forward_v I I I I #
loop $-1 $-1 $211 $49 #
coedge $-1 $127 $127 $128 $212 reversed $77 $-1 #
coedge $-1 $128 $128 $127 $212 forward $79 $-1 #
coedge $-1 $129 $129 $80 $130 forward $124 $-1 #
edge $-1 $213 0 $213 6.2831853071796004 $129 $214 forward 7 unknown #
loop $-1 $-1 $136 $81 #
plane-surface $-1 -57.556688131351649 -3.6344309460319693 9.4683081196476166 -0.52991927123019833 0 0.84804809178421925 0.84804809178421925 0 0.52991927123019833 forward_v I I I I #
loop $-1 $-1 $215 $52 #
coedge $-1 $134 $134 $135 $216 reversed $82 $-1 #
coedge $-1 $135 $135 $134 $216 forward $84 $-1 #
coedge $-1 $136 $136 $85 $137 forward $131 $-1 #
edge $-1 $217 0 $217 6.2831853071796004 $136 $218 forward 7 unknown #
face $-1 $219 $220 $29 $-1 $221 forward single #
loop $-1 $-1 $222 $86 #
plane-surface $-1 68.912688205597135 10.274062501659074 164.92040787894101 0 1 0 0.75470958851134928 0 0.65605901945558964 forward_v I I I I #
coedge $-1 $223 $224 $225 $226 reversed $87 $-1 #
coedge $-1 $143 $89 $227 $228 reversed $56 $-1 #
coedge $-1 $89 $142 $223 $229 reversed $56 $-1 #
coedge $-1 $225 $230 $89 $145 forward $220 $-1 #
edge $-1 $231 -23.100344028553096 $232 -9.7666262596168991 $144 $233 forward 7 unknown #
loop $-1 $-1 $151 $90 #
plane-surface $-1 -17.964480625779814 15.103921850474016 89.399239121809515 0.75470958851134928 0 0.65605901945558964 0.65605901945558964 0 -0.75470958851134928 forward_v I I I I #
loop $-1 $-1 $234 $58 #
coedge $-1 $149 $149 $150 $235 reversed $91 $-1 #
coedge $-1 $150 $150 $149 $235 forward $93 $-1 #
coedge $-1 $151 $151 $94 $152 forward $146 $-1 #
edge $-1 $236 0 $236 6.2831853071796004 $151 $237 forward 7 unknown #
loop $-1 $-1 $158 $95 #
plane-surface $-1 -17.964480625779814 15.103921850474016 89.399239121809515 0.75470958851134928 0 0.65605901945558964 0.65605901945558964 0 -0.75470958851134928 forward_v I I I I #
loop $-1 $-1 $238 $61 #
coedge $-1 $156 $156 $157 $239 reversed $96 $-1 #
coedge $-1 $157 $157 $156 $239 forward $98 $-1 #
coedge $-1 $158 $158 $99 $159 forward $153 $-1 #
edge $-1 $240 0 $240 6.2831853071796004 $158 $241 forward 7 unknown #
face $-1 $242 $243 $24 $-1 $244 reversed single #
loop $-1 $-1 $245 $100 #
plane-surface $-1 -57.556688131351663 0 0 1 0 0 0 0 -1 forward_v I I I I #
coedge $-1 $246 $171 $247 $248 forward $101 $-1 #
coedge $-1 $249 $103 $246 $250 forward $65 $-1 #
coedge $-1 $103 $249 $251 $252 forward $65 $-1 #
coedge $-1 $174 $173 $103 $167 reversed $175 $-1 #
edge $-1 $253 -36.07292136820206 $254 36.07292136820206 $166 $255 forward 7 unknown #
coedge $-1 $105 $104 $256 $257 forward $41 $-1 #
coedge $-1 $258 $259 $104 $170 reversed $243 $-1 #
edge $-1 $177 -57.556688131351663 $260 57.556688131351663 $169 $261 forward 7 unknown #
coedge $-1 $163 $262 $105 $172 reversed $101 $-1 #
edge $-1 $263 -57.556688131351663 $176 57.556688131351663 $171 $264 forward 7 unknown #
coedge $-1 $166 $106 $262 $265 forward $175 $-1 #
coedge $-1 $106 $166 $258 $266 reversed $175 $-1 #
loop $-1 $-1 $173 $242 #
vertex $-1 $107 $267 #
vertex $-1 $107 $268 #
straight-curve $-1 57.556688131351663 0 17.860758354001693 0 1 0 I I #
face $-1 $269 $270 $25 $-1 $271 reversed single #
loop $-1 $-1 $272 $108 #
plane-surface $-1 0 0 17.860758354001693 0 0 1 1 0 0 forward_v I I I I #
coedge $-1 $273 $274 $275 $276 reversed $109 $-1 #
coedge $-1 $114 $111 $277 $278 reversed $69 $-1 #
coedge $-1 $111 $114 $279 $280 reversed $69 $-1 #
coedge $-1 $274 $273 $111 $186 reversed $109 $-1 #
edge $-1 $281 -17.860758354001693 $282 17.860758354001693 $185 $283 forward 7 unknown #
coedge $-1 $113 $112 $284 $285 reversed $44 $-1 #
coedge $-1 $277 $286 $112 $189 forward $270 $-1 #
edge $-1 $287 -22.026056547962586 $193 -6.0676730925163618 $188 $288 forward 7 unknown #
coedge $-1 $289 $279 $113 $191 forward $180 $-1 #
edge $-1 $192 6.0676730925163618 $290 22.026056547962586 $190 $291 forward 7 unknown #
vertex $-1 $191 $292 #
vertex $-1 $189 $293 #
straight-curve $-1 -49.531579644890044 -20.114537912755836 0 0 0 -1 I I #
face $-1 $-1 $207 $26 $-1 $294 forward single #
loop $-1 $-1 $295 $116 #
plane-surface $-1 -57.556688131351663 0 0 1 0 0 0 0 -1 forward_v I I I I #
coedge $-1 $296 $297 $298 $299 reversed $117 $-1 #
coedge $-1 $300 $119 $121 $205 forward $73 $-1 #
coedge $-1 $119 $300 $296 $301 forward $73 $-1 #
coedge $-1 $298 $122 $119 $202 forward $207 $-1 #
edge $-1 $209 -6.8968872333837883 $302 3.262456287351819 $201 $303 forward 7 unknown #
coedge $-1 $304 $305 $120 $204 forward $196 $-1 #
edge $-1 $306 -44.076685479388402 $208 -35.684235245034316 $203 $307 forward 7 unknown #
edge $-1 $209 -15.837224064094048 $306 1.675811683274863e-014 $121 $308 forward 7 unknown #
coedge $-1 $122 $298 $304 $309 forward $207 $-1 #
loop $-1 $-1 $298 $195 #
vertex $-1 $204 $310 #
vertex $-1 $123 $311 #
straight-curve $-1 -59.278742294665506 -8.7141027063997729 17.860758354001696 1 0 0 I I #
coedge $-1 $211 $211 $-1 $312 reversed $126 $-1 #
edge $-1 $313 0 $313 6.2831853071796004 $127 $314 forward 7 unknown #
vertex $-1 $130 $315 #
ellipse-curve $-1 -50.841324307994618 -5.811433129046744 13.664533236824651 -0.52991927123019833 0 0.84804809178421925 0.84804809178421925 0 0.52991927123019833 1 I I #
coedge $-1 $215 $215 $-1 $316 reversed $133 $-1 #
edge $-1 $317 0 $317 6.2831853071796004 $134 $318 forward 7 unknown #
vertex $-1 $137 $319 #
ellipse-curve $-1 -50.841324307994618 -1.457428763017198 13.664533236824651 -0.52991927123019833 0 0.84804809178421925 0.84804809178421925 0 0.52991927123019833 1 I I #
face $-1 $-1 $320 $29 $-1 $321 reversed single #
loop $-1 $-1 $144 $138 #
plane-surface $-1 0 0 17.860758354001693 0 0 1 1 0 0 forward_v I I I I #
coedge $-1 $322 $323 $324 $325 reversed $139 $-1 #
coedge $-1 $326 $141 $143 $229 forward $87 $-1 #
coedge $-1 $141 $326 $322 $327 forward $87 $-1 #
coedge $-1 $324 $144 $141 $226 forward $220 $-1 #
edge $-1 $232 -12.38182027405195 $328 -2.722101576422066 $225 $329 forward 7 unknown #
coedge $-1 $330 $331 $142 $228 forward $320 $-1 #
edge $-1 $332 -79.938133649037923 $231 -64.599445585468814 $227 $333 forward 7 unknown #
edge $-1 $232 94.789415500757272 $332 115.11337626270334 $143 $334 forward 7 unknown #
coedge $-1 $144 $324 $330 $335 forward $220 $-1 #
vertex $-1 $228 $336 #
vertex $-1 $145 $337 #
straight-curve $-1 34.456344102798568 19.933781199288958 17.860758354001689 -1 0 0 I I #
coedge $-1 $234 $234 $-1 $338 reversed $148 $-1 #
edge $-1 $339 0 $339 6.2831853071796004 $149 $340 forward 7 unknown #
vertex $-1 $152 $341 #
ellipse-curve $-1 50.889829246883572 13.033982129553323 10.191414322217137 0.75470958851134928 0 0.65605901945558964 0.32802950972779482 0 -0.37735479425567464 1 I I #
coedge $-1 $238 $238 $-1 $342 reversed $155 $-1 #
edge $-1 $343 0 $343 6.2831853071796004 $156 $344 forward 7 unknown #
vertex $-1 $159 $345 #
ellipse-curve $-1 50.889829246883572 17.173861571394703 10.191414322217137 0.75470958851134928 0 0.65605901945558964 0.32802950972779482 0 -0.37735479425567464 1 I I #
face $-1 $-1 $175 $24 $-1 $346 reversed single #
loop $-1 $-1 $258 $160 #
plane-surface $-1 0 36.07292136820206 0 0 -1 0 0 0 -1 forward_v I I I I #
coedge $-1 $347 $256 $259 $348 forward $161 $-1 #
coedge $-1 $262 $163 $164 $250 reversed $101 $-1 #
coedge $-1 $256 $347 $163 $248 reversed $161 $-1 #
edge $-1 $263 -17.860758354001693 $349 17.860758354001693 $247 $350 forward 7 unknown #
coedge $-1 $165 $164 $347 $351 forward $65 $-1 #
edge $-1 $254 -57.556688131351663 $349 57.556688131351663 $246 $352 forward 7 unknown #
coedge $-1 $259 $258 $165 $252 reversed $243 $-1 #
edge $-1 $353 -57.556688131351663 $253 57.556688131351663 $251 $354 forward 7 unknown #
vertex $-1 $167 $355 #
vertex $-1 $265 $356 #
straight-curve $-1 57.556688131351663 0 -17.860758354001693 0 -1 0 I I #
coedge $-1 $245 $247 $168 $257 reversed $161 $-1 #
edge $-1 $260 -36.07292136820206 $263 36.07292136820206 $256 $357 forward 7 unknown #
coedge $-1 $251 $169 $174 $266 forward $243 $-1 #
coedge $-1 $169 $251 $245 $348 reversed $243 $-1 #
vertex $-1 $170 $358 #
straight-curve $-1 0 36.07292136820206 17.860758354001693 -1 0 0 I I #
coedge $-1 $171 $246 $173 $265 reversed $101 $-1 #
vertex $-1 $257 $359 #
straight-curve $-1 0 -36.07292136820206 17.860758354001693 1 0 0 I I #
edge $-1 $176 -17.860758354001693 $254 17.860758354001693 $173 $360 forward 7 unknown #
edge $-1 $177 -17.860758354001693 $253 17.860758354001693 $174 $361 forward 7 unknown #
point $-1 57.556688131351663 -36.07292136820206 17.860758354001693 #
point $-1 57.556688131351663 36.07292136820206 17.860758354001693 #
face $-1 $-1 $362 $25 $-1 $363 reversed single #
loop $-1 $-1 $364 $179 #
plane-surface $-1 0 0 -17.860758354001693 0 0 1 1 0 0 forward_v I I I I #
coedge $-1 $279 $289 $274 $365 forward $180 $-1 #
coedge $-1 $185 $182 $364 $366 reversed $109 $-1 #
coedge $-1 $182 $185 $272 $365 reversed $109 $-1 #
coedge $-1 $367 $368 $182 $276 forward $362 $-1 #
edge $-1 $369 -17.860758354001693 $370 17.860758354001693 $275 $371 forward 7 unknown #
coedge $-1 $364 $188 $183 $278 forward $270 $-1 #
edge $-1 $193 -27.036962917195872 $282 -17.952270538192472 $277 $372 forward 7 unknown #
coedge $-1 $190 $272 $184 $280 forward $180 $-1 #
edge $-1 $281 17.952270538192472 $192 27.036962917195872 $279 $373 forward 7 unknown #
vertex $-1 $280 $374 #
vertex $-1 $278 $375 #
straight-curve $-1 -40.446887265886645 -20.114537912755836 0 0 0 -1 I I #
coedge $-1 $368 $367 $187 $285 forward $362 $-1 #
edge $-1 $290 -17.860758354001693 $287 17.860758354001693 $284 $376 forward 7 unknown #
coedge $-1 $188 $364 $368 $377 forward $270 $-1 #
vertex $-1 $189 $378 #
straight-curve $-1 -49.531579644890044 -14.046864820239474 -17.860758354001693 0 1 0 I I #
coedge $-1 $272 $190 $367 $379 forward $180 $-1 #
vertex $-1 $379 $380 #
straight-curve $-1 -49.531579644890044 -14.046864820239474 17.860758354001693 0 -1 0 I I #
point $-1 -49.531579644890044 -20.114537912755836 17.860758354001693 #
point $-1 -49.531579644890044 -20.114537912755836 -17.860758354001693 #
plane-surface $-1 0 0 17.860758354001693 0 0 1 1 0 0 forward_v I I I I #
coedge $-1 $305 $304 $297 $381 forward $196 $-1 #
coedge $-1 $297 $198 $200 $301 reversed $117 $-1 #
coedge $-1 $198 $296 $295 $381 reversed $117 $-1 #
coedge $-1 $206 $201 $198 $299 forward $207 $-1 #
edge $-1 $302 -15.152781810027932 $382 -1.7220541633138424 $298 $383 forward 7 unknown #
coedge $-1 $200 $199 $305 $384 reversed $73 $-1 #
edge $-1 $385 -1.675811683274863e-014 $302 15.837224064094048 $296 $386 forward 7 unknown #
vertex $-1 $202 $387 #
straight-curve $-1 -44.125960484637574 -1.8172154730159846 17.860758354001693 0 1 0 I I #
coedge $-1 $295 $203 $206 $309 reversed $196 $-1 #
coedge $-1 $203 $295 $300 $384 forward $196 $-1 #
vertex $-1 $204 $388 #
straight-curve $-1 -57.556688131351663 -8.7141027063997729 53.544993599036012 0 0 1 I I #
straight-curve $-1 -57.556688131351649 -8.7141027063997729 9.4683081196476166 -0.84804809178421925 0 -0.52991927123019833 I I #
edge $-1 $382 -1.4452408143358344 $208 8.7141027063997729 $304 $389 forward 7 unknown #
point $-1 -57.556688131351663 -8.7141027063997729 17.860758354001693 #
point $-1 -44.125960484637574 -8.7141027063997729 17.860758354001693 #
edge $-1 $390 1 $390 0 $211 $-1 forward 7 unknown #
vertex $-1 $212 $391 #
ellipse-curve $-1 -49.452071243738274 -5.811433129046744 11.441263629337248 -0.52991927123019833 0 0.84804809178421925 0.84804809178421925 0 0.52991927123019833 1 I I #
point $-1 -49.993276216210404 -5.811433129046744 14.194452508054853 #
edge $-1 $392 1 $392 0 $215 $-1 forward 7 unknown #
vertex $-1 $216 $393 #
ellipse-curve $-1 -49.452071243738274 -1.457428763017198 11.441263629337248 -0.52991927123019833 0 0.84804809178421925 0.84804809178421925 0 0.52991927123019833 1 I I #
point $-1 -49.993276216210404 -1.457428763017198 14.194452508054853 #
loop $-1 $-1 $227 $219 #
plane-surface $-1 57.556688131351663 0 0 -1 0 0 0 0 1 forward_v I I I I #
coedge $-1 $323 $222 $224 $327 reversed $139 $-1 #
coedge $-1 $222 $322 $394 $395 reversed $139 $-1 #
coedge $-1 $230 $225 $222 $325 forward $220 $-1 #
edge $-1 $328 9.7666262596168991 $396 23.100344028553096 $324 $397 forward 7 unknown #
coedge $-1 $224 $223 $331 $398 reversed $87 $-1 #
edge $-1 $399 -115.11337626270334 $328 -94.789415500757272 $322 $400 forward 7 unknown #
vertex $-1 $226 $401 #
straight-curve $-1 44.222970362415474 7.5519609252370081 17.860758354001682 0 -1 0 I I #
coedge $-1 $394 $227 $230 $335 reversed $320 $-1 #
coedge $-1 $227 $394 $326 $398 forward $320 $-1 #
vertex $-1 $228 $402 #
straight-curve $-1 57.556688131351663 19.933781199288958 82.460203939470503 0 0 1 I I #
straight-curve $-1 -17.964480625779814 19.933781199288958 89.399239121809515 0.65605901945558964 0 -0.75470958851134928 I I #
edge $-1 $396 10.274062501659074 $231 19.933781199288958 $330 $403 forward 7 unknown #
point $-1 57.556688131351663 19.933781199288958 17.860758354001693 #
point $-1 44.222970362415467 19.933781199288958 17.860758354001689 #
edge $-1 $404 1 $404 0 $234 $-1 forward 7 unknown #
vertex $-1 $235 $405 #
ellipse-curve $-1 49.726555675224269 13.033982129553323 9.1801960597239347 0.75470958851134928 0 0.65605901945558964 0.32802950972779482 0 -0.37735479425567464 1 I I #
point $-1 51.217858756611349 13.033982129553323 9.8140595279614473 #
edge $-1 $406 1 $406 0 $238 $-1 forward 7 unknown #
vertex $-1 $239 $407 #
ellipse-curve $-1 49.726555675224269 17.173861571394703 9.1801960597239347 0.75470958851134928 0 0.65605901945558964 0.32802950972779482 0 -0.37735479425567464 1 I I #
point $-1 51.217858756611349 17.173861571394703 9.8140595279614473 #
plane-surface $-1 57.556688131351663 0 0 -1 0 0 0 0 1 forward_v I I I I #
coedge $-1 $247 $245 $249 $351 reversed $161 $-1 #
edge $-1 $260 -17.860758354001693 $353 17.860758354001693 $259 $408 forward 7 unknown #
vertex $-1 $351 $409 #
straight-curve $-1 -57.556688131351663 -36.07292136820206 0 0 0 -1 I I #
edge $-1 $349 -36.07292136820206 $353 36.07292136820206 $347 $410 forward 7 unknown #
straight-curve $-1 0 -36.07292136820206 -17.860758354001693 -1 0 0 I I #
vertex $-1 $252 $411 #
straight-curve $-1 0 36.07292136820206 -17.860758354001693 1 0 0 I I #
point $-1 57.556688131351663 36.07292136820206 -17.860758354001693 #
point $-1 57.556688131351663 -36.07292136820206 -17.860758354001693 #
straight-curve $-1 -57.556688131351663 0 17.860758354001693 0 -1 0 I I #
point $-1 -57.556688131351663 36.07292136820206 17.860758354001693 #
point $-1 -57.556688131351663 -36.07292136820206 17.860758354001693 #
straight-curve $-1 57.556688131351663 -36.07292136820206 0 0 0 -1 I I #
straight-curve $-1 57.556688131351663 36.07292136820206 0 0 0 -1 I I #
loop $-1 $-1 $275 $269 #
plane-surface $-1 0 -36.07292136820206 0 0 1 0 0 0 1 forward_v I I I I #
coedge $-1 $286 $277 $273 $366 forward $270 $-1 #
edge $-1 $370 -22.026056547962586 $281 -6.0676730925163618 $272 $412 forward 7 unknown #
edge $-1 $282 6.0676730925163618 $369 22.026056547962586 $364 $413 forward 7 unknown #
coedge $-1 $284 $275 $289 $379 reversed $362 $-1 #
coedge $-1 $275 $284 $286 $377 reversed $362 $-1 #
vertex $-1 $377 $414 #
vertex $-1 $276 $415 #
straight-curve $-1 -40.446887265886645 -36.07292136820206 0 0 0 1 I I #
straight-curve $-1 -22.494616727694172 -20.114537912755836 -17.860758354001693 1 0 0 I I #
straight-curve $-1 -22.494616727694172 -20.114537912755836 17.860758354001693 -1 0 0 I I #
point $-1 -40.446887265886645 -20.114537912755836 17.860758354001693 #
point $-1 -40.446887265886645 -20.114537912755836 -17.860758354001693 #
straight-curve $-1 -49.531579644890044 -36.07292136820206 0 0 0 -1 I I #
edge $-1 $369 40.446887265886645 $287 49.531579644890044 $368 $416 forward 7 unknown #
point $-1 -49.531579644890044 -36.07292136820206 -17.860758354001693 #
edge $-1 $290 -49.531579644890044 $370 -40.446887265886645 $367 $417 forward 7 unknown #
point $-1 -49.531579644890044 -36.07292136820206 17.860758354001693 #
edge $-1 $382 35.684235245034316 $385 44.076685479388402 $295 $418 forward 7 unknown #
vertex $-1 $309 $419 #
straight-curve $-1 -59.278742294665506 1.4452408143358344 17.860758354001696 -1 0 0 I I #
edge $-1 $385 -3.262456287351819 $306 6.8968872333837883 $305 $420 forward 7 unknown #
vertex $-1 $384 $421 #
straight-curve $-1 -57.556688131351649 1.4452408143358344 9.4683081196476166 0.84804809178421925 0 0.52991927123019833 I I #
point $-1 -44.125960484637574 1.4452408143358344 17.860758354001693 #
point $-1 -57.556688131351663 -8.7141027063997729 9.4683081196476078 #
straight-curve $-1 -57.556688131351663 0 17.860758354001693 0 -1 0 I I #
vertex $-1 $312 $422 #
point $-1 -48.604023151954053 -5.811433129046744 11.971182900567447 #
vertex $-1 $316 $423 #
point $-1 -48.604023151954053 -1.457428763017198 11.971182900567447 #
coedge $-1 $331 $330 $323 $395 forward $320 $-1 #
edge $-1 $396 64.599445585468814 $399 79.938133649037923 $394 $424 forward 7 unknown #
vertex $-1 $335 $425 #
straight-curve $-1 34.456344102798568 10.274062501659074 17.860758354001689 1 0 0 I I #
edge $-1 $399 2.722101576422066 $332 12.38182027405195 $331 $426 forward 7 unknown #
vertex $-1 $398 $427 #
straight-curve $-1 -17.964480625779814 10.274062501659074 89.399239121809515 -0.65605901945558964 0 0.75470958851134928 I I #
point $-1 44.222970362415467 10.274062501659074 17.860758354001689 #
point $-1 57.556688131351663 19.933781199288958 2.5220702904325805 #
straight-curve $-1 57.556688131351663 0 17.860758354001693 0 1 0 I I #
vertex $-1 $338 $428 #
point $-1 50.05458518495206 13.033982129553323 8.8028412654682597 #
vertex $-1 $342 $429 #
point $-1 50.05458518495206 17.173861571394703 8.8028412654682597 #
straight-curve $-1 -57.556688131351663 36.07292136820206 0 0 0 -1 I I #
point $-1 -57.556688131351663 -36.07292136820206 -17.860758354001693 #
straight-curve $-1 -57.556688131351663 0 -17.860758354001693 0 1 0 I I #
point $-1 -57.556688131351663 36.07292136820206 -17.860758354001693 #
straight-curve $-1 -40.446887265886645 -14.046864820239474 17.860758354001693 0 1 0 I I #
straight-curve $-1 -40.446887265886645 -14.046864820239474 -17.860758354001693 0 -1 0 I I #
point $-1 -40.446887265886645 -36.07292136820206 -17.860758354001693 #
point $-1 -40.446887265886645 -36.07292136820206 17.860758354001693 #
straight-curve $-1 0 -36.07292136820206 -17.860758354001693 -1 0 0 I I #
straight-curve $-1 0 -36.07292136820206 17.860758354001693 1 0 0 I I #
straight-curve $-1 -57.556688131351663 1.4452408143358344 53.544993599036012 0 0 -1 I I #
point $-1 -57.556688131351663 1.4452408143358344 17.860758354001693 #
straight-curve $-1 -57.556688131351663 -1.8172154730159846 9.4683081196476078 0 -1 0 I I #
point $-1 -57.556688131351663 1.4452408143358344 9.4683081196476078 #
point $-1 -48.922151972508075 -5.811433129046744 10.59321553755303 #
point $-1 -48.922151972508075 -1.457428763017198 10.59321553755303 #
straight-curve $-1 57.556688131351663 10.274062501659074 82.460203939470503 0 0 -1 I I #
point $-1 57.556688131351663 10.274062501659074 17.860758354001693 #
straight-curve $-1 57.556688131351663 7.5519609252370081 2.5220702904325805 0 1 0 I I #
point $-1 57.556688131351663 10.274062501659074 2.5220702904325805 #
point $-1 49.349200880968588 13.033982129553323 8.8521665499961397 #
point $-1 49.349200880968588 17.173861571394703 8.8521665499961397 #
End-of-ACIS-data 