500 0 12 0           
7 Unknown 11 ACIS 5.0 NT 24 Fri Mar 26 20:15:52 1999 
-1 9.9999999999999995e-007 1e-010 
body $-1 $12 $-1 $13 #
body $-1 $14 $-1 $15 #
body $-1 $16 $-1 $17 #
body $-1 $18 $-1 $19 #
body $-1 $20 $-1 $21 #
body $-1 $22 $-1 $23 #
body $-1 $24 $-1 $25 #
body $-1 $26 $-1 $27 #
body $-1 $28 $-1 $29 #
body $-1 $30 $-1 $31 #
body $-1 $32 $-1 $33 #
body $-1 $34 $-1 $35 #
lump $-1 $-1 $36 $0 #
transform $-1 1 0 0 0 1 0 0 0 1 74.689779351176497 43.995555565444739 14.289727445794817 1 rotate no_reflect no_shear #
lump $-1 $-1 $37 $1 #
transform $-1 1 0 0 0 1 0 0 0 1 74.689779351176497 43.995555565444739 14.289727445794817 1 rotate no_reflect no_shear #
lump $-1 $-1 $38 $2 #
transform $-1 1 0 0 0 1 0 0 0 1 74.689779351176497 43.995555565444739 14.289727445794817 1 rotate no_reflect no_shear #
lump $-1 $-1 $39 $3 #
transform $-1 1 0 0 0 1 0 0 0 1 74.689779351176497 43.995555565444739 14.289727445794817 1 rotate no_reflect no_shear #
lump $-1 $-1 $40 $4 #
transform $-1 1 0 0 0 1 0 0 0 1 74.689779351176497 43.995555565444739 14.289727445794817 1 rotate no_reflect no_shear #
lump $-1 $-1 $41 $5 #
transform $-1 1 0 0 0 1 0 0 0 1 74.689779351176497 43.995555565444739 14.289727445794817 1 rotate no_reflect no_shear #
lump $-1 $-1 $42 $6 #
transform $-1 1 0 0 0 1 0 0 0 1 74.689779351176497 43.995555565444739 14.289727445794817 1 rotate no_reflect no_shear #
lump $-1 $-1 $43 $7 #
transform $-1 1 0 0 0 1 0 0 0 1 74.689779351176497 43.995555565444739 14.289727445794817 1 rotate no_reflect no_shear #
lump $-1 $-1 $44 $8 #
transform $-1 1 0 0 0 1 0 0 0 1 74.689779351176497 43.995555565444739 14.289727445794817 1 rotate no_reflect no_shear #
lump $-1 $-1 $45 $9 #
transform $-1 1 0 0 0 1 0 0 0 1 74.689779351176497 43.995555565444739 14.289727445794817 1 rotate no_reflect no_shear #
lump $-1 $-1 $46 $10 #
transform $-1 1 0 0 0 1 0 0 0 1 74.689779351176497 43.995555565444739 14.289727445794817 1 rotate no_reflect no_shear #
lump $-1 $-1 $47 $11 #
transform $-1 1 0 0 0 1 0 0 0 1 74.689779351176497 43.995555565444739 14.289727445794817 1 rotate no_reflect no_shear #
shell $-1 $-1 $-1 $48 $-1 $12 #
shell $-1 $-1 $-1 $49 $-1 $14 #
shell $-1 $-1 $-1 $50 $-1 $16 #
shell $-1 $-1 $-1 $51 $-1 $18 #
shell $-1 $-1 $-1 $52 $-1 $20 #
shell $-1 $-1 $-1 $53 $-1 $22 #
shell $-1 $-1 $-1 $54 $-1 $24 #
shell $-1 $-1 $-1 $55 $-1 $26 #
shell $-1 $-1 $-1 $56 $-1 $28 #
shell $-1 $-1 $-1 $57 $-1 $30 #
shell $-1 $-1 $-1 $58 $-1 $32 #
shell $-1 $-1 $-1 $59 $-1 $34 #
face $-1 $60 $61 $36 $-1 $62 forward single #
face $-1 $63 $64 $37 $-1 $65 reversed single #
face $-1 $66 $67 $38 $-1 $68 reversed single #
face $-1 $69 $70 $39 $-1 $71 forward single #
face $-1 $72 $73 $40 $-1 $74 forward single #
face $-1 $75 $76 $41 $-1 $77 forward single #
face $-1 $78 $79 $42 $-1 $80 reversed single #
face $-1 $81 $82 $43 $-1 $83 forward single #
face $-1 $84 $85 $44 $-1 $86 forward single #
face $-1 $87 $88 $45 $-1 $89 forward single #
face $-1 $90 $91 $46 $-1 $92 reversed single #
face $-1 $93 $94 $47 $-1 $95 forward single #
face $-1 $96 $97 $36 $-1 $98 reversed single #
loop $-1 $-1 $99 $48 #
plane-surface $-1 0 0 14.289727445794817 0 0 1 1 0 0 forward_v I I I I #
face $-1 $100 $101 $37 $-1 $102 reversed single #
loop $-1 $-1 $103 $49 #
plane-surface $-1 -53.470005767605521 -36.3998068299979 0 1 0 0 0 0 -1 forward_v I I I I #
face $-1 $104 $105 $38 $-1 $106 reversed single #
loop $-1 $-1 $107 $50 #
plane-surface $-1 -202.73305363451607 -24.346229837394247 82.295910591331705 0 1 0 -0.85716730853699208 0 0.51503806187062418 forward_v I I I I #
face $-1 $108 $109 $39 $-1 $110 forward single #
loop $-1 $111 $112 $51 #
cone-surface $-1 -70.98875229715172 -21.818938827333668 9.2129484151253447 0.85716730853699208 0 -0.51503806187062418 0.51503806187062418 0 0.85716730853699208 1 I I 0 1 1 forward I I I I #
face $-1 $113 $114 $40 $-1 $115 forward single #
loop $-1 $116 $117 $52 #
cone-surface $-1 -70.98875229715172 -18.028002312242798 9.2129484151253447 0.85716730853699208 0 -0.51503806187062418 0.51503806187062418 0 0.85716730853699208 1 I I 0 1 1 forward I I I I #
face $-1 $118 $119 $41 $-1 $120 forward single #
loop $-1 $121 $122 $53 #
cone-surface $-1 -70.98875229715172 -14.237065797151928 9.2129484151253447 0.85716730853699208 0 -0.51503806187062418 0.51503806187062418 0 0.85716730853699208 1 I I 0 1 1 forward I I I I #
face $-1 $123 $124 $42 $-1 $125 reversed single #
loop $-1 $-1 $126 $54 #
plane-surface $-1 -202.73305363451607 12.053576992603652 82.295910591331705 0 1 0 -0.85716730853699208 0 0.51503806187062418 forward_v I I I I #
face $-1 $127 $128 $43 $-1 $129 forward single #
loop $-1 $130 $131 $55 #
cone-surface $-1 -70.98875229715172 14.580868002664232 9.2129484151253447 0.85716730853699208 0 -0.51503806187062418 0.51503806187062418 0 0.85716730853699208 1 I I 0 1 1 forward I I I I #
face $-1 $132 $133 $44 $-1 $134 forward single #
loop $-1 $135 $136 $56 #
cone-surface $-1 -70.98875229715172 18.371804517755102 9.2129484151253447 0.85716730853699208 0 -0.51503806187062418 0.51503806187062418 0 0.85716730853699208 1 I I 0 1 1 forward I I I I #
face $-1 $137 $138 $45 $-1 $139 forward single #
loop $-1 $140 $141 $57 #
cone-surface $-1 -70.98875229715172 22.162741032845979 9.2129484151253447 0.85716730853699208 0 -0.51503806187062418 0.51503806187062418 0 0.85716730853699208 1 I I 0 1 1 forward I I I I #
face $-1 $142 $143 $46 $-1 $144 reversed single #
loop $-1 $-1 $145 $58 #
plane-surface $-1 59.953405770134424 3.3699414216458763 219.97312686804776 0 -1 0 -0.6560590369687036 0 -0.75470957328743171 forward_v I I I I #
face $-1 $146 $147 $47 $-1 $148 forward single #
loop $-1 $149 $150 $59 #
cone-surface $-1 70.040764365637585 -1.7514926256681704 9.7591657370755662 -0.6560590369687036 0 -0.75470957328743171 1.1320643599311475 0 -0.9840885554530554 1 I I 0 1 1.5 forward I I I I #
face $-1 $151 $152 $36 $-1 $153 reversed single #
loop $-1 $-1 $154 $60 #
plane-surface $-1 0 0 -14.289727445794817 0 0 1 1 0 0 forward_v I I I I #
coedge $-1 $155 $156 $157 $158 forward $61 $-1 #
face $-1 $159 $160 $37 $-1 $161 reversed single #
loop $-1 $-1 $162 $63 #
plane-surface $-1 -50.500461985854045 -28.804058094551056 0 0 -1 0 0 0 -1 forward_v I I I I #
coedge $-1 $163 $164 $165 $166 forward $64 $-1 #
face $-1 $167 $168 $38 $-1 $169 reversed single #
loop $-1 $-1 $170 $66 #
plane-surface $-1 -74.689779351176526 -18.028002312242798 5.3597521941826898 -0.85716730853699208 0 0.51503806187062418 0.51503806187062418 0 0.85716730853699208 forward_v I I I I #
coedge $-1 $171 $172 $173 $174 reversed $67 $-1 #
face $-1 $-1 $175 $39 $-1 $176 forward single #
loop $-1 $177 $178 $69 #
cone-surface $-1 -69.541976725205956 -21.818938827333668 8.3436379793266227 0.85716730853699208 0 -0.51503806187062418 0.25751903093531209 0 0.42858365426849604 1 I I -0.70710678118654746 0.70710678118654746 0.5 forward I I I I #
loop $-1 $-1 $179 $51 #
coedge $-1 $112 $112 $180 $181 reversed $70 $-1 #
face $-1 $-1 $182 $40 $-1 $183 forward single #
loop $-1 $184 $185 $72 #
cone-surface $-1 -69.541976725205956 -18.028002312242798 8.3436379793266227 0.85716730853699208 0 -0.51503806187062418 0.25751903093531209 0 0.42858365426849604 1 I I -0.70710678118654746 0.70710678118654746 0.5 forward I I I I #
loop $-1 $-1 $186 $52 #
coedge $-1 $117 $117 $187 $188 reversed $73 $-1 #
face $-1 $-1 $189 $41 $-1 $190 forward single #
loop $-1 $191 $192 $75 #
cone-surface $-1 -69.541976725205956 -14.237065797151928 8.3436379793266227 0.85716730853699208 0 -0.51503806187062418 0.25751903093531209 0 0.42858365426849604 1 I I -0.70710678118654746 0.70710678118654746 0.5 forward I I I I #
loop $-1 $-1 $193 $53 #
coedge $-1 $122 $122 $194 $195 reversed $76 $-1 #
face $-1 $196 $197 $42 $-1 $198 reversed single #
loop $-1 $-1 $199 $78 #
plane-surface $-1 -74.689779351176526 18.371804517755102 5.3597521941826898 -0.85716730853699208 0 0.51503806187062418 0.51503806187062418 0 0.85716730853699208 forward_v I I I I #
coedge $-1 $200 $201 $202 $203 reversed $79 $-1 #
face $-1 $-1 $204 $43 $-1 $205 forward single #
loop $-1 $206 $207 $81 #
cone-surface $-1 -69.541976725205956 14.580868002664232 8.3436379793266227 0.85716730853699208 0 -0.51503806187062418 0.25751903093531209 0 0.42858365426849604 1 I I -0.70710678118654746 0.70710678118654746 0.5 forward I I I I #
loop $-1 $-1 $208 $55 #
coedge $-1 $131 $131 $209 $210 reversed $82 $-1 #
face $-1 $-1 $211 $44 $-1 $212 forward single #
loop $-1 $213 $214 $84 #
cone-surface $-1 -69.541976725205956 18.371804517755102 8.3436379793266227 0.85716730853699208 0 -0.51503806187062418 0.25751903093531209 0 0.42858365426849604 1 I I -0.70710678118654746 0.70710678118654746 0.5 forward I I I I #
loop $-1 $-1 $215 $56 #
coedge $-1 $136 $136 $216 $217 reversed $85 $-1 #
face $-1 $-1 $218 $45 $-1 $219 forward single #
loop $-1 $220 $221 $87 #
cone-surface $-1 -69.541976725205956 22.162741032845979 8.3436379793266227 0.85716730853699208 0 -0.51503806187062418 0.25751903093531209 0 0.42858365426849604 1 I I -0.70710678118654746 0.70710678118654746 0.5 forward I I I I #
loop $-1 $-1 $222 $57 #
coedge $-1 $141 $141 $223 $224 reversed $88 $-1 #
face $-1 $225 $226 $46 $-1 $227 reversed single #
loop $-1 $-1 $228 $90 #
plane-surface $-1 -38.048403654941211 -1.7514926256681704 107.23494386193008 0.6560590369687036 0 0.75470957328743171 0.75470957328743171 0 -0.6560590369687036 forward_v I I I I #
coedge $-1 $229 $230 $231 $232 reversed $91 $-1 #
face $-1 $-1 $233 $47 $-1 $234 forward single #
loop $-1 $235 $236 $93 #
cone-surface $-1 67.808177463105494 -1.7514926256681704 7.1908683528609103 -0.6560590369687036 0 -0.75470957328743171 0.56603217996557376 0 -0.4920442777265277 1 I I -0.70710678118654757 0.70710678118654757 0.75 forward I I I I #
loop $-1 $-1 $237 $59 #
coedge $-1 $150 $150 $238 $239 reversed $94 $-1 #
face $-1 $240 $241 $36 $-1 $242 reversed single #
loop $-1 $-1 $243 $96 #
plane-surface $-1 0 -43.995555565444739 0 0 1 0 0 0 1 forward_v I I I I #
coedge $-1 $244 $245 $246 $247 forward $97 $-1 #
coedge $-1 $248 $99 $249 $250 forward $61 $-1 #
coedge $-1 $99 $248 $251 $252 forward $61 $-1 #
coedge $-1 $253 $254 $99 $158 reversed $255 $-1 #
edge $-1 $256 -43.995555565444739 $257 43.995555565444739 $157 $258 forward 7 unknown #
face $-1 $259 $260 $37 $-1 $261 forward single #
loop $-1 $-1 $262 $100 #
plane-surface $-1 -47.530918204102569 -36.3998068299979 0 -1 0 0 0 0 1 forward_v I I I I #
coedge $-1 $263 $264 $265 $266 forward $101 $-1 #
coedge $-1 $267 $103 $268 $269 reversed $64 $-1 #
coedge $-1 $103 $267 $270 $271 reversed $64 $-1 #
coedge $-1 $264 $263 $103 $166 reversed $101 $-1 #
edge $-1 $272 -14.289727445794817 $273 14.289727445794817 $165 $274 forward 7 unknown #
face $-1 $275 $276 $38 $-1 $277 reversed single #
loop $-1 $-1 $278 $104 #
plane-surface $-1 -202.73305363451607 -11.709774787091348 82.295910591331705 0 -1 0 0.85716730853699208 0 -0.51503806187062418 forward_v I I I I #
coedge $-1 $279 $280 $281 $282 reversed $105 $-1 #
coedge $-1 $172 $107 $283 $284 reversed $67 $-1 #
coedge $-1 $107 $171 $279 $285 reversed $67 $-1 #
coedge $-1 $281 $286 $107 $174 forward $287 $-1 #
edge $-1 $288 26.676747466081537 $289 32.042417738776535 $173 $290 forward 7 unknown #
loop $-1 $-1 $180 $108 #
plane-surface $-1 -74.689779351176526 -18.028002312242798 5.3597521941826898 -0.85716730853699208 0 0.51503806187062418 0.51503806187062418 0 0.85716730853699208 forward_v I I I I #
loop $-1 $-1 $291 $69 #
coedge $-1 $178 $178 $179 $292 reversed $109 $-1 #
coedge $-1 $179 $179 $178 $292 forward $111 $-1 #
coedge $-1 $180 $180 $112 $181 forward $175 $-1 #
edge $-1 $293 0 $293 6.2831853071796004 $180 $294 forward 7 unknown #
loop $-1 $-1 $187 $113 #
plane-surface $-1 -74.689779351176526 -18.028002312242798 5.3597521941826898 -0.85716730853699208 0 0.51503806187062418 0.51503806187062418 0 0.85716730853699208 forward_v I I I I #
loop $-1 $-1 $295 $72 #
coedge $-1 $185 $185 $186 $296 reversed $114 $-1 #
coedge $-1 $186 $186 $185 $296 forward $116 $-1 #
coedge $-1 $187 $187 $117 $188 forward $182 $-1 #
edge $-1 $297 0 $297 6.2831853071796004 $187 $298 forward 7 unknown #
loop $-1 $-1 $194 $118 #
plane-surface $-1 -74.689779351176526 -18.028002312242798 5.3597521941826898 -0.85716730853699208 0 0.51503806187062418 0.51503806187062418 0 0.85716730853699208 forward_v I I I I #
loop $-1 $-1 $299 $75 #
coedge $-1 $192 $192 $193 $300 reversed $119 $-1 #
coedge $-1 $193 $193 $192 $300 forward $121 $-1 #
coedge $-1 $194 $194 $122 $195 forward $189 $-1 #
edge $-1 $301 0 $301 6.2831853071796004 $194 $302 forward 7 unknown #
face $-1 $303 $304 $42 $-1 $305 forward single #
loop $-1 $-1 $306 $123 #
plane-surface $-1 -202.73305363451607 24.690032042906552 82.295910591331705 0 -1 0 0.85716730853699208 0 -0.51503806187062418 forward_v I I I I #
coedge $-1 $307 $308 $309 $310 reversed $124 $-1 #
coedge $-1 $201 $126 $311 $312 reversed $79 $-1 #
coedge $-1 $126 $200 $307 $313 reversed $79 $-1 #
coedge $-1 $309 $314 $126 $203 forward $304 $-1 #
edge $-1 $315 26.676747466081537 $316 32.042417738776535 $202 $317 forward 7 unknown #
loop $-1 $-1 $209 $127 #
plane-surface $-1 -74.689779351176526 18.371804517755102 5.3597521941826898 -0.85716730853699208 0 0.51503806187062418 0.51503806187062418 0 0.85716730853699208 forward_v I I I I #
loop $-1 $-1 $318 $81 #
coedge $-1 $207 $207 $208 $319 reversed $128 $-1 #
coedge $-1 $208 $208 $207 $319 forward $130 $-1 #
coedge $-1 $209 $209 $131 $210 forward $204 $-1 #
edge $-1 $320 0 $320 6.2831853071796004 $209 $321 forward 7 unknown #
loop $-1 $-1 $216 $132 #
plane-surface $-1 -74.689779351176526 18.371804517755102 5.3597521941826898 -0.85716730853699208 0 0.51503806187062418 0.51503806187062418 0 0.85716730853699208 forward_v I I I I #
loop $-1 $-1 $322 $84 #
coedge $-1 $214 $214 $215 $323 reversed $133 $-1 #
coedge $-1 $215 $215 $214 $323 forward $135 $-1 #
coedge $-1 $216 $216 $136 $217 forward $211 $-1 #
edge $-1 $324 0 $324 6.2831853071796004 $216 $325 forward 7 unknown #
loop $-1 $-1 $223 $137 #
plane-surface $-1 -74.689779351176526 18.371804517755102 5.3597521941826898 -0.85716730853699208 0 0.51503806187062418 0.51503806187062418 0 0.85716730853699208 forward_v I I I I #
loop $-1 $-1 $326 $87 #
coedge $-1 $221 $221 $222 $327 reversed $138 $-1 #
coedge $-1 $222 $222 $221 $327 forward $140 $-1 #
coedge $-1 $223 $223 $141 $224 forward $218 $-1 #
edge $-1 $328 0 $328 6.2831853071796004 $223 $329 forward 7 unknown #
face $-1 $330 $331 $46 $-1 $332 forward single #
loop $-1 $-1 $333 $142 #
plane-surface $-1 59.953405770134424 -6.8729266729822172 219.97312686804776 0 1 0 0.6560590369687036 0 0.75470957328743171 forward_v I I I I #
coedge $-1 $334 $335 $336 $337 reversed $143 $-1 #
coedge $-1 $230 $145 $338 $339 reversed $91 $-1 #
coedge $-1 $145 $229 $334 $340 reversed $91 $-1 #
coedge $-1 $336 $341 $145 $232 forward $331 $-1 #
edge $-1 $342 -44.713076466109285 $343 -38.896131744642602 $231 $344 forward 7 unknown #
loop $-1 $-1 $238 $146 #
plane-surface $-1 -38.048403654941211 -1.7514926256681704 107.23494386193008 0.6560590369687036 0 0.75470957328743171 0.75470957328743171 0 -0.6560590369687036 forward_v I I I I #
loop $-1 $-1 $345 $93 #
coedge $-1 $236 $236 $237 $346 reversed $147 $-1 #
coedge $-1 $237 $237 $236 $346 forward $149 $-1 #
coedge $-1 $238 $238 $150 $239 forward $233 $-1 #
edge $-1 $347 0 $347 6.2831853071796004 $238 $348 forward 7 unknown #
face $-1 $349 $350 $36 $-1 $351 reversed single #
loop $-1 $-1 $352 $151 #
plane-surface $-1 -74.689779351176497 0 0 1 0 0 0 0 -1 forward_v I I I I #
coedge $-1 $353 $251 $354 $355 forward $152 $-1 #
coedge $-1 $356 $154 $353 $357 forward $97 $-1 #
coedge $-1 $154 $356 $358 $359 forward $97 $-1 #
coedge $-1 $254 $253 $154 $247 reversed $255 $-1 #
edge $-1 $360 -43.995555565444739 $361 43.995555565444739 $246 $362 forward 7 unknown #
coedge $-1 $156 $155 $363 $364 forward $61 $-1 #
coedge $-1 $365 $366 $155 $250 reversed $350 $-1 #
edge $-1 $257 -74.689779351176497 $367 74.689779351176497 $249 $368 forward 7 unknown #
coedge $-1 $243 $369 $156 $252 reversed $152 $-1 #
edge $-1 $370 -74.689779351176497 $256 74.689779351176497 $251 $371 forward 7 unknown #
coedge $-1 $246 $157 $369 $372 forward $255 $-1 #
coedge $-1 $157 $246 $365 $373 reversed $255 $-1 #
loop $-1 $-1 $253 $349 #
vertex $-1 $158 $374 #
vertex $-1 $158 $375 #
straight-curve $-1 74.689779351176497 0 14.289727445794817 0 1 0 I I #
face $-1 $376 $377 $37 $-1 $378 reversed single #
loop $-1 $-1 $379 $159 #
plane-surface $-1 0 0 14.289727445794817 0 0 1 1 0 0 forward_v I I I I #
coedge $-1 $380 $381 $382 $383 reversed $160 $-1 #
coedge $-1 $165 $162 $384 $385 reversed $101 $-1 #
coedge $-1 $162 $165 $386 $387 reversed $101 $-1 #
coedge $-1 $381 $380 $162 $266 reversed $160 $-1 #
edge $-1 $388 -14.289727445794817 $389 14.289727445794817 $265 $390 forward 7 unknown #
coedge $-1 $164 $163 $391 $392 reversed $64 $-1 #
coedge $-1 $384 $393 $163 $269 forward $377 $-1 #
edge $-1 $394 -25.79565215044579 $273 -10.604154679552106 $268 $395 forward 7 unknown #
coedge $-1 $396 $386 $164 $271 forward $260 $-1 #
edge $-1 $272 10.604154679552106 $397 25.79565215044579 $270 $398 forward 7 unknown #
vertex $-1 $271 $399 #
vertex $-1 $269 $400 #
straight-curve $-1 -53.470005767605521 -28.804058094551056 0 0 0 -1 I I #
face $-1 $-1 $287 $38 $-1 $401 forward single #
loop $-1 $-1 $402 $167 #
plane-surface $-1 -74.689779351176497 0 0 1 0 0 0 0 -1 forward_v I I I I #
coedge $-1 $403 $404 $405 $406 reversed $168 $-1 #
coedge $-1 $407 $170 $172 $285 forward $105 $-1 #
coedge $-1 $170 $407 $403 $408 forward $105 $-1 #
coedge $-1 $405 $173 $170 $282 forward $287 $-1 #
edge $-1 $289 -15.332228681272849 $409 -2.6957736309699492 $281 $410 forward 7 unknown #
coedge $-1 $411 $412 $171 $284 forward $276 $-1 #
edge $-1 $413 -35.788203101483113 $288 -26.858227849871035 $283 $414 forward 7 unknown #
edge $-1 $289 -10.418007269611989 $413 -5.4988089932380084e-014 $172 $415 forward 7 unknown #
coedge $-1 $173 $405 $411 $416 forward $287 $-1 #
loop $-1 $-1 $405 $275 #
vertex $-1 $284 $417 #
vertex $-1 $174 $418 #
straight-curve $-1 -101.36652681725803 -24.346229837394247 14.289727445794817 1 0 0 I I #
coedge $-1 $291 $291 $-1 $419 reversed $177 $-1 #
edge $-1 $420 0 $420 6.2831853071796004 $178 $421 forward 7 unknown #
vertex $-1 $181 $422 #
ellipse-curve $-1 -72.006944214829005 -21.818938827333668 9.8247398199887641 -0.85716730853699208 0 0.51503806187062418 0.51503806187062418 0 0.85716730853699208 1 I I #
coedge $-1 $295 $295 $-1 $423 reversed $184 $-1 #
edge $-1 $424 0 $424 6.2831853071796004 $185 $425 forward 7 unknown #
vertex $-1 $188 $426 #
ellipse-curve $-1 -72.006944214829005 -18.028002312242798 9.8247398199887641 -0.85716730853699208 0 0.51503806187062418 0.51503806187062418 0 0.85716730853699208 1 I I #
coedge $-1 $299 $299 $-1 $427 reversed $191 $-1 #
edge $-1 $428 0 $428 6.2831853071796004 $192 $429 forward 7 unknown #
vertex $-1 $195 $430 #
ellipse-curve $-1 -72.006944214829005 -14.237065797151928 9.8247398199887641 -0.85716730853699208 0 0.51503806187062418 0.51503806187062418 0 0.85716730853699208 1 I I #
face $-1 $-1 $431 $42 $-1 $432 reversed single #
loop $-1 $-1 $202 $196 #
plane-surface $-1 0 0 14.289727445794817 0 0 1 1 0 0 forward_v I I I I #
coedge $-1 $433 $434 $435 $436 reversed $197 $-1 #
coedge $-1 $437 $199 $201 $313 forward $124 $-1 #
coedge $-1 $199 $437 $433 $438 forward $124 $-1 #
coedge $-1 $435 $202 $199 $310 forward $304 $-1 #
edge $-1 $316 2.8676747337261013 $439 15.504129784029001 $309 $440 forward 7 unknown #
coedge $-1 $441 $442 $200 $312 forward $431 $-1 #
edge $-1 $443 -35.788203101483113 $315 -26.858227849871035 $311 $444 forward 7 unknown #
edge $-1 $316 -10.418007269611989 $443 -5.4988089932380084e-014 $201 $445 forward 7 unknown #
coedge $-1 $202 $435 $441 $446 forward $304 $-1 #
vertex $-1 $312 $447 #
vertex $-1 $203 $448 #
straight-curve $-1 -101.36652681725803 12.053576992603652 14.289727445794817 1 0 0 I I #
coedge $-1 $318 $318 $-1 $449 reversed $206 $-1 #
edge $-1 $450 0 $450 6.2831853071796004 $207 $451 forward 7 unknown #
vertex $-1 $210 $452 #
ellipse-curve $-1 -72.006944214829005 14.580868002664232 9.8247398199887641 -0.85716730853699208 0 0.51503806187062418 0.51503806187062418 0 0.85716730853699208 1 I I #
coedge $-1 $322 $322 $-1 $453 reversed $213 $-1 #
edge $-1 $454 0 $454 6.2831853071796004 $214 $455 forward 7 unknown #
vertex $-1 $217 $456 #
ellipse-curve $-1 -72.006944214829005 18.371804517755102 9.8247398199887641 -0.85716730853699208 0 0.51503806187062418 0.51503806187062418 0 0.85716730853699208 1 I I #
coedge $-1 $326 $326 $-1 $457 reversed $220 $-1 #
edge $-1 $458 0 $458 6.2831853071796004 $221 $459 forward 7 unknown #
vertex $-1 $224 $460 #
ellipse-curve $-1 -72.006944214829005 22.162741032845979 9.8247398199887641 -0.85716730853699208 0 0.51503806187062418 0.51503806187062418 0 0.85716730853699208 1 I I #
face $-1 $-1 $461 $46 $-1 $462 reversed single #
loop $-1 $-1 $231 $225 #
plane-surface $-1 0 0 14.289727445794817 0 0 1 1 0 0 forward_v I I I I #
coedge $-1 $463 $464 $465 $466 reversed $226 $-1 #
coedge $-1 $467 $228 $230 $340 forward $143 $-1 #
coedge $-1 $228 $467 $463 $468 forward $143 $-1 #
coedge $-1 $465 $231 $228 $337 forward $331 $-1 #
edge $-1 $343 -4.2456877344799615 $469 5.9971803601481319 $336 $470 forward 7 unknown #
coedge $-1 $471 $472 $229 $339 forward $461 $-1 #
edge $-1 $473 -100.75342899716945 $342 -95.696835988229054 $338 $474 forward 7 unknown #
edge $-1 $343 141.67203129399024 $473 149.37955870235305 $230 $475 forward 7 unknown #
coedge $-1 $231 $465 $471 $476 forward $331 $-1 #
vertex $-1 $339 $477 #
vertex $-1 $232 $478 #
straight-curve $-1 29.976702885067212 3.3699414216458763 14.289727445794824 -1 0 0 I I #
coedge $-1 $345 $345 $-1 $479 reversed $235 $-1 #
edge $-1 $480 0 $480 6.2831853071796004 $236 $481 forward 7 unknown #
vertex $-1 $239 $482 #
ellipse-curve $-1 71.781306990443142 -1.7514926256681704 11.76143094132463 0.6560590369687036 0 0.75470957328743171 1.1320643599311475 0 -0.9840885554530554 1 I I #
face $-1 $-1 $255 $36 $-1 $483 reversed single #
loop $-1 $-1 $365 $240 #
plane-surface $-1 0 43.995555565444739 0 0 -1 0 0 0 -1 forward_v I I I I #
coedge $-1 $484 $363 $366 $485 forward $241 $-1 #
coedge $-1 $369 $243 $244 $357 reversed $152 $-1 #
coedge $-1 $363 $484 $243 $355 reversed $241 $-1 #
edge $-1 $370 -14.289727445794817 $486 14.289727445794817 $354 $487 forward 7 unknown #
coedge $-1 $245 $244 $484 $488 forward $97 $-1 #
edge $-1 $361 -74.689779351176497 $486 74.689779351176497 $353 $489 forward 7 unknown #
coedge $-1 $366 $365 $245 $359 reversed $350 $-1 #
edge $-1 $490 -74.689779351176497 $360 74.689779351176497 $358 $491 forward 7 unknown #
vertex $-1 $247 $492 #
vertex $-1 $372 $493 #
straight-curve $-1 74.689779351176497 0 -14.289727445794817 0 -1 0 I I #
coedge $-1 $352 $354 $248 $364 reversed $241 $-1 #
edge $-1 $367 -43.995555565444739 $370 43.995555565444739 $363 $494 forward 7 unknown #
coedge $-1 $358 $249 $254 $373 forward $350 $-1 #
coedge $-1 $249 $358 $352 $485 reversed $350 $-1 #
vertex $-1 $250 $495 #
straight-curve $-1 0 43.995555565444739 14.289727445794817 -1 0 0 I I #
coedge $-1 $251 $353 $253 $372 reversed $152 $-1 #
vertex $-1 $364 $496 #
straight-curve $-1 0 -43.995555565444739 14.289727445794817 1 0 0 I I #
edge $-1 $256 -14.289727445794817 $361 14.289727445794817 $253 $497 forward 7 unknown #
edge $-1 $257 -14.289727445794817 $360 14.289727445794817 $254 $498 forward 7 unknown #
point $-1 74.689779351176497 -43.995555565444739 14.289727445794817 #
point $-1 74.689779351176497 43.995555565444739 14.289727445794817 #
face $-1 $-1 $499 $37 $-1 $500 reversed single #
loop $-1 $-1 $501 $259 #
plane-surface $-1 0 0 -14.289727445794817 0 0 1 1 0 0 forward_v I I I I #
coedge $-1 $386 $396 $381 $502 forward $260 $-1 #
coedge $-1 $265 $262 $501 $503 reversed $160 $-1 #
coedge $-1 $262 $265 $379 $502 reversed $160 $-1 #
coedge $-1 $504 $505 $262 $383 forward $499 $-1 #
edge $-1 $506 -14.289727445794817 $507 14.289727445794817 $382 $508 forward 7 unknown #
coedge $-1 $501 $268 $263 $385 forward $377 $-1 #
edge $-1 $273 -28.219774774678498 $389 -22.280687211175547 $384 $509 forward 7 unknown #
coedge $-1 $270 $379 $264 $387 forward $260 $-1 #
edge $-1 $388 22.280687211175547 $272 28.219774774678498 $386 $510 forward 7 unknown #
vertex $-1 $387 $511 #
vertex $-1 $385 $512 #
straight-curve $-1 -47.530918204102569 -28.804058094551056 0 0 0 -1 I I #
coedge $-1 $505 $504 $267 $392 forward $499 $-1 #
edge $-1 $397 -14.289727445794817 $394 14.289727445794817 $391 $513 forward 7 unknown #
coedge $-1 $268 $501 $505 $514 forward $377 $-1 #
vertex $-1 $269 $515 #
straight-curve $-1 -53.470005767605521 -18.19990341499895 -14.289727445794817 0 1 0 I I #
coedge $-1 $379 $270 $504 $516 forward $260 $-1 #
vertex $-1 $516 $517 #
straight-curve $-1 -53.470005767605521 -18.19990341499895 14.289727445794817 0 -1 0 I I #
point $-1 -53.470005767605521 -28.804058094551056 14.289727445794817 #
point $-1 -53.470005767605521 -28.804058094551056 -14.289727445794817 #
plane-surface $-1 0 0 14.289727445794817 0 0 1 1 0 0 forward_v I I I I #
coedge $-1 $412 $411 $404 $518 forward $276 $-1 #
coedge $-1 $404 $278 $280 $408 reversed $168 $-1 #
coedge $-1 $278 $403 $402 $518 reversed $168 $-1 #
coedge $-1 $286 $281 $278 $406 forward $287 $-1 #
edge $-1 $409 -32.042417738776535 $519 -26.676747466081537 $405 $520 forward 7 unknown #
coedge $-1 $280 $279 $412 $521 reversed $105 $-1 #
edge $-1 $522 5.4988089932380084e-014 $409 10.418007269611989 $403 $523 forward 7 unknown #
vertex $-1 $282 $524 #
straight-curve $-1 -69.324109078481484 -9.0140011561213989 14.289727445794817 0 1 0 I I #
coedge $-1 $402 $283 $286 $416 reversed $276 $-1 #
coedge $-1 $283 $402 $407 $521 forward $276 $-1 #
vertex $-1 $284 $525 #
straight-curve $-1 -74.689779351176497 -24.346229837394247 41.147955295665852 0 0 1 I I #
straight-curve $-1 -74.689779351176526 -24.346229837394247 5.3597521941826898 -0.51503806187062418 0 -0.85716730853699208 I I #
edge $-1 $519 11.709774787091348 $288 24.346229837394247 $411 $526 forward 7 unknown #
point $-1 -74.689779351176497 -24.346229837394247 14.289727445794817 #
point $-1 -69.324109078481499 -24.346229837394247 14.289727445794817 #
edge $-1 $527 1 $527 0 $291 $-1 forward 7 unknown #
vertex $-1 $292 $528 #
ellipse-curve $-1 -69.970560379474449 -21.818938827333668 8.6011570102619341 -0.85716730853699208 0 0.51503806187062418 0.51503806187062418 0 0.85716730853699208 1 I I #
point $-1 -71.491906152958364 -21.818938827333668 10.681907128525747 #
edge $-1 $529 1 $529 0 $295 $-1 forward 7 unknown #
vertex $-1 $296 $530 #
ellipse-curve $-1 -69.970560379474449 -18.028002312242798 8.6011570102619341 -0.85716730853699208 0 0.51503806187062418 0.51503806187062418 0 0.85716730853699208 1 I I #
point $-1 -71.491906152958364 -18.028002312242798 10.681907128525747 #
edge $-1 $531 1 $531 0 $299 $-1 forward 7 unknown #
vertex $-1 $300 $532 #
ellipse-curve $-1 -69.970560379474449 -14.237065797151928 8.6011570102619341 -0.85716730853699208 0 0.51503806187062418 0.51503806187062418 0 0.85716730853699208 1 I I #
point $-1 -71.491906152958364 -14.237065797151928 10.681907128525747 #
loop $-1 $-1 $311 $303 #
plane-surface $-1 -74.689779351176497 0 0 1 0 0 0 0 -1 forward_v I I I I #
coedge $-1 $434 $306 $308 $438 reversed $197 $-1 #
coedge $-1 $306 $433 $533 $534 reversed $197 $-1 #
coedge $-1 $314 $309 $306 $436 forward $304 $-1 #
edge $-1 $439 -32.042417738776535 $535 -26.676747466081537 $435 $536 forward 7 unknown #
coedge $-1 $308 $307 $442 $537 reversed $124 $-1 #
edge $-1 $538 5.4988089932380084e-014 $439 10.418007269611989 $433 $539 forward 7 unknown #
vertex $-1 $310 $540 #
straight-curve $-1 -69.324109078481484 9.185902258877551 14.289727445794817 0 1 0 I I #
coedge $-1 $533 $311 $314 $446 reversed $431 $-1 #
coedge $-1 $311 $533 $437 $537 forward $431 $-1 #
vertex $-1 $312 $541 #
straight-curve $-1 -74.689779351176497 12.053576992603652 41.147955295665852 0 0 1 I I #
straight-curve $-1 -74.689779351176526 12.053576992603652 5.3597521941826898 -0.51503806187062418 0 -0.85716730853699208 I I #
edge $-1 $535 -24.690032042906552 $315 -12.053576992603652 $441 $542 forward 7 unknown #
point $-1 -74.689779351176497 12.053576992603652 14.289727445794817 #
point $-1 -69.324109078481499 12.053576992603652 14.289727445794817 #
edge $-1 $543 1 $543 0 $318 $-1 forward 7 unknown #
vertex $-1 $319 $544 #
ellipse-curve $-1 -69.970560379474449 14.580868002664232 8.6011570102619341 -0.85716730853699208 0 0.51503806187062418 0.51503806187062418 0 0.85716730853699208 1 I I #
point $-1 -71.491906152958364 14.580868002664232 10.681907128525747 #
edge $-1 $545 1 $545 0 $322 $-1 forward 7 unknown #
vertex $-1 $323 $546 #
ellipse-curve $-1 -69.970560379474449 18.371804517755102 8.6011570102619341 -0.85716730853699208 0 0.51503806187062418 0.51503806187062418 0 0.85716730853699208 1 I I #
point $-1 -71.491906152958364 18.371804517755102 10.681907128525747 #
edge $-1 $547 1 $547 0 $326 $-1 forward 7 unknown #
vertex $-1 $327 $548 #
ellipse-curve $-1 -69.970560379474449 22.162741032845979 8.6011570102619341 -0.85716730853699208 0 0.51503806187062418 0.51503806187062418 0 0.85716730853699208 1 I I #
point $-1 -71.491906152958364 22.162741032845979 10.681907128525747 #
loop $-1 $-1 $338 $330 #
plane-surface $-1 74.689779351176497 0 0 -1 0 0 0 0 1 forward_v I I I I #
coedge $-1 $464 $333 $335 $468 reversed $226 $-1 #
coedge $-1 $333 $463 $549 $550 reversed $226 $-1 #
coedge $-1 $341 $336 $333 $466 forward $331 $-1 #
edge $-1 $469 38.896131744642602 $551 44.713076466109285 $465 $552 forward 7 unknown #
coedge $-1 $335 $334 $472 $553 reversed $143 $-1 #
edge $-1 $554 -149.37955870235305 $469 -141.67203129399024 $463 $555 forward 7 unknown #
vertex $-1 $337 $556 #
straight-curve $-1 68.8728346297098 -0.87574631283408522 14.289727445794831 0 -1 0 I I #
coedge $-1 $549 $338 $341 $476 reversed $461 $-1 #
coedge $-1 $338 $549 $467 $553 forward $461 $-1 #
vertex $-1 $339 $557 #
straight-curve $-1 74.689779351176497 3.3699414216458763 109.98656343402388 0 0 1 I I #
straight-curve $-1 -38.048403654941211 3.3699414216458763 107.23494386193008 0.75470957328743171 0 -0.6560590369687036 I I #
edge $-1 $551 -6.8729266729822172 $342 3.3699414216458763 $471 $558 forward 7 unknown #
point $-1 74.689779351176497 3.3699414216458763 14.289727445794817 #
point $-1 68.872834629709814 3.3699414216458763 14.28972744579481 #
edge $-1 $559 1 $559 0 $345 $-1 forward 7 unknown #
vertex $-1 $346 $560 #
ellipse-curve $-1 68.300221740832015 -1.7514926256681704 7.7569005328264842 0.6560590369687036 0 0.75470957328743171 1.1320643599311475 0 -0.9840885554530554 1 I I #
point $-1 72.913371350374305 -1.7514926256681704 10.777342385871593 #
plane-surface $-1 74.689779351176497 0 0 -1 0 0 0 0 1 forward_v I I I I #
coedge $-1 $354 $352 $356 $488 reversed $241 $-1 #
edge $-1 $367 -14.289727445794817 $490 14.289727445794817 $366 $561 forward 7 unknown #
vertex $-1 $488 $562 #
straight-curve $-1 -74.689779351176497 -43.995555565444739 0 0 0 -1 I I #
edge $-1 $486 -43.995555565444739 $490 43.995555565444739 $484 $563 forward 7 unknown #
straight-curve $-1 0 -43.995555565444739 -14.289727445794817 -1 0 0 I I #
vertex $-1 $359 $564 #
straight-curve $-1 0 43.995555565444739 -14.289727445794817 1 0 0 I I #
point $-1 74.689779351176497 43.995555565444739 -14.289727445794817 #
point $-1 74.689779351176497 -43.995555565444739 -14.289727445794817 #
straight-curve $-1 -74.689779351176497 0 14.289727445794817 0 -1 0 I I #
point $-1 -74.689779351176497 43.995555565444739 14.289727445794817 #
point $-1 -74.689779351176497 -43.995555565444739 14.289727445794817 #
straight-curve $-1 74.689779351176497 -43.995555565444739 0 0 0 -1 I I #
straight-curve $-1 74.689779351176497 43.995555565444739 0 0 0 -1 I I #
loop $-1 $-1 $382 $376 #
plane-surface $-1 0 -43.995555565444739 0 0 1 0 0 0 1 forward_v I I I I #
coedge $-1 $393 $384 $380 $503 forward $377 $-1 #
edge $-1 $507 -25.79565215044579 $388 -10.604154679552106 $379 $565 forward 7 unknown #
edge $-1 $389 10.604154679552106 $506 25.79565215044579 $501 $566 forward 7 unknown #
coedge $-1 $391 $382 $396 $516 reversed $499 $-1 #
coedge $-1 $382 $391 $393 $514 reversed $499 $-1 #
vertex $-1 $514 $567 #
vertex $-1 $383 $568 #
straight-curve $-1 -47.530918204102569 -43.995555565444739 0 0 0 1 I I #
straight-curve $-1 -25.250230992927023 -28.804058094551056 -14.289727445794817 1 0 0 I I #
straight-curve $-1 -25.250230992927023 -28.804058094551056 14.289727445794817 -1 0 0 I I #
point $-1 -47.530918204102569 -28.804058094551056 14.289727445794817 #
point $-1 -47.530918204102569 -28.804058094551056 -14.289727445794817 #
straight-curve $-1 -53.470005767605521 -43.995555565444739 0 0 0 -1 I I #
edge $-1 $506 47.530918204102569 $394 53.470005767605521 $505 $569 forward 7 unknown #
point $-1 -53.470005767605521 -43.995555565444739 -14.289727445794817 #
edge $-1 $397 -53.470005767605521 $507 -47.530918204102569 $504 $570 forward 7 unknown #
point $-1 -53.470005767605521 -43.995555565444739 14.289727445794817 #
edge $-1 $519 26.858227849871035 $522 35.788203101483113 $402 $571 forward 7 unknown #
vertex $-1 $416 $572 #
straight-curve $-1 -101.36652681725803 -11.709774787091348 14.289727445794817 -1 0 0 I I #
edge $-1 $522 2.6957736309699492 $413 15.332228681272849 $412 $573 forward 7 unknown #
vertex $-1 $521 $574 #
straight-curve $-1 -74.689779351176526 -11.709774787091348 5.3597521941826898 0.51503806187062418 0 0.85716730853699208 I I #
point $-1 -69.324109078481499 -11.709774787091348 14.289727445794817 #
point $-1 -74.689779351176497 -24.346229837394247 5.3597521941827369 #
straight-curve $-1 -74.689779351176497 0 14.289727445794817 0 -1 0 I I #
vertex $-1 $419 $575 #
point $-1 -69.455522317603823 -21.818938827333668 9.4583243187989261 #
vertex $-1 $423 $576 #
point $-1 -69.455522317603823 -18.028002312242798 9.4583243187989261 #
vertex $-1 $427 $577 #
point $-1 -69.455522317603823 -14.237065797151928 9.4583243187989261 #
coedge $-1 $442 $441 $434 $534 forward $431 $-1 #
edge $-1 $535 26.858227849871035 $538 35.788203101483113 $533 $578 forward 7 unknown #
vertex $-1 $446 $579 #
straight-curve $-1 -101.36652681725803 24.690032042906552 14.289727445794817 -1 0 0 I I #
edge $-1 $538 -15.504129784029001 $443 -2.8676747337261013 $442 $580 forward 7 unknown #
vertex $-1 $537 $581 #
straight-curve $-1 -74.689779351176526 24.690032042906552 5.3597521941826898 0.51503806187062418 0 0.85716730853699208 I I #
point $-1 -69.324109078481499 24.690032042906552 14.289727445794817 #
point $-1 -74.689779351176497 12.053576992603652 5.3597521941827369 #
straight-curve $-1 -74.689779351176497 0 14.289727445794817 0 -1 0 I I #
vertex $-1 $449 $582 #
point $-1 -69.455522317603823 14.580868002664232 9.4583243187989261 #
vertex $-1 $453 $583 #
point $-1 -69.455522317603823 18.371804517755102 9.4583243187989261 #
vertex $-1 $457 $584 #
point $-1 -69.455522317603823 22.162741032845979 9.4583243187989261 #
coedge $-1 $472 $471 $464 $550 forward $461 $-1 #
edge $-1 $551 95.696835988229054 $554 100.75342899716945 $549 $585 forward 7 unknown #
vertex $-1 $476 $586 #
straight-curve $-1 29.976702885067212 -6.8729266729822172 14.289727445794824 1 0 0 I I #
edge $-1 $554 -5.9971803601481319 $473 4.2456877344799615 $472 $587 forward 7 unknown #
vertex $-1 $553 $588 #
straight-curve $-1 -38.048403654941211 -6.8729266729822172 107.23494386193008 -0.75470957328743171 0 0.6560590369687036 I I #
point $-1 68.872834629709814 -6.8729266729822172 14.28972744579481 #
point $-1 74.689779351176497 3.3699414216458763 9.2331344368544279 #
straight-curve $-1 74.689779351176497 0 14.289727445794817 0 1 0 I I #
vertex $-1 $479 $589 #
point $-1 69.432286100763164 -1.7514926256681704 6.7728119773734283 #
straight-curve $-1 -74.689779351176497 43.995555565444739 0 0 0 -1 I I #
point $-1 -74.689779351176497 -43.995555565444739 -14.289727445794817 #
straight-curve $-1 -74.689779351176497 0 -14.289727445794817 0 1 0 I I #
point $-1 -74.689779351176497 43.995555565444739 -14.289727445794817 #
straight-curve $-1 -47.530918204102569 -18.19990341499895 14.289727445794817 0 1 0 I I #
straight-curve $-1 -47.530918204102569 -18.19990341499895 -14.289727445794817 0 -1 0 I I #
point $-1 -47.530918204102569 -43.995555565444739 -14.289727445794817 #
point $-1 -47.530918204102569 -43.995555565444739 14.289727445794817 #
straight-curve $-1 0 -43.995555565444739 -14.289727445794817 -1 0 0 I I #
straight-curve $-1 0 -43.995555565444739 14.289727445794817 1 0 0 I I #
straight-curve $-1 -74.689779351176497 -11.709774787091348 41.147955295665852 0 0 -1 I I #
point $-1 -74.689779351176497 -11.709774787091348 14.289727445794817 #
straight-curve $-1 -74.689779351176497 -9.0140011561213989 5.3597521941827289 0 -1 0 I I #
point $-1 -74.689779351176497 -11.709774787091348 5.3597521941827369 #
point $-1 -69.113393070937462 -21.818938827333668 8.0861189483913112 #
point $-1 -69.113393070937462 -18.028002312242798 8.0861189483913112 #
point $-1 -69.113393070937462 -14.237065797151928 8.0861189483913112 #
straight-curve $-1 -74.689779351176497 24.690032042906552 41.147955295665852 0 0 -1 I I #
point $-1 -74.689779351176497 24.690032042906552 14.289727445794817 #
straight-curve $-1 -74.689779351176497 9.185902258877551 5.3597521941827289 0 -1 0 I I #
point $-1 -74.689779351176497 24.690032042906552 5.3597521941827369 #
point $-1 -69.113393070937462 14.580868002664232 8.0861189483913112 #
point $-1 -69.113393070937462 18.371804517755102 8.0861189483913112 #
point $-1 -69.113393070937462 22.162741032845979 8.0861189483913112 #
straight-curve $-1 74.689779351176497 -6.8729266729822172 109.98656343402388 0 0 -1 I I #
point $-1 74.689779351176497 -6.8729266729822172 14.289727445794817 #
straight-curve $-1 74.689779351176483 -0.87574631283408522 9.2331344368544279 0 1 0 I I #
point $-1 74.689779351176497 -6.8729266729822172 9.2331344368544279 #
point $-1 67.316133185378973 -1.7514926256681704 6.6248361728953364 #
End-of-ACIS-data 