500 0 9 0           
7 Unknown 11 ACIS 5.0 NT 24 Fri Mar 26 17:50:27 1999 
-1 9.9999999999999995e-007 1e-010 
body $-1 $9 $-1 $10 #
body $-1 $11 $-1 $12 #
body $-1 $13 $-1 $14 #
body $-1 $15 $-1 $16 #
body $-1 $17 $-1 $18 #
body $-1 $19 $-1 $20 #
body $-1 $21 $-1 $22 #
body $-1 $23 $-1 $24 #
body $-1 $25 $-1 $26 #
lump $-1 $-1 $27 $0 #
transform $-1 1 0 0 0 1 0 0 0 1 48.406018250068669 21.923123631539934 6.309312666944936 1 rotate no_reflect no_shear #
lump $-1 $-1 $28 $1 #
transform $-1 1 0 0 0 1 0 0 0 1 48.406018250068669 21.923123631539934 6.309312666944936 1 rotate no_reflect no_shear #
lump $-1 $-1 $29 $2 #
transform $-1 1 0 0 0 1 0 0 0 1 48.406018250068669 21.923123631539934 6.309312666944936 1 rotate no_reflect no_shear #
lump $-1 $-1 $30 $3 #
transform $-1 1 0 0 0 1 0 0 0 1 48.406018250068669 21.923123631539934 6.309312666944936 1 rotate no_reflect no_shear #
lump $-1 $-1 $31 $4 #
transform $-1 1 0 0 0 1 0 0 0 1 48.406018250068669 21.923123631539934 6.309312666944936 1 rotate no_reflect no_shear #
lump $-1 $-1 $32 $5 #
transform $-1 1 0 0 0 1 0 0 0 1 48.406018250068669 21.923123631539934 6.309312666944936 1 rotate no_reflect no_shear #
lump $-1 $-1 $33 $6 #
transform $-1 1 0 0 0 1 0 0 0 1 48.406018250068669 21.923123631539934 6.309312666944936 1 rotate no_reflect no_shear #
lump $-1 $-1 $34 $7 #
transform $-1 1 0 0 0 1 0 0 0 1 48.406018250068669 21.923123631539934 6.309312666944936 1 rotate no_reflect no_shear #
lump $-1 $-1 $35 $8 #
transform $-1 1 0 0 0 1 0 0 0 1 48.406018250068669 21.923123631539934 6.309312666944936 1 rotate no_reflect no_shear #
shell $-1 $-1 $-1 $36 $-1 $9 #
shell $-1 $-1 $-1 $37 $-1 $11 #
shell $-1 $-1 $-1 $38 $-1 $13 #
shell $-1 $-1 $-1 $39 $-1 $15 #
shell $-1 $-1 $-1 $40 $-1 $17 #
shell $-1 $-1 $-1 $41 $-1 $19 #
shell $-1 $-1 $-1 $42 $-1 $21 #
shell $-1 $-1 $-1 $43 $-1 $23 #
shell $-1 $-1 $-1 $44 $-1 $25 #
face $-1 $45 $46 $27 $-1 $47 forward single #
face $-1 $48 $49 $28 $-1 $50 reversed single #
face $-1 $51 $52 $29 $-1 $53 reversed single #
face $-1 $54 $55 $30 $-1 $56 reversed single #
face $-1 $57 $58 $31 $-1 $59 forward single #
face $-1 $60 $61 $32 $-1 $62 reversed single #
face $-1 $63 $64 $33 $-1 $65 forward single #
face $-1 $66 $67 $34 $-1 $68 forward single #
face $-1 $69 $70 $35 $-1 $71 forward single #
face $-1 $72 $73 $27 $-1 $74 reversed single #
loop $-1 $-1 $75 $36 #
plane-surface $-1 0 0 6.309312666944936 0 0 1 1 0 0 forward_v I I I I #
face $-1 $76 $77 $28 $-1 $78 reversed single #
loop $-1 $-1 $79 $37 #
plane-surface $-1 0 -18.134382048967364 3.309312666944936 0 0 1 1 0 0 forward_v I I I I #
face $-1 $80 $81 $29 $-1 $82 reversed single #
loop $-1 $-1 $83 $38 #
plane-surface $-1 0 18.134382048967364 3.309312666944936 0 0 1 1 0 0 forward_v I I I I #
face $-1 $84 $85 $30 $-1 $86 reversed single #
loop $-1 $-1 $87 $39 #
plane-surface $-1 -106.6689569753954 -2.022457071849896 78.401512040594227 0 1 0 -0.6018150307709319 0 0.79863550430605224 forward_v I I I I #
face $-1 $88 $89 $31 $-1 $90 forward single #
loop $-1 $91 $92 $40 #
cone-surface $-1 -43.485328660210293 1.2579598781957344 1.7677004231509357 0.6018150307709319 0 -0.79863550430605224 1.1979532564590785 0 0.90272254615639791 1 I I 0 1 1.5 forward I I I I #
face $-1 $93 $94 $32 $-1 $95 reversed single #
loop $-1 $-1 $96 $41 #
plane-surface $-1 65.091504691749719 10.290977132425315 137.25469230453217 0 -1 0 -0.78801076186113728 0 -0.61566146476048833 forward_v I I I I #
face $-1 $97 $98 $33 $-1 $99 forward single #
loop $-1 $100 $101 $42 #
cone-surface $-1 45.946619639477376 3.6873964221658859 3.424164629483895 -0.78801076186113728 0 -0.61566146476048833 0.30783073238024417 0 -0.39400538093056864 1 I I 0 1 0.5 forward I I I I #
face $-1 $102 $103 $34 $-1 $104 forward single #
loop $-1 $105 $106 $43 #
cone-surface $-1 45.946619639477376 6.1637391885131727 3.424164629483895 -0.78801076186113728 0 -0.61566146476048833 0.30783073238024417 0 -0.39400538093056864 1 I I 0 1 0.5 forward I I I I #
face $-1 $107 $108 $35 $-1 $109 forward single #
loop $-1 $110 $111 $44 #
cone-surface $-1 45.946619639477376 8.6400819548604595 3.424164629483895 -0.78801076186113728 0 -0.61566146476048833 0.30783073238024417 0 -0.39400538093056864 1 I I 0 1 0.5 forward I I I I #
face $-1 $112 $113 $27 $-1 $114 reversed single #
loop $-1 $-1 $115 $45 #
plane-surface $-1 0 0 -6.309312666944936 0 0 1 1 0 0 forward_v I I I I #
coedge $-1 $116 $117 $118 $119 forward $46 $-1 #
face $-1 $120 $121 $28 $-1 $122 reversed single #
loop $-1 $-1 $123 $48 #
plane-surface $-1 0 -14.345640466394794 4.809312666944936 0 -1 0 0 0 -1 forward_v I I I I #
coedge $-1 $124 $125 $126 $127 reversed $49 $-1 #
face $-1 $128 $129 $29 $-1 $130 forward single #
loop $-1 $-1 $131 $51 #
plane-surface $-1 0 14.345640466394794 4.809312666944936 0 1 0 0 0 1 forward_v I I I I #
coedge $-1 $132 $133 $134 $135 reversed $52 $-1 #
face $-1 $136 $137 $30 $-1 $138 reversed single #
loop $-1 $-1 $139 $54 #
plane-surface $-1 -48.406018250068669 1.2579598781957344 1.0839824474111026 -0.6018150307709319 0 0.79863550430605224 0.79863550430605224 0 0.6018150307709319 forward_v I I I I #
coedge $-1 $140 $141 $142 $143 reversed $55 $-1 #
face $-1 $-1 $144 $31 $-1 $145 forward single #
loop $-1 $146 $147 $57 #
cone-surface $-1 -41.580401433000475 1.2579598781957344 -0.76022333910569362 0.6018150307709319 0 -0.79863550430605224 0.59897662822953923 0 0.45136127307819895 1 I I -0.70710678118654757 0.70710678118654757 0.75 forward I I I I #
loop $-1 $-1 $148 $40 #
coedge $-1 $92 $92 $149 $150 reversed $58 $-1 #
face $-1 $151 $152 $32 $-1 $153 reversed single #
loop $-1 $-1 $154 $60 #
plane-surface $-1 -11.197421948051741 6.1637391885131727 77.651252106411761 0.78801076186113728 0 0.61566146476048833 0.61566146476048833 0 -0.78801076186113728 forward_v I I I I #
coedge $-1 $155 $156 $157 $158 reversed $61 $-1 #
face $-1 $-1 $159 $33 $-1 $160 forward single #
loop $-1 $161 $162 $63 #
cone-surface $-1 45.222723282081759 3.6873964221658859 2.8585948260000409 -0.78801076186113728 0 -0.61566146476048833 0.15391536619012208 0 -0.19700269046528432 1 I I -0.70710678118654746 0.70710678118654746 0.25 forward I I I I #
loop $-1 $-1 $163 $42 #
coedge $-1 $101 $101 $164 $165 reversed $64 $-1 #
face $-1 $-1 $166 $34 $-1 $167 forward single #
loop $-1 $168 $169 $66 #
cone-surface $-1 45.222723282081759 6.1637391885131727 2.8585948260000409 -0.78801076186113728 0 -0.61566146476048833 0.15391536619012208 0 -0.19700269046528432 1 I I -0.70710678118654746 0.70710678118654746 0.25 forward I I I I #
loop $-1 $-1 $170 $43 #
coedge $-1 $106 $106 $171 $172 reversed $67 $-1 #
face $-1 $-1 $173 $35 $-1 $174 forward single #
loop $-1 $175 $176 $69 #
cone-surface $-1 45.222723282081759 8.6400819548604595 2.8585948260000409 -0.78801076186113728 0 -0.61566146476048833 0.15391536619012208 0 -0.19700269046528432 1 I I -0.70710678118654746 0.70710678118654746 0.25 forward I I I I #
loop $-1 $-1 $177 $44 #
coedge $-1 $111 $111 $178 $179 reversed $70 $-1 #
face $-1 $180 $181 $27 $-1 $182 reversed single #
loop $-1 $-1 $183 $72 #
plane-surface $-1 0 -21.923123631539934 0 0 1 0 0 0 1 forward_v I I I I #
coedge $-1 $184 $185 $186 $187 forward $73 $-1 #
coedge $-1 $188 $75 $189 $190 forward $46 $-1 #
coedge $-1 $75 $188 $191 $192 forward $46 $-1 #
coedge $-1 $193 $194 $75 $119 reversed $195 $-1 #
edge $-1 $196 -21.923123631539934 $197 21.923123631539934 $118 $198 forward 7 unknown #
face $-1 $199 $200 $28 $-1 $201 reversed single #
loop $-1 $-1 $202 $76 #
plane-surface $-1 -48.406018250068669 0 0 1 0 0 0 0 -1 forward_v I I I I #
coedge $-1 $203 $204 $205 $206 reversed $77 $-1 #
coedge $-1 $207 $79 $208 $209 reversed $49 $-1 #
coedge $-1 $79 $207 $203 $210 forward $49 $-1 #
coedge $-1 $205 $211 $79 $127 forward $212 $-1 #
edge $-1 $213 -12.855932607056252 $214 -5.2784494419111123 $126 $215 forward 7 unknown #
face $-1 $216 $217 $29 $-1 $218 reversed single #
loop $-1 $-1 $219 $80 #
plane-surface $-1 0 0 6.309312666944936 0 0 1 1 0 0 forward_v I I I I #
coedge $-1 $220 $221 $222 $223 reversed $81 $-1 #
coedge $-1 $224 $83 $220 $225 forward $52 $-1 #
coedge $-1 $83 $224 $226 $227 reversed $52 $-1 #
coedge $-1 $228 $229 $83 $135 forward $217 $-1 #
edge $-1 $230 5.2784494419111123 $231 12.855932607056252 $134 $232 forward 7 unknown #
face $-1 $233 $234 $30 $-1 $235 reversed single #
loop $-1 $-1 $236 $84 #
plane-surface $-1 -106.6689569753954 4.5383768282413648 78.401512040594227 0 -1 0 0.6018150307709319 0 -0.79863550430605224 forward_v I I I I #
coedge $-1 $237 $238 $239 $240 reversed $85 $-1 #
coedge $-1 $141 $87 $241 $242 reversed $55 $-1 #
coedge $-1 $87 $140 $237 $243 reversed $55 $-1 #
coedge $-1 $239 $244 $87 $143 forward $245 $-1 #
edge $-1 $246 4.9284602376290323 $247 11.862707509082561 $142 $248 forward 7 unknown #
loop $-1 $-1 $149 $88 #
plane-surface $-1 -48.406018250068669 1.2579598781957344 1.0839824474111026 -0.6018150307709319 0 0.79863550430605224 0.79863550430605224 0 0.6018150307709319 forward_v I I I I #
loop $-1 $-1 $249 $57 #
coedge $-1 $147 $147 $148 $250 reversed $89 $-1 #
coedge $-1 $148 $148 $147 $250 forward $91 $-1 #
coedge $-1 $149 $149 $92 $150 forward $144 $-1 #
edge $-1 $251 0 $251 6.2831853071796004 $149 $252 forward 7 unknown #
face $-1 $253 $254 $32 $-1 $255 forward single #
loop $-1 $-1 $256 $93 #
plane-surface $-1 65.091504691749719 2.0365012446010304 137.25469230453217 0 1 0 0.78801076186113728 0 0.61566146476048833 forward_v I I I I #
coedge $-1 $257 $258 $259 $260 reversed $94 $-1 #
coedge $-1 $156 $96 $261 $262 reversed $61 $-1 #
coedge $-1 $96 $155 $257 $263 reversed $61 $-1 #
coedge $-1 $259 $264 $96 $158 forward $254 $-1 #
edge $-1 $265 -15.86026590419381 $266 -11.995256016871856 $157 $267 forward 7 unknown #
loop $-1 $-1 $164 $97 #
plane-surface $-1 -11.197421948051741 6.1637391885131727 77.651252106411761 0.78801076186113728 0 0.61566146476048833 0.61566146476048833 0 -0.78801076186113728 forward_v I I I I #
loop $-1 $-1 $268 $63 #
coedge $-1 $162 $162 $163 $269 reversed $98 $-1 #
coedge $-1 $163 $163 $162 $269 forward $100 $-1 #
coedge $-1 $164 $164 $101 $165 forward $159 $-1 #
edge $-1 $270 0 $270 6.2831853071796004 $164 $271 forward 7 unknown #
loop $-1 $-1 $171 $102 #
plane-surface $-1 -11.197421948051741 6.1637391885131727 77.651252106411761 0.78801076186113728 0 0.61566146476048833 0.61566146476048833 0 -0.78801076186113728 forward_v I I I I #
loop $-1 $-1 $272 $66 #
coedge $-1 $169 $169 $170 $273 reversed $103 $-1 #
coedge $-1 $170 $170 $169 $273 forward $105 $-1 #
coedge $-1 $171 $171 $106 $172 forward $166 $-1 #
edge $-1 $274 0 $274 6.2831853071796004 $171 $275 forward 7 unknown #
loop $-1 $-1 $178 $107 #
plane-surface $-1 -11.197421948051741 6.1637391885131727 77.651252106411761 0.78801076186113728 0 0.61566146476048833 0.61566146476048833 0 -0.78801076186113728 forward_v I I I I #
loop $-1 $-1 $276 $69 #
coedge $-1 $176 $176 $177 $277 reversed $108 $-1 #
coedge $-1 $177 $177 $176 $277 forward $110 $-1 #
coedge $-1 $178 $178 $111 $179 forward $173 $-1 #
edge $-1 $278 0 $278 6.2831853071796004 $178 $279 forward 7 unknown #
face $-1 $280 $281 $27 $-1 $282 reversed single #
loop $-1 $-1 $283 $112 #
plane-surface $-1 -48.406018250068669 0 0 1 0 0 0 0 -1 forward_v I I I I #
coedge $-1 $284 $191 $285 $286 forward $113 $-1 #
coedge $-1 $287 $115 $284 $288 forward $73 $-1 #
coedge $-1 $115 $287 $289 $290 forward $73 $-1 #
coedge $-1 $194 $193 $115 $187 reversed $195 $-1 #
edge $-1 $291 -21.923123631539934 $292 21.923123631539934 $186 $293 forward 7 unknown #
coedge $-1 $117 $116 $294 $295 forward $46 $-1 #
coedge $-1 $296 $297 $116 $190 reversed $281 $-1 #
edge $-1 $197 -48.406018250068669 $298 48.406018250068669 $189 $299 forward 7 unknown #
coedge $-1 $183 $300 $117 $192 reversed $113 $-1 #
edge $-1 $301 -48.406018250068669 $196 48.406018250068669 $191 $302 forward 7 unknown #
coedge $-1 $186 $118 $300 $303 forward $195 $-1 #
coedge $-1 $118 $186 $296 $304 reversed $195 $-1 #
loop $-1 $-1 $193 $280 #
vertex $-1 $119 $305 #
vertex $-1 $119 $306 #
straight-curve $-1 48.406018250068669 0 6.309312666944936 0 1 0 I I #
face $-1 $307 $308 $28 $-1 $309 forward single #
loop $-1 $-1 $208 $120 #
plane-surface $-1 0 -21.923123631539934 0 0 1 0 0 0 1 forward_v I I I I #
coedge $-1 $310 $311 $312 $313 forward $121 $-1 #
coedge $-1 $312 $123 $125 $210 reversed $77 $-1 #
coedge $-1 $123 $312 $314 $315 reversed $77 $-1 #
coedge $-1 $316 $126 $123 $206 forward $212 $-1 #
edge $-1 $214 0.90465633347246799 $317 3.904656333472468 $205 $318 forward 7 unknown #
coedge $-1 $125 $124 $310 $319 reversed $49 $-1 #
coedge $-1 $320 $321 $124 $209 forward $200 $-1 #
edge $-1 $322 -48.406018250068669 $213 48.406018250068669 $208 $323 forward 7 unknown #
edge $-1 $324 -48.406018250068669 $214 48.406018250068669 $203 $325 forward 7 unknown #
coedge $-1 $126 $316 $320 $326 forward $212 $-1 #
loop $-1 $-1 $205 $307 #
vertex $-1 $209 $327 #
vertex $-1 $127 $328 #
straight-curve $-1 48.406018250068669 -9.067191024483682 3.309312666944936 0 1 0 I I #
face $-1 $329 $330 $29 $-1 $331 reversed single #
loop $-1 $-1 $229 $128 #
plane-surface $-1 48.406018250068669 0 0 -1 0 0 0 0 1 forward_v I I I I #
coedge $-1 $332 $333 $221 $334 forward $129 $-1 #
coedge $-1 $335 $131 $132 $225 reversed $81 $-1 #
coedge $-1 $131 $335 $219 $334 reversed $81 $-1 #
coedge $-1 $336 $337 $131 $223 forward $330 $-1 #
edge $-1 $338 0.90465633347246799 $339 3.904656333472468 $222 $340 forward 7 unknown #
coedge $-1 $133 $132 $337 $341 reversed $52 $-1 #
edge $-1 $230 -48.406018250068669 $338 48.406018250068669 $220 $342 forward 7 unknown #
coedge $-1 $343 $344 $133 $227 forward $345 $-1 #
edge $-1 $231 -48.406018250068669 $346 48.406018250068669 $226 $347 forward 7 unknown #
coedge $-1 $348 $134 $344 $349 reversed $217 $-1 #
coedge $-1 $134 $348 $335 $350 forward $217 $-1 #
vertex $-1 $135 $351 #
vertex $-1 $227 $352 #
straight-curve $-1 48.406018250068669 9.067191024483682 3.309312666944936 0 1 0 I I #
face $-1 $-1 $245 $30 $-1 $353 forward single #
loop $-1 $-1 $354 $136 #
plane-surface $-1 -48.406018250068669 0 0 1 0 0 0 0 -1 forward_v I I I I #
coedge $-1 $355 $356 $357 $358 reversed $137 $-1 #
coedge $-1 $359 $139 $141 $243 forward $85 $-1 #
coedge $-1 $139 $359 $355 $360 forward $85 $-1 #
coedge $-1 $357 $142 $139 $240 forward $245 $-1 #
edge $-1 $247 -2.6514370109477632 $361 3.9093968891434976 $239 $362 forward 7 unknown #
coedge $-1 $363 $364 $140 $242 forward $234 $-1 #
edge $-1 $365 -38.116773572886011 $246 -32.89144335335218 $241 $366 forward 7 unknown #
edge $-1 $247 -8.6826183334771905 $365 0 $141 $367 forward 7 unknown #
coedge $-1 $142 $357 $363 $368 forward $245 $-1 #
loop $-1 $-1 $357 $233 #
vertex $-1 $242 $369 #
vertex $-1 $143 $370 #
straight-curve $-1 -53.334478487697702 -2.022457071849896 6.3093126669449333 1 0 0 I I #
coedge $-1 $249 $249 $-1 $371 reversed $146 $-1 #
edge $-1 $372 0 $372 6.2831853071796004 $147 $373 forward 7 unknown #
vertex $-1 $150 $374 #
ellipse-curve $-1 -44.938894614341905 1.2579598781957344 3.696647557178018 -0.6018150307709319 0 0.79863550430605224 1.1979532564590785 0 0.90272254615639791 1 I I #
face $-1 $-1 $375 $32 $-1 $376 reversed single #
loop $-1 $-1 $157 $151 #
plane-surface $-1 0 0 6.309312666944936 0 0 1 1 0 0 forward_v I I I I #
coedge $-1 $377 $378 $379 $380 reversed $152 $-1 #
coedge $-1 $381 $154 $156 $263 forward $94 $-1 #
coedge $-1 $154 $381 $377 $382 forward $94 $-1 #
coedge $-1 $379 $157 $154 $260 forward $254 $-1 #
edge $-1 $266 -7.2091075381687286 $383 1.0453683496555559 $259 $384 forward 7 unknown #
coedge $-1 $385 $386 $155 $262 forward $375 $-1 #
edge $-1 $387 -67.265020685655784 $265 -62.318033485321152 $261 $388 forward 7 unknown #
edge $-1 $266 90.534219698941939 $387 96.812036500137339 $156 $389 forward 7 unknown #
coedge $-1 $157 $379 $385 $390 forward $254 $-1 #
vertex $-1 $262 $391 #
vertex $-1 $158 $392 #
straight-curve $-1 32.54575234587486 10.290977132425315 6.3093126669449333 -1 0 0 I I #
coedge $-1 $268 $268 $-1 $393 reversed $161 $-1 #
edge $-1 $394 0 $394 6.2831853071796004 $162 $395 forward 7 unknown #
vertex $-1 $165 $396 #
ellipse-curve $-1 46.473513306407689 3.6873964221658859 3.8358190667776157 0.78801076186113728 0 0.61566146476048833 0.30783073238024417 0 -0.39400538093056864 1 I I #
coedge $-1 $272 $272 $-1 $397 reversed $168 $-1 #
edge $-1 $398 0 $398 6.2831853071796004 $169 $399 forward 7 unknown #
vertex $-1 $172 $400 #
ellipse-curve $-1 46.473513306407689 6.1637391885131727 3.8358190667776157 0.78801076186113728 0 0.61566146476048833 0.30783073238024417 0 -0.39400538093056864 1 I I #
coedge $-1 $276 $276 $-1 $401 reversed $175 $-1 #
edge $-1 $402 0 $402 6.2831853071796004 $176 $403 forward 7 unknown #
vertex $-1 $179 $404 #
ellipse-curve $-1 46.473513306407689 8.6400819548604595 3.8358190667776157 0.78801076186113728 0 0.61566146476048833 0.30783073238024417 0 -0.39400538093056864 1 I I #
face $-1 $-1 $195 $27 $-1 $405 reversed single #
loop $-1 $-1 $296 $180 #
plane-surface $-1 0 21.923123631539934 0 0 -1 0 0 0 -1 forward_v I I I I #
coedge $-1 $406 $294 $297 $407 forward $181 $-1 #
coedge $-1 $300 $183 $184 $288 reversed $113 $-1 #
coedge $-1 $294 $406 $183 $286 reversed $181 $-1 #
edge $-1 $301 -6.309312666944936 $408 6.309312666944936 $285 $409 forward 7 unknown #
coedge $-1 $185 $184 $406 $410 forward $73 $-1 #
edge $-1 $292 -48.406018250068669 $408 48.406018250068669 $284 $411 forward 7 unknown #
coedge $-1 $297 $296 $185 $290 reversed $281 $-1 #
edge $-1 $412 -48.406018250068669 $291 48.406018250068669 $289 $413 forward 7 unknown #
vertex $-1 $187 $414 #
vertex $-1 $303 $415 #
straight-curve $-1 48.406018250068669 0 -6.309312666944936 0 -1 0 I I #
coedge $-1 $283 $285 $188 $295 reversed $181 $-1 #
edge $-1 $298 -21.923123631539934 $301 21.923123631539934 $294 $416 forward 7 unknown #
coedge $-1 $289 $189 $194 $304 forward $281 $-1 #
coedge $-1 $189 $289 $283 $407 reversed $281 $-1 #
vertex $-1 $190 $417 #
straight-curve $-1 0 21.923123631539934 6.309312666944936 -1 0 0 I I #
coedge $-1 $191 $284 $193 $303 reversed $113 $-1 #
vertex $-1 $295 $418 #
straight-curve $-1 0 -21.923123631539934 6.309312666944936 1 0 0 I I #
edge $-1 $196 -6.309312666944936 $292 6.309312666944936 $193 $419 forward 7 unknown #
edge $-1 $197 -6.309312666944936 $291 6.309312666944936 $194 $420 forward 7 unknown #
point $-1 48.406018250068669 -21.923123631539934 6.309312666944936 #
point $-1 48.406018250068669 21.923123631539934 6.309312666944936 #
face $-1 $-1 $212 $28 $-1 $421 reversed single #
loop $-1 $-1 $314 $199 #
plane-surface $-1 0 0 6.309312666944936 0 0 1 1 0 0 forward_v I I I I #
coedge $-1 $422 $202 $207 $319 forward $121 $-1 #
coedge $-1 $202 $422 $423 $424 reversed $121 $-1 #
coedge $-1 $204 $203 $202 $313 reversed $77 $-1 #
edge $-1 $425 -3.904656333472468 $324 -0.90465633347246799 $202 $426 forward 7 unknown #
coedge $-1 $423 $427 $204 $315 forward $308 $-1 #
edge $-1 $317 -48.406018250068669 $425 48.406018250068669 $314 $428 forward 7 unknown #
coedge $-1 $211 $205 $427 $429 reversed $212 $-1 #
vertex $-1 $206 $430 #
straight-curve $-1 48.406018250068669 -14.345640466394794 2.404656333472468 0 0 1 I I #
edge $-1 $324 5.2784494419111123 $322 12.855932607056252 $310 $431 forward 7 unknown #
coedge $-1 $432 $208 $211 $326 reversed $200 $-1 #
coedge $-1 $208 $432 $422 $433 forward $200 $-1 #
vertex $-1 $209 $434 #
straight-curve $-1 0 -21.923123631539934 3.309312666944936 1 0 0 I I #
vertex $-1 $319 $435 #
straight-curve $-1 0 -14.345640466394794 3.309312666944936 1 0 0 I I #
edge $-1 $436 -6.309312666944936 $213 -3.309312666944936 $211 $437 forward 7 unknown #
point $-1 48.406018250068669 -21.923123631539934 3.309312666944936 #
point $-1 48.406018250068669 -14.345640466394794 3.309312666944936 #
face $-1 $-1 $345 $29 $-1 $438 reversed single #
loop $-1 $-1 $222 $216 #
plane-surface $-1 -48.406018250068669 0 0 1 0 0 0 0 -1 forward_v I I I I #
coedge $-1 $439 $219 $348 $440 forward $129 $-1 #
coedge $-1 $219 $439 $336 $441 forward $129 $-1 #
edge $-1 $339 -48.406018250068669 $442 48.406018250068669 $219 $443 forward 7 unknown #
coedge $-1 $221 $220 $229 $350 reversed $81 $-1 #
coedge $-1 $444 $222 $333 $441 reversed $330 $-1 #
coedge $-1 $222 $444 $224 $341 forward $330 $-1 #
vertex $-1 $341 $445 #
vertex $-1 $223 $446 #
straight-curve $-1 -48.406018250068669 14.345640466394794 2.404656333472468 0 0 1 I I #
edge $-1 $346 -12.855932607056252 $338 -5.2784494419111123 $337 $447 forward 7 unknown #
straight-curve $-1 0 14.345640466394794 3.309312666944936 -1 0 0 I I #
coedge $-1 $448 $226 $444 $449 reversed $345 $-1 #
coedge $-1 $226 $448 $228 $349 forward $345 $-1 #
loop $-1 $-1 $226 $329 #
vertex $-1 $227 $450 #
straight-curve $-1 0 21.923123631539934 3.309312666944936 -1 0 0 I I #
coedge $-1 $229 $228 $332 $440 reversed $217 $-1 #
edge $-1 $451 -6.309312666944936 $231 -3.309312666944936 $228 $452 forward 7 unknown #
edge $-1 $442 -3.904656333472468 $230 -0.90465633347246799 $229 $453 forward 7 unknown #
point $-1 48.406018250068669 14.345640466394794 3.309312666944936 #
point $-1 48.406018250068669 21.923123631539934 3.309312666944936 #
plane-surface $-1 0 0 6.309312666944936 0 0 1 1 0 0 forward_v I I I I #
coedge $-1 $364 $363 $356 $454 forward $234 $-1 #
coedge $-1 $356 $236 $238 $360 reversed $137 $-1 #
coedge $-1 $236 $355 $354 $454 reversed $137 $-1 #
coedge $-1 $244 $239 $236 $358 forward $245 $-1 #
edge $-1 $361 -11.862707509082561 $455 -4.9284602376290323 $357 $456 forward 7 unknown #
coedge $-1 $238 $237 $364 $457 reversed $85 $-1 #
edge $-1 $458 0 $361 8.6826183334771905 $355 $459 forward 7 unknown #
vertex $-1 $240 $460 #
straight-curve $-1 -41.47177097861514 0.6289799390978672 6.3093126669449369 0 1 0 I I #
coedge $-1 $354 $241 $244 $368 reversed $234 $-1 #
coedge $-1 $241 $354 $359 $457 forward $234 $-1 #
vertex $-1 $242 $461 #
straight-curve $-1 -48.406018250068669 -2.022457071849896 39.200756020297113 0 0 1 I I #
straight-curve $-1 -48.406018250068669 -2.022457071849896 1.0839824474111026 -0.79863550430605224 0 -0.6018150307709319 I I #
edge $-1 $455 -4.5383768282413648 $246 2.022457071849896 $363 $462 forward 7 unknown #
point $-1 -48.406018250068669 -2.022457071849896 6.309312666944936 #
point $-1 -41.47177097861514 -2.022457071849896 6.3093126669449351 #
edge $-1 $463 1 $463 0 $249 $-1 forward 7 unknown #
vertex $-1 $250 $464 #
ellipse-curve $-1 -42.031762706078673 1.2579598781957344 -0.16124671087615439 -0.6018150307709319 0 0.79863550430605224 1.1979532564590785 0 0.90272254615639791 1 I I #
point $-1 -43.740941357882832 1.2579598781957344 4.5993701033344232 #
loop $-1 $-1 $261 $253 #
plane-surface $-1 48.406018250068669 0 0 -1 0 0 0 0 1 forward_v I I I I #
coedge $-1 $378 $256 $258 $382 reversed $152 $-1 #
coedge $-1 $256 $377 $465 $466 reversed $152 $-1 #
coedge $-1 $264 $259 $256 $380 forward $254 $-1 #
edge $-1 $383 11.995256016871856 $467 15.86026590419381 $379 $468 forward 7 unknown #
coedge $-1 $258 $257 $386 $469 reversed $94 $-1 #
edge $-1 $470 -96.812036500137339 $383 -90.534219698941939 $377 $471 forward 7 unknown #
vertex $-1 $260 $472 #
straight-curve $-1 44.541008362746723 3.0818695942565864 6.3093126669449333 0 -1 0 I I #
coedge $-1 $465 $261 $264 $390 reversed $375 $-1 #
coedge $-1 $261 $465 $381 $469 forward $375 $-1 #
vertex $-1 $262 $473 #
straight-curve $-1 48.406018250068669 10.290977132425315 68.627346152266085 0 0 1 I I #
straight-curve $-1 -11.197421948051741 10.290977132425315 77.651252106411761 0.61566146476048833 0 -0.78801076186113728 I I #
edge $-1 $467 2.0365012446010304 $265 10.290977132425315 $385 $474 forward 7 unknown #
point $-1 48.406018250068669 10.290977132425315 6.309312666944936 #
point $-1 44.541008362746716 10.290977132425315 6.3093126669449333 #
edge $-1 $475 1 $475 0 $268 $-1 forward 7 unknown #
vertex $-1 $269 $476 #
ellipse-curve $-1 45.419725972547042 3.6873964221658859 3.0125101921901631 0.78801076186113728 0 0.61566146476048833 0.30783073238024417 0 -0.39400538093056864 1 I I #
point $-1 46.78134403878795 3.6873964221658859 3.4418136858470589 #
edge $-1 $477 1 $477 0 $272 $-1 forward 7 unknown #
vertex $-1 $273 $478 #
ellipse-curve $-1 45.419725972547042 6.1637391885131727 3.0125101921901631 0.78801076186113728 0 0.61566146476048833 0.30783073238024417 0 -0.39400538093056864 1 I I #
point $-1 46.78134403878795 6.1637391885131727 3.4418136858470589 #
edge $-1 $479 1 $479 0 $276 $-1 forward 7 unknown #
vertex $-1 $277 $480 #
ellipse-curve $-1 45.419725972547042 8.6400819548604595 3.0125101921901631 0.78801076186113728 0 0.61566146476048833 0.30783073238024417 0 -0.39400538093056864 1 I I #
point $-1 46.78134403878795 8.6400819548604595 3.4418136858470589 #
plane-surface $-1 48.406018250068669 0 0 -1 0 0 0 0 1 forward_v I I I I #
coedge $-1 $285 $283 $287 $410 reversed $181 $-1 #
edge $-1 $298 -6.309312666944936 $412 6.309312666944936 $297 $481 forward 7 unknown #
vertex $-1 $410 $482 #
straight-curve $-1 -48.406018250068669 -21.923123631539934 0 0 0 -1 I I #
edge $-1 $408 -21.923123631539934 $412 21.923123631539934 $406 $483 forward 7 unknown #
straight-curve $-1 0 -21.923123631539934 -6.309312666944936 -1 0 0 I I #
vertex $-1 $290 $484 #
straight-curve $-1 0 21.923123631539934 -6.309312666944936 1 0 0 I I #
point $-1 48.406018250068669 21.923123631539934 -6.309312666944936 #
point $-1 48.406018250068669 -21.923123631539934 -6.309312666944936 #
straight-curve $-1 -48.406018250068669 0 6.309312666944936 0 -1 0 I I #
point $-1 -48.406018250068669 21.923123631539934 6.309312666944936 #
point $-1 -48.406018250068669 -21.923123631539934 6.309312666944936 #
straight-curve $-1 48.406018250068669 -21.923123631539934 0 0 0 -1 I I #
straight-curve $-1 48.406018250068669 21.923123631539934 0 0 0 -1 I I #
plane-surface $-1 48.406018250068669 0 0 -1 0 0 0 0 1 forward_v I I I I #
coedge $-1 $311 $310 $321 $433 reversed $121 $-1 #
coedge $-1 $485 $314 $311 $424 forward $308 $-1 #
edge $-1 $425 14.345640466394794 $486 21.923123631539934 $311 $487 forward 7 unknown #
vertex $-1 $424 $488 #
straight-curve $-1 -48.406018250068669 -14.345640466394794 2.404656333472468 0 0 -1 I I #
coedge $-1 $314 $485 $316 $429 forward $308 $-1 #
straight-curve $-1 0 -14.345640466394794 6.309312666944936 -1 0 0 I I #
edge $-1 $436 -21.923123631539934 $317 -14.345640466394794 $316 $489 forward 7 unknown #
point $-1 48.406018250068669 -14.345640466394794 6.309312666944936 #
straight-curve $-1 -48.406018250068669 -9.067191024483682 3.309312666944936 0 -1 0 I I #
coedge $-1 $321 $320 $485 $490 reversed $200 $-1 #
edge $-1 $486 -6.309312666944936 $322 -3.309312666944936 $422 $491 forward 7 unknown #
point $-1 -48.406018250068669 -21.923123631539934 3.309312666944936 #
point $-1 -48.406018250068669 -14.345640466394794 3.309312666944936 #
vertex $-1 $429 $492 #
straight-curve $-1 48.406018250068669 -21.923123631539934 0 0 0 -1 I I #
plane-surface $-1 0 21.923123631539934 0 0 -1 0 0 0 -1 forward_v I I I I #
coedge $-1 $333 $332 $448 $493 forward $129 $-1 #
edge $-1 $442 14.345640466394794 $451 21.923123631539934 $348 $494 forward 7 unknown #
edge $-1 $495 -21.923123631539934 $339 -14.345640466394794 $336 $496 forward 7 unknown #
vertex $-1 $440 $497 #
straight-curve $-1 0 14.345640466394794 6.309312666944936 1 0 0 I I #
coedge $-1 $337 $336 $343 $449 forward $330 $-1 #
point $-1 -48.406018250068669 14.345640466394794 3.309312666944936 #
point $-1 -48.406018250068669 14.345640466394794 6.309312666944936 #
straight-curve $-1 -48.406018250068669 9.067191024483682 3.309312666944936 0 -1 0 I I #
coedge $-1 $344 $343 $439 $493 reversed $345 $-1 #
edge $-1 $495 -6.309312666944936 $346 -3.309312666944936 $343 $498 forward 7 unknown #
point $-1 -48.406018250068669 21.923123631539934 3.309312666944936 #
vertex $-1 $440 $499 #
straight-curve $-1 48.406018250068669 21.923123631539934 0 0 0 -1 I I #
straight-curve $-1 48.406018250068669 14.345640466394794 2.404656333472468 0 0 -1 I I #
edge $-1 $455 32.89144335335218 $458 38.116773572886011 $354 $500 forward 7 unknown #
vertex $-1 $368 $501 #
straight-curve $-1 -53.334478487697702 4.5383768282413648 6.3093126669449333 -1 0 0 I I #
edge $-1 $458 -3.9093968891434976 $365 2.6514370109477632 $364 $502 forward 7 unknown #
vertex $-1 $457 $503 #
straight-curve $-1 -48.406018250068669 4.5383768282413648 1.0839824474111026 0.79863550430605224 0 0.6018150307709319 I I #
point $-1 -41.47177097861514 4.5383768282413648 6.3093126669449351 #
point $-1 -48.406018250068669 -2.022457071849896 1.0839824474111026 #
straight-curve $-1 -48.406018250068669 0 6.309312666944936 0 -1 0 I I #
vertex $-1 $371 $504 #
point $-1 -40.833809449619594 1.2579598781957344 0.74147583528024352 #
coedge $-1 $386 $385 $378 $466 forward $375 $-1 #
edge $-1 $467 62.318033485321152 $470 67.265020685655784 $465 $505 forward 7 unknown #
vertex $-1 $390 $506 #
straight-curve $-1 32.54575234587486 2.0365012446010304 6.3093126669449333 1 0 0 I I #
edge $-1 $470 -1.0453683496555559 $387 7.2091075381687286 $386 $507 forward 7 unknown #
vertex $-1 $469 $508 #
straight-curve $-1 -11.197421948051741 2.0365012446010304 77.651252106411761 -0.61566146476048833 0 0.78801076186113728 I I #
point $-1 44.541008362746716 2.0365012446010304 6.3093126669449333 #
point $-1 48.406018250068676 10.290977132425315 1.3623254666103009 #
straight-curve $-1 48.406018250068669 0 6.309312666944936 0 1 0 I I #
vertex $-1 $393 $509 #
point $-1 45.727556704927288 3.6873964221658859 2.6185048112595943 #
vertex $-1 $397 $510 #
point $-1 45.727556704927288 6.1637391885131727 2.6185048112595943 #
vertex $-1 $401 $511 #
point $-1 45.727556704927288 8.6400819548604595 2.6185048112595943 #
straight-curve $-1 -48.406018250068669 21.923123631539934 0 0 0 -1 I I #
point $-1 -48.406018250068669 -21.923123631539934 -6.309312666944936 #
straight-curve $-1 -48.406018250068669 0 -6.309312666944936 0 1 0 I I #
point $-1 -48.406018250068669 21.923123631539934 -6.309312666944936 #
coedge $-1 $427 $423 $432 $490 forward $308 $-1 #
vertex $-1 $424 $512 #
straight-curve $-1 -48.406018250068669 0 6.309312666944936 0 -1 0 I I #
point $-1 -48.406018250068669 -14.345640466394794 6.309312666944936 #
straight-curve $-1 48.406018250068669 0 6.309312666944936 0 1 0 I I #
edge $-1 $486 -48.406018250068669 $436 48.406018250068669 $432 $513 forward 7 unknown #
straight-curve $-1 -48.406018250068669 -21.923123631539934 0 0 0 -1 I I #
point $-1 48.406018250068669 -21.923123631539934 6.309312666944936 #
edge $-1 $451 -48.406018250068669 $495 48.406018250068669 $448 $514 forward 7 unknown #
straight-curve $-1 48.406018250068669 0 6.309312666944936 0 1 0 I I #
vertex $-1 $493 $515 #
straight-curve $-1 -48.406018250068669 0 6.309312666944936 0 -1 0 I I #
point $-1 48.406018250068669 14.345640466394794 6.309312666944936 #
straight-curve $-1 -48.406018250068669 21.923123631539934 0 0 0 -1 I I #
point $-1 48.406018250068669 21.923123631539934 6.309312666944936 #
straight-curve $-1 -48.406018250068669 4.5383768282413648 39.200756020297113 0 0 -1 I I #
point $-1 -48.406018250068669 4.5383768282413648 6.309312666944936 #
straight-curve $-1 -48.406018250068669 0.6289799390978672 1.0839824474111006 0 -1 0 I I #
point $-1 -48.406018250068669 4.5383768282413648 1.0839824474111026 #
point $-1 -41.129040159922276 1.2579598781957344 -1.3591999673352329 #
straight-curve $-1 48.406018250068669 2.0365012446010304 68.627346152266085 0 0 -1 I I #
point $-1 48.406018250068669 2.0365012446010304 6.309312666944936 #
straight-curve $-1 48.406018250068669 3.0818695942565864 1.362325466610308 0 1 0 I I #
point $-1 48.406018250068676 2.0365012446010304 1.3623254666103009 #
point $-1 45.025720591616476 3.6873964221658859 2.7046794598099186 #
point $-1 45.025720591616476 6.1637391885131727 2.7046794598099186 #
point $-1 45.025720591616476 8.6400819548604595 2.7046794598099186 #
point $-1 -48.406018250068669 -21.923123631539934 6.309312666944936 #
straight-curve $-1 0 -21.923123631539934 6.309312666944936 1 0 0 I I #
straight-curve $-1 0 21.923123631539934 6.309312666944936 -1 0 0 I I #
point $-1 -48.406018250068669 21.923123631539934 6.309312666944936 #
End-of-ACIS-data 