500 0 9 0           
7 Unknown 11 ACIS 5.0 NT 24 Thu Mar 25 17:34:34 1999 
-1 9.9999999999999995e-007 1e-010 
body $-1 $9 $-1 $10 #
body $-1 $11 $-1 $12 #
body $-1 $13 $-1 $14 #
body $-1 $15 $-1 $16 #
body $-1 $17 $-1 $18 #
body $-1 $19 $-1 $20 #
body $-1 $21 $-1 $22 #
body $-1 $23 $-1 $24 #
body $-1 $25 $-1 $26 #
lump $-1 $-1 $27 $0 #
transform $-1 1 0 0 0 1 0 0 0 1 61.842707602160715 38.743841981221216 14.975150568931141 1 rotate no_reflect no_shear #
lump $-1 $-1 $28 $1 #
transform $-1 1 0 0 0 1 0 0 0 1 61.842707602160715 38.743841981221216 14.975150568931141 1 rotate no_reflect no_shear #
lump $-1 $-1 $29 $2 #
transform $-1 1 0 0 0 1 0 0 0 1 61.842707602160715 38.743841981221216 14.975150568931141 1 rotate no_reflect no_shear #
lump $-1 $-1 $30 $3 #
transform $-1 1 0 0 0 1 0 0 0 1 61.842707602160715 38.743841981221216 14.975150568931141 1 rotate no_reflect no_shear #
lump $-1 $-1 $31 $4 #
transform $-1 1 0 0 0 1 0 0 0 1 61.842707602160715 38.743841981221216 14.975150568931141 1 rotate no_reflect no_shear #
lump $-1 $-1 $32 $5 #
transform $-1 1 0 0 0 1 0 0 0 1 61.842707602160715 38.743841981221216 14.975150568931141 1 rotate no_reflect no_shear #
lump $-1 $-1 $33 $6 #
transform $-1 1 0 0 0 1 0 0 0 1 61.842707602160715 38.743841981221216 14.975150568931141 1 rotate no_reflect no_shear #
lump $-1 $-1 $34 $7 #
transform $-1 1 0 0 0 1 0 0 0 1 61.842707602160715 38.743841981221216 14.975150568931141 1 rotate no_reflect no_shear #
lump $-1 $-1 $35 $8 #
transform $-1 1 0 0 0 1 0 0 0 1 61.842707602160715 38.743841981221216 14.975150568931141 1 rotate no_reflect no_shear #
shell $-1 $-1 $-1 $36 $-1 $9 #
shell $-1 $-1 $-1 $37 $-1 $11 #
shell $-1 $-1 $-1 $38 $-1 $13 #
shell $-1 $-1 $-1 $39 $-1 $15 #
shell $-1 $-1 $-1 $40 $-1 $17 #
shell $-1 $-1 $-1 $41 $-1 $19 #
shell $-1 $-1 $-1 $42 $-1 $21 #
shell $-1 $-1 $-1 $43 $-1 $23 #
shell $-1 $-1 $-1 $44 $-1 $25 #
face $-1 $45 $46 $27 $-1 $47 forward single #
face $-1 $48 $49 $28 $-1 $50 forward single #
face $-1 $51 $52 $29 $-1 $53 reversed single #
face $-1 $54 $55 $30 $-1 $56 forward single #
face $-1 $57 $58 $31 $-1 $59 forward single #
face $-1 $60 $61 $32 $-1 $62 reversed single #
face $-1 $63 $64 $33 $-1 $65 forward single #
face $-1 $66 $67 $34 $-1 $68 reversed single #
face $-1 $69 $70 $35 $-1 $71 forward single #
face $-1 $72 $73 $27 $-1 $74 reversed single #
loop $-1 $-1 $75 $36 #
plane-surface $-1 0 0 14.975150568931141 0 0 1 1 0 0 forward_v I I I I #
face $-1 $76 $77 $28 $-1 $78 reversed single #
loop $-1 $-1 $79 $37 #
plane-surface $-1 0 -38.743841981221216 0 0 1 0 0 0 1 forward_v I I I I #
face $-1 $80 $81 $29 $-1 $82 reversed single #
loop $-1 $-1 $83 $38 #
plane-surface $-1 -163.15986932154925 5.9888949343367237 81.219147857971208 0 1 0 -0.81915205242281985 0 0.57357642473473569 forward_v I I I I #
face $-1 $84 $85 $30 $-1 $86 forward single #
loop $-1 $87 $88 $39 #
cone-surface $-1 -59.52908692841406 8.1556742807074798 12.157563230857015 0.81915205242281985 0 -0.57357642473473569 0.57357642473473569 0 0.81915205242281985 1 I I 0 1 1 forward I I I I #
face $-1 $89 $90 $31 $-1 $91 forward single #
loop $-1 $92 $93 $40 #
cone-surface $-1 -59.52908692841406 11.405843300263619 12.157563230857015 0.81915205242281985 0 -0.57357642473473569 0.57357642473473569 0 0.81915205242281985 1 I I 0 1 1 forward I I I I #
face $-1 $94 $95 $32 $-1 $96 reversed single #
loop $-1 $-1 $97 $41 #
plane-surface $-1 74.044344195964925 3.0833570337995901 181.27450816149701 0 -1 0 -0.75470958851134928 0 -0.65605901945558964 forward_v I I I I #
face $-1 $98 $99 $33 $-1 $100 forward single #
loop $-1 $101 $102 $42 #
cone-surface $-1 55.464421411235229 -1.0103263845503108 8.4297544681454823 -0.75470958851134928 0 -0.65605901945558964 1.3121180389111793 0 -1.5094191770226986 1 I I 0 1 2 forward I I I I #
face $-1 $103 $104 $34 $-1 $105 reversed single #
loop $-1 $-1 $106 $43 #
plane-surface $-1 74.044344195964925 36.585123953320917 181.27450816149701 0 -1 0 -0.75470958851134928 0 -0.65605901945558964 forward_v I I I I #
face $-1 $107 $108 $35 $-1 $109 forward single #
loop $-1 $110 $111 $44 #
cone-surface $-1 55.464421411235229 32.491440534971026 8.4297544681454823 -0.75470958851134928 0 -0.65605901945558964 1.3121180389111793 0 -1.5094191770226986 1 I I 0 1 2 forward I I I I #
face $-1 $112 $113 $27 $-1 $114 reversed single #
loop $-1 $-1 $115 $45 #
plane-surface $-1 0 0 -14.975150568931141 0 0 1 1 0 0 forward_v I I I I #
coedge $-1 $116 $117 $118 $119 forward $46 $-1 #
face $-1 $120 $121 $28 $-1 $122 reversed single #
loop $-1 $-1 $123 $48 #
plane-surface $-1 0 0 -14.975150568931141 0 0 1 1 0 0 forward_v I I I I #
coedge $-1 $124 $125 $126 $127 forward $49 $-1 #
face $-1 $128 $129 $29 $-1 $130 reversed single #
loop $-1 $-1 $131 $51 #
plane-surface $-1 -61.842707602160701 9.7807587904855566 10.276109613245211 -0.81915205242281985 0 0.57357642473473569 0.57357642473473569 0 0.81915205242281985 forward_v I I I I #
coedge $-1 $132 $133 $134 $135 reversed $52 $-1 #
face $-1 $-1 $136 $30 $-1 $137 forward single #
loop $-1 $138 $139 $54 #
cone-surface $-1 -58.45104212856576 8.1556742807074798 11.402708158258484 0.81915205242281985 0 -0.57357642473473569 0.28678821236736785 0 0.40957602621140993 1 I I -0.70710678118654746 0.70710678118654746 0.5 forward I I I I #
loop $-1 $-1 $140 $39 #
coedge $-1 $88 $88 $141 $142 reversed $55 $-1 #
face $-1 $-1 $143 $31 $-1 $144 forward single #
loop $-1 $145 $146 $57 #
cone-surface $-1 -58.45104212856576 11.405843300263619 11.402708158258484 0.81915205242281985 0 -0.57357642473473569 0.28678821236736785 0 0.40957602621140993 1 I I -0.70710678118654746 0.70710678118654746 0.5 forward I I I I #
loop $-1 $-1 $147 $40 #
coedge $-1 $93 $93 $148 $149 reversed $58 $-1 #
face $-1 $150 $151 $32 $-1 $152 reversed single #
loop $-1 $-1 $153 $60 #
plane-surface $-1 -19.302224617743889 -1.0103263845503179 100.12957594159242 0.75470958851134928 0 0.65605901945558964 0.65605901945558964 0 -0.75470958851134928 forward_v I I I I #
coedge $-1 $154 $155 $156 $157 reversed $61 $-1 #
face $-1 $-1 $158 $33 $-1 $159 forward single #
loop $-1 $160 $161 $63 #
cone-surface $-1 51.892086364739612 -1.0103263845503108 5.3243710684280074 -0.75470958851134928 0 -0.65605901945558964 0.65605901945558964 0 -0.75470958851134928 1 I I -0.70710678118654746 0.70710678118654746 1 forward I I I I #
loop $-1 $-1 $162 $42 #
coedge $-1 $102 $102 $163 $164 reversed $64 $-1 #
face $-1 $165 $166 $34 $-1 $167 reversed single #
loop $-1 $-1 $168 $66 #
plane-surface $-1 -19.302224617743889 32.491440534971012 100.12957594159242 0.75470958851134928 0 0.65605901945558964 0.65605901945558964 0 -0.75470958851134928 forward_v I I I I #
coedge $-1 $169 $170 $171 $172 reversed $67 $-1 #
face $-1 $-1 $173 $35 $-1 $174 forward single #
loop $-1 $175 $176 $69 #
cone-surface $-1 51.892086364739612 32.491440534971026 5.3243710684280074 -0.75470958851134928 0 -0.65605901945558964 0.65605901945558964 0 -0.75470958851134928 1 I I -0.70710678118654746 0.70710678118654746 1 forward I I I I #
loop $-1 $-1 $177 $44 #
coedge $-1 $111 $111 $178 $179 reversed $70 $-1 #
face $-1 $180 $181 $27 $-1 $182 reversed single #
loop $-1 $-1 $183 $72 #
plane-surface $-1 0 -38.743841981221216 0 0 1 0 0 0 1 forward_v I I I I #
coedge $-1 $184 $185 $186 $187 forward $73 $-1 #
coedge $-1 $188 $75 $189 $190 forward $46 $-1 #
coedge $-1 $75 $188 $191 $192 forward $46 $-1 #
coedge $-1 $193 $194 $75 $119 reversed $195 $-1 #
edge $-1 $196 -38.743841981221216 $197 38.743841981221216 $118 $198 forward 7 unknown #
face $-1 $199 $200 $28 $-1 $201 forward single #
loop $-1 $-1 $202 $76 #
plane-surface $-1 61.842707602160715 0 0 -1 0 0 0 0 1 forward_v I I I I #
coedge $-1 $203 $204 $205 $206 forward $77 $-1 #
coedge $-1 $205 $79 $202 $207 reversed $49 $-1 #
coedge $-1 $79 $205 $208 $209 reversed $49 $-1 #
coedge $-1 $210 $211 $79 $127 reversed $200 $-1 #
edge $-1 $212 -61.842707602160715 $213 61.842707602160715 $126 $214 forward 7 unknown #
face $-1 $215 $216 $29 $-1 $217 forward single #
loop $-1 $-1 $218 $80 #
plane-surface $-1 -163.15986932154925 13.57262264663439 81.219147857971208 0 -1 0 0.81915205242281985 0 -0.57357642473473569 forward_v I I I I #
coedge $-1 $219 $220 $221 $222 reversed $81 $-1 #
coedge $-1 $133 $83 $223 $224 reversed $52 $-1 #
coedge $-1 $83 $132 $219 $225 reversed $52 $-1 #
coedge $-1 $221 $226 $83 $135 forward $216 $-1 #
edge $-1 $227 19.737227058613911 $228 23.027530858833458 $134 $229 forward 7 unknown #
loop $-1 $-1 $141 $84 #
plane-surface $-1 -61.842707602160701 9.7807587904855566 10.276109613245211 -0.81915205242281985 0 0.57357642473473569 0.57357642473473569 0 0.81915205242281985 forward_v I I I I #
loop $-1 $-1 $230 $54 #
coedge $-1 $139 $139 $140 $231 reversed $85 $-1 #
coedge $-1 $140 $140 $139 $231 forward $87 $-1 #
coedge $-1 $141 $141 $88 $142 forward $136 $-1 #
edge $-1 $232 0 $232 6.2831853071796004 $141 $233 forward 7 unknown #
loop $-1 $-1 $148 $89 #
plane-surface $-1 -61.842707602160701 9.7807587904855566 10.276109613245211 -0.81915205242281985 0 0.57357642473473569 0.57357642473473569 0 0.81915205242281985 forward_v I I I I #
loop $-1 $-1 $234 $57 #
coedge $-1 $146 $146 $147 $235 reversed $90 $-1 #
coedge $-1 $147 $147 $146 $235 forward $92 $-1 #
coedge $-1 $148 $148 $93 $149 forward $143 $-1 #
edge $-1 $236 0 $236 6.2831853071796004 $148 $237 forward 7 unknown #
face $-1 $238 $239 $32 $-1 $240 reversed single #
loop $-1 $-1 $241 $94 #
plane-surface $-1 74.044344195964925 -5.1040098029002259 181.27450816149701 0 1 0 0.75470958851134928 0 0.65605901945558964 forward_v I I I I #
coedge $-1 $242 $243 $244 $245 reversed $95 $-1 #
coedge $-1 $155 $97 $246 $247 reversed $61 $-1 #
coedge $-1 $97 $154 $242 $248 reversed $61 $-1 #
coedge $-1 $244 $249 $97 $157 forward $250 $-1 #
edge $-1 $251 -24.820535504178252 $252 -17.699214038295793 $156 $253 forward 7 unknown #
loop $-1 $-1 $163 $98 #
plane-surface $-1 -19.302224617743889 -1.0103263845503179 100.12957594159242 0.75470958851134928 0 0.65605901945558964 0.65605901945558964 0 -0.75470958851134928 forward_v I I I I #
loop $-1 $-1 $254 $63 #
coedge $-1 $161 $161 $162 $255 reversed $99 $-1 #
coedge $-1 $162 $162 $161 $255 forward $101 $-1 #
coedge $-1 $163 $163 $102 $164 forward $158 $-1 #
edge $-1 $256 0 $256 6.2831853071796004 $163 $257 forward 7 unknown #
face $-1 $258 $259 $34 $-1 $260 reversed single #
loop $-1 $-1 $261 $103 #
plane-surface $-1 74.044344195964925 28.397757116621104 181.27450816149701 0 1 0 0.75470958851134928 0 0.65605901945558964 forward_v I I I I #
coedge $-1 $262 $263 $264 $265 reversed $104 $-1 #
coedge $-1 $170 $106 $266 $267 reversed $67 $-1 #
coedge $-1 $106 $169 $262 $268 reversed $67 $-1 #
coedge $-1 $264 $269 $106 $172 forward $270 $-1 #
edge $-1 $271 -24.820535504178252 $272 -17.699214038295793 $171 $273 forward 7 unknown #
loop $-1 $-1 $178 $107 #
plane-surface $-1 -19.302224617743889 32.491440534971012 100.12957594159242 0.75470958851134928 0 0.65605901945558964 0.65605901945558964 0 -0.75470958851134928 forward_v I I I I #
loop $-1 $-1 $274 $69 #
coedge $-1 $176 $176 $177 $275 reversed $108 $-1 #
coedge $-1 $177 $177 $176 $275 forward $110 $-1 #
coedge $-1 $178 $178 $111 $179 forward $173 $-1 #
edge $-1 $276 0 $276 6.2831853071796004 $178 $277 forward 7 unknown #
face $-1 $278 $279 $27 $-1 $280 reversed single #
loop $-1 $-1 $281 $112 #
plane-surface $-1 -61.842707602160715 0 0 1 0 0 0 0 -1 forward_v I I I I #
coedge $-1 $282 $191 $283 $284 forward $113 $-1 #
coedge $-1 $285 $115 $282 $286 forward $73 $-1 #
coedge $-1 $115 $285 $287 $288 forward $73 $-1 #
coedge $-1 $194 $193 $115 $187 reversed $195 $-1 #
edge $-1 $289 -38.743841981221216 $290 38.743841981221216 $186 $291 forward 7 unknown #
coedge $-1 $117 $116 $292 $293 forward $46 $-1 #
coedge $-1 $294 $295 $116 $190 reversed $279 $-1 #
edge $-1 $197 -61.842707602160715 $296 61.842707602160715 $189 $297 forward 7 unknown #
coedge $-1 $183 $298 $117 $192 reversed $113 $-1 #
edge $-1 $299 -61.842707602160715 $196 61.842707602160715 $191 $300 forward 7 unknown #
coedge $-1 $186 $118 $298 $301 forward $195 $-1 #
coedge $-1 $118 $186 $294 $302 reversed $195 $-1 #
loop $-1 $-1 $193 $278 #
vertex $-1 $119 $303 #
vertex $-1 $119 $304 #
straight-curve $-1 61.842707602160715 0 14.975150568931141 0 1 0 I I #
face $-1 $305 $306 $28 $-1 $307 reversed single #
loop $-1 $-1 $211 $120 #
plane-surface $-1 0 -43.985917042921095 -9.4802250233979315 0 0 1 1 0 0 forward_v I I I I #
coedge $-1 $308 $309 $124 $207 forward $121 $-1 #
coedge $-1 $310 $123 $309 $311 forward $77 $-1 #
coedge $-1 $123 $310 $312 $313 forward $77 $-1 #
coedge $-1 $125 $124 $123 $206 reversed $49 $-1 #
edge $-1 $314 -61.842707602160715 $315 61.842707602160715 $123 $316 forward 7 unknown #
edge $-1 $315 -14.975150568931141 $213 -9.4802250233979315 $202 $317 forward 7 unknown #
coedge $-1 $312 $318 $125 $209 forward $319 $-1 #
edge $-1 $212 9.4802250233979315 $314 14.975150568931141 $208 $320 forward 7 unknown #
coedge $-1 $321 $126 $318 $322 forward $200 $-1 #
coedge $-1 $126 $321 $308 $323 forward $200 $-1 #
vertex $-1 $209 $324 #
vertex $-1 $323 $325 #
straight-curve $-1 0 -38.743841981221216 -9.4802250233979315 1 0 0 I I #
face $-1 $-1 $326 $29 $-1 $327 reversed single #
loop $-1 $-1 $134 $128 #
plane-surface $-1 0 0 14.975150568931141 0 0 1 1 0 0 forward_v I I I I #
coedge $-1 $328 $329 $330 $331 reversed $129 $-1 #
coedge $-1 $332 $131 $133 $225 forward $81 $-1 #
coedge $-1 $131 $332 $328 $333 forward $81 $-1 #
coedge $-1 $330 $134 $131 $222 forward $216 $-1 #
edge $-1 $228 1.0985155390939454 $334 8.6822432513916112 $221 $335 forward 7 unknown #
coedge $-1 $336 $337 $132 $224 forward $326 $-1 #
edge $-1 $338 -30.333464315740414 $227 -25.634423360054463 $223 $339 forward 7 unknown #
edge $-1 $228 -5.7364697332900523 $338 2.4157181099100639e-014 $133 $340 forward 7 unknown #
coedge $-1 $134 $330 $336 $341 forward $216 $-1 #
vertex $-1 $224 $342 #
vertex $-1 $135 $343 #
straight-curve $-1 -81.579934660774626 5.9888949343367237 14.975150568931141 1 0 0 I I #
coedge $-1 $230 $230 $-1 $344 reversed $138 $-1 #
edge $-1 $345 0 $345 6.2831853071796004 $139 $346 forward 7 unknown #
vertex $-1 $142 $347 #
ellipse-curve $-1 -60.197555702050941 8.1556742807074798 12.625630091088169 -0.81915205242281985 0 0.57357642473473569 0.57357642473473569 0 0.81915205242281985 1 I I #
coedge $-1 $234 $234 $-1 $348 reversed $145 $-1 #
edge $-1 $349 0 $349 6.2831853071796004 $146 $350 forward 7 unknown #
vertex $-1 $149 $351 #
ellipse-curve $-1 -60.197555702050941 11.405843300263619 12.625630091088169 -0.81915205242281985 0 0.57357642473473569 0.57357642473473569 0 0.81915205242281985 1 I I #
face $-1 $-1 $250 $32 $-1 $352 forward single #
loop $-1 $-1 $353 $150 #
plane-surface $-1 61.842707602160715 0 0 -1 0 0 0 0 1 forward_v I I I I #
coedge $-1 $354 $355 $356 $357 reversed $151 $-1 #
coedge $-1 $358 $153 $155 $248 forward $95 $-1 #
coedge $-1 $153 $358 $354 $359 forward $95 $-1 #
coedge $-1 $356 $156 $153 $245 forward $250 $-1 #
edge $-1 $252 -3.5885202260747491 $360 4.5988466106250669 $244 $361 forward 7 unknown #
coedge $-1 $362 $363 $154 $247 forward $239 $-1 #
edge $-1 $364 -83.854246952864898 $251 -75.662103511817364 $246 $365 forward 7 unknown #
edge $-1 $252 112.83071882076764 $364 123.68541520432147 $155 $366 forward 7 unknown #
coedge $-1 $156 $356 $362 $367 forward $250 $-1 #
loop $-1 $-1 $356 $238 #
vertex $-1 $247 $368 #
vertex $-1 $157 $369 #
straight-curve $-1 37.022172097982462 3.0833570337995901 14.975150568931141 -1 0 0 I I #
coedge $-1 $254 $254 $-1 $370 reversed $160 $-1 #
edge $-1 $371 0 $371 6.2831853071796004 $161 $372 forward 7 unknown #
vertex $-1 $164 $373 #
ellipse-curve $-1 58.282046869219492 -1.0103263845503108 10.879078848407367 0.75470958851134928 0 0.65605901945558964 1.3121180389111793 0 -1.5094191770226986 1 I I #
face $-1 $-1 $270 $34 $-1 $374 forward single #
loop $-1 $-1 $375 $165 #
plane-surface $-1 61.842707602160715 0 0 -1 0 0 0 0 1 forward_v I I I I #
coedge $-1 $376 $377 $378 $379 reversed $166 $-1 #
coedge $-1 $380 $168 $170 $268 forward $104 $-1 #
coedge $-1 $168 $380 $376 $381 forward $104 $-1 #
coedge $-1 $378 $171 $168 $265 forward $270 $-1 #
edge $-1 $272 -20.339403685835411 $382 -12.152036849135598 $264 $383 forward 7 unknown #
coedge $-1 $384 $385 $169 $267 forward $259 $-1 #
edge $-1 $386 -83.854246952864898 $271 -75.662103511817364 $266 $387 forward 7 unknown #
edge $-1 $272 112.83071882076764 $386 123.68541520432147 $170 $388 forward 7 unknown #
coedge $-1 $171 $378 $384 $389 forward $270 $-1 #
loop $-1 $-1 $378 $258 #
vertex $-1 $267 $390 #
vertex $-1 $172 $391 #
straight-curve $-1 37.022172097982462 36.585123953320917 14.975150568931141 -1 0 0 I I #
coedge $-1 $274 $274 $-1 $392 reversed $175 $-1 #
edge $-1 $393 0 $393 6.2831853071796004 $176 $394 forward 7 unknown #
vertex $-1 $179 $395 #
ellipse-curve $-1 58.282046869219492 32.491440534971026 10.879078848407367 0.75470958851134928 0 0.65605901945558964 1.3121180389111793 0 -1.5094191770226986 1 I I #
face $-1 $-1 $195 $27 $-1 $396 reversed single #
loop $-1 $-1 $294 $180 #
plane-surface $-1 0 38.743841981221216 0 0 -1 0 0 0 -1 forward_v I I I I #
coedge $-1 $397 $292 $295 $398 forward $181 $-1 #
coedge $-1 $298 $183 $184 $286 reversed $113 $-1 #
coedge $-1 $292 $397 $183 $284 reversed $181 $-1 #
edge $-1 $299 -14.975150568931141 $399 14.975150568931141 $283 $400 forward 7 unknown #
coedge $-1 $185 $184 $397 $401 forward $73 $-1 #
edge $-1 $290 -61.842707602160715 $399 61.842707602160715 $282 $402 forward 7 unknown #
coedge $-1 $295 $294 $185 $288 reversed $279 $-1 #
edge $-1 $403 -61.842707602160715 $289 61.842707602160715 $287 $404 forward 7 unknown #
vertex $-1 $187 $405 #
vertex $-1 $301 $406 #
straight-curve $-1 61.842707602160715 0 -14.975150568931141 0 -1 0 I I #
coedge $-1 $281 $283 $188 $293 reversed $181 $-1 #
edge $-1 $296 -38.743841981221216 $299 38.743841981221216 $292 $407 forward 7 unknown #
coedge $-1 $287 $189 $194 $302 forward $279 $-1 #
coedge $-1 $189 $287 $281 $398 reversed $279 $-1 #
vertex $-1 $190 $408 #
straight-curve $-1 0 38.743841981221216 14.975150568931141 -1 0 0 I I #
coedge $-1 $191 $282 $193 $301 reversed $113 $-1 #
vertex $-1 $293 $409 #
straight-curve $-1 0 -38.743841981221216 14.975150568931141 1 0 0 I I #
edge $-1 $196 -14.975150568931141 $290 14.975150568931141 $193 $410 forward 7 unknown #
edge $-1 $197 -14.975150568931141 $289 14.975150568931141 $194 $411 forward 7 unknown #
point $-1 61.842707602160715 -38.743841981221216 14.975150568931141 #
point $-1 61.842707602160715 38.743841981221216 14.975150568931141 #
face $-1 $-1 $319 $28 $-1 $412 reversed single #
loop $-1 $-1 $413 $199 #
plane-surface $-1 0 -49.227992104620974 -12.227687796164536 0 1 0 0 0 1 forward_v I I I I #
coedge $-1 $414 $202 $211 $323 reversed $121 $-1 #
coedge $-1 $202 $414 $203 $311 reversed $121 $-1 #
coedge $-1 $204 $203 $415 $416 forward $77 $-1 #
edge $-1 $315 38.743841981221216 $417 49.227992104620974 $309 $418 forward 7 unknown #
coedge $-1 $419 $208 $204 $313 reversed $319 $-1 #
edge $-1 $420 -49.227992104620974 $314 -38.743841981221216 $312 $421 forward 7 unknown #
vertex $-1 $209 $422 #
vertex $-1 $311 $423 #
straight-curve $-1 0 -38.743841981221216 -14.975150568931141 1 0 0 I I #
straight-curve $-1 61.842707602160715 -38.743841981221216 0 0 0 1 I I #
coedge $-1 $208 $419 $210 $322 reversed $319 $-1 #
loop $-1 $-1 $208 $305 #
straight-curve $-1 -61.842707602160715 -38.743841981221216 0 0 0 -1 I I #
coedge $-1 $211 $210 $424 $425 forward $200 $-1 #
edge $-1 $212 -5.2420750616998788 $426 5.2420750616998788 $318 $427 forward 7 unknown #
edge $-1 $428 -5.2420750616998788 $213 5.2420750616998788 $308 $429 forward 7 unknown #
point $-1 -61.842707602160715 -38.743841981221216 -9.4802250233979315 #
point $-1 61.842707602160715 -38.743841981221216 -9.4802250233979315 #
loop $-1 $-1 $223 $215 #
plane-surface $-1 -61.842707602160715 0 0 1 0 0 0 0 -1 forward_v I I I I #
coedge $-1 $329 $218 $220 $333 reversed $129 $-1 #
coedge $-1 $218 $328 $430 $431 reversed $129 $-1 #
coedge $-1 $226 $221 $218 $331 forward $216 $-1 #
edge $-1 $334 -23.027530858833458 $432 -19.737227058613911 $330 $433 forward 7 unknown #
coedge $-1 $220 $219 $337 $434 reversed $81 $-1 #
edge $-1 $435 -2.4157181099100639e-014 $334 5.7364697332900523 $328 $436 forward 7 unknown #
vertex $-1 $222 $437 #
straight-curve $-1 -58.552403801941175 4.8903793952427783 14.975150568931141 0 1 0 I I #
coedge $-1 $430 $223 $226 $341 reversed $326 $-1 #
coedge $-1 $223 $430 $332 $434 forward $326 $-1 #
vertex $-1 $224 $438 #
straight-curve $-1 -61.842707602160715 5.9888949343367237 40.609573928985604 0 0 1 I I #
straight-curve $-1 -61.842707602160701 5.9888949343367237 10.276109613245211 -0.57357642473473569 0 -0.81915205242281985 I I #
edge $-1 $432 -13.57262264663439 $227 -5.9888949343367237 $336 $439 forward 7 unknown #
point $-1 -61.842707602160715 5.9888949343367237 14.975150568931141 #
point $-1 -58.552403801941168 5.9888949343367237 14.975150568931141 #
edge $-1 $440 1 $440 0 $230 $-1 forward 7 unknown #
vertex $-1 $231 $441 #
ellipse-curve $-1 -58.860618154777171 8.1556742807074798 11.689496370625852 -0.81915205242281985 0 0.57357642473473569 0.57357642473473569 0 0.81915205242281985 1 I I #
point $-1 -59.623979277316216 8.1556742807074798 13.444782143510995 #
edge $-1 $442 1 $442 0 $234 $-1 forward 7 unknown #
vertex $-1 $235 $443 #
ellipse-curve $-1 -58.860618154777171 11.405843300263619 11.689496370625852 -0.81915205242281985 0 0.57357642473473569 0.57357642473473569 0 0.81915205242281985 1 I I #
point $-1 -59.623979277316216 11.405843300263619 13.444782143510995 #
plane-surface $-1 0 0 14.975150568931141 0 0 1 1 0 0 forward_v I I I I #
coedge $-1 $363 $362 $355 $444 forward $239 $-1 #
coedge $-1 $355 $241 $243 $359 reversed $151 $-1 #
coedge $-1 $241 $354 $353 $444 reversed $151 $-1 #
coedge $-1 $249 $244 $241 $357 forward $250 $-1 #
edge $-1 $360 17.699214038295793 $445 24.820535504178252 $356 $446 forward 7 unknown #
coedge $-1 $243 $242 $363 $447 reversed $95 $-1 #
edge $-1 $448 -123.68541520432147 $360 -112.83071882076764 $354 $449 forward 7 unknown #
vertex $-1 $245 $450 #
straight-curve $-1 54.721386136278255 -0.50516319227515893 14.975150568931141 0 -1 0 I I #
coedge $-1 $353 $246 $249 $367 reversed $239 $-1 #
coedge $-1 $246 $353 $358 $447 forward $239 $-1 #
vertex $-1 $247 $451 #
straight-curve $-1 61.842707602160715 3.0833570337995901 90.637254080748505 0 0 1 I I #
straight-curve $-1 -19.302224617743889 3.0833570337995901 100.12957594159242 0.65605901945558964 0 -0.75470958851134928 I I #
edge $-1 $445 -5.1040098029002259 $251 3.0833570337995901 $362 $452 forward 7 unknown #
point $-1 61.842707602160715 3.0833570337995901 14.975150568931141 #
point $-1 54.721386136278255 3.0833570337995901 14.975150568931141 #
edge $-1 $453 1 $453 0 $254 $-1 forward 7 unknown #
vertex $-1 $255 $454 #
ellipse-curve $-1 52.646795953250958 -1.0103263845503108 5.9804300878835974 0.75470958851134928 0 0.65605901945558964 1.3121180389111793 0 -1.5094191770226986 1 I I #
point $-1 59.594164908130665 -1.0103263845503108 9.3696596713846692 #
plane-surface $-1 0 0 14.975150568931141 0 0 1 1 0 0 forward_v I I I I #
coedge $-1 $385 $384 $377 $455 forward $259 $-1 #
coedge $-1 $377 $261 $263 $381 reversed $166 $-1 #
coedge $-1 $261 $376 $375 $455 reversed $166 $-1 #
coedge $-1 $269 $264 $261 $379 forward $270 $-1 #
edge $-1 $382 17.699214038295793 $456 24.820535504178252 $378 $457 forward 7 unknown #
coedge $-1 $263 $262 $385 $458 reversed $104 $-1 #
edge $-1 $459 -123.68541520432147 $382 -112.83071882076764 $376 $460 forward 7 unknown #
vertex $-1 $265 $461 #
straight-curve $-1 54.721386136278255 16.245720267485506 14.975150568931141 0 -1 0 I I #
coedge $-1 $375 $266 $269 $389 reversed $259 $-1 #
coedge $-1 $266 $375 $380 $458 forward $259 $-1 #
vertex $-1 $267 $462 #
straight-curve $-1 61.842707602160715 36.585123953320917 90.637254080748505 0 0 1 I I #
straight-curve $-1 -19.302224617743889 36.585123953320917 100.12957594159242 0.65605901945558964 0 -0.75470958851134928 I I #
edge $-1 $456 28.397757116621104 $271 36.585123953320917 $384 $463 forward 7 unknown #
point $-1 61.842707602160715 36.585123953320917 14.975150568931141 #
point $-1 54.721386136278255 36.585123953320917 14.975150568931141 #
edge $-1 $464 1 $464 0 $274 $-1 forward 7 unknown #
vertex $-1 $275 $465 #
ellipse-curve $-1 52.646795953250958 32.491440534971026 5.9804300878835974 0.75470958851134928 0 0.65605901945558964 1.3121180389111793 0 -1.5094191770226986 1 I I #
point $-1 59.594164908130665 32.491440534971026 9.3696596713846692 #
plane-surface $-1 61.842707602160715 0 0 -1 0 0 0 0 1 forward_v I I I I #
coedge $-1 $283 $281 $285 $401 reversed $181 $-1 #
edge $-1 $296 -14.975150568931141 $403 14.975150568931141 $295 $466 forward 7 unknown #
vertex $-1 $401 $467 #
straight-curve $-1 -61.842707602160715 -38.743841981221216 0 0 0 -1 I I #
edge $-1 $399 -38.743841981221216 $403 38.743841981221216 $397 $468 forward 7 unknown #
straight-curve $-1 0 -38.743841981221216 -14.975150568931141 -1 0 0 I I #
vertex $-1 $288 $469 #
straight-curve $-1 0 38.743841981221216 -14.975150568931141 1 0 0 I I #
point $-1 61.842707602160715 38.743841981221216 -14.975150568931141 #
point $-1 61.842707602160715 -38.743841981221216 -14.975150568931141 #
straight-curve $-1 -61.842707602160715 0 14.975150568931141 0 -1 0 I I #
point $-1 -61.842707602160715 38.743841981221216 14.975150568931141 #
point $-1 -61.842707602160715 -38.743841981221216 14.975150568931141 #
straight-curve $-1 61.842707602160715 -38.743841981221216 0 0 0 -1 I I #
straight-curve $-1 61.842707602160715 38.743841981221216 0 0 0 -1 I I #
plane-surface $-1 -61.842707602160715 0 0 1 0 0 0 0 -1 forward_v I I I I #
coedge $-1 $415 $424 $419 $470 forward $306 $-1 #
coedge $-1 $309 $308 $471 $472 forward $121 $-1 #
coedge $-1 $471 $413 $310 $416 reversed $306 $-1 #
edge $-1 $417 -61.842707602160715 $420 61.842707602160715 $415 $473 forward 7 unknown #
vertex $-1 $472 $474 #
straight-curve $-1 61.842707602160715 0 -14.975150568931141 0 -1 0 I I #
coedge $-1 $318 $312 $413 $470 reversed $319 $-1 #
vertex $-1 $313 $475 #
straight-curve $-1 -61.842707602160715 0 -14.975150568931141 0 1 0 I I #
point $-1 -61.842707602160715 -38.743841981221216 -14.975150568931141 #
point $-1 61.842707602160715 -38.743841981221216 -14.975150568931141 #
coedge $-1 $413 $471 $321 $425 reversed $306 $-1 #
edge $-1 $426 -61.842707602160715 $428 61.842707602160715 $424 $476 forward 7 unknown #
vertex $-1 $322 $477 #
straight-curve $-1 -61.842707602160715 -43.985917042921095 -9.4802250233979315 0 -1 0 I I #
vertex $-1 $323 $478 #
straight-curve $-1 61.842707602160715 -43.985917042921095 -9.4802250233979315 0 1 0 I I #
coedge $-1 $337 $336 $329 $431 forward $326 $-1 #
edge $-1 $432 25.634423360054463 $435 30.333464315740414 $430 $479 forward 7 unknown #
vertex $-1 $341 $480 #
straight-curve $-1 -81.579934660774626 13.57262264663439 14.975150568931141 -1 0 0 I I #
edge $-1 $435 -8.6822432513916112 $338 -1.0985155390939454 $337 $481 forward 7 unknown #
vertex $-1 $434 $482 #
straight-curve $-1 -61.842707602160701 13.57262264663439 10.276109613245211 0.57357642473473569 0 0.81915205242281985 I I #
point $-1 -58.552403801941168 13.57262264663439 14.975150568931141 #
point $-1 -61.842707602160715 5.9888949343367237 10.276109613245191 #
straight-curve $-1 -61.842707602160715 0 14.975150568931141 0 -1 0 I I #
vertex $-1 $344 $483 #
point $-1 -58.287041730042432 8.1556742807074798 12.508648423048673 #
vertex $-1 $348 $484 #
point $-1 -58.287041730042432 11.405843300263619 12.508648423048673 #
edge $-1 $445 75.662103511817364 $448 83.854246952864898 $353 $485 forward 7 unknown #
vertex $-1 $367 $486 #
straight-curve $-1 37.022172097982462 -5.1040098029002259 14.975150568931141 1 0 0 I I #
edge $-1 $448 -4.5988466106250669 $364 3.5885202260747491 $363 $487 forward 7 unknown #
vertex $-1 $447 $488 #
straight-curve $-1 -19.302224617743889 -5.1040098029002259 100.12957594159242 -0.65605901945558964 0 0.75470958851134928 I I #
point $-1 54.721386136278255 -5.1040098029002259 14.975150568931141 #
point $-1 61.842707602160715 3.0833570337995901 6.7830071278836073 #
straight-curve $-1 61.842707602160715 0 14.975150568931141 0 1 0 I I #
vertex $-1 $370 $489 #
point $-1 53.958913992162138 -1.0103263845503108 4.4710109108608984 #
edge $-1 $456 75.662103511817364 $459 83.854246952864898 $375 $490 forward 7 unknown #
vertex $-1 $389 $491 #
straight-curve $-1 37.022172097982462 28.397757116621104 14.975150568931141 1 0 0 I I #
edge $-1 $459 12.152036849135598 $386 20.339403685835411 $385 $492 forward 7 unknown #
vertex $-1 $458 $493 #
straight-curve $-1 -19.302224617743889 28.397757116621104 100.12957594159242 -0.65605901945558964 0 0.75470958851134928 I I #
point $-1 54.721386136278255 28.397757116621104 14.975150568931141 #
point $-1 61.842707602160715 36.585123953320917 6.7830071278836073 #
straight-curve $-1 61.842707602160715 0 14.975150568931141 0 1 0 I I #
vertex $-1 $392 $494 #
point $-1 53.958913992162138 32.491440534971026 4.4710109108608984 #
straight-curve $-1 -61.842707602160715 38.743841981221216 0 0 0 -1 I I #
point $-1 -61.842707602160715 -38.743841981221216 -14.975150568931141 #
straight-curve $-1 -61.842707602160715 0 -14.975150568931141 0 1 0 I I #
point $-1 -61.842707602160715 38.743841981221216 -14.975150568931141 #
edge $-1 $426 -2.747462772766605 $420 2.747462772766605 $419 $495 forward 7 unknown #
coedge $-1 $424 $415 $414 $472 reversed $306 $-1 #
edge $-1 $428 -2.747462772766605 $417 2.747462772766605 $414 $496 forward 7 unknown #
straight-curve $-1 0 -49.227992104620974 -14.975150568931141 -1 0 0 I I #
point $-1 61.842707602160715 -49.227992104620974 -14.975150568931141 #
point $-1 -61.842707602160715 -49.227992104620974 -14.975150568931141 #
straight-curve $-1 0 -49.227992104620974 -9.4802250233979315 1 0 0 I I #
point $-1 -61.842707602160715 -49.227992104620974 -9.4802250233979315 #
point $-1 61.842707602160715 -49.227992104620974 -9.4802250233979315 #
straight-curve $-1 -61.842707602160715 13.57262264663439 40.609573928985604 0 0 -1 I I #
point $-1 -61.842707602160715 13.57262264663439 14.975150568931141 #
straight-curve $-1 -61.842707602160715 4.8903793952427783 10.276109613245195 0 -1 0 I I #
point $-1 -61.842707602160715 13.57262264663439 10.276109613245191 #
point $-1 -58.041466102354349 8.1556742807074798 11.115919945891116 #
point $-1 -58.041466102354349 11.405843300263619 11.115919945891116 #
straight-curve $-1 61.842707602160715 -5.1040098029002259 90.637254080748505 0 0 -1 I I #
point $-1 61.842707602160715 -5.1040098029002259 14.975150568931141 #
straight-curve $-1 61.842707602160715 -0.50516319227515893 6.783007127883586 0 1 0 I I #
point $-1 61.842707602160715 -5.1040098029002259 6.7830071278836073 #
point $-1 51.137376776228265 -1.0103263845503108 4.6683120489724175 #
straight-curve $-1 61.842707602160715 28.397757116621104 90.637254080748505 0 0 -1 I I #
point $-1 61.842707602160715 28.397757116621104 14.975150568931141 #
straight-curve $-1 61.842707602160715 16.245720267485506 6.783007127883586 0 1 0 I I #
point $-1 61.842707602160715 28.397757116621104 6.7830071278836073 #
point $-1 51.137376776228265 32.491440534971026 4.6683120489724175 #
straight-curve $-1 -61.842707602160715 -49.227992104620974 -12.227687796164536 0 0 -1 I I #
straight-curve $-1 61.842707602160715 -49.227992104620974 -12.227687796164536 0 0 -1 I I #
End-of-ACIS-data 