500 0 17 0           
7 Unknown 11 ACIS 5.0 NT 24 Fri Mar 26 17:13:47 1999 
-1 9.9999999999999995e-007 1e-010 
body $-1 $17 $-1 $18 #
body $-1 $19 $-1 $20 #
body $-1 $21 $-1 $22 #
body $-1 $23 $-1 $24 #
body $-1 $25 $-1 $26 #
body $-1 $27 $-1 $28 #
body $-1 $29 $-1 $30 #
body $-1 $31 $-1 $32 #
body $-1 $33 $-1 $34 #
body $-1 $35 $-1 $36 #
body $-1 $37 $-1 $38 #
body $-1 $39 $-1 $40 #
body $-1 $41 $-1 $42 #
body $-1 $43 $-1 $44 #
body $-1 $45 $-1 $46 #
body $-1 $47 $-1 $48 #
body $-1 $49 $-1 $50 #
lump $-1 $-1 $51 $0 #
transform $-1 1 0 0 0 1 0 0 0 1 60.819727164525283 42.09047343505226 10.420433320103486 1 rotate no_reflect no_shear #
lump $-1 $-1 $52 $1 #
transform $-1 1 0 0 0 1 0 0 0 1 60.819727164525283 42.09047343505226 10.420433320103486 1 rotate no_reflect no_shear #
lump $-1 $-1 $53 $2 #
transform $-1 1 0 0 0 1 0 0 0 1 60.819727164525283 42.09047343505226 10.420433320103486 1 rotate no_reflect no_shear #
lump $-1 $-1 $54 $3 #
transform $-1 1 0 0 0 1 0 0 0 1 60.819727164525283 42.09047343505226 10.420433320103486 1 rotate no_reflect no_shear #
lump $-1 $-1 $55 $4 #
transform $-1 1 0 0 0 1 0 0 0 1 60.819727164525283 42.09047343505226 10.420433320103486 1 rotate no_reflect no_shear #
lump $-1 $-1 $56 $5 #
transform $-1 1 0 0 0 1 0 0 0 1 60.819727164525283 42.09047343505226 10.420433320103486 1 rotate no_reflect no_shear #
lump $-1 $-1 $57 $6 #
transform $-1 1 0 0 0 1 0 0 0 1 60.819727164525283 42.09047343505226 10.420433320103486 1 rotate no_reflect no_shear #
lump $-1 $-1 $58 $7 #
transform $-1 1 0 0 0 1 0 0 0 1 60.819727164525283 42.09047343505226 10.420433320103486 1 rotate no_reflect no_shear #
lump $-1 $-1 $59 $8 #
transform $-1 1 0 0 0 1 0 0 0 1 60.819727164525283 42.09047343505226 10.420433320103486 1 rotate no_reflect no_shear #
lump $-1 $-1 $60 $9 #
transform $-1 1 0 0 0 1 0 0 0 1 60.819727164525283 42.09047343505226 10.420433320103486 1 rotate no_reflect no_shear #
lump $-1 $-1 $61 $10 #
transform $-1 1 0 0 0 1 0 0 0 1 60.819727164525283 42.09047343505226 10.420433320103486 1 rotate no_reflect no_shear #
lump $-1 $-1 $62 $11 #
transform $-1 1 0 0 0 1 0 0 0 1 60.819727164525283 42.09047343505226 10.420433320103486 1 rotate no_reflect no_shear #
lump $-1 $-1 $63 $12 #
transform $-1 1 0 0 0 1 0 0 0 1 60.819727164525283 42.09047343505226 10.420433320103486 1 rotate no_reflect no_shear #
lump $-1 $-1 $64 $13 #
transform $-1 1 0 0 0 1 0 0 0 1 60.819727164525283 42.09047343505226 10.420433320103486 1 rotate no_reflect no_shear #
lump $-1 $-1 $65 $14 #
transform $-1 1 0 0 0 1 0 0 0 1 60.819727164525283 42.09047343505226 10.420433320103486 1 rotate no_reflect no_shear #
lump $-1 $-1 $66 $15 #
transform $-1 1 0 0 0 1 0 0 0 1 60.819727164525283 42.09047343505226 10.420433320103486 1 rotate no_reflect no_shear #
lump $-1 $-1 $67 $16 #
transform $-1 1 0 0 0 1 0 0 0 1 60.819727164525283 42.09047343505226 10.420433320103486 1 rotate no_reflect no_shear #
shell $-1 $-1 $-1 $68 $-1 $17 #
shell $-1 $-1 $-1 $69 $-1 $19 #
shell $-1 $-1 $-1 $70 $-1 $21 #
shell $-1 $-1 $-1 $71 $-1 $23 #
shell $-1 $-1 $-1 $72 $-1 $25 #
shell $-1 $-1 $-1 $73 $-1 $27 #
shell $-1 $-1 $-1 $74 $-1 $29 #
shell $-1 $-1 $-1 $75 $-1 $31 #
shell $-1 $-1 $-1 $76 $-1 $33 #
shell $-1 $-1 $-1 $77 $-1 $35 #
shell $-1 $-1 $-1 $78 $-1 $37 #
shell $-1 $-1 $-1 $79 $-1 $39 #
shell $-1 $-1 $-1 $80 $-1 $41 #
shell $-1 $-1 $-1 $81 $-1 $43 #
shell $-1 $-1 $-1 $82 $-1 $45 #
shell $-1 $-1 $-1 $83 $-1 $47 #
shell $-1 $-1 $-1 $84 $-1 $49 #
face $-1 $85 $86 $51 $-1 $87 forward single #
face $-1 $88 $89 $52 $-1 $90 reversed single #
face $-1 $91 $92 $53 $-1 $93 reversed single #
face $-1 $94 $95 $54 $-1 $96 reversed single #
face $-1 $97 $98 $55 $-1 $99 forward single #
face $-1 $100 $101 $56 $-1 $102 forward single #
face $-1 $103 $104 $57 $-1 $105 reversed single #
face $-1 $106 $107 $58 $-1 $108 forward single #
face $-1 $109 $110 $59 $-1 $111 forward single #
face $-1 $112 $113 $60 $-1 $114 reversed single #
face $-1 $115 $116 $61 $-1 $117 forward single #
face $-1 $118 $119 $62 $-1 $120 forward single #
face $-1 $121 $122 $63 $-1 $123 reversed single #
face $-1 $124 $125 $64 $-1 $126 forward single #
face $-1 $127 $128 $65 $-1 $129 forward single #
face $-1 $130 $131 $66 $-1 $132 reversed single #
face $-1 $133 $134 $67 $-1 $135 forward single #
face $-1 $136 $137 $51 $-1 $138 reversed single #
loop $-1 $-1 $139 $68 #
plane-surface $-1 0 0 10.420433320103486 0 0 1 1 0 0 forward_v I I I I #
face $-1 $140 $141 $52 $-1 $142 reversed single #
loop $-1 $-1 $143 $69 #
plane-surface $-1 -48.131255516835772 -36.955604327920589 0 1 0 0 0 0 -1 forward_v I I I I #
face $-1 $144 $145 $53 $-1 $146 reversed single #
loop $-1 $-1 $147 $70 #
plane-surface $-1 -46.444975183578265 31.820735220788926 0 0 1 0 0 0 1 forward_v I I I I #
face $-1 $148 $149 $54 $-1 $150 reversed single #
loop $-1 $-1 $151 $71 #
plane-surface $-1 -156.67292624273344 -27.316229858289788 75.437891494034091 0 1 0 -0.78801076186113728 0 0.61566146476048833 forward_v I I I I #
face $-1 $152 $153 $55 $-1 $154 forward single #
loop $-1 $155 $156 $72 #
cone-surface $-1 -56.454045598766854 -24.947276292275429 5.0867019715128619 0.78801076186113728 0 -0.61566146476048833 0.30783073238024417 0 0.39400538093056864 1 I I 0 1 0.5 forward I I I I #
face $-1 $157 $158 $56 $-1 $159 forward single #
loop $-1 $160 $161 $73 #
cone-surface $-1 -56.454045598766854 -21.39384594325389 5.0867019715128619 0.78801076186113728 0 -0.61566146476048833 0.30783073238024417 0 0.39400538093056864 1 I I 0 1 0.5 forward I I I I #
face $-1 $162 $163 $57 $-1 $164 reversed single #
loop $-1 $-1 $165 $74 #
plane-surface $-1 -156.67292624273344 -11.405862247895325 75.437891494034091 0 1 0 -0.78801076186113728 0 0.61566146476048833 forward_v I I I I #
face $-1 $166 $167 $58 $-1 $168 forward single #
loop $-1 $169 $170 $75 #
cone-surface $-1 -56.454045598766854 -9.0369086818809663 5.0867019715128619 0.78801076186113728 0 -0.61566146476048833 0.30783073238024417 0 0.39400538093056864 1 I I 0 1 0.5 forward I I I I #
face $-1 $171 $172 $59 $-1 $173 forward single #
loop $-1 $174 $175 $76 #
cone-surface $-1 -56.454045598766854 -5.483478332859427 5.0867019715128619 0.78801076186113728 0 -0.61566146476048833 0.30783073238024417 0 0.39400538093056864 1 I I 0 1 0.5 forward I I I I #
face $-1 $176 $177 $60 $-1 $178 reversed single #
loop $-1 $-1 $179 $77 #
plane-surface $-1 -156.67292624273344 4.5045053624991347 75.437891494034091 0 1 0 -0.78801076186113728 0 0.61566146476048833 forward_v I I I I #
face $-1 $180 $181 $61 $-1 $182 forward single #
loop $-1 $183 $184 $78 #
cone-surface $-1 -56.454045598766854 6.873458928513493 5.0867019715128619 0.78801076186113728 0 -0.61566146476048833 0.30783073238024417 0 0.39400538093056864 1 I I 0 1 0.5 forward I I I I #
face $-1 $185 $186 $62 $-1 $187 forward single #
loop $-1 $188 $189 $79 #
cone-surface $-1 -56.454045598766854 10.426889277535032 5.0867019715128619 0.78801076186113728 0 -0.61566146476048833 0.30783073238024417 0 0.39400538093056864 1 I I 0 1 0.5 forward I I I I #
face $-1 $190 $191 $63 $-1 $192 reversed single #
loop $-1 $-1 $193 $80 #
plane-surface $-1 -156.67292624273344 20.414872972893601 75.437891494034091 0 1 0 -0.78801076186113728 0 0.61566146476048833 forward_v I I I I #
face $-1 $194 $195 $64 $-1 $196 forward single #
loop $-1 $197 $198 $81 #
cone-surface $-1 -56.454045598766854 22.78382653890796 5.0867019715128619 0.78801076186113728 0 -0.61566146476048833 0.30783073238024417 0 0.39400538093056864 1 I I 0 1 0.5 forward I I I I #
face $-1 $199 $200 $65 $-1 $201 forward single #
loop $-1 $202 $203 $82 #
cone-surface $-1 -56.454045598766854 26.337256887929499 5.0867019715128619 0.78801076186113728 0 -0.61566146476048833 0.30783073238024417 0 0.39400538093056864 1 I I 0 1 0.5 forward I I I I #
face $-1 $204 $205 $66 $-1 $206 reversed single #
loop $-1 $-1 $207 $83 #
plane-surface $-1 102.43614203903141 4.3665533325229546 167.63943921161024 0 -1 0 -0.85716730853699208 0 -0.51503806187062418 forward_v I I I I #
face $-1 $208 $209 $67 $-1 $210 forward single #
loop $-1 $211 $212 $84 #
cone-surface $-1 55.031972303646747 -3.9201227657623292 3.8453112109947578 -0.85716730853699208 0 -0.51503806187062418 1.2875951546765605 0 -2.1429182713424804 1 I I 0 1 2.5 forward I I I I #
face $-1 $213 $214 $51 $-1 $215 reversed single #
loop $-1 $-1 $216 $85 #
plane-surface $-1 0 0 -10.420433320103486 0 0 1 1 0 0 forward_v I I I I #
coedge $-1 $217 $218 $219 $220 forward $86 $-1 #
face $-1 $221 $222 $52 $-1 $223 reversed single #
loop $-1 $-1 $224 $88 #
plane-surface $-1 -46.444975183578265 -31.820735220788922 0 0 -1 0 0 0 -1 forward_v I I I I #
coedge $-1 $225 $226 $227 $228 forward $89 $-1 #
face $-1 $229 $230 $53 $-1 $231 reversed single #
loop $-1 $-1 $232 $91 #
plane-surface $-1 -48.131255516835772 36.955604327920597 0 1 0 0 0 0 -1 forward_v I I I I #
coedge $-1 $233 $234 $235 $236 forward $92 $-1 #
face $-1 $237 $238 $54 $-1 $239 reversed single #
loop $-1 $-1 $240 $94 #
plane-surface $-1 -60.81972716452529 -23.17056111776466 0.54916686914430102 -0.78801076186113728 0 0.61566146476048833 0.61566146476048833 0 0.78801076186113728 forward_v I I I I #
coedge $-1 $241 $242 $243 $244 reversed $95 $-1 #
face $-1 $-1 $245 $55 $-1 $246 forward single #
loop $-1 $247 $248 $97 #
cone-surface $-1 -55.747500532752284 -24.947276292275429 4.5346884822117115 0.78801076186113728 0 -0.61566146476048833 0.15391536619012208 0 0.19700269046528432 1 I I -0.70710678118654746 0.70710678118654746 0.25 forward I I I I #
loop $-1 $-1 $249 $72 #
coedge $-1 $156 $156 $250 $251 reversed $98 $-1 #
face $-1 $-1 $252 $56 $-1 $253 forward single #
loop $-1 $254 $255 $100 #
cone-surface $-1 -55.747500532752284 -21.39384594325389 4.5346884822117115 0.78801076186113728 0 -0.61566146476048833 0.15391536619012208 0 0.19700269046528432 1 I I -0.70710678118654746 0.70710678118654746 0.25 forward I I I I #
loop $-1 $-1 $256 $73 #
coedge $-1 $161 $161 $257 $258 reversed $101 $-1 #
face $-1 $259 $260 $57 $-1 $261 reversed single #
loop $-1 $-1 $262 $103 #
plane-surface $-1 -60.81972716452529 -7.2601935073701966 0.54916686914430102 -0.78801076186113728 0 0.61566146476048833 0.61566146476048833 0 0.78801076186113728 forward_v I I I I #
coedge $-1 $263 $264 $265 $266 reversed $104 $-1 #
face $-1 $-1 $267 $58 $-1 $268 forward single #
loop $-1 $269 $270 $106 #
cone-surface $-1 -55.747500532752284 -9.0369086818809663 4.5346884822117115 0.78801076186113728 0 -0.61566146476048833 0.15391536619012208 0 0.19700269046528432 1 I I -0.70710678118654746 0.70710678118654746 0.25 forward I I I I #
loop $-1 $-1 $271 $75 #
coedge $-1 $170 $170 $272 $273 reversed $107 $-1 #
face $-1 $-1 $274 $59 $-1 $275 forward single #
loop $-1 $276 $277 $109 #
cone-surface $-1 -55.747500532752284 -5.483478332859427 4.5346884822117115 0.78801076186113728 0 -0.61566146476048833 0.15391536619012208 0 0.19700269046528432 1 I I -0.70710678118654746 0.70710678118654746 0.25 forward I I I I #
loop $-1 $-1 $278 $76 #
coedge $-1 $175 $175 $279 $280 reversed $110 $-1 #
face $-1 $281 $282 $60 $-1 $283 reversed single #
loop $-1 $-1 $284 $112 #
plane-surface $-1 -60.81972716452529 8.6501741030242627 0.54916686914430102 -0.78801076186113728 0 0.61566146476048833 0.61566146476048833 0 0.78801076186113728 forward_v I I I I #
coedge $-1 $285 $286 $287 $288 reversed $113 $-1 #
face $-1 $-1 $289 $61 $-1 $290 forward single #
loop $-1 $291 $292 $115 #
cone-surface $-1 -55.747500532752284 6.873458928513493 4.5346884822117115 0.78801076186113728 0 -0.61566146476048833 0.15391536619012208 0 0.19700269046528432 1 I I -0.70710678118654746 0.70710678118654746 0.25 forward I I I I #
loop $-1 $-1 $293 $78 #
coedge $-1 $184 $184 $294 $295 reversed $116 $-1 #
face $-1 $-1 $296 $62 $-1 $297 forward single #
loop $-1 $298 $299 $118 #
cone-surface $-1 -55.747500532752284 10.426889277535032 4.5346884822117115 0.78801076186113728 0 -0.61566146476048833 0.15391536619012208 0 0.19700269046528432 1 I I -0.70710678118654746 0.70710678118654746 0.25 forward I I I I #
loop $-1 $-1 $300 $79 #
coedge $-1 $189 $189 $301 $302 reversed $119 $-1 #
face $-1 $303 $304 $63 $-1 $305 reversed single #
loop $-1 $-1 $306 $121 #
plane-surface $-1 -60.81972716452529 24.560541713418729 0.54916686914430102 -0.78801076186113728 0 0.61566146476048833 0.61566146476048833 0 0.78801076186113728 forward_v I I I I #
coedge $-1 $307 $308 $309 $310 reversed $122 $-1 #
face $-1 $-1 $311 $64 $-1 $312 forward single #
loop $-1 $313 $314 $124 #
cone-surface $-1 -55.747500532752284 22.78382653890796 4.5346884822117115 0.78801076186113728 0 -0.61566146476048833 0.15391536619012208 0 0.19700269046528432 1 I I -0.70710678118654746 0.70710678118654746 0.25 forward I I I I #
loop $-1 $-1 $315 $81 #
coedge $-1 $198 $198 $316 $317 reversed $125 $-1 #
face $-1 $-1 $318 $65 $-1 $319 forward single #
loop $-1 $320 $321 $127 #
cone-surface $-1 -55.747500532752284 26.337256887929499 4.5346884822117115 0.78801076186113728 0 -0.61566146476048833 0.15391536619012208 0 0.19700269046528432 1 I I -0.70710678118654746 0.70710678118654746 0.25 forward I I I I #
loop $-1 $-1 $322 $82 #
coedge $-1 $203 $203 $323 $324 reversed $128 $-1 #
face $-1 $325 $326 $66 $-1 $327 reversed single #
loop $-1 $-1 $328 $130 #
plane-surface $-1 -1.8292216401092389 -3.9201227657623292 104.99049040697574 0.85716730853699208 0 0.51503806187062418 0.51503806187062418 0 -0.85716730853699208 forward_v I I I I #
coedge $-1 $329 $330 $331 $332 reversed $131 $-1 #
face $-1 $-1 $333 $67 $-1 $334 forward single #
loop $-1 $335 $336 $133 #
cone-surface $-1 51.085522167075617 -3.9201227657623292 1.4740448206819519 -0.85716730853699208 0 -0.51503806187062418 0.64379757733828025 0 -1.0714591356712402 1 I I -0.70710678118654746 0.70710678118654768 1.25 forward I I I I #
loop $-1 $-1 $337 $84 #
coedge $-1 $212 $212 $338 $339 reversed $134 $-1 #
face $-1 $340 $341 $51 $-1 $342 reversed single #
loop $-1 $-1 $343 $136 #
plane-surface $-1 0 -42.09047343505226 0 0 1 0 0 0 1 forward_v I I I I #
coedge $-1 $344 $345 $346 $347 forward $137 $-1 #
coedge $-1 $348 $139 $349 $350 forward $86 $-1 #
coedge $-1 $139 $348 $351 $352 forward $86 $-1 #
coedge $-1 $353 $354 $139 $220 reversed $355 $-1 #
edge $-1 $356 -42.09047343505226 $357 42.09047343505226 $219 $358 forward 7 unknown #
face $-1 $359 $360 $52 $-1 $361 forward single #
loop $-1 $-1 $362 $140 #
plane-surface $-1 -44.758694850320758 -36.955604327920589 0 -1 0 0 0 0 1 forward_v I I I I #
coedge $-1 $363 $364 $365 $366 forward $141 $-1 #
coedge $-1 $367 $143 $368 $369 reversed $89 $-1 #
coedge $-1 $143 $367 $370 $371 reversed $89 $-1 #
coedge $-1 $364 $363 $143 $228 reversed $141 $-1 #
edge $-1 $372 -10.420433320103486 $373 10.420433320103486 $227 $374 forward 7 unknown #
face $-1 $375 $376 $53 $-1 $377 reversed single #
loop $-1 $-1 $378 $144 #
plane-surface $-1 -44.758694850320758 36.955604327920597 0 -1 0 0 0 0 1 forward_v I I I I #
coedge $-1 $379 $380 $381 $382 reversed $145 $-1 #
coedge $-1 $383 $147 $384 $385 reversed $92 $-1 #
coedge $-1 $147 $383 $386 $387 reversed $92 $-1 #
coedge $-1 $380 $379 $147 $236 reversed $145 $-1 #
edge $-1 $388 -10.420433320103486 $389 10.420433320103486 $235 $390 forward 7 unknown #
face $-1 $391 $392 $54 $-1 $393 reversed single #
loop $-1 $-1 $394 $148 #
plane-surface $-1 -156.67292624273344 -19.024892377239532 75.437891494034091 0 -1 0 0.78801076186113728 0 -0.61566146476048833 forward_v I I I I #
coedge $-1 $395 $396 $397 $398 reversed $149 $-1 #
coedge $-1 $242 $151 $399 $400 reversed $95 $-1 #
coedge $-1 $151 $241 $395 $401 reversed $95 $-1 #
coedge $-1 $397 $402 $151 $244 forward $403 $-1 #
edge $-1 $404 17.516735956841437 $405 25.229014337259727 $243 $406 forward 7 unknown #
loop $-1 $-1 $250 $152 #
plane-surface $-1 -60.81972716452529 -23.17056111776466 0.54916686914430102 -0.78801076186113728 0 0.61566146476048833 0.61566146476048833 0 0.78801076186113728 forward_v I I I I #
loop $-1 $-1 $407 $97 #
coedge $-1 $248 $248 $249 $408 reversed $153 $-1 #
coedge $-1 $249 $249 $248 $408 forward $155 $-1 #
coedge $-1 $250 $250 $156 $251 forward $245 $-1 #
edge $-1 $409 0 $409 6.2831853071796004 $250 $410 forward 7 unknown #
loop $-1 $-1 $257 $157 #
plane-surface $-1 -60.81972716452529 -23.17056111776466 0.54916686914430102 -0.78801076186113728 0 0.61566146476048833 0.61566146476048833 0 0.78801076186113728 forward_v I I I I #
loop $-1 $-1 $411 $100 #
coedge $-1 $255 $255 $256 $412 reversed $158 $-1 #
coedge $-1 $256 $256 $255 $412 forward $160 $-1 #
coedge $-1 $257 $257 $161 $258 forward $252 $-1 #
edge $-1 $413 0 $413 6.2831853071796004 $257 $414 forward 7 unknown #
face $-1 $415 $416 $57 $-1 $417 forward single #
loop $-1 $-1 $418 $162 #
plane-surface $-1 -156.67292624273344 -3.1145247668450686 75.437891494034091 0 -1 0 0.78801076186113728 0 -0.61566146476048833 forward_v I I I I #
coedge $-1 $419 $420 $421 $422 reversed $163 $-1 #
coedge $-1 $264 $165 $423 $424 reversed $104 $-1 #
coedge $-1 $165 $263 $419 $425 reversed $104 $-1 #
coedge $-1 $421 $426 $165 $266 forward $416 $-1 #
edge $-1 $427 17.516735956841437 $428 25.229014337259727 $265 $429 forward 7 unknown #
loop $-1 $-1 $272 $166 #
plane-surface $-1 -60.81972716452529 -7.2601935073701966 0.54916686914430102 -0.78801076186113728 0 0.61566146476048833 0.61566146476048833 0 0.78801076186113728 forward_v I I I I #
loop $-1 $-1 $430 $106 #
coedge $-1 $270 $270 $271 $431 reversed $167 $-1 #
coedge $-1 $271 $271 $270 $431 forward $169 $-1 #
coedge $-1 $272 $272 $170 $273 forward $267 $-1 #
edge $-1 $432 0 $432 6.2831853071796004 $272 $433 forward 7 unknown #
loop $-1 $-1 $279 $171 #
plane-surface $-1 -60.81972716452529 -7.2601935073701966 0.54916686914430102 -0.78801076186113728 0 0.61566146476048833 0.61566146476048833 0 0.78801076186113728 forward_v I I I I #
loop $-1 $-1 $434 $109 #
coedge $-1 $277 $277 $278 $435 reversed $172 $-1 #
coedge $-1 $278 $278 $277 $435 forward $174 $-1 #
coedge $-1 $279 $279 $175 $280 forward $274 $-1 #
edge $-1 $436 0 $436 6.2831853071796004 $279 $437 forward 7 unknown #
face $-1 $438 $439 $60 $-1 $440 forward single #
loop $-1 $-1 $441 $176 #
plane-surface $-1 -156.67292624273344 12.795842843549391 75.437891494034091 0 -1 0 0.78801076186113728 0 -0.61566146476048833 forward_v I I I I #
coedge $-1 $442 $443 $444 $445 reversed $177 $-1 #
coedge $-1 $286 $179 $446 $447 reversed $113 $-1 #
coedge $-1 $179 $285 $442 $448 reversed $113 $-1 #
coedge $-1 $444 $449 $179 $288 forward $439 $-1 #
edge $-1 $450 17.516735956841437 $451 25.229014337259727 $287 $452 forward 7 unknown #
loop $-1 $-1 $294 $180 #
plane-surface $-1 -60.81972716452529 8.6501741030242627 0.54916686914430102 -0.78801076186113728 0 0.61566146476048833 0.61566146476048833 0 0.78801076186113728 forward_v I I I I #
loop $-1 $-1 $453 $115 #
coedge $-1 $292 $292 $293 $454 reversed $181 $-1 #
coedge $-1 $293 $293 $292 $454 forward $183 $-1 #
coedge $-1 $294 $294 $184 $295 forward $289 $-1 #
edge $-1 $455 0 $455 6.2831853071796004 $294 $456 forward 7 unknown #
loop $-1 $-1 $301 $185 #
plane-surface $-1 -60.81972716452529 8.6501741030242627 0.54916686914430102 -0.78801076186113728 0 0.61566146476048833 0.61566146476048833 0 0.78801076186113728 forward_v I I I I #
loop $-1 $-1 $457 $118 #
coedge $-1 $299 $299 $300 $458 reversed $186 $-1 #
coedge $-1 $300 $300 $299 $458 forward $188 $-1 #
coedge $-1 $301 $301 $189 $302 forward $296 $-1 #
edge $-1 $459 0 $459 6.2831853071796004 $301 $460 forward 7 unknown #
face $-1 $461 $462 $63 $-1 $463 forward single #
loop $-1 $-1 $464 $190 #
plane-surface $-1 -156.67292624273344 28.706210453943857 75.437891494034091 0 -1 0 0.78801076186113728 0 -0.61566146476048833 forward_v I I I I #
coedge $-1 $465 $466 $467 $468 reversed $191 $-1 #
coedge $-1 $308 $193 $469 $470 reversed $122 $-1 #
coedge $-1 $193 $307 $465 $471 reversed $122 $-1 #
coedge $-1 $467 $472 $193 $310 forward $462 $-1 #
edge $-1 $473 17.516735956841437 $474 25.229014337259727 $309 $475 forward 7 unknown #
loop $-1 $-1 $316 $194 #
plane-surface $-1 -60.81972716452529 24.560541713418729 0.54916686914430102 -0.78801076186113728 0 0.61566146476048833 0.61566146476048833 0 0.78801076186113728 forward_v I I I I #
loop $-1 $-1 $476 $124 #
coedge $-1 $314 $314 $315 $477 reversed $195 $-1 #
coedge $-1 $315 $315 $314 $477 forward $197 $-1 #
coedge $-1 $316 $316 $198 $317 forward $311 $-1 #
edge $-1 $478 0 $478 6.2831853071796004 $316 $479 forward 7 unknown #
loop $-1 $-1 $323 $199 #
plane-surface $-1 -60.81972716452529 24.560541713418729 0.54916686914430102 -0.78801076186113728 0 0.61566146476048833 0.61566146476048833 0 0.78801076186113728 forward_v I I I I #
loop $-1 $-1 $480 $127 #
coedge $-1 $321 $321 $322 $481 reversed $200 $-1 #
coedge $-1 $322 $322 $321 $481 forward $202 $-1 #
coedge $-1 $323 $323 $203 $324 forward $318 $-1 #
edge $-1 $482 0 $482 6.2831853071796004 $323 $483 forward 7 unknown #
face $-1 $484 $485 $66 $-1 $486 forward single #
loop $-1 $-1 $487 $204 #
plane-surface $-1 102.43614203903141 -12.206798864047613 167.63943921161024 0 1 0 0.85716730853699208 0 0.51503806187062418 forward_v I I I I #
coedge $-1 $488 $489 $490 $491 reversed $205 $-1 #
coedge $-1 $330 $207 $492 $493 reversed $131 $-1 #
coedge $-1 $207 $329 $488 $494 reversed $131 $-1 #
coedge $-1 $490 $495 $207 $332 forward $485 $-1 #
edge $-1 $496 -9.6016561450095779 $497 -3.7761284250523204 $331 $498 forward 7 unknown #
loop $-1 $-1 $338 $208 #
plane-surface $-1 -1.8292216401092389 -3.9201227657623292 104.99049040697574 0.85716730853699208 0 0.51503806187062418 0.51503806187062418 0 -0.85716730853699208 forward_v I I I I #
loop $-1 $-1 $499 $133 #
coedge $-1 $336 $336 $337 $500 reversed $209 $-1 #
coedge $-1 $337 $337 $336 $500 forward $211 $-1 #
coedge $-1 $338 $338 $212 $339 forward $333 $-1 #
edge $-1 $501 0 $501 6.2831853071796004 $338 $502 forward 7 unknown #
face $-1 $503 $504 $51 $-1 $505 reversed single #
loop $-1 $-1 $506 $213 #
plane-surface $-1 -60.819727164525283 0 0 1 0 0 0 0 -1 forward_v I I I I #
coedge $-1 $507 $351 $508 $509 forward $214 $-1 #
coedge $-1 $510 $216 $507 $511 forward $137 $-1 #
coedge $-1 $216 $510 $512 $513 forward $137 $-1 #
coedge $-1 $354 $353 $216 $347 reversed $355 $-1 #
edge $-1 $514 -42.09047343505226 $515 42.09047343505226 $346 $516 forward 7 unknown #
coedge $-1 $218 $217 $517 $518 forward $86 $-1 #
coedge $-1 $519 $520 $217 $350 reversed $504 $-1 #
edge $-1 $357 -60.819727164525283 $521 60.819727164525283 $349 $522 forward 7 unknown #
coedge $-1 $343 $523 $218 $352 reversed $214 $-1 #
edge $-1 $524 -60.819727164525283 $356 60.819727164525283 $351 $525 forward 7 unknown #
coedge $-1 $346 $219 $523 $526 forward $355 $-1 #
coedge $-1 $219 $346 $519 $527 reversed $355 $-1 #
loop $-1 $-1 $353 $503 #
vertex $-1 $220 $528 #
vertex $-1 $220 $529 #
straight-curve $-1 60.819727164525283 0 10.420433320103486 0 1 0 I I #
face $-1 $530 $531 $52 $-1 $532 reversed single #
loop $-1 $-1 $533 $221 #
plane-surface $-1 0 0 10.420433320103486 0 0 1 1 0 0 forward_v I I I I #
coedge $-1 $534 $535 $536 $537 reversed $222 $-1 #
coedge $-1 $227 $224 $538 $539 reversed $141 $-1 #
coedge $-1 $224 $227 $540 $541 reversed $141 $-1 #
coedge $-1 $535 $534 $224 $366 reversed $222 $-1 #
edge $-1 $542 -10.420433320103486 $543 10.420433320103486 $365 $544 forward 7 unknown #
coedge $-1 $226 $225 $545 $546 reversed $89 $-1 #
coedge $-1 $538 $547 $225 $369 forward $531 $-1 #
edge $-1 $548 -23.612671271091966 $373 -13.342933056828628 $368 $549 forward 7 unknown #
coedge $-1 $550 $540 $226 $371 forward $360 $-1 #
edge $-1 $372 13.342933056828628 $551 23.612671271091966 $370 $552 forward 7 unknown #
vertex $-1 $371 $553 #
vertex $-1 $369 $554 #
straight-curve $-1 -48.131255516835772 -31.820735220788922 0 0 0 -1 I I #
face $-1 $555 $556 $53 $-1 $557 forward single #
loop $-1 $-1 $558 $229 #
plane-surface $-1 0 0 -10.420433320103486 0 0 1 1 0 0 forward_v I I I I #
coedge $-1 $559 $560 $383 $561 forward $230 $-1 #
coedge $-1 $235 $232 $562 $563 reversed $145 $-1 #
coedge $-1 $232 $235 $564 $565 reversed $145 $-1 #
coedge $-1 $566 $567 $232 $382 forward $568 $-1 #
edge $-1 $569 -10.420433320103486 $570 10.420433320103486 $381 $571 forward 7 unknown #
coedge $-1 $234 $233 $378 $561 reversed $92 $-1 #
coedge $-1 $562 $558 $233 $385 forward $376 $-1 #
edge $-1 $572 21.536207258531626 $389 24.908767925046639 $384 $573 forward 7 unknown #
coedge $-1 $574 $564 $234 $387 forward $556 $-1 #
edge $-1 $388 -24.908767925046639 $575 -21.536207258531626 $386 $576 forward 7 unknown #
vertex $-1 $387 $577 #
vertex $-1 $385 $578 #
straight-curve $-1 -48.131255516835772 31.820735220788926 0 0 0 -1 I I #
face $-1 $-1 $403 $54 $-1 $579 forward single #
loop $-1 $-1 $580 $237 #
plane-surface $-1 -60.819727164525283 0 0 1 0 0 0 0 -1 forward_v I I I I #
coedge $-1 $581 $582 $583 $584 reversed $238 $-1 #
coedge $-1 $585 $240 $242 $401 forward $149 $-1 #
coedge $-1 $240 $585 $581 $586 forward $149 $-1 #
coedge $-1 $583 $243 $240 $398 forward $403 $-1 #
edge $-1 $405 -15.730949299407458 $587 -7.4396118183572018 $397 $588 forward 7 unknown #
coedge $-1 $589 $590 $241 $400 forward $392 $-1 #
edge $-1 $591 -37.169778877872737 $404 -27.298512426913561 $399 $592 forward 7 unknown #
edge $-1 $405 -12.526816800883608 $591 -1.1548452884789174e-014 $242 $593 forward 7 unknown #
coedge $-1 $243 $583 $589 $594 forward $403 $-1 #
loop $-1 $-1 $583 $391 #
vertex $-1 $400 $595 #
vertex $-1 $244 $596 #
straight-curve $-1 -78.33646312136672 -27.316229858289788 10.420433320103484 1 0 0 I I #
coedge $-1 $407 $407 $-1 $597 reversed $247 $-1 #
edge $-1 $598 0 $598 6.2831853071796004 $248 $599 forward 7 unknown #
vertex $-1 $251 $600 #
ellipse-curve $-1 -56.963587974316141 -24.947276292275429 5.4848000946238944 -0.78801076186113728 0 0.61566146476048833 0.30783073238024417 0 0.39400538093056864 1 I I #
coedge $-1 $411 $411 $-1 $601 reversed $254 $-1 #
edge $-1 $602 0 $602 6.2831853071796004 $255 $603 forward 7 unknown #
vertex $-1 $258 $604 #
ellipse-curve $-1 -56.963587974316141 -21.39384594325389 5.4848000946238944 -0.78801076186113728 0 0.61566146476048833 0.30783073238024417 0 0.39400538093056864 1 I I #
face $-1 $-1 $605 $57 $-1 $606 reversed single #
loop $-1 $-1 $265 $259 #
plane-surface $-1 0 0 10.420433320103486 0 0 1 1 0 0 forward_v I I I I #
coedge $-1 $607 $608 $609 $610 reversed $260 $-1 #
coedge $-1 $611 $262 $264 $425 forward $163 $-1 #
coedge $-1 $262 $611 $607 $612 forward $163 $-1 #
coedge $-1 $609 $265 $262 $422 forward $416 $-1 #
edge $-1 $428 -7.7757654942102263 $613 0.51557198684002969 $421 $614 forward 7 unknown #
coedge $-1 $615 $616 $263 $424 forward $605 $-1 #
edge $-1 $617 -37.169778877872737 $427 -27.298512426913561 $423 $618 forward 7 unknown #
edge $-1 $428 -12.526816800883608 $617 -1.1548452884789174e-014 $264 $619 forward 7 unknown #
coedge $-1 $265 $609 $615 $620 forward $416 $-1 #
vertex $-1 $424 $621 #
vertex $-1 $266 $622 #
straight-curve $-1 -78.33646312136672 -11.405862247895325 10.420433320103484 1 0 0 I I #
coedge $-1 $430 $430 $-1 $623 reversed $269 $-1 #
edge $-1 $624 0 $624 6.2831853071796004 $270 $625 forward 7 unknown #
vertex $-1 $273 $626 #
ellipse-curve $-1 -56.963587974316141 -9.0369086818809663 5.4848000946238944 -0.78801076186113728 0 0.61566146476048833 0.30783073238024417 0 0.39400538093056864 1 I I #
coedge $-1 $434 $434 $-1 $627 reversed $276 $-1 #
edge $-1 $628 0 $628 6.2831853071796004 $277 $629 forward 7 unknown #
vertex $-1 $280 $630 #
ellipse-curve $-1 -56.963587974316141 -5.483478332859427 5.4848000946238944 -0.78801076186113728 0 0.61566146476048833 0.30783073238024417 0 0.39400538093056864 1 I I #
face $-1 $-1 $631 $60 $-1 $632 reversed single #
loop $-1 $-1 $287 $281 #
plane-surface $-1 0 0 10.420433320103486 0 0 1 1 0 0 forward_v I I I I #
coedge $-1 $633 $634 $635 $636 reversed $282 $-1 #
coedge $-1 $637 $284 $286 $448 forward $177 $-1 #
coedge $-1 $284 $637 $633 $638 forward $177 $-1 #
coedge $-1 $635 $287 $284 $445 forward $439 $-1 #
edge $-1 $451 0.17941831098700334 $639 8.4707557920372594 $444 $640 forward 7 unknown #
coedge $-1 $641 $642 $285 $447 forward $631 $-1 #
edge $-1 $643 -37.169778877872737 $450 -27.298512426913561 $446 $644 forward 7 unknown #
edge $-1 $451 -12.526816800883608 $643 -1.1548452884789174e-014 $286 $645 forward 7 unknown #
coedge $-1 $287 $635 $641 $646 forward $439 $-1 #
vertex $-1 $288 $647 #
vertex $-1 $288 $648 #
straight-curve $-1 -78.33646312136672 4.5045053624991347 10.420433320103484 1 0 0 I I #
coedge $-1 $453 $453 $-1 $649 reversed $291 $-1 #
edge $-1 $650 0 $650 6.2831853071796004 $292 $651 forward 7 unknown #
vertex $-1 $295 $652 #
ellipse-curve $-1 -56.963587974316141 6.873458928513493 5.4848000946238944 -0.78801076186113728 0 0.61566146476048833 0.30783073238024417 0 0.39400538093056864 1 I I #
coedge $-1 $457 $457 $-1 $653 reversed $298 $-1 #
edge $-1 $654 0 $654 6.2831853071796004 $299 $655 forward 7 unknown #
vertex $-1 $302 $656 #
ellipse-curve $-1 -56.963587974316141 10.426889277535032 5.4848000946238944 -0.78801076186113728 0 0.61566146476048833 0.30783073238024417 0 0.39400538093056864 1 I I #
face $-1 $-1 $657 $63 $-1 $658 reversed single #
loop $-1 $-1 $309 $303 #
plane-surface $-1 0 0 10.420433320103486 0 0 1 1 0 0 forward_v I I I I #
coedge $-1 $659 $660 $661 $662 reversed $304 $-1 #
coedge $-1 $663 $306 $308 $471 forward $191 $-1 #
coedge $-1 $306 $663 $659 $664 forward $191 $-1 #
coedge $-1 $661 $309 $306 $468 forward $462 $-1 #
edge $-1 $474 8.1346021161842366 $665 16.425939597234493 $467 $666 forward 7 unknown #
coedge $-1 $667 $668 $307 $470 forward $657 $-1 #
edge $-1 $669 -37.169778877872737 $473 -27.298512426913561 $469 $670 forward 7 unknown #
edge $-1 $474 -12.526816800883608 $669 -1.1548452884789174e-014 $308 $671 forward 7 unknown #
coedge $-1 $309 $661 $667 $672 forward $462 $-1 #
vertex $-1 $310 $673 #
vertex $-1 $310 $674 #
straight-curve $-1 -78.33646312136672 20.414872972893601 10.420433320103484 1 0 0 I I #
coedge $-1 $476 $476 $-1 $675 reversed $313 $-1 #
edge $-1 $676 0 $676 6.2831853071796004 $314 $677 forward 7 unknown #
vertex $-1 $317 $678 #
ellipse-curve $-1 -56.963587974316141 22.78382653890796 5.4848000946238944 -0.78801076186113728 0 0.61566146476048833 0.30783073238024417 0 0.39400538093056864 1 I I #
coedge $-1 $480 $480 $-1 $679 reversed $320 $-1 #
edge $-1 $680 0 $680 6.2831853071796004 $321 $681 forward 7 unknown #
vertex $-1 $324 $682 #
ellipse-curve $-1 -56.963587974316141 26.337256887929499 5.4848000946238944 -0.78801076186113728 0 0.61566146476048833 0.30783073238024417 0 0.39400538093056864 1 I I #
face $-1 $-1 $683 $66 $-1 $684 reversed single #
loop $-1 $-1 $331 $325 #
plane-surface $-1 0 0 10.420433320103486 0 0 1 1 0 0 forward_v I I I I #
coedge $-1 $685 $686 $687 $688 reversed $326 $-1 #
coedge $-1 $689 $328 $330 $494 forward $205 $-1 #
coedge $-1 $328 $689 $685 $690 forward $205 $-1 #
coedge $-1 $687 $331 $328 $491 forward $485 $-1 #
edge $-1 $497 -6.3266147154041192 $691 10.246737481166448 $490 $692 forward 7 unknown #
coedge $-1 $693 $694 $329 $493 forward $683 $-1 #
edge $-1 $695 -83.094592877970044 $496 -73.399286285701635 $492 $696 forward 7 unknown #
edge $-1 $497 110.32858596565455 $695 121.63945432905061 $330 $697 forward 7 unknown #
coedge $-1 $331 $687 $693 $698 forward $485 $-1 #
vertex $-1 $332 $699 #
vertex $-1 $332 $700 #
straight-curve $-1 51.218071019515705 4.3665533325229546 10.420433320103484 -1 0 0 I I #
coedge $-1 $499 $499 $-1 $701 reversed $335 $-1 #
edge $-1 $702 0 $702 6.2831853071796004 $336 $703 forward 7 unknown #
vertex $-1 $339 $704 #
ellipse-curve $-1 57.90696330454665 -3.9201227657623292 5.5727800239692886 0.85716730853699208 0 0.51503806187062418 1.2875951546765605 0 -2.1429182713424804 1 I I #
face $-1 $-1 $355 $51 $-1 $705 reversed single #
loop $-1 $-1 $519 $340 #
plane-surface $-1 0 42.09047343505226 0 0 -1 0 0 0 -1 forward_v I I I I #
coedge $-1 $706 $517 $520 $707 forward $341 $-1 #
coedge $-1 $523 $343 $344 $511 reversed $214 $-1 #
coedge $-1 $517 $706 $343 $509 reversed $341 $-1 #
edge $-1 $524 -10.420433320103486 $708 10.420433320103486 $508 $709 forward 7 unknown #
coedge $-1 $345 $344 $706 $710 forward $137 $-1 #
edge $-1 $515 -60.819727164525283 $708 60.819727164525283 $507 $711 forward 7 unknown #
coedge $-1 $520 $519 $345 $513 reversed $504 $-1 #
edge $-1 $712 -60.819727164525283 $514 60.819727164525283 $512 $713 forward 7 unknown #
vertex $-1 $347 $714 #
vertex $-1 $526 $715 #
straight-curve $-1 60.819727164525283 0 -10.420433320103486 0 -1 0 I I #
coedge $-1 $506 $508 $348 $518 reversed $341 $-1 #
edge $-1 $521 -42.09047343505226 $524 42.09047343505226 $517 $716 forward 7 unknown #
coedge $-1 $512 $349 $354 $527 forward $504 $-1 #
coedge $-1 $349 $512 $506 $707 reversed $504 $-1 #
vertex $-1 $350 $717 #
straight-curve $-1 0 42.09047343505226 10.420433320103486 -1 0 0 I I #
coedge $-1 $351 $507 $353 $526 reversed $214 $-1 #
vertex $-1 $518 $718 #
straight-curve $-1 0 -42.09047343505226 10.420433320103486 1 0 0 I I #
edge $-1 $356 -10.420433320103486 $515 10.420433320103486 $353 $719 forward 7 unknown #
edge $-1 $357 -10.420433320103486 $514 10.420433320103486 $354 $720 forward 7 unknown #
point $-1 60.819727164525283 -42.09047343505226 10.420433320103486 #
point $-1 60.819727164525283 42.09047343505226 10.420433320103486 #
face $-1 $-1 $721 $52 $-1 $722 reversed single #
loop $-1 $-1 $723 $359 #
plane-surface $-1 0 0 -10.420433320103486 0 0 1 1 0 0 forward_v I I I I #
coedge $-1 $540 $550 $535 $724 forward $360 $-1 #
coedge $-1 $365 $362 $723 $725 reversed $222 $-1 #
coedge $-1 $362 $365 $533 $724 reversed $222 $-1 #
coedge $-1 $726 $727 $362 $537 forward $721 $-1 #
edge $-1 $728 -10.420433320103486 $729 10.420433320103486 $536 $730 forward 7 unknown #
coedge $-1 $723 $368 $363 $539 forward $531 $-1 #
edge $-1 $373 -24.908767925046639 $543 -21.536207258531626 $538 $731 forward 7 unknown #
coedge $-1 $370 $533 $364 $541 forward $360 $-1 #
edge $-1 $542 21.536207258531626 $372 24.908767925046639 $540 $732 forward 7 unknown #
vertex $-1 $541 $733 #
vertex $-1 $539 $734 #
straight-curve $-1 -44.758694850320758 -31.820735220788922 0 0 0 -1 I I #
coedge $-1 $727 $726 $367 $546 forward $721 $-1 #
edge $-1 $551 -10.420433320103486 $548 10.420433320103486 $545 $735 forward 7 unknown #
coedge $-1 $368 $723 $727 $736 forward $531 $-1 #
vertex $-1 $369 $737 #
straight-curve $-1 -48.131255516835772 -18.477802163960295 -10.420433320103486 0 1 0 I I #
coedge $-1 $533 $370 $726 $738 forward $360 $-1 #
vertex $-1 $738 $739 #
straight-curve $-1 -48.131255516835772 -18.477802163960295 10.420433320103486 0 -1 0 I I #
point $-1 -48.131255516835772 -31.820735220788922 10.420433320103486 #
point $-1 -48.131255516835772 -31.820735220788922 -10.420433320103486 #
face $-1 $-1 $568 $53 $-1 $740 reversed single #
loop $-1 $-1 $574 $375 #
plane-surface $-1 0 0 10.420433320103486 0 0 1 1 0 0 forward_v I I I I #
coedge $-1 $384 $741 $559 $742 forward $376 $-1 #
coedge $-1 $743 $378 $558 $742 reversed $230 $-1 #
coedge $-1 $378 $743 $574 $744 reversed $230 $-1 #
edge $-1 $575 -10.420433320103486 $572 10.420433320103486 $378 $745 forward 7 unknown #
coedge $-1 $741 $384 $379 $563 forward $376 $-1 #
edge $-1 $389 13.342933056828628 $569 23.612671271091969 $562 $746 forward 7 unknown #
coedge $-1 $386 $747 $380 $565 forward $556 $-1 #
edge $-1 $570 -23.612671271091969 $388 -13.342933056828628 $564 $748 forward 7 unknown #
coedge $-1 $749 $381 $747 $750 reversed $568 $-1 #
coedge $-1 $381 $749 $741 $751 reversed $568 $-1 #
loop $-1 $-1 $749 $555 #
vertex $-1 $751 $752 #
vertex $-1 $382 $753 #
straight-curve $-1 -48.131255516835772 42.09047343505226 0 0 0 1 I I #
vertex $-1 $385 $754 #
straight-curve $-1 -23.222487591789132 31.820735220788926 -10.420433320103486 -1 0 0 I I #
coedge $-1 $747 $386 $560 $744 forward $556 $-1 #
vertex $-1 $387 $755 #
straight-curve $-1 -23.222487591789132 31.820735220788926 10.420433320103486 1 0 0 I I #
point $-1 -48.131255516835772 31.820735220788926 10.420433320103486 #
point $-1 -48.131255516835772 31.820735220788926 -10.420433320103486 #
plane-surface $-1 0 0 10.420433320103486 0 0 1 1 0 0 forward_v I I I I #
coedge $-1 $590 $589 $582 $756 forward $392 $-1 #
coedge $-1 $582 $394 $396 $586 reversed $238 $-1 #
coedge $-1 $394 $581 $580 $756 reversed $238 $-1 #
coedge $-1 $402 $397 $394 $584 forward $403 $-1 #
edge $-1 $587 -25.229014337259727 $757 -17.516735956841437 $583 $758 forward 7 unknown #
coedge $-1 $396 $395 $590 $759 reversed $149 $-1 #
edge $-1 $760 1.1548452884789174e-014 $587 12.526816800883608 $581 $761 forward 7 unknown #
vertex $-1 $398 $762 #
straight-curve $-1 -53.107448784107 -11.58528055888233 10.420433320103486 0 1 0 I I #
coedge $-1 $580 $399 $402 $594 reversed $392 $-1 #
coedge $-1 $399 $580 $585 $759 forward $392 $-1 #
vertex $-1 $400 $763 #
straight-curve $-1 -60.819727164525283 -27.316229858289788 37.718945747017045 0 0 1 I I #
straight-curve $-1 -60.81972716452529 -27.316229858289788 0.54916686914430102 -0.61566146476048833 0 -0.78801076186113728 I I #
edge $-1 $757 19.024892377239532 $404 27.316229858289788 $589 $764 forward 7 unknown #
point $-1 -60.819727164525283 -27.316229858289788 10.420433320103486 #
point $-1 -53.107448784106992 -27.316229858289788 10.420433320103486 #
edge $-1 $765 1 $765 0 $407 $-1 forward 7 unknown #
vertex $-1 $408 $766 #
ellipse-curve $-1 -55.944503223217566 -24.947276292275429 4.6886038484018338 -0.78801076186113728 0 0.61566146476048833 0.30783073238024417 0 0.39400538093056864 1 I I #
point $-1 -56.655757241935888 -24.947276292275429 5.8788054755544579 #
edge $-1 $767 1 $767 0 $411 $-1 forward 7 unknown #
vertex $-1 $412 $768 #
ellipse-curve $-1 -55.944503223217566 -21.39384594325389 4.6886038484018338 -0.78801076186113728 0 0.61566146476048833 0.30783073238024417 0 0.39400538093056864 1 I I #
point $-1 -56.655757241935888 -21.39384594325389 5.8788054755544579 #
loop $-1 $-1 $423 $415 #
plane-surface $-1 -60.819727164525283 0 0 1 0 0 0 0 -1 forward_v I I I I #
coedge $-1 $608 $418 $420 $612 reversed $260 $-1 #
coedge $-1 $418 $607 $769 $770 reversed $260 $-1 #
coedge $-1 $426 $421 $418 $610 forward $416 $-1 #
edge $-1 $613 -25.229014337259727 $771 -17.516735956841437 $609 $772 forward 7 unknown #
coedge $-1 $420 $419 $616 $773 reversed $163 $-1 #
edge $-1 $774 1.1548452884789174e-014 $613 12.526816800883608 $607 $775 forward 7 unknown #
vertex $-1 $422 $776 #
straight-curve $-1 -53.107448784107 -3.6300967536850983 10.420433320103486 0 1 0 I I #
coedge $-1 $769 $423 $426 $620 reversed $605 $-1 #
coedge $-1 $423 $769 $611 $773 forward $605 $-1 #
vertex $-1 $424 $777 #
straight-curve $-1 -60.819727164525283 -11.405862247895325 37.718945747017045 0 0 1 I I #
straight-curve $-1 -60.81972716452529 -11.405862247895325 0.54916686914430102 -0.61566146476048833 0 -0.78801076186113728 I I #
edge $-1 $771 3.1145247668450686 $427 11.405862247895325 $615 $778 forward 7 unknown #
point $-1 -60.819727164525283 -11.405862247895325 10.420433320103486 #
point $-1 -53.107448784106992 -11.405862247895325 10.420433320103486 #
edge $-1 $779 1 $779 0 $430 $-1 forward 7 unknown #
vertex $-1 $431 $780 #
ellipse-curve $-1 -55.944503223217566 -9.0369086818809663 4.6886038484018338 -0.78801076186113728 0 0.61566146476048833 0.30783073238024417 0 0.39400538093056864 1 I I #
point $-1 -56.655757241935888 -9.0369086818809663 5.8788054755544579 #
edge $-1 $781 1 $781 0 $434 $-1 forward 7 unknown #
vertex $-1 $435 $782 #
ellipse-curve $-1 -55.944503223217566 -5.483478332859427 4.6886038484018338 -0.78801076186113728 0 0.61566146476048833 0.30783073238024417 0 0.39400538093056864 1 I I #
point $-1 -56.655757241935888 -5.483478332859427 5.8788054755544579 #
loop $-1 $-1 $446 $438 #
plane-surface $-1 -60.819727164525283 0 0 1 0 0 0 0 -1 forward_v I I I I #
coedge $-1 $634 $441 $443 $638 reversed $282 $-1 #
coedge $-1 $441 $633 $783 $784 reversed $282 $-1 #
coedge $-1 $449 $444 $441 $636 forward $439 $-1 #
edge $-1 $639 -25.229014337259727 $785 -17.516735956841437 $635 $786 forward 7 unknown #
coedge $-1 $443 $442 $642 $787 reversed $177 $-1 #
edge $-1 $788 1.1548452884789174e-014 $639 12.526816800883608 $633 $789 forward 7 unknown #
vertex $-1 $445 $790 #
straight-curve $-1 -53.107448784107 4.3250870515121314 10.420433320103486 0 1 0 I I #
coedge $-1 $783 $446 $449 $646 reversed $631 $-1 #
coedge $-1 $446 $783 $637 $787 forward $631 $-1 #
vertex $-1 $447 $791 #
straight-curve $-1 -60.819727164525283 4.5045053624991347 37.718945747017045 0 0 1 I I #
straight-curve $-1 -60.81972716452529 4.5045053624991347 0.54916686914430102 -0.61566146476048833 0 -0.78801076186113728 I I #
edge $-1 $785 -12.795842843549391 $450 -4.5045053624991347 $641 $792 forward 7 unknown #
point $-1 -60.819727164525283 4.5045053624991347 10.420433320103486 #
point $-1 -53.107448784106992 4.5045053624991347 10.420433320103486 #
edge $-1 $793 1 $793 0 $453 $-1 forward 7 unknown #
vertex $-1 $454 $794 #
ellipse-curve $-1 -55.944503223217566 6.873458928513493 4.6886038484018338 -0.78801076186113728 0 0.61566146476048833 0.30783073238024417 0 0.39400538093056864 1 I I #
point $-1 -56.655757241935888 6.873458928513493 5.8788054755544579 #
edge $-1 $795 1 $795 0 $457 $-1 forward 7 unknown #
vertex $-1 $458 $796 #
ellipse-curve $-1 -55.944503223217566 10.426889277535032 4.6886038484018338 -0.78801076186113728 0 0.61566146476048833 0.30783073238024417 0 0.39400538093056864 1 I I #
point $-1 -56.655757241935888 10.426889277535032 5.8788054755544579 #
loop $-1 $-1 $469 $461 #
plane-surface $-1 -60.819727164525283 0 0 1 0 0 0 0 -1 forward_v I I I I #
coedge $-1 $660 $464 $466 $664 reversed $304 $-1 #
coedge $-1 $464 $659 $797 $798 reversed $304 $-1 #
coedge $-1 $472 $467 $464 $662 forward $462 $-1 #
edge $-1 $665 -25.229014337259727 $799 -17.516735956841437 $661 $800 forward 7 unknown #
coedge $-1 $466 $465 $668 $801 reversed $191 $-1 #
edge $-1 $802 1.1548452884789174e-014 $665 12.526816800883608 $659 $803 forward 7 unknown #
vertex $-1 $468 $804 #
straight-curve $-1 -53.107448784107 12.280270856709365 10.420433320103486 0 1 0 I I #
coedge $-1 $797 $469 $472 $672 reversed $657 $-1 #
coedge $-1 $469 $797 $663 $801 forward $657 $-1 #
vertex $-1 $470 $805 #
straight-curve $-1 -60.819727164525283 20.414872972893601 37.718945747017045 0 0 1 I I #
straight-curve $-1 -60.81972716452529 20.414872972893601 0.54916686914430102 -0.61566146476048833 0 -0.78801076186113728 I I #
edge $-1 $799 -28.706210453943857 $473 -20.414872972893601 $667 $806 forward 7 unknown #
point $-1 -60.819727164525283 20.414872972893601 10.420433320103486 #
point $-1 -53.107448784106992 20.414872972893601 10.420433320103486 #
edge $-1 $807 1 $807 0 $476 $-1 forward 7 unknown #
vertex $-1 $477 $808 #
ellipse-curve $-1 -55.944503223217566 22.78382653890796 4.6886038484018338 -0.78801076186113728 0 0.61566146476048833 0.30783073238024417 0 0.39400538093056864 1 I I #
point $-1 -56.655757241935888 22.78382653890796 5.8788054755544579 #
edge $-1 $809 1 $809 0 $480 $-1 forward 7 unknown #
vertex $-1 $481 $810 #
ellipse-curve $-1 -55.944503223217566 26.337256887929499 4.6886038484018338 -0.78801076186113728 0 0.61566146476048833 0.30783073238024417 0 0.39400538093056864 1 I I #
point $-1 -56.655757241935888 26.337256887929499 5.8788054755544579 #
loop $-1 $-1 $492 $484 #
plane-surface $-1 60.819727164525283 0 0 -1 0 0 0 0 1 forward_v I I I I #
coedge $-1 $686 $487 $489 $690 reversed $326 $-1 #
coedge $-1 $487 $685 $811 $812 reversed $326 $-1 #
coedge $-1 $495 $490 $487 $688 forward $485 $-1 #
edge $-1 $691 3.7761284250523204 $813 9.6016561450095779 $687 $814 forward 7 unknown #
coedge $-1 $489 $488 $694 $815 reversed $205 $-1 #
edge $-1 $816 -121.63945432905061 $691 -110.32858596565455 $685 $817 forward 7 unknown #
vertex $-1 $491 $818 #
straight-curve $-1 54.994199444568025 -1.9600613828811646 10.420433320103477 0 -1 0 I I #
coedge $-1 $811 $492 $495 $698 reversed $683 $-1 #
coedge $-1 $492 $811 $689 $815 forward $683 $-1 #
vertex $-1 $493 $819 #
straight-curve $-1 60.819727164525283 4.3665533325229546 83.819719605805119 0 0 1 I I #
straight-curve $-1 -1.8292216401092389 4.3665533325229546 104.99049040697574 0.51503806187062418 0 -0.85716730853699208 I I #
edge $-1 $813 -12.206798864047613 $496 4.3665533325229546 $693 $820 forward 7 unknown #
point $-1 60.819727164525283 4.3665533325229546 10.420433320103486 #
point $-1 54.994199444568025 4.3665533325229546 10.420433320103484 #
edge $-1 $821 1 $821 0 $499 $-1 forward 7 unknown #
vertex $-1 $500 $822 #
ellipse-curve $-1 52.156981302746857 -3.9201227657623292 2.1178423980202323 0.85716730853699208 0 0.51503806187062418 1.2875951546765605 0 -2.1429182713424804 1 I I #
point $-1 59.194558459223202 -3.9201227657623292 3.4298617526268029 #
plane-surface $-1 60.819727164525283 0 0 -1 0 0 0 0 1 forward_v I I I I #
coedge $-1 $508 $506 $510 $710 reversed $341 $-1 #
edge $-1 $521 -10.420433320103486 $712 10.420433320103486 $520 $823 forward 7 unknown #
vertex $-1 $710 $824 #
straight-curve $-1 -60.819727164525283 -42.09047343505226 0 0 0 -1 I I #
edge $-1 $708 -42.09047343505226 $712 42.09047343505226 $706 $825 forward 7 unknown #
straight-curve $-1 0 -42.09047343505226 -10.420433320103486 -1 0 0 I I #
vertex $-1 $513 $826 #
straight-curve $-1 0 42.09047343505226 -10.420433320103486 1 0 0 I I #
point $-1 60.819727164525283 42.09047343505226 -10.420433320103486 #
point $-1 60.819727164525283 -42.09047343505226 -10.420433320103486 #
straight-curve $-1 -60.819727164525283 0 10.420433320103486 0 -1 0 I I #
point $-1 -60.819727164525283 42.09047343505226 10.420433320103486 #
point $-1 -60.819727164525283 -42.09047343505226 10.420433320103486 #
straight-curve $-1 60.819727164525283 -42.09047343505226 0 0 0 -1 I I #
straight-curve $-1 60.819727164525283 42.09047343505226 0 0 0 -1 I I #
loop $-1 $-1 $536 $530 #
plane-surface $-1 0 -42.09047343505226 0 0 1 0 0 0 1 forward_v I I I I #
coedge $-1 $547 $538 $534 $725 forward $531 $-1 #
edge $-1 $729 -23.612671271091966 $542 -13.342933056828628 $533 $827 forward 7 unknown #
edge $-1 $543 13.342933056828628 $728 23.612671271091966 $723 $828 forward 7 unknown #
coedge $-1 $545 $536 $550 $738 reversed $721 $-1 #
coedge $-1 $536 $545 $547 $736 reversed $721 $-1 #
vertex $-1 $736 $829 #
vertex $-1 $537 $830 #
straight-curve $-1 -44.758694850320758 -42.09047343505226 0 0 0 1 I I #
straight-curve $-1 -23.222487591789132 -31.820735220788922 -10.420433320103486 1 0 0 I I #
straight-curve $-1 -23.222487591789132 -31.820735220788922 10.420433320103486 -1 0 0 I I #
point $-1 -44.758694850320758 -31.820735220788922 10.420433320103486 #
point $-1 -44.758694850320758 -31.820735220788922 -10.420433320103486 #
straight-curve $-1 -48.131255516835772 -42.09047343505226 0 0 0 -1 I I #
edge $-1 $728 44.758694850320758 $548 48.131255516835772 $727 $831 forward 7 unknown #
point $-1 -48.131255516835772 -42.09047343505226 -10.420433320103486 #
edge $-1 $551 -48.131255516835772 $729 -44.758694850320758 $726 $832 forward 7 unknown #
point $-1 -48.131255516835772 -42.09047343505226 10.420433320103486 #
plane-surface $-1 0 42.09047343505226 0 0 -1 0 0 0 -1 forward_v I I I I #
coedge $-1 $558 $562 $567 $751 forward $376 $-1 #
edge $-1 $833 -23.612671271091969 $572 -13.342933056828628 $558 $834 forward 7 unknown #
coedge $-1 $560 $559 $749 $835 reversed $230 $-1 #
edge $-1 $575 13.342933056828628 $836 23.612671271091969 $574 $837 forward 7 unknown #
straight-curve $-1 -44.758694850320758 31.820735220788926 0 0 0 -1 I I #
straight-curve $-1 -48.131255516835772 18.477802163960298 -10.420433320103486 0 1 0 I I #
coedge $-1 $564 $574 $566 $750 forward $556 $-1 #
straight-curve $-1 -48.131255516835772 18.477802163960298 10.420433320103486 0 -1 0 I I #
coedge $-1 $567 $566 $743 $835 forward $568 $-1 #
edge $-1 $836 44.758694850320758 $570 48.131255516835772 $566 $838 forward 7 unknown #
edge $-1 $569 -48.131255516835772 $833 -44.758694850320758 $567 $839 forward 7 unknown #
point $-1 -48.131255516835772 42.090473435052267 -10.420433320103486 #
point $-1 -48.131255516835772 42.090473435052267 10.420433320103486 #
point $-1 -44.758694850320758 31.820735220788926 -10.420433320103486 #
point $-1 -44.758694850320758 31.820735220788926 10.420433320103486 #
edge $-1 $757 27.298512426913561 $760 37.169778877872737 $580 $840 forward 7 unknown #
vertex $-1 $594 $841 #
straight-curve $-1 -78.33646312136672 -19.024892377239532 10.420433320103484 -1 0 0 I I #
edge $-1 $760 7.4396118183572018 $591 15.730949299407458 $590 $842 forward 7 unknown #
vertex $-1 $759 $843 #
straight-curve $-1 -60.81972716452529 -19.024892377239532 0.54916686914430102 0.61566146476048833 0 0.78801076186113728 I I #
point $-1 -53.107448784106992 -19.024892377239532 10.420433320103486 #
point $-1 -60.819727164525283 -27.316229858289788 0.54916686914431012 #
straight-curve $-1 -60.819727164525283 0 10.420433320103486 0 -1 0 I I #
vertex $-1 $597 $844 #
point $-1 -55.636672490837327 -24.947276292275429 5.0826092293324026 #
vertex $-1 $601 $845 #
point $-1 -55.636672490837327 -21.39384594325389 5.0826092293324026 #
coedge $-1 $616 $615 $608 $770 forward $605 $-1 #
edge $-1 $771 27.298512426913561 $774 37.169778877872737 $769 $846 forward 7 unknown #
vertex $-1 $620 $847 #
straight-curve $-1 -78.33646312136672 -3.1145247668450686 10.420433320103484 -1 0 0 I I #
edge $-1 $774 -0.51557198684002969 $617 7.7757654942102263 $616 $848 forward 7 unknown #
vertex $-1 $773 $849 #
straight-curve $-1 -60.81972716452529 -3.1145247668450686 0.54916686914430102 0.61566146476048833 0 0.78801076186113728 I I #
point $-1 -53.107448784106992 -3.1145247668450686 10.420433320103486 #
point $-1 -60.819727164525283 -11.405862247895325 0.54916686914431012 #
straight-curve $-1 -60.819727164525283 0 10.420433320103486 0 -1 0 I I #
vertex $-1 $623 $850 #
point $-1 -55.636672490837327 -9.0369086818809663 5.0826092293324026 #
vertex $-1 $627 $851 #
point $-1 -55.636672490837327 -5.483478332859427 5.0826092293324026 #
coedge $-1 $642 $641 $634 $784 forward $631 $-1 #
edge $-1 $785 27.298512426913561 $788 37.169778877872737 $783 $852 forward 7 unknown #
vertex $-1 $646 $853 #
straight-curve $-1 -78.33646312136672 12.795842843549391 10.420433320103484 -1 0 0 I I #
edge $-1 $788 -8.4707557920372594 $643 -0.17941831098700334 $642 $854 forward 7 unknown #
vertex $-1 $787 $855 #
straight-curve $-1 -60.81972716452529 12.795842843549391 0.54916686914430102 0.61566146476048833 0 0.78801076186113728 I I #
point $-1 -53.107448784106992 12.795842843549391 10.420433320103486 #
point $-1 -60.819727164525283 4.5045053624991347 0.54916686914431012 #
straight-curve $-1 -60.819727164525283 0 10.420433320103486 0 -1 0 I I #
vertex $-1 $649 $856 #
point $-1 -55.636672490837327 6.873458928513493 5.0826092293324026 #
vertex $-1 $653 $857 #
point $-1 -55.636672490837327 10.426889277535032 5.0826092293324026 #
coedge $-1 $668 $667 $660 $798 forward $657 $-1 #
edge $-1 $799 27.298512426913561 $802 37.169778877872737 $797 $858 forward 7 unknown #
vertex $-1 $672 $859 #
straight-curve $-1 -78.33646312136672 28.706210453943857 10.420433320103484 -1 0 0 I I #
edge $-1 $802 -16.425939597234493 $669 -8.1346021161842366 $668 $860 forward 7 unknown #
vertex $-1 $801 $861 #
straight-curve $-1 -60.81972716452529 28.706210453943857 0.54916686914430102 0.61566146476048833 0 0.78801076186113728 I I #
point $-1 -53.107448784106992 28.706210453943857 10.420433320103486 #
point $-1 -60.819727164525283 20.414872972893601 0.54916686914431012 #
straight-curve $-1 -60.819727164525283 0 10.420433320103486 0 -1 0 I I #
vertex $-1 $675 $862 #
point $-1 -55.636672490837327 22.78382653890796 5.0826092293324026 #
vertex $-1 $679 $863 #
point $-1 -55.636672490837327 26.337256887929499 5.0826092293324026 #
coedge $-1 $694 $693 $686 $812 forward $683 $-1 #
edge $-1 $813 73.399286285701635 $816 83.094592877970044 $811 $864 forward 7 unknown #
vertex $-1 $698 $865 #
straight-curve $-1 51.218071019515705 -12.206798864047613 10.420433320103484 1 0 0 I I #
edge $-1 $816 -10.246737481166448 $695 6.3266147154041192 $694 $866 forward 7 unknown #
vertex $-1 $815 $867 #
straight-curve $-1 -1.8292216401092389 -12.206798864047613 104.99049040697574 -0.51503806187062418 0 0.85716730853699208 I I #
point $-1 54.994199444568025 -12.206798864047613 10.420433320103484 #
point $-1 60.819727164525283 4.3665533325229546 0.72512672783507526 #
straight-curve $-1 60.819727164525283 0 10.420433320103486 0 1 0 I I #
vertex $-1 $701 $868 #
point $-1 53.444576457423416 -3.9201227657623292 -0.025075873322248032 #
straight-curve $-1 -60.819727164525283 42.09047343505226 0 0 0 -1 I I #
point $-1 -60.819727164525283 -42.09047343505226 -10.420433320103486 #
straight-curve $-1 -60.819727164525283 0 -10.420433320103486 0 1 0 I I #
point $-1 -60.819727164525283 42.09047343505226 -10.420433320103486 #
straight-curve $-1 -44.758694850320758 -18.477802163960295 10.420433320103486 0 1 0 I I #
straight-curve $-1 -44.758694850320758 -18.477802163960295 -10.420433320103486 0 -1 0 I I #
point $-1 -44.758694850320758 -42.09047343505226 -10.420433320103486 #
point $-1 -44.758694850320758 -42.09047343505226 10.420433320103486 #
straight-curve $-1 0 -42.09047343505226 -10.420433320103486 -1 0 0 I I #
straight-curve $-1 0 -42.09047343505226 10.420433320103486 1 0 0 I I #
vertex $-1 $835 $869 #
straight-curve $-1 -44.758694850320758 18.477802163960298 -10.420433320103486 0 -1 0 I I #
edge $-1 $836 -10.420433320103486 $833 10.420433320103486 $749 $870 forward 7 unknown #
vertex $-1 $750 $871 #
straight-curve $-1 -44.758694850320758 18.477802163960298 10.420433320103486 0 1 0 I I #
straight-curve $-1 0 42.09047343505226 10.420433320103486 -1 0 0 I I #
straight-curve $-1 0 42.09047343505226 -10.420433320103486 1 0 0 I I #
straight-curve $-1 -60.819727164525283 -19.024892377239532 37.718945747017045 0 0 -1 I I #
point $-1 -60.819727164525283 -19.024892377239532 10.420433320103486 #
straight-curve $-1 -60.819727164525283 -11.58528055888233 0.5491668691443139 0 -1 0 I I #
point $-1 -60.819727164525283 -19.024892377239532 0.54916686914431012 #
point $-1 -55.550497842287001 -24.947276292275429 4.3807731160215893 #
point $-1 -55.550497842287001 -21.39384594325389 4.3807731160215893 #
straight-curve $-1 -60.819727164525283 -3.1145247668450686 37.718945747017045 0 0 -1 I I #
point $-1 -60.819727164525283 -3.1145247668450686 10.420433320103486 #
straight-curve $-1 -60.819727164525283 -3.6300967536850983 0.5491668691443139 0 -1 0 I I #
point $-1 -60.819727164525283 -3.1145247668450686 0.54916686914431012 #
point $-1 -55.550497842287001 -9.0369086818809663 4.3807731160215893 #
point $-1 -55.550497842287001 -5.483478332859427 4.3807731160215893 #
straight-curve $-1 -60.819727164525283 12.795842843549391 37.718945747017045 0 0 -1 I I #
point $-1 -60.819727164525283 12.795842843549391 10.420433320103486 #
straight-curve $-1 -60.819727164525283 4.3250870515121314 0.5491668691443139 0 -1 0 I I #
point $-1 -60.819727164525283 12.795842843549391 0.54916686914431012 #
point $-1 -55.550497842287001 6.873458928513493 4.3807731160215893 #
point $-1 -55.550497842287001 10.426889277535032 4.3807731160215893 #
straight-curve $-1 -60.819727164525283 28.706210453943857 37.718945747017045 0 0 -1 I I #
point $-1 -60.819727164525283 28.706210453943857 10.420433320103486 #
straight-curve $-1 -60.819727164525283 12.280270856709365 0.5491668691443139 0 -1 0 I I #
point $-1 -60.819727164525283 28.706210453943857 0.54916686914431012 #
point $-1 -55.550497842287001 22.78382653890796 4.3807731160215893 #
point $-1 -55.550497842287001 26.337256887929499 4.3807731160215893 #
straight-curve $-1 60.819727164525283 -12.206798864047613 83.819719605805119 0 0 -1 I I #
point $-1 60.819727164525283 -12.206798864047613 10.420433320103486 #
straight-curve $-1 60.819727164525275 -1.9600613828811646 0.72512672783506815 0 1 0 I I #
point $-1 60.819727164525283 -12.206798864047613 0.72512672783507526 #
point $-1 50.014063031404376 -3.9201227657623292 0.83024724334367139 #
point $-1 -44.758694850320758 42.090473435052267 -10.420433320103486 #
straight-curve $-1 -44.758694850320758 42.09047343505226 0 0 0 -1 I I #
point $-1 -44.758694850320758 42.090473435052267 10.420433320103486 #
End-of-ACIS-data 