500 0 9 0           
7 Unknown 11 ACIS 5.0 NT 24 Fri Mar 26 17:50:10 1999 
-1 9.9999999999999995e-007 1e-010 
body $-1 $9 $-1 $10 #
body $-1 $11 $-1 $12 #
body $-1 $13 $-1 $14 #
body $-1 $15 $-1 $16 #
body $-1 $17 $-1 $18 #
body $-1 $19 $-1 $20 #
body $-1 $21 $-1 $22 #
body $-1 $23 $-1 $24 #
body $-1 $25 $-1 $26 #
lump $-1 $-1 $27 $0 #
transform $-1 1 0 0 0 1 0 0 0 1 61.359294412060919 27.930117130490157 12.2313063681133 1 rotate no_reflect no_shear #
lump $-1 $-1 $28 $1 #
transform $-1 1 0 0 0 1 0 0 0 1 61.359294412060919 27.930117130490157 12.2313063681133 1 rotate no_reflect no_shear #
lump $-1 $-1 $29 $2 #
transform $-1 1 0 0 0 1 0 0 0 1 61.359294412060919 27.930117130490157 12.2313063681133 1 rotate no_reflect no_shear #
lump $-1 $-1 $30 $3 #
transform $-1 1 0 0 0 1 0 0 0 1 61.359294412060919 27.930117130490157 12.2313063681133 1 rotate no_reflect no_shear #
lump $-1 $-1 $31 $4 #
transform $-1 1 0 0 0 1 0 0 0 1 61.359294412060919 27.930117130490157 12.2313063681133 1 rotate no_reflect no_shear #
lump $-1 $-1 $32 $5 #
transform $-1 1 0 0 0 1 0 0 0 1 61.359294412060919 27.930117130490157 12.2313063681133 1 rotate no_reflect no_shear #
lump $-1 $-1 $33 $6 #
transform $-1 1 0 0 0 1 0 0 0 1 61.359294412060919 27.930117130490157 12.2313063681133 1 rotate no_reflect no_shear #
lump $-1 $-1 $34 $7 #
transform $-1 1 0 0 0 1 0 0 0 1 61.359294412060919 27.930117130490157 12.2313063681133 1 rotate no_reflect no_shear #
lump $-1 $-1 $35 $8 #
transform $-1 1 0 0 0 1 0 0 0 1 61.359294412060919 27.930117130490157 12.2313063681133 1 rotate no_reflect no_shear #
shell $-1 $-1 $-1 $36 $-1 $9 #
shell $-1 $-1 $-1 $37 $-1 $11 #
shell $-1 $-1 $-1 $38 $-1 $13 #
shell $-1 $-1 $-1 $39 $-1 $15 #
shell $-1 $-1 $-1 $40 $-1 $17 #
shell $-1 $-1 $-1 $41 $-1 $19 #
shell $-1 $-1 $-1 $42 $-1 $21 #
shell $-1 $-1 $-1 $43 $-1 $23 #
shell $-1 $-1 $-1 $44 $-1 $25 #
face $-1 $45 $46 $27 $-1 $47 forward single #
face $-1 $48 $49 $28 $-1 $50 forward single #
face $-1 $51 $52 $29 $-1 $53 forward single #
face $-1 $54 $55 $30 $-1 $56 reversed single #
face $-1 $57 $58 $31 $-1 $59 forward single #
face $-1 $60 $61 $32 $-1 $62 forward single #
face $-1 $63 $64 $33 $-1 $65 reversed single #
face $-1 $66 $67 $34 $-1 $68 forward single #
face $-1 $69 $70 $35 $-1 $71 forward single #
face $-1 $72 $73 $27 $-1 $74 reversed single #
loop $-1 $-1 $75 $36 #
plane-surface $-1 0 0 12.2313063681133 0 0 1 1 0 0 forward_v I I I I #
face $-1 $76 $77 $28 $-1 $78 forward single #
loop $-1 $-1 $79 $37 #
plane-surface $-1 0 -27.930117130490157 0 0 1 0 0 0 1 forward_v I I I I #
face $-1 $80 $81 $29 $-1 $82 reversed single #
loop $-1 $-1 $83 $38 #
plane-surface $-1 0 27.930117130490157 0 0 -1 0 0 0 -1 forward_v I I I I #
face $-1 $84 $85 $30 $-1 $86 reversed single #
loop $-1 $-1 $87 $39 #
plane-surface $-1 -126.39023956813791 -9.5440173858313866 106.79555270287227 0 1 0 -0.52991927123019833 0 0.84804809178421925 forward_v I I I I #
face $-1 $88 $89 $31 $-1 $90 forward single #
loop $-1 $91 $92 $40 #
cone-surface $-1 -53.487129733986627 -7.7132519295878801 7.0537729502263034 0.52991927123019833 0 -0.84804809178421925 0.42402404589210962 0 0.26495963561509916 1 I I 0 1 0.5 forward I I I I #
face $-1 $93 $94 $32 $-1 $95 forward single #
loop $-1 $96 $97 $41 #
cone-surface $-1 -53.487129733986627 -4.9671037452226159 7.0537729502263034 0.52991927123019833 0 -0.84804809178421925 0.42402404589210962 0 0.26495963561509916 1 I I 0 1 0.5 forward I I I I #
face $-1 $98 $99 $33 $-1 $100 reversed single #
loop $-1 $-1 $101 $42 #
plane-surface $-1 22.318974489389177 -3.1363382889791058 171.82649785894927 0 -1 0 -0.52991927123019833 0 -0.84804809178421925 forward_v I I I I #
face $-1 $102 $103 $34 $-1 $104 forward single #
loop $-1 $105 $106 $43 #
cone-surface $-1 53.487129733986635 -7.7132519295878801 7.0537729502263034 -0.52991927123019833 0 -0.84804809178421925 0.42402404589210962 0 -0.26495963561509916 1 I I 0 1 0.5 forward I I I I #
face $-1 $107 $108 $35 $-1 $109 forward single #
loop $-1 $110 $111 $44 #
cone-surface $-1 53.487129733986635 -4.9671037452226159 7.0537729502263034 -0.52991927123019833 0 -0.84804809178421925 0.42402404589210962 0 -0.26495963561509916 1 I I 0 1 0.5 forward I I I I #
face $-1 $112 $113 $27 $-1 $114 reversed single #
loop $-1 $-1 $115 $45 #
plane-surface $-1 0 0 -12.2313063681133 0 0 1 1 0 0 forward_v I I I I #
coedge $-1 $116 $117 $118 $119 forward $46 $-1 #
face $-1 $120 $121 $28 $-1 $122 reversed single #
loop $-1 $-1 $123 $48 #
plane-surface $-1 0 0 12.2313063681133 0 0 1 1 0 0 forward_v I I I I #
coedge $-1 $124 $125 $126 $127 forward $49 $-1 #
face $-1 $128 $129 $29 $-1 $130 reversed single #
loop $-1 $-1 $131 $51 #
plane-surface $-1 61.359294412060919 0 0 -1 0 0 0 0 1 forward_v I I I I #
coedge $-1 $132 $133 $134 $135 forward $52 $-1 #
face $-1 $136 $137 $30 $-1 $138 reversed single #
loop $-1 $-1 $139 $54 #
plane-surface $-1 -61.359294412060905 -6.3401778374052462 2.7242876241235194 -0.52991927123019833 0 0.84804809178421925 0.84804809178421925 0 0.52991927123019833 forward_v I I I I #
coedge $-1 $140 $141 $142 $143 reversed $55 $-1 #
face $-1 $-1 $144 $31 $-1 $145 forward single #
loop $-1 $146 $147 $57 #
cone-surface $-1 -53.089690280563978 -7.7132519295878801 6.417736881388139 0.52991927123019833 0 -0.84804809178421925 0.21201202294605481 0 0.13247981780754958 1 I I -0.70710678118654746 0.70710678118654746 0.25 forward I I I I #
loop $-1 $-1 $148 $40 #
coedge $-1 $92 $92 $149 $150 reversed $58 $-1 #
face $-1 $-1 $151 $32 $-1 $152 forward single #
loop $-1 $153 $154 $60 #
cone-surface $-1 -53.089690280563978 -4.9671037452226159 6.417736881388139 0.52991927123019833 0 -0.84804809178421925 0.21201202294605481 0 0.13247981780754958 1 I I -0.70710678118654746 0.70710678118654746 0.25 forward I I I I #
loop $-1 $-1 $155 $41 #
coedge $-1 $97 $97 $156 $157 reversed $61 $-1 #
face $-1 $158 $159 $33 $-1 $160 reversed single #
loop $-1 $-1 $161 $63 #
plane-surface $-1 -42.711970666687833 -6.3401778374052462 67.755232780200515 0.52991927123019833 0 0.84804809178421925 0.84804809178421925 0 -0.52991927123019833 forward_v I I I I #
coedge $-1 $162 $163 $164 $165 reversed $64 $-1 #
face $-1 $-1 $166 $34 $-1 $167 forward single #
loop $-1 $168 $169 $66 #
cone-surface $-1 53.089690280563985 -7.7132519295878801 6.417736881388139 -0.52991927123019833 0 -0.84804809178421925 0.21201202294605481 0 -0.13247981780754958 1 I I -0.70710678118654746 0.70710678118654746 0.25 forward I I I I #
loop $-1 $-1 $170 $43 #
coedge $-1 $106 $106 $171 $172 reversed $67 $-1 #
face $-1 $-1 $173 $35 $-1 $174 forward single #
loop $-1 $175 $176 $69 #
cone-surface $-1 53.089690280563985 -4.9671037452226159 6.417736881388139 -0.52991927123019833 0 -0.84804809178421925 0.21201202294605481 0 -0.13247981780754958 1 I I -0.70710678118654746 0.70710678118654746 0.25 forward I I I I #
loop $-1 $-1 $177 $44 #
coedge $-1 $111 $111 $178 $179 reversed $70 $-1 #
face $-1 $180 $181 $27 $-1 $182 reversed single #
loop $-1 $-1 $183 $72 #
plane-surface $-1 0 -27.930117130490157 0 0 1 0 0 0 1 forward_v I I I I #
coedge $-1 $184 $185 $186 $187 forward $73 $-1 #
coedge $-1 $188 $75 $189 $190 forward $46 $-1 #
coedge $-1 $75 $188 $191 $192 forward $46 $-1 #
coedge $-1 $193 $194 $75 $119 reversed $195 $-1 #
edge $-1 $196 -27.930117130490157 $197 27.930117130490157 $118 $198 forward 7 unknown #
face $-1 $199 $200 $28 $-1 $201 reversed single #
loop $-1 $-1 $202 $76 #
plane-surface $-1 -61.359294412060919 0 0 1 0 0 0 0 -1 forward_v I I I I #
coedge $-1 $203 $204 $205 $206 forward $77 $-1 #
coedge $-1 $205 $79 $202 $207 reversed $49 $-1 #
coedge $-1 $79 $205 $208 $209 reversed $49 $-1 #
coedge $-1 $210 $211 $79 $127 reversed $200 $-1 #
edge $-1 $212 -61.359294412060919 $213 61.359294412060919 $126 $214 forward 7 unknown #
face $-1 $215 $216 $29 $-1 $217 reversed single #
loop $-1 $-1 $218 $80 #
plane-surface $-1 0 34.492927643915579 5.3628569087621738 0 0 1 1 0 0 forward_v I I I I #
coedge $-1 $219 $220 $132 $221 forward $81 $-1 #
coedge $-1 $222 $83 $131 $221 reversed $52 $-1 #
coedge $-1 $83 $222 $223 $224 reversed $52 $-1 #
coedge $-1 $225 $218 $83 $135 reversed $129 $-1 #
edge $-1 $226 -61.359294412060919 $227 61.359294412060919 $134 $228 forward 7 unknown #
face $-1 $229 $230 $30 $-1 $231 reversed single #
loop $-1 $-1 $232 $84 #
plane-surface $-1 -126.39023956813791 -3.1363382889791058 106.79555270287227 0 -1 0 0.52991927123019833 0 -0.84804809178421925 forward_v I I I I #
coedge $-1 $233 $234 $235 $236 reversed $85 $-1 #
coedge $-1 $141 $87 $237 $238 reversed $55 $-1 #
coedge $-1 $87 $140 $233 $239 reversed $55 $-1 #
coedge $-1 $235 $240 $87 $143 forward $241 $-1 #
edge $-1 $242 1.8358253720080384 $243 17.050235456926451 $142 $244 forward 7 unknown #
loop $-1 $-1 $149 $88 #
plane-surface $-1 -61.359294412060905 -6.3401778374052462 2.7242876241235194 -0.52991927123019833 0 0.84804809178421925 0.84804809178421925 0 0.52991927123019833 forward_v I I I I #
loop $-1 $-1 $245 $57 #
coedge $-1 $147 $147 $148 $246 reversed $89 $-1 #
coedge $-1 $148 $148 $147 $246 forward $91 $-1 #
coedge $-1 $149 $149 $92 $150 forward $144 $-1 #
edge $-1 $247 0 $247 6.2831853071796004 $149 $248 forward 7 unknown #
loop $-1 $-1 $156 $93 #
plane-surface $-1 -61.359294412060905 -6.3401778374052462 2.7242876241235194 -0.52991927123019833 0 0.84804809178421925 0.84804809178421925 0 0.52991927123019833 forward_v I I I I #
loop $-1 $-1 $249 $60 #
coedge $-1 $154 $154 $155 $250 reversed $94 $-1 #
coedge $-1 $155 $155 $154 $250 forward $96 $-1 #
coedge $-1 $156 $156 $97 $157 forward $151 $-1 #
edge $-1 $251 0 $251 6.2831853071796004 $156 $252 forward 7 unknown #
face $-1 $253 $254 $33 $-1 $255 forward single #
loop $-1 $-1 $256 $98 #
plane-surface $-1 22.318974489389177 -9.5440173858313866 171.82649785894927 0 1 0 0.52991927123019833 0 0.84804809178421925 forward_v I I I I #
coedge $-1 $257 $258 $259 $260 reversed $99 $-1 #
coedge $-1 $163 $101 $261 $262 reversed $64 $-1 #
coedge $-1 $101 $162 $257 $263 reversed $64 $-1 #
coedge $-1 $259 $264 $101 $165 forward $254 $-1 #
edge $-1 $265 -50.19980716736633 $266 -34.985397082447903 $164 $267 forward 7 unknown #
loop $-1 $-1 $171 $102 #
plane-surface $-1 -42.711970666687833 -6.3401778374052462 67.755232780200515 0.52991927123019833 0 0.84804809178421925 0.84804809178421925 0 -0.52991927123019833 forward_v I I I I #
loop $-1 $-1 $268 $66 #
coedge $-1 $169 $169 $170 $269 reversed $103 $-1 #
coedge $-1 $170 $170 $169 $269 forward $105 $-1 #
coedge $-1 $171 $171 $106 $172 forward $166 $-1 #
edge $-1 $270 0 $270 6.2831853071796004 $171 $271 forward 7 unknown #
loop $-1 $-1 $178 $107 #
plane-surface $-1 -42.711970666687833 -6.3401778374052462 67.755232780200515 0.52991927123019833 0 0.84804809178421925 0.84804809178421925 0 -0.52991927123019833 forward_v I I I I #
loop $-1 $-1 $272 $69 #
coedge $-1 $176 $176 $177 $273 reversed $108 $-1 #
coedge $-1 $177 $177 $176 $273 forward $110 $-1 #
coedge $-1 $178 $178 $111 $179 forward $173 $-1 #
edge $-1 $274 0 $274 6.2831853071796004 $178 $275 forward 7 unknown #
face $-1 $276 $277 $27 $-1 $278 reversed single #
loop $-1 $-1 $279 $112 #
plane-surface $-1 -61.359294412060919 0 0 1 0 0 0 0 -1 forward_v I I I I #
coedge $-1 $280 $191 $281 $282 forward $113 $-1 #
coedge $-1 $283 $115 $280 $284 forward $73 $-1 #
coedge $-1 $115 $283 $285 $286 forward $73 $-1 #
coedge $-1 $194 $193 $115 $187 reversed $195 $-1 #
edge $-1 $287 -27.930117130490157 $288 27.930117130490157 $186 $289 forward 7 unknown #
coedge $-1 $117 $116 $290 $291 forward $46 $-1 #
coedge $-1 $292 $293 $116 $190 reversed $277 $-1 #
edge $-1 $197 -61.359294412060919 $294 61.359294412060919 $189 $295 forward 7 unknown #
coedge $-1 $183 $296 $117 $192 reversed $113 $-1 #
edge $-1 $297 -61.359294412060919 $196 61.359294412060919 $191 $298 forward 7 unknown #
coedge $-1 $186 $118 $296 $299 forward $195 $-1 #
coedge $-1 $118 $186 $292 $300 reversed $195 $-1 #
loop $-1 $-1 $193 $276 #
vertex $-1 $119 $301 #
vertex $-1 $119 $302 #
straight-curve $-1 61.359294412060919 0 12.2313063681133 0 1 0 I I #
face $-1 $303 $304 $28 $-1 $305 reversed single #
loop $-1 $-1 $210 $120 #
plane-surface $-1 0 -34.492927643915579 5.3628569087621738 0 0 1 1 0 0 forward_v I I I I #
coedge $-1 $306 $307 $124 $207 forward $121 $-1 #
coedge $-1 $308 $123 $307 $309 forward $77 $-1 #
coedge $-1 $123 $308 $310 $311 forward $77 $-1 #
coedge $-1 $125 $124 $123 $206 reversed $49 $-1 #
edge $-1 $312 -61.359294412060919 $313 61.359294412060919 $123 $314 forward 7 unknown #
edge $-1 $313 -12.2313063681133 $213 -5.3628569087621738 $202 $315 forward 7 unknown #
coedge $-1 $310 $316 $125 $209 forward $317 $-1 #
edge $-1 $212 5.3628569087621738 $312 12.2313063681133 $208 $318 forward 7 unknown #
coedge $-1 $319 $126 $316 $320 forward $200 $-1 #
coedge $-1 $126 $319 $306 $321 forward $200 $-1 #
vertex $-1 $209 $322 #
vertex $-1 $207 $323 #
straight-curve $-1 0 -27.930117130490157 5.3628569087621738 -1 0 0 I I #
face $-1 $324 $325 $29 $-1 $326 forward single #
loop $-1 $-1 $327 $128 #
plane-surface $-1 0 41.055738157340997 8.7970816384377368 0 -1 0 0 0 -1 forward_v I I I I #
coedge $-1 $134 $328 $219 $329 forward $129 $-1 #
coedge $-1 $330 $131 $218 $329 reversed $81 $-1 #
coedge $-1 $131 $330 $331 $332 reversed $81 $-1 #
edge $-1 $333 -12.2313063681133 $227 -5.3628569087621738 $131 $334 forward 7 unknown #
coedge $-1 $133 $132 $335 $336 reversed $52 $-1 #
coedge $-1 $337 $338 $133 $224 forward $339 $-1 #
edge $-1 $226 5.3628569087621738 $340 12.2313063681133 $223 $341 forward 7 unknown #
coedge $-1 $328 $134 $338 $342 forward $129 $-1 #
vertex $-1 $224 $343 #
vertex $-1 $221 $344 #
straight-curve $-1 0 27.930117130490157 5.3628569087621738 1 0 0 I I #
face $-1 $-1 $241 $30 $-1 $345 forward single #
loop $-1 $-1 $346 $136 #
plane-surface $-1 -61.359294412060919 0 0 1 0 0 0 0 -1 forward_v I I I I #
coedge $-1 $347 $348 $349 $350 reversed $137 $-1 #
coedge $-1 $351 $139 $141 $239 forward $85 $-1 #
coedge $-1 $139 $351 $347 $352 forward $85 $-1 #
coedge $-1 $349 $142 $139 $236 forward $241 $-1 #
edge $-1 $243 -6.3739284671287635 $353 0.033750629723517278 $235 $354 forward 7 unknown #
coedge $-1 $355 $356 $140 $238 forward $230 $-1 #
edge $-1 $357 -50.673488727312623 $242 -41.166469983322834 $237 $358 forward 7 unknown #
edge $-1 $243 -17.940503884524528 $357 1.675811683274863e-014 $141 $359 forward 7 unknown #
coedge $-1 $142 $349 $355 $360 forward $241 $-1 #
loop $-1 $-1 $349 $229 #
vertex $-1 $238 $361 #
vertex $-1 $143 $362 #
straight-curve $-1 -63.195119784068957 -9.5440173858313866 12.231306368113302 1 0 0 I I #
coedge $-1 $245 $245 $-1 $363 reversed $146 $-1 #
edge $-1 $364 0 $364 6.2831853071796004 $147 $365 forward 7 unknown #
vertex $-1 $150 $366 #
ellipse-curve $-1 -53.75208936960172 -7.7132519295878801 7.4777969961184008 -0.52991927123019833 0 0.84804809178421925 0.42402404589210962 0 0.26495963561509916 1 I I #
coedge $-1 $249 $249 $-1 $367 reversed $153 $-1 #
edge $-1 $368 0 $368 6.2831853071796004 $154 $369 forward 7 unknown #
vertex $-1 $157 $370 #
ellipse-curve $-1 -53.75208936960172 -4.9671037452226159 7.4777969961184008 -0.52991927123019833 0 0.84804809178421925 0.42402404589210962 0 0.26495963561509916 1 I I #
face $-1 $-1 $371 $33 $-1 $372 reversed single #
loop $-1 $-1 $164 $158 #
plane-surface $-1 0 0 12.2313063681133 0 0 1 1 0 0 forward_v I I I I #
coedge $-1 $373 $374 $375 $376 reversed $159 $-1 #
coedge $-1 $377 $161 $163 $263 forward $99 $-1 #
coedge $-1 $161 $377 $373 $378 forward $99 $-1 #
coedge $-1 $375 $164 $161 $260 forward $254 $-1 #
edge $-1 $266 -0.033750629723517278 $379 6.3739284671287635 $259 $380 forward 7 unknown #
coedge $-1 $381 $382 $162 $262 forward $371 $-1 #
edge $-1 $383 -83.188961305351128 $265 -73.681942561361339 $261 $384 forward 7 unknown #
edge $-1 $266 104.77808493959731 $383 122.71858882412187 $163 $385 forward 7 unknown #
coedge $-1 $164 $375 $381 $386 forward $254 $-1 #
vertex $-1 $262 $387 #
vertex $-1 $165 $388 #
straight-curve $-1 11.159487244694589 -3.1363382889791058 12.231306368113295 -1 0 0 I I #
coedge $-1 $268 $268 $-1 $389 reversed $168 $-1 #
edge $-1 $390 0 $390 6.2831853071796004 $169 $391 forward 7 unknown #
vertex $-1 $172 $392 #
ellipse-curve $-1 53.75208936960172 -7.7132519295878801 7.4777969961183892 0.52991927123019833 0 0.84804809178421925 0.42402404589210962 0 -0.26495963561509916 1 I I #
coedge $-1 $272 $272 $-1 $393 reversed $175 $-1 #
edge $-1 $394 0 $394 6.2831853071796004 $176 $395 forward 7 unknown #
vertex $-1 $179 $396 #
ellipse-curve $-1 53.75208936960172 -4.9671037452226159 7.4777969961183892 0.52991927123019833 0 0.84804809178421925 0.42402404589210962 0 -0.26495963561509916 1 I I #
face $-1 $-1 $195 $27 $-1 $397 reversed single #
loop $-1 $-1 $292 $180 #
plane-surface $-1 0 27.930117130490157 0 0 -1 0 0 0 -1 forward_v I I I I #
coedge $-1 $398 $290 $293 $399 forward $181 $-1 #
coedge $-1 $296 $183 $184 $284 reversed $113 $-1 #
coedge $-1 $290 $398 $183 $282 reversed $181 $-1 #
edge $-1 $297 -12.2313063681133 $400 12.2313063681133 $281 $401 forward 7 unknown #
coedge $-1 $185 $184 $398 $402 forward $73 $-1 #
edge $-1 $288 -61.359294412060919 $400 61.359294412060919 $280 $403 forward 7 unknown #
coedge $-1 $293 $292 $185 $286 reversed $277 $-1 #
edge $-1 $404 -61.359294412060919 $287 61.359294412060919 $285 $405 forward 7 unknown #
vertex $-1 $187 $406 #
vertex $-1 $299 $407 #
straight-curve $-1 61.359294412060919 0 -12.2313063681133 0 -1 0 I I #
coedge $-1 $279 $281 $188 $291 reversed $181 $-1 #
edge $-1 $294 -27.930117130490157 $297 27.930117130490157 $290 $408 forward 7 unknown #
coedge $-1 $285 $189 $194 $300 forward $277 $-1 #
coedge $-1 $189 $285 $279 $399 reversed $277 $-1 #
vertex $-1 $190 $409 #
straight-curve $-1 0 27.930117130490157 12.2313063681133 -1 0 0 I I #
coedge $-1 $191 $280 $193 $299 reversed $113 $-1 #
vertex $-1 $291 $410 #
straight-curve $-1 0 -27.930117130490157 12.2313063681133 1 0 0 I I #
edge $-1 $196 -12.2313063681133 $288 12.2313063681133 $193 $411 forward 7 unknown #
edge $-1 $197 -12.2313063681133 $287 12.2313063681133 $194 $412 forward 7 unknown #
point $-1 61.359294412060919 -27.930117130490157 12.2313063681133 #
point $-1 61.359294412060919 27.930117130490157 12.2313063681133 #
face $-1 $-1 $317 $28 $-1 $413 reversed single #
loop $-1 $-1 $414 $199 #
plane-surface $-1 0 -41.055738157341004 8.7970816384377368 0 1 0 0 0 1 forward_v I I I I #
coedge $-1 $415 $202 $211 $321 reversed $121 $-1 #
coedge $-1 $202 $415 $203 $309 reversed $121 $-1 #
coedge $-1 $204 $203 $416 $417 forward $77 $-1 #
edge $-1 $313 27.930117130490157 $418 41.055738157341004 $307 $419 forward 7 unknown #
coedge $-1 $420 $208 $204 $311 reversed $317 $-1 #
edge $-1 $421 -41.055738157341004 $312 -27.930117130490157 $310 $422 forward 7 unknown #
vertex $-1 $209 $423 #
vertex $-1 $309 $424 #
straight-curve $-1 0 -27.930117130490157 12.2313063681133 -1 0 0 I I #
straight-curve $-1 -61.359294412060919 -27.930117130490157 0 0 0 -1 I I #
coedge $-1 $208 $420 $210 $320 reversed $317 $-1 #
loop $-1 $-1 $208 $303 #
straight-curve $-1 61.359294412060919 -27.930117130490157 0 0 0 1 I I #
coedge $-1 $211 $210 $425 $426 forward $200 $-1 #
edge $-1 $212 -6.5628105134254255 $427 6.5628105134254255 $316 $428 forward 7 unknown #
edge $-1 $429 -6.5628105134254255 $213 6.5628105134254255 $306 $430 forward 7 unknown #
point $-1 61.359294412060919 -27.930117130490153 5.3628569087621738 #
point $-1 -61.359294412060919 -27.930117130490153 5.3628569087621738 #
face $-1 $-1 $339 $29 $-1 $431 reversed single #
loop $-1 $-1 $335 $215 #
plane-surface $-1 0 0 12.2313063681133 0 0 1 1 0 0 forward_v I I I I #
coedge $-1 $432 $433 $330 $434 forward $216 $-1 #
coedge $-1 $218 $225 $432 $435 forward $129 $-1 #
edge $-1 $436 -6.5628105134254184 $227 6.562810513425422 $219 $437 forward 7 unknown #
coedge $-1 $220 $219 $327 $434 reversed $81 $-1 #
coedge $-1 $438 $335 $220 $332 forward $325 $-1 #
edge $-1 $333 27.930117130490157 $439 41.055738157340997 $220 $440 forward 7 unknown #
vertex $-1 $332 $441 #
straight-curve $-1 61.359294412060919 27.930117130490157 0 0 0 -1 I I #
coedge $-1 $331 $442 $222 $336 forward $325 $-1 #
edge $-1 $340 -61.359294412060919 $333 61.359294412060919 $335 $443 forward 7 unknown #
coedge $-1 $444 $223 $442 $445 reversed $339 $-1 #
coedge $-1 $223 $444 $225 $342 reversed $339 $-1 #
loop $-1 $-1 $223 $324 #
vertex $-1 $224 $446 #
straight-curve $-1 -61.359294412060919 27.930117130490157 0 0 0 1 I I #
edge $-1 $226 -6.562810513425422 $447 6.5628105134254184 $338 $448 forward 7 unknown #
point $-1 -61.359294412060919 27.930117130490157 5.3628569087621738 #
point $-1 61.359294412060919 27.930117130490157 5.3628569087621738 #
plane-surface $-1 0 0 12.2313063681133 0 0 1 1 0 0 forward_v I I I I #
coedge $-1 $356 $355 $348 $449 forward $230 $-1 #
coedge $-1 $348 $232 $234 $352 reversed $137 $-1 #
coedge $-1 $232 $347 $346 $449 reversed $137 $-1 #
coedge $-1 $240 $235 $232 $350 forward $241 $-1 #
edge $-1 $353 -17.050235456926451 $450 -1.8358253720080384 $349 $451 forward 7 unknown #
coedge $-1 $234 $233 $356 $452 reversed $85 $-1 #
edge $-1 $453 -1.675811683274863e-014 $353 17.940503884524528 $347 $454 forward 7 unknown #
vertex $-1 $236 $455 #
straight-curve $-1 -46.144884327142506 -3.1700889187026231 12.231306368113298 0 1 0 I I #
coedge $-1 $346 $237 $240 $360 reversed $230 $-1 #
coedge $-1 $237 $346 $351 $452 forward $230 $-1 #
vertex $-1 $238 $456 #
straight-curve $-1 -61.359294412060919 -9.5440173858313866 53.397776351436136 0 0 1 I I #
straight-curve $-1 -61.359294412060905 -9.5440173858313866 2.7242876241235194 -0.84804809178421925 0 -0.52991927123019833 I I #
edge $-1 $450 3.1363382889791058 $242 9.5440173858313866 $355 $457 forward 7 unknown #
point $-1 -61.359294412060919 -9.5440173858313866 12.2313063681133 #
point $-1 -46.144884327142506 -9.5440173858313866 12.2313063681133 #
edge $-1 $458 1 $458 0 $245 $-1 forward 7 unknown #
vertex $-1 $246 $459 #
ellipse-curve $-1 -53.222170098371528 -7.7132519295878801 6.6297489043341935 -0.52991927123019833 0 0.84804809178421925 0.42402404589210962 0 0.26495963561509916 1 I I #
point $-1 -53.328065323709616 -7.7132519295878801 7.7427566317335126 #
edge $-1 $460 1 $460 0 $249 $-1 forward 7 unknown #
vertex $-1 $250 $461 #
ellipse-curve $-1 -53.222170098371528 -4.9671037452226159 6.6297489043341935 -0.52991927123019833 0 0.84804809178421925 0.42402404589210962 0 0.26495963561509916 1 I I #
point $-1 -53.328065323709616 -4.9671037452226159 7.7427566317335126 #
loop $-1 $-1 $261 $253 #
plane-surface $-1 61.359294412060919 0 0 -1 0 0 0 0 1 forward_v I I I I #
coedge $-1 $374 $256 $258 $378 reversed $159 $-1 #
coedge $-1 $256 $373 $462 $463 reversed $159 $-1 #
coedge $-1 $264 $259 $256 $376 forward $254 $-1 #
edge $-1 $379 34.985397082447903 $464 50.19980716736633 $375 $465 forward 7 unknown #
coedge $-1 $258 $257 $382 $466 reversed $99 $-1 #
edge $-1 $467 -122.71858882412187 $379 -104.77808493959731 $373 $468 forward 7 unknown #
vertex $-1 $260 $469 #
straight-curve $-1 46.144884327142492 -3.1700889187026231 12.231306368113302 0 -1 0 I I #
coedge $-1 $462 $261 $264 $386 reversed $371 $-1 #
coedge $-1 $261 $462 $377 $466 forward $371 $-1 #
vertex $-1 $262 $470 #
straight-curve $-1 61.359294412060919 -3.1363382889791058 85.913248929474634 0 0 1 I I #
straight-curve $-1 -42.711970666687833 -3.1363382889791058 67.755232780200515 0.84804809178421925 0 -0.52991927123019833 I I #
edge $-1 $464 -9.5440173858313866 $265 -3.1363382889791058 $381 $471 forward 7 unknown #
point $-1 61.359294412060919 -3.1363382889791058 12.2313063681133 #
point $-1 46.144884327142492 -3.1363382889791058 12.231306368113302 #
edge $-1 $472 1 $472 0 $268 $-1 forward 7 unknown #
vertex $-1 $269 $473 #
ellipse-curve $-1 53.222170098371535 -7.7132519295878801 6.6297489043341935 0.52991927123019833 0 0.84804809178421925 0.42402404589210962 0 -0.26495963561509916 1 I I #
point $-1 54.176113415493845 -7.7132519295878801 7.2128373605033138 #
edge $-1 $474 1 $474 0 $272 $-1 forward 7 unknown #
vertex $-1 $273 $475 #
ellipse-curve $-1 53.222170098371535 -4.9671037452226159 6.6297489043341935 0.52991927123019833 0 0.84804809178421925 0.42402404589210962 0 -0.26495963561509916 1 I I #
point $-1 54.176113415493845 -4.9671037452226159 7.2128373605033138 #
plane-surface $-1 61.359294412060919 0 0 -1 0 0 0 0 1 forward_v I I I I #
coedge $-1 $281 $279 $283 $402 reversed $181 $-1 #
edge $-1 $294 -12.2313063681133 $404 12.2313063681133 $293 $476 forward 7 unknown #
vertex $-1 $402 $477 #
straight-curve $-1 -61.359294412060919 -27.930117130490157 0 0 0 -1 I I #
edge $-1 $400 -27.930117130490157 $404 27.930117130490157 $398 $478 forward 7 unknown #
straight-curve $-1 0 -27.930117130490157 -12.2313063681133 -1 0 0 I I #
vertex $-1 $286 $479 #
straight-curve $-1 0 27.930117130490157 -12.2313063681133 1 0 0 I I #
point $-1 61.359294412060919 27.930117130490157 -12.2313063681133 #
point $-1 61.359294412060919 -27.930117130490157 -12.2313063681133 #
straight-curve $-1 -61.359294412060919 0 12.2313063681133 0 -1 0 I I #
point $-1 -61.359294412060919 27.930117130490157 12.2313063681133 #
point $-1 -61.359294412060919 -27.930117130490157 12.2313063681133 #
straight-curve $-1 61.359294412060919 -27.930117130490157 0 0 0 -1 I I #
straight-curve $-1 61.359294412060919 27.930117130490157 0 0 0 -1 I I #
plane-surface $-1 61.359294412060919 0 0 -1 0 0 0 0 1 forward_v I I I I #
coedge $-1 $425 $416 $415 $480 forward $304 $-1 #
coedge $-1 $307 $306 $414 $480 reversed $121 $-1 #
coedge $-1 $414 $481 $308 $417 reversed $304 $-1 #
edge $-1 $418 -61.359294412060919 $421 61.359294412060919 $416 $482 forward 7 unknown #
vertex $-1 $309 $483 #
straight-curve $-1 -61.359294412060919 0 12.2313063681133 0 -1 0 I I #
coedge $-1 $316 $310 $481 $484 forward $317 $-1 #
vertex $-1 $311 $485 #
straight-curve $-1 61.359294412060919 0 12.2313063681133 0 1 0 I I #
point $-1 61.359294412060919 -27.930117130490157 12.2313063681133 #
point $-1 -61.359294412060919 -27.930117130490157 12.2313063681133 #
coedge $-1 $481 $414 $319 $426 reversed $304 $-1 #
edge $-1 $427 -61.359294412060919 $429 61.359294412060919 $425 $486 forward 7 unknown #
vertex $-1 $484 $487 #
straight-curve $-1 61.359294412060919 -34.492927643915579 5.3628569087621738 0 -1 0 I I #
vertex $-1 $321 $488 #
straight-curve $-1 -61.359294412060919 -34.492927643915579 5.3628569087621738 0 1 0 I I #
plane-surface $-1 -61.359294412060919 0 0 1 0 0 0 0 -1 forward_v I I I I #
coedge $-1 $489 $327 $328 $435 reversed $216 $-1 #
coedge $-1 $327 $489 $438 $490 reversed $216 $-1 #
edge $-1 $439 -3.434224729675563 $436 3.434224729675563 $330 $491 forward 7 unknown #
edge $-1 $447 -61.359294412060919 $436 61.359294412060919 $432 $492 forward 7 unknown #
vertex $-1 $329 $493 #
straight-curve $-1 61.359294412060919 34.492927643915579 5.3628569087621738 0 -1 0 I I #
coedge $-1 $442 $331 $433 $490 forward $325 $-1 #
vertex $-1 $332 $494 #
straight-curve $-1 61.359294412060919 0 12.2313063681133 0 1 0 I I #
point $-1 61.359294412060919 27.930117130490157 12.2313063681133 #
coedge $-1 $335 $438 $337 $445 forward $325 $-1 #
straight-curve $-1 0 27.930117130490157 12.2313063681133 1 0 0 I I #
coedge $-1 $338 $337 $489 $495 forward $339 $-1 #
edge $-1 $496 -41.055738157340997 $340 -27.930117130490157 $337 $497 forward 7 unknown #
point $-1 -61.359294412060919 27.930117130490157 12.2313063681133 #
vertex $-1 $435 $498 #
straight-curve $-1 -61.359294412060919 34.492927643915579 5.3628569087621738 0 1 0 I I #
edge $-1 $450 41.166469983322834 $453 50.673488727312623 $346 $499 forward 7 unknown #
vertex $-1 $360 $500 #
straight-curve $-1 -63.195119784068957 -3.1363382889791058 12.231306368113302 -1 0 0 I I #
edge $-1 $453 -0.033750629723517278 $357 6.3739284671287635 $356 $501 forward 7 unknown #
vertex $-1 $452 $502 #
straight-curve $-1 -61.359294412060905 -3.1363382889791058 2.7242876241235194 0.84804809178421925 0 0.52991927123019833 I I #
point $-1 -46.144884327142506 -3.1363382889791058 12.2313063681133 #
point $-1 -61.359294412060919 -9.5440173858313866 2.7242876241235106 #
straight-curve $-1 -61.359294412060919 0 12.2313063681133 0 -1 0 I I #
vertex $-1 $363 $503 #
point $-1 -52.798146052479417 -7.7132519295878801 6.8947085399492929 #
vertex $-1 $367 $504 #
point $-1 -52.798146052479417 -4.9671037452226159 6.8947085399492929 #
coedge $-1 $382 $381 $374 $463 forward $371 $-1 #
edge $-1 $464 73.681942561361339 $467 83.188961305351128 $462 $505 forward 7 unknown #
vertex $-1 $386 $506 #
straight-curve $-1 11.159487244694589 -9.5440173858313866 12.231306368113295 1 0 0 I I #
edge $-1 $467 -6.3739284671287635 $383 0.033750629723517278 $382 $507 forward 7 unknown #
vertex $-1 $466 $508 #
straight-curve $-1 -42.711970666687833 -9.5440173858313866 67.755232780200515 -0.84804809178421925 0 0.52991927123019833 I I #
point $-1 46.144884327142492 -9.5440173858313866 12.231306368113302 #
point $-1 61.359294412060919 -3.1363382889791058 2.7242876241235052 #
straight-curve $-1 61.359294412060919 0 12.2313063681133 0 1 0 I I #
vertex $-1 $389 $509 #
point $-1 53.646194144263646 -7.7132519295878801 6.364789268719095 #
vertex $-1 $393 $510 #
point $-1 53.646194144263646 -4.9671037452226159 6.364789268719095 #
straight-curve $-1 -61.359294412060919 27.930117130490157 0 0 0 -1 I I #
point $-1 -61.359294412060919 -27.930117130490157 -12.2313063681133 #
straight-curve $-1 -61.359294412060919 0 -12.2313063681133 0 1 0 I I #
point $-1 -61.359294412060919 27.930117130490157 -12.2313063681133 #
edge $-1 $418 -3.434224729675563 $429 3.434224729675563 $415 $511 forward 7 unknown #
coedge $-1 $416 $425 $420 $484 reversed $304 $-1 #
straight-curve $-1 0 -41.055738157341004 12.2313063681133 1 0 0 I I #
point $-1 -61.359294412060919 -41.055738157341004 12.2313063681133 #
edge $-1 $421 -3.434224729675563 $427 3.434224729675563 $420 $512 forward 7 unknown #
point $-1 61.359294412060919 -41.055738157341004 12.2313063681133 #
straight-curve $-1 0 -41.055738157341004 5.3628569087621738 -1 0 0 I I #
point $-1 61.359294412060919 -41.055738157341004 5.3628569087621738 #
point $-1 -61.359294412060919 -41.055738157341004 5.3628569087621738 #
coedge $-1 $433 $432 $444 $495 reversed $216 $-1 #
edge $-1 $439 -61.359294412060919 $496 61.359294412060919 $433 $513 forward 7 unknown #
straight-curve $-1 61.359294412060919 41.055738157340997 8.7970816384377368 0 0 -1 I I #
straight-curve $-1 0 41.055738157340997 5.3628569087621738 1 0 0 I I #
point $-1 61.359294412060919 41.055738157340997 5.3628569087621738 #
point $-1 61.359294412060919 41.055738157340997 12.2313063681133 #
edge $-1 $496 -3.434224729675563 $447 3.434224729675563 $489 $514 forward 7 unknown #
vertex $-1 $490 $515 #
straight-curve $-1 -61.359294412060919 0 12.2313063681133 0 -1 0 I I #
point $-1 -61.359294412060919 41.055738157340997 5.3628569087621738 #
straight-curve $-1 -61.359294412060919 -3.1363382889791058 53.397776351436136 0 0 -1 I I #
point $-1 -61.359294412060919 -3.1363382889791058 12.2313063681133 #
straight-curve $-1 -61.359294412060919 -3.1700889187026231 2.7242876241235114 0 -1 0 I I #
point $-1 -61.359294412060919 -3.1363382889791058 2.7242876241235106 #
point $-1 -52.957210462756429 -7.7132519295878801 6.2057248584420845 #
point $-1 -52.957210462756429 -4.9671037452226159 6.2057248584420845 #
straight-curve $-1 61.359294412060919 -9.5440173858313866 85.913248929474634 0 0 -1 I I #
point $-1 61.359294412060919 -9.5440173858313866 12.2313063681133 #
straight-curve $-1 61.359294412060933 -3.1700889187026231 2.7242876241234981 0 1 0 I I #
point $-1 61.359294412060919 -9.5440173858313866 2.7242876241235052 #
point $-1 52.957210462756436 -7.7132519295878801 6.2057248584420845 #
point $-1 52.957210462756436 -4.9671037452226159 6.2057248584420845 #
straight-curve $-1 -61.359294412060919 -41.055738157341004 8.7970816384377368 0 0 -1 I I #
straight-curve $-1 61.359294412060919 -41.055738157341004 8.7970816384377368 0 0 -1 I I #
straight-curve $-1 0 41.055738157340997 12.2313063681133 -1 0 0 I I #
straight-curve $-1 -61.359294412060919 41.055738157340997 8.7970816384377368 0 0 -1 I I #
point $-1 -61.359294412060919 41.055738157340997 12.2313063681133 #
End-of-ACIS-data 