500 0 11 0           
7 Unknown 11 ACIS 5.0 NT 24 Fri Mar 26 14:56:45 1999 
-1 9.9999999999999995e-007 1e-010 
body $-1 $11 $-1 $12 #
body $-1 $13 $-1 $14 #
body $-1 $15 $-1 $16 #
body $-1 $17 $-1 $18 #
body $-1 $19 $-1 $20 #
body $-1 $21 $-1 $22 #
body $-1 $23 $-1 $24 #
body $-1 $25 $-1 $26 #
body $-1 $27 $-1 $28 #
body $-1 $29 $-1 $30 #
body $-1 $31 $-1 $32 #
lump $-1 $-1 $33 $0 #
transform $-1 1 0 0 0 1 0 0 0 1 42.315744499038665 29.039110248992372 7.6875166461335933 1 rotate no_reflect no_shear #
lump $-1 $-1 $34 $1 #
transform $-1 1 0 0 0 1 0 0 0 1 42.315744499038665 29.039110248992372 7.6875166461335933 1 rotate no_reflect no_shear #
lump $-1 $-1 $35 $2 #
transform $-1 1 0 0 0 1 0 0 0 1 42.315744499038665 29.039110248992372 7.6875166461335933 1 rotate no_reflect no_shear #
lump $-1 $-1 $36 $3 #
transform $-1 1 0 0 0 1 0 0 0 1 42.315744499038665 29.039110248992372 7.6875166461335933 1 rotate no_reflect no_shear #
lump $-1 $-1 $37 $4 #
transform $-1 1 0 0 0 1 0 0 0 1 42.315744499038665 29.039110248992372 7.6875166461335933 1 rotate no_reflect no_shear #
lump $-1 $-1 $38 $5 #
transform $-1 1 0 0 0 1 0 0 0 1 42.315744499038665 29.039110248992372 7.6875166461335933 1 rotate no_reflect no_shear #
lump $-1 $-1 $39 $6 #
transform $-1 1 0 0 0 1 0 0 0 1 42.315744499038665 29.039110248992372 7.6875166461335933 1 rotate no_reflect no_shear #
lump $-1 $-1 $40 $7 #
transform $-1 1 0 0 0 1 0 0 0 1 42.315744499038665 29.039110248992372 7.6875166461335933 1 rotate no_reflect no_shear #
lump $-1 $-1 $41 $8 #
transform $-1 1 0 0 0 1 0 0 0 1 42.315744499038665 29.039110248992372 7.6875166461335933 1 rotate no_reflect no_shear #
lump $-1 $-1 $42 $9 #
transform $-1 1 0 0 0 1 0 0 0 1 42.315744499038665 29.039110248992372 7.6875166461335933 1 rotate no_reflect no_shear #
lump $-1 $-1 $43 $10 #
transform $-1 1 0 0 0 1 0 0 0 1 42.315744499038665 29.039110248992372 7.6875166461335933 1 rotate no_reflect no_shear #
shell $-1 $-1 $-1 $44 $-1 $11 #
shell $-1 $-1 $-1 $45 $-1 $13 #
shell $-1 $-1 $-1 $46 $-1 $15 #
shell $-1 $-1 $-1 $47 $-1 $17 #
shell $-1 $-1 $-1 $48 $-1 $19 #
shell $-1 $-1 $-1 $49 $-1 $21 #
shell $-1 $-1 $-1 $50 $-1 $23 #
shell $-1 $-1 $-1 $51 $-1 $25 #
shell $-1 $-1 $-1 $52 $-1 $27 #
shell $-1 $-1 $-1 $53 $-1 $29 #
shell $-1 $-1 $-1 $54 $-1 $31 #
face $-1 $55 $56 $33 $-1 $57 forward single #
face $-1 $58 $59 $34 $-1 $60 forward single #
face $-1 $61 $62 $35 $-1 $63 reversed single #
face $-1 $64 $65 $36 $-1 $66 forward single #
face $-1 $67 $68 $37 $-1 $69 forward single #
face $-1 $70 $71 $38 $-1 $72 reversed single #
face $-1 $73 $74 $39 $-1 $75 forward single #
face $-1 $76 $77 $40 $-1 $78 forward single #
face $-1 $79 $80 $41 $-1 $81 reversed single #
face $-1 $82 $83 $42 $-1 $84 forward single #
face $-1 $85 $86 $43 $-1 $87 forward single #
face $-1 $88 $89 $33 $-1 $90 reversed single #
loop $-1 $-1 $91 $44 #
plane-surface $-1 0 0 7.6875166461335933 0 0 1 1 0 0 forward_v I I I I #
face $-1 $92 $93 $34 $-1 $94 reversed single #
loop $-1 $-1 $95 $45 #
plane-surface $-1 -37.500340097138633 0 -4.6875166461335933 0 0 1 1 0 0 forward_v I I I I #
face $-1 $96 $97 $35 $-1 $98 reversed single #
loop $-1 $-1 $99 $46 #
plane-surface $-1 -10.688863837425085 70.033916901653129 96.322926210266758 1 0 0 0 -0.84804810408105047 -0.52991925155115449 forward_v I I I I #
face $-1 $100 $101 $36 $-1 $102 forward single #
loop $-1 $103 $104 $47 #
cone-surface $-1 -6.2590729119036226 25.797784646466617 3.9963743497461905 0 -0.84804810408105047 -0.52991925155115449 1.5 0 0 1 I I 0 1 1.5 forward I I I I #
face $-1 $105 $106 $37 $-1 $107 forward single #
loop $-1 $108 $109 $48 #
cone-surface $-1 0.38561347637857324 25.797784646466617 3.9963743497461905 0 -0.84804810408105047 -0.52991925155115449 1.5 0 0 1 I I 0 1 1.5 forward I I I I #
face $-1 $110 $111 $38 $-1 $112 reversed single #
loop $-1 $-1 $113 $49 #
plane-surface $-1 -2.9367297177625247 -1.7376568887226398 51.475070902745856 0 0.84804810408105047 0.52991925155115449 1 0 0 forward_v I I I I #
face $-1 $114 $115 $39 $-1 $116 forward single #
loop $-1 $117 $118 $50 #
cone-surface $-1 9.2451953274214986 25.797784646466617 3.9963743497461905 0 -0.84804810408105047 -0.52991925155115449 1.5 0 0 1 I I 0 1 1.5 forward I I I I #
face $-1 $119 $120 $40 $-1 $121 forward single #
loop $-1 $122 $123 $51 #
cone-surface $-1 15.889881715703694 25.797784646466617 3.9963743497461905 0 -0.84804810408105047 -0.52991925155115449 1.5 0 0 1 I I 0 1 1.5 forward I I I I #
face $-1 $124 $125 $41 $-1 $126 reversed single #
loop $-1 $-1 $127 $52 #
plane-surface $-1 -3.3546585350379772 -100.01704987049457 50.096318929391956 -1 0 0 0 -0.83867057594974714 0.54463902268945019 forward_v I I I I #
face $-1 $128 $129 $42 $-1 $130 forward single #
loop $-1 $131 $132 $53 #
cone-surface $-1 -15.572037145220165 -26.925084467408052 5.2492453543792408 0 0.83867057594974714 -0.54463902268945019 1 0 0 1 I I 0 1 1 forward I I I I #
face $-1 $133 $134 $43 $-1 $135 forward single #
loop $-1 $136 $137 $54 #
cone-surface $-1 -8.2416099791108479 -26.925084467408052 5.2492453543792408 0 0.83867057594974714 -0.54463902268945019 1 0 0 1 I I 0 1 1 forward I I I I #
face $-1 $138 $139 $33 $-1 $140 reversed single #
loop $-1 $-1 $141 $55 #
plane-surface $-1 0 0 -7.6875166461335933 0 0 1 1 0 0 forward_v I I I I #
coedge $-1 $142 $143 $144 $145 forward $56 $-1 #
face $-1 $146 $147 $34 $-1 $148 reversed single #
loop $-1 $-1 $149 $58 #
plane-surface $-1 -32.6849356952386 0 -6.1875166461335933 -1 0 0 0 0 1 forward_v I I I I #
coedge $-1 $150 $151 $152 $153 forward $59 $-1 #
face $-1 $154 $155 $35 $-1 $156 reversed single #
loop $-1 $-1 $157 $61 #
plane-surface $-1 -2.9367297177625247 -1.7376568887226398 51.475070902745856 0 0.84804810408105047 0.52991925155115449 1 0 0 forward_v I I I I #
coedge $-1 $158 $159 $160 $161 reversed $62 $-1 #
face $-1 $-1 $162 $36 $-1 $163 forward single #
loop $-1 $164 $165 $64 #
cone-surface $-1 -6.2590729119036226 23.628056664974359 2.640577877247873 0 -0.84804810408105047 -0.52991925155115449 0.75 0 0 1 I I -0.70710678118654757 0.70710678118654757 0.75 forward I I I I #
loop $-1 $-1 $166 $47 #
coedge $-1 $104 $104 $167 $168 reversed $65 $-1 #
face $-1 $-1 $169 $37 $-1 $170 forward single #
loop $-1 $171 $172 $67 #
cone-surface $-1 0.38561347637857324 23.628056664974359 2.640577877247873 0 -0.84804810408105047 -0.52991925155115449 0.75 0 0 1 I I -0.70710678118654757 0.70710678118654757 0.75 forward I I I I #
loop $-1 $-1 $173 $48 #
coedge $-1 $109 $109 $174 $175 reversed $68 $-1 #
face $-1 $176 $177 $38 $-1 $178 forward single #
loop $-1 $-1 $179 $70 #
plane-surface $-1 20.319672641225157 70.033916901653129 96.322926210266758 -1 0 0 0 0.84804810408105047 0.52991925155115449 forward_v I I I I #
coedge $-1 $180 $181 $182 $183 reversed $71 $-1 #
face $-1 $-1 $184 $39 $-1 $185 forward single #
loop $-1 $186 $187 $73 #
cone-surface $-1 9.2451953274214986 23.628056664974359 2.640577877247873 0 -0.84804810408105047 -0.52991925155115449 0.75 0 0 1 I I -0.70710678118654757 0.70710678118654757 0.75 forward I I I I #
loop $-1 $-1 $188 $50 #
coedge $-1 $118 $118 $189 $190 reversed $74 $-1 #
face $-1 $-1 $191 $40 $-1 $192 forward single #
loop $-1 $193 $194 $76 #
cone-surface $-1 15.889881715703694 23.628056664974359 2.640577877247873 0 -0.84804810408105047 -0.52991925155115449 0.75 0 0 1 I I -0.70710678118654757 0.70710678118654757 0.75 forward I I I I #
loop $-1 $-1 $195 $51 #
coedge $-1 $123 $123 $196 $197 reversed $77 $-1 #
face $-1 $198 $199 $41 $-1 $200 reversed single #
loop $-1 $-1 $201 $79 #
plane-surface $-1 -11.90682356216551 -29.039110248992372 4.0027074727261649 0 -0.83867057594974714 0.54463902268945019 1 0 0 forward_v I I I I #
coedge $-1 $202 $203 $204 $205 reversed $80 $-1 #
face $-1 $-1 $206 $42 $-1 $207 forward single #
loop $-1 $208 $209 $82 #
cone-surface $-1 -15.572037145220165 -25.588194887699956 4.3810591379838826 0 0.83867057594974714 -0.54463902268945019 0.5 0 0 1 I I -0.70710678118654746 0.70710678118654746 0.5 forward I I I I #
loop $-1 $-1 $210 $53 #
coedge $-1 $132 $132 $211 $212 reversed $83 $-1 #
face $-1 $-1 $213 $43 $-1 $214 forward single #
loop $-1 $215 $216 $85 #
cone-surface $-1 -8.2416099791108479 -25.588194887699956 4.3810591379838826 0 0.83867057594974714 -0.54463902268945019 0.5 0 0 1 I I -0.70710678118654746 0.70710678118654746 0.5 forward I I I I #
loop $-1 $-1 $217 $54 #
coedge $-1 $137 $137 $218 $219 reversed $86 $-1 #
face $-1 $220 $221 $33 $-1 $222 reversed single #
loop $-1 $-1 $223 $88 #
plane-surface $-1 0 -29.039110248992372 0 0 1 0 0 0 1 forward_v I I I I #
coedge $-1 $224 $225 $226 $227 forward $89 $-1 #
coedge $-1 $228 $91 $229 $230 forward $56 $-1 #
coedge $-1 $91 $228 $231 $232 forward $56 $-1 #
coedge $-1 $233 $234 $91 $145 reversed $235 $-1 #
edge $-1 $236 -29.039110248992372 $237 29.039110248992372 $144 $238 forward 7 unknown #
face $-1 $239 $240 $34 $-1 $241 reversed single #
loop $-1 $-1 $242 $92 #
plane-surface $-1 0 0 -7.6875166461335933 0 0 1 1 0 0 forward_v I I I I #
coedge $-1 $243 $152 $244 $245 reversed $93 $-1 #
coedge $-1 $246 $95 $247 $248 reversed $59 $-1 #
coedge $-1 $95 $246 $249 $250 reversed $59 $-1 #
coedge $-1 $149 $251 $95 $153 reversed $93 $-1 #
edge $-1 $252 -29.039110248992372 $253 29.039110248992372 $152 $254 forward 7 unknown #
face $-1 $255 $256 $35 $-1 $257 reversed single #
loop $-1 $-1 $258 $96 #
plane-surface $-1 4.8154044019000359 70.033916901653129 96.322926210266758 -1 0 0 0 0.84804810408105047 0.52991925155115449 forward_v I I I I #
coedge $-1 $259 $260 $261 $262 reversed $97 $-1 #
coedge $-1 $159 $99 $263 $264 reversed $62 $-1 #
coedge $-1 $99 $158 $259 $265 reversed $62 $-1 #
coedge $-1 $261 $266 $99 $161 forward $267 $-1 #
edge $-1 $268 5.9778482018341919 $269 9.3931156000227816 $160 $270 forward 7 unknown #
loop $-1 $-1 $167 $100 #
plane-surface $-1 -2.9367297177625247 -1.7376568887226398 51.475070902745856 0 0.84804810408105047 0.52991925155115449 1 0 0 forward_v I I I I #
loop $-1 $-1 $271 $64 #
coedge $-1 $165 $165 $166 $272 reversed $101 $-1 #
coedge $-1 $166 $166 $165 $272 forward $103 $-1 #
coedge $-1 $167 $167 $104 $168 forward $162 $-1 #
edge $-1 $273 -1.2561507521249443e-015 $273 6.2831853071795996 $167 $274 forward 7 unknown #
loop $-1 $-1 $174 $105 #
plane-surface $-1 -2.9367297177625247 -1.7376568887226398 51.475070902745856 0 0.84804810408105047 0.52991925155115449 1 0 0 forward_v I I I I #
loop $-1 $-1 $275 $67 #
coedge $-1 $172 $172 $173 $276 reversed $106 $-1 #
coedge $-1 $173 $173 $172 $276 forward $108 $-1 #
coedge $-1 $174 $174 $109 $175 forward $169 $-1 #
edge $-1 $277 -1.2561507521249443e-015 $277 6.2831853071795996 $174 $278 forward 7 unknown #
face $-1 $279 $280 $38 $-1 $281 forward single #
loop $-1 $-1 $282 $110 #
plane-surface $-1 0 0 7.6875166461335933 0 0 1 1 0 0 forward_v I I I I #
coedge $-1 $283 $284 $285 $286 reversed $111 $-1 #
coedge $-1 $287 $113 $288 $289 reversed $71 $-1 #
coedge $-1 $113 $287 $282 $290 reversed $71 $-1 #
coedge $-1 $291 $292 $113 $183 forward $280 $-1 #
edge $-1 $293 -58.07822049798478 $294 -51.63333783295311 $182 $295 forward 7 unknown #
loop $-1 $-1 $189 $114 #
plane-surface $-1 -2.9367297177625247 -1.7376568887226398 51.475070902745856 0 0.84804810408105047 0.52991925155115449 1 0 0 forward_v I I I I #
loop $-1 $-1 $296 $73 #
coedge $-1 $187 $187 $188 $297 reversed $115 $-1 #
coedge $-1 $188 $188 $187 $297 forward $117 $-1 #
coedge $-1 $189 $189 $118 $190 forward $184 $-1 #
edge $-1 $298 -1.2561507521249443e-015 $298 6.2831853071795996 $189 $299 forward 7 unknown #
loop $-1 $-1 $196 $119 #
plane-surface $-1 -2.9367297177625247 -1.7376568887226398 51.475070902745856 0 0.84804810408105047 0.52991925155115449 1 0 0 forward_v I I I I #
loop $-1 $-1 $300 $76 #
coedge $-1 $194 $194 $195 $301 reversed $120 $-1 #
coedge $-1 $195 $195 $194 $301 forward $122 $-1 #
coedge $-1 $196 $196 $123 $197 forward $191 $-1 #
edge $-1 $302 -1.2561507521249443e-015 $302 6.2831853071795996 $196 $303 forward 7 unknown #
face $-1 $304 $305 $41 $-1 $306 forward single #
loop $-1 $-1 $307 $124 #
plane-surface $-1 -20.458988589293043 -100.01704987049457 50.096318929391956 1 0 0 0 0.83867057594974714 -0.54463902268945019 forward_v I I I I #
coedge $-1 $308 $309 $310 $311 reversed $125 $-1 #
coedge $-1 $203 $127 $312 $313 reversed $80 $-1 #
coedge $-1 $127 $202 $308 $314 reversed $80 $-1 #
coedge $-1 $310 $315 $127 $205 forward $305 $-1 #
edge $-1 $316 20.969414686254915 $317 23.362357665957109 $204 $318 forward 7 unknown #
loop $-1 $-1 $211 $128 #
plane-surface $-1 -11.90682356216551 -29.039110248992372 4.0027074727261649 0 -0.83867057594974714 0.54463902268945019 1 0 0 forward_v I I I I #
loop $-1 $-1 $319 $82 #
coedge $-1 $209 $209 $210 $320 reversed $129 $-1 #
coedge $-1 $210 $210 $209 $320 forward $131 $-1 #
coedge $-1 $211 $211 $132 $212 forward $206 $-1 #
edge $-1 $321 -2.9972081447077483e-016 $321 6.2831853071796004 $211 $322 forward 7 unknown #
loop $-1 $-1 $218 $133 #
plane-surface $-1 -11.90682356216551 -29.039110248992372 4.0027074727261649 0 -0.83867057594974714 0.54463902268945019 1 0 0 forward_v I I I I #
loop $-1 $-1 $323 $85 #
coedge $-1 $216 $216 $217 $324 reversed $134 $-1 #
coedge $-1 $217 $217 $216 $324 forward $136 $-1 #
coedge $-1 $218 $218 $137 $219 forward $213 $-1 #
edge $-1 $325 -2.9972081447077483e-016 $325 6.2831853071796004 $218 $326 forward 7 unknown #
face $-1 $327 $328 $33 $-1 $329 reversed single #
loop $-1 $-1 $330 $138 #
plane-surface $-1 -42.315744499038665 0 0 1 0 0 0 0 -1 forward_v I I I I #
coedge $-1 $331 $231 $332 $333 forward $139 $-1 #
coedge $-1 $334 $141 $331 $335 forward $89 $-1 #
coedge $-1 $141 $334 $336 $337 forward $89 $-1 #
coedge $-1 $234 $233 $141 $227 reversed $235 $-1 #
edge $-1 $338 -29.039110248992372 $339 29.039110248992372 $226 $340 forward 7 unknown #
coedge $-1 $143 $142 $341 $342 forward $56 $-1 #
coedge $-1 $343 $344 $142 $230 reversed $328 $-1 #
edge $-1 $237 -42.315744499038665 $345 42.315744499038665 $229 $346 forward 7 unknown #
coedge $-1 $223 $347 $143 $232 reversed $139 $-1 #
edge $-1 $348 -42.315744499038665 $236 42.315744499038665 $231 $349 forward 7 unknown #
coedge $-1 $226 $144 $347 $350 forward $235 $-1 #
coedge $-1 $144 $226 $343 $351 reversed $235 $-1 #
loop $-1 $-1 $233 $327 #
vertex $-1 $145 $352 #
vertex $-1 $145 $353 #
straight-curve $-1 42.315744499038665 0 7.6875166461335933 0 1 0 I I #
face $-1 $354 $355 $34 $-1 $356 reversed single #
loop $-1 $-1 $244 $146 #
plane-surface $-1 0 -29.039110248992372 0 0 1 0 0 0 1 forward_v I I I I #
coedge $-1 $357 $358 $243 $359 forward $147 $-1 #
coedge $-1 $251 $149 $242 $359 reversed $93 $-1 #
coedge $-1 $249 $360 $149 $245 forward $240 $-1 #
edge $-1 $361 -4.5937583230667967 $252 -1.5937583230667967 $244 $362 forward 7 unknown #
coedge $-1 $151 $150 $363 $364 reversed $59 $-1 #
coedge $-1 $365 $366 $150 $248 forward $367 $-1 #
edge $-1 $368 -23.565574450469349 $253 -13.934765646669284 $247 $369 forward 7 unknown #
coedge $-1 $370 $244 $151 $250 forward $240 $-1 #
edge $-1 $252 13.934765646669284 $371 23.565574450469349 $249 $372 forward 7 unknown #
coedge $-1 $152 $243 $365 $373 reversed $93 $-1 #
vertex $-1 $250 $374 #
vertex $-1 $248 $375 #
straight-curve $-1 -32.6849356952386 0 -4.6875166461335933 0 1 0 I I #
face $-1 $-1 $267 $35 $-1 $376 forward single #
loop $-1 $-1 $377 $154 #
plane-surface $-1 0 29.039110248992372 0 0 -1 0 0 0 -1 forward_v I I I I #
coedge $-1 $378 $379 $380 $381 reversed $155 $-1 #
coedge $-1 $382 $157 $159 $265 forward $97 $-1 #
coedge $-1 $157 $382 $378 $383 forward $97 $-1 #
coedge $-1 $380 $160 $157 $262 forward $267 $-1 #
edge $-1 $269 -9.2204989785438229 $384 6.2837692607812983 $261 $385 forward 7 unknown #
coedge $-1 $386 $387 $158 $264 forward $256 $-1 #
edge $-1 $388 -45.939516984104721 $268 -40.473946458999784 $263 $389 forward 7 unknown #
edge $-1 $269 51.63333783295311 $388 58.07822049798478 $159 $390 forward 7 unknown #
coedge $-1 $160 $380 $386 $391 forward $267 $-1 #
loop $-1 $-1 $380 $255 #
vertex $-1 $264 $392 #
vertex $-1 $161 $393 #
straight-curve $-1 -10.688863837425085 35.016958450826564 7.6875166461335951 0 -1 0 I I #
coedge $-1 $271 $271 $-1 $394 reversed $164 $-1 #
edge $-1 $395 0 $395 6.2831853071796004 $165 $396 forward 7 unknown #
vertex $-1 $168 $397 #
ellipse-curve $-1 -6.2590729119036226 27.331476549898074 4.9547313835811337 0 0.84804810408105047 0.52991925155115449 1.5 0 0 1 I I #
coedge $-1 $275 $275 $-1 $398 reversed $171 $-1 #
edge $-1 $399 0 $399 6.2831853071796004 $172 $400 forward 7 unknown #
vertex $-1 $175 $401 #
ellipse-curve $-1 0.38561347637857324 27.331476549898074 4.9547313835811337 0 0.84804810408105047 0.52991925155115449 1.5 0 0 1 I I #
face $-1 $-1 $402 $38 $-1 $403 reversed single #
loop $-1 $-1 $291 $176 #
plane-surface $-1 4.8154044019000359 70.033916901653129 96.322926210266758 -1 0 0 0 0.84804810408105047 0.52991925155115449 forward_v I I I I #
coedge $-1 $285 $404 $181 $290 forward $177 $-1 #
coedge $-1 $284 $179 $287 $405 reversed $111 $-1 #
coedge $-1 $179 $283 $406 $407 reversed $111 $-1 #
coedge $-1 $408 $282 $179 $286 forward $177 $-1 #
edge $-1 $409 -9.3931156000227816 $410 -5.9778482018341919 $285 $411 forward 7 unknown #
coedge $-1 $181 $180 $283 $405 forward $71 $-1 #
coedge $-1 $412 $406 $180 $289 forward $402 $-1 #
edge $-1 $413 -21.788037500106419 $293 -6.2837692607812983 $288 $414 forward 7 unknown #
edge $-1 $294 6.2837692607812983 $409 21.788037500106419 $282 $415 forward 7 unknown #
coedge $-1 $292 $182 $404 $416 reversed $280 $-1 #
coedge $-1 $182 $291 $412 $417 reversed $280 $-1 #
vertex $-1 $289 $418 #
vertex $-1 $290 $419 #
straight-curve $-1 4.8154044019000359 -1.7376568887226398 51.475070902745856 0 -0.52991925155115449 0.84804810408105047 I I #
coedge $-1 $296 $296 $-1 $420 reversed $186 $-1 #
edge $-1 $421 0 $421 6.2831853071796004 $187 $422 forward 7 unknown #
vertex $-1 $190 $423 #
ellipse-curve $-1 9.2451953274214986 27.331476549898074 4.9547313835811337 0 0.84804810408105047 0.52991925155115449 1.5 0 0 1 I I #
coedge $-1 $300 $300 $-1 $424 reversed $193 $-1 #
edge $-1 $425 0 $425 6.2831853071796004 $194 $426 forward 7 unknown #
vertex $-1 $197 $427 #
ellipse-curve $-1 15.889881715703694 27.331476549898074 4.9547313835811337 0 0.84804810408105047 0.52991925155115449 1.5 0 0 1 I I #
face $-1 $-1 $428 $41 $-1 $429 reversed single #
loop $-1 $-1 $204 $198 #
plane-surface $-1 0 0 7.6875166461335933 0 0 1 1 0 0 forward_v I I I I #
coedge $-1 $430 $431 $432 $433 reversed $199 $-1 #
coedge $-1 $434 $201 $203 $314 forward $125 $-1 #
coedge $-1 $201 $434 $430 $435 forward $125 $-1 #
coedge $-1 $432 $204 $201 $311 forward $305 $-1 #
edge $-1 $317 -2.5987532460447778 $436 14.505576808210288 $310 $437 forward 7 unknown #
coedge $-1 $438 $439 $202 $313 forward $428 $-1 #
edge $-1 $440 -21.045451991969813 $316 -17.360642818562383 $312 $441 forward 7 unknown #
edge $-1 $317 -4.393631157543104 $440 0 $203 $442 forward 7 unknown #
coedge $-1 $204 $432 $438 $443 forward $305 $-1 #
vertex $-1 $205 $444 #
vertex $-1 $205 $445 #
straight-curve $-1 -3.3546585350379772 -50.008524935247287 7.6875166461335915 0 1 0 I I #
coedge $-1 $319 $319 $-1 $446 reversed $208 $-1 #
edge $-1 $447 0 $447 6.2831853071796004 $209 $448 forward 7 unknown #
vertex $-1 $212 $449 #
ellipse-curve $-1 -15.572037145220165 -27.842638759141277 5.8451120594298764 0 -0.83867057594974714 0.54463902268945019 1 0 0 1 I I #
coedge $-1 $323 $323 $-1 $450 reversed $215 $-1 #
edge $-1 $451 0 $451 6.2831853071796004 $216 $452 forward 7 unknown #
vertex $-1 $219 $453 #
ellipse-curve $-1 -8.2416099791108479 -27.842638759141277 5.8451120594298764 0 -0.83867057594974714 0.54463902268945019 1 0 0 1 I I #
face $-1 $-1 $235 $33 $-1 $454 reversed single #
loop $-1 $-1 $343 $220 #
plane-surface $-1 0 29.039110248992372 0 0 -1 0 0 0 -1 forward_v I I I I #
coedge $-1 $455 $341 $344 $456 forward $221 $-1 #
coedge $-1 $347 $223 $224 $335 reversed $139 $-1 #
coedge $-1 $341 $455 $223 $333 reversed $221 $-1 #
edge $-1 $348 -7.6875166461335933 $457 7.6875166461335933 $332 $458 forward 7 unknown #
coedge $-1 $225 $224 $455 $459 forward $89 $-1 #
edge $-1 $339 -42.315744499038665 $457 42.315744499038665 $331 $460 forward 7 unknown #
coedge $-1 $344 $343 $225 $337 reversed $328 $-1 #
edge $-1 $461 -42.315744499038665 $338 42.315744499038665 $336 $462 forward 7 unknown #
vertex $-1 $227 $463 #
vertex $-1 $350 $464 #
straight-curve $-1 42.315744499038665 0 -7.6875166461335933 0 -1 0 I I #
coedge $-1 $330 $332 $228 $342 reversed $221 $-1 #
edge $-1 $345 -29.039110248992372 $348 29.039110248992372 $341 $465 forward 7 unknown #
coedge $-1 $336 $229 $234 $351 forward $328 $-1 #
coedge $-1 $229 $336 $330 $456 reversed $328 $-1 #
vertex $-1 $230 $466 #
straight-curve $-1 0 29.039110248992372 7.6875166461335933 -1 0 0 I I #
coedge $-1 $231 $331 $233 $350 reversed $139 $-1 #
vertex $-1 $342 $467 #
straight-curve $-1 0 -29.039110248992372 7.6875166461335933 1 0 0 I I #
edge $-1 $236 -7.6875166461335933 $339 7.6875166461335933 $233 $468 forward 7 unknown #
edge $-1 $237 -7.6875166461335933 $338 7.6875166461335933 $234 $469 forward 7 unknown #
point $-1 42.315744499038665 -29.039110248992372 7.6875166461335933 #
point $-1 42.315744499038665 29.039110248992372 7.6875166461335933 #
face $-1 $-1 $367 $34 $-1 $470 reversed single #
loop $-1 $-1 $363 $239 #
plane-surface $-1 -42.315744499038665 0 0 1 0 0 0 0 -1 forward_v I I I I #
coedge $-1 $471 $242 $360 $472 forward $147 $-1 #
coedge $-1 $242 $471 $473 $474 forward $147 $-1 #
edge $-1 $475 -29.039110248992372 $361 29.039110248992372 $242 $476 forward 7 unknown #
coedge $-1 $244 $370 $357 $472 reversed $240 $-1 #
vertex $-1 $472 $477 #
straight-curve $-1 -32.6849356952386 -29.039110248992372 -3.0937583230667967 0 0 1 I I #
coedge $-1 $478 $479 $246 $364 forward $355 $-1 #
edge $-1 $371 -29.039110248992372 $368 29.039110248992372 $363 $480 forward 7 unknown #
coedge $-1 $473 $247 $251 $373 forward $367 $-1 #
coedge $-1 $247 $473 $478 $481 reversed $367 $-1 #
loop $-1 $-1 $365 $354 #
vertex $-1 $481 $482 #
straight-curve $-1 -18.750170048569316 29.039110248992372 -4.6875166461335933 1 0 0 I I #
coedge $-1 $360 $249 $479 $483 forward $240 $-1 #
vertex $-1 $483 $484 #
straight-curve $-1 -18.750170048569316 -29.039110248992372 -4.6875166461335933 -1 0 0 I I #
edge $-1 $253 1.5937583230667967 $475 4.5937583230667967 $365 $485 forward 7 unknown #
point $-1 -32.6849356952386 -29.039110248992372 -4.6875166461335933 #
point $-1 -32.6849356952386 29.039110248992372 -4.6875166461335933 #
plane-surface $-1 0 0 7.6875166461335933 0 0 1 1 0 0 forward_v I I I I #
coedge $-1 $387 $386 $379 $486 forward $256 $-1 #
coedge $-1 $379 $258 $260 $383 reversed $155 $-1 #
coedge $-1 $258 $378 $377 $486 reversed $155 $-1 #
coedge $-1 $266 $261 $258 $381 forward $267 $-1 #
edge $-1 $384 -9.3931156000227816 $487 -5.9778482018341919 $380 $488 forward 7 unknown #
coedge $-1 $260 $259 $387 $489 reversed $97 $-1 #
edge $-1 $490 -58.07822049798478 $384 -51.63333783295311 $378 $491 forward 7 unknown #
vertex $-1 $262 $492 #
straight-curve $-1 -1.4683648588812623 25.623842850803783 7.6875166461335915 1 0 0 I I #
coedge $-1 $377 $263 $266 $391 reversed $256 $-1 #
coedge $-1 $263 $377 $382 $489 forward $256 $-1 #
vertex $-1 $264 $493 #
straight-curve $-1 -10.688863837425085 29.039110248992372 48.161463105133379 0 0 1 I I #
straight-curve $-1 -10.688863837425085 -1.7376568887226398 51.475070902745856 0 0.52991925155115449 -0.84804810408105047 I I #
edge $-1 $487 -4.8154044019000359 $268 10.688863837425085 $386 $494 forward 7 unknown #
point $-1 -10.688863837425085 29.039110248992372 7.6875166461335933 #
point $-1 -10.688863837425085 25.623842850803783 7.6875166461335951 #
edge $-1 $495 1 $495 0 $271 $-1 forward 7 unknown #
vertex $-1 $272 $496 #
ellipse-curve $-1 -6.2590729119036226 24.264092743035146 3.0380173159112389 0 0.84804810408105047 0.52991925155115449 1.5 0 0 1 I I #
point $-1 -4.7590729119036226 27.331476549898085 4.9547313835811426 #
edge $-1 $497 1 $497 0 $275 $-1 forward 7 unknown #
vertex $-1 $276 $498 #
ellipse-curve $-1 0.38561347637857324 24.264092743035146 3.0380173159112389 0 0.84804810408105047 0.52991925155115449 1.5 0 0 1 I I #
point $-1 1.8856134763785732 27.331476549898085 4.9547313835811426 #
loop $-1 $-1 $288 $279 #
plane-surface $-1 0 29.039110248992372 0 0 -1 0 0 0 -1 forward_v I I I I #
coedge $-1 $282 $408 $291 $416 forward $177 $-1 #
edge $-1 $413 -58.07822049798478 $409 -51.63333783295311 $283 $499 forward 7 unknown #
coedge $-1 $288 $500 $284 $407 forward $402 $-1 #
edge $-1 $410 40.473946458999784 $413 45.939516984104721 $406 $501 forward 7 unknown #
coedge $-1 $404 $285 $500 $502 forward $177 $-1 #
vertex $-1 $286 $503 #
vertex $-1 $502 $504 #
straight-curve $-1 20.319672641225157 35.016958450826564 7.6875166461335951 0 1 0 I I #
coedge $-1 $500 $288 $292 $417 forward $402 $-1 #
vertex $-1 $407 $505 #
straight-curve $-1 -1.4683648588812623 29.039110248992372 2.2219461210286653 -1 0 0 I I #
straight-curve $-1 -1.4683648588812623 25.623842850803783 7.6875166461335915 1 0 0 I I #
edge $-1 $506 5.9778482018341919 $294 9.3931156000227816 $404 $507 forward 7 unknown #
edge $-1 $293 -45.939516984104721 $506 -40.473946458999784 $412 $508 forward 7 unknown #
point $-1 4.8154044019000359 29.039110248992372 2.2219461210286582 #
point $-1 4.8154044019000359 25.623842850803783 7.6875166461335951 #
edge $-1 $509 1 $509 0 $296 $-1 forward 7 unknown #
vertex $-1 $297 $510 #
ellipse-curve $-1 9.2451953274214986 24.264092743035146 3.0380173159112389 0 0.84804810408105047 0.52991925155115449 1.5 0 0 1 I I #
point $-1 10.745195327421499 27.331476549898085 4.9547313835811426 #
edge $-1 $511 1 $511 0 $300 $-1 forward 7 unknown #
vertex $-1 $301 $512 #
ellipse-curve $-1 15.889881715703694 24.264092743035146 3.0380173159112389 0 0.84804810408105047 0.52991925155115449 1.5 0 0 1 I I #
point $-1 17.389881715703694 27.331476549898085 4.9547313835811426 #
loop $-1 $-1 $312 $304 #
plane-surface $-1 0 -29.039110248992372 0 0 1 0 0 0 1 forward_v I I I I #
coedge $-1 $431 $307 $309 $435 reversed $199 $-1 #
coedge $-1 $307 $430 $513 $514 reversed $199 $-1 #
coedge $-1 $315 $310 $307 $433 forward $305 $-1 #
edge $-1 $436 -23.362357665957109 $515 -20.969414686254915 $432 $516 forward 7 unknown #
coedge $-1 $309 $308 $439 $517 reversed $125 $-1 #
edge $-1 $518 0 $436 4.393631157543104 $430 $519 forward 7 unknown #
vertex $-1 $311 $520 #
straight-curve $-1 -5.9534117810827549 -26.646167269290174 7.6875166461335933 -1 0 0 I I #
coedge $-1 $513 $312 $315 $443 reversed $428 $-1 #
coedge $-1 $312 $513 $434 $517 forward $428 $-1 #
vertex $-1 $313 $521 #
straight-curve $-1 -3.3546585350379772 -29.039110248992372 25.048159464695978 0 0 1 I I #
straight-curve $-1 -3.3546585350379772 -29.039110248992372 4.0027074727261649 0 -0.54463902268945019 -0.83867057594974714 I I #
edge $-1 $515 -20.458988589293043 $316 -3.3546585350379772 $438 $522 forward 7 unknown #
point $-1 -3.3546585350379772 -29.039110248992372 7.6875166461335933 #
point $-1 -3.3546585350379772 -26.646167269290178 7.6875166461335933 #
edge $-1 $523 1 $523 0 $319 $-1 forward 7 unknown #
vertex $-1 $320 $524 #
ellipse-curve $-1 -15.572037145220165 -26.00753017567483 4.6533786493286078 0 -0.83867057594974714 0.54463902268945019 1 0 0 1 I I #
point $-1 -14.572037145220165 -27.842638759141273 5.8451120594298738 #
edge $-1 $525 1 $525 0 $323 $-1 forward 7 unknown #
vertex $-1 $324 $526 #
ellipse-curve $-1 -8.2416099791108479 -26.00753017567483 4.6533786493286078 0 -0.83867057594974714 0.54463902268945019 1 0 0 1 I I #
point $-1 -7.2416099791108479 -27.842638759141273 5.8451120594298738 #
plane-surface $-1 42.315744499038665 0 0 -1 0 0 0 0 1 forward_v I I I I #
coedge $-1 $332 $330 $334 $459 reversed $221 $-1 #
edge $-1 $345 -7.6875166461335933 $461 7.6875166461335933 $344 $527 forward 7 unknown #
vertex $-1 $459 $528 #
straight-curve $-1 -42.315744499038665 -29.039110248992372 0 0 0 -1 I I #
edge $-1 $457 -29.039110248992372 $461 29.039110248992372 $455 $529 forward 7 unknown #
straight-curve $-1 0 -29.039110248992372 -7.6875166461335933 -1 0 0 I I #
vertex $-1 $337 $530 #
straight-curve $-1 0 29.039110248992372 -7.6875166461335933 1 0 0 I I #
point $-1 42.315744499038665 29.039110248992372 -7.6875166461335933 #
point $-1 42.315744499038665 -29.039110248992372 -7.6875166461335933 #
straight-curve $-1 -42.315744499038665 0 7.6875166461335933 0 -1 0 I I #
point $-1 -42.315744499038665 29.039110248992372 7.6875166461335933 #
point $-1 -42.315744499038665 -29.039110248992372 7.6875166461335933 #
straight-curve $-1 42.315744499038665 -29.039110248992372 0 0 0 -1 I I #
straight-curve $-1 42.315744499038665 29.039110248992372 0 0 0 -1 I I #
plane-surface $-1 0 29.039110248992372 0 0 -1 0 0 0 -1 forward_v I I I I #
coedge $-1 $358 $357 $531 $532 forward $147 $-1 #
edge $-1 $361 32.6849356952386 $533 42.315744499038665 $360 $534 forward 7 unknown #
coedge $-1 $366 $365 $358 $474 reversed $367 $-1 #
edge $-1 $535 -42.315744499038665 $475 -32.6849356952386 $473 $536 forward 7 unknown #
vertex $-1 $373 $537 #
straight-curve $-1 -32.6849356952386 0 -7.6875166461335933 0 -1 0 I I #
point $-1 -32.6849356952386 -29.039110248992372 -7.6875166461335933 #
coedge $-1 $531 $363 $366 $481 forward $355 $-1 #
coedge $-1 $363 $531 $370 $483 reversed $355 $-1 #
straight-curve $-1 -42.315744499038665 0 -4.6875166461335933 0 1 0 I I #
edge $-1 $368 4.6875166461335933 $535 7.6875166461335933 $366 $538 forward 7 unknown #
point $-1 -42.315744499038665 29.039110248992372 -4.6875166461335933 #
edge $-1 $371 4.6875166461335933 $533 7.6875166461335933 $479 $539 forward 7 unknown #
point $-1 -42.315744499038665 -29.039110248992372 -4.6875166461335933 #
straight-curve $-1 -32.6849356952386 29.039110248992372 -3.0937583230667967 0 0 -1 I I #
edge $-1 $487 40.473946458999784 $490 45.939516984104721 $377 $540 forward 7 unknown #
vertex $-1 $391 $541 #
straight-curve $-1 4.8154044019000359 35.016958450826564 7.6875166461335951 0 1 0 I I #
edge $-1 $490 -6.2837692607812983 $388 9.2204989785438229 $387 $542 forward 7 unknown #
vertex $-1 $489 $543 #
straight-curve $-1 4.8154044019000359 -1.7376568887226398 51.475070902745856 0 -0.52991925155115449 0.84804810408105047 I I #
point $-1 4.8154044019000359 25.623842850803783 7.6875166461335951 #
point $-1 -10.688863837425085 29.039110248992372 2.2219461210286582 #
straight-curve $-1 0 29.039110248992372 7.6875166461335933 -1 0 0 I I #
vertex $-1 $394 $544 #
point $-1 -4.7590729119036226 24.264092743035146 3.0380173159112389 #
vertex $-1 $398 $545 #
point $-1 1.8856134763785732 24.264092743035146 3.0380173159112389 #
straight-curve $-1 20.319672641225157 -1.7376568887226398 51.475070902745856 0 -0.52991925155115449 0.84804810408105047 I I #
coedge $-1 $406 $412 $408 $502 reversed $402 $-1 #
straight-curve $-1 20.319672641225157 29.039110248992372 48.161463105133379 0 0 -1 I I #
edge $-1 $410 -20.319672641225157 $506 -4.8154044019000359 $500 $546 forward 7 unknown #
point $-1 20.319672641225157 25.623842850803783 7.6875166461335951 #
point $-1 20.319672641225157 29.039110248992372 7.6875166461335933 #
point $-1 20.319672641225157 29.039110248992372 2.2219461210286582 #
vertex $-1 $417 $547 #
straight-curve $-1 4.8154044019000359 35.016958450826564 7.6875166461335951 0 -1 0 I I #
straight-curve $-1 4.8154044019000359 29.039110248992372 48.161463105133379 0 0 1 I I #
vertex $-1 $420 $548 #
point $-1 10.745195327421499 24.264092743035146 3.0380173159112389 #
vertex $-1 $424 $549 #
point $-1 17.389881715703694 24.264092743035146 3.0380173159112389 #
coedge $-1 $439 $438 $431 $514 forward $428 $-1 #
edge $-1 $515 17.360642818562383 $518 21.045451991969813 $513 $550 forward 7 unknown #
vertex $-1 $443 $551 #
straight-curve $-1 -20.458988589293043 -50.008524935247287 7.6875166461335915 0 -1 0 I I #
edge $-1 $518 -14.505576808210288 $440 2.5987532460447778 $439 $552 forward 7 unknown #
vertex $-1 $517 $553 #
straight-curve $-1 -20.458988589293043 -29.039110248992372 4.0027074727261649 0 0.54463902268945019 0.83867057594974714 I I #
point $-1 -20.458988589293043 -26.646167269290178 7.6875166461335933 #
point $-1 -3.3546585350379772 -29.039110248992372 4.0027074727261649 #
straight-curve $-1 0 -29.039110248992372 7.6875166461335933 1 0 0 I I #
vertex $-1 $446 $554 #
point $-1 -14.572037145220165 -26.00753017567483 4.6533786493286078 #
vertex $-1 $450 $555 #
point $-1 -7.2416099791108479 -26.00753017567483 4.6533786493286078 #
straight-curve $-1 -42.315744499038665 29.039110248992372 0 0 0 -1 I I #
point $-1 -42.315744499038665 -29.039110248992372 -7.6875166461335933 #
straight-curve $-1 -42.315744499038665 0 -7.6875166461335933 0 1 0 I I #
point $-1 -42.315744499038665 29.039110248992372 -7.6875166461335933 #
coedge $-1 $479 $478 $471 $532 reversed $355 $-1 #
edge $-1 $533 -29.039110248992372 $535 29.039110248992372 $531 $556 forward 7 unknown #
vertex $-1 $532 $557 #
straight-curve $-1 0 -29.039110248992372 -7.6875166461335933 -1 0 0 I I #
vertex $-1 $474 $558 #
straight-curve $-1 0 29.039110248992372 -7.6875166461335933 1 0 0 I I #
point $-1 -32.6849356952386 29.039110248992372 -7.6875166461335933 #
straight-curve $-1 -42.315744499038665 29.039110248992372 0 0 0 -1 I I #
straight-curve $-1 -42.315744499038665 -29.039110248992372 0 0 0 -1 I I #
straight-curve $-1 4.8154044019000359 29.039110248992372 48.161463105133379 0 0 -1 I I #
point $-1 4.8154044019000359 29.039110248992372 7.6875166461335933 #
straight-curve $-1 -1.4683648588812623 29.039110248992372 2.2219461210286653 -1 0 0 I I #
point $-1 4.8154044019000359 29.039110248992372 2.2219461210286582 #
point $-1 -6.2590729119036226 22.992020586913572 2.243138438584507 #
point $-1 0.38561347637857324 22.992020586913572 2.243138438584507 #
straight-curve $-1 0 29.039110248992372 7.6875166461335933 -1 0 0 I I #
point $-1 4.8154044019000359 29.039110248992372 7.6875166461335933 #
point $-1 9.2451953274214986 22.992020586913572 2.243138438584507 #
point $-1 15.889881715703694 22.992020586913572 2.243138438584507 #
straight-curve $-1 -20.458988589293043 -29.039110248992372 25.048159464695978 0 0 -1 I I #
point $-1 -20.458988589293043 -29.039110248992372 7.6875166461335933 #
straight-curve $-1 -5.9534117810827549 -29.039110248992372 4.0027074727261667 1 0 0 I I #
point $-1 -20.458988589293043 -29.039110248992372 4.0027074727261649 #
point $-1 -15.572037145220165 -25.168859599725081 4.1087396266391574 #
point $-1 -8.2416099791108479 -25.168859599725081 4.1087396266391574 #
straight-curve $-1 -42.315744499038665 0 -7.6875166461335933 0 1 0 I I #
point $-1 -42.315744499038665 -29.039110248992372 -7.6875166461335933 #
point $-1 -42.315744499038665 29.039110248992372 -7.6875166461335933 #
End-of-ACIS-data 