500 0 8 0           
7 Unknown 11 ACIS 5.0 NT 24 Fri Mar 26 02:03:39 1999 
-1 9.9999999999999995e-007 1e-010 
body $-1 $8 $-1 $9 #
body $-1 $10 $-1 $11 #
body $-1 $12 $-1 $13 #
body $-1 $14 $-1 $15 #
body $-1 $16 $-1 $17 #
body $-1 $18 $-1 $19 #
body $-1 $20 $-1 $21 #
body $-1 $22 $-1 $23 #
lump $-1 $-1 $24 $0 #
transform $-1 1 0 0 0 1 0 0 0 1 76.782128360850862 46.163008060989235 14.494144817415794 1 rotate no_reflect no_shear #
lump $-1 $-1 $25 $1 #
transform $-1 1 0 0 0 1 0 0 0 1 76.782128360850862 46.163008060989235 14.494144817415794 1 rotate no_reflect no_shear #
lump $-1 $-1 $26 $2 #
transform $-1 1 0 0 0 1 0 0 0 1 76.782128360850862 46.163008060989235 14.494144817415794 1 rotate no_reflect no_shear #
lump $-1 $-1 $27 $3 #
transform $-1 1 0 0 0 1 0 0 0 1 76.782128360850862 46.163008060989235 14.494144817415794 1 rotate no_reflect no_shear #
lump $-1 $-1 $28 $4 #
transform $-1 1 0 0 0 1 0 0 0 1 76.782128360850862 46.163008060989235 14.494144817415794 1 rotate no_reflect no_shear #
lump $-1 $-1 $29 $5 #
transform $-1 1 0 0 0 1 0 0 0 1 76.782128360850862 46.163008060989235 14.494144817415794 1 rotate no_reflect no_shear #
lump $-1 $-1 $30 $6 #
transform $-1 1 0 0 0 1 0 0 0 1 76.782128360850862 46.163008060989235 14.494144817415794 1 rotate no_reflect no_shear #
lump $-1 $-1 $31 $7 #
transform $-1 1 0 0 0 1 0 0 0 1 76.782128360850862 46.163008060989235 14.494144817415794 1 rotate no_reflect no_shear #
shell $-1 $-1 $-1 $32 $-1 $8 #
shell $-1 $-1 $-1 $33 $-1 $10 #
shell $-1 $-1 $-1 $34 $-1 $12 #
shell $-1 $-1 $-1 $35 $-1 $14 #
shell $-1 $-1 $-1 $36 $-1 $16 #
shell $-1 $-1 $-1 $37 $-1 $18 #
shell $-1 $-1 $-1 $38 $-1 $20 #
shell $-1 $-1 $-1 $39 $-1 $22 #
face $-1 $40 $41 $24 $-1 $42 forward single #
face $-1 $43 $44 $25 $-1 $45 forward single #
face $-1 $46 $47 $26 $-1 $48 forward single #
face $-1 $49 $50 $27 $-1 $51 reversed single #
face $-1 $52 $53 $28 $-1 $54 forward single #
face $-1 $55 $56 $29 $-1 $57 reversed single #
face $-1 $58 $59 $30 $-1 $60 forward single #
face $-1 $61 $62 $31 $-1 $63 forward single #
face $-1 $64 $65 $24 $-1 $66 reversed single #
loop $-1 $-1 $67 $32 #
plane-surface $-1 0 0 14.494144817415794 0 0 1 1 0 0 forward_v I I I I #
face $-1 $68 $69 $25 $-1 $70 reversed single #
loop $-1 $-1 $71 $33 #
plane-surface $-1 -76.782128360850862 0 0 1 0 0 0 0 -1 forward_v I I I I #
face $-1 $72 $73 $26 $-1 $74 forward single #
loop $-1 $-1 $75 $34 #
plane-surface $-1 76.782128360850862 0 0 -1 0 0 0 0 1 forward_v I I I I #
face $-1 $76 $77 $27 $-1 $78 reversed single #
loop $-1 $-1 $79 $35 #
plane-surface $-1 20.616400089234489 80.305953043052995 177.04150035948518 1 0 0 0 -0.66913061440640931 -0.74314481823134659 forward_v I I I I #
face $-1 $80 $81 $28 $-1 $82 forward single #
loop $-1 $83 $84 $36 #
cone-surface $-1 29.771925379073053 37.789805545215451 6.7532582951198989 0 -0.66913061440640931 -0.74314481823134659 2 0 0 1 I I 0 1 2 forward I I I I #
face $-1 $85 $86 $29 $-1 $87 reversed single #
loop $-1 $-1 $88 $37 #
plane-surface $-1 -25.976465591260435 -174.95283169107364 90.623304181442819 -1 0 0 0 -0.83867057594974714 0.54463902268945019 forward_v I I I I #
face $-1 $89 $90 $30 $-1 $91 forward single #
loop $-1 $92 $93 $38 #
cone-surface $-1 -51.496194667487408 -42.287652198496453 9.8066555362754979 0 0.83867057594974714 -0.54463902268945019 1 0 0 1 I I 0 1 1 forward I I I I #
face $-1 $94 $95 $31 $-1 $96 forward single #
loop $-1 $97 $98 $39 #
cone-surface $-1 -36.184357221751227 -42.287652198496453 9.8066555362754979 0 0.83867057594974714 -0.54463902268945019 1 0 0 1 I I 0 1 1 forward I I I I #
face $-1 $99 $100 $24 $-1 $101 reversed single #
loop $-1 $-1 $102 $40 #
plane-surface $-1 0 0 -14.494144817415794 0 0 1 1 0 0 forward_v I I I I #
coedge $-1 $103 $104 $105 $106 forward $41 $-1 #
face $-1 $107 $108 $25 $-1 $109 reversed single #
loop $-1 $-1 $110 $43 #
plane-surface $-1 0 46.163008060989235 0 0 -1 0 0 0 -1 forward_v I I I I #
coedge $-1 $111 $112 $113 $114 forward $44 $-1 #
face $-1 $115 $116 $26 $-1 $117 reversed single #
loop $-1 $-1 $118 $46 #
plane-surface $-1 0 0 14.494144817415794 0 0 1 1 0 0 forward_v I I I I #
coedge $-1 $119 $120 $121 $122 forward $47 $-1 #
face $-1 $123 $124 $27 $-1 $125 reversed single #
loop $-1 $-1 $126 $49 #
plane-surface $-1 29.771925379073053 -22.448592408002852 62.921018711204312 0 0.66913061440640931 0.74314481823134659 1 0 0 forward_v I I I I #
coedge $-1 $127 $128 $129 $130 reversed $50 $-1 #
face $-1 $-1 $131 $28 $-1 $132 forward single #
loop $-1 $133 $134 $52 #
cone-surface $-1 29.771925379073053 36.161527134915168 4.944871954396163 0 -0.66913061440640931 -0.74314481823134659 1 0 0 1 I I -0.70710678118654746 0.70710678118654746 1 forward I I I I #
loop $-1 $-1 $135 $36 #
coedge $-1 $84 $84 $136 $137 reversed $53 $-1 #
face $-1 $138 $139 $29 $-1 $140 reversed single #
loop $-1 $-1 $141 $55 #
plane-surface $-1 -43.840275944619314 -46.163008060989227 6.9862174805033561 0 -0.83867057594974714 0.54463902268945019 1 0 0 forward_v I I I I #
coedge $-1 $142 $143 $144 $145 reversed $56 $-1 #
face $-1 $-1 $146 $30 $-1 $147 forward single #
loop $-1 $148 $149 $58 #
cone-surface $-1 -51.496194667487408 -40.43081348047447 8.6008104122467017 0 0.83867057594974714 -0.54463902268945019 0.5 0 0 1 I I -0.70710678118654624 0.70710678118654879 0.5 forward I I I I #
loop $-1 $-1 $150 $38 #
coedge $-1 $93 $93 $151 $152 reversed $59 $-1 #
face $-1 $-1 $153 $31 $-1 $154 forward single #
loop $-1 $155 $156 $61 #
cone-surface $-1 -36.184357221751227 -40.43081348047447 8.6008104122467017 0 0.83867057594974714 -0.54463902268945019 0.5 0 0 1 I I -0.70710678118654624 0.70710678118654879 0.5 forward I I I I #
loop $-1 $-1 $157 $39 #
coedge $-1 $98 $98 $158 $159 reversed $62 $-1 #
face $-1 $160 $161 $24 $-1 $162 reversed single #
loop $-1 $-1 $163 $64 #
plane-surface $-1 0 -46.163008060989235 0 0 1 0 0 0 1 forward_v I I I I #
coedge $-1 $164 $165 $166 $167 forward $65 $-1 #
coedge $-1 $168 $67 $169 $170 forward $41 $-1 #
coedge $-1 $67 $168 $171 $172 forward $41 $-1 #
coedge $-1 $173 $174 $67 $106 reversed $175 $-1 #
edge $-1 $176 -46.163008060989235 $177 46.163008060989235 $105 $178 forward 7 unknown #
face $-1 $179 $180 $25 $-1 $181 reversed single #
loop $-1 $-1 $113 $68 #
plane-surface $-1 -84.321149392287197 0 10.461333809377834 0 0 1 1 0 0 forward_v I I I I #
coedge $-1 $182 $183 $111 $184 forward $69 $-1 #
coedge $-1 $185 $71 $110 $184 reversed $44 $-1 #
coedge $-1 $71 $185 $186 $187 reversed $44 $-1 #
coedge $-1 $188 $189 $71 $114 reversed $108 $-1 #
edge $-1 $190 -46.163008060989235 $191 46.163008060989235 $113 $192 forward 7 unknown #
face $-1 $193 $194 $26 $-1 $195 reversed single #
loop $-1 $-1 $196 $72 #
plane-surface $-1 0 -46.163008060989235 0 0 1 0 0 0 1 forward_v I I I I #
coedge $-1 $197 $198 $199 $200 forward $73 $-1 #
coedge $-1 $199 $75 $196 $201 reversed $47 $-1 #
coedge $-1 $75 $199 $202 $203 reversed $47 $-1 #
coedge $-1 $204 $205 $75 $122 reversed $194 $-1 #
edge $-1 $206 -46.163008060989235 $207 46.163008060989235 $121 $208 forward 7 unknown #
face $-1 $209 $210 $27 $-1 $211 reversed single #
loop $-1 $-1 $212 $76 #
plane-surface $-1 38.927450668911618 80.305953043052995 177.04150035948518 -1 0 0 0 0.66913061440640931 0.74314481823134659 forward_v I I I I #
coedge $-1 $213 $214 $215 $216 reversed $77 $-1 #
coedge $-1 $128 $79 $217 $218 reversed $50 $-1 #
coedge $-1 $79 $127 $213 $219 reversed $50 $-1 #
coedge $-1 $215 $220 $79 $130 forward $221 $-1 #
edge $-1 $222 -6.0100315394627373 $223 8.8180779002970482 $129 $224 forward 7 unknown #
loop $-1 $-1 $136 $80 #
plane-surface $-1 29.771925379073053 -22.448592408002852 62.921018711204312 0 0.66913061440640931 0.74314481823134659 1 0 0 forward_v I I I I #
loop $-1 $-1 $225 $52 #
coedge $-1 $134 $134 $135 $226 reversed $81 $-1 #
coedge $-1 $135 $135 $134 $226 forward $83 $-1 #
coedge $-1 $136 $136 $84 $137 forward $131 $-1 #
edge $-1 $227 -2.629512743543829e-016 $227 6.2831853071796004 $136 $228 forward 7 unknown #
face $-1 $229 $230 $29 $-1 $231 reversed single #
loop $-1 $-1 $232 $85 #
plane-surface $-1 -61.704086297978193 -174.95283169107364 90.623304181442819 1 0 0 0 0.83867057594974714 -0.54463902268945019 forward_v I I I I #
coedge $-1 $233 $234 $235 $236 reversed $86 $-1 #
coedge $-1 $143 $88 $237 $238 reversed $56 $-1 #
coedge $-1 $88 $142 $233 $239 reversed $56 $-1 #
coedge $-1 $235 $240 $88 $145 forward $241 $-1 #
edge $-1 $242 41.313407784547586 $243 46.189112649438925 $144 $244 forward 7 unknown #
loop $-1 $-1 $151 $89 #
plane-surface $-1 -43.840275944619314 -46.163008060989227 6.9862174805033561 0 -0.83867057594974714 0.54463902268945019 1 0 0 forward_v I I I I #
loop $-1 $-1 $245 $58 #
coedge $-1 $149 $149 $150 $246 reversed $90 $-1 #
coedge $-1 $150 $150 $149 $246 forward $92 $-1 #
coedge $-1 $151 $151 $93 $152 forward $146 $-1 #
edge $-1 $247 2.3801147982426114e-015 $247 6.2831853071796031 $151 $248 forward 7 unknown #
loop $-1 $-1 $158 $94 #
plane-surface $-1 -43.840275944619314 -46.163008060989227 6.9862174805033561 0 -0.83867057594974714 0.54463902268945019 1 0 0 forward_v I I I I #
loop $-1 $-1 $249 $61 #
coedge $-1 $156 $156 $157 $250 reversed $95 $-1 #
coedge $-1 $157 $157 $156 $250 forward $97 $-1 #
coedge $-1 $158 $158 $98 $159 forward $153 $-1 #
edge $-1 $251 2.3801147982426114e-015 $251 6.2831853071796031 $158 $252 forward 7 unknown #
face $-1 $253 $254 $24 $-1 $255 reversed single #
loop $-1 $-1 $256 $99 #
plane-surface $-1 -76.782128360850862 0 0 1 0 0 0 0 -1 forward_v I I I I #
coedge $-1 $257 $171 $258 $259 forward $100 $-1 #
coedge $-1 $260 $102 $257 $261 forward $65 $-1 #
coedge $-1 $102 $260 $262 $263 forward $65 $-1 #
coedge $-1 $174 $173 $102 $167 reversed $175 $-1 #
edge $-1 $264 -46.163008060989235 $265 46.163008060989235 $166 $266 forward 7 unknown #
coedge $-1 $104 $103 $267 $268 forward $41 $-1 #
coedge $-1 $269 $270 $103 $170 reversed $254 $-1 #
edge $-1 $177 -76.782128360850862 $271 76.782128360850862 $169 $272 forward 7 unknown #
coedge $-1 $163 $273 $104 $172 reversed $100 $-1 #
edge $-1 $274 -76.782128360850862 $176 76.782128360850862 $171 $275 forward 7 unknown #
coedge $-1 $166 $105 $273 $276 forward $175 $-1 #
coedge $-1 $105 $166 $269 $277 reversed $175 $-1 #
loop $-1 $-1 $173 $253 #
vertex $-1 $106 $278 #
vertex $-1 $106 $279 #
straight-curve $-1 76.782128360850862 0 14.494144817415794 0 1 0 I I #
face $-1 $280 $281 $25 $-1 $282 forward single #
loop $-1 $-1 $283 $107 #
plane-surface $-1 -91.860170423723531 0 12.477739313396814 1 0 0 0 0 -1 forward_v I I I I #
coedge $-1 $284 $110 $189 $285 reversed $69 $-1 #
coedge $-1 $110 $284 $286 $287 reversed $69 $-1 #
edge $-1 $288 -14.494144817415794 $191 -10.461333809377834 $110 $289 forward 7 unknown #
coedge $-1 $112 $111 $290 $291 reversed $44 $-1 #
coedge $-1 $292 $293 $112 $187 forward $294 $-1 #
edge $-1 $190 10.461333809377834 $295 14.494144817415794 $186 $296 forward 7 unknown #
coedge $-1 $297 $113 $293 $298 forward $108 $-1 #
coedge $-1 $113 $297 $182 $285 forward $108 $-1 #
vertex $-1 $187 $299 #
vertex $-1 $184 $300 #
straight-curve $-1 -76.782128360850862 0 10.461333809377834 0 1 0 I I #
face $-1 $301 $302 $26 $-1 $303 reversed single #
loop $-1 $-1 $304 $115 #
plane-surface $-1 84.321149392287197 0 10.461333809377834 0 0 1 1 0 0 forward_v I I I I #
coedge $-1 $305 $306 $119 $201 forward $116 $-1 #
coedge $-1 $307 $118 $306 $308 forward $73 $-1 #
coedge $-1 $118 $307 $309 $310 forward $73 $-1 #
coedge $-1 $120 $119 $118 $200 reversed $47 $-1 #
edge $-1 $311 -46.163008060989235 $312 46.163008060989235 $118 $313 forward 7 unknown #
edge $-1 $312 -14.494144817415794 $207 -10.461333809377834 $196 $314 forward 7 unknown #
coedge $-1 $309 $315 $120 $203 forward $316 $-1 #
edge $-1 $206 10.461333809377834 $311 14.494144817415794 $202 $317 forward 7 unknown #
coedge $-1 $304 $121 $315 $318 forward $194 $-1 #
coedge $-1 $121 $304 $305 $319 forward $194 $-1 #
vertex $-1 $203 $320 #
vertex $-1 $201 $321 #
straight-curve $-1 76.782128360850862 0 10.461333809377834 0 -1 0 I I #
face $-1 $-1 $221 $27 $-1 $322 forward single #
loop $-1 $-1 $323 $123 #
plane-surface $-1 0 46.163008060989235 0 0 -1 0 0 0 -1 forward_v I I I I #
coedge $-1 $324 $325 $326 $327 reversed $124 $-1 #
coedge $-1 $328 $126 $128 $219 forward $77 $-1 #
coedge $-1 $126 $328 $324 $329 forward $77 $-1 #
coedge $-1 $326 $129 $126 $216 forward $221 $-1 #
edge $-1 $223 5.7304373996979621 $330 24.041487979375091 $215 $331 forward 7 unknown #
coedge $-1 $332 $333 $127 $218 forward $210 $-1 #
edge $-1 $334 -87.37789536193381 $222 -74.026605362326791 $217 $335 forward 7 unknown #
edge $-1 $223 72.372826547098512 $334 92.326016121978512 $128 $336 forward 7 unknown #
coedge $-1 $129 $326 $332 $337 forward $221 $-1 #
loop $-1 $-1 $326 $209 #
vertex $-1 $218 $338 #
vertex $-1 $130 $339 #
straight-curve $-1 20.616400089234489 40.152976521526497 14.494144817415787 0 -1 0 I I #
coedge $-1 $225 $225 $-1 $340 reversed $133 $-1 #
edge $-1 $341 0 $341 6.2831853071796004 $134 $342 forward 7 unknown #
vertex $-1 $137 $343 #
ellipse-curve $-1 29.771925379073053 38.748953341109335 7.8184998176122953 0 0.66913061440640931 0.74314481823134659 2 0 0 1 I I #
face $-1 $-1 $241 $29 $-1 $344 forward single #
loop $-1 $-1 $345 $138 #
plane-surface $-1 0 -46.163008060989235 0 0 1 0 0 0 1 forward_v I I I I #
coedge $-1 $346 $347 $348 $349 reversed $139 $-1 #
coedge $-1 $350 $141 $143 $239 forward $86 $-1 #
coedge $-1 $141 $350 $346 $351 forward $86 $-1 #
coedge $-1 $348 $144 $141 $236 forward $241 $-1 #
edge $-1 $243 4.0563276189507782 $352 39.783948325668533 $235 $353 forward 7 unknown #
coedge $-1 $354 $355 $142 $238 forward $230 $-1 #
edge $-1 $356 -38.325434610218068 $242 -30.817507273305615 $237 $357 forward 7 unknown #
edge $-1 $243 -8.9521768763738194 $356 1.2808562293387176e-014 $143 $358 forward 7 unknown #
coedge $-1 $144 $348 $354 $359 forward $241 $-1 #
loop $-1 $-1 $348 $229 #
vertex $-1 $238 $360 #
vertex $-1 $145 $361 #
straight-curve $-1 -25.976465591260435 -87.47641584553682 14.494144817415794 0 1 0 I I #
coedge $-1 $245 $245 $-1 $362 reversed $148 $-1 #
edge $-1 $363 0 $363 6.2831853071796004 $149 $364 forward 7 unknown #
vertex $-1 $152 $365 #
ellipse-curve $-1 -51.496194667487408 -43.725155628543568 10.74018114895957 0 -0.83867057594974714 0.54463902268945019 1 0 0 1 I I #
coedge $-1 $249 $249 $-1 $366 reversed $155 $-1 #
edge $-1 $367 0 $367 6.2831853071796004 $156 $368 forward 7 unknown #
vertex $-1 $159 $369 #
ellipse-curve $-1 -36.184357221751227 -43.725155628543568 10.74018114895957 0 -0.83867057594974714 0.54463902268945019 1 0 0 1 I I #
face $-1 $-1 $175 $24 $-1 $370 reversed single #
loop $-1 $-1 $269 $160 #
plane-surface $-1 0 46.163008060989235 0 0 -1 0 0 0 -1 forward_v I I I I #
coedge $-1 $371 $267 $270 $372 forward $161 $-1 #
coedge $-1 $273 $163 $164 $261 reversed $100 $-1 #
coedge $-1 $267 $371 $163 $259 reversed $161 $-1 #
edge $-1 $274 -14.494144817415794 $373 14.494144817415794 $258 $374 forward 7 unknown #
coedge $-1 $165 $164 $371 $375 forward $65 $-1 #
edge $-1 $265 -76.782128360850862 $373 76.782128360850862 $257 $376 forward 7 unknown #
coedge $-1 $270 $269 $165 $263 reversed $254 $-1 #
edge $-1 $377 -76.782128360850862 $264 76.782128360850862 $262 $378 forward 7 unknown #
vertex $-1 $167 $379 #
vertex $-1 $276 $380 #
straight-curve $-1 76.782128360850862 0 -14.494144817415794 0 -1 0 I I #
coedge $-1 $256 $258 $168 $268 reversed $161 $-1 #
edge $-1 $271 -46.163008060989235 $274 46.163008060989235 $267 $381 forward 7 unknown #
coedge $-1 $262 $169 $174 $277 forward $254 $-1 #
coedge $-1 $169 $262 $256 $372 reversed $254 $-1 #
vertex $-1 $170 $382 #
straight-curve $-1 0 46.163008060989235 14.494144817415794 -1 0 0 I I #
coedge $-1 $171 $257 $173 $276 reversed $100 $-1 #
vertex $-1 $268 $383 #
straight-curve $-1 0 -46.163008060989235 14.494144817415794 1 0 0 I I #
edge $-1 $176 -14.494144817415794 $265 14.494144817415794 $173 $384 forward 7 unknown #
edge $-1 $177 -14.494144817415794 $264 14.494144817415794 $174 $385 forward 7 unknown #
point $-1 76.782128360850862 -46.163008060989235 14.494144817415794 #
point $-1 76.782128360850862 46.163008060989235 14.494144817415794 #
face $-1 $-1 $294 $25 $-1 $386 reversed single #
loop $-1 $-1 $290 $179 #
plane-surface $-1 0 0 14.494144817415794 0 0 1 1 0 0 forward_v I I I I #
coedge $-1 $387 $388 $284 $389 forward $180 $-1 #
coedge $-1 $183 $182 $283 $389 reversed $69 $-1 #
edge $-1 $390 -7.5390210314363344 $191 7.5390210314363344 $182 $391 forward 7 unknown #
coedge $-1 $392 $290 $183 $287 forward $281 $-1 #
edge $-1 $288 76.782128360850862 $393 91.860170423723531 $183 $394 forward 7 unknown #
vertex $-1 $287 $395 #
straight-curve $-1 -76.782128360850862 46.163008060989235 0 0 0 -1 I I #
coedge $-1 $286 $396 $185 $291 forward $281 $-1 #
edge $-1 $295 -46.163008060989235 $288 46.163008060989235 $290 $397 forward 7 unknown #
coedge $-1 $398 $186 $396 $399 reversed $294 $-1 #
coedge $-1 $186 $398 $188 $298 reversed $294 $-1 #
loop $-1 $-1 $186 $280 #
vertex $-1 $187 $400 #
straight-curve $-1 -76.782128360850862 -46.163008060989235 0 0 0 1 I I #
coedge $-1 $189 $188 $387 $401 forward $108 $-1 #
edge $-1 $190 -7.5390210314363344 $402 7.5390210314363344 $293 $403 forward 7 unknown #
point $-1 -76.782128360850862 -46.163008060989235 10.461333809377834 #
point $-1 -76.782128360850862 46.163008060989235 10.461333809377834 #
face $-1 $-1 $316 $26 $-1 $404 reversed single #
loop $-1 $-1 $405 $193 #
plane-surface $-1 91.860170423723531 0 12.477739313396814 -1 0 0 0 0 1 forward_v I I I I #
coedge $-1 $205 $204 $406 $407 forward $194 $-1 #
coedge $-1 $408 $196 $205 $319 reversed $116 $-1 #
coedge $-1 $196 $408 $197 $308 reversed $116 $-1 #
coedge $-1 $198 $197 $409 $410 forward $73 $-1 #
edge $-1 $312 -7.5390210314363344 $411 7.5390210314363344 $306 $412 forward 7 unknown #
coedge $-1 $413 $202 $198 $310 reversed $316 $-1 #
edge $-1 $414 -91.860170423723531 $311 -76.782128360850862 $309 $415 forward 7 unknown #
vertex $-1 $203 $416 #
vertex $-1 $308 $417 #
straight-curve $-1 76.782128360850862 0 14.494144817415794 0 -1 0 I I #
straight-curve $-1 76.782128360850862 -46.163008060989235 0 0 0 -1 I I #
coedge $-1 $202 $413 $204 $318 reversed $316 $-1 #
loop $-1 $-1 $202 $301 #
straight-curve $-1 76.782128360850862 46.163008060989235 0 0 0 1 I I #
edge $-1 $206 -7.5390210314363344 $418 7.5390210314363344 $315 $419 forward 7 unknown #
edge $-1 $420 -7.5390210314363344 $207 7.5390210314363344 $305 $421 forward 7 unknown #
point $-1 76.782128360850862 46.163008060989235 10.461333809377834 #
point $-1 76.782128360850862 -46.163008060989235 10.461333809377834 #
plane-surface $-1 0 0 14.494144817415794 0 0 1 1 0 0 forward_v I I I I #
coedge $-1 $333 $332 $325 $422 forward $210 $-1 #
coedge $-1 $325 $212 $214 $329 reversed $124 $-1 #
coedge $-1 $212 $324 $323 $422 reversed $124 $-1 #
coedge $-1 $220 $215 $212 $327 forward $221 $-1 #
edge $-1 $330 -8.8180779002970482 $423 6.0100315394627373 $326 $424 forward 7 unknown #
coedge $-1 $214 $213 $333 $425 reversed $77 $-1 #
edge $-1 $426 -92.326016121978512 $330 -72.372826547098512 $324 $427 forward 7 unknown #
vertex $-1 $216 $428 #
straight-curve $-1 14.885962689536527 31.334898621229449 14.494144817415787 1 0 0 I I #
coedge $-1 $323 $217 $220 $337 reversed $210 $-1 #
coedge $-1 $217 $323 $328 $425 forward $210 $-1 #
vertex $-1 $218 $429 #
straight-curve $-1 20.616400089234489 46.163008060989235 88.520750179742592 0 0 1 I I #
straight-curve $-1 20.616400089234489 -22.448592408002852 62.921018711204312 0 0.74314481823134659 -0.66913061440640931 I I #
edge $-1 $423 -38.927450668911618 $222 -20.616400089234489 $332 $430 forward 7 unknown #
point $-1 20.616400089234489 46.163008060989235 14.494144817415794 #
point $-1 20.616400089234489 31.334898621229449 14.494144817415794 #
edge $-1 $431 1 $431 0 $225 $-1 forward 7 unknown #
vertex $-1 $226 $432 #
ellipse-curve $-1 29.771925379073053 36.830657749321574 5.6880167726275097 0 0.66913061440640931 0.74314481823134659 2 0 0 1 I I #
point $-1 31.771925379073053 38.748953341109328 7.8184998176122882 #
plane-surface $-1 0 0 14.494144817415794 0 0 1 1 0 0 forward_v I I I I #
coedge $-1 $355 $354 $347 $433 forward $230 $-1 #
coedge $-1 $347 $232 $234 $351 reversed $139 $-1 #
coedge $-1 $232 $346 $345 $433 reversed $139 $-1 #
coedge $-1 $240 $235 $232 $349 forward $241 $-1 #
edge $-1 $352 -46.189112649438925 $434 -41.313407784547586 $348 $435 forward 7 unknown #
coedge $-1 $234 $233 $355 $436 reversed $86 $-1 #
edge $-1 $437 -1.2808562293387176e-014 $352 8.9521768763738194 $346 $438 forward 7 unknown #
vertex $-1 $236 $439 #
straight-curve $-1 -21.920137972309657 -41.287303196097895 14.494144817415794 -1 0 0 I I #
coedge $-1 $345 $237 $240 $359 reversed $230 $-1 #
coedge $-1 $237 $345 $350 $436 forward $230 $-1 #
vertex $-1 $238 $440 #
straight-curve $-1 -25.976465591260435 -46.163008060989227 45.31165209072141 0 0 1 I I #
straight-curve $-1 -25.976465591260435 -46.163008060989227 6.9862174805033561 0 -0.54463902268945019 -0.83867057594974714 I I #
edge $-1 $434 -146.02523569026539 $242 -110.29761498354763 $354 $441 forward 7 unknown #
point $-1 -25.976465591260435 -46.163008060989235 14.494144817415794 #
point $-1 -25.976465591260435 -41.287303196097895 14.494144817415794 #
edge $-1 $442 1 $442 0 $245 $-1 forward 7 unknown #
vertex $-1 $246 $443 #
ellipse-curve $-1 -51.496194667487408 -40.850148768449344 8.8731299235914278 0 -0.83867057594974714 0.54463902268945019 1 0 0 1 I I #
point $-1 -50.496194667487408 -43.725155628543561 10.740181148959568 #
edge $-1 $444 1 $444 0 $249 $-1 forward 7 unknown #
vertex $-1 $250 $445 #
ellipse-curve $-1 -36.184357221751227 -40.850148768449344 8.8731299235914278 0 -0.83867057594974714 0.54463902268945019 1 0 0 1 I I #
point $-1 -35.184357221751227 -43.725155628543561 10.740181148959568 #
plane-surface $-1 76.782128360850862 0 0 -1 0 0 0 0 1 forward_v I I I I #
coedge $-1 $258 $256 $260 $375 reversed $161 $-1 #
edge $-1 $271 -14.494144817415794 $377 14.494144817415794 $270 $446 forward 7 unknown #
vertex $-1 $375 $447 #
straight-curve $-1 -76.782128360850862 -46.163008060989235 0 0 0 -1 I I #
edge $-1 $373 -46.163008060989235 $377 46.163008060989235 $371 $448 forward 7 unknown #
straight-curve $-1 0 -46.163008060989235 -14.494144817415794 -1 0 0 I I #
vertex $-1 $263 $449 #
straight-curve $-1 0 46.163008060989235 -14.494144817415794 1 0 0 I I #
point $-1 76.782128360850862 46.163008060989235 -14.494144817415794 #
point $-1 76.782128360850862 -46.163008060989235 -14.494144817415794 #
straight-curve $-1 -76.782128360850862 0 14.494144817415794 0 -1 0 I I #
point $-1 -76.782128360850862 46.163008060989235 14.494144817415794 #
point $-1 -76.782128360850862 -46.163008060989235 14.494144817415794 #
straight-curve $-1 76.782128360850862 -46.163008060989235 0 0 0 -1 I I #
straight-curve $-1 76.782128360850862 46.163008060989235 0 0 0 -1 I I #
plane-surface $-1 0 -46.163008060989235 0 0 1 0 0 0 1 forward_v I I I I #
coedge $-1 $450 $283 $297 $401 reversed $180 $-1 #
coedge $-1 $283 $450 $392 $451 reversed $180 $-1 #
edge $-1 $393 -2.0164055040189801 $390 2.0164055040189801 $284 $452 forward 7 unknown #
vertex $-1 $285 $453 #
straight-curve $-1 -84.321149392287197 46.163008060989235 10.461333809377834 1 0 0 I I #
coedge $-1 $396 $286 $388 $451 forward $281 $-1 #
vertex $-1 $287 $454 #
straight-curve $-1 0 46.163008060989235 14.494144817415794 -1 0 0 I I #
point $-1 -76.782128360850862 46.163008060989235 14.494144817415794 #
coedge $-1 $290 $392 $292 $399 forward $281 $-1 #
straight-curve $-1 -76.782128360850862 0 14.494144817415794 0 1 0 I I #
coedge $-1 $293 $292 $450 $455 forward $294 $-1 #
edge $-1 $456 -91.860170423723531 $295 -76.782128360850862 $292 $457 forward 7 unknown #
point $-1 -76.782128360850862 -46.163008060989235 14.494144817415794 #
edge $-1 $402 -46.163008060989235 $390 46.163008060989235 $387 $458 forward 7 unknown #
vertex $-1 $401 $459 #
straight-curve $-1 -84.321149392287197 -46.163008060989235 10.461333809377834 -1 0 0 I I #
plane-surface $-1 0 46.163008060989235 0 0 -1 0 0 0 -1 forward_v I I I I #
coedge $-1 $406 $409 $408 $460 forward $302 $-1 #
coedge $-1 $461 $405 $304 $407 reversed $302 $-1 #
edge $-1 $418 -46.163008060989235 $420 46.163008060989235 $406 $462 forward 7 unknown #
coedge $-1 $306 $305 $405 $460 reversed $116 $-1 #
coedge $-1 $405 $461 $307 $410 reversed $302 $-1 #
edge $-1 $411 -46.163008060989235 $414 46.163008060989235 $409 $463 forward 7 unknown #
vertex $-1 $410 $464 #
straight-curve $-1 84.321149392287197 -46.163008060989235 14.494144817415794 1 0 0 I I #
coedge $-1 $315 $309 $461 $465 forward $316 $-1 #
vertex $-1 $410 $466 #
straight-curve $-1 0 46.163008060989235 14.494144817415794 -1 0 0 I I #
point $-1 76.782128360850862 46.163008060989235 14.494144817415794 #
point $-1 76.782128360850862 -46.163008060989235 14.494144817415794 #
vertex $-1 $407 $467 #
straight-curve $-1 84.321149392287197 46.163008060989235 10.461333809377834 1 0 0 I I #
vertex $-1 $460 $468 #
straight-curve $-1 84.321149392287197 -46.163008060989235 10.461333809377834 -1 0 0 I I #
edge $-1 $423 74.026605362326791 $426 87.37789536193381 $323 $469 forward 7 unknown #
vertex $-1 $337 $470 #
straight-curve $-1 38.927450668911618 40.152976521526497 14.494144817415787 0 1 0 I I #
edge $-1 $426 -24.041487979375091 $334 -5.7304373996979621 $333 $471 forward 7 unknown #
vertex $-1 $425 $472 #
straight-curve $-1 38.927450668911618 -22.448592408002852 62.921018711204312 0 -0.74314481823134659 0.66913061440640931 I I #
point $-1 38.927450668911618 31.334898621229449 14.494144817415794 #
point $-1 20.616400089234489 46.163008060989242 1.1428548178087823 #
straight-curve $-1 0 46.163008060989235 14.494144817415794 -1 0 0 I I #
vertex $-1 $340 $473 #
point $-1 31.771925379073053 36.830657749321574 5.6880167726275097 #
edge $-1 $434 30.817507273305615 $437 38.325434610218068 $345 $474 forward 7 unknown #
vertex $-1 $359 $475 #
straight-curve $-1 -61.704086297978193 -87.47641584553682 14.494144817415794 0 -1 0 I I #
edge $-1 $437 -39.783948325668533 $356 -4.0563276189507782 $355 $476 forward 7 unknown #
vertex $-1 $436 $477 #
straight-curve $-1 -61.704086297978193 -46.163008060989227 6.9862174805033561 0 0.54463902268945019 0.83867057594974714 I I #
point $-1 -61.704086297978193 -41.287303196097895 14.494144817415794 #
point $-1 -25.976465591260435 -46.163008060989235 6.9862174805033455 #
straight-curve $-1 84.321149392287197 -46.163008060989235 14.494144817415794 1 0 0 I I #
vertex $-1 $362 $478 #
point $-1 -50.496194667487408 -40.850148768449344 8.8731299235914278 #
vertex $-1 $366 $479 #
point $-1 -35.184357221751227 -40.850148768449344 8.8731299235914278 #
straight-curve $-1 -76.782128360850862 46.163008060989235 0 0 0 -1 I I #
point $-1 -76.782128360850862 -46.163008060989235 -14.494144817415794 #
straight-curve $-1 -76.782128360850862 0 -14.494144817415794 0 1 0 I I #
point $-1 -76.782128360850862 46.163008060989235 -14.494144817415794 #
coedge $-1 $388 $387 $398 $455 reversed $180 $-1 #
edge $-1 $393 -46.163008060989235 $456 46.163008060989235 $388 $480 forward 7 unknown #
straight-curve $-1 -91.860170423723531 46.163008060989235 12.477739313396814 0 0 -1 I I #
point $-1 -91.860170423723531 46.163008060989235 10.461333809377834 #
point $-1 -91.860170423723531 46.163008060989235 14.494144817415794 #
edge $-1 $456 -2.0164055040189801 $402 2.0164055040189801 $450 $481 forward 7 unknown #
vertex $-1 $451 $482 #
straight-curve $-1 0 -46.163008060989235 14.494144817415794 1 0 0 I I #
straight-curve $-1 -91.860170423723531 0 10.461333809377834 0 1 0 I I #
point $-1 -91.860170423723531 -46.163008060989235 10.461333809377834 #
edge $-1 $411 -2.0164055040189801 $420 2.0164055040189801 $405 $483 forward 7 unknown #
coedge $-1 $409 $406 $413 $465 reversed $302 $-1 #
straight-curve $-1 91.860170423723531 0 10.461333809377834 0 -1 0 I I #
straight-curve $-1 91.860170423723531 0 14.494144817415794 0 1 0 I I #
point $-1 91.860170423723531 -46.163008060989235 14.494144817415794 #
edge $-1 $414 -2.0164055040189801 $418 2.0164055040189801 $461 $484 forward 7 unknown #
point $-1 91.860170423723531 46.163008060989235 14.494144817415794 #
point $-1 91.860170423723531 46.163008060989235 10.461333809377834 #
point $-1 91.860170423723531 -46.163008060989235 10.461333809377834 #
straight-curve $-1 38.927450668911618 46.163008060989235 88.520750179742592 0 0 -1 I I #
point $-1 38.927450668911618 46.163008060989235 14.494144817415794 #
straight-curve $-1 14.885962689536527 46.163008060989235 1.1428548178087894 -1 0 0 I I #
point $-1 38.927450668911618 46.163008060989242 1.1428548178087823 #
point $-1 29.771925379073053 35.492396520508763 4.2017271361648163 #
straight-curve $-1 -61.704086297978193 -46.163008060989227 45.31165209072141 0 0 -1 I I #
point $-1 -61.704086297978193 -46.163008060989235 14.494144817415794 #
straight-curve $-1 -21.920137972309657 -46.163008060989235 6.9862174805033366 1 0 0 I I #
point $-1 -61.704086297978193 -46.163008060989235 6.9862174805033455 #
point $-1 -51.496194667487408 -40.011478192499595 8.3284909009019756 #
point $-1 -36.184357221751227 -40.011478192499595 8.3284909009019756 #
straight-curve $-1 -91.860170423723531 0 14.494144817415794 0 -1 0 I I #
straight-curve $-1 -91.860170423723531 -46.163008060989235 12.477739313396814 0 0 -1 I I #
point $-1 -91.860170423723531 -46.163008060989235 14.494144817415794 #
straight-curve $-1 91.860170423723531 -46.163008060989235 12.477739313396814 0 0 -1 I I #
straight-curve $-1 91.860170423723531 46.163008060989235 12.477739313396814 0 0 -1 I I #
End-of-ACIS-data 