500 0 19 0           
7 Unknown 11 ACIS 5.0 NT 24 Fri Mar 26 20:47:18 1999 
-1 9.9999999999999995e-007 1e-010 
body $-1 $19 $-1 $20 #
body $-1 $21 $-1 $22 #
body $-1 $23 $-1 $24 #
body $-1 $25 $-1 $26 #
body $-1 $27 $-1 $28 #
body $-1 $29 $-1 $30 #
body $-1 $31 $-1 $32 #
body $-1 $33 $-1 $34 #
body $-1 $35 $-1 $36 #
body $-1 $37 $-1 $38 #
body $-1 $39 $-1 $40 #
body $-1 $41 $-1 $42 #
body $-1 $43 $-1 $44 #
body $-1 $45 $-1 $46 #
body $-1 $47 $-1 $48 #
body $-1 $49 $-1 $50 #
body $-1 $51 $-1 $52 #
body $-1 $53 $-1 $54 #
body $-1 $55 $-1 $56 #
lump $-1 $-1 $57 $0 #
transform $-1 1 0 0 0 1 0 0 0 1 56.172368541520427 35.132287642425524 11.750933747473228 1 rotate no_reflect no_shear #
lump $-1 $-1 $58 $1 #
transform $-1 1 0 0 0 1 0 0 0 1 56.172368541520427 35.132287642425524 11.750933747473228 1 rotate no_reflect no_shear #
lump $-1 $-1 $59 $2 #
transform $-1 1 0 0 0 1 0 0 0 1 56.172368541520427 35.132287642425524 11.750933747473228 1 rotate no_reflect no_shear #
lump $-1 $-1 $60 $3 #
transform $-1 1 0 0 0 1 0 0 0 1 56.172368541520427 35.132287642425524 11.750933747473228 1 rotate no_reflect no_shear #
lump $-1 $-1 $61 $4 #
transform $-1 1 0 0 0 1 0 0 0 1 56.172368541520427 35.132287642425524 11.750933747473228 1 rotate no_reflect no_shear #
lump $-1 $-1 $62 $5 #
transform $-1 1 0 0 0 1 0 0 0 1 56.172368541520427 35.132287642425524 11.750933747473228 1 rotate no_reflect no_shear #
lump $-1 $-1 $63 $6 #
transform $-1 1 0 0 0 1 0 0 0 1 56.172368541520427 35.132287642425524 11.750933747473228 1 rotate no_reflect no_shear #
lump $-1 $-1 $64 $7 #
transform $-1 1 0 0 0 1 0 0 0 1 56.172368541520427 35.132287642425524 11.750933747473228 1 rotate no_reflect no_shear #
lump $-1 $-1 $65 $8 #
transform $-1 1 0 0 0 1 0 0 0 1 56.172368541520427 35.132287642425524 11.750933747473228 1 rotate no_reflect no_shear #
lump $-1 $-1 $66 $9 #
transform $-1 1 0 0 0 1 0 0 0 1 56.172368541520427 35.132287642425524 11.750933747473228 1 rotate no_reflect no_shear #
lump $-1 $-1 $67 $10 #
transform $-1 1 0 0 0 1 0 0 0 1 56.172368541520427 35.132287642425524 11.750933747473228 1 rotate no_reflect no_shear #
lump $-1 $-1 $68 $11 #
transform $-1 1 0 0 0 1 0 0 0 1 56.172368541520427 35.132287642425524 11.750933747473228 1 rotate no_reflect no_shear #
lump $-1 $-1 $69 $12 #
transform $-1 1 0 0 0 1 0 0 0 1 56.172368541520427 35.132287642425524 11.750933747473228 1 rotate no_reflect no_shear #
lump $-1 $-1 $70 $13 #
transform $-1 1 0 0 0 1 0 0 0 1 56.172368541520427 35.132287642425524 11.750933747473228 1 rotate no_reflect no_shear #
lump $-1 $-1 $71 $14 #
transform $-1 1 0 0 0 1 0 0 0 1 56.172368541520427 35.132287642425524 11.750933747473228 1 rotate no_reflect no_shear #
lump $-1 $-1 $72 $15 #
transform $-1 1 0 0 0 1 0 0 0 1 56.172368541520427 35.132287642425524 11.750933747473228 1 rotate no_reflect no_shear #
lump $-1 $-1 $73 $16 #
transform $-1 1 0 0 0 1 0 0 0 1 56.172368541520427 35.132287642425524 11.750933747473228 1 rotate no_reflect no_shear #
lump $-1 $-1 $74 $17 #
transform $-1 1 0 0 0 1 0 0 0 1 56.172368541520427 35.132287642425524 11.750933747473228 1 rotate no_reflect no_shear #
lump $-1 $-1 $75 $18 #
transform $-1 1 0 0 0 1 0 0 0 1 56.172368541520427 35.132287642425524 11.750933747473228 1 rotate no_reflect no_shear #
shell $-1 $-1 $-1 $76 $-1 $19 #
shell $-1 $-1 $-1 $77 $-1 $21 #
shell $-1 $-1 $-1 $78 $-1 $23 #
shell $-1 $-1 $-1 $79 $-1 $25 #
shell $-1 $-1 $-1 $80 $-1 $27 #
shell $-1 $-1 $-1 $81 $-1 $29 #
shell $-1 $-1 $-1 $82 $-1 $31 #
shell $-1 $-1 $-1 $83 $-1 $33 #
shell $-1 $-1 $-1 $84 $-1 $35 #
shell $-1 $-1 $-1 $85 $-1 $37 #
shell $-1 $-1 $-1 $86 $-1 $39 #
shell $-1 $-1 $-1 $87 $-1 $41 #
shell $-1 $-1 $-1 $88 $-1 $43 #
shell $-1 $-1 $-1 $89 $-1 $45 #
shell $-1 $-1 $-1 $90 $-1 $47 #
shell $-1 $-1 $-1 $91 $-1 $49 #
shell $-1 $-1 $-1 $92 $-1 $51 #
shell $-1 $-1 $-1 $93 $-1 $53 #
shell $-1 $-1 $-1 $94 $-1 $55 #
face $-1 $95 $96 $57 $-1 $97 forward single #
face $-1 $98 $99 $58 $-1 $100 reversed single #
face $-1 $101 $102 $59 $-1 $103 reversed single #
face $-1 $104 $105 $60 $-1 $106 reversed single #
face $-1 $107 $108 $61 $-1 $109 forward single #
face $-1 $110 $111 $62 $-1 $112 forward single #
face $-1 $113 $114 $63 $-1 $115 forward single #
face $-1 $116 $117 $64 $-1 $118 reversed single #
face $-1 $119 $120 $65 $-1 $121 forward single #
face $-1 $122 $123 $66 $-1 $124 forward single #
face $-1 $125 $126 $67 $-1 $127 reversed single #
face $-1 $128 $129 $68 $-1 $130 forward single #
face $-1 $131 $132 $69 $-1 $133 forward single #
face $-1 $134 $135 $70 $-1 $136 reversed single #
face $-1 $137 $138 $71 $-1 $139 forward single #
face $-1 $140 $141 $72 $-1 $142 forward single #
face $-1 $143 $144 $73 $-1 $145 reversed single #
face $-1 $146 $147 $74 $-1 $148 forward single #
face $-1 $149 $150 $75 $-1 $151 forward single #
face $-1 $152 $153 $57 $-1 $154 reversed single #
loop $-1 $-1 $155 $76 #
plane-surface $-1 0 0 11.750933747473228 0 0 1 1 0 0 forward_v I I I I #
face $-1 $156 $157 $58 $-1 $158 reversed single #
loop $-1 $-1 $159 $77 #
plane-surface $-1 -51.685675768996617 -30.740330824205291 0 0 1 0 0 0 1 forward_v I I I I #
face $-1 $160 $161 $59 $-1 $162 reversed single #
loop $-1 $-1 $163 $78 #
plane-surface $-1 51.685675768996617 -30.740330824205291 0 0 1 0 0 0 1 forward_v I I I I #
face $-1 $164 $165 $60 $-1 $166 reversed single #
loop $-1 $-1 $167 $79 #
plane-surface $-1 17.243009686912472 -117.29602789402499 82.465255320981896 -1 0 0 0 -0.73135370988377701 0.68199835119979291 forward_v I I I I #
face $-1 $168 $169 $61 $-1 $170 forward single #
loop $-1 $171 $172 $80 #
cone-surface $-1 3.2011141846029574 -30.694236631749298 7.2273579319790553 0 0.73135370988377701 -0.68199835119979291 1.5 0 0 1 I I 0 1 1.5 forward I I I I #
face $-1 $173 $174 $62 $-1 $175 forward single #
loop $-1 $176 $177 $81 #
cone-surface $-1 8.4668249979690273 -30.694236631749298 7.2273579319790553 0 0.73135370988377701 -0.68199835119979291 1.5 0 0 1 I I 0 1 1.5 forward I I I I #
face $-1 $178 $179 $63 $-1 $180 forward single #
loop $-1 $181 $182 $82 #
cone-surface $-1 13.732535811335097 -30.694236631749298 7.2273579319790553 0 0.73135370988377701 -0.68199835119979291 1.5 0 0 1 I I 0 1 1.5 forward I I I I #
face $-1 $183 $184 $64 $-1 $185 reversed single #
loop $-1 $-1 $186 $83 #
plane-surface $-1 -41.062053136465963 99.326268451216208 117.7387721843867 1 0 0 0 -0.87461971476443456 -0.48480960649040278 forward_v I I I I #
face $-1 $187 $188 $65 $-1 $189 forward single #
loop $-1 $190 $191 $84 #
cone-surface $-1 -36.837502472589463 30.688276480490309 5.8471634296493669 0 -0.87461971476443456 -0.48480960649040278 1 0 0 1 I I 0 1 1 forward I I I I #
face $-1 $192 $193 $66 $-1 $194 forward single #
loop $-1 $195 $196 $85 #
cone-surface $-1 -30.500676476774721 30.688276480490309 5.8471634296493669 0 -0.87461971476443456 -0.48480960649040278 1 0 0 1 I I 0 1 1 forward I I I I #
face $-1 $197 $198 $67 $-1 $199 reversed single #
loop $-1 $-1 $200 $86 #
plane-surface $-1 -18.615993486677894 99.326268451216208 117.7387721843867 1 0 0 0 -0.87461971476443456 -0.48480960649040278 forward_v I I I I #
face $-1 $201 $202 $68 $-1 $203 forward single #
loop $-1 $204 $205 $87 #
cone-surface $-1 -14.391442822801402 30.688276480490309 5.8471634296493669 0 -0.87461971476443456 -0.48480960649040278 1 0 0 1 I I 0 1 1 forward I I I I #
face $-1 $206 $207 $69 $-1 $208 forward single #
loop $-1 $209 $210 $88 #
cone-surface $-1 -8.0546168269866598 30.688276480490309 5.8471634296493669 0 -0.87461971476443456 -0.48480960649040278 1 0 0 1 I I 0 1 1 forward I I I I #
face $-1 $211 $212 $70 $-1 $213 reversed single #
loop $-1 $-1 $214 $89 #
plane-surface $-1 3.8300661631101747 99.326268451216208 117.7387721843867 1 0 0 0 -0.87461971476443456 -0.48480960649040278 forward_v I I I I #
face $-1 $215 $216 $71 $-1 $217 forward single #
loop $-1 $218 $219 $90 #
cone-surface $-1 8.0546168269866598 30.688276480490309 5.8471634296493669 0 -0.87461971476443456 -0.48480960649040278 1 0 0 1 I I 0 1 1 forward I I I I #
face $-1 $220 $221 $72 $-1 $222 forward single #
loop $-1 $223 $224 $91 #
cone-surface $-1 14.391442822801395 30.688276480490309 5.8471634296493669 0 -0.87461971476443456 -0.48480960649040278 1 0 0 1 I I 0 1 1 forward I I I I #
face $-1 $225 $226 $73 $-1 $227 reversed single #
loop $-1 $-1 $228 $92 #
plane-surface $-1 26.276125812898229 99.326268451216208 117.7387721843867 1 0 0 0 -0.87461971476443456 -0.48480960649040278 forward_v I I I I #
face $-1 $229 $230 $74 $-1 $231 forward single #
loop $-1 $232 $233 $93 #
cone-surface $-1 30.500676476774714 30.688276480490309 5.8471634296493669 0 -0.87461971476443456 -0.48480960649040278 1 0 0 1 I I 0 1 1 forward I I I I #
face $-1 $234 $235 $75 $-1 $236 forward single #
loop $-1 $237 $238 $94 #
cone-surface $-1 36.837502472589449 30.688276480490309 5.8471634296493669 0 -0.87461971476443456 -0.48480960649040278 1 0 0 1 I I 0 1 1 forward I I I I #
face $-1 $239 $240 $57 $-1 $241 reversed single #
loop $-1 $-1 $242 $95 #
plane-surface $-1 0 0 -11.750933747473228 0 0 1 1 0 0 forward_v I I I I #
coedge $-1 $243 $244 $245 $246 forward $96 $-1 #
face $-1 $247 $248 $58 $-1 $249 reversed single #
loop $-1 $-1 $250 $98 #
plane-surface $-1 -51.685675768996617 -24.631652725273153 0 0 -1 0 0 0 -1 forward_v I I I I #
coedge $-1 $251 $252 $253 $254 reversed $99 $-1 #
face $-1 $255 $256 $59 $-1 $257 reversed single #
loop $-1 $-1 $258 $101 #
plane-surface $-1 47.198982996472807 -27.685991774739222 0 1 0 0 0 0 -1 forward_v I I I I #
coedge $-1 $259 $260 $261 $262 forward $102 $-1 #
face $-1 $263 $264 $60 $-1 $265 reversed single #
loop $-1 $-1 $266 $104 #
plane-surface $-1 8.4668249979690273 -35.132287642425524 5.8463298643738 0 -0.73135370988377701 0.68199835119979291 1 0 0 forward_v I I I I #
coedge $-1 $267 $268 $269 $270 reversed $105 $-1 #
face $-1 $-1 $271 $61 $-1 $272 forward single #
loop $-1 $273 $274 $107 #
cone-surface $-1 3.2011141846029574 -28.460736371101397 5.1445852946347497 0 0.73135370988377701 -0.68199835119979291 0.75 0 0 1 I I -0.70710678118654757 0.70710678118654757 0.75 forward I I I I #
loop $-1 $-1 $275 $80 #
coedge $-1 $172 $172 $276 $277 reversed $108 $-1 #
face $-1 $-1 $278 $62 $-1 $279 forward single #
loop $-1 $280 $281 $110 #
cone-surface $-1 8.4668249979690273 -28.460736371101397 5.1445852946347497 0 0.73135370988377701 -0.68199835119979291 0.75 0 0 1 I I -0.70710678118654757 0.70710678118654757 0.75 forward I I I I #
loop $-1 $-1 $282 $81 #
coedge $-1 $177 $177 $283 $284 reversed $111 $-1 #
face $-1 $-1 $285 $63 $-1 $286 forward single #
loop $-1 $287 $288 $113 #
cone-surface $-1 13.732535811335097 -28.460736371101397 5.1445852946347497 0 0.73135370988377701 -0.68199835119979291 0.75 0 0 1 I I -0.70710678118654757 0.70710678118654757 0.75 forward I I I I #
loop $-1 $-1 $289 $82 #
coedge $-1 $182 $182 $290 $291 reversed $114 $-1 #
face $-1 $292 $293 $64 $-1 $294 reversed single #
loop $-1 $-1 $295 $116 #
plane-surface $-1 -33.669089474682096 1.0673465483616269 63.272964407889909 0 0.87461971476443456 0.48480960649040278 1 0 0 forward_v I I I I #
coedge $-1 $296 $297 $298 $299 reversed $117 $-1 #
face $-1 $-1 $300 $65 $-1 $301 forward single #
loop $-1 $302 $303 $119 #
cone-surface $-1 -36.837502472589463 28.559862565714511 4.6673643752122356 0 -0.87461971476443456 -0.48480960649040278 0.5 0 0 1 I I -0.70710678118654746 0.70710678118654746 0.5 forward I I I I #
loop $-1 $-1 $304 $84 #
coedge $-1 $191 $191 $305 $306 reversed $120 $-1 #
face $-1 $-1 $307 $66 $-1 $308 forward single #
loop $-1 $309 $310 $122 #
cone-surface $-1 -30.500676476774721 28.559862565714511 4.6673643752122356 0 -0.87461971476443456 -0.48480960649040278 0.5 0 0 1 I I -0.70710678118654746 0.70710678118654746 0.5 forward I I I I #
loop $-1 $-1 $311 $85 #
coedge $-1 $196 $196 $312 $313 reversed $123 $-1 #
face $-1 $314 $315 $67 $-1 $316 reversed single #
loop $-1 $-1 $317 $125 #
plane-surface $-1 -11.223029824894027 1.0673465483616269 63.272964407889909 0 0.87461971476443456 0.48480960649040278 1 0 0 forward_v I I I I #
coedge $-1 $318 $319 $320 $321 reversed $126 $-1 #
face $-1 $-1 $322 $68 $-1 $323 forward single #
loop $-1 $324 $325 $128 #
cone-surface $-1 -14.391442822801402 28.559862565714511 4.6673643752122356 0 -0.87461971476443456 -0.48480960649040278 0.5 0 0 1 I I -0.70710678118654746 0.70710678118654746 0.5 forward I I I I #
loop $-1 $-1 $326 $87 #
coedge $-1 $205 $205 $327 $328 reversed $129 $-1 #
face $-1 $-1 $329 $69 $-1 $330 forward single #
loop $-1 $331 $332 $131 #
cone-surface $-1 -8.0546168269866598 28.559862565714511 4.6673643752122356 0 -0.87461971476443456 -0.48480960649040278 0.5 0 0 1 I I -0.70710678118654746 0.70710678118654746 0.5 forward I I I I #
loop $-1 $-1 $333 $88 #
coedge $-1 $210 $210 $334 $335 reversed $132 $-1 #
face $-1 $336 $337 $70 $-1 $338 reversed single #
loop $-1 $-1 $339 $134 #
plane-surface $-1 11.223029824894041 1.0673465483616269 63.272964407889909 0 0.87461971476443456 0.48480960649040278 1 0 0 forward_v I I I I #
coedge $-1 $340 $341 $342 $343 reversed $135 $-1 #
face $-1 $-1 $344 $71 $-1 $345 forward single #
loop $-1 $346 $347 $137 #
cone-surface $-1 8.0546168269866598 28.559862565714511 4.6673643752122356 0 -0.87461971476443456 -0.48480960649040278 0.5 0 0 1 I I -0.70710678118654746 0.70710678118654746 0.5 forward I I I I #
loop $-1 $-1 $348 $90 #
coedge $-1 $219 $219 $349 $350 reversed $138 $-1 #
face $-1 $-1 $351 $72 $-1 $352 forward single #
loop $-1 $353 $354 $140 #
cone-surface $-1 14.391442822801395 28.559862565714511 4.6673643752122356 0 -0.87461971476443456 -0.48480960649040278 0.5 0 0 1 I I -0.70710678118654746 0.70710678118654746 0.5 forward I I I I #
loop $-1 $-1 $355 $91 #
coedge $-1 $224 $224 $356 $357 reversed $141 $-1 #
face $-1 $358 $359 $73 $-1 $360 reversed single #
loop $-1 $-1 $361 $143 #
plane-surface $-1 33.669089474682096 1.0673465483616269 63.272964407889909 0 0.87461971476443456 0.48480960649040278 1 0 0 forward_v I I I I #
coedge $-1 $362 $363 $364 $365 reversed $144 $-1 #
face $-1 $-1 $366 $74 $-1 $367 forward single #
loop $-1 $368 $369 $146 #
cone-surface $-1 30.500676476774714 28.559862565714511 4.6673643752122356 0 -0.87461971476443456 -0.48480960649040278 0.5 0 0 1 I I -0.70710678118654746 0.70710678118654746 0.5 forward I I I I #
loop $-1 $-1 $370 $93 #
coedge $-1 $233 $233 $371 $372 reversed $147 $-1 #
face $-1 $-1 $373 $75 $-1 $374 forward single #
loop $-1 $375 $376 $149 #
cone-surface $-1 36.837502472589449 28.559862565714511 4.6673643752122356 0 -0.87461971476443456 -0.48480960649040278 0.5 0 0 1 I I -0.70710678118654746 0.70710678118654746 0.5 forward I I I I #
loop $-1 $-1 $377 $94 #
coedge $-1 $238 $238 $378 $379 reversed $150 $-1 #
face $-1 $380 $381 $57 $-1 $382 reversed single #
loop $-1 $-1 $383 $152 #
plane-surface $-1 0 -35.132287642425524 0 0 1 0 0 0 1 forward_v I I I I #
coedge $-1 $384 $385 $386 $387 forward $153 $-1 #
coedge $-1 $388 $155 $389 $390 forward $96 $-1 #
coedge $-1 $155 $388 $391 $392 forward $96 $-1 #
coedge $-1 $393 $394 $155 $246 reversed $395 $-1 #
edge $-1 $396 -35.132287642425524 $397 35.132287642425524 $245 $398 forward 7 unknown #
face $-1 $399 $400 $58 $-1 $401 reversed single #
loop $-1 $-1 $402 $156 #
plane-surface $-1 -47.198982996472807 -27.685991774739222 0 -1 0 0 0 0 1 forward_v I I I I #
coedge $-1 $403 $404 $405 $406 forward $157 $-1 #
coedge $-1 $407 $159 $408 $409 reversed $99 $-1 #
coedge $-1 $159 $407 $410 $411 reversed $99 $-1 #
coedge $-1 $412 $413 $159 $254 forward $414 $-1 #
edge $-1 $415 -11.750933747473228 $416 11.750933747473228 $253 $417 forward 7 unknown #
face $-1 $418 $419 $59 $-1 $420 reversed single #
loop $-1 $-1 $421 $160 #
plane-surface $-1 51.685675768996617 -24.631652725273153 0 0 -1 0 0 0 -1 forward_v I I I I #
coedge $-1 $422 $423 $424 $425 forward $161 $-1 #
coedge $-1 $426 $163 $427 $428 reversed $102 $-1 #
coedge $-1 $163 $426 $429 $430 reversed $102 $-1 #
coedge $-1 $423 $422 $163 $262 reversed $161 $-1 #
edge $-1 $431 -11.750933747473228 $432 11.750933747473228 $261 $433 forward 7 unknown #
face $-1 $434 $435 $60 $-1 $436 forward single #
loop $-1 $-1 $437 $164 #
plane-surface $-1 -0.30935969097441784 -117.29602789402499 82.465255320981896 1 0 0 0 0.73135370988377701 -0.68199835119979291 forward_v I I I I #
coedge $-1 $438 $439 $440 $441 reversed $165 $-1 #
coedge $-1 $268 $167 $442 $443 reversed $105 $-1 #
coedge $-1 $167 $267 $438 $444 reversed $105 $-1 #
coedge $-1 $440 $445 $167 $270 forward $435 $-1 #
edge $-1 $446 23.51572630458697 $447 29.021858369469285 $269 $448 forward 7 unknown #
loop $-1 $-1 $276 $168 #
plane-surface $-1 8.4668249979690273 -35.132287642425524 5.8463298643738 0 -0.73135370988377701 0.68199835119979291 1 0 0 forward_v I I I I #
loop $-1 $-1 $449 $107 #
coedge $-1 $274 $274 $275 $450 reversed $169 $-1 #
coedge $-1 $275 $275 $274 $450 forward $171 $-1 #
coedge $-1 $276 $276 $172 $277 forward $271 $-1 #
edge $-1 $451 -2.3644963852539938e-015 $451 6.2831853071795978 $276 $452 forward 7 unknown #
loop $-1 $-1 $283 $173 #
plane-surface $-1 8.4668249979690273 -35.132287642425524 5.8463298643738 0 -0.73135370988377701 0.68199835119979291 1 0 0 forward_v I I I I #
loop $-1 $-1 $453 $110 #
coedge $-1 $281 $281 $282 $454 reversed $174 $-1 #
coedge $-1 $282 $282 $281 $454 forward $176 $-1 #
coedge $-1 $283 $283 $177 $284 forward $278 $-1 #
edge $-1 $455 -2.3644963852539938e-015 $455 6.2831853071795978 $283 $456 forward 7 unknown #
loop $-1 $-1 $290 $178 #
plane-surface $-1 8.4668249979690273 -35.132287642425524 5.8463298643738 0 -0.73135370988377701 0.68199835119979291 1 0 0 forward_v I I I I #
loop $-1 $-1 $457 $113 #
coedge $-1 $288 $288 $289 $458 reversed $179 $-1 #
coedge $-1 $289 $289 $288 $458 forward $181 $-1 #
coedge $-1 $290 $290 $182 $291 forward $285 $-1 #
edge $-1 $459 -2.3644963852539938e-015 $459 6.2831853071795978 $290 $460 forward 7 unknown #
face $-1 $461 $462 $64 $-1 $463 reversed single #
loop $-1 $-1 $464 $183 #
plane-surface $-1 -26.276125812898229 99.326268451216208 117.7387721843867 -1 0 0 0 0.87461971476443456 0.48480960649040278 forward_v I I I I #
coedge $-1 $465 $466 $467 $468 reversed $184 $-1 #
coedge $-1 $297 $186 $469 $470 reversed $117 $-1 #
coedge $-1 $186 $296 $465 $471 reversed $117 $-1 #
coedge $-1 $467 $472 $186 $299 forward $473 $-1 #
edge $-1 $474 14.53084658318258 $475 20.036660792265817 $298 $476 forward 7 unknown #
loop $-1 $-1 $305 $187 #
plane-surface $-1 -33.669089474682096 1.0673465483616269 63.272964407889909 0 0.87461971476443456 0.48480960649040278 1 0 0 forward_v I I I I #
loop $-1 $-1 $477 $119 #
coedge $-1 $303 $303 $304 $478 reversed $188 $-1 #
coedge $-1 $304 $304 $303 $478 forward $190 $-1 #
coedge $-1 $305 $305 $191 $306 forward $300 $-1 #
edge $-1 $479 -1.0125180503774558e-015 $479 6.2831853071795996 $305 $480 forward 7 unknown #
loop $-1 $-1 $312 $192 #
plane-surface $-1 -33.669089474682096 1.0673465483616269 63.272964407889909 0 0.87461971476443456 0.48480960649040278 1 0 0 forward_v I I I I #
loop $-1 $-1 $481 $122 #
coedge $-1 $310 $310 $311 $482 reversed $193 $-1 #
coedge $-1 $311 $311 $310 $482 forward $195 $-1 #
coedge $-1 $312 $312 $196 $313 forward $307 $-1 #
edge $-1 $483 -1.0125180503774558e-015 $483 6.2831853071795996 $312 $484 forward 7 unknown #
face $-1 $485 $486 $67 $-1 $487 forward single #
loop $-1 $-1 $488 $197 #
plane-surface $-1 -3.8300661631101605 99.326268451216208 117.7387721843867 -1 0 0 0 0.87461971476443456 0.48480960649040278 forward_v I I I I #
coedge $-1 $489 $490 $491 $492 reversed $198 $-1 #
coedge $-1 $319 $200 $493 $494 reversed $126 $-1 #
coedge $-1 $200 $318 $489 $495 reversed $126 $-1 #
coedge $-1 $491 $496 $200 $321 forward $486 $-1 #
edge $-1 $497 14.53084658318258 $498 20.036660792265817 $320 $499 forward 7 unknown #
loop $-1 $-1 $327 $201 #
plane-surface $-1 -11.223029824894027 1.0673465483616269 63.272964407889909 0 0.87461971476443456 0.48480960649040278 1 0 0 forward_v I I I I #
loop $-1 $-1 $500 $128 #
coedge $-1 $325 $325 $326 $501 reversed $202 $-1 #
coedge $-1 $326 $326 $325 $501 forward $204 $-1 #
coedge $-1 $327 $327 $205 $328 forward $322 $-1 #
edge $-1 $502 -1.0125180503774558e-015 $502 6.2831853071795996 $327 $503 forward 7 unknown #
loop $-1 $-1 $334 $206 #
plane-surface $-1 -11.223029824894027 1.0673465483616269 63.272964407889909 0 0.87461971476443456 0.48480960649040278 1 0 0 forward_v I I I I #
loop $-1 $-1 $504 $131 #
coedge $-1 $332 $332 $333 $505 reversed $207 $-1 #
coedge $-1 $333 $333 $332 $505 forward $209 $-1 #
coedge $-1 $334 $334 $210 $335 forward $329 $-1 #
edge $-1 $506 -1.0125180503774558e-015 $506 6.2831853071795996 $334 $507 forward 7 unknown #
face $-1 $508 $509 $70 $-1 $510 forward single #
loop $-1 $-1 $511 $211 #
plane-surface $-1 18.615993486677908 99.326268451216208 117.7387721843867 -1 0 0 0 0.87461971476443456 0.48480960649040278 forward_v I I I I #
coedge $-1 $512 $513 $514 $515 reversed $212 $-1 #
coedge $-1 $341 $214 $516 $517 reversed $135 $-1 #
coedge $-1 $214 $340 $512 $518 reversed $135 $-1 #
coedge $-1 $514 $519 $214 $343 forward $509 $-1 #
edge $-1 $520 14.53084658318258 $521 20.036660792265817 $342 $522 forward 7 unknown #
loop $-1 $-1 $349 $215 #
plane-surface $-1 11.223029824894041 1.0673465483616269 63.272964407889909 0 0.87461971476443456 0.48480960649040278 1 0 0 forward_v I I I I #
loop $-1 $-1 $523 $137 #
coedge $-1 $347 $347 $348 $524 reversed $216 $-1 #
coedge $-1 $348 $348 $347 $524 forward $218 $-1 #
coedge $-1 $349 $349 $219 $350 forward $344 $-1 #
edge $-1 $525 -1.0125180503774558e-015 $525 6.2831853071795996 $349 $526 forward 7 unknown #
loop $-1 $-1 $356 $220 #
plane-surface $-1 11.223029824894041 1.0673465483616269 63.272964407889909 0 0.87461971476443456 0.48480960649040278 1 0 0 forward_v I I I I #
loop $-1 $-1 $527 $140 #
coedge $-1 $354 $354 $355 $528 reversed $221 $-1 #
coedge $-1 $355 $355 $354 $528 forward $223 $-1 #
coedge $-1 $356 $356 $224 $357 forward $351 $-1 #
edge $-1 $529 -1.0125180503774558e-015 $529 6.2831853071795996 $356 $530 forward 7 unknown #
face $-1 $531 $532 $73 $-1 $533 forward single #
loop $-1 $-1 $534 $225 #
plane-surface $-1 41.062053136465963 99.326268451216208 117.7387721843867 -1 0 0 0 0.87461971476443456 0.48480960649040278 forward_v I I I I #
coedge $-1 $535 $536 $537 $538 reversed $226 $-1 #
coedge $-1 $363 $228 $539 $540 reversed $144 $-1 #
coedge $-1 $228 $362 $535 $541 reversed $144 $-1 #
coedge $-1 $537 $542 $228 $365 forward $532 $-1 #
edge $-1 $543 14.53084658318258 $544 20.036660792265817 $364 $545 forward 7 unknown #
loop $-1 $-1 $371 $229 #
plane-surface $-1 33.669089474682096 1.0673465483616269 63.272964407889909 0 0.87461971476443456 0.48480960649040278 1 0 0 forward_v I I I I #
loop $-1 $-1 $546 $146 #
coedge $-1 $369 $369 $370 $547 reversed $230 $-1 #
coedge $-1 $370 $370 $369 $547 forward $232 $-1 #
coedge $-1 $371 $371 $233 $372 forward $366 $-1 #
edge $-1 $548 -1.0125180503774558e-015 $548 6.2831853071795996 $371 $549 forward 7 unknown #
loop $-1 $-1 $378 $234 #
plane-surface $-1 33.669089474682096 1.0673465483616269 63.272964407889909 0 0.87461971476443456 0.48480960649040278 1 0 0 forward_v I I I I #
loop $-1 $-1 $550 $149 #
coedge $-1 $376 $376 $377 $551 reversed $235 $-1 #
coedge $-1 $377 $377 $376 $551 forward $237 $-1 #
coedge $-1 $378 $378 $238 $379 forward $373 $-1 #
edge $-1 $552 -1.0125180503774558e-015 $552 6.2831853071795996 $378 $553 forward 7 unknown #
face $-1 $554 $555 $57 $-1 $556 reversed single #
loop $-1 $-1 $557 $239 #
plane-surface $-1 -56.172368541520427 0 0 1 0 0 0 0 -1 forward_v I I I I #
coedge $-1 $558 $391 $559 $560 forward $240 $-1 #
coedge $-1 $561 $242 $558 $562 forward $153 $-1 #
coedge $-1 $242 $561 $563 $564 forward $153 $-1 #
coedge $-1 $394 $393 $242 $387 reversed $395 $-1 #
edge $-1 $565 -35.132287642425524 $566 35.132287642425524 $386 $567 forward 7 unknown #
coedge $-1 $244 $243 $568 $569 forward $96 $-1 #
coedge $-1 $570 $571 $243 $390 reversed $555 $-1 #
edge $-1 $397 -56.172368541520427 $572 56.172368541520427 $389 $573 forward 7 unknown #
coedge $-1 $383 $574 $244 $392 reversed $240 $-1 #
edge $-1 $575 -56.172368541520427 $396 56.172368541520427 $391 $576 forward 7 unknown #
coedge $-1 $386 $245 $574 $577 forward $395 $-1 #
coedge $-1 $245 $386 $570 $578 reversed $395 $-1 #
loop $-1 $-1 $393 $554 #
vertex $-1 $246 $579 #
vertex $-1 $246 $580 #
straight-curve $-1 56.172368541520427 0 11.750933747473228 0 1 0 I I #
face $-1 $581 $582 $58 $-1 $583 forward single #
loop $-1 $-1 $584 $247 #
plane-surface $-1 0 0 -11.750933747473228 0 0 1 1 0 0 forward_v I I I I #
coedge $-1 $585 $586 $407 $587 forward $248 $-1 #
coedge $-1 $588 $250 $584 $589 reversed $157 $-1 #
coedge $-1 $250 $588 $590 $591 reversed $157 $-1 #
coedge $-1 $586 $585 $250 $406 reversed $248 $-1 #
edge $-1 $592 -11.750933747473228 $593 11.750933747473228 $405 $594 forward 7 unknown #
coedge $-1 $252 $251 $402 $587 reversed $99 $-1 #
coedge $-1 $595 $596 $251 $409 forward $400 $-1 #
edge $-1 $597 21.356145111974499 $415 30.329530657022119 $408 $598 forward 7 unknown #
coedge $-1 $599 $600 $252 $411 forward $582 $-1 #
edge $-1 $416 -30.329530657022119 $601 -21.356145111974499 $410 $602 forward 7 unknown #
coedge $-1 $603 $253 $600 $604 reversed $414 $-1 #
coedge $-1 $253 $603 $595 $605 reversed $414 $-1 #
loop $-1 $-1 $603 $581 #
vertex $-1 $605 $606 #
vertex $-1 $254 $607 #
straight-curve $-1 -56.172368541520427 -30.740330824205291 0 0 0 1 I I #
face $-1 $608 $609 $59 $-1 $610 forward single #
loop $-1 $-1 $427 $255 #
plane-surface $-1 0 0 -11.750933747473228 0 0 1 1 0 0 forward_v I I I I #
coedge $-1 $611 $612 $613 $614 reversed $256 $-1 #
coedge $-1 $261 $258 $615 $616 reversed $161 $-1 #
coedge $-1 $258 $261 $617 $618 reversed $161 $-1 #
coedge $-1 $612 $611 $258 $425 reversed $256 $-1 #
edge $-1 $619 -11.750933747473228 $620 11.750933747473228 $424 $621 forward 7 unknown #
coedge $-1 $260 $259 $622 $623 reversed $102 $-1 #
coedge $-1 $615 $624 $259 $428 forward $419 $-1 #
edge $-1 $625 -30.329530657022119 $432 -21.356145111974499 $427 $626 forward 7 unknown #
coedge $-1 $627 $617 $260 $430 forward $609 $-1 #
edge $-1 $431 21.356145111974499 $628 30.329530657022119 $429 $629 forward 7 unknown #
vertex $-1 $430 $630 #
vertex $-1 $428 $631 #
straight-curve $-1 47.198982996472807 -30.740330824205291 0 0 0 -1 I I #
face $-1 $-1 $632 $60 $-1 $633 reversed single #
loop $-1 $-1 $269 $263 #
plane-surface $-1 0 0 11.750933747473228 0 0 1 1 0 0 forward_v I I I I #
coedge $-1 $634 $635 $636 $637 reversed $264 $-1 #
coedge $-1 $638 $266 $268 $444 forward $165 $-1 #
coedge $-1 $266 $638 $634 $639 forward $165 $-1 #
coedge $-1 $636 $269 $266 $441 forward $435 $-1 #
edge $-1 $447 -13.009597187927959 $640 4.5427721899589315 $440 $641 forward 7 unknown #
coedge $-1 $642 $643 $267 $443 forward $632 $-1 #
edge $-1 $644 -35.386297796117148 $446 -29.481693913017722 $442 $645 forward 7 unknown #
edge $-1 $447 -8.0735269450369724 $644 0 $268 $646 forward 7 unknown #
coedge $-1 $269 $636 $642 $647 forward $435 $-1 #
vertex $-1 $270 $648 #
vertex $-1 $270 $649 #
straight-curve $-1 17.243009686912472 -58.648013947012494 11.750933747473226 0 1 0 I I #
coedge $-1 $449 $449 $-1 $650 reversed $273 $-1 #
edge $-1 $651 0 $651 6.2831853071796004 $274 $652 forward 7 unknown #
vertex $-1 $277 $653 #
ellipse-curve $-1 3.2011141846029574 -32.379221609984363 8.7986318059235149 0 -0.73135370988377701 0.68199835119979291 1.5 0 0 1 I I #
coedge $-1 $453 $453 $-1 $654 reversed $280 $-1 #
edge $-1 $655 0 $655 6.2831853071796004 $281 $656 forward 7 unknown #
vertex $-1 $284 $657 #
ellipse-curve $-1 8.4668249979690273 -32.379221609984363 8.7986318059235149 0 -0.73135370988377701 0.68199835119979291 1.5 0 0 1 I I #
coedge $-1 $457 $457 $-1 $658 reversed $287 $-1 #
edge $-1 $659 0 $659 6.2831853071796004 $288 $660 forward 7 unknown #
vertex $-1 $291 $661 #
ellipse-curve $-1 13.732535811335097 -32.379221609984363 8.7986318059235149 0 -0.73135370988377701 0.68199835119979291 1.5 0 0 1 I I #
face $-1 $-1 $473 $64 $-1 $662 forward single #
loop $-1 $-1 $663 $292 #
plane-surface $-1 0 35.132287642425524 0 0 -1 0 0 0 -1 forward_v I I I I #
coedge $-1 $664 $665 $666 $667 reversed $293 $-1 #
coedge $-1 $668 $295 $297 $471 forward $184 $-1 #
coedge $-1 $295 $668 $664 $669 forward $184 $-1 #
coedge $-1 $666 $298 $295 $468 forward $473 $-1 #
edge $-1 $475 -24.227508399124915 $670 -9.4415810755571812 $467 $671 forward 7 unknown #
coedge $-1 $672 $673 $296 $470 forward $462 $-1 #
edge $-1 $674 -57.051204477983966 $474 -47.118452344720126 $469 $675 forward 7 unknown #
edge $-1 $475 58.907922827115044 $674 70.264575284851006 $297 $676 forward 7 unknown #
coedge $-1 $298 $666 $672 $677 forward $473 $-1 #
loop $-1 $-1 $666 $461 #
vertex $-1 $470 $678 #
vertex $-1 $299 $679 #
straight-curve $-1 -41.062053136465963 49.663134225608104 11.750933747473226 0 -1 0 I I #
coedge $-1 $477 $477 $-1 $680 reversed $302 $-1 #
edge $-1 $681 0 $681 6.2831853071796004 $303 $682 forward 7 unknown #
vertex $-1 $306 $683 #
ellipse-curve $-1 -36.837502472589463 32.379380537883911 6.7845576808413064 0 0.87461971476443456 0.48480960649040278 1 0 0 1 I I #
coedge $-1 $481 $481 $-1 $684 reversed $309 $-1 #
edge $-1 $685 0 $685 6.2831853071796004 $310 $686 forward 7 unknown #
vertex $-1 $313 $687 #
ellipse-curve $-1 -30.500676476774721 32.379380537883911 6.7845576808413064 0 0.87461971476443456 0.48480960649040278 1 0 0 1 I I #
face $-1 $-1 $688 $67 $-1 $689 reversed single #
loop $-1 $-1 $320 $314 #
plane-surface $-1 0 0 11.750933747473228 0 0 1 1 0 0 forward_v I I I I #
coedge $-1 $690 $691 $692 $693 reversed $315 $-1 #
coedge $-1 $694 $317 $319 $495 forward $198 $-1 #
coedge $-1 $317 $694 $690 $695 forward $198 $-1 #
coedge $-1 $692 $320 $317 $492 forward $486 $-1 #
edge $-1 $498 -13.00447857423088 $696 1.7814487493368532 $491 $697 forward 7 unknown #
coedge $-1 $698 $699 $318 $494 forward $688 $-1 #
edge $-1 $700 -57.051204477983966 $497 -47.118452344720126 $493 $701 forward 7 unknown #
edge $-1 $498 58.907922827115044 $700 70.264575284851006 $319 $702 forward 7 unknown #
coedge $-1 $320 $692 $698 $703 forward $486 $-1 #
vertex $-1 $494 $704 #
vertex $-1 $321 $705 #
straight-curve $-1 -18.615993486677894 49.663134225608104 11.750933747473226 0 -1 0 I I #
coedge $-1 $500 $500 $-1 $706 reversed $324 $-1 #
edge $-1 $707 0 $707 6.2831853071796004 $325 $708 forward 7 unknown #
vertex $-1 $328 $709 #
ellipse-curve $-1 -14.391442822801402 32.379380537883911 6.7845576808413064 0 0.87461971476443456 0.48480960649040278 1 0 0 1 I I #
coedge $-1 $504 $504 $-1 $710 reversed $331 $-1 #
edge $-1 $711 0 $711 6.2831853071796004 $332 $712 forward 7 unknown #
vertex $-1 $335 $713 #
ellipse-curve $-1 -8.0546168269866598 32.379380537883911 6.7845576808413064 0 0.87461971476443456 0.48480960649040278 1 0 0 1 I I #
face $-1 $-1 $714 $70 $-1 $715 reversed single #
loop $-1 $-1 $342 $336 #
plane-surface $-1 0 0 11.750933747473228 0 0 1 1 0 0 forward_v I I I I #
coedge $-1 $716 $717 $718 $719 reversed $337 $-1 #
coedge $-1 $720 $339 $341 $518 forward $212 $-1 #
coedge $-1 $339 $720 $716 $721 forward $212 $-1 #
coedge $-1 $718 $342 $339 $515 forward $509 $-1 #
edge $-1 $521 -1.781448749336846 $722 13.004478574230887 $514 $723 forward 7 unknown #
coedge $-1 $724 $725 $340 $517 forward $714 $-1 #
edge $-1 $726 -57.051204477983966 $520 -47.118452344720126 $516 $727 forward 7 unknown #
edge $-1 $521 58.907922827115044 $726 70.264575284851006 $341 $728 forward 7 unknown #
coedge $-1 $342 $718 $724 $729 forward $509 $-1 #
vertex $-1 $343 $730 #
vertex $-1 $343 $731 #
straight-curve $-1 3.8300661631101747 49.663134225608104 11.750933747473226 0 -1 0 I I #
coedge $-1 $523 $523 $-1 $732 reversed $346 $-1 #
edge $-1 $733 0 $733 6.2831853071796004 $347 $734 forward 7 unknown #
vertex $-1 $350 $735 #
ellipse-curve $-1 8.0546168269866598 32.379380537883911 6.7845576808413064 0 0.87461971476443456 0.48480960649040278 1 0 0 1 I I #
coedge $-1 $527 $527 $-1 $736 reversed $353 $-1 #
edge $-1 $737 0 $737 6.2831853071796004 $354 $738 forward 7 unknown #
vertex $-1 $357 $739 #
ellipse-curve $-1 14.391442822801395 32.379380537883911 6.7845576808413064 0 0.87461971476443456 0.48480960649040278 1 0 0 1 I I #
face $-1 $-1 $740 $73 $-1 $741 reversed single #
loop $-1 $-1 $364 $358 #
plane-surface $-1 0 0 11.750933747473228 0 0 1 1 0 0 forward_v I I I I #
coedge $-1 $742 $743 $744 $745 reversed $359 $-1 #
coedge $-1 $746 $361 $363 $541 forward $226 $-1 #
coedge $-1 $361 $746 $742 $747 forward $226 $-1 #
coedge $-1 $744 $364 $361 $538 forward $532 $-1 #
edge $-1 $544 9.4415810755571812 $748 24.227508399124915 $537 $749 forward 7 unknown #
coedge $-1 $750 $751 $362 $540 forward $740 $-1 #
edge $-1 $752 -57.051204477983966 $543 -47.118452344720126 $539 $753 forward 7 unknown #
edge $-1 $544 58.907922827115044 $752 70.264575284851006 $363 $754 forward 7 unknown #
coedge $-1 $364 $744 $750 $755 forward $532 $-1 #
vertex $-1 $365 $756 #
vertex $-1 $365 $757 #
straight-curve $-1 26.276125812898229 49.663134225608104 11.750933747473226 0 -1 0 I I #
coedge $-1 $546 $546 $-1 $758 reversed $368 $-1 #
edge $-1 $759 0 $759 6.2831853071796004 $369 $760 forward 7 unknown #
vertex $-1 $372 $761 #
ellipse-curve $-1 30.500676476774714 32.379380537883911 6.7845576808413064 0 0.87461971476443456 0.48480960649040278 1 0 0 1 I I #
coedge $-1 $550 $550 $-1 $762 reversed $375 $-1 #
edge $-1 $763 0 $763 6.2831853071796004 $376 $764 forward 7 unknown #
vertex $-1 $379 $765 #
ellipse-curve $-1 36.837502472589449 32.379380537883911 6.7845576808413064 0 0.87461971476443456 0.48480960649040278 1 0 0 1 I I #
face $-1 $-1 $395 $57 $-1 $766 reversed single #
loop $-1 $-1 $570 $380 #
plane-surface $-1 0 35.132287642425524 0 0 -1 0 0 0 -1 forward_v I I I I #
coedge $-1 $767 $568 $571 $768 forward $381 $-1 #
coedge $-1 $574 $383 $384 $562 reversed $240 $-1 #
coedge $-1 $568 $767 $383 $560 reversed $381 $-1 #
edge $-1 $575 -11.750933747473228 $769 11.750933747473228 $559 $770 forward 7 unknown #
coedge $-1 $385 $384 $767 $771 forward $153 $-1 #
edge $-1 $566 -56.172368541520427 $769 56.172368541520427 $558 $772 forward 7 unknown #
coedge $-1 $571 $570 $385 $564 reversed $555 $-1 #
edge $-1 $773 -56.172368541520427 $565 56.172368541520427 $563 $774 forward 7 unknown #
vertex $-1 $387 $775 #
vertex $-1 $577 $776 #
straight-curve $-1 56.172368541520427 0 -11.750933747473228 0 -1 0 I I #
coedge $-1 $557 $559 $388 $569 reversed $381 $-1 #
edge $-1 $572 -35.132287642425524 $575 35.132287642425524 $568 $777 forward 7 unknown #
coedge $-1 $563 $389 $394 $578 forward $555 $-1 #
coedge $-1 $389 $563 $557 $768 reversed $555 $-1 #
vertex $-1 $390 $778 #
straight-curve $-1 0 35.132287642425524 11.750933747473228 -1 0 0 I I #
coedge $-1 $391 $558 $393 $577 reversed $240 $-1 #
vertex $-1 $569 $779 #
straight-curve $-1 0 -35.132287642425524 11.750933747473228 1 0 0 I I #
edge $-1 $396 -11.750933747473228 $566 11.750933747473228 $393 $780 forward 7 unknown #
edge $-1 $397 -11.750933747473228 $565 11.750933747473228 $394 $781 forward 7 unknown #
point $-1 56.172368541520427 -35.132287642425524 11.750933747473228 #
point $-1 56.172368541520427 35.132287642425524 11.750933747473228 #
face $-1 $-1 $414 $58 $-1 $782 reversed single #
loop $-1 $-1 $590 $399 #
plane-surface $-1 0 0 11.750933747473228 0 0 1 1 0 0 forward_v I I I I #
coedge $-1 $596 $595 $403 $589 forward $400 $-1 #
coedge $-1 $405 $402 $596 $783 reversed $248 $-1 #
coedge $-1 $402 $405 $599 $784 reversed $248 $-1 #
edge $-1 $601 -11.750933747473228 $597 11.750933747473228 $402 $785 forward 7 unknown #
coedge $-1 $404 $403 $603 $786 reversed $157 $-1 #
edge $-1 $787 -30.329530657022119 $593 -21.356145111974499 $584 $788 forward 7 unknown #
coedge $-1 $600 $599 $404 $591 forward $582 $-1 #
edge $-1 $592 21.356145111974499 $789 30.329530657022119 $590 $790 forward 7 unknown #
vertex $-1 $591 $791 #
vertex $-1 $589 $792 #
straight-curve $-1 -47.198982996472807 -24.631652725273153 0 0 0 -1 I I #
coedge $-1 $584 $408 $413 $605 forward $400 $-1 #
coedge $-1 $408 $584 $585 $783 forward $400 $-1 #
vertex $-1 $409 $793 #
straight-curve $-1 -25.842837884498309 -30.740330824205291 -11.750933747473228 -1 0 0 I I #
coedge $-1 $590 $410 $586 $784 forward $582 $-1 #
coedge $-1 $410 $590 $412 $604 forward $582 $-1 #
vertex $-1 $411 $794 #
straight-curve $-1 -25.842837884498309 -30.740330824205291 11.750933747473228 1 0 0 I I #
coedge $-1 $413 $412 $588 $786 forward $414 $-1 #
edge $-1 $789 24.631652725273153 $416 30.740330824205291 $412 $795 forward 7 unknown #
edge $-1 $415 -30.740330824205291 $787 -24.631652725273153 $413 $796 forward 7 unknown #
point $-1 -56.172368541520427 -30.740330824205291 -11.750933747473228 #
point $-1 -56.172368541520427 -30.740330824205291 11.750933747473228 #
face $-1 $-1 $797 $59 $-1 $798 reversed single #
loop $-1 $-1 $429 $418 #
plane-surface $-1 0 0 11.750933747473228 0 0 1 1 0 0 forward_v I I I I #
coedge $-1 $424 $421 $799 $800 reversed $256 $-1 #
coedge $-1 $421 $424 $801 $802 reversed $256 $-1 #
coedge $-1 $803 $804 $421 $614 forward $797 $-1 #
edge $-1 $805 -11.750933747473228 $806 11.750933747473228 $613 $807 forward 7 unknown #
coedge $-1 $799 $427 $422 $616 forward $419 $-1 #
edge $-1 $432 -16.89733493683568 $620 -10.788656837903542 $615 $808 forward 7 unknown #
coedge $-1 $429 $801 $423 $618 forward $609 $-1 #
edge $-1 $619 10.788656837903542 $431 16.89733493683568 $617 $809 forward 7 unknown #
vertex $-1 $618 $810 #
vertex $-1 $616 $811 #
straight-curve $-1 47.198982996472807 -24.631652725273153 0 0 0 -1 I I #
coedge $-1 $804 $803 $426 $623 forward $797 $-1 #
edge $-1 $628 -11.750933747473228 $625 11.750933747473228 $622 $812 forward 7 unknown #
coedge $-1 $427 $799 $804 $813 forward $419 $-1 #
vertex $-1 $623 $814 #
straight-curve $-1 25.842837884498309 -30.740330824205291 -11.750933747473228 -1 0 0 I I #
coedge $-1 $801 $429 $803 $815 forward $609 $-1 #
vertex $-1 $815 $816 #
straight-curve $-1 25.842837884498309 -30.740330824205291 11.750933747473228 1 0 0 I I #
point $-1 47.198982996472807 -30.740330824205291 11.750933747473228 #
point $-1 47.198982996472807 -30.740330824205291 -11.750933747473228 #
loop $-1 $-1 $442 $434 #
plane-surface $-1 0 -35.132287642425524 0 0 1 0 0 0 1 forward_v I I I I #
coedge $-1 $635 $437 $439 $639 reversed $264 $-1 #
coedge $-1 $437 $634 $817 $818 reversed $264 $-1 #
coedge $-1 $445 $440 $437 $637 forward $435 $-1 #
edge $-1 $640 -29.021858369469285 $819 -23.51572630458697 $636 $820 forward 7 unknown #
coedge $-1 $439 $438 $643 $821 reversed $165 $-1 #
edge $-1 $822 0 $640 8.0735269450369724 $634 $823 forward 7 unknown #
vertex $-1 $441 $824 #
straight-curve $-1 4.2334124989845137 -29.626155577543205 11.750933747473228 -1 0 0 I I #
coedge $-1 $817 $442 $445 $647 reversed $632 $-1 #
coedge $-1 $442 $817 $638 $821 forward $632 $-1 #
vertex $-1 $443 $825 #
straight-curve $-1 17.243009686912472 -35.132287642425524 41.232627660490948 0 0 1 I I #
straight-curve $-1 17.243009686912472 -35.132287642425524 5.8463298643738 0 -0.68199835119979291 -0.73135370988377701 I I #
edge $-1 $819 -0.30935969097441784 $446 17.243009686912472 $642 $826 forward 7 unknown #
point $-1 17.243009686912472 -35.132287642425524 11.750933747473228 #
point $-1 17.243009686912472 -29.626155577543209 11.750933747473228 #
edge $-1 $827 1 $827 0 $449 $-1 forward 7 unknown #
vertex $-1 $450 $828 #
ellipse-curve $-1 3.2011141846029574 -29.00925165351423 5.6560840580345939 0 -0.73135370988377701 0.68199835119979291 1.5 0 0 1 I I #
point $-1 4.7011141846029574 -32.37922160998437 8.7986318059235167 #
edge $-1 $829 1 $829 0 $453 $-1 forward 7 unknown #
vertex $-1 $454 $830 #
ellipse-curve $-1 8.4668249979690273 -29.00925165351423 5.6560840580345939 0 -0.73135370988377701 0.68199835119979291 1.5 0 0 1 I I #
point $-1 9.9668249979690273 -32.37922160998437 8.7986318059235167 #
edge $-1 $831 1 $831 0 $457 $-1 forward 7 unknown #
vertex $-1 $458 $832 #
ellipse-curve $-1 13.732535811335097 -29.00925165351423 5.6560840580345939 0 -0.73135370988377701 0.68199835119979291 1.5 0 0 1 I I #
point $-1 15.232535811335097 -32.37922160998437 8.7986318059235167 #
plane-surface $-1 0 0 11.750933747473228 0 0 1 1 0 0 forward_v I I I I #
coedge $-1 $673 $672 $665 $833 forward $462 $-1 #
coedge $-1 $665 $464 $466 $669 reversed $293 $-1 #
coedge $-1 $464 $664 $663 $833 reversed $293 $-1 #
coedge $-1 $472 $467 $464 $667 forward $473 $-1 #
edge $-1 $670 -20.036660792265817 $834 -14.53084658318258 $666 $835 forward 7 unknown #
coedge $-1 $466 $465 $673 $836 reversed $184 $-1 #
edge $-1 $837 -70.264575284851006 $670 -58.907922827115044 $664 $838 forward 7 unknown #
vertex $-1 $468 $839 #
straight-curve $-1 -16.834544737341048 29.626473433342291 11.750933747473226 1 0 0 I I #
coedge $-1 $663 $469 $472 $677 reversed $462 $-1 #
coedge $-1 $469 $663 $668 $836 forward $462 $-1 #
vertex $-1 $470 $840 #
straight-curve $-1 -41.062053136465963 35.132287642425524 58.869386092193352 0 0 1 I I #
straight-curve $-1 -41.062053136465963 1.0673465483616269 63.272964407889909 0 0.48480960649040278 -0.87461971476443456 I I #
edge $-1 $834 26.276125812898229 $474 41.062053136465963 $672 $841 forward 7 unknown #
point $-1 -41.062053136465963 35.132287642425524 11.750933747473228 #
point $-1 -41.062053136465963 29.626473433342287 11.750933747473226 #
edge $-1 $842 1 $842 0 $477 $-1 forward 7 unknown #
vertex $-1 $478 $843 #
ellipse-curve $-1 -36.837502472589463 28.997172423096728 4.9097691784574371 0 0.87461971476443456 0.48480960649040278 1 0 0 1 I I #
point $-1 -35.837502472589463 32.37938053788389 6.7845576808412957 #
edge $-1 $844 1 $844 0 $481 $-1 forward 7 unknown #
vertex $-1 $482 $845 #
ellipse-curve $-1 -30.500676476774721 28.997172423096728 4.9097691784574371 0 0.87461971476443456 0.48480960649040278 1 0 0 1 I I #
point $-1 -29.500676476774721 32.37938053788389 6.7845576808412957 #
loop $-1 $-1 $493 $485 #
plane-surface $-1 0 35.132287642425524 0 0 -1 0 0 0 -1 forward_v I I I I #
coedge $-1 $691 $488 $490 $695 reversed $315 $-1 #
coedge $-1 $488 $690 $846 $847 reversed $315 $-1 #
coedge $-1 $496 $491 $488 $693 forward $486 $-1 #
edge $-1 $696 -20.036660792265817 $848 -14.53084658318258 $692 $849 forward 7 unknown #
coedge $-1 $490 $489 $699 $850 reversed $198 $-1 #
edge $-1 $851 -70.264575284851006 $696 -58.907922827115044 $690 $852 forward 7 unknown #
vertex $-1 $492 $853 #
straight-curve $-1 -5.6115149124470136 29.626473433342291 11.750933747473226 1 0 0 I I #
coedge $-1 $846 $493 $496 $703 reversed $688 $-1 #
coedge $-1 $493 $846 $694 $850 forward $688 $-1 #
vertex $-1 $494 $854 #
straight-curve $-1 -18.615993486677894 35.132287642425524 58.869386092193352 0 0 1 I I #
straight-curve $-1 -18.615993486677894 1.0673465483616269 63.272964407889909 0 0.48480960649040278 -0.87461971476443456 I I #
edge $-1 $848 3.8300661631101605 $497 18.615993486677894 $698 $855 forward 7 unknown #
point $-1 -18.615993486677894 35.132287642425524 11.750933747473228 #
point $-1 -18.615993486677894 29.626473433342287 11.750933747473226 #
edge $-1 $856 1 $856 0 $500 $-1 forward 7 unknown #
vertex $-1 $501 $857 #
ellipse-curve $-1 -14.391442822801402 28.997172423096728 4.9097691784574371 0 0.87461971476443456 0.48480960649040278 1 0 0 1 I I #
point $-1 -13.391442822801402 32.37938053788389 6.7845576808412957 #
edge $-1 $858 1 $858 0 $504 $-1 forward 7 unknown #
vertex $-1 $505 $859 #
ellipse-curve $-1 -8.0546168269866598 28.997172423096728 4.9097691784574371 0 0.87461971476443456 0.48480960649040278 1 0 0 1 I I #
point $-1 -7.0546168269866598 32.37938053788389 6.7845576808412957 #
loop $-1 $-1 $516 $508 #
plane-surface $-1 0 35.132287642425524 0 0 -1 0 0 0 -1 forward_v I I I I #
coedge $-1 $717 $511 $513 $721 reversed $337 $-1 #
coedge $-1 $511 $716 $860 $861 reversed $337 $-1 #
coedge $-1 $519 $514 $511 $719 forward $509 $-1 #
edge $-1 $722 -20.036660792265817 $862 -14.53084658318258 $718 $863 forward 7 unknown #
coedge $-1 $513 $512 $725 $864 reversed $212 $-1 #
edge $-1 $865 -70.264575284851006 $722 -58.907922827115044 $716 $866 forward 7 unknown #
vertex $-1 $515 $867 #
straight-curve $-1 5.6115149124470207 29.626473433342291 11.750933747473226 1 0 0 I I #
coedge $-1 $860 $516 $519 $729 reversed $714 $-1 #
coedge $-1 $516 $860 $720 $864 forward $714 $-1 #
vertex $-1 $517 $868 #
straight-curve $-1 3.8300661631101747 35.132287642425524 58.869386092193352 0 0 1 I I #
straight-curve $-1 3.8300661631101747 1.0673465483616269 63.272964407889909 0 0.48480960649040278 -0.87461971476443456 I I #
edge $-1 $862 -18.615993486677908 $520 -3.8300661631101747 $724 $869 forward 7 unknown #
point $-1 3.8300661631101747 35.132287642425524 11.750933747473228 #
point $-1 3.8300661631101747 29.626473433342287 11.750933747473226 #
edge $-1 $870 1 $870 0 $523 $-1 forward 7 unknown #
vertex $-1 $524 $871 #
ellipse-curve $-1 8.0546168269866598 28.997172423096728 4.9097691784574371 0 0.87461971476443456 0.48480960649040278 1 0 0 1 I I #
point $-1 9.0546168269866598 32.37938053788389 6.7845576808412957 #
edge $-1 $872 1 $872 0 $527 $-1 forward 7 unknown #
vertex $-1 $528 $873 #
ellipse-curve $-1 14.391442822801395 28.997172423096728 4.9097691784574371 0 0.87461971476443456 0.48480960649040278 1 0 0 1 I I #
point $-1 15.391442822801395 32.37938053788389 6.7845576808412957 #
loop $-1 $-1 $539 $531 #
plane-surface $-1 0 35.132287642425524 0 0 -1 0 0 0 -1 forward_v I I I I #
coedge $-1 $743 $534 $536 $747 reversed $359 $-1 #
coedge $-1 $534 $742 $874 $875 reversed $359 $-1 #
coedge $-1 $542 $537 $534 $745 forward $532 $-1 #
edge $-1 $748 -20.036660792265817 $876 -14.53084658318258 $744 $877 forward 7 unknown #
coedge $-1 $536 $535 $751 $878 reversed $226 $-1 #
edge $-1 $879 -70.264575284851006 $748 -58.907922827115044 $742 $880 forward 7 unknown #
vertex $-1 $538 $881 #
straight-curve $-1 16.834544737341048 29.626473433342291 11.750933747473226 1 0 0 I I #
coedge $-1 $874 $539 $542 $755 reversed $740 $-1 #
coedge $-1 $539 $874 $746 $878 forward $740 $-1 #
vertex $-1 $540 $882 #
straight-curve $-1 26.276125812898229 35.132287642425524 58.869386092193352 0 0 1 I I #
straight-curve $-1 26.276125812898229 1.0673465483616269 63.272964407889909 0 0.48480960649040278 -0.87461971476443456 I I #
edge $-1 $876 -41.062053136465963 $543 -26.276125812898229 $750 $883 forward 7 unknown #
point $-1 26.276125812898229 35.132287642425524 11.750933747473228 #
point $-1 26.276125812898229 29.626473433342287 11.750933747473226 #
edge $-1 $884 1 $884 0 $546 $-1 forward 7 unknown #
vertex $-1 $547 $885 #
ellipse-curve $-1 30.500676476774714 28.997172423096728 4.9097691784574371 0 0.87461971476443456 0.48480960649040278 1 0 0 1 I I #
point $-1 31.500676476774714 32.37938053788389 6.7845576808412957 #
edge $-1 $886 1 $886 0 $550 $-1 forward 7 unknown #
vertex $-1 $551 $887 #
ellipse-curve $-1 36.837502472589449 28.997172423096728 4.9097691784574371 0 0.87461971476443456 0.48480960649040278 1 0 0 1 I I #
point $-1 37.837502472589449 32.37938053788389 6.7845576808412957 #
plane-surface $-1 56.172368541520427 0 0 -1 0 0 0 0 1 forward_v I I I I #
coedge $-1 $559 $557 $561 $771 reversed $381 $-1 #
edge $-1 $572 -11.750933747473228 $773 11.750933747473228 $571 $888 forward 7 unknown #
vertex $-1 $771 $889 #
straight-curve $-1 -56.172368541520427 -35.132287642425524 0 0 0 -1 I I #
edge $-1 $769 -35.132287642425524 $773 35.132287642425524 $767 $890 forward 7 unknown #
straight-curve $-1 0 -35.132287642425524 -11.750933747473228 -1 0 0 I I #
vertex $-1 $564 $891 #
straight-curve $-1 0 35.132287642425524 -11.750933747473228 1 0 0 I I #
point $-1 56.172368541520427 35.132287642425524 -11.750933747473228 #
point $-1 56.172368541520427 -35.132287642425524 -11.750933747473228 #
straight-curve $-1 -56.172368541520427 0 11.750933747473228 0 -1 0 I I #
point $-1 -56.172368541520427 35.132287642425524 11.750933747473228 #
point $-1 -56.172368541520427 -35.132287642425524 11.750933747473228 #
straight-curve $-1 56.172368541520427 -35.132287642425524 0 0 0 -1 I I #
straight-curve $-1 56.172368541520427 35.132287642425524 0 0 0 -1 I I #
plane-surface $-1 -56.172368541520427 0 0 1 0 0 0 0 -1 forward_v I I I I #
edge $-1 $593 10.788656837903542 $597 16.89733493683568 $596 $892 forward 7 unknown #
edge $-1 $601 -16.89733493683568 $592 -10.788656837903542 $599 $893 forward 7 unknown #
straight-curve $-1 -47.198982996472807 -30.740330824205291 0 0 0 -1 I I #
edge $-1 $789 -11.750933747473228 $787 11.750933747473228 $603 $894 forward 7 unknown #
vertex $-1 $786 $895 #
straight-curve $-1 -25.842837884498309 -24.631652725273153 -11.750933747473228 1 0 0 I I #
vertex $-1 $604 $896 #
straight-curve $-1 -25.842837884498309 -24.631652725273153 11.750933747473228 -1 0 0 I I #
point $-1 -47.198982996472807 -24.631652725273153 11.750933747473228 #
point $-1 -47.198982996472807 -24.631652725273153 -11.750933747473228 #
point $-1 -47.198982996472807 -30.740330824205291 -11.750933747473228 #
point $-1 -47.198982996472807 -30.740330824205291 11.750933747473228 #
straight-curve $-1 -56.172368541520427 0 11.750933747473228 0 -1 0 I I #
straight-curve $-1 -56.172368541520427 0 -11.750933747473228 0 1 0 I I #
loop $-1 $-1 $622 $608 #
plane-surface $-1 56.172368541520427 0 0 -1 0 0 0 0 1 forward_v I I I I #
coedge $-1 $624 $615 $611 $800 forward $419 $-1 #
edge $-1 $620 21.356145111974499 $805 30.329530657022119 $799 $897 forward 7 unknown #
coedge $-1 $617 $627 $612 $802 forward $609 $-1 #
edge $-1 $806 -30.329530657022119 $619 -21.356145111974499 $801 $898 forward 7 unknown #
coedge $-1 $622 $613 $627 $815 reversed $797 $-1 #
coedge $-1 $613 $622 $624 $813 reversed $797 $-1 #
vertex $-1 $813 $899 #
vertex $-1 $614 $900 #
straight-curve $-1 56.172368541520427 -24.631652725273153 0 0 0 1 I I #
straight-curve $-1 47.198982996472807 -13.842995887369611 -11.750933747473228 0 1 0 I I #
straight-curve $-1 47.198982996472807 -13.842995887369611 11.750933747473228 0 -1 0 I I #
point $-1 47.198982996472807 -24.631652725273153 11.750933747473228 #
point $-1 47.198982996472807 -24.631652725273153 -11.750933747473228 #
straight-curve $-1 56.172368541520427 -30.740330824205291 0 0 0 -1 I I #
edge $-1 $805 24.631652725273153 $625 30.740330824205291 $804 $901 forward 7 unknown #
point $-1 56.172368541520427 -30.740330824205291 -11.750933747473228 #
edge $-1 $628 -30.740330824205291 $806 -24.631652725273153 $803 $902 forward 7 unknown #
point $-1 56.172368541520427 -30.740330824205291 11.750933747473228 #
coedge $-1 $643 $642 $635 $818 forward $632 $-1 #
edge $-1 $819 29.481693913017722 $822 35.386297796117148 $817 $903 forward 7 unknown #
vertex $-1 $647 $904 #
straight-curve $-1 -0.30935969097441784 -58.648013947012494 11.750933747473226 0 -1 0 I I #
edge $-1 $822 -4.5427721899589315 $644 13.009597187927959 $643 $905 forward 7 unknown #
vertex $-1 $821 $906 #
straight-curve $-1 -0.30935969097441784 -35.132287642425524 5.8463298643738 0 0.68199835119979291 0.73135370988377701 I I #
point $-1 -0.30935969097441784 -29.626155577543209 11.750933747473228 #
point $-1 17.243009686912472 -35.132287642425524 5.8463298643738 #
straight-curve $-1 0 -35.132287642425524 11.750933747473228 1 0 0 I I #
vertex $-1 $650 $907 #
point $-1 4.7011141846029574 -29.00925165351423 5.6560840580345939 #
vertex $-1 $654 $908 #
point $-1 9.9668249979690273 -29.00925165351423 5.6560840580345939 #
vertex $-1 $658 $909 #
point $-1 15.232535811335097 -29.00925165351423 5.6560840580345939 #
edge $-1 $834 47.118452344720126 $837 57.051204477983966 $663 $910 forward 7 unknown #
vertex $-1 $677 $911 #
straight-curve $-1 -26.276125812898229 49.663134225608104 11.750933747473226 0 1 0 I I #
edge $-1 $837 9.4415810755571812 $674 24.227508399124915 $673 $912 forward 7 unknown #
vertex $-1 $836 $913 #
straight-curve $-1 -26.276125812898229 1.0673465483616269 63.272964407889909 0 -0.48480960649040278 0.87461971476443456 I I #
point $-1 -26.276125812898229 29.626473433342287 11.750933747473226 #
point $-1 -41.062053136465963 35.132287642425524 1.8181816142093865 #
straight-curve $-1 0 35.132287642425524 11.750933747473228 -1 0 0 I I #
vertex $-1 $680 $914 #
point $-1 -35.837502472589463 28.997172423096728 4.9097691784574371 #
vertex $-1 $684 $915 #
point $-1 -29.500676476774721 28.997172423096728 4.9097691784574371 #
coedge $-1 $699 $698 $691 $847 forward $688 $-1 #
edge $-1 $848 47.118452344720126 $851 57.051204477983966 $846 $916 forward 7 unknown #
vertex $-1 $703 $917 #
straight-curve $-1 -3.8300661631101605 49.663134225608104 11.750933747473226 0 1 0 I I #
edge $-1 $851 -1.7814487493368532 $700 13.00447857423088 $699 $918 forward 7 unknown #
vertex $-1 $850 $919 #
straight-curve $-1 -3.8300661631101605 1.0673465483616269 63.272964407889909 0 -0.48480960649040278 0.87461971476443456 I I #
point $-1 -3.8300661631101605 29.626473433342287 11.750933747473226 #
point $-1 -18.615993486677894 35.132287642425524 1.8181816142093865 #
straight-curve $-1 0 35.132287642425524 11.750933747473228 -1 0 0 I I #
vertex $-1 $706 $920 #
point $-1 -13.391442822801402 28.997172423096728 4.9097691784574371 #
vertex $-1 $710 $921 #
point $-1 -7.0546168269866598 28.997172423096728 4.9097691784574371 #
coedge $-1 $725 $724 $717 $861 forward $714 $-1 #
edge $-1 $862 47.118452344720126 $865 57.051204477983966 $860 $922 forward 7 unknown #
vertex $-1 $729 $923 #
straight-curve $-1 18.615993486677908 49.663134225608104 11.750933747473226 0 1 0 I I #
edge $-1 $865 -13.004478574230887 $726 1.781448749336846 $725 $924 forward 7 unknown #
vertex $-1 $864 $925 #
straight-curve $-1 18.615993486677908 1.0673465483616269 63.272964407889909 0 -0.48480960649040278 0.87461971476443456 I I #
point $-1 18.615993486677908 29.626473433342287 11.750933747473226 #
point $-1 3.8300661631101747 35.132287642425524 1.8181816142093865 #
straight-curve $-1 0 35.132287642425524 11.750933747473228 -1 0 0 I I #
vertex $-1 $732 $926 #
point $-1 9.0546168269866598 28.997172423096728 4.9097691784574371 #
vertex $-1 $736 $927 #
point $-1 15.391442822801395 28.997172423096728 4.9097691784574371 #
coedge $-1 $751 $750 $743 $875 forward $740 $-1 #
edge $-1 $876 47.118452344720126 $879 57.051204477983966 $874 $928 forward 7 unknown #
vertex $-1 $755 $929 #
straight-curve $-1 41.062053136465963 49.663134225608104 11.750933747473226 0 1 0 I I #
edge $-1 $879 -24.227508399124915 $752 -9.4415810755571812 $751 $930 forward 7 unknown #
vertex $-1 $878 $931 #
straight-curve $-1 41.062053136465963 1.0673465483616269 63.272964407889909 0 -0.48480960649040278 0.87461971476443456 I I #
point $-1 41.062053136465963 29.626473433342287 11.750933747473226 #
point $-1 26.276125812898229 35.132287642425524 1.8181816142093865 #
straight-curve $-1 0 35.132287642425524 11.750933747473228 -1 0 0 I I #
vertex $-1 $758 $932 #
point $-1 31.500676476774714 28.997172423096728 4.9097691784574371 #
vertex $-1 $762 $933 #
point $-1 37.837502472589449 28.997172423096728 4.9097691784574371 #
straight-curve $-1 -56.172368541520427 35.132287642425524 0 0 0 -1 I I #
point $-1 -56.172368541520427 -35.132287642425524 -11.750933747473228 #
straight-curve $-1 -56.172368541520427 0 -11.750933747473228 0 1 0 I I #
point $-1 -56.172368541520427 35.132287642425524 -11.750933747473228 #
straight-curve $-1 -47.198982996472807 -13.842995887369611 -11.750933747473228 0 -1 0 I I #
straight-curve $-1 -47.198982996472807 -13.842995887369611 11.750933747473228 0 1 0 I I #
straight-curve $-1 -56.172368541520427 -24.631652725273153 0 0 0 -1 I I #
point $-1 -56.172368541520427 -24.631652725273153 -11.750933747473228 #
point $-1 -56.172368541520427 -24.631652725273153 11.750933747473228 #
straight-curve $-1 25.842837884498309 -24.631652725273153 -11.750933747473228 1 0 0 I I #
straight-curve $-1 25.842837884498309 -24.631652725273153 11.750933747473228 -1 0 0 I I #
point $-1 56.172368541520427 -24.631652725273153 -11.750933747473228 #
point $-1 56.172368541520427 -24.631652725273153 11.750933747473228 #
straight-curve $-1 56.172368541520427 0 -11.750933747473228 0 -1 0 I I #
straight-curve $-1 56.172368541520427 0 11.750933747473228 0 1 0 I I #
straight-curve $-1 -0.30935969097441784 -35.132287642425524 41.232627660490948 0 0 -1 I I #
point $-1 -0.30935969097441784 -35.132287642425524 11.750933747473228 #
straight-curve $-1 4.2334124989845137 -35.132287642425524 5.8463298643738009 1 0 0 I I #
point $-1 -0.30935969097441784 -35.132287642425524 5.8463298643738 #
point $-1 3.2011141846029574 -27.912221088688565 4.6330865312349054 #
point $-1 8.4668249979690273 -27.912221088688565 4.6330865312349054 #
point $-1 13.732535811335097 -27.912221088688565 4.6330865312349054 #
straight-curve $-1 -26.276125812898229 35.132287642425524 58.869386092193352 0 0 -1 I I #
point $-1 -26.276125812898229 35.132287642425524 11.750933747473228 #
straight-curve $-1 -16.834544737341048 35.132287642425524 1.8181816142093794 -1 0 0 I I #
point $-1 -26.276125812898229 35.132287642425524 1.8181816142093865 #
point $-1 -36.837502472589463 28.122552708332293 4.424959571967034 #
point $-1 -30.500676476774721 28.122552708332293 4.424959571967034 #
straight-curve $-1 -3.8300661631101605 35.132287642425524 58.869386092193352 0 0 -1 I I #
point $-1 -3.8300661631101605 35.132287642425524 11.750933747473228 #
straight-curve $-1 -5.6115149124470136 35.132287642425524 1.8181816142093794 -1 0 0 I I #
point $-1 -3.8300661631101605 35.132287642425524 1.8181816142093865 #
point $-1 -14.391442822801402 28.122552708332293 4.424959571967034 #
point $-1 -8.0546168269866598 28.122552708332293 4.424959571967034 #
straight-curve $-1 18.615993486677908 35.132287642425524 58.869386092193352 0 0 -1 I I #
point $-1 18.615993486677908 35.132287642425524 11.750933747473228 #
straight-curve $-1 5.6115149124470207 35.132287642425524 1.8181816142093794 -1 0 0 I I #
point $-1 18.615993486677908 35.132287642425524 1.8181816142093865 #
point $-1 8.0546168269866598 28.122552708332293 4.424959571967034 #
point $-1 14.391442822801395 28.122552708332293 4.424959571967034 #
straight-curve $-1 41.062053136465963 35.132287642425524 58.869386092193352 0 0 -1 I I #
point $-1 41.062053136465963 35.132287642425524 11.750933747473228 #
straight-curve $-1 16.834544737341048 35.132287642425524 1.8181816142093794 -1 0 0 I I #
point $-1 41.062053136465963 35.132287642425524 1.8181816142093865 #
point $-1 30.500676476774714 28.122552708332293 4.424959571967034 #
point $-1 36.837502472589449 28.122552708332293 4.424959571967034 #
End-of-ACIS-data 