500 0 5 0           
7 Unknown 11 ACIS 5.0 NT 24 Thu Mar 25 17:06:07 1999 
-1 9.9999999999999995e-007 1e-010 
body $-1 $5 $-1 $6 #
body $-1 $7 $-1 $8 #
body $-1 $9 $-1 $10 #
body $-1 $11 $-1 $12 #
body $-1 $13 $-1 $14 #
lump $-1 $-1 $15 $0 #
transform $-1 1 0 0 0 1 0 0 0 1 55.90380565813166 27.617507067812319 6.2866134134158917 1 rotate no_reflect no_shear #
lump $-1 $-1 $16 $1 #
transform $-1 1 0 0 0 1 0 0 0 1 55.90380565813166 27.617507067812319 6.2866134134158917 1 rotate no_reflect no_shear #
lump $-1 $-1 $17 $2 #
transform $-1 1 0 0 0 1 0 0 0 1 55.90380565813166 27.617507067812319 6.2866134134158917 1 rotate no_reflect no_shear #
lump $-1 $-1 $18 $3 #
transform $-1 1 0 0 0 1 0 0 0 1 55.90380565813166 27.617507067812319 6.2866134134158917 1 rotate no_reflect no_shear #
lump $-1 $-1 $19 $4 #
transform $-1 1 0 0 0 1 0 0 0 1 55.90380565813166 27.617507067812319 6.2866134134158917 1 rotate no_reflect no_shear #
shell $-1 $-1 $-1 $20 $-1 $5 #
shell $-1 $-1 $-1 $21 $-1 $7 #
shell $-1 $-1 $-1 $22 $-1 $9 #
shell $-1 $-1 $-1 $23 $-1 $11 #
shell $-1 $-1 $-1 $24 $-1 $13 #
face $-1 $25 $26 $15 $-1 $27 forward single #
face $-1 $28 $29 $16 $-1 $30 reversed single #
face $-1 $31 $32 $17 $-1 $33 reversed single #
face $-1 $34 $35 $18 $-1 $36 forward single #
face $-1 $37 $38 $19 $-1 $39 reversed single #
face $-1 $40 $41 $15 $-1 $42 reversed single #
loop $-1 $-1 $43 $20 #
plane-surface $-1 0 0 6.2866134134158917 0 0 1 1 0 0 forward_v I I I I #
face $-1 $44 $45 $16 $-1 $46 forward single #
loop $-1 $-1 $47 $21 #
plane-surface $-1 0 -23.745970436640725 -3.2866134134158917 0 0 1 1 0 0 forward_v I I I I #
face $-1 $48 $49 $17 $-1 $50 forward single #
loop $-1 $-1 $51 $22 #
plane-surface $-1 0 23.745970436640725 -3.2866134134158917 0 0 1 1 0 0 forward_v I I I I #
face $-1 $52 $53 $18 $-1 $54 forward single #
loop $-1 $-1 $55 $23 #
plane-surface $-1 20.334582141126418 3.0624305665594207 154.74698966162114 0 -1 0 -0.52991927123019833 0 -0.84804809178421925 forward_v I I I I #
face $-1 $56 $57 $19 $-1 $58 reversed single #
loop $-1 $59 $60 $24 #
cone-surface $-1 49.870411660090149 -1.796585965395245 1.007519156176627 -0.52991927123019833 0 -0.84804809178421925 1.2720721376763289 0 -0.79487890684529749 1 I I 0 1 1.5 forward I I I I #
face $-1 $61 $62 $15 $-1 $63 reversed single #
loop $-1 $-1 $64 $25 #
plane-surface $-1 0 0 -6.2866134134158917 0 0 1 1 0 0 forward_v I I I I #
coedge $-1 $65 $66 $67 $68 forward $26 $-1 #
face $-1 $69 $70 $16 $-1 $71 reversed single #
loop $-1 $-1 $72 $28 #
plane-surface $-1 0 -19.874433805469131 -4.7866134134158917 0 -1 0 0 0 -1 forward_v I I I I #
coedge $-1 $73 $74 $75 $76 reversed $29 $-1 #
face $-1 $77 $78 $17 $-1 $79 reversed single #
loop $-1 $-1 $80 $31 #
plane-surface $-1 0 19.874433805469131 -4.7866134134158917 0 1 0 0 0 1 forward_v I I I I #
coedge $-1 $81 $82 $83 $84 reversed $32 $-1 #
face $-1 $85 $86 $18 $-1 $87 forward single #
loop $-1 $-1 $88 $34 #
plane-surface $-1 -38.914425765577114 -1.796585965395245 59.928758237912362 0.52991927123019833 0 0.84804809178421925 0.84804809178421925 0 -0.52991927123019833 forward_v I I I I #
coedge $-1 $89 $90 $91 $92 reversed $35 $-1 #
face $-1 $93 $94 $19 $-1 $95 forward single #
loop $-1 $96 $97 $37 #
cone-surface $-1 47.926006421288164 -1.796585965395245 -2.1041796287972678 -0.52991927123019833 0 -0.84804809178421925 0.63603606883816444 0 -0.39743945342264875 1 I I -0.70710678118654757 0.70710678118654757 0.75 forward I I I I #
loop $-1 $-1 $98 $24 #
coedge $-1 $60 $60 $99 $100 reversed $38 $-1 #
face $-1 $101 $102 $15 $-1 $103 reversed single #
loop $-1 $-1 $104 $40 #
plane-surface $-1 0 -27.617507067812319 0 0 1 0 0 0 1 forward_v I I I I #
coedge $-1 $105 $106 $107 $108 forward $41 $-1 #
coedge $-1 $109 $43 $110 $111 forward $26 $-1 #
coedge $-1 $43 $109 $112 $113 forward $26 $-1 #
coedge $-1 $114 $115 $43 $68 reversed $116 $-1 #
edge $-1 $117 -27.617507067812319 $118 27.617507067812319 $67 $119 forward 7 unknown #
face $-1 $120 $121 $16 $-1 $122 reversed single #
loop $-1 $-1 $123 $44 #
plane-surface $-1 0 -27.617507067812319 0 0 1 0 0 0 1 forward_v I I I I #
coedge $-1 $124 $125 $126 $127 reversed $45 $-1 #
coedge $-1 $128 $47 $123 $129 reversed $29 $-1 #
coedge $-1 $47 $128 $124 $130 reversed $29 $-1 #
coedge $-1 $126 $131 $47 $76 forward $132 $-1 #
edge $-1 $133 -15.744521849491957 $134 -8.0014485871487686 $75 $135 forward 7 unknown #
face $-1 $136 $137 $17 $-1 $138 reversed single #
loop $-1 $-1 $139 $48 #
plane-surface $-1 0 27.617507067812319 0 0 -1 0 0 0 -1 forward_v I I I I #
coedge $-1 $140 $141 $142 $143 reversed $49 $-1 #
coedge $-1 $144 $51 $140 $145 reversed $32 $-1 #
coedge $-1 $51 $144 $139 $146 reversed $32 $-1 #
coedge $-1 $147 $148 $51 $84 forward $149 $-1 #
edge $-1 $150 8.0014485871487686 $151 15.744521849491957 $83 $152 forward 7 unknown #
face $-1 $153 $154 $18 $-1 $155 forward single #
loop $-1 $-1 $156 $52 #
plane-surface $-1 20.334582141126418 -6.6556024973499106 154.74698966162114 0 1 0 0.52991927123019833 0 0.84804809178421925 forward_v I I I I #
coedge $-1 $157 $158 $159 $160 reversed $53 $-1 #
coedge $-1 $90 $55 $158 $161 forward $35 $-1 #
coedge $-1 $55 $89 $162 $163 reversed $35 $-1 #
coedge $-1 $164 $159 $55 $92 forward $154 $-1 #
edge $-1 $165 36.763658162244106 $166 45.73651458756845 $91 $167 forward 7 unknown #
face $-1 $168 $169 $19 $-1 $170 forward single #
loop $-1 $-1 $171 $56 #
plane-surface $-1 20.334582141126418 3.0624305665594207 154.74698966162114 0 -1 0 -0.52991927123019833 0 -0.84804809178421925 forward_v I I I I #
loop $-1 $-1 $172 $37 #
coedge $-1 $97 $97 $98 $173 forward $57 $-1 #
coedge $-1 $98 $98 $97 $173 reversed $59 $-1 #
coedge $-1 $99 $99 $60 $100 forward $169 $-1 #
edge $-1 $174 0 $174 6.2831853071796004 $99 $175 forward 7 unknown #
face $-1 $176 $177 $15 $-1 $178 reversed single #
loop $-1 $-1 $179 $61 #
plane-surface $-1 -55.90380565813166 0 0 1 0 0 0 0 -1 forward_v I I I I #
coedge $-1 $180 $112 $181 $182 forward $62 $-1 #
coedge $-1 $183 $64 $180 $184 forward $41 $-1 #
coedge $-1 $64 $183 $185 $186 forward $41 $-1 #
coedge $-1 $115 $114 $64 $108 reversed $116 $-1 #
edge $-1 $187 -27.617507067812319 $188 27.617507067812319 $107 $189 forward 7 unknown #
coedge $-1 $66 $65 $190 $191 forward $26 $-1 #
coedge $-1 $192 $193 $65 $111 reversed $177 $-1 #
edge $-1 $118 -55.90380565813166 $194 55.90380565813166 $110 $195 forward 7 unknown #
coedge $-1 $104 $196 $66 $113 reversed $62 $-1 #
edge $-1 $197 -55.90380565813166 $117 55.90380565813166 $112 $198 forward 7 unknown #
coedge $-1 $107 $67 $196 $199 forward $116 $-1 #
coedge $-1 $67 $107 $192 $200 reversed $116 $-1 #
loop $-1 $-1 $114 $176 #
vertex $-1 $68 $201 #
vertex $-1 $68 $202 #
straight-curve $-1 55.90380565813166 0 6.2866134134158917 0 1 0 I I #
face $-1 $203 $204 $16 $-1 $205 forward single #
loop $-1 $-1 $206 $69 #
plane-surface $-1 0 0 -6.2866134134158917 0 0 1 1 0 0 forward_v I I I I #
coedge $-1 $207 $208 $73 $129 forward $70 $-1 #
coedge $-1 $209 $72 $74 $130 forward $45 $-1 #
coedge $-1 $72 $209 $206 $210 reversed $45 $-1 #
coedge $-1 $211 $75 $72 $127 forward $132 $-1 #
edge $-1 $134 0.89330670670794587 $212 3.8933067067079459 $126 $213 forward 7 unknown #
coedge $-1 $74 $73 $214 $215 reversed $29 $-1 #
edge $-1 $216 -55.90380565813166 $133 55.90380565813166 $123 $217 forward 7 unknown #
edge $-1 $134 -55.90380565813166 $218 55.90380565813166 $124 $219 forward 7 unknown #
coedge $-1 $75 $220 $207 $221 forward $132 $-1 #
loop $-1 $-1 $126 $222 #
vertex $-1 $129 $223 #
vertex $-1 $76 $224 #
straight-curve $-1 55.90380565813166 -11.872985218320363 -3.2866134134158917 0 1 0 I I #
face $-1 $225 $226 $17 $-1 $227 reversed single #
loop $-1 $-1 $228 $77 #
plane-surface $-1 -55.90380565813166 0 0 1 0 0 0 0 -1 forward_v I I I I #
coedge $-1 $229 $230 $82 $146 forward $78 $-1 #
coedge $-1 $231 $80 $81 $145 forward $49 $-1 #
coedge $-1 $80 $231 $232 $233 reversed $49 $-1 #
coedge $-1 $234 $228 $80 $143 forward $137 $-1 #
edge $-1 $235 0.89330670670794587 $236 3.8933067067079459 $142 $237 forward 7 unknown #
coedge $-1 $82 $81 $228 $238 reversed $32 $-1 #
edge $-1 $235 -55.90380565813166 $150 55.90380565813166 $140 $239 forward 7 unknown #
edge $-1 $151 -55.90380565813166 $240 55.90380565813166 $139 $241 forward 7 unknown #
coedge $-1 $242 $83 $230 $243 reversed $149 $-1 #
coedge $-1 $83 $244 $231 $245 forward $149 $-1 #
loop $-1 $-1 $83 $246 #
vertex $-1 $84 $247 #
vertex $-1 $146 $248 #
straight-curve $-1 55.90380565813166 11.872985218320363 -3.2866134134158917 0 1 0 I I #
face $-1 $249 $250 $18 $-1 $251 reversed single #
loop $-1 $-1 $252 $85 #
plane-surface $-1 0 0 6.2866134134158917 0 0 1 1 0 0 forward_v I I I I #
coedge $-1 $253 $254 $252 $255 reversed $86 $-1 #
coedge $-1 $256 $88 $254 $257 reversed $53 $-1 #
coedge $-1 $88 $256 $89 $161 reversed $53 $-1 #
coedge $-1 $91 $252 $88 $160 forward $154 $-1 #
edge $-1 $258 -5.7573095146522881 $165 3.9607235492570432 $159 $259 forward 7 unknown #
edge $-1 $165 101.22701274850256 $260 111.80761131626329 $89 $261 forward 7 unknown #
coedge $-1 $262 $263 $90 $163 forward $264 $-1 #
edge $-1 $166 71.086881417394679 $260 76.693744499601735 $162 $265 forward 7 unknown #
coedge $-1 $266 $91 $263 $267 forward $154 $-1 #
vertex $-1 $160 $268 #
vertex $-1 $267 $269 #
straight-curve $-1 10.167291070563209 3.0624305665594207 6.2866134134158926 1 0 0 I I #
face $-1 $270 $271 $19 $-1 $272 forward single #
loop $-1 $273 $99 $93 #
plane-surface $-1 -38.914425765577114 -1.796585965395245 59.928758237912362 0.52991927123019833 0 0.84804809178421925 0.84804809178421925 0 -0.52991927123019833 forward_v I I I I #
coedge $-1 $274 $275 $276 $277 reversed $94 $-1 #
coedge $-1 $172 $172 $-1 $278 forward $96 $-1 #
edge $-1 $279 0 $279 6.2831853071796004 $97 $280 forward 7 unknown #
vertex $-1 $100 $281 #
ellipse-curve $-1 51.417377445469484 -1.796585965395245 3.483181872312366 -0.52991927123019833 0 -0.84804809178421925 1.2720721376763289 0 -0.79487890684529749 1 I I #
face $-1 $-1 $116 $15 $-1 $282 reversed single #
loop $-1 $-1 $192 $101 #
plane-surface $-1 0 27.617507067812319 0 0 -1 0 0 0 -1 forward_v I I I I #
coedge $-1 $283 $190 $193 $284 forward $102 $-1 #
coedge $-1 $196 $104 $105 $184 reversed $62 $-1 #
coedge $-1 $190 $283 $104 $182 reversed $102 $-1 #
edge $-1 $197 -6.2866134134158917 $285 6.2866134134158917 $181 $286 forward 7 unknown #
coedge $-1 $106 $105 $283 $287 forward $41 $-1 #
edge $-1 $188 -55.90380565813166 $285 55.90380565813166 $180 $288 forward 7 unknown #
coedge $-1 $193 $192 $106 $186 reversed $177 $-1 #
edge $-1 $289 -55.90380565813166 $187 55.90380565813166 $185 $290 forward 7 unknown #
vertex $-1 $108 $291 #
vertex $-1 $199 $292 #
straight-curve $-1 55.90380565813166 0 -6.2866134134158917 0 -1 0 I I #
coedge $-1 $179 $181 $109 $191 reversed $102 $-1 #
edge $-1 $194 -27.617507067812319 $197 27.617507067812319 $190 $293 forward 7 unknown #
coedge $-1 $185 $110 $115 $200 forward $177 $-1 #
coedge $-1 $110 $185 $179 $284 reversed $177 $-1 #
vertex $-1 $111 $294 #
straight-curve $-1 0 27.617507067812319 6.2866134134158917 -1 0 0 I I #
coedge $-1 $112 $180 $114 $199 reversed $62 $-1 #
vertex $-1 $191 $295 #
straight-curve $-1 0 -27.617507067812319 6.2866134134158917 1 0 0 I I #
edge $-1 $117 -6.2866134134158917 $188 6.2866134134158917 $114 $296 forward 7 unknown #
edge $-1 $118 -6.2866134134158917 $187 6.2866134134158917 $115 $297 forward 7 unknown #
point $-1 55.90380565813166 -27.617507067812319 6.2866134134158917 #
point $-1 55.90380565813166 27.617507067812319 6.2866134134158917 #
face $-1 $298 $299 $16 $-1 $300 reversed single #
loop $-1 $-1 $301 $120 #
plane-surface $-1 0 0 6.2866134134158917 0 0 1 1 0 0 forward_v I I I I #
coedge $-1 $302 $303 $125 $210 forward $121 $-1 #
coedge $-1 $304 $123 $131 $221 reversed $70 $-1 #
coedge $-1 $123 $304 $305 $306 forward $70 $-1 #
coedge $-1 $125 $124 $307 $308 reversed $45 $-1 #
edge $-1 $212 -55.90380565813166 $309 55.90380565813166 $206 $310 forward 7 unknown #
coedge $-1 $311 $126 $303 $312 reversed $132 $-1 #
vertex $-1 $210 $313 #
straight-curve $-1 55.90380565813166 -19.874433805469131 -2.3933067067079459 0 0 -1 I I #
coedge $-1 $305 $307 $128 $215 forward $299 $-1 #
edge $-1 $218 8.0014485871487686 $216 15.744521849491957 $214 $314 forward 7 unknown #
vertex $-1 $129 $315 #
straight-curve $-1 0 -27.617507067812319 -3.2866134134158917 1 0 0 I I #
vertex $-1 $215 $316 #
straight-curve $-1 0 -19.874433805469131 -3.2866134134158917 -1 0 0 I I #
coedge $-1 $131 $311 $301 $317 reversed $132 $-1 #
edge $-1 $318 -6.2866134134158917 $133 3.2866134134158917 $131 $319 forward 7 unknown #
face $-1 $-1 $132 $16 $-1 $320 reversed single #
point $-1 55.90380565813166 -27.617507067812319 -3.2866134134158917 #
point $-1 55.90380565813166 -19.874433805469131 -3.2866134134158917 #
face $-1 $321 $322 $17 $-1 $323 forward single #
loop $-1 $-1 $324 $136 #
plane-surface $-1 0 -23.745970436640725 -3.2866134134158917 0 0 1 1 0 0 forward_v I I I I #
coedge $-1 $142 $325 $144 $238 forward $137 $-1 #
coedge $-1 $326 $139 $325 $327 reversed $78 $-1 #
coedge $-1 $139 $326 $147 $243 forward $78 $-1 #
coedge $-1 $141 $140 $148 $245 reversed $49 $-1 #
coedge $-1 $328 $329 $141 $233 forward $330 $-1 #
edge $-1 $236 -55.90380565813166 $331 55.90380565813166 $232 $332 forward 7 unknown #
coedge $-1 $333 $142 $329 $334 reversed $137 $-1 #
vertex $-1 $238 $335 #
vertex $-1 $143 $336 #
straight-curve $-1 -55.90380565813166 19.874433805469131 -2.3933067067079459 0 0 -1 I I #
edge $-1 $240 -15.744521849491957 $235 -8.0014485871487686 $228 $337 forward 7 unknown #
straight-curve $-1 0 19.874433805469131 -3.2866134134158917 1 0 0 I I #
vertex $-1 $238 $338 #
straight-curve $-1 0 27.617507067812319 -3.2866134134158917 -1 0 0 I I #
coedge $-1 $339 $147 $340 $341 reversed $149 $-1 #
edge $-1 $342 -6.2866134134158917 $151 3.2866134134158917 $147 $343 forward 7 unknown #
coedge $-1 $148 $344 $328 $345 reversed $149 $-1 #
edge $-1 $331 -3.8933067067079459 $150 -0.89330670670794587 $148 $346 forward 7 unknown #
face $-1 $-1 $149 $17 $-1 $347 reversed single #
point $-1 55.90380565813166 19.874433805469131 -3.2866134134158917 #
point $-1 55.90380565813166 27.617507067812319 -3.2866134134158917 #
face $-1 $348 $349 $18 $-1 $350 forward single #
loop $-1 $-1 $351 $153 #
plane-surface $-1 0 23.745970436640725 -3.2866134134158917 0 0 1 1 0 0 forward_v I I I I #
coedge $-1 $159 $352 $156 $255 forward $154 $-1 #
coedge $-1 $254 $156 $353 $354 reversed $86 $-1 #
coedge $-1 $156 $253 $157 $257 forward $86 $-1 #
edge $-1 $355 -45.73651458756845 $258 -36.763658162244106 $252 $356 forward 7 unknown #
coedge $-1 $158 $157 $262 $357 reversed $53 $-1 #
edge $-1 $358 -111.80761131626329 $258 -101.22701274850256 $254 $359 forward 7 unknown #
vertex $-1 $160 $360 #
straight-curve $-1 46.930949232807322 -0.89829298269762248 6.2866134134158855 0 1 0 I I #
vertex $-1 $357 $361 #
straight-curve $-1 -38.914425765577114 3.0624305665594207 59.928758237912362 0.84804809178421925 0 -0.52991927123019833 I I #
coedge $-1 $353 $162 $256 $357 forward $264 $-1 #
coedge $-1 $162 $362 $164 $267 reversed $264 $-1 #
loop $-1 $-1 $353 $363 #
straight-curve $-1 55.90380565813166 3.0624305665594207 77.373494830810571 0 0 -1 I I #
coedge $-1 $364 $164 $365 $366 forward $154 $-1 #
edge $-1 $166 3.0624305665594207 $367 27.617507067812319 $263 $368 forward 7 unknown #
point $-1 46.930949232807315 3.0624305665594207 6.2866134134158926 #
point $-1 55.90380565813166 3.0624305665594207 6.2866134134158917 #
face $-1 $369 $370 $19 $-1 $371 forward single #
loop $-1 $-1 $372 $168 #
plane-surface $-1 20.334582141126418 -6.6556024973499106 154.74698966162114 0 1 0 0.52991927123019833 0 0.84804809178421925 forward_v I I I I #
loop $-1 $-1 $373 $93 #
coedge $-1 $275 $171 $374 $375 forward $94 $-1 #
coedge $-1 $171 $274 $376 $377 reversed $94 $-1 #
coedge $-1 $378 $379 $171 $277 forward $370 $-1 #
edge $-1 $380 36.763658162244106 $381 45.73651458756845 $276 $382 forward 7 unknown #
edge $-1 $383 1 $383 0 $172 $-1 forward 7 unknown #
vertex $-1 $173 $384 #
ellipse-curve $-1 48.323445874710814 -1.796585965395245 -1.4681435599591035 0.52991927123019833 0 0.84804809178421925 1.2720721376763289 0 -0.79487890684529749 1 I I #
point $-1 52.689449583145809 -1.796585965395245 2.6883029654670603 #
plane-surface $-1 55.90380565813166 0 0 -1 0 0 0 0 1 forward_v I I I I #
coedge $-1 $181 $179 $183 $287 reversed $102 $-1 #
edge $-1 $194 -6.2866134134158917 $289 6.2866134134158917 $193 $385 forward 7 unknown #
vertex $-1 $287 $386 #
straight-curve $-1 -55.90380565813166 -27.617507067812319 0 0 0 -1 I I #
edge $-1 $285 -27.617507067812319 $289 27.617507067812319 $283 $387 forward 7 unknown #
straight-curve $-1 0 -27.617507067812319 -6.2866134134158917 -1 0 0 I I #
vertex $-1 $186 $388 #
straight-curve $-1 0 27.617507067812319 -6.2866134134158917 1 0 0 I I #
point $-1 55.90380565813166 27.617507067812319 -6.2866134134158917 #
point $-1 55.90380565813166 -27.617507067812319 -6.2866134134158917 #
straight-curve $-1 -55.90380565813166 0 6.2866134134158917 0 -1 0 I I #
point $-1 -55.90380565813166 27.617507067812319 6.2866134134158917 #
point $-1 -55.90380565813166 -27.617507067812319 6.2866134134158917 #
straight-curve $-1 55.90380565813166 -27.617507067812319 0 0 0 -1 I I #
straight-curve $-1 55.90380565813166 27.617507067812319 0 0 0 -1 I I #
face $-1 $222 $389 $16 $-1 $390 reversed single #
loop $-1 $-1 $214 $203 #
plane-surface $-1 -55.90380565813166 0 0 1 0 0 0 0 -1 forward_v I I I I #
coedge $-1 $391 $392 $220 $317 forward $204 $-1 #
coedge $-1 $393 $206 $394 $395 forward $121 $-1 #
coedge $-1 $206 $393 $211 $312 forward $121 $-1 #
coedge $-1 $208 $207 $392 $396 reversed $70 $-1 #
coedge $-1 $397 $214 $208 $306 reversed $299 $-1 #
edge $-1 $398 -6.2866134134158917 $216 3.2866134134158917 $305 $399 forward 7 unknown #
coedge $-1 $214 $394 $209 $308 forward $299 $-1 #
edge $-1 $309 -3.8933067067079459 $218 -0.89330670670794587 $307 $400 forward 7 unknown #
vertex $-1 $395 $401 #
straight-curve $-1 0 -19.874433805469131 -6.2866134134158917 -1 0 0 I I #
coedge $-1 $220 $211 $402 $403 reversed $132 $-1 #
edge $-1 $404 -27.617507067812319 $212 19.874433805469131 $211 $405 forward 7 unknown #
point $-1 55.90380565813166 -19.874433805469131 -6.2866134134158917 #
straight-curve $-1 -55.90380565813166 -11.872985218320363 -3.2866134134158917 0 -1 0 I I #
point $-1 -55.90380565813166 -27.617507067812319 -3.2866134134158917 #
point $-1 -55.90380565813166 -19.874433805469131 -3.2866134134158917 #
edge $-1 $318 -27.617507067812319 $406 27.617507067812319 $220 $407 forward 7 unknown #
vertex $-1 $317 $408 #
straight-curve $-1 55.90380565813166 -27.617507067812319 0 0 0 -1 I I #
plane-surface $-1 55.90380565813166 0 0 -1 0 0 0 0 1 forward_v I I I I #
face $-1 $409 $410 $17 $-1 $411 reversed single #
loop $-1 $-1 $412 $225 #
plane-surface $-1 0 -19.874433805469131 -4.7866134134158917 0 -1 0 0 0 -1 forward_v I I I I #
coedge $-1 $413 $414 $415 $416 reversed $226 $-1 #
coedge $-1 $228 $417 $229 $327 forward $137 $-1 #
coedge $-1 $230 $229 $418 $419 reversed $78 $-1 #
edge $-1 $420 -6.2866134134158917 $240 3.2866134134158917 $229 $421 forward 7 unknown #
coedge $-1 $422 $232 $244 $345 forward $330 $-1 #
coedge $-1 $232 $422 $234 $334 forward $330 $-1 #
loop $-1 $-1 $232 $409 #
vertex $-1 $345 $423 #
straight-curve $-1 0 19.874433805469131 -6.2866134134158917 1 0 0 I I #
coedge $-1 $424 $234 $425 $426 forward $137 $-1 #
edge $-1 $427 -19.874433805469131 $236 19.874433805469131 $234 $428 forward 7 unknown #
point $-1 -55.90380565813166 19.874433805469131 -3.2866134134158917 #
point $-1 -55.90380565813166 19.874433805469131 -6.2866134134158917 #
straight-curve $-1 -55.90380565813166 11.872985218320363 -3.2866134134158917 0 -1 0 I I #
point $-1 -55.90380565813166 27.617507067812319 -3.2866134134158917 #
coedge $-1 $415 $242 $429 $430 forward $149 $-1 #
coedge $-1 $418 $431 $242 $341 forward $432 $-1 #
edge $-1 $433 -27.617507067812319 $342 27.617507067812319 $242 $434 forward 7 unknown #
vertex $-1 $341 $435 #
straight-curve $-1 55.90380565813166 27.617507067812319 0 0 0 -1 I I #
coedge $-1 $244 $415 $412 $436 forward $149 $-1 #
edge $-1 $331 -19.874433805469131 $437 19.874433805469131 $244 $438 forward 7 unknown #
straight-curve $-1 55.90380565813166 19.874433805469131 -2.3933067067079459 0 0 1 I I #
plane-surface $-1 55.90380565813166 0 0 -1 0 0 0 0 1 forward_v I I I I #
face $-1 $439 $440 $18 $-1 $441 reversed single #
loop $-1 $-1 $442 $249 #
plane-surface $-1 0 19.874433805469131 -4.7866134134158917 0 1 0 0 0 1 forward_v I I I I #
coedge $-1 $443 $444 $445 $446 reversed $250 $-1 #
coedge $-1 $252 $447 $448 $449 forward $154 $-1 #
coedge $-1 $448 $262 $253 $354 forward $264 $-1 #
edge $-1 $358 -76.693744499601735 $355 -71.086881417394679 $353 $450 forward 7 unknown #
vertex $-1 $354 $451 #
straight-curve $-1 10.167291070563209 -6.6556024973499106 6.2866134134158926 -1 0 0 I I #
edge $-1 $260 -3.9607235492570432 $358 5.7573095146522881 $262 $452 forward 7 unknown #
vertex $-1 $357 $453 #
straight-curve $-1 -38.914425765577114 -6.6556024973499106 59.928758237912362 -0.84804809178421925 0 0.52991927123019833 I I #
point $-1 46.930949232807315 -6.6556024973499106 6.2866134134158926 #
point $-1 55.903805658131652 3.0624305665594207 0.67975033120884376 #
coedge $-1 $263 $445 $454 $455 reversed $264 $-1 #
face $-1 $-1 $264 $18 $-1 $456 reversed single #
coedge $-1 $447 $266 $457 $458 forward $154 $-1 #
coedge $-1 $454 $459 $266 $366 reversed $440 $-1 #
edge $-1 $367 -55.90380565813166 $460 55.90380565813166 $365 $461 forward 7 unknown #
vertex $-1 $267 $462 #
straight-curve $-1 55.90380565813166 0 6.2866134134158917 0 1 0 I I #
face $-1 $463 $464 $19 $-1 $465 reversed single #
loop $-1 $-1 $466 $270 #
plane-surface $-1 0 0 6.2866134134158917 0 0 1 1 0 0 forward_v I I I I #
coedge $-1 $467 $468 $466 $469 reversed $271 $-1 #
coedge $-1 $470 $374 $379 $471 reversed $273 $-1 #
coedge $-1 $373 $472 $274 $375 reversed $273 $-1 #
edge $-1 $380 101.22701274850256 $473 111.80761131626329 $274 $474 forward 7 unknown #
coedge $-1 $475 $476 $275 $377 forward $477 $-1 #
edge $-1 $381 71.086881417394679 $473 76.693744499601735 $376 $478 forward 7 unknown #
coedge $-1 $479 $276 $476 $480 forward $370 $-1 #
coedge $-1 $276 $466 $373 $471 forward $370 $-1 #
vertex $-1 $471 $481 #
vertex $-1 $480 $482 #
straight-curve $-1 10.167291070563209 3.0624305665594207 6.2866134134158926 1 0 0 I I #
vertex $-1 $278 $483 #
point $-1 49.595518012387146 -1.796585965395245 -2.2630224668044008 #
straight-curve $-1 -55.90380565813166 27.617507067812319 0 0 0 -1 I I #
point $-1 -55.90380565813166 -27.617507067812319 -6.2866134134158917 #
straight-curve $-1 -55.90380565813166 0 -6.2866134134158917 0 1 0 I I #
point $-1 -55.90380565813166 27.617507067812319 -6.2866134134158917 #
loop $-1 $-1 $402 $298 #
plane-surface $-1 0 27.617507067812319 0 0 -1 0 0 0 -1 forward_v I I I I #
coedge $-1 $484 $301 $485 $486 forward $204 $-1 #
coedge $-1 $301 $484 $304 $396 forward $204 $-1 #
coedge $-1 $303 $302 $487 $488 forward $121 $-1 #
coedge $-1 $307 $489 $302 $395 reversed $299 $-1 #
edge $-1 $309 -19.874433805469131 $490 27.617507067812319 $394 $491 forward 7 unknown #
edge $-1 $398 -55.90380565813166 $318 55.90380565813166 $304 $492 forward 7 unknown #
coedge $-1 $489 $305 $484 $493 reversed $299 $-1 #
vertex $-1 $493 $494 #
straight-curve $-1 -55.90380565813166 -27.617507067812319 0 0 0 -1 I I #
straight-curve $-1 -55.90380565813166 -19.874433805469131 -2.3933067067079459 0 0 1 I I #
point $-1 -55.90380565813166 -19.874433805469131 -6.2866134134158917 #
coedge $-1 $487 $485 $311 $403 forward $389 $-1 #
edge $-1 $406 -6.2866134134158917 $404 6.2866134134158917 $311 $495 forward 7 unknown #
vertex $-1 $312 $496 #
straight-curve $-1 55.90380565813166 0 -6.2866134134158917 0 -1 0 I I #
vertex $-1 $317 $497 #
straight-curve $-1 55.90380565813166 0 6.2866134134158917 0 1 0 I I #
point $-1 55.90380565813166 -27.617507067812319 6.2866134134158917 #
face $-1 $498 $330 $17 $-1 $499 reversed single #
loop $-1 $-1 $500 $321 #
plane-surface $-1 0 -27.617507067812319 0 0 1 0 0 0 1 forward_v I I I I #
coedge $-1 $501 $502 $344 $436 reversed $322 $-1 #
coedge $-1 $503 $324 $500 $504 reversed $226 $-1 #
coedge $-1 $324 $503 $501 $505 reversed $226 $-1 #
coedge $-1 $344 $339 $324 $416 forward $149 $-1 #
edge $-1 $506 -15.744521849491957 $507 -8.0014485871487686 $415 $508 forward 7 unknown #
coedge $-1 $325 $509 $510 $511 reversed $137 $-1 #
coedge $-1 $510 $340 $326 $419 forward $432 $-1 #
edge $-1 $342 -55.90380565813166 $420 55.90380565813166 $326 $512 forward 7 unknown #
vertex $-1 $419 $513 #
straight-curve $-1 -55.90380565813166 27.617507067812319 0 0 0 -1 I I #
coedge $-1 $329 $328 $502 $514 forward $330 $-1 #
point $-1 55.90380565813166 19.874433805469131 -6.2866134134158917 #
coedge $-1 $509 $333 $503 $515 forward $137 $-1 #
coedge $-1 $502 $501 $333 $426 reversed $322 $-1 #
edge $-1 $427 -3.8933067067079459 $516 -0.89330670670794587 $333 $517 forward 7 unknown #
vertex $-1 $334 $518 #
straight-curve $-1 -55.90380565813166 0 -6.2866134134158917 0 1 0 I I #
coedge $-1 $519 $500 $339 $430 reversed $410 $-1 #
edge $-1 $433 -6.2866134134158917 $506 3.2866134134158917 $339 $520 forward 7 unknown #
coedge $-1 $340 $510 $519 $521 forward $432 $-1 #
loop $-1 $-1 $340 $498 #
vertex $-1 $341 $522 #
straight-curve $-1 55.90380565813166 0 6.2866134134158917 0 1 0 I I #
point $-1 55.90380565813166 27.617507067812319 6.2866134134158917 #
edge $-1 $507 0.89330670670794587 $437 3.8933067067079459 $344 $523 forward 7 unknown #
vertex $-1 $514 $524 #
straight-curve $-1 55.90380565813166 0 -6.2866134134158917 0 -1 0 I I #
face $-1 $525 $526 $18 $-1 $527 reversed single #
loop $-1 $-1 $528 $348 #
plane-surface $-1 0 27.617507067812319 0 0 -1 0 0 0 -1 forward_v I I I I #
coedge $-1 $529 $530 $531 $532 reversed $349 $-1 #
coedge $-1 $533 $351 $529 $534 reversed $250 $-1 #
coedge $-1 $351 $533 $528 $535 reversed $250 $-1 #
coedge $-1 $362 $536 $351 $446 forward $264 $-1 #
edge $-1 $537 8.0014485871487686 $538 15.744521849491957 $445 $539 forward 7 unknown #
coedge $-1 $352 $364 $540 $541 forward $154 $-1 #
coedge $-1 $542 $353 $352 $449 reversed $264 $-1 #
edge $-1 $543 -27.617507067812319 $355 -6.6556024973499106 $448 $368 forward 7 unknown #
straight-curve $-1 55.90380565813166 -6.6556024973499106 77.373494830810571 0 0 1 I I #
point $-1 55.90380565813166 -6.6556024973499106 6.2866134134158917 #
straight-curve $-1 55.903805658131667 -0.89829298269762248 0.6797503312088331 0 -1 0 I I #
point $-1 55.903805658131652 -6.6556024973499106 0.67975033120884376 #
coedge $-1 $528 $365 $362 $455 forward $440 $-1 #
edge $-1 $367 -6.2866134134158917 $538 3.2866134134158917 $362 $544 forward 7 unknown #
plane-surface $-1 55.90380565813166 0 0 -1 0 0 0 0 1 forward_v I I I I #
coedge $-1 $545 $546 $364 $458 reversed $526 $-1 #
edge $-1 $460 -27.617507067812319 $547 27.617507067812319 $457 $548 forward 7 unknown #
coedge $-1 $365 $528 $545 $549 reversed $440 $-1 #
vertex $-1 $366 $550 #
straight-curve $-1 0 27.617507067812319 6.2866134134158917 -1 0 0 I I #
point $-1 55.90380565813166 27.617507067812319 6.2866134134158917 #
face $-1 $551 $552 $19 $-1 $553 forward single #
loop $-1 $-1 $554 $369 #
plane-surface $-1 0 23.745970436640725 -3.2866134134158917 0 0 1 1 0 0 forward_v I I I I #
coedge $-1 $379 $555 $372 $469 forward $370 $-1 #
coedge $-1 $468 $372 $556 $557 reversed $271 $-1 #
coedge $-1 $372 $467 $470 $558 forward $271 $-1 #
edge $-1 $559 -45.73651458756845 $560 -36.763658162244106 $466 $561 forward 7 unknown #
coedge $-1 $472 $373 $468 $558 reversed $273 $-1 #
edge $-1 $560 -5.7573095146522881 $380 3.9607235492570432 $379 $562 forward 7 unknown #
coedge $-1 $374 $470 $475 $563 reversed $273 $-1 #
vertex $-1 $563 $564 #
straight-curve $-1 -38.914425765577114 3.0624305665594207 59.928758237912362 0.84804809178421925 0 -0.52991927123019833 I I #
coedge $-1 $556 $376 $472 $563 forward $477 $-1 #
coedge $-1 $376 $565 $378 $480 reversed $477 $-1 #
loop $-1 $-1 $556 $566 #
straight-curve $-1 55.90380565813166 3.0624305665594207 77.373494830810571 0 0 -1 I I #
coedge $-1 $567 $378 $568 $569 forward $370 $-1 #
edge $-1 $381 3.0624305665594207 $570 27.617507067812319 $476 $571 forward 7 unknown #
point $-1 46.930949232807315 3.0624305665594207 6.2866134134158926 #
point $-1 55.90380565813166 3.0624305665594207 6.2866134134158917 #
point $-1 47.528566967865515 -1.796585965395245 -2.7402156976354322 #
coedge $-1 $392 $391 $397 $493 forward $204 $-1 #
coedge $-1 $402 $572 $391 $486 reversed $389 $-1 #
edge $-1 $406 -55.90380565813166 $573 55.90380565813166 $485 $574 forward 7 unknown #
coedge $-1 $572 $402 $393 $488 reversed $389 $-1 #
edge $-1 $490 -55.90380565813166 $404 55.90380565813166 $487 $575 forward 7 unknown #
coedge $-1 $394 $397 $572 $576 forward $299 $-1 #
vertex $-1 $488 $577 #
straight-curve $-1 -55.90380565813166 0 -6.2866134134158917 0 1 0 I I #
straight-curve $-1 0 -27.617507067812319 6.2866134134158917 1 0 0 I I #
edge $-1 $573 -27.617507067812319 $398 27.617507067812319 $397 $578 forward 7 unknown #
point $-1 -55.90380565813166 -27.617507067812319 6.2866134134158917 #
straight-curve $-1 55.90380565813166 27.617507067812319 0 0 0 -1 I I #
point $-1 55.90380565813166 27.617507067812319 -6.2866134134158917 #
point $-1 55.90380565813166 27.617507067812319 6.2866134134158917 #
face $-1 $246 $432 $17 $-1 $579 forward single #
plane-surface $-1 0 0 -6.2866134134158917 0 0 1 1 0 0 forward_v I I I I #
coedge $-1 $429 $580 $413 $504 forward $410 $-1 #
coedge $-1 $425 $412 $414 $505 forward $322 $-1 #
coedge $-1 $412 $425 $422 $514 reversed $322 $-1 #
coedge $-1 $414 $413 $424 $515 reversed $226 $-1 #
edge $-1 $581 -55.90380565813166 $506 55.90380565813166 $500 $582 forward 7 unknown #
edge $-1 $507 -55.90380565813166 $516 55.90380565813166 $501 $583 forward 7 unknown #
vertex $-1 $504 $584 #
vertex $-1 $416 $585 #
straight-curve $-1 55.90380565813166 -11.872985218320363 -3.2866134134158917 0 1 0 I I #
coedge $-1 $417 $424 $580 $586 reversed $137 $-1 #
coedge $-1 $431 $418 $417 $511 forward $432 $-1 #
edge $-1 $420 -27.617507067812319 $587 27.617507067812319 $417 $588 forward 7 unknown #
straight-curve $-1 0 27.617507067812319 6.2866134134158917 -1 0 0 I I #
point $-1 -55.90380565813166 27.617507067812319 6.2866134134158917 #
edge $-1 $437 -55.90380565813166 $427 55.90380565813166 $422 $589 forward 7 unknown #
edge $-1 $516 8.0014485871487686 $581 15.744521849491957 $424 $590 forward 7 unknown #
vertex $-1 $515 $591 #
straight-curve $-1 -55.90380565813166 -19.874433805469131 -2.3933067067079459 0 0 1 I I #
point $-1 -55.90380565813166 -19.874433805469131 -6.2866134134158917 #
coedge $-1 $580 $429 $431 $521 reversed $410 $-1 #
straight-curve $-1 55.90380565813166 -27.617507067812319 0 0 0 -1 I I #
edge $-1 $587 -55.90380565813166 $433 55.90380565813166 $519 $592 forward 7 unknown #
point $-1 55.90380565813166 -27.617507067812319 6.2866134134158917 #
straight-curve $-1 55.90380565813166 -19.874433805469131 -2.3933067067079459 0 0 -1 I I #
point $-1 55.90380565813166 -19.874433805469131 -6.2866134134158917 #
face $-1 $593 $594 $18 $-1 $595 reversed single #
loop $-1 $-1 $596 $439 #
plane-surface $-1 -55.90380565813166 0 0 1 0 0 0 0 -1 forward_v I I I I #
coedge $-1 $459 $454 $444 $535 forward $440 $-1 #
coedge $-1 $597 $442 $443 $534 forward $349 $-1 #
coedge $-1 $442 $597 $598 $599 reversed $349 $-1 #
coedge $-1 $600 $596 $442 $532 forward $526 $-1 #
edge $-1 $601 0.89330670670794587 $602 3.8933067067079459 $531 $603 forward 7 unknown #
coedge $-1 $444 $443 $596 $604 reversed $250 $-1 #
edge $-1 $601 -55.90380565813166 $537 55.90380565813166 $529 $605 forward 7 unknown #
edge $-1 $538 -55.90380565813166 $606 55.90380565813166 $528 $607 forward 7 unknown #
coedge $-1 $445 $608 $597 $609 forward $264 $-1 #
vertex $-1 $446 $610 #
vertex $-1 $535 $611 #
straight-curve $-1 55.90380565813166 11.872985218320363 -3.2866134134158917 0 1 0 I I #
coedge $-1 $612 $613 $447 $541 reversed $614 $-1 #
edge $-1 $547 -55.90380565813166 $543 55.90380565813166 $540 $615 forward 7 unknown #
coedge $-1 $616 $448 $613 $617 forward $264 $-1 #
vertex $-1 $449 $618 #
straight-curve $-1 55.90380565813166 27.617507067812319 0 0 0 -1 I I #
coedge $-1 $596 $457 $459 $549 forward $526 $-1 #
coedge $-1 $457 $619 $612 $620 reversed $526 $-1 #
vertex $-1 $458 $621 #
straight-curve $-1 -55.90380565813166 0 6.2866134134158917 0 -1 0 I I #
edge $-1 $460 -6.2866134134158917 $606 3.2866134134158917 $459 $622 forward 7 unknown #
point $-1 -55.90380565813166 27.617507067812319 6.2866134134158917 #
face $-1 $623 $624 $19 $-1 $625 reversed single #
loop $-1 $-1 $626 $463 #
plane-surface $-1 0 19.874433805469131 -4.7866134134158917 0 1 0 0 0 1 forward_v I I I I #
coedge $-1 $627 $628 $629 $630 reversed $464 $-1 #
coedge $-1 $466 $631 $632 $633 forward $370 $-1 #
coedge $-1 $632 $475 $467 $557 forward $477 $-1 #
edge $-1 $634 -76.693744499601735 $559 -71.086881417394679 $556 $635 forward 7 unknown #
edge $-1 $634 -111.80761131626329 $560 -101.22701274850256 $468 $636 forward 7 unknown #
vertex $-1 $557 $637 #
vertex $-1 $471 $638 #
straight-curve $-1 10.167291070563209 -6.6556024973499106 6.2866134134158926 -1 0 0 I I #
straight-curve $-1 46.930949232807322 -0.89829298269762248 6.2866134134158855 0 1 0 I I #
edge $-1 $473 -3.9607235492570432 $634 5.7573095146522881 $475 $639 forward 7 unknown #
point $-1 55.903805658131652 3.0624305665594207 0.67975033120884376 #
coedge $-1 $476 $629 $640 $641 reversed $477 $-1 #
face $-1 $-1 $477 $19 $-1 $642 reversed single #
coedge $-1 $631 $479 $643 $644 forward $370 $-1 #
coedge $-1 $640 $645 $479 $569 reversed $624 $-1 #
edge $-1 $570 -55.90380565813166 $646 55.90380565813166 $568 $647 forward 7 unknown #
vertex $-1 $480 $648 #
straight-curve $-1 55.90380565813166 0 6.2866134134158917 0 1 0 I I #
coedge $-1 $485 $487 $489 $576 reversed $389 $-1 #
vertex $-1 $486 $649 #
straight-curve $-1 0 27.617507067812319 6.2866134134158917 -1 0 0 I I #
straight-curve $-1 0 27.617507067812319 -6.2866134134158917 1 0 0 I I #
edge $-1 $573 -6.2866134134158917 $490 6.2866134134158917 $572 $650 forward 7 unknown #
point $-1 -55.90380565813166 27.617507067812319 -6.2866134134158917 #
straight-curve $-1 -55.90380565813166 0 6.2866134134158917 0 -1 0 I I #
plane-surface $-1 0 0 6.2866134134158917 0 0 1 1 0 0 forward_v I I I I #
coedge $-1 $500 $519 $509 $586 forward $410 $-1 #
vertex $-1 $504 $651 #
straight-curve $-1 0 -27.617507067812319 -3.2866134134158917 1 0 0 I I #
straight-curve $-1 0 -19.874433805469131 -3.2866134134158917 -1 0 0 I I #
point $-1 55.90380565813166 -27.617507067812319 -3.2866134134158917 #
point $-1 55.90380565813166 -19.874433805469131 -3.2866134134158917 #
edge $-1 $587 -6.2866134134158917 $581 3.2866134134158917 $509 $652 forward 7 unknown #
vertex $-1 $511 $653 #
straight-curve $-1 -55.90380565813166 0 6.2866134134158917 0 -1 0 I I #
straight-curve $-1 0 -19.874433805469131 -6.2866134134158917 -1 0 0 I I #
straight-curve $-1 -55.90380565813166 -11.872985218320363 -3.2866134134158917 0 -1 0 I I #
point $-1 -55.90380565813166 -19.874433805469131 -3.2866134134158917 #
straight-curve $-1 0 -27.617507067812319 6.2866134134158917 1 0 0 I I #
face $-1 $654 $655 $18 $-1 $656 forward single #
loop $-1 $-1 $657 $525 #
plane-surface $-1 0 -23.745970436640725 -3.2866134134158917 0 0 1 1 0 0 forward_v I I I I #
coedge $-1 $531 $545 $533 $604 forward $526 $-1 #
coedge $-1 $530 $529 $536 $609 reversed $349 $-1 #
coedge $-1 $658 $659 $530 $599 forward $660 $-1 #
edge $-1 $602 -55.90380565813166 $661 55.90380565813166 $598 $662 forward 7 unknown #
coedge $-1 $663 $531 $659 $664 reversed $526 $-1 #
vertex $-1 $604 $665 #
vertex $-1 $532 $666 #
straight-curve $-1 -55.90380565813166 19.874433805469131 -2.3933067067079459 0 0 -1 I I #
edge $-1 $606 -15.744521849491957 $601 -8.0014485871487686 $596 $667 forward 7 unknown #
straight-curve $-1 0 19.874433805469131 -3.2866134134158917 1 0 0 I I #
vertex $-1 $604 $668 #
straight-curve $-1 0 27.617507067812319 -3.2866134134158917 -1 0 0 I I #
coedge $-1 $536 $669 $658 $670 reversed $264 $-1 #
edge $-1 $661 -3.8933067067079459 $537 -0.89330670670794587 $536 $671 forward 7 unknown #
point $-1 55.90380565813166 19.874433805469131 -3.2866134134158917 #
point $-1 55.90380565813166 27.617507067812319 -3.2866134134158917 #
coedge $-1 $672 $540 $546 $620 forward $614 $-1 #
coedge $-1 $540 $672 $542 $617 reversed $614 $-1 #
loop $-1 $-1 $672 $654 #
straight-curve $-1 0 -27.617507067812319 6.2866134134158917 1 0 0 I I #
coedge $-1 $669 $542 $657 $673 forward $264 $-1 #
edge $-1 $543 -6.2866134134158917 $674 3.2866134134158917 $542 $675 forward 7 unknown #
point $-1 55.90380565813166 -27.617507067812319 6.2866134134158917 #
coedge $-1 $546 $663 $676 $677 forward $526 $-1 #
edge $-1 $547 -6.2866134134158917 $678 3.2866134134158917 $546 $679 forward 7 unknown #
point $-1 -55.90380565813166 -27.617507067812319 6.2866134134158917 #
straight-curve $-1 -55.90380565813166 27.617507067812319 0 0 0 -1 I I #
face $-1 $680 $681 $19 $-1 $682 reversed single #
loop $-1 $-1 $683 $551 #
plane-surface $-1 0 27.617507067812319 0 0 -1 0 0 0 -1 forward_v I I I I #
coedge $-1 $684 $685 $686 $687 reversed $552 $-1 #
coedge $-1 $688 $554 $684 $689 reversed $464 $-1 #
coedge $-1 $554 $688 $683 $690 reversed $464 $-1 #
coedge $-1 $565 $691 $554 $630 forward $477 $-1 #
edge $-1 $692 8.0014485871487686 $693 15.744521849491957 $629 $694 forward 7 unknown #
coedge $-1 $555 $567 $695 $696 forward $370 $-1 #
coedge $-1 $697 $556 $555 $633 reversed $477 $-1 #
edge $-1 $698 -27.617507067812319 $559 -6.6556024973499106 $632 $571 forward 7 unknown #
vertex $-1 $563 $699 #
straight-curve $-1 55.90380565813166 -6.6556024973499106 77.373494830810571 0 0 1 I I #
straight-curve $-1 -38.914425765577114 -6.6556024973499106 59.928758237912362 -0.84804809178421925 0 0.52991927123019833 I I #
point $-1 55.90380565813166 -6.6556024973499106 6.2866134134158917 #
point $-1 46.930949232807315 -6.6556024973499106 6.2866134134158926 #
straight-curve $-1 55.903805658131667 -0.89829298269762248 0.6797503312088331 0 -1 0 I I #
coedge $-1 $683 $568 $565 $641 forward $624 $-1 #
edge $-1 $570 -6.2866134134158917 $693 3.2866134134158917 $565 $700 forward 7 unknown #
plane-surface $-1 55.90380565813166 0 0 -1 0 0 0 0 1 forward_v I I I I #
coedge $-1 $701 $702 $567 $644 reversed $681 $-1 #
edge $-1 $646 -27.617507067812319 $703 27.617507067812319 $643 $704 forward 7 unknown #
coedge $-1 $568 $683 $701 $705 reversed $624 $-1 #
vertex $-1 $569 $706 #
straight-curve $-1 0 27.617507067812319 6.2866134134158917 -1 0 0 I I #
point $-1 55.90380565813166 27.617507067812319 6.2866134134158917 #
point $-1 -55.90380565813166 27.617507067812319 6.2866134134158917 #
straight-curve $-1 -55.90380565813166 27.617507067812319 0 0 0 -1 I I #
point $-1 -55.90380565813166 -27.617507067812319 -3.2866134134158917 #
straight-curve $-1 -55.90380565813166 -27.617507067812319 0 0 0 -1 I I #
point $-1 -55.90380565813166 -27.617507067812319 6.2866134134158917 #
face $-1 $707 $614 $18 $-1 $708 reversed single #
loop $-1 $-1 $709 $593 #
plane-surface $-1 0 -19.874433805469131 -4.7866134134158917 0 -1 0 0 0 -1 forward_v I I I I #
coedge $-1 $710 $711 $616 $673 reversed $594 $-1 #
coedge $-1 $712 $598 $608 $670 forward $660 $-1 #
coedge $-1 $598 $712 $600 $664 forward $660 $-1 #
loop $-1 $-1 $598 $707 #
vertex $-1 $670 $713 #
straight-curve $-1 0 19.874433805469131 -6.2866134134158917 1 0 0 I I #
coedge $-1 $619 $600 $714 $715 forward $526 $-1 #
edge $-1 $716 -19.874433805469131 $602 19.874433805469131 $600 $717 forward 7 unknown #
point $-1 -55.90380565813166 19.874433805469131 -3.2866134134158917 #
point $-1 -55.90380565813166 19.874433805469131 -6.2866134134158917 #
straight-curve $-1 -55.90380565813166 11.872985218320363 -3.2866134134158917 0 -1 0 I I #
point $-1 -55.90380565813166 27.617507067812319 -3.2866134134158917 #
coedge $-1 $608 $616 $709 $718 forward $264 $-1 #
edge $-1 $661 -19.874433805469131 $719 19.874433805469131 $608 $720 forward 7 unknown #
straight-curve $-1 55.90380565813166 19.874433805469131 -2.3933067067079459 0 0 1 I I #
coedge $-1 $613 $612 $710 $721 forward $614 $-1 #
edge $-1 $674 -15.744521849491957 $722 -8.0014485871487686 $616 $723 forward 7 unknown #
vertex $-1 $721 $724 #
straight-curve $-1 55.90380565813166 -27.617507067812319 0 0 0 -1 I I #
coedge $-1 $711 $710 $619 $677 reversed $594 $-1 #
edge $-1 $725 8.0014485871487686 $678 15.744521849491957 $619 $726 forward 7 unknown #
vertex $-1 $721 $727 #
straight-curve $-1 -55.90380565813166 -27.617507067812319 0 0 0 -1 I I #
face $-1 $728 $729 $19 $-1 $730 reversed single #
loop $-1 $-1 $731 $623 #
plane-surface $-1 -55.90380565813166 0 0 1 0 0 0 0 -1 forward_v I I I I #
coedge $-1 $645 $640 $628 $690 forward $624 $-1 #
coedge $-1 $732 $626 $627 $689 forward $552 $-1 #
coedge $-1 $626 $732 $733 $734 reversed $552 $-1 #
coedge $-1 $735 $731 $626 $687 forward $681 $-1 #
edge $-1 $736 0.89330670670794587 $737 3.8933067067079459 $686 $738 forward 7 unknown #
coedge $-1 $628 $627 $731 $739 reversed $464 $-1 #
edge $-1 $736 -55.90380565813166 $692 55.90380565813166 $684 $740 forward 7 unknown #
edge $-1 $693 -55.90380565813166 $741 55.90380565813166 $683 $742 forward 7 unknown #
coedge $-1 $629 $743 $732 $744 forward $477 $-1 #
vertex $-1 $630 $745 #
vertex $-1 $690 $746 #
straight-curve $-1 55.90380565813166 11.872985218320363 -3.2866134134158917 0 1 0 I I #
coedge $-1 $747 $748 $631 $696 reversed $749 $-1 #
edge $-1 $703 -55.90380565813166 $698 55.90380565813166 $695 $750 forward 7 unknown #
coedge $-1 $751 $632 $748 $752 forward $477 $-1 #
vertex $-1 $633 $753 #
point $-1 55.903805658131652 -6.6556024973499106 0.67975033120884376 #
straight-curve $-1 55.90380565813166 27.617507067812319 0 0 0 -1 I I #
coedge $-1 $731 $643 $645 $705 forward $681 $-1 #
coedge $-1 $643 $754 $747 $755 reversed $681 $-1 #
vertex $-1 $644 $756 #
straight-curve $-1 -55.90380565813166 0 6.2866134134158917 0 -1 0 I I #
edge $-1 $646 -6.2866134134158917 $741 3.2866134134158917 $645 $757 forward 7 unknown #
point $-1 -55.90380565813166 27.617507067812319 6.2866134134158917 #
face $-1 $363 $660 $18 $-1 $758 reversed single #
plane-surface $-1 0 -27.617507067812319 0 0 1 0 0 0 1 forward_v I I I I #
coedge $-1 $759 $760 $669 $718 reversed $655 $-1 #
coedge $-1 $676 $657 $672 $721 reversed $594 $-1 #
coedge $-1 $657 $676 $759 $761 reversed $594 $-1 #
coedge $-1 $659 $658 $760 $762 forward $660 $-1 #
point $-1 55.90380565813166 19.874433805469131 -6.2866134134158917 #
coedge $-1 $760 $759 $663 $715 reversed $655 $-1 #
edge $-1 $716 -3.8933067067079459 $725 -0.89330670670794587 $663 $763 forward 7 unknown #
vertex $-1 $664 $764 #
straight-curve $-1 -55.90380565813166 0 -6.2866134134158917 0 1 0 I I #
edge $-1 $722 0.89330670670794587 $719 3.8933067067079459 $669 $765 forward 7 unknown #
vertex $-1 $762 $766 #
straight-curve $-1 55.90380565813166 0 -6.2866134134158917 0 -1 0 I I #
edge $-1 $678 -55.90380565813166 $674 55.90380565813166 $672 $767 forward 7 unknown #
vertex $-1 $673 $768 #
straight-curve $-1 55.90380565813166 -11.872985218320363 -3.2866134134158917 0 1 0 I I #
point $-1 55.90380565813166 -27.617507067812319 -3.2866134134158917 #
vertex $-1 $677 $769 #
straight-curve $-1 -55.90380565813166 -11.872985218320363 -3.2866134134158917 0 -1 0 I I #
point $-1 -55.90380565813166 -27.617507067812319 -3.2866134134158917 #
face $-1 $770 $771 $19 $-1 $772 forward single #
loop $-1 $-1 $773 $680 #
plane-surface $-1 0 -23.745970436640725 -3.2866134134158917 0 0 1 1 0 0 forward_v I I I I #
coedge $-1 $686 $701 $688 $739 forward $681 $-1 #
coedge $-1 $685 $684 $691 $744 reversed $552 $-1 #
coedge $-1 $774 $775 $685 $734 forward $776 $-1 #
edge $-1 $737 -55.90380565813166 $777 55.90380565813166 $733 $778 forward 7 unknown #
coedge $-1 $779 $686 $775 $780 reversed $681 $-1 #
vertex $-1 $739 $781 #
vertex $-1 $687 $782 #
straight-curve $-1 -55.90380565813166 19.874433805469131 -2.3933067067079459 0 0 -1 I I #
edge $-1 $741 -15.744521849491957 $736 -8.0014485871487686 $731 $783 forward 7 unknown #
straight-curve $-1 0 19.874433805469131 -3.2866134134158917 1 0 0 I I #
vertex $-1 $739 $784 #
straight-curve $-1 0 27.617507067812319 -3.2866134134158917 -1 0 0 I I #
coedge $-1 $691 $785 $774 $786 reversed $477 $-1 #
edge $-1 $777 -3.8933067067079459 $692 -0.89330670670794587 $691 $787 forward 7 unknown #
point $-1 55.90380565813166 19.874433805469131 -3.2866134134158917 #
point $-1 55.90380565813166 27.617507067812319 -3.2866134134158917 #
coedge $-1 $788 $695 $702 $755 forward $749 $-1 #
coedge $-1 $695 $788 $697 $752 reversed $749 $-1 #
loop $-1 $-1 $788 $770 #
straight-curve $-1 0 -27.617507067812319 6.2866134134158917 1 0 0 I I #
coedge $-1 $785 $697 $773 $789 forward $477 $-1 #
edge $-1 $698 -6.2866134134158917 $790 3.2866134134158917 $697 $791 forward 7 unknown #
point $-1 55.90380565813166 -27.617507067812319 6.2866134134158917 #
coedge $-1 $702 $779 $792 $793 forward $681 $-1 #
edge $-1 $703 -6.2866134134158917 $794 3.2866134134158917 $702 $795 forward 7 unknown #
point $-1 -55.90380565813166 -27.617507067812319 6.2866134134158917 #
straight-curve $-1 -55.90380565813166 27.617507067812319 0 0 0 -1 I I #
plane-surface $-1 0 0 -6.2866134134158917 0 0 1 1 0 0 forward_v I I I I #
coedge $-1 $714 $709 $711 $761 forward $655 $-1 #
coedge $-1 $709 $714 $712 $762 reversed $655 $-1 #
edge $-1 $722 -55.90380565813166 $725 55.90380565813166 $759 $796 forward 7 unknown #
edge $-1 $719 -55.90380565813166 $716 55.90380565813166 $712 $797 forward 7 unknown #
straight-curve $-1 -55.90380565813166 -19.874433805469131 -2.3933067067079459 0 0 1 I I #
point $-1 -55.90380565813166 -19.874433805469131 -6.2866134134158917 #
straight-curve $-1 55.90380565813166 -19.874433805469131 -2.3933067067079459 0 0 -1 I I #
point $-1 55.90380565813166 -19.874433805469131 -6.2866134134158917 #
straight-curve $-1 0 -27.617507067812319 -3.2866134134158917 1 0 0 I I #
point $-1 55.90380565813166 -19.874433805469131 -3.2866134134158917 #
point $-1 -55.90380565813166 -19.874433805469131 -3.2866134134158917 #
face $-1 $798 $749 $19 $-1 $799 reversed single #
loop $-1 $-1 $800 $728 #
plane-surface $-1 0 -19.874433805469131 -4.7866134134158917 0 -1 0 0 0 -1 forward_v I I I I #
coedge $-1 $801 $802 $751 $789 reversed $729 $-1 #
coedge $-1 $803 $733 $743 $786 forward $776 $-1 #
coedge $-1 $733 $803 $735 $780 forward $776 $-1 #
loop $-1 $-1 $733 $798 #
vertex $-1 $786 $804 #
straight-curve $-1 0 19.874433805469131 -6.2866134134158917 1 0 0 I I #
coedge $-1 $754 $735 $805 $806 forward $681 $-1 #
edge $-1 $807 -19.874433805469131 $737 19.874433805469131 $735 $808 forward 7 unknown #
point $-1 -55.90380565813166 19.874433805469131 -3.2866134134158917 #
point $-1 -55.90380565813166 19.874433805469131 -6.2866134134158917 #
straight-curve $-1 -55.90380565813166 11.872985218320363 -3.2866134134158917 0 -1 0 I I #
point $-1 -55.90380565813166 27.617507067812319 -3.2866134134158917 #
coedge $-1 $743 $751 $800 $809 forward $477 $-1 #
edge $-1 $777 -19.874433805469131 $810 19.874433805469131 $743 $811 forward 7 unknown #
straight-curve $-1 55.90380565813166 19.874433805469131 -2.3933067067079459 0 0 1 I I #
coedge $-1 $748 $747 $801 $812 forward $749 $-1 #
edge $-1 $790 -15.744521849491957 $813 -8.0014485871487686 $751 $814 forward 7 unknown #
vertex $-1 $812 $815 #
straight-curve $-1 55.90380565813166 -27.617507067812319 0 0 0 -1 I I #
coedge $-1 $802 $801 $754 $793 reversed $729 $-1 #
edge $-1 $816 8.0014485871487686 $794 15.744521849491957 $754 $817 forward 7 unknown #
vertex $-1 $812 $818 #
straight-curve $-1 -55.90380565813166 -27.617507067812319 0 0 0 -1 I I #
straight-curve $-1 0 -19.874433805469131 -3.2866134134158917 -1 0 0 I I #
straight-curve $-1 0 -19.874433805469131 -6.2866134134158917 -1 0 0 I I #
face $-1 $566 $776 $19 $-1 $819 reversed single #
plane-surface $-1 0 -27.617507067812319 0 0 1 0 0 0 1 forward_v I I I I #
coedge $-1 $820 $821 $785 $809 reversed $771 $-1 #
coedge $-1 $792 $773 $788 $812 reversed $729 $-1 #
coedge $-1 $773 $792 $820 $822 reversed $729 $-1 #
coedge $-1 $775 $774 $821 $823 forward $776 $-1 #
point $-1 55.90380565813166 19.874433805469131 -6.2866134134158917 #
coedge $-1 $821 $820 $779 $806 reversed $771 $-1 #
edge $-1 $807 -3.8933067067079459 $816 -0.89330670670794587 $779 $824 forward 7 unknown #
vertex $-1 $780 $825 #
straight-curve $-1 -55.90380565813166 0 -6.2866134134158917 0 1 0 I I #
edge $-1 $813 0.89330670670794587 $810 3.8933067067079459 $785 $826 forward 7 unknown #
vertex $-1 $823 $827 #
straight-curve $-1 55.90380565813166 0 -6.2866134134158917 0 -1 0 I I #
edge $-1 $794 -55.90380565813166 $790 55.90380565813166 $788 $828 forward 7 unknown #
vertex $-1 $789 $829 #
straight-curve $-1 55.90380565813166 -11.872985218320363 -3.2866134134158917 0 1 0 I I #
point $-1 55.90380565813166 -27.617507067812319 -3.2866134134158917 #
vertex $-1 $793 $830 #
straight-curve $-1 -55.90380565813166 -11.872985218320363 -3.2866134134158917 0 -1 0 I I #
point $-1 -55.90380565813166 -27.617507067812319 -3.2866134134158917 #
plane-surface $-1 0 0 -6.2866134134158917 0 0 1 1 0 0 forward_v I I I I #
coedge $-1 $805 $800 $802 $822 forward $771 $-1 #
coedge $-1 $800 $805 $803 $823 reversed $771 $-1 #
edge $-1 $813 -55.90380565813166 $816 55.90380565813166 $820 $831 forward 7 unknown #
edge $-1 $810 -55.90380565813166 $807 55.90380565813166 $803 $832 forward 7 unknown #
straight-curve $-1 -55.90380565813166 -19.874433805469131 -2.3933067067079459 0 0 1 I I #
point $-1 -55.90380565813166 -19.874433805469131 -6.2866134134158917 #
straight-curve $-1 55.90380565813166 -19.874433805469131 -2.3933067067079459 0 0 -1 I I #
point $-1 55.90380565813166 -19.874433805469131 -6.2866134134158917 #
straight-curve $-1 0 -27.617507067812319 -3.2866134134158917 1 0 0 I I #
point $-1 55.90380565813166 -19.874433805469131 -3.2866134134158917 #
point $-1 -55.90380565813166 -19.874433805469131 -3.2866134134158917 #
straight-curve $-1 0 -19.874433805469131 -3.2866134134158917 -1 0 0 I I #
straight-curve $-1 0 -19.874433805469131 -6.2866134134158917 -1 0 0 I I #
End-of-ACIS-data 