500 0 11 0           
7 Unknown 11 ACIS 5.0 NT 24 Thu Mar 25 16:31:42 1999 
-1 9.9999999999999995e-007 1e-010 
body $-1 $11 $-1 $12 #
body $-1 $13 $-1 $14 #
body $-1 $15 $-1 $16 #
body $-1 $17 $-1 $18 #
body $-1 $19 $-1 $20 #
body $-1 $21 $-1 $22 #
body $-1 $23 $-1 $24 #
body $-1 $25 $-1 $26 #
body $-1 $27 $-1 $28 #
body $-1 $29 $-1 $30 #
body $-1 $31 $-1 $32 #
lump $-1 $-1 $33 $0 #
transform $-1 1 0 0 0 1 0 0 0 1 64.293954283272797 44.191669617843253 17.707956849338721 1 rotate no_reflect no_shear #
lump $-1 $-1 $34 $1 #
transform $-1 1 0 0 0 1 0 0 0 1 64.293954283272797 44.191669617843253 17.707956849338721 1 rotate no_reflect no_shear #
lump $-1 $-1 $35 $2 #
transform $-1 1 0 0 0 1 0 0 0 1 64.293954283272797 44.191669617843253 17.707956849338721 1 rotate no_reflect no_shear #
lump $-1 $-1 $36 $3 #
transform $-1 1 0 0 0 1 0 0 0 1 64.293954283272797 44.191669617843253 17.707956849338721 1 rotate no_reflect no_shear #
lump $-1 $-1 $37 $4 #
transform $-1 1 0 0 0 1 0 0 0 1 64.293954283272797 44.191669617843253 17.707956849338721 1 rotate no_reflect no_shear #
lump $-1 $-1 $38 $5 #
transform $-1 1 0 0 0 1 0 0 0 1 64.293954283272797 44.191669617843253 17.707956849338721 1 rotate no_reflect no_shear #
lump $-1 $-1 $39 $6 #
transform $-1 1 0 0 0 1 0 0 0 1 64.293954283272797 44.191669617843253 17.707956849338721 1 rotate no_reflect no_shear #
lump $-1 $-1 $40 $7 #
transform $-1 1 0 0 0 1 0 0 0 1 64.293954283272797 44.191669617843253 17.707956849338721 1 rotate no_reflect no_shear #
lump $-1 $-1 $41 $8 #
transform $-1 1 0 0 0 1 0 0 0 1 64.293954283272797 44.191669617843253 17.707956849338721 1 rotate no_reflect no_shear #
lump $-1 $-1 $42 $9 #
transform $-1 1 0 0 0 1 0 0 0 1 64.293954283272797 44.191669617843253 17.707956849338721 1 rotate no_reflect no_shear #
lump $-1 $-1 $43 $10 #
transform $-1 1 0 0 0 1 0 0 0 1 64.293954283272797 44.191669617843253 17.707956849338721 1 rotate no_reflect no_shear #
shell $-1 $-1 $-1 $44 $-1 $11 #
shell $-1 $-1 $-1 $45 $-1 $13 #
shell $-1 $-1 $-1 $46 $-1 $15 #
shell $-1 $-1 $-1 $47 $-1 $17 #
shell $-1 $-1 $-1 $48 $-1 $19 #
shell $-1 $-1 $-1 $49 $-1 $21 #
shell $-1 $-1 $-1 $50 $-1 $23 #
shell $-1 $-1 $-1 $51 $-1 $25 #
shell $-1 $-1 $-1 $52 $-1 $27 #
shell $-1 $-1 $-1 $53 $-1 $29 #
shell $-1 $-1 $-1 $54 $-1 $31 #
face $-1 $55 $56 $33 $-1 $57 forward single #
face $-1 $58 $59 $34 $-1 $60 forward single #
face $-1 $61 $62 $35 $-1 $63 reversed single #
face $-1 $64 $65 $36 $-1 $66 forward single #
face $-1 $67 $68 $37 $-1 $69 forward single #
face $-1 $70 $71 $38 $-1 $72 reversed single #
face $-1 $73 $74 $39 $-1 $75 forward single #
face $-1 $76 $77 $40 $-1 $78 forward single #
face $-1 $79 $80 $41 $-1 $81 reversed single #
face $-1 $82 $83 $42 $-1 $84 forward single #
face $-1 $85 $86 $43 $-1 $87 forward single #
face $-1 $88 $89 $33 $-1 $90 reversed single #
loop $-1 $-1 $91 $44 #
plane-surface $-1 0 0 17.707956849338721 0 0 1 1 0 0 forward_v I I I I #
face $-1 $92 $93 $34 $-1 $94 reversed single #
loop $-1 $-1 $95 $45 #
plane-surface $-1 -57.148098984077549 0 -11.691672159835615 0 0 1 1 0 0 forward_v I I I I #
face $-1 $96 $97 $35 $-1 $98 reversed single #
loop $-1 $-1 $99 $46 #
plane-surface $-1 26.347341586633569 -128.55292907783087 104.7620647222962 1 0 0 0 0.6560590369687036 -0.75470957328743171 forward_v I I I I #
face $-1 $100 $101 $36 $-1 $102 forward single #
loop $-1 $103 $104 $47 #
cone-surface $-1 33.156508591571679 -36.487048891364822 10.460315990823986 0 0.6560590369687036 -0.75470957328743171 1.5 0 0 1 I I 0 1 1.5 forward I I I I #
face $-1 $105 $106 $37 $-1 $107 forward single #
loop $-1 $108 $109 $48 #
cone-surface $-1 43.370259098978863 -36.487048891364822 10.460315990823986 0 0.6560590369687036 -0.75470957328743171 1.5 0 0 1 I I 0 1 1.5 forward I I I I #
face $-1 $110 $111 $38 $-1 $112 reversed single #
loop $-1 $-1 $113 $49 #
plane-surface $-1 -50.002243684882309 53.71127088349521 162.4067202784492 1 0 0 0 -0.61566148304635926 -0.78801074757464917 forward_v I I I I #
face $-1 $114 $115 $39 $-1 $116 forward single #
loop $-1 $117 $118 $50 #
cone-surface $-1 -45.133932948516517 36.589392229019346 11.501939605926244 0 -0.61566148304635926 -0.78801074757464917 1 0 0 1 I I 0 1 1 forward I I I I #
face $-1 $119 $120 $40 $-1 $121 forward single #
loop $-1 $122 $123 $51 #
cone-surface $-1 -37.831466843967831 36.589392229019346 11.501939605926244 0 -0.61566148304635926 -0.78801074757464917 1 0 0 1 I I 0 1 1 forward I I I I #
face $-1 $124 $125 $41 $-1 $126 reversed single #
loop $-1 $-1 $127 $52 #
plane-surface $-1 47.254866705992526 53.71127088349521 162.4067202784492 1 0 0 0 -0.61566148304635926 -0.78801074757464917 forward_v I I I I #
face $-1 $128 $129 $42 $-1 $130 forward single #
loop $-1 $131 $132 $53 #
cone-surface $-1 52.123177442358326 36.589392229019346 11.501939605926244 0 -0.61566148304635926 -0.78801074757464917 1 0 0 1 I I 0 1 1 forward I I I I #
face $-1 $133 $134 $43 $-1 $135 forward single #
loop $-1 $136 $137 $54 #
cone-surface $-1 59.425643546907011 36.589392229019346 11.501939605926244 0 -0.61566148304635926 -0.78801074757464917 1 0 0 1 I I 0 1 1 forward I I I I #
face $-1 $138 $139 $33 $-1 $140 reversed single #
loop $-1 $-1 $141 $55 #
plane-surface $-1 0 0 -17.707956849338721 0 0 1 1 0 0 forward_v I I I I #
coedge $-1 $142 $143 $144 $145 forward $56 $-1 #
face $-1 $146 $147 $34 $-1 $148 reversed single #
loop $-1 $-1 $149 $58 #
plane-surface $-1 -50.002243684882302 0 -14.699814504587168 -1 0 0 0 0 1 forward_v I I I I #
coedge $-1 $150 $151 $152 $153 forward $59 $-1 #
face $-1 $154 $155 $35 $-1 $156 reversed single #
loop $-1 $-1 $157 $61 #
plane-surface $-1 38.263383845275285 -44.19166961784326 7.7155391181152879 0 -0.6560590369687036 0.75470957328743171 1 0 0 forward_v I I I I #
coedge $-1 $158 $159 $160 $161 reversed $62 $-1 #
face $-1 $-1 $162 $36 $-1 $163 forward single #
loop $-1 $164 $165 $64 #
cone-surface $-1 33.156508591571679 -34.0378645993272 7.6428518179553961 0 0.6560590369687036 -0.75470957328743171 0.75 0 0 1 I I -0.70710678118654757 0.70710678118654757 0.75 forward I I I I #
loop $-1 $-1 $166 $47 #
coedge $-1 $104 $104 $167 $168 reversed $65 $-1 #
face $-1 $-1 $169 $37 $-1 $170 forward single #
loop $-1 $171 $172 $67 #
cone-surface $-1 43.370259098978863 -34.0378645993272 7.6428518179553961 0 0.6560590369687036 -0.75470957328743171 0.75 0 0 1 I I -0.70710678118654757 0.70710678118654757 0.75 forward I I I I #
loop $-1 $-1 $173 $48 #
coedge $-1 $109 $109 $174 $175 reversed $68 $-1 #
face $-1 $176 $177 $38 $-1 $178 reversed single #
loop $-1 $-1 $179 $70 #
plane-surface $-1 -41.482699896242174 -25.455351606413892 61.078066319864973 0 0.61566148304635926 0.78801074757464917 1 0 0 forward_v I I I I #
coedge $-1 $180 $181 $182 $183 reversed $71 $-1 #
face $-1 $-1 $184 $39 $-1 $185 forward single #
loop $-1 $186 $187 $73 #
cone-surface $-1 -45.133932948516517 35.747190919284854 10.423971108679439 0 -0.61566148304635926 -0.78801074757464917 0.5 0 0 1 I I -0.70710678118654746 0.70710678118654746 0.5 forward I I I I #
loop $-1 $-1 $188 $50 #
coedge $-1 $118 $118 $189 $190 reversed $74 $-1 #
face $-1 $-1 $191 $40 $-1 $192 forward single #
loop $-1 $193 $194 $76 #
cone-surface $-1 -37.831466843967831 35.747190919284854 10.423971108679439 0 -0.61566148304635926 -0.78801074757464917 0.5 0 0 1 I I -0.70710678118654746 0.70710678118654746 0.5 forward I I I I #
loop $-1 $-1 $195 $51 #
coedge $-1 $123 $123 $196 $197 reversed $77 $-1 #
face $-1 $198 $199 $41 $-1 $200 forward single #
loop $-1 $-1 $201 $79 #
plane-surface $-1 55.774410494632662 -25.455351606413892 61.078066319864973 0 0.61566148304635926 0.78801074757464917 1 0 0 forward_v I I I I #
coedge $-1 $202 $203 $204 $205 reversed $80 $-1 #
face $-1 $-1 $206 $42 $-1 $207 forward single #
loop $-1 $208 $209 $82 #
cone-surface $-1 52.123177442358326 35.747190919284854 10.423971108679439 0 -0.61566148304635926 -0.78801074757464917 0.5 0 0 1 I I -0.70710678118654746 0.70710678118654746 0.5 forward I I I I #
loop $-1 $-1 $210 $53 #
coedge $-1 $132 $132 $211 $212 reversed $83 $-1 #
face $-1 $-1 $213 $43 $-1 $214 forward single #
loop $-1 $215 $216 $85 #
cone-surface $-1 59.425643546907011 35.747190919284854 10.423971108679439 0 -0.61566148304635926 -0.78801074757464917 0.5 0 0 1 I I -0.70710678118654746 0.70710678118654746 0.5 forward I I I I #
loop $-1 $-1 $217 $54 #
coedge $-1 $137 $137 $218 $219 reversed $86 $-1 #
face $-1 $220 $221 $33 $-1 $222 reversed single #
loop $-1 $-1 $223 $88 #
plane-surface $-1 0 -44.191669617843253 0 0 1 0 0 0 1 forward_v I I I I #
coedge $-1 $224 $225 $226 $227 forward $89 $-1 #
coedge $-1 $228 $91 $229 $230 forward $56 $-1 #
coedge $-1 $91 $228 $231 $232 forward $56 $-1 #
coedge $-1 $233 $234 $91 $145 reversed $235 $-1 #
edge $-1 $236 -44.191669617843253 $237 44.191669617843253 $144 $238 forward 7 unknown #
face $-1 $239 $240 $34 $-1 $241 reversed single #
loop $-1 $-1 $242 $92 #
plane-surface $-1 0 0 -17.707956849338721 0 0 1 1 0 0 forward_v I I I I #
coedge $-1 $243 $152 $244 $245 reversed $93 $-1 #
coedge $-1 $246 $95 $247 $248 reversed $59 $-1 #
coedge $-1 $95 $246 $249 $250 reversed $59 $-1 #
coedge $-1 $149 $251 $95 $153 reversed $93 $-1 #
edge $-1 $252 -44.191669617843253 $253 44.191669617843253 $152 $254 forward 7 unknown #
face $-1 $255 $256 $35 $-1 $257 forward single #
loop $-1 $-1 $258 $96 #
plane-surface $-1 50.179426103917002 -128.55292907783087 104.7620647222962 -1 0 0 0 -0.6560590369687036 0.75470957328743171 forward_v I I I I #
coedge $-1 $259 $260 $261 $262 reversed $97 $-1 #
coedge $-1 $159 $99 $263 $264 reversed $62 $-1 #
coedge $-1 $99 $158 $259 $265 reversed $62 $-1 #
coedge $-1 $261 $266 $99 $161 forward $267 $-1 #
edge $-1 $268 34.67307551180938 $269 44.665493243032806 $160 $270 forward 7 unknown #
loop $-1 $-1 $167 $100 #
plane-surface $-1 38.263383845275285 -44.19166961784326 7.7155391181152879 0 -0.6560590369687036 0.75470957328743171 1 0 0 forward_v I I I I #
loop $-1 $-1 $271 $64 #
coedge $-1 $165 $165 $166 $272 reversed $101 $-1 #
coedge $-1 $166 $166 $165 $272 forward $103 $-1 #
coedge $-1 $167 $167 $104 $168 forward $162 $-1 #
edge $-1 $273 4.0423255124539983e-015 $273 6.2831853071796049 $167 $274 forward 7 unknown #
loop $-1 $-1 $174 $105 #
plane-surface $-1 38.263383845275285 -44.19166961784326 7.7155391181152879 0 -0.6560590369687036 0.75470957328743171 1 0 0 forward_v I I I I #
loop $-1 $-1 $275 $67 #
coedge $-1 $172 $172 $173 $276 reversed $106 $-1 #
coedge $-1 $173 $173 $172 $276 forward $108 $-1 #
coedge $-1 $174 $174 $109 $175 forward $169 $-1 #
edge $-1 $277 4.0423255124539983e-015 $277 6.2831853071796049 $174 $278 forward 7 unknown #
face $-1 $279 $280 $38 $-1 $281 reversed single #
loop $-1 $-1 $282 $110 #
plane-surface $-1 -32.963156107602039 53.71127088349521 162.4067202784492 -1 0 0 0 0.61566148304635926 0.78801074757464917 forward_v I I I I #
coedge $-1 $283 $284 $285 $286 reversed $111 $-1 #
coedge $-1 $181 $113 $287 $288 reversed $71 $-1 #
coedge $-1 $113 $180 $283 $289 reversed $71 $-1 #
coedge $-1 $285 $290 $113 $183 forward $291 $-1 #
edge $-1 $292 -17.336034176095648 $293 -3.2002205348704713 $182 $294 forward 7 unknown #
loop $-1 $-1 $189 $114 #
plane-surface $-1 -41.482699896242174 -25.455351606413892 61.078066319864973 0 0.61566148304635926 0.78801074757464917 1 0 0 forward_v I I I I #
loop $-1 $-1 $295 $73 #
coedge $-1 $187 $187 $188 $296 reversed $115 $-1 #
coedge $-1 $188 $188 $187 $296 forward $117 $-1 #
coedge $-1 $189 $189 $118 $190 forward $184 $-1 #
edge $-1 $297 -1.3098069307702156e-016 $297 6.2831853071796004 $189 $298 forward 7 unknown #
loop $-1 $-1 $196 $119 #
plane-surface $-1 -41.482699896242174 -25.455351606413892 61.078066319864973 0 0.61566148304635926 0.78801074757464917 1 0 0 forward_v I I I I #
loop $-1 $-1 $299 $76 #
coedge $-1 $194 $194 $195 $300 reversed $120 $-1 #
coedge $-1 $195 $195 $194 $300 forward $122 $-1 #
coedge $-1 $196 $196 $123 $197 forward $191 $-1 #
edge $-1 $301 -1.3098069307702156e-016 $301 6.2831853071796004 $196 $302 forward 7 unknown #
face $-1 $303 $304 $41 $-1 $305 reversed single #
loop $-1 $-1 $204 $124 #
plane-surface $-1 0 0 17.707956849338721 0 0 1 1 0 0 forward_v I I I I #
coedge $-1 $306 $307 $308 $309 reversed $125 $-1 #
coedge $-1 $203 $127 $310 $311 reversed $80 $-1 #
coedge $-1 $127 $202 $306 $312 reversed $80 $-1 #
coedge $-1 $308 $313 $127 $205 forward $199 $-1 #
edge $-1 $314 -17.336034176095648 $315 -3.2002205348704713 $204 $316 forward 7 unknown #
loop $-1 $-1 $211 $128 #
plane-surface $-1 55.774410494632662 -25.455351606413892 61.078066319864973 0 0.61566148304635926 0.78801074757464917 1 0 0 forward_v I I I I #
loop $-1 $-1 $317 $82 #
coedge $-1 $209 $209 $210 $318 reversed $129 $-1 #
coedge $-1 $210 $210 $209 $318 forward $131 $-1 #
coedge $-1 $211 $211 $132 $212 forward $206 $-1 #
edge $-1 $319 -1.3098069307702156e-016 $319 6.2831853071796004 $211 $320 forward 7 unknown #
loop $-1 $-1 $218 $133 #
plane-surface $-1 55.774410494632662 -25.455351606413892 61.078066319864973 0 0.61566148304635926 0.78801074757464917 1 0 0 forward_v I I I I #
loop $-1 $-1 $321 $85 #
coedge $-1 $216 $216 $217 $322 reversed $134 $-1 #
coedge $-1 $217 $217 $216 $322 forward $136 $-1 #
coedge $-1 $218 $218 $137 $219 forward $213 $-1 #
edge $-1 $323 -1.3098069307702156e-016 $323 6.2831853071796004 $218 $324 forward 7 unknown #
face $-1 $325 $326 $33 $-1 $327 reversed single #
loop $-1 $-1 $328 $138 #
plane-surface $-1 -64.293954283272797 0 0 1 0 0 0 0 -1 forward_v I I I I #
coedge $-1 $329 $231 $330 $331 forward $139 $-1 #
coedge $-1 $332 $141 $329 $333 forward $89 $-1 #
coedge $-1 $141 $332 $334 $335 forward $89 $-1 #
coedge $-1 $234 $233 $141 $227 reversed $235 $-1 #
edge $-1 $336 -44.191669617843253 $337 44.191669617843253 $226 $338 forward 7 unknown #
coedge $-1 $143 $142 $339 $340 forward $56 $-1 #
coedge $-1 $341 $342 $142 $230 reversed $326 $-1 #
edge $-1 $237 -64.293954283272797 $343 64.293954283272797 $229 $344 forward 7 unknown #
coedge $-1 $223 $345 $143 $232 reversed $139 $-1 #
edge $-1 $346 -64.293954283272797 $236 64.293954283272797 $231 $347 forward 7 unknown #
coedge $-1 $226 $144 $345 $348 forward $235 $-1 #
coedge $-1 $144 $226 $341 $349 reversed $235 $-1 #
loop $-1 $-1 $233 $325 #
vertex $-1 $145 $350 #
vertex $-1 $145 $351 #
straight-curve $-1 64.293954283272797 0 17.707956849338721 0 1 0 I I #
face $-1 $352 $353 $34 $-1 $354 reversed single #
loop $-1 $-1 $244 $146 #
plane-surface $-1 0 -44.191669617843253 0 0 1 0 0 0 1 forward_v I I I I #
coedge $-1 $355 $356 $243 $357 forward $147 $-1 #
coedge $-1 $251 $149 $242 $357 reversed $93 $-1 #
coedge $-1 $249 $358 $149 $245 forward $240 $-1 #
edge $-1 $359 -10.358049597045138 $252 -4.3417649075420313 $244 $360 forward 7 unknown #
coedge $-1 $151 $150 $361 $362 reversed $59 $-1 #
coedge $-1 $363 $364 $150 $248 forward $365 $-1 #
edge $-1 $366 -35.719904791234022 $253 -21.428194192843527 $247 $367 forward 7 unknown #
coedge $-1 $368 $244 $151 $250 forward $240 $-1 #
edge $-1 $252 21.428194192843527 $369 35.719904791234022 $249 $370 forward 7 unknown #
coedge $-1 $152 $243 $363 $371 reversed $93 $-1 #
vertex $-1 $250 $372 #
vertex $-1 $248 $373 #
straight-curve $-1 -50.002243684882302 0 -11.691672159835615 0 1 0 I I #
face $-1 $-1 $267 $35 $-1 $374 reversed single #
loop $-1 $-1 $375 $154 #
plane-surface $-1 0 0 17.707956849338721 0 0 1 1 0 0 forward_v I I I I #
coedge $-1 $376 $377 $378 $379 reversed $155 $-1 #
coedge $-1 $380 $157 $159 $265 forward $97 $-1 #
coedge $-1 $157 $380 $376 $381 forward $97 $-1 #
coedge $-1 $378 $160 $157 $262 forward $267 $-1 #
edge $-1 $269 7.2156496639959258 $382 31.04773418127936 $261 $383 forward 7 unknown #
coedge $-1 $384 $385 $158 $264 forward $256 $-1 #
edge $-1 $386 -31.57975634540685 $268 -20.084794921072181 $263 $387 forward 7 unknown #
edge $-1 $269 9.44141639987384e-015 $386 15.230973385250556 $159 $388 forward 7 unknown #
coedge $-1 $160 $378 $384 $389 reversed $267 $-1 #
loop $-1 $-1 $378 $255 #
vertex $-1 $389 $390 #
vertex $-1 $161 $391 #
straight-curve $-1 26.347341586633569 -44.191669617843253 52.381032361148101 0 0 -1 I I #
coedge $-1 $271 $271 $-1 $392 reversed $164 $-1 #
edge $-1 $393 0 $393 6.2831853071796004 $165 $394 forward 7 unknown #
vertex $-1 $168 $395 #
ellipse-curve $-1 33.156508591571679 -38.444188905675922 12.711747983727008 0 -0.6560590369687036 0.75470957328743171 1.5 0 0 1 I I #
coedge $-1 $275 $275 $-1 $396 reversed $171 $-1 #
edge $-1 $397 0 $397 6.2831853071796004 $172 $398 forward 7 unknown #
vertex $-1 $175 $399 #
ellipse-curve $-1 43.370259098978863 -38.444188905675922 12.711747983727008 0 -0.6560590369687036 0.75470957328743171 1.5 0 0 1 I I #
face $-1 $-1 $291 $38 $-1 $400 forward single #
loop $-1 $-1 $401 $176 #
plane-surface $-1 0 44.191669617843253 0 0 -1 0 0 0 -1 forward_v I I I I #
coedge $-1 $402 $403 $404 $405 reversed $177 $-1 #
coedge $-1 $406 $179 $181 $289 forward $111 $-1 #
coedge $-1 $179 $406 $402 $407 forward $111 $-1 #
coedge $-1 $404 $182 $179 $286 forward $291 $-1 #
edge $-1 $293 -29.260893736761222 $408 -12.221806159480952 $285 $409 forward 7 unknown #
coedge $-1 $410 $411 $180 $288 forward $280 $-1 #
edge $-1 $412 -74.539511529791852 $292 -63.495403289885878 $287 $413 forward 7 unknown #
edge $-1 $293 70.444734102783698 $412 88.383339235686506 $181 $414 forward 7 unknown #
coedge $-1 $182 $404 $410 $415 forward $291 $-1 #
loop $-1 $-1 $404 $279 #
vertex $-1 $288 $416 #
vertex $-1 $183 $417 #
straight-curve $-1 -50.002243684882309 26.855635441747605 17.707956849338714 0 -1 0 I I #
coedge $-1 $295 $295 $-1 $418 reversed $186 $-1 #
edge $-1 $419 0 $419 6.2831853071796004 $187 $420 forward 7 unknown #
vertex $-1 $190 $421 #
ellipse-curve $-1 -45.133932948516517 37.123762797230661 12.185902729385734 0 0.61566148304635926 0.78801074757464917 1 0 0 1 I I #
coedge $-1 $299 $299 $-1 $422 reversed $193 $-1 #
edge $-1 $423 0 $423 6.2831853071796004 $194 $424 forward 7 unknown #
vertex $-1 $197 $425 #
ellipse-curve $-1 -37.831466843967831 37.123762797230661 12.185902729385734 0 0.61566148304635926 0.78801074757464917 1 0 0 1 I I #
face $-1 $-1 $426 $41 $-1 $427 reversed single #
loop $-1 $-1 $428 $198 #
plane-surface $-1 64.293954283272797 0 0 -1 0 0 0 0 1 forward_v I I I I #
coedge $-1 $429 $201 $203 $312 forward $125 $-1 #
coedge $-1 $201 $429 $428 $430 reversed $125 $-1 #
coedge $-1 $431 $204 $201 $309 forward $199 $-1 #
edge $-1 $315 19.367661458676196 $432 36.406749035956466 $308 $433 forward 7 unknown #
coedge $-1 $434 $435 $202 $311 forward $426 $-1 #
edge $-1 $436 -74.539511529791852 $314 -63.495403289885878 $310 $437 forward 7 unknown #
edge $-1 $315 70.444734102783698 $436 88.383339235686506 $203 $438 forward 7 unknown #
coedge $-1 $204 $431 $434 $439 forward $199 $-1 #
vertex $-1 $311 $440 #
vertex $-1 $205 $441 #
straight-curve $-1 47.254866705992526 26.855635441747605 17.707956849338714 0 -1 0 I I #
coedge $-1 $317 $317 $-1 $442 reversed $208 $-1 #
edge $-1 $443 0 $443 6.2831853071796004 $209 $444 forward 7 unknown #
vertex $-1 $212 $445 #
ellipse-curve $-1 52.123177442358326 37.123762797230661 12.185902729385734 0 0.61566148304635926 0.78801074757464917 1 0 0 1 I I #
coedge $-1 $321 $321 $-1 $446 reversed $215 $-1 #
edge $-1 $447 0 $447 6.2831853071796004 $216 $448 forward 7 unknown #
vertex $-1 $219 $449 #
ellipse-curve $-1 59.425643546907011 37.123762797230661 12.185902729385734 0 0.61566148304635926 0.78801074757464917 1 0 0 1 I I #
face $-1 $-1 $235 $33 $-1 $450 reversed single #
loop $-1 $-1 $341 $220 #
plane-surface $-1 0 44.191669617843253 0 0 -1 0 0 0 -1 forward_v I I I I #
coedge $-1 $451 $339 $342 $452 forward $221 $-1 #
coedge $-1 $345 $223 $224 $333 reversed $139 $-1 #
coedge $-1 $339 $451 $223 $331 reversed $221 $-1 #
edge $-1 $346 -17.707956849338721 $453 17.707956849338721 $330 $454 forward 7 unknown #
coedge $-1 $225 $224 $451 $455 forward $89 $-1 #
edge $-1 $337 -64.293954283272797 $453 64.293954283272797 $329 $456 forward 7 unknown #
coedge $-1 $342 $341 $225 $335 reversed $326 $-1 #
edge $-1 $457 -64.293954283272797 $336 64.293954283272797 $334 $458 forward 7 unknown #
vertex $-1 $227 $459 #
vertex $-1 $348 $460 #
straight-curve $-1 64.293954283272797 0 -17.707956849338721 0 -1 0 I I #
coedge $-1 $328 $330 $228 $340 reversed $221 $-1 #
edge $-1 $343 -44.191669617843253 $346 44.191669617843253 $339 $461 forward 7 unknown #
coedge $-1 $334 $229 $234 $349 forward $326 $-1 #
coedge $-1 $229 $334 $328 $452 reversed $326 $-1 #
vertex $-1 $230 $462 #
straight-curve $-1 0 44.191669617843253 17.707956849338721 -1 0 0 I I #
coedge $-1 $231 $329 $233 $348 reversed $139 $-1 #
vertex $-1 $340 $463 #
straight-curve $-1 0 -44.191669617843253 17.707956849338721 1 0 0 I I #
edge $-1 $236 -17.707956849338721 $337 17.707956849338721 $233 $464 forward 7 unknown #
edge $-1 $237 -17.707956849338721 $336 17.707956849338721 $234 $465 forward 7 unknown #
point $-1 64.293954283272797 -44.191669617843253 17.707956849338721 #
point $-1 64.293954283272797 44.191669617843253 17.707956849338721 #
face $-1 $-1 $365 $34 $-1 $466 reversed single #
loop $-1 $-1 $361 $239 #
plane-surface $-1 -64.293954283272797 0 0 1 0 0 0 0 -1 forward_v I I I I #
coedge $-1 $467 $242 $358 $468 forward $147 $-1 #
coedge $-1 $242 $467 $469 $470 forward $147 $-1 #
edge $-1 $471 -44.191669617843253 $359 44.191669617843253 $242 $472 forward 7 unknown #
coedge $-1 $244 $368 $355 $468 reversed $240 $-1 #
vertex $-1 $468 $473 #
straight-curve $-1 -50.002243684882302 -44.191669617843253 -7.3499072522935842 0 0 1 I I #
coedge $-1 $474 $475 $246 $362 forward $353 $-1 #
edge $-1 $369 -44.191669617843253 $366 44.191669617843253 $361 $476 forward 7 unknown #
coedge $-1 $469 $247 $251 $371 forward $365 $-1 #
coedge $-1 $247 $469 $474 $477 reversed $365 $-1 #
loop $-1 $-1 $363 $352 #
vertex $-1 $477 $478 #
straight-curve $-1 -28.574049492038775 44.191669617843253 -11.691672159835615 1 0 0 I I #
coedge $-1 $358 $249 $475 $479 forward $240 $-1 #
vertex $-1 $479 $480 #
straight-curve $-1 -28.574049492038775 -44.191669617843253 -11.691672159835615 -1 0 0 I I #
edge $-1 $253 4.3417649075420313 $471 10.358049597045138 $363 $481 forward 7 unknown #
point $-1 -50.002243684882302 -44.191669617843253 -11.691672159835615 #
point $-1 -50.002243684882302 44.191669617843253 -11.691672159835615 #
plane-surface $-1 0 -44.191669617843253 0 0 1 0 0 0 1 forward_v I I I I #
coedge $-1 $385 $384 $377 $482 forward $256 $-1 #
coedge $-1 $377 $258 $260 $381 reversed $155 $-1 #
coedge $-1 $258 $376 $375 $482 reversed $155 $-1 #
coedge $-1 $266 $261 $258 $379 forward $267 $-1 #
edge $-1 $382 -44.665493243032806 $483 -34.67307551180938 $378 $484 forward 7 unknown #
coedge $-1 $260 $259 $385 $485 reversed $97 $-1 #
edge $-1 $486 -15.230973385250556 $382 -9.44141639987384e-015 $376 $487 forward 7 unknown #
vertex $-1 $262 $488 #
straight-curve $-1 19.131691922637643 -44.191669617843253 7.7155391181152977 1 0 0 I I #
coedge $-1 $375 $263 $266 $389 forward $256 $-1 #
coedge $-1 $263 $375 $380 $485 forward $256 $-1 #
vertex $-1 $264 $489 #
straight-curve $-1 26.347341586633569 -64.276464538915434 17.707956849338721 0 -1 0 I I #
straight-curve $-1 26.347341586633569 -44.19166961784326 7.7155391181152879 0 0.75470957328743171 0.6560590369687036 I I #
edge $-1 $268 26.347341586633569 $483 50.179426103917002 $266 $490 forward 7 unknown #
point $-1 26.347341586633569 -44.191669617843253 17.707956849338721 #
point $-1 26.347341586633569 -44.191669617843253 7.7155391181152941 #
edge $-1 $491 1 $491 0 $271 $-1 forward 7 unknown #
vertex $-1 $272 $492 #
ellipse-curve $-1 33.156508591571679 -34.529908877053728 8.2088839979209691 0 -0.6560590369687036 0.75470957328743171 1.5 0 0 1 I I #
point $-1 34.656508591571679 -38.444188905675908 12.711747983727001 #
edge $-1 $493 1 $493 0 $275 $-1 forward 7 unknown #
vertex $-1 $276 $494 #
ellipse-curve $-1 43.370259098978863 -34.529908877053728 8.2088839979209691 0 -0.6560590369687036 0.75470957328743171 1.5 0 0 1 I I #
point $-1 44.870259098978863 -38.444188905675908 12.711747983727001 #
plane-surface $-1 0 0 17.707956849338721 0 0 1 1 0 0 forward_v I I I I #
coedge $-1 $411 $410 $403 $495 forward $280 $-1 #
coedge $-1 $403 $282 $284 $407 reversed $177 $-1 #
coedge $-1 $282 $402 $401 $495 reversed $177 $-1 #
coedge $-1 $290 $285 $282 $405 forward $291 $-1 #
edge $-1 $408 3.2002205348704713 $496 17.336034176095648 $404 $497 forward 7 unknown #
coedge $-1 $284 $283 $411 $498 reversed $111 $-1 #
edge $-1 $499 -88.383339235686506 $408 -70.444734102783698 $402 $500 forward 7 unknown #
vertex $-1 $286 $501 #
straight-curve $-1 -20.741349948121087 30.05585597661808 17.707956849338718 1 0 0 I I #
coedge $-1 $401 $287 $290 $415 reversed $280 $-1 #
coedge $-1 $287 $401 $406 $498 forward $280 $-1 #
vertex $-1 $288 $502 #
straight-curve $-1 -50.002243684882309 44.191669617843253 81.2033601392246 0 0 1 I I #
straight-curve $-1 -50.002243684882309 -25.455351606413892 61.078066319864973 0 0.78801074757464917 -0.61566148304635926 I I #
edge $-1 $496 32.963156107602039 $292 50.002243684882309 $410 $503 forward 7 unknown #
point $-1 -50.002243684882309 44.191669617843253 17.707956849338721 #
point $-1 -50.002243684882309 30.055855976618076 17.707956849338721 #
edge $-1 $504 1 $504 0 $295 $-1 forward 7 unknown #
vertex $-1 $296 $505 #
ellipse-curve $-1 -45.133932948516517 36.055021660808031 10.817976482466763 0 0.61566148304635926 0.78801074757464917 1 0 0 1 I I #
point $-1 -44.133932948516517 37.123762797230654 12.185902729385726 #
edge $-1 $506 1 $506 0 $299 $-1 forward 7 unknown #
vertex $-1 $300 $507 #
ellipse-curve $-1 -37.831466843967831 36.055021660808031 10.817976482466763 0 0.61566148304635926 0.78801074757464917 1 0 0 1 I I #
point $-1 -36.831466843967831 37.123762797230654 12.185902729385726 #
loop $-1 $-1 $310 $303 #
plane-surface $-1 0 44.191669617843253 0 0 -1 0 0 0 -1 forward_v I I I I #
coedge $-1 $508 $509 $307 $430 forward $304 $-1 #
coedge $-1 $307 $306 $435 $510 reversed $125 $-1 #
edge $-1 $432 41.613482332164843 $511 59.552087465067643 $428 $512 forward 7 unknown #
coedge $-1 $313 $308 $509 $513 forward $199 $-1 #
vertex $-1 $513 $514 #
straight-curve $-1 27.887205247316331 30.05585597661808 17.707956849338718 1 0 0 I I #
coedge $-1 $515 $310 $313 $439 reversed $426 $-1 #
coedge $-1 $310 $515 $429 $510 forward $426 $-1 #
vertex $-1 $311 $516 #
straight-curve $-1 47.254866705992526 44.191669617843253 81.2033601392246 0 0 1 I I #
straight-curve $-1 47.254866705992526 -25.455351606413892 61.078066319864973 0 0.78801074757464917 -0.61566148304635926 I I #
edge $-1 $517 -64.293954283272797 $314 -47.254866705992526 $434 $518 forward 7 unknown #
point $-1 47.254866705992526 44.191669617843253 17.707956849338721 #
point $-1 47.254866705992526 30.055855976618076 17.707956849338721 #
edge $-1 $519 1 $519 0 $317 $-1 forward 7 unknown #
vertex $-1 $318 $520 #
ellipse-curve $-1 52.123177442358326 36.055021660808031 10.817976482466763 0 0.61566148304635926 0.78801074757464917 1 0 0 1 I I #
point $-1 53.123177442358326 37.123762797230654 12.185902729385726 #
edge $-1 $521 1 $521 0 $321 $-1 forward 7 unknown #
vertex $-1 $322 $522 #
ellipse-curve $-1 59.425643546907011 36.055021660808031 10.817976482466763 0 0.61566148304635926 0.78801074757464917 1 0 0 1 I I #
point $-1 60.425643546907011 37.123762797230654 12.185902729385726 #
plane-surface $-1 64.293954283272797 0 0 -1 0 0 0 0 1 forward_v I I I I #
coedge $-1 $330 $328 $332 $455 reversed $221 $-1 #
edge $-1 $343 -17.707956849338721 $457 17.707956849338721 $342 $523 forward 7 unknown #
vertex $-1 $455 $524 #
straight-curve $-1 -64.293954283272797 -44.191669617843253 0 0 0 -1 I I #
edge $-1 $453 -44.191669617843253 $457 44.191669617843253 $451 $525 forward 7 unknown #
straight-curve $-1 0 -44.191669617843253 -17.707956849338721 -1 0 0 I I #
vertex $-1 $335 $526 #
straight-curve $-1 0 44.191669617843253 -17.707956849338721 1 0 0 I I #
point $-1 64.293954283272797 44.191669617843253 -17.707956849338721 #
point $-1 64.293954283272797 -44.191669617843253 -17.707956849338721 #
straight-curve $-1 -64.293954283272797 0 17.707956849338721 0 -1 0 I I #
point $-1 -64.293954283272797 44.191669617843253 17.707956849338721 #
point $-1 -64.293954283272797 -44.191669617843253 17.707956849338721 #
straight-curve $-1 64.293954283272797 -44.191669617843253 0 0 0 -1 I I #
straight-curve $-1 64.293954283272797 44.191669617843253 0 0 0 -1 I I #
plane-surface $-1 0 44.191669617843253 0 0 -1 0 0 0 -1 forward_v I I I I #
coedge $-1 $356 $355 $527 $528 forward $147 $-1 #
edge $-1 $359 50.002243684882302 $529 64.293954283272797 $358 $530 forward 7 unknown #
coedge $-1 $364 $363 $356 $470 reversed $365 $-1 #
edge $-1 $531 -64.293954283272797 $471 -50.002243684882302 $469 $532 forward 7 unknown #
vertex $-1 $371 $533 #
straight-curve $-1 -50.002243684882302 0 -17.707956849338721 0 -1 0 I I #
point $-1 -50.002243684882302 -44.191669617843253 -17.707956849338721 #
coedge $-1 $527 $361 $364 $477 forward $353 $-1 #
coedge $-1 $361 $527 $368 $479 reversed $353 $-1 #
straight-curve $-1 -64.293954283272797 0 -11.691672159835615 0 1 0 I I #
edge $-1 $366 11.691672159835615 $531 17.707956849338721 $364 $534 forward 7 unknown #
point $-1 -64.293954283272797 44.191669617843253 -11.691672159835615 #
edge $-1 $369 11.691672159835615 $529 17.707956849338721 $475 $535 forward 7 unknown #
point $-1 -64.293954283272797 -44.191669617843253 -11.691672159835615 #
straight-curve $-1 -50.002243684882302 44.191669617843253 -7.3499072522935842 0 0 -1 I I #
edge $-1 $483 20.084794921072181 $486 31.57975634540685 $375 $536 forward 7 unknown #
vertex $-1 $379 $537 #
straight-curve $-1 50.179426103917002 -44.191669617843253 52.381032361148101 0 0 1 I I #
edge $-1 $486 -31.04773418127936 $386 -7.2156496639959258 $385 $538 forward 7 unknown #
vertex $-1 $485 $539 #
straight-curve $-1 50.179426103917002 -44.19166961784326 7.7155391181152879 0 -0.75470957328743171 -0.6560590369687036 I I #
point $-1 50.179426103917002 -44.191669617843253 7.7155391181152941 #
point $-1 26.347341586633569 -32.696708193508584 17.707956849338721 #
straight-curve $-1 0 -44.191669617843253 17.707956849338721 1 0 0 I I #
vertex $-1 $392 $540 #
point $-1 34.656508591571679 -34.529908877053728 8.2088839979209691 #
vertex $-1 $396 $541 #
point $-1 44.870259098978863 -34.529908877053728 8.2088839979209691 #
edge $-1 $496 63.495403289885878 $499 74.539511529791852 $401 $542 forward 7 unknown #
vertex $-1 $415 $543 #
straight-curve $-1 -32.963156107602039 26.855635441747605 17.707956849338714 0 1 0 I I #
edge $-1 $499 12.221806159480952 $412 29.260893736761222 $411 $544 forward 7 unknown #
vertex $-1 $498 $545 #
straight-curve $-1 -32.963156107602039 -25.455351606413892 61.078066319864973 0 -0.78801074757464917 0.61566148304635926 I I #
point $-1 -32.963156107602039 30.055855976618076 17.707956849338721 #
point $-1 -50.002243684882309 44.191669617843253 6.6638486094327476 #
straight-curve $-1 0 44.191669617843253 17.707956849338721 -1 0 0 I I #
vertex $-1 $418 $546 #
point $-1 -44.133932948516517 36.055021660808031 10.817976482466763 #
vertex $-1 $422 $547 #
point $-1 -36.831466843967831 36.055021660808031 10.817976482466763 #
coedge $-1 $509 $428 $515 $548 reversed $304 $-1 #
coedge $-1 $428 $508 $431 $513 reversed $304 $-1 #
edge $-1 $511 -36.406749035956466 $436 -19.367661458676196 $435 $549 forward 7 unknown #
vertex $-1 $430 $550 #
straight-curve $-1 64.293954283272797 -2.7360153451356002 43.327775096682792 0 0.78801074757464917 -0.61566148304635926 I I #
edge $-1 $432 30.055855976618076 $517 44.191669617843253 $509 $551 forward 7 unknown #
point $-1 64.293954283272797 30.055855976618076 17.707956849338721 #
coedge $-1 $435 $434 $508 $548 forward $426 $-1 #
point $-1 47.254866705992526 44.191669617843253 6.6638486094327476 #
vertex $-1 $513 $552 #
straight-curve $-1 0 44.191669617843253 17.707956849338721 -1 0 0 I I #
vertex $-1 $442 $553 #
point $-1 53.123177442358326 36.055021660808031 10.817976482466763 #
vertex $-1 $446 $554 #
point $-1 60.425643546907011 36.055021660808031 10.817976482466763 #
straight-curve $-1 -64.293954283272797 44.191669617843253 0 0 0 -1 I I #
point $-1 -64.293954283272797 -44.191669617843253 -17.707956849338721 #
straight-curve $-1 -64.293954283272797 0 -17.707956849338721 0 1 0 I I #
point $-1 -64.293954283272797 44.191669617843253 -17.707956849338721 #
coedge $-1 $475 $474 $467 $528 reversed $353 $-1 #
edge $-1 $529 -44.191669617843253 $531 44.191669617843253 $527 $555 forward 7 unknown #
vertex $-1 $528 $556 #
straight-curve $-1 0 -44.191669617843253 -17.707956849338721 -1 0 0 I I #
vertex $-1 $470 $557 #
straight-curve $-1 0 44.191669617843253 -17.707956849338721 1 0 0 I I #
point $-1 -50.002243684882302 44.191669617843253 -17.707956849338721 #
straight-curve $-1 -64.293954283272797 44.191669617843253 0 0 0 -1 I I #
straight-curve $-1 -64.293954283272797 -44.191669617843253 0 0 0 -1 I I #
straight-curve $-1 50.179426103917002 -64.276464538915434 17.707956849338721 0 1 0 I I #
point $-1 50.179426103917002 -44.191669617843253 17.707956849338721 #
straight-curve $-1 19.131691922637643 -32.696708193508584 17.707956849338721 -1 0 0 I I #
point $-1 50.179426103917002 -32.696708193508584 17.707956849338721 #
point $-1 33.156508591571679 -33.545820321600672 7.0768196379898223 #
point $-1 43.370259098978863 -33.545820321600672 7.0768196379898223 #
straight-curve $-1 -32.963156107602039 44.191669617843253 81.2033601392246 0 0 -1 I I #
point $-1 -32.963156107602039 44.191669617843253 17.707956849338721 #
straight-curve $-1 -20.741349948121087 44.19166961784326 6.6638486094327405 -1 0 0 I I #
point $-1 -32.963156107602039 44.191669617843253 6.6638486094327476 #
point $-1 -45.133932948516517 35.439360177761678 10.029965734892114 #
point $-1 -37.831466843967831 35.439360177761678 10.029965734892114 #
edge $-1 $517 -17.707956849338721 $511 -6.6638486094327476 $508 $558 forward 7 unknown #
straight-curve $-1 27.887205247316331 44.19166961784326 6.6638486094327405 -1 0 0 I I #
point $-1 64.293954283272797 44.191669617843253 6.6638486094327476 #
straight-curve $-1 64.293954283272797 0 17.707956849338721 0 1 0 I I #
point $-1 64.293954283272797 44.191669617843253 17.707956849338721 #
point $-1 52.123177442358326 35.439360177761678 10.029965734892114 #
point $-1 59.425643546907011 35.439360177761678 10.029965734892114 #
straight-curve $-1 -64.293954283272797 0 -17.707956849338721 0 1 0 I I #
point $-1 -64.293954283272797 -44.191669617843253 -17.707956849338721 #
point $-1 -64.293954283272797 44.191669617843253 -17.707956849338721 #
straight-curve $-1 64.293954283272797 44.191669617843253 0 0 0 -1 I I #
End-of-ACIS-data 