500 0 5 0           
7 Unknown 11 ACIS 5.0 NT 24 Thu Mar 25 20:15:16 1999 
-1 9.9999999999999995e-007 1e-010 
body $-1 $5 $-1 $6 #
body $-1 $7 $-1 $8 #
body $-1 $9 $-1 $10 #
body $-1 $11 $-1 $12 #
body $-1 $13 $-1 $14 #
lump $-1 $-1 $15 $0 #
transform $-1 1 0 0 0 1 0 0 0 1 76.105838190862755 33.98273046523429 16.518135461466706 1 rotate no_reflect no_shear #
lump $-1 $-1 $16 $1 #
transform $-1 1 0 0 0 1 0 0 0 1 76.105838190862755 33.98273046523429 16.518135461466706 1 rotate no_reflect no_shear #
lump $-1 $-1 $17 $2 #
transform $-1 1 0 0 0 1 0 0 0 1 76.105838190862755 33.98273046523429 16.518135461466706 1 rotate no_reflect no_shear #
lump $-1 $-1 $18 $3 #
transform $-1 1 0 0 0 1 0 0 0 1 76.105838190862755 33.98273046523429 16.518135461466706 1 rotate no_reflect no_shear #
lump $-1 $-1 $19 $4 #
transform $-1 1 0 0 0 1 0 0 0 1 76.105838190862755 33.98273046523429 16.518135461466706 1 rotate no_reflect no_shear #
shell $-1 $-1 $-1 $20 $-1 $5 #
shell $-1 $-1 $-1 $21 $-1 $7 #
shell $-1 $-1 $-1 $22 $-1 $9 #
shell $-1 $-1 $-1 $23 $-1 $11 #
shell $-1 $-1 $-1 $24 $-1 $13 #
face $-1 $25 $26 $15 $-1 $27 forward single #
face $-1 $28 $29 $16 $-1 $30 reversed single #
face $-1 $31 $32 $17 $-1 $33 forward single #
face $-1 $34 $35 $18 $-1 $36 reversed single #
face $-1 $37 $38 $19 $-1 $39 reversed single #
face $-1 $40 $41 $15 $-1 $42 reversed single #
loop $-1 $-1 $43 $20 #
plane-surface $-1 0 0 16.518135461466706 0 0 1 1 0 0 forward_v I I I I #
face $-1 $44 $45 $16 $-1 $46 forward single #
loop $-1 $-1 $47 $21 #
plane-surface $-1 0 -28.464038900136178 6.1773908972705041 0 0 1 1 0 0 forward_v I I I I #
face $-1 $48 $49 $17 $-1 $50 forward single #
loop $-1 $-1 $51 $22 #
plane-surface $-1 -185.59775634256388 -22.945347335038065 115.26963414196757 0 1 0 -0.71933980857756763 0 0.69465836192734942 forward_v I I I I #
face $-1 $52 $53 $18 $-1 $54 reversed single #
loop $-1 $55 $56 $23 #
cone-surface $-1 -70.315191351546773 -18.868440010580805 10.690667163588255 0.71933980857756763 0 -0.69465836192734942 1.3893167238546988 0 1.4386796171551353 1 I I 0 1 2 forward I I I I #
face $-1 $57 $58 $19 $-1 $59 reversed single #
loop $-1 $60 $61 $24 #
cone-surface $-1 -70.315191351546773 -12.753079023894919 10.690667163588255 0.71933980857756763 0 -0.69465836192734942 1.3893167238546988 0 1.4386796171551353 1 I I 0 1 2 forward I I I I #
face $-1 $62 $63 $15 $-1 $64 reversed single #
loop $-1 $-1 $65 $25 #
plane-surface $-1 0 0 -16.518135461466706 0 0 1 1 0 0 forward_v I I I I #
coedge $-1 $66 $67 $68 $69 forward $26 $-1 #
face $-1 $70 $71 $16 $-1 $72 forward single #
loop $-1 $-1 $73 $28 #
plane-surface $-1 0 -28.464038900136178 -3.2828170466052367 0 0 1 1 0 0 forward_v I I I I #
coedge $-1 $74 $75 $76 $77 reversed $29 $-1 #
face $-1 $78 $79 $17 $-1 $80 forward single #
loop $-1 $-1 $81 $31 #
plane-surface $-1 -76.105838190862784 -15.810759517237862 9.5345203604223059 -0.71933980857756763 0 0.69465836192734942 0.69465836192734942 0 0.71933980857756763 forward_v I I I I #
coedge $-1 $82 $83 $84 $85 reversed $32 $-1 #
face $-1 $86 $87 $18 $-1 $88 forward single #
loop $-1 $89 $90 $34 #
cone-surface $-1 -67.177203978943922 -18.868440010580805 7.6603480543046665 0.71933980857756763 0 -0.69465836192734942 0.69465836192734942 0 0.71933980857756763 1 I I -0.70710678118654746 0.70710678118654746 1 forward I I I I #
loop $-1 $-1 $91 $23 #
coedge $-1 $56 $56 $92 $93 reversed $35 $-1 #
face $-1 $94 $95 $19 $-1 $96 reversed single #
loop $-1 $97 $98 $37 #
cone-surface $-1 -67.177203978943922 -12.753079023894919 7.6603480543046665 0.71933980857756763 0 -0.69465836192734942 0.69465836192734942 0 0.71933980857756763 1 I I -0.70710678118654746 0.70710678118654746 1 forward I I I I #
loop $-1 $-1 $99 $24 #
coedge $-1 $61 $61 $100 $101 reversed $38 $-1 #
face $-1 $102 $103 $15 $-1 $104 reversed single #
loop $-1 $-1 $105 $40 #
plane-surface $-1 0 -33.98273046523429 0 0 1 0 0 0 1 forward_v I I I I #
coedge $-1 $106 $107 $108 $109 forward $41 $-1 #
coedge $-1 $110 $43 $111 $112 forward $26 $-1 #
coedge $-1 $43 $110 $113 $114 forward $26 $-1 #
coedge $-1 $115 $116 $43 $69 reversed $117 $-1 #
edge $-1 $118 -33.98273046523429 $119 33.98273046523429 $68 $120 forward 7 unknown #
face $-1 $121 $122 $16 $-1 $123 reversed single #
loop $-1 $-1 $124 $44 #
plane-surface $-1 0 -22.945347335038065 1.4472869253326337 0 -1 0 0 0 -1 forward_v I I I I #
coedge $-1 $125 $126 $127 $128 reversed $45 $-1 #
coedge $-1 $129 $47 $130 $131 reversed $29 $-1 #
coedge $-1 $47 $129 $132 $133 reversed $29 $-1 #
coedge $-1 $134 $135 $47 $77 forward $122 $-1 #
edge $-1 $136 -19.750711015166203 $137 -8.713327884969976 $76 $138 forward 7 unknown #
face $-1 $139 $140 $17 $-1 $141 forward single #
loop $-1 $-1 $142 $48 #
plane-surface $-1 -185.59775634256388 -8.6761716994376616 115.26963414196757 0 -1 0 0.71933980857756763 0 -0.69465836192734942 forward_v I I I I #
coedge $-1 $143 $144 $145 $146 reversed $49 $-1 #
coedge $-1 $83 $51 $144 $147 forward $32 $-1 #
coedge $-1 $51 $82 $148 $149 reversed $32 $-1 #
coedge $-1 $150 $145 $51 $85 forward $140 $-1 #
edge $-1 $151 -23.437038531000539 $152 -16.693039980419186 $84 $153 forward 7 unknown #
face $-1 $154 $155 $18 $-1 $156 forward single #
loop $-1 $-1 $157 $52 #
plane-surface $-1 -185.59775634256388 -22.945347335038065 115.26963414196757 0 1 0 -0.71933980857756763 0 0.69465836192734942 forward_v I I I I #
loop $-1 $-1 $158 $34 #
coedge $-1 $90 $90 $91 $159 forward $53 $-1 #
coedge $-1 $91 $91 $90 $159 reversed $55 $-1 #
coedge $-1 $92 $92 $56 $93 forward $155 $-1 #
edge $-1 $160 0 $160 6.2831853071796004 $92 $161 forward 7 unknown #
face $-1 $162 $163 $19 $-1 $164 reversed single #
loop $-1 $165 $166 $57 #
cone-surface $-1 -70.315191351546773 -18.868440010580805 10.690667163588255 0.71933980857756763 0 -0.69465836192734942 1.3893167238546988 0 1.4386796171551353 1 I I 0 1 2 forward I I I I #
loop $-1 $-1 $167 $37 #
coedge $-1 $98 $98 $99 $168 forward $58 $-1 #
coedge $-1 $99 $99 $98 $168 reversed $60 $-1 #
coedge $-1 $100 $100 $61 $101 forward $169 $-1 #
edge $-1 $170 0 $170 6.2831853071796004 $100 $171 forward 7 unknown #
face $-1 $172 $173 $15 $-1 $174 reversed single #
loop $-1 $-1 $175 $62 #
plane-surface $-1 -76.105838190862755 0 0 1 0 0 0 0 -1 forward_v I I I I #
coedge $-1 $176 $113 $177 $178 forward $63 $-1 #
coedge $-1 $179 $65 $176 $180 forward $41 $-1 #
coedge $-1 $65 $179 $181 $182 forward $41 $-1 #
coedge $-1 $116 $115 $65 $109 reversed $117 $-1 #
edge $-1 $183 -33.98273046523429 $184 33.98273046523429 $108 $185 forward 7 unknown #
coedge $-1 $67 $66 $186 $187 forward $26 $-1 #
coedge $-1 $188 $189 $66 $112 reversed $173 $-1 #
edge $-1 $119 -76.105838190862755 $190 76.105838190862755 $111 $191 forward 7 unknown #
coedge $-1 $105 $192 $67 $114 reversed $63 $-1 #
edge $-1 $193 -76.105838190862755 $118 76.105838190862755 $113 $194 forward 7 unknown #
coedge $-1 $108 $68 $192 $195 forward $117 $-1 #
coedge $-1 $68 $108 $188 $196 reversed $117 $-1 #
loop $-1 $-1 $115 $172 #
vertex $-1 $69 $197 #
vertex $-1 $69 $198 #
straight-curve $-1 76.105838190862755 0 16.518135461466706 0 1 0 I I #
face $-1 $199 $200 $16 $-1 $201 reversed single #
loop $-1 $-1 $76 $70 #
plane-surface $-1 76.105838190862755 0 0 -1 0 0 0 0 1 forward_v I I I I #
coedge $-1 $132 $202 $134 $203 reversed $71 $-1 #
coedge $-1 $204 $73 $202 $205 reversed $45 $-1 #
coedge $-1 $73 $204 $206 $207 reversed $45 $-1 #
coedge $-1 $208 $134 $73 $128 forward $122 $-1 #
edge $-1 $209 8.713327884969976 $210 19.750711015166203 $127 $211 forward 7 unknown #
coedge $-1 $75 $74 $212 $213 reversed $29 $-1 #
coedge $-1 $214 $215 $74 $131 forward $216 $-1 #
edge $-1 $217 -76.105838190862755 $136 76.105838190862755 $130 $218 forward 7 unknown #
coedge $-1 $219 $124 $75 $133 forward $71 $-1 #
edge $-1 $137 -76.105838190862755 $220 76.105838190862755 $132 $221 forward 7 unknown #
coedge $-1 $127 $76 $124 $203 forward $122 $-1 #
coedge $-1 $76 $222 $214 $223 forward $122 $-1 #
vertex $-1 $131 $224 #
vertex $-1 $77 $225 #
straight-curve $-1 76.105838190862755 -14.232019450068089 6.1773908972705041 0 1 0 I I #
face $-1 $226 $227 $17 $-1 $228 reversed single #
loop $-1 $-1 $229 $78 #
plane-surface $-1 0 0 16.518135461466706 0 0 1 1 0 0 forward_v I I I I #
coedge $-1 $230 $231 $229 $232 reversed $79 $-1 #
coedge $-1 $233 $81 $231 $234 reversed $49 $-1 #
coedge $-1 $81 $233 $82 $147 reversed $49 $-1 #
coedge $-1 $84 $229 $81 $146 forward $140 $-1 #
edge $-1 $235 0.77079194081873048 $151 15.039967576419134 $145 $236 forward 7 unknown #
edge $-1 $151 -9.7083673359519693 $237 -4.1466049326033243e-014 $82 $238 forward 7 unknown #
coedge $-1 $239 $240 $83 $149 forward $241 $-1 #
edge $-1 $152 41.11668160951708 $237 48.100296710561452 $148 $242 forward 7 unknown #
coedge $-1 $243 $84 $240 $244 forward $140 $-1 #
vertex $-1 $146 $245 #
vertex $-1 $244 $246 #
straight-curve $-1 -92.798878171281942 -22.945347335038065 16.518135461466706 -1 0 0 I I #
face $-1 $247 $248 $18 $-1 $249 forward single #
loop $-1 $250 $92 $86 #
plane-surface $-1 -76.105838190862784 -15.810759517237862 9.5345203604223059 -0.71933980857756763 0 0.69465836192734942 0.69465836192734942 0 0.71933980857756763 forward_v I I I I #
coedge $-1 $251 $252 $253 $254 reversed $87 $-1 #
coedge $-1 $158 $158 $-1 $255 forward $89 $-1 #
edge $-1 $256 0 $256 6.2831853071796004 $90 $257 forward 7 unknown #
vertex $-1 $93 $258 #
ellipse-curve $-1 -72.733838915572079 -18.868440010580805 13.02632791094452 0.71933980857756763 0 -0.69465836192734942 1.3893167238546988 0 1.4386796171551353 1 I I #
face $-1 $259 $260 $19 $-1 $261 forward single #
loop $-1 $262 $263 $94 #
cone-surface $-1 -67.177203978943922 -18.868440010580805 7.6603480543046665 0.71933980857756763 0 -0.69465836192734942 0.69465836192734942 0 0.71933980857756763 1 I I -0.70710678118654746 0.70710678118654746 1 forward I I I I #
loop $-1 $-1 $264 $57 #
coedge $-1 $166 $166 $265 $266 reversed $95 $-1 #
coedge $-1 $167 $167 $-1 $267 forward $97 $-1 #
edge $-1 $268 0 $268 6.2831853071796004 $98 $269 forward 7 unknown #
loop $-1 $270 $100 $259 #
vertex $-1 $101 $271 #
ellipse-curve $-1 -72.733838915572079 -12.753079023894919 13.02632791094452 0.71933980857756763 0 -0.69465836192734942 1.3893167238546988 0 1.4386796171551353 1 I I #
face $-1 $-1 $117 $15 $-1 $272 reversed single #
loop $-1 $-1 $188 $102 #
plane-surface $-1 0 33.98273046523429 0 0 -1 0 0 0 -1 forward_v I I I I #
coedge $-1 $273 $186 $189 $274 forward $103 $-1 #
coedge $-1 $192 $105 $106 $180 reversed $63 $-1 #
coedge $-1 $186 $273 $105 $178 reversed $103 $-1 #
edge $-1 $193 -16.518135461466706 $275 16.518135461466706 $177 $276 forward 7 unknown #
coedge $-1 $107 $106 $273 $277 forward $41 $-1 #
edge $-1 $184 -76.105838190862755 $275 76.105838190862755 $176 $278 forward 7 unknown #
coedge $-1 $189 $188 $107 $182 reversed $173 $-1 #
edge $-1 $279 -76.105838190862755 $183 76.105838190862755 $181 $280 forward 7 unknown #
vertex $-1 $109 $281 #
vertex $-1 $195 $282 #
straight-curve $-1 76.105838190862755 0 -16.518135461466706 0 -1 0 I I #
coedge $-1 $175 $177 $110 $187 reversed $103 $-1 #
edge $-1 $190 -33.98273046523429 $193 33.98273046523429 $186 $283 forward 7 unknown #
coedge $-1 $181 $111 $116 $196 forward $173 $-1 #
coedge $-1 $111 $181 $175 $274 reversed $173 $-1 #
vertex $-1 $112 $284 #
straight-curve $-1 0 33.98273046523429 16.518135461466706 -1 0 0 I I #
coedge $-1 $113 $176 $115 $195 reversed $63 $-1 #
vertex $-1 $187 $285 #
straight-curve $-1 0 -33.98273046523429 16.518135461466706 1 0 0 I I #
edge $-1 $118 -16.518135461466706 $184 16.518135461466706 $115 $286 forward 7 unknown #
edge $-1 $119 -16.518135461466706 $183 16.518135461466706 $116 $287 forward 7 unknown #
point $-1 76.105838190862755 -33.98273046523429 16.518135461466706 #
point $-1 76.105838190862755 33.98273046523429 16.518135461466706 #
face $-1 $288 $289 $16 $-1 $290 forward single #
loop $-1 $-1 $206 $121 #
plane-surface $-1 0 -33.98273046523429 0 0 1 0 0 0 1 forward_v I I I I #
coedge $-1 $124 $219 $125 $205 forward $71 $-1 #
edge $-1 $137 -5.4537474346041872 $209 4.0064605092715535 $134 $291 forward 7 unknown #
coedge $-1 $126 $125 $292 $293 reversed $45 $-1 #
edge $-1 $294 -76.105838190862755 $209 76.105838190862755 $202 $295 forward 7 unknown #
coedge $-1 $296 $297 $126 $207 forward $200 $-1 #
edge $-1 $210 -76.105838190862755 $298 76.105838190862755 $206 $299 forward 7 unknown #
coedge $-1 $300 $127 $297 $301 forward $122 $-1 #
vertex $-1 $128 $302 #
vertex $-1 $301 $303 #
straight-curve $-1 76.105838190862755 -14.232019450068089 -3.2828170466052367 0 -1 0 I I #
coedge $-1 $304 $305 $129 $213 forward $306 $-1 #
edge $-1 $220 8.713327884969976 $217 19.750711015166203 $212 $307 forward 7 unknown #
coedge $-1 $308 $130 $135 $223 reversed $216 $-1 #
coedge $-1 $130 $308 $304 $309 forward $216 $-1 #
loop $-1 $-1 $130 $310 #
vertex $-1 $213 $311 #
straight-curve $-1 0 -33.98273046523429 6.1773908972705041 1 0 0 I I #
coedge $-1 $202 $132 $305 $312 reversed $71 $-1 #
vertex $-1 $213 $313 #
straight-curve $-1 0 -22.945347335038065 6.1773908972705041 -1 0 0 I I #
coedge $-1 $135 $314 $315 $316 reversed $122 $-1 #
edge $-1 $317 -16.518135461466706 $136 -6.1773908972705041 $135 $318 forward 7 unknown #
point $-1 76.105838190862755 -33.98273046523429 6.1773908972705041 #
point $-1 76.105838190862755 -22.945347335038065 6.1773908972705041 #
face $-1 $319 $320 $17 $-1 $321 forward single #
loop $-1 $-1 $322 $139 #
plane-surface $-1 0 -28.464038900136178 6.1773908972705041 0 0 1 1 0 0 forward_v I I I I #
coedge $-1 $145 $323 $142 $232 forward $140 $-1 #
coedge $-1 $231 $142 $324 $325 reversed $79 $-1 #
coedge $-1 $142 $230 $143 $234 forward $79 $-1 #
edge $-1 $326 16.693039980419186 $235 23.437038531000539 $229 $327 forward 7 unknown #
coedge $-1 $144 $143 $239 $328 reversed $49 $-1 #
edge $-1 $329 4.1466049326033243e-014 $235 9.7083673359519693 $231 $330 forward 7 unknown #
vertex $-1 $146 $331 #
straight-curve $-1 -69.361839640281403 -7.9053797586189312 16.518135461466706 0 -1 0 I I #
vertex $-1 $328 $332 #
straight-curve $-1 -76.105838190862784 -22.945347335038065 9.5345203604223059 -0.69465836192734942 0 -0.71933980857756763 I I #
coedge $-1 $324 $148 $233 $328 forward $241 $-1 #
coedge $-1 $148 $333 $150 $244 reversed $241 $-1 #
loop $-1 $-1 $324 $334 #
straight-curve $-1 -76.105838190862755 -22.945347335038065 57.634817070983786 0 0 -1 I I #
coedge $-1 $335 $150 $336 $337 forward $140 $-1 #
edge $-1 $152 22.945347335038065 $338 33.98273046523429 $240 $339 forward 7 unknown #
point $-1 -69.361839640281403 -22.945347335038065 16.518135461466706 #
point $-1 -76.105838190862755 -22.945347335038065 16.518135461466706 #
face $-1 $340 $341 $18 $-1 $342 forward single #
loop $-1 $-1 $343 $154 #
plane-surface $-1 -185.59775634256388 -8.6761716994376616 115.26963414196757 0 -1 0 0.71933980857756763 0 -0.69465836192734942 forward_v I I I I #
loop $-1 $-1 $344 $86 #
coedge $-1 $252 $157 $345 $346 forward $87 $-1 #
coedge $-1 $157 $251 $347 $348 reversed $87 $-1 #
coedge $-1 $349 $350 $157 $254 forward $341 $-1 #
edge $-1 $351 -23.437038531000539 $352 -16.693039980419186 $253 $353 forward 7 unknown #
edge $-1 $354 1 $354 0 $158 $-1 forward 7 unknown #
vertex $-1 $159 $355 #
ellipse-curve $-1 -67.896543787521495 -18.868440010580805 8.3550064162320155 -0.71933980857756763 0 0.69465836192734942 1.3893167238546988 0 1.4386796171551353 1 I I #
point $-1 -71.344522191717346 -18.868440010580805 14.46500752809963 #
face $-1 $356 $169 $19 $-1 $357 forward single #
loop $-1 $-1 $358 $162 #
plane-surface $-1 -185.59775634256388 -22.945347335038065 115.26963414196757 0 1 0 -0.71933980857756763 0 0.69465836192734942 forward_v I I I I #
loop $-1 $-1 $359 $94 #
coedge $-1 $263 $263 $264 $360 forward $163 $-1 #
coedge $-1 $264 $264 $263 $360 reversed $165 $-1 #
coedge $-1 $265 $265 $166 $266 forward $270 $-1 #
edge $-1 $361 0 $361 6.2831853071796004 $265 $362 forward 7 unknown #
edge $-1 $363 1 $363 0 $167 $-1 forward 7 unknown #
vertex $-1 $168 $364 #
ellipse-curve $-1 -67.896543787521495 -12.753079023894919 8.3550064162320155 -0.71933980857756763 0 0.69465836192734942 1.3893167238546988 0 1.4386796171551353 1 I I #
loop $-1 $365 $265 $259 #
point $-1 -71.344522191717346 -12.753079023894919 14.46500752809963 #
plane-surface $-1 76.105838190862755 0 0 -1 0 0 0 0 1 forward_v I I I I #
coedge $-1 $177 $175 $179 $277 reversed $103 $-1 #
edge $-1 $190 -16.518135461466706 $279 16.518135461466706 $189 $366 forward 7 unknown #
vertex $-1 $277 $367 #
straight-curve $-1 -76.105838190862755 -33.98273046523429 0 0 0 -1 I I #
edge $-1 $275 -33.98273046523429 $279 33.98273046523429 $273 $368 forward 7 unknown #
straight-curve $-1 0 -33.98273046523429 -16.518135461466706 -1 0 0 I I #
vertex $-1 $182 $369 #
straight-curve $-1 0 33.98273046523429 -16.518135461466706 1 0 0 I I #
point $-1 76.105838190862755 33.98273046523429 -16.518135461466706 #
point $-1 76.105838190862755 -33.98273046523429 -16.518135461466706 #
straight-curve $-1 -76.105838190862755 0 16.518135461466706 0 -1 0 I I #
point $-1 -76.105838190862755 33.98273046523429 16.518135461466706 #
point $-1 -76.105838190862755 -33.98273046523429 16.518135461466706 #
straight-curve $-1 76.105838190862755 -33.98273046523429 0 0 0 -1 I I #
straight-curve $-1 76.105838190862755 33.98273046523429 0 0 0 -1 I I #
face $-1 $310 $370 $16 $-1 $371 reversed single #
loop $-1 $-1 $315 $199 #
plane-surface $-1 0 0 16.518135461466706 0 0 1 1 0 0 forward_v I I I I #
straight-curve $-1 76.105838190862755 -22.945347335038065 0.72364346266631685 0 0 -1 I I #
coedge $-1 $305 $372 $204 $293 forward $306 $-1 #
edge $-1 $298 -19.750711015166203 $294 -8.713327884969976 $292 $373 forward 7 unknown #
vertex $-1 $293 $374 #
straight-curve $-1 0 -22.945347335038065 -3.2828170466052367 1 0 0 I I #
coedge $-1 $375 $206 $372 $376 forward $200 $-1 #
coedge $-1 $206 $375 $208 $301 reversed $200 $-1 #
vertex $-1 $376 $377 #
straight-curve $-1 0 -33.98273046523429 -3.2828170466052367 -1 0 0 I I #
coedge $-1 $314 $208 $378 $379 reversed $122 $-1 #
edge $-1 $210 3.2828170466052367 $380 16.518135461466706 $208 $318 forward 7 unknown #
point $-1 76.105838190862755 -22.945347335038065 -3.2828170466052367 #
point $-1 76.105838190862755 -33.98273046523429 -3.2828170466052367 #
coedge $-1 $381 $212 $215 $309 reversed $306 $-1 #
coedge $-1 $212 $292 $219 $312 forward $306 $-1 #
loop $-1 $-1 $212 $382 #
straight-curve $-1 -76.105838190862755 -14.232019450068089 6.1773908972705041 0 -1 0 I I #
coedge $-1 $215 $214 $383 $384 reversed $216 $-1 #
edge $-1 $385 -16.518135461466706 $217 -6.1773908972705041 $304 $386 forward 7 unknown #
face $-1 $382 $216 $16 $-1 $201 reversed single #
point $-1 -76.105838190862755 -33.98273046523429 6.1773908972705041 #
edge $-1 $294 -4.0064605092715535 $220 5.4537474346041872 $305 $387 forward 7 unknown #
point $-1 -76.105838190862755 -22.945347335038065 6.1773908972705041 #
coedge $-1 $222 $300 $388 $389 reversed $122 $-1 #
coedge $-1 $390 $383 $222 $316 forward $289 $-1 #
edge $-1 $317 -33.98273046523429 $391 33.98273046523429 $222 $392 forward 7 unknown #
vertex $-1 $316 $393 #
straight-curve $-1 76.105838190862755 -33.98273046523429 0 0 0 -1 I I #
face $-1 $394 $395 $17 $-1 $396 forward single #
loop $-1 $-1 $397 $226 #
plane-surface $-1 0 -28.464038900136178 -3.2828170466052367 0 0 1 1 0 0 forward_v I I I I #
coedge $-1 $398 $399 $400 $401 reversed $227 $-1 #
coedge $-1 $229 $402 $403 $404 forward $140 $-1 #
coedge $-1 $403 $239 $230 $325 forward $241 $-1 #
edge $-1 $329 -48.100296710561452 $326 -41.11668160951708 $324 $405 forward 7 unknown #
vertex $-1 $325 $406 #
straight-curve $-1 -92.798878171281942 -8.6761716994376616 16.518135461466706 1 0 0 I I #
edge $-1 $237 -15.039967576419134 $329 -0.77079194081873048 $239 $407 forward 7 unknown #
vertex $-1 $328 $408 #
straight-curve $-1 -76.105838190862784 -8.6761716994376616 9.5345203604223059 0.69465836192734942 0 0.71933980857756763 I I #
point $-1 -69.361839640281403 -8.6761716994376616 16.518135461466706 #
point $-1 -76.105838190862755 -22.945347335038065 9.5345203604223361 #
coedge $-1 $240 $409 $410 $411 reversed $241 $-1 #
face $-1 $412 $241 $17 $-1 $413 reversed single #
coedge $-1 $402 $243 $414 $415 forward $140 $-1 #
coedge $-1 $410 $416 $243 $337 reversed $417 $-1 #
edge $-1 $338 -76.105838190862755 $418 76.105838190862755 $336 $419 forward 7 unknown #
vertex $-1 $244 $420 #
straight-curve $-1 -76.105838190862755 0 16.518135461466706 0 -1 0 I I #
face $-1 $421 $422 $18 $-1 $423 reversed single #
loop $-1 $-1 $424 $247 #
plane-surface $-1 0 0 16.518135461466706 0 0 1 1 0 0 forward_v I I I I #
coedge $-1 $425 $426 $424 $427 reversed $248 $-1 #
coedge $-1 $428 $345 $350 $429 reversed $250 $-1 #
coedge $-1 $344 $430 $251 $346 reversed $250 $-1 #
edge $-1 $351 -9.7083673359519693 $431 -4.1466049326033243e-014 $251 $432 forward 7 unknown #
coedge $-1 $433 $434 $252 $348 forward $435 $-1 #
edge $-1 $352 41.11668160951708 $431 48.100296710561452 $347 $436 forward 7 unknown #
coedge $-1 $437 $253 $434 $438 forward $341 $-1 #
coedge $-1 $253 $424 $344 $429 forward $341 $-1 #
vertex $-1 $429 $439 #
vertex $-1 $438 $440 #
straight-curve $-1 -92.798878171281942 -22.945347335038065 16.518135461466706 -1 0 0 I I #
vertex $-1 $255 $441 #
point $-1 -66.507227063666789 -18.868440010580805 9.79368603338715 #
face $-1 $442 $443 $19 $-1 $444 forward single #
plane-surface $-1 -76.105838190862784 -15.810759517237862 9.5345203604223059 -0.71933980857756763 0 0.69465836192734942 0.69465836192734942 0 0.71933980857756763 forward_v I I I I #
coedge $-1 $445 $446 $447 $448 reversed $260 $-1 #
coedge $-1 $359 $359 $-1 $449 forward $262 $-1 #
edge $-1 $450 0 $450 6.2831853071796004 $263 $451 forward 7 unknown #
vertex $-1 $266 $452 #
ellipse-curve $-1 -72.733838915572079 -18.868440010580805 13.02632791094452 0.71933980857756763 0 -0.69465836192734942 1.3893167238546988 0 1.4386796171551353 1 I I #
vertex $-1 $267 $453 #
point $-1 -66.507227063666789 -12.753079023894919 9.79368603338715 #
loop $-1 $-1 $454 $259 #
straight-curve $-1 -76.105838190862755 33.98273046523429 0 0 0 -1 I I #
point $-1 -76.105838190862755 -33.98273046523429 -16.518135461466706 #
straight-curve $-1 -76.105838190862755 0 -16.518135461466706 0 1 0 I I #
point $-1 -76.105838190862755 33.98273046523429 -16.518135461466706 #
loop $-1 $-1 $378 $288 #
plane-surface $-1 0 0 -16.518135461466706 0 0 1 1 0 0 forward_v I I I I #
coedge $-1 $292 $455 $296 $376 reversed $306 $-1 #
straight-curve $-1 -76.105838190862755 -14.232019450068089 -3.2828170466052367 0 1 0 I I #
point $-1 -76.105838190862755 -22.945347335038065 -3.2828170466052367 #
coedge $-1 $297 $296 $456 $457 reversed $200 $-1 #
edge $-1 $298 3.2828170466052367 $458 16.518135461466706 $372 $386 forward 7 unknown #
point $-1 -76.105838190862755 -33.98273046523429 -3.2828170466052367 #
coedge $-1 $456 $459 $300 $379 forward $370 $-1 #
edge $-1 $460 -33.98273046523429 $380 33.98273046523429 $300 $461 forward 7 unknown #
vertex $-1 $301 $462 #
coedge $-1 $463 $304 $464 $465 reversed $306 $-1 #
face $-1 $466 $306 $16 $-1 $467 reversed single #
coedge $-1 $315 $464 $308 $384 forward $289 $-1 #
edge $-1 $385 -76.105838190862755 $317 76.105838190862755 $308 $468 forward 7 unknown #
vertex $-1 $465 $469 #
straight-curve $-1 -76.105838190862755 -33.98273046523429 0 0 0 -1 I I #
straight-curve $-1 -76.105838190862755 -22.945347335038065 0.72364346266631685 0 0 1 I I #
coedge $-1 $470 $471 $314 $389 forward $472 $-1 #
edge $-1 $391 -16.518135461466706 $460 16.518135461466706 $314 $473 forward 7 unknown #
coedge $-1 $464 $315 $471 $474 forward $289 $-1 #
vertex $-1 $316 $475 #
straight-curve $-1 76.105838190862755 0 16.518135461466706 0 1 0 I I #
point $-1 76.105838190862755 -33.98273046523429 16.518135461466706 #
face $-1 $476 $477 $17 $-1 $478 reversed single #
loop $-1 $-1 $479 $319 #
plane-surface $-1 0 -22.945347335038065 1.4472869253326337 0 -1 0 0 0 -1 forward_v I I I I #
coedge $-1 $480 $481 $482 $483 reversed $320 $-1 #
coedge $-1 $484 $322 $485 $486 reversed $227 $-1 #
coedge $-1 $322 $484 $487 $488 reversed $227 $-1 #
coedge $-1 $489 $490 $322 $401 forward $477 $-1 #
edge $-1 $491 -19.750711015166203 $492 -8.713327884969976 $400 $493 forward 7 unknown #
coedge $-1 $323 $335 $494 $495 forward $140 $-1 #
coedge $-1 $496 $324 $323 $404 reversed $241 $-1 #
edge $-1 $497 -33.98273046523429 $326 8.6761716994376616 $403 $339 forward 7 unknown #
straight-curve $-1 -76.105838190862755 -8.6761716994376616 57.634817070983786 0 0 1 I I #
point $-1 -76.105838190862755 -8.6761716994376616 16.518135461466706 #
straight-curve $-1 -76.105838190862755 -7.9053797586189312 9.5345203604223414 0 1 0 I I #
point $-1 -76.105838190862755 -8.6761716994376616 9.5345203604223361 #
coedge $-1 $333 $498 $484 $499 forward $241 $-1 #
coedge $-1 $485 $336 $333 $411 forward $417 $-1 #
edge $-1 $338 -16.518135461466706 $500 -6.1773908972705041 $333 $501 forward 7 unknown #
face $-1 $-1 $502 $17 $-1 $503 reversed single #
plane-surface $-1 -76.105838190862755 0 0 1 0 0 0 0 -1 forward_v I I I I #
coedge $-1 $490 $504 $335 $415 reversed $477 $-1 #
edge $-1 $418 -33.98273046523429 $505 33.98273046523429 $414 $506 forward 7 unknown #
coedge $-1 $336 $485 $490 $507 reversed $417 $-1 #
loop $-1 $-1 $485 $508 #
vertex $-1 $415 $509 #
straight-curve $-1 0 -33.98273046523429 16.518135461466706 1 0 0 I I #
point $-1 -76.105838190862755 -33.98273046523429 16.518135461466706 #
face $-1 $510 $511 $18 $-1 $512 forward single #
loop $-1 $-1 $513 $340 #
plane-surface $-1 0 -28.464038900136178 6.1773908972705041 0 0 1 1 0 0 forward_v I I I I #
coedge $-1 $350 $514 $343 $427 forward $341 $-1 #
coedge $-1 $426 $343 $515 $516 reversed $248 $-1 #
coedge $-1 $343 $425 $428 $517 forward $248 $-1 #
edge $-1 $518 16.693039980419186 $519 23.437038531000539 $424 $520 forward 7 unknown #
coedge $-1 $430 $344 $426 $517 reversed $250 $-1 #
edge $-1 $519 0.77079194081873048 $351 15.039967576419134 $350 $521 forward 7 unknown #
coedge $-1 $345 $428 $433 $522 reversed $250 $-1 #
vertex $-1 $522 $523 #
straight-curve $-1 -76.105838190862784 -22.945347335038065 9.5345203604223059 -0.69465836192734942 0 -0.71933980857756763 I I #
coedge $-1 $515 $347 $430 $522 forward $435 $-1 #
coedge $-1 $347 $524 $349 $438 reversed $435 $-1 #
loop $-1 $-1 $515 $525 #
straight-curve $-1 -76.105838190862755 -22.945347335038065 57.634817070983786 0 0 -1 I I #
coedge $-1 $526 $349 $527 $528 forward $341 $-1 #
edge $-1 $352 22.945347335038065 $529 33.98273046523429 $434 $530 forward 7 unknown #
point $-1 -69.361839640281403 -22.945347335038065 16.518135461466706 #
point $-1 -76.105838190862755 -22.945347335038065 16.518135461466706 #
point $-1 -66.457864170366349 -18.868440010580805 6.9656896923773175 #
face $-1 $531 $532 $19 $-1 $533 forward single #
loop $-1 $-1 $534 $356 #
plane-surface $-1 -185.59775634256388 -8.6761716994376616 115.26963414196757 0 -1 0 0.71933980857756763 0 -0.69465836192734942 forward_v I I I I #
coedge $-1 $446 $358 $535 $536 forward $260 $-1 #
coedge $-1 $358 $445 $537 $538 reversed $260 $-1 #
coedge $-1 $539 $540 $358 $448 forward $532 $-1 #
edge $-1 $541 -23.437038531000539 $542 -16.693039980419186 $447 $543 forward 7 unknown #
edge $-1 $544 1 $544 0 $359 $-1 forward 7 unknown #
vertex $-1 $360 $545 #
ellipse-curve $-1 -67.896543787521495 -18.868440010580805 8.3550064162320155 -0.71933980857756763 0 0.69465836192734942 1.3893167238546988 0 1.4386796171551353 1 I I #
point $-1 -71.344522191717346 -18.868440010580805 14.46500752809963 #
point $-1 -66.457864170366349 -12.753079023894919 6.9656896923773175 #
coedge $-1 $546 $535 $540 $547 reversed $365 $-1 #
coedge $-1 $372 $463 $548 $549 reversed $306 $-1 #
coedge $-1 $548 $378 $375 $457 forward $370 $-1 #
edge $-1 $380 -76.105838190862755 $458 76.105838190862755 $375 $550 forward 7 unknown #
vertex $-1 $549 $551 #
coedge $-1 $378 $548 $470 $552 forward $370 $-1 #
vertex $-1 $379 $553 #
straight-curve $-1 76.105838190862755 0 -16.518135461466706 0 -1 0 I I #
point $-1 76.105838190862755 -33.98273046523429 -16.518135461466706 #
coedge $-1 $455 $381 $554 $555 forward $306 $-1 #
coedge $-1 $383 $390 $381 $465 forward $289 $-1 #
edge $-1 $556 -33.98273046523429 $385 33.98273046523429 $381 $557 forward 7 unknown #
face $-1 $-1 $472 $16 $-1 $558 reversed single #
plane-surface $-1 -76.105838190862755 0 0 1 0 0 0 0 -1 forward_v I I I I #
straight-curve $-1 0 -33.98273046523429 16.518135461466706 1 0 0 I I #
point $-1 -76.105838190862755 -33.98273046523429 16.518135461466706 #
coedge $-1 $554 $388 $459 $552 reversed $472 $-1 #
coedge $-1 $388 $554 $390 $474 reversed $472 $-1 #
loop $-1 $-1 $388 $466 #
straight-curve $-1 76.105838190862755 33.98273046523429 0 0 0 -1 I I #
edge $-1 $391 -76.105838190862755 $556 76.105838190862755 $471 $559 forward 7 unknown #
point $-1 76.105838190862755 33.98273046523429 16.518135461466706 #
face $-1 $560 $561 $17 $-1 $562 reversed single #
loop $-1 $-1 $400 $394 #
plane-surface $-1 76.105838190862755 0 0 -1 0 0 0 0 1 forward_v I I I I #
coedge $-1 $487 $563 $489 $564 reversed $395 $-1 #
coedge $-1 $565 $397 $563 $566 reversed $320 $-1 #
coedge $-1 $397 $565 $567 $568 reversed $320 $-1 #
coedge $-1 $569 $489 $397 $483 forward $477 $-1 #
edge $-1 $570 8.713327884969976 $571 19.750711015166203 $482 $572 forward 7 unknown #
coedge $-1 $399 $398 $409 $499 reversed $227 $-1 #
coedge $-1 $416 $410 $398 $486 forward $417 $-1 #
edge $-1 $500 -76.105838190862755 $491 76.105838190862755 $485 $573 forward 7 unknown #
coedge $-1 $574 $479 $399 $488 forward $395 $-1 #
edge $-1 $492 -76.105838190862755 $575 76.105838190862755 $487 $576 forward 7 unknown #
coedge $-1 $482 $400 $479 $564 forward $477 $-1 #
coedge $-1 $400 $414 $416 $507 forward $477 $-1 #
vertex $-1 $486 $577 #
vertex $-1 $401 $578 #
straight-curve $-1 76.105838190862755 -14.232019450068089 6.1773908972705041 0 1 0 I I #
coedge $-1 $579 $580 $402 $495 reversed $502 $-1 #
edge $-1 $505 -76.105838190862755 $497 76.105838190862755 $494 $581 forward 7 unknown #
coedge $-1 $582 $403 $580 $583 forward $241 $-1 #
vertex $-1 $495 $584 #
coedge $-1 $409 $585 $574 $586 forward $241 $-1 #
edge $-1 $575 8.713327884969976 $500 19.750711015166203 $409 $587 forward 7 unknown #
vertex $-1 $499 $588 #
straight-curve $-1 -76.105838190862755 -33.98273046523429 0 0 0 -1 I I #
loop $-1 $-1 $579 $412 #
plane-surface $-1 0 33.98273046523429 0 0 -1 0 0 0 -1 forward_v I I I I #
coedge $-1 $414 $589 $579 $590 reversed $477 $-1 #
vertex $-1 $415 $591 #
straight-curve $-1 76.105838190862755 0 16.518135461466706 0 1 0 I I #
edge $-1 $418 -16.518135461466706 $491 -6.1773908972705041 $490 $592 forward 7 unknown #
face $-1 $334 $417 $17 $-1 $562 reversed single #
point $-1 76.105838190862755 -33.98273046523429 16.518135461466706 #
face $-1 $593 $594 $18 $-1 $595 forward single #
loop $-1 $-1 $596 $421 #
plane-surface $-1 0 -28.464038900136178 -3.2828170466052367 0 0 1 1 0 0 forward_v I I I I #
coedge $-1 $597 $598 $599 $600 reversed $422 $-1 #
coedge $-1 $424 $601 $602 $603 forward $341 $-1 #
coedge $-1 $602 $433 $425 $516 forward $435 $-1 #
edge $-1 $604 -48.100296710561452 $518 -41.11668160951708 $515 $605 forward 7 unknown #
edge $-1 $604 4.1466049326033243e-014 $519 9.7083673359519693 $426 $606 forward 7 unknown #
vertex $-1 $516 $607 #
vertex $-1 $429 $608 #
straight-curve $-1 -92.798878171281942 -8.6761716994376616 16.518135461466706 1 0 0 I I #
straight-curve $-1 -69.361839640281403 -7.9053797586189312 16.518135461466706 0 -1 0 I I #
edge $-1 $431 -15.039967576419134 $604 -0.77079194081873048 $433 $609 forward 7 unknown #
point $-1 -76.105838190862755 -22.945347335038065 9.5345203604223361 #
coedge $-1 $434 $610 $611 $612 reversed $435 $-1 #
face $-1 $613 $435 $18 $-1 $614 reversed single #
coedge $-1 $601 $437 $615 $616 forward $341 $-1 #
coedge $-1 $611 $617 $437 $528 reversed $618 $-1 #
edge $-1 $529 -76.105838190862755 $619 76.105838190862755 $527 $620 forward 7 unknown #
vertex $-1 $438 $621 #
straight-curve $-1 -76.105838190862755 0 16.518135461466706 0 -1 0 I I #
face $-1 $622 $623 $19 $-1 $624 reversed single #
loop $-1 $-1 $625 $442 #
plane-surface $-1 0 0 16.518135461466706 0 0 1 1 0 0 forward_v I I I I #
coedge $-1 $626 $627 $625 $628 reversed $443 $-1 #
coedge $-1 $454 $629 $445 $536 reversed $365 $-1 #
edge $-1 $541 -9.7083673359519693 $630 -4.1466049326033243e-014 $445 $631 forward 7 unknown #
coedge $-1 $632 $633 $446 $538 forward $634 $-1 #
edge $-1 $542 41.11668160951708 $630 48.100296710561452 $537 $635 forward 7 unknown #
coedge $-1 $636 $447 $633 $637 forward $532 $-1 #
coedge $-1 $447 $625 $454 $547 forward $532 $-1 #
vertex $-1 $547 $638 #
vertex $-1 $637 $639 #
straight-curve $-1 -92.798878171281942 -22.945347335038065 16.518135461466706 -1 0 0 I I #
vertex $-1 $449 $640 #
point $-1 -66.507227063666789 -18.868440010580805 9.79368603338715 #
coedge $-1 $629 $454 $627 $641 reversed $365 $-1 #
edge $-1 $642 0.77079194081873048 $541 15.039967576419134 $540 $643 forward 7 unknown #
coedge $-1 $459 $456 $455 $549 forward $370 $-1 #
edge $-1 $458 -33.98273046523429 $644 33.98273046523429 $455 $645 forward 7 unknown #
straight-curve $-1 0 -33.98273046523429 -16.518135461466706 -1 0 0 I I #
point $-1 -76.105838190862755 -33.98273046523429 -16.518135461466706 #
edge $-1 $644 -76.105838190862755 $460 76.105838190862755 $470 $646 forward 7 unknown #
point $-1 76.105838190862755 33.98273046523429 -16.518135461466706 #
coedge $-1 $471 $470 $463 $555 reversed $472 $-1 #
edge $-1 $556 -16.518135461466706 $644 16.518135461466706 $554 $647 forward 7 unknown #
vertex $-1 $474 $648 #
straight-curve $-1 -76.105838190862755 0 16.518135461466706 0 -1 0 I I #
plane-surface $-1 0 33.98273046523429 0 0 -1 0 0 0 -1 forward_v I I I I #
straight-curve $-1 0 33.98273046523429 16.518135461466706 -1 0 0 I I #
face $-1 $508 $649 $17 $-1 $650 reversed single #
loop $-1 $-1 $567 $476 #
plane-surface $-1 0 -33.98273046523429 0 0 1 0 0 0 1 forward_v I I I I #
coedge $-1 $479 $574 $480 $566 forward $395 $-1 #
edge $-1 $492 -5.4537474346041872 $570 4.0064605092715535 $489 $651 forward 7 unknown #
coedge $-1 $481 $480 $585 $652 reversed $320 $-1 #
edge $-1 $653 -76.105838190862755 $570 76.105838190862755 $563 $654 forward 7 unknown #
coedge $-1 $655 $656 $481 $568 forward $561 $-1 #
edge $-1 $571 -76.105838190862755 $657 76.105838190862755 $567 $658 forward 7 unknown #
coedge $-1 $589 $482 $656 $659 forward $477 $-1 #
vertex $-1 $483 $660 #
vertex $-1 $659 $661 #
straight-curve $-1 76.105838190862755 -14.232019450068089 -3.2828170466052367 0 -1 0 I I #
straight-curve $-1 0 -33.98273046523429 6.1773908972705041 1 0 0 I I #
coedge $-1 $563 $487 $498 $586 reversed $395 $-1 #
vertex $-1 $499 $662 #
straight-curve $-1 0 -22.945347335038065 6.1773908972705041 -1 0 0 I I #
point $-1 76.105838190862755 -33.98273046523429 6.1773908972705041 #
point $-1 76.105838190862755 -22.945347335038065 6.1773908972705041 #
coedge $-1 $663 $494 $504 $590 forward $502 $-1 #
coedge $-1 $494 $663 $496 $583 reversed $502 $-1 #
straight-curve $-1 0 33.98273046523429 16.518135461466706 -1 0 0 I I #
coedge $-1 $664 $496 $665 $666 reversed $241 $-1 #
edge $-1 $497 -16.518135461466706 $667 16.518135461466706 $580 $668 forward 7 unknown #
point $-1 -76.105838190862755 33.98273046523429 16.518135461466706 #
coedge $-1 $498 $664 $565 $652 forward $241 $-1 #
edge $-1 $653 -4.0064605092715535 $575 5.4537474346041872 $498 $669 forward 7 unknown #
straight-curve $-1 -76.105838190862755 -14.232019450068089 6.1773908972705041 0 -1 0 I I #
point $-1 -76.105838190862755 -33.98273046523429 6.1773908972705041 #
coedge $-1 $504 $569 $670 $671 reversed $477 $-1 #
edge $-1 $505 -16.518135461466706 $672 16.518135461466706 $504 $673 forward 7 unknown #
point $-1 76.105838190862755 33.98273046523429 16.518135461466706 #
straight-curve $-1 76.105838190862755 -33.98273046523429 0 0 0 -1 I I #
face $-1 $674 $675 $18 $-1 $676 reversed single #
loop $-1 $-1 $677 $510 #
plane-surface $-1 0 -22.945347335038065 1.4472869253326337 0 -1 0 0 0 -1 forward_v I I I I #
coedge $-1 $678 $679 $680 $681 reversed $511 $-1 #
coedge $-1 $682 $513 $683 $684 reversed $422 $-1 #
coedge $-1 $513 $682 $685 $686 reversed $422 $-1 #
coedge $-1 $687 $688 $513 $600 forward $675 $-1 #
edge $-1 $689 -19.750711015166203 $690 -8.713327884969976 $599 $691 forward 7 unknown #
coedge $-1 $514 $526 $692 $693 forward $341 $-1 #
coedge $-1 $694 $515 $514 $603 reversed $435 $-1 #
edge $-1 $695 -33.98273046523429 $518 8.6761716994376616 $602 $530 forward 7 unknown #
vertex $-1 $522 $696 #
straight-curve $-1 -76.105838190862755 -8.6761716994376616 57.634817070983786 0 0 1 I I #
straight-curve $-1 -76.105838190862784 -8.6761716994376616 9.5345203604223059 0.69465836192734942 0 0.71933980857756763 I I #
point $-1 -76.105838190862755 -8.6761716994376616 16.518135461466706 #
point $-1 -69.361839640281403 -8.6761716994376616 16.518135461466706 #
straight-curve $-1 -76.105838190862755 -7.9053797586189312 9.5345203604223414 0 1 0 I I #
coedge $-1 $524 $697 $682 $698 forward $435 $-1 #
coedge $-1 $683 $527 $524 $612 forward $618 $-1 #
edge $-1 $529 -16.518135461466706 $699 -6.1773908972705041 $524 $700 forward 7 unknown #
face $-1 $-1 $701 $18 $-1 $702 reversed single #
plane-surface $-1 -76.105838190862755 0 0 1 0 0 0 0 -1 forward_v I I I I #
coedge $-1 $688 $703 $526 $616 reversed $675 $-1 #
edge $-1 $619 -33.98273046523429 $704 33.98273046523429 $615 $705 forward 7 unknown #
coedge $-1 $527 $683 $688 $706 reversed $618 $-1 #
loop $-1 $-1 $683 $707 #
vertex $-1 $616 $708 #
straight-curve $-1 0 -33.98273046523429 16.518135461466706 1 0 0 I I #
point $-1 -76.105838190862755 -33.98273046523429 16.518135461466706 #
face $-1 $709 $710 $19 $-1 $711 forward single #
loop $-1 $-1 $712 $531 #
plane-surface $-1 0 -28.464038900136178 6.1773908972705041 0 0 1 1 0 0 forward_v I I I I #
coedge $-1 $540 $713 $534 $628 forward $532 $-1 #
coedge $-1 $627 $534 $714 $715 reversed $443 $-1 #
coedge $-1 $534 $626 $546 $641 forward $443 $-1 #
edge $-1 $716 16.693039980419186 $642 23.437038531000539 $625 $717 forward 7 unknown #
coedge $-1 $535 $546 $632 $718 reversed $365 $-1 #
vertex $-1 $718 $719 #
straight-curve $-1 -76.105838190862784 -22.945347335038065 9.5345203604223059 -0.69465836192734942 0 -0.71933980857756763 I I #
coedge $-1 $714 $537 $629 $718 forward $634 $-1 #
coedge $-1 $537 $720 $539 $637 reversed $634 $-1 #
loop $-1 $-1 $714 $721 #
straight-curve $-1 -76.105838190862755 -22.945347335038065 57.634817070983786 0 0 -1 I I #
coedge $-1 $722 $539 $723 $724 forward $532 $-1 #
edge $-1 $542 22.945347335038065 $725 33.98273046523429 $633 $726 forward 7 unknown #
point $-1 -69.361839640281403 -22.945347335038065 16.518135461466706 #
point $-1 -76.105838190862755 -22.945347335038065 16.518135461466706 #
point $-1 -66.457864170366349 -18.868440010580805 6.9656896923773175 #
edge $-1 $727 4.1466049326033243e-014 $642 9.7083673359519693 $627 $728 forward 7 unknown #
vertex $-1 $547 $729 #
straight-curve $-1 -69.361839640281403 -7.9053797586189312 16.518135461466706 0 -1 0 I I #
vertex $-1 $552 $730 #
straight-curve $-1 -76.105838190862755 0 -16.518135461466706 0 1 0 I I #
straight-curve $-1 0 33.98273046523429 -16.518135461466706 1 0 0 I I #
straight-curve $-1 -76.105838190862755 33.98273046523429 0 0 0 -1 I I #
point $-1 -76.105838190862755 33.98273046523429 16.518135461466706 #
loop $-1 $-1 $670 $560 #
plane-surface $-1 0 0 -16.518135461466706 0 0 1 1 0 0 forward_v I I I I #
straight-curve $-1 76.105838190862755 -22.945347335038065 0.72364346266631685 0 0 -1 I I #
edge $-1 $657 -19.750711015166203 $653 -8.713327884969976 $585 $731 forward 7 unknown #
vertex $-1 $652 $732 #
straight-curve $-1 0 -22.945347335038065 -3.2828170466052367 1 0 0 I I #
coedge $-1 $733 $567 $664 $734 forward $561 $-1 #
coedge $-1 $567 $733 $569 $659 reversed $561 $-1 #
vertex $-1 $734 $735 #
straight-curve $-1 0 -33.98273046523429 -3.2828170466052367 -1 0 0 I I #
edge $-1 $571 3.2828170466052367 $736 16.518135461466706 $569 $592 forward 7 unknown #
point $-1 76.105838190862755 -22.945347335038065 -3.2828170466052367 #
point $-1 76.105838190862755 -33.98273046523429 -3.2828170466052367 #
point $-1 -76.105838190862755 -22.945347335038065 6.1773908972705041 #
coedge $-1 $580 $579 $737 $738 reversed $502 $-1 #
coedge $-1 $585 $582 $655 $734 reversed $241 $-1 #
coedge $-1 $737 $739 $582 $666 forward $649 $-1 #
edge $-1 $740 -33.98273046523429 $667 33.98273046523429 $582 $741 forward 7 unknown #
vertex $-1 $738 $742 #
straight-curve $-1 -76.105838190862755 33.98273046523429 0 0 0 -1 I I #
straight-curve $-1 -76.105838190862755 -22.945347335038065 0.72364346266631685 0 0 1 I I #
coedge $-1 $739 $737 $589 $671 forward $649 $-1 #
edge $-1 $672 -33.98273046523429 $736 33.98273046523429 $589 $743 forward 7 unknown #
vertex $-1 $671 $744 #
straight-curve $-1 76.105838190862755 33.98273046523429 0 0 0 -1 I I #
face $-1 $745 $746 $18 $-1 $747 reversed single #
loop $-1 $-1 $599 $593 #
plane-surface $-1 76.105838190862755 0 0 -1 0 0 0 0 1 forward_v I I I I #
coedge $-1 $685 $748 $687 $749 reversed $594 $-1 #
coedge $-1 $750 $596 $748 $751 reversed $511 $-1 #
coedge $-1 $596 $750 $752 $753 reversed $511 $-1 #
coedge $-1 $754 $687 $596 $681 forward $675 $-1 #
edge $-1 $755 8.713327884969976 $756 19.750711015166203 $680 $757 forward 7 unknown #
coedge $-1 $598 $597 $610 $698 reversed $422 $-1 #
coedge $-1 $617 $611 $597 $684 forward $618 $-1 #
edge $-1 $699 -76.105838190862755 $689 76.105838190862755 $683 $758 forward 7 unknown #
coedge $-1 $759 $677 $598 $686 forward $594 $-1 #
edge $-1 $690 -76.105838190862755 $760 76.105838190862755 $685 $761 forward 7 unknown #
coedge $-1 $680 $599 $677 $749 forward $675 $-1 #
coedge $-1 $599 $615 $617 $706 forward $675 $-1 #
vertex $-1 $684 $762 #
vertex $-1 $600 $763 #
straight-curve $-1 76.105838190862755 -14.232019450068089 6.1773908972705041 0 1 0 I I #
coedge $-1 $764 $765 $601 $693 reversed $701 $-1 #
edge $-1 $704 -76.105838190862755 $695 76.105838190862755 $692 $766 forward 7 unknown #
coedge $-1 $767 $602 $765 $768 forward $435 $-1 #
vertex $-1 $693 $769 #
point $-1 -76.105838190862755 -8.6761716994376616 9.5345203604223361 #
coedge $-1 $610 $770 $759 $771 forward $435 $-1 #
edge $-1 $760 8.713327884969976 $699 19.750711015166203 $610 $772 forward 7 unknown #
vertex $-1 $698 $773 #
straight-curve $-1 -76.105838190862755 -33.98273046523429 0 0 0 -1 I I #
loop $-1 $-1 $764 $613 #
plane-surface $-1 0 33.98273046523429 0 0 -1 0 0 0 -1 forward_v I I I I #
coedge $-1 $615 $774 $764 $775 reversed $675 $-1 #
vertex $-1 $616 $776 #
straight-curve $-1 76.105838190862755 0 16.518135461466706 0 1 0 I I #
edge $-1 $619 -16.518135461466706 $689 -6.1773908972705041 $688 $777 forward 7 unknown #
face $-1 $525 $618 $18 $-1 $747 reversed single #
point $-1 76.105838190862755 -33.98273046523429 16.518135461466706 #
face $-1 $778 $779 $19 $-1 $780 forward single #
loop $-1 $-1 $781 $622 #
plane-surface $-1 0 -28.464038900136178 -3.2828170466052367 0 0 1 1 0 0 forward_v I I I I #
coedge $-1 $782 $783 $784 $785 reversed $623 $-1 #
coedge $-1 $625 $786 $787 $788 forward $532 $-1 #
coedge $-1 $787 $632 $626 $715 forward $634 $-1 #
edge $-1 $727 -48.100296710561452 $716 -41.11668160951708 $714 $789 forward 7 unknown #
vertex $-1 $715 $790 #
straight-curve $-1 -92.798878171281942 -8.6761716994376616 16.518135461466706 1 0 0 I I #
edge $-1 $630 -15.039967576419134 $727 -0.77079194081873048 $632 $791 forward 7 unknown #
point $-1 -76.105838190862755 -22.945347335038065 9.5345203604223361 #
coedge $-1 $633 $792 $793 $794 reversed $634 $-1 #
face $-1 $795 $634 $19 $-1 $796 reversed single #
coedge $-1 $786 $636 $797 $798 forward $532 $-1 #
coedge $-1 $793 $799 $636 $724 reversed $800 $-1 #
edge $-1 $725 -76.105838190862755 $801 76.105838190862755 $723 $802 forward 7 unknown #
vertex $-1 $637 $803 #
straight-curve $-1 -76.105838190862755 0 16.518135461466706 0 -1 0 I I #
vertex $-1 $718 $804 #
straight-curve $-1 -76.105838190862784 -8.6761716994376616 9.5345203604223059 0.69465836192734942 0 0.71933980857756763 I I #
point $-1 -69.361839640281403 -8.6761716994376616 16.518135461466706 #
point $-1 -76.105838190862755 33.98273046523429 -16.518135461466706 #
straight-curve $-1 -76.105838190862755 -14.232019450068089 -3.2828170466052367 0 1 0 I I #
point $-1 -76.105838190862755 -22.945347335038065 -3.2828170466052367 #
coedge $-1 $656 $655 $739 $805 reversed $561 $-1 #
edge $-1 $657 3.2828170466052367 $740 16.518135461466706 $664 $501 forward 7 unknown #
point $-1 -76.105838190862755 -33.98273046523429 -3.2828170466052367 #
vertex $-1 $659 $806 #
coedge $-1 $670 $665 $663 $738 forward $649 $-1 #
edge $-1 $667 -76.105838190862755 $672 76.105838190862755 $663 $807 forward 7 unknown #
coedge $-1 $665 $670 $733 $805 forward $649 $-1 #
vertex $-1 $666 $808 #
straight-curve $-1 -76.105838190862755 0 -16.518135461466706 0 1 0 I I #
point $-1 -76.105838190862755 33.98273046523429 -16.518135461466706 #
straight-curve $-1 76.105838190862755 0 -16.518135461466706 0 -1 0 I I #
point $-1 76.105838190862755 33.98273046523429 -16.518135461466706 #
face $-1 $707 $809 $18 $-1 $810 reversed single #
loop $-1 $-1 $752 $674 #
plane-surface $-1 0 -33.98273046523429 0 0 1 0 0 0 1 forward_v I I I I #
coedge $-1 $677 $759 $678 $751 forward $594 $-1 #
edge $-1 $690 -5.4537474346041872 $755 4.0064605092715535 $687 $811 forward 7 unknown #
coedge $-1 $679 $678 $770 $812 reversed $511 $-1 #
edge $-1 $813 -76.105838190862755 $755 76.105838190862755 $748 $814 forward 7 unknown #
coedge $-1 $815 $816 $679 $753 forward $746 $-1 #
edge $-1 $756 -76.105838190862755 $817 76.105838190862755 $752 $818 forward 7 unknown #
coedge $-1 $774 $680 $816 $819 forward $675 $-1 #
vertex $-1 $681 $820 #
vertex $-1 $819 $821 #
straight-curve $-1 76.105838190862755 -14.232019450068089 -3.2828170466052367 0 -1 0 I I #
straight-curve $-1 0 -33.98273046523429 6.1773908972705041 1 0 0 I I #
coedge $-1 $748 $685 $697 $771 reversed $594 $-1 #
vertex $-1 $698 $822 #
straight-curve $-1 0 -22.945347335038065 6.1773908972705041 -1 0 0 I I #
point $-1 76.105838190862755 -33.98273046523429 6.1773908972705041 #
point $-1 76.105838190862755 -22.945347335038065 6.1773908972705041 #
coedge $-1 $823 $692 $703 $775 forward $701 $-1 #
coedge $-1 $692 $823 $694 $768 reversed $701 $-1 #
straight-curve $-1 0 33.98273046523429 16.518135461466706 -1 0 0 I I #
coedge $-1 $824 $694 $825 $826 reversed $435 $-1 #
edge $-1 $695 -16.518135461466706 $827 16.518135461466706 $765 $828 forward 7 unknown #
point $-1 -76.105838190862755 33.98273046523429 16.518135461466706 #
coedge $-1 $697 $824 $750 $812 forward $435 $-1 #
edge $-1 $813 -4.0064605092715535 $760 5.4537474346041872 $697 $829 forward 7 unknown #
straight-curve $-1 -76.105838190862755 -14.232019450068089 6.1773908972705041 0 -1 0 I I #
point $-1 -76.105838190862755 -33.98273046523429 6.1773908972705041 #
coedge $-1 $703 $754 $830 $831 reversed $675 $-1 #
edge $-1 $704 -16.518135461466706 $832 16.518135461466706 $703 $833 forward 7 unknown #
point $-1 76.105838190862755 33.98273046523429 16.518135461466706 #
straight-curve $-1 76.105838190862755 -33.98273046523429 0 0 0 -1 I I #
face $-1 $834 $835 $19 $-1 $836 reversed single #
loop $-1 $-1 $837 $709 #
plane-surface $-1 0 -22.945347335038065 1.4472869253326337 0 -1 0 0 0 -1 forward_v I I I I #
coedge $-1 $838 $839 $840 $841 reversed $710 $-1 #
coedge $-1 $842 $712 $843 $844 reversed $623 $-1 #
coedge $-1 $712 $842 $845 $846 reversed $623 $-1 #
coedge $-1 $847 $848 $712 $785 forward $835 $-1 #
edge $-1 $849 -19.750711015166203 $850 -8.713327884969976 $784 $851 forward 7 unknown #
coedge $-1 $713 $722 $852 $853 forward $532 $-1 #
coedge $-1 $854 $714 $713 $788 reversed $634 $-1 #
edge $-1 $855 -33.98273046523429 $716 8.6761716994376616 $787 $726 forward 7 unknown #
straight-curve $-1 -76.105838190862755 -8.6761716994376616 57.634817070983786 0 0 1 I I #
point $-1 -76.105838190862755 -8.6761716994376616 16.518135461466706 #
straight-curve $-1 -76.105838190862755 -7.9053797586189312 9.5345203604223414 0 1 0 I I #
coedge $-1 $720 $856 $842 $857 forward $634 $-1 #
coedge $-1 $843 $723 $720 $794 forward $800 $-1 #
edge $-1 $725 -16.518135461466706 $858 -6.1773908972705041 $720 $859 forward 7 unknown #
face $-1 $-1 $860 $19 $-1 $861 reversed single #
plane-surface $-1 -76.105838190862755 0 0 1 0 0 0 0 -1 forward_v I I I I #
coedge $-1 $848 $862 $722 $798 reversed $835 $-1 #
edge $-1 $801 -33.98273046523429 $863 33.98273046523429 $797 $864 forward 7 unknown #
coedge $-1 $723 $843 $848 $865 reversed $800 $-1 #
loop $-1 $-1 $843 $866 #
vertex $-1 $798 $867 #
straight-curve $-1 0 -33.98273046523429 16.518135461466706 1 0 0 I I #
point $-1 -76.105838190862755 -33.98273046523429 16.518135461466706 #
point $-1 -76.105838190862755 -8.6761716994376616 9.5345203604223361 #
edge $-1 $736 -76.105838190862755 $740 76.105838190862755 $733 $868 forward 7 unknown #
point $-1 76.105838190862755 -33.98273046523429 -16.518135461466706 #
straight-curve $-1 0 33.98273046523429 -16.518135461466706 1 0 0 I I #
point $-1 -76.105838190862755 -33.98273046523429 -16.518135461466706 #
loop $-1 $-1 $830 $745 #
plane-surface $-1 0 0 -16.518135461466706 0 0 1 1 0 0 forward_v I I I I #
straight-curve $-1 76.105838190862755 -22.945347335038065 0.72364346266631685 0 0 -1 I I #
edge $-1 $817 -19.750711015166203 $813 -8.713327884969976 $770 $869 forward 7 unknown #
vertex $-1 $812 $870 #
straight-curve $-1 0 -22.945347335038065 -3.2828170466052367 1 0 0 I I #
coedge $-1 $871 $752 $824 $872 forward $746 $-1 #
coedge $-1 $752 $871 $754 $819 reversed $746 $-1 #
vertex $-1 $872 $873 #
straight-curve $-1 0 -33.98273046523429 -3.2828170466052367 -1 0 0 I I #
edge $-1 $756 3.2828170466052367 $874 16.518135461466706 $754 $777 forward 7 unknown #
point $-1 76.105838190862755 -22.945347335038065 -3.2828170466052367 #
point $-1 76.105838190862755 -33.98273046523429 -3.2828170466052367 #
point $-1 -76.105838190862755 -22.945347335038065 6.1773908972705041 #
coedge $-1 $765 $764 $875 $876 reversed $701 $-1 #
coedge $-1 $770 $767 $815 $872 reversed $435 $-1 #
coedge $-1 $875 $877 $767 $826 forward $809 $-1 #
edge $-1 $878 -33.98273046523429 $827 33.98273046523429 $767 $879 forward 7 unknown #
vertex $-1 $876 $880 #
straight-curve $-1 -76.105838190862755 33.98273046523429 0 0 0 -1 I I #
straight-curve $-1 -76.105838190862755 -22.945347335038065 0.72364346266631685 0 0 1 I I #
coedge $-1 $877 $875 $774 $831 forward $809 $-1 #
edge $-1 $832 -33.98273046523429 $874 33.98273046523429 $774 $881 forward 7 unknown #
vertex $-1 $831 $882 #
straight-curve $-1 76.105838190862755 33.98273046523429 0 0 0 -1 I I #
face $-1 $883 $884 $19 $-1 $885 reversed single #
loop $-1 $-1 $784 $778 #
plane-surface $-1 76.105838190862755 0 0 -1 0 0 0 0 1 forward_v I I I I #
coedge $-1 $845 $886 $847 $887 reversed $779 $-1 #
coedge $-1 $888 $781 $886 $889 reversed $710 $-1 #
coedge $-1 $781 $888 $890 $891 reversed $710 $-1 #
coedge $-1 $892 $847 $781 $841 forward $835 $-1 #
edge $-1 $893 8.713327884969976 $894 19.750711015166203 $840 $895 forward 7 unknown #
coedge $-1 $783 $782 $792 $857 reversed $623 $-1 #
coedge $-1 $799 $793 $782 $844 forward $800 $-1 #
edge $-1 $858 -76.105838190862755 $849 76.105838190862755 $843 $896 forward 7 unknown #
coedge $-1 $897 $837 $783 $846 forward $779 $-1 #
edge $-1 $850 -76.105838190862755 $898 76.105838190862755 $845 $899 forward 7 unknown #
coedge $-1 $840 $784 $837 $887 forward $835 $-1 #
coedge $-1 $784 $797 $799 $865 forward $835 $-1 #
vertex $-1 $844 $900 #
vertex $-1 $785 $901 #
straight-curve $-1 76.105838190862755 -14.232019450068089 6.1773908972705041 0 1 0 I I #
coedge $-1 $902 $903 $786 $853 reversed $860 $-1 #
edge $-1 $863 -76.105838190862755 $855 76.105838190862755 $852 $904 forward 7 unknown #
coedge $-1 $905 $787 $903 $906 forward $634 $-1 #
vertex $-1 $853 $907 #
coedge $-1 $792 $908 $897 $909 forward $634 $-1 #
edge $-1 $898 8.713327884969976 $858 19.750711015166203 $792 $910 forward 7 unknown #
vertex $-1 $857 $911 #
straight-curve $-1 -76.105838190862755 -33.98273046523429 0 0 0 -1 I I #
loop $-1 $-1 $902 $795 #
plane-surface $-1 0 33.98273046523429 0 0 -1 0 0 0 -1 forward_v I I I I #
coedge $-1 $797 $912 $902 $913 reversed $835 $-1 #
vertex $-1 $798 $914 #
straight-curve $-1 76.105838190862755 0 16.518135461466706 0 1 0 I I #
edge $-1 $801 -16.518135461466706 $849 -6.1773908972705041 $848 $915 forward 7 unknown #
face $-1 $721 $800 $19 $-1 $885 reversed single #
point $-1 76.105838190862755 -33.98273046523429 16.518135461466706 #
straight-curve $-1 0 -33.98273046523429 -16.518135461466706 -1 0 0 I I #
straight-curve $-1 -76.105838190862755 -14.232019450068089 -3.2828170466052367 0 1 0 I I #
point $-1 -76.105838190862755 -22.945347335038065 -3.2828170466052367 #
coedge $-1 $816 $815 $877 $916 reversed $746 $-1 #
edge $-1 $817 3.2828170466052367 $878 16.518135461466706 $824 $700 forward 7 unknown #
point $-1 -76.105838190862755 -33.98273046523429 -3.2828170466052367 #
vertex $-1 $819 $917 #
coedge $-1 $830 $825 $823 $876 forward $809 $-1 #
edge $-1 $827 -76.105838190862755 $832 76.105838190862755 $823 $918 forward 7 unknown #
coedge $-1 $825 $830 $871 $916 forward $809 $-1 #
vertex $-1 $826 $919 #
straight-curve $-1 -76.105838190862755 0 -16.518135461466706 0 1 0 I I #
point $-1 -76.105838190862755 33.98273046523429 -16.518135461466706 #
straight-curve $-1 76.105838190862755 0 -16.518135461466706 0 -1 0 I I #
point $-1 76.105838190862755 33.98273046523429 -16.518135461466706 #
face $-1 $866 $920 $19 $-1 $921 reversed single #
loop $-1 $-1 $890 $834 #
plane-surface $-1 0 -33.98273046523429 0 0 1 0 0 0 1 forward_v I I I I #
coedge $-1 $837 $897 $838 $889 forward $779 $-1 #
edge $-1 $850 -5.4537474346041872 $893 4.0064605092715535 $847 $922 forward 7 unknown #
coedge $-1 $839 $838 $908 $923 reversed $710 $-1 #
edge $-1 $924 -76.105838190862755 $893 76.105838190862755 $886 $925 forward 7 unknown #
coedge $-1 $926 $927 $839 $891 forward $884 $-1 #
edge $-1 $894 -76.105838190862755 $928 76.105838190862755 $890 $929 forward 7 unknown #
coedge $-1 $912 $840 $927 $930 forward $835 $-1 #
vertex $-1 $841 $931 #
vertex $-1 $930 $932 #
straight-curve $-1 76.105838190862755 -14.232019450068089 -3.2828170466052367 0 -1 0 I I #
straight-curve $-1 0 -33.98273046523429 6.1773908972705041 1 0 0 I I #
coedge $-1 $886 $845 $856 $909 reversed $779 $-1 #
vertex $-1 $857 $933 #
straight-curve $-1 0 -22.945347335038065 6.1773908972705041 -1 0 0 I I #
point $-1 76.105838190862755 -33.98273046523429 6.1773908972705041 #
point $-1 76.105838190862755 -22.945347335038065 6.1773908972705041 #
coedge $-1 $934 $852 $862 $913 forward $860 $-1 #
coedge $-1 $852 $934 $854 $906 reversed $860 $-1 #
straight-curve $-1 0 33.98273046523429 16.518135461466706 -1 0 0 I I #
coedge $-1 $935 $854 $936 $937 reversed $634 $-1 #
edge $-1 $855 -16.518135461466706 $938 16.518135461466706 $903 $939 forward 7 unknown #
point $-1 -76.105838190862755 33.98273046523429 16.518135461466706 #
coedge $-1 $856 $935 $888 $923 forward $634 $-1 #
edge $-1 $924 -4.0064605092715535 $898 5.4537474346041872 $856 $940 forward 7 unknown #
straight-curve $-1 -76.105838190862755 -14.232019450068089 6.1773908972705041 0 -1 0 I I #
point $-1 -76.105838190862755 -33.98273046523429 6.1773908972705041 #
coedge $-1 $862 $892 $941 $942 reversed $835 $-1 #
edge $-1 $863 -16.518135461466706 $943 16.518135461466706 $862 $944 forward 7 unknown #
point $-1 76.105838190862755 33.98273046523429 16.518135461466706 #
straight-curve $-1 76.105838190862755 -33.98273046523429 0 0 0 -1 I I #
edge $-1 $874 -76.105838190862755 $878 76.105838190862755 $871 $945 forward 7 unknown #
point $-1 76.105838190862755 -33.98273046523429 -16.518135461466706 #
straight-curve $-1 0 33.98273046523429 -16.518135461466706 1 0 0 I I #
point $-1 -76.105838190862755 -33.98273046523429 -16.518135461466706 #
loop $-1 $-1 $941 $883 #
plane-surface $-1 0 0 -16.518135461466706 0 0 1 1 0 0 forward_v I I I I #
straight-curve $-1 76.105838190862755 -22.945347335038065 0.72364346266631685 0 0 -1 I I #
edge $-1 $928 -19.750711015166203 $924 -8.713327884969976 $908 $946 forward 7 unknown #
vertex $-1 $923 $947 #
straight-curve $-1 0 -22.945347335038065 -3.2828170466052367 1 0 0 I I #
coedge $-1 $948 $890 $935 $949 forward $884 $-1 #
coedge $-1 $890 $948 $892 $930 reversed $884 $-1 #
vertex $-1 $949 $950 #
straight-curve $-1 0 -33.98273046523429 -3.2828170466052367 -1 0 0 I I #
edge $-1 $894 3.2828170466052367 $951 16.518135461466706 $892 $915 forward 7 unknown #
point $-1 76.105838190862755 -22.945347335038065 -3.2828170466052367 #
point $-1 76.105838190862755 -33.98273046523429 -3.2828170466052367 #
point $-1 -76.105838190862755 -22.945347335038065 6.1773908972705041 #
coedge $-1 $903 $902 $952 $953 reversed $860 $-1 #
coedge $-1 $908 $905 $926 $949 reversed $634 $-1 #
coedge $-1 $952 $954 $905 $937 forward $920 $-1 #
edge $-1 $955 -33.98273046523429 $938 33.98273046523429 $905 $956 forward 7 unknown #
vertex $-1 $953 $957 #
straight-curve $-1 -76.105838190862755 33.98273046523429 0 0 0 -1 I I #
straight-curve $-1 -76.105838190862755 -22.945347335038065 0.72364346266631685 0 0 1 I I #
coedge $-1 $954 $952 $912 $942 forward $920 $-1 #
edge $-1 $943 -33.98273046523429 $951 33.98273046523429 $912 $958 forward 7 unknown #
vertex $-1 $942 $959 #
straight-curve $-1 76.105838190862755 33.98273046523429 0 0 0 -1 I I #
straight-curve $-1 0 -33.98273046523429 -16.518135461466706 -1 0 0 I I #
straight-curve $-1 -76.105838190862755 -14.232019450068089 -3.2828170466052367 0 1 0 I I #
point $-1 -76.105838190862755 -22.945347335038065 -3.2828170466052367 #
coedge $-1 $927 $926 $954 $960 reversed $884 $-1 #
edge $-1 $928 3.2828170466052367 $955 16.518135461466706 $935 $859 forward 7 unknown #
point $-1 -76.105838190862755 -33.98273046523429 -3.2828170466052367 #
vertex $-1 $930 $961 #
coedge $-1 $941 $936 $934 $953 forward $920 $-1 #
edge $-1 $938 -76.105838190862755 $943 76.105838190862755 $934 $962 forward 7 unknown #
coedge $-1 $936 $941 $948 $960 forward $920 $-1 #
vertex $-1 $937 $963 #
straight-curve $-1 -76.105838190862755 0 -16.518135461466706 0 1 0 I I #
point $-1 -76.105838190862755 33.98273046523429 -16.518135461466706 #
straight-curve $-1 76.105838190862755 0 -16.518135461466706 0 -1 0 I I #
point $-1 76.105838190862755 33.98273046523429 -16.518135461466706 #
edge $-1 $951 -76.105838190862755 $955 76.105838190862755 $948 $964 forward 7 unknown #
point $-1 76.105838190862755 -33.98273046523429 -16.518135461466706 #
straight-curve $-1 0 33.98273046523429 -16.518135461466706 1 0 0 I I #
point $-1 -76.105838190862755 -33.98273046523429 -16.518135461466706 #
straight-curve $-1 0 -33.98273046523429 -16.518135461466706 -1 0 0 I I #
End-of-ACIS-data 