500 0 2 0           
7 Unknown 11 ACIS 5.0 NT 24 Thu Mar 25 20:24:05 1999 
-1 9.9999999999999995e-007 1e-010 
body $-1 $2 $-1 $3 #
body $-1 $4 $-1 $5 #
lump $-1 $-1 $6 $0 #
transform $-1 1 0 0 0 1 0 0 0 1 69.131748405407876 41.600784383159642 18.448850309976738 1 rotate no_reflect no_shear #
lump $-1 $-1 $7 $1 #
transform $-1 1 0 0 0 1 0 0 0 1 69.131748405407876 41.600784383159642 18.448850309976738 1 rotate no_reflect no_shear #
shell $-1 $-1 $-1 $8 $-1 $2 #
shell $-1 $-1 $-1 $9 $-1 $4 #
face $-1 $10 $11 $6 $-1 $12 forward single #
face $-1 $13 $14 $7 $-1 $15 forward single #
face $-1 $16 $17 $6 $-1 $18 reversed single #
loop $-1 $-1 $19 $8 #
plane-surface $-1 0 0 18.448850309976738 0 0 1 1 0 0 forward_v I I I I #
face $-1 $20 $21 $7 $-1 $22 reversed single #
loop $-1 $-1 $23 $9 #
plane-surface $-1 0 -41.600784383159642 0 0 1 0 0 0 1 forward_v I I I I #
face $-1 $24 $25 $6 $-1 $26 reversed single #
loop $-1 $-1 $27 $10 #
plane-surface $-1 0 0 -18.448850309976738 0 0 1 1 0 0 forward_v I I I I #
coedge $-1 $28 $29 $30 $31 forward $11 $-1 #
face $-1 $32 $33 $7 $-1 $34 reversed single #
loop $-1 $-1 $35 $13 #
plane-surface $-1 0 0 -18.448850309976738 0 0 1 1 0 0 forward_v I I I I #
coedge $-1 $36 $37 $38 $39 forward $14 $-1 #
face $-1 $40 $41 $6 $-1 $42 reversed single #
loop $-1 $-1 $43 $16 #
plane-surface $-1 0 -41.600784383159642 0 0 1 0 0 0 1 forward_v I I I I #
coedge $-1 $44 $45 $46 $47 forward $17 $-1 #
coedge $-1 $48 $19 $49 $50 forward $11 $-1 #
coedge $-1 $19 $48 $51 $52 forward $11 $-1 #
coedge $-1 $53 $54 $19 $31 reversed $55 $-1 #
edge $-1 $56 -41.600784383159642 $57 41.600784383159642 $30 $58 forward 7 unknown #
face $-1 $59 $60 $7 $-1 $61 reversed single #
loop $-1 $-1 $62 $20 #
plane-surface $-1 -34.086815256234168 -59.800301862200676 0 0 1 0 0 0 1 forward_v I I I I #
coedge $-1 $63 $64 $37 $65 forward $21 $-1 #
coedge $-1 $66 $23 $67 $68 reversed $14 $-1 #
coedge $-1 $23 $66 $35 $65 reversed $14 $-1 #
coedge $-1 $69 $70 $23 $39 reversed $60 $-1 #
edge $-1 $71 -18.448850309976738 $72 18.448850309976738 $38 $73 forward 7 unknown #
face $-1 $74 $75 $6 $-1 $76 reversed single #
loop $-1 $-1 $77 $24 #
plane-surface $-1 -69.131748405407876 0 0 1 0 0 0 0 -1 forward_v I I I I #
coedge $-1 $78 $51 $79 $80 forward $25 $-1 #
coedge $-1 $81 $27 $78 $82 forward $17 $-1 #
coedge $-1 $27 $81 $83 $84 forward $17 $-1 #
coedge $-1 $54 $53 $27 $47 reversed $55 $-1 #
edge $-1 $85 -41.600784383159642 $86 41.600784383159642 $46 $87 forward 7 unknown #
coedge $-1 $29 $28 $88 $89 forward $11 $-1 #
coedge $-1 $90 $91 $28 $50 reversed $75 $-1 #
edge $-1 $57 -69.131748405407876 $92 69.131748405407876 $49 $93 forward 7 unknown #
coedge $-1 $43 $94 $29 $52 reversed $25 $-1 #
edge $-1 $95 -69.131748405407876 $56 69.131748405407876 $51 $96 forward 7 unknown #
coedge $-1 $46 $30 $94 $97 forward $55 $-1 #
coedge $-1 $30 $46 $90 $98 reversed $55 $-1 #
loop $-1 $-1 $53 $74 #
vertex $-1 $31 $99 #
vertex $-1 $31 $100 #
straight-curve $-1 69.131748405407876 0 18.448850309976738 0 1 0 I I #
face $-1 $101 $102 $7 $-1 $103 reversed single #
loop $-1 $-1 $38 $32 #
plane-surface $-1 -35.939582727013928 -50.700543122680159 0 1 0 0 0 0 -1 forward_v I I I I #
coedge $-1 $104 $105 $106 $107 forward $33 $-1 #
coedge $-1 $108 $35 $109 $110 forward $21 $-1 #
coedge $-1 $35 $108 $69 $111 forward $21 $-1 #
edge $-1 $71 -35.939582727013928 $112 -32.234047785454408 $35 $113 forward 7 unknown #
coedge $-1 $37 $36 $114 $115 forward $14 $-1 #
coedge $-1 $116 $117 $36 $68 forward $118 $-1 #
edge $-1 $119 32.234047785454408 $72 35.939582727013928 $67 $120 forward 7 unknown #
coedge $-1 $106 $38 $64 $111 reversed $60 $-1 #
coedge $-1 $38 $106 $116 $121 reversed $60 $-1 #
vertex $-1 $65 $122 #
vertex $-1 $121 $123 #
straight-curve $-1 -35.939582727013928 -41.600784383159642 0 0 0 1 I I #
face $-1 $-1 $55 $6 $-1 $124 reversed single #
loop $-1 $-1 $90 $40 #
plane-surface $-1 0 41.600784383159642 0 0 -1 0 0 0 -1 forward_v I I I I #
coedge $-1 $125 $88 $91 $126 forward $41 $-1 #
coedge $-1 $94 $43 $44 $82 reversed $25 $-1 #
coedge $-1 $88 $125 $43 $80 reversed $41 $-1 #
edge $-1 $95 -18.448850309976738 $127 18.448850309976738 $79 $128 forward 7 unknown #
coedge $-1 $45 $44 $125 $129 forward $17 $-1 #
edge $-1 $86 -69.131748405407876 $127 69.131748405407876 $78 $130 forward 7 unknown #
coedge $-1 $91 $90 $45 $84 reversed $75 $-1 #
edge $-1 $131 -69.131748405407876 $85 69.131748405407876 $83 $132 forward 7 unknown #
vertex $-1 $47 $133 #
vertex $-1 $97 $134 #
straight-curve $-1 69.131748405407876 0 -18.448850309976738 0 -1 0 I I #
coedge $-1 $77 $79 $48 $89 reversed $41 $-1 #
edge $-1 $92 -41.600784383159642 $95 41.600784383159642 $88 $135 forward 7 unknown #
coedge $-1 $83 $49 $54 $98 forward $75 $-1 #
coedge $-1 $49 $83 $77 $126 reversed $75 $-1 #
vertex $-1 $50 $136 #
straight-curve $-1 0 41.600784383159642 18.448850309976738 -1 0 0 I I #
coedge $-1 $51 $78 $53 $97 reversed $25 $-1 #
vertex $-1 $89 $137 #
straight-curve $-1 0 -41.600784383159642 18.448850309976738 1 0 0 I I #
edge $-1 $56 -18.448850309976738 $86 18.448850309976738 $53 $138 forward 7 unknown #
edge $-1 $57 -18.448850309976738 $85 18.448850309976738 $54 $139 forward 7 unknown #
point $-1 69.131748405407876 -41.600784383159642 18.448850309976738 #
point $-1 69.131748405407876 41.600784383159642 18.448850309976738 #
face $-1 $-1 $118 $7 $-1 $140 forward single #
loop $-1 $-1 $141 $59 #
plane-surface $-1 -32.234047785454408 -50.700543122680159 0 -1 0 0 0 0 1 forward_v I I I I #
coedge $-1 $142 $62 $108 $143 reversed $33 $-1 #
coedge $-1 $62 $142 $144 $145 reversed $33 $-1 #
coedge $-1 $70 $69 $62 $107 reversed $60 $-1 #
edge $-1 $146 -18.448850309976738 $147 18.448850309976738 $106 $148 forward 7 unknown #
coedge $-1 $64 $63 $104 $143 forward $21 $-1 #
coedge $-1 $114 $141 $63 $110 reversed $102 $-1 #
edge $-1 $112 -9.0997587395205173 $149 9.0997587395205173 $109 $150 forward 7 unknown #
edge $-1 $147 -9.0997587395205173 $71 9.0997587395205173 $69 $151 forward 7 unknown #
vertex $-1 $110 $152 #
straight-curve $-1 0 -41.600784383159642 -18.448850309976738 1 0 0 I I #
coedge $-1 $153 $109 $66 $115 reversed $102 $-1 #
edge $-1 $119 -18.448850309976738 $112 18.448850309976738 $114 $154 forward 7 unknown #
coedge $-1 $144 $67 $70 $121 forward $118 $-1 #
coedge $-1 $67 $144 $153 $155 forward $118 $-1 #
loop $-1 $-1 $67 $101 #
vertex $-1 $68 $156 #
straight-curve $-1 0 -41.600784383159642 18.448850309976738 -1 0 0 I I #
edge $-1 $72 -9.0997587395205173 $146 9.0997587395205173 $70 $157 forward 7 unknown #
point $-1 -35.939582727013928 -41.600784383159642 -18.448850309976738 #
point $-1 -35.939582727013928 -41.600784383159642 18.448850309976738 #
plane-surface $-1 69.131748405407876 0 0 -1 0 0 0 0 1 forward_v I I I I #
coedge $-1 $79 $77 $81 $129 reversed $41 $-1 #
edge $-1 $92 -18.448850309976738 $131 18.448850309976738 $91 $158 forward 7 unknown #
vertex $-1 $129 $159 #
straight-curve $-1 -69.131748405407876 -41.600784383159642 0 0 0 -1 I I #
edge $-1 $127 -41.600784383159642 $131 41.600784383159642 $125 $160 forward 7 unknown #
straight-curve $-1 0 -41.600784383159642 -18.448850309976738 -1 0 0 I I #
vertex $-1 $84 $161 #
straight-curve $-1 0 41.600784383159642 -18.448850309976738 1 0 0 I I #
point $-1 69.131748405407876 41.600784383159642 -18.448850309976738 #
point $-1 69.131748405407876 -41.600784383159642 -18.448850309976738 #
straight-curve $-1 -69.131748405407876 0 18.448850309976738 0 -1 0 I I #
point $-1 -69.131748405407876 41.600784383159642 18.448850309976738 #
point $-1 -69.131748405407876 -41.600784383159642 18.448850309976738 #
straight-curve $-1 69.131748405407876 -41.600784383159642 0 0 0 -1 I I #
straight-curve $-1 69.131748405407876 41.600784383159642 0 0 0 -1 I I #
plane-surface $-1 0 0 18.448850309976738 0 0 1 1 0 0 forward_v I I I I #
coedge $-1 $109 $153 $142 $162 forward $102 $-1 #
coedge $-1 $105 $104 $141 $162 reversed $33 $-1 #
edge $-1 $149 -1.8527674707797601 $147 1.8527674707797601 $104 $163 forward 7 unknown #
coedge $-1 $117 $116 $105 $145 forward $118 $-1 #
edge $-1 $146 -1.8527674707797601 $164 1.8527674707797601 $105 $165 forward 7 unknown #
vertex $-1 $121 $166 #
vertex $-1 $111 $167 #
straight-curve $-1 -35.939582727013928 -59.800301862200676 0 0 0 -1 I I #
vertex $-1 $162 $168 #
straight-curve $-1 -32.234047785454408 -50.700543122680159 -18.448850309976738 0 -1 0 I I #
straight-curve $-1 -35.939582727013928 -50.700543122680159 -18.448850309976738 0 1 0 I I #
point $-1 -32.234047785454408 -41.600784383159642 -18.448850309976738 #
coedge $-1 $141 $114 $117 $155 reversed $102 $-1 #
straight-curve $-1 -32.234047785454408 -41.600784383159642 0 0 0 -1 I I #
edge $-1 $164 -9.0997587395205173 $119 9.0997587395205173 $153 $169 forward 7 unknown #
point $-1 -32.234047785454408 -41.600784383159642 18.448850309976738 #
straight-curve $-1 -35.939582727013928 -50.700543122680159 18.448850309976738 0 -1 0 I I #
straight-curve $-1 -69.131748405407876 41.600784383159642 0 0 0 -1 I I #
point $-1 -69.131748405407876 -41.600784383159642 -18.448850309976738 #
straight-curve $-1 -69.131748405407876 0 -18.448850309976738 0 1 0 I I #
point $-1 -69.131748405407876 41.600784383159642 -18.448850309976738 #
edge $-1 $164 -18.448850309976738 $149 18.448850309976738 $141 $170 forward 7 unknown #
straight-curve $-1 -34.086815256234168 -59.800301862200676 -18.448850309976738 -1 0 0 I I #
vertex $-1 $155 $171 #
straight-curve $-1 -34.086815256234168 -59.800301862200676 18.448850309976738 1 0 0 I I #
point $-1 -35.939582727013928 -59.800301862200676 18.448850309976738 #
point $-1 -35.939582727013928 -59.800301862200676 -18.448850309976738 #
point $-1 -32.234047785454408 -59.800301862200676 -18.448850309976738 #
straight-curve $-1 -32.234047785454408 -50.700543122680159 18.448850309976738 0 1 0 I I #
straight-curve $-1 -32.234047785454408 -59.800301862200676 0 0 0 -1 I I #
point $-1 -32.234047785454408 -59.800301862200676 18.448850309976738 #
End-of-ACIS-data 