500 0 11 0           
7 Unknown 11 ACIS 5.0 NT 24 Thu Mar 25 18:58:27 1999 
-1 9.9999999999999995e-007 1e-010 
body $-1 $11 $-1 $12 #
body $-1 $13 $-1 $14 #
body $-1 $15 $-1 $16 #
body $-1 $17 $-1 $18 #
body $-1 $19 $-1 $20 #
body $-1 $21 $-1 $22 #
body $-1 $23 $-1 $24 #
body $-1 $25 $-1 $26 #
body $-1 $27 $-1 $28 #
body $-1 $29 $-1 $30 #
body $-1 $31 $-1 $32 #
lump $-1 $-1 $33 $0 #
transform $-1 1 0 0 0 1 0 0 0 1 77.896664326914276 50.709261688836641 12.620132670678581 1 rotate no_reflect no_shear #
lump $-1 $-1 $34 $1 #
transform $-1 1 0 0 0 1 0 0 0 1 77.896664326914276 50.709261688836641 12.620132670678581 1 rotate no_reflect no_shear #
lump $-1 $-1 $35 $2 #
transform $-1 1 0 0 0 1 0 0 0 1 77.896664326914276 50.709261688836641 12.620132670678581 1 rotate no_reflect no_shear #
lump $-1 $-1 $36 $3 #
transform $-1 1 0 0 0 1 0 0 0 1 77.896664326914276 50.709261688836641 12.620132670678581 1 rotate no_reflect no_shear #
lump $-1 $-1 $37 $4 #
transform $-1 1 0 0 0 1 0 0 0 1 77.896664326914276 50.709261688836641 12.620132670678581 1 rotate no_reflect no_shear #
lump $-1 $-1 $38 $5 #
transform $-1 1 0 0 0 1 0 0 0 1 77.896664326914276 50.709261688836641 12.620132670678581 1 rotate no_reflect no_shear #
lump $-1 $-1 $39 $6 #
transform $-1 1 0 0 0 1 0 0 0 1 77.896664326914276 50.709261688836641 12.620132670678581 1 rotate no_reflect no_shear #
lump $-1 $-1 $40 $7 #
transform $-1 1 0 0 0 1 0 0 0 1 77.896664326914276 50.709261688836641 12.620132670678581 1 rotate no_reflect no_shear #
lump $-1 $-1 $41 $8 #
transform $-1 1 0 0 0 1 0 0 0 1 77.896664326914276 50.709261688836641 12.620132670678581 1 rotate no_reflect no_shear #
lump $-1 $-1 $42 $9 #
transform $-1 1 0 0 0 1 0 0 0 1 77.896664326914276 50.709261688836641 12.620132670678581 1 rotate no_reflect no_shear #
lump $-1 $-1 $43 $10 #
transform $-1 1 0 0 0 1 0 0 0 1 77.896664326914276 50.709261688836641 12.620132670678581 1 rotate no_reflect no_shear #
shell $-1 $-1 $-1 $44 $-1 $11 #
shell $-1 $-1 $-1 $45 $-1 $13 #
shell $-1 $-1 $-1 $46 $-1 $15 #
shell $-1 $-1 $-1 $47 $-1 $17 #
shell $-1 $-1 $-1 $48 $-1 $19 #
shell $-1 $-1 $-1 $49 $-1 $21 #
shell $-1 $-1 $-1 $50 $-1 $23 #
shell $-1 $-1 $-1 $51 $-1 $25 #
shell $-1 $-1 $-1 $52 $-1 $27 #
shell $-1 $-1 $-1 $53 $-1 $29 #
shell $-1 $-1 $-1 $54 $-1 $31 #
face $-1 $55 $56 $33 $-1 $57 forward single #
face $-1 $58 $59 $34 $-1 $60 forward single #
face $-1 $61 $62 $35 $-1 $63 reversed single #
face $-1 $64 $65 $36 $-1 $66 forward single #
face $-1 $67 $68 $37 $-1 $69 forward single #
face $-1 $70 $71 $38 $-1 $72 reversed single #
face $-1 $73 $74 $39 $-1 $75 forward single #
face $-1 $76 $77 $40 $-1 $78 forward single #
face $-1 $79 $80 $41 $-1 $81 reversed single #
face $-1 $82 $83 $42 $-1 $84 forward single #
face $-1 $85 $86 $43 $-1 $87 forward single #
face $-1 $88 $89 $33 $-1 $90 reversed single #
loop $-1 $-1 $91 $44 #
plane-surface $-1 0 0 12.620132670678581 0 0 1 1 0 0 forward_v I I I I #
face $-1 $92 $93 $34 $-1 $94 reversed single #
loop $-1 $-1 $95 $45 #
plane-surface $-1 -69.748873737432419 0 -9.620132670678581 0 0 1 1 0 0 forward_v I I I I #
face $-1 $96 $97 $35 $-1 $98 reversed single #
loop $-1 $-1 $99 $46 #
plane-surface $-1 -61.601083147950561 -156.9600576026653 119.10695396568933 1 0 0 0 0.68199836817093118 -0.7313536940579346 forward_v I I I I #
face $-1 $100 $101 $36 $-1 $102 forward single #
loop $-1 $103 $104 $47 #
cone-surface $-1 -56.602630274320418 -45.929952746711194 8.0538471449443723 0 0.68199836817093118 -0.7313536940579346 1 0 0 1 I I 0 1 1 forward I I I I #
face $-1 $105 $106 $37 $-1 $107 forward single #
loop $-1 $108 $109 $48 #
cone-surface $-1 -49.104950963875211 -45.929952746711194 8.0538471449443723 0 0.68199836817093118 -0.7313536940579346 1 0 0 1 I I 0 1 1 forward I I I I #
face $-1 $110 $111 $38 $-1 $112 reversed single #
loop $-1 $-1 $113 $49 #
plane-surface $-1 60.402079269208791 -156.9600576026653 119.10695396568933 1 0 0 0 0.68199836817093118 -0.7313536940579346 forward_v I I I I #
face $-1 $114 $115 $39 $-1 $116 forward single #
loop $-1 $117 $118 $50 #
cone-surface $-1 65.400532142838927 -45.929952746711194 8.0538471449443723 0 0.68199836817093118 -0.7313536940579346 1 0 0 1 I I 0 1 1 forward I I I I #
face $-1 $119 $120 $40 $-1 $121 forward single #
loop $-1 $122 $123 $51 #
cone-surface $-1 72.898211453284148 -45.929952746711194 8.0538471449443723 0 0.68199836817093118 -0.7313536940579346 1 0 0 1 I I 0 1 1 forward I I I I #
face $-1 $124 $125 $41 $-1 $126 reversed single #
loop $-1 $-1 $127 $52 #
plane-surface $-1 -3.0920561519970988 63.471595002843138 191.0325895344838 1 0 0 0 -0.6018150307709319 -0.79863550430605224 forward_v I I I I #
face $-1 $128 $129 $42 $-1 $130 forward single #
loop $-1 $131 $132 $53 #
cone-surface $-1 2.7845485101439493 44.260704471412112 6.7433305011772768 0 -0.6018150307709319 -0.79863550430605224 1.5 0 0 1 I I 0 1 1.5 forward I I I I #
face $-1 $133 $134 $43 $-1 $135 forward single #
loop $-1 $136 $137 $54 #
cone-surface $-1 11.599455503355514 44.260704471412112 6.7433305011772768 0 -0.6018150307709319 -0.79863550430605224 1.5 0 0 1 I I 0 1 1.5 forward I I I I #
face $-1 $138 $139 $33 $-1 $140 reversed single #
loop $-1 $-1 $141 $55 #
plane-surface $-1 0 0 -12.620132670678581 0 0 1 1 0 0 forward_v I I I I #
coedge $-1 $142 $143 $144 $145 forward $56 $-1 #
face $-1 $146 $147 $34 $-1 $148 reversed single #
loop $-1 $-1 $149 $58 #
plane-surface $-1 -61.601083147950561 0 -11.120132670678581 -1 0 0 0 0 1 forward_v I I I I #
coedge $-1 $150 $151 $152 $153 forward $59 $-1 #
face $-1 $154 $155 $35 $-1 $156 reversed single #
loop $-1 $-1 $157 $61 #
plane-surface $-1 -52.853790619097815 -50.709261688836648 5.1669275451299512 0 -0.68199836817093118 0.7313536940579346 1 0 0 forward_v I I I I #
coedge $-1 $158 $159 $160 $161 reversed $62 $-1 #
face $-1 $-1 $162 $36 $-1 $163 forward single #
loop $-1 $164 $165 $64 #
cone-surface $-1 -56.602630274320418 -44.805936514688028 6.8484873349555198 0 0.68199836817093118 -0.7313536940579346 0.5 0 0 1 I I -0.70710678118654746 0.70710678118654746 0.5 forward I I I I #
loop $-1 $-1 $166 $47 #
coedge $-1 $104 $104 $167 $168 reversed $65 $-1 #
face $-1 $-1 $169 $37 $-1 $170 forward single #
loop $-1 $171 $172 $67 #
cone-surface $-1 -49.104950963875211 -44.805936514688028 6.8484873349555198 0 0.68199836817093118 -0.7313536940579346 0.5 0 0 1 I I -0.70710678118654746 0.70710678118654746 0.5 forward I I I I #
loop $-1 $-1 $173 $48 #
coedge $-1 $109 $109 $174 $175 reversed $68 $-1 #
face $-1 $176 $177 $38 $-1 $178 reversed single #
loop $-1 $-1 $179 $70 #
plane-surface $-1 69.149371798061537 -50.709261688836648 5.1669275451299512 0 -0.68199836817093118 0.7313536940579346 1 0 0 forward_v I I I I #
coedge $-1 $180 $181 $182 $183 reversed $71 $-1 #
face $-1 $-1 $184 $39 $-1 $185 forward single #
loop $-1 $186 $187 $73 #
cone-surface $-1 65.400532142838927 -44.805936514688028 6.8484873349555198 0 0.68199836817093118 -0.7313536940579346 0.5 0 0 1 I I -0.70710678118654746 0.70710678118654746 0.5 forward I I I I #
loop $-1 $-1 $188 $50 #
coedge $-1 $118 $118 $189 $190 reversed $74 $-1 #
face $-1 $-1 $191 $40 $-1 $192 forward single #
loop $-1 $193 $194 $76 #
cone-surface $-1 72.898211453284148 -44.805936514688028 6.8484873349555198 0 0.68199836817093118 -0.7313536940579346 0.5 0 0 1 I I -0.70710678118654746 0.70710678118654746 0.5 forward I I I I #
loop $-1 $-1 $195 $51 #
coedge $-1 $123 $123 $196 $197 reversed $77 $-1 #
face $-1 $198 $199 $41 $-1 $200 reversed single #
loop $-1 $-1 $201 $79 #
plane-surface $-1 7.1920020067497319 -30.287171874866594 66.610505937514901 0 0.6018150307709319 0.79863550430605224 1 0 0 forward_v I I I I #
coedge $-1 $202 $203 $204 $205 reversed $80 $-1 #
face $-1 $-1 $206 $42 $-1 $207 forward single #
loop $-1 $208 $209 $82 #
cone-surface $-1 2.7845485101439493 42.035180843261649 3.7899609536667551 0 -0.6018150307709319 -0.79863550430605224 0.75 0 0 1 I I -0.70710678118654757 0.70710678118654757 0.75 forward I I I I #
loop $-1 $-1 $210 $53 #
coedge $-1 $132 $132 $211 $212 reversed $83 $-1 #
face $-1 $-1 $213 $43 $-1 $214 forward single #
loop $-1 $215 $216 $85 #
cone-surface $-1 11.599455503355514 42.035180843261649 3.7899609536667551 0 -0.6018150307709319 -0.79863550430605224 0.75 0 0 1 I I -0.70710678118654757 0.70710678118654757 0.75 forward I I I I #
loop $-1 $-1 $217 $54 #
coedge $-1 $137 $137 $218 $219 reversed $86 $-1 #
face $-1 $220 $221 $33 $-1 $222 reversed single #
loop $-1 $-1 $223 $88 #
plane-surface $-1 0 -50.709261688836641 0 0 1 0 0 0 1 forward_v I I I I #
coedge $-1 $224 $225 $226 $227 forward $89 $-1 #
coedge $-1 $228 $91 $229 $230 forward $56 $-1 #
coedge $-1 $91 $228 $231 $232 forward $56 $-1 #
coedge $-1 $233 $234 $91 $145 reversed $235 $-1 #
edge $-1 $236 -50.709261688836641 $237 50.709261688836641 $144 $238 forward 7 unknown #
face $-1 $239 $240 $34 $-1 $241 reversed single #
loop $-1 $-1 $242 $92 #
plane-surface $-1 0 0 -12.620132670678581 0 0 1 1 0 0 forward_v I I I I #
coedge $-1 $243 $152 $244 $245 reversed $93 $-1 #
coedge $-1 $246 $95 $247 $248 reversed $59 $-1 #
coedge $-1 $95 $246 $249 $250 reversed $59 $-1 #
coedge $-1 $149 $251 $95 $153 reversed $93 $-1 #
edge $-1 $252 -50.709261688836641 $253 50.709261688836641 $152 $254 forward 7 unknown #
face $-1 $255 $256 $35 $-1 $257 forward single #
loop $-1 $-1 $258 $96 #
plane-surface $-1 -44.106498090245069 -156.9600576026653 119.10695396568933 -1 0 0 0 -0.68199836817093118 0.7313536940579346 forward_v I I I I #
coedge $-1 $259 $260 $261 $262 reversed $97 $-1 #
coedge $-1 $159 $99 $263 $264 reversed $62 $-1 #
coedge $-1 $99 $158 $259 $265 reversed $62 $-1 #
coedge $-1 $261 $266 $99 $161 forward $267 $-1 #
edge $-1 $268 46.933344312166085 $269 54.386549437714706 $160 $270 forward 7 unknown #
loop $-1 $-1 $167 $100 #
plane-surface $-1 -52.853790619097815 -50.709261688836648 5.1669275451299512 0 -0.68199836817093118 0.7313536940579346 1 0 0 forward_v I I I I #
loop $-1 $-1 $271 $64 #
coedge $-1 $165 $165 $166 $272 reversed $101 $-1 #
coedge $-1 $166 $166 $165 $272 forward $103 $-1 #
coedge $-1 $167 $167 $104 $168 forward $162 $-1 #
edge $-1 $273 -2.0722542487196603e-015 $273 6.2831853071795987 $167 $274 forward 7 unknown #
loop $-1 $-1 $174 $105 #
plane-surface $-1 -52.853790619097815 -50.709261688836648 5.1669275451299512 0 -0.68199836817093118 0.7313536940579346 1 0 0 forward_v I I I I #
loop $-1 $-1 $275 $67 #
coedge $-1 $172 $172 $173 $276 reversed $106 $-1 #
coedge $-1 $173 $173 $172 $276 forward $108 $-1 #
coedge $-1 $174 $174 $109 $175 forward $169 $-1 #
edge $-1 $277 -2.0722542487196603e-015 $277 6.2831853071795987 $174 $278 forward 7 unknown #
face $-1 $279 $280 $38 $-1 $281 forward single #
loop $-1 $-1 $182 $110 #
plane-surface $-1 0 -50.709261688836641 0 0 1 0 0 0 1 forward_v I I I I #
coedge $-1 $282 $283 $284 $285 reversed $111 $-1 #
coedge $-1 $181 $113 $286 $287 reversed $71 $-1 #
coedge $-1 $113 $180 $282 $288 reversed $71 $-1 #
coedge $-1 $284 $289 $113 $183 forward $177 $-1 #
edge $-1 $290 46.933344312166085 $291 54.386549437714706 $182 $292 forward 7 unknown #
loop $-1 $-1 $189 $114 #
plane-surface $-1 69.149371798061537 -50.709261688836648 5.1669275451299512 0 -0.68199836817093118 0.7313536940579346 1 0 0 forward_v I I I I #
loop $-1 $-1 $293 $73 #
coedge $-1 $187 $187 $188 $294 reversed $115 $-1 #
coedge $-1 $188 $188 $187 $294 forward $117 $-1 #
coedge $-1 $189 $189 $118 $190 forward $184 $-1 #
edge $-1 $295 -2.0722542487196603e-015 $295 6.2831853071795987 $189 $296 forward 7 unknown #
loop $-1 $-1 $196 $119 #
plane-surface $-1 69.149371798061537 -50.709261688836648 5.1669275451299512 0 -0.68199836817093118 0.7313536940579346 1 0 0 forward_v I I I I #
loop $-1 $-1 $297 $76 #
coedge $-1 $194 $194 $195 $298 reversed $120 $-1 #
coedge $-1 $195 $195 $194 $298 forward $122 $-1 #
coedge $-1 $196 $196 $123 $197 forward $191 $-1 #
edge $-1 $299 -2.0722542487196603e-015 $299 6.2831853071795987 $196 $300 forward 7 unknown #
face $-1 $301 $302 $41 $-1 $303 reversed single #
loop $-1 $-1 $304 $124 #
plane-surface $-1 17.476060165496563 63.471595002843138 191.0325895344838 -1 0 0 0 0.6018150307709319 0.79863550430605224 forward_v I I I I #
coedge $-1 $305 $306 $307 $308 reversed $125 $-1 #
coedge $-1 $203 $127 $309 $310 reversed $80 $-1 #
coedge $-1 $127 $202 $305 $311 reversed $80 $-1 #
coedge $-1 $307 $312 $127 $205 forward $313 $-1 #
edge $-1 $314 -18.973464187415072 $315 -9.624674462710626 $204 $316 forward 7 unknown #
loop $-1 $-1 $211 $128 #
plane-surface $-1 7.1920020067497319 -30.287171874866594 66.610505937514901 0 0.6018150307709319 0.79863550430605224 1 0 0 forward_v I I I I #
loop $-1 $-1 $317 $82 #
coedge $-1 $209 $209 $210 $318 reversed $129 $-1 #
coedge $-1 $210 $210 $209 $318 forward $131 $-1 #
coedge $-1 $211 $211 $132 $212 forward $206 $-1 #
edge $-1 $319 -8.7854754994296298e-016 $319 6.2831853071795996 $211 $320 forward 7 unknown #
loop $-1 $-1 $218 $133 #
plane-surface $-1 7.1920020067497319 -30.287171874866594 66.610505937514901 0 0.6018150307709319 0.79863550430605224 1 0 0 forward_v I I I I #
loop $-1 $-1 $321 $85 #
coedge $-1 $216 $216 $217 $322 reversed $134 $-1 #
coedge $-1 $217 $217 $216 $322 forward $136 $-1 #
coedge $-1 $218 $218 $137 $219 forward $213 $-1 #
edge $-1 $323 -8.7854754994296298e-016 $323 6.2831853071795996 $218 $324 forward 7 unknown #
face $-1 $325 $326 $33 $-1 $327 reversed single #
loop $-1 $-1 $328 $138 #
plane-surface $-1 -77.896664326914276 0 0 1 0 0 0 0 -1 forward_v I I I I #
coedge $-1 $329 $231 $330 $331 forward $139 $-1 #
coedge $-1 $332 $141 $329 $333 forward $89 $-1 #
coedge $-1 $141 $332 $334 $335 forward $89 $-1 #
coedge $-1 $234 $233 $141 $227 reversed $235 $-1 #
edge $-1 $336 -50.709261688836641 $337 50.709261688836641 $226 $338 forward 7 unknown #
coedge $-1 $143 $142 $339 $340 forward $56 $-1 #
coedge $-1 $341 $342 $142 $230 reversed $326 $-1 #
edge $-1 $237 -77.896664326914276 $343 77.896664326914276 $229 $344 forward 7 unknown #
coedge $-1 $223 $345 $143 $232 reversed $139 $-1 #
edge $-1 $346 -77.896664326914276 $236 77.896664326914276 $231 $347 forward 7 unknown #
coedge $-1 $226 $144 $345 $348 forward $235 $-1 #
coedge $-1 $144 $226 $341 $349 reversed $235 $-1 #
loop $-1 $-1 $233 $325 #
vertex $-1 $145 $350 #
vertex $-1 $145 $351 #
straight-curve $-1 77.896664326914276 0 12.620132670678581 0 1 0 I I #
face $-1 $352 $353 $34 $-1 $354 reversed single #
loop $-1 $-1 $244 $146 #
plane-surface $-1 0 -50.709261688836641 0 0 1 0 0 0 1 forward_v I I I I #
coedge $-1 $355 $356 $243 $357 forward $147 $-1 #
coedge $-1 $251 $149 $242 $357 reversed $93 $-1 #
coedge $-1 $249 $358 $149 $245 forward $240 $-1 #
edge $-1 $359 -7.0600663353392905 $252 -4.0600663353392905 $244 $360 forward 7 unknown #
coedge $-1 $151 $150 $361 $362 reversed $59 $-1 #
coedge $-1 $363 $364 $150 $248 forward $365 $-1 #
edge $-1 $366 -43.022227458198067 $253 -26.726646279234352 $247 $367 forward 7 unknown #
coedge $-1 $368 $244 $151 $250 forward $240 $-1 #
edge $-1 $252 26.726646279234352 $369 43.022227458198067 $249 $370 forward 7 unknown #
coedge $-1 $152 $243 $363 $371 reversed $93 $-1 #
vertex $-1 $250 $372 #
vertex $-1 $248 $373 #
straight-curve $-1 -61.601083147950561 0 -9.620132670678581 0 1 0 I I #
face $-1 $-1 $267 $35 $-1 $374 reversed single #
loop $-1 $-1 $375 $154 #
plane-surface $-1 0 0 12.620132670678581 0 0 1 1 0 0 forward_v I I I I #
coedge $-1 $376 $377 $378 $379 reversed $155 $-1 #
coedge $-1 $380 $157 $159 $265 forward $97 $-1 #
coedge $-1 $157 $380 $376 $381 forward $97 $-1 #
coedge $-1 $378 $160 $157 $262 forward $267 $-1 #
edge $-1 $269 -35.17418783840165 $382 -17.679602780696161 $261 $383 forward 7 unknown #
coedge $-1 $384 $385 $158 $264 forward $256 $-1 #
edge $-1 $386 -35.763350900871494 $268 -27.77076711249601 $263 $387 forward 7 unknown #
edge $-1 $269 9.4367341760026555e-015 $386 10.928479411963362 $159 $388 forward 7 unknown #
coedge $-1 $160 $378 $384 $389 reversed $267 $-1 #
loop $-1 $-1 $378 $255 #
vertex $-1 $389 $390 #
vertex $-1 $161 $391 #
straight-curve $-1 -61.601083147950561 -50.709261688836641 59.553476982844664 0 0 -1 I I #
coedge $-1 $271 $271 $-1 $392 reversed $164 $-1 #
edge $-1 $393 0 $393 6.2831853071796004 $165 $394 forward 7 unknown #
vertex $-1 $168 $395 #
ellipse-curve $-1 -56.602630274320418 -46.712969794648899 8.893530107904267 0 -0.68199836817093118 0.7313536940579346 1 0 0 1 I I #
coedge $-1 $275 $275 $-1 $396 reversed $171 $-1 #
edge $-1 $397 0 $397 6.2831853071796004 $172 $398 forward 7 unknown #
vertex $-1 $175 $399 #
ellipse-curve $-1 -49.104950963875211 -46.712969794648899 8.893530107904267 0 -0.68199836817093118 0.7313536940579346 1 0 0 1 I I #
face $-1 $-1 $400 $38 $-1 $401 reversed single #
loop $-1 $-1 $286 $176 #
plane-surface $-1 0 0 12.620132670678581 0 0 1 1 0 0 forward_v I I I I #
coedge $-1 $402 $179 $181 $288 forward $111 $-1 #
coedge $-1 $179 $402 $403 $404 reversed $111 $-1 #
coedge $-1 $405 $182 $179 $285 forward $177 $-1 #
edge $-1 $291 25.827393370178022 $406 43.321978427883508 $284 $407 forward 7 unknown #
coedge $-1 $408 $409 $180 $287 forward $280 $-1 #
edge $-1 $410 -35.763350900871494 $290 -27.77076711249601 $286 $411 forward 7 unknown #
edge $-1 $291 9.4367341760026555e-015 $410 10.928479411963362 $181 $412 forward 7 unknown #
coedge $-1 $182 $405 $408 $413 reversed $177 $-1 #
vertex $-1 $413 $414 #
vertex $-1 $183 $415 #
straight-curve $-1 60.402079269208791 -50.709261688836641 59.553476982844664 0 0 -1 I I #
coedge $-1 $293 $293 $-1 $416 reversed $186 $-1 #
edge $-1 $417 0 $417 6.2831853071796004 $187 $418 forward 7 unknown #
vertex $-1 $190 $419 #
ellipse-curve $-1 65.400532142838927 -46.712969794648899 8.893530107904267 0 -0.68199836817093118 0.7313536940579346 1 0 0 1 I I #
coedge $-1 $297 $297 $-1 $420 reversed $193 $-1 #
edge $-1 $421 0 $421 6.2831853071796004 $194 $422 forward 7 unknown #
vertex $-1 $197 $423 #
ellipse-curve $-1 72.898211453284148 -46.712969794648899 8.893530107904267 0 -0.68199836817093118 0.7313536940579346 1 0 0 1 I I #
face $-1 $-1 $313 $41 $-1 $424 forward single #
loop $-1 $-1 $425 $198 #
plane-surface $-1 0 50.709261688836641 0 0 -1 0 0 0 -1 forward_v I I I I #
coedge $-1 $426 $427 $428 $429 reversed $199 $-1 #
coedge $-1 $430 $201 $203 $311 forward $125 $-1 #
coedge $-1 $201 $430 $426 $431 forward $125 $-1 #
coedge $-1 $428 $204 $201 $308 forward $313 $-1 #
edge $-1 $315 -6.6880571553719648 $432 13.880059162121697 $307 $433 forward 7 unknown #
coedge $-1 $434 $435 $202 $310 forward $302 $-1 #
edge $-1 $436 -89.940980597003914 $314 -82.896162096563316 $309 $437 forward 7 unknown #
edge $-1 $315 89.712570318614411 $436 101.41852337767327 $203 $438 forward 7 unknown #
coedge $-1 $204 $428 $434 $439 forward $313 $-1 #
loop $-1 $-1 $428 $301 #
vertex $-1 $310 $440 #
vertex $-1 $205 $441 #
straight-curve $-1 -3.0920561519970988 31.735797501421569 12.620132670678586 0 -1 0 I I #
coedge $-1 $317 $317 $-1 $442 reversed $208 $-1 #
edge $-1 $443 0 $443 6.2831853071796004 $209 $444 forward 7 unknown #
vertex $-1 $212 $445 #
ellipse-curve $-1 2.7845485101439493 46.034866826484397 9.0977234204582942 0 0.6018150307709319 0.79863550430605224 1.5 0 0 1 I I #
coedge $-1 $321 $321 $-1 $446 reversed $215 $-1 #
edge $-1 $447 0 $447 6.2831853071796004 $216 $448 forward 7 unknown #
vertex $-1 $219 $449 #
ellipse-curve $-1 11.599455503355514 46.034866826484397 9.0977234204582942 0 0.6018150307709319 0.79863550430605224 1.5 0 0 1 I I #
face $-1 $-1 $235 $33 $-1 $450 reversed single #
loop $-1 $-1 $341 $220 #
plane-surface $-1 0 50.709261688836641 0 0 -1 0 0 0 -1 forward_v I I I I #
coedge $-1 $451 $339 $342 $452 forward $221 $-1 #
coedge $-1 $345 $223 $224 $333 reversed $139 $-1 #
coedge $-1 $339 $451 $223 $331 reversed $221 $-1 #
edge $-1 $346 -12.620132670678581 $453 12.620132670678581 $330 $454 forward 7 unknown #
coedge $-1 $225 $224 $451 $455 forward $89 $-1 #
edge $-1 $337 -77.896664326914276 $453 77.896664326914276 $329 $456 forward 7 unknown #
coedge $-1 $342 $341 $225 $335 reversed $326 $-1 #
edge $-1 $457 -77.896664326914276 $336 77.896664326914276 $334 $458 forward 7 unknown #
vertex $-1 $227 $459 #
vertex $-1 $348 $460 #
straight-curve $-1 77.896664326914276 0 -12.620132670678581 0 -1 0 I I #
coedge $-1 $328 $330 $228 $340 reversed $221 $-1 #
edge $-1 $343 -50.709261688836641 $346 50.709261688836641 $339 $461 forward 7 unknown #
coedge $-1 $334 $229 $234 $349 forward $326 $-1 #
coedge $-1 $229 $334 $328 $452 reversed $326 $-1 #
vertex $-1 $230 $462 #
straight-curve $-1 0 50.709261688836641 12.620132670678581 -1 0 0 I I #
coedge $-1 $231 $329 $233 $348 reversed $139 $-1 #
vertex $-1 $340 $463 #
straight-curve $-1 0 -50.709261688836641 12.620132670678581 1 0 0 I I #
edge $-1 $236 -12.620132670678581 $337 12.620132670678581 $233 $464 forward 7 unknown #
edge $-1 $237 -12.620132670678581 $336 12.620132670678581 $234 $465 forward 7 unknown #
point $-1 77.896664326914276 -50.709261688836641 12.620132670678581 #
point $-1 77.896664326914276 50.709261688836641 12.620132670678581 #
face $-1 $-1 $365 $34 $-1 $466 reversed single #
loop $-1 $-1 $361 $239 #
plane-surface $-1 -77.896664326914276 0 0 1 0 0 0 0 -1 forward_v I I I I #
coedge $-1 $467 $242 $358 $468 forward $147 $-1 #
coedge $-1 $242 $467 $469 $470 forward $147 $-1 #
edge $-1 $471 -50.709261688836641 $359 50.709261688836641 $242 $472 forward 7 unknown #
coedge $-1 $244 $368 $355 $468 reversed $240 $-1 #
vertex $-1 $468 $473 #
straight-curve $-1 -61.601083147950561 -50.709261688836641 -5.5600663353392905 0 0 1 I I #
coedge $-1 $474 $475 $246 $362 forward $353 $-1 #
edge $-1 $369 -50.709261688836641 $366 50.709261688836641 $361 $476 forward 7 unknown #
coedge $-1 $469 $247 $251 $371 forward $365 $-1 #
coedge $-1 $247 $469 $474 $477 reversed $365 $-1 #
loop $-1 $-1 $363 $352 #
vertex $-1 $477 $478 #
straight-curve $-1 -34.874436868716209 50.709261688836641 -9.620132670678581 1 0 0 I I #
coedge $-1 $358 $249 $475 $479 forward $240 $-1 #
vertex $-1 $479 $480 #
straight-curve $-1 -34.874436868716209 -50.709261688836641 -9.620132670678581 -1 0 0 I I #
edge $-1 $253 4.0600663353392905 $471 7.0600663353392905 $363 $481 forward 7 unknown #
point $-1 -61.601083147950561 -50.709261688836641 -9.620132670678581 #
point $-1 -61.601083147950561 50.709261688836641 -9.620132670678581 #
plane-surface $-1 0 -50.709261688836641 0 0 1 0 0 0 1 forward_v I I I I #
coedge $-1 $385 $384 $377 $482 forward $256 $-1 #
coedge $-1 $377 $258 $260 $381 reversed $155 $-1 #
coedge $-1 $258 $376 $375 $482 reversed $155 $-1 #
coedge $-1 $266 $261 $258 $379 forward $267 $-1 #
edge $-1 $382 -54.386549437714706 $483 -46.933344312166085 $378 $484 forward 7 unknown #
coedge $-1 $260 $259 $385 $485 reversed $97 $-1 #
edge $-1 $486 -10.928479411963362 $382 -9.4367341760026555e-015 $376 $487 forward 7 unknown #
vertex $-1 $262 $488 #
straight-curve $-1 -26.426895309548907 -50.709261688836641 5.1669275451299583 1 0 0 I I #
coedge $-1 $375 $263 $266 $389 forward $256 $-1 #
coedge $-1 $263 $375 $380 $485 forward $256 $-1 #
vertex $-1 $264 $489 #
straight-curve $-1 -61.601083147950561 -78.480028801332651 12.620132670678579 0 -1 0 I I #
straight-curve $-1 -61.601083147950561 -50.709261688836648 5.1669275451299512 0 0.7313536940579346 0.68199836817093118 I I #
edge $-1 $268 -61.601083147950561 $483 -44.106498090245069 $266 $490 forward 7 unknown #
point $-1 -61.601083147950561 -50.709261688836641 12.620132670678581 #
point $-1 -61.601083147950561 -50.709261688836641 5.1669275451299574 #
edge $-1 $491 1 $491 0 $271 $-1 forward 7 unknown #
vertex $-1 $272 $492 #
ellipse-curve $-1 -56.602630274320418 -45.146935698773497 7.2141641819844873 0 -0.68199836817093118 0.7313536940579346 1 0 0 1 I I #
point $-1 -55.602630274320418 -46.712969794648892 8.8935301079042564 #
edge $-1 $493 1 $493 0 $275 $-1 forward 7 unknown #
vertex $-1 $276 $494 #
ellipse-curve $-1 -49.104950963875211 -45.146935698773497 7.2141641819844873 0 -0.68199836817093118 0.7313536940579346 1 0 0 1 I I #
point $-1 -48.104950963875211 -46.712969794648892 8.8935301079042564 #
loop $-1 $-1 $403 $279 #
plane-surface $-1 77.896664326914276 0 0 -1 0 0 0 0 1 forward_v I I I I #
coedge $-1 $283 $282 $409 $495 reversed $111 $-1 #
coedge $-1 $496 $497 $283 $404 forward $400 $-1 #
edge $-1 $406 -16.781284852422548 $498 -5.8528054404591972 $403 $499 forward 7 unknown #
coedge $-1 $289 $284 $497 $500 reversed $177 $-1 #
vertex $-1 $285 $501 #
straight-curve $-1 34.574685899030769 -50.709261688836641 5.1669275451299583 1 0 0 I I #
coedge $-1 $502 $286 $289 $413 forward $280 $-1 #
coedge $-1 $286 $502 $402 $495 forward $280 $-1 #
vertex $-1 $287 $503 #
straight-curve $-1 60.402079269208791 -78.480028801332651 12.620132670678579 0 -1 0 I I #
straight-curve $-1 60.402079269208791 -50.709261688836648 5.1669275451299512 0 0.7313536940579346 0.68199836817093118 I I #
edge $-1 $290 60.402079269208791 $504 77.896664326914276 $289 $505 forward 7 unknown #
point $-1 60.402079269208791 -50.709261688836641 12.620132670678581 #
point $-1 60.402079269208791 -50.709261688836641 5.1669275451299574 #
edge $-1 $506 1 $506 0 $293 $-1 forward 7 unknown #
vertex $-1 $294 $507 #
ellipse-curve $-1 65.400532142838927 -45.146935698773497 7.2141641819844873 0 -0.68199836817093118 0.7313536940579346 1 0 0 1 I I #
point $-1 66.400532142838927 -46.712969794648892 8.8935301079042564 #
edge $-1 $508 1 $508 0 $297 $-1 forward 7 unknown #
vertex $-1 $298 $509 #
ellipse-curve $-1 72.898211453284148 -45.146935698773497 7.2141641819844873 0 -0.68199836817093118 0.7313536940579346 1 0 0 1 I I #
point $-1 73.898211453284148 -46.712969794648892 8.8935301079042564 #
plane-surface $-1 0 0 12.620132670678581 0 0 1 1 0 0 forward_v I I I I #
coedge $-1 $435 $434 $427 $510 forward $302 $-1 #
coedge $-1 $427 $304 $306 $431 reversed $199 $-1 #
coedge $-1 $304 $426 $425 $510 reversed $199 $-1 #
coedge $-1 $312 $307 $304 $429 forward $313 $-1 #
edge $-1 $432 9.624674462710626 $511 18.973464187415072 $428 $512 forward 7 unknown #
coedge $-1 $306 $305 $435 $513 reversed $125 $-1 #
edge $-1 $514 -101.41852337767327 $432 -89.712570318614411 $426 $515 forward 7 unknown #
vertex $-1 $308 $516 #
straight-curve $-1 3.5960010033748659 41.360471964132209 12.620132670678579 1 0 0 I I #
coedge $-1 $425 $309 $312 $439 reversed $302 $-1 #
coedge $-1 $309 $425 $430 $513 forward $302 $-1 #
vertex $-1 $310 $517 #
straight-curve $-1 -3.0920561519970988 50.709261688836641 95.516294767241902 0 0 1 I I #
straight-curve $-1 -3.0920561519970988 -30.287171874866594 66.610505937514901 0 0.79863550430605224 -0.6018150307709319 I I #
edge $-1 $511 -17.476060165496563 $314 3.0920561519970988 $434 $518 forward 7 unknown #
point $-1 -3.0920561519970988 50.709261688836641 12.620132670678581 #
point $-1 -3.0920561519970988 41.360471964132195 12.620132670678579 #
edge $-1 $519 1 $519 0 $317 $-1 forward 7 unknown #
vertex $-1 $318 $520 #
ellipse-curve $-1 2.7845485101439493 42.486542116339848 4.3889375818962941 0 0.6018150307709319 0.79863550430605224 1.5 0 0 1 I I #
point $-1 4.2845485101439493 46.034866826484368 9.0977234204582587 #
edge $-1 $521 1 $521 0 $321 $-1 forward 7 unknown #
vertex $-1 $322 $522 #
ellipse-curve $-1 11.599455503355514 42.486542116339848 4.3889375818962941 0 0.6018150307709319 0.79863550430605224 1.5 0 0 1 I I #
point $-1 13.099455503355514 46.034866826484368 9.0977234204582587 #
plane-surface $-1 77.896664326914276 0 0 -1 0 0 0 0 1 forward_v I I I I #
coedge $-1 $330 $328 $332 $455 reversed $221 $-1 #
edge $-1 $343 -12.620132670678581 $457 12.620132670678581 $342 $523 forward 7 unknown #
vertex $-1 $455 $524 #
straight-curve $-1 -77.896664326914276 -50.709261688836641 0 0 0 -1 I I #
edge $-1 $453 -50.709261688836641 $457 50.709261688836641 $451 $525 forward 7 unknown #
straight-curve $-1 0 -50.709261688836641 -12.620132670678581 -1 0 0 I I #
vertex $-1 $335 $526 #
straight-curve $-1 0 50.709261688836641 -12.620132670678581 1 0 0 I I #
point $-1 77.896664326914276 50.709261688836641 -12.620132670678581 #
point $-1 77.896664326914276 -50.709261688836641 -12.620132670678581 #
straight-curve $-1 -77.896664326914276 0 12.620132670678581 0 -1 0 I I #
point $-1 -77.896664326914276 50.709261688836641 12.620132670678581 #
point $-1 -77.896664326914276 -50.709261688836641 12.620132670678581 #
straight-curve $-1 77.896664326914276 -50.709261688836641 0 0 0 -1 I I #
straight-curve $-1 77.896664326914276 50.709261688836641 0 0 0 -1 I I #
plane-surface $-1 0 50.709261688836641 0 0 -1 0 0 0 -1 forward_v I I I I #
coedge $-1 $356 $355 $527 $528 forward $147 $-1 #
edge $-1 $359 61.601083147950561 $529 77.896664326914276 $358 $530 forward 7 unknown #
coedge $-1 $364 $363 $356 $470 reversed $365 $-1 #
edge $-1 $531 -77.896664326914276 $471 -61.601083147950561 $469 $532 forward 7 unknown #
vertex $-1 $371 $533 #
straight-curve $-1 -61.601083147950561 0 -12.620132670678581 0 -1 0 I I #
point $-1 -61.601083147950561 -50.709261688836641 -12.620132670678581 #
coedge $-1 $527 $361 $364 $477 forward $353 $-1 #
coedge $-1 $361 $527 $368 $479 reversed $353 $-1 #
straight-curve $-1 -77.896664326914276 0 -9.620132670678581 0 1 0 I I #
edge $-1 $366 9.620132670678581 $531 12.620132670678581 $364 $534 forward 7 unknown #
point $-1 -77.896664326914276 50.709261688836641 -9.620132670678581 #
edge $-1 $369 9.620132670678581 $529 12.620132670678581 $475 $535 forward 7 unknown #
point $-1 -77.896664326914276 -50.709261688836641 -9.620132670678581 #
straight-curve $-1 -61.601083147950561 50.709261688836641 -5.5600663353392905 0 0 -1 I I #
edge $-1 $483 27.77076711249601 $486 35.763350900871494 $375 $536 forward 7 unknown #
vertex $-1 $379 $537 #
straight-curve $-1 -44.106498090245069 -50.709261688836641 59.553476982844664 0 0 1 I I #
edge $-1 $486 17.679602780696161 $386 35.17418783840165 $385 $538 forward 7 unknown #
vertex $-1 $485 $539 #
straight-curve $-1 -44.106498090245069 -50.709261688836648 5.1669275451299512 0 -0.7313536940579346 -0.68199836817093118 I I #
point $-1 -44.106498090245069 -50.709261688836641 5.1669275451299574 #
point $-1 -61.601083147950561 -42.716677900461157 12.620132670678581 #
straight-curve $-1 0 -50.709261688836641 12.620132670678581 1 0 0 I I #
vertex $-1 $392 $540 #
point $-1 -55.602630274320418 -45.146935698773497 7.2141641819844873 #
vertex $-1 $396 $541 #
point $-1 -48.104950963875211 -45.146935698773497 7.2141641819844873 #
edge $-1 $498 -43.321978427883508 $410 -25.827393370178022 $409 $542 forward 7 unknown #
coedge $-1 $497 $403 $502 $543 reversed $400 $-1 #
coedge $-1 $403 $496 $405 $500 forward $400 $-1 #
vertex $-1 $404 $544 #
straight-curve $-1 77.896664326914276 -38.436207020978948 16.611736430293703 0 0.7313536940579346 0.68199836817093118 I I #
edge $-1 $504 -12.620132670678581 $406 -5.1669275451299574 $497 $545 forward 7 unknown #
point $-1 77.896664326914276 -50.709261688836641 5.1669275451299574 #
coedge $-1 $409 $408 $496 $543 forward $280 $-1 #
point $-1 60.402079269208791 -42.716677900461157 12.620132670678581 #
vertex $-1 $543 $546 #
straight-curve $-1 0 -50.709261688836641 12.620132670678581 1 0 0 I I #
vertex $-1 $416 $547 #
point $-1 66.400532142838927 -45.146935698773497 7.2141641819844873 #
vertex $-1 $420 $548 #
point $-1 73.898211453284148 -45.146935698773497 7.2141641819844873 #
edge $-1 $511 82.896162096563316 $514 89.940980597003914 $425 $549 forward 7 unknown #
vertex $-1 $439 $550 #
straight-curve $-1 17.476060165496563 31.735797501421569 12.620132670678586 0 1 0 I I #
edge $-1 $514 -13.880059162121697 $436 6.6880571553719648 $435 $551 forward 7 unknown #
vertex $-1 $513 $552 #
straight-curve $-1 17.476060165496563 -30.287171874866594 66.610505937514901 0 -0.79863550430605224 0.6018150307709319 I I #
point $-1 17.476060165496563 41.360471964132195 12.620132670678579 #
point $-1 -3.0920561519970988 50.709261688836641 5.5753141702379878 #
straight-curve $-1 0 50.709261688836641 12.620132670678581 -1 0 0 I I #
vertex $-1 $442 $553 #
point $-1 4.2845485101439493 42.486542116339848 4.3889375818962941 #
vertex $-1 $446 $554 #
point $-1 13.099455503355514 42.486542116339848 4.3889375818962941 #
straight-curve $-1 -77.896664326914276 50.709261688836641 0 0 0 -1 I I #
point $-1 -77.896664326914276 -50.709261688836641 -12.620132670678581 #
straight-curve $-1 -77.896664326914276 0 -12.620132670678581 0 1 0 I I #
point $-1 -77.896664326914276 50.709261688836641 -12.620132670678581 #
coedge $-1 $475 $474 $467 $528 reversed $353 $-1 #
edge $-1 $529 -50.709261688836641 $531 50.709261688836641 $527 $555 forward 7 unknown #
vertex $-1 $528 $556 #
straight-curve $-1 0 -50.709261688836641 -12.620132670678581 -1 0 0 I I #
vertex $-1 $470 $557 #
straight-curve $-1 0 50.709261688836641 -12.620132670678581 1 0 0 I I #
point $-1 -61.601083147950561 50.709261688836641 -12.620132670678581 #
straight-curve $-1 -77.896664326914276 50.709261688836641 0 0 0 -1 I I #
straight-curve $-1 -77.896664326914276 -50.709261688836641 0 0 0 -1 I I #
straight-curve $-1 -44.106498090245069 -78.480028801332651 12.620132670678579 0 1 0 I I #
point $-1 -44.106498090245069 -50.709261688836641 12.620132670678581 #
straight-curve $-1 -26.426895309548907 -42.716677900461157 12.620132670678581 -1 0 0 I I #
point $-1 -44.106498090245069 -42.716677900461157 12.620132670678581 #
point $-1 -56.602630274320418 -44.464937330602559 6.4828104879265522 #
point $-1 -49.104950963875211 -44.464937330602559 6.4828104879265522 #
straight-curve $-1 34.574685899030769 -42.716677900461157 12.620132670678581 -1 0 0 I I #
edge $-1 $504 -50.709261688836641 $498 -42.716677900461157 $496 $558 forward 7 unknown #
point $-1 77.896664326914276 -42.716677900461157 12.620132670678581 #
straight-curve $-1 77.896664326914276 -50.709261688836641 0 0 0 -1 I I #
point $-1 77.896664326914276 -50.709261688836641 12.620132670678581 #
point $-1 65.400532142838927 -44.464937330602559 6.4828104879265522 #
point $-1 72.898211453284148 -44.464937330602559 6.4828104879265522 #
straight-curve $-1 17.476060165496563 50.709261688836641 95.516294767241902 0 0 -1 I I #
point $-1 17.476060165496563 50.709261688836641 12.620132670678581 #
straight-curve $-1 3.5960010033748659 50.709261688836634 5.5753141702379914 -1 0 0 I I #
point $-1 17.476060165496563 50.709261688836641 5.5753141702379878 #
point $-1 2.7845485101439493 41.583819570183451 3.1909843254372161 #
point $-1 11.599455503355514 41.583819570183451 3.1909843254372161 #
straight-curve $-1 -77.896664326914276 0 -12.620132670678581 0 1 0 I I #
point $-1 -77.896664326914276 -50.709261688836641 -12.620132670678581 #
point $-1 -77.896664326914276 50.709261688836641 -12.620132670678581 #
straight-curve $-1 77.896664326914276 0 12.620132670678581 0 1 0 I I #
End-of-ACIS-data 