500 0 5 0           
7 Unknown 11 ACIS 5.0 NT 24 Thu Mar 25 18:35:19 1999 
-1 9.9999999999999995e-007 1e-010 
body $-1 $5 $-1 $6 #
body $-1 $7 $-1 $8 #
body $-1 $9 $-1 $10 #
body $-1 $11 $-1 $12 #
body $-1 $13 $-1 $14 #
lump $-1 $-1 $15 $0 #
transform $-1 1 0 0 0 1 0 0 0 1 41.892147587511829 22.77967827600969 8.8775187744120903 1 rotate no_reflect no_shear #
lump $-1 $-1 $16 $1 #
transform $-1 1 0 0 0 1 0 0 0 1 41.892147587511829 22.77967827600969 8.8775187744120903 1 rotate no_reflect no_shear #
lump $-1 $-1 $17 $2 #
transform $-1 1 0 0 0 1 0 0 0 1 41.892147587511829 22.77967827600969 8.8775187744120903 1 rotate no_reflect no_shear #
lump $-1 $-1 $18 $3 #
transform $-1 1 0 0 0 1 0 0 0 1 41.892147587511829 22.77967827600969 8.8775187744120903 1 rotate no_reflect no_shear #
lump $-1 $-1 $19 $4 #
transform $-1 1 0 0 0 1 0 0 0 1 41.892147587511829 22.77967827600969 8.8775187744120903 1 rotate no_reflect no_shear #
shell $-1 $-1 $-1 $20 $-1 $5 #
shell $-1 $-1 $-1 $21 $-1 $7 #
shell $-1 $-1 $-1 $22 $-1 $9 #
shell $-1 $-1 $-1 $23 $-1 $11 #
shell $-1 $-1 $-1 $24 $-1 $13 #
face $-1 $25 $26 $15 $-1 $27 forward single #
face $-1 $28 $29 $16 $-1 $30 reversed single #
face $-1 $31 $32 $17 $-1 $33 forward single #
face $-1 $34 $35 $18 $-1 $36 reversed single #
face $-1 $37 $38 $19 $-1 $39 reversed single #
face $-1 $40 $41 $15 $-1 $42 reversed single #
loop $-1 $-1 $43 $20 #
plane-surface $-1 0 0 8.8775187744120903 0 0 1 1 0 0 forward_v I I I I #
face $-1 $44 $45 $16 $-1 $46 forward single #
loop $-1 $-1 $47 $21 #
plane-surface $-1 0 -19.017097172039897 0.31593153982259148 0 0 1 1 0 0 forward_v I I I I #
face $-1 $48 $49 $17 $-1 $50 forward single #
loop $-1 $-1 $51 $22 #
plane-surface $-1 23.356403093067257 -5.9502449481984403 117.68516251449843 0 1 0 0.5877852598018023 0 0.80901698891910034 forward_v I I I I #
face $-1 $52 $53 $18 $-1 $54 reversed single #
loop $-1 $55 $56 $23 #
cone-surface $-1 35.890511966576092 -4.1610450983013791 4.2941664786614142 -0.5877852598018023 0 -0.80901698891910034 0.40450849445955017 0 -0.29389262990090115 1 I I 0 1 0.5 forward I I I I #
face $-1 $57 $58 $19 $-1 $59 reversed single #
loop $-1 $60 $61 $24 #
cone-surface $-1 35.890511966576092 -1.4772453234557865 4.2941664786614142 -0.5877852598018023 0 -0.80901698891910034 0.40450849445955017 0 -0.29389262990090115 1 I I 0 1 0.5 forward I I I I #
face $-1 $62 $63 $15 $-1 $64 reversed single #
loop $-1 $-1 $65 $25 #
plane-surface $-1 0 0 -8.8775187744120903 0 0 1 1 0 0 forward_v I I I I #
coedge $-1 $66 $67 $68 $69 forward $26 $-1 #
face $-1 $70 $71 $16 $-1 $72 forward single #
loop $-1 $-1 $73 $28 #
plane-surface $-1 0 -19.017097172039897 -2.6840684601774094 0 0 1 1 0 0 forward_v I I I I #
coedge $-1 $74 $75 $76 $77 reversed $29 $-1 #
face $-1 $78 $79 $17 $-1 $80 forward single #
loop $-1 $-1 $81 $31 #
plane-surface $-1 -25.890770613694912 -2.8191452108785811 49.902244313291689 0.5877852598018023 0 0.80901698891910034 0.80901698891910034 0 -0.5877852598018023 forward_v I I I I #
coedge $-1 $82 $83 $84 $85 reversed $32 $-1 #
face $-1 $86 $87 $18 $-1 $88 forward single #
loop $-1 $89 $90 $34 #
cone-surface $-1 35.400544420379418 -4.1610450983013791 3.6197840196222497 -0.5877852598018023 0 -0.80901698891910034 0.20225424722977509 0 -0.14694631495045057 1 I I -0.70710678118654746 0.70710678118654746 0.25 forward I I I I #
loop $-1 $-1 $91 $23 #
coedge $-1 $56 $56 $92 $93 reversed $35 $-1 #
face $-1 $94 $95 $19 $-1 $96 reversed single #
loop $-1 $97 $98 $37 #
cone-surface $-1 35.400544420379418 -1.4772453234557865 3.6197840196222497 -0.5877852598018023 0 -0.80901698891910034 0.20225424722977509 0 -0.14694631495045057 1 I I -0.70710678118654746 0.70710678118654746 0.25 forward I I I I #
loop $-1 $-1 $99 $24 #
coedge $-1 $61 $61 $100 $101 reversed $38 $-1 #
face $-1 $102 $103 $15 $-1 $104 reversed single #
loop $-1 $-1 $105 $40 #
plane-surface $-1 0 -22.77967827600969 0 0 1 0 0 0 1 forward_v I I I I #
coedge $-1 $106 $107 $108 $109 forward $41 $-1 #
coedge $-1 $110 $43 $111 $112 forward $26 $-1 #
coedge $-1 $43 $110 $113 $114 forward $26 $-1 #
coedge $-1 $115 $116 $43 $69 reversed $117 $-1 #
edge $-1 $118 -22.77967827600969 $119 22.77967827600969 $68 $120 forward 7 unknown #
face $-1 $121 $122 $16 $-1 $123 reversed single #
loop $-1 $-1 $124 $44 #
plane-surface $-1 0 -15.254516068070101 -1.184068460177409 0 -1 0 0 0 -1 forward_v I I I I #
coedge $-1 $125 $126 $127 $128 reversed $45 $-1 #
coedge $-1 $129 $47 $130 $131 reversed $29 $-1 #
coedge $-1 $47 $129 $132 $133 reversed $29 $-1 #
coedge $-1 $134 $135 $47 $77 forward $122 $-1 #
edge $-1 $136 -13.271129689989742 $137 -5.745967482050153 $76 $138 forward 7 unknown #
face $-1 $139 $140 $17 $-1 $141 reversed single #
loop $-1 $-1 $142 $48 #
plane-surface $-1 23.356403093067257 0.31195452644127819 117.68516251449843 0 -1 0 -0.5877852598018023 0 -0.80901698891910034 forward_v I I I I #
coedge $-1 $143 $144 $145 $146 reversed $49 $-1 #
coedge $-1 $83 $51 $144 $147 forward $32 $-1 #
coedge $-1 $51 $82 $148 $149 reversed $32 $-1 #
coedge $-1 $150 $145 $51 $85 forward $140 $-1 #
edge $-1 $151 -58.187510650719688 $152 -49.965062482837126 $84 $153 forward 7 unknown #
face $-1 $154 $155 $18 $-1 $156 forward single #
loop $-1 $-1 $157 $52 #
plane-surface $-1 23.356403093067257 -5.9502449481984403 117.68516251449843 0 1 0 0.5877852598018023 0 0.80901698891910034 forward_v I I I I #
loop $-1 $-1 $158 $34 #
coedge $-1 $90 $90 $91 $159 forward $53 $-1 #
coedge $-1 $91 $91 $90 $159 reversed $55 $-1 #
coedge $-1 $92 $92 $56 $93 forward $155 $-1 #
edge $-1 $160 0 $160 6.2831853071796004 $92 $161 forward 7 unknown #
face $-1 $162 $163 $19 $-1 $164 reversed single #
loop $-1 $165 $166 $57 #
cone-surface $-1 35.890511966576092 -4.1610450983013791 4.2941664786614142 -0.5877852598018023 0 -0.80901698891910034 0.40450849445955017 0 -0.29389262990090115 1 I I 0 1 0.5 forward I I I I #
loop $-1 $-1 $167 $37 #
coedge $-1 $98 $98 $99 $168 forward $58 $-1 #
coedge $-1 $99 $99 $98 $168 reversed $60 $-1 #
coedge $-1 $100 $100 $61 $101 forward $169 $-1 #
edge $-1 $170 0 $170 6.2831853071796004 $100 $171 forward 7 unknown #
face $-1 $172 $173 $15 $-1 $174 reversed single #
loop $-1 $-1 $175 $62 #
plane-surface $-1 -41.892147587511829 0 0 1 0 0 0 0 -1 forward_v I I I I #
coedge $-1 $176 $113 $177 $178 forward $63 $-1 #
coedge $-1 $179 $65 $176 $180 forward $41 $-1 #
coedge $-1 $65 $179 $181 $182 forward $41 $-1 #
coedge $-1 $116 $115 $65 $109 reversed $117 $-1 #
edge $-1 $183 -22.77967827600969 $184 22.77967827600969 $108 $185 forward 7 unknown #
coedge $-1 $67 $66 $186 $187 forward $26 $-1 #
coedge $-1 $188 $189 $66 $112 reversed $173 $-1 #
edge $-1 $119 -41.892147587511829 $190 41.892147587511829 $111 $191 forward 7 unknown #
coedge $-1 $105 $192 $67 $114 reversed $63 $-1 #
edge $-1 $193 -41.892147587511829 $118 41.892147587511829 $113 $194 forward 7 unknown #
coedge $-1 $108 $68 $192 $195 forward $117 $-1 #
coedge $-1 $68 $108 $188 $196 reversed $117 $-1 #
loop $-1 $-1 $115 $172 #
vertex $-1 $69 $197 #
vertex $-1 $69 $198 #
straight-curve $-1 41.892147587511829 0 8.8775187744120903 0 1 0 I I #
face $-1 $199 $200 $16 $-1 $201 reversed single #
loop $-1 $-1 $76 $70 #
plane-surface $-1 41.892147587511829 0 0 -1 0 0 0 0 1 forward_v I I I I #
coedge $-1 $132 $202 $134 $203 reversed $71 $-1 #
coedge $-1 $204 $73 $202 $205 reversed $45 $-1 #
coedge $-1 $73 $204 $206 $207 reversed $45 $-1 #
coedge $-1 $208 $134 $73 $128 forward $122 $-1 #
edge $-1 $209 5.745967482050153 $210 13.271129689989742 $127 $211 forward 7 unknown #
coedge $-1 $75 $74 $212 $213 reversed $29 $-1 #
coedge $-1 $214 $215 $74 $131 forward $216 $-1 #
edge $-1 $217 -41.892147587511829 $136 41.892147587511829 $130 $218 forward 7 unknown #
coedge $-1 $219 $124 $75 $133 forward $71 $-1 #
edge $-1 $137 -41.892147587511829 $220 41.892147587511829 $132 $221 forward 7 unknown #
coedge $-1 $127 $76 $124 $203 forward $122 $-1 #
coedge $-1 $76 $222 $214 $223 forward $122 $-1 #
vertex $-1 $131 $224 #
vertex $-1 $77 $225 #
straight-curve $-1 41.892147587511829 -9.5085485860199483 0.31593153982259148 0 1 0 I I #
face $-1 $226 $227 $17 $-1 $228 reversed single #
loop $-1 $-1 $229 $78 #
plane-surface $-1 41.892147587511829 0 0 -1 0 0 0 0 1 forward_v I I I I #
coedge $-1 $230 $231 $229 $232 reversed $79 $-1 #
coedge $-1 $233 $81 $231 $234 reversed $49 $-1 #
coedge $-1 $81 $233 $82 $147 reversed $49 $-1 #
coedge $-1 $84 $229 $81 $146 forward $140 $-1 #
edge $-1 $235 -1.7215271318805687 $151 4.5406723427591498 $145 $236 forward 7 unknown #
edge $-1 $151 -83.784295175023644 $237 -69.795430992456147 $82 $238 forward 7 unknown #
coedge $-1 $239 $240 $83 $149 forward $241 $-1 #
edge $-1 $152 -30.2139460409782 $237 -18.896717261599186 $148 $242 forward 7 unknown #
coedge $-1 $243 $84 $240 $244 reversed $140 $-1 #
vertex $-1 $146 $245 #
vertex $-1 $149 $246 #
straight-curve $-1 41.892147587511829 -5.9502449481984403 58.842581257249215 0 0 1 I I #
face $-1 $247 $248 $18 $-1 $249 forward single #
loop $-1 $250 $92 $86 #
plane-surface $-1 -25.890770613694912 -2.8191452108785811 49.902244313291689 0.5877852598018023 0 0.80901698891910034 0.80901698891910034 0 -0.5877852598018023 forward_v I I I I #
coedge $-1 $251 $252 $253 $254 reversed $87 $-1 #
coedge $-1 $158 $158 $-1 $255 forward $89 $-1 #
edge $-1 $256 0 $256 6.2831853071796004 $90 $257 forward 7 unknown #
vertex $-1 $93 $258 #
ellipse-curve $-1 36.233533197822318 -4.1610450983013791 4.7662946904708079 -0.5877852598018023 0 -0.80901698891910034 0.40450849445955017 0 -0.29389262990090115 1 I I #
face $-1 $259 $260 $19 $-1 $261 forward single #
loop $-1 $262 $263 $94 #
cone-surface $-1 35.400544420379418 -4.1610450983013791 3.6197840196222497 -0.5877852598018023 0 -0.80901698891910034 0.20225424722977509 0 -0.14694631495045057 1 I I -0.70710678118654746 0.70710678118654746 0.25 forward I I I I #
loop $-1 $-1 $264 $57 #
coedge $-1 $166 $166 $265 $266 reversed $95 $-1 #
coedge $-1 $167 $167 $-1 $267 forward $97 $-1 #
edge $-1 $268 0 $268 6.2831853071796004 $98 $269 forward 7 unknown #
loop $-1 $270 $100 $259 #
vertex $-1 $101 $271 #
ellipse-curve $-1 36.233533197822318 -1.4772453234557865 4.7662946904708079 -0.5877852598018023 0 -0.80901698891910034 0.40450849445955017 0 -0.29389262990090115 1 I I #
face $-1 $-1 $117 $15 $-1 $272 reversed single #
loop $-1 $-1 $188 $102 #
plane-surface $-1 0 22.77967827600969 0 0 -1 0 0 0 -1 forward_v I I I I #
coedge $-1 $273 $186 $189 $274 forward $103 $-1 #
coedge $-1 $192 $105 $106 $180 reversed $63 $-1 #
coedge $-1 $186 $273 $105 $178 reversed $103 $-1 #
edge $-1 $193 -8.8775187744120903 $275 8.8775187744120903 $177 $276 forward 7 unknown #
coedge $-1 $107 $106 $273 $277 forward $41 $-1 #
edge $-1 $184 -41.892147587511829 $275 41.892147587511829 $176 $278 forward 7 unknown #
coedge $-1 $189 $188 $107 $182 reversed $173 $-1 #
edge $-1 $279 -41.892147587511829 $183 41.892147587511829 $181 $280 forward 7 unknown #
vertex $-1 $109 $281 #
vertex $-1 $195 $282 #
straight-curve $-1 41.892147587511829 0 -8.8775187744120903 0 -1 0 I I #
coedge $-1 $175 $177 $110 $187 reversed $103 $-1 #
edge $-1 $190 -22.77967827600969 $193 22.77967827600969 $186 $283 forward 7 unknown #
coedge $-1 $181 $111 $116 $196 forward $173 $-1 #
coedge $-1 $111 $181 $175 $274 reversed $173 $-1 #
vertex $-1 $112 $284 #
straight-curve $-1 0 22.77967827600969 8.8775187744120903 -1 0 0 I I #
coedge $-1 $113 $176 $115 $195 reversed $63 $-1 #
vertex $-1 $187 $285 #
straight-curve $-1 0 -22.77967827600969 8.8775187744120903 1 0 0 I I #
edge $-1 $118 -8.8775187744120903 $184 8.8775187744120903 $115 $286 forward 7 unknown #
edge $-1 $119 -8.8775187744120903 $183 8.8775187744120903 $116 $287 forward 7 unknown #
point $-1 41.892147587511829 -22.77967827600969 8.8775187744120903 #
point $-1 41.892147587511829 22.77967827600969 8.8775187744120903 #
face $-1 $288 $289 $16 $-1 $290 forward single #
loop $-1 $-1 $206 $121 #
plane-surface $-1 0 -22.77967827600969 0 0 1 0 0 0 1 forward_v I I I I #
coedge $-1 $124 $219 $125 $205 forward $71 $-1 #
edge $-1 $137 -0.90796576991129596 $209 2.0920342300887049 $134 $291 forward 7 unknown #
coedge $-1 $126 $125 $292 $293 reversed $45 $-1 #
edge $-1 $294 -41.892147587511829 $209 41.892147587511829 $202 $295 forward 7 unknown #
coedge $-1 $296 $297 $126 $207 forward $200 $-1 #
edge $-1 $210 -41.892147587511829 $298 41.892147587511829 $206 $299 forward 7 unknown #
coedge $-1 $300 $127 $297 $301 forward $122 $-1 #
vertex $-1 $128 $302 #
vertex $-1 $301 $303 #
straight-curve $-1 41.892147587511829 -9.5085485860199483 -2.6840684601774094 0 -1 0 I I #
coedge $-1 $304 $305 $129 $213 forward $306 $-1 #
edge $-1 $220 5.745967482050153 $217 13.271129689989742 $212 $307 forward 7 unknown #
coedge $-1 $308 $130 $135 $223 reversed $216 $-1 #
coedge $-1 $130 $308 $304 $309 forward $216 $-1 #
loop $-1 $-1 $130 $310 #
vertex $-1 $213 $311 #
straight-curve $-1 0 -22.77967827600969 0.31593153982259148 1 0 0 I I #
coedge $-1 $202 $132 $305 $312 reversed $71 $-1 #
vertex $-1 $213 $313 #
straight-curve $-1 0 -15.254516068070101 0.31593153982259148 -1 0 0 I I #
coedge $-1 $135 $314 $315 $316 reversed $122 $-1 #
edge $-1 $317 -8.8775187744120903 $136 -0.31593153982259148 $135 $318 forward 7 unknown #
point $-1 41.892147587511829 -22.77967827600969 0.31593153982259148 #
point $-1 41.892147587511829 -15.254516068070101 0.31593153982259148 #
face $-1 $319 $320 $17 $-1 $321 forward single #
loop $-1 $-1 $322 $139 #
plane-surface $-1 0 -19.017097172039897 0.31593153982259148 0 0 1 1 0 0 forward_v I I I I #
coedge $-1 $145 $323 $142 $232 forward $140 $-1 #
coedge $-1 $231 $142 $324 $325 reversed $79 $-1 #
coedge $-1 $142 $230 $143 $234 forward $79 $-1 #
edge $-1 $326 49.965062482837126 $235 58.187510650719688 $229 $327 forward 7 unknown #
coedge $-1 $144 $143 $239 $328 reversed $49 $-1 #
edge $-1 $329 69.795430992456147 $235 83.784295175023644 $231 $330 forward 7 unknown #
vertex $-1 $146 $331 #
straight-curve $-1 41.892147587511829 -1.4095726054392905 0.65507060652952021 0 -1 0 I I #
vertex $-1 $328 $332 #
straight-curve $-1 -25.890770613694912 -5.9502449481984403 49.902244313291689 -0.80901698891910034 0 0.5877852598018023 I I #
coedge $-1 $324 $148 $233 $328 forward $241 $-1 #
coedge $-1 $148 $333 $150 $244 forward $241 $-1 #
loop $-1 $-1 $324 $334 #
straight-curve $-1 11.678201546533629 -5.9502449481984403 8.8775187744120885 -1 0 0 I I #
coedge $-1 $335 $150 $336 $337 forward $140 $-1 #
edge $-1 $338 -22.77967827600969 $152 -5.9502449481984403 $150 $339 forward 7 unknown #
point $-1 41.892147587511829 -5.9502449481984403 0.65507060652952731 #
point $-1 41.892147587511829 -5.9502449481984403 8.8775187744120903 #
face $-1 $340 $341 $18 $-1 $342 reversed single #
loop $-1 $-1 $343 $154 #
plane-surface $-1 23.356403093067257 0.31195452644127819 117.68516251449843 0 -1 0 -0.5877852598018023 0 -0.80901698891910034 forward_v I I I I #
loop $-1 $-1 $344 $86 #
coedge $-1 $252 $157 $345 $346 forward $87 $-1 #
coedge $-1 $157 $251 $347 $348 reversed $87 $-1 #
coedge $-1 $349 $350 $157 $254 forward $341 $-1 #
edge $-1 $351 -58.187510650719688 $352 -49.965062482837126 $253 $353 forward 7 unknown #
edge $-1 $354 1 $354 0 $158 $-1 forward 7 unknown #
vertex $-1 $159 $355 #
ellipse-curve $-1 35.547490735329866 -4.1610450983013791 3.822038266852025 0.5877852598018023 0 0.80901698891910034 0.40450849445955017 0 -0.29389262990090115 1 I I #
point $-1 36.638041692281867 -4.1610450983013791 4.4724020605699026 #
face $-1 $356 $169 $19 $-1 $357 forward single #
loop $-1 $-1 $358 $162 #
plane-surface $-1 23.356403093067257 -5.9502449481984403 117.68516251449843 0 1 0 0.5877852598018023 0 0.80901698891910034 forward_v I I I I #
loop $-1 $-1 $359 $94 #
coedge $-1 $263 $263 $264 $360 forward $163 $-1 #
coedge $-1 $264 $264 $263 $360 reversed $165 $-1 #
coedge $-1 $265 $265 $166 $266 forward $270 $-1 #
edge $-1 $361 0 $361 6.2831853071796004 $265 $362 forward 7 unknown #
edge $-1 $363 1 $363 0 $167 $-1 forward 7 unknown #
vertex $-1 $168 $364 #
ellipse-curve $-1 35.547490735329866 -1.4772453234557865 3.822038266852025 0.5877852598018023 0 0.80901698891910034 0.40450849445955017 0 -0.29389262990090115 1 I I #
loop $-1 $365 $265 $259 #
point $-1 36.638041692281867 -1.4772453234557865 4.4724020605699026 #
plane-surface $-1 41.892147587511829 0 0 -1 0 0 0 0 1 forward_v I I I I #
coedge $-1 $177 $175 $179 $277 reversed $103 $-1 #
edge $-1 $190 -8.8775187744120903 $279 8.8775187744120903 $189 $366 forward 7 unknown #
vertex $-1 $277 $367 #
straight-curve $-1 -41.892147587511829 -22.77967827600969 0 0 0 -1 I I #
edge $-1 $275 -22.77967827600969 $279 22.77967827600969 $273 $368 forward 7 unknown #
straight-curve $-1 0 -22.77967827600969 -8.8775187744120903 -1 0 0 I I #
vertex $-1 $182 $369 #
straight-curve $-1 0 22.77967827600969 -8.8775187744120903 1 0 0 I I #
point $-1 41.892147587511829 22.77967827600969 -8.8775187744120903 #
point $-1 41.892147587511829 -22.77967827600969 -8.8775187744120903 #
straight-curve $-1 -41.892147587511829 0 8.8775187744120903 0 -1 0 I I #
point $-1 -41.892147587511829 22.77967827600969 8.8775187744120903 #
point $-1 -41.892147587511829 -22.77967827600969 8.8775187744120903 #
straight-curve $-1 41.892147587511829 -22.77967827600969 0 0 0 -1 I I #
straight-curve $-1 41.892147587511829 22.77967827600969 0 0 0 -1 I I #
face $-1 $310 $370 $16 $-1 $371 reversed single #
loop $-1 $-1 $315 $199 #
plane-surface $-1 0 0 8.8775187744120903 0 0 1 1 0 0 forward_v I I I I #
straight-curve $-1 41.892147587511829 -15.254516068070101 -0.59203423008870448 0 0 -1 I I #
coedge $-1 $305 $372 $204 $293 forward $306 $-1 #
edge $-1 $298 -13.271129689989742 $294 -5.745967482050153 $292 $373 forward 7 unknown #
vertex $-1 $293 $374 #
straight-curve $-1 0 -15.254516068070101 -2.6840684601774094 1 0 0 I I #
coedge $-1 $375 $206 $372 $376 forward $200 $-1 #
coedge $-1 $206 $375 $208 $301 reversed $200 $-1 #
vertex $-1 $376 $377 #
straight-curve $-1 0 -22.77967827600969 -2.6840684601774094 -1 0 0 I I #
coedge $-1 $314 $208 $378 $379 reversed $122 $-1 #
edge $-1 $210 2.6840684601774094 $380 8.8775187744120903 $208 $318 forward 7 unknown #
point $-1 41.892147587511829 -15.254516068070101 -2.6840684601774094 #
point $-1 41.892147587511829 -22.77967827600969 -2.6840684601774094 #
coedge $-1 $381 $212 $215 $309 reversed $306 $-1 #
coedge $-1 $212 $292 $219 $312 forward $306 $-1 #
loop $-1 $-1 $212 $382 #
straight-curve $-1 -41.892147587511829 -9.5085485860199483 0.31593153982259148 0 -1 0 I I #
coedge $-1 $215 $214 $383 $384 reversed $216 $-1 #
edge $-1 $385 -8.8775187744120903 $217 -0.31593153982259148 $304 $386 forward 7 unknown #
face $-1 $382 $216 $16 $-1 $201 reversed single #
point $-1 -41.892147587511829 -22.77967827600969 0.31593153982259148 #
edge $-1 $294 -2.0920342300887049 $220 0.90796576991129596 $305 $387 forward 7 unknown #
point $-1 -41.892147587511829 -15.254516068070101 0.31593153982259148 #
coedge $-1 $222 $300 $388 $389 reversed $122 $-1 #
coedge $-1 $390 $383 $222 $316 forward $289 $-1 #
edge $-1 $317 -22.77967827600969 $391 22.77967827600969 $222 $392 forward 7 unknown #
vertex $-1 $316 $393 #
straight-curve $-1 41.892147587511829 -22.77967827600969 0 0 0 -1 I I #
face $-1 $394 $395 $17 $-1 $396 forward single #
loop $-1 $-1 $397 $226 #
plane-surface $-1 0 -19.017097172039897 -2.6840684601774094 0 0 1 1 0 0 forward_v I I I I #
coedge $-1 $398 $399 $335 $400 reversed $227 $-1 #
coedge $-1 $229 $401 $402 $403 reversed $140 $-1 #
coedge $-1 $402 $239 $230 $325 forward $241 $-1 #
edge $-1 $329 18.896717261599186 $326 30.2139460409782 $324 $404 forward 7 unknown #
vertex $-1 $403 $405 #
straight-curve $-1 41.892147587511829 0.31195452644127819 58.842581257249215 0 0 -1 I I #
edge $-1 $237 -4.5406723427591498 $329 1.7215271318805687 $239 $406 forward 7 unknown #
vertex $-1 $328 $407 #
straight-curve $-1 -25.890770613694912 0.31195452644127819 49.902244313291689 0.80901698891910034 0 -0.5877852598018023 I I #
point $-1 41.892147587511829 0.31195452644127819 0.65507060652952731 #
point $-1 30.574918808132814 -5.9502449481984403 8.8775187744120885 #
coedge $-1 $240 $408 $409 $410 forward $241 $-1 #
face $-1 $411 $241 $17 $-1 $412 forward single #
coedge $-1 $413 $243 $322 $400 forward $140 $-1 #
coedge $-1 $409 $414 $243 $337 reversed $415 $-1 #
edge $-1 $338 -8.8775187744120903 $416 -0.31593153982259148 $243 $417 forward 7 unknown #
vertex $-1 $244 $418 #
straight-curve $-1 41.892147587511829 0 8.8775187744120903 0 1 0 I I #
face $-1 $419 $420 $18 $-1 $421 reversed single #
loop $-1 $-1 $422 $247 #
plane-surface $-1 41.892147587511829 0 0 -1 0 0 0 0 1 forward_v I I I I #
coedge $-1 $423 $424 $422 $425 reversed $248 $-1 #
coedge $-1 $426 $345 $350 $427 reversed $250 $-1 #
coedge $-1 $344 $428 $251 $346 reversed $250 $-1 #
edge $-1 $351 -83.784295175023644 $429 -69.795430992456147 $251 $430 forward 7 unknown #
coedge $-1 $431 $432 $252 $348 forward $433 $-1 #
edge $-1 $352 -30.2139460409782 $429 -18.896717261599186 $347 $434 forward 7 unknown #
coedge $-1 $435 $253 $432 $436 reversed $341 $-1 #
coedge $-1 $253 $422 $344 $427 forward $341 $-1 #
vertex $-1 $427 $437 #
vertex $-1 $348 $438 #
straight-curve $-1 41.892147587511829 -5.9502449481984403 58.842581257249215 0 0 1 I I #
vertex $-1 $255 $439 #
point $-1 35.951999229789422 -4.1610450983013791 3.5281456369511237 #
face $-1 $440 $441 $19 $-1 $442 forward single #
plane-surface $-1 -25.890770613694912 -2.8191452108785811 49.902244313291689 0.5877852598018023 0 0.80901698891910034 0.80901698891910034 0 -0.5877852598018023 forward_v I I I I #
coedge $-1 $443 $444 $445 $446 reversed $260 $-1 #
coedge $-1 $359 $359 $-1 $447 forward $262 $-1 #
edge $-1 $448 0 $448 6.2831853071796004 $263 $449 forward 7 unknown #
vertex $-1 $266 $450 #
ellipse-curve $-1 36.233533197822318 -4.1610450983013791 4.7662946904708079 -0.5877852598018023 0 -0.80901698891910034 0.40450849445955017 0 -0.29389262990090115 1 I I #
vertex $-1 $267 $451 #
point $-1 35.951999229789422 -1.4772453234557865 3.5281456369511237 #
loop $-1 $-1 $452 $259 #
straight-curve $-1 -41.892147587511829 22.77967827600969 0 0 0 -1 I I #
point $-1 -41.892147587511829 -22.77967827600969 -8.8775187744120903 #
straight-curve $-1 -41.892147587511829 0 -8.8775187744120903 0 1 0 I I #
point $-1 -41.892147587511829 22.77967827600969 -8.8775187744120903 #
loop $-1 $-1 $378 $288 #
plane-surface $-1 0 0 -8.8775187744120903 0 0 1 1 0 0 forward_v I I I I #
coedge $-1 $292 $453 $296 $376 reversed $306 $-1 #
straight-curve $-1 -41.892147587511829 -9.5085485860199483 -2.6840684601774094 0 1 0 I I #
point $-1 -41.892147587511829 -15.254516068070101 -2.6840684601774094 #
coedge $-1 $297 $296 $454 $455 reversed $200 $-1 #
edge $-1 $298 2.6840684601774094 $456 8.8775187744120903 $372 $386 forward 7 unknown #
point $-1 -41.892147587511829 -22.77967827600969 -2.6840684601774094 #
coedge $-1 $454 $457 $300 $379 forward $370 $-1 #
edge $-1 $458 -22.77967827600969 $380 22.77967827600969 $300 $459 forward 7 unknown #
vertex $-1 $301 $460 #
coedge $-1 $461 $304 $462 $463 reversed $306 $-1 #
face $-1 $464 $306 $16 $-1 $465 reversed single #
coedge $-1 $315 $462 $308 $384 forward $289 $-1 #
edge $-1 $385 -41.892147587511829 $317 41.892147587511829 $308 $466 forward 7 unknown #
vertex $-1 $463 $467 #
straight-curve $-1 -41.892147587511829 -22.77967827600969 0 0 0 -1 I I #
straight-curve $-1 -41.892147587511829 -15.254516068070101 -0.59203423008870448 0 0 1 I I #
coedge $-1 $468 $469 $314 $389 forward $470 $-1 #
edge $-1 $391 -8.8775187744120903 $458 8.8775187744120903 $314 $471 forward 7 unknown #
coedge $-1 $462 $315 $469 $472 forward $289 $-1 #
vertex $-1 $316 $473 #
straight-curve $-1 41.892147587511829 0 8.8775187744120903 0 1 0 I I #
point $-1 41.892147587511829 -22.77967827600969 8.8775187744120903 #
face $-1 $334 $474 $17 $-1 $475 reversed single #
loop $-1 $-1 $476 $319 #
plane-surface $-1 0 -15.254516068070101 -1.184068460177409 0 -1 0 0 0 -1 forward_v I I I I #
coedge $-1 $477 $478 $479 $480 reversed $320 $-1 #
coedge $-1 $481 $322 $414 $482 reversed $227 $-1 #
coedge $-1 $322 $481 $483 $484 reversed $227 $-1 #
edge $-1 $416 -13.271129689989742 $485 -5.745967482050153 $335 $486 forward 7 unknown #
coedge $-1 $323 $487 $488 $489 reversed $140 $-1 #
coedge $-1 $490 $324 $323 $403 forward $241 $-1 #
edge $-1 $326 0.31195452644127819 $491 22.77967827600969 $323 $339 forward 7 unknown #
straight-curve $-1 11.678201546533629 0.31195452644127819 8.8775187744120885 1 0 0 I I #
point $-1 41.892147587511829 0.31195452644127819 8.8775187744120903 #
straight-curve $-1 30.574918808132807 -1.4095726054392905 8.8775187744120885 0 1 0 I I #
point $-1 30.574918808132814 0.31195452644127819 8.8775187744120885 #
coedge $-1 $333 $490 $492 $493 forward $241 $-1 #
coedge $-1 $494 $336 $333 $410 reversed $415 $-1 #
edge $-1 $495 -41.892147587511829 $338 41.892147587511829 $409 $496 forward 7 unknown #
face $-1 $497 $498 $17 $-1 $499 reversed single #
plane-surface $-1 0 0 8.8775187744120903 0 0 1 1 0 0 forward_v I I I I #
coedge $-1 $479 $335 $476 $500 forward $140 $-1 #
coedge $-1 $336 $494 $398 $482 forward $415 $-1 #
loop $-1 $-1 $414 $497 #
vertex $-1 $482 $501 #
straight-curve $-1 41.892147587511829 -22.77967827600969 0 0 0 -1 I I #
point $-1 41.892147587511829 -22.77967827600969 8.8775187744120903 #
face $-1 $502 $503 $18 $-1 $504 forward single #
loop $-1 $-1 $505 $340 #
plane-surface $-1 0 -19.017097172039897 0.31593153982259148 0 0 1 1 0 0 forward_v I I I I #
coedge $-1 $350 $506 $343 $425 forward $341 $-1 #
coedge $-1 $424 $343 $507 $508 reversed $248 $-1 #
coedge $-1 $343 $423 $426 $509 forward $248 $-1 #
edge $-1 $510 49.965062482837126 $511 58.187510650719688 $422 $512 forward 7 unknown #
coedge $-1 $428 $344 $424 $509 reversed $250 $-1 #
edge $-1 $511 -1.7215271318805687 $351 4.5406723427591498 $350 $513 forward 7 unknown #
coedge $-1 $345 $426 $431 $514 reversed $250 $-1 #
vertex $-1 $514 $515 #
straight-curve $-1 -25.890770613694912 -5.9502449481984403 49.902244313291689 -0.80901698891910034 0 0.5877852598018023 I I #
coedge $-1 $507 $347 $428 $514 forward $433 $-1 #
coedge $-1 $347 $516 $349 $436 forward $433 $-1 #
loop $-1 $-1 $507 $517 #
straight-curve $-1 11.678201546533629 -5.9502449481984403 8.8775187744120885 -1 0 0 I I #
coedge $-1 $518 $349 $519 $520 forward $341 $-1 #
edge $-1 $521 -22.77967827600969 $352 -5.9502449481984403 $349 $522 forward 7 unknown #
point $-1 41.892147587511829 -5.9502449481984403 0.65507060652952731 #
point $-1 41.892147587511829 -5.9502449481984403 8.8775187744120903 #
point $-1 35.253598105428971 -4.1610450983013791 3.4175297723924745 #
face $-1 $523 $524 $19 $-1 $525 reversed single #
loop $-1 $-1 $526 $356 #
plane-surface $-1 23.356403093067257 0.31195452644127819 117.68516251449843 0 -1 0 -0.5877852598018023 0 -0.80901698891910034 forward_v I I I I #
coedge $-1 $444 $358 $527 $528 forward $260 $-1 #
coedge $-1 $358 $443 $529 $530 reversed $260 $-1 #
coedge $-1 $531 $532 $358 $446 forward $524 $-1 #
edge $-1 $533 -58.187510650719688 $534 -49.965062482837126 $445 $535 forward 7 unknown #
edge $-1 $536 1 $536 0 $359 $-1 forward 7 unknown #
vertex $-1 $360 $537 #
ellipse-curve $-1 35.547490735329866 -4.1610450983013791 3.822038266852025 0.5877852598018023 0 0.80901698891910034 0.40450849445955017 0 -0.29389262990090115 1 I I #
point $-1 36.638041692281867 -4.1610450983013791 4.4724020605699026 #
point $-1 35.253598105428971 -1.4772453234557865 3.4175297723924745 #
coedge $-1 $538 $527 $532 $539 reversed $365 $-1 #
coedge $-1 $372 $461 $540 $541 reversed $306 $-1 #
coedge $-1 $540 $378 $375 $455 forward $370 $-1 #
edge $-1 $380 -41.892147587511829 $456 41.892147587511829 $375 $542 forward 7 unknown #
vertex $-1 $541 $543 #
coedge $-1 $378 $540 $468 $544 forward $370 $-1 #
vertex $-1 $379 $545 #
straight-curve $-1 41.892147587511829 0 -8.8775187744120903 0 -1 0 I I #
point $-1 41.892147587511829 -22.77967827600969 -8.8775187744120903 #
coedge $-1 $453 $381 $546 $547 forward $306 $-1 #
coedge $-1 $383 $390 $381 $463 forward $289 $-1 #
edge $-1 $548 -22.77967827600969 $385 22.77967827600969 $381 $549 forward 7 unknown #
face $-1 $-1 $470 $16 $-1 $550 reversed single #
plane-surface $-1 -41.892147587511829 0 0 1 0 0 0 0 -1 forward_v I I I I #
straight-curve $-1 0 -22.77967827600969 8.8775187744120903 1 0 0 I I #
point $-1 -41.892147587511829 -22.77967827600969 8.8775187744120903 #
coedge $-1 $546 $388 $457 $544 reversed $470 $-1 #
coedge $-1 $388 $546 $390 $472 reversed $470 $-1 #
loop $-1 $-1 $388 $464 #
straight-curve $-1 41.892147587511829 22.77967827600969 0 0 0 -1 I I #
edge $-1 $391 -41.892147587511829 $548 41.892147587511829 $469 $551 forward 7 unknown #
point $-1 41.892147587511829 22.77967827600969 8.8775187744120903 #
loop $-1 $-1 $552 $394 #
plane-surface $-1 0 -22.77967827600969 0 0 1 0 0 0 1 forward_v I I I I #
coedge $-1 $483 $553 $413 $500 reversed $395 $-1 #
coedge $-1 $554 $397 $553 $555 reversed $320 $-1 #
coedge $-1 $397 $554 $552 $556 reversed $320 $-1 #
coedge $-1 $557 $413 $397 $480 forward $140 $-1 #
edge $-1 $558 5.745967482050153 $559 13.271129689989742 $479 $560 forward 7 unknown #
coedge $-1 $399 $398 $561 $562 reversed $227 $-1 #
edge $-1 $563 -41.892147587511829 $416 41.892147587511829 $414 $564 forward 7 unknown #
coedge $-1 $565 $476 $399 $484 forward $395 $-1 #
edge $-1 $485 -41.892147587511829 $566 41.892147587511829 $483 $567 forward 7 unknown #
vertex $-1 $400 $568 #
straight-curve $-1 41.892147587511829 -9.5085485860199483 0.31593153982259148 0 1 0 I I #
coedge $-1 $401 $557 $569 $570 reversed $140 $-1 #
coedge $-1 $571 $572 $401 $489 forward $573 $-1 #
edge $-1 $491 -8.8775187744120903 $574 8.8775187744120903 $401 $575 forward 7 unknown #
coedge $-1 $408 $402 $572 $576 forward $241 $-1 #
vertex $-1 $403 $577 #
coedge $-1 $578 $579 $408 $493 reversed $580 $-1 #
edge $-1 $581 -22.77967827600969 $495 22.77967827600969 $492 $582 forward 7 unknown #
coedge $-1 $414 $409 $579 $583 forward $415 $-1 #
vertex $-1 $493 $584 #
straight-curve $-1 0 -22.77967827600969 8.8775187744120903 1 0 0 I I #
face $-1 $585 $415 $17 $-1 $475 reversed single #
loop $-1 $-1 $569 $411 #
plane-surface $-1 0 0 -8.8775187744120903 0 0 1 1 0 0 forward_v I I I I #
edge $-1 $485 -0.90796576991129596 $558 2.0920342300887049 $413 $586 forward 7 unknown #
point $-1 41.892147587511829 -22.77967827600969 0.31593153982259148 #
face $-1 $587 $588 $18 $-1 $589 forward single #
loop $-1 $-1 $590 $419 #
plane-surface $-1 0 -19.017097172039897 -2.6840684601774094 0 0 1 1 0 0 forward_v I I I I #
coedge $-1 $591 $592 $518 $593 reversed $420 $-1 #
coedge $-1 $422 $594 $595 $596 reversed $341 $-1 #
coedge $-1 $595 $431 $423 $508 forward $433 $-1 #
edge $-1 $597 18.896717261599186 $510 30.2139460409782 $507 $598 forward 7 unknown #
edge $-1 $597 69.795430992456147 $511 83.784295175023644 $424 $599 forward 7 unknown #
vertex $-1 $596 $600 #
vertex $-1 $427 $601 #
straight-curve $-1 41.892147587511829 0.31195452644127819 58.842581257249215 0 0 -1 I I #
straight-curve $-1 41.892147587511829 -1.4095726054392905 0.65507060652952021 0 -1 0 I I #
edge $-1 $429 -4.5406723427591498 $597 1.7215271318805687 $431 $602 forward 7 unknown #
point $-1 30.574918808132814 -5.9502449481984403 8.8775187744120885 #
coedge $-1 $432 $603 $604 $605 forward $433 $-1 #
face $-1 $606 $433 $18 $-1 $607 forward single #
coedge $-1 $608 $435 $505 $593 forward $341 $-1 #
coedge $-1 $604 $609 $435 $520 reversed $610 $-1 #
edge $-1 $521 -8.8775187744120903 $611 -0.31593153982259148 $435 $612 forward 7 unknown #
vertex $-1 $436 $613 #
straight-curve $-1 41.892147587511829 0 8.8775187744120903 0 1 0 I I #
face $-1 $614 $615 $19 $-1 $616 reversed single #
loop $-1 $-1 $617 $440 #
plane-surface $-1 41.892147587511829 0 0 -1 0 0 0 0 1 forward_v I I I I #
coedge $-1 $618 $619 $617 $620 reversed $441 $-1 #
coedge $-1 $452 $621 $443 $528 reversed $365 $-1 #
edge $-1 $533 -83.784295175023644 $622 -69.795430992456147 $443 $623 forward 7 unknown #
coedge $-1 $624 $625 $444 $530 forward $626 $-1 #
edge $-1 $534 -30.2139460409782 $622 -18.896717261599186 $529 $627 forward 7 unknown #
coedge $-1 $628 $445 $625 $629 reversed $524 $-1 #
coedge $-1 $445 $617 $452 $539 forward $524 $-1 #
vertex $-1 $539 $630 #
vertex $-1 $530 $631 #
straight-curve $-1 41.892147587511829 -5.9502449481984403 58.842581257249215 0 0 1 I I #
vertex $-1 $447 $632 #
point $-1 35.951999229789422 -4.1610450983013791 3.5281456369511237 #
coedge $-1 $621 $452 $619 $633 reversed $365 $-1 #
edge $-1 $634 -1.7215271318805687 $533 4.5406723427591498 $532 $635 forward 7 unknown #
coedge $-1 $457 $454 $453 $541 forward $370 $-1 #
edge $-1 $456 -22.77967827600969 $636 22.77967827600969 $453 $637 forward 7 unknown #
straight-curve $-1 0 -22.77967827600969 -8.8775187744120903 -1 0 0 I I #
point $-1 -41.892147587511829 -22.77967827600969 -8.8775187744120903 #
edge $-1 $636 -41.892147587511829 $458 41.892147587511829 $468 $638 forward 7 unknown #
point $-1 41.892147587511829 22.77967827600969 -8.8775187744120903 #
coedge $-1 $469 $468 $461 $547 reversed $470 $-1 #
edge $-1 $548 -8.8775187744120903 $636 8.8775187744120903 $546 $639 forward 7 unknown #
vertex $-1 $472 $640 #
straight-curve $-1 -41.892147587511829 0 8.8775187744120903 0 -1 0 I I #
plane-surface $-1 0 22.77967827600969 0 0 -1 0 0 0 -1 forward_v I I I I #
straight-curve $-1 0 22.77967827600969 8.8775187744120903 -1 0 0 I I #
coedge $-1 $641 $642 $478 $556 forward $474 $-1 #
coedge $-1 $476 $565 $477 $555 forward $395 $-1 #
coedge $-1 $478 $477 $643 $644 reversed $320 $-1 #
edge $-1 $645 -41.892147587511829 $558 41.892147587511829 $553 $646 forward 7 unknown #
edge $-1 $559 -41.892147587511829 $647 41.892147587511829 $552 $648 forward 7 unknown #
coedge $-1 $487 $479 $642 $649 forward $140 $-1 #
vertex $-1 $480 $650 #
vertex $-1 $649 $651 #
straight-curve $-1 41.892147587511829 -9.5085485860199483 -2.6840684601774094 0 -1 0 I I #
coedge $-1 $579 $652 $481 $562 forward $580 $-1 #
edge $-1 $566 5.745967482050153 $563 13.271129689989742 $561 $653 forward 7 unknown #
vertex $-1 $562 $654 #
straight-curve $-1 0 -22.77967827600969 0.31593153982259148 1 0 0 I I #
coedge $-1 $553 $483 $652 $655 reversed $395 $-1 #
vertex $-1 $562 $656 #
straight-curve $-1 0 -15.254516068070101 0.31593153982259148 -1 0 0 I I #
point $-1 41.892147587511829 -15.254516068070101 0.31593153982259148 #
coedge $-1 $657 $658 $487 $570 forward $498 $-1 #
edge $-1 $574 -22.77967827600969 $659 22.77967827600969 $487 $660 forward 7 unknown #
coedge $-1 $661 $488 $658 $662 reversed $573 $-1 #
coedge $-1 $488 $661 $490 $576 reversed $573 $-1 #
loop $-1 $-1 $488 $663 #
vertex $-1 $570 $664 #
straight-curve $-1 41.892147587511829 22.77967827600969 0 0 0 -1 I I #
edge $-1 $491 -41.892147587511829 $581 41.892147587511829 $572 $665 forward 7 unknown #
point $-1 41.892147587511829 22.77967827600969 8.8775187744120903 #
coedge $-1 $666 $492 $661 $667 forward $580 $-1 #
coedge $-1 $492 $561 $494 $583 reversed $580 $-1 #
loop $-1 $-1 $561 $585 #
vertex $-1 $576 $668 #
straight-curve $-1 -41.892147587511829 0 8.8775187744120903 0 -1 0 I I #
edge $-1 $495 -8.8775187744120903 $563 -0.31593153982259148 $579 $669 forward 7 unknown #
point $-1 -41.892147587511829 -22.77967827600969 8.8775187744120903 #
face $-1 $663 $580 $17 $-1 $670 reversed single #
straight-curve $-1 41.892147587511829 -15.254516068070101 -0.59203423008870448 0 0 -1 I I #
face $-1 $517 $671 $18 $-1 $672 reversed single #
loop $-1 $-1 $673 $502 #
plane-surface $-1 0 -15.254516068070101 -1.184068460177409 0 -1 0 0 0 -1 forward_v I I I I #
coedge $-1 $674 $675 $676 $677 reversed $503 $-1 #
coedge $-1 $678 $505 $609 $679 reversed $420 $-1 #
coedge $-1 $505 $678 $680 $681 reversed $420 $-1 #
edge $-1 $611 -13.271129689989742 $682 -5.745967482050153 $518 $683 forward 7 unknown #
coedge $-1 $506 $684 $685 $686 reversed $341 $-1 #
coedge $-1 $687 $507 $506 $596 forward $433 $-1 #
edge $-1 $510 0.31195452644127819 $688 22.77967827600969 $506 $522 forward 7 unknown #
vertex $-1 $514 $689 #
straight-curve $-1 11.678201546533629 0.31195452644127819 8.8775187744120885 1 0 0 I I #
straight-curve $-1 -25.890770613694912 0.31195452644127819 49.902244313291689 0.80901698891910034 0 -0.5877852598018023 I I #
point $-1 41.892147587511829 0.31195452644127819 8.8775187744120903 #
point $-1 41.892147587511829 0.31195452644127819 0.65507060652952731 #
straight-curve $-1 30.574918808132807 -1.4095726054392905 8.8775187744120885 0 1 0 I I #
coedge $-1 $516 $687 $690 $691 forward $433 $-1 #
coedge $-1 $692 $519 $516 $605 reversed $610 $-1 #
edge $-1 $693 -41.892147587511829 $521 41.892147587511829 $604 $694 forward 7 unknown #
face $-1 $695 $696 $18 $-1 $697 reversed single #
plane-surface $-1 0 0 8.8775187744120903 0 0 1 1 0 0 forward_v I I I I #
coedge $-1 $676 $518 $673 $698 forward $341 $-1 #
coedge $-1 $519 $692 $591 $679 forward $610 $-1 #
loop $-1 $-1 $609 $695 #
vertex $-1 $679 $699 #
straight-curve $-1 41.892147587511829 -22.77967827600969 0 0 0 -1 I I #
point $-1 41.892147587511829 -22.77967827600969 8.8775187744120903 #
face $-1 $700 $701 $19 $-1 $702 forward single #
loop $-1 $-1 $703 $523 #
plane-surface $-1 0 -19.017097172039897 0.31593153982259148 0 0 1 1 0 0 forward_v I I I I #
coedge $-1 $532 $704 $526 $620 forward $524 $-1 #
coedge $-1 $619 $526 $705 $706 reversed $441 $-1 #
coedge $-1 $526 $618 $538 $633 forward $441 $-1 #
edge $-1 $707 49.965062482837126 $634 58.187510650719688 $617 $708 forward 7 unknown #
coedge $-1 $527 $538 $624 $709 reversed $365 $-1 #
vertex $-1 $709 $710 #
straight-curve $-1 -25.890770613694912 -5.9502449481984403 49.902244313291689 -0.80901698891910034 0 0.5877852598018023 I I #
coedge $-1 $705 $529 $621 $709 forward $626 $-1 #
coedge $-1 $529 $711 $531 $629 forward $626 $-1 #
loop $-1 $-1 $705 $712 #
straight-curve $-1 11.678201546533629 -5.9502449481984403 8.8775187744120885 -1 0 0 I I #
coedge $-1 $713 $531 $714 $715 forward $524 $-1 #
edge $-1 $716 -22.77967827600969 $534 -5.9502449481984403 $531 $717 forward 7 unknown #
point $-1 41.892147587511829 -5.9502449481984403 0.65507060652952731 #
point $-1 41.892147587511829 -5.9502449481984403 8.8775187744120903 #
point $-1 35.253598105428971 -4.1610450983013791 3.4175297723924745 #
edge $-1 $718 69.795430992456147 $634 83.784295175023644 $619 $719 forward 7 unknown #
vertex $-1 $539 $720 #
straight-curve $-1 41.892147587511829 -1.4095726054392905 0.65507060652952021 0 -1 0 I I #
vertex $-1 $544 $721 #
straight-curve $-1 -41.892147587511829 0 -8.8775187744120903 0 1 0 I I #
straight-curve $-1 0 22.77967827600969 -8.8775187744120903 1 0 0 I I #
straight-curve $-1 -41.892147587511829 22.77967827600969 0 0 0 -1 I I #
point $-1 -41.892147587511829 22.77967827600969 8.8775187744120903 #
coedge $-1 $722 $552 $723 $724 forward $474 $-1 #
coedge $-1 $552 $722 $557 $649 reversed $474 $-1 #
coedge $-1 $652 $723 $554 $644 forward $580 $-1 #
edge $-1 $647 -13.271129689989742 $645 -5.745967482050153 $643 $725 forward 7 unknown #
vertex $-1 $644 $726 #
straight-curve $-1 0 -15.254516068070101 -2.6840684601774094 1 0 0 I I #
vertex $-1 $724 $727 #
straight-curve $-1 0 -22.77967827600969 -2.6840684601774094 -1 0 0 I I #
edge $-1 $559 2.6840684601774094 $659 8.8775187744120903 $557 $417 forward 7 unknown #
point $-1 41.892147587511829 -15.254516068070101 -2.6840684601774094 #
point $-1 41.892147587511829 -22.77967827600969 -2.6840684601774094 #
coedge $-1 $561 $643 $565 $655 forward $580 $-1 #
straight-curve $-1 -41.892147587511829 -9.5085485860199483 0.31593153982259148 0 -1 0 I I #
point $-1 -41.892147587511829 -22.77967827600969 0.31593153982259148 #
edge $-1 $645 -2.0920342300887049 $566 0.90796576991129596 $652 $728 forward 7 unknown #
point $-1 -41.892147587511829 -15.254516068070101 0.31593153982259148 #
coedge $-1 $729 $569 $722 $730 forward $498 $-1 #
coedge $-1 $569 $729 $571 $662 forward $498 $-1 #
vertex $-1 $649 $731 #
straight-curve $-1 41.892147587511829 0 -8.8775187744120903 0 -1 0 I I #
coedge $-1 $572 $571 $578 $667 reversed $573 $-1 #
edge $-1 $732 -41.892147587511829 $574 41.892147587511829 $571 $733 forward 7 unknown #
face $-1 $-1 $573 $17 $-1 $734 reversed single #
point $-1 41.892147587511829 22.77967827600969 -8.8775187744120903 #
straight-curve $-1 0 22.77967827600969 8.8775187744120903 -1 0 0 I I #
coedge $-1 $723 $578 $729 $735 reversed $580 $-1 #
edge $-1 $581 -8.8775187744120903 $732 8.8775187744120903 $661 $736 forward 7 unknown #
point $-1 -41.892147587511829 22.77967827600969 8.8775187744120903 #
straight-curve $-1 -41.892147587511829 -22.77967827600969 0 0 0 -1 I I #
plane-surface $-1 -41.892147587511829 0 0 1 0 0 0 0 -1 forward_v I I I I #
loop $-1 $-1 $737 $587 #
plane-surface $-1 0 -22.77967827600969 0 0 1 0 0 0 1 forward_v I I I I #
coedge $-1 $680 $738 $608 $698 reversed $588 $-1 #
coedge $-1 $739 $590 $738 $740 reversed $503 $-1 #
coedge $-1 $590 $739 $737 $741 reversed $503 $-1 #
coedge $-1 $742 $608 $590 $677 forward $341 $-1 #
edge $-1 $743 5.745967482050153 $744 13.271129689989742 $676 $745 forward 7 unknown #
coedge $-1 $592 $591 $746 $747 reversed $420 $-1 #
edge $-1 $748 -41.892147587511829 $611 41.892147587511829 $609 $749 forward 7 unknown #
coedge $-1 $750 $673 $592 $681 forward $588 $-1 #
edge $-1 $682 -41.892147587511829 $751 41.892147587511829 $680 $752 forward 7 unknown #
vertex $-1 $593 $753 #
straight-curve $-1 41.892147587511829 -9.5085485860199483 0.31593153982259148 0 1 0 I I #
coedge $-1 $594 $742 $754 $755 reversed $341 $-1 #
coedge $-1 $756 $757 $594 $686 forward $758 $-1 #
edge $-1 $688 -8.8775187744120903 $759 8.8775187744120903 $594 $760 forward 7 unknown #
coedge $-1 $603 $595 $757 $761 forward $433 $-1 #
vertex $-1 $596 $762 #
point $-1 30.574918808132814 0.31195452644127819 8.8775187744120885 #
coedge $-1 $763 $764 $603 $691 reversed $765 $-1 #
edge $-1 $766 -22.77967827600969 $693 22.77967827600969 $690 $767 forward 7 unknown #
coedge $-1 $609 $604 $764 $768 forward $610 $-1 #
vertex $-1 $691 $769 #
straight-curve $-1 0 -22.77967827600969 8.8775187744120903 1 0 0 I I #
face $-1 $770 $610 $18 $-1 $672 reversed single #
loop $-1 $-1 $754 $606 #
plane-surface $-1 0 0 -8.8775187744120903 0 0 1 1 0 0 forward_v I I I I #
edge $-1 $682 -0.90796576991129596 $743 2.0920342300887049 $608 $771 forward 7 unknown #
point $-1 41.892147587511829 -22.77967827600969 0.31593153982259148 #
face $-1 $772 $773 $19 $-1 $774 forward single #
loop $-1 $-1 $775 $614 #
plane-surface $-1 0 -19.017097172039897 -2.6840684601774094 0 0 1 1 0 0 forward_v I I I I #
coedge $-1 $776 $777 $713 $778 reversed $615 $-1 #
coedge $-1 $617 $779 $780 $781 reversed $524 $-1 #
coedge $-1 $780 $624 $618 $706 forward $626 $-1 #
edge $-1 $718 18.896717261599186 $707 30.2139460409782 $705 $782 forward 7 unknown #
vertex $-1 $781 $783 #
straight-curve $-1 41.892147587511829 0.31195452644127819 58.842581257249215 0 0 -1 I I #
edge $-1 $622 -4.5406723427591498 $718 1.7215271318805687 $624 $784 forward 7 unknown #
point $-1 30.574918808132814 -5.9502449481984403 8.8775187744120885 #
coedge $-1 $625 $785 $786 $787 forward $626 $-1 #
face $-1 $788 $626 $19 $-1 $789 forward single #
coedge $-1 $790 $628 $703 $778 forward $524 $-1 #
coedge $-1 $786 $791 $628 $715 reversed $792 $-1 #
edge $-1 $716 -8.8775187744120903 $793 -0.31593153982259148 $628 $794 forward 7 unknown #
vertex $-1 $629 $795 #
straight-curve $-1 41.892147587511829 0 8.8775187744120903 0 1 0 I I #
vertex $-1 $709 $796 #
straight-curve $-1 -25.890770613694912 0.31195452644127819 49.902244313291689 0.80901698891910034 0 -0.5877852598018023 I I #
point $-1 41.892147587511829 0.31195452644127819 0.65507060652952731 #
point $-1 -41.892147587511829 22.77967827600969 -8.8775187744120903 #
coedge $-1 $642 $641 $657 $730 reversed $474 $-1 #
coedge $-1 $643 $666 $641 $724 reversed $580 $-1 #
edge $-1 $647 2.6840684601774094 $797 8.8775187744120903 $723 $669 forward 7 unknown #
straight-curve $-1 -41.892147587511829 -9.5085485860199483 -2.6840684601774094 0 1 0 I I #
point $-1 -41.892147587511829 -15.254516068070101 -2.6840684601774094 #
point $-1 -41.892147587511829 -22.77967827600969 -2.6840684601774094 #
straight-curve $-1 -41.892147587511829 -15.254516068070101 -0.59203423008870448 0 0 1 I I #
coedge $-1 $658 $657 $666 $735 forward $498 $-1 #
edge $-1 $659 -41.892147587511829 $797 41.892147587511829 $722 $798 forward 7 unknown #
point $-1 41.892147587511829 -22.77967827600969 -8.8775187744120903 #
vertex $-1 $662 $799 #
straight-curve $-1 0 22.77967827600969 -8.8775187744120903 1 0 0 I I #
plane-surface $-1 0 22.77967827600969 0 0 -1 0 0 0 -1 forward_v I I I I #
edge $-1 $797 -22.77967827600969 $732 22.77967827600969 $666 $800 forward 7 unknown #
straight-curve $-1 -41.892147587511829 22.77967827600969 0 0 0 -1 I I #
coedge $-1 $801 $802 $675 $741 forward $671 $-1 #
coedge $-1 $673 $750 $674 $740 forward $588 $-1 #
coedge $-1 $675 $674 $803 $804 reversed $503 $-1 #
edge $-1 $805 -41.892147587511829 $743 41.892147587511829 $738 $806 forward 7 unknown #
edge $-1 $744 -41.892147587511829 $807 41.892147587511829 $737 $808 forward 7 unknown #
coedge $-1 $684 $676 $802 $809 forward $341 $-1 #
vertex $-1 $677 $810 #
vertex $-1 $809 $811 #
straight-curve $-1 41.892147587511829 -9.5085485860199483 -2.6840684601774094 0 -1 0 I I #
coedge $-1 $764 $812 $678 $747 forward $765 $-1 #
edge $-1 $751 5.745967482050153 $748 13.271129689989742 $746 $813 forward 7 unknown #
vertex $-1 $747 $814 #
straight-curve $-1 0 -22.77967827600969 0.31593153982259148 1 0 0 I I #
coedge $-1 $738 $680 $812 $815 reversed $588 $-1 #
vertex $-1 $747 $816 #
straight-curve $-1 0 -15.254516068070101 0.31593153982259148 -1 0 0 I I #
point $-1 41.892147587511829 -15.254516068070101 0.31593153982259148 #
coedge $-1 $817 $818 $684 $755 forward $696 $-1 #
edge $-1 $759 -22.77967827600969 $819 22.77967827600969 $684 $820 forward 7 unknown #
coedge $-1 $821 $685 $818 $822 reversed $758 $-1 #
coedge $-1 $685 $821 $687 $761 reversed $758 $-1 #
loop $-1 $-1 $685 $823 #
vertex $-1 $755 $824 #
straight-curve $-1 41.892147587511829 22.77967827600969 0 0 0 -1 I I #
edge $-1 $688 -41.892147587511829 $766 41.892147587511829 $757 $825 forward 7 unknown #
point $-1 41.892147587511829 22.77967827600969 8.8775187744120903 #
coedge $-1 $826 $690 $821 $827 forward $765 $-1 #
coedge $-1 $690 $746 $692 $768 reversed $765 $-1 #
loop $-1 $-1 $746 $770 #
vertex $-1 $761 $828 #
straight-curve $-1 -41.892147587511829 0 8.8775187744120903 0 -1 0 I I #
edge $-1 $693 -8.8775187744120903 $748 -0.31593153982259148 $764 $829 forward 7 unknown #
point $-1 -41.892147587511829 -22.77967827600969 8.8775187744120903 #
face $-1 $823 $765 $18 $-1 $830 reversed single #
straight-curve $-1 41.892147587511829 -15.254516068070101 -0.59203423008870448 0 0 -1 I I #
face $-1 $712 $831 $19 $-1 $832 reversed single #
loop $-1 $-1 $833 $700 #
plane-surface $-1 0 -15.254516068070101 -1.184068460177409 0 -1 0 0 0 -1 forward_v I I I I #
coedge $-1 $834 $835 $836 $837 reversed $701 $-1 #
coedge $-1 $838 $703 $791 $839 reversed $615 $-1 #
coedge $-1 $703 $838 $840 $841 reversed $615 $-1 #
edge $-1 $793 -13.271129689989742 $842 -5.745967482050153 $713 $843 forward 7 unknown #
coedge $-1 $704 $844 $845 $846 reversed $524 $-1 #
coedge $-1 $847 $705 $704 $781 forward $626 $-1 #
edge $-1 $707 0.31195452644127819 $848 22.77967827600969 $704 $717 forward 7 unknown #
straight-curve $-1 11.678201546533629 0.31195452644127819 8.8775187744120885 1 0 0 I I #
point $-1 41.892147587511829 0.31195452644127819 8.8775187744120903 #
straight-curve $-1 30.574918808132807 -1.4095726054392905 8.8775187744120885 0 1 0 I I #
coedge $-1 $711 $847 $849 $850 forward $626 $-1 #
coedge $-1 $851 $714 $711 $787 reversed $792 $-1 #
edge $-1 $852 -41.892147587511829 $716 41.892147587511829 $786 $853 forward 7 unknown #
face $-1 $854 $855 $19 $-1 $856 reversed single #
plane-surface $-1 0 0 8.8775187744120903 0 0 1 1 0 0 forward_v I I I I #
coedge $-1 $836 $713 $833 $857 forward $524 $-1 #
coedge $-1 $714 $851 $776 $839 forward $792 $-1 #
loop $-1 $-1 $791 $854 #
vertex $-1 $839 $858 #
straight-curve $-1 41.892147587511829 -22.77967827600969 0 0 0 -1 I I #
point $-1 41.892147587511829 -22.77967827600969 8.8775187744120903 #
point $-1 30.574918808132814 0.31195452644127819 8.8775187744120885 #
vertex $-1 $735 $859 #
straight-curve $-1 0 -22.77967827600969 -8.8775187744120903 -1 0 0 I I #
point $-1 -41.892147587511829 22.77967827600969 -8.8775187744120903 #
straight-curve $-1 -41.892147587511829 0 -8.8775187744120903 0 1 0 I I #
coedge $-1 $860 $737 $861 $862 forward $671 $-1 #
coedge $-1 $737 $860 $742 $809 reversed $671 $-1 #
coedge $-1 $812 $861 $739 $804 forward $765 $-1 #
edge $-1 $807 -13.271129689989742 $805 -5.745967482050153 $803 $863 forward 7 unknown #
vertex $-1 $804 $864 #
straight-curve $-1 0 -15.254516068070101 -2.6840684601774094 1 0 0 I I #
vertex $-1 $862 $865 #
straight-curve $-1 0 -22.77967827600969 -2.6840684601774094 -1 0 0 I I #
edge $-1 $744 2.6840684601774094 $819 8.8775187744120903 $742 $612 forward 7 unknown #
point $-1 41.892147587511829 -15.254516068070101 -2.6840684601774094 #
point $-1 41.892147587511829 -22.77967827600969 -2.6840684601774094 #
coedge $-1 $746 $803 $750 $815 forward $765 $-1 #
straight-curve $-1 -41.892147587511829 -9.5085485860199483 0.31593153982259148 0 -1 0 I I #
point $-1 -41.892147587511829 -22.77967827600969 0.31593153982259148 #
edge $-1 $805 -2.0920342300887049 $751 0.90796576991129596 $812 $866 forward 7 unknown #
point $-1 -41.892147587511829 -15.254516068070101 0.31593153982259148 #
coedge $-1 $867 $754 $860 $868 forward $696 $-1 #
coedge $-1 $754 $867 $756 $822 forward $696 $-1 #
vertex $-1 $809 $869 #
straight-curve $-1 41.892147587511829 0 -8.8775187744120903 0 -1 0 I I #
coedge $-1 $757 $756 $763 $827 reversed $758 $-1 #
edge $-1 $870 -41.892147587511829 $759 41.892147587511829 $756 $871 forward 7 unknown #
face $-1 $-1 $758 $18 $-1 $872 reversed single #
point $-1 41.892147587511829 22.77967827600969 -8.8775187744120903 #
straight-curve $-1 0 22.77967827600969 8.8775187744120903 -1 0 0 I I #
coedge $-1 $861 $763 $867 $873 reversed $765 $-1 #
edge $-1 $766 -8.8775187744120903 $870 8.8775187744120903 $821 $874 forward 7 unknown #
point $-1 -41.892147587511829 22.77967827600969 8.8775187744120903 #
straight-curve $-1 -41.892147587511829 -22.77967827600969 0 0 0 -1 I I #
plane-surface $-1 -41.892147587511829 0 0 1 0 0 0 0 -1 forward_v I I I I #
loop $-1 $-1 $875 $772 #
plane-surface $-1 0 -22.77967827600969 0 0 1 0 0 0 1 forward_v I I I I #
coedge $-1 $840 $876 $790 $857 reversed $773 $-1 #
coedge $-1 $877 $775 $876 $878 reversed $701 $-1 #
coedge $-1 $775 $877 $875 $879 reversed $701 $-1 #
coedge $-1 $880 $790 $775 $837 forward $524 $-1 #
edge $-1 $881 5.745967482050153 $882 13.271129689989742 $836 $883 forward 7 unknown #
coedge $-1 $777 $776 $884 $885 reversed $615 $-1 #
edge $-1 $886 -41.892147587511829 $793 41.892147587511829 $791 $887 forward 7 unknown #
coedge $-1 $888 $833 $777 $841 forward $773 $-1 #
edge $-1 $842 -41.892147587511829 $889 41.892147587511829 $840 $890 forward 7 unknown #
vertex $-1 $778 $891 #
straight-curve $-1 41.892147587511829 -9.5085485860199483 0.31593153982259148 0 1 0 I I #
coedge $-1 $779 $880 $892 $893 reversed $524 $-1 #
coedge $-1 $894 $895 $779 $846 forward $896 $-1 #
edge $-1 $848 -8.8775187744120903 $897 8.8775187744120903 $779 $898 forward 7 unknown #
coedge $-1 $785 $780 $895 $899 forward $626 $-1 #
vertex $-1 $781 $900 #
coedge $-1 $901 $902 $785 $850 reversed $903 $-1 #
edge $-1 $904 -22.77967827600969 $852 22.77967827600969 $849 $905 forward 7 unknown #
coedge $-1 $791 $786 $902 $906 forward $792 $-1 #
vertex $-1 $850 $907 #
straight-curve $-1 0 -22.77967827600969 8.8775187744120903 1 0 0 I I #
face $-1 $908 $792 $19 $-1 $832 reversed single #
loop $-1 $-1 $892 $788 #
plane-surface $-1 0 0 -8.8775187744120903 0 0 1 1 0 0 forward_v I I I I #
edge $-1 $842 -0.90796576991129596 $881 2.0920342300887049 $790 $909 forward 7 unknown #
point $-1 41.892147587511829 -22.77967827600969 0.31593153982259148 #
point $-1 -41.892147587511829 -22.77967827600969 -8.8775187744120903 #
coedge $-1 $802 $801 $817 $868 reversed $671 $-1 #
coedge $-1 $803 $826 $801 $862 reversed $765 $-1 #
edge $-1 $807 2.6840684601774094 $910 8.8775187744120903 $861 $829 forward 7 unknown #
straight-curve $-1 -41.892147587511829 -9.5085485860199483 -2.6840684601774094 0 1 0 I I #
point $-1 -41.892147587511829 -15.254516068070101 -2.6840684601774094 #
point $-1 -41.892147587511829 -22.77967827600969 -2.6840684601774094 #
straight-curve $-1 -41.892147587511829 -15.254516068070101 -0.59203423008870448 0 0 1 I I #
coedge $-1 $818 $817 $826 $873 forward $696 $-1 #
edge $-1 $819 -41.892147587511829 $910 41.892147587511829 $860 $911 forward 7 unknown #
point $-1 41.892147587511829 -22.77967827600969 -8.8775187744120903 #
vertex $-1 $822 $912 #
straight-curve $-1 0 22.77967827600969 -8.8775187744120903 1 0 0 I I #
plane-surface $-1 0 22.77967827600969 0 0 -1 0 0 0 -1 forward_v I I I I #
edge $-1 $910 -22.77967827600969 $870 22.77967827600969 $826 $913 forward 7 unknown #
straight-curve $-1 -41.892147587511829 22.77967827600969 0 0 0 -1 I I #
coedge $-1 $914 $915 $835 $879 forward $831 $-1 #
coedge $-1 $833 $888 $834 $878 forward $773 $-1 #
coedge $-1 $835 $834 $916 $917 reversed $701 $-1 #
edge $-1 $918 -41.892147587511829 $881 41.892147587511829 $876 $919 forward 7 unknown #
edge $-1 $882 -41.892147587511829 $920 41.892147587511829 $875 $921 forward 7 unknown #
coedge $-1 $844 $836 $915 $922 forward $524 $-1 #
vertex $-1 $837 $923 #
vertex $-1 $922 $924 #
straight-curve $-1 41.892147587511829 -9.5085485860199483 -2.6840684601774094 0 -1 0 I I #
coedge $-1 $902 $925 $838 $885 forward $903 $-1 #
edge $-1 $889 5.745967482050153 $886 13.271129689989742 $884 $926 forward 7 unknown #
vertex $-1 $885 $927 #
straight-curve $-1 0 -22.77967827600969 0.31593153982259148 1 0 0 I I #
coedge $-1 $876 $840 $925 $928 reversed $773 $-1 #
vertex $-1 $885 $929 #
straight-curve $-1 0 -15.254516068070101 0.31593153982259148 -1 0 0 I I #
point $-1 41.892147587511829 -15.254516068070101 0.31593153982259148 #
coedge $-1 $930 $931 $844 $893 forward $855 $-1 #
edge $-1 $897 -22.77967827600969 $932 22.77967827600969 $844 $933 forward 7 unknown #
coedge $-1 $934 $845 $931 $935 reversed $896 $-1 #
coedge $-1 $845 $934 $847 $899 reversed $896 $-1 #
loop $-1 $-1 $845 $936 #
vertex $-1 $893 $937 #
straight-curve $-1 41.892147587511829 22.77967827600969 0 0 0 -1 I I #
edge $-1 $848 -41.892147587511829 $904 41.892147587511829 $895 $938 forward 7 unknown #
point $-1 41.892147587511829 22.77967827600969 8.8775187744120903 #
coedge $-1 $939 $849 $934 $940 forward $903 $-1 #
coedge $-1 $849 $884 $851 $906 reversed $903 $-1 #
loop $-1 $-1 $884 $908 #
vertex $-1 $899 $941 #
straight-curve $-1 -41.892147587511829 0 8.8775187744120903 0 -1 0 I I #
edge $-1 $852 -8.8775187744120903 $886 -0.31593153982259148 $902 $942 forward 7 unknown #
point $-1 -41.892147587511829 -22.77967827600969 8.8775187744120903 #
face $-1 $936 $903 $19 $-1 $943 reversed single #
straight-curve $-1 41.892147587511829 -15.254516068070101 -0.59203423008870448 0 0 -1 I I #
vertex $-1 $873 $944 #
straight-curve $-1 0 -22.77967827600969 -8.8775187744120903 -1 0 0 I I #
point $-1 -41.892147587511829 22.77967827600969 -8.8775187744120903 #
straight-curve $-1 -41.892147587511829 0 -8.8775187744120903 0 1 0 I I #
coedge $-1 $945 $875 $946 $947 forward $831 $-1 #
coedge $-1 $875 $945 $880 $922 reversed $831 $-1 #
coedge $-1 $925 $946 $877 $917 forward $903 $-1 #
edge $-1 $920 -13.271129689989742 $918 -5.745967482050153 $916 $948 forward 7 unknown #
vertex $-1 $917 $949 #
straight-curve $-1 0 -15.254516068070101 -2.6840684601774094 1 0 0 I I #
vertex $-1 $947 $950 #
straight-curve $-1 0 -22.77967827600969 -2.6840684601774094 -1 0 0 I I #
edge $-1 $882 2.6840684601774094 $932 8.8775187744120903 $880 $794 forward 7 unknown #
point $-1 41.892147587511829 -15.254516068070101 -2.6840684601774094 #
point $-1 41.892147587511829 -22.77967827600969 -2.6840684601774094 #
coedge $-1 $884 $916 $888 $928 forward $903 $-1 #
straight-curve $-1 -41.892147587511829 -9.5085485860199483 0.31593153982259148 0 -1 0 I I #
point $-1 -41.892147587511829 -22.77967827600969 0.31593153982259148 #
edge $-1 $918 -2.0920342300887049 $889 0.90796576991129596 $925 $951 forward 7 unknown #
point $-1 -41.892147587511829 -15.254516068070101 0.31593153982259148 #
coedge $-1 $952 $892 $945 $953 forward $855 $-1 #
coedge $-1 $892 $952 $894 $935 forward $855 $-1 #
vertex $-1 $922 $954 #
straight-curve $-1 41.892147587511829 0 -8.8775187744120903 0 -1 0 I I #
coedge $-1 $895 $894 $901 $940 reversed $896 $-1 #
edge $-1 $955 -41.892147587511829 $897 41.892147587511829 $894 $956 forward 7 unknown #
face $-1 $-1 $896 $19 $-1 $957 reversed single #
point $-1 41.892147587511829 22.77967827600969 -8.8775187744120903 #
straight-curve $-1 0 22.77967827600969 8.8775187744120903 -1 0 0 I I #
coedge $-1 $946 $901 $952 $958 reversed $903 $-1 #
edge $-1 $904 -8.8775187744120903 $955 8.8775187744120903 $934 $959 forward 7 unknown #
point $-1 -41.892147587511829 22.77967827600969 8.8775187744120903 #
straight-curve $-1 -41.892147587511829 -22.77967827600969 0 0 0 -1 I I #
plane-surface $-1 -41.892147587511829 0 0 1 0 0 0 0 -1 forward_v I I I I #
point $-1 -41.892147587511829 -22.77967827600969 -8.8775187744120903 #
coedge $-1 $915 $914 $930 $953 reversed $831 $-1 #
coedge $-1 $916 $939 $914 $947 reversed $903 $-1 #
edge $-1 $920 2.6840684601774094 $960 8.8775187744120903 $946 $942 forward 7 unknown #
straight-curve $-1 -41.892147587511829 -9.5085485860199483 -2.6840684601774094 0 1 0 I I #
point $-1 -41.892147587511829 -15.254516068070101 -2.6840684601774094 #
point $-1 -41.892147587511829 -22.77967827600969 -2.6840684601774094 #
straight-curve $-1 -41.892147587511829 -15.254516068070101 -0.59203423008870448 0 0 1 I I #
coedge $-1 $931 $930 $939 $958 forward $855 $-1 #
edge $-1 $932 -41.892147587511829 $960 41.892147587511829 $945 $961 forward 7 unknown #
point $-1 41.892147587511829 -22.77967827600969 -8.8775187744120903 #
vertex $-1 $935 $962 #
straight-curve $-1 0 22.77967827600969 -8.8775187744120903 1 0 0 I I #
plane-surface $-1 0 22.77967827600969 0 0 -1 0 0 0 -1 forward_v I I I I #
edge $-1 $960 -22.77967827600969 $955 22.77967827600969 $939 $963 forward 7 unknown #
straight-curve $-1 -41.892147587511829 22.77967827600969 0 0 0 -1 I I #
vertex $-1 $958 $964 #
straight-curve $-1 0 -22.77967827600969 -8.8775187744120903 -1 0 0 I I #
point $-1 -41.892147587511829 22.77967827600969 -8.8775187744120903 #
straight-curve $-1 -41.892147587511829 0 -8.8775187744120903 0 1 0 I I #
point $-1 -41.892147587511829 -22.77967827600969 -8.8775187744120903 #
End-of-ACIS-data 