500 0 5 0           
7 Unknown 11 ACIS 5.0 NT 24 Fri Mar 26 19:09:51 1999 
-1 9.9999999999999995e-007 1e-010 
body $-1 $5 $-1 $6 #
body $-1 $7 $-1 $8 #
body $-1 $9 $-1 $10 #
body $-1 $11 $-1 $12 #
body $-1 $13 $-1 $14 #
lump $-1 $-1 $15 $0 #
transform $-1 1 0 0 0 1 0 0 0 1 49.877010406811735 24.409093776681143 9.198087292609884 1 rotate no_reflect no_shear #
lump $-1 $-1 $16 $1 #
transform $-1 1 0 0 0 1 0 0 0 1 49.877010406811735 24.409093776681143 9.198087292609884 1 rotate no_reflect no_shear #
lump $-1 $-1 $17 $2 #
transform $-1 1 0 0 0 1 0 0 0 1 49.877010406811735 24.409093776681143 9.198087292609884 1 rotate no_reflect no_shear #
lump $-1 $-1 $18 $3 #
transform $-1 1 0 0 0 1 0 0 0 1 49.877010406811735 24.409093776681143 9.198087292609884 1 rotate no_reflect no_shear #
lump $-1 $-1 $19 $4 #
transform $-1 1 0 0 0 1 0 0 0 1 49.877010406811735 24.409093776681143 9.198087292609884 1 rotate no_reflect no_shear #
shell $-1 $-1 $-1 $20 $-1 $5 #
shell $-1 $-1 $-1 $21 $-1 $7 #
shell $-1 $-1 $-1 $22 $-1 $9 #
shell $-1 $-1 $-1 $23 $-1 $11 #
shell $-1 $-1 $-1 $24 $-1 $13 #
face $-1 $25 $26 $15 $-1 $27 forward single #
face $-1 $28 $29 $16 $-1 $30 forward single #
face $-1 $31 $32 $17 $-1 $33 reversed single #
face $-1 $34 $35 $18 $-1 $36 forward single #
face $-1 $37 $38 $19 $-1 $39 forward single #
face $-1 $40 $41 $15 $-1 $42 reversed single #
loop $-1 $-1 $43 $20 #
plane-surface $-1 0 0 9.198087292609884 0 0 1 1 0 0 forward_v I I I I #
face $-1 $44 $45 $16 $-1 $46 reversed single #
loop $-1 $-1 $47 $21 #
plane-surface $-1 0 -24.409093776681143 0 0 1 0 0 0 1 forward_v I I I I #
face $-1 $48 $49 $17 $-1 $50 reversed single #
loop $-1 $-1 $51 $22 #
plane-surface $-1 30.24337679324212 -7.2905585407405589 140.23872174204257 0 -1 0 -0.6018150307709319 0 -0.79863550430605224 forward_v I I I I #
face $-1 $52 $53 $18 $-1 $54 forward single #
loop $-1 $55 $56 $23 #
cone-surface $-1 43.428144777799346 -14.852856213936517 3.9354672518750071 -0.6018150307709319 0 -0.79863550430605224 0.79863550430605224 0 -0.6018150307709319 1 I I 0 1 1 forward I I I I #
face $-1 $57 $58 $19 $-1 $59 forward single #
loop $-1 $60 $61 $24 #
cone-surface $-1 43.428144777799346 -10.315477610018942 3.9354672518750071 -0.6018150307709319 0 -0.79863550430605224 0.79863550430605224 0 -0.6018150307709319 1 I I 0 1 1 forward I I I I #
face $-1 $62 $63 $15 $-1 $64 reversed single #
loop $-1 $-1 $65 $25 #
plane-surface $-1 0 0 -9.198087292609884 0 0 1 1 0 0 forward_v I I I I #
coedge $-1 $66 $67 $68 $69 forward $26 $-1 #
face $-1 $70 $71 $16 $-1 $72 reversed single #
loop $-1 $-1 $73 $28 #
plane-surface $-1 0 0 -9.198087292609884 0 0 1 1 0 0 forward_v I I I I #
coedge $-1 $74 $75 $76 $77 forward $29 $-1 #
face $-1 $78 $79 $17 $-1 $80 reversed single #
loop $-1 $-1 $81 $31 #
plane-surface $-1 -29.790092312232872 -12.58416691197773 60.571619022997965 0.6018150307709319 0 0.79863550430605224 0.79863550430605224 0 -0.6018150307709319 forward_v I I I I #
coedge $-1 $82 $83 $84 $85 reversed $32 $-1 #
face $-1 $-1 $86 $18 $-1 $87 forward single #
loop $-1 $88 $89 $34 #
cone-surface $-1 42.424434043932933 -14.852856213936517 2.603498146530562 -0.6018150307709319 0 -0.79863550430605224 0.39931775215302612 0 -0.30090751538546595 1 I I -0.70710678118654746 0.70710678118654746 0.5 forward I I I I #
loop $-1 $-1 $90 $23 #
coedge $-1 $56 $56 $91 $92 reversed $35 $-1 #
face $-1 $-1 $93 $19 $-1 $94 forward single #
loop $-1 $95 $96 $37 #
cone-surface $-1 42.424434043932933 -10.315477610018942 2.603498146530562 -0.6018150307709319 0 -0.79863550430605224 0.39931775215302612 0 -0.30090751538546595 1 I I -0.70710678118654746 0.70710678118654746 0.5 forward I I I I #
loop $-1 $-1 $97 $24 #
coedge $-1 $61 $61 $98 $99 reversed $38 $-1 #
face $-1 $100 $101 $15 $-1 $102 reversed single #
loop $-1 $-1 $103 $40 #
plane-surface $-1 0 -24.409093776681143 0 0 1 0 0 0 1 forward_v I I I I #
coedge $-1 $104 $105 $106 $107 forward $41 $-1 #
coedge $-1 $108 $43 $109 $110 forward $26 $-1 #
coedge $-1 $43 $108 $111 $112 forward $26 $-1 #
coedge $-1 $113 $114 $43 $69 reversed $115 $-1 #
edge $-1 $116 -24.409093776681143 $117 24.409093776681143 $68 $118 forward 7 unknown #
face $-1 $119 $120 $16 $-1 $121 forward single #
loop $-1 $-1 $122 $44 #
plane-surface $-1 49.877010406811735 0 0 -1 0 0 0 0 1 forward_v I I I I #
coedge $-1 $123 $124 $125 $126 forward $45 $-1 #
coedge $-1 $125 $47 $122 $127 reversed $29 $-1 #
coedge $-1 $47 $125 $128 $129 reversed $29 $-1 #
coedge $-1 $130 $131 $47 $77 reversed $120 $-1 #
edge $-1 $132 -49.877010406811735 $133 49.877010406811735 $76 $134 forward 7 unknown #
face $-1 $135 $136 $17 $-1 $137 reversed single #
loop $-1 $-1 $138 $48 #
plane-surface $-1 30.24337679324212 -17.877775283214902 140.23872174204257 0 1 0 0.6018150307709319 0 0.79863550430605224 forward_v I I I I #
coedge $-1 $139 $140 $141 $142 reversed $49 $-1 #
coedge $-1 $83 $51 $143 $144 reversed $32 $-1 #
coedge $-1 $51 $82 $139 $145 reversed $32 $-1 #
coedge $-1 $141 $146 $51 $85 forward $147 $-1 #
edge $-1 $148 -34.755322010190675 $149 -23.263197189127773 $84 $150 forward 7 unknown #
loop $-1 $-1 $91 $52 #
plane-surface $-1 -29.790092312232872 -12.58416691197773 60.571619022997965 0.6018150307709319 0 0.79863550430605224 0.79863550430605224 0 -0.6018150307709319 forward_v I I I I #
loop $-1 $-1 $151 $34 #
coedge $-1 $89 $89 $90 $152 reversed $53 $-1 #
coedge $-1 $90 $90 $89 $152 forward $55 $-1 #
coedge $-1 $91 $91 $56 $92 forward $86 $-1 #
edge $-1 $153 0 $153 6.2831853071796004 $91 $154 forward 7 unknown #
loop $-1 $-1 $98 $57 #
plane-surface $-1 -29.790092312232872 -12.58416691197773 60.571619022997965 0.6018150307709319 0 0.79863550430605224 0.79863550430605224 0 -0.6018150307709319 forward_v I I I I #
loop $-1 $-1 $155 $37 #
coedge $-1 $96 $96 $97 $156 reversed $58 $-1 #
coedge $-1 $97 $97 $96 $156 forward $60 $-1 #
coedge $-1 $98 $98 $61 $99 forward $93 $-1 #
edge $-1 $157 0 $157 6.2831853071796004 $98 $158 forward 7 unknown #
face $-1 $159 $160 $15 $-1 $161 reversed single #
loop $-1 $-1 $162 $62 #
plane-surface $-1 -49.877010406811735 0 0 1 0 0 0 0 -1 forward_v I I I I #
coedge $-1 $111 $163 $113 $164 reversed $63 $-1 #
coedge $-1 $165 $65 $163 $166 forward $41 $-1 #
coedge $-1 $65 $165 $167 $168 forward $41 $-1 #
coedge $-1 $114 $113 $65 $107 reversed $115 $-1 #
edge $-1 $169 -24.409093776681143 $170 24.409093776681143 $106 $171 forward 7 unknown #
coedge $-1 $67 $66 $172 $173 forward $26 $-1 #
coedge $-1 $174 $175 $66 $110 reversed $160 $-1 #
edge $-1 $117 -49.877010406811735 $176 49.877010406811735 $109 $177 forward 7 unknown #
coedge $-1 $178 $103 $67 $112 reversed $63 $-1 #
edge $-1 $179 -49.877010406811735 $116 49.877010406811735 $111 $180 forward 7 unknown #
coedge $-1 $106 $68 $103 $164 forward $115 $-1 #
coedge $-1 $68 $106 $174 $181 reversed $115 $-1 #
loop $-1 $-1 $113 $159 #
vertex $-1 $69 $182 #
vertex $-1 $69 $183 #
straight-curve $-1 49.877010406811735 0 9.198087292609884 0 1 0 I I #
face $-1 $184 $185 $16 $-1 $186 reversed single #
loop $-1 $-1 $131 $70 #
plane-surface $-1 0 -27.674753023414265 -6.198087292609884 0 0 1 1 0 0 forward_v I I I I #
coedge $-1 $187 $188 $74 $127 forward $71 $-1 #
coedge $-1 $189 $73 $188 $190 forward $45 $-1 #
coedge $-1 $73 $189 $191 $192 forward $45 $-1 #
coedge $-1 $75 $74 $73 $126 reversed $29 $-1 #
edge $-1 $193 -49.877010406811735 $194 49.877010406811735 $73 $195 forward 7 unknown #
edge $-1 $194 -9.198087292609884 $133 -6.198087292609884 $122 $196 forward 7 unknown #
coedge $-1 $191 $197 $75 $129 forward $198 $-1 #
edge $-1 $132 6.198087292609884 $193 9.198087292609884 $128 $199 forward 7 unknown #
coedge $-1 $200 $76 $197 $201 forward $120 $-1 #
coedge $-1 $76 $200 $187 $202 forward $120 $-1 #
vertex $-1 $129 $203 #
vertex $-1 $202 $204 #
straight-curve $-1 0 -24.409093776681143 -6.198087292609884 1 0 0 I I #
face $-1 $-1 $147 $17 $-1 $205 forward single #
loop $-1 $-1 $206 $78 #
plane-surface $-1 49.877010406811735 0 0 -1 0 0 0 0 1 forward_v I I I I #
coedge $-1 $207 $208 $209 $210 reversed $79 $-1 #
coedge $-1 $211 $81 $83 $145 forward $49 $-1 #
coedge $-1 $81 $211 $207 $212 forward $49 $-1 #
coedge $-1 $209 $84 $81 $142 forward $147 $-1 #
edge $-1 $149 0.99847508475169366 $213 11.585691827226036 $141 $214 forward 7 unknown #
coedge $-1 $215 $216 $82 $144 forward $136 $-1 #
edge $-1 $217 -69.581210953498314 $148 -60.921273578411402 $143 $218 forward 7 unknown #
edge $-1 $149 85.364321433743527 $217 99.75402081362347 $83 $219 forward 7 unknown #
coedge $-1 $84 $209 $215 $220 forward $147 $-1 #
loop $-1 $-1 $209 $135 #
vertex $-1 $144 $221 #
vertex $-1 $85 $222 #
straight-curve $-1 15.12168839662106 -7.2905585407405589 9.198087292609884 -1 0 0 I I #
coedge $-1 $151 $151 $-1 $223 reversed $88 $-1 #
edge $-1 $224 0 $224 6.2831853071796004 $89 $225 forward 7 unknown #
vertex $-1 $92 $226 #
ellipse-curve $-1 44.130947996280284 -14.852856213936517 4.8681186050664227 0.6018150307709319 0 0.79863550430605224 0.79863550430605224 0 -0.6018150307709319 1 I I #
coedge $-1 $155 $155 $-1 $227 reversed $95 $-1 #
edge $-1 $228 0 $228 6.2831853071796004 $96 $229 forward 7 unknown #
vertex $-1 $99 $230 #
ellipse-curve $-1 44.130947996280284 -10.315477610018942 4.8681186050664227 0.6018150307709319 0 0.79863550430605224 0.79863550430605224 0 -0.6018150307709319 1 I I #
face $-1 $-1 $115 $15 $-1 $231 reversed single #
loop $-1 $-1 $174 $100 #
plane-surface $-1 0 24.409093776681143 0 0 -1 0 0 0 -1 forward_v I I I I #
coedge $-1 $232 $172 $175 $233 forward $101 $-1 #
coedge $-1 $103 $178 $104 $166 reversed $63 $-1 #
edge $-1 $116 -9.198087292609884 $170 9.198087292609884 $113 $234 forward 7 unknown #
coedge $-1 $105 $104 $232 $235 forward $41 $-1 #
edge $-1 $170 -49.877010406811735 $236 49.877010406811735 $163 $237 forward 7 unknown #
coedge $-1 $175 $174 $105 $168 reversed $160 $-1 #
edge $-1 $238 -49.877010406811735 $169 49.877010406811735 $167 $239 forward 7 unknown #
vertex $-1 $107 $240 #
vertex $-1 $164 $241 #
straight-curve $-1 49.877010406811735 0 -9.198087292609884 0 -1 0 I I #
coedge $-1 $162 $242 $108 $173 reversed $101 $-1 #
edge $-1 $176 -24.409093776681143 $179 24.409093776681143 $172 $243 forward 7 unknown #
coedge $-1 $167 $109 $114 $181 forward $160 $-1 #
coedge $-1 $109 $167 $162 $233 reversed $160 $-1 #
vertex $-1 $110 $244 #
straight-curve $-1 0 24.409093776681143 9.198087292609884 -1 0 0 I I #
coedge $-1 $163 $111 $242 $245 forward $63 $-1 #
vertex $-1 $173 $246 #
straight-curve $-1 0 -24.409093776681143 9.198087292609884 1 0 0 I I #
edge $-1 $117 -9.198087292609884 $169 9.198087292609884 $114 $247 forward 7 unknown #
point $-1 49.877010406811735 -24.409093776681143 9.198087292609884 #
point $-1 49.877010406811735 24.409093776681143 9.198087292609884 #
face $-1 $-1 $198 $16 $-1 $248 reversed single #
loop $-1 $-1 $249 $119 #
plane-surface $-1 0 -30.940412270147387 -7.698087292609884 0 1 0 0 0 1 forward_v I I I I #
coedge $-1 $250 $122 $131 $202 reversed $71 $-1 #
coedge $-1 $122 $250 $123 $190 reversed $71 $-1 #
coedge $-1 $124 $123 $251 $252 forward $45 $-1 #
edge $-1 $194 24.409093776681143 $253 30.940412270147387 $188 $254 forward 7 unknown #
coedge $-1 $255 $128 $124 $192 reversed $198 $-1 #
edge $-1 $256 -30.940412270147387 $193 -24.409093776681143 $191 $257 forward 7 unknown #
vertex $-1 $129 $258 #
vertex $-1 $190 $259 #
straight-curve $-1 0 -24.409093776681143 -9.198087292609884 1 0 0 I I #
straight-curve $-1 49.877010406811735 -24.409093776681143 0 0 0 1 I I #
coedge $-1 $128 $255 $130 $201 reversed $198 $-1 #
loop $-1 $-1 $128 $184 #
straight-curve $-1 -49.877010406811735 -24.409093776681143 0 0 0 -1 I I #
coedge $-1 $131 $130 $260 $261 forward $120 $-1 #
edge $-1 $132 -3.2656592467331222 $262 3.2656592467331222 $197 $263 forward 7 unknown #
edge $-1 $264 -3.2656592467331222 $133 3.2656592467331222 $187 $265 forward 7 unknown #
point $-1 -49.877010406811735 -24.409093776681143 -6.198087292609884 #
point $-1 49.877010406811735 -24.409093776681143 -6.198087292609884 #
plane-surface $-1 0 0 9.198087292609884 0 0 1 1 0 0 forward_v I I I I #
coedge $-1 $216 $215 $208 $266 forward $136 $-1 #
coedge $-1 $208 $138 $140 $212 reversed $79 $-1 #
coedge $-1 $138 $207 $206 $266 reversed $79 $-1 #
coedge $-1 $146 $141 $138 $210 forward $147 $-1 #
edge $-1 $213 23.263197189127773 $267 34.755322010190675 $209 $268 forward 7 unknown #
coedge $-1 $140 $139 $216 $269 reversed $49 $-1 #
edge $-1 $270 -99.75402081362347 $213 -85.364321433743527 $207 $271 forward 7 unknown #
vertex $-1 $142 $272 #
straight-curve $-1 38.384885585748826 -6.2920834559888652 9.198087292609884 0 -1 0 I I #
coedge $-1 $206 $143 $146 $220 reversed $136 $-1 #
coedge $-1 $143 $206 $211 $269 forward $136 $-1 #
vertex $-1 $144 $273 #
straight-curve $-1 49.877010406811735 -7.2905585407405589 70.119360871021286 0 0 1 I I #
straight-curve $-1 -29.790092312232872 -7.2905585407405589 60.571619022997965 0.79863550430605224 0 -0.6018150307709319 I I #
edge $-1 $267 -17.877775283214902 $148 -7.2905585407405589 $215 $274 forward 7 unknown #
point $-1 49.877010406811735 -7.2905585407405589 9.198087292609884 #
point $-1 38.384885585748833 -7.2905585407405589 9.198087292609884 #
edge $-1 $275 1 $275 0 $151 $-1 forward 7 unknown #
vertex $-1 $152 $276 #
ellipse-curve $-1 42.725341559318402 -14.852856213936517 3.002815898683588 0.6018150307709319 0 0.79863550430605224 0.79863550430605224 0 -0.6018150307709319 1 I I #
point $-1 44.92958350058634 -14.852856213936517 4.2663035742954953 #
edge $-1 $277 1 $277 0 $155 $-1 forward 7 unknown #
vertex $-1 $156 $278 #
ellipse-curve $-1 42.725341559318402 -10.315477610018942 3.002815898683588 0.6018150307709319 0 0.79863550430605224 0.79863550430605224 0 -0.6018150307709319 1 I I #
point $-1 44.92958350058634 -10.315477610018942 4.2663035742954953 #
plane-surface $-1 49.877010406811735 0 0 -1 0 0 0 0 1 forward_v I I I I #
coedge $-1 $242 $162 $165 $235 reversed $101 $-1 #
edge $-1 $176 -9.198087292609884 $238 9.198087292609884 $175 $279 forward 7 unknown #
straight-curve $-1 49.877010406811735 -24.409093776681143 0 0 0 -1 I I #
edge $-1 $236 -24.409093776681143 $238 24.409093776681143 $232 $280 forward 7 unknown #
vertex $-1 $235 $281 #
straight-curve $-1 0 -24.409093776681143 -9.198087292609884 -1 0 0 I I #
vertex $-1 $168 $282 #
straight-curve $-1 0 24.409093776681143 -9.198087292609884 1 0 0 I I #
point $-1 49.877010406811735 24.409093776681143 -9.198087292609884 #
point $-1 49.877010406811735 -24.409093776681143 -9.198087292609884 #
coedge $-1 $172 $232 $178 $245 reversed $101 $-1 #
straight-curve $-1 -49.877010406811735 0 9.198087292609884 0 -1 0 I I #
point $-1 -49.877010406811735 24.409093776681143 9.198087292609884 #
edge $-1 $179 -9.198087292609884 $236 9.198087292609884 $242 $283 forward 7 unknown #
point $-1 -49.877010406811735 -24.409093776681143 9.198087292609884 #
straight-curve $-1 49.877010406811735 24.409093776681143 0 0 0 -1 I I #
plane-surface $-1 -49.877010406811735 0 0 1 0 0 0 0 -1 forward_v I I I I #
coedge $-1 $251 $260 $255 $284 forward $185 $-1 #
coedge $-1 $188 $187 $285 $286 forward $71 $-1 #
coedge $-1 $285 $249 $189 $252 reversed $185 $-1 #
edge $-1 $253 -49.877010406811735 $256 49.877010406811735 $251 $287 forward 7 unknown #
vertex $-1 $286 $288 #
straight-curve $-1 49.877010406811735 0 -9.198087292609884 0 -1 0 I I #
coedge $-1 $197 $191 $249 $284 reversed $198 $-1 #
vertex $-1 $192 $289 #
straight-curve $-1 -49.877010406811735 0 -9.198087292609884 0 1 0 I I #
point $-1 -49.877010406811735 -24.409093776681143 -9.198087292609884 #
point $-1 49.877010406811735 -24.409093776681143 -9.198087292609884 #
coedge $-1 $249 $285 $200 $261 reversed $185 $-1 #
edge $-1 $262 -49.877010406811735 $264 49.877010406811735 $260 $290 forward 7 unknown #
vertex $-1 $201 $291 #
straight-curve $-1 -49.877010406811735 -27.674753023414265 -6.198087292609884 0 -1 0 I I #
vertex $-1 $202 $292 #
straight-curve $-1 49.877010406811735 -27.674753023414265 -6.198087292609884 0 1 0 I I #
edge $-1 $267 60.921273578411402 $270 69.581210953498314 $206 $293 forward 7 unknown #
vertex $-1 $220 $294 #
straight-curve $-1 15.12168839662106 -17.877775283214902 9.198087292609884 1 0 0 I I #
edge $-1 $270 -11.585691827226036 $217 -0.99847508475169366 $216 $295 forward 7 unknown #
vertex $-1 $269 $296 #
straight-curve $-1 -29.790092312232872 -17.877775283214902 60.571619022997965 -0.79863550430605224 0 0.6018150307709319 I I #
point $-1 38.384885585748833 -17.877775283214902 9.198087292609884 #
point $-1 49.877010406811735 -7.2905585407405589 0.53814991752297203 #
straight-curve $-1 49.877010406811735 0 9.198087292609884 0 1 0 I I #
vertex $-1 $223 $297 #
point $-1 43.52397706362445 -14.852856213936517 2.4010008679126562 #
vertex $-1 $227 $298 #
point $-1 43.52397706362445 -10.315477610018942 2.4010008679126562 #
straight-curve $-1 -49.877010406811735 24.409093776681143 0 0 0 -1 I I #
straight-curve $-1 -49.877010406811735 0 -9.198087292609884 0 1 0 I I #
point $-1 -49.877010406811735 -24.409093776681143 -9.198087292609884 #
point $-1 -49.877010406811735 24.409093776681143 -9.198087292609884 #
straight-curve $-1 -49.877010406811735 -24.409093776681143 0 0 0 -1 I I #
edge $-1 $262 -1.5 $256 1.5 $255 $299 forward 7 unknown #
coedge $-1 $260 $251 $250 $286 reversed $185 $-1 #
edge $-1 $264 -1.5 $253 1.5 $250 $300 forward 7 unknown #
straight-curve $-1 0 -30.940412270147387 -9.198087292609884 -1 0 0 I I #
point $-1 49.877010406811735 -30.940412270147387 -9.198087292609884 #
point $-1 -49.877010406811735 -30.940412270147387 -9.198087292609884 #
straight-curve $-1 0 -30.940412270147387 -6.198087292609884 1 0 0 I I #
point $-1 -49.877010406811735 -30.940412270147387 -6.198087292609884 #
point $-1 49.877010406811735 -30.940412270147387 -6.198087292609884 #
straight-curve $-1 49.877010406811735 -17.877775283214902 70.119360871021286 0 0 -1 I I #
point $-1 49.877010406811735 -17.877775283214902 9.198087292609884 #
straight-curve $-1 49.877010406811728 -6.2920834559888652 0.53814991752297914 0 1 0 I I #
point $-1 49.877010406811735 -17.877775283214902 0.53814991752297203 #
point $-1 42.123526528547465 -14.852856213936517 2.204180394377536 #
point $-1 42.123526528547465 -10.315477610018942 2.204180394377536 #
straight-curve $-1 -49.877010406811735 -30.940412270147387 -7.698087292609884 0 0 -1 I I #
straight-curve $-1 49.877010406811735 -30.940412270147387 -7.698087292609884 0 0 -1 I I #
End-of-ACIS-data 