500 0 13 0           
7 Unknown 11 ACIS 5.0 NT 24 Thu Mar 25 23:21:56 1999 
-1 9.9999999999999995e-007 1e-010 
body $-1 $13 $-1 $14 #
body $-1 $15 $-1 $16 #
body $-1 $17 $-1 $18 #
body $-1 $19 $-1 $20 #
body $-1 $21 $-1 $22 #
body $-1 $23 $-1 $24 #
body $-1 $25 $-1 $26 #
body $-1 $27 $-1 $28 #
body $-1 $29 $-1 $30 #
body $-1 $31 $-1 $32 #
body $-1 $33 $-1 $34 #
body $-1 $35 $-1 $36 #
body $-1 $37 $-1 $38 #
lump $-1 $-1 $39 $0 #
transform $-1 1 0 0 0 1 0 0 0 1 54.968718527787104 32.295946485225961 15.666594408316756 1 rotate no_reflect no_shear #
lump $-1 $-1 $40 $1 #
transform $-1 1 0 0 0 1 0 0 0 1 54.968718527787104 32.295946485225961 15.666594408316756 1 rotate no_reflect no_shear #
lump $-1 $-1 $41 $2 #
transform $-1 1 0 0 0 1 0 0 0 1 54.968718527787104 32.295946485225961 15.666594408316756 1 rotate no_reflect no_shear #
lump $-1 $-1 $42 $3 #
transform $-1 1 0 0 0 1 0 0 0 1 54.968718527787104 32.295946485225961 15.666594408316756 1 rotate no_reflect no_shear #
lump $-1 $-1 $43 $4 #
transform $-1 1 0 0 0 1 0 0 0 1 54.968718527787104 32.295946485225961 15.666594408316756 1 rotate no_reflect no_shear #
lump $-1 $-1 $44 $5 #
transform $-1 1 0 0 0 1 0 0 0 1 54.968718527787104 32.295946485225961 15.666594408316756 1 rotate no_reflect no_shear #
lump $-1 $-1 $45 $6 #
transform $-1 1 0 0 0 1 0 0 0 1 54.968718527787104 32.295946485225961 15.666594408316756 1 rotate no_reflect no_shear #
lump $-1 $-1 $46 $7 #
transform $-1 1 0 0 0 1 0 0 0 1 54.968718527787104 32.295946485225961 15.666594408316756 1 rotate no_reflect no_shear #
lump $-1 $-1 $47 $8 #
transform $-1 1 0 0 0 1 0 0 0 1 54.968718527787104 32.295946485225961 15.666594408316756 1 rotate no_reflect no_shear #
lump $-1 $-1 $48 $9 #
transform $-1 1 0 0 0 1 0 0 0 1 54.968718527787104 32.295946485225961 15.666594408316756 1 rotate no_reflect no_shear #
lump $-1 $-1 $49 $10 #
transform $-1 1 0 0 0 1 0 0 0 1 54.968718527787104 32.295946485225961 15.666594408316756 1 rotate no_reflect no_shear #
lump $-1 $-1 $50 $11 #
transform $-1 1 0 0 0 1 0 0 0 1 54.968718527787104 32.295946485225961 15.666594408316756 1 rotate no_reflect no_shear #
lump $-1 $-1 $51 $12 #
transform $-1 1 0 0 0 1 0 0 0 1 54.968718527787104 32.295946485225961 15.666594408316756 1 rotate no_reflect no_shear #
shell $-1 $-1 $-1 $52 $-1 $13 #
shell $-1 $-1 $-1 $53 $-1 $15 #
shell $-1 $-1 $-1 $54 $-1 $17 #
shell $-1 $-1 $-1 $55 $-1 $19 #
shell $-1 $-1 $-1 $56 $-1 $21 #
shell $-1 $-1 $-1 $57 $-1 $23 #
shell $-1 $-1 $-1 $58 $-1 $25 #
shell $-1 $-1 $-1 $59 $-1 $27 #
shell $-1 $-1 $-1 $60 $-1 $29 #
shell $-1 $-1 $-1 $61 $-1 $31 #
shell $-1 $-1 $-1 $62 $-1 $33 #
shell $-1 $-1 $-1 $63 $-1 $35 #
shell $-1 $-1 $-1 $64 $-1 $37 #
face $-1 $65 $66 $39 $-1 $67 forward single #
face $-1 $68 $69 $40 $-1 $70 reversed single #
face $-1 $71 $72 $41 $-1 $73 reversed single #
face $-1 $74 $75 $42 $-1 $76 forward single #
face $-1 $77 $78 $43 $-1 $79 reversed single #
face $-1 $80 $81 $44 $-1 $82 forward single #
face $-1 $83 $84 $45 $-1 $85 reversed single #
face $-1 $86 $87 $46 $-1 $88 forward single #
face $-1 $89 $90 $47 $-1 $91 reversed single #
face $-1 $92 $93 $48 $-1 $94 forward single #
face $-1 $95 $96 $49 $-1 $97 reversed single #
face $-1 $98 $99 $50 $-1 $100 forward single #
face $-1 $101 $102 $51 $-1 $103 forward single #
face $-1 $104 $105 $39 $-1 $106 reversed single #
loop $-1 $-1 $107 $52 #
plane-surface $-1 0 0 15.666594408316756 0 0 1 1 0 0 forward_v I I I I #
face $-1 $108 $109 $40 $-1 $110 reversed single #
loop $-1 $-1 $111 $53 #
plane-surface $-1 0 -23.945915110324691 11.758528080160396 0 0 1 1 0 0 forward_v I I I I #
face $-1 $112 $113 $41 $-1 $114 reversed single #
loop $-1 $-1 $115 $54 #
plane-surface $-1 -149.20349555616863 -13.581673364330625 56.991134638438965 0 1 0 -0.85716730853699208 0 0.51503806187062418 forward_v I I I I #
face $-1 $116 $117 $42 $-1 $118 forward single #
loop $-1 $119 $120 $55 #
cone-surface $-1 -49.377043964341112 -9.7220004771627302 7.4195063430059536 0.85716730853699208 0 -0.51503806187062418 0.51503806187062418 0 0.85716730853699208 1 I I 0 1 1 forward I I I I #
face $-1 $121 $122 $43 $-1 $123 reversed single #
loop $-1 $-1 $124 $56 #
plane-surface $-1 -149.20349555616863 -1.6087158091682792 56.991134638438965 0 1 0 -0.85716730853699208 0 0.51503806187062418 forward_v I I I I #
face $-1 $125 $126 $44 $-1 $127 forward single #
loop $-1 $128 $129 $57 #
cone-surface $-1 -49.377043964341112 2.2509570779996153 7.4195063430059536 0.85716730853699208 0 -0.51503806187062418 0.51503806187062418 0 0.85716730853699208 1 I I 0 1 1 forward I I I I #
face $-1 $130 $131 $45 $-1 $132 reversed single #
loop $-1 $-1 $133 $58 #
plane-surface $-1 -149.20349555616863 10.364241745994066 56.991134638438965 0 1 0 -0.85716730853699208 0 0.51503806187062418 forward_v I I I I #
face $-1 $134 $135 $46 $-1 $136 forward single #
loop $-1 $137 $138 $59 #
cone-surface $-1 -49.377043964341112 14.223914633161961 7.4195063430059536 0.85716730853699208 0 -0.51503806187062418 0.51503806187062418 0 0.85716730853699208 1 I I 0 1 1 forward I I I I #
face $-1 $139 $140 $47 $-1 $141 reversed single #
loop $-1 $-1 $142 $60 #
plane-surface $-1 -149.20349555616863 22.33719930115641 56.991134638438965 0 1 0 -0.85716730853699208 0 0.51503806187062418 forward_v I I I I #
face $-1 $143 $144 $48 $-1 $145 forward single #
loop $-1 $146 $147 $61 #
cone-surface $-1 -49.377043964341112 26.196872188324306 7.4195063430059536 0.85716730853699208 0 -0.51503806187062418 0.51503806187062418 0 0.85716730853699208 1 I I 0 1 1 forward I I I I #
face $-1 $148 $149 $49 $-1 $150 reversed single #
loop $-1 $-1 $151 $62 #
plane-surface $-1 41.418179758010098 13.01822265254896 159.57899738515715 0 -1 0 -0.64278761758704617 0 -0.76604443648966558 forward_v I I I I #
face $-1 $152 $153 $50 $-1 $154 forward single #
loop $-1 $155 $156 $63 #
cone-surface $-1 48.10997107666504 7.8967347919116335 9.7980810450252118 -0.64278761758704617 0 -0.76604443648966558 0.38302221824483279 0 -0.32139380879352308 1 I I 0 1 0.5 forward I I I I #
face $-1 $157 $158 $51 $-1 $159 forward single #
loop $-1 $160 $161 $64 #
cone-surface $-1 48.10997107666504 10.969627508294032 9.7980810450252118 -0.64278761758704617 0 -0.76604443648966558 0.38302221824483279 0 -0.32139380879352308 1 I I 0 1 0.5 forward I I I I #
face $-1 $162 $163 $39 $-1 $164 reversed single #
loop $-1 $-1 $165 $65 #
plane-surface $-1 0 0 -15.666594408316756 0 0 1 1 0 0 forward_v I I I I #
coedge $-1 $166 $167 $168 $169 forward $66 $-1 #
face $-1 $170 $171 $40 $-1 $172 reversed single #
loop $-1 $-1 $173 $68 #
plane-surface $-1 0 -15.595883735423419 13.712561244238577 0 -1 0 0 0 -1 forward_v I I I I #
coedge $-1 $174 $175 $176 $177 reversed $69 $-1 #
face $-1 $178 $179 $41 $-1 $180 reversed single #
loop $-1 $-1 $181 $71 #
plane-surface $-1 -54.968718527787104 -9.7220004771627302 0.36917013031228407 -0.85716730853699208 0 0.51503806187062418 0.51503806187062418 0 0.85716730853699208 forward_v I I I I #
coedge $-1 $182 $183 $184 $185 reversed $72 $-1 #
face $-1 $-1 $186 $42 $-1 $187 forward single #
loop $-1 $188 $189 $74 #
cone-surface $-1 -47.952595498869428 -9.7220004771627302 6.5636113857620746 0.85716730853699208 0 -0.51503806187062418 0.25751903093531209 0 0.42858365426849604 1 I I -0.70710678118654746 0.70710678118654746 0.5 forward I I I I #
loop $-1 $-1 $190 $55 #
coedge $-1 $120 $120 $191 $192 reversed $75 $-1 #
face $-1 $193 $194 $43 $-1 $195 reversed single #
loop $-1 $-1 $196 $77 #
plane-surface $-1 -54.968718527787104 2.2509570779996153 0.36917013031228407 -0.85716730853699208 0 0.51503806187062418 0.51503806187062418 0 0.85716730853699208 forward_v I I I I #
coedge $-1 $197 $198 $199 $200 reversed $78 $-1 #
face $-1 $-1 $201 $44 $-1 $202 forward single #
loop $-1 $203 $204 $80 #
cone-surface $-1 -47.952595498869428 2.2509570779996153 6.5636113857620746 0.85716730853699208 0 -0.51503806187062418 0.25751903093531209 0 0.42858365426849604 1 I I -0.70710678118654746 0.70710678118654746 0.5 forward I I I I #
loop $-1 $-1 $205 $57 #
coedge $-1 $129 $129 $206 $207 reversed $81 $-1 #
face $-1 $208 $209 $45 $-1 $210 reversed single #
loop $-1 $-1 $211 $83 #
plane-surface $-1 -54.968718527787104 14.223914633161961 0.36917013031228407 -0.85716730853699208 0 0.51503806187062418 0.51503806187062418 0 0.85716730853699208 forward_v I I I I #
coedge $-1 $212 $213 $214 $215 reversed $84 $-1 #
face $-1 $-1 $216 $46 $-1 $217 forward single #
loop $-1 $218 $219 $86 #
cone-surface $-1 -47.952595498869428 14.223914633161961 6.5636113857620746 0.85716730853699208 0 -0.51503806187062418 0.25751903093531209 0 0.42858365426849604 1 I I -0.70710678118654746 0.70710678118654746 0.5 forward I I I I #
loop $-1 $-1 $220 $59 #
coedge $-1 $138 $138 $221 $222 reversed $87 $-1 #
face $-1 $223 $224 $47 $-1 $225 reversed single #
loop $-1 $-1 $226 $89 #
plane-surface $-1 -54.968718527787104 26.196872188324306 0.36917013031228407 -0.85716730853699208 0 0.51503806187062418 0.51503806187062418 0 0.85716730853699208 forward_v I I I I #
coedge $-1 $227 $228 $229 $230 reversed $90 $-1 #
face $-1 $-1 $231 $48 $-1 $232 forward single #
loop $-1 $233 $234 $92 #
cone-surface $-1 -47.952595498869428 26.196872188324306 6.5636113857620746 0.85716730853699208 0 -0.51503806187062418 0.25751903093531209 0 0.42858365426849604 1 I I -0.70710678118654746 0.70710678118654746 0.5 forward I I I I #
loop $-1 $-1 $235 $61 #
coedge $-1 $147 $147 $236 $237 reversed $93 $-1 #
face $-1 $238 $239 $49 $-1 $240 reversed single #
loop $-1 $-1 $241 $95 #
plane-surface $-1 -29.248243490568299 9.4331811501028326 75.362035366801734 0.64278761758704617 0 0.76604443648966558 0.76604443648966558 0 -0.64278761758704617 forward_v I I I I #
coedge $-1 $242 $243 $244 $245 reversed $96 $-1 #
face $-1 $-1 $246 $50 $-1 $247 forward single #
loop $-1 $248 $249 $98 #
cone-surface $-1 47.627880363474759 7.8967347919116335 9.2235477176579632 -0.64278761758704617 0 -0.76604443648966558 0.1915111091224164 0 -0.16069690439676154 1 I I -0.70710678118654746 0.70710678118654746 0.25 forward I I I I #
loop $-1 $-1 $250 $63 #
coedge $-1 $156 $156 $251 $252 reversed $99 $-1 #
face $-1 $-1 $253 $51 $-1 $254 forward single #
loop $-1 $255 $256 $101 #
cone-surface $-1 47.627880363474759 10.969627508294032 9.2235477176579632 -0.64278761758704617 0 -0.76604443648966558 0.1915111091224164 0 -0.16069690439676154 1 I I -0.70710678118654746 0.70710678118654746 0.25 forward I I I I #
loop $-1 $-1 $257 $64 #
coedge $-1 $161 $161 $258 $259 reversed $102 $-1 #
face $-1 $260 $261 $39 $-1 $262 reversed single #
loop $-1 $-1 $263 $104 #
plane-surface $-1 0 -32.295946485225961 0 0 1 0 0 0 1 forward_v I I I I #
coedge $-1 $264 $265 $266 $267 forward $105 $-1 #
coedge $-1 $268 $107 $269 $270 forward $66 $-1 #
coedge $-1 $107 $268 $271 $272 forward $66 $-1 #
coedge $-1 $273 $274 $107 $169 reversed $275 $-1 #
edge $-1 $276 -32.295946485225961 $277 32.295946485225961 $168 $278 forward 7 unknown #
face $-1 $279 $280 $40 $-1 $281 reversed single #
loop $-1 $-1 $282 $108 #
plane-surface $-1 -54.968718527787104 0 0 1 0 0 0 0 -1 forward_v I I I I #
coedge $-1 $283 $284 $285 $286 reversed $109 $-1 #
coedge $-1 $287 $111 $288 $289 reversed $69 $-1 #
coedge $-1 $111 $287 $283 $290 forward $69 $-1 #
coedge $-1 $285 $291 $111 $177 forward $292 $-1 #
edge $-1 $293 -20.322988930063616 $294 -3.6229261802610733 $176 $295 forward 7 unknown #
face $-1 $296 $297 $41 $-1 $298 forward single #
loop $-1 $-1 $299 $112 #
plane-surface $-1 -149.20349555616863 -5.8623275899948357 56.991134638438965 0 -1 0 0.85716730853699208 0 -0.51503806187062418 forward_v I I I I #
coedge $-1 $300 $301 $302 $303 reversed $113 $-1 #
coedge $-1 $183 $115 $304 $305 reversed $72 $-1 #
coedge $-1 $115 $182 $300 $306 reversed $72 $-1 #
coedge $-1 $302 $307 $115 $185 forward $297 $-1 #
edge $-1 $308 19.633029250297213 $309 28.824648754782828 $184 $310 forward 7 unknown #
loop $-1 $-1 $191 $116 #
plane-surface $-1 -54.968718527787104 -9.7220004771627302 0.36917013031228407 -0.85716730853699208 0 0.51503806187062418 0.51503806187062418 0 0.85716730853699208 forward_v I I I I #
loop $-1 $-1 $311 $74 #
coedge $-1 $189 $189 $190 $312 reversed $117 $-1 #
coedge $-1 $190 $190 $189 $312 forward $119 $-1 #
coedge $-1 $191 $191 $120 $192 forward $186 $-1 #
edge $-1 $313 0 $313 6.2831853071796004 $191 $314 forward 7 unknown #
face $-1 $315 $316 $43 $-1 $317 forward single #
loop $-1 $-1 $318 $121 #
plane-surface $-1 -149.20349555616863 6.1106299651675098 56.991134638438965 0 -1 0 0.85716730853699208 0 -0.51503806187062418 forward_v I I I I #
coedge $-1 $319 $320 $321 $322 reversed $122 $-1 #
coedge $-1 $198 $124 $323 $324 reversed $78 $-1 #
coedge $-1 $124 $197 $319 $325 reversed $78 $-1 #
coedge $-1 $321 $326 $124 $200 forward $316 $-1 #
edge $-1 $327 19.633029250297213 $328 28.824648754782828 $199 $329 forward 7 unknown #
loop $-1 $-1 $206 $125 #
plane-surface $-1 -54.968718527787104 2.2509570779996153 0.36917013031228407 -0.85716730853699208 0 0.51503806187062418 0.51503806187062418 0 0.85716730853699208 forward_v I I I I #
loop $-1 $-1 $330 $80 #
coedge $-1 $204 $204 $205 $331 reversed $126 $-1 #
coedge $-1 $205 $205 $204 $331 forward $128 $-1 #
coedge $-1 $206 $206 $129 $207 forward $201 $-1 #
edge $-1 $332 0 $332 6.2831853071796004 $206 $333 forward 7 unknown #
face $-1 $334 $335 $45 $-1 $336 forward single #
loop $-1 $-1 $337 $130 #
plane-surface $-1 -149.20349555616863 18.083587520329857 56.991134638438965 0 -1 0 0.85716730853699208 0 -0.51503806187062418 forward_v I I I I #
coedge $-1 $338 $339 $340 $341 reversed $131 $-1 #
coedge $-1 $213 $133 $342 $343 reversed $84 $-1 #
coedge $-1 $133 $212 $338 $344 reversed $84 $-1 #
coedge $-1 $340 $345 $133 $215 forward $335 $-1 #
edge $-1 $346 19.633029250297213 $347 28.824648754782828 $214 $348 forward 7 unknown #
loop $-1 $-1 $221 $134 #
plane-surface $-1 -54.968718527787104 14.223914633161961 0.36917013031228407 -0.85716730853699208 0 0.51503806187062418 0.51503806187062418 0 0.85716730853699208 forward_v I I I I #
loop $-1 $-1 $349 $86 #
coedge $-1 $219 $219 $220 $350 reversed $135 $-1 #
coedge $-1 $220 $220 $219 $350 forward $137 $-1 #
coedge $-1 $221 $221 $138 $222 forward $216 $-1 #
edge $-1 $351 0 $351 6.2831853071796004 $221 $352 forward 7 unknown #
face $-1 $353 $354 $47 $-1 $355 forward single #
loop $-1 $-1 $356 $139 #
plane-surface $-1 -149.20349555616863 30.056545075492203 56.991134638438965 0 -1 0 0.85716730853699208 0 -0.51503806187062418 forward_v I I I I #
coedge $-1 $357 $358 $359 $360 reversed $140 $-1 #
coedge $-1 $228 $142 $361 $362 reversed $90 $-1 #
coedge $-1 $142 $227 $357 $363 reversed $90 $-1 #
coedge $-1 $359 $364 $142 $230 forward $354 $-1 #
edge $-1 $365 19.633029250297213 $366 28.824648754782828 $229 $367 forward 7 unknown #
loop $-1 $-1 $236 $143 #
plane-surface $-1 -54.968718527787104 26.196872188324306 0.36917013031228407 -0.85716730853699208 0 0.51503806187062418 0.51503806187062418 0 0.85716730853699208 forward_v I I I I #
loop $-1 $-1 $368 $92 #
coedge $-1 $234 $234 $235 $369 reversed $144 $-1 #
coedge $-1 $235 $235 $234 $369 forward $146 $-1 #
coedge $-1 $236 $236 $147 $237 forward $231 $-1 #
edge $-1 $370 0 $370 6.2831853071796004 $236 $371 forward 7 unknown #
face $-1 $372 $373 $49 $-1 $374 reversed single #
loop $-1 $-1 $375 $148 #
plane-surface $-1 41.418179758010098 5.8481396476567049 159.57899738515715 0 1 0 0.64278761758704617 0 0.76604443648966558 forward_v I I I I #
coedge $-1 $376 $377 $378 $379 reversed $149 $-1 #
coedge $-1 $243 $151 $380 $381 reversed $96 $-1 #
coedge $-1 $151 $242 $376 $382 reversed $96 $-1 #
coedge $-1 $378 $383 $151 $245 forward $384 $-1 #
edge $-1 $385 -34.259628648782055 $386 -21.184921364125017 $244 $387 forward 7 unknown #
loop $-1 $-1 $251 $152 #
plane-surface $-1 -29.248243490568299 9.4331811501028326 75.362035366801734 0.64278761758704617 0 0.76604443648966558 0.76604443648966558 0 -0.64278761758704617 forward_v I I I I #
loop $-1 $-1 $388 $98 #
coedge $-1 $249 $249 $250 $389 reversed $153 $-1 #
coedge $-1 $250 $250 $249 $389 forward $155 $-1 #
coedge $-1 $251 $251 $156 $252 forward $246 $-1 #
edge $-1 $390 0 $390 6.2831853071796004 $251 $391 forward 7 unknown #
loop $-1 $-1 $258 $157 #
plane-surface $-1 -29.248243490568299 9.4331811501028326 75.362035366801734 0.64278761758704617 0 0.76604443648966558 0.76604443648966558 0 -0.64278761758704617 forward_v I I I I #
loop $-1 $-1 $392 $101 #
coedge $-1 $256 $256 $257 $393 reversed $158 $-1 #
coedge $-1 $257 $257 $256 $393 forward $160 $-1 #
coedge $-1 $258 $258 $161 $259 forward $253 $-1 #
edge $-1 $394 0 $394 6.2831853071796004 $258 $395 forward 7 unknown #
face $-1 $396 $397 $39 $-1 $398 reversed single #
loop $-1 $-1 $399 $162 #
plane-surface $-1 -54.968718527787104 0 0 1 0 0 0 0 -1 forward_v I I I I #
coedge $-1 $400 $271 $401 $402 forward $163 $-1 #
coedge $-1 $403 $165 $400 $404 forward $105 $-1 #
coedge $-1 $165 $403 $405 $406 forward $105 $-1 #
coedge $-1 $274 $273 $165 $267 reversed $275 $-1 #
edge $-1 $407 -32.295946485225961 $408 32.295946485225961 $266 $409 forward 7 unknown #
coedge $-1 $167 $166 $410 $411 forward $66 $-1 #
coedge $-1 $412 $413 $166 $270 reversed $397 $-1 #
edge $-1 $277 -54.968718527787104 $414 54.968718527787104 $269 $415 forward 7 unknown #
coedge $-1 $263 $416 $167 $272 reversed $163 $-1 #
edge $-1 $417 -54.968718527787104 $276 54.968718527787104 $271 $418 forward 7 unknown #
coedge $-1 $266 $168 $416 $419 forward $275 $-1 #
coedge $-1 $168 $266 $412 $420 reversed $275 $-1 #
loop $-1 $-1 $273 $396 #
vertex $-1 $169 $421 #
vertex $-1 $169 $422 #
straight-curve $-1 54.968718527787104 0 15.666594408316756 0 1 0 I I #
face $-1 $423 $424 $40 $-1 $425 forward single #
loop $-1 $-1 $288 $170 #
plane-surface $-1 0 -32.295946485225961 0 0 1 0 0 0 1 forward_v I I I I #
coedge $-1 $426 $427 $428 $429 forward $171 $-1 #
coedge $-1 $428 $173 $175 $290 reversed $109 $-1 #
coedge $-1 $173 $428 $430 $431 reversed $109 $-1 #
coedge $-1 $432 $176 $173 $286 forward $292 $-1 #
edge $-1 $294 4.9022474580411073 $433 8.8103137861974687 $285 $434 forward 7 unknown #
coedge $-1 $175 $174 $426 $435 reversed $69 $-1 #
coedge $-1 $436 $437 $174 $289 forward $280 $-1 #
edge $-1 $438 -54.968718527787104 $293 54.968718527787104 $288 $439 forward 7 unknown #
edge $-1 $440 -54.968718527787104 $294 54.968718527787104 $283 $441 forward 7 unknown #
coedge $-1 $176 $432 $436 $442 forward $292 $-1 #
loop $-1 $-1 $285 $423 #
vertex $-1 $289 $443 #
vertex $-1 $177 $444 #
straight-curve $-1 54.968718527787104 -11.972957555162345 11.758528080160396 0 1 0 I I #
face $-1 $-1 $445 $41 $-1 $446 reversed single #
loop $-1 $-1 $184 $178 #
plane-surface $-1 0 0 15.666594408316756 0 0 1 1 0 0 forward_v I I I I #
coedge $-1 $447 $448 $449 $450 reversed $179 $-1 #
coedge $-1 $451 $181 $183 $306 forward $113 $-1 #
coedge $-1 $181 $451 $447 $452 forward $113 $-1 #
coedge $-1 $449 $184 $181 $303 forward $297 $-1 #
edge $-1 $309 -8.7206731257492596 $453 -1.0013273514134706 $302 $454 forward 7 unknown #
coedge $-1 $455 $456 $182 $305 forward $445 $-1 #
edge $-1 $457 -28.126397188907198 $308 -12.828972910902726 $304 $458 forward 7 unknown #
edge $-1 $309 -17.846485890968037 $457 0 $183 $459 forward 7 unknown #
coedge $-1 $184 $449 $455 $460 forward $297 $-1 #
vertex $-1 $305 $461 #
vertex $-1 $185 $462 #
straight-curve $-1 -74.601747778084317 -13.581673364330625 15.666594408316755 1 0 0 I I #
coedge $-1 $311 $311 $-1 $463 reversed $188 $-1 #
edge $-1 $464 0 $464 6.2831853071796004 $189 $465 forward 7 unknown #
vertex $-1 $192 $466 #
ellipse-curve $-1 -50.372908775544296 -9.7220004771627302 8.0178822693145193 -0.85716730853699208 0 0.51503806187062418 0.51503806187062418 0 0.85716730853699208 1 I I #
face $-1 $-1 $467 $43 $-1 $468 reversed single #
loop $-1 $-1 $199 $193 #
plane-surface $-1 0 0 15.666594408316756 0 0 1 1 0 0 forward_v I I I I #
coedge $-1 $469 $470 $471 $472 reversed $194 $-1 #
coedge $-1 $473 $196 $198 $325 forward $122 $-1 #
coedge $-1 $196 $473 $469 $474 forward $122 $-1 #
coedge $-1 $471 $199 $196 $322 forward $316 $-1 #
edge $-1 $328 -2.7341943481680868 $475 4.9851514261677021 $321 $476 forward 7 unknown #
coedge $-1 $477 $478 $197 $324 forward $467 $-1 #
edge $-1 $479 -28.126397188907198 $327 -12.828972910902726 $323 $480 forward 7 unknown #
edge $-1 $328 -17.846485890968037 $479 0 $198 $481 forward 7 unknown #
coedge $-1 $199 $471 $477 $482 forward $316 $-1 #
vertex $-1 $200 $483 #
vertex $-1 $200 $484 #
straight-curve $-1 -74.601747778084317 -1.6087158091682792 15.666594408316755 1 0 0 I I #
coedge $-1 $330 $330 $-1 $485 reversed $203 $-1 #
edge $-1 $486 0 $486 6.2831853071796004 $204 $487 forward 7 unknown #
vertex $-1 $207 $488 #
ellipse-curve $-1 -50.372908775544296 2.2509570779996153 8.0178822693145193 -0.85716730853699208 0 0.51503806187062418 0.51503806187062418 0 0.85716730853699208 1 I I #
face $-1 $-1 $489 $45 $-1 $490 reversed single #
loop $-1 $-1 $214 $208 #
plane-surface $-1 0 0 15.666594408316756 0 0 1 1 0 0 forward_v I I I I #
coedge $-1 $491 $492 $493 $494 reversed $209 $-1 #
coedge $-1 $495 $211 $213 $344 forward $131 $-1 #
coedge $-1 $211 $495 $491 $496 forward $131 $-1 #
coedge $-1 $493 $214 $211 $341 forward $335 $-1 #
edge $-1 $347 3.2522844294130859 $497 10.971630203748877 $340 $498 forward 7 unknown #
coedge $-1 $499 $500 $212 $343 forward $489 $-1 #
edge $-1 $501 -28.126397188907198 $346 -12.828972910902726 $342 $502 forward 7 unknown #
edge $-1 $347 -17.846485890968037 $501 0 $213 $503 forward 7 unknown #
coedge $-1 $214 $493 $499 $504 forward $335 $-1 #
vertex $-1 $215 $505 #
vertex $-1 $215 $506 #
straight-curve $-1 -74.601747778084317 10.364241745994066 15.666594408316755 1 0 0 I I #
coedge $-1 $349 $349 $-1 $507 reversed $218 $-1 #
edge $-1 $508 0 $508 6.2831853071796004 $219 $509 forward 7 unknown #
vertex $-1 $222 $510 #
ellipse-curve $-1 -50.372908775544296 14.223914633161961 8.0178822693145193 -0.85716730853699208 0 0.51503806187062418 0.51503806187062418 0 0.85716730853699208 1 I I #
face $-1 $-1 $511 $47 $-1 $512 reversed single #
loop $-1 $-1 $229 $223 #
plane-surface $-1 0 0 15.666594408316756 0 0 1 1 0 0 forward_v I I I I #
coedge $-1 $513 $514 $515 $516 reversed $224 $-1 #
coedge $-1 $517 $226 $228 $363 forward $140 $-1 #
coedge $-1 $226 $517 $513 $518 forward $140 $-1 #
coedge $-1 $515 $229 $226 $360 forward $354 $-1 #
edge $-1 $366 9.2387632069942569 $519 16.958108981330049 $359 $520 forward 7 unknown #
coedge $-1 $521 $522 $227 $362 forward $511 $-1 #
edge $-1 $523 -28.126397188907198 $365 -12.828972910902726 $361 $524 forward 7 unknown #
edge $-1 $366 -17.846485890968037 $523 0 $228 $525 forward 7 unknown #
coedge $-1 $229 $515 $521 $526 forward $354 $-1 #
vertex $-1 $230 $527 #
vertex $-1 $230 $528 #
straight-curve $-1 -74.601747778084317 22.33719930115641 15.666594408316755 1 0 0 I I #
coedge $-1 $368 $368 $-1 $529 reversed $233 $-1 #
edge $-1 $530 0 $530 6.2831853071796004 $234 $531 forward 7 unknown #
vertex $-1 $237 $532 #
ellipse-curve $-1 -50.372908775544296 26.196872188324306 8.0178822693145193 -0.85716730853699208 0 0.51503806187062418 0.51503806187062418 0 0.85716730853699208 1 I I #
face $-1 $-1 $384 $49 $-1 $533 forward single #
loop $-1 $-1 $534 $238 #
plane-surface $-1 54.968718527787104 0 0 -1 0 0 0 0 1 forward_v I I I I #
coedge $-1 $535 $536 $537 $538 reversed $239 $-1 #
coedge $-1 $539 $241 $243 $382 forward $149 $-1 #
coedge $-1 $241 $539 $535 $540 forward $149 $-1 #
coedge $-1 $537 $244 $241 $379 forward $384 $-1 #
edge $-1 $386 -8.3016320774975441 $541 -1.1315490726052886 $378 $542 forward 7 unknown #
coedge $-1 $543 $544 $242 $381 forward $373 $-1 #
edge $-1 $545 -75.09388657435521 $385 -64.122904284261821 $380 $546 forward 7 unknown #
edge $-1 $386 92.869618712592938 $545 109.93743705557418 $243 $547 forward 7 unknown #
coedge $-1 $244 $537 $543 $548 forward $384 $-1 #
loop $-1 $-1 $537 $372 #
vertex $-1 $381 $549 #
vertex $-1 $245 $550 #
straight-curve $-1 20.709089879005049 13.01822265254896 15.666594408316755 -1 0 0 I I #
coedge $-1 $388 $388 $-1 $551 reversed $248 $-1 #
edge $-1 $552 0 $552 6.2831853071796004 $249 $553 forward 7 unknown #
vertex $-1 $252 $554 #
ellipse-curve $-1 48.431364885458571 7.8967347919116335 10.181103263270055 0.64278761758704617 0 0.76604443648966558 0.38302221824483279 0 -0.32139380879352308 1 I I #
coedge $-1 $392 $392 $-1 $555 reversed $255 $-1 #
edge $-1 $556 0 $556 6.2831853071796004 $256 $557 forward 7 unknown #
vertex $-1 $259 $558 #
ellipse-curve $-1 48.431364885458571 10.969627508294032 10.181103263270055 0.64278761758704617 0 0.76604443648966558 0.38302221824483279 0 -0.32139380879352308 1 I I #
face $-1 $-1 $275 $39 $-1 $559 reversed single #
loop $-1 $-1 $412 $260 #
plane-surface $-1 0 32.295946485225961 0 0 -1 0 0 0 -1 forward_v I I I I #
coedge $-1 $560 $410 $413 $561 forward $261 $-1 #
coedge $-1 $416 $263 $264 $404 reversed $163 $-1 #
coedge $-1 $410 $560 $263 $402 reversed $261 $-1 #
edge $-1 $417 -15.666594408316756 $562 15.666594408316756 $401 $563 forward 7 unknown #
coedge $-1 $265 $264 $560 $564 forward $105 $-1 #
edge $-1 $408 -54.968718527787104 $562 54.968718527787104 $400 $565 forward 7 unknown #
coedge $-1 $413 $412 $265 $406 reversed $397 $-1 #
edge $-1 $566 -54.968718527787104 $407 54.968718527787104 $405 $567 forward 7 unknown #
vertex $-1 $267 $568 #
vertex $-1 $419 $569 #
straight-curve $-1 54.968718527787104 0 -15.666594408316756 0 -1 0 I I #
coedge $-1 $399 $401 $268 $411 reversed $261 $-1 #
edge $-1 $414 -32.295946485225961 $417 32.295946485225961 $410 $570 forward 7 unknown #
coedge $-1 $405 $269 $274 $420 forward $397 $-1 #
coedge $-1 $269 $405 $399 $561 reversed $397 $-1 #
vertex $-1 $270 $571 #
straight-curve $-1 0 32.295946485225961 15.666594408316756 -1 0 0 I I #
coedge $-1 $271 $400 $273 $419 reversed $163 $-1 #
vertex $-1 $411 $572 #
straight-curve $-1 0 -32.295946485225961 15.666594408316756 1 0 0 I I #
edge $-1 $276 -15.666594408316756 $408 15.666594408316756 $273 $573 forward 7 unknown #
edge $-1 $277 -15.666594408316756 $407 15.666594408316756 $274 $574 forward 7 unknown #
point $-1 54.968718527787104 -32.295946485225961 15.666594408316756 #
point $-1 54.968718527787104 32.295946485225961 15.666594408316756 #
face $-1 $-1 $292 $40 $-1 $575 reversed single #
loop $-1 $-1 $430 $279 #
plane-surface $-1 0 0 15.666594408316756 0 0 1 1 0 0 forward_v I I I I #
coedge $-1 $576 $282 $287 $435 forward $171 $-1 #
coedge $-1 $282 $576 $577 $578 reversed $171 $-1 #
coedge $-1 $284 $283 $282 $429 reversed $109 $-1 #
edge $-1 $579 -8.8103137861974687 $440 -4.9022474580411073 $282 $580 forward 7 unknown #
coedge $-1 $577 $581 $284 $431 forward $424 $-1 #
edge $-1 $433 -54.968718527787104 $579 54.968718527787104 $430 $582 forward 7 unknown #
coedge $-1 $291 $285 $581 $583 reversed $292 $-1 #
vertex $-1 $286 $584 #
straight-curve $-1 54.968718527787104 -15.595883735423419 6.8562806221192885 0 0 1 I I #
edge $-1 $440 3.6229261802610733 $438 20.322988930063616 $426 $585 forward 7 unknown #
coedge $-1 $586 $288 $291 $442 reversed $280 $-1 #
coedge $-1 $288 $586 $576 $587 forward $280 $-1 #
vertex $-1 $289 $588 #
straight-curve $-1 0 -32.295946485225961 11.758528080160396 1 0 0 I I #
vertex $-1 $435 $589 #
straight-curve $-1 0 -15.595883735423419 11.758528080160396 1 0 0 I I #
edge $-1 $590 -15.666594408316756 $293 -11.758528080160396 $291 $591 forward 7 unknown #
point $-1 54.968718527787104 -32.295946485225961 11.758528080160396 #
point $-1 54.968718527787104 -15.595883735423419 11.758528080160396 #
loop $-1 $-1 $304 $296 #
plane-surface $-1 -54.968718527787104 0 0 1 0 0 0 0 -1 forward_v I I I I #
coedge $-1 $448 $299 $301 $452 reversed $179 $-1 #
coedge $-1 $299 $447 $592 $593 reversed $179 $-1 #
coedge $-1 $307 $302 $299 $450 forward $297 $-1 #
edge $-1 $453 -28.824648754782828 $594 -19.633029250297213 $449 $595 forward 7 unknown #
coedge $-1 $301 $300 $456 $596 reversed $113 $-1 #
edge $-1 $597 0 $453 17.846485890968037 $447 $598 forward 7 unknown #
vertex $-1 $303 $599 #
straight-curve $-1 -45.777099023301489 -4.8610002385813651 15.666594408316756 0 1 0 I I #
coedge $-1 $592 $304 $307 $460 reversed $445 $-1 #
coedge $-1 $304 $592 $451 $596 forward $445 $-1 #
vertex $-1 $305 $600 #
straight-curve $-1 -54.968718527787104 -13.581673364330625 28.495567319219482 0 0 1 I I #
straight-curve $-1 -54.968718527787104 -13.581673364330625 0.36917013031228407 -0.51503806187062418 0 -0.85716730853699208 I I #
edge $-1 $594 5.8623275899948357 $308 13.581673364330625 $455 $601 forward 7 unknown #
point $-1 -54.968718527787104 -13.581673364330625 15.666594408316756 #
point $-1 -45.777099023301489 -13.581673364330625 15.666594408316755 #
edge $-1 $602 1 $602 0 $311 $-1 forward 7 unknown #
vertex $-1 $312 $603 #
ellipse-curve $-1 -48.381179153137921 -9.7220004771627302 6.821130416697387 -0.85716730853699208 0 0.51503806187062418 0.51503806187062418 0 0.85716730853699208 1 I I #
point $-1 -49.85787071367367 -9.7220004771627302 8.8750495778515113 #
loop $-1 $-1 $323 $315 #
plane-surface $-1 -54.968718527787104 0 0 1 0 0 0 0 -1 forward_v I I I I #
coedge $-1 $470 $318 $320 $474 reversed $194 $-1 #
coedge $-1 $318 $469 $604 $605 reversed $194 $-1 #
coedge $-1 $326 $321 $318 $472 forward $316 $-1 #
edge $-1 $475 -28.824648754782828 $606 -19.633029250297213 $471 $607 forward 7 unknown #
coedge $-1 $320 $319 $478 $608 reversed $122 $-1 #
edge $-1 $609 0 $475 17.846485890968037 $469 $610 forward 7 unknown #
vertex $-1 $322 $611 #
straight-curve $-1 -45.777099023301489 1.1254785389998077 15.666594408316756 0 1 0 I I #
coedge $-1 $604 $323 $326 $482 reversed $467 $-1 #
coedge $-1 $323 $604 $473 $608 forward $467 $-1 #
vertex $-1 $324 $612 #
straight-curve $-1 -54.968718527787104 -1.6087158091682792 28.495567319219482 0 0 1 I I #
straight-curve $-1 -54.968718527787104 -1.6087158091682792 0.36917013031228407 -0.51503806187062418 0 -0.85716730853699208 I I #
edge $-1 $606 -6.1106299651675098 $327 1.6087158091682792 $477 $613 forward 7 unknown #
point $-1 -54.968718527787104 -1.6087158091682792 15.666594408316756 #
point $-1 -45.777099023301489 -1.6087158091682792 15.666594408316755 #
edge $-1 $614 1 $614 0 $330 $-1 forward 7 unknown #
vertex $-1 $331 $615 #
ellipse-curve $-1 -48.381179153137921 2.2509570779996153 6.821130416697387 -0.85716730853699208 0 0.51503806187062418 0.51503806187062418 0 0.85716730853699208 1 I I #
point $-1 -49.85787071367367 2.2509570779996153 8.8750495778515113 #
loop $-1 $-1 $342 $334 #
plane-surface $-1 -54.968718527787104 0 0 1 0 0 0 0 -1 forward_v I I I I #
coedge $-1 $492 $337 $339 $496 reversed $209 $-1 #
coedge $-1 $337 $491 $616 $617 reversed $209 $-1 #
coedge $-1 $345 $340 $337 $494 forward $335 $-1 #
edge $-1 $497 -28.824648754782828 $618 -19.633029250297213 $493 $619 forward 7 unknown #
coedge $-1 $339 $338 $500 $620 reversed $131 $-1 #
edge $-1 $621 0 $497 17.846485890968037 $491 $622 forward 7 unknown #
vertex $-1 $341 $623 #
straight-curve $-1 -45.777099023301489 7.1119573165809804 15.666594408316756 0 1 0 I I #
coedge $-1 $616 $342 $345 $504 reversed $489 $-1 #
coedge $-1 $342 $616 $495 $620 forward $489 $-1 #
vertex $-1 $343 $624 #
straight-curve $-1 -54.968718527787104 10.364241745994066 28.495567319219482 0 0 1 I I #
straight-curve $-1 -54.968718527787104 10.364241745994066 0.36917013031228407 -0.51503806187062418 0 -0.85716730853699208 I I #
edge $-1 $618 -18.083587520329857 $346 -10.364241745994066 $499 $625 forward 7 unknown #
point $-1 -54.968718527787104 10.364241745994066 15.666594408316756 #
point $-1 -45.777099023301489 10.364241745994066 15.666594408316755 #
edge $-1 $626 1 $626 0 $349 $-1 forward 7 unknown #
vertex $-1 $350 $627 #
ellipse-curve $-1 -48.381179153137921 14.223914633161961 6.821130416697387 -0.85716730853699208 0 0.51503806187062418 0.51503806187062418 0 0.85716730853699208 1 I I #
point $-1 -49.85787071367367 14.223914633161961 8.8750495778515113 #
loop $-1 $-1 $361 $353 #
plane-surface $-1 -54.968718527787104 0 0 1 0 0 0 0 -1 forward_v I I I I #
coedge $-1 $514 $356 $358 $518 reversed $224 $-1 #
coedge $-1 $356 $513 $628 $629 reversed $224 $-1 #
coedge $-1 $364 $359 $356 $516 forward $354 $-1 #
edge $-1 $519 -28.824648754782828 $630 -19.633029250297213 $515 $631 forward 7 unknown #
coedge $-1 $358 $357 $522 $632 reversed $140 $-1 #
edge $-1 $633 0 $519 17.846485890968037 $513 $634 forward 7 unknown #
vertex $-1 $360 $635 #
straight-curve $-1 -45.777099023301489 13.098436094162153 15.666594408316756 0 1 0 I I #
coedge $-1 $628 $361 $364 $526 reversed $511 $-1 #
coedge $-1 $361 $628 $517 $632 forward $511 $-1 #
vertex $-1 $362 $636 #
straight-curve $-1 -54.968718527787104 22.33719930115641 28.495567319219482 0 0 1 I I #
straight-curve $-1 -54.968718527787104 22.33719930115641 0.36917013031228407 -0.51503806187062418 0 -0.85716730853699208 I I #
edge $-1 $630 -30.056545075492203 $365 -22.33719930115641 $521 $637 forward 7 unknown #
point $-1 -54.968718527787104 22.33719930115641 15.666594408316756 #
point $-1 -45.777099023301489 22.33719930115641 15.666594408316755 #
edge $-1 $638 1 $638 0 $368 $-1 forward 7 unknown #
vertex $-1 $369 $639 #
ellipse-curve $-1 -48.381179153137921 26.196872188324306 6.821130416697387 -0.85716730853699208 0 0.51503806187062418 0.51503806187062418 0 0.85716730853699208 1 I I #
point $-1 -49.85787071367367 26.196872188324306 8.8750495778515113 #
plane-surface $-1 0 0 15.666594408316756 0 0 1 1 0 0 forward_v I I I I #
coedge $-1 $544 $543 $536 $640 forward $373 $-1 #
coedge $-1 $536 $375 $377 $540 reversed $239 $-1 #
coedge $-1 $375 $535 $534 $640 reversed $239 $-1 #
coedge $-1 $383 $378 $375 $538 forward $384 $-1 #
edge $-1 $541 21.184921364125017 $641 34.259628648782055 $537 $642 forward 7 unknown #
coedge $-1 $377 $376 $544 $643 reversed $149 $-1 #
edge $-1 $644 -109.93743705557418 $541 -92.869618712592938 $535 $645 forward 7 unknown #
vertex $-1 $379 $646 #
straight-curve $-1 41.894011243130052 4.7165905750514163 15.666594408316762 0 -1 0 I I #
coedge $-1 $534 $380 $383 $548 reversed $373 $-1 #
coedge $-1 $380 $534 $539 $643 forward $373 $-1 #
vertex $-1 $381 $647 #
straight-curve $-1 54.968718527787104 13.01822265254896 79.789498692578576 0 0 1 I I #
straight-curve $-1 -29.248243490568299 13.01822265254896 75.362035366801734 0.76604443648966558 0 -0.64278761758704617 I I #
edge $-1 $641 5.8481396476567049 $385 13.01822265254896 $543 $648 forward 7 unknown #
point $-1 54.968718527787104 13.01822265254896 15.666594408316756 #
point $-1 41.894011243130066 13.01822265254896 15.666594408316755 #
edge $-1 $649 1 $649 0 $388 $-1 forward 7 unknown #
vertex $-1 $389 $650 #
ellipse-curve $-1 47.788577267871517 7.8967347919116335 9.4150588267803794 0.64278761758704617 0 0.76604443648966558 0.38302221824483279 0 -0.32139380879352308 1 I I #
point $-1 48.814387103703396 7.8967347919116335 9.8597094544765227 #
edge $-1 $651 1 $651 0 $392 $-1 forward 7 unknown #
vertex $-1 $393 $652 #
ellipse-curve $-1 47.788577267871517 10.969627508294032 9.4150588267803794 0.64278761758704617 0 0.76604443648966558 0.38302221824483279 0 -0.32139380879352308 1 I I #
point $-1 48.814387103703396 10.969627508294032 9.8597094544765227 #
plane-surface $-1 54.968718527787104 0 0 -1 0 0 0 0 1 forward_v I I I I #
coedge $-1 $401 $399 $403 $564 reversed $261 $-1 #
edge $-1 $414 -15.666594408316756 $566 15.666594408316756 $413 $653 forward 7 unknown #
vertex $-1 $564 $654 #
straight-curve $-1 -54.968718527787104 -32.295946485225961 0 0 0 -1 I I #
edge $-1 $562 -32.295946485225961 $566 32.295946485225961 $560 $655 forward 7 unknown #
straight-curve $-1 0 -32.295946485225961 -15.666594408316756 -1 0 0 I I #
vertex $-1 $406 $656 #
straight-curve $-1 0 32.295946485225961 -15.666594408316756 1 0 0 I I #
point $-1 54.968718527787104 32.295946485225961 -15.666594408316756 #
point $-1 54.968718527787104 -32.295946485225961 -15.666594408316756 #
straight-curve $-1 -54.968718527787104 0 15.666594408316756 0 -1 0 I I #
point $-1 -54.968718527787104 32.295946485225961 15.666594408316756 #
point $-1 -54.968718527787104 -32.295946485225961 15.666594408316756 #
straight-curve $-1 54.968718527787104 -32.295946485225961 0 0 0 -1 I I #
straight-curve $-1 54.968718527787104 32.295946485225961 0 0 0 -1 I I #
plane-surface $-1 54.968718527787104 0 0 -1 0 0 0 0 1 forward_v I I I I #
coedge $-1 $427 $426 $437 $587 reversed $171 $-1 #
coedge $-1 $657 $430 $427 $578 forward $424 $-1 #
edge $-1 $579 15.595883735423419 $658 32.295946485225961 $427 $659 forward 7 unknown #
vertex $-1 $578 $660 #
straight-curve $-1 -54.968718527787104 -15.595883735423419 6.8562806221192885 0 0 -1 I I #
coedge $-1 $430 $657 $432 $583 forward $424 $-1 #
straight-curve $-1 0 -15.595883735423419 15.666594408316756 -1 0 0 I I #
edge $-1 $590 -32.295946485225961 $433 -15.595883735423419 $432 $661 forward 7 unknown #
point $-1 54.968718527787104 -15.595883735423419 15.666594408316758 #
straight-curve $-1 -54.968718527787104 -11.972957555162345 11.758528080160396 0 -1 0 I I #
coedge $-1 $437 $436 $657 $662 reversed $280 $-1 #
edge $-1 $658 -15.666594408316756 $438 -11.758528080160396 $576 $663 forward 7 unknown #
point $-1 -54.968718527787104 -32.295946485225961 11.758528080160396 #
point $-1 -54.968718527787104 -15.595883735423419 11.758528080160396 #
vertex $-1 $583 $664 #
straight-curve $-1 54.968718527787104 -32.295946485225961 0 0 0 -1 I I #
coedge $-1 $456 $455 $448 $593 forward $445 $-1 #
edge $-1 $594 12.828972910902726 $597 28.126397188907198 $592 $665 forward 7 unknown #
vertex $-1 $460 $666 #
straight-curve $-1 -74.601747778084317 -5.8623275899948357 15.666594408316755 -1 0 0 I I #
edge $-1 $597 1.0013273514134706 $457 8.7206731257492596 $456 $667 forward 7 unknown #
vertex $-1 $596 $668 #
straight-curve $-1 -54.968718527787104 -5.8623275899948357 0.36917013031228407 0.51503806187062418 0 0.85716730853699208 I I #
point $-1 -45.777099023301489 -5.8623275899948357 15.666594408316755 #
point $-1 -54.968718527787104 -13.581673364330625 0.36917013031228407 #
straight-curve $-1 -54.968718527787104 0 15.666594408316756 0 -1 0 I I #
vertex $-1 $463 $669 #
point $-1 -47.866141091267302 -9.7220004771627302 7.6782977252343789 #
coedge $-1 $478 $477 $470 $605 forward $467 $-1 #
edge $-1 $606 12.828972910902726 $609 28.126397188907198 $604 $670 forward 7 unknown #
vertex $-1 $482 $671 #
straight-curve $-1 -74.601747778084317 6.1106299651675098 15.666594408316755 -1 0 0 I I #
edge $-1 $609 -4.9851514261677021 $479 2.7341943481680868 $478 $672 forward 7 unknown #
vertex $-1 $608 $673 #
straight-curve $-1 -54.968718527787104 6.1106299651675098 0.36917013031228407 0.51503806187062418 0 0.85716730853699208 I I #
point $-1 -45.777099023301489 6.1106299651675098 15.666594408316755 #
point $-1 -54.968718527787104 -1.6087158091682792 0.36917013031228407 #
straight-curve $-1 -54.968718527787104 0 15.666594408316756 0 -1 0 I I #
vertex $-1 $485 $674 #
point $-1 -47.866141091267302 2.2509570779996153 7.6782977252343789 #
coedge $-1 $500 $499 $492 $617 forward $489 $-1 #
edge $-1 $618 12.828972910902726 $621 28.126397188907198 $616 $675 forward 7 unknown #
vertex $-1 $504 $676 #
straight-curve $-1 -74.601747778084317 18.083587520329857 15.666594408316755 -1 0 0 I I #
edge $-1 $621 -10.971630203748877 $501 -3.2522844294130859 $500 $677 forward 7 unknown #
vertex $-1 $620 $678 #
straight-curve $-1 -54.968718527787104 18.083587520329857 0.36917013031228407 0.51503806187062418 0 0.85716730853699208 I I #
point $-1 -45.777099023301489 18.083587520329857 15.666594408316755 #
point $-1 -54.968718527787104 10.364241745994066 0.36917013031228407 #
straight-curve $-1 -54.968718527787104 0 15.666594408316756 0 -1 0 I I #
vertex $-1 $507 $679 #
point $-1 -47.866141091267302 14.223914633161961 7.6782977252343789 #
coedge $-1 $522 $521 $514 $629 forward $511 $-1 #
edge $-1 $630 12.828972910902726 $633 28.126397188907198 $628 $680 forward 7 unknown #
vertex $-1 $526 $681 #
straight-curve $-1 -74.601747778084317 30.056545075492203 15.666594408316755 -1 0 0 I I #
edge $-1 $633 -16.958108981330049 $523 -9.2387632069942569 $522 $682 forward 7 unknown #
vertex $-1 $632 $683 #
straight-curve $-1 -54.968718527787104 30.056545075492203 0.36917013031228407 0.51503806187062418 0 0.85716730853699208 I I #
point $-1 -45.777099023301489 30.056545075492203 15.666594408316755 #
point $-1 -54.968718527787104 22.33719930115641 0.36917013031228407 #
straight-curve $-1 -54.968718527787104 0 15.666594408316756 0 -1 0 I I #
vertex $-1 $529 $684 #
point $-1 -47.866141091267302 26.196872188324306 7.6782977252343789 #
edge $-1 $641 64.122904284261821 $644 75.09388657435521 $534 $685 forward 7 unknown #
vertex $-1 $548 $686 #
straight-curve $-1 20.709089879005049 5.8481396476567049 15.666594408316755 1 0 0 I I #
edge $-1 $644 1.1315490726052886 $545 8.3016320774975441 $544 $687 forward 7 unknown #
vertex $-1 $643 $688 #
straight-curve $-1 -29.248243490568299 5.8481396476567049 75.362035366801734 -0.76604443648966558 0 0.64278761758704617 I I #
point $-1 41.894011243130066 5.8481396476567049 15.666594408316755 #
point $-1 54.968718527787104 13.01822265254896 4.6956121182233659 #
straight-curve $-1 54.968718527787104 0 15.666594408316756 0 1 0 I I #
vertex $-1 $551 $689 #
point $-1 48.171599486116357 7.8967347919116335 9.0936650179868561 #
vertex $-1 $555 $690 #
point $-1 48.171599486116357 10.969627508294032 9.0936650179868561 #
straight-curve $-1 -54.968718527787104 32.295946485225961 0 0 0 -1 I I #
point $-1 -54.968718527787104 -32.295946485225961 -15.666594408316756 #
straight-curve $-1 -54.968718527787104 0 -15.666594408316756 0 1 0 I I #
point $-1 -54.968718527787104 32.295946485225961 -15.666594408316756 #
coedge $-1 $581 $577 $586 $662 forward $424 $-1 #
vertex $-1 $578 $691 #
straight-curve $-1 -54.968718527787104 0 15.666594408316756 0 -1 0 I I #
point $-1 -54.968718527787104 -15.595883735423419 15.666594408316758 #
straight-curve $-1 54.968718527787104 0 15.666594408316756 0 1 0 I I #
edge $-1 $658 -54.968718527787104 $590 54.968718527787104 $586 $692 forward 7 unknown #
straight-curve $-1 -54.968718527787104 -32.295946485225961 0 0 0 -1 I I #
point $-1 54.968718527787104 -32.295946485225961 15.666594408316756 #
straight-curve $-1 -54.968718527787104 -5.8623275899948357 28.495567319219482 0 0 -1 I I #
point $-1 -54.968718527787104 -5.8623275899948357 15.666594408316756 #
straight-curve $-1 -54.968718527787104 -4.8610002385813651 0.36917013031227963 0 -1 0 I I #
point $-1 -54.968718527787104 -5.8623275899948357 0.36917013031228407 #
point $-1 -47.524011844600935 -9.7220004771627302 6.3060923548267622 #
straight-curve $-1 -54.968718527787104 6.1106299651675098 28.495567319219482 0 0 -1 I I #
point $-1 -54.968718527787104 6.1106299651675098 15.666594408316756 #
straight-curve $-1 -54.968718527787104 1.1254785389998077 0.36917013031227963 0 -1 0 I I #
point $-1 -54.968718527787104 6.1106299651675098 0.36917013031228407 #
point $-1 -47.524011844600935 2.2509570779996153 6.3060923548267622 #
straight-curve $-1 -54.968718527787104 18.083587520329857 28.495567319219482 0 0 -1 I I #
point $-1 -54.968718527787104 18.083587520329857 15.666594408316756 #
straight-curve $-1 -54.968718527787104 7.1119573165809804 0.36917013031227963 0 -1 0 I I #
point $-1 -54.968718527787104 18.083587520329857 0.36917013031228407 #
point $-1 -47.524011844600935 14.223914633161961 6.3060923548267622 #
straight-curve $-1 -54.968718527787104 30.056545075492203 28.495567319219482 0 0 -1 I I #
point $-1 -54.968718527787104 30.056545075492203 15.666594408316756 #
straight-curve $-1 -54.968718527787104 13.098436094162153 0.36917013031227963 0 -1 0 I I #
point $-1 -54.968718527787104 30.056545075492203 0.36917013031228407 #
point $-1 -47.524011844600935 26.196872188324306 6.3060923548267622 #
straight-curve $-1 54.968718527787104 5.8481396476567049 79.789498692578576 0 0 -1 I I #
point $-1 54.968718527787104 5.8481396476567049 15.666594408316756 #
straight-curve $-1 54.968718527787097 4.7165905750514163 4.6956121182233588 0 1 0 I I #
point $-1 54.968718527787104 5.8481396476567049 4.6956121182233659 #
point $-1 47.467183459078001 7.8967347919116335 9.032036608535547 #
point $-1 47.467183459078001 10.969627508294032 9.032036608535547 #
point $-1 -54.968718527787104 -32.295946485225961 15.666594408316756 #
straight-curve $-1 0 -32.295946485225961 15.666594408316756 1 0 0 I I #
End-of-ACIS-data 