500 0 10 0           
7 Unknown 11 ACIS 5.0 NT 24 Fri Mar 26 01:37:53 1999 
-1 9.9999999999999995e-007 1e-010 
body $-1 $10 $-1 $11 #
body $-1 $12 $-1 $13 #
body $-1 $14 $-1 $15 #
body $-1 $16 $-1 $17 #
body $-1 $18 $-1 $19 #
body $-1 $20 $-1 $21 #
body $-1 $22 $-1 $23 #
body $-1 $24 $-1 $25 #
body $-1 $26 $-1 $27 #
body $-1 $28 $-1 $29 #
lump $-1 $-1 $30 $0 #
transform $-1 1 0 0 0 1 0 0 0 1 46.451612903225808 29.303912177574407 11.022749691869125 1 rotate no_reflect no_shear #
lump $-1 $-1 $31 $1 #
transform $-1 1 0 0 0 1 0 0 0 1 46.451612903225808 29.303912177574407 11.022749691869125 1 rotate no_reflect no_shear #
lump $-1 $-1 $32 $2 #
transform $-1 1 0 0 0 1 0 0 0 1 46.451612903225808 29.303912177574407 11.022749691869125 1 rotate no_reflect no_shear #
lump $-1 $-1 $33 $3 #
transform $-1 1 0 0 0 1 0 0 0 1 46.451612903225808 29.303912177574407 11.022749691869125 1 rotate no_reflect no_shear #
lump $-1 $-1 $34 $4 #
transform $-1 1 0 0 0 1 0 0 0 1 46.451612903225808 29.303912177574407 11.022749691869125 1 rotate no_reflect no_shear #
lump $-1 $-1 $35 $5 #
transform $-1 1 0 0 0 1 0 0 0 1 46.451612903225808 29.303912177574407 11.022749691869125 1 rotate no_reflect no_shear #
lump $-1 $-1 $36 $6 #
transform $-1 1 0 0 0 1 0 0 0 1 46.451612903225808 29.303912177574407 11.022749691869125 1 rotate no_reflect no_shear #
lump $-1 $-1 $37 $7 #
transform $-1 1 0 0 0 1 0 0 0 1 46.451612903225808 29.303912177574407 11.022749691869125 1 rotate no_reflect no_shear #
lump $-1 $-1 $38 $8 #
transform $-1 1 0 0 0 1 0 0 0 1 46.451612903225808 29.303912177574407 11.022749691869125 1 rotate no_reflect no_shear #
lump $-1 $-1 $39 $9 #
transform $-1 1 0 0 0 1 0 0 0 1 46.451612903225808 29.303912177574407 11.022749691869125 1 rotate no_reflect no_shear #
shell $-1 $-1 $-1 $40 $-1 $10 #
shell $-1 $-1 $-1 $41 $-1 $12 #
shell $-1 $-1 $-1 $42 $-1 $14 #
shell $-1 $-1 $-1 $43 $-1 $16 #
shell $-1 $-1 $-1 $44 $-1 $18 #
shell $-1 $-1 $-1 $45 $-1 $20 #
shell $-1 $-1 $-1 $46 $-1 $22 #
shell $-1 $-1 $-1 $47 $-1 $24 #
shell $-1 $-1 $-1 $48 $-1 $26 #
shell $-1 $-1 $-1 $49 $-1 $28 #
face $-1 $50 $51 $30 $-1 $52 forward single #
face $-1 $53 $54 $31 $-1 $55 forward single #
face $-1 $56 $57 $32 $-1 $58 reversed single #
face $-1 $59 $60 $33 $-1 $61 forward single #
face $-1 $62 $63 $34 $-1 $64 forward single #
face $-1 $65 $66 $35 $-1 $67 forward single #
face $-1 $68 $69 $36 $-1 $70 reversed single #
face $-1 $71 $72 $37 $-1 $73 forward single #
face $-1 $74 $75 $38 $-1 $76 forward single #
face $-1 $77 $78 $39 $-1 $79 forward single #
face $-1 $80 $81 $30 $-1 $82 reversed single #
loop $-1 $-1 $83 $40 #
plane-surface $-1 0 0 11.022749691869125 0 0 1 1 0 0 forward_v I I I I #
face $-1 $84 $85 $31 $-1 $86 reversed single #
loop $-1 $-1 $87 $41 #
plane-surface $-1 0 -24.032762429526763 0.95594820352814702 0 0 1 1 0 0 forward_v I I I I #
face $-1 $88 $89 $32 $-1 $90 reversed single #
loop $-1 $-1 $91 $42 #
plane-surface $-1 -123.47187845844333 2.9803449476509982 59.908200249516213 0 1 0 -0.82903758062907751 0 0.55919289150049634 forward_v I I I I #
face $-1 $92 $93 $33 $-1 $94 forward single #
loop $-1 $95 $96 $43 #
cone-surface $-1 -45.003284077297991 5.3832559380545142 9.2104667907258122 0.82903758062907751 0 -0.55919289150049634 0.27959644575024817 0 0.41451879031453875 1 I I 0 1 0.5 forward I I I I #
face $-1 $97 $98 $34 $-1 $99 forward single #
loop $-1 $100 $101 $44 #
cone-surface $-1 -45.003284077297991 8.9876224236597828 9.2104667907258122 0.82903758062907751 0 -0.55919289150049634 0.27959644575024817 0 0.41451879031453875 1 I I 0 1 0.5 forward I I I I #
face $-1 $102 $103 $35 $-1 $104 forward single #
loop $-1 $105 $106 $45 #
cone-surface $-1 -45.003284077297991 12.591988909265051 9.2104667907258122 0.82903758062907751 0 -0.55919289150049634 0.27959644575024817 0 0.41451879031453875 1 I I 0 1 0.5 forward I I I I #
face $-1 $107 $108 $36 $-1 $109 reversed single #
loop $-1 $-1 $110 $46 #
plane-surface $-1 71.521054990010128 14.994899899668567 136.92846580473372 0 -1 0 -0.82903758062907751 0 -0.55919289150049634 forward_v I I I I #
face $-1 $111 $112 $37 $-1 $113 forward single #
loop $-1 $114 $115 $47 #
cone-surface $-1 45.003284077298005 5.3832559380545142 9.2104667907258158 -0.82903758062907751 0 -0.55919289150049634 0.27959644575024817 0 -0.41451879031453875 1 I I 0 1 0.5 forward I I I I #
face $-1 $116 $117 $38 $-1 $118 forward single #
loop $-1 $119 $120 $48 #
cone-surface $-1 45.003284077298005 8.9876224236597828 9.2104667907258158 -0.82903758062907751 0 -0.55919289150049634 0.27959644575024817 0 -0.41451879031453875 1 I I 0 1 0.5 forward I I I I #
face $-1 $121 $122 $39 $-1 $123 forward single #
loop $-1 $124 $125 $49 #
cone-surface $-1 45.003284077298005 12.591988909265051 9.2104667907258158 -0.82903758062907751 0 -0.55919289150049634 0.27959644575024817 0 -0.41451879031453875 1 I I 0 1 0.5 forward I I I I #
face $-1 $126 $127 $30 $-1 $128 reversed single #
loop $-1 $-1 $129 $50 #
plane-surface $-1 0 0 -11.022749691869125 0 0 1 1 0 0 forward_v I I I I #
coedge $-1 $130 $131 $132 $133 forward $51 $-1 #
face $-1 $134 $135 $31 $-1 $136 reversed single #
loop $-1 $-1 $137 $53 #
plane-surface $-1 0 -24.032762429526763 -4.9729300648307682 0 0 1 1 0 0 forward_v I I I I #
coedge $-1 $138 $139 $140 $141 reversed $54 $-1 #
face $-1 $142 $143 $32 $-1 $144 reversed single #
loop $-1 $-1 $145 $56 #
plane-surface $-1 -46.451612903225808 8.9876224236597828 7.9573767810830063 -0.82903758062907751 0 0.55919289150049634 0.55919289150049634 0 0.82903758062907751 forward_v I I I I #
coedge $-1 $146 $147 $148 $149 reversed $57 $-1 #
face $-1 $-1 $150 $33 $-1 $151 forward single #
loop $-1 $152 $153 $59 #
cone-surface $-1 -44.38150589182618 5.3832559380545142 8.7910721221004398 0.82903758062907751 0 -0.55919289150049634 0.13979822287512408 0 0.20725939515726938 1 I I -0.70710678118654746 0.70710678118654746 0.25 forward I I I I #
loop $-1 $-1 $154 $43 #
coedge $-1 $96 $96 $155 $156 reversed $60 $-1 #
face $-1 $-1 $157 $34 $-1 $158 forward single #
loop $-1 $159 $160 $62 #
cone-surface $-1 -44.38150589182618 8.9876224236597828 8.7910721221004398 0.82903758062907751 0 -0.55919289150049634 0.13979822287512408 0 0.20725939515726938 1 I I -0.70710678118654746 0.70710678118654746 0.25 forward I I I I #
loop $-1 $-1 $161 $44 #
coedge $-1 $101 $101 $162 $163 reversed $63 $-1 #
face $-1 $-1 $164 $35 $-1 $165 forward single #
loop $-1 $166 $167 $65 #
cone-surface $-1 -44.38150589182618 12.591988909265051 8.7910721221004398 0.82903758062907751 0 -0.55919289150049634 0.13979822287512408 0 0.20725939515726938 1 I I -0.70710678118654746 0.70710678118654746 0.25 forward I I I I #
loop $-1 $-1 $168 $45 #
coedge $-1 $106 $106 $169 $170 reversed $66 $-1 #
face $-1 $171 $172 $36 $-1 $173 reversed single #
loop $-1 $-1 $174 $68 #
plane-surface $-1 -5.4992105652073917 8.9876224236597828 84.977642336300505 0.82903758062907751 0 0.55919289150049634 0.55919289150049634 0 -0.82903758062907751 forward_v I I I I #
coedge $-1 $175 $176 $177 $178 reversed $69 $-1 #
face $-1 $-1 $179 $37 $-1 $180 forward single #
loop $-1 $181 $182 $71 #
cone-surface $-1 44.381505891826194 5.3832559380545142 8.7910721221004433 -0.82903758062907751 0 -0.55919289150049634 0.13979822287512408 0 -0.20725939515726938 1 I I -0.70710678118654746 0.70710678118654746 0.25 forward I I I I #
loop $-1 $-1 $183 $47 #
coedge $-1 $115 $115 $184 $185 reversed $72 $-1 #
face $-1 $-1 $186 $38 $-1 $187 forward single #
loop $-1 $188 $189 $74 #
cone-surface $-1 44.381505891826194 8.9876224236597828 8.7910721221004433 -0.82903758062907751 0 -0.55919289150049634 0.13979822287512408 0 -0.20725939515726938 1 I I -0.70710678118654746 0.70710678118654746 0.25 forward I I I I #
loop $-1 $-1 $190 $48 #
coedge $-1 $120 $120 $191 $192 reversed $75 $-1 #
face $-1 $-1 $193 $39 $-1 $194 forward single #
loop $-1 $195 $196 $77 #
cone-surface $-1 44.381505891826194 12.591988909265051 8.7910721221004433 -0.82903758062907751 0 -0.55919289150049634 0.13979822287512408 0 -0.20725939515726938 1 I I -0.70710678118654746 0.70710678118654746 0.25 forward I I I I #
loop $-1 $-1 $197 $49 #
coedge $-1 $125 $125 $198 $199 reversed $78 $-1 #
face $-1 $200 $201 $30 $-1 $202 reversed single #
loop $-1 $-1 $203 $80 #
plane-surface $-1 0 -29.303912177574407 0 0 1 0 0 0 1 forward_v I I I I #
coedge $-1 $204 $205 $206 $207 forward $81 $-1 #
coedge $-1 $208 $83 $209 $210 forward $51 $-1 #
coedge $-1 $83 $208 $211 $212 forward $51 $-1 #
coedge $-1 $213 $214 $83 $133 reversed $215 $-1 #
edge $-1 $216 -29.303912177574407 $217 29.303912177574407 $132 $218 forward 7 unknown #
face $-1 $219 $220 $31 $-1 $221 reversed single #
loop $-1 $-1 $222 $84 #
plane-surface $-1 0 -18.761612681479118 -2.0084909306513108 0 -1 0 0 0 -1 forward_v I I I I #
coedge $-1 $223 $224 $225 $226 reversed $85 $-1 #
coedge $-1 $227 $87 $228 $229 forward $54 $-1 #
coedge $-1 $87 $227 $230 $231 reversed $54 $-1 #
coedge $-1 $232 $233 $87 $141 forward $234 $-1 #
edge $-1 $235 6.7452314667157367 $236 17.287530962811026 $140 $237 forward 7 unknown #
face $-1 $238 $239 $32 $-1 $240 reversed single #
loop $-1 $-1 $241 $88 #
plane-surface $-1 -123.47187845844333 14.994899899668567 59.908200249516213 0 -1 0 0.82903758062907751 0 -0.55919289150049634 forward_v I I I I #
coedge $-1 $242 $243 $244 $245 reversed $89 $-1 #
coedge $-1 $147 $91 $246 $247 reversed $57 $-1 #
coedge $-1 $91 $146 $242 $248 reversed $57 $-1 #
coedge $-1 $244 $249 $91 $149 forward $250 $-1 #
edge $-1 $251 15.284326325995856 $252 17.351946397222413 $148 $253 forward 7 unknown #
loop $-1 $-1 $155 $92 #
plane-surface $-1 -46.451612903225808 8.9876224236597828 7.9573767810830063 -0.82903758062907751 0 0.55919289150049634 0.55919289150049634 0 0.82903758062907751 forward_v I I I I #
loop $-1 $-1 $254 $59 #
coedge $-1 $153 $153 $154 $255 reversed $93 $-1 #
coedge $-1 $154 $154 $153 $255 forward $95 $-1 #
coedge $-1 $155 $155 $96 $156 forward $150 $-1 #
edge $-1 $256 0 $256 6.2831853071796004 $155 $257 forward 7 unknown #
loop $-1 $-1 $162 $97 #
plane-surface $-1 -46.451612903225808 8.9876224236597828 7.9573767810830063 -0.82903758062907751 0 0.55919289150049634 0.55919289150049634 0 0.82903758062907751 forward_v I I I I #
loop $-1 $-1 $258 $62 #
coedge $-1 $160 $160 $161 $259 reversed $98 $-1 #
coedge $-1 $161 $161 $160 $259 forward $100 $-1 #
coedge $-1 $162 $162 $101 $163 forward $157 $-1 #
edge $-1 $260 0 $260 6.2831853071796004 $162 $261 forward 7 unknown #
loop $-1 $-1 $169 $102 #
plane-surface $-1 -46.451612903225808 8.9876224236597828 7.9573767810830063 -0.82903758062907751 0 0.55919289150049634 0.55919289150049634 0 0.82903758062907751 forward_v I I I I #
loop $-1 $-1 $262 $65 #
coedge $-1 $167 $167 $168 $263 reversed $103 $-1 #
coedge $-1 $168 $168 $167 $263 forward $105 $-1 #
coedge $-1 $169 $169 $106 $170 forward $164 $-1 #
edge $-1 $264 0 $264 6.2831853071796004 $169 $265 forward 7 unknown #
face $-1 $266 $267 $36 $-1 $268 forward single #
loop $-1 $-1 $269 $107 #
plane-surface $-1 71.521054990010128 2.9803449476509982 136.92846580473372 0 1 0 0.82903758062907751 0 0.55919289150049634 forward_v I I I I #
coedge $-1 $270 $271 $272 $273 reversed $108 $-1 #
coedge $-1 $176 $110 $274 $275 reversed $69 $-1 #
coedge $-1 $110 $175 $270 $276 reversed $69 $-1 #
coedge $-1 $272 $277 $110 $178 forward $267 $-1 #
edge $-1 $278 -10.691085408220744 $279 -8.6234653369941796 $177 $280 forward 7 unknown #
loop $-1 $-1 $184 $111 #
plane-surface $-1 -5.4992105652073917 8.9876224236597828 84.977642336300505 0.82903758062907751 0 0.55919289150049634 0.55919289150049634 0 -0.82903758062907751 forward_v I I I I #
loop $-1 $-1 $281 $71 #
coedge $-1 $182 $182 $183 $282 reversed $112 $-1 #
coedge $-1 $183 $183 $182 $282 forward $114 $-1 #
coedge $-1 $184 $184 $115 $185 forward $179 $-1 #
edge $-1 $283 0 $283 6.2831853071796004 $184 $284 forward 7 unknown #
loop $-1 $-1 $191 $116 #
plane-surface $-1 -5.4992105652073917 8.9876224236597828 84.977642336300505 0.82903758062907751 0 0.55919289150049634 0.55919289150049634 0 -0.82903758062907751 forward_v I I I I #
loop $-1 $-1 $285 $74 #
coedge $-1 $189 $189 $190 $286 reversed $117 $-1 #
coedge $-1 $190 $190 $189 $286 forward $119 $-1 #
coedge $-1 $191 $191 $120 $192 forward $186 $-1 #
edge $-1 $287 0 $287 6.2831853071796004 $191 $288 forward 7 unknown #
loop $-1 $-1 $198 $121 #
plane-surface $-1 -5.4992105652073917 8.9876224236597828 84.977642336300505 0.82903758062907751 0 0.55919289150049634 0.55919289150049634 0 -0.82903758062907751 forward_v I I I I #
loop $-1 $-1 $289 $77 #
coedge $-1 $196 $196 $197 $290 reversed $122 $-1 #
coedge $-1 $197 $197 $196 $290 forward $124 $-1 #
coedge $-1 $198 $198 $125 $199 forward $193 $-1 #
edge $-1 $291 0 $291 6.2831853071796004 $198 $292 forward 7 unknown #
face $-1 $293 $294 $30 $-1 $295 reversed single #
loop $-1 $-1 $296 $126 #
plane-surface $-1 -46.451612903225808 0 0 1 0 0 0 0 -1 forward_v I I I I #
coedge $-1 $297 $211 $298 $299 forward $127 $-1 #
coedge $-1 $300 $129 $297 $301 forward $81 $-1 #
coedge $-1 $129 $300 $302 $303 forward $81 $-1 #
coedge $-1 $214 $213 $129 $207 reversed $215 $-1 #
edge $-1 $304 -29.303912177574407 $305 29.303912177574407 $206 $306 forward 7 unknown #
coedge $-1 $131 $130 $307 $308 forward $51 $-1 #
coedge $-1 $309 $310 $130 $210 reversed $294 $-1 #
edge $-1 $217 -46.451612903225808 $311 46.451612903225808 $209 $312 forward 7 unknown #
coedge $-1 $203 $313 $131 $212 reversed $127 $-1 #
edge $-1 $314 -46.451612903225808 $216 46.451612903225808 $211 $315 forward 7 unknown #
coedge $-1 $206 $132 $313 $316 forward $215 $-1 #
coedge $-1 $132 $206 $309 $317 reversed $215 $-1 #
loop $-1 $-1 $213 $293 #
vertex $-1 $133 $318 #
vertex $-1 $133 $319 #
straight-curve $-1 46.451612903225808 0 11.022749691869125 0 1 0 I I #
face $-1 $320 $321 $31 $-1 $322 reversed single #
loop $-1 $-1 $323 $134 #
plane-surface $-1 -46.451612903225808 0 0 1 0 0 0 0 -1 forward_v I I I I #
coedge $-1 $324 $228 $233 $325 reversed $135 $-1 #
coedge $-1 $326 $137 $327 $328 reversed $85 $-1 #
coedge $-1 $137 $326 $324 $329 forward $85 $-1 #
coedge $-1 $233 $232 $137 $226 forward $234 $-1 #
edge $-1 $330 -17.287530962811026 $331 -6.7452314667157367 $225 $332 forward 7 unknown #
coedge $-1 $139 $138 $323 $333 reversed $54 $-1 #
coedge $-1 $222 $334 $138 $229 reversed $135 $-1 #
edge $-1 $235 -46.451612903225808 $335 46.451612903225808 $228 $336 forward 7 unknown #
coedge $-1 $337 $338 $139 $231 forward $321 $-1 #
edge $-1 $236 -46.451612903225808 $339 46.451612903225808 $230 $340 forward 7 unknown #
coedge $-1 $225 $140 $338 $341 forward $234 $-1 #
coedge $-1 $140 $225 $222 $325 forward $234 $-1 #
loop $-1 $-1 $140 $320 #
vertex $-1 $141 $342 #
vertex $-1 $341 $343 #
straight-curve $-1 46.451612903225808 -12.016381214763381 0.95594820352814702 0 -1 0 I I #
face $-1 $-1 $250 $32 $-1 $344 forward single #
loop $-1 $-1 $345 $142 #
plane-surface $-1 -46.451612903225808 0 0 1 0 0 0 0 -1 forward_v I I I I #
coedge $-1 $346 $347 $348 $349 reversed $143 $-1 #
coedge $-1 $350 $145 $147 $248 forward $89 $-1 #
coedge $-1 $145 $350 $346 $351 forward $89 $-1 #
coedge $-1 $348 $148 $145 $245 forward $250 $-1 #
edge $-1 $252 -1.5134662641788932 $352 10.501088687838676 $244 $353 forward 7 unknown #
coedge $-1 $354 $355 $146 $247 forward $239 $-1 #
edge $-1 $356 -21.9967233436751 $251 -18.931350432888983 $246 $357 forward 7 unknown #
edge $-1 $252 -3.6975077878376772 $356 0 $147 $358 forward 7 unknown #
coedge $-1 $148 $348 $354 $359 forward $250 $-1 #
loop $-1 $-1 $348 $238 #
vertex $-1 $247 $360 #
vertex $-1 $149 $361 #
straight-curve $-1 -61.735939229221664 2.9803449476509982 11.022749691869123 1 0 0 I I #
coedge $-1 $254 $254 $-1 $362 reversed $152 $-1 #
edge $-1 $363 0 $363 6.2831853071796004 $153 $364 forward 7 unknown #
vertex $-1 $156 $365 #
ellipse-curve $-1 -45.417802867612536 5.3832559380545142 9.4900632364760629 -0.82903758062907751 0 0.55919289150049634 0.27959644575024817 0 0.41451879031453875 1 I I #
coedge $-1 $258 $258 $-1 $366 reversed $159 $-1 #
edge $-1 $367 0 $367 6.2831853071796004 $160 $368 forward 7 unknown #
vertex $-1 $163 $369 #
ellipse-curve $-1 -45.417802867612536 8.9876224236597828 9.4900632364760629 -0.82903758062907751 0 0.55919289150049634 0.27959644575024817 0 0.41451879031453875 1 I I #
coedge $-1 $262 $262 $-1 $370 reversed $166 $-1 #
edge $-1 $371 0 $371 6.2831853071796004 $167 $372 forward 7 unknown #
vertex $-1 $170 $373 #
ellipse-curve $-1 -45.417802867612536 12.591988909265051 9.4900632364760629 -0.82903758062907751 0 0.55919289150049634 0.27959644575024817 0 0.41451879031453875 1 I I #
face $-1 $-1 $374 $36 $-1 $375 reversed single #
loop $-1 $-1 $177 $171 #
plane-surface $-1 0 0 11.022749691869125 0 0 1 1 0 0 forward_v I I I I #
coedge $-1 $376 $377 $378 $379 reversed $172 $-1 #
coedge $-1 $380 $174 $176 $276 forward $108 $-1 #
coedge $-1 $174 $380 $376 $381 forward $108 $-1 #
coedge $-1 $378 $177 $174 $273 forward $267 $-1 #
edge $-1 $279 -10.501088687838676 $382 1.5134662641788932 $272 $383 forward 7 unknown #
coedge $-1 $384 $385 $175 $275 forward $374 $-1 #
edge $-1 $386 -60.506856121283874 $278 -57.441483210497736 $274 $387 forward 7 unknown #
edge $-1 $279 89.205718018613908 $386 92.903225806451616 $176 $388 forward 7 unknown #
coedge $-1 $177 $378 $384 $389 forward $267 $-1 #
vertex $-1 $275 $390 #
vertex $-1 $178 $391 #
straight-curve $-1 35.760527495005064 14.994899899668567 11.022749691869123 -1 0 0 I I #
coedge $-1 $281 $281 $-1 $392 reversed $181 $-1 #
edge $-1 $393 0 $393 6.2831853071796004 $182 $394 forward 7 unknown #
vertex $-1 $185 $395 #
ellipse-curve $-1 45.417802867612529 5.3832559380545142 9.4900632364760522 0.82903758062907751 0 0.55919289150049634 0.27959644575024817 0 -0.41451879031453875 1 I I #
coedge $-1 $285 $285 $-1 $396 reversed $188 $-1 #
edge $-1 $397 0 $397 6.2831853071796004 $189 $398 forward 7 unknown #
vertex $-1 $192 $399 #
ellipse-curve $-1 45.417802867612529 8.9876224236597828 9.4900632364760522 0.82903758062907751 0 0.55919289150049634 0.27959644575024817 0 -0.41451879031453875 1 I I #
coedge $-1 $289 $289 $-1 $400 reversed $195 $-1 #
edge $-1 $401 0 $401 6.2831853071796004 $196 $402 forward 7 unknown #
vertex $-1 $199 $403 #
ellipse-curve $-1 45.417802867612529 12.591988909265051 9.4900632364760522 0.82903758062907751 0 0.55919289150049634 0.27959644575024817 0 -0.41451879031453875 1 I I #
face $-1 $-1 $215 $30 $-1 $404 reversed single #
loop $-1 $-1 $309 $200 #
plane-surface $-1 0 29.303912177574407 0 0 -1 0 0 0 -1 forward_v I I I I #
coedge $-1 $405 $307 $310 $406 forward $201 $-1 #
coedge $-1 $313 $203 $204 $301 reversed $127 $-1 #
coedge $-1 $307 $405 $203 $299 reversed $201 $-1 #
edge $-1 $314 -11.022749691869125 $407 11.022749691869125 $298 $408 forward 7 unknown #
coedge $-1 $205 $204 $405 $409 forward $81 $-1 #
edge $-1 $305 -46.451612903225808 $407 46.451612903225808 $297 $410 forward 7 unknown #
coedge $-1 $310 $309 $205 $303 reversed $294 $-1 #
edge $-1 $411 -46.451612903225808 $304 46.451612903225808 $302 $412 forward 7 unknown #
vertex $-1 $207 $413 #
vertex $-1 $316 $414 #
straight-curve $-1 46.451612903225808 0 -11.022749691869125 0 -1 0 I I #
coedge $-1 $296 $298 $208 $308 reversed $201 $-1 #
edge $-1 $311 -29.303912177574407 $314 29.303912177574407 $307 $415 forward 7 unknown #
coedge $-1 $302 $209 $214 $317 forward $294 $-1 #
coedge $-1 $209 $302 $296 $406 reversed $294 $-1 #
vertex $-1 $210 $416 #
straight-curve $-1 0 29.303912177574407 11.022749691869125 -1 0 0 I I #
coedge $-1 $211 $297 $213 $316 reversed $127 $-1 #
vertex $-1 $308 $417 #
straight-curve $-1 0 -29.303912177574407 11.022749691869125 1 0 0 I I #
edge $-1 $216 -11.022749691869125 $305 11.022749691869125 $213 $418 forward 7 unknown #
edge $-1 $217 -11.022749691869125 $304 11.022749691869125 $214 $419 forward 7 unknown #
point $-1 46.451612903225808 -29.303912177574407 11.022749691869125 #
point $-1 46.451612903225808 29.303912177574407 11.022749691869125 #
face $-1 $-1 $234 $31 $-1 $420 reversed single #
loop $-1 $-1 $230 $219 #
plane-surface $-1 0 -29.303912177574407 0 0 1 0 0 0 1 forward_v I I I I #
coedge $-1 $421 $422 $227 $333 forward $220 $-1 #
coedge $-1 $334 $222 $224 $329 reversed $135 $-1 #
edge $-1 $331 -3.9686845995051128 $235 1.9601936688538024 $233 $423 forward 7 unknown #
coedge $-1 $224 $223 $424 $425 reversed $85 $-1 #
coedge $-1 $338 $337 $223 $328 forward $321 $-1 #
edge $-1 $426 -46.451612903225808 $330 46.451612903225808 $327 $427 forward 7 unknown #
edge $-1 $428 -46.451612903225808 $331 46.451612903225808 $324 $429 forward 7 unknown #
vertex $-1 $328 $430 #
vertex $-1 $226 $431 #
straight-curve $-1 46.451612903225808 -12.016381214763381 -4.9729300648307682 0 1 0 I I #
edge $-1 $339 -17.287530962811026 $335 -6.7452314667157367 $323 $432 forward 7 unknown #
coedge $-1 $228 $324 $421 $433 reversed $135 $-1 #
vertex $-1 $333 $434 #
straight-curve $-1 0 -18.761612681479118 0.95594820352814702 -1 0 0 I I #
coedge $-1 $327 $230 $422 $435 forward $321 $-1 #
coedge $-1 $230 $327 $232 $341 reversed $321 $-1 #
vertex $-1 $435 $436 #
straight-curve $-1 0 -29.303912177574407 0.95594820352814702 -1 0 0 I I #
edge $-1 $236 -0.95594820352814702 $330 4.9729300648307682 $232 $437 forward 7 unknown #
point $-1 46.451612903225808 -18.761612681479118 0.95594820352814702 #
point $-1 46.451612903225808 -29.303912177574407 0.95594820352814702 #
plane-surface $-1 0 0 11.022749691869125 0 0 1 1 0 0 forward_v I I I I #
coedge $-1 $355 $354 $347 $438 forward $239 $-1 #
coedge $-1 $347 $241 $243 $351 reversed $143 $-1 #
coedge $-1 $241 $346 $345 $438 reversed $143 $-1 #
coedge $-1 $249 $244 $241 $349 forward $250 $-1 #
edge $-1 $352 -17.351946397222413 $439 -15.284326325995856 $348 $440 forward 7 unknown #
coedge $-1 $243 $242 $355 $441 reversed $89 $-1 #
edge $-1 $442 0 $352 3.6975077878376772 $346 $443 forward 7 unknown #
vertex $-1 $245 $444 #
straight-curve $-1 -44.383992831999251 4.4938112118298914 11.022749691869125 0 1 0 I I #
coedge $-1 $345 $246 $249 $359 reversed $239 $-1 #
coedge $-1 $246 $345 $350 $441 forward $239 $-1 #
vertex $-1 $247 $445 #
straight-curve $-1 -46.451612903225808 2.9803449476509982 29.954100124758106 0 0 1 I I #
straight-curve $-1 -46.451612903225808 2.9803449476509982 7.9573767810830063 -0.55919289150049634 0 -0.82903758062907751 I I #
edge $-1 $439 -14.994899899668567 $251 -2.9803449476509982 $354 $446 forward 7 unknown #
point $-1 -46.451612903225808 2.9803449476509982 11.022749691869125 #
point $-1 -44.383992831999251 2.9803449476509982 11.022749691869125 #
edge $-1 $447 1 $447 0 $254 $-1 forward 7 unknown #
vertex $-1 $255 $448 #
ellipse-curve $-1 -44.588765286983453 5.3832559380545142 8.9308703449755633 -0.82903758062907751 0 0.55919289150049634 0.27959644575024817 0 0.41451879031453875 1 I I #
point $-1 -45.138206421862279 5.3832559380545142 9.9045820267905995 #
edge $-1 $449 1 $449 0 $258 $-1 forward 7 unknown #
vertex $-1 $259 $450 #
ellipse-curve $-1 -44.588765286983453 8.9876224236597828 8.9308703449755633 -0.82903758062907751 0 0.55919289150049634 0.27959644575024817 0 0.41451879031453875 1 I I #
point $-1 -45.138206421862279 8.9876224236597828 9.9045820267905995 #
edge $-1 $451 1 $451 0 $262 $-1 forward 7 unknown #
vertex $-1 $263 $452 #
ellipse-curve $-1 -44.588765286983453 12.591988909265051 8.9308703449755633 -0.82903758062907751 0 0.55919289150049634 0.27959644575024817 0 0.41451879031453875 1 I I #
point $-1 -45.138206421862279 12.591988909265051 9.9045820267905995 #
loop $-1 $-1 $274 $266 #
plane-surface $-1 46.451612903225808 0 0 -1 0 0 0 0 1 forward_v I I I I #
coedge $-1 $377 $269 $271 $381 reversed $172 $-1 #
coedge $-1 $269 $376 $453 $454 reversed $172 $-1 #
coedge $-1 $277 $272 $269 $379 forward $267 $-1 #
edge $-1 $382 8.6234653369941796 $455 10.691085408220744 $378 $456 forward 7 unknown #
coedge $-1 $271 $270 $385 $457 reversed $108 $-1 #
edge $-1 $458 -92.903225806451616 $382 -89.205718018613908 $376 $459 forward 7 unknown #
vertex $-1 $273 $460 #
straight-curve $-1 44.383992831999237 4.4938112118298914 11.02274969186913 0 -1 0 I I #
coedge $-1 $453 $274 $277 $389 reversed $374 $-1 #
coedge $-1 $274 $453 $380 $457 forward $374 $-1 #
vertex $-1 $275 $461 #
straight-curve $-1 46.451612903225808 14.994899899668567 68.464232902366859 0 0 1 I I #
straight-curve $-1 -5.4992105652073917 14.994899899668567 84.977642336300505 0.55919289150049634 0 -0.82903758062907751 I I #
edge $-1 $455 2.9803449476509982 $278 14.994899899668567 $384 $462 forward 7 unknown #
point $-1 46.451612903225808 14.994899899668567 11.022749691869125 #
point $-1 44.383992831999244 14.994899899668567 11.022749691869123 #
edge $-1 $463 1 $463 0 $281 $-1 forward 7 unknown #
vertex $-1 $282 $464 #
ellipse-curve $-1 44.588765286983467 5.3832559380545142 8.9308703449755669 0.82903758062907751 0 0.55919289150049634 0.27959644575024817 0 -0.41451879031453875 1 I I #
point $-1 45.697399313362787 5.3832559380545142 9.0755444461615244 #
edge $-1 $465 1 $465 0 $285 $-1 forward 7 unknown #
vertex $-1 $286 $466 #
ellipse-curve $-1 44.588765286983467 8.9876224236597828 8.9308703449755669 0.82903758062907751 0 0.55919289150049634 0.27959644575024817 0 -0.41451879031453875 1 I I #
point $-1 45.697399313362787 8.9876224236597828 9.0755444461615244 #
edge $-1 $467 1 $467 0 $289 $-1 forward 7 unknown #
vertex $-1 $290 $468 #
ellipse-curve $-1 44.588765286983467 12.591988909265051 8.9308703449755669 0.82903758062907751 0 0.55919289150049634 0.27959644575024817 0 -0.41451879031453875 1 I I #
point $-1 45.697399313362787 12.591988909265051 9.0755444461615244 #
plane-surface $-1 46.451612903225808 0 0 -1 0 0 0 0 1 forward_v I I I I #
coedge $-1 $298 $296 $300 $409 reversed $201 $-1 #
edge $-1 $311 -11.022749691869125 $411 11.022749691869125 $310 $469 forward 7 unknown #
vertex $-1 $409 $470 #
straight-curve $-1 -46.451612903225808 -29.303912177574407 0 0 0 -1 I I #
edge $-1 $407 -29.303912177574407 $411 29.303912177574407 $405 $471 forward 7 unknown #
straight-curve $-1 0 -29.303912177574407 -11.022749691869125 -1 0 0 I I #
vertex $-1 $303 $472 #
straight-curve $-1 0 29.303912177574407 -11.022749691869125 1 0 0 I I #
point $-1 46.451612903225808 29.303912177574407 -11.022749691869125 #
point $-1 46.451612903225808 -29.303912177574407 -11.022749691869125 #
straight-curve $-1 -46.451612903225808 0 11.022749691869125 0 -1 0 I I #
point $-1 -46.451612903225808 29.303912177574407 11.022749691869125 #
point $-1 -46.451612903225808 -29.303912177574407 11.022749691869125 #
straight-curve $-1 46.451612903225808 -29.303912177574407 0 0 0 -1 I I #
straight-curve $-1 46.451612903225808 29.303912177574407 0 0 0 -1 I I #
plane-surface $-1 46.451612903225808 0 0 -1 0 0 0 0 1 forward_v I I I I #
coedge $-1 $424 $323 $334 $433 forward $220 $-1 #
coedge $-1 $323 $424 $337 $435 reversed $220 $-1 #
straight-curve $-1 46.451612903225808 -18.761612681479118 -1.0042454653256554 0 0 1 I I #
coedge $-1 $422 $421 $326 $425 forward $220 $-1 #
edge $-1 $428 6.7452314667157367 $426 17.287530962811026 $424 $473 forward 7 unknown #
vertex $-1 $328 $474 #
straight-curve $-1 0 -29.303912177574407 -4.9729300648307682 1 0 0 I I #
vertex $-1 $425 $475 #
straight-curve $-1 0 -18.761612681479118 -4.9729300648307682 1 0 0 I I #
point $-1 46.451612903225808 -29.303912177574407 -4.9729300648307682 #
point $-1 46.451612903225808 -18.761612681479118 -4.9729300648307682 #
straight-curve $-1 -46.451612903225808 -12.016381214763381 0.95594820352814702 0 1 0 I I #
edge $-1 $335 -1.9601936688538024 $428 3.9686845995051128 $421 $476 forward 7 unknown #
point $-1 -46.451612903225808 -18.761612681479118 0.95594820352814702 #
edge $-1 $339 -0.95594820352814702 $426 4.9729300648307682 $422 $477 forward 7 unknown #
point $-1 -46.451612903225808 -29.303912177574407 0.95594820352814702 #
straight-curve $-1 46.451612903225808 -29.303912177574407 0 0 0 -1 I I #
edge $-1 $439 18.931350432888983 $442 21.9967233436751 $345 $478 forward 7 unknown #
vertex $-1 $359 $479 #
straight-curve $-1 -61.735939229221664 14.994899899668567 11.022749691869123 -1 0 0 I I #
edge $-1 $442 -10.501088687838676 $356 1.5134662641788932 $355 $480 forward 7 unknown #
vertex $-1 $441 $481 #
straight-curve $-1 -46.451612903225808 14.994899899668567 7.9573767810830063 0.55919289150049634 0 0.82903758062907751 I I #
point $-1 -44.383992831999251 14.994899899668567 11.022749691869125 #
point $-1 -46.451612903225808 2.9803449476509982 7.9573767810830063 #
straight-curve $-1 -46.451612903225808 0 11.022749691869125 0 -1 0 I I #
vertex $-1 $362 $482 #
point $-1 -44.309168841233202 5.3832559380545142 9.3453891352901017 #
vertex $-1 $366 $483 #
point $-1 -44.309168841233202 8.9876224236597828 9.3453891352901017 #
vertex $-1 $370 $484 #
point $-1 -44.309168841233202 12.591988909265051 9.3453891352901017 #
coedge $-1 $385 $384 $377 $454 forward $374 $-1 #
edge $-1 $455 57.441483210497736 $458 60.506856121283874 $453 $485 forward 7 unknown #
vertex $-1 $389 $486 #
straight-curve $-1 35.760527495005064 2.9803449476509982 11.022749691869123 1 0 0 I I #
edge $-1 $458 -1.5134662641788932 $386 10.501088687838676 $385 $487 forward 7 unknown #
vertex $-1 $457 $488 #
straight-curve $-1 -5.4992105652073917 2.9803449476509982 84.977642336300505 -0.55919289150049634 0 0.82903758062907751 I I #
point $-1 44.383992831999244 2.9803449476509982 11.022749691869123 #
point $-1 46.451612903225808 14.994899899668567 7.957376781082985 #
straight-curve $-1 46.451612903225808 0 11.022749691869125 0 1 0 I I #
vertex $-1 $392 $489 #
point $-1 44.86836173273371 5.3832559380545142 8.5163515546610284 #
vertex $-1 $396 $490 #
point $-1 44.86836173273371 8.9876224236597828 8.5163515546610284 #
vertex $-1 $400 $491 #
point $-1 44.86836173273371 12.591988909265051 8.5163515546610284 #
straight-curve $-1 -46.451612903225808 29.303912177574407 0 0 0 -1 I I #
point $-1 -46.451612903225808 -29.303912177574407 -11.022749691869125 #
straight-curve $-1 -46.451612903225808 0 -11.022749691869125 0 1 0 I I #
point $-1 -46.451612903225808 29.303912177574407 -11.022749691869125 #
straight-curve $-1 -46.451612903225808 -12.016381214763381 -4.9729300648307682 0 -1 0 I I #
point $-1 -46.451612903225808 -29.303912177574407 -4.9729300648307682 #
point $-1 -46.451612903225808 -18.761612681479118 -4.9729300648307682 #
straight-curve $-1 -46.451612903225808 -18.761612681479118 -1.0042454653256554 0 0 -1 I I #
straight-curve $-1 -46.451612903225808 -29.303912177574407 0 0 0 -1 I I #
straight-curve $-1 -46.451612903225808 14.994899899668567 29.954100124758106 0 0 -1 I I #
point $-1 -46.451612903225808 14.994899899668567 11.022749691869125 #
straight-curve $-1 -46.451612903225808 4.4938112118298914 7.9573767810830036 0 -1 0 I I #
point $-1 -46.451612903225808 14.994899899668567 7.9573767810830063 #
point $-1 -44.174246496668907 5.3832559380545142 8.6512738992253162 #
point $-1 -44.174246496668907 8.9876224236597828 8.6512738992253162 #
point $-1 -44.174246496668907 12.591988909265051 8.6512738992253162 #
straight-curve $-1 46.451612903225808 2.9803449476509982 68.464232902366859 0 0 -1 I I #
point $-1 46.451612903225808 2.9803449476509982 11.022749691869125 #
straight-curve $-1 46.451612903225808 4.4938112118298914 7.9573767810829921 0 1 0 I I #
point $-1 46.451612903225808 2.9803449476509982 7.957376781082985 #
point $-1 44.174246496668921 5.3832559380545142 8.6512738992253198 #
point $-1 44.174246496668921 8.9876224236597828 8.6512738992253198 #
point $-1 44.174246496668921 12.591988909265051 8.6512738992253198 #
End-of-ACIS-data 