500 0 4 0           
7 Unknown 11 ACIS 5.0 NT 24 Fri Mar 26 01:24:26 1999 
-1 9.9999999999999995e-007 1e-010 
body $-1 $4 $-1 $5 #
body $-1 $6 $-1 $7 #
body $-1 $8 $-1 $9 #
body $-1 $10 $-1 $11 #
lump $-1 $-1 $12 $0 #
transform $-1 1 0 0 0 1 0 0 0 1 72.306894131290619 33.81765656184664 7.6626658805837149 1 rotate no_reflect no_shear #
lump $-1 $-1 $13 $1 #
transform $-1 1 0 0 0 1 0 0 0 1 72.306894131290619 33.81765656184664 7.6626658805837149 1 rotate no_reflect no_shear #
lump $-1 $-1 $14 $2 #
transform $-1 1 0 0 0 1 0 0 0 1 72.306894131290619 33.81765656184664 7.6626658805837149 1 rotate no_reflect no_shear #
lump $-1 $-1 $15 $3 #
transform $-1 1 0 0 0 1 0 0 0 1 72.306894131290619 33.81765656184664 7.6626658805837149 1 rotate no_reflect no_shear #
shell $-1 $-1 $-1 $16 $-1 $4 #
shell $-1 $-1 $-1 $17 $-1 $6 #
shell $-1 $-1 $-1 $18 $-1 $8 #
shell $-1 $-1 $-1 $19 $-1 $10 #
face $-1 $20 $21 $12 $-1 $22 forward single #
face $-1 $23 $24 $13 $-1 $25 forward single #
face $-1 $26 $27 $14 $-1 $28 forward single #
face $-1 $29 $30 $15 $-1 $31 reversed single #
face $-1 $32 $33 $12 $-1 $34 reversed single #
loop $-1 $-1 $35 $16 #
plane-surface $-1 0 0 7.6626658805837149 0 0 1 1 0 0 forward_v I I I I #
face $-1 $36 $37 $13 $-1 $38 forward single #
loop $-1 $-1 $39 $17 #
plane-surface $-1 -67.946084939682962 -29.182712460339772 0 0 1 0 0 0 1 forward_v I I I I #
face $-1 $40 $41 $14 $-1 $42 forward single #
loop $-1 $-1 $43 $18 #
plane-surface $-1 -32.610885380387685 -122.85079591253958 116.20495249113526 -1 0 0 0 -0.61566148304635926 0.78801074757464917 forward_v I I I I #
face $-1 $44 $45 $15 $-1 $46 reversed single #
loop $-1 $47 $48 $19 #
cone-surface $-1 -48.098080564231495 -29.051734562619846 3.2906058432117358 0 0.61566148304635926 -0.78801074757464917 2 0 0 1 I I 0 1 2 forward I I I I #
face $-1 $49 $50 $12 $-1 $51 reversed single #
loop $-1 $-1 $52 $20 #
plane-surface $-1 0 0 -7.6626658805837149 0 0 1 1 0 0 forward_v I I I I #
coedge $-1 $53 $54 $55 $56 forward $21 $-1 #
face $-1 $57 $58 $13 $-1 $59 forward single #
loop $-1 $-1 $60 $23 #
plane-surface $-1 -67.946084939682962 -25.570570069377155 0 0 -1 0 0 0 -1 forward_v I I I I #
coedge $-1 $61 $62 $63 $64 reversed $24 $-1 #
face $-1 $65 $66 $14 $-1 $67 forward single #
loop $-1 $-1 $68 $26 #
plane-surface $-1 -48.098080564231495 -33.817656561846633 2.2477330927365955 0 -0.61566148304635926 0.78801074757464917 1 0 0 forward_v I I I I #
coedge $-1 $69 $70 $71 $72 reversed $27 $-1 #
face $-1 $73 $74 $15 $-1 $75 forward single #
loop $-1 $76 $77 $29 #
cone-surface $-1 -48.098080564231495 -27.135549965708321 0.83800145218866362 0 0.61566148304635926 -0.78801074757464917 1 0 0 1 I I -0.70710678118654746 0.70710678118654746 1 forward I I I I #
loop $-1 $-1 $78 $19 #
coedge $-1 $48 $48 $79 $80 reversed $30 $-1 #
face $-1 $81 $82 $12 $-1 $83 reversed single #
loop $-1 $-1 $84 $32 #
plane-surface $-1 0 -33.81765656184664 0 0 1 0 0 0 1 forward_v I I I I #
coedge $-1 $85 $86 $87 $88 forward $33 $-1 #
coedge $-1 $89 $35 $90 $91 forward $21 $-1 #
coedge $-1 $35 $89 $92 $93 forward $21 $-1 #
coedge $-1 $94 $95 $35 $56 reversed $96 $-1 #
edge $-1 $97 -33.81765656184664 $98 33.81765656184664 $55 $99 forward 7 unknown #
face $-1 $100 $101 $13 $-1 $102 forward single #
loop $-1 $-1 $103 $36 #
plane-surface $-1 -63.585275748075304 -27.376641264858463 0 -1 0 0 0 0 1 forward_v I I I I #
coedge $-1 $104 $105 $106 $107 reversed $37 $-1 #
coedge $-1 $108 $39 $109 $110 reversed $24 $-1 #
coedge $-1 $39 $108 $111 $112 reversed $24 $-1 #
coedge $-1 $113 $114 $39 $64 forward $115 $-1 #
edge $-1 $116 -7.6626658805837149 $117 7.6626658805837149 $63 $118 forward 7 unknown #
face $-1 $119 $120 $14 $-1 $121 forward single #
loop $-1 $-1 $122 $40 #
plane-surface $-1 -63.585275748075304 -122.85079591253958 116.20495249113526 1 0 0 0 0.61566148304635926 -0.78801074757464917 forward_v I I I I #
coedge $-1 $123 $124 $125 $126 reversed $41 $-1 #
coedge $-1 $70 $43 $124 $127 forward $27 $-1 #
coedge $-1 $43 $69 $128 $129 reversed $27 $-1 #
coedge $-1 $130 $125 $43 $72 forward $131 $-1 #
edge $-1 $132 -34.538539165146425 $133 -27.607741394423151 $71 $134 forward 7 unknown #
face $-1 $135 $136 $15 $-1 $137 forward single #
loop $-1 $-1 $138 $44 #
plane-surface $-1 -32.610885380387685 -122.85079591253958 116.20495249113526 -1 0 0 0 -0.61566148304635926 0.78801074757464917 forward_v I I I I #
loop $-1 $-1 $139 $29 #
coedge $-1 $77 $77 $78 $140 forward $45 $-1 #
coedge $-1 $78 $78 $77 $140 reversed $47 $-1 #
coedge $-1 $79 $79 $48 $80 forward $136 $-1 #
edge $-1 $141 3.3889896807968628e-016 $141 6.2831853071796004 $79 $142 forward 7 unknown #
face $-1 $143 $144 $12 $-1 $145 reversed single #
loop $-1 $-1 $146 $49 #
plane-surface $-1 -72.306894131290619 0 0 1 0 0 0 0 -1 forward_v I I I I #
coedge $-1 $147 $92 $148 $149 forward $50 $-1 #
coedge $-1 $150 $52 $147 $151 forward $33 $-1 #
coedge $-1 $52 $150 $152 $153 forward $33 $-1 #
coedge $-1 $95 $94 $52 $88 reversed $96 $-1 #
edge $-1 $154 -33.81765656184664 $155 33.81765656184664 $87 $156 forward 7 unknown #
coedge $-1 $54 $53 $157 $158 forward $21 $-1 #
coedge $-1 $159 $160 $53 $91 reversed $144 $-1 #
edge $-1 $98 -72.306894131290619 $161 72.306894131290619 $90 $162 forward 7 unknown #
coedge $-1 $84 $163 $54 $93 reversed $50 $-1 #
edge $-1 $164 -72.306894131290619 $97 72.306894131290619 $92 $165 forward 7 unknown #
coedge $-1 $87 $55 $163 $166 forward $96 $-1 #
coedge $-1 $55 $87 $159 $167 reversed $96 $-1 #
loop $-1 $-1 $94 $143 #
vertex $-1 $56 $168 #
vertex $-1 $56 $169 #
straight-curve $-1 72.306894131290619 0 7.6626658805837149 0 1 0 I I #
face $-1 $170 $115 $13 $-1 $171 reversed single #
loop $-1 $-1 $172 $57 #
plane-surface $-1 0 0 7.6626658805837149 0 0 1 1 0 0 forward_v I I I I #
coedge $-1 $173 $174 $108 $175 reversed $58 $-1 #
coedge $-1 $176 $60 $172 $177 reversed $37 $-1 #
coedge $-1 $60 $176 $178 $179 reversed $37 $-1 #
coedge $-1 $174 $173 $60 $107 forward $58 $-1 #
edge $-1 $180 -7.6626658805837149 $181 7.6626658805837149 $106 $182 forward 7 unknown #
coedge $-1 $62 $61 $103 $175 forward $24 $-1 #
coedge $-1 $183 $184 $61 $110 forward $101 $-1 #
edge $-1 $185 29.612233278233823 $116 38.333851661449138 $109 $186 forward 7 unknown #
coedge $-1 $187 $188 $62 $112 forward $189 $-1 #
edge $-1 $117 -38.333851661449138 $190 -29.612233278233823 $111 $191 forward 7 unknown #
coedge $-1 $192 $63 $188 $193 reversed $115 $-1 #
coedge $-1 $63 $192 $183 $194 reversed $115 $-1 #
loop $-1 $-1 $63 $100 #
vertex $-1 $194 $195 #
vertex $-1 $64 $196 #
straight-curve $-1 -72.306894131290619 -29.182712460339772 0 0 0 -1 I I #
face $-1 $197 $198 $14 $-1 $199 forward single #
loop $-1 $-1 $200 $65 #
plane-surface $-1 -63.585275748075304 -27.376641264858463 0 -1 0 0 0 0 1 forward_v I I I I #
coedge $-1 $201 $202 $203 $204 reversed $66 $-1 #
coedge $-1 $205 $68 $200 $206 reversed $41 $-1 #
coedge $-1 $68 $207 $69 $127 reversed $41 $-1 #
coedge $-1 $71 $208 $68 $126 forward $131 $-1 #
edge $-1 $209 -39.536235465959557 $132 -8.5618450982719381 $125 $210 forward 7 unknown #
edge $-1 $132 -8.7953086833586678 $211 9.1534652039358102e-015 $69 $212 forward 7 unknown #
coedge $-1 $213 $214 $70 $129 forward $215 $-1 #
edge $-1 $133 50.439810364983913 $211 55.854743152831041 $128 $216 forward 7 unknown #
coedge $-1 $217 $71 $214 $218 forward $131 $-1 #
loop $-1 $-1 $125 $197 #
vertex $-1 $126 $219 #
vertex $-1 $218 $220 #
straight-curve $-1 -32.610885380387685 -61.425397956269791 7.6626658805837167 0 -1 0 I I #
face $-1 $221 $222 $15 $-1 $223 forward single #
loop $-1 $224 $79 $73 #
plane-surface $-1 -48.098080564231495 -33.817656561846633 2.2477330927365955 0 -0.61566148304635926 0.78801074757464917 1 0 0 forward_v I I I I #
coedge $-1 $225 $226 $227 $228 reversed $74 $-1 #
coedge $-1 $139 $139 $-1 $229 forward $76 $-1 #
edge $-1 $230 0 $230 6.2831853071796004 $77 $231 forward 7 unknown #
vertex $-1 $80 $232 #
ellipse-curve $-1 -48.098080564231495 -30.352257676485003 4.9551994866601508 0 0.61566148304635926 -0.78801074757464917 2 0 0 1 I I #
face $-1 $-1 $96 $12 $-1 $233 reversed single #
loop $-1 $-1 $159 $81 #
plane-surface $-1 0 33.81765656184664 0 0 -1 0 0 0 -1 forward_v I I I I #
coedge $-1 $234 $157 $160 $235 forward $82 $-1 #
coedge $-1 $163 $84 $85 $151 reversed $50 $-1 #
coedge $-1 $157 $234 $84 $149 reversed $82 $-1 #
edge $-1 $164 -7.6626658805837149 $236 7.6626658805837149 $148 $237 forward 7 unknown #
coedge $-1 $86 $85 $234 $238 forward $33 $-1 #
edge $-1 $155 -72.306894131290619 $236 72.306894131290619 $147 $239 forward 7 unknown #
coedge $-1 $160 $159 $86 $153 reversed $144 $-1 #
edge $-1 $240 -72.306894131290619 $154 72.306894131290619 $152 $241 forward 7 unknown #
vertex $-1 $88 $242 #
vertex $-1 $166 $243 #
straight-curve $-1 72.306894131290619 0 -7.6626658805837149 0 -1 0 I I #
coedge $-1 $146 $148 $89 $158 reversed $82 $-1 #
edge $-1 $161 -33.81765656184664 $164 33.81765656184664 $157 $244 forward 7 unknown #
coedge $-1 $152 $90 $95 $167 forward $144 $-1 #
coedge $-1 $90 $152 $146 $235 reversed $144 $-1 #
vertex $-1 $91 $245 #
straight-curve $-1 0 33.81765656184664 7.6626658805837149 -1 0 0 I I #
coedge $-1 $92 $147 $94 $166 reversed $50 $-1 #
vertex $-1 $158 $246 #
straight-curve $-1 0 -33.81765656184664 7.6626658805837149 1 0 0 I I #
edge $-1 $97 -7.6626658805837149 $155 7.6626658805837149 $94 $247 forward 7 unknown #
edge $-1 $98 -7.6626658805837149 $154 7.6626658805837149 $95 $248 forward 7 unknown #
point $-1 72.306894131290619 -33.81765656184664 7.6626658805837149 #
point $-1 72.306894131290619 33.81765656184664 7.6626658805837149 #
face $-1 $249 $189 $13 $-1 $250 reversed single #
plane-surface $-1 -72.306894131290619 0 0 1 0 0 0 0 -1 forward_v I I I I #
coedge $-1 $184 $251 $104 $177 forward $101 $-1 #
coedge $-1 $106 $103 $184 $252 reversed $58 $-1 #
coedge $-1 $103 $106 $187 $253 reversed $58 $-1 #
edge $-1 $185 -7.6626658805837149 $190 7.6626658805837149 $103 $254 forward 7 unknown #
coedge $-1 $105 $104 $255 $256 reversed $37 $-1 #
edge $-1 $257 -38.333851661449138 $180 -29.612233278233823 $172 $258 forward 7 unknown #
coedge $-1 $259 $187 $105 $179 forward $189 $-1 #
edge $-1 $181 29.612233278233823 $260 38.333851661449138 $178 $261 forward 7 unknown #
vertex $-1 $177 $262 #
vertex $-1 $179 $263 #
straight-curve $-1 -63.585275748075304 -25.570570069377155 0 0 0 -1 I I #
coedge $-1 $264 $109 $114 $194 forward $101 $-1 #
coedge $-1 $109 $172 $173 $252 forward $101 $-1 #
vertex $-1 $110 $265 #
straight-curve $-1 -33.973042469841481 -29.182712460339772 7.6626658805837149 -1 0 0 I I #
coedge $-1 $178 $111 $174 $253 forward $189 $-1 #
coedge $-1 $111 $266 $113 $193 forward $189 $-1 #
loop $-1 $-1 $178 $170 #
vertex $-1 $112 $267 #
straight-curve $-1 -33.973042469841481 -29.182712460339772 -7.6626658805837149 1 0 0 I I #
coedge $-1 $114 $113 $268 $269 reversed $115 $-1 #
edge $-1 $270 -33.81765656184664 $117 -29.182712460339772 $113 $271 forward 7 unknown #
edge $-1 $116 29.182712460339772 $272 33.81765656184664 $114 $273 forward 7 unknown #
point $-1 -72.306894131290619 -29.182712460339772 7.6626658805837149 #
point $-1 -72.306894131290619 -29.182712460339772 -7.6626658805837149 #
face $-1 $274 $131 $14 $-1 $199 forward single #
loop $-1 $-1 $275 $119 #
plane-surface $-1 0 0 7.6626658805837149 0 0 1 1 0 0 forward_v I I I I #
coedge $-1 $276 $277 $123 $206 forward $120 $-1 #
coedge $-1 $278 $122 $275 $279 reversed $66 $-1 #
coedge $-1 $122 $278 $205 $280 forward $66 $-1 #
coedge $-1 $281 $282 $122 $204 forward $283 $-1 #
edge $-1 $284 -7.6626658805837149 $285 -5.8689483720375524 $203 $286 forward 7 unknown #
coedge $-1 $207 $123 $202 $280 reversed $41 $-1 #
edge $-1 $285 4.0359552407032915 $209 6.9494353883822635 $200 $287 forward 7 unknown #
coedge $-1 $124 $205 $213 $288 reversed $41 $-1 #
coedge $-1 $125 $289 $276 $290 forward $131 $-1 #
vertex $-1 $126 $291 #
straight-curve $-1 -24.049040282115747 -26.886858791123366 7.6626658805837149 1 0 0 I I #
vertex $-1 $288 $292 #
straight-curve $-1 -32.610885380387685 -33.817656561846633 2.2477330927365955 0 -0.78801074757464917 -0.61566148304635926 I I #
coedge $-1 $293 $128 $207 $288 forward $215 $-1 #
coedge $-1 $128 $294 $130 $218 reversed $215 $-1 #
loop $-1 $-1 $293 $295 #
straight-curve $-1 -32.610885380387685 -33.81765656184664 58.10247624556763 0 0 -1 I I #
coedge $-1 $296 $130 $297 $298 forward $131 $-1 #
edge $-1 $133 -32.610885380387685 $299 72.306894131290619 $214 $300 forward 7 unknown #
point $-1 -32.610885380387685 -26.886858791123366 7.6626658805837158 #
point $-1 -32.610885380387685 -33.81765656184664 7.6626658805837149 #
face $-1 $301 $302 $15 $-1 $303 forward single #
loop $-1 $-1 $304 $135 #
plane-surface $-1 -63.585275748075304 -122.85079591253958 116.20495249113526 1 0 0 0 0.61566148304635926 -0.78801074757464917 forward_v I I I I #
loop $-1 $-1 $305 $73 #
coedge $-1 $226 $138 $306 $307 forward $74 $-1 #
coedge $-1 $138 $225 $308 $309 reversed $74 $-1 #
coedge $-1 $310 $311 $138 $228 forward $312 $-1 #
edge $-1 $313 -34.538539165146425 $314 -27.607741394423151 $227 $315 forward 7 unknown #
edge $-1 $316 1 $316 0 $139 $-1 forward 7 unknown #
vertex $-1 $140 $317 #
ellipse-curve $-1 -48.098080564231495 -27.751211448754681 1.6260121997633128 0 -0.61566148304635926 0.78801074757464917 2 0 0 1 I I #
point $-1 -46.098080564231495 -30.35225767648501 4.9551994866601587 #
plane-surface $-1 72.306894131290619 0 0 -1 0 0 0 0 1 forward_v I I I I #
coedge $-1 $148 $146 $150 $238 reversed $82 $-1 #
edge $-1 $161 -7.6626658805837149 $240 7.6626658805837149 $160 $318 forward 7 unknown #
vertex $-1 $238 $319 #
straight-curve $-1 -72.306894131290619 -33.81765656184664 0 0 0 -1 I I #
edge $-1 $236 -33.81765656184664 $240 33.81765656184664 $234 $320 forward 7 unknown #
straight-curve $-1 0 -33.81765656184664 -7.6626658805837149 -1 0 0 I I #
vertex $-1 $153 $321 #
straight-curve $-1 0 33.81765656184664 -7.6626658805837149 1 0 0 I I #
point $-1 72.306894131290619 33.81765656184664 -7.6626658805837149 #
point $-1 72.306894131290619 -33.81765656184664 -7.6626658805837149 #
straight-curve $-1 -72.306894131290619 0 7.6626658805837149 0 -1 0 I I #
point $-1 -72.306894131290619 33.81765656184664 7.6626658805837149 #
point $-1 -72.306894131290619 -33.81765656184664 7.6626658805837149 #
straight-curve $-1 72.306894131290619 -33.81765656184664 0 0 0 -1 I I #
straight-curve $-1 72.306894131290619 33.81765656184664 0 0 0 -1 I I #
face $-1 $322 $323 $13 $-1 $324 reversed single #
plane-surface $-1 0 0 -7.6626658805837149 0 0 1 1 0 0 forward_v I I I I #
coedge $-1 $172 $325 $326 $327 forward $101 $-1 #
edge $-1 $180 11.882249436947923 $185 15.49439182791054 $184 $328 forward 7 unknown #
edge $-1 $190 -15.49439182791054 $181 -11.882249436947923 $187 $329 forward 7 unknown #
straight-curve $-1 -63.585275748075304 -29.182712460339772 0 0 0 -1 I I #
coedge $-1 $326 $330 $176 $256 forward $331 $-1 #
edge $-1 $260 -7.6626658805837149 $257 7.6626658805837149 $255 $332 forward 7 unknown #
vertex $-1 $256 $333 #
straight-curve $-1 -33.973042469841481 -25.570570069377155 7.6626658805837149 1 0 0 I I #
coedge $-1 $334 $178 $330 $335 forward $189 $-1 #
vertex $-1 $335 $336 #
straight-curve $-1 -33.973042469841481 -25.570570069377155 -7.6626658805837149 -1 0 0 I I #
point $-1 -63.585275748075304 -25.570570069377155 7.6626658805837149 #
point $-1 -63.585275748075304 -25.570570069377155 -7.6626658805837149 #
coedge $-1 $337 $183 $338 $339 forward $101 $-1 #
point $-1 -63.585275748075304 -29.182712460339772 7.6626658805837149 #
coedge $-1 $188 $340 $341 $342 forward $189 $-1 #
point $-1 -63.585275748075304 -29.182712460339772 -7.6626658805837149 #
coedge $-1 $341 $338 $192 $269 forward $323 $-1 #
edge $-1 $272 -7.6626658805837149 $270 7.6626658805837149 $192 $343 forward 7 unknown #
vertex $-1 $193 $344 #
straight-curve $-1 -72.306894131290619 0 -7.6626658805837149 0 1 0 I I #
vertex $-1 $194 $345 #
straight-curve $-1 -72.306894131290619 0 7.6626658805837149 0 -1 0 I I #
face $-1 $346 $283 $14 $-1 $347 forward single #
coedge $-1 $348 $349 $201 $279 forward $198 $-1 #
coedge $-1 $350 $200 $208 $290 reversed $120 $-1 #
coedge $-1 $200 $351 $281 $352 reversed $120 $-1 #
coedge $-1 $202 $201 $293 $353 reversed $66 $-1 #
edge $-1 $354 27.607741394423151 $284 32.242685495930019 $275 $355 forward 7 unknown #
edge $-1 $356 -9.1534652039358102e-015 $285 5.8818285356796949 $202 $357 forward 7 unknown #
coedge $-1 $358 $203 $277 $352 forward $283 $-1 #
coedge $-1 $203 $359 $348 $360 reversed $283 $-1 #
loop $-1 $-1 $359 $274 #
vertex $-1 $360 $361 #
vertex $-1 $352 $362 #
straight-curve $-1 -63.585275748075304 -29.182712460339772 0 0 0 -1 I I #
straight-curve $-1 -63.585275748075304 -32.363088566744196 3.3841661830374377 0 0.78801074757464917 0.61566148304635926 I I #
edge $-1 $211 8.5618450982719381 $356 39.536235465959557 $213 $363 forward 7 unknown #
coedge $-1 $208 $364 $365 $366 forward $131 $-1 #
edge $-1 $367 11.882249436947923 $209 13.198538158694134 $208 $368 forward 7 unknown #
point $-1 -63.585275748075304 -26.886858791123366 7.6626658805837149 #
point $-1 -32.610885380387685 -33.81765656184664 2.2477330927365897 #
coedge $-1 $369 $213 $278 $353 forward $215 $-1 #
coedge $-1 $214 $370 $371 $372 reversed $215 $-1 #
face $-1 $373 $215 $14 $-1 $374 reversed single #
coedge $-1 $364 $217 $375 $376 forward $131 $-1 #
coedge $-1 $371 $377 $217 $298 reversed $378 $-1 #
edge $-1 $299 -33.81765656184664 $379 33.81765656184664 $297 $380 forward 7 unknown #
vertex $-1 $298 $381 #
straight-curve $-1 0 -33.81765656184664 7.6626658805837149 1 0 0 I I #
face $-1 $382 $383 $15 $-1 $384 forward single #
loop $-1 $-1 $385 $221 #
plane-surface $-1 -63.585275748075304 -27.376641264858463 0 -1 0 0 0 0 1 forward_v I I I I #
coedge $-1 $386 $387 $388 $389 reversed $222 $-1 #
coedge $-1 $390 $306 $311 $391 reversed $224 $-1 #
coedge $-1 $305 $392 $225 $307 reversed $224 $-1 #
edge $-1 $313 -8.7953086833586678 $393 9.1534652039358102e-015 $225 $394 forward 7 unknown #
coedge $-1 $395 $396 $226 $309 forward $397 $-1 #
edge $-1 $314 50.439810364983913 $393 55.854743152831041 $308 $398 forward 7 unknown #
coedge $-1 $399 $227 $396 $400 forward $312 $-1 #
coedge $-1 $227 $401 $305 $391 forward $312 $-1 #
loop $-1 $-1 $311 $382 #
vertex $-1 $391 $402 #
vertex $-1 $400 $403 #
straight-curve $-1 -32.610885380387685 -61.425397956269791 7.6626658805837167 0 -1 0 I I #
vertex $-1 $229 $404 #
point $-1 -46.098080564231495 -27.751211448754681 1.6260121997633128 #
straight-curve $-1 -72.306894131290619 33.81765656184664 0 0 0 -1 I I #
point $-1 -72.306894131290619 -33.81765656184664 -7.6626658805837149 #
straight-curve $-1 -72.306894131290619 0 -7.6626658805837149 0 1 0 I I #
point $-1 -72.306894131290619 33.81765656184664 -7.6626658805837149 #
face $-1 $405 $331 $13 $-1 $171 reversed single #
loop $-1 $-1 $268 $249 #
plane-surface $-1 0 -33.81765656184664 0 0 1 0 0 0 1 forward_v I I I I #
coedge $-1 $251 $337 $406 $407 forward $101 $-1 #
coedge $-1 $408 $255 $251 $327 reversed $331 $-1 #
edge $-1 $409 -33.81765656184664 $257 25.570570069377155 $326 $273 forward 7 unknown #
straight-curve $-1 -63.585275748075304 -13.688320632429232 7.6626658805837149 0 -1 0 I I #
straight-curve $-1 -63.585275748075304 -13.688320632429232 -7.6626658805837149 0 1 0 I I #
coedge $-1 $255 $408 $259 $335 reversed $331 $-1 #
loop $-1 $-1 $255 $322 #
straight-curve $-1 -72.306894131290619 -25.570570069377155 0 0 0 1 I I #
point $-1 -72.306894131290619 -25.570570069377155 7.6626658805837149 #
coedge $-1 $340 $259 $410 $411 forward $189 $-1 #
edge $-1 $260 -25.570570069377155 $412 33.81765656184664 $330 $271 forward 7 unknown #
point $-1 -72.306894131290619 -25.570570069377155 -7.6626658805837149 #
coedge $-1 $325 $264 $413 $414 forward $101 $-1 #
coedge $-1 $268 $415 $264 $339 reversed $323 $-1 #
edge $-1 $272 -72.306894131290619 $416 72.306894131290619 $338 $417 forward 7 unknown #
coedge $-1 $266 $334 $418 $419 forward $189 $-1 #
coedge $-1 $415 $268 $266 $342 reversed $323 $-1 #
edge $-1 $420 -72.306894131290619 $270 72.306894131290619 $341 $421 forward 7 unknown #
straight-curve $-1 -72.306894131290619 -33.81765656184664 0 0 0 -1 I I #
point $-1 -72.306894131290619 -33.81765656184664 -7.6626658805837149 #
point $-1 -72.306894131290619 -33.81765656184664 7.6626658805837149 #
face $-1 $422 $423 $14 $-1 $424 forward single #
plane-surface $-1 -67.946084939682962 -29.182712460339772 0 0 1 0 0 0 1 forward_v I I I I #
coedge $-1 $425 $275 $282 $360 forward $198 $-1 #
coedge $-1 $275 $425 $369 $426 forward $198 $-1 #
coedge $-1 $351 $276 $427 $428 forward $120 $-1 #
coedge $-1 $277 $350 $429 $430 reversed $120 $-1 #
edge $-1 $285 -5.8689483720375524 $431 7.6626658805837149 $277 $286 forward 7 unknown #
edge $-1 $356 -55.854743152831041 $354 -50.439810364983913 $293 $432 forward 7 unknown #
vertex $-1 $353 $433 #
straight-curve $-1 -63.585275748075304 -61.425397956269791 7.6626658805837167 0 1 0 I I #
vertex $-1 $288 $434 #
straight-curve $-1 -63.585275748075304 -33.817656561846633 2.2477330927365955 0 0.78801074757464917 0.61566148304635926 I I #
coedge $-1 $359 $281 $435 $436 reversed $283 $-1 #
coedge $-1 $282 $358 $437 $438 reversed $283 $-1 #
edge $-1 $284 29.612233278233823 $439 38.333851661449138 $348 $440 forward 7 unknown #
point $-1 -63.585275748075304 -29.182712460339772 7.6626658805837149 #
point $-1 -63.585275748075304 -29.182712460339772 5.8689483720375524 #
straight-curve $-1 -24.049040282115747 -33.81765656184664 2.2477330927365897 -1 0 0 I I #
coedge $-1 $289 $296 $441 $442 forward $131 $-1 #
coedge $-1 $443 $427 $289 $366 reversed $423 $-1 #
edge $-1 $444 -38.333851661449138 $367 -29.612233278233823 $289 $445 forward 7 unknown #
vertex $-1 $366 $446 #
straight-curve $-1 -63.585275748075304 -13.688320632429232 7.6626658805837149 0 -1 0 I I #
coedge $-1 $447 $293 $349 $426 reversed $215 $-1 #
coedge $-1 $294 $447 $448 $449 reversed $215 $-1 #
coedge $-1 $450 $297 $294 $372 forward $378 $-1 #
edge $-1 $299 -7.6626658805837149 $451 7.6626658805837149 $371 $452 forward 7 unknown #
face $-1 $453 $454 $14 $-1 $455 reversed single #
plane-surface $-1 0 -33.81765656184664 0 0 1 0 0 0 1 forward_v I I I I #
coedge $-1 $456 $457 $296 $376 reversed $458 $-1 #
edge $-1 $379 -72.306894131290619 $459 72.306894131290619 $375 $460 forward 7 unknown #
coedge $-1 $297 $450 $456 $461 reversed $378 $-1 #
loop $-1 $-1 $371 $462 #
vertex $-1 $298 $463 #
straight-curve $-1 72.306894131290619 0 7.6626658805837149 0 1 0 I I #
point $-1 72.306894131290619 -33.81765656184664 7.6626658805837149 #
face $-1 $464 $312 $15 $-1 $384 forward single #
loop $-1 $-1 $465 $301 #
plane-surface $-1 0 0 7.6626658805837149 0 0 1 1 0 0 forward_v I I I I #
coedge $-1 $466 $467 $390 $468 forward $302 $-1 #
coedge $-1 $469 $304 $465 $470 reversed $222 $-1 #
coedge $-1 $304 $469 $471 $472 forward $222 $-1 #
coedge $-1 $473 $474 $304 $389 forward $475 $-1 #
edge $-1 $476 -7.6626658805837149 $477 -5.8689483720375524 $388 $478 forward 7 unknown #
coedge $-1 $471 $305 $385 $468 reversed $224 $-1 #
edge $-1 $479 -39.536235465959557 $313 -8.5618450982719381 $311 $480 forward 7 unknown #
coedge $-1 $306 $471 $395 $481 reversed $224 $-1 #
vertex $-1 $481 $482 #
straight-curve $-1 -32.610885380387685 -33.817656561846633 2.2477330927365955 0 -0.78801074757464917 -0.61566148304635926 I I #
coedge $-1 $483 $308 $392 $481 forward $397 $-1 #
coedge $-1 $308 $484 $310 $400 reversed $397 $-1 #
loop $-1 $-1 $483 $485 #
straight-curve $-1 -32.610885380387685 -33.81765656184664 58.10247624556763 0 0 -1 I I #
coedge $-1 $486 $310 $487 $488 forward $312 $-1 #
edge $-1 $314 -32.610885380387685 $489 72.306894131290619 $396 $490 forward 7 unknown #
coedge $-1 $311 $491 $466 $492 forward $312 $-1 #
point $-1 -32.610885380387685 -26.886858791123366 7.6626658805837158 #
point $-1 -32.610885380387685 -33.81765656184664 7.6626658805837149 #
point $-1 -48.098080564231495 -26.519888482661962 0.049990704614014447 #
face $-1 $493 $494 $13 $-1 $495 reversed single #
coedge $-1 $496 $497 $325 $407 reversed $494 $-1 #
edge $-1 $498 -72.306894131290619 $409 72.306894131290619 $406 $499 forward 7 unknown #
coedge $-1 $330 $326 $497 $500 forward $331 $-1 #
vertex $-1 $407 $501 #
coedge $-1 $497 $496 $334 $411 reversed $494 $-1 #
edge $-1 $412 -72.306894131290619 $502 72.306894131290619 $410 $503 forward 7 unknown #
vertex $-1 $411 $504 #
coedge $-1 $505 $506 $337 $414 reversed $507 $-1 #
edge $-1 $416 -33.81765656184664 $498 33.81765656184664 $413 $508 forward 7 unknown #
coedge $-1 $338 $341 $505 $509 reversed $323 $-1 #
vertex $-1 $414 $510 #
straight-curve $-1 0 -33.81765656184664 7.6626658805837149 1 0 0 I I #
coedge $-1 $506 $505 $340 $419 reversed $507 $-1 #
edge $-1 $502 -33.81765656184664 $420 33.81765656184664 $418 $511 forward 7 unknown #
vertex $-1 $509 $512 #
straight-curve $-1 0 -33.81765656184664 -7.6626658805837149 -1 0 0 I I #
face $-1 $513 $514 $14 $-1 $455 reversed single #
loop $-1 $-1 $427 $346 #
plane-surface $-1 -67.946084939682962 -25.570570069377155 0 0 -1 0 0 0 -1 forward_v I I I I #
coedge $-1 $349 $348 $515 $516 forward $198 $-1 #
edge $-1 $517 -72.306894131290619 $354 -63.585275748075304 $369 $300 forward 7 unknown #
coedge $-1 $365 $518 $350 $428 reversed $423 $-1 #
edge $-1 $367 -7.6626658805837149 $519 7.6626658805837149 $350 $520 forward 7 unknown #
coedge $-1 $521 $435 $351 $430 forward $522 $-1 #
edge $-1 $431 -15.49439182791054 $519 -11.882249436947923 $429 $523 forward 7 unknown #
vertex $-1 $436 $524 #
straight-curve $-1 -63.585275748075304 -33.81765656184664 58.10247624556763 0 0 1 I I #
point $-1 -63.585275748075304 -33.81765656184664 7.6626658805837149 #
point $-1 -63.585275748075304 -33.81765656184664 2.2477330927365897 #
coedge $-1 $429 $525 $358 $436 forward $522 $-1 #
edge $-1 $526 -38.333851661449138 $431 -29.612233278233823 $435 $527 forward 7 unknown #
coedge $-1 $528 $515 $359 $438 forward $514 $-1 #
edge $-1 $439 -7.6626658805837149 $526 7.6626658805837149 $437 $529 forward 7 unknown #
vertex $-1 $516 $530 #
straight-curve $-1 -33.973042469841481 -29.182712460339772 7.6626658805837149 -1 0 0 I I #
coedge $-1 $531 $532 $364 $442 reversed $454 $-1 #
edge $-1 $459 -33.81765656184664 $444 25.570570069377155 $441 $533 forward 7 unknown #
coedge $-1 $518 $365 $532 $534 reversed $423 $-1 #
vertex $-1 $534 $535 #
straight-curve $-1 -33.973042469841481 -25.570570069377155 7.6626658805837149 1 0 0 I I #
point $-1 -63.585275748075304 -25.570570069377155 7.6626658805837149 #
coedge $-1 $370 $369 $536 $537 forward $215 $-1 #
coedge $-1 $525 $538 $370 $449 forward $522 $-1 #
edge $-1 $451 -72.306894131290619 $539 72.306894131290619 $370 $540 forward 7 unknown #
coedge $-1 $377 $371 $538 $541 reversed $378 $-1 #
vertex $-1 $372 $542 #
straight-curve $-1 72.306894131290619 -33.81765656184664 0 0 0 -1 I I #
face $-1 $462 $458 $14 $-1 $543 reversed single #
loop $-1 $-1 $532 $373 #
plane-surface $-1 -72.306894131290619 0 0 1 0 0 0 0 -1 forward_v I I I I #
coedge $-1 $544 $375 $377 $461 forward $458 $-1 #
coedge $-1 $375 $544 $531 $545 reversed $458 $-1 #
loop $-1 $-1 $456 $453 #
vertex $-1 $376 $546 #
straight-curve $-1 0 33.81765656184664 7.6626658805837149 -1 0 0 I I #
edge $-1 $379 -7.6626658805837149 $547 7.6626658805837149 $377 $548 forward 7 unknown #
face $-1 $-1 $378 $14 $-1 $549 reversed single #
point $-1 72.306894131290619 33.81765656184664 7.6626658805837149 #
face $-1 $550 $475 $15 $-1 $551 forward single #
coedge $-1 $552 $553 $386 $470 forward $383 $-1 #
coedge $-1 $554 $385 $401 $492 reversed $302 $-1 #
coedge $-1 $385 $555 $473 $556 reversed $302 $-1 #
edge $-1 $477 4.0359552407032915 $479 6.9494353883822635 $385 $557 forward 7 unknown #
coedge $-1 $387 $386 $483 $558 reversed $222 $-1 #
edge $-1 $559 27.607741394423151 $476 32.242685495930019 $465 $560 forward 7 unknown #
coedge $-1 $392 $390 $387 $472 reversed $224 $-1 #
edge $-1 $561 -9.1534652039358102e-015 $477 5.8818285356796949 $387 $562 forward 7 unknown #
coedge $-1 $563 $388 $467 $556 forward $475 $-1 #
coedge $-1 $388 $564 $552 $565 reversed $475 $-1 #
loop $-1 $-1 $564 $464 #
vertex $-1 $565 $566 #
vertex $-1 $556 $567 #
straight-curve $-1 -63.585275748075304 -29.182712460339772 0 0 0 -1 I I #
vertex $-1 $391 $568 #
straight-curve $-1 -24.049040282115747 -26.886858791123366 7.6626658805837149 1 0 0 I I #
edge $-1 $393 8.5618450982719381 $561 39.536235465959557 $395 $569 forward 7 unknown #
point $-1 -32.610885380387685 -33.81765656184664 2.2477330927365897 #
coedge $-1 $570 $395 $469 $558 forward $397 $-1 #
coedge $-1 $396 $571 $572 $573 reversed $397 $-1 #
face $-1 $574 $397 $15 $-1 $575 reversed single #
coedge $-1 $576 $399 $577 $578 forward $312 $-1 #
coedge $-1 $572 $579 $399 $488 reversed $580 $-1 #
edge $-1 $489 -33.81765656184664 $581 33.81765656184664 $487 $582 forward 7 unknown #
vertex $-1 $488 $583 #
straight-curve $-1 0 -33.81765656184664 7.6626658805837149 1 0 0 I I #
coedge $-1 $401 $576 $584 $585 forward $312 $-1 #
edge $-1 $586 11.882249436947923 $479 13.198538158694134 $401 $587 forward 7 unknown #
face $-1 $-1 $507 $13 $-1 $588 reversed single #
loop $-1 $-1 $496 $405 #
plane-surface $-1 0 33.81765656184664 0 0 -1 0 0 0 -1 forward_v I I I I #
coedge $-1 $410 $406 $506 $589 forward $494 $-1 #
coedge $-1 $406 $410 $408 $500 reversed $494 $-1 #
vertex $-1 $414 $590 #
straight-curve $-1 0 33.81765656184664 7.6626658805837149 -1 0 0 I I #
edge $-1 $409 -7.6626658805837149 $412 7.6626658805837149 $497 $591 forward 7 unknown #
point $-1 -72.306894131290619 33.81765656184664 7.6626658805837149 #
vertex $-1 $419 $592 #
straight-curve $-1 0 33.81765656184664 -7.6626658805837149 1 0 0 I I #
point $-1 -72.306894131290619 33.81765656184664 -7.6626658805837149 #
coedge $-1 $418 $413 $415 $509 forward $507 $-1 #
coedge $-1 $413 $418 $496 $589 reversed $507 $-1 #
loop $-1 $-1 $505 $493 #
straight-curve $-1 72.306894131290619 0 7.6626658805837149 0 1 0 I I #
edge $-1 $416 -7.6626658805837149 $420 7.6626658805837149 $505 $593 forward 7 unknown #
point $-1 72.306894131290619 -33.81765656184664 7.6626658805837149 #
straight-curve $-1 72.306894131290619 0 -7.6626658805837149 0 -1 0 I I #
point $-1 72.306894131290619 -33.81765656184664 -7.6626658805837149 #
face $-1 $295 $522 $14 $-1 $594 reversed single #
loop $-1 $-1 $437 $422 #
coedge $-1 $437 $536 $425 $516 reversed $514 $-1 #
edge $-1 $439 29.182712460339772 $517 33.81765656184664 $515 $533 forward 7 unknown #
vertex $-1 $516 $595 #
coedge $-1 $427 $443 $521 $596 reversed $423 $-1 #
vertex $-1 $596 $597 #
straight-curve $-1 -63.585275748075304 -25.570570069377155 0 0 0 -1 I I #
coedge $-1 $598 $429 $518 $596 forward $522 $-1 #
loop $-1 $-1 $521 $513 #
straight-curve $-1 -63.585275748075304 -13.688320632429232 -7.6626658805837149 0 1 0 I I #
point $-1 -63.585275748075304 -29.182712460339772 -7.6626658805837149 #
coedge $-1 $435 $448 $528 $599 forward $522 $-1 #
vertex $-1 $438 $600 #
straight-curve $-1 -33.973042469841481 -29.182712460339772 -7.6626658805837149 1 0 0 I I #
coedge $-1 $536 $437 $525 $599 reversed $514 $-1 #
straight-curve $-1 -72.306894131290619 -29.182712460339772 0 0 0 -1 I I #
point $-1 -72.306894131290619 -29.182712460339772 7.6626658805837149 #
coedge $-1 $601 $441 $457 $545 forward $454 $-1 #
coedge $-1 $441 $601 $443 $534 forward $454 $-1 #
straight-curve $-1 -72.306894131290619 0 7.6626658805837149 0 -1 0 I I #
edge $-1 $602 -7.6626658805837149 $444 7.6626658805837149 $532 $603 forward 7 unknown #
point $-1 -72.306894131290619 -25.570570069377155 7.6626658805837149 #
coedge $-1 $515 $528 $447 $537 reversed $514 $-1 #
edge $-1 $517 -7.6626658805837149 $539 7.6626658805837149 $536 $604 forward 7 unknown #
coedge $-1 $448 $605 $450 $541 forward $522 $-1 #
vertex $-1 $599 $606 #
straight-curve $-1 0 -33.81765656184664 -7.6626658805837149 -1 0 0 I I #
edge $-1 $547 -33.81765656184664 $451 33.81765656184664 $450 $607 forward 7 unknown #
point $-1 72.306894131290619 -33.81765656184664 -7.6626658805837149 #
plane-surface $-1 0 33.81765656184664 0 0 -1 0 0 0 -1 forward_v I I I I #
coedge $-1 $457 $456 $605 $608 reversed $458 $-1 #
edge $-1 $459 -7.6626658805837149 $609 7.6626658805837149 $457 $610 forward 7 unknown #
point $-1 -72.306894131290619 33.81765656184664 7.6626658805837149 #
vertex $-1 $541 $611 #
straight-curve $-1 72.306894131290619 33.81765656184664 0 0 0 -1 I I #
plane-surface $-1 72.306894131290619 0 0 -1 0 0 0 0 1 forward_v I I I I #
face $-1 $612 $613 $15 $-1 $614 forward single #
plane-surface $-1 -67.946084939682962 -29.182712460339772 0 0 1 0 0 0 1 forward_v I I I I #
coedge $-1 $615 $465 $474 $565 forward $383 $-1 #
coedge $-1 $465 $615 $570 $616 forward $383 $-1 #
coedge $-1 $555 $466 $617 $618 forward $302 $-1 #
coedge $-1 $467 $554 $619 $620 reversed $302 $-1 #
edge $-1 $477 -5.8689483720375524 $621 7.6626658805837149 $467 $478 forward 7 unknown #
straight-curve $-1 -63.585275748075304 -32.363088566744196 3.3841661830374377 0 0.78801074757464917 0.61566148304635926 I I #
edge $-1 $561 -55.854743152831041 $559 -50.439810364983913 $483 $622 forward 7 unknown #
vertex $-1 $558 $623 #
straight-curve $-1 -63.585275748075304 -61.425397956269791 7.6626658805837167 0 1 0 I I #
vertex $-1 $481 $624 #
straight-curve $-1 -63.585275748075304 -33.817656561846633 2.2477330927365955 0 0.78801074757464917 0.61566148304635926 I I #
coedge $-1 $564 $473 $625 $626 reversed $475 $-1 #
coedge $-1 $474 $563 $627 $628 reversed $475 $-1 #
edge $-1 $476 29.612233278233823 $629 38.333851661449138 $552 $630 forward 7 unknown #
point $-1 -63.585275748075304 -29.182712460339772 7.6626658805837149 #
point $-1 -63.585275748075304 -29.182712460339772 5.8689483720375524 #
point $-1 -63.585275748075304 -26.886858791123366 7.6626658805837149 #
straight-curve $-1 -24.049040282115747 -33.81765656184664 2.2477330927365897 -1 0 0 I I #
coedge $-1 $631 $483 $553 $616 reversed $397 $-1 #
coedge $-1 $484 $631 $632 $633 reversed $397 $-1 #
coedge $-1 $634 $487 $484 $573 forward $580 $-1 #
edge $-1 $489 -7.6626658805837149 $635 7.6626658805837149 $572 $636 forward 7 unknown #
face $-1 $637 $638 $15 $-1 $639 reversed single #
plane-surface $-1 0 -33.81765656184664 0 0 1 0 0 0 1 forward_v I I I I #
coedge $-1 $491 $486 $640 $641 forward $312 $-1 #
coedge $-1 $642 $643 $486 $578 reversed $644 $-1 #
edge $-1 $581 -72.306894131290619 $645 72.306894131290619 $577 $646 forward 7 unknown #
coedge $-1 $487 $634 $642 $647 reversed $580 $-1 #
loop $-1 $-1 $572 $648 #
vertex $-1 $488 $649 #
straight-curve $-1 72.306894131290619 0 7.6626658805837149 0 1 0 I I #
point $-1 72.306894131290619 -33.81765656184664 7.6626658805837149 #
coedge $-1 $650 $617 $491 $585 reversed $613 $-1 #
edge $-1 $651 -38.333851661449138 $586 -29.612233278233823 $491 $652 forward 7 unknown #
vertex $-1 $585 $653 #
straight-curve $-1 -63.585275748075304 -13.688320632429232 7.6626658805837149 0 -1 0 I I #
plane-surface $-1 72.306894131290619 0 0 -1 0 0 0 0 1 forward_v I I I I #
edge $-1 $498 -7.6626658805837149 $502 7.6626658805837149 $506 $654 forward 7 unknown #
point $-1 72.306894131290619 33.81765656184664 7.6626658805837149 #
straight-curve $-1 -72.306894131290619 33.81765656184664 0 0 0 -1 I I #
point $-1 72.306894131290619 33.81765656184664 -7.6626658805837149 #
straight-curve $-1 72.306894131290619 -33.81765656184664 0 0 0 -1 I I #
plane-surface $-1 0 0 -7.6626658805837149 0 0 1 1 0 0 forward_v I I I I #
point $-1 -72.306894131290619 -33.81765656184664 7.6626658805837149 #
edge $-1 $519 29.612233278233823 $602 38.333851661449138 $521 $655 forward 7 unknown #
point $-1 -63.585275748075304 -25.570570069377155 -7.6626658805837149 #
coedge $-1 $605 $521 $601 $656 forward $522 $-1 #
edge $-1 $539 -33.81765656184664 $526 -29.182712460339772 $528 $657 forward 7 unknown #
point $-1 -72.306894131290619 -29.182712460339772 -7.6626658805837149 #
coedge $-1 $532 $531 $598 $656 reversed $454 $-1 #
vertex $-1 $656 $658 #
straight-curve $-1 -72.306894131290619 -25.570570069377155 0 0 0 1 I I #
straight-curve $-1 -72.306894131290619 -33.81765656184664 0 0 0 -1 I I #
coedge $-1 $538 $598 $544 $608 forward $522 $-1 #
point $-1 -72.306894131290619 -33.81765656184664 -7.6626658805837149 #
straight-curve $-1 72.306894131290619 0 -7.6626658805837149 0 -1 0 I I #
edge $-1 $609 -72.306894131290619 $547 72.306894131290619 $544 $659 forward 7 unknown #
vertex $-1 $608 $660 #
straight-curve $-1 -72.306894131290619 33.81765656184664 0 0 0 -1 I I #
point $-1 72.306894131290619 33.81765656184664 -7.6626658805837149 #
face $-1 $661 $662 $15 $-1 $639 reversed single #
loop $-1 $-1 $617 $550 #
plane-surface $-1 -67.946084939682962 -25.570570069377155 0 0 -1 0 0 0 -1 forward_v I I I I #
coedge $-1 $553 $552 $663 $664 forward $383 $-1 #
edge $-1 $665 -72.306894131290619 $559 -63.585275748075304 $570 $490 forward 7 unknown #
coedge $-1 $584 $666 $554 $618 reversed $613 $-1 #
edge $-1 $586 -7.6626658805837149 $667 7.6626658805837149 $554 $668 forward 7 unknown #
coedge $-1 $669 $625 $555 $620 forward $670 $-1 #
edge $-1 $621 -15.49439182791054 $667 -11.882249436947923 $619 $671 forward 7 unknown #
vertex $-1 $626 $672 #
straight-curve $-1 -63.585275748075304 -33.81765656184664 58.10247624556763 0 0 1 I I #
point $-1 -63.585275748075304 -33.81765656184664 7.6626658805837149 #
point $-1 -63.585275748075304 -33.81765656184664 2.2477330927365897 #
coedge $-1 $619 $673 $563 $626 forward $670 $-1 #
edge $-1 $674 -38.333851661449138 $621 -29.612233278233823 $625 $675 forward 7 unknown #
coedge $-1 $676 $663 $564 $628 forward $662 $-1 #
edge $-1 $629 -7.6626658805837149 $674 7.6626658805837149 $627 $677 forward 7 unknown #
vertex $-1 $664 $678 #
straight-curve $-1 -33.973042469841481 -29.182712460339772 7.6626658805837149 -1 0 0 I I #
coedge $-1 $571 $570 $679 $680 forward $397 $-1 #
coedge $-1 $673 $681 $571 $633 forward $670 $-1 #
edge $-1 $635 -72.306894131290619 $682 72.306894131290619 $571 $683 forward 7 unknown #
coedge $-1 $579 $572 $681 $684 reversed $580 $-1 #
vertex $-1 $573 $685 #
straight-curve $-1 72.306894131290619 -33.81765656184664 0 0 0 -1 I I #
face $-1 $648 $644 $15 $-1 $686 reversed single #
loop $-1 $-1 $687 $574 #
plane-surface $-1 -72.306894131290619 0 0 1 0 0 0 0 -1 forward_v I I I I #
coedge $-1 $688 $687 $576 $641 reversed $638 $-1 #
edge $-1 $645 -33.81765656184664 $651 25.570570069377155 $640 $689 forward 7 unknown #
coedge $-1 $690 $577 $579 $647 forward $644 $-1 #
coedge $-1 $577 $690 $688 $691 reversed $644 $-1 #
loop $-1 $-1 $642 $637 #
vertex $-1 $578 $692 #
straight-curve $-1 0 33.81765656184664 7.6626658805837149 -1 0 0 I I #
edge $-1 $581 -7.6626658805837149 $693 7.6626658805837149 $579 $694 forward 7 unknown #
face $-1 $-1 $580 $15 $-1 $695 reversed single #
point $-1 72.306894131290619 33.81765656184664 7.6626658805837149 #
coedge $-1 $666 $584 $687 $696 reversed $613 $-1 #
vertex $-1 $696 $697 #
straight-curve $-1 -33.973042469841481 -25.570570069377155 7.6626658805837149 1 0 0 I I #
point $-1 -63.585275748075304 -25.570570069377155 7.6626658805837149 #
straight-curve $-1 72.306894131290619 33.81765656184664 0 0 0 -1 I I #
straight-curve $-1 -33.973042469841481 -25.570570069377155 -7.6626658805837149 -1 0 0 I I #
edge $-1 $602 -25.570570069377155 $609 33.81765656184664 $601 $657 forward 7 unknown #
straight-curve $-1 -72.306894131290619 0 -7.6626658805837149 0 1 0 I I #
point $-1 -72.306894131290619 -25.570570069377155 -7.6626658805837149 #
straight-curve $-1 0 33.81765656184664 -7.6626658805837149 1 0 0 I I #
point $-1 -72.306894131290619 33.81765656184664 -7.6626658805837149 #
face $-1 $485 $670 $15 $-1 $698 reversed single #
loop $-1 $-1 $627 $612 #
coedge $-1 $627 $679 $615 $664 reversed $662 $-1 #
edge $-1 $629 29.182712460339772 $665 33.81765656184664 $663 $689 forward 7 unknown #
vertex $-1 $664 $699 #
coedge $-1 $617 $650 $669 $700 reversed $613 $-1 #
vertex $-1 $700 $701 #
straight-curve $-1 -63.585275748075304 -25.570570069377155 0 0 0 -1 I I #
coedge $-1 $702 $619 $666 $700 forward $670 $-1 #
loop $-1 $-1 $669 $661 #
straight-curve $-1 -63.585275748075304 -13.688320632429232 -7.6626658805837149 0 1 0 I I #
point $-1 -63.585275748075304 -29.182712460339772 -7.6626658805837149 #
coedge $-1 $625 $632 $676 $703 forward $670 $-1 #
vertex $-1 $628 $704 #
straight-curve $-1 -33.973042469841481 -29.182712460339772 -7.6626658805837149 1 0 0 I I #
coedge $-1 $679 $627 $673 $703 reversed $662 $-1 #
straight-curve $-1 -72.306894131290619 -29.182712460339772 0 0 0 -1 I I #
point $-1 -72.306894131290619 -29.182712460339772 7.6626658805837149 #
coedge $-1 $663 $676 $631 $680 reversed $662 $-1 #
edge $-1 $665 -7.6626658805837149 $682 7.6626658805837149 $679 $705 forward 7 unknown #
coedge $-1 $632 $706 $634 $684 forward $670 $-1 #
vertex $-1 $703 $707 #
straight-curve $-1 0 -33.81765656184664 -7.6626658805837149 -1 0 0 I I #
edge $-1 $693 -33.81765656184664 $635 33.81765656184664 $634 $708 forward 7 unknown #
point $-1 72.306894131290619 -33.81765656184664 -7.6626658805837149 #
plane-surface $-1 0 33.81765656184664 0 0 -1 0 0 0 -1 forward_v I I I I #
coedge $-1 $640 $709 $650 $696 forward $638 $-1 #
coedge $-1 $709 $640 $643 $691 forward $638 $-1 #
straight-curve $-1 -72.306894131290619 0 7.6626658805837149 0 -1 0 I I #
coedge $-1 $643 $642 $706 $710 reversed $644 $-1 #
edge $-1 $645 -7.6626658805837149 $711 7.6626658805837149 $643 $712 forward 7 unknown #
point $-1 -72.306894131290619 33.81765656184664 7.6626658805837149 #
vertex $-1 $684 $713 #
straight-curve $-1 72.306894131290619 33.81765656184664 0 0 0 -1 I I #
plane-surface $-1 72.306894131290619 0 0 -1 0 0 0 0 1 forward_v I I I I #
edge $-1 $714 -7.6626658805837149 $651 7.6626658805837149 $687 $715 forward 7 unknown #
point $-1 -72.306894131290619 -25.570570069377155 7.6626658805837149 #
plane-surface $-1 0 0 -7.6626658805837149 0 0 1 1 0 0 forward_v I I I I #
point $-1 -72.306894131290619 -33.81765656184664 7.6626658805837149 #
edge $-1 $667 29.612233278233823 $714 38.333851661449138 $669 $716 forward 7 unknown #
point $-1 -63.585275748075304 -25.570570069377155 -7.6626658805837149 #
coedge $-1 $706 $669 $709 $717 forward $670 $-1 #
edge $-1 $682 -33.81765656184664 $674 -29.182712460339772 $676 $718 forward 7 unknown #
point $-1 -72.306894131290619 -29.182712460339772 -7.6626658805837149 #
straight-curve $-1 -72.306894131290619 -33.81765656184664 0 0 0 -1 I I #
coedge $-1 $681 $702 $690 $710 forward $670 $-1 #
point $-1 -72.306894131290619 -33.81765656184664 -7.6626658805837149 #
straight-curve $-1 72.306894131290619 0 -7.6626658805837149 0 -1 0 I I #
coedge $-1 $687 $688 $702 $717 reversed $638 $-1 #
edge $-1 $711 -72.306894131290619 $693 72.306894131290619 $690 $719 forward 7 unknown #
vertex $-1 $710 $720 #
straight-curve $-1 -72.306894131290619 33.81765656184664 0 0 0 -1 I I #
point $-1 72.306894131290619 33.81765656184664 -7.6626658805837149 #
vertex $-1 $717 $721 #
straight-curve $-1 -72.306894131290619 -25.570570069377155 0 0 0 1 I I #
straight-curve $-1 -33.973042469841481 -25.570570069377155 -7.6626658805837149 -1 0 0 I I #
edge $-1 $714 -25.570570069377155 $711 33.81765656184664 $709 $718 forward 7 unknown #
straight-curve $-1 -72.306894131290619 0 -7.6626658805837149 0 1 0 I I #
straight-curve $-1 0 33.81765656184664 -7.6626658805837149 1 0 0 I I #
point $-1 -72.306894131290619 33.81765656184664 -7.6626658805837149 #
point $-1 -72.306894131290619 -25.570570069377155 -7.6626658805837149 #
End-of-ACIS-data 