500 0 8 0           
7 Unknown 11 ACIS 5.0 NT 24 Fri Mar 26 00:27:37 1999 
-1 9.9999999999999995e-007 1e-010 
body $-1 $8 $-1 $9 #
body $-1 $10 $-1 $11 #
body $-1 $12 $-1 $13 #
body $-1 $14 $-1 $15 #
body $-1 $16 $-1 $17 #
body $-1 $18 $-1 $19 #
body $-1 $20 $-1 $21 #
body $-1 $22 $-1 $23 #
lump $-1 $-1 $24 $0 #
transform $-1 1 0 0 0 1 0 0 0 1 46.273384807885982 30.194276800314064 9.1474827225268633 1 rotate no_reflect no_shear #
lump $-1 $-1 $25 $1 #
transform $-1 1 0 0 0 1 0 0 0 1 46.273384807885982 30.194276800314064 9.1474827225268633 1 rotate no_reflect no_shear #
lump $-1 $-1 $26 $2 #
transform $-1 1 0 0 0 1 0 0 0 1 46.273384807885982 30.194276800314064 9.1474827225268633 1 rotate no_reflect no_shear #
lump $-1 $-1 $27 $3 #
transform $-1 1 0 0 0 1 0 0 0 1 46.273384807885982 30.194276800314064 9.1474827225268633 1 rotate no_reflect no_shear #
lump $-1 $-1 $28 $4 #
transform $-1 1 0 0 0 1 0 0 0 1 46.273384807885982 30.194276800314064 9.1474827225268633 1 rotate no_reflect no_shear #
lump $-1 $-1 $29 $5 #
transform $-1 1 0 0 0 1 0 0 0 1 46.273384807885982 30.194276800314064 9.1474827225268633 1 rotate no_reflect no_shear #
lump $-1 $-1 $30 $6 #
transform $-1 1 0 0 0 1 0 0 0 1 46.273384807885982 30.194276800314064 9.1474827225268633 1 rotate no_reflect no_shear #
lump $-1 $-1 $31 $7 #
transform $-1 1 0 0 0 1 0 0 0 1 46.273384807885982 30.194276800314064 9.1474827225268633 1 rotate no_reflect no_shear #
shell $-1 $-1 $-1 $32 $-1 $8 #
shell $-1 $-1 $-1 $33 $-1 $10 #
shell $-1 $-1 $-1 $34 $-1 $12 #
shell $-1 $-1 $-1 $35 $-1 $14 #
shell $-1 $-1 $-1 $36 $-1 $16 #
shell $-1 $-1 $-1 $37 $-1 $18 #
shell $-1 $-1 $-1 $38 $-1 $20 #
shell $-1 $-1 $-1 $39 $-1 $22 #
face $-1 $40 $41 $24 $-1 $42 forward single #
face $-1 $43 $44 $25 $-1 $45 forward single #
face $-1 $46 $47 $26 $-1 $48 forward single #
face $-1 $49 $50 $27 $-1 $51 reversed single #
face $-1 $52 $53 $28 $-1 $54 forward single #
face $-1 $55 $56 $29 $-1 $57 reversed single #
face $-1 $58 $59 $30 $-1 $60 forward single #
face $-1 $61 $62 $31 $-1 $63 forward single #
face $-1 $64 $65 $24 $-1 $66 reversed single #
loop $-1 $-1 $67 $32 #
plane-surface $-1 0 0 9.1474827225268633 0 0 1 1 0 0 forward_v I I I I #
face $-1 $68 $69 $25 $-1 $70 reversed single #
loop $-1 $-1 $71 $33 #
plane-surface $-1 0 -30.194276800314064 0 0 1 0 0 0 1 forward_v I I I I #
face $-1 $72 $73 $26 $-1 $74 reversed single #
loop $-1 $-1 $75 $34 #
plane-surface $-1 0 30.194276800314064 0 0 -1 0 0 0 -1 forward_v I I I I #
face $-1 $76 $77 $27 $-1 $78 reversed single #
loop $-1 $-1 $79 $35 #
plane-surface $-1 -117.16832416756219 7.2435222344042991 62.393463106123505 0 1 0 -0.7660444514056185 0 0.64278759981090561 forward_v I I I I #
face $-1 $80 $81 $28 $-1 $82 forward single #
loop $-1 $83 $84 $36 #
cone-surface $-1 -40.779910574635522 12.009036710812531 3.6143793084034881 0.7660444514056185 0 -0.64278759981090561 1.2855751996218112 0 1.532088902811237 1 I I 0 1 2 forward I I I I #
face $-1 $85 $86 $29 $-1 $87 reversed single #
loop $-1 $-1 $88 $37 #
plane-surface $-1 30.323017130138602 -14.663717979464089 134.70857321621534 0 -1 0 -0.61566148304635926 0 -0.78801074757464917 forward_v I I I I #
face $-1 $89 $90 $30 $-1 $91 forward single #
loop $-1 $92 $93 $38 #
cone-surface $-1 42.535594231523625 -20.14443854503245 5.7496857739401088 -0.61566148304635926 0 -0.78801074757464917 0.78801074757464917 0 -0.61566148304635926 1 I I 0 1 1 forward I I I I #
face $-1 $94 $95 $31 $-1 $96 forward single #
loop $-1 $97 $98 $39 #
cone-surface $-1 42.535594231523625 -16.856006205691433 5.7496857739401088 -0.61566148304635926 0 -0.78801074757464917 0.78801074757464917 0 -0.61566148304635926 1 I I 0 1 1 forward I I I I #
face $-1 $99 $100 $24 $-1 $101 reversed single #
loop $-1 $-1 $102 $40 #
plane-surface $-1 0 0 -9.1474827225268633 0 0 1 1 0 0 forward_v I I I I #
coedge $-1 $103 $104 $105 $106 forward $41 $-1 #
face $-1 $107 $108 $25 $-1 $109 reversed single #
loop $-1 $-1 $110 $43 #
plane-surface $-1 0 0 -9.1474827225268633 0 0 1 1 0 0 forward_v I I I I #
coedge $-1 $111 $112 $113 $114 forward $44 $-1 #
face $-1 $115 $116 $26 $-1 $117 forward single #
loop $-1 $-1 $118 $46 #
plane-surface $-1 -46.273384807885982 0 0 1 0 0 0 0 -1 forward_v I I I I #
coedge $-1 $119 $120 $121 $122 forward $47 $-1 #
face $-1 $123 $124 $27 $-1 $125 reversed single #
loop $-1 $-1 $126 $49 #
plane-surface $-1 -46.273384807885989 12.009036710812531 2.9055471945485962 -0.7660444514056185 0 0.64278759981090561 0.64278759981090561 0 0.7660444514056185 forward_v I I I I #
coedge $-1 $127 $128 $129 $130 reversed $50 $-1 #
face $-1 $-1 $131 $28 $-1 $132 forward single #
loop $-1 $133 $134 $52 #
cone-surface $-1 -37.139194721095514 12.009036710812531 0.55945605845834478 0.7660444514056185 0 -0.64278759981090561 0.64278759981090561 0 0.7660444514056185 1 I I -0.70710678118654746 0.70710678118654746 1 forward I I I I #
loop $-1 $-1 $135 $36 #
coedge $-1 $84 $84 $136 $137 reversed $53 $-1 #
face $-1 $138 $139 $29 $-1 $140 reversed single #
loop $-1 $-1 $141 $55 #
plane-surface $-1 -26.654464302657296 -18.500222375361943 61.780724105672064 0.61566148304635926 0 0.78801074757464917 0.78801074757464917 0 -0.61566148304635926 forward_v I I I I #
coedge $-1 $142 $143 $144 $145 reversed $56 $-1 #
face $-1 $-1 $146 $30 $-1 $147 forward single #
loop $-1 $148 $149 $58 #
cone-surface $-1 41.270159707385595 -20.14443854503245 4.1300034763913906 -0.61566148304635926 0 -0.78801074757464917 0.39400537378732459 0 -0.30783074152317963 1 I I -0.70710678118654746 0.70710678118654746 0.5 forward I I I I #
loop $-1 $-1 $150 $38 #
coedge $-1 $93 $93 $151 $152 reversed $59 $-1 #
face $-1 $-1 $153 $31 $-1 $154 forward single #
loop $-1 $155 $156 $61 #
cone-surface $-1 41.270159707385595 -16.856006205691433 4.1300034763913906 -0.61566148304635926 0 -0.78801074757464917 0.39400537378732459 0 -0.30783074152317963 1 I I -0.70710678118654746 0.70710678118654746 0.5 forward I I I I #
loop $-1 $-1 $157 $39 #
coedge $-1 $98 $98 $158 $159 reversed $62 $-1 #
face $-1 $160 $161 $24 $-1 $162 reversed single #
loop $-1 $-1 $163 $64 #
plane-surface $-1 0 -30.194276800314064 0 0 1 0 0 0 1 forward_v I I I I #
coedge $-1 $164 $165 $166 $167 forward $65 $-1 #
coedge $-1 $168 $67 $169 $170 forward $41 $-1 #
coedge $-1 $67 $168 $171 $172 forward $41 $-1 #
coedge $-1 $173 $174 $67 $106 reversed $175 $-1 #
edge $-1 $176 -30.194276800314064 $177 30.194276800314064 $105 $178 forward 7 unknown #
face $-1 $179 $180 $25 $-1 $181 forward single #
loop $-1 $-1 $182 $68 #
plane-surface $-1 46.273384807885982 0 0 -1 0 0 0 0 1 forward_v I I I I #
coedge $-1 $183 $184 $185 $186 forward $69 $-1 #
coedge $-1 $185 $71 $182 $187 reversed $44 $-1 #
coedge $-1 $71 $185 $188 $189 reversed $44 $-1 #
coedge $-1 $190 $191 $71 $114 reversed $180 $-1 #
edge $-1 $192 -46.273384807885982 $193 46.273384807885982 $113 $194 forward 7 unknown #
face $-1 $195 $196 $26 $-1 $197 reversed single #
loop $-1 $-1 $198 $72 #
plane-surface $-1 0 34.123051814841197 -3.9633973726083664 0 0 1 1 0 0 forward_v I I I I #
coedge $-1 $199 $200 $119 $201 forward $73 $-1 #
coedge $-1 $202 $75 $118 $201 reversed $47 $-1 #
coedge $-1 $75 $202 $203 $204 reversed $47 $-1 #
coedge $-1 $198 $205 $75 $122 reversed $116 $-1 #
edge $-1 $206 -46.273384807885982 $207 46.273384807885982 $121 $208 forward 7 unknown #
face $-1 $209 $210 $27 $-1 $211 reversed single #
loop $-1 $-1 $212 $76 #
plane-surface $-1 -117.16832416756219 16.774551187220762 62.393463106123505 0 -1 0 0.7660444514056185 0 -0.64278759981090561 forward_v I I I I #
coedge $-1 $213 $214 $215 $216 reversed $77 $-1 #
coedge $-1 $128 $79 $217 $218 reversed $50 $-1 #
coedge $-1 $79 $127 $213 $219 reversed $50 $-1 #
coedge $-1 $215 $220 $79 $130 forward $221 $-1 #
edge $-1 $222 12.310777275895113 $223 17.548382938127233 $129 $224 forward 7 unknown #
loop $-1 $-1 $136 $80 #
plane-surface $-1 -46.273384807885989 12.009036710812531 2.9055471945485962 -0.7660444514056185 0 0.64278759981090561 0.64278759981090561 0 0.7660444514056185 forward_v I I I I #
loop $-1 $-1 $225 $52 #
coedge $-1 $134 $134 $135 $226 reversed $81 $-1 #
coedge $-1 $135 $135 $134 $226 forward $83 $-1 #
coedge $-1 $136 $136 $84 $137 forward $131 $-1 #
edge $-1 $227 0 $227 6.2831853071796004 $136 $228 forward 7 unknown #
face $-1 $229 $230 $29 $-1 $231 forward single #
loop $-1 $-1 $232 $85 #
plane-surface $-1 30.323017130138602 -22.336726771259798 134.70857321621534 0 1 0 0.61566148304635926 0 0.78801074757464917 forward_v I I I I #
coedge $-1 $233 $234 $235 $236 reversed $86 $-1 #
coedge $-1 $143 $88 $237 $238 reversed $56 $-1 #
coedge $-1 $88 $142 $233 $239 reversed $56 $-1 #
coedge $-1 $235 $240 $88 $145 forward $230 $-1 #
edge $-1 $241 -31.111876242816681 $242 -25.551502655321688 $144 $243 forward 7 unknown #
loop $-1 $-1 $151 $89 #
plane-surface $-1 -26.654464302657296 -18.500222375361943 61.780724105672064 0.61566148304635926 0 0.78801074757464917 0.78801074757464917 0 -0.61566148304635926 forward_v I I I I #
loop $-1 $-1 $244 $58 #
coedge $-1 $149 $149 $150 $245 reversed $90 $-1 #
coedge $-1 $150 $150 $149 $245 forward $92 $-1 #
coedge $-1 $151 $151 $93 $152 forward $146 $-1 #
edge $-1 $246 0 $246 6.2831853071796004 $151 $247 forward 7 unknown #
loop $-1 $-1 $158 $94 #
plane-surface $-1 -26.654464302657296 -18.500222375361943 61.780724105672064 0.61566148304635926 0 0.78801074757464917 0.78801074757464917 0 -0.61566148304635926 forward_v I I I I #
loop $-1 $-1 $248 $61 #
coedge $-1 $156 $156 $157 $249 reversed $95 $-1 #
coedge $-1 $157 $157 $156 $249 forward $97 $-1 #
coedge $-1 $158 $158 $98 $159 forward $153 $-1 #
edge $-1 $250 0 $250 6.2831853071796004 $158 $251 forward 7 unknown #
face $-1 $252 $253 $24 $-1 $254 reversed single #
loop $-1 $-1 $255 $99 #
plane-surface $-1 -46.273384807885982 0 0 1 0 0 0 0 -1 forward_v I I I I #
coedge $-1 $256 $171 $257 $258 forward $100 $-1 #
coedge $-1 $259 $102 $256 $260 forward $65 $-1 #
coedge $-1 $102 $259 $261 $262 forward $65 $-1 #
coedge $-1 $174 $173 $102 $167 reversed $175 $-1 #
edge $-1 $263 -30.194276800314064 $264 30.194276800314064 $166 $265 forward 7 unknown #
coedge $-1 $104 $103 $266 $267 forward $41 $-1 #
coedge $-1 $268 $269 $103 $170 reversed $253 $-1 #
edge $-1 $177 -46.273384807885982 $270 46.273384807885982 $169 $271 forward 7 unknown #
coedge $-1 $163 $272 $104 $172 reversed $100 $-1 #
edge $-1 $273 -46.273384807885982 $176 46.273384807885982 $171 $274 forward 7 unknown #
coedge $-1 $166 $105 $272 $275 forward $175 $-1 #
coedge $-1 $105 $166 $268 $276 reversed $175 $-1 #
loop $-1 $-1 $173 $252 #
vertex $-1 $106 $277 #
vertex $-1 $106 $278 #
straight-curve $-1 46.273384807885982 0 9.1474827225268633 0 1 0 I I #
face $-1 $279 $280 $25 $-1 $281 reversed single #
loop $-1 $-1 $191 $107 #
plane-surface $-1 0 -34.123051814841197 -3.9633973726083664 0 0 1 1 0 0 forward_v I I I I #
coedge $-1 $282 $283 $111 $187 forward $108 $-1 #
coedge $-1 $284 $110 $283 $285 forward $69 $-1 #
coedge $-1 $110 $284 $286 $287 forward $69 $-1 #
coedge $-1 $112 $111 $110 $186 reversed $44 $-1 #
edge $-1 $288 -46.273384807885982 $289 46.273384807885982 $110 $290 forward 7 unknown #
edge $-1 $289 -9.1474827225268633 $193 -3.9633973726083664 $182 $291 forward 7 unknown #
coedge $-1 $286 $292 $112 $189 forward $293 $-1 #
edge $-1 $192 3.9633973726083664 $288 9.1474827225268633 $188 $294 forward 7 unknown #
coedge $-1 $295 $113 $292 $296 forward $180 $-1 #
coedge $-1 $113 $295 $282 $297 forward $180 $-1 #
vertex $-1 $189 $298 #
vertex $-1 $297 $299 #
straight-curve $-1 0 -30.194276800314064 -3.9633973726083664 1 0 0 I I #
face $-1 $300 $301 $26 $-1 $302 reversed single #
loop $-1 $-1 $303 $115 #
plane-surface $-1 0 38.051826829368331 -6.5554400475676147 0 -1 0 0 0 -1 forward_v I I I I #
coedge $-1 $304 $121 $305 $306 forward $116 $-1 #
coedge $-1 $307 $118 $205 $308 reversed $73 $-1 #
coedge $-1 $118 $307 $309 $310 reversed $73 $-1 #
edge $-1 $311 -9.1474827225268633 $207 -3.9633973726083664 $118 $312 forward 7 unknown #
coedge $-1 $120 $119 $313 $314 reversed $47 $-1 #
coedge $-1 $315 $305 $120 $204 forward $316 $-1 #
edge $-1 $206 3.9633973726083664 $317 9.1474827225268633 $203 $318 forward 7 unknown #
coedge $-1 $121 $304 $199 $308 forward $116 $-1 #
vertex $-1 $204 $319 #
vertex $-1 $308 $320 #
straight-curve $-1 0 30.194276800314064 -3.9633973726083664 -1 0 0 I I #
face $-1 $-1 $221 $27 $-1 $321 forward single #
loop $-1 $-1 $322 $123 #
plane-surface $-1 -46.273384807885982 0 0 1 0 0 0 0 -1 forward_v I I I I #
coedge $-1 $323 $324 $325 $326 reversed $124 $-1 #
coedge $-1 $327 $126 $128 $219 forward $77 $-1 #
coedge $-1 $126 $327 $323 $328 forward $77 $-1 #
coedge $-1 $325 $129 $126 $216 forward $221 $-1 #
edge $-1 $223 1.2390038789980338 $329 10.770032831814497 $215 $330 forward 7 unknown #
coedge $-1 $331 $332 $127 $218 forward $210 $-1 #
edge $-1 $333 -28.291184358513149 $222 -22.049248830534889 $217 $334 forward 7 unknown #
edge $-1 $223 -8.1482680496215512 $333 -1.1030930024383267e-014 $128 $335 forward 7 unknown #
coedge $-1 $129 $325 $331 $336 forward $221 $-1 #
loop $-1 $-1 $325 $209 #
vertex $-1 $218 $337 #
vertex $-1 $130 $338 #
straight-curve $-1 -58.584162083781095 7.2435222344042991 9.1474827225268633 1 0 0 I I #
coedge $-1 $225 $225 $-1 $339 reversed $133 $-1 #
edge $-1 $340 0 $340 6.2831853071796004 $134 $341 forward 7 unknown #
vertex $-1 $137 $342 #
ellipse-curve $-1 -43.654581976769926 12.009036710812531 6.0265149585377333 -0.7660444514056185 0 0.64278759981090561 1.2855751996218112 0 1.532088902811237 1 I I #
face $-1 $-1 $343 $29 $-1 $344 reversed single #
loop $-1 $-1 $144 $138 #
plane-surface $-1 0 0 9.1474827225268633 0 0 1 1 0 0 forward_v I I I I #
coedge $-1 $345 $346 $347 $348 reversed $139 $-1 #
coedge $-1 $349 $141 $143 $239 forward $86 $-1 #
coedge $-1 $141 $349 $345 $350 forward $86 $-1 #
coedge $-1 $347 $144 $141 $236 forward $230 $-1 #
edge $-1 $242 5.413606791783117 $351 13.086615583578826 $235 $352 forward 7 unknown #
coedge $-1 $353 $354 $142 $238 forward $343 $-1 #
edge $-1 $355 -62.551043935231505 $241 -58.206803885580811 $237 $356 forward 7 unknown #
edge $-1 $242 85.490554196618348 $355 92.54676961577195 $143 $357 forward 7 unknown #
coedge $-1 $144 $347 $353 $358 forward $230 $-1 #
vertex $-1 $238 $359 #
vertex $-1 $145 $360 #
straight-curve $-1 15.161508565069301 -14.663717979464089 9.1474827225268598 -1 0 0 I I #
coedge $-1 $244 $244 $-1 $361 reversed $148 $-1 #
edge $-1 $362 0 $362 6.2831853071796004 $149 $363 forward 7 unknown #
vertex $-1 $152 $364 #
ellipse-curve $-1 43.493198014138486 -20.14443854503245 6.9753626977015175 0.61566148304635926 0 0.78801074757464917 0.78801074757464917 0 -0.61566148304635926 1 I I #
coedge $-1 $248 $248 $-1 $365 reversed $155 $-1 #
edge $-1 $366 0 $366 6.2831853071796004 $156 $367 forward 7 unknown #
vertex $-1 $159 $368 #
ellipse-curve $-1 43.493198014138486 -16.856006205691433 6.9753626977015175 0.61566148304635926 0 0.78801074757464917 0.78801074757464917 0 -0.61566148304635926 1 I I #
face $-1 $-1 $175 $24 $-1 $369 reversed single #
loop $-1 $-1 $268 $160 #
plane-surface $-1 0 30.194276800314064 0 0 -1 0 0 0 -1 forward_v I I I I #
coedge $-1 $370 $266 $269 $371 forward $161 $-1 #
coedge $-1 $272 $163 $164 $260 reversed $100 $-1 #
coedge $-1 $266 $370 $163 $258 reversed $161 $-1 #
edge $-1 $273 -9.1474827225268633 $372 9.1474827225268633 $257 $373 forward 7 unknown #
coedge $-1 $165 $164 $370 $374 forward $65 $-1 #
edge $-1 $264 -46.273384807885982 $372 46.273384807885982 $256 $375 forward 7 unknown #
coedge $-1 $269 $268 $165 $262 reversed $253 $-1 #
edge $-1 $376 -46.273384807885982 $263 46.273384807885982 $261 $377 forward 7 unknown #
vertex $-1 $167 $378 #
vertex $-1 $275 $379 #
straight-curve $-1 46.273384807885982 0 -9.1474827225268633 0 -1 0 I I #
coedge $-1 $255 $257 $168 $267 reversed $161 $-1 #
edge $-1 $270 -30.194276800314064 $273 30.194276800314064 $266 $380 forward 7 unknown #
coedge $-1 $261 $169 $174 $276 forward $253 $-1 #
coedge $-1 $169 $261 $255 $371 reversed $253 $-1 #
vertex $-1 $170 $381 #
straight-curve $-1 0 30.194276800314064 9.1474827225268633 -1 0 0 I I #
coedge $-1 $171 $256 $173 $275 reversed $100 $-1 #
vertex $-1 $267 $382 #
straight-curve $-1 0 -30.194276800314064 9.1474827225268633 1 0 0 I I #
edge $-1 $176 -9.1474827225268633 $264 9.1474827225268633 $173 $383 forward 7 unknown #
edge $-1 $177 -9.1474827225268633 $263 9.1474827225268633 $174 $384 forward 7 unknown #
point $-1 46.273384807885982 -30.194276800314064 9.1474827225268633 #
point $-1 46.273384807885982 30.194276800314064 9.1474827225268633 #
face $-1 $-1 $293 $25 $-1 $385 reversed single #
loop $-1 $-1 $386 $179 #
plane-surface $-1 0 -38.051826829368331 -6.5554400475676147 0 1 0 0 0 1 forward_v I I I I #
coedge $-1 $387 $182 $191 $297 reversed $108 $-1 #
coedge $-1 $182 $387 $183 $285 reversed $108 $-1 #
coedge $-1 $184 $183 $388 $389 forward $69 $-1 #
edge $-1 $289 30.194276800314064 $390 38.051826829368331 $283 $391 forward 7 unknown #
coedge $-1 $392 $188 $184 $287 reversed $293 $-1 #
edge $-1 $393 -38.051826829368331 $288 -30.194276800314064 $286 $394 forward 7 unknown #
vertex $-1 $189 $395 #
vertex $-1 $285 $396 #
straight-curve $-1 0 -30.194276800314064 -9.1474827225268633 1 0 0 I I #
straight-curve $-1 46.273384807885982 -30.194276800314064 0 0 0 1 I I #
coedge $-1 $188 $392 $190 $296 reversed $293 $-1 #
loop $-1 $-1 $188 $279 #
straight-curve $-1 -46.273384807885982 -30.194276800314064 0 0 0 -1 I I #
coedge $-1 $191 $190 $397 $398 forward $180 $-1 #
edge $-1 $192 -3.9287750145271332 $399 3.9287750145271332 $292 $400 forward 7 unknown #
edge $-1 $401 -3.9287750145271332 $193 3.9287750145271332 $282 $402 forward 7 unknown #
point $-1 -46.273384807885982 -30.194276800314064 -3.9633973726083664 #
point $-1 46.273384807885982 -30.194276800314064 -3.9633973726083664 #
face $-1 $-1 $316 $26 $-1 $403 reversed single #
loop $-1 $-1 $313 $195 #
plane-surface $-1 0 0 -9.1474827225268633 0 0 1 1 0 0 forward_v I I I I #
coedge $-1 $404 $405 $406 $407 forward $196 $-1 #
coedge $-1 $205 $198 $405 $408 forward $116 $-1 #
coedge $-1 $203 $406 $198 $306 reversed $316 $-1 #
edge $-1 $206 -3.9287750145271332 $409 3.9287750145271332 $305 $410 forward 7 unknown #
coedge $-1 $200 $199 $411 $412 forward $73 $-1 #
edge $-1 $413 -3.9287750145271332 $207 3.9287750145271332 $199 $414 forward 7 unknown #
coedge $-1 $415 $313 $200 $310 forward $301 $-1 #
edge $-1 $311 -3.9287750145271332 $416 3.9287750145271332 $200 $417 forward 7 unknown #
vertex $-1 $310 $418 #
straight-curve $-1 -46.273384807885982 30.194276800314064 0 0 0 1 I I #
coedge $-1 $309 $419 $202 $314 forward $301 $-1 #
edge $-1 $317 -46.273384807885982 $311 46.273384807885982 $313 $420 forward 7 unknown #
coedge $-1 $406 $203 $419 $421 reversed $316 $-1 #
loop $-1 $-1 $203 $300 #
vertex $-1 $204 $422 #
straight-curve $-1 46.273384807885982 30.194276800314064 0 0 0 -1 I I #
point $-1 46.273384807885982 30.194276800314064 -3.9633973726083664 #
point $-1 -46.273384807885982 30.194276800314064 -3.9633973726083664 #
plane-surface $-1 0 0 9.1474827225268633 0 0 1 1 0 0 forward_v I I I I #
coedge $-1 $332 $331 $324 $423 forward $210 $-1 #
coedge $-1 $324 $212 $214 $328 reversed $124 $-1 #
coedge $-1 $212 $323 $322 $423 reversed $124 $-1 #
coedge $-1 $220 $215 $212 $326 forward $221 $-1 #
edge $-1 $329 -17.548382938127233 $424 -12.310777275895113 $325 $425 forward 7 unknown #
coedge $-1 $214 $213 $332 $426 reversed $77 $-1 #
edge $-1 $427 1.1030930024383267e-014 $329 8.1482680496215512 $323 $428 forward 7 unknown #
vertex $-1 $216 $429 #
straight-curve $-1 -41.035779145653862 6.0045183554062653 9.1474827225268633 0 1 0 I I #
coedge $-1 $322 $217 $220 $336 reversed $210 $-1 #
coedge $-1 $217 $322 $327 $426 forward $210 $-1 #
vertex $-1 $218 $430 #
straight-curve $-1 -46.273384807885982 7.2435222344042991 31.196731553061753 0 0 1 I I #
straight-curve $-1 -46.273384807885989 7.2435222344042991 2.9055471945485962 -0.64278759981090561 0 -0.7660444514056185 I I #
edge $-1 $424 -16.774551187220762 $222 -7.2435222344042991 $331 $431 forward 7 unknown #
point $-1 -46.273384807885982 7.2435222344042991 9.1474827225268633 #
point $-1 -41.035779145653862 7.2435222344042991 9.1474827225268633 #
edge $-1 $432 1 $432 0 $225 $-1 forward 7 unknown #
vertex $-1 $226 $433 #
ellipse-curve $-1 -37.905239172501133 12.009036710812531 1.2022436582692504 -0.7660444514056185 0 0.64278759981090561 1.2855751996218112 0 1.532088902811237 1 I I #
point $-1 -42.369006777148108 12.009036710812531 7.5586038613489634 #
loop $-1 $-1 $237 $229 #
plane-surface $-1 46.273384807885982 0 0 -1 0 0 0 0 1 forward_v I I I I #
coedge $-1 $346 $232 $234 $350 reversed $139 $-1 #
coedge $-1 $232 $345 $434 $435 reversed $139 $-1 #
coedge $-1 $240 $235 $232 $348 forward $230 $-1 #
edge $-1 $351 25.551502655321688 $436 31.111876242816681 $347 $437 forward 7 unknown #
coedge $-1 $234 $233 $354 $438 reversed $86 $-1 #
edge $-1 $439 -92.54676961577195 $351 -85.490554196618348 $345 $440 forward 7 unknown #
vertex $-1 $236 $441 #
straight-curve $-1 40.713011220390996 -9.2501111876809716 9.1474827225268527 0 -1 0 I I #
coedge $-1 $434 $237 $240 $358 reversed $343 $-1 #
coedge $-1 $237 $434 $349 $438 forward $343 $-1 #
vertex $-1 $238 $442 #
straight-curve $-1 46.273384807885982 -14.663717979464089 67.354286608107671 0 0 1 I I #
straight-curve $-1 -26.654464302657296 -14.663717979464089 61.780724105672064 0.78801074757464917 0 -0.61566148304635926 I I #
edge $-1 $436 -22.336726771259798 $241 -14.663717979464089 $353 $443 forward 7 unknown #
point $-1 46.273384807885982 -14.663717979464089 9.1474827225268633 #
point $-1 40.713011220390989 -14.663717979464089 9.1474827225268598 #
edge $-1 $444 1 $444 0 $244 $-1 forward 7 unknown #
vertex $-1 $245 $445 #
ellipse-curve $-1 41.577990448908771 -20.14443854503245 4.5240088501787152 0.61566148304635926 0 0.78801074757464917 0.78801074757464917 0 -0.61566148304635926 1 I I #
point $-1 44.281208761713124 -20.14443854503245 6.3597012146551428 #
edge $-1 $446 1 $446 0 $248 $-1 forward 7 unknown #
vertex $-1 $249 $447 #
ellipse-curve $-1 41.577990448908771 -16.856006205691433 4.5240088501787152 0.61566148304635926 0 0.78801074757464917 0.78801074757464917 0 -0.61566148304635926 1 I I #
point $-1 44.281208761713124 -16.856006205691433 6.3597012146551428 #
plane-surface $-1 46.273384807885982 0 0 -1 0 0 0 0 1 forward_v I I I I #
coedge $-1 $257 $255 $259 $374 reversed $161 $-1 #
edge $-1 $270 -9.1474827225268633 $376 9.1474827225268633 $269 $448 forward 7 unknown #
vertex $-1 $374 $449 #
straight-curve $-1 -46.273384807885982 -30.194276800314064 0 0 0 -1 I I #
edge $-1 $372 -30.194276800314064 $376 30.194276800314064 $370 $450 forward 7 unknown #
straight-curve $-1 0 -30.194276800314064 -9.1474827225268633 -1 0 0 I I #
vertex $-1 $262 $451 #
straight-curve $-1 0 30.194276800314064 -9.1474827225268633 1 0 0 I I #
point $-1 46.273384807885982 30.194276800314064 -9.1474827225268633 #
point $-1 46.273384807885982 -30.194276800314064 -9.1474827225268633 #
straight-curve $-1 -46.273384807885982 0 9.1474827225268633 0 -1 0 I I #
point $-1 -46.273384807885982 30.194276800314064 9.1474827225268633 #
point $-1 -46.273384807885982 -30.194276800314064 9.1474827225268633 #
straight-curve $-1 46.273384807885982 -30.194276800314064 0 0 0 -1 I I #
straight-curve $-1 46.273384807885982 30.194276800314064 0 0 0 -1 I I #
plane-surface $-1 -46.273384807885982 0 0 1 0 0 0 0 -1 forward_v I I I I #
coedge $-1 $388 $397 $392 $452 forward $280 $-1 #
coedge $-1 $283 $282 $453 $454 forward $108 $-1 #
coedge $-1 $453 $386 $284 $389 reversed $280 $-1 #
edge $-1 $390 -46.273384807885982 $393 46.273384807885982 $388 $455 forward 7 unknown #
vertex $-1 $454 $456 #
straight-curve $-1 46.273384807885982 0 -9.1474827225268633 0 -1 0 I I #
coedge $-1 $292 $286 $386 $452 reversed $293 $-1 #
vertex $-1 $287 $457 #
straight-curve $-1 -46.273384807885982 0 -9.1474827225268633 0 1 0 I I #
point $-1 -46.273384807885982 -30.194276800314064 -9.1474827225268633 #
point $-1 46.273384807885982 -30.194276800314064 -9.1474827225268633 #
coedge $-1 $386 $453 $295 $398 reversed $280 $-1 #
edge $-1 $399 -46.273384807885982 $401 46.273384807885982 $397 $458 forward 7 unknown #
vertex $-1 $296 $459 #
straight-curve $-1 -46.273384807885982 -34.123051814841197 -3.9633973726083664 0 -1 0 I I #
vertex $-1 $297 $460 #
straight-curve $-1 46.273384807885982 -34.123051814841197 -3.9633973726083664 0 1 0 I I #
plane-surface $-1 46.273384807885982 0 0 -1 0 0 0 0 1 forward_v I I I I #
coedge $-1 $411 $303 $415 $461 reversed $196 $-1 #
coedge $-1 $303 $411 $304 $408 reversed $196 $-1 #
coedge $-1 $305 $315 $303 $407 reversed $316 $-1 #
edge $-1 $409 -2.5920426749592482 $462 2.5920426749592487 $406 $463 forward 7 unknown #
edge $-1 $409 -46.273384807885982 $413 46.273384807885982 $405 $464 forward 7 unknown #
vertex $-1 $306 $465 #
straight-curve $-1 46.273384807885982 34.123051814841197 -3.9633973726083664 0 1 0 I I #
coedge $-1 $405 $404 $307 $412 reversed $196 $-1 #
edge $-1 $413 -2.5920426749592482 $416 2.5920426749592487 $411 $466 forward 7 unknown #
vertex $-1 $408 $467 #
straight-curve $-1 -46.273384807885982 34.123051814841197 -3.9633973726083664 0 -1 0 I I #
coedge $-1 $419 $309 $404 $461 forward $301 $-1 #
vertex $-1 $461 $468 #
straight-curve $-1 -46.273384807885982 34.123051814841197 -9.1474827225268633 0 1 0 I I #
point $-1 -46.273384807885982 30.194276800314064 -9.1474827225268633 #
coedge $-1 $313 $415 $315 $421 forward $301 $-1 #
straight-curve $-1 0 30.194276800314064 -9.1474827225268633 -1 0 0 I I #
edge $-1 $462 -38.051826829368331 $317 -30.194276800314064 $315 $469 forward 7 unknown #
point $-1 46.273384807885982 30.194276800314064 -9.1474827225268633 #
edge $-1 $424 22.049248830534889 $427 28.291184358513149 $322 $470 forward 7 unknown #
vertex $-1 $336 $471 #
straight-curve $-1 -58.584162083781095 16.774551187220762 9.1474827225268633 -1 0 0 I I #
edge $-1 $427 -10.770032831814497 $333 -1.2390038789980338 $332 $472 forward 7 unknown #
vertex $-1 $426 $473 #
straight-curve $-1 -46.273384807885989 16.774551187220762 2.9055471945485962 0.64278759981090561 0 0.7660444514056185 I I #
point $-1 -41.035779145653862 16.774551187220762 9.1474827225268633 #
point $-1 -46.273384807885982 7.2435222344042991 2.9055471945486047 #
straight-curve $-1 -46.273384807885982 0 9.1474827225268633 0 -1 0 I I #
vertex $-1 $339 $474 #
point $-1 -36.619663972879323 12.009036710812531 2.7343325610804872 #
coedge $-1 $354 $353 $346 $435 forward $343 $-1 #
edge $-1 $436 58.206803885580811 $439 62.551043935231505 $434 $475 forward 7 unknown #
vertex $-1 $358 $476 #
straight-curve $-1 15.161508565069301 -22.336726771259798 9.1474827225268598 1 0 0 I I #
edge $-1 $439 -13.086615583578826 $355 -5.413606791783117 $354 $477 forward 7 unknown #
vertex $-1 $438 $478 #
straight-curve $-1 -26.654464302657296 -22.336726771259798 61.780724105672064 -0.78801074757464917 0 0.61566148304635926 I I #
point $-1 40.713011220390989 -22.336726771259798 9.1474827225268598 #
point $-1 46.273384807885982 -14.663717979464089 4.8032426728761664 #
straight-curve $-1 46.273384807885982 0 9.1474827225268633 0 1 0 I I #
vertex $-1 $361 $479 #
point $-1 42.366001196483424 -20.14443854503245 3.9083473671323561 #
vertex $-1 $365 $480 #
point $-1 42.366001196483424 -16.856006205691433 3.9083473671323561 #
straight-curve $-1 -46.273384807885982 30.194276800314064 0 0 0 -1 I I #
point $-1 -46.273384807885982 -30.194276800314064 -9.1474827225268633 #
straight-curve $-1 -46.273384807885982 0 -9.1474827225268633 0 1 0 I I #
point $-1 -46.273384807885982 30.194276800314064 -9.1474827225268633 #
edge $-1 $399 -2.5920426749592482 $393 2.5920426749592487 $392 $481 forward 7 unknown #
coedge $-1 $397 $388 $387 $454 reversed $280 $-1 #
edge $-1 $401 -2.5920426749592482 $390 2.5920426749592487 $387 $482 forward 7 unknown #
straight-curve $-1 0 -38.051826829368331 -9.1474827225268633 -1 0 0 I I #
point $-1 46.273384807885982 -38.051826829368331 -9.1474827225268633 #
point $-1 -46.273384807885982 -38.051826829368331 -9.1474827225268633 #
straight-curve $-1 0 -38.051826829368331 -3.9633973726083664 1 0 0 I I #
point $-1 -46.273384807885982 -38.051826829368331 -3.9633973726083664 #
point $-1 46.273384807885982 -38.051826829368331 -3.9633973726083664 #
edge $-1 $416 -46.273384807885982 $462 46.273384807885982 $404 $483 forward 7 unknown #
vertex $-1 $421 $484 #
straight-curve $-1 46.273384807885982 38.051826829368331 -6.5554400475676147 0 0 -1 I I #
straight-curve $-1 0 38.051826829368331 -3.9633973726083664 -1 0 0 I I #
point $-1 46.273384807885982 38.051826829368331 -3.9633973726083664 #
straight-curve $-1 -46.273384807885982 38.051826829368331 -6.5554400475676147 0 0 -1 I I #
point $-1 -46.273384807885982 38.051826829368331 -3.9633973726083664 #
point $-1 -46.273384807885982 38.051826829368331 -9.1474827225268633 #
straight-curve $-1 46.273384807885982 0 -9.1474827225268633 0 -1 0 I I #
straight-curve $-1 -46.273384807885982 16.774551187220762 31.196731553061753 0 0 -1 I I #
point $-1 -46.273384807885982 16.774551187220762 9.1474827225268633 #
straight-curve $-1 -46.273384807885982 6.0045183554062653 2.9055471945486104 0 -1 0 I I #
point $-1 -46.273384807885982 16.774551187220762 2.9055471945486047 #
point $-1 -36.373150269689894 12.009036710812531 -0.083331541352560823 #
straight-curve $-1 46.273384807885982 -22.336726771259798 67.354286608107671 0 0 -1 I I #
point $-1 46.273384807885982 -22.336726771259798 9.1474827225268633 #
straight-curve $-1 46.273384807885989 -9.2501111876809716 4.8032426728761592 0 1 0 I I #
point $-1 46.273384807885982 -22.336726771259798 4.8032426728761664 #
point $-1 40.962328965862419 -20.14443854503245 3.7359981026040661 #
point $-1 40.962328965862419 -16.856006205691433 3.7359981026040661 #
straight-curve $-1 -46.273384807885982 -38.051826829368331 -6.5554400475676147 0 0 -1 I I #
straight-curve $-1 46.273384807885982 -38.051826829368331 -6.5554400475676147 0 0 -1 I I #
straight-curve $-1 0 38.051826829368331 -9.1474827225268633 1 0 0 I I #
point $-1 46.273384807885982 38.051826829368331 -9.1474827225268633 #
End-of-ACIS-data 