500 0 6 0           
7 Unknown 11 ACIS 5.0 NT 24 Thu Mar 25 23:40:14 1999 
-1 9.9999999999999995e-007 1e-010 
body $-1 $6 $-1 $7 #
body $-1 $8 $-1 $9 #
body $-1 $10 $-1 $11 #
body $-1 $12 $-1 $13 #
body $-1 $14 $-1 $15 #
body $-1 $16 $-1 $17 #
lump $-1 $-1 $18 $0 #
transform $-1 1 0 0 0 1 0 0 0 1 53.468428601947082 31.46440872924968 7.2968198337563832 1 rotate no_reflect no_shear #
lump $-1 $-1 $19 $1 #
transform $-1 1 0 0 0 1 0 0 0 1 53.468428601947082 31.46440872924968 7.2968198337563832 1 rotate no_reflect no_shear #
lump $-1 $-1 $20 $2 #
transform $-1 1 0 0 0 1 0 0 0 1 53.468428601947082 31.46440872924968 7.2968198337563832 1 rotate no_reflect no_shear #
lump $-1 $-1 $21 $3 #
transform $-1 1 0 0 0 1 0 0 0 1 53.468428601947082 31.46440872924968 7.2968198337563832 1 rotate no_reflect no_shear #
lump $-1 $-1 $22 $4 #
transform $-1 1 0 0 0 1 0 0 0 1 53.468428601947082 31.46440872924968 7.2968198337563832 1 rotate no_reflect no_shear #
lump $-1 $-1 $23 $5 #
transform $-1 1 0 0 0 1 0 0 0 1 53.468428601947082 31.46440872924968 7.2968198337563832 1 rotate no_reflect no_shear #
shell $-1 $-1 $-1 $24 $-1 $6 #
shell $-1 $-1 $-1 $25 $-1 $8 #
shell $-1 $-1 $-1 $26 $-1 $10 #
shell $-1 $-1 $-1 $27 $-1 $12 #
shell $-1 $-1 $-1 $28 $-1 $14 #
shell $-1 $-1 $-1 $29 $-1 $16 #
face $-1 $30 $31 $18 $-1 $32 forward single #
face $-1 $33 $34 $19 $-1 $35 reversed single #
face $-1 $36 $37 $20 $-1 $38 reversed single #
face $-1 $39 $40 $21 $-1 $41 forward single #
face $-1 $42 $43 $22 $-1 $44 forward single #
face $-1 $45 $46 $23 $-1 $47 forward single #
face $-1 $48 $49 $18 $-1 $50 reversed single #
loop $-1 $-1 $51 $24 #
plane-surface $-1 0 0 7.2968198337563832 0 0 1 1 0 0 forward_v I I I I #
face $-1 $52 $53 $19 $-1 $54 reversed single #
loop $-1 $-1 $55 $25 #
plane-surface $-1 0 -26.984710945468276 4.2968198337563832 0 0 1 1 0 0 forward_v I I I I #
face $-1 $56 $57 $20 $-1 $58 reversed single #
loop $-1 $-1 $59 $26 #
plane-surface $-1 39.802787895970752 -8.1379786389594244 51.886175092336515 0 0.77714596973225614 0.62932038083071107 1 0 0 forward_v I I I I #
face $-1 $60 $61 $21 $-1 $62 forward single #
loop $-1 $63 $64 $27 #
cone-surface $-1 31.603403472384969 29.15825471388451 4.6865243404444969 0 -0.77714596973225614 -0.62932038083071107 0.5 0 0 1 I I 0 1 0.5 forward I I I I #
face $-1 $65 $66 $22 $-1 $67 forward single #
loop $-1 $68 $69 $28 #
cone-surface $-1 39.802787895970766 29.15825471388451 4.6865243404444969 0 -0.77714596973225614 -0.62932038083071107 0.5 0 0 1 I I 0 1 0.5 forward I I I I #
face $-1 $70 $71 $23 $-1 $72 forward single #
loop $-1 $73 $74 $29 #
cone-surface $-1 48.002172319556564 29.15825471388451 4.6865243404444969 0 -0.77714596973225614 -0.62932038083071107 0.5 0 0 1 I I 0 1 0.5 forward I I I I #
face $-1 $75 $76 $18 $-1 $77 reversed single #
loop $-1 $-1 $78 $30 #
plane-surface $-1 0 0 -7.2968198337563832 0 0 1 1 0 0 forward_v I I I I #
coedge $-1 $79 $80 $81 $82 forward $31 $-1 #
face $-1 $83 $84 $19 $-1 $85 reversed single #
loop $-1 $-1 $86 $33 #
plane-surface $-1 0 -22.505013161686872 5.7968198337563832 0 -1 0 0 0 -1 forward_v I I I I #
coedge $-1 $87 $88 $89 $90 reversed $34 $-1 #
face $-1 $91 $92 $20 $-1 $93 forward single #
loop $-1 $-1 $94 $36 #
plane-surface $-1 26.13714718999443 74.967568952880711 119.18371879273056 1 0 0 0 -0.77714596973225614 -0.62932038083071107 forward_v I I I I #
coedge $-1 $95 $96 $97 $98 reversed $37 $-1 #
face $-1 $-1 $99 $21 $-1 $100 forward single #
loop $-1 $101 $102 $39 #
cone-surface $-1 31.603403472384969 28.405134406170102 4.0766595565796822 0 -0.77714596973225614 -0.62932038083071107 0.25 0 0 1 I I -0.70710678118654746 0.70710678118654746 0.25 forward I I I I #
loop $-1 $-1 $103 $27 #
coedge $-1 $64 $64 $104 $105 reversed $40 $-1 #
face $-1 $-1 $106 $22 $-1 $107 forward single #
loop $-1 $108 $109 $42 #
cone-surface $-1 39.802787895970766 28.405134406170102 4.0766595565796822 0 -0.77714596973225614 -0.62932038083071107 0.25 0 0 1 I I -0.70710678118654746 0.70710678118654746 0.25 forward I I I I #
loop $-1 $-1 $110 $28 #
coedge $-1 $69 $69 $111 $112 reversed $43 $-1 #
face $-1 $-1 $113 $23 $-1 $114 forward single #
loop $-1 $115 $116 $45 #
cone-surface $-1 48.002172319556564 28.405134406170102 4.0766595565796822 0 -0.77714596973225614 -0.62932038083071107 0.25 0 0 1 I I -0.70710678118654746 0.70710678118654746 0.25 forward I I I I #
loop $-1 $-1 $117 $29 #
coedge $-1 $74 $74 $118 $119 reversed $46 $-1 #
face $-1 $120 $121 $18 $-1 $122 reversed single #
loop $-1 $-1 $123 $48 #
plane-surface $-1 0 -31.46440872924968 0 0 1 0 0 0 1 forward_v I I I I #
coedge $-1 $124 $125 $126 $127 forward $49 $-1 #
coedge $-1 $128 $51 $129 $130 forward $31 $-1 #
coedge $-1 $51 $128 $131 $132 forward $31 $-1 #
coedge $-1 $133 $134 $51 $82 reversed $135 $-1 #
edge $-1 $136 -31.46440872924968 $137 31.46440872924968 $81 $138 forward 7 unknown #
face $-1 $139 $140 $19 $-1 $141 reversed single #
loop $-1 $-1 $142 $52 #
plane-surface $-1 -53.468428601947082 0 0 1 0 0 0 0 -1 forward_v I I I I #
coedge $-1 $143 $144 $145 $146 reversed $53 $-1 #
coedge $-1 $147 $55 $148 $149 reversed $34 $-1 #
coedge $-1 $55 $147 $143 $150 forward $34 $-1 #
coedge $-1 $145 $151 $55 $90 forward $152 $-1 #
edge $-1 $153 -17.972053256515544 $154 -9.0126576889527339 $89 $155 forward 7 unknown #
face $-1 $156 $157 $20 $-1 $158 reversed single #
loop $-1 $-1 $159 $56 #
plane-surface $-1 0 0 7.2968198337563832 0 0 1 1 0 0 forward_v I I I I #
coedge $-1 $160 $161 $162 $163 reversed $57 $-1 #
coedge $-1 $164 $59 $165 $166 reversed $37 $-1 #
coedge $-1 $59 $164 $160 $167 forward $37 $-1 #
coedge $-1 $162 $168 $59 $98 forward $169 $-1 #
edge $-1 $170 -33.567034653961706 $171 -6.2357532420090536 $97 $172 forward 7 unknown #
loop $-1 $-1 $104 $60 #
plane-surface $-1 39.802787895970752 -8.1379786389594244 51.886175092336515 0 0.77714596973225614 0.62932038083071107 1 0 0 forward_v I I I I #
loop $-1 $-1 $173 $39 #
coedge $-1 $102 $102 $103 $174 reversed $61 $-1 #
coedge $-1 $103 $103 $102 $174 forward $63 $-1 #
coedge $-1 $104 $104 $64 $105 forward $99 $-1 #
edge $-1 $175 1.7706033920573185e-015 $175 6.2831853071796022 $104 $176 forward 7 unknown #
loop $-1 $-1 $111 $65 #
plane-surface $-1 39.802787895970752 -8.1379786389594244 51.886175092336515 0 0.77714596973225614 0.62932038083071107 1 0 0 forward_v I I I I #
loop $-1 $-1 $177 $42 #
coedge $-1 $109 $109 $110 $178 reversed $66 $-1 #
coedge $-1 $110 $110 $109 $178 forward $68 $-1 #
coedge $-1 $111 $111 $69 $112 forward $106 $-1 #
edge $-1 $179 1.7706033920573185e-015 $179 6.2831853071796022 $111 $180 forward 7 unknown #
loop $-1 $-1 $118 $70 #
plane-surface $-1 39.802787895970752 -8.1379786389594244 51.886175092336515 0 0.77714596973225614 0.62932038083071107 1 0 0 forward_v I I I I #
loop $-1 $-1 $181 $45 #
coedge $-1 $116 $116 $117 $182 reversed $71 $-1 #
coedge $-1 $117 $117 $116 $182 forward $73 $-1 #
coedge $-1 $118 $118 $74 $119 forward $113 $-1 #
edge $-1 $183 1.7706033920573185e-015 $183 6.2831853071796022 $118 $184 forward 7 unknown #
face $-1 $185 $186 $18 $-1 $187 reversed single #
loop $-1 $-1 $188 $75 #
plane-surface $-1 -53.468428601947082 0 0 1 0 0 0 0 -1 forward_v I I I I #
coedge $-1 $189 $131 $190 $191 forward $76 $-1 #
coedge $-1 $192 $78 $189 $193 forward $49 $-1 #
coedge $-1 $78 $192 $194 $195 forward $49 $-1 #
coedge $-1 $134 $133 $78 $127 reversed $135 $-1 #
edge $-1 $196 -31.46440872924968 $197 31.46440872924968 $126 $198 forward 7 unknown #
coedge $-1 $80 $79 $199 $200 forward $31 $-1 #
coedge $-1 $201 $202 $79 $130 reversed $186 $-1 #
edge $-1 $137 -53.468428601947082 $203 53.468428601947082 $129 $204 forward 7 unknown #
coedge $-1 $123 $205 $80 $132 reversed $76 $-1 #
edge $-1 $206 -53.468428601947082 $136 53.468428601947082 $131 $207 forward 7 unknown #
coedge $-1 $126 $81 $205 $208 forward $135 $-1 #
coedge $-1 $81 $126 $201 $209 reversed $135 $-1 #
loop $-1 $-1 $133 $185 #
vertex $-1 $82 $210 #
vertex $-1 $82 $211 #
straight-curve $-1 53.468428601947082 0 7.2968198337563832 0 1 0 I I #
face $-1 $212 $213 $19 $-1 $214 forward single #
loop $-1 $-1 $148 $83 #
plane-surface $-1 0 -31.46440872924968 0 0 1 0 0 0 1 forward_v I I I I #
coedge $-1 $215 $216 $217 $218 forward $84 $-1 #
coedge $-1 $217 $86 $88 $150 reversed $53 $-1 #
coedge $-1 $86 $217 $219 $220 reversed $53 $-1 #
coedge $-1 $221 $89 $86 $146 forward $152 $-1 #
edge $-1 $154 1.3984099168781916 $222 4.398409916878192 $145 $223 forward 7 unknown #
coedge $-1 $88 $87 $215 $224 reversed $34 $-1 #
coedge $-1 $225 $226 $87 $149 forward $140 $-1 #
edge $-1 $227 -53.468428601947082 $153 53.468428601947082 $148 $228 forward 7 unknown #
edge $-1 $229 -53.468428601947082 $154 53.468428601947082 $143 $230 forward 7 unknown #
coedge $-1 $89 $221 $225 $231 forward $152 $-1 #
loop $-1 $-1 $145 $212 #
vertex $-1 $149 $232 #
vertex $-1 $90 $233 #
straight-curve $-1 53.468428601947082 -13.492355472734138 4.2968198337563832 0 1 0 I I #
face $-1 $-1 $169 $20 $-1 $234 reversed single #
loop $-1 $-1 $165 $91 #
plane-surface $-1 53.468428601947082 0 0 -1 0 0 0 0 1 forward_v I I I I #
coedge $-1 $235 $236 $161 $237 forward $92 $-1 #
coedge $-1 $161 $94 $96 $167 reversed $57 $-1 #
coedge $-1 $94 $160 $159 $237 reversed $57 $-1 #
coedge $-1 $238 $97 $94 $163 forward $169 $-1 #
edge $-1 $171 -56.61056117191837 $239 -52.295039562608899 $162 $240 forward 7 unknown #
coedge $-1 $96 $95 $235 $241 reversed $37 $-1 #
coedge $-1 $242 $243 $95 $166 forward $157 $-1 #
edge $-1 $244 34.65351496798533 $170 40.206553621452528 $165 $245 forward 7 unknown #
edge $-1 $246 57.375778805032141 $171 62.928817458499346 $160 $247 forward 7 unknown #
coedge $-1 $97 $238 $242 $248 forward $169 $-1 #
loop $-1 $-1 $162 $156 #
vertex $-1 $166 $249 #
vertex $-1 $98 $250 #
straight-curve $-1 19.901393947985376 31.464408729249683 2.9812982244469133 -1 0 0 I I #
coedge $-1 $173 $173 $-1 $251 reversed $101 $-1 #
edge $-1 $252 0 $252 6.2831853071796004 $102 $253 forward 7 unknown #
vertex $-1 $105 $254 #
ellipse-curve $-1 31.603403472384969 29.717088529165867 5.1390590291016442 0 0.77714596973225614 0.62932038083071107 0.5 0 0 1 I I #
coedge $-1 $177 $177 $-1 $255 reversed $108 $-1 #
edge $-1 $256 0 $256 6.2831853071796004 $109 $257 forward 7 unknown #
vertex $-1 $112 $258 #
ellipse-curve $-1 39.802787895970766 29.717088529165867 5.1390590291016442 0 0.77714596973225614 0.62932038083071107 0.5 0 0 1 I I #
coedge $-1 $181 $181 $-1 $259 reversed $115 $-1 #
edge $-1 $260 0 $260 6.2831853071796004 $116 $261 forward 7 unknown #
vertex $-1 $119 $262 #
ellipse-curve $-1 48.002172319556564 29.717088529165867 5.1390590291016442 0 0.77714596973225614 0.62932038083071107 0.5 0 0 1 I I #
face $-1 $-1 $135 $18 $-1 $263 reversed single #
loop $-1 $-1 $201 $120 #
plane-surface $-1 0 31.46440872924968 0 0 -1 0 0 0 -1 forward_v I I I I #
coedge $-1 $264 $199 $202 $265 forward $121 $-1 #
coedge $-1 $205 $123 $124 $193 reversed $76 $-1 #
coedge $-1 $199 $264 $123 $191 reversed $121 $-1 #
edge $-1 $206 -7.2968198337563832 $266 7.2968198337563832 $190 $267 forward 7 unknown #
coedge $-1 $125 $124 $264 $268 forward $49 $-1 #
edge $-1 $197 -53.468428601947082 $266 53.468428601947082 $189 $269 forward 7 unknown #
coedge $-1 $202 $201 $125 $195 reversed $186 $-1 #
edge $-1 $270 -53.468428601947082 $196 53.468428601947082 $194 $271 forward 7 unknown #
vertex $-1 $127 $272 #
vertex $-1 $208 $273 #
straight-curve $-1 53.468428601947082 0 -7.2968198337563832 0 -1 0 I I #
coedge $-1 $188 $190 $128 $200 reversed $121 $-1 #
edge $-1 $203 -31.46440872924968 $206 31.46440872924968 $199 $274 forward 7 unknown #
coedge $-1 $194 $129 $134 $209 forward $186 $-1 #
coedge $-1 $129 $194 $188 $265 reversed $186 $-1 #
vertex $-1 $130 $275 #
straight-curve $-1 0 31.46440872924968 7.2968198337563832 -1 0 0 I I #
coedge $-1 $131 $189 $133 $208 reversed $76 $-1 #
vertex $-1 $200 $276 #
straight-curve $-1 0 -31.46440872924968 7.2968198337563832 1 0 0 I I #
edge $-1 $136 -7.2968198337563832 $197 7.2968198337563832 $133 $277 forward 7 unknown #
edge $-1 $137 -7.2968198337563832 $196 7.2968198337563832 $134 $278 forward 7 unknown #
point $-1 53.468428601947082 -31.46440872924968 7.2968198337563832 #
point $-1 53.468428601947082 31.46440872924968 7.2968198337563832 #
face $-1 $-1 $152 $19 $-1 $279 reversed single #
loop $-1 $-1 $219 $139 #
plane-surface $-1 0 0 7.2968198337563832 0 0 1 1 0 0 forward_v I I I I #
coedge $-1 $280 $142 $147 $224 forward $84 $-1 #
coedge $-1 $142 $280 $281 $282 reversed $84 $-1 #
coedge $-1 $144 $143 $142 $218 reversed $53 $-1 #
edge $-1 $283 -4.398409916878192 $229 -1.3984099168781916 $142 $284 forward 7 unknown #
coedge $-1 $281 $285 $144 $220 forward $213 $-1 #
edge $-1 $222 -53.468428601947082 $283 53.468428601947082 $219 $286 forward 7 unknown #
coedge $-1 $151 $145 $285 $287 reversed $152 $-1 #
vertex $-1 $146 $288 #
straight-curve $-1 53.468428601947082 -22.505013161686872 2.8984099168781916 0 0 1 I I #
edge $-1 $229 9.0126576889527339 $227 17.972053256515544 $215 $289 forward 7 unknown #
coedge $-1 $290 $148 $151 $231 reversed $140 $-1 #
coedge $-1 $148 $290 $280 $291 forward $140 $-1 #
vertex $-1 $149 $292 #
straight-curve $-1 0 -31.46440872924968 4.2968198337563832 1 0 0 I I #
vertex $-1 $224 $293 #
straight-curve $-1 0 -22.505013161686872 4.2968198337563832 1 0 0 I I #
edge $-1 $294 -7.2968198337563832 $153 -4.2968198337563832 $151 $295 forward 7 unknown #
point $-1 53.468428601947082 -31.46440872924968 4.2968198337563832 #
point $-1 53.468428601947082 -22.505013161686872 4.2968198337563832 #
plane-surface $-1 0 31.46440872924968 0 0 -1 0 0 0 -1 forward_v I I I I #
coedge $-1 $296 $159 $164 $241 forward $92 $-1 #
coedge $-1 $159 $296 $238 $297 forward $92 $-1 #
edge $-1 $239 6.0193757471906757 $246 9.5140161473583049 $159 $298 forward 7 unknown #
coedge $-1 $168 $162 $236 $297 reversed $169 $-1 #
vertex $-1 $237 $299 #
straight-curve $-1 26.13714718999443 31.46440872924968 59.59185939636528 0 0 1 I I #
edge $-1 $246 6.2357532420090536 $244 33.567034653961699 $235 $300 forward 7 unknown #
coedge $-1 $243 $165 $168 $248 reversed $157 $-1 #
coedge $-1 $165 $242 $296 $301 reversed $157 $-1 #
vertex $-1 $301 $302 #
straight-curve $-1 53.468428601947082 6.1616050923067718 34.22765932818259 0 0.62932038083071107 -0.77714596973225614 I I #
vertex $-1 $241 $303 #
straight-curve $-1 26.13714718999443 -8.1379786389594244 51.886175092336515 0 0.62932038083071107 -0.77714596973225614 I I #
edge $-1 $304 -7.2968198337563832 $170 -2.9812982244469115 $242 $305 forward 7 unknown #
point $-1 53.468428601947082 31.46440872924968 2.9812982244469115 #
point $-1 26.13714718999443 31.464408729249683 2.9812982244469097 #
edge $-1 $306 1 $306 0 $173 $-1 forward 7 unknown #
vertex $-1 $174 $307 #
ellipse-curve $-1 31.603403472384969 28.599420898603167 4.2339896517873603 0 0.77714596973225614 0.62932038083071107 0.5 0 0 1 I I #
point $-1 32.103403472384969 29.717088529165856 5.1390590291016345 #
edge $-1 $308 1 $308 0 $177 $-1 forward 7 unknown #
vertex $-1 $178 $309 #
ellipse-curve $-1 39.802787895970766 28.599420898603167 4.2339896517873603 0 0.77714596973225614 0.62932038083071107 0.5 0 0 1 I I #
point $-1 40.302787895970766 29.717088529165856 5.1390590291016345 #
edge $-1 $310 1 $310 0 $181 $-1 forward 7 unknown #
vertex $-1 $182 $311 #
ellipse-curve $-1 48.002172319556564 28.599420898603167 4.2339896517873603 0 0.77714596973225614 0.62932038083071107 0.5 0 0 1 I I #
point $-1 48.502172319556564 29.717088529165856 5.1390590291016345 #
plane-surface $-1 53.468428601947082 0 0 -1 0 0 0 0 1 forward_v I I I I #
coedge $-1 $190 $188 $192 $268 reversed $121 $-1 #
edge $-1 $203 -7.2968198337563832 $270 7.2968198337563832 $202 $312 forward 7 unknown #
vertex $-1 $268 $313 #
straight-curve $-1 -53.468428601947082 -31.46440872924968 0 0 0 -1 I I #
edge $-1 $266 -31.46440872924968 $270 31.46440872924968 $264 $314 forward 7 unknown #
straight-curve $-1 0 -31.46440872924968 -7.2968198337563832 -1 0 0 I I #
vertex $-1 $195 $315 #
straight-curve $-1 0 31.46440872924968 -7.2968198337563832 1 0 0 I I #
point $-1 53.468428601947082 31.46440872924968 -7.2968198337563832 #
point $-1 53.468428601947082 -31.46440872924968 -7.2968198337563832 #
straight-curve $-1 -53.468428601947082 0 7.2968198337563832 0 -1 0 I I #
point $-1 -53.468428601947082 31.46440872924968 7.2968198337563832 #
point $-1 -53.468428601947082 -31.46440872924968 7.2968198337563832 #
straight-curve $-1 53.468428601947082 -31.46440872924968 0 0 0 -1 I I #
straight-curve $-1 53.468428601947082 31.46440872924968 0 0 0 -1 I I #
plane-surface $-1 53.468428601947082 0 0 -1 0 0 0 0 1 forward_v I I I I #
coedge $-1 $216 $215 $226 $291 reversed $84 $-1 #
coedge $-1 $316 $219 $216 $282 forward $213 $-1 #
edge $-1 $283 22.505013161686872 $317 31.46440872924968 $216 $318 forward 7 unknown #
vertex $-1 $282 $319 #
straight-curve $-1 -53.468428601947082 -22.505013161686872 2.8984099168781916 0 0 -1 I I #
coedge $-1 $219 $316 $221 $287 forward $213 $-1 #
straight-curve $-1 0 -22.505013161686872 7.2968198337563832 -1 0 0 I I #
edge $-1 $294 -31.46440872924968 $222 -22.505013161686872 $221 $320 forward 7 unknown #
point $-1 53.468428601947082 -22.505013161686872 7.2968198337563832 #
straight-curve $-1 -53.468428601947082 -13.492355472734138 4.2968198337563832 0 -1 0 I I #
coedge $-1 $226 $225 $316 $321 reversed $140 $-1 #
edge $-1 $317 -7.2968198337563832 $227 -4.2968198337563832 $280 $322 forward 7 unknown #
point $-1 -53.468428601947082 -31.46440872924968 4.2968198337563832 #
point $-1 -53.468428601947082 -22.505013161686872 4.2968198337563832 #
vertex $-1 $287 $323 #
straight-curve $-1 53.468428601947082 -31.46440872924968 0 0 0 -1 I I #
coedge $-1 $236 $235 $243 $301 forward $92 $-1 #
edge $-1 $304 -53.468428601947082 $239 -26.13714718999443 $238 $324 forward 7 unknown #
straight-curve $-1 26.13714718999443 37.483784476440356 7.2968198337563805 0 -1 0 I I #
point $-1 26.13714718999443 31.46440872924968 7.2968198337563832 #
straight-curve $-1 19.901393947985376 27.96976832908204 7.2968198337563841 1 0 0 I I #
edge $-1 $244 27.969768329082051 $304 31.46440872924968 $243 $325 forward 7 unknown #
point $-1 53.468428601947075 27.969768329082051 7.2968198337563805 #
point $-1 26.13714718999443 27.969768329082051 7.2968198337563805 #
vertex $-1 $301 $326 #
straight-curve $-1 53.468428601947082 31.46440872924968 0 0 0 -1 I I #
vertex $-1 $251 $327 #
point $-1 32.103403472384969 28.599420898603167 4.2339896517873603 #
vertex $-1 $255 $328 #
point $-1 40.302787895970766 28.599420898603167 4.2339896517873603 #
vertex $-1 $259 $329 #
point $-1 48.502172319556564 28.599420898603167 4.2339896517873603 #
straight-curve $-1 -53.468428601947082 31.46440872924968 0 0 0 -1 I I #
point $-1 -53.468428601947082 -31.46440872924968 -7.2968198337563832 #
straight-curve $-1 -53.468428601947082 0 -7.2968198337563832 0 1 0 I I #
point $-1 -53.468428601947082 31.46440872924968 -7.2968198337563832 #
coedge $-1 $285 $281 $290 $321 forward $213 $-1 #
vertex $-1 $282 $330 #
straight-curve $-1 -53.468428601947082 0 7.2968198337563832 0 -1 0 I I #
point $-1 -53.468428601947082 -22.505013161686872 7.2968198337563832 #
straight-curve $-1 53.468428601947082 0 7.2968198337563832 0 1 0 I I #
edge $-1 $317 -53.468428601947082 $294 53.468428601947082 $290 $331 forward 7 unknown #
straight-curve $-1 -53.468428601947082 -31.46440872924968 0 0 0 -1 I I #
point $-1 53.468428601947082 -31.46440872924968 7.2968198337563832 #
straight-curve $-1 0 31.46440872924968 7.2968198337563832 -1 0 0 I I #
straight-curve $-1 53.468428601947082 0 7.2968198337563832 0 1 0 I I #
point $-1 53.468428601947082 31.46440872924968 7.2968198337563832 #
point $-1 31.603403472384969 28.210847913737037 3.9193294613720044 #
point $-1 39.802787895970766 28.210847913737037 3.9193294613720044 #
point $-1 48.002172319556564 28.210847913737037 3.9193294613720044 #
point $-1 -53.468428601947082 -31.46440872924968 7.2968198337563832 #
straight-curve $-1 0 -31.46440872924968 7.2968198337563832 1 0 0 I I #
End-of-ACIS-data 