500 0 8 0           
7 Unknown 11 ACIS 5.0 NT 24 Thu Mar 25 21:06:43 1999 
-1 9.9999999999999995e-007 1e-010 
body $-1 $8 $-1 $9 #
body $-1 $10 $-1 $11 #
body $-1 $12 $-1 $13 #
body $-1 $14 $-1 $15 #
body $-1 $16 $-1 $17 #
body $-1 $18 $-1 $19 #
body $-1 $20 $-1 $21 #
body $-1 $22 $-1 $23 #
lump $-1 $-1 $24 $0 #
transform $-1 1 0 0 0 1 0 0 0 1 57.474898525955993 35.805912841575292 13.226562365624787 1 rotate no_reflect no_shear #
lump $-1 $-1 $25 $1 #
transform $-1 1 0 0 0 1 0 0 0 1 57.474898525955993 35.805912841575292 13.226562365624787 1 rotate no_reflect no_shear #
lump $-1 $-1 $26 $2 #
transform $-1 1 0 0 0 1 0 0 0 1 57.474898525955993 35.805912841575292 13.226562365624787 1 rotate no_reflect no_shear #
lump $-1 $-1 $27 $3 #
transform $-1 1 0 0 0 1 0 0 0 1 57.474898525955993 35.805912841575292 13.226562365624787 1 rotate no_reflect no_shear #
lump $-1 $-1 $28 $4 #
transform $-1 1 0 0 0 1 0 0 0 1 57.474898525955993 35.805912841575292 13.226562365624787 1 rotate no_reflect no_shear #
lump $-1 $-1 $29 $5 #
transform $-1 1 0 0 0 1 0 0 0 1 57.474898525955993 35.805912841575292 13.226562365624787 1 rotate no_reflect no_shear #
lump $-1 $-1 $30 $6 #
transform $-1 1 0 0 0 1 0 0 0 1 57.474898525955993 35.805912841575292 13.226562365624787 1 rotate no_reflect no_shear #
lump $-1 $-1 $31 $7 #
transform $-1 1 0 0 0 1 0 0 0 1 57.474898525955993 35.805912841575292 13.226562365624787 1 rotate no_reflect no_shear #
shell $-1 $-1 $-1 $32 $-1 $8 #
shell $-1 $-1 $-1 $33 $-1 $10 #
shell $-1 $-1 $-1 $34 $-1 $12 #
shell $-1 $-1 $-1 $35 $-1 $14 #
shell $-1 $-1 $-1 $36 $-1 $16 #
shell $-1 $-1 $-1 $37 $-1 $18 #
shell $-1 $-1 $-1 $38 $-1 $20 #
shell $-1 $-1 $-1 $39 $-1 $22 #
face $-1 $40 $41 $24 $-1 $42 forward single #
face $-1 $43 $44 $25 $-1 $45 reversed single #
face $-1 $46 $47 $26 $-1 $48 reversed single #
face $-1 $49 $50 $27 $-1 $51 reversed single #
face $-1 $52 $53 $28 $-1 $54 forward single #
face $-1 $55 $56 $29 $-1 $57 forward single #
face $-1 $58 $59 $30 $-1 $60 reversed single #
face $-1 $61 $62 $31 $-1 $63 forward single #
face $-1 $64 $65 $24 $-1 $66 reversed single #
loop $-1 $-1 $67 $32 #
plane-surface $-1 0 0 13.226562365624787 0 0 1 1 0 0 forward_v I I I I #
face $-1 $68 $69 $25 $-1 $70 reversed single #
loop $-1 $-1 $71 $33 #
plane-surface $-1 -53.785855399771677 -19.819044775288113 0 0 -1 0 0 0 -1 forward_v I I I I #
face $-1 $72 $73 $26 $-1 $74 reversed single #
loop $-1 $-1 $75 $34 #
plane-surface $-1 -53.785855399771677 19.819044775288116 0 0 1 0 0 0 1 forward_v I I I I #
face $-1 $76 $77 $27 $-1 $78 reversed single #
loop $-1 $-1 $79 $35 #
plane-surface $-1 63.148286990104282 6.4318709334595354 170.01453014867889 0 -1 0 -0.73135370988377701 0 -0.68199835119979291 forward_v I I I I #
face $-1 $80 $81 $28 $-1 $82 forward single #
loop $-1 $83 $84 $36 #
cone-surface $-1 53.569073777738105 -0.097845410404836741 9.2141654903133077 -0.73135370988377701 0 -0.68199835119979291 0.68199835119979291 0 -0.73135370988377701 1 I I 0 1 1 forward I I I I #
face $-1 $85 $86 $29 $-1 $87 forward single #
loop $-1 $88 $89 $37 #
cone-surface $-1 53.569073777738105 3.8199843959137851 9.2141654903133077 -0.73135370988377701 0 -0.68199835119979291 0.68199835119979291 0 -0.73135370988377701 1 I I 0 1 1 forward I I I I #
face $-1 $90 $91 $30 $-1 $92 reversed single #
loop $-1 $-1 $93 $38 #
plane-surface $-1 -57.474898525956007 -16.771937812835787 3.7932565993775427 -0.74314483375859142 0 0.66913059716165679 0.66913059716165679 0 0.74314483375859142 forward_v I I I I #
face $-1 $94 $95 $31 $-1 $96 forward single #
loop $-1 $97 $98 $39 #
cone-surface $-1 -52.229691469384896 -16.771937812835787 7.6110236941817577 0.74314483375859142 0 -0.66913059716165679 0.66913059716165679 0 0.74314483375859142 1 I I 0 1 1 forward I I I I #
face $-1 $99 $100 $24 $-1 $101 reversed single #
loop $-1 $-1 $102 $40 #
plane-surface $-1 0 0 -13.226562365624787 0 0 1 1 0 0 forward_v I I I I #
coedge $-1 $103 $104 $105 $106 forward $41 $-1 #
face $-1 $107 $108 $25 $-1 $109 forward single #
loop $-1 $-1 $110 $43 #
plane-surface $-1 -50.096812273587361 -27.812478808431703 0 -1 0 0 0 0 1 forward_v I I I I #
coedge $-1 $111 $112 $113 $114 forward $44 $-1 #
face $-1 $115 $116 $26 $-1 $117 reversed single #
loop $-1 $-1 $118 $46 #
plane-surface $-1 -50.096812273587361 27.812478808431706 0 -1 0 0 0 0 1 forward_v I I I I #
coedge $-1 $119 $120 $121 $122 reversed $47 $-1 #
face $-1 $123 $124 $27 $-1 $125 reversed single #
loop $-1 $-1 $126 $49 #
plane-surface $-1 -20.920673534198798 1.8610694927544742 91.618958088524096 0.73135370988377701 0 0.68199835119979291 0.68199835119979291 0 -0.73135370988377701 forward_v I I I I #
coedge $-1 $127 $128 $129 $130 reversed $50 $-1 #
face $-1 $-1 $131 $28 $-1 $132 forward single #
loop $-1 $133 $134 $52 #
cone-surface $-1 51.94431326764763 -0.097845410404836741 7.6990518401038486 -0.73135370988377701 0 -0.68199835119979291 0.34099917559989645 0 -0.36567685494188851 1 I I -0.70710678118654746 0.70710678118654746 0.5 forward I I I I #
loop $-1 $-1 $135 $36 #
coedge $-1 $84 $84 $136 $137 reversed $53 $-1 #
face $-1 $-1 $138 $29 $-1 $139 forward single #
loop $-1 $140 $141 $55 #
cone-surface $-1 51.94431326764763 3.8199843959137851 7.6990518401038486 -0.73135370988377701 0 -0.68199835119979291 0.34099917559989645 0 -0.36567685494188851 1 I I -0.70710678118654746 0.70710678118654746 0.5 forward I I I I #
loop $-1 $-1 $142 $37 #
coedge $-1 $89 $89 $143 $144 reversed $56 $-1 #
face $-1 $145 $146 $30 $-1 $147 forward single #
loop $-1 $-1 $148 $58 #
plane-surface $-1 -142.89924634668296 -13.724830850383462 80.709682944334659 0 -1 0 0.74314483375859142 0 -0.66913059716165679 forward_v I I I I #
coedge $-1 $149 $150 $151 $152 reversed $59 $-1 #
face $-1 $-1 $153 $31 $-1 $154 forward single #
loop $-1 $155 $156 $61 #
cone-surface $-1 -50.859805221749482 -16.771937812835787 6.3775726072815289 0.74314483375859142 0 -0.66913059716165679 0.3345652985808284 0 0.37157241687929571 1 I I -0.70710678118654746 0.70710678118654746 0.5 forward I I I I #
loop $-1 $-1 $157 $39 #
coedge $-1 $98 $98 $158 $159 reversed $62 $-1 #
face $-1 $160 $161 $24 $-1 $162 reversed single #
loop $-1 $-1 $163 $64 #
plane-surface $-1 0 -35.805912841575292 0 0 1 0 0 0 1 forward_v I I I I #
coedge $-1 $164 $165 $166 $167 forward $65 $-1 #
coedge $-1 $168 $67 $169 $170 forward $41 $-1 #
coedge $-1 $67 $168 $171 $172 forward $41 $-1 #
coedge $-1 $173 $174 $67 $106 reversed $175 $-1 #
edge $-1 $176 -35.805912841575292 $177 35.805912841575292 $105 $178 forward 7 unknown #
face $-1 $179 $180 $25 $-1 $181 reversed single #
loop $-1 $-1 $182 $68 #
plane-surface $-1 0 0 13.226562365624787 0 0 1 1 0 0 forward_v I I I I #
coedge $-1 $183 $184 $185 $186 reversed $69 $-1 #
coedge $-1 $187 $71 $188 $189 reversed $44 $-1 #
coedge $-1 $71 $187 $190 $191 reversed $44 $-1 #
coedge $-1 $184 $183 $71 $114 reversed $69 $-1 #
edge $-1 $192 -13.226562365624787 $193 13.226562365624787 $113 $194 forward 7 unknown #
face $-1 $195 $196 $26 $-1 $197 reversed single #
loop $-1 $-1 $198 $72 #
plane-surface $-1 0 0 -13.226562365624787 0 0 1 1 0 0 forward_v I I I I #
coedge $-1 $199 $200 $201 $202 forward $73 $-1 #
coedge $-1 $201 $75 $203 $204 reversed $47 $-1 #
coedge $-1 $75 $201 $205 $206 reversed $47 $-1 #
coedge $-1 $207 $208 $75 $122 forward $196 $-1 #
edge $-1 $209 -13.226562365624787 $210 13.226562365624787 $121 $211 forward 7 unknown #
face $-1 $212 $213 $27 $-1 $214 reversed single #
loop $-1 $-1 $215 $76 #
plane-surface $-1 63.148286990104282 -2.709731947950587 170.01453014867889 0 1 0 0.73135370988377701 0 0.68199835119979291 forward_v I I I I #
coedge $-1 $216 $217 $218 $219 reversed $77 $-1 #
coedge $-1 $128 $79 $220 $221 reversed $50 $-1 #
coedge $-1 $79 $127 $216 $222 reversed $50 $-1 #
coedge $-1 $218 $223 $79 $130 forward $224 $-1 #
edge $-1 $225 -25.900755030903852 $226 -20.607272844765248 $129 $227 forward 7 unknown #
loop $-1 $-1 $136 $80 #
plane-surface $-1 -20.920673534198798 1.8610694927544742 91.618958088524096 0.73135370988377701 0 0.68199835119979291 0.68199835119979291 0 -0.73135370988377701 forward_v I I I I #
loop $-1 $-1 $228 $52 #
coedge $-1 $134 $134 $135 $229 reversed $81 $-1 #
coedge $-1 $135 $135 $134 $229 forward $83 $-1 #
coedge $-1 $136 $136 $84 $137 forward $131 $-1 #
edge $-1 $230 0 $230 6.2831853071796004 $136 $231 forward 7 unknown #
loop $-1 $-1 $143 $85 #
plane-surface $-1 -20.920673534198798 1.8610694927544742 91.618958088524096 0.73135370988377701 0 0.68199835119979291 0.68199835119979291 0 -0.73135370988377701 forward_v I I I I #
loop $-1 $-1 $232 $55 #
coedge $-1 $141 $141 $142 $233 reversed $86 $-1 #
coedge $-1 $142 $142 $141 $233 forward $88 $-1 #
coedge $-1 $143 $143 $89 $144 forward $138 $-1 #
edge $-1 $234 0 $234 6.2831853071796004 $143 $235 forward 7 unknown #
face $-1 $236 $237 $30 $-1 $238 reversed single #
loop $-1 $-1 $239 $90 #
plane-surface $-1 0 0 13.226562365624787 0 0 1 1 0 0 forward_v I I I I #
coedge $-1 $240 $241 $242 $243 reversed $91 $-1 #
coedge $-1 $244 $93 $245 $246 reversed $59 $-1 #
coedge $-1 $93 $244 $240 $247 forward $59 $-1 #
coedge $-1 $242 $239 $93 $152 forward $146 $-1 #
edge $-1 $248 -11.433075868870219 $249 -5.3388619439655685 $151 $250 forward 7 unknown #
loop $-1 $-1 $158 $94 #
plane-surface $-1 -57.474898525956007 -16.771937812835787 3.7932565993775427 -0.74314483375859142 0 0.66913059716165679 0.66913059716165679 0 0.74314483375859142 forward_v I I I I #
loop $-1 $-1 $251 $61 #
coedge $-1 $156 $156 $157 $252 reversed $95 $-1 #
coedge $-1 $157 $157 $156 $252 forward $97 $-1 #
coedge $-1 $158 $158 $98 $159 forward $153 $-1 #
edge $-1 $253 0 $253 6.2831853071796004 $158 $254 forward 7 unknown #
face $-1 $255 $256 $24 $-1 $257 reversed single #
loop $-1 $-1 $258 $99 #
plane-surface $-1 -57.474898525955993 0 0 1 0 0 0 0 -1 forward_v I I I I #
coedge $-1 $259 $171 $260 $261 forward $100 $-1 #
coedge $-1 $262 $102 $259 $263 forward $65 $-1 #
coedge $-1 $102 $262 $264 $265 forward $65 $-1 #
coedge $-1 $174 $173 $102 $167 reversed $175 $-1 #
edge $-1 $266 -35.805912841575292 $267 35.805912841575292 $166 $268 forward 7 unknown #
coedge $-1 $104 $103 $269 $270 forward $41 $-1 #
coedge $-1 $271 $272 $103 $170 reversed $256 $-1 #
edge $-1 $177 -57.474898525955993 $273 57.474898525955993 $169 $274 forward 7 unknown #
coedge $-1 $163 $275 $104 $172 reversed $100 $-1 #
edge $-1 $276 -57.474898525955993 $176 57.474898525955993 $171 $277 forward 7 unknown #
coedge $-1 $166 $105 $275 $278 forward $175 $-1 #
coedge $-1 $105 $166 $271 $279 reversed $175 $-1 #
loop $-1 $-1 $173 $255 #
vertex $-1 $106 $280 #
vertex $-1 $106 $281 #
straight-curve $-1 57.474898525955993 0 13.226562365624787 0 1 0 I I #
face $-1 $282 $283 $25 $-1 $284 reversed single #
loop $-1 $-1 $285 $107 #
plane-surface $-1 -57.474898525955993 0 0 1 0 0 0 0 -1 forward_v I I I I #
coedge $-1 $190 $286 $184 $287 forward $108 $-1 #
coedge $-1 $113 $110 $288 $289 reversed $69 $-1 #
coedge $-1 $110 $113 $182 $287 reversed $69 $-1 #
coedge $-1 $290 $291 $110 $186 forward $292 $-1 #
edge $-1 $293 -13.226562365624787 $294 13.226562365624787 $185 $295 forward 7 unknown #
coedge $-1 $112 $111 $285 $296 reversed $44 $-1 #
coedge $-1 $288 $297 $111 $189 forward $283 $-1 #
edge $-1 $298 -30.581970826070155 $193 -23.203884573701522 $188 $299 forward 7 unknown #
coedge $-1 $300 $182 $112 $191 forward $108 $-1 #
edge $-1 $192 23.203884573701522 $301 30.581970826070155 $190 $302 forward 7 unknown #
vertex $-1 $191 $303 #
vertex $-1 $189 $304 #
straight-curve $-1 -50.096812273587361 -19.819044775288113 0 0 0 -1 I I #
face $-1 $305 $306 $26 $-1 $307 forward single #
loop $-1 $-1 $121 $115 #
plane-surface $-1 -57.474898525955993 0 0 1 0 0 0 0 -1 forward_v I I I I #
coedge $-1 $203 $308 $199 $309 forward $116 $-1 #
coedge $-1 $310 $118 $198 $309 reversed $73 $-1 #
coedge $-1 $118 $310 $311 $312 reversed $73 $-1 #
coedge $-1 $120 $119 $118 $202 reversed $47 $-1 #
edge $-1 $313 -13.226562365624787 $314 13.226562365624787 $118 $315 forward 7 unknown #
coedge $-1 $316 $198 $119 $204 forward $116 $-1 #
edge $-1 $314 23.203884573701522 $209 30.581970826070155 $203 $317 forward 7 unknown #
coedge $-1 $311 $318 $120 $206 forward $306 $-1 #
edge $-1 $210 -30.581970826070155 $313 -23.203884573701522 $205 $319 forward 7 unknown #
coedge $-1 $320 $121 $318 $321 reversed $196 $-1 #
coedge $-1 $121 $320 $316 $322 reversed $196 $-1 #
vertex $-1 $322 $323 #
vertex $-1 $122 $324 #
straight-curve $-1 -57.474898525955993 19.819044775288116 0 0 0 1 I I #
face $-1 $-1 $224 $27 $-1 $325 forward single #
loop $-1 $-1 $326 $123 #
plane-surface $-1 57.474898525955993 0 0 -1 0 0 0 0 1 forward_v I I I I #
coedge $-1 $327 $328 $329 $330 reversed $124 $-1 #
coedge $-1 $331 $126 $128 $222 forward $77 $-1 #
coedge $-1 $126 $331 $327 $332 forward $77 $-1 #
coedge $-1 $329 $129 $126 $219 forward $224 $-1 #
edge $-1 $226 -5.5013361870822983 $333 3.6402666943278241 $218 $334 forward 7 unknown #
coedge $-1 $335 $336 $127 $221 forward $213 $-1 #
edge $-1 $337 -77.457267510118427 $225 -71.780702708714657 $220 $338 forward 7 unknown #
edge $-1 $226 107.18807420195766 $337 114.94979705191199 $128 $339 forward 7 unknown #
coedge $-1 $129 $329 $335 $340 forward $224 $-1 #
loop $-1 $-1 $329 $212 #
vertex $-1 $221 $341 #
vertex $-1 $130 $342 #
straight-curve $-1 31.574143495052141 6.4318709334595354 13.226562365624787 -1 0 0 I I #
coedge $-1 $228 $228 $-1 $343 reversed $133 $-1 #
edge $-1 $344 0 $344 6.2831853071796004 $134 $345 forward 7 unknown #
vertex $-1 $137 $346 #
ellipse-curve $-1 54.828157432886705 -0.097845410404836741 10.388279964922885 0.73135370988377701 0 0.68199835119979291 0.68199835119979291 0 -0.73135370988377701 1 I I #
coedge $-1 $232 $232 $-1 $347 reversed $140 $-1 #
edge $-1 $348 0 $348 6.2831853071796004 $141 $349 forward 7 unknown #
vertex $-1 $144 $350 #
ellipse-curve $-1 54.828157432886705 3.8199843959137851 10.388279964922885 0.73135370988377701 0 0.68199835119979291 0.68199835119979291 0 -0.73135370988377701 1 I I #
face $-1 $-1 $351 $30 $-1 $352 forward single #
loop $-1 $-1 $353 $145 #
plane-surface $-1 -57.474898525955993 0 0 1 0 0 0 0 -1 forward_v I I I I #
coedge $-1 $151 $354 $355 $356 forward $146 $-1 #
coedge $-1 $241 $148 $150 $247 reversed $91 $-1 #
coedge $-1 $148 $240 $357 $358 reversed $91 $-1 #
coedge $-1 $354 $151 $148 $243 forward $146 $-1 #
edge $-1 $249 -22.46851109901543 $359 -13.974724647385486 $242 $360 forward 7 unknown #
coedge $-1 $150 $149 $353 $361 reversed $59 $-1 #
coedge $-1 $355 $362 $149 $246 forward $351 $-1 #
edge $-1 $363 0.17524370748465923 $248 12.869008553479151 $245 $364 forward 7 unknown #
edge $-1 $365 2.1389731374768986e-014 $249 12.693764845994515 $240 $366 forward 7 unknown #
vertex $-1 $356 $367 #
vertex $-1 $152 $368 #
straight-curve $-1 -48.981112074326049 -8.3859689064178937 13.226562365624787 0 1 0 I I #
coedge $-1 $251 $251 $-1 $369 reversed $155 $-1 #
edge $-1 $370 0 $370 6.2831853071796004 $156 $371 forward 7 unknown #
vertex $-1 $159 $372 #
ellipse-curve $-1 -53.228005300141028 -16.771937812835787 8.5099094825011701 -0.74314483375859142 0 0.66913059716165679 0.66913059716165679 0 0.74314483375859142 1 I I #
face $-1 $-1 $175 $24 $-1 $373 reversed single #
loop $-1 $-1 $271 $160 #
plane-surface $-1 0 35.805912841575292 0 0 -1 0 0 0 -1 forward_v I I I I #
coedge $-1 $374 $269 $272 $375 forward $161 $-1 #
coedge $-1 $275 $163 $164 $263 reversed $100 $-1 #
coedge $-1 $269 $374 $163 $261 reversed $161 $-1 #
edge $-1 $276 -13.226562365624787 $376 13.226562365624787 $260 $377 forward 7 unknown #
coedge $-1 $165 $164 $374 $378 forward $65 $-1 #
edge $-1 $267 -57.474898525955993 $376 57.474898525955993 $259 $379 forward 7 unknown #
coedge $-1 $272 $271 $165 $265 reversed $256 $-1 #
edge $-1 $380 -57.474898525955993 $266 57.474898525955993 $264 $381 forward 7 unknown #
vertex $-1 $167 $382 #
vertex $-1 $278 $383 #
straight-curve $-1 57.474898525955993 0 -13.226562365624787 0 -1 0 I I #
coedge $-1 $258 $260 $168 $270 reversed $161 $-1 #
edge $-1 $273 -35.805912841575292 $276 35.805912841575292 $269 $384 forward 7 unknown #
coedge $-1 $264 $169 $174 $279 forward $256 $-1 #
coedge $-1 $169 $264 $258 $375 reversed $256 $-1 #
vertex $-1 $170 $385 #
straight-curve $-1 0 35.805912841575292 13.226562365624787 -1 0 0 I I #
coedge $-1 $171 $259 $173 $278 reversed $100 $-1 #
vertex $-1 $270 $386 #
straight-curve $-1 0 -35.805912841575292 13.226562365624787 1 0 0 I I #
edge $-1 $176 -13.226562365624787 $267 13.226562365624787 $173 $387 forward 7 unknown #
edge $-1 $177 -13.226562365624787 $266 13.226562365624787 $174 $388 forward 7 unknown #
point $-1 57.474898525955993 -35.805912841575292 13.226562365624787 #
point $-1 57.474898525955993 35.805912841575292 13.226562365624787 #
face $-1 $-1 $292 $25 $-1 $389 reversed single #
loop $-1 $-1 $288 $179 #
plane-surface $-1 0 0 -13.226562365624787 0 0 1 1 0 0 forward_v I I I I #
coedge $-1 $390 $391 $187 $296 forward $180 $-1 #
coedge $-1 $182 $300 $290 $392 forward $108 $-1 #
edge $-1 $294 -21.899673437359439 $192 -5.9128053710722615 $182 $393 forward 7 unknown #
coedge $-1 $394 $188 $183 $289 forward $283 $-1 #
edge $-1 $193 5.9128053710722615 $293 21.899673437359439 $288 $395 forward 7 unknown #
coedge $-1 $396 $185 $286 $392 reversed $292 $-1 #
coedge $-1 $185 $396 $394 $397 reversed $292 $-1 #
loop $-1 $-1 $185 $282 #
vertex $-1 $397 $398 #
vertex $-1 $186 $399 #
straight-curve $-1 -50.096812273587361 -35.805912841575292 0 0 0 1 I I #
edge $-1 $301 -13.226562365624787 $298 13.226562365624787 $285 $400 forward 7 unknown #
coedge $-1 $188 $394 $390 $401 forward $283 $-1 #
vertex $-1 $189 $402 #
straight-curve $-1 -26.892927699885838 -19.819044775288113 -13.226562365624787 1 0 0 I I #
coedge $-1 $286 $190 $391 $403 forward $108 $-1 #
vertex $-1 $403 $404 #
straight-curve $-1 -26.892927699885838 -19.819044775288113 13.226562365624787 -1 0 0 I I #
point $-1 -50.096812273587361 -19.819044775288113 13.226562365624787 #
point $-1 -50.096812273587361 -19.819044775288113 -13.226562365624787 #
face $-1 $-1 $405 $26 $-1 $406 reversed single #
loop $-1 $-1 $311 $195 #
plane-surface $-1 0 0 13.226562365624787 0 0 1 1 0 0 forward_v I I I I #
coedge $-1 $198 $316 $407 $408 forward $116 $-1 #
edge $-1 $409 -21.899673437359439 $314 -5.9128053710722632 $198 $410 forward 7 unknown #
coedge $-1 $200 $199 $411 $412 reversed $73 $-1 #
coedge $-1 $413 $205 $200 $312 forward $306 $-1 #
edge $-1 $313 5.9128053710722632 $414 21.899673437359439 $311 $415 forward 7 unknown #
vertex $-1 $206 $416 #
vertex $-1 $204 $417 #
straight-curve $-1 -50.096812273587361 19.819044775288116 0 0 0 -1 I I #
coedge $-1 $308 $203 $208 $322 forward $116 $-1 #
straight-curve $-1 -26.892927699885838 19.819044775288116 -13.226562365624787 -1 0 0 I I #
coedge $-1 $205 $413 $207 $321 forward $306 $-1 #
straight-curve $-1 -26.892927699885838 19.819044775288116 13.226562365624787 1 0 0 I I #
coedge $-1 $208 $207 $418 $419 forward $196 $-1 #
edge $-1 $420 -35.805912841575292 $210 -19.819044775288116 $207 $421 forward 7 unknown #
edge $-1 $209 19.819044775288116 $422 35.805912841575292 $208 $423 forward 7 unknown #
point $-1 -57.474898525955993 19.819044775288116 -13.226562365624787 #
point $-1 -57.474898525955993 19.819044775288116 13.226562365624787 #
plane-surface $-1 0 0 13.226562365624787 0 0 1 1 0 0 forward_v I I I I #
coedge $-1 $336 $335 $328 $424 forward $213 $-1 #
coedge $-1 $328 $215 $217 $332 reversed $124 $-1 #
coedge $-1 $215 $327 $326 $424 reversed $124 $-1 #
coedge $-1 $223 $218 $215 $330 forward $224 $-1 #
edge $-1 $333 20.607272844765248 $425 25.900755030903852 $329 $426 forward 7 unknown #
coedge $-1 $217 $216 $336 $427 reversed $77 $-1 #
edge $-1 $428 -114.94979705191199 $333 -107.18807420195766 $327 $429 forward 7 unknown #
vertex $-1 $219 $430 #
straight-curve $-1 52.181416339817389 0.9305347463772371 13.22656236562478 0 -1 0 I I #
coedge $-1 $326 $220 $223 $340 reversed $213 $-1 #
coedge $-1 $220 $326 $331 $427 forward $213 $-1 #
vertex $-1 $221 $431 #
straight-curve $-1 57.474898525955993 6.4318709334595354 85.007265074339443 0 0 1 I I #
straight-curve $-1 -20.920673534198798 6.4318709334595354 91.618958088524096 0.68199835119979291 0 -0.73135370988377701 I I #
edge $-1 $425 -2.709731947950587 $225 6.4318709334595354 $335 $432 forward 7 unknown #
point $-1 57.474898525955993 6.4318709334595354 13.226562365624787 #
point $-1 52.181416339817389 6.4318709334595354 13.226562365624787 #
edge $-1 $433 1 $433 0 $228 $-1 forward 7 unknown #
vertex $-1 $229 $434 #
ellipse-curve $-1 52.309990122589518 -0.097845410404836741 8.0400510157037459 0.73135370988377701 0 0.68199835119979291 0.68199835119979291 0 -0.73135370988377701 1 I I #
point $-1 55.510155784086486 -0.097845410404836741 9.6569262550390924 #
edge $-1 $435 1 $435 0 $232 $-1 forward 7 unknown #
vertex $-1 $233 $436 #
ellipse-curve $-1 52.309990122589518 3.8199843959137851 8.0400510157037459 0.73135370988377701 0 0.68199835119979291 0.68199835119979291 0 -0.73135370988377701 1 I I #
point $-1 55.510155784086486 3.8199843959137851 9.6569262550390924 #
loop $-1 $-1 $245 $236 #
plane-surface $-1 -53.785855399771677 -19.819044775288113 0 0 -1 0 0 0 -1 forward_v I I I I #
coedge $-1 $437 $357 $244 $361 forward $237 $-1 #
coedge $-1 $239 $242 $438 $439 forward $146 $-1 #
coedge $-1 $362 $245 $239 $356 reversed $351 $-1 #
edge $-1 $440 -30.581970826070155 $248 -22.08818437444021 $239 $441 forward 7 unknown #
coedge $-1 $353 $438 $241 $358 forward $237 $-1 #
edge $-1 $359 27.128279106542543 $365 36.561584872789773 $357 $442 forward 7 unknown #
vertex $-1 $439 $443 #
straight-curve $-1 -71.449623173341479 -13.724830850383462 13.226562365624787 -1 0 0 I I #
edge $-1 $365 5.3388619439655685 $363 11.433075868870219 $353 $444 forward 7 unknown #
coedge $-1 $245 $355 $437 $445 reversed $351 $-1 #
vertex $-1 $445 $446 #
straight-curve $-1 -57.592159452594025 -19.819044775288113 3.6630251435116317 0.66913059716165679 0 0.74314483375859142 I I #
vertex $-1 $361 $447 #
straight-curve $-1 -57.474898525956007 -13.724830850383462 3.7932565993775427 0.66913059716165679 0 0.74314483375859142 I I #
point $-1 -48.981112074326049 -19.819044775288113 13.226562365624787 #
point $-1 -48.981112074326049 -13.724830850383462 13.226562365624787 #
edge $-1 $448 1 $448 0 $251 $-1 forward 7 unknown #
vertex $-1 $252 $449 #
ellipse-curve $-1 -51.231377638628778 -16.771937812835787 6.7121379058623569 -0.74314483375859142 0 0.66913059716165679 0.66913059716165679 0 0.74314483375859142 1 I I #
point $-1 -52.558874702979352 -16.771937812835787 9.2530543162597496 #
plane-surface $-1 57.474898525955993 0 0 -1 0 0 0 0 1 forward_v I I I I #
coedge $-1 $260 $258 $262 $378 reversed $161 $-1 #
edge $-1 $273 -13.226562365624787 $380 13.226562365624787 $272 $450 forward 7 unknown #
vertex $-1 $378 $451 #
straight-curve $-1 -57.474898525955993 -35.805912841575292 0 0 0 -1 I I #
edge $-1 $376 -35.805912841575292 $380 35.805912841575292 $374 $452 forward 7 unknown #
straight-curve $-1 0 -35.805912841575292 -13.226562365624787 -1 0 0 I I #
vertex $-1 $265 $453 #
straight-curve $-1 0 35.805912841575292 -13.226562365624787 1 0 0 I I #
point $-1 57.474898525955993 35.805912841575292 -13.226562365624787 #
point $-1 57.474898525955993 -35.805912841575292 -13.226562365624787 #
straight-curve $-1 -57.474898525955993 0 13.226562365624787 0 -1 0 I I #
point $-1 -57.474898525955993 35.805912841575292 13.226562365624787 #
point $-1 -57.474898525955993 -35.805912841575292 13.226562365624787 #
straight-curve $-1 57.474898525955993 -35.805912841575292 0 0 0 -1 I I #
straight-curve $-1 57.474898525955993 35.805912841575292 0 0 0 -1 I I #
plane-surface $-1 0 -35.805912841575292 0 0 1 0 0 0 1 forward_v I I I I #
coedge $-1 $454 $285 $297 $401 reversed $180 $-1 #
coedge $-1 $285 $454 $300 $403 reversed $180 $-1 #
edge $-1 $455 -57.474898525955993 $294 -50.096812273587361 $290 $456 forward 7 unknown #
straight-curve $-1 -50.096812273587361 -13.906239404215851 13.226562365624787 0 1 0 I I #
coedge $-1 $297 $288 $291 $397 forward $283 $-1 #
straight-curve $-1 -50.096812273587361 -13.906239404215851 -13.226562365624787 0 -1 0 I I #
coedge $-1 $291 $290 $454 $457 forward $292 $-1 #
edge $-1 $293 50.096812273587361 $458 57.474898525955993 $291 $459 forward 7 unknown #
point $-1 -50.096812273587361 -35.805912841575292 -13.226562365624787 #
point $-1 -50.096812273587361 -35.805912841575292 13.226562365624787 #
straight-curve $-1 -57.474898525955993 -19.819044775288113 0 0 0 -1 I I #
edge $-1 $458 -35.805912841575292 $298 -19.819044775288113 $390 $460 forward 7 unknown #
point $-1 -57.474898525955993 -19.819044775288113 -13.226562365624787 #
edge $-1 $301 19.819044775288113 $455 35.805912841575292 $391 $461 forward 7 unknown #
point $-1 -57.474898525955993 -19.819044775288113 13.226562365624787 #
loop $-1 $-1 $411 $305 #
plane-surface $-1 0 35.805912841575292 0 0 -1 0 0 0 -1 forward_v I I I I #
coedge $-1 $418 $411 $308 $408 reversed $405 $-1 #
edge $-1 $422 -57.474898525955993 $409 -50.096812273587361 $407 $462 forward 7 unknown #
vertex $-1 $309 $463 #
straight-curve $-1 -50.096812273587361 13.906239404215853 -13.226562365624787 0 -1 0 I I #
coedge $-1 $407 $464 $310 $412 forward $405 $-1 #
edge $-1 $414 -13.226562365624787 $409 13.226562365624787 $411 $465 forward 7 unknown #
coedge $-1 $318 $311 $464 $466 forward $306 $-1 #
vertex $-1 $466 $467 #
straight-curve $-1 -50.096812273587361 13.906239404215853 13.226562365624787 0 1 0 I I #
point $-1 -50.096812273587361 19.819044775288116 13.226562365624787 #
point $-1 -50.096812273587361 19.819044775288116 -13.226562365624787 #
coedge $-1 $464 $407 $320 $419 reversed $405 $-1 #
edge $-1 $420 -13.226562365624787 $422 13.226562365624787 $418 $468 forward 7 unknown #
vertex $-1 $466 $469 #
straight-curve $-1 -57.474898525955993 0 13.226562365624787 0 -1 0 I I #
vertex $-1 $408 $470 #
straight-curve $-1 -57.474898525955993 0 -13.226562365624787 0 1 0 I I #
edge $-1 $425 71.780702708714657 $428 77.457267510118427 $326 $471 forward 7 unknown #
vertex $-1 $340 $472 #
straight-curve $-1 31.574143495052141 -2.709731947950587 13.226562365624787 1 0 0 I I #
edge $-1 $428 -3.6402666943278241 $337 5.5013361870822983 $336 $473 forward 7 unknown #
vertex $-1 $427 $474 #
straight-curve $-1 -20.920673534198798 -2.709731947950587 91.618958088524096 -0.68199835119979291 0 0.73135370988377701 I I #
point $-1 52.181416339817389 -2.709731947950587 13.226562365624787 #
point $-1 57.474898525955993 6.4318709334595354 7.549997564221016 #
straight-curve $-1 57.474898525955993 0 13.226562365624787 0 1 0 I I #
vertex $-1 $343 $475 #
point $-1 52.991988473789313 -0.097845410404836741 7.308697305819968 #
vertex $-1 $347 $476 #
point $-1 52.991988473789313 3.8199843959137851 7.308697305819968 #
coedge $-1 $438 $353 $362 $445 forward $237 $-1 #
coedge $-1 $357 $437 $354 $439 reversed $237 $-1 #
edge $-1 $359 13.724830850383462 $440 19.819044775288113 $438 $477 forward 7 unknown #
vertex $-1 $445 $478 #
straight-curve $-1 -26.892927699885838 -19.819044775288113 13.226562365624787 1 0 0 I I #
straight-curve $-1 -57.474898525955993 -13.724830850383462 40.35484147216733 0 0 -1 I I #
point $-1 -57.474898525955993 -13.724830850383462 13.226562365624787 #
straight-curve $-1 -57.474898525955993 -8.3859689064178937 3.7932565993775551 0 -1 0 I I #
edge $-1 $363 3.7932565993775587 $440 13.226562365624787 $437 $479 forward 7 unknown #
point $-1 -57.474898525955993 -19.819044775288113 3.7932565993775587 #
point $-1 -57.474898525955993 -13.724830850383462 3.7932565993775587 #
vertex $-1 $369 $480 #
point $-1 -50.562247041467124 -16.771937812835787 7.4552827396209489 #
straight-curve $-1 -57.474898525955993 35.805912841575292 0 0 0 -1 I I #
point $-1 -57.474898525955993 -35.805912841575292 -13.226562365624787 #
straight-curve $-1 -57.474898525955993 0 -13.226562365624787 0 1 0 I I #
point $-1 -57.474898525955993 35.805912841575292 -13.226562365624787 #
coedge $-1 $391 $390 $396 $457 reversed $180 $-1 #
vertex $-1 $403 $481 #
straight-curve $-1 0 -35.805912841575292 13.226562365624787 1 0 0 I I #
edge $-1 $455 -13.226562365624787 $458 13.226562365624787 $454 $482 forward 7 unknown #
vertex $-1 $401 $483 #
straight-curve $-1 0 -35.805912841575292 -13.226562365624787 -1 0 0 I I #
straight-curve $-1 -57.474898525955993 0 -13.226562365624787 0 1 0 I I #
straight-curve $-1 -57.474898525955993 0 13.226562365624787 0 -1 0 I I #
straight-curve $-1 0 35.805912841575292 -13.226562365624787 1 0 0 I I #
point $-1 -50.096812273587361 35.805912841575292 -13.226562365624787 #
coedge $-1 $411 $418 $413 $466 reversed $405 $-1 #
straight-curve $-1 -50.096812273587361 35.805912841575292 0 0 0 -1 I I #
edge $-1 $414 50.096812273587361 $420 57.474898525955993 $464 $484 forward 7 unknown #
point $-1 -50.096812273587361 35.805912841575292 13.226562365624787 #
straight-curve $-1 -57.474898525955993 35.805912841575292 0 0 0 -1 I I #
point $-1 -57.474898525955993 35.805912841575292 13.226562365624787 #
point $-1 -57.474898525955993 35.805912841575292 -13.226562365624787 #
straight-curve $-1 57.474898525955993 -2.709731947950587 85.007265074339443 0 0 -1 I I #
point $-1 57.474898525955993 -2.709731947950587 13.226562365624787 #
straight-curve $-1 57.474898525955979 0.9305347463772371 7.5499975642210231 0 1 0 I I #
point $-1 57.474898525955993 -2.709731947950587 7.549997564221016 #
point $-1 51.578636412705741 -0.097845410404836741 7.3580526645039521 #
point $-1 51.578636412705741 3.8199843959137851 7.3580526645039521 #
straight-curve $-1 -57.474898525955993 0 13.226562365624787 0 -1 0 I I #
point $-1 -57.474898525955993 -19.819044775288113 13.226562365624787 #
straight-curve $-1 -57.474898525955993 -19.819044775288113 0 0 0 1 I I #
point $-1 -50.488232804870186 -16.771937812835787 6.0430073087007008 #
point $-1 -57.474898525955993 -35.805912841575292 13.226562365624787 #
straight-curve $-1 -57.474898525955993 -35.805912841575292 0 0 0 -1 I I #
point $-1 -57.474898525955993 -35.805912841575292 -13.226562365624787 #
straight-curve $-1 0 35.805912841575292 13.226562365624787 -1 0 0 I I #
End-of-ACIS-data 