500 0 13 0           
7 Unknown 11 ACIS 5.0 NT 24 Thu Mar 25 22:57:46 1999 
-1 9.9999999999999995e-007 1e-010 
body $-1 $13 $-1 $14 #
body $-1 $15 $-1 $16 #
body $-1 $17 $-1 $18 #
body $-1 $19 $-1 $20 #
body $-1 $21 $-1 $22 #
body $-1 $23 $-1 $24 #
body $-1 $25 $-1 $26 #
body $-1 $27 $-1 $28 #
body $-1 $29 $-1 $30 #
body $-1 $31 $-1 $32 #
body $-1 $33 $-1 $34 #
body $-1 $35 $-1 $36 #
body $-1 $37 $-1 $38 #
lump $-1 $-1 $39 $0 #
transform $-1 1 0 0 0 1 0 0 0 1 59.448835718863492 23.887303105005053 8.1970767410290168 1 rotate no_reflect no_shear #
lump $-1 $-1 $40 $1 #
transform $-1 1 0 0 0 1 0 0 0 1 59.448835718863492 23.887303105005053 8.1970767410290168 1 rotate no_reflect no_shear #
lump $-1 $-1 $41 $2 #
transform $-1 1 0 0 0 1 0 0 0 1 59.448835718863492 23.887303105005053 8.1970767410290168 1 rotate no_reflect no_shear #
lump $-1 $-1 $42 $3 #
transform $-1 1 0 0 0 1 0 0 0 1 59.448835718863492 23.887303105005053 8.1970767410290168 1 rotate no_reflect no_shear #
lump $-1 $-1 $43 $4 #
transform $-1 1 0 0 0 1 0 0 0 1 59.448835718863492 23.887303105005053 8.1970767410290168 1 rotate no_reflect no_shear #
lump $-1 $-1 $44 $5 #
transform $-1 1 0 0 0 1 0 0 0 1 59.448835718863492 23.887303105005053 8.1970767410290168 1 rotate no_reflect no_shear #
lump $-1 $-1 $45 $6 #
transform $-1 1 0 0 0 1 0 0 0 1 59.448835718863492 23.887303105005053 8.1970767410290168 1 rotate no_reflect no_shear #
lump $-1 $-1 $46 $7 #
transform $-1 1 0 0 0 1 0 0 0 1 59.448835718863492 23.887303105005053 8.1970767410290168 1 rotate no_reflect no_shear #
lump $-1 $-1 $47 $8 #
transform $-1 1 0 0 0 1 0 0 0 1 59.448835718863492 23.887303105005053 8.1970767410290168 1 rotate no_reflect no_shear #
lump $-1 $-1 $48 $9 #
transform $-1 1 0 0 0 1 0 0 0 1 59.448835718863492 23.887303105005053 8.1970767410290168 1 rotate no_reflect no_shear #
lump $-1 $-1 $49 $10 #
transform $-1 1 0 0 0 1 0 0 0 1 59.448835718863492 23.887303105005053 8.1970767410290168 1 rotate no_reflect no_shear #
lump $-1 $-1 $50 $11 #
transform $-1 1 0 0 0 1 0 0 0 1 59.448835718863492 23.887303105005053 8.1970767410290168 1 rotate no_reflect no_shear #
lump $-1 $-1 $51 $12 #
transform $-1 1 0 0 0 1 0 0 0 1 59.448835718863492 23.887303105005053 8.1970767410290168 1 rotate no_reflect no_shear #
shell $-1 $-1 $-1 $52 $-1 $13 #
shell $-1 $-1 $-1 $53 $-1 $15 #
shell $-1 $-1 $-1 $54 $-1 $17 #
shell $-1 $-1 $-1 $55 $-1 $19 #
shell $-1 $-1 $-1 $56 $-1 $21 #
shell $-1 $-1 $-1 $57 $-1 $23 #
shell $-1 $-1 $-1 $58 $-1 $25 #
shell $-1 $-1 $-1 $59 $-1 $27 #
shell $-1 $-1 $-1 $60 $-1 $29 #
shell $-1 $-1 $-1 $61 $-1 $31 #
shell $-1 $-1 $-1 $62 $-1 $33 #
shell $-1 $-1 $-1 $63 $-1 $35 #
shell $-1 $-1 $-1 $64 $-1 $37 #
face $-1 $65 $66 $39 $-1 $67 forward single #
face $-1 $68 $69 $40 $-1 $70 forward single #
face $-1 $71 $72 $41 $-1 $73 forward single #
face $-1 $74 $75 $42 $-1 $76 reversed single #
face $-1 $77 $78 $43 $-1 $79 forward single #
face $-1 $80 $81 $44 $-1 $82 forward single #
face $-1 $83 $84 $45 $-1 $85 reversed single #
face $-1 $86 $87 $46 $-1 $88 forward single #
face $-1 $89 $90 $47 $-1 $91 forward single #
face $-1 $92 $93 $48 $-1 $94 reversed single #
face $-1 $95 $96 $49 $-1 $97 forward single #
face $-1 $98 $99 $50 $-1 $100 forward single #
face $-1 $101 $102 $51 $-1 $103 forward single #
face $-1 $104 $105 $39 $-1 $106 reversed single #
loop $-1 $-1 $107 $52 #
plane-surface $-1 0 0 8.1970767410290168 0 0 1 1 0 0 forward_v I I I I #
face $-1 $108 $109 $40 $-1 $110 reversed single #
loop $-1 $-1 $111 $53 #
plane-surface $-1 0 -23.887303105005053 0 0 1 0 0 0 1 forward_v I I I I #
face $-1 $112 $113 $41 $-1 $114 reversed single #
loop $-1 $-1 $115 $54 #
plane-surface $-1 0 23.887303105005053 0 0 -1 0 0 0 -1 forward_v I I I I #
face $-1 $116 $117 $42 $-1 $118 reversed single #
loop $-1 $-1 $119 $55 #
plane-surface $-1 59.448837669794258 -5.0804168021705776 172.6222728171314 0 -1 0 -0.70710678939079041 0 -0.70710677298230451 forward_v I I I I #
face $-1 $120 $121 $43 $-1 $122 forward single #
loop $-1 $123 $124 $56 #
cone-surface $-1 56.218637869381666 -10.361542861092737 4.966878880146389 -0.70710678939079041 0 -0.70710677298230451 0.70710677298230451 0 -0.70710678939079041 1 I I 0 1 1 forward I I I I #
face $-1 $125 $126 $44 $-1 $127 forward single #
loop $-1 $128 $129 $57 #
cone-surface $-1 56.218637869381666 -7.192867225739441 4.966878880146389 -0.70710678939079041 0 -0.70710677298230451 0.70710677298230451 0 -0.70710678939079041 1 I I 0 1 1 forward I I I I #
face $-1 $130 $131 $45 $-1 $132 reversed single #
loop $-1 $-1 $133 $58 #
plane-surface $-1 59.448837669794258 10.737267388263607 172.6222728171314 0 -1 0 -0.70710678939079041 0 -0.70710677298230451 forward_v I I I I #
face $-1 $134 $135 $46 $-1 $136 forward single #
loop $-1 $137 $138 $59 #
cone-surface $-1 56.218637869381666 5.4561413293414489 4.966878880146389 -0.70710678939079041 0 -0.70710677298230451 0.70710677298230451 0 -0.70710678939079041 1 I I 0 1 1 forward I I I I #
face $-1 $139 $140 $47 $-1 $141 forward single #
loop $-1 $142 $143 $60 #
cone-surface $-1 56.218637869381666 8.6248169646947446 4.966878880146389 -0.70710678939079041 0 -0.70710677298230451 0.70710677298230451 0 -0.70710678939079041 1 I I 0 1 1 forward I I I I #
face $-1 $144 $145 $48 $-1 $146 reversed single #
loop $-1 $-1 $147 $61 #
plane-surface $-1 -135.87478667896741 9.0337429454485871 91.576070882116483 0 1 0 -0.64278761758704617 0 0.76604443648966558 forward_v I I I I #
face $-1 $148 $149 $49 $-1 $150 forward single #
loop $-1 $151 $152 $62 #
cone-surface $-1 -54.531292253397012 10.390531194445707 3.9550419853720817 0.64278761758704617 0 -0.76604443648966558 0.38302221824483279 0 0.32139380879352308 1 I I 0 1 0.5 forward I I I I #
face $-1 $153 $154 $50 $-1 $155 forward single #
loop $-1 $156 $157 $63 #
cone-surface $-1 -54.531292253397012 12.425713567941386 3.9550419853720817 0.64278761758704617 0 -0.76604443648966558 0.38302221824483279 0 0.32139380879352308 1 I I 0 1 0.5 forward I I I I #
face $-1 $158 $159 $51 $-1 $160 forward single #
loop $-1 $161 $162 $64 #
cone-surface $-1 -54.531292253397012 14.460895941437066 3.9550419853720817 0.64278761758704617 0 -0.76604443648966558 0.38302221824483279 0 0.32139380879352308 1 I I 0 1 0.5 forward I I I I #
face $-1 $163 $164 $39 $-1 $165 reversed single #
loop $-1 $-1 $166 $65 #
plane-surface $-1 0 0 -8.1970767410290168 0 0 1 1 0 0 forward_v I I I I #
coedge $-1 $167 $168 $169 $170 forward $66 $-1 #
face $-1 $171 $172 $40 $-1 $173 reversed single #
loop $-1 $-1 $174 $68 #
plane-surface $-1 0 0 -8.1970767410290168 0 0 1 1 0 0 forward_v I I I I #
coedge $-1 $175 $176 $177 $178 forward $69 $-1 #
face $-1 $179 $180 $41 $-1 $181 forward single #
loop $-1 $-1 $182 $71 #
plane-surface $-1 -59.448835718863492 0 0 1 0 0 0 0 -1 forward_v I I I I #
coedge $-1 $183 $184 $185 $186 forward $72 $-1 #
face $-1 $187 $188 $42 $-1 $189 reversed single #
loop $-1 $-1 $190 $74 #
plane-surface $-1 -24.62451304657796 -8.7772050434160889 88.548924051689951 0.70710678939079041 0 0.70710677298230451 0.70710677298230451 0 -0.70710678939079041 forward_v I I I I #
coedge $-1 $191 $192 $193 $194 reversed $75 $-1 #
face $-1 $-1 $195 $43 $-1 $196 forward single #
loop $-1 $197 $198 $77 #
cone-surface $-1 54.495638284881139 -10.361542861092737 3.2438793356282414 -0.70710678939079041 0 -0.70710677298230451 0.35355338649115226 0 -0.35355339469539521 1 I I -0.70710678118654746 0.70710678118654746 0.5 forward I I I I #
loop $-1 $-1 $199 $56 #
coedge $-1 $124 $124 $200 $201 reversed $78 $-1 #
face $-1 $-1 $202 $44 $-1 $203 forward single #
loop $-1 $204 $205 $80 #
cone-surface $-1 54.495638284881139 -7.192867225739441 3.2438793356282414 -0.70710678939079041 0 -0.70710677298230451 0.35355338649115226 0 -0.35355339469539521 1 I I -0.70710678118654746 0.70710678118654746 0.5 forward I I I I #
loop $-1 $-1 $206 $57 #
coedge $-1 $129 $129 $207 $208 reversed $81 $-1 #
face $-1 $209 $210 $45 $-1 $211 reversed single #
loop $-1 $-1 $212 $83 #
plane-surface $-1 -24.62451304657796 7.0404791470180967 88.548924051689951 0.70710678939079041 0 0.70710677298230451 0.70710677298230451 0 -0.70710678939079041 forward_v I I I I #
coedge $-1 $213 $214 $215 $216 reversed $84 $-1 #
face $-1 $-1 $217 $46 $-1 $218 forward single #
loop $-1 $219 $220 $86 #
cone-surface $-1 54.495638284881139 5.4561413293414489 3.2438793356282414 -0.70710678939079041 0 -0.70710677298230451 0.35355338649115226 0 -0.35355339469539521 1 I I -0.70710678118654746 0.70710678118654746 0.5 forward I I I I #
loop $-1 $-1 $221 $59 #
coedge $-1 $138 $138 $222 $223 reversed $87 $-1 #
face $-1 $-1 $224 $47 $-1 $225 forward single #
loop $-1 $226 $227 $89 #
cone-surface $-1 54.495638284881139 8.6248169646947446 3.2438793356282414 -0.70710678939079041 0 -0.70710677298230451 0.35355338649115226 0 -0.35355339469539521 1 I I -0.70710678118654746 0.70710678118654746 0.5 forward I I I I #
loop $-1 $-1 $228 $60 #
coedge $-1 $143 $143 $229 $230 reversed $90 $-1 #
face $-1 $231 $232 $48 $-1 $233 reversed single #
loop $-1 $-1 $234 $92 #
plane-surface $-1 -59.448835718863492 12.425713567941386 0.49517116566950392 -0.64278761758704617 0 0.76604443648966558 0.76604443648966558 0 0.64278761758704617 forward_v I I I I #
coedge $-1 $235 $236 $237 $238 reversed $93 $-1 #
face $-1 $-1 $239 $49 $-1 $240 forward single #
loop $-1 $241 $242 $95 #
cone-surface $-1 -54.042438607037283 10.390531194445707 3.3724489082724851 0.64278761758704617 0 -0.76604443648966558 0.1915111091224164 0 0.16069690439676154 1 I I -0.70710678118654746 0.70710678118654746 0.25 forward I I I I #
loop $-1 $-1 $243 $62 #
coedge $-1 $152 $152 $244 $245 reversed $96 $-1 #
face $-1 $-1 $246 $50 $-1 $247 forward single #
loop $-1 $248 $249 $98 #
cone-surface $-1 -54.042438607037283 12.425713567941386 3.3724489082724851 0.64278761758704617 0 -0.76604443648966558 0.1915111091224164 0 0.16069690439676154 1 I I -0.70710678118654746 0.70710678118654746 0.25 forward I I I I #
loop $-1 $-1 $250 $63 #
coedge $-1 $157 $157 $251 $252 reversed $99 $-1 #
face $-1 $-1 $253 $51 $-1 $254 forward single #
loop $-1 $255 $256 $101 #
cone-surface $-1 -54.042438607037283 14.460895941437066 3.3724489082724851 0.64278761758704617 0 -0.76604443648966558 0.1915111091224164 0 0.16069690439676154 1 I I -0.70710678118654746 0.70710678118654746 0.25 forward I I I I #
loop $-1 $-1 $257 $64 #
coedge $-1 $162 $162 $258 $259 reversed $102 $-1 #
face $-1 $260 $261 $39 $-1 $262 reversed single #
loop $-1 $-1 $263 $104 #
plane-surface $-1 0 -23.887303105005053 0 0 1 0 0 0 1 forward_v I I I I #
coedge $-1 $264 $265 $266 $267 forward $105 $-1 #
coedge $-1 $268 $107 $269 $270 forward $66 $-1 #
coedge $-1 $107 $268 $271 $272 forward $66 $-1 #
coedge $-1 $273 $274 $107 $170 reversed $275 $-1 #
edge $-1 $276 -23.887303105005053 $277 23.887303105005053 $169 $278 forward 7 unknown #
face $-1 $279 $280 $40 $-1 $281 forward single #
loop $-1 $-1 $282 $108 #
plane-surface $-1 59.448835718863492 0 0 -1 0 0 0 0 1 forward_v I I I I #
coedge $-1 $283 $284 $285 $286 forward $109 $-1 #
coedge $-1 $285 $111 $282 $287 reversed $69 $-1 #
coedge $-1 $111 $285 $288 $289 reversed $69 $-1 #
coedge $-1 $290 $291 $111 $178 reversed $280 $-1 #
edge $-1 $292 -59.448835718863492 $293 59.448835718863492 $177 $294 forward 7 unknown #
face $-1 $295 $296 $41 $-1 $297 reversed single #
loop $-1 $-1 $298 $112 #
plane-surface $-1 0 27.922112562290486 -5.1232292497200795 0 0 1 1 0 0 forward_v I I I I #
coedge $-1 $299 $300 $183 $301 forward $113 $-1 #
coedge $-1 $302 $115 $182 $301 reversed $72 $-1 #
coedge $-1 $115 $302 $303 $304 reversed $72 $-1 #
coedge $-1 $298 $305 $115 $186 reversed $180 $-1 #
edge $-1 $306 -59.448835718863492 $307 59.448835718863492 $185 $308 forward 7 unknown #
face $-1 $309 $310 $42 $-1 $311 forward single #
loop $-1 $-1 $312 $116 #
plane-surface $-1 59.448837669794258 -12.473993284661599 172.6222728171314 0 1 0 0.70710678939079041 0 0.70710677298230451 forward_v I I I I #
coedge $-1 $313 $314 $315 $316 reversed $117 $-1 #
coedge $-1 $192 $119 $317 $318 reversed $75 $-1 #
coedge $-1 $119 $191 $313 $319 reversed $75 $-1 #
coedge $-1 $315 $320 $119 $194 forward $310 $-1 #
edge $-1 $321 -29.724416883966363 $322 -26.002913564612946 $193 $323 forward 7 unknown #
loop $-1 $-1 $200 $120 #
plane-surface $-1 -24.62451304657796 -8.7772050434160889 88.548924051689951 0.70710678939079041 0 0.70710677298230451 0.70710677298230451 0 -0.70710678939079041 forward_v I I I I #
loop $-1 $-1 $324 $77 #
coedge $-1 $198 $198 $199 $325 reversed $121 $-1 #
coedge $-1 $199 $199 $198 $325 forward $123 $-1 #
coedge $-1 $200 $200 $124 $201 forward $195 $-1 #
edge $-1 $326 0 $326 6.2831853071796004 $200 $327 forward 7 unknown #
loop $-1 $-1 $207 $125 #
plane-surface $-1 -24.62451304657796 -8.7772050434160889 88.548924051689951 0.70710678939079041 0 0.70710677298230451 0.70710677298230451 0 -0.70710678939079041 forward_v I I I I #
loop $-1 $-1 $328 $80 #
coedge $-1 $205 $205 $206 $329 reversed $126 $-1 #
coedge $-1 $206 $206 $205 $329 forward $128 $-1 #
coedge $-1 $207 $207 $129 $208 forward $202 $-1 #
edge $-1 $330 0 $330 6.2831853071796004 $207 $331 forward 7 unknown #
face $-1 $332 $333 $45 $-1 $334 reversed single #
loop $-1 $-1 $335 $130 #
plane-surface $-1 59.448837669794258 3.3436909057725854 172.6222728171314 0 1 0 0.70710678939079041 0 0.70710677298230451 forward_v I I I I #
coedge $-1 $336 $337 $338 $339 reversed $131 $-1 #
coedge $-1 $214 $133 $340 $341 reversed $84 $-1 #
coedge $-1 $133 $213 $336 $342 reversed $84 $-1 #
coedge $-1 $338 $343 $133 $216 forward $344 $-1 #
edge $-1 $345 -29.724416883966363 $346 -26.002913564612946 $215 $347 forward 7 unknown #
loop $-1 $-1 $222 $134 #
plane-surface $-1 -24.62451304657796 7.0404791470180967 88.548924051689951 0.70710678939079041 0 0.70710677298230451 0.70710677298230451 0 -0.70710678939079041 forward_v I I I I #
loop $-1 $-1 $348 $86 #
coedge $-1 $220 $220 $221 $349 reversed $135 $-1 #
coedge $-1 $221 $221 $220 $349 forward $137 $-1 #
coedge $-1 $222 $222 $138 $223 forward $217 $-1 #
edge $-1 $350 0 $350 6.2831853071796004 $222 $351 forward 7 unknown #
loop $-1 $-1 $229 $139 #
plane-surface $-1 -24.62451304657796 7.0404791470180967 88.548924051689951 0.70710678939079041 0 0.70710677298230451 0.70710677298230451 0 -0.70710678939079041 forward_v I I I I #
loop $-1 $-1 $352 $89 #
coedge $-1 $227 $227 $228 $353 reversed $140 $-1 #
coedge $-1 $228 $228 $227 $353 forward $142 $-1 #
coedge $-1 $229 $229 $143 $230 forward $224 $-1 #
edge $-1 $354 0 $354 6.2831853071796004 $229 $355 forward 7 unknown #
face $-1 $356 $357 $48 $-1 $358 reversed single #
loop $-1 $-1 $359 $144 #
plane-surface $-1 -135.87478667896741 15.817684190434186 91.576070882116483 0 -1 0 0.64278761758704617 0 -0.76604443648966558 forward_v I I I I #
coedge $-1 $360 $361 $362 $363 reversed $145 $-1 #
coedge $-1 $236 $147 $364 $365 reversed $93 $-1 #
coedge $-1 $147 $235 $360 $366 reversed $93 $-1 #
coedge $-1 $362 $367 $147 $238 forward $368 $-1 #
edge $-1 $369 8.4885576206202131 $370 17.667331067627245 $237 $371 forward 7 unknown #
loop $-1 $-1 $244 $148 #
plane-surface $-1 -59.448835718863492 12.425713567941386 0.49517116566950392 -0.64278761758704617 0 0.76604443648966558 0.76604443648966558 0 0.64278761758704617 forward_v I I I I #
loop $-1 $-1 $372 $95 #
coedge $-1 $242 $242 $243 $373 reversed $149 $-1 #
coedge $-1 $243 $243 $242 $373 forward $151 $-1 #
coedge $-1 $244 $244 $152 $245 forward $239 $-1 #
edge $-1 $374 0 $374 6.2831853071796004 $244 $375 forward 7 unknown #
loop $-1 $-1 $251 $153 #
plane-surface $-1 -59.448835718863492 12.425713567941386 0.49517116566950392 -0.64278761758704617 0 0.76604443648966558 0.76604443648966558 0 0.64278761758704617 forward_v I I I I #
loop $-1 $-1 $376 $98 #
coedge $-1 $249 $249 $250 $377 reversed $154 $-1 #
coedge $-1 $250 $250 $249 $377 forward $156 $-1 #
coedge $-1 $251 $251 $157 $252 forward $246 $-1 #
edge $-1 $378 0 $378 6.2831853071796004 $251 $379 forward 7 unknown #
loop $-1 $-1 $258 $158 #
plane-surface $-1 -59.448835718863492 12.425713567941386 0.49517116566950392 -0.64278761758704617 0 0.76604443648966558 0.76604443648966558 0 0.64278761758704617 forward_v I I I I #
loop $-1 $-1 $380 $101 #
coedge $-1 $256 $256 $257 $381 reversed $159 $-1 #
coedge $-1 $257 $257 $256 $381 forward $161 $-1 #
coedge $-1 $258 $258 $162 $259 forward $253 $-1 #
edge $-1 $382 0 $382 6.2831853071796004 $258 $383 forward 7 unknown #
face $-1 $384 $385 $39 $-1 $386 reversed single #
loop $-1 $-1 $387 $163 #
plane-surface $-1 -59.448835718863492 0 0 1 0 0 0 0 -1 forward_v I I I I #
coedge $-1 $271 $388 $273 $389 reversed $164 $-1 #
coedge $-1 $390 $166 $388 $391 forward $105 $-1 #
coedge $-1 $166 $390 $392 $393 forward $105 $-1 #
coedge $-1 $274 $273 $166 $267 reversed $275 $-1 #
edge $-1 $394 -23.887303105005053 $395 23.887303105005053 $266 $396 forward 7 unknown #
coedge $-1 $168 $167 $397 $398 forward $66 $-1 #
coedge $-1 $399 $400 $167 $270 reversed $385 $-1 #
edge $-1 $277 -59.448835718863492 $401 59.448835718863492 $269 $402 forward 7 unknown #
coedge $-1 $403 $263 $168 $272 reversed $164 $-1 #
edge $-1 $404 -59.448835718863492 $276 59.448835718863492 $271 $405 forward 7 unknown #
coedge $-1 $266 $169 $263 $389 forward $275 $-1 #
coedge $-1 $169 $266 $399 $406 reversed $275 $-1 #
loop $-1 $-1 $273 $384 #
vertex $-1 $170 $407 #
vertex $-1 $170 $408 #
straight-curve $-1 59.448835718863492 0 8.1970767410290168 0 1 0 I I #
face $-1 $409 $410 $40 $-1 $411 reversed single #
loop $-1 $-1 $291 $171 #
plane-surface $-1 0 -27.922112562290486 -5.1232292497200795 0 0 1 1 0 0 forward_v I I I I #
coedge $-1 $412 $413 $175 $287 forward $172 $-1 #
coedge $-1 $414 $174 $413 $415 forward $109 $-1 #
coedge $-1 $174 $414 $416 $417 forward $109 $-1 #
coedge $-1 $176 $175 $174 $286 reversed $69 $-1 #
edge $-1 $418 -59.448835718863492 $419 59.448835718863492 $174 $420 forward 7 unknown #
edge $-1 $419 -8.1970767410290168 $293 -5.1232292497200795 $282 $421 forward 7 unknown #
coedge $-1 $416 $422 $176 $289 forward $423 $-1 #
edge $-1 $292 5.1232292497200795 $418 8.1970767410290168 $288 $424 forward 7 unknown #
coedge $-1 $425 $177 $422 $426 forward $280 $-1 #
coedge $-1 $177 $425 $412 $427 forward $280 $-1 #
vertex $-1 $289 $428 #
vertex $-1 $427 $429 #
straight-curve $-1 0 -23.887303105005053 -5.1232292497200795 1 0 0 I I #
face $-1 $430 $431 $41 $-1 $432 reversed single #
loop $-1 $-1 $433 $179 #
plane-surface $-1 0 31.95692201957592 -6.6601529953745482 0 -1 0 0 0 -1 forward_v I I I I #
coedge $-1 $434 $185 $435 $436 forward $180 $-1 #
coedge $-1 $437 $182 $305 $438 reversed $113 $-1 #
coedge $-1 $182 $437 $439 $440 reversed $113 $-1 #
edge $-1 $441 -8.1970767410290168 $307 -5.1232292497200795 $182 $442 forward 7 unknown #
coedge $-1 $184 $183 $443 $444 reversed $72 $-1 #
coedge $-1 $445 $435 $184 $304 forward $446 $-1 #
edge $-1 $306 5.1232292497200795 $447 8.1970767410290168 $303 $448 forward 7 unknown #
coedge $-1 $185 $434 $299 $438 forward $180 $-1 #
vertex $-1 $304 $449 #
vertex $-1 $438 $450 #
straight-curve $-1 0 23.887303105005053 -5.1232292497200795 -1 0 0 I I #
face $-1 $-1 $451 $42 $-1 $452 reversed single #
loop $-1 $-1 $193 $187 #
plane-surface $-1 0 0 8.1970767410290168 0 0 1 1 0 0 forward_v I I I I #
coedge $-1 $453 $454 $455 $456 reversed $188 $-1 #
coedge $-1 $457 $190 $192 $319 forward $117 $-1 #
coedge $-1 $190 $457 $453 $458 forward $117 $-1 #
coedge $-1 $455 $193 $190 $316 forward $310 $-1 #
edge $-1 $322 0.69181428046253313 $459 8.0853907629535549 $315 $460 forward 7 unknown #
coedge $-1 $461 $462 $191 $318 forward $451 $-1 #
edge $-1 $463 -81.835563073247968 $321 -78.114059667536679 $317 $464 forward 7 unknown #
edge $-1 $322 113.63467091001668 $463 118.89767143772703 $192 $465 forward 7 unknown #
coedge $-1 $193 $455 $461 $466 forward $310 $-1 #
vertex $-1 $318 $467 #
vertex $-1 $194 $468 #
straight-curve $-1 29.724418834897129 -5.0804168021705776 8.1970767410290222 -1 0 0 I I #
coedge $-1 $324 $324 $-1 $469 reversed $197 $-1 #
edge $-1 $470 0 $470 6.2831853071796004 $198 $471 forward 7 unknown #
vertex $-1 $201 $472 #
ellipse-curve $-1 57.588084059186791 -10.361542861092737 6.336325038173376 0.70710678939079041 0 0.70710677298230451 0.70710677298230451 0 -0.70710678939079041 1 I I #
coedge $-1 $328 $328 $-1 $473 reversed $204 $-1 #
edge $-1 $474 0 $474 6.2831853071796004 $205 $475 forward 7 unknown #
vertex $-1 $208 $476 #
ellipse-curve $-1 57.588084059186791 -7.192867225739441 6.336325038173376 0.70710678939079041 0 0.70710677298230451 0.70710677298230451 0 -0.70710678939079041 1 I I #
face $-1 $-1 $344 $45 $-1 $477 forward single #
loop $-1 $-1 $478 $209 #
plane-surface $-1 59.448835718863492 0 0 -1 0 0 0 0 1 forward_v I I I I #
coedge $-1 $479 $480 $481 $482 reversed $210 $-1 #
coedge $-1 $483 $212 $214 $342 forward $131 $-1 #
coedge $-1 $212 $483 $479 $484 forward $131 $-1 #
coedge $-1 $481 $215 $212 $339 forward $344 $-1 #
edge $-1 $346 -7.2170278147545588 $485 0.17654866773646294 $338 $486 forward 7 unknown #
coedge $-1 $487 $488 $213 $341 forward $333 $-1 #
edge $-1 $489 -81.835563073247968 $345 -78.114059667536679 $340 $490 forward 7 unknown #
edge $-1 $346 113.63467091001668 $489 118.89767143772703 $214 $491 forward 7 unknown #
coedge $-1 $215 $481 $487 $492 forward $344 $-1 #
loop $-1 $-1 $481 $332 #
vertex $-1 $341 $493 #
vertex $-1 $216 $494 #
straight-curve $-1 29.724418834897129 10.737267388263607 8.1970767410290222 -1 0 0 I I #
coedge $-1 $348 $348 $-1 $495 reversed $219 $-1 #
edge $-1 $496 0 $496 6.2831853071796004 $220 $497 forward 7 unknown #
vertex $-1 $223 $498 #
ellipse-curve $-1 57.588084059186791 5.4561413293414489 6.336325038173376 0.70710678939079041 0 0.70710677298230451 0.70710677298230451 0 -0.70710678939079041 1 I I #
coedge $-1 $352 $352 $-1 $499 reversed $226 $-1 #
edge $-1 $500 0 $500 6.2831853071796004 $227 $501 forward 7 unknown #
vertex $-1 $230 $502 #
ellipse-curve $-1 57.588084059186791 8.6248169646947446 6.336325038173376 0.70710678939079041 0 0.70710677298230451 0.70710677298230451 0 -0.70710678939079041 1 I I #
face $-1 $-1 $368 $48 $-1 $503 forward single #
loop $-1 $-1 $504 $231 #
plane-surface $-1 -59.448835718863492 0 0 1 0 0 0 0 -1 forward_v I I I I #
coedge $-1 $505 $506 $507 $508 reversed $232 $-1 #
coedge $-1 $509 $234 $236 $366 forward $145 $-1 #
coedge $-1 $234 $509 $505 $510 forward $145 $-1 #
coedge $-1 $507 $237 $234 $363 forward $368 $-1 #
edge $-1 $370 2.8208861614778939 $511 9.6048274064634924 $362 $512 forward 7 unknown #
coedge $-1 $513 $514 $235 $365 forward $357 $-1 #
edge $-1 $515 -45.292864275388737 $369 -37.590958700029226 $364 $516 forward 7 unknown #
edge $-1 $370 -11.982037868544536 $515 0 $236 $517 forward 7 unknown #
coedge $-1 $237 $507 $513 $518 forward $368 $-1 #
loop $-1 $-1 $507 $356 #
vertex $-1 $365 $519 #
vertex $-1 $238 $520 #
straight-curve $-1 -67.937393339483705 9.0337429454485871 8.1970767410290151 1 0 0 I I #
coedge $-1 $372 $372 $-1 $521 reversed $241 $-1 #
edge $-1 $522 0 $522 6.2831853071796004 $242 $523 forward 7 unknown #
vertex $-1 $245 $524 #
ellipse-curve $-1 -54.859448995359976 10.390531194445707 4.3461239533492586 -0.64278761758704617 0 0.76604443648966558 0.38302221824483279 0 0.32139380879352308 1 I I #
coedge $-1 $376 $376 $-1 $525 reversed $248 $-1 #
edge $-1 $526 0 $526 6.2831853071796004 $249 $527 forward 7 unknown #
vertex $-1 $252 $528 #
ellipse-curve $-1 -54.859448995359976 12.425713567941386 4.3461239533492586 -0.64278761758704617 0 0.76604443648966558 0.38302221824483279 0 0.32139380879352308 1 I I #
coedge $-1 $380 $380 $-1 $529 reversed $255 $-1 #
edge $-1 $530 0 $530 6.2831853071796004 $256 $531 forward 7 unknown #
vertex $-1 $259 $532 #
ellipse-curve $-1 -54.859448995359976 14.460895941437066 4.3461239533492586 -0.64278761758704617 0 0.76604443648966558 0.38302221824483279 0 0.32139380879352308 1 I I #
face $-1 $-1 $275 $39 $-1 $533 reversed single #
loop $-1 $-1 $400 $260 #
plane-surface $-1 0 23.887303105005053 0 0 -1 0 0 0 -1 forward_v I I I I #
coedge $-1 $534 $397 $400 $535 forward $261 $-1 #
coedge $-1 $263 $403 $264 $391 reversed $164 $-1 #
edge $-1 $276 -8.1970767410290168 $395 8.1970767410290168 $273 $536 forward 7 unknown #
coedge $-1 $265 $264 $534 $537 forward $105 $-1 #
edge $-1 $395 -59.448835718863492 $538 59.448835718863492 $388 $539 forward 7 unknown #
coedge $-1 $400 $399 $265 $393 reversed $385 $-1 #
edge $-1 $540 -59.448835718863492 $394 59.448835718863492 $392 $541 forward 7 unknown #
vertex $-1 $267 $542 #
vertex $-1 $389 $543 #
straight-curve $-1 59.448835718863492 0 -8.1970767410290168 0 -1 0 I I #
coedge $-1 $387 $544 $268 $398 reversed $261 $-1 #
edge $-1 $401 -23.887303105005053 $404 23.887303105005053 $397 $545 forward 7 unknown #
coedge $-1 $392 $269 $274 $406 forward $385 $-1 #
coedge $-1 $269 $392 $387 $535 reversed $385 $-1 #
vertex $-1 $270 $546 #
straight-curve $-1 0 23.887303105005053 8.1970767410290168 -1 0 0 I I #
coedge $-1 $388 $271 $544 $547 forward $164 $-1 #
vertex $-1 $398 $548 #
straight-curve $-1 0 -23.887303105005053 8.1970767410290168 1 0 0 I I #
edge $-1 $277 -8.1970767410290168 $394 8.1970767410290168 $274 $549 forward 7 unknown #
point $-1 59.448835718863492 -23.887303105005053 8.1970767410290168 #
point $-1 59.448835718863492 23.887303105005053 8.1970767410290168 #
face $-1 $-1 $423 $40 $-1 $550 reversed single #
loop $-1 $-1 $551 $279 #
plane-surface $-1 0 -31.95692201957592 -6.6601529953745482 0 1 0 0 0 1 forward_v I I I I #
coedge $-1 $552 $282 $291 $427 reversed $172 $-1 #
coedge $-1 $282 $552 $283 $415 reversed $172 $-1 #
coedge $-1 $284 $283 $553 $554 forward $109 $-1 #
edge $-1 $419 23.887303105005053 $555 31.95692201957592 $413 $556 forward 7 unknown #
coedge $-1 $557 $288 $284 $417 reversed $423 $-1 #
edge $-1 $558 -31.95692201957592 $418 -23.887303105005053 $416 $559 forward 7 unknown #
vertex $-1 $289 $560 #
vertex $-1 $415 $561 #
straight-curve $-1 0 -23.887303105005053 -8.1970767410290168 1 0 0 I I #
straight-curve $-1 59.448835718863492 -23.887303105005053 0 0 0 1 I I #
coedge $-1 $288 $557 $290 $426 reversed $423 $-1 #
loop $-1 $-1 $288 $409 #
straight-curve $-1 -59.448835718863492 -23.887303105005053 0 0 0 -1 I I #
coedge $-1 $291 $290 $562 $563 forward $280 $-1 #
edge $-1 $292 -4.0348094572854336 $564 4.0348094572854336 $422 $565 forward 7 unknown #
edge $-1 $566 -4.0348094572854336 $293 4.0348094572854336 $412 $567 forward 7 unknown #
point $-1 -59.448835718863492 -23.887303105005053 -5.1232292497200795 #
point $-1 59.448835718863492 -23.887303105005053 -5.1232292497200795 #
face $-1 $-1 $446 $41 $-1 $568 reversed single #
loop $-1 $-1 $443 $295 #
plane-surface $-1 0 0 -8.1970767410290168 0 0 1 1 0 0 forward_v I I I I #
coedge $-1 $569 $570 $571 $572 forward $296 $-1 #
coedge $-1 $305 $298 $570 $573 forward $180 $-1 #
coedge $-1 $303 $571 $298 $436 reversed $446 $-1 #
edge $-1 $306 -4.0348094572854336 $574 4.0348094572854336 $435 $575 forward 7 unknown #
coedge $-1 $300 $299 $576 $577 forward $113 $-1 #
edge $-1 $578 -4.0348094572854336 $307 4.0348094572854336 $299 $579 forward 7 unknown #
coedge $-1 $580 $443 $300 $440 forward $431 $-1 #
edge $-1 $441 -4.0348094572854336 $581 4.0348094572854336 $300 $582 forward 7 unknown #
vertex $-1 $440 $583 #
straight-curve $-1 -59.448835718863492 23.887303105005053 0 0 0 1 I I #
coedge $-1 $439 $584 $302 $444 forward $431 $-1 #
edge $-1 $447 -59.448835718863492 $441 59.448835718863492 $443 $585 forward 7 unknown #
coedge $-1 $571 $303 $584 $586 reversed $446 $-1 #
loop $-1 $-1 $303 $430 #
vertex $-1 $304 $587 #
straight-curve $-1 59.448835718863492 23.887303105005053 0 0 0 -1 I I #
point $-1 59.448835718863492 23.887303105005053 -5.1232292497200795 #
point $-1 -59.448835718863492 23.887303105005053 -5.1232292497200795 #
loop $-1 $-1 $317 $309 #
plane-surface $-1 59.448835718863492 0 0 -1 0 0 0 0 1 forward_v I I I I #
coedge $-1 $454 $312 $314 $458 reversed $188 $-1 #
coedge $-1 $312 $453 $588 $589 reversed $188 $-1 #
coedge $-1 $320 $315 $312 $456 forward $310 $-1 #
edge $-1 $459 26.002913564612946 $590 29.724416883966363 $455 $591 forward 7 unknown #
coedge $-1 $314 $313 $462 $592 reversed $117 $-1 #
edge $-1 $593 -118.89767143772703 $459 -113.63467091001668 $453 $594 forward 7 unknown #
vertex $-1 $316 $595 #
straight-curve $-1 55.72733239951009 -4.3886025217080444 8.197076741029008 0 -1 0 I I #
coedge $-1 $588 $317 $320 $466 reversed $451 $-1 #
coedge $-1 $317 $588 $457 $592 forward $451 $-1 #
vertex $-1 $318 $596 #
straight-curve $-1 59.448835718863492 -5.0804168021705776 86.311136408565702 0 0 1 I I #
straight-curve $-1 -24.62451304657796 -5.0804168021705776 88.548924051689951 0.70710677298230451 0 -0.70710678939079041 I I #
edge $-1 $590 -12.473993284661599 $321 -5.0804168021705776 $461 $597 forward 7 unknown #
point $-1 59.448835718863492 -5.0804168021705776 8.1970767410290168 #
point $-1 55.727332399510075 -5.0804168021705776 8.1970767410290222 #
edge $-1 $598 1 $598 0 $324 $-1 forward 7 unknown #
vertex $-1 $325 $599 #
ellipse-curve $-1 54.849191679576535 -10.361542861092737 3.5974327221193936 0.70710678939079041 0 0.70710677298230451 0.70710677298230451 0 -0.70710678939079041 1 I I #
point $-1 58.295190832169112 -10.361542861092737 5.6292182487825935 #
edge $-1 $600 1 $600 0 $328 $-1 forward 7 unknown #
vertex $-1 $329 $601 #
ellipse-curve $-1 54.849191679576535 -7.192867225739441 3.5974327221193936 0.70710678939079041 0 0.70710677298230451 0.70710677298230451 0 -0.70710678939079041 1 I I #
point $-1 58.295190832169112 -7.192867225739441 5.6292182487825935 #
plane-surface $-1 0 0 8.1970767410290168 0 0 1 1 0 0 forward_v I I I I #
coedge $-1 $488 $487 $480 $602 forward $333 $-1 #
coedge $-1 $480 $335 $337 $484 reversed $210 $-1 #
coedge $-1 $335 $479 $478 $602 reversed $210 $-1 #
coedge $-1 $343 $338 $335 $482 forward $344 $-1 #
edge $-1 $485 26.002913564612946 $603 29.724416883966363 $481 $604 forward 7 unknown #
coedge $-1 $337 $336 $488 $605 reversed $131 $-1 #
edge $-1 $606 -118.89767143772703 $485 -113.63467091001668 $479 $607 forward 7 unknown #
vertex $-1 $339 $608 #
straight-curve $-1 55.72733239951009 3.5202395735090484 8.197076741029008 0 -1 0 I I #
coedge $-1 $478 $340 $343 $492 reversed $333 $-1 #
coedge $-1 $340 $478 $483 $605 forward $333 $-1 #
vertex $-1 $341 $609 #
straight-curve $-1 59.448835718863492 10.737267388263607 86.311136408565702 0 0 1 I I #
straight-curve $-1 -24.62451304657796 10.737267388263607 88.548924051689951 0.70710677298230451 0 -0.70710678939079041 I I #
edge $-1 $603 3.3436909057725854 $345 10.737267388263607 $487 $610 forward 7 unknown #
point $-1 59.448835718863492 10.737267388263607 8.1970767410290168 #
point $-1 55.727332399510075 10.737267388263607 8.1970767410290222 #
edge $-1 $611 1 $611 0 $348 $-1 forward 7 unknown #
vertex $-1 $349 $612 #
ellipse-curve $-1 54.849191679576535 5.4561413293414489 3.5974327221193936 0.70710678939079041 0 0.70710677298230451 0.70710677298230451 0 -0.70710678939079041 1 I I #
point $-1 58.295190832169112 5.4561413293414489 5.6292182487825935 #
edge $-1 $613 1 $613 0 $352 $-1 forward 7 unknown #
vertex $-1 $353 $614 #
ellipse-curve $-1 54.849191679576535 8.6248169646947446 3.5974327221193936 0.70710678939079041 0 0.70710677298230451 0.70710677298230451 0 -0.70710678939079041 1 I I #
point $-1 58.295190832169112 8.6248169646947446 5.6292182487825935 #
plane-surface $-1 0 0 8.1970767410290168 0 0 1 1 0 0 forward_v I I I I #
coedge $-1 $514 $513 $506 $615 forward $357 $-1 #
coedge $-1 $506 $359 $361 $510 reversed $232 $-1 #
coedge $-1 $359 $505 $504 $615 reversed $232 $-1 #
coedge $-1 $367 $362 $359 $508 forward $368 $-1 #
edge $-1 $511 -17.667331067627245 $616 -8.4885576206202131 $507 $617 forward 7 unknown #
coedge $-1 $361 $360 $514 $618 reversed $145 $-1 #
edge $-1 $619 0 $511 11.982037868544536 $505 $620 forward 7 unknown #
vertex $-1 $363 $621 #
straight-curve $-1 -50.270062271856453 6.2128567839706932 8.1970767410290168 0 1 0 I I #
coedge $-1 $504 $364 $367 $518 reversed $357 $-1 #
coedge $-1 $364 $504 $509 $618 forward $357 $-1 #
vertex $-1 $365 $622 #
straight-curve $-1 -59.448835718863492 9.0337429454485871 45.788035441058241 0 0 1 I I #
straight-curve $-1 -59.448835718863492 9.0337429454485871 0.49517116566950392 -0.76604443648966558 0 -0.64278761758704617 I I #
edge $-1 $616 -15.817684190434186 $369 -9.0337429454485871 $513 $623 forward 7 unknown #
point $-1 -59.448835718863492 9.0337429454485871 8.1970767410290168 #
point $-1 -50.27006227185646 9.0337429454485871 8.1970767410290168 #
edge $-1 $624 1 $624 0 $372 $-1 forward 7 unknown #
vertex $-1 $373 $625 #
ellipse-curve $-1 -54.203135511434041 10.390531194445707 3.5639600173949013 -0.64278761758704617 0 0.76604443648966558 0.38302221824483279 0 0.32139380879352308 1 I I #
point $-1 -54.476426777115144 10.390531194445707 4.6675177621427846 #
edge $-1 $626 1 $626 0 $376 $-1 forward 7 unknown #
vertex $-1 $377 $627 #
ellipse-curve $-1 -54.203135511434041 12.425713567941386 3.5639600173949013 -0.64278761758704617 0 0.76604443648966558 0.38302221824483279 0 0.32139380879352308 1 I I #
point $-1 -54.476426777115144 12.425713567941386 4.6675177621427846 #
edge $-1 $628 1 $628 0 $380 $-1 forward 7 unknown #
vertex $-1 $381 $629 #
ellipse-curve $-1 -54.203135511434041 14.460895941437066 3.5639600173949013 -0.64278761758704617 0 0.76604443648966558 0.38302221824483279 0 0.32139380879352308 1 I I #
point $-1 -54.476426777115144 14.460895941437066 4.6675177621427846 #
plane-surface $-1 59.448835718863492 0 0 -1 0 0 0 0 1 forward_v I I I I #
coedge $-1 $544 $387 $390 $537 reversed $261 $-1 #
edge $-1 $401 -8.1970767410290168 $540 8.1970767410290168 $400 $630 forward 7 unknown #
straight-curve $-1 59.448835718863492 -23.887303105005053 0 0 0 -1 I I #
edge $-1 $538 -23.887303105005053 $540 23.887303105005053 $534 $631 forward 7 unknown #
vertex $-1 $537 $632 #
straight-curve $-1 0 -23.887303105005053 -8.1970767410290168 -1 0 0 I I #
vertex $-1 $393 $633 #
straight-curve $-1 0 23.887303105005053 -8.1970767410290168 1 0 0 I I #
point $-1 59.448835718863492 23.887303105005053 -8.1970767410290168 #
point $-1 59.448835718863492 -23.887303105005053 -8.1970767410290168 #
coedge $-1 $397 $534 $403 $547 reversed $261 $-1 #
straight-curve $-1 -59.448835718863492 0 8.1970767410290168 0 -1 0 I I #
point $-1 -59.448835718863492 23.887303105005053 8.1970767410290168 #
edge $-1 $404 -8.1970767410290168 $538 8.1970767410290168 $544 $634 forward 7 unknown #
point $-1 -59.448835718863492 -23.887303105005053 8.1970767410290168 #
straight-curve $-1 59.448835718863492 23.887303105005053 0 0 0 -1 I I #
plane-surface $-1 -59.448835718863492 0 0 1 0 0 0 0 -1 forward_v I I I I #
coedge $-1 $553 $562 $557 $635 forward $410 $-1 #
coedge $-1 $413 $412 $636 $637 forward $172 $-1 #
coedge $-1 $636 $551 $414 $554 reversed $410 $-1 #
edge $-1 $555 -59.448835718863492 $558 59.448835718863492 $553 $638 forward 7 unknown #
vertex $-1 $637 $639 #
straight-curve $-1 59.448835718863492 0 -8.1970767410290168 0 -1 0 I I #
coedge $-1 $422 $416 $551 $635 reversed $423 $-1 #
vertex $-1 $417 $640 #
straight-curve $-1 -59.448835718863492 0 -8.1970767410290168 0 1 0 I I #
point $-1 -59.448835718863492 -23.887303105005053 -8.1970767410290168 #
point $-1 59.448835718863492 -23.887303105005053 -8.1970767410290168 #
coedge $-1 $551 $636 $425 $563 reversed $410 $-1 #
edge $-1 $564 -59.448835718863492 $566 59.448835718863492 $562 $641 forward 7 unknown #
vertex $-1 $426 $642 #
straight-curve $-1 -59.448835718863492 -27.922112562290486 -5.1232292497200795 0 -1 0 I I #
vertex $-1 $427 $643 #
straight-curve $-1 59.448835718863492 -27.922112562290486 -5.1232292497200795 0 1 0 I I #
plane-surface $-1 59.448835718863492 0 0 -1 0 0 0 0 1 forward_v I I I I #
coedge $-1 $576 $433 $580 $644 reversed $296 $-1 #
coedge $-1 $433 $576 $434 $573 reversed $296 $-1 #
coedge $-1 $435 $445 $433 $572 reversed $446 $-1 #
edge $-1 $574 -1.5369237456544687 $645 1.5369237456544687 $571 $646 forward 7 unknown #
edge $-1 $574 -59.448835718863492 $578 59.448835718863492 $570 $647 forward 7 unknown #
vertex $-1 $436 $648 #
straight-curve $-1 59.448835718863492 27.922112562290486 -5.1232292497200795 0 1 0 I I #
coedge $-1 $570 $569 $437 $577 reversed $296 $-1 #
edge $-1 $578 -1.5369237456544687 $581 1.5369237456544687 $576 $649 forward 7 unknown #
vertex $-1 $573 $650 #
straight-curve $-1 -59.448835718863492 27.922112562290486 -5.1232292497200795 0 -1 0 I I #
coedge $-1 $584 $439 $569 $644 forward $431 $-1 #
vertex $-1 $644 $651 #
straight-curve $-1 -59.448835718863492 27.922112562290486 -8.1970767410290168 0 1 0 I I #
point $-1 -59.448835718863492 23.887303105005053 -8.1970767410290168 #
coedge $-1 $443 $580 $445 $586 forward $431 $-1 #
straight-curve $-1 0 23.887303105005053 -8.1970767410290168 -1 0 0 I I #
edge $-1 $645 -31.95692201957592 $447 -23.887303105005053 $445 $652 forward 7 unknown #
point $-1 59.448835718863492 23.887303105005053 -8.1970767410290168 #
coedge $-1 $462 $461 $454 $589 forward $451 $-1 #
edge $-1 $590 78.114059667536679 $593 81.835563073247968 $588 $653 forward 7 unknown #
vertex $-1 $466 $654 #
straight-curve $-1 29.724418834897129 -12.473993284661599 8.1970767410290222 1 0 0 I I #
edge $-1 $593 -8.0853907629535549 $463 -0.69181428046253313 $462 $655 forward 7 unknown #
vertex $-1 $592 $656 #
straight-curve $-1 -24.62451304657796 -12.473993284661599 88.548924051689951 -0.70710677298230451 0 0.70710678939079041 I I #
point $-1 55.727332399510075 -12.473993284661599 8.1970767410290222 #
point $-1 59.448835718863492 -5.0804168021705776 4.4755733353177334 #
straight-curve $-1 59.448835718863492 0 8.1970767410290168 0 1 0 I I #
vertex $-1 $469 $657 #
point $-1 55.556298452558835 -10.361542861092737 2.8903259327286031 #
vertex $-1 $473 $658 #
point $-1 55.556298452558835 -7.192867225739441 2.8903259327286031 #
edge $-1 $603 78.114059667536679 $606 81.835563073247968 $478 $659 forward 7 unknown #
vertex $-1 $492 $660 #
straight-curve $-1 29.724418834897129 3.3436909057725854 8.1970767410290222 1 0 0 I I #
edge $-1 $606 -0.17654866773646294 $489 7.2170278147545588 $488 $661 forward 7 unknown #
vertex $-1 $605 $662 #
straight-curve $-1 -24.62451304657796 3.3436909057725854 88.548924051689951 -0.70710677298230451 0 0.70710678939079041 I I #
point $-1 55.727332399510075 3.3436909057725854 8.1970767410290222 #
point $-1 59.448835718863492 10.737267388263607 4.4755733353177334 #
straight-curve $-1 59.448835718863492 0 8.1970767410290168 0 1 0 I I #
vertex $-1 $495 $663 #
point $-1 55.556298452558835 5.4561413293414489 2.8903259327286031 #
vertex $-1 $499 $664 #
point $-1 55.556298452558835 8.6248169646947446 2.8903259327286031 #
edge $-1 $616 37.590958700029226 $619 45.292864275388737 $504 $665 forward 7 unknown #
vertex $-1 $518 $666 #
straight-curve $-1 -67.937393339483705 15.817684190434186 8.1970767410290151 -1 0 0 I I #
edge $-1 $619 -9.6048274064634924 $515 -2.8208861614778939 $514 $667 forward 7 unknown #
vertex $-1 $618 $668 #
straight-curve $-1 -59.448835718863492 15.817684190434186 0.49517116566950392 0.76604443648966558 0 0.64278761758704617 I I #
point $-1 -50.27006227185646 15.817684190434186 8.1970767410290168 #
point $-1 -59.448835718863492 9.0337429454485871 0.49517116566950392 #
straight-curve $-1 -59.448835718863492 0 8.1970767410290168 0 -1 0 I I #
vertex $-1 $521 $669 #
point $-1 -53.820113293189209 10.390531194445707 3.8853538261884246 #
vertex $-1 $525 $670 #
point $-1 -53.820113293189209 12.425713567941386 3.8853538261884246 #
vertex $-1 $529 $671 #
point $-1 -53.820113293189209 14.460895941437066 3.8853538261884246 #
straight-curve $-1 -59.448835718863492 23.887303105005053 0 0 0 -1 I I #
straight-curve $-1 -59.448835718863492 0 -8.1970767410290168 0 1 0 I I #
point $-1 -59.448835718863492 -23.887303105005053 -8.1970767410290168 #
point $-1 -59.448835718863492 23.887303105005053 -8.1970767410290168 #
straight-curve $-1 -59.448835718863492 -23.887303105005053 0 0 0 -1 I I #
edge $-1 $564 -1.5369237456544687 $558 1.5369237456544687 $557 $672 forward 7 unknown #
coedge $-1 $562 $553 $552 $637 reversed $410 $-1 #
edge $-1 $566 -1.5369237456544687 $555 1.5369237456544687 $552 $673 forward 7 unknown #
straight-curve $-1 0 -31.95692201957592 -8.1970767410290168 -1 0 0 I I #
point $-1 59.448835718863492 -31.95692201957592 -8.1970767410290168 #
point $-1 -59.448835718863492 -31.95692201957592 -8.1970767410290168 #
straight-curve $-1 0 -31.95692201957592 -5.1232292497200795 1 0 0 I I #
point $-1 -59.448835718863492 -31.95692201957592 -5.1232292497200795 #
point $-1 59.448835718863492 -31.95692201957592 -5.1232292497200795 #
edge $-1 $581 -59.448835718863492 $645 59.448835718863492 $569 $674 forward 7 unknown #
vertex $-1 $586 $675 #
straight-curve $-1 59.448835718863492 31.95692201957592 -6.6601529953745482 0 0 -1 I I #
straight-curve $-1 0 31.95692201957592 -5.1232292497200795 -1 0 0 I I #
point $-1 59.448835718863492 31.95692201957592 -5.1232292497200795 #
straight-curve $-1 -59.448835718863492 31.95692201957592 -6.6601529953745482 0 0 -1 I I #
point $-1 -59.448835718863492 31.95692201957592 -5.1232292497200795 #
point $-1 -59.448835718863492 31.95692201957592 -8.1970767410290168 #
straight-curve $-1 59.448835718863492 0 -8.1970767410290168 0 -1 0 I I #
straight-curve $-1 59.448835718863492 -12.473993284661599 86.311136408565702 0 0 -1 I I #
point $-1 59.448835718863492 -12.473993284661599 8.1970767410290168 #
straight-curve $-1 59.448835718863492 -4.3886025217080444 4.4755733353177405 0 1 0 I I #
point $-1 59.448835718863492 -12.473993284661599 4.4755733353177334 #
point $-1 54.142084890185743 -10.361542861092737 2.8903259491370892 #
point $-1 54.142084890185743 -7.192867225739441 2.8903259491370892 #
straight-curve $-1 59.448835718863492 3.3436909057725854 86.311136408565702 0 0 -1 I I #
point $-1 59.448835718863492 3.3436909057725854 8.1970767410290168 #
straight-curve $-1 59.448835718863492 3.5202395735090484 4.4755733353177405 0 1 0 I I #
point $-1 59.448835718863492 3.3436909057725854 4.4755733353177334 #
point $-1 54.142084890185743 5.4561413293414489 2.8903259491370892 #
point $-1 54.142084890185743 8.6248169646947446 2.8903259491370892 #
straight-curve $-1 -59.448835718863492 15.817684190434186 45.788035441058241 0 0 -1 I I #
point $-1 -59.448835718863492 15.817684190434186 8.1970767410290168 #
straight-curve $-1 -59.448835718863492 6.2128567839706932 0.49517116566950331 0 -1 0 I I #
point $-1 -59.448835718863492 15.817684190434186 0.49517116566950392 #
point $-1 -53.881741702640525 10.390531194445707 3.1809377991500689 #
point $-1 -53.881741702640525 12.425713567941386 3.1809377991500689 #
point $-1 -53.881741702640525 14.460895941437066 3.1809377991500689 #
straight-curve $-1 -59.448835718863492 -31.95692201957592 -6.6601529953745482 0 0 -1 I I #
straight-curve $-1 59.448835718863492 -31.95692201957592 -6.6601529953745482 0 0 -1 I I #
straight-curve $-1 0 31.95692201957592 -8.1970767410290168 1 0 0 I I #
point $-1 59.448835718863492 31.95692201957592 -8.1970767410290168 #
End-of-ACIS-data 