500 0 5 0           
7 Unknown 11 ACIS 5.0 NT 24 Fri Mar 26 14:33:10 1999 
-1 9.9999999999999995e-007 1e-010 
body $-1 $5 $-1 $6 #
body $-1 $7 $-1 $8 #
body $-1 $9 $-1 $10 #
body $-1 $11 $-1 $12 #
body $-1 $13 $-1 $14 #
lump $-1 $-1 $15 $0 #
transform $-1 1 0 0 0 1 0 0 0 1 55.269020661030915 36.476507864839327 15.032880942947989 1 rotate no_reflect no_shear #
lump $-1 $-1 $16 $1 #
transform $-1 1 0 0 0 1 0 0 0 1 55.269020661030915 36.476507864839327 15.032880942947989 1 rotate no_reflect no_shear #
lump $-1 $-1 $17 $2 #
transform $-1 1 0 0 0 1 0 0 0 1 55.269020661030915 36.476507864839327 15.032880942947989 1 rotate no_reflect no_shear #
lump $-1 $-1 $18 $3 #
transform $-1 1 0 0 0 1 0 0 0 1 55.269020661030915 36.476507864839327 15.032880942947989 1 rotate no_reflect no_shear #
lump $-1 $-1 $19 $4 #
transform $-1 1 0 0 0 1 0 0 0 1 55.269020661030915 36.476507864839327 15.032880942947989 1 rotate no_reflect no_shear #
shell $-1 $-1 $-1 $20 $-1 $5 #
shell $-1 $-1 $-1 $21 $-1 $7 #
shell $-1 $-1 $-1 $22 $-1 $9 #
shell $-1 $-1 $-1 $23 $-1 $11 #
shell $-1 $-1 $-1 $24 $-1 $13 #
face $-1 $25 $26 $15 $-1 $27 forward single #
face $-1 $28 $29 $16 $-1 $30 forward single #
face $-1 $31 $32 $17 $-1 $33 forward single #
face $-1 $34 $35 $18 $-1 $36 reversed single #
face $-1 $37 $38 $19 $-1 $39 reversed single #
face $-1 $40 $41 $15 $-1 $42 reversed single #
loop $-1 $-1 $43 $20 #
plane-surface $-1 0 0 15.032880942947989 0 0 1 1 0 0 forward_v I I I I #
face $-1 $44 $45 $16 $-1 $46 forward single #
loop $-1 $-1 $47 $21 #
plane-surface $-1 0 -29.969885927705167 6.7088480668024832 0 0 1 1 0 0 forward_v I I I I #
face $-1 $48 $49 $17 $-1 $50 forward single #
loop $-1 $-1 $51 $22 #
plane-surface $-1 -23.21747537446084 37.807806225564399 143.60159389737458 -1 0 0 0 0.55919291073839883 0.82903756765294845 forward_v I I I I #
face $-1 $52 $53 $18 $-1 $54 reversed single #
loop $-1 $55 $56 $23 #
cone-surface $-1 -46.111436293439468 33.039008871361034 12.252458776201895 0 -0.55919291073839883 -0.82903756765294845 1 0 0 1 I I 0 1 1 forward I I I I #
face $-1 $57 $58 $19 $-1 $59 reversed single #
loop $-1 $60 $61 $24 #
cone-surface $-1 -32.375059742052287 33.039008871361034 12.252458776201895 0 -0.55919291073839883 -0.82903756765294845 1 0 0 1 I I 0 1 1 forward I I I I #
face $-1 $62 $63 $15 $-1 $64 reversed single #
loop $-1 $-1 $65 $25 #
plane-surface $-1 0 0 -15.032880942947989 0 0 1 1 0 0 forward_v I I I I #
coedge $-1 $66 $67 $68 $69 forward $26 $-1 #
face $-1 $70 $71 $16 $-1 $72 forward single #
loop $-1 $-1 $73 $28 #
plane-surface $-1 0 -23.463263990571008 10.870864504875234 0 -1 0 0 0 -1 forward_v I I I I #
coedge $-1 $74 $75 $76 $77 reversed $29 $-1 #
face $-1 $78 $79 $17 $-1 $80 reversed single #
loop $-1 $-1 $81 $31 #
plane-surface $-1 -39.243248017745877 -24.004282848640756 51.961404986611356 0 0.55919291073839883 0.82903756765294845 1 0 0 forward_v I I I I #
coedge $-1 $82 $83 $84 $85 reversed $32 $-1 #
face $-1 $86 $87 $18 $-1 $88 forward single #
loop $-1 $89 $90 $34 #
cone-surface $-1 -46.111436293439468 32.187915110934689 10.990660410309259 0 -0.55919291073839883 -0.82903756765294845 0.5 0 0 1 I I -0.70710678118654746 0.70710678118654746 0.5 forward I I I I #
loop $-1 $-1 $91 $23 #
coedge $-1 $56 $56 $92 $93 reversed $35 $-1 #
face $-1 $94 $95 $19 $-1 $96 reversed single #
loop $-1 $97 $98 $37 #
cone-surface $-1 -32.375059742052287 32.187915110934689 10.990660410309259 0 -0.55919291073839883 -0.82903756765294845 0.5 0 0 1 I I -0.70710678118654746 0.70710678118654746 0.5 forward I I I I #
loop $-1 $-1 $99 $24 #
coedge $-1 $61 $61 $100 $101 reversed $38 $-1 #
face $-1 $102 $103 $15 $-1 $104 reversed single #
loop $-1 $-1 $105 $40 #
plane-surface $-1 0 -36.476507864839327 0 0 1 0 0 0 1 forward_v I I I I #
coedge $-1 $106 $107 $108 $109 forward $41 $-1 #
coedge $-1 $110 $43 $111 $112 forward $26 $-1 #
coedge $-1 $43 $110 $113 $114 forward $26 $-1 #
coedge $-1 $115 $116 $43 $69 reversed $117 $-1 #
edge $-1 $118 -36.476507864839327 $119 36.476507864839327 $68 $120 forward 7 unknown #
face $-1 $121 $122 $16 $-1 $123 reversed single #
loop $-1 $-1 $124 $44 #
plane-surface $-1 0 0 15.032880942947989 0 0 1 1 0 0 forward_v I I I I #
coedge $-1 $125 $126 $127 $128 reversed $45 $-1 #
coedge $-1 $129 $47 $126 $130 reversed $29 $-1 #
coedge $-1 $47 $129 $131 $132 reversed $29 $-1 #
coedge $-1 $133 $127 $47 $77 forward $122 $-1 #
edge $-1 $134 8.4783210267184241 $135 21.491564900986745 $76 $136 forward 7 unknown #
face $-1 $137 $138 $17 $-1 $139 forward single #
loop $-1 $-1 $140 $48 #
plane-surface $-1 0 36.476507864839327 0 0 -1 0 0 0 -1 forward_v I I I I #
coedge $-1 $141 $142 $140 $143 reversed $49 $-1 #
coedge $-1 $83 $51 $142 $144 forward $32 $-1 #
coedge $-1 $51 $82 $145 $146 reversed $32 $-1 #
coedge $-1 $147 $140 $51 $85 forward $79 $-1 #
edge $-1 $148 -60.634201175099136 $149 -56.767916005739302 $84 $150 forward 7 unknown #
face $-1 $151 $152 $18 $-1 $153 forward single #
loop $-1 $-1 $154 $52 #
plane-surface $-1 -23.21747537446084 37.807806225564399 143.60159389737458 -1 0 0 0 0.55919291073839883 0.82903756765294845 forward_v I I I I #
loop $-1 $-1 $155 $34 #
coedge $-1 $90 $90 $91 $156 forward $53 $-1 #
coedge $-1 $91 $91 $90 $156 reversed $55 $-1 #
coedge $-1 $92 $92 $56 $93 forward $152 $-1 #
edge $-1 $157 3.7654325195607146e-015 $157 6.283185307179604 $92 $158 forward 7 unknown #
face $-1 $159 $160 $19 $-1 $161 reversed single #
loop $-1 $162 $163 $57 #
cone-surface $-1 -46.111436293439468 33.039008871361034 12.252458776201895 0 -0.55919291073839883 -0.82903756765294845 1 0 0 1 I I 0 1 1 forward I I I I #
loop $-1 $-1 $164 $37 #
coedge $-1 $98 $98 $99 $165 forward $58 $-1 #
coedge $-1 $99 $99 $98 $165 reversed $60 $-1 #
coedge $-1 $100 $100 $61 $101 forward $166 $-1 #
edge $-1 $167 3.7654325195607146e-015 $167 6.283185307179604 $100 $168 forward 7 unknown #
face $-1 $169 $170 $15 $-1 $171 reversed single #
loop $-1 $-1 $172 $62 #
plane-surface $-1 -55.269020661030915 0 0 1 0 0 0 0 -1 forward_v I I I I #
coedge $-1 $173 $113 $174 $175 forward $63 $-1 #
coedge $-1 $176 $65 $173 $177 forward $41 $-1 #
coedge $-1 $65 $176 $178 $179 forward $41 $-1 #
coedge $-1 $116 $115 $65 $109 reversed $117 $-1 #
edge $-1 $180 -36.476507864839327 $181 36.476507864839327 $108 $182 forward 7 unknown #
coedge $-1 $67 $66 $183 $184 forward $26 $-1 #
coedge $-1 $185 $186 $66 $112 reversed $170 $-1 #
edge $-1 $119 -55.269020661030915 $187 55.269020661030915 $111 $188 forward 7 unknown #
coedge $-1 $105 $189 $67 $114 reversed $63 $-1 #
edge $-1 $190 -55.269020661030915 $118 55.269020661030915 $113 $191 forward 7 unknown #
coedge $-1 $108 $68 $189 $192 forward $117 $-1 #
coedge $-1 $68 $108 $185 $193 reversed $117 $-1 #
loop $-1 $-1 $115 $169 #
vertex $-1 $69 $194 #
vertex $-1 $69 $195 #
straight-curve $-1 55.269020661030915 0 15.032880942947989 0 1 0 I I #
face $-1 $196 $197 $16 $-1 $198 reversed single #
loop $-1 $-1 $127 $70 #
plane-surface $-1 55.269020661030915 0 0 -1 0 0 0 0 1 forward_v I I I I #
coedge $-1 $199 $200 $125 $201 forward $71 $-1 #
coedge $-1 $202 $73 $124 $201 reversed $45 $-1 #
coedge $-1 $73 $202 $74 $130 forward $45 $-1 #
coedge $-1 $76 $203 $73 $128 forward $122 $-1 #
edge $-1 $204 -9.5974486905103689 $134 -1.2734158143648662 $127 $205 forward 7 unknown #
coedge $-1 $75 $74 $206 $207 reversed $29 $-1 #
edge $-1 $208 -55.269020661030915 $134 55.269020661030915 $126 $209 forward 7 unknown #
coedge $-1 $210 $211 $75 $132 forward $212 $-1 #
edge $-1 $135 -55.269020661030915 $213 55.269020661030915 $131 $214 forward 7 unknown #
coedge $-1 $215 $76 $211 $216 forward $122 $-1 #
vertex $-1 $77 $217 #
vertex $-1 $216 $218 #
straight-curve $-1 55.269020661030915 -14.984942963852584 6.7088480668024832 0 -1 0 I I #
face $-1 $219 $220 $17 $-1 $221 forward single #
loop $-1 $-1 $145 $78 #
plane-surface $-1 0 0 15.032880942947989 0 0 1 1 0 0 forward_v I I I I #
coedge $-1 $84 $222 $81 $143 forward $79 $-1 #
coedge $-1 $223 $81 $224 $225 reversed $49 $-1 #
coedge $-1 $81 $223 $82 $144 reversed $49 $-1 #
edge $-1 $226 -35.64739665215798 $148 -3.595851365587901 $140 $227 forward 7 unknown #
edge $-1 $148 -72.953015729678654 $228 -66.038970334763846 $82 $229 forward 7 unknown #
coedge $-1 $230 $231 $83 $146 forward $138 $-1 #
edge $-1 $149 -17.572604752057128 $228 -11.840601375214884 $145 $232 forward 7 unknown #
coedge $-1 $233 $84 $231 $234 reversed $79 $-1 #
vertex $-1 $143 $235 #
vertex $-1 $146 $236 #
straight-curve $-1 -23.21747537446084 36.476507864839327 71.800796948687292 0 0 1 I I #
face $-1 $237 $238 $18 $-1 $239 reversed single #
loop $-1 $240 $92 $86 #
plane-surface $-1 -39.243248017745877 -24.004282848640756 51.961404986611356 0 0.55919291073839883 0.82903756765294845 1 0 0 forward_v I I I I #
coedge $-1 $241 $242 $243 $244 reversed $87 $-1 #
coedge $-1 $155 $155 $-1 $245 forward $89 $-1 #
edge $-1 $246 0 $246 6.2831853071796004 $90 $247 forward 7 unknown #
vertex $-1 $93 $248 #
ellipse-curve $-1 -46.111436293439468 33.610506176418198 13.09973835826808 0 -0.55919291073839883 -0.82903756765294845 1 0 0 1 I I #
face $-1 $249 $250 $19 $-1 $251 forward single #
loop $-1 $252 $253 $94 #
cone-surface $-1 -46.111436293439468 32.187915110934689 10.990660410309259 0 -0.55919291073839883 -0.82903756765294845 0.5 0 0 1 I I -0.70710678118654746 0.70710678118654746 0.5 forward I I I I #
loop $-1 $-1 $254 $57 #
coedge $-1 $163 $163 $255 $256 reversed $95 $-1 #
coedge $-1 $164 $164 $-1 $257 forward $97 $-1 #
edge $-1 $258 0 $258 6.2831853071796004 $98 $259 forward 7 unknown #
loop $-1 $260 $100 $249 #
vertex $-1 $101 $261 #
ellipse-curve $-1 -32.375059742052287 33.610506176418198 13.09973835826808 0 -0.55919291073839883 -0.82903756765294845 1 0 0 1 I I #
face $-1 $-1 $117 $15 $-1 $262 reversed single #
loop $-1 $-1 $185 $102 #
plane-surface $-1 0 36.476507864839327 0 0 -1 0 0 0 -1 forward_v I I I I #
coedge $-1 $263 $183 $186 $264 forward $103 $-1 #
coedge $-1 $189 $105 $106 $177 reversed $63 $-1 #
coedge $-1 $183 $263 $105 $175 reversed $103 $-1 #
edge $-1 $190 -15.032880942947989 $265 15.032880942947989 $174 $266 forward 7 unknown #
coedge $-1 $107 $106 $263 $267 forward $41 $-1 #
edge $-1 $181 -55.269020661030915 $265 55.269020661030915 $173 $268 forward 7 unknown #
coedge $-1 $186 $185 $107 $179 reversed $170 $-1 #
edge $-1 $269 -55.269020661030915 $180 55.269020661030915 $178 $270 forward 7 unknown #
vertex $-1 $109 $271 #
vertex $-1 $192 $272 #
straight-curve $-1 55.269020661030915 0 -15.032880942947989 0 -1 0 I I #
coedge $-1 $172 $174 $110 $184 reversed $103 $-1 #
edge $-1 $187 -36.476507864839327 $190 36.476507864839327 $183 $273 forward 7 unknown #
coedge $-1 $178 $111 $116 $193 forward $170 $-1 #
coedge $-1 $111 $178 $172 $264 reversed $170 $-1 #
vertex $-1 $112 $274 #
straight-curve $-1 0 36.476507864839327 15.032880942947989 -1 0 0 I I #
coedge $-1 $113 $173 $115 $192 reversed $63 $-1 #
vertex $-1 $184 $275 #
straight-curve $-1 0 -36.476507864839327 15.032880942947989 1 0 0 I I #
edge $-1 $118 -15.032880942947989 $181 15.032880942947989 $115 $276 forward 7 unknown #
edge $-1 $119 -15.032880942947989 $180 15.032880942947989 $116 $277 forward 7 unknown #
point $-1 55.269020661030915 -36.476507864839327 15.032880942947989 #
point $-1 55.269020661030915 36.476507864839327 15.032880942947989 #
face $-1 $278 $212 $16 $-1 $279 reversed single #
loop $-1 $-1 $280 $121 #
plane-surface $-1 0 0 -15.032880942947989 0 0 1 1 0 0 forward_v I I I I #
coedge $-1 $281 $124 $203 $282 forward $71 $-1 #
coedge $-1 $124 $281 $283 $284 forward $71 $-1 #
edge $-1 $285 -55.269020661030915 $204 55.269020661030915 $124 $286 forward 7 unknown #
coedge $-1 $126 $125 $287 $288 reversed $45 $-1 #
coedge $-1 $127 $289 $199 $282 reversed $122 $-1 #
vertex $-1 $282 $290 #
straight-curve $-1 55.269020661030915 -23.463263990571008 5.4354322524376171 0 0 -1 I I #
coedge $-1 $287 $291 $129 $207 forward $292 $-1 #
edge $-1 $213 -21.491564900986745 $208 -8.4783210267184241 $206 $293 forward 7 unknown #
vertex $-1 $207 $294 #
straight-curve $-1 0 -23.463263990571008 6.7088480668024832 1 0 0 I I #
coedge $-1 $295 $131 $291 $296 forward $212 $-1 #
coedge $-1 $131 $295 $133 $216 reversed $212 $-1 #
loop $-1 $-1 $131 $196 #
vertex $-1 $296 $297 #
straight-curve $-1 0 -36.476507864839327 6.7088480668024832 -1 0 0 I I #
coedge $-1 $289 $133 $280 $298 reversed $122 $-1 #
edge $-1 $135 -6.7088480668024832 $299 15.032880942947989 $133 $300 forward 7 unknown #
point $-1 55.269020661030915 -23.463263990571008 6.7088480668024832 #
point $-1 55.269020661030915 -36.476507864839327 6.7088480668024832 #
face $-1 $301 $302 $17 $-1 $303 forward single #
loop $-1 $-1 $304 $137 #
plane-surface $-1 0 -29.969885927705167 6.7088480668024832 0 0 1 1 0 0 forward_v I I I I #
coedge $-1 $140 $305 $306 $307 reversed $79 $-1 #
coedge $-1 $142 $141 $230 $308 reversed $49 $-1 #
coedge $-1 $306 $309 $141 $225 forward $310 $-1 #
edge $-1 $311 41.560519551458597 $226 48.474564946373405 $224 $312 forward 7 unknown #
vertex $-1 $307 $313 #
straight-curve $-1 -19.621624008872939 36.476507864839334 11.166595773588149 1 0 0 I I #
vertex $-1 $308 $314 #
straight-curve $-1 -23.21747537446084 -24.004282848640756 51.961404986611356 0 -0.82903756765294845 0.55919291073839883 I I #
coedge $-1 $315 $145 $223 $308 forward $138 $-1 #
coedge $-1 $145 $316 $147 $234 forward $138 $-1 #
straight-curve $-1 -23.21747537446084 18.903903112782199 15.032880942947983 0 -1 0 I I #
coedge $-1 $305 $147 $317 $318 forward $79 $-1 #
edge $-1 $319 -55.269020661030915 $149 23.21747537446084 $147 $320 forward 7 unknown #
point $-1 -23.21747537446084 36.476507864839327 11.166595773588156 #
point $-1 -23.21747537446084 36.476507864839327 15.032880942947989 #
face $-1 $321 $322 $18 $-1 $323 forward single #
loop $-1 $-1 $324 $151 #
plane-surface $-1 0 36.476507864839327 0 0 -1 0 0 0 -1 forward_v I I I I #
loop $-1 $-1 $325 $86 #
coedge $-1 $242 $154 $326 $327 forward $87 $-1 #
coedge $-1 $154 $241 $328 $329 reversed $87 $-1 #
coedge $-1 $330 $324 $154 $244 forward $238 $-1 #
edge $-1 $331 -60.634201175099136 $332 -56.767916005739302 $243 $333 forward 7 unknown #
edge $-1 $334 1 $334 0 $155 $-1 forward 7 unknown #
vertex $-1 $156 $335 #
ellipse-curve $-1 -46.111436293439468 32.467511566303891 11.405179194135734 0 0.55919291073839883 0.82903756765294845 1 0 0 1 I I #
point $-1 -45.111436293439468 33.610506176418177 13.099738358268056 #
face $-1 $336 $166 $19 $-1 $337 forward single #
loop $-1 $-1 $338 $159 #
plane-surface $-1 -23.21747537446084 37.807806225564399 143.60159389737458 -1 0 0 0 0.55919291073839883 0.82903756765294845 forward_v I I I I #
loop $-1 $-1 $339 $94 #
coedge $-1 $253 $253 $254 $340 forward $160 $-1 #
coedge $-1 $254 $254 $253 $340 reversed $162 $-1 #
coedge $-1 $255 $255 $163 $256 forward $260 $-1 #
edge $-1 $341 3.7654325195607146e-015 $341 6.283185307179604 $255 $342 forward 7 unknown #
edge $-1 $343 1 $343 0 $164 $-1 forward 7 unknown #
vertex $-1 $165 $344 #
ellipse-curve $-1 -32.375059742052287 32.467511566303891 11.405179194135734 0 0.55919291073839883 0.82903756765294845 1 0 0 1 I I #
loop $-1 $345 $255 $249 #
point $-1 -31.375059742052287 33.610506176418177 13.099738358268056 #
plane-surface $-1 55.269020661030915 0 0 -1 0 0 0 0 1 forward_v I I I I #
coedge $-1 $174 $172 $176 $267 reversed $103 $-1 #
edge $-1 $187 -15.032880942947989 $269 15.032880942947989 $186 $346 forward 7 unknown #
vertex $-1 $267 $347 #
straight-curve $-1 -55.269020661030915 -36.476507864839327 0 0 0 -1 I I #
edge $-1 $265 -36.476507864839327 $269 36.476507864839327 $263 $348 forward 7 unknown #
straight-curve $-1 0 -36.476507864839327 -15.032880942947989 -1 0 0 I I #
vertex $-1 $179 $349 #
straight-curve $-1 0 36.476507864839327 -15.032880942947989 1 0 0 I I #
point $-1 55.269020661030915 36.476507864839327 -15.032880942947989 #
point $-1 55.269020661030915 -36.476507864839327 -15.032880942947989 #
straight-curve $-1 -55.269020661030915 0 15.032880942947989 0 -1 0 I I #
point $-1 -55.269020661030915 36.476507864839327 15.032880942947989 #
point $-1 -55.269020661030915 -36.476507864839327 15.032880942947989 #
straight-curve $-1 55.269020661030915 -36.476507864839327 0 0 0 -1 I I #
straight-curve $-1 55.269020661030915 36.476507864839327 0 0 0 -1 I I #
face $-1 $350 $292 $16 $-1 $351 reversed single #
plane-surface $-1 0 -36.476507864839327 0 0 1 0 0 0 1 forward_v I I I I #
coedge $-1 $352 $353 $215 $298 forward $197 $-1 #
coedge $-1 $200 $199 $354 $355 forward $71 $-1 #
edge $-1 $204 -23.463263990571008 $356 36.476507864839327 $203 $357 forward 7 unknown #
coedge $-1 $358 $287 $200 $284 reversed $292 $-1 #
edge $-1 $359 -36.476507864839327 $285 23.463263990571008 $283 $360 forward 7 unknown #
vertex $-1 $288 $361 #
straight-curve $-1 0 -23.463263990571008 15.032880942947989 1 0 0 I I #
coedge $-1 $283 $206 $202 $288 forward $292 $-1 #
edge $-1 $208 1.2734158143648662 $285 9.5974486905103689 $287 $362 forward 7 unknown #
coedge $-1 $203 $215 $363 $364 reversed $122 $-1 #
point $-1 55.269020661030915 -23.463263990571008 15.032880942947985 #
coedge $-1 $206 $365 $210 $296 reversed $292 $-1 #
loop $-1 $-1 $287 $278 #
straight-curve $-1 -55.269020661030915 -14.984942963852584 6.7088480668024832 0 1 0 I I #
point $-1 -55.269020661030915 -23.463263990571008 6.7088480668024832 #
coedge $-1 $211 $210 $352 $366 reversed $212 $-1 #
edge $-1 $213 -6.7088480668024832 $367 15.032880942947989 $291 $368 forward 7 unknown #
point $-1 -55.269020661030915 -36.476507864839327 6.7088480668024832 #
edge $-1 $369 -36.476507864839327 $299 36.476507864839327 $215 $370 forward 7 unknown #
vertex $-1 $216 $371 #
straight-curve $-1 55.269020661030915 -36.476507864839327 0 0 0 -1 I I #
face $-1 $372 $373 $17 $-1 $374 reversed single #
loop $-1 $-1 $375 $219 #
plane-surface $-1 0 -23.463263990571008 10.870864504875234 0 -1 0 0 0 -1 forward_v I I I I #
coedge $-1 $376 $377 $378 $379 reversed $220 $-1 #
coedge $-1 $222 $233 $380 $381 reversed $79 $-1 #
coedge $-1 $382 $224 $222 $307 forward $310 $-1 #
edge $-1 $226 -11.166595773588154 $383 15.032880942947989 $222 $384 forward 7 unknown #
edge $-1 $228 3.595851365587901 $311 35.64739665215798 $230 $385 forward 7 unknown #
coedge $-1 $224 $386 $315 $387 reversed $310 $-1 #
loop $-1 $-1 $224 $388 #
vertex $-1 $387 $389 #
straight-curve $-1 -55.269020661030915 -3.7107275513369693 38.273228842728258 0 0.82903756765294845 -0.55919291073839883 I I #
point $-1 -55.269020661030915 36.476507864839327 11.166595773588154 #
point $-1 -23.21747537446084 30.744504487997084 15.03288094294799 #
coedge $-1 $390 $230 $309 $387 forward $138 $-1 #
coedge $-1 $231 $390 $391 $392 forward $138 $-1 #
coedge $-1 $391 $393 $233 $318 reversed $373 $-1 #
edge $-1 $319 -15.032880942947989 $394 15.032880942947989 $317 $395 forward 7 unknown #
vertex $-1 $392 $396 #
straight-curve $-1 0 36.476507864839327 15.032880942947989 -1 0 0 I I #
face $-1 $397 $398 $18 $-1 $399 forward single #
loop $-1 $-1 $328 $237 #
plane-surface $-1 0 0 15.032880942947989 0 0 1 1 0 0 forward_v I I I I #
coedge $-1 $243 $400 $325 $401 forward $238 $-1 #
coedge $-1 $402 $326 $324 $401 reversed $240 $-1 #
coedge $-1 $325 $403 $241 $327 reversed $240 $-1 #
edge $-1 $331 -72.953015729678654 $404 -66.038970334763846 $241 $405 forward 7 unknown #
coedge $-1 $406 $407 $242 $329 forward $322 $-1 #
edge $-1 $332 -17.572604752057128 $404 -11.840601375214884 $328 $408 forward 7 unknown #
coedge $-1 $409 $243 $407 $410 reversed $238 $-1 #
vertex $-1 $401 $411 #
vertex $-1 $329 $412 #
straight-curve $-1 -23.21747537446084 36.476507864839327 71.800796948687292 0 0 1 I I #
vertex $-1 $245 $413 #
point $-1 -45.111436293439468 32.467511566303891 11.405179194135734 #
face $-1 $414 $415 $19 $-1 $416 reversed single #
plane-surface $-1 -39.243248017745877 -24.004282848640756 51.961404986611356 0 0.55919291073839883 0.82903756765294845 1 0 0 forward_v I I I I #
coedge $-1 $417 $418 $419 $420 reversed $250 $-1 #
coedge $-1 $339 $339 $-1 $421 forward $252 $-1 #
edge $-1 $422 0 $422 6.2831853071796004 $253 $423 forward 7 unknown #
vertex $-1 $256 $424 #
ellipse-curve $-1 -46.111436293439468 33.610506176418198 13.09973835826808 0 -0.55919291073839883 -0.82903756765294845 1 0 0 1 I I #
vertex $-1 $257 $425 #
point $-1 -31.375059742052287 32.467511566303891 11.405179194135734 #
loop $-1 $-1 $426 $249 #
straight-curve $-1 -55.269020661030915 36.476507864839327 0 0 0 -1 I I #
point $-1 -55.269020661030915 -36.476507864839327 -15.032880942947989 #
straight-curve $-1 -55.269020661030915 0 -15.032880942947989 0 1 0 I I #
point $-1 -55.269020661030915 36.476507864839327 -15.032880942947989 #
face $-1 $-1 $427 $16 $-1 $428 reversed single #
plane-surface $-1 -55.269020661030915 0 0 1 0 0 0 0 -1 forward_v I I I I #
coedge $-1 $429 $280 $295 $366 forward $197 $-1 #
coedge $-1 $280 $429 $430 $431 forward $197 $-1 #
coedge $-1 $363 $432 $281 $355 reversed $427 $-1 #
edge $-1 $356 -55.269020661030915 $359 55.269020661030915 $354 $433 forward 7 unknown #
vertex $-1 $282 $434 #
straight-curve $-1 55.269020661030915 0 15.032880942947989 0 1 0 I I #
coedge $-1 $365 $283 $432 $435 forward $292 $-1 #
vertex $-1 $355 $436 #
straight-curve $-1 -55.269020661030915 0 15.032880942947989 0 -1 0 I I #
point $-1 -55.269020661030915 -23.463263990571008 15.032880942947985 #
straight-curve $-1 -55.269020661030915 -23.463263990571008 5.4354322524376171 0 0 1 I I #
coedge $-1 $430 $354 $289 $364 forward $427 $-1 #
edge $-1 $356 -15.032880942947989 $369 15.032880942947989 $289 $437 forward 7 unknown #
coedge $-1 $291 $358 $429 $438 reversed $292 $-1 #
edge $-1 $299 -55.269020661030915 $367 55.269020661030915 $295 $439 forward 7 unknown #
vertex $-1 $438 $440 #
straight-curve $-1 -55.269020661030915 -36.476507864839327 0 0 0 -1 I I #
vertex $-1 $298 $441 #
straight-curve $-1 55.269020661030915 0 -15.032880942947989 0 -1 0 I I #
point $-1 55.269020661030915 -36.476507864839327 -15.032880942947989 #
face $-1 $442 $443 $17 $-1 $444 reversed single #
loop $-1 $-1 $445 $301 #
plane-surface $-1 55.269020661030915 0 0 -1 0 0 0 0 1 forward_v I I I I #
coedge $-1 $446 $447 $445 $448 reversed $302 $-1 #
coedge $-1 $449 $304 $447 $450 reversed $220 $-1 #
coedge $-1 $304 $449 $451 $452 reversed $220 $-1 #
coedge $-1 $453 $445 $304 $379 forward $373 $-1 #
edge $-1 $454 8.4783210267184241 $455 21.491564900986745 $378 $456 forward 7 unknown #
coedge $-1 $457 $458 $305 $381 forward $443 $-1 #
edge $-1 $383 -55.269020661030915 $394 55.269020661030915 $305 $459 forward 7 unknown #
coedge $-1 $460 $306 $458 $461 reversed $310 $-1 #
vertex $-1 $381 $462 #
straight-curve $-1 -55.269020661030915 36.476507864839327 0 0 0 -1 I I #
straight-curve $-1 -19.621624008872939 30.744504487997069 15.03288094294799 -1 0 0 I I #
coedge $-1 $309 $463 $464 $465 forward $310 $-1 #
edge $-1 $311 -30.744504487997084 $466 23.463263990571008 $309 $467 forward 7 unknown #
face $-1 $-1 $310 $17 $-1 $468 reversed single #
point $-1 -55.269020661030915 30.744504487997084 15.03288094294799 #
coedge $-1 $316 $315 $446 $469 forward $138 $-1 #
coedge $-1 $445 $317 $316 $392 reversed $373 $-1 #
edge $-1 $470 -23.463263990571008 $319 36.476507864839327 $391 $471 forward 7 unknown #
coedge $-1 $317 $453 $457 $472 reversed $373 $-1 #
vertex $-1 $472 $473 #
straight-curve $-1 55.269020661030915 36.476507864839327 0 0 0 -1 I I #
point $-1 55.269020661030915 36.476507864839327 15.032880942947989 #
face $-1 $474 $475 $18 $-1 $476 forward single #
loop $-1 $-1 $477 $321 #
plane-surface $-1 0 -29.969885927705167 6.7088480668024832 0 0 1 1 0 0 forward_v I I I I #
coedge $-1 $324 $478 $479 $480 reversed $238 $-1 #
edge $-1 $481 -35.64739665215798 $331 -3.595851365587901 $324 $482 forward 7 unknown #
coedge $-1 $403 $325 $483 $484 reversed $240 $-1 #
coedge $-1 $326 $402 $406 $485 reversed $240 $-1 #
vertex $-1 $485 $486 #
straight-curve $-1 -23.21747537446084 -24.004282848640756 51.961404986611356 0 -0.82903756765294845 0.55919291073839883 I I #
coedge $-1 $487 $328 $403 $485 forward $322 $-1 #
coedge $-1 $328 $488 $330 $410 forward $322 $-1 #
straight-curve $-1 -23.21747537446084 18.903903112782199 15.032880942947983 0 -1 0 I I #
coedge $-1 $478 $330 $489 $490 forward $238 $-1 #
edge $-1 $491 -55.269020661030915 $332 23.21747537446084 $330 $492 forward 7 unknown #
point $-1 -23.21747537446084 36.476507864839327 11.166595773588156 #
point $-1 -23.21747537446084 36.476507864839327 15.032880942947989 #
point $-1 -46.111436293439468 31.908318655565491 10.576141626482784 #
face $-1 $493 $494 $19 $-1 $495 forward single #
loop $-1 $-1 $496 $336 #
plane-surface $-1 0 36.476507864839327 0 0 -1 0 0 0 -1 forward_v I I I I #
coedge $-1 $418 $338 $497 $498 forward $250 $-1 #
coedge $-1 $338 $417 $499 $500 reversed $250 $-1 #
coedge $-1 $501 $496 $338 $420 forward $415 $-1 #
edge $-1 $502 -60.634201175099136 $503 -56.767916005739302 $419 $504 forward 7 unknown #
edge $-1 $505 1 $505 0 $339 $-1 forward 7 unknown #
vertex $-1 $340 $506 #
ellipse-curve $-1 -46.111436293439468 32.467511566303891 11.405179194135734 0 0.55919291073839883 0.82903756765294845 1 0 0 1 I I #
point $-1 -45.111436293439468 33.610506176418177 13.099738358268056 #
point $-1 -32.375059742052287 31.908318655565491 10.576141626482784 #
coedge $-1 $507 $497 $496 $508 reversed $345 $-1 #
loop $-1 $-1 $363 $350 #
plane-surface $-1 0 36.476507864839327 0 0 -1 0 0 0 -1 forward_v I I I I #
coedge $-1 $353 $352 $365 $438 forward $197 $-1 #
coedge $-1 $432 $363 $353 $431 reversed $427 $-1 #
edge $-1 $509 -55.269020661030915 $369 55.269020661030915 $430 $510 forward 7 unknown #
coedge $-1 $354 $430 $358 $435 reversed $427 $-1 #
straight-curve $-1 0 36.476507864839327 15.032880942947989 -1 0 0 I I #
point $-1 55.269020661030915 36.476507864839327 15.032880942947989 #
edge $-1 $359 -15.032880942947989 $509 15.032880942947989 $432 $511 forward 7 unknown #
point $-1 -55.269020661030915 36.476507864839327 15.032880942947989 #
straight-curve $-1 55.269020661030915 36.476507864839327 0 0 0 -1 I I #
edge $-1 $367 -36.476507864839327 $509 36.476507864839327 $365 $512 forward 7 unknown #
straight-curve $-1 0 -36.476507864839327 -15.032880942947989 -1 0 0 I I #
point $-1 -55.269020661030915 -36.476507864839327 -15.032880942947989 #
point $-1 55.269020661030915 36.476507864839327 -15.032880942947989 #
face $-1 $388 $513 $17 $-1 $514 reversed single #
loop $-1 $-1 $457 $372 #
plane-surface $-1 0 0 -15.032880942947989 0 0 1 1 0 0 forward_v I I I I #
coedge $-1 $378 $391 $375 $448 forward $373 $-1 #
coedge $-1 $464 $375 $390 $469 reversed $302 $-1 #
coedge $-1 $375 $464 $376 $450 forward $302 $-1 #
edge $-1 $470 -9.5974486905103689 $454 -1.2734158143648662 $445 $515 forward 7 unknown #
coedge $-1 $377 $376 $463 $516 reversed $220 $-1 #
edge $-1 $517 -55.269020661030915 $454 55.269020661030915 $447 $518 forward 7 unknown #
coedge $-1 $519 $520 $377 $452 forward $513 $-1 #
edge $-1 $455 -55.269020661030915 $521 55.269020661030915 $451 $522 forward 7 unknown #
coedge $-1 $393 $378 $520 $523 forward $373 $-1 #
vertex $-1 $379 $524 #
vertex $-1 $523 $525 #
straight-curve $-1 55.269020661030915 -14.984942963852584 6.7088480668024832 0 -1 0 I I #
coedge $-1 $526 $380 $393 $472 forward $443 $-1 #
coedge $-1 $380 $526 $382 $461 forward $443 $-1 #
straight-curve $-1 0 36.476507864839327 -15.032880942947989 1 0 0 I I #
coedge $-1 $463 $382 $519 $527 reversed $310 $-1 #
edge $-1 $528 -36.476507864839327 $383 36.476507864839327 $382 $529 forward 7 unknown #
point $-1 -55.269020661030915 36.476507864839327 -15.032880942947989 #
coedge $-1 $386 $460 $449 $516 forward $310 $-1 #
coedge $-1 $447 $446 $386 $465 reversed $302 $-1 #
edge $-1 $517 1.2734158143648662 $466 9.5974486905103689 $386 $530 forward 7 unknown #
vertex $-1 $465 $531 #
straight-curve $-1 -55.269020661030915 0 15.032880942947989 0 -1 0 I I #
plane-surface $-1 -55.269020661030915 0 0 1 0 0 0 0 -1 forward_v I I I I #
edge $-1 $466 -55.269020661030915 $470 55.269020661030915 $390 $532 forward 7 unknown #
vertex $-1 $392 $533 #
straight-curve $-1 55.269020661030915 0 15.032880942947989 0 1 0 I I #
edge $-1 $394 -36.476507864839327 $534 36.476507864839327 $393 $535 forward 7 unknown #
point $-1 55.269020661030915 36.476507864839327 -15.032880942947989 #
face $-1 $536 $537 $18 $-1 $538 reversed single #
loop $-1 $-1 $539 $397 #
plane-surface $-1 0 -23.463263990571008 10.870864504875234 0 -1 0 0 0 -1 forward_v I I I I #
coedge $-1 $540 $541 $542 $543 reversed $398 $-1 #
coedge $-1 $400 $409 $544 $545 reversed $238 $-1 #
coedge $-1 $546 $483 $400 $480 forward $547 $-1 #
edge $-1 $481 -11.166595773588154 $548 15.032880942947989 $400 $549 forward 7 unknown #
vertex $-1 $480 $550 #
straight-curve $-1 -19.621624008872939 36.476507864839334 11.166595773588149 1 0 0 I I #
coedge $-1 $479 $551 $402 $484 forward $547 $-1 #
edge $-1 $552 41.560519551458597 $481 48.474564946373405 $483 $553 forward 7 unknown #
edge $-1 $404 3.595851365587901 $552 35.64739665215798 $406 $554 forward 7 unknown #
point $-1 -23.21747537446084 30.744504487997084 15.03288094294799 #
coedge $-1 $555 $406 $551 $556 forward $322 $-1 #
coedge $-1 $407 $555 $557 $558 forward $322 $-1 #
coedge $-1 $557 $559 $409 $490 reversed $537 $-1 #
edge $-1 $491 -15.032880942947989 $560 15.032880942947989 $489 $561 forward 7 unknown #
vertex $-1 $558 $562 #
straight-curve $-1 0 36.476507864839327 15.032880942947989 -1 0 0 I I #
face $-1 $563 $564 $19 $-1 $565 forward single #
loop $-1 $-1 $499 $414 #
plane-surface $-1 0 0 15.032880942947989 0 0 1 1 0 0 forward_v I I I I #
coedge $-1 $419 $566 $426 $508 forward $415 $-1 #
coedge $-1 $426 $567 $417 $498 reversed $345 $-1 #
edge $-1 $502 -72.953015729678654 $568 -66.038970334763846 $417 $569 forward 7 unknown #
coedge $-1 $570 $571 $418 $500 forward $494 $-1 #
edge $-1 $503 -17.572604752057128 $568 -11.840601375214884 $499 $572 forward 7 unknown #
coedge $-1 $573 $419 $571 $574 reversed $415 $-1 #
vertex $-1 $508 $575 #
vertex $-1 $500 $576 #
straight-curve $-1 -23.21747537446084 36.476507864839327 71.800796948687292 0 0 1 I I #
vertex $-1 $421 $577 #
point $-1 -45.111436293439468 32.467511566303891 11.405179194135734 #
coedge $-1 $567 $426 $578 $579 reversed $345 $-1 #
edge $-1 $580 -35.64739665215798 $502 -3.595851365587901 $496 $581 forward 7 unknown #
vertex $-1 $431 $582 #
straight-curve $-1 0 36.476507864839327 -15.032880942947989 1 0 0 I I #
straight-curve $-1 -55.269020661030915 36.476507864839327 0 0 0 -1 I I #
straight-curve $-1 -55.269020661030915 0 -15.032880942947989 0 1 0 I I #
loop $-1 $-1 $451 $442 #
plane-surface $-1 0 -36.476507864839327 0 0 1 0 0 0 1 forward_v I I I I #
straight-curve $-1 55.269020661030915 -23.463263990571008 5.4354322524376171 0 0 -1 I I #
edge $-1 $521 -21.491564900986745 $517 -8.4783210267184241 $463 $583 forward 7 unknown #
vertex $-1 $516 $584 #
straight-curve $-1 0 -23.463263990571008 6.7088480668024832 1 0 0 I I #
coedge $-1 $585 $451 $460 $527 forward $513 $-1 #
coedge $-1 $451 $585 $453 $523 reversed $513 $-1 #
vertex $-1 $527 $586 #
straight-curve $-1 0 -36.476507864839327 6.7088480668024832 -1 0 0 I I #
edge $-1 $455 -6.7088480668024832 $534 15.032880942947989 $453 $587 forward 7 unknown #
point $-1 55.269020661030915 -23.463263990571008 6.7088480668024832 #
point $-1 55.269020661030915 -36.476507864839327 6.7088480668024832 #
coedge $-1 $458 $457 $585 $588 forward $443 $-1 #
edge $-1 $521 -6.7088480668024832 $528 15.032880942947989 $460 $589 forward 7 unknown #
vertex $-1 $461 $590 #
straight-curve $-1 -55.269020661030915 0 -15.032880942947989 0 1 0 I I #
straight-curve $-1 -55.269020661030915 -23.463263990571008 5.4354322524376171 0 0 1 I I #
point $-1 -55.269020661030915 -23.463263990571008 15.032880942947985 #
straight-curve $-1 0 -23.463263990571008 15.032880942947989 1 0 0 I I #
point $-1 55.269020661030915 -23.463263990571008 15.032880942947985 #
vertex $-1 $523 $591 #
straight-curve $-1 55.269020661030915 0 -15.032880942947989 0 -1 0 I I #
face $-1 $592 $593 $18 $-1 $594 reversed single #
loop $-1 $-1 $595 $474 #
plane-surface $-1 55.269020661030915 0 0 -1 0 0 0 0 1 forward_v I I I I #
coedge $-1 $596 $597 $595 $598 reversed $475 $-1 #
coedge $-1 $599 $477 $597 $600 reversed $398 $-1 #
coedge $-1 $477 $599 $601 $602 reversed $398 $-1 #
coedge $-1 $603 $595 $477 $543 forward $537 $-1 #
edge $-1 $604 8.4783210267184241 $605 21.491564900986745 $542 $606 forward 7 unknown #
coedge $-1 $607 $608 $478 $545 forward $593 $-1 #
edge $-1 $548 -55.269020661030915 $560 55.269020661030915 $478 $609 forward 7 unknown #
coedge $-1 $610 $479 $608 $611 reversed $547 $-1 #
loop $-1 $-1 $483 $612 #
vertex $-1 $545 $613 #
straight-curve $-1 -55.269020661030915 36.476507864839327 0 0 0 -1 I I #
point $-1 -55.269020661030915 36.476507864839327 11.166595773588154 #
coedge $-1 $483 $614 $487 $556 reversed $547 $-1 #
vertex $-1 $556 $615 #
straight-curve $-1 -55.269020661030915 -3.7107275513369693 38.273228842728258 0 0.82903756765294845 -0.55919291073839883 I I #
straight-curve $-1 -19.621624008872939 30.744504487997069 15.03288094294799 -1 0 0 I I #
coedge $-1 $488 $487 $596 $616 forward $322 $-1 #
edge $-1 $552 -30.744504487997084 $617 23.463263990571008 $551 $618 forward 7 unknown #
coedge $-1 $595 $489 $488 $558 reversed $537 $-1 #
edge $-1 $619 -23.463263990571008 $491 36.476507864839327 $557 $620 forward 7 unknown #
coedge $-1 $489 $603 $607 $621 reversed $537 $-1 #
vertex $-1 $621 $622 #
straight-curve $-1 55.269020661030915 36.476507864839327 0 0 0 -1 I I #
point $-1 55.269020661030915 36.476507864839327 15.032880942947989 #
face $-1 $623 $624 $19 $-1 $625 forward single #
loop $-1 $-1 $626 $493 #
plane-surface $-1 0 -29.969885927705167 6.7088480668024832 0 0 1 1 0 0 forward_v I I I I #
coedge $-1 $496 $627 $628 $629 reversed $415 $-1 #
coedge $-1 $497 $507 $570 $630 reversed $345 $-1 #
vertex $-1 $630 $631 #
straight-curve $-1 -23.21747537446084 -24.004282848640756 51.961404986611356 0 -0.82903756765294845 0.55919291073839883 I I #
coedge $-1 $632 $499 $567 $630 forward $494 $-1 #
coedge $-1 $499 $633 $501 $574 forward $494 $-1 #
straight-curve $-1 -23.21747537446084 18.903903112782199 15.032880942947983 0 -1 0 I I #
coedge $-1 $627 $501 $634 $635 forward $415 $-1 #
edge $-1 $636 -55.269020661030915 $503 23.21747537446084 $501 $637 forward 7 unknown #
point $-1 -23.21747537446084 36.476507864839327 11.166595773588156 #
point $-1 -23.21747537446084 36.476507864839327 15.032880942947989 #
point $-1 -46.111436293439468 31.908318655565491 10.576141626482784 #
coedge $-1 $628 $638 $507 $579 forward $639 $-1 #
edge $-1 $640 41.560519551458597 $580 48.474564946373405 $578 $641 forward 7 unknown #
vertex $-1 $629 $642 #
straight-curve $-1 -19.621624008872939 36.476507864839334 11.166595773588149 1 0 0 I I #
point $-1 -55.269020661030915 36.476507864839327 -15.032880942947989 #
straight-curve $-1 -55.269020661030915 -14.984942963852584 6.7088480668024832 0 1 0 I I #
point $-1 -55.269020661030915 -23.463263990571008 6.7088480668024832 #
coedge $-1 $520 $519 $526 $588 reversed $513 $-1 #
point $-1 -55.269020661030915 -36.476507864839327 6.7088480668024832 #
straight-curve $-1 55.269020661030915 -36.476507864839327 0 0 0 -1 I I #
edge $-1 $534 -55.269020661030915 $528 55.269020661030915 $585 $643 forward 7 unknown #
straight-curve $-1 -55.269020661030915 -36.476507864839327 0 0 0 -1 I I #
point $-1 -55.269020661030915 -36.476507864839327 -15.032880942947989 #
point $-1 55.269020661030915 -36.476507864839327 -15.032880942947989 #
face $-1 $612 $644 $18 $-1 $645 reversed single #
loop $-1 $-1 $607 $536 #
plane-surface $-1 0 0 -15.032880942947989 0 0 1 1 0 0 forward_v I I I I #
coedge $-1 $542 $557 $539 $598 forward $537 $-1 #
coedge $-1 $646 $539 $555 $616 reversed $475 $-1 #
coedge $-1 $539 $646 $540 $600 forward $475 $-1 #
edge $-1 $619 -9.5974486905103689 $604 -1.2734158143648662 $595 $647 forward 7 unknown #
coedge $-1 $541 $540 $648 $649 reversed $398 $-1 #
edge $-1 $650 -55.269020661030915 $604 55.269020661030915 $597 $651 forward 7 unknown #
coedge $-1 $652 $653 $541 $602 forward $644 $-1 #
edge $-1 $605 -55.269020661030915 $654 55.269020661030915 $601 $655 forward 7 unknown #
coedge $-1 $559 $542 $653 $656 forward $537 $-1 #
vertex $-1 $543 $657 #
vertex $-1 $656 $658 #
straight-curve $-1 55.269020661030915 -14.984942963852584 6.7088480668024832 0 -1 0 I I #
coedge $-1 $659 $544 $559 $621 forward $593 $-1 #
coedge $-1 $544 $659 $546 $611 forward $593 $-1 #
straight-curve $-1 0 36.476507864839327 -15.032880942947989 1 0 0 I I #
coedge $-1 $648 $546 $652 $660 reversed $547 $-1 #
edge $-1 $661 -36.476507864839327 $548 36.476507864839327 $546 $662 forward 7 unknown #
face $-1 $-1 $547 $18 $-1 $663 reversed single #
point $-1 -55.269020661030915 36.476507864839327 -15.032880942947989 #
coedge $-1 $551 $648 $646 $664 forward $547 $-1 #
point $-1 -55.269020661030915 30.744504487997084 15.03288094294799 #
edge $-1 $617 -55.269020661030915 $619 55.269020661030915 $555 $665 forward 7 unknown #
vertex $-1 $664 $666 #
straight-curve $-1 -55.269020661030915 0 15.032880942947989 0 -1 0 I I #
vertex $-1 $558 $667 #
straight-curve $-1 55.269020661030915 0 15.032880942947989 0 1 0 I I #
edge $-1 $560 -36.476507864839327 $668 36.476507864839327 $559 $669 forward 7 unknown #
point $-1 55.269020661030915 36.476507864839327 -15.032880942947989 #
face $-1 $670 $671 $19 $-1 $672 reversed single #
loop $-1 $-1 $673 $563 #
plane-surface $-1 0 -23.463263990571008 10.870864504875234 0 -1 0 0 0 -1 forward_v I I I I #
coedge $-1 $674 $675 $676 $677 reversed $564 $-1 #
coedge $-1 $566 $573 $678 $679 reversed $415 $-1 #
coedge $-1 $680 $578 $566 $629 forward $639 $-1 #
edge $-1 $580 -11.166595773588154 $681 15.032880942947989 $566 $682 forward 7 unknown #
edge $-1 $568 3.595851365587901 $640 35.64739665215798 $570 $683 forward 7 unknown #
point $-1 -23.21747537446084 30.744504487997084 15.03288094294799 #
coedge $-1 $684 $570 $638 $685 forward $494 $-1 #
coedge $-1 $571 $684 $686 $687 forward $494 $-1 #
coedge $-1 $686 $688 $573 $635 reversed $671 $-1 #
edge $-1 $636 -15.032880942947989 $689 15.032880942947989 $634 $690 forward 7 unknown #
vertex $-1 $687 $691 #
straight-curve $-1 0 36.476507864839327 15.032880942947989 -1 0 0 I I #
coedge $-1 $578 $692 $632 $685 reversed $639 $-1 #
loop $-1 $-1 $578 $693 #
vertex $-1 $685 $694 #
straight-curve $-1 -55.269020661030915 -3.7107275513369693 38.273228842728258 0 0.82903756765294845 -0.55919291073839883 I I #
point $-1 -55.269020661030915 36.476507864839327 11.166595773588154 #
straight-curve $-1 0 -36.476507864839327 -15.032880942947989 -1 0 0 I I #
loop $-1 $-1 $601 $592 #
plane-surface $-1 0 -36.476507864839327 0 0 1 0 0 0 1 forward_v I I I I #
coedge $-1 $597 $596 $614 $664 reversed $475 $-1 #
straight-curve $-1 55.269020661030915 -23.463263990571008 5.4354322524376171 0 0 -1 I I #
coedge $-1 $614 $610 $599 $649 forward $547 $-1 #
edge $-1 $654 -21.491564900986745 $650 -8.4783210267184241 $648 $695 forward 7 unknown #
vertex $-1 $649 $696 #
straight-curve $-1 0 -23.463263990571008 6.7088480668024832 1 0 0 I I #
coedge $-1 $697 $601 $610 $660 forward $644 $-1 #
coedge $-1 $601 $697 $603 $656 reversed $644 $-1 #
vertex $-1 $660 $698 #
straight-curve $-1 0 -36.476507864839327 6.7088480668024832 -1 0 0 I I #
edge $-1 $605 -6.7088480668024832 $668 15.032880942947989 $603 $699 forward 7 unknown #
point $-1 55.269020661030915 -23.463263990571008 6.7088480668024832 #
point $-1 55.269020661030915 -36.476507864839327 6.7088480668024832 #
coedge $-1 $608 $607 $697 $700 forward $593 $-1 #
edge $-1 $654 -6.7088480668024832 $661 15.032880942947989 $610 $701 forward 7 unknown #
vertex $-1 $611 $702 #
straight-curve $-1 -55.269020661030915 0 -15.032880942947989 0 1 0 I I #
plane-surface $-1 -55.269020661030915 0 0 1 0 0 0 0 -1 forward_v I I I I #
edge $-1 $650 1.2734158143648662 $617 9.5974486905103689 $614 $703 forward 7 unknown #
straight-curve $-1 0 -23.463263990571008 15.032880942947989 1 0 0 I I #
point $-1 -55.269020661030915 -23.463263990571008 15.032880942947985 #
point $-1 55.269020661030915 -23.463263990571008 15.032880942947985 #
vertex $-1 $656 $704 #
straight-curve $-1 55.269020661030915 0 -15.032880942947989 0 -1 0 I I #
face $-1 $705 $706 $19 $-1 $707 reversed single #
loop $-1 $-1 $708 $623 #
plane-surface $-1 55.269020661030915 0 0 -1 0 0 0 0 1 forward_v I I I I #
coedge $-1 $709 $710 $708 $711 reversed $624 $-1 #
coedge $-1 $712 $626 $710 $713 reversed $564 $-1 #
coedge $-1 $626 $712 $714 $715 reversed $564 $-1 #
coedge $-1 $716 $708 $626 $677 forward $671 $-1 #
edge $-1 $717 8.4783210267184241 $718 21.491564900986745 $676 $719 forward 7 unknown #
coedge $-1 $720 $721 $627 $679 forward $706 $-1 #
edge $-1 $681 -55.269020661030915 $689 55.269020661030915 $627 $722 forward 7 unknown #
coedge $-1 $723 $628 $721 $724 reversed $639 $-1 #
vertex $-1 $679 $725 #
straight-curve $-1 -55.269020661030915 36.476507864839327 0 0 0 -1 I I #
straight-curve $-1 -19.621624008872939 30.744504487997069 15.03288094294799 -1 0 0 I I #
coedge $-1 $633 $632 $709 $726 forward $494 $-1 #
edge $-1 $640 -30.744504487997084 $727 23.463263990571008 $638 $728 forward 7 unknown #
coedge $-1 $708 $634 $633 $687 reversed $671 $-1 #
edge $-1 $729 -23.463263990571008 $636 36.476507864839327 $686 $730 forward 7 unknown #
coedge $-1 $634 $716 $720 $731 reversed $671 $-1 #
vertex $-1 $731 $732 #
straight-curve $-1 55.269020661030915 36.476507864839327 0 0 0 -1 I I #
point $-1 55.269020661030915 36.476507864839327 15.032880942947989 #
coedge $-1 $638 $733 $734 $735 forward $639 $-1 #
face $-1 $-1 $639 $19 $-1 $736 reversed single #
point $-1 -55.269020661030915 30.744504487997084 15.03288094294799 #
straight-curve $-1 -55.269020661030915 -14.984942963852584 6.7088480668024832 0 1 0 I I #
point $-1 -55.269020661030915 -23.463263990571008 6.7088480668024832 #
coedge $-1 $653 $652 $659 $700 reversed $644 $-1 #
point $-1 -55.269020661030915 -36.476507864839327 6.7088480668024832 #
straight-curve $-1 55.269020661030915 -36.476507864839327 0 0 0 -1 I I #
edge $-1 $668 -55.269020661030915 $661 55.269020661030915 $697 $737 forward 7 unknown #
straight-curve $-1 -55.269020661030915 -36.476507864839327 0 0 0 -1 I I #
point $-1 -55.269020661030915 -36.476507864839327 -15.032880942947989 #
straight-curve $-1 -55.269020661030915 -23.463263990571008 5.4354322524376171 0 0 1 I I #
point $-1 55.269020661030915 -36.476507864839327 -15.032880942947989 #
face $-1 $693 $738 $19 $-1 $739 reversed single #
loop $-1 $-1 $720 $670 #
plane-surface $-1 0 0 -15.032880942947989 0 0 1 1 0 0 forward_v I I I I #
coedge $-1 $676 $686 $673 $711 forward $671 $-1 #
coedge $-1 $734 $673 $684 $726 reversed $624 $-1 #
coedge $-1 $673 $734 $674 $713 forward $624 $-1 #
edge $-1 $729 -9.5974486905103689 $717 -1.2734158143648662 $708 $740 forward 7 unknown #
coedge $-1 $675 $674 $733 $741 reversed $564 $-1 #
edge $-1 $742 -55.269020661030915 $717 55.269020661030915 $710 $743 forward 7 unknown #
coedge $-1 $744 $745 $675 $715 forward $738 $-1 #
edge $-1 $718 -55.269020661030915 $746 55.269020661030915 $714 $747 forward 7 unknown #
coedge $-1 $688 $676 $745 $748 forward $671 $-1 #
vertex $-1 $677 $749 #
vertex $-1 $748 $750 #
straight-curve $-1 55.269020661030915 -14.984942963852584 6.7088480668024832 0 -1 0 I I #
coedge $-1 $751 $678 $688 $731 forward $706 $-1 #
coedge $-1 $678 $751 $680 $724 forward $706 $-1 #
straight-curve $-1 0 36.476507864839327 -15.032880942947989 1 0 0 I I #
coedge $-1 $733 $680 $744 $752 reversed $639 $-1 #
edge $-1 $753 -36.476507864839327 $681 36.476507864839327 $680 $754 forward 7 unknown #
point $-1 -55.269020661030915 36.476507864839327 -15.032880942947989 #
edge $-1 $727 -55.269020661030915 $729 55.269020661030915 $684 $755 forward 7 unknown #
vertex $-1 $735 $756 #
straight-curve $-1 -55.269020661030915 0 15.032880942947989 0 -1 0 I I #
vertex $-1 $687 $757 #
straight-curve $-1 55.269020661030915 0 15.032880942947989 0 1 0 I I #
edge $-1 $689 -36.476507864839327 $758 36.476507864839327 $688 $759 forward 7 unknown #
point $-1 55.269020661030915 36.476507864839327 -15.032880942947989 #
coedge $-1 $692 $723 $712 $741 forward $639 $-1 #
coedge $-1 $710 $709 $692 $735 reversed $624 $-1 #
edge $-1 $742 1.2734158143648662 $727 9.5974486905103689 $692 $760 forward 7 unknown #
plane-surface $-1 -55.269020661030915 0 0 1 0 0 0 0 -1 forward_v I I I I #
straight-curve $-1 0 -36.476507864839327 -15.032880942947989 -1 0 0 I I #
loop $-1 $-1 $714 $705 #
plane-surface $-1 0 -36.476507864839327 0 0 1 0 0 0 1 forward_v I I I I #
straight-curve $-1 55.269020661030915 -23.463263990571008 5.4354322524376171 0 0 -1 I I #
edge $-1 $746 -21.491564900986745 $742 -8.4783210267184241 $733 $761 forward 7 unknown #
vertex $-1 $741 $762 #
straight-curve $-1 0 -23.463263990571008 6.7088480668024832 1 0 0 I I #
coedge $-1 $763 $714 $723 $752 forward $738 $-1 #
coedge $-1 $714 $763 $716 $748 reversed $738 $-1 #
vertex $-1 $752 $764 #
straight-curve $-1 0 -36.476507864839327 6.7088480668024832 -1 0 0 I I #
edge $-1 $718 -6.7088480668024832 $758 15.032880942947989 $716 $765 forward 7 unknown #
point $-1 55.269020661030915 -23.463263990571008 6.7088480668024832 #
point $-1 55.269020661030915 -36.476507864839327 6.7088480668024832 #
coedge $-1 $721 $720 $763 $766 forward $706 $-1 #
edge $-1 $746 -6.7088480668024832 $753 15.032880942947989 $723 $767 forward 7 unknown #
vertex $-1 $724 $768 #
straight-curve $-1 -55.269020661030915 0 -15.032880942947989 0 1 0 I I #
straight-curve $-1 0 -23.463263990571008 15.032880942947989 1 0 0 I I #
point $-1 -55.269020661030915 -23.463263990571008 15.032880942947985 #
point $-1 55.269020661030915 -23.463263990571008 15.032880942947985 #
vertex $-1 $748 $769 #
straight-curve $-1 55.269020661030915 0 -15.032880942947989 0 -1 0 I I #
straight-curve $-1 -55.269020661030915 -23.463263990571008 5.4354322524376171 0 0 1 I I #
straight-curve $-1 -55.269020661030915 -14.984942963852584 6.7088480668024832 0 1 0 I I #
point $-1 -55.269020661030915 -23.463263990571008 6.7088480668024832 #
coedge $-1 $745 $744 $751 $766 reversed $738 $-1 #
point $-1 -55.269020661030915 -36.476507864839327 6.7088480668024832 #
straight-curve $-1 55.269020661030915 -36.476507864839327 0 0 0 -1 I I #
edge $-1 $758 -55.269020661030915 $753 55.269020661030915 $763 $770 forward 7 unknown #
straight-curve $-1 -55.269020661030915 -36.476507864839327 0 0 0 -1 I I #
point $-1 -55.269020661030915 -36.476507864839327 -15.032880942947989 #
point $-1 55.269020661030915 -36.476507864839327 -15.032880942947989 #
straight-curve $-1 0 -36.476507864839327 -15.032880942947989 -1 0 0 I I #
End-of-ACIS-data 