500 0 6 0           
7 Unknown 11 ACIS 5.0 NT 24 Thu Mar 25 22:55:03 1999 
-1 9.9999999999999995e-007 1e-010 
body $-1 $6 $-1 $7 #
body $-1 $8 $-1 $9 #
body $-1 $10 $-1 $11 #
body $-1 $12 $-1 $13 #
body $-1 $14 $-1 $15 #
body $-1 $16 $-1 $17 #
lump $-1 $-1 $18 $0 #
transform $-1 1 0 0 0 1 0 0 0 1 79.092989898373361 50.901493669848563 22.541313334931623 1 rotate no_reflect no_shear #
lump $-1 $-1 $19 $1 #
transform $-1 1 0 0 0 1 0 0 0 1 79.092989898373361 50.901493669848563 22.541313334931623 1 rotate no_reflect no_shear #
lump $-1 $-1 $20 $2 #
transform $-1 1 0 0 0 1 0 0 0 1 79.092989898373361 50.901493669848563 22.541313334931623 1 rotate no_reflect no_shear #
lump $-1 $-1 $21 $3 #
transform $-1 1 0 0 0 1 0 0 0 1 79.092989898373361 50.901493669848563 22.541313334931623 1 rotate no_reflect no_shear #
lump $-1 $-1 $22 $4 #
transform $-1 1 0 0 0 1 0 0 0 1 79.092989898373361 50.901493669848563 22.541313334931623 1 rotate no_reflect no_shear #
lump $-1 $-1 $23 $5 #
transform $-1 1 0 0 0 1 0 0 0 1 79.092989898373361 50.901493669848563 22.541313334931623 1 rotate no_reflect no_shear #
shell $-1 $-1 $-1 $24 $-1 $6 #
shell $-1 $-1 $-1 $25 $-1 $8 #
shell $-1 $-1 $-1 $26 $-1 $10 #
shell $-1 $-1 $-1 $27 $-1 $12 #
shell $-1 $-1 $-1 $28 $-1 $14 #
shell $-1 $-1 $-1 $29 $-1 $16 #
face $-1 $30 $31 $18 $-1 $32 forward single #
face $-1 $33 $34 $19 $-1 $35 reversed single #
face $-1 $36 $37 $20 $-1 $38 reversed single #
face $-1 $39 $40 $21 $-1 $41 forward single #
face $-1 $42 $43 $22 $-1 $44 forward single #
face $-1 $45 $46 $23 $-1 $47 forward single #
face $-1 $48 $49 $18 $-1 $50 reversed single #
loop $-1 $-1 $51 $24 #
plane-surface $-1 0 0 22.541313334931623 0 0 1 1 0 0 forward_v I I I I #
face $-1 $52 $53 $19 $-1 $54 reversed single #
loop $-1 $-1 $55 $25 #
plane-surface $-1 -67.756491710497187 0 17.531414092005111 0 0 1 1 0 0 forward_v I I I I #
face $-1 $56 $57 $20 $-1 $58 reversed single #
loop $-1 $-1 $59 $26 #
plane-surface $-1 -18.978674732213335 -178.8766408918265 100.01299275460923 -1 0 0 0 -0.80901700255871778 0.5877852410284794 forward_v I I I I #
face $-1 $60 $61 $21 $-1 $62 forward single #
loop $-1 $63 $64 $27 #
cone-surface $-1 -48.931729764539483 -44.505847244148249 14.233731591120836 0 0.80901700255871778 -0.5877852410284794 1.5 0 0 1 I I 0 1 1.5 forward I I I I #
face $-1 $65 $66 $22 $-1 $67 forward single #
loop $-1 $68 $69 $28 #
cone-surface $-1 -37.699334127417181 -44.505847244148249 14.233731591120836 0 0.80901700255871778 -0.5877852410284794 1.5 0 0 1 I I 0 1 1.5 forward I I I I #
face $-1 $70 $71 $23 $-1 $72 forward single #
loop $-1 $73 $74 $29 #
cone-surface $-1 -26.466938490294879 -44.505847244148249 14.233731591120836 0 0.80901700255871778 -0.5877852410284794 1.5 0 0 1 I I 0 1 1.5 forward I I I I #
face $-1 $75 $76 $18 $-1 $77 reversed single #
loop $-1 $-1 $78 $30 #
plane-surface $-1 0 0 -22.541313334931623 0 0 1 1 0 0 forward_v I I I I #
coedge $-1 $79 $80 $81 $82 forward $31 $-1 #
face $-1 $83 $84 $19 $-1 $85 reversed single #
loop $-1 $-1 $86 $33 #
plane-surface $-1 -56.419993522621013 0 20.036363713468369 -1 0 0 0 0 1 forward_v I I I I #
coedge $-1 $87 $88 $89 $90 forward $34 $-1 #
face $-1 $91 $92 $20 $-1 $93 forward single #
loop $-1 $-1 $94 $36 #
plane-surface $-1 -37.699334127417174 -50.901493669848577 7.0336084924522879 0 -0.80901700255871778 0.5877852410284794 1 0 0 forward_v I I I I #
coedge $-1 $95 $96 $97 $98 reversed $37 $-1 #
face $-1 $-1 $99 $21 $-1 $100 forward single #
loop $-1 $101 $102 $39 #
cone-surface $-1 -48.931729764539483 -43.136941441492681 13.239163337778365 0 0.80901700255871778 -0.5877852410284794 0.75 0 0 1 I I -0.70710678118654757 0.70710678118654757 0.75 forward I I I I #
loop $-1 $-1 $103 $27 #
coedge $-1 $64 $64 $104 $105 reversed $40 $-1 #
face $-1 $-1 $106 $22 $-1 $107 forward single #
loop $-1 $108 $109 $42 #
cone-surface $-1 -37.699334127417181 -43.136941441492681 13.239163337778365 0 0.80901700255871778 -0.5877852410284794 0.75 0 0 1 I I -0.70710678118654757 0.70710678118654757 0.75 forward I I I I #
loop $-1 $-1 $110 $28 #
coedge $-1 $69 $69 $111 $112 reversed $43 $-1 #
face $-1 $-1 $113 $23 $-1 $114 forward single #
loop $-1 $115 $116 $45 #
cone-surface $-1 -26.466938490294879 -43.136941441492681 13.239163337778365 0 0.80901700255871778 -0.5877852410284794 0.75 0 0 1 I I -0.70710678118654757 0.70710678118654757 0.75 forward I I I I #
loop $-1 $-1 $117 $29 #
coedge $-1 $74 $74 $118 $119 reversed $46 $-1 #
face $-1 $120 $121 $18 $-1 $122 reversed single #
loop $-1 $-1 $123 $48 #
plane-surface $-1 0 -50.901493669848563 0 0 1 0 0 0 1 forward_v I I I I #
coedge $-1 $124 $125 $126 $127 forward $49 $-1 #
coedge $-1 $128 $51 $129 $130 forward $31 $-1 #
coedge $-1 $51 $128 $131 $132 forward $31 $-1 #
coedge $-1 $133 $134 $51 $82 reversed $135 $-1 #
edge $-1 $136 -50.901493669848563 $137 50.901493669848563 $81 $138 forward 7 unknown #
face $-1 $139 $140 $19 $-1 $141 reversed single #
loop $-1 $-1 $142 $52 #
plane-surface $-1 0 50.901493669848563 0 0 -1 0 0 0 -1 forward_v I I I I #
coedge $-1 $89 $143 $144 $145 reversed $53 $-1 #
coedge $-1 $146 $55 $147 $148 reversed $34 $-1 #
coedge $-1 $55 $146 $149 $150 reversed $34 $-1 #
coedge $-1 $151 $86 $55 $90 reversed $53 $-1 #
edge $-1 $152 -50.901493669848563 $153 50.901493669848563 $89 $154 forward 7 unknown #
face $-1 $155 $156 $20 $-1 $157 forward single #
loop $-1 $-1 $158 $56 #
plane-surface $-1 -56.419993522621013 0 20.036363713468369 -1 0 0 0 0 1 forward_v I I I I #
coedge $-1 $159 $160 $161 $162 reversed $57 $-1 #
coedge $-1 $96 $59 $163 $164 reversed $37 $-1 #
coedge $-1 $59 $95 $159 $165 reversed $37 $-1 #
coedge $-1 $161 $166 $59 $98 forward $156 $-1 #
edge $-1 $167 38.536826776064686 $168 49.803833525992232 $97 $169 forward 7 unknown #
loop $-1 $-1 $104 $60 #
plane-surface $-1 -37.699334127417174 -50.901493669848577 7.0336084924522879 0 -0.80901700255871778 0.5877852410284794 1 0 0 forward_v I I I I #
loop $-1 $-1 $170 $39 #
coedge $-1 $102 $102 $103 $171 reversed $61 $-1 #
coedge $-1 $103 $103 $102 $171 forward $63 $-1 #
coedge $-1 $104 $104 $64 $105 forward $99 $-1 #
edge $-1 $172 1.6464505307931291e-015 $172 6.2831853071796022 $104 $173 forward 7 unknown #
loop $-1 $-1 $111 $65 #
plane-surface $-1 -37.699334127417174 -50.901493669848577 7.0336084924522879 0 -0.80901700255871778 0.5877852410284794 1 0 0 forward_v I I I I #
loop $-1 $-1 $174 $42 #
coedge $-1 $109 $109 $110 $175 reversed $66 $-1 #
coedge $-1 $110 $110 $109 $175 forward $68 $-1 #
coedge $-1 $111 $111 $69 $112 forward $106 $-1 #
edge $-1 $176 1.6464505307931291e-015 $176 6.2831853071796022 $111 $177 forward 7 unknown #
loop $-1 $-1 $118 $70 #
plane-surface $-1 -37.699334127417174 -50.901493669848577 7.0336084924522879 0 -0.80901700255871778 0.5877852410284794 1 0 0 forward_v I I I I #
loop $-1 $-1 $178 $45 #
coedge $-1 $116 $116 $117 $179 reversed $71 $-1 #
coedge $-1 $117 $117 $116 $179 forward $73 $-1 #
coedge $-1 $118 $118 $74 $119 forward $113 $-1 #
edge $-1 $180 1.6464505307931291e-015 $180 6.2831853071796022 $118 $181 forward 7 unknown #
face $-1 $182 $183 $18 $-1 $184 reversed single #
loop $-1 $-1 $185 $75 #
plane-surface $-1 -79.092989898373361 0 0 1 0 0 0 0 -1 forward_v I I I I #
coedge $-1 $186 $131 $187 $188 forward $76 $-1 #
coedge $-1 $189 $78 $186 $190 forward $49 $-1 #
coedge $-1 $78 $189 $191 $192 forward $49 $-1 #
coedge $-1 $134 $133 $78 $127 reversed $135 $-1 #
edge $-1 $193 -50.901493669848563 $194 50.901493669848563 $126 $195 forward 7 unknown #
coedge $-1 $80 $79 $196 $197 forward $31 $-1 #
coedge $-1 $198 $199 $79 $130 reversed $183 $-1 #
edge $-1 $137 -79.092989898373361 $200 79.092989898373361 $129 $201 forward 7 unknown #
coedge $-1 $123 $202 $80 $132 reversed $76 $-1 #
edge $-1 $203 -79.092989898373361 $136 79.092989898373361 $131 $204 forward 7 unknown #
coedge $-1 $126 $81 $202 $205 forward $135 $-1 #
coedge $-1 $81 $126 $198 $206 reversed $135 $-1 #
loop $-1 $-1 $133 $182 #
vertex $-1 $82 $207 #
vertex $-1 $82 $208 #
straight-curve $-1 79.092989898373361 0 22.541313334931623 0 1 0 I I #
face $-1 $209 $210 $19 $-1 $211 forward single #
loop $-1 $-1 $212 $83 #
plane-surface $-1 -79.092989898373361 0 0 1 0 0 0 0 -1 forward_v I I I I #
coedge $-1 $149 $213 $151 $214 forward $84 $-1 #
coedge $-1 $86 $151 $215 $216 reversed $53 $-1 #
coedge $-1 $217 $147 $86 $145 forward $218 $-1 #
edge $-1 $153 7.5132322352709267 $219 12.523131478197442 $144 $220 forward 7 unknown #
coedge $-1 $88 $87 $212 $221 reversed $34 $-1 #
coedge $-1 $144 $222 $87 $148 forward $218 $-1 #
edge $-1 $223 -45.214744043124767 $153 -22.54174766737242 $147 $224 forward 7 unknown #
coedge $-1 $225 $142 $88 $150 forward $84 $-1 #
edge $-1 $152 22.54174766737242 $226 45.214744043124767 $149 $227 forward 7 unknown #
coedge $-1 $143 $89 $142 $214 reversed $53 $-1 #
vertex $-1 $150 $228 #
vertex $-1 $148 $229 #
straight-curve $-1 -56.419993522621013 0 17.531414092005111 0 -1 0 I I #
face $-1 $-1 $230 $20 $-1 $231 reversed single #
loop $-1 $-1 $161 $91 #
plane-surface $-1 0 0 22.541313334931623 0 0 1 1 0 0 forward_v I I I I #
coedge $-1 $232 $233 $160 $234 reversed $92 $-1 #
coedge $-1 $235 $94 $96 $165 forward $57 $-1 #
coedge $-1 $94 $235 $158 $234 forward $57 $-1 #
coedge $-1 $236 $97 $94 $162 forward $156 $-1 #
edge $-1 $168 0.1290076685047481 $237 37.570326458912426 $161 $238 forward 7 unknown #
coedge $-1 $239 $240 $95 $164 forward $230 $-1 #
edge $-1 $241 -42.972887884852305 $167 -27.465183042372992 $163 $242 forward 7 unknown #
edge $-1 $168 -19.168577166403619 $241 -2.4161062406544664e-014 $96 $243 forward 7 unknown #
coedge $-1 $97 $236 $239 $244 forward $156 $-1 #
vertex $-1 $164 $245 #
vertex $-1 $98 $246 #
straight-curve $-1 -18.978674732213335 -89.438320445913249 22.541313334931623 0 1 0 I I #
coedge $-1 $170 $170 $-1 $247 reversed $101 $-1 #
edge $-1 $248 0 $248 6.2831853071796004 $102 $249 forward 7 unknown #
vertex $-1 $105 $250 #
ellipse-curve $-1 -48.931729764539483 -45.267990294884797 14.787460913691961 0 -0.80901700255871778 0.5877852410284794 1.5 0 0 1 I I #
coedge $-1 $174 $174 $-1 $251 reversed $108 $-1 #
edge $-1 $252 0 $252 6.2831853071796004 $109 $253 forward 7 unknown #
vertex $-1 $112 $254 #
ellipse-curve $-1 -37.699334127417181 -45.267990294884797 14.787460913691961 0 -0.80901700255871778 0.5877852410284794 1.5 0 0 1 I I #
coedge $-1 $178 $178 $-1 $255 reversed $115 $-1 #
edge $-1 $256 0 $256 6.2831853071796004 $116 $257 forward 7 unknown #
vertex $-1 $119 $258 #
ellipse-curve $-1 -26.466938490294879 -45.267990294884797 14.787460913691961 0 -0.80901700255871778 0.5877852410284794 1.5 0 0 1 I I #
face $-1 $-1 $135 $18 $-1 $259 reversed single #
loop $-1 $-1 $198 $120 #
plane-surface $-1 0 50.901493669848563 0 0 -1 0 0 0 -1 forward_v I I I I #
coedge $-1 $260 $196 $199 $261 forward $121 $-1 #
coedge $-1 $202 $123 $124 $190 reversed $76 $-1 #
coedge $-1 $196 $260 $123 $188 reversed $121 $-1 #
edge $-1 $203 -22.541313334931623 $262 22.541313334931623 $187 $263 forward 7 unknown #
coedge $-1 $125 $124 $260 $264 forward $49 $-1 #
edge $-1 $194 -79.092989898373361 $262 79.092989898373361 $186 $265 forward 7 unknown #
coedge $-1 $199 $198 $125 $192 reversed $183 $-1 #
edge $-1 $266 -79.092989898373361 $193 79.092989898373361 $191 $267 forward 7 unknown #
vertex $-1 $127 $268 #
vertex $-1 $205 $269 #
straight-curve $-1 79.092989898373361 0 -22.541313334931623 0 -1 0 I I #
coedge $-1 $185 $187 $128 $197 reversed $121 $-1 #
edge $-1 $200 -50.901493669848563 $203 50.901493669848563 $196 $270 forward 7 unknown #
coedge $-1 $191 $129 $134 $206 forward $183 $-1 #
coedge $-1 $129 $191 $185 $261 reversed $183 $-1 #
vertex $-1 $130 $271 #
straight-curve $-1 0 50.901493669848563 22.541313334931623 -1 0 0 I I #
coedge $-1 $131 $186 $133 $205 reversed $76 $-1 #
vertex $-1 $197 $272 #
straight-curve $-1 0 -50.901493669848563 22.541313334931623 1 0 0 I I #
edge $-1 $136 -22.541313334931623 $194 22.541313334931623 $133 $273 forward 7 unknown #
edge $-1 $137 -22.541313334931623 $193 22.541313334931623 $134 $274 forward 7 unknown #
point $-1 79.092989898373361 -50.901493669848563 22.541313334931623 #
point $-1 79.092989898373361 50.901493669848563 22.541313334931623 #
face $-1 $-1 $218 $19 $-1 $275 reversed single #
loop $-1 $-1 $215 $139 #
plane-surface $-1 0 0 22.541313334931623 0 0 1 1 0 0 forward_v I I I I #
coedge $-1 $276 $277 $146 $221 forward $140 $-1 #
coedge $-1 $142 $225 $278 $279 reversed $84 $-1 #
edge $-1 $280 -12.523131478197442 $152 -7.5132322352709267 $142 $281 forward 7 unknown #
coedge $-1 $278 $282 $143 $216 forward $210 $-1 #
edge $-1 $219 -50.901493669848563 $280 50.901493669848563 $215 $283 forward 7 unknown #
coedge $-1 $222 $144 $282 $284 reversed $218 $-1 #
loop $-1 $-1 $144 $209 #
vertex $-1 $145 $285 #
straight-curve $-1 -56.419993522621013 -50.901493669848563 10.018181856734184 0 0 1 I I #
edge $-1 $226 -50.901493669848563 $223 50.901493669848563 $212 $286 forward 7 unknown #
coedge $-1 $147 $217 $276 $287 forward $218 $-1 #
vertex $-1 $221 $288 #
straight-curve $-1 -33.878245855248593 -50.901493669848563 17.531414092005111 1 0 0 I I #
coedge $-1 $213 $149 $277 $289 reversed $84 $-1 #
vertex $-1 $221 $290 #
straight-curve $-1 -33.878245855248593 50.901493669848563 17.531414092005111 -1 0 0 I I #
point $-1 -56.419993522621013 50.901493669848563 17.531414092005111 #
point $-1 -56.419993522621013 -50.901493669848563 17.531414092005111 #
loop $-1 $-1 $163 $155 #
plane-surface $-1 0 -50.901493669848563 0 0 1 0 0 0 1 forward_v I I I I #
coedge $-1 $233 $158 $291 $292 reversed $92 $-1 #
coedge $-1 $158 $232 $236 $293 reversed $92 $-1 #
edge $-1 $294 2.4161062406544664e-014 $237 19.168577166403615 $158 $295 forward 7 unknown #
coedge $-1 $160 $159 $240 $296 reversed $57 $-1 #
coedge $-1 $166 $161 $233 $293 forward $156 $-1 #
vertex $-1 $293 $297 #
straight-curve $-1 -18.849667063708587 -39.634486919921024 22.541313334931623 -1 0 0 I I #
coedge $-1 $291 $163 $166 $244 reversed $230 $-1 #
coedge $-1 $163 $291 $235 $296 forward $230 $-1 #
vertex $-1 $164 $298 #
straight-curve $-1 -18.978674732213335 -50.901493669848563 50.006496377304614 0 0 1 I I #
straight-curve $-1 -18.978674732213335 -50.901493669848577 7.0336084924522879 0 -0.5877852410284794 -0.80901700255871778 I I #
edge $-1 $299 -56.419993522621013 $167 -18.978674732213335 $239 $300 forward 7 unknown #
point $-1 -18.978674732213335 -50.901493669848563 22.541313334931623 #
point $-1 -18.978674732213335 -39.634486919921017 22.541313334931623 #
edge $-1 $301 1 $301 0 $170 $-1 forward 7 unknown #
vertex $-1 $171 $302 #
ellipse-curve $-1 -48.931729764539483 -43.743704193411716 13.680002268549725 0 -0.80901700255871778 0.5877852410284794 1.5 0 0 1 I I #
point $-1 -47.431729764539483 -45.267990294884775 14.787460913691948 #
edge $-1 $303 1 $303 0 $174 $-1 forward 7 unknown #
vertex $-1 $175 $304 #
ellipse-curve $-1 -37.699334127417181 -43.743704193411716 13.680002268549725 0 -0.80901700255871778 0.5877852410284794 1.5 0 0 1 I I #
point $-1 -36.199334127417181 -45.267990294884775 14.787460913691948 #
edge $-1 $305 1 $305 0 $178 $-1 forward 7 unknown #
vertex $-1 $179 $306 #
ellipse-curve $-1 -26.466938490294879 -43.743704193411716 13.680002268549725 0 -0.80901700255871778 0.5877852410284794 1.5 0 0 1 I I #
point $-1 -24.966938490294879 -45.267990294884775 14.787460913691948 #
plane-surface $-1 79.092989898373361 0 0 -1 0 0 0 0 1 forward_v I I I I #
coedge $-1 $187 $185 $189 $264 reversed $121 $-1 #
edge $-1 $200 -22.541313334931623 $266 22.541313334931623 $199 $307 forward 7 unknown #
vertex $-1 $264 $308 #
straight-curve $-1 -79.092989898373361 -50.901493669848563 0 0 0 -1 I I #
edge $-1 $262 -50.901493669848563 $266 50.901493669848563 $260 $309 forward 7 unknown #
straight-curve $-1 0 -50.901493669848563 -22.541313334931623 -1 0 0 I I #
vertex $-1 $192 $310 #
straight-curve $-1 0 50.901493669848563 -22.541313334931623 1 0 0 I I #
point $-1 79.092989898373361 50.901493669848563 -22.541313334931623 #
point $-1 79.092989898373361 -50.901493669848563 -22.541313334931623 #
straight-curve $-1 -79.092989898373361 0 22.541313334931623 0 -1 0 I I #
point $-1 -79.092989898373361 50.901493669848563 22.541313334931623 #
point $-1 -79.092989898373361 -50.901493669848563 22.541313334931623 #
straight-curve $-1 79.092989898373361 -50.901493669848563 0 0 0 -1 I I #
straight-curve $-1 79.092989898373361 50.901493669848563 0 0 0 -1 I I #
plane-surface $-1 0 -50.901493669848563 0 0 1 0 0 0 1 forward_v I I I I #
coedge $-1 $311 $212 $222 $287 reversed $140 $-1 #
coedge $-1 $212 $311 $225 $289 forward $140 $-1 #
coedge $-1 $312 $215 $213 $279 forward $210 $-1 #
edge $-1 $280 56.419993522621013 $313 79.092989898373361 $213 $314 forward 7 unknown #
vertex $-1 $279 $315 #
straight-curve $-1 -56.419993522621013 50.901493669848563 10.018181856734184 0 0 -1 I I #
coedge $-1 $215 $312 $217 $284 forward $210 $-1 #
straight-curve $-1 -56.419993522621013 0 22.541313334931623 0 1 0 I I #
edge $-1 $316 -79.092989898373361 $219 -56.419993522621013 $217 $317 forward 7 unknown #
point $-1 -56.419993522621013 -50.901493669848563 22.541313334931626 #
straight-curve $-1 -79.092989898373361 0 17.531414092005111 0 -1 0 I I #
edge $-1 $316 -22.541313334931623 $223 -17.531414092005111 $276 $318 forward 7 unknown #
point $-1 -79.092989898373361 -50.901493669848563 17.531414092005111 #
edge $-1 $313 -22.541313334931623 $226 -17.531414092005111 $225 $319 forward 7 unknown #
point $-1 -79.092989898373361 50.901493669848563 17.531414092005111 #
coedge $-1 $240 $239 $232 $292 forward $230 $-1 #
edge $-1 $299 27.465183042372988 $294 42.972887884852305 $291 $320 forward 7 unknown #
edge $-1 $237 39.634486919921024 $299 50.901493669848563 $236 $321 forward 7 unknown #
vertex $-1 $292 $322 #
straight-curve $-1 -56.419993522621013 -50.901493669848577 7.0336084924522879 0 0.5877852410284794 0.80901700255871778 I I #
edge $-1 $294 -37.570326458912426 $241 -0.1290076685047481 $240 $323 forward 7 unknown #
point $-1 -56.419993522621013 -39.634486919921024 22.541313334931623 #
point $-1 -18.978674732213335 -50.901493669848563 7.0336084924523075 #
vertex $-1 $244 $324 #
straight-curve $-1 0 -50.901493669848563 22.541313334931623 1 0 0 I I #
vertex $-1 $247 $325 #
point $-1 -47.431729764539483 -43.743704193411716 13.680002268549725 #
vertex $-1 $251 $326 #
point $-1 -36.199334127417181 -43.743704193411716 13.680002268549725 #
vertex $-1 $255 $327 #
point $-1 -24.966938490294879 -43.743704193411716 13.680002268549725 #
straight-curve $-1 -79.092989898373361 50.901493669848563 0 0 0 -1 I I #
point $-1 -79.092989898373361 -50.901493669848563 -22.541313334931623 #
straight-curve $-1 -79.092989898373361 0 -22.541313334931623 0 1 0 I I #
point $-1 -79.092989898373361 50.901493669848563 -22.541313334931623 #
coedge $-1 $277 $276 $312 $328 reversed $140 $-1 #
coedge $-1 $282 $278 $311 $328 forward $210 $-1 #
vertex $-1 $279 $329 #
straight-curve $-1 0 50.901493669848563 22.541313334931623 -1 0 0 I I #
point $-1 -56.419993522621013 50.901493669848563 22.541313334931626 #
vertex $-1 $328 $330 #
straight-curve $-1 0 -50.901493669848563 22.541313334931623 1 0 0 I I #
straight-curve $-1 -79.092989898373361 -50.901493669848563 0 0 0 -1 I I #
straight-curve $-1 -79.092989898373361 50.901493669848563 0 0 0 -1 I I #
straight-curve $-1 -56.419993522621013 -50.901493669848563 50.006496377304614 0 0 -1 I I #
straight-curve $-1 -56.419993522621013 0 22.541313334931623 0 -1 0 I I #
point $-1 -56.419993522621013 -50.901493669848563 7.0336084924523075 #
straight-curve $-1 -18.849667063708587 -50.901493669848563 7.033608492452311 1 0 0 I I #
point $-1 -56.419993522621013 -50.901493669848563 22.541313334931626 #
point $-1 -48.931729764539483 -42.530178689573646 12.798324407007005 #
point $-1 -37.699334127417181 -42.530178689573646 12.798324407007005 #
point $-1 -26.466938490294879 -42.530178689573646 12.798324407007005 #
edge $-1 $313 -50.901493669848563 $316 50.901493669848563 $311 $331 forward 7 unknown #
point $-1 -79.092989898373361 50.901493669848563 22.541313334931623 #
point $-1 -79.092989898373361 -50.901493669848563 22.541313334931623 #
straight-curve $-1 -79.092989898373361 0 22.541313334931623 0 -1 0 I I #
End-of-ACIS-data 