500 0 8 0           
7 Unknown 11 ACIS 5.0 NT 24 Fri Mar 26 15:00:54 1999 
-1 9.9999999999999995e-007 1e-010 
body $-1 $8 $-1 $9 #
body $-1 $10 $-1 $11 #
body $-1 $12 $-1 $13 #
body $-1 $14 $-1 $15 #
body $-1 $16 $-1 $17 #
body $-1 $18 $-1 $19 #
body $-1 $20 $-1 $21 #
body $-1 $22 $-1 $23 #
lump $-1 $-1 $24 $0 #
transform $-1 1 0 0 0 1 0 0 0 1 71.71971800897245 33.983637736830012 16.3138470068297 1 rotate no_reflect no_shear #
lump $-1 $-1 $25 $1 #
transform $-1 1 0 0 0 1 0 0 0 1 71.71971800897245 33.983637736830012 16.3138470068297 1 rotate no_reflect no_shear #
lump $-1 $-1 $26 $2 #
transform $-1 1 0 0 0 1 0 0 0 1 71.71971800897245 33.983637736830012 16.3138470068297 1 rotate no_reflect no_shear #
lump $-1 $-1 $27 $3 #
transform $-1 1 0 0 0 1 0 0 0 1 71.71971800897245 33.983637736830012 16.3138470068297 1 rotate no_reflect no_shear #
lump $-1 $-1 $28 $4 #
transform $-1 1 0 0 0 1 0 0 0 1 71.71971800897245 33.983637736830012 16.3138470068297 1 rotate no_reflect no_shear #
lump $-1 $-1 $29 $5 #
transform $-1 1 0 0 0 1 0 0 0 1 71.71971800897245 33.983637736830012 16.3138470068297 1 rotate no_reflect no_shear #
lump $-1 $-1 $30 $6 #
transform $-1 1 0 0 0 1 0 0 0 1 71.71971800897245 33.983637736830012 16.3138470068297 1 rotate no_reflect no_shear #
lump $-1 $-1 $31 $7 #
transform $-1 1 0 0 0 1 0 0 0 1 71.71971800897245 33.983637736830012 16.3138470068297 1 rotate no_reflect no_shear #
shell $-1 $-1 $-1 $32 $-1 $8 #
shell $-1 $-1 $-1 $33 $-1 $10 #
shell $-1 $-1 $-1 $34 $-1 $12 #
shell $-1 $-1 $-1 $35 $-1 $14 #
shell $-1 $-1 $-1 $36 $-1 $16 #
shell $-1 $-1 $-1 $37 $-1 $18 #
shell $-1 $-1 $-1 $38 $-1 $20 #
shell $-1 $-1 $-1 $39 $-1 $22 #
face $-1 $40 $41 $24 $-1 $42 forward single #
face $-1 $43 $44 $25 $-1 $45 forward single #
face $-1 $46 $47 $26 $-1 $48 reversed single #
face $-1 $49 $50 $27 $-1 $51 forward single #
face $-1 $52 $53 $28 $-1 $54 reversed single #
face $-1 $55 $56 $29 $-1 $57 forward single #
face $-1 $58 $59 $30 $-1 $60 reversed single #
face $-1 $61 $62 $31 $-1 $63 forward single #
face $-1 $64 $65 $24 $-1 $66 reversed single #
loop $-1 $-1 $67 $32 #
plane-surface $-1 0 0 16.3138470068297 0 0 1 1 0 0 forward_v I I I I #
face $-1 $68 $69 $25 $-1 $70 forward single #
loop $-1 $-1 $71 $33 #
plane-surface $-1 0 -33.983637736830012 0 0 1 0 0 0 1 forward_v I I I I #
face $-1 $72 $73 $26 $-1 $74 reversed single #
loop $-1 $-1 $75 $34 #
plane-surface $-1 75.260010796586755 6.4390231865821939 210.67317866752228 0 -1 0 -0.71933980857756763 0 -0.69465836192734942 forward_v I I I I #
face $-1 $76 $77 $27 $-1 $78 forward single #
loop $-1 $79 $80 $35 #
cone-surface $-1 66.421109781387059 0.5912091924680638 10.911620217052835 -0.71933980857756763 0 -0.69465836192734942 1.7366459048183736 0 -1.7983495214439191 1 I I 0 1 2.5 forward I I I I #
face $-1 $81 $82 $28 $-1 $83 reversed single #
loop $-1 $-1 $84 $36 #
plane-surface $-1 75.260010796586755 18.134651174810447 210.67317866752228 0 -1 0 -0.71933980857756763 0 -0.69465836192734942 forward_v I I I I #
face $-1 $85 $86 $29 $-1 $87 forward single #
loop $-1 $88 $89 $37 #
cone-surface $-1 66.421109781387059 12.286837180696317 10.911620217052835 -0.71933980857756763 0 -0.69465836192734942 1.7366459048183736 0 -1.7983495214439191 1 I I 0 1 2.5 forward I I I I #
face $-1 $90 $91 $30 $-1 $92 reversed single #
loop $-1 $-1 $93 $38 #
plane-surface $-1 -192.01815242804923 -11.085976958380819 84.846883507133896 0 1 0 -0.83867057594974714 0 0.54463902268945019 forward_v I I I I #
face $-1 $94 $95 $31 $-1 $96 forward single #
loop $-1 $97 $98 $39 #
cone-surface $-1 -67.273490079932529 -6.5569338427113131 10.653722380786744 0.83867057594974714 0 -0.54463902268945019 0.54463902268945019 0 0.83867057594974714 1 I I 0 1 1 forward I I I I #
face $-1 $99 $100 $24 $-1 $101 reversed single #
loop $-1 $-1 $102 $40 #
plane-surface $-1 0 0 -16.3138470068297 0 0 1 1 0 0 forward_v I I I I #
coedge $-1 $103 $104 $105 $106 forward $41 $-1 #
face $-1 $107 $108 $25 $-1 $109 reversed single #
loop $-1 $-1 $110 $43 #
plane-surface $-1 0 0 16.3138470068297 0 0 1 1 0 0 forward_v I I I I #
coedge $-1 $111 $112 $113 $114 forward $44 $-1 #
face $-1 $115 $116 $26 $-1 $117 reversed single #
loop $-1 $-1 $118 $46 #
plane-surface $-1 -27.921685651035986 0.5912091924680638 111.03177500751383 0.71933980857756763 0 0.69465836192734942 0.69465836192734942 0 -0.71933980857756763 forward_v I I I I #
coedge $-1 $119 $120 $121 $122 reversed $47 $-1 #
face $-1 $-1 $123 $27 $-1 $124 forward single #
loop $-1 $125 $126 $49 #
cone-surface $-1 64.310009786968862 0.5912091924680638 8.8729546983361054 -0.71933980857756763 0 -0.69465836192734942 0.86832295240918678 0 -0.89917476072195957 1 I I -0.70710678118654746 0.70710678118654746 1.25 forward I I I I #
loop $-1 $-1 $127 $35 #
coedge $-1 $80 $80 $128 $129 reversed $50 $-1 #
face $-1 $130 $131 $28 $-1 $132 reversed single #
loop $-1 $-1 $133 $52 #
plane-surface $-1 -27.921685651035986 0.5912091924680638 111.03177500751383 0.71933980857756763 0 0.69465836192734942 0.69465836192734942 0 -0.71933980857756763 forward_v I I I I #
coedge $-1 $134 $135 $136 $137 reversed $53 $-1 #
face $-1 $-1 $138 $29 $-1 $139 forward single #
loop $-1 $140 $141 $55 #
cone-surface $-1 64.310009786968862 12.286837180696317 8.8729546983361054 -0.71933980857756763 0 -0.69465836192734942 0.86832295240918678 0 -0.89917476072195957 1 I I -0.70710678118654746 0.70710678118654746 1.25 forward I I I I #
loop $-1 $-1 $142 $37 #
coedge $-1 $89 $89 $143 $144 reversed $56 $-1 #
face $-1 $145 $146 $30 $-1 $147 reversed single #
loop $-1 $-1 $148 $58 #
plane-surface $-1 -71.719718008972478 -6.5569338427113131 6.7241692591944684 -0.83867057594974714 0 0.54463902268945019 0.54463902268945019 0 0.83867057594974714 forward_v I I I I #
coedge $-1 $149 $150 $151 $152 reversed $59 $-1 #
face $-1 $-1 $153 $31 $-1 $154 forward single #
loop $-1 $155 $156 $61 #
cone-surface $-1 -65.521731535547488 -6.5569338427113131 9.516117117216691 0.83867057594974714 0 -0.54463902268945019 0.2723195113447251 0 0.41933528797487357 1 I I -0.70710678118654746 0.70710678118654746 0.5 forward I I I I #
loop $-1 $-1 $157 $39 #
coedge $-1 $98 $98 $158 $159 reversed $62 $-1 #
face $-1 $160 $161 $24 $-1 $162 reversed single #
loop $-1 $-1 $163 $64 #
plane-surface $-1 0 -33.983637736830012 0 0 1 0 0 0 1 forward_v I I I I #
coedge $-1 $164 $165 $166 $167 forward $65 $-1 #
coedge $-1 $168 $67 $169 $170 forward $41 $-1 #
coedge $-1 $67 $168 $171 $172 forward $41 $-1 #
coedge $-1 $173 $174 $67 $106 reversed $175 $-1 #
edge $-1 $176 -33.983637736830012 $177 33.983637736830012 $105 $178 forward 7 unknown #
face $-1 $179 $180 $25 $-1 $181 reversed single #
loop $-1 $-1 $182 $68 #
plane-surface $-1 -71.71971800897245 0 0 1 0 0 0 0 -1 forward_v I I I I #
coedge $-1 $183 $184 $112 $185 forward $69 $-1 #
coedge $-1 $186 $71 $187 $188 reversed $44 $-1 #
coedge $-1 $71 $186 $110 $185 reversed $44 $-1 #
coedge $-1 $189 $190 $71 $114 reversed $191 $-1 #
edge $-1 $192 -16.3138470068297 $193 16.3138470068297 $113 $194 forward 7 unknown #
face $-1 $195 $196 $26 $-1 $197 forward single #
loop $-1 $-1 $198 $72 #
plane-surface $-1 75.260010796586755 -5.2566048016460662 210.67317866752228 0 1 0 0.71933980857756763 0 0.69465836192734942 forward_v I I I I #
coedge $-1 $199 $200 $201 $202 reversed $73 $-1 #
coedge $-1 $120 $75 $203 $204 reversed $47 $-1 #
coedge $-1 $75 $119 $199 $205 reversed $47 $-1 #
coedge $-1 $201 $206 $75 $122 forward $196 $-1 #
edge $-1 $207 -34.089712610679072 $208 -25.916346622900889 $121 $209 forward 7 unknown #
loop $-1 $-1 $128 $76 #
plane-surface $-1 -27.921685651035986 0.5912091924680638 111.03177500751383 0.71933980857756763 0 0.69465836192734942 0.69465836192734942 0 -0.71933980857756763 forward_v I I I I #
loop $-1 $-1 $210 $49 #
coedge $-1 $126 $126 $127 $211 reversed $77 $-1 #
coedge $-1 $127 $127 $126 $211 forward $79 $-1 #
coedge $-1 $128 $128 $80 $129 forward $123 $-1 #
edge $-1 $212 0 $212 6.2831853071796004 $128 $213 forward 7 unknown #
face $-1 $214 $215 $28 $-1 $216 forward single #
loop $-1 $-1 $217 $81 #
plane-surface $-1 71.71971800897245 0 0 -1 0 0 0 0 1 forward_v I I I I #
coedge $-1 $218 $219 $220 $221 reversed $82 $-1 #
coedge $-1 $135 $84 $222 $223 reversed $53 $-1 #
coedge $-1 $84 $134 $224 $225 reversed $53 $-1 #
coedge $-1 $226 $217 $84 $137 forward $131 $-1 #
edge $-1 $227 -97.486510773870037 $228 -89.022742326931436 $136 $229 forward 7 unknown #
loop $-1 $-1 $143 $85 #
plane-surface $-1 -27.921685651035986 0.5912091924680638 111.03177500751383 0.71933980857756763 0 0.69465836192734942 0.69465836192734942 0 -0.71933980857756763 forward_v I I I I #
loop $-1 $-1 $230 $55 #
coedge $-1 $141 $141 $142 $231 reversed $86 $-1 #
coedge $-1 $142 $142 $141 $231 forward $88 $-1 #
coedge $-1 $143 $143 $89 $144 forward $138 $-1 #
edge $-1 $232 0 $232 6.2831853071796004 $143 $233 forward 7 unknown #
face $-1 $234 $235 $30 $-1 $236 reversed single #
loop $-1 $-1 $237 $90 #
plane-surface $-1 -192.01815242804923 -2.0278907270418074 84.846883507133896 0 -1 0 0.83867057594974714 0 -0.54463902268945019 forward_v I I I I #
coedge $-1 $238 $239 $240 $241 reversed $91 $-1 #
coedge $-1 $150 $93 $242 $243 reversed $59 $-1 #
coedge $-1 $93 $149 $238 $244 reversed $59 $-1 #
coedge $-1 $240 $245 $93 $152 forward $246 $-1 #
edge $-1 $247 24.289358205052167 $248 30.516967550311648 $151 $249 forward 7 unknown #
loop $-1 $-1 $158 $94 #
plane-surface $-1 -71.719718008972478 -6.5569338427113131 6.7241692591944684 -0.83867057594974714 0 0.54463902268945019 0.54463902268945019 0 0.83867057594974714 forward_v I I I I #
loop $-1 $-1 $250 $61 #
coedge $-1 $156 $156 $157 $251 reversed $95 $-1 #
coedge $-1 $157 $157 $156 $251 forward $97 $-1 #
coedge $-1 $158 $158 $98 $159 forward $153 $-1 #
edge $-1 $252 0 $252 6.2831853071796004 $158 $253 forward 7 unknown #
face $-1 $254 $255 $24 $-1 $256 reversed single #
loop $-1 $-1 $257 $99 #
plane-surface $-1 -71.71971800897245 0 0 1 0 0 0 0 -1 forward_v I I I I #
coedge $-1 $258 $171 $259 $260 forward $100 $-1 #
coedge $-1 $261 $102 $258 $262 forward $65 $-1 #
coedge $-1 $102 $261 $263 $264 forward $65 $-1 #
coedge $-1 $174 $173 $102 $167 reversed $175 $-1 #
edge $-1 $265 -33.983637736830012 $266 33.983637736830012 $166 $267 forward 7 unknown #
coedge $-1 $104 $103 $268 $269 forward $41 $-1 #
coedge $-1 $270 $271 $103 $170 reversed $255 $-1 #
edge $-1 $177 -71.71971800897245 $272 71.71971800897245 $169 $273 forward 7 unknown #
coedge $-1 $163 $274 $104 $172 reversed $100 $-1 #
edge $-1 $275 -71.71971800897245 $176 71.71971800897245 $171 $276 forward 7 unknown #
coedge $-1 $166 $105 $274 $277 forward $175 $-1 #
coedge $-1 $105 $166 $270 $278 reversed $175 $-1 #
loop $-1 $-1 $173 $254 #
vertex $-1 $106 $279 #
vertex $-1 $106 $280 #
straight-curve $-1 71.71971800897245 0 16.3138470068297 0 1 0 I I #
face $-1 $281 $191 $25 $-1 $282 reversed single #
loop $-1 $-1 $283 $107 #
plane-surface $-1 -68.802124855961111 -46.8616841099944 0 0 1 0 0 0 1 forward_v I I I I #
coedge $-1 $284 $285 $186 $286 forward $108 $-1 #
coedge $-1 $287 $110 $285 $288 forward $69 $-1 #
coedge $-1 $110 $287 $189 $289 forward $69 $-1 #
edge $-1 $192 65.884531702949772 $290 71.71971800897245 $110 $291 forward 7 unknown #
coedge $-1 $112 $111 $182 $286 reversed $44 $-1 #
coedge $-1 $292 $293 $111 $188 forward $294 $-1 #
edge $-1 $295 -71.71971800897245 $193 -65.884531702949772 $187 $296 forward 7 unknown #
coedge $-1 $297 $113 $184 $289 reversed $191 $-1 #
coedge $-1 $113 $297 $292 $298 reversed $191 $-1 #
loop $-1 $-1 $297 $179 #
vertex $-1 $185 $299 #
vertex $-1 $298 $300 #
straight-curve $-1 -65.884531702949772 -33.983637736830012 0 0 0 -1 I I #
face $-1 $-1 $301 $26 $-1 $302 reversed single #
loop $-1 $-1 $121 $115 #
plane-surface $-1 0 0 16.3138470068297 0 0 1 1 0 0 forward_v I I I I #
coedge $-1 $303 $304 $305 $306 reversed $116 $-1 #
coedge $-1 $307 $118 $120 $205 forward $73 $-1 #
coedge $-1 $118 $307 $303 $308 forward $73 $-1 #
coedge $-1 $305 $121 $118 $202 forward $196 $-1 #
edge $-1 $208 -6.143418590348162 $309 5.5522093978800982 $201 $310 forward 7 unknown #
coedge $-1 $311 $312 $119 $204 forward $301 $-1 #
edge $-1 $313 -97.486510773870037 $207 -89.022742326931436 $203 $314 forward 7 unknown #
edge $-1 $208 131.67341341497649 $313 143.43943601794487 $120 $315 forward 7 unknown #
coedge $-1 $121 $305 $311 $316 forward $196 $-1 #
vertex $-1 $204 $317 #
vertex $-1 $122 $318 #
straight-curve $-1 37.630005398293378 6.4390231865821939 16.313847006829704 -1 0 0 I I #
coedge $-1 $210 $210 $-1 $319 reversed $125 $-1 #
edge $-1 $320 0 $320 6.2831853071796004 $126 $321 forward 7 unknown #
vertex $-1 $129 $322 #
ellipse-curve $-1 67.633035015083337 0.5912091924680638 12.081962783360416 0.71933980857756763 0 0.69465836192734942 1.7366459048183736 0 -1.7983495214439191 1 I I #
face $-1 $-1 $323 $28 $-1 $324 forward single #
loop $-1 $-1 $325 $130 #
plane-surface $-1 75.260010796586755 6.4390231865821939 210.67317866752228 0 -1 0 -0.71933980857756763 0 -0.69465836192734942 forward_v I I I I #
coedge $-1 $136 $326 $219 $327 forward $131 $-1 #
coedge $-1 $222 $133 $328 $329 reversed $82 $-1 #
coedge $-1 $133 $222 $217 $327 reversed $82 $-1 #
coedge $-1 $330 $325 $133 $221 forward $215 $-1 #
edge $-1 $331 131.67341341497649 $332 143.43943601794487 $220 $333 forward 7 unknown #
coedge $-1 $219 $218 $134 $223 forward $82 $-1 #
edge $-1 $334 131.67341341497649 $227 143.43943601794487 $134 $335 forward 7 unknown #
coedge $-1 $328 $336 $135 $225 forward $323 $-1 #
edge $-1 $228 -34.089712610679072 $334 -25.916346622900889 $224 $337 forward 7 unknown #
coedge $-1 $326 $136 $336 $338 reversed $131 $-1 #
vertex $-1 $137 $339 #
vertex $-1 $137 $340 #
straight-curve $-1 71.71971800897245 18.134651174810447 105.33658933376114 0 0 1 I I #
coedge $-1 $230 $230 $-1 $341 reversed $140 $-1 #
edge $-1 $342 0 $342 6.2831853071796004 $141 $343 forward 7 unknown #
vertex $-1 $144 $344 #
ellipse-curve $-1 67.633035015083337 12.286837180696317 12.081962783360416 0.71933980857756763 0 0.69465836192734942 1.7366459048183736 0 -1.7983495214439191 1 I I #
face $-1 $-1 $246 $30 $-1 $345 forward single #
loop $-1 $-1 $346 $145 #
plane-surface $-1 -71.71971800897245 0 0 1 0 0 0 0 -1 forward_v I I I I #
coedge $-1 $347 $348 $349 $350 reversed $146 $-1 #
coedge $-1 $351 $148 $150 $244 forward $91 $-1 #
coedge $-1 $148 $351 $347 $352 forward $91 $-1 #
coedge $-1 $349 $151 $148 $241 forward $246 $-1 #
edge $-1 $248 -7.8075100370251622 $353 1.2505761943138491 $240 $354 forward 7 unknown #
coedge $-1 $355 $356 $149 $243 forward $235 $-1 #
edge $-1 $357 -35.699272494372437 $247 -26.109594746737248 $242 $358 forward 7 unknown #
edge $-1 $248 -11.43437962727554 $357 -5.1979138280344745e-014 $150 $359 forward 7 unknown #
coedge $-1 $151 $349 $355 $360 forward $246 $-1 #
loop $-1 $-1 $349 $234 #
vertex $-1 $243 $361 #
vertex $-1 $152 $362 #
straight-curve $-1 -96.009076214024617 -11.085976958380819 16.313847006829697 1 0 0 I I #
coedge $-1 $250 $250 $-1 $363 reversed $155 $-1 #
edge $-1 $364 0 $364 6.2831853071796004 $156 $365 forward 7 unknown #
vertex $-1 $159 $366 #
ellipse-curve $-1 -68.605913336342724 -6.5569338427113131 11.51900813301209 -0.83867057594974714 0 0.54463902268945019 0.54463902268945019 0 0.83867057594974714 1 I I #
face $-1 $-1 $175 $24 $-1 $367 reversed single #
loop $-1 $-1 $270 $160 #
plane-surface $-1 0 33.983637736830012 0 0 -1 0 0 0 -1 forward_v I I I I #
coedge $-1 $368 $268 $271 $369 forward $161 $-1 #
coedge $-1 $274 $163 $164 $262 reversed $100 $-1 #
coedge $-1 $268 $368 $163 $260 reversed $161 $-1 #
edge $-1 $275 -16.3138470068297 $370 16.3138470068297 $259 $371 forward 7 unknown #
coedge $-1 $165 $164 $368 $372 forward $65 $-1 #
edge $-1 $266 -71.71971800897245 $370 71.71971800897245 $258 $373 forward 7 unknown #
coedge $-1 $271 $270 $165 $264 reversed $255 $-1 #
edge $-1 $374 -71.71971800897245 $265 71.71971800897245 $263 $375 forward 7 unknown #
vertex $-1 $167 $376 #
vertex $-1 $277 $377 #
straight-curve $-1 71.71971800897245 0 -16.3138470068297 0 -1 0 I I #
coedge $-1 $257 $259 $168 $269 reversed $161 $-1 #
edge $-1 $272 -33.983637736830012 $275 33.983637736830012 $268 $378 forward 7 unknown #
coedge $-1 $263 $169 $174 $278 forward $255 $-1 #
coedge $-1 $169 $263 $257 $369 reversed $255 $-1 #
vertex $-1 $170 $379 #
straight-curve $-1 0 33.983637736830012 16.3138470068297 -1 0 0 I I #
coedge $-1 $171 $258 $173 $277 reversed $100 $-1 #
vertex $-1 $269 $380 #
straight-curve $-1 0 -33.983637736830012 16.3138470068297 1 0 0 I I #
edge $-1 $176 -16.3138470068297 $266 16.3138470068297 $173 $381 forward 7 unknown #
edge $-1 $177 -16.3138470068297 $265 16.3138470068297 $174 $382 forward 7 unknown #
point $-1 71.71971800897245 -33.983637736830012 16.3138470068297 #
point $-1 71.71971800897245 33.983637736830012 16.3138470068297 #
face $-1 $-1 $294 $25 $-1 $383 reversed single #
plane-surface $-1 -65.884531702949772 -40.422660923412209 0 -1 0 0 0 0 1 forward_v I I I I #
coedge $-1 $384 $385 $386 $387 forward $180 $-1 #
coedge $-1 $386 $182 $293 $388 reversed $108 $-1 #
coedge $-1 $182 $386 $183 $288 reversed $108 $-1 #
edge $-1 $290 -16.3138470068297 $295 16.3138470068297 $182 $389 forward 7 unknown #
coedge $-1 $184 $183 $385 $390 forward $69 $-1 #
edge $-1 $290 33.983637736830012 $391 46.8616841099944 $285 $392 forward 7 unknown #
edge $-1 $393 -6.4390231865821903 $192 6.4390231865821903 $189 $394 forward 7 unknown #
vertex $-1 $288 $395 #
straight-curve $-1 0 -33.983637736830012 16.3138470068297 -1 0 0 I I #
coedge $-1 $396 $187 $190 $298 forward $294 $-1 #
coedge $-1 $187 $396 $284 $388 forward $294 $-1 #
loop $-1 $-1 $187 $281 #
vertex $-1 $286 $397 #
straight-curve $-1 0 -33.983637736830012 -16.3138470068297 1 0 0 I I #
coedge $-1 $190 $189 $398 $399 forward $191 $-1 #
edge $-1 $193 -6.4390231865821903 $400 6.4390231865821903 $190 $401 forward 7 unknown #
point $-1 -65.884531702949772 -33.983637736830019 16.3138470068297 #
point $-1 -65.884531702949772 -33.983637736830019 -16.3138470068297 #
loop $-1 $-1 $203 $195 #
plane-surface $-1 71.71971800897245 0 0 -1 0 0 0 0 1 forward_v I I I I #
coedge $-1 $304 $198 $200 $308 reversed $116 $-1 #
coedge $-1 $198 $303 $402 $403 reversed $116 $-1 #
coedge $-1 $206 $201 $198 $306 forward $196 $-1 #
edge $-1 $309 25.916346622900889 $404 34.089712610679072 $305 $405 forward 7 unknown #
coedge $-1 $200 $199 $312 $406 reversed $73 $-1 #
edge $-1 $407 -143.43943601794487 $309 -131.67341341497649 $303 $408 forward 7 unknown #
vertex $-1 $202 $409 #
straight-curve $-1 63.546352021194259 0.2956045962340319 16.313847006829718 0 -1 0 I I #
coedge $-1 $402 $203 $206 $316 reversed $301 $-1 #
coedge $-1 $203 $402 $307 $406 forward $301 $-1 #
vertex $-1 $204 $410 #
straight-curve $-1 71.71971800897245 6.4390231865821939 105.33658933376114 0 0 1 I I #
straight-curve $-1 -27.921685651035986 6.4390231865821939 111.03177500751383 0.69465836192734942 0 -0.71933980857756763 I I #
edge $-1 $404 -5.2566048016460662 $207 6.4390231865821939 $311 $411 forward 7 unknown #
point $-1 71.71971800897245 6.4390231865821939 16.3138470068297 #
point $-1 63.546352021194267 6.4390231865821939 16.313847006829718 #
edge $-1 $412 1 $412 0 $210 $-1 forward 7 unknown #
vertex $-1 $211 $413 #
ellipse-curve $-1 65.209184547690825 0.5912091924680638 9.7412776507452925 0.71933980857756763 0 0.69465836192734942 1.7366459048183736 0 -1.7983495214439191 1 I I #
point $-1 69.369680919901668 0.5912091924680638 10.283613261916461 #
loop $-1 $-1 $328 $214 #
plane-surface $-1 0 0 16.3138470068297 0 0 1 1 0 0 forward_v I I I I #
coedge $-1 $220 $330 $414 $415 reversed $215 $-1 #
coedge $-1 $217 $226 $330 $416 forward $131 $-1 #
edge $-1 $332 6.143418590348162 $227 17.839046578576415 $217 $417 forward 7 unknown #
coedge $-1 $414 $224 $218 $329 forward $323 $-1 #
edge $-1 $334 -17.839046578576415 $331 -6.143418590348162 $328 $418 forward 7 unknown #
coedge $-1 $325 $220 $326 $416 reversed $215 $-1 #
vertex $-1 $329 $419 #
vertex $-1 $327 $420 #
straight-curve $-1 -27.921685651035986 6.4390231865821939 111.03177500751383 0.69465836192734942 0 -0.71933980857756763 I I #
vertex $-1 $225 $421 #
straight-curve $-1 -27.921685651035986 18.134651174810447 111.03177500751383 0.69465836192734942 0 -0.71933980857756763 I I #
coedge $-1 $224 $414 $226 $338 forward $323 $-1 #
straight-curve $-1 37.630005398293378 18.134651174810447 16.313847006829704 -1 0 0 I I #
edge $-1 $422 6.4390231865821939 $228 18.134651174810447 $226 $423 forward 7 unknown #
point $-1 71.719718008972436 18.134651174810447 7.8500785598911023 #
point $-1 71.71971800897245 18.134651174810447 16.3138470068297 #
edge $-1 $424 1 $424 0 $230 $-1 forward 7 unknown #
vertex $-1 $231 $425 #
ellipse-curve $-1 65.209184547690825 12.286837180696317 9.7412776507452925 0.71933980857756763 0 0.69465836192734942 1.7366459048183736 0 -1.7983495214439191 1 I I #
point $-1 69.369680919901668 12.286837180696317 10.283613261916461 #
plane-surface $-1 0 0 16.3138470068297 0 0 1 1 0 0 forward_v I I I I #
coedge $-1 $356 $355 $348 $426 forward $235 $-1 #
coedge $-1 $348 $237 $239 $352 reversed $146 $-1 #
coedge $-1 $237 $347 $346 $426 reversed $146 $-1 #
coedge $-1 $245 $240 $237 $350 forward $246 $-1 #
edge $-1 $353 -30.516967550311648 $427 -24.289358205052167 $349 $428 forward 7 unknown #
coedge $-1 $239 $238 $356 $429 reversed $91 $-1 #
edge $-1 $430 5.1979138280344745e-014 $353 11.43437962727554 $347 $431 forward 7 unknown #
vertex $-1 $241 $432 #
straight-curve $-1 -65.492108663712969 -3.2784669213556565 16.3138470068297 0 1 0 I I #
coedge $-1 $346 $242 $245 $360 reversed $235 $-1 #
coedge $-1 $242 $346 $351 $429 forward $235 $-1 #
vertex $-1 $243 $433 #
straight-curve $-1 -71.71971800897245 -11.085976958380819 42.423441753566948 0 0 1 I I #
straight-curve $-1 -71.719718008972478 -11.085976958380819 6.7241692591944684 -0.54463902268945019 0 -0.83867057594974714 I I #
edge $-1 $427 2.0278907270418074 $247 11.085976958380819 $355 $434 forward 7 unknown #
point $-1 -71.71971800897245 -11.085976958380819 16.3138470068297 #
point $-1 -65.492108663712969 -11.085976958380819 16.3138470068297 #
edge $-1 $435 1 $435 0 $250 $-1 forward 7 unknown #
vertex $-1 $251 $436 #
ellipse-curve $-1 -65.941066823522362 -6.5569338427113131 9.7884366285614153 -0.83867057594974714 0 0.54463902268945019 0.54463902268945019 0 0.83867057594974714 1 I I #
point $-1 -68.061274313653243 -6.5569338427113131 12.357678708961823 #
plane-surface $-1 71.71971800897245 0 0 -1 0 0 0 0 1 forward_v I I I I #
coedge $-1 $259 $257 $261 $372 reversed $161 $-1 #
edge $-1 $272 -16.3138470068297 $374 16.3138470068297 $271 $437 forward 7 unknown #
vertex $-1 $372 $438 #
straight-curve $-1 -71.71971800897245 -33.983637736830012 0 0 0 -1 I I #
edge $-1 $370 -33.983637736830012 $374 33.983637736830012 $368 $439 forward 7 unknown #
straight-curve $-1 0 -33.983637736830012 -16.3138470068297 -1 0 0 I I #
vertex $-1 $264 $440 #
straight-curve $-1 0 33.983637736830012 -16.3138470068297 1 0 0 I I #
point $-1 71.71971800897245 33.983637736830012 -16.3138470068297 #
point $-1 71.71971800897245 -33.983637736830012 -16.3138470068297 #
straight-curve $-1 -71.71971800897245 0 16.3138470068297 0 -1 0 I I #
point $-1 -71.71971800897245 33.983637736830012 16.3138470068297 #
point $-1 -71.71971800897245 -33.983637736830012 16.3138470068297 #
straight-curve $-1 71.71971800897245 -33.983637736830012 0 0 0 -1 I I #
straight-curve $-1 71.71971800897245 33.983637736830012 0 0 0 -1 I I #
plane-surface $-1 0 0 -16.3138470068297 0 0 1 1 0 0 forward_v I I I I #
coedge $-1 $398 $283 $396 $441 reversed $180 $-1 #
coedge $-1 $283 $398 $287 $390 reversed $180 $-1 #
coedge $-1 $285 $284 $283 $387 reversed $108 $-1 #
edge $-1 $391 -16.3138470068297 $442 16.3138470068297 $386 $443 forward 7 unknown #
edge $-1 $442 -46.8616841099944 $295 -33.983637736830012 $284 $444 forward 7 unknown #
straight-curve $-1 -71.71971800897245 -33.983637736830012 0 0 0 -1 I I #
edge $-1 $391 -2.9175931530113388 $393 2.9175931530113388 $385 $445 forward 7 unknown #
vertex $-1 $288 $446 #
straight-curve $-1 -71.71971800897245 0 16.3138470068297 0 -1 0 I I #
vertex $-1 $289 $447 #
straight-curve $-1 -65.884531702949772 -40.422660923412209 16.3138470068297 0 1 0 I I #
point $-1 -71.71971800897245 -33.983637736830012 16.3138470068297 #
coedge $-1 $293 $292 $384 $441 forward $294 $-1 #
point $-1 -71.71971800897245 -33.983637736830012 -16.3138470068297 #
coedge $-1 $385 $384 $297 $399 reversed $180 $-1 #
edge $-1 $393 -16.3138470068297 $400 16.3138470068297 $297 $448 forward 7 unknown #
vertex $-1 $399 $449 #
straight-curve $-1 -65.884531702949772 -40.422660923412209 -16.3138470068297 0 -1 0 I I #
coedge $-1 $312 $311 $304 $403 forward $301 $-1 #
edge $-1 $404 89.022742326931436 $407 97.486510773870037 $402 $450 forward 7 unknown #
vertex $-1 $316 $451 #
straight-curve $-1 37.630005398293378 -5.2566048016460662 16.313847006829704 1 0 0 I I #
edge $-1 $407 -5.5522093978800982 $313 6.143418590348162 $312 $452 forward 7 unknown #
vertex $-1 $406 $453 #
straight-curve $-1 -27.921685651035986 -5.2566048016460662 111.03177500751383 -0.69465836192734942 0 0.71933980857756763 I I #
point $-1 63.546352021194267 -5.2566048016460662 16.313847006829718 #
point $-1 71.719718008972436 6.4390231865821939 7.8500785598911023 #
straight-curve $-1 71.71971800897245 0 16.3138470068297 0 1 0 I I #
vertex $-1 $319 $454 #
point $-1 66.945830452509199 0.5912091924680638 7.9429281293013734 #
coedge $-1 $336 $328 $325 $415 forward $323 $-1 #
edge $-1 $331 25.916346622900889 $422 34.089712610679072 $414 $455 forward 7 unknown #
edge $-1 $422 89.022742326931436 $332 97.486510773870037 $326 $456 forward 7 unknown #
straight-curve $-1 71.71971800897245 0.2956045962340319 7.8500785598911023 0 1 0 I I #
straight-curve $-1 63.546352021194259 0.2956045962340319 16.313847006829718 0 -1 0 I I #
point $-1 63.546352021194267 6.4390231865821939 16.313847006829718 #
point $-1 71.719718008972436 6.4390231865821939 7.8500785598911023 #
point $-1 63.546352021194267 18.134651174810447 16.313847006829718 #
vertex $-1 $338 $457 #
straight-curve $-1 71.71971800897245 0 16.3138470068297 0 1 0 I I #
vertex $-1 $341 $458 #
point $-1 66.945830452509199 12.286837180696317 7.9429281293013734 #
edge $-1 $427 26.109594746737248 $430 35.699272494372437 $346 $459 forward 7 unknown #
vertex $-1 $360 $460 #
straight-curve $-1 -96.009076214024617 -2.0278907270418074 16.313847006829697 -1 0 0 I I #
edge $-1 $430 -1.2505761943138491 $357 7.8075100370251622 $356 $461 forward 7 unknown #
vertex $-1 $429 $462 #
straight-curve $-1 -71.719718008972478 -2.0278907270418074 6.7241692591944684 0.54463902268945019 0 0.83867057594974714 I I #
point $-1 -65.492108663712969 -2.0278907270418074 16.3138470068297 #
point $-1 -71.71971800897245 -11.085976958380819 6.7241692591945119 #
straight-curve $-1 -71.71971800897245 0 16.3138470068297 0 -1 0 I I #
vertex $-1 $363 $463 #
point $-1 -65.39642780083291 -6.5569338427113131 10.627107204511162 #
straight-curve $-1 -71.71971800897245 33.983637736830012 0 0 0 -1 I I #
point $-1 -71.71971800897245 -33.983637736830012 -16.3138470068297 #
straight-curve $-1 -71.71971800897245 0 -16.3138470068297 0 1 0 I I #
point $-1 -71.71971800897245 33.983637736830012 -16.3138470068297 #
edge $-1 $400 -2.9175931530113388 $442 2.9175931530113388 $384 $464 forward 7 unknown #
vertex $-1 $388 $465 #
straight-curve $-1 -71.71971800897245 -46.8616841099944 0 0 0 -1 I I #
straight-curve $-1 -71.71971800897245 0 -16.3138470068297 0 1 0 I I #
straight-curve $-1 -68.802124855961111 -46.8616841099944 16.3138470068297 1 0 0 I I #
point $-1 -71.71971800897245 -46.8616841099944 16.3138470068297 #
point $-1 -65.884531702949772 -46.8616841099944 16.3138470068297 #
straight-curve $-1 -65.884531702949772 -46.8616841099944 0 0 0 -1 I I #
point $-1 -65.884531702949772 -46.8616841099944 -16.3138470068297 #
straight-curve $-1 71.71971800897245 -5.2566048016460662 105.33658933376114 0 0 -1 I I #
point $-1 71.71971800897245 -5.2566048016460662 16.3138470068297 #
straight-curve $-1 71.71971800897245 0.2956045962340319 7.8500785598911023 0 1 0 I I #
point $-1 71.719718008972436 -5.2566048016460662 7.8500785598911023 #
point $-1 63.4108350262469 0.5912091924680638 8.0046317459269183 #
straight-curve $-1 37.630005398293378 6.4390231865821939 16.313847006829704 1 0 0 I I #
straight-curve $-1 71.71971800897245 6.4390231865821939 105.33658933376114 0 0 -1 I I #
point $-1 71.71971800897245 6.4390231865821939 16.3138470068297 #
point $-1 63.4108350262469 12.286837180696317 8.0046317459269183 #
straight-curve $-1 -71.71971800897245 -2.0278907270418074 42.423441753566948 0 0 -1 I I #
point $-1 -71.71971800897245 -2.0278907270418074 16.3138470068297 #
straight-curve $-1 -71.71971800897245 -3.2784669213556565 6.7241692591945021 0 -1 0 I I #
point $-1 -71.71971800897245 -2.0278907270418074 6.7241692591945119 #
point $-1 -65.102396247572614 -6.5569338427113131 9.2437976058719666 #
straight-curve $-1 -68.802124855961111 -46.8616841099944 -16.3138470068297 -1 0 0 I I #
point $-1 -71.71971800897245 -46.8616841099944 -16.3138470068297 #
End-of-ACIS-data 