500 0 8 0           
7 Unknown 11 ACIS 5.0 NT 24 Thu Mar 25 23:14:10 1999 
-1 9.9999999999999995e-007 1e-010 
body $-1 $8 $-1 $9 #
body $-1 $10 $-1 $11 #
body $-1 $12 $-1 $13 #
body $-1 $14 $-1 $15 #
body $-1 $16 $-1 $17 #
body $-1 $18 $-1 $19 #
body $-1 $20 $-1 $21 #
body $-1 $22 $-1 $23 #
lump $-1 $-1 $24 $0 #
transform $-1 1 0 0 0 1 0 0 0 1 58.057191686758017 37.268971437628529 9.7563336038602859 1 rotate no_reflect no_shear #
lump $-1 $-1 $25 $1 #
transform $-1 1 0 0 0 1 0 0 0 1 58.057191686758017 37.268971437628529 9.7563336038602859 1 rotate no_reflect no_shear #
lump $-1 $-1 $26 $2 #
transform $-1 1 0 0 0 1 0 0 0 1 58.057191686758017 37.268971437628529 9.7563336038602859 1 rotate no_reflect no_shear #
lump $-1 $-1 $27 $3 #
transform $-1 1 0 0 0 1 0 0 0 1 58.057191686758017 37.268971437628529 9.7563336038602859 1 rotate no_reflect no_shear #
lump $-1 $-1 $28 $4 #
transform $-1 1 0 0 0 1 0 0 0 1 58.057191686758017 37.268971437628529 9.7563336038602859 1 rotate no_reflect no_shear #
lump $-1 $-1 $29 $5 #
transform $-1 1 0 0 0 1 0 0 0 1 58.057191686758017 37.268971437628529 9.7563336038602859 1 rotate no_reflect no_shear #
lump $-1 $-1 $30 $6 #
transform $-1 1 0 0 0 1 0 0 0 1 58.057191686758017 37.268971437628529 9.7563336038602859 1 rotate no_reflect no_shear #
lump $-1 $-1 $31 $7 #
transform $-1 1 0 0 0 1 0 0 0 1 58.057191686758017 37.268971437628529 9.7563336038602859 1 rotate no_reflect no_shear #
shell $-1 $-1 $-1 $32 $-1 $8 #
shell $-1 $-1 $-1 $33 $-1 $10 #
shell $-1 $-1 $-1 $34 $-1 $12 #
shell $-1 $-1 $-1 $35 $-1 $14 #
shell $-1 $-1 $-1 $36 $-1 $16 #
shell $-1 $-1 $-1 $37 $-1 $18 #
shell $-1 $-1 $-1 $38 $-1 $20 #
shell $-1 $-1 $-1 $39 $-1 $22 #
face $-1 $40 $41 $24 $-1 $42 forward single #
face $-1 $43 $44 $25 $-1 $45 reversed single #
face $-1 $46 $47 $26 $-1 $48 reversed single #
face $-1 $49 $50 $27 $-1 $51 forward single #
face $-1 $52 $53 $28 $-1 $54 forward single #
face $-1 $55 $56 $29 $-1 $57 reversed single #
face $-1 $58 $59 $30 $-1 $60 forward single #
face $-1 $61 $62 $31 $-1 $63 forward single #
face $-1 $64 $65 $24 $-1 $66 reversed single #
loop $-1 $-1 $67 $32 #
plane-surface $-1 0 0 9.7563336038602859 0 0 1 1 0 0 forward_v I I I I #
face $-1 $68 $69 $25 $-1 $70 reversed single #
loop $-1 $-1 $71 $33 #
plane-surface $-1 0 -31.377181511082597 5.3117187706969204 0 0 1 1 0 0 forward_v I I I I #
face $-1 $72 $73 $26 $-1 $74 reversed single #
loop $-1 $-1 $75 $34 #
plane-surface $-1 -58.057191686758003 -20.321615489730522 3.7595211828725468 -0.6018150307709319 0 0.79863550430605224 0.79863550430605224 0 0.6018150307709319 forward_v I I I I #
face $-1 $76 $77 $27 $-1 $78 forward single #
loop $-1 $79 $80 $35 #
cone-surface $-1 -53.422672027381147 -22.534662387504582 5.8880491271631286 0.6018150307709319 0 -0.79863550430605224 0.79863550430605224 0 0.6018150307709319 1 I I 0 1 1 forward I I I I #
face $-1 $81 $82 $28 $-1 $83 forward single #
loop $-1 $84 $85 $36 #
cone-surface $-1 -53.422672027381147 -18.108568591956463 5.8880491271631286 0.6018150307709319 0 -0.79863550430605224 0.79863550430605224 0 0.6018150307709319 1 I I 0 1 1 forward I I I I #
face $-1 $86 $87 $29 $-1 $88 reversed single #
loop $-1 $-1 $89 $37 #
plane-surface $-1 35.203503766944081 -15.15783939492438 166.37197150844713 0 -1 0 -0.6018150307709319 0 -0.79863550430605224 forward_v I I I I #
face $-1 $90 $91 $30 $-1 $92 forward single #
loop $-1 $93 $94 $38 #
cone-surface $-1 53.422672027381154 -22.534662387504582 5.8880491271631179 -0.6018150307709319 0 -0.79863550430605224 0.79863550430605224 0 -0.6018150307709319 1 I I 0 1 1 forward I I I I #
face $-1 $95 $96 $31 $-1 $97 forward single #
loop $-1 $98 $99 $39 #
cone-surface $-1 53.422672027381154 -18.108568591956463 5.8880491271631179 -0.6018150307709319 0 -0.79863550430605224 0.79863550430605224 0 -0.6018150307709319 1 I I 0 1 1 forward I I I I #
face $-1 $100 $101 $24 $-1 $102 reversed single #
loop $-1 $-1 $103 $40 #
plane-surface $-1 0 0 -9.7563336038602859 0 0 1 1 0 0 forward_v I I I I #
coedge $-1 $104 $105 $106 $107 forward $41 $-1 #
face $-1 $108 $109 $25 $-1 $110 reversed single #
loop $-1 $-1 $111 $43 #
plane-surface $-1 0 -25.485391584536664 7.5340261872786041 0 -1 0 0 0 -1 forward_v I I I I #
coedge $-1 $112 $113 $114 $115 reversed $44 $-1 #
face $-1 $116 $117 $26 $-1 $118 forward single #
loop $-1 $-1 $119 $46 #
plane-surface $-1 -127.93657288963834 -15.15783939492438 96.492590305566807 0 -1 0 0.6018150307709319 0 -0.79863550430605224 forward_v I I I I #
coedge $-1 $120 $121 $122 $123 reversed $47 $-1 #
face $-1 $-1 $124 $27 $-1 $125 forward single #
loop $-1 $126 $127 $49 #
cone-surface $-1 -52.466264208391003 -22.534662387504582 4.6188531088068192 0.6018150307709319 0 -0.79863550430605224 0.39931775215302612 0 0.30090751538546595 1 I I -0.70710678118654746 0.70710678118654746 0.5 forward I I I I #
loop $-1 $-1 $128 $35 #
coedge $-1 $80 $80 $129 $130 reversed $50 $-1 #
face $-1 $-1 $131 $28 $-1 $132 forward single #
loop $-1 $133 $134 $52 #
cone-surface $-1 -52.466264208391003 -18.108568591956463 4.6188531088068192 0.6018150307709319 0 -0.79863550430605224 0.39931775215302612 0 0.30090751538546595 1 I I -0.70710678118654746 0.70710678118654746 0.5 forward I I I I #
loop $-1 $-1 $135 $36 #
coedge $-1 $85 $85 $136 $137 reversed $53 $-1 #
face $-1 $138 $139 $29 $-1 $140 forward single #
loop $-1 $-1 $141 $55 #
plane-surface $-1 -34.675877435936258 -20.321615489730522 73.638902385752871 0.6018150307709319 0 0.79863550430605224 0.79863550430605224 0 -0.6018150307709319 forward_v I I I I #
coedge $-1 $142 $143 $144 $145 reversed $56 $-1 #
face $-1 $-1 $146 $30 $-1 $147 forward single #
loop $-1 $148 $149 $58 #
cone-surface $-1 52.46626420839101 -22.534662387504582 4.6188531088068085 -0.6018150307709319 0 -0.79863550430605224 0.39931775215302612 0 -0.30090751538546595 1 I I -0.70710678118654746 0.70710678118654746 0.5 forward I I I I #
loop $-1 $-1 $150 $38 #
coedge $-1 $94 $94 $151 $152 reversed $59 $-1 #
face $-1 $-1 $153 $31 $-1 $154 forward single #
loop $-1 $155 $156 $61 #
cone-surface $-1 52.46626420839101 -18.108568591956463 4.6188531088068085 -0.6018150307709319 0 -0.79863550430605224 0.39931775215302612 0 -0.30090751538546595 1 I I -0.70710678118654746 0.70710678118654746 0.5 forward I I I I #
loop $-1 $-1 $157 $39 #
coedge $-1 $99 $99 $158 $159 reversed $62 $-1 #
face $-1 $160 $161 $24 $-1 $162 reversed single #
loop $-1 $-1 $163 $64 #
plane-surface $-1 0 -37.268971437628529 0 0 1 0 0 0 1 forward_v I I I I #
coedge $-1 $164 $165 $166 $167 forward $65 $-1 #
coedge $-1 $168 $67 $169 $170 forward $41 $-1 #
coedge $-1 $67 $168 $171 $172 forward $41 $-1 #
coedge $-1 $173 $174 $67 $107 reversed $175 $-1 #
edge $-1 $176 -37.268971437628529 $177 37.268971437628529 $106 $178 forward 7 unknown #
face $-1 $179 $180 $25 $-1 $181 reversed single #
loop $-1 $-1 $182 $68 #
plane-surface $-1 -58.057191686758017 0 0 1 0 0 0 0 -1 forward_v I I I I #
coedge $-1 $183 $184 $185 $186 reversed $69 $-1 #
coedge $-1 $187 $71 $188 $189 reversed $44 $-1 #
coedge $-1 $71 $187 $183 $190 forward $44 $-1 #
coedge $-1 $185 $191 $71 $115 forward $192 $-1 #
edge $-1 $193 -21.580380682087231 $194 -9.7968008289953659 $114 $195 forward 7 unknown #
face $-1 $196 $197 $26 $-1 $198 reversed single #
loop $-1 $-1 $122 $72 #
plane-surface $-1 0 0 9.7563336038602859 0 0 1 1 0 0 forward_v I I I I #
coedge $-1 $199 $200 $201 $202 reversed $73 $-1 #
coedge $-1 $203 $75 $204 $205 reversed $47 $-1 #
coedge $-1 $75 $203 $199 $206 forward $47 $-1 #
coedge $-1 $201 $207 $75 $123 forward $117 $-1 #
edge $-1 $208 -15.324583839671403 $209 -4.9970316500591192 $122 $210 forward 7 unknown #
loop $-1 $-1 $129 $76 #
plane-surface $-1 -58.057191686758003 -20.321615489730522 3.7595211828725468 -0.6018150307709319 0 0.79863550430605224 0.79863550430605224 0 0.6018150307709319 forward_v I I I I #
loop $-1 $-1 $211 $49 #
coedge $-1 $127 $127 $128 $212 reversed $77 $-1 #
coedge $-1 $128 $128 $127 $212 forward $79 $-1 #
coedge $-1 $129 $129 $80 $130 forward $124 $-1 #
edge $-1 $213 0 $213 6.2831853071796004 $129 $214 forward 7 unknown #
loop $-1 $-1 $136 $81 #
plane-surface $-1 -58.057191686758003 -20.321615489730522 3.7595211828725468 -0.6018150307709319 0 0.79863550430605224 0.79863550430605224 0 0.6018150307709319 forward_v I I I I #
loop $-1 $-1 $215 $52 #
coedge $-1 $134 $134 $135 $216 reversed $82 $-1 #
coedge $-1 $135 $135 $134 $216 forward $84 $-1 #
coedge $-1 $136 $136 $85 $137 forward $131 $-1 #
edge $-1 $217 0 $217 6.2831853071796004 $136 $218 forward 7 unknown #
face $-1 $219 $220 $29 $-1 $221 forward single #
loop $-1 $-1 $222 $86 #
plane-surface $-1 0 -25.485391584536664 7.5340261872786041 0 -1 0 0 0 -1 forward_v I I I I #
coedge $-1 $223 $224 $225 $226 reversed $87 $-1 #
coedge $-1 $143 $89 $227 $228 reversed $56 $-1 #
coedge $-1 $89 $142 $223 $229 reversed $56 $-1 #
coedge $-1 $225 $230 $89 $145 forward $220 $-1 #
edge $-1 $231 -40.455439803285977 $232 -32.497401091741587 $144 $233 forward 7 unknown #
loop $-1 $-1 $151 $90 #
plane-surface $-1 -34.675877435936258 -20.321615489730522 73.638902385752871 0.6018150307709319 0 0.79863550430605224 0.79863550430605224 0 -0.6018150307709319 forward_v I I I I #
loop $-1 $-1 $234 $58 #
coedge $-1 $149 $149 $150 $235 reversed $91 $-1 #
coedge $-1 $150 $150 $149 $235 forward $93 $-1 #
coedge $-1 $151 $151 $94 $152 forward $146 $-1 #
edge $-1 $236 0 $236 6.2831853071796004 $151 $237 forward 7 unknown #
loop $-1 $-1 $158 $95 #
plane-surface $-1 -34.675877435936258 -20.321615489730522 73.638902385752871 0.6018150307709319 0 0.79863550430605224 0.79863550430605224 0 -0.6018150307709319 forward_v I I I I #
loop $-1 $-1 $238 $61 #
coedge $-1 $156 $156 $157 $239 reversed $96 $-1 #
coedge $-1 $157 $157 $156 $239 forward $98 $-1 #
coedge $-1 $158 $158 $99 $159 forward $153 $-1 #
edge $-1 $240 0 $240 6.2831853071796004 $158 $241 forward 7 unknown #
face $-1 $242 $243 $24 $-1 $244 reversed single #
loop $-1 $-1 $245 $100 #
plane-surface $-1 -58.057191686758017 0 0 1 0 0 0 0 -1 forward_v I I I I #
coedge $-1 $246 $171 $247 $248 forward $101 $-1 #
coedge $-1 $249 $103 $246 $250 forward $65 $-1 #
coedge $-1 $103 $249 $251 $252 forward $65 $-1 #
coedge $-1 $174 $173 $103 $167 reversed $175 $-1 #
edge $-1 $253 -37.268971437628529 $254 37.268971437628529 $166 $255 forward 7 unknown #
coedge $-1 $105 $104 $256 $257 forward $41 $-1 #
coedge $-1 $258 $259 $104 $170 reversed $243 $-1 #
edge $-1 $177 -58.057191686758017 $260 58.057191686758017 $169 $261 forward 7 unknown #
coedge $-1 $163 $262 $105 $172 reversed $101 $-1 #
edge $-1 $263 -58.057191686758017 $176 58.057191686758017 $171 $264 forward 7 unknown #
coedge $-1 $166 $106 $262 $265 forward $175 $-1 #
coedge $-1 $106 $166 $258 $266 reversed $175 $-1 #
loop $-1 $-1 $173 $242 #
vertex $-1 $107 $267 #
vertex $-1 $107 $268 #
straight-curve $-1 58.057191686758017 0 9.7563336038602859 0 1 0 I I #
face $-1 $269 $270 $25 $-1 $271 forward single #
loop $-1 $-1 $188 $108 #
plane-surface $-1 0 -37.268971437628529 0 0 1 0 0 0 1 forward_v I I I I #
coedge $-1 $272 $273 $274 $275 forward $109 $-1 #
coedge $-1 $274 $111 $113 $190 reversed $69 $-1 #
coedge $-1 $111 $274 $276 $277 reversed $69 $-1 #
coedge $-1 $278 $114 $111 $186 forward $192 $-1 #
edge $-1 $194 1.5447056770576184 $279 5.9893205102209857 $185 $280 forward 7 unknown #
coedge $-1 $113 $112 $272 $281 reversed $44 $-1 #
coedge $-1 $282 $283 $112 $189 forward $180 $-1 #
edge $-1 $284 -58.057191686758017 $193 58.057191686758017 $188 $285 forward 7 unknown #
edge $-1 $286 -58.057191686758017 $194 58.057191686758017 $183 $287 forward 7 unknown #
coedge $-1 $114 $278 $282 $288 forward $192 $-1 #
loop $-1 $-1 $185 $269 #
vertex $-1 $189 $289 #
vertex $-1 $115 $290 #
straight-curve $-1 58.057191686758017 -15.688590755541298 5.3117187706969204 0 1 0 I I #
face $-1 $-1 $291 $26 $-1 $292 forward single #
loop $-1 $-1 $293 $116 #
plane-surface $-1 -58.057191686758017 0 0 1 0 0 0 0 -1 forward_v I I I I #
coedge $-1 $200 $119 $121 $206 reversed $73 $-1 #
coedge $-1 $119 $199 $293 $294 reversed $73 $-1 #
coedge $-1 $295 $122 $119 $202 forward $117 $-1 #
edge $-1 $209 -13.869133469605536 $296 -5.9110947580611537 $201 $297 forward 7 unknown #
coedge $-1 $121 $120 $298 $299 reversed $47 $-1 #
coedge $-1 $300 $301 $120 $205 forward $291 $-1 #
edge $-1 $302 -24.319044203359411 $208 -14.354500092013833 $204 $303 forward 7 unknown #
edge $-1 $304 -1.7763522597878294e-014 $209 9.9645441113455657 $199 $305 forward 7 unknown #
coedge $-1 $122 $295 $300 $306 forward $117 $-1 #
vertex $-1 $205 $307 #
vertex $-1 $123 $308 #
straight-curve $-1 -50.099152975213642 -10.160807744865261 9.7563336038602859 0 1 0 I I #
coedge $-1 $211 $211 $-1 $309 reversed $126 $-1 #
edge $-1 $310 0 $310 6.2831853071796004 $127 $311 forward 7 unknown #
vertex $-1 $130 $312 #
ellipse-curve $-1 -54.078172330985822 -22.534662387504582 6.757927393366411 -0.6018150307709319 0 0.79863550430605224 0.79863550430605224 0 0.6018150307709319 1 I I #
coedge $-1 $215 $215 $-1 $313 reversed $133 $-1 #
edge $-1 $314 0 $314 6.2831853071796004 $134 $315 forward 7 unknown #
vertex $-1 $137 $316 #
ellipse-curve $-1 -54.078172330985822 -18.108568591956463 6.757927393366411 -0.6018150307709319 0 0.79863550430605224 0.79863550430605224 0 0.6018150307709319 1 I I #
face $-1 $-1 $317 $29 $-1 $318 reversed single #
loop $-1 $-1 $225 $138 #
plane-surface $-1 0 0 9.7563336038602859 0 0 1 1 0 0 forward_v I I I I #
coedge $-1 $319 $320 $224 $321 reversed $139 $-1 #
coedge $-1 $322 $141 $143 $229 forward $87 $-1 #
coedge $-1 $141 $322 $222 $321 forward $87 $-1 #
coedge $-1 $323 $144 $141 $226 forward $220 $-1 #
edge $-1 $232 4.9970316500591192 $324 15.324583839671403 $225 $325 forward 7 unknown #
coedge $-1 $326 $327 $142 $228 forward $317 $-1 #
edge $-1 $328 -79.426464571351033 $231 -73.429652150363282 $227 $329 forward 7 unknown #
edge $-1 $232 106.14983926217046 $328 116.11438337351605 $143 $330 forward 7 unknown #
coedge $-1 $144 $323 $326 $331 forward $220 $-1 #
vertex $-1 $228 $332 #
vertex $-1 $145 $333 #
straight-curve $-1 17.601751883472041 -15.15783939492438 9.7563336038602841 -1 0 0 I I #
coedge $-1 $234 $234 $-1 $334 reversed $148 $-1 #
edge $-1 $335 0 $335 6.2831853071796004 $149 $336 forward 7 unknown #
vertex $-1 $152 $337 #
ellipse-curve $-1 54.078172330985829 -22.534662387504582 6.7579273933663995 0.6018150307709319 0 0.79863550430605224 0.79863550430605224 0 -0.6018150307709319 1 I I #
coedge $-1 $238 $238 $-1 $338 reversed $155 $-1 #
edge $-1 $339 0 $339 6.2831853071796004 $156 $340 forward 7 unknown #
vertex $-1 $159 $341 #
ellipse-curve $-1 54.078172330985829 -18.108568591956463 6.7579273933663995 0.6018150307709319 0 0.79863550430605224 0.79863550430605224 0 -0.6018150307709319 1 I I #
face $-1 $-1 $175 $24 $-1 $342 reversed single #
loop $-1 $-1 $258 $160 #
plane-surface $-1 0 37.268971437628529 0 0 -1 0 0 0 -1 forward_v I I I I #
coedge $-1 $343 $256 $259 $344 forward $161 $-1 #
coedge $-1 $262 $163 $164 $250 reversed $101 $-1 #
coedge $-1 $256 $343 $163 $248 reversed $161 $-1 #
edge $-1 $263 -9.7563336038602859 $345 9.7563336038602859 $247 $346 forward 7 unknown #
coedge $-1 $165 $164 $343 $347 forward $65 $-1 #
edge $-1 $254 -58.057191686758017 $345 58.057191686758017 $246 $348 forward 7 unknown #
coedge $-1 $259 $258 $165 $252 reversed $243 $-1 #
edge $-1 $349 -58.057191686758017 $253 58.057191686758017 $251 $350 forward 7 unknown #
vertex $-1 $167 $351 #
vertex $-1 $265 $352 #
straight-curve $-1 58.057191686758017 0 -9.7563336038602859 0 -1 0 I I #
coedge $-1 $245 $247 $168 $257 reversed $161 $-1 #
edge $-1 $260 -37.268971437628529 $263 37.268971437628529 $256 $353 forward 7 unknown #
coedge $-1 $251 $169 $174 $266 forward $243 $-1 #
coedge $-1 $169 $251 $245 $344 reversed $243 $-1 #
vertex $-1 $170 $354 #
straight-curve $-1 0 37.268971437628529 9.7563336038602859 -1 0 0 I I #
coedge $-1 $171 $246 $173 $265 reversed $101 $-1 #
vertex $-1 $257 $355 #
straight-curve $-1 0 -37.268971437628529 9.7563336038602859 1 0 0 I I #
edge $-1 $176 -9.7563336038602859 $254 9.7563336038602859 $173 $356 forward 7 unknown #
edge $-1 $177 -9.7563336038602859 $253 9.7563336038602859 $174 $357 forward 7 unknown #
point $-1 58.057191686758017 -37.268971437628529 9.7563336038602859 #
point $-1 58.057191686758017 37.268971437628529 9.7563336038602859 #
face $-1 $-1 $192 $25 $-1 $358 reversed single #
loop $-1 $-1 $276 $179 #
plane-surface $-1 0 0 9.7563336038602859 0 0 1 1 0 0 forward_v I I I I #
coedge $-1 $359 $182 $187 $281 forward $109 $-1 #
coedge $-1 $182 $359 $360 $361 reversed $109 $-1 #
coedge $-1 $184 $183 $182 $275 reversed $69 $-1 #
edge $-1 $362 -5.9893205102209857 $286 -1.5447056770576184 $182 $363 forward 7 unknown #
coedge $-1 $360 $364 $184 $277 forward $270 $-1 #
edge $-1 $279 -58.057191686758017 $362 58.057191686758017 $276 $365 forward 7 unknown #
coedge $-1 $191 $185 $364 $366 reversed $192 $-1 #
vertex $-1 $186 $367 #
straight-curve $-1 58.057191686758017 -25.485391584536664 3.767013093639302 0 0 1 I I #
edge $-1 $286 9.7968008289953659 $284 21.580380682087231 $272 $368 forward 7 unknown #
coedge $-1 $369 $188 $191 $288 reversed $180 $-1 #
coedge $-1 $188 $369 $359 $370 forward $180 $-1 #
vertex $-1 $189 $371 #
straight-curve $-1 0 -37.268971437628529 5.3117187706969204 1 0 0 I I #
vertex $-1 $281 $372 #
straight-curve $-1 0 -25.485391584536664 5.3117187706969204 1 0 0 I I #
edge $-1 $373 -9.7563336038602859 $193 -5.3117187706969204 $191 $374 forward 7 unknown #
point $-1 58.057191686758017 -37.268971437628529 5.3117187706969204 #
point $-1 58.057191686758017 -25.485391584536664 5.3117187706969204 #
loop $-1 $-1 $204 $196 #
plane-surface $-1 0 -25.485391584536664 7.5340261872786041 0 -1 0 0 0 -1 forward_v I I I I #
coedge $-1 $298 $375 $200 $294 forward $197 $-1 #
edge $-1 $296 38.489961548923119 $304 44.486773969910871 $293 $376 forward 7 unknown #
coedge $-1 $207 $201 $375 $377 forward $117 $-1 #
vertex $-1 $377 $378 #
straight-curve $-1 -63.968286444819171 -15.15783939492438 9.7563336038602841 -1 0 0 I I #
coedge $-1 $379 $293 $203 $299 forward $197 $-1 #
edge $-1 $304 4.9970316500591192 $302 15.324583839671403 $298 $380 forward 7 unknown #
coedge $-1 $301 $204 $207 $306 reversed $291 $-1 #
coedge $-1 $204 $300 $379 $381 reversed $291 $-1 #
vertex $-1 $381 $382 #
straight-curve $-1 -38.635139555166901 -25.485391584536664 18.395087518436934 0.79863550430605224 0 0.6018150307709319 I I #
vertex $-1 $299 $383 #
straight-curve $-1 -58.057191686758003 -15.15783939492438 3.7595211828725468 0.79863550430605224 0 0.6018150307709319 I I #
edge $-1 $384 -58.057191686758017 $208 -50.099152975213642 $207 $385 forward 7 unknown #
point $-1 -50.099152975213642 -25.485391584536664 9.7563336038602859 #
point $-1 -50.099152975213634 -15.15783939492438 9.7563336038602859 #
edge $-1 $386 1 $386 0 $211 $-1 forward 7 unknown #
vertex $-1 $212 $387 #
ellipse-curve $-1 -52.767171723776471 -22.534662387504582 5.0181708609598452 -0.6018150307709319 0 0.79863550430605224 0.79863550430605224 0 0.6018150307709319 1 I I #
point $-1 -53.279536826679774 -22.534662387504582 7.3597424241373446 #
edge $-1 $388 1 $388 0 $215 $-1 forward 7 unknown #
vertex $-1 $216 $389 #
ellipse-curve $-1 -52.767171723776471 -18.108568591956463 5.0181708609598452 -0.6018150307709319 0 0.79863550430605224 0.79863550430605224 0 0.6018150307709319 1 I I #
point $-1 -53.279536826679774 -18.108568591956463 7.3597424241373446 #
loop $-1 $-1 $227 $219 #
plane-surface $-1 58.057191686758017 0 0 -1 0 0 0 0 1 forward_v I I I I #
coedge $-1 $320 $222 $390 $391 reversed $139 $-1 #
coedge $-1 $222 $319 $323 $392 reversed $139 $-1 #
edge $-1 $393 -116.11438337351605 $324 -106.14983926217046 $222 $394 forward 7 unknown #
coedge $-1 $224 $223 $327 $395 reversed $87 $-1 #
coedge $-1 $230 $225 $320 $392 forward $220 $-1 #
vertex $-1 $392 $396 #
straight-curve $-1 50.099152975213627 -10.160807744865261 9.7563336038602841 0 -1 0 I I #
coedge $-1 $390 $227 $230 $331 reversed $317 $-1 #
coedge $-1 $227 $390 $322 $395 forward $317 $-1 #
vertex $-1 $228 $397 #
straight-curve $-1 58.057191686758017 -15.15783939492438 83.185985754223566 0 0 1 I I #
straight-curve $-1 -34.675877435936258 -15.15783939492438 73.638902385752871 0.79863550430605224 0 -0.6018150307709319 I I #
edge $-1 $398 -25.485391584536664 $231 -15.15783939492438 $326 $399 forward 7 unknown #
point $-1 58.057191686758017 -15.15783939492438 9.7563336038602859 #
point $-1 50.099152975213627 -15.15783939492438 9.7563336038602841 #
edge $-1 $400 1 $400 0 $234 $-1 forward 7 unknown #
vertex $-1 $235 $401 #
ellipse-curve $-1 52.767171723776478 -22.534662387504582 5.0181708609598346 0.6018150307709319 0 0.79863550430605224 0.79863550430605224 0 -0.6018150307709319 1 I I #
point $-1 54.876807835291885 -22.534662387504582 6.1561123625954703 #
edge $-1 $402 1 $402 0 $238 $-1 forward 7 unknown #
vertex $-1 $239 $403 #
ellipse-curve $-1 52.767171723776478 -18.108568591956463 5.0181708609598346 0.6018150307709319 0 0.79863550430605224 0.79863550430605224 0 -0.6018150307709319 1 I I #
point $-1 54.876807835291885 -18.108568591956463 6.1561123625954703 #
plane-surface $-1 58.057191686758017 0 0 -1 0 0 0 0 1 forward_v I I I I #
coedge $-1 $247 $245 $249 $347 reversed $161 $-1 #
edge $-1 $260 -9.7563336038602859 $349 9.7563336038602859 $259 $404 forward 7 unknown #
vertex $-1 $347 $405 #
straight-curve $-1 -58.057191686758017 -37.268971437628529 0 0 0 -1 I I #
edge $-1 $345 -37.268971437628529 $349 37.268971437628529 $343 $406 forward 7 unknown #
straight-curve $-1 0 -37.268971437628529 -9.7563336038602859 -1 0 0 I I #
vertex $-1 $252 $407 #
straight-curve $-1 0 37.268971437628529 -9.7563336038602859 1 0 0 I I #
point $-1 58.057191686758017 37.268971437628529 -9.7563336038602859 #
point $-1 58.057191686758017 -37.268971437628529 -9.7563336038602859 #
straight-curve $-1 -58.057191686758017 0 9.7563336038602859 0 -1 0 I I #
point $-1 -58.057191686758017 37.268971437628529 9.7563336038602859 #
point $-1 -58.057191686758017 -37.268971437628529 9.7563336038602859 #
straight-curve $-1 58.057191686758017 -37.268971437628529 0 0 0 -1 I I #
straight-curve $-1 58.057191686758017 37.268971437628529 0 0 0 -1 I I #
plane-surface $-1 58.057191686758017 0 0 -1 0 0 0 0 1 forward_v I I I I #
coedge $-1 $273 $272 $283 $370 reversed $109 $-1 #
coedge $-1 $408 $276 $273 $361 forward $270 $-1 #
edge $-1 $362 25.485391584536664 $409 37.268971437628529 $273 $410 forward 7 unknown #
vertex $-1 $361 $411 #
straight-curve $-1 -58.057191686758017 -25.485391584536664 3.767013093639302 0 0 -1 I I #
coedge $-1 $276 $408 $278 $366 forward $270 $-1 #
straight-curve $-1 0 -25.485391584536664 9.7563336038602859 -1 0 0 I I #
edge $-1 $373 -37.268971437628529 $279 -25.485391584536664 $278 $412 forward 7 unknown #
point $-1 58.057191686758017 -25.485391584536664 9.7563336038602877 #
straight-curve $-1 -58.057191686758017 -15.688590755541298 5.3117187706969204 0 -1 0 I I #
coedge $-1 $283 $282 $408 $413 reversed $180 $-1 #
edge $-1 $409 -9.7563336038602859 $284 -5.3117187706969204 $359 $414 forward 7 unknown #
point $-1 -58.057191686758017 -37.268971437628529 5.3117187706969204 #
point $-1 -58.057191686758017 -25.485391584536664 5.3117187706969204 #
vertex $-1 $366 $415 #
straight-curve $-1 58.057191686758017 -37.268971437628529 0 0 0 -1 I I #
coedge $-1 $293 $379 $295 $377 reversed $197 $-1 #
straight-curve $-1 -58.057191686758017 -15.15783939492438 48.246295152783404 0 0 -1 I I #
edge $-1 $296 15.15783939492438 $384 25.485391584536664 $375 $416 forward 7 unknown #
point $-1 -58.057191686758017 -15.15783939492438 9.7563336038602859 #
coedge $-1 $375 $298 $301 $381 forward $197 $-1 #
straight-curve $-1 -58.057191686758017 -10.160807744865261 3.7595211828725366 0 -1 0 I I #
edge $-1 $302 -44.486773969910871 $384 -38.489961548923119 $379 $417 forward 7 unknown #
point $-1 -58.057191686758017 -25.485391584536664 3.7595211828725361 #
point $-1 -58.057191686758017 -15.15783939492438 3.7595211828725361 #
vertex $-1 $381 $418 #
straight-curve $-1 0 -25.485391584536664 9.7563336038602859 1 0 0 I I #
vertex $-1 $309 $419 #
point $-1 -51.968536219470415 -22.534662387504582 5.619985891730777 #
vertex $-1 $313 $420 #
point $-1 -51.968536219470415 -18.108568591956463 5.619985891730777 #
coedge $-1 $327 $326 $319 $391 forward $317 $-1 #
edge $-1 $398 73.429652150363282 $393 79.426464571351033 $390 $421 forward 7 unknown #
edge $-1 $324 50.099152975213627 $398 58.057191686758017 $323 $422 forward 7 unknown #
vertex $-1 $391 $423 #
straight-curve $-1 -34.675877435936258 -25.485391584536664 73.638902385752871 -0.79863550430605224 0 0.6018150307709319 I I #
edge $-1 $393 -15.324583839671403 $328 -4.9970316500591192 $327 $424 forward 7 unknown #
point $-1 50.099152975213627 -25.485391584536664 9.7563336038602859 #
point $-1 58.057191686758017 -15.15783939492438 3.7595211828725326 #
vertex $-1 $331 $425 #
straight-curve $-1 58.057191686758017 0 9.7563336038602859 0 1 0 I I #
vertex $-1 $334 $426 #
point $-1 53.565807228082527 -22.534662387504582 4.4163558301889028 #
vertex $-1 $338 $427 #
point $-1 53.565807228082527 -18.108568591956463 4.4163558301889028 #
straight-curve $-1 -58.057191686758017 37.268971437628529 0 0 0 -1 I I #
point $-1 -58.057191686758017 -37.268971437628529 -9.7563336038602859 #
straight-curve $-1 -58.057191686758017 0 -9.7563336038602859 0 1 0 I I #
point $-1 -58.057191686758017 37.268971437628529 -9.7563336038602859 #
coedge $-1 $364 $360 $369 $413 forward $270 $-1 #
vertex $-1 $361 $428 #
straight-curve $-1 -58.057191686758017 0 9.7563336038602859 0 -1 0 I I #
point $-1 -58.057191686758017 -25.485391584536664 9.7563336038602877 #
straight-curve $-1 58.057191686758017 0 9.7563336038602859 0 1 0 I I #
edge $-1 $409 -58.057191686758017 $373 58.057191686758017 $369 $429 forward 7 unknown #
straight-curve $-1 -58.057191686758017 -37.268971437628529 0 0 0 -1 I I #
point $-1 58.057191686758017 -37.268971437628529 9.7563336038602859 #
straight-curve $-1 -58.057191686758017 0 9.7563336038602859 0 -1 0 I I #
straight-curve $-1 -58.057191686758017 -25.485391584536664 48.246295152783404 0 0 1 I I #
point $-1 -58.057191686758017 -25.485391584536664 9.7563336038602877 #
point $-1 -52.165356693005535 -22.534662387504582 4.2195353566537932 #
point $-1 -52.165356693005535 -18.108568591956463 4.2195353566537932 #
straight-curve $-1 58.057191686758017 -25.485391584536664 83.185985754223566 0 0 -1 I I #
straight-curve $-1 0 -25.485391584536664 9.7563336038602859 1 0 0 I I #
point $-1 58.057191686758017 -25.485391584536664 3.7595211828725326 #
straight-curve $-1 58.057191686758017 -10.160807744865261 3.7595211828725255 0 1 0 I I #
point $-1 58.057191686758017 -25.485391584536664 9.7563336038602877 #
point $-1 52.165356693005542 -22.534662387504582 4.2195353566537825 #
point $-1 52.165356693005542 -18.108568591956463 4.2195353566537825 #
point $-1 -58.057191686758017 -37.268971437628529 9.7563336038602859 #
straight-curve $-1 0 -37.268971437628529 9.7563336038602859 1 0 0 I I #
End-of-ACIS-data 