500 0 18 0           
7 Unknown 11 ACIS 5.0 NT 24 Fri Mar 26 15:27:02 1999 
-1 9.9999999999999995e-007 1e-010 
body $-1 $18 $-1 $19 #
body $-1 $20 $-1 $21 #
body $-1 $22 $-1 $23 #
body $-1 $24 $-1 $25 #
body $-1 $26 $-1 $27 #
body $-1 $28 $-1 $29 #
body $-1 $30 $-1 $31 #
body $-1 $32 $-1 $33 #
body $-1 $34 $-1 $35 #
body $-1 $36 $-1 $37 #
body $-1 $38 $-1 $39 #
body $-1 $40 $-1 $41 #
body $-1 $42 $-1 $43 #
body $-1 $44 $-1 $45 #
body $-1 $46 $-1 $47 #
body $-1 $48 $-1 $49 #
body $-1 $50 $-1 $51 #
body $-1 $52 $-1 $53 #
lump $-1 $-1 $54 $0 #
transform $-1 1 0 0 0 1 0 0 0 1 62.356639301736507 27.727552292067056 13.50456273168426 1 rotate no_reflect no_shear #
lump $-1 $-1 $55 $1 #
transform $-1 1 0 0 0 1 0 0 0 1 62.356639301736507 27.727552292067056 13.50456273168426 1 rotate no_reflect no_shear #
lump $-1 $-1 $56 $2 #
transform $-1 1 0 0 0 1 0 0 0 1 62.356639301736507 27.727552292067056 13.50456273168426 1 rotate no_reflect no_shear #
lump $-1 $-1 $57 $3 #
transform $-1 1 0 0 0 1 0 0 0 1 62.356639301736507 27.727552292067056 13.50456273168426 1 rotate no_reflect no_shear #
lump $-1 $-1 $58 $4 #
transform $-1 1 0 0 0 1 0 0 0 1 62.356639301736507 27.727552292067056 13.50456273168426 1 rotate no_reflect no_shear #
lump $-1 $-1 $59 $5 #
transform $-1 1 0 0 0 1 0 0 0 1 62.356639301736507 27.727552292067056 13.50456273168426 1 rotate no_reflect no_shear #
lump $-1 $-1 $60 $6 #
transform $-1 1 0 0 0 1 0 0 0 1 62.356639301736507 27.727552292067056 13.50456273168426 1 rotate no_reflect no_shear #
lump $-1 $-1 $61 $7 #
transform $-1 1 0 0 0 1 0 0 0 1 62.356639301736507 27.727552292067056 13.50456273168426 1 rotate no_reflect no_shear #
lump $-1 $-1 $62 $8 #
transform $-1 1 0 0 0 1 0 0 0 1 62.356639301736507 27.727552292067056 13.50456273168426 1 rotate no_reflect no_shear #
lump $-1 $-1 $63 $9 #
transform $-1 1 0 0 0 1 0 0 0 1 62.356639301736507 27.727552292067056 13.50456273168426 1 rotate no_reflect no_shear #
lump $-1 $-1 $64 $10 #
transform $-1 1 0 0 0 1 0 0 0 1 62.356639301736507 27.727552292067056 13.50456273168426 1 rotate no_reflect no_shear #
lump $-1 $-1 $65 $11 #
transform $-1 1 0 0 0 1 0 0 0 1 62.356639301736507 27.727552292067056 13.50456273168426 1 rotate no_reflect no_shear #
lump $-1 $-1 $66 $12 #
transform $-1 1 0 0 0 1 0 0 0 1 62.356639301736507 27.727552292067056 13.50456273168426 1 rotate no_reflect no_shear #
lump $-1 $-1 $67 $13 #
transform $-1 1 0 0 0 1 0 0 0 1 62.356639301736507 27.727552292067056 13.50456273168426 1 rotate no_reflect no_shear #
lump $-1 $-1 $68 $14 #
transform $-1 1 0 0 0 1 0 0 0 1 62.356639301736507 27.727552292067056 13.50456273168426 1 rotate no_reflect no_shear #
lump $-1 $-1 $69 $15 #
transform $-1 1 0 0 0 1 0 0 0 1 62.356639301736507 27.727552292067056 13.50456273168426 1 rotate no_reflect no_shear #
lump $-1 $-1 $70 $16 #
transform $-1 1 0 0 0 1 0 0 0 1 62.356639301736507 27.727552292067056 13.50456273168426 1 rotate no_reflect no_shear #
lump $-1 $-1 $71 $17 #
transform $-1 1 0 0 0 1 0 0 0 1 62.356639301736507 27.727552292067056 13.50456273168426 1 rotate no_reflect no_shear #
shell $-1 $-1 $-1 $72 $-1 $18 #
shell $-1 $-1 $-1 $73 $-1 $20 #
shell $-1 $-1 $-1 $74 $-1 $22 #
shell $-1 $-1 $-1 $75 $-1 $24 #
shell $-1 $-1 $-1 $76 $-1 $26 #
shell $-1 $-1 $-1 $77 $-1 $28 #
shell $-1 $-1 $-1 $78 $-1 $30 #
shell $-1 $-1 $-1 $79 $-1 $32 #
shell $-1 $-1 $-1 $80 $-1 $34 #
shell $-1 $-1 $-1 $81 $-1 $36 #
shell $-1 $-1 $-1 $82 $-1 $38 #
shell $-1 $-1 $-1 $83 $-1 $40 #
shell $-1 $-1 $-1 $84 $-1 $42 #
shell $-1 $-1 $-1 $85 $-1 $44 #
shell $-1 $-1 $-1 $86 $-1 $46 #
shell $-1 $-1 $-1 $87 $-1 $48 #
shell $-1 $-1 $-1 $88 $-1 $50 #
shell $-1 $-1 $-1 $89 $-1 $52 #
face $-1 $90 $91 $54 $-1 $92 forward single #
face $-1 $93 $94 $55 $-1 $95 forward single #
face $-1 $96 $97 $56 $-1 $98 reversed single #
face $-1 $99 $100 $57 $-1 $101 forward single #
face $-1 $102 $103 $58 $-1 $104 forward single #
face $-1 $105 $106 $59 $-1 $107 forward single #
face $-1 $108 $109 $60 $-1 $110 reversed single #
face $-1 $111 $112 $61 $-1 $113 forward single #
face $-1 $114 $115 $62 $-1 $116 forward single #
face $-1 $117 $118 $63 $-1 $119 forward single #
face $-1 $120 $121 $64 $-1 $122 reversed single #
face $-1 $123 $124 $65 $-1 $125 forward single #
face $-1 $126 $127 $66 $-1 $128 forward single #
face $-1 $129 $130 $67 $-1 $131 forward single #
face $-1 $132 $133 $68 $-1 $134 reversed single #
face $-1 $135 $136 $69 $-1 $137 forward single #
face $-1 $138 $139 $70 $-1 $140 forward single #
face $-1 $141 $142 $71 $-1 $143 forward single #
face $-1 $144 $145 $54 $-1 $146 reversed single #
loop $-1 $-1 $147 $72 #
plane-surface $-1 0 0 13.50456273168426 0 0 1 1 0 0 forward_v I I I I #
face $-1 $148 $149 $55 $-1 $150 reversed single #
loop $-1 $-1 $151 $73 #
plane-surface $-1 -62.356639301736507 0 0 1 0 0 0 0 -1 forward_v I I I I #
face $-1 $152 $153 $56 $-1 $154 reversed single #
loop $-1 $-1 $155 $74 #
plane-surface $-1 -44.908440918003933 108.00486916747366 112.13127150591875 1 0 0 0 -0.86602541151947299 -0.49999998660252726 forward_v I I I I #
face $-1 $156 $157 $57 $-1 $158 forward single #
loop $-1 $159 $160 $75 #
cone-surface $-1 -41.741392530620587 23.482686942617502 7.1353023187396847 0 -0.86602541151947299 -0.49999998660252726 0.5 0 0 1 I I 0 1 0.5 forward I I I I #
face $-1 $161 $162 $58 $-1 $163 forward single #
loop $-1 $164 $165 $76 #
cone-surface $-1 -36.990819949545568 23.482686942617502 7.1353023187396847 0 -0.86602541151947299 -0.49999998660252726 0.5 0 0 1 I I 0 1 0.5 forward I I I I #
face $-1 $166 $167 $59 $-1 $168 forward single #
loop $-1 $169 $170 $77 #
cone-surface $-1 -32.240247368470548 23.482686942617502 7.1353023187396847 0 -0.86602541151947299 -0.49999998660252726 0.5 0 0 1 I I 0 1 0.5 forward I I I I #
face $-1 $171 $172 $60 $-1 $173 reversed single #
loop $-1 $-1 $174 $78 #
plane-surface $-1 8.7240991918662871 108.00486916747366 112.13127150591875 1 0 0 0 -0.86602541151947299 -0.49999998660252726 forward_v I I I I #
face $-1 $175 $176 $61 $-1 $177 forward single #
loop $-1 $178 $179 $79 #
cone-surface $-1 11.891147579249633 23.482686942617502 7.1353023187396847 0 -0.86602541151947299 -0.49999998660252726 0.5 0 0 1 I I 0 1 0.5 forward I I I I #
face $-1 $180 $181 $62 $-1 $182 forward single #
loop $-1 $183 $184 $80 #
cone-surface $-1 16.641720160324653 23.482686942617502 7.1353023187396847 0 -0.86602541151947299 -0.49999998660252726 0.5 0 0 1 I I 0 1 0.5 forward I I I I #
face $-1 $185 $186 $63 $-1 $187 forward single #
loop $-1 $188 $189 $81 #
cone-surface $-1 21.392292741399672 23.482686942617502 7.1353023187396847 0 -0.86602541151947299 -0.49999998660252726 0.5 0 0 1 I I 0 1 0.5 forward I I I I #
face $-1 $190 $191 $64 $-1 $192 reversed single #
loop $-1 $-1 $193 $82 #
plane-surface $-1 -29.073198981087202 -135.73242071658245 64.105741737588588 -1 0 0 0 -0.86602541151947299 0.49999998660252726 forward_v I I I I #
face $-1 $194 $195 $65 $-1 $196 forward single #
loop $-1 $197 $198 $83 #
cone-surface $-1 -41.741392530620587 -23.482686942617498 7.1353023187396811 0 0.86602541151947299 -0.49999998660252726 0.5 0 0 1 I I 0 1 0.5 forward I I I I #
face $-1 $199 $200 $66 $-1 $201 forward single #
loop $-1 $202 $203 $84 #
cone-surface $-1 -36.990819949545568 -23.482686942617498 7.1353023187396811 0 0.86602541151947299 -0.49999998660252726 0.5 0 0 1 I I 0 1 0.5 forward I I I I #
face $-1 $204 $205 $67 $-1 $206 forward single #
loop $-1 $207 $208 $85 #
cone-surface $-1 -32.240247368470548 -23.482686942617498 7.1353023187396811 0 0.86602541151947299 -0.49999998660252726 0.5 0 0 1 I I 0 1 0.5 forward I I I I #
face $-1 $209 $210 $68 $-1 $211 reversed single #
loop $-1 $-1 $212 $86 #
plane-surface $-1 24.559341128783018 -135.73242071658245 64.105741737588588 -1 0 0 0 -0.86602541151947299 0.49999998660252726 forward_v I I I I #
face $-1 $213 $214 $69 $-1 $215 forward single #
loop $-1 $216 $217 $87 #
cone-surface $-1 11.891147579249633 -23.482686942617498 7.1353023187396811 0 0.86602541151947299 -0.49999998660252726 0.5 0 0 1 I I 0 1 0.5 forward I I I I #
face $-1 $218 $219 $70 $-1 $220 forward single #
loop $-1 $221 $222 $88 #
cone-surface $-1 16.641720160324653 -23.482686942617498 7.1353023187396811 0 0.86602541151947299 -0.49999998660252726 0.5 0 0 1 I I 0 1 0.5 forward I I I I #
face $-1 $223 $224 $71 $-1 $225 forward single #
loop $-1 $226 $227 $89 #
cone-surface $-1 21.392292741399672 -23.482686942617498 7.1353023187396811 0 0.86602541151947299 -0.49999998660252726 0.5 0 0 1 I I 0 1 0.5 forward I I I I #
face $-1 $228 $229 $54 $-1 $230 reversed single #
loop $-1 $-1 $231 $90 #
plane-surface $-1 0 0 -13.50456273168426 0 0 1 1 0 0 forward_v I I I I #
coedge $-1 $232 $233 $234 $235 forward $91 $-1 #
face $-1 $236 $237 $55 $-1 $238 forward single #
loop $-1 $-1 $239 $93 #
plane-surface $-1 0 27.727552292067056 0 0 -1 0 0 0 -1 forward_v I I I I #
coedge $-1 $240 $241 $242 $243 forward $94 $-1 #
face $-1 $244 $245 $56 $-1 $246 reversed single #
loop $-1 $-1 $247 $96 #
plane-surface $-1 -36.990819949545568 7.4295823537795513e-007 49.774633875024982 0 0.86602541151947299 0.49999998660252726 1 0 0 forward_v I I I I #
coedge $-1 $248 $249 $250 $251 reversed $97 $-1 #
face $-1 $-1 $252 $57 $-1 $253 forward single #
loop $-1 $254 $255 $99 #
cone-surface $-1 -41.741392530620587 22.41482371984215 6.5187712216391915 0 -0.86602541151947299 -0.49999998660252726 0.25 0 0 1 I I -0.70710678118654746 0.70710678118654746 0.25 forward I I I I #
loop $-1 $-1 $256 $75 #
coedge $-1 $160 $160 $257 $258 reversed $100 $-1 #
face $-1 $-1 $259 $58 $-1 $260 forward single #
loop $-1 $261 $262 $102 #
cone-surface $-1 -36.990819949545568 22.41482371984215 6.5187712216391915 0 -0.86602541151947299 -0.49999998660252726 0.25 0 0 1 I I -0.70710678118654746 0.70710678118654746 0.25 forward I I I I #
loop $-1 $-1 $263 $76 #
coedge $-1 $165 $165 $264 $265 reversed $103 $-1 #
face $-1 $-1 $266 $59 $-1 $267 forward single #
loop $-1 $268 $269 $105 #
cone-surface $-1 -32.240247368470548 22.41482371984215 6.5187712216391915 0 -0.86602541151947299 -0.49999998660252726 0.25 0 0 1 I I -0.70710678118654746 0.70710678118654746 0.25 forward I I I I #
loop $-1 $-1 $270 $77 #
coedge $-1 $170 $170 $271 $272 reversed $106 $-1 #
face $-1 $273 $274 $60 $-1 $275 reversed single #
loop $-1 $-1 $276 $108 #
plane-surface $-1 16.641720160324653 7.4295823537795513e-007 49.774633875024982 0 0.86602541151947299 0.49999998660252726 1 0 0 forward_v I I I I #
coedge $-1 $277 $278 $279 $280 reversed $109 $-1 #
face $-1 $-1 $281 $61 $-1 $282 forward single #
loop $-1 $283 $284 $111 #
cone-surface $-1 11.891147579249633 22.41482371984215 6.5187712216391915 0 -0.86602541151947299 -0.49999998660252726 0.25 0 0 1 I I -0.70710678118654746 0.70710678118654746 0.25 forward I I I I #
loop $-1 $-1 $285 $79 #
coedge $-1 $179 $179 $286 $287 reversed $112 $-1 #
face $-1 $-1 $288 $62 $-1 $289 forward single #
loop $-1 $290 $291 $114 #
cone-surface $-1 16.641720160324653 22.41482371984215 6.5187712216391915 0 -0.86602541151947299 -0.49999998660252726 0.25 0 0 1 I I -0.70710678118654746 0.70710678118654746 0.25 forward I I I I #
loop $-1 $-1 $292 $80 #
coedge $-1 $184 $184 $293 $294 reversed $115 $-1 #
face $-1 $-1 $295 $63 $-1 $296 forward single #
loop $-1 $297 $298 $117 #
cone-surface $-1 21.392292741399672 22.41482371984215 6.5187712216391915 0 -0.86602541151947299 -0.49999998660252726 0.25 0 0 1 I I -0.70710678118654746 0.70710678118654746 0.25 forward I I I I #
loop $-1 $-1 $299 $81 #
coedge $-1 $189 $189 $300 $301 reversed $118 $-1 #
face $-1 $302 $303 $64 $-1 $304 reversed single #
loop $-1 $-1 $305 $120 #
plane-surface $-1 -36.990819949545568 -27.727552292067031 1.7491041066948227 0 -0.86602541151947299 0.49999998660252726 1 0 0 forward_v I I I I #
coedge $-1 $306 $307 $308 $309 reversed $121 $-1 #
face $-1 $-1 $310 $65 $-1 $311 forward single #
loop $-1 $312 $313 $123 #
cone-surface $-1 -41.741392530620587 -22.414823719842147 6.518771221639188 0 0.86602541151947299 -0.49999998660252726 0.25 0 0 1 I I -0.70710678118654746 0.70710678118654746 0.25 forward I I I I #
loop $-1 $-1 $314 $83 #
coedge $-1 $198 $198 $315 $316 reversed $124 $-1 #
face $-1 $-1 $317 $66 $-1 $318 forward single #
loop $-1 $319 $320 $126 #
cone-surface $-1 -36.990819949545568 -22.414823719842147 6.518771221639188 0 0.86602541151947299 -0.49999998660252726 0.25 0 0 1 I I -0.70710678118654746 0.70710678118654746 0.25 forward I I I I #
loop $-1 $-1 $321 $84 #
coedge $-1 $203 $203 $322 $323 reversed $127 $-1 #
face $-1 $-1 $324 $67 $-1 $325 forward single #
loop $-1 $326 $327 $129 #
cone-surface $-1 -32.240247368470548 -22.414823719842147 6.518771221639188 0 0.86602541151947299 -0.49999998660252726 0.25 0 0 1 I I -0.70710678118654746 0.70710678118654746 0.25 forward I I I I #
loop $-1 $-1 $328 $85 #
coedge $-1 $208 $208 $329 $330 reversed $130 $-1 #
face $-1 $331 $332 $68 $-1 $333 reversed single #
loop $-1 $-1 $334 $132 #
plane-surface $-1 16.641720160324653 -27.727552292067031 1.7491041066948227 0 -0.86602541151947299 0.49999998660252726 1 0 0 forward_v I I I I #
coedge $-1 $335 $336 $337 $338 reversed $133 $-1 #
face $-1 $-1 $339 $69 $-1 $340 forward single #
loop $-1 $341 $342 $135 #
cone-surface $-1 11.891147579249633 -22.414823719842147 6.518771221639188 0 0.86602541151947299 -0.49999998660252726 0.25 0 0 1 I I -0.70710678118654746 0.70710678118654746 0.25 forward I I I I #
loop $-1 $-1 $343 $87 #
coedge $-1 $217 $217 $344 $345 reversed $136 $-1 #
face $-1 $-1 $346 $70 $-1 $347 forward single #
loop $-1 $348 $349 $138 #
cone-surface $-1 16.641720160324653 -22.414823719842147 6.518771221639188 0 0.86602541151947299 -0.49999998660252726 0.25 0 0 1 I I -0.70710678118654746 0.70710678118654746 0.25 forward I I I I #
loop $-1 $-1 $350 $88 #
coedge $-1 $222 $222 $351 $352 reversed $139 $-1 #
face $-1 $-1 $353 $71 $-1 $354 forward single #
loop $-1 $355 $356 $141 #
cone-surface $-1 21.392292741399672 -22.414823719842147 6.518771221639188 0 0.86602541151947299 -0.49999998660252726 0.25 0 0 1 I I -0.70710678118654746 0.70710678118654746 0.25 forward I I I I #
loop $-1 $-1 $357 $89 #
coedge $-1 $227 $227 $358 $359 reversed $142 $-1 #
face $-1 $360 $361 $54 $-1 $362 reversed single #
loop $-1 $-1 $363 $144 #
plane-surface $-1 0 -27.727552292067056 0 0 1 0 0 0 1 forward_v I I I I #
coedge $-1 $364 $365 $366 $367 forward $145 $-1 #
coedge $-1 $368 $147 $369 $370 forward $91 $-1 #
coedge $-1 $147 $368 $371 $372 forward $91 $-1 #
coedge $-1 $373 $374 $147 $235 reversed $375 $-1 #
edge $-1 $376 -27.727552292067056 $377 27.727552292067056 $234 $378 forward 7 unknown #
face $-1 $379 $380 $55 $-1 $381 reversed single #
loop $-1 $-1 $242 $148 #
plane-surface $-1 -71.080738493602794 0 3.6428717209889561 0 0 1 1 0 0 forward_v I I I I #
coedge $-1 $382 $383 $241 $384 forward $149 $-1 #
coedge $-1 $385 $151 $386 $387 reversed $94 $-1 #
coedge $-1 $151 $385 $239 $384 reversed $94 $-1 #
coedge $-1 $388 $389 $151 $243 reversed $237 $-1 #
edge $-1 $390 -27.727552292067056 $391 27.727552292067056 $242 $392 forward 7 unknown #
face $-1 $393 $394 $56 $-1 $395 forward single #
loop $-1 $-1 $396 $152 #
plane-surface $-1 -29.073198981087202 108.00486916747366 112.13127150591875 -1 0 0 0 0.86602541151947299 0.49999998660252726 forward_v I I I I #
coedge $-1 $397 $398 $399 $400 reversed $153 $-1 #
coedge $-1 $249 $155 $401 $402 reversed $97 $-1 #
coedge $-1 $155 $248 $397 $403 reversed $97 $-1 #
coedge $-1 $399 $404 $155 $251 forward $394 $-1 #
edge $-1 $405 26.274882291669773 $406 33.061899250777941 $250 $407 forward 7 unknown #
loop $-1 $-1 $257 $156 #
plane-surface $-1 -36.990819949545568 7.4295823537795513e-007 49.774633875024982 0 0.86602541151947299 0.49999998660252726 1 0 0 forward_v I I I I #
loop $-1 $-1 $408 $99 #
coedge $-1 $255 $255 $256 $409 reversed $157 $-1 #
coedge $-1 $256 $256 $255 $409 forward $159 $-1 #
coedge $-1 $257 $257 $160 $258 forward $252 $-1 #
edge $-1 $410 -1.1728472940473972e-015 $410 6.2831853071795996 $257 $411 forward 7 unknown #
loop $-1 $-1 $264 $161 #
plane-surface $-1 -36.990819949545568 7.4295823537795513e-007 49.774633875024982 0 0.86602541151947299 0.49999998660252726 1 0 0 forward_v I I I I #
loop $-1 $-1 $412 $102 #
coedge $-1 $262 $262 $263 $413 reversed $162 $-1 #
coedge $-1 $263 $263 $262 $413 forward $164 $-1 #
coedge $-1 $264 $264 $165 $265 forward $259 $-1 #
edge $-1 $414 -1.1728472940473972e-015 $414 6.2831853071795996 $264 $415 forward 7 unknown #
loop $-1 $-1 $271 $166 #
plane-surface $-1 -36.990819949545568 7.4295823537795513e-007 49.774633875024982 0 0.86602541151947299 0.49999998660252726 1 0 0 forward_v I I I I #
loop $-1 $-1 $416 $105 #
coedge $-1 $269 $269 $270 $417 reversed $167 $-1 #
coedge $-1 $270 $270 $269 $417 forward $169 $-1 #
coedge $-1 $271 $271 $170 $272 forward $266 $-1 #
edge $-1 $418 -1.1728472940473972e-015 $418 6.2831853071795996 $271 $419 forward 7 unknown #
face $-1 $420 $421 $60 $-1 $422 forward single #
loop $-1 $-1 $423 $171 #
plane-surface $-1 24.559341128783018 108.00486916747366 112.13127150591875 -1 0 0 0 0.86602541151947299 0.49999998660252726 forward_v I I I I #
coedge $-1 $424 $425 $426 $427 reversed $172 $-1 #
coedge $-1 $278 $174 $428 $429 reversed $109 $-1 #
coedge $-1 $174 $277 $424 $430 reversed $109 $-1 #
coedge $-1 $426 $431 $174 $280 forward $421 $-1 #
edge $-1 $432 26.274882291669773 $433 33.061899250777941 $279 $434 forward 7 unknown #
loop $-1 $-1 $286 $175 #
plane-surface $-1 16.641720160324653 7.4295823537795513e-007 49.774633875024982 0 0.86602541151947299 0.49999998660252726 1 0 0 forward_v I I I I #
loop $-1 $-1 $435 $111 #
coedge $-1 $284 $284 $285 $436 reversed $176 $-1 #
coedge $-1 $285 $285 $284 $436 forward $178 $-1 #
coedge $-1 $286 $286 $179 $287 forward $281 $-1 #
edge $-1 $437 -1.1728472940473972e-015 $437 6.2831853071795996 $286 $438 forward 7 unknown #
loop $-1 $-1 $293 $180 #
plane-surface $-1 16.641720160324653 7.4295823537795513e-007 49.774633875024982 0 0.86602541151947299 0.49999998660252726 1 0 0 forward_v I I I I #
loop $-1 $-1 $439 $114 #
coedge $-1 $291 $291 $292 $440 reversed $181 $-1 #
coedge $-1 $292 $292 $291 $440 forward $183 $-1 #
coedge $-1 $293 $293 $184 $294 forward $288 $-1 #
edge $-1 $441 -1.1728472940473972e-015 $441 6.2831853071795996 $293 $442 forward 7 unknown #
loop $-1 $-1 $300 $185 #
plane-surface $-1 16.641720160324653 7.4295823537795513e-007 49.774633875024982 0 0.86602541151947299 0.49999998660252726 1 0 0 forward_v I I I I #
loop $-1 $-1 $443 $117 #
coedge $-1 $298 $298 $299 $444 reversed $186 $-1 #
coedge $-1 $299 $299 $298 $444 forward $188 $-1 #
coedge $-1 $300 $300 $189 $301 forward $295 $-1 #
edge $-1 $445 -1.1728472940473972e-015 $445 6.2831853071795996 $300 $446 forward 7 unknown #
face $-1 $447 $448 $64 $-1 $449 reversed single #
loop $-1 $-1 $450 $190 #
plane-surface $-1 -44.908440918003933 -135.73242071658245 64.105741737588588 1 0 0 0 0.86602541151947299 -0.49999998660252726 forward_v I I I I #
coedge $-1 $451 $452 $453 $454 reversed $191 $-1 #
coedge $-1 $307 $193 $455 $456 reversed $121 $-1 #
coedge $-1 $193 $306 $451 $457 reversed $121 $-1 #
coedge $-1 $453 $458 $193 $309 forward $459 $-1 #
edge $-1 $460 40.138658066224167 $461 46.925675025332353 $308 $462 forward 7 unknown #
loop $-1 $-1 $315 $194 #
plane-surface $-1 -36.990819949545568 -27.727552292067031 1.7491041066948227 0 -0.86602541151947299 0.49999998660252726 1 0 0 forward_v I I I I #
loop $-1 $-1 $463 $123 #
coedge $-1 $313 $313 $314 $464 reversed $195 $-1 #
coedge $-1 $314 $314 $313 $464 forward $197 $-1 #
coedge $-1 $315 $315 $198 $316 forward $310 $-1 #
edge $-1 $465 2.2090077822406361e-016 $465 6.2831853071796004 $315 $466 forward 7 unknown #
loop $-1 $-1 $322 $199 #
plane-surface $-1 -36.990819949545568 -27.727552292067031 1.7491041066948227 0 -0.86602541151947299 0.49999998660252726 1 0 0 forward_v I I I I #
loop $-1 $-1 $467 $126 #
coedge $-1 $320 $320 $321 $468 reversed $200 $-1 #
coedge $-1 $321 $321 $320 $468 forward $202 $-1 #
coedge $-1 $322 $322 $203 $323 forward $317 $-1 #
edge $-1 $469 2.2090077822406361e-016 $469 6.2831853071796004 $322 $470 forward 7 unknown #
loop $-1 $-1 $329 $204 #
plane-surface $-1 -36.990819949545568 -27.727552292067031 1.7491041066948227 0 -0.86602541151947299 0.49999998660252726 1 0 0 forward_v I I I I #
loop $-1 $-1 $471 $129 #
coedge $-1 $327 $327 $328 $472 reversed $205 $-1 #
coedge $-1 $328 $328 $327 $472 forward $207 $-1 #
coedge $-1 $329 $329 $208 $330 forward $324 $-1 #
edge $-1 $473 2.2090077822406361e-016 $473 6.2831853071796004 $329 $474 forward 7 unknown #
face $-1 $475 $476 $68 $-1 $477 reversed single #
loop $-1 $-1 $478 $209 #
plane-surface $-1 8.7240991918662871 -135.73242071658245 64.105741737588588 1 0 0 0 0.86602541151947299 -0.49999998660252726 forward_v I I I I #
coedge $-1 $479 $480 $481 $482 reversed $210 $-1 #
coedge $-1 $336 $212 $483 $484 reversed $133 $-1 #
coedge $-1 $212 $335 $479 $485 reversed $133 $-1 #
coedge $-1 $481 $486 $212 $338 forward $487 $-1 #
edge $-1 $488 40.138658066224167 $489 46.925675025332353 $337 $490 forward 7 unknown #
loop $-1 $-1 $344 $213 #
plane-surface $-1 16.641720160324653 -27.727552292067031 1.7491041066948227 0 -0.86602541151947299 0.49999998660252726 1 0 0 forward_v I I I I #
loop $-1 $-1 $491 $135 #
coedge $-1 $342 $342 $343 $492 reversed $214 $-1 #
coedge $-1 $343 $343 $342 $492 forward $216 $-1 #
coedge $-1 $344 $344 $217 $345 forward $339 $-1 #
edge $-1 $493 2.2090077822406361e-016 $493 6.2831853071796004 $344 $494 forward 7 unknown #
loop $-1 $-1 $351 $218 #
plane-surface $-1 16.641720160324653 -27.727552292067031 1.7491041066948227 0 -0.86602541151947299 0.49999998660252726 1 0 0 forward_v I I I I #
loop $-1 $-1 $495 $138 #
coedge $-1 $349 $349 $350 $496 reversed $219 $-1 #
coedge $-1 $350 $350 $349 $496 forward $221 $-1 #
coedge $-1 $351 $351 $222 $352 forward $346 $-1 #
edge $-1 $497 2.2090077822406361e-016 $497 6.2831853071796004 $351 $498 forward 7 unknown #
loop $-1 $-1 $358 $223 #
plane-surface $-1 16.641720160324653 -27.727552292067031 1.7491041066948227 0 -0.86602541151947299 0.49999998660252726 1 0 0 forward_v I I I I #
loop $-1 $-1 $499 $141 #
coedge $-1 $356 $356 $357 $500 reversed $224 $-1 #
coedge $-1 $357 $357 $356 $500 forward $226 $-1 #
coedge $-1 $358 $358 $227 $359 forward $353 $-1 #
edge $-1 $501 2.2090077822406361e-016 $501 6.2831853071796004 $358 $502 forward 7 unknown #
face $-1 $503 $504 $54 $-1 $505 reversed single #
loop $-1 $-1 $506 $228 #
plane-surface $-1 -62.356639301736507 0 0 1 0 0 0 0 -1 forward_v I I I I #
coedge $-1 $507 $371 $506 $508 forward $229 $-1 #
coedge $-1 $509 $231 $507 $510 forward $145 $-1 #
coedge $-1 $231 $509 $511 $512 forward $145 $-1 #
coedge $-1 $374 $373 $231 $367 reversed $375 $-1 #
edge $-1 $513 -27.727552292067056 $514 27.727552292067056 $366 $515 forward 7 unknown #
coedge $-1 $233 $232 $516 $517 forward $91 $-1 #
coedge $-1 $518 $519 $232 $370 reversed $504 $-1 #
edge $-1 $377 -62.356639301736507 $520 62.356639301736507 $369 $521 forward 7 unknown #
coedge $-1 $363 $522 $233 $372 reversed $229 $-1 #
edge $-1 $523 -62.356639301736507 $376 62.356639301736507 $371 $524 forward 7 unknown #
coedge $-1 $366 $234 $522 $525 forward $375 $-1 #
coedge $-1 $234 $366 $518 $526 reversed $375 $-1 #
loop $-1 $-1 $373 $503 #
vertex $-1 $235 $527 #
vertex $-1 $235 $528 #
straight-curve $-1 62.356639301736507 0 13.50456273168426 0 1 0 I I #
face $-1 $529 $530 $55 $-1 $531 reversed single #
loop $-1 $-1 $532 $236 #
plane-surface $-1 -71.080738493602794 0 -4.1547181093562022 0 0 1 1 0 0 forward_v I I I I #
coedge $-1 $533 $239 $534 $535 reversed $149 $-1 #
coedge $-1 $239 $533 $388 $536 reversed $149 $-1 #
edge $-1 $390 -3.6428717209889561 $537 4.1547181093562022 $239 $538 forward 7 unknown #
coedge $-1 $241 $240 $532 $539 forward $94 $-1 #
coedge $-1 $540 $541 $240 $387 forward $542 $-1 #
edge $-1 $543 -4.1547181093562022 $391 3.6428717209889561 $386 $544 forward 7 unknown #
coedge $-1 $545 $242 $383 $536 forward $237 $-1 #
coedge $-1 $242 $545 $540 $546 forward $237 $-1 #
vertex $-1 $384 $547 #
vertex $-1 $546 $548 #
straight-curve $-1 -62.356639301736507 0 3.6428717209889561 0 -1 0 I I #
face $-1 $-1 $549 $56 $-1 $550 reversed single #
loop $-1 $-1 $250 $244 #
plane-surface $-1 0 0 13.50456273168426 0 0 1 1 0 0 forward_v I I I I #
coedge $-1 $551 $552 $553 $554 reversed $245 $-1 #
coedge $-1 $555 $247 $249 $403 forward $153 $-1 #
coedge $-1 $247 $555 $551 $556 forward $153 $-1 #
coedge $-1 $553 $250 $247 $400 forward $394 $-1 #
edge $-1 $406 -26.413030943231149 $557 -10.577789006314418 $399 $558 forward 7 unknown #
coedge $-1 $559 $560 $248 $402 forward $549 $-1 #
edge $-1 $561 -54.316531646264579 $405 -42.561073021275114 $401 $562 forward 7 unknown #
edge $-1 $406 41.881070302202296 $561 55.455104584134148 $249 $563 forward 7 unknown #
coedge $-1 $250 $553 $559 $564 forward $394 $-1 #
vertex $-1 $402 $565 #
vertex $-1 $251 $566 #
straight-curve $-1 -44.908440918003933 54.002434583736829 13.50456273168426 0 -1 0 I I #
coedge $-1 $408 $408 $-1 $567 reversed $254 $-1 #
edge $-1 $568 0 $568 6.2831853071796004 $255 $569 forward 7 unknown #
vertex $-1 $258 $570 #
ellipse-curve $-1 -41.741392530620587 24.33404381251297 7.6268334191895377 0 0.86602541151947299 0.49999998660252726 0.5 0 0 1 I I #
coedge $-1 $412 $412 $-1 $571 reversed $261 $-1 #
edge $-1 $572 0 $572 6.2831853071796004 $262 $573 forward 7 unknown #
vertex $-1 $265 $574 #
ellipse-curve $-1 -36.990819949545568 24.33404381251297 7.6268334191895377 0 0.86602541151947299 0.49999998660252726 0.5 0 0 1 I I #
coedge $-1 $416 $416 $-1 $575 reversed $268 $-1 #
edge $-1 $576 0 $576 6.2831853071796004 $269 $577 forward 7 unknown #
vertex $-1 $272 $578 #
ellipse-curve $-1 -32.240247368470548 24.33404381251297 7.6268334191895377 0 0.86602541151947299 0.49999998660252726 0.5 0 0 1 I I #
face $-1 $-1 $579 $60 $-1 $580 reversed single #
loop $-1 $-1 $279 $273 #
plane-surface $-1 0 0 13.50456273168426 0 0 1 1 0 0 forward_v I I I I #
coedge $-1 $581 $582 $583 $584 reversed $274 $-1 #
coedge $-1 $585 $276 $278 $430 forward $172 $-1 #
coedge $-1 $276 $585 $581 $586 forward $172 $-1 #
coedge $-1 $583 $279 $276 $427 forward $421 $-1 #
edge $-1 $433 0.40323911170396087 $587 16.238481048620692 $426 $588 forward 7 unknown #
coedge $-1 $589 $590 $277 $429 forward $579 $-1 #
edge $-1 $591 -54.316531646264579 $432 -42.561073021275114 $428 $592 forward 7 unknown #
edge $-1 $433 41.881070302202296 $591 55.455104584134148 $278 $593 forward 7 unknown #
coedge $-1 $279 $583 $589 $594 forward $421 $-1 #
vertex $-1 $280 $595 #
vertex $-1 $280 $596 #
straight-curve $-1 8.7240991918662871 54.002434583736829 13.50456273168426 0 -1 0 I I #
coedge $-1 $435 $435 $-1 $597 reversed $283 $-1 #
edge $-1 $598 0 $598 6.2831853071796004 $284 $599 forward 7 unknown #
vertex $-1 $287 $600 #
ellipse-curve $-1 11.891147579249633 24.33404381251297 7.6268334191895377 0 0.86602541151947299 0.49999998660252726 0.5 0 0 1 I I #
coedge $-1 $439 $439 $-1 $601 reversed $290 $-1 #
edge $-1 $602 0 $602 6.2831853071796004 $291 $603 forward 7 unknown #
vertex $-1 $294 $604 #
ellipse-curve $-1 16.641720160324653 24.33404381251297 7.6268334191895377 0 0.86602541151947299 0.49999998660252726 0.5 0 0 1 I I #
coedge $-1 $443 $443 $-1 $605 reversed $297 $-1 #
edge $-1 $606 0 $606 6.2831853071796004 $298 $607 forward 7 unknown #
vertex $-1 $301 $608 #
ellipse-curve $-1 21.392292741399672 24.33404381251297 7.6268334191895377 0 0.86602541151947299 0.49999998660252726 0.5 0 0 1 I I #
face $-1 $-1 $459 $64 $-1 $609 forward single #
loop $-1 $-1 $610 $302 #
plane-surface $-1 0 -27.727552292067056 0 0 1 0 0 0 1 forward_v I I I I #
coedge $-1 $611 $612 $613 $614 reversed $303 $-1 #
coedge $-1 $615 $305 $307 $457 forward $191 $-1 #
coedge $-1 $305 $615 $611 $616 forward $191 $-1 #
coedge $-1 $613 $308 $305 $454 forward $459 $-1 #
edge $-1 $461 10.577789006314418 $617 26.413030943231149 $453 $618 forward 7 unknown #
coedge $-1 $619 $620 $306 $456 forward $448 $-1 #
edge $-1 $621 -30.303766762099514 $460 -18.548308137110034 $455 $622 forward 7 unknown #
edge $-1 $461 -13.574034281931818 $621 4.9739973991660594e-014 $307 $623 forward 7 unknown #
coedge $-1 $308 $613 $619 $624 forward $459 $-1 #
loop $-1 $-1 $613 $447 #
vertex $-1 $456 $625 #
vertex $-1 $309 $626 #
straight-curve $-1 -29.073198981087202 -67.866210358291227 13.50456273168426 0 1 0 I I #
coedge $-1 $463 $463 $-1 $627 reversed $312 $-1 #
edge $-1 $628 0 $628 6.2831853071796004 $313 $629 forward 7 unknown #
vertex $-1 $316 $630 #
ellipse-curve $-1 -41.741392530620587 -24.334043812512959 7.6268334191895306 0 -0.86602541151947299 0.49999998660252726 0.5 0 0 1 I I #
coedge $-1 $467 $467 $-1 $631 reversed $319 $-1 #
edge $-1 $632 0 $632 6.2831853071796004 $320 $633 forward 7 unknown #
vertex $-1 $323 $634 #
ellipse-curve $-1 -36.990819949545568 -24.334043812512959 7.6268334191895306 0 -0.86602541151947299 0.49999998660252726 0.5 0 0 1 I I #
coedge $-1 $471 $471 $-1 $635 reversed $326 $-1 #
edge $-1 $636 0 $636 6.2831853071796004 $327 $637 forward 7 unknown #
vertex $-1 $330 $638 #
ellipse-curve $-1 -32.240247368470548 -24.334043812512959 7.6268334191895306 0 -0.86602541151947299 0.49999998660252726 0.5 0 0 1 I I #
face $-1 $-1 $487 $68 $-1 $639 forward single #
loop $-1 $-1 $640 $331 #
plane-surface $-1 0 -27.727552292067056 0 0 1 0 0 0 1 forward_v I I I I #
coedge $-1 $641 $642 $643 $644 reversed $332 $-1 #
coedge $-1 $645 $334 $336 $485 forward $210 $-1 #
coedge $-1 $334 $645 $641 $646 forward $210 $-1 #
coedge $-1 $643 $337 $334 $482 forward $487 $-1 #
edge $-1 $489 -16.238481048620692 $647 -0.40323911170396087 $481 $648 forward 7 unknown #
coedge $-1 $649 $650 $335 $484 forward $476 $-1 #
edge $-1 $651 -30.303766762099514 $488 -18.548308137110034 $483 $652 forward 7 unknown #
edge $-1 $489 -13.574034281931818 $651 4.9739973991660594e-014 $336 $653 forward 7 unknown #
coedge $-1 $337 $643 $649 $654 forward $487 $-1 #
loop $-1 $-1 $643 $475 #
vertex $-1 $484 $655 #
vertex $-1 $338 $656 #
straight-curve $-1 24.559341128783018 -67.866210358291227 13.50456273168426 0 1 0 I I #
coedge $-1 $491 $491 $-1 $657 reversed $341 $-1 #
edge $-1 $658 0 $658 6.2831853071796004 $342 $659 forward 7 unknown #
vertex $-1 $345 $660 #
ellipse-curve $-1 11.891147579249633 -24.334043812512959 7.6268334191895306 0 -0.86602541151947299 0.49999998660252726 0.5 0 0 1 I I #
coedge $-1 $495 $495 $-1 $661 reversed $348 $-1 #
edge $-1 $662 0 $662 6.2831853071796004 $349 $663 forward 7 unknown #
vertex $-1 $352 $664 #
ellipse-curve $-1 16.641720160324653 -24.334043812512959 7.6268334191895306 0 -0.86602541151947299 0.49999998660252726 0.5 0 0 1 I I #
coedge $-1 $499 $499 $-1 $665 reversed $355 $-1 #
edge $-1 $666 0 $666 6.2831853071796004 $356 $667 forward 7 unknown #
vertex $-1 $359 $668 #
ellipse-curve $-1 21.392292741399672 -24.334043812512959 7.6268334191895306 0 -0.86602541151947299 0.49999998660252726 0.5 0 0 1 I I #
face $-1 $-1 $375 $54 $-1 $669 reversed single #
loop $-1 $-1 $518 $360 #
plane-surface $-1 0 27.727552292067056 0 0 -1 0 0 0 -1 forward_v I I I I #
coedge $-1 $516 $670 $363 $508 reversed $361 $-1 #
coedge $-1 $522 $363 $364 $510 reversed $229 $-1 #
edge $-1 $523 -13.50456273168426 $671 13.50456273168426 $506 $672 forward 7 unknown #
coedge $-1 $365 $364 $670 $673 forward $145 $-1 #
edge $-1 $514 -62.356639301736507 $671 62.356639301736507 $507 $674 forward 7 unknown #
coedge $-1 $519 $518 $365 $512 reversed $504 $-1 #
edge $-1 $675 -62.356639301736507 $513 62.356639301736507 $511 $676 forward 7 unknown #
vertex $-1 $367 $677 #
vertex $-1 $525 $678 #
straight-curve $-1 62.356639301736507 0 -13.50456273168426 0 -1 0 I I #
coedge $-1 $679 $506 $368 $517 reversed $361 $-1 #
edge $-1 $520 -27.727552292067056 $523 27.727552292067056 $516 $680 forward 7 unknown #
coedge $-1 $511 $369 $374 $526 forward $504 $-1 #
coedge $-1 $369 $511 $679 $681 reversed $504 $-1 #
vertex $-1 $370 $682 #
straight-curve $-1 0 27.727552292067056 13.50456273168426 -1 0 0 I I #
coedge $-1 $371 $507 $373 $525 reversed $229 $-1 #
vertex $-1 $517 $683 #
straight-curve $-1 0 -27.727552292067056 13.50456273168426 1 0 0 I I #
edge $-1 $376 -13.50456273168426 $514 13.50456273168426 $373 $684 forward 7 unknown #
edge $-1 $377 -13.50456273168426 $513 13.50456273168426 $374 $685 forward 7 unknown #
point $-1 62.356639301736507 -27.727552292067056 13.50456273168426 #
point $-1 62.356639301736507 27.727552292067056 13.50456273168426 #
face $-1 $-1 $542 $55 $-1 $686 reversed single #
loop $-1 $-1 $687 $379 #
plane-surface $-1 -79.804837685469082 0 -0.25592319418362308 1 0 0 0 0 -1 forward_v I I I I #
coedge $-1 $688 $534 $385 $539 reversed $380 $-1 #
coedge $-1 $383 $382 $687 $689 reversed $149 $-1 #
coedge $-1 $532 $690 $382 $535 forward $380 $-1 #
edge $-1 $691 -8.7240991918662871 $537 8.7240991918662871 $382 $692 forward 7 unknown #
edge $-1 $390 -8.7240991918662871 $693 8.7240991918662871 $383 $694 forward 7 unknown #
vertex $-1 $384 $695 #
straight-curve $-1 -62.356639301736507 27.727552292067056 0 0 0 -1 I I #
edge $-1 $543 -27.727552292067056 $537 27.727552292067056 $532 $696 forward 7 unknown #
coedge $-1 $697 $386 $389 $546 reversed $542 $-1 #
coedge $-1 $386 $697 $688 $698 reversed $542 $-1 #
loop $-1 $-1 $386 $529 #
vertex $-1 $387 $699 #
straight-curve $-1 -62.356639301736507 -27.727552292067056 0 0 0 1 I I #
coedge $-1 $389 $388 $700 $701 forward $237 $-1 #
edge $-1 $702 -8.7240991918662871 $391 8.7240991918662871 $540 $703 forward 7 unknown #
point $-1 -62.356639301736507 27.727552292067056 3.6428717209889561 #
point $-1 -62.356639301736507 -27.727552292067056 3.6428717209889561 #
loop $-1 $-1 $401 $393 #
plane-surface $-1 0 27.727552292067056 0 0 -1 0 0 0 -1 forward_v I I I I #
coedge $-1 $552 $396 $398 $556 reversed $245 $-1 #
coedge $-1 $396 $551 $704 $705 reversed $245 $-1 #
coedge $-1 $404 $399 $396 $554 forward $394 $-1 #
edge $-1 $557 -33.061899250777941 $706 -26.274882291669773 $553 $707 forward 7 unknown #
coedge $-1 $398 $397 $560 $708 reversed $153 $-1 #
edge $-1 $709 -55.455104584134148 $557 -41.881070302202296 $551 $710 forward 7 unknown #
vertex $-1 $400 $711 #
straight-curve $-1 -18.495409974772784 20.940535332958888 13.504562731684263 1 0 0 I I #
coedge $-1 $704 $401 $404 $564 reversed $549 $-1 #
coedge $-1 $401 $704 $555 $708 forward $549 $-1 #
vertex $-1 $402 $712 #
straight-curve $-1 -44.908440918003933 27.72755229206706 56.065635752959373 0 0 1 I I #
straight-curve $-1 -44.908440918003933 7.4295823537795513e-007 49.774633875024982 0 0.49999998660252726 -0.86602541151947299 I I #
edge $-1 $706 29.073198981087202 $405 44.908440918003933 $559 $713 forward 7 unknown #
point $-1 -44.908440918003933 27.727552292067056 13.50456273168426 #
point $-1 -44.908440918003933 20.940535332958884 13.50456273168426 #
edge $-1 $714 1 $714 0 $408 $-1 forward 7 unknown #
vertex $-1 $409 $715 #
ellipse-curve $-1 -41.741392530620587 22.631330072722019 6.6437712182898236 0 0.86602541151947299 0.49999998660252726 0.5 0 0 1 I I #
point $-1 -41.241392530620587 24.334043812512984 7.6268334191895466 #
edge $-1 $716 1 $716 0 $412 $-1 forward 7 unknown #
vertex $-1 $413 $717 #
ellipse-curve $-1 -36.990819949545568 22.631330072722019 6.6437712182898236 0 0.86602541151947299 0.49999998660252726 0.5 0 0 1 I I #
point $-1 -36.490819949545568 24.334043812512984 7.6268334191895466 #
edge $-1 $718 1 $718 0 $416 $-1 forward 7 unknown #
vertex $-1 $417 $719 #
ellipse-curve $-1 -32.240247368470548 22.631330072722019 6.6437712182898236 0 0.86602541151947299 0.49999998660252726 0.5 0 0 1 I I #
point $-1 -31.740247368470548 24.334043812512984 7.6268334191895466 #
loop $-1 $-1 $428 $420 #
plane-surface $-1 0 27.727552292067056 0 0 -1 0 0 0 -1 forward_v I I I I #
coedge $-1 $582 $423 $425 $586 reversed $274 $-1 #
coedge $-1 $423 $581 $720 $721 reversed $274 $-1 #
coedge $-1 $431 $426 $423 $584 forward $421 $-1 #
edge $-1 $587 -33.061899250777941 $722 -26.274882291669773 $583 $723 forward 7 unknown #
coedge $-1 $425 $424 $590 $724 reversed $172 $-1 #
edge $-1 $725 -55.455104584134148 $587 -41.881070302202296 $581 $726 forward 7 unknown #
vertex $-1 $427 $727 #
straight-curve $-1 8.3208600801623263 20.940535332958888 13.504562731684263 1 0 0 I I #
coedge $-1 $720 $428 $431 $594 reversed $579 $-1 #
coedge $-1 $428 $720 $585 $724 forward $579 $-1 #
vertex $-1 $429 $728 #
straight-curve $-1 8.7240991918662871 27.72755229206706 56.065635752959373 0 0 1 I I #
straight-curve $-1 8.7240991918662871 7.4295823537795513e-007 49.774633875024982 0 0.49999998660252726 -0.86602541151947299 I I #
edge $-1 $722 -24.559341128783018 $432 -8.7240991918662871 $589 $729 forward 7 unknown #
point $-1 8.7240991918662871 27.727552292067056 13.50456273168426 #
point $-1 8.7240991918662871 20.940535332958884 13.50456273168426 #
edge $-1 $730 1 $730 0 $435 $-1 forward 7 unknown #
vertex $-1 $436 $731 #
ellipse-curve $-1 11.891147579249633 22.631330072722019 6.6437712182898236 0 0.86602541151947299 0.49999998660252726 0.5 0 0 1 I I #
point $-1 12.391147579249633 24.334043812512984 7.6268334191895466 #
edge $-1 $732 1 $732 0 $439 $-1 forward 7 unknown #
vertex $-1 $440 $733 #
ellipse-curve $-1 16.641720160324653 22.631330072722019 6.6437712182898236 0 0.86602541151947299 0.49999998660252726 0.5 0 0 1 I I #
point $-1 17.141720160324653 24.334043812512984 7.6268334191895466 #
edge $-1 $734 1 $734 0 $443 $-1 forward 7 unknown #
vertex $-1 $444 $735 #
ellipse-curve $-1 21.392292741399672 22.631330072722019 6.6437712182898236 0 0.86602541151947299 0.49999998660252726 0.5 0 0 1 I I #
point $-1 21.892292741399672 24.334043812512984 7.6268334191895466 #
plane-surface $-1 0 0 13.50456273168426 0 0 1 1 0 0 forward_v I I I I #
coedge $-1 $620 $619 $612 $736 forward $448 $-1 #
coedge $-1 $612 $450 $452 $616 reversed $303 $-1 #
coedge $-1 $450 $611 $610 $736 reversed $303 $-1 #
coedge $-1 $458 $453 $450 $614 forward $459 $-1 #
edge $-1 $617 -46.925675025332353 $737 -40.138658066224167 $613 $738 forward 7 unknown #
coedge $-1 $452 $451 $620 $739 reversed $191 $-1 #
edge $-1 $740 -4.9739973991660594e-014 $617 13.574034281931818 $611 $741 forward 7 unknown #
vertex $-1 $454 $742 #
straight-curve $-1 -18.495409974772784 -20.940535332958877 13.50456273168426 -1 0 0 I I #
coedge $-1 $610 $455 $458 $624 reversed $448 $-1 #
coedge $-1 $455 $610 $615 $739 forward $448 $-1 #
vertex $-1 $456 $743 #
straight-curve $-1 -29.073198981087202 -27.72755229206706 32.052870868794294 0 0 1 I I #
straight-curve $-1 -29.073198981087202 -27.727552292067031 1.7491041066948227 0 -0.49999998660252726 -0.86602541151947299 I I #
edge $-1 $737 -44.908440918003933 $460 -29.073198981087202 $619 $744 forward 7 unknown #
point $-1 -29.073198981087202 -27.727552292067056 13.50456273168426 #
point $-1 -29.073198981087202 -20.940535332958877 13.50456273168426 #
edge $-1 $745 1 $745 0 $463 $-1 forward 7 unknown #
vertex $-1 $464 $746 #
ellipse-curve $-1 -41.741392530620587 -22.631330072722015 6.6437712182898201 0 -0.86602541151947299 0.49999998660252726 0.5 0 0 1 I I #
point $-1 -41.241392530620587 -24.334043812512981 7.6268334191895431 #
edge $-1 $747 1 $747 0 $467 $-1 forward 7 unknown #
vertex $-1 $468 $748 #
ellipse-curve $-1 -36.990819949545568 -22.631330072722015 6.6437712182898201 0 -0.86602541151947299 0.49999998660252726 0.5 0 0 1 I I #
point $-1 -36.490819949545568 -24.334043812512981 7.6268334191895431 #
edge $-1 $749 1 $749 0 $471 $-1 forward 7 unknown #
vertex $-1 $472 $750 #
ellipse-curve $-1 -32.240247368470548 -22.631330072722015 6.6437712182898201 0 -0.86602541151947299 0.49999998660252726 0.5 0 0 1 I I #
point $-1 -31.740247368470548 -24.334043812512981 7.6268334191895431 #
plane-surface $-1 0 0 13.50456273168426 0 0 1 1 0 0 forward_v I I I I #
coedge $-1 $650 $649 $642 $751 forward $476 $-1 #
coedge $-1 $642 $478 $480 $646 reversed $332 $-1 #
coedge $-1 $478 $641 $640 $751 reversed $332 $-1 #
coedge $-1 $486 $481 $478 $644 forward $487 $-1 #
edge $-1 $647 -46.925675025332353 $752 -40.138658066224167 $643 $753 forward 7 unknown #
coedge $-1 $480 $479 $650 $754 reversed $210 $-1 #
edge $-1 $755 -4.9739973991660594e-014 $647 13.574034281931818 $641 $756 forward 7 unknown #
vertex $-1 $482 $757 #
straight-curve $-1 8.3208600801623263 -20.940535332958877 13.50456273168426 -1 0 0 I I #
coedge $-1 $640 $483 $486 $654 reversed $476 $-1 #
coedge $-1 $483 $640 $645 $754 forward $476 $-1 #
vertex $-1 $484 $758 #
straight-curve $-1 24.559341128783018 -27.72755229206706 32.052870868794294 0 0 1 I I #
straight-curve $-1 24.559341128783018 -27.727552292067031 1.7491041066948227 0 -0.49999998660252726 -0.86602541151947299 I I #
edge $-1 $752 8.7240991918662871 $488 24.559341128783018 $649 $759 forward 7 unknown #
point $-1 24.559341128783018 -27.727552292067056 13.50456273168426 #
point $-1 24.559341128783018 -20.940535332958877 13.50456273168426 #
edge $-1 $760 1 $760 0 $491 $-1 forward 7 unknown #
vertex $-1 $492 $761 #
ellipse-curve $-1 11.891147579249633 -22.631330072722015 6.6437712182898201 0 -0.86602541151947299 0.49999998660252726 0.5 0 0 1 I I #
point $-1 12.391147579249633 -24.334043812512981 7.6268334191895431 #
edge $-1 $762 1 $762 0 $495 $-1 forward 7 unknown #
vertex $-1 $496 $763 #
ellipse-curve $-1 16.641720160324653 -22.631330072722015 6.6437712182898201 0 -0.86602541151947299 0.49999998660252726 0.5 0 0 1 I I #
point $-1 17.141720160324653 -24.334043812512981 7.6268334191895431 #
edge $-1 $764 1 $764 0 $499 $-1 forward 7 unknown #
vertex $-1 $500 $765 #
ellipse-curve $-1 21.392292741399672 -22.631330072722015 6.6437712182898201 0 -0.86602541151947299 0.49999998660252726 0.5 0 0 1 I I #
point $-1 21.892292741399672 -24.334043812512981 7.6268334191895431 #
plane-surface $-1 62.356639301736507 0 0 -1 0 0 0 0 1 forward_v I I I I #
coedge $-1 $506 $679 $509 $673 reversed $361 $-1 #
vertex $-1 $673 $766 #
straight-curve $-1 -62.356639301736507 -27.727552292067056 0 0 0 -1 I I #
edge $-1 $671 -27.727552292067056 $675 27.727552292067056 $670 $767 forward 7 unknown #
straight-curve $-1 0 -27.727552292067056 -13.50456273168426 -1 0 0 I I #
vertex $-1 $512 $768 #
straight-curve $-1 0 27.727552292067056 -13.50456273168426 1 0 0 I I #
point $-1 62.356639301736507 27.727552292067056 -13.50456273168426 #
point $-1 62.356639301736507 -27.727552292067056 -13.50456273168426 #
coedge $-1 $670 $516 $519 $681 forward $361 $-1 #
straight-curve $-1 -62.356639301736507 0 13.50456273168426 0 -1 0 I I #
edge $-1 $520 -13.50456273168426 $675 13.50456273168426 $519 $769 forward 7 unknown #
point $-1 -62.356639301736507 27.727552292067056 13.50456273168426 #
point $-1 -62.356639301736507 -27.727552292067056 13.50456273168426 #
straight-curve $-1 62.356639301736507 -27.727552292067056 0 0 0 -1 I I #
straight-curve $-1 62.356639301736507 27.727552292067056 0 0 0 -1 I I #
plane-surface $-1 0 -27.727552292067056 0 0 1 0 0 0 1 forward_v I I I I #
coedge $-1 $770 $700 $533 $689 forward $530 $-1 #
coedge $-1 $690 $532 $541 $698 forward $380 $-1 #
edge $-1 $693 -3.8987949151725791 $691 3.8987949151725791 $533 $771 forward 7 unknown #
coedge $-1 $534 $688 $770 $772 forward $380 $-1 #
vertex $-1 $535 $773 #
straight-curve $-1 -71.080738493602794 27.727552292067056 -4.1547181093562022 1 0 0 I I #
vertex $-1 $536 $774 #
straight-curve $-1 -71.080738493602794 27.727552292067056 3.6428717209889561 -1 0 0 I I #
point $-1 -62.356639301736507 27.727552292067056 -4.1547181093562022 #
straight-curve $-1 -62.356639301736507 0 -4.1547181093562022 0 1 0 I I #
coedge $-1 $541 $540 $775 $776 forward $542 $-1 #
edge $-1 $543 -8.7240991918662871 $777 8.7240991918662871 $541 $778 forward 7 unknown #
point $-1 -62.356639301736507 -27.727552292067056 -4.1547181093562022 #
coedge $-1 $687 $775 $545 $701 reversed $530 $-1 #
edge $-1 $693 -27.727552292067056 $702 27.727552292067056 $700 $779 forward 7 unknown #
vertex $-1 $701 $780 #
straight-curve $-1 -71.080738493602794 -27.727552292067056 3.6428717209889561 1 0 0 I I #
coedge $-1 $560 $559 $552 $705 forward $549 $-1 #
edge $-1 $706 42.561073021275114 $709 54.316531646264579 $704 $781 forward 7 unknown #
vertex $-1 $564 $782 #
straight-curve $-1 -29.073198981087202 54.002434583736829 13.50456273168426 0 1 0 I I #
edge $-1 $709 10.577789006314418 $561 26.413030943231149 $560 $783 forward 7 unknown #
vertex $-1 $708 $784 #
straight-curve $-1 -29.073198981087202 7.4295823537795513e-007 49.774633875024982 0 -0.49999998660252726 0.86602541151947299 I I #
point $-1 -29.073198981087202 20.940535332958884 13.50456273168426 #
point $-1 -44.908440918003933 27.727552292067056 1.7491041066947943 #
straight-curve $-1 0 27.727552292067056 13.50456273168426 -1 0 0 I I #
vertex $-1 $567 $785 #
point $-1 -41.241392530620587 22.631330072722019 6.6437712182898236 #
vertex $-1 $571 $786 #
point $-1 -36.490819949545568 22.631330072722019 6.6437712182898236 #
vertex $-1 $575 $787 #
point $-1 -31.740247368470548 22.631330072722019 6.6437712182898236 #
coedge $-1 $590 $589 $582 $721 forward $579 $-1 #
edge $-1 $722 42.561073021275114 $725 54.316531646264579 $720 $788 forward 7 unknown #
vertex $-1 $594 $789 #
straight-curve $-1 24.559341128783018 54.002434583736829 13.50456273168426 0 1 0 I I #
edge $-1 $725 -16.238481048620692 $591 -0.40323911170396087 $590 $790 forward 7 unknown #
vertex $-1 $724 $791 #
straight-curve $-1 24.559341128783018 7.4295823537795513e-007 49.774633875024982 0 -0.49999998660252726 0.86602541151947299 I I #
point $-1 24.559341128783018 20.940535332958884 13.50456273168426 #
point $-1 8.7240991918662871 27.727552292067056 1.7491041066947943 #
straight-curve $-1 0 27.727552292067056 13.50456273168426 -1 0 0 I I #
vertex $-1 $597 $792 #
point $-1 12.391147579249633 22.631330072722019 6.6437712182898236 #
vertex $-1 $601 $793 #
point $-1 17.141720160324653 22.631330072722019 6.6437712182898236 #
vertex $-1 $605 $794 #
point $-1 21.892292741399672 22.631330072722019 6.6437712182898236 #
edge $-1 $737 18.548308137110034 $740 30.303766762099514 $610 $795 forward 7 unknown #
vertex $-1 $624 $796 #
straight-curve $-1 -44.908440918003933 -67.866210358291227 13.50456273168426 0 -1 0 I I #
edge $-1 $740 -26.413030943231149 $621 -10.577789006314418 $620 $797 forward 7 unknown #
vertex $-1 $739 $798 #
straight-curve $-1 -44.908440918003933 -27.727552292067031 1.7491041066948227 0 0.49999998660252726 0.86602541151947299 I I #
point $-1 -44.908440918003933 -20.940535332958877 13.50456273168426 #
point $-1 -29.073198981087202 -27.727552292067056 1.7491041066947797 #
straight-curve $-1 0 -27.727552292067056 13.50456273168426 1 0 0 I I #
vertex $-1 $627 $799 #
point $-1 -41.241392530620587 -22.631330072722015 6.6437712182898201 #
vertex $-1 $631 $800 #
point $-1 -36.490819949545568 -22.631330072722015 6.6437712182898201 #
vertex $-1 $635 $801 #
point $-1 -31.740247368470548 -22.631330072722015 6.6437712182898201 #
edge $-1 $752 18.548308137110034 $755 30.303766762099514 $640 $802 forward 7 unknown #
vertex $-1 $654 $803 #
straight-curve $-1 8.7240991918662871 -67.866210358291227 13.50456273168426 0 -1 0 I I #
edge $-1 $755 0.40323911170396087 $651 16.238481048620692 $650 $804 forward 7 unknown #
vertex $-1 $754 $805 #
straight-curve $-1 8.7240991918662871 -27.727552292067031 1.7491041066948227 0 0.49999998660252726 0.86602541151947299 I I #
point $-1 8.7240991918662871 -20.940535332958877 13.50456273168426 #
point $-1 24.559341128783018 -27.727552292067056 1.7491041066947797 #
straight-curve $-1 0 -27.727552292067056 13.50456273168426 1 0 0 I I #
vertex $-1 $657 $806 #
point $-1 12.391147579249633 -22.631330072722015 6.6437712182898201 #
vertex $-1 $661 $807 #
point $-1 17.141720160324653 -22.631330072722015 6.6437712182898201 #
vertex $-1 $665 $808 #
point $-1 21.892292741399672 -22.631330072722015 6.6437712182898201 #
point $-1 -62.356639301736507 -27.727552292067056 -13.50456273168426 #
straight-curve $-1 -62.356639301736507 0 -13.50456273168426 0 1 0 I I #
point $-1 -62.356639301736507 27.727552292067056 -13.50456273168426 #
straight-curve $-1 -62.356639301736507 27.727552292067056 0 0 0 -1 I I #
coedge $-1 $775 $687 $690 $772 reversed $530 $-1 #
straight-curve $-1 -79.804837685469082 27.727552292067056 -0.25592319418362308 0 0 -1 I I #
edge $-1 $777 -27.727552292067056 $691 27.727552292067056 $770 $809 forward 7 unknown #
point $-1 -79.804837685469082 27.727552292067056 -4.1547181093562022 #
point $-1 -79.804837685469082 27.727552292067056 3.6428717209889561 #
coedge $-1 $700 $770 $697 $776 reversed $530 $-1 #
edge $-1 $702 -3.8987949151725791 $777 3.8987949151725791 $775 $810 forward 7 unknown #
vertex $-1 $772 $811 #
straight-curve $-1 -71.080738493602794 -27.727552292067056 -4.1547181093562022 -1 0 0 I I #
straight-curve $-1 -79.804837685469082 0 3.6428717209889561 0 -1 0 I I #
point $-1 -79.804837685469082 -27.727552292067056 3.6428717209889561 #
straight-curve $-1 -29.073198981087202 27.72755229206706 56.065635752959373 0 0 -1 I I #
point $-1 -29.073198981087202 27.727552292067056 13.50456273168426 #
straight-curve $-1 -18.495409974772784 27.727552292067056 1.7491041066947908 -1 0 0 I I #
point $-1 -29.073198981087202 27.727552292067056 1.7491041066947943 #
point $-1 -41.741392530620587 22.198317366962282 6.3937712249885594 #
point $-1 -36.990819949545568 22.198317366962282 6.3937712249885594 #
point $-1 -32.240247368470548 22.198317366962282 6.3937712249885594 #
straight-curve $-1 24.559341128783018 27.72755229206706 56.065635752959373 0 0 -1 I I #
point $-1 24.559341128783018 27.727552292067056 13.50456273168426 #
straight-curve $-1 8.3208600801623263 27.727552292067056 1.7491041066947908 -1 0 0 I I #
point $-1 24.559341128783018 27.727552292067056 1.7491041066947943 #
point $-1 11.891147579249633 22.198317366962282 6.3937712249885594 #
point $-1 16.641720160324653 22.198317366962282 6.3937712249885594 #
point $-1 21.392292741399672 22.198317366962282 6.3937712249885594 #
straight-curve $-1 -44.908440918003933 -27.72755229206706 32.052870868794294 0 0 -1 I I #
point $-1 -44.908440918003933 -27.727552292067056 13.50456273168426 #
straight-curve $-1 -18.495409974772784 -27.727552292067056 1.7491041066947846 1 0 0 I I #
point $-1 -44.908440918003933 -27.727552292067056 1.7491041066947797 #
point $-1 -41.741392530620587 -22.198317366962279 6.3937712249885559 #
point $-1 -36.990819949545568 -22.198317366962279 6.3937712249885559 #
point $-1 -32.240247368470548 -22.198317366962279 6.3937712249885559 #
straight-curve $-1 8.7240991918662871 -27.72755229206706 32.052870868794294 0 0 -1 I I #
point $-1 8.7240991918662871 -27.727552292067056 13.50456273168426 #
straight-curve $-1 8.3208600801623263 -27.727552292067056 1.7491041066947846 1 0 0 I I #
point $-1 8.7240991918662871 -27.727552292067056 1.7491041066947797 #
point $-1 11.891147579249633 -22.198317366962279 6.3937712249885559 #
point $-1 16.641720160324653 -22.198317366962279 6.3937712249885559 #
point $-1 21.392292741399672 -22.198317366962279 6.3937712249885559 #
straight-curve $-1 -79.804837685469082 0 -4.1547181093562022 0 1 0 I I #
straight-curve $-1 -79.804837685469082 -27.727552292067056 -0.25592319418362308 0 0 -1 I I #
point $-1 -79.804837685469082 -27.727552292067056 -4.1547181093562022 #
End-of-ACIS-data 