500 0 10 0           
7 Unknown 11 ACIS 5.0 NT 24 Fri Mar 26 20:11:15 1999 
-1 9.9999999999999995e-007 1e-010 
body $-1 $10 $-1 $11 #
body $-1 $12 $-1 $13 #
body $-1 $14 $-1 $15 #
body $-1 $16 $-1 $17 #
body $-1 $18 $-1 $19 #
body $-1 $20 $-1 $21 #
body $-1 $22 $-1 $23 #
body $-1 $24 $-1 $25 #
body $-1 $26 $-1 $27 #
body $-1 $28 $-1 $29 #
lump $-1 $-1 $30 $0 #
transform $-1 1 0 0 0 1 0 0 0 1 64.356212042603843 38.991611535904937 19.177013912412779 1 rotate no_reflect no_shear #
lump $-1 $-1 $31 $1 #
transform $-1 1 0 0 0 1 0 0 0 1 64.356212042603843 38.991611535904937 19.177013912412779 1 rotate no_reflect no_shear #
lump $-1 $-1 $32 $2 #
transform $-1 1 0 0 0 1 0 0 0 1 64.356212042603843 38.991611535904937 19.177013912412779 1 rotate no_reflect no_shear #
lump $-1 $-1 $33 $3 #
transform $-1 1 0 0 0 1 0 0 0 1 64.356212042603843 38.991611535904937 19.177013912412779 1 rotate no_reflect no_shear #
lump $-1 $-1 $34 $4 #
transform $-1 1 0 0 0 1 0 0 0 1 64.356212042603843 38.991611535904937 19.177013912412779 1 rotate no_reflect no_shear #
lump $-1 $-1 $35 $5 #
transform $-1 1 0 0 0 1 0 0 0 1 64.356212042603843 38.991611535904937 19.177013912412779 1 rotate no_reflect no_shear #
lump $-1 $-1 $36 $6 #
transform $-1 1 0 0 0 1 0 0 0 1 64.356212042603843 38.991611535904937 19.177013912412779 1 rotate no_reflect no_shear #
lump $-1 $-1 $37 $7 #
transform $-1 1 0 0 0 1 0 0 0 1 64.356212042603843 38.991611535904937 19.177013912412779 1 rotate no_reflect no_shear #
lump $-1 $-1 $38 $8 #
transform $-1 1 0 0 0 1 0 0 0 1 64.356212042603843 38.991611535904937 19.177013912412779 1 rotate no_reflect no_shear #
lump $-1 $-1 $39 $9 #
transform $-1 1 0 0 0 1 0 0 0 1 64.356212042603843 38.991611535904937 19.177013912412779 1 rotate no_reflect no_shear #
shell $-1 $-1 $-1 $40 $-1 $10 #
shell $-1 $-1 $-1 $41 $-1 $12 #
shell $-1 $-1 $-1 $42 $-1 $14 #
shell $-1 $-1 $-1 $43 $-1 $16 #
shell $-1 $-1 $-1 $44 $-1 $18 #
shell $-1 $-1 $-1 $45 $-1 $20 #
shell $-1 $-1 $-1 $46 $-1 $22 #
shell $-1 $-1 $-1 $47 $-1 $24 #
shell $-1 $-1 $-1 $48 $-1 $26 #
shell $-1 $-1 $-1 $49 $-1 $28 #
face $-1 $50 $51 $30 $-1 $52 forward single #
face $-1 $53 $54 $31 $-1 $55 forward single #
face $-1 $56 $57 $32 $-1 $58 forward single #
face $-1 $59 $60 $33 $-1 $61 reversed single #
face $-1 $62 $63 $34 $-1 $64 forward single #
face $-1 $65 $66 $35 $-1 $67 reversed single #
face $-1 $68 $69 $36 $-1 $70 forward single #
face $-1 $71 $72 $37 $-1 $73 reversed single #
face $-1 $74 $75 $38 $-1 $76 forward single #
face $-1 $77 $78 $39 $-1 $79 forward single #
face $-1 $80 $81 $30 $-1 $82 reversed single #
loop $-1 $-1 $83 $40 #
plane-surface $-1 0 0 19.177013912412779 0 0 1 1 0 0 forward_v I I I I #
face $-1 $84 $85 $31 $-1 $86 reversed single #
loop $-1 $-1 $87 $41 #
plane-surface $-1 -64.356212042603843 0 0 1 0 0 0 0 -1 forward_v I I I I #
face $-1 $88 $89 $32 $-1 $90 forward single #
loop $-1 $-1 $91 $42 #
plane-surface $-1 64.356212042603843 0 0 -1 0 0 0 0 1 forward_v I I I I #
face $-1 $92 $93 $33 $-1 $94 reversed single #
loop $-1 $-1 $95 $43 #
plane-surface $-1 -11.57031570615861 111.46823108083903 135.53318221771144 1 0 0 0 -0.86602541151947299 -0.49999998660252726 forward_v I I I I #
face $-1 $96 $97 $34 $-1 $98 forward single #
loop $-1 $99 $100 $44 #
cone-surface $-1 -5.7851578530792978 33.278588665074238 10.700100264462233 0 -0.86602541151947299 -0.49999998660252726 1.5 0 0 1 I I 0 1 1.5 forward I I I I #
face $-1 $101 $102 $35 $-1 $103 reversed single #
loop $-1 $-1 $104 $45 #
plane-surface $-1 31.019332987779634 111.46823108083903 135.53318221771144 1 0 0 0 -0.86602541151947299 -0.49999998660252726 forward_v I I I I #
face $-1 $105 $106 $36 $-1 $107 forward single #
loop $-1 $108 $109 $46 #
cone-surface $-1 36.804490840858946 33.278588665074238 10.700100264462233 0 -0.86602541151947299 -0.49999998660252726 1.5 0 0 1 I I 0 1 1.5 forward I I I I #
face $-1 $110 $111 $37 $-1 $112 reversed single #
loop $-1 $-1 $113 $47 #
plane-surface $-1 42.589648693938237 -136.13211215355028 98.004346778600578 -1 0 0 0 -0.75470958851134928 0.65605901945558964 forward_v I I I I #
face $-1 $114 $115 $38 $-1 $116 forward single #
loop $-1 $117 $118 $48 #
cone-surface $-1 31.902361353988198 -35.639646388710112 15.5771338904883 0 0.75470958851134928 -0.65605901945558964 1.5 0 0 1 I I 0 1 1.5 forward I I I I #
face $-1 $119 $120 $39 $-1 $121 forward single #
loop $-1 $122 $123 $49 #
cone-surface $-1 38.314733757958223 -35.639646388710112 15.5771338904883 0 0.75470958851134928 -0.65605901945558964 1.5 0 0 1 I I 0 1 1.5 forward I I I I #
face $-1 $124 $125 $30 $-1 $126 reversed single #
loop $-1 $-1 $127 $50 #
plane-surface $-1 0 0 -19.177013912412779 0 0 1 1 0 0 forward_v I I I I #
coedge $-1 $128 $129 $130 $131 forward $51 $-1 #
face $-1 $132 $133 $31 $-1 $134 reversed single #
loop $-1 $-1 $135 $53 #
plane-surface $-1 0 38.991611535904937 0 0 -1 0 0 0 -1 forward_v I I I I #
coedge $-1 $136 $137 $138 $139 forward $54 $-1 #
face $-1 $140 $141 $32 $-1 $142 reversed single #
loop $-1 $-1 $143 $56 #
plane-surface $-1 0 0 19.177013912412779 0 0 1 1 0 0 forward_v I I I I #
coedge $-1 $144 $145 $146 $147 forward $57 $-1 #
face $-1 $148 $149 $33 $-1 $150 reversed single #
loop $-1 $-1 $151 $59 #
plane-surface $-1 -5.7851578530792978 1.0447781164657499e-006 71.176971899528795 0 0.86602541151947299 0.49999998660252726 1 0 0 forward_v I I I I #
coedge $-1 $152 $153 $154 $155 reversed $60 $-1 #
face $-1 $-1 $156 $34 $-1 $157 forward single #
loop $-1 $158 $159 $62 #
cone-surface $-1 -5.7851578530792978 31.400757646607317 9.615934059191293 0 -0.86602541151947299 -0.49999998660252726 0.75 0 0 1 I I -0.70710678118654757 0.70710678118654757 0.75 forward I I I I #
loop $-1 $-1 $160 $44 #
coedge $-1 $100 $100 $161 $162 reversed $63 $-1 #
face $-1 $163 $164 $35 $-1 $165 reversed single #
loop $-1 $-1 $166 $65 #
plane-surface $-1 36.804490840858946 1.0447781164657499e-006 71.176971899528795 0 0.86602541151947299 0.49999998660252726 1 0 0 forward_v I I I I #
coedge $-1 $167 $168 $169 $170 reversed $66 $-1 #
face $-1 $-1 $171 $36 $-1 $172 forward single #
loop $-1 $173 $174 $68 #
cone-surface $-1 36.804490840858946 31.400757646607317 9.615934059191293 0 -0.86602541151947299 -0.49999998660252726 0.75 0 0 1 I I -0.70710678118654757 0.70710678118654757 0.75 forward I I I I #
loop $-1 $-1 $175 $46 #
coedge $-1 $109 $109 $176 $177 reversed $69 $-1 #
face $-1 $178 $179 $37 $-1 $180 reversed single #
loop $-1 $-1 $181 $71 #
plane-surface $-1 35.108547555973203 -38.991611535904909 13.561400041507198 0 -0.75470958851134928 0.65605901945558964 1 0 0 forward_v I I I I #
coedge $-1 $182 $183 $184 $185 reversed $72 $-1 #
face $-1 $-1 $186 $38 $-1 $187 forward single #
loop $-1 $188 $189 $74 #
cone-surface $-1 31.902361353988198 -34.162438319189874 14.293016539424915 0 0.75470958851134928 -0.65605901945558964 0.75 0 0 1 I I -0.70710678118654757 0.70710678118654757 0.75 forward I I I I #
loop $-1 $-1 $190 $48 #
coedge $-1 $118 $118 $191 $192 reversed $75 $-1 #
face $-1 $-1 $193 $39 $-1 $194 forward single #
loop $-1 $195 $196 $77 #
cone-surface $-1 38.314733757958223 -34.162438319189874 14.293016539424915 0 0.75470958851134928 -0.65605901945558964 0.75 0 0 1 I I -0.70710678118654757 0.70710678118654757 0.75 forward I I I I #
loop $-1 $-1 $197 $49 #
coedge $-1 $123 $123 $198 $199 reversed $78 $-1 #
face $-1 $200 $201 $30 $-1 $202 reversed single #
loop $-1 $-1 $203 $80 #
plane-surface $-1 0 -38.991611535904937 0 0 1 0 0 0 1 forward_v I I I I #
coedge $-1 $204 $205 $206 $207 forward $81 $-1 #
coedge $-1 $208 $83 $209 $210 forward $51 $-1 #
coedge $-1 $83 $208 $211 $212 forward $51 $-1 #
coedge $-1 $213 $214 $83 $131 reversed $215 $-1 #
edge $-1 $216 -38.991611535904937 $217 38.991611535904937 $130 $218 forward 7 unknown #
face $-1 $219 $220 $31 $-1 $221 reversed single #
loop $-1 $-1 $138 $84 #
plane-surface $-1 -75.23949371693665 0 9.3778740845038371 0 0 1 1 0 0 forward_v I I I I #
coedge $-1 $222 $223 $136 $224 forward $85 $-1 #
coedge $-1 $225 $87 $135 $224 reversed $54 $-1 #
coedge $-1 $87 $225 $226 $227 reversed $54 $-1 #
coedge $-1 $228 $229 $87 $139 reversed $133 $-1 #
edge $-1 $230 -38.991611535904937 $231 38.991611535904937 $138 $232 forward 7 unknown #
face $-1 $233 $234 $32 $-1 $235 reversed single #
loop $-1 $-1 $236 $88 #
plane-surface $-1 0 -38.991611535904937 0 0 1 0 0 0 1 forward_v I I I I #
coedge $-1 $237 $238 $239 $240 forward $89 $-1 #
coedge $-1 $239 $91 $236 $241 reversed $57 $-1 #
coedge $-1 $91 $239 $242 $243 reversed $57 $-1 #
coedge $-1 $244 $245 $91 $147 reversed $234 $-1 #
edge $-1 $246 -38.991611535904937 $247 38.991611535904937 $146 $248 forward 7 unknown #
face $-1 $249 $250 $33 $-1 $251 reversed single #
loop $-1 $-1 $252 $92 #
plane-surface $-1 1.4210854715202004e-014 111.46823108083903 135.53318221771144 -1 0 0 0 0.86602541151947299 0.49999998660252726 forward_v I I I I #
coedge $-1 $253 $254 $255 $256 reversed $93 $-1 #
coedge $-1 $153 $95 $257 $258 reversed $60 $-1 #
coedge $-1 $95 $152 $253 $259 reversed $60 $-1 #
coedge $-1 $255 $260 $95 $155 forward $261 $-1 #
edge $-1 $262 16.742504004514579 $263 25.711925826521306 $154 $264 forward 7 unknown #
loop $-1 $-1 $161 $96 #
plane-surface $-1 -5.7851578530792978 1.0447781164657499e-006 71.176971899528795 0 0.86602541151947299 0.49999998660252726 1 0 0 forward_v I I I I #
loop $-1 $-1 $265 $62 #
coedge $-1 $159 $159 $160 $266 reversed $97 $-1 #
coedge $-1 $160 $160 $159 $266 forward $99 $-1 #
coedge $-1 $161 $161 $100 $162 forward $156 $-1 #
edge $-1 $267 3.9094909801579906e-016 $267 6.2831853071796004 $161 $268 forward 7 unknown #
face $-1 $269 $270 $35 $-1 $271 forward single #
loop $-1 $-1 $272 $101 #
plane-surface $-1 42.589648693938258 111.46823108083903 135.53318221771144 -1 0 0 0 0.86602541151947299 0.49999998660252726 forward_v I I I I #
coedge $-1 $273 $274 $275 $276 reversed $102 $-1 #
coedge $-1 $168 $104 $277 $278 reversed $66 $-1 #
coedge $-1 $104 $167 $273 $279 reversed $66 $-1 #
coedge $-1 $275 $280 $104 $170 forward $270 $-1 #
edge $-1 $281 16.742504004514579 $282 25.711925826521306 $169 $283 forward 7 unknown #
loop $-1 $-1 $176 $105 #
plane-surface $-1 36.804490840858946 1.0447781164657499e-006 71.176971899528795 0 0.86602541151947299 0.49999998660252726 1 0 0 forward_v I I I I #
loop $-1 $-1 $284 $68 #
coedge $-1 $174 $174 $175 $285 reversed $106 $-1 #
coedge $-1 $175 $175 $174 $285 forward $108 $-1 #
coedge $-1 $176 $176 $109 $177 forward $171 $-1 #
edge $-1 $286 3.9094909801579906e-016 $286 6.2831853071796004 $176 $287 forward 7 unknown #
face $-1 $288 $289 $37 $-1 $290 reversed single #
loop $-1 $-1 $291 $110 #
plane-surface $-1 27.627446418008169 -136.13211215355028 98.004346778600578 1 0 0 0 0.75470958851134928 -0.65605901945558964 forward_v I I I I #
coedge $-1 $292 $293 $294 $295 reversed $111 $-1 #
coedge $-1 $183 $113 $296 $297 reversed $72 $-1 #
coedge $-1 $113 $182 $292 $298 reversed $72 $-1 #
coedge $-1 $294 $299 $113 $185 forward $300 $-1 #
edge $-1 $301 29.074444540870203 $302 33.956023078986448 $184 $303 forward 7 unknown #
loop $-1 $-1 $191 $114 #
plane-surface $-1 35.108547555973203 -38.991611535904909 13.561400041507198 0 -0.75470958851134928 0.65605901945558964 1 0 0 forward_v I I I I #
loop $-1 $-1 $304 $74 #
coedge $-1 $189 $189 $190 $305 reversed $115 $-1 #
coedge $-1 $190 $190 $189 $305 forward $117 $-1 #
coedge $-1 $191 $191 $118 $192 forward $186 $-1 #
edge $-1 $306 1.401908904423403e-015 $306 6.2831853071796022 $191 $307 forward 7 unknown #
loop $-1 $-1 $198 $119 #
plane-surface $-1 35.108547555973203 -38.991611535904909 13.561400041507198 0 -0.75470958851134928 0.65605901945558964 1 0 0 forward_v I I I I #
loop $-1 $-1 $308 $77 #
coedge $-1 $196 $196 $197 $309 reversed $120 $-1 #
coedge $-1 $197 $197 $196 $309 forward $122 $-1 #
coedge $-1 $198 $198 $123 $199 forward $193 $-1 #
edge $-1 $310 1.401908904423403e-015 $310 6.2831853071796022 $198 $311 forward 7 unknown #
face $-1 $312 $313 $30 $-1 $314 reversed single #
loop $-1 $-1 $315 $124 #
plane-surface $-1 -64.356212042603843 0 0 1 0 0 0 0 -1 forward_v I I I I #
coedge $-1 $316 $211 $317 $318 forward $125 $-1 #
coedge $-1 $319 $127 $316 $320 forward $81 $-1 #
coedge $-1 $127 $319 $321 $322 forward $81 $-1 #
coedge $-1 $214 $213 $127 $207 reversed $215 $-1 #
edge $-1 $323 -38.991611535904937 $324 38.991611535904937 $206 $325 forward 7 unknown #
coedge $-1 $129 $128 $326 $327 forward $51 $-1 #
coedge $-1 $328 $329 $128 $210 reversed $313 $-1 #
edge $-1 $217 -64.356212042603843 $330 64.356212042603843 $209 $331 forward 7 unknown #
coedge $-1 $203 $332 $129 $212 reversed $125 $-1 #
edge $-1 $333 -64.356212042603843 $216 64.356212042603843 $211 $334 forward 7 unknown #
coedge $-1 $206 $130 $332 $335 forward $215 $-1 #
coedge $-1 $130 $206 $328 $336 reversed $215 $-1 #
loop $-1 $-1 $213 $312 #
vertex $-1 $131 $337 #
vertex $-1 $131 $338 #
straight-curve $-1 64.356212042603843 0 19.177013912412779 0 1 0 I I #
face $-1 $339 $340 $31 $-1 $341 forward single #
loop $-1 $-1 $342 $132 #
plane-surface $-1 -86.122775391269457 0 14.277443998458306 1 0 0 0 0 -1 forward_v I I I I #
coedge $-1 $343 $135 $229 $344 reversed $85 $-1 #
coedge $-1 $135 $343 $345 $346 reversed $85 $-1 #
edge $-1 $347 -19.177013912412779 $231 -9.3778740845038371 $135 $348 forward 7 unknown #
coedge $-1 $137 $136 $349 $350 reversed $54 $-1 #
coedge $-1 $351 $352 $137 $227 forward $353 $-1 #
edge $-1 $230 9.3778740845038371 $354 19.177013912412779 $226 $355 forward 7 unknown #
coedge $-1 $356 $138 $352 $357 forward $133 $-1 #
coedge $-1 $138 $356 $222 $344 forward $133 $-1 #
vertex $-1 $227 $358 #
vertex $-1 $224 $359 #
straight-curve $-1 -64.356212042603843 0 9.3778740845038371 0 1 0 I I #
face $-1 $360 $361 $32 $-1 $362 reversed single #
loop $-1 $-1 $363 $140 #
plane-surface $-1 75.23949371693665 0 9.3778740845038371 0 0 1 1 0 0 forward_v I I I I #
coedge $-1 $364 $365 $144 $241 forward $141 $-1 #
coedge $-1 $366 $143 $365 $367 forward $89 $-1 #
coedge $-1 $143 $366 $368 $369 forward $89 $-1 #
coedge $-1 $145 $144 $143 $240 reversed $57 $-1 #
edge $-1 $370 -38.991611535904937 $371 38.991611535904937 $143 $372 forward 7 unknown #
edge $-1 $371 -19.177013912412779 $247 -9.3778740845038371 $236 $373 forward 7 unknown #
coedge $-1 $368 $374 $145 $243 forward $375 $-1 #
edge $-1 $246 9.3778740845038371 $370 19.177013912412779 $242 $376 forward 7 unknown #
coedge $-1 $363 $146 $374 $377 forward $234 $-1 #
coedge $-1 $146 $363 $364 $378 forward $234 $-1 #
vertex $-1 $243 $379 #
vertex $-1 $241 $380 #
straight-curve $-1 64.356212042603843 0 9.3778740845038371 0 -1 0 I I #
face $-1 $-1 $261 $33 $-1 $381 forward single #
loop $-1 $-1 $382 $148 #
plane-surface $-1 0 38.991611535904937 0 0 -1 0 0 0 -1 forward_v I I I I #
coedge $-1 $383 $384 $385 $386 reversed $149 $-1 #
coedge $-1 $387 $151 $153 $259 forward $93 $-1 #
coedge $-1 $151 $387 $383 $388 forward $93 $-1 #
coedge $-1 $385 $154 $151 $256 forward $261 $-1 #
edge $-1 $263 -8.6777367796189608 $389 2.8925789265396631 $255 $390 forward 7 unknown #
coedge $-1 $391 $392 $152 $258 forward $250 $-1 #
edge $-1 $393 -64.125072061705907 $262 -48.589577196442946 $257 $394 forward 7 unknown #
edge $-1 $263 60.044378947126049 $393 77.983223071809846 $153 $395 forward 7 unknown #
coedge $-1 $154 $385 $391 $396 forward $261 $-1 #
loop $-1 $-1 $385 $249 #
vertex $-1 $258 $397 #
vertex $-1 $155 $398 #
straight-curve $-1 -11.57031570615861 55.734115540419516 19.177013912412775 0 -1 0 I I #
coedge $-1 $265 $265 $-1 $399 reversed $158 $-1 #
edge $-1 $400 0 $400 6.2831853071796004 $159 $401 forward 7 unknown #
vertex $-1 $162 $402 #
ellipse-curve $-1 -5.7851578530792978 34.506900624901576 11.409266479781287 0 0.86602541151947299 0.49999998660252726 1.5 0 0 1 I I #
face $-1 $-1 $403 $35 $-1 $404 reversed single #
loop $-1 $-1 $169 $163 #
plane-surface $-1 0 0 19.177013912412779 0 0 1 1 0 0 forward_v I I I I #
coedge $-1 $405 $406 $407 $408 reversed $164 $-1 #
coedge $-1 $409 $166 $168 $279 forward $102 $-1 #
coedge $-1 $166 $409 $405 $410 forward $102 $-1 #
coedge $-1 $407 $169 $166 $276 forward $270 $-1 #
edge $-1 $282 12.617087567350161 $411 24.187403273508785 $275 $412 forward 7 unknown #
coedge $-1 $413 $414 $167 $278 forward $403 $-1 #
edge $-1 $415 -64.125072061705907 $281 -48.589577196442946 $277 $416 forward 7 unknown #
edge $-1 $282 60.044378947126049 $415 77.983223071809846 $168 $417 forward 7 unknown #
coedge $-1 $169 $407 $413 $418 forward $270 $-1 #
vertex $-1 $170 $419 #
vertex $-1 $170 $420 #
straight-curve $-1 31.019332987779634 55.734115540419516 19.177013912412775 0 -1 0 I I #
coedge $-1 $284 $284 $-1 $421 reversed $173 $-1 #
edge $-1 $422 0 $422 6.2831853071796004 $174 $423 forward 7 unknown #
vertex $-1 $177 $424 #
ellipse-curve $-1 36.804490840858946 34.506900624901576 11.409266479781287 0 0.86602541151947299 0.49999998660252726 1.5 0 0 1 I I #
face $-1 $-1 $300 $37 $-1 $425 forward single #
loop $-1 $-1 $426 $178 #
plane-surface $-1 0 -38.991611535904937 0 0 1 0 0 0 1 forward_v I I I I #
coedge $-1 $427 $428 $429 $430 reversed $179 $-1 #
coedge $-1 $431 $181 $183 $298 forward $111 $-1 #
coedge $-1 $181 $431 $427 $432 forward $111 $-1 #
coedge $-1 $429 $184 $181 $295 forward $300 $-1 #
edge $-1 $302 -25.035374915951635 $433 -10.073172640021568 $294 $434 forward 7 unknown #
coedge $-1 $435 $436 $182 $297 forward $289 $-1 #
edge $-1 $437 -35.440773347793126 $301 -29.825159476887514 $296 $438 forward 7 unknown #
edge $-1 $302 -7.440761262861753 $437 4.2777722527798062e-014 $183 $439 forward 7 unknown #
coedge $-1 $184 $429 $435 $440 forward $300 $-1 #
loop $-1 $-1 $429 $288 #
vertex $-1 $297 $441 #
vertex $-1 $185 $442 #
straight-curve $-1 42.589648693938237 -68.066056076775141 19.177013912412782 0 1 0 I I #
coedge $-1 $304 $304 $-1 $443 reversed $188 $-1 #
edge $-1 $444 0 $444 6.2831853071796004 $189 $445 forward 7 unknown #
vertex $-1 $192 $446 #
ellipse-curve $-1 31.902361353988198 -36.550822266846815 16.369206976959973 0 -0.75470958851134928 0.65605901945558964 1.5 0 0 1 I I #
coedge $-1 $308 $308 $-1 $447 reversed $195 $-1 #
edge $-1 $448 0 $448 6.2831853071796004 $196 $449 forward 7 unknown #
vertex $-1 $199 $450 #
ellipse-curve $-1 38.314733757958223 -36.550822266846815 16.369206976959973 0 -0.75470958851134928 0.65605901945558964 1.5 0 0 1 I I #
face $-1 $-1 $215 $30 $-1 $451 reversed single #
loop $-1 $-1 $328 $200 #
plane-surface $-1 0 38.991611535904937 0 0 -1 0 0 0 -1 forward_v I I I I #
coedge $-1 $452 $326 $329 $453 forward $201 $-1 #
coedge $-1 $332 $203 $204 $320 reversed $125 $-1 #
coedge $-1 $326 $452 $203 $318 reversed $201 $-1 #
edge $-1 $333 -19.177013912412779 $454 19.177013912412779 $317 $455 forward 7 unknown #
coedge $-1 $205 $204 $452 $456 forward $81 $-1 #
edge $-1 $324 -64.356212042603843 $454 64.356212042603843 $316 $457 forward 7 unknown #
coedge $-1 $329 $328 $205 $322 reversed $313 $-1 #
edge $-1 $458 -64.356212042603843 $323 64.356212042603843 $321 $459 forward 7 unknown #
vertex $-1 $207 $460 #
vertex $-1 $335 $461 #
straight-curve $-1 64.356212042603843 0 -19.177013912412779 0 -1 0 I I #
coedge $-1 $315 $317 $208 $327 reversed $201 $-1 #
edge $-1 $330 -38.991611535904937 $333 38.991611535904937 $326 $462 forward 7 unknown #
coedge $-1 $321 $209 $214 $336 forward $313 $-1 #
coedge $-1 $209 $321 $315 $453 reversed $313 $-1 #
vertex $-1 $210 $463 #
straight-curve $-1 0 38.991611535904937 19.177013912412779 -1 0 0 I I #
coedge $-1 $211 $316 $213 $335 reversed $125 $-1 #
vertex $-1 $327 $464 #
straight-curve $-1 0 -38.991611535904937 19.177013912412779 1 0 0 I I #
edge $-1 $216 -19.177013912412779 $324 19.177013912412779 $213 $465 forward 7 unknown #
edge $-1 $217 -19.177013912412779 $323 19.177013912412779 $214 $466 forward 7 unknown #
point $-1 64.356212042603843 -38.991611535904937 19.177013912412779 #
point $-1 64.356212042603843 38.991611535904937 19.177013912412779 #
face $-1 $-1 $353 $31 $-1 $467 reversed single #
loop $-1 $-1 $349 $219 #
plane-surface $-1 0 0 19.177013912412779 0 0 1 1 0 0 forward_v I I I I #
coedge $-1 $468 $469 $343 $470 forward $220 $-1 #
coedge $-1 $223 $222 $342 $470 reversed $85 $-1 #
edge $-1 $471 -10.883281674332807 $231 10.883281674332807 $222 $472 forward 7 unknown #
coedge $-1 $473 $349 $223 $346 forward $340 $-1 #
edge $-1 $347 64.356212042603843 $474 86.122775391269457 $223 $475 forward 7 unknown #
vertex $-1 $346 $476 #
straight-curve $-1 -64.356212042603843 38.991611535904937 0 0 0 -1 I I #
coedge $-1 $345 $477 $225 $350 forward $340 $-1 #
edge $-1 $354 -38.991611535904937 $347 38.991611535904937 $349 $478 forward 7 unknown #
coedge $-1 $479 $226 $477 $480 reversed $353 $-1 #
coedge $-1 $226 $479 $228 $357 reversed $353 $-1 #
loop $-1 $-1 $226 $339 #
vertex $-1 $227 $481 #
straight-curve $-1 -64.356212042603843 -38.991611535904937 0 0 0 1 I I #
coedge $-1 $229 $228 $468 $482 forward $133 $-1 #
edge $-1 $230 -10.883281674332807 $483 10.883281674332807 $352 $484 forward 7 unknown #
point $-1 -64.356212042603843 -38.991611535904937 9.3778740845038371 #
point $-1 -64.356212042603843 38.991611535904937 9.3778740845038371 #
face $-1 $-1 $375 $32 $-1 $485 reversed single #
loop $-1 $-1 $486 $233 #
plane-surface $-1 86.122775391269457 0 14.277443998458306 -1 0 0 0 0 1 forward_v I I I I #
coedge $-1 $245 $244 $487 $488 forward $234 $-1 #
coedge $-1 $489 $236 $245 $378 reversed $141 $-1 #
coedge $-1 $236 $489 $237 $367 reversed $141 $-1 #
coedge $-1 $238 $237 $490 $491 forward $89 $-1 #
edge $-1 $371 -10.883281674332807 $492 10.883281674332807 $365 $493 forward 7 unknown #
coedge $-1 $494 $242 $238 $369 reversed $375 $-1 #
edge $-1 $495 -86.122775391269457 $370 -64.356212042603843 $368 $496 forward 7 unknown #
vertex $-1 $243 $497 #
vertex $-1 $367 $498 #
straight-curve $-1 64.356212042603843 0 19.177013912412779 0 -1 0 I I #
straight-curve $-1 64.356212042603843 -38.991611535904937 0 0 0 -1 I I #
coedge $-1 $242 $494 $244 $377 reversed $375 $-1 #
loop $-1 $-1 $242 $360 #
straight-curve $-1 64.356212042603843 38.991611535904937 0 0 0 1 I I #
edge $-1 $246 -10.883281674332807 $499 10.883281674332807 $374 $500 forward 7 unknown #
edge $-1 $501 -10.883281674332807 $247 10.883281674332807 $364 $502 forward 7 unknown #
point $-1 64.356212042603843 38.991611535904937 9.3778740845038371 #
point $-1 64.356212042603843 -38.991611535904937 9.3778740845038371 #
plane-surface $-1 0 0 19.177013912412779 0 0 1 1 0 0 forward_v I I I I #
coedge $-1 $392 $391 $384 $503 forward $250 $-1 #
coedge $-1 $384 $252 $254 $388 reversed $149 $-1 #
coedge $-1 $252 $383 $382 $503 reversed $149 $-1 #
coedge $-1 $260 $255 $252 $386 forward $261 $-1 #
edge $-1 $389 -25.711925826521306 $504 -16.742504004514579 $385 $505 forward 7 unknown #
coedge $-1 $254 $253 $392 $506 reversed $93 $-1 #
edge $-1 $507 -77.983223071809846 $389 -60.044378947126049 $383 $508 forward 7 unknown #
vertex $-1 $256 $509 #
straight-curve $-1 -2.8925789265396489 30.022189713898207 19.177013912412775 1 0 0 I I #
coedge $-1 $382 $257 $260 $396 reversed $250 $-1 #
coedge $-1 $257 $382 $387 $506 forward $250 $-1 #
vertex $-1 $258 $510 #
straight-curve $-1 -11.57031570615861 38.991611535904937 67.766591108855721 0 0 1 I I #
straight-curve $-1 -11.57031570615861 1.0447781164657499e-006 71.176971899528795 0 0.49999998660252726 -0.86602541151947299 I I #
edge $-1 $504 -1.4210854715202004e-014 $262 11.57031570615861 $391 $511 forward 7 unknown #
point $-1 -11.57031570615861 38.991611535904937 19.177013912412779 #
point $-1 -11.57031570615861 30.022189713898211 19.177013912412775 #
edge $-1 $512 1 $512 0 $265 $-1 forward 7 unknown #
vertex $-1 $266 $513 #
ellipse-curve $-1 -5.7851578530792978 32.050276705246922 9.9909340491431884 0 0.86602541151947299 0.49999998660252726 1.5 0 0 1 I I #
point $-1 -4.2851578530792978 34.506900624901562 11.409266479781278 #
loop $-1 $-1 $277 $269 #
plane-surface $-1 0 38.991611535904937 0 0 -1 0 0 0 -1 forward_v I I I I #
coedge $-1 $406 $272 $274 $410 reversed $164 $-1 #
coedge $-1 $272 $405 $514 $515 reversed $164 $-1 #
coedge $-1 $280 $275 $272 $408 forward $270 $-1 #
edge $-1 $411 -25.711925826521306 $516 -16.742504004514579 $407 $517 forward 7 unknown #
coedge $-1 $274 $273 $414 $518 reversed $102 $-1 #
edge $-1 $519 -77.983223071809846 $411 -60.044378947126049 $405 $520 forward 7 unknown #
vertex $-1 $276 $521 #
straight-curve $-1 18.402245420429473 30.022189713898207 19.177013912412775 1 0 0 I I #
coedge $-1 $514 $277 $280 $418 reversed $403 $-1 #
coedge $-1 $277 $514 $409 $518 forward $403 $-1 #
vertex $-1 $278 $522 #
straight-curve $-1 31.019332987779634 38.991611535904937 67.766591108855721 0 0 1 I I #
straight-curve $-1 31.019332987779634 1.0447781164657499e-006 71.176971899528795 0 0.49999998660252726 -0.86602541151947299 I I #
edge $-1 $516 -42.589648693938258 $281 -31.019332987779634 $413 $523 forward 7 unknown #
point $-1 31.019332987779634 38.991611535904937 19.177013912412779 #
point $-1 31.019332987779634 30.022189713898211 19.177013912412775 #
edge $-1 $524 1 $524 0 $284 $-1 forward 7 unknown #
vertex $-1 $285 $525 #
ellipse-curve $-1 36.804490840858946 32.050276705246922 9.9909340491431884 0 0.86602541151947299 0.49999998660252726 1.5 0 0 1 I I #
point $-1 38.304490840858946 34.506900624901562 11.409266479781278 #
plane-surface $-1 0 0 19.177013912412779 0 0 1 1 0 0 forward_v I I I I #
coedge $-1 $436 $435 $428 $526 forward $289 $-1 #
coedge $-1 $428 $291 $293 $432 reversed $179 $-1 #
coedge $-1 $291 $427 $426 $526 reversed $179 $-1 #
coedge $-1 $299 $294 $291 $430 forward $300 $-1 #
edge $-1 $433 -33.956023078986448 $527 -29.074444540870203 $429 $528 forward 7 unknown #
coedge $-1 $293 $292 $436 $529 reversed $111 $-1 #
edge $-1 $530 -4.2777722527798062e-014 $433 7.440761262861753 $427 $531 forward 7 unknown #
vertex $-1 $295 $532 #
straight-curve $-1 17.554273777986602 -34.110032997788693 19.177013912412779 -1 0 0 I I #
coedge $-1 $426 $296 $299 $440 reversed $289 $-1 #
coedge $-1 $296 $426 $431 $529 forward $289 $-1 #
vertex $-1 $297 $533 #
straight-curve $-1 42.589648693938237 -38.991611535904937 49.002173389300289 0 0 1 I I #
straight-curve $-1 42.589648693938237 -38.991611535904909 13.561400041507198 0 -0.65605901945558964 -0.75470958851134928 I I #
edge $-1 $527 -47.612047298928481 $301 -32.649845022998413 $435 $534 forward 7 unknown #
point $-1 42.589648693938237 -38.991611535904937 19.177013912412775 #
point $-1 42.589648693938237 -34.110032997788693 19.177013912412779 #
edge $-1 $535 1 $535 0 $304 $-1 forward 7 unknown #
vertex $-1 $305 $536 #
ellipse-curve $-1 31.902361353988198 -34.728470510573388 14.785060804016608 0 -0.75470958851134928 0.65605901945558964 1.5 0 0 1 I I #
point $-1 33.402361353988198 -36.550822266846836 16.369206976959994 #
edge $-1 $537 1 $537 0 $308 $-1 forward 7 unknown #
vertex $-1 $309 $538 #
ellipse-curve $-1 38.314733757958223 -34.728470510573388 14.785060804016608 0 -0.75470958851134928 0.65605901945558964 1.5 0 0 1 I I #
point $-1 39.814733757958223 -36.550822266846836 16.369206976959994 #
plane-surface $-1 64.356212042603843 0 0 -1 0 0 0 0 1 forward_v I I I I #
coedge $-1 $317 $315 $319 $456 reversed $201 $-1 #
edge $-1 $330 -19.177013912412779 $458 19.177013912412779 $329 $539 forward 7 unknown #
vertex $-1 $456 $540 #
straight-curve $-1 -64.356212042603843 -38.991611535904937 0 0 0 -1 I I #
edge $-1 $454 -38.991611535904937 $458 38.991611535904937 $452 $541 forward 7 unknown #
straight-curve $-1 0 -38.991611535904937 -19.177013912412779 -1 0 0 I I #
vertex $-1 $322 $542 #
straight-curve $-1 0 38.991611535904937 -19.177013912412779 1 0 0 I I #
point $-1 64.356212042603843 38.991611535904937 -19.177013912412779 #
point $-1 64.356212042603843 -38.991611535904937 -19.177013912412779 #
straight-curve $-1 -64.356212042603843 0 19.177013912412779 0 -1 0 I I #
point $-1 -64.356212042603843 38.991611535904937 19.177013912412779 #
point $-1 -64.356212042603843 -38.991611535904937 19.177013912412779 #
straight-curve $-1 64.356212042603843 -38.991611535904937 0 0 0 -1 I I #
straight-curve $-1 64.356212042603843 38.991611535904937 0 0 0 -1 I I #
plane-surface $-1 0 -38.991611535904937 0 0 1 0 0 0 1 forward_v I I I I #
coedge $-1 $543 $342 $356 $482 reversed $220 $-1 #
coedge $-1 $342 $543 $473 $544 reversed $220 $-1 #
edge $-1 $474 -4.8995699139544691 $471 4.8995699139544691 $343 $545 forward 7 unknown #
vertex $-1 $344 $546 #
straight-curve $-1 -75.23949371693665 38.991611535904937 9.3778740845038371 1 0 0 I I #
coedge $-1 $477 $345 $469 $544 forward $340 $-1 #
vertex $-1 $346 $547 #
straight-curve $-1 0 38.991611535904937 19.177013912412779 -1 0 0 I I #
point $-1 -64.356212042603843 38.991611535904937 19.177013912412779 #
coedge $-1 $349 $473 $351 $480 forward $340 $-1 #
straight-curve $-1 -64.356212042603843 0 19.177013912412779 0 1 0 I I #
coedge $-1 $352 $351 $543 $548 forward $353 $-1 #
edge $-1 $549 -86.122775391269457 $354 -64.356212042603843 $351 $550 forward 7 unknown #
point $-1 -64.356212042603843 -38.991611535904937 19.177013912412779 #
edge $-1 $483 -38.991611535904937 $471 38.991611535904937 $468 $551 forward 7 unknown #
vertex $-1 $482 $552 #
straight-curve $-1 -75.23949371693665 -38.991611535904937 9.3778740845038371 -1 0 0 I I #
plane-surface $-1 0 38.991611535904937 0 0 -1 0 0 0 -1 forward_v I I I I #
coedge $-1 $487 $490 $489 $553 forward $361 $-1 #
coedge $-1 $554 $486 $363 $488 reversed $361 $-1 #
edge $-1 $499 -38.991611535904937 $501 38.991611535904937 $487 $555 forward 7 unknown #
coedge $-1 $365 $364 $486 $553 reversed $141 $-1 #
coedge $-1 $486 $554 $366 $491 reversed $361 $-1 #
edge $-1 $492 -38.991611535904937 $495 38.991611535904937 $490 $556 forward 7 unknown #
vertex $-1 $491 $557 #
straight-curve $-1 75.23949371693665 -38.991611535904937 19.177013912412775 1 0 0 I I #
coedge $-1 $374 $368 $554 $558 forward $375 $-1 #
vertex $-1 $491 $559 #
straight-curve $-1 0 38.991611535904937 19.177013912412779 -1 0 0 I I #
point $-1 64.356212042603843 38.991611535904937 19.177013912412779 #
point $-1 64.356212042603843 -38.991611535904937 19.177013912412779 #
vertex $-1 $488 $560 #
straight-curve $-1 75.23949371693665 38.991611535904937 9.3778740845038371 1 0 0 I I #
vertex $-1 $553 $561 #
straight-curve $-1 75.23949371693665 -38.991611535904937 9.3778740845038371 -1 0 0 I I #
edge $-1 $504 48.589577196442946 $507 64.125072061705907 $382 $562 forward 7 unknown #
vertex $-1 $396 $563 #
straight-curve $-1 1.4210854715202004e-014 55.734115540419516 19.177013912412775 0 1 0 I I #
edge $-1 $507 -2.8925789265396631 $393 8.6777367796189608 $392 $564 forward 7 unknown #
vertex $-1 $506 $565 #
straight-curve $-1 1.4210854715202004e-014 1.0447781164657499e-006 71.176971899528795 0 -0.49999998660252726 0.86602541151947299 I I #
point $-1 1.4210854715202004e-014 30.022189713898211 19.177013912412775 #
point $-1 -11.57031570615861 38.991611535904937 3.6415190471498136 #
straight-curve $-1 0 38.991611535904937 19.177013912412779 -1 0 0 I I #
vertex $-1 $399 $566 #
point $-1 -4.2851578530792978 32.050276705246922 9.9909340491431884 #
coedge $-1 $414 $413 $406 $515 forward $403 $-1 #
edge $-1 $516 48.589577196442946 $519 64.125072061705907 $514 $567 forward 7 unknown #
vertex $-1 $418 $568 #
straight-curve $-1 42.589648693938258 55.734115540419516 19.177013912412775 0 1 0 I I #
edge $-1 $519 -24.187403273508785 $415 -12.617087567350161 $414 $569 forward 7 unknown #
vertex $-1 $518 $570 #
straight-curve $-1 42.589648693938258 1.0447781164657499e-006 71.176971899528795 0 -0.49999998660252726 0.86602541151947299 I I #
point $-1 42.589648693938258 30.022189713898211 19.177013912412775 #
point $-1 31.019332987779634 38.991611535904937 3.6415190471498136 #
straight-curve $-1 0 38.991611535904937 19.177013912412779 -1 0 0 I I #
vertex $-1 $421 $571 #
point $-1 38.304490840858946 32.050276705246922 9.9909340491431884 #
edge $-1 $527 29.825159476887514 $530 35.440773347793126 $426 $572 forward 7 unknown #
vertex $-1 $440 $573 #
straight-curve $-1 27.627446418008169 -68.066056076775141 19.177013912412782 0 -1 0 I I #
edge $-1 $530 10.073172640021568 $437 25.035374915951635 $436 $574 forward 7 unknown #
vertex $-1 $529 $575 #
straight-curve $-1 27.627446418008169 -38.991611535904909 13.561400041507198 0 0.65605901945558964 0.75470958851134928 I I #
point $-1 27.627446418008169 -34.110032997788693 19.177013912412779 #
point $-1 42.589648693938237 -38.991611535904937 13.561400041507166 #
straight-curve $-1 75.23949371693665 -38.991611535904937 19.177013912412775 1 0 0 I I #
vertex $-1 $443 $576 #
point $-1 33.402361353988198 -34.728470510573388 14.785060804016608 #
vertex $-1 $447 $577 #
point $-1 39.814733757958223 -34.728470510573388 14.785060804016608 #
straight-curve $-1 -64.356212042603843 38.991611535904937 0 0 0 -1 I I #
point $-1 -64.356212042603843 -38.991611535904937 -19.177013912412779 #
straight-curve $-1 -64.356212042603843 0 -19.177013912412779 0 1 0 I I #
point $-1 -64.356212042603843 38.991611535904937 -19.177013912412779 #
coedge $-1 $469 $468 $479 $548 reversed $220 $-1 #
edge $-1 $474 -38.991611535904937 $549 38.991611535904937 $469 $578 forward 7 unknown #
straight-curve $-1 -86.122775391269457 38.991611535904937 14.277443998458306 0 0 -1 I I #
point $-1 -86.122775391269457 38.991611535904937 9.3778740845038371 #
point $-1 -86.122775391269457 38.991611535904937 19.177013912412775 #
edge $-1 $549 -4.8995699139544691 $483 4.8995699139544691 $543 $579 forward 7 unknown #
vertex $-1 $544 $580 #
straight-curve $-1 0 -38.991611535904937 19.177013912412779 1 0 0 I I #
straight-curve $-1 -86.122775391269457 0 9.3778740845038371 0 1 0 I I #
point $-1 -86.122775391269457 -38.991611535904937 9.3778740845038371 #
edge $-1 $492 -4.8995699139544691 $501 4.8995699139544691 $486 $581 forward 7 unknown #
coedge $-1 $490 $487 $494 $558 reversed $361 $-1 #
straight-curve $-1 86.122775391269457 0 9.3778740845038371 0 -1 0 I I #
straight-curve $-1 86.122775391269457 0 19.177013912412775 0 1 0 I I #
point $-1 86.122775391269457 -38.991611535904937 19.177013912412775 #
edge $-1 $495 -4.8995699139544691 $499 4.8995699139544691 $554 $582 forward 7 unknown #
point $-1 86.122775391269457 38.991611535904937 19.177013912412775 #
point $-1 86.122775391269457 38.991611535904937 9.3778740845038371 #
point $-1 86.122775391269457 -38.991611535904937 9.3778740845038371 #
straight-curve $-1 1.4210854715202004e-014 38.991611535904937 67.766591108855721 0 0 -1 I I #
point $-1 1.4210854715202004e-014 38.991611535904937 19.177013912412779 #
straight-curve $-1 -2.8925789265396489 38.991611535904937 3.6415190471498065 -1 0 0 I I #
point $-1 1.4210854715202004e-014 38.991611535904937 3.6415190471498136 #
point $-1 -5.7851578530792978 30.751238587967713 9.2409340692393975 #
straight-curve $-1 42.589648693938258 38.991611535904937 67.766591108855721 0 0 -1 I I #
point $-1 42.589648693938258 38.991611535904937 19.177013912412779 #
straight-curve $-1 18.402245420429473 38.991611535904937 3.6415190471498065 -1 0 0 I I #
point $-1 42.589648693938258 38.991611535904937 3.6415190471498136 #
point $-1 36.804490840858946 30.751238587967713 9.2409340692393975 #
straight-curve $-1 27.627446418008169 -38.991611535904937 49.002173389300289 0 0 -1 I I #
point $-1 27.627446418008169 -38.991611535904937 19.177013912412775 #
straight-curve $-1 17.554273777986602 -38.991611535904937 13.561400041507163 1 0 0 I I #
point $-1 27.627446418008169 -38.991611535904937 13.561400041507166 #
point $-1 31.902361353988198 -33.596406127806361 13.800972274833223 #
point $-1 38.314733757958223 -33.596406127806361 13.800972274833223 #
straight-curve $-1 -86.122775391269457 0 19.177013912412775 0 -1 0 I I #
straight-curve $-1 -86.122775391269457 -38.991611535904937 14.277443998458306 0 0 -1 I I #
point $-1 -86.122775391269457 -38.991611535904937 19.177013912412775 #
straight-curve $-1 86.122775391269457 -38.991611535904937 14.277443998458306 0 0 -1 I I #
straight-curve $-1 86.122775391269457 38.991611535904937 14.277443998458306 0 0 -1 I I #
End-of-ACIS-data 