500 0 18 0           
7 Unknown 11 ACIS 5.0 NT 24 Fri Mar 26 02:08:14 1999 
-1 9.9999999999999995e-007 1e-010 
body $-1 $18 $-1 $19 #
body $-1 $20 $-1 $21 #
body $-1 $22 $-1 $23 #
body $-1 $24 $-1 $25 #
body $-1 $26 $-1 $27 #
body $-1 $28 $-1 $29 #
body $-1 $30 $-1 $31 #
body $-1 $32 $-1 $33 #
body $-1 $34 $-1 $35 #
body $-1 $36 $-1 $37 #
body $-1 $38 $-1 $39 #
body $-1 $40 $-1 $41 #
body $-1 $42 $-1 $43 #
body $-1 $44 $-1 $45 #
body $-1 $46 $-1 $47 #
body $-1 $48 $-1 $49 #
body $-1 $50 $-1 $51 #
body $-1 $52 $-1 $53 #
lump $-1 $-1 $54 $0 #
transform $-1 1 0 0 0 1 0 0 0 1 59.740592669454024 34.85126191512645 13.870093878914702 1 rotate no_reflect no_shear #
lump $-1 $-1 $55 $1 #
transform $-1 1 0 0 0 1 0 0 0 1 59.740592669454024 34.85126191512645 13.870093878914702 1 rotate no_reflect no_shear #
lump $-1 $-1 $56 $2 #
transform $-1 1 0 0 0 1 0 0 0 1 59.740592669454024 34.85126191512645 13.870093878914702 1 rotate no_reflect no_shear #
lump $-1 $-1 $57 $3 #
transform $-1 1 0 0 0 1 0 0 0 1 59.740592669454024 34.85126191512645 13.870093878914702 1 rotate no_reflect no_shear #
lump $-1 $-1 $58 $4 #
transform $-1 1 0 0 0 1 0 0 0 1 59.740592669454024 34.85126191512645 13.870093878914702 1 rotate no_reflect no_shear #
lump $-1 $-1 $59 $5 #
transform $-1 1 0 0 0 1 0 0 0 1 59.740592669454024 34.85126191512645 13.870093878914702 1 rotate no_reflect no_shear #
lump $-1 $-1 $60 $6 #
transform $-1 1 0 0 0 1 0 0 0 1 59.740592669454024 34.85126191512645 13.870093878914702 1 rotate no_reflect no_shear #
lump $-1 $-1 $61 $7 #
transform $-1 1 0 0 0 1 0 0 0 1 59.740592669454024 34.85126191512645 13.870093878914702 1 rotate no_reflect no_shear #
lump $-1 $-1 $62 $8 #
transform $-1 1 0 0 0 1 0 0 0 1 59.740592669454024 34.85126191512645 13.870093878914702 1 rotate no_reflect no_shear #
lump $-1 $-1 $63 $9 #
transform $-1 1 0 0 0 1 0 0 0 1 59.740592669454024 34.85126191512645 13.870093878914702 1 rotate no_reflect no_shear #
lump $-1 $-1 $64 $10 #
transform $-1 1 0 0 0 1 0 0 0 1 59.740592669454024 34.85126191512645 13.870093878914702 1 rotate no_reflect no_shear #
lump $-1 $-1 $65 $11 #
transform $-1 1 0 0 0 1 0 0 0 1 59.740592669454024 34.85126191512645 13.870093878914702 1 rotate no_reflect no_shear #
lump $-1 $-1 $66 $12 #
transform $-1 1 0 0 0 1 0 0 0 1 59.740592669454024 34.85126191512645 13.870093878914702 1 rotate no_reflect no_shear #
lump $-1 $-1 $67 $13 #
transform $-1 1 0 0 0 1 0 0 0 1 59.740592669454024 34.85126191512645 13.870093878914702 1 rotate no_reflect no_shear #
lump $-1 $-1 $68 $14 #
transform $-1 1 0 0 0 1 0 0 0 1 59.740592669454024 34.85126191512645 13.870093878914702 1 rotate no_reflect no_shear #
lump $-1 $-1 $69 $15 #
transform $-1 1 0 0 0 1 0 0 0 1 59.740592669454024 34.85126191512645 13.870093878914702 1 rotate no_reflect no_shear #
lump $-1 $-1 $70 $16 #
transform $-1 1 0 0 0 1 0 0 0 1 59.740592669454024 34.85126191512645 13.870093878914702 1 rotate no_reflect no_shear #
lump $-1 $-1 $71 $17 #
transform $-1 1 0 0 0 1 0 0 0 1 59.740592669454024 34.85126191512645 13.870093878914702 1 rotate no_reflect no_shear #
shell $-1 $-1 $-1 $72 $-1 $18 #
shell $-1 $-1 $-1 $73 $-1 $20 #
shell $-1 $-1 $-1 $74 $-1 $22 #
shell $-1 $-1 $-1 $75 $-1 $24 #
shell $-1 $-1 $-1 $76 $-1 $26 #
shell $-1 $-1 $-1 $77 $-1 $28 #
shell $-1 $-1 $-1 $78 $-1 $30 #
shell $-1 $-1 $-1 $79 $-1 $32 #
shell $-1 $-1 $-1 $80 $-1 $34 #
shell $-1 $-1 $-1 $81 $-1 $36 #
shell $-1 $-1 $-1 $82 $-1 $38 #
shell $-1 $-1 $-1 $83 $-1 $40 #
shell $-1 $-1 $-1 $84 $-1 $42 #
shell $-1 $-1 $-1 $85 $-1 $44 #
shell $-1 $-1 $-1 $86 $-1 $46 #
shell $-1 $-1 $-1 $87 $-1 $48 #
shell $-1 $-1 $-1 $88 $-1 $50 #
shell $-1 $-1 $-1 $89 $-1 $52 #
face $-1 $90 $91 $54 $-1 $92 forward single #
face $-1 $93 $94 $55 $-1 $95 forward single #
face $-1 $96 $97 $56 $-1 $98 reversed single #
face $-1 $99 $100 $57 $-1 $101 forward single #
face $-1 $102 $103 $58 $-1 $104 forward single #
face $-1 $105 $106 $59 $-1 $107 forward single #
face $-1 $108 $109 $60 $-1 $110 reversed single #
face $-1 $111 $112 $61 $-1 $113 forward single #
face $-1 $114 $115 $62 $-1 $116 forward single #
face $-1 $117 $118 $63 $-1 $119 forward single #
face $-1 $120 $121 $64 $-1 $122 reversed single #
face $-1 $123 $124 $65 $-1 $125 forward single #
face $-1 $126 $127 $66 $-1 $128 forward single #
face $-1 $129 $130 $67 $-1 $131 forward single #
face $-1 $132 $133 $68 $-1 $134 reversed single #
face $-1 $135 $136 $69 $-1 $137 forward single #
face $-1 $138 $139 $70 $-1 $140 forward single #
face $-1 $141 $142 $71 $-1 $143 forward single #
face $-1 $144 $145 $54 $-1 $146 reversed single #
loop $-1 $-1 $147 $72 #
plane-surface $-1 0 0 13.870093878914702 0 0 1 1 0 0 forward_v I I I I #
face $-1 $148 $149 $55 $-1 $150 reversed single #
loop $-1 $-1 $151 $73 #
plane-surface $-1 -53.810311635892916 0 -7.011451613218882 0 0 1 1 0 0 forward_v I I I I #
face $-1 $152 $153 $56 $-1 $154 reversed single #
loop $-1 $-1 $155 $74 #
plane-surface $-1 -18.763309896539138 86.090563883274797 136.00914721694713 1 0 0 0 -0.78801076186113728 -0.61566146476048833 forward_v I I I I #
face $-1 $156 $157 $57 $-1 $158 forward single #
loop $-1 $159 $160 $75 #
cone-surface $-1 -13.824591710519094 30.243835453175421 9.0339570032310252 0 -0.78801076186113728 -0.61566146476048833 2 0 0 1 I I 0 1 2 forward I I I I #
face $-1 $161 $162 $58 $-1 $163 forward single #
loop $-1 $164 $165 $76 #
cone-surface $-1 -6.4165144314890199 30.243835453175421 9.0339570032310252 0 -0.78801076186113728 -0.61566146476048833 2 0 0 1 I I 0 1 2 forward I I I I #
face $-1 $166 $167 $59 $-1 $168 forward single #
loop $-1 $169 $170 $77 #
cone-surface $-1 0.99156284754105428 30.243835453175421 9.0339570032310252 0 -0.78801076186113728 -0.61566146476048833 2 0 0 1 I I 0 1 2 forward I I I I #
face $-1 $171 $172 $60 $-1 $173 reversed single #
loop $-1 $-1 $174 $78 #
plane-surface $-1 35.047001739353774 86.090563883274797 136.00914721694713 1 0 0 0 -0.78801076186113728 -0.61566146476048833 forward_v I I I I #
face $-1 $175 $176 $61 $-1 $177 forward single #
loop $-1 $178 $179 $79 #
cone-surface $-1 39.985719925373822 30.243835453175421 9.0339570032310252 0 -0.78801076186113728 -0.61566146476048833 2 0 0 1 I I 0 1 2 forward I I I I #
face $-1 $180 $181 $62 $-1 $182 forward single #
loop $-1 $183 $184 $80 #
cone-surface $-1 47.393797204403889 30.243835453175421 9.0339570032310252 0 -0.78801076186113728 -0.61566146476048833 2 0 0 1 I I 0 1 2 forward I I I I #
face $-1 $185 $186 $63 $-1 $187 forward single #
loop $-1 $188 $189 $81 #
cone-surface $-1 54.80187448343397 30.243835453175421 9.0339570032310252 0 -0.78801076186113728 -0.61566146476048833 2 0 0 1 I I 0 1 2 forward I I I I #
face $-1 $190 $191 $64 $-1 $192 reversed single #
loop $-1 $-1 $193 $82 #
plane-surface $-1 5.930281033561112 -129.00372180211113 81.082808309825467 -1 0 0 0 -0.78801076186113728 0.61566146476048833 forward_v I I I I #
face $-1 $194 $195 $65 $-1 $196 forward single #
loop $-1 $197 $198 $83 #
cone-surface $-1 -13.824591710519094 -30.243835453175421 9.0339570032310288 0 0.78801076186113728 -0.61566146476048833 2 0 0 1 I I 0 1 2 forward I I I I #
face $-1 $199 $200 $66 $-1 $201 forward single #
loop $-1 $202 $203 $84 #
cone-surface $-1 -6.4165144314890199 -30.243835453175421 9.0339570032310288 0 0.78801076186113728 -0.61566146476048833 2 0 0 1 I I 0 1 2 forward I I I I #
face $-1 $204 $205 $67 $-1 $206 forward single #
loop $-1 $207 $208 $85 #
cone-surface $-1 0.99156284754105428 -30.243835453175421 9.0339570032310288 0 0.78801076186113728 -0.61566146476048833 2 0 0 1 I I 0 1 2 forward I I I I #
face $-1 $209 $210 $68 $-1 $211 reversed single #
loop $-1 $-1 $212 $86 #
plane-surface $-1 47.393797204403903 -34.851261915126457 7.5228467327539477 0 -0.78801076186113728 0.61566146476048833 1 0 0 forward_v I I I I #
face $-1 $213 $214 $69 $-1 $215 forward single #
loop $-1 $216 $217 $87 #
cone-surface $-1 39.985719925373822 -30.243835453175421 9.0339570032310288 0 0.78801076186113728 -0.61566146476048833 2 0 0 1 I I 0 1 2 forward I I I I #
face $-1 $218 $219 $70 $-1 $220 forward single #
loop $-1 $221 $222 $88 #
cone-surface $-1 47.393797204403889 -30.243835453175421 9.0339570032310288 0 0.78801076186113728 -0.61566146476048833 2 0 0 1 I I 0 1 2 forward I I I I #
face $-1 $223 $224 $71 $-1 $225 forward single #
loop $-1 $226 $227 $89 #
cone-surface $-1 54.80187448343397 -30.243835453175421 9.0339570032310288 0 0.78801076186113728 -0.61566146476048833 2 0 0 1 I I 0 1 2 forward I I I I #
face $-1 $228 $229 $54 $-1 $230 reversed single #
loop $-1 $-1 $231 $90 #
plane-surface $-1 0 0 -13.870093878914702 0 0 1 1 0 0 forward_v I I I I #
coedge $-1 $232 $233 $234 $235 forward $91 $-1 #
face $-1 $236 $237 $55 $-1 $238 reversed single #
loop $-1 $-1 $239 $93 #
plane-surface $-1 -47.880030602331807 0 -10.440772746066791 -1 0 0 0 0 1 forward_v I I I I #
coedge $-1 $240 $241 $242 $243 forward $94 $-1 #
face $-1 $244 $245 $56 $-1 $246 reversed single #
loop $-1 $-1 $247 $96 #
plane-surface $-1 -6.4165144314890128 -8.0618960037098759 62.449185639875608 0 0.78801076186113728 0.61566146476048833 1 0 0 forward_v I I I I #
coedge $-1 $248 $249 $250 $251 reversed $97 $-1 #
face $-1 $-1 $252 $57 $-1 $253 forward single #
loop $-1 $254 $255 $99 #
cone-surface $-1 -13.824591710519094 27.327904642430987 6.7557822358672368 0 -0.78801076186113728 -0.61566146476048833 1 0 0 1 I I -0.70710678118654746 0.70710678118654746 1 forward I I I I #
loop $-1 $-1 $256 $75 #
coedge $-1 $160 $160 $257 $258 reversed $100 $-1 #
face $-1 $-1 $259 $58 $-1 $260 forward single #
loop $-1 $261 $262 $102 #
cone-surface $-1 -6.4165144314890199 27.327904642430987 6.7557822358672368 0 -0.78801076186113728 -0.61566146476048833 1 0 0 1 I I -0.70710678118654746 0.70710678118654746 1 forward I I I I #
loop $-1 $-1 $263 $76 #
coedge $-1 $165 $165 $264 $265 reversed $103 $-1 #
face $-1 $-1 $266 $59 $-1 $267 forward single #
loop $-1 $268 $269 $105 #
cone-surface $-1 0.99156284754105428 27.327904642430987 6.7557822358672368 0 -0.78801076186113728 -0.61566146476048833 1 0 0 1 I I -0.70710678118654746 0.70710678118654746 1 forward I I I I #
loop $-1 $-1 $270 $77 #
coedge $-1 $170 $170 $271 $272 reversed $106 $-1 #
face $-1 $273 $274 $60 $-1 $275 forward single #
loop $-1 $-1 $276 $108 #
plane-surface $-1 47.393797204403903 -8.0618960037098759 62.449185639875608 0 0.78801076186113728 0.61566146476048833 1 0 0 forward_v I I I I #
coedge $-1 $277 $278 $279 $280 reversed $109 $-1 #
face $-1 $-1 $281 $61 $-1 $282 forward single #
loop $-1 $283 $284 $111 #
cone-surface $-1 39.985719925373822 27.327904642430987 6.7557822358672368 0 -0.78801076186113728 -0.61566146476048833 1 0 0 1 I I -0.70710678118654746 0.70710678118654746 1 forward I I I I #
loop $-1 $-1 $285 $79 #
coedge $-1 $179 $179 $286 $287 reversed $112 $-1 #
face $-1 $-1 $288 $62 $-1 $289 forward single #
loop $-1 $290 $291 $114 #
cone-surface $-1 47.393797204403889 27.327904642430987 6.7557822358672368 0 -0.78801076186113728 -0.61566146476048833 1 0 0 1 I I -0.70710678118654746 0.70710678118654746 1 forward I I I I #
loop $-1 $-1 $292 $80 #
coedge $-1 $184 $184 $293 $294 reversed $115 $-1 #
face $-1 $-1 $295 $63 $-1 $296 forward single #
loop $-1 $297 $298 $117 #
cone-surface $-1 54.80187448343397 27.327904642430987 6.7557822358672368 0 -0.78801076186113728 -0.61566146476048833 1 0 0 1 I I -0.70710678118654746 0.70710678118654746 1 forward I I I I #
loop $-1 $-1 $299 $81 #
coedge $-1 $189 $189 $300 $301 reversed $118 $-1 #
face $-1 $302 $303 $64 $-1 $304 reversed single #
loop $-1 $-1 $305 $120 #
plane-surface $-1 -6.4165144314890128 -34.851261915126457 7.5228467327539477 0 -0.78801076186113728 0.61566146476048833 1 0 0 forward_v I I I I #
coedge $-1 $306 $307 $308 $309 reversed $121 $-1 #
face $-1 $-1 $310 $65 $-1 $311 forward single #
loop $-1 $312 $313 $123 #
cone-surface $-1 -13.824591710519094 -27.327904642430987 6.7557822358672404 0 0.78801076186113728 -0.61566146476048833 1 0 0 1 I I -0.70710678118654746 0.70710678118654746 1 forward I I I I #
loop $-1 $-1 $314 $83 #
coedge $-1 $198 $198 $315 $316 reversed $124 $-1 #
face $-1 $-1 $317 $66 $-1 $318 forward single #
loop $-1 $319 $320 $126 #
cone-surface $-1 -6.4165144314890199 -27.327904642430987 6.7557822358672404 0 0.78801076186113728 -0.61566146476048833 1 0 0 1 I I -0.70710678118654746 0.70710678118654746 1 forward I I I I #
loop $-1 $-1 $321 $84 #
coedge $-1 $203 $203 $322 $323 reversed $127 $-1 #
face $-1 $-1 $324 $67 $-1 $325 forward single #
loop $-1 $326 $327 $129 #
cone-surface $-1 0.99156284754105428 -27.327904642430987 6.7557822358672404 0 0.78801076186113728 -0.61566146476048833 1 0 0 1 I I -0.70710678118654746 0.70710678118654746 1 forward I I I I #
loop $-1 $-1 $328 $85 #
coedge $-1 $208 $208 $329 $330 reversed $130 $-1 #
face $-1 $331 $332 $68 $-1 $333 reversed single #
loop $-1 $-1 $334 $132 #
plane-surface $-1 35.047001739353774 -129.00372180211113 81.082808309825467 1 0 0 0 0.78801076186113728 -0.61566146476048833 forward_v I I I I #
coedge $-1 $335 $336 $337 $338 reversed $133 $-1 #
face $-1 $-1 $339 $69 $-1 $340 forward single #
loop $-1 $341 $342 $135 #
cone-surface $-1 39.985719925373822 -27.327904642430987 6.7557822358672404 0 0.78801076186113728 -0.61566146476048833 1 0 0 1 I I -0.70710678118654746 0.70710678118654746 1 forward I I I I #
loop $-1 $-1 $343 $87 #
coedge $-1 $217 $217 $344 $345 reversed $136 $-1 #
face $-1 $-1 $346 $70 $-1 $347 forward single #
loop $-1 $348 $349 $138 #
cone-surface $-1 47.393797204403889 -27.327904642430987 6.7557822358672404 0 0.78801076186113728 -0.61566146476048833 1 0 0 1 I I -0.70710678118654746 0.70710678118654746 1 forward I I I I #
loop $-1 $-1 $350 $88 #
coedge $-1 $222 $222 $351 $352 reversed $139 $-1 #
face $-1 $-1 $353 $71 $-1 $354 forward single #
loop $-1 $355 $356 $141 #
cone-surface $-1 54.80187448343397 -27.327904642430987 6.7557822358672404 0 0.78801076186113728 -0.61566146476048833 1 0 0 1 I I -0.70710678118654746 0.70710678118654746 1 forward I I I I #
loop $-1 $-1 $357 $89 #
coedge $-1 $227 $227 $358 $359 reversed $142 $-1 #
face $-1 $360 $361 $54 $-1 $362 reversed single #
loop $-1 $-1 $363 $144 #
plane-surface $-1 0 -34.85126191512645 0 0 1 0 0 0 1 forward_v I I I I #
coedge $-1 $364 $365 $366 $367 forward $145 $-1 #
coedge $-1 $368 $147 $369 $370 forward $91 $-1 #
coedge $-1 $147 $368 $371 $372 forward $91 $-1 #
coedge $-1 $373 $374 $147 $235 reversed $375 $-1 #
edge $-1 $376 -34.85126191512645 $377 34.85126191512645 $234 $378 forward 7 unknown #
face $-1 $379 $380 $55 $-1 $381 reversed single #
loop $-1 $-1 $382 $148 #
plane-surface $-1 0 0 -13.870093878914702 0 0 1 1 0 0 forward_v I I I I #
coedge $-1 $383 $242 $384 $385 reversed $149 $-1 #
coedge $-1 $386 $151 $387 $388 reversed $94 $-1 #
coedge $-1 $151 $386 $389 $390 reversed $94 $-1 #
coedge $-1 $239 $391 $151 $243 reversed $149 $-1 #
edge $-1 $392 -34.85126191512645 $393 34.85126191512645 $242 $394 forward 7 unknown #
face $-1 $395 $396 $56 $-1 $397 reversed single #
loop $-1 $-1 $398 $152 #
plane-surface $-1 5.930281033561112 86.090563883274797 136.00914721694713 -1 0 0 0 0.78801076186113728 0.61566146476048833 forward_v I I I I #
coedge $-1 $399 $400 $401 $402 reversed $153 $-1 #
coedge $-1 $249 $155 $403 $404 reversed $97 $-1 #
coedge $-1 $155 $248 $399 $405 reversed $97 $-1 #
coedge $-1 $401 $406 $155 $251 forward $407 $-1 #
edge $-1 $408 8.1940200265109482 $409 13.153032852646398 $250 $410 forward 7 unknown #
loop $-1 $-1 $257 $156 #
plane-surface $-1 -6.4165144314890128 -8.0618960037098759 62.449185639875608 0 0.78801076186113728 0.61566146476048833 1 0 0 forward_v I I I I #
loop $-1 $-1 $411 $99 #
coedge $-1 $255 $255 $256 $412 reversed $157 $-1 #
coedge $-1 $256 $256 $255 $412 forward $159 $-1 #
coedge $-1 $257 $257 $160 $258 forward $252 $-1 #
edge $-1 $413 -8.7586447835389719e-017 $413 6.2831853071796004 $257 $414 forward 7 unknown #
loop $-1 $-1 $264 $161 #
plane-surface $-1 -6.4165144314890128 -8.0618960037098759 62.449185639875608 0 0.78801076186113728 0.61566146476048833 1 0 0 forward_v I I I I #
loop $-1 $-1 $415 $102 #
coedge $-1 $262 $262 $263 $416 reversed $162 $-1 #
coedge $-1 $263 $263 $262 $416 forward $164 $-1 #
coedge $-1 $264 $264 $165 $265 forward $259 $-1 #
edge $-1 $417 -8.7586447835389719e-017 $417 6.2831853071796004 $264 $418 forward 7 unknown #
loop $-1 $-1 $271 $166 #
plane-surface $-1 -6.4165144314890128 -8.0618960037098759 62.449185639875608 0 0.78801076186113728 0.61566146476048833 1 0 0 forward_v I I I I #
loop $-1 $-1 $419 $105 #
coedge $-1 $269 $269 $270 $420 reversed $167 $-1 #
coedge $-1 $270 $270 $269 $420 forward $169 $-1 #
coedge $-1 $271 $271 $170 $272 forward $266 $-1 #
edge $-1 $421 -8.7586447835389719e-017 $421 6.2831853071796004 $271 $422 forward 7 unknown #
face $-1 $423 $424 $60 $-1 $425 reversed single #
loop $-1 $-1 $279 $171 #
plane-surface $-1 0 0 13.870093878914702 0 0 1 1 0 0 forward_v I I I I #
coedge $-1 $426 $427 $428 $429 reversed $172 $-1 #
coedge $-1 $278 $174 $430 $431 reversed $109 $-1 #
coedge $-1 $174 $277 $426 $432 reversed $109 $-1 #
coedge $-1 $428 $433 $174 $280 forward $274 $-1 #
edge $-1 $434 8.1940200265109482 $435 13.153032852646398 $279 $436 forward 7 unknown #
loop $-1 $-1 $286 $175 #
plane-surface $-1 47.393797204403903 -8.0618960037098759 62.449185639875608 0 0.78801076186113728 0.61566146476048833 1 0 0 forward_v I I I I #
loop $-1 $-1 $437 $111 #
coedge $-1 $284 $284 $285 $438 reversed $176 $-1 #
coedge $-1 $285 $285 $284 $438 forward $178 $-1 #
coedge $-1 $286 $286 $179 $287 forward $281 $-1 #
edge $-1 $439 -8.7586447835389719e-017 $439 6.2831853071796004 $286 $440 forward 7 unknown #
loop $-1 $-1 $293 $180 #
plane-surface $-1 47.393797204403903 -8.0618960037098759 62.449185639875608 0 0.78801076186113728 0.61566146476048833 1 0 0 forward_v I I I I #
loop $-1 $-1 $441 $114 #
coedge $-1 $291 $291 $292 $442 reversed $181 $-1 #
coedge $-1 $292 $292 $291 $442 forward $183 $-1 #
coedge $-1 $293 $293 $184 $294 forward $288 $-1 #
edge $-1 $443 -8.7586447835389719e-017 $443 6.2831853071796004 $293 $444 forward 7 unknown #
loop $-1 $-1 $300 $185 #
plane-surface $-1 47.393797204403903 -8.0618960037098759 62.449185639875608 0 0.78801076186113728 0.61566146476048833 1 0 0 forward_v I I I I #
loop $-1 $-1 $445 $117 #
coedge $-1 $298 $298 $299 $446 reversed $186 $-1 #
coedge $-1 $299 $299 $298 $446 forward $188 $-1 #
coedge $-1 $300 $300 $189 $301 forward $295 $-1 #
edge $-1 $447 -8.7586447835389719e-017 $447 6.2831853071796004 $300 $448 forward 7 unknown #
face $-1 $449 $450 $64 $-1 $451 forward single #
loop $-1 $-1 $452 $190 #
plane-surface $-1 -18.763309896539138 -129.00372180211113 81.082808309825467 1 0 0 0 0.78801076186113728 -0.61566146476048833 forward_v I I I I #
coedge $-1 $453 $454 $455 $456 reversed $191 $-1 #
coedge $-1 $307 $193 $457 $458 reversed $121 $-1 #
coedge $-1 $193 $306 $453 $459 reversed $121 $-1 #
coedge $-1 $455 $460 $193 $309 forward $450 $-1 #
edge $-1 $461 29.650598985929115 $462 34.609611812064571 $308 $463 forward 7 unknown #
loop $-1 $-1 $315 $194 #
plane-surface $-1 -6.4165144314890128 -34.851261915126457 7.5228467327539477 0 -0.78801076186113728 0.61566146476048833 1 0 0 forward_v I I I I #
loop $-1 $-1 $464 $123 #
coedge $-1 $313 $313 $314 $465 reversed $195 $-1 #
coedge $-1 $314 $314 $313 $465 forward $197 $-1 #
coedge $-1 $315 $315 $198 $316 forward $310 $-1 #
edge $-1 $466 -6.9989415317651662e-016 $466 6.2831853071795996 $315 $467 forward 7 unknown #
loop $-1 $-1 $322 $199 #
plane-surface $-1 -6.4165144314890128 -34.851261915126457 7.5228467327539477 0 -0.78801076186113728 0.61566146476048833 1 0 0 forward_v I I I I #
loop $-1 $-1 $468 $126 #
coedge $-1 $320 $320 $321 $469 reversed $200 $-1 #
coedge $-1 $321 $321 $320 $469 forward $202 $-1 #
coedge $-1 $322 $322 $203 $323 forward $317 $-1 #
edge $-1 $470 -6.9989415317651662e-016 $470 6.2831853071795996 $322 $471 forward 7 unknown #
loop $-1 $-1 $329 $204 #
plane-surface $-1 -6.4165144314890128 -34.851261915126457 7.5228467327539477 0 -0.78801076186113728 0.61566146476048833 1 0 0 forward_v I I I I #
loop $-1 $-1 $472 $129 #
coedge $-1 $327 $327 $328 $473 reversed $205 $-1 #
coedge $-1 $328 $328 $327 $473 forward $207 $-1 #
coedge $-1 $329 $329 $208 $330 forward $324 $-1 #
edge $-1 $474 -6.9989415317651662e-016 $474 6.2831853071795996 $329 $475 forward 7 unknown #
face $-1 $476 $477 $68 $-1 $478 forward single #
loop $-1 $-1 $479 $209 #
plane-surface $-1 0 -34.85126191512645 0 0 1 0 0 0 1 forward_v I I I I #
coedge $-1 $480 $481 $482 $483 reversed $210 $-1 #
coedge $-1 $484 $212 $485 $486 reversed $133 $-1 #
coedge $-1 $212 $484 $480 $487 forward $133 $-1 #
coedge $-1 $482 $488 $212 $338 forward $477 $-1 #
edge $-1 $489 -36.043694067252076 $490 -11.350103137151823 $337 $491 forward 7 unknown #
loop $-1 $-1 $344 $213 #
plane-surface $-1 47.393797204403903 -34.851261915126457 7.5228467327539477 0 -0.78801076186113728 0.61566146476048833 1 0 0 forward_v I I I I #
loop $-1 $-1 $492 $135 #
coedge $-1 $342 $342 $343 $493 reversed $214 $-1 #
coedge $-1 $343 $343 $342 $493 forward $216 $-1 #
coedge $-1 $344 $344 $217 $345 forward $339 $-1 #
edge $-1 $494 -6.9989415317651662e-016 $494 6.2831853071795996 $344 $495 forward 7 unknown #
loop $-1 $-1 $351 $218 #
plane-surface $-1 47.393797204403903 -34.851261915126457 7.5228467327539477 0 -0.78801076186113728 0.61566146476048833 1 0 0 forward_v I I I I #
loop $-1 $-1 $496 $138 #
coedge $-1 $349 $349 $350 $497 reversed $219 $-1 #
coedge $-1 $350 $350 $349 $497 forward $221 $-1 #
coedge $-1 $351 $351 $222 $352 forward $346 $-1 #
edge $-1 $498 -6.9989415317651662e-016 $498 6.2831853071795996 $351 $499 forward 7 unknown #
loop $-1 $-1 $358 $223 #
plane-surface $-1 47.393797204403903 -34.851261915126457 7.5228467327539477 0 -0.78801076186113728 0.61566146476048833 1 0 0 forward_v I I I I #
loop $-1 $-1 $500 $141 #
coedge $-1 $356 $356 $357 $501 reversed $224 $-1 #
coedge $-1 $357 $357 $356 $501 forward $226 $-1 #
coedge $-1 $358 $358 $227 $359 forward $353 $-1 #
edge $-1 $502 -6.9989415317651662e-016 $502 6.2831853071795996 $358 $503 forward 7 unknown #
face $-1 $504 $505 $54 $-1 $506 reversed single #
loop $-1 $-1 $507 $228 #
plane-surface $-1 -59.740592669454024 0 0 1 0 0 0 0 -1 forward_v I I I I #
coedge $-1 $508 $371 $509 $510 forward $229 $-1 #
coedge $-1 $511 $231 $508 $512 forward $145 $-1 #
coedge $-1 $231 $511 $513 $514 forward $145 $-1 #
coedge $-1 $374 $373 $231 $367 reversed $375 $-1 #
edge $-1 $515 -34.85126191512645 $516 34.85126191512645 $366 $517 forward 7 unknown #
coedge $-1 $233 $232 $518 $519 forward $91 $-1 #
coedge $-1 $520 $521 $232 $370 reversed $505 $-1 #
edge $-1 $377 -59.740592669454024 $522 59.740592669454024 $369 $523 forward 7 unknown #
coedge $-1 $363 $524 $233 $372 reversed $229 $-1 #
edge $-1 $525 -59.740592669454024 $376 59.740592669454024 $371 $526 forward 7 unknown #
coedge $-1 $366 $234 $524 $527 forward $375 $-1 #
coedge $-1 $234 $366 $520 $528 reversed $375 $-1 #
loop $-1 $-1 $373 $504 #
vertex $-1 $235 $529 #
vertex $-1 $235 $530 #
straight-curve $-1 59.740592669454024 0 13.870093878914702 0 1 0 I I #
face $-1 $531 $532 $55 $-1 $533 reversed single #
loop $-1 $-1 $384 $236 #
plane-surface $-1 0 -34.85126191512645 0 0 1 0 0 0 1 forward_v I I I I #
coedge $-1 $534 $535 $383 $536 forward $237 $-1 #
coedge $-1 $391 $239 $382 $536 reversed $149 $-1 #
coedge $-1 $389 $537 $239 $385 forward $380 $-1 #
edge $-1 $538 -8.649707505881306 $392 -1.7910652401854863 $384 $539 forward 7 unknown #
coedge $-1 $241 $240 $540 $541 reversed $94 $-1 #
coedge $-1 $542 $543 $240 $388 forward $544 $-1 #
edge $-1 $545 -32.835436851507566 $393 -20.974874784385349 $387 $546 forward 7 unknown #
coedge $-1 $547 $384 $241 $390 forward $380 $-1 #
edge $-1 $392 20.974874784385349 $548 32.835436851507566 $389 $549 forward 7 unknown #
coedge $-1 $242 $383 $542 $550 reversed $149 $-1 #
vertex $-1 $390 $551 #
vertex $-1 $388 $552 #
straight-curve $-1 -47.880030602331807 0 -7.011451613218882 0 1 0 I I #
face $-1 $-1 $407 $56 $-1 $553 forward single #
loop $-1 $-1 $554 $244 #
plane-surface $-1 0 34.85126191512645 0 0 -1 0 0 0 -1 forward_v I I I I #
coedge $-1 $555 $556 $557 $558 reversed $245 $-1 #
coedge $-1 $559 $247 $249 $405 forward $153 $-1 #
coedge $-1 $247 $559 $555 $560 forward $153 $-1 #
coedge $-1 $557 $250 $247 $402 forward $407 $-1 #
edge $-1 $409 -15.555052680794631 $561 9.1385382493056184 $401 $562 forward 7 unknown #
coedge $-1 $563 $564 $248 $404 forward $396 $-1 #
edge $-1 $565 -60.481726875719595 $408 -54.134479729558862 $403 $566 forward 7 unknown #
edge $-1 $409 61.647751670581222 $565 69.702523830252872 $249 $567 forward 7 unknown #
coedge $-1 $250 $557 $563 $568 forward $407 $-1 #
loop $-1 $-1 $557 $395 #
vertex $-1 $404 $569 #
vertex $-1 $251 $570 #
straight-curve $-1 -18.763309896539138 43.045281941637398 13.870093878914702 0 -1 0 I I #
coedge $-1 $411 $411 $-1 $571 reversed $254 $-1 #
edge $-1 $572 0 $572 6.2831853071796004 $255 $573 forward 7 unknown #
vertex $-1 $258 $574 #
ellipse-curve $-1 -13.824591710519094 32.371755502058726 10.696470305834328 0 0.78801076186113728 0.61566146476048833 2 0 0 1 I I #
coedge $-1 $415 $415 $-1 $575 reversed $261 $-1 #
edge $-1 $576 0 $576 6.2831853071796004 $262 $577 forward 7 unknown #
vertex $-1 $265 $578 #
ellipse-curve $-1 -6.4165144314890199 32.371755502058726 10.696470305834328 0 0.78801076186113728 0.61566146476048833 2 0 0 1 I I #
coedge $-1 $419 $419 $-1 $579 reversed $268 $-1 #
edge $-1 $580 0 $580 6.2831853071796004 $269 $581 forward 7 unknown #
vertex $-1 $272 $582 #
ellipse-curve $-1 0.99156284754105428 32.371755502058726 10.696470305834328 0 0.78801076186113728 0.61566146476048833 2 0 0 1 I I #
face $-1 $-1 $583 $60 $-1 $584 reversed single #
loop $-1 $-1 $585 $273 #
plane-surface $-1 59.740592669454024 0 0 -1 0 0 0 0 1 forward_v I I I I #
coedge $-1 $586 $276 $278 $432 forward $172 $-1 #
coedge $-1 $276 $586 $585 $587 reversed $172 $-1 #
coedge $-1 $588 $279 $276 $429 forward $274 $-1 #
edge $-1 $435 11.350103137151823 $589 36.043694067252076 $428 $590 forward 7 unknown #
coedge $-1 $591 $592 $277 $431 forward $583 $-1 #
edge $-1 $593 -60.481726875719595 $434 -54.134479729558862 $430 $594 forward 7 unknown #
edge $-1 $435 61.647751670581222 $593 69.702523830252872 $278 $595 forward 7 unknown #
coedge $-1 $279 $588 $591 $596 forward $274 $-1 #
vertex $-1 $431 $597 #
vertex $-1 $280 $598 #
straight-curve $-1 35.047001739353774 43.045281941637398 13.870093878914702 0 -1 0 I I #
coedge $-1 $437 $437 $-1 $599 reversed $283 $-1 #
edge $-1 $600 0 $600 6.2831853071796004 $284 $601 forward 7 unknown #
vertex $-1 $287 $602 #
ellipse-curve $-1 39.985719925373822 32.371755502058726 10.696470305834328 0 0.78801076186113728 0.61566146476048833 2 0 0 1 I I #
coedge $-1 $441 $441 $-1 $603 reversed $290 $-1 #
edge $-1 $604 0 $604 6.2831853071796004 $291 $605 forward 7 unknown #
vertex $-1 $294 $606 #
ellipse-curve $-1 47.393797204403889 32.371755502058726 10.696470305834328 0 0.78801076186113728 0.61566146476048833 2 0 0 1 I I #
coedge $-1 $445 $445 $-1 $607 reversed $297 $-1 #
edge $-1 $608 0 $608 6.2831853071796004 $298 $609 forward 7 unknown #
vertex $-1 $301 $610 #
ellipse-curve $-1 54.80187448343397 32.371755502058726 10.696470305834328 0 0.78801076186113728 0.61566146476048833 2 0 0 1 I I #
face $-1 $-1 $611 $64 $-1 $612 reversed single #
loop $-1 $-1 $308 $302 #
plane-surface $-1 0 0 13.870093878914702 0 0 1 1 0 0 forward_v I I I I #
coedge $-1 $613 $614 $615 $616 reversed $303 $-1 #
coedge $-1 $617 $305 $307 $459 forward $191 $-1 #
coedge $-1 $305 $617 $613 $618 forward $191 $-1 #
coedge $-1 $615 $308 $305 $456 forward $450 $-1 #
edge $-1 $462 -9.1385382493056184 $619 15.555052680794631 $455 $620 forward 7 unknown #
coedge $-1 $621 $622 $306 $458 forward $611 $-1 #
edge $-1 $623 -33.018557422158779 $461 -26.671310275998032 $457 $624 forward 7 unknown #
edge $-1 $462 -8.0547721596716748 $623 -1.1373479346495045e-014 $307 $625 forward 7 unknown #
coedge $-1 $308 $615 $621 $626 forward $450 $-1 #
vertex $-1 $458 $627 #
vertex $-1 $309 $628 #
straight-curve $-1 5.930281033561112 -64.501860901055565 13.870093878914702 0 1 0 I I #
coedge $-1 $464 $464 $-1 $629 reversed $312 $-1 #
edge $-1 $630 0 $630 6.2831853071796004 $313 $631 forward 7 unknown #
vertex $-1 $316 $632 #
ellipse-curve $-1 -13.824591710519094 -32.371755502058718 10.696470305834328 0 -0.78801076186113728 0.61566146476048833 2 0 0 1 I I #
coedge $-1 $468 $468 $-1 $633 reversed $319 $-1 #
edge $-1 $634 0 $634 6.2831853071796004 $320 $635 forward 7 unknown #
vertex $-1 $323 $636 #
ellipse-curve $-1 -6.4165144314890199 -32.371755502058718 10.696470305834328 0 -0.78801076186113728 0.61566146476048833 2 0 0 1 I I #
coedge $-1 $472 $472 $-1 $637 reversed $326 $-1 #
edge $-1 $638 0 $638 6.2831853071796004 $327 $639 forward 7 unknown #
vertex $-1 $330 $640 #
ellipse-curve $-1 0.99156284754105428 -32.371755502058718 10.696470305834328 0 -0.78801076186113728 0.61566146476048833 2 0 0 1 I I #
face $-1 $-1 $641 $68 $-1 $642 reversed single #
loop $-1 $-1 $482 $331 #
plane-surface $-1 0 0 13.870093878914702 0 0 1 1 0 0 forward_v I I I I #
coedge $-1 $643 $644 $481 $645 forward $332 $-1 #
coedge $-1 $481 $334 $336 $487 reversed $210 $-1 #
coedge $-1 $334 $480 $479 $645 reversed $210 $-1 #
coedge $-1 $646 $337 $334 $483 forward $477 $-1 #
edge $-1 $490 -34.609611812064571 $647 -29.650598985929115 $482 $648 forward 7 unknown #
coedge $-1 $336 $335 $643 $649 reversed $133 $-1 #
coedge $-1 $650 $651 $335 $486 forward $641 $-1 #
edge $-1 $652 -7.7642473870880737 $489 0.29052477258358816 $485 $653 forward 7 unknown #
edge $-1 $654 1.1373479346495045e-014 $490 8.0547721596716748 $480 $655 forward 7 unknown #
coedge $-1 $337 $646 $650 $656 forward $477 $-1 #
vertex $-1 $486 $657 #
vertex $-1 $338 $658 #
straight-curve $-1 23.696898602201951 -29.89224908899099 13.870093878914702 -1 0 0 I I #
coedge $-1 $492 $492 $-1 $659 reversed $341 $-1 #
edge $-1 $660 0 $660 6.2831853071796004 $342 $661 forward 7 unknown #
vertex $-1 $345 $662 #
ellipse-curve $-1 39.985719925373822 -32.371755502058718 10.696470305834328 0 -0.78801076186113728 0.61566146476048833 2 0 0 1 I I #
coedge $-1 $496 $496 $-1 $663 reversed $348 $-1 #
edge $-1 $664 0 $664 6.2831853071796004 $349 $665 forward 7 unknown #
vertex $-1 $352 $666 #
ellipse-curve $-1 47.393797204403889 -32.371755502058718 10.696470305834328 0 -0.78801076186113728 0.61566146476048833 2 0 0 1 I I #
coedge $-1 $500 $500 $-1 $667 reversed $355 $-1 #
edge $-1 $668 0 $668 6.2831853071796004 $356 $669 forward 7 unknown #
vertex $-1 $359 $670 #
ellipse-curve $-1 54.80187448343397 -32.371755502058718 10.696470305834328 0 -0.78801076186113728 0.61566146476048833 2 0 0 1 I I #
face $-1 $-1 $375 $54 $-1 $671 reversed single #
loop $-1 $-1 $520 $360 #
plane-surface $-1 0 34.85126191512645 0 0 -1 0 0 0 -1 forward_v I I I I #
coedge $-1 $672 $518 $521 $673 forward $361 $-1 #
coedge $-1 $524 $363 $364 $512 reversed $229 $-1 #
coedge $-1 $518 $672 $363 $510 reversed $361 $-1 #
edge $-1 $525 -13.870093878914702 $674 13.870093878914702 $509 $675 forward 7 unknown #
coedge $-1 $365 $364 $672 $676 forward $145 $-1 #
edge $-1 $516 -59.740592669454024 $674 59.740592669454024 $508 $677 forward 7 unknown #
coedge $-1 $521 $520 $365 $514 reversed $505 $-1 #
edge $-1 $678 -59.740592669454024 $515 59.740592669454024 $513 $679 forward 7 unknown #
vertex $-1 $367 $680 #
vertex $-1 $527 $681 #
straight-curve $-1 59.740592669454024 0 -13.870093878914702 0 -1 0 I I #
coedge $-1 $507 $509 $368 $519 reversed $361 $-1 #
edge $-1 $522 -34.85126191512645 $525 34.85126191512645 $518 $682 forward 7 unknown #
coedge $-1 $513 $369 $374 $528 forward $505 $-1 #
coedge $-1 $369 $513 $507 $673 reversed $505 $-1 #
vertex $-1 $370 $683 #
straight-curve $-1 0 34.85126191512645 13.870093878914702 -1 0 0 I I #
coedge $-1 $371 $508 $373 $527 reversed $229 $-1 #
vertex $-1 $519 $684 #
straight-curve $-1 0 -34.85126191512645 13.870093878914702 1 0 0 I I #
edge $-1 $376 -13.870093878914702 $516 13.870093878914702 $373 $685 forward 7 unknown #
edge $-1 $377 -13.870093878914702 $515 13.870093878914702 $374 $686 forward 7 unknown #
point $-1 59.740592669454024 -34.85126191512645 13.870093878914702 #
point $-1 59.740592669454024 34.85126191512645 13.870093878914702 #
face $-1 $-1 $544 $55 $-1 $687 reversed single #
loop $-1 $-1 $540 $379 #
plane-surface $-1 -59.740592669454024 0 0 1 0 0 0 0 -1 forward_v I I I I #
coedge $-1 $688 $382 $537 $689 forward $237 $-1 #
coedge $-1 $382 $688 $690 $691 forward $237 $-1 #
edge $-1 $692 -34.85126191512645 $538 34.85126191512645 $382 $693 forward 7 unknown #
coedge $-1 $384 $547 $534 $689 reversed $380 $-1 #
vertex $-1 $689 $694 #
straight-curve $-1 -47.880030602331807 -34.85126191512645 -5.2203863730333957 0 0 1 I I #
coedge $-1 $695 $696 $386 $541 forward $532 $-1 #
edge $-1 $548 -34.85126191512645 $545 34.85126191512645 $540 $697 forward 7 unknown #
coedge $-1 $690 $387 $391 $550 forward $544 $-1 #
coedge $-1 $387 $690 $695 $698 reversed $544 $-1 #
loop $-1 $-1 $542 $531 #
vertex $-1 $698 $699 #
straight-curve $-1 -26.905155817946458 34.85126191512645 -7.011451613218882 1 0 0 I I #
coedge $-1 $537 $389 $696 $700 forward $380 $-1 #
vertex $-1 $700 $701 #
straight-curve $-1 -26.905155817946458 -34.85126191512645 -7.011451613218882 -1 0 0 I I #
edge $-1 $393 1.7910652401854863 $692 8.649707505881306 $542 $702 forward 7 unknown #
point $-1 -47.880030602331807 -34.85126191512645 -7.011451613218882 #
point $-1 -47.880030602331807 34.85126191512645 -7.011451613218882 #
plane-surface $-1 0 0 13.870093878914702 0 0 1 1 0 0 forward_v I I I I #
coedge $-1 $564 $563 $556 $703 forward $396 $-1 #
coedge $-1 $556 $398 $400 $560 reversed $245 $-1 #
coedge $-1 $398 $555 $554 $703 reversed $245 $-1 #
coedge $-1 $406 $401 $398 $558 forward $407 $-1 #
edge $-1 $561 -13.153032852646398 $704 -8.1940200265109482 $557 $705 forward 7 unknown #
coedge $-1 $400 $399 $564 $706 reversed $153 $-1 #
edge $-1 $707 -69.702523830252872 $561 -61.647751670581222 $555 $708 forward 7 unknown #
vertex $-1 $402 $709 #
straight-curve $-1 -3.2082572157445064 29.892249088991001 13.870093878914702 1 0 0 I I #
coedge $-1 $554 $403 $406 $568 reversed $396 $-1 #
coedge $-1 $403 $554 $559 $706 forward $396 $-1 #
vertex $-1 $404 $710 #
straight-curve $-1 -18.763309896539138 34.85126191512645 68.004573608473564 0 0 1 I I #
straight-curve $-1 -18.763309896539138 -8.0618960037098759 62.449185639875608 0 0.61566146476048833 -0.78801076186113728 I I #
edge $-1 $704 -5.930281033561112 $408 18.763309896539138 $563 $711 forward 7 unknown #
point $-1 -18.763309896539138 34.85126191512645 13.870093878914702 #
point $-1 -18.763309896539138 29.892249088991001 13.870093878914702 #
edge $-1 $712 1 $712 0 $411 $-1 forward 7 unknown #
vertex $-1 $412 $713 #
ellipse-curve $-1 -13.824591710519094 28.115915404292124 7.3714437006277249 0 0.78801076186113728 0.61566146476048833 2 0 0 1 I I #
point $-1 -11.824591710519094 32.371755502058718 10.696470305834323 #
edge $-1 $714 1 $714 0 $415 $-1 forward 7 unknown #
vertex $-1 $416 $715 #
ellipse-curve $-1 -6.4165144314890199 28.115915404292124 7.3714437006277249 0 0.78801076186113728 0.61566146476048833 2 0 0 1 I I #
point $-1 -4.4165144314890199 32.371755502058718 10.696470305834323 #
edge $-1 $716 1 $716 0 $419 $-1 forward 7 unknown #
vertex $-1 $420 $717 #
ellipse-curve $-1 0.99156284754105428 28.115915404292124 7.3714437006277249 0 0.78801076186113728 0.61566146476048833 2 0 0 1 I I #
point $-1 2.9915628475410543 32.371755502058718 10.696470305834323 #
loop $-1 $-1 $430 $423 #
plane-surface $-1 0 34.85126191512645 0 0 -1 0 0 0 -1 forward_v I I I I #
coedge $-1 $718 $719 $427 $587 forward $424 $-1 #
coedge $-1 $427 $426 $592 $720 reversed $172 $-1 #
edge $-1 $589 34.560737142542862 $721 42.615509302214512 $585 $722 forward 7 unknown #
coedge $-1 $433 $428 $719 $723 forward $274 $-1 #
vertex $-1 $723 $724 #
straight-curve $-1 23.696898602201951 29.892249088991001 13.870093878914702 1 0 0 I I #
coedge $-1 $725 $430 $433 $596 reversed $583 $-1 #
coedge $-1 $430 $725 $586 $720 forward $583 $-1 #
vertex $-1 $431 $726 #
straight-curve $-1 35.047001739353774 34.85126191512645 68.004573608473564 0 0 1 I I #
straight-curve $-1 35.047001739353774 -8.0618960037098759 62.449185639875608 0 0.61566146476048833 -0.78801076186113728 I I #
edge $-1 $727 -59.740592669454024 $434 -35.047001739353774 $591 $728 forward 7 unknown #
point $-1 35.047001739353774 34.85126191512645 13.870093878914702 #
point $-1 35.047001739353774 29.892249088991001 13.870093878914702 #
edge $-1 $729 1 $729 0 $437 $-1 forward 7 unknown #
vertex $-1 $438 $730 #
ellipse-curve $-1 39.985719925373822 28.115915404292124 7.3714437006277249 0 0.78801076186113728 0.61566146476048833 2 0 0 1 I I #
point $-1 41.985719925373822 32.371755502058718 10.696470305834323 #
edge $-1 $731 1 $731 0 $441 $-1 forward 7 unknown #
vertex $-1 $442 $732 #
ellipse-curve $-1 47.393797204403889 28.115915404292124 7.3714437006277249 0 0.78801076186113728 0.61566146476048833 2 0 0 1 I I #
point $-1 49.393797204403889 32.371755502058718 10.696470305834323 #
edge $-1 $733 1 $733 0 $445 $-1 forward 7 unknown #
vertex $-1 $446 $734 #
ellipse-curve $-1 54.80187448343397 28.115915404292124 7.3714437006277249 0 0.78801076186113728 0.61566146476048833 2 0 0 1 I I #
point $-1 56.80187448343397 32.371755502058718 10.696470305834323 #
loop $-1 $-1 $457 $449 #
plane-surface $-1 0 -34.85126191512645 0 0 1 0 0 0 1 forward_v I I I I #
coedge $-1 $614 $452 $454 $618 reversed $303 $-1 #
coedge $-1 $452 $613 $735 $736 reversed $303 $-1 #
coedge $-1 $460 $455 $452 $616 forward $450 $-1 #
edge $-1 $619 -34.609611812064571 $737 -29.650598985929115 $615 $738 forward 7 unknown #
coedge $-1 $454 $453 $622 $739 reversed $191 $-1 #
edge $-1 $740 1.1373479346495045e-014 $619 8.0547721596716748 $613 $741 forward 7 unknown #
vertex $-1 $456 $742 #
straight-curve $-1 -3.2082572157445064 -29.89224908899099 13.870093878914702 -1 0 0 I I #
coedge $-1 $735 $457 $460 $626 reversed $611 $-1 #
coedge $-1 $457 $735 $617 $739 forward $611 $-1 #
vertex $-1 $458 $743 #
straight-curve $-1 5.930281033561112 -34.85126191512645 40.541404154912733 0 0 1 I I #
straight-curve $-1 5.930281033561112 -34.851261915126457 7.5228467327539477 0 -0.61566146476048833 -0.78801076186113728 I I #
edge $-1 $737 -18.763309896539138 $461 5.930281033561112 $621 $744 forward 7 unknown #
point $-1 5.930281033561112 -34.85126191512645 13.870093878914702 #
point $-1 5.930281033561112 -29.892249088990994 13.870093878914702 #
edge $-1 $745 1 $745 0 $464 $-1 forward 7 unknown #
vertex $-1 $465 $746 #
ellipse-curve $-1 -13.824591710519094 -28.115915404292124 7.3714437006277285 0 -0.78801076186113728 0.61566146476048833 2 0 0 1 I I #
point $-1 -11.824591710519094 -32.371755502058718 10.696470305834326 #
edge $-1 $747 1 $747 0 $468 $-1 forward 7 unknown #
vertex $-1 $469 $748 #
ellipse-curve $-1 -6.4165144314890199 -28.115915404292124 7.3714437006277285 0 -0.78801076186113728 0.61566146476048833 2 0 0 1 I I #
point $-1 -4.4165144314890199 -32.371755502058718 10.696470305834326 #
edge $-1 $749 1 $749 0 $472 $-1 forward 7 unknown #
vertex $-1 $473 $750 #
ellipse-curve $-1 0.99156284754105428 -28.115915404292124 7.3714437006277285 0 -0.78801076186113728 0.61566146476048833 2 0 0 1 I I #
point $-1 2.9915628475410543 -32.371755502058718 10.696470305834326 #
loop $-1 $-1 $485 $476 #
plane-surface $-1 59.740592669454024 0 0 -1 0 0 0 0 1 forward_v I I I I #
coedge $-1 $751 $479 $484 $649 forward $332 $-1 #
coedge $-1 $479 $751 $646 $752 reversed $332 $-1 #
edge $-1 $647 26.671310275998032 $654 33.018557422158779 $479 $753 forward 7 unknown #
coedge $-1 $488 $482 $644 $752 forward $477 $-1 #
vertex $-1 $752 $754 #
straight-curve $-1 35.047001739353774 -64.501860901055565 13.870093878914702 0 -1 0 I I #
edge $-1 $654 11.350103137151823 $652 36.043694067252076 $643 $755 forward 7 unknown #
coedge $-1 $651 $485 $488 $656 reversed $641 $-1 #
coedge $-1 $485 $650 $751 $756 forward $641 $-1 #
vertex $-1 $649 $757 #
straight-curve $-1 59.740592669454024 -30.071113996029013 13.641157231531574 0 0.61566146476048833 0.78801076186113728 I I #
vertex $-1 $649 $758 #
straight-curve $-1 35.047001739353774 -34.851261915126457 7.5228467327539477 0 0.61566146476048833 0.78801076186113728 I I #
edge $-1 $759 -34.85126191512645 $489 -29.892249088990994 $650 $760 forward 7 unknown #
point $-1 59.740592669454031 -29.892249088990994 13.870093878914702 #
point $-1 35.047001739353774 -29.892249088990994 13.870093878914702 #
edge $-1 $761 1 $761 0 $492 $-1 forward 7 unknown #
vertex $-1 $493 $762 #
ellipse-curve $-1 39.985719925373822 -28.115915404292124 7.3714437006277285 0 -0.78801076186113728 0.61566146476048833 2 0 0 1 I I #
point $-1 41.985719925373822 -32.371755502058718 10.696470305834326 #
edge $-1 $763 1 $763 0 $496 $-1 forward 7 unknown #
vertex $-1 $497 $764 #
ellipse-curve $-1 47.393797204403889 -28.115915404292124 7.3714437006277285 0 -0.78801076186113728 0.61566146476048833 2 0 0 1 I I #
point $-1 49.393797204403889 -32.371755502058718 10.696470305834326 #
edge $-1 $765 1 $765 0 $500 $-1 forward 7 unknown #
vertex $-1 $501 $766 #
ellipse-curve $-1 54.80187448343397 -28.115915404292124 7.3714437006277285 0 -0.78801076186113728 0.61566146476048833 2 0 0 1 I I #
point $-1 56.80187448343397 -32.371755502058718 10.696470305834326 #
plane-surface $-1 59.740592669454024 0 0 -1 0 0 0 0 1 forward_v I I I I #
coedge $-1 $509 $507 $511 $676 reversed $361 $-1 #
edge $-1 $522 -13.870093878914702 $678 13.870093878914702 $521 $767 forward 7 unknown #
vertex $-1 $676 $768 #
straight-curve $-1 -59.740592669454024 -34.85126191512645 0 0 0 -1 I I #
edge $-1 $674 -34.85126191512645 $678 34.85126191512645 $672 $769 forward 7 unknown #
straight-curve $-1 0 -34.85126191512645 -13.870093878914702 -1 0 0 I I #
vertex $-1 $514 $770 #
straight-curve $-1 0 34.85126191512645 -13.870093878914702 1 0 0 I I #
point $-1 59.740592669454024 34.85126191512645 -13.870093878914702 #
point $-1 59.740592669454024 -34.85126191512645 -13.870093878914702 #
straight-curve $-1 -59.740592669454024 0 13.870093878914702 0 -1 0 I I #
point $-1 -59.740592669454024 34.85126191512645 13.870093878914702 #
point $-1 -59.740592669454024 -34.85126191512645 13.870093878914702 #
straight-curve $-1 59.740592669454024 -34.85126191512645 0 0 0 -1 I I #
straight-curve $-1 59.740592669454024 34.85126191512645 0 0 0 -1 I I #
plane-surface $-1 0 34.85126191512645 0 0 -1 0 0 0 -1 forward_v I I I I #
coedge $-1 $535 $534 $771 $772 forward $237 $-1 #
edge $-1 $538 47.880030602331807 $773 59.740592669454024 $537 $774 forward 7 unknown #
coedge $-1 $543 $542 $535 $691 reversed $544 $-1 #
edge $-1 $775 -59.740592669454024 $692 -47.880030602331807 $690 $776 forward 7 unknown #
vertex $-1 $550 $777 #
straight-curve $-1 -47.880030602331807 0 -13.870093878914702 0 -1 0 I I #
point $-1 -47.880030602331807 -34.85126191512645 -13.870093878914702 #
coedge $-1 $771 $540 $543 $698 forward $532 $-1 #
coedge $-1 $540 $771 $547 $700 reversed $532 $-1 #
straight-curve $-1 -59.740592669454024 0 -7.011451613218882 0 1 0 I I #
edge $-1 $545 7.011451613218882 $775 13.870093878914702 $543 $778 forward 7 unknown #
point $-1 -59.740592669454024 34.85126191512645 -7.011451613218882 #
edge $-1 $548 7.011451613218882 $773 13.870093878914702 $696 $779 forward 7 unknown #
point $-1 -59.740592669454024 -34.85126191512645 -7.011451613218882 #
straight-curve $-1 -47.880030602331807 34.85126191512645 -5.2203863730333957 0 0 -1 I I #
edge $-1 $704 54.134479729558862 $707 60.481726875719595 $554 $780 forward 7 unknown #
vertex $-1 $568 $781 #
straight-curve $-1 5.930281033561112 43.045281941637398 13.870093878914702 0 1 0 I I #
edge $-1 $707 -9.1385382493056184 $565 15.555052680794631 $564 $782 forward 7 unknown #
vertex $-1 $706 $783 #
straight-curve $-1 5.930281033561112 -8.0618960037098759 62.449185639875608 0 -0.61566146476048833 0.78801076186113728 I I #
point $-1 5.930281033561112 29.892249088991001 13.870093878914702 #
point $-1 -18.763309896539138 34.85126191512645 7.522846732753969 #
straight-curve $-1 0 34.85126191512645 13.870093878914702 -1 0 0 I I #
vertex $-1 $571 $784 #
point $-1 -11.824591710519094 28.115915404292124 7.3714437006277249 #
vertex $-1 $575 $785 #
point $-1 -4.4165144314890199 28.115915404292124 7.3714437006277249 #
vertex $-1 $579 $786 #
point $-1 2.9915628475410543 28.115915404292124 7.3714437006277249 #
coedge $-1 $719 $585 $725 $787 reversed $424 $-1 #
coedge $-1 $585 $718 $588 $723 reversed $424 $-1 #
edge $-1 $721 -36.043694067252076 $593 -11.350103137151823 $592 $788 forward 7 unknown #
vertex $-1 $587 $789 #
straight-curve $-1 59.740592669454024 8.6145350366108495 41.10432668509241 0 0.61566146476048833 -0.78801076186113728 I I #
edge $-1 $589 29.892249088991001 $727 34.85126191512645 $719 $790 forward 7 unknown #
point $-1 59.740592669454031 29.892249088991001 13.870093878914702 #
coedge $-1 $592 $591 $718 $787 forward $583 $-1 #
point $-1 35.047001739353774 34.85126191512645 7.522846732753969 #
vertex $-1 $723 $791 #
straight-curve $-1 0 34.85126191512645 13.870093878914702 -1 0 0 I I #
vertex $-1 $599 $792 #
point $-1 41.985719925373822 28.115915404292124 7.3714437006277249 #
vertex $-1 $603 $793 #
point $-1 49.393797204403889 28.115915404292124 7.3714437006277249 #
vertex $-1 $607 $794 #
point $-1 56.80187448343397 28.115915404292124 7.3714437006277249 #
coedge $-1 $622 $621 $614 $736 forward $611 $-1 #
edge $-1 $737 26.671310275998032 $740 33.018557422158779 $735 $795 forward 7 unknown #
vertex $-1 $626 $796 #
straight-curve $-1 -18.763309896539138 -64.501860901055565 13.870093878914702 0 -1 0 I I #
edge $-1 $740 -15.555052680794631 $623 9.1385382493056184 $622 $797 forward 7 unknown #
vertex $-1 $739 $798 #
straight-curve $-1 -18.763309896539138 -34.851261915126457 7.5228467327539477 0 0.61566146476048833 0.78801076186113728 I I #
point $-1 -18.763309896539138 -29.892249088990994 13.870093878914702 #
point $-1 5.930281033561112 -34.85126191512645 7.5228467327539565 #
straight-curve $-1 0 -34.85126191512645 13.870093878914702 1 0 0 I I #
vertex $-1 $629 $799 #
point $-1 -11.824591710519094 -28.115915404292124 7.3714437006277285 #
vertex $-1 $633 $800 #
point $-1 -4.4165144314890199 -28.115915404292124 7.3714437006277285 #
vertex $-1 $637 $801 #
point $-1 2.9915628475410543 -28.115915404292124 7.3714437006277285 #
coedge $-1 $644 $643 $651 $756 reversed $332 $-1 #
edge $-1 $647 35.047001739353774 $759 59.740592669454024 $644 $802 forward 7 unknown #
straight-curve $-1 35.047001739353774 -34.85126191512645 40.541404154912733 0 0 -1 I I #
point $-1 35.047001739353774 -34.85126191512645 13.870093878914702 #
straight-curve $-1 23.696898602201951 -34.85126191512645 7.5228467327539654 1 0 0 I I #
edge $-1 $759 -13.870093878914702 $652 -7.5228467327539565 $651 $803 forward 7 unknown #
point $-1 59.740592669454031 -34.85126191512645 7.5228467327539565 #
point $-1 35.047001739353774 -34.85126191512645 7.5228467327539565 #
vertex $-1 $656 $804 #
straight-curve $-1 59.740592669454024 0 13.870093878914702 0 1 0 I I #
vertex $-1 $659 $805 #
point $-1 41.985719925373822 -28.115915404292124 7.3714437006277285 #
vertex $-1 $663 $806 #
point $-1 49.393797204403889 -28.115915404292124 7.3714437006277285 #
vertex $-1 $667 $807 #
point $-1 56.80187448343397 -28.115915404292124 7.3714437006277285 #
straight-curve $-1 -59.740592669454024 34.85126191512645 0 0 0 -1 I I #
point $-1 -59.740592669454024 -34.85126191512645 -13.870093878914702 #
straight-curve $-1 -59.740592669454024 0 -13.870093878914702 0 1 0 I I #
point $-1 -59.740592669454024 34.85126191512645 -13.870093878914702 #
coedge $-1 $696 $695 $688 $772 reversed $532 $-1 #
edge $-1 $773 -34.85126191512645 $775 34.85126191512645 $771 $808 forward 7 unknown #
vertex $-1 $772 $809 #
straight-curve $-1 0 -34.85126191512645 -13.870093878914702 -1 0 0 I I #
vertex $-1 $691 $810 #
straight-curve $-1 0 34.85126191512645 -13.870093878914702 1 0 0 I I #
point $-1 -47.880030602331807 34.85126191512645 -13.870093878914702 #
straight-curve $-1 -59.740592669454024 34.85126191512645 0 0 0 -1 I I #
straight-curve $-1 -59.740592669454024 -34.85126191512645 0 0 0 -1 I I #
straight-curve $-1 5.930281033561112 34.85126191512645 68.004573608473564 0 0 -1 I I #
point $-1 5.930281033561112 34.85126191512645 13.870093878914702 #
straight-curve $-1 -3.2082572157445064 34.85126191512645 7.5228467327539725 -1 0 0 I I #
point $-1 5.930281033561112 34.85126191512645 7.522846732753969 #
point $-1 -13.824591710519094 26.539893880569849 6.1401207711067487 #
point $-1 -6.4165144314890199 26.539893880569849 6.1401207711067487 #
point $-1 0.99156284754105428 26.539893880569849 6.1401207711067487 #
edge $-1 $727 -13.870093878914702 $721 -7.522846732753969 $718 $811 forward 7 unknown #
straight-curve $-1 23.696898602201951 34.85126191512645 7.5228467327539725 -1 0 0 I I #
point $-1 59.740592669454031 34.85126191512645 7.522846732753969 #
straight-curve $-1 59.740592669454024 0 13.870093878914702 0 1 0 I I #
point $-1 59.740592669454024 34.85126191512645 13.870093878914702 #
point $-1 39.985719925373822 26.539893880569849 6.1401207711067487 #
point $-1 47.393797204403889 26.539893880569849 6.1401207711067487 #
point $-1 54.80187448343397 26.539893880569849 6.1401207711067487 #
straight-curve $-1 -18.763309896539138 -34.85126191512645 40.541404154912733 0 0 -1 I I #
point $-1 -18.763309896539138 -34.85126191512645 13.870093878914702 #
straight-curve $-1 -3.2082572157445064 -34.85126191512645 7.5228467327539654 1 0 0 I I #
point $-1 -18.763309896539138 -34.85126191512645 7.5228467327539565 #
point $-1 -13.824591710519094 -26.539893880569849 6.1401207711067523 #
point $-1 -6.4165144314890199 -26.539893880569849 6.1401207711067523 #
point $-1 0.99156284754105428 -26.539893880569849 6.1401207711067523 #
straight-curve $-1 0 -34.85126191512645 13.870093878914702 1 0 0 I I #
straight-curve $-1 59.740592669454024 -34.85126191512645 0 0 0 -1 I I #
point $-1 59.740592669454024 -34.85126191512645 13.870093878914702 #
point $-1 39.985719925373822 -26.539893880569849 6.1401207711067523 #
point $-1 47.393797204403889 -26.539893880569849 6.1401207711067523 #
point $-1 54.80187448343397 -26.539893880569849 6.1401207711067523 #
straight-curve $-1 -59.740592669454024 0 -13.870093878914702 0 1 0 I I #
point $-1 -59.740592669454024 -34.85126191512645 -13.870093878914702 #
point $-1 -59.740592669454024 34.85126191512645 -13.870093878914702 #
straight-curve $-1 59.740592669454024 34.85126191512645 0 0 0 -1 I I #
End-of-ACIS-data 