500 0 6 0           
7 Unknown 11 ACIS 5.0 NT 24 Fri Mar 26 02:21:02 1999 
-1 9.9999999999999995e-007 1e-010 
body $-1 $6 $-1 $7 #
body $-1 $8 $-1 $9 #
body $-1 $10 $-1 $11 #
body $-1 $12 $-1 $13 #
body $-1 $14 $-1 $15 #
body $-1 $16 $-1 $17 #
lump $-1 $-1 $18 $0 #
transform $-1 1 0 0 0 1 0 0 0 1 56.703390606402785 38.062239632824742 7.7051438316737295 1 rotate no_reflect no_shear #
lump $-1 $-1 $19 $1 #
transform $-1 1 0 0 0 1 0 0 0 1 56.703390606402785 38.062239632824742 7.7051438316737295 1 rotate no_reflect no_shear #
lump $-1 $-1 $20 $2 #
transform $-1 1 0 0 0 1 0 0 0 1 56.703390606402785 38.062239632824742 7.7051438316737295 1 rotate no_reflect no_shear #
lump $-1 $-1 $21 $3 #
transform $-1 1 0 0 0 1 0 0 0 1 56.703390606402785 38.062239632824742 7.7051438316737295 1 rotate no_reflect no_shear #
lump $-1 $-1 $22 $4 #
transform $-1 1 0 0 0 1 0 0 0 1 56.703390606402785 38.062239632824742 7.7051438316737295 1 rotate no_reflect no_shear #
lump $-1 $-1 $23 $5 #
transform $-1 1 0 0 0 1 0 0 0 1 56.703390606402785 38.062239632824742 7.7051438316737295 1 rotate no_reflect no_shear #
shell $-1 $-1 $-1 $24 $-1 $6 #
shell $-1 $-1 $-1 $25 $-1 $8 #
shell $-1 $-1 $-1 $26 $-1 $10 #
shell $-1 $-1 $-1 $27 $-1 $12 #
shell $-1 $-1 $-1 $28 $-1 $14 #
shell $-1 $-1 $-1 $29 $-1 $16 #
face $-1 $30 $31 $18 $-1 $32 forward single #
face $-1 $33 $34 $19 $-1 $35 forward single #
face $-1 $36 $37 $20 $-1 $38 reversed single #
face $-1 $39 $40 $21 $-1 $41 forward single #
face $-1 $42 $43 $22 $-1 $44 reversed single #
face $-1 $45 $46 $23 $-1 $47 forward single #
face $-1 $48 $49 $18 $-1 $50 reversed single #
loop $-1 $-1 $51 $24 #
plane-surface $-1 0 0 7.7051438316737295 0 0 1 1 0 0 forward_v I I I I #
face $-1 $52 $53 $19 $-1 $54 reversed single #
loop $-1 $-1 $55 $25 #
plane-surface $-1 0 -33.22236900512334 -4.7051438316737295 0 0 1 1 0 0 forward_v I I I I #
face $-1 $56 $57 $20 $-1 $58 reversed single #
loop $-1 $-1 $59 $26 #
plane-surface $-1 -53.7307322978427 82.820068701278728 131.14768859860024 1 0 0 0 -0.79863551827123203 -0.60181501223851219 forward_v I I I I #
face $-1 $60 $61 $21 $-1 $62 forward single #
loop $-1 $63 $64 $27 #
cone-surface $-1 -48.020937769633647 35.259518093240857 4.3824403044185436 0 -0.79863551827123203 -0.60181501223851219 1 0 0 1 I I 0 1 1 forward I I I I #
face $-1 $65 $66 $22 $-1 $67 reversed single #
loop $-1 $-1 $68 $28 #
plane-surface $-1 42.311143241424602 82.820068701278728 131.14768859860024 1 0 0 0 -0.79863551827123203 -0.60181501223851219 forward_v I I I I #
face $-1 $69 $70 $23 $-1 $71 forward single #
loop $-1 $72 $73 $29 #
cone-surface $-1 48.020937769633655 35.259518093240857 4.3824403044185436 0 -0.79863551827123203 -0.60181501223851219 1 0 0 1 I I 0 1 1 forward I I I I #
face $-1 $74 $75 $18 $-1 $76 reversed single #
loop $-1 $-1 $77 $30 #
plane-surface $-1 0 0 -7.7051438316737295 0 0 1 1 0 0 forward_v I I I I #
coedge $-1 $78 $79 $80 $81 forward $31 $-1 #
face $-1 $82 $83 $19 $-1 $84 reversed single #
loop $-1 $-1 $85 $33 #
plane-surface $-1 0 -28.382498377421939 -6.2051438316737295 0 -1 0 0 0 -1 forward_v I I I I #
coedge $-1 $86 $87 $88 $89 reversed $34 $-1 #
face $-1 $90 $91 $20 $-1 $92 reversed single #
loop $-1 $-1 $93 $36 #
plane-surface $-1 -48.020937769633647 -7.7506147880824727 62.897785175085389 0 0.79863551827123203 0.60181501223851219 1 0 0 forward_v I I I I #
coedge $-1 $94 $95 $96 $97 reversed $37 $-1 #
face $-1 $-1 $98 $21 $-1 $99 forward single #
loop $-1 $100 $101 $39 #
cone-surface $-1 -48.020937769633647 34.168587386125125 3.5603650750631042 0 -0.79863551827123203 -0.60181501223851219 0.5 0 0 1 I I -0.70710678118654746 0.70710678118654746 0.5 forward I I I I #
loop $-1 $-1 $102 $27 #
coedge $-1 $64 $64 $103 $104 reversed $40 $-1 #
face $-1 $105 $106 $22 $-1 $107 reversed single #
loop $-1 $-1 $108 $42 #
plane-surface $-1 48.020937769633655 -7.7506147880824727 62.897785175085389 0 0.79863551827123203 0.60181501223851219 1 0 0 forward_v I I I I #
coedge $-1 $109 $110 $111 $112 reversed $43 $-1 #
face $-1 $-1 $113 $23 $-1 $114 forward single #
loop $-1 $115 $116 $45 #
cone-surface $-1 48.020937769633655 34.168587386125125 3.5603650750631042 0 -0.79863551827123203 -0.60181501223851219 0.5 0 0 1 I I -0.70710678118654746 0.70710678118654746 0.5 forward I I I I #
loop $-1 $-1 $117 $29 #
coedge $-1 $73 $73 $118 $119 reversed $46 $-1 #
face $-1 $120 $121 $18 $-1 $122 reversed single #
loop $-1 $-1 $123 $48 #
plane-surface $-1 0 -38.062239632824742 0 0 1 0 0 0 1 forward_v I I I I #
coedge $-1 $124 $125 $126 $127 forward $49 $-1 #
coedge $-1 $128 $51 $129 $130 forward $31 $-1 #
coedge $-1 $51 $128 $131 $132 forward $31 $-1 #
coedge $-1 $133 $134 $51 $81 reversed $135 $-1 #
edge $-1 $136 -38.062239632824742 $137 38.062239632824742 $80 $138 forward 7 unknown #
face $-1 $139 $140 $19 $-1 $141 reversed single #
loop $-1 $-1 $142 $52 #
plane-surface $-1 0 0 -7.7051438316737295 0 0 1 1 0 0 forward_v I I I I #
coedge $-1 $143 $144 $145 $146 reversed $53 $-1 #
coedge $-1 $147 $55 $144 $148 forward $34 $-1 #
coedge $-1 $55 $147 $149 $150 reversed $34 $-1 #
coedge $-1 $151 $145 $55 $89 forward $140 $-1 #
edge $-1 $152 11.771313874860269 $153 21.451055130263072 $88 $154 forward 7 unknown #
face $-1 $155 $156 $20 $-1 $157 reversed single #
loop $-1 $-1 $158 $56 #
plane-surface $-1 -42.311143241424595 82.820068701278728 131.14768859860024 -1 0 0 0 0.79863551827123203 0.60181501223851219 forward_v I I I I #
coedge $-1 $159 $160 $161 $162 reversed $57 $-1 #
coedge $-1 $95 $59 $163 $164 reversed $37 $-1 #
coedge $-1 $59 $94 $159 $165 reversed $37 $-1 #
coedge $-1 $161 $166 $59 $97 forward $167 $-1 #
edge $-1 $168 3.3477947178146223 $169 7.5700119010221343 $96 $170 forward 7 unknown #
loop $-1 $-1 $103 $60 #
plane-surface $-1 -48.020937769633647 -7.7506147880824727 62.897785175085389 0 0.79863551827123203 0.60181501223851219 1 0 0 forward_v I I I I #
loop $-1 $-1 $171 $39 #
coedge $-1 $101 $101 $102 $172 reversed $61 $-1 #
coedge $-1 $102 $102 $101 $172 forward $63 $-1 #
coedge $-1 $103 $103 $64 $104 forward $98 $-1 #
edge $-1 $173 -4.0335713934611979e-017 $173 6.2831853071796004 $103 $174 forward 7 unknown #
face $-1 $175 $176 $22 $-1 $177 forward single #
loop $-1 $-1 $178 $65 #
plane-surface $-1 53.730732297842707 82.820068701278728 131.14768859860024 -1 0 0 0 0.79863551827123203 0.60181501223851219 forward_v I I I I #
coedge $-1 $179 $180 $181 $182 reversed $66 $-1 #
coedge $-1 $110 $68 $183 $184 reversed $43 $-1 #
coedge $-1 $68 $109 $179 $185 reversed $43 $-1 #
coedge $-1 $181 $186 $68 $112 forward $176 $-1 #
edge $-1 $187 3.3477947178146223 $188 7.5700119010221343 $111 $189 forward 7 unknown #
loop $-1 $-1 $118 $69 #
plane-surface $-1 48.020937769633655 -7.7506147880824727 62.897785175085389 0 0.79863551827123203 0.60181501223851219 1 0 0 forward_v I I I I #
loop $-1 $-1 $190 $45 #
coedge $-1 $116 $116 $117 $191 reversed $70 $-1 #
coedge $-1 $117 $117 $116 $191 forward $72 $-1 #
coedge $-1 $118 $118 $73 $119 forward $113 $-1 #
edge $-1 $192 -4.0335713934611979e-017 $192 6.2831853071796004 $118 $193 forward 7 unknown #
face $-1 $194 $195 $18 $-1 $196 reversed single #
loop $-1 $-1 $197 $74 #
plane-surface $-1 -56.703390606402785 0 0 1 0 0 0 0 -1 forward_v I I I I #
coedge $-1 $198 $131 $199 $200 forward $75 $-1 #
coedge $-1 $201 $77 $198 $202 forward $49 $-1 #
coedge $-1 $77 $201 $203 $204 forward $49 $-1 #
coedge $-1 $134 $133 $77 $127 reversed $135 $-1 #
edge $-1 $205 -38.062239632824742 $206 38.062239632824742 $126 $207 forward 7 unknown #
coedge $-1 $79 $78 $208 $209 forward $31 $-1 #
coedge $-1 $210 $211 $78 $130 reversed $195 $-1 #
edge $-1 $137 -56.703390606402785 $212 56.703390606402785 $129 $213 forward 7 unknown #
coedge $-1 $123 $214 $79 $132 reversed $75 $-1 #
edge $-1 $215 -56.703390606402785 $136 56.703390606402785 $131 $216 forward 7 unknown #
coedge $-1 $126 $80 $214 $217 forward $135 $-1 #
coedge $-1 $80 $126 $210 $218 reversed $135 $-1 #
loop $-1 $-1 $133 $194 #
vertex $-1 $81 $219 #
vertex $-1 $81 $220 #
straight-curve $-1 56.703390606402785 0 7.7051438316737295 0 1 0 I I #
face $-1 $221 $222 $19 $-1 $223 reversed single #
loop $-1 $-1 $145 $82 #
plane-surface $-1 56.703390606402785 0 0 -1 0 0 0 0 1 forward_v I I I I #
coedge $-1 $224 $225 $143 $226 forward $83 $-1 #
coedge $-1 $227 $85 $142 $226 reversed $53 $-1 #
coedge $-1 $85 $227 $86 $148 reversed $53 $-1 #
coedge $-1 $88 $228 $85 $146 forward $140 $-1 #
edge $-1 $229 -4.6025719158368652 $152 -1.6025719158368648 $145 $230 forward 7 unknown #
coedge $-1 $87 $86 $231 $232 reversed $34 $-1 #
edge $-1 $152 -56.703390606402785 $233 56.703390606402785 $144 $234 forward 7 unknown #
coedge $-1 $235 $236 $87 $150 forward $222 $-1 #
edge $-1 $153 -56.703390606402785 $237 56.703390606402785 $149 $238 forward 7 unknown #
coedge $-1 $228 $88 $236 $239 forward $140 $-1 #
vertex $-1 $89 $240 #
vertex $-1 $239 $241 #
straight-curve $-1 56.703390606402785 -16.61118450256167 -4.7051438316737295 0 -1 0 I I #
face $-1 $-1 $167 $20 $-1 $242 forward single #
loop $-1 $-1 $243 $90 #
plane-surface $-1 0 38.062239632824742 0 0 -1 0 0 0 -1 forward_v I I I I #
coedge $-1 $244 $245 $246 $247 reversed $91 $-1 #
coedge $-1 $248 $93 $95 $165 forward $57 $-1 #
coedge $-1 $93 $248 $244 $249 forward $57 $-1 #
coedge $-1 $246 $96 $93 $162 forward $167 $-1 #
edge $-1 $169 -29.720263413025876 $250 -18.300674356607772 $161 $251 forward 7 unknown #
coedge $-1 $252 $253 $94 $164 forward $156 $-1 #
edge $-1 $254 -63.471772075664362 $168 -57.86870046762639 $163 $255 forward 7 unknown #
edge $-1 $169 69.108673582267571 $254 76.124479265649484 $95 $256 forward 7 unknown #
coedge $-1 $96 $246 $252 $257 forward $167 $-1 #
loop $-1 $-1 $246 $155 #
vertex $-1 $164 $258 #
vertex $-1 $97 $259 #
straight-curve $-1 -53.7307322978427 41.410034350639364 7.7051438316737304 0 -1 0 I I #
coedge $-1 $171 $171 $-1 $260 reversed $100 $-1 #
edge $-1 $261 0 $261 6.2831853071796004 $101 $262 forward 7 unknown #
vertex $-1 $104 $263 #
ellipse-curve $-1 -48.020937769633647 35.951131041220989 4.9036080276547382 0 0.79863551827123203 0.60181501223851219 1 0 0 1 I I #
face $-1 $-1 $264 $22 $-1 $265 reversed single #
loop $-1 $-1 $111 $105 #
plane-surface $-1 0 0 7.7051438316737295 0 0 1 1 0 0 forward_v I I I I #
coedge $-1 $266 $267 $268 $269 reversed $106 $-1 #
coedge $-1 $270 $108 $110 $185 forward $66 $-1 #
coedge $-1 $108 $270 $266 $271 forward $66 $-1 #
coedge $-1 $268 $111 $108 $182 forward $176 $-1 #
edge $-1 $188 18.300674356607775 $272 29.720263413025879 $181 $273 forward 7 unknown #
coedge $-1 $274 $275 $109 $184 forward $264 $-1 #
edge $-1 $276 -63.471772075664362 $187 -57.86870046762639 $183 $277 forward 7 unknown #
edge $-1 $188 69.108673582267571 $276 76.124479265649484 $110 $278 forward 7 unknown #
coedge $-1 $111 $268 $274 $279 forward $176 $-1 #
vertex $-1 $112 $280 #
vertex $-1 $112 $281 #
straight-curve $-1 42.311143241424602 41.410034350639364 7.7051438316737304 0 -1 0 I I #
coedge $-1 $190 $190 $-1 $282 reversed $115 $-1 #
edge $-1 $283 0 $283 6.2831853071796004 $116 $284 forward 7 unknown #
vertex $-1 $119 $285 #
ellipse-curve $-1 48.020937769633655 35.951131041220989 4.9036080276547382 0 0.79863551827123203 0.60181501223851219 1 0 0 1 I I #
face $-1 $-1 $135 $18 $-1 $286 reversed single #
loop $-1 $-1 $210 $120 #
plane-surface $-1 0 38.062239632824742 0 0 -1 0 0 0 -1 forward_v I I I I #
coedge $-1 $287 $208 $211 $288 forward $121 $-1 #
coedge $-1 $214 $123 $124 $202 reversed $75 $-1 #
coedge $-1 $208 $287 $123 $200 reversed $121 $-1 #
edge $-1 $215 -7.7051438316737295 $289 7.7051438316737295 $199 $290 forward 7 unknown #
coedge $-1 $125 $124 $287 $291 forward $49 $-1 #
edge $-1 $206 -56.703390606402785 $289 56.703390606402785 $198 $292 forward 7 unknown #
coedge $-1 $211 $210 $125 $204 reversed $195 $-1 #
edge $-1 $293 -56.703390606402785 $205 56.703390606402785 $203 $294 forward 7 unknown #
vertex $-1 $127 $295 #
vertex $-1 $217 $296 #
straight-curve $-1 56.703390606402785 0 -7.7051438316737295 0 -1 0 I I #
coedge $-1 $197 $199 $128 $209 reversed $121 $-1 #
edge $-1 $212 -38.062239632824742 $215 38.062239632824742 $208 $297 forward 7 unknown #
coedge $-1 $203 $129 $134 $218 forward $195 $-1 #
coedge $-1 $129 $203 $197 $288 reversed $195 $-1 #
vertex $-1 $130 $298 #
straight-curve $-1 0 38.062239632824742 7.7051438316737295 -1 0 0 I I #
coedge $-1 $131 $198 $133 $217 reversed $75 $-1 #
vertex $-1 $209 $299 #
straight-curve $-1 0 -38.062239632824742 7.7051438316737295 1 0 0 I I #
edge $-1 $136 -7.7051438316737295 $206 7.7051438316737295 $133 $300 forward 7 unknown #
edge $-1 $137 -7.7051438316737295 $205 7.7051438316737295 $134 $301 forward 7 unknown #
point $-1 56.703390606402785 -38.062239632824742 7.7051438316737295 #
point $-1 56.703390606402785 38.062239632824742 7.7051438316737295 #
face $-1 $-1 $302 $19 $-1 $303 reversed single #
loop $-1 $-1 $149 $139 #
plane-surface $-1 0 -38.062239632824742 0 0 1 0 0 0 1 forward_v I I I I #
coedge $-1 $304 $142 $228 $305 forward $83 $-1 #
coedge $-1 $142 $304 $306 $307 forward $83 $-1 #
edge $-1 $308 -56.703390606402785 $229 56.703390606402785 $142 $309 forward 7 unknown #
coedge $-1 $144 $143 $310 $311 reversed $53 $-1 #
coedge $-1 $145 $151 $224 $305 reversed $140 $-1 #
vertex $-1 $305 $312 #
straight-curve $-1 56.703390606402785 -28.382498377421939 -3.1025719158368648 0 0 1 I I #
coedge $-1 $310 $313 $147 $232 forward $302 $-1 #
edge $-1 $237 -21.451055130263072 $233 -11.771313874860269 $231 $314 forward 7 unknown #
vertex $-1 $232 $315 #
straight-curve $-1 0 -28.382498377421939 -4.7051438316737295 -1 0 0 I I #
coedge $-1 $316 $149 $313 $317 forward $222 $-1 #
coedge $-1 $149 $316 $151 $239 reversed $222 $-1 #
vertex $-1 $317 $318 #
straight-curve $-1 0 -38.062239632824742 -4.7051438316737295 -1 0 0 I I #
edge $-1 $153 4.7051438316737295 $319 7.7051438316737295 $151 $320 forward 7 unknown #
point $-1 56.703390606402785 -28.382498377421939 -4.7051438316737295 #
point $-1 56.703390606402785 -38.062239632824742 -4.7051438316737295 #
plane-surface $-1 0 0 7.7051438316737295 0 0 1 1 0 0 forward_v I I I I #
coedge $-1 $253 $252 $245 $321 forward $156 $-1 #
coedge $-1 $245 $158 $160 $249 reversed $91 $-1 #
coedge $-1 $158 $244 $243 $321 reversed $91 $-1 #
coedge $-1 $166 $161 $158 $247 forward $167 $-1 #
edge $-1 $250 -7.5700119010221343 $322 -3.3477947178146223 $246 $323 forward 7 unknown #
coedge $-1 $160 $159 $253 $324 reversed $57 $-1 #
edge $-1 $325 -76.124479265649484 $250 -69.108673582267571 $244 $326 forward 7 unknown #
vertex $-1 $162 $327 #
straight-curve $-1 -24.010468884816824 33.840022449617223 7.7051438316737375 1 0 0 I I #
coedge $-1 $243 $163 $166 $257 reversed $156 $-1 #
coedge $-1 $163 $243 $248 $324 forward $156 $-1 #
vertex $-1 $164 $328 #
straight-curve $-1 -53.7307322978427 38.062239632824742 65.57384429930012 0 0 1 I I #
straight-curve $-1 -53.7307322978427 -7.7506147880824727 62.897785175085389 0 0.60181501223851219 -0.79863551827123203 I I #
edge $-1 $322 42.311143241424595 $168 53.7307322978427 $252 $329 forward 7 unknown #
point $-1 -53.7307322978427 38.062239632824742 7.7051438316737295 #
point $-1 -53.7307322978427 33.84002244961723 7.7051438316737233 #
edge $-1 $330 1 $330 0 $171 $-1 forward 7 unknown #
vertex $-1 $172 $331 #
ellipse-curve $-1 -48.020937769633647 34.567905145260738 3.8612725811823605 0 0.79863551827123203 0.60181501223851219 1 0 0 1 I I #
point $-1 -47.020937769633647 35.951131041220975 4.9036080276547276 #
loop $-1 $-1 $183 $175 #
plane-surface $-1 0 38.062239632824742 0 0 -1 0 0 0 -1 forward_v I I I I #
coedge $-1 $267 $178 $180 $271 reversed $106 $-1 #
coedge $-1 $178 $266 $332 $333 reversed $106 $-1 #
coedge $-1 $186 $181 $178 $269 forward $176 $-1 #
edge $-1 $272 -7.5700119010221343 $334 -3.3477947178146223 $268 $335 forward 7 unknown #
coedge $-1 $180 $179 $275 $336 reversed $66 $-1 #
edge $-1 $337 -76.124479265649484 $272 -69.108673582267571 $266 $338 forward 7 unknown #
vertex $-1 $182 $339 #
straight-curve $-1 24.010468884816827 33.840022449617223 7.7051438316737375 1 0 0 I I #
coedge $-1 $332 $183 $186 $279 reversed $264 $-1 #
coedge $-1 $183 $332 $270 $336 forward $264 $-1 #
vertex $-1 $184 $340 #
straight-curve $-1 42.311143241424602 38.062239632824742 65.57384429930012 0 0 1 I I #
straight-curve $-1 42.311143241424602 -7.7506147880824727 62.897785175085389 0 0.60181501223851219 -0.79863551827123203 I I #
edge $-1 $334 -53.730732297842707 $187 -42.311143241424602 $274 $341 forward 7 unknown #
point $-1 42.311143241424602 38.062239632824742 7.7051438316737295 #
point $-1 42.311143241424602 33.84002244961723 7.7051438316737233 #
edge $-1 $342 1 $342 0 $190 $-1 forward 7 unknown #
vertex $-1 $191 $343 #
ellipse-curve $-1 48.020937769633655 34.567905145260738 3.8612725811823605 0 0.79863551827123203 0.60181501223851219 1 0 0 1 I I #
point $-1 49.020937769633655 35.951131041220975 4.9036080276547276 #
plane-surface $-1 56.703390606402785 0 0 -1 0 0 0 0 1 forward_v I I I I #
coedge $-1 $199 $197 $201 $291 reversed $121 $-1 #
edge $-1 $212 -7.7051438316737295 $293 7.7051438316737295 $211 $344 forward 7 unknown #
vertex $-1 $291 $345 #
straight-curve $-1 -56.703390606402785 -38.062239632824742 0 0 0 -1 I I #
edge $-1 $289 -38.062239632824742 $293 38.062239632824742 $287 $346 forward 7 unknown #
straight-curve $-1 0 -38.062239632824742 -7.7051438316737295 -1 0 0 I I #
vertex $-1 $204 $347 #
straight-curve $-1 0 38.062239632824742 -7.7051438316737295 1 0 0 I I #
point $-1 56.703390606402785 38.062239632824742 -7.7051438316737295 #
point $-1 56.703390606402785 -38.062239632824742 -7.7051438316737295 #
straight-curve $-1 -56.703390606402785 0 7.7051438316737295 0 -1 0 I I #
point $-1 -56.703390606402785 38.062239632824742 7.7051438316737295 #
point $-1 -56.703390606402785 -38.062239632824742 7.7051438316737295 #
straight-curve $-1 56.703390606402785 -38.062239632824742 0 0 0 -1 I I #
straight-curve $-1 56.703390606402785 38.062239632824742 0 0 0 -1 I I #
loop $-1 $-1 $310 $221 #
plane-surface $-1 -56.703390606402785 0 0 1 0 0 0 0 -1 forward_v I I I I #
coedge $-1 $225 $224 $316 $348 forward $83 $-1 #
edge $-1 $229 28.382498377421939 $319 38.062239632824742 $228 $349 forward 7 unknown #
coedge $-1 $313 $310 $225 $307 reversed $302 $-1 #
edge $-1 $350 -38.062239632824742 $308 -28.382498377421939 $306 $351 forward 7 unknown #
vertex $-1 $311 $352 #
straight-curve $-1 0 -28.382498377421939 -7.7051438316737295 1 0 0 I I #
coedge $-1 $306 $231 $227 $311 forward $302 $-1 #
edge $-1 $233 1.6025719158368648 $308 4.6025719158368652 $310 $353 forward 7 unknown #
point $-1 56.703390606402785 -28.382498377421939 -7.7051438316737295 #
coedge $-1 $231 $306 $235 $317 reversed $302 $-1 #
straight-curve $-1 -56.703390606402785 -16.61118450256167 -4.7051438316737295 0 1 0 I I #
point $-1 -56.703390606402785 -28.382498377421939 -4.7051438316737295 #
coedge $-1 $236 $235 $304 $348 reversed $222 $-1 #
edge $-1 $237 4.7051438316737295 $350 7.7051438316737295 $313 $354 forward 7 unknown #
point $-1 -56.703390606402785 -38.062239632824742 -4.7051438316737295 #
vertex $-1 $239 $355 #
straight-curve $-1 56.703390606402785 -38.062239632824742 0 0 0 -1 I I #
edge $-1 $322 57.86870046762639 $325 63.471772075664362 $243 $356 forward 7 unknown #
vertex $-1 $257 $357 #
straight-curve $-1 -42.311143241424595 41.410034350639364 7.7051438316737304 0 1 0 I I #
edge $-1 $325 18.300674356607772 $254 29.720263413025876 $253 $358 forward 7 unknown #
vertex $-1 $324 $359 #
straight-curve $-1 -42.311143241424595 -7.7506147880824727 62.897785175085389 0 -0.60181501223851219 0.79863551827123203 I I #
point $-1 -42.311143241424595 33.84002244961723 7.7051438316737233 #
point $-1 -53.7307322978427 38.062239632824742 2.1020722236357585 #
straight-curve $-1 0 38.062239632824742 7.7051438316737295 -1 0 0 I I #
vertex $-1 $260 $360 #
point $-1 -47.020937769633647 34.567905145260738 3.8612725811823605 #
coedge $-1 $275 $274 $267 $333 forward $264 $-1 #
edge $-1 $334 57.86870046762639 $337 63.471772075664362 $332 $361 forward 7 unknown #
vertex $-1 $279 $362 #
straight-curve $-1 53.730732297842707 41.410034350639364 7.7051438316737304 0 1 0 I I #
edge $-1 $337 -29.720263413025879 $276 -18.300674356607775 $275 $363 forward 7 unknown #
vertex $-1 $336 $364 #
straight-curve $-1 53.730732297842707 -7.7506147880824727 62.897785175085389 0 -0.60181501223851219 0.79863551827123203 I I #
point $-1 53.730732297842707 33.84002244961723 7.7051438316737233 #
point $-1 42.311143241424602 38.062239632824742 2.1020722236357585 #
straight-curve $-1 0 38.062239632824742 7.7051438316737295 -1 0 0 I I #
vertex $-1 $282 $365 #
point $-1 49.020937769633655 34.567905145260738 3.8612725811823605 #
straight-curve $-1 -56.703390606402785 38.062239632824742 0 0 0 -1 I I #
point $-1 -56.703390606402785 -38.062239632824742 -7.7051438316737295 #
straight-curve $-1 -56.703390606402785 0 -7.7051438316737295 0 1 0 I I #
point $-1 -56.703390606402785 38.062239632824742 -7.7051438316737295 #
edge $-1 $319 -56.703390606402785 $350 56.703390606402785 $316 $366 forward 7 unknown #
straight-curve $-1 56.703390606402785 0 -7.7051438316737295 0 -1 0 I I #
vertex $-1 $307 $367 #
straight-curve $-1 -56.703390606402785 0 -7.7051438316737295 0 1 0 I I #
point $-1 -56.703390606402785 -28.382498377421939 -7.7051438316737295 #
straight-curve $-1 -56.703390606402785 -28.382498377421939 -3.1025719158368648 0 0 -1 I I #
straight-curve $-1 -56.703390606402785 -38.062239632824742 0 0 0 -1 I I #
point $-1 56.703390606402785 -38.062239632824742 -7.7051438316737295 #
straight-curve $-1 -42.311143241424595 38.062239632824742 65.57384429930012 0 0 -1 I I #
point $-1 -42.311143241424595 38.062239632824742 7.7051438316737295 #
straight-curve $-1 -24.010468884816824 38.062239632824735 2.102072223635755 -1 0 0 I I #
point $-1 -42.311143241424595 38.062239632824742 2.1020722236357585 #
point $-1 -48.020937769633647 33.769269626989512 3.2594575689438479 #
straight-curve $-1 53.730732297842707 38.062239632824742 65.57384429930012 0 0 -1 I I #
point $-1 53.730732297842707 38.062239632824742 7.7051438316737295 #
straight-curve $-1 24.010468884816827 38.062239632824735 2.102072223635755 -1 0 0 I I #
point $-1 53.730732297842707 38.062239632824742 2.1020722236357585 #
point $-1 48.020937769633655 33.769269626989512 3.2594575689438479 #
straight-curve $-1 0 -38.062239632824742 -7.7051438316737295 -1 0 0 I I #
point $-1 -56.703390606402785 -38.062239632824742 -7.7051438316737295 #
End-of-ACIS-data 