500 0 4 0           
7 Unknown 11 ACIS 5.0 NT 24 Fri Mar 26 02:54:32 1999 
-1 9.9999999999999995e-007 1e-010 
body $-1 $4 $-1 $5 #
body $-1 $6 $-1 $7 #
body $-1 $8 $-1 $9 #
body $-1 $10 $-1 $11 #
lump $-1 $-1 $12 $0 #
transform $-1 1 0 0 0 1 0 0 0 1 67.183446760460214 45.400238805124616 10.090943303253963 1 rotate no_reflect no_shear #
lump $-1 $-1 $13 $1 #
transform $-1 1 0 0 0 1 0 0 0 1 67.183446760460214 45.400238805124616 10.090943303253963 1 rotate no_reflect no_shear #
lump $-1 $-1 $14 $2 #
transform $-1 1 0 0 0 1 0 0 0 1 67.183446760460214 45.400238805124616 10.090943303253963 1 rotate no_reflect no_shear #
lump $-1 $-1 $15 $3 #
transform $-1 1 0 0 0 1 0 0 0 1 67.183446760460214 45.400238805124616 10.090943303253963 1 rotate no_reflect no_shear #
shell $-1 $-1 $-1 $16 $-1 $4 #
shell $-1 $-1 $-1 $17 $-1 $6 #
shell $-1 $-1 $-1 $18 $-1 $8 #
shell $-1 $-1 $-1 $19 $-1 $10 #
face $-1 $20 $21 $12 $-1 $22 forward single #
face $-1 $23 $24 $13 $-1 $25 reversed single #
face $-1 $26 $27 $14 $-1 $28 forward single #
face $-1 $29 $30 $15 $-1 $31 forward single #
face $-1 $32 $33 $12 $-1 $34 reversed single #
loop $-1 $-1 $35 $16 #
plane-surface $-1 0 0 10.090943303253963 0 0 1 1 0 0 forward_v I I I I #
face $-1 $36 $37 $13 $-1 $38 reversed single #
loop $-1 $-1 $39 $17 #
plane-surface $-1 -138.387053052532 -34.7879683973526 118.48262361158544 0 1 0 -0.52991927123019833 0 0.84804809178421925 forward_v I I I I #
face $-1 $40 $41 $14 $-1 $42 forward single #
loop $-1 $43 $44 $18 #
cone-surface $-1 -61.086498799475869 -29.643628026399291 4.6719297646064284 0.52991927123019833 0 -0.84804809178421925 1.6960961835684385 0 1.0598385424603967 1 I I 0 1 2 forward I I I I #
face $-1 $45 $46 $15 $-1 $47 forward single #
loop $-1 $48 $49 $19 #
cone-surface $-1 -61.086498799475869 -21.927117469969332 4.6719297646064284 0.52991927123019833 0 -0.84804809178421925 1.6960961835684385 0 1.0598385424603967 1 I I 0 1 2 forward I I I I #
face $-1 $50 $51 $12 $-1 $52 reversed single #
loop $-1 $-1 $53 $20 #
plane-surface $-1 0 0 -10.090943303253963 0 0 1 1 0 0 forward_v I I I I #
coedge $-1 $54 $55 $56 $57 forward $21 $-1 #
face $-1 $58 $59 $13 $-1 $60 reversed single #
loop $-1 $-1 $61 $23 #
plane-surface $-1 -67.183446760460185 -25.785372748184315 4.5330359621954983 -0.52991927123019833 0 0.84804809178421925 0.84804809178421925 0 0.52991927123019833 forward_v I I I I #
coedge $-1 $62 $63 $64 $65 reversed $24 $-1 #
face $-1 $-1 $66 $14 $-1 $67 forward single #
loop $-1 $68 $69 $26 #
cone-surface $-1 -58.906886999165231 -29.643628026399291 1.1838218047038929 0.52991927123019833 0 -0.84804809178421925 0.84804809178421925 0 0.52991927123019833 1 I I -0.70710678118654746 0.70710678118654746 1 forward I I I I #
loop $-1 $-1 $70 $18 #
coedge $-1 $44 $44 $71 $72 reversed $27 $-1 #
face $-1 $-1 $73 $15 $-1 $74 forward single #
loop $-1 $75 $76 $29 #
cone-surface $-1 -58.906886999165231 -21.927117469969332 1.1838218047038929 0.52991927123019833 0 -0.84804809178421925 0.84804809178421925 0 0.52991927123019833 1 I I -0.70710678118654746 0.70710678118654746 1 forward I I I I #
loop $-1 $-1 $77 $19 #
coedge $-1 $49 $49 $78 $79 reversed $30 $-1 #
face $-1 $80 $81 $12 $-1 $82 reversed single #
loop $-1 $-1 $83 $32 #
plane-surface $-1 0 -45.400238805124616 0 0 1 0 0 0 1 forward_v I I I I #
coedge $-1 $84 $85 $86 $87 forward $33 $-1 #
coedge $-1 $88 $35 $89 $90 forward $21 $-1 #
coedge $-1 $35 $88 $91 $92 forward $21 $-1 #
coedge $-1 $93 $94 $35 $57 reversed $95 $-1 #
edge $-1 $96 -45.400238805124616 $97 45.400238805124616 $56 $98 forward 7 unknown #
face $-1 $99 $100 $13 $-1 $101 reversed single #
loop $-1 $-1 $102 $36 #
plane-surface $-1 -138.387053052532 -16.78277709901603 118.48262361158544 0 -1 0 0.52991927123019833 0 -0.84804809178421925 forward_v I I I I #
coedge $-1 $103 $104 $105 $106 reversed $37 $-1 #
coedge $-1 $63 $39 $107 $108 reversed $24 $-1 #
coedge $-1 $39 $62 $103 $109 reversed $24 $-1 #
coedge $-1 $105 $110 $39 $65 forward $111 $-1 #
edge $-1 $112 2.0100797658057843 $113 10.904590629613658 $64 $114 forward 7 unknown #
loop $-1 $-1 $71 $40 #
plane-surface $-1 -67.183446760460185 -25.785372748184315 4.5330359621954983 -0.52991927123019833 0 0.84804809178421925 0.84804809178421925 0 0.52991927123019833 forward_v I I I I #
loop $-1 $-1 $115 $26 #
coedge $-1 $69 $69 $70 $116 reversed $41 $-1 #
coedge $-1 $70 $70 $69 $116 forward $43 $-1 #
coedge $-1 $71 $71 $44 $72 forward $66 $-1 #
edge $-1 $117 0 $117 6.2831853071796004 $71 $118 forward 7 unknown #
loop $-1 $-1 $78 $45 #
plane-surface $-1 -67.183446760460185 -25.785372748184315 4.5330359621954983 -0.52991927123019833 0 0.84804809178421925 0.84804809178421925 0 0.52991927123019833 forward_v I I I I #
loop $-1 $-1 $119 $29 #
coedge $-1 $76 $76 $77 $120 reversed $46 $-1 #
coedge $-1 $77 $77 $76 $120 forward $48 $-1 #
coedge $-1 $78 $78 $49 $79 forward $73 $-1 #
edge $-1 $121 0 $121 6.2831853071796004 $78 $122 forward 7 unknown #
face $-1 $123 $124 $12 $-1 $125 reversed single #
loop $-1 $-1 $126 $50 #
plane-surface $-1 -67.183446760460214 0 0 1 0 0 0 0 -1 forward_v I I I I #
coedge $-1 $127 $91 $128 $129 forward $51 $-1 #
coedge $-1 $130 $53 $127 $131 forward $33 $-1 #
coedge $-1 $53 $130 $132 $133 forward $33 $-1 #
coedge $-1 $94 $93 $53 $87 reversed $95 $-1 #
edge $-1 $134 -45.400238805124616 $135 45.400238805124616 $86 $136 forward 7 unknown #
coedge $-1 $55 $54 $137 $138 forward $21 $-1 #
coedge $-1 $139 $140 $54 $90 reversed $124 $-1 #
edge $-1 $97 -67.183446760460214 $141 67.183446760460214 $89 $142 forward 7 unknown #
coedge $-1 $83 $143 $55 $92 reversed $51 $-1 #
edge $-1 $144 -67.183446760460214 $96 67.183446760460214 $91 $145 forward 7 unknown #
coedge $-1 $86 $56 $143 $146 forward $95 $-1 #
coedge $-1 $56 $86 $139 $147 reversed $95 $-1 #
loop $-1 $-1 $93 $123 #
vertex $-1 $57 $148 #
vertex $-1 $57 $149 #
straight-curve $-1 67.183446760460214 0 10.090943303253963 0 1 0 I I #
face $-1 $-1 $111 $13 $-1 $150 forward single #
loop $-1 $-1 $151 $58 #
plane-surface $-1 -67.183446760460214 0 0 1 0 0 0 0 -1 forward_v I I I I #
coedge $-1 $152 $153 $154 $155 reversed $59 $-1 #
coedge $-1 $156 $61 $63 $109 forward $37 $-1 #
coedge $-1 $61 $156 $152 $157 forward $37 $-1 #
coedge $-1 $154 $64 $61 $106 forward $111 $-1 #
edge $-1 $113 -21.895282023260442 $158 -3.8900907249238728 $105 $159 forward 7 unknown #
coedge $-1 $160 $161 $62 $108 forward $100 $-1 #
edge $-1 $162 -54.708275843597235 $112 -49.150368502538754 $107 $163 forward 7 unknown #
edge $-1 $113 -10.488215173144923 $162 3.3516233665497261e-014 $63 $164 forward 7 unknown #
coedge $-1 $64 $154 $160 $165 forward $111 $-1 #
loop $-1 $-1 $154 $99 #
vertex $-1 $108 $166 #
vertex $-1 $65 $167 #
straight-curve $-1 -69.193526526265998 -34.7879683973526 10.090943303253965 1 0 0 I I #
coedge $-1 $115 $115 $-1 $168 reversed $68 $-1 #
edge $-1 $169 0 $169 6.2831853071796004 $69 $170 forward 7 unknown #
vertex $-1 $72 $171 #
ellipse-curve $-1 -62.736191328556295 -29.643628026399291 7.3119896327247131 -0.52991927123019833 0 0.84804809178421925 1.6960961835684385 0 1.0598385424603967 1 I I #
coedge $-1 $119 $119 $-1 $172 reversed $75 $-1 #
edge $-1 $173 0 $173 6.2831853071796004 $76 $174 forward 7 unknown #
vertex $-1 $79 $175 #
ellipse-curve $-1 -62.736191328556295 -21.927117469969332 7.3119896327247131 -0.52991927123019833 0 0.84804809178421925 1.6960961835684385 0 1.0598385424603967 1 I I #
face $-1 $-1 $95 $12 $-1 $176 reversed single #
loop $-1 $-1 $139 $80 #
plane-surface $-1 0 45.400238805124616 0 0 -1 0 0 0 -1 forward_v I I I I #
coedge $-1 $177 $137 $140 $178 forward $81 $-1 #
coedge $-1 $143 $83 $84 $131 reversed $51 $-1 #
coedge $-1 $137 $177 $83 $129 reversed $81 $-1 #
edge $-1 $144 -10.090943303253963 $179 10.090943303253963 $128 $180 forward 7 unknown #
coedge $-1 $85 $84 $177 $181 forward $33 $-1 #
edge $-1 $135 -67.183446760460214 $179 67.183446760460214 $127 $182 forward 7 unknown #
coedge $-1 $140 $139 $85 $133 reversed $124 $-1 #
edge $-1 $183 -67.183446760460214 $134 67.183446760460214 $132 $184 forward 7 unknown #
vertex $-1 $87 $185 #
vertex $-1 $146 $186 #
straight-curve $-1 67.183446760460214 0 -10.090943303253963 0 -1 0 I I #
coedge $-1 $126 $128 $88 $138 reversed $81 $-1 #
edge $-1 $141 -45.400238805124616 $144 45.400238805124616 $137 $187 forward 7 unknown #
coedge $-1 $132 $89 $94 $147 forward $124 $-1 #
coedge $-1 $89 $132 $126 $178 reversed $124 $-1 #
vertex $-1 $90 $188 #
straight-curve $-1 0 45.400238805124616 10.090943303253963 -1 0 0 I I #
coedge $-1 $91 $127 $93 $146 reversed $51 $-1 #
vertex $-1 $138 $189 #
straight-curve $-1 0 -45.400238805124616 10.090943303253963 1 0 0 I I #
edge $-1 $96 -10.090943303253963 $135 10.090943303253963 $93 $190 forward 7 unknown #
edge $-1 $97 -10.090943303253963 $134 10.090943303253963 $94 $191 forward 7 unknown #
point $-1 67.183446760460214 -45.400238805124616 10.090943303253963 #
point $-1 67.183446760460214 45.400238805124616 10.090943303253963 #
plane-surface $-1 0 0 10.090943303253963 0 0 1 1 0 0 forward_v I I I I #
coedge $-1 $161 $160 $153 $192 forward $100 $-1 #
coedge $-1 $153 $102 $104 $157 reversed $59 $-1 #
coedge $-1 $102 $152 $151 $192 reversed $59 $-1 #
coedge $-1 $110 $105 $102 $155 forward $111 $-1 #
edge $-1 $158 -10.904590629613658 $193 -2.0100797658057843 $154 $194 forward 7 unknown #
coedge $-1 $104 $103 $161 $195 reversed $37 $-1 #
edge $-1 $196 -3.3516233665497261e-014 $158 10.488215173144923 $152 $197 forward 7 unknown #
vertex $-1 $106 $198 #
straight-curve $-1 -58.28893589665234 -12.892686374092158 10.090943303253963 0 1 0 I I #
coedge $-1 $151 $107 $110 $165 reversed $100 $-1 #
coedge $-1 $107 $151 $156 $195 forward $100 $-1 #
vertex $-1 $108 $199 #
straight-curve $-1 -67.183446760460214 -34.7879683973526 59.241311805792719 0 0 1 I I #
straight-curve $-1 -67.183446760460185 -34.7879683973526 4.5330359621954983 -0.84804809178421925 0 -0.52991927123019833 I I #
edge $-1 $193 16.78277709901603 $112 34.7879683973526 $160 $200 forward 7 unknown #
point $-1 -67.183446760460214 -34.7879683973526 10.090943303253963 #
point $-1 -58.28893589665234 -34.7879683973526 10.090943303253963 #
edge $-1 $201 1 $201 0 $115 $-1 forward 7 unknown #
vertex $-1 $116 $202 #
ellipse-curve $-1 -59.436806270395429 -29.643628026399291 2.0318698964881121 -0.52991927123019833 0 0.84804809178421925 1.6960961835684385 0 1.0598385424603967 1 I I #
point $-1 -61.040095144987873 -29.643628026399291 8.37182817518514 #
edge $-1 $203 1 $203 0 $119 $-1 forward 7 unknown #
vertex $-1 $120 $204 #
ellipse-curve $-1 -59.436806270395429 -21.927117469969332 2.0318698964881121 -0.52991927123019833 0 0.84804809178421925 1.6960961835684385 0 1.0598385424603967 1 I I #
point $-1 -61.040095144987873 -21.927117469969332 8.37182817518514 #
plane-surface $-1 67.183446760460214 0 0 -1 0 0 0 0 1 forward_v I I I I #
coedge $-1 $128 $126 $130 $181 reversed $81 $-1 #
edge $-1 $141 -10.090943303253963 $183 10.090943303253963 $140 $205 forward 7 unknown #
vertex $-1 $181 $206 #
straight-curve $-1 -67.183446760460214 -45.400238805124616 0 0 0 -1 I I #
edge $-1 $179 -45.400238805124616 $183 45.400238805124616 $177 $207 forward 7 unknown #
straight-curve $-1 0 -45.400238805124616 -10.090943303253963 -1 0 0 I I #
vertex $-1 $133 $208 #
straight-curve $-1 0 45.400238805124616 -10.090943303253963 1 0 0 I I #
point $-1 67.183446760460214 45.400238805124616 -10.090943303253963 #
point $-1 67.183446760460214 -45.400238805124616 -10.090943303253963 #
straight-curve $-1 -67.183446760460214 0 10.090943303253963 0 -1 0 I I #
point $-1 -67.183446760460214 45.400238805124616 10.090943303253963 #
point $-1 -67.183446760460214 -45.400238805124616 10.090943303253963 #
straight-curve $-1 67.183446760460214 -45.400238805124616 0 0 0 -1 I I #
straight-curve $-1 67.183446760460214 45.400238805124616 0 0 0 -1 I I #
edge $-1 $193 49.150368502538754 $196 54.708275843597235 $151 $209 forward 7 unknown #
vertex $-1 $165 $210 #
straight-curve $-1 -69.193526526265998 -16.78277709901603 10.090943303253965 -1 0 0 I I #
edge $-1 $196 3.8900907249238728 $162 21.895282023260442 $161 $211 forward 7 unknown #
vertex $-1 $195 $212 #
straight-curve $-1 -67.183446760460185 -16.78277709901603 4.5330359621954983 0.84804809178421925 0 0.52991927123019833 I I #
point $-1 -58.28893589665234 -16.78277709901603 10.090943303253963 #
point $-1 -67.183446760460214 -34.7879683973526 4.5330359621954806 #
straight-curve $-1 -67.183446760460214 0 10.090943303253963 0 -1 0 I I #
vertex $-1 $168 $213 #
point $-1 -57.740710086826994 -29.643628026399291 3.0917084389485088 #
vertex $-1 $172 $214 #
point $-1 -57.740710086826994 -21.927117469969332 3.0917084389485088 #
straight-curve $-1 -67.183446760460214 45.400238805124616 0 0 0 -1 I I #
point $-1 -67.183446760460214 -45.400238805124616 -10.090943303253963 #
straight-curve $-1 -67.183446760460214 0 -10.090943303253963 0 1 0 I I #
point $-1 -67.183446760460214 45.400238805124616 -10.090943303253963 #
straight-curve $-1 -67.183446760460214 -16.78277709901603 59.241311805792719 0 0 -1 I I #
point $-1 -67.183446760460214 -16.78277709901603 10.090943303253963 #
straight-curve $-1 -67.183446760460214 -12.892686374092158 4.533035962195477 0 -1 0 I I #
point $-1 -67.183446760460214 -16.78277709901603 4.5330359621954806 #
point $-1 -58.376967727935032 -29.643628026399291 0.33577371291967362 #
point $-1 -58.376967727935032 -21.927117469969332 0.33577371291967362 #
End-of-ACIS-data 