500 0 10 0           
7 Unknown 11 ACIS 5.0 NT 24 Thu Mar 25 22:02:12 1999 
-1 9.9999999999999995e-007 1e-010 
body $-1 $10 $-1 $11 #
body $-1 $12 $-1 $13 #
body $-1 $14 $-1 $15 #
body $-1 $16 $-1 $17 #
body $-1 $18 $-1 $19 #
body $-1 $20 $-1 $21 #
body $-1 $22 $-1 $23 #
body $-1 $24 $-1 $25 #
body $-1 $26 $-1 $27 #
body $-1 $28 $-1 $29 #
lump $-1 $-1 $30 $0 #
transform $-1 1 0 0 0 1 0 0 0 1 58.805505539109475 28.744652275728892 11.507686042451601 1 rotate no_reflect no_shear #
lump $-1 $-1 $31 $1 #
transform $-1 1 0 0 0 1 0 0 0 1 58.805505539109475 28.744652275728892 11.507686042451601 1 rotate no_reflect no_shear #
lump $-1 $-1 $32 $2 #
transform $-1 1 0 0 0 1 0 0 0 1 58.805505539109475 28.744652275728892 11.507686042451601 1 rotate no_reflect no_shear #
lump $-1 $-1 $33 $3 #
transform $-1 1 0 0 0 1 0 0 0 1 58.805505539109475 28.744652275728892 11.507686042451601 1 rotate no_reflect no_shear #
lump $-1 $-1 $34 $4 #
transform $-1 1 0 0 0 1 0 0 0 1 58.805505539109475 28.744652275728892 11.507686042451601 1 rotate no_reflect no_shear #
lump $-1 $-1 $35 $5 #
transform $-1 1 0 0 0 1 0 0 0 1 58.805505539109475 28.744652275728892 11.507686042451601 1 rotate no_reflect no_shear #
lump $-1 $-1 $36 $6 #
transform $-1 1 0 0 0 1 0 0 0 1 58.805505539109475 28.744652275728892 11.507686042451601 1 rotate no_reflect no_shear #
lump $-1 $-1 $37 $7 #
transform $-1 1 0 0 0 1 0 0 0 1 58.805505539109475 28.744652275728892 11.507686042451601 1 rotate no_reflect no_shear #
lump $-1 $-1 $38 $8 #
transform $-1 1 0 0 0 1 0 0 0 1 58.805505539109475 28.744652275728892 11.507686042451601 1 rotate no_reflect no_shear #
lump $-1 $-1 $39 $9 #
transform $-1 1 0 0 0 1 0 0 0 1 58.805505539109475 28.744652275728892 11.507686042451601 1 rotate no_reflect no_shear #
shell $-1 $-1 $-1 $40 $-1 $10 #
shell $-1 $-1 $-1 $41 $-1 $12 #
shell $-1 $-1 $-1 $42 $-1 $14 #
shell $-1 $-1 $-1 $43 $-1 $16 #
shell $-1 $-1 $-1 $44 $-1 $18 #
shell $-1 $-1 $-1 $45 $-1 $20 #
shell $-1 $-1 $-1 $46 $-1 $22 #
shell $-1 $-1 $-1 $47 $-1 $24 #
shell $-1 $-1 $-1 $48 $-1 $26 #
shell $-1 $-1 $-1 $49 $-1 $28 #
face $-1 $50 $51 $30 $-1 $52 forward single #
face $-1 $53 $54 $31 $-1 $55 reversed single #
face $-1 $56 $57 $32 $-1 $58 reversed single #
face $-1 $59 $60 $33 $-1 $61 forward single #
face $-1 $62 $63 $34 $-1 $64 reversed single #
face $-1 $65 $66 $35 $-1 $67 forward single #
face $-1 $68 $69 $36 $-1 $70 reversed single #
face $-1 $71 $72 $37 $-1 $73 forward single #
face $-1 $74 $75 $38 $-1 $76 reversed single #
face $-1 $77 $78 $39 $-1 $79 forward single #
face $-1 $80 $81 $30 $-1 $82 reversed single #
loop $-1 $-1 $83 $40 #
plane-surface $-1 0 0 11.507686042451601 0 0 1 1 0 0 forward_v I I I I #
face $-1 $84 $85 $31 $-1 $86 reversed single #
loop $-1 $-1 $87 $41 #
plane-surface $-1 0 -23.340229621063251 5.9931138272416771 0 0 1 1 0 0 forward_v I I I I #
face $-1 $88 $89 $32 $-1 $90 reversed single #
loop $-1 $-1 $91 $42 #
plane-surface $-1 32.786218195041414 0.37973923915640384 169.7055807560003 0 -1 0 -0.5877852598018023 0 -0.80901698891910034 forward_v I I I I #
face $-1 $92 $93 $33 $-1 $94 forward single #
loop $-1 $95 $96 $43 #
cone-surface $-1 54.084672941919933 -3.7460814632978554 7.7297154997248541 -0.5877852598018023 0 -0.80901698891910034 1.2135254833786506 0 -0.88167788970270344 1 I I 0 1 1.5 forward I I I I #
face $-1 $97 $98 $34 $-1 $99 reversed single #
loop $-1 $-1 $100 $44 #
plane-surface $-1 32.786218195041414 18.680747475083393 169.7055807560003 0 -1 0 -0.5877852598018023 0 -0.80901698891910034 forward_v I I I I #
face $-1 $101 $102 $35 $-1 $103 forward single #
loop $-1 $104 $105 $45 #
cone-surface $-1 54.084672941919933 14.554926772629134 7.7297154997248541 -0.5877852598018023 0 -0.80901698891910034 1.2135254833786506 0 -0.88167788970270344 1 I I 0 1 1.5 forward I I I I #
face $-1 $106 $107 $36 $-1 $108 reversed single #
loop $-1 $-1 $109 $46 #
plane-surface $-1 -127.93552424127306 -7.8719021657521147 100.57556205383675 0 1 0 -0.5877852598018023 0 0.80901698891910034 forward_v I I I I #
face $-1 $110 $111 $37 $-1 $112 forward single #
loop $-1 $113 $114 $47 #
cone-surface $-1 -54.084672941919919 -3.7460814632978554 7.7297154997248789 0.5877852598018023 0 -0.80901698891910034 1.2135254833786506 0 0.88167788970270344 1 I I 0 1 1.5 forward I I I I #
face $-1 $115 $116 $38 $-1 $117 reversed single #
loop $-1 $-1 $118 $48 #
plane-surface $-1 -127.93552424127306 10.429106070174875 100.57556205383675 0 1 0 -0.5877852598018023 0 0.80901698891910034 forward_v I I I I #
face $-1 $119 $120 $39 $-1 $121 forward single #
loop $-1 $122 $123 $49 #
cone-surface $-1 -54.084672941919919 14.554926772629134 7.7297154997248789 0.5877852598018023 0 -0.80901698891910034 1.2135254833786506 0 0.88167788970270344 1 I I 0 1 1.5 forward I I I I #
face $-1 $124 $125 $30 $-1 $126 reversed single #
loop $-1 $-1 $127 $50 #
plane-surface $-1 0 0 -11.507686042451601 0 0 1 1 0 0 forward_v I I I I #
coedge $-1 $128 $129 $130 $131 forward $51 $-1 #
face $-1 $132 $133 $31 $-1 $134 reversed single #
loop $-1 $-1 $135 $53 #
plane-surface $-1 0 -17.93580696639761 8.750399934846639 0 -1 0 0 0 -1 forward_v I I I I #
coedge $-1 $136 $137 $138 $139 reversed $54 $-1 #
face $-1 $140 $141 $32 $-1 $142 reversed single #
loop $-1 $-1 $143 $56 #
plane-surface $-1 -36.343800507122154 -3.7460814632978554 74.556274709768658 0.5877852598018023 0 0.80901698891910034 0.80901698891910034 0 -0.5877852598018023 forward_v I I I I #
coedge $-1 $144 $145 $146 $147 reversed $57 $-1 #
face $-1 $-1 $148 $33 $-1 $149 forward single #
loop $-1 $150 $151 $59 #
cone-surface $-1 53.108186493473141 -3.7460814632978554 6.385697232732058 -0.5877852598018023 0 -0.80901698891910034 0.60676274168932531 0 -0.44083894485135172 1 I I -0.70710678118654757 0.70710678118654757 0.75 forward I I I I #
loop $-1 $-1 $152 $43 #
coedge $-1 $96 $96 $153 $154 reversed $60 $-1 #
face $-1 $155 $156 $34 $-1 $157 reversed single #
loop $-1 $-1 $158 $62 #
plane-surface $-1 -36.343800507122154 14.554926772629134 74.556274709768658 0.5877852598018023 0 0.80901698891910034 0.80901698891910034 0 -0.5877852598018023 forward_v I I I I #
coedge $-1 $159 $160 $161 $162 reversed $63 $-1 #
face $-1 $-1 $163 $35 $-1 $164 forward single #
loop $-1 $165 $166 $65 #
cone-surface $-1 53.108186493473141 14.554926772629134 6.385697232732058 -0.5877852598018023 0 -0.80901698891910034 0.60676274168932531 0 -0.44083894485135172 1 I I -0.70710678118654757 0.70710678118654757 0.75 forward I I I I #
loop $-1 $-1 $167 $45 #
coedge $-1 $105 $105 $168 $169 reversed $66 $-1 #
face $-1 $170 $171 $36 $-1 $172 reversed single #
loop $-1 $-1 $173 $68 #
plane-surface $-1 -58.80550553910949 -3.7460814632978554 5.4262560076051045 -0.5877852598018023 0 0.80901698891910034 0.80901698891910034 0 0.5877852598018023 forward_v I I I I #
coedge $-1 $174 $175 $176 $177 reversed $69 $-1 #
face $-1 $-1 $178 $37 $-1 $179 forward single #
loop $-1 $180 $181 $71 #
cone-surface $-1 -53.108186493473127 -3.7460814632978554 6.3856972327320829 0.5877852598018023 0 -0.80901698891910034 0.60676274168932531 0 0.44083894485135172 1 I I -0.70710678118654757 0.70710678118654757 0.75 forward I I I I #
loop $-1 $-1 $182 $47 #
coedge $-1 $114 $114 $183 $184 reversed $72 $-1 #
face $-1 $185 $186 $38 $-1 $187 reversed single #
loop $-1 $-1 $188 $74 #
plane-surface $-1 -58.80550553910949 14.554926772629134 5.4262560076051045 -0.5877852598018023 0 0.80901698891910034 0.80901698891910034 0 0.5877852598018023 forward_v I I I I #
coedge $-1 $189 $190 $191 $192 reversed $75 $-1 #
face $-1 $-1 $193 $39 $-1 $194 forward single #
loop $-1 $195 $196 $77 #
cone-surface $-1 -53.108186493473127 14.554926772629134 6.3856972327320829 0.5877852598018023 0 -0.80901698891910034 0.60676274168932531 0 0.44083894485135172 1 I I -0.70710678118654757 0.70710678118654757 0.75 forward I I I I #
loop $-1 $-1 $197 $49 #
coedge $-1 $123 $123 $198 $199 reversed $78 $-1 #
face $-1 $200 $201 $30 $-1 $202 reversed single #
loop $-1 $-1 $203 $80 #
plane-surface $-1 0 -28.744652275728892 0 0 1 0 0 0 1 forward_v I I I I #
coedge $-1 $204 $205 $206 $207 forward $81 $-1 #
coedge $-1 $208 $83 $209 $210 forward $51 $-1 #
coedge $-1 $83 $208 $211 $212 forward $51 $-1 #
coedge $-1 $213 $214 $83 $131 reversed $215 $-1 #
edge $-1 $216 -28.744652275728892 $217 28.744652275728892 $130 $218 forward 7 unknown #
face $-1 $219 $220 $31 $-1 $221 reversed single #
loop $-1 $-1 $222 $84 #
plane-surface $-1 -58.805505539109475 0 0 1 0 0 0 0 -1 forward_v I I I I #
coedge $-1 $223 $224 $225 $226 reversed $85 $-1 #
coedge $-1 $227 $87 $228 $229 reversed $54 $-1 #
coedge $-1 $87 $227 $223 $230 forward $54 $-1 #
coedge $-1 $225 $231 $87 $139 forward $232 $-1 #
edge $-1 $233 -17.074537465197267 $234 -6.2656921558659846 $138 $235 forward 7 unknown #
face $-1 $236 $237 $32 $-1 $238 reversed single #
loop $-1 $-1 $239 $88 #
plane-surface $-1 32.786218195041414 -7.8719021657521147 169.7055807560003 0 1 0 0.5877852598018023 0 0.80901698891910034 forward_v I I I I #
coedge $-1 $240 $241 $242 $243 reversed $89 $-1 #
coedge $-1 $145 $91 $244 $245 reversed $57 $-1 #
coedge $-1 $91 $144 $240 $246 reversed $57 $-1 #
coedge $-1 $242 $247 $91 $147 forward $248 $-1 #
edge $-1 $249 -42.412396441588768 $250 -34.042026254400525 $146 $251 forward 7 unknown #
loop $-1 $-1 $153 $92 #
plane-surface $-1 -36.343800507122154 -3.7460814632978554 74.556274709768658 0.5877852598018023 0 0.80901698891910034 0.80901698891910034 0 -0.5877852598018023 forward_v I I I I #
loop $-1 $-1 $252 $59 #
coedge $-1 $151 $151 $152 $253 reversed $93 $-1 #
coedge $-1 $152 $152 $151 $253 forward $95 $-1 #
coedge $-1 $153 $153 $96 $154 forward $148 $-1 #
edge $-1 $254 0 $254 6.2831853071796004 $153 $255 forward 7 unknown #
face $-1 $256 $257 $34 $-1 $258 reversed single #
loop $-1 $-1 $259 $97 #
plane-surface $-1 32.786218195041414 10.429106070174875 169.7055807560003 0 1 0 0.5877852598018023 0 0.80901698891910034 forward_v I I I I #
coedge $-1 $260 $261 $262 $263 reversed $98 $-1 #
coedge $-1 $160 $100 $264 $265 reversed $63 $-1 #
coedge $-1 $100 $159 $260 $266 reversed $63 $-1 #
coedge $-1 $262 $267 $100 $162 forward $268 $-1 #
edge $-1 $269 -42.412396441588768 $270 -34.042026254400525 $161 $271 forward 7 unknown #
loop $-1 $-1 $168 $101 #
plane-surface $-1 -36.343800507122154 14.554926772629134 74.556274709768658 0.5877852598018023 0 0.80901698891910034 0.80901698891910034 0 -0.5877852598018023 forward_v I I I I #
loop $-1 $-1 $272 $65 #
coedge $-1 $166 $166 $167 $273 reversed $102 $-1 #
coedge $-1 $167 $167 $166 $273 forward $104 $-1 #
coedge $-1 $168 $168 $105 $169 forward $163 $-1 #
edge $-1 $274 0 $274 6.2831853071796004 $168 $275 forward 7 unknown #
face $-1 $276 $277 $36 $-1 $278 forward single #
loop $-1 $-1 $279 $106 #
plane-surface $-1 -127.93552424127306 0.37973923915640384 100.57556205383675 0 -1 0 0.5877852598018023 0 -0.80901698891910034 forward_v I I I I #
coedge $-1 $280 $281 $282 $283 reversed $107 $-1 #
coedge $-1 $175 $109 $284 $285 reversed $69 $-1 #
coedge $-1 $109 $174 $280 $286 reversed $69 $-1 #
coedge $-1 $282 $287 $109 $177 forward $277 $-1 #
edge $-1 $288 5.1622565815270534 $289 13.532626768715268 $176 $290 forward 7 unknown #
loop $-1 $-1 $183 $110 #
plane-surface $-1 -58.80550553910949 -3.7460814632978554 5.4262560076051045 -0.5877852598018023 0 0.80901698891910034 0.80901698891910034 0 0.5877852598018023 forward_v I I I I #
loop $-1 $-1 $291 $71 #
coedge $-1 $181 $181 $182 $292 reversed $111 $-1 #
coedge $-1 $182 $182 $181 $292 forward $113 $-1 #
coedge $-1 $183 $183 $114 $184 forward $178 $-1 #
edge $-1 $293 0 $293 6.2831853071796004 $183 $294 forward 7 unknown #
face $-1 $295 $296 $38 $-1 $297 forward single #
loop $-1 $-1 $298 $115 #
plane-surface $-1 -127.93552424127306 18.680747475083393 100.57556205383675 0 -1 0 0.5877852598018023 0 -0.80901698891910034 forward_v I I I I #
coedge $-1 $299 $300 $301 $302 reversed $116 $-1 #
coedge $-1 $190 $118 $303 $304 reversed $75 $-1 #
coedge $-1 $118 $189 $299 $305 reversed $75 $-1 #
coedge $-1 $301 $306 $118 $192 forward $296 $-1 #
edge $-1 $307 5.1622565815270534 $308 13.532626768715268 $191 $309 forward 7 unknown #
loop $-1 $-1 $198 $119 #
plane-surface $-1 -58.80550553910949 14.554926772629134 5.4262560076051045 -0.5877852598018023 0 0.80901698891910034 0.80901698891910034 0 0.5877852598018023 forward_v I I I I #
loop $-1 $-1 $310 $77 #
coedge $-1 $196 $196 $197 $311 reversed $120 $-1 #
coedge $-1 $197 $197 $196 $311 forward $122 $-1 #
coedge $-1 $198 $198 $123 $199 forward $193 $-1 #
edge $-1 $312 0 $312 6.2831853071796004 $198 $313 forward 7 unknown #
face $-1 $314 $315 $30 $-1 $316 reversed single #
loop $-1 $-1 $317 $124 #
plane-surface $-1 -58.805505539109475 0 0 1 0 0 0 0 -1 forward_v I I I I #
coedge $-1 $318 $211 $319 $320 forward $125 $-1 #
coedge $-1 $321 $127 $318 $322 forward $81 $-1 #
coedge $-1 $127 $321 $323 $324 forward $81 $-1 #
coedge $-1 $214 $213 $127 $207 reversed $215 $-1 #
edge $-1 $325 -28.744652275728892 $326 28.744652275728892 $206 $327 forward 7 unknown #
coedge $-1 $129 $128 $328 $329 forward $51 $-1 #
coedge $-1 $330 $331 $128 $210 reversed $315 $-1 #
edge $-1 $217 -58.805505539109475 $332 58.805505539109475 $209 $333 forward 7 unknown #
coedge $-1 $203 $334 $129 $212 reversed $125 $-1 #
edge $-1 $335 -58.805505539109475 $216 58.805505539109475 $211 $336 forward 7 unknown #
coedge $-1 $206 $130 $334 $337 forward $215 $-1 #
coedge $-1 $130 $206 $330 $338 reversed $215 $-1 #
loop $-1 $-1 $213 $314 #
vertex $-1 $131 $339 #
vertex $-1 $131 $340 #
straight-curve $-1 58.805505539109475 0 11.507686042451601 0 1 0 I I #
face $-1 $341 $342 $31 $-1 $343 forward single #
loop $-1 $-1 $228 $132 #
plane-surface $-1 0 -28.744652275728892 0 0 1 0 0 0 1 forward_v I I I I #
coedge $-1 $344 $345 $346 $347 forward $133 $-1 #
coedge $-1 $346 $135 $137 $230 reversed $85 $-1 #
coedge $-1 $135 $346 $348 $349 reversed $85 $-1 #
coedge $-1 $350 $138 $135 $226 forward $232 $-1 #
edge $-1 $234 1.6179138598183576 $351 7.1324860750282815 $225 $352 forward 7 unknown #
coedge $-1 $137 $136 $344 $353 reversed $54 $-1 #
coedge $-1 $354 $355 $136 $229 forward $220 $-1 #
edge $-1 $356 -58.805505539109475 $233 58.805505539109475 $228 $357 forward 7 unknown #
edge $-1 $358 -58.805505539109475 $234 58.805505539109475 $223 $359 forward 7 unknown #
coedge $-1 $138 $350 $354 $360 forward $232 $-1 #
loop $-1 $-1 $225 $341 #
vertex $-1 $229 $361 #
vertex $-1 $139 $362 #
straight-curve $-1 58.805505539109475 -11.670114810531626 5.9931138272416771 0 1 0 I I #
face $-1 $-1 $248 $32 $-1 $363 forward single #
loop $-1 $-1 $364 $140 #
plane-surface $-1 58.805505539109475 0 0 -1 0 0 0 0 1 forward_v I I I I #
coedge $-1 $365 $366 $367 $368 reversed $141 $-1 #
coedge $-1 $369 $143 $145 $246 forward $89 $-1 #
coedge $-1 $143 $369 $365 $370 forward $89 $-1 #
coedge $-1 $367 $146 $143 $243 forward $248 $-1 #
edge $-1 $250 -2.2527799708053315 $371 5.998861434103187 $242 $372 forward 7 unknown #
coedge $-1 $373 $374 $144 $245 forward $237 $-1 #
edge $-1 $375 -79.426534370395046 $249 -73.345104335548555 $244 $376 forward 7 unknown #
edge $-1 $250 107.26466446024294 $375 117.61101107821892 $145 $377 forward 7 unknown #
coedge $-1 $146 $367 $373 $378 forward $248 $-1 #
loop $-1 $-1 $367 $236 #
vertex $-1 $245 $379 #
vertex $-1 $147 $380 #
straight-curve $-1 16.393109097520707 0.37973923915640384 11.507686042451596 -1 0 0 I I #
coedge $-1 $252 $252 $-1 $381 reversed $150 $-1 #
edge $-1 $382 0 $382 6.2831853071796004 $151 $383 forward 7 unknown #
vertex $-1 $154 $384 #
ellipse-curve $-1 54.620320445515375 -3.7460814632978554 8.4669710250283323 0.5877852598018023 0 0.80901698891910034 1.2135254833786506 0 -0.88167788970270344 1 I I #
face $-1 $-1 $268 $34 $-1 $385 forward single #
loop $-1 $-1 $386 $155 #
plane-surface $-1 58.805505539109475 0 0 -1 0 0 0 0 1 forward_v I I I I #
coedge $-1 $387 $388 $389 $390 reversed $156 $-1 #
coedge $-1 $391 $158 $160 $266 forward $98 $-1 #
coedge $-1 $158 $391 $387 $392 forward $98 $-1 #
coedge $-1 $389 $161 $158 $263 forward $268 $-1 #
edge $-1 $270 -11.403284088768826 $393 -3.1516426838603078 $262 $394 forward 7 unknown #
coedge $-1 $395 $396 $159 $265 forward $257 $-1 #
edge $-1 $397 -79.426534370395046 $269 -73.345104335548555 $264 $398 forward 7 unknown #
edge $-1 $270 107.26466446024294 $397 117.61101107821892 $160 $399 forward 7 unknown #
coedge $-1 $161 $389 $395 $400 forward $268 $-1 #
loop $-1 $-1 $389 $256 #
vertex $-1 $265 $401 #
vertex $-1 $162 $402 #
straight-curve $-1 16.393109097520707 18.680747475083393 11.507686042451596 -1 0 0 I I #
coedge $-1 $272 $272 $-1 $403 reversed $165 $-1 #
edge $-1 $404 0 $404 6.2831853071796004 $166 $405 forward 7 unknown #
vertex $-1 $169 $406 #
ellipse-curve $-1 54.620320445515375 14.554926772629134 8.4669710250283323 0.5877852598018023 0 0.80901698891910034 1.2135254833786506 0 -0.88167788970270344 1 I I #
face $-1 $-1 $407 $36 $-1 $408 reversed single #
loop $-1 $-1 $176 $170 #
plane-surface $-1 0 0 11.507686042451601 0 0 1 1 0 0 forward_v I I I I #
coedge $-1 $409 $410 $411 $412 reversed $171 $-1 #
coedge $-1 $413 $173 $175 $286 forward $107 $-1 #
coedge $-1 $173 $413 $409 $414 forward $107 $-1 #
coedge $-1 $411 $176 $173 $283 forward $277 $-1 #
edge $-1 $289 -5.998861434103187 $415 2.2527799708053315 $282 $416 forward 7 unknown #
coedge $-1 $417 $418 $174 $285 forward $407 $-1 #
edge $-1 $419 -44.861525019313262 $288 -38.780094984466771 $284 $420 forward 7 unknown #
edge $-1 $289 -10.346346617975959 $419 -1.7761521089745031e-014 $175 $421 forward 7 unknown #
coedge $-1 $176 $411 $417 $422 forward $277 $-1 #
vertex $-1 $285 $423 #
vertex $-1 $177 $424 #
straight-curve $-1 -63.967762120636529 -7.8719021657521147 11.507686042451603 1 0 0 I I #
coedge $-1 $291 $291 $-1 $425 reversed $180 $-1 #
edge $-1 $426 0 $426 6.2831853071796004 $181 $427 forward 7 unknown #
vertex $-1 $184 $428 #
ellipse-curve $-1 -54.620320445515368 -3.7460814632978554 8.4669710250283607 -0.5877852598018023 0 0.80901698891910034 1.2135254833786506 0 0.88167788970270344 1 I I #
face $-1 $-1 $429 $38 $-1 $430 reversed single #
loop $-1 $-1 $191 $185 #
plane-surface $-1 0 0 11.507686042451601 0 0 1 1 0 0 forward_v I I I I #
coedge $-1 $431 $432 $433 $434 reversed $186 $-1 #
coedge $-1 $435 $188 $190 $305 forward $116 $-1 #
coedge $-1 $188 $435 $431 $436 forward $116 $-1 #
coedge $-1 $433 $191 $188 $302 forward $296 $-1 #
edge $-1 $308 3.1516426838603078 $437 11.403284088768826 $301 $438 forward 7 unknown #
coedge $-1 $439 $440 $189 $304 forward $429 $-1 #
edge $-1 $441 -44.861525019313262 $307 -38.780094984466771 $303 $442 forward 7 unknown #
edge $-1 $308 -10.346346617975959 $441 -1.7761521089745031e-014 $190 $443 forward 7 unknown #
coedge $-1 $191 $433 $439 $444 forward $296 $-1 #
vertex $-1 $192 $445 #
vertex $-1 $192 $446 #
straight-curve $-1 -63.967762120636529 10.429106070174875 11.507686042451603 1 0 0 I I #
coedge $-1 $310 $310 $-1 $447 reversed $195 $-1 #
edge $-1 $448 0 $448 6.2831853071796004 $196 $449 forward 7 unknown #
vertex $-1 $199 $450 #
ellipse-curve $-1 -54.620320445515368 14.554926772629134 8.4669710250283607 -0.5877852598018023 0 0.80901698891910034 1.2135254833786506 0 0.88167788970270344 1 I I #
face $-1 $-1 $215 $30 $-1 $451 reversed single #
loop $-1 $-1 $330 $200 #
plane-surface $-1 0 28.744652275728892 0 0 -1 0 0 0 -1 forward_v I I I I #
coedge $-1 $452 $328 $331 $453 forward $201 $-1 #
coedge $-1 $334 $203 $204 $322 reversed $125 $-1 #
coedge $-1 $328 $452 $203 $320 reversed $201 $-1 #
edge $-1 $335 -11.507686042451601 $454 11.507686042451601 $319 $455 forward 7 unknown #
coedge $-1 $205 $204 $452 $456 forward $81 $-1 #
edge $-1 $326 -58.805505539109475 $454 58.805505539109475 $318 $457 forward 7 unknown #
coedge $-1 $331 $330 $205 $324 reversed $315 $-1 #
edge $-1 $458 -58.805505539109475 $325 58.805505539109475 $323 $459 forward 7 unknown #
vertex $-1 $207 $460 #
vertex $-1 $337 $461 #
straight-curve $-1 58.805505539109475 0 -11.507686042451601 0 -1 0 I I #
coedge $-1 $317 $319 $208 $329 reversed $201 $-1 #
edge $-1 $332 -28.744652275728892 $335 28.744652275728892 $328 $462 forward 7 unknown #
coedge $-1 $323 $209 $214 $338 forward $315 $-1 #
coedge $-1 $209 $323 $317 $453 reversed $315 $-1 #
vertex $-1 $210 $463 #
straight-curve $-1 0 28.744652275728892 11.507686042451601 -1 0 0 I I #
coedge $-1 $211 $318 $213 $337 reversed $125 $-1 #
vertex $-1 $329 $464 #
straight-curve $-1 0 -28.744652275728892 11.507686042451601 1 0 0 I I #
edge $-1 $216 -11.507686042451601 $326 11.507686042451601 $213 $465 forward 7 unknown #
edge $-1 $217 -11.507686042451601 $325 11.507686042451601 $214 $466 forward 7 unknown #
point $-1 58.805505539109475 -28.744652275728892 11.507686042451601 #
point $-1 58.805505539109475 28.744652275728892 11.507686042451601 #
face $-1 $-1 $232 $31 $-1 $467 reversed single #
loop $-1 $-1 $348 $219 #
plane-surface $-1 0 0 11.507686042451601 0 0 1 1 0 0 forward_v I I I I #
coedge $-1 $468 $222 $227 $353 forward $133 $-1 #
coedge $-1 $222 $468 $469 $470 reversed $133 $-1 #
coedge $-1 $224 $223 $222 $347 reversed $85 $-1 #
edge $-1 $471 -7.1324860750282815 $358 -1.6179138598183576 $222 $472 forward 7 unknown #
coedge $-1 $469 $473 $224 $349 forward $342 $-1 #
edge $-1 $351 -58.805505539109475 $471 58.805505539109475 $348 $474 forward 7 unknown #
coedge $-1 $231 $225 $473 $475 reversed $232 $-1 #
vertex $-1 $226 $476 #
straight-curve $-1 58.805505539109475 -17.93580696639761 4.3751999674233195 0 0 1 I I #
edge $-1 $358 6.2656921558659846 $356 17.074537465197267 $344 $477 forward 7 unknown #
coedge $-1 $478 $228 $231 $360 reversed $220 $-1 #
coedge $-1 $228 $478 $468 $479 forward $220 $-1 #
vertex $-1 $229 $480 #
straight-curve $-1 0 -28.744652275728892 5.9931138272416771 1 0 0 I I #
vertex $-1 $353 $481 #
straight-curve $-1 0 -17.93580696639761 5.9931138272416771 1 0 0 I I #
edge $-1 $482 -11.507686042451601 $233 -5.9931138272416771 $231 $483 forward 7 unknown #
point $-1 58.805505539109475 -28.744652275728892 5.9931138272416771 #
point $-1 58.805505539109475 -17.93580696639761 5.9931138272416771 #
plane-surface $-1 0 0 11.507686042451601 0 0 1 1 0 0 forward_v I I I I #
coedge $-1 $374 $373 $366 $484 forward $237 $-1 #
coedge $-1 $366 $239 $241 $370 reversed $141 $-1 #
coedge $-1 $239 $365 $364 $484 reversed $141 $-1 #
coedge $-1 $247 $242 $239 $368 forward $248 $-1 #
edge $-1 $371 34.042026254400525 $485 42.412396441588768 $367 $486 forward 7 unknown #
coedge $-1 $241 $240 $374 $487 reversed $89 $-1 #
edge $-1 $488 -117.61101107821892 $371 -107.26466446024294 $365 $489 forward 7 unknown #
vertex $-1 $243 $490 #
straight-curve $-1 50.435135351921225 -1.8730407316489277 11.507686042451603 0 -1 0 I I #
coedge $-1 $364 $244 $247 $378 reversed $237 $-1 #
coedge $-1 $244 $364 $369 $487 forward $237 $-1 #
vertex $-1 $245 $491 #
straight-curve $-1 58.805505539109475 0.37973923915640384 84.852790378000151 0 0 1 I I #
straight-curve $-1 -36.343800507122154 0.37973923915640384 74.556274709768658 0.80901698891910034 0 -0.5877852598018023 I I #
edge $-1 $485 -7.8719021657521147 $249 0.37973923915640384 $373 $492 forward 7 unknown #
point $-1 58.805505539109475 0.37973923915640384 11.507686042451601 #
point $-1 50.435135351921232 0.37973923915640384 11.507686042451603 #
edge $-1 $493 1 $493 0 $252 $-1 forward 7 unknown #
vertex $-1 $253 $494 #
ellipse-curve $-1 53.549025438324492 -3.7460814632978554 6.9924599744213829 0.5877852598018023 0 0.80901698891910034 1.2135254833786506 0 -0.88167788970270344 1 I I #
point $-1 55.833845928894021 -3.7460814632978554 7.5852931353256201 #
plane-surface $-1 0 0 11.507686042451601 0 0 1 1 0 0 forward_v I I I I #
coedge $-1 $396 $395 $388 $495 forward $257 $-1 #
coedge $-1 $388 $259 $261 $392 reversed $156 $-1 #
coedge $-1 $259 $387 $386 $495 reversed $156 $-1 #
coedge $-1 $267 $262 $259 $390 forward $268 $-1 #
edge $-1 $393 34.042026254400525 $496 42.412396441588768 $389 $497 forward 7 unknown #
coedge $-1 $261 $260 $396 $498 reversed $98 $-1 #
edge $-1 $499 -117.61101107821892 $393 -107.26466446024294 $387 $500 forward 7 unknown #
vertex $-1 $263 $501 #
straight-curve $-1 50.435135351921225 7.277463386314567 11.507686042451603 0 -1 0 I I #
coedge $-1 $386 $264 $267 $400 reversed $257 $-1 #
coedge $-1 $264 $386 $391 $498 forward $257 $-1 #
vertex $-1 $265 $502 #
straight-curve $-1 58.805505539109475 18.680747475083393 84.852790378000151 0 0 1 I I #
straight-curve $-1 -36.343800507122154 18.680747475083393 74.556274709768658 0.80901698891910034 0 -0.5877852598018023 I I #
edge $-1 $496 10.429106070174875 $269 18.680747475083393 $395 $503 forward 7 unknown #
point $-1 58.805505539109475 18.680747475083393 11.507686042451601 #
point $-1 50.435135351921232 18.680747475083393 11.507686042451603 #
edge $-1 $504 1 $504 0 $272 $-1 forward 7 unknown #
vertex $-1 $273 $505 #
ellipse-curve $-1 53.549025438324492 14.554926772629134 6.9924599744213829 0.5877852598018023 0 0.80901698891910034 1.2135254833786506 0 -0.88167788970270344 1 I I #
point $-1 55.833845928894021 14.554926772629134 7.5852931353256201 #
loop $-1 $-1 $284 $276 #
plane-surface $-1 -58.805505539109475 0 0 1 0 0 0 0 -1 forward_v I I I I #
coedge $-1 $410 $279 $281 $414 reversed $171 $-1 #
coedge $-1 $279 $409 $506 $507 reversed $171 $-1 #
coedge $-1 $287 $282 $279 $412 forward $277 $-1 #
edge $-1 $415 -13.532626768715268 $508 -5.1622565815270534 $411 $509 forward 7 unknown #
coedge $-1 $281 $280 $418 $510 reversed $107 $-1 #
edge $-1 $511 1.7761521089745031e-014 $415 10.346346617975959 $409 $512 forward 7 unknown #
vertex $-1 $283 $513 #
straight-curve $-1 -50.435135351921261 -1.8730407316489277 11.507686042451601 0 1 0 I I #
coedge $-1 $506 $284 $287 $422 reversed $407 $-1 #
coedge $-1 $284 $506 $413 $510 forward $407 $-1 #
vertex $-1 $285 $514 #
straight-curve $-1 -58.805505539109475 -7.8719021657521147 50.287781026918374 0 0 1 I I #
straight-curve $-1 -58.80550553910949 -7.8719021657521147 5.4262560076051045 -0.80901698891910034 0 -0.5877852598018023 I I #
edge $-1 $508 -0.37973923915640384 $288 7.8719021657521147 $417 $515 forward 7 unknown #
point $-1 -58.805505539109475 -7.8719021657521147 11.507686042451601 #
point $-1 -50.435135351921261 -7.8719021657521147 11.507686042451601 #
edge $-1 $516 1 $516 0 $291 $-1 forward 7 unknown #
vertex $-1 $292 $517 #
ellipse-curve $-1 -53.549025438324477 -3.7460814632978554 6.9924599744214078 -0.5877852598018023 0 0.80901698891910034 1.2135254833786506 0 0.88167788970270344 1 I I #
point $-1 -53.406794962136708 -3.7460814632978554 9.3486489147310508 #
loop $-1 $-1 $303 $295 #
plane-surface $-1 -58.805505539109475 0 0 1 0 0 0 0 -1 forward_v I I I I #
coedge $-1 $432 $298 $300 $436 reversed $186 $-1 #
coedge $-1 $298 $431 $518 $519 reversed $186 $-1 #
coedge $-1 $306 $301 $298 $434 forward $296 $-1 #
edge $-1 $437 -13.532626768715268 $520 -5.1622565815270534 $433 $521 forward 7 unknown #
coedge $-1 $300 $299 $440 $522 reversed $116 $-1 #
edge $-1 $523 1.7761521089745031e-014 $437 10.346346617975959 $431 $524 forward 7 unknown #
vertex $-1 $302 $525 #
straight-curve $-1 -50.435135351921261 7.277463386314567 11.507686042451601 0 1 0 I I #
coedge $-1 $518 $303 $306 $444 reversed $429 $-1 #
coedge $-1 $303 $518 $435 $522 forward $429 $-1 #
vertex $-1 $304 $526 #
straight-curve $-1 -58.805505539109475 10.429106070174875 50.287781026918374 0 0 1 I I #
straight-curve $-1 -58.80550553910949 10.429106070174875 5.4262560076051045 -0.80901698891910034 0 -0.5877852598018023 I I #
edge $-1 $520 -18.680747475083393 $307 -10.429106070174875 $439 $527 forward 7 unknown #
point $-1 -58.805505539109475 10.429106070174875 11.507686042451601 #
point $-1 -50.435135351921261 10.429106070174875 11.507686042451601 #
edge $-1 $528 1 $528 0 $310 $-1 forward 7 unknown #
vertex $-1 $311 $529 #
ellipse-curve $-1 -53.549025438324477 14.554926772629134 6.9924599744214078 -0.5877852598018023 0 0.80901698891910034 1.2135254833786506 0 0.88167788970270344 1 I I #
point $-1 -53.406794962136708 14.554926772629134 9.3486489147310508 #
plane-surface $-1 58.805505539109475 0 0 -1 0 0 0 0 1 forward_v I I I I #
coedge $-1 $319 $317 $321 $456 reversed $201 $-1 #
edge $-1 $332 -11.507686042451601 $458 11.507686042451601 $331 $530 forward 7 unknown #
vertex $-1 $456 $531 #
straight-curve $-1 -58.805505539109475 -28.744652275728892 0 0 0 -1 I I #
edge $-1 $454 -28.744652275728892 $458 28.744652275728892 $452 $532 forward 7 unknown #
straight-curve $-1 0 -28.744652275728892 -11.507686042451601 -1 0 0 I I #
vertex $-1 $324 $533 #
straight-curve $-1 0 28.744652275728892 -11.507686042451601 1 0 0 I I #
point $-1 58.805505539109475 28.744652275728892 -11.507686042451601 #
point $-1 58.805505539109475 -28.744652275728892 -11.507686042451601 #
straight-curve $-1 -58.805505539109475 0 11.507686042451601 0 -1 0 I I #
point $-1 -58.805505539109475 28.744652275728892 11.507686042451601 #
point $-1 -58.805505539109475 -28.744652275728892 11.507686042451601 #
straight-curve $-1 58.805505539109475 -28.744652275728892 0 0 0 -1 I I #
straight-curve $-1 58.805505539109475 28.744652275728892 0 0 0 -1 I I #
plane-surface $-1 58.805505539109475 0 0 -1 0 0 0 0 1 forward_v I I I I #
coedge $-1 $345 $344 $355 $479 reversed $133 $-1 #
coedge $-1 $534 $348 $345 $470 forward $342 $-1 #
edge $-1 $471 17.93580696639761 $535 28.744652275728892 $345 $536 forward 7 unknown #
vertex $-1 $470 $537 #
straight-curve $-1 -58.805505539109475 -17.93580696639761 4.3751999674233195 0 0 -1 I I #
coedge $-1 $348 $534 $350 $475 forward $342 $-1 #
straight-curve $-1 0 -17.93580696639761 11.507686042451601 -1 0 0 I I #
edge $-1 $482 -28.744652275728892 $351 -17.93580696639761 $350 $538 forward 7 unknown #
point $-1 58.805505539109475 -17.93580696639761 11.507686042451601 #
straight-curve $-1 -58.805505539109475 -11.670114810531626 5.9931138272416771 0 -1 0 I I #
coedge $-1 $355 $354 $534 $539 reversed $220 $-1 #
edge $-1 $535 -11.507686042451601 $356 -5.9931138272416771 $468 $540 forward 7 unknown #
point $-1 -58.805505539109475 -28.744652275728892 5.9931138272416771 #
point $-1 -58.805505539109475 -17.93580696639761 5.9931138272416771 #
vertex $-1 $475 $541 #
straight-curve $-1 58.805505539109475 -28.744652275728892 0 0 0 -1 I I #
edge $-1 $485 73.345104335548555 $488 79.426534370395046 $364 $542 forward 7 unknown #
vertex $-1 $378 $543 #
straight-curve $-1 16.393109097520707 -7.8719021657521147 11.507686042451596 1 0 0 I I #
edge $-1 $488 -5.998861434103187 $375 2.2527799708053315 $374 $544 forward 7 unknown #
vertex $-1 $487 $545 #
straight-curve $-1 -36.343800507122154 -7.8719021657521147 74.556274709768658 -0.80901698891910034 0 0.5877852598018023 I I #
point $-1 50.435135351921232 -7.8719021657521147 11.507686042451603 #
point $-1 58.805505539109475 0.37973923915640384 5.4262560076051045 #
straight-curve $-1 58.805505539109475 0 11.507686042451601 0 1 0 I I #
vertex $-1 $381 $546 #
point $-1 54.762550921703145 -3.7460814632978554 6.1107820847186796 #
edge $-1 $496 73.345104335548555 $499 79.426534370395046 $386 $547 forward 7 unknown #
vertex $-1 $400 $548 #
straight-curve $-1 16.393109097520707 10.429106070174875 11.507686042451596 1 0 0 I I #
edge $-1 $499 3.1516426838603078 $397 11.403284088768826 $396 $549 forward 7 unknown #
vertex $-1 $498 $550 #
straight-curve $-1 -36.343800507122154 10.429106070174875 74.556274709768658 -0.80901698891910034 0 0.5877852598018023 I I #
point $-1 50.435135351921232 10.429106070174875 11.507686042451603 #
point $-1 58.805505539109475 18.680747475083393 5.4262560076051045 #
straight-curve $-1 58.805505539109475 0 11.507686042451601 0 1 0 I I #
vertex $-1 $403 $551 #
point $-1 54.762550921703145 14.554926772629134 6.1107820847186796 #
coedge $-1 $418 $417 $410 $507 forward $407 $-1 #
edge $-1 $508 38.780094984466771 $511 44.861525019313262 $506 $552 forward 7 unknown #
vertex $-1 $422 $553 #
straight-curve $-1 -63.967762120636529 0.37973923915640384 11.507686042451603 -1 0 0 I I #
edge $-1 $511 -2.2527799708053315 $419 5.998861434103187 $418 $554 forward 7 unknown #
vertex $-1 $510 $555 #
straight-curve $-1 -58.80550553910949 0.37973923915640384 5.4262560076051045 0.80901698891910034 0 0.5877852598018023 I I #
point $-1 -50.435135351921261 0.37973923915640384 11.507686042451601 #
point $-1 -58.805505539109475 -7.8719021657521147 5.4262560076051152 #
straight-curve $-1 -58.805505539109475 0 11.507686042451601 0 -1 0 I I #
vertex $-1 $425 $556 #
point $-1 -52.335499954945831 -3.7460814632978554 7.874137864124112 #
coedge $-1 $440 $439 $432 $519 forward $429 $-1 #
edge $-1 $520 38.780094984466771 $523 44.861525019313262 $518 $557 forward 7 unknown #
vertex $-1 $444 $558 #
straight-curve $-1 -63.967762120636529 18.680747475083393 11.507686042451603 -1 0 0 I I #
edge $-1 $523 -11.403284088768826 $441 -3.1516426838603078 $440 $559 forward 7 unknown #
vertex $-1 $522 $560 #
straight-curve $-1 -58.80550553910949 18.680747475083393 5.4262560076051045 0.80901698891910034 0 0.5877852598018023 I I #
point $-1 -50.435135351921261 18.680747475083393 11.507686042451601 #
point $-1 -58.805505539109475 10.429106070174875 5.4262560076051152 #
straight-curve $-1 -58.805505539109475 0 11.507686042451601 0 -1 0 I I #
vertex $-1 $447 $561 #
point $-1 -52.335499954945831 14.554926772629134 7.874137864124112 #
straight-curve $-1 -58.805505539109475 28.744652275728892 0 0 0 -1 I I #
point $-1 -58.805505539109475 -28.744652275728892 -11.507686042451601 #
straight-curve $-1 -58.805505539109475 0 -11.507686042451601 0 1 0 I I #
point $-1 -58.805505539109475 28.744652275728892 -11.507686042451601 #
coedge $-1 $473 $469 $478 $539 forward $342 $-1 #
vertex $-1 $470 $562 #
straight-curve $-1 -58.805505539109475 0 11.507686042451601 0 -1 0 I I #
point $-1 -58.805505539109475 -17.93580696639761 11.507686042451601 #
straight-curve $-1 58.805505539109475 0 11.507686042451601 0 1 0 I I #
edge $-1 $535 -58.805505539109475 $482 58.805505539109475 $478 $563 forward 7 unknown #
straight-curve $-1 -58.805505539109475 -28.744652275728892 0 0 0 -1 I I #
point $-1 58.805505539109475 -28.744652275728892 11.507686042451601 #
straight-curve $-1 58.805505539109475 -7.8719021657521147 84.852790378000151 0 0 -1 I I #
point $-1 58.805505539109475 -7.8719021657521147 11.507686042451601 #
straight-curve $-1 58.805505539109475 -1.8730407316489277 5.4262560076050974 0 1 0 I I #
point $-1 58.805505539109475 -7.8719021657521147 5.4262560076051045 #
point $-1 52.667347548621791 -3.7460814632978554 5.7789344910427332 #
straight-curve $-1 58.805505539109475 10.429106070174875 84.852790378000151 0 0 -1 I I #
point $-1 58.805505539109475 10.429106070174875 11.507686042451601 #
straight-curve $-1 58.805505539109475 7.277463386314567 5.4262560076050974 0 1 0 I I #
point $-1 58.805505539109475 10.429106070174875 5.4262560076051045 #
point $-1 52.667347548621791 14.554926772629134 5.7789344910427332 #
straight-curve $-1 -58.805505539109475 0.37973923915640384 50.287781026918374 0 0 -1 I I #
point $-1 -58.805505539109475 0.37973923915640384 11.507686042451601 #
straight-curve $-1 -58.805505539109475 -1.8730407316489277 5.4262560076051169 0 -1 0 I I #
point $-1 -58.805505539109475 0.37973923915640384 5.4262560076051152 #
point $-1 -52.667347548621777 -3.7460814632978554 5.778934491042758 #
straight-curve $-1 -58.805505539109475 18.680747475083393 50.287781026918374 0 0 -1 I I #
point $-1 -58.805505539109475 18.680747475083393 11.507686042451601 #
straight-curve $-1 -58.805505539109475 7.277463386314567 5.4262560076051169 0 -1 0 I I #
point $-1 -58.805505539109475 18.680747475083393 5.4262560076051152 #
point $-1 -52.667347548621777 14.554926772629134 5.778934491042758 #
point $-1 -58.805505539109475 -28.744652275728892 11.507686042451601 #
straight-curve $-1 0 -28.744652275728892 11.507686042451601 1 0 0 I I #
End-of-ACIS-data 