500 0 4 0           
7 Unknown 11 ACIS 5.0 NT 24 Thu Mar 25 21:08:25 1999 
-1 9.9999999999999995e-007 1e-010 
body $-1 $4 $-1 $5 #
body $-1 $6 $-1 $7 #
body $-1 $8 $-1 $9 #
body $-1 $10 $-1 $11 #
lump $-1 $-1 $12 $0 #
transform $-1 1 0 0 0 1 0 0 0 1 59.555040131839959 27.779508175391957 11.102986262648495 1 rotate no_reflect no_shear #
lump $-1 $-1 $13 $1 #
transform $-1 1 0 0 0 1 0 0 0 1 59.555040131839959 27.779508175391957 11.102986262648495 1 rotate no_reflect no_shear #
lump $-1 $-1 $14 $2 #
transform $-1 1 0 0 0 1 0 0 0 1 59.555040131839959 27.779508175391957 11.102986262648495 1 rotate no_reflect no_shear #
lump $-1 $-1 $15 $3 #
transform $-1 1 0 0 0 1 0 0 0 1 59.555040131839959 27.779508175391957 11.102986262648495 1 rotate no_reflect no_shear #
shell $-1 $-1 $-1 $16 $-1 $4 #
shell $-1 $-1 $-1 $17 $-1 $6 #
shell $-1 $-1 $-1 $18 $-1 $8 #
shell $-1 $-1 $-1 $19 $-1 $10 #
face $-1 $20 $21 $12 $-1 $22 forward single #
face $-1 $23 $24 $13 $-1 $25 reversed single #
face $-1 $26 $27 $14 $-1 $28 forward single #
face $-1 $29 $30 $15 $-1 $31 reversed single #
face $-1 $32 $33 $12 $-1 $34 reversed single #
loop $-1 $-1 $35 $16 #
plane-surface $-1 0 0 11.102986262648495 0 0 1 1 0 0 forward_v I I I I #
face $-1 $36 $37 $13 $-1 $38 forward single #
loop $-1 $-1 $39 $17 #
plane-surface $-1 -55.204819159658022 0 -6.0867060132684951 0 0 1 1 0 0 forward_v I I I I #
face $-1 $40 $41 $14 $-1 $42 forward single #
loop $-1 $-1 $43 $18 #
plane-surface $-1 91.696262712673004 19.756178964751268 165.57233200594587 0 -1 0 -0.82903758062907751 0 -0.55919289150049634 forward_v I I I I #
face $-1 $44 $45 $15 $-1 $46 reversed single #
loop $-1 $47 $48 $19 #
cone-surface $-1 54.012552016114356 14.454615201588329 4.3987331011402873 -0.82903758062907751 0 -0.55919289150049634 0.83878933725074445 0 -1.2435563709436162 1 I I 0 1 1.5 forward I I I I #
face $-1 $49 $50 $12 $-1 $51 reversed single #
loop $-1 $-1 $52 $20 #
plane-surface $-1 0 0 -11.102986262648495 0 0 1 1 0 0 forward_v I I I I #
coedge $-1 $53 $54 $55 $56 forward $21 $-1 #
face $-1 $57 $58 $13 $-1 $59 forward single #
loop $-1 $-1 $60 $23 #
plane-surface $-1 -55.204819159658022 0 -9.3699261766434265 0 0 1 1 0 0 forward_v I I I I #
coedge $-1 $61 $62 $63 $64 reversed $24 $-1 #
face $-1 $65 $66 $14 $-1 $67 forward single #
loop $-1 $-1 $68 $26 #
plane-surface $-1 -7.050470057663432 14.454615201588329 98.96682181644249 0.82903758062907751 0 0.55919289150049634 0.55919289150049634 0 -0.82903758062907751 forward_v I I I I #
coedge $-1 $69 $70 $71 $72 reversed $27 $-1 #
face $-1 $73 $74 $15 $-1 $75 forward single #
loop $-1 $76 $77 $29 #
cone-surface $-1 51.518589030843373 14.454615201588329 2.7165338792779234 -0.82903758062907751 0 -0.55919289150049634 0.41939466862537222 0 -0.62177818547180808 1 I I -0.70710678118654757 0.70710678118654757 0.75 forward I I I I #
loop $-1 $-1 $78 $19 #
coedge $-1 $48 $48 $79 $80 reversed $30 $-1 #
face $-1 $81 $82 $12 $-1 $83 reversed single #
loop $-1 $-1 $84 $32 #
plane-surface $-1 0 -27.779508175391957 0 0 1 0 0 0 1 forward_v I I I I #
coedge $-1 $85 $86 $87 $88 forward $33 $-1 #
coedge $-1 $89 $35 $90 $91 forward $21 $-1 #
coedge $-1 $35 $89 $92 $93 forward $21 $-1 #
coedge $-1 $94 $95 $35 $56 reversed $96 $-1 #
edge $-1 $97 -27.779508175391957 $98 27.779508175391957 $55 $99 forward 7 unknown #
face $-1 $100 $101 $13 $-1 $102 reversed single #
loop $-1 $-1 $103 $36 #
plane-surface $-1 -50.854598187476086 0 -7.7283160949559608 -1 0 0 0 0 1 forward_v I I I I #
coedge $-1 $104 $105 $106 $107 reversed $37 $-1 #
coedge $-1 $108 $39 $109 $110 reversed $24 $-1 #
coedge $-1 $39 $108 $111 $112 reversed $24 $-1 #
coedge $-1 $113 $103 $39 $64 forward $58 $-1 #
edge $-1 $114 -27.779508175391957 $115 27.779508175391957 $63 $116 forward 7 unknown #
face $-1 $117 $118 $14 $-1 $119 forward single #
loop $-1 $-1 $120 $40 #
plane-surface $-1 91.696262712673004 9.1530514384253898 165.57233200594587 0 1 0 0.82903758062907751 0 0.55919289150049634 forward_v I I I I #
coedge $-1 $121 $122 $123 $124 reversed $41 $-1 #
coedge $-1 $70 $43 $122 $125 forward $27 $-1 #
coedge $-1 $43 $69 $126 $127 reversed $27 $-1 #
coedge $-1 $128 $123 $43 $72 forward $118 $-1 #
edge $-1 $129 6.3663021436505645 $130 13.706908775503457 $71 $131 forward 7 unknown #
face $-1 $132 $133 $15 $-1 $134 forward single #
loop $-1 $-1 $135 $44 #
plane-surface $-1 91.696262712673004 19.756178964751268 165.57233200594587 0 -1 0 -0.82903758062907751 0 -0.55919289150049634 forward_v I I I I #
loop $-1 $-1 $136 $29 #
coedge $-1 $77 $77 $78 $137 forward $45 $-1 #
coedge $-1 $78 $78 $77 $137 reversed $47 $-1 #
coedge $-1 $79 $79 $48 $80 forward $133 $-1 #
edge $-1 $138 0 $138 6.2831853071796004 $79 $139 forward 7 unknown #
face $-1 $140 $141 $12 $-1 $142 reversed single #
loop $-1 $-1 $143 $49 #
plane-surface $-1 -59.555040131839959 0 0 1 0 0 0 0 -1 forward_v I I I I #
coedge $-1 $144 $92 $145 $146 forward $50 $-1 #
coedge $-1 $147 $52 $144 $148 forward $33 $-1 #
coedge $-1 $52 $147 $149 $150 forward $33 $-1 #
coedge $-1 $95 $94 $52 $88 reversed $96 $-1 #
edge $-1 $151 -27.779508175391957 $152 27.779508175391957 $87 $153 forward 7 unknown #
coedge $-1 $54 $53 $154 $155 forward $21 $-1 #
coedge $-1 $156 $157 $53 $91 reversed $141 $-1 #
edge $-1 $98 -59.555040131839959 $158 59.555040131839959 $90 $159 forward 7 unknown #
coedge $-1 $84 $160 $54 $93 reversed $50 $-1 #
edge $-1 $161 -59.555040131839959 $97 59.555040131839959 $92 $162 forward 7 unknown #
coedge $-1 $87 $55 $160 $163 forward $96 $-1 #
coedge $-1 $55 $87 $156 $164 reversed $96 $-1 #
loop $-1 $-1 $94 $140 #
vertex $-1 $56 $165 #
vertex $-1 $56 $166 #
straight-curve $-1 59.555040131839959 0 11.102986262648495 0 1 0 I I #
face $-1 $167 $168 $13 $-1 $102 reversed single #
loop $-1 $-1 $169 $57 #
plane-surface $-1 -59.555040131839959 0 0 1 0 0 0 0 -1 forward_v I I I I #
coedge $-1 $63 $106 $170 $171 reversed $58 $-1 #
coedge $-1 $172 $60 $173 $174 reversed $37 $-1 #
coedge $-1 $60 $172 $175 $176 reversed $37 $-1 #
coedge $-1 $103 $113 $60 $107 forward $58 $-1 #
edge $-1 $177 -27.779508175391957 $178 27.779508175391957 $106 $179 forward 7 unknown #
coedge $-1 $62 $61 $180 $181 reversed $24 $-1 #
coedge $-1 $170 $182 $61 $110 forward $183 $-1 #
edge $-1 $184 -31.952630552010948 $114 -23.252188607647074 $109 $185 forward 7 unknown #
coedge $-1 $186 $187 $62 $112 forward $188 $-1 #
edge $-1 $115 23.252188607647074 $189 31.952630552010948 $111 $190 forward 7 unknown #
coedge $-1 $106 $63 $187 $191 reversed $58 $-1 #
vertex $-1 $110 $192 #
vertex $-1 $112 $193 #
straight-curve $-1 -50.854598187476086 0 -6.0867060132684951 0 1 0 I I #
face $-1 $194 $195 $14 $-1 $196 reversed single #
loop $-1 $-1 $197 $65 #
plane-surface $-1 0 0 11.102986262648495 0 0 1 1 0 0 forward_v I I I I #
coedge $-1 $198 $199 $197 $200 reversed $66 $-1 #
coedge $-1 $201 $68 $199 $202 reversed $41 $-1 #
coedge $-1 $68 $201 $69 $125 reversed $41 $-1 #
coedge $-1 $71 $197 $68 $124 forward $118 $-1 #
edge $-1 $203 1.9257438376312255 $129 12.528871363957103 $123 $204 forward 7 unknown #
edge $-1 $129 105.98293443720912 $205 119.11008026367996 $69 $206 forward 7 unknown #
coedge $-1 $207 $208 $70 $127 forward $209 $-1 #
edge $-1 $130 71.683179740324434 $205 82.566076956866908 $126 $210 forward 7 unknown #
coedge $-1 $211 $71 $208 $212 forward $118 $-1 #
vertex $-1 $124 $213 #
vertex $-1 $212 $214 #
straight-curve $-1 45.848131356336502 19.756178964751268 11.1029862626485 1 0 0 I I #
face $-1 $215 $216 $15 $-1 $217 forward single #
loop $-1 $218 $79 $73 #
plane-surface $-1 -7.050470057663432 14.454615201588329 98.96682181644249 0.82903758062907751 0 0.55919289150049634 0.55919289150049634 0 -0.82903758062907751 forward_v I I I I #
coedge $-1 $219 $220 $221 $222 reversed $74 $-1 #
coedge $-1 $136 $136 $-1 $223 forward $76 $-1 #
edge $-1 $224 0 $224 6.2831853071796004 $77 $225 forward 7 unknown #
vertex $-1 $80 $226 #
ellipse-curve $-1 55.884736815913513 14.454615201588329 5.6615376543772662 -0.82903758062907751 0 -0.55919289150049634 0.83878933725074445 0 -1.2435563709436162 1 I I #
face $-1 $-1 $96 $12 $-1 $227 reversed single #
loop $-1 $-1 $156 $81 #
plane-surface $-1 0 27.779508175391957 0 0 -1 0 0 0 -1 forward_v I I I I #
coedge $-1 $228 $154 $157 $229 forward $82 $-1 #
coedge $-1 $160 $84 $85 $148 reversed $50 $-1 #
coedge $-1 $154 $228 $84 $146 reversed $82 $-1 #
edge $-1 $161 -11.102986262648495 $230 11.102986262648495 $145 $231 forward 7 unknown #
coedge $-1 $86 $85 $228 $232 forward $33 $-1 #
edge $-1 $152 -59.555040131839959 $230 59.555040131839959 $144 $233 forward 7 unknown #
coedge $-1 $157 $156 $86 $150 reversed $141 $-1 #
edge $-1 $234 -59.555040131839959 $151 59.555040131839959 $149 $235 forward 7 unknown #
vertex $-1 $88 $236 #
vertex $-1 $163 $237 #
straight-curve $-1 59.555040131839959 0 -11.102986262648495 0 -1 0 I I #
coedge $-1 $143 $145 $89 $155 reversed $82 $-1 #
edge $-1 $158 -27.779508175391957 $161 27.779508175391957 $154 $238 forward 7 unknown #
coedge $-1 $149 $90 $95 $164 forward $141 $-1 #
coedge $-1 $90 $149 $143 $229 reversed $141 $-1 #
vertex $-1 $91 $239 #
straight-curve $-1 0 27.779508175391957 11.102986262648495 -1 0 0 I I #
coedge $-1 $92 $144 $94 $163 reversed $50 $-1 #
vertex $-1 $155 $240 #
straight-curve $-1 0 -27.779508175391957 11.102986262648495 1 0 0 I I #
edge $-1 $97 -11.102986262648495 $152 11.102986262648495 $94 $241 forward 7 unknown #
edge $-1 $98 -11.102986262648495 $151 11.102986262648495 $95 $242 forward 7 unknown #
point $-1 59.555040131839959 -27.779508175391957 11.102986262648495 #
point $-1 59.555040131839959 27.779508175391957 11.102986262648495 #
face $-1 $243 $183 $13 $-1 $244 reversed single #
loop $-1 $-1 $180 $100 #
coedge $-1 $245 $246 $172 $247 forward $101 $-1 #
coedge $-1 $175 $109 $103 $171 forward $183 $-1 #
edge $-1 $114 2.2225479657905147 $178 5.5057681291654461 $170 $248 forward 7 unknown #
coedge $-1 $105 $104 $169 $247 reversed $37 $-1 #
coedge $-1 $187 $249 $104 $174 forward $188 $-1 #
edge $-1 $250 -31.952630552010948 $177 -23.252188607647074 $173 $251 forward 7 unknown #
coedge $-1 $252 $170 $105 $176 forward $183 $-1 #
edge $-1 $178 23.252188607647074 $253 31.952630552010948 $175 $254 forward 7 unknown #
vertex $-1 $174 $255 #
vertex $-1 $176 $256 #
straight-curve $-1 -50.854598187476086 0 -9.3699261766434265 0 -1 0 I I #
coedge $-1 $257 $258 $108 $181 forward $168 $-1 #
edge $-1 $189 -27.779508175391957 $184 27.779508175391957 $180 $259 forward 7 unknown #
coedge $-1 $109 $260 $257 $261 forward $183 $-1 #
loop $-1 $-1 $109 $167 #
vertex $-1 $110 $262 #
straight-curve $-1 -27.602409579829011 -27.779508175391957 -6.0867060132684951 1 0 0 I I #
coedge $-1 $263 $111 $258 $264 reversed $188 $-1 #
coedge $-1 $111 $173 $113 $191 forward $188 $-1 #
loop $-1 $-1 $111 $265 #
vertex $-1 $181 $266 #
straight-curve $-1 -27.602409579829011 27.779508175391957 -6.0867060132684951 -1 0 0 I I #
edge $-1 $177 -5.5057681291654461 $115 -2.2225479657905147 $187 $267 forward 7 unknown #
point $-1 -50.854598187476086 -27.779508175391957 -6.0867060132684951 #
point $-1 -50.854598187476086 27.779508175391957 -6.0867060132684951 #
face $-1 $268 $269 $14 $-1 $270 forward single #
loop $-1 $-1 $271 $117 #
plane-surface $-1 -55.204819159658022 0 -6.0867060132684951 0 0 1 1 0 0 forward_v I I I I #
coedge $-1 $123 $272 $120 $200 forward $118 $-1 #
coedge $-1 $199 $120 $273 $274 reversed $66 $-1 #
coedge $-1 $120 $198 $121 $202 forward $66 $-1 #
edge $-1 $275 -13.706908775503457 $203 -6.3663021436505645 $197 $276 forward 7 unknown #
coedge $-1 $122 $121 $207 $277 reversed $41 $-1 #
edge $-1 $278 -119.11008026367996 $203 -105.98293443720912 $199 $279 forward 7 unknown #
vertex $-1 $124 $280 #
straight-curve $-1 52.214433499987067 7.2273076007941643 11.102986262648493 0 1 0 I I #
vertex $-1 $277 $281 #
straight-curve $-1 -7.050470057663432 19.756178964751268 98.96682181644249 0.55919289150049634 0 -0.82903758062907751 I I #
coedge $-1 $273 $126 $201 $277 forward $209 $-1 #
coedge $-1 $126 $282 $128 $212 reversed $209 $-1 #
loop $-1 $-1 $273 $283 #
straight-curve $-1 59.555040131839959 19.756178964751268 82.786166002972934 0 0 -1 I I #
coedge $-1 $284 $128 $285 $286 forward $118 $-1 #
edge $-1 $130 19.756178964751268 $287 27.779508175391957 $208 $288 forward 7 unknown #
point $-1 52.214433499987067 19.756178964751268 11.1029862626485 #
point $-1 59.555040131839959 19.756178964751268 11.102986262648495 #
face $-1 $289 $290 $15 $-1 $291 forward single #
loop $-1 $-1 $292 $132 #
plane-surface $-1 91.696262712673004 9.1530514384253898 165.57233200594587 0 1 0 0.82903758062907751 0 0.55919289150049634 forward_v I I I I #
loop $-1 $-1 $293 $73 #
coedge $-1 $220 $135 $294 $295 forward $74 $-1 #
coedge $-1 $135 $219 $296 $297 reversed $74 $-1 #
coedge $-1 $298 $299 $135 $222 forward $290 $-1 #
edge $-1 $300 6.3663021436505645 $301 13.706908775503457 $221 $302 forward 7 unknown #
edge $-1 $303 1 $303 0 $136 $-1 forward 7 unknown #
vertex $-1 $137 $304 #
ellipse-curve $-1 52.140367216315184 14.454615201588329 3.1359285479032959 0.82903758062907751 0 0.55919289150049634 0.83878933725074445 0 -1.2435563709436162 1 I I #
point $-1 56.723526153164272 14.454615201588329 4.4179812834336616 #
plane-surface $-1 59.555040131839959 0 0 -1 0 0 0 0 1 forward_v I I I I #
coedge $-1 $145 $143 $147 $232 reversed $82 $-1 #
edge $-1 $158 -11.102986262648495 $234 11.102986262648495 $157 $305 forward 7 unknown #
vertex $-1 $232 $306 #
straight-curve $-1 -59.555040131839959 -27.779508175391957 0 0 0 -1 I I #
edge $-1 $230 -27.779508175391957 $234 27.779508175391957 $228 $307 forward 7 unknown #
straight-curve $-1 0 -27.779508175391957 -11.102986262648495 -1 0 0 I I #
vertex $-1 $150 $308 #
straight-curve $-1 0 27.779508175391957 -11.102986262648495 1 0 0 I I #
point $-1 59.555040131839959 27.779508175391957 -11.102986262648495 #
point $-1 59.555040131839959 -27.779508175391957 -11.102986262648495 #
straight-curve $-1 -59.555040131839959 0 11.102986262648495 0 -1 0 I I #
point $-1 -59.555040131839959 27.779508175391957 11.102986262648495 #
point $-1 -59.555040131839959 -27.779508175391957 11.102986262648495 #
straight-curve $-1 59.555040131839959 -27.779508175391957 0 0 0 -1 I I #
straight-curve $-1 59.555040131839959 27.779508175391957 0 0 0 -1 I I #
face $-1 $309 $310 $13 $-1 $311 forward single #
plane-surface $-1 0 -27.779508175391957 0 0 1 0 0 0 1 forward_v I I I I #
coedge $-1 $312 $169 $249 $313 forward $101 $-1 #
coedge $-1 $169 $312 $252 $314 reversed $101 $-1 #
edge $-1 $253 -27.779508175391957 $250 27.779508175391957 $169 $315 forward 7 unknown #
straight-curve $-1 -50.854598187476086 -27.779508175391957 -3.8641580474779804 0 0 -1 I I #
coedge $-1 $173 $316 $245 $313 reversed $188 $-1 #
vertex $-1 $313 $317 #
straight-curve $-1 -27.602409579829011 27.779508175391957 -9.3699261766434265 1 0 0 I I #
coedge $-1 $318 $175 $246 $314 forward $183 $-1 #
vertex $-1 $314 $319 #
straight-curve $-1 -27.602409579829011 -27.779508175391957 -9.3699261766434265 -1 0 0 I I #
point $-1 -50.854598187476086 27.779508175391957 -9.3699261766434265 #
point $-1 -50.854598187476086 -27.779508175391957 -9.3699261766434265 #
coedge $-1 $320 $180 $182 $261 reversed $168 $-1 #
coedge $-1 $180 $320 $186 $264 forward $168 $-1 #
straight-curve $-1 -59.555040131839959 0 -6.0867060132684951 0 -1 0 I I #
coedge $-1 $182 $321 $322 $323 reversed $183 $-1 #
edge $-1 $324 -11.102986262648495 $184 6.0867060132684951 $257 $325 forward 7 unknown #
point $-1 -59.555040131839959 -27.779508175391957 -6.0867060132684951 #
coedge $-1 $326 $186 $327 $328 reversed $188 $-1 #
edge $-1 $329 -11.102986262648495 $189 6.0867060132684951 $186 $330 forward 7 unknown #
face $-1 $331 $188 $13 $-1 $332 reversed single #
point $-1 -59.555040131839959 27.779508175391957 -6.0867060132684951 #
straight-curve $-1 -50.854598187476086 27.779508175391957 -3.8641580474779804 0 0 1 I I #
face $-1 $333 $334 $14 $-1 $335 forward single #
loop $-1 $-1 $336 $194 #
plane-surface $-1 -55.204819159658022 0 -9.3699261766434265 0 0 1 1 0 0 forward_v I I I I #
coedge $-1 $337 $338 $339 $340 reversed $195 $-1 #
coedge $-1 $197 $341 $342 $343 forward $118 $-1 #
coedge $-1 $342 $207 $198 $274 forward $209 $-1 #
edge $-1 $278 -82.566076956866908 $275 -71.683179740324434 $273 $344 forward 7 unknown #
vertex $-1 $274 $345 #
straight-curve $-1 45.848131356336502 9.1530514384253898 11.1029862626485 -1 0 0 I I #
edge $-1 $205 -12.528871363957103 $278 -1.9257438376312255 $207 $346 forward 7 unknown #
vertex $-1 $277 $347 #
straight-curve $-1 -7.050470057663432 9.1530514384253898 98.96682181644249 -0.55919289150049634 0 0.82903758062907751 I I #
point $-1 52.214433499987067 9.1530514384253898 11.1029862626485 #
point $-1 59.555040131839959 19.756178964751268 0.22008904610602542 #
coedge $-1 $208 $348 $349 $350 reversed $209 $-1 #
face $-1 $-1 $209 $14 $-1 $351 reversed single #
coedge $-1 $341 $211 $352 $353 forward $118 $-1 #
coedge $-1 $349 $354 $211 $286 reversed $355 $-1 #
edge $-1 $287 -59.555040131839959 $356 59.555040131839959 $285 $357 forward 7 unknown #
vertex $-1 $212 $358 #
straight-curve $-1 59.555040131839959 0 11.102986262648495 0 1 0 I I #
face $-1 $359 $360 $15 $-1 $361 reversed single #
loop $-1 $-1 $362 $215 #
plane-surface $-1 0 0 11.102986262648495 0 0 1 1 0 0 forward_v I I I I #
coedge $-1 $363 $364 $362 $365 reversed $216 $-1 #
coedge $-1 $366 $294 $299 $367 reversed $218 $-1 #
coedge $-1 $293 $368 $219 $295 reversed $218 $-1 #
edge $-1 $300 105.98293443720912 $369 119.11008026367996 $219 $370 forward 7 unknown #
coedge $-1 $371 $372 $220 $297 forward $373 $-1 #
edge $-1 $301 71.683179740324434 $369 82.566076956866908 $296 $374 forward 7 unknown #
coedge $-1 $375 $221 $372 $376 forward $290 $-1 #
coedge $-1 $221 $362 $293 $367 forward $290 $-1 #
vertex $-1 $367 $377 #
vertex $-1 $376 $378 #
straight-curve $-1 45.848131356336502 19.756178964751268 11.1029862626485 1 0 0 I I #
vertex $-1 $223 $379 #
point $-1 52.979156553565929 14.454615201588329 1.8923721769596795 #
straight-curve $-1 -59.555040131839959 27.779508175391957 0 0 0 -1 I I #
point $-1 -59.555040131839959 -27.779508175391957 -11.102986262648495 #
straight-curve $-1 -59.555040131839959 0 -11.102986262648495 0 1 0 I I #
point $-1 -59.555040131839959 27.779508175391957 -11.102986262648495 #
face $-1 $265 $380 $13 $-1 $381 reversed single #
loop $-1 $-1 $382 $243 #
plane-surface $-1 0 0 11.102986262648495 0 0 1 1 0 0 forward_v I I I I #
coedge $-1 $246 $245 $383 $384 reversed $101 $-1 #
edge $-1 $250 9.3699261766434265 $385 11.102986262648495 $249 $330 forward 7 unknown #
edge $-1 $253 9.3699261766434265 $386 11.102986262648495 $246 $325 forward 7 unknown #
straight-curve $-1 -59.555040131839959 0 -9.3699261766434265 0 1 0 I I #
coedge $-1 $249 $326 $387 $388 reversed $188 $-1 #
point $-1 -59.555040131839959 27.779508175391957 -9.3699261766434265 #
coedge $-1 $321 $252 $389 $390 reversed $183 $-1 #
point $-1 -59.555040131839959 -27.779508175391957 -9.3699261766434265 #
coedge $-1 $258 $257 $391 $392 reversed $168 $-1 #
coedge $-1 $260 $318 $393 $394 reversed $183 $-1 #
coedge $-1 $382 $391 $260 $323 forward $310 $-1 #
edge $-1 $324 -59.555040131839959 $395 59.555040131839959 $260 $396 forward 7 unknown #
vertex $-1 $392 $397 #
straight-curve $-1 -59.555040131839959 -27.779508175391957 0 0 0 -1 I I #
coedge $-1 $316 $263 $398 $399 forward $188 $-1 #
coedge $-1 $391 $382 $263 $328 forward $310 $-1 #
edge $-1 $400 -59.555040131839959 $329 59.555040131839959 $263 $401 forward 7 unknown #
vertex $-1 $328 $402 #
straight-curve $-1 -59.555040131839959 27.779508175391957 0 0 0 -1 I I #
face $-1 $-1 $403 $13 $-1 $404 reversed single #
plane-surface $-1 0 27.779508175391957 0 0 -1 0 0 0 -1 forward_v I I I I #
face $-1 $405 $406 $14 $-1 $407 reversed single #
loop $-1 $-1 $408 $268 #
plane-surface $-1 -50.854598187476086 0 -7.7283160949559608 -1 0 0 0 0 1 forward_v I I I I #
coedge $-1 $409 $410 $411 $412 reversed $269 $-1 #
coedge $-1 $413 $271 $414 $415 reversed $195 $-1 #
coedge $-1 $271 $413 $416 $417 reversed $195 $-1 #
coedge $-1 $418 $408 $271 $340 forward $334 $-1 #
edge $-1 $419 -27.779508175391957 $420 27.779508175391957 $339 $421 forward 7 unknown #
coedge $-1 $272 $284 $422 $423 forward $118 $-1 #
coedge $-1 $424 $273 $272 $343 reversed $209 $-1 #
edge $-1 $425 -27.779508175391957 $275 9.1530514384253898 $342 $288 forward 7 unknown #
straight-curve $-1 59.555040131839959 9.1530514384253898 82.786166002972934 0 0 1 I I #
point $-1 59.555040131839959 9.1530514384253898 11.102986262648495 #
straight-curve $-1 59.555040131839974 7.2273076007941643 0.22008904610601832 0 -1 0 I I #
point $-1 59.555040131839959 9.1530514384253898 0.22008904610602542 #
coedge $-1 $282 $424 $426 $427 reversed $209 $-1 #
coedge $-1 $428 $285 $282 $350 forward $355 $-1 #
edge $-1 $287 -11.102986262648495 $429 11.102986262648495 $282 $430 forward 7 unknown #
plane-surface $-1 59.555040131839959 0 0 -1 0 0 0 0 1 forward_v I I I I #
coedge $-1 $431 $432 $284 $353 reversed $433 $-1 #
edge $-1 $356 -27.779508175391957 $434 27.779508175391957 $352 $435 forward 7 unknown #
coedge $-1 $285 $416 $431 $436 reversed $355 $-1 #
loop $-1 $-1 $416 $437 #
vertex $-1 $286 $438 #
straight-curve $-1 0 27.779508175391957 11.102986262648495 -1 0 0 I I #
point $-1 59.555040131839959 27.779508175391957 11.102986262648495 #
face $-1 $439 $440 $15 $-1 $441 forward single #
loop $-1 $-1 $442 $289 #
plane-surface $-1 -55.204819159658022 0 -6.0867060132684951 0 0 1 1 0 0 forward_v I I I I #
coedge $-1 $299 $443 $292 $365 forward $290 $-1 #
coedge $-1 $364 $292 $444 $445 reversed $216 $-1 #
coedge $-1 $292 $363 $366 $446 forward $216 $-1 #
edge $-1 $447 -13.706908775503457 $448 -6.3663021436505645 $362 $449 forward 7 unknown #
coedge $-1 $368 $293 $364 $446 reversed $218 $-1 #
edge $-1 $448 1.9257438376312255 $300 12.528871363957103 $299 $450 forward 7 unknown #
coedge $-1 $294 $366 $371 $451 reversed $218 $-1 #
vertex $-1 $451 $452 #
straight-curve $-1 -7.050470057663432 19.756178964751268 98.96682181644249 0.55919289150049634 0 -0.82903758062907751 I I #
coedge $-1 $444 $296 $368 $451 forward $373 $-1 #
coedge $-1 $296 $453 $298 $376 reversed $373 $-1 #
loop $-1 $-1 $444 $454 #
straight-curve $-1 59.555040131839959 19.756178964751268 82.786166002972934 0 0 -1 I I #
coedge $-1 $455 $298 $456 $457 forward $290 $-1 #
edge $-1 $301 19.756178964751268 $458 27.779508175391957 $372 $459 forward 7 unknown #
point $-1 52.214433499987067 19.756178964751268 11.1029862626485 #
point $-1 59.555040131839959 19.756178964751268 11.102986262648495 #
point $-1 50.896810845371562 14.454615201588329 2.297139210652551 #
loop $-1 $-1 $460 $309 #
plane-surface $-1 0 0 -11.102986262648495 0 0 1 1 0 0 forward_v I I I I #
coedge $-1 $327 $322 $461 $462 forward $310 $-1 #
coedge $-1 $387 $389 $312 $384 forward $380 $-1 #
edge $-1 $386 -27.779508175391957 $385 27.779508175391957 $312 $463 forward 7 unknown #
vertex $-1 $388 $464 #
vertex $-1 $384 $465 #
coedge $-1 $460 $383 $316 $388 forward $380 $-1 #
edge $-1 $385 -59.555040131839959 $466 59.555040131839959 $316 $467 forward 7 unknown #
coedge $-1 $383 $460 $318 $390 forward $380 $-1 #
edge $-1 $468 -59.555040131839959 $386 59.555040131839959 $318 $469 forward 7 unknown #
coedge $-1 $322 $327 $320 $392 forward $310 $-1 #
edge $-1 $329 -27.779508175391957 $324 27.779508175391957 $320 $470 forward 7 unknown #
coedge $-1 $471 $461 $321 $394 forward $403 $-1 #
edge $-1 $395 -11.102986262648495 $468 11.102986262648495 $393 $472 forward 7 unknown #
vertex $-1 $462 $473 #
straight-curve $-1 0 -27.779508175391957 11.102986262648495 1 0 0 I I #
point $-1 -59.555040131839959 -27.779508175391957 11.102986262648495 #
coedge $-1 $461 $471 $326 $399 reversed $403 $-1 #
edge $-1 $400 -11.102986262648495 $466 11.102986262648495 $398 $474 forward 7 unknown #
vertex $-1 $462 $475 #
straight-curve $-1 0 27.779508175391957 11.102986262648495 -1 0 0 I I #
point $-1 -59.555040131839959 27.779508175391957 11.102986262648495 #
loop $-1 $-1 $393 $331 #
plane-surface $-1 59.555040131839959 0 0 -1 0 0 0 0 1 forward_v I I I I #
face $-1 $476 $433 $14 $-1 $407 reversed single #
loop $-1 $-1 $477 $333 #
plane-surface $-1 -59.555040131839959 0 0 1 0 0 0 0 -1 forward_v I I I I #
coedge $-1 $339 $411 $478 $479 reversed $334 $-1 #
coedge $-1 $480 $336 $481 $482 reversed $269 $-1 #
coedge $-1 $336 $480 $483 $484 reversed $269 $-1 #
coedge $-1 $408 $418 $336 $412 forward $334 $-1 #
edge $-1 $485 -27.779508175391957 $486 27.779508175391957 $411 $487 forward 7 unknown #
coedge $-1 $338 $337 $488 $489 reversed $195 $-1 #
coedge $-1 $478 $490 $337 $415 forward $491 $-1 #
edge $-1 $492 -31.952630552010948 $419 -23.252188607647074 $414 $493 forward 7 unknown #
coedge $-1 $354 $494 $338 $417 forward $355 $-1 #
edge $-1 $420 23.252188607647074 $495 31.952630552010948 $416 $496 forward 7 unknown #
coedge $-1 $411 $339 $494 $497 reversed $334 $-1 #
vertex $-1 $415 $498 #
vertex $-1 $417 $499 #
straight-curve $-1 -50.854598187476086 0 -6.0867060132684951 0 1 0 I I #
coedge $-1 $490 $500 $341 $423 reversed $491 $-1 #
edge $-1 $434 -59.555040131839959 $425 59.555040131839959 $422 $501 forward 7 unknown #
coedge $-1 $348 $342 $500 $502 forward $209 $-1 #
vertex $-1 $343 $503 #
coedge $-1 $504 $505 $348 $427 forward $506 $-1 #
edge $-1 $429 -27.779508175391957 $507 27.779508175391957 $348 $508 forward 7 unknown #
coedge $-1 $509 $349 $505 $510 reversed $355 $-1 #
vertex $-1 $427 $511 #
straight-curve $-1 59.555040131839959 27.779508175391957 0 0 0 -1 I I #
coedge $-1 $488 $352 $354 $436 forward $433 $-1 #
coedge $-1 $352 $488 $490 $512 reversed $433 $-1 #
loop $-1 $-1 $488 $405 #
vertex $-1 $353 $513 #
straight-curve $-1 -59.555040131839959 0 11.102986262648495 0 -1 0 I I #
edge $-1 $356 -11.102986262648495 $495 6.0867060132684951 $354 $514 forward 7 unknown #
face $-1 $283 $355 $14 $-1 $515 reversed single #
point $-1 -59.555040131839959 27.779508175391957 11.102986262648495 #
face $-1 $516 $517 $15 $-1 $518 forward single #
loop $-1 $-1 $519 $359 #
plane-surface $-1 -55.204819159658022 0 -9.3699261766434265 0 0 1 1 0 0 forward_v I I I I #
coedge $-1 $520 $521 $522 $523 reversed $360 $-1 #
coedge $-1 $362 $524 $525 $526 forward $290 $-1 #
coedge $-1 $525 $371 $363 $445 forward $373 $-1 #
edge $-1 $527 -82.566076956866908 $447 -71.683179740324434 $444 $528 forward 7 unknown #
edge $-1 $527 -119.11008026367996 $448 -105.98293443720912 $364 $529 forward 7 unknown #
vertex $-1 $445 $530 #
vertex $-1 $367 $531 #
straight-curve $-1 45.848131356336502 9.1530514384253898 11.1029862626485 -1 0 0 I I #
straight-curve $-1 52.214433499987067 7.2273076007941643 11.102986262648493 0 1 0 I I #
edge $-1 $369 -12.528871363957103 $527 -1.9257438376312255 $371 $532 forward 7 unknown #
point $-1 59.555040131839959 19.756178964751268 0.22008904610602542 #
coedge $-1 $372 $533 $534 $535 reversed $373 $-1 #
face $-1 $-1 $373 $15 $-1 $536 reversed single #
coedge $-1 $524 $375 $537 $538 forward $290 $-1 #
coedge $-1 $534 $539 $375 $457 reversed $540 $-1 #
edge $-1 $458 -59.555040131839959 $541 59.555040131839959 $456 $542 forward 7 unknown #
vertex $-1 $376 $543 #
straight-curve $-1 59.555040131839959 0 11.102986262648495 0 1 0 I I #
coedge $-1 $389 $387 $471 $544 forward $380 $-1 #
coedge $-1 $393 $398 $382 $462 reversed $403 $-1 #
edge $-1 $395 -27.779508175391957 $400 27.779508175391957 $461 $545 forward 7 unknown #
straight-curve $-1 -59.555040131839959 0 -11.102986262648495 0 1 0 I I #
point $-1 -59.555040131839959 27.779508175391957 -11.102986262648495 #
point $-1 -59.555040131839959 -27.779508175391957 -11.102986262648495 #
vertex $-1 $544 $546 #
straight-curve $-1 0 27.779508175391957 -11.102986262648495 1 0 0 I I #
vertex $-1 $394 $547 #
straight-curve $-1 0 -27.779508175391957 -11.102986262648495 -1 0 0 I I #
straight-curve $-1 -59.555040131839959 0 11.102986262648495 0 -1 0 I I #
coedge $-1 $398 $393 $460 $544 reversed $403 $-1 #
straight-curve $-1 59.555040131839959 -27.779508175391957 0 0 0 -1 I I #
point $-1 59.555040131839959 -27.779508175391957 11.102986262648495 #
straight-curve $-1 59.555040131839959 27.779508175391957 0 0 0 -1 I I #
point $-1 59.555040131839959 27.779508175391957 11.102986262648495 #
face $-1 $548 $491 $14 $-1 $549 reversed single #
coedge $-1 $550 $551 $480 $552 forward $406 $-1 #
coedge $-1 $483 $414 $408 $479 forward $491 $-1 #
edge $-1 $419 2.2225479657905147 $486 5.5057681291654461 $478 $553 forward 7 unknown #
coedge $-1 $410 $409 $477 $552 reversed $269 $-1 #
coedge $-1 $494 $509 $409 $482 forward $355 $-1 #
edge $-1 $554 -31.952630552010948 $485 -23.252188607647074 $481 $555 forward 7 unknown #
coedge $-1 $556 $478 $410 $484 forward $491 $-1 #
edge $-1 $486 23.252188607647074 $557 31.952630552010948 $483 $558 forward 7 unknown #
vertex $-1 $482 $559 #
vertex $-1 $484 $560 #
straight-curve $-1 -50.854598187476086 0 -9.3699261766434265 0 -1 0 I I #
coedge $-1 $432 $431 $413 $489 forward $433 $-1 #
edge $-1 $495 -27.779508175391957 $492 27.779508175391957 $488 $561 forward 7 unknown #
coedge $-1 $414 $422 $432 $512 forward $491 $-1 #
loop $-1 $-1 $414 $476 #
vertex $-1 $415 $562 #
straight-curve $-1 -27.602409579829011 -27.779508175391957 -6.0867060132684951 1 0 0 I I #
coedge $-1 $416 $481 $418 $497 forward $355 $-1 #
vertex $-1 $489 $563 #
straight-curve $-1 -27.602409579829011 27.779508175391957 -6.0867060132684951 -1 0 0 I I #
edge $-1 $485 -5.5057681291654461 $420 -2.2225479657905147 $494 $564 forward 7 unknown #
point $-1 -50.854598187476086 -27.779508175391957 -6.0867060132684951 #
point $-1 -50.854598187476086 27.779508175391957 -6.0867060132684951 #
coedge $-1 $422 $565 $424 $502 reversed $491 $-1 #
straight-curve $-1 0 -27.779508175391957 11.102986262648495 1 0 0 I I #
edge $-1 $425 -11.102986262648495 $507 11.102986262648495 $424 $566 forward 7 unknown #
point $-1 59.555040131839959 -27.779508175391957 11.102986262648495 #
coedge $-1 $567 $426 $565 $568 forward $506 $-1 #
coedge $-1 $426 $567 $428 $510 forward $506 $-1 #
loop $-1 $-1 $426 $548 #
vertex $-1 $502 $569 #
straight-curve $-1 59.555040131839959 0 -11.102986262648495 0 -1 0 I I #
coedge $-1 $481 $428 $550 $570 reversed $355 $-1 #
edge $-1 $571 -59.555040131839959 $429 59.555040131839959 $428 $572 forward 7 unknown #
point $-1 59.555040131839959 27.779508175391957 -11.102986262648495 #
edge $-1 $434 -11.102986262648495 $492 6.0867060132684951 $432 $573 forward 7 unknown #
point $-1 -59.555040131839959 -27.779508175391957 11.102986262648495 #
straight-curve $-1 -59.555040131839959 27.779508175391957 0 0 0 -1 I I #
plane-surface $-1 0 27.779508175391957 0 0 -1 0 0 0 -1 forward_v I I I I #
face $-1 $574 $575 $15 $-1 $576 reversed single #
loop $-1 $-1 $577 $439 #
plane-surface $-1 -50.854598187476086 0 -7.7283160949559608 -1 0 0 0 0 1 forward_v I I I I #
coedge $-1 $578 $579 $580 $581 reversed $440 $-1 #
coedge $-1 $582 $442 $583 $584 reversed $360 $-1 #
coedge $-1 $442 $582 $585 $586 reversed $360 $-1 #
coedge $-1 $587 $577 $442 $523 forward $517 $-1 #
edge $-1 $588 -27.779508175391957 $589 27.779508175391957 $522 $590 forward 7 unknown #
coedge $-1 $443 $455 $591 $592 forward $290 $-1 #
coedge $-1 $593 $444 $443 $526 reversed $373 $-1 #
edge $-1 $594 -27.779508175391957 $447 9.1530514384253898 $525 $459 forward 7 unknown #
vertex $-1 $451 $595 #
straight-curve $-1 59.555040131839959 9.1530514384253898 82.786166002972934 0 0 1 I I #
straight-curve $-1 -7.050470057663432 9.1530514384253898 98.96682181644249 -0.55919289150049634 0 0.82903758062907751 I I #
point $-1 59.555040131839959 9.1530514384253898 11.102986262648495 #
point $-1 52.214433499987067 9.1530514384253898 11.1029862626485 #
straight-curve $-1 59.555040131839974 7.2273076007941643 0.22008904610601832 0 -1 0 I I #
coedge $-1 $453 $593 $596 $597 reversed $373 $-1 #
coedge $-1 $598 $456 $453 $535 forward $540 $-1 #
edge $-1 $458 -11.102986262648495 $599 11.102986262648495 $453 $600 forward 7 unknown #
plane-surface $-1 59.555040131839959 0 0 -1 0 0 0 0 1 forward_v I I I I #
coedge $-1 $601 $602 $455 $538 reversed $603 $-1 #
edge $-1 $541 -27.779508175391957 $604 27.779508175391957 $537 $605 forward 7 unknown #
coedge $-1 $456 $585 $601 $606 reversed $540 $-1 #
loop $-1 $-1 $585 $607 #
vertex $-1 $457 $608 #
straight-curve $-1 0 27.779508175391957 11.102986262648495 -1 0 0 I I #
point $-1 59.555040131839959 27.779508175391957 11.102986262648495 #
edge $-1 $466 -27.779508175391957 $468 27.779508175391957 $471 $609 forward 7 unknown #
straight-curve $-1 59.555040131839959 0 11.102986262648495 0 1 0 I I #
point $-1 59.555040131839959 27.779508175391957 -11.102986262648495 #
point $-1 59.555040131839959 -27.779508175391957 -11.102986262648495 #
face $-1 $437 $506 $14 $-1 $610 reversed single #
plane-surface $-1 0 -27.779508175391957 0 0 1 0 0 0 1 forward_v I I I I #
coedge $-1 $611 $477 $509 $570 forward $406 $-1 #
coedge $-1 $477 $611 $556 $612 reversed $406 $-1 #
edge $-1 $557 -27.779508175391957 $554 27.779508175391957 $477 $613 forward 7 unknown #
straight-curve $-1 -50.854598187476086 -27.779508175391957 -3.8641580474779804 0 0 -1 I I #
vertex $-1 $570 $614 #
straight-curve $-1 -27.602409579829011 27.779508175391957 -9.3699261766434265 1 0 0 I I #
coedge $-1 $565 $483 $551 $612 forward $491 $-1 #
vertex $-1 $612 $615 #
straight-curve $-1 -27.602409579829011 -27.779508175391957 -9.3699261766434265 -1 0 0 I I #
point $-1 -50.854598187476086 27.779508175391957 -9.3699261766434265 #
point $-1 -50.854598187476086 -27.779508175391957 -9.3699261766434265 #
straight-curve $-1 -59.555040131839959 0 -6.0867060132684951 0 -1 0 I I #
point $-1 -59.555040131839959 -27.779508175391957 -6.0867060132684951 #
point $-1 -59.555040131839959 27.779508175391957 -6.0867060132684951 #
straight-curve $-1 -50.854598187476086 27.779508175391957 -3.8641580474779804 0 0 1 I I #
coedge $-1 $500 $556 $504 $568 reversed $491 $-1 #
straight-curve $-1 59.555040131839959 -27.779508175391957 0 0 0 -1 I I #
coedge $-1 $505 $504 $611 $616 forward $506 $-1 #
edge $-1 $507 -59.555040131839959 $617 59.555040131839959 $565 $618 forward 7 unknown #
point $-1 59.555040131839959 -27.779508175391957 -11.102986262648495 #
edge $-1 $554 9.3699261766434265 $571 11.102986262648495 $509 $514 forward 7 unknown #
vertex $-1 $510 $619 #
straight-curve $-1 0 27.779508175391957 -11.102986262648495 1 0 0 I I #
straight-curve $-1 -59.555040131839959 -27.779508175391957 0 0 0 -1 I I #
face $-1 $620 $603 $15 $-1 $576 reversed single #
loop $-1 $-1 $621 $516 #
plane-surface $-1 -59.555040131839959 0 0 1 0 0 0 0 -1 forward_v I I I I #
coedge $-1 $522 $580 $622 $623 reversed $517 $-1 #
coedge $-1 $624 $519 $625 $626 reversed $440 $-1 #
coedge $-1 $519 $624 $627 $628 reversed $440 $-1 #
coedge $-1 $577 $587 $519 $581 forward $517 $-1 #
edge $-1 $629 -27.779508175391957 $630 27.779508175391957 $580 $631 forward 7 unknown #
coedge $-1 $521 $520 $632 $633 reversed $360 $-1 #
coedge $-1 $622 $634 $520 $584 forward $635 $-1 #
edge $-1 $636 -31.952630552010948 $588 -23.252188607647074 $583 $637 forward 7 unknown #
coedge $-1 $539 $638 $521 $586 forward $540 $-1 #
edge $-1 $589 23.252188607647074 $639 31.952630552010948 $585 $640 forward 7 unknown #
coedge $-1 $580 $522 $638 $641 reversed $517 $-1 #
vertex $-1 $584 $642 #
vertex $-1 $586 $643 #
straight-curve $-1 -50.854598187476086 0 -6.0867060132684951 0 1 0 I I #
coedge $-1 $634 $644 $524 $592 reversed $635 $-1 #
edge $-1 $604 -59.555040131839959 $594 59.555040131839959 $591 $645 forward 7 unknown #
coedge $-1 $533 $525 $644 $646 forward $373 $-1 #
vertex $-1 $526 $647 #
point $-1 59.555040131839959 9.1530514384253898 0.22008904610602542 #
coedge $-1 $648 $649 $533 $597 forward $650 $-1 #
edge $-1 $599 -27.779508175391957 $651 27.779508175391957 $533 $652 forward 7 unknown #
coedge $-1 $653 $534 $649 $654 reversed $540 $-1 #
vertex $-1 $597 $655 #
straight-curve $-1 59.555040131839959 27.779508175391957 0 0 0 -1 I I #
coedge $-1 $632 $537 $539 $606 forward $603 $-1 #
coedge $-1 $537 $632 $634 $656 reversed $603 $-1 #
loop $-1 $-1 $632 $574 #
vertex $-1 $538 $657 #
straight-curve $-1 -59.555040131839959 0 11.102986262648495 0 -1 0 I I #
edge $-1 $541 -11.102986262648495 $639 6.0867060132684951 $539 $658 forward 7 unknown #
face $-1 $454 $540 $15 $-1 $659 reversed single #
point $-1 -59.555040131839959 27.779508175391957 11.102986262648495 #
straight-curve $-1 59.555040131839959 0 -11.102986262648495 0 -1 0 I I #
plane-surface $-1 0 0 -11.102986262648495 0 0 1 1 0 0 forward_v I I I I #
coedge $-1 $551 $550 $567 $616 reversed $406 $-1 #
edge $-1 $557 9.3699261766434265 $617 11.102986262648495 $551 $573 forward 7 unknown #
straight-curve $-1 -59.555040131839959 0 -9.3699261766434265 0 1 0 I I #
point $-1 -59.555040131839959 27.779508175391957 -9.3699261766434265 #
point $-1 -59.555040131839959 -27.779508175391957 -9.3699261766434265 #
edge $-1 $617 -27.779508175391957 $571 27.779508175391957 $611 $660 forward 7 unknown #
vertex $-1 $616 $661 #
straight-curve $-1 0 -27.779508175391957 -11.102986262648495 -1 0 0 I I #
point $-1 -59.555040131839959 27.779508175391957 -11.102986262648495 #
face $-1 $662 $635 $15 $-1 $663 reversed single #
coedge $-1 $664 $665 $624 $666 forward $575 $-1 #
coedge $-1 $627 $583 $577 $623 forward $635 $-1 #
edge $-1 $588 2.2225479657905147 $630 5.5057681291654461 $622 $667 forward 7 unknown #
coedge $-1 $579 $578 $621 $666 reversed $440 $-1 #
coedge $-1 $638 $653 $578 $626 forward $540 $-1 #
edge $-1 $668 -31.952630552010948 $629 -23.252188607647074 $625 $669 forward 7 unknown #
coedge $-1 $670 $622 $579 $628 forward $635 $-1 #
edge $-1 $630 23.252188607647074 $671 31.952630552010948 $627 $672 forward 7 unknown #
vertex $-1 $626 $673 #
vertex $-1 $628 $674 #
straight-curve $-1 -50.854598187476086 0 -9.3699261766434265 0 -1 0 I I #
coedge $-1 $602 $601 $582 $633 forward $603 $-1 #
edge $-1 $639 -27.779508175391957 $636 27.779508175391957 $632 $675 forward 7 unknown #
coedge $-1 $583 $591 $602 $656 forward $635 $-1 #
loop $-1 $-1 $583 $620 #
vertex $-1 $584 $676 #
straight-curve $-1 -27.602409579829011 -27.779508175391957 -6.0867060132684951 1 0 0 I I #
coedge $-1 $585 $625 $587 $641 forward $540 $-1 #
vertex $-1 $633 $677 #
straight-curve $-1 -27.602409579829011 27.779508175391957 -6.0867060132684951 -1 0 0 I I #
edge $-1 $629 -5.5057681291654461 $589 -2.2225479657905147 $638 $678 forward 7 unknown #
point $-1 -50.854598187476086 -27.779508175391957 -6.0867060132684951 #
point $-1 -50.854598187476086 27.779508175391957 -6.0867060132684951 #
coedge $-1 $591 $679 $593 $646 reversed $635 $-1 #
straight-curve $-1 0 -27.779508175391957 11.102986262648495 1 0 0 I I #
edge $-1 $594 -11.102986262648495 $651 11.102986262648495 $593 $680 forward 7 unknown #
point $-1 59.555040131839959 -27.779508175391957 11.102986262648495 #
coedge $-1 $681 $596 $679 $682 forward $650 $-1 #
coedge $-1 $596 $681 $598 $654 forward $650 $-1 #
loop $-1 $-1 $596 $662 #
vertex $-1 $646 $683 #
straight-curve $-1 59.555040131839959 0 -11.102986262648495 0 -1 0 I I #
coedge $-1 $625 $598 $664 $684 reversed $540 $-1 #
edge $-1 $685 -59.555040131839959 $599 59.555040131839959 $598 $686 forward 7 unknown #
point $-1 59.555040131839959 27.779508175391957 -11.102986262648495 #
edge $-1 $604 -11.102986262648495 $636 6.0867060132684951 $602 $687 forward 7 unknown #
point $-1 -59.555040131839959 -27.779508175391957 11.102986262648495 #
straight-curve $-1 -59.555040131839959 27.779508175391957 0 0 0 -1 I I #
plane-surface $-1 0 27.779508175391957 0 0 -1 0 0 0 -1 forward_v I I I I #
straight-curve $-1 -59.555040131839959 0 -11.102986262648495 0 1 0 I I #
point $-1 -59.555040131839959 -27.779508175391957 -11.102986262648495 #
face $-1 $607 $650 $15 $-1 $688 reversed single #
plane-surface $-1 0 -27.779508175391957 0 0 1 0 0 0 1 forward_v I I I I #
coedge $-1 $689 $621 $653 $684 forward $575 $-1 #
coedge $-1 $621 $689 $670 $690 reversed $575 $-1 #
edge $-1 $671 -27.779508175391957 $668 27.779508175391957 $621 $691 forward 7 unknown #
straight-curve $-1 -50.854598187476086 -27.779508175391957 -3.8641580474779804 0 0 -1 I I #
vertex $-1 $684 $692 #
straight-curve $-1 -27.602409579829011 27.779508175391957 -9.3699261766434265 1 0 0 I I #
coedge $-1 $679 $627 $665 $690 forward $635 $-1 #
vertex $-1 $690 $693 #
straight-curve $-1 -27.602409579829011 -27.779508175391957 -9.3699261766434265 -1 0 0 I I #
point $-1 -50.854598187476086 27.779508175391957 -9.3699261766434265 #
point $-1 -50.854598187476086 -27.779508175391957 -9.3699261766434265 #
straight-curve $-1 -59.555040131839959 0 -6.0867060132684951 0 -1 0 I I #
point $-1 -59.555040131839959 -27.779508175391957 -6.0867060132684951 #
point $-1 -59.555040131839959 27.779508175391957 -6.0867060132684951 #
straight-curve $-1 -50.854598187476086 27.779508175391957 -3.8641580474779804 0 0 1 I I #
coedge $-1 $644 $670 $648 $682 reversed $635 $-1 #
straight-curve $-1 59.555040131839959 -27.779508175391957 0 0 0 -1 I I #
coedge $-1 $649 $648 $689 $694 forward $650 $-1 #
edge $-1 $651 -59.555040131839959 $695 59.555040131839959 $679 $696 forward 7 unknown #
point $-1 59.555040131839959 -27.779508175391957 -11.102986262648495 #
edge $-1 $668 9.3699261766434265 $685 11.102986262648495 $653 $658 forward 7 unknown #
vertex $-1 $654 $697 #
straight-curve $-1 0 27.779508175391957 -11.102986262648495 1 0 0 I I #
straight-curve $-1 -59.555040131839959 -27.779508175391957 0 0 0 -1 I I #
plane-surface $-1 0 0 -11.102986262648495 0 0 1 1 0 0 forward_v I I I I #
coedge $-1 $665 $664 $681 $694 reversed $575 $-1 #
edge $-1 $671 9.3699261766434265 $695 11.102986262648495 $665 $687 forward 7 unknown #
straight-curve $-1 -59.555040131839959 0 -9.3699261766434265 0 1 0 I I #
point $-1 -59.555040131839959 27.779508175391957 -9.3699261766434265 #
point $-1 -59.555040131839959 -27.779508175391957 -9.3699261766434265 #
edge $-1 $695 -27.779508175391957 $685 27.779508175391957 $689 $698 forward 7 unknown #
vertex $-1 $694 $699 #
straight-curve $-1 0 -27.779508175391957 -11.102986262648495 -1 0 0 I I #
point $-1 -59.555040131839959 27.779508175391957 -11.102986262648495 #
straight-curve $-1 -59.555040131839959 0 -11.102986262648495 0 1 0 I I #
point $-1 -59.555040131839959 -27.779508175391957 -11.102986262648495 #
End-of-ACIS-data 