500 0 16 0           
7 Unknown 11 ACIS 5.0 NT 24 Thu Mar 25 15:25:44 1999 
-1 9.9999999999999995e-007 1e-010 
body $-1 $16 $-1 $17 #
body $-1 $18 $-1 $19 #
body $-1 $20 $-1 $21 #
body $-1 $22 $-1 $23 #
body $-1 $24 $-1 $25 #
body $-1 $26 $-1 $27 #
body $-1 $28 $-1 $29 #
body $-1 $30 $-1 $31 #
body $-1 $32 $-1 $33 #
body $-1 $34 $-1 $35 #
body $-1 $36 $-1 $37 #
body $-1 $38 $-1 $39 #
body $-1 $40 $-1 $41 #
body $-1 $42 $-1 $43 #
body $-1 $44 $-1 $45 #
body $-1 $46 $-1 $47 #
lump $-1 $-1 $48 $0 #
transform $-1 1 0 0 0 1 0 0 0 1 52.959379863887449 30.277048951390224 15.114685007237645 1 rotate no_reflect no_shear #
lump $-1 $-1 $49 $1 #
transform $-1 1 0 0 0 1 0 0 0 1 52.959379863887449 30.277048951390224 15.114685007237645 1 rotate no_reflect no_shear #
lump $-1 $-1 $50 $2 #
transform $-1 1 0 0 0 1 0 0 0 1 52.959379863887449 30.277048951390224 15.114685007237645 1 rotate no_reflect no_shear #
lump $-1 $-1 $51 $3 #
transform $-1 1 0 0 0 1 0 0 0 1 52.959379863887449 30.277048951390224 15.114685007237645 1 rotate no_reflect no_shear #
lump $-1 $-1 $52 $4 #
transform $-1 1 0 0 0 1 0 0 0 1 52.959379863887449 30.277048951390224 15.114685007237645 1 rotate no_reflect no_shear #
lump $-1 $-1 $53 $5 #
transform $-1 1 0 0 0 1 0 0 0 1 52.959379863887449 30.277048951390224 15.114685007237645 1 rotate no_reflect no_shear #
lump $-1 $-1 $54 $6 #
transform $-1 1 0 0 0 1 0 0 0 1 52.959379863887449 30.277048951390224 15.114685007237645 1 rotate no_reflect no_shear #
lump $-1 $-1 $55 $7 #
transform $-1 1 0 0 0 1 0 0 0 1 52.959379863887449 30.277048951390224 15.114685007237645 1 rotate no_reflect no_shear #
lump $-1 $-1 $56 $8 #
transform $-1 1 0 0 0 1 0 0 0 1 52.959379863887449 30.277048951390224 15.114685007237645 1 rotate no_reflect no_shear #
lump $-1 $-1 $57 $9 #
transform $-1 1 0 0 0 1 0 0 0 1 52.959379863887449 30.277048951390224 15.114685007237645 1 rotate no_reflect no_shear #
lump $-1 $-1 $58 $10 #
transform $-1 1 0 0 0 1 0 0 0 1 52.959379863887449 30.277048951390224 15.114685007237645 1 rotate no_reflect no_shear #
lump $-1 $-1 $59 $11 #
transform $-1 1 0 0 0 1 0 0 0 1 52.959379863887449 30.277048951390224 15.114685007237645 1 rotate no_reflect no_shear #
lump $-1 $-1 $60 $12 #
transform $-1 1 0 0 0 1 0 0 0 1 52.959379863887449 30.277048951390224 15.114685007237645 1 rotate no_reflect no_shear #
lump $-1 $-1 $61 $13 #
transform $-1 1 0 0 0 1 0 0 0 1 52.959379863887449 30.277048951390224 15.114685007237645 1 rotate no_reflect no_shear #
lump $-1 $-1 $62 $14 #
transform $-1 1 0 0 0 1 0 0 0 1 52.959379863887449 30.277048951390224 15.114685007237645 1 rotate no_reflect no_shear #
lump $-1 $-1 $63 $15 #
transform $-1 1 0 0 0 1 0 0 0 1 52.959379863887449 30.277048951390224 15.114685007237645 1 rotate no_reflect no_shear #
shell $-1 $-1 $-1 $64 $-1 $16 #
shell $-1 $-1 $-1 $65 $-1 $18 #
shell $-1 $-1 $-1 $66 $-1 $20 #
shell $-1 $-1 $-1 $67 $-1 $22 #
shell $-1 $-1 $-1 $68 $-1 $24 #
shell $-1 $-1 $-1 $69 $-1 $26 #
shell $-1 $-1 $-1 $70 $-1 $28 #
shell $-1 $-1 $-1 $71 $-1 $30 #
shell $-1 $-1 $-1 $72 $-1 $32 #
shell $-1 $-1 $-1 $73 $-1 $34 #
shell $-1 $-1 $-1 $74 $-1 $36 #
shell $-1 $-1 $-1 $75 $-1 $38 #
shell $-1 $-1 $-1 $76 $-1 $40 #
shell $-1 $-1 $-1 $77 $-1 $42 #
shell $-1 $-1 $-1 $78 $-1 $44 #
shell $-1 $-1 $-1 $79 $-1 $46 #
face $-1 $80 $81 $48 $-1 $82 forward single #
face $-1 $83 $84 $49 $-1 $85 forward single #
face $-1 $86 $87 $50 $-1 $88 reversed single #
face $-1 $89 $90 $51 $-1 $91 forward single #
face $-1 $92 $93 $52 $-1 $94 forward single #
face $-1 $95 $96 $53 $-1 $97 forward single #
face $-1 $98 $99 $54 $-1 $100 reversed single #
face $-1 $101 $102 $55 $-1 $103 forward single #
face $-1 $104 $105 $56 $-1 $106 forward single #
face $-1 $107 $108 $57 $-1 $109 forward single #
face $-1 $110 $111 $58 $-1 $112 reversed single #
face $-1 $113 $114 $59 $-1 $115 forward single #
face $-1 $116 $117 $60 $-1 $118 forward single #
face $-1 $119 $120 $61 $-1 $121 reversed single #
face $-1 $122 $123 $62 $-1 $124 forward single #
face $-1 $125 $126 $63 $-1 $127 forward single #
face $-1 $128 $129 $48 $-1 $130 reversed single #
loop $-1 $-1 $131 $64 #
plane-surface $-1 0 0 15.114685007237645 0 0 1 1 0 0 forward_v I I I I #
face $-1 $132 $133 $49 $-1 $134 reversed single #
loop $-1 $-1 $135 $65 #
plane-surface $-1 0 -30.277048951390224 0 0 1 0 0 0 1 forward_v I I I I #
face $-1 $136 $137 $50 $-1 $138 reversed single #
loop $-1 $-1 $139 $66 #
plane-surface $-1 -126.53673376179353 -3.3306905880784434 77.398721391793103 0 1 0 -0.69465837861970381 0 0.71933979245794832 forward_v I I I I #
face $-1 $140 $141 $51 $-1 $142 forward single #
loop $-1 $143 $144 $67 #
cone-surface $-1 -45.191016880890174 -1.997094941724189 7.573227297167703 0.69465837861970381 0 -0.71933979245794832 0.35966989622897416 0 0.3473291893098519 1 I I 0 1 0.5 forward I I I I #
face $-1 $145 $146 $52 $-1 $147 forward single #
loop $-1 $148 $149 $68 #
cone-surface $-1 -45.191016880890174 0.0032985278071926416 7.573227297167703 0.69465837861970381 0 -0.71933979245794832 0.35966989622897416 0 0.3473291893098519 1 I I 0 1 0.5 forward I I I I #
face $-1 $150 $151 $53 $-1 $152 forward single #
loop $-1 $153 $154 $69 #
cone-surface $-1 -45.191016880890174 2.0036919973385743 7.573227297167703 0.69465837861970381 0 -0.71933979245794832 0.35966989622897416 0 0.3473291893098519 1 I I 0 1 0.5 forward I I I I #
face $-1 $155 $156 $54 $-1 $157 reversed single #
loop $-1 $-1 $158 $70 #
plane-surface $-1 -126.53673376179353 15.209699835023862 77.398721391793103 0 1 0 -0.69465837861970381 0 0.71933979245794832 forward_v I I I I #
face $-1 $159 $160 $55 $-1 $161 forward single #
loop $-1 $162 $163 $71 #
cone-surface $-1 -45.191016880890174 16.54329548137812 7.573227297167703 0.69465837861970381 0 -0.71933979245794832 0.35966989622897416 0 0.3473291893098519 1 I I 0 1 0.5 forward I I I I #
face $-1 $164 $165 $56 $-1 $166 forward single #
loop $-1 $167 $168 $72 #
cone-surface $-1 -45.191016880890174 18.543688950909502 7.573227297167703 0.69465837861970381 0 -0.71933979245794832 0.35966989622897416 0 0.3473291893098519 1 I I 0 1 0.5 forward I I I I #
face $-1 $169 $170 $57 $-1 $171 forward single #
loop $-1 $172 $173 $73 #
cone-surface $-1 -45.191016880890174 20.544082420440883 7.573227297167703 0.69465837861970381 0 -0.71933979245794832 0.35966989622897416 0 0.3473291893098519 1 I I 0 1 0.5 forward I I I I #
face $-1 $174 $175 $58 $-1 $176 reversed single #
loop $-1 $-1 $177 $74 #
plane-surface $-1 34.704359525056788 1.3092739447403723 159.39938181104256 0 -1 0 -0.61566148304635926 0 -0.78801074757464917 forward_v I I I I #
face $-1 $178 $179 $59 $-1 $180 forward single #
loop $-1 $181 $182 $75 #
cone-surface $-1 49.528818778203117 -5.6288049834364635 12.124894540167675 -0.61566148304635926 0 -0.78801074757464917 0.78801074757464917 0 -0.61566148304635926 1 I I 0 1 1 forward I I I I #
face $-1 $183 $184 $60 $-1 $185 forward single #
loop $-1 $186 $187 $76 #
cone-surface $-1 49.528818778203117 -1.4659576265303578 12.124894540167675 -0.61566148304635926 0 -0.78801074757464917 0.78801074757464917 0 -0.61566148304635926 1 I I 0 1 1 forward I I I I #
face $-1 $188 $189 $61 $-1 $190 reversed single #
loop $-1 $-1 $191 $77 #
plane-surface $-1 34.704359525056788 26.951024033423895 159.39938181104256 0 -1 0 -0.61566148304635926 0 -0.78801074757464917 forward_v I I I I #
face $-1 $192 $193 $62 $-1 $194 forward single #
loop $-1 $195 $196 $78 #
cone-surface $-1 49.528818778203117 20.012945105247059 12.124894540167675 -0.61566148304635926 0 -0.78801074757464917 0.78801074757464917 0 -0.61566148304635926 1 I I 0 1 1 forward I I I I #
face $-1 $197 $198 $63 $-1 $199 forward single #
loop $-1 $200 $201 $79 #
cone-surface $-1 49.528818778203117 24.175792462153172 12.124894540167675 -0.61566148304635926 0 -0.78801074757464917 0.78801074757464917 0 -0.61566148304635926 1 I I 0 1 1 forward I I I I #
face $-1 $202 $203 $48 $-1 $204 reversed single #
loop $-1 $-1 $205 $80 #
plane-surface $-1 0 0 -15.114685007237645 0 0 1 1 0 0 forward_v I I I I #
coedge $-1 $206 $207 $208 $209 forward $81 $-1 #
face $-1 $210 $211 $49 $-1 $212 reversed single #
loop $-1 $-1 $213 $83 #
plane-surface $-1 0 0 -15.114685007237645 0 0 1 1 0 0 forward_v I I I I #
coedge $-1 $214 $215 $216 $217 forward $84 $-1 #
face $-1 $218 $219 $50 $-1 $220 reversed single #
loop $-1 $-1 $221 $86 #
plane-surface $-1 -52.959379863887435 0.0032985278071961943 1.2071427518122135 -0.69465837861970381 0 0.71933979245794832 0.71933979245794832 0 0.69465837861970381 forward_v I I I I #
coedge $-1 $222 $223 $224 $225 reversed $87 $-1 #
face $-1 $-1 $226 $51 $-1 $227 forward single #
loop $-1 $228 $229 $89 #
cone-surface $-1 -44.44982993766353 -1.997094941724189 6.8057057666959881 0.69465837861970381 0 -0.71933979245794832 0.17983494811448708 0 0.17366459465492595 1 I I -0.70710678118654746 0.70710678118654746 0.25 forward I I I I #
loop $-1 $-1 $230 $67 #
coedge $-1 $144 $144 $231 $232 reversed $90 $-1 #
face $-1 $-1 $233 $52 $-1 $234 forward single #
loop $-1 $235 $236 $92 #
cone-surface $-1 -44.44982993766353 0.0032985278071926416 6.8057057666959881 0.69465837861970381 0 -0.71933979245794832 0.17983494811448708 0 0.17366459465492595 1 I I -0.70710678118654746 0.70710678118654746 0.25 forward I I I I #
loop $-1 $-1 $237 $68 #
coedge $-1 $149 $149 $238 $239 reversed $93 $-1 #
face $-1 $-1 $240 $53 $-1 $241 forward single #
loop $-1 $242 $243 $95 #
cone-surface $-1 -44.44982993766353 2.0036919973385743 6.8057057666959881 0.69465837861970381 0 -0.71933979245794832 0.17983494811448708 0 0.17366459465492595 1 I I -0.70710678118654746 0.70710678118654746 0.25 forward I I I I #
loop $-1 $-1 $244 $69 #
coedge $-1 $154 $154 $245 $246 reversed $96 $-1 #
face $-1 $247 $248 $54 $-1 $249 reversed single #
loop $-1 $-1 $250 $98 #
plane-surface $-1 -52.959379863887435 18.543688950909502 1.2071427518122135 -0.69465837861970381 0 0.71933979245794832 0.71933979245794832 0 0.69465837861970381 forward_v I I I I #
coedge $-1 $251 $252 $253 $254 reversed $99 $-1 #
face $-1 $-1 $255 $55 $-1 $256 forward single #
loop $-1 $257 $258 $101 #
cone-surface $-1 -44.44982993766353 16.54329548137812 6.8057057666959881 0.69465837861970381 0 -0.71933979245794832 0.17983494811448708 0 0.17366459465492595 1 I I -0.70710678118654746 0.70710678118654746 0.25 forward I I I I #
loop $-1 $-1 $259 $71 #
coedge $-1 $163 $163 $260 $261 reversed $102 $-1 #
face $-1 $-1 $262 $56 $-1 $263 forward single #
loop $-1 $264 $265 $104 #
cone-surface $-1 -44.44982993766353 18.543688950909502 6.8057057666959881 0.69465837861970381 0 -0.71933979245794832 0.17983494811448708 0 0.17366459465492595 1 I I -0.70710678118654746 0.70710678118654746 0.25 forward I I I I #
loop $-1 $-1 $266 $72 #
coedge $-1 $168 $168 $267 $268 reversed $105 $-1 #
face $-1 $-1 $269 $57 $-1 $270 forward single #
loop $-1 $271 $272 $107 #
cone-surface $-1 -44.44982993766353 20.544082420440883 6.8057057666959881 0.69465837861970381 0 -0.71933979245794832 0.17983494811448708 0 0.17366459465492595 1 I I -0.70710678118654746 0.70710678118654746 0.25 forward I I I I #
loop $-1 $-1 $273 $73 #
coedge $-1 $173 $173 $274 $275 reversed $108 $-1 #
face $-1 $276 $277 $58 $-1 $278 reversed single #
loop $-1 $-1 $279 $110 #
plane-surface $-1 -30.505741171376101 -3.5473813049834142 75.934260775779023 0.61566148304635926 0 0.78801074757464917 0.78801074757464917 0 -0.61566148304635926 forward_v I I I I #
coedge $-1 $280 $281 $282 $283 reversed $111 $-1 #
face $-1 $-1 $284 $59 $-1 $285 forward single #
loop $-1 $286 $287 $113 #
cone-surface $-1 48.600234715445595 -5.6288049834364635 10.936361163256132 -0.61566148304635926 0 -0.78801074757464917 0.39400537378732459 0 -0.30783074152317963 1 I I -0.70710678118654746 0.70710678118654746 0.5 forward I I I I #
loop $-1 $-1 $288 $75 #
coedge $-1 $182 $182 $289 $290 reversed $114 $-1 #
face $-1 $-1 $291 $60 $-1 $292 forward single #
loop $-1 $293 $294 $116 #
cone-surface $-1 48.600234715445595 -1.4659576265303578 10.936361163256132 -0.61566148304635926 0 -0.78801074757464917 0.39400537378732459 0 -0.30783074152317963 1 I I -0.70710678118654746 0.70710678118654746 0.5 forward I I I I #
loop $-1 $-1 $295 $76 #
coedge $-1 $187 $187 $296 $297 reversed $117 $-1 #
face $-1 $298 $299 $61 $-1 $300 reversed single #
loop $-1 $-1 $301 $119 #
plane-surface $-1 -30.505741171376101 22.094368783700109 75.934260775779023 0.61566148304635926 0 0.78801074757464917 0.78801074757464917 0 -0.61566148304635926 forward_v I I I I #
coedge $-1 $302 $303 $304 $305 reversed $120 $-1 #
face $-1 $-1 $306 $62 $-1 $307 forward single #
loop $-1 $308 $309 $122 #
cone-surface $-1 48.600234715445595 20.012945105247059 10.936361163256132 -0.61566148304635926 0 -0.78801074757464917 0.39400537378732459 0 -0.30783074152317963 1 I I -0.70710678118654746 0.70710678118654746 0.5 forward I I I I #
loop $-1 $-1 $310 $78 #
coedge $-1 $196 $196 $311 $312 reversed $123 $-1 #
face $-1 $-1 $313 $63 $-1 $314 forward single #
loop $-1 $315 $316 $125 #
cone-surface $-1 48.600234715445595 24.175792462153172 10.936361163256132 -0.61566148304635926 0 -0.78801074757464917 0.39400537378732459 0 -0.30783074152317963 1 I I -0.70710678118654746 0.70710678118654746 0.5 forward I I I I #
loop $-1 $-1 $317 $79 #
coedge $-1 $201 $201 $318 $319 reversed $126 $-1 #
face $-1 $320 $321 $48 $-1 $322 reversed single #
loop $-1 $-1 $323 $128 #
plane-surface $-1 0 -30.277048951390224 0 0 1 0 0 0 1 forward_v I I I I #
coedge $-1 $324 $325 $326 $327 forward $129 $-1 #
coedge $-1 $328 $131 $329 $330 forward $81 $-1 #
coedge $-1 $131 $328 $331 $332 forward $81 $-1 #
coedge $-1 $333 $334 $131 $209 reversed $335 $-1 #
edge $-1 $336 -30.277048951390224 $337 30.277048951390224 $208 $338 forward 7 unknown #
face $-1 $339 $340 $49 $-1 $341 forward single #
loop $-1 $-1 $342 $132 #
plane-surface $-1 52.959379863887449 0 0 -1 0 0 0 0 1 forward_v I I I I #
coedge $-1 $343 $344 $345 $346 forward $133 $-1 #
coedge $-1 $345 $135 $342 $347 reversed $84 $-1 #
coedge $-1 $135 $345 $348 $349 reversed $84 $-1 #
coedge $-1 $350 $351 $135 $217 reversed $340 $-1 #
edge $-1 $352 -52.959379863887449 $353 52.959379863887449 $216 $354 forward 7 unknown #
face $-1 $355 $356 $50 $-1 $357 forward single #
loop $-1 $-1 $358 $136 #
plane-surface $-1 -126.53673376179353 3.3372876436928358 77.398721391793103 0 -1 0 0.69465837861970381 0 -0.71933979245794832 forward_v I I I I #
coedge $-1 $359 $360 $361 $362 reversed $137 $-1 #
coedge $-1 $223 $139 $363 $364 reversed $87 $-1 #
coedge $-1 $139 $222 $359 $365 reversed $87 $-1 #
coedge $-1 $361 $366 $139 $225 forward $356 $-1 #
edge $-1 $367 10.308987017009315 $368 24.71066828586045 $224 $369 forward 7 unknown #
loop $-1 $-1 $231 $140 #
plane-surface $-1 -52.959379863887435 0.0032985278071961943 1.2071427518122135 -0.69465837861970381 0 0.71933979245794832 0.71933979245794832 0 0.69465837861970381 forward_v I I I I #
loop $-1 $-1 $370 $89 #
coedge $-1 $229 $229 $230 $371 reversed $141 $-1 #
coedge $-1 $230 $230 $229 $371 forward $143 $-1 #
coedge $-1 $231 $231 $144 $232 forward $226 $-1 #
edge $-1 $372 0 $372 6.2831853071796004 $231 $373 forward 7 unknown #
loop $-1 $-1 $238 $145 #
plane-surface $-1 -52.959379863887435 0.0032985278071961943 1.2071427518122135 -0.69465837861970381 0 0.71933979245794832 0.71933979245794832 0 0.69465837861970381 forward_v I I I I #
loop $-1 $-1 $374 $92 #
coedge $-1 $236 $236 $237 $375 reversed $146 $-1 #
coedge $-1 $237 $237 $236 $375 forward $148 $-1 #
coedge $-1 $238 $238 $149 $239 forward $233 $-1 #
edge $-1 $376 0 $376 6.2831853071796004 $238 $377 forward 7 unknown #
loop $-1 $-1 $245 $150 #
plane-surface $-1 -52.959379863887435 0.0032985278071961943 1.2071427518122135 -0.69465837861970381 0 0.71933979245794832 0.71933979245794832 0 0.69465837861970381 forward_v I I I I #
loop $-1 $-1 $378 $95 #
coedge $-1 $243 $243 $244 $379 reversed $151 $-1 #
coedge $-1 $244 $244 $243 $379 forward $153 $-1 #
coedge $-1 $245 $245 $154 $246 forward $240 $-1 #
edge $-1 $380 0 $380 6.2831853071796004 $245 $381 forward 7 unknown #
face $-1 $382 $383 $54 $-1 $384 forward single #
loop $-1 $-1 $385 $155 #
plane-surface $-1 -126.53673376179353 21.877678066795141 77.398721391793103 0 -1 0 0.69465837861970381 0 -0.71933979245794832 forward_v I I I I #
coedge $-1 $386 $387 $388 $389 reversed $156 $-1 #
coedge $-1 $252 $158 $390 $391 reversed $99 $-1 #
coedge $-1 $158 $251 $386 $392 reversed $99 $-1 #
coedge $-1 $388 $393 $158 $254 forward $383 $-1 #
edge $-1 $394 10.308987017009315 $395 24.71066828586045 $253 $396 forward 7 unknown #
loop $-1 $-1 $260 $159 #
plane-surface $-1 -52.959379863887435 18.543688950909502 1.2071427518122135 -0.69465837861970381 0 0.71933979245794832 0.71933979245794832 0 0.69465837861970381 forward_v I I I I #
loop $-1 $-1 $397 $101 #
coedge $-1 $258 $258 $259 $398 reversed $160 $-1 #
coedge $-1 $259 $259 $258 $398 forward $162 $-1 #
coedge $-1 $260 $260 $163 $261 forward $255 $-1 #
edge $-1 $399 0 $399 6.2831853071796004 $260 $400 forward 7 unknown #
loop $-1 $-1 $267 $164 #
plane-surface $-1 -52.959379863887435 18.543688950909502 1.2071427518122135 -0.69465837861970381 0 0.71933979245794832 0.71933979245794832 0 0.69465837861970381 forward_v I I I I #
loop $-1 $-1 $401 $104 #
coedge $-1 $265 $265 $266 $402 reversed $165 $-1 #
coedge $-1 $266 $266 $265 $402 forward $167 $-1 #
coedge $-1 $267 $267 $168 $268 forward $262 $-1 #
edge $-1 $403 0 $403 6.2831853071796004 $267 $404 forward 7 unknown #
loop $-1 $-1 $274 $169 #
plane-surface $-1 -52.959379863887435 18.543688950909502 1.2071427518122135 -0.69465837861970381 0 0.71933979245794832 0.71933979245794832 0 0.69465837861970381 forward_v I I I I #
loop $-1 $-1 $405 $107 #
coedge $-1 $272 $272 $273 $406 reversed $170 $-1 #
coedge $-1 $273 $273 $272 $406 forward $172 $-1 #
coedge $-1 $274 $274 $173 $275 forward $269 $-1 #
edge $-1 $407 0 $407 6.2831853071796004 $274 $408 forward 7 unknown #
face $-1 $409 $410 $58 $-1 $411 reversed single #
loop $-1 $-1 $412 $174 #
plane-surface $-1 34.704359525056788 -8.4040365547072007 159.39938181104256 0 1 0 0.61566148304635926 0 0.78801074757464917 forward_v I I I I #
coedge $-1 $413 $414 $415 $416 reversed $175 $-1 #
coedge $-1 $281 $177 $417 $418 reversed $111 $-1 #
coedge $-1 $177 $280 $413 $419 reversed $111 $-1 #
coedge $-1 $415 $420 $177 $283 forward $421 $-1 #
edge $-1 $422 -35.607200101359055 $423 -29.987584572459056 $282 $424 forward 7 unknown #
loop $-1 $-1 $289 $178 #
plane-surface $-1 -30.505741171376101 -3.5473813049834142 75.934260775779023 0.61566148304635926 0 0.78801074757464917 0.78801074757464917 0 -0.61566148304635926 forward_v I I I I #
loop $-1 $-1 $425 $113 #
coedge $-1 $287 $287 $288 $426 reversed $179 $-1 #
coedge $-1 $288 $288 $287 $426 forward $181 $-1 #
coedge $-1 $289 $289 $182 $290 forward $284 $-1 #
edge $-1 $427 0 $427 6.2831853071796004 $289 $428 forward 7 unknown #
loop $-1 $-1 $296 $183 #
plane-surface $-1 -30.505741171376101 -3.5473813049834142 75.934260775779023 0.61566148304635926 0 0.78801074757464917 0.78801074757464917 0 -0.61566148304635926 forward_v I I I I #
loop $-1 $-1 $429 $116 #
coedge $-1 $294 $294 $295 $430 reversed $184 $-1 #
coedge $-1 $295 $295 $294 $430 forward $186 $-1 #
coedge $-1 $296 $296 $187 $297 forward $291 $-1 #
edge $-1 $431 0 $431 6.2831853071796004 $296 $432 forward 7 unknown #
face $-1 $433 $434 $61 $-1 $435 reversed single #
loop $-1 $-1 $436 $188 #
plane-surface $-1 34.704359525056788 17.237713533976322 159.39938181104256 0 1 0 0.61566148304635926 0 0.78801074757464917 forward_v I I I I #
coedge $-1 $437 $438 $439 $440 reversed $189 $-1 #
coedge $-1 $303 $191 $441 $442 reversed $120 $-1 #
coedge $-1 $191 $302 $437 $443 reversed $120 $-1 #
coedge $-1 $439 $444 $191 $305 forward $445 $-1 #
edge $-1 $446 -35.607200101359055 $447 -29.987584572459056 $304 $448 forward 7 unknown #
loop $-1 $-1 $311 $192 #
plane-surface $-1 -30.505741171376101 22.094368783700109 75.934260775779023 0.61566148304635926 0 0.78801074757464917 0.78801074757464917 0 -0.61566148304635926 forward_v I I I I #
loop $-1 $-1 $449 $122 #
coedge $-1 $309 $309 $310 $450 reversed $193 $-1 #
coedge $-1 $310 $310 $309 $450 forward $195 $-1 #
coedge $-1 $311 $311 $196 $312 forward $306 $-1 #
edge $-1 $451 0 $451 6.2831853071796004 $311 $452 forward 7 unknown #
loop $-1 $-1 $318 $197 #
plane-surface $-1 -30.505741171376101 22.094368783700109 75.934260775779023 0.61566148304635926 0 0.78801074757464917 0.78801074757464917 0 -0.61566148304635926 forward_v I I I I #
loop $-1 $-1 $453 $125 #
coedge $-1 $316 $316 $317 $454 reversed $198 $-1 #
coedge $-1 $317 $317 $316 $454 forward $200 $-1 #
coedge $-1 $318 $318 $201 $319 forward $313 $-1 #
edge $-1 $455 0 $455 6.2831853071796004 $318 $456 forward 7 unknown #
face $-1 $457 $458 $48 $-1 $459 reversed single #
loop $-1 $-1 $460 $202 #
plane-surface $-1 -52.959379863887449 0 0 1 0 0 0 0 -1 forward_v I I I I #
coedge $-1 $331 $461 $333 $462 reversed $203 $-1 #
coedge $-1 $463 $205 $461 $464 forward $129 $-1 #
coedge $-1 $205 $463 $465 $466 forward $129 $-1 #
coedge $-1 $334 $333 $205 $327 reversed $335 $-1 #
edge $-1 $467 -30.277048951390224 $468 30.277048951390224 $326 $469 forward 7 unknown #
coedge $-1 $207 $206 $470 $471 forward $81 $-1 #
coedge $-1 $472 $473 $206 $330 reversed $458 $-1 #
edge $-1 $337 -52.959379863887449 $474 52.959379863887449 $329 $475 forward 7 unknown #
coedge $-1 $476 $323 $207 $332 reversed $203 $-1 #
edge $-1 $477 -52.959379863887449 $336 52.959379863887449 $331 $478 forward 7 unknown #
coedge $-1 $326 $208 $323 $462 forward $335 $-1 #
coedge $-1 $208 $326 $472 $479 reversed $335 $-1 #
loop $-1 $-1 $333 $457 #
vertex $-1 $209 $480 #
vertex $-1 $209 $481 #
straight-curve $-1 52.959379863887449 0 15.114685007237645 0 1 0 I I #
face $-1 $482 $483 $49 $-1 $484 reversed single #
loop $-1 $-1 $351 $210 #
plane-surface $-1 0 -39.550542690748578 -8.0531698577946624 0 0 1 1 0 0 forward_v I I I I #
coedge $-1 $485 $486 $214 $347 forward $211 $-1 #
coedge $-1 $487 $213 $486 $488 forward $133 $-1 #
coedge $-1 $213 $487 $489 $490 forward $133 $-1 #
coedge $-1 $215 $214 $213 $346 reversed $84 $-1 #
edge $-1 $491 -52.959379863887449 $492 52.959379863887449 $213 $493 forward 7 unknown #
edge $-1 $492 -15.114685007237645 $353 -8.0531698577946624 $342 $494 forward 7 unknown #
coedge $-1 $489 $495 $215 $349 forward $496 $-1 #
edge $-1 $352 8.0531698577946624 $491 15.114685007237645 $348 $497 forward 7 unknown #
coedge $-1 $498 $216 $495 $499 forward $340 $-1 #
coedge $-1 $216 $498 $485 $500 forward $340 $-1 #
vertex $-1 $349 $501 #
vertex $-1 $500 $502 #
straight-curve $-1 0 -30.277048951390224 -8.0531698577946624 1 0 0 I I #
face $-1 $-1 $503 $50 $-1 $504 reversed single #
loop $-1 $-1 $224 $218 #
plane-surface $-1 0 0 15.114685007237645 0 0 1 1 0 0 forward_v I I I I #
coedge $-1 $505 $506 $507 $508 reversed $219 $-1 #
coedge $-1 $509 $221 $223 $365 forward $137 $-1 #
coedge $-1 $221 $509 $505 $510 forward $137 $-1 #
coedge $-1 $507 $224 $221 $362 forward $356 $-1 #
edge $-1 $368 -3.3323398519820415 $511 3.3356383797892377 $361 $512 forward 7 unknown #
coedge $-1 $513 $514 $222 $364 forward $503 $-1 #
edge $-1 $515 -37.492217944084352 $367 -23.584675688658905 $363 $516 forward 7 unknown #
edge $-1 $368 -20.020693168719738 $515 1.9785632286268914e-014 $223 $517 forward 7 unknown #
coedge $-1 $224 $507 $513 $518 forward $356 $-1 #
vertex $-1 $364 $519 #
vertex $-1 $225 $520 #
straight-curve $-1 -63.268366880896764 -3.3306905880784434 15.114685007237647 1 0 0 I I #
coedge $-1 $370 $370 $-1 $521 reversed $228 $-1 #
edge $-1 $522 0 $522 6.2831853071796004 $229 $523 forward 7 unknown #
vertex $-1 $232 $524 #
ellipse-curve $-1 -45.758539229461881 -1.997094941724189 8.160913879524923 -0.69465837861970381 0 0.71933979245794832 0.35966989622897416 0 0.3473291893098519 1 I I #
coedge $-1 $374 $374 $-1 $525 reversed $235 $-1 #
edge $-1 $526 0 $526 6.2831853071796004 $236 $527 forward 7 unknown #
vertex $-1 $239 $528 #
ellipse-curve $-1 -45.758539229461881 0.0032985278071926416 8.160913879524923 -0.69465837861970381 0 0.71933979245794832 0.35966989622897416 0 0.3473291893098519 1 I I #
coedge $-1 $378 $378 $-1 $529 reversed $242 $-1 #
edge $-1 $530 0 $530 6.2831853071796004 $243 $531 forward 7 unknown #
vertex $-1 $246 $532 #
ellipse-curve $-1 -45.758539229461881 2.0036919973385743 8.160913879524923 -0.69465837861970381 0 0.71933979245794832 0.35966989622897416 0 0.3473291893098519 1 I I #
face $-1 $-1 $533 $54 $-1 $534 reversed single #
loop $-1 $-1 $253 $247 #
plane-surface $-1 0 0 15.114685007237645 0 0 1 1 0 0 forward_v I I I I #
coedge $-1 $535 $536 $537 $538 reversed $248 $-1 #
coedge $-1 $539 $250 $252 $392 forward $156 $-1 #
coedge $-1 $250 $539 $535 $540 forward $156 $-1 #
coedge $-1 $537 $253 $250 $389 forward $383 $-1 #
edge $-1 $395 5.9378553595691113 $541 12.60583359134039 $388 $542 forward 7 unknown #
coedge $-1 $543 $544 $251 $391 forward $533 $-1 #
edge $-1 $545 -37.492217944084352 $394 -23.584675688658905 $390 $546 forward 7 unknown #
edge $-1 $395 -20.020693168719738 $545 1.9785632286268914e-014 $252 $547 forward 7 unknown #
coedge $-1 $253 $537 $543 $548 forward $383 $-1 #
vertex $-1 $254 $549 #
vertex $-1 $254 $550 #
straight-curve $-1 -63.268366880896764 15.209699835023862 15.114685007237647 1 0 0 I I #
coedge $-1 $397 $397 $-1 $551 reversed $257 $-1 #
edge $-1 $552 0 $552 6.2831853071796004 $258 $553 forward 7 unknown #
vertex $-1 $261 $554 #
ellipse-curve $-1 -45.758539229461881 16.54329548137812 8.160913879524923 -0.69465837861970381 0 0.71933979245794832 0.35966989622897416 0 0.3473291893098519 1 I I #
coedge $-1 $401 $401 $-1 $555 reversed $264 $-1 #
edge $-1 $556 0 $556 6.2831853071796004 $265 $557 forward 7 unknown #
vertex $-1 $268 $558 #
ellipse-curve $-1 -45.758539229461881 18.543688950909502 8.160913879524923 -0.69465837861970381 0 0.71933979245794832 0.35966989622897416 0 0.3473291893098519 1 I I #
coedge $-1 $405 $405 $-1 $559 reversed $271 $-1 #
edge $-1 $560 0 $560 6.2831853071796004 $272 $561 forward 7 unknown #
vertex $-1 $275 $562 #
ellipse-curve $-1 -45.758539229461881 20.544082420440883 8.160913879524923 -0.69465837861970381 0 0.71933979245794832 0.35966989622897416 0 0.3473291893098519 1 I I #
face $-1 $-1 $421 $58 $-1 $563 forward single #
loop $-1 $-1 $564 $276 #
plane-surface $-1 52.959379863887449 0 0 -1 0 0 0 0 1 forward_v I I I I #
coedge $-1 $565 $566 $567 $568 reversed $277 $-1 #
coedge $-1 $569 $279 $281 $419 forward $175 $-1 #
coedge $-1 $279 $569 $565 $570 forward $175 $-1 #
coedge $-1 $567 $282 $279 $416 forward $421 $-1 #
edge $-1 $423 -3.0829645972320794 $571 6.6303459022154936 $415 $572 forward 7 unknown #
coedge $-1 $573 $574 $280 $418 forward $410 $-1 #
edge $-1 $575 -68.975530826175145 $422 -64.58500589828364 $417 $576 forward 7 unknown #
edge $-1 $423 98.7873652053066 $575 105.9187597277749 $281 $577 forward 7 unknown #
coedge $-1 $282 $567 $573 $578 forward $421 $-1 #
loop $-1 $-1 $567 $409 #
vertex $-1 $418 $579 #
vertex $-1 $283 $580 #
straight-curve $-1 17.352179762528394 1.3092739447403723 15.11468500723764 -1 0 0 I I #
coedge $-1 $425 $425 $-1 $581 reversed $286 $-1 #
edge $-1 $582 0 $582 6.2831853071796004 $287 $583 forward 7 unknown #
vertex $-1 $290 $584 #
ellipse-curve $-1 50.149572099437449 -5.6288049834364635 12.919422543291887 0.61566148304635926 0 0.78801074757464917 0.78801074757464917 0 -0.61566148304635926 1 I I #
coedge $-1 $429 $429 $-1 $585 reversed $293 $-1 #
edge $-1 $586 0 $586 6.2831853071796004 $294 $587 forward 7 unknown #
vertex $-1 $297 $588 #
ellipse-curve $-1 50.149572099437449 -1.4659576265303578 12.919422543291887 0.61566148304635926 0 0.78801074757464917 0.78801074757464917 0 -0.61566148304635926 1 I I #
face $-1 $-1 $445 $61 $-1 $589 forward single #
loop $-1 $-1 $590 $298 #
plane-surface $-1 52.959379863887449 0 0 -1 0 0 0 0 1 forward_v I I I I #
coedge $-1 $591 $592 $593 $594 reversed $299 $-1 #
coedge $-1 $595 $301 $303 $443 forward $189 $-1 #
coedge $-1 $301 $595 $591 $596 forward $189 $-1 #
coedge $-1 $593 $304 $301 $440 forward $445 $-1 #
edge $-1 $447 -15.903839641573841 $597 -6.1905291421262678 $439 $598 forward 7 unknown #
coedge $-1 $599 $600 $302 $442 forward $434 $-1 #
edge $-1 $601 -68.975530826175145 $446 -64.58500589828364 $441 $602 forward 7 unknown #
edge $-1 $447 98.7873652053066 $601 105.9187597277749 $303 $603 forward 7 unknown #
coedge $-1 $304 $593 $599 $604 forward $445 $-1 #
loop $-1 $-1 $593 $433 #
vertex $-1 $442 $605 #
vertex $-1 $305 $606 #
straight-curve $-1 17.352179762528394 26.951024033423895 15.11468500723764 -1 0 0 I I #
coedge $-1 $449 $449 $-1 $607 reversed $308 $-1 #
edge $-1 $608 0 $608 6.2831853071796004 $309 $609 forward 7 unknown #
vertex $-1 $312 $610 #
ellipse-curve $-1 50.149572099437449 20.012945105247059 12.919422543291887 0.61566148304635926 0 0.78801074757464917 0.78801074757464917 0 -0.61566148304635926 1 I I #
coedge $-1 $453 $453 $-1 $611 reversed $315 $-1 #
edge $-1 $612 0 $612 6.2831853071796004 $316 $613 forward 7 unknown #
vertex $-1 $319 $614 #
ellipse-curve $-1 50.149572099437449 24.175792462153172 12.919422543291887 0.61566148304635926 0 0.78801074757464917 0.78801074757464917 0 -0.61566148304635926 1 I I #
face $-1 $-1 $335 $48 $-1 $615 reversed single #
loop $-1 $-1 $472 $320 #
plane-surface $-1 0 30.277048951390224 0 0 -1 0 0 0 -1 forward_v I I I I #
coedge $-1 $616 $470 $473 $617 forward $321 $-1 #
coedge $-1 $323 $476 $324 $464 reversed $203 $-1 #
edge $-1 $336 -15.114685007237645 $468 15.114685007237645 $333 $618 forward 7 unknown #
coedge $-1 $325 $324 $616 $619 forward $129 $-1 #
edge $-1 $468 -52.959379863887449 $620 52.959379863887449 $461 $621 forward 7 unknown #
coedge $-1 $473 $472 $325 $466 reversed $458 $-1 #
edge $-1 $622 -52.959379863887449 $467 52.959379863887449 $465 $623 forward 7 unknown #
vertex $-1 $327 $624 #
vertex $-1 $462 $625 #
straight-curve $-1 52.959379863887449 0 -15.114685007237645 0 -1 0 I I #
coedge $-1 $460 $626 $328 $471 reversed $321 $-1 #
edge $-1 $474 -30.277048951390224 $477 30.277048951390224 $470 $627 forward 7 unknown #
coedge $-1 $465 $329 $334 $479 forward $458 $-1 #
coedge $-1 $329 $465 $460 $617 reversed $458 $-1 #
vertex $-1 $330 $628 #
straight-curve $-1 0 30.277048951390224 15.114685007237645 -1 0 0 I I #
coedge $-1 $461 $331 $626 $629 forward $203 $-1 #
vertex $-1 $471 $630 #
straight-curve $-1 0 -30.277048951390224 15.114685007237645 1 0 0 I I #
edge $-1 $337 -15.114685007237645 $467 15.114685007237645 $334 $631 forward 7 unknown #
point $-1 52.959379863887449 -30.277048951390224 15.114685007237645 #
point $-1 52.959379863887449 30.277048951390224 15.114685007237645 #
face $-1 $-1 $496 $49 $-1 $632 reversed single #
loop $-1 $-1 $633 $339 #
plane-surface $-1 0 -48.824036430106929 -11.583927432516154 0 1 0 0 0 1 forward_v I I I I #
coedge $-1 $634 $342 $351 $500 reversed $211 $-1 #
coedge $-1 $342 $634 $343 $488 reversed $211 $-1 #
coedge $-1 $344 $343 $635 $636 forward $133 $-1 #
edge $-1 $492 30.277048951390224 $637 48.824036430106929 $486 $638 forward 7 unknown #
coedge $-1 $639 $348 $344 $490 reversed $496 $-1 #
edge $-1 $640 -48.824036430106929 $491 -30.277048951390224 $489 $641 forward 7 unknown #
vertex $-1 $349 $642 #
vertex $-1 $488 $643 #
straight-curve $-1 0 -30.277048951390224 -15.114685007237645 1 0 0 I I #
straight-curve $-1 52.959379863887449 -30.277048951390224 0 0 0 1 I I #
coedge $-1 $348 $639 $350 $499 reversed $496 $-1 #
loop $-1 $-1 $348 $482 #
straight-curve $-1 -52.959379863887449 -30.277048951390224 0 0 0 -1 I I #
coedge $-1 $351 $350 $644 $645 forward $340 $-1 #
edge $-1 $352 -9.2734937393583508 $646 9.2734937393583508 $495 $647 forward 7 unknown #
edge $-1 $648 -9.2734937393583508 $353 9.2734937393583508 $485 $649 forward 7 unknown #
point $-1 -52.959379863887449 -30.277048951390228 -8.0531698577946624 #
point $-1 52.959379863887449 -30.277048951390228 -8.0531698577946624 #
loop $-1 $-1 $363 $355 #
plane-surface $-1 -52.959379863887449 0 0 1 0 0 0 0 -1 forward_v I I I I #
coedge $-1 $506 $358 $360 $510 reversed $219 $-1 #
coedge $-1 $358 $505 $650 $651 reversed $219 $-1 #
coedge $-1 $366 $361 $358 $508 forward $356 $-1 #
edge $-1 $511 -24.71066828586045 $652 -10.308987017009315 $507 $653 forward 7 unknown #
coedge $-1 $360 $359 $514 $654 reversed $137 $-1 #
edge $-1 $655 -1.9785632286268914e-014 $511 20.020693168719738 $505 $656 forward 7 unknown #
vertex $-1 $362 $657 #
straight-curve $-1 -38.557698595036314 0.0016492639035980972 15.114685007237645 0 1 0 I I #
coedge $-1 $650 $363 $366 $518 reversed $503 $-1 #
coedge $-1 $363 $650 $509 $654 forward $503 $-1 #
vertex $-1 $364 $658 #
straight-curve $-1 -52.959379863887449 -3.3306905880784434 38.699360695896551 0 0 1 I I #
straight-curve $-1 -52.959379863887435 -3.3306905880784434 1.2071427518122135 -0.71933979245794832 0 -0.69465837861970381 I I #
edge $-1 $652 -3.3372876436928358 $367 3.3306905880784434 $513 $659 forward 7 unknown #
point $-1 -52.959379863887449 -3.3306905880784434 15.114685007237645 #
point $-1 -38.557698595036314 -3.3306905880784434 15.114685007237645 #
edge $-1 $660 1 $660 0 $370 $-1 forward 7 unknown #
vertex $-1 $371 $661 #
ellipse-curve $-1 -44.623494532318453 -1.997094941724189 6.9855407148104751 -0.69465837861970381 0 0.71933979245794832 0.35966989622897416 0 0.3473291893098519 1 I I #
point $-1 -45.398869333232916 -1.997094941724189 8.5082430688347817 #
edge $-1 $662 1 $662 0 $374 $-1 forward 7 unknown #
vertex $-1 $375 $663 #
ellipse-curve $-1 -44.623494532318453 0.0032985278071926416 6.9855407148104751 -0.69465837861970381 0 0.71933979245794832 0.35966989622897416 0 0.3473291893098519 1 I I #
point $-1 -45.398869333232916 0.0032985278071926416 8.5082430688347817 #
edge $-1 $664 1 $664 0 $378 $-1 forward 7 unknown #
vertex $-1 $379 $665 #
ellipse-curve $-1 -44.623494532318453 2.0036919973385743 6.9855407148104751 -0.69465837861970381 0 0.71933979245794832 0.35966989622897416 0 0.3473291893098519 1 I I #
point $-1 -45.398869333232916 2.0036919973385743 8.5082430688347817 #
loop $-1 $-1 $390 $382 #
plane-surface $-1 -52.959379863887449 0 0 1 0 0 0 0 -1 forward_v I I I I #
coedge $-1 $536 $385 $387 $540 reversed $248 $-1 #
coedge $-1 $385 $535 $666 $667 reversed $248 $-1 #
coedge $-1 $393 $388 $385 $538 forward $383 $-1 #
edge $-1 $541 -24.71066828586045 $668 -10.308987017009315 $537 $669 forward 7 unknown #
coedge $-1 $387 $386 $544 $670 reversed $156 $-1 #
edge $-1 $671 -1.9785632286268914e-014 $541 20.020693168719738 $535 $672 forward 7 unknown #
vertex $-1 $389 $673 #
straight-curve $-1 -38.557698595036314 9.2718444754547509 15.114685007237645 0 1 0 I I #
coedge $-1 $666 $390 $393 $548 reversed $533 $-1 #
coedge $-1 $390 $666 $539 $670 forward $533 $-1 #
vertex $-1 $391 $674 #
straight-curve $-1 -52.959379863887449 15.209699835023862 38.699360695896551 0 0 1 I I #
straight-curve $-1 -52.959379863887435 15.209699835023862 1.2071427518122135 -0.71933979245794832 0 -0.69465837861970381 I I #
edge $-1 $668 -21.877678066795141 $394 -15.209699835023862 $543 $675 forward 7 unknown #
point $-1 -52.959379863887449 15.209699835023862 15.114685007237645 #
point $-1 -38.557698595036314 15.209699835023862 15.114685007237645 #
edge $-1 $676 1 $676 0 $397 $-1 forward 7 unknown #
vertex $-1 $398 $677 #
ellipse-curve $-1 -44.623494532318453 16.54329548137812 6.9855407148104751 -0.69465837861970381 0 0.71933979245794832 0.35966989622897416 0 0.3473291893098519 1 I I #
point $-1 -45.398869333232916 16.54329548137812 8.5082430688347817 #
edge $-1 $678 1 $678 0 $401 $-1 forward 7 unknown #
vertex $-1 $402 $679 #
ellipse-curve $-1 -44.623494532318453 18.543688950909502 6.9855407148104751 -0.69465837861970381 0 0.71933979245794832 0.35966989622897416 0 0.3473291893098519 1 I I #
point $-1 -45.398869333232916 18.543688950909502 8.5082430688347817 #
edge $-1 $680 1 $680 0 $405 $-1 forward 7 unknown #
vertex $-1 $406 $681 #
ellipse-curve $-1 -44.623494532318453 20.544082420440883 6.9855407148104751 -0.69465837861970381 0 0.71933979245794832 0.35966989622897416 0 0.3473291893098519 1 I I #
point $-1 -45.398869333232916 20.544082420440883 8.5082430688347817 #
plane-surface $-1 0 0 15.114685007237645 0 0 1 1 0 0 forward_v I I I I #
coedge $-1 $574 $573 $566 $682 forward $410 $-1 #
coedge $-1 $566 $412 $414 $570 reversed $277 $-1 #
coedge $-1 $412 $565 $564 $682 reversed $277 $-1 #
coedge $-1 $420 $415 $412 $568 forward $421 $-1 #
edge $-1 $571 29.987584572459056 $683 35.607200101359055 $567 $684 forward 7 unknown #
coedge $-1 $414 $413 $574 $685 reversed $175 $-1 #
edge $-1 $686 -105.9187597277749 $571 -98.7873652053066 $565 $687 forward 7 unknown #
vertex $-1 $416 $688 #
straight-curve $-1 47.339764334987457 -1.7736906524917071 15.114685007237647 0 -1 0 I I #
coedge $-1 $564 $417 $420 $578 reversed $410 $-1 #
coedge $-1 $417 $564 $569 $685 forward $410 $-1 #
vertex $-1 $418 $689 #
straight-curve $-1 52.959379863887449 1.3092739447403723 79.69969090552128 0 0 1 I I #
straight-curve $-1 -30.505741171376101 1.3092739447403723 75.934260775779023 0.78801074757464917 0 -0.61566148304635926 I I #
edge $-1 $683 -8.4040365547072007 $422 1.3092739447403723 $573 $690 forward 7 unknown #
point $-1 52.959379863887449 1.3092739447403723 15.114685007237645 #
point $-1 47.33976433498745 1.3092739447403723 15.114685007237647 #
edge $-1 $691 1 $691 0 $425 $-1 forward 7 unknown #
vertex $-1 $426 $692 #
ellipse-curve $-1 48.908065456968771 -5.6288049834364635 11.330366537043457 0.61566148304635926 0 0.78801074757464917 0.78801074757464917 0 -0.61566148304635926 1 I I #
point $-1 50.937582847012102 -5.6288049834364635 12.303761060245535 #
edge $-1 $693 1 $693 0 $429 $-1 forward 7 unknown #
vertex $-1 $430 $694 #
ellipse-curve $-1 48.908065456968771 -1.4659576265303578 11.330366537043457 0.61566148304635926 0 0.78801074757464917 0.78801074757464917 0 -0.61566148304635926 1 I I #
point $-1 50.937582847012102 -1.4659576265303578 12.303761060245535 #
plane-surface $-1 0 0 15.114685007237645 0 0 1 1 0 0 forward_v I I I I #
coedge $-1 $600 $599 $592 $695 forward $434 $-1 #
coedge $-1 $592 $436 $438 $596 reversed $299 $-1 #
coedge $-1 $436 $591 $590 $695 reversed $299 $-1 #
coedge $-1 $444 $439 $436 $594 forward $445 $-1 #
edge $-1 $597 29.987584572459056 $696 35.607200101359055 $593 $697 forward 7 unknown #
coedge $-1 $438 $437 $600 $698 reversed $189 $-1 #
edge $-1 $699 -105.9187597277749 $597 -98.7873652053066 $591 $700 forward 7 unknown #
vertex $-1 $440 $701 #
straight-curve $-1 47.339764334987457 11.047184391850054 15.114685007237647 0 -1 0 I I #
coedge $-1 $590 $441 $444 $604 reversed $434 $-1 #
coedge $-1 $441 $590 $595 $698 forward $434 $-1 #
vertex $-1 $442 $702 #
straight-curve $-1 52.959379863887449 26.951024033423895 79.69969090552128 0 0 1 I I #
straight-curve $-1 -30.505741171376101 26.951024033423895 75.934260775779023 0.78801074757464917 0 -0.61566148304635926 I I #
edge $-1 $696 17.237713533976322 $446 26.951024033423895 $599 $703 forward 7 unknown #
point $-1 52.959379863887449 26.951024033423895 15.114685007237645 #
point $-1 47.33976433498745 26.951024033423895 15.114685007237647 #
edge $-1 $704 1 $704 0 $449 $-1 forward 7 unknown #
vertex $-1 $450 $705 #
ellipse-curve $-1 48.908065456968771 20.012945105247059 11.330366537043457 0.61566148304635926 0 0.78801074757464917 0.78801074757464917 0 -0.61566148304635926 1 I I #
point $-1 50.937582847012102 20.012945105247059 12.303761060245535 #
edge $-1 $706 1 $706 0 $453 $-1 forward 7 unknown #
vertex $-1 $454 $707 #
ellipse-curve $-1 48.908065456968771 24.175792462153172 11.330366537043457 0.61566148304635926 0 0.78801074757464917 0.78801074757464917 0 -0.61566148304635926 1 I I #
point $-1 50.937582847012102 24.175792462153172 12.303761060245535 #
plane-surface $-1 52.959379863887449 0 0 -1 0 0 0 0 1 forward_v I I I I #
coedge $-1 $626 $460 $463 $619 reversed $321 $-1 #
edge $-1 $474 -15.114685007237645 $622 15.114685007237645 $473 $708 forward 7 unknown #
straight-curve $-1 52.959379863887449 -30.277048951390224 0 0 0 -1 I I #
edge $-1 $620 -30.277048951390224 $622 30.277048951390224 $616 $709 forward 7 unknown #
vertex $-1 $619 $710 #
straight-curve $-1 0 -30.277048951390224 -15.114685007237645 -1 0 0 I I #
vertex $-1 $466 $711 #
straight-curve $-1 0 30.277048951390224 -15.114685007237645 1 0 0 I I #
point $-1 52.959379863887449 30.277048951390224 -15.114685007237645 #
point $-1 52.959379863887449 -30.277048951390224 -15.114685007237645 #
coedge $-1 $470 $616 $476 $629 reversed $321 $-1 #
straight-curve $-1 -52.959379863887449 0 15.114685007237645 0 -1 0 I I #
point $-1 -52.959379863887449 30.277048951390224 15.114685007237645 #
edge $-1 $477 -15.114685007237645 $620 15.114685007237645 $626 $712 forward 7 unknown #
point $-1 -52.959379863887449 -30.277048951390224 15.114685007237645 #
straight-curve $-1 52.959379863887449 30.277048951390224 0 0 0 -1 I I #
plane-surface $-1 -52.959379863887449 0 0 1 0 0 0 0 -1 forward_v I I I I #
coedge $-1 $635 $644 $639 $713 forward $483 $-1 #
coedge $-1 $486 $485 $714 $715 forward $211 $-1 #
coedge $-1 $714 $633 $487 $636 reversed $483 $-1 #
edge $-1 $637 -52.959379863887449 $640 52.959379863887449 $635 $716 forward 7 unknown #
vertex $-1 $715 $717 #
straight-curve $-1 52.959379863887449 0 -15.114685007237645 0 -1 0 I I #
coedge $-1 $495 $489 $633 $713 reversed $496 $-1 #
vertex $-1 $490 $718 #
straight-curve $-1 -52.959379863887449 0 -15.114685007237645 0 1 0 I I #
point $-1 -52.959379863887449 -30.277048951390224 -15.114685007237645 #
point $-1 52.959379863887449 -30.277048951390224 -15.114685007237645 #
coedge $-1 $633 $714 $498 $645 reversed $483 $-1 #
edge $-1 $646 -52.959379863887449 $648 52.959379863887449 $644 $719 forward 7 unknown #
vertex $-1 $499 $720 #
straight-curve $-1 -52.959379863887449 -39.550542690748578 -8.0531698577946624 0 -1 0 I I #
vertex $-1 $500 $721 #
straight-curve $-1 52.959379863887449 -39.550542690748578 -8.0531698577946624 0 1 0 I I #
coedge $-1 $514 $513 $506 $651 forward $503 $-1 #
edge $-1 $652 23.584675688658905 $655 37.492217944084352 $650 $722 forward 7 unknown #
vertex $-1 $518 $723 #
straight-curve $-1 -63.268366880896764 3.3372876436928358 15.114685007237647 -1 0 0 I I #
edge $-1 $655 -3.3356383797892377 $515 3.3323398519820415 $514 $724 forward 7 unknown #
vertex $-1 $654 $725 #
straight-curve $-1 -52.959379863887435 3.3372876436928358 1.2071427518122135 0.71933979245794832 0 0.69465837861970381 I I #
point $-1 -38.557698595036314 3.3372876436928358 15.114685007237645 #
point $-1 -52.959379863887449 -3.3306905880784434 1.2071427518121998 #
straight-curve $-1 -52.959379863887449 0 15.114685007237645 0 -1 0 I I #
vertex $-1 $521 $726 #
point $-1 -44.263824636089481 -1.997094941724189 7.3328699041203276 #
vertex $-1 $525 $727 #
point $-1 -44.263824636089481 0.0032985278071926416 7.3328699041203276 #
vertex $-1 $529 $728 #
point $-1 -44.263824636089481 2.0036919973385743 7.3328699041203276 #
coedge $-1 $544 $543 $536 $667 forward $533 $-1 #
edge $-1 $668 23.584675688658905 $671 37.492217944084352 $666 $729 forward 7 unknown #
vertex $-1 $548 $730 #
straight-curve $-1 -63.268366880896764 21.877678066795141 15.114685007237647 -1 0 0 I I #
edge $-1 $671 -12.60583359134039 $545 -5.9378553595691113 $544 $731 forward 7 unknown #
vertex $-1 $670 $732 #
straight-curve $-1 -52.959379863887435 21.877678066795141 1.2071427518122135 0.71933979245794832 0 0.69465837861970381 I I #
point $-1 -38.557698595036314 21.877678066795141 15.114685007237645 #
point $-1 -52.959379863887449 15.209699835023862 1.2071427518121998 #
straight-curve $-1 -52.959379863887449 0 15.114685007237645 0 -1 0 I I #
vertex $-1 $551 $733 #
point $-1 -44.263824636089481 16.54329548137812 7.3328699041203276 #
vertex $-1 $555 $734 #
point $-1 -44.263824636089481 18.543688950909502 7.3328699041203276 #
vertex $-1 $559 $735 #
point $-1 -44.263824636089481 20.544082420440883 7.3328699041203276 #
edge $-1 $683 64.58500589828364 $686 68.975530826175145 $564 $736 forward 7 unknown #
vertex $-1 $578 $737 #
straight-curve $-1 17.352179762528394 -8.4040365547072007 15.11468500723764 1 0 0 I I #
edge $-1 $686 -6.6303459022154936 $575 3.0829645972320794 $574 $738 forward 7 unknown #
vertex $-1 $685 $739 #
straight-curve $-1 -30.505741171376101 -8.4040365547072007 75.934260775779023 -0.78801074757464917 0 0.61566148304635926 I I #
point $-1 47.33976433498745 -8.4040365547072007 15.114685007237647 #
point $-1 52.959379863887449 1.3092739447403723 10.724160079346134 #
straight-curve $-1 52.959379863887449 0 15.114685007237645 0 1 0 I I #
vertex $-1 $581 $740 #
point $-1 49.696076204543424 -5.6288049834364635 10.714705053997097 #
vertex $-1 $585 $741 #
point $-1 49.696076204543424 -1.4659576265303578 10.714705053997097 #
edge $-1 $696 64.58500589828364 $699 68.975530826175145 $590 $742 forward 7 unknown #
vertex $-1 $604 $743 #
straight-curve $-1 17.352179762528394 17.237713533976322 15.11468500723764 1 0 0 I I #
edge $-1 $699 6.1905291421262678 $601 15.903839641573841 $600 $744 forward 7 unknown #
vertex $-1 $698 $745 #
straight-curve $-1 -30.505741171376101 17.237713533976322 75.934260775779023 -0.78801074757464917 0 0.61566148304635926 I I #
point $-1 47.33976433498745 17.237713533976322 15.114685007237647 #
point $-1 52.959379863887449 26.951024033423895 10.724160079346134 #
straight-curve $-1 52.959379863887449 0 15.114685007237645 0 1 0 I I #
vertex $-1 $607 $746 #
point $-1 49.696076204543424 20.012945105247059 10.714705053997097 #
vertex $-1 $611 $747 #
point $-1 49.696076204543424 24.175792462153172 10.714705053997097 #
straight-curve $-1 -52.959379863887449 30.277048951390224 0 0 0 -1 I I #
straight-curve $-1 -52.959379863887449 0 -15.114685007237645 0 1 0 I I #
point $-1 -52.959379863887449 -30.277048951390224 -15.114685007237645 #
point $-1 -52.959379863887449 30.277048951390224 -15.114685007237645 #
straight-curve $-1 -52.959379863887449 -30.277048951390224 0 0 0 -1 I I #
edge $-1 $646 -3.5307575747214912 $640 3.5307575747214912 $639 $748 forward 7 unknown #
coedge $-1 $644 $635 $634 $715 reversed $483 $-1 #
edge $-1 $648 -3.5307575747214912 $637 3.5307575747214912 $634 $749 forward 7 unknown #
straight-curve $-1 0 -48.824036430106929 -15.114685007237645 -1 0 0 I I #
point $-1 52.959379863887449 -48.824036430106929 -15.114685007237645 #
point $-1 -52.959379863887449 -48.824036430106929 -15.114685007237645 #
straight-curve $-1 0 -48.824036430106929 -8.0531698577946624 1 0 0 I I #
point $-1 -52.959379863887449 -48.824036430106929 -8.0531698577946624 #
point $-1 52.959379863887449 -48.824036430106929 -8.0531698577946624 #
straight-curve $-1 -52.959379863887449 3.3372876436928358 38.699360695896551 0 0 -1 I I #
point $-1 -52.959379863887449 3.3372876436928358 15.114685007237645 #
straight-curve $-1 -52.959379863887449 0.0016492639035980972 1.2071427518122002 0 -1 0 I I #
point $-1 -52.959379863887449 3.3372876436928358 1.2071427518121998 #
point $-1 -44.276165343008607 -1.997094941724189 6.6258708185815012 #
point $-1 -44.276165343008607 0.0032985278071926416 6.6258708185815012 #
point $-1 -44.276165343008607 2.0036919973385743 6.6258708185815012 #
straight-curve $-1 -52.959379863887449 21.877678066795141 38.699360695896551 0 0 -1 I I #
point $-1 -52.959379863887449 21.877678066795141 15.114685007237645 #
straight-curve $-1 -52.959379863887449 9.2718444754547509 1.2071427518122002 0 -1 0 I I #
point $-1 -52.959379863887449 21.877678066795141 1.2071427518121998 #
point $-1 -44.276165343008607 16.54329548137812 6.6258708185815012 #
point $-1 -44.276165343008607 18.543688950909502 6.6258708185815012 #
point $-1 -44.276165343008607 20.544082420440883 6.6258708185815012 #
straight-curve $-1 52.959379863887449 -8.4040365547072007 79.69969090552128 0 0 -1 I I #
point $-1 52.959379863887449 -8.4040365547072007 15.114685007237645 #
straight-curve $-1 52.959379863887449 -1.7736906524917071 10.724160079346124 0 1 0 I I #
point $-1 52.959379863887449 -8.4040365547072007 10.724160079346134 #
point $-1 48.292403973922418 -5.6288049834364635 10.542355789468807 #
point $-1 48.292403973922418 -1.4659576265303578 10.542355789468807 #
straight-curve $-1 52.959379863887449 17.237713533976322 79.69969090552128 0 0 -1 I I #
point $-1 52.959379863887449 17.237713533976322 15.114685007237645 #
straight-curve $-1 52.959379863887449 11.047184391850054 10.724160079346124 0 1 0 I I #
point $-1 52.959379863887449 17.237713533976322 10.724160079346134 #
point $-1 48.292403973922418 20.012945105247059 10.542355789468807 #
point $-1 48.292403973922418 24.175792462153172 10.542355789468807 #
straight-curve $-1 -52.959379863887449 -48.824036430106929 -11.583927432516154 0 0 -1 I I #
straight-curve $-1 52.959379863887449 -48.824036430106929 -11.583927432516154 0 0 -1 I I #
End-of-ACIS-data 