500 0 5 0           
7 Unknown 11 ACIS 5.0 NT 24 Thu Mar 25 17:25:55 1999 
-1 9.9999999999999995e-007 1e-010 
body $-1 $5 $-1 $6 #
body $-1 $7 $-1 $8 #
body $-1 $9 $-1 $10 #
body $-1 $11 $-1 $12 #
body $-1 $13 $-1 $14 #
lump $-1 $-1 $15 $0 #
transform $-1 1 0 0 0 1 0 0 0 1 57.981505783257546 37.223040234243264 12.059687952108112 1 rotate no_reflect no_shear #
lump $-1 $-1 $16 $1 #
transform $-1 1 0 0 0 1 0 0 0 1 57.981505783257546 37.223040234243264 12.059687952108112 1 rotate no_reflect no_shear #
lump $-1 $-1 $17 $2 #
transform $-1 1 0 0 0 1 0 0 0 1 57.981505783257546 37.223040234243264 12.059687952108112 1 rotate no_reflect no_shear #
lump $-1 $-1 $18 $3 #
transform $-1 1 0 0 0 1 0 0 0 1 57.981505783257546 37.223040234243264 12.059687952108112 1 rotate no_reflect no_shear #
lump $-1 $-1 $19 $4 #
transform $-1 1 0 0 0 1 0 0 0 1 57.981505783257546 37.223040234243264 12.059687952108112 1 rotate no_reflect no_shear #
shell $-1 $-1 $-1 $20 $-1 $5 #
shell $-1 $-1 $-1 $21 $-1 $7 #
shell $-1 $-1 $-1 $22 $-1 $9 #
shell $-1 $-1 $-1 $23 $-1 $11 #
shell $-1 $-1 $-1 $24 $-1 $13 #
face $-1 $25 $26 $15 $-1 $27 forward single #
face $-1 $28 $29 $16 $-1 $30 forward single #
face $-1 $31 $32 $17 $-1 $33 reversed single #
face $-1 $34 $35 $18 $-1 $36 forward single #
face $-1 $37 $38 $19 $-1 $39 forward single #
face $-1 $40 $41 $15 $-1 $42 reversed single #
loop $-1 $-1 $43 $20 #
plane-surface $-1 0 0 12.059687952108112 0 0 1 1 0 0 forward_v I I I I #
face $-1 $44 $45 $16 $-1 $46 reversed single #
loop $-1 $-1 $47 $21 #
plane-surface $-1 -57.981505783257546 0 0 1 0 0 0 0 -1 forward_v I I I I #
face $-1 $48 $49 $17 $-1 $50 reversed single #
loop $-1 $-1 $51 $22 #
plane-surface $-1 30.59649190600657 89.513862493456372 133.32053254254549 1 0 0 0 -0.81915205242281985 -0.57357642473473569 forward_v I I I I #
face $-1 $52 $53 $18 $-1 $54 forward single #
loop $-1 $55 $56 $23 #
cone-surface $-1 38.420781585221121 34.522857629559965 8.5798622328895533 0 -0.81915205242281985 -0.57357642473473569 1 0 0 1 I I 0 1 1 forward I I I I #
face $-1 $57 $58 $19 $-1 $59 forward single #
loop $-1 $60 $61 $24 #
cone-surface $-1 50.157216104042973 34.522857629559965 8.5798622328895533 0 -0.81915205242281985 -0.57357642473473569 1 0 0 1 I I 0 1 1 forward I I I I #
face $-1 $62 $63 $15 $-1 $64 reversed single #
loop $-1 $-1 $65 $25 #
plane-surface $-1 0 0 -12.059687952108112 0 0 1 1 0 0 forward_v I I I I #
coedge $-1 $66 $67 $68 $69 forward $26 $-1 #
face $-1 $70 $71 $16 $-1 $72 forward single #
loop $-1 $-1 $73 $28 #
plane-surface $-1 0 37.223040234243264 0 0 -1 0 0 0 -1 forward_v I I I I #
coedge $-1 $74 $75 $76 $77 forward $29 $-1 #
face $-1 $78 $79 $17 $-1 $80 forward single #
loop $-1 $-1 $81 $31 #
plane-surface $-1 44.288998844632061 -5.4774764363856576 66.806882966750962 0 0.81915205242281985 0.57357642473473569 1 0 0 forward_v I I I I #
coedge $-1 $82 $83 $84 $85 reversed $32 $-1 #
face $-1 $-1 $86 $18 $-1 $87 forward single #
loop $-1 $88 $89 $34 #
cone-surface $-1 38.420781585221121 33.596158589938959 7.9309805992797653 0 -0.81915205242281985 -0.57357642473473569 0.5 0 0 1 I I -0.70710678118654746 0.70710678118654746 0.5 forward I I I I #
loop $-1 $-1 $90 $23 #
coedge $-1 $56 $56 $91 $92 reversed $35 $-1 #
face $-1 $-1 $93 $19 $-1 $94 forward single #
loop $-1 $95 $96 $37 #
cone-surface $-1 50.157216104042973 33.596158589938959 7.9309805992797653 0 -0.81915205242281985 -0.57357642473473569 0.5 0 0 1 I I -0.70710678118654746 0.70710678118654746 0.5 forward I I I I #
loop $-1 $-1 $97 $24 #
coedge $-1 $61 $61 $98 $99 reversed $38 $-1 #
face $-1 $100 $101 $15 $-1 $102 reversed single #
loop $-1 $-1 $103 $40 #
plane-surface $-1 0 -37.223040234243264 0 0 1 0 0 0 1 forward_v I I I I #
coedge $-1 $104 $105 $106 $107 forward $41 $-1 #
coedge $-1 $108 $43 $109 $110 forward $26 $-1 #
coedge $-1 $43 $108 $111 $112 forward $26 $-1 #
coedge $-1 $113 $114 $43 $69 reversed $115 $-1 #
edge $-1 $116 -37.223040234243264 $117 37.223040234243264 $68 $118 forward 7 unknown #
face $-1 $119 $120 $16 $-1 $121 reversed single #
loop $-1 $-1 $76 $44 #
plane-surface $-1 -62.757943811473233 0 -5.2481659807266734 0 0 1 1 0 0 forward_v I I I I #
coedge $-1 $122 $123 $75 $124 forward $45 $-1 #
coedge $-1 $125 $47 $126 $127 reversed $29 $-1 #
coedge $-1 $47 $125 $73 $124 reversed $29 $-1 #
coedge $-1 $128 $129 $47 $77 reversed $71 $-1 #
edge $-1 $130 -37.223040234243264 $131 37.223040234243264 $76 $132 forward 7 unknown #
face $-1 $133 $134 $17 $-1 $135 reversed single #
loop $-1 $-1 $84 $48 #
plane-surface $-1 0 0 12.059687952108112 0 0 1 1 0 0 forward_v I I I I #
coedge $-1 $136 $137 $138 $139 reversed $49 $-1 #
coedge $-1 $83 $51 $140 $141 reversed $32 $-1 #
coedge $-1 $51 $82 $136 $142 reversed $32 $-1 #
coedge $-1 $138 $143 $51 $85 forward $79 $-1 #
edge $-1 $144 7.5338910124849221 $145 11.900010195032294 $84 $146 forward 7 unknown #
loop $-1 $-1 $91 $52 #
plane-surface $-1 44.288998844632061 -5.4774764363856576 66.806882966750962 0 0.81915205242281985 0.57357642473473569 1 0 0 forward_v I I I I #
loop $-1 $-1 $147 $34 #
coedge $-1 $89 $89 $90 $148 reversed $53 $-1 #
coedge $-1 $90 $90 $89 $148 forward $55 $-1 #
coedge $-1 $91 $91 $56 $92 forward $86 $-1 #
edge $-1 $149 5.7962686500984556e-016 $149 6.2831853071796013 $91 $150 forward 7 unknown #
loop $-1 $-1 $98 $57 #
plane-surface $-1 44.288998844632061 -5.4774764363856576 66.806882966750962 0 0.81915205242281985 0.57357642473473569 1 0 0 forward_v I I I I #
loop $-1 $-1 $151 $37 #
coedge $-1 $96 $96 $97 $152 reversed $58 $-1 #
coedge $-1 $97 $97 $96 $152 forward $60 $-1 #
coedge $-1 $98 $98 $61 $99 forward $93 $-1 #
edge $-1 $153 5.7962686500984556e-016 $153 6.2831853071796013 $98 $154 forward 7 unknown #
face $-1 $155 $156 $15 $-1 $157 reversed single #
loop $-1 $-1 $158 $62 #
plane-surface $-1 -57.981505783257546 0 0 1 0 0 0 0 -1 forward_v I I I I #
coedge $-1 $159 $111 $158 $160 forward $63 $-1 #
coedge $-1 $161 $65 $159 $162 forward $41 $-1 #
coedge $-1 $65 $161 $163 $164 forward $41 $-1 #
coedge $-1 $114 $113 $65 $107 reversed $115 $-1 #
edge $-1 $165 -37.223040234243264 $166 37.223040234243264 $106 $167 forward 7 unknown #
coedge $-1 $67 $66 $168 $169 forward $26 $-1 #
coedge $-1 $170 $171 $66 $110 reversed $156 $-1 #
edge $-1 $117 -57.981505783257546 $172 57.981505783257546 $109 $173 forward 7 unknown #
coedge $-1 $103 $174 $67 $112 reversed $63 $-1 #
edge $-1 $175 -57.981505783257546 $116 57.981505783257546 $111 $176 forward 7 unknown #
coedge $-1 $106 $68 $174 $177 forward $115 $-1 #
coedge $-1 $68 $106 $170 $178 reversed $115 $-1 #
loop $-1 $-1 $113 $155 #
vertex $-1 $69 $179 #
vertex $-1 $69 $180 #
straight-curve $-1 57.981505783257546 0 12.059687952108112 0 1 0 I I #
face $-1 $181 $182 $16 $-1 $183 reversed single #
loop $-1 $-1 $184 $70 #
plane-surface $-1 -62.757943811473233 0 -9.0083212568126054 0 0 1 1 0 0 forward_v I I I I #
coedge $-1 $185 $73 $186 $187 reversed $45 $-1 #
coedge $-1 $73 $185 $128 $188 reversed $45 $-1 #
edge $-1 $130 5.2481659807266734 $189 9.0083212568126054 $73 $190 forward 7 unknown #
coedge $-1 $75 $74 $184 $191 forward $29 $-1 #
coedge $-1 $192 $193 $74 $127 forward $194 $-1 #
edge $-1 $195 -9.0083212568126054 $131 -5.2481659807266734 $126 $196 forward 7 unknown #
coedge $-1 $197 $76 $123 $188 forward $71 $-1 #
coedge $-1 $76 $197 $192 $198 forward $71 $-1 #
vertex $-1 $124 $199 #
vertex $-1 $198 $200 #
straight-curve $-1 -57.981505783257546 0 -5.2481659807266734 0 -1 0 I I #
face $-1 $-1 $201 $17 $-1 $202 reversed single #
loop $-1 $-1 $203 $78 #
plane-surface $-1 57.981505783257546 0 0 -1 0 0 0 0 1 forward_v I I I I #
coedge $-1 $204 $81 $83 $142 forward $49 $-1 #
coedge $-1 $81 $204 $203 $205 reversed $49 $-1 #
coedge $-1 $206 $84 $81 $139 forward $79 $-1 #
edge $-1 $145 8.4519924836905389 $207 35.837006360941523 $138 $208 forward 7 unknown #
coedge $-1 $209 $210 $82 $141 forward $201 $-1 #
edge $-1 $211 -60.836042915116906 $144 -54.600578319164633 $140 $212 forward 7 unknown #
edge $-1 $145 66.833983816211102 $211 74.446080468486514 $83 $213 forward 7 unknown #
coedge $-1 $84 $206 $209 $214 forward $79 $-1 #
vertex $-1 $141 $215 #
vertex $-1 $85 $216 #
straight-curve $-1 30.59649190600657 44.756931246728186 12.059687952108114 0 -1 0 I I #
coedge $-1 $147 $147 $-1 $217 reversed $88 $-1 #
edge $-1 $218 0 $218 6.2831853071796004 $89 $219 forward 7 unknown #
vertex $-1 $92 $220 #
ellipse-curve $-1 38.420781585221121 35.039980642969574 8.9419556541319842 0 0.81915205242281985 0.57357642473473569 1 0 0 1 I I #
coedge $-1 $151 $151 $-1 $221 reversed $95 $-1 #
edge $-1 $222 0 $222 6.2831853071796004 $96 $223 forward 7 unknown #
vertex $-1 $99 $224 #
ellipse-curve $-1 50.157216104042973 35.039980642969574 8.9419556541319842 0 0.81915205242281985 0.57357642473473569 1 0 0 1 I I #
face $-1 $-1 $115 $15 $-1 $225 reversed single #
loop $-1 $-1 $170 $100 #
plane-surface $-1 0 37.223040234243264 0 0 -1 0 0 0 -1 forward_v I I I I #
coedge $-1 $168 $226 $103 $160 reversed $101 $-1 #
coedge $-1 $174 $103 $104 $162 reversed $63 $-1 #
edge $-1 $175 -12.059687952108112 $227 12.059687952108112 $158 $228 forward 7 unknown #
coedge $-1 $105 $104 $226 $229 forward $41 $-1 #
edge $-1 $166 -57.981505783257546 $227 57.981505783257546 $159 $230 forward 7 unknown #
coedge $-1 $171 $170 $105 $164 reversed $156 $-1 #
edge $-1 $231 -57.981505783257546 $165 57.981505783257546 $163 $232 forward 7 unknown #
vertex $-1 $107 $233 #
vertex $-1 $177 $234 #
straight-curve $-1 57.981505783257546 0 -12.059687952108112 0 -1 0 I I #
coedge $-1 $235 $158 $108 $169 reversed $101 $-1 #
edge $-1 $172 -37.223040234243264 $175 37.223040234243264 $168 $236 forward 7 unknown #
coedge $-1 $163 $109 $114 $178 forward $156 $-1 #
coedge $-1 $109 $163 $235 $237 reversed $156 $-1 #
vertex $-1 $110 $238 #
straight-curve $-1 0 37.223040234243264 12.059687952108112 -1 0 0 I I #
coedge $-1 $111 $159 $113 $177 reversed $63 $-1 #
vertex $-1 $169 $239 #
straight-curve $-1 0 -37.223040234243264 12.059687952108112 1 0 0 I I #
edge $-1 $116 -12.059687952108112 $166 12.059687952108112 $113 $240 forward 7 unknown #
edge $-1 $117 -12.059687952108112 $165 12.059687952108112 $114 $241 forward 7 unknown #
point $-1 57.981505783257546 -37.223040234243264 12.059687952108112 #
point $-1 57.981505783257546 37.223040234243264 12.059687952108112 #
face $-1 $-1 $194 $16 $-1 $242 reversed single #
loop $-1 $-1 $243 $119 #
plane-surface $-1 -67.534381839688919 0 -7.1282436187696394 1 0 0 0 0 -1 forward_v I I I I #
coedge $-1 $244 $186 $125 $191 reversed $120 $-1 #
coedge $-1 $123 $122 $243 $245 reversed $45 $-1 #
coedge $-1 $184 $246 $122 $187 forward $120 $-1 #
edge $-1 $247 -4.7764380282156864 $189 4.7764380282156864 $122 $248 forward 7 unknown #
edge $-1 $130 -4.7764380282156864 $249 4.7764380282156864 $123 $250 forward 7 unknown #
vertex $-1 $124 $251 #
straight-curve $-1 -57.981505783257546 37.223040234243264 0 0 0 -1 I I #
edge $-1 $195 -37.223040234243264 $189 37.223040234243264 $184 $252 forward 7 unknown #
coedge $-1 $253 $126 $129 $198 reversed $194 $-1 #
coedge $-1 $126 $253 $244 $254 reversed $194 $-1 #
loop $-1 $-1 $126 $181 #
vertex $-1 $127 $255 #
straight-curve $-1 -57.981505783257546 -37.223040234243264 0 0 0 1 I I #
coedge $-1 $129 $128 $256 $257 forward $71 $-1 #
edge $-1 $258 -4.7764380282156864 $131 4.7764380282156864 $192 $259 forward 7 unknown #
point $-1 -57.981505783257546 37.223040234243264 -5.2481659807266734 #
point $-1 -57.981505783257546 -37.223040234243264 -5.2481659807266734 #
loop $-1 $-1 $140 $133 #
plane-surface $-1 0 37.223040234243264 0 0 -1 0 0 0 -1 forward_v I I I I #
coedge $-1 $260 $261 $137 $205 forward $134 $-1 #
coedge $-1 $137 $136 $210 $262 reversed $49 $-1 #
edge $-1 $207 37.9006104916431 $263 45.512707143918497 $203 $264 forward 7 unknown #
coedge $-1 $143 $138 $261 $265 forward $79 $-1 #
vertex $-1 $265 $266 #
straight-curve $-1 22.144499422316031 32.856921051695892 12.059687952108114 1 0 0 I I #
coedge $-1 $267 $140 $143 $214 reversed $201 $-1 #
coedge $-1 $140 $267 $204 $262 forward $201 $-1 #
vertex $-1 $141 $268 #
straight-curve $-1 30.59649190600657 37.223040234243264 66.660266271272747 0 0 1 I I #
straight-curve $-1 30.59649190600657 -5.4774764363856576 66.806882966750962 0 0.57357642473473569 -0.81915205242281985 I I #
edge $-1 $269 -57.981505783257546 $144 -30.59649190600657 $209 $270 forward 7 unknown #
point $-1 30.59649190600657 37.223040234243264 12.059687952108112 #
point $-1 30.59649190600657 32.856921051695892 12.059687952108114 #
edge $-1 $271 1 $271 0 $147 $-1 forward 7 unknown #
vertex $-1 $148 $272 #
ellipse-curve $-1 38.420781585221121 34.00573461615037 8.217768811647133 0 0.81915205242281985 0.57357642473473569 1 0 0 1 I I #
point $-1 39.420781585221121 35.03998064296956 8.9419556541319736 #
edge $-1 $273 1 $273 0 $151 $-1 forward 7 unknown #
vertex $-1 $152 $274 #
ellipse-curve $-1 50.157216104042973 34.00573461615037 8.217768811647133 0 0.81915205242281985 0.57357642473473569 1 0 0 1 I I #
point $-1 51.157216104042973 35.03998064296956 8.9419556541319736 #
plane-surface $-1 57.981505783257546 0 0 -1 0 0 0 0 1 forward_v I I I I #
coedge $-1 $158 $235 $161 $229 reversed $101 $-1 #
vertex $-1 $229 $275 #
straight-curve $-1 -57.981505783257546 -37.223040234243264 0 0 0 -1 I I #
edge $-1 $227 -37.223040234243264 $231 37.223040234243264 $226 $276 forward 7 unknown #
straight-curve $-1 0 -37.223040234243264 -12.059687952108112 -1 0 0 I I #
vertex $-1 $164 $277 #
straight-curve $-1 0 37.223040234243264 -12.059687952108112 1 0 0 I I #
point $-1 57.981505783257546 37.223040234243264 -12.059687952108112 #
point $-1 57.981505783257546 -37.223040234243264 -12.059687952108112 #
coedge $-1 $226 $168 $171 $237 forward $101 $-1 #
straight-curve $-1 -57.981505783257546 0 12.059687952108112 0 -1 0 I I #
edge $-1 $172 -12.059687952108112 $231 12.059687952108112 $171 $278 forward 7 unknown #
point $-1 -57.981505783257546 37.223040234243264 12.059687952108112 #
point $-1 -57.981505783257546 -37.223040234243264 12.059687952108112 #
straight-curve $-1 57.981505783257546 -37.223040234243264 0 0 0 -1 I I #
straight-curve $-1 57.981505783257546 37.223040234243264 0 0 0 -1 I I #
plane-surface $-1 0 -37.223040234243264 0 0 1 0 0 0 1 forward_v I I I I #
coedge $-1 $279 $256 $185 $245 forward $182 $-1 #
coedge $-1 $246 $184 $193 $254 forward $120 $-1 #
edge $-1 $249 -1.880077638042966 $247 1.880077638042966 $185 $280 forward 7 unknown #
coedge $-1 $186 $244 $279 $281 forward $120 $-1 #
vertex $-1 $187 $282 #
straight-curve $-1 -62.757943811473233 37.223040234243264 -9.0083212568126054 1 0 0 I I #
vertex $-1 $188 $283 #
straight-curve $-1 -62.757943811473233 37.223040234243264 -5.2481659807266734 -1 0 0 I I #
point $-1 -57.981505783257546 37.223040234243264 -9.0083212568126054 #
straight-curve $-1 -57.981505783257546 0 -9.0083212568126054 0 1 0 I I #
coedge $-1 $193 $192 $284 $285 forward $194 $-1 #
edge $-1 $195 -4.7764380282156864 $286 4.7764380282156864 $193 $287 forward 7 unknown #
point $-1 -57.981505783257546 -37.223040234243264 -9.0083212568126054 #
coedge $-1 $243 $284 $197 $257 reversed $182 $-1 #
edge $-1 $249 -37.223040234243264 $258 37.223040234243264 $256 $288 forward 7 unknown #
vertex $-1 $257 $289 #
straight-curve $-1 -62.757943811473233 -37.223040234243264 -5.2481659807266734 1 0 0 I I #
coedge $-1 $261 $203 $267 $290 reversed $134 $-1 #
coedge $-1 $203 $260 $206 $265 reversed $134 $-1 #
edge $-1 $263 -35.837006360941523 $211 -8.4519924836905389 $210 $291 forward 7 unknown #
vertex $-1 $205 $292 #
straight-curve $-1 57.981505783257546 11.118024390635433 43.106050824415412 0 0.57357642473473569 -0.81915205242281985 I I #
edge $-1 $207 32.856921051695892 $269 37.223040234243264 $261 $293 forward 7 unknown #
point $-1 57.981505783257553 32.856921051695892 12.059687952108114 #
coedge $-1 $210 $209 $260 $290 forward $201 $-1 #
point $-1 30.59649190600657 37.223040234243264 5.8242233561558407 #
vertex $-1 $265 $294 #
straight-curve $-1 0 37.223040234243264 12.059687952108112 -1 0 0 I I #
vertex $-1 $217 $295 #
point $-1 39.420781585221121 34.00573461615037 8.217768811647133 #
vertex $-1 $221 $296 #
point $-1 51.157216104042973 34.00573461615037 8.217768811647133 #
point $-1 -57.981505783257546 -37.223040234243264 -12.059687952108112 #
straight-curve $-1 -57.981505783257546 0 -12.059687952108112 0 1 0 I I #
point $-1 -57.981505783257546 37.223040234243264 -12.059687952108112 #
straight-curve $-1 -57.981505783257546 37.223040234243264 0 0 0 -1 I I #
coedge $-1 $284 $243 $246 $281 reversed $182 $-1 #
straight-curve $-1 -67.534381839688919 37.223040234243264 -7.1282436187696394 0 0 -1 I I #
edge $-1 $286 -37.223040234243264 $247 37.223040234243264 $279 $297 forward 7 unknown #
point $-1 -67.534381839688919 37.223040234243264 -9.0083212568126054 #
point $-1 -67.534381839688919 37.223040234243264 -5.2481659807266734 #
coedge $-1 $256 $279 $253 $285 reversed $182 $-1 #
edge $-1 $258 -1.880077638042966 $286 1.880077638042966 $284 $298 forward 7 unknown #
vertex $-1 $281 $299 #
straight-curve $-1 -62.757943811473233 -37.223040234243264 -9.0083212568126054 -1 0 0 I I #
straight-curve $-1 -67.534381839688919 0 -5.2481659807266734 0 -1 0 I I #
point $-1 -67.534381839688919 -37.223040234243264 -5.2481659807266734 #
edge $-1 $269 -12.059687952108112 $263 -5.8242233561558407 $260 $300 forward 7 unknown #
straight-curve $-1 22.144499422316031 37.223040234243271 5.8242233561558407 -1 0 0 I I #
point $-1 57.981505783257553 37.223040234243264 5.8242233561558407 #
straight-curve $-1 57.981505783257546 0 12.059687952108112 0 1 0 I I #
point $-1 57.981505783257546 37.223040234243264 12.059687952108112 #
point $-1 38.420781585221121 33.186582563727548 7.6441923869123976 #
point $-1 50.157216104042973 33.186582563727548 7.6441923869123976 #
straight-curve $-1 -67.534381839688919 0 -9.0083212568126054 0 1 0 I I #
straight-curve $-1 -67.534381839688919 -37.223040234243264 -7.1282436187696394 0 0 -1 I I #
point $-1 -67.534381839688919 -37.223040234243264 -9.0083212568126054 #
straight-curve $-1 57.981505783257546 37.223040234243264 0 0 0 -1 I I #
End-of-ACIS-data 