500 0 14 0           
7 Unknown 11 ACIS 5.0 NT 24 Thu Mar 25 18:17:19 1999 
-1 9.9999999999999995e-007 1e-010 
body $-1 $14 $-1 $15 #
body $-1 $16 $-1 $17 #
body $-1 $18 $-1 $19 #
body $-1 $20 $-1 $21 #
body $-1 $22 $-1 $23 #
body $-1 $24 $-1 $25 #
body $-1 $26 $-1 $27 #
body $-1 $28 $-1 $29 #
body $-1 $30 $-1 $31 #
body $-1 $32 $-1 $33 #
body $-1 $34 $-1 $35 #
body $-1 $36 $-1 $37 #
body $-1 $38 $-1 $39 #
body $-1 $40 $-1 $41 #
lump $-1 $-1 $42 $0 #
transform $-1 1 0 0 0 1 0 0 0 1 68.578753013702809 31.8806333554042 9.3583139112202911 1 rotate no_reflect no_shear #
lump $-1 $-1 $43 $1 #
transform $-1 1 0 0 0 1 0 0 0 1 68.578753013702809 31.8806333554042 9.3583139112202911 1 rotate no_reflect no_shear #
lump $-1 $-1 $44 $2 #
transform $-1 1 0 0 0 1 0 0 0 1 68.578753013702809 31.8806333554042 9.3583139112202911 1 rotate no_reflect no_shear #
lump $-1 $-1 $45 $3 #
transform $-1 1 0 0 0 1 0 0 0 1 68.578753013702809 31.8806333554042 9.3583139112202911 1 rotate no_reflect no_shear #
lump $-1 $-1 $46 $4 #
transform $-1 1 0 0 0 1 0 0 0 1 68.578753013702809 31.8806333554042 9.3583139112202911 1 rotate no_reflect no_shear #
lump $-1 $-1 $47 $5 #
transform $-1 1 0 0 0 1 0 0 0 1 68.578753013702809 31.8806333554042 9.3583139112202911 1 rotate no_reflect no_shear #
lump $-1 $-1 $48 $6 #
transform $-1 1 0 0 0 1 0 0 0 1 68.578753013702809 31.8806333554042 9.3583139112202911 1 rotate no_reflect no_shear #
lump $-1 $-1 $49 $7 #
transform $-1 1 0 0 0 1 0 0 0 1 68.578753013702809 31.8806333554042 9.3583139112202911 1 rotate no_reflect no_shear #
lump $-1 $-1 $50 $8 #
transform $-1 1 0 0 0 1 0 0 0 1 68.578753013702809 31.8806333554042 9.3583139112202911 1 rotate no_reflect no_shear #
lump $-1 $-1 $51 $9 #
transform $-1 1 0 0 0 1 0 0 0 1 68.578753013702809 31.8806333554042 9.3583139112202911 1 rotate no_reflect no_shear #
lump $-1 $-1 $52 $10 #
transform $-1 1 0 0 0 1 0 0 0 1 68.578753013702809 31.8806333554042 9.3583139112202911 1 rotate no_reflect no_shear #
lump $-1 $-1 $53 $11 #
transform $-1 1 0 0 0 1 0 0 0 1 68.578753013702809 31.8806333554042 9.3583139112202911 1 rotate no_reflect no_shear #
lump $-1 $-1 $54 $12 #
transform $-1 1 0 0 0 1 0 0 0 1 68.578753013702809 31.8806333554042 9.3583139112202911 1 rotate no_reflect no_shear #
lump $-1 $-1 $55 $13 #
transform $-1 1 0 0 0 1 0 0 0 1 68.578753013702809 31.8806333554042 9.3583139112202911 1 rotate no_reflect no_shear #
shell $-1 $-1 $-1 $56 $-1 $14 #
shell $-1 $-1 $-1 $57 $-1 $16 #
shell $-1 $-1 $-1 $58 $-1 $18 #
shell $-1 $-1 $-1 $59 $-1 $20 #
shell $-1 $-1 $-1 $60 $-1 $22 #
shell $-1 $-1 $-1 $61 $-1 $24 #
shell $-1 $-1 $-1 $62 $-1 $26 #
shell $-1 $-1 $-1 $63 $-1 $28 #
shell $-1 $-1 $-1 $64 $-1 $30 #
shell $-1 $-1 $-1 $65 $-1 $32 #
shell $-1 $-1 $-1 $66 $-1 $34 #
shell $-1 $-1 $-1 $67 $-1 $36 #
shell $-1 $-1 $-1 $68 $-1 $38 #
shell $-1 $-1 $-1 $69 $-1 $40 #
face $-1 $70 $71 $42 $-1 $72 forward single #
face $-1 $73 $74 $43 $-1 $75 reversed single #
face $-1 $76 $77 $44 $-1 $78 reversed single #
face $-1 $79 $80 $45 $-1 $81 reversed single #
face $-1 $82 $83 $46 $-1 $84 forward single #
face $-1 $85 $86 $47 $-1 $87 forward single #
face $-1 $88 $89 $48 $-1 $90 forward single #
face $-1 $91 $92 $49 $-1 $93 reversed single #
face $-1 $94 $95 $50 $-1 $96 forward single #
face $-1 $97 $98 $51 $-1 $99 forward single #
face $-1 $100 $101 $52 $-1 $102 forward single #
face $-1 $103 $104 $53 $-1 $105 reversed single #
face $-1 $106 $107 $54 $-1 $108 forward single #
face $-1 $109 $110 $55 $-1 $111 forward single #
face $-1 $112 $113 $42 $-1 $114 reversed single #
loop $-1 $-1 $115 $56 #
plane-surface $-1 0 0 9.3583139112202911 0 0 1 1 0 0 forward_v I I I I #
face $-1 $116 $117 $43 $-1 $118 reversed single #
loop $-1 $-1 $119 $57 #
plane-surface $-1 -65.859509793996409 -22.957742223894236 0 0 -1 0 0 0 -1 forward_v I I I I #
face $-1 $120 $121 $44 $-1 $122 reversed single #
loop $-1 $-1 $123 $58 #
plane-surface $-1 -65.859509793996409 22.957742223894233 0 0 1 0 0 0 1 forward_v I I I I #
face $-1 $124 $125 $45 $-1 $126 reversed single #
loop $-1 $-1 $127 $59 #
plane-surface $-1 92.217752769604189 -9.3981340379368241 193.01667129974217 0 -1 0 -0.78801076186113728 0 -0.61566146476048833 forward_v I I I I #
face $-1 $128 $129 $46 $-1 $130 forward single #
loop $-1 $131 $132 $60 #
cone-surface $-1 64.582554750506404 -16.909027362433307 4.5091110234254588 -0.78801076186113728 0 -0.61566146476048833 0.30783073238024417 0 -0.39400538093056864 1 I I 0 1 0.5 forward I I I I #
face $-1 $133 $134 $47 $-1 $135 forward single #
loop $-1 $136 $137 $61 #
cone-surface $-1 64.582554750506404 -14.092442365747125 4.5091110234254588 -0.78801076186113728 0 -0.61566146476048833 0.30783073238024417 0 -0.39400538093056864 1 I I 0 1 0.5 forward I I I I #
face $-1 $138 $139 $48 $-1 $140 forward single #
loop $-1 $141 $142 $62 #
cone-surface $-1 64.582554750506404 -11.275857369060944 4.5091110234254588 -0.78801076186113728 0 -0.61566146476048833 0.30783073238024417 0 -0.39400538093056864 1 I I 0 1 0.5 forward I I I I #
face $-1 $143 $144 $49 $-1 $145 reversed single #
loop $-1 $-1 $146 $63 #
plane-surface $-1 92.217752769604189 18.786750693557433 193.01667129974217 0 -1 0 -0.78801076186113728 0 -0.61566146476048833 forward_v I I I I #
face $-1 $147 $148 $50 $-1 $149 forward single #
loop $-1 $150 $151 $64 #
cone-surface $-1 64.582554750506404 11.275857369060944 4.5091110234254588 -0.78801076186113728 0 -0.61566146476048833 0.30783073238024417 0 -0.39400538093056864 1 I I 0 1 0.5 forward I I I I #
face $-1 $152 $153 $51 $-1 $154 forward single #
loop $-1 $155 $156 $65 #
cone-surface $-1 64.582554750506404 14.092442365747132 4.5091110234254588 -0.78801076186113728 0 -0.61566146476048833 0.30783073238024417 0 -0.39400538093056864 1 I I 0 1 0.5 forward I I I I #
face $-1 $157 $158 $52 $-1 $159 forward single #
loop $-1 $160 $161 $66 #
cone-surface $-1 64.582554750506404 16.909027362433307 4.5091110234254588 -0.78801076186113728 0 -0.61566146476048833 0.30783073238024417 0 -0.39400538093056864 1 I I 0 1 0.5 forward I I I I #
face $-1 $162 $163 $53 $-1 $164 reversed single #
loop $-1 $-1 $165 $67 #
plane-surface $-1 -178.11760892468953 -16.770928822354538 87.861478061882806 0 1 0 -0.79863551827123203 0 0.60181501223851219 forward_v I I I I #
face $-1 $166 $167 $54 $-1 $168 forward single #
loop $-1 $169 $170 $68 #
cone-surface $-1 -66.407617389061315 -15.021255894761676 6.8492291983282492 0.79863551827123203 0 -0.60181501223851219 0.3009075061192561 0 0.39931775913561601 1 I I 0 1 0.5 forward I I I I #
face $-1 $171 $172 $55 $-1 $173 forward single #
loop $-1 $174 $175 $69 #
cone-surface $-1 -66.407617389061315 -12.396746503372384 6.8492291983282492 0.79863551827123203 0 -0.60181501223851219 0.3009075061192561 0 0.39931775913561601 1 I I 0 1 0.5 forward I I I I #
face $-1 $176 $177 $42 $-1 $178 reversed single #
loop $-1 $-1 $179 $70 #
plane-surface $-1 0 0 -9.3583139112202911 0 0 1 1 0 0 forward_v I I I I #
coedge $-1 $180 $181 $182 $183 forward $71 $-1 #
face $-1 $184 $185 $43 $-1 $186 forward single #
loop $-1 $-1 $187 $73 #
plane-surface $-1 -63.14026657429001 -27.419187789649218 0 -1 0 0 0 0 1 forward_v I I I I #
coedge $-1 $188 $189 $190 $191 forward $74 $-1 #
face $-1 $192 $193 $44 $-1 $194 reversed single #
loop $-1 $-1 $195 $76 #
plane-surface $-1 -63.14026657429001 27.419187789649214 0 -1 0 0 0 0 1 forward_v I I I I #
coedge $-1 $196 $197 $198 $199 reversed $77 $-1 #
face $-1 $200 $201 $45 $-1 $202 reversed single #
loop $-1 $-1 $203 $79 #
plane-surface $-1 -15.863838050025237 -14.092442365747125 108.57408023601413 0.78801076186113728 0 0.61566146476048833 0.61566146476048833 0 -0.78801076186113728 forward_v I I I I #
coedge $-1 $204 $205 $206 $207 reversed $80 $-1 #
face $-1 $-1 $208 $46 $-1 $209 forward single #
loop $-1 $210 $211 $82 #
cone-surface $-1 63.852724323605216 -16.909027362433307 3.9389050168583299 -0.78801076186113728 0 -0.61566146476048833 0.15391536619012208 0 -0.19700269046528432 1 I I -0.70710678118654813 0.70710678118654691 0.25 forward I I I I #
loop $-1 $-1 $212 $60 #
coedge $-1 $132 $132 $213 $214 reversed $83 $-1 #
face $-1 $-1 $215 $47 $-1 $216 forward single #
loop $-1 $217 $218 $85 #
cone-surface $-1 63.852724323605216 -14.092442365747125 3.9389050168583299 -0.78801076186113728 0 -0.61566146476048833 0.15391536619012208 0 -0.19700269046528432 1 I I -0.70710678118654813 0.70710678118654691 0.25 forward I I I I #
loop $-1 $-1 $219 $61 #
coedge $-1 $137 $137 $220 $221 reversed $86 $-1 #
face $-1 $-1 $222 $48 $-1 $223 forward single #
loop $-1 $224 $225 $88 #
cone-surface $-1 63.852724323605216 -11.275857369060944 3.9389050168583299 -0.78801076186113728 0 -0.61566146476048833 0.15391536619012208 0 -0.19700269046528432 1 I I -0.70710678118654813 0.70710678118654691 0.25 forward I I I I #
loop $-1 $-1 $226 $62 #
coedge $-1 $142 $142 $227 $228 reversed $89 $-1 #
face $-1 $229 $230 $49 $-1 $231 reversed single #
loop $-1 $-1 $232 $91 #
plane-surface $-1 -15.863838050025237 14.092442365747132 108.57408023601413 0.78801076186113728 0 0.61566146476048833 0.61566146476048833 0 -0.78801076186113728 forward_v I I I I #
coedge $-1 $233 $234 $235 $236 reversed $92 $-1 #
face $-1 $-1 $237 $50 $-1 $238 forward single #
loop $-1 $239 $240 $94 #
cone-surface $-1 63.852724323605216 11.275857369060944 3.9389050168583299 -0.78801076186113728 0 -0.61566146476048833 0.15391536619012208 0 -0.19700269046528432 1 I I -0.70710678118654813 0.70710678118654691 0.25 forward I I I I #
loop $-1 $-1 $241 $64 #
coedge $-1 $151 $151 $242 $243 reversed $95 $-1 #
face $-1 $-1 $244 $51 $-1 $245 forward single #
loop $-1 $246 $247 $97 #
cone-surface $-1 63.852724323605216 14.092442365747132 3.9389050168583299 -0.78801076186113728 0 -0.61566146476048833 0.15391536619012208 0 -0.19700269046528432 1 I I -0.70710678118654813 0.70710678118654691 0.25 forward I I I I #
loop $-1 $-1 $248 $65 #
coedge $-1 $156 $156 $249 $250 reversed $98 $-1 #
face $-1 $-1 $251 $52 $-1 $252 forward single #
loop $-1 $253 $254 $100 #
cone-surface $-1 63.852724323605216 16.909027362433307 3.9389050168583299 -0.78801076186113728 0 -0.61566146476048833 0.15391536619012208 0 -0.19700269046528432 1 I I -0.70710678118654813 0.70710678118654691 0.25 forward I I I I #
loop $-1 $-1 $255 $66 #
coedge $-1 $161 $161 $256 $257 reversed $101 $-1 #
face $-1 $258 $259 $53 $-1 $260 reversed single #
loop $-1 $-1 $261 $103 #
plane-surface $-1 -68.578753013702823 -13.709001199067028 5.318031893395883 -0.79863551827123203 0 0.60181501223851219 0.60181501223851219 0 0.79863551827123203 forward_v I I I I #
coedge $-1 $262 $263 $264 $265 reversed $104 $-1 #
face $-1 $-1 $266 $54 $-1 $267 forward single #
loop $-1 $268 $269 $106 #
cone-surface $-1 -65.559108280615135 -15.021255894761676 6.2098317412887774 0.79863551827123203 0 -0.60181501223851219 0.15045375305962805 0 0.19965887956780801 1 I I -0.70710678118654746 0.70710678118654746 0.25 forward I I I I #
loop $-1 $-1 $270 $68 #
coedge $-1 $170 $170 $271 $272 reversed $107 $-1 #
face $-1 $-1 $273 $55 $-1 $274 forward single #
loop $-1 $275 $276 $109 #
cone-surface $-1 -65.559108280615135 -12.396746503372384 6.2098317412887774 0.79863551827123203 0 -0.60181501223851219 0.15045375305962805 0 0.19965887956780801 1 I I -0.70710678118654746 0.70710678118654746 0.25 forward I I I I #
loop $-1 $-1 $277 $69 #
coedge $-1 $175 $175 $278 $279 reversed $110 $-1 #
face $-1 $280 $281 $42 $-1 $282 reversed single #
loop $-1 $-1 $283 $112 #
plane-surface $-1 0 -31.8806333554042 0 0 1 0 0 0 1 forward_v I I I I #
coedge $-1 $284 $285 $286 $287 forward $113 $-1 #
coedge $-1 $288 $115 $289 $290 forward $71 $-1 #
coedge $-1 $115 $288 $291 $292 forward $71 $-1 #
coedge $-1 $293 $294 $115 $183 reversed $295 $-1 #
edge $-1 $296 -31.8806333554042 $297 31.8806333554042 $182 $298 forward 7 unknown #
face $-1 $299 $300 $43 $-1 $301 reversed single #
loop $-1 $-1 $302 $116 #
plane-surface $-1 0 0 9.3583139112202911 0 0 1 1 0 0 forward_v I I I I #
coedge $-1 $303 $304 $305 $306 reversed $117 $-1 #
coedge $-1 $307 $119 $308 $309 reversed $74 $-1 #
coedge $-1 $119 $307 $310 $311 reversed $74 $-1 #
coedge $-1 $304 $303 $119 $191 reversed $117 $-1 #
edge $-1 $312 -9.3583139112202911 $313 9.3583139112202911 $190 $314 forward 7 unknown #
face $-1 $315 $316 $44 $-1 $317 reversed single #
loop $-1 $-1 $318 $120 #
plane-surface $-1 0 0 -9.3583139112202911 0 0 1 1 0 0 forward_v I I I I #
coedge $-1 $319 $320 $321 $322 forward $121 $-1 #
coedge $-1 $321 $123 $323 $324 reversed $77 $-1 #
coedge $-1 $123 $321 $325 $326 reversed $77 $-1 #
coedge $-1 $327 $328 $123 $199 forward $316 $-1 #
edge $-1 $329 -9.3583139112202911 $330 9.3583139112202911 $198 $331 forward 7 unknown #
face $-1 $332 $333 $45 $-1 $334 reversed single #
loop $-1 $-1 $335 $124 #
plane-surface $-1 92.217752769604189 -18.786750693557426 193.01667129974217 0 1 0 0.78801076186113728 0 0.61566146476048833 forward_v I I I I #
coedge $-1 $336 $337 $338 $339 reversed $125 $-1 #
coedge $-1 $205 $127 $340 $341 reversed $80 $-1 #
coedge $-1 $127 $204 $336 $342 reversed $80 $-1 #
coedge $-1 $338 $343 $127 $207 forward $344 $-1 #
edge $-1 $345 -22.469876628900714 $346 -15.543135575379715 $206 $347 forward 7 unknown #
loop $-1 $-1 $213 $128 #
plane-surface $-1 -15.863838050025237 -14.092442365747125 108.57408023601413 0.78801076186113728 0 0.61566146476048833 0.61566146476048833 0 -0.78801076186113728 forward_v I I I I #
loop $-1 $-1 $348 $82 #
coedge $-1 $211 $211 $212 $349 reversed $129 $-1 #
coedge $-1 $212 $212 $211 $349 forward $131 $-1 #
coedge $-1 $213 $213 $132 $214 forward $208 $-1 #
edge $-1 $350 0 $350 6.2831853071796004 $213 $351 forward 7 unknown #
loop $-1 $-1 $220 $133 #
plane-surface $-1 -15.863838050025237 -14.092442365747125 108.57408023601413 0.78801076186113728 0 0.61566146476048833 0.61566146476048833 0 -0.78801076186113728 forward_v I I I I #
loop $-1 $-1 $352 $85 #
coedge $-1 $218 $218 $219 $353 reversed $134 $-1 #
coedge $-1 $219 $219 $218 $353 forward $136 $-1 #
coedge $-1 $220 $220 $137 $221 forward $215 $-1 #
edge $-1 $354 0 $354 6.2831853071796004 $220 $355 forward 7 unknown #
loop $-1 $-1 $227 $138 #
plane-surface $-1 -15.863838050025237 -14.092442365747125 108.57408023601413 0.78801076186113728 0 0.61566146476048833 0.61566146476048833 0 -0.78801076186113728 forward_v I I I I #
loop $-1 $-1 $356 $88 #
coedge $-1 $225 $225 $226 $357 reversed $139 $-1 #
coedge $-1 $226 $226 $225 $357 forward $141 $-1 #
coedge $-1 $227 $227 $142 $228 forward $222 $-1 #
edge $-1 $358 0 $358 6.2831853071796004 $227 $359 forward 7 unknown #
face $-1 $360 $361 $49 $-1 $362 reversed single #
loop $-1 $-1 $363 $143 #
plane-surface $-1 92.217752769604189 9.3981340379368312 193.01667129974217 0 1 0 0.78801076186113728 0 0.61566146476048833 forward_v I I I I #
coedge $-1 $364 $365 $366 $367 reversed $144 $-1 #
coedge $-1 $234 $146 $368 $369 reversed $92 $-1 #
coedge $-1 $146 $233 $364 $370 reversed $92 $-1 #
coedge $-1 $366 $371 $146 $236 forward $372 $-1 #
edge $-1 $373 -22.469876628900714 $374 -15.543135575379715 $235 $375 forward 7 unknown #
loop $-1 $-1 $242 $147 #
plane-surface $-1 -15.863838050025237 14.092442365747132 108.57408023601413 0.78801076186113728 0 0.61566146476048833 0.61566146476048833 0 -0.78801076186113728 forward_v I I I I #
loop $-1 $-1 $376 $94 #
coedge $-1 $240 $240 $241 $377 reversed $148 $-1 #
coedge $-1 $241 $241 $240 $377 forward $150 $-1 #
coedge $-1 $242 $242 $151 $243 forward $237 $-1 #
edge $-1 $378 0 $378 6.2831853071796004 $242 $379 forward 7 unknown #
loop $-1 $-1 $249 $152 #
plane-surface $-1 -15.863838050025237 14.092442365747132 108.57408023601413 0.78801076186113728 0 0.61566146476048833 0.61566146476048833 0 -0.78801076186113728 forward_v I I I I #
loop $-1 $-1 $380 $97 #
coedge $-1 $247 $247 $248 $381 reversed $153 $-1 #
coedge $-1 $248 $248 $247 $381 forward $155 $-1 #
coedge $-1 $249 $249 $156 $250 forward $244 $-1 #
edge $-1 $382 0 $382 6.2831853071796004 $249 $383 forward 7 unknown #
loop $-1 $-1 $256 $157 #
plane-surface $-1 -15.863838050025237 14.092442365747132 108.57408023601413 0.78801076186113728 0 0.61566146476048833 0.61566146476048833 0 -0.78801076186113728 forward_v I I I I #
loop $-1 $-1 $384 $100 #
coedge $-1 $254 $254 $255 $385 reversed $158 $-1 #
coedge $-1 $255 $255 $254 $385 forward $160 $-1 #
coedge $-1 $256 $256 $161 $257 forward $251 $-1 #
edge $-1 $386 0 $386 6.2831853071796004 $256 $387 forward 7 unknown #
face $-1 $388 $389 $53 $-1 $390 forward single #
loop $-1 $-1 $391 $162 #
plane-surface $-1 -178.11760892468953 -10.647073575779519 87.861478061882806 0 -1 0 0.79863551827123203 0 -0.60181501223851219 forward_v I I I I #
coedge $-1 $392 $393 $394 $395 reversed $163 $-1 #
coedge $-1 $263 $165 $396 $397 reversed $104 $-1 #
coedge $-1 $165 $262 $392 $398 reversed $104 $-1 #
coedge $-1 $394 $399 $165 $265 forward $389 $-1 #
edge $-1 $400 20.480051448641959 $401 23.524622240168213 $264 $402 forward 7 unknown #
loop $-1 $-1 $271 $166 #
plane-surface $-1 -68.578753013702823 -13.709001199067028 5.318031893395883 -0.79863551827123203 0 0.60181501223851219 0.60181501223851219 0 0.79863551827123203 forward_v I I I I #
loop $-1 $-1 $403 $106 #
coedge $-1 $269 $269 $270 $404 reversed $167 $-1 #
coedge $-1 $270 $270 $269 $404 forward $169 $-1 #
coedge $-1 $271 $271 $170 $272 forward $266 $-1 #
edge $-1 $405 0 $405 6.2831853071796004 $271 $406 forward 7 unknown #
loop $-1 $-1 $278 $171 #
plane-surface $-1 -68.578753013702823 -13.709001199067028 5.318031893395883 -0.79863551827123203 0 0.60181501223851219 0.60181501223851219 0 0.79863551827123203 forward_v I I I I #
loop $-1 $-1 $407 $109 #
coedge $-1 $276 $276 $277 $408 reversed $172 $-1 #
coedge $-1 $277 $277 $276 $408 forward $174 $-1 #
coedge $-1 $278 $278 $175 $279 forward $273 $-1 #
edge $-1 $409 0 $409 6.2831853071796004 $278 $410 forward 7 unknown #
face $-1 $411 $412 $42 $-1 $413 reversed single #
loop $-1 $-1 $414 $176 #
plane-surface $-1 -68.578753013702809 0 0 1 0 0 0 0 -1 forward_v I I I I #
coedge $-1 $415 $291 $416 $417 forward $177 $-1 #
coedge $-1 $418 $179 $415 $419 forward $113 $-1 #
coedge $-1 $179 $418 $420 $421 forward $113 $-1 #
coedge $-1 $294 $293 $179 $287 reversed $295 $-1 #
edge $-1 $422 -31.8806333554042 $423 31.8806333554042 $286 $424 forward 7 unknown #
coedge $-1 $181 $180 $425 $426 forward $71 $-1 #
coedge $-1 $427 $428 $180 $290 reversed $412 $-1 #
edge $-1 $297 -68.578753013702809 $429 68.578753013702809 $289 $430 forward 7 unknown #
coedge $-1 $283 $431 $181 $292 reversed $177 $-1 #
edge $-1 $432 -68.578753013702809 $296 68.578753013702809 $291 $433 forward 7 unknown #
coedge $-1 $286 $182 $431 $434 forward $295 $-1 #
coedge $-1 $182 $286 $427 $435 reversed $295 $-1 #
loop $-1 $-1 $293 $411 #
vertex $-1 $183 $436 #
vertex $-1 $183 $437 #
straight-curve $-1 68.578753013702809 0 9.3583139112202911 0 1 0 I I #
face $-1 $438 $439 $43 $-1 $440 reversed single #
loop $-1 $-1 $441 $184 #
plane-surface $-1 -68.578753013702809 0 0 1 0 0 0 0 -1 forward_v I I I I #
coedge $-1 $310 $442 $304 $443 forward $185 $-1 #
coedge $-1 $190 $187 $444 $445 reversed $117 $-1 #
coedge $-1 $187 $190 $302 $443 reversed $117 $-1 #
coedge $-1 $446 $447 $187 $306 forward $448 $-1 #
edge $-1 $449 -9.3583139112202911 $450 9.3583139112202911 $305 $451 forward 7 unknown #
coedge $-1 $189 $188 $441 $452 reversed $74 $-1 #
coedge $-1 $444 $453 $188 $309 forward $439 $-1 #
edge $-1 $454 -35.648998116704604 $313 -30.210511677291805 $308 $455 forward 7 unknown #
coedge $-1 $456 $302 $189 $311 forward $185 $-1 #
edge $-1 $312 30.210511677291805 $457 35.648998116704604 $310 $458 forward 7 unknown #
vertex $-1 $311 $459 #
vertex $-1 $309 $460 #
straight-curve $-1 -63.14026657429001 -22.957742223894236 0 0 0 -1 I I #
face $-1 $461 $462 $44 $-1 $463 forward single #
loop $-1 $-1 $198 $192 #
plane-surface $-1 -68.578753013702809 0 0 1 0 0 0 0 -1 forward_v I I I I #
coedge $-1 $323 $464 $319 $465 forward $193 $-1 #
coedge $-1 $466 $195 $318 $465 reversed $121 $-1 #
coedge $-1 $195 $466 $467 $468 reversed $121 $-1 #
coedge $-1 $197 $196 $195 $322 reversed $77 $-1 #
edge $-1 $469 -9.3583139112202911 $470 9.3583139112202911 $195 $471 forward 7 unknown #
coedge $-1 $472 $318 $196 $324 forward $193 $-1 #
edge $-1 $470 30.210511677291805 $329 35.648998116704604 $323 $473 forward 7 unknown #
coedge $-1 $467 $474 $197 $326 forward $462 $-1 #
edge $-1 $330 -35.648998116704604 $469 -30.210511677291805 $325 $475 forward 7 unknown #
coedge $-1 $476 $198 $474 $477 reversed $316 $-1 #
coedge $-1 $198 $476 $472 $478 reversed $316 $-1 #
vertex $-1 $478 $479 #
vertex $-1 $199 $480 #
straight-curve $-1 -68.578753013702809 22.957742223894233 0 0 0 1 I I #
face $-1 $-1 $344 $45 $-1 $481 forward single #
loop $-1 $-1 $482 $200 #
plane-surface $-1 68.578753013702809 0 0 -1 0 0 0 0 1 forward_v I I I I #
coedge $-1 $483 $484 $485 $486 reversed $201 $-1 #
coedge $-1 $487 $203 $205 $342 forward $125 $-1 #
coedge $-1 $203 $487 $483 $488 forward $125 $-1 #
coedge $-1 $485 $206 $203 $339 forward $344 $-1 #
edge $-1 $346 2.3519128550632615 $489 11.740529510683864 $338 $490 forward 7 unknown #
coedge $-1 $491 $492 $204 $341 forward $333 $-1 #
edge $-1 $493 -96.015846233486386 $345 -87.150021738650793 $340 $494 forward 7 unknown #
edge $-1 $346 125.90661336967574 $493 137.15750602740562 $205 $495 forward 7 unknown #
coedge $-1 $206 $485 $491 $496 forward $344 $-1 #
loop $-1 $-1 $485 $332 #
vertex $-1 $341 $497 #
vertex $-1 $207 $498 #
straight-curve $-1 46.108876384802095 -9.3981340379368241 9.3583139112202929 -1 0 0 I I #
coedge $-1 $348 $348 $-1 $499 reversed $210 $-1 #
edge $-1 $500 0 $500 6.2831853071796004 $211 $501 forward 7 unknown #
vertex $-1 $214 $502 #
ellipse-curve $-1 65.115382486942323 -16.909027362433307 4.9254016638024796 0.78801076186113728 0 0.61566146476048833 0.30783073238024417 0 -0.39400538093056864 1 I I #
coedge $-1 $352 $352 $-1 $503 reversed $217 $-1 #
edge $-1 $504 0 $504 6.2831853071796004 $218 $505 forward 7 unknown #
vertex $-1 $221 $506 #
ellipse-curve $-1 65.115382486942323 -14.092442365747125 4.9254016638024796 0.78801076186113728 0 0.61566146476048833 0.30783073238024417 0 -0.39400538093056864 1 I I #
coedge $-1 $356 $356 $-1 $507 reversed $224 $-1 #
edge $-1 $508 0 $508 6.2831853071796004 $225 $509 forward 7 unknown #
vertex $-1 $228 $510 #
ellipse-curve $-1 65.115382486942323 -11.275857369060944 4.9254016638024796 0.78801076186113728 0 0.61566146476048833 0.30783073238024417 0 -0.39400538093056864 1 I I #
face $-1 $-1 $372 $49 $-1 $511 forward single #
loop $-1 $-1 $512 $229 #
plane-surface $-1 68.578753013702809 0 0 -1 0 0 0 0 1 forward_v I I I I #
coedge $-1 $513 $514 $515 $516 reversed $230 $-1 #
coedge $-1 $517 $232 $234 $370 forward $144 $-1 #
coedge $-1 $232 $517 $513 $518 forward $144 $-1 #
coedge $-1 $515 $235 $232 $367 forward $372 $-1 #
edge $-1 $374 -11.740529510683867 $519 -2.3519128550632651 $366 $520 forward 7 unknown #
coedge $-1 $521 $522 $233 $369 forward $361 $-1 #
edge $-1 $523 -96.015846233486386 $373 -87.150021738650793 $368 $524 forward 7 unknown #
edge $-1 $374 125.90661336967574 $523 137.15750602740562 $234 $525 forward 7 unknown #
coedge $-1 $235 $515 $521 $526 forward $372 $-1 #
loop $-1 $-1 $515 $360 #
vertex $-1 $369 $527 #
vertex $-1 $236 $528 #
straight-curve $-1 46.108876384802095 18.786750693557433 9.3583139112202929 -1 0 0 I I #
coedge $-1 $376 $376 $-1 $529 reversed $239 $-1 #
edge $-1 $530 0 $530 6.2831853071796004 $240 $531 forward 7 unknown #
vertex $-1 $243 $532 #
ellipse-curve $-1 65.115382486942323 11.275857369060944 4.9254016638024796 0.78801076186113728 0 0.61566146476048833 0.30783073238024417 0 -0.39400538093056864 1 I I #
coedge $-1 $380 $380 $-1 $533 reversed $246 $-1 #
edge $-1 $534 0 $534 6.2831853071796004 $247 $535 forward 7 unknown #
vertex $-1 $250 $536 #
ellipse-curve $-1 65.115382486942323 14.092442365747132 4.9254016638024796 0.78801076186113728 0 0.61566146476048833 0.30783073238024417 0 -0.39400538093056864 1 I I #
coedge $-1 $384 $384 $-1 $537 reversed $253 $-1 #
edge $-1 $538 0 $538 6.2831853071796004 $254 $539 forward 7 unknown #
vertex $-1 $257 $540 #
ellipse-curve $-1 65.115382486942323 16.909027362433307 4.9254016638024796 0.78801076186113728 0 0.61566146476048833 0.30783073238024417 0 -0.39400538093056864 1 I I #
face $-1 $-1 $541 $53 $-1 $542 reversed single #
loop $-1 $-1 $264 $258 #
plane-surface $-1 0 0 9.3583139112202911 0 0 1 1 0 0 forward_v I I I I #
coedge $-1 $543 $544 $545 $546 reversed $259 $-1 #
coedge $-1 $547 $261 $263 $398 forward $163 $-1 #
coedge $-1 $261 $547 $543 $548 forward $163 $-1 #
coedge $-1 $545 $264 $261 $395 forward $389 $-1 #
edge $-1 $401 -9.9164282228210237 $549 -3.7925729762460048 $394 $550 forward 7 unknown #
coedge $-1 $551 $552 $262 $397 forward $541 $-1 #
edge $-1 $553 -38.612707137545499 $400 -34.57242511972111 $396 $554 forward 7 unknown #
edge $-1 $401 -5.0589811314305333 $553 -2.3448253187574213e-014 $263 $555 forward 7 unknown #
coedge $-1 $264 $545 $551 $556 forward $389 $-1 #
vertex $-1 $265 $557 #
vertex $-1 $265 $558 #
straight-curve $-1 -89.058804462344767 -16.770928822354538 9.3583139112202929 1 0 0 I I #
coedge $-1 $403 $403 $-1 $559 reversed $268 $-1 #
edge $-1 $560 0 $560 6.2831853071796004 $269 $561 forward 7 unknown #
vertex $-1 $272 $562 #
ellipse-curve $-1 -67.056467617939688 -15.021255894761676 7.3381729023080915 -0.79863551827123203 0 0.60181501223851219 0.3009075061192561 0 0.39931775913561601 1 I I #
coedge $-1 $407 $407 $-1 $563 reversed $275 $-1 #
edge $-1 $564 0 $564 6.2831853071796004 $276 $565 forward 7 unknown #
vertex $-1 $279 $566 #
ellipse-curve $-1 -67.056467617939688 -12.396746503372384 7.3381729023080915 -0.79863551827123203 0 0.60181501223851219 0.3009075061192561 0 0.39931775913561601 1 I I #
face $-1 $-1 $295 $42 $-1 $567 reversed single #
loop $-1 $-1 $427 $280 #
plane-surface $-1 0 31.8806333554042 0 0 -1 0 0 0 -1 forward_v I I I I #
coedge $-1 $568 $425 $428 $569 forward $281 $-1 #
coedge $-1 $431 $283 $284 $419 reversed $177 $-1 #
coedge $-1 $425 $568 $283 $417 reversed $281 $-1 #
edge $-1 $432 -9.3583139112202911 $570 9.3583139112202911 $416 $571 forward 7 unknown #
coedge $-1 $285 $284 $568 $572 forward $113 $-1 #
edge $-1 $423 -68.578753013702809 $570 68.578753013702809 $415 $573 forward 7 unknown #
coedge $-1 $428 $427 $285 $421 reversed $412 $-1 #
edge $-1 $574 -68.578753013702809 $422 68.578753013702809 $420 $575 forward 7 unknown #
vertex $-1 $287 $576 #
vertex $-1 $434 $577 #
straight-curve $-1 68.578753013702809 0 -9.3583139112202911 0 -1 0 I I #
coedge $-1 $414 $416 $288 $426 reversed $281 $-1 #
edge $-1 $429 -31.8806333554042 $432 31.8806333554042 $425 $578 forward 7 unknown #
coedge $-1 $420 $289 $294 $435 forward $412 $-1 #
coedge $-1 $289 $420 $414 $569 reversed $412 $-1 #
vertex $-1 $290 $579 #
straight-curve $-1 0 31.8806333554042 9.3583139112202911 -1 0 0 I I #
coedge $-1 $291 $415 $293 $434 reversed $177 $-1 #
vertex $-1 $426 $580 #
straight-curve $-1 0 -31.8806333554042 9.3583139112202911 1 0 0 I I #
edge $-1 $296 -9.3583139112202911 $423 9.3583139112202911 $293 $581 forward 7 unknown #
edge $-1 $297 -9.3583139112202911 $422 9.3583139112202911 $294 $582 forward 7 unknown #
point $-1 68.578753013702809 -31.8806333554042 9.3583139112202911 #
point $-1 68.578753013702809 31.8806333554042 9.3583139112202911 #
face $-1 $-1 $448 $43 $-1 $583 reversed single #
loop $-1 $-1 $444 $299 #
plane-surface $-1 0 0 -9.3583139112202911 0 0 1 1 0 0 forward_v I I I I #
coedge $-1 $584 $585 $307 $452 forward $300 $-1 #
coedge $-1 $302 $456 $446 $586 forward $185 $-1 #
edge $-1 $450 -18.171039460579593 $312 -9.2481483290696271 $302 $587 forward 7 unknown #
coedge $-1 $588 $308 $303 $445 forward $439 $-1 #
edge $-1 $313 9.2481483290696271 $449 18.171039460579593 $444 $589 forward 7 unknown #
coedge $-1 $590 $305 $442 $586 reversed $448 $-1 #
coedge $-1 $305 $590 $588 $591 reversed $448 $-1 #
loop $-1 $-1 $305 $438 #
vertex $-1 $591 $592 #
vertex $-1 $306 $593 #
straight-curve $-1 -63.14026657429001 -31.8806333554042 0 0 0 1 I I #
edge $-1 $457 -9.3583139112202911 $454 9.3583139112202911 $441 $594 forward 7 unknown #
coedge $-1 $308 $588 $584 $595 forward $439 $-1 #
vertex $-1 $309 $596 #
straight-curve $-1 -32.929754896998205 -22.957742223894236 -9.3583139112202911 1 0 0 I I #
coedge $-1 $442 $310 $585 $597 forward $185 $-1 #
vertex $-1 $597 $598 #
straight-curve $-1 -32.929754896998205 -22.957742223894236 9.3583139112202911 -1 0 0 I I #
point $-1 -63.14026657429001 -22.957742223894236 9.3583139112202911 #
point $-1 -63.14026657429001 -22.957742223894236 -9.3583139112202911 #
face $-1 $-1 $599 $44 $-1 $600 reversed single #
loop $-1 $-1 $467 $315 #
plane-surface $-1 0 0 9.3583139112202911 0 0 1 1 0 0 forward_v I I I I #
coedge $-1 $318 $472 $601 $602 forward $193 $-1 #
edge $-1 $603 -18.171039460579589 $470 -9.2481483290696254 $318 $604 forward 7 unknown #
coedge $-1 $320 $319 $605 $606 reversed $121 $-1 #
coedge $-1 $607 $325 $320 $468 forward $462 $-1 #
edge $-1 $469 9.2481483290696254 $608 18.171039460579589 $467 $609 forward 7 unknown #
vertex $-1 $326 $610 #
vertex $-1 $324 $611 #
straight-curve $-1 -63.14026657429001 22.957742223894233 0 0 0 -1 I I #
coedge $-1 $464 $323 $328 $478 forward $193 $-1 #
straight-curve $-1 -32.929754896998205 22.957742223894233 -9.3583139112202911 -1 0 0 I I #
coedge $-1 $325 $607 $327 $477 forward $462 $-1 #
straight-curve $-1 -32.929754896998205 22.957742223894233 9.3583139112202911 1 0 0 I I #
coedge $-1 $328 $327 $612 $613 forward $316 $-1 #
edge $-1 $614 -31.8806333554042 $330 -22.957742223894233 $327 $615 forward 7 unknown #
edge $-1 $329 22.957742223894233 $616 31.8806333554042 $328 $617 forward 7 unknown #
point $-1 -68.578753013702809 22.957742223894233 -9.3583139112202911 #
point $-1 -68.578753013702809 22.957742223894233 9.3583139112202911 #
plane-surface $-1 0 0 9.3583139112202911 0 0 1 1 0 0 forward_v I I I I #
coedge $-1 $492 $491 $484 $618 forward $333 $-1 #
coedge $-1 $484 $335 $337 $488 reversed $201 $-1 #
coedge $-1 $335 $483 $482 $618 reversed $201 $-1 #
coedge $-1 $343 $338 $335 $486 forward $344 $-1 #
edge $-1 $489 15.543135575379715 $619 22.469876628900714 $485 $620 forward 7 unknown #
coedge $-1 $337 $336 $492 $621 reversed $125 $-1 #
edge $-1 $622 -137.15750602740562 $489 -125.90661336967574 $483 $623 forward 7 unknown #
vertex $-1 $339 $624 #
straight-curve $-1 61.652011960181817 -7.0462211828735626 9.3583139112202929 0 -1 0 I I #
coedge $-1 $482 $340 $343 $496 reversed $333 $-1 #
coedge $-1 $340 $482 $487 $621 forward $333 $-1 #
vertex $-1 $341 $625 #
straight-curve $-1 68.578753013702809 -9.3981340379368241 96.508335649871086 0 0 1 I I #
straight-curve $-1 -15.863838050025237 -9.3981340379368241 108.57408023601413 0.61566146476048833 0 -0.78801076186113728 I I #
edge $-1 $619 -18.786750693557426 $345 -9.3981340379368241 $491 $626 forward 7 unknown #
point $-1 68.578753013702809 -9.3981340379368241 9.3583139112202911 #
point $-1 61.65201196018181 -9.3981340379368241 9.3583139112202929 #
edge $-1 $627 1 $627 0 $348 $-1 forward 7 unknown #
vertex $-1 $349 $628 #
ellipse-curve $-1 64.049727014070498 -16.909027362433307 4.0928203830484513 0.78801076186113728 0 0.61566146476048833 0.30783073238024417 0 -0.39400538093056864 1 I I #
point $-1 65.423213219322562 -16.909027362433307 4.5313962828718974 #
edge $-1 $629 1 $629 0 $352 $-1 forward 7 unknown #
vertex $-1 $353 $630 #
ellipse-curve $-1 64.049727014070498 -14.092442365747125 4.0928203830484513 0.78801076186113728 0 0.61566146476048833 0.30783073238024417 0 -0.39400538093056864 1 I I #
point $-1 65.423213219322562 -14.092442365747125 4.5313962828718974 #
edge $-1 $631 1 $631 0 $356 $-1 forward 7 unknown #
vertex $-1 $357 $632 #
ellipse-curve $-1 64.049727014070498 -11.275857369060944 4.0928203830484513 0.78801076186113728 0 0.61566146476048833 0.30783073238024417 0 -0.39400538093056864 1 I I #
point $-1 65.423213219322562 -11.275857369060944 4.5313962828718974 #
plane-surface $-1 0 0 9.3583139112202911 0 0 1 1 0 0 forward_v I I I I #
coedge $-1 $522 $521 $514 $633 forward $361 $-1 #
coedge $-1 $514 $363 $365 $518 reversed $230 $-1 #
coedge $-1 $363 $513 $512 $633 reversed $230 $-1 #
coedge $-1 $371 $366 $363 $516 forward $372 $-1 #
edge $-1 $519 15.543135575379715 $634 22.469876628900714 $515 $635 forward 7 unknown #
coedge $-1 $365 $364 $522 $636 reversed $144 $-1 #
edge $-1 $637 -137.15750602740562 $519 -125.90661336967574 $513 $638 forward 7 unknown #
vertex $-1 $367 $639 #
straight-curve $-1 61.652011960181817 7.0462211828735661 9.3583139112202929 0 -1 0 I I #
coedge $-1 $512 $368 $371 $526 reversed $361 $-1 #
coedge $-1 $368 $512 $517 $636 forward $361 $-1 #
vertex $-1 $369 $640 #
straight-curve $-1 68.578753013702809 18.786750693557433 96.508335649871086 0 0 1 I I #
straight-curve $-1 -15.863838050025237 18.786750693557433 108.57408023601413 0.61566146476048833 0 -0.78801076186113728 I I #
edge $-1 $634 9.3981340379368312 $373 18.786750693557433 $521 $641 forward 7 unknown #
point $-1 68.578753013702809 18.786750693557433 9.3583139112202911 #
point $-1 61.65201196018181 18.786750693557433 9.3583139112202929 #
edge $-1 $642 1 $642 0 $376 $-1 forward 7 unknown #
vertex $-1 $377 $643 #
ellipse-curve $-1 64.049727014070498 11.275857369060944 4.0928203830484513 0.78801076186113728 0 0.61566146476048833 0.30783073238024417 0 -0.39400538093056864 1 I I #
point $-1 65.423213219322562 11.275857369060944 4.5313962828718974 #
edge $-1 $644 1 $644 0 $380 $-1 forward 7 unknown #
vertex $-1 $381 $645 #
ellipse-curve $-1 64.049727014070498 14.092442365747132 4.0928203830484513 0.78801076186113728 0 0.61566146476048833 0.30783073238024417 0 -0.39400538093056864 1 I I #
point $-1 65.423213219322562 14.092442365747132 4.5313962828718974 #
edge $-1 $646 1 $646 0 $384 $-1 forward 7 unknown #
vertex $-1 $385 $647 #
ellipse-curve $-1 64.049727014070498 16.909027362433307 4.0928203830484513 0.78801076186113728 0 0.61566146476048833 0.30783073238024417 0 -0.39400538093056864 1 I I #
point $-1 65.423213219322562 16.909027362433307 4.5313962828718974 #
loop $-1 $-1 $396 $388 #
plane-surface $-1 -68.578753013702809 0 0 1 0 0 0 0 -1 forward_v I I I I #
coedge $-1 $544 $391 $393 $548 reversed $259 $-1 #
coedge $-1 $391 $543 $648 $649 reversed $259 $-1 #
coedge $-1 $399 $394 $391 $546 forward $389 $-1 #
edge $-1 $549 -23.524622240168213 $650 -20.480051448641959 $545 $651 forward 7 unknown #
coedge $-1 $393 $392 $552 $652 reversed $163 $-1 #
edge $-1 $653 2.3448253187574213e-014 $549 5.0589811314305333 $543 $654 forward 7 unknown #
vertex $-1 $395 $655 #
straight-curve $-1 -65.534182222176554 -6.8545005995335142 9.3583139112202929 0 1 0 I I #
coedge $-1 $648 $396 $399 $556 reversed $541 $-1 #
coedge $-1 $396 $648 $547 $652 forward $541 $-1 #
vertex $-1 $397 $656 #
straight-curve $-1 -68.578753013702809 -16.770928822354538 43.930739030941403 0 0 1 I I #
straight-curve $-1 -68.578753013702823 -16.770928822354538 5.318031893395883 -0.60181501223851219 0 -0.79863551827123203 I I #
edge $-1 $650 10.647073575779519 $400 16.770928822354538 $551 $657 forward 7 unknown #
point $-1 -68.578753013702809 -16.770928822354538 9.3583139112202911 #
point $-1 -65.534182222176554 -16.770928822354538 9.3583139112202911 #
edge $-1 $658 1 $658 0 $403 $-1 forward 7 unknown #
vertex $-1 $404 $659 #
ellipse-curve $-1 -65.758767160182941 -15.021255894761676 6.3602854943484051 -0.79863551827123203 0 0.60181501223851219 0.3009075061192561 0 0.39931775913561601 1 I I #
point $-1 -66.755560111820429 -15.021255894761676 7.7374906614437098 #
edge $-1 $660 1 $660 0 $407 $-1 forward 7 unknown #
vertex $-1 $408 $661 #
ellipse-curve $-1 -65.758767160182941 -12.396746503372384 6.3602854943484051 -0.79863551827123203 0 0.60181501223851219 0.3009075061192561 0 0.39931775913561601 1 I I #
point $-1 -66.755560111820429 -12.396746503372384 7.7374906614437098 #
plane-surface $-1 68.578753013702809 0 0 -1 0 0 0 0 1 forward_v I I I I #
coedge $-1 $416 $414 $418 $572 reversed $281 $-1 #
edge $-1 $429 -9.3583139112202911 $574 9.3583139112202911 $428 $662 forward 7 unknown #
vertex $-1 $572 $663 #
straight-curve $-1 -68.578753013702809 -31.8806333554042 0 0 0 -1 I I #
edge $-1 $570 -31.8806333554042 $574 31.8806333554042 $568 $664 forward 7 unknown #
straight-curve $-1 0 -31.8806333554042 -9.3583139112202911 -1 0 0 I I #
vertex $-1 $421 $665 #
straight-curve $-1 0 31.8806333554042 -9.3583139112202911 1 0 0 I I #
point $-1 68.578753013702809 31.8806333554042 -9.3583139112202911 #
point $-1 68.578753013702809 -31.8806333554042 -9.3583139112202911 #
straight-curve $-1 -68.578753013702809 0 9.3583139112202911 0 -1 0 I I #
point $-1 -68.578753013702809 31.8806333554042 9.3583139112202911 #
point $-1 -68.578753013702809 -31.8806333554042 9.3583139112202911 #
straight-curve $-1 68.578753013702809 -31.8806333554042 0 0 0 -1 I I #
straight-curve $-1 68.578753013702809 31.8806333554042 0 0 0 -1 I I #
plane-surface $-1 0 -31.8806333554042 0 0 1 0 0 0 1 forward_v I I I I #
coedge $-1 $666 $441 $453 $595 reversed $300 $-1 #
coedge $-1 $441 $666 $456 $597 reversed $300 $-1 #
edge $-1 $667 -68.578753013702809 $450 -63.14026657429001 $446 $668 forward 7 unknown #
straight-curve $-1 -63.14026657429001 -13.709593894824609 9.3583139112202911 0 1 0 I I #
coedge $-1 $453 $444 $447 $591 forward $439 $-1 #
straight-curve $-1 -63.14026657429001 -13.709593894824609 -9.3583139112202911 0 -1 0 I I #
coedge $-1 $447 $446 $666 $669 forward $448 $-1 #
edge $-1 $449 63.14026657429001 $670 68.578753013702809 $447 $671 forward 7 unknown #
point $-1 -63.14026657429001 -31.8806333554042 -9.3583139112202911 #
point $-1 -63.14026657429001 -31.8806333554042 9.3583139112202911 #
straight-curve $-1 -68.578753013702809 -22.957742223894236 0 0 0 -1 I I #
edge $-1 $670 -31.8806333554042 $454 -22.957742223894236 $584 $672 forward 7 unknown #
point $-1 -68.578753013702809 -22.957742223894236 -9.3583139112202911 #
edge $-1 $457 22.957742223894236 $667 31.8806333554042 $585 $673 forward 7 unknown #
point $-1 -68.578753013702809 -22.957742223894236 9.3583139112202911 #
loop $-1 $-1 $605 $461 #
plane-surface $-1 0 31.8806333554042 0 0 -1 0 0 0 -1 forward_v I I I I #
coedge $-1 $612 $605 $464 $602 reversed $599 $-1 #
edge $-1 $616 -68.578753013702809 $603 -63.14026657429001 $601 $674 forward 7 unknown #
vertex $-1 $465 $675 #
straight-curve $-1 -63.14026657429001 13.709593894824607 -9.3583139112202911 0 -1 0 I I #
coedge $-1 $601 $676 $466 $606 forward $599 $-1 #
edge $-1 $608 -9.3583139112202911 $603 9.3583139112202911 $605 $677 forward 7 unknown #
coedge $-1 $474 $467 $676 $678 forward $462 $-1 #
vertex $-1 $678 $679 #
straight-curve $-1 -63.14026657429001 13.709593894824607 9.3583139112202911 0 1 0 I I #
point $-1 -63.14026657429001 22.957742223894233 9.3583139112202911 #
point $-1 -63.14026657429001 22.957742223894233 -9.3583139112202911 #
coedge $-1 $676 $601 $476 $613 reversed $599 $-1 #
edge $-1 $614 -9.3583139112202911 $616 9.3583139112202911 $612 $680 forward 7 unknown #
vertex $-1 $678 $681 #
straight-curve $-1 -68.578753013702809 0 9.3583139112202911 0 -1 0 I I #
vertex $-1 $602 $682 #
straight-curve $-1 -68.578753013702809 0 -9.3583139112202911 0 1 0 I I #
edge $-1 $619 87.150021738650793 $622 96.015846233486386 $482 $683 forward 7 unknown #
vertex $-1 $496 $684 #
straight-curve $-1 46.108876384802095 -18.786750693557426 9.3583139112202929 1 0 0 I I #
edge $-1 $622 -11.740529510683864 $493 -2.3519128550632615 $492 $685 forward 7 unknown #
vertex $-1 $621 $686 #
straight-curve $-1 -15.863838050025237 -18.786750693557426 108.57408023601413 -0.61566146476048833 0 0.78801076186113728 I I #
point $-1 61.65201196018181 -18.786750693557426 9.3583139112202929 #
point $-1 68.578753013702809 -9.3981340379368241 0.49248941638470001 #
straight-curve $-1 68.578753013702809 0 9.3583139112202911 0 1 0 I I #
vertex $-1 $499 $687 #
point $-1 64.357557746450738 -16.909027362433307 3.6988150021178829 #
vertex $-1 $503 $688 #
point $-1 64.357557746450738 -14.092442365747125 3.6988150021178829 #
vertex $-1 $507 $689 #
point $-1 64.357557746450738 -11.275857369060944 3.6988150021178829 #
edge $-1 $634 87.150021738650793 $637 96.015846233486386 $512 $690 forward 7 unknown #
vertex $-1 $526 $691 #
straight-curve $-1 46.108876384802095 9.3981340379368312 9.3583139112202929 1 0 0 I I #
edge $-1 $637 2.3519128550632651 $523 11.740529510683867 $522 $692 forward 7 unknown #
vertex $-1 $636 $693 #
straight-curve $-1 -15.863838050025237 9.3981340379368312 108.57408023601413 -0.61566146476048833 0 0.78801076186113728 I I #
point $-1 61.65201196018181 9.3981340379368312 9.3583139112202929 #
point $-1 68.578753013702809 18.786750693557433 0.49248941638470001 #
straight-curve $-1 68.578753013702809 0 9.3583139112202911 0 1 0 I I #
vertex $-1 $529 $694 #
point $-1 64.357557746450738 11.275857369060944 3.6988150021178829 #
vertex $-1 $533 $695 #
point $-1 64.357557746450738 14.092442365747132 3.6988150021178829 #
vertex $-1 $537 $696 #
point $-1 64.357557746450738 16.909027362433307 3.6988150021178829 #
coedge $-1 $552 $551 $544 $649 forward $541 $-1 #
edge $-1 $650 34.57242511972111 $653 38.612707137545499 $648 $697 forward 7 unknown #
vertex $-1 $556 $698 #
straight-curve $-1 -89.058804462344767 -10.647073575779519 9.3583139112202929 -1 0 0 I I #
edge $-1 $653 3.7925729762460048 $553 9.9164282228210237 $552 $699 forward 7 unknown #
vertex $-1 $652 $700 #
straight-curve $-1 -68.578753013702823 -10.647073575779519 5.318031893395883 0.60181501223851219 0 0.79863551827123203 I I #
point $-1 -65.534182222176554 -10.647073575779519 9.3583139112202911 #
point $-1 -68.578753013702809 -16.770928822354538 5.3180318933959017 #
straight-curve $-1 -68.578753013702809 0 9.3583139112202911 0 -1 0 I I #
vertex $-1 $559 $701 #
point $-1 -65.457859654063682 -15.021255894761676 6.7596032534840216 #
vertex $-1 $563 $702 #
point $-1 -65.457859654063682 -12.396746503372384 6.7596032534840216 #
straight-curve $-1 -68.578753013702809 31.8806333554042 0 0 0 -1 I I #
point $-1 -68.578753013702809 -31.8806333554042 -9.3583139112202911 #
straight-curve $-1 -68.578753013702809 0 -9.3583139112202911 0 1 0 I I #
point $-1 -68.578753013702809 31.8806333554042 -9.3583139112202911 #
coedge $-1 $585 $584 $590 $669 reversed $300 $-1 #
vertex $-1 $597 $703 #
straight-curve $-1 0 -31.8806333554042 9.3583139112202911 1 0 0 I I #
edge $-1 $667 -9.3583139112202911 $670 9.3583139112202911 $666 $704 forward 7 unknown #
vertex $-1 $595 $705 #
straight-curve $-1 0 -31.8806333554042 -9.3583139112202911 -1 0 0 I I #
straight-curve $-1 -68.578753013702809 0 -9.3583139112202911 0 1 0 I I #
straight-curve $-1 -68.578753013702809 0 9.3583139112202911 0 -1 0 I I #
straight-curve $-1 0 31.8806333554042 -9.3583139112202911 1 0 0 I I #
point $-1 -63.14026657429001 31.880633355404196 -9.3583139112202911 #
coedge $-1 $605 $612 $607 $678 reversed $599 $-1 #
straight-curve $-1 -63.14026657429001 31.8806333554042 0 0 0 -1 I I #
edge $-1 $608 63.14026657429001 $614 68.578753013702809 $676 $706 forward 7 unknown #
point $-1 -63.14026657429001 31.880633355404196 9.3583139112202911 #
straight-curve $-1 -68.578753013702809 31.8806333554042 0 0 0 -1 I I #
point $-1 -68.578753013702809 31.8806333554042 9.3583139112202911 #
point $-1 -68.578753013702809 31.8806333554042 -9.3583139112202911 #
straight-curve $-1 68.578753013702809 -18.786750693557426 96.508335649871086 0 0 -1 I I #
point $-1 68.578753013702809 -18.786750693557426 9.3583139112202911 #
straight-curve $-1 68.578753013702809 -7.0462211828735626 0.4924894163846929 0 1 0 I I #
point $-1 68.578753013702809 -18.786750693557426 0.49248941638470001 #
point $-1 63.655721633139933 -16.909027362433307 3.7849896506682081 #
point $-1 63.655721633139933 -14.092442365747125 3.7849896506682081 #
point $-1 63.655721633139933 -11.275857369060944 3.7849896506682081 #
straight-curve $-1 68.578753013702809 9.3981340379368312 96.508335649871086 0 0 -1 I I #
point $-1 68.578753013702809 9.3981340379368312 9.3583139112202911 #
straight-curve $-1 68.578753013702809 7.0462211828735661 0.4924894163846929 0 1 0 I I #
point $-1 68.578753013702809 9.3981340379368312 0.49248941638470001 #
point $-1 63.655721633139933 11.275857369060944 3.7849896506682081 #
point $-1 63.655721633139933 14.092442365747132 3.7849896506682081 #
point $-1 63.655721633139933 16.909027362433307 3.7849896506682081 #
straight-curve $-1 -68.578753013702809 -10.647073575779519 43.930739030941403 0 0 -1 I I #
point $-1 -68.578753013702809 -10.647073575779519 9.3583139112202911 #
straight-curve $-1 -68.578753013702809 -6.8545005995335142 5.3180318933959132 0 -1 0 I I #
point $-1 -68.578753013702809 -10.647073575779519 5.3180318933959017 #
point $-1 -65.359449401047328 -15.021255894761676 6.0593779882291496 #
point $-1 -65.359449401047328 -12.396746503372384 6.0593779882291496 #
point $-1 -68.578753013702809 -31.8806333554042 9.3583139112202911 #
straight-curve $-1 -68.578753013702809 -31.8806333554042 0 0 0 -1 I I #
point $-1 -68.578753013702809 -31.8806333554042 -9.3583139112202911 #
straight-curve $-1 0 31.8806333554042 9.3583139112202911 -1 0 0 I I #
End-of-ACIS-data 