500 0 9 0           
7 Unknown 11 ACIS 5.0 NT 24 Thu Mar 25 19:31:53 1999 
-1 9.9999999999999995e-007 1e-010 
body $-1 $9 $-1 $10 #
body $-1 $11 $-1 $12 #
body $-1 $13 $-1 $14 #
body $-1 $15 $-1 $16 #
body $-1 $17 $-1 $18 #
body $-1 $19 $-1 $20 #
body $-1 $21 $-1 $22 #
body $-1 $23 $-1 $24 #
body $-1 $25 $-1 $26 #
lump $-1 $-1 $27 $0 #
transform $-1 1 0 0 0 1 0 0 0 1 78.76583147679068 44.532369890120577 21.949795415642885 1 rotate no_reflect no_shear #
lump $-1 $-1 $28 $1 #
transform $-1 1 0 0 0 1 0 0 0 1 78.76583147679068 44.532369890120577 21.949795415642885 1 rotate no_reflect no_shear #
lump $-1 $-1 $29 $2 #
transform $-1 1 0 0 0 1 0 0 0 1 78.76583147679068 44.532369890120577 21.949795415642885 1 rotate no_reflect no_shear #
lump $-1 $-1 $30 $3 #
transform $-1 1 0 0 0 1 0 0 0 1 78.76583147679068 44.532369890120577 21.949795415642885 1 rotate no_reflect no_shear #
lump $-1 $-1 $31 $4 #
transform $-1 1 0 0 0 1 0 0 0 1 78.76583147679068 44.532369890120577 21.949795415642885 1 rotate no_reflect no_shear #
lump $-1 $-1 $32 $5 #
transform $-1 1 0 0 0 1 0 0 0 1 78.76583147679068 44.532369890120577 21.949795415642885 1 rotate no_reflect no_shear #
lump $-1 $-1 $33 $6 #
transform $-1 1 0 0 0 1 0 0 0 1 78.76583147679068 44.532369890120577 21.949795415642885 1 rotate no_reflect no_shear #
lump $-1 $-1 $34 $7 #
transform $-1 1 0 0 0 1 0 0 0 1 78.76583147679068 44.532369890120577 21.949795415642885 1 rotate no_reflect no_shear #
lump $-1 $-1 $35 $8 #
transform $-1 1 0 0 0 1 0 0 0 1 78.76583147679068 44.532369890120577 21.949795415642885 1 rotate no_reflect no_shear #
shell $-1 $-1 $-1 $36 $-1 $9 #
shell $-1 $-1 $-1 $37 $-1 $11 #
shell $-1 $-1 $-1 $38 $-1 $13 #
shell $-1 $-1 $-1 $39 $-1 $15 #
shell $-1 $-1 $-1 $40 $-1 $17 #
shell $-1 $-1 $-1 $41 $-1 $19 #
shell $-1 $-1 $-1 $42 $-1 $21 #
shell $-1 $-1 $-1 $43 $-1 $23 #
shell $-1 $-1 $-1 $44 $-1 $25 #
face $-1 $45 $46 $27 $-1 $47 forward single #
face $-1 $48 $49 $28 $-1 $50 forward single #
face $-1 $51 $52 $29 $-1 $53 reversed single #
face $-1 $54 $55 $30 $-1 $56 forward single #
face $-1 $57 $58 $31 $-1 $59 forward single #
face $-1 $60 $61 $32 $-1 $62 forward single #
face $-1 $63 $64 $33 $-1 $65 reversed single #
face $-1 $66 $67 $34 $-1 $68 forward single #
face $-1 $69 $70 $35 $-1 $71 forward single #
face $-1 $72 $73 $27 $-1 $74 reversed single #
loop $-1 $-1 $75 $36 #
plane-surface $-1 0 0 21.949795415642885 0 0 1 1 0 0 forward_v I I I I #
face $-1 $76 $77 $28 $-1 $78 reversed single #
loop $-1 $-1 $79 $37 #
plane-surface $-1 0 -30.224341455061818 -13.362399335705984 0 0 1 1 0 0 forward_v I I I I #
face $-1 $80 $81 $29 $-1 $82 reversed single #
loop $-1 $-1 $83 $38 #
plane-surface $-1 67.106250866062993 -3.6068520276190696 229.11604879871896 0 -1 0 -0.66913061440640931 0 -0.74314481823134659 forward_v I I I I #
face $-1 $84 $85 $30 $-1 $86 forward single #
loop $-1 $87 $88 $39 #
cone-surface $-1 69.73565394918792 -10.513059167190555 13.708119817984397 -0.66913061440640931 0 -0.74314481823134659 0.3715724091156733 0 -0.33456530720320465 1 I I 0 1 0.5 forward I I I I #
face $-1 $89 $90 $31 $-1 $91 forward single #
loop $-1 $92 $93 $40 #
cone-surface $-1 69.73565394918792 -7.923231489851247 13.708119817984397 -0.66913061440640931 0 -0.74314481823134659 0.3715724091156733 0 -0.33456530720320465 1 I I 0 1 0.5 forward I I I I #
face $-1 $94 $95 $32 $-1 $96 forward single #
loop $-1 $97 $98 $41 #
cone-surface $-1 69.73565394918792 -5.3334038125119392 13.708119817984397 -0.66913061440640931 0 -0.74314481823134659 0.3715724091156733 0 -0.33456530720320465 1 I I 0 1 0.5 forward I I I I #
face $-1 $99 $100 $33 $-1 $101 reversed single #
loop $-1 $-1 $102 $42 #
plane-surface $-1 -195.83467295414434 -5.8859020603753791 112.93897573670452 0 1 0 -0.74314483375859142 0 0.66913059716165679 forward_v I I I I #
face $-1 $103 $104 $34 $-1 $105 forward single #
loop $-1 $106 $107 $43 #
cone-surface $-1 -70.869876726288055 -1.4808797802522946 13.475583440660753 0.74314483375859142 0 -0.66913059716165679 1.3382611943233136 0 1.4862896675171828 1 I I 0 1 2 forward I I I I #
face $-1 $108 $109 $35 $-1 $110 forward single #
loop $-1 $111 $112 $44 #
cone-surface $-1 -70.869876726288055 5.1266536399323357 13.475583440660753 0.74314483375859142 0 -0.66913059716165679 1.3382611943233136 0 1.4862896675171828 1 I I 0 1 2 forward I I I I #
face $-1 $113 $114 $27 $-1 $115 reversed single #
loop $-1 $-1 $116 $45 #
plane-surface $-1 0 0 -21.949795415642885 0 0 1 1 0 0 forward_v I I I I #
coedge $-1 $117 $118 $119 $120 forward $46 $-1 #
face $-1 $121 $122 $28 $-1 $123 reversed single #
loop $-1 $-1 $124 $48 #
plane-surface $-1 0 -15.916313020003058 -17.656097375674435 0 -1 0 0 0 -1 forward_v I I I I #
coedge $-1 $125 $126 $127 $128 reversed $49 $-1 #
face $-1 $129 $130 $29 $-1 $131 reversed single #
loop $-1 $-1 $132 $51 #
plane-surface $-1 -38.303007554530296 -7.923231489851247 112.04720976739799 0.66913061440640931 0 0.74314481823134659 0.74314481823134659 0 -0.66913061440640931 forward_v I I I I #
coedge $-1 $133 $134 $135 $136 reversed $52 $-1 #
face $-1 $-1 $137 $30 $-1 $138 forward single #
loop $-1 $139 $140 $54 #
cone-surface $-1 69.04095640679796 -10.513059167190555 12.936580050187157 -0.66913061440640931 0 -0.74314481823134659 0.18578620455783665 0 -0.16728265360160233 1 I I -0.70710678118654746 0.70710678118654746 0.25 forward I I I I #
loop $-1 $-1 $141 $39 #
coedge $-1 $88 $88 $142 $143 reversed $55 $-1 #
face $-1 $-1 $144 $31 $-1 $145 forward single #
loop $-1 $146 $147 $57 #
cone-surface $-1 69.04095640679796 -7.923231489851247 12.936580050187157 -0.66913061440640931 0 -0.74314481823134659 0.18578620455783665 0 -0.16728265360160233 1 I I -0.70710678118654746 0.70710678118654746 0.25 forward I I I I #
loop $-1 $-1 $148 $40 #
coedge $-1 $93 $93 $149 $150 reversed $58 $-1 #
face $-1 $-1 $151 $32 $-1 $152 forward single #
loop $-1 $153 $154 $60 #
cone-surface $-1 69.04095640679796 -5.3334038125119392 12.936580050187157 -0.66913061440640931 0 -0.74314481823134659 0.18578620455783665 0 -0.16728265360160233 1 I I -0.70710678118654746 0.70710678118654746 0.25 forward I I I I #
loop $-1 $-1 $155 $41 #
coedge $-1 $98 $98 $156 $157 reversed $61 $-1 #
face $-1 $158 $159 $33 $-1 $160 reversed single #
loop $-1 $-1 $161 $63 #
plane-surface $-1 -78.765831476790666 1.8228869298400241 7.5297200327057823 -0.74314483375859142 0 0.66913059716165679 0.66913059716165679 0 0.74314483375859142 forward_v I I I I #
coedge $-1 $162 $163 $164 $165 reversed $64 $-1 #
face $-1 $-1 $166 $34 $-1 $167 forward single #
loop $-1 $168 $169 $66 #
cone-surface $-1 -68.722724077390467 -1.4808797802522946 11.542278559985515 0.74314483375859142 0 -0.66913059716165679 0.66913059716165679 0 0.74314483375859142 1 I I -0.70710678118654746 0.70710678118654746 1 forward I I I I #
loop $-1 $-1 $170 $43 #
coedge $-1 $107 $107 $171 $172 reversed $67 $-1 #
face $-1 $-1 $173 $35 $-1 $174 forward single #
loop $-1 $175 $176 $69 #
cone-surface $-1 -68.722724077390467 5.1266536399323357 11.542278559985515 0.74314483375859142 0 -0.66913059716165679 0.66913059716165679 0 0.74314483375859142 1 I I -0.70710678118654746 0.70710678118654746 1 forward I I I I #
loop $-1 $-1 $177 $44 #
coedge $-1 $112 $112 $178 $179 reversed $70 $-1 #
face $-1 $180 $181 $27 $-1 $182 reversed single #
loop $-1 $-1 $183 $72 #
plane-surface $-1 0 -44.532369890120577 0 0 1 0 0 0 1 forward_v I I I I #
coedge $-1 $184 $185 $186 $187 forward $73 $-1 #
coedge $-1 $188 $75 $189 $190 forward $46 $-1 #
coedge $-1 $75 $188 $191 $192 forward $46 $-1 #
coedge $-1 $193 $194 $75 $120 reversed $195 $-1 #
edge $-1 $196 -44.532369890120577 $197 44.532369890120577 $119 $198 forward 7 unknown #
face $-1 $199 $200 $28 $-1 $201 reversed single #
loop $-1 $-1 $202 $76 #
plane-surface $-1 0 0 -21.949795415642885 0 0 1 1 0 0 forward_v I I I I #
coedge $-1 $203 $204 $205 $206 reversed $77 $-1 #
coedge $-1 $207 $79 $204 $208 forward $49 $-1 #
coedge $-1 $79 $207 $209 $210 reversed $49 $-1 #
coedge $-1 $211 $205 $79 $128 forward $200 $-1 #
edge $-1 $212 0.80414229247214841 $213 29.420199162589668 $127 $214 forward 7 unknown #
face $-1 $215 $216 $29 $-1 $217 reversed single #
loop $-1 $-1 $218 $80 #
plane-surface $-1 67.106250866062993 -12.239610952083424 229.11604879871896 0 1 0 0.66913061440640931 0 0.74314481823134659 forward_v I I I I #
coedge $-1 $219 $220 $221 $222 reversed $81 $-1 #
coedge $-1 $134 $83 $223 $224 reversed $52 $-1 #
coedge $-1 $83 $133 $219 $225 reversed $52 $-1 #
coedge $-1 $221 $226 $83 $136 forward $227 $-1 #
edge $-1 $228 -45.212706043759184 $229 -28.207180766130406 $135 $230 forward 7 unknown #
loop $-1 $-1 $142 $84 #
plane-surface $-1 -38.303007554530296 -7.923231489851247 112.04720976739799 0.66913061440640931 0 0.74314481823134659 0.74314481823134659 0 -0.66913061440640931 forward_v I I I I #
loop $-1 $-1 $231 $54 #
coedge $-1 $140 $140 $141 $232 reversed $85 $-1 #
coedge $-1 $141 $141 $140 $232 forward $87 $-1 #
coedge $-1 $142 $142 $88 $143 forward $137 $-1 #
edge $-1 $233 0 $233 6.2831853071796004 $142 $234 forward 7 unknown #
loop $-1 $-1 $149 $89 #
plane-surface $-1 -38.303007554530296 -7.923231489851247 112.04720976739799 0.66913061440640931 0 0.74314481823134659 0.74314481823134659 0 -0.66913061440640931 forward_v I I I I #
loop $-1 $-1 $235 $57 #
coedge $-1 $147 $147 $148 $236 reversed $90 $-1 #
coedge $-1 $148 $148 $147 $236 forward $92 $-1 #
coedge $-1 $149 $149 $93 $150 forward $144 $-1 #
edge $-1 $237 0 $237 6.2831853071796004 $149 $238 forward 7 unknown #
loop $-1 $-1 $156 $94 #
plane-surface $-1 -38.303007554530296 -7.923231489851247 112.04720976739799 0.66913061440640931 0 0.74314481823134659 0.74314481823134659 0 -0.66913061440640931 forward_v I I I I #
loop $-1 $-1 $239 $60 #
coedge $-1 $154 $154 $155 $240 reversed $95 $-1 #
coedge $-1 $155 $155 $154 $240 forward $97 $-1 #
coedge $-1 $156 $156 $98 $157 forward $151 $-1 #
edge $-1 $241 0 $241 6.2831853071796004 $156 $242 forward 7 unknown #
face $-1 $243 $244 $33 $-1 $245 forward single #
loop $-1 $-1 $246 $99 #
plane-surface $-1 -195.83467295414434 9.5316759200554273 112.93897573670452 0 -1 0 0.74314483375859142 0 -0.66913059716165679 forward_v I I I I #
coedge $-1 $247 $248 $249 $250 reversed $100 $-1 #
coedge $-1 $163 $102 $251 $252 reversed $64 $-1 #
coedge $-1 $102 $162 $247 $253 reversed $64 $-1 #
coedge $-1 $249 $254 $102 $165 forward $244 $-1 #
edge $-1 $255 19.151505000281489 $256 32.135398871008775 $164 $257 forward 7 unknown #
loop $-1 $-1 $171 $103 #
plane-surface $-1 -78.765831476790666 1.8228869298400241 7.5297200327057823 -0.74314483375859142 0 0.66913059716165679 0.66913059716165679 0 0.74314483375859142 forward_v I I I I #
loop $-1 $-1 $258 $66 #
coedge $-1 $169 $169 $170 $259 reversed $104 $-1 #
coedge $-1 $170 $170 $169 $259 forward $106 $-1 #
coedge $-1 $171 $171 $107 $172 forward $166 $-1 #
edge $-1 $260 0 $260 6.2831853071796004 $171 $261 forward 7 unknown #
loop $-1 $-1 $178 $108 #
plane-surface $-1 -78.765831476790666 1.8228869298400241 7.5297200327057823 -0.74314483375859142 0 0.66913059716165679 0.66913059716165679 0 0.74314483375859142 forward_v I I I I #
loop $-1 $-1 $262 $69 #
coedge $-1 $176 $176 $177 $263 reversed $109 $-1 #
coedge $-1 $177 $177 $176 $263 forward $111 $-1 #
coedge $-1 $178 $178 $112 $179 forward $173 $-1 #
edge $-1 $264 0 $264 6.2831853071796004 $178 $265 forward 7 unknown #
face $-1 $266 $267 $27 $-1 $268 reversed single #
loop $-1 $-1 $269 $113 #
plane-surface $-1 -78.76583147679068 0 0 1 0 0 0 0 -1 forward_v I I I I #
coedge $-1 $270 $191 $271 $272 forward $114 $-1 #
coedge $-1 $273 $116 $270 $274 forward $73 $-1 #
coedge $-1 $116 $273 $275 $276 forward $73 $-1 #
coedge $-1 $194 $193 $116 $187 reversed $195 $-1 #
edge $-1 $277 -44.532369890120577 $278 44.532369890120577 $186 $279 forward 7 unknown #
coedge $-1 $118 $117 $280 $281 forward $46 $-1 #
coedge $-1 $282 $283 $117 $190 reversed $267 $-1 #
edge $-1 $197 -78.76583147679068 $284 78.76583147679068 $189 $285 forward 7 unknown #
coedge $-1 $183 $286 $118 $192 reversed $114 $-1 #
edge $-1 $287 -78.76583147679068 $196 78.76583147679068 $191 $288 forward 7 unknown #
coedge $-1 $186 $119 $286 $289 forward $195 $-1 #
coedge $-1 $119 $186 $282 $290 reversed $195 $-1 #
loop $-1 $-1 $193 $266 #
vertex $-1 $120 $291 #
vertex $-1 $120 $292 #
straight-curve $-1 78.76583147679068 0 21.949795415642885 0 1 0 I I #
face $-1 $293 $294 $28 $-1 $295 reversed single #
loop $-1 $-1 $205 $121 #
plane-surface $-1 78.76583147679068 0 0 -1 0 0 0 0 1 forward_v I I I I #
coedge $-1 $296 $297 $203 $298 forward $122 $-1 #
coedge $-1 $299 $124 $202 $298 reversed $77 $-1 #
coedge $-1 $124 $299 $125 $208 reversed $77 $-1 #
coedge $-1 $127 $300 $124 $206 forward $200 $-1 #
edge $-1 $301 -13.121746727805668 $212 -4.5343506478687665 $205 $302 forward 7 unknown #
coedge $-1 $126 $125 $303 $304 reversed $49 $-1 #
edge $-1 $212 -78.76583147679068 $305 78.76583147679068 $204 $306 forward 7 unknown #
coedge $-1 $307 $308 $126 $210 forward $294 $-1 #
edge $-1 $213 -78.76583147679068 $309 78.76583147679068 $209 $310 forward 7 unknown #
coedge $-1 $300 $127 $308 $311 forward $200 $-1 #
vertex $-1 $128 $312 #
vertex $-1 $311 $313 #
straight-curve $-1 78.76583147679068 -15.112170727530909 -13.362399335705984 0 -1 0 I I #
face $-1 $-1 $227 $29 $-1 $314 forward single #
loop $-1 $-1 $315 $129 #
plane-surface $-1 78.76583147679068 0 0 -1 0 0 0 0 1 forward_v I I I I #
coedge $-1 $316 $317 $318 $319 reversed $130 $-1 #
coedge $-1 $320 $132 $134 $225 forward $81 $-1 #
coedge $-1 $132 $320 $316 $321 forward $81 $-1 #
coedge $-1 $318 $135 $132 $222 forward $227 $-1 #
edge $-1 $229 -0.35476371730655387 $322 8.2779952071578009 $221 $323 forward 7 unknown #
coedge $-1 $324 $325 $133 $224 forward $216 $-1 #
edge $-1 $326 -107.92007305255478 $228 -92.6082289837166 $223 $327 forward 7 unknown #
edge $-1 $229 134.64847133273253 $326 157.53166295358136 $134 $328 forward 7 unknown #
coedge $-1 $135 $318 $324 $329 forward $227 $-1 #
loop $-1 $-1 $318 $215 #
vertex $-1 $224 $330 #
vertex $-1 $136 $331 #
straight-curve $-1 33.553125433031497 -3.6068520276190696 21.949795415642882 -1 0 0 I I #
coedge $-1 $231 $231 $-1 $332 reversed $139 $-1 #
edge $-1 $333 0 $333 6.2831853071796004 $140 $334 forward 7 unknown #
vertex $-1 $143 $335 #
ellipse-curve $-1 70.263068837976277 -10.513059167190555 14.293873381223801 0.66913061440640931 0 0.74314481823134659 0.3715724091156733 0 -0.33456530720320465 1 I I #
coedge $-1 $235 $235 $-1 $336 reversed $146 $-1 #
edge $-1 $337 0 $337 6.2831853071796004 $147 $338 forward 7 unknown #
vertex $-1 $150 $339 #
ellipse-curve $-1 70.263068837976277 -7.923231489851247 14.293873381223801 0.66913061440640931 0 0.74314481823134659 0.3715724091156733 0 -0.33456530720320465 1 I I #
coedge $-1 $239 $239 $-1 $340 reversed $153 $-1 #
edge $-1 $341 0 $341 6.2831853071796004 $154 $342 forward 7 unknown #
vertex $-1 $157 $343 #
ellipse-curve $-1 70.263068837976277 -5.3334038125119392 14.293873381223801 0.66913061440640931 0 0.74314481823134659 0.3715724091156733 0 -0.33456530720320465 1 I I #
face $-1 $-1 $344 $33 $-1 $345 reversed single #
loop $-1 $-1 $164 $158 #
plane-surface $-1 0 0 21.949795415642885 0 0 1 1 0 0 forward_v I I I I #
coedge $-1 $346 $347 $348 $349 reversed $159 $-1 #
coedge $-1 $350 $161 $163 $253 forward $100 $-1 #
coedge $-1 $161 $350 $346 $351 forward $100 $-1 #
coedge $-1 $348 $164 $161 $250 forward $244 $-1 #
edge $-1 $256 -6.7973455252953912 $352 8.6202324551354153 $249 $353 forward 7 unknown #
coedge $-1 $354 $355 $162 $252 forward $344 $-1 #
edge $-1 $356 -48.939767835646492 $255 -34.519692452709378 $251 $357 forward 7 unknown #
edge $-1 $256 -19.404125182442463 $356 2.1389731374768986e-014 $163 $358 forward 7 unknown #
coedge $-1 $164 $348 $354 $359 forward $244 $-1 #
vertex $-1 $252 $360 #
vertex $-1 $165 $361 #
straight-curve $-1 -97.917336477072169 -5.8859020603753791 21.949795415642882 1 0 0 I I #
coedge $-1 $258 $258 $-1 $362 reversed $168 $-1 #
edge $-1 $363 0 $363 6.2831853071796004 $169 $364 forward 7 unknown #
vertex $-1 $172 $365 #
ellipse-curve $-1 -72.273884541427037 -1.4808797802522946 14.739757724174327 -0.74314483375859142 0 0.66913059716165679 1.3382611943233136 0 1.4862896675171828 1 I I #
coedge $-1 $262 $262 $-1 $366 reversed $175 $-1 #
edge $-1 $367 0 $367 6.2831853071796004 $176 $368 forward 7 unknown #
vertex $-1 $179 $369 #
ellipse-curve $-1 -72.273884541427037 5.1266536399323357 14.739757724174327 -0.74314483375859142 0 0.66913059716165679 1.3382611943233136 0 1.4862896675171828 1 I I #
face $-1 $-1 $195 $27 $-1 $370 reversed single #
loop $-1 $-1 $282 $180 #
plane-surface $-1 0 44.532369890120577 0 0 -1 0 0 0 -1 forward_v I I I I #
coedge $-1 $371 $280 $283 $372 forward $181 $-1 #
coedge $-1 $286 $183 $184 $274 reversed $114 $-1 #
coedge $-1 $280 $371 $183 $272 reversed $181 $-1 #
edge $-1 $287 -21.949795415642885 $373 21.949795415642885 $271 $374 forward 7 unknown #
coedge $-1 $185 $184 $371 $375 forward $73 $-1 #
edge $-1 $278 -78.76583147679068 $373 78.76583147679068 $270 $376 forward 7 unknown #
coedge $-1 $283 $282 $185 $276 reversed $267 $-1 #
edge $-1 $377 -78.76583147679068 $277 78.76583147679068 $275 $378 forward 7 unknown #
vertex $-1 $187 $379 #
vertex $-1 $289 $380 #
straight-curve $-1 78.76583147679068 0 -21.949795415642885 0 -1 0 I I #
coedge $-1 $269 $271 $188 $281 reversed $181 $-1 #
edge $-1 $284 -44.532369890120577 $287 44.532369890120577 $280 $381 forward 7 unknown #
coedge $-1 $275 $189 $194 $290 forward $267 $-1 #
coedge $-1 $189 $275 $269 $372 reversed $267 $-1 #
vertex $-1 $190 $382 #
straight-curve $-1 0 44.532369890120577 21.949795415642885 -1 0 0 I I #
coedge $-1 $191 $270 $193 $289 reversed $114 $-1 #
vertex $-1 $281 $383 #
straight-curve $-1 0 -44.532369890120577 21.949795415642885 1 0 0 I I #
edge $-1 $196 -21.949795415642885 $278 21.949795415642885 $193 $384 forward 7 unknown #
edge $-1 $197 -21.949795415642885 $277 21.949795415642885 $194 $385 forward 7 unknown #
point $-1 78.76583147679068 -44.532369890120577 21.949795415642885 #
point $-1 78.76583147679068 44.532369890120577 21.949795415642885 #
face $-1 $-1 $386 $28 $-1 $387 reversed single #
loop $-1 $-1 $209 $199 #
plane-surface $-1 0 -44.532369890120577 0 0 1 0 0 0 1 forward_v I I I I #
coedge $-1 $388 $202 $300 $389 forward $122 $-1 #
coedge $-1 $202 $388 $390 $391 forward $122 $-1 #
edge $-1 $392 -78.76583147679068 $301 78.76583147679068 $202 $393 forward 7 unknown #
coedge $-1 $204 $203 $394 $395 reversed $77 $-1 #
coedge $-1 $205 $211 $296 $389 reversed $200 $-1 #
vertex $-1 $389 $396 #
straight-curve $-1 78.76583147679068 -15.916313020003058 -8.8280486878372173 0 0 1 I I #
coedge $-1 $394 $397 $207 $304 forward $386 $-1 #
edge $-1 $309 -29.420199162589668 $305 -0.80414229247214841 $303 $398 forward 7 unknown #
vertex $-1 $304 $399 #
straight-curve $-1 0 -15.916313020003058 -13.362399335705984 -1 0 0 I I #
coedge $-1 $400 $209 $397 $401 forward $294 $-1 #
coedge $-1 $209 $400 $211 $311 reversed $294 $-1 #
vertex $-1 $401 $402 #
straight-curve $-1 0 -44.532369890120577 -13.362399335705984 -1 0 0 I I #
edge $-1 $213 13.362399335705984 $403 21.949795415642885 $211 $404 forward 7 unknown #
point $-1 78.76583147679068 -15.916313020003058 -13.362399335705984 #
point $-1 78.76583147679068 -44.532369890120577 -13.362399335705984 #
plane-surface $-1 0 0 21.949795415642885 0 0 1 1 0 0 forward_v I I I I #
coedge $-1 $325 $324 $317 $405 forward $216 $-1 #
coedge $-1 $317 $218 $220 $321 reversed $130 $-1 #
coedge $-1 $218 $316 $315 $405 reversed $130 $-1 #
coedge $-1 $226 $221 $218 $319 forward $227 $-1 #
edge $-1 $322 28.207180766130406 $406 45.212706043759184 $318 $407 forward 7 unknown #
coedge $-1 $220 $219 $325 $408 reversed $81 $-1 #
edge $-1 $409 -157.53166295358136 $322 -134.64847133273253 $316 $410 forward 7 unknown #
vertex $-1 $222 $411 #
straight-curve $-1 61.76030619916191 -3.9616157449256235 21.949795415642868 0 -1 0 I I #
coedge $-1 $315 $223 $226 $329 reversed $216 $-1 #
coedge $-1 $223 $315 $320 $408 forward $216 $-1 #
vertex $-1 $224 $412 #
straight-curve $-1 78.76583147679068 -3.6068520276190696 114.55802439935948 0 0 1 I I #
straight-curve $-1 -38.303007554530296 -3.6068520276190696 112.04720976739799 0.74314481823134659 0 -0.66913061440640931 I I #
edge $-1 $406 -12.239610952083424 $228 -3.6068520276190696 $324 $413 forward 7 unknown #
point $-1 78.76583147679068 -3.6068520276190696 21.949795415642885 #
point $-1 61.760306199161903 -3.6068520276190696 21.949795415642882 #
edge $-1 $414 1 $414 0 $231 $-1 forward 7 unknown #
vertex $-1 $232 $415 #
ellipse-curve $-1 69.208239060399563 -10.513059167190555 13.122366254744993 0.66913061440640931 0 0.74314481823134659 0.3715724091156733 0 -0.33456530720320465 1 I I #
point $-1 70.634641247091935 -10.513059167190555 13.959308074020596 #
edge $-1 $416 1 $416 0 $235 $-1 forward 7 unknown #
vertex $-1 $236 $417 #
ellipse-curve $-1 69.208239060399563 -7.923231489851247 13.122366254744993 0.66913061440640931 0 0.74314481823134659 0.3715724091156733 0 -0.33456530720320465 1 I I #
point $-1 70.634641247091935 -7.923231489851247 13.959308074020596 #
edge $-1 $418 1 $418 0 $239 $-1 forward 7 unknown #
vertex $-1 $240 $419 #
ellipse-curve $-1 69.208239060399563 -5.3334038125119392 13.122366254744993 0.66913061440640931 0 0.74314481823134659 0.3715724091156733 0 -0.33456530720320465 1 I I #
point $-1 70.634641247091935 -5.3334038125119392 13.959308074020596 #
loop $-1 $-1 $251 $243 #
plane-surface $-1 -78.76583147679068 0 0 1 0 0 0 0 -1 forward_v I I I I #
coedge $-1 $347 $246 $248 $351 reversed $159 $-1 #
coedge $-1 $246 $346 $420 $421 reversed $159 $-1 #
coedge $-1 $254 $249 $246 $349 forward $244 $-1 #
edge $-1 $352 -32.135398871008775 $422 -19.151505000281489 $348 $423 forward 7 unknown #
coedge $-1 $248 $247 $355 $424 reversed $100 $-1 #
edge $-1 $425 -2.1389731374768986e-014 $352 19.404125182442463 $346 $426 forward 7 unknown #
vertex $-1 $250 $427 #
straight-curve $-1 -65.781937606063394 0.91144346492001205 21.949795415642889 0 1 0 I I #
coedge $-1 $420 $251 $254 $359 reversed $344 $-1 #
coedge $-1 $251 $420 $350 $424 forward $344 $-1 #
vertex $-1 $252 $428 #
straight-curve $-1 -78.76583147679068 -5.8859020603753791 56.46948786835226 0 0 1 I I #
straight-curve $-1 -78.765831476790666 -5.8859020603753791 7.5297200327057823 -0.66913059716165679 0 -0.74314483375859142 I I #
edge $-1 $422 -9.5316759200554273 $255 5.8859020603753791 $354 $429 forward 7 unknown #
point $-1 -78.76583147679068 -5.8859020603753791 21.949795415642885 #
point $-1 -65.781937606063394 -5.8859020603753791 21.949795415642882 #
edge $-1 $430 1 $430 0 $258 $-1 forward 7 unknown #
vertex $-1 $259 $431 #
ellipse-curve $-1 -69.465868911149059 -1.4808797802522946 12.211409157147171 -0.74314483375859142 0 0.66913059716165679 1.3382611943233136 0 1.4862896675171828 1 I I #
point $-1 -70.935623347103729 -1.4808797802522946 16.226047391691516 #
edge $-1 $432 1 $432 0 $262 $-1 forward 7 unknown #
vertex $-1 $263 $433 #
ellipse-curve $-1 -69.465868911149059 5.1266536399323357 12.211409157147171 -0.74314483375859142 0 0.66913059716165679 1.3382611943233136 0 1.4862896675171828 1 I I #
point $-1 -70.935623347103729 5.1266536399323357 16.226047391691516 #
plane-surface $-1 78.76583147679068 0 0 -1 0 0 0 0 1 forward_v I I I I #
coedge $-1 $271 $269 $273 $375 reversed $181 $-1 #
edge $-1 $284 -21.949795415642885 $377 21.949795415642885 $283 $434 forward 7 unknown #
vertex $-1 $375 $435 #
straight-curve $-1 -78.76583147679068 -44.532369890120577 0 0 0 -1 I I #
edge $-1 $373 -44.532369890120577 $377 44.532369890120577 $371 $436 forward 7 unknown #
straight-curve $-1 0 -44.532369890120577 -21.949795415642885 -1 0 0 I I #
vertex $-1 $276 $437 #
straight-curve $-1 0 44.532369890120577 -21.949795415642885 1 0 0 I I #
point $-1 78.76583147679068 44.532369890120577 -21.949795415642885 #
point $-1 78.76583147679068 -44.532369890120577 -21.949795415642885 #
straight-curve $-1 -78.76583147679068 0 21.949795415642885 0 -1 0 I I #
point $-1 -78.76583147679068 44.532369890120577 21.949795415642885 #
point $-1 -78.76583147679068 -44.532369890120577 21.949795415642885 #
straight-curve $-1 78.76583147679068 -44.532369890120577 0 0 0 -1 I I #
straight-curve $-1 78.76583147679068 44.532369890120577 0 0 0 -1 I I #
loop $-1 $-1 $394 $293 #
plane-surface $-1 -78.76583147679068 0 0 1 0 0 0 0 -1 forward_v I I I I #
coedge $-1 $297 $296 $400 $438 forward $122 $-1 #
edge $-1 $301 15.916313020003058 $403 44.532369890120577 $300 $439 forward 7 unknown #
coedge $-1 $397 $394 $297 $391 reversed $386 $-1 #
edge $-1 $440 -44.532369890120577 $392 -15.916313020003058 $390 $441 forward 7 unknown #
vertex $-1 $395 $442 #
straight-curve $-1 0 -15.916313020003058 -21.949795415642885 1 0 0 I I #
coedge $-1 $390 $303 $299 $395 forward $386 $-1 #
edge $-1 $305 4.5343506478687665 $392 13.121746727805668 $394 $443 forward 7 unknown #
point $-1 78.76583147679068 -15.916313020003058 -21.949795415642885 #
coedge $-1 $303 $390 $307 $401 reversed $386 $-1 #
straight-curve $-1 -78.76583147679068 -15.112170727530909 -13.362399335705984 0 1 0 I I #
point $-1 -78.76583147679068 -15.916313020003058 -13.362399335705984 #
coedge $-1 $308 $307 $388 $438 reversed $294 $-1 #
edge $-1 $309 13.362399335705984 $440 21.949795415642885 $397 $444 forward 7 unknown #
point $-1 -78.76583147679068 -44.532369890120577 -13.362399335705984 #
vertex $-1 $311 $445 #
straight-curve $-1 78.76583147679068 -44.532369890120577 0 0 0 -1 I I #
edge $-1 $406 92.6082289837166 $409 107.92007305255478 $315 $446 forward 7 unknown #
vertex $-1 $329 $447 #
straight-curve $-1 33.553125433031497 -12.239610952083424 21.949795415642882 1 0 0 I I #
edge $-1 $409 -8.2779952071578009 $326 0.35476371730655387 $325 $448 forward 7 unknown #
vertex $-1 $408 $449 #
straight-curve $-1 -38.303007554530296 -12.239610952083424 112.04720976739799 -0.74314481823134659 0 0.66913061440640931 I I #
point $-1 61.760306199161903 -12.239610952083424 21.949795415642882 #
point $-1 78.76583147679068 -3.6068520276190696 6.637951346804698 #
straight-curve $-1 78.76583147679068 0 21.949795415642885 0 1 0 I I #
vertex $-1 $332 $450 #
point $-1 69.579811469515235 -10.513059167190555 12.787800947541788 #
vertex $-1 $336 $451 #
point $-1 69.579811469515235 -7.923231489851247 12.787800947541788 #
vertex $-1 $340 $452 #
point $-1 69.579811469515235 -5.3334038125119392 12.787800947541788 #
coedge $-1 $355 $354 $347 $421 forward $344 $-1 #
edge $-1 $422 34.519692452709378 $425 48.939767835646492 $420 $453 forward 7 unknown #
vertex $-1 $359 $454 #
straight-curve $-1 -97.917336477072169 9.5316759200554273 21.949795415642882 -1 0 0 I I #
edge $-1 $425 -8.6202324551354153 $356 6.7973455252953912 $355 $455 forward 7 unknown #
vertex $-1 $424 $456 #
straight-curve $-1 -78.765831476790666 9.5316759200554273 7.5297200327057823 0.66913059716165679 0 0.74314483375859142 I I #
point $-1 -65.781937606063394 9.5316759200554273 21.949795415642882 #
point $-1 -78.76583147679068 -5.8859020603753791 7.5297200327057663 #
straight-curve $-1 -78.76583147679068 0 21.949795415642885 0 -1 0 I I #
vertex $-1 $362 $457 #
point $-1 -68.12760771682575 -1.4808797802522946 13.697698824664355 #
vertex $-1 $366 $458 #
point $-1 -68.12760771682575 5.1266536399323357 13.697698824664355 #
straight-curve $-1 -78.76583147679068 44.532369890120577 0 0 0 -1 I I #
point $-1 -78.76583147679068 -44.532369890120577 -21.949795415642885 #
straight-curve $-1 -78.76583147679068 0 -21.949795415642885 0 1 0 I I #
point $-1 -78.76583147679068 44.532369890120577 -21.949795415642885 #
edge $-1 $403 -78.76583147679068 $440 78.76583147679068 $400 $459 forward 7 unknown #
straight-curve $-1 78.76583147679068 0 -21.949795415642885 0 -1 0 I I #
vertex $-1 $391 $460 #
straight-curve $-1 -78.76583147679068 0 -21.949795415642885 0 1 0 I I #
point $-1 -78.76583147679068 -15.916313020003058 -21.949795415642885 #
straight-curve $-1 -78.76583147679068 -15.916313020003058 -8.8280486878372173 0 0 -1 I I #
straight-curve $-1 -78.76583147679068 -44.532369890120577 0 0 0 -1 I I #
point $-1 78.76583147679068 -44.532369890120577 -21.949795415642885 #
straight-curve $-1 78.76583147679068 -12.239610952083424 114.55802439935948 0 0 -1 I I #
point $-1 78.76583147679068 -12.239610952083424 21.949795415642885 #
straight-curve $-1 78.76583147679068 -3.9616157449256235 6.6379513468047051 0 1 0 I I #
point $-1 78.76583147679068 -12.239610952083424 6.637951346804698 #
point $-1 68.873673753196357 -10.513059167190555 12.750793845629321 #
point $-1 68.873673753196357 -7.923231489851247 12.750793845629321 #
point $-1 68.873673753196357 -5.3334038125119392 12.750793845629321 #
straight-curve $-1 -78.76583147679068 9.5316759200554273 56.46948786835226 0 0 -1 I I #
point $-1 -78.76583147679068 9.5316759200554273 21.949795415642885 #
straight-curve $-1 -78.76583147679068 0.91144346492001205 7.5297200327057752 0 -1 0 I I #
point $-1 -78.76583147679068 9.5316759200554273 7.5297200327057663 #
point $-1 -67.979579243631875 -1.4808797802522946 10.873147962823859 #
point $-1 -67.979579243631875 5.1266536399323357 10.873147962823859 #
straight-curve $-1 0 -44.532369890120577 -21.949795415642885 -1 0 0 I I #
point $-1 -78.76583147679068 -44.532369890120577 -21.949795415642885 #
End-of-ACIS-data 