500 0 3 0           
7 Unknown 11 ACIS 5.0 NT 24 Fri Mar 26 00:28:17 1999 
-1 9.9999999999999995e-007 1e-010 
body $-1 $3 $-1 $4 #
body $-1 $5 $-1 $6 #
body $-1 $7 $-1 $8 #
lump $-1 $-1 $9 $0 #
transform $-1 1 0 0 0 1 0 0 0 1 74.407788323618277 35.371119542344665 14.057556119026387 1 rotate no_reflect no_shear #
lump $-1 $-1 $10 $1 #
transform $-1 1 0 0 0 1 0 0 0 1 74.407788323618277 35.371119542344665 14.057556119026387 1 rotate no_reflect no_shear #
lump $-1 $-1 $11 $2 #
transform $-1 1 0 0 0 1 0 0 0 1 74.407788323618277 35.371119542344665 14.057556119026387 1 rotate no_reflect no_shear #
shell $-1 $-1 $-1 $12 $-1 $3 #
shell $-1 $-1 $-1 $13 $-1 $5 #
shell $-1 $-1 $-1 $14 $-1 $7 #
face $-1 $15 $16 $9 $-1 $17 reversed single #
face $-1 $18 $19 $10 $-1 $20 forward single #
face $-1 $21 $22 $11 $-1 $23 forward single #
face $-1 $24 $25 $9 $-1 $26 reversed single #
loop $-1 $-1 $27 $12 #
plane-surface $-1 74.407788323618277 0 0 -1 0 0 0 0 1 forward_v I I I I #
face $-1 $28 $29 $10 $-1 $30 reversed single #
loop $-1 $-1 $31 $13 #
plane-surface $-1 -74.407788323618277 0 0 1 0 0 0 0 -1 forward_v I I I I #
face $-1 $32 $33 $11 $-1 $34 reversed single #
loop $-1 $-1 $35 $14 #
plane-surface $-1 74.407788323618277 0 0 -1 0 0 0 0 1 forward_v I I I I #
face $-1 $36 $37 $9 $-1 $38 forward single #
loop $-1 $-1 $39 $15 #
plane-surface $-1 -74.407788323618277 0 0 1 0 0 0 0 -1 forward_v I I I I #
coedge $-1 $40 $41 $42 $43 reversed $16 $-1 #
face $-1 $44 $45 $10 $-1 $46 reversed single #
loop $-1 $-1 $47 $18 #
plane-surface $-1 0 0 -14.057556119026387 0 0 1 1 0 0 forward_v I I I I #
coedge $-1 $48 $49 $50 $51 forward $19 $-1 #
face $-1 $52 $53 $11 $-1 $54 reversed single #
loop $-1 $-1 $55 $21 #
plane-surface $-1 0 0 -14.057556119026387 0 0 1 1 0 0 forward_v I I I I #
coedge $-1 $56 $57 $58 $59 forward $22 $-1 #
face $-1 $60 $61 $9 $-1 $62 reversed single #
loop $-1 $-1 $63 $24 #
plane-surface $-1 0 0 14.057556119026387 0 0 1 1 0 0 forward_v I I I I #
coedge $-1 $64 $65 $66 $67 reversed $25 $-1 #
coedge $-1 $68 $27 $69 $70 reversed $16 $-1 #
coedge $-1 $27 $68 $71 $72 forward $16 $-1 #
coedge $-1 $73 $74 $27 $43 forward $61 $-1 #
edge $-1 $75 -35.371119542344665 $76 35.371119542344665 $27 $77 forward 7 unknown #
face $-1 $78 $79 $10 $-1 $80 reversed single #
loop $-1 $-1 $81 $28 #
plane-surface $-1 -79.080193582468809 -14.84074675711684 0 0 1 0 0 0 1 forward_v I I I I #
coedge $-1 $82 $83 $49 $84 forward $29 $-1 #
coedge $-1 $85 $31 $86 $87 reversed $19 $-1 #
coedge $-1 $31 $85 $47 $84 reversed $19 $-1 #
coedge $-1 $88 $89 $31 $51 reversed $90 $-1 #
edge $-1 $91 -14.057556119026387 $92 14.057556119026387 $50 $93 forward 7 unknown #
face $-1 $94 $95 $11 $-1 $96 reversed single #
loop $-1 $-1 $58 $32 #
plane-surface $-1 79.080193582468823 -14.84074675711684 0 0 1 0 0 0 1 forward_v I I I I #
coedge $-1 $97 $98 $57 $99 forward $33 $-1 #
coedge $-1 $100 $35 $101 $102 reversed $22 $-1 #
coedge $-1 $35 $100 $55 $99 reversed $22 $-1 #
coedge $-1 $103 $104 $35 $59 reversed $53 $-1 #
edge $-1 $105 -14.057556119026387 $106 14.057556119026387 $58 $107 forward 7 unknown #
face $-1 $108 $109 $9 $-1 $110 reversed single #
loop $-1 $-1 $42 $36 #
plane-surface $-1 0 0 -14.057556119026387 0 0 1 1 0 0 forward_v I I I I #
coedge $-1 $111 $112 $68 $113 forward $37 $-1 #
coedge $-1 $114 $39 $115 $116 reversed $25 $-1 #
coedge $-1 $39 $114 $117 $118 forward $25 $-1 #
coedge $-1 $74 $73 $39 $67 forward $61 $-1 #
edge $-1 $119 -35.371119542344665 $120 35.371119542344665 $39 $121 forward 7 unknown #
coedge $-1 $41 $40 $63 $113 reversed $16 $-1 #
coedge $-1 $122 $123 $40 $70 forward $124 $-1 #
edge $-1 $125 -14.057556119026387 $75 14.057556119026387 $40 $126 forward 7 unknown #
coedge $-1 $127 $128 $41 $72 reversed $109 $-1 #
edge $-1 $129 -14.057556119026387 $76 14.057556119026387 $41 $130 forward 7 unknown #
coedge $-1 $66 $42 $128 $131 forward $61 $-1 #
coedge $-1 $42 $66 $122 $132 forward $61 $-1 #
vertex $-1 $43 $133 #
vertex $-1 $72 $134 #
straight-curve $-1 74.407788323618277 0 -14.057556119026387 0 -1 0 I I #
face $-1 $135 $90 $10 $-1 $136 reversed single #
loop $-1 $-1 $137 $44 #
plane-surface $-1 -83.75259884131934 -11.048377030704366 0 1 0 0 0 0 -1 forward_v I I I I #
coedge $-1 $138 $139 $140 $141 forward $45 $-1 #
coedge $-1 $142 $47 $138 $143 forward $29 $-1 #
coedge $-1 $47 $142 $88 $144 forward $29 $-1 #
edge $-1 $91 7.2560073042918916 $145 14.84074675711684 $47 $146 forward 7 unknown #
coedge $-1 $49 $48 $147 $148 forward $19 $-1 #
coedge $-1 $149 $150 $48 $87 forward $151 $-1 #
edge $-1 $152 -14.84074675711684 $92 -7.2560073042918916 $86 $153 forward 7 unknown #
coedge $-1 $154 $50 $83 $144 reversed $90 $-1 #
coedge $-1 $50 $154 $149 $155 reversed $90 $-1 #
loop $-1 $-1 $50 $78 #
vertex $-1 $84 $156 #
vertex $-1 $155 $157 #
straight-curve $-1 -74.407788323618277 -7.2560073042918916 0 0 0 1 I I #
face $-1 $158 $159 $11 $-1 $160 reversed single #
loop $-1 $-1 $161 $52 #
plane-surface $-1 79.080193582468823 -7.2560073042918916 0 0 -1 0 0 0 -1 forward_v I I I I #
coedge $-1 $162 $55 $163 $164 forward $33 $-1 #
coedge $-1 $55 $162 $103 $165 forward $33 $-1 #
edge $-1 $105 -14.84074675711684 $166 -7.2560073042918916 $55 $167 forward 7 unknown #
coedge $-1 $57 $56 $168 $169 forward $22 $-1 #
coedge $-1 $170 $171 $56 $102 forward $172 $-1 #
edge $-1 $173 7.2560073042918916 $106 14.84074675711684 $101 $174 forward 7 unknown #
coedge $-1 $175 $58 $98 $165 reversed $53 $-1 #
coedge $-1 $58 $175 $170 $176 reversed $53 $-1 #
vertex $-1 $99 $177 #
vertex $-1 $176 $178 #
straight-curve $-1 74.407788323618277 -14.84074675711684 0 0 0 1 I I #
face $-1 $-1 $124 $9 $-1 $179 reversed single #
loop $-1 $-1 $115 $60 #
plane-surface $-1 0 -35.371119542344665 0 0 1 0 0 0 1 forward_v I I I I #
coedge $-1 $180 $63 $123 $181 forward $37 $-1 #
coedge $-1 $63 $180 $127 $182 forward $37 $-1 #
edge $-1 $129 -35.371119542344665 $125 35.371119542344665 $68 $183 forward 7 unknown #
coedge $-1 $65 $64 $180 $184 reversed $25 $-1 #
coedge $-1 $128 $127 $64 $116 forward $109 $-1 #
edge $-1 $185 -14.057556119026387 $119 14.057556119026387 $64 $186 forward 7 unknown #
coedge $-1 $123 $122 $65 $118 reversed $124 $-1 #
edge $-1 $187 -14.057556119026387 $120 14.057556119026387 $117 $188 forward 7 unknown #
vertex $-1 $67 $189 #
vertex $-1 $132 $190 #
straight-curve $-1 -74.407788323618277 0 -14.057556119026387 0 1 0 I I #
coedge $-1 $117 $69 $74 $132 reversed $124 $-1 #
coedge $-1 $69 $117 $111 $181 reversed $124 $-1 #
loop $-1 $-1 $69 $108 #
vertex $-1 $113 $191 #
straight-curve $-1 74.407788323618277 35.371119542344665 0 0 0 -1 I I #
coedge $-1 $115 $71 $112 $182 reversed $109 $-1 #
coedge $-1 $71 $115 $73 $131 reversed $109 $-1 #
vertex $-1 $113 $192 #
straight-curve $-1 74.407788323618277 -35.371119542344665 0 0 0 -1 I I #
edge $-1 $76 -74.407788323618277 $119 74.407788323618277 $128 $193 forward 7 unknown #
edge $-1 $120 -74.407788323618277 $75 74.407788323618277 $122 $194 forward 7 unknown #
point $-1 74.407788323618277 35.371119542344665 -14.057556119026387 #
point $-1 74.407788323618277 -35.371119542344665 -14.057556119026387 #
face $-1 $-1 $151 $10 $-1 $195 forward single #
plane-surface $-1 -79.080193582468809 -7.2560073042918916 0 0 -1 0 0 0 -1 forward_v I I I I #
coedge $-1 $196 $197 $154 $198 forward $79 $-1 #
coedge $-1 $147 $81 $82 $143 reversed $45 $-1 #
coedge $-1 $81 $147 $150 $199 reversed $45 $-1 #
coedge $-1 $197 $196 $81 $141 reversed $79 $-1 #
edge $-1 $200 -14.057556119026387 $201 14.057556119026387 $140 $202 forward 7 unknown #
coedge $-1 $83 $82 $196 $203 forward $29 $-1 #
edge $-1 $145 -4.6724052588505316 $201 4.6724052588505316 $138 $204 forward 7 unknown #
edge $-1 $205 -4.6724052588505316 $91 4.6724052588505316 $88 $206 forward 7 unknown #
vertex $-1 $143 $207 #
straight-curve $-1 -74.407788323618277 0 -14.057556119026387 0 -1 0 I I #
coedge $-1 $139 $138 $85 $148 reversed $45 $-1 #
edge $-1 $152 -14.057556119026387 $145 14.057556119026387 $147 $208 forward 7 unknown #
coedge $-1 $209 $86 $89 $155 forward $151 $-1 #
coedge $-1 $86 $209 $139 $199 forward $151 $-1 #
loop $-1 $-1 $86 $135 #
vertex $-1 $87 $210 #
straight-curve $-1 -74.407788323618277 0 14.057556119026387 0 1 0 I I #
coedge $-1 $89 $88 $137 $198 reversed $90 $-1 #
edge $-1 $92 -4.6724052588505316 $211 4.6724052588505316 $89 $212 forward 7 unknown #
point $-1 -74.407788323618277 -7.2560073042918916 -14.057556119026387 #
point $-1 -74.407788323618277 -7.2560073042918916 14.057556119026387 #
face $-1 $-1 $172 $11 $-1 $213 forward single #
loop $-1 $-1 $214 $94 #
plane-surface $-1 83.752598841319355 -11.048377030704366 0 -1 0 0 0 0 1 forward_v I I I I #
coedge $-1 $163 $215 $216 $217 forward $95 $-1 #
coedge $-1 $98 $97 $218 $219 forward $33 $-1 #
coedge $-1 $168 $161 $97 $164 reversed $95 $-1 #
edge $-1 $166 -4.6724052588505316 $220 4.6724052588505316 $163 $221 forward 7 unknown #
edge $-1 $222 -4.6724052588505316 $105 4.6724052588505316 $103 $223 forward 7 unknown #
vertex $-1 $164 $224 #
straight-curve $-1 74.407788323618277 0 -14.057556119026387 0 1 0 I I #
coedge $-1 $215 $163 $100 $169 reversed $95 $-1 #
edge $-1 $173 -14.057556119026387 $166 14.057556119026387 $168 $225 forward 7 unknown #
coedge $-1 $226 $101 $104 $176 forward $172 $-1 #
coedge $-1 $101 $226 $215 $227 forward $172 $-1 #
loop $-1 $-1 $101 $158 #
vertex $-1 $102 $228 #
straight-curve $-1 74.407788323618277 0 14.057556119026387 0 -1 0 I I #
coedge $-1 $104 $103 $214 $229 reversed $53 $-1 #
edge $-1 $106 -4.6724052588505316 $230 4.6724052588505316 $104 $231 forward 7 unknown #
point $-1 74.407788323618291 -14.84074675711684 -14.057556119026387 #
point $-1 74.407788323618291 -14.84074675711684 14.057556119026387 #
plane-surface $-1 0 35.371119542344665 0 0 -1 0 0 0 -1 forward_v I I I I #
coedge $-1 $112 $111 $114 $184 forward $37 $-1 #
edge $-1 $125 -74.407788323618277 $187 74.407788323618277 $123 $232 forward 7 unknown #
edge $-1 $185 -74.407788323618277 $129 74.407788323618277 $127 $233 forward 7 unknown #
straight-curve $-1 74.407788323618277 0 14.057556119026387 0 1 0 I I #
edge $-1 $187 -35.371119542344665 $185 35.371119542344665 $114 $234 forward 7 unknown #
vertex $-1 $184 $235 #
straight-curve $-1 -74.407788323618277 -35.371119542344665 0 0 0 -1 I I #
vertex $-1 $181 $236 #
straight-curve $-1 -74.407788323618277 35.371119542344665 0 0 0 -1 I I #
point $-1 -74.407788323618277 -35.371119542344665 -14.057556119026387 #
point $-1 -74.407788323618277 35.371119542344665 -14.057556119026387 #
point $-1 74.407788323618277 35.371119542344665 14.057556119026387 #
point $-1 74.407788323618277 -35.371119542344665 14.057556119026387 #
straight-curve $-1 0 -35.371119542344665 -14.057556119026387 -1 0 0 I I #
straight-curve $-1 0 35.371119542344665 -14.057556119026387 1 0 0 I I #
plane-surface $-1 0 0 14.057556119026387 0 0 1 1 0 0 forward_v I I I I #
coedge $-1 $140 $137 $142 $203 reversed $79 $-1 #
coedge $-1 $137 $140 $209 $237 reversed $79 $-1 #
edge $-1 $211 -14.057556119026387 $205 14.057556119026387 $154 $238 forward 7 unknown #
edge $-1 $200 -4.6724052588505316 $152 4.6724052588505316 $139 $239 forward 7 unknown #
vertex $-1 $237 $240 #
vertex $-1 $203 $241 #
straight-curve $-1 -83.75259884131934 -14.84074675711684 0 0 0 -1 I I #
edge $-1 $201 -3.7923697264124741 $205 3.7923697264124741 $196 $242 forward 7 unknown #
straight-curve $-1 -79.080193582468809 -14.84074675711684 -14.057556119026387 -1 0 0 I I #
vertex $-1 $144 $243 #
straight-curve $-1 -79.080193582468809 -7.2560073042918916 -14.057556119026387 1 0 0 I I #
point $-1 -74.407788323618277 -14.84074675711684 -14.057556119026387 #
straight-curve $-1 -74.407788323618277 -14.84074675711684 0 0 0 -1 I I #
coedge $-1 $150 $149 $197 $237 forward $151 $-1 #
point $-1 -74.407788323618277 -14.84074675711684 14.057556119026387 #
vertex $-1 $155 $244 #
straight-curve $-1 -79.080193582468809 -7.2560073042918916 14.057556119026387 -1 0 0 I I #
plane-surface $-1 0 0 14.057556119026387 0 0 1 1 0 0 forward_v I I I I #
coedge $-1 $218 $245 $175 $229 forward $159 $-1 #
coedge $-1 $161 $168 $171 $227 reversed $95 $-1 #
coedge $-1 $245 $218 $161 $217 reversed $159 $-1 #
edge $-1 $246 -14.057556119026387 $220 14.057556119026387 $216 $247 forward 7 unknown #
coedge $-1 $216 $214 $162 $219 reversed $159 $-1 #
edge $-1 $220 -3.7923697264124741 $222 3.7923697264124741 $218 $248 forward 7 unknown #
vertex $-1 $219 $249 #
straight-curve $-1 79.080193582468823 -7.2560073042918916 -14.057556119026387 1 0 0 I I #
vertex $-1 $229 $250 #
straight-curve $-1 79.080193582468823 -14.84074675711684 -14.057556119026387 -1 0 0 I I #
point $-1 74.407788323618291 -7.2560073042918916 -14.057556119026387 #
straight-curve $-1 74.407788323618277 -7.2560073042918916 0 0 0 -1 I I #
coedge $-1 $171 $170 $245 $251 forward $172 $-1 #
edge $-1 $246 -4.6724052588505316 $173 4.6724052588505316 $215 $252 forward 7 unknown #
point $-1 74.407788323618291 -7.2560073042918916 14.057556119026387 #
edge $-1 $230 -14.057556119026387 $222 14.057556119026387 $214 $253 forward 7 unknown #
vertex $-1 $251 $254 #
straight-curve $-1 79.080193582468823 -14.84074675711684 14.057556119026387 1 0 0 I I #
straight-curve $-1 0 35.371119542344665 14.057556119026387 -1 0 0 I I #
straight-curve $-1 0 -35.371119542344665 14.057556119026387 1 0 0 I I #
straight-curve $-1 -74.407788323618277 0 14.057556119026387 0 -1 0 I I #
point $-1 -74.407788323618277 -35.371119542344665 14.057556119026387 #
point $-1 -74.407788323618277 35.371119542344665 14.057556119026387 #
edge $-1 $211 -3.7923697264124741 $200 3.7923697264124741 $197 $255 forward 7 unknown #
straight-curve $-1 -83.75259884131934 -7.2560073042918916 0 0 0 -1 I I #
straight-curve $-1 -79.080193582468809 -14.84074675711684 14.057556119026387 1 0 0 I I #
point $-1 -83.75259884131934 -14.84074675711684 14.057556119026387 #
point $-1 -83.75259884131934 -14.84074675711684 -14.057556119026387 #
straight-curve $-1 -83.75259884131934 -11.048377030704366 -14.057556119026387 0 1 0 I I #
point $-1 -83.75259884131934 -7.2560073042918916 -14.057556119026387 #
point $-1 -83.75259884131934 -7.2560073042918916 14.057556119026387 #
coedge $-1 $214 $216 $226 $251 reversed $159 $-1 #
vertex $-1 $251 $256 #
straight-curve $-1 83.752598841319355 -7.2560073042918916 0 0 0 -1 I I #
straight-curve $-1 83.752598841319355 -11.048377030704366 -14.057556119026387 0 -1 0 I I #
point $-1 83.752598841319355 -7.2560073042918916 -14.057556119026387 #
point $-1 83.752598841319355 -14.84074675711684 -14.057556119026387 #
edge $-1 $230 -3.7923697264124741 $246 3.7923697264124741 $245 $257 forward 7 unknown #
straight-curve $-1 79.080193582468823 -7.2560073042918916 14.057556119026387 -1 0 0 I I #
straight-curve $-1 83.752598841319355 -14.84074675711684 0 0 0 -1 I I #
point $-1 83.752598841319355 -14.84074675711684 14.057556119026387 #
straight-curve $-1 -83.75259884131934 -11.048377030704366 14.057556119026387 0 -1 0 I I #
point $-1 83.752598841319355 -7.2560073042918916 14.057556119026387 #
straight-curve $-1 83.752598841319355 -11.048377030704366 14.057556119026387 0 1 0 I I #
End-of-ACIS-data 