500 0 17 0           
7 Unknown 11 ACIS 5.0 NT 24 Fri Mar 26 01:53:57 1999 
-1 9.9999999999999995e-007 1e-010 
body $-1 $17 $-1 $18 #
body $-1 $19 $-1 $20 #
body $-1 $21 $-1 $22 #
body $-1 $23 $-1 $24 #
body $-1 $25 $-1 $26 #
body $-1 $27 $-1 $28 #
body $-1 $29 $-1 $30 #
body $-1 $31 $-1 $32 #
body $-1 $33 $-1 $34 #
body $-1 $35 $-1 $36 #
body $-1 $37 $-1 $38 #
body $-1 $39 $-1 $40 #
body $-1 $41 $-1 $42 #
body $-1 $43 $-1 $44 #
body $-1 $45 $-1 $46 #
body $-1 $47 $-1 $48 #
body $-1 $49 $-1 $50 #
lump $-1 $-1 $51 $0 #
transform $-1 1 0 0 0 1 0 0 0 1 58.156071657460245 33.670248109577088 8.2547442286039505 1 rotate no_reflect no_shear #
lump $-1 $-1 $52 $1 #
transform $-1 1 0 0 0 1 0 0 0 1 58.156071657460245 33.670248109577088 8.2547442286039505 1 rotate no_reflect no_shear #
lump $-1 $-1 $53 $2 #
transform $-1 1 0 0 0 1 0 0 0 1 58.156071657460245 33.670248109577088 8.2547442286039505 1 rotate no_reflect no_shear #
lump $-1 $-1 $54 $3 #
transform $-1 1 0 0 0 1 0 0 0 1 58.156071657460245 33.670248109577088 8.2547442286039505 1 rotate no_reflect no_shear #
lump $-1 $-1 $55 $4 #
transform $-1 1 0 0 0 1 0 0 0 1 58.156071657460245 33.670248109577088 8.2547442286039505 1 rotate no_reflect no_shear #
lump $-1 $-1 $56 $5 #
transform $-1 1 0 0 0 1 0 0 0 1 58.156071657460245 33.670248109577088 8.2547442286039505 1 rotate no_reflect no_shear #
lump $-1 $-1 $57 $6 #
transform $-1 1 0 0 0 1 0 0 0 1 58.156071657460245 33.670248109577088 8.2547442286039505 1 rotate no_reflect no_shear #
lump $-1 $-1 $58 $7 #
transform $-1 1 0 0 0 1 0 0 0 1 58.156071657460245 33.670248109577088 8.2547442286039505 1 rotate no_reflect no_shear #
lump $-1 $-1 $59 $8 #
transform $-1 1 0 0 0 1 0 0 0 1 58.156071657460245 33.670248109577088 8.2547442286039505 1 rotate no_reflect no_shear #
lump $-1 $-1 $60 $9 #
transform $-1 1 0 0 0 1 0 0 0 1 58.156071657460245 33.670248109577088 8.2547442286039505 1 rotate no_reflect no_shear #
lump $-1 $-1 $61 $10 #
transform $-1 1 0 0 0 1 0 0 0 1 58.156071657460245 33.670248109577088 8.2547442286039505 1 rotate no_reflect no_shear #
lump $-1 $-1 $62 $11 #
transform $-1 1 0 0 0 1 0 0 0 1 58.156071657460245 33.670248109577088 8.2547442286039505 1 rotate no_reflect no_shear #
lump $-1 $-1 $63 $12 #
transform $-1 1 0 0 0 1 0 0 0 1 58.156071657460245 33.670248109577088 8.2547442286039505 1 rotate no_reflect no_shear #
lump $-1 $-1 $64 $13 #
transform $-1 1 0 0 0 1 0 0 0 1 58.156071657460245 33.670248109577088 8.2547442286039505 1 rotate no_reflect no_shear #
lump $-1 $-1 $65 $14 #
transform $-1 1 0 0 0 1 0 0 0 1 58.156071657460245 33.670248109577088 8.2547442286039505 1 rotate no_reflect no_shear #
lump $-1 $-1 $66 $15 #
transform $-1 1 0 0 0 1 0 0 0 1 58.156071657460245 33.670248109577088 8.2547442286039505 1 rotate no_reflect no_shear #
lump $-1 $-1 $67 $16 #
transform $-1 1 0 0 0 1 0 0 0 1 58.156071657460245 33.670248109577088 8.2547442286039505 1 rotate no_reflect no_shear #
shell $-1 $-1 $-1 $68 $-1 $17 #
shell $-1 $-1 $-1 $69 $-1 $19 #
shell $-1 $-1 $-1 $70 $-1 $21 #
shell $-1 $-1 $-1 $71 $-1 $23 #
shell $-1 $-1 $-1 $72 $-1 $25 #
shell $-1 $-1 $-1 $73 $-1 $27 #
shell $-1 $-1 $-1 $74 $-1 $29 #
shell $-1 $-1 $-1 $75 $-1 $31 #
shell $-1 $-1 $-1 $76 $-1 $33 #
shell $-1 $-1 $-1 $77 $-1 $35 #
shell $-1 $-1 $-1 $78 $-1 $37 #
shell $-1 $-1 $-1 $79 $-1 $39 #
shell $-1 $-1 $-1 $80 $-1 $41 #
shell $-1 $-1 $-1 $81 $-1 $43 #
shell $-1 $-1 $-1 $82 $-1 $45 #
shell $-1 $-1 $-1 $83 $-1 $47 #
shell $-1 $-1 $-1 $84 $-1 $49 #
face $-1 $85 $86 $51 $-1 $87 forward single #
face $-1 $88 $89 $52 $-1 $90 forward single #
face $-1 $91 $92 $53 $-1 $93 reversed single #
face $-1 $94 $95 $54 $-1 $96 forward single #
face $-1 $97 $98 $55 $-1 $99 forward single #
face $-1 $100 $101 $56 $-1 $102 reversed single #
face $-1 $103 $104 $57 $-1 $105 forward single #
face $-1 $106 $107 $58 $-1 $108 forward single #
face $-1 $109 $110 $59 $-1 $111 reversed single #
face $-1 $112 $113 $60 $-1 $114 forward single #
face $-1 $115 $116 $61 $-1 $117 forward single #
face $-1 $118 $119 $62 $-1 $120 reversed single #
face $-1 $121 $122 $63 $-1 $123 forward single #
face $-1 $124 $125 $64 $-1 $126 forward single #
face $-1 $127 $128 $65 $-1 $129 reversed single #
face $-1 $130 $131 $66 $-1 $132 forward single #
face $-1 $133 $134 $67 $-1 $135 forward single #
face $-1 $136 $137 $51 $-1 $138 reversed single #
loop $-1 $-1 $139 $68 #
plane-surface $-1 0 0 8.2547442286039505 0 0 1 1 0 0 forward_v I I I I #
face $-1 $140 $141 $52 $-1 $142 forward single #
loop $-1 $-1 $143 $69 #
plane-surface $-1 0 -33.670248109577088 0 0 1 0 0 0 1 forward_v I I I I #
face $-1 $144 $145 $53 $-1 $146 reversed single #
loop $-1 $-1 $147 $70 #
plane-surface $-1 92.355511819380581 -15.136770332993827 160.93964483328796 0 -1 0 -0.83867057594974714 0 -0.54463902268945019 forward_v I I I I #
face $-1 $148 $149 $54 $-1 $150 forward single #
loop $-1 $151 $152 $71 #
cone-surface $-1 54.840404923501005 -20.054274410502344 3.7274952223976983 -0.83867057594974714 0 -0.54463902268945019 0.2723195113447251 0 -0.41933528797487357 1 I I 0 1 0.5 forward I I I I #
face $-1 $153 $154 $55 $-1 $155 forward single #
loop $-1 $156 $157 $72 #
cone-surface $-1 54.840404923501005 -17.103771963997236 3.7274952223976983 -0.83867057594974714 0 -0.54463902268945019 0.2723195113447251 0 -0.41933528797487357 1 I I 0 1 0.5 forward I I I I #
face $-1 $158 $159 $56 $-1 $160 reversed single #
loop $-1 $-1 $161 $73 #
plane-surface $-1 92.355511819380581 -0.52031376389538053 160.93964483328796 0 -1 0 -0.83867057594974714 0 -0.54463902268945019 forward_v I I I I #
face $-1 $162 $163 $57 $-1 $164 forward single #
loop $-1 $165 $166 $74 #
cone-surface $-1 54.840404923501005 -5.4378178414038985 3.7274952223976983 -0.83867057594974714 0 -0.54463902268945019 0.2723195113447251 0 -0.41933528797487357 1 I I 0 1 0.5 forward I I I I #
face $-1 $167 $168 $58 $-1 $169 forward single #
loop $-1 $170 $171 $75 #
cone-surface $-1 54.840404923501005 -2.4873153948987898 3.7274952223976983 -0.83867057594974714 0 -0.54463902268945019 0.2723195113447251 0 -0.41933528797487357 1 I I 0 1 0.5 forward I I I I #
face $-1 $172 $173 $59 $-1 $174 reversed single #
loop $-1 $-1 $175 $76 #
plane-surface $-1 92.355511819380581 14.096142805203066 160.93964483328796 0 -1 0 -0.83867057594974714 0 -0.54463902268945019 forward_v I I I I #
face $-1 $176 $177 $60 $-1 $178 forward single #
loop $-1 $179 $180 $77 #
cone-surface $-1 54.840404923501005 9.1786387276945476 3.7274952223976983 -0.83867057594974714 0 -0.54463902268945019 0.2723195113447251 0 -0.41933528797487357 1 I I 0 1 0.5 forward I I I I #
face $-1 $181 $182 $61 $-1 $183 forward single #
loop $-1 $184 $185 $78 #
cone-surface $-1 54.840404923501005 12.12914117419966 3.7274952223976983 -0.83867057594974714 0 -0.54463902268945019 0.2723195113447251 0 -0.41933528797487357 1 I I 0 1 0.5 forward I I I I #
face $-1 $186 $187 $62 $-1 $188 reversed single #
loop $-1 $-1 $189 $79 #
plane-surface $-1 92.355511819380581 28.712599374301512 160.93964483328796 0 -1 0 -0.83867057594974714 0 -0.54463902268945019 forward_v I I I I #
face $-1 $190 $191 $63 $-1 $192 forward single #
loop $-1 $193 $194 $80 #
cone-surface $-1 54.840404923501005 23.795095296792994 3.7274952223976983 -0.83867057594974714 0 -0.54463902268945019 0.2723195113447251 0 -0.41933528797487357 1 I I 0 1 0.5 forward I I I I #
face $-1 $195 $196 $64 $-1 $197 forward single #
loop $-1 $198 $199 $81 #
cone-surface $-1 54.840404923501005 26.745597743298106 3.7274952223976983 -0.83867057594974714 0 -0.54463902268945019 0.2723195113447251 0 -0.41933528797487357 1 I I 0 1 0.5 forward I I I I #
face $-1 $200 $201 $65 $-1 $202 reversed single #
loop $-1 $-1 $203 $82 #
plane-surface $-1 -148.5475850655713 5.0497203272143167 74.829496526758007 0 1 0 -0.77714596973225614 0 0.62932038083071107 forward_v I I I I #
face $-1 $204 $205 $66 $-1 $206 forward single #
loop $-1 $207 $208 $83 #
cone-surface $-1 -54.482910781105389 9.2773856421035532 4.140319699146632 0.77714596973225614 0 -0.62932038083071107 0.62932038083071107 0 0.77714596973225614 1 I I 0 1 1 forward I I I I #
face $-1 $209 $210 $67 $-1 $211 forward single #
loop $-1 $212 $213 $84 #
cone-surface $-1 -54.482910781105389 15.618883614437415 4.140319699146632 0.77714596973225614 0 -0.62932038083071107 0.62932038083071107 0 0.77714596973225614 1 I I 0 1 1 forward I I I I #
face $-1 $214 $215 $51 $-1 $216 reversed single #
loop $-1 $-1 $217 $85 #
plane-surface $-1 0 0 -8.2547442286039505 0 0 1 1 0 0 forward_v I I I I #
coedge $-1 $218 $219 $220 $221 forward $86 $-1 #
face $-1 $222 $223 $52 $-1 $224 reversed single #
loop $-1 $-1 $225 $88 #
plane-surface $-1 0 0 8.2547442286039505 0 0 1 1 0 0 forward_v I I I I #
coedge $-1 $226 $227 $228 $229 forward $89 $-1 #
face $-1 $230 $231 $53 $-1 $232 reversed single #
loop $-1 $-1 $233 $91 #
plane-surface $-1 -5.1920604044933185 -18.579023187249788 97.591512771334394 0.83867057594974714 0 0.54463902268945019 0.54463902268945019 0 -0.83867057594974714 forward_v I I I I #
coedge $-1 $234 $235 $236 $237 reversed $92 $-1 #
face $-1 $-1 $238 $54 $-1 $239 forward single #
loop $-1 $240 $241 $94 #
cone-surface $-1 53.981149588168108 -20.054274410502344 3.1694883010907979 -0.83867057594974714 0 -0.54463902268945019 0.13615975567236255 0 -0.20966764398743679 1 I I -0.70710678118654746 0.70710678118654746 0.25 forward I I I I #
loop $-1 $-1 $242 $71 #
coedge $-1 $152 $152 $243 $244 reversed $95 $-1 #
face $-1 $-1 $245 $55 $-1 $246 forward single #
loop $-1 $247 $248 $97 #
cone-surface $-1 53.981149588168108 -17.103771963997236 3.1694883010907979 -0.83867057594974714 0 -0.54463902268945019 0.13615975567236255 0 -0.20966764398743679 1 I I -0.70710678118654746 0.70710678118654746 0.25 forward I I I I #
loop $-1 $-1 $249 $72 #
coedge $-1 $157 $157 $250 $251 reversed $98 $-1 #
face $-1 $252 $253 $56 $-1 $254 reversed single #
loop $-1 $-1 $255 $100 #
plane-surface $-1 -5.1920604044933185 -3.9625666181513424 97.591512771334394 0.83867057594974714 0 0.54463902268945019 0.54463902268945019 0 -0.83867057594974714 forward_v I I I I #
coedge $-1 $256 $257 $258 $259 reversed $101 $-1 #
face $-1 $-1 $260 $57 $-1 $261 forward single #
loop $-1 $262 $263 $103 #
cone-surface $-1 53.981149588168108 -5.4378178414038985 3.1694883010907979 -0.83867057594974714 0 -0.54463902268945019 0.13615975567236255 0 -0.20966764398743679 1 I I -0.70710678118654746 0.70710678118654746 0.25 forward I I I I #
loop $-1 $-1 $264 $74 #
coedge $-1 $166 $166 $265 $266 reversed $104 $-1 #
face $-1 $-1 $267 $58 $-1 $268 forward single #
loop $-1 $269 $270 $106 #
cone-surface $-1 53.981149588168108 -2.4873153948987898 3.1694883010907979 -0.83867057594974714 0 -0.54463902268945019 0.13615975567236255 0 -0.20966764398743679 1 I I -0.70710678118654746 0.70710678118654746 0.25 forward I I I I #
loop $-1 $-1 $271 $75 #
coedge $-1 $171 $171 $272 $273 reversed $107 $-1 #
face $-1 $274 $275 $59 $-1 $276 reversed single #
loop $-1 $-1 $277 $109 #
plane-surface $-1 -5.1920604044933185 10.653889950947104 97.591512771334394 0.83867057594974714 0 0.54463902268945019 0.54463902268945019 0 -0.83867057594974714 forward_v I I I I #
coedge $-1 $278 $279 $280 $281 reversed $110 $-1 #
face $-1 $-1 $282 $60 $-1 $283 forward single #
loop $-1 $284 $285 $112 #
cone-surface $-1 53.981149588168108 9.1786387276945476 3.1694883010907979 -0.83867057594974714 0 -0.54463902268945019 0.13615975567236255 0 -0.20966764398743679 1 I I -0.70710678118654746 0.70710678118654746 0.25 forward I I I I #
loop $-1 $-1 $286 $77 #
coedge $-1 $180 $180 $287 $288 reversed $113 $-1 #
face $-1 $-1 $289 $61 $-1 $290 forward single #
loop $-1 $291 $292 $115 #
cone-surface $-1 53.981149588168108 12.12914117419966 3.1694883010907979 -0.83867057594974714 0 -0.54463902268945019 0.13615975567236255 0 -0.20966764398743679 1 I I -0.70710678118654746 0.70710678118654746 0.25 forward I I I I #
loop $-1 $-1 $293 $78 #
coedge $-1 $185 $185 $294 $295 reversed $116 $-1 #
face $-1 $296 $297 $62 $-1 $298 reversed single #
loop $-1 $-1 $299 $118 #
plane-surface $-1 -5.1920604044933185 25.27034652004555 97.591512771334394 0.83867057594974714 0 0.54463902268945019 0.54463902268945019 0 -0.83867057594974714 forward_v I I I I #
coedge $-1 $300 $301 $302 $303 reversed $119 $-1 #
face $-1 $-1 $304 $63 $-1 $305 forward single #
loop $-1 $306 $307 $121 #
cone-surface $-1 53.981149588168108 23.795095296792994 3.1694883010907979 -0.83867057594974714 0 -0.54463902268945019 0.13615975567236255 0 -0.20966764398743679 1 I I -0.70710678118654746 0.70710678118654746 0.25 forward I I I I #
loop $-1 $-1 $308 $80 #
coedge $-1 $194 $194 $309 $310 reversed $122 $-1 #
face $-1 $-1 $311 $64 $-1 $312 forward single #
loop $-1 $313 $314 $124 #
cone-surface $-1 53.981149588168108 26.745597743298106 3.1694883010907979 -0.83867057594974714 0 -0.54463902268945019 0.13615975567236255 0 -0.20966764398743679 1 I I -0.70710678118654746 0.70710678118654746 0.25 forward I I I I #
loop $-1 $-1 $315 $81 #
coedge $-1 $199 $199 $316 $317 reversed $125 $-1 #
face $-1 $318 $319 $65 $-1 $320 reversed single #
loop $-1 $-1 $321 $127 #
plane-surface $-1 -58.156071657460259 12.448134628270488 1.6318942005759993 -0.77714596973225614 0 0.62932038083071107 0.62932038083071107 0 0.77714596973225614 forward_v I I I I #
coedge $-1 $322 $323 $324 $325 reversed $128 $-1 #
face $-1 $-1 $326 $66 $-1 $327 forward single #
loop $-1 $328 $329 $130 #
cone-surface $-1 -53.102715951257856 9.2773856421035532 3.0226599932879328 0.77714596973225614 0 -0.62932038083071107 0.31466019041535553 0 0.38857298486612807 1 I I -0.70710678118654746 0.70710678118654746 0.5 forward I I I I #
loop $-1 $-1 $330 $83 #
coedge $-1 $208 $208 $331 $332 reversed $131 $-1 #
face $-1 $-1 $333 $67 $-1 $334 forward single #
loop $-1 $335 $336 $133 #
cone-surface $-1 -53.102715951257856 15.618883614437415 3.0226599932879328 0.77714596973225614 0 -0.62932038083071107 0.31466019041535553 0 0.38857298486612807 1 I I -0.70710678118654746 0.70710678118654746 0.5 forward I I I I #
loop $-1 $-1 $337 $84 #
coedge $-1 $213 $213 $338 $339 reversed $134 $-1 #
face $-1 $340 $341 $51 $-1 $342 reversed single #
loop $-1 $-1 $343 $136 #
plane-surface $-1 0 -33.670248109577088 0 0 1 0 0 0 1 forward_v I I I I #
coedge $-1 $344 $345 $346 $347 forward $137 $-1 #
coedge $-1 $348 $139 $349 $350 forward $86 $-1 #
coedge $-1 $139 $348 $351 $352 forward $86 $-1 #
coedge $-1 $353 $354 $139 $221 reversed $355 $-1 #
edge $-1 $356 -33.670248109577088 $357 33.670248109577088 $220 $358 forward 7 unknown #
face $-1 $359 $360 $52 $-1 $361 reversed single #
loop $-1 $-1 $362 $140 #
plane-surface $-1 -58.156071657460245 0 0 1 0 0 0 0 -1 forward_v I I I I #
coedge $-1 $363 $364 $365 $366 forward $141 $-1 #
coedge $-1 $365 $143 $362 $367 reversed $89 $-1 #
coedge $-1 $143 $365 $368 $369 reversed $89 $-1 #
coedge $-1 $370 $371 $143 $229 reversed $360 $-1 #
edge $-1 $372 -58.156071657460245 $373 58.156071657460245 $228 $374 forward 7 unknown #
face $-1 $375 $376 $53 $-1 $377 reversed single #
loop $-1 $-1 $378 $144 #
plane-surface $-1 92.355511819380581 -22.02127604150575 160.93964483328796 0 1 0 0.83867057594974714 0 0.54463902268945019 forward_v I I I I #
coedge $-1 $379 $380 $381 $382 reversed $145 $-1 #
coedge $-1 $235 $147 $383 $384 reversed $92 $-1 #
coedge $-1 $147 $234 $379 $385 reversed $92 $-1 #
coedge $-1 $381 $386 $147 $237 forward $387 $-1 #
edge $-1 $388 -11.978315747769955 $389 -6.6461576625423717 $236 $390 forward 7 unknown #
loop $-1 $-1 $243 $148 #
plane-surface $-1 -5.1920604044933185 -18.579023187249788 97.591512771334394 0.83867057594974714 0 0.54463902268945019 0.54463902268945019 0 -0.83867057594974714 forward_v I I I I #
loop $-1 $-1 $391 $94 #
coedge $-1 $241 $241 $242 $392 reversed $149 $-1 #
coedge $-1 $242 $242 $241 $392 forward $151 $-1 #
coedge $-1 $243 $243 $152 $244 forward $238 $-1 #
edge $-1 $393 0 $393 6.2831853071796004 $243 $394 forward 7 unknown #
loop $-1 $-1 $250 $153 #
plane-surface $-1 -5.1920604044933185 -18.579023187249788 97.591512771334394 0.83867057594974714 0 0.54463902268945019 0.54463902268945019 0 -0.83867057594974714 forward_v I I I I #
loop $-1 $-1 $395 $97 #
coedge $-1 $248 $248 $249 $396 reversed $154 $-1 #
coedge $-1 $249 $249 $248 $396 forward $156 $-1 #
coedge $-1 $250 $250 $157 $251 forward $245 $-1 #
edge $-1 $397 0 $397 6.2831853071796004 $250 $398 forward 7 unknown #
face $-1 $399 $400 $56 $-1 $401 reversed single #
loop $-1 $-1 $402 $158 #
plane-surface $-1 92.355511819380581 -7.4048194724073042 160.93964483328796 0 1 0 0.83867057594974714 0 0.54463902268945019 forward_v I I I I #
coedge $-1 $403 $404 $405 $406 reversed $159 $-1 #
coedge $-1 $257 $161 $407 $408 reversed $101 $-1 #
coedge $-1 $161 $256 $403 $409 reversed $101 $-1 #
coedge $-1 $405 $410 $161 $259 forward $411 $-1 #
edge $-1 $412 -11.978315747769955 $413 -6.6461576625423717 $258 $414 forward 7 unknown #
loop $-1 $-1 $265 $162 #
plane-surface $-1 -5.1920604044933185 -3.9625666181513424 97.591512771334394 0.83867057594974714 0 0.54463902268945019 0.54463902268945019 0 -0.83867057594974714 forward_v I I I I #
loop $-1 $-1 $415 $103 #
coedge $-1 $263 $263 $264 $416 reversed $163 $-1 #
coedge $-1 $264 $264 $263 $416 forward $165 $-1 #
coedge $-1 $265 $265 $166 $266 forward $260 $-1 #
edge $-1 $417 0 $417 6.2831853071796004 $265 $418 forward 7 unknown #
loop $-1 $-1 $272 $167 #
plane-surface $-1 -5.1920604044933185 -3.9625666181513424 97.591512771334394 0.83867057594974714 0 0.54463902268945019 0.54463902268945019 0 -0.83867057594974714 forward_v I I I I #
loop $-1 $-1 $419 $106 #
coedge $-1 $270 $270 $271 $420 reversed $168 $-1 #
coedge $-1 $271 $271 $270 $420 forward $170 $-1 #
coedge $-1 $272 $272 $171 $273 forward $267 $-1 #
edge $-1 $421 0 $421 6.2831853071796004 $272 $422 forward 7 unknown #
face $-1 $423 $424 $59 $-1 $425 reversed single #
loop $-1 $-1 $426 $172 #
plane-surface $-1 92.355511819380581 7.2116370966911418 160.93964483328796 0 1 0 0.83867057594974714 0 0.54463902268945019 forward_v I I I I #
coedge $-1 $427 $428 $429 $430 reversed $173 $-1 #
coedge $-1 $279 $175 $431 $432 reversed $110 $-1 #
coedge $-1 $175 $278 $427 $433 reversed $110 $-1 #
coedge $-1 $429 $434 $175 $281 forward $435 $-1 #
edge $-1 $436 -11.978315747769955 $437 -6.6461576625423717 $280 $438 forward 7 unknown #
loop $-1 $-1 $287 $176 #
plane-surface $-1 -5.1920604044933185 10.653889950947104 97.591512771334394 0.83867057594974714 0 0.54463902268945019 0.54463902268945019 0 -0.83867057594974714 forward_v I I I I #
loop $-1 $-1 $439 $112 #
coedge $-1 $285 $285 $286 $440 reversed $177 $-1 #
coedge $-1 $286 $286 $285 $440 forward $179 $-1 #
coedge $-1 $287 $287 $180 $288 forward $282 $-1 #
edge $-1 $441 0 $441 6.2831853071796004 $287 $442 forward 7 unknown #
loop $-1 $-1 $294 $181 #
plane-surface $-1 -5.1920604044933185 10.653889950947104 97.591512771334394 0.83867057594974714 0 0.54463902268945019 0.54463902268945019 0 -0.83867057594974714 forward_v I I I I #
loop $-1 $-1 $443 $115 #
coedge $-1 $292 $292 $293 $444 reversed $182 $-1 #
coedge $-1 $293 $293 $292 $444 forward $184 $-1 #
coedge $-1 $294 $294 $185 $295 forward $289 $-1 #
edge $-1 $445 0 $445 6.2831853071796004 $294 $446 forward 7 unknown #
face $-1 $447 $448 $62 $-1 $449 reversed single #
loop $-1 $-1 $450 $186 #
plane-surface $-1 92.355511819380581 21.828093665789588 160.93964483328796 0 1 0 0.83867057594974714 0 0.54463902268945019 forward_v I I I I #
coedge $-1 $451 $452 $453 $454 reversed $187 $-1 #
coedge $-1 $301 $189 $455 $456 reversed $119 $-1 #
coedge $-1 $189 $300 $451 $457 reversed $119 $-1 #
coedge $-1 $453 $458 $189 $303 forward $459 $-1 #
edge $-1 $460 -11.978315747769955 $461 -6.6461576625423717 $302 $462 forward 7 unknown #
loop $-1 $-1 $309 $190 #
plane-surface $-1 -5.1920604044933185 25.27034652004555 97.591512771334394 0.83867057594974714 0 0.54463902268945019 0.54463902268945019 0 -0.83867057594974714 forward_v I I I I #
loop $-1 $-1 $463 $121 #
coedge $-1 $307 $307 $308 $464 reversed $191 $-1 #
coedge $-1 $308 $308 $307 $464 forward $193 $-1 #
coedge $-1 $309 $309 $194 $310 forward $304 $-1 #
edge $-1 $465 0 $465 6.2831853071796004 $309 $466 forward 7 unknown #
loop $-1 $-1 $316 $195 #
plane-surface $-1 -5.1920604044933185 25.27034652004555 97.591512771334394 0.83867057594974714 0 0.54463902268945019 0.54463902268945019 0 -0.83867057594974714 forward_v I I I I #
loop $-1 $-1 $467 $124 #
coedge $-1 $314 $314 $315 $468 reversed $196 $-1 #
coedge $-1 $315 $315 $314 $468 forward $198 $-1 #
coedge $-1 $316 $316 $199 $317 forward $311 $-1 #
edge $-1 $469 0 $469 6.2831853071796004 $316 $470 forward 7 unknown #
face $-1 $471 $472 $65 $-1 $473 forward single #
loop $-1 $-1 $474 $200 #
plane-surface $-1 -148.5475850655713 19.846548929326659 74.829496526758007 0 -1 0 0.77714596973225614 0 -0.62932038083071107 forward_v I I I I #
coedge $-1 $475 $476 $477 $478 reversed $201 $-1 #
coedge $-1 $323 $203 $479 $480 reversed $128 $-1 #
coedge $-1 $203 $322 $475 $481 reversed $128 $-1 #
coedge $-1 $477 $482 $203 $325 forward $472 $-1 #
edge $-1 $483 16.117720875325404 $484 21.480798938072297 $324 $485 forward 7 unknown #
loop $-1 $-1 $331 $204 #
plane-surface $-1 -58.156071657460259 12.448134628270488 1.6318942005759993 -0.77714596973225614 0 0.62932038083071107 0.62932038083071107 0 0.77714596973225614 forward_v I I I I #
loop $-1 $-1 $486 $130 #
coedge $-1 $329 $329 $330 $487 reversed $205 $-1 #
coedge $-1 $330 $330 $329 $487 forward $207 $-1 #
coedge $-1 $331 $331 $208 $332 forward $326 $-1 #
edge $-1 $488 0 $488 6.2831853071796004 $331 $489 forward 7 unknown #
loop $-1 $-1 $338 $209 #
plane-surface $-1 -58.156071657460259 12.448134628270488 1.6318942005759993 -0.77714596973225614 0 0.62932038083071107 0.62932038083071107 0 0.77714596973225614 forward_v I I I I #
loop $-1 $-1 $490 $133 #
coedge $-1 $336 $336 $337 $491 reversed $210 $-1 #
coedge $-1 $337 $337 $336 $491 forward $212 $-1 #
coedge $-1 $338 $338 $213 $339 forward $333 $-1 #
edge $-1 $492 0 $492 6.2831853071796004 $338 $493 forward 7 unknown #
face $-1 $494 $495 $51 $-1 $496 reversed single #
loop $-1 $-1 $497 $214 #
plane-surface $-1 -58.156071657460245 0 0 1 0 0 0 0 -1 forward_v I I I I #
coedge $-1 $498 $351 $499 $500 forward $215 $-1 #
coedge $-1 $501 $217 $498 $502 forward $137 $-1 #
coedge $-1 $217 $501 $503 $504 forward $137 $-1 #
coedge $-1 $354 $353 $217 $347 reversed $355 $-1 #
edge $-1 $505 -33.670248109577088 $506 33.670248109577088 $346 $507 forward 7 unknown #
coedge $-1 $219 $218 $508 $509 forward $86 $-1 #
coedge $-1 $510 $511 $218 $350 reversed $495 $-1 #
edge $-1 $357 -58.156071657460245 $512 58.156071657460245 $349 $513 forward 7 unknown #
coedge $-1 $343 $514 $219 $352 reversed $215 $-1 #
edge $-1 $515 -58.156071657460245 $356 58.156071657460245 $351 $516 forward 7 unknown #
coedge $-1 $346 $220 $514 $517 forward $355 $-1 #
coedge $-1 $220 $346 $510 $518 reversed $355 $-1 #
loop $-1 $-1 $353 $494 #
vertex $-1 $221 $519 #
vertex $-1 $221 $520 #
straight-curve $-1 58.156071657460245 0 8.2547442286039505 0 1 0 I I #
face $-1 $521 $522 $52 $-1 $523 reversed single #
loop $-1 $-1 $370 $222 #
plane-surface $-1 0 -37.015909775974968 5.2547442286039505 0 0 1 1 0 0 forward_v I I I I #
coedge $-1 $524 $525 $226 $367 forward $223 $-1 #
coedge $-1 $526 $225 $525 $527 forward $141 $-1 #
coedge $-1 $225 $526 $528 $529 forward $141 $-1 #
coedge $-1 $227 $226 $225 $366 reversed $89 $-1 #
edge $-1 $530 -58.156071657460245 $531 58.156071657460245 $225 $532 forward 7 unknown #
edge $-1 $531 -8.2547442286039505 $373 -5.2547442286039505 $362 $533 forward 7 unknown #
coedge $-1 $528 $534 $227 $369 forward $535 $-1 #
edge $-1 $372 5.2547442286039505 $530 8.2547442286039505 $368 $536 forward 7 unknown #
coedge $-1 $537 $228 $534 $538 forward $360 $-1 #
coedge $-1 $228 $537 $524 $539 forward $360 $-1 #
vertex $-1 $369 $540 #
vertex $-1 $367 $541 #
straight-curve $-1 0 -33.670248109577088 5.2547442286039505 -1 0 0 I I #
face $-1 $-1 $387 $53 $-1 $542 forward single #
loop $-1 $-1 $543 $230 #
plane-surface $-1 58.156071657460245 0 0 -1 0 0 0 0 1 forward_v I I I I #
coedge $-1 $544 $545 $546 $547 reversed $231 $-1 #
coedge $-1 $548 $233 $235 $385 forward $145 $-1 #
coedge $-1 $233 $548 $544 $549 forward $145 $-1 #
coedge $-1 $546 $236 $233 $382 forward $387 $-1 #
edge $-1 $389 5.8472587393689324 $550 12.731764447880856 $381 $551 forward 7 unknown #
coedge $-1 $552 $553 $234 $384 forward $376 $-1 #
edge $-1 $554 -80.425881869183485 $388 -72.215078188040025 $383 $555 forward 7 unknown #
edge $-1 $389 106.5218824942816 $554 116.31214331492049 $235 $556 forward 7 unknown #
coedge $-1 $236 $546 $552 $557 forward $387 $-1 #
loop $-1 $-1 $546 $375 #
vertex $-1 $384 $558 #
vertex $-1 $237 $559 #
straight-curve $-1 46.177755909690291 -15.136770332993827 8.2547442286039541 -1 0 0 I I #
coedge $-1 $391 $391 $-1 $560 reversed $240 $-1 #
edge $-1 $561 0 $561 6.2831853071796004 $241 $562 forward 7 unknown #
vertex $-1 $244 $563 #
ellipse-curve $-1 55.48999261484645 -20.054274410502344 4.1493423880322275 0.83867057594974714 0 0.54463902268945019 0.2723195113447251 0 -0.41933528797487357 1 I I #
coedge $-1 $395 $395 $-1 $564 reversed $247 $-1 #
edge $-1 $565 0 $565 6.2831853071796004 $248 $566 forward 7 unknown #
vertex $-1 $251 $567 #
ellipse-curve $-1 55.48999261484645 -17.103771963997236 4.1493423880322275 0.83867057594974714 0 0.54463902268945019 0.2723195113447251 0 -0.41933528797487357 1 I I #
face $-1 $-1 $411 $56 $-1 $568 forward single #
loop $-1 $-1 $569 $252 #
plane-surface $-1 58.156071657460245 0 0 -1 0 0 0 0 1 forward_v I I I I #
coedge $-1 $570 $571 $572 $573 reversed $253 $-1 #
coedge $-1 $574 $255 $257 $409 forward $159 $-1 #
coedge $-1 $255 $574 $570 $575 forward $159 $-1 #
coedge $-1 $572 $258 $255 $406 forward $411 $-1 #
edge $-1 $413 -1.4609695451802907 $576 5.423536163331633 $405 $577 forward 7 unknown #
coedge $-1 $578 $579 $256 $408 forward $400 $-1 #
edge $-1 $580 -80.425881869183485 $412 -72.215078188040025 $407 $581 forward 7 unknown #
edge $-1 $413 106.5218824942816 $580 116.31214331492049 $257 $582 forward 7 unknown #
coedge $-1 $258 $572 $578 $583 forward $411 $-1 #
loop $-1 $-1 $572 $399 #
vertex $-1 $408 $584 #
vertex $-1 $259 $585 #
straight-curve $-1 46.177755909690291 -0.52031376389538053 8.2547442286039541 -1 0 0 I I #
coedge $-1 $415 $415 $-1 $586 reversed $262 $-1 #
edge $-1 $587 0 $587 6.2831853071796004 $263 $588 forward 7 unknown #
vertex $-1 $266 $589 #
ellipse-curve $-1 55.48999261484645 -5.4378178414038985 4.1493423880322275 0.83867057594974714 0 0.54463902268945019 0.2723195113447251 0 -0.41933528797487357 1 I I #
coedge $-1 $419 $419 $-1 $590 reversed $269 $-1 #
edge $-1 $591 0 $591 6.2831853071796004 $270 $592 forward 7 unknown #
vertex $-1 $273 $593 #
ellipse-curve $-1 55.48999261484645 -2.4873153948987898 4.1493423880322275 0.83867057594974714 0 0.54463902268945019 0.2723195113447251 0 -0.41933528797487357 1 I I #
face $-1 $-1 $435 $59 $-1 $594 forward single #
loop $-1 $-1 $595 $274 #
plane-surface $-1 58.156071657460245 0 0 -1 0 0 0 0 1 forward_v I I I I #
coedge $-1 $596 $597 $598 $599 reversed $275 $-1 #
coedge $-1 $600 $277 $279 $433 forward $173 $-1 #
coedge $-1 $277 $600 $596 $601 forward $173 $-1 #
coedge $-1 $598 $280 $277 $430 forward $435 $-1 #
edge $-1 $437 -8.7691978297295137 $602 -1.88469212121759 $429 $603 forward 7 unknown #
coedge $-1 $604 $605 $278 $432 forward $424 $-1 #
edge $-1 $606 -80.425881869183485 $436 -72.215078188040025 $431 $607 forward 7 unknown #
edge $-1 $437 106.5218824942816 $606 116.31214331492049 $279 $608 forward 7 unknown #
coedge $-1 $280 $598 $604 $609 forward $435 $-1 #
loop $-1 $-1 $598 $423 #
vertex $-1 $432 $610 #
vertex $-1 $281 $611 #
straight-curve $-1 46.177755909690291 14.096142805203066 8.2547442286039541 -1 0 0 I I #
coedge $-1 $439 $439 $-1 $612 reversed $284 $-1 #
edge $-1 $613 0 $613 6.2831853071796004 $285 $614 forward 7 unknown #
vertex $-1 $288 $615 #
ellipse-curve $-1 55.48999261484645 9.1786387276945476 4.1493423880322275 0.83867057594974714 0 0.54463902268945019 0.2723195113447251 0 -0.41933528797487357 1 I I #
coedge $-1 $443 $443 $-1 $616 reversed $291 $-1 #
edge $-1 $617 0 $617 6.2831853071796004 $292 $618 forward 7 unknown #
vertex $-1 $295 $619 #
ellipse-curve $-1 55.48999261484645 12.12914117419966 4.1493423880322275 0.83867057594974714 0 0.54463902268945019 0.2723195113447251 0 -0.41933528797487357 1 I I #
face $-1 $-1 $459 $62 $-1 $620 forward single #
loop $-1 $-1 $621 $296 #
plane-surface $-1 58.156071657460245 0 0 -1 0 0 0 0 1 forward_v I I I I #
coedge $-1 $622 $623 $624 $625 reversed $297 $-1 #
coedge $-1 $626 $299 $301 $457 forward $187 $-1 #
coedge $-1 $299 $626 $622 $627 forward $187 $-1 #
coedge $-1 $624 $302 $299 $454 forward $459 $-1 #
edge $-1 $461 -16.077426114278737 $628 -9.192920405766813 $453 $629 forward 7 unknown #
coedge $-1 $630 $631 $300 $456 forward $448 $-1 #
edge $-1 $632 -80.425881869183485 $460 -72.215078188040025 $455 $633 forward 7 unknown #
edge $-1 $461 106.5218824942816 $632 116.31214331492049 $301 $634 forward 7 unknown #
coedge $-1 $302 $624 $630 $635 forward $459 $-1 #
loop $-1 $-1 $624 $447 #
vertex $-1 $456 $636 #
vertex $-1 $303 $637 #
straight-curve $-1 46.177755909690291 28.712599374301512 8.2547442286039541 -1 0 0 I I #
coedge $-1 $463 $463 $-1 $638 reversed $306 $-1 #
edge $-1 $639 0 $639 6.2831853071796004 $307 $640 forward 7 unknown #
vertex $-1 $310 $641 #
ellipse-curve $-1 55.48999261484645 23.795095296792994 4.1493423880322275 0.83867057594974714 0 0.54463902268945019 0.2723195113447251 0 -0.41933528797487357 1 I I #
coedge $-1 $467 $467 $-1 $642 reversed $313 $-1 #
edge $-1 $643 0 $643 6.2831853071796004 $314 $644 forward 7 unknown #
vertex $-1 $317 $645 #
ellipse-curve $-1 55.48999261484645 26.745597743298106 4.1493423880322275 0.83867057594974714 0 0.54463902268945019 0.2723195113447251 0 -0.41933528797487357 1 I I #
face $-1 $-1 $646 $65 $-1 $647 reversed single #
loop $-1 $-1 $324 $318 #
plane-surface $-1 0 0 8.2547442286039505 0 0 1 1 0 0 forward_v I I I I #
coedge $-1 $648 $649 $650 $651 reversed $319 $-1 #
coedge $-1 $652 $321 $323 $481 forward $201 $-1 #
coedge $-1 $321 $652 $648 $653 forward $201 $-1 #
coedge $-1 $650 $324 $321 $478 forward $472 $-1 #
edge $-1 $484 -1.1743469869209271 $654 13.622481615191415 $477 $655 forward 7 unknown #
coedge $-1 $656 $657 $322 $480 forward $646 $-1 #
edge $-1 $658 -35.78285406280299 $483 -29.160004034775053 $479 $659 forward 7 unknown #
edge $-1 $484 -8.5220155362957986 $658 -2.2575505016944882e-014 $323 $660 forward 7 unknown #
coedge $-1 $324 $650 $656 $661 forward $472 $-1 #
vertex $-1 $480 $662 #
vertex $-1 $325 $663 #
straight-curve $-1 -74.273792532785649 5.0497203272143167 8.254744228603947 1 0 0 I I #
coedge $-1 $486 $486 $-1 $664 reversed $328 $-1 #
edge $-1 $665 0 $665 6.2831853071796004 $329 $666 forward 7 unknown #
vertex $-1 $332 $667 #
ellipse-curve $-1 -55.474532626086798 9.2773856421035532 4.943319214589982 -0.77714596973225614 0 0.62932038083071107 0.62932038083071107 0 0.77714596973225614 1 I I #
coedge $-1 $490 $490 $-1 $668 reversed $335 $-1 #
edge $-1 $669 0 $669 6.2831853071796004 $336 $670 forward 7 unknown #
vertex $-1 $339 $671 #
ellipse-curve $-1 -55.474532626086798 15.618883614437415 4.943319214589982 -0.77714596973225614 0 0.62932038083071107 0.62932038083071107 0 0.77714596973225614 1 I I #
face $-1 $-1 $355 $51 $-1 $672 reversed single #
loop $-1 $-1 $510 $340 #
plane-surface $-1 0 33.670248109577088 0 0 -1 0 0 0 -1 forward_v I I I I #
coedge $-1 $673 $508 $511 $674 forward $341 $-1 #
coedge $-1 $514 $343 $344 $502 reversed $215 $-1 #
coedge $-1 $508 $673 $343 $500 reversed $341 $-1 #
edge $-1 $515 -8.2547442286039505 $675 8.2547442286039505 $499 $676 forward 7 unknown #
coedge $-1 $345 $344 $673 $677 forward $137 $-1 #
edge $-1 $506 -58.156071657460245 $675 58.156071657460245 $498 $678 forward 7 unknown #
coedge $-1 $511 $510 $345 $504 reversed $495 $-1 #
edge $-1 $679 -58.156071657460245 $505 58.156071657460245 $503 $680 forward 7 unknown #
vertex $-1 $347 $681 #
vertex $-1 $517 $682 #
straight-curve $-1 58.156071657460245 0 -8.2547442286039505 0 -1 0 I I #
coedge $-1 $497 $499 $348 $509 reversed $341 $-1 #
edge $-1 $512 -33.670248109577088 $515 33.670248109577088 $508 $683 forward 7 unknown #
coedge $-1 $503 $349 $354 $518 forward $495 $-1 #
coedge $-1 $349 $503 $497 $674 reversed $495 $-1 #
vertex $-1 $350 $684 #
straight-curve $-1 0 33.670248109577088 8.2547442286039505 -1 0 0 I I #
coedge $-1 $351 $498 $353 $517 reversed $215 $-1 #
vertex $-1 $509 $685 #
straight-curve $-1 0 -33.670248109577088 8.2547442286039505 1 0 0 I I #
edge $-1 $356 -8.2547442286039505 $506 8.2547442286039505 $353 $686 forward 7 unknown #
edge $-1 $357 -8.2547442286039505 $505 8.2547442286039505 $354 $687 forward 7 unknown #
point $-1 58.156071657460245 -33.670248109577088 8.2547442286039505 #
point $-1 58.156071657460245 33.670248109577088 8.2547442286039505 #
face $-1 $-1 $535 $52 $-1 $688 reversed single #
loop $-1 $-1 $689 $359 #
plane-surface $-1 0 -40.361571442372849 6.7547442286039505 0 1 0 0 0 1 forward_v I I I I #
coedge $-1 $690 $362 $371 $539 reversed $223 $-1 #
coedge $-1 $362 $690 $363 $527 reversed $223 $-1 #
coedge $-1 $364 $363 $691 $692 forward $141 $-1 #
edge $-1 $531 33.670248109577088 $693 40.361571442372849 $525 $694 forward 7 unknown #
coedge $-1 $695 $368 $364 $529 reversed $535 $-1 #
edge $-1 $696 -40.361571442372849 $530 -33.670248109577088 $528 $697 forward 7 unknown #
vertex $-1 $369 $698 #
vertex $-1 $527 $699 #
straight-curve $-1 0 -33.670248109577088 8.2547442286039505 -1 0 0 I I #
straight-curve $-1 -58.156071657460245 -33.670248109577088 0 0 0 -1 I I #
coedge $-1 $368 $695 $370 $538 reversed $535 $-1 #
loop $-1 $-1 $368 $521 #
straight-curve $-1 58.156071657460245 -33.670248109577088 0 0 0 1 I I #
coedge $-1 $371 $370 $700 $701 forward $360 $-1 #
edge $-1 $372 -3.3456616663978807 $702 3.3456616663978807 $534 $703 forward 7 unknown #
edge $-1 $704 -3.3456616663978807 $373 3.3456616663978807 $524 $705 forward 7 unknown #
point $-1 58.156071657460245 -33.670248109577088 5.2547442286039505 #
point $-1 -58.156071657460245 -33.670248109577088 5.2547442286039505 #
plane-surface $-1 0 0 8.2547442286039505 0 0 1 1 0 0 forward_v I I I I #
coedge $-1 $553 $552 $545 $706 forward $376 $-1 #
coedge $-1 $545 $378 $380 $549 reversed $231 $-1 #
coedge $-1 $378 $544 $543 $706 reversed $231 $-1 #
coedge $-1 $386 $381 $378 $547 forward $387 $-1 #
edge $-1 $550 6.6461576625423717 $707 11.978315747769955 $546 $708 forward 7 unknown #
coedge $-1 $380 $379 $553 $709 reversed $145 $-1 #
edge $-1 $710 -116.31214331492049 $550 -106.5218824942816 $544 $711 forward 7 unknown #
vertex $-1 $382 $712 #
straight-curve $-1 52.823913572232662 -9.2895115936248942 8.254744228603947 0 -1 0 I I #
coedge $-1 $543 $383 $386 $557 reversed $376 $-1 #
coedge $-1 $383 $543 $548 $709 forward $376 $-1 #
vertex $-1 $384 $713 #
straight-curve $-1 58.156071657460245 -15.136770332993827 80.469822416643979 0 0 1 I I #
straight-curve $-1 -5.1920604044933185 -15.136770332993827 97.591512771334394 0.54463902268945019 0 -0.83867057594974714 I I #
edge $-1 $707 -22.02127604150575 $388 -15.136770332993827 $552 $714 forward 7 unknown #
point $-1 58.156071657460245 -15.136770332993827 8.2547442286039505 #
point $-1 52.823913572232662 -15.136770332993827 8.2547442286039541 #
edge $-1 $715 1 $715 0 $391 $-1 forward 7 unknown #
vertex $-1 $392 $716 #
ellipse-curve $-1 54.190817232155545 -20.054274410502344 3.3056480567631605 0.83867057594974714 0 0.54463902268945019 0.2723195113447251 0 -0.41933528797487357 1 I I #
point $-1 55.762312126191183 -20.054274410502344 3.7300071000573629 #
edge $-1 $717 1 $717 0 $395 $-1 forward 7 unknown #
vertex $-1 $396 $718 #
ellipse-curve $-1 54.190817232155545 -17.103771963997236 3.3056480567631605 0.83867057594974714 0 0.54463902268945019 0.2723195113447251 0 -0.41933528797487357 1 I I #
point $-1 55.762312126191183 -17.103771963997236 3.7300071000573629 #
plane-surface $-1 0 0 8.2547442286039505 0 0 1 1 0 0 forward_v I I I I #
coedge $-1 $579 $578 $571 $719 forward $400 $-1 #
coedge $-1 $571 $402 $404 $575 reversed $253 $-1 #
coedge $-1 $402 $570 $569 $719 reversed $253 $-1 #
coedge $-1 $410 $405 $402 $573 forward $411 $-1 #
edge $-1 $576 6.6461576625423717 $720 11.978315747769955 $572 $721 forward 7 unknown #
coedge $-1 $404 $403 $579 $722 reversed $159 $-1 #
edge $-1 $723 -116.31214331492049 $576 -106.5218824942816 $570 $724 forward 7 unknown #
vertex $-1 $406 $725 #
straight-curve $-1 52.823913572232662 -1.9812833090756712 8.254744228603947 0 -1 0 I I #
coedge $-1 $569 $407 $410 $583 reversed $400 $-1 #
coedge $-1 $407 $569 $574 $722 forward $400 $-1 #
vertex $-1 $408 $726 #
straight-curve $-1 58.156071657460245 -0.52031376389538053 80.469822416643979 0 0 1 I I #
straight-curve $-1 -5.1920604044933185 -0.52031376389538053 97.591512771334394 0.54463902268945019 0 -0.83867057594974714 I I #
edge $-1 $720 -7.4048194724073042 $412 -0.52031376389538053 $578 $727 forward 7 unknown #
point $-1 58.156071657460245 -0.52031376389538053 8.2547442286039505 #
point $-1 52.823913572232662 -0.52031376389538053 8.2547442286039541 #
edge $-1 $728 1 $728 0 $415 $-1 forward 7 unknown #
vertex $-1 $416 $729 #
ellipse-curve $-1 54.190817232155545 -5.4378178414038985 3.3056480567631605 0.83867057594974714 0 0.54463902268945019 0.2723195113447251 0 -0.41933528797487357 1 I I #
point $-1 55.762312126191183 -5.4378178414038985 3.7300071000573629 #
edge $-1 $730 1 $730 0 $419 $-1 forward 7 unknown #
vertex $-1 $420 $731 #
ellipse-curve $-1 54.190817232155545 -2.4873153948987898 3.3056480567631605 0.83867057594974714 0 0.54463902268945019 0.2723195113447251 0 -0.41933528797487357 1 I I #
point $-1 55.762312126191183 -2.4873153948987898 3.7300071000573629 #
plane-surface $-1 0 0 8.2547442286039505 0 0 1 1 0 0 forward_v I I I I #
coedge $-1 $605 $604 $597 $732 forward $424 $-1 #
coedge $-1 $597 $426 $428 $601 reversed $275 $-1 #
coedge $-1 $426 $596 $595 $732 reversed $275 $-1 #
coedge $-1 $434 $429 $426 $599 forward $435 $-1 #
edge $-1 $602 6.6461576625423717 $733 11.978315747769955 $598 $734 forward 7 unknown #
coedge $-1 $428 $427 $605 $735 reversed $173 $-1 #
edge $-1 $736 -116.31214331492049 $602 -106.5218824942816 $596 $737 forward 7 unknown #
vertex $-1 $430 $738 #
straight-curve $-1 52.823913572232662 5.3269449754735518 8.254744228603947 0 -1 0 I I #
coedge $-1 $595 $431 $434 $609 reversed $424 $-1 #
coedge $-1 $431 $595 $600 $735 forward $424 $-1 #
vertex $-1 $432 $739 #
straight-curve $-1 58.156071657460245 14.096142805203066 80.469822416643979 0 0 1 I I #
straight-curve $-1 -5.1920604044933185 14.096142805203066 97.591512771334394 0.54463902268945019 0 -0.83867057594974714 I I #
edge $-1 $733 7.2116370966911418 $436 14.096142805203066 $604 $740 forward 7 unknown #
point $-1 58.156071657460245 14.096142805203066 8.2547442286039505 #
point $-1 52.823913572232662 14.096142805203066 8.2547442286039541 #
edge $-1 $741 1 $741 0 $439 $-1 forward 7 unknown #
vertex $-1 $440 $742 #
ellipse-curve $-1 54.190817232155545 9.1786387276945476 3.3056480567631605 0.83867057594974714 0 0.54463902268945019 0.2723195113447251 0 -0.41933528797487357 1 I I #
point $-1 55.762312126191183 9.1786387276945476 3.7300071000573629 #
edge $-1 $743 1 $743 0 $443 $-1 forward 7 unknown #
vertex $-1 $444 $744 #
ellipse-curve $-1 54.190817232155545 12.12914117419966 3.3056480567631605 0.83867057594974714 0 0.54463902268945019 0.2723195113447251 0 -0.41933528797487357 1 I I #
point $-1 55.762312126191183 12.12914117419966 3.7300071000573629 #
plane-surface $-1 0 0 8.2547442286039505 0 0 1 1 0 0 forward_v I I I I #
coedge $-1 $631 $630 $623 $745 forward $448 $-1 #
coedge $-1 $623 $450 $452 $627 reversed $297 $-1 #
coedge $-1 $450 $622 $621 $745 reversed $297 $-1 #
coedge $-1 $458 $453 $450 $625 forward $459 $-1 #
edge $-1 $628 6.6461576625423717 $746 11.978315747769955 $624 $747 forward 7 unknown #
coedge $-1 $452 $451 $631 $748 reversed $187 $-1 #
edge $-1 $749 -116.31214331492049 $628 -106.5218824942816 $622 $750 forward 7 unknown #
vertex $-1 $454 $751 #
straight-curve $-1 52.823913572232662 12.635173260022775 8.254744228603947 0 -1 0 I I #
coedge $-1 $621 $455 $458 $635 reversed $448 $-1 #
coedge $-1 $455 $621 $626 $748 forward $448 $-1 #
vertex $-1 $456 $752 #
straight-curve $-1 58.156071657460245 28.712599374301512 80.469822416643979 0 0 1 I I #
straight-curve $-1 -5.1920604044933185 28.712599374301512 97.591512771334394 0.54463902268945019 0 -0.83867057594974714 I I #
edge $-1 $746 21.828093665789588 $460 28.712599374301512 $630 $753 forward 7 unknown #
point $-1 58.156071657460245 28.712599374301512 8.2547442286039505 #
point $-1 52.823913572232662 28.712599374301512 8.2547442286039541 #
edge $-1 $754 1 $754 0 $463 $-1 forward 7 unknown #
vertex $-1 $464 $755 #
ellipse-curve $-1 54.190817232155545 23.795095296792994 3.3056480567631605 0.83867057594974714 0 0.54463902268945019 0.2723195113447251 0 -0.41933528797487357 1 I I #
point $-1 55.762312126191183 23.795095296792994 3.7300071000573629 #
edge $-1 $756 1 $756 0 $467 $-1 forward 7 unknown #
vertex $-1 $468 $757 #
ellipse-curve $-1 54.190817232155545 26.745597743298106 3.3056480567631605 0.83867057594974714 0 0.54463902268945019 0.2723195113447251 0 -0.41933528797487357 1 I I #
point $-1 55.762312126191183 26.745597743298106 3.7300071000573629 #
loop $-1 $-1 $479 $471 #
plane-surface $-1 -58.156071657460245 0 0 1 0 0 0 0 -1 forward_v I I I I #
coedge $-1 $649 $474 $476 $653 reversed $319 $-1 #
coedge $-1 $474 $648 $758 $759 reversed $319 $-1 #
coedge $-1 $482 $477 $474 $651 forward $472 $-1 #
edge $-1 $654 -21.480798938072297 $760 -16.117720875325404 $650 $761 forward 7 unknown #
coedge $-1 $476 $475 $657 $762 reversed $201 $-1 #
edge $-1 $763 2.2575505016944882e-014 $654 8.5220155362957986 $648 $764 forward 7 unknown #
vertex $-1 $478 $765 #
straight-curve $-1 -52.792993594713352 6.2240673141352438 8.2547442286039523 0 1 0 I I #
coedge $-1 $758 $479 $482 $661 reversed $646 $-1 #
coedge $-1 $479 $758 $652 $762 forward $646 $-1 #
vertex $-1 $480 $766 #
straight-curve $-1 -58.156071657460245 5.0497203272143167 37.414748263379003 0 0 1 I I #
straight-curve $-1 -58.156071657460259 5.0497203272143167 1.6318942005759993 -0.62932038083071107 0 -0.77714596973225614 I I #
edge $-1 $760 -19.846548929326659 $483 -5.0497203272143167 $656 $767 forward 7 unknown #
point $-1 -58.156071657460245 5.0497203272143167 8.2547442286039505 #
point $-1 -52.792993594713352 5.0497203272143167 8.2547442286039505 #
edge $-1 $768 1 $768 0 $486 $-1 forward 7 unknown #
vertex $-1 $487 $769 #
ellipse-curve $-1 -53.491288936123986 9.2773856421035532 3.3373201837032882 -0.77714596973225614 0 0.62932038083071107 0.62932038083071107 0 0.77714596973225614 1 I I #
point $-1 -54.845212245256079 9.2773856421035532 5.7204651843222312 #
edge $-1 $770 1 $770 0 $490 $-1 forward 7 unknown #
vertex $-1 $491 $771 #
ellipse-curve $-1 -53.491288936123986 15.618883614437415 3.3373201837032882 -0.77714596973225614 0 0.62932038083071107 0.62932038083071107 0 0.77714596973225614 1 I I #
point $-1 -54.845212245256079 15.618883614437415 5.7204651843222312 #
plane-surface $-1 58.156071657460245 0 0 -1 0 0 0 0 1 forward_v I I I I #
coedge $-1 $499 $497 $501 $677 reversed $341 $-1 #
edge $-1 $512 -8.2547442286039505 $679 8.2547442286039505 $511 $772 forward 7 unknown #
vertex $-1 $677 $773 #
straight-curve $-1 -58.156071657460245 -33.670248109577088 0 0 0 -1 I I #
edge $-1 $675 -33.670248109577088 $679 33.670248109577088 $673 $774 forward 7 unknown #
straight-curve $-1 0 -33.670248109577088 -8.2547442286039505 -1 0 0 I I #
vertex $-1 $504 $775 #
straight-curve $-1 0 33.670248109577088 -8.2547442286039505 1 0 0 I I #
point $-1 58.156071657460245 33.670248109577088 -8.2547442286039505 #
point $-1 58.156071657460245 -33.670248109577088 -8.2547442286039505 #
straight-curve $-1 -58.156071657460245 0 8.2547442286039505 0 -1 0 I I #
point $-1 -58.156071657460245 33.670248109577088 8.2547442286039505 #
point $-1 -58.156071657460245 -33.670248109577088 8.2547442286039505 #
straight-curve $-1 58.156071657460245 -33.670248109577088 0 0 0 -1 I I #
straight-curve $-1 58.156071657460245 33.670248109577088 0 0 0 -1 I I #
plane-surface $-1 58.156071657460245 0 0 -1 0 0 0 0 1 forward_v I I I I #
coedge $-1 $700 $691 $690 $776 forward $522 $-1 #
coedge $-1 $525 $524 $689 $776 reversed $223 $-1 #
coedge $-1 $689 $777 $526 $692 reversed $522 $-1 #
edge $-1 $693 -58.156071657460245 $696 58.156071657460245 $691 $778 forward 7 unknown #
vertex $-1 $527 $779 #
straight-curve $-1 -58.156071657460245 0 8.2547442286039505 0 -1 0 I I #
coedge $-1 $534 $528 $777 $780 forward $535 $-1 #
vertex $-1 $529 $781 #
straight-curve $-1 58.156071657460245 0 8.2547442286039505 0 1 0 I I #
point $-1 58.156071657460245 -33.670248109577088 8.2547442286039505 #
point $-1 -58.156071657460245 -33.670248109577088 8.2547442286039505 #
coedge $-1 $777 $689 $537 $701 reversed $522 $-1 #
edge $-1 $702 -58.156071657460245 $704 58.156071657460245 $700 $782 forward 7 unknown #
vertex $-1 $780 $783 #
straight-curve $-1 58.156071657460245 -37.015909775974968 5.2547442286039505 0 -1 0 I I #
vertex $-1 $539 $784 #
straight-curve $-1 -58.156071657460245 -37.015909775974968 5.2547442286039505 0 1 0 I I #
edge $-1 $707 72.215078188040025 $710 80.425881869183485 $543 $785 forward 7 unknown #
vertex $-1 $557 $786 #
straight-curve $-1 46.177755909690291 -22.02127604150575 8.2547442286039541 1 0 0 I I #
edge $-1 $710 -12.731764447880856 $554 -5.8472587393689324 $553 $787 forward 7 unknown #
vertex $-1 $709 $788 #
straight-curve $-1 -5.1920604044933185 -22.02127604150575 97.591512771334394 -0.54463902268945019 0 0.83867057594974714 I I #
point $-1 52.823913572232662 -22.02127604150575 8.2547442286039541 #
point $-1 58.156071657460245 -15.136770332993827 0.043940547460493917 #
straight-curve $-1 58.156071657460245 0 8.2547442286039505 0 1 0 I I #
vertex $-1 $560 $789 #
point $-1 54.463136743500272 -20.054274410502344 2.886312768788287 #
vertex $-1 $564 $790 #
point $-1 54.463136743500272 -17.103771963997236 2.886312768788287 #
edge $-1 $720 72.215078188040025 $723 80.425881869183485 $569 $791 forward 7 unknown #
vertex $-1 $583 $792 #
straight-curve $-1 46.177755909690291 -7.4048194724073042 8.2547442286039541 1 0 0 I I #
edge $-1 $723 -5.423536163331633 $580 1.4609695451802907 $579 $793 forward 7 unknown #
vertex $-1 $722 $794 #
straight-curve $-1 -5.1920604044933185 -7.4048194724073042 97.591512771334394 -0.54463902268945019 0 0.83867057594974714 I I #
point $-1 52.823913572232662 -7.4048194724073042 8.2547442286039541 #
point $-1 58.156071657460245 -0.52031376389538053 0.043940547460493917 #
straight-curve $-1 58.156071657460245 0 8.2547442286039505 0 1 0 I I #
vertex $-1 $586 $795 #
point $-1 54.463136743500272 -5.4378178414038985 2.886312768788287 #
vertex $-1 $590 $796 #
point $-1 54.463136743500272 -2.4873153948987898 2.886312768788287 #
edge $-1 $733 72.215078188040025 $736 80.425881869183485 $595 $797 forward 7 unknown #
vertex $-1 $609 $798 #
straight-curve $-1 46.177755909690291 7.2116370966911418 8.2547442286039541 1 0 0 I I #
edge $-1 $736 1.88469212121759 $606 8.7691978297295137 $605 $799 forward 7 unknown #
vertex $-1 $735 $800 #
straight-curve $-1 -5.1920604044933185 7.2116370966911418 97.591512771334394 -0.54463902268945019 0 0.83867057594974714 I I #
point $-1 52.823913572232662 7.2116370966911418 8.2547442286039541 #
point $-1 58.156071657460245 14.096142805203066 0.043940547460493917 #
straight-curve $-1 58.156071657460245 0 8.2547442286039505 0 1 0 I I #
vertex $-1 $612 $801 #
point $-1 54.463136743500272 9.1786387276945476 2.886312768788287 #
vertex $-1 $616 $802 #
point $-1 54.463136743500272 12.12914117419966 2.886312768788287 #
edge $-1 $746 72.215078188040025 $749 80.425881869183485 $621 $803 forward 7 unknown #
vertex $-1 $635 $804 #
straight-curve $-1 46.177755909690291 21.828093665789588 8.2547442286039541 1 0 0 I I #
edge $-1 $749 9.192920405766813 $632 16.077426114278737 $631 $805 forward 7 unknown #
vertex $-1 $748 $806 #
straight-curve $-1 -5.1920604044933185 21.828093665789588 97.591512771334394 -0.54463902268945019 0 0.83867057594974714 I I #
point $-1 52.823913572232662 21.828093665789588 8.2547442286039541 #
point $-1 58.156071657460245 28.712599374301512 0.043940547460493917 #
straight-curve $-1 58.156071657460245 0 8.2547442286039505 0 1 0 I I #
vertex $-1 $638 $807 #
point $-1 54.463136743500272 23.795095296792994 2.886312768788287 #
vertex $-1 $642 $808 #
point $-1 54.463136743500272 26.745597743298106 2.886312768788287 #
coedge $-1 $657 $656 $649 $759 forward $646 $-1 #
edge $-1 $760 29.160004034775053 $763 35.78285406280299 $758 $809 forward 7 unknown #
vertex $-1 $661 $810 #
straight-curve $-1 -74.273792532785649 19.846548929326659 8.254744228603947 -1 0 0 I I #
edge $-1 $763 -13.622481615191415 $658 1.1743469869209271 $657 $811 forward 7 unknown #
vertex $-1 $762 $812 #
straight-curve $-1 -58.156071657460259 19.846548929326659 1.6318942005759993 0.62932038083071107 0 0.77714596973225614 I I #
point $-1 -52.792993594713352 19.846548929326659 8.2547442286039505 #
point $-1 -58.156071657460245 5.0497203272143167 1.6318942005760169 #
straight-curve $-1 -58.156071657460245 0 8.2547442286039505 0 -1 0 I I #
vertex $-1 $664 $813 #
point $-1 -52.861968555293274 9.2773856421035532 4.1144661534355444 #
vertex $-1 $668 $814 #
point $-1 -52.861968555293274 15.618883614437415 4.1144661534355444 #
straight-curve $-1 -58.156071657460245 33.670248109577088 0 0 0 -1 I I #
point $-1 -58.156071657460245 -33.670248109577088 -8.2547442286039505 #
straight-curve $-1 -58.156071657460245 0 -8.2547442286039505 0 1 0 I I #
point $-1 -58.156071657460245 33.670248109577088 -8.2547442286039505 #
edge $-1 $693 -1.5 $704 1.5 $690 $815 forward 7 unknown #
coedge $-1 $691 $700 $695 $780 reversed $522 $-1 #
straight-curve $-1 0 -40.361571442372849 8.2547442286039505 1 0 0 I I #
point $-1 -58.156071657460245 -40.361571442372849 8.2547442286039505 #
edge $-1 $696 -1.5 $702 1.5 $695 $816 forward 7 unknown #
point $-1 58.156071657460245 -40.361571442372849 8.2547442286039505 #
straight-curve $-1 0 -40.361571442372849 5.2547442286039505 -1 0 0 I I #
point $-1 58.156071657460245 -40.361571442372849 5.2547442286039505 #
point $-1 -58.156071657460245 -40.361571442372849 5.2547442286039505 #
straight-curve $-1 58.156071657460245 -22.02127604150575 80.469822416643979 0 0 -1 I I #
point $-1 58.156071657460245 -22.02127604150575 8.2547442286039505 #
straight-curve $-1 58.156071657460245 -9.2895115936248942 0.043940547460508128 0 1 0 I I #
point $-1 58.156071657460245 -22.02127604150575 0.043940547460493917 #
point $-1 53.771481944180671 -20.054274410502344 3.0333285454184353 #
point $-1 53.771481944180671 -17.103771963997236 3.0333285454184353 #
straight-curve $-1 58.156071657460245 -7.4048194724073042 80.469822416643979 0 0 -1 I I #
point $-1 58.156071657460245 -7.4048194724073042 8.2547442286039505 #
straight-curve $-1 58.156071657460245 -1.9812833090756712 0.043940547460508128 0 1 0 I I #
point $-1 58.156071657460245 -7.4048194724073042 0.043940547460493917 #
point $-1 53.771481944180671 -5.4378178414038985 3.0333285454184353 #
point $-1 53.771481944180671 -2.4873153948987898 3.0333285454184353 #
straight-curve $-1 58.156071657460245 7.2116370966911418 80.469822416643979 0 0 -1 I I #
point $-1 58.156071657460245 7.2116370966911418 8.2547442286039505 #
straight-curve $-1 58.156071657460245 5.3269449754735518 0.043940547460508128 0 1 0 I I #
point $-1 58.156071657460245 7.2116370966911418 0.043940547460493917 #
point $-1 53.771481944180671 9.1786387276945476 3.0333285454184353 #
point $-1 53.771481944180671 12.12914117419966 3.0333285454184353 #
straight-curve $-1 58.156071657460245 21.828093665789588 80.469822416643979 0 0 -1 I I #
point $-1 58.156071657460245 21.828093665789588 8.2547442286039505 #
straight-curve $-1 58.156071657460245 12.635173260022775 0.043940547460508128 0 1 0 I I #
point $-1 58.156071657460245 21.828093665789588 0.043940547460493917 #
point $-1 53.771481944180671 23.795095296792994 3.0333285454184353 #
point $-1 53.771481944180671 26.745597743298106 3.0333285454184353 #
straight-curve $-1 -58.156071657460245 19.846548929326659 37.414748263379003 0 0 -1 I I #
point $-1 -58.156071657460245 19.846548929326659 8.2547442286039505 #
straight-curve $-1 -58.156071657460245 6.2240673141352438 1.6318942005760204 0 -1 0 I I #
point $-1 -58.156071657460245 19.846548929326659 1.6318942005760169 #
point $-1 -52.714142966391726 9.2773856421035532 2.7079998028725774 #
point $-1 -52.714142966391726 15.618883614437415 2.7079998028725774 #
straight-curve $-1 -58.156071657460245 -40.361571442372849 6.7547442286039505 0 0 -1 I I #
straight-curve $-1 58.156071657460245 -40.361571442372849 6.7547442286039505 0 0 -1 I I #
End-of-ACIS-data 