500 0 18 0           
7 Unknown 11 ACIS 5.0 NT 24 Thu Mar 25 21:35:33 1999 
-1 9.9999999999999995e-007 1e-010 
body $-1 $18 $-1 $19 #
body $-1 $20 $-1 $21 #
body $-1 $22 $-1 $23 #
body $-1 $24 $-1 $25 #
body $-1 $26 $-1 $27 #
body $-1 $28 $-1 $29 #
body $-1 $30 $-1 $31 #
body $-1 $32 $-1 $33 #
body $-1 $34 $-1 $35 #
body $-1 $36 $-1 $37 #
body $-1 $38 $-1 $39 #
body $-1 $40 $-1 $41 #
body $-1 $42 $-1 $43 #
body $-1 $44 $-1 $45 #
body $-1 $46 $-1 $47 #
body $-1 $48 $-1 $49 #
body $-1 $50 $-1 $51 #
body $-1 $52 $-1 $53 #
lump $-1 $-1 $54 $0 #
transform $-1 1 0 0 0 1 0 0 0 1 43.231299783318583 20.078997318716052 4.89324067778995 1 rotate no_reflect no_shear #
lump $-1 $-1 $55 $1 #
transform $-1 1 0 0 0 1 0 0 0 1 43.231299783318583 20.078997318716052 4.89324067778995 1 rotate no_reflect no_shear #
lump $-1 $-1 $56 $2 #
transform $-1 1 0 0 0 1 0 0 0 1 43.231299783318583 20.078997318716052 4.89324067778995 1 rotate no_reflect no_shear #
lump $-1 $-1 $57 $3 #
transform $-1 1 0 0 0 1 0 0 0 1 43.231299783318583 20.078997318716052 4.89324067778995 1 rotate no_reflect no_shear #
lump $-1 $-1 $58 $4 #
transform $-1 1 0 0 0 1 0 0 0 1 43.231299783318583 20.078997318716052 4.89324067778995 1 rotate no_reflect no_shear #
lump $-1 $-1 $59 $5 #
transform $-1 1 0 0 0 1 0 0 0 1 43.231299783318583 20.078997318716052 4.89324067778995 1 rotate no_reflect no_shear #
lump $-1 $-1 $60 $6 #
transform $-1 1 0 0 0 1 0 0 0 1 43.231299783318583 20.078997318716052 4.89324067778995 1 rotate no_reflect no_shear #
lump $-1 $-1 $61 $7 #
transform $-1 1 0 0 0 1 0 0 0 1 43.231299783318583 20.078997318716052 4.89324067778995 1 rotate no_reflect no_shear #
lump $-1 $-1 $62 $8 #
transform $-1 1 0 0 0 1 0 0 0 1 43.231299783318583 20.078997318716052 4.89324067778995 1 rotate no_reflect no_shear #
lump $-1 $-1 $63 $9 #
transform $-1 1 0 0 0 1 0 0 0 1 43.231299783318583 20.078997318716052 4.89324067778995 1 rotate no_reflect no_shear #
lump $-1 $-1 $64 $10 #
transform $-1 1 0 0 0 1 0 0 0 1 43.231299783318583 20.078997318716052 4.89324067778995 1 rotate no_reflect no_shear #
lump $-1 $-1 $65 $11 #
transform $-1 1 0 0 0 1 0 0 0 1 43.231299783318583 20.078997318716052 4.89324067778995 1 rotate no_reflect no_shear #
lump $-1 $-1 $66 $12 #
transform $-1 1 0 0 0 1 0 0 0 1 43.231299783318583 20.078997318716052 4.89324067778995 1 rotate no_reflect no_shear #
lump $-1 $-1 $67 $13 #
transform $-1 1 0 0 0 1 0 0 0 1 43.231299783318583 20.078997318716052 4.89324067778995 1 rotate no_reflect no_shear #
lump $-1 $-1 $68 $14 #
transform $-1 1 0 0 0 1 0 0 0 1 43.231299783318583 20.078997318716052 4.89324067778995 1 rotate no_reflect no_shear #
lump $-1 $-1 $69 $15 #
transform $-1 1 0 0 0 1 0 0 0 1 43.231299783318583 20.078997318716052 4.89324067778995 1 rotate no_reflect no_shear #
lump $-1 $-1 $70 $16 #
transform $-1 1 0 0 0 1 0 0 0 1 43.231299783318583 20.078997318716052 4.89324067778995 1 rotate no_reflect no_shear #
lump $-1 $-1 $71 $17 #
transform $-1 1 0 0 0 1 0 0 0 1 43.231299783318583 20.078997318716052 4.89324067778995 1 rotate no_reflect no_shear #
shell $-1 $-1 $-1 $72 $-1 $18 #
shell $-1 $-1 $-1 $73 $-1 $20 #
shell $-1 $-1 $-1 $74 $-1 $22 #
shell $-1 $-1 $-1 $75 $-1 $24 #
shell $-1 $-1 $-1 $76 $-1 $26 #
shell $-1 $-1 $-1 $77 $-1 $28 #
shell $-1 $-1 $-1 $78 $-1 $30 #
shell $-1 $-1 $-1 $79 $-1 $32 #
shell $-1 $-1 $-1 $80 $-1 $34 #
shell $-1 $-1 $-1 $81 $-1 $36 #
shell $-1 $-1 $-1 $82 $-1 $38 #
shell $-1 $-1 $-1 $83 $-1 $40 #
shell $-1 $-1 $-1 $84 $-1 $42 #
shell $-1 $-1 $-1 $85 $-1 $44 #
shell $-1 $-1 $-1 $86 $-1 $46 #
shell $-1 $-1 $-1 $87 $-1 $48 #
shell $-1 $-1 $-1 $88 $-1 $50 #
shell $-1 $-1 $-1 $89 $-1 $52 #
face $-1 $90 $91 $54 $-1 $92 forward single #
face $-1 $93 $94 $55 $-1 $95 forward single #
face $-1 $96 $97 $56 $-1 $98 reversed single #
face $-1 $99 $100 $57 $-1 $101 forward single #
face $-1 $102 $103 $58 $-1 $104 forward single #
face $-1 $105 $106 $59 $-1 $107 forward single #
face $-1 $108 $109 $60 $-1 $110 reversed single #
face $-1 $111 $112 $61 $-1 $113 forward single #
face $-1 $114 $115 $62 $-1 $116 forward single #
face $-1 $117 $118 $63 $-1 $119 forward single #
face $-1 $120 $121 $64 $-1 $122 reversed single #
face $-1 $123 $124 $65 $-1 $125 forward single #
face $-1 $126 $127 $66 $-1 $128 forward single #
face $-1 $129 $130 $67 $-1 $131 forward single #
face $-1 $132 $133 $68 $-1 $134 reversed single #
face $-1 $135 $136 $69 $-1 $137 forward single #
face $-1 $138 $139 $70 $-1 $140 forward single #
face $-1 $141 $142 $71 $-1 $143 forward single #
face $-1 $144 $145 $54 $-1 $146 reversed single #
loop $-1 $-1 $147 $72 #
plane-surface $-1 0 0 4.89324067778995 0 0 1 1 0 0 forward_v I I I I #
face $-1 $148 $149 $55 $-1 $150 forward single #
loop $-1 $-1 $151 $73 #
plane-surface $-1 0 -20.078997318716052 0 0 1 0 0 0 1 forward_v I I I I #
face $-1 $152 $153 $56 $-1 $154 reversed single #
loop $-1 $-1 $155 $74 #
plane-surface $-1 60.248912382928545 2.6860750818382613 121.76497530429086 0 -1 0 -0.79863551827123203 0 -0.60181501223851219 forward_v I I I I #
face $-1 $156 $157 $57 $-1 $158 forward single #
loop $-1 $159 $160 $75 #
cone-surface $-1 41.243920107455551 -2.7745648869970729 2.4849037687468325 -0.79863551827123203 0 -0.60181501223851219 0.3009075061192561 0 -0.39931775913561601 1 I I 0 1 0.5 forward I I I I #
face $-1 $161 $162 $58 $-1 $163 forward single #
loop $-1 $164 $165 $76 #
cone-surface $-1 41.243920107455551 -0.72682489868382305 2.4849037687468325 -0.79863551827123203 0 -0.60181501223851219 0.3009075061192561 0 -0.39931775913561601 1 I I 0 1 0.5 forward I I I I #
face $-1 $166 $167 $59 $-1 $168 forward single #
loop $-1 $169 $170 $77 #
cone-surface $-1 41.243920107455551 1.3209150896294268 2.4849037687468325 -0.79863551827123203 0 -0.60181501223851219 0.3009075061192561 0 -0.39931775913561601 1 I I 0 1 0.5 forward I I I I #
face $-1 $171 $172 $60 $-1 $173 reversed single #
loop $-1 $-1 $174 $78 #
plane-surface $-1 60.248912382928545 13.253197357671883 121.76497530429086 0 1 0 0.79863551827123203 0 0.60181501223851219 forward_v I I I I #
face $-1 $175 $176 $61 $-1 $177 forward single #
loop $-1 $178 $179 $79 #
cone-surface $-1 41.243920107455551 14.618357349880721 2.4849037687468325 -0.79863551827123203 0 -0.60181501223851219 0.3009075061192561 0 -0.39931775913561601 1 I I 0 1 0.5 forward I I I I #
face $-1 $180 $181 $62 $-1 $182 forward single #
loop $-1 $183 $184 $80 #
cone-surface $-1 41.243920107455551 16.666097338193968 2.4849037687468325 -0.79863551827123203 0 -0.60181501223851219 0.3009075061192561 0 -0.39931775913561601 1 I I 0 1 0.5 forward I I I I #
face $-1 $185 $186 $63 $-1 $187 forward single #
loop $-1 $188 $189 $81 #
cone-surface $-1 41.243920107455551 18.713837326507214 2.4849037687468325 -0.79863551827123203 0 -0.60181501223851219 0.3009075061192561 0 -0.39931775913561601 1 I I 0 1 0.5 forward I I I I #
face $-1 $190 $191 $64 $-1 $192 reversed single #
loop $-1 $-1 $193 $82 #
plane-surface $-1 -112.28340279929787 -4.1397248792059074 52.712872288311587 0 1 0 -0.79863551827123203 0 0.60181501223851219 forward_v I I I I #
face $-1 $194 $195 $65 $-1 $196 forward single #
loop $-1 $197 $198 $83 #
cone-surface $-1 -41.243920107455544 -2.7745648869970729 2.4849037687468449 0.79863551827123203 0 -0.60181501223851219 0.3009075061192561 0 0.39931775913561601 1 I I 0 1 0.5 forward I I I I #
face $-1 $199 $200 $66 $-1 $201 forward single #
loop $-1 $202 $203 $84 #
cone-surface $-1 -41.243920107455544 -0.72682489868382305 2.4849037687468449 0.79863551827123203 0 -0.60181501223851219 0.3009075061192561 0 0.39931775913561601 1 I I 0 1 0.5 forward I I I I #
face $-1 $204 $205 $67 $-1 $206 forward single #
loop $-1 $207 $208 $85 #
cone-surface $-1 -41.243920107455544 1.3209150896294268 2.4849037687468449 0.79863551827123203 0 -0.60181501223851219 0.3009075061192561 0 0.39931775913561601 1 I I 0 1 0.5 forward I I I I #
face $-1 $209 $210 $68 $-1 $211 reversed single #
loop $-1 $-1 $212 $86 #
plane-surface $-1 -112.28340279929787 13.253197357671883 52.712872288311587 0 1 0 -0.79863551827123203 0 0.60181501223851219 forward_v I I I I #
face $-1 $213 $214 $69 $-1 $215 forward single #
loop $-1 $216 $217 $87 #
cone-surface $-1 -41.243920107455544 14.618357349880721 2.4849037687468449 0.79863551827123203 0 -0.60181501223851219 0.3009075061192561 0 0.39931775913561601 1 I I 0 1 0.5 forward I I I I #
face $-1 $218 $219 $70 $-1 $220 forward single #
loop $-1 $221 $222 $88 #
cone-surface $-1 -41.243920107455544 16.666097338193968 2.4849037687468449 0.79863551827123203 0 -0.60181501223851219 0.3009075061192561 0 0.39931775913561601 1 I I 0 1 0.5 forward I I I I #
face $-1 $223 $224 $71 $-1 $225 forward single #
loop $-1 $226 $227 $89 #
cone-surface $-1 -41.243920107455544 18.713837326507214 2.4849037687468449 0.79863551827123203 0 -0.60181501223851219 0.3009075061192561 0 0.39931775913561601 1 I I 0 1 0.5 forward I I I I #
face $-1 $228 $229 $54 $-1 $230 reversed single #
loop $-1 $-1 $231 $90 #
plane-surface $-1 0 0 -4.89324067778995 0 0 1 1 0 0 forward_v I I I I #
coedge $-1 $232 $233 $234 $235 forward $91 $-1 #
face $-1 $236 $237 $55 $-1 $238 reversed single #
loop $-1 $-1 $239 $93 #
plane-surface $-1 0 0 4.89324067778995 0 0 1 1 0 0 forward_v I I I I #
coedge $-1 $240 $241 $242 $243 forward $94 $-1 #
face $-1 $244 $245 $56 $-1 $246 reversed single #
loop $-1 $-1 $247 $96 #
plane-surface $-1 -8.8031906330507255 -0.72682489868382305 69.730484887921534 0.79863551827123203 0 0.60181501223851219 0.60181501223851219 0 -0.79863551827123203 forward_v I I I I #
coedge $-1 $248 $249 $250 $251 reversed $97 $-1 #
face $-1 $-1 $252 $57 $-1 $253 forward single #
loop $-1 $254 $255 $99 #
cone-surface $-1 40.644943468752125 -2.7745648869970729 2.0335425095679485 -0.79863551827123203 0 -0.60181501223851219 0.15045375305962805 0 -0.19965887956780801 1 I I -0.70710678118654746 0.70710678118654746 0.25 forward I I I I #
loop $-1 $-1 $256 $75 #
coedge $-1 $160 $160 $257 $258 reversed $100 $-1 #
face $-1 $-1 $259 $58 $-1 $260 forward single #
loop $-1 $261 $262 $102 #
cone-surface $-1 40.644943468752125 -0.72682489868382305 2.0335425095679485 -0.79863551827123203 0 -0.60181501223851219 0.15045375305962805 0 -0.19965887956780801 1 I I -0.70710678118654746 0.70710678118654746 0.25 forward I I I I #
loop $-1 $-1 $263 $76 #
coedge $-1 $165 $165 $264 $265 reversed $103 $-1 #
face $-1 $-1 $266 $59 $-1 $267 forward single #
loop $-1 $268 $269 $105 #
cone-surface $-1 40.644943468752125 1.3209150896294268 2.0335425095679485 -0.79863551827123203 0 -0.60181501223851219 0.15045375305962805 0 -0.19965887956780801 1 I I -0.70710678118654746 0.70710678118654746 0.25 forward I I I I #
loop $-1 $-1 $270 $77 #
coedge $-1 $170 $170 $271 $272 reversed $106 $-1 #
face $-1 $273 $274 $60 $-1 $275 reversed single #
loop $-1 $-1 $276 $108 #
plane-surface $-1 -8.8031906330507255 16.666097338193968 69.730484887921534 0.79863551827123203 0 0.60181501223851219 0.60181501223851219 0 -0.79863551827123203 forward_v I I I I #
coedge $-1 $277 $278 $279 $280 reversed $109 $-1 #
face $-1 $-1 $281 $61 $-1 $282 forward single #
loop $-1 $283 $284 $111 #
cone-surface $-1 40.644943468752125 14.618357349880721 2.0335425095679485 -0.79863551827123203 0 -0.60181501223851219 0.15045375305962805 0 -0.19965887956780801 1 I I -0.70710678118654746 0.70710678118654746 0.25 forward I I I I #
loop $-1 $-1 $285 $79 #
coedge $-1 $179 $179 $286 $287 reversed $112 $-1 #
face $-1 $-1 $288 $62 $-1 $289 forward single #
loop $-1 $290 $291 $114 #
cone-surface $-1 40.644943468752125 16.666097338193968 2.0335425095679485 -0.79863551827123203 0 -0.60181501223851219 0.15045375305962805 0 -0.19965887956780801 1 I I -0.70710678118654746 0.70710678118654746 0.25 forward I I I I #
loop $-1 $-1 $292 $80 #
coedge $-1 $184 $184 $293 $294 reversed $115 $-1 #
face $-1 $-1 $295 $63 $-1 $296 forward single #
loop $-1 $297 $298 $117 #
cone-surface $-1 40.644943468752125 18.713837326507214 2.0335425095679485 -0.79863551827123203 0 -0.60181501223851219 0.15045375305962805 0 -0.19965887956780801 1 I I -0.70710678118654746 0.70710678118654746 0.25 forward I I I I #
loop $-1 $-1 $299 $81 #
coedge $-1 $189 $189 $300 $301 reversed $118 $-1 #
face $-1 $302 $303 $64 $-1 $304 reversed single #
loop $-1 $-1 $305 $120 #
plane-surface $-1 -43.231299783318605 -0.72682489868382305 0.67838187194226407 -0.79863551827123203 0 0.60181501223851219 0.60181501223851219 0 0.79863551827123203 forward_v I I I I #
coedge $-1 $306 $307 $308 $309 reversed $121 $-1 #
face $-1 $-1 $310 $65 $-1 $311 forward single #
loop $-1 $312 $313 $123 #
cone-surface $-1 -40.644943468752118 -2.7745648869970729 2.0335425095679609 0.79863551827123203 0 -0.60181501223851219 0.15045375305962805 0 0.19965887956780801 1 I I -0.70710678118654746 0.70710678118654746 0.25 forward I I I I #
loop $-1 $-1 $314 $83 #
coedge $-1 $198 $198 $315 $316 reversed $124 $-1 #
face $-1 $-1 $317 $66 $-1 $318 forward single #
loop $-1 $319 $320 $126 #
cone-surface $-1 -40.644943468752118 -0.72682489868382305 2.0335425095679609 0.79863551827123203 0 -0.60181501223851219 0.15045375305962805 0 0.19965887956780801 1 I I -0.70710678118654746 0.70710678118654746 0.25 forward I I I I #
loop $-1 $-1 $321 $84 #
coedge $-1 $203 $203 $322 $323 reversed $127 $-1 #
face $-1 $-1 $324 $67 $-1 $325 forward single #
loop $-1 $326 $327 $129 #
cone-surface $-1 -40.644943468752118 1.3209150896294268 2.0335425095679609 0.79863551827123203 0 -0.60181501223851219 0.15045375305962805 0 0.19965887956780801 1 I I -0.70710678118654746 0.70710678118654746 0.25 forward I I I I #
loop $-1 $-1 $328 $85 #
coedge $-1 $208 $208 $329 $330 reversed $130 $-1 #
face $-1 $331 $332 $68 $-1 $333 forward single #
loop $-1 $-1 $334 $132 #
plane-surface $-1 -43.231299783318605 16.666097338193968 0.67838187194226407 -0.79863551827123203 0 0.60181501223851219 0.60181501223851219 0 0.79863551827123203 forward_v I I I I #
coedge $-1 $335 $336 $337 $338 reversed $133 $-1 #
face $-1 $-1 $339 $69 $-1 $340 forward single #
loop $-1 $341 $342 $135 #
cone-surface $-1 -40.644943468752118 14.618357349880721 2.0335425095679609 0.79863551827123203 0 -0.60181501223851219 0.15045375305962805 0 0.19965887956780801 1 I I -0.70710678118654746 0.70710678118654746 0.25 forward I I I I #
loop $-1 $-1 $343 $87 #
coedge $-1 $217 $217 $344 $345 reversed $136 $-1 #
face $-1 $-1 $346 $70 $-1 $347 forward single #
loop $-1 $348 $349 $138 #
cone-surface $-1 -40.644943468752118 16.666097338193968 2.0335425095679609 0.79863551827123203 0 -0.60181501223851219 0.15045375305962805 0 0.19965887956780801 1 I I -0.70710678118654746 0.70710678118654746 0.25 forward I I I I #
loop $-1 $-1 $350 $88 #
coedge $-1 $222 $222 $351 $352 reversed $139 $-1 #
face $-1 $-1 $353 $71 $-1 $354 forward single #
loop $-1 $355 $356 $141 #
cone-surface $-1 -40.644943468752118 18.713837326507214 2.0335425095679609 0.79863551827123203 0 -0.60181501223851219 0.15045375305962805 0 0.19965887956780801 1 I I -0.70710678118654746 0.70710678118654746 0.25 forward I I I I #
loop $-1 $-1 $357 $89 #
coedge $-1 $227 $227 $358 $359 reversed $142 $-1 #
face $-1 $360 $361 $54 $-1 $362 reversed single #
loop $-1 $-1 $363 $144 #
plane-surface $-1 0 -20.078997318716052 0 0 1 0 0 0 1 forward_v I I I I #
coedge $-1 $364 $365 $366 $367 forward $145 $-1 #
coedge $-1 $368 $147 $369 $370 forward $91 $-1 #
coedge $-1 $147 $368 $371 $372 forward $91 $-1 #
coedge $-1 $373 $374 $147 $235 reversed $375 $-1 #
edge $-1 $376 -20.078997318716052 $377 20.078997318716052 $234 $378 forward 7 unknown #
face $-1 $379 $380 $55 $-1 $381 reversed single #
loop $-1 $-1 $382 $148 #
plane-surface $-1 -43.231299783318583 0 0 1 0 0 0 0 -1 forward_v I I I I #
coedge $-1 $383 $384 $385 $386 forward $149 $-1 #
coedge $-1 $385 $151 $382 $387 reversed $94 $-1 #
coedge $-1 $151 $385 $388 $389 reversed $94 $-1 #
coedge $-1 $390 $391 $151 $243 reversed $380 $-1 #
edge $-1 $392 -43.231299783318583 $393 43.231299783318583 $242 $394 forward 7 unknown #
face $-1 $395 $396 $56 $-1 $397 reversed single #
loop $-1 $-1 $398 $152 #
plane-surface $-1 60.248912382928545 -4.1397248792059074 121.76497530429086 0 1 0 0.79863551827123203 0 0.60181501223851219 forward_v I I I I #
coedge $-1 $399 $400 $401 $402 reversed $153 $-1 #
coedge $-1 $249 $155 $403 $404 reversed $97 $-1 #
coedge $-1 $155 $248 $399 $405 reversed $97 $-1 #
coedge $-1 $401 $406 $155 $251 forward $407 $-1 #
edge $-1 $408 -13.106843591854311 $409 -9.93071975839948 $250 $410 forward 7 unknown #
loop $-1 $-1 $257 $156 #
plane-surface $-1 -8.8031906330507255 -0.72682489868382305 69.730484887921534 0.79863551827123203 0 0.60181501223851219 0.60181501223851219 0 -0.79863551827123203 forward_v I I I I #
loop $-1 $-1 $411 $99 #
coedge $-1 $255 $255 $256 $412 reversed $157 $-1 #
coedge $-1 $256 $256 $255 $412 forward $159 $-1 #
coedge $-1 $257 $257 $160 $258 forward $252 $-1 #
edge $-1 $413 0 $413 6.2831853071796004 $257 $414 forward 7 unknown #
loop $-1 $-1 $264 $161 #
plane-surface $-1 -8.8031906330507255 -0.72682489868382305 69.730484887921534 0.79863551827123203 0 0.60181501223851219 0.60181501223851219 0 -0.79863551827123203 forward_v I I I I #
loop $-1 $-1 $415 $102 #
coedge $-1 $262 $262 $263 $416 reversed $162 $-1 #
coedge $-1 $263 $263 $262 $416 forward $164 $-1 #
coedge $-1 $264 $264 $165 $265 forward $259 $-1 #
edge $-1 $417 0 $417 6.2831853071796004 $264 $418 forward 7 unknown #
loop $-1 $-1 $271 $166 #
plane-surface $-1 -8.8031906330507255 -0.72682489868382305 69.730484887921534 0.79863551827123203 0 0.60181501223851219 0.60181501223851219 0 -0.79863551827123203 forward_v I I I I #
loop $-1 $-1 $419 $105 #
coedge $-1 $269 $269 $270 $420 reversed $167 $-1 #
coedge $-1 $270 $270 $269 $420 forward $169 $-1 #
coedge $-1 $271 $271 $170 $272 forward $266 $-1 #
edge $-1 $421 0 $421 6.2831853071796004 $271 $422 forward 7 unknown #
face $-1 $423 $424 $60 $-1 $425 forward single #
loop $-1 $-1 $279 $171 #
plane-surface $-1 43.231299783318583 0 0 -1 0 0 0 0 1 forward_v I I I I #
coedge $-1 $426 $427 $428 $429 reversed $172 $-1 #
coedge $-1 $278 $174 $430 $431 reversed $109 $-1 #
coedge $-1 $174 $277 $426 $432 reversed $109 $-1 #
coedge $-1 $428 $433 $174 $280 forward $274 $-1 #
edge $-1 $434 55.989246974355481 $435 60.20410578020315 $279 $436 forward 7 unknown #
loop $-1 $-1 $286 $175 #
plane-surface $-1 -8.8031906330507255 16.666097338193968 69.730484887921534 0.79863551827123203 0 0.60181501223851219 0.60181501223851219 0 -0.79863551827123203 forward_v I I I I #
loop $-1 $-1 $437 $111 #
coedge $-1 $284 $284 $285 $438 reversed $176 $-1 #
coedge $-1 $285 $285 $284 $438 forward $178 $-1 #
coedge $-1 $286 $286 $179 $287 forward $281 $-1 #
edge $-1 $439 0 $439 6.2831853071796004 $286 $440 forward 7 unknown #
loop $-1 $-1 $293 $180 #
plane-surface $-1 -8.8031906330507255 16.666097338193968 69.730484887921534 0.79863551827123203 0 0.60181501223851219 0.60181501223851219 0 -0.79863551827123203 forward_v I I I I #
loop $-1 $-1 $441 $114 #
coedge $-1 $291 $291 $292 $442 reversed $181 $-1 #
coedge $-1 $292 $292 $291 $442 forward $183 $-1 #
coedge $-1 $293 $293 $184 $294 forward $288 $-1 #
edge $-1 $443 0 $443 6.2831853071796004 $293 $444 forward 7 unknown #
loop $-1 $-1 $300 $185 #
plane-surface $-1 -8.8031906330507255 16.666097338193968 69.730484887921534 0.79863551827123203 0 0.60181501223851219 0.60181501223851219 0 -0.79863551827123203 forward_v I I I I #
loop $-1 $-1 $445 $117 #
coedge $-1 $298 $298 $299 $446 reversed $186 $-1 #
coedge $-1 $299 $299 $298 $446 forward $188 $-1 #
coedge $-1 $300 $300 $189 $301 forward $295 $-1 #
edge $-1 $447 0 $447 6.2831853071796004 $300 $448 forward 7 unknown #
face $-1 $449 $450 $64 $-1 $451 forward single #
loop $-1 $-1 $452 $190 #
plane-surface $-1 -112.28340279929787 2.6860750818382613 52.712872288311587 0 -1 0 0.79863551827123203 0 -0.60181501223851219 forward_v I I I I #
coedge $-1 $453 $454 $455 $456 reversed $191 $-1 #
coedge $-1 $307 $193 $457 $458 reversed $121 $-1 #
coedge $-1 $193 $306 $453 $459 reversed $121 $-1 #
coedge $-1 $455 $460 $193 $309 forward $450 $-1 #
edge $-1 $461 12.910401616330354 $462 16.086525449785185 $308 $463 forward 7 unknown #
loop $-1 $-1 $315 $194 #
plane-surface $-1 -43.231299783318605 -0.72682489868382305 0.67838187194226407 -0.79863551827123203 0 0.60181501223851219 0.60181501223851219 0 0.79863551827123203 forward_v I I I I #
loop $-1 $-1 $464 $123 #
coedge $-1 $313 $313 $314 $465 reversed $195 $-1 #
coedge $-1 $314 $314 $313 $465 forward $197 $-1 #
coedge $-1 $315 $315 $198 $316 forward $310 $-1 #
edge $-1 $466 0 $466 6.2831853071796004 $315 $467 forward 7 unknown #
loop $-1 $-1 $322 $199 #
plane-surface $-1 -43.231299783318605 -0.72682489868382305 0.67838187194226407 -0.79863551827123203 0 0.60181501223851219 0.60181501223851219 0 0.79863551827123203 forward_v I I I I #
loop $-1 $-1 $468 $126 #
coedge $-1 $320 $320 $321 $469 reversed $200 $-1 #
coedge $-1 $321 $321 $320 $469 forward $202 $-1 #
coedge $-1 $322 $322 $203 $323 forward $317 $-1 #
edge $-1 $470 0 $470 6.2831853071796004 $322 $471 forward 7 unknown #
loop $-1 $-1 $329 $204 #
plane-surface $-1 -43.231299783318605 -0.72682489868382305 0.67838187194226407 -0.79863551827123203 0 0.60181501223851219 0.60181501223851219 0 0.79863551827123203 forward_v I I I I #
loop $-1 $-1 $472 $129 #
coedge $-1 $327 $327 $328 $473 reversed $205 $-1 #
coedge $-1 $328 $328 $327 $473 forward $207 $-1 #
coedge $-1 $329 $329 $208 $330 forward $324 $-1 #
edge $-1 $474 0 $474 6.2831853071796004 $329 $475 forward 7 unknown #
face $-1 $476 $477 $68 $-1 $478 reversed single #
loop $-1 $-1 $337 $209 #
plane-surface $-1 0 0 4.89324067778995 0 0 1 1 0 0 forward_v I I I I #
coedge $-1 $479 $480 $481 $482 reversed $210 $-1 #
coedge $-1 $336 $212 $483 $484 reversed $133 $-1 #
coedge $-1 $212 $335 $479 $485 reversed $133 $-1 #
coedge $-1 $481 $486 $212 $338 forward $332 $-1 #
edge $-1 $487 12.910401616330354 $488 16.086525449785185 $337 $489 forward 7 unknown #
loop $-1 $-1 $344 $213 #
plane-surface $-1 -43.231299783318605 16.666097338193968 0.67838187194226407 -0.79863551827123203 0 0.60181501223851219 0.60181501223851219 0 0.79863551827123203 forward_v I I I I #
loop $-1 $-1 $490 $135 #
coedge $-1 $342 $342 $343 $491 reversed $214 $-1 #
coedge $-1 $343 $343 $342 $491 forward $216 $-1 #
coedge $-1 $344 $344 $217 $345 forward $339 $-1 #
edge $-1 $492 0 $492 6.2831853071796004 $344 $493 forward 7 unknown #
loop $-1 $-1 $351 $218 #
plane-surface $-1 -43.231299783318605 16.666097338193968 0.67838187194226407 -0.79863551827123203 0 0.60181501223851219 0.60181501223851219 0 0.79863551827123203 forward_v I I I I #
loop $-1 $-1 $494 $138 #
coedge $-1 $349 $349 $350 $495 reversed $219 $-1 #
coedge $-1 $350 $350 $349 $495 forward $221 $-1 #
coedge $-1 $351 $351 $222 $352 forward $346 $-1 #
edge $-1 $496 0 $496 6.2831853071796004 $351 $497 forward 7 unknown #
loop $-1 $-1 $358 $223 #
plane-surface $-1 -43.231299783318605 16.666097338193968 0.67838187194226407 -0.79863551827123203 0 0.60181501223851219 0.60181501223851219 0 0.79863551827123203 forward_v I I I I #
loop $-1 $-1 $498 $141 #
coedge $-1 $356 $356 $357 $499 reversed $224 $-1 #
coedge $-1 $357 $357 $356 $499 forward $226 $-1 #
coedge $-1 $358 $358 $227 $359 forward $353 $-1 #
edge $-1 $500 0 $500 6.2831853071796004 $358 $501 forward 7 unknown #
face $-1 $502 $503 $54 $-1 $504 reversed single #
loop $-1 $-1 $505 $228 #
plane-surface $-1 -43.231299783318583 0 0 1 0 0 0 0 -1 forward_v I I I I #
coedge $-1 $506 $371 $507 $508 forward $229 $-1 #
coedge $-1 $509 $231 $506 $510 forward $145 $-1 #
coedge $-1 $231 $509 $511 $512 forward $145 $-1 #
coedge $-1 $374 $373 $231 $367 reversed $375 $-1 #
edge $-1 $513 -20.078997318716052 $514 20.078997318716052 $366 $515 forward 7 unknown #
coedge $-1 $233 $232 $516 $517 forward $91 $-1 #
coedge $-1 $518 $519 $232 $370 reversed $503 $-1 #
edge $-1 $377 -43.231299783318583 $520 43.231299783318583 $369 $521 forward 7 unknown #
coedge $-1 $363 $522 $233 $372 reversed $229 $-1 #
edge $-1 $523 -43.231299783318583 $376 43.231299783318583 $371 $524 forward 7 unknown #
coedge $-1 $366 $234 $522 $525 forward $375 $-1 #
coedge $-1 $234 $366 $518 $526 reversed $375 $-1 #
loop $-1 $-1 $373 $502 #
vertex $-1 $235 $527 #
vertex $-1 $235 $528 #
straight-curve $-1 43.231299783318583 0 4.89324067778995 0 1 0 I I #
face $-1 $529 $530 $55 $-1 $531 reversed single #
loop $-1 $-1 $390 $236 #
plane-surface $-1 0 -22.765072400554313 1.89324067778995 0 0 1 1 0 0 forward_v I I I I #
coedge $-1 $532 $533 $240 $387 forward $237 $-1 #
coedge $-1 $534 $239 $533 $535 forward $149 $-1 #
coedge $-1 $239 $534 $536 $537 forward $149 $-1 #
coedge $-1 $241 $240 $239 $386 reversed $94 $-1 #
edge $-1 $538 -43.231299783318583 $539 43.231299783318583 $239 $540 forward 7 unknown #
edge $-1 $539 -4.89324067778995 $393 -1.89324067778995 $382 $541 forward 7 unknown #
coedge $-1 $536 $542 $241 $389 forward $543 $-1 #
edge $-1 $392 1.89324067778995 $538 4.89324067778995 $388 $544 forward 7 unknown #
coedge $-1 $545 $242 $542 $546 forward $380 $-1 #
coedge $-1 $242 $545 $532 $547 forward $380 $-1 #
vertex $-1 $389 $548 #
vertex $-1 $387 $549 #
straight-curve $-1 0 -20.078997318716052 1.89324067778995 -1 0 0 I I #
face $-1 $-1 $407 $56 $-1 $550 forward single #
loop $-1 $-1 $551 $244 #
plane-surface $-1 43.231299783318583 0 0 -1 0 0 0 0 1 forward_v I I I I #
coedge $-1 $552 $553 $554 $555 reversed $245 $-1 #
coedge $-1 $556 $247 $249 $405 forward $153 $-1 #
coedge $-1 $247 $556 $552 $557 forward $153 $-1 #
coedge $-1 $554 $250 $247 $402 forward $407 $-1 #
edge $-1 $409 -3.0494875311801728 $558 3.7763124298639958 $401 $559 forward 7 unknown #
coedge $-1 $560 $561 $248 $404 forward $396 $-1 #
edge $-1 $562 -60.20410578020315 $408 -55.989246974355481 $403 $563 forward 7 unknown #
edge $-1 $409 81.185024616087276 $562 86.462599566637138 $249 $564 forward 7 unknown #
coedge $-1 $250 $554 $560 $565 forward $407 $-1 #
loop $-1 $-1 $554 $395 #
vertex $-1 $404 $566 #
vertex $-1 $251 $567 #
straight-curve $-1 30.124456191464272 2.6860750818382613 4.8932406777899473 -1 0 0 I I #
coedge $-1 $411 $411 $-1 $568 reversed $254 $-1 #
edge $-1 $569 0 $569 6.2831853071796004 $255 $570 forward 7 unknown #
vertex $-1 $258 $571 #
ellipse-curve $-1 41.643237866591178 -2.7745648869970729 2.7858112748660973 0.79863551827123203 0 0.60181501223851219 0.3009075061192561 0 -0.39931775913561601 1 I I #
coedge $-1 $415 $415 $-1 $572 reversed $261 $-1 #
edge $-1 $573 0 $573 6.2831853071796004 $262 $574 forward 7 unknown #
vertex $-1 $265 $575 #
ellipse-curve $-1 41.643237866591178 -0.72682489868382305 2.7858112748660973 0.79863551827123203 0 0.60181501223851219 0.3009075061192561 0 -0.39931775913561601 1 I I #
coedge $-1 $419 $419 $-1 $576 reversed $268 $-1 #
edge $-1 $577 0 $577 6.2831853071796004 $269 $578 forward 7 unknown #
vertex $-1 $272 $579 #
ellipse-curve $-1 41.643237866591178 1.3209150896294268 2.7858112748660973 0.79863551827123203 0 0.60181501223851219 0.3009075061192561 0 -0.39931775913561601 1 I I #
face $-1 $-1 $580 $60 $-1 $581 reversed single #
loop $-1 $-1 $430 $273 #
plane-surface $-1 0 0 4.89324067778995 0 0 1 1 0 0 forward_v I I I I #
coedge $-1 $582 $276 $278 $432 forward $172 $-1 #
coedge $-1 $276 $582 $583 $584 reversed $172 $-1 #
coedge $-1 $585 $279 $276 $429 forward $274 $-1 #
edge $-1 $435 4.9201486885748995 $586 11.745948649619068 $428 $587 forward 7 unknown #
coedge $-1 $588 $589 $277 $431 forward $424 $-1 #
edge $-1 $590 9.93071975839948 $434 13.106843591854311 $430 $591 forward 7 unknown #
edge $-1 $435 -86.462599566637138 $590 -81.185024616087276 $278 $592 forward 7 unknown #
coedge $-1 $279 $585 $588 $593 reversed $274 $-1 #
vertex $-1 $593 $594 #
vertex $-1 $280 $595 #
straight-curve $-1 43.231299783318583 13.253197357671883 60.882487652145429 0 0 -1 I I #
coedge $-1 $437 $437 $-1 $596 reversed $283 $-1 #
edge $-1 $597 0 $597 6.2831853071796004 $284 $598 forward 7 unknown #
vertex $-1 $287 $599 #
ellipse-curve $-1 41.643237866591178 14.618357349880721 2.7858112748660973 0.79863551827123203 0 0.60181501223851219 0.3009075061192561 0 -0.39931775913561601 1 I I #
coedge $-1 $441 $441 $-1 $600 reversed $290 $-1 #
edge $-1 $601 0 $601 6.2831853071796004 $291 $602 forward 7 unknown #
vertex $-1 $294 $603 #
ellipse-curve $-1 41.643237866591178 16.666097338193968 2.7858112748660973 0.79863551827123203 0 0.60181501223851219 0.3009075061192561 0 -0.39931775913561601 1 I I #
coedge $-1 $445 $445 $-1 $604 reversed $297 $-1 #
edge $-1 $605 0 $605 6.2831853071796004 $298 $606 forward 7 unknown #
vertex $-1 $301 $607 #
ellipse-curve $-1 41.643237866591178 18.713837326507214 2.7858112748660973 0.79863551827123203 0 0.60181501223851219 0.3009075061192561 0 -0.39931775913561601 1 I I #
face $-1 $-1 $608 $64 $-1 $609 reversed single #
loop $-1 $-1 $308 $302 #
plane-surface $-1 0 0 4.89324067778995 0 0 1 1 0 0 forward_v I I I I #
coedge $-1 $610 $611 $612 $613 reversed $303 $-1 #
coedge $-1 $614 $305 $307 $459 forward $191 $-1 #
coedge $-1 $305 $614 $610 $615 forward $191 $-1 #
coedge $-1 $612 $308 $305 $456 forward $450 $-1 #
edge $-1 $462 -3.7763124298639958 $616 3.0494875311801728 $455 $617 forward 7 unknown #
coedge $-1 $618 $619 $306 $458 forward $608 $-1 #
edge $-1 $620 -25.678054272213501 $461 -21.463195466365843 $457 $621 forward 7 unknown #
edge $-1 $462 -5.2775749505498943 $620 -3.543837884356177e-014 $307 $622 forward 7 unknown #
coedge $-1 $308 $612 $618 $623 forward $450 $-1 #
vertex $-1 $458 $624 #
vertex $-1 $309 $625 #
straight-curve $-1 -56.141701399648937 -4.1397248792059074 4.8932406777899509 1 0 0 I I #
coedge $-1 $464 $464 $-1 $626 reversed $312 $-1 #
edge $-1 $627 0 $627 6.2831853071796004 $313 $628 forward 7 unknown #
vertex $-1 $316 $629 #
ellipse-curve $-1 -41.643237866591178 -2.7745648869970729 2.7858112748661124 -0.79863551827123203 0 0.60181501223851219 0.3009075061192561 0 0.39931775913561601 1 I I #
coedge $-1 $468 $468 $-1 $630 reversed $319 $-1 #
edge $-1 $631 0 $631 6.2831853071796004 $320 $632 forward 7 unknown #
vertex $-1 $323 $633 #
ellipse-curve $-1 -41.643237866591178 -0.72682489868382305 2.7858112748661124 -0.79863551827123203 0 0.60181501223851219 0.3009075061192561 0 0.39931775913561601 1 I I #
coedge $-1 $472 $472 $-1 $634 reversed $326 $-1 #
edge $-1 $635 0 $635 6.2831853071796004 $327 $636 forward 7 unknown #
vertex $-1 $330 $637 #
ellipse-curve $-1 -41.643237866591178 1.3209150896294268 2.7858112748661124 -0.79863551827123203 0 0.60181501223851219 0.3009075061192561 0 0.39931775913561601 1 I I #
face $-1 $-1 $638 $68 $-1 $639 reversed single #
loop $-1 $-1 $640 $331 #
plane-surface $-1 0 20.078997318716052 0 0 -1 0 0 0 -1 forward_v I I I I #
coedge $-1 $641 $334 $336 $485 forward $210 $-1 #
coedge $-1 $334 $641 $640 $642 reversed $210 $-1 #
coedge $-1 $643 $337 $334 $482 forward $332 $-1 #
edge $-1 $488 4.9201486885748995 $644 11.745948649619068 $481 $645 forward 7 unknown #
coedge $-1 $646 $647 $335 $484 forward $638 $-1 #
edge $-1 $648 -25.678054272213501 $487 -21.463195466365843 $483 $649 forward 7 unknown #
edge $-1 $488 -5.2775749505498943 $648 -3.543837884356177e-014 $336 $650 forward 7 unknown #
coedge $-1 $337 $643 $646 $651 forward $332 $-1 #
vertex $-1 $484 $652 #
vertex $-1 $338 $653 #
straight-curve $-1 -56.141701399648937 13.253197357671883 4.8932406777899509 1 0 0 I I #
coedge $-1 $490 $490 $-1 $654 reversed $341 $-1 #
edge $-1 $655 0 $655 6.2831853071796004 $342 $656 forward 7 unknown #
vertex $-1 $345 $657 #
ellipse-curve $-1 -41.643237866591178 14.618357349880721 2.7858112748661124 -0.79863551827123203 0 0.60181501223851219 0.3009075061192561 0 0.39931775913561601 1 I I #
coedge $-1 $494 $494 $-1 $658 reversed $348 $-1 #
edge $-1 $659 0 $659 6.2831853071796004 $349 $660 forward 7 unknown #
vertex $-1 $352 $661 #
ellipse-curve $-1 -41.643237866591178 16.666097338193968 2.7858112748661124 -0.79863551827123203 0 0.60181501223851219 0.3009075061192561 0 0.39931775913561601 1 I I #
coedge $-1 $498 $498 $-1 $662 reversed $355 $-1 #
edge $-1 $663 0 $663 6.2831853071796004 $356 $664 forward 7 unknown #
vertex $-1 $359 $665 #
ellipse-curve $-1 -41.643237866591178 18.713837326507214 2.7858112748661124 -0.79863551827123203 0 0.60181501223851219 0.3009075061192561 0 0.39931775913561601 1 I I #
face $-1 $-1 $375 $54 $-1 $666 reversed single #
loop $-1 $-1 $518 $360 #
plane-surface $-1 0 20.078997318716052 0 0 -1 0 0 0 -1 forward_v I I I I #
coedge $-1 $667 $516 $519 $668 forward $361 $-1 #
coedge $-1 $522 $363 $364 $510 reversed $229 $-1 #
coedge $-1 $516 $667 $363 $508 reversed $361 $-1 #
edge $-1 $523 -4.89324067778995 $669 4.89324067778995 $507 $670 forward 7 unknown #
coedge $-1 $365 $364 $667 $671 forward $145 $-1 #
edge $-1 $514 -43.231299783318583 $669 43.231299783318583 $506 $672 forward 7 unknown #
coedge $-1 $519 $518 $365 $512 reversed $503 $-1 #
edge $-1 $673 -43.231299783318583 $513 43.231299783318583 $511 $674 forward 7 unknown #
vertex $-1 $367 $675 #
vertex $-1 $525 $676 #
straight-curve $-1 43.231299783318583 0 -4.89324067778995 0 -1 0 I I #
coedge $-1 $505 $507 $368 $517 reversed $361 $-1 #
edge $-1 $520 -20.078997318716052 $523 20.078997318716052 $516 $677 forward 7 unknown #
coedge $-1 $511 $369 $374 $526 forward $503 $-1 #
coedge $-1 $369 $511 $505 $668 reversed $503 $-1 #
vertex $-1 $370 $678 #
straight-curve $-1 0 20.078997318716052 4.89324067778995 -1 0 0 I I #
coedge $-1 $371 $506 $373 $525 reversed $229 $-1 #
vertex $-1 $517 $679 #
straight-curve $-1 0 -20.078997318716052 4.89324067778995 1 0 0 I I #
edge $-1 $376 -4.89324067778995 $514 4.89324067778995 $373 $680 forward 7 unknown #
edge $-1 $377 -4.89324067778995 $513 4.89324067778995 $374 $681 forward 7 unknown #
point $-1 43.231299783318583 -20.078997318716052 4.89324067778995 #
point $-1 43.231299783318583 20.078997318716052 4.89324067778995 #
face $-1 $-1 $543 $55 $-1 $682 reversed single #
loop $-1 $-1 $683 $379 #
plane-surface $-1 0 -25.451147482392575 3.39324067778995 0 1 0 0 0 1 forward_v I I I I #
coedge $-1 $684 $382 $391 $547 reversed $237 $-1 #
coedge $-1 $382 $684 $383 $535 reversed $237 $-1 #
coedge $-1 $384 $383 $685 $686 forward $149 $-1 #
edge $-1 $539 20.078997318716052 $687 25.451147482392575 $533 $688 forward 7 unknown #
coedge $-1 $689 $388 $384 $537 reversed $543 $-1 #
edge $-1 $690 -25.451147482392575 $538 -20.078997318716052 $536 $691 forward 7 unknown #
vertex $-1 $389 $692 #
vertex $-1 $535 $693 #
straight-curve $-1 0 -20.078997318716052 4.89324067778995 -1 0 0 I I #
straight-curve $-1 -43.231299783318583 -20.078997318716052 0 0 0 -1 I I #
coedge $-1 $388 $689 $390 $546 reversed $543 $-1 #
loop $-1 $-1 $388 $529 #
straight-curve $-1 43.231299783318583 -20.078997318716052 0 0 0 1 I I #
coedge $-1 $391 $390 $694 $695 forward $380 $-1 #
edge $-1 $392 -2.6860750818382613 $696 2.6860750818382613 $542 $697 forward 7 unknown #
edge $-1 $698 -2.6860750818382613 $393 2.6860750818382613 $532 $699 forward 7 unknown #
point $-1 43.231299783318583 -20.078997318716052 1.89324067778995 #
point $-1 -43.231299783318583 -20.078997318716052 1.89324067778995 #
plane-surface $-1 0 0 4.89324067778995 0 0 1 1 0 0 forward_v I I I I #
coedge $-1 $561 $560 $553 $700 forward $396 $-1 #
coedge $-1 $553 $398 $400 $557 reversed $245 $-1 #
coedge $-1 $398 $552 $551 $700 reversed $245 $-1 #
coedge $-1 $406 $401 $398 $555 forward $407 $-1 #
edge $-1 $558 9.93071975839948 $701 13.106843591854311 $554 $702 forward 7 unknown #
coedge $-1 $400 $399 $561 $703 reversed $153 $-1 #
edge $-1 $704 -86.462599566637138 $558 -81.185024616087276 $552 $705 forward 7 unknown #
vertex $-1 $402 $706 #
straight-curve $-1 40.055175949863745 -0.36341244934191153 4.8932406777899544 0 -1 0 I I #
coedge $-1 $551 $403 $406 $565 reversed $396 $-1 #
coedge $-1 $403 $551 $556 $703 forward $396 $-1 #
vertex $-1 $404 $707 #
straight-curve $-1 43.231299783318583 2.6860750818382613 60.882487652145429 0 0 1 I I #
straight-curve $-1 -8.8031906330507255 2.6860750818382613 69.730484887921534 0.60181501223851219 0 -0.79863551827123203 I I #
edge $-1 $701 -4.1397248792059074 $408 2.6860750818382613 $560 $708 forward 7 unknown #
point $-1 43.231299783318583 2.6860750818382613 4.89324067778995 #
point $-1 40.055175949863752 2.6860750818382613 4.8932406777899473 #
edge $-1 $709 1 $709 0 $411 $-1 forward 7 unknown #
vertex $-1 $412 $710 #
ellipse-curve $-1 40.844602348319931 -2.7745648869970729 2.1839962626275766 0.79863551827123203 0 0.60181501223851219 0.3009075061192561 0 -0.39931775913561601 1 I I #
point $-1 41.944145372710423 -2.7745648869970729 2.3864935157304727 #
edge $-1 $711 1 $711 0 $415 $-1 forward 7 unknown #
vertex $-1 $416 $712 #
ellipse-curve $-1 40.844602348319931 -0.72682489868382305 2.1839962626275766 0.79863551827123203 0 0.60181501223851219 0.3009075061192561 0 -0.39931775913561601 1 I I #
point $-1 41.944145372710423 -0.72682489868382305 2.3864935157304727 #
edge $-1 $713 1 $713 0 $419 $-1 forward 7 unknown #
vertex $-1 $420 $714 #
ellipse-curve $-1 40.844602348319931 1.3209150896294268 2.1839962626275766 0.79863551827123203 0 0.60181501223851219 0.3009075061192561 0 -0.39931775913561601 1 I I #
point $-1 41.944145372710423 1.3209150896294268 2.3864935157304727 #
loop $-1 $-1 $583 $423 #
plane-surface $-1 0 20.078997318716052 0 0 -1 0 0 0 -1 forward_v I I I I #
coedge $-1 $427 $426 $589 $715 reversed $172 $-1 #
coedge $-1 $716 $717 $427 $584 forward $580 $-1 #
edge $-1 $586 -55.969032458468675 $718 -50.691457507918813 $583 $719 forward 7 unknown #
coedge $-1 $433 $428 $717 $720 reversed $274 $-1 #
vertex $-1 $429 $721 #
straight-curve $-1 43.231299783318583 8.3330486690969838 0.67838187194227828 0 1 0 I I #
coedge $-1 $722 $430 $433 $593 forward $424 $-1 #
coedge $-1 $430 $722 $582 $715 forward $424 $-1 #
vertex $-1 $431 $723 #
straight-curve $-1 30.124456191464272 13.253197357671883 4.8932406777899473 1 0 0 I I #
straight-curve $-1 -8.8031906330507255 13.253197357671883 69.730484887921534 -0.60181501223851219 0 0.79863551827123203 I I #
edge $-1 $434 13.253197357671883 $724 20.078997318716052 $433 $725 forward 7 unknown #
point $-1 43.231299783318583 13.253197357671883 4.89324067778995 #
point $-1 43.231299783318583 13.253197357671883 0.67838187194227828 #
edge $-1 $726 1 $726 0 $437 $-1 forward 7 unknown #
vertex $-1 $438 $727 #
ellipse-curve $-1 40.844602348319931 14.618357349880721 2.1839962626275766 0.79863551827123203 0 0.60181501223851219 0.3009075061192561 0 -0.39931775913561601 1 I I #
point $-1 41.944145372710423 14.618357349880721 2.3864935157304727 #
edge $-1 $728 1 $728 0 $441 $-1 forward 7 unknown #
vertex $-1 $442 $729 #
ellipse-curve $-1 40.844602348319931 16.666097338193968 2.1839962626275766 0.79863551827123203 0 0.60181501223851219 0.3009075061192561 0 -0.39931775913561601 1 I I #
point $-1 41.944145372710423 16.666097338193968 2.3864935157304727 #
edge $-1 $730 1 $730 0 $445 $-1 forward 7 unknown #
vertex $-1 $446 $731 #
ellipse-curve $-1 40.844602348319931 18.713837326507214 2.1839962626275766 0.79863551827123203 0 0.60181501223851219 0.3009075061192561 0 -0.39931775913561601 1 I I #
point $-1 41.944145372710423 18.713837326507214 2.3864935157304727 #
loop $-1 $-1 $457 $449 #
plane-surface $-1 -43.231299783318583 0 0 1 0 0 0 0 -1 forward_v I I I I #
coedge $-1 $611 $452 $454 $615 reversed $303 $-1 #
coedge $-1 $452 $610 $732 $733 reversed $303 $-1 #
coedge $-1 $460 $455 $452 $613 forward $450 $-1 #
edge $-1 $616 -16.086525449785185 $734 -12.910401616330354 $612 $735 forward 7 unknown #
coedge $-1 $454 $453 $619 $736 reversed $191 $-1 #
edge $-1 $737 3.543837884356177e-014 $616 5.2775749505498943 $610 $738 forward 7 unknown #
vertex $-1 $456 $739 #
straight-curve $-1 -40.055175949863759 -0.36341244934191153 4.8932406777899509 0 1 0 I I #
coedge $-1 $732 $457 $460 $623 reversed $608 $-1 #
coedge $-1 $457 $732 $614 $736 forward $608 $-1 #
vertex $-1 $458 $740 #
straight-curve $-1 -43.231299783318583 -4.1397248792059074 26.356436144155793 0 0 1 I I #
straight-curve $-1 -43.231299783318605 -4.1397248792059074 0.67838187194226407 -0.60181501223851219 0 -0.79863551827123203 I I #
edge $-1 $734 -2.6860750818382613 $461 4.1397248792059074 $618 $741 forward 7 unknown #
point $-1 -43.231299783318583 -4.1397248792059074 4.89324067778995 #
point $-1 -40.055175949863752 -4.1397248792059074 4.89324067778995 #
edge $-1 $742 1 $742 0 $464 $-1 forward 7 unknown #
vertex $-1 $465 $743 #
ellipse-curve $-1 -40.844602348319924 -2.7745648869970729 2.1839962626275891 -0.79863551827123203 0 0.60181501223851219 0.3009075061192561 0 0.39931775913561601 1 I I #
point $-1 -41.342330360471898 -2.7745648869970729 3.1851290340017169 #
edge $-1 $744 1 $744 0 $468 $-1 forward 7 unknown #
vertex $-1 $469 $745 #
ellipse-curve $-1 -40.844602348319924 -0.72682489868382305 2.1839962626275891 -0.79863551827123203 0 0.60181501223851219 0.3009075061192561 0 0.39931775913561601 1 I I #
point $-1 -41.342330360471898 -0.72682489868382305 3.1851290340017169 #
edge $-1 $746 1 $746 0 $472 $-1 forward 7 unknown #
vertex $-1 $473 $747 #
ellipse-curve $-1 -40.844602348319924 1.3209150896294268 2.1839962626275891 -0.79863551827123203 0 0.60181501223851219 0.3009075061192561 0 0.39931775913561601 1 I I #
point $-1 -41.342330360471898 1.3209150896294268 3.1851290340017169 #
loop $-1 $-1 $483 $476 #
plane-surface $-1 -43.231299783318583 0 0 1 0 0 0 0 -1 forward_v I I I I #
coedge $-1 $748 $749 $480 $642 forward $477 $-1 #
coedge $-1 $480 $479 $647 $750 reversed $210 $-1 #
edge $-1 $644 7.4601577246002329 $751 12.737732675150092 $640 $752 forward 7 unknown #
coedge $-1 $486 $481 $749 $753 forward $332 $-1 #
vertex $-1 $753 $754 #
straight-curve $-1 -40.055175949863759 8.3330486690969838 4.8932406777899509 0 1 0 I I #
coedge $-1 $755 $483 $486 $651 reversed $638 $-1 #
coedge $-1 $483 $755 $641 $750 forward $638 $-1 #
vertex $-1 $484 $756 #
straight-curve $-1 -43.231299783318583 13.253197357671883 26.356436144155793 0 0 1 I I #
straight-curve $-1 -43.231299783318605 13.253197357671883 0.67838187194226407 -0.60181501223851219 0 -0.79863551827123203 I I #
edge $-1 $757 -20.078997318716052 $487 -13.253197357671883 $646 $758 forward 7 unknown #
point $-1 -43.231299783318583 13.253197357671883 4.89324067778995 #
point $-1 -40.055175949863752 13.253197357671883 4.89324067778995 #
edge $-1 $759 1 $759 0 $490 $-1 forward 7 unknown #
vertex $-1 $491 $760 #
ellipse-curve $-1 -40.844602348319924 14.618357349880721 2.1839962626275891 -0.79863551827123203 0 0.60181501223851219 0.3009075061192561 0 0.39931775913561601 1 I I #
point $-1 -41.342330360471898 14.618357349880721 3.1851290340017169 #
edge $-1 $761 1 $761 0 $494 $-1 forward 7 unknown #
vertex $-1 $495 $762 #
ellipse-curve $-1 -40.844602348319924 16.666097338193968 2.1839962626275891 -0.79863551827123203 0 0.60181501223851219 0.3009075061192561 0 0.39931775913561601 1 I I #
point $-1 -41.342330360471898 16.666097338193968 3.1851290340017169 #
edge $-1 $763 1 $763 0 $498 $-1 forward 7 unknown #
vertex $-1 $499 $764 #
ellipse-curve $-1 -40.844602348319924 18.713837326507214 2.1839962626275891 -0.79863551827123203 0 0.60181501223851219 0.3009075061192561 0 0.39931775913561601 1 I I #
point $-1 -41.342330360471898 18.713837326507214 3.1851290340017169 #
plane-surface $-1 43.231299783318583 0 0 -1 0 0 0 0 1 forward_v I I I I #
coedge $-1 $507 $505 $509 $671 reversed $361 $-1 #
edge $-1 $520 -4.89324067778995 $673 4.89324067778995 $519 $765 forward 7 unknown #
vertex $-1 $671 $766 #
straight-curve $-1 -43.231299783318583 -20.078997318716052 0 0 0 -1 I I #
edge $-1 $669 -20.078997318716052 $673 20.078997318716052 $667 $767 forward 7 unknown #
straight-curve $-1 0 -20.078997318716052 -4.89324067778995 -1 0 0 I I #
vertex $-1 $512 $768 #
straight-curve $-1 0 20.078997318716052 -4.89324067778995 1 0 0 I I #
point $-1 43.231299783318583 20.078997318716052 -4.89324067778995 #
point $-1 43.231299783318583 -20.078997318716052 -4.89324067778995 #
straight-curve $-1 -43.231299783318583 0 4.89324067778995 0 -1 0 I I #
point $-1 -43.231299783318583 20.078997318716052 4.89324067778995 #
point $-1 -43.231299783318583 -20.078997318716052 4.89324067778995 #
straight-curve $-1 43.231299783318583 -20.078997318716052 0 0 0 -1 I I #
straight-curve $-1 43.231299783318583 20.078997318716052 0 0 0 -1 I I #
plane-surface $-1 43.231299783318583 0 0 -1 0 0 0 0 1 forward_v I I I I #
coedge $-1 $694 $685 $684 $769 forward $530 $-1 #
coedge $-1 $533 $532 $683 $769 reversed $237 $-1 #
coedge $-1 $683 $770 $534 $686 reversed $530 $-1 #
edge $-1 $687 -43.231299783318583 $690 43.231299783318583 $685 $771 forward 7 unknown #
vertex $-1 $535 $772 #
straight-curve $-1 -43.231299783318583 0 4.89324067778995 0 -1 0 I I #
coedge $-1 $542 $536 $770 $773 forward $543 $-1 #
vertex $-1 $537 $774 #
straight-curve $-1 43.231299783318583 0 4.89324067778995 0 1 0 I I #
point $-1 43.231299783318583 -20.078997318716052 4.89324067778995 #
point $-1 -43.231299783318583 -20.078997318716052 4.89324067778995 #
coedge $-1 $770 $683 $545 $695 reversed $530 $-1 #
edge $-1 $696 -43.231299783318583 $698 43.231299783318583 $694 $775 forward 7 unknown #
vertex $-1 $773 $776 #
straight-curve $-1 43.231299783318583 -22.765072400554313 1.89324067778995 0 -1 0 I I #
vertex $-1 $547 $777 #
straight-curve $-1 -43.231299783318583 -22.765072400554313 1.89324067778995 0 1 0 I I #
edge $-1 $701 55.989246974355481 $704 60.20410578020315 $551 $778 forward 7 unknown #
vertex $-1 $565 $779 #
straight-curve $-1 30.124456191464272 -4.1397248792059074 4.8932406777899473 1 0 0 I I #
edge $-1 $704 -3.7763124298639958 $562 3.0494875311801728 $561 $780 forward 7 unknown #
vertex $-1 $703 $781 #
straight-curve $-1 -8.8031906330507255 -4.1397248792059074 69.730484887921534 -0.60181501223851219 0 0.79863551827123203 I I #
point $-1 40.055175949863752 -4.1397248792059074 4.8932406777899473 #
point $-1 43.231299783318583 2.6860750818382613 0.67838187194227828 #
straight-curve $-1 43.231299783318583 0 4.89324067778995 0 1 0 I I #
vertex $-1 $568 $782 #
point $-1 41.14550985443919 -2.7745648869970729 1.7846785034919606 #
vertex $-1 $572 $783 #
point $-1 41.14550985443919 -0.72682489868382305 1.7846785034919606 #
vertex $-1 $576 $784 #
point $-1 41.14550985443919 1.3209150896294268 1.7846785034919606 #
edge $-1 $718 -11.745948649619068 $590 -4.9201486885748995 $589 $785 forward 7 unknown #
coedge $-1 $717 $583 $722 $786 reversed $580 $-1 #
coedge $-1 $583 $716 $585 $720 forward $580 $-1 #
vertex $-1 $584 $787 #
straight-curve $-1 9.5482958293475644 20.078997318716052 45.377239116550825 -0.60181501223851219 0 0.79863551827123203 I I #
edge $-1 $724 -4.89324067778995 $586 -0.67838187194228627 $585 $788 forward 7 unknown #
point $-1 43.231299783318583 20.078997318716052 0.67838187194228627 #
coedge $-1 $589 $588 $716 $786 forward $424 $-1 #
point $-1 40.055175949863752 13.253197357671883 4.8932406777899473 #
vertex $-1 $593 $789 #
straight-curve $-1 43.231299783318583 0 4.89324067778995 0 1 0 I I #
vertex $-1 $596 $790 #
point $-1 41.14550985443919 14.618357349880721 1.7846785034919606 #
vertex $-1 $600 $791 #
point $-1 41.14550985443919 16.666097338193968 1.7846785034919606 #
vertex $-1 $604 $792 #
point $-1 41.14550985443919 18.713837326507214 1.7846785034919606 #
coedge $-1 $619 $618 $611 $733 forward $608 $-1 #
edge $-1 $734 21.463195466365843 $737 25.678054272213501 $732 $793 forward 7 unknown #
vertex $-1 $623 $794 #
straight-curve $-1 -56.141701399648937 2.6860750818382613 4.8932406777899509 -1 0 0 I I #
edge $-1 $737 -3.0494875311801728 $620 3.7763124298639958 $619 $795 forward 7 unknown #
vertex $-1 $736 $796 #
straight-curve $-1 -43.231299783318605 2.6860750818382613 0.67838187194226407 0.60181501223851219 0 0.79863551827123203 I I #
point $-1 -40.055175949863752 2.6860750818382613 4.89324067778995 #
point $-1 -43.231299783318583 -4.1397248792059074 0.67838187194229238 #
straight-curve $-1 -43.231299783318583 0 4.89324067778995 0 -1 0 I I #
vertex $-1 $626 $797 #
point $-1 -40.543694842200672 -2.7745648869970729 2.5833140217632051 #
vertex $-1 $630 $798 #
point $-1 -40.543694842200672 -0.72682489868382305 2.5833140217632051 #
vertex $-1 $634 $799 #
point $-1 -40.543694842200672 1.3209150896294268 2.5833140217632051 #
coedge $-1 $749 $640 $755 $800 reversed $477 $-1 #
coedge $-1 $640 $748 $643 $753 reversed $477 $-1 #
edge $-1 $751 -11.745948649619068 $648 -4.9201486885748995 $647 $801 forward 7 unknown #
vertex $-1 $642 $802 #
straight-curve $-1 -35.565541037532235 20.078997318716052 10.851187608561194 -0.60181501223851219 0 -0.79863551827123203 I I #
edge $-1 $644 40.055175949863752 $757 43.231299783318583 $749 $803 forward 7 unknown #
point $-1 -40.055175949863752 20.078997318716052 4.89324067778995 #
coedge $-1 $647 $646 $748 $800 forward $638 $-1 #
point $-1 -43.231299783318583 13.253197357671883 0.67838187194229238 #
vertex $-1 $753 $804 #
straight-curve $-1 -43.231299783318583 0 4.89324067778995 0 -1 0 I I #
vertex $-1 $654 $805 #
point $-1 -40.543694842200672 14.618357349880721 2.5833140217632051 #
vertex $-1 $658 $806 #
point $-1 -40.543694842200672 16.666097338193968 2.5833140217632051 #
vertex $-1 $662 $807 #
point $-1 -40.543694842200672 18.713837326507214 2.5833140217632051 #
straight-curve $-1 -43.231299783318583 20.078997318716052 0 0 0 -1 I I #
point $-1 -43.231299783318583 -20.078997318716052 -4.89324067778995 #
straight-curve $-1 -43.231299783318583 0 -4.89324067778995 0 1 0 I I #
point $-1 -43.231299783318583 20.078997318716052 -4.89324067778995 #
edge $-1 $687 -1.5 $698 1.5 $684 $808 forward 7 unknown #
coedge $-1 $685 $694 $689 $773 reversed $530 $-1 #
straight-curve $-1 0 -25.451147482392575 4.89324067778995 1 0 0 I I #
point $-1 -43.231299783318583 -25.451147482392575 4.89324067778995 #
edge $-1 $690 -1.5 $696 1.5 $689 $809 forward 7 unknown #
point $-1 43.231299783318583 -25.451147482392575 4.89324067778995 #
straight-curve $-1 0 -25.451147482392575 1.89324067778995 -1 0 0 I I #
point $-1 43.231299783318583 -25.451147482392575 1.89324067778995 #
point $-1 -43.231299783318583 -25.451147482392575 1.89324067778995 #
straight-curve $-1 43.231299783318583 -4.1397248792059074 60.882487652145429 0 0 -1 I I #
point $-1 43.231299783318583 -4.1397248792059074 4.89324067778995 #
straight-curve $-1 43.231299783318583 -0.36341244934191153 0.67838187194227828 0 1 0 I I #
point $-1 43.231299783318583 -4.1397248792059074 0.67838187194227828 #
point $-1 40.445284589184318 -2.7745648869970729 1.8830887565083203 #
point $-1 40.445284589184318 -0.72682489868382305 1.8830887565083203 #
point $-1 40.445284589184318 1.3209150896294268 1.8830887565083203 #
straight-curve $-1 40.055175949863745 8.3330486690969838 4.8932406777899544 0 -1 0 I I #
edge $-1 $724 -43.231299783318583 $718 -40.055175949863752 $716 $810 forward 7 unknown #
point $-1 40.055175949863752 20.078997318716052 4.8932406777899473 #
straight-curve $-1 43.231299783318583 20.078997318716052 0 0 0 -1 I I #
point $-1 43.231299783318583 20.078997318716052 4.89324067778995 #
point $-1 40.445284589184318 14.618357349880721 1.8830887565083203 #
point $-1 40.445284589184318 16.666097338193968 1.8830887565083203 #
point $-1 40.445284589184318 18.713837326507214 1.8830887565083203 #
straight-curve $-1 -43.231299783318583 2.6860750818382613 26.356436144155793 0 0 -1 I I #
point $-1 -43.231299783318583 2.6860750818382613 4.89324067778995 #
straight-curve $-1 -43.231299783318583 -0.36341244934191153 0.67838187194228916 0 -1 0 I I #
point $-1 -43.231299783318583 2.6860750818382613 0.67838187194229238 #
point $-1 -40.445284589184311 -2.7745648869970729 1.8830887565083327 #
point $-1 -40.445284589184311 -0.72682489868382305 1.8830887565083327 #
point $-1 -40.445284589184311 1.3209150896294268 1.8830887565083327 #
edge $-1 $757 -4.89324067778995 $751 -0.67838187194229238 $748 $811 forward 7 unknown #
straight-curve $-1 -43.231299783318583 8.3330486690969838 0.67838187194228916 0 -1 0 I I #
point $-1 -43.231299783318583 20.078997318716052 0.67838187194229238 #
straight-curve $-1 0 20.078997318716052 4.89324067778995 -1 0 0 I I #
point $-1 -43.231299783318583 20.078997318716052 4.89324067778995 #
point $-1 -40.445284589184311 14.618357349880721 1.8830887565083327 #
point $-1 -40.445284589184311 16.666097338193968 1.8830887565083327 #
point $-1 -40.445284589184311 18.713837326507214 1.8830887565083327 #
straight-curve $-1 -43.231299783318583 -25.451147482392575 3.39324067778995 0 0 -1 I I #
straight-curve $-1 43.231299783318583 -25.451147482392575 3.39324067778995 0 0 -1 I I #
straight-curve $-1 0 20.078997318716052 4.89324067778995 -1 0 0 I I #
straight-curve $-1 -43.231299783318583 20.078997318716052 0 0 0 -1 I I #
End-of-ACIS-data 