500 0 6 0           
7 Unknown 11 ACIS 5.0 NT 24 Thu Mar 25 15:32:50 1999 
-1 9.9999999999999995e-007 1e-010 
body $-1 $6 $-1 $7 #
body $-1 $8 $-1 $9 #
body $-1 $10 $-1 $11 #
body $-1 $12 $-1 $13 #
body $-1 $14 $-1 $15 #
body $-1 $16 $-1 $17 #
lump $-1 $-1 $18 $0 #
transform $-1 1 0 0 0 1 0 0 0 1 59.846797082430498 34.355973749179071 13.73997796551766 1 rotate no_reflect no_shear #
lump $-1 $-1 $19 $1 #
transform $-1 1 0 0 0 1 0 0 0 1 59.846797082430498 34.355973749179071 13.73997796551766 1 rotate no_reflect no_shear #
lump $-1 $-1 $20 $2 #
transform $-1 1 0 0 0 1 0 0 0 1 59.846797082430498 34.355973749179071 13.73997796551766 1 rotate no_reflect no_shear #
lump $-1 $-1 $21 $3 #
transform $-1 1 0 0 0 1 0 0 0 1 59.846797082430498 34.355973749179071 13.73997796551766 1 rotate no_reflect no_shear #
lump $-1 $-1 $22 $4 #
transform $-1 1 0 0 0 1 0 0 0 1 59.846797082430498 34.355973749179071 13.73997796551766 1 rotate no_reflect no_shear #
lump $-1 $-1 $23 $5 #
transform $-1 1 0 0 0 1 0 0 0 1 59.846797082430498 34.355973749179071 13.73997796551766 1 rotate no_reflect no_shear #
shell $-1 $-1 $-1 $24 $-1 $6 #
shell $-1 $-1 $-1 $25 $-1 $8 #
shell $-1 $-1 $-1 $26 $-1 $10 #
shell $-1 $-1 $-1 $27 $-1 $12 #
shell $-1 $-1 $-1 $28 $-1 $14 #
shell $-1 $-1 $-1 $29 $-1 $16 #
face $-1 $30 $31 $18 $-1 $32 forward single #
face $-1 $33 $34 $19 $-1 $35 reversed single #
face $-1 $36 $37 $20 $-1 $38 reversed single #
face $-1 $39 $40 $21 $-1 $41 reversed single #
face $-1 $42 $43 $22 $-1 $44 forward single #
face $-1 $45 $46 $23 $-1 $47 forward single #
face $-1 $48 $49 $18 $-1 $50 reversed single #
loop $-1 $-1 $51 $24 #
plane-surface $-1 0 0 13.73997796551766 0 0 1 1 0 0 forward_v I I I I #
face $-1 $52 $53 $19 $-1 $54 reversed single #
loop $-1 $-1 $55 $25 #
plane-surface $-1 -54.882944378152217 -18.963966203264754 0 0 1 0 0 0 1 forward_v I I I I #
face $-1 $56 $57 $20 $-1 $58 reversed single #
loop $-1 $-1 $59 $26 #
plane-surface $-1 54.882944378152217 -18.963966203264754 0 0 1 0 0 0 1 forward_v I I I I #
face $-1 $60 $61 $21 $-1 $62 reversed single #
loop $-1 $-1 $63 $27 #
plane-surface $-1 -26.175416287845476 -132.40322707118901 75.194036625615354 -1 0 0 0 -0.81915205242281985 0.57357642473473569 forward_v I I I I #
face $-1 $64 $65 $22 $-1 $66 forward single #
loop $-1 $67 $68 $28 #
cone-surface $-1 -43.13518442072295 -29.080976116258135 8.2115928073637612 0 0.81915205242281985 -0.57357642473473569 2 0 0 1 I I 0 1 2 forward I I I I #
face $-1 $69 $70 $23 $-1 $71 forward single #
loop $-1 $72 $73 $29 #
cone-surface $-1 -32.959323540996465 -29.080976116258135 8.2115928073637612 0 0.81915205242281985 -0.57357642473473569 2 0 0 1 I I 0 1 2 forward I I I I #
face $-1 $74 $75 $18 $-1 $76 reversed single #
loop $-1 $-1 $77 $30 #
plane-surface $-1 0 0 -13.73997796551766 0 0 1 1 0 0 forward_v I I I I #
coedge $-1 $78 $79 $80 $81 forward $31 $-1 #
face $-1 $82 $83 $19 $-1 $84 reversed single #
loop $-1 $-1 $85 $33 #
plane-surface $-1 -54.882944378152217 -13.691306791844355 0 0 -1 0 0 0 -1 forward_v I I I I #
coedge $-1 $86 $87 $88 $89 reversed $34 $-1 #
face $-1 $90 $91 $20 $-1 $92 reversed single #
loop $-1 $-1 $93 $36 #
plane-surface $-1 49.919091673873936 -16.327636497554554 0 1 0 0 0 0 -1 forward_v I I I I #
coedge $-1 $94 $95 $96 $97 forward $37 $-1 #
face $-1 $98 $99 $21 $-1 $100 reversed single #
loop $-1 $-1 $101 $39 #
plane-surface $-1 -38.047253980859708 -34.355973749179086 6.5406128208839647 0 -0.81915205242281985 0.57357642473473569 1 0 0 forward_v I I I I #
coedge $-1 $102 $103 $104 $105 reversed $40 $-1 #
face $-1 $-1 $106 $22 $-1 $107 forward single #
loop $-1 $108 $109 $42 #
cone-surface $-1 -43.13518442072295 -25.507351227138297 5.7093137967919745 0 0.81915205242281985 -0.57357642473473569 1 0 0 1 I I -0.70710678118654746 0.70710678118654746 1 forward I I I I #
loop $-1 $-1 $110 $28 #
coedge $-1 $68 $68 $111 $112 reversed $43 $-1 #
face $-1 $-1 $113 $23 $-1 $114 forward single #
loop $-1 $115 $116 $45 #
cone-surface $-1 -32.959323540996465 -25.507351227138297 5.7093137967919745 0 0.81915205242281985 -0.57357642473473569 1 0 0 1 I I -0.70710678118654746 0.70710678118654746 1 forward I I I I #
loop $-1 $-1 $117 $29 #
coedge $-1 $73 $73 $118 $119 reversed $46 $-1 #
face $-1 $120 $121 $18 $-1 $122 reversed single #
loop $-1 $-1 $123 $48 #
plane-surface $-1 0 -34.355973749179071 0 0 1 0 0 0 1 forward_v I I I I #
coedge $-1 $124 $125 $126 $127 forward $49 $-1 #
coedge $-1 $128 $51 $129 $130 forward $31 $-1 #
coedge $-1 $51 $128 $131 $132 forward $31 $-1 #
coedge $-1 $133 $134 $51 $81 reversed $135 $-1 #
edge $-1 $136 -34.355973749179071 $137 34.355973749179071 $80 $138 forward 7 unknown #
face $-1 $139 $140 $19 $-1 $141 reversed single #
loop $-1 $-1 $142 $52 #
plane-surface $-1 -49.919091673873936 -16.327636497554554 0 -1 0 0 0 0 1 forward_v I I I I #
coedge $-1 $143 $144 $145 $146 forward $53 $-1 #
coedge $-1 $147 $55 $148 $149 reversed $34 $-1 #
coedge $-1 $55 $147 $150 $151 reversed $34 $-1 #
coedge $-1 $152 $153 $55 $89 forward $154 $-1 #
edge $-1 $155 -13.73997796551766 $156 13.73997796551766 $88 $157 forward 7 unknown #
face $-1 $158 $159 $20 $-1 $160 reversed single #
loop $-1 $-1 $161 $56 #
plane-surface $-1 54.882944378152217 -13.691306791844355 0 0 -1 0 0 0 -1 forward_v I I I I #
coedge $-1 $162 $163 $164 $165 forward $57 $-1 #
coedge $-1 $166 $59 $167 $168 reversed $37 $-1 #
coedge $-1 $59 $166 $169 $170 reversed $37 $-1 #
coedge $-1 $163 $162 $59 $97 reversed $57 $-1 #
edge $-1 $171 -13.73997796551766 $172 13.73997796551766 $96 $173 forward 7 unknown #
face $-1 $174 $175 $21 $-1 $176 forward single #
loop $-1 $-1 $177 $60 #
plane-surface $-1 -49.919091673873936 -132.40322707118901 75.194036625615354 1 0 0 0 0.81915205242281985 -0.57357642473473569 forward_v I I I I #
coedge $-1 $178 $179 $180 $181 reversed $61 $-1 #
coedge $-1 $103 $63 $182 $183 reversed $40 $-1 #
coedge $-1 $63 $102 $178 $184 reversed $40 $-1 #
coedge $-1 $180 $185 $63 $105 forward $175 $-1 #
edge $-1 $186 31.845639786415433 $187 36.886689378863259 $104 $188 forward 7 unknown #
loop $-1 $-1 $111 $64 #
plane-surface $-1 -38.047253980859708 -34.355973749179086 6.5406128208839647 0 -0.81915205242281985 0.57357642473473569 1 0 0 forward_v I I I I #
loop $-1 $-1 $189 $42 #
coedge $-1 $109 $109 $110 $190 reversed $65 $-1 #
coedge $-1 $110 $110 $109 $190 forward $67 $-1 #
coedge $-1 $111 $111 $68 $112 forward $106 $-1 #
edge $-1 $191 1.4641651332881509e-016 $191 6.2831853071796004 $111 $192 forward 7 unknown #
loop $-1 $-1 $118 $69 #
plane-surface $-1 -38.047253980859708 -34.355973749179086 6.5406128208839647 0 -0.81915205242281985 0.57357642473473569 1 0 0 forward_v I I I I #
loop $-1 $-1 $193 $45 #
coedge $-1 $116 $116 $117 $194 reversed $70 $-1 #
coedge $-1 $117 $117 $116 $194 forward $72 $-1 #
coedge $-1 $118 $118 $73 $119 forward $113 $-1 #
edge $-1 $195 1.4641651332881509e-016 $195 6.2831853071796004 $118 $196 forward 7 unknown #
face $-1 $197 $198 $18 $-1 $199 reversed single #
loop $-1 $-1 $200 $74 #
plane-surface $-1 -59.846797082430498 0 0 1 0 0 0 0 -1 forward_v I I I I #
coedge $-1 $201 $131 $202 $203 forward $75 $-1 #
coedge $-1 $204 $77 $201 $205 forward $49 $-1 #
coedge $-1 $77 $204 $206 $207 forward $49 $-1 #
coedge $-1 $134 $133 $77 $127 reversed $135 $-1 #
edge $-1 $208 -34.355973749179071 $209 34.355973749179071 $126 $210 forward 7 unknown #
coedge $-1 $79 $78 $211 $212 forward $31 $-1 #
coedge $-1 $213 $214 $78 $130 reversed $198 $-1 #
edge $-1 $137 -59.846797082430498 $215 59.846797082430498 $129 $216 forward 7 unknown #
coedge $-1 $123 $217 $79 $132 reversed $75 $-1 #
edge $-1 $218 -59.846797082430498 $136 59.846797082430498 $131 $219 forward 7 unknown #
coedge $-1 $126 $80 $217 $220 forward $135 $-1 #
coedge $-1 $80 $126 $213 $221 reversed $135 $-1 #
loop $-1 $-1 $133 $197 #
vertex $-1 $81 $222 #
vertex $-1 $81 $223 #
straight-curve $-1 59.846797082430498 0 13.73997796551766 0 1 0 I I #
face $-1 $224 $225 $19 $-1 $226 forward single #
loop $-1 $-1 $227 $82 #
plane-surface $-1 0 0 -13.73997796551766 0 0 1 1 0 0 forward_v I I I I #
coedge $-1 $228 $229 $147 $230 forward $83 $-1 #
coedge $-1 $231 $85 $227 $232 reversed $53 $-1 #
coedge $-1 $85 $231 $233 $234 reversed $53 $-1 #
coedge $-1 $229 $228 $85 $146 reversed $83 $-1 #
edge $-1 $235 -13.73997796551766 $236 13.73997796551766 $145 $237 forward 7 unknown #
coedge $-1 $87 $86 $142 $230 reversed $34 $-1 #
coedge $-1 $238 $239 $86 $149 forward $140 $-1 #
edge $-1 $240 22.477619484797827 $155 32.40532489335439 $148 $241 forward 7 unknown #
coedge $-1 $242 $243 $87 $151 forward $225 $-1 #
edge $-1 $156 -32.40532489335439 $244 -22.477619484797827 $150 $245 forward 7 unknown #
coedge $-1 $246 $88 $243 $247 reversed $154 $-1 #
coedge $-1 $88 $246 $238 $248 reversed $154 $-1 #
loop $-1 $-1 $246 $224 #
vertex $-1 $248 $249 #
vertex $-1 $89 $250 #
straight-curve $-1 -59.846797082430498 -18.963966203264754 0 0 0 1 I I #
face $-1 $251 $252 $20 $-1 $253 forward single #
loop $-1 $-1 $167 $90 #
plane-surface $-1 0 0 -13.73997796551766 0 0 1 1 0 0 forward_v I I I I #
coedge $-1 $254 $255 $256 $257 reversed $91 $-1 #
coedge $-1 $96 $93 $258 $259 reversed $57 $-1 #
coedge $-1 $93 $96 $260 $261 reversed $57 $-1 #
coedge $-1 $255 $254 $93 $165 reversed $91 $-1 #
edge $-1 $262 -13.73997796551766 $263 13.73997796551766 $164 $264 forward 7 unknown #
coedge $-1 $95 $94 $265 $266 reversed $37 $-1 #
coedge $-1 $258 $267 $94 $168 forward $159 $-1 #
edge $-1 $268 -32.40532489335439 $172 -22.477619484797827 $167 $269 forward 7 unknown #
coedge $-1 $270 $260 $95 $170 forward $252 $-1 #
edge $-1 $171 22.477619484797827 $271 32.40532489335439 $169 $272 forward 7 unknown #
vertex $-1 $170 $273 #
vertex $-1 $168 $274 #
straight-curve $-1 49.919091673873936 -18.963966203264754 0 0 0 -1 I I #
face $-1 $-1 $275 $21 $-1 $276 reversed single #
loop $-1 $-1 $104 $98 #
plane-surface $-1 0 0 13.73997796551766 0 0 1 1 0 0 forward_v I I I I #
coedge $-1 $277 $278 $279 $280 reversed $99 $-1 #
coedge $-1 $281 $101 $103 $184 forward $61 $-1 #
coedge $-1 $101 $281 $277 $282 forward $61 $-1 #
coedge $-1 $279 $104 $101 $181 forward $175 $-1 #
edge $-1 $187 7.1517892974156219 $283 30.895464683444082 $180 $284 forward 7 unknown #
coedge $-1 $285 $286 $102 $183 forward $275 $-1 #
edge $-1 $287 -31.056405491923691 $186 -23.857040347290017 $182 $288 forward 7 unknown #
edge $-1 $187 -8.7888019365147318 $287 -2.4884734274515653e-014 $103 $289 forward 7 unknown #
coedge $-1 $104 $279 $285 $290 forward $175 $-1 #
vertex $-1 $105 $291 #
vertex $-1 $105 $292 #
straight-curve $-1 -26.175416287845476 -66.201613535594504 13.73997796551766 0 1 0 I I #
coedge $-1 $189 $189 $-1 $293 reversed $108 $-1 #
edge $-1 $294 0 $294 6.2831853071796004 $109 $295 forward 7 unknown #
vertex $-1 $112 $296 #
ellipse-curve $-1 -43.13518442072295 -31.835448952955161 10.14029539320082 0 -0.81915205242281985 0.57357642473473569 2 0 0 1 I I #
coedge $-1 $193 $193 $-1 $297 reversed $115 $-1 #
edge $-1 $298 0 $298 6.2831853071796004 $116 $299 forward 7 unknown #
vertex $-1 $119 $300 #
ellipse-curve $-1 -32.959323540996465 -31.835448952955161 10.14029539320082 0 -0.81915205242281985 0.57357642473473569 2 0 0 1 I I #
face $-1 $-1 $135 $18 $-1 $301 reversed single #
loop $-1 $-1 $213 $120 #
plane-surface $-1 0 34.355973749179071 0 0 -1 0 0 0 -1 forward_v I I I I #
coedge $-1 $302 $211 $214 $303 forward $121 $-1 #
coedge $-1 $217 $123 $124 $205 reversed $75 $-1 #
coedge $-1 $211 $302 $123 $203 reversed $121 $-1 #
edge $-1 $218 -13.73997796551766 $304 13.73997796551766 $202 $305 forward 7 unknown #
coedge $-1 $125 $124 $302 $306 forward $49 $-1 #
edge $-1 $209 -59.846797082430498 $304 59.846797082430498 $201 $307 forward 7 unknown #
coedge $-1 $214 $213 $125 $207 reversed $198 $-1 #
edge $-1 $308 -59.846797082430498 $208 59.846797082430498 $206 $309 forward 7 unknown #
vertex $-1 $127 $310 #
vertex $-1 $220 $311 #
straight-curve $-1 59.846797082430498 0 -13.73997796551766 0 -1 0 I I #
coedge $-1 $200 $202 $128 $212 reversed $121 $-1 #
edge $-1 $215 -34.355973749179071 $218 34.355973749179071 $211 $312 forward 7 unknown #
coedge $-1 $206 $129 $134 $221 forward $198 $-1 #
coedge $-1 $129 $206 $200 $303 reversed $198 $-1 #
vertex $-1 $130 $313 #
straight-curve $-1 0 34.355973749179071 13.73997796551766 -1 0 0 I I #
coedge $-1 $131 $201 $133 $220 reversed $75 $-1 #
vertex $-1 $212 $314 #
straight-curve $-1 0 -34.355973749179071 13.73997796551766 1 0 0 I I #
edge $-1 $136 -13.73997796551766 $209 13.73997796551766 $133 $315 forward 7 unknown #
edge $-1 $137 -13.73997796551766 $208 13.73997796551766 $134 $316 forward 7 unknown #
point $-1 59.846797082430498 -34.355973749179071 13.73997796551766 #
point $-1 59.846797082430498 34.355973749179071 13.73997796551766 #
face $-1 $-1 $154 $19 $-1 $317 reversed single #
loop $-1 $-1 $233 $139 #
plane-surface $-1 0 0 13.73997796551766 0 0 1 1 0 0 forward_v I I I I #
coedge $-1 $239 $238 $143 $232 forward $140 $-1 #
coedge $-1 $145 $142 $239 $318 reversed $83 $-1 #
coedge $-1 $142 $145 $242 $319 reversed $83 $-1 #
edge $-1 $244 -13.73997796551766 $240 13.73997796551766 $142 $320 forward 7 unknown #
coedge $-1 $144 $143 $246 $321 reversed $53 $-1 #
edge $-1 $322 -32.40532489335439 $236 -22.477619484797827 $227 $323 forward 7 unknown #
coedge $-1 $243 $242 $144 $234 forward $225 $-1 #
edge $-1 $235 22.477619484797827 $324 32.40532489335439 $233 $325 forward 7 unknown #
vertex $-1 $234 $326 #
vertex $-1 $232 $327 #
straight-curve $-1 -49.919091673873936 -13.691306791844355 0 0 0 -1 I I #
coedge $-1 $227 $148 $153 $248 forward $140 $-1 #
coedge $-1 $148 $227 $228 $318 forward $140 $-1 #
vertex $-1 $149 $328 #
straight-curve $-1 -27.441472189076109 -18.963966203264754 -13.73997796551766 -1 0 0 I I #
coedge $-1 $233 $150 $229 $319 forward $225 $-1 #
coedge $-1 $150 $233 $152 $247 forward $225 $-1 #
vertex $-1 $151 $329 #
straight-curve $-1 -27.441472189076109 -18.963966203264754 13.73997796551766 1 0 0 I I #
coedge $-1 $153 $152 $231 $321 forward $154 $-1 #
edge $-1 $324 13.691306791844355 $156 18.963966203264754 $152 $330 forward 7 unknown #
edge $-1 $155 -18.963966203264754 $322 -13.691306791844355 $153 $331 forward 7 unknown #
point $-1 -59.846797082430498 -18.963966203264754 -13.73997796551766 #
point $-1 -59.846797082430498 -18.963966203264754 13.73997796551766 #
face $-1 $-1 $332 $20 $-1 $333 reversed single #
loop $-1 $-1 $169 $158 #
plane-surface $-1 0 0 13.73997796551766 0 0 1 1 0 0 forward_v I I I I #
coedge $-1 $164 $161 $334 $335 reversed $91 $-1 #
coedge $-1 $161 $164 $336 $337 reversed $91 $-1 #
coedge $-1 $338 $339 $161 $257 forward $332 $-1 #
edge $-1 $340 -13.73997796551766 $341 13.73997796551766 $256 $342 forward 7 unknown #
coedge $-1 $334 $167 $162 $259 forward $159 $-1 #
edge $-1 $172 -10.800147954487477 $263 -5.5274885430670775 $258 $343 forward 7 unknown #
coedge $-1 $169 $336 $163 $261 forward $252 $-1 #
edge $-1 $262 5.5274885430670775 $171 10.800147954487477 $260 $344 forward 7 unknown #
vertex $-1 $261 $345 #
vertex $-1 $259 $346 #
straight-curve $-1 49.919091673873936 -13.691306791844355 0 0 0 -1 I I #
coedge $-1 $339 $338 $166 $266 forward $332 $-1 #
edge $-1 $271 -13.73997796551766 $268 13.73997796551766 $265 $347 forward 7 unknown #
coedge $-1 $167 $334 $339 $348 forward $159 $-1 #
vertex $-1 $266 $349 #
straight-curve $-1 27.441472189076109 -18.963966203264754 -13.73997796551766 -1 0 0 I I #
coedge $-1 $336 $169 $338 $350 forward $252 $-1 #
vertex $-1 $350 $351 #
straight-curve $-1 27.441472189076109 -18.963966203264754 13.73997796551766 1 0 0 I I #
point $-1 49.919091673873936 -18.963966203264754 13.73997796551766 #
point $-1 49.919091673873936 -18.963966203264754 -13.73997796551766 #
loop $-1 $-1 $182 $174 #
plane-surface $-1 0 -34.355973749179071 0 0 1 0 0 0 1 forward_v I I I I #
coedge $-1 $278 $177 $179 $282 reversed $99 $-1 #
coedge $-1 $177 $277 $352 $353 reversed $99 $-1 #
coedge $-1 $185 $180 $177 $280 forward $175 $-1 #
edge $-1 $283 -36.886689378863259 $354 -31.845639786415433 $279 $355 forward 7 unknown #
coedge $-1 $179 $178 $286 $356 reversed $61 $-1 #
edge $-1 $357 2.4884734274515653e-014 $283 8.7888019365147318 $277 $358 forward 7 unknown #
vertex $-1 $181 $359 #
straight-curve $-1 -19.023626990429854 -29.314924156731244 13.73997796551766 -1 0 0 I I #
coedge $-1 $352 $182 $185 $290 reversed $275 $-1 #
coedge $-1 $182 $352 $281 $356 forward $275 $-1 #
vertex $-1 $183 $360 #
straight-curve $-1 -26.175416287845476 -34.355973749179071 37.597018312807677 0 0 1 I I #
straight-curve $-1 -26.175416287845476 -34.355973749179086 6.5406128208839647 0 -0.57357642473473569 -0.81915205242281985 I I #
edge $-1 $354 -49.919091673873936 $186 -26.175416287845476 $285 $361 forward 7 unknown #
point $-1 -26.175416287845476 -34.355973749179071 13.73997796551766 #
point $-1 -26.175416287845476 -29.314924156731244 13.73997796551766 #
edge $-1 $362 1 $362 0 $189 $-1 forward 7 unknown #
vertex $-1 $190 $363 #
ellipse-curve $-1 -43.13518442072295 -26.326503279561116 6.28289022152671 0 -0.81915205242281985 0.57357642473473569 2 0 0 1 I I #
point $-1 -41.13518442072295 -31.835448952955151 10.140295393200812 #
edge $-1 $364 1 $364 0 $193 $-1 forward 7 unknown #
vertex $-1 $194 $365 #
ellipse-curve $-1 -32.959323540996465 -26.326503279561116 6.28289022152671 0 -0.81915205242281985 0.57357642473473569 2 0 0 1 I I #
point $-1 -30.959323540996465 -31.835448952955151 10.140295393200812 #
plane-surface $-1 59.846797082430498 0 0 -1 0 0 0 0 1 forward_v I I I I #
coedge $-1 $202 $200 $204 $306 reversed $121 $-1 #
edge $-1 $215 -13.73997796551766 $308 13.73997796551766 $214 $366 forward 7 unknown #
vertex $-1 $306 $367 #
straight-curve $-1 -59.846797082430498 -34.355973749179071 0 0 0 -1 I I #
edge $-1 $304 -34.355973749179071 $308 34.355973749179071 $302 $368 forward 7 unknown #
straight-curve $-1 0 -34.355973749179071 -13.73997796551766 -1 0 0 I I #
vertex $-1 $207 $369 #
straight-curve $-1 0 34.355973749179071 -13.73997796551766 1 0 0 I I #
point $-1 59.846797082430498 34.355973749179071 -13.73997796551766 #
point $-1 59.846797082430498 -34.355973749179071 -13.73997796551766 #
straight-curve $-1 -59.846797082430498 0 13.73997796551766 0 -1 0 I I #
point $-1 -59.846797082430498 34.355973749179071 13.73997796551766 #
point $-1 -59.846797082430498 -34.355973749179071 13.73997796551766 #
straight-curve $-1 59.846797082430498 -34.355973749179071 0 0 0 -1 I I #
straight-curve $-1 59.846797082430498 34.355973749179071 0 0 0 -1 I I #
plane-surface $-1 -59.846797082430498 0 0 1 0 0 0 0 -1 forward_v I I I I #
edge $-1 $236 5.5274885430670775 $240 10.800147954487477 $239 $370 forward 7 unknown #
edge $-1 $244 -10.800147954487477 $235 -5.5274885430670775 $242 $371 forward 7 unknown #
straight-curve $-1 -49.919091673873936 -18.963966203264754 0 0 0 -1 I I #
edge $-1 $324 -13.73997796551766 $322 13.73997796551766 $246 $372 forward 7 unknown #
vertex $-1 $321 $373 #
straight-curve $-1 -27.441472189076109 -13.691306791844355 -13.73997796551766 1 0 0 I I #
vertex $-1 $247 $374 #
straight-curve $-1 -27.441472189076109 -13.691306791844355 13.73997796551766 -1 0 0 I I #
point $-1 -49.919091673873936 -13.691306791844355 13.73997796551766 #
point $-1 -49.919091673873936 -13.691306791844355 -13.73997796551766 #
point $-1 -49.919091673873936 -18.963966203264754 -13.73997796551766 #
point $-1 -49.919091673873936 -18.963966203264754 13.73997796551766 #
straight-curve $-1 -59.846797082430498 0 13.73997796551766 0 -1 0 I I #
straight-curve $-1 -59.846797082430498 0 -13.73997796551766 0 1 0 I I #
loop $-1 $-1 $265 $251 #
plane-surface $-1 59.846797082430498 0 0 -1 0 0 0 0 1 forward_v I I I I #
coedge $-1 $267 $258 $254 $335 forward $159 $-1 #
edge $-1 $263 22.477619484797827 $340 32.40532489335439 $334 $375 forward 7 unknown #
coedge $-1 $260 $270 $255 $337 forward $252 $-1 #
edge $-1 $341 -32.40532489335439 $262 -22.477619484797827 $336 $376 forward 7 unknown #
coedge $-1 $265 $256 $270 $350 reversed $332 $-1 #
coedge $-1 $256 $265 $267 $348 reversed $332 $-1 #
vertex $-1 $348 $377 #
vertex $-1 $257 $378 #
straight-curve $-1 59.846797082430498 -13.691306791844355 0 0 0 1 I I #
straight-curve $-1 49.919091673873936 -8.163818248777277 -13.73997796551766 0 1 0 I I #
straight-curve $-1 49.919091673873936 -8.163818248777277 13.73997796551766 0 -1 0 I I #
point $-1 49.919091673873936 -13.691306791844355 13.73997796551766 #
point $-1 49.919091673873936 -13.691306791844355 -13.73997796551766 #
straight-curve $-1 59.846797082430498 -18.963966203264754 0 0 0 -1 I I #
edge $-1 $340 13.691306791844355 $268 18.963966203264754 $339 $379 forward 7 unknown #
point $-1 59.846797082430498 -18.963966203264754 -13.73997796551766 #
edge $-1 $271 -18.963966203264754 $341 -13.691306791844355 $338 $380 forward 7 unknown #
point $-1 59.846797082430498 -18.963966203264754 13.73997796551766 #
coedge $-1 $286 $285 $278 $353 forward $275 $-1 #
edge $-1 $354 23.857040347290017 $357 31.056405491923691 $352 $381 forward 7 unknown #
vertex $-1 $290 $382 #
straight-curve $-1 -49.919091673873936 -66.201613535594504 13.73997796551766 0 -1 0 I I #
edge $-1 $357 -30.895464683444082 $287 -7.1517892974156219 $286 $383 forward 7 unknown #
vertex $-1 $356 $384 #
straight-curve $-1 -49.919091673873936 -34.355973749179086 6.5406128208839647 0 0.57357642473473569 0.81915205242281985 I I #
point $-1 -49.919091673873936 -29.314924156731244 13.73997796551766 #
point $-1 -26.175416287845476 -34.355973749179071 6.5406128208839851 #
straight-curve $-1 0 -34.355973749179071 13.73997796551766 1 0 0 I I #
vertex $-1 $293 $385 #
point $-1 -41.13518442072295 -26.326503279561116 6.28289022152671 #
vertex $-1 $297 $386 #
point $-1 -30.959323540996465 -26.326503279561116 6.28289022152671 #
straight-curve $-1 -59.846797082430498 34.355973749179071 0 0 0 -1 I I #
point $-1 -59.846797082430498 -34.355973749179071 -13.73997796551766 #
straight-curve $-1 -59.846797082430498 0 -13.73997796551766 0 1 0 I I #
point $-1 -59.846797082430498 34.355973749179071 -13.73997796551766 #
straight-curve $-1 -49.919091673873936 -8.163818248777277 -13.73997796551766 0 -1 0 I I #
straight-curve $-1 -49.919091673873936 -8.163818248777277 13.73997796551766 0 1 0 I I #
straight-curve $-1 -59.846797082430498 -13.691306791844355 0 0 0 -1 I I #
point $-1 -59.846797082430498 -13.691306791844355 -13.73997796551766 #
point $-1 -59.846797082430498 -13.691306791844355 13.73997796551766 #
straight-curve $-1 27.441472189076109 -13.691306791844355 -13.73997796551766 1 0 0 I I #
straight-curve $-1 27.441472189076109 -13.691306791844355 13.73997796551766 -1 0 0 I I #
point $-1 59.846797082430498 -13.691306791844355 -13.73997796551766 #
point $-1 59.846797082430498 -13.691306791844355 13.73997796551766 #
straight-curve $-1 59.846797082430498 0 -13.73997796551766 0 -1 0 I I #
straight-curve $-1 59.846797082430498 0 13.73997796551766 0 1 0 I I #
straight-curve $-1 -49.919091673873936 -34.355973749179071 37.597018312807677 0 0 -1 I I #
point $-1 -49.919091673873936 -34.355973749179071 13.73997796551766 #
straight-curve $-1 -19.023626990429854 -34.355973749179071 6.5406128208839878 1 0 0 I I #
point $-1 -49.919091673873936 -34.355973749179071 6.5406128208839851 #
point $-1 -43.13518442072295 -24.688199174715479 5.135737372057239 #
point $-1 -32.959323540996465 -24.688199174715479 5.135737372057239 #
End-of-ACIS-data 