500 0 6 0           
7 Unknown 11 ACIS 5.0 NT 24 Thu Mar 25 16:19:13 1999 
-1 9.9999999999999995e-007 1e-010 
body $-1 $6 $-1 $7 #
body $-1 $8 $-1 $9 #
body $-1 $10 $-1 $11 #
body $-1 $12 $-1 $13 #
body $-1 $14 $-1 $15 #
body $-1 $16 $-1 $17 #
lump $-1 $-1 $18 $0 #
transform $-1 1 0 0 0 1 0 0 0 1 49.270302438428907 29.239797575524179 8.5681253816617495 1 rotate no_reflect no_shear #
lump $-1 $-1 $19 $1 #
transform $-1 1 0 0 0 1 0 0 0 1 49.270302438428907 29.239797575524179 8.5681253816617495 1 rotate no_reflect no_shear #
lump $-1 $-1 $20 $2 #
transform $-1 1 0 0 0 1 0 0 0 1 49.270302438428907 29.239797575524179 8.5681253816617495 1 rotate no_reflect no_shear #
lump $-1 $-1 $21 $3 #
transform $-1 1 0 0 0 1 0 0 0 1 49.270302438428907 29.239797575524179 8.5681253816617495 1 rotate no_reflect no_shear #
lump $-1 $-1 $22 $4 #
transform $-1 1 0 0 0 1 0 0 0 1 49.270302438428907 29.239797575524179 8.5681253816617495 1 rotate no_reflect no_shear #
lump $-1 $-1 $23 $5 #
transform $-1 1 0 0 0 1 0 0 0 1 49.270302438428907 29.239797575524179 8.5681253816617495 1 rotate no_reflect no_shear #
shell $-1 $-1 $-1 $24 $-1 $6 #
shell $-1 $-1 $-1 $25 $-1 $8 #
shell $-1 $-1 $-1 $26 $-1 $10 #
shell $-1 $-1 $-1 $27 $-1 $12 #
shell $-1 $-1 $-1 $28 $-1 $14 #
shell $-1 $-1 $-1 $29 $-1 $16 #
face $-1 $30 $31 $18 $-1 $32 forward single #
face $-1 $33 $34 $19 $-1 $35 forward single #
face $-1 $36 $37 $20 $-1 $38 reversed single #
face $-1 $39 $40 $21 $-1 $41 forward single #
face $-1 $42 $43 $22 $-1 $44 reversed single #
face $-1 $45 $46 $23 $-1 $47 forward single #
face $-1 $48 $49 $18 $-1 $50 reversed single #
loop $-1 $-1 $51 $24 #
plane-surface $-1 0 0 8.5681253816617495 0 0 1 1 0 0 forward_v I I I I #
face $-1 $52 $53 $19 $-1 $54 reversed single #
loop $-1 $-1 $55 $25 #
plane-surface $-1 0 -29.239797575524179 0 0 1 0 0 0 1 forward_v I I I I #
face $-1 $56 $57 $20 $-1 $58 reversed single #
loop $-1 $-1 $59 $26 #
plane-surface $-1 13.201938790419227 18.667494887717101 135.53560297309386 0 1 0 0.50000000669873634 0 0.8660253999169214 forward_v I I I I #
face $-1 $60 $61 $21 $-1 $62 forward single #
loop $-1 $63 $64 $27 #
cone-surface $-1 41.980215221276353 23.953646231620638 3.582815999625141 -0.50000000669873634 0 -0.8660253999169214 1.2990380998753821 0 -0.75000001004810457 1 I I 0 1 1.5 forward I I I I #
face $-1 $65 $66 $22 $-1 $67 reversed single #
loop $-1 $-1 $68 $28 #
plane-surface $-1 -98.54060553695534 18.667494887717101 86.265299874567418 0 1 0 -0.50000000669873634 0 0.8660253999169214 forward_v I I I I #
face $-1 $69 $70 $23 $-1 $71 forward single #
loop $-1 $72 $73 $29 #
cone-surface $-1 -41.980215221276346 23.953646231620638 3.5828159996251321 0.50000000669873634 0 -0.8660253999169214 1.2990380998753821 0 0.75000001004810457 1 I I 0 1 1.5 forward I I I I #
face $-1 $74 $75 $18 $-1 $76 reversed single #
loop $-1 $-1 $77 $30 #
plane-surface $-1 0 0 -8.5681253816617495 0 0 1 1 0 0 forward_v I I I I #
coedge $-1 $78 $79 $80 $81 forward $31 $-1 #
face $-1 $82 $83 $19 $-1 $84 forward single #
loop $-1 $-1 $85 $33 #
plane-surface $-1 -49.270302438428907 0 0 1 0 0 0 0 -1 forward_v I I I I #
coedge $-1 $86 $87 $88 $89 forward $34 $-1 #
face $-1 $90 $91 $20 $-1 $92 forward single #
loop $-1 $-1 $93 $36 #
plane-surface $-1 -36.068364308107213 23.953646231620638 50.196936226557739 0.50000000669873634 0 0.8660253999169214 0.8660253999169214 0 -0.50000000669873634 forward_v I I I I #
coedge $-1 $94 $95 $96 $97 reversed $37 $-1 #
face $-1 $-1 $98 $21 $-1 $99 forward single #
loop $-1 $100 $101 $39 #
cone-surface $-1 40.932854295351298 23.953646231620638 1.768733694466059 -0.50000000669873634 0 -0.8660253999169214 0.64951904993769105 0 -0.37500000502405229 1 I I -0.70710678118654757 0.70710678118654757 0.75 forward I I I I #
loop $-1 $-1 $102 $27 #
coedge $-1 $64 $64 $103 $104 reversed $40 $-1 #
face $-1 $105 $106 $22 $-1 $107 reversed single #
loop $-1 $-1 $108 $42 #
plane-surface $-1 -49.270302438428899 23.953646231620638 0.92663312803129827 -0.50000000669873634 0 0.8660253999169214 0.8660253999169214 0 0.50000000669873634 forward_v I I I I #
coedge $-1 $109 $110 $111 $112 reversed $43 $-1 #
face $-1 $-1 $113 $23 $-1 $114 forward single #
loop $-1 $115 $116 $45 #
cone-surface $-1 -40.932854295351291 23.953646231620638 1.7687336944660501 0.50000000669873634 0 -0.8660253999169214 0.64951904993769105 0 0.37500000502405229 1 I I -0.70710678118654757 0.70710678118654757 0.75 forward I I I I #
loop $-1 $-1 $117 $29 #
coedge $-1 $73 $73 $118 $119 reversed $46 $-1 #
face $-1 $120 $121 $18 $-1 $122 reversed single #
loop $-1 $-1 $123 $48 #
plane-surface $-1 0 -29.239797575524179 0 0 1 0 0 0 1 forward_v I I I I #
coedge $-1 $124 $125 $126 $127 forward $49 $-1 #
coedge $-1 $128 $51 $129 $130 forward $31 $-1 #
coedge $-1 $51 $128 $131 $132 forward $31 $-1 #
coedge $-1 $133 $134 $51 $81 reversed $135 $-1 #
edge $-1 $136 -29.239797575524179 $137 29.239797575524179 $80 $138 forward 7 unknown #
face $-1 $139 $140 $19 $-1 $141 reversed single #
loop $-1 $-1 $142 $52 #
plane-surface $-1 0 -33.533700000176033 -4.5423657800995496 0 0 1 1 0 0 forward_v I I I I #
coedge $-1 $143 $144 $87 $145 forward $53 $-1 #
coedge $-1 $146 $55 $147 $148 reversed $34 $-1 #
coedge $-1 $55 $146 $85 $145 reversed $34 $-1 #
coedge $-1 $149 $142 $55 $89 reversed $83 $-1 #
edge $-1 $150 -49.270302438428907 $151 49.270302438428907 $88 $152 forward 7 unknown #
face $-1 $153 $154 $20 $-1 $155 reversed single #
loop $-1 $-1 $156 $56 #
plane-surface $-1 0 0 8.5681253816617495 0 0 1 1 0 0 forward_v I I I I #
coedge $-1 $157 $158 $159 $160 reversed $57 $-1 #
coedge $-1 $95 $59 $161 $162 reversed $37 $-1 #
coedge $-1 $59 $94 $157 $163 reversed $37 $-1 #
coedge $-1 $159 $164 $59 $97 forward $154 $-1 #
edge $-1 $165 59.199676104885178 $166 66.841168358515631 $96 $167 forward 7 unknown #
loop $-1 $-1 $103 $60 #
plane-surface $-1 -36.068364308107213 23.953646231620638 50.196936226557739 0.50000000669873634 0 0.8660253999169214 0.8660253999169214 0 -0.50000000669873634 forward_v I I I I #
loop $-1 $-1 $168 $39 #
coedge $-1 $101 $101 $102 $169 reversed $61 $-1 #
coedge $-1 $102 $102 $101 $169 forward $63 $-1 #
coedge $-1 $103 $103 $64 $104 forward $98 $-1 #
edge $-1 $170 0 $170 6.2831853071796004 $103 $171 forward 7 unknown #
face $-1 $172 $173 $22 $-1 $174 forward single #
loop $-1 $-1 $175 $65 #
plane-surface $-1 0 29.239797575524179 0 0 -1 0 0 0 -1 forward_v I I I I #
coedge $-1 $176 $177 $178 $179 reversed $66 $-1 #
coedge $-1 $110 $68 $180 $181 reversed $43 $-1 #
coedge $-1 $68 $109 $176 $182 reversed $43 $-1 #
coedge $-1 $178 $183 $68 $112 forward $173 $-1 #
edge $-1 $184 3.3004876343056821e-007 $185 13.235452922551893 $111 $186 forward 7 unknown #
loop $-1 $-1 $118 $69 #
plane-surface $-1 -49.270302438428899 23.953646231620638 0.92663312803129827 -0.50000000669873634 0 0.8660253999169214 0.8660253999169214 0 0.50000000669873634 forward_v I I I I #
loop $-1 $-1 $187 $45 #
coedge $-1 $116 $116 $117 $188 reversed $70 $-1 #
coedge $-1 $117 $117 $116 $188 forward $72 $-1 #
coedge $-1 $118 $118 $73 $119 forward $113 $-1 #
edge $-1 $189 0 $189 6.2831853071796004 $118 $190 forward 7 unknown #
face $-1 $191 $192 $18 $-1 $193 reversed single #
loop $-1 $-1 $194 $74 #
plane-surface $-1 -49.270302438428907 0 0 1 0 0 0 0 -1 forward_v I I I I #
coedge $-1 $195 $131 $196 $197 forward $75 $-1 #
coedge $-1 $198 $77 $195 $199 forward $49 $-1 #
coedge $-1 $77 $198 $200 $201 forward $49 $-1 #
coedge $-1 $134 $133 $77 $127 reversed $135 $-1 #
edge $-1 $202 -29.239797575524179 $203 29.239797575524179 $126 $204 forward 7 unknown #
coedge $-1 $79 $78 $205 $206 forward $31 $-1 #
coedge $-1 $207 $208 $78 $130 reversed $192 $-1 #
edge $-1 $137 -49.270302438428907 $209 49.270302438428907 $129 $210 forward 7 unknown #
coedge $-1 $123 $211 $79 $132 reversed $75 $-1 #
edge $-1 $212 -49.270302438428907 $136 49.270302438428907 $131 $213 forward 7 unknown #
coedge $-1 $126 $80 $211 $214 forward $135 $-1 #
coedge $-1 $80 $126 $207 $215 reversed $135 $-1 #
loop $-1 $-1 $133 $191 #
vertex $-1 $81 $216 #
vertex $-1 $81 $217 #
straight-curve $-1 49.270302438428907 0 8.5681253816617495 0 1 0 I I #
face $-1 $218 $219 $19 $-1 $220 reversed single #
loop $-1 $-1 $221 $82 #
plane-surface $-1 0 -33.533700000176033 -7.9562801255660087 0 0 1 1 0 0 forward_v I I I I #
coedge $-1 $88 $222 $223 $224 forward $83 $-1 #
coedge $-1 $225 $85 $226 $227 reversed $53 $-1 #
coedge $-1 $85 $225 $149 $228 reversed $53 $-1 #
edge $-1 $150 4.5423657800995496 $229 7.9562801255660087 $85 $230 forward 7 unknown #
coedge $-1 $87 $86 $231 $232 forward $34 $-1 #
coedge $-1 $223 $233 $86 $148 forward $234 $-1 #
edge $-1 $235 -7.9562801255660087 $151 -4.5423657800995496 $147 $236 forward 7 unknown #
coedge $-1 $222 $88 $144 $228 forward $83 $-1 #
vertex $-1 $145 $237 #
vertex $-1 $224 $238 #
straight-curve $-1 0 -29.239797575524179 -4.5423657800995496 1 0 0 I I #
face $-1 $-1 $239 $20 $-1 $240 reversed single #
loop $-1 $-1 $96 $90 #
plane-surface $-1 49.270302438428907 0 0 -1 0 0 0 0 1 forward_v I I I I #
coedge $-1 $161 $241 $242 $243 forward $91 $-1 #
coedge $-1 $242 $93 $95 $163 forward $57 $-1 #
coedge $-1 $93 $242 $244 $245 reversed $57 $-1 #
coedge $-1 $246 $96 $93 $160 forward $154 $-1 #
edge $-1 $166 6.6906717719067821 $247 17.26297445971386 $159 $248 forward 7 unknown #
coedge $-1 $249 $156 $94 $162 forward $91 $-1 #
edge $-1 $250 29.433880450716185 $165 42.669333043219297 $161 $251 forward 7 unknown #
edge $-1 $166 -98.540604876857813 $250 -83.257620574350284 $95 $252 forward 7 unknown #
coedge $-1 $96 $246 $249 $253 reversed $154 $-1 #
vertex $-1 $253 $254 #
vertex $-1 $97 $255 #
straight-curve $-1 49.270302438428907 18.667494887717101 67.767801486546929 0 0 -1 I I #
coedge $-1 $168 $168 $-1 $256 reversed $100 $-1 #
edge $-1 $257 0 $257 6.2831853071796004 $101 $258 forward 7 unknown #
vertex $-1 $104 $259 #
ellipse-curve $-1 42.652576142177345 23.953646231620638 4.7473792548465186 0.50000000669873634 0 0.8660253999169214 1.2990380998753821 0 -0.75000001004810457 1 I I #
face $-1 $-1 $260 $22 $-1 $261 reversed single #
loop $-1 $-1 $178 $105 #
plane-surface $-1 0 0 8.5681253816617495 0 0 1 1 0 0 forward_v I I I I #
coedge $-1 $262 $263 $177 $264 forward $106 $-1 #
coedge $-1 $265 $108 $110 $182 forward $66 $-1 #
coedge $-1 $108 $265 $175 $264 reversed $66 $-1 #
coedge $-1 $266 $111 $108 $179 forward $173 $-1 #
edge $-1 $185 6.6906717719067821 $267 17.262974459713856 $178 $268 forward 7 unknown #
coedge $-1 $269 $270 $109 $181 forward $260 $-1 #
edge $-1 $271 -42.206016809252418 $184 -34.564524555621958 $180 $272 forward 7 unknown #
edge $-1 $185 -15.282984302507538 $271 8.2073931920208199e-015 $110 $273 forward 7 unknown #
coedge $-1 $111 $266 $269 $274 forward $173 $-1 #
vertex $-1 $181 $275 #
vertex $-1 $112 $276 #
straight-curve $-1 -49.27030276847767 18.667494887717101 8.5681253816617513 1 0 0 I I #
coedge $-1 $187 $187 $-1 $277 reversed $115 $-1 #
edge $-1 $278 0 $278 6.2831853071796004 $116 $279 forward 7 unknown #
vertex $-1 $119 $280 #
ellipse-curve $-1 -42.652576142177345 23.953646231620638 4.7473792548465203 -0.50000000669873634 0 0.8660253999169214 1.2990380998753821 0 0.75000001004810457 1 I I #
face $-1 $-1 $135 $18 $-1 $281 reversed single #
loop $-1 $-1 $207 $120 #
plane-surface $-1 0 29.239797575524179 0 0 -1 0 0 0 -1 forward_v I I I I #
coedge $-1 $282 $205 $208 $283 forward $121 $-1 #
coedge $-1 $211 $123 $124 $199 reversed $75 $-1 #
coedge $-1 $205 $282 $123 $197 reversed $121 $-1 #
edge $-1 $212 -8.5681253816617495 $284 8.5681253816617495 $196 $285 forward 7 unknown #
coedge $-1 $125 $124 $282 $286 forward $49 $-1 #
edge $-1 $203 -49.270302438428907 $284 49.270302438428907 $195 $287 forward 7 unknown #
coedge $-1 $208 $207 $125 $201 reversed $192 $-1 #
edge $-1 $288 -49.270302438428907 $202 49.270302438428907 $200 $289 forward 7 unknown #
vertex $-1 $127 $290 #
vertex $-1 $214 $291 #
straight-curve $-1 49.270302438428907 0 -8.5681253816617495 0 -1 0 I I #
coedge $-1 $194 $196 $128 $206 reversed $121 $-1 #
edge $-1 $209 -29.239797575524179 $212 29.239797575524179 $205 $292 forward 7 unknown #
coedge $-1 $200 $129 $134 $215 forward $192 $-1 #
coedge $-1 $129 $200 $194 $283 reversed $192 $-1 #
vertex $-1 $130 $293 #
straight-curve $-1 0 29.239797575524179 8.5681253816617495 -1 0 0 I I #
coedge $-1 $131 $195 $133 $214 reversed $75 $-1 #
vertex $-1 $206 $294 #
straight-curve $-1 0 -29.239797575524179 8.5681253816617495 1 0 0 I I #
edge $-1 $136 -8.5681253816617495 $203 8.5681253816617495 $133 $295 forward 7 unknown #
edge $-1 $137 -8.5681253816617495 $202 8.5681253816617495 $134 $296 forward 7 unknown #
point $-1 49.270302438428907 -29.239797575524179 8.5681253816617495 #
point $-1 49.270302438428907 29.239797575524179 8.5681253816617495 #
face $-1 $-1 $234 $19 $-1 $297 reversed single #
loop $-1 $-1 $298 $139 #
plane-surface $-1 0 -37.827602424827887 -6.2493229528327792 0 1 0 0 0 1 forward_v I I I I #
coedge $-1 $299 $231 $233 $300 forward $140 $-1 #
coedge $-1 $142 $149 $301 $302 forward $83 $-1 #
coedge $-1 $303 $147 $142 $224 reversed $234 $-1 #
edge $-1 $304 -4.2939024246518542 $151 4.2939024246518507 $223 $305 forward 7 unknown #
coedge $-1 $144 $143 $298 $306 reversed $53 $-1 #
coedge $-1 $231 $299 $143 $227 forward $140 $-1 #
edge $-1 $307 -4.2939024246518542 $229 4.2939024246518507 $143 $308 forward 7 unknown #
edge $-1 $150 -4.2939024246518507 $309 4.2939024246518542 $144 $310 forward 7 unknown #
vertex $-1 $145 $311 #
straight-curve $-1 -49.270302438428907 -29.239797575524179 0 0 0 -1 I I #
coedge $-1 $221 $226 $146 $232 reversed $140 $-1 #
edge $-1 $235 -49.270302438428907 $229 49.270302438428907 $231 $312 forward 7 unknown #
coedge $-1 $147 $303 $221 $300 reversed $234 $-1 #
loop $-1 $-1 $147 $218 #
vertex $-1 $148 $313 #
straight-curve $-1 49.270302438428907 -29.239797575524179 0 0 0 1 I I #
point $-1 -49.270302438428907 -29.239797575524182 -4.5423657800995496 #
point $-1 49.270302438428907 -29.239797575524182 -4.5423657800995496 #
loop $-1 $-1 $244 $153 #
plane-surface $-1 0 29.239797575524179 0 0 -1 0 0 0 -1 forward_v I I I I #
coedge $-1 $156 $249 $314 $315 forward $91 $-1 #
coedge $-1 $158 $157 $156 $243 reversed $57 $-1 #
edge $-1 $316 -17.262974459713856 $250 -6.6906717719067821 $156 $317 forward 7 unknown #
coedge $-1 $314 $318 $158 $245 forward $239 $-1 #
edge $-1 $247 -70.373310839951472 $316 -55.090326537443957 $244 $319 forward 7 unknown #
coedge $-1 $164 $159 $318 $320 reversed $154 $-1 #
vertex $-1 $160 $321 #
straight-curve $-1 49.270302438428907 11.976823115810319 0.92663312803130538 0 1 0 I I #
coedge $-1 $241 $161 $164 $253 forward $91 $-1 #
vertex $-1 $162 $322 #
straight-curve $-1 6.6009693952096136 18.667494887717101 8.5681253816617513 1 0 0 I I #
straight-curve $-1 -36.068364308107213 18.667494887717101 50.196936226557739 -0.8660253999169214 0 0.50000000669873634 I I #
edge $-1 $165 18.667494887717101 $323 29.239797575524179 $164 $324 forward 7 unknown #
point $-1 49.270302438428907 18.667494887717101 8.5681253816617495 #
point $-1 49.270302438428907 18.667494887717101 0.92663312803129827 #
edge $-1 $325 1 $325 0 $168 $-1 forward 7 unknown #
vertex $-1 $169 $326 #
ellipse-curve $-1 41.307854300375354 23.953646231620638 2.41825274440375 0.50000000669873634 0 0.8660253999169214 1.2990380998753821 0 -0.75000001004810457 1 I I #
point $-1 43.951614242052734 23.953646231620638 3.9973792447984287 #
loop $-1 $-1 $180 $172 #
plane-surface $-1 -49.270302438428907 0 0 1 0 0 0 0 -1 forward_v I I I I #
coedge $-1 $263 $175 $327 $328 reversed $106 $-1 #
coedge $-1 $175 $262 $266 $329 reversed $106 $-1 #
edge $-1 $267 5.8200240990150292 $330 21.103008401522576 $175 $331 forward 7 unknown #
coedge $-1 $177 $176 $270 $332 reversed $66 $-1 #
coedge $-1 $183 $178 $263 $329 forward $173 $-1 #
vertex $-1 $329 $333 #
straight-curve $-1 -36.034849845925777 11.976823115810319 8.5681253816617495 0 1 0 I I #
coedge $-1 $327 $180 $183 $274 reversed $260 $-1 #
coedge $-1 $180 $327 $265 $332 forward $260 $-1 #
vertex $-1 $181 $334 #
straight-curve $-1 -49.270302438428907 18.667494887717101 43.132649937283709 0 0 1 I I #
straight-curve $-1 -49.270302438428899 18.667494887717101 0.92663312803129827 -0.8660253999169214 0 -0.50000000669873634 I I #
edge $-1 $335 -29.239797575524179 $184 -18.667494887717101 $269 $336 forward 7 unknown #
point $-1 -49.270302438428907 18.667494887717101 8.5681253816617495 #
point $-1 -36.034849845925777 18.667494887717101 8.5681253816617495 #
edge $-1 $337 1 $337 0 $187 $-1 forward 7 unknown #
vertex $-1 $188 $338 #
ellipse-curve $-1 -41.30785430037534 23.953646231620638 2.4182527444037412 -0.50000000669873634 0 0.8660253999169214 1.2990380998753821 0 0.75000001004810457 1 I I #
point $-1 -41.353538042301963 23.953646231620638 5.4973792648946294 #
plane-surface $-1 49.270302438428907 0 0 -1 0 0 0 0 1 forward_v I I I I #
coedge $-1 $196 $194 $198 $286 reversed $121 $-1 #
edge $-1 $209 -8.5681253816617495 $288 8.5681253816617495 $208 $339 forward 7 unknown #
vertex $-1 $286 $340 #
straight-curve $-1 -49.270302438428907 -29.239797575524179 0 0 0 -1 I I #
edge $-1 $284 -29.239797575524179 $288 29.239797575524179 $282 $341 forward 7 unknown #
straight-curve $-1 0 -29.239797575524179 -8.5681253816617495 -1 0 0 I I #
vertex $-1 $201 $342 #
straight-curve $-1 0 29.239797575524179 -8.5681253816617495 1 0 0 I I #
point $-1 49.270302438428907 29.239797575524179 -8.5681253816617495 #
point $-1 49.270302438428907 -29.239797575524179 -8.5681253816617495 #
straight-curve $-1 -49.270302438428907 0 8.5681253816617495 0 -1 0 I I #
point $-1 -49.270302438428907 29.239797575524179 8.5681253816617495 #
point $-1 -49.270302438428907 -29.239797575524179 8.5681253816617495 #
straight-curve $-1 49.270302438428907 -29.239797575524179 0 0 0 -1 I I #
straight-curve $-1 49.270302438428907 29.239797575524179 0 0 0 -1 I I #
plane-surface $-1 49.270302438428907 0 0 -1 0 0 0 0 1 forward_v I I I I #
coedge $-1 $343 $301 $225 $306 forward $219 $-1 #
coedge $-1 $226 $221 $343 $344 forward $140 $-1 #
edge $-1 $235 -4.2939024246518507 $345 4.2939024246518542 $233 $346 forward 7 unknown #
coedge $-1 $298 $347 $222 $302 reversed $219 $-1 #
edge $-1 $309 -49.270302438428907 $304 49.270302438428907 $301 $348 forward 7 unknown #
coedge $-1 $233 $223 $347 $349 forward $234 $-1 #
vertex $-1 $224 $350 #
straight-curve $-1 49.270302438428907 -33.533700000176033 -4.5423657800995496 0 1 0 I I #
edge $-1 $309 -1.7069571727332296 $307 1.7069571727332296 $225 $351 forward 7 unknown #
vertex $-1 $227 $352 #
straight-curve $-1 -49.270302438428907 -33.533700000176033 -7.9562801255660087 0 1 0 I I #
vertex $-1 $228 $353 #
straight-curve $-1 -49.270302438428907 -33.533700000176033 -4.5423657800995496 0 -1 0 I I #
point $-1 -49.270302438428907 -29.239797575524182 -7.9562801255660087 #
straight-curve $-1 0 -29.239797575524179 -7.9562801255660087 -1 0 0 I I #
point $-1 49.270302438428907 -29.239797575524182 -7.9562801255660087 #
coedge $-1 $318 $244 $241 $315 reversed $239 $-1 #
edge $-1 $323 -49.270302438428907 $316 -36.034849845925798 $314 $354 forward 7 unknown #
vertex $-1 $245 $355 #
straight-curve $-1 36.034849845925784 11.976823115810319 8.5681253816617549 0 -1 0 I I #
coedge $-1 $244 $314 $246 $320 forward $239 $-1 #
straight-curve $-1 -11.67477222521789 29.239797575524179 36.113289019419298 -0.8660253999169214 0 0.50000000669873634 I I #
edge $-1 $323 -8.5681253816617495 $247 -0.92663312803130338 $246 $356 forward 7 unknown #
point $-1 49.270302438428907 29.239797575524179 0.92663312803130338 #
point $-1 36.034849845925798 18.667494887717101 8.5681253816617513 #
vertex $-1 $253 $357 #
straight-curve $-1 49.270302438428907 0 8.5681253816617495 0 1 0 I I #
vertex $-1 $256 $358 #
point $-1 42.606892400250729 23.953646231620638 1.6682527343556455 #
coedge $-1 $270 $269 $262 $328 forward $260 $-1 #
edge $-1 $335 -8.5681253816617495 $330 -0.92663312803129416 $262 $359 forward 7 unknown #
edge $-1 $267 36.034849845925777 $335 49.270302438428907 $263 $360 forward 7 unknown #
vertex $-1 $264 $361 #
straight-curve $-1 -30.994561148050167 29.239797575524179 11.478137470156073 -0.8660253999169214 0 -0.50000000669873634 I I #
edge $-1 $330 -17.262974459713856 $271 -6.6906717719067821 $270 $362 forward 7 unknown #
point $-1 -36.034849845925777 29.239797575524175 8.5681253816617495 #
point $-1 -49.270302438428907 18.667494887717101 0.92663312803129416 #
vertex $-1 $329 $363 #
straight-curve $-1 -49.270302438428907 0 8.5681253816617495 0 -1 0 I I #
vertex $-1 $277 $364 #
point $-1 -40.008816200499965 23.953646231620638 3.1682527544518457 #
straight-curve $-1 -49.270302438428907 29.239797575524179 0 0 0 -1 I I #
point $-1 -49.270302438428907 -29.239797575524179 -8.5681253816617495 #
straight-curve $-1 -49.270302438428907 0 -8.5681253816617495 0 1 0 I I #
point $-1 -49.270302438428907 29.239797575524179 -8.5681253816617495 #
coedge $-1 $347 $298 $299 $344 reversed $219 $-1 #
edge $-1 $345 -49.270302438428907 $307 49.270302438428907 $343 $365 forward 7 unknown #
vertex $-1 $349 $366 #
straight-curve $-1 49.270302438428907 -33.533700000176033 -7.9562801255660087 0 -1 0 I I #
coedge $-1 $301 $343 $303 $349 reversed $219 $-1 #
straight-curve $-1 0 -37.827602424827887 -4.5423657800995496 1 0 0 I I #
edge $-1 $304 -1.7069571727332296 $345 1.7069571727332296 $303 $367 forward 7 unknown #
point $-1 49.270302438428907 -37.827602424827887 -4.5423657800995496 #
straight-curve $-1 -49.270302438428907 -37.827602424827887 -6.2493229528327792 0 0 -1 I I #
point $-1 -49.270302438428907 -37.827602424827887 -7.9562801255660087 #
point $-1 -49.270302438428907 -37.827602424827887 -4.5423657800995496 #
straight-curve $-1 0 29.239797575524179 8.5681253816617495 -1 0 0 I I #
point $-1 36.034849845925798 29.239797575524175 8.5681253816617513 #
straight-curve $-1 49.270302438428907 29.239797575524179 0 0 0 -1 I I #
point $-1 49.270302438428907 29.239797575524179 8.5681253816617495 #
point $-1 40.557854290327242 23.953646231620638 1.1192146445283679 #
straight-curve $-1 -49.270302438428907 29.239797575524179 0 0 0 -1 I I #
straight-curve $-1 0 29.239797575524179 8.5681253816617495 -1 0 0 I I #
point $-1 -49.270302438428907 29.239797575524175 0.92663312803129416 #
straight-curve $-1 -49.270302438428907 11.976823115810319 0.92663312803129205 0 -1 0 I I #
point $-1 -49.270302438428907 29.239797575524179 8.5681253816617495 #
point $-1 -40.557854290327242 23.953646231620638 1.1192146445283591 #
straight-curve $-1 0 -37.827602424827887 -7.9562801255660087 -1 0 0 I I #
point $-1 49.270302438428907 -37.827602424827887 -7.9562801255660087 #
straight-curve $-1 49.270302438428907 -37.827602424827887 -6.2493229528327792 0 0 -1 I I #
End-of-ACIS-data 