500 0 4 0           
7 Unknown 11 ACIS 5.0 NT 24 Fri Mar 26 02:35:31 1999 
-1 9.9999999999999995e-007 1e-010 
body $-1 $4 $-1 $5 #
body $-1 $6 $-1 $7 #
body $-1 $8 $-1 $9 #
body $-1 $10 $-1 $11 #
lump $-1 $-1 $12 $0 #
transform $-1 1 0 0 0 1 0 0 0 1 62.703329569383826 26.123867731235702 10.581414145405635 1 rotate no_reflect no_shear #
lump $-1 $-1 $13 $1 #
transform $-1 1 0 0 0 1 0 0 0 1 62.703329569383826 26.123867731235702 10.581414145405635 1 rotate no_reflect no_shear #
lump $-1 $-1 $14 $2 #
transform $-1 1 0 0 0 1 0 0 0 1 62.703329569383826 26.123867731235702 10.581414145405635 1 rotate no_reflect no_shear #
lump $-1 $-1 $15 $3 #
transform $-1 1 0 0 0 1 0 0 0 1 62.703329569383826 26.123867731235702 10.581414145405635 1 rotate no_reflect no_shear #
shell $-1 $-1 $-1 $16 $-1 $4 #
shell $-1 $-1 $-1 $17 $-1 $6 #
shell $-1 $-1 $-1 $18 $-1 $8 #
shell $-1 $-1 $-1 $19 $-1 $10 #
face $-1 $20 $21 $12 $-1 $22 forward single #
face $-1 $23 $24 $13 $-1 $25 reversed single #
face $-1 $26 $27 $14 $-1 $28 reversed single #
face $-1 $29 $30 $15 $-1 $31 forward single #
face $-1 $32 $33 $12 $-1 $34 reversed single #
loop $-1 $-1 $35 $16 #
plane-surface $-1 0 0 10.581414145405635 0 0 1 1 0 0 forward_v I I I I #
face $-1 $36 $37 $13 $-1 $38 reversed single #
loop $-1 $-1 $39 $17 #
plane-surface $-1 -58.851694174598201 -20.612051180541027 0 0 -1 0 0 0 -1 forward_v I I I I #
face $-1 $40 $41 $14 $-1 $42 reversed single #
loop $-1 $-1 $43 $18 #
plane-surface $-1 13.716854621795576 -98.0541733017712 108.65444583574359 -1 0 0 0 -0.57357644374324357 0.81915203911291934 forward_v I I I I #
face $-1 $44 $45 $15 $-1 $46 forward single #
loop $-1 $47 $48 $19 #
cone-surface $-1 1.5691623231446528 -20.773179810635167 5.3590508706275264 0 0.57357644374324357 -0.81915203911291934 2 0 0 1 I I 0 1 2 forward I I I I #
face $-1 $49 $50 $12 $-1 $51 reversed single #
loop $-1 $-1 $52 $20 #
plane-surface $-1 0 0 -10.581414145405635 0 0 1 1 0 0 forward_v I I I I #
coedge $-1 $53 $54 $55 $56 forward $21 $-1 #
face $-1 $57 $58 $13 $-1 $59 forward single #
loop $-1 $-1 $60 $23 #
plane-surface $-1 -55.000058779812576 -23.367959455888364 0 -1 0 0 0 0 1 forward_v I I I I #
coedge $-1 $61 $62 $63 $64 forward $24 $-1 #
face $-1 $65 $66 $14 $-1 $67 reversed single #
loop $-1 $-1 $68 $26 #
plane-surface $-1 1.5691623231446528 -26.123867731235705 5.9273252838832349 0 -0.57357644374324357 0.81915203911291934 1 0 0 forward_v I I I I #
coedge $-1 $69 $70 $71 $72 reversed $27 $-1 #
face $-1 $-1 $73 $15 $-1 $74 forward single #
loop $-1 $75 $76 $29 #
cone-surface $-1 1.5691623231446528 -18.172279247852416 1.6445799874977034 0 0.57357644374324357 -0.81915203911291934 1 0 0 1 I I -0.70710678118654746 0.70710678118654746 1 forward I I I I #
loop $-1 $-1 $77 $19 #
coedge $-1 $48 $48 $78 $79 reversed $30 $-1 #
face $-1 $80 $81 $12 $-1 $82 reversed single #
loop $-1 $-1 $83 $32 #
plane-surface $-1 0 -26.123867731235702 0 0 1 0 0 0 1 forward_v I I I I #
coedge $-1 $84 $85 $86 $87 forward $33 $-1 #
coedge $-1 $88 $35 $89 $90 forward $21 $-1 #
coedge $-1 $35 $88 $91 $92 forward $21 $-1 #
coedge $-1 $93 $94 $35 $56 reversed $95 $-1 #
edge $-1 $96 -26.123867731235702 $97 26.123867731235702 $55 $98 forward 7 unknown #
face $-1 $99 $100 $13 $-1 $101 reversed single #
loop $-1 $-1 $102 $36 #
plane-surface $-1 0 0 10.581414145405635 0 0 1 1 0 0 forward_v I I I I #
coedge $-1 $103 $104 $105 $106 reversed $37 $-1 #
coedge $-1 $107 $39 $108 $109 reversed $24 $-1 #
coedge $-1 $39 $107 $110 $111 reversed $24 $-1 #
coedge $-1 $104 $103 $39 $64 reversed $37 $-1 #
edge $-1 $112 -10.581414145405635 $113 10.581414145405635 $63 $114 forward 7 unknown #
face $-1 $115 $116 $14 $-1 $117 forward single #
loop $-1 $-1 $118 $40 #
plane-surface $-1 -10.578529975506271 -98.0541733017712 108.65444583574359 1 0 0 0 0.57357644374324357 -0.81915203911291934 forward_v I I I I #
coedge $-1 $119 $120 $121 $122 reversed $41 $-1 #
coedge $-1 $70 $43 $123 $124 reversed $27 $-1 #
coedge $-1 $43 $69 $119 $125 reversed $27 $-1 #
coedge $-1 $121 $126 $43 $72 forward $116 $-1 #
edge $-1 $127 22.903218919649898 $128 29.549946522771947 $71 $129 forward 7 unknown #
loop $-1 $-1 $78 $44 #
plane-surface $-1 1.5691623231446528 -26.123867731235705 5.9273252838832349 0 -0.57357644374324357 0.81915203911291934 1 0 0 forward_v I I I I #
loop $-1 $-1 $130 $29 #
coedge $-1 $76 $76 $77 $131 reversed $45 $-1 #
coedge $-1 $77 $77 $76 $131 forward $47 $-1 #
coedge $-1 $78 $78 $48 $79 forward $73 $-1 #
edge $-1 $132 -5.8264655033747168e-016 $132 6.2831853071795996 $78 $133 forward 7 unknown #
face $-1 $134 $135 $12 $-1 $136 reversed single #
loop $-1 $-1 $137 $49 #
plane-surface $-1 -62.703329569383826 0 0 1 0 0 0 0 -1 forward_v I I I I #
coedge $-1 $138 $91 $139 $140 forward $50 $-1 #
coedge $-1 $141 $52 $138 $142 forward $33 $-1 #
coedge $-1 $52 $141 $143 $144 forward $33 $-1 #
coedge $-1 $94 $93 $52 $87 reversed $95 $-1 #
edge $-1 $145 -26.123867731235702 $146 26.123867731235702 $86 $147 forward 7 unknown #
coedge $-1 $54 $53 $148 $149 forward $21 $-1 #
coedge $-1 $150 $151 $53 $90 reversed $135 $-1 #
edge $-1 $97 -62.703329569383826 $152 62.703329569383826 $89 $153 forward 7 unknown #
coedge $-1 $83 $154 $54 $92 reversed $50 $-1 #
edge $-1 $155 -62.703329569383826 $96 62.703329569383826 $91 $156 forward 7 unknown #
coedge $-1 $86 $55 $154 $157 forward $95 $-1 #
coedge $-1 $55 $86 $150 $158 reversed $95 $-1 #
loop $-1 $-1 $93 $134 #
vertex $-1 $56 $159 #
vertex $-1 $56 $160 #
straight-curve $-1 62.703329569383826 0 10.581414145405635 0 1 0 I I #
face $-1 $161 $162 $13 $-1 $163 reversed single #
loop $-1 $-1 $164 $57 #
plane-surface $-1 -62.703329569383826 0 0 1 0 0 0 0 -1 forward_v I I I I #
coedge $-1 $110 $165 $104 $166 forward $58 $-1 #
coedge $-1 $63 $60 $167 $168 reversed $37 $-1 #
coedge $-1 $60 $63 $102 $166 reversed $37 $-1 #
coedge $-1 $169 $170 $60 $106 forward $171 $-1 #
edge $-1 $172 -10.581414145405635 $173 10.581414145405635 $105 $174 forward 7 unknown #
coedge $-1 $62 $61 $164 $175 reversed $24 $-1 #
coedge $-1 $167 $176 $61 $109 forward $162 $-1 #
edge $-1 $177 -33.277482482084721 $113 -25.574211692513476 $108 $178 forward 7 unknown #
coedge $-1 $179 $102 $62 $111 forward $58 $-1 #
edge $-1 $112 25.574211692513476 $180 33.277482482084721 $110 $181 forward 7 unknown #
vertex $-1 $111 $182 #
vertex $-1 $109 $183 #
straight-curve $-1 -55.000058779812576 -20.612051180541027 0 0 0 -1 I I #
face $-1 $-1 $184 $14 $-1 $185 reversed single #
loop $-1 $-1 $71 $65 #
plane-surface $-1 0 0 10.581414145405635 0 0 1 1 0 0 forward_v I I I I #
coedge $-1 $186 $187 $188 $189 reversed $66 $-1 #
coedge $-1 $190 $68 $70 $125 forward $41 $-1 #
coedge $-1 $68 $190 $186 $191 forward $41 $-1 #
coedge $-1 $188 $71 $68 $122 forward $116 $-1 #
edge $-1 $128 -12.93227346022325 $192 11.363111137078597 $121 $193 forward 7 unknown #
coedge $-1 $194 $195 $69 $124 forward $184 $-1 #
edge $-1 $196 -48.399897633988559 $127 -43.745808772466162 $123 $197 forward 7 unknown #
edge $-1 $128 -8.1141562075826155 $196 -4.4385273125170671e-015 $70 $198 forward 7 unknown #
coedge $-1 $71 $188 $194 $199 forward $116 $-1 #
vertex $-1 $124 $200 #
vertex $-1 $72 $201 #
straight-curve $-1 13.716854621795576 -49.0270866508856 10.581414145405631 0 1 0 I I #
coedge $-1 $130 $130 $-1 $202 reversed $75 $-1 #
edge $-1 $203 0 $203 6.2831853071796004 $76 $204 forward 7 unknown #
vertex $-1 $79 $205 #
ellipse-curve $-1 1.5691623231446528 -22.800503929674676 8.2543697146444366 0 -0.57357644374324357 0.81915203911291934 2 0 0 1 I I #
face $-1 $-1 $95 $12 $-1 $206 reversed single #
loop $-1 $-1 $150 $80 #
plane-surface $-1 0 26.123867731235702 0 0 -1 0 0 0 -1 forward_v I I I I #
coedge $-1 $207 $148 $151 $208 forward $81 $-1 #
coedge $-1 $154 $83 $84 $142 reversed $50 $-1 #
coedge $-1 $148 $207 $83 $140 reversed $81 $-1 #
edge $-1 $155 -10.581414145405635 $209 10.581414145405635 $139 $210 forward 7 unknown #
coedge $-1 $85 $84 $207 $211 forward $33 $-1 #
edge $-1 $146 -62.703329569383826 $209 62.703329569383826 $138 $212 forward 7 unknown #
coedge $-1 $151 $150 $85 $144 reversed $135 $-1 #
edge $-1 $213 -62.703329569383826 $145 62.703329569383826 $143 $214 forward 7 unknown #
vertex $-1 $87 $215 #
vertex $-1 $157 $216 #
straight-curve $-1 62.703329569383826 0 -10.581414145405635 0 -1 0 I I #
coedge $-1 $137 $139 $88 $149 reversed $81 $-1 #
edge $-1 $152 -26.123867731235702 $155 26.123867731235702 $148 $217 forward 7 unknown #
coedge $-1 $143 $89 $94 $158 forward $135 $-1 #
coedge $-1 $89 $143 $137 $208 reversed $135 $-1 #
vertex $-1 $90 $218 #
straight-curve $-1 0 26.123867731235702 10.581414145405635 -1 0 0 I I #
coedge $-1 $91 $138 $93 $157 reversed $50 $-1 #
vertex $-1 $149 $219 #
straight-curve $-1 0 -26.123867731235702 10.581414145405635 1 0 0 I I #
edge $-1 $96 -10.581414145405635 $146 10.581414145405635 $93 $220 forward 7 unknown #
edge $-1 $97 -10.581414145405635 $145 10.581414145405635 $94 $221 forward 7 unknown #
point $-1 62.703329569383826 -26.123867731235702 10.581414145405635 #
point $-1 62.703329569383826 26.123867731235702 10.581414145405635 #
face $-1 $-1 $171 $13 $-1 $222 reversed single #
loop $-1 $-1 $167 $99 #
plane-surface $-1 0 0 -10.581414145405635 0 0 1 1 0 0 forward_v I I I I #
coedge $-1 $223 $224 $107 $175 forward $100 $-1 #
coedge $-1 $102 $179 $169 $225 forward $58 $-1 #
edge $-1 $173 -14.43988800329152 $112 -8.9280714525968445 $102 $226 forward 7 unknown #
coedge $-1 $227 $108 $103 $168 forward $162 $-1 #
edge $-1 $113 8.9280714525968445 $172 14.43988800329152 $167 $228 forward 7 unknown #
coedge $-1 $229 $105 $165 $225 reversed $171 $-1 #
coedge $-1 $105 $229 $227 $230 reversed $171 $-1 #
loop $-1 $-1 $105 $161 #
vertex $-1 $230 $231 #
vertex $-1 $106 $232 #
straight-curve $-1 -55.000058779812576 -26.123867731235702 0 0 0 1 I I #
edge $-1 $180 -10.581414145405635 $177 10.581414145405635 $164 $233 forward 7 unknown #
coedge $-1 $108 $227 $223 $234 forward $162 $-1 #
vertex $-1 $109 $235 #
straight-curve $-1 -29.4258470872991 -20.612051180541027 -10.581414145405635 1 0 0 I I #
coedge $-1 $165 $110 $224 $236 forward $58 $-1 #
vertex $-1 $236 $237 #
straight-curve $-1 -29.4258470872991 -20.612051180541027 10.581414145405635 -1 0 0 I I #
point $-1 -55.000058779812576 -20.612051180541027 10.581414145405635 #
point $-1 -55.000058779812576 -20.612051180541027 -10.581414145405635 #
loop $-1 $-1 $123 $115 #
plane-surface $-1 0 -26.123867731235702 0 0 1 0 0 0 1 forward_v I I I I #
coedge $-1 $187 $118 $120 $191 reversed $66 $-1 #
coedge $-1 $118 $186 $238 $239 reversed $66 $-1 #
coedge $-1 $126 $121 $118 $189 forward $116 $-1 #
edge $-1 $192 -29.549946522771947 $240 -22.903218919649898 $188 $241 forward 7 unknown #
coedge $-1 $120 $119 $195 $242 reversed $41 $-1 #
edge $-1 $243 4.4385273125170671e-015 $192 8.1141562075826155 $186 $244 forward 7 unknown #
vertex $-1 $122 $245 #
straight-curve $-1 0.78458116157232638 -19.477140128113653 10.581414145405635 -1 0 0 I I #
coedge $-1 $238 $123 $126 $199 reversed $184 $-1 #
coedge $-1 $123 $238 $190 $242 forward $184 $-1 #
vertex $-1 $124 $246 #
straight-curve $-1 13.716854621795576 -26.123867731235705 54.327222917871794 0 0 1 I I #
straight-curve $-1 13.716854621795576 -26.123867731235705 5.9273252838832349 0 -0.81915203911291934 -0.57357644374324357 I I #
edge $-1 $240 -10.578529975506271 $127 13.716854621795576 $194 $247 forward 7 unknown #
point $-1 13.716854621795576 -26.123867731235702 10.581414145405635 #
point $-1 13.716854621795576 -19.477140128113653 10.581414145405635 #
edge $-1 $248 1 $248 0 $130 $-1 forward 7 unknown #
vertex $-1 $131 $249 #
ellipse-curve $-1 1.5691623231446528 -18.745855691595658 2.4637320266106228 0 -0.57357644374324357 0.81915203911291934 2 0 0 1 I I #
point $-1 3.5691623231446528 -22.800503929674672 8.2543697146444295 #
plane-surface $-1 62.703329569383826 0 0 -1 0 0 0 0 1 forward_v I I I I #
coedge $-1 $139 $137 $141 $211 reversed $81 $-1 #
edge $-1 $152 -10.581414145405635 $213 10.581414145405635 $151 $250 forward 7 unknown #
vertex $-1 $211 $251 #
straight-curve $-1 -62.703329569383826 -26.123867731235702 0 0 0 -1 I I #
edge $-1 $209 -26.123867731235702 $213 26.123867731235702 $207 $252 forward 7 unknown #
straight-curve $-1 0 -26.123867731235702 -10.581414145405635 -1 0 0 I I #
vertex $-1 $144 $253 #
straight-curve $-1 0 26.123867731235702 -10.581414145405635 1 0 0 I I #
point $-1 62.703329569383826 26.123867731235702 -10.581414145405635 #
point $-1 62.703329569383826 -26.123867731235702 -10.581414145405635 #
straight-curve $-1 -62.703329569383826 0 10.581414145405635 0 -1 0 I I #
point $-1 -62.703329569383826 26.123867731235702 10.581414145405635 #
point $-1 -62.703329569383826 -26.123867731235702 10.581414145405635 #
straight-curve $-1 62.703329569383826 -26.123867731235702 0 0 0 -1 I I #
straight-curve $-1 62.703329569383826 26.123867731235702 0 0 0 -1 I I #
plane-surface $-1 0 -26.123867731235702 0 0 1 0 0 0 1 forward_v I I I I #
coedge $-1 $254 $164 $176 $234 reversed $100 $-1 #
coedge $-1 $164 $254 $179 $236 reversed $100 $-1 #
edge $-1 $255 -62.703329569383826 $173 -55.000058779812576 $169 $256 forward 7 unknown #
straight-curve $-1 -55.000058779812576 -11.683979727944182 10.581414145405635 0 1 0 I I #
coedge $-1 $176 $167 $170 $230 forward $162 $-1 #
straight-curve $-1 -55.000058779812576 -11.683979727944182 -10.581414145405635 0 -1 0 I I #
coedge $-1 $170 $169 $254 $257 forward $171 $-1 #
edge $-1 $172 55.000058779812576 $258 62.703329569383826 $170 $259 forward 7 unknown #
point $-1 -55.000058779812576 -26.123867731235702 -10.581414145405635 #
point $-1 -55.000058779812576 -26.123867731235702 10.581414145405635 #
straight-curve $-1 -62.703329569383826 -20.612051180541027 0 0 0 -1 I I #
edge $-1 $258 -26.123867731235702 $177 -20.612051180541027 $223 $260 forward 7 unknown #
point $-1 -62.703329569383826 -20.612051180541027 -10.581414145405635 #
edge $-1 $180 20.612051180541027 $255 26.123867731235702 $224 $261 forward 7 unknown #
point $-1 -62.703329569383826 -20.612051180541027 10.581414145405635 #
coedge $-1 $195 $194 $187 $239 forward $184 $-1 #
edge $-1 $240 43.745808772466162 $243 48.399897633988559 $238 $262 forward 7 unknown #
vertex $-1 $199 $263 #
straight-curve $-1 -10.578529975506271 -49.0270866508856 10.581414145405631 0 -1 0 I I #
edge $-1 $243 -11.363111137078597 $196 12.93227346022325 $195 $264 forward 7 unknown #
vertex $-1 $242 $265 #
straight-curve $-1 -10.578529975506271 -26.123867731235705 5.9273252838832349 0 0.81915203911291934 0.57357644374324357 I I #
point $-1 -10.578529975506271 -19.477140128113653 10.581414145405635 #
point $-1 13.716854621795576 -26.123867731235702 5.9273252838832375 #
straight-curve $-1 0 -26.123867731235702 10.581414145405635 1 0 0 I I #
vertex $-1 $202 $266 #
point $-1 3.5691623231446528 -18.745855691595658 2.4637320266106228 #
straight-curve $-1 -62.703329569383826 26.123867731235702 0 0 0 -1 I I #
point $-1 -62.703329569383826 -26.123867731235702 -10.581414145405635 #
straight-curve $-1 -62.703329569383826 0 -10.581414145405635 0 1 0 I I #
point $-1 -62.703329569383826 26.123867731235702 -10.581414145405635 #
coedge $-1 $224 $223 $229 $257 reversed $100 $-1 #
vertex $-1 $236 $267 #
straight-curve $-1 0 -26.123867731235702 10.581414145405635 1 0 0 I I #
edge $-1 $255 -10.581414145405635 $258 10.581414145405635 $254 $268 forward 7 unknown #
vertex $-1 $234 $269 #
straight-curve $-1 0 -26.123867731235702 -10.581414145405635 -1 0 0 I I #
straight-curve $-1 -62.703329569383826 0 -10.581414145405635 0 1 0 I I #
straight-curve $-1 -62.703329569383826 0 10.581414145405635 0 -1 0 I I #
straight-curve $-1 -10.578529975506271 -26.123867731235705 54.327222917871794 0 0 -1 I I #
point $-1 -10.578529975506271 -26.123867731235702 10.581414145405635 #
straight-curve $-1 0.78458116157232638 -26.123867731235702 5.9273252838832393 1 0 0 I I #
point $-1 -10.578529975506271 -26.123867731235702 5.9273252838832375 #
point $-1 1.5691623231446528 -17.598702804109173 0.82542794838478406 #
point $-1 -62.703329569383826 -26.123867731235702 10.581414145405635 #
straight-curve $-1 -62.703329569383826 -26.123867731235702 0 0 0 -1 I I #
point $-1 -62.703329569383826 -26.123867731235702 -10.581414145405635 #
End-of-ACIS-data 