500 0 13 0           
7 Unknown 11 ACIS 5.0 NT 24 Fri Mar 26 15:40:06 1999 
-1 9.9999999999999995e-007 1e-010 
body $-1 $13 $-1 $14 #
body $-1 $15 $-1 $16 #
body $-1 $17 $-1 $18 #
body $-1 $19 $-1 $20 #
body $-1 $21 $-1 $22 #
body $-1 $23 $-1 $24 #
body $-1 $25 $-1 $26 #
body $-1 $27 $-1 $28 #
body $-1 $29 $-1 $30 #
body $-1 $31 $-1 $32 #
body $-1 $33 $-1 $34 #
body $-1 $35 $-1 $36 #
body $-1 $37 $-1 $38 #
lump $-1 $-1 $39 $0 #
transform $-1 1 0 0 0 1 0 0 0 1 49.344767601550338 32.785273796802635 15.939684432572509 1 rotate no_reflect no_shear #
lump $-1 $-1 $40 $1 #
transform $-1 1 0 0 0 1 0 0 0 1 49.344767601550338 32.785273796802635 15.939684432572509 1 rotate no_reflect no_shear #
lump $-1 $-1 $41 $2 #
transform $-1 1 0 0 0 1 0 0 0 1 49.344767601550338 32.785273796802635 15.939684432572509 1 rotate no_reflect no_shear #
lump $-1 $-1 $42 $3 #
transform $-1 1 0 0 0 1 0 0 0 1 49.344767601550338 32.785273796802635 15.939684432572509 1 rotate no_reflect no_shear #
lump $-1 $-1 $43 $4 #
transform $-1 1 0 0 0 1 0 0 0 1 49.344767601550338 32.785273796802635 15.939684432572509 1 rotate no_reflect no_shear #
lump $-1 $-1 $44 $5 #
transform $-1 1 0 0 0 1 0 0 0 1 49.344767601550338 32.785273796802635 15.939684432572509 1 rotate no_reflect no_shear #
lump $-1 $-1 $45 $6 #
transform $-1 1 0 0 0 1 0 0 0 1 49.344767601550338 32.785273796802635 15.939684432572509 1 rotate no_reflect no_shear #
lump $-1 $-1 $46 $7 #
transform $-1 1 0 0 0 1 0 0 0 1 49.344767601550338 32.785273796802635 15.939684432572509 1 rotate no_reflect no_shear #
lump $-1 $-1 $47 $8 #
transform $-1 1 0 0 0 1 0 0 0 1 49.344767601550338 32.785273796802635 15.939684432572509 1 rotate no_reflect no_shear #
lump $-1 $-1 $48 $9 #
transform $-1 1 0 0 0 1 0 0 0 1 49.344767601550338 32.785273796802635 15.939684432572509 1 rotate no_reflect no_shear #
lump $-1 $-1 $49 $10 #
transform $-1 1 0 0 0 1 0 0 0 1 49.344767601550338 32.785273796802635 15.939684432572509 1 rotate no_reflect no_shear #
lump $-1 $-1 $50 $11 #
transform $-1 1 0 0 0 1 0 0 0 1 49.344767601550338 32.785273796802635 15.939684432572509 1 rotate no_reflect no_shear #
lump $-1 $-1 $51 $12 #
transform $-1 1 0 0 0 1 0 0 0 1 49.344767601550338 32.785273796802635 15.939684432572509 1 rotate no_reflect no_shear #
shell $-1 $-1 $-1 $52 $-1 $13 #
shell $-1 $-1 $-1 $53 $-1 $15 #
shell $-1 $-1 $-1 $54 $-1 $17 #
shell $-1 $-1 $-1 $55 $-1 $19 #
shell $-1 $-1 $-1 $56 $-1 $21 #
shell $-1 $-1 $-1 $57 $-1 $23 #
shell $-1 $-1 $-1 $58 $-1 $25 #
shell $-1 $-1 $-1 $59 $-1 $27 #
shell $-1 $-1 $-1 $60 $-1 $29 #
shell $-1 $-1 $-1 $61 $-1 $31 #
shell $-1 $-1 $-1 $62 $-1 $33 #
shell $-1 $-1 $-1 $63 $-1 $35 #
shell $-1 $-1 $-1 $64 $-1 $37 #
face $-1 $65 $66 $39 $-1 $67 reversed single #
face $-1 $68 $69 $40 $-1 $70 forward single #
face $-1 $71 $72 $41 $-1 $73 forward single #
face $-1 $74 $75 $42 $-1 $76 reversed single #
face $-1 $77 $78 $43 $-1 $79 forward single #
face $-1 $80 $81 $44 $-1 $82 reversed single #
face $-1 $83 $84 $45 $-1 $85 forward single #
face $-1 $86 $87 $46 $-1 $88 reversed single #
face $-1 $89 $90 $47 $-1 $91 forward single #
face $-1 $92 $93 $48 $-1 $94 reversed single #
face $-1 $95 $96 $49 $-1 $97 forward single #
face $-1 $98 $99 $50 $-1 $100 reversed single #
face $-1 $101 $102 $51 $-1 $103 forward single #
face $-1 $104 $105 $39 $-1 $106 forward single #
loop $-1 $-1 $107 $52 #
plane-surface $-1 49.344767601550338 0 0 -1 0 0 0 0 1 forward_v I I I I #
face $-1 $108 $109 $40 $-1 $110 reversed single #
loop $-1 $-1 $111 $53 #
plane-surface $-1 -49.344767601550338 0 0 1 0 0 0 0 -1 forward_v I I I I #
face $-1 $112 $113 $41 $-1 $114 reversed single #
loop $-1 $-1 $115 $54 #
plane-surface $-1 49.344767601550338 0 0 -1 0 0 0 0 1 forward_v I I I I #
face $-1 $116 $117 $42 $-1 $118 reversed single #
loop $-1 $-1 $119 $55 #
plane-surface $-1 -36.974945927305477 83.607389319205197 110.13257611185841 1 0 0 0 -0.85716730853699208 -0.51503806187062418 forward_v I I I I #
face $-1 $120 $121 $43 $-1 $122 forward single #
loop $-1 $123 $124 $56 #
cone-surface $-1 -32.127732164932198 27.659082693129172 8.7571038320972097 0 -0.85716730853699208 -0.51503806187062418 2 0 0 1 I I 0 1 2 forward I I I I #
face $-1 $125 $126 $44 $-1 $127 reversed single #
loop $-1 $-1 $128 $57 #
plane-surface $-1 -15.556457817350676 83.607389319205197 110.13257611185841 1 0 0 0 -0.85716730853699208 -0.51503806187062418 forward_v I I I I #
face $-1 $129 $130 $45 $-1 $131 forward single #
loop $-1 $132 $133 $58 #
cone-surface $-1 -10.709244054977397 27.659082693129172 8.7571038320972097 0 -0.85716730853699208 -0.51503806187062418 2 0 0 1 I I 0 1 2 forward I I I I #
face $-1 $134 $135 $46 $-1 $136 reversed single #
loop $-1 $-1 $137 $59 #
plane-surface $-1 5.8620302926041257 83.607389319205197 110.13257611185841 1 0 0 0 -0.85716730853699208 -0.51503806187062418 forward_v I I I I #
face $-1 $138 $139 $47 $-1 $140 forward single #
loop $-1 $141 $142 $60 #
cone-surface $-1 10.709244054977404 27.659082693129172 8.7571038320972097 0 -0.85716730853699208 -0.51503806187062418 2 0 0 1 I I 0 1 2 forward I I I I #
face $-1 $143 $144 $48 $-1 $145 reversed single #
loop $-1 $-1 $146 $61 #
plane-surface $-1 27.280518402558926 83.607389319205197 110.13257611185841 1 0 0 0 -0.85716730853699208 -0.51503806187062418 forward_v I I I I #
face $-1 $147 $148 $49 $-1 $149 forward single #
loop $-1 $150 $151 $62 #
cone-surface $-1 32.127732164932205 27.659082693129172 8.7571038320972097 0 -0.85716730853699208 -0.51503806187062418 2 0 0 1 I I 0 1 2 forward I I I I #
face $-1 $152 $153 $50 $-1 $154 reversed single #
loop $-1 $-1 $155 $63 #
plane-surface $-1 -7.8380807082088033 -90.793527885876273 86.324187070288403 -1 0 0 0 -0.5877852598018023 0.80901698891910034 forward_v I I I I #
face $-1 $156 $157 $51 $-1 $158 forward single #
loop $-1 $159 $160 $64 #
cone-surface $-1 -12.110618254049328 -25.509581985467282 10.154856147288019 0 0.5877852598018023 -0.80901698891910034 1 0 0 1 I I 0 1 1 forward I I I I #
face $-1 $161 $162 $39 $-1 $163 reversed single #
loop $-1 $-1 $164 $65 #
plane-surface $-1 0 0 15.939684432572509 0 0 1 1 0 0 forward_v I I I I #
coedge $-1 $165 $166 $167 $168 reversed $66 $-1 #
face $-1 $169 $170 $40 $-1 $171 forward single #
loop $-1 $-1 $172 $68 #
plane-surface $-1 0 32.785273796802635 0 0 -1 0 0 0 -1 forward_v I I I I #
coedge $-1 $173 $174 $175 $176 forward $69 $-1 #
face $-1 $177 $178 $41 $-1 $179 forward single #
loop $-1 $-1 $180 $71 #
plane-surface $-1 0 -32.785273796802635 0 0 1 0 0 0 1 forward_v I I I I #
coedge $-1 $181 $182 $183 $184 forward $72 $-1 #
face $-1 $185 $186 $42 $-1 $187 reversed single #
loop $-1 $-1 $188 $74 #
plane-surface $-1 -32.127732164932198 -0.98605395160332421 59.30370917394071 0 0.85716730853699208 0.51503806187062418 1 0 0 forward_v I I I I #
coedge $-1 $189 $190 $191 $192 reversed $75 $-1 #
face $-1 $-1 $193 $43 $-1 $194 forward single #
loop $-1 $195 $196 $77 #
cone-surface $-1 -32.127732164932198 25.533521229221435 7.479937699120871 0 -0.85716730853699208 -0.51503806187062418 1 0 0 1 I I -0.70710678118654746 0.70710678118654746 1 forward I I I I #
loop $-1 $-1 $197 $56 #
coedge $-1 $124 $124 $198 $199 reversed $78 $-1 #
face $-1 $200 $201 $44 $-1 $202 reversed single #
loop $-1 $-1 $203 $80 #
plane-surface $-1 -10.709244054977397 -0.98605395160332421 59.30370917394071 0 0.85716730853699208 0.51503806187062418 1 0 0 forward_v I I I I #
coedge $-1 $204 $205 $206 $207 reversed $81 $-1 #
face $-1 $-1 $208 $45 $-1 $209 forward single #
loop $-1 $210 $211 $83 #
cone-surface $-1 -10.709244054977397 25.533521229221435 7.479937699120871 0 -0.85716730853699208 -0.51503806187062418 1 0 0 1 I I -0.70710678118654746 0.70710678118654746 1 forward I I I I #
loop $-1 $-1 $212 $58 #
coedge $-1 $133 $133 $213 $214 reversed $84 $-1 #
face $-1 $215 $216 $46 $-1 $217 reversed single #
loop $-1 $-1 $218 $86 #
plane-surface $-1 10.709244054977404 -0.98605395160332421 59.30370917394071 0 0.85716730853699208 0.51503806187062418 1 0 0 forward_v I I I I #
coedge $-1 $219 $220 $221 $222 reversed $87 $-1 #
face $-1 $-1 $223 $47 $-1 $224 forward single #
loop $-1 $225 $226 $89 #
cone-surface $-1 10.709244054977404 25.533521229221435 7.479937699120871 0 -0.85716730853699208 -0.51503806187062418 1 0 0 1 I I -0.70710678118654746 0.70710678118654746 1 forward I I I I #
loop $-1 $-1 $227 $60 #
coedge $-1 $142 $142 $228 $229 reversed $90 $-1 #
face $-1 $230 $231 $48 $-1 $232 reversed single #
loop $-1 $-1 $233 $92 #
plane-surface $-1 32.127732164932205 -0.98605395160332421 59.30370917394071 0 0.85716730853699208 0.51503806187062418 1 0 0 forward_v I I I I #
coedge $-1 $234 $235 $236 $237 reversed $93 $-1 #
face $-1 $-1 $238 $49 $-1 $239 forward single #
loop $-1 $240 $241 $95 #
cone-surface $-1 32.127732164932205 25.533521229221435 7.479937699120871 0 -0.85716730853699208 -0.51503806187062418 1 0 0 1 I I -0.70710678118654746 0.70710678118654746 1 forward I I I I #
loop $-1 $-1 $242 $62 #
coedge $-1 $151 $151 $243 $244 reversed $96 $-1 #
face $-1 $245 $246 $50 $-1 $247 reversed single #
loop $-1 $-1 $248 $98 #
plane-surface $-1 -12.110618254049335 -32.785273796802628 6.4826764624503426 0 -0.5877852598018023 0.80901698891910034 1 0 0 forward_v I I I I #
coedge $-1 $249 $250 $251 $252 reversed $99 $-1 #
face $-1 $-1 $253 $51 $-1 $254 forward single #
loop $-1 $255 $256 $101 #
cone-surface $-1 -12.110618254049328 -24.448224813108101 8.6940233526050612 0 0.5877852598018023 -0.80901698891910034 0.5 0 0 1 I I -0.70710678118654746 0.70710678118654746 0.5 forward I I I I #
loop $-1 $-1 $257 $64 #
coedge $-1 $160 $160 $258 $259 reversed $102 $-1 #
face $-1 $260 $261 $39 $-1 $262 reversed single #
loop $-1 $-1 $263 $104 #
plane-surface $-1 0 0 -15.939684432572509 0 0 1 1 0 0 forward_v I I I I #
coedge $-1 $264 $265 $165 $266 forward $105 $-1 #
coedge $-1 $267 $107 $164 $266 reversed $66 $-1 #
coedge $-1 $107 $267 $263 $268 reversed $66 $-1 #
coedge $-1 $269 $270 $107 $168 forward $271 $-1 #
edge $-1 $272 -15.939684432572509 $273 15.939684432572509 $107 $274 forward 7 unknown #
face $-1 $275 $276 $40 $-1 $277 reversed single #
loop $-1 $-1 $175 $108 #
plane-surface $-1 -55.529678438672768 0 -3.8787580388675913 0 0 1 1 0 0 forward_v I I I I #
coedge $-1 $278 $279 $174 $280 forward $109 $-1 #
coedge $-1 $281 $111 $282 $283 reversed $69 $-1 #
coedge $-1 $111 $281 $172 $280 reversed $69 $-1 #
coedge $-1 $284 $285 $111 $176 reversed $170 $-1 #
edge $-1 $286 -32.785273796802635 $287 32.785273796802635 $175 $288 forward 7 unknown #
face $-1 $289 $290 $41 $-1 $291 reversed single #
loop $-1 $-1 $292 $112 #
plane-surface $-1 55.529678438672768 0 -3.8787580388675913 0 0 1 1 0 0 forward_v I I I I #
coedge $-1 $293 $294 $182 $295 forward $113 $-1 #
coedge $-1 $296 $115 $297 $298 reversed $72 $-1 #
coedge $-1 $115 $296 $180 $295 reversed $72 $-1 #
coedge $-1 $299 $300 $115 $184 reversed $178 $-1 #
edge $-1 $301 -32.785273796802635 $302 32.785273796802635 $183 $303 forward 7 unknown #
face $-1 $304 $305 $42 $-1 $306 reversed single #
loop $-1 $-1 $307 $116 #
plane-surface $-1 -27.280518402558918 83.607389319205197 110.13257611185841 -1 0 0 0 0.85716730853699208 0.51503806187062418 forward_v I I I I #
coedge $-1 $308 $309 $310 $311 reversed $117 $-1 #
coedge $-1 $190 $119 $312 $313 reversed $75 $-1 #
coedge $-1 $119 $189 $308 $314 reversed $75 $-1 #
coedge $-1 $310 $315 $119 $192 forward $316 $-1 #
edge $-1 $317 9.0184208627999638 $318 16.734014759405369 $191 $319 forward 7 unknown #
loop $-1 $-1 $198 $120 #
plane-surface $-1 -32.127732164932198 -0.98605395160332421 59.30370917394071 0 0.85716730853699208 0.51503806187062418 1 0 0 forward_v I I I I #
loop $-1 $-1 $320 $77 #
coedge $-1 $196 $196 $197 $321 reversed $121 $-1 #
coedge $-1 $197 $197 $196 $321 forward $123 $-1 #
coedge $-1 $198 $198 $124 $199 forward $193 $-1 #
edge $-1 $322 -1.6012576392702874e-016 $322 6.2831853071796004 $198 $323 forward 7 unknown #
face $-1 $324 $325 $44 $-1 $326 forward single #
loop $-1 $-1 $327 $125 #
plane-surface $-1 -5.8620302926041186 83.607389319205197 110.13257611185841 -1 0 0 0 0.85716730853699208 0.51503806187062418 forward_v I I I I #
coedge $-1 $328 $329 $330 $331 reversed $126 $-1 #
coedge $-1 $205 $128 $332 $333 reversed $81 $-1 #
coedge $-1 $128 $204 $328 $334 reversed $81 $-1 #
coedge $-1 $330 $335 $128 $207 forward $325 $-1 #
edge $-1 $336 9.0184208627999638 $337 16.734014759405369 $206 $338 forward 7 unknown #
loop $-1 $-1 $213 $129 #
plane-surface $-1 -10.709244054977397 -0.98605395160332421 59.30370917394071 0 0.85716730853699208 0.51503806187062418 1 0 0 forward_v I I I I #
loop $-1 $-1 $339 $83 #
coedge $-1 $211 $211 $212 $340 reversed $130 $-1 #
coedge $-1 $212 $212 $211 $340 forward $132 $-1 #
coedge $-1 $213 $213 $133 $214 forward $208 $-1 #
edge $-1 $341 -1.6012576392702874e-016 $341 6.2831853071796004 $213 $342 forward 7 unknown #
face $-1 $343 $344 $46 $-1 $345 forward single #
loop $-1 $-1 $346 $134 #
plane-surface $-1 15.556457817350683 83.607389319205197 110.13257611185841 -1 0 0 0 0.85716730853699208 0.51503806187062418 forward_v I I I I #
coedge $-1 $347 $348 $349 $350 reversed $135 $-1 #
coedge $-1 $220 $137 $351 $352 reversed $87 $-1 #
coedge $-1 $137 $219 $347 $353 reversed $87 $-1 #
coedge $-1 $349 $354 $137 $222 forward $344 $-1 #
edge $-1 $355 9.0184208627999638 $356 16.734014759405369 $221 $357 forward 7 unknown #
loop $-1 $-1 $228 $138 #
plane-surface $-1 10.709244054977404 -0.98605395160332421 59.30370917394071 0 0.85716730853699208 0.51503806187062418 1 0 0 forward_v I I I I #
loop $-1 $-1 $358 $89 #
coedge $-1 $226 $226 $227 $359 reversed $139 $-1 #
coedge $-1 $227 $227 $226 $359 forward $141 $-1 #
coedge $-1 $228 $228 $142 $229 forward $223 $-1 #
edge $-1 $360 -1.6012576392702874e-016 $360 6.2831853071796004 $228 $361 forward 7 unknown #
face $-1 $362 $363 $48 $-1 $364 forward single #
loop $-1 $-1 $365 $143 #
plane-surface $-1 36.974945927305484 83.607389319205197 110.13257611185841 -1 0 0 0 0.85716730853699208 0.51503806187062418 forward_v I I I I #
coedge $-1 $366 $367 $368 $369 reversed $144 $-1 #
coedge $-1 $235 $146 $370 $371 reversed $93 $-1 #
coedge $-1 $146 $234 $366 $372 reversed $93 $-1 #
coedge $-1 $368 $373 $146 $237 forward $363 $-1 #
edge $-1 $374 9.0184208627999638 $375 16.734014759405369 $236 $376 forward 7 unknown #
loop $-1 $-1 $243 $147 #
plane-surface $-1 32.127732164932205 -0.98605395160332421 59.30370917394071 0 0.85716730853699208 0.51503806187062418 1 0 0 forward_v I I I I #
loop $-1 $-1 $377 $95 #
coedge $-1 $241 $241 $242 $378 reversed $148 $-1 #
coedge $-1 $242 $242 $241 $378 forward $150 $-1 #
coedge $-1 $243 $243 $151 $244 forward $238 $-1 #
edge $-1 $379 -1.6012576392702874e-016 $379 6.2831853071796004 $243 $380 forward 7 unknown #
face $-1 $381 $382 $50 $-1 $383 forward single #
loop $-1 $-1 $384 $152 #
plane-surface $-1 -16.383155799889867 -90.793527885876273 86.324187070288403 1 0 0 0 0.5877852598018023 -0.80901698891910034 forward_v I I I I #
coedge $-1 $385 $386 $387 $388 reversed $153 $-1 #
coedge $-1 $250 $155 $389 $390 reversed $99 $-1 #
coedge $-1 $155 $249 $385 $391 reversed $99 $-1 #
coedge $-1 $387 $392 $155 $252 forward $382 $-1 #
edge $-1 $393 12.611490146135502 $394 25.627944683889652 $251 $395 forward 7 unknown #
loop $-1 $-1 $258 $156 #
plane-surface $-1 -12.110618254049335 -32.785273796802628 6.4826764624503426 0 -0.5877852598018023 0.80901698891910034 1 0 0 forward_v I I I I #
loop $-1 $-1 $396 $101 #
coedge $-1 $256 $256 $257 $397 reversed $157 $-1 #
coedge $-1 $257 $257 $256 $397 forward $159 $-1 #
coedge $-1 $258 $258 $160 $259 forward $253 $-1 #
edge $-1 $398 1.0441163663475846e-015 $398 6.2831853071796013 $258 $399 forward 7 unknown #
face $-1 $400 $401 $39 $-1 $402 reversed single #
loop $-1 $-1 $403 $161 #
plane-surface $-1 0 -32.785273796802635 0 0 1 0 0 0 1 forward_v I I I I #
coedge $-1 $404 $405 $166 $268 forward $162 $-1 #
coedge $-1 $406 $164 $270 $407 forward $105 $-1 #
coedge $-1 $164 $406 $408 $409 forward $105 $-1 #
edge $-1 $410 -32.785273796802635 $272 32.785273796802635 $165 $411 forward 7 unknown #
coedge $-1 $166 $165 $412 $413 forward $66 $-1 #
edge $-1 $273 -32.785273796802635 $414 32.785273796802635 $166 $415 forward 7 unknown #
coedge $-1 $416 $167 $405 $417 reversed $271 $-1 #
coedge $-1 $167 $416 $264 $407 reversed $271 $-1 #
loop $-1 $-1 $167 $400 #
vertex $-1 $266 $418 #
vertex $-1 $268 $419 #
straight-curve $-1 49.344767601550338 32.785273796802635 0 0 0 -1 I I #
face $-1 $420 $421 $40 $-1 $422 reversed single #
loop $-1 $-1 $423 $169 #
plane-surface $-1 -55.529678438672768 0 -11.664671464481657 0 0 1 1 0 0 forward_v I I I I #
coedge $-1 $424 $172 $425 $426 reversed $109 $-1 #
coedge $-1 $172 $424 $284 $427 reversed $109 $-1 #
edge $-1 $286 3.8787580388675913 $428 11.664671464481657 $172 $429 forward 7 unknown #
coedge $-1 $174 $173 $423 $430 forward $69 $-1 #
coedge $-1 $431 $432 $173 $283 forward $433 $-1 #
edge $-1 $434 -11.664671464481657 $287 -3.8787580388675913 $282 $435 forward 7 unknown #
coedge $-1 $436 $175 $279 $427 forward $170 $-1 #
coedge $-1 $175 $436 $431 $437 forward $170 $-1 #
vertex $-1 $280 $438 #
vertex $-1 $437 $439 #
straight-curve $-1 -49.344767601550338 0 -3.8787580388675913 0 -1 0 I I #
face $-1 $440 $441 $41 $-1 $442 reversed single #
loop $-1 $-1 $443 $177 #
plane-surface $-1 55.529678438672768 0 -11.664671464481657 0 0 1 1 0 0 forward_v I I I I #
coedge $-1 $300 $299 $444 $445 forward $178 $-1 #
coedge $-1 $446 $180 $447 $448 reversed $113 $-1 #
coedge $-1 $180 $446 $299 $449 reversed $113 $-1 #
edge $-1 $301 3.8787580388675913 $450 11.664671464481657 $180 $451 forward 7 unknown #
coedge $-1 $182 $181 $452 $453 forward $72 $-1 #
coedge $-1 $454 $455 $181 $298 forward $456 $-1 #
edge $-1 $457 -11.664671464481657 $302 -3.8787580388675913 $297 $458 forward 7 unknown #
coedge $-1 $292 $183 $294 $449 forward $178 $-1 #
coedge $-1 $183 $292 $454 $459 forward $178 $-1 #
vertex $-1 $295 $460 #
vertex $-1 $459 $461 #
straight-curve $-1 49.344767601550338 0 -3.8787580388675913 0 1 0 I I #
face $-1 $-1 $316 $42 $-1 $462 forward single #
loop $-1 $-1 $463 $185 #
plane-surface $-1 0 32.785273796802635 0 0 -1 0 0 0 -1 forward_v I I I I #
coedge $-1 $464 $465 $466 $467 reversed $186 $-1 #
coedge $-1 $468 $188 $190 $314 forward $117 $-1 #
coedge $-1 $188 $468 $464 $469 forward $117 $-1 #
coedge $-1 $466 $191 $188 $311 forward $316 $-1 #
edge $-1 $318 -20.911079844839378 $470 -11.21665232009282 $310 $471 forward 7 unknown #
coedge $-1 $472 $473 $189 $313 forward $305 $-1 #
edge $-1 $474 -51.967508682095826 $317 -39.126603623356701 $312 $475 forward 7 unknown #
edge $-1 $318 50.589919038538298 $474 65.570547593605241 $190 $476 forward 7 unknown #
coedge $-1 $191 $466 $472 $477 forward $316 $-1 #
loop $-1 $-1 $466 $304 #
vertex $-1 $313 $478 #
vertex $-1 $192 $479 #
straight-curve $-1 -36.974945927305477 41.803694659602598 15.939684432572506 0 -1 0 I I #
coedge $-1 $320 $320 $-1 $480 reversed $195 $-1 #
edge $-1 $481 0 $481 6.2831853071796004 $196 $482 forward 7 unknown #
vertex $-1 $199 $483 #
ellipse-curve $-1 -32.127732164932198 28.927476848499936 9.5192319032029378 0 0.85716730853699208 0.51503806187062418 2 0 0 1 I I #
face $-1 $-1 $484 $44 $-1 $485 reversed single #
loop $-1 $-1 $206 $200 #
plane-surface $-1 0 0 15.939684432572509 0 0 1 1 0 0 forward_v I I I I #
coedge $-1 $486 $487 $488 $489 reversed $201 $-1 #
coedge $-1 $490 $203 $205 $334 forward $126 $-1 #
coedge $-1 $203 $490 $486 $491 forward $126 $-1 #
coedge $-1 $488 $206 $203 $331 forward $325 $-1 #
edge $-1 $337 -10.201835789861978 $492 -0.50740826511542014 $330 $493 forward 7 unknown #
coedge $-1 $494 $495 $204 $333 forward $484 $-1 #
edge $-1 $496 -51.967508682095826 $336 -39.126603623356701 $332 $497 forward 7 unknown #
edge $-1 $337 50.589919038538298 $496 65.570547593605241 $205 $498 forward 7 unknown #
coedge $-1 $206 $488 $494 $499 forward $325 $-1 #
vertex $-1 $207 $500 #
vertex $-1 $207 $501 #
straight-curve $-1 -15.556457817350676 41.803694659602598 15.939684432572506 0 -1 0 I I #
coedge $-1 $339 $339 $-1 $502 reversed $210 $-1 #
edge $-1 $503 0 $503 6.2831853071796004 $211 $504 forward 7 unknown #
vertex $-1 $214 $505 #
ellipse-curve $-1 -10.709244054977397 28.927476848499936 9.5192319032029378 0 0.85716730853699208 0.51503806187062418 2 0 0 1 I I #
face $-1 $-1 $506 $46 $-1 $507 reversed single #
loop $-1 $-1 $221 $215 #
plane-surface $-1 0 0 15.939684432572509 0 0 1 1 0 0 forward_v I I I I #
coedge $-1 $508 $509 $510 $511 reversed $216 $-1 #
coedge $-1 $512 $218 $220 $353 forward $135 $-1 #
coedge $-1 $218 $512 $508 $513 forward $135 $-1 #
coedge $-1 $510 $221 $218 $350 forward $344 $-1 #
edge $-1 $356 0.5074082651154237 $514 10.201835789861981 $349 $515 forward 7 unknown #
coedge $-1 $516 $517 $219 $352 forward $506 $-1 #
edge $-1 $518 -51.967508682095826 $355 -39.126603623356701 $351 $519 forward 7 unknown #
edge $-1 $356 50.589919038538298 $518 65.570547593605241 $220 $520 forward 7 unknown #
coedge $-1 $221 $510 $516 $521 forward $344 $-1 #
vertex $-1 $222 $522 #
vertex $-1 $222 $523 #
straight-curve $-1 5.8620302926041257 41.803694659602598 15.939684432572506 0 -1 0 I I #
coedge $-1 $358 $358 $-1 $524 reversed $225 $-1 #
edge $-1 $525 0 $525 6.2831853071796004 $226 $526 forward 7 unknown #
vertex $-1 $229 $527 #
ellipse-curve $-1 10.709244054977404 28.927476848499936 9.5192319032029378 0 0.85716730853699208 0.51503806187062418 2 0 0 1 I I #
face $-1 $-1 $528 $48 $-1 $529 reversed single #
loop $-1 $-1 $236 $230 #
plane-surface $-1 0 0 15.939684432572509 0 0 1 1 0 0 forward_v I I I I #
coedge $-1 $530 $531 $532 $533 reversed $231 $-1 #
coedge $-1 $534 $233 $235 $372 forward $144 $-1 #
coedge $-1 $233 $534 $530 $535 forward $144 $-1 #
coedge $-1 $532 $236 $233 $369 forward $363 $-1 #
edge $-1 $375 11.216652320092823 $536 20.911079844839382 $368 $537 forward 7 unknown #
coedge $-1 $538 $539 $234 $371 forward $528 $-1 #
edge $-1 $540 -51.967508682095826 $374 -39.126603623356701 $370 $541 forward 7 unknown #
edge $-1 $375 50.589919038538298 $540 65.570547593605241 $235 $542 forward 7 unknown #
coedge $-1 $236 $532 $538 $543 forward $363 $-1 #
vertex $-1 $237 $544 #
vertex $-1 $237 $545 #
straight-curve $-1 27.280518402558926 41.803694659602598 15.939684432572506 0 -1 0 I I #
coedge $-1 $377 $377 $-1 $546 reversed $240 $-1 #
edge $-1 $547 0 $547 6.2831853071796004 $241 $548 forward 7 unknown #
vertex $-1 $244 $549 #
ellipse-curve $-1 32.127732164932205 28.927476848499936 9.5192319032029378 0 0.85716730853699208 0.51503806187062418 2 0 0 1 I I #
face $-1 $-1 $550 $50 $-1 $551 reversed single #
loop $-1 $-1 $251 $245 #
plane-surface $-1 0 0 15.939684432572509 0 0 1 1 0 0 forward_v I I I I #
coedge $-1 $552 $553 $554 $555 reversed $246 $-1 #
coedge $-1 $556 $248 $250 $391 forward $153 $-1 #
coedge $-1 $248 $556 $552 $557 forward $153 $-1 #
coedge $-1 $554 $251 $248 $388 forward $382 $-1 #
edge $-1 $394 1.7827715811841358 $558 10.327846672865199 $387 $559 forward 7 unknown #
coedge $-1 $560 $561 $249 $390 forward $550 $-1 #
edge $-1 $562 -36.679417072693866 $393 -27.222409102571692 $389 $563 forward 7 unknown #
edge $-1 $394 -16.089222743202189 $562 8.8807605448725156e-015 $250 $564 forward 7 unknown #
coedge $-1 $251 $554 $560 $565 forward $382 $-1 #
vertex $-1 $390 $566 #
vertex $-1 $252 $567 #
straight-curve $-1 -7.8380807082088033 -45.396763942938136 15.939684432572513 0 1 0 I I #
coedge $-1 $396 $396 $-1 $568 reversed $255 $-1 #
edge $-1 $569 0 $569 6.2831853071796004 $256 $570 forward 7 unknown #
vertex $-1 $259 $571 #
ellipse-curve $-1 -12.110618254049328 -26.27704652792556 11.211180447511422 0 -0.5877852598018023 0.80901698891910034 1 0 0 1 I I #
face $-1 $-1 $271 $39 $-1 $572 reversed single #
loop $-1 $-1 $573 $260 #
plane-surface $-1 -49.344767601550338 0 0 1 0 0 0 0 -1 forward_v I I I I #
coedge $-1 $574 $408 $573 $575 forward $261 $-1 #
coedge $-1 $576 $263 $574 $577 forward $162 $-1 #
coedge $-1 $263 $576 $269 $417 forward $162 $-1 #
coedge $-1 $265 $264 $578 $579 forward $105 $-1 #
edge $-1 $272 -49.344767601550338 $580 49.344767601550338 $270 $581 forward 7 unknown #
coedge $-1 $403 $412 $265 $409 reversed $261 $-1 #
edge $-1 $582 -49.344767601550338 $410 49.344767601550338 $408 $583 forward 7 unknown #
vertex $-1 $266 $584 #
straight-curve $-1 49.344767601550338 0 15.939684432572509 0 1 0 I I #
coedge $-1 $408 $574 $267 $413 reversed $261 $-1 #
edge $-1 $410 -15.939684432572509 $414 15.939684432572509 $267 $585 forward 7 unknown #
vertex $-1 $413 $586 #
straight-curve $-1 49.344767601550338 0 -15.939684432572509 0 -1 0 I I #
coedge $-1 $270 $269 $587 $588 reversed $271 $-1 #
edge $-1 $589 -49.344767601550338 $273 49.344767601550338 $269 $590 forward 7 unknown #
point $-1 49.344767601550338 32.785273796802635 15.939684432572509 #
point $-1 49.344767601550338 32.785273796802635 -15.939684432572509 #
face $-1 $-1 $433 $40 $-1 $591 reversed single #
loop $-1 $-1 $592 $275 #
plane-surface $-1 -61.714589275795198 0 -7.7717147516746241 1 0 0 0 0 -1 forward_v I I I I #
coedge $-1 $593 $425 $281 $430 reversed $276 $-1 #
coedge $-1 $279 $278 $592 $594 reversed $109 $-1 #
coedge $-1 $423 $595 $278 $426 forward $276 $-1 #
edge $-1 $596 -6.1849108371224304 $428 6.1849108371224304 $278 $597 forward 7 unknown #
edge $-1 $286 -6.1849108371224304 $598 6.1849108371224304 $279 $599 forward 7 unknown #
vertex $-1 $280 $600 #
straight-curve $-1 -49.344767601550338 32.785273796802635 0 0 0 -1 I I #
edge $-1 $434 -32.785273796802635 $428 32.785273796802635 $423 $601 forward 7 unknown #
coedge $-1 $602 $282 $285 $437 reversed $433 $-1 #
coedge $-1 $282 $602 $593 $603 reversed $433 $-1 #
loop $-1 $-1 $282 $420 #
vertex $-1 $283 $604 #
straight-curve $-1 -49.344767601550338 -32.785273796802635 0 0 0 1 I I #
coedge $-1 $285 $284 $605 $606 forward $170 $-1 #
edge $-1 $607 -6.1849108371224304 $287 6.1849108371224304 $431 $608 forward 7 unknown #
point $-1 -49.344767601550338 32.785273796802635 -3.8787580388675913 #
point $-1 -49.344767601550338 -32.785273796802635 -3.8787580388675913 #
face $-1 $-1 $456 $41 $-1 $609 reversed single #
loop $-1 $-1 $610 $289 #
plane-surface $-1 61.714589275795198 0 -7.7717147516746241 -1 0 0 0 0 1 forward_v I I I I #
coedge $-1 $447 $611 $612 $613 forward $290 $-1 #
coedge $-1 $610 $614 $292 $445 reversed $441 $-1 #
edge $-1 $615 -32.785273796802635 $616 32.785273796802635 $444 $617 forward 7 unknown #
coedge $-1 $294 $293 $610 $618 reversed $113 $-1 #
coedge $-1 $452 $443 $293 $448 forward $290 $-1 #
edge $-1 $619 -6.1849108371224304 $450 6.1849108371224304 $293 $620 forward 7 unknown #
edge $-1 $301 -6.1849108371224304 $615 6.1849108371224304 $294 $621 forward 7 unknown #
vertex $-1 $295 $622 #
straight-curve $-1 49.344767601550338 -32.785273796802635 0 0 0 -1 I I #
coedge $-1 $611 $447 $296 $453 reversed $290 $-1 #
edge $-1 $457 -32.785273796802635 $450 32.785273796802635 $452 $623 forward 7 unknown #
coedge $-1 $624 $297 $300 $459 reversed $456 $-1 #
coedge $-1 $297 $624 $611 $625 reversed $456 $-1 #
loop $-1 $-1 $297 $440 #
vertex $-1 $298 $626 #
straight-curve $-1 49.344767601550338 32.785273796802635 0 0 0 1 I I #
edge $-1 $616 -6.1849108371224304 $302 6.1849108371224304 $454 $627 forward 7 unknown #
point $-1 49.344767601550338 -32.785273796802635 -3.8787580388675913 #
point $-1 49.344767601550338 32.785273796802635 -3.8787580388675913 #
plane-surface $-1 0 0 15.939684432572509 0 0 1 1 0 0 forward_v I I I I #
coedge $-1 $473 $472 $465 $628 forward $305 $-1 #
coedge $-1 $465 $307 $309 $469 reversed $186 $-1 #
coedge $-1 $307 $464 $463 $628 reversed $186 $-1 #
coedge $-1 $315 $310 $307 $467 forward $316 $-1 #
edge $-1 $470 -16.734014759405369 $629 -9.0184208627999638 $466 $630 forward 7 unknown #
coedge $-1 $309 $308 $473 $631 reversed $117 $-1 #
edge $-1 $632 -65.570547593605241 $470 -50.589919038538298 $464 $633 forward 7 unknown #
vertex $-1 $311 $634 #
straight-curve $-1 -16.063866082466099 25.069679900197229 15.939684432572509 1 0 0 I I #
coedge $-1 $463 $312 $315 $477 reversed $305 $-1 #
coedge $-1 $312 $463 $468 $631 forward $305 $-1 #
vertex $-1 $313 $635 #
straight-curve $-1 -36.974945927305477 32.785273796802635 55.066288055929206 0 0 1 I I #
straight-curve $-1 -36.974945927305477 -0.98605395160332421 59.30370917394071 0 0.51503806187062418 -0.85716730853699208 I I #
edge $-1 $629 27.280518402558918 $317 36.974945927305477 $472 $636 forward 7 unknown #
point $-1 -36.974945927305477 32.785273796802635 15.939684432572509 #
point $-1 -36.974945927305477 25.069679900197229 15.939684432572513 #
edge $-1 $637 1 $637 0 $320 $-1 forward 7 unknown #
vertex $-1 $321 $638 #
ellipse-curve $-1 -32.127732164932198 26.390688537758429 7.9949757609914949 0 0.85716730853699208 0.51503806187062418 2 0 0 1 I I #
point $-1 -30.127732164932198 28.927476848499914 9.5192319032029253 #
loop $-1 $-1 $332 $324 #
plane-surface $-1 0 32.785273796802635 0 0 -1 0 0 0 -1 forward_v I I I I #
coedge $-1 $487 $327 $329 $491 reversed $201 $-1 #
coedge $-1 $327 $486 $639 $640 reversed $201 $-1 #
coedge $-1 $335 $330 $327 $489 forward $325 $-1 #
edge $-1 $492 -16.734014759405369 $641 -9.0184208627999638 $488 $642 forward 7 unknown #
coedge $-1 $329 $328 $495 $643 reversed $126 $-1 #
edge $-1 $644 -65.570547593605241 $492 -50.589919038538298 $486 $645 forward 7 unknown #
vertex $-1 $331 $646 #
straight-curve $-1 -5.3546220274886984 25.069679900197229 15.939684432572509 1 0 0 I I #
coedge $-1 $639 $332 $335 $499 reversed $484 $-1 #
coedge $-1 $332 $639 $490 $643 forward $484 $-1 #
vertex $-1 $333 $647 #
straight-curve $-1 -15.556457817350676 32.785273796802635 55.066288055929206 0 0 1 I I #
straight-curve $-1 -15.556457817350676 -0.98605395160332421 59.30370917394071 0 0.51503806187062418 -0.85716730853699208 I I #
edge $-1 $641 5.8620302926041186 $336 15.556457817350676 $494 $648 forward 7 unknown #
point $-1 -15.556457817350676 32.785273796802635 15.939684432572509 #
point $-1 -15.556457817350676 25.069679900197229 15.939684432572513 #
edge $-1 $649 1 $649 0 $339 $-1 forward 7 unknown #
vertex $-1 $340 $650 #
ellipse-curve $-1 -10.709244054977397 26.390688537758429 7.9949757609914949 0 0.85716730853699208 0.51503806187062418 2 0 0 1 I I #
point $-1 -8.7092440549773968 28.927476848499914 9.5192319032029253 #
loop $-1 $-1 $351 $343 #
plane-surface $-1 0 32.785273796802635 0 0 -1 0 0 0 -1 forward_v I I I I #
coedge $-1 $509 $346 $348 $513 reversed $216 $-1 #
coedge $-1 $346 $508 $651 $652 reversed $216 $-1 #
coedge $-1 $354 $349 $346 $511 forward $344 $-1 #
edge $-1 $514 -16.734014759405369 $653 -9.0184208627999638 $510 $654 forward 7 unknown #
coedge $-1 $348 $347 $517 $655 reversed $135 $-1 #
edge $-1 $656 -65.570547593605241 $514 -50.589919038538298 $508 $657 forward 7 unknown #
vertex $-1 $350 $658 #
straight-curve $-1 5.354622027488702 25.069679900197229 15.939684432572509 1 0 0 I I #
coedge $-1 $651 $351 $354 $521 reversed $506 $-1 #
coedge $-1 $351 $651 $512 $655 forward $506 $-1 #
vertex $-1 $352 $659 #
straight-curve $-1 5.8620302926041257 32.785273796802635 55.066288055929206 0 0 1 I I #
straight-curve $-1 5.8620302926041257 -0.98605395160332421 59.30370917394071 0 0.51503806187062418 -0.85716730853699208 I I #
edge $-1 $653 -15.556457817350683 $355 -5.8620302926041257 $516 $660 forward 7 unknown #
point $-1 5.8620302926041257 32.785273796802635 15.939684432572509 #
point $-1 5.8620302926041257 25.069679900197229 15.939684432572513 #
edge $-1 $661 1 $661 0 $358 $-1 forward 7 unknown #
vertex $-1 $359 $662 #
ellipse-curve $-1 10.709244054977404 26.390688537758429 7.9949757609914949 0 0.85716730853699208 0.51503806187062418 2 0 0 1 I I #
point $-1 12.709244054977404 28.927476848499914 9.5192319032029253 #
loop $-1 $-1 $370 $362 #
plane-surface $-1 0 32.785273796802635 0 0 -1 0 0 0 -1 forward_v I I I I #
coedge $-1 $531 $365 $367 $535 reversed $231 $-1 #
coedge $-1 $365 $530 $663 $664 reversed $231 $-1 #
coedge $-1 $373 $368 $365 $533 forward $363 $-1 #
edge $-1 $536 -16.734014759405369 $665 -9.0184208627999638 $532 $666 forward 7 unknown #
coedge $-1 $367 $366 $539 $667 reversed $144 $-1 #
edge $-1 $668 -65.570547593605241 $536 -50.589919038538298 $530 $669 forward 7 unknown #
vertex $-1 $369 $670 #
straight-curve $-1 16.063866082466102 25.069679900197229 15.939684432572509 1 0 0 I I #
coedge $-1 $663 $370 $373 $543 reversed $528 $-1 #
coedge $-1 $370 $663 $534 $667 forward $528 $-1 #
vertex $-1 $371 $671 #
straight-curve $-1 27.280518402558926 32.785273796802635 55.066288055929206 0 0 1 I I #
straight-curve $-1 27.280518402558926 -0.98605395160332421 59.30370917394071 0 0.51503806187062418 -0.85716730853699208 I I #
edge $-1 $665 -36.974945927305484 $374 -27.280518402558926 $538 $672 forward 7 unknown #
point $-1 27.280518402558926 32.785273796802635 15.939684432572509 #
point $-1 27.280518402558926 25.069679900197229 15.939684432572513 #
edge $-1 $673 1 $673 0 $377 $-1 forward 7 unknown #
vertex $-1 $378 $674 #
ellipse-curve $-1 32.127732164932205 26.390688537758429 7.9949757609914949 0 0.85716730853699208 0.51503806187062418 2 0 0 1 I I #
point $-1 34.127732164932205 28.927476848499914 9.5192319032029253 #
loop $-1 $-1 $389 $381 #
plane-surface $-1 0 -32.785273796802635 0 0 1 0 0 0 1 forward_v I I I I #
coedge $-1 $553 $384 $386 $557 reversed $246 $-1 #
coedge $-1 $384 $552 $675 $676 reversed $246 $-1 #
coedge $-1 $392 $387 $384 $555 forward $382 $-1 #
edge $-1 $558 -25.627944683889652 $677 -12.611490146135502 $554 $678 forward 7 unknown #
coedge $-1 $386 $385 $561 $679 reversed $153 $-1 #
edge $-1 $680 -8.8807605448725156e-015 $558 16.089222743202189 $552 $681 forward 7 unknown #
vertex $-1 $388 $682 #
straight-curve $-1 -6.0553091270246675 -19.768819259048485 15.939684432572509 -1 0 0 I I #
coedge $-1 $675 $389 $392 $565 reversed $550 $-1 #
coedge $-1 $389 $675 $556 $679 forward $550 $-1 #
vertex $-1 $390 $683 #
straight-curve $-1 -7.8380807082088033 -32.785273796802635 43.162093535144201 0 0 1 I I #
straight-curve $-1 -7.8380807082088033 -32.785273796802628 6.4826764624503426 0 -0.80901698891910034 -0.5877852598018023 I I #
edge $-1 $677 -16.383155799889867 $393 -7.8380807082088033 $560 $684 forward 7 unknown #
point $-1 -7.8380807082088033 -32.785273796802635 15.939684432572509 #
point $-1 -7.8380807082088033 -19.768819259048485 15.939684432572509 #
edge $-1 $685 1 $685 0 $396 $-1 forward 7 unknown #
vertex $-1 $397 $686 #
ellipse-curve $-1 -12.110618254049328 -24.742117443009004 9.0985318470646117 0 -0.5877852598018023 0.80901698891910034 1 0 0 1 I I #
point $-1 -11.110618254049328 -26.27704652792556 11.211180447511424 #
plane-surface $-1 0 32.785273796802635 0 0 -1 0 0 0 -1 forward_v I I I I #
coedge $-1 $578 $687 $403 $575 reversed $401 $-1 #
coedge $-1 $412 $403 $404 $577 reversed $261 $-1 #
edge $-1 $582 -15.939684432572509 $688 15.939684432572509 $573 $689 forward 7 unknown #
coedge $-1 $405 $404 $687 $690 forward $162 $-1 #
edge $-1 $414 -49.344767601550338 $688 49.344767601550338 $574 $691 forward 7 unknown #
coedge $-1 $587 $573 $406 $579 reversed $401 $-1 #
edge $-1 $580 -32.785273796802635 $582 32.785273796802635 $578 $692 forward 7 unknown #
vertex $-1 $407 $693 #
straight-curve $-1 0 32.785273796802635 15.939684432572509 -1 0 0 I I #
vertex $-1 $579 $694 #
straight-curve $-1 0 -32.785273796802635 15.939684432572509 1 0 0 I I #
point $-1 49.344767601550338 -32.785273796802635 15.939684432572509 #
straight-curve $-1 49.344767601550338 -32.785273796802635 0 0 0 -1 I I #
point $-1 49.344767601550338 -32.785273796802635 -15.939684432572509 #
coedge $-1 $687 $578 $416 $588 forward $401 $-1 #
edge $-1 $580 -15.939684432572509 $589 15.939684432572509 $416 $695 forward 7 unknown #
vertex $-1 $417 $696 #
straight-curve $-1 0 32.785273796802635 -15.939684432572509 1 0 0 I I #
plane-surface $-1 0 -32.785273796802635 0 0 1 0 0 0 1 forward_v I I I I #
coedge $-1 $697 $605 $424 $594 forward $421 $-1 #
coedge $-1 $595 $423 $432 $603 forward $276 $-1 #
edge $-1 $598 -3.8929567128070328 $596 3.8929567128070328 $424 $698 forward 7 unknown #
coedge $-1 $425 $593 $697 $699 forward $276 $-1 #
vertex $-1 $426 $700 #
straight-curve $-1 -55.529678438672768 32.785273796802635 -11.664671464481657 1 0 0 I I #
vertex $-1 $427 $701 #
straight-curve $-1 -55.529678438672768 32.785273796802635 -3.8787580388675913 -1 0 0 I I #
point $-1 -49.344767601550338 32.785273796802635 -11.664671464481657 #
straight-curve $-1 -49.344767601550338 0 -11.664671464481657 0 1 0 I I #
coedge $-1 $432 $431 $702 $703 forward $433 $-1 #
edge $-1 $434 -6.1849108371224304 $704 6.1849108371224304 $432 $705 forward 7 unknown #
point $-1 -49.344767601550338 -32.785273796802635 -11.664671464481657 #
coedge $-1 $592 $702 $436 $606 reversed $421 $-1 #
edge $-1 $598 -32.785273796802635 $607 32.785273796802635 $605 $706 forward 7 unknown #
vertex $-1 $606 $707 #
straight-curve $-1 -55.529678438672768 -32.785273796802635 -3.8787580388675913 1 0 0 I I #
plane-surface $-1 0 32.785273796802635 0 0 -1 0 0 0 -1 forward_v I I I I #
coedge $-1 $612 $444 $446 $618 forward $441 $-1 #
coedge $-1 $443 $452 $455 $625 forward $290 $-1 #
coedge $-1 $614 $610 $443 $613 reversed $441 $-1 #
edge $-1 $708 -32.785273796802635 $619 32.785273796802635 $612 $709 forward 7 unknown #
coedge $-1 $444 $612 $624 $710 reversed $441 $-1 #
vertex $-1 $445 $711 #
vertex $-1 $445 $712 #
straight-curve $-1 61.714589275795198 0 -3.8787580388675913 0 1 0 I I #
edge $-1 $615 -3.8929567128070328 $619 3.8929567128070328 $610 $713 forward 7 unknown #
vertex $-1 $618 $714 #
straight-curve $-1 55.529678438672768 -32.785273796802635 -11.664671464481657 -1 0 0 I I #
straight-curve $-1 55.529678438672768 -32.785273796802635 -3.8787580388675913 1 0 0 I I #
point $-1 49.344767601550338 -32.785273796802635 -11.664671464481657 #
straight-curve $-1 49.344767601550338 0 -11.664671464481657 0 -1 0 I I #
coedge $-1 $455 $454 $614 $710 forward $456 $-1 #
edge $-1 $457 -6.1849108371224304 $708 6.1849108371224304 $455 $715 forward 7 unknown #
point $-1 49.344767601550338 32.785273796802635 -11.664671464481657 #
straight-curve $-1 55.529678438672768 32.785273796802635 -3.8787580388675913 -1 0 0 I I #
edge $-1 $629 39.126603623356701 $632 51.967508682095826 $463 $716 forward 7 unknown #
vertex $-1 $477 $717 #
straight-curve $-1 -27.280518402558918 41.803694659602598 15.939684432572506 0 1 0 I I #
edge $-1 $632 11.21665232009282 $474 20.911079844839378 $473 $718 forward 7 unknown #
vertex $-1 $631 $719 #
straight-curve $-1 -27.280518402558918 -0.98605395160332421 59.30370917394071 0 -0.51503806187062418 0.85716730853699208 I I #
point $-1 -27.280518402558918 25.069679900197229 15.939684432572513 #
point $-1 -36.974945927305477 32.785273796802635 3.0987793738333806 #
straight-curve $-1 0 32.785273796802635 15.939684432572509 -1 0 0 I I #
vertex $-1 $480 $720 #
point $-1 -30.127732164932198 26.390688537758429 7.9949757609914949 #
coedge $-1 $495 $494 $487 $640 forward $484 $-1 #
edge $-1 $641 39.126603623356701 $644 51.967508682095826 $639 $721 forward 7 unknown #
vertex $-1 $499 $722 #
straight-curve $-1 -5.8620302926041186 41.803694659602598 15.939684432572506 0 1 0 I I #
edge $-1 $644 0.50740826511542014 $496 10.201835789861978 $495 $723 forward 7 unknown #
vertex $-1 $643 $724 #
straight-curve $-1 -5.8620302926041186 -0.98605395160332421 59.30370917394071 0 -0.51503806187062418 0.85716730853699208 I I #
point $-1 -5.8620302926041186 25.069679900197229 15.939684432572513 #
point $-1 -15.556457817350676 32.785273796802635 3.0987793738333806 #
straight-curve $-1 0 32.785273796802635 15.939684432572509 -1 0 0 I I #
vertex $-1 $502 $725 #
point $-1 -8.7092440549773968 26.390688537758429 7.9949757609914949 #
coedge $-1 $517 $516 $509 $652 forward $506 $-1 #
edge $-1 $653 39.126603623356701 $656 51.967508682095826 $651 $726 forward 7 unknown #
vertex $-1 $521 $727 #
straight-curve $-1 15.556457817350683 41.803694659602598 15.939684432572506 0 1 0 I I #
edge $-1 $656 -10.201835789861981 $518 -0.5074082651154237 $517 $728 forward 7 unknown #
vertex $-1 $655 $729 #
straight-curve $-1 15.556457817350683 -0.98605395160332421 59.30370917394071 0 -0.51503806187062418 0.85716730853699208 I I #
point $-1 15.556457817350683 25.069679900197229 15.939684432572513 #
point $-1 5.8620302926041257 32.785273796802635 3.0987793738333806 #
straight-curve $-1 0 32.785273796802635 15.939684432572509 -1 0 0 I I #
vertex $-1 $524 $730 #
point $-1 12.709244054977404 26.390688537758429 7.9949757609914949 #
coedge $-1 $539 $538 $531 $664 forward $528 $-1 #
edge $-1 $665 39.126603623356701 $668 51.967508682095826 $663 $731 forward 7 unknown #
vertex $-1 $543 $732 #
straight-curve $-1 36.974945927305484 41.803694659602598 15.939684432572506 0 1 0 I I #
edge $-1 $668 -20.911079844839382 $540 -11.216652320092823 $539 $733 forward 7 unknown #
vertex $-1 $667 $734 #
straight-curve $-1 36.974945927305484 -0.98605395160332421 59.30370917394071 0 -0.51503806187062418 0.85716730853699208 I I #
point $-1 36.974945927305484 25.069679900197229 15.939684432572513 #
point $-1 27.280518402558926 32.785273796802635 3.0987793738333806 #
straight-curve $-1 0 32.785273796802635 15.939684432572509 -1 0 0 I I #
vertex $-1 $546 $735 #
point $-1 34.127732164932205 26.390688537758429 7.9949757609914949 #
coedge $-1 $561 $560 $553 $676 forward $550 $-1 #
edge $-1 $677 27.222409102571692 $680 36.679417072693866 $675 $736 forward 7 unknown #
vertex $-1 $565 $737 #
straight-curve $-1 -16.383155799889867 -45.396763942938136 15.939684432572513 0 -1 0 I I #
edge $-1 $680 -10.327846672865199 $562 -1.7827715811841358 $561 $738 forward 7 unknown #
vertex $-1 $679 $739 #
straight-curve $-1 -16.383155799889867 -32.785273796802628 6.4826764624503426 0 0.80901698891910034 0.5877852598018023 I I #
point $-1 -16.383155799889867 -19.768819259048485 15.939684432572509 #
point $-1 -7.8380807082088033 -32.785273796802635 6.4826764624503372 #
straight-curve $-1 0 -32.785273796802635 15.939684432572509 1 0 0 I I #
vertex $-1 $568 $740 #
point $-1 -11.110618254049328 -24.742117443009004 9.0985318470646117 #
coedge $-1 $573 $587 $576 $690 reversed $401 $-1 #
vertex $-1 $690 $741 #
straight-curve $-1 -49.344767601550338 -32.785273796802635 0 0 0 -1 I I #
edge $-1 $688 -32.785273796802635 $589 32.785273796802635 $687 $742 forward 7 unknown #
straight-curve $-1 0 -32.785273796802635 -15.939684432572509 -1 0 0 I I #
straight-curve $-1 -49.344767601550338 0 15.939684432572509 0 -1 0 I I #
point $-1 -49.344767601550338 32.785273796802635 15.939684432572509 #
point $-1 -49.344767601550338 -32.785273796802635 15.939684432572509 #
straight-curve $-1 -49.344767601550338 32.785273796802635 0 0 0 -1 I I #
point $-1 -49.344767601550338 32.785273796802635 -15.939684432572509 #
coedge $-1 $702 $592 $595 $699 reversed $421 $-1 #
straight-curve $-1 -61.714589275795198 32.785273796802635 -7.7717147516746241 0 0 -1 I I #
edge $-1 $704 -32.785273796802635 $596 32.785273796802635 $697 $743 forward 7 unknown #
point $-1 -61.714589275795198 32.785273796802635 -11.664671464481657 #
point $-1 -61.714589275795198 32.785273796802635 -3.8787580388675913 #
coedge $-1 $605 $697 $602 $703 reversed $421 $-1 #
edge $-1 $607 -3.8929567128070328 $704 3.8929567128070328 $702 $744 forward 7 unknown #
vertex $-1 $699 $745 #
straight-curve $-1 -55.529678438672768 -32.785273796802635 -11.664671464481657 -1 0 0 I I #
straight-curve $-1 -61.714589275795198 0 -3.8787580388675913 0 -1 0 I I #
point $-1 -61.714589275795198 -32.785273796802635 -3.8787580388675913 #
vertex $-1 $613 $746 #
straight-curve $-1 61.714589275795198 0 -11.664671464481657 0 -1 0 I I #
edge $-1 $616 -3.8929567128070328 $708 3.8929567128070328 $614 $747 forward 7 unknown #
point $-1 61.714589275795198 -32.785273796802635 -3.8787580388675913 #
point $-1 61.714589275795198 32.785273796802635 -3.8787580388675913 #
straight-curve $-1 61.714589275795198 -32.785273796802635 -7.7717147516746241 0 0 -1 I I #
point $-1 61.714589275795198 -32.785273796802635 -11.664671464481657 #
straight-curve $-1 55.529678438672768 32.785273796802635 -11.664671464481657 1 0 0 I I #
straight-curve $-1 -27.280518402558918 32.785273796802635 55.066288055929206 0 0 -1 I I #
point $-1 -27.280518402558918 32.785273796802635 15.939684432572509 #
straight-curve $-1 -16.063866082466099 32.785273796802642 3.09877937383337 -1 0 0 I I #
point $-1 -27.280518402558918 32.785273796802635 3.0987793738333806 #
point $-1 -32.127732164932198 24.676353920684441 6.9648996372502472 #
straight-curve $-1 -5.8620302926041186 32.785273796802635 55.066288055929206 0 0 -1 I I #
point $-1 -5.8620302926041186 32.785273796802635 15.939684432572509 #
straight-curve $-1 -5.3546220274886984 32.785273796802642 3.09877937383337 -1 0 0 I I #
point $-1 -5.8620302926041186 32.785273796802635 3.0987793738333806 #
point $-1 -10.709244054977397 24.676353920684441 6.9648996372502472 #
straight-curve $-1 15.556457817350683 32.785273796802635 55.066288055929206 0 0 -1 I I #
point $-1 15.556457817350683 32.785273796802635 15.939684432572509 #
straight-curve $-1 5.354622027488702 32.785273796802642 3.09877937383337 -1 0 0 I I #
point $-1 15.556457817350683 32.785273796802635 3.0987793738333806 #
point $-1 10.709244054977404 24.676353920684441 6.9648996372502472 #
straight-curve $-1 36.974945927305484 32.785273796802635 55.066288055929206 0 0 -1 I I #
point $-1 36.974945927305484 32.785273796802635 15.939684432572509 #
straight-curve $-1 16.063866082466102 32.785273796802642 3.09877937383337 -1 0 0 I I #
point $-1 36.974945927305484 32.785273796802635 3.0987793738333806 #
point $-1 32.127732164932205 24.676353920684441 6.9648996372502472 #
straight-curve $-1 -16.383155799889867 -32.785273796802635 43.162093535144201 0 0 -1 I I #
point $-1 -16.383155799889867 -32.785273796802635 15.939684432572509 #
straight-curve $-1 -6.0553091270246675 -32.785273796802635 6.4826764624503372 1 0 0 I I #
point $-1 -16.383155799889867 -32.785273796802635 6.4826764624503372 #
point $-1 -12.110618254049328 -24.154332183207199 8.2895148581455107 #
point $-1 -49.344767601550338 -32.785273796802635 -15.939684432572509 #
straight-curve $-1 -49.344767601550338 0 -15.939684432572509 0 1 0 I I #
straight-curve $-1 -61.714589275795198 0 -11.664671464481657 0 1 0 I I #
straight-curve $-1 -61.714589275795198 -32.785273796802635 -7.7717147516746241 0 0 -1 I I #
point $-1 -61.714589275795198 -32.785273796802635 -11.664671464481657 #
point $-1 61.714589275795198 32.785273796802635 -11.664671464481657 #
straight-curve $-1 61.714589275795198 32.785273796802635 -7.7717147516746241 0 0 -1 I I #
End-of-ACIS-data 