500 0 16 0           
7 Unknown 11 ACIS 5.0 NT 24 Fri Mar 26 17:45:54 1999 
-1 9.9999999999999995e-007 1e-010 
body $-1 $16 $-1 $17 #
body $-1 $18 $-1 $19 #
body $-1 $20 $-1 $21 #
body $-1 $22 $-1 $23 #
body $-1 $24 $-1 $25 #
body $-1 $26 $-1 $27 #
body $-1 $28 $-1 $29 #
body $-1 $30 $-1 $31 #
body $-1 $32 $-1 $33 #
body $-1 $34 $-1 $35 #
body $-1 $36 $-1 $37 #
body $-1 $38 $-1 $39 #
body $-1 $40 $-1 $41 #
body $-1 $42 $-1 $43 #
body $-1 $44 $-1 $45 #
body $-1 $46 $-1 $47 #
lump $-1 $-1 $48 $0 #
transform $-1 1 0 0 0 1 0 0 0 1 78.312936796166866 37.093425487763561 8.3118615467194186 1 rotate no_reflect no_shear #
lump $-1 $-1 $49 $1 #
transform $-1 1 0 0 0 1 0 0 0 1 78.312936796166866 37.093425487763561 8.3118615467194186 1 rotate no_reflect no_shear #
lump $-1 $-1 $50 $2 #
transform $-1 1 0 0 0 1 0 0 0 1 78.312936796166866 37.093425487763561 8.3118615467194186 1 rotate no_reflect no_shear #
lump $-1 $-1 $51 $3 #
transform $-1 1 0 0 0 1 0 0 0 1 78.312936796166866 37.093425487763561 8.3118615467194186 1 rotate no_reflect no_shear #
lump $-1 $-1 $52 $4 #
transform $-1 1 0 0 0 1 0 0 0 1 78.312936796166866 37.093425487763561 8.3118615467194186 1 rotate no_reflect no_shear #
lump $-1 $-1 $53 $5 #
transform $-1 1 0 0 0 1 0 0 0 1 78.312936796166866 37.093425487763561 8.3118615467194186 1 rotate no_reflect no_shear #
lump $-1 $-1 $54 $6 #
transform $-1 1 0 0 0 1 0 0 0 1 78.312936796166866 37.093425487763561 8.3118615467194186 1 rotate no_reflect no_shear #
lump $-1 $-1 $55 $7 #
transform $-1 1 0 0 0 1 0 0 0 1 78.312936796166866 37.093425487763561 8.3118615467194186 1 rotate no_reflect no_shear #
lump $-1 $-1 $56 $8 #
transform $-1 1 0 0 0 1 0 0 0 1 78.312936796166866 37.093425487763561 8.3118615467194186 1 rotate no_reflect no_shear #
lump $-1 $-1 $57 $9 #
transform $-1 1 0 0 0 1 0 0 0 1 78.312936796166866 37.093425487763561 8.3118615467194186 1 rotate no_reflect no_shear #
lump $-1 $-1 $58 $10 #
transform $-1 1 0 0 0 1 0 0 0 1 78.312936796166866 37.093425487763561 8.3118615467194186 1 rotate no_reflect no_shear #
lump $-1 $-1 $59 $11 #
transform $-1 1 0 0 0 1 0 0 0 1 78.312936796166866 37.093425487763561 8.3118615467194186 1 rotate no_reflect no_shear #
lump $-1 $-1 $60 $12 #
transform $-1 1 0 0 0 1 0 0 0 1 78.312936796166866 37.093425487763561 8.3118615467194186 1 rotate no_reflect no_shear #
lump $-1 $-1 $61 $13 #
transform $-1 1 0 0 0 1 0 0 0 1 78.312936796166866 37.093425487763561 8.3118615467194186 1 rotate no_reflect no_shear #
lump $-1 $-1 $62 $14 #
transform $-1 1 0 0 0 1 0 0 0 1 78.312936796166866 37.093425487763561 8.3118615467194186 1 rotate no_reflect no_shear #
lump $-1 $-1 $63 $15 #
transform $-1 1 0 0 0 1 0 0 0 1 78.312936796166866 37.093425487763561 8.3118615467194186 1 rotate no_reflect no_shear #
shell $-1 $-1 $-1 $64 $-1 $16 #
shell $-1 $-1 $-1 $65 $-1 $18 #
shell $-1 $-1 $-1 $66 $-1 $20 #
shell $-1 $-1 $-1 $67 $-1 $22 #
shell $-1 $-1 $-1 $68 $-1 $24 #
shell $-1 $-1 $-1 $69 $-1 $26 #
shell $-1 $-1 $-1 $70 $-1 $28 #
shell $-1 $-1 $-1 $71 $-1 $30 #
shell $-1 $-1 $-1 $72 $-1 $32 #
shell $-1 $-1 $-1 $73 $-1 $34 #
shell $-1 $-1 $-1 $74 $-1 $36 #
shell $-1 $-1 $-1 $75 $-1 $38 #
shell $-1 $-1 $-1 $76 $-1 $40 #
shell $-1 $-1 $-1 $77 $-1 $42 #
shell $-1 $-1 $-1 $78 $-1 $44 #
shell $-1 $-1 $-1 $79 $-1 $46 #
face $-1 $80 $81 $48 $-1 $82 forward single #
face $-1 $83 $84 $49 $-1 $85 forward single #
face $-1 $86 $87 $50 $-1 $88 reversed single #
face $-1 $89 $90 $51 $-1 $91 forward single #
face $-1 $92 $93 $52 $-1 $94 reversed single #
face $-1 $95 $96 $53 $-1 $97 forward single #
face $-1 $98 $99 $54 $-1 $100 forward single #
face $-1 $101 $102 $55 $-1 $103 reversed single #
face $-1 $104 $105 $56 $-1 $106 forward single #
face $-1 $107 $108 $57 $-1 $109 forward single #
face $-1 $110 $111 $58 $-1 $112 reversed single #
face $-1 $113 $114 $59 $-1 $115 forward single #
face $-1 $116 $117 $60 $-1 $118 forward single #
face $-1 $119 $120 $61 $-1 $121 reversed single #
face $-1 $122 $123 $62 $-1 $124 forward single #
face $-1 $125 $126 $63 $-1 $127 forward single #
face $-1 $128 $129 $48 $-1 $130 reversed single #
loop $-1 $-1 $131 $64 #
plane-surface $-1 0 0 8.3118615467194186 0 0 1 1 0 0 forward_v I I I I #
face $-1 $132 $133 $49 $-1 $134 reversed single #
loop $-1 $-1 $135 $65 #
plane-surface $-1 0 -33.063224081621826 -3.7015902717474432 0 0 1 1 0 0 forward_v I I I I #
face $-1 $136 $137 $50 $-1 $138 reversed single #
loop $-1 $-1 $139 $66 #
plane-surface $-1 -198.2953182081319 20.038424234295473 105.85415530076058 0 1 0 -0.7660444514056185 0 0.64278759981090561 forward_v I I I I #
face $-1 $140 $141 $51 $-1 $142 forward single #
loop $-1 $143 $144 $67 #
cone-surface $-1 -76.316905726372738 28.565924861029522 6.173169243373712 0.7660444514056185 0 -0.64278759981090561 0.3213937999054528 0 0.38302222570280925 1 I I 0 1 0.5 forward I I I I #
face $-1 $145 $146 $52 $-1 $147 reversed single #
loop $-1 $-1 $148 $68 #
plane-surface $-1 139.36728553970931 -20.09464083148368 214.69901802142124 0 -1 0 -0.87461971476443456 0 -0.48480960649040278 forward_v I I I I #
face $-1 $149 $150 $53 $-1 $151 forward single #
loop $-1 $152 $153 $69 #
cone-surface $-1 75.765634906858011 -26.479199291481123 4.6364579901244429 -0.87461971476443456 0 -0.48480960649040278 0.48480960649040278 0 -0.87461971476443456 1 I I 0 1 1 forward I I I I #
face $-1 $154 $155 $54 $-1 $156 forward single #
loop $-1 $157 $158 $70 #
cone-surface $-1 75.765634906858011 -22.648464215482655 4.6364579901244429 -0.87461971476443456 0 -0.48480960649040278 0.48480960649040278 0 -0.87461971476443456 1 I I 0 1 1 forward I I I I #
face $-1 $159 $160 $55 $-1 $161 reversed single #
loop $-1 $-1 $162 $71 #
plane-surface $-1 139.36728553970931 -3.5630287906727673 214.69901802142124 0 -1 0 -0.87461971476443456 0 -0.48480960649040278 forward_v I I I I #
face $-1 $163 $164 $56 $-1 $165 forward single #
loop $-1 $166 $167 $72 #
cone-surface $-1 75.765634906858011 -9.9475872506702103 4.6364579901244429 -0.87461971476443456 0 -0.48480960649040278 0.48480960649040278 0 -0.87461971476443456 1 I I 0 1 1 forward I I I I #
face $-1 $168 $169 $57 $-1 $170 forward single #
loop $-1 $171 $172 $73 #
cone-surface $-1 75.765634906858011 -6.1168521746717417 4.6364579901244429 -0.87461971476443456 0 -0.48480960649040278 0.48480960649040278 0 -0.87461971476443456 1 I I 0 1 1 forward I I I I #
face $-1 $173 $174 $58 $-1 $175 reversed single #
loop $-1 $-1 $176 $74 #
plane-surface $-1 139.36728553970931 12.968583250138149 214.69901802142124 0 -1 0 -0.87461971476443456 0 -0.48480960649040278 forward_v I I I I #
face $-1 $177 $178 $59 $-1 $179 forward single #
loop $-1 $180 $181 $75 #
cone-surface $-1 75.765634906858011 6.5840247901407025 4.6364579901244429 -0.87461971476443456 0 -0.48480960649040278 0.48480960649040278 0 -0.87461971476443456 1 I I 0 1 1 forward I I I I #
face $-1 $182 $183 $60 $-1 $184 forward single #
loop $-1 $185 $186 $76 #
cone-surface $-1 75.765634906858011 10.414759866139171 4.6364579901244429 -0.87461971476443456 0 -0.48480960649040278 0.48480960649040278 0 -0.87461971476443456 1 I I 0 1 1 forward I I I I #
face $-1 $187 $188 $61 $-1 $189 reversed single #
loop $-1 $-1 $190 $77 #
plane-surface $-1 139.36728553970931 29.500195290949062 214.69901802142124 0 -1 0 -0.87461971476443456 0 -0.48480960649040278 forward_v I I I I #
face $-1 $191 $192 $62 $-1 $193 forward single #
loop $-1 $194 $195 $78 #
cone-surface $-1 75.765634906858011 23.115636830951615 4.6364579901244429 -0.87461971476443456 0 -0.48480960649040278 0.48480960649040278 0 -0.87461971476443456 1 I I 0 1 1 forward I I I I #
face $-1 $196 $197 $63 $-1 $198 forward single #
loop $-1 $199 $200 $79 #
cone-surface $-1 75.765634906858011 26.946371906950084 4.6364579901244429 -0.87461971476443456 0 -0.48480960649040278 0.48480960649040278 0 -0.87461971476443456 1 I I 0 1 1 forward I I I I #
face $-1 $201 $202 $48 $-1 $203 reversed single #
loop $-1 $-1 $204 $80 #
plane-surface $-1 0 0 -8.3118615467194186 0 0 1 1 0 0 forward_v I I I I #
coedge $-1 $205 $206 $207 $208 forward $81 $-1 #
face $-1 $209 $210 $49 $-1 $211 reversed single #
loop $-1 $-1 $212 $83 #
plane-surface $-1 0 -29.033022675480094 -6.0067259092334311 0 -1 0 0 0 -1 forward_v I I I I #
coedge $-1 $213 $214 $215 $216 reversed $84 $-1 #
face $-1 $217 $218 $50 $-1 $219 reversed single #
loop $-1 $-1 $220 $86 #
plane-surface $-1 -78.312936796166852 28.565924861029508 5.1769859460580818 -0.7660444514056185 0 0.64278759981090561 0.64278759981090561 0 0.7660444514056185 forward_v I I I I #
coedge $-1 $221 $222 $223 $224 reversed $87 $-1 #
face $-1 $-1 $225 $51 $-1 $226 forward single #
loop $-1 $227 $228 $89 #
cone-surface $-1 -75.444599989443532 28.565924861029522 5.4412178404059564 0.7660444514056185 0 -0.64278759981090561 0.1606968999527264 0 0.19151111285140462 1 I I -0.70710678118654746 0.70710678118654746 0.25 forward I I I I #
loop $-1 $-1 $229 $67 #
coedge $-1 $144 $144 $230 $231 reversed $90 $-1 #
face $-1 $232 $233 $52 $-1 $234 reversed single #
loop $-1 $-1 $235 $92 #
plane-surface $-1 2.3792086536520003 -24.563831753481889 138.76528987890634 0.87461971476443456 0 0.48480960649040278 0.48480960649040278 0 -0.87461971476443456 forward_v I I I I #
coedge $-1 $236 $237 $238 $239 reversed $93 $-1 #
face $-1 $-1 $240 $53 $-1 $241 forward single #
loop $-1 $242 $243 $95 #
cone-surface $-1 74.592130513725863 -26.479199291481123 3.9859739072194689 -0.87461971476443456 0 -0.48480960649040278 0.24240480324520139 0 -0.43730985738221728 1 I I -0.70710678118654746 0.70710678118654746 0.5 forward I I I I #
loop $-1 $-1 $244 $69 #
coedge $-1 $153 $153 $245 $246 reversed $96 $-1 #
face $-1 $-1 $247 $54 $-1 $248 forward single #
loop $-1 $249 $250 $98 #
cone-surface $-1 74.592130513725863 -22.648464215482655 3.9859739072194689 -0.87461971476443456 0 -0.48480960649040278 0.24240480324520139 0 -0.43730985738221728 1 I I -0.70710678118654746 0.70710678118654746 0.5 forward I I I I #
loop $-1 $-1 $251 $70 #
coedge $-1 $158 $158 $252 $253 reversed $99 $-1 #
face $-1 $254 $255 $55 $-1 $256 reversed single #
loop $-1 $-1 $257 $101 #
plane-surface $-1 2.3792086536520003 -8.032219712670976 138.76528987890634 0.87461971476443456 0 0.48480960649040278 0.48480960649040278 0 -0.87461971476443456 forward_v I I I I #
coedge $-1 $258 $259 $260 $261 reversed $102 $-1 #
face $-1 $-1 $262 $56 $-1 $263 forward single #
loop $-1 $264 $265 $104 #
cone-surface $-1 74.592130513725863 -9.9475872506702103 3.9859739072194689 -0.87461971476443456 0 -0.48480960649040278 0.24240480324520139 0 -0.43730985738221728 1 I I -0.70710678118654746 0.70710678118654746 0.5 forward I I I I #
loop $-1 $-1 $266 $72 #
coedge $-1 $167 $167 $267 $268 reversed $105 $-1 #
face $-1 $-1 $269 $57 $-1 $270 forward single #
loop $-1 $271 $272 $107 #
cone-surface $-1 74.592130513725863 -6.1168521746717417 3.9859739072194689 -0.87461971476443456 0 -0.48480960649040278 0.24240480324520139 0 -0.43730985738221728 1 I I -0.70710678118654746 0.70710678118654746 0.5 forward I I I I #
loop $-1 $-1 $273 $73 #
coedge $-1 $172 $172 $274 $275 reversed $108 $-1 #
face $-1 $276 $277 $58 $-1 $278 reversed single #
loop $-1 $-1 $279 $110 #
plane-surface $-1 2.3792086536520003 8.4993923281399404 138.76528987890634 0.87461971476443456 0 0.48480960649040278 0.48480960649040278 0 -0.87461971476443456 forward_v I I I I #
coedge $-1 $280 $281 $282 $283 reversed $111 $-1 #
face $-1 $-1 $284 $59 $-1 $285 forward single #
loop $-1 $286 $287 $113 #
cone-surface $-1 74.592130513725863 6.5840247901407025 3.9859739072194689 -0.87461971476443456 0 -0.48480960649040278 0.24240480324520139 0 -0.43730985738221728 1 I I -0.70710678118654746 0.70710678118654746 0.5 forward I I I I #
loop $-1 $-1 $288 $75 #
coedge $-1 $181 $181 $289 $290 reversed $114 $-1 #
face $-1 $-1 $291 $60 $-1 $292 forward single #
loop $-1 $293 $294 $116 #
cone-surface $-1 74.592130513725863 10.414759866139171 3.9859739072194689 -0.87461971476443456 0 -0.48480960649040278 0.24240480324520139 0 -0.43730985738221728 1 I I -0.70710678118654746 0.70710678118654746 0.5 forward I I I I #
loop $-1 $-1 $295 $76 #
coedge $-1 $186 $186 $296 $297 reversed $117 $-1 #
face $-1 $298 $299 $61 $-1 $300 reversed single #
loop $-1 $-1 $301 $119 #
plane-surface $-1 2.3792086536520003 25.031004368950853 138.76528987890634 0.87461971476443456 0 0.48480960649040278 0.48480960649040278 0 -0.87461971476443456 forward_v I I I I #
coedge $-1 $302 $303 $304 $305 reversed $120 $-1 #
face $-1 $-1 $306 $62 $-1 $307 forward single #
loop $-1 $308 $309 $122 #
cone-surface $-1 74.592130513725863 23.115636830951615 3.9859739072194689 -0.87461971476443456 0 -0.48480960649040278 0.24240480324520139 0 -0.43730985738221728 1 I I -0.70710678118654746 0.70710678118654746 0.5 forward I I I I #
loop $-1 $-1 $310 $78 #
coedge $-1 $195 $195 $311 $312 reversed $123 $-1 #
face $-1 $-1 $313 $63 $-1 $314 forward single #
loop $-1 $315 $316 $125 #
cone-surface $-1 74.592130513725863 26.946371906950084 3.9859739072194689 -0.87461971476443456 0 -0.48480960649040278 0.24240480324520139 0 -0.43730985738221728 1 I I -0.70710678118654746 0.70710678118654746 0.5 forward I I I I #
loop $-1 $-1 $317 $79 #
coedge $-1 $200 $200 $318 $319 reversed $126 $-1 #
face $-1 $320 $321 $48 $-1 $322 reversed single #
loop $-1 $-1 $323 $128 #
plane-surface $-1 0 -37.093425487763561 0 0 1 0 0 0 1 forward_v I I I I #
coedge $-1 $324 $325 $326 $327 forward $129 $-1 #
coedge $-1 $328 $131 $329 $330 forward $81 $-1 #
coedge $-1 $131 $328 $331 $332 forward $81 $-1 #
coedge $-1 $333 $334 $131 $208 reversed $335 $-1 #
edge $-1 $336 -37.093425487763561 $337 37.093425487763561 $207 $338 forward 7 unknown #
face $-1 $339 $340 $49 $-1 $341 reversed single #
loop $-1 $-1 $342 $132 #
plane-surface $-1 0 0 -8.3118615467194186 0 0 1 1 0 0 forward_v I I I I #
coedge $-1 $343 $344 $345 $346 reversed $133 $-1 #
coedge $-1 $347 $135 $344 $348 forward $84 $-1 #
coedge $-1 $135 $347 $349 $350 reversed $84 $-1 #
coedge $-1 $351 $345 $135 $216 forward $340 $-1 #
edge $-1 $352 12.501410634669181 $353 20.561813446952641 $215 $354 forward 7 unknown #
face $-1 $355 $356 $50 $-1 $357 reversed single #
loop $-1 $-1 $358 $136 #
plane-surface $-1 0 37.093425487763561 0 0 -1 0 0 0 -1 forward_v I I I I #
coedge $-1 $359 $360 $361 $362 reversed $137 $-1 #
coedge $-1 $222 $139 $363 $364 reversed $87 $-1 #
coedge $-1 $139 $221 $359 $365 reversed $87 $-1 #
coedge $-1 $361 $366 $139 $224 forward $367 $-1 #
edge $-1 $368 20.834722307899085 $369 23.465195199331745 $223 $370 forward 7 unknown #
loop $-1 $-1 $230 $140 #
plane-surface $-1 -78.312936796166852 28.565924861029508 5.1769859460580818 -0.7660444514056185 0 0.64278759981090561 0.64278759981090561 0 0.7660444514056185 forward_v I I I I #
loop $-1 $-1 $371 $89 #
coedge $-1 $228 $228 $229 $372 reversed $141 $-1 #
coedge $-1 $229 $229 $228 $372 forward $143 $-1 #
coedge $-1 $230 $230 $144 $231 forward $225 $-1 #
edge $-1 $373 0 $373 6.2831853071796004 $230 $374 forward 7 unknown #
face $-1 $375 $376 $52 $-1 $377 forward single #
loop $-1 $-1 $378 $145 #
plane-surface $-1 139.36728553970931 -29.033022675480098 214.69901802142124 0 1 0 0.87461971476443456 0 0.48480960649040278 forward_v I I I I #
coedge $-1 $379 $380 $381 $382 reversed $146 $-1 #
coedge $-1 $237 $148 $383 $384 reversed $93 $-1 #
coedge $-1 $148 $236 $379 $385 reversed $93 $-1 #
coedge $-1 $381 $386 $148 $239 forward $376 $-1 #
edge $-1 $387 -8.6292940263122091 $388 -5.0070793191943466 $238 $389 forward 7 unknown #
loop $-1 $-1 $245 $149 #
plane-surface $-1 2.3792086536520003 -24.563831753481889 138.76528987890634 0.87461971476443456 0 0.48480960649040278 0.48480960649040278 0 -0.87461971476443456 forward_v I I I I #
loop $-1 $-1 $390 $95 #
coedge $-1 $243 $243 $244 $391 reversed $150 $-1 #
coedge $-1 $244 $244 $243 $391 forward $152 $-1 #
coedge $-1 $245 $245 $153 $246 forward $240 $-1 #
edge $-1 $392 0 $392 6.2831853071796004 $245 $393 forward 7 unknown #
loop $-1 $-1 $252 $154 #
plane-surface $-1 2.3792086536520003 -24.563831753481889 138.76528987890634 0.87461971476443456 0 0.48480960649040278 0.48480960649040278 0 -0.87461971476443456 forward_v I I I I #
loop $-1 $-1 $394 $98 #
coedge $-1 $250 $250 $251 $395 reversed $155 $-1 #
coedge $-1 $251 $251 $250 $395 forward $157 $-1 #
coedge $-1 $252 $252 $158 $253 forward $247 $-1 #
edge $-1 $396 0 $396 6.2831853071796004 $252 $397 forward 7 unknown #
face $-1 $398 $399 $55 $-1 $400 reversed single #
loop $-1 $-1 $401 $159 #
plane-surface $-1 139.36728553970931 -12.501410634669185 214.69901802142124 0 1 0 0.87461971476443456 0 0.48480960649040278 forward_v I I I I #
coedge $-1 $402 $403 $404 $405 reversed $160 $-1 #
coedge $-1 $259 $162 $406 $407 reversed $102 $-1 #
coedge $-1 $162 $258 $402 $408 reversed $102 $-1 #
coedge $-1 $404 $409 $162 $261 forward $410 $-1 #
edge $-1 $411 -8.6292940263122091 $412 -5.0070793191943466 $260 $413 forward 7 unknown #
loop $-1 $-1 $267 $163 #
plane-surface $-1 2.3792086536520003 -8.032219712670976 138.76528987890634 0.87461971476443456 0 0.48480960649040278 0.48480960649040278 0 -0.87461971476443456 forward_v I I I I #
loop $-1 $-1 $414 $104 #
coedge $-1 $265 $265 $266 $415 reversed $164 $-1 #
coedge $-1 $266 $266 $265 $415 forward $166 $-1 #
coedge $-1 $267 $267 $167 $268 forward $262 $-1 #
edge $-1 $416 0 $416 6.2831853071796004 $267 $417 forward 7 unknown #
loop $-1 $-1 $274 $168 #
plane-surface $-1 2.3792086536520003 -8.032219712670976 138.76528987890634 0.87461971476443456 0 0.48480960649040278 0.48480960649040278 0 -0.87461971476443456 forward_v I I I I #
loop $-1 $-1 $418 $107 #
coedge $-1 $272 $272 $273 $419 reversed $169 $-1 #
coedge $-1 $273 $273 $272 $419 forward $171 $-1 #
coedge $-1 $274 $274 $172 $275 forward $269 $-1 #
edge $-1 $420 0 $420 6.2831853071796004 $274 $421 forward 7 unknown #
face $-1 $422 $423 $58 $-1 $424 reversed single #
loop $-1 $-1 $425 $173 #
plane-surface $-1 139.36728553970931 4.0302014061417317 214.69901802142124 0 1 0 0.87461971476443456 0 0.48480960649040278 forward_v I I I I #
coedge $-1 $426 $427 $428 $429 reversed $174 $-1 #
coedge $-1 $281 $176 $430 $431 reversed $111 $-1 #
coedge $-1 $176 $280 $426 $432 reversed $111 $-1 #
coedge $-1 $428 $433 $176 $283 forward $434 $-1 #
edge $-1 $435 -8.6292940263122091 $436 -5.0070793191943466 $282 $437 forward 7 unknown #
loop $-1 $-1 $289 $177 #
plane-surface $-1 2.3792086536520003 8.4993923281399404 138.76528987890634 0.87461971476443456 0 0.48480960649040278 0.48480960649040278 0 -0.87461971476443456 forward_v I I I I #
loop $-1 $-1 $438 $113 #
coedge $-1 $287 $287 $288 $439 reversed $178 $-1 #
coedge $-1 $288 $288 $287 $439 forward $180 $-1 #
coedge $-1 $289 $289 $181 $290 forward $284 $-1 #
edge $-1 $440 0 $440 6.2831853071796004 $289 $441 forward 7 unknown #
loop $-1 $-1 $296 $182 #
plane-surface $-1 2.3792086536520003 8.4993923281399404 138.76528987890634 0.87461971476443456 0 0.48480960649040278 0.48480960649040278 0 -0.87461971476443456 forward_v I I I I #
loop $-1 $-1 $442 $116 #
coedge $-1 $294 $294 $295 $443 reversed $183 $-1 #
coedge $-1 $295 $295 $294 $443 forward $185 $-1 #
coedge $-1 $296 $296 $186 $297 forward $291 $-1 #
edge $-1 $444 0 $444 6.2831853071796004 $296 $445 forward 7 unknown #
face $-1 $446 $447 $61 $-1 $448 reversed single #
loop $-1 $-1 $449 $187 #
plane-surface $-1 139.36728553970931 20.561813446952645 214.69901802142124 0 1 0 0.87461971476443456 0 0.48480960649040278 forward_v I I I I #
coedge $-1 $450 $451 $452 $453 reversed $188 $-1 #
coedge $-1 $303 $190 $454 $455 reversed $120 $-1 #
coedge $-1 $190 $302 $450 $456 reversed $120 $-1 #
coedge $-1 $452 $457 $190 $305 forward $458 $-1 #
edge $-1 $459 -8.6292940263122091 $460 -5.0070793191943466 $304 $461 forward 7 unknown #
loop $-1 $-1 $311 $191 #
plane-surface $-1 2.3792086536520003 25.031004368950853 138.76528987890634 0.87461971476443456 0 0.48480960649040278 0.48480960649040278 0 -0.87461971476443456 forward_v I I I I #
loop $-1 $-1 $462 $122 #
coedge $-1 $309 $309 $310 $463 reversed $192 $-1 #
coedge $-1 $310 $310 $309 $463 forward $194 $-1 #
coedge $-1 $311 $311 $195 $312 forward $306 $-1 #
edge $-1 $464 0 $464 6.2831853071796004 $311 $465 forward 7 unknown #
loop $-1 $-1 $318 $196 #
plane-surface $-1 2.3792086536520003 25.031004368950853 138.76528987890634 0.87461971476443456 0 0.48480960649040278 0.48480960649040278 0 -0.87461971476443456 forward_v I I I I #
loop $-1 $-1 $466 $125 #
coedge $-1 $316 $316 $317 $467 reversed $197 $-1 #
coedge $-1 $317 $317 $316 $467 forward $199 $-1 #
coedge $-1 $318 $318 $200 $319 forward $313 $-1 #
edge $-1 $468 0 $468 6.2831853071796004 $318 $469 forward 7 unknown #
face $-1 $470 $471 $48 $-1 $472 reversed single #
loop $-1 $-1 $473 $201 #
plane-surface $-1 -78.312936796166866 0 0 1 0 0 0 0 -1 forward_v I I I I #
coedge $-1 $474 $331 $475 $476 forward $202 $-1 #
coedge $-1 $477 $204 $474 $478 forward $129 $-1 #
coedge $-1 $204 $477 $479 $480 forward $129 $-1 #
coedge $-1 $334 $333 $204 $327 reversed $335 $-1 #
edge $-1 $481 -37.093425487763561 $482 37.093425487763561 $326 $483 forward 7 unknown #
coedge $-1 $206 $205 $484 $485 forward $81 $-1 #
coedge $-1 $486 $487 $205 $330 reversed $471 $-1 #
edge $-1 $337 -78.312936796166866 $488 78.312936796166866 $329 $489 forward 7 unknown #
coedge $-1 $323 $490 $206 $332 reversed $202 $-1 #
edge $-1 $491 -78.312936796166866 $336 78.312936796166866 $331 $492 forward 7 unknown #
coedge $-1 $326 $207 $490 $493 forward $335 $-1 #
coedge $-1 $207 $326 $486 $494 reversed $335 $-1 #
loop $-1 $-1 $333 $470 #
vertex $-1 $208 $495 #
vertex $-1 $208 $496 #
straight-curve $-1 78.312936796166866 0 8.3118615467194186 0 1 0 I I #
face $-1 $497 $498 $49 $-1 $499 reversed single #
loop $-1 $-1 $345 $209 #
plane-surface $-1 78.312936796166866 0 0 -1 0 0 0 0 1 forward_v I I I I #
coedge $-1 $500 $501 $343 $502 forward $210 $-1 #
coedge $-1 $503 $212 $342 $502 reversed $133 $-1 #
coedge $-1 $212 $503 $213 $348 reversed $133 $-1 #
coedge $-1 $215 $504 $212 $346 forward $340 $-1 #
edge $-1 $505 -5.308498592102703 $352 -0.69822731713072761 $345 $506 forward 7 unknown #
coedge $-1 $214 $213 $507 $508 reversed $84 $-1 #
edge $-1 $352 -78.312936796166866 $509 78.312936796166866 $344 $510 forward 7 unknown #
coedge $-1 $511 $512 $214 $350 forward $498 $-1 #
edge $-1 $353 -78.312936796166866 $513 78.312936796166866 $349 $514 forward 7 unknown #
coedge $-1 $504 $215 $512 $515 forward $340 $-1 #
vertex $-1 $216 $516 #
vertex $-1 $515 $517 #
straight-curve $-1 78.312936796166866 -16.531612040810913 -3.7015902717474432 0 -1 0 I I #
face $-1 $-1 $367 $50 $-1 $518 forward single #
loop $-1 $-1 $519 $217 #
plane-surface $-1 -78.312936796166866 0 0 1 0 0 0 0 -1 forward_v I I I I #
coedge $-1 $520 $521 $360 $522 forward $218 $-1 #
coedge $-1 $523 $220 $222 $365 forward $137 $-1 #
coedge $-1 $220 $523 $358 $522 reversed $137 $-1 #
coedge $-1 $524 $223 $220 $362 forward $367 $-1 #
edge $-1 $369 5.7554618037807188 $525 22.810463057248786 $361 $526 forward 7 unknown #
coedge $-1 $527 $519 $221 $364 forward $356 $-1 #
edge $-1 $528 -47.750091704322223 $368 -44.61521610366087 $363 $529 forward 7 unknown #
edge $-1 $369 -4.0922894159851175 $528 2.2061860048766535e-014 $222 $530 forward 7 unknown #
coedge $-1 $223 $524 $527 $531 forward $367 $-1 #
loop $-1 $-1 $361 $355 #
vertex $-1 $364 $532 #
vertex $-1 $224 $533 #
straight-curve $-1 -99.147659104065951 20.038424234295473 8.3118615467194203 1 0 0 I I #
coedge $-1 $371 $371 $-1 $534 reversed $227 $-1 #
edge $-1 $535 0 $535 6.2831853071796004 $228 $536 forward 7 unknown #
vertex $-1 $231 $537 #
ellipse-curve $-1 -76.997700350450543 28.565924861029522 6.7444237463887404 -0.7660444514056185 0 0.64278759981090561 0.3213937999054528 0 0.38302222570280925 1 I I #
face $-1 $-1 $538 $52 $-1 $539 reversed single #
loop $-1 $-1 $238 $232 #
plane-surface $-1 0 0 8.3118615467194186 0 0 1 1 0 0 forward_v I I I I #
coedge $-1 $540 $541 $542 $543 reversed $233 $-1 #
coedge $-1 $544 $235 $237 $385 forward $146 $-1 #
coedge $-1 $235 $544 $540 $545 forward $146 $-1 #
coedge $-1 $542 $238 $235 $382 forward $376 $-1 #
edge $-1 $388 7.8127249547427358 $546 16.751106798739151 $381 $547 forward 7 unknown #
coedge $-1 $548 $549 $236 $384 forward $538 $-1 #
edge $-1 $550 -105.57229601786156 $387 -99.037647463991206 $383 $551 forward 7 unknown #
edge $-1 $388 149.15445665128021 $550 156.6258735923337 $237 $552 forward 7 unknown #
coedge $-1 $238 $542 $548 $553 forward $376 $-1 #
vertex $-1 $384 $554 #
vertex $-1 $239 $555 #
straight-curve $-1 69.683642769854657 -20.09464083148368 8.3118615467194132 -1 0 0 I I #
coedge $-1 $390 $390 $-1 $556 reversed $242 $-1 #
edge $-1 $557 0 $557 6.2831853071796004 $243 $558 forward 7 unknown #
vertex $-1 $246 $559 #
ellipse-curve $-1 76.501829442607942 -26.479199291481123 5.044537269784219 0.87461971476443456 0 0.48480960649040278 0.48480960649040278 0 -0.87461971476443456 1 I I #
coedge $-1 $394 $394 $-1 $560 reversed $249 $-1 #
edge $-1 $561 0 $561 6.2831853071796004 $250 $562 forward 7 unknown #
vertex $-1 $253 $563 #
ellipse-curve $-1 76.501829442607942 -22.648464215482655 5.044537269784219 0.87461971476443456 0 0.48480960649040278 0.48480960649040278 0 -0.87461971476443456 1 I I #
face $-1 $-1 $410 $55 $-1 $564 forward single #
loop $-1 $-1 $565 $254 #
plane-surface $-1 78.312936796166866 0 0 -1 0 0 0 0 1 forward_v I I I I #
coedge $-1 $566 $567 $568 $569 reversed $255 $-1 #
coedge $-1 $570 $257 $259 $408 forward $160 $-1 #
coedge $-1 $257 $570 $566 $571 forward $160 $-1 #
coedge $-1 $568 $260 $257 $405 forward $410 $-1 #
edge $-1 $412 -0.45308106566272066 $572 8.4853007783336967 $404 $573 forward 7 unknown #
coedge $-1 $574 $575 $258 $407 forward $399 $-1 #
edge $-1 $576 -105.57229601786156 $411 -99.037647463991206 $406 $577 forward 7 unknown #
edge $-1 $412 149.15445665128021 $576 156.6258735923337 $259 $578 forward 7 unknown #
coedge $-1 $260 $568 $574 $579 forward $410 $-1 #
loop $-1 $-1 $568 $398 #
vertex $-1 $407 $580 #
vertex $-1 $261 $581 #
straight-curve $-1 69.683642769854657 -3.5630287906727673 8.3118615467194132 -1 0 0 I I #
coedge $-1 $414 $414 $-1 $582 reversed $264 $-1 #
edge $-1 $583 0 $583 6.2831853071796004 $265 $584 forward 7 unknown #
vertex $-1 $268 $585 #
ellipse-curve $-1 76.501829442607942 -9.9475872506702103 5.044537269784219 0.87461971476443456 0 0.48480960649040278 0.48480960649040278 0 -0.87461971476443456 1 I I #
coedge $-1 $418 $418 $-1 $586 reversed $271 $-1 #
edge $-1 $587 0 $587 6.2831853071796004 $272 $588 forward 7 unknown #
vertex $-1 $275 $589 #
ellipse-curve $-1 76.501829442607942 -6.1168521746717417 5.044537269784219 0.87461971476443456 0 0.48480960649040278 0.48480960649040278 0 -0.87461971476443456 1 I I #
face $-1 $-1 $434 $58 $-1 $590 forward single #
loop $-1 $-1 $591 $276 #
plane-surface $-1 78.312936796166866 0 0 -1 0 0 0 0 1 forward_v I I I I #
coedge $-1 $592 $593 $594 $595 reversed $277 $-1 #
coedge $-1 $596 $279 $281 $432 forward $174 $-1 #
coedge $-1 $279 $596 $592 $597 forward $174 $-1 #
coedge $-1 $594 $282 $279 $429 forward $434 $-1 #
edge $-1 $436 -8.7188870860681789 $598 0.21949475792823847 $428 $599 forward 7 unknown #
coedge $-1 $600 $601 $280 $431 forward $423 $-1 #
edge $-1 $602 -105.57229601786156 $435 -99.037647463991206 $430 $603 forward 7 unknown #
edge $-1 $436 149.15445665128021 $602 156.6258735923337 $281 $604 forward 7 unknown #
coedge $-1 $282 $594 $600 $605 forward $434 $-1 #
loop $-1 $-1 $594 $422 #
vertex $-1 $431 $606 #
vertex $-1 $283 $607 #
straight-curve $-1 69.683642769854657 12.968583250138149 8.3118615467194132 -1 0 0 I I #
coedge $-1 $438 $438 $-1 $608 reversed $286 $-1 #
edge $-1 $609 0 $609 6.2831853071796004 $287 $610 forward 7 unknown #
vertex $-1 $290 $611 #
ellipse-curve $-1 76.501829442607942 6.5840247901407025 5.044537269784219 0.87461971476443456 0 0.48480960649040278 0.48480960649040278 0 -0.87461971476443456 1 I I #
coedge $-1 $442 $442 $-1 $612 reversed $293 $-1 #
edge $-1 $613 0 $613 6.2831853071796004 $294 $614 forward 7 unknown #
vertex $-1 $297 $615 #
ellipse-curve $-1 76.501829442607942 10.414759866139171 5.044537269784219 0.87461971476443456 0 0.48480960649040278 0.48480960649040278 0 -0.87461971476443456 1 I I #
face $-1 $-1 $458 $61 $-1 $616 forward single #
loop $-1 $-1 $617 $298 #
plane-surface $-1 78.312936796166866 0 0 -1 0 0 0 0 1 forward_v I I I I #
coedge $-1 $618 $619 $620 $621 reversed $299 $-1 #
coedge $-1 $622 $301 $303 $456 forward $188 $-1 #
coedge $-1 $301 $622 $618 $623 forward $188 $-1 #
coedge $-1 $620 $304 $301 $453 forward $458 $-1 #
edge $-1 $460 -16.984693106473635 $624 -8.046311262477218 $452 $625 forward 7 unknown #
coedge $-1 $626 $627 $302 $455 forward $447 $-1 #
edge $-1 $628 -105.57229601786156 $459 -99.037647463991206 $454 $629 forward 7 unknown #
edge $-1 $460 149.15445665128021 $628 156.6258735923337 $303 $630 forward 7 unknown #
coedge $-1 $304 $620 $626 $631 forward $458 $-1 #
loop $-1 $-1 $620 $446 #
vertex $-1 $455 $632 #
vertex $-1 $305 $633 #
straight-curve $-1 69.683642769854657 29.500195290949062 8.3118615467194132 -1 0 0 I I #
coedge $-1 $462 $462 $-1 $634 reversed $308 $-1 #
edge $-1 $635 0 $635 6.2831853071796004 $309 $636 forward 7 unknown #
vertex $-1 $312 $637 #
ellipse-curve $-1 76.501829442607942 23.115636830951615 5.044537269784219 0.87461971476443456 0 0.48480960649040278 0.48480960649040278 0 -0.87461971476443456 1 I I #
coedge $-1 $466 $466 $-1 $638 reversed $315 $-1 #
edge $-1 $639 0 $639 6.2831853071796004 $316 $640 forward 7 unknown #
vertex $-1 $319 $641 #
ellipse-curve $-1 76.501829442607942 26.946371906950084 5.044537269784219 0.87461971476443456 0 0.48480960649040278 0.48480960649040278 0 -0.87461971476443456 1 I I #
face $-1 $-1 $335 $48 $-1 $642 reversed single #
loop $-1 $-1 $486 $320 #
plane-surface $-1 0 37.093425487763561 0 0 -1 0 0 0 -1 forward_v I I I I #
coedge $-1 $643 $484 $487 $644 forward $321 $-1 #
coedge $-1 $490 $323 $324 $478 reversed $202 $-1 #
coedge $-1 $484 $643 $323 $476 reversed $321 $-1 #
edge $-1 $491 -8.3118615467194186 $645 8.3118615467194186 $475 $646 forward 7 unknown #
coedge $-1 $325 $324 $643 $647 forward $129 $-1 #
edge $-1 $482 -78.312936796166866 $645 78.312936796166866 $474 $648 forward 7 unknown #
coedge $-1 $487 $486 $325 $480 reversed $471 $-1 #
edge $-1 $649 -78.312936796166866 $481 78.312936796166866 $479 $650 forward 7 unknown #
vertex $-1 $327 $651 #
vertex $-1 $493 $652 #
straight-curve $-1 78.312936796166866 0 -8.3118615467194186 0 -1 0 I I #
coedge $-1 $473 $475 $328 $485 reversed $321 $-1 #
edge $-1 $488 -37.093425487763561 $491 37.093425487763561 $484 $653 forward 7 unknown #
coedge $-1 $479 $329 $334 $494 forward $471 $-1 #
coedge $-1 $329 $479 $473 $644 reversed $471 $-1 #
vertex $-1 $330 $654 #
straight-curve $-1 0 37.093425487763561 8.3118615467194186 -1 0 0 I I #
coedge $-1 $331 $474 $333 $493 reversed $202 $-1 #
vertex $-1 $485 $655 #
straight-curve $-1 0 -37.093425487763561 8.3118615467194186 1 0 0 I I #
edge $-1 $336 -8.3118615467194186 $482 8.3118615467194186 $333 $656 forward 7 unknown #
edge $-1 $337 -8.3118615467194186 $481 8.3118615467194186 $334 $657 forward 7 unknown #
point $-1 78.312936796166866 -37.093425487763561 8.3118615467194186 #
point $-1 78.312936796166866 37.093425487763561 8.3118615467194186 #
face $-1 $-1 $658 $49 $-1 $659 reversed single #
loop $-1 $-1 $349 $339 #
plane-surface $-1 0 -37.093425487763561 0 0 1 0 0 0 1 forward_v I I I I #
coedge $-1 $660 $342 $504 $661 forward $210 $-1 #
coedge $-1 $342 $660 $662 $663 forward $210 $-1 #
edge $-1 $664 -78.312936796166866 $505 78.312936796166866 $342 $665 forward 7 unknown #
coedge $-1 $344 $343 $666 $667 reversed $133 $-1 #
coedge $-1 $345 $351 $500 $661 reversed $340 $-1 #
vertex $-1 $661 $668 #
straight-curve $-1 78.312936796166866 -29.033022675480094 -3.0033629546167155 0 0 1 I I #
coedge $-1 $666 $669 $347 $508 forward $658 $-1 #
edge $-1 $513 -20.561813446952641 $509 -12.501410634669181 $507 $670 forward 7 unknown #
vertex $-1 $508 $671 #
straight-curve $-1 0 -29.033022675480094 -3.7015902717474432 -1 0 0 I I #
coedge $-1 $672 $349 $669 $673 forward $498 $-1 #
coedge $-1 $349 $672 $351 $515 reversed $498 $-1 #
vertex $-1 $673 $674 #
straight-curve $-1 0 -37.093425487763561 -3.7015902717474432 -1 0 0 I I #
edge $-1 $353 3.7015902717474432 $675 8.3118615467194186 $351 $676 forward 7 unknown #
point $-1 78.312936796166866 -29.033022675480094 -3.7015902717474432 #
point $-1 78.312936796166866 -37.093425487763554 -3.7015902717474432 #
plane-surface $-1 0 0 8.3118615467194186 0 0 1 1 0 0 forward_v I I I I #
coedge $-1 $363 $677 $523 $678 forward $356 $-1 #
coedge $-1 $521 $358 $677 $679 reversed $218 $-1 #
coedge $-1 $358 $520 $524 $680 reversed $218 $-1 #
edge $-1 $525 19.094102243199181 $681 23.18639165918432 $358 $682 forward 7 unknown #
coedge $-1 $360 $359 $519 $678 reversed $137 $-1 #
coedge $-1 $366 $361 $521 $680 forward $367 $-1 #
vertex $-1 $680 $683 #
straight-curve $-1 -75.682463904734206 14.282962430514754 8.3118615467194203 0 1 0 I I #
coedge $-1 $677 $363 $366 $531 reversed $356 $-1 #
vertex $-1 $364 $684 #
straight-curve $-1 -78.312936796166866 20.038424234295473 52.927077650380291 0 0 1 I I #
straight-curve $-1 -78.312936796166852 20.038424234295473 5.1769859460580818 -0.64278759981090561 0 -0.7660444514056185 I I #
edge $-1 $685 -37.093425487763561 $368 -20.038424234295473 $527 $686 forward 7 unknown #
point $-1 -78.312936796166866 20.038424234295473 8.3118615467194186 #
point $-1 -75.682463904734206 20.038424234295473 8.3118615467194186 #
edge $-1 $687 1 $687 0 $371 $-1 forward 7 unknown #
vertex $-1 $372 $688 #
ellipse-curve $-1 -75.636111102294933 28.565924861029522 5.6019147403586826 -0.7660444514056185 0 0.64278759981090561 0.3213937999054528 0 0.38302222570280925 1 I I #
point $-1 -76.676306550545092 28.565924861029522 7.1274459720915511 #
loop $-1 $-1 $383 $375 #
plane-surface $-1 78.312936796166866 0 0 -1 0 0 0 0 1 forward_v I I I I #
coedge $-1 $541 $378 $380 $545 reversed $233 $-1 #
coedge $-1 $378 $540 $689 $690 reversed $233 $-1 #
coedge $-1 $386 $381 $378 $543 forward $376 $-1 #
edge $-1 $546 5.0070793191943466 $691 8.6292940263122091 $542 $692 forward 7 unknown #
coedge $-1 $380 $379 $549 $693 reversed $146 $-1 #
edge $-1 $694 -156.6258735923337 $546 -149.15445665128021 $540 $695 forward 7 unknown #
vertex $-1 $382 $696 #
straight-curve $-1 74.690722089049004 -12.281915876740944 8.3118615467194275 0 -1 0 I I #
coedge $-1 $689 $383 $386 $553 reversed $538 $-1 #
coedge $-1 $383 $689 $544 $693 forward $538 $-1 #
vertex $-1 $384 $697 #
straight-curve $-1 78.312936796166866 -20.09464083148368 107.34950901071062 0 0 1 I I #
straight-curve $-1 2.3792086536520003 -20.09464083148368 138.76528987890634 0.48480960649040278 0 -0.87461971476443456 I I #
edge $-1 $691 -29.033022675480098 $387 -20.09464083148368 $548 $698 forward 7 unknown #
point $-1 78.312936796166866 -20.09464083148368 8.3118615467194186 #
point $-1 74.690722089049004 -20.09464083148368 8.3118615467194275 #
edge $-1 $699 1 $699 0 $390 $-1 forward 7 unknown #
vertex $-1 $391 $700 #
ellipse-curve $-1 75.02944037110808 -26.479199291481123 4.2283787104646704 0.87461971476443456 0 0.48480960649040278 0.48480960649040278 0 -0.87461971476443456 1 I I #
point $-1 76.986639049098343 -26.479199291481123 4.1699175550197829 #
edge $-1 $701 1 $701 0 $394 $-1 forward 7 unknown #
vertex $-1 $395 $702 #
ellipse-curve $-1 75.02944037110808 -22.648464215482655 4.2283787104646704 0.87461971476443456 0 0.48480960649040278 0.48480960649040278 0 -0.87461971476443456 1 I I #
point $-1 76.986639049098343 -22.648464215482655 4.1699175550197829 #
plane-surface $-1 0 0 8.3118615467194186 0 0 1 1 0 0 forward_v I I I I #
coedge $-1 $575 $574 $567 $703 forward $399 $-1 #
coedge $-1 $567 $401 $403 $571 reversed $255 $-1 #
coedge $-1 $401 $566 $565 $703 reversed $255 $-1 #
coedge $-1 $409 $404 $401 $569 forward $410 $-1 #
edge $-1 $572 5.0070793191943466 $704 8.6292940263122091 $568 $705 forward 7 unknown #
coedge $-1 $403 $402 $575 $706 reversed $160 $-1 #
edge $-1 $707 -156.6258735923337 $572 -149.15445665128021 $566 $708 forward 7 unknown #
vertex $-1 $405 $709 #
straight-curve $-1 74.690722089049004 -4.016109856335488 8.3118615467194275 0 -1 0 I I #
coedge $-1 $565 $406 $409 $579 reversed $399 $-1 #
coedge $-1 $406 $565 $570 $706 forward $399 $-1 #
vertex $-1 $407 $710 #
straight-curve $-1 78.312936796166866 -3.5630287906727673 107.34950901071062 0 0 1 I I #
straight-curve $-1 2.3792086536520003 -3.5630287906727673 138.76528987890634 0.48480960649040278 0 -0.87461971476443456 I I #
edge $-1 $704 -12.501410634669185 $411 -3.5630287906727673 $574 $711 forward 7 unknown #
point $-1 78.312936796166866 -3.5630287906727673 8.3118615467194186 #
point $-1 74.690722089049004 -3.5630287906727673 8.3118615467194275 #
edge $-1 $712 1 $712 0 $414 $-1 forward 7 unknown #
vertex $-1 $415 $713 #
ellipse-curve $-1 75.02944037110808 -9.9475872506702103 4.2283787104646704 0.87461971476443456 0 0.48480960649040278 0.48480960649040278 0 -0.87461971476443456 1 I I #
point $-1 76.986639049098343 -9.9475872506702103 4.1699175550197829 #
edge $-1 $714 1 $714 0 $418 $-1 forward 7 unknown #
vertex $-1 $419 $715 #
ellipse-curve $-1 75.02944037110808 -6.1168521746717417 4.2283787104646704 0.87461971476443456 0 0.48480960649040278 0.48480960649040278 0 -0.87461971476443456 1 I I #
point $-1 76.986639049098343 -6.1168521746717417 4.1699175550197829 #
plane-surface $-1 0 0 8.3118615467194186 0 0 1 1 0 0 forward_v I I I I #
coedge $-1 $601 $600 $593 $716 forward $423 $-1 #
coedge $-1 $593 $425 $427 $597 reversed $277 $-1 #
coedge $-1 $425 $592 $591 $716 reversed $277 $-1 #
coedge $-1 $433 $428 $425 $595 forward $434 $-1 #
edge $-1 $598 5.0070793191943466 $717 8.6292940263122091 $594 $718 forward 7 unknown #
coedge $-1 $427 $426 $601 $719 reversed $174 $-1 #
edge $-1 $720 -156.6258735923337 $598 -149.15445665128021 $592 $721 forward 7 unknown #
vertex $-1 $429 $722 #
straight-curve $-1 74.690722089049004 4.2496961640699702 8.3118615467194275 0 -1 0 I I #
coedge $-1 $591 $430 $433 $605 reversed $423 $-1 #
coedge $-1 $430 $591 $596 $719 forward $423 $-1 #
vertex $-1 $431 $723 #
straight-curve $-1 78.312936796166866 12.968583250138149 107.34950901071062 0 0 1 I I #
straight-curve $-1 2.3792086536520003 12.968583250138149 138.76528987890634 0.48480960649040278 0 -0.87461971476443456 I I #
edge $-1 $717 4.0302014061417317 $435 12.968583250138149 $600 $724 forward 7 unknown #
point $-1 78.312936796166866 12.968583250138149 8.3118615467194186 #
point $-1 74.690722089049004 12.968583250138149 8.3118615467194275 #
edge $-1 $725 1 $725 0 $438 $-1 forward 7 unknown #
vertex $-1 $439 $726 #
ellipse-curve $-1 75.02944037110808 6.5840247901407025 4.2283787104646704 0.87461971476443456 0 0.48480960649040278 0.48480960649040278 0 -0.87461971476443456 1 I I #
point $-1 76.986639049098343 6.5840247901407025 4.1699175550197829 #
edge $-1 $727 1 $727 0 $442 $-1 forward 7 unknown #
vertex $-1 $443 $728 #
ellipse-curve $-1 75.02944037110808 10.414759866139171 4.2283787104646704 0.87461971476443456 0 0.48480960649040278 0.48480960649040278 0 -0.87461971476443456 1 I I #
point $-1 76.986639049098343 10.414759866139171 4.1699175550197829 #
plane-surface $-1 0 0 8.3118615467194186 0 0 1 1 0 0 forward_v I I I I #
coedge $-1 $627 $626 $619 $729 forward $447 $-1 #
coedge $-1 $619 $449 $451 $623 reversed $299 $-1 #
coedge $-1 $449 $618 $617 $729 reversed $299 $-1 #
coedge $-1 $457 $452 $449 $621 forward $458 $-1 #
edge $-1 $624 5.0070793191943466 $730 8.6292940263122091 $620 $731 forward 7 unknown #
coedge $-1 $451 $450 $627 $732 reversed $188 $-1 #
edge $-1 $733 -156.6258735923337 $624 -149.15445665128021 $618 $734 forward 7 unknown #
vertex $-1 $453 $735 #
straight-curve $-1 74.690722089049004 12.515502184475427 8.3118615467194275 0 -1 0 I I #
coedge $-1 $617 $454 $457 $631 reversed $447 $-1 #
coedge $-1 $454 $617 $622 $732 forward $447 $-1 #
vertex $-1 $455 $736 #
straight-curve $-1 78.312936796166866 29.500195290949062 107.34950901071062 0 0 1 I I #
straight-curve $-1 2.3792086536520003 29.500195290949062 138.76528987890634 0.48480960649040278 0 -0.87461971476443456 I I #
edge $-1 $730 20.561813446952645 $459 29.500195290949062 $626 $737 forward 7 unknown #
point $-1 78.312936796166866 29.500195290949062 8.3118615467194186 #
point $-1 74.690722089049004 29.500195290949062 8.3118615467194275 #
edge $-1 $738 1 $738 0 $462 $-1 forward 7 unknown #
vertex $-1 $463 $739 #
ellipse-curve $-1 75.02944037110808 23.115636830951615 4.2283787104646704 0.87461971476443456 0 0.48480960649040278 0.48480960649040278 0 -0.87461971476443456 1 I I #
point $-1 76.986639049098343 23.115636830951615 4.1699175550197829 #
edge $-1 $740 1 $740 0 $466 $-1 forward 7 unknown #
vertex $-1 $467 $741 #
ellipse-curve $-1 75.02944037110808 26.946371906950084 4.2283787104646704 0.87461971476443456 0 0.48480960649040278 0.48480960649040278 0 -0.87461971476443456 1 I I #
point $-1 76.986639049098343 26.946371906950084 4.1699175550197829 #
plane-surface $-1 78.312936796166866 0 0 -1 0 0 0 0 1 forward_v I I I I #
coedge $-1 $475 $473 $477 $647 reversed $321 $-1 #
edge $-1 $488 -8.3118615467194186 $649 8.3118615467194186 $487 $742 forward 7 unknown #
vertex $-1 $647 $743 #
straight-curve $-1 -78.312936796166866 -37.093425487763561 0 0 0 -1 I I #
edge $-1 $645 -37.093425487763561 $649 37.093425487763561 $643 $744 forward 7 unknown #
straight-curve $-1 0 -37.093425487763561 -8.3118615467194186 -1 0 0 I I #
vertex $-1 $480 $745 #
straight-curve $-1 0 37.093425487763561 -8.3118615467194186 1 0 0 I I #
point $-1 78.312936796166866 37.093425487763561 -8.3118615467194186 #
point $-1 78.312936796166866 -37.093425487763561 -8.3118615467194186 #
straight-curve $-1 -78.312936796166866 0 8.3118615467194186 0 -1 0 I I #
point $-1 -78.312936796166866 37.093425487763561 8.3118615467194186 #
point $-1 -78.312936796166866 -37.093425487763561 8.3118615467194186 #
straight-curve $-1 78.312936796166866 -37.093425487763561 0 0 0 -1 I I #
straight-curve $-1 78.312936796166866 37.093425487763561 0 0 0 -1 I I #
loop $-1 $-1 $666 $497 #
plane-surface $-1 -78.312936796166866 0 0 1 0 0 0 0 -1 forward_v I I I I #
coedge $-1 $501 $500 $672 $746 forward $210 $-1 #
edge $-1 $505 29.033022675480094 $675 37.093425487763561 $504 $747 forward 7 unknown #
coedge $-1 $669 $666 $501 $663 reversed $658 $-1 #
edge $-1 $748 -37.093425487763561 $664 -29.033022675480094 $662 $749 forward 7 unknown #
vertex $-1 $667 $750 #
straight-curve $-1 0 -29.033022675480094 -8.3118615467194186 1 0 0 I I #
coedge $-1 $662 $507 $503 $667 forward $658 $-1 #
edge $-1 $509 0.69822731713072761 $664 5.308498592102703 $666 $751 forward 7 unknown #
point $-1 78.312936796166866 -29.033022675480094 -8.3118615467194186 #
coedge $-1 $507 $662 $511 $673 reversed $658 $-1 #
straight-curve $-1 -78.312936796166866 -16.531612040810913 -3.7015902717474432 0 1 0 I I #
point $-1 -78.312936796166866 -29.033022675480094 -3.7015902717474432 #
coedge $-1 $512 $511 $660 $746 reversed $498 $-1 #
edge $-1 $513 3.7015902717474432 $748 8.3118615467194186 $669 $752 forward 7 unknown #
point $-1 -78.312936796166866 -37.093425487763554 -3.7015902717474432 #
vertex $-1 $515 $753 #
straight-curve $-1 78.312936796166866 -37.093425487763561 0 0 0 -1 I I #
coedge $-1 $519 $527 $520 $679 forward $356 $-1 #
edge $-1 $681 -22.810463057248786 $528 -5.7554618037807188 $519 $754 forward 7 unknown #
edge $-1 $685 -8.3118615467194186 $681 -5.1769859460580649 $520 $755 forward 7 unknown #
edge $-1 $525 75.682463904734206 $685 78.312936796166866 $521 $756 forward 7 unknown #
vertex $-1 $522 $757 #
straight-curve $-1 -63.409011753284176 37.093425487763561 22.938792624693722 -0.64278759981090572 0 -0.76604445140561861 I I #
point $-1 -75.682463904734206 37.09342548776354 8.3118615467194186 #
point $-1 -78.312936796166866 20.038424234295473 5.1769859460580649 #
vertex $-1 $680 $758 #
straight-curve $-1 -78.312936796166866 0 8.3118615467194186 0 -1 0 I I #
vertex $-1 $534 $759 #
point $-1 -75.314717302389482 28.565924861029522 5.9849369660614915 #
coedge $-1 $549 $548 $541 $690 forward $538 $-1 #
edge $-1 $691 99.037647463991206 $694 105.57229601786156 $689 $760 forward 7 unknown #
vertex $-1 $553 $761 #
straight-curve $-1 69.683642769854657 -29.033022675480098 8.3118615467194132 1 0 0 I I #
edge $-1 $694 -16.751106798739151 $550 -7.8127249547427358 $549 $762 forward 7 unknown #
vertex $-1 $693 $763 #
straight-curve $-1 2.3792086536520003 -29.033022675480098 138.76528987890634 -0.48480960649040278 0 0.87461971476443456 I I #
point $-1 74.690722089049004 -29.033022675480098 8.3118615467194275 #
point $-1 78.312936796166866 -20.09464083148368 1.7772129928490585 #
straight-curve $-1 78.312936796166866 0 8.3118615467194186 0 1 0 I I #
vertex $-1 $556 $764 #
point $-1 75.514249977598482 -26.479199291481123 3.3537589957002356 #
vertex $-1 $560 $765 #
point $-1 75.514249977598482 -22.648464215482655 3.3537589957002356 #
edge $-1 $704 99.037647463991206 $707 105.57229601786156 $565 $766 forward 7 unknown #
vertex $-1 $579 $767 #
straight-curve $-1 69.683642769854657 -12.501410634669185 8.3118615467194132 1 0 0 I I #
edge $-1 $707 -8.4853007783336967 $576 0.45308106566272066 $575 $768 forward 7 unknown #
vertex $-1 $706 $769 #
straight-curve $-1 2.3792086536520003 -12.501410634669185 138.76528987890634 -0.48480960649040278 0 0.87461971476443456 I I #
point $-1 74.690722089049004 -12.501410634669185 8.3118615467194275 #
point $-1 78.312936796166866 -3.5630287906727673 1.7772129928490585 #
straight-curve $-1 78.312936796166866 0 8.3118615467194186 0 1 0 I I #
vertex $-1 $582 $770 #
point $-1 75.514249977598482 -9.9475872506702103 3.3537589957002356 #
vertex $-1 $586 $771 #
point $-1 75.514249977598482 -6.1168521746717417 3.3537589957002356 #
edge $-1 $717 99.037647463991206 $720 105.57229601786156 $591 $772 forward 7 unknown #
vertex $-1 $605 $773 #
straight-curve $-1 69.683642769854657 4.0302014061417317 8.3118615467194132 1 0 0 I I #
edge $-1 $720 -0.21949475792823847 $602 8.7188870860681789 $601 $774 forward 7 unknown #
vertex $-1 $719 $775 #
straight-curve $-1 2.3792086536520003 4.0302014061417317 138.76528987890634 -0.48480960649040278 0 0.87461971476443456 I I #
point $-1 74.690722089049004 4.0302014061417317 8.3118615467194275 #
point $-1 78.312936796166866 12.968583250138149 1.7772129928490585 #
straight-curve $-1 78.312936796166866 0 8.3118615467194186 0 1 0 I I #
vertex $-1 $608 $776 #
point $-1 75.514249977598482 6.5840247901407025 3.3537589957002356 #
vertex $-1 $612 $777 #
point $-1 75.514249977598482 10.414759866139171 3.3537589957002356 #
edge $-1 $730 99.037647463991206 $733 105.57229601786156 $617 $778 forward 7 unknown #
vertex $-1 $631 $779 #
straight-curve $-1 69.683642769854657 20.561813446952645 8.3118615467194132 1 0 0 I I #
edge $-1 $733 8.046311262477218 $628 16.984693106473635 $627 $780 forward 7 unknown #
vertex $-1 $732 $781 #
straight-curve $-1 2.3792086536520003 20.561813446952645 138.76528987890634 -0.48480960649040278 0 0.87461971476443456 I I #
point $-1 74.690722089049004 20.561813446952645 8.3118615467194275 #
point $-1 78.312936796166866 29.500195290949062 1.7772129928490585 #
straight-curve $-1 78.312936796166866 0 8.3118615467194186 0 1 0 I I #
vertex $-1 $634 $782 #
point $-1 75.514249977598482 23.115636830951615 3.3537589957002356 #
vertex $-1 $638 $783 #
point $-1 75.514249977598482 26.946371906950084 3.3537589957002356 #
straight-curve $-1 -78.312936796166866 37.093425487763561 0 0 0 -1 I I #
point $-1 -78.312936796166866 -37.093425487763561 -8.3118615467194186 #
straight-curve $-1 -78.312936796166866 0 -8.3118615467194186 0 1 0 I I #
point $-1 -78.312936796166866 37.093425487763561 -8.3118615467194186 #
edge $-1 $675 -78.312936796166866 $748 78.312936796166866 $672 $784 forward 7 unknown #
straight-curve $-1 78.312936796166866 0 -8.3118615467194186 0 -1 0 I I #
vertex $-1 $663 $785 #
straight-curve $-1 -78.312936796166866 0 -8.3118615467194186 0 1 0 I I #
point $-1 -78.312936796166866 -29.033022675480094 -8.3118615467194186 #
straight-curve $-1 -78.312936796166866 -29.033022675480094 -3.0033629546167155 0 0 -1 I I #
straight-curve $-1 -78.312936796166866 -37.093425487763561 0 0 0 -1 I I #
point $-1 78.312936796166866 -37.093425487763561 -8.3118615467194186 #
straight-curve $-1 -78.312936796166866 14.282962430514754 5.1769859460580783 0 -1 0 I I #
straight-curve $-1 -78.312936796166866 37.093425487763561 0 0 0 -1 I I #
straight-curve $-1 0 37.093425487763561 8.3118615467194186 -1 0 0 I I #
point $-1 -78.312936796166866 37.09342548776354 5.1769859460580649 #
point $-1 -78.312936796166866 37.093425487763561 8.3118615467194186 #
point $-1 -75.25308887659213 28.565924861029522 5.2805209404532301 #
straight-curve $-1 78.312936796166866 -29.033022675480098 107.34950901071062 0 0 -1 I I #
point $-1 78.312936796166866 -29.033022675480098 8.3118615467194186 #
straight-curve $-1 78.312936796166866 -12.281915876740944 1.777212992849087 0 1 0 I I #
point $-1 78.312936796166866 -29.033022675480098 1.7772129928490585 #
point $-1 74.154820656343645 -26.479199291481123 3.7435691039742673 #
point $-1 74.154820656343645 -22.648464215482655 3.7435691039742673 #
straight-curve $-1 78.312936796166866 -12.501410634669185 107.34950901071062 0 0 -1 I I #
point $-1 78.312936796166866 -12.501410634669185 8.3118615467194186 #
straight-curve $-1 78.312936796166866 -4.016109856335488 1.777212992849087 0 1 0 I I #
point $-1 78.312936796166866 -12.501410634669185 1.7772129928490585 #
point $-1 74.154820656343645 -9.9475872506702103 3.7435691039742673 #
point $-1 74.154820656343645 -6.1168521746717417 3.7435691039742673 #
straight-curve $-1 78.312936796166866 4.0302014061417317 107.34950901071062 0 0 -1 I I #
point $-1 78.312936796166866 4.0302014061417317 8.3118615467194186 #
straight-curve $-1 78.312936796166866 4.2496961640699702 1.777212992849087 0 1 0 I I #
point $-1 78.312936796166866 4.0302014061417317 1.7772129928490585 #
point $-1 74.154820656343645 6.5840247901407025 3.7435691039742673 #
point $-1 74.154820656343645 10.414759866139171 3.7435691039742673 #
straight-curve $-1 78.312936796166866 20.561813446952645 107.34950901071062 0 0 -1 I I #
point $-1 78.312936796166866 20.561813446952645 8.3118615467194186 #
straight-curve $-1 78.312936796166866 12.515502184475427 1.777212992849087 0 1 0 I I #
point $-1 78.312936796166866 20.561813446952645 1.7772129928490585 #
point $-1 74.154820656343645 23.115636830951615 3.7435691039742673 #
point $-1 74.154820656343645 26.946371906950084 3.7435691039742673 #
straight-curve $-1 0 -37.093425487763561 -8.3118615467194186 -1 0 0 I I #
point $-1 -78.312936796166866 -37.093425487763561 -8.3118615467194186 #
End-of-ACIS-data 