500 0 10 0           
7 Unknown 11 ACIS 5.0 NT 24 Thu Mar 25 20:04:16 1999 
-1 9.9999999999999995e-007 1e-010 
body $-1 $10 $-1 $11 #
body $-1 $12 $-1 $13 #
body $-1 $14 $-1 $15 #
body $-1 $16 $-1 $17 #
body $-1 $18 $-1 $19 #
body $-1 $20 $-1 $21 #
body $-1 $22 $-1 $23 #
body $-1 $24 $-1 $25 #
body $-1 $26 $-1 $27 #
body $-1 $28 $-1 $29 #
lump $-1 $-1 $30 $0 #
transform $-1 1 0 0 0 1 0 0 0 1 66.215399639881582 43.040717044278502 19.506703954162965 1 rotate no_reflect no_shear #
lump $-1 $-1 $31 $1 #
transform $-1 1 0 0 0 1 0 0 0 1 66.215399639881582 43.040717044278502 19.506703954162965 1 rotate no_reflect no_shear #
lump $-1 $-1 $32 $2 #
transform $-1 1 0 0 0 1 0 0 0 1 66.215399639881582 43.040717044278502 19.506703954162965 1 rotate no_reflect no_shear #
lump $-1 $-1 $33 $3 #
transform $-1 1 0 0 0 1 0 0 0 1 66.215399639881582 43.040717044278502 19.506703954162965 1 rotate no_reflect no_shear #
lump $-1 $-1 $34 $4 #
transform $-1 1 0 0 0 1 0 0 0 1 66.215399639881582 43.040717044278502 19.506703954162965 1 rotate no_reflect no_shear #
lump $-1 $-1 $35 $5 #
transform $-1 1 0 0 0 1 0 0 0 1 66.215399639881582 43.040717044278502 19.506703954162965 1 rotate no_reflect no_shear #
lump $-1 $-1 $36 $6 #
transform $-1 1 0 0 0 1 0 0 0 1 66.215399639881582 43.040717044278502 19.506703954162965 1 rotate no_reflect no_shear #
lump $-1 $-1 $37 $7 #
transform $-1 1 0 0 0 1 0 0 0 1 66.215399639881582 43.040717044278502 19.506703954162965 1 rotate no_reflect no_shear #
lump $-1 $-1 $38 $8 #
transform $-1 1 0 0 0 1 0 0 0 1 66.215399639881582 43.040717044278502 19.506703954162965 1 rotate no_reflect no_shear #
lump $-1 $-1 $39 $9 #
transform $-1 1 0 0 0 1 0 0 0 1 66.215399639881582 43.040717044278502 19.506703954162965 1 rotate no_reflect no_shear #
shell $-1 $-1 $-1 $40 $-1 $10 #
shell $-1 $-1 $-1 $41 $-1 $12 #
shell $-1 $-1 $-1 $42 $-1 $14 #
shell $-1 $-1 $-1 $43 $-1 $16 #
shell $-1 $-1 $-1 $44 $-1 $18 #
shell $-1 $-1 $-1 $45 $-1 $20 #
shell $-1 $-1 $-1 $46 $-1 $22 #
shell $-1 $-1 $-1 $47 $-1 $24 #
shell $-1 $-1 $-1 $48 $-1 $26 #
shell $-1 $-1 $-1 $49 $-1 $28 #
face $-1 $50 $51 $30 $-1 $52 forward single #
face $-1 $53 $54 $31 $-1 $55 reversed single #
face $-1 $56 $57 $32 $-1 $58 reversed single #
face $-1 $59 $60 $33 $-1 $61 reversed single #
face $-1 $62 $63 $34 $-1 $64 forward single #
face $-1 $65 $66 $35 $-1 $67 forward single #
face $-1 $68 $69 $36 $-1 $70 reversed single #
face $-1 $71 $72 $37 $-1 $73 forward single #
face $-1 $74 $75 $38 $-1 $76 forward single #
face $-1 $77 $78 $39 $-1 $79 forward single #
face $-1 $80 $81 $30 $-1 $82 reversed single #
loop $-1 $-1 $83 $40 #
plane-surface $-1 0 0 19.506703954162965 0 0 1 1 0 0 forward_v I I I I #
face $-1 $84 $85 $31 $-1 $86 reversed single #
loop $-1 $-1 $87 $41 #
plane-surface $-1 -57.543914574507014 0 13.727737983380116 0 0 1 1 0 0 forward_v I I I I #
face $-1 $88 $89 $32 $-1 $90 reversed single #
loop $-1 $-1 $91 $42 #
plane-surface $-1 57.543914574507014 0 13.727737983380116 0 0 1 1 0 0 forward_v I I I I #
face $-1 $92 $93 $33 $-1 $94 reversed single #
loop $-1 $-1 $95 $43 #
plane-surface $-1 15.232338074679923 53.991873063145341 161.76233732193674 1 0 0 0 -0.6018150307709319 -0.79863550430605224 forward_v I I I I #
face $-1 $96 $97 $34 $-1 $98 forward single #
loop $-1 $99 $100 $44 #
cone-surface $-1 22.939713828056099 31.971021910275347 10.643840181578579 0 -0.6018150307709319 -0.79863550430605224 1.5 0 0 1 I I 0 1 1.5 forward I I I I #
face $-1 $101 $102 $35 $-1 $103 forward single #
loop $-1 $104 $105 $45 #
cone-surface $-1 34.500777458120382 31.971021910275347 10.643840181578579 0 -0.6018150307709319 -0.79863550430605224 1.5 0 0 1 I I 0 1 1.5 forward I I I I #
face $-1 $106 $107 $36 $-1 $108 reversed single #
loop $-1 $-1 $109 $46 #
plane-surface $-1 -8.0234698615774569 -141.45598135955549 90.576148768725432 -1 0 0 0 -0.74314483375859142 0.66913059716165679 forward_v I I I I #
face $-1 $110 $111 $37 $-1 $112 forward single #
loop $-1 $113 $114 $47 #
cone-surface $-1 -20.243143328248813 -33.970534881084326 9.6795710269963635 0 0.74314483375859142 -0.66913059716165679 1 0 0 1 I I 0 1 1 forward I I I I #
face $-1 $115 $116 $38 $-1 $117 forward single #
loop $-1 $118 $119 $48 #
cone-surface $-1 -15.660765778247054 -33.970534881084326 9.6795710269963635 0 0.74314483375859142 -0.66913059716165679 1 0 0 1 I I 0 1 1 forward I I I I #
face $-1 $120 $121 $39 $-1 $122 forward single #
loop $-1 $123 $124 $49 #
cone-surface $-1 -11.078388228245295 -33.970534881084326 9.6795710269963635 0 0.74314483375859142 -0.66913059716165679 1 0 0 1 I I 0 1 1 forward I I I I #
face $-1 $125 $126 $30 $-1 $127 reversed single #
loop $-1 $-1 $128 $50 #
plane-surface $-1 0 0 -19.506703954162965 0 0 1 1 0 0 forward_v I I I I #
coedge $-1 $129 $130 $131 $132 forward $51 $-1 #
face $-1 $133 $134 $31 $-1 $135 reversed single #
loop $-1 $-1 $136 $53 #
plane-surface $-1 -48.872429509132445 0 16.617220968771541 -1 0 0 0 0 1 forward_v I I I I #
coedge $-1 $137 $138 $139 $140 forward $54 $-1 #
face $-1 $141 $142 $32 $-1 $143 forward single #
loop $-1 $-1 $144 $56 #
plane-surface $-1 48.872429509132445 0 16.617220968771541 1 0 0 0 0 -1 forward_v I I I I #
coedge $-1 $145 $146 $147 $148 reversed $57 $-1 #
face $-1 $149 $150 $33 $-1 $151 reversed single #
loop $-1 $-1 $152 $59 #
plane-surface $-1 28.720245643088248 -25.706972480424433 55.998399153489501 0 0.6018150307709319 0.79863550430605224 1 0 0 forward_v I I I I #
coedge $-1 $153 $154 $155 $156 reversed $60 $-1 #
face $-1 $-1 $157 $34 $-1 $158 forward single #
loop $-1 $159 $160 $62 #
cone-surface $-1 22.939713828056099 30.610753172933748 8.8387026335068306 0 -0.6018150307709319 -0.79863550430605224 0.75 0 0 1 I I -0.70710678118654757 0.70710678118654757 0.75 forward I I I I #
loop $-1 $-1 $161 $44 #
coedge $-1 $100 $100 $162 $163 reversed $63 $-1 #
face $-1 $-1 $164 $35 $-1 $165 forward single #
loop $-1 $166 $167 $65 #
cone-surface $-1 34.500777458120382 30.610753172933748 8.8387026335068306 0 -0.6018150307709319 -0.79863550430605224 0.75 0 0 1 I I -0.70710678118654757 0.70710678118654757 0.75 forward I I I I #
loop $-1 $-1 $168 $45 #
coedge $-1 $105 $105 $169 $170 reversed $66 $-1 #
face $-1 $171 $172 $36 $-1 $173 reversed single #
loop $-1 $-1 $174 $68 #
plane-surface $-1 -15.660765778247054 -43.040717044278509 1.962648964061998 0 -0.74314483375859142 0.66913059716165679 1 0 0 forward_v I I I I #
coedge $-1 $175 $176 $177 $178 reversed $69 $-1 #
face $-1 $-1 $179 $37 $-1 $180 forward single #
loop $-1 $181 $182 $71 #
cone-surface $-1 -20.243143328248813 -32.427149137668003 8.2899002962994288 0 0.74314483375859142 -0.66913059716165679 0.5 0 0 1 I I -0.70710678118654746 0.70710678118654746 0.5 forward I I I I #
loop $-1 $-1 $183 $47 #
coedge $-1 $114 $114 $184 $185 reversed $72 $-1 #
face $-1 $-1 $186 $38 $-1 $187 forward single #
loop $-1 $188 $189 $74 #
cone-surface $-1 -15.660765778247054 -32.427149137668003 8.2899002962994288 0 0.74314483375859142 -0.66913059716165679 0.5 0 0 1 I I -0.70710678118654746 0.70710678118654746 0.5 forward I I I I #
loop $-1 $-1 $190 $48 #
coedge $-1 $119 $119 $191 $192 reversed $75 $-1 #
face $-1 $-1 $193 $39 $-1 $194 forward single #
loop $-1 $195 $196 $77 #
cone-surface $-1 -11.078388228245295 -32.427149137668003 8.2899002962994288 0 0.74314483375859142 -0.66913059716165679 0.5 0 0 1 I I -0.70710678118654746 0.70710678118654746 0.5 forward I I I I #
loop $-1 $-1 $197 $49 #
coedge $-1 $124 $124 $198 $199 reversed $78 $-1 #
face $-1 $200 $201 $30 $-1 $202 reversed single #
loop $-1 $-1 $203 $80 #
plane-surface $-1 0 -43.040717044278502 0 0 1 0 0 0 1 forward_v I I I I #
coedge $-1 $204 $205 $206 $207 forward $81 $-1 #
coedge $-1 $208 $83 $209 $210 forward $51 $-1 #
coedge $-1 $83 $208 $211 $212 forward $51 $-1 #
coedge $-1 $213 $214 $83 $132 reversed $215 $-1 #
edge $-1 $216 -43.040717044278502 $217 43.040717044278502 $131 $218 forward 7 unknown #
face $-1 $219 $220 $31 $-1 $221 reversed single #
loop $-1 $-1 $222 $84 #
plane-surface $-1 0 43.040717044278502 0 0 -1 0 0 0 -1 forward_v I I I I #
coedge $-1 $139 $223 $224 $225 reversed $85 $-1 #
coedge $-1 $226 $87 $227 $228 reversed $54 $-1 #
coedge $-1 $87 $226 $229 $230 reversed $54 $-1 #
coedge $-1 $231 $136 $87 $140 reversed $85 $-1 #
edge $-1 $232 -43.040717044278502 $233 43.040717044278502 $139 $234 forward 7 unknown #
face $-1 $235 $236 $32 $-1 $237 reversed single #
loop $-1 $-1 $238 $88 #
plane-surface $-1 0 0 19.506703954162965 0 0 1 1 0 0 forward_v I I I I #
coedge $-1 $239 $240 $241 $242 reversed $89 $-1 #
coedge $-1 $243 $91 $244 $245 reversed $57 $-1 #
coedge $-1 $91 $243 $246 $247 reversed $57 $-1 #
coedge $-1 $248 $249 $91 $148 forward $250 $-1 #
edge $-1 $251 -43.040717044278502 $252 43.040717044278502 $147 $253 forward 7 unknown #
face $-1 $254 $255 $33 $-1 $256 reversed single #
loop $-1 $-1 $257 $92 #
plane-surface $-1 42.208153211496573 53.991873063145341 161.76233732193674 -1 0 0 0 0.6018150307709319 0.79863550430605224 forward_v I I I I #
coedge $-1 $258 $259 $260 $261 reversed $93 $-1 #
coedge $-1 $154 $95 $262 $263 reversed $60 $-1 #
coedge $-1 $95 $153 $258 $264 reversed $60 $-1 #
coedge $-1 $260 $265 $95 $156 forward $266 $-1 #
edge $-1 $267 -16.044780512705831 $268 4.2767948267736848 $155 $269 forward 7 unknown #
loop $-1 $-1 $162 $96 #
plane-surface $-1 28.720245643088248 -25.706972480424433 55.998399153489501 0 0.6018150307709319 0.79863550430605224 1 0 0 forward_v I I I I #
loop $-1 $-1 $270 $62 #
coedge $-1 $160 $160 $161 $271 reversed $97 $-1 #
coedge $-1 $161 $161 $160 $271 forward $99 $-1 #
coedge $-1 $162 $162 $100 $163 forward $157 $-1 #
edge $-1 $272 9.3232905146161872e-016 $272 6.2831853071796013 $162 $273 forward 7 unknown #
loop $-1 $-1 $169 $101 #
plane-surface $-1 28.720245643088248 -25.706972480424433 55.998399153489501 0 0.6018150307709319 0.79863550430605224 1 0 0 forward_v I I I I #
loop $-1 $-1 $274 $65 #
coedge $-1 $167 $167 $168 $275 reversed $102 $-1 #
coedge $-1 $168 $168 $167 $275 forward $104 $-1 #
coedge $-1 $169 $169 $105 $170 forward $164 $-1 #
edge $-1 $276 9.3232905146161872e-016 $276 6.2831853071796013 $169 $277 forward 7 unknown #
face $-1 $278 $279 $36 $-1 $280 forward single #
loop $-1 $-1 $281 $106 #
plane-surface $-1 -23.298061694916651 -141.45598135955549 90.576148768725432 1 0 0 0 0.74314483375859142 -0.66913059716165679 forward_v I I I I #
coedge $-1 $282 $283 $284 $285 reversed $107 $-1 #
coedge $-1 $176 $109 $286 $287 reversed $69 $-1 #
coedge $-1 $109 $175 $282 $288 reversed $69 $-1 #
coedge $-1 $284 $289 $109 $178 forward $279 $-1 #
edge $-1 $290 27.687273635499245 $291 43.4840113088135 $177 $292 forward 7 unknown #
loop $-1 $-1 $184 $110 #
plane-surface $-1 -15.660765778247054 -43.040717044278509 1.962648964061998 0 -0.74314483375859142 0.66913059716165679 1 0 0 forward_v I I I I #
loop $-1 $-1 $293 $71 #
coedge $-1 $182 $182 $183 $294 reversed $111 $-1 #
coedge $-1 $183 $183 $182 $294 forward $113 $-1 #
coedge $-1 $184 $184 $114 $185 forward $179 $-1 #
edge $-1 $295 -2.3718959712476597e-015 $295 6.2831853071795978 $184 $296 forward 7 unknown #
loop $-1 $-1 $191 $115 #
plane-surface $-1 -15.660765778247054 -43.040717044278509 1.962648964061998 0 -0.74314483375859142 0.66913059716165679 1 0 0 forward_v I I I I #
loop $-1 $-1 $297 $74 #
coedge $-1 $189 $189 $190 $298 reversed $116 $-1 #
coedge $-1 $190 $190 $189 $298 forward $118 $-1 #
coedge $-1 $191 $191 $119 $192 forward $186 $-1 #
edge $-1 $299 -2.3718959712476597e-015 $299 6.2831853071795978 $191 $300 forward 7 unknown #
loop $-1 $-1 $198 $120 #
plane-surface $-1 -15.660765778247054 -43.040717044278509 1.962648964061998 0 -0.74314483375859142 0.66913059716165679 1 0 0 forward_v I I I I #
loop $-1 $-1 $301 $77 #
coedge $-1 $196 $196 $197 $302 reversed $121 $-1 #
coedge $-1 $197 $197 $196 $302 forward $123 $-1 #
coedge $-1 $198 $198 $124 $199 forward $193 $-1 #
edge $-1 $303 -2.3718959712476597e-015 $303 6.2831853071795978 $198 $304 forward 7 unknown #
face $-1 $305 $306 $30 $-1 $307 reversed single #
loop $-1 $-1 $308 $125 #
plane-surface $-1 -66.215399639881582 0 0 1 0 0 0 0 -1 forward_v I I I I #
coedge $-1 $309 $211 $310 $311 forward $126 $-1 #
coedge $-1 $312 $128 $309 $313 forward $81 $-1 #
coedge $-1 $128 $312 $314 $315 forward $81 $-1 #
coedge $-1 $214 $213 $128 $207 reversed $215 $-1 #
edge $-1 $316 -43.040717044278502 $317 43.040717044278502 $206 $318 forward 7 unknown #
coedge $-1 $130 $129 $319 $320 forward $51 $-1 #
coedge $-1 $321 $322 $129 $210 reversed $306 $-1 #
edge $-1 $217 -66.215399639881582 $323 66.215399639881582 $209 $324 forward 7 unknown #
coedge $-1 $203 $325 $130 $212 reversed $126 $-1 #
edge $-1 $326 -66.215399639881582 $216 66.215399639881582 $211 $327 forward 7 unknown #
coedge $-1 $206 $131 $325 $328 forward $215 $-1 #
coedge $-1 $131 $206 $321 $329 reversed $215 $-1 #
loop $-1 $-1 $213 $305 #
vertex $-1 $132 $330 #
vertex $-1 $132 $331 #
straight-curve $-1 66.215399639881582 0 19.506703954162965 0 1 0 I I #
face $-1 $332 $333 $31 $-1 $334 forward single #
loop $-1 $-1 $335 $133 #
plane-surface $-1 -66.215399639881582 0 0 1 0 0 0 0 -1 forward_v I I I I #
coedge $-1 $229 $336 $231 $337 forward $134 $-1 #
coedge $-1 $136 $231 $338 $339 reversed $85 $-1 #
coedge $-1 $340 $227 $136 $225 forward $341 $-1 #
edge $-1 $233 5.4191274989943459 $342 11.198093469777195 $224 $343 forward 7 unknown #
coedge $-1 $138 $137 $335 $344 reversed $54 $-1 #
coedge $-1 $224 $345 $137 $228 forward $341 $-1 #
edge $-1 $346 -37.443442352628075 $233 -20.100472221878938 $227 $347 forward 7 unknown #
coedge $-1 $348 $222 $138 $230 forward $134 $-1 #
edge $-1 $232 20.100472221878938 $349 37.443442352628075 $229 $350 forward 7 unknown #
coedge $-1 $223 $139 $222 $337 reversed $85 $-1 #
vertex $-1 $230 $351 #
vertex $-1 $228 $352 #
straight-curve $-1 -48.872429509132445 0 13.727737983380116 0 -1 0 I I #
face $-1 $353 $354 $32 $-1 $355 reversed single #
loop $-1 $-1 $356 $141 #
plane-surface $-1 0 -43.040717044278502 0 0 1 0 0 0 1 forward_v I I I I #
coedge $-1 $357 $358 $240 $359 forward $142 $-1 #
coedge $-1 $360 $144 $243 $361 reversed $89 $-1 #
coedge $-1 $144 $360 $238 $359 reversed $89 $-1 #
coedge $-1 $362 $246 $144 $242 forward $354 $-1 #
edge $-1 $363 5.4191274989943459 $364 11.198093469777195 $241 $365 forward 7 unknown #
coedge $-1 $146 $145 $239 $361 forward $57 $-1 #
coedge $-1 $366 $356 $145 $245 forward $236 $-1 #
edge $-1 $367 20.100472221878938 $251 37.443442352628075 $244 $368 forward 7 unknown #
coedge $-1 $241 $369 $146 $247 forward $354 $-1 #
edge $-1 $252 -37.443442352628075 $363 -20.100472221878938 $246 $370 forward 7 unknown #
coedge $-1 $371 $147 $369 $372 reversed $250 $-1 #
coedge $-1 $147 $371 $366 $373 forward $250 $-1 #
loop $-1 $-1 $147 $353 #
vertex $-1 $245 $374 #
vertex $-1 $148 $375 #
straight-curve $-1 66.215399639881582 0 13.727737983380116 0 1 0 I I #
face $-1 $-1 $266 $33 $-1 $376 forward single #
loop $-1 $-1 $377 $149 #
plane-surface $-1 0 43.040717044278502 0 0 -1 0 0 0 -1 forward_v I I I I #
coedge $-1 $378 $379 $380 $381 reversed $150 $-1 #
coedge $-1 $382 $152 $154 $264 forward $93 $-1 #
coedge $-1 $152 $382 $378 $383 forward $93 $-1 #
coedge $-1 $380 $155 $152 $261 forward $266 $-1 #
edge $-1 $268 0.87221525313579917 $384 27.848030389952449 $260 $385 forward 7 unknown #
coedge $-1 $386 $387 $153 $263 forward $255 $-1 #
edge $-1 $388 -76.687870412289755 $267 -61.374464706805405 $262 $389 forward 7 unknown #
edge $-1 $268 60.636064793164536 $388 86.081434088557018 $154 $390 forward 7 unknown #
coedge $-1 $155 $380 $386 $391 forward $266 $-1 #
loop $-1 $-1 $380 $254 #
vertex $-1 $263 $392 #
vertex $-1 $156 $393 #
straight-curve $-1 15.232338074679923 26.995936531572671 19.506703954162958 0 -1 0 I I #
coedge $-1 $270 $270 $-1 $394 reversed $159 $-1 #
edge $-1 $395 0 $395 6.2831853071796004 $160 $396 forward 7 unknown #
vertex $-1 $163 $397 #
ellipse-curve $-1 22.939713828056099 32.87992937453874 11.850001101420782 0 0.6018150307709319 0.79863550430605224 1.5 0 0 1 I I #
coedge $-1 $274 $274 $-1 $398 reversed $166 $-1 #
edge $-1 $399 0 $399 6.2831853071796004 $167 $400 forward 7 unknown #
vertex $-1 $170 $401 #
ellipse-curve $-1 34.500777458120382 32.87992937453874 11.850001101420782 0 0.6018150307709319 0.79863550430605224 1.5 0 0 1 I I #
face $-1 $-1 $402 $36 $-1 $403 reversed single #
loop $-1 $-1 $177 $171 #
plane-surface $-1 0 0 19.506703954162965 0 0 1 1 0 0 forward_v I I I I #
coedge $-1 $404 $405 $406 $407 reversed $172 $-1 #
coedge $-1 $408 $174 $176 $288 forward $107 $-1 #
coedge $-1 $174 $408 $404 $409 forward $107 $-1 #
coedge $-1 $406 $177 $174 $285 forward $279 $-1 #
edge $-1 $291 0.19308697245392992 $410 15.467678805793124 $284 $411 forward 7 unknown #
coedge $-1 $412 $413 $175 $287 forward $402 $-1 #
edge $-1 $414 -43.325425420300711 $290 -25.78137043019975 $286 $415 forward 7 unknown #
edge $-1 $291 -23.607854341620985 $414 -1.0694865687384493e-014 $176 $416 forward 7 unknown #
coedge $-1 $177 $406 $412 $417 forward $279 $-1 #
vertex $-1 $287 $418 #
vertex $-1 $178 $419 #
straight-curve $-1 -8.0234698615774569 -70.727990679777747 19.506703954162965 0 1 0 I I #
coedge $-1 $293 $293 $-1 $420 reversed $181 $-1 #
edge $-1 $421 0 $421 6.2831853071796004 $182 $422 forward 7 unknown #
vertex $-1 $185 $423 #
ellipse-curve $-1 -20.243143328248813 -35.142348207621374 10.734676459112485 0 -0.74314483375859142 0.66913059716165679 1 0 0 1 I I #
coedge $-1 $297 $297 $-1 $424 reversed $188 $-1 #
edge $-1 $425 0 $425 6.2831853071796004 $189 $426 forward 7 unknown #
vertex $-1 $192 $427 #
ellipse-curve $-1 -15.660765778247054 -35.142348207621374 10.734676459112485 0 -0.74314483375859142 0.66913059716165679 1 0 0 1 I I #
coedge $-1 $301 $301 $-1 $428 reversed $195 $-1 #
edge $-1 $429 0 $429 6.2831853071796004 $196 $430 forward 7 unknown #
vertex $-1 $199 $431 #
ellipse-curve $-1 -11.078388228245295 -35.142348207621374 10.734676459112485 0 -0.74314483375859142 0.66913059716165679 1 0 0 1 I I #
face $-1 $-1 $215 $30 $-1 $432 reversed single #
loop $-1 $-1 $321 $200 #
plane-surface $-1 0 43.040717044278502 0 0 -1 0 0 0 -1 forward_v I I I I #
coedge $-1 $433 $319 $322 $434 forward $201 $-1 #
coedge $-1 $325 $203 $204 $313 reversed $126 $-1 #
coedge $-1 $319 $433 $203 $311 reversed $201 $-1 #
edge $-1 $326 -19.506703954162965 $435 19.506703954162965 $310 $436 forward 7 unknown #
coedge $-1 $205 $204 $433 $437 forward $81 $-1 #
edge $-1 $317 -66.215399639881582 $435 66.215399639881582 $309 $438 forward 7 unknown #
coedge $-1 $322 $321 $205 $315 reversed $306 $-1 #
edge $-1 $439 -66.215399639881582 $316 66.215399639881582 $314 $440 forward 7 unknown #
vertex $-1 $207 $441 #
vertex $-1 $328 $442 #
straight-curve $-1 66.215399639881582 0 -19.506703954162965 0 -1 0 I I #
coedge $-1 $308 $310 $208 $320 reversed $201 $-1 #
edge $-1 $323 -43.040717044278502 $326 43.040717044278502 $319 $443 forward 7 unknown #
coedge $-1 $314 $209 $214 $329 forward $306 $-1 #
coedge $-1 $209 $314 $308 $434 reversed $306 $-1 #
vertex $-1 $210 $444 #
straight-curve $-1 0 43.040717044278502 19.506703954162965 -1 0 0 I I #
coedge $-1 $211 $309 $213 $328 reversed $126 $-1 #
vertex $-1 $320 $445 #
straight-curve $-1 0 -43.040717044278502 19.506703954162965 1 0 0 I I #
edge $-1 $216 -19.506703954162965 $317 19.506703954162965 $213 $446 forward 7 unknown #
edge $-1 $217 -19.506703954162965 $316 19.506703954162965 $214 $447 forward 7 unknown #
point $-1 66.215399639881582 -43.040717044278502 19.506703954162965 #
point $-1 66.215399639881582 43.040717044278502 19.506703954162965 #
face $-1 $-1 $341 $31 $-1 $448 reversed single #
loop $-1 $-1 $338 $219 #
plane-surface $-1 0 0 19.506703954162965 0 0 1 1 0 0 forward_v I I I I #
coedge $-1 $449 $450 $226 $344 forward $220 $-1 #
coedge $-1 $222 $348 $451 $452 reversed $134 $-1 #
edge $-1 $453 -11.198093469777195 $232 -5.4191274989943459 $222 $454 forward 7 unknown #
coedge $-1 $451 $455 $223 $339 forward $333 $-1 #
edge $-1 $342 -43.040717044278502 $453 43.040717044278502 $338 $456 forward 7 unknown #
coedge $-1 $345 $224 $455 $457 reversed $341 $-1 #
loop $-1 $-1 $224 $332 #
vertex $-1 $225 $458 #
straight-curve $-1 -48.872429509132445 -43.040717044278502 8.3086104843857704 0 0 1 I I #
edge $-1 $349 -43.040717044278502 $346 43.040717044278502 $335 $459 forward 7 unknown #
coedge $-1 $227 $340 $449 $460 forward $341 $-1 #
vertex $-1 $344 $461 #
straight-curve $-1 -28.771957287253507 -43.040717044278502 13.727737983380116 1 0 0 I I #
coedge $-1 $336 $229 $450 $462 reversed $134 $-1 #
vertex $-1 $344 $463 #
straight-curve $-1 -28.771957287253507 43.040717044278502 13.727737983380116 -1 0 0 I I #
point $-1 -48.872429509132445 43.040717044278502 13.727737983380116 #
point $-1 -48.872429509132445 -43.040717044278502 13.727737983380116 #
face $-1 $-1 $250 $32 $-1 $464 reversed single #
loop $-1 $-1 $241 $235 #
plane-surface $-1 0 43.040717044278502 0 0 -1 0 0 0 -1 forward_v I I I I #
coedge $-1 $244 $465 $360 $466 forward $236 $-1 #
coedge $-1 $467 $238 $465 $468 forward $142 $-1 #
coedge $-1 $238 $467 $362 $469 forward $142 $-1 #
edge $-1 $364 -43.040717044278502 $470 43.040717044278502 $238 $471 forward 7 unknown #
coedge $-1 $240 $239 $356 $466 reversed $89 $-1 #
edge $-1 $367 -43.040717044278502 $363 43.040717044278502 $239 $472 forward 7 unknown #
coedge $-1 $369 $241 $358 $469 reversed $354 $-1 #
vertex $-1 $247 $473 #
vertex $-1 $242 $474 #
straight-curve $-1 48.872429509132445 43.040717044278502 8.3086104843857704 0 0 1 I I #
coedge $-1 $465 $244 $249 $373 reversed $236 $-1 #
vertex $-1 $245 $475 #
straight-curve $-1 28.771957287253507 -43.040717044278502 13.727737983380116 1 0 0 I I #
coedge $-1 $246 $362 $248 $372 forward $354 $-1 #
straight-curve $-1 28.771957287253507 43.040717044278502 13.727737983380116 -1 0 0 I I #
coedge $-1 $249 $248 $467 $476 reversed $250 $-1 #
edge $-1 $477 -19.506703954162965 $252 -13.727737983380116 $248 $478 forward 7 unknown #
edge $-1 $479 -19.506703954162965 $251 -13.727737983380116 $249 $480 forward 7 unknown #
point $-1 66.215399639881582 -43.040717044278502 13.727737983380116 #
point $-1 66.215399639881582 43.040717044278502 13.727737983380116 #
plane-surface $-1 0 0 19.506703954162965 0 0 1 1 0 0 forward_v I I I I #
coedge $-1 $387 $386 $379 $481 forward $255 $-1 #
coedge $-1 $379 $257 $259 $383 reversed $150 $-1 #
coedge $-1 $257 $378 $377 $481 reversed $150 $-1 #
coedge $-1 $265 $260 $257 $381 forward $266 $-1 #
edge $-1 $384 -4.2767948267736848 $482 16.044780512705831 $380 $483 forward 7 unknown #
coedge $-1 $259 $258 $387 $484 reversed $93 $-1 #
edge $-1 $485 -86.081434088557018 $384 -60.636064793164536 $378 $486 forward 7 unknown #
vertex $-1 $261 $487 #
straight-curve $-1 14.360122821544124 22.719141704798989 19.506703954162965 1 0 0 I I #
coedge $-1 $377 $262 $265 $391 reversed $255 $-1 #
coedge $-1 $262 $377 $382 $484 forward $255 $-1 #
vertex $-1 $263 $488 #
straight-curve $-1 15.232338074679923 43.040717044278502 80.88116866096837 0 0 1 I I #
straight-curve $-1 15.232338074679923 -25.706972480424433 55.998399153489501 0 0.79863550430605224 -0.6018150307709319 I I #
edge $-1 $482 -42.208153211496573 $267 -15.232338074679923 $386 $489 forward 7 unknown #
point $-1 15.232338074679923 43.040717044278502 19.506703954162965 #
point $-1 15.232338074679923 22.719141704798986 19.506703954162965 #
edge $-1 $490 1 $490 0 $270 $-1 forward 7 unknown #
vertex $-1 $271 $491 #
ellipse-curve $-1 22.939713828056099 31.062114446011947 9.4376792617363705 0 0.6018150307709319 0.79863550430605224 1.5 0 0 1 I I #
point $-1 24.439713828056099 32.879929374538747 11.850001101420789 #
edge $-1 $492 1 $492 0 $274 $-1 forward 7 unknown #
vertex $-1 $275 $493 #
ellipse-curve $-1 34.500777458120382 31.062114446011947 9.4376792617363705 0 0.6018150307709319 0.79863550430605224 1.5 0 0 1 I I #
point $-1 36.000777458120382 32.879929374538747 11.850001101420789 #
loop $-1 $-1 $286 $278 #
plane-surface $-1 0 -43.040717044278502 0 0 1 0 0 0 1 forward_v I I I I #
coedge $-1 $405 $281 $283 $409 reversed $172 $-1 #
coedge $-1 $281 $404 $494 $495 reversed $172 $-1 #
coedge $-1 $289 $284 $281 $407 forward $279 $-1 #
edge $-1 $410 -43.4840113088135 $496 -27.687273635499245 $406 $497 forward 7 unknown #
coedge $-1 $283 $282 $413 $498 reversed $107 $-1 #
edge $-1 $499 1.0694865687384493e-014 $410 23.607854341620985 $404 $500 forward 7 unknown #
vertex $-1 $285 $501 #
straight-curve $-1 -7.830382889123527 -27.243979370964247 19.506703954162965 -1 0 0 I I #
coedge $-1 $494 $286 $289 $417 reversed $402 $-1 #
coedge $-1 $286 $494 $408 $498 forward $402 $-1 #
vertex $-1 $287 $502 #
straight-curve $-1 -8.0234698615774569 -43.040717044278502 45.288074384362716 0 0 1 I I #
straight-curve $-1 -8.0234698615774569 -43.040717044278509 1.962648964061998 0 -0.66913059716165679 -0.74314483375859142 I I #
edge $-1 $496 -23.298061694916651 $290 -8.0234698615774569 $412 $503 forward 7 unknown #
point $-1 -8.0234698615774569 -43.040717044278502 19.506703954162965 #
point $-1 -8.0234698615774569 -27.243979370964247 19.506703954162965 #
edge $-1 $504 1 $504 0 $293 $-1 forward 7 unknown #
vertex $-1 $294 $505 #
ellipse-curve $-1 -20.243143328248813 -32.798721554547299 8.6244655948802578 0 -0.74314483375859142 0.66913059716165679 1 0 0 1 I I #
point $-1 -19.243143328248813 -35.14234820762136 10.734676459112469 #
edge $-1 $506 1 $506 0 $297 $-1 forward 7 unknown #
vertex $-1 $298 $507 #
ellipse-curve $-1 -15.660765778247054 -32.798721554547299 8.6244655948802578 0 -0.74314483375859142 0.66913059716165679 1 0 0 1 I I #
point $-1 -14.660765778247054 -35.14234820762136 10.734676459112469 #
edge $-1 $508 1 $508 0 $301 $-1 forward 7 unknown #
vertex $-1 $302 $509 #
ellipse-curve $-1 -11.078388228245295 -32.798721554547299 8.6244655948802578 0 -0.74314483375859142 0.66913059716165679 1 0 0 1 I I #
point $-1 -10.078388228245295 -35.14234820762136 10.734676459112469 #
plane-surface $-1 66.215399639881582 0 0 -1 0 0 0 0 1 forward_v I I I I #
coedge $-1 $310 $308 $312 $437 reversed $201 $-1 #
edge $-1 $323 -19.506703954162965 $439 19.506703954162965 $322 $510 forward 7 unknown #
vertex $-1 $437 $511 #
straight-curve $-1 -66.215399639881582 -43.040717044278502 0 0 0 -1 I I #
edge $-1 $435 -43.040717044278502 $439 43.040717044278502 $433 $512 forward 7 unknown #
straight-curve $-1 0 -43.040717044278502 -19.506703954162965 -1 0 0 I I #
vertex $-1 $315 $513 #
straight-curve $-1 0 43.040717044278502 -19.506703954162965 1 0 0 I I #
point $-1 66.215399639881582 43.040717044278502 -19.506703954162965 #
point $-1 66.215399639881582 -43.040717044278502 -19.506703954162965 #
straight-curve $-1 -66.215399639881582 0 19.506703954162965 0 -1 0 I I #
point $-1 -66.215399639881582 43.040717044278502 19.506703954162965 #
point $-1 -66.215399639881582 -43.040717044278502 19.506703954162965 #
straight-curve $-1 66.215399639881582 -43.040717044278502 0 0 0 -1 I I #
straight-curve $-1 66.215399639881582 43.040717044278502 0 0 0 -1 I I #
plane-surface $-1 0 -43.040717044278502 0 0 1 0 0 0 1 forward_v I I I I #
coedge $-1 $514 $335 $345 $460 reversed $220 $-1 #
coedge $-1 $335 $514 $348 $462 forward $220 $-1 #
coedge $-1 $515 $338 $336 $452 forward $333 $-1 #
edge $-1 $453 48.872429509132445 $516 66.215399639881582 $336 $517 forward 7 unknown #
vertex $-1 $452 $518 #
straight-curve $-1 -48.872429509132445 43.040717044278502 8.3086104843857704 0 0 -1 I I #
coedge $-1 $338 $515 $340 $457 forward $333 $-1 #
straight-curve $-1 -48.872429509132445 0 19.506703954162965 0 1 0 I I #
edge $-1 $519 -66.215399639881582 $342 -48.872429509132445 $340 $520 forward 7 unknown #
point $-1 -48.872429509132445 -43.040717044278502 19.506703954162965 #
straight-curve $-1 -66.215399639881582 0 13.727737983380116 0 -1 0 I I #
edge $-1 $519 -19.506703954162965 $346 -13.727737983380116 $449 $521 forward 7 unknown #
point $-1 -66.215399639881582 -43.040717044278502 13.727737983380116 #
edge $-1 $516 -19.506703954162965 $349 -13.727737983380116 $348 $522 forward 7 unknown #
point $-1 -66.215399639881582 43.040717044278502 13.727737983380116 #
plane-surface $-1 66.215399639881582 0 0 -1 0 0 0 0 1 forward_v I I I I #
coedge $-1 $356 $366 $357 $468 reversed $236 $-1 #
edge $-1 $470 -11.198093469777195 $367 -5.4191274989943459 $356 $523 forward 7 unknown #
coedge $-1 $358 $357 $371 $476 forward $142 $-1 #
edge $-1 $470 48.872429509132445 $479 66.215399639881582 $465 $524 forward 7 unknown #
edge $-1 $477 -66.215399639881582 $364 -48.872429509132445 $362 $525 forward 7 unknown #
vertex $-1 $468 $526 #
straight-curve $-1 48.872429509132445 0 19.506703954162965 0 -1 0 I I #
straight-curve $-1 48.872429509132445 0 13.727737983380116 0 1 0 I I #
point $-1 48.872429509132445 43.040717044278502 13.727737983380116 #
point $-1 48.872429509132445 43.040717044278502 19.506703954162965 #
point $-1 48.872429509132445 -43.040717044278502 13.727737983380116 #
edge $-1 $479 -43.040717044278502 $477 43.040717044278502 $371 $527 forward 7 unknown #
vertex $-1 $476 $528 #
straight-curve $-1 66.215399639881582 43.040717044278502 0 0 0 -1 I I #
vertex $-1 $476 $529 #
straight-curve $-1 66.215399639881582 -43.040717044278502 0 0 0 -1 I I #
edge $-1 $482 61.374464706805405 $485 76.687870412289755 $377 $530 forward 7 unknown #
vertex $-1 $391 $531 #
straight-curve $-1 42.208153211496573 26.995936531572671 19.506703954162958 0 1 0 I I #
edge $-1 $485 -27.848030389952449 $388 -0.87221525313579917 $387 $532 forward 7 unknown #
vertex $-1 $484 $533 #
straight-curve $-1 42.208153211496573 -25.706972480424433 55.998399153489501 0 -0.79863550430605224 0.6018150307709319 I I #
point $-1 42.208153211496573 22.719141704798986 19.506703954162965 #
point $-1 15.232338074679923 43.040717044278502 4.1932982486786159 #
straight-curve $-1 0 43.040717044278502 19.506703954162965 -1 0 0 I I #
vertex $-1 $394 $534 #
point $-1 24.439713828056099 31.062114446011947 9.4376792617363705 #
vertex $-1 $398 $535 #
point $-1 36.000777458120382 31.062114446011947 9.4376792617363705 #
coedge $-1 $413 $412 $405 $495 forward $402 $-1 #
edge $-1 $496 25.78137043019975 $499 43.325425420300711 $494 $536 forward 7 unknown #
vertex $-1 $417 $537 #
straight-curve $-1 -23.298061694916651 -70.727990679777747 19.506703954162965 0 -1 0 I I #
edge $-1 $499 -15.467678805793124 $414 -0.19308697245392992 $413 $538 forward 7 unknown #
vertex $-1 $498 $539 #
straight-curve $-1 -23.298061694916651 -43.040717044278509 1.962648964061998 0 0.66913059716165679 0.74314483375859142 I I #
point $-1 -23.298061694916651 -27.243979370964247 19.506703954162965 #
point $-1 -8.0234698615774569 -43.040717044278502 1.962648964062006 #
straight-curve $-1 0 -43.040717044278502 19.506703954162965 1 0 0 I I #
vertex $-1 $420 $540 #
point $-1 -19.243143328248813 -32.798721554547299 8.6244655948802578 #
vertex $-1 $424 $541 #
point $-1 -14.660765778247054 -32.798721554547299 8.6244655948802578 #
vertex $-1 $428 $542 #
point $-1 -10.078388228245295 -32.798721554547299 8.6244655948802578 #
straight-curve $-1 -66.215399639881582 43.040717044278502 0 0 0 -1 I I #
point $-1 -66.215399639881582 -43.040717044278502 -19.506703954162965 #
straight-curve $-1 -66.215399639881582 0 -19.506703954162965 0 1 0 I I #
point $-1 -66.215399639881582 43.040717044278502 -19.506703954162965 #
coedge $-1 $450 $449 $515 $543 reversed $220 $-1 #
coedge $-1 $455 $451 $514 $543 forward $333 $-1 #
vertex $-1 $452 $544 #
straight-curve $-1 0 43.040717044278502 19.506703954162965 -1 0 0 I I #
point $-1 -48.872429509132445 43.040717044278502 19.506703954162965 #
vertex $-1 $543 $545 #
straight-curve $-1 0 -43.040717044278502 19.506703954162965 1 0 0 I I #
straight-curve $-1 -66.215399639881582 -43.040717044278502 0 0 0 -1 I I #
straight-curve $-1 -66.215399639881582 43.040717044278502 0 0 0 -1 I I #
straight-curve $-1 48.872429509132445 -43.040717044278502 8.3086104843857704 0 0 -1 I I #
straight-curve $-1 0 -43.040717044278502 19.506703954162965 1 0 0 I I #
straight-curve $-1 0 43.040717044278502 19.506703954162965 -1 0 0 I I #
point $-1 48.872429509132445 -43.040717044278502 19.506703954162965 #
straight-curve $-1 66.215399639881582 0 19.506703954162965 0 1 0 I I #
point $-1 66.215399639881582 43.040717044278502 19.506703954162965 #
point $-1 66.215399639881582 -43.040717044278502 19.506703954162965 #
straight-curve $-1 42.208153211496573 43.040717044278502 80.88116866096837 0 0 -1 I I #
point $-1 42.208153211496573 43.040717044278502 19.506703954162965 #
straight-curve $-1 14.360122821544124 43.040717044278502 4.1932982486786159 -1 0 0 I I #
point $-1 42.208153211496573 43.040717044278502 4.1932982486786159 #
point $-1 22.939713828056099 30.159391899855549 8.2397260052772907 #
point $-1 34.500777458120382 30.159391899855549 8.2397260052772907 #
straight-curve $-1 -23.298061694916651 -43.040717044278502 45.288074384362716 0 0 -1 I I #
point $-1 -23.298061694916651 -43.040717044278502 19.506703954162965 #
straight-curve $-1 -7.830382889123527 -43.040717044278502 1.9626489640620135 1 0 0 I I #
point $-1 -23.298061694916651 -43.040717044278502 1.962648964062006 #
point $-1 -20.243143328248813 -32.055576720788707 7.9553349977186008 #
point $-1 -15.660765778247054 -32.055576720788707 7.9553349977186008 #
point $-1 -11.078388228245295 -32.055576720788707 7.9553349977186008 #
edge $-1 $516 -43.040717044278502 $519 43.040717044278502 $514 $546 forward 7 unknown #
point $-1 -66.215399639881582 43.040717044278502 19.506703954162965 #
point $-1 -66.215399639881582 -43.040717044278502 19.506703954162965 #
straight-curve $-1 -66.215399639881582 0 19.506703954162965 0 -1 0 I I #
End-of-ACIS-data 