500 0 11 0           
7 Unknown 11 ACIS 5.0 NT 24 Thu Mar 25 16:12:50 1999 
-1 9.9999999999999995e-007 1e-010 
body $-1 $11 $-1 $12 #
body $-1 $13 $-1 $14 #
body $-1 $15 $-1 $16 #
body $-1 $17 $-1 $18 #
body $-1 $19 $-1 $20 #
body $-1 $21 $-1 $22 #
body $-1 $23 $-1 $24 #
body $-1 $25 $-1 $26 #
body $-1 $27 $-1 $28 #
body $-1 $29 $-1 $30 #
body $-1 $31 $-1 $32 #
lump $-1 $-1 $33 $0 #
transform $-1 1 0 0 0 1 0 0 0 1 52.457655568102055 23.005516412219102 8.1152245247436667 1 rotate no_reflect no_shear #
lump $-1 $-1 $34 $1 #
transform $-1 1 0 0 0 1 0 0 0 1 52.457655568102055 23.005516412219102 8.1152245247436667 1 rotate no_reflect no_shear #
lump $-1 $-1 $35 $2 #
transform $-1 1 0 0 0 1 0 0 0 1 52.457655568102055 23.005516412219102 8.1152245247436667 1 rotate no_reflect no_shear #
lump $-1 $-1 $36 $3 #
transform $-1 1 0 0 0 1 0 0 0 1 52.457655568102055 23.005516412219102 8.1152245247436667 1 rotate no_reflect no_shear #
lump $-1 $-1 $37 $4 #
transform $-1 1 0 0 0 1 0 0 0 1 52.457655568102055 23.005516412219102 8.1152245247436667 1 rotate no_reflect no_shear #
lump $-1 $-1 $38 $5 #
transform $-1 1 0 0 0 1 0 0 0 1 52.457655568102055 23.005516412219102 8.1152245247436667 1 rotate no_reflect no_shear #
lump $-1 $-1 $39 $6 #
transform $-1 1 0 0 0 1 0 0 0 1 52.457655568102055 23.005516412219102 8.1152245247436667 1 rotate no_reflect no_shear #
lump $-1 $-1 $40 $7 #
transform $-1 1 0 0 0 1 0 0 0 1 52.457655568102055 23.005516412219102 8.1152245247436667 1 rotate no_reflect no_shear #
lump $-1 $-1 $41 $8 #
transform $-1 1 0 0 0 1 0 0 0 1 52.457655568102055 23.005516412219102 8.1152245247436667 1 rotate no_reflect no_shear #
lump $-1 $-1 $42 $9 #
transform $-1 1 0 0 0 1 0 0 0 1 52.457655568102055 23.005516412219102 8.1152245247436667 1 rotate no_reflect no_shear #
lump $-1 $-1 $43 $10 #
transform $-1 1 0 0 0 1 0 0 0 1 52.457655568102055 23.005516412219102 8.1152245247436667 1 rotate no_reflect no_shear #
shell $-1 $-1 $-1 $44 $-1 $11 #
shell $-1 $-1 $-1 $45 $-1 $13 #
shell $-1 $-1 $-1 $46 $-1 $15 #
shell $-1 $-1 $-1 $47 $-1 $17 #
shell $-1 $-1 $-1 $48 $-1 $19 #
shell $-1 $-1 $-1 $49 $-1 $21 #
shell $-1 $-1 $-1 $50 $-1 $23 #
shell $-1 $-1 $-1 $51 $-1 $25 #
shell $-1 $-1 $-1 $52 $-1 $27 #
shell $-1 $-1 $-1 $53 $-1 $29 #
shell $-1 $-1 $-1 $54 $-1 $31 #
face $-1 $55 $56 $33 $-1 $57 forward single #
face $-1 $58 $59 $34 $-1 $60 forward single #
face $-1 $61 $62 $35 $-1 $63 reversed single #
face $-1 $64 $65 $36 $-1 $66 forward single #
face $-1 $67 $68 $37 $-1 $69 forward single #
face $-1 $70 $71 $38 $-1 $72 reversed single #
face $-1 $73 $74 $39 $-1 $75 forward single #
face $-1 $76 $77 $40 $-1 $78 forward single #
face $-1 $79 $80 $41 $-1 $81 reversed single #
face $-1 $82 $83 $42 $-1 $84 forward single #
face $-1 $85 $86 $43 $-1 $87 forward single #
face $-1 $88 $89 $33 $-1 $90 reversed single #
loop $-1 $-1 $91 $44 #
plane-surface $-1 0 0 8.1152245247436667 0 0 1 1 0 0 forward_v I I I I #
face $-1 $92 $93 $34 $-1 $94 reversed single #
loop $-1 $-1 $95 $45 #
plane-surface $-1 0 -19.385153447805266 5.6562433939908399 0 0 1 1 0 0 forward_v I I I I #
face $-1 $96 $97 $35 $-1 $98 reversed single #
loop $-1 $-1 $99 $46 #
plane-surface $-1 88.352251930899158 -12.732039945743374 146.06252206298697 0 1 0 0.85716730853699208 0 0.51503806187062418 forward_v I I I I #
face $-1 $100 $101 $36 $-1 $102 forward single #
loop $-1 $103 $104 $47 #
cone-surface $-1 49.649899759172222 -10.051791138853144 4.5054865262093209 -0.85716730853699208 0 -0.51503806187062418 0.51503806187062418 0 -0.85716730853699208 1 I I 0 1 1 forward I I I I #
face $-1 $105 $106 $37 $-1 $107 forward single #
loop $-1 $108 $109 $48 #
cone-surface $-1 49.649899759172222 -6.0314179285177971 4.5054865262093209 -0.85716730853699208 0 -0.51503806187062418 0.51503806187062418 0 -0.85716730853699208 1 I I 0 1 1 forward I I I I #
face $-1 $110 $111 $38 $-1 $112 reversed single #
loop $-1 $-1 $113 $49 #
plane-surface $-1 88.352251930899158 6.6531135020618946 146.06252206298697 0 1 0 0.85716730853699208 0 0.51503806187062418 forward_v I I I I #
face $-1 $114 $115 $39 $-1 $116 forward single #
loop $-1 $117 $118 $50 #
cone-surface $-1 49.649899759172222 9.3333623089521254 4.5054865262093209 -0.85716730853699208 0 -0.51503806187062418 0.51503806187062418 0 -0.85716730853699208 1 I I 0 1 1 forward I I I I #
face $-1 $119 $120 $40 $-1 $121 forward single #
loop $-1 $122 $123 $51 #
cone-surface $-1 49.649899759172222 13.353735519287468 4.5054865262093209 -0.85716730853699208 0 -0.51503806187062418 0.51503806187062418 0 -0.85716730853699208 1 I I 0 1 1 forward I I I I #
face $-1 $124 $125 $41 $-1 $126 reversed single #
loop $-1 $-1 $127 $52 #
plane-surface $-1 -114.12532898148271 13.33199658861086 85.255740736941348 0 1 0 -0.5877852598018023 0 0.80901698891910034 forward_v I I I I #
face $-1 $128 $129 $42 $-1 $130 forward single #
loop $-1 $131 $132 $53 #
cone-surface $-1 -46.63550604497766 16.095859395356072 3.5621513462667114 0.5877852598018023 0 -0.80901698891910034 0.80901698891910034 0 0.5877852598018023 1 I I 0 1 1 forward I I I I #
face $-1 $133 $134 $43 $-1 $135 forward single #
loop $-1 $136 $137 $54 #
cone-surface $-1 -46.63550604497766 20.241653605473893 3.5621513462667114 0.5877852598018023 0 -0.80901698891910034 0.80901698891910034 0 0.5877852598018023 1 I I 0 1 1 forward I I I I #
face $-1 $138 $139 $33 $-1 $140 reversed single #
loop $-1 $-1 $141 $55 #
plane-surface $-1 0 0 -8.1152245247436667 0 0 1 1 0 0 forward_v I I I I #
coedge $-1 $142 $143 $144 $145 forward $56 $-1 #
face $-1 $146 $147 $34 $-1 $148 reversed single #
loop $-1 $-1 $149 $58 #
plane-surface $-1 0 -19.385153447805266 2.6562433939908399 0 0 1 1 0 0 forward_v I I I I #
coedge $-1 $150 $151 $152 $153 reversed $59 $-1 #
face $-1 $154 $155 $35 $-1 $156 reversed single #
loop $-1 $-1 $157 $61 #
plane-surface $-1 -1.5777229400420367 -8.0416045336854687 92.027143554842894 0.85716730853699208 0 0.51503806187062418 0.51503806187062418 0 -0.85716730853699208 forward_v I I I I #
coedge $-1 $158 $159 $160 $161 reversed $62 $-1 #
face $-1 $-1 $162 $36 $-1 $163 forward single #
loop $-1 $164 $165 $64 #
cone-surface $-1 48.221566612609266 -10.051791138853144 3.6472574171606453 -0.85716730853699208 0 -0.51503806187062418 0.25751903093531209 0 -0.42858365426849604 1 I I -0.70710678118654746 0.70710678118654746 0.5 forward I I I I #
loop $-1 $-1 $166 $47 #
coedge $-1 $104 $104 $167 $168 reversed $65 $-1 #
face $-1 $-1 $169 $37 $-1 $170 forward single #
loop $-1 $171 $172 $67 #
cone-surface $-1 48.221566612609266 -6.0314179285177971 3.6472574171606453 -0.85716730853699208 0 -0.51503806187062418 0.25751903093531209 0 -0.42858365426849604 1 I I -0.70710678118654746 0.70710678118654746 0.5 forward I I I I #
loop $-1 $-1 $173 $48 #
coedge $-1 $109 $109 $174 $175 reversed $68 $-1 #
face $-1 $176 $177 $38 $-1 $178 reversed single #
loop $-1 $-1 $179 $70 #
plane-surface $-1 -1.5777229400420367 11.3435489141198 92.027143554842894 0.85716730853699208 0 0.51503806187062418 0.51503806187062418 0 -0.85716730853699208 forward_v I I I I #
coedge $-1 $180 $181 $182 $183 reversed $71 $-1 #
face $-1 $-1 $184 $39 $-1 $185 forward single #
loop $-1 $186 $187 $73 #
cone-surface $-1 48.221566612609266 9.3333623089521254 3.6472574171606453 -0.85716730853699208 0 -0.51503806187062418 0.25751903093531209 0 -0.42858365426849604 1 I I -0.70710678118654746 0.70710678118654746 0.5 forward I I I I #
loop $-1 $-1 $188 $50 #
coedge $-1 $118 $118 $189 $190 reversed $74 $-1 #
face $-1 $-1 $191 $40 $-1 $192 forward single #
loop $-1 $193 $194 $76 #
cone-surface $-1 48.221566612609266 13.353735519287468 3.6472574171606453 -0.85716730853699208 0 -0.51503806187062418 0.25751903093531209 0 -0.42858365426849604 1 I I -0.70710678118654746 0.70710678118654746 0.5 forward I I I I #
loop $-1 $-1 $195 $51 #
coedge $-1 $123 $123 $196 $197 reversed $77 $-1 #
face $-1 $198 $199 $41 $-1 $200 forward single #
loop $-1 $-1 $201 $79 #
plane-surface $-1 -52.457655568102055 18.168756500414979 0.37747163001894535 -0.5877852598018023 0 0.80901698891910034 0.80901698891910034 0 0.5877852598018023 forward_v I I I I #
coedge $-1 $202 $203 $204 $205 reversed $80 $-1 #
face $-1 $-1 $206 $42 $-1 $207 forward single #
loop $-1 $208 $209 $82 #
cone-surface $-1 -45.844515382696692 16.095859395356072 2.4734461206925751 0.5877852598018023 0 -0.80901698891910034 0.40450849445955017 0 0.29389262990090115 1 I I -0.70710678118654746 0.70710678118654746 0.5 forward I I I I #
loop $-1 $-1 $210 $53 #
coedge $-1 $132 $132 $211 $212 reversed $83 $-1 #
face $-1 $-1 $213 $43 $-1 $214 forward single #
loop $-1 $215 $216 $85 #
cone-surface $-1 -45.844515382696692 20.241653605473893 2.4734461206925751 0.5877852598018023 0 -0.80901698891910034 0.40450849445955017 0 0.29389262990090115 1 I I -0.70710678118654746 0.70710678118654746 0.5 forward I I I I #
loop $-1 $-1 $217 $54 #
coedge $-1 $137 $137 $218 $219 reversed $86 $-1 #
face $-1 $220 $221 $33 $-1 $222 reversed single #
loop $-1 $-1 $223 $88 #
plane-surface $-1 0 -23.005516412219102 0 0 1 0 0 0 1 forward_v I I I I #
coedge $-1 $224 $225 $226 $227 forward $89 $-1 #
coedge $-1 $228 $91 $229 $230 forward $56 $-1 #
coedge $-1 $91 $228 $231 $232 forward $56 $-1 #
coedge $-1 $233 $234 $91 $145 reversed $235 $-1 #
edge $-1 $236 -23.005516412219102 $237 23.005516412219102 $144 $238 forward 7 unknown #
face $-1 $239 $240 $34 $-1 $241 reversed single #
loop $-1 $-1 $242 $92 #
plane-surface $-1 0 -15.76479048339143 4.1562433939908399 0 -1 0 0 0 -1 forward_v I I I I #
coedge $-1 $243 $244 $245 $246 reversed $93 $-1 #
coedge $-1 $247 $95 $248 $249 forward $59 $-1 #
coedge $-1 $95 $247 $250 $251 reversed $59 $-1 #
coedge $-1 $252 $253 $95 $153 forward $254 $-1 #
edge $-1 $255 6.0722137594887968 $256 13.312939688316469 $152 $257 forward 7 unknown #
face $-1 $258 $259 $35 $-1 $260 forward single #
loop $-1 $-1 $261 $96 #
plane-surface $-1 88.352251930899158 -3.3511691216275628 146.06252206298697 0 -1 0 -0.85716730853699208 0 -0.51503806187062418 forward_v I I I I #
coedge $-1 $262 $263 $264 $265 reversed $97 $-1 #
coedge $-1 $159 $99 $266 $267 reversed $62 $-1 #
coedge $-1 $99 $158 $262 $268 reversed $62 $-1 #
coedge $-1 $264 $269 $99 $161 forward $270 $-1 #
edge $-1 $271 64.916036506749819 $272 70.934092347591786 $160 $273 forward 7 unknown #
loop $-1 $-1 $167 $100 #
plane-surface $-1 -1.5777229400420367 -8.0416045336854687 92.027143554842894 0.85716730853699208 0 0.51503806187062418 0.51503806187062418 0 -0.85716730853699208 forward_v I I I I #
loop $-1 $-1 $274 $64 #
coedge $-1 $165 $165 $166 $275 reversed $101 $-1 #
coedge $-1 $166 $166 $165 $275 forward $103 $-1 #
coedge $-1 $167 $167 $104 $168 forward $162 $-1 #
edge $-1 $276 0 $276 6.2831853071796004 $167 $277 forward 7 unknown #
loop $-1 $-1 $174 $105 #
plane-surface $-1 -1.5777229400420367 -8.0416045336854687 92.027143554842894 0.85716730853699208 0 0.51503806187062418 0.51503806187062418 0 -0.85716730853699208 forward_v I I I I #
loop $-1 $-1 $278 $67 #
coedge $-1 $172 $172 $173 $279 reversed $106 $-1 #
coedge $-1 $173 $173 $172 $279 forward $108 $-1 #
coedge $-1 $174 $174 $109 $175 forward $169 $-1 #
edge $-1 $280 0 $280 6.2831853071796004 $174 $281 forward 7 unknown #
face $-1 $282 $283 $38 $-1 $284 reversed single #
loop $-1 $-1 $285 $110 #
plane-surface $-1 88.352251930899158 16.033984326177706 146.06252206298697 0 -1 0 -0.85716730853699208 0 -0.51503806187062418 forward_v I I I I #
coedge $-1 $286 $287 $288 $289 reversed $111 $-1 #
coedge $-1 $181 $113 $290 $291 reversed $71 $-1 #
coedge $-1 $113 $180 $286 $292 reversed $71 $-1 #
coedge $-1 $288 $293 $113 $183 forward $283 $-1 #
edge $-1 $294 64.916036506749819 $295 70.934092347591786 $182 $296 forward 7 unknown #
loop $-1 $-1 $189 $114 #
plane-surface $-1 -1.5777229400420367 11.3435489141198 92.027143554842894 0.85716730853699208 0 0.51503806187062418 0.51503806187062418 0 -0.85716730853699208 forward_v I I I I #
loop $-1 $-1 $297 $73 #
coedge $-1 $187 $187 $188 $298 reversed $115 $-1 #
coedge $-1 $188 $188 $187 $298 forward $117 $-1 #
coedge $-1 $189 $189 $118 $190 forward $184 $-1 #
edge $-1 $299 0 $299 6.2831853071796004 $189 $300 forward 7 unknown #
loop $-1 $-1 $196 $119 #
plane-surface $-1 -1.5777229400420367 11.3435489141198 92.027143554842894 0.85716730853699208 0 0.51503806187062418 0.51503806187062418 0 -0.85716730853699208 forward_v I I I I #
loop $-1 $-1 $301 $76 #
coedge $-1 $194 $194 $195 $302 reversed $120 $-1 #
coedge $-1 $195 $195 $194 $302 forward $122 $-1 #
coedge $-1 $196 $196 $123 $197 forward $191 $-1 #
edge $-1 $303 0 $303 6.2831853071796004 $196 $304 forward 7 unknown #
face $-1 $305 $306 $41 $-1 $307 reversed single #
loop $-1 $-1 $204 $124 #
plane-surface $-1 0 0 8.1152245247436667 0 0 1 1 0 0 forward_v I I I I #
coedge $-1 $308 $309 $310 $311 reversed $125 $-1 #
coedge $-1 $203 $127 $312 $313 reversed $80 $-1 #
coedge $-1 $127 $202 $308 $314 reversed $80 $-1 #
coedge $-1 $310 $315 $127 $205 forward $199 $-1 #
edge $-1 $316 4.6050089226392998 $317 15.255111904127936 $204 $318 forward 7 unknown #
loop $-1 $-1 $211 $128 #
plane-surface $-1 -52.457655568102055 18.168756500414979 0.37747163001894535 -0.5877852598018023 0 0.80901698891910034 0.80901698891910034 0 0.5877852598018023 forward_v I I I I #
loop $-1 $-1 $319 $82 #
coedge $-1 $209 $209 $210 $320 reversed $129 $-1 #
coedge $-1 $210 $210 $209 $320 forward $131 $-1 #
coedge $-1 $211 $211 $132 $212 forward $206 $-1 #
edge $-1 $321 0 $321 6.2831853071796004 $211 $322 forward 7 unknown #
loop $-1 $-1 $218 $133 #
plane-surface $-1 -52.457655568102055 18.168756500414979 0.37747163001894535 -0.5877852598018023 0 0.80901698891910034 0.80901698891910034 0 0.5877852598018023 forward_v I I I I #
loop $-1 $-1 $323 $85 #
coedge $-1 $216 $216 $217 $324 reversed $134 $-1 #
coedge $-1 $217 $217 $216 $324 forward $136 $-1 #
coedge $-1 $218 $218 $137 $219 forward $213 $-1 #
edge $-1 $325 0 $325 6.2831853071796004 $218 $326 forward 7 unknown #
face $-1 $327 $328 $33 $-1 $329 reversed single #
loop $-1 $-1 $330 $138 #
plane-surface $-1 -52.457655568102055 0 0 1 0 0 0 0 -1 forward_v I I I I #
coedge $-1 $331 $231 $332 $333 forward $139 $-1 #
coedge $-1 $334 $141 $331 $335 forward $89 $-1 #
coedge $-1 $141 $334 $336 $337 forward $89 $-1 #
coedge $-1 $234 $233 $141 $227 reversed $235 $-1 #
edge $-1 $338 -23.005516412219102 $339 23.005516412219102 $226 $340 forward 7 unknown #
coedge $-1 $143 $142 $341 $342 forward $56 $-1 #
coedge $-1 $343 $344 $142 $230 reversed $328 $-1 #
edge $-1 $237 -52.457655568102055 $345 52.457655568102055 $229 $346 forward 7 unknown #
coedge $-1 $223 $347 $143 $232 reversed $139 $-1 #
edge $-1 $348 -52.457655568102055 $236 52.457655568102055 $231 $349 forward 7 unknown #
coedge $-1 $226 $144 $347 $350 forward $235 $-1 #
coedge $-1 $144 $226 $343 $351 reversed $235 $-1 #
loop $-1 $-1 $233 $327 #
vertex $-1 $145 $352 #
vertex $-1 $145 $353 #
straight-curve $-1 52.457655568102055 0 8.1152245247436667 0 1 0 I I #
face $-1 $354 $355 $34 $-1 $356 reversed single #
loop $-1 $-1 $357 $146 #
plane-surface $-1 -52.457655568102055 0 0 1 0 0 0 0 -1 forward_v I I I I #
coedge $-1 $358 $248 $253 $359 reversed $147 $-1 #
coedge $-1 $360 $149 $361 $362 reversed $93 $-1 #
coedge $-1 $149 $360 $358 $363 forward $93 $-1 #
coedge $-1 $253 $252 $149 $246 forward $254 $-1 #
edge $-1 $364 -13.312939688316469 $365 -6.0722137594887968 $245 $366 forward 7 unknown #
coedge $-1 $151 $150 $357 $367 reversed $59 $-1 #
coedge $-1 $242 $368 $150 $249 reversed $147 $-1 #
edge $-1 $255 -52.457655568102055 $369 52.457655568102055 $248 $370 forward 7 unknown #
coedge $-1 $371 $372 $151 $251 forward $355 $-1 #
edge $-1 $256 -52.457655568102055 $373 52.457655568102055 $250 $374 forward 7 unknown #
coedge $-1 $245 $152 $372 $375 forward $254 $-1 #
coedge $-1 $152 $245 $242 $359 forward $254 $-1 #
loop $-1 $-1 $152 $354 #
vertex $-1 $153 $376 #
vertex $-1 $375 $377 #
straight-curve $-1 52.457655568102055 -9.6925767239026328 5.6562433939908399 0 -1 0 I I #
face $-1 $-1 $270 $35 $-1 $378 reversed single #
loop $-1 $-1 $379 $154 #
plane-surface $-1 0 0 8.1152245247436667 0 0 1 1 0 0 forward_v I I I I #
coedge $-1 $380 $381 $382 $383 reversed $155 $-1 #
coedge $-1 $384 $157 $159 $268 forward $97 $-1 #
coedge $-1 $157 $384 $380 $385 forward $97 $-1 #
coedge $-1 $382 $160 $157 $265 forward $270 $-1 #
edge $-1 $272 -8.7112376789006394 $386 0.66963314521517159 $264 $387 forward 7 unknown #
coedge $-1 $388 $389 $158 $267 forward $259 $-1 #
edge $-1 $390 4.6655169693817342 $271 8.2815296026524763 $266 $391 forward 7 unknown #
edge $-1 $272 -104.91531113620415 $390 -97.894446270144854 $159 $392 forward 7 unknown #
coedge $-1 $160 $382 $388 $393 reversed $270 $-1 #
loop $-1 $-1 $382 $258 #
vertex $-1 $393 $394 #
vertex $-1 $161 $395 #
straight-curve $-1 52.457655568102055 -12.732039945743374 73.031261031493486 0 0 -1 I I #
coedge $-1 $274 $274 $-1 $396 reversed $164 $-1 #
edge $-1 $397 0 $397 6.2831853071796004 $165 $398 forward 7 unknown #
vertex $-1 $168 $399 #
ellipse-curve $-1 50.649649251466677 -10.051791138853144 5.1061966043226814 0.85716730853699208 0 0.51503806187062418 0.51503806187062418 0 -0.85716730853699208 1 I I #
coedge $-1 $278 $278 $-1 $400 reversed $171 $-1 #
edge $-1 $401 0 $401 6.2831853071796004 $172 $402 forward 7 unknown #
vertex $-1 $175 $403 #
ellipse-curve $-1 50.649649251466677 -6.0314179285177971 5.1061966043226814 0.85716730853699208 0 0.51503806187062418 0.51503806187062418 0 -0.85716730853699208 1 I I #
face $-1 $-1 $404 $38 $-1 $405 forward single #
loop $-1 $-1 $182 $176 #
plane-surface $-1 52.457655568102055 0 0 -1 0 0 0 0 1 forward_v I I I I #
coedge $-1 $406 $407 $408 $409 reversed $177 $-1 #
coedge $-1 $410 $179 $181 $292 forward $111 $-1 #
coedge $-1 $179 $410 $406 $411 forward $111 $-1 #
coedge $-1 $408 $182 $179 $289 forward $283 $-1 #
edge $-1 $295 0.98133904500199431 $412 10.362209869117805 $288 $413 forward 7 unknown #
coedge $-1 $414 $415 $180 $291 forward $404 $-1 #
edge $-1 $416 4.6655169693817342 $294 8.2815296026524763 $290 $417 forward 7 unknown #
edge $-1 $295 -104.91531113620415 $416 -97.894446270144854 $181 $418 forward 7 unknown #
coedge $-1 $182 $408 $414 $419 reversed $283 $-1 #
vertex $-1 $419 $420 #
vertex $-1 $183 $421 #
straight-curve $-1 52.457655568102055 6.6531135020618946 73.031261031493486 0 0 -1 I I #
coedge $-1 $297 $297 $-1 $422 reversed $186 $-1 #
edge $-1 $423 0 $423 6.2831853071796004 $187 $424 forward 7 unknown #
vertex $-1 $190 $425 #
ellipse-curve $-1 50.649649251466677 9.3333623089521254 5.1061966043226814 0.85716730853699208 0 0.51503806187062418 0.51503806187062418 0 -0.85716730853699208 1 I I #
coedge $-1 $301 $301 $-1 $426 reversed $193 $-1 #
edge $-1 $427 0 $427 6.2831853071796004 $194 $428 forward 7 unknown #
vertex $-1 $197 $429 #
ellipse-curve $-1 50.649649251466677 13.353735519287468 5.1061966043226814 0.85716730853699208 0 0.51503806187062418 0.51503806187062418 0 -0.85716730853699208 1 I I #
face $-1 $-1 $430 $41 $-1 $431 reversed single #
loop $-1 $-1 $432 $198 #
plane-surface $-1 0 23.005516412219102 0 0 -1 0 0 0 -1 forward_v I I I I #
coedge $-1 $433 $201 $203 $314 forward $125 $-1 #
coedge $-1 $201 $433 $432 $434 reversed $125 $-1 #
coedge $-1 $435 $204 $201 $311 forward $199 $-1 #
edge $-1 $317 4.2476183384033703 $436 13.921138162011609 $310 $437 forward 7 unknown #
coedge $-1 $438 $439 $202 $313 forward $430 $-1 #
edge $-1 $440 -42.250398738451729 $316 -34.512645843727007 $312 $441 forward 7 unknown #
edge $-1 $317 -13.164251341270189 $440 0 $203 $442 forward 7 unknown #
coedge $-1 $204 $435 $438 $443 forward $199 $-1 #
vertex $-1 $313 $444 #
vertex $-1 $205 $445 #
straight-curve $-1 -57.062664490741355 13.33199658861086 8.1152245247436667 1 0 0 I I #
coedge $-1 $319 $319 $-1 $446 reversed $208 $-1 #
edge $-1 $447 0 $447 6.2831853071796004 $209 $448 forward 7 unknown #
vertex $-1 $212 $449 #
ellipse-curve $-1 -47.132604077357733 16.095859395356072 4.2463480773813078 -0.5877852598018023 0 0.80901698891910034 0.80901698891910034 0 0.5877852598018023 1 I I #
coedge $-1 $323 $323 $-1 $450 reversed $215 $-1 #
edge $-1 $451 0 $451 6.2831853071796004 $216 $452 forward 7 unknown #
vertex $-1 $219 $453 #
ellipse-curve $-1 -47.132604077357733 20.241653605473893 4.2463480773813078 -0.5877852598018023 0 0.80901698891910034 0.80901698891910034 0 0.5877852598018023 1 I I #
face $-1 $-1 $235 $33 $-1 $454 reversed single #
loop $-1 $-1 $343 $220 #
plane-surface $-1 0 23.005516412219102 0 0 -1 0 0 0 -1 forward_v I I I I #
coedge $-1 $455 $341 $344 $456 forward $221 $-1 #
coedge $-1 $347 $223 $224 $335 reversed $139 $-1 #
coedge $-1 $341 $455 $223 $333 reversed $221 $-1 #
edge $-1 $348 -8.1152245247436667 $457 8.1152245247436667 $332 $458 forward 7 unknown #
coedge $-1 $225 $224 $455 $459 forward $89 $-1 #
edge $-1 $339 -52.457655568102055 $457 52.457655568102055 $331 $460 forward 7 unknown #
coedge $-1 $344 $343 $225 $337 reversed $328 $-1 #
edge $-1 $461 -52.457655568102055 $338 52.457655568102055 $336 $462 forward 7 unknown #
vertex $-1 $227 $463 #
vertex $-1 $350 $464 #
straight-curve $-1 52.457655568102055 0 -8.1152245247436667 0 -1 0 I I #
coedge $-1 $330 $332 $228 $342 reversed $221 $-1 #
edge $-1 $345 -23.005516412219102 $348 23.005516412219102 $341 $465 forward 7 unknown #
coedge $-1 $336 $229 $234 $351 forward $328 $-1 #
coedge $-1 $229 $336 $330 $456 reversed $328 $-1 #
vertex $-1 $230 $466 #
straight-curve $-1 0 23.005516412219102 8.1152245247436667 -1 0 0 I I #
coedge $-1 $231 $331 $233 $350 reversed $139 $-1 #
vertex $-1 $342 $467 #
straight-curve $-1 0 -23.005516412219102 8.1152245247436667 1 0 0 I I #
edge $-1 $236 -8.1152245247436667 $339 8.1152245247436667 $233 $468 forward 7 unknown #
edge $-1 $237 -8.1152245247436667 $338 8.1152245247436667 $234 $469 forward 7 unknown #
point $-1 52.457655568102055 -23.005516412219102 8.1152245247436667 #
point $-1 52.457655568102055 23.005516412219102 8.1152245247436667 #
face $-1 $-1 $254 $34 $-1 $470 reversed single #
loop $-1 $-1 $250 $239 #
plane-surface $-1 0 -23.005516412219102 0 0 1 0 0 0 1 forward_v I I I I #
coedge $-1 $471 $472 $247 $367 forward $240 $-1 #
coedge $-1 $368 $242 $244 $363 reversed $147 $-1 #
edge $-1 $365 0.57812169699541993 $255 3.5781216969954199 $253 $473 forward 7 unknown #
coedge $-1 $244 $243 $474 $475 reversed $93 $-1 #
coedge $-1 $372 $371 $243 $362 forward $355 $-1 #
edge $-1 $476 -52.457655568102055 $364 52.457655568102055 $361 $477 forward 7 unknown #
edge $-1 $478 -52.457655568102055 $365 52.457655568102055 $358 $479 forward 7 unknown #
vertex $-1 $362 $480 #
vertex $-1 $246 $481 #
straight-curve $-1 52.457655568102055 -9.6925767239026328 2.6562433939908399 0 1 0 I I #
edge $-1 $373 -13.312939688316469 $369 -6.0722137594887968 $357 $482 forward 7 unknown #
coedge $-1 $248 $358 $471 $483 reversed $147 $-1 #
vertex $-1 $367 $484 #
straight-curve $-1 0 -15.76479048339143 5.6562433939908399 -1 0 0 I I #
coedge $-1 $361 $250 $472 $485 forward $355 $-1 #
coedge $-1 $250 $361 $252 $375 reversed $355 $-1 #
vertex $-1 $485 $486 #
straight-curve $-1 0 -23.005516412219102 5.6562433939908399 -1 0 0 I I #
edge $-1 $256 -5.6562433939908399 $364 -2.6562433939908399 $252 $487 forward 7 unknown #
point $-1 52.457655568102055 -15.76479048339143 5.6562433939908399 #
point $-1 52.457655568102055 -23.005516412219102 5.6562433939908399 #
plane-surface $-1 52.457655568102055 0 0 -1 0 0 0 0 1 forward_v I I I I #
coedge $-1 $389 $388 $381 $488 forward $259 $-1 #
coedge $-1 $381 $261 $263 $385 reversed $155 $-1 #
coedge $-1 $261 $380 $379 $488 reversed $155 $-1 #
coedge $-1 $269 $264 $261 $383 forward $270 $-1 #
edge $-1 $386 -70.934092347591786 $489 -64.916036506749819 $382 $490 forward 7 unknown #
coedge $-1 $263 $262 $389 $491 reversed $97 $-1 #
edge $-1 $492 97.894446270144854 $386 104.91531113620415 $380 $493 forward 7 unknown #
vertex $-1 $265 $494 #
straight-curve $-1 52.457655568102055 -4.0208022668427343 2.0971686839016783 0 1 0 I I #
coedge $-1 $379 $266 $269 $393 forward $259 $-1 #
coedge $-1 $266 $379 $384 $491 forward $259 $-1 #
vertex $-1 $267 $495 #
straight-curve $-1 44.176125965449579 -12.732039945743374 8.1152245247436667 1 0 0 I I #
straight-curve $-1 -1.5777229400420367 -12.732039945743374 92.027143554842894 -0.51503806187062418 0 0.85716730853699208 I I #
edge $-1 $271 -12.732039945743374 $489 -3.3511691216275628 $269 $496 forward 7 unknown #
point $-1 52.457655568102055 -12.732039945743374 8.1152245247436667 #
point $-1 52.457655568102055 -12.732039945743374 2.0971686839016996 #
edge $-1 $497 1 $497 0 $274 $-1 forward 7 unknown #
vertex $-1 $275 $498 #
ellipse-curve $-1 48.650150266877759 -10.051791138853144 3.9047764480959573 0.85716730853699208 0 0.51503806187062418 0.51503806187062418 0 -0.85716730853699208 1 I I #
point $-1 51.164687313337303 -10.051791138853144 4.2490292957856921 #
edge $-1 $499 1 $499 0 $278 $-1 forward 7 unknown #
vertex $-1 $279 $500 #
ellipse-curve $-1 48.650150266877759 -6.0314179285177971 3.9047764480959573 0.85716730853699208 0 0.51503806187062418 0.51503806187062418 0 -0.85716730853699208 1 I I #
point $-1 51.164687313337303 -6.0314179285177971 4.2490292957856921 #
loop $-1 $-1 $290 $282 #
plane-surface $-1 0 0 8.1152245247436667 0 0 1 1 0 0 forward_v I I I I #
coedge $-1 $407 $285 $287 $411 reversed $177 $-1 #
coedge $-1 $285 $406 $501 $502 reversed $177 $-1 #
coedge $-1 $293 $288 $285 $409 forward $283 $-1 #
edge $-1 $412 -70.934092347591786 $503 -64.916036506749819 $408 $504 forward 7 unknown #
coedge $-1 $287 $286 $415 $505 reversed $111 $-1 #
edge $-1 $506 97.894446270144854 $412 104.91531113620415 $406 $507 forward 7 unknown #
vertex $-1 $289 $508 #
straight-curve $-1 52.457655568102055 5.6717744570599002 2.0971686839016783 0 1 0 I I #
coedge $-1 $501 $290 $293 $419 forward $404 $-1 #
coedge $-1 $290 $501 $410 $505 forward $404 $-1 #
vertex $-1 $291 $509 #
straight-curve $-1 44.176125965449579 6.6531135020618946 8.1152245247436667 1 0 0 I I #
straight-curve $-1 -1.5777229400420367 6.6531135020618946 92.027143554842894 -0.51503806187062418 0 0.85716730853699208 I I #
edge $-1 $294 6.6531135020618946 $503 16.033984326177706 $293 $510 forward 7 unknown #
point $-1 52.457655568102055 6.6531135020618946 8.1152245247436667 #
point $-1 52.457655568102055 6.6531135020618946 2.0971686839016996 #
edge $-1 $511 1 $511 0 $297 $-1 forward 7 unknown #
vertex $-1 $298 $512 #
ellipse-curve $-1 48.650150266877759 9.3333623089521254 3.9047764480959573 0.85716730853699208 0 0.51503806187062418 0.51503806187062418 0 -0.85716730853699208 1 I I #
point $-1 51.164687313337303 9.3333623089521254 4.2490292957856921 #
edge $-1 $513 1 $513 0 $301 $-1 forward 7 unknown #
vertex $-1 $302 $514 #
ellipse-curve $-1 48.650150266877759 13.353735519287468 3.9047764480959573 0.85716730853699208 0 0.51503806187062418 0.51503806187062418 0 -0.85716730853699208 1 I I #
point $-1 51.164687313337303 13.353735519287468 4.2490292957856921 #
loop $-1 $-1 $312 $305 #
plane-surface $-1 -52.457655568102055 0 0 1 0 0 0 0 -1 forward_v I I I I #
coedge $-1 $515 $516 $309 $434 forward $306 $-1 #
coedge $-1 $309 $308 $439 $517 reversed $125 $-1 #
edge $-1 $436 7.9443798054011676 $518 21.108631146671357 $432 $519 forward 7 unknown #
coedge $-1 $315 $310 $516 $520 forward $199 $-1 #
vertex $-1 $520 $521 #
straight-curve $-1 -41.807552586613411 9.0843782502074895 8.1152245247436667 0 1 0 I I #
coedge $-1 $522 $312 $315 $443 reversed $430 $-1 #
coedge $-1 $312 $522 $433 $517 forward $430 $-1 #
vertex $-1 $313 $523 #
straight-curve $-1 -52.457655568102055 13.33199658861086 42.627870368470674 0 0 1 I I #
straight-curve $-1 -52.457655568102055 13.33199658861086 0.37747163001894535 -0.80901698891910034 0 -0.5877852598018023 I I #
edge $-1 $524 -23.005516412219102 $316 -13.33199658861086 $438 $525 forward 7 unknown #
point $-1 -52.457655568102055 13.33199658861086 8.1152245247436667 #
point $-1 -41.807552586613419 13.33199658861086 8.1152245247436667 #
edge $-1 $526 1 $526 0 $319 $-1 forward 7 unknown #
vertex $-1 $320 $527 #
ellipse-curve $-1 -46.138408012597594 16.095859395356072 2.8779546151521251 -0.5877852598018023 0 0.80901698891910034 0.80901698891910034 0 0.5877852598018023 1 I I #
point $-1 -46.323587088438629 16.095859395356072 4.8341333371831006 #
edge $-1 $528 1 $528 0 $323 $-1 forward 7 unknown #
vertex $-1 $324 $529 #
ellipse-curve $-1 -46.138408012597594 20.241653605473893 2.8779546151521251 -0.5877852598018023 0 0.80901698891910034 0.80901698891910034 0 0.5877852598018023 1 I I #
point $-1 -46.323587088438629 20.241653605473893 4.8341333371831006 #
plane-surface $-1 52.457655568102055 0 0 -1 0 0 0 0 1 forward_v I I I I #
coedge $-1 $332 $330 $334 $459 reversed $221 $-1 #
edge $-1 $345 -8.1152245247436667 $461 8.1152245247436667 $344 $530 forward 7 unknown #
vertex $-1 $459 $531 #
straight-curve $-1 -52.457655568102055 -23.005516412219102 0 0 0 -1 I I #
edge $-1 $457 -23.005516412219102 $461 23.005516412219102 $455 $532 forward 7 unknown #
straight-curve $-1 0 -23.005516412219102 -8.1152245247436667 -1 0 0 I I #
vertex $-1 $337 $533 #
straight-curve $-1 0 23.005516412219102 -8.1152245247436667 1 0 0 I I #
point $-1 52.457655568102055 23.005516412219102 -8.1152245247436667 #
point $-1 52.457655568102055 -23.005516412219102 -8.1152245247436667 #
straight-curve $-1 -52.457655568102055 0 8.1152245247436667 0 -1 0 I I #
point $-1 -52.457655568102055 23.005516412219102 8.1152245247436667 #
point $-1 -52.457655568102055 -23.005516412219102 8.1152245247436667 #
straight-curve $-1 52.457655568102055 -23.005516412219102 0 0 0 -1 I I #
straight-curve $-1 52.457655568102055 23.005516412219102 0 0 0 -1 I I #
plane-surface $-1 52.457655568102055 0 0 -1 0 0 0 0 1 forward_v I I I I #
coedge $-1 $474 $357 $368 $483 forward $240 $-1 #
coedge $-1 $357 $474 $371 $485 reversed $240 $-1 #
straight-curve $-1 52.457655568102055 -15.76479048339143 2.0781216969954199 0 0 1 I I #
coedge $-1 $472 $471 $360 $475 forward $240 $-1 #
edge $-1 $478 6.0722137594887968 $476 13.312939688316469 $474 $534 forward 7 unknown #
vertex $-1 $362 $535 #
straight-curve $-1 0 -23.005516412219102 2.6562433939908399 1 0 0 I I #
vertex $-1 $475 $536 #
straight-curve $-1 0 -15.76479048339143 2.6562433939908399 1 0 0 I I #
point $-1 52.457655568102055 -23.005516412219102 2.6562433939908399 #
point $-1 52.457655568102055 -15.76479048339143 2.6562433939908399 #
straight-curve $-1 -52.457655568102055 -9.6925767239026328 5.6562433939908399 0 1 0 I I #
edge $-1 $369 -3.5781216969954199 $478 -0.57812169699541993 $471 $537 forward 7 unknown #
point $-1 -52.457655568102055 -15.76479048339143 5.6562433939908399 #
edge $-1 $373 -5.6562433939908399 $476 -2.6562433939908399 $472 $538 forward 7 unknown #
point $-1 -52.457655568102055 -23.005516412219102 5.6562433939908399 #
straight-curve $-1 52.457655568102055 -23.005516412219102 0 0 0 -1 I I #
edge $-1 $489 -8.2815296026524763 $492 -4.6655169693817342 $379 $539 forward 7 unknown #
vertex $-1 $488 $540 #
straight-curve $-1 52.457655568102055 -3.3511691216275628 73.031261031493486 0 0 1 I I #
edge $-1 $492 -0.66963314521517159 $390 8.7112376789006394 $389 $541 forward 7 unknown #
vertex $-1 $491 $542 #
straight-curve $-1 -1.5777229400420367 -3.3511691216275628 92.027143554842894 0.51503806187062418 0 -0.85716730853699208 I I #
point $-1 52.457655568102055 -3.3511691216275628 2.0971686839016996 #
point $-1 48.841642934831313 -12.732039945743374 8.1152245247436667 #
straight-curve $-1 52.457655568102055 0 8.1152245247436667 0 1 0 I I #
vertex $-1 $396 $543 #
point $-1 49.165188328748386 -10.051791138853144 3.0476091395589653 #
vertex $-1 $400 $544 #
point $-1 49.165188328748386 -6.0314179285177971 3.0476091395589653 #
coedge $-1 $415 $414 $407 $502 forward $404 $-1 #
edge $-1 $503 -8.2815296026524763 $506 -4.6655169693817342 $501 $545 forward 7 unknown #
vertex $-1 $502 $546 #
straight-curve $-1 52.457655568102055 16.033984326177706 73.031261031493486 0 0 1 I I #
edge $-1 $506 -10.362209869117805 $416 -0.98133904500199431 $415 $547 forward 7 unknown #
vertex $-1 $505 $548 #
straight-curve $-1 -1.5777229400420367 16.033984326177706 92.027143554842894 0.51503806187062418 0 -0.85716730853699208 I I #
point $-1 52.457655568102055 16.033984326177706 2.0971686839016996 #
point $-1 48.841642934831313 6.6531135020618946 8.1152245247436667 #
straight-curve $-1 52.457655568102055 0 8.1152245247436667 0 1 0 I I #
vertex $-1 $422 $549 #
point $-1 49.165188328748386 9.3333623089521254 3.0476091395589653 #
vertex $-1 $426 $550 #
point $-1 49.165188328748386 13.353735519287468 3.0476091395589653 #
coedge $-1 $516 $432 $522 $551 reversed $306 $-1 #
coedge $-1 $432 $515 $435 $520 reversed $306 $-1 #
edge $-1 $518 -13.921138162011609 $440 -4.2476183384033703 $439 $552 forward 7 unknown #
vertex $-1 $434 $553 #
straight-curve $-1 -35.380414357618058 23.005516412219102 12.784813872625584 -0.80901698891910034 0 -0.5877852598018023 I I #
edge $-1 $436 41.807552586613419 $524 52.457655568102055 $516 $554 forward 7 unknown #
point $-1 -41.807552586613419 23.005516412219098 8.1152245247436667 #
coedge $-1 $439 $438 $515 $551 forward $430 $-1 #
point $-1 -52.457655568102055 13.33199658861086 0.37747163001894535 #
vertex $-1 $520 $555 #
straight-curve $-1 -52.457655568102055 0 8.1152245247436667 0 -1 0 I I #
vertex $-1 $446 $556 #
point $-1 -45.32939102367849 16.095859395356072 3.4657398749539277 #
vertex $-1 $450 $557 #
point $-1 -45.32939102367849 20.241653605473893 3.4657398749539277 #
straight-curve $-1 -52.457655568102055 23.005516412219102 0 0 0 -1 I I #
point $-1 -52.457655568102055 -23.005516412219102 -8.1152245247436667 #
straight-curve $-1 -52.457655568102055 0 -8.1152245247436667 0 1 0 I I #
point $-1 -52.457655568102055 23.005516412219102 -8.1152245247436667 #
straight-curve $-1 -52.457655568102055 -9.6925767239026328 2.6562433939908399 0 -1 0 I I #
point $-1 -52.457655568102055 -23.005516412219102 2.6562433939908399 #
point $-1 -52.457655568102055 -15.76479048339143 2.6562433939908399 #
straight-curve $-1 -52.457655568102055 -15.76479048339143 2.0781216969954199 0 0 -1 I I #
straight-curve $-1 -52.457655568102055 -23.005516412219102 0 0 0 -1 I I #
straight-curve $-1 44.176125965449579 -3.3511691216275628 8.1152245247436667 -1 0 0 I I #
point $-1 52.457655568102055 -3.3511691216275628 8.1152245247436667 #
straight-curve $-1 48.841642934831313 -4.0208022668427343 8.1152245247436738 0 -1 0 I I #
point $-1 48.841642934831313 -3.3511691216275628 8.1152245247436667 #
point $-1 47.792982958340772 -10.051791138853144 3.3897383862253334 #
point $-1 47.792982958340772 -6.0314179285177971 3.3897383862253334 #
straight-curve $-1 44.176125965449579 16.033984326177706 8.1152245247436667 -1 0 0 I I #
point $-1 52.457655568102055 16.033984326177706 8.1152245247436667 #
straight-curve $-1 48.841642934831313 5.6717744570599002 8.1152245247436738 0 -1 0 I I #
point $-1 48.841642934831313 16.033984326177706 8.1152245247436667 #
point $-1 47.792982958340772 9.3333623089521254 3.3897383862253334 #
point $-1 47.792982958340772 13.353735519287468 3.3897383862253334 #
edge $-1 $524 -8.1152245247436667 $518 -0.37747163001894535 $515 $558 forward 7 unknown #
straight-curve $-1 -52.457655568102055 9.0843782502074895 0.37747163001894501 0 -1 0 I I #
point $-1 -52.457655568102055 23.005516412219098 0.37747163001894535 #
straight-curve $-1 0 23.005516412219102 8.1152245247436667 -1 0 0 I I #
point $-1 -52.457655568102055 23.005516412219102 8.1152245247436667 #
point $-1 -45.550622752795789 16.095859395356072 2.068937626233025 #
point $-1 -45.550622752795789 20.241653605473893 2.068937626233025 #
straight-curve $-1 -52.457655568102055 23.005516412219102 0 0 0 -1 I I #
End-of-ACIS-data 