500 0 5 0           
7 Unknown 11 ACIS 5.0 NT 24 Thu Mar 25 17:56:05 1999 
-1 9.9999999999999995e-007 1e-010 
body $-1 $5 $-1 $6 #
body $-1 $7 $-1 $8 #
body $-1 $9 $-1 $10 #
body $-1 $11 $-1 $12 #
body $-1 $13 $-1 $14 #
lump $-1 $-1 $15 $0 #
transform $-1 1 0 0 0 1 0 0 0 1 64.401379436628318 39.129238037965095 17.845378197324834 1 rotate no_reflect no_shear #
lump $-1 $-1 $16 $1 #
transform $-1 1 0 0 0 1 0 0 0 1 64.401379436628318 39.129238037965095 17.845378197324834 1 rotate no_reflect no_shear #
lump $-1 $-1 $17 $2 #
transform $-1 1 0 0 0 1 0 0 0 1 64.401379436628318 39.129238037965095 17.845378197324834 1 rotate no_reflect no_shear #
lump $-1 $-1 $18 $3 #
transform $-1 1 0 0 0 1 0 0 0 1 64.401379436628318 39.129238037965095 17.845378197324834 1 rotate no_reflect no_shear #
lump $-1 $-1 $19 $4 #
transform $-1 1 0 0 0 1 0 0 0 1 64.401379436628318 39.129238037965095 17.845378197324834 1 rotate no_reflect no_shear #
shell $-1 $-1 $-1 $20 $-1 $5 #
shell $-1 $-1 $-1 $21 $-1 $7 #
shell $-1 $-1 $-1 $22 $-1 $9 #
shell $-1 $-1 $-1 $23 $-1 $11 #
shell $-1 $-1 $-1 $24 $-1 $13 #
face $-1 $25 $26 $15 $-1 $27 forward single #
face $-1 $28 $29 $16 $-1 $30 reversed single #
face $-1 $31 $32 $17 $-1 $33 forward single #
face $-1 $34 $35 $18 $-1 $36 reversed single #
face $-1 $37 $38 $19 $-1 $39 forward single #
face $-1 $40 $41 $15 $-1 $42 reversed single #
loop $-1 $-1 $43 $20 #
plane-surface $-1 0 0 17.845378197324834 0 0 1 1 0 0 forward_v I I I I #
face $-1 $44 $45 $16 $-1 $46 reversed single #
loop $-1 $-1 $47 $21 #
plane-surface $-1 -167.26783752413618 -29.053223395399769 86.672205621464542 0 -1 0 0.79863551827123203 0 -0.60181501223851219 forward_v I I I I #
face $-1 $48 $49 $17 $-1 $50 forward single #
loop $-1 $51 $52 $22 #
cone-surface $-1 -59.325225229126119 -34.091230716682432 12.142803616675426 0.79863551827123203 0 -0.60181501223851219 0.90272251835776829 0 1.197953277406848 1 I I 0 1 1.5 forward I I I I #
face $-1 $53 $54 $18 $-1 $55 reversed single #
loop $-1 $-1 $56 $23 #
plane-surface $-1 -64.401379436628346 34.091230716682432 9.1567717138014615 -0.79863551827123203 0 0.60181501223851219 0.60181501223851219 0 0.79863551827123203 forward_v I I I I #
face $-1 $57 $58 $19 $-1 $59 forward single #
loop $-1 $60 $61 $24 #
cone-surface $-1 -59.325225229126119 34.091230716682432 12.142803616675426 0.79863551827123203 0 -0.60181501223851219 0.90272251835776829 0 1.197953277406848 1 I I 0 1 1.5 forward I I I I #
face $-1 $62 $63 $15 $-1 $64 reversed single #
loop $-1 $-1 $65 $25 #
plane-surface $-1 0 0 -17.845378197324834 0 0 1 1 0 0 forward_v I I I I #
coedge $-1 $66 $67 $68 $69 forward $26 $-1 #
face $-1 $70 $71 $16 $-1 $72 forward single #
loop $-1 $-1 $73 $28 #
plane-surface $-1 -64.401379436628346 -34.091230716682432 9.1567717138014615 -0.79863551827123203 0 0.60181501223851219 0.60181501223851219 0 0.79863551827123203 forward_v I I I I #
coedge $-1 $74 $75 $76 $77 reversed $29 $-1 #
face $-1 $-1 $78 $17 $-1 $79 forward single #
loop $-1 $80 $81 $31 #
cone-surface $-1 -56.923761592548274 -34.091230716682432 10.333171018608823 0.79863551827123203 0 -0.60181501223851219 0.45136125917888414 0 0.59897663870342399 1 I I -0.70710678118654757 0.70710678118654757 0.75 forward I I I I #
loop $-1 $-1 $82 $22 #
coedge $-1 $52 $52 $83 $84 reversed $32 $-1 #
face $-1 $85 $86 $18 $-1 $87 forward single #
loop $-1 $-1 $88 $34 #
plane-surface $-1 -167.26783752413618 29.053223395399769 86.672205621464542 0 1 0 -0.79863551827123203 0 0.60181501223851219 forward_v I I I I #
coedge $-1 $89 $90 $91 $92 reversed $35 $-1 #
face $-1 $-1 $93 $19 $-1 $94 forward single #
loop $-1 $95 $96 $37 #
cone-surface $-1 -56.923761592548274 34.091230716682432 10.333171018608823 0.79863551827123203 0 -0.60181501223851219 0.45136125917888414 0 0.59897663870342399 1 I I -0.70710678118654757 0.70710678118654757 0.75 forward I I I I #
loop $-1 $-1 $97 $24 #
coedge $-1 $61 $61 $98 $99 reversed $38 $-1 #
face $-1 $100 $101 $15 $-1 $102 reversed single #
loop $-1 $-1 $103 $40 #
plane-surface $-1 0 -39.129238037965095 0 0 1 0 0 0 1 forward_v I I I I #
coedge $-1 $104 $105 $106 $107 forward $41 $-1 #
coedge $-1 $108 $43 $109 $110 forward $26 $-1 #
coedge $-1 $43 $108 $111 $112 forward $26 $-1 #
coedge $-1 $113 $114 $43 $69 reversed $115 $-1 #
edge $-1 $116 -39.129238037965095 $117 39.129238037965095 $68 $118 forward 7 unknown #
face $-1 $119 $120 $16 $-1 $121 reversed single #
loop $-1 $-1 $122 $44 #
plane-surface $-1 0 0 17.845378197324834 0 0 1 1 0 0 forward_v I I I I #
coedge $-1 $123 $124 $125 $126 reversed $45 $-1 #
coedge $-1 $75 $47 $127 $128 reversed $29 $-1 #
coedge $-1 $47 $74 $123 $129 reversed $29 $-1 #
coedge $-1 $125 $130 $47 $77 forward $120 $-1 #
edge $-1 $131 25.490724613407437 $132 34.179331096930774 $76 $133 forward 7 unknown #
loop $-1 $-1 $83 $48 #
plane-surface $-1 -64.401379436628346 -34.091230716682432 9.1567717138014615 -0.79863551827123203 0 0.60181501223851219 0.60181501223851219 0 0.79863551827123203 forward_v I I I I #
loop $-1 $-1 $134 $31 #
coedge $-1 $81 $81 $82 $135 reversed $49 $-1 #
coedge $-1 $82 $82 $81 $135 forward $51 $-1 #
coedge $-1 $83 $83 $52 $84 forward $78 $-1 #
edge $-1 $136 0 $136 6.2831853071796004 $83 $137 forward 7 unknown #
face $-1 $138 $139 $18 $-1 $140 reversed single #
loop $-1 $-1 $141 $53 #
plane-surface $-1 0 0 17.845378197324834 0 0 1 1 0 0 forward_v I I I I #
coedge $-1 $142 $143 $144 $145 reversed $54 $-1 #
coedge $-1 $146 $56 $147 $148 reversed $35 $-1 #
coedge $-1 $56 $146 $142 $149 forward $35 $-1 #
coedge $-1 $144 $150 $56 $92 forward $151 $-1 #
edge $-1 $152 -22.083622679623879 $153 -12.007608037058553 $91 $154 forward 7 unknown #
loop $-1 $-1 $98 $57 #
plane-surface $-1 -64.401379436628346 34.091230716682432 9.1567717138014615 -0.79863551827123203 0 0.60181501223851219 0.60181501223851219 0 0.79863551827123203 forward_v I I I I #
loop $-1 $-1 $155 $37 #
coedge $-1 $96 $96 $97 $156 reversed $58 $-1 #
coedge $-1 $97 $97 $96 $156 forward $60 $-1 #
coedge $-1 $98 $98 $61 $99 forward $93 $-1 #
edge $-1 $157 0 $157 6.2831853071796004 $98 $158 forward 7 unknown #
face $-1 $159 $160 $15 $-1 $161 reversed single #
loop $-1 $-1 $162 $62 #
plane-surface $-1 -64.401379436628318 0 0 1 0 0 0 0 -1 forward_v I I I I #
coedge $-1 $163 $111 $164 $165 forward $63 $-1 #
coedge $-1 $166 $65 $163 $167 forward $41 $-1 #
coedge $-1 $65 $166 $168 $169 forward $41 $-1 #
coedge $-1 $114 $113 $65 $107 reversed $115 $-1 #
edge $-1 $170 -39.129238037965095 $171 39.129238037965095 $106 $172 forward 7 unknown #
coedge $-1 $67 $66 $173 $174 forward $26 $-1 #
coedge $-1 $175 $176 $66 $110 reversed $160 $-1 #
edge $-1 $117 -64.401379436628318 $177 64.401379436628318 $109 $178 forward 7 unknown #
coedge $-1 $103 $179 $67 $112 reversed $63 $-1 #
edge $-1 $180 -64.401379436628318 $116 64.401379436628318 $111 $181 forward 7 unknown #
coedge $-1 $106 $68 $179 $182 forward $115 $-1 #
coedge $-1 $68 $106 $175 $183 reversed $115 $-1 #
loop $-1 $-1 $113 $159 #
vertex $-1 $69 $184 #
vertex $-1 $69 $185 #
straight-curve $-1 64.401379436628318 0 17.845378197324834 0 1 0 I I #
face $-1 $-1 $186 $16 $-1 $187 reversed single #
loop $-1 $-1 $76 $70 #
plane-surface $-1 -64.401379436628318 0 0 1 0 0 0 0 -1 forward_v I I I I #
coedge $-1 $127 $188 $189 $190 forward $71 $-1 #
coedge $-1 $189 $73 $75 $129 forward $45 $-1 #
coedge $-1 $73 $189 $191 $192 reversed $45 $-1 #
coedge $-1 $193 $76 $73 $126 forward $120 $-1 #
edge $-1 $132 12.007608037058553 $194 22.083622679623879 $125 $195 forward 7 unknown #
coedge $-1 $196 $122 $74 $128 forward $71 $-1 #
edge $-1 $197 -25.779873744695301 $131 -19.232539325439774 $127 $198 forward 7 unknown #
edge $-1 $132 4.6896506375148425e-014 $197 10.879313885677391 $75 $199 forward 7 unknown #
coedge $-1 $76 $193 $196 $200 reversed $120 $-1 #
vertex $-1 $200 $201 #
vertex $-1 $77 $202 #
straight-curve $-1 -64.401379436628318 -29.053223395399769 43.336102810732271 0 0 -1 I I #
coedge $-1 $134 $134 $-1 $203 reversed $80 $-1 #
edge $-1 $204 0 $204 6.2831853071796004 $81 $205 forward 7 unknown #
vertex $-1 $84 $206 #
ellipse-curve $-1 -61.127712227000558 -34.091230716682432 13.50107495556316 -0.79863551827123203 0 0.60181501223851219 0.90272251835776829 0 1.197953277406848 1 I I #
face $-1 $-1 $151 $18 $-1 $207 reversed single #
loop $-1 $-1 $147 $85 #
plane-surface $-1 0 39.129238037965095 0 0 -1 0 0 0 -1 forward_v I I I I #
coedge $-1 $208 $209 $143 $210 forward $86 $-1 #
coedge $-1 $143 $88 $90 $149 reversed $54 $-1 #
coedge $-1 $88 $142 $141 $210 reversed $54 $-1 #
coedge $-1 $211 $91 $88 $145 forward $151 $-1 #
edge $-1 $153 -34.179331096930774 $212 -25.490724613407437 $144 $213 forward 7 unknown #
coedge $-1 $90 $89 $208 $214 reversed $35 $-1 #
coedge $-1 $215 $216 $89 $148 forward $139 $-1 #
edge $-1 $217 4.8430830295667926 $152 15.722396915244136 $147 $218 forward 7 unknown #
edge $-1 $219 -10.879313885677391 $153 -4.6896506375148425e-014 $142 $220 forward 7 unknown #
coedge $-1 $91 $211 $215 $221 forward $151 $-1 #
loop $-1 $-1 $144 $138 #
vertex $-1 $148 $222 #
vertex $-1 $92 $223 #
straight-curve $-1 -64.401379436628318 17.045615358341216 9.1567717138015077 0 -1 0 I I #
coedge $-1 $155 $155 $-1 $224 reversed $95 $-1 #
edge $-1 $225 0 $225 6.2831853071796004 $96 $226 forward 7 unknown #
vertex $-1 $99 $227 #
ellipse-curve $-1 -61.127712227000558 34.091230716682432 13.50107495556316 -0.79863551827123203 0 0.60181501223851219 0.90272251835776829 0 1.197953277406848 1 I I #
face $-1 $-1 $115 $15 $-1 $228 reversed single #
loop $-1 $-1 $175 $100 #
plane-surface $-1 0 39.129238037965095 0 0 -1 0 0 0 -1 forward_v I I I I #
coedge $-1 $229 $173 $176 $230 forward $101 $-1 #
coedge $-1 $179 $103 $104 $167 reversed $63 $-1 #
coedge $-1 $173 $229 $103 $165 reversed $101 $-1 #
edge $-1 $180 -17.845378197324834 $231 17.845378197324834 $164 $232 forward 7 unknown #
coedge $-1 $105 $104 $229 $233 forward $41 $-1 #
edge $-1 $171 -64.401379436628318 $231 64.401379436628318 $163 $234 forward 7 unknown #
coedge $-1 $176 $175 $105 $169 reversed $160 $-1 #
edge $-1 $235 -64.401379436628318 $170 64.401379436628318 $168 $236 forward 7 unknown #
vertex $-1 $107 $237 #
vertex $-1 $182 $238 #
straight-curve $-1 64.401379436628318 0 -17.845378197324834 0 -1 0 I I #
coedge $-1 $162 $164 $108 $174 reversed $101 $-1 #
edge $-1 $177 -39.129238037965095 $180 39.129238037965095 $173 $239 forward 7 unknown #
coedge $-1 $168 $109 $114 $183 forward $160 $-1 #
coedge $-1 $109 $168 $162 $230 reversed $160 $-1 #
vertex $-1 $110 $240 #
straight-curve $-1 0 39.129238037965095 17.845378197324834 -1 0 0 I I #
coedge $-1 $111 $163 $113 $182 reversed $63 $-1 #
vertex $-1 $174 $241 #
straight-curve $-1 0 -39.129238037965095 17.845378197324834 1 0 0 I I #
edge $-1 $116 -17.845378197324834 $171 17.845378197324834 $113 $242 forward 7 unknown #
edge $-1 $117 -17.845378197324834 $170 17.845378197324834 $114 $243 forward 7 unknown #
point $-1 64.401379436628318 -39.129238037965095 17.845378197324834 #
point $-1 64.401379436628318 39.129238037965095 17.845378197324834 #
loop $-1 $-1 $191 $119 #
plane-surface $-1 0 -39.129238037965095 0 0 1 0 0 0 1 forward_v I I I I #
coedge $-1 $122 $196 $244 $245 forward $71 $-1 #
coedge $-1 $124 $123 $122 $190 reversed $45 $-1 #
edge $-1 $246 -22.083622679623879 $197 -12.007608037058553 $122 $247 forward 7 unknown #
coedge $-1 $244 $248 $124 $192 forward $186 $-1 #
edge $-1 $194 -15.722396915244136 $246 -4.8430830295667926 $191 $249 forward 7 unknown #
coedge $-1 $130 $125 $248 $250 reversed $120 $-1 #
vertex $-1 $126 $251 #
straight-curve $-1 -64.401379436628318 -17.045615358341216 9.1567717138015077 0 -1 0 I I #
coedge $-1 $188 $127 $130 $200 forward $71 $-1 #
vertex $-1 $128 $252 #
straight-curve $-1 -83.633918762068092 -29.053223395399769 17.845378197324834 -1 0 0 I I #
straight-curve $-1 -64.401379436628346 -29.053223395399769 9.1567717138014615 0.60181501223851219 0 0.79863551827123203 I I #
edge $-1 $131 29.053223395399769 $253 39.129238037965095 $130 $254 forward 7 unknown #
point $-1 -64.401379436628318 -29.053223395399769 17.845378197324834 #
point $-1 -64.401379436628318 -29.053223395399769 9.1567717138014988 #
edge $-1 $255 1 $255 0 $134 $-1 forward 7 unknown #
vertex $-1 $135 $256 #
ellipse-curve $-1 -57.522738231251701 -34.091230716682432 10.784532277787708 -0.79863551827123203 0 0.60181501223851219 0.90272251835776829 0 1.197953277406848 1 I I #
point $-1 -60.224989708642767 -34.091230716682432 14.699028232969992 #
plane-surface $-1 -64.401379436628318 0 0 1 0 0 0 0 -1 forward_v I I I I #
coedge $-1 $257 $141 $146 $214 forward $86 $-1 #
coedge $-1 $141 $257 $211 $258 forward $86 $-1 #
edge $-1 $212 19.232539325439774 $219 25.779873744695301 $141 $259 forward 7 unknown #
coedge $-1 $150 $144 $209 $258 reversed $151 $-1 #
vertex $-1 $145 $260 #
straight-curve $-1 -64.401379436628318 29.053223395399769 43.336102810732271 0 0 1 I I #
edge $-1 $219 12.007608037058553 $217 22.083622679623879 $208 $261 forward 7 unknown #
coedge $-1 $216 $147 $150 $221 reversed $139 $-1 #
coedge $-1 $147 $215 $257 $262 reversed $139 $-1 #
vertex $-1 $262 $263 #
straight-curve $-1 -54.939404944661923 39.129238037965095 21.71323632267352 -0.60181501223851219 0 -0.79863551827123203 I I #
vertex $-1 $214 $264 #
straight-curve $-1 -64.401379436628346 29.053223395399769 9.1567717138014615 -0.60181501223851219 0 -0.79863551827123203 I I #
edge $-1 $265 -17.845378197324834 $152 -9.1567717138014988 $215 $266 forward 7 unknown #
point $-1 -64.401379436628318 39.129238037965095 9.1567717138014988 #
point $-1 -64.401379436628318 29.053223395399769 9.1567717138014988 #
edge $-1 $267 1 $267 0 $155 $-1 forward 7 unknown #
vertex $-1 $156 $268 #
ellipse-curve $-1 -57.522738231251701 34.091230716682432 10.784532277787708 -0.79863551827123203 0 0.60181501223851219 0.90272251835776829 0 1.197953277406848 1 I I #
point $-1 -60.224989708642767 34.091230716682432 14.699028232969992 #
plane-surface $-1 64.401379436628318 0 0 -1 0 0 0 0 1 forward_v I I I I #
coedge $-1 $164 $162 $166 $233 reversed $101 $-1 #
edge $-1 $177 -17.845378197324834 $235 17.845378197324834 $176 $269 forward 7 unknown #
vertex $-1 $233 $270 #
straight-curve $-1 -64.401379436628318 -39.129238037965095 0 0 0 -1 I I #
edge $-1 $231 -39.129238037965095 $235 39.129238037965095 $229 $271 forward 7 unknown #
straight-curve $-1 0 -39.129238037965095 -17.845378197324834 -1 0 0 I I #
vertex $-1 $169 $272 #
straight-curve $-1 0 39.129238037965095 -17.845378197324834 1 0 0 I I #
point $-1 64.401379436628318 39.129238037965095 -17.845378197324834 #
point $-1 64.401379436628318 -39.129238037965095 -17.845378197324834 #
straight-curve $-1 -64.401379436628318 0 17.845378197324834 0 -1 0 I I #
point $-1 -64.401379436628318 39.129238037965095 17.845378197324834 #
point $-1 -64.401379436628318 -39.129238037965095 17.845378197324834 #
straight-curve $-1 64.401379436628318 -39.129238037965095 0 0 0 -1 I I #
straight-curve $-1 64.401379436628318 39.129238037965095 0 0 0 -1 I I #
coedge $-1 $248 $191 $188 $245 reversed $186 $-1 #
edge $-1 $253 -64.401379436628318 $246 -57.85404501737279 $244 $273 forward 7 unknown #
vertex $-1 $192 $274 #
straight-curve $-1 -57.854045017372798 -17.045615358341216 17.845378197324834 0 1 0 I I #
coedge $-1 $191 $244 $193 $250 forward $186 $-1 #
straight-curve $-1 -54.939404944661923 -39.129238037965095 21.71323632267352 0.60181501223851219 0 0.79863551827123203 I I #
edge $-1 $253 -17.845378197324834 $194 -9.1567717138014988 $193 $275 forward 7 unknown #
point $-1 -64.401379436628318 -39.129238037965095 9.1567717138014988 #
point $-1 -57.85404501737279 -29.053223395399769 17.845378197324834 #
vertex $-1 $200 $276 #
straight-curve $-1 -64.401379436628318 0 17.845378197324834 0 -1 0 I I #
vertex $-1 $203 $277 #
point $-1 -56.620015712893931 -34.091230716682432 11.982485555194556 #
coedge $-1 $209 $208 $216 $262 forward $86 $-1 #
edge $-1 $265 -39.129238037965095 $212 -29.053223395399769 $211 $278 forward 7 unknown #
straight-curve $-1 -83.633918762068092 29.053223395399769 17.845378197324834 1 0 0 I I #
point $-1 -64.401379436628318 29.053223395399769 17.845378197324834 #
straight-curve $-1 -57.854045017372798 17.045615358341216 17.845378197324834 0 1 0 I I #
edge $-1 $217 57.85404501737279 $265 64.401379436628318 $216 $279 forward 7 unknown #
point $-1 -57.85404501737279 39.129238037965095 17.845378197324834 #
point $-1 -57.85404501737279 29.053223395399769 17.845378197324834 #
vertex $-1 $262 $280 #
straight-curve $-1 -64.401379436628318 39.129238037965095 0 0 0 -1 I I #
vertex $-1 $224 $281 #
point $-1 -56.620015712893931 34.091230716682432 11.982485555194556 #
straight-curve $-1 -64.401379436628318 39.129238037965095 0 0 0 -1 I I #
point $-1 -64.401379436628318 -39.129238037965095 -17.845378197324834 #
straight-curve $-1 -64.401379436628318 0 -17.845378197324834 0 1 0 I I #
point $-1 -64.401379436628318 39.129238037965095 -17.845378197324834 #
straight-curve $-1 0 -39.129238037965095 17.845378197324834 1 0 0 I I #
point $-1 -57.85404501737279 -39.129238037965095 17.845378197324834 #
straight-curve $-1 -64.401379436628318 -39.129238037965095 0 0 0 -1 I I #
point $-1 -64.401379436628318 -39.129238037965095 17.845378197324834 #
point $-1 -56.324784953844848 -34.091230716682432 9.8818097594299381 #
straight-curve $-1 -64.401379436628318 0 17.845378197324834 0 -1 0 I I #
straight-curve $-1 0 39.129238037965095 17.845378197324834 -1 0 0 I I #
point $-1 -64.401379436628318 39.129238037965095 17.845378197324834 #
point $-1 -56.324784953844848 34.091230716682432 9.8818097594299381 #
End-of-ACIS-data 