500 0 7 0           
7 Unknown 11 ACIS 5.0 NT 24 Thu Mar 25 15:35:12 1999 
-1 9.9999999999999995e-007 1e-010 
body $-1 $7 $-1 $8 #
body $-1 $9 $-1 $10 #
body $-1 $11 $-1 $12 #
body $-1 $13 $-1 $14 #
body $-1 $15 $-1 $16 #
body $-1 $17 $-1 $18 #
body $-1 $19 $-1 $20 #
lump $-1 $-1 $21 $0 #
transform $-1 1 0 0 0 1 0 0 0 1 45.299233985412151 24.949209442772744 10.814192079647594 1 rotate no_reflect no_shear #
lump $-1 $-1 $22 $1 #
transform $-1 1 0 0 0 1 0 0 0 1 45.299233985412151 24.949209442772744 10.814192079647594 1 rotate no_reflect no_shear #
lump $-1 $-1 $23 $2 #
transform $-1 1 0 0 0 1 0 0 0 1 45.299233985412151 24.949209442772744 10.814192079647594 1 rotate no_reflect no_shear #
lump $-1 $-1 $24 $3 #
transform $-1 1 0 0 0 1 0 0 0 1 45.299233985412151 24.949209442772744 10.814192079647594 1 rotate no_reflect no_shear #
lump $-1 $-1 $25 $4 #
transform $-1 1 0 0 0 1 0 0 0 1 45.299233985412151 24.949209442772744 10.814192079647594 1 rotate no_reflect no_shear #
lump $-1 $-1 $26 $5 #
transform $-1 1 0 0 0 1 0 0 0 1 45.299233985412151 24.949209442772744 10.814192079647594 1 rotate no_reflect no_shear #
lump $-1 $-1 $27 $6 #
transform $-1 1 0 0 0 1 0 0 0 1 45.299233985412151 24.949209442772744 10.814192079647594 1 rotate no_reflect no_shear #
shell $-1 $-1 $-1 $28 $-1 $7 #
shell $-1 $-1 $-1 $29 $-1 $9 #
shell $-1 $-1 $-1 $30 $-1 $11 #
shell $-1 $-1 $-1 $31 $-1 $13 #
shell $-1 $-1 $-1 $32 $-1 $15 #
shell $-1 $-1 $-1 $33 $-1 $17 #
shell $-1 $-1 $-1 $34 $-1 $19 #
face $-1 $35 $36 $21 $-1 $37 forward single #
face $-1 $38 $39 $22 $-1 $40 reversed single #
face $-1 $41 $42 $23 $-1 $43 reversed single #
face $-1 $44 $45 $24 $-1 $46 forward single #
face $-1 $47 $48 $25 $-1 $49 forward single #
face $-1 $50 $51 $26 $-1 $52 reversed single #
face $-1 $53 $54 $27 $-1 $55 forward single #
face $-1 $56 $57 $21 $-1 $58 reversed single #
loop $-1 $-1 $59 $28 #
plane-surface $-1 0 0 10.814192079647594 0 0 1 1 0 0 forward_v I I I I #
face $-1 $60 $61 $22 $-1 $62 reversed single #
loop $-1 $-1 $63 $29 #
plane-surface $-1 -38.45113455724519 0 6.0933337054999708 0 0 1 1 0 0 forward_v I I I I #
face $-1 $64 $65 $23 $-1 $66 reversed single #
loop $-1 $-1 $67 $30 #
plane-surface $-1 -15.254936860368682 -76.914356510064309 74.679427849105778 -1 0 0 0 -0.57357644374324357 0.81915203911291934 forward_v I I I I #
face $-1 $68 $69 $24 $-1 $70 forward single #
loop $-1 $71 $72 $31 #
cone-surface $-1 -26.932149909446927 -16.487705707203961 4.1091929793950168 0 0.57357644374324357 -0.81915203911291934 2 0 0 1 I I 0 1 2 forward I I I I #
face $-1 $73 $74 $25 $-1 $75 forward single #
loop $-1 $76 $77 $32 #
cone-surface $-1 -19.925822079999978 -16.487705707203961 4.1091929793950168 0 0.57357644374324357 -0.81915203911291934 2 0 0 1 I I 0 1 2 forward I I I I #
face $-1 $78 $79 $26 $-1 $80 reversed single #
loop $-1 $-1 $81 $33 #
plane-surface $-1 1.8998471642756627 63.955351714313935 101.04699975951226 1 0 0 0 -0.77714596973225614 -0.62932038083071107 forward_v I I I I #
face $-1 $82 $83 $27 $-1 $84 forward single #
loop $-1 $85 $86 $34 #
cone-surface $-1 11.930327917929176 20.654115298293874 6.3789051023826087 0 -0.77714596973225614 -0.62932038083071107 1.5 0 0 1 I I 0 1 1.5 forward I I I I #
face $-1 $87 $88 $21 $-1 $89 reversed single #
loop $-1 $-1 $90 $35 #
plane-surface $-1 0 0 -10.814192079647594 0 0 1 1 0 0 forward_v I I I I #
coedge $-1 $91 $92 $93 $94 forward $36 $-1 #
face $-1 $95 $96 $22 $-1 $97 reversed single #
loop $-1 $-1 $98 $38 #
plane-surface $-1 -31.603035129078229 0 8.4537628925737813 -1 0 0 0 0 1 forward_v I I I I #
coedge $-1 $99 $100 $101 $102 forward $39 $-1 #
face $-1 $103 $104 $23 $-1 $105 forward single #
loop $-1 $-1 $106 $41 #
plane-surface $-1 -23.428985994723455 -24.949209442772748 0.46550807029854013 0 -0.57357644374324357 0.81915203911291934 1 0 0 forward_v I I I I #
coedge $-1 $107 $108 $109 $110 reversed $42 $-1 #
face $-1 $-1 $111 $24 $-1 $112 forward single #
loop $-1 $113 $114 $44 #
cone-surface $-1 -26.932149909446927 -14.842351606137457 1.7593838447040522 0 0.57357644374324357 -0.81915203911291934 1 0 0 1 I I -0.70710678118654746 0.70710678118654746 1 forward I I I I #
loop $-1 $-1 $115 $31 #
coedge $-1 $72 $72 $116 $117 reversed $45 $-1 #
face $-1 $-1 $118 $25 $-1 $119 forward single #
loop $-1 $120 $121 $47 #
cone-surface $-1 -19.925822079999978 -14.842351606137457 1.7593838447040522 0 0.57357644374324357 -0.81915203911291934 1 0 0 1 I I -0.70710678118654746 0.70710678118654746 1 forward I I I I #
loop $-1 $-1 $122 $32 #
coedge $-1 $77 $77 $123 $124 reversed $48 $-1 #
face $-1 $125 $126 $26 $-1 $127 reversed single #
loop $-1 $-1 $128 $50 #
plane-surface $-1 11.930327917929176 -6.4528825331290705 44.031537393434135 0 0.77714596973225614 0.62932038083071107 1 0 0 forward_v I I I I #
coedge $-1 $129 $130 $131 $132 reversed $51 $-1 #
face $-1 $-1 $133 $27 $-1 $134 forward single #
loop $-1 $135 $136 $53 #
cone-surface $-1 11.930327917929176 18.027770095962449 4.2521327490581058 0 -0.77714596973225614 -0.62932038083071107 0.75 0 0 1 I I -0.70710678118654757 0.70710678118654757 0.75 forward I I I I #
loop $-1 $-1 $137 $34 #
coedge $-1 $86 $86 $138 $139 reversed $54 $-1 #
face $-1 $140 $141 $21 $-1 $142 reversed single #
loop $-1 $-1 $143 $56 #
plane-surface $-1 0 -24.949209442772744 0 0 1 0 0 0 1 forward_v I I I I #
coedge $-1 $144 $145 $146 $147 forward $57 $-1 #
coedge $-1 $148 $59 $149 $150 forward $36 $-1 #
coedge $-1 $59 $148 $151 $152 forward $36 $-1 #
coedge $-1 $153 $154 $59 $94 reversed $155 $-1 #
edge $-1 $156 -24.949209442772744 $157 24.949209442772744 $93 $158 forward 7 unknown #
face $-1 $159 $160 $22 $-1 $161 reversed single #
loop $-1 $-1 $162 $60 #
plane-surface $-1 0 24.949209442772744 0 0 -1 0 0 0 -1 forward_v I I I I #
coedge $-1 $101 $163 $164 $165 reversed $61 $-1 #
coedge $-1 $166 $63 $167 $168 reversed $39 $-1 #
coedge $-1 $63 $166 $169 $170 reversed $39 $-1 #
coedge $-1 $171 $98 $63 $102 reversed $61 $-1 #
edge $-1 $172 -24.949209442772744 $173 24.949209442772744 $101 $174 forward 7 unknown #
face $-1 $175 $176 $23 $-1 $177 forward single #
loop $-1 $-1 $178 $64 #
plane-surface $-1 -31.603035129078229 0 8.4537628925737813 -1 0 0 0 0 1 forward_v I I I I #
coedge $-1 $179 $180 $181 $182 reversed $65 $-1 #
coedge $-1 $108 $67 $183 $184 reversed $42 $-1 #
coedge $-1 $67 $107 $179 $185 reversed $42 $-1 #
coedge $-1 $181 $186 $67 $110 forward $176 $-1 #
edge $-1 $187 13.50796881225941 $188 28.287420968750439 $109 $189 forward 7 unknown #
loop $-1 $-1 $116 $68 #
plane-surface $-1 -23.428985994723455 -24.949209442772748 0.46550807029854013 0 -0.57357644374324357 0.81915203911291934 1 0 0 forward_v I I I I #
loop $-1 $-1 $190 $44 #
coedge $-1 $114 $114 $115 $191 reversed $69 $-1 #
coedge $-1 $115 $115 $114 $191 forward $71 $-1 #
coedge $-1 $116 $116 $72 $117 forward $111 $-1 #
edge $-1 $192 -3.2792744064692585e-016 $192 6.2831853071796004 $116 $193 forward 7 unknown #
loop $-1 $-1 $123 $73 #
plane-surface $-1 -23.428985994723455 -24.949209442772748 0.46550807029854013 0 -0.57357644374324357 0.81915203911291934 1 0 0 forward_v I I I I #
loop $-1 $-1 $194 $47 #
coedge $-1 $121 $121 $122 $195 reversed $74 $-1 #
coedge $-1 $122 $122 $121 $195 forward $76 $-1 #
coedge $-1 $123 $123 $77 $124 forward $118 $-1 #
edge $-1 $196 -3.2792744064692585e-016 $196 6.2831853071796004 $123 $197 forward 7 unknown #
face $-1 $198 $199 $26 $-1 $200 forward single #
loop $-1 $-1 $201 $78 #
plane-surface $-1 21.96080867158269 63.955351714313935 101.04699975951226 -1 0 0 0 0.77714596973225614 0.62932038083071107 forward_v I I I I #
coedge $-1 $202 $203 $204 $205 reversed $79 $-1 #
coedge $-1 $130 $81 $206 $207 reversed $51 $-1 #
coedge $-1 $81 $129 $202 $208 reversed $51 $-1 #
coedge $-1 $204 $209 $81 $132 forward $199 $-1 #
edge $-1 $210 7.0284664143842228 $211 11.531683253277492 $131 $212 forward 7 unknown #
loop $-1 $-1 $138 $82 #
plane-surface $-1 11.930327917929176 -6.4528825331290705 44.031537393434135 0 0.77714596973225614 0.62932038083071107 1 0 0 forward_v I I I I #
loop $-1 $-1 $213 $53 #
coedge $-1 $136 $136 $137 $214 reversed $83 $-1 #
coedge $-1 $137 $137 $136 $214 forward $85 $-1 #
coedge $-1 $138 $138 $86 $139 forward $133 $-1 #
edge $-1 $215 3.5012132784483932e-016 $215 6.2831853071796004 $138 $216 forward 7 unknown #
face $-1 $217 $218 $21 $-1 $219 reversed single #
loop $-1 $-1 $220 $87 #
plane-surface $-1 -45.299233985412151 0 0 1 0 0 0 0 -1 forward_v I I I I #
coedge $-1 $221 $151 $222 $223 forward $88 $-1 #
coedge $-1 $224 $90 $221 $225 forward $57 $-1 #
coedge $-1 $90 $224 $226 $227 forward $57 $-1 #
coedge $-1 $154 $153 $90 $147 reversed $155 $-1 #
edge $-1 $228 -24.949209442772744 $229 24.949209442772744 $146 $230 forward 7 unknown #
coedge $-1 $92 $91 $231 $232 forward $36 $-1 #
coedge $-1 $233 $234 $91 $150 reversed $218 $-1 #
edge $-1 $157 -45.299233985412151 $235 45.299233985412151 $149 $236 forward 7 unknown #
coedge $-1 $143 $237 $92 $152 reversed $88 $-1 #
edge $-1 $238 -45.299233985412151 $156 45.299233985412151 $151 $239 forward 7 unknown #
coedge $-1 $146 $93 $237 $240 forward $155 $-1 #
coedge $-1 $93 $146 $233 $241 reversed $155 $-1 #
loop $-1 $-1 $153 $217 #
vertex $-1 $94 $242 #
vertex $-1 $94 $243 #
straight-curve $-1 45.299233985412151 0 10.814192079647594 0 1 0 I I #
face $-1 $244 $245 $22 $-1 $246 forward single #
loop $-1 $-1 $247 $95 #
plane-surface $-1 -45.299233985412151 0 0 1 0 0 0 0 -1 forward_v I I I I #
coedge $-1 $169 $248 $171 $249 forward $96 $-1 #
coedge $-1 $98 $171 $250 $251 reversed $61 $-1 #
coedge $-1 $252 $167 $98 $165 forward $253 $-1 #
edge $-1 $173 1.8664522592130801 $254 6.5873106333607012 $164 $255 forward 7 unknown #
coedge $-1 $100 $99 $247 $256 reversed $39 $-1 #
coedge $-1 $164 $257 $99 $168 forward $253 $-1 #
edge $-1 $258 -26.073666706789556 $173 -12.377467850455634 $167 $259 forward 7 unknown #
coedge $-1 $260 $162 $100 $170 forward $96 $-1 #
edge $-1 $172 12.377467850455634 $261 26.073666706789556 $169 $262 forward 7 unknown #
coedge $-1 $163 $101 $162 $249 reversed $61 $-1 #
vertex $-1 $170 $263 #
vertex $-1 $168 $264 #
straight-curve $-1 -31.603035129078229 0 6.0933337054999708 0 -1 0 I I #
face $-1 $-1 $265 $23 $-1 $266 reversed single #
loop $-1 $-1 $181 $103 #
plane-surface $-1 0 0 10.814192079647594 0 0 1 1 0 0 forward_v I I I I #
coedge $-1 $267 $268 $180 $269 reversed $104 $-1 #
coedge $-1 $270 $106 $108 $185 forward $65 $-1 #
coedge $-1 $106 $270 $178 $269 forward $65 $-1 #
coedge $-1 $271 $109 $106 $182 forward $176 $-1 #
edge $-1 $188 3.5404438630069546 $272 19.888542131716502 $181 $273 forward 7 unknown #
coedge $-1 $274 $275 $107 $184 forward $265 $-1 #
edge $-1 $276 -36.874205854254349 $187 -26.525521844905295 $183 $277 forward 7 unknown #
edge $-1 $188 -18.042379742466466 $276 -4.3430076463831122e-015 $108 $278 forward 7 unknown #
coedge $-1 $109 $271 $274 $279 forward $176 $-1 #
vertex $-1 $184 $280 #
vertex $-1 $110 $281 #
straight-curve $-1 -15.254936860368682 -38.457178255032154 10.814192079647594 0 1 0 I I #
coedge $-1 $190 $190 $-1 $282 reversed $113 $-1 #
edge $-1 $283 0 $283 6.2831853071796004 $114 $284 forward 7 unknown #
vertex $-1 $117 $285 #
ellipse-curve $-1 -26.932149909446927 -17.559483364527228 5.6398500749730696 0 -0.57357644374324357 0.81915203911291934 2 0 0 1 I I #
coedge $-1 $194 $194 $-1 $286 reversed $120 $-1 #
edge $-1 $287 0 $287 6.2831853071796004 $121 $288 forward 7 unknown #
vertex $-1 $124 $289 #
ellipse-curve $-1 -19.925822079999978 -17.559483364527228 5.6398500749730696 0 -0.57357644374324357 0.81915203911291934 2 0 0 1 I I #
face $-1 $-1 $290 $26 $-1 $291 reversed single #
loop $-1 $-1 $131 $125 #
plane-surface $-1 0 0 10.814192079647594 0 0 1 1 0 0 forward_v I I I I #
coedge $-1 $292 $293 $294 $295 reversed $126 $-1 #
coedge $-1 $296 $128 $130 $208 forward $79 $-1 #
coedge $-1 $128 $296 $292 $297 forward $79 $-1 #
coedge $-1 $294 $131 $128 $205 forward $199 $-1 #
edge $-1 $211 -4.0653167946889255 $298 15.995644712618102 $204 $299 forward 7 unknown #
coedge $-1 $300 $301 $129 $207 forward $290 $-1 #
edge $-1 $302 -45.270317619235549 $210 -39.709307800108533 $206 $303 forward 7 unknown #
edge $-1 $211 42.742736380953815 $302 49.89841888554546 $130 $304 forward 7 unknown #
coedge $-1 $131 $294 $300 $305 forward $199 $-1 #
vertex $-1 $207 $306 #
vertex $-1 $132 $307 #
straight-curve $-1 1.8998471642756627 31.977675857156967 10.814192079647597 0 -1 0 I I #
coedge $-1 $213 $213 $-1 $308 reversed $135 $-1 #
edge $-1 $309 0 $309 6.2831853071796004 $136 $310 forward 7 unknown #
vertex $-1 $139 $311 #
ellipse-curve $-1 11.930327917929176 22.697601023326111 8.0336871700840824 0 0.77714596973225614 0.62932038083071107 1.5 0 0 1 I I #
face $-1 $-1 $155 $21 $-1 $312 reversed single #
loop $-1 $-1 $233 $140 #
plane-surface $-1 0 24.949209442772744 0 0 -1 0 0 0 -1 forward_v I I I I #
coedge $-1 $313 $231 $234 $314 forward $141 $-1 #
coedge $-1 $237 $143 $144 $225 reversed $88 $-1 #
coedge $-1 $231 $313 $143 $223 reversed $141 $-1 #
edge $-1 $238 -10.814192079647594 $315 10.814192079647594 $222 $316 forward 7 unknown #
coedge $-1 $145 $144 $313 $317 forward $57 $-1 #
edge $-1 $229 -45.299233985412151 $315 45.299233985412151 $221 $318 forward 7 unknown #
coedge $-1 $234 $233 $145 $227 reversed $218 $-1 #
edge $-1 $319 -45.299233985412151 $228 45.299233985412151 $226 $320 forward 7 unknown #
vertex $-1 $147 $321 #
vertex $-1 $240 $322 #
straight-curve $-1 45.299233985412151 0 -10.814192079647594 0 -1 0 I I #
coedge $-1 $220 $222 $148 $232 reversed $141 $-1 #
edge $-1 $235 -24.949209442772744 $238 24.949209442772744 $231 $323 forward 7 unknown #
coedge $-1 $226 $149 $154 $241 forward $218 $-1 #
coedge $-1 $149 $226 $220 $314 reversed $218 $-1 #
vertex $-1 $150 $324 #
straight-curve $-1 0 24.949209442772744 10.814192079647594 -1 0 0 I I #
coedge $-1 $151 $221 $153 $240 reversed $88 $-1 #
vertex $-1 $232 $325 #
straight-curve $-1 0 -24.949209442772744 10.814192079647594 1 0 0 I I #
edge $-1 $156 -10.814192079647594 $229 10.814192079647594 $153 $326 forward 7 unknown #
edge $-1 $157 -10.814192079647594 $228 10.814192079647594 $154 $327 forward 7 unknown #
point $-1 45.299233985412151 -24.949209442772744 10.814192079647594 #
point $-1 45.299233985412151 24.949209442772744 10.814192079647594 #
face $-1 $-1 $253 $22 $-1 $328 reversed single #
loop $-1 $-1 $250 $159 #
plane-surface $-1 0 0 10.814192079647594 0 0 1 1 0 0 forward_v I I I I #
coedge $-1 $329 $330 $166 $256 forward $160 $-1 #
coedge $-1 $162 $260 $331 $332 reversed $96 $-1 #
edge $-1 $333 -6.5873106333607012 $172 -1.8664522592130801 $162 $334 forward 7 unknown #
coedge $-1 $331 $335 $163 $251 forward $245 $-1 #
edge $-1 $254 -24.949209442772744 $333 24.949209442772744 $250 $336 forward 7 unknown #
coedge $-1 $257 $164 $335 $337 reversed $253 $-1 #
loop $-1 $-1 $164 $244 #
vertex $-1 $165 $338 #
straight-curve $-1 -31.603035129078229 -24.949209442772744 4.2268814462868907 0 0 1 I I #
edge $-1 $261 -24.949209442772744 $258 24.949209442772744 $247 $339 forward 7 unknown #
coedge $-1 $167 $252 $329 $340 forward $253 $-1 #
vertex $-1 $256 $341 #
straight-curve $-1 -19.225567278622595 -24.949209442772744 6.0933337054999708 1 0 0 I I #
coedge $-1 $248 $169 $330 $342 reversed $96 $-1 #
vertex $-1 $256 $343 #
straight-curve $-1 -19.225567278622595 24.949209442772744 6.0933337054999708 -1 0 0 I I #
point $-1 -31.603035129078229 24.949209442772744 6.0933337054999708 #
point $-1 -31.603035129078229 -24.949209442772744 6.0933337054999708 #
loop $-1 $-1 $183 $175 #
plane-surface $-1 0 -24.949209442772744 0 0 1 0 0 0 1 forward_v I I I I #
coedge $-1 $268 $178 $344 $345 reversed $104 $-1 #
coedge $-1 $178 $267 $271 $346 reversed $104 $-1 #
edge $-1 $347 4.3430076463831122e-015 $272 18.042379742466466 $178 $348 forward 7 unknown #
coedge $-1 $180 $179 $275 $349 reversed $65 $-1 #
coedge $-1 $186 $181 $268 $346 forward $176 $-1 #
vertex $-1 $346 $350 #
straight-curve $-1 -11.714492997361727 -10.169757286281715 10.814192079647594 -1 0 0 I I #
coedge $-1 $344 $183 $186 $279 reversed $265 $-1 #
coedge $-1 $183 $344 $270 $349 forward $265 $-1 #
vertex $-1 $184 $351 #
straight-curve $-1 -15.254936860368682 -24.949209442772744 37.339713924552889 0 0 1 I I #
straight-curve $-1 -15.254936860368682 -24.949209442772748 0.46550807029854013 0 -0.81915203911291934 -0.57357644374324357 I I #
edge $-1 $352 -31.603035129078229 $187 -15.254936860368682 $274 $353 forward 7 unknown #
point $-1 -15.254936860368682 -24.949209442772744 10.814192079647594 #
point $-1 -15.254936860368682 -10.169757286281714 10.814192079647594 #
edge $-1 $354 1 $354 0 $190 $-1 forward 7 unknown #
vertex $-1 $191 $355 #
ellipse-curve $-1 -26.932149909446927 -15.415928049880701 2.5785358838169716 0 -0.57357644374324357 0.81915203911291934 2 0 0 1 I I #
point $-1 -24.932149909446927 -17.559483364527225 5.6398500749730633 #
edge $-1 $356 1 $356 0 $194 $-1 forward 7 unknown #
vertex $-1 $195 $357 #
ellipse-curve $-1 -19.925822079999978 -15.415928049880701 2.5785358838169716 0 -0.57357644374324357 0.81915203911291934 2 0 0 1 I I #
point $-1 -17.925822079999978 -17.559483364527225 5.6398500749730633 #
loop $-1 $-1 $206 $198 #
plane-surface $-1 0 24.949209442772744 0 0 -1 0 0 0 -1 forward_v I I I I #
coedge $-1 $293 $201 $203 $297 reversed $126 $-1 #
coedge $-1 $201 $292 $358 $359 reversed $126 $-1 #
coedge $-1 $209 $204 $201 $295 forward $199 $-1 #
edge $-1 $298 -11.531683253277492 $360 -7.0284664143842228 $294 $361 forward 7 unknown #
coedge $-1 $203 $202 $301 $362 reversed $79 $-1 #
edge $-1 $363 -49.89841888554546 $298 -42.742736380953815 $292 $364 forward 7 unknown #
vertex $-1 $205 $365 #
straight-curve $-1 5.9651639589645882 20.445992603879475 10.814192079647594 1 0 0 I I #
coedge $-1 $358 $206 $209 $305 reversed $290 $-1 #
coedge $-1 $206 $358 $296 $362 forward $290 $-1 #
vertex $-1 $207 $366 #
straight-curve $-1 1.8998471642756627 24.949209442772744 50.52349987975613 0 0 1 I I #
straight-curve $-1 1.8998471642756627 -6.4528825331290705 44.031537393434135 0 0.62932038083071107 -0.77714596973225614 I I #
edge $-1 $360 -21.96080867158269 $210 -1.8998471642756627 $300 $367 forward 7 unknown #
point $-1 1.8998471642756627 24.949209442772744 10.814192079647594 #
point $-1 1.8998471642756627 20.445992603879475 10.814192079647597 #
edge $-1 $368 1 $368 0 $213 $-1 forward 7 unknown #
vertex $-1 $214 $369 #
ellipse-curve $-1 11.930327917929176 18.61062957326164 4.7241230346811394 0 0.77714596973225614 0.62932038083071107 1.5 0 0 1 I I #
point $-1 13.430327917929176 22.697601023326108 8.0336871700840788 #
plane-surface $-1 45.299233985412151 0 0 -1 0 0 0 0 1 forward_v I I I I #
coedge $-1 $222 $220 $224 $317 reversed $141 $-1 #
edge $-1 $235 -10.814192079647594 $319 10.814192079647594 $234 $370 forward 7 unknown #
vertex $-1 $317 $371 #
straight-curve $-1 -45.299233985412151 -24.949209442772744 0 0 0 -1 I I #
edge $-1 $315 -24.949209442772744 $319 24.949209442772744 $313 $372 forward 7 unknown #
straight-curve $-1 0 -24.949209442772744 -10.814192079647594 -1 0 0 I I #
vertex $-1 $227 $373 #
straight-curve $-1 0 24.949209442772744 -10.814192079647594 1 0 0 I I #
point $-1 45.299233985412151 24.949209442772744 -10.814192079647594 #
point $-1 45.299233985412151 -24.949209442772744 -10.814192079647594 #
straight-curve $-1 -45.299233985412151 0 10.814192079647594 0 -1 0 I I #
point $-1 -45.299233985412151 24.949209442772744 10.814192079647594 #
point $-1 -45.299233985412151 -24.949209442772744 10.814192079647594 #
straight-curve $-1 45.299233985412151 -24.949209442772744 0 0 0 -1 I I #
straight-curve $-1 45.299233985412151 24.949209442772744 0 0 0 -1 I I #
plane-surface $-1 0 -24.949209442772744 0 0 1 0 0 0 1 forward_v I I I I #
coedge $-1 $374 $247 $257 $340 reversed $160 $-1 #
coedge $-1 $247 $374 $260 $342 forward $160 $-1 #
coedge $-1 $375 $250 $248 $332 forward $245 $-1 #
edge $-1 $333 31.603035129078229 $376 45.299233985412151 $248 $377 forward 7 unknown #
vertex $-1 $332 $378 #
straight-curve $-1 -31.603035129078229 24.949209442772744 4.2268814462868907 0 0 -1 I I #
coedge $-1 $250 $375 $252 $337 forward $245 $-1 #
straight-curve $-1 -31.603035129078229 0 10.814192079647594 0 1 0 I I #
edge $-1 $379 -45.299233985412151 $254 -31.603035129078229 $252 $380 forward 7 unknown #
point $-1 -31.603035129078229 -24.949209442772744 10.814192079647592 #
straight-curve $-1 -45.299233985412151 0 6.0933337054999708 0 -1 0 I I #
edge $-1 $379 -10.814192079647594 $258 -6.0933337054999708 $329 $381 forward 7 unknown #
point $-1 -45.299233985412151 -24.949209442772744 6.0933337054999708 #
edge $-1 $376 -10.814192079647594 $261 -6.0933337054999708 $260 $382 forward 7 unknown #
point $-1 -45.299233985412151 24.949209442772744 6.0933337054999708 #
coedge $-1 $275 $274 $267 $345 forward $265 $-1 #
edge $-1 $352 26.525521844905299 $347 36.874205854254349 $344 $383 forward 7 unknown #
edge $-1 $272 10.169757286281714 $352 24.949209442772744 $271 $384 forward 7 unknown #
vertex $-1 $345 $385 #
straight-curve $-1 -31.603035129078229 -24.949209442772748 0.46550807029854013 0 0.81915203911291934 0.57357644374324357 I I #
edge $-1 $347 -19.888542131716502 $276 -3.5404438630069546 $275 $386 forward 7 unknown #
point $-1 -31.603035129078229 -10.169757286281714 10.814192079647594 #
point $-1 -15.254936860368682 -24.949209442772744 0.46550807029854263 #
vertex $-1 $279 $387 #
straight-curve $-1 0 -24.949209442772744 10.814192079647594 1 0 0 I I #
vertex $-1 $282 $388 #
point $-1 -24.932149909446927 -15.415928049880701 2.5785358838169716 #
vertex $-1 $286 $389 #
point $-1 -17.925822079999978 -15.415928049880701 2.5785358838169716 #
coedge $-1 $301 $300 $293 $359 forward $290 $-1 #
edge $-1 $360 39.709307800108533 $363 45.270317619235549 $358 $390 forward 7 unknown #
vertex $-1 $305 $391 #
straight-curve $-1 21.96080867158269 31.977675857156967 10.814192079647597 0 1 0 I I #
edge $-1 $363 -15.995644712618102 $302 4.0653167946889255 $301 $392 forward 7 unknown #
vertex $-1 $362 $393 #
straight-curve $-1 21.96080867158269 -6.4528825331290705 44.031537393434135 0 -0.62932038083071107 0.77714596973225614 I I #
point $-1 21.96080867158269 20.445992603879475 10.814192079647597 #
point $-1 1.8998471642756627 24.949209442772744 5.2531822605205818 #
straight-curve $-1 0 24.949209442772744 10.814192079647594 -1 0 0 I I #
vertex $-1 $308 $394 #
point $-1 13.430327917929176 18.61062957326164 4.7241230346811394 #
straight-curve $-1 -45.299233985412151 24.949209442772744 0 0 0 -1 I I #
point $-1 -45.299233985412151 -24.949209442772744 -10.814192079647594 #
straight-curve $-1 -45.299233985412151 0 -10.814192079647594 0 1 0 I I #
point $-1 -45.299233985412151 24.949209442772744 -10.814192079647594 #
coedge $-1 $330 $329 $375 $395 reversed $160 $-1 #
coedge $-1 $335 $331 $374 $395 forward $245 $-1 #
vertex $-1 $332 $396 #
straight-curve $-1 0 24.949209442772744 10.814192079647594 -1 0 0 I I #
point $-1 -31.603035129078229 24.949209442772744 10.814192079647592 #
vertex $-1 $395 $397 #
straight-curve $-1 0 -24.949209442772744 10.814192079647594 1 0 0 I I #
straight-curve $-1 -45.299233985412151 -24.949209442772744 0 0 0 -1 I I #
straight-curve $-1 -45.299233985412151 24.949209442772744 0 0 0 -1 I I #
straight-curve $-1 -31.603035129078229 -24.949209442772744 37.339713924552889 0 0 -1 I I #
straight-curve $-1 -31.603035129078229 0 10.814192079647594 0 -1 0 I I #
point $-1 -31.603035129078229 -24.949209442772744 0.46550807029854263 #
straight-curve $-1 -11.714492997361727 -24.949209442772744 0.46550807029854402 1 0 0 I I #
point $-1 -31.603035129078229 -24.949209442772744 10.814192079647592 #
point $-1 -26.932149909446927 -14.268775162394213 0.94023180559113284 #
point $-1 -19.925822079999978 -14.268775162394213 0.94023180559113284 #
straight-curve $-1 21.96080867158269 24.949209442772744 50.52349987975613 0 0 -1 I I #
point $-1 21.96080867158269 24.949209442772744 10.814192079647594 #
straight-curve $-1 5.9651639589645882 24.949209442772744 5.2531822605205818 -1 0 0 I I #
point $-1 21.96080867158269 24.949209442772744 5.2531822605205818 #
point $-1 11.930327917929176 17.444910618663258 3.7801424634350727 #
edge $-1 $376 -24.949209442772744 $379 24.949209442772744 $374 $398 forward 7 unknown #
point $-1 -45.299233985412151 24.949209442772744 10.814192079647594 #
point $-1 -45.299233985412151 -24.949209442772744 10.814192079647594 #
straight-curve $-1 -45.299233985412151 0 10.814192079647594 0 -1 0 I I #
End-of-ACIS-data 