500 0 10 0           
7 Unknown 11 ACIS 5.0 NT 24 Fri Mar 26 19:42:56 1999 
-1 9.9999999999999995e-007 1e-010 
body $-1 $10 $-1 $11 #
body $-1 $12 $-1 $13 #
body $-1 $14 $-1 $15 #
body $-1 $16 $-1 $17 #
body $-1 $18 $-1 $19 #
body $-1 $20 $-1 $21 #
body $-1 $22 $-1 $23 #
body $-1 $24 $-1 $25 #
body $-1 $26 $-1 $27 #
body $-1 $28 $-1 $29 #
lump $-1 $-1 $30 $0 #
transform $-1 1 0 0 0 1 0 0 0 1 78.93551438947722 32.423376226761398 15.78303103212721 1 rotate no_reflect no_shear #
lump $-1 $-1 $31 $1 #
transform $-1 1 0 0 0 1 0 0 0 1 78.93551438947722 32.423376226761398 15.78303103212721 1 rotate no_reflect no_shear #
lump $-1 $-1 $32 $2 #
transform $-1 1 0 0 0 1 0 0 0 1 78.93551438947722 32.423376226761398 15.78303103212721 1 rotate no_reflect no_shear #
lump $-1 $-1 $33 $3 #
transform $-1 1 0 0 0 1 0 0 0 1 78.93551438947722 32.423376226761398 15.78303103212721 1 rotate no_reflect no_shear #
lump $-1 $-1 $34 $4 #
transform $-1 1 0 0 0 1 0 0 0 1 78.93551438947722 32.423376226761398 15.78303103212721 1 rotate no_reflect no_shear #
lump $-1 $-1 $35 $5 #
transform $-1 1 0 0 0 1 0 0 0 1 78.93551438947722 32.423376226761398 15.78303103212721 1 rotate no_reflect no_shear #
lump $-1 $-1 $36 $6 #
transform $-1 1 0 0 0 1 0 0 0 1 78.93551438947722 32.423376226761398 15.78303103212721 1 rotate no_reflect no_shear #
lump $-1 $-1 $37 $7 #
transform $-1 1 0 0 0 1 0 0 0 1 78.93551438947722 32.423376226761398 15.78303103212721 1 rotate no_reflect no_shear #
lump $-1 $-1 $38 $8 #
transform $-1 1 0 0 0 1 0 0 0 1 78.93551438947722 32.423376226761398 15.78303103212721 1 rotate no_reflect no_shear #
lump $-1 $-1 $39 $9 #
transform $-1 1 0 0 0 1 0 0 0 1 78.93551438947722 32.423376226761398 15.78303103212721 1 rotate no_reflect no_shear #
shell $-1 $-1 $-1 $40 $-1 $10 #
shell $-1 $-1 $-1 $41 $-1 $12 #
shell $-1 $-1 $-1 $42 $-1 $14 #
shell $-1 $-1 $-1 $43 $-1 $16 #
shell $-1 $-1 $-1 $44 $-1 $18 #
shell $-1 $-1 $-1 $45 $-1 $20 #
shell $-1 $-1 $-1 $46 $-1 $22 #
shell $-1 $-1 $-1 $47 $-1 $24 #
shell $-1 $-1 $-1 $48 $-1 $26 #
shell $-1 $-1 $-1 $49 $-1 $28 #
face $-1 $50 $51 $30 $-1 $52 forward single #
face $-1 $53 $54 $31 $-1 $55 reversed single #
face $-1 $56 $57 $32 $-1 $58 reversed single #
face $-1 $59 $60 $33 $-1 $61 forward single #
face $-1 $62 $63 $34 $-1 $64 forward single #
face $-1 $65 $66 $35 $-1 $67 forward single #
face $-1 $68 $69 $36 $-1 $70 reversed single #
face $-1 $71 $72 $37 $-1 $73 forward single #
face $-1 $74 $75 $38 $-1 $76 forward single #
face $-1 $77 $78 $39 $-1 $79 forward single #
face $-1 $80 $81 $30 $-1 $82 reversed single #
loop $-1 $-1 $83 $40 #
plane-surface $-1 0 0 15.78303103212721 0 0 1 1 0 0 forward_v I I I I #
face $-1 $84 $85 $31 $-1 $86 reversed single #
loop $-1 $-1 $87 $41 #
plane-surface $-1 -69.825622284939712 -25.795630311790113 0 0 -1 0 0 0 -1 forward_v I I I I #
face $-1 $88 $89 $32 $-1 $90 reversed single #
loop $-1 $-1 $91 $42 #
plane-surface $-1 -24.95521761439803 58.148452561819916 180.32257059635577 1 0 0 0 -0.51503808176128008 -0.85716729658548041 forward_v I I I I #
face $-1 $92 $93 $33 $-1 $94 forward single #
loop $-1 $95 $96 $43 #
cone-surface $-1 -18.142195670610917 28.287923026477376 12.600205688898072 0 -0.51503808176128008 -0.85716729658548041 1.5 0 0 1 I I 0 1 1.5 forward I I I I #
face $-1 $97 $98 $34 $-1 $99 forward single #
loop $-1 $100 $101 $44 #
cone-surface $-1 -7.9226627549302577 28.287923026477376 12.600205688898072 0 -0.51503808176128008 -0.85716729658548041 1.5 0 0 1 I I 0 1 1.5 forward I I I I #
face $-1 $102 $103 $35 $-1 $104 forward single #
loop $-1 $105 $106 $45 #
cone-surface $-1 2.2968701607504016 28.287923026477376 12.600205688898072 0 -0.51503808176128008 -0.85716729658548041 1.5 0 0 1 I I 0 1 1.5 forward I I I I #
face $-1 $107 $108 $36 $-1 $109 reversed single #
loop $-1 $-1 $110 $46 #
plane-surface $-1 -7.9226627549302577 -23.161139266172619 45.000687648730832 0 0.51503808176128008 0.85716729658548041 1 0 0 forward_v I I I I #
face $-1 $111 $112 $37 $-1 $113 forward single #
loop $-1 $114 $115 $47 #
cone-surface $-1 15.922914048324628 28.287923026477376 12.600205688898072 0 -0.51503808176128008 -0.85716729658548041 1.5 0 0 1 I I 0 1 1.5 forward I I I I #
face $-1 $116 $117 $38 $-1 $118 forward single #
loop $-1 $119 $120 $48 #
cone-surface $-1 26.142446964005288 28.287923026477376 12.600205688898072 0 -0.51503808176128008 -0.85716729658548041 1.5 0 0 1 I I 0 1 1.5 forward I I I I #
face $-1 $121 $122 $39 $-1 $123 forward single #
loop $-1 $124 $125 $49 #
cone-surface $-1 36.361979879685947 28.287923026477376 12.600205688898072 0 -0.51503808176128008 -0.85716729658548041 1.5 0 0 1 I I 0 1 1.5 forward I I I I #
face $-1 $126 $127 $30 $-1 $128 reversed single #
loop $-1 $-1 $129 $50 #
plane-surface $-1 0 0 -15.78303103212721 0 0 1 1 0 0 forward_v I I I I #
coedge $-1 $130 $131 $132 $133 forward $51 $-1 #
face $-1 $134 $135 $31 $-1 $136 forward single #
loop $-1 $-1 $137 $53 #
plane-surface $-1 -60.715730180402197 -29.109503269275756 0 -1 0 0 0 0 1 forward_v I I I I #
coedge $-1 $138 $139 $140 $141 forward $54 $-1 #
face $-1 $142 $143 $32 $-1 $144 reversed single #
loop $-1 $-1 $145 $56 #
plane-surface $-1 -7.9226627549302577 -23.161139266172619 45.000687648730832 0 0.51503808176128008 0.85716729658548041 1 0 0 forward_v I I I I #
coedge $-1 $146 $147 $148 $149 reversed $57 $-1 #
face $-1 $-1 $150 $33 $-1 $151 forward single #
loop $-1 $152 $153 $59 #
cone-surface $-1 -18.142195670610917 27.245276236840475 10.864950060983491 0 -0.51503808176128008 -0.85716729658548041 0.75 0 0 1 I I -0.70710678118654757 0.70710678118654757 0.75 forward I I I I #
loop $-1 $-1 $154 $43 #
coedge $-1 $96 $96 $155 $156 reversed $60 $-1 #
face $-1 $-1 $157 $34 $-1 $158 forward single #
loop $-1 $159 $160 $62 #
cone-surface $-1 -7.9226627549302577 27.245276236840475 10.864950060983491 0 -0.51503808176128008 -0.85716729658548041 0.75 0 0 1 I I -0.70710678118654757 0.70710678118654757 0.75 forward I I I I #
loop $-1 $-1 $161 $44 #
coedge $-1 $101 $101 $162 $163 reversed $63 $-1 #
face $-1 $-1 $164 $35 $-1 $165 forward single #
loop $-1 $166 $167 $65 #
cone-surface $-1 2.2968701607504016 27.245276236840475 10.864950060983491 0 -0.51503808176128008 -0.85716729658548041 0.75 0 0 1 I I -0.70710678118654757 0.70710678118654757 0.75 forward I I I I #
loop $-1 $-1 $168 $45 #
coedge $-1 $106 $106 $169 $170 reversed $66 $-1 #
face $-1 $171 $172 $36 $-1 $173 reversed single #
loop $-1 $-1 $174 $68 #
plane-surface $-1 43.17500182347306 58.148452561819916 180.32257059635577 -1 0 0 0 0.51503808176128008 0.85716729658548041 forward_v I I I I #
coedge $-1 $175 $176 $177 $178 reversed $69 $-1 #
face $-1 $-1 $179 $37 $-1 $180 forward single #
loop $-1 $181 $182 $71 #
cone-surface $-1 15.922914048324628 27.245276236840475 10.864950060983491 0 -0.51503808176128008 -0.85716729658548041 0.75 0 0 1 I I -0.70710678118654757 0.70710678118654757 0.75 forward I I I I #
loop $-1 $-1 $183 $47 #
coedge $-1 $115 $115 $184 $185 reversed $72 $-1 #
face $-1 $-1 $186 $38 $-1 $187 forward single #
loop $-1 $188 $189 $74 #
cone-surface $-1 26.142446964005288 27.245276236840475 10.864950060983491 0 -0.51503808176128008 -0.85716729658548041 0.75 0 0 1 I I -0.70710678118654757 0.70710678118654757 0.75 forward I I I I #
loop $-1 $-1 $190 $48 #
coedge $-1 $120 $120 $191 $192 reversed $75 $-1 #
face $-1 $-1 $193 $39 $-1 $194 forward single #
loop $-1 $195 $196 $77 #
cone-surface $-1 36.361979879685947 27.245276236840475 10.864950060983491 0 -0.51503808176128008 -0.85716729658548041 0.75 0 0 1 I I -0.70710678118654757 0.70710678118654757 0.75 forward I I I I #
loop $-1 $-1 $197 $49 #
coedge $-1 $125 $125 $198 $199 reversed $78 $-1 #
face $-1 $200 $201 $30 $-1 $202 reversed single #
loop $-1 $-1 $203 $80 #
plane-surface $-1 0 -32.423376226761398 0 0 1 0 0 0 1 forward_v I I I I #
coedge $-1 $204 $205 $206 $207 forward $81 $-1 #
coedge $-1 $208 $83 $209 $210 forward $51 $-1 #
coedge $-1 $83 $208 $211 $212 forward $51 $-1 #
coedge $-1 $213 $214 $83 $133 reversed $215 $-1 #
edge $-1 $216 -32.423376226761398 $217 32.423376226761398 $132 $218 forward 7 unknown #
face $-1 $219 $220 $31 $-1 $221 reversed single #
loop $-1 $-1 $222 $84 #
plane-surface $-1 0 0 15.78303103212721 0 0 1 1 0 0 forward_v I I I I #
coedge $-1 $223 $224 $225 $226 reversed $85 $-1 #
coedge $-1 $227 $87 $228 $229 reversed $54 $-1 #
coedge $-1 $87 $227 $230 $231 reversed $54 $-1 #
coedge $-1 $224 $223 $87 $141 reversed $85 $-1 #
edge $-1 $232 -15.78303103212721 $233 15.78303103212721 $140 $234 forward 7 unknown #
face $-1 $235 $236 $32 $-1 $237 reversed single #
loop $-1 $-1 $238 $88 #
plane-surface $-1 9.109892104537515 58.148452561819916 180.32257059635577 -1 0 0 0 0.51503808176128008 0.85716729658548041 forward_v I I I I #
coedge $-1 $239 $240 $241 $242 reversed $89 $-1 #
coedge $-1 $147 $91 $243 $244 reversed $57 $-1 #
coedge $-1 $91 $146 $239 $245 reversed $57 $-1 #
coedge $-1 $241 $246 $91 $149 forward $247 $-1 #
edge $-1 $248 -3.3491499458514404 $249 3.6090199980847508 $148 $250 forward 7 unknown #
loop $-1 $-1 $155 $92 #
plane-surface $-1 -7.9226627549302577 -23.161139266172619 45.000687648730832 0 0.51503808176128008 0.85716729658548041 1 0 0 forward_v I I I I #
loop $-1 $-1 $251 $59 #
coedge $-1 $153 $153 $154 $252 reversed $93 $-1 #
coedge $-1 $154 $154 $153 $252 forward $95 $-1 #
coedge $-1 $155 $155 $96 $156 forward $150 $-1 #
edge $-1 $253 -2.2393133026786434e-015 $253 6.2831853071795978 $155 $254 forward 7 unknown #
loop $-1 $-1 $162 $97 #
plane-surface $-1 -7.9226627549302577 -23.161139266172619 45.000687648730832 0 0.51503808176128008 0.85716729658548041 1 0 0 forward_v I I I I #
loop $-1 $-1 $255 $62 #
coedge $-1 $160 $160 $161 $256 reversed $98 $-1 #
coedge $-1 $161 $161 $160 $256 forward $100 $-1 #
coedge $-1 $162 $162 $101 $163 forward $157 $-1 #
edge $-1 $257 -2.2393133026786434e-015 $257 6.2831853071795978 $162 $258 forward 7 unknown #
loop $-1 $-1 $169 $102 #
plane-surface $-1 -7.9226627549302577 -23.161139266172619 45.000687648730832 0 0.51503808176128008 0.85716729658548041 1 0 0 forward_v I I I I #
loop $-1 $-1 $259 $65 #
coedge $-1 $167 $167 $168 $260 reversed $103 $-1 #
coedge $-1 $168 $168 $167 $260 forward $105 $-1 #
coedge $-1 $169 $169 $106 $170 forward $164 $-1 #
edge $-1 $261 -2.2393133026786434e-015 $261 6.2831853071795978 $169 $262 forward 7 unknown #
face $-1 $263 $264 $36 $-1 $265 forward single #
loop $-1 $-1 $266 $107 #
plane-surface $-1 0 32.423376226761398 0 0 -1 0 0 0 -1 forward_v I I I I #
coedge $-1 $267 $268 $269 $270 reversed $108 $-1 #
coedge $-1 $271 $110 $272 $273 reversed $69 $-1 #
coedge $-1 $110 $271 $274 $275 reversed $69 $-1 #
coedge $-1 $276 $277 $110 $178 forward $264 $-1 #
edge $-1 $278 -64.846752453522811 $279 -56.729118974441178 $177 $280 forward 7 unknown #
loop $-1 $-1 $184 $111 #
plane-surface $-1 -7.9226627549302577 -23.161139266172619 45.000687648730832 0 0.51503808176128008 0.85716729658548041 1 0 0 forward_v I I I I #
loop $-1 $-1 $281 $71 #
coedge $-1 $182 $182 $183 $282 reversed $112 $-1 #
coedge $-1 $183 $183 $182 $282 forward $114 $-1 #
coedge $-1 $184 $184 $115 $185 forward $179 $-1 #
edge $-1 $283 -2.2393133026786434e-015 $283 6.2831853071795978 $184 $284 forward 7 unknown #
loop $-1 $-1 $191 $116 #
plane-surface $-1 -7.9226627549302577 -23.161139266172619 45.000687648730832 0 0.51503808176128008 0.85716729658548041 1 0 0 forward_v I I I I #
loop $-1 $-1 $285 $74 #
coedge $-1 $189 $189 $190 $286 reversed $117 $-1 #
coedge $-1 $190 $190 $189 $286 forward $119 $-1 #
coedge $-1 $191 $191 $120 $192 forward $186 $-1 #
edge $-1 $287 -2.2393133026786434e-015 $287 6.2831853071795978 $191 $288 forward 7 unknown #
loop $-1 $-1 $198 $121 #
plane-surface $-1 -7.9226627549302577 -23.161139266172619 45.000687648730832 0 0.51503808176128008 0.85716729658548041 1 0 0 forward_v I I I I #
loop $-1 $-1 $289 $77 #
coedge $-1 $196 $196 $197 $290 reversed $122 $-1 #
coedge $-1 $197 $197 $196 $290 forward $124 $-1 #
coedge $-1 $198 $198 $125 $199 forward $193 $-1 #
edge $-1 $291 -2.2393133026786434e-015 $291 6.2831853071795978 $198 $292 forward 7 unknown #
face $-1 $293 $294 $30 $-1 $295 reversed single #
loop $-1 $-1 $296 $126 #
plane-surface $-1 -78.93551438947722 0 0 1 0 0 0 0 -1 forward_v I I I I #
coedge $-1 $297 $211 $298 $299 forward $127 $-1 #
coedge $-1 $300 $129 $297 $301 forward $81 $-1 #
coedge $-1 $129 $300 $302 $303 forward $81 $-1 #
coedge $-1 $214 $213 $129 $207 reversed $215 $-1 #
edge $-1 $304 -32.423376226761398 $305 32.423376226761398 $206 $306 forward 7 unknown #
coedge $-1 $131 $130 $307 $308 forward $51 $-1 #
coedge $-1 $309 $310 $130 $210 reversed $294 $-1 #
edge $-1 $217 -78.93551438947722 $311 78.93551438947722 $209 $312 forward 7 unknown #
coedge $-1 $203 $313 $131 $212 reversed $127 $-1 #
edge $-1 $314 -78.93551438947722 $216 78.93551438947722 $211 $315 forward 7 unknown #
coedge $-1 $206 $132 $313 $316 forward $215 $-1 #
coedge $-1 $132 $206 $309 $317 reversed $215 $-1 #
loop $-1 $-1 $213 $293 #
vertex $-1 $133 $318 #
vertex $-1 $133 $319 #
straight-curve $-1 78.93551438947722 0 15.78303103212721 0 1 0 I I #
face $-1 $320 $321 $31 $-1 $322 reversed single #
loop $-1 $-1 $323 $134 #
plane-surface $-1 -78.93551438947722 0 0 1 0 0 0 0 -1 forward_v I I I I #
coedge $-1 $230 $324 $224 $325 forward $135 $-1 #
coedge $-1 $140 $137 $326 $327 reversed $85 $-1 #
coedge $-1 $137 $140 $222 $325 reversed $85 $-1 #
coedge $-1 $328 $329 $137 $226 forward $330 $-1 #
edge $-1 $331 -15.78303103212721 $332 15.78303103212721 $225 $333 forward 7 unknown #
coedge $-1 $139 $138 $323 $334 reversed $54 $-1 #
coedge $-1 $326 $335 $138 $229 forward $321 $-1 #
edge $-1 $336 -44.022703247007364 $233 -25.802919037932341 $228 $337 forward 7 unknown #
coedge $-1 $338 $222 $139 $231 forward $135 $-1 #
edge $-1 $232 25.802919037932341 $339 44.022703247007364 $230 $340 forward 7 unknown #
vertex $-1 $231 $341 #
vertex $-1 $229 $342 #
straight-curve $-1 -60.715730180402197 -25.795630311790113 0 0 0 -1 I I #
face $-1 $-1 $247 $32 $-1 $343 forward single #
loop $-1 $-1 $344 $142 #
plane-surface $-1 0 32.423376226761398 0 0 -1 0 0 0 -1 forward_v I I I I #
coedge $-1 $345 $346 $347 $348 reversed $143 $-1 #
coedge $-1 $349 $145 $147 $245 forward $89 $-1 #
coedge $-1 $145 $349 $345 $350 forward $89 $-1 #
coedge $-1 $347 $148 $145 $242 forward $247 $-1 #
edge $-1 $249 -20.993886236932902 $351 13.071223482002644 $241 $352 forward 7 unknown #
coedge $-1 $353 $354 $146 $244 forward $236 $-1 #
edge $-1 $355 -78.559144641558021 $248 -74.378254266050675 $243 $356 forward 7 unknown #
edge $-1 $249 56.729118974441178 $355 64.846752453522811 $147 $357 forward 7 unknown #
coedge $-1 $148 $347 $353 $358 forward $247 $-1 #
loop $-1 $-1 $347 $235 #
vertex $-1 $244 $359 #
vertex $-1 $149 $360 #
straight-curve $-1 -24.95521761439803 29.074226280909958 15.783031032127212 0 -1 0 I I #
coedge $-1 $251 $251 $-1 $361 reversed $152 $-1 #
edge $-1 $362 0 $362 6.2831853071796004 $153 $363 forward 7 unknown #
vertex $-1 $156 $364 #
ellipse-curve $-1 -18.142195670610917 28.94429125479331 13.69258584437353 0 0.51503808176128008 0.85716729658548041 1.5 0 0 1 I I #
coedge $-1 $255 $255 $-1 $365 reversed $159 $-1 #
edge $-1 $366 0 $366 6.2831853071796004 $160 $367 forward 7 unknown #
vertex $-1 $163 $368 #
ellipse-curve $-1 -7.9226627549302577 28.94429125479331 13.69258584437353 0 0.51503808176128008 0.85716729658548041 1.5 0 0 1 I I #
coedge $-1 $259 $259 $-1 $369 reversed $166 $-1 #
edge $-1 $370 0 $370 6.2831853071796004 $167 $371 forward 7 unknown #
vertex $-1 $170 $372 #
ellipse-curve $-1 2.2968701607504016 28.94429125479331 13.69258584437353 0 0.51503808176128008 0.85716729658548041 1.5 0 0 1 I I #
face $-1 $-1 $373 $36 $-1 $374 forward single #
loop $-1 $-1 $276 $171 #
plane-surface $-1 9.109892104537515 58.148452561819916 180.32257059635577 -1 0 0 0 0.51503808176128008 0.85716729658548041 forward_v I I I I #
coedge $-1 $272 $375 $268 $376 forward $172 $-1 #
coedge $-1 $268 $174 $271 $377 reversed $108 $-1 #
coedge $-1 $174 $267 $266 $376 reversed $108 $-1 #
coedge $-1 $378 $274 $174 $270 forward $373 $-1 #
edge $-1 $379 -3.6090199980847508 $380 3.3491499458514404 $269 $381 forward 7 unknown #
coedge $-1 $176 $175 $267 $377 forward $69 $-1 #
coedge $-1 $382 $266 $175 $273 forward $172 $-1 #
edge $-1 $383 -47.136333200938189 $278 -13.071223482002644 $272 $384 forward 7 unknown #
coedge $-1 $269 $385 $176 $275 forward $373 $-1 #
edge $-1 $279 13.071223482002644 $379 47.136333200938189 $274 $386 forward 7 unknown #
coedge $-1 $277 $177 $385 $387 reversed $264 $-1 #
coedge $-1 $177 $276 $382 $388 reversed $264 $-1 #
vertex $-1 $273 $389 #
vertex $-1 $275 $390 #
straight-curve $-1 9.109892104537515 -23.161139266172619 45.000687648730832 0 -0.85716729658548041 0.51503808176128008 I I #
coedge $-1 $281 $281 $-1 $391 reversed $181 $-1 #
edge $-1 $392 0 $392 6.2831853071796004 $182 $393 forward 7 unknown #
vertex $-1 $185 $394 #
ellipse-curve $-1 15.922914048324628 28.94429125479331 13.69258584437353 0 0.51503808176128008 0.85716729658548041 1.5 0 0 1 I I #
coedge $-1 $285 $285 $-1 $395 reversed $188 $-1 #
edge $-1 $396 0 $396 6.2831853071796004 $189 $397 forward 7 unknown #
vertex $-1 $192 $398 #
ellipse-curve $-1 26.142446964005288 28.94429125479331 13.69258584437353 0 0.51503808176128008 0.85716729658548041 1.5 0 0 1 I I #
coedge $-1 $289 $289 $-1 $399 reversed $195 $-1 #
edge $-1 $400 0 $400 6.2831853071796004 $196 $401 forward 7 unknown #
vertex $-1 $199 $402 #
ellipse-curve $-1 36.361979879685947 28.94429125479331 13.69258584437353 0 0.51503808176128008 0.85716729658548041 1.5 0 0 1 I I #
face $-1 $-1 $215 $30 $-1 $403 reversed single #
loop $-1 $-1 $309 $200 #
plane-surface $-1 0 32.423376226761398 0 0 -1 0 0 0 -1 forward_v I I I I #
coedge $-1 $404 $307 $310 $405 forward $201 $-1 #
coedge $-1 $313 $203 $204 $301 reversed $127 $-1 #
coedge $-1 $307 $404 $203 $299 reversed $201 $-1 #
edge $-1 $314 -15.78303103212721 $406 15.78303103212721 $298 $407 forward 7 unknown #
coedge $-1 $205 $204 $404 $408 forward $81 $-1 #
edge $-1 $305 -78.93551438947722 $406 78.93551438947722 $297 $409 forward 7 unknown #
coedge $-1 $310 $309 $205 $303 reversed $294 $-1 #
edge $-1 $410 -78.93551438947722 $304 78.93551438947722 $302 $411 forward 7 unknown #
vertex $-1 $207 $412 #
vertex $-1 $316 $413 #
straight-curve $-1 78.93551438947722 0 -15.78303103212721 0 -1 0 I I #
coedge $-1 $296 $298 $208 $308 reversed $201 $-1 #
edge $-1 $311 -32.423376226761398 $314 32.423376226761398 $307 $414 forward 7 unknown #
coedge $-1 $302 $209 $214 $317 forward $294 $-1 #
coedge $-1 $209 $302 $296 $405 reversed $294 $-1 #
vertex $-1 $210 $415 #
straight-curve $-1 0 32.423376226761398 15.78303103212721 -1 0 0 I I #
coedge $-1 $211 $297 $213 $316 reversed $127 $-1 #
vertex $-1 $308 $416 #
straight-curve $-1 0 -32.423376226761398 15.78303103212721 1 0 0 I I #
edge $-1 $216 -15.78303103212721 $305 15.78303103212721 $213 $417 forward 7 unknown #
edge $-1 $217 -15.78303103212721 $304 15.78303103212721 $214 $418 forward 7 unknown #
point $-1 78.93551438947722 -32.423376226761398 15.78303103212721 #
point $-1 78.93551438947722 32.423376226761398 15.78303103212721 #
face $-1 $-1 $330 $31 $-1 $419 reversed single #
loop $-1 $-1 $326 $219 #
plane-surface $-1 0 0 -15.78303103212721 0 0 1 1 0 0 forward_v I I I I #
coedge $-1 $420 $421 $227 $334 forward $220 $-1 #
coedge $-1 $222 $338 $328 $422 forward $135 $-1 #
edge $-1 $332 -17.868624592123521 $232 -11.240878677152235 $222 $423 forward 7 unknown #
coedge $-1 $424 $228 $223 $327 forward $321 $-1 #
edge $-1 $233 11.240878677152235 $331 17.868624592123521 $326 $425 forward 7 unknown #
coedge $-1 $426 $225 $324 $422 reversed $330 $-1 #
coedge $-1 $225 $426 $424 $427 reversed $330 $-1 #
loop $-1 $-1 $225 $320 #
vertex $-1 $427 $428 #
vertex $-1 $226 $429 #
straight-curve $-1 -60.715730180402197 -32.423376226761398 0 0 0 1 I I #
edge $-1 $339 -15.78303103212721 $336 15.78303103212721 $323 $430 forward 7 unknown #
coedge $-1 $228 $424 $420 $431 forward $321 $-1 #
vertex $-1 $229 $432 #
straight-curve $-1 -34.912811142469856 -25.795630311790113 -15.78303103212721 1 0 0 I I #
coedge $-1 $324 $230 $421 $433 forward $135 $-1 #
vertex $-1 $433 $434 #
straight-curve $-1 -34.912811142469856 -25.795630311790113 15.78303103212721 -1 0 0 I I #
point $-1 -60.715730180402197 -25.795630311790113 15.78303103212721 #
point $-1 -60.715730180402197 -25.795630311790113 -15.78303103212721 #
plane-surface $-1 0 0 15.78303103212721 0 0 1 1 0 0 forward_v I I I I #
coedge $-1 $354 $353 $346 $435 forward $236 $-1 #
coedge $-1 $346 $238 $240 $350 reversed $143 $-1 #
coedge $-1 $238 $345 $344 $435 reversed $143 $-1 #
coedge $-1 $246 $241 $238 $348 forward $247 $-1 #
edge $-1 $351 -3.6090199980847508 $436 3.3491499458514404 $347 $437 forward 7 unknown #
coedge $-1 $240 $239 $354 $438 reversed $89 $-1 #
edge $-1 $439 -64.846752453522811 $351 -56.729118974441178 $345 $440 forward 7 unknown #
vertex $-1 $242 $441 #
straight-curve $-1 -3.9613313774651289 25.4652062828252 15.783031032127209 1 0 0 I I #
coedge $-1 $344 $243 $246 $358 reversed $236 $-1 #
coedge $-1 $243 $344 $349 $438 forward $236 $-1 #
vertex $-1 $244 $442 #
straight-curve $-1 -24.95521761439803 32.423376226761398 90.161285298177887 0 0 1 I I #
straight-curve $-1 -24.95521761439803 -23.161139266172619 45.000687648730832 0 0.85716729658548041 -0.51503808176128008 I I #
edge $-1 $436 -9.109892104537515 $248 24.95521761439803 $353 $443 forward 7 unknown #
point $-1 -24.95521761439803 32.423376226761398 15.78303103212721 #
point $-1 -24.95521761439803 25.465206282825207 15.783031032127212 #
edge $-1 $444 1 $444 0 $251 $-1 forward 7 unknown #
vertex $-1 $252 $445 #
ellipse-curve $-1 -18.142195670610917 27.631554798161435 11.507825533422601 0 0.51503808176128008 0.85716729658548041 1.5 0 0 1 I I #
point $-1 -16.642195670610917 28.944291254793313 13.692585844373543 #
edge $-1 $446 1 $446 0 $255 $-1 forward 7 unknown #
vertex $-1 $256 $447 #
ellipse-curve $-1 -7.9226627549302577 27.631554798161435 11.507825533422601 0 0.51503808176128008 0.85716729658548041 1.5 0 0 1 I I #
point $-1 -6.4226627549302577 28.944291254793313 13.692585844373543 #
edge $-1 $448 1 $448 0 $259 $-1 forward 7 unknown #
vertex $-1 $260 $449 #
ellipse-curve $-1 2.2968701607504016 27.631554798161435 11.507825533422601 0 0.51503808176128008 0.85716729658548041 1.5 0 0 1 I I #
point $-1 3.7968701607504016 28.944291254793313 13.692585844373543 #
loop $-1 $-1 $269 $263 #
plane-surface $-1 0 0 15.78303103212721 0 0 1 1 0 0 forward_v I I I I #
coedge $-1 $266 $382 $378 $450 reversed $172 $-1 #
edge $-1 $380 74.378254266050675 $383 78.559144641558021 $266 $451 forward 7 unknown #
edge $-1 $383 -64.846752453522811 $379 -56.729118974441178 $267 $452 forward 7 unknown #
coedge $-1 $385 $269 $375 $450 forward $373 $-1 #
vertex $-1 $270 $453 #
vertex $-1 $450 $454 #
straight-curve $-1 43.17500182347306 29.074226280909958 15.783031032127212 0 1 0 I I #
coedge $-1 $375 $272 $277 $388 forward $172 $-1 #
vertex $-1 $376 $455 #
straight-curve $-1 -3.9613313774651289 32.423376226761398 11.602140656619865 -1 0 0 I I #
coedge $-1 $274 $378 $276 $387 forward $373 $-1 #
straight-curve $-1 -3.9613313774651289 25.4652062828252 15.783031032127209 1 0 0 I I #
edge $-1 $456 -3.3491499458514404 $279 3.6090199980847508 $385 $457 forward 7 unknown #
edge $-1 $278 -78.559144641558021 $456 -74.378254266050675 $382 $458 forward 7 unknown #
point $-1 9.109892104537515 32.423376226761398 11.602140656619859 #
point $-1 9.109892104537515 25.465206282825207 15.783031032127212 #
edge $-1 $459 1 $459 0 $281 $-1 forward 7 unknown #
vertex $-1 $282 $460 #
ellipse-curve $-1 15.922914048324628 27.631554798161435 11.507825533422601 0 0.51503808176128008 0.85716729658548041 1.5 0 0 1 I I #
point $-1 17.422914048324628 28.944291254793313 13.692585844373543 #
edge $-1 $461 1 $461 0 $285 $-1 forward 7 unknown #
vertex $-1 $286 $462 #
ellipse-curve $-1 26.142446964005288 27.631554798161435 11.507825533422601 0 0.51503808176128008 0.85716729658548041 1.5 0 0 1 I I #
point $-1 27.642446964005288 28.944291254793313 13.692585844373543 #
edge $-1 $463 1 $463 0 $289 $-1 forward 7 unknown #
vertex $-1 $290 $464 #
ellipse-curve $-1 36.361979879685947 27.631554798161435 11.507825533422601 0 0.51503808176128008 0.85716729658548041 1.5 0 0 1 I I #
point $-1 37.861979879685947 28.944291254793313 13.692585844373543 #
plane-surface $-1 78.93551438947722 0 0 -1 0 0 0 0 1 forward_v I I I I #
coedge $-1 $298 $296 $300 $408 reversed $201 $-1 #
edge $-1 $311 -15.78303103212721 $410 15.78303103212721 $310 $465 forward 7 unknown #
vertex $-1 $408 $466 #
straight-curve $-1 -78.93551438947722 -32.423376226761398 0 0 0 -1 I I #
edge $-1 $406 -32.423376226761398 $410 32.423376226761398 $404 $467 forward 7 unknown #
straight-curve $-1 0 -32.423376226761398 -15.78303103212721 -1 0 0 I I #
vertex $-1 $303 $468 #
straight-curve $-1 0 32.423376226761398 -15.78303103212721 1 0 0 I I #
point $-1 78.93551438947722 32.423376226761398 -15.78303103212721 #
point $-1 78.93551438947722 -32.423376226761398 -15.78303103212721 #
straight-curve $-1 -78.93551438947722 0 15.78303103212721 0 -1 0 I I #
point $-1 -78.93551438947722 32.423376226761398 15.78303103212721 #
point $-1 -78.93551438947722 -32.423376226761398 15.78303103212721 #
straight-curve $-1 78.93551438947722 -32.423376226761398 0 0 0 -1 I I #
straight-curve $-1 78.93551438947722 32.423376226761398 0 0 0 -1 I I #
plane-surface $-1 0 -32.423376226761398 0 0 1 0 0 0 1 forward_v I I I I #
coedge $-1 $469 $323 $335 $431 reversed $220 $-1 #
coedge $-1 $323 $469 $338 $433 reversed $220 $-1 #
edge $-1 $470 -78.93551438947722 $332 -60.715730180402197 $328 $471 forward 7 unknown #
straight-curve $-1 -60.715730180402197 -14.554751634637878 15.78303103212721 0 1 0 I I #
coedge $-1 $335 $326 $329 $427 forward $321 $-1 #
straight-curve $-1 -60.715730180402197 -14.554751634637878 -15.78303103212721 0 -1 0 I I #
coedge $-1 $329 $328 $469 $472 forward $330 $-1 #
edge $-1 $331 60.715730180402197 $473 78.93551438947722 $329 $474 forward 7 unknown #
point $-1 -60.715730180402197 -32.423376226761398 -15.78303103212721 #
point $-1 -60.715730180402197 -32.423376226761398 15.78303103212721 #
straight-curve $-1 -78.93551438947722 -25.795630311790113 0 0 0 -1 I I #
edge $-1 $473 -32.423376226761398 $336 -25.795630311790113 $420 $475 forward 7 unknown #
point $-1 -78.93551438947722 -25.795630311790113 -15.78303103212721 #
edge $-1 $339 25.795630311790113 $470 32.423376226761398 $421 $476 forward 7 unknown #
point $-1 -78.93551438947722 -25.795630311790113 15.78303103212721 #
edge $-1 $436 74.378254266050675 $439 78.559144641558021 $344 $477 forward 7 unknown #
vertex $-1 $358 $478 #
straight-curve $-1 9.109892104537515 29.074226280909958 15.783031032127212 0 1 0 I I #
edge $-1 $439 -13.071223482002644 $355 20.993886236932902 $354 $479 forward 7 unknown #
vertex $-1 $438 $480 #
straight-curve $-1 9.109892104537515 -23.161139266172619 45.000687648730832 0 -0.85716729658548041 0.51503808176128008 I I #
point $-1 9.109892104537515 25.465206282825207 15.783031032127212 #
point $-1 -24.95521761439803 32.423376226761398 11.602140656619859 #
straight-curve $-1 0 32.423376226761398 15.78303103212721 -1 0 0 I I #
vertex $-1 $361 $481 #
point $-1 -16.642195670610917 27.631554798161435 11.507825533422601 #
vertex $-1 $365 $482 #
point $-1 -6.4226627549302577 27.631554798161435 11.507825533422601 #
vertex $-1 $369 $483 #
point $-1 3.7968701607504016 27.631554798161435 11.507825533422601 #
edge $-1 $380 -43.17500182347306 $456 -9.109892104537515 $375 $484 forward 7 unknown #
straight-curve $-1 43.17500182347306 32.423376226761398 90.161285298177887 0 0 -1 I I #
straight-curve $-1 43.17500182347306 -23.161139266172619 45.000687648730832 0 -0.85716729658548041 0.51503808176128008 I I #
point $-1 43.17500182347306 25.465206282825207 15.783031032127212 #
point $-1 43.17500182347306 32.423376226761398 15.78303103212721 #
point $-1 43.17500182347306 32.423376226761398 11.602140656619859 #
vertex $-1 $388 $485 #
straight-curve $-1 9.109892104537515 29.074226280909958 15.783031032127212 0 -1 0 I I #
straight-curve $-1 9.109892104537515 32.423376226761398 90.161285298177887 0 0 1 I I #
vertex $-1 $391 $486 #
point $-1 17.422914048324628 27.631554798161435 11.507825533422601 #
vertex $-1 $395 $487 #
point $-1 27.642446964005288 27.631554798161435 11.507825533422601 #
vertex $-1 $399 $488 #
point $-1 37.861979879685947 27.631554798161435 11.507825533422601 #
straight-curve $-1 -78.93551438947722 32.423376226761398 0 0 0 -1 I I #
point $-1 -78.93551438947722 -32.423376226761398 -15.78303103212721 #
straight-curve $-1 -78.93551438947722 0 -15.78303103212721 0 1 0 I I #
point $-1 -78.93551438947722 32.423376226761398 -15.78303103212721 #
coedge $-1 $421 $420 $426 $472 reversed $220 $-1 #
vertex $-1 $433 $489 #
straight-curve $-1 0 -32.423376226761398 15.78303103212721 1 0 0 I I #
edge $-1 $470 -15.78303103212721 $473 15.78303103212721 $469 $490 forward 7 unknown #
vertex $-1 $431 $491 #
straight-curve $-1 0 -32.423376226761398 -15.78303103212721 -1 0 0 I I #
straight-curve $-1 -78.93551438947722 0 -15.78303103212721 0 1 0 I I #
straight-curve $-1 -78.93551438947722 0 15.78303103212721 0 -1 0 I I #
straight-curve $-1 9.109892104537515 32.423376226761398 90.161285298177887 0 0 -1 I I #
point $-1 9.109892104537515 32.423376226761398 15.78303103212721 #
straight-curve $-1 -3.9613313774651289 32.423376226761398 11.602140656619865 -1 0 0 I I #
point $-1 9.109892104537515 32.423376226761398 11.602140656619859 #
point $-1 -18.142195670610917 26.858997675519515 10.22207458854438 #
point $-1 -7.9226627549302577 26.858997675519515 10.22207458854438 #
point $-1 2.2968701607504016 26.858997675519515 10.22207458854438 #
straight-curve $-1 0 32.423376226761398 15.78303103212721 -1 0 0 I I #
point $-1 9.109892104537515 32.423376226761398 15.78303103212721 #
point $-1 15.922914048324628 26.858997675519515 10.22207458854438 #
point $-1 26.142446964005288 26.858997675519515 10.22207458854438 #
point $-1 36.361979879685947 26.858997675519515 10.22207458854438 #
point $-1 -78.93551438947722 -32.423376226761398 15.78303103212721 #
straight-curve $-1 -78.93551438947722 -32.423376226761398 0 0 0 -1 I I #
point $-1 -78.93551438947722 -32.423376226761398 -15.78303103212721 #
End-of-ACIS-data 