500 0 12 0           
7 Unknown 11 ACIS 5.0 NT 24 Fri Mar 26 17:06:12 1999 
-1 9.9999999999999995e-007 1e-010 
body $-1 $12 $-1 $13 #
body $-1 $14 $-1 $15 #
body $-1 $16 $-1 $17 #
body $-1 $18 $-1 $19 #
body $-1 $20 $-1 $21 #
body $-1 $22 $-1 $23 #
body $-1 $24 $-1 $25 #
body $-1 $26 $-1 $27 #
body $-1 $28 $-1 $29 #
body $-1 $30 $-1 $31 #
body $-1 $32 $-1 $33 #
body $-1 $34 $-1 $35 #
lump $-1 $-1 $36 $0 #
transform $-1 1 0 0 0 1 0 0 0 1 79.6691793572802 40.833645612900369 10.093949586472112 1 rotate no_reflect no_shear #
lump $-1 $-1 $37 $1 #
transform $-1 1 0 0 0 1 0 0 0 1 79.6691793572802 40.833645612900369 10.093949586472112 1 rotate no_reflect no_shear #
lump $-1 $-1 $38 $2 #
transform $-1 1 0 0 0 1 0 0 0 1 79.6691793572802 40.833645612900369 10.093949586472112 1 rotate no_reflect no_shear #
lump $-1 $-1 $39 $3 #
transform $-1 1 0 0 0 1 0 0 0 1 79.6691793572802 40.833645612900369 10.093949586472112 1 rotate no_reflect no_shear #
lump $-1 $-1 $40 $4 #
transform $-1 1 0 0 0 1 0 0 0 1 79.6691793572802 40.833645612900369 10.093949586472112 1 rotate no_reflect no_shear #
lump $-1 $-1 $41 $5 #
transform $-1 1 0 0 0 1 0 0 0 1 79.6691793572802 40.833645612900369 10.093949586472112 1 rotate no_reflect no_shear #
lump $-1 $-1 $42 $6 #
transform $-1 1 0 0 0 1 0 0 0 1 79.6691793572802 40.833645612900369 10.093949586472112 1 rotate no_reflect no_shear #
lump $-1 $-1 $43 $7 #
transform $-1 1 0 0 0 1 0 0 0 1 79.6691793572802 40.833645612900369 10.093949586472112 1 rotate no_reflect no_shear #
lump $-1 $-1 $44 $8 #
transform $-1 1 0 0 0 1 0 0 0 1 79.6691793572802 40.833645612900369 10.093949586472112 1 rotate no_reflect no_shear #
lump $-1 $-1 $45 $9 #
transform $-1 1 0 0 0 1 0 0 0 1 79.6691793572802 40.833645612900369 10.093949586472112 1 rotate no_reflect no_shear #
lump $-1 $-1 $46 $10 #
transform $-1 1 0 0 0 1 0 0 0 1 79.6691793572802 40.833645612900369 10.093949586472112 1 rotate no_reflect no_shear #
lump $-1 $-1 $47 $11 #
transform $-1 1 0 0 0 1 0 0 0 1 79.6691793572802 40.833645612900369 10.093949586472112 1 rotate no_reflect no_shear #
shell $-1 $-1 $-1 $48 $-1 $12 #
shell $-1 $-1 $-1 $49 $-1 $14 #
shell $-1 $-1 $-1 $50 $-1 $16 #
shell $-1 $-1 $-1 $51 $-1 $18 #
shell $-1 $-1 $-1 $52 $-1 $20 #
shell $-1 $-1 $-1 $53 $-1 $22 #
shell $-1 $-1 $-1 $54 $-1 $24 #
shell $-1 $-1 $-1 $55 $-1 $26 #
shell $-1 $-1 $-1 $56 $-1 $28 #
shell $-1 $-1 $-1 $57 $-1 $30 #
shell $-1 $-1 $-1 $58 $-1 $32 #
shell $-1 $-1 $-1 $59 $-1 $34 #
face $-1 $60 $61 $36 $-1 $62 reversed single #
face $-1 $63 $64 $37 $-1 $65 forward single #
face $-1 $66 $67 $38 $-1 $68 reversed single #
face $-1 $69 $70 $39 $-1 $71 forward single #
face $-1 $72 $73 $40 $-1 $74 forward single #
face $-1 $75 $76 $41 $-1 $77 forward single #
face $-1 $78 $79 $42 $-1 $80 reversed single #
face $-1 $81 $82 $43 $-1 $83 forward single #
face $-1 $84 $85 $44 $-1 $86 forward single #
face $-1 $87 $88 $45 $-1 $89 reversed single #
face $-1 $90 $91 $46 $-1 $92 forward single #
face $-1 $93 $94 $47 $-1 $95 forward single #
face $-1 $96 $97 $36 $-1 $98 forward single #
loop $-1 $-1 $99 $48 #
plane-surface $-1 -79.6691793572802 0 0 1 0 0 0 0 -1 forward_v I I I I #
face $-1 $100 $101 $37 $-1 $102 reversed single #
loop $-1 $-1 $103 $49 #
plane-surface $-1 -79.6691793572802 0 0 1 0 0 0 0 -1 forward_v I I I I #
face $-1 $104 $105 $38 $-1 $106 reversed single #
loop $-1 $-1 $107 $50 #
plane-surface $-1 51.682360973779467 68.420158145654426 180.15945266632818 1 0 0 0 -0.5877852598018023 -0.80901698891910034 forward_v I I I I #
face $-1 $108 $109 $39 $-1 $110 forward single #
loop $-1 $111 $112 $51 #
cone-surface $-1 56.512287394002271 35.57372886453927 5.9153676157257529 0 -0.5877852598018023 -0.80901698891910034 1.5 0 0 1 I I 0 1 1.5 forward I I I I #
face $-1 $113 $114 $40 $-1 $115 forward single #
loop $-1 $116 $117 $52 #
cone-surface $-1 63.757177024336499 35.57372886453927 5.9153676157257529 0 -0.5877852598018023 -0.80901698891910034 1.5 0 0 1 I I 0 1 1.5 forward I I I I #
face $-1 $118 $119 $41 $-1 $120 forward single #
loop $-1 $121 $122 $53 #
cone-surface $-1 71.002066654670728 35.57372886453927 5.9153676157257529 0 -0.5877852598018023 -0.80901698891910034 1.5 0 0 1 I I 0 1 1.5 forward I I I I #
face $-1 $123 $124 $42 $-1 $125 reversed single #
loop $-1 $-1 $126 $54 #
plane-surface $-1 0.17974401891200387 -178.82471328951493 85.332732664979076 -1 0 0 0 -0.86602541151947299 0.49999998660252726 forward_v I I I I #
face $-1 $127 $128 $43 $-1 $129 forward single #
loop $-1 $130 $131 $55 #
cone-surface $-1 -24.98516133931475 -38.732978581409029 7.4043308529178304 0 0.86602541151947299 -0.49999998660252726 0.5 0 0 1 I I 0 1 0.5 forward I I I I #
face $-1 $132 $133 $44 $-1 $134 forward single #
loop $-1 $135 $136 $56 #
cone-surface $-1 -9.8862181243787006 -38.732978581409029 7.4043308529178304 0 0.86602541151947299 -0.49999998660252726 0.5 0 0 1 I I 0 1 0.5 forward I I I I #
face $-1 $137 $138 $45 $-1 $139 reversed single #
loop $-1 $-1 $140 $57 #
plane-surface $-1 43.384578841021252 -178.82471328951493 85.332732664979076 -1 0 0 0 -0.86602541151947299 0.49999998660252726 forward_v I I I I #
face $-1 $141 $142 $46 $-1 $143 forward single #
loop $-1 $144 $145 $58 #
cone-surface $-1 18.219673482794491 -38.732978581409029 7.4043308529178304 0 0.86602541151947299 -0.49999998660252726 0.5 0 0 1 I I 0 1 0.5 forward I I I I #
face $-1 $146 $147 $47 $-1 $148 forward single #
loop $-1 $149 $150 $59 #
cone-surface $-1 33.318616697730548 -38.732978581409029 7.4043308529178304 0 0.86602541151947299 -0.49999998660252726 0.5 0 0 1 I I 0 1 0.5 forward I I I I #
face $-1 $151 $152 $36 $-1 $153 reversed single #
loop $-1 $-1 $154 $60 #
plane-surface $-1 0 0 10.093949586472112 0 0 1 1 0 0 forward_v I I I I #
coedge $-1 $155 $156 $157 $158 reversed $61 $-1 #
face $-1 $159 $160 $37 $-1 $161 reversed single #
loop $-1 $-1 $162 $63 #
plane-surface $-1 0 0 -10.093949586472112 0 0 1 1 0 0 forward_v I I I I #
coedge $-1 $163 $164 $165 $166 forward $64 $-1 #
face $-1 $167 $168 $38 $-1 $169 reversed single #
loop $-1 $-1 $170 $66 #
plane-surface $-1 63.757177024336499 -25.236580427776232 51.252013479763036 0 0.5877852598018023 0.80901698891910034 1 0 0 forward_v I I I I #
coedge $-1 $171 $172 $173 $174 reversed $67 $-1 #
face $-1 $-1 $175 $39 $-1 $176 forward single #
loop $-1 $177 $178 $69 #
cone-surface $-1 56.512287394002271 34.58347923238378 4.5524059518779456 0 -0.5877852598018023 -0.80901698891910034 0.75 0 0 1 I I -0.70710678118654757 0.70710678118654757 0.75 forward I I I I #
loop $-1 $-1 $179 $51 #
coedge $-1 $112 $112 $180 $181 reversed $70 $-1 #
face $-1 $-1 $182 $40 $-1 $183 forward single #
loop $-1 $184 $185 $72 #
cone-surface $-1 63.757177024336499 34.58347923238378 4.5524059518779456 0 -0.5877852598018023 -0.80901698891910034 0.75 0 0 1 I I -0.70710678118654757 0.70710678118654757 0.75 forward I I I I #
loop $-1 $-1 $186 $52 #
coedge $-1 $117 $117 $187 $188 reversed $73 $-1 #
face $-1 $-1 $189 $41 $-1 $190 forward single #
loop $-1 $191 $192 $75 #
cone-surface $-1 71.002066654670728 34.58347923238378 4.5524059518779456 0 -0.5877852598018023 -0.80901698891910034 0.75 0 0 1 I I -0.70710678118654757 0.70710678118654757 0.75 forward I I I I #
loop $-1 $-1 $193 $53 #
coedge $-1 $122 $122 $194 $195 reversed $76 $-1 #
face $-1 $196 $197 $42 $-1 $198 reversed single #
loop $-1 $-1 $199 $78 #
plane-surface $-1 -17.435689731846722 -40.833645612900369 5.6635554424301944 0 -0.86602541151947299 0.49999998660252726 1 0 0 forward_v I I I I #
coedge $-1 $200 $201 $202 $203 reversed $79 $-1 #
face $-1 $-1 $204 $43 $-1 $205 forward single #
loop $-1 $206 $207 $81 #
cone-surface $-1 -24.98516133931475 -37.694749777184846 6.804909194733872 0 0.86602541151947299 -0.49999998660252726 0.25 0 0 1 I I -0.70710678118654746 0.70710678118654746 0.25 forward I I I I #
loop $-1 $-1 $208 $55 #
coedge $-1 $131 $131 $209 $210 reversed $82 $-1 #
face $-1 $-1 $211 $44 $-1 $212 forward single #
loop $-1 $213 $214 $84 #
cone-surface $-1 -9.8862181243787006 -37.694749777184846 6.804909194733872 0 0.86602541151947299 -0.49999998660252726 0.25 0 0 1 I I -0.70710678118654746 0.70710678118654746 0.25 forward I I I I #
loop $-1 $-1 $215 $56 #
coedge $-1 $136 $136 $216 $217 reversed $85 $-1 #
face $-1 $218 $219 $45 $-1 $220 reversed single #
loop $-1 $-1 $221 $87 #
plane-surface $-1 25.769145090262526 -40.833645612900369 5.6635554424301944 0 -0.86602541151947299 0.49999998660252726 1 0 0 forward_v I I I I #
coedge $-1 $222 $223 $224 $225 reversed $88 $-1 #
face $-1 $-1 $226 $46 $-1 $227 forward single #
loop $-1 $228 $229 $90 #
cone-surface $-1 18.219673482794491 -37.694749777184846 6.804909194733872 0 0.86602541151947299 -0.49999998660252726 0.25 0 0 1 I I -0.70710678118654746 0.70710678118654746 0.25 forward I I I I #
loop $-1 $-1 $230 $58 #
coedge $-1 $145 $145 $231 $232 reversed $91 $-1 #
face $-1 $-1 $233 $47 $-1 $234 forward single #
loop $-1 $235 $236 $93 #
cone-surface $-1 33.318616697730548 -37.694749777184846 6.804909194733872 0 0.86602541151947299 -0.49999998660252726 0.25 0 0 1 I I -0.70710678118654746 0.70710678118654746 0.25 forward I I I I #
loop $-1 $-1 $237 $59 #
coedge $-1 $150 $150 $238 $239 reversed $94 $-1 #
face $-1 $240 $241 $36 $-1 $242 reversed single #
loop $-1 $-1 $243 $96 #
plane-surface $-1 0 0 -10.093949586472112 0 0 1 1 0 0 forward_v I I I I #
coedge $-1 $244 $245 $246 $247 forward $97 $-1 #
coedge $-1 $248 $99 $249 $250 reversed $61 $-1 #
coedge $-1 $99 $248 $251 $252 forward $61 $-1 #
coedge $-1 $253 $254 $99 $158 forward $152 $-1 #
edge $-1 $255 -40.833645612900369 $256 40.833645612900369 $99 $257 forward 7 unknown #
face $-1 $258 $259 $37 $-1 $260 reversed single #
loop $-1 $-1 $261 $100 #
plane-surface $-1 -83.835907036488095 -23.645746439956145 0 0 1 0 0 0 1 forward_v I I I I #
coedge $-1 $262 $263 $164 $264 forward $101 $-1 #
coedge $-1 $265 $103 $266 $267 reversed $64 $-1 #
coedge $-1 $103 $265 $162 $264 reversed $64 $-1 #
coedge $-1 $268 $269 $103 $166 reversed $270 $-1 #
edge $-1 $271 -10.093949586472112 $272 10.093949586472112 $165 $273 forward 7 unknown #
face $-1 $274 $275 $38 $-1 $276 forward single #
loop $-1 $-1 $277 $104 #
plane-surface $-1 75.831993074893532 68.420158145654426 180.15945266632818 -1 0 0 0 0.5877852598018023 0.80901698891910034 forward_v I I I I #
coedge $-1 $278 $279 $280 $281 reversed $105 $-1 #
coedge $-1 $172 $107 $282 $283 reversed $67 $-1 #
coedge $-1 $107 $171 $278 $284 reversed $67 $-1 #
coedge $-1 $280 $285 $107 $174 forward $275 $-1 #
edge $-1 $286 -6.6235665400731563 $287 2.7974455820408934 $173 $288 forward 7 unknown #
loop $-1 $-1 $180 $108 #
plane-surface $-1 63.757177024336499 -25.236580427776232 51.252013479763036 0 0.5877852598018023 0.80901698891910034 1 0 0 forward_v I I I I #
loop $-1 $-1 $289 $69 #
coedge $-1 $178 $178 $179 $290 reversed $109 $-1 #
coedge $-1 $179 $179 $178 $290 forward $111 $-1 #
coedge $-1 $180 $180 $112 $181 forward $175 $-1 #
edge $-1 $291 7.1916330123724494e-016 $291 6.2831853071796013 $180 $292 forward 7 unknown #
loop $-1 $-1 $187 $113 #
plane-surface $-1 63.757177024336499 -25.236580427776232 51.252013479763036 0 0.5877852598018023 0.80901698891910034 1 0 0 forward_v I I I I #
loop $-1 $-1 $293 $72 #
coedge $-1 $185 $185 $186 $294 reversed $114 $-1 #
coedge $-1 $186 $186 $185 $294 forward $116 $-1 #
coedge $-1 $187 $187 $117 $188 forward $182 $-1 #
edge $-1 $295 7.1916330123724494e-016 $295 6.2831853071796013 $187 $296 forward 7 unknown #
loop $-1 $-1 $194 $118 #
plane-surface $-1 63.757177024336499 -25.236580427776232 51.252013479763036 0 0.5877852598018023 0.80901698891910034 1 0 0 forward_v I I I I #
loop $-1 $-1 $297 $75 #
coedge $-1 $192 $192 $193 $298 reversed $119 $-1 #
coedge $-1 $193 $193 $192 $298 forward $121 $-1 #
coedge $-1 $194 $194 $122 $195 forward $189 $-1 #
edge $-1 $299 7.1916330123724494e-016 $299 6.2831853071796013 $194 $300 forward 7 unknown #
face $-1 $301 $302 $42 $-1 $303 forward single #
loop $-1 $-1 $304 $123 #
plane-surface $-1 -35.051123482605448 -178.82471328951493 85.332732664979076 1 0 0 0 0.86602541151947299 -0.49999998660252726 forward_v I I I I #
coedge $-1 $305 $306 $307 $308 reversed $124 $-1 #
coedge $-1 $201 $126 $309 $310 reversed $79 $-1 #
coedge $-1 $126 $200 $305 $311 reversed $79 $-1 #
coedge $-1 $307 $312 $126 $203 forward $302 $-1 #
edge $-1 $313 48.578711031857097 $314 51.136600192151171 $202 $315 forward 7 unknown #
loop $-1 $-1 $209 $127 #
plane-surface $-1 -17.435689731846722 -40.833645612900369 5.6635554424301944 0 -0.86602541151947299 0.49999998660252726 1 0 0 forward_v I I I I #
loop $-1 $-1 $316 $81 #
coedge $-1 $207 $207 $208 $317 reversed $128 $-1 #
coedge $-1 $208 $208 $207 $317 forward $130 $-1 #
coedge $-1 $209 $209 $131 $210 forward $204 $-1 #
edge $-1 $318 7.6918508142351619e-015 $318 6.2831853071796084 $209 $319 forward 7 unknown #
loop $-1 $-1 $216 $132 #
plane-surface $-1 -17.435689731846722 -40.833645612900369 5.6635554424301944 0 -0.86602541151947299 0.49999998660252726 1 0 0 forward_v I I I I #
loop $-1 $-1 $320 $84 #
coedge $-1 $214 $214 $215 $321 reversed $133 $-1 #
coedge $-1 $215 $215 $214 $321 forward $135 $-1 #
coedge $-1 $216 $216 $136 $217 forward $211 $-1 #
edge $-1 $322 7.6918508142351619e-015 $322 6.2831853071796084 $216 $323 forward 7 unknown #
face $-1 $324 $325 $45 $-1 $326 reversed single #
loop $-1 $-1 $327 $137 #
plane-surface $-1 8.1537113395038006 -178.82471328951493 85.332732664979076 1 0 0 0 0.86602541151947299 -0.49999998660252726 forward_v I I I I #
coedge $-1 $328 $329 $330 $331 reversed $138 $-1 #
coedge $-1 $223 $140 $332 $333 reversed $88 $-1 #
coedge $-1 $140 $222 $328 $334 reversed $88 $-1 #
coedge $-1 $330 $335 $140 $225 forward $336 $-1 #
edge $-1 $337 48.578711031857097 $338 51.136600192151171 $224 $339 forward 7 unknown #
loop $-1 $-1 $231 $141 #
plane-surface $-1 25.769145090262526 -40.833645612900369 5.6635554424301944 0 -0.86602541151947299 0.49999998660252726 1 0 0 forward_v I I I I #
loop $-1 $-1 $340 $90 #
coedge $-1 $229 $229 $230 $341 reversed $142 $-1 #
coedge $-1 $230 $230 $229 $341 forward $144 $-1 #
coedge $-1 $231 $231 $145 $232 forward $226 $-1 #
edge $-1 $342 7.6918508142351619e-015 $342 6.2831853071796084 $231 $343 forward 7 unknown #
loop $-1 $-1 $238 $146 #
plane-surface $-1 25.769145090262526 -40.833645612900369 5.6635554424301944 0 -0.86602541151947299 0.49999998660252726 1 0 0 forward_v I I I I #
loop $-1 $-1 $344 $93 #
coedge $-1 $236 $236 $237 $345 reversed $147 $-1 #
coedge $-1 $237 $237 $236 $345 forward $149 $-1 #
coedge $-1 $238 $238 $150 $239 forward $233 $-1 #
edge $-1 $346 7.6918508142351619e-015 $346 6.2831853071796084 $238 $347 forward 7 unknown #
face $-1 $348 $349 $36 $-1 $350 reversed single #
loop $-1 $-1 $249 $151 #
plane-surface $-1 0 -40.833645612900369 0 0 1 0 0 0 1 forward_v I I I I #
coedge $-1 $254 $253 $351 $352 forward $152 $-1 #
coedge $-1 $353 $154 $354 $355 forward $97 $-1 #
coedge $-1 $154 $353 $356 $357 forward $97 $-1 #
coedge $-1 $358 $359 $154 $247 reversed $360 $-1 #
edge $-1 $361 -40.833645612900369 $362 40.833645612900369 $246 $363 forward 7 unknown #
coedge $-1 $156 $155 $353 $364 reversed $61 $-1 #
coedge $-1 $365 $356 $155 $250 forward $241 $-1 #
edge $-1 $366 -10.093949586472112 $255 10.093949586472112 $155 $367 forward 7 unknown #
coedge $-1 $354 $368 $156 $252 reversed $349 $-1 #
edge $-1 $369 -10.093949586472112 $256 10.093949586472112 $251 $370 forward 7 unknown #
coedge $-1 $243 $157 $368 $371 forward $152 $-1 #
coedge $-1 $157 $243 $365 $372 forward $152 $-1 #
vertex $-1 $158 $373 #
vertex $-1 $371 $374 #
straight-curve $-1 -79.6691793572802 0 -10.093949586472112 0 1 0 I I #
face $-1 $375 $270 $37 $-1 $376 reversed single #
loop $-1 $-1 $377 $159 #
plane-surface $-1 -88.00263471569599 -22.145746439956145 0 1 0 0 0 0 -1 forward_v I I I I #
coedge $-1 $378 $379 $380 $381 forward $160 $-1 #
coedge $-1 $382 $162 $378 $383 forward $101 $-1 #
coedge $-1 $162 $382 $268 $384 forward $101 $-1 #
edge $-1 $271 20.645746439956145 $385 23.645746439956145 $162 $386 forward 7 unknown #
coedge $-1 $164 $163 $387 $388 forward $64 $-1 #
coedge $-1 $389 $390 $163 $267 forward $391 $-1 #
edge $-1 $392 -23.645746439956145 $272 -20.645746439956145 $266 $393 forward 7 unknown #
coedge $-1 $394 $165 $263 $384 reversed $270 $-1 #
coedge $-1 $165 $394 $389 $395 reversed $270 $-1 #
loop $-1 $-1 $165 $258 #
vertex $-1 $264 $396 #
vertex $-1 $395 $397 #
straight-curve $-1 -79.6691793572802 -20.645746439956145 0 0 0 1 I I #
face $-1 $-1 $398 $38 $-1 $399 reversed single #
loop $-1 $-1 $173 $167 #
plane-surface $-1 0 0 10.093949586472112 0 0 1 1 0 0 forward_v I I I I #
coedge $-1 $400 $401 $402 $403 reversed $168 $-1 #
coedge $-1 $404 $170 $172 $284 forward $105 $-1 #
coedge $-1 $170 $404 $400 $405 forward $105 $-1 #
coedge $-1 $402 $173 $170 $281 forward $275 $-1 #
edge $-1 $287 19.803772461611217 $406 43.953404562725282 $280 $407 forward 7 unknown #
coedge $-1 $408 $409 $171 $283 forward $398 $-1 #
edge $-1 $410 -86.830542843867804 $286 -79.985776746691982 $282 $411 forward 7 unknown #
edge $-1 $287 70.02227974748665 $410 81.667291225800767 $172 $412 forward 7 unknown #
coedge $-1 $173 $402 $408 $413 forward $275 $-1 #
vertex $-1 $283 $414 #
vertex $-1 $174 $415 #
straight-curve $-1 51.682360973779467 34.210079072827213 10.093949586472107 0 -1 0 I I #
coedge $-1 $289 $289 $-1 $416 reversed $177 $-1 #
edge $-1 $417 0 $417 6.2831853071796004 $178 $418 forward 7 unknown #
vertex $-1 $181 $419 #
ellipse-curve $-1 56.512287394002271 36.123139551843366 6.6715665378841784 0 0.5877852598018023 0.80901698891910034 1.5 0 0 1 I I #
coedge $-1 $293 $293 $-1 $420 reversed $184 $-1 #
edge $-1 $421 0 $421 6.2831853071796004 $185 $422 forward 7 unknown #
vertex $-1 $188 $423 #
ellipse-curve $-1 63.757177024336499 36.123139551843366 6.6715665378841784 0 0.5877852598018023 0.80901698891910034 1.5 0 0 1 I I #
coedge $-1 $297 $297 $-1 $424 reversed $191 $-1 #
edge $-1 $425 0 $425 6.2831853071796004 $192 $426 forward 7 unknown #
vertex $-1 $195 $427 #
ellipse-curve $-1 71.002066654670728 36.123139551843366 6.6715665378841784 0 0.5877852598018023 0.80901698891910034 1.5 0 0 1 I I #
face $-1 $-1 $428 $42 $-1 $429 reversed single #
loop $-1 $-1 $202 $196 #
plane-surface $-1 0 0 10.093949586472112 0 0 1 1 0 0 forward_v I I I I #
coedge $-1 $430 $431 $432 $433 reversed $197 $-1 #
coedge $-1 $434 $199 $201 $311 forward $124 $-1 #
coedge $-1 $199 $434 $430 $435 forward $124 $-1 #
coedge $-1 $432 $202 $199 $308 forward $302 $-1 #
edge $-1 $314 -8.8975888848353648 $436 26.333278616682087 $307 $437 forward 7 unknown #
coedge $-1 $438 $439 $200 $310 forward $428 $-1 #
edge $-1 $440 -37.002810890059344 $313 -32.572416746017424 $309 $441 forward 7 unknown #
edge $-1 $314 -5.1157784576651517 $440 0 $201 $442 forward 7 unknown #
coedge $-1 $202 $432 $438 $443 forward $302 $-1 #
vertex $-1 $203 $444 #
vertex $-1 $203 $445 #
straight-curve $-1 0.17974401891200387 -89.412356644757466 10.093949586472114 0 1 0 I I #
coedge $-1 $316 $316 $-1 $446 reversed $206 $-1 #
edge $-1 $447 0 $447 6.2831853071796004 $207 $448 forward 7 unknown #
vertex $-1 $210 $449 #
ellipse-curve $-1 -24.98516133931475 -39.554701032753336 7.8787525144511532 0 -0.86602541151947299 0.49999998660252726 0.5 0 0 1 I I #
coedge $-1 $320 $320 $-1 $450 reversed $213 $-1 #
edge $-1 $451 0 $451 6.2831853071796004 $214 $452 forward 7 unknown #
vertex $-1 $217 $453 #
ellipse-curve $-1 -9.8862181243787006 -39.554701032753336 7.8787525144511532 0 -0.86602541151947299 0.49999998660252726 0.5 0 0 1 I I #
face $-1 $-1 $336 $45 $-1 $454 forward single #
loop $-1 $-1 $455 $218 #
plane-surface $-1 0 -40.833645612900369 0 0 1 0 0 0 1 forward_v I I I I #
coedge $-1 $456 $457 $458 $459 reversed $219 $-1 #
coedge $-1 $460 $221 $223 $334 forward $138 $-1 #
coedge $-1 $221 $460 $456 $461 forward $138 $-1 #
coedge $-1 $458 $224 $221 $331 forward $336 $-1 #
edge $-1 $338 -30.500006295889989 $462 4.7308612056274626 $330 $463 forward 7 unknown #
coedge $-1 $464 $465 $222 $333 forward $325 $-1 #
edge $-1 $466 -37.002810890059344 $337 -32.572416746017424 $332 $467 forward 7 unknown #
edge $-1 $338 -5.1157784576651517 $466 0 $223 $468 forward 7 unknown #
coedge $-1 $224 $458 $464 $469 forward $336 $-1 #
loop $-1 $-1 $458 $324 #
vertex $-1 $333 $470 #
vertex $-1 $225 $471 #
straight-curve $-1 43.384578841021252 -89.412356644757466 10.093949586472114 0 1 0 I I #
coedge $-1 $340 $340 $-1 $472 reversed $228 $-1 #
edge $-1 $473 0 $473 6.2831853071796004 $229 $474 forward 7 unknown #
vertex $-1 $232 $475 #
ellipse-curve $-1 18.219673482794491 -39.554701032753336 7.8787525144511532 0 -0.86602541151947299 0.49999998660252726 0.5 0 0 1 I I #
coedge $-1 $344 $344 $-1 $476 reversed $235 $-1 #
edge $-1 $477 0 $477 6.2831853071796004 $236 $478 forward 7 unknown #
vertex $-1 $239 $479 #
ellipse-curve $-1 33.318616697730548 -39.554701032753336 7.8787525144511532 0 -0.86602541151947299 0.49999998660252726 0.5 0 0 1 I I #
face $-1 $-1 $360 $36 $-1 $480 reversed single #
loop $-1 $-1 $481 $240 #
plane-surface $-1 0 40.833645612900369 0 0 -1 0 0 0 -1 forward_v I I I I #
coedge $-1 $359 $358 $243 $352 reversed $360 $-1 #
edge $-1 $482 -40.833645612900369 $483 40.833645612900369 $351 $484 forward 7 unknown #
coedge $-1 $245 $244 $248 $364 forward $97 $-1 #
coedge $-1 $481 $251 $244 $355 reversed $349 $-1 #
edge $-1 $362 -79.6691793572802 $369 79.6691793572802 $354 $485 forward 7 unknown #
coedge $-1 $249 $486 $245 $357 reversed $241 $-1 #
edge $-1 $366 -79.6691793572802 $361 79.6691793572802 $356 $487 forward 7 unknown #
coedge $-1 $351 $246 $486 $488 forward $360 $-1 #
coedge $-1 $246 $351 $481 $489 reversed $360 $-1 #
loop $-1 $-1 $358 $348 #
vertex $-1 $247 $490 #
vertex $-1 $247 $491 #
straight-curve $-1 79.6691793572802 0 10.093949586472112 0 1 0 I I #
edge $-1 $369 -40.833645612900369 $366 40.833645612900369 $248 $492 forward 7 unknown #
coedge $-1 $486 $249 $254 $372 reversed $241 $-1 #
vertex $-1 $364 $493 #
straight-curve $-1 -79.6691793572802 -40.833645612900369 0 0 0 -1 I I #
coedge $-1 $251 $481 $253 $371 reversed $349 $-1 #
vertex $-1 $355 $494 #
straight-curve $-1 -79.6691793572802 40.833645612900369 0 0 0 -1 I I #
edge $-1 $256 -79.6691793572802 $482 79.6691793572802 $368 $495 forward 7 unknown #
edge $-1 $483 -79.6691793572802 $255 79.6691793572802 $365 $496 forward 7 unknown #
point $-1 -79.6691793572802 -40.833645612900369 -10.093949586472112 #
point $-1 -79.6691793572802 40.833645612900369 -10.093949586472112 #
face $-1 $-1 $391 $37 $-1 $497 forward single #
plane-surface $-1 -83.835907036488095 -20.645746439956145 0 0 -1 0 0 0 -1 forward_v I I I I #
coedge $-1 $498 $499 $394 $500 forward $259 $-1 #
coedge $-1 $387 $261 $262 $383 reversed $160 $-1 #
coedge $-1 $261 $387 $390 $501 reversed $160 $-1 #
coedge $-1 $499 $498 $261 $381 reversed $259 $-1 #
edge $-1 $502 -10.093949586472112 $503 10.093949586472112 $380 $504 forward 7 unknown #
coedge $-1 $263 $262 $498 $505 forward $101 $-1 #
edge $-1 $385 -4.1667276792078951 $503 4.1667276792078951 $378 $506 forward 7 unknown #
edge $-1 $507 -4.1667276792078951 $271 4.1667276792078951 $268 $508 forward 7 unknown #
vertex $-1 $383 $509 #
straight-curve $-1 -79.6691793572802 0 -10.093949586472112 0 -1 0 I I #
coedge $-1 $379 $378 $265 $388 reversed $160 $-1 #
edge $-1 $392 -10.093949586472112 $385 10.093949586472112 $387 $510 forward 7 unknown #
coedge $-1 $511 $266 $269 $395 forward $391 $-1 #
coedge $-1 $266 $511 $379 $501 forward $391 $-1 #
loop $-1 $-1 $266 $375 #
vertex $-1 $267 $512 #
straight-curve $-1 -79.6691793572802 0 10.093949586472112 0 1 0 I I #
coedge $-1 $269 $268 $377 $500 reversed $270 $-1 #
edge $-1 $272 -4.1667276792078951 $513 4.1667276792078951 $269 $514 forward 7 unknown #
point $-1 -79.6691793572802 -20.645746439956145 -10.093949586472112 #
point $-1 -79.6691793572802 -20.645746439956145 10.093949586472112 #
loop $-1 $-1 $282 $274 #
plane-surface $-1 0 40.833645612900369 0 0 -1 0 0 0 -1 forward_v I I I I #
coedge $-1 $401 $277 $279 $405 reversed $168 $-1 #
coedge $-1 $277 $400 $515 $516 reversed $168 $-1 #
coedge $-1 $285 $280 $277 $403 forward $275 $-1 #
edge $-1 $406 -2.7974455820408934 $517 6.6235665400731563 $402 $518 forward 7 unknown #
coedge $-1 $279 $278 $409 $519 reversed $105 $-1 #
edge $-1 $520 -81.667291225800767 $406 -70.02227974748665 $400 $521 forward 7 unknown #
vertex $-1 $281 $522 #
straight-curve $-1 31.87858851216825 31.412633490786323 10.093949586472114 1 0 0 I I #
coedge $-1 $515 $282 $285 $413 reversed $398 $-1 #
coedge $-1 $282 $515 $404 $519 forward $398 $-1 #
vertex $-1 $283 $523 #
straight-curve $-1 51.682360973779467 40.833645612900369 90.079726333164089 0 0 1 I I #
straight-curve $-1 51.682360973779467 -25.236580427776232 51.252013479763036 0 0.80901698891910034 -0.5877852598018023 I I #
edge $-1 $517 -75.831993074893532 $286 -51.682360973779467 $408 $524 forward 7 unknown #
point $-1 51.682360973779467 40.833645612900369 10.093949586472112 #
point $-1 51.682360973779467 31.41263349078632 10.093949586472114 #
edge $-1 $525 1 $525 0 $289 $-1 forward 7 unknown #
vertex $-1 $290 $526 #
ellipse-curve $-1 56.512287394002271 35.024318177235131 5.1591686935672705 0 0.5877852598018023 0.80901698891910034 1.5 0 0 1 I I #
point $-1 58.012287394002271 36.123139551843408 6.6715665378842353 #
edge $-1 $527 1 $527 0 $293 $-1 forward 7 unknown #
vertex $-1 $294 $528 #
ellipse-curve $-1 63.757177024336499 35.024318177235131 5.1591686935672705 0 0.5877852598018023 0.80901698891910034 1.5 0 0 1 I I #
point $-1 65.257177024336499 36.123139551843408 6.6715665378842353 #
edge $-1 $529 1 $529 0 $297 $-1 forward 7 unknown #
vertex $-1 $298 $530 #
ellipse-curve $-1 71.002066654670728 35.024318177235131 5.1591686935672705 0 0.5877852598018023 0.80901698891910034 1.5 0 0 1 I I #
point $-1 72.502066654670728 36.123139551843408 6.6715665378842353 #
loop $-1 $-1 $309 $301 #
plane-surface $-1 0 -40.833645612900369 0 0 1 0 0 0 1 forward_v I I I I #
coedge $-1 $431 $304 $306 $435 reversed $197 $-1 #
coedge $-1 $304 $430 $531 $532 reversed $197 $-1 #
coedge $-1 $312 $307 $304 $433 forward $302 $-1 #
edge $-1 $436 -51.136600192151171 $533 -48.578711031857097 $432 $534 forward 7 unknown #
coedge $-1 $306 $305 $439 $535 reversed $124 $-1 #
edge $-1 $536 0 $436 5.1157784576651517 $430 $537 forward 7 unknown #
vertex $-1 $308 $538 #
straight-curve $-1 -8.7178448659233609 -38.275756452606302 10.093949586472112 -1 0 0 I I #
coedge $-1 $531 $309 $312 $443 reversed $428 $-1 #
coedge $-1 $309 $531 $434 $535 forward $428 $-1 #
vertex $-1 $310 $539 #
straight-curve $-1 0.17974401891200387 -40.833645612900369 42.666366332489538 0 0 1 I I #
straight-curve $-1 0.17974401891200387 -40.833645612900369 5.6635554424301944 0 -0.49999998660252726 -0.86602541151947299 I I #
edge $-1 $533 -35.051123482605448 $313 0.17974401891200387 $438 $540 forward 7 unknown #
point $-1 0.17974401891200387 -40.833645612900369 10.093949586472112 #
point $-1 0.17974401891200387 -38.275756452606295 10.093949586472112 #
edge $-1 $541 1 $541 0 $316 $-1 forward 7 unknown #
vertex $-1 $317 $542 #
ellipse-curve $-1 -24.98516133931475 -37.911256130064714 6.9299091913845041 0 -0.86602541151947299 0.49999998660252726 0.5 0 0 1 I I #
point $-1 -24.48516133931475 -39.554701032753336 7.8787525144511577 #
edge $-1 $543 1 $543 0 $320 $-1 forward 7 unknown #
vertex $-1 $321 $544 #
ellipse-curve $-1 -9.8862181243787006 -37.911256130064714 6.9299091913845041 0 -0.86602541151947299 0.49999998660252726 0.5 0 0 1 I I #
point $-1 -9.3862181243787006 -39.554701032753336 7.8787525144511577 #
plane-surface $-1 0 0 10.093949586472112 0 0 1 1 0 0 forward_v I I I I #
coedge $-1 $465 $464 $457 $545 forward $325 $-1 #
coedge $-1 $457 $327 $329 $461 reversed $219 $-1 #
coedge $-1 $327 $456 $455 $545 reversed $219 $-1 #
coedge $-1 $335 $330 $327 $459 forward $336 $-1 #
edge $-1 $462 -51.136600192151171 $546 -48.578711031857097 $458 $547 forward 7 unknown #
coedge $-1 $329 $328 $465 $548 reversed $138 $-1 #
edge $-1 $549 0 $462 5.1157784576651517 $456 $550 forward 7 unknown #
vertex $-1 $331 $551 #
straight-curve $-1 12.884572545131263 -38.275756452606302 10.093949586472112 -1 0 0 I I #
coedge $-1 $455 $332 $335 $469 reversed $325 $-1 #
coedge $-1 $332 $455 $460 $548 forward $325 $-1 #
vertex $-1 $333 $552 #
straight-curve $-1 43.384578841021252 -40.833645612900369 42.666366332489538 0 0 1 I I #
straight-curve $-1 43.384578841021252 -40.833645612900369 5.6635554424301944 0 -0.49999998660252726 -0.86602541151947299 I I #
edge $-1 $546 8.1537113395038006 $337 43.384578841021252 $464 $553 forward 7 unknown #
point $-1 43.384578841021252 -40.833645612900369 10.093949586472112 #
point $-1 43.384578841021252 -38.275756452606295 10.093949586472112 #
edge $-1 $554 1 $554 0 $340 $-1 forward 7 unknown #
vertex $-1 $341 $555 #
ellipse-curve $-1 18.219673482794491 -37.911256130064714 6.9299091913845041 0 -0.86602541151947299 0.49999998660252726 0.5 0 0 1 I I #
point $-1 18.719673482794491 -39.554701032753336 7.8787525144511577 #
edge $-1 $556 1 $556 0 $344 $-1 forward 7 unknown #
vertex $-1 $345 $557 #
ellipse-curve $-1 33.318616697730548 -37.911256130064714 6.9299091913845041 0 -0.86602541151947299 0.49999998660252726 0.5 0 0 1 I I #
point $-1 33.818616697730548 -39.554701032753336 7.8787525144511577 #
plane-surface $-1 79.6691793572802 0 0 -1 0 0 0 0 1 forward_v I I I I #
coedge $-1 $368 $354 $359 $489 forward $349 $-1 #
vertex $-1 $352 $558 #
vertex $-1 $488 $559 #
straight-curve $-1 79.6691793572802 0 -10.093949586472112 0 -1 0 I I #
straight-curve $-1 0 40.833645612900369 10.093949586472112 -1 0 0 I I #
coedge $-1 $356 $365 $358 $488 reversed $241 $-1 #
straight-curve $-1 0 -40.833645612900369 10.093949586472112 1 0 0 I I #
edge $-1 $361 -10.093949586472112 $483 10.093949586472112 $358 $560 forward 7 unknown #
edge $-1 $362 -10.093949586472112 $482 10.093949586472112 $359 $561 forward 7 unknown #
point $-1 79.6691793572802 -40.833645612900369 10.093949586472112 #
point $-1 79.6691793572802 40.833645612900369 10.093949586472112 #
straight-curve $-1 -79.6691793572802 0 10.093949586472112 0 -1 0 I I #
point $-1 -79.6691793572802 -40.833645612900369 10.093949586472112 #
point $-1 -79.6691793572802 40.833645612900369 10.093949586472112 #
straight-curve $-1 0 40.833645612900369 -10.093949586472112 1 0 0 I I #
straight-curve $-1 0 -40.833645612900369 -10.093949586472112 -1 0 0 I I #
plane-surface $-1 0 0 10.093949586472112 0 0 1 1 0 0 forward_v I I I I #
coedge $-1 $380 $377 $382 $505 reversed $259 $-1 #
coedge $-1 $377 $380 $511 $562 reversed $259 $-1 #
edge $-1 $513 -10.093949586472112 $507 10.093949586472112 $394 $563 forward 7 unknown #
edge $-1 $502 -4.1667276792078951 $392 4.1667276792078951 $379 $564 forward 7 unknown #
vertex $-1 $562 $565 #
vertex $-1 $505 $566 #
straight-curve $-1 -88.00263471569599 -23.645746439956145 0 0 0 -1 I I #
edge $-1 $503 -1.5 $507 1.5 $498 $567 forward 7 unknown #
straight-curve $-1 -83.835907036488095 -23.645746439956145 -10.093949586472112 -1 0 0 I I #
vertex $-1 $384 $568 #
straight-curve $-1 -83.835907036488095 -20.645746439956145 -10.093949586472112 1 0 0 I I #
point $-1 -79.6691793572802 -23.645746439956145 -10.093949586472112 #
straight-curve $-1 -79.6691793572802 -23.645746439956145 0 0 0 -1 I I #
coedge $-1 $390 $389 $499 $562 forward $391 $-1 #
point $-1 -79.6691793572802 -23.645746439956145 10.093949586472112 #
vertex $-1 $395 $569 #
straight-curve $-1 -83.835907036488095 -20.645746439956145 10.093949586472112 -1 0 0 I I #
coedge $-1 $409 $408 $401 $516 forward $398 $-1 #
edge $-1 $517 79.985776746691982 $520 86.830542843867804 $515 $570 forward 7 unknown #
vertex $-1 $413 $571 #
straight-curve $-1 75.831993074893532 34.210079072827213 10.093949586472107 0 1 0 I I #
edge $-1 $520 -43.953404562725282 $410 -19.803772461611217 $409 $572 forward 7 unknown #
vertex $-1 $519 $573 #
straight-curve $-1 75.831993074893532 -25.236580427776232 51.252013479763036 0 -0.80901698891910034 0.5877852598018023 I I #
point $-1 75.831993074893532 31.41263349078632 10.093949586472114 #
point $-1 51.682360973779467 40.833645612900369 3.2491834892962856 #
straight-curve $-1 0 40.833645612900369 10.093949586472112 -1 0 0 I I #
vertex $-1 $416 $574 #
point $-1 58.012287394002271 35.024318177235131 5.1591686935672705 #
vertex $-1 $420 $575 #
point $-1 65.257177024336499 35.024318177235131 5.1591686935672705 #
vertex $-1 $424 $576 #
point $-1 72.502066654670728 35.024318177235131 5.1591686935672705 #
coedge $-1 $439 $438 $431 $532 forward $428 $-1 #
edge $-1 $533 32.572416746017424 $536 37.002810890059344 $531 $577 forward 7 unknown #
vertex $-1 $443 $578 #
straight-curve $-1 -35.051123482605448 -89.412356644757466 10.093949586472114 0 -1 0 I I #
edge $-1 $536 -26.333278616682087 $440 8.8975888848353648 $439 $579 forward 7 unknown #
vertex $-1 $535 $580 #
straight-curve $-1 -35.051123482605448 -40.833645612900369 5.6635554424301944 0 0.49999998660252726 0.86602541151947299 I I #
point $-1 -35.051123482605448 -38.275756452606295 10.093949586472112 #
point $-1 0.17974401891200387 -40.833645612900369 5.6635554424301944 #
straight-curve $-1 0 -40.833645612900369 10.093949586472112 1 0 0 I I #
vertex $-1 $446 $581 #
point $-1 -24.48516133931475 -37.911256130064714 6.9299091913845041 #
vertex $-1 $450 $582 #
point $-1 -9.3862181243787006 -37.911256130064714 6.9299091913845041 #
edge $-1 $546 32.572416746017424 $549 37.002810890059344 $455 $583 forward 7 unknown #
vertex $-1 $469 $584 #
straight-curve $-1 8.1537113395038006 -89.412356644757466 10.093949586472114 0 -1 0 I I #
edge $-1 $549 -4.7308612056274626 $466 30.500006295889989 $465 $585 forward 7 unknown #
vertex $-1 $548 $586 #
straight-curve $-1 8.1537113395038006 -40.833645612900369 5.6635554424301944 0 0.49999998660252726 0.86602541151947299 I I #
point $-1 8.1537113395038006 -38.275756452606295 10.093949586472112 #
point $-1 43.384578841021252 -40.833645612900369 5.6635554424301944 #
straight-curve $-1 0 -40.833645612900369 10.093949586472112 1 0 0 I I #
vertex $-1 $472 $587 #
point $-1 18.719673482794491 -37.911256130064714 6.9299091913845041 #
vertex $-1 $476 $588 #
point $-1 33.818616697730548 -37.911256130064714 6.9299091913845041 #
point $-1 79.6691793572802 40.833645612900369 -10.093949586472112 #
point $-1 79.6691793572802 -40.833645612900369 -10.093949586472112 #
straight-curve $-1 79.6691793572802 -40.833645612900369 0 0 0 -1 I I #
straight-curve $-1 79.6691793572802 40.833645612900369 0 0 0 -1 I I #
edge $-1 $513 -1.5 $502 1.5 $499 $589 forward 7 unknown #
straight-curve $-1 -88.00263471569599 -20.645746439956145 0 0 0 -1 I I #
straight-curve $-1 -83.835907036488095 -23.645746439956145 10.093949586472112 1 0 0 I I #
point $-1 -88.00263471569599 -23.645746439956145 10.093949586472112 #
point $-1 -88.00263471569599 -23.645746439956145 -10.093949586472112 #
straight-curve $-1 -88.00263471569599 -22.145746439956145 -10.093949586472112 0 1 0 I I #
point $-1 -88.00263471569599 -20.645746439956145 -10.093949586472112 #
point $-1 -88.00263471569599 -20.645746439956145 10.093949586472112 #
straight-curve $-1 75.831993074893532 40.833645612900369 90.079726333164089 0 0 -1 I I #
point $-1 75.831993074893532 40.833645612900369 10.093949586472112 #
straight-curve $-1 31.87858851216825 40.833645612900369 3.2491834892962821 -1 0 0 I I #
point $-1 75.831993074893532 40.833645612900369 3.2491834892962856 #
point $-1 56.512287394002271 34.14264028753243 3.9456432101886203 #
point $-1 63.757177024336499 34.14264028753243 3.9456432101886203 #
point $-1 71.002066654670728 34.14264028753243 3.9456432101886203 #
straight-curve $-1 -35.051123482605448 -40.833645612900369 42.666366332489538 0 0 -1 I I #
point $-1 -35.051123482605448 -40.833645612900369 10.093949586472112 #
straight-curve $-1 -8.7178448659233609 -40.833645612900369 5.663555442430189 1 0 0 I I #
point $-1 -35.051123482605448 -40.833645612900369 5.6635554424301944 #
point $-1 -24.98516133931475 -37.478243424304978 6.6799091980832399 #
point $-1 -9.8862181243787006 -37.478243424304978 6.6799091980832399 #
straight-curve $-1 8.1537113395038006 -40.833645612900369 42.666366332489538 0 0 -1 I I #
point $-1 8.1537113395038006 -40.833645612900369 10.093949586472112 #
straight-curve $-1 12.884572545131263 -40.833645612900369 5.663555442430189 1 0 0 I I #
point $-1 8.1537113395038006 -40.833645612900369 5.6635554424301944 #
point $-1 18.219673482794491 -37.478243424304978 6.6799091980832399 #
point $-1 33.318616697730548 -37.478243424304978 6.6799091980832399 #
straight-curve $-1 -88.00263471569599 -22.145746439956145 10.093949586472112 0 -1 0 I I #
End-of-ACIS-data 