500 0 6 0           
7 Unknown 11 ACIS 5.0 NT 24 Fri Mar 26 20:24:41 1999 
-1 9.9999999999999995e-007 1e-010 
body $-1 $6 $-1 $7 #
body $-1 $8 $-1 $9 #
body $-1 $10 $-1 $11 #
body $-1 $12 $-1 $13 #
body $-1 $14 $-1 $15 #
body $-1 $16 $-1 $17 #
lump $-1 $-1 $18 $0 #
transform $-1 1 0 0 0 1 0 0 0 1 47.037568285164951 30.852263598791268 8.4900924976439978 1 rotate no_reflect no_shear #
lump $-1 $-1 $19 $1 #
transform $-1 1 0 0 0 1 0 0 0 1 47.037568285164951 30.852263598791268 8.4900924976439978 1 rotate no_reflect no_shear #
lump $-1 $-1 $20 $2 #
transform $-1 1 0 0 0 1 0 0 0 1 47.037568285164951 30.852263598791268 8.4900924976439978 1 rotate no_reflect no_shear #
lump $-1 $-1 $21 $3 #
transform $-1 1 0 0 0 1 0 0 0 1 47.037568285164951 30.852263598791268 8.4900924976439978 1 rotate no_reflect no_shear #
lump $-1 $-1 $22 $4 #
transform $-1 1 0 0 0 1 0 0 0 1 47.037568285164951 30.852263598791268 8.4900924976439978 1 rotate no_reflect no_shear #
lump $-1 $-1 $23 $5 #
transform $-1 1 0 0 0 1 0 0 0 1 47.037568285164951 30.852263598791268 8.4900924976439978 1 rotate no_reflect no_shear #
shell $-1 $-1 $-1 $24 $-1 $6 #
shell $-1 $-1 $-1 $25 $-1 $8 #
shell $-1 $-1 $-1 $26 $-1 $10 #
shell $-1 $-1 $-1 $27 $-1 $12 #
shell $-1 $-1 $-1 $28 $-1 $14 #
shell $-1 $-1 $-1 $29 $-1 $16 #
face $-1 $30 $31 $18 $-1 $32 forward single #
face $-1 $33 $34 $19 $-1 $35 forward single #
face $-1 $36 $37 $20 $-1 $38 reversed single #
face $-1 $39 $40 $21 $-1 $41 forward single #
face $-1 $42 $43 $22 $-1 $44 forward single #
face $-1 $45 $46 $23 $-1 $47 forward single #
face $-1 $48 $49 $18 $-1 $50 reversed single #
loop $-1 $-1 $51 $24 #
plane-surface $-1 0 0 8.4900924976439978 0 0 1 1 0 0 forward_v I I I I #
face $-1 $52 $53 $19 $-1 $54 reversed single #
loop $-1 $-1 $55 $25 #
plane-surface $-1 -41.719521723546741 0 -4.4292439708159304 0 0 1 1 0 0 forward_v I I I I #
face $-1 $56 $57 $20 $-1 $58 reversed single #
loop $-1 $-1 $59 $26 #
plane-surface $-1 63.251351947708869 12.860197256454116 136.74539172578338 0 -1 0 -0.78801076186113728 0 -0.61566146476048833 forward_v I I I I #
face $-1 $60 $61 $21 $-1 $62 forward single #
loop $-1 $63 $64 $27 #
cone-surface $-1 44.392354695281625 -0.63943585649042589 5.6841032736277146 -0.78801076186113728 0 -0.61566146476048833 0.61566146476048833 0 -0.78801076186113728 1 I I 0 1 1 forward I I I I #
face $-1 $65 $66 $22 $-1 $67 forward single #
loop $-1 $68 $69 $28 #
cone-surface $-1 44.392354695281625 4.4229265608637789 5.6841032736277146 -0.78801076186113728 0 -0.61566146476048833 0.61566146476048833 0 -0.78801076186113728 1 I I 0 1 1 forward I I I I #
face $-1 $70 $71 $23 $-1 $72 forward single #
loop $-1 $73 $74 $29 #
cone-surface $-1 44.392354695281625 9.4852889782179801 5.6841032736277146 -0.78801076186113728 0 -0.61566146476048833 0.61566146476048833 0 -0.78801076186113728 1 I I 0 1 1 forward I I I I #
face $-1 $75 $76 $18 $-1 $77 reversed single #
loop $-1 $-1 $78 $30 #
plane-surface $-1 0 0 -8.4900924976439978 0 0 1 1 0 0 forward_v I I I I #
coedge $-1 $79 $80 $81 $82 forward $31 $-1 #
face $-1 $83 $84 $19 $-1 $85 reversed single #
loop $-1 $-1 $86 $33 #
plane-surface $-1 -36.401475161928531 0 -6.4596682342299641 -1 0 0 0 0 1 forward_v I I I I #
coedge $-1 $87 $88 $89 $90 forward $34 $-1 #
face $-1 $91 $92 $20 $-1 $93 reversed single #
loop $-1 $-1 $94 $36 #
plane-surface $-1 -10.880868093267338 4.4229265608637789 78.826955347351088 0.78801076186113728 0 0.61566146476048833 0.61566146476048833 0 -0.78801076186113728 forward_v I I I I #
coedge $-1 $95 $96 $97 $98 reversed $37 $-1 #
face $-1 $-1 $99 $21 $-1 $100 forward single #
loop $-1 $101 $102 $39 #
cone-surface $-1 42.835764693993013 -0.63943585649042589 4.4679619128657482 -0.78801076186113728 0 -0.61566146476048833 0.30783073238024417 0 -0.39400538093056864 1 I I -0.70710678118654746 0.70710678118654746 0.5 forward I I I I #
loop $-1 $-1 $103 $27 #
coedge $-1 $64 $64 $104 $105 reversed $40 $-1 #
face $-1 $-1 $106 $22 $-1 $107 forward single #
loop $-1 $108 $109 $42 #
cone-surface $-1 42.835764693993013 4.4229265608637789 4.4679619128657482 -0.78801076186113728 0 -0.61566146476048833 0.30783073238024417 0 -0.39400538093056864 1 I I -0.70710678118654746 0.70710678118654746 0.5 forward I I I I #
loop $-1 $-1 $110 $28 #
coedge $-1 $69 $69 $111 $112 reversed $43 $-1 #
face $-1 $-1 $113 $23 $-1 $114 forward single #
loop $-1 $115 $116 $45 #
cone-surface $-1 42.835764693993013 9.4852889782179801 4.4679619128657482 -0.78801076186113728 0 -0.61566146476048833 0.30783073238024417 0 -0.39400538093056864 1 I I -0.70710678118654746 0.70710678118654746 0.5 forward I I I I #
loop $-1 $-1 $117 $29 #
coedge $-1 $74 $74 $118 $119 reversed $46 $-1 #
face $-1 $120 $121 $18 $-1 $122 reversed single #
loop $-1 $-1 $123 $48 #
plane-surface $-1 0 -30.852263598791268 0 0 1 0 0 0 1 forward_v I I I I #
coedge $-1 $124 $125 $126 $127 forward $49 $-1 #
coedge $-1 $128 $51 $129 $130 forward $31 $-1 #
coedge $-1 $51 $128 $131 $132 forward $31 $-1 #
coedge $-1 $133 $134 $51 $82 reversed $135 $-1 #
edge $-1 $136 -30.852263598791268 $137 30.852263598791268 $81 $138 forward 7 unknown #
face $-1 $139 $140 $19 $-1 $141 reversed single #
loop $-1 $-1 $142 $52 #
plane-surface $-1 0 0 -8.4900924976439978 0 0 1 1 0 0 forward_v I I I I #
coedge $-1 $143 $89 $144 $145 reversed $53 $-1 #
coedge $-1 $146 $55 $147 $148 reversed $34 $-1 #
coedge $-1 $55 $146 $149 $150 reversed $34 $-1 #
coedge $-1 $86 $151 $55 $90 reversed $53 $-1 #
edge $-1 $152 -30.852263598791268 $153 30.852263598791268 $89 $154 forward 7 unknown #
face $-1 $155 $156 $20 $-1 $157 forward single #
loop $-1 $-1 $158 $56 #
plane-surface $-1 63.251351947708869 -4.0143441347265583 136.74539172578338 0 1 0 0.78801076186113728 0 0.61566146476048833 forward_v I I I I #
coedge $-1 $159 $160 $161 $162 reversed $57 $-1 #
coedge $-1 $96 $59 $163 $164 reversed $37 $-1 #
coedge $-1 $59 $95 $159 $165 reversed $37 $-1 #
coedge $-1 $161 $166 $59 $98 forward $156 $-1 #
edge $-1 $167 -15.411892311310517 $168 -12.446634372259986 $97 $169 forward 7 unknown #
loop $-1 $-1 $104 $60 #
plane-surface $-1 -10.880868093267338 4.4229265608637789 78.826955347351088 0.78801076186113728 0 0.61566146476048833 0.61566146476048833 0 -0.78801076186113728 forward_v I I I I #
loop $-1 $-1 $170 $39 #
coedge $-1 $102 $102 $103 $171 reversed $61 $-1 #
coedge $-1 $103 $103 $102 $171 forward $63 $-1 #
coedge $-1 $104 $104 $64 $105 forward $99 $-1 #
edge $-1 $172 0 $172 6.2831853071796004 $104 $173 forward 7 unknown #
loop $-1 $-1 $111 $65 #
plane-surface $-1 -10.880868093267338 4.4229265608637789 78.826955347351088 0.78801076186113728 0 0.61566146476048833 0.61566146476048833 0 -0.78801076186113728 forward_v I I I I #
loop $-1 $-1 $174 $42 #
coedge $-1 $109 $109 $110 $175 reversed $66 $-1 #
coedge $-1 $110 $110 $109 $175 forward $68 $-1 #
coedge $-1 $111 $111 $69 $112 forward $106 $-1 #
edge $-1 $176 0 $176 6.2831853071796004 $111 $177 forward 7 unknown #
loop $-1 $-1 $118 $70 #
plane-surface $-1 -10.880868093267338 4.4229265608637789 78.826955347351088 0.78801076186113728 0 0.61566146476048833 0.61566146476048833 0 -0.78801076186113728 forward_v I I I I #
loop $-1 $-1 $178 $45 #
coedge $-1 $116 $116 $117 $179 reversed $71 $-1 #
coedge $-1 $117 $117 $116 $179 forward $73 $-1 #
coedge $-1 $118 $118 $74 $119 forward $113 $-1 #
edge $-1 $180 0 $180 6.2831853071796004 $118 $181 forward 7 unknown #
face $-1 $182 $183 $18 $-1 $184 reversed single #
loop $-1 $-1 $185 $75 #
plane-surface $-1 -47.037568285164951 0 0 1 0 0 0 0 -1 forward_v I I I I #
coedge $-1 $186 $131 $187 $188 forward $76 $-1 #
coedge $-1 $189 $78 $186 $190 forward $49 $-1 #
coedge $-1 $78 $189 $191 $192 forward $49 $-1 #
coedge $-1 $134 $133 $78 $127 reversed $135 $-1 #
edge $-1 $193 -30.852263598791268 $194 30.852263598791268 $126 $195 forward 7 unknown #
coedge $-1 $80 $79 $196 $197 forward $31 $-1 #
coedge $-1 $198 $199 $79 $130 reversed $183 $-1 #
edge $-1 $137 -47.037568285164951 $200 47.037568285164951 $129 $201 forward 7 unknown #
coedge $-1 $123 $202 $80 $132 reversed $76 $-1 #
edge $-1 $203 -47.037568285164951 $136 47.037568285164951 $131 $204 forward 7 unknown #
coedge $-1 $126 $81 $202 $205 forward $135 $-1 #
coedge $-1 $81 $126 $198 $206 reversed $135 $-1 #
loop $-1 $-1 $133 $182 #
vertex $-1 $82 $207 #
vertex $-1 $82 $208 #
straight-curve $-1 47.037568285164951 0 8.4900924976439978 0 1 0 I I #
face $-1 $209 $210 $19 $-1 $211 reversed single #
loop $-1 $-1 $144 $83 #
plane-surface $-1 0 -30.852263598791268 0 0 1 0 0 0 1 forward_v I I I I #
coedge $-1 $212 $213 $143 $214 forward $84 $-1 #
coedge $-1 $151 $86 $142 $214 reversed $53 $-1 #
coedge $-1 $149 $215 $86 $145 forward $140 $-1 #
edge $-1 $216 -5.2602583805290157 $152 -1.1994098537009483 $144 $217 forward 7 unknown #
coedge $-1 $88 $87 $218 $219 reversed $34 $-1 #
coedge $-1 $220 $221 $87 $148 forward $222 $-1 #
edge $-1 $223 -26.177807423391581 $153 -15.54171430015516 $147 $224 forward 7 unknown #
coedge $-1 $225 $144 $88 $150 forward $140 $-1 #
edge $-1 $152 15.54171430015516 $226 26.177807423391581 $149 $227 forward 7 unknown #
coedge $-1 $89 $143 $220 $228 reversed $53 $-1 #
vertex $-1 $150 $229 #
vertex $-1 $148 $230 #
straight-curve $-1 -36.401475161928531 0 -4.4292439708159304 0 1 0 I I #
face $-1 $-1 $231 $20 $-1 $232 reversed single #
loop $-1 $-1 $97 $91 #
plane-surface $-1 0 0 8.4900924976439978 0 0 1 1 0 0 forward_v I I I I #
coedge $-1 $233 $234 $235 $236 reversed $92 $-1 #
coedge $-1 $237 $94 $96 $165 forward $57 $-1 #
coedge $-1 $94 $237 $233 $238 forward $57 $-1 #
coedge $-1 $235 $97 $94 $162 forward $156 $-1 #
edge $-1 $168 -10.648733976022227 $239 6.2258074151584477 $161 $240 forward 7 unknown #
coedge $-1 $241 $242 $95 $164 forward $231 $-1 #
edge $-1 $243 -63.677960556516808 $167 -59.882603365247689 $163 $244 forward 7 unknown #
edge $-1 $168 89.258759212354278 $243 94.075136570329903 $96 $245 forward 7 unknown #
coedge $-1 $97 $235 $241 $246 forward $156 $-1 #
vertex $-1 $164 $247 #
vertex $-1 $98 $248 #
straight-curve $-1 31.625675973854435 12.860197256454116 8.4900924976439995 -1 0 0 I I #
coedge $-1 $170 $170 $-1 $249 reversed $101 $-1 #
edge $-1 $250 0 $250 6.2831853071796004 $102 $251 forward 7 unknown #
vertex $-1 $105 $252 #
ellipse-curve $-1 45.554939315639679 -0.63943585649042589 6.5924139020094463 0.78801076186113728 0 0.61566146476048833 0.61566146476048833 0 -0.78801076186113728 1 I I #
coedge $-1 $174 $174 $-1 $253 reversed $108 $-1 #
edge $-1 $254 0 $254 6.2831853071796004 $109 $255 forward 7 unknown #
vertex $-1 $112 $256 #
ellipse-curve $-1 45.554939315639679 4.4229265608637789 6.5924139020094463 0.78801076186113728 0 0.61566146476048833 0.61566146476048833 0 -0.78801076186113728 1 I I #
coedge $-1 $178 $178 $-1 $257 reversed $115 $-1 #
edge $-1 $258 0 $258 6.2831853071796004 $116 $259 forward 7 unknown #
vertex $-1 $119 $260 #
ellipse-curve $-1 45.554939315639679 9.4852889782179801 6.5924139020094463 0.78801076186113728 0 0.61566146476048833 0.61566146476048833 0 -0.78801076186113728 1 I I #
face $-1 $-1 $135 $18 $-1 $261 reversed single #
loop $-1 $-1 $198 $120 #
plane-surface $-1 0 30.852263598791268 0 0 -1 0 0 0 -1 forward_v I I I I #
coedge $-1 $262 $196 $199 $263 forward $121 $-1 #
coedge $-1 $202 $123 $124 $190 reversed $76 $-1 #
coedge $-1 $196 $262 $123 $188 reversed $121 $-1 #
edge $-1 $203 -8.4900924976439978 $264 8.4900924976439978 $187 $265 forward 7 unknown #
coedge $-1 $125 $124 $262 $266 forward $49 $-1 #
edge $-1 $194 -47.037568285164951 $264 47.037568285164951 $186 $267 forward 7 unknown #
coedge $-1 $199 $198 $125 $192 reversed $183 $-1 #
edge $-1 $268 -47.037568285164951 $193 47.037568285164951 $191 $269 forward 7 unknown #
vertex $-1 $127 $270 #
vertex $-1 $205 $271 #
straight-curve $-1 47.037568285164951 0 -8.4900924976439978 0 -1 0 I I #
coedge $-1 $185 $187 $128 $197 reversed $121 $-1 #
edge $-1 $200 -30.852263598791268 $203 30.852263598791268 $196 $272 forward 7 unknown #
coedge $-1 $191 $129 $134 $206 forward $183 $-1 #
coedge $-1 $129 $191 $185 $263 reversed $183 $-1 #
vertex $-1 $130 $273 #
straight-curve $-1 0 30.852263598791268 8.4900924976439978 -1 0 0 I I #
coedge $-1 $131 $186 $133 $205 reversed $76 $-1 #
vertex $-1 $197 $274 #
straight-curve $-1 0 -30.852263598791268 8.4900924976439978 1 0 0 I I #
edge $-1 $136 -8.4900924976439978 $194 8.4900924976439978 $133 $275 forward 7 unknown #
edge $-1 $137 -8.4900924976439978 $193 8.4900924976439978 $134 $276 forward 7 unknown #
point $-1 47.037568285164951 -30.852263598791268 8.4900924976439978 #
point $-1 47.037568285164951 30.852263598791268 8.4900924976439978 #
face $-1 $-1 $222 $19 $-1 $277 reversed single #
loop $-1 $-1 $218 $139 #
plane-surface $-1 -47.037568285164951 0 0 1 0 0 0 0 -1 forward_v I I I I #
coedge $-1 $278 $142 $215 $279 forward $84 $-1 #
coedge $-1 $142 $278 $280 $281 forward $84 $-1 #
edge $-1 $282 -30.852263598791268 $216 30.852263598791268 $142 $283 forward 7 unknown #
coedge $-1 $144 $225 $212 $279 reversed $140 $-1 #
vertex $-1 $279 $284 #
straight-curve $-1 -36.401475161928531 -30.852263598791268 -3.229834117114982 0 0 1 I I #
coedge $-1 $285 $286 $146 $219 forward $210 $-1 #
edge $-1 $226 -30.852263598791268 $223 30.852263598791268 $218 $287 forward 7 unknown #
coedge $-1 $280 $147 $151 $228 forward $222 $-1 #
coedge $-1 $147 $280 $285 $288 reversed $222 $-1 #
loop $-1 $-1 $220 $209 #
vertex $-1 $288 $289 #
straight-curve $-1 -20.859760861773371 30.852263598791268 -4.4292439708159304 1 0 0 I I #
coedge $-1 $215 $149 $286 $290 forward $140 $-1 #
vertex $-1 $290 $291 #
straight-curve $-1 -20.859760861773371 -30.852263598791268 -4.4292439708159304 -1 0 0 I I #
edge $-1 $153 1.1994098537009483 $282 5.2602583805290157 $220 $292 forward 7 unknown #
point $-1 -36.401475161928531 -30.852263598791268 -4.4292439708159304 #
point $-1 -36.401475161928531 30.852263598791268 -4.4292439708159304 #
loop $-1 $-1 $163 $155 #
plane-surface $-1 47.037568285164951 0 0 -1 0 0 0 0 1 forward_v I I I I #
coedge $-1 $234 $158 $160 $238 reversed $92 $-1 #
coedge $-1 $158 $233 $293 $294 reversed $92 $-1 #
coedge $-1 $166 $161 $158 $236 forward $156 $-1 #
edge $-1 $239 12.446634372259986 $295 15.411892311310517 $235 $296 forward 7 unknown #
coedge $-1 $160 $159 $242 $297 reversed $57 $-1 #
edge $-1 $298 -94.075136570329903 $239 -89.258759212354278 $233 $299 forward 7 unknown #
vertex $-1 $162 $300 #
straight-curve $-1 44.072310346114413 2.2114632804318894 8.4900924976439995 0 -1 0 I I #
coedge $-1 $293 $163 $166 $246 reversed $231 $-1 #
coedge $-1 $163 $293 $237 $297 forward $231 $-1 #
vertex $-1 $164 $301 #
straight-curve $-1 47.037568285164951 12.860197256454116 68.372695862891689 0 0 1 I I #
straight-curve $-1 -10.880868093267338 12.860197256454116 78.826955347351088 0.61566146476048833 0 -0.78801076186113728 I I #
edge $-1 $295 -4.0143441347265583 $167 12.860197256454116 $241 $302 forward 7 unknown #
point $-1 47.037568285164951 12.860197256454116 8.4900924976439978 #
point $-1 44.072310346114421 12.860197256454116 8.4900924976439995 #
edge $-1 $303 1 $303 0 $170 $-1 forward 7 unknown #
vertex $-1 $171 $304 #
ellipse-curve $-1 43.229770074923579 -0.63943585649042589 4.7757926452459927 0.78801076186113728 0 0.61566146476048833 0.61566146476048833 0 -0.78801076186113728 1 I I #
point $-1 46.170600780400157 -0.63943585649042589 5.8044031401482998 #
edge $-1 $305 1 $305 0 $174 $-1 forward 7 unknown #
vertex $-1 $175 $306 #
ellipse-curve $-1 43.229770074923579 4.4229265608637789 4.7757926452459927 0.78801076186113728 0 0.61566146476048833 0.61566146476048833 0 -0.78801076186113728 1 I I #
point $-1 46.170600780400157 4.4229265608637789 5.8044031401482998 #
edge $-1 $307 1 $307 0 $178 $-1 forward 7 unknown #
vertex $-1 $179 $308 #
ellipse-curve $-1 43.229770074923579 9.4852889782179801 4.7757926452459927 0.78801076186113728 0 0.61566146476048833 0.61566146476048833 0 -0.78801076186113728 1 I I #
point $-1 46.170600780400157 9.4852889782179801 5.8044031401482998 #
plane-surface $-1 47.037568285164951 0 0 -1 0 0 0 0 1 forward_v I I I I #
coedge $-1 $187 $185 $189 $266 reversed $121 $-1 #
edge $-1 $200 -8.4900924976439978 $268 8.4900924976439978 $199 $309 forward 7 unknown #
vertex $-1 $266 $310 #
straight-curve $-1 -47.037568285164951 -30.852263598791268 0 0 0 -1 I I #
edge $-1 $264 -30.852263598791268 $268 30.852263598791268 $262 $311 forward 7 unknown #
straight-curve $-1 0 -30.852263598791268 -8.4900924976439978 -1 0 0 I I #
vertex $-1 $192 $312 #
straight-curve $-1 0 30.852263598791268 -8.4900924976439978 1 0 0 I I #
point $-1 47.037568285164951 30.852263598791268 -8.4900924976439978 #
point $-1 47.037568285164951 -30.852263598791268 -8.4900924976439978 #
straight-curve $-1 -47.037568285164951 0 8.4900924976439978 0 -1 0 I I #
point $-1 -47.037568285164951 30.852263598791268 8.4900924976439978 #
point $-1 -47.037568285164951 -30.852263598791268 8.4900924976439978 #
straight-curve $-1 47.037568285164951 -30.852263598791268 0 0 0 -1 I I #
straight-curve $-1 47.037568285164951 30.852263598791268 0 0 0 -1 I I #
plane-surface $-1 0 30.852263598791268 0 0 -1 0 0 0 -1 forward_v I I I I #
coedge $-1 $213 $212 $313 $314 forward $84 $-1 #
edge $-1 $216 36.401475161928531 $315 47.037568285164951 $215 $316 forward 7 unknown #
coedge $-1 $221 $220 $213 $281 reversed $222 $-1 #
edge $-1 $317 -47.037568285164951 $282 -36.401475161928531 $280 $318 forward 7 unknown #
vertex $-1 $228 $319 #
straight-curve $-1 -36.401475161928531 0 -8.4900924976439978 0 -1 0 I I #
point $-1 -36.401475161928531 -30.852263598791268 -8.4900924976439978 #
coedge $-1 $313 $218 $221 $288 forward $210 $-1 #
coedge $-1 $218 $313 $225 $290 reversed $210 $-1 #
straight-curve $-1 -47.037568285164951 0 -4.4292439708159304 0 1 0 I I #
edge $-1 $223 4.4292439708159304 $317 8.4900924976439978 $221 $320 forward 7 unknown #
point $-1 -47.037568285164951 30.852263598791268 -4.4292439708159304 #
edge $-1 $226 4.4292439708159304 $315 8.4900924976439978 $286 $321 forward 7 unknown #
point $-1 -47.037568285164951 -30.852263598791268 -4.4292439708159304 #
straight-curve $-1 -36.401475161928531 30.852263598791268 -3.229834117114982 0 0 -1 I I #
coedge $-1 $242 $241 $234 $294 forward $231 $-1 #
edge $-1 $295 59.882603365247689 $298 63.677960556516808 $293 $322 forward 7 unknown #
vertex $-1 $246 $323 #
straight-curve $-1 31.625675973854435 -4.0143441347265583 8.4900924976439995 1 0 0 I I #
edge $-1 $298 -6.2258074151584477 $243 10.648733976022227 $242 $324 forward 7 unknown #
vertex $-1 $297 $325 #
straight-curve $-1 -10.880868093267338 -4.0143441347265583 78.826955347351088 -0.61566146476048833 0 0.78801076186113728 I I #
point $-1 44.072310346114421 -4.0143441347265583 8.4900924976439995 #
point $-1 47.037568285164951 12.860197256454116 4.6947353063748807 #
straight-curve $-1 47.037568285164951 0 8.4900924976439978 0 1 0 I I #
vertex $-1 $249 $326 #
point $-1 43.845431539684071 -0.63943585649042589 3.9877818833848551 #
vertex $-1 $253 $327 #
point $-1 43.845431539684071 4.4229265608637789 3.9877818833848551 #
vertex $-1 $257 $328 #
point $-1 43.845431539684071 9.4852889782179801 3.9877818833848551 #
straight-curve $-1 -47.037568285164951 30.852263598791268 0 0 0 -1 I I #
point $-1 -47.037568285164951 -30.852263598791268 -8.4900924976439978 #
straight-curve $-1 -47.037568285164951 0 -8.4900924976439978 0 1 0 I I #
point $-1 -47.037568285164951 30.852263598791268 -8.4900924976439978 #
coedge $-1 $286 $285 $278 $314 reversed $210 $-1 #
edge $-1 $315 -30.852263598791268 $317 30.852263598791268 $313 $329 forward 7 unknown #
vertex $-1 $314 $330 #
straight-curve $-1 0 -30.852263598791268 -8.4900924976439978 -1 0 0 I I #
vertex $-1 $281 $331 #
straight-curve $-1 0 30.852263598791268 -8.4900924976439978 1 0 0 I I #
point $-1 -36.401475161928531 30.852263598791268 -8.4900924976439978 #
straight-curve $-1 -47.037568285164951 30.852263598791268 0 0 0 -1 I I #
straight-curve $-1 -47.037568285164951 -30.852263598791268 0 0 0 -1 I I #
straight-curve $-1 47.037568285164951 -4.0143441347265583 68.372695862891689 0 0 -1 I I #
point $-1 47.037568285164951 -4.0143441347265583 8.4900924976439978 #
straight-curve $-1 47.037568285164951 2.2114632804318894 4.6947353063748878 0 1 0 I I #
point $-1 47.037568285164951 -4.0143441347265583 4.6947353063748807 #
point $-1 42.441759313062448 -0.63943585649042589 4.1601311804855037 #
point $-1 42.441759313062448 4.4229265608637789 4.1601311804855037 #
point $-1 42.441759313062448 9.4852889782179801 4.1601311804855037 #
straight-curve $-1 -47.037568285164951 0 -8.4900924976439978 0 1 0 I I #
point $-1 -47.037568285164951 -30.852263598791268 -8.4900924976439978 #
point $-1 -47.037568285164951 30.852263598791268 -8.4900924976439978 #
End-of-ACIS-data 