500 0 10 0           
7 Unknown 11 ACIS 5.0 NT 24 Fri Mar 26 18:09:18 1999 
-1 9.9999999999999995e-007 1e-010 
body $-1 $10 $-1 $11 #
body $-1 $12 $-1 $13 #
body $-1 $14 $-1 $15 #
body $-1 $16 $-1 $17 #
body $-1 $18 $-1 $19 #
body $-1 $20 $-1 $21 #
body $-1 $22 $-1 $23 #
body $-1 $24 $-1 $25 #
body $-1 $26 $-1 $27 #
body $-1 $28 $-1 $29 #
lump $-1 $-1 $30 $0 #
transform $-1 1 0 0 0 1 0 0 0 1 56.072267830439159 35.973216731807703 13.280459247454189 1 rotate no_reflect no_shear #
lump $-1 $-1 $31 $1 #
transform $-1 1 0 0 0 1 0 0 0 1 56.072267830439159 35.973216731807703 13.280459247454189 1 rotate no_reflect no_shear #
lump $-1 $-1 $32 $2 #
transform $-1 1 0 0 0 1 0 0 0 1 56.072267830439159 35.973216731807703 13.280459247454189 1 rotate no_reflect no_shear #
lump $-1 $-1 $33 $3 #
transform $-1 1 0 0 0 1 0 0 0 1 56.072267830439159 35.973216731807703 13.280459247454189 1 rotate no_reflect no_shear #
lump $-1 $-1 $34 $4 #
transform $-1 1 0 0 0 1 0 0 0 1 56.072267830439159 35.973216731807703 13.280459247454189 1 rotate no_reflect no_shear #
lump $-1 $-1 $35 $5 #
transform $-1 1 0 0 0 1 0 0 0 1 56.072267830439159 35.973216731807703 13.280459247454189 1 rotate no_reflect no_shear #
lump $-1 $-1 $36 $6 #
transform $-1 1 0 0 0 1 0 0 0 1 56.072267830439159 35.973216731807703 13.280459247454189 1 rotate no_reflect no_shear #
lump $-1 $-1 $37 $7 #
transform $-1 1 0 0 0 1 0 0 0 1 56.072267830439159 35.973216731807703 13.280459247454189 1 rotate no_reflect no_shear #
lump $-1 $-1 $38 $8 #
transform $-1 1 0 0 0 1 0 0 0 1 56.072267830439159 35.973216731807703 13.280459247454189 1 rotate no_reflect no_shear #
lump $-1 $-1 $39 $9 #
transform $-1 1 0 0 0 1 0 0 0 1 56.072267830439159 35.973216731807703 13.280459247454189 1 rotate no_reflect no_shear #
shell $-1 $-1 $-1 $40 $-1 $10 #
shell $-1 $-1 $-1 $41 $-1 $12 #
shell $-1 $-1 $-1 $42 $-1 $14 #
shell $-1 $-1 $-1 $43 $-1 $16 #
shell $-1 $-1 $-1 $44 $-1 $18 #
shell $-1 $-1 $-1 $45 $-1 $20 #
shell $-1 $-1 $-1 $46 $-1 $22 #
shell $-1 $-1 $-1 $47 $-1 $24 #
shell $-1 $-1 $-1 $48 $-1 $26 #
shell $-1 $-1 $-1 $49 $-1 $28 #
face $-1 $50 $51 $30 $-1 $52 forward single #
face $-1 $53 $54 $31 $-1 $55 reversed single #
face $-1 $56 $57 $32 $-1 $58 reversed single #
face $-1 $59 $60 $33 $-1 $61 forward single #
face $-1 $62 $63 $34 $-1 $64 forward single #
face $-1 $65 $66 $35 $-1 $67 forward single #
face $-1 $68 $69 $36 $-1 $70 reversed single #
face $-1 $71 $72 $37 $-1 $73 forward single #
face $-1 $74 $75 $38 $-1 $76 forward single #
face $-1 $77 $78 $39 $-1 $79 forward single #
face $-1 $80 $81 $30 $-1 $82 reversed single #
loop $-1 $-1 $83 $40 #
plane-surface $-1 0 0 13.280459247454189 0 0 1 1 0 0 forward_v I I I I #
face $-1 $84 $85 $31 $-1 $86 reversed single #
loop $-1 $-1 $87 $41 #
plane-surface $-1 0 -28.632807348641784 10.280459247454189 0 0 1 1 0 0 forward_v I I I I #
face $-1 $88 $89 $32 $-1 $90 reversed single #
loop $-1 $-1 $91 $42 #
plane-surface $-1 83.612232567148112 31.192921865624069 157.00199604562903 0 -1 0 -0.81915205242281985 0 -0.57357642473473569 forward_v I I I I #
face $-1 $92 $93 $33 $-1 $94 forward single #
loop $-1 $95 $96 $43 #
cone-surface $-1 51.292794277102608 23.942651119049671 6.7569822960019694 -0.81915205242281985 0 -0.57357642473473569 0.28678821236736785 0 -0.40957602621140993 1 I I 0 1 0.5 forward I I I I #
face $-1 $97 $98 $34 $-1 $99 forward single #
loop $-1 $100 $101 $44 #
cone-surface $-1 51.292794277102608 26.66150264901507 6.7569822960019694 -0.81915205242281985 0 -0.57357642473473569 0.28678821236736785 0 -0.40957602621140993 1 I I 0 1 0.5 forward I I I I #
face $-1 $102 $103 $35 $-1 $104 forward single #
loop $-1 $105 $106 $45 #
cone-surface $-1 51.292794277102608 29.380354178980475 6.7569822960019694 -0.81915205242281985 0 -0.57357642473473569 0.28678821236736785 0 -0.40957602621140993 1 I I 0 1 0.5 forward I I I I #
face $-1 $107 $108 $36 $-1 $109 reversed single #
loop $-1 $-1 $110 $46 #
plane-surface $-1 -56.072267830439159 -15.037812267083691 4.2763347130588727 -0.52991927123019833 0 0.84804809178421925 0.84804809178421925 0 0.52991927123019833 forward_v I I I I #
face $-1 $111 $112 $37 $-1 $113 forward single #
loop $-1 $114 $115 $47 #
cone-surface $-1 -48.529824104736747 -18.790563686118997 8.2380629845832996 0.52991927123019833 0 -0.84804809178421925 0.84804809178421925 0 0.52991927123019833 1 I I 0 1 1 forward I I I I #
face $-1 $116 $117 $38 $-1 $118 forward single #
loop $-1 $119 $120 $48 #
cone-surface $-1 -48.529824104736747 -15.037812267083691 8.2380629845832996 0.52991927123019833 0 -0.84804809178421925 0.84804809178421925 0 0.52991927123019833 1 I I 0 1 1 forward I I I I #
face $-1 $121 $122 $39 $-1 $123 forward single #
loop $-1 $124 $125 $49 #
cone-surface $-1 -48.529824104736747 -11.285060848048385 8.2380629845832996 0.52991927123019833 0 -0.84804809178421925 0.84804809178421925 0 0.52991927123019833 1 I I 0 1 1 forward I I I I #
face $-1 $126 $127 $30 $-1 $128 reversed single #
loop $-1 $-1 $129 $50 #
plane-surface $-1 0 0 -13.280459247454189 0 0 1 1 0 0 forward_v I I I I #
coedge $-1 $130 $131 $132 $133 forward $51 $-1 #
face $-1 $134 $135 $31 $-1 $136 reversed single #
loop $-1 $-1 $137 $53 #
plane-surface $-1 0 -21.292397965475864 11.780459247454189 0 -1 0 0 0 -1 forward_v I I I I #
coedge $-1 $138 $139 $140 $141 reversed $54 $-1 #
face $-1 $142 $143 $32 $-1 $144 reversed single #
loop $-1 $-1 $145 $56 #
plane-surface $-1 -8.2511939874644753 26.66150264901507 92.678534227725379 0.81915205242281985 0 0.57357642473473569 0.57357642473473569 0 -0.81915205242281985 forward_v I I I I #
coedge $-1 $146 $147 $148 $149 reversed $57 $-1 #
face $-1 $-1 $150 $33 $-1 $151 forward single #
loop $-1 $152 $153 $59 #
cone-surface $-1 50.672699148335198 23.942651119049671 6.3227870255367833 -0.81915205242281985 0 -0.57357642473473569 0.14339410618368392 0 -0.20478801310570496 1 I I -0.70710678118654746 0.70710678118654746 0.25 forward I I I I #
loop $-1 $-1 $154 $43 #
coedge $-1 $96 $96 $155 $156 reversed $60 $-1 #
face $-1 $-1 $157 $34 $-1 $158 forward single #
loop $-1 $159 $160 $62 #
cone-surface $-1 50.672699148335198 26.66150264901507 6.3227870255367833 -0.81915205242281985 0 -0.57357642473473569 0.14339410618368392 0 -0.20478801310570496 1 I I -0.70710678118654746 0.70710678118654746 0.25 forward I I I I #
loop $-1 $-1 $161 $44 #
coedge $-1 $101 $101 $162 $163 reversed $63 $-1 #
face $-1 $-1 $164 $35 $-1 $165 forward single #
loop $-1 $166 $167 $65 #
cone-surface $-1 50.672699148335198 29.380354178980475 6.3227870255367833 -0.81915205242281985 0 -0.57357642473473569 0.14339410618368392 0 -0.20478801310570496 1 I I -0.70710678118654746 0.70710678118654746 0.25 forward I I I I #
loop $-1 $-1 $168 $45 #
coedge $-1 $106 $106 $169 $170 reversed $66 $-1 #
face $-1 $171 $172 $36 $-1 $173 forward single #
loop $-1 $-1 $174 $68 #
plane-surface $-1 -115.49981844030079 -8.7832265686915179 99.380294184294058 0 -1 0 0.52991927123019833 0 -0.84804809178421925 forward_v I I I I #
coedge $-1 $175 $176 $177 $178 reversed $69 $-1 #
face $-1 $-1 $179 $37 $-1 $180 forward single #
loop $-1 $181 $182 $71 #
cone-surface $-1 -47.92722630923187 -18.790563686118997 7.2737049430179503 0.52991927123019833 0 -0.84804809178421925 0.42402404589210962 0 0.26495963561509916 1 I I -0.70710678118654746 0.70710678118654746 0.5 forward I I I I #
loop $-1 $-1 $183 $47 #
coedge $-1 $115 $115 $184 $185 reversed $72 $-1 #
face $-1 $-1 $186 $38 $-1 $187 forward single #
loop $-1 $188 $189 $74 #
cone-surface $-1 -47.92722630923187 -15.037812267083691 7.2737049430179503 0.52991927123019833 0 -0.84804809178421925 0.42402404589210962 0 0.26495963561509916 1 I I -0.70710678118654746 0.70710678118654746 0.5 forward I I I I #
loop $-1 $-1 $190 $48 #
coedge $-1 $120 $120 $191 $192 reversed $75 $-1 #
face $-1 $-1 $193 $39 $-1 $194 forward single #
loop $-1 $195 $196 $77 #
cone-surface $-1 -47.92722630923187 -11.285060848048385 7.2737049430179503 0.52991927123019833 0 -0.84804809178421925 0.42402404589210962 0 0.26495963561509916 1 I I -0.70710678118654746 0.70710678118654746 0.5 forward I I I I #
loop $-1 $-1 $197 $49 #
coedge $-1 $125 $125 $198 $199 reversed $78 $-1 #
face $-1 $200 $201 $30 $-1 $202 reversed single #
loop $-1 $-1 $203 $80 #
plane-surface $-1 0 -35.973216731807703 0 0 1 0 0 0 1 forward_v I I I I #
coedge $-1 $204 $205 $206 $207 forward $81 $-1 #
coedge $-1 $208 $83 $209 $210 forward $51 $-1 #
coedge $-1 $83 $208 $211 $212 forward $51 $-1 #
coedge $-1 $213 $214 $83 $133 reversed $215 $-1 #
edge $-1 $216 -35.973216731807703 $217 35.973216731807703 $132 $218 forward 7 unknown #
face $-1 $219 $220 $31 $-1 $221 reversed single #
loop $-1 $-1 $222 $84 #
plane-surface $-1 -56.072267830439159 0 0 1 0 0 0 0 -1 forward_v I I I I #
coedge $-1 $223 $224 $225 $226 reversed $85 $-1 #
coedge $-1 $227 $87 $228 $229 reversed $54 $-1 #
coedge $-1 $87 $227 $223 $230 forward $54 $-1 #
coedge $-1 $225 $231 $87 $141 forward $232 $-1 #
edge $-1 $233 -21.656813057486811 $234 -6.9759942911549722 $140 $235 forward 7 unknown #
face $-1 $236 $237 $32 $-1 $238 reversed single #
loop $-1 $-1 $239 $88 #
plane-surface $-1 83.612232567148112 22.130083432406071 157.00199604562903 0 1 0 0.81915205242281985 0 0.57357642473473569 forward_v I I I I #
coedge $-1 $240 $241 $242 $243 reversed $89 $-1 #
coedge $-1 $147 $91 $244 $245 reversed $57 $-1 #
coedge $-1 $91 $146 $240 $246 reversed $57 $-1 #
coedge $-1 $242 $247 $91 $149 forward $248 $-1 #
edge $-1 $249 -14.266151546865103 $250 -5.5378186715154669 $148 $251 forward 7 unknown #
loop $-1 $-1 $155 $92 #
plane-surface $-1 -8.2511939874644753 26.66150264901507 92.678534227725379 0.81915205242281985 0 0.57357642473473569 0.57357642473473569 0 -0.81915205242281985 forward_v I I I I #
loop $-1 $-1 $252 $59 #
coedge $-1 $153 $153 $154 $253 reversed $93 $-1 #
coedge $-1 $154 $154 $153 $253 forward $95 $-1 #
coedge $-1 $155 $155 $96 $156 forward $150 $-1 #
edge $-1 $254 0 $254 6.2831853071796004 $155 $255 forward 7 unknown #
loop $-1 $-1 $162 $97 #
plane-surface $-1 -8.2511939874644753 26.66150264901507 92.678534227725379 0.81915205242281985 0 0.57357642473473569 0.57357642473473569 0 -0.81915205242281985 forward_v I I I I #
loop $-1 $-1 $256 $62 #
coedge $-1 $160 $160 $161 $257 reversed $98 $-1 #
coedge $-1 $161 $161 $160 $257 forward $100 $-1 #
coedge $-1 $162 $162 $101 $163 forward $157 $-1 #
edge $-1 $258 0 $258 6.2831853071796004 $162 $259 forward 7 unknown #
loop $-1 $-1 $169 $102 #
plane-surface $-1 -8.2511939874644753 26.66150264901507 92.678534227725379 0.81915205242281985 0 0.57357642473473569 0.57357642473473569 0 -0.81915205242281985 forward_v I I I I #
loop $-1 $-1 $260 $65 #
coedge $-1 $167 $167 $168 $261 reversed $103 $-1 #
coedge $-1 $168 $168 $167 $261 forward $105 $-1 #
coedge $-1 $169 $169 $106 $170 forward $164 $-1 #
edge $-1 $262 0 $262 6.2831853071796004 $169 $263 forward 7 unknown #
face $-1 $264 $265 $36 $-1 $266 reversed single #
loop $-1 $-1 $177 $107 #
plane-surface $-1 0 0 13.280459247454189 0 0 1 1 0 0 forward_v I I I I #
coedge $-1 $267 $268 $269 $270 reversed $108 $-1 #
coedge $-1 $271 $110 $272 $273 reversed $69 $-1 #
coedge $-1 $110 $271 $267 $274 forward $69 $-1 #
coedge $-1 $269 $275 $110 $178 forward $172 $-1 #
edge $-1 $276 -13.773491831934018 $277 -1.2643204351496724 $177 $278 forward 7 unknown #
loop $-1 $-1 $184 $111 #
plane-surface $-1 -56.072267830439159 -15.037812267083691 4.2763347130588727 -0.52991927123019833 0 0.84804809178421925 0.84804809178421925 0 0.52991927123019833 forward_v I I I I #
loop $-1 $-1 $279 $71 #
coedge $-1 $182 $182 $183 $280 reversed $112 $-1 #
coedge $-1 $183 $183 $182 $280 forward $114 $-1 #
coedge $-1 $184 $184 $115 $185 forward $179 $-1 #
edge $-1 $281 0 $281 6.2831853071796004 $184 $282 forward 7 unknown #
loop $-1 $-1 $191 $116 #
plane-surface $-1 -56.072267830439159 -15.037812267083691 4.2763347130588727 -0.52991927123019833 0 0.84804809178421925 0.84804809178421925 0 0.52991927123019833 forward_v I I I I #
loop $-1 $-1 $283 $74 #
coedge $-1 $189 $189 $190 $284 reversed $117 $-1 #
coedge $-1 $190 $190 $189 $284 forward $119 $-1 #
coedge $-1 $191 $191 $120 $192 forward $186 $-1 #
edge $-1 $285 0 $285 6.2831853071796004 $191 $286 forward 7 unknown #
loop $-1 $-1 $198 $121 #
plane-surface $-1 -56.072267830439159 -15.037812267083691 4.2763347130588727 -0.52991927123019833 0 0.84804809178421925 0.84804809178421925 0 0.52991927123019833 forward_v I I I I #
loop $-1 $-1 $287 $77 #
coedge $-1 $196 $196 $197 $288 reversed $122 $-1 #
coedge $-1 $197 $197 $196 $288 forward $124 $-1 #
coedge $-1 $198 $198 $125 $199 forward $193 $-1 #
edge $-1 $289 0 $289 6.2831853071796004 $198 $290 forward 7 unknown #
face $-1 $291 $292 $30 $-1 $293 reversed single #
loop $-1 $-1 $294 $126 #
plane-surface $-1 -56.072267830439159 0 0 1 0 0 0 0 -1 forward_v I I I I #
coedge $-1 $295 $211 $296 $297 forward $127 $-1 #
coedge $-1 $298 $129 $295 $299 forward $81 $-1 #
coedge $-1 $129 $298 $300 $301 forward $81 $-1 #
coedge $-1 $214 $213 $129 $207 reversed $215 $-1 #
edge $-1 $302 -35.973216731807703 $303 35.973216731807703 $206 $304 forward 7 unknown #
coedge $-1 $131 $130 $305 $306 forward $51 $-1 #
coedge $-1 $307 $308 $130 $210 reversed $292 $-1 #
edge $-1 $217 -56.072267830439159 $309 56.072267830439159 $209 $310 forward 7 unknown #
coedge $-1 $203 $311 $131 $212 reversed $127 $-1 #
edge $-1 $312 -56.072267830439159 $216 56.072267830439159 $211 $313 forward 7 unknown #
coedge $-1 $206 $132 $311 $314 forward $215 $-1 #
coedge $-1 $132 $206 $307 $315 reversed $215 $-1 #
loop $-1 $-1 $213 $291 #
vertex $-1 $133 $316 #
vertex $-1 $133 $317 #
straight-curve $-1 56.072267830439159 0 13.280459247454189 0 1 0 I I #
face $-1 $318 $319 $31 $-1 $320 forward single #
loop $-1 $-1 $228 $134 #
plane-surface $-1 0 -35.973216731807703 0 0 1 0 0 0 1 forward_v I I I I #
coedge $-1 $321 $322 $323 $324 forward $135 $-1 #
coedge $-1 $323 $137 $139 $230 reversed $85 $-1 #
coedge $-1 $137 $323 $325 $326 reversed $85 $-1 #
coedge $-1 $327 $140 $137 $226 forward $232 $-1 #
edge $-1 $234 4.3902296237270946 $328 7.3902296237270946 $225 $329 forward 7 unknown #
coedge $-1 $139 $138 $321 $330 reversed $54 $-1 #
coedge $-1 $331 $332 $138 $229 forward $220 $-1 #
edge $-1 $333 -56.072267830439159 $233 56.072267830439159 $228 $334 forward 7 unknown #
edge $-1 $335 -56.072267830439159 $234 56.072267830439159 $223 $336 forward 7 unknown #
coedge $-1 $140 $327 $331 $337 forward $232 $-1 #
loop $-1 $-1 $225 $318 #
vertex $-1 $229 $338 #
vertex $-1 $141 $339 #
straight-curve $-1 56.072267830439159 -14.316403674320892 10.280459247454189 0 1 0 I I #
face $-1 $-1 $248 $32 $-1 $340 forward single #
loop $-1 $-1 $341 $142 #
plane-surface $-1 56.072267830439159 0 0 -1 0 0 0 0 1 forward_v I I I I #
coedge $-1 $342 $343 $344 $345 reversed $143 $-1 #
coedge $-1 $346 $145 $147 $246 forward $89 $-1 #
coedge $-1 $145 $346 $342 $347 forward $89 $-1 #
coedge $-1 $344 $148 $145 $243 forward $248 $-1 #
edge $-1 $250 -17.862170541116534 $348 -8.799332107898536 $242 $349 forward 7 unknown #
coedge $-1 $350 $351 $146 $245 forward $237 $-1 #
edge $-1 $352 -77.685890349701694 $249 -65.220538775360325 $244 $353 forward 7 unknown #
edge $-1 $250 96.927151370046829 $352 112.1445356608783 $147 $354 forward 7 unknown #
coedge $-1 $148 $344 $350 $355 forward $248 $-1 #
loop $-1 $-1 $344 $236 #
vertex $-1 $245 $356 #
vertex $-1 $149 $357 #
straight-curve $-1 41.806116283574056 31.192921865624069 13.280459247454189 -1 0 0 I I #
coedge $-1 $252 $252 $-1 $358 reversed $152 $-1 #
edge $-1 $359 0 $359 6.2831853071796004 $153 $360 forward 7 unknown #
vertex $-1 $156 $361 #
ellipse-curve $-1 51.708101392764348 23.942651119049671 7.0477834602834957 0.81915205242281985 0 0.57357642473473569 0.28678821236736785 0 -0.40957602621140993 1 I I #
coedge $-1 $256 $256 $-1 $362 reversed $159 $-1 #
edge $-1 $363 0 $363 6.2831853071796004 $160 $364 forward 7 unknown #
vertex $-1 $163 $365 #
ellipse-curve $-1 51.708101392764348 26.66150264901507 7.0477834602834957 0.81915205242281985 0 0.57357642473473569 0.28678821236736785 0 -0.40957602621140993 1 I I #
coedge $-1 $260 $260 $-1 $366 reversed $166 $-1 #
edge $-1 $367 0 $367 6.2831853071796004 $167 $368 forward 7 unknown #
vertex $-1 $170 $369 #
ellipse-curve $-1 51.708101392764348 29.380354178980475 7.0477834602834957 0.81915205242281985 0 0.57357642473473569 0.28678821236736785 0 -0.40957602621140993 1 I I #
face $-1 $-1 $370 $36 $-1 $371 forward single #
loop $-1 $-1 $372 $171 #
plane-surface $-1 -56.072267830439159 0 0 1 0 0 0 0 -1 forward_v I I I I #
coedge $-1 $268 $174 $176 $274 reversed $108 $-1 #
coedge $-1 $174 $267 $372 $373 reversed $108 $-1 #
coedge $-1 $374 $177 $174 $270 forward $172 $-1 #
edge $-1 $277 -16.087252521336509 $375 -1.6776413897112334 $269 $376 forward 7 unknown #
coedge $-1 $176 $175 $377 $378 reversed $69 $-1 #
coedge $-1 $379 $380 $175 $273 forward $370 $-1 #
edge $-1 $381 -25.764279970052506 $276 -8.7727776351923321 $272 $382 forward 7 unknown #
edge $-1 $383 0 $277 16.991502334860176 $267 $384 forward 7 unknown #
coedge $-1 $177 $374 $379 $385 forward $172 $-1 #
vertex $-1 $273 $386 #
vertex $-1 $178 $387 #
straight-curve $-1 -41.662656698813883 -7.5189061335418454 13.280459247454189 0 1 0 I I #
coedge $-1 $279 $279 $-1 $388 reversed $181 $-1 #
edge $-1 $389 0 $389 6.2831853071796004 $182 $390 forward 7 unknown #
vertex $-1 $185 $391 #
ellipse-curve $-1 -48.867462264626525 -18.790563686118997 8.7783969802565309 -0.52991927123019833 0 0.84804809178421925 0.84804809178421925 0 0.52991927123019833 1 I I #
coedge $-1 $283 $283 $-1 $392 reversed $188 $-1 #
edge $-1 $393 0 $393 6.2831853071796004 $189 $394 forward 7 unknown #
vertex $-1 $192 $395 #
ellipse-curve $-1 -48.867462264626525 -15.037812267083691 8.7783969802565309 -0.52991927123019833 0 0.84804809178421925 0.84804809178421925 0 0.52991927123019833 1 I I #
coedge $-1 $287 $287 $-1 $396 reversed $195 $-1 #
edge $-1 $397 0 $397 6.2831853071796004 $196 $398 forward 7 unknown #
vertex $-1 $199 $399 #
ellipse-curve $-1 -48.867462264626525 -11.285060848048385 8.7783969802565309 -0.52991927123019833 0 0.84804809178421925 0.84804809178421925 0 0.52991927123019833 1 I I #
face $-1 $-1 $215 $30 $-1 $400 reversed single #
loop $-1 $-1 $307 $200 #
plane-surface $-1 0 35.973216731807703 0 0 -1 0 0 0 -1 forward_v I I I I #
coedge $-1 $401 $305 $308 $402 forward $201 $-1 #
coedge $-1 $311 $203 $204 $299 reversed $127 $-1 #
coedge $-1 $305 $401 $203 $297 reversed $201 $-1 #
edge $-1 $312 -13.280459247454189 $403 13.280459247454189 $296 $404 forward 7 unknown #
coedge $-1 $205 $204 $401 $405 forward $81 $-1 #
edge $-1 $303 -56.072267830439159 $403 56.072267830439159 $295 $406 forward 7 unknown #
coedge $-1 $308 $307 $205 $301 reversed $292 $-1 #
edge $-1 $407 -56.072267830439159 $302 56.072267830439159 $300 $408 forward 7 unknown #
vertex $-1 $207 $409 #
vertex $-1 $314 $410 #
straight-curve $-1 56.072267830439159 0 -13.280459247454189 0 -1 0 I I #
coedge $-1 $294 $296 $208 $306 reversed $201 $-1 #
edge $-1 $309 -35.973216731807703 $312 35.973216731807703 $305 $411 forward 7 unknown #
coedge $-1 $300 $209 $214 $315 forward $292 $-1 #
coedge $-1 $209 $300 $294 $402 reversed $292 $-1 #
vertex $-1 $210 $412 #
straight-curve $-1 0 35.973216731807703 13.280459247454189 -1 0 0 I I #
coedge $-1 $211 $295 $213 $314 reversed $127 $-1 #
vertex $-1 $306 $413 #
straight-curve $-1 0 -35.973216731807703 13.280459247454189 1 0 0 I I #
edge $-1 $216 -13.280459247454189 $303 13.280459247454189 $213 $414 forward 7 unknown #
edge $-1 $217 -13.280459247454189 $302 13.280459247454189 $214 $415 forward 7 unknown #
point $-1 56.072267830439159 -35.973216731807703 13.280459247454189 #
point $-1 56.072267830439159 35.973216731807703 13.280459247454189 #
face $-1 $-1 $232 $31 $-1 $416 reversed single #
loop $-1 $-1 $325 $219 #
plane-surface $-1 0 0 13.280459247454189 0 0 1 1 0 0 forward_v I I I I #
coedge $-1 $417 $222 $227 $330 forward $135 $-1 #
coedge $-1 $222 $417 $418 $419 reversed $135 $-1 #
coedge $-1 $224 $223 $222 $324 reversed $85 $-1 #
edge $-1 $420 -7.3902296237270946 $335 -4.3902296237270946 $222 $421 forward 7 unknown #
coedge $-1 $418 $422 $224 $326 forward $319 $-1 #
edge $-1 $328 -56.072267830439159 $420 56.072267830439159 $325 $423 forward 7 unknown #
coedge $-1 $231 $225 $422 $424 reversed $232 $-1 #
vertex $-1 $226 $425 #
straight-curve $-1 56.072267830439159 -21.292397965475864 5.8902296237270946 0 0 1 I I #
edge $-1 $335 6.9759942911549722 $333 21.656813057486811 $321 $426 forward 7 unknown #
coedge $-1 $427 $228 $231 $337 reversed $220 $-1 #
coedge $-1 $228 $427 $417 $428 forward $220 $-1 #
vertex $-1 $229 $429 #
straight-curve $-1 0 -35.973216731807703 10.280459247454189 1 0 0 I I #
vertex $-1 $330 $430 #
straight-curve $-1 0 -21.292397965475864 10.280459247454189 1 0 0 I I #
edge $-1 $431 -13.280459247454189 $233 -10.280459247454189 $231 $432 forward 7 unknown #
point $-1 56.072267830439159 -35.973216731807703 10.280459247454189 #
point $-1 56.072267830439159 -21.292397965475864 10.280459247454189 #
plane-surface $-1 0 0 13.280459247454189 0 0 1 1 0 0 forward_v I I I I #
coedge $-1 $351 $350 $343 $433 forward $237 $-1 #
coedge $-1 $343 $239 $241 $347 reversed $143 $-1 #
coedge $-1 $239 $342 $341 $433 reversed $143 $-1 #
coedge $-1 $247 $242 $239 $345 forward $248 $-1 #
edge $-1 $348 5.5378186715154669 $434 14.266151546865103 $344 $435 forward 7 unknown #
coedge $-1 $241 $240 $351 $436 reversed $89 $-1 #
edge $-1 $437 -112.1445356608783 $348 -96.927151370046829 $342 $438 forward 7 unknown #
vertex $-1 $243 $439 #
straight-curve $-1 47.343934955089516 13.330751324507535 13.280459247454196 0 -1 0 I I #
coedge $-1 $341 $244 $247 $355 reversed $237 $-1 #
coedge $-1 $244 $341 $346 $436 forward $237 $-1 #
vertex $-1 $245 $440 #
straight-curve $-1 56.072267830439159 31.192921865624069 78.500998022814514 0 0 1 I I #
straight-curve $-1 -8.2511939874644753 31.192921865624069 92.678534227725379 0.57357642473473569 0 -0.81915205242281985 I I #
edge $-1 $434 22.130083432406071 $249 31.192921865624069 $350 $441 forward 7 unknown #
point $-1 56.072267830439159 31.192921865624069 13.280459247454189 #
point $-1 47.343934955089523 31.192921865624069 13.280459247454189 #
edge $-1 $442 1 $442 0 $252 $-1 forward 7 unknown #
vertex $-1 $253 $443 #
ellipse-curve $-1 50.877487161440904 23.942651119049671 6.4661811317204672 0.81915205242281985 0 0.57357642473473569 0.28678821236736785 0 -0.40957602621140993 1 I I #
point $-1 51.994889605131689 23.942651119049671 6.6382074340720614 #
edge $-1 $444 1 $444 0 $256 $-1 forward 7 unknown #
vertex $-1 $257 $445 #
ellipse-curve $-1 50.877487161440904 26.66150264901507 6.4661811317204672 0.81915205242281985 0 0.57357642473473569 0.28678821236736785 0 -0.40957602621140993 1 I I #
point $-1 51.994889605131689 26.66150264901507 6.6382074340720614 #
edge $-1 $446 1 $446 0 $260 $-1 forward 7 unknown #
vertex $-1 $261 $447 #
ellipse-curve $-1 50.877487161440904 29.380354178980475 6.4661811317204672 0.81915205242281985 0 0.57357642473473569 0.28678821236736785 0 -0.40957602621140993 1 I I #
point $-1 51.994889605131689 29.380354178980475 6.6382074340720614 #
loop $-1 $-1 $272 $264 #
plane-surface $-1 0 -21.292397965475864 11.780459247454189 0 -1 0 0 0 -1 forward_v I I I I #
coedge $-1 $377 $448 $268 $373 forward $265 $-1 #
edge $-1 $375 36.40968784469284 $383 45.413812379088156 $372 $449 forward 7 unknown #
coedge $-1 $275 $269 $448 $450 forward $172 $-1 #
vertex $-1 $450 $451 #
straight-curve $-1 -57.749909220150393 -8.7832265686915179 13.280459247454189 -1 0 0 I I #
coedge $-1 $452 $372 $271 $378 forward $265 $-1 #
edge $-1 $383 1.2643204351496724 $381 13.773491831934018 $377 $453 forward 7 unknown #
coedge $-1 $380 $272 $275 $385 reversed $370 $-1 #
coedge $-1 $272 $379 $452 $454 reversed $370 $-1 #
vertex $-1 $454 $455 #
straight-curve $-1 -34.222919365641751 -21.292397965475864 17.929323178559891 0.84804809178421925 0 0.52991927123019833 I I #
vertex $-1 $378 $456 #
straight-curve $-1 -56.072267830439159 -8.7832265686915179 4.2763347130588727 0.84804809178421925 0 0.52991927123019833 I I #
edge $-1 $457 -56.072267830439159 $276 -41.662656698813883 $275 $458 forward 7 unknown #
point $-1 -41.662656698813883 -21.292397965475864 13.280459247454189 #
point $-1 -41.662656698813883 -8.7832265686915179 13.280459247454189 #
edge $-1 $459 1 $459 0 $279 $-1 forward 7 unknown #
vertex $-1 $280 $460 #
ellipse-curve $-1 -48.192185944846969 -18.790563686118997 7.6977289889100602 -0.52991927123019833 0 0.84804809178421925 0.84804809178421925 0 0.52991927123019833 1 I I #
point $-1 -48.019414172842311 -18.790563686118997 9.3083162514867368 #
edge $-1 $461 1 $461 0 $283 $-1 forward 7 unknown #
vertex $-1 $284 $462 #
ellipse-curve $-1 -48.192185944846969 -15.037812267083691 7.6977289889100602 -0.52991927123019833 0 0.84804809178421925 0.84804809178421925 0 0.52991927123019833 1 I I #
point $-1 -48.019414172842311 -15.037812267083691 9.3083162514867368 #
edge $-1 $463 1 $463 0 $287 $-1 forward 7 unknown #
vertex $-1 $288 $464 #
ellipse-curve $-1 -48.192185944846969 -11.285060848048385 7.6977289889100602 -0.52991927123019833 0 0.84804809178421925 0.84804809178421925 0 0.52991927123019833 1 I I #
point $-1 -48.019414172842311 -11.285060848048385 9.3083162514867368 #
plane-surface $-1 56.072267830439159 0 0 -1 0 0 0 0 1 forward_v I I I I #
coedge $-1 $296 $294 $298 $405 reversed $201 $-1 #
edge $-1 $309 -13.280459247454189 $407 13.280459247454189 $308 $465 forward 7 unknown #
vertex $-1 $405 $466 #
straight-curve $-1 -56.072267830439159 -35.973216731807703 0 0 0 -1 I I #
edge $-1 $403 -35.973216731807703 $407 35.973216731807703 $401 $467 forward 7 unknown #
straight-curve $-1 0 -35.973216731807703 -13.280459247454189 -1 0 0 I I #
vertex $-1 $301 $468 #
straight-curve $-1 0 35.973216731807703 -13.280459247454189 1 0 0 I I #
point $-1 56.072267830439159 35.973216731807703 -13.280459247454189 #
point $-1 56.072267830439159 -35.973216731807703 -13.280459247454189 #
straight-curve $-1 -56.072267830439159 0 13.280459247454189 0 -1 0 I I #
point $-1 -56.072267830439159 35.973216731807703 13.280459247454189 #
point $-1 -56.072267830439159 -35.973216731807703 13.280459247454189 #
straight-curve $-1 56.072267830439159 -35.973216731807703 0 0 0 -1 I I #
straight-curve $-1 56.072267830439159 35.973216731807703 0 0 0 -1 I I #
plane-surface $-1 56.072267830439159 0 0 -1 0 0 0 0 1 forward_v I I I I #
coedge $-1 $322 $321 $332 $428 reversed $135 $-1 #
coedge $-1 $469 $325 $322 $419 forward $319 $-1 #
edge $-1 $420 21.292397965475864 $470 35.973216731807703 $322 $471 forward 7 unknown #
vertex $-1 $419 $472 #
straight-curve $-1 -56.072267830439159 -21.292397965475864 5.8902296237270946 0 0 -1 I I #
coedge $-1 $325 $469 $327 $424 forward $319 $-1 #
straight-curve $-1 0 -21.292397965475864 13.280459247454189 -1 0 0 I I #
edge $-1 $431 -35.973216731807703 $328 -21.292397965475864 $327 $473 forward 7 unknown #
point $-1 56.072267830439159 -21.292397965475864 13.280459247454189 #
straight-curve $-1 -56.072267830439159 -14.316403674320892 10.280459247454189 0 -1 0 I I #
coedge $-1 $332 $331 $469 $474 reversed $220 $-1 #
edge $-1 $470 -13.280459247454189 $333 -10.280459247454189 $417 $475 forward 7 unknown #
point $-1 -56.072267830439159 -35.973216731807703 10.280459247454189 #
point $-1 -56.072267830439159 -21.292397965475864 10.280459247454189 #
vertex $-1 $424 $476 #
straight-curve $-1 56.072267830439159 -35.973216731807703 0 0 0 -1 I I #
edge $-1 $434 65.220538775360325 $437 77.685890349701694 $341 $477 forward 7 unknown #
vertex $-1 $355 $478 #
straight-curve $-1 41.806116283574056 22.130083432406071 13.280459247454189 1 0 0 I I #
edge $-1 $437 8.799332107898536 $352 17.862170541116534 $351 $479 forward 7 unknown #
vertex $-1 $436 $480 #
straight-curve $-1 -8.2511939874644753 22.130083432406071 92.678534227725379 -0.57357642473473569 0 0.81915205242281985 I I #
point $-1 47.343934955089523 22.130083432406071 13.280459247454189 #
point $-1 56.072267830439159 31.192921865624069 0.81510767311281995 #
straight-curve $-1 56.072267830439159 0 13.280459247454189 0 1 0 I I #
vertex $-1 $358 $481 #
point $-1 51.164275373808273 23.942651119049671 6.0566051055090568 #
vertex $-1 $362 $482 #
point $-1 51.164275373808273 26.66150264901507 6.0566051055090568 #
vertex $-1 $366 $483 #
point $-1 51.164275373808273 29.380354178980475 6.0566051055090568 #
coedge $-1 $372 $452 $374 $450 reversed $265 $-1 #
straight-curve $-1 -56.072267830439159 -8.7832265686915179 49.690147092147029 0 0 -1 I I #
edge $-1 $375 8.7832265686915179 $457 21.292397965475864 $448 $484 forward 7 unknown #
point $-1 -56.072267830439159 -8.7832265686915179 13.280459247454189 #
coedge $-1 $448 $377 $380 $454 forward $265 $-1 #
straight-curve $-1 -56.072267830439159 -7.5189061335418454 4.2763347130588727 0 -1 0 I I #
edge $-1 $381 -45.413812379088156 $457 -36.40968784469284 $452 $485 forward 7 unknown #
point $-1 -56.072267830439159 -21.292397965475864 4.2763347130588727 #
point $-1 -56.072267830439159 -8.7832265686915179 4.2763347130588727 #
vertex $-1 $454 $486 #
straight-curve $-1 0 -21.292397965475864 13.280459247454189 1 0 0 I I #
vertex $-1 $388 $487 #
point $-1 -47.344137853062747 -18.790563686118997 8.2276482601402581 #
vertex $-1 $392 $488 #
point $-1 -47.344137853062747 -15.037812267083691 8.2276482601402581 #
vertex $-1 $396 $489 #
point $-1 -47.344137853062747 -11.285060848048385 8.2276482601402581 #
straight-curve $-1 -56.072267830439159 35.973216731807703 0 0 0 -1 I I #
point $-1 -56.072267830439159 -35.973216731807703 -13.280459247454189 #
straight-curve $-1 -56.072267830439159 0 -13.280459247454189 0 1 0 I I #
point $-1 -56.072267830439159 35.973216731807703 -13.280459247454189 #
coedge $-1 $422 $418 $427 $474 forward $319 $-1 #
vertex $-1 $419 $490 #
straight-curve $-1 -56.072267830439159 0 13.280459247454189 0 -1 0 I I #
point $-1 -56.072267830439159 -21.292397965475864 13.280459247454189 #
straight-curve $-1 56.072267830439159 0 13.280459247454189 0 1 0 I I #
edge $-1 $470 -56.072267830439159 $431 56.072267830439159 $427 $491 forward 7 unknown #
straight-curve $-1 -56.072267830439159 -35.973216731807703 0 0 0 -1 I I #
point $-1 56.072267830439159 -35.973216731807703 13.280459247454189 #
straight-curve $-1 56.072267830439159 22.130083432406071 78.500998022814514 0 0 -1 I I #
point $-1 56.072267830439159 22.130083432406071 13.280459247454189 #
straight-curve $-1 56.072267830439159 13.330751324507535 0.81510767311281995 0 1 0 I I #
point $-1 56.072267830439159 22.130083432406071 0.81510767311281995 #
point $-1 50.467911135229492 23.942651119049671 6.1793929193530994 #
point $-1 50.467911135229492 26.66150264901507 6.1793929193530994 #
point $-1 50.467911135229492 29.380354178980475 6.1793929193530994 #
straight-curve $-1 -56.072267830439159 0 13.280459247454189 0 -1 0 I I #
straight-curve $-1 -56.072267830439159 -21.292397965475864 49.690147092147029 0 0 1 I I #
point $-1 -56.072267830439159 -21.292397965475864 13.280459247454189 #
point $-1 -47.66226667361677 -18.790563686118997 6.8496808971258405 #
point $-1 -47.66226667361677 -15.037812267083691 6.8496808971258405 #
point $-1 -47.66226667361677 -11.285060848048385 6.8496808971258405 #
point $-1 -56.072267830439159 -35.973216731807703 13.280459247454189 #
straight-curve $-1 0 -35.973216731807703 13.280459247454189 1 0 0 I I #
End-of-ACIS-data 