500 0 6 0           
7 Unknown 11 ACIS 5.0 NT 24 Thu Mar 25 21:55:14 1999 
-1 9.9999999999999995e-007 1e-010 
body $-1 $6 $-1 $7 #
body $-1 $8 $-1 $9 #
body $-1 $10 $-1 $11 #
body $-1 $12 $-1 $13 #
body $-1 $14 $-1 $15 #
body $-1 $16 $-1 $17 #
lump $-1 $-1 $18 $0 #
transform $-1 1 0 0 0 1 0 0 0 1 43.798944059572129 26.446718582606234 6.1903255565970348 1 rotate no_reflect no_shear #
lump $-1 $-1 $19 $1 #
transform $-1 1 0 0 0 1 0 0 0 1 43.798944059572129 26.446718582606234 6.1903255565970348 1 rotate no_reflect no_shear #
lump $-1 $-1 $20 $2 #
transform $-1 1 0 0 0 1 0 0 0 1 43.798944059572129 26.446718582606234 6.1903255565970348 1 rotate no_reflect no_shear #
lump $-1 $-1 $21 $3 #
transform $-1 1 0 0 0 1 0 0 0 1 43.798944059572129 26.446718582606234 6.1903255565970348 1 rotate no_reflect no_shear #
lump $-1 $-1 $22 $4 #
transform $-1 1 0 0 0 1 0 0 0 1 43.798944059572129 26.446718582606234 6.1903255565970348 1 rotate no_reflect no_shear #
lump $-1 $-1 $23 $5 #
transform $-1 1 0 0 0 1 0 0 0 1 43.798944059572129 26.446718582606234 6.1903255565970348 1 rotate no_reflect no_shear #
shell $-1 $-1 $-1 $24 $-1 $6 #
shell $-1 $-1 $-1 $25 $-1 $8 #
shell $-1 $-1 $-1 $26 $-1 $10 #
shell $-1 $-1 $-1 $27 $-1 $12 #
shell $-1 $-1 $-1 $28 $-1 $14 #
shell $-1 $-1 $-1 $29 $-1 $16 #
face $-1 $30 $31 $18 $-1 $32 forward single #
face $-1 $33 $34 $19 $-1 $35 reversed single #
face $-1 $36 $37 $20 $-1 $38 reversed single #
face $-1 $39 $40 $21 $-1 $41 forward single #
face $-1 $42 $43 $22 $-1 $44 reversed single #
face $-1 $45 $46 $23 $-1 $47 forward single #
face $-1 $48 $49 $18 $-1 $50 reversed single #
loop $-1 $-1 $51 $24 #
plane-surface $-1 0 0 6.1903255565970348 0 0 1 1 0 0 forward_v I I I I #
face $-1 $52 $53 $19 $-1 $54 reversed single #
loop $-1 $-1 $55 $25 #
plane-surface $-1 -37.499562148053762 -23.72854468483353 0 1 0 0 0 0 -1 forward_v I I I I #
face $-1 $56 $57 $20 $-1 $58 reversed single #
loop $-1 $-1 $59 $26 #
plane-surface $-1 45.960986661856559 12.543682214275965 126.13864977023673 0 1 0 0.71933980857756763 0 0.69465836192734942 forward_v I I I I #
face $-1 $60 $61 $21 $-1 $62 forward single #
loop $-1 $63 $64 $27 #
cone-surface $-1 41.023479307476272 19.495200398441096 3.3780688010270161 -0.71933980857756763 0 -0.69465836192734942 0.69465836192734942 0 -0.71933980857756763 1 I I 0 1 1 forward I I I I #
face $-1 $65 $66 $22 $-1 $67 reversed single #
loop $-1 $-1 $68 $28 #
plane-surface $-1 -108.8968620634773 19.132730062431214 59.277962715941527 0 1 0 -0.74314483375859142 0 0.66913059716165679 forward_v I I I I #
face $-1 $69 $70 $23 $-1 $71 forward single #
loop $-1 $72 $73 $29 #
cone-surface $-1 -39.987912128544117 22.789724322518719 2.2358221265104157 0.74314483375859142 0 -0.66913059716165679 0.66913059716165679 0 0.74314483375859142 1 I I 0 1 1 forward I I I I #
face $-1 $74 $75 $18 $-1 $76 reversed single #
loop $-1 $-1 $77 $30 #
plane-surface $-1 0 0 -6.1903255565970348 0 0 1 1 0 0 forward_v I I I I #
coedge $-1 $78 $79 $80 $81 forward $31 $-1 #
face $-1 $82 $83 $19 $-1 $84 reversed single #
loop $-1 $-1 $85 $33 #
plane-surface $-1 -35.999562148053762 -21.010370787060829 0 0 -1 0 0 0 -1 forward_v I I I I #
coedge $-1 $86 $87 $88 $89 forward $34 $-1 #
face $-1 $90 $91 $20 $-1 $92 reversed single #
loop $-1 $-1 $93 $36 #
plane-surface $-1 -17.051661409567856 19.495200398441096 65.288044301096761 0.71933980857756763 0 0.69465836192734942 0.69465836192734942 0 -0.71933980857756763 forward_v I I I I #
coedge $-1 $94 $95 $96 $97 reversed $37 $-1 #
face $-1 $-1 $98 $21 $-1 $99 forward single #
loop $-1 $100 $101 $39 #
cone-surface $-1 39.778646258811996 19.495200398441096 2.1759475279556817 -0.71933980857756763 0 -0.69465836192734942 0.34732918096367471 0 -0.35966990428878381 1 I I -0.70710678118654746 0.70710678118654746 0.5 forward I I I I #
loop $-1 $-1 $102 $27 #
coedge $-1 $64 $64 $103 $104 reversed $40 $-1 #
face $-1 $105 $106 $22 $-1 $107 forward single #
loop $-1 $-1 $108 $42 #
plane-surface $-1 -43.79894405957215 22.789724322518726 0.66353552867852983 -0.74314483375859142 0 0.66913059716165679 0.66913059716165679 0 0.74314483375859142 forward_v I I I I #
coedge $-1 $109 $110 $111 $112 reversed $43 $-1 #
face $-1 $-1 $113 $23 $-1 $114 forward single #
loop $-1 $115 $116 $45 #
cone-surface $-1 -38.293479765271464 22.789724322518719 0.71014841180222987 0.74314483375859142 0 -0.66913059716165679 0.3345652985808284 0 0.37157241687929571 1 I I -0.70710678118654746 0.70710678118654746 0.5 forward I I I I #
loop $-1 $-1 $117 $29 #
coedge $-1 $73 $73 $118 $119 reversed $46 $-1 #
face $-1 $120 $121 $18 $-1 $122 reversed single #
loop $-1 $-1 $123 $48 #
plane-surface $-1 0 -26.446718582606234 0 0 1 0 0 0 1 forward_v I I I I #
coedge $-1 $124 $125 $126 $127 forward $49 $-1 #
coedge $-1 $128 $51 $129 $130 forward $31 $-1 #
coedge $-1 $51 $128 $131 $132 forward $31 $-1 #
coedge $-1 $133 $134 $51 $81 reversed $135 $-1 #
edge $-1 $136 -26.446718582606234 $137 26.446718582606234 $80 $138 forward 7 unknown #
face $-1 $139 $140 $19 $-1 $141 forward single #
loop $-1 $-1 $142 $52 #
plane-surface $-1 -34.499562148053762 -23.72854468483353 0 -1 0 0 0 0 1 forward_v I I I I #
coedge $-1 $143 $144 $145 $146 forward $53 $-1 #
coedge $-1 $147 $55 $148 $149 reversed $34 $-1 #
coedge $-1 $55 $147 $150 $151 reversed $34 $-1 #
coedge $-1 $144 $143 $55 $89 reversed $53 $-1 #
edge $-1 $152 -6.1903255565970348 $153 6.1903255565970348 $88 $154 forward 7 unknown #
face $-1 $155 $156 $20 $-1 $157 reversed single #
loop $-1 $-1 $96 $56 #
plane-surface $-1 43.798944059572129 0 0 -1 0 0 0 0 1 forward_v I I I I #
coedge $-1 $158 $159 $160 $161 reversed $57 $-1 #
coedge $-1 $95 $59 $162 $163 reversed $37 $-1 #
coedge $-1 $59 $94 $158 $164 reversed $37 $-1 #
coedge $-1 $160 $165 $59 $97 forward $91 $-1 #
edge $-1 $166 56.878999328521331 $167 60.793928655446031 $96 $168 forward 7 unknown #
loop $-1 $-1 $103 $60 #
plane-surface $-1 -17.051661409567856 19.495200398441096 65.288044301096761 0.71933980857756763 0 0.69465836192734942 0.69465836192734942 0 -0.71933980857756763 forward_v I I I I #
loop $-1 $-1 $169 $39 #
coedge $-1 $101 $101 $102 $170 reversed $61 $-1 #
coedge $-1 $102 $102 $101 $170 forward $63 $-1 #
coedge $-1 $103 $103 $64 $104 forward $98 $-1 #
edge $-1 $171 0 $171 6.2831853071796004 $103 $172 forward 7 unknown #
face $-1 $173 $174 $22 $-1 $175 reversed single #
loop $-1 $-1 $111 $65 #
plane-surface $-1 0 0 6.1903255565970348 0 0 1 1 0 0 forward_v I I I I #
coedge $-1 $176 $177 $178 $179 reversed $66 $-1 #
coedge $-1 $110 $68 $180 $181 reversed $43 $-1 #
coedge $-1 $68 $109 $176 $182 reversed $43 $-1 #
coedge $-1 $178 $183 $68 $112 forward $106 $-1 #
edge $-1 $184 10.649486972166521 $185 15.625830941435794 $111 $186 forward 7 unknown #
loop $-1 $-1 $118 $69 #
plane-surface $-1 -43.79894405957215 22.789724322518726 0.66353552867852983 -0.74314483375859142 0 0.66913059716165679 0.66913059716165679 0 0.74314483375859142 forward_v I I I I #
loop $-1 $-1 $187 $45 #
coedge $-1 $116 $116 $117 $188 reversed $70 $-1 #
coedge $-1 $117 $117 $116 $188 forward $72 $-1 #
coedge $-1 $118 $118 $73 $119 forward $113 $-1 #
edge $-1 $189 0 $189 6.2831853071796004 $118 $190 forward 7 unknown #
face $-1 $191 $192 $18 $-1 $193 reversed single #
loop $-1 $-1 $194 $74 #
plane-surface $-1 -43.798944059572129 0 0 1 0 0 0 0 -1 forward_v I I I I #
coedge $-1 $195 $131 $196 $197 forward $75 $-1 #
coedge $-1 $198 $77 $195 $199 forward $49 $-1 #
coedge $-1 $77 $198 $200 $201 forward $49 $-1 #
coedge $-1 $134 $133 $77 $127 reversed $135 $-1 #
edge $-1 $202 -26.446718582606234 $203 26.446718582606234 $126 $204 forward 7 unknown #
coedge $-1 $79 $78 $205 $206 forward $31 $-1 #
coedge $-1 $207 $208 $78 $130 reversed $192 $-1 #
edge $-1 $137 -43.798944059572129 $209 43.798944059572129 $129 $210 forward 7 unknown #
coedge $-1 $123 $211 $79 $132 reversed $75 $-1 #
edge $-1 $212 -43.798944059572129 $136 43.798944059572129 $131 $213 forward 7 unknown #
coedge $-1 $126 $80 $211 $214 forward $135 $-1 #
coedge $-1 $80 $126 $207 $215 reversed $135 $-1 #
loop $-1 $-1 $133 $191 #
vertex $-1 $81 $216 #
vertex $-1 $81 $217 #
straight-curve $-1 43.798944059572129 0 6.1903255565970348 0 1 0 I I #
face $-1 $218 $219 $19 $-1 $220 reversed single #
loop $-1 $-1 $221 $82 #
plane-surface $-1 0 0 6.1903255565970348 0 0 1 1 0 0 forward_v I I I I #
coedge $-1 $222 $223 $224 $225 reversed $83 $-1 #
coedge $-1 $88 $85 $226 $227 reversed $53 $-1 #
coedge $-1 $85 $88 $228 $229 reversed $53 $-1 #
coedge $-1 $223 $222 $85 $146 reversed $83 $-1 #
edge $-1 $230 -6.1903255565970348 $231 6.1903255565970348 $145 $232 forward 7 unknown #
coedge $-1 $87 $86 $233 $234 reversed $34 $-1 #
coedge $-1 $226 $235 $86 $149 forward $219 $-1 #
edge $-1 $236 -14.582446240189466 $153 -9.1460984446440641 $148 $237 forward 7 unknown #
coedge $-1 $238 $228 $87 $151 forward $140 $-1 #
edge $-1 $152 9.1460984446440641 $239 14.582446240189466 $150 $240 forward 7 unknown #
vertex $-1 $151 $241 #
vertex $-1 $149 $242 #
straight-curve $-1 -37.499562148053762 -21.010370787060829 0 0 0 -1 I I #
face $-1 $-1 $243 $20 $-1 $244 forward single #
loop $-1 $-1 $245 $90 #
plane-surface $-1 0 26.446718582606234 0 0 -1 0 0 0 -1 forward_v I I I I #
coedge $-1 $246 $93 $95 $164 forward $57 $-1 #
coedge $-1 $93 $246 $245 $247 reversed $57 $-1 #
coedge $-1 $248 $96 $93 $161 forward $91 $-1 #
edge $-1 $167 2.7960820150554166 $249 16.699118383385688 $160 $250 forward 7 unknown #
coedge $-1 $251 $252 $94 $163 forward $243 $-1 #
edge $-1 $253 17.03784751320315 $166 20.81845072864385 $162 $254 forward 7 unknown #
edge $-1 $167 -87.597888119144272 $253 -82.155495969784255 $95 $255 forward 7 unknown #
coedge $-1 $96 $248 $251 $256 reversed $91 $-1 #
vertex $-1 $256 $257 #
vertex $-1 $97 $258 #
straight-curve $-1 43.798944059572129 12.543682214275965 63.069324885118363 0 0 -1 I I #
coedge $-1 $169 $169 $-1 $259 reversed $100 $-1 #
edge $-1 $260 0 $260 6.2831853071796004 $101 $261 forward 7 unknown #
vertex $-1 $104 $262 #
ellipse-curve $-1 41.908642451851776 19.495200398441096 4.2328608931346867 0.71933980857756763 0 0.69465836192734942 0.69465836192734942 0 -0.71933980857756763 1 I I #
face $-1 $-1 $263 $22 $-1 $264 reversed single #
loop $-1 $-1 $265 $105 #
plane-surface $-1 0 26.446718582606234 0 0 -1 0 0 0 -1 forward_v I I I I #
coedge $-1 $266 $108 $110 $182 forward $66 $-1 #
coedge $-1 $108 $266 $265 $267 reversed $66 $-1 #
coedge $-1 $268 $111 $108 $179 forward $106 $-1 #
edge $-1 $185 7.7378679011718514 $269 15.051856421346875 $178 $270 forward 7 unknown #
coedge $-1 $271 $272 $109 $181 forward $263 $-1 #
edge $-1 $273 -28.975445829292209 $184 -23.448655801373729 $180 $274 forward 7 unknown #
edge $-1 $185 -7.4370294683551101 $273 -3.1837080110632468e-014 $110 $275 forward 7 unknown #
coedge $-1 $111 $268 $271 $276 forward $106 $-1 #
vertex $-1 $181 $277 #
vertex $-1 $112 $278 #
straight-curve $-1 -54.44843103173865 19.132730062431214 6.1903255565970348 1 0 0 I I #
coedge $-1 $187 $187 $-1 $279 reversed $115 $-1 #
edge $-1 $280 0 $280 6.2831853071796004 $116 $281 forward 7 unknown #
vertex $-1 $119 $282 #
ellipse-curve $-1 -41.310772074937496 22.789724322518719 3.4269305426377912 -0.74314483375859142 0 0.66913059716165679 0.66913059716165679 0 0.74314483375859142 1 I I #
face $-1 $-1 $135 $18 $-1 $283 reversed single #
loop $-1 $-1 $207 $120 #
plane-surface $-1 0 26.446718582606234 0 0 -1 0 0 0 -1 forward_v I I I I #
coedge $-1 $284 $205 $208 $285 forward $121 $-1 #
coedge $-1 $211 $123 $124 $199 reversed $75 $-1 #
coedge $-1 $205 $284 $123 $197 reversed $121 $-1 #
edge $-1 $212 -6.1903255565970348 $286 6.1903255565970348 $196 $287 forward 7 unknown #
coedge $-1 $125 $124 $284 $288 forward $49 $-1 #
edge $-1 $203 -43.798944059572129 $286 43.798944059572129 $195 $289 forward 7 unknown #
coedge $-1 $208 $207 $125 $201 reversed $192 $-1 #
edge $-1 $290 -43.798944059572129 $202 43.798944059572129 $200 $291 forward 7 unknown #
vertex $-1 $127 $292 #
vertex $-1 $214 $293 #
straight-curve $-1 43.798944059572129 0 -6.1903255565970348 0 -1 0 I I #
coedge $-1 $194 $196 $128 $206 reversed $121 $-1 #
edge $-1 $209 -26.446718582606234 $212 26.446718582606234 $205 $294 forward 7 unknown #
coedge $-1 $200 $129 $134 $215 forward $192 $-1 #
coedge $-1 $129 $200 $194 $285 reversed $192 $-1 #
vertex $-1 $130 $295 #
straight-curve $-1 0 26.446718582606234 6.1903255565970348 -1 0 0 I I #
coedge $-1 $131 $195 $133 $214 reversed $75 $-1 #
vertex $-1 $206 $296 #
straight-curve $-1 0 -26.446718582606234 6.1903255565970348 1 0 0 I I #
edge $-1 $136 -6.1903255565970348 $203 6.1903255565970348 $133 $297 forward 7 unknown #
edge $-1 $137 -6.1903255565970348 $202 6.1903255565970348 $134 $298 forward 7 unknown #
point $-1 43.798944059572129 -26.446718582606234 6.1903255565970348 #
point $-1 43.798944059572129 26.446718582606234 6.1903255565970348 #
face $-1 $-1 $299 $19 $-1 $300 reversed single #
loop $-1 $-1 $301 $139 #
plane-surface $-1 0 0 -6.1903255565970348 0 0 1 1 0 0 forward_v I I I I #
coedge $-1 $228 $238 $223 $302 forward $140 $-1 #
coedge $-1 $145 $142 $301 $303 reversed $83 $-1 #
coedge $-1 $142 $145 $221 $302 reversed $83 $-1 #
coedge $-1 $304 $305 $142 $225 forward $299 $-1 #
edge $-1 $306 -6.1903255565970348 $307 6.1903255565970348 $224 $308 forward 7 unknown #
coedge $-1 $301 $148 $143 $227 forward $219 $-1 #
edge $-1 $153 -19.499781074026881 $231 -16.499781074026881 $226 $309 forward 7 unknown #
coedge $-1 $150 $221 $144 $229 forward $140 $-1 #
edge $-1 $230 16.499781074026881 $152 19.499781074026881 $228 $310 forward 7 unknown #
vertex $-1 $229 $311 #
vertex $-1 $227 $312 #
straight-curve $-1 -34.499562148053762 -21.010370787060829 0 0 0 -1 I I #
coedge $-1 $305 $304 $147 $234 forward $299 $-1 #
edge $-1 $239 -6.1903255565970348 $236 6.1903255565970348 $233 $313 forward 7 unknown #
coedge $-1 $148 $301 $305 $314 forward $219 $-1 #
vertex $-1 $149 $315 #
straight-curve $-1 -37.499562148053762 -11.864272342416765 -6.1903255565970348 0 1 0 I I #
coedge $-1 $221 $150 $304 $316 forward $140 $-1 #
vertex $-1 $316 $317 #
straight-curve $-1 -37.499562148053762 -11.864272342416765 6.1903255565970348 0 -1 0 I I #
point $-1 -37.499562148053762 -21.010370787060829 6.1903255565970348 #
point $-1 -37.499562148053762 -21.010370787060829 -6.1903255565970348 #
loop $-1 $-1 $162 $155 #
plane-surface $-1 0 0 6.1903255565970348 0 0 1 1 0 0 forward_v I I I I #
coedge $-1 $318 $319 $159 $247 forward $156 $-1 #
coedge $-1 $159 $158 $252 $320 reversed $57 $-1 #
edge $-1 $249 -58.193203882711828 $321 -52.750811733351803 $245 $322 forward 7 unknown #
coedge $-1 $165 $160 $319 $323 reversed $91 $-1 #
vertex $-1 $247 $324 #
straight-curve $-1 43.798944059572122 9.7476001992205479 2.2753962296723316 0 1 0 I I #
coedge $-1 $325 $162 $165 $256 forward $243 $-1 #
coedge $-1 $162 $325 $246 $320 forward $243 $-1 #
vertex $-1 $163 $326 #
straight-curve $-1 22.98049333092828 12.543682214275965 6.1903255565970312 1 0 0 I I #
straight-curve $-1 -17.051661409567856 12.543682214275965 65.288044301096761 -0.69465836192734942 0 0.71933980857756763 I I #
edge $-1 $166 12.543682214275965 $327 26.446718582606234 $165 $328 forward 7 unknown #
point $-1 43.798944059572129 12.543682214275965 6.1903255565970348 #
point $-1 43.798944059572129 12.543682214275965 2.2753962296723316 #
edge $-1 $329 1 $329 0 $169 $-1 forward 7 unknown #
vertex $-1 $170 $330 #
ellipse-curve $-1 40.138316163100782 19.495200398441096 2.5232767089193562 0.71933980857756763 0 0.69465836192734942 0.69465836192734942 0 -0.71933980857756763 1 I I #
point $-1 42.603300813779114 19.495200398441096 3.5135210845571083 #
loop $-1 $-1 $180 $173 #
plane-surface $-1 -43.798944059572129 0 0 1 0 0 0 0 -1 forward_v I I I I #
coedge $-1 $331 $332 $177 $267 forward $174 $-1 #
coedge $-1 $177 $176 $272 $333 reversed $66 $-1 #
edge $-1 $269 6.9700258283842853 $334 14.407055296739363 $265 $335 forward 7 unknown #
coedge $-1 $183 $178 $332 $336 forward $106 $-1 #
vertex $-1 $336 $337 #
straight-curve $-1 -38.822600090302856 11.394862161259363 6.1903255565970348 0 1 0 I I #
coedge $-1 $338 $180 $183 $276 reversed $263 $-1 #
coedge $-1 $180 $338 $266 $333 forward $263 $-1 #
vertex $-1 $181 $339 #
straight-curve $-1 -43.798944059572129 19.132730062431214 29.638981357970763 0 0 1 I I #
straight-curve $-1 -43.79894405957215 19.132730062431214 0.66353552867852983 -0.66913059716165679 0 -0.74314483375859142 I I #
edge $-1 $340 -26.446718582606234 $184 -19.132730062431214 $271 $341 forward 7 unknown #
point $-1 -43.798944059572129 19.132730062431214 6.1903255565970348 #
point $-1 -38.822600090302856 19.132730062431214 6.1903255565970348 #
edge $-1 $342 1 $342 0 $187 $-1 forward 7 unknown #
vertex $-1 $188 $343 #
ellipse-curve $-1 -38.66505218215076 22.789724322518719 1.0447137103830584 -0.74314483375859142 0 0.66913059716165679 0.66913059716165679 0 0.74314483375859142 1 I I #
point $-1 -40.641641477775813 22.789724322518719 4.1700753763963645 #
plane-surface $-1 43.798944059572129 0 0 -1 0 0 0 0 1 forward_v I I I I #
coedge $-1 $196 $194 $198 $288 reversed $121 $-1 #
edge $-1 $209 -6.1903255565970348 $290 6.1903255565970348 $208 $344 forward 7 unknown #
vertex $-1 $288 $345 #
straight-curve $-1 -43.798944059572129 -26.446718582606234 0 0 0 -1 I I #
edge $-1 $286 -26.446718582606234 $290 26.446718582606234 $284 $346 forward 7 unknown #
straight-curve $-1 0 -26.446718582606234 -6.1903255565970348 -1 0 0 I I #
vertex $-1 $201 $347 #
straight-curve $-1 0 26.446718582606234 -6.1903255565970348 1 0 0 I I #
point $-1 43.798944059572129 26.446718582606234 -6.1903255565970348 #
point $-1 43.798944059572129 -26.446718582606234 -6.1903255565970348 #
straight-curve $-1 -43.798944059572129 0 6.1903255565970348 0 -1 0 I I #
point $-1 -43.798944059572129 26.446718582606234 6.1903255565970348 #
point $-1 -43.798944059572129 -26.446718582606234 6.1903255565970348 #
straight-curve $-1 43.798944059572129 -26.446718582606234 0 0 0 -1 I I #
straight-curve $-1 43.798944059572129 26.446718582606234 0 0 0 -1 I I #
loop $-1 $-1 $224 $218 #
plane-surface $-1 0 -26.446718582606234 0 0 1 0 0 0 1 forward_v I I I I #
coedge $-1 $235 $226 $222 $303 forward $219 $-1 #
edge $-1 $307 -14.582446240189466 $230 -9.1460984446440641 $221 $348 forward 7 unknown #
edge $-1 $231 9.1460984446440641 $306 14.582446240189466 $301 $349 forward 7 unknown #
coedge $-1 $233 $224 $238 $316 reversed $299 $-1 #
coedge $-1 $224 $233 $235 $314 reversed $299 $-1 #
vertex $-1 $314 $350 #
vertex $-1 $225 $351 #
straight-curve $-1 -34.499562148053762 -26.446718582606234 0 0 0 1 I I #
straight-curve $-1 -17.999781074026881 -21.010370787060829 -6.1903255565970348 1 0 0 I I #
straight-curve $-1 -17.999781074026881 -21.010370787060829 6.1903255565970348 -1 0 0 I I #
point $-1 -34.499562148053762 -21.010370787060829 6.1903255565970348 #
point $-1 -34.499562148053762 -21.010370787060829 -6.1903255565970348 #
straight-curve $-1 -37.499562148053762 -26.446718582606234 0 0 0 -1 I I #
edge $-1 $306 34.499562148053762 $236 37.499562148053762 $305 $352 forward 7 unknown #
point $-1 -37.499562148053762 -26.446718582606231 -6.1903255565970348 #
edge $-1 $239 -37.499562148053762 $307 -34.499562148053762 $304 $353 forward 7 unknown #
point $-1 -37.499562148053762 -26.446718582606231 6.1903255565970348 #
coedge $-1 $319 $245 $325 $354 reversed $156 $-1 #
coedge $-1 $245 $318 $248 $323 forward $156 $-1 #
edge $-1 $321 -16.699118383385681 $253 -2.7960820150554166 $252 $355 forward 7 unknown #
vertex $-1 $247 $356 #
straight-curve $-1 3.374548375103263 26.446718582606234 44.136084371177617 -0.69465836192734942 0 0.71933980857756763 I I #
edge $-1 $327 -6.1903255565970348 $249 -2.2753962296723254 $248 $357 forward 7 unknown #
point $-1 43.798944059572129 26.446718582606234 2.2753962296723254 #
coedge $-1 $252 $251 $318 $354 forward $243 $-1 #
point $-1 40.01834084413143 12.543682214275965 6.1903255565970241 #
vertex $-1 $256 $358 #
straight-curve $-1 43.798944059572129 0 6.1903255565970348 0 1 0 I I #
vertex $-1 $259 $359 #
point $-1 40.832974525028128 19.495200398441096 1.8039369003417889 #
coedge $-1 $332 $265 $338 $360 reversed $174 $-1 #
coedge $-1 $265 $331 $268 $336 reversed $174 $-1 #
edge $-1 $334 -15.051856421346875 $273 -7.7378679011718514 $272 $361 forward 7 unknown #
vertex $-1 $267 $362 #
straight-curve $-1 -34.158742545523907 26.446718582606234 11.370064242124762 -0.66913059716165679 0 -0.74314483375859142 I I #
edge $-1 $269 38.822600090302856 $340 43.798944059572129 $332 $363 forward 7 unknown #
point $-1 -38.822600090302856 26.446718582606238 6.1903255565970348 #
coedge $-1 $272 $271 $331 $360 forward $263 $-1 #
point $-1 -43.798944059572129 19.132730062431214 0.66353552867855348 #
vertex $-1 $336 $364 #
straight-curve $-1 -43.798944059572129 0 6.1903255565970348 0 -1 0 I I #
vertex $-1 $279 $365 #
point $-1 -37.995921584989105 22.789724322518719 1.7878585441416497 #
straight-curve $-1 -43.798944059572129 26.446718582606234 0 0 0 -1 I I #
point $-1 -43.798944059572129 -26.446718582606234 -6.1903255565970348 #
straight-curve $-1 -43.798944059572129 0 -6.1903255565970348 0 1 0 I I #
point $-1 -43.798944059572129 26.446718582606234 -6.1903255565970348 #
straight-curve $-1 -34.499562148053762 -11.864272342416765 6.1903255565970348 0 1 0 I I #
straight-curve $-1 -34.499562148053762 -11.864272342416765 -6.1903255565970348 0 -1 0 I I #
point $-1 -34.499562148053762 -26.446718582606231 -6.1903255565970348 #
point $-1 -34.499562148053762 -26.446718582606231 6.1903255565970348 #
straight-curve $-1 0 -26.446718582606234 -6.1903255565970348 -1 0 0 I I #
straight-curve $-1 0 -26.446718582606234 6.1903255565970348 1 0 0 I I #
edge $-1 $327 -43.798944059572129 $321 -40.01834084413143 $318 $366 forward 7 unknown #
straight-curve $-1 40.018340844131416 9.7476001992205479 6.1903255565970312 0 -1 0 I I #
point $-1 40.01834084413143 26.446718582606227 6.1903255565970241 #
straight-curve $-1 43.798944059572129 26.446718582606234 0 0 0 -1 I I #
point $-1 43.798944059572129 26.446718582606234 6.1903255565970348 #
point $-1 39.41897635452321 19.495200398441096 1.828618346992007 #
edge $-1 $340 -6.1903255565970348 $334 -0.66353552867855348 $331 $367 forward 7 unknown #
straight-curve $-1 -43.798944059572129 11.394862161259363 0.66353552867854915 0 -1 0 I I #
point $-1 -43.798944059572129 26.446718582606238 0.66353552867855348 #
straight-curve $-1 0 26.446718582606234 6.1903255565970348 -1 0 0 I I #
point $-1 -43.798944059572129 26.446718582606234 6.1903255565970348 #
point $-1 -37.921907348392168 22.789724322518719 0.37558311322140148 #
straight-curve $-1 0 26.446718582606234 6.1903255565970348 -1 0 0 I I #
straight-curve $-1 -43.798944059572129 26.446718582606234 0 0 0 -1 I I #
End-of-ACIS-data 