500 0 6 0           
7 Unknown 11 ACIS 5.0 NT 24 Thu Mar 25 19:39:12 1999 
-1 9.9999999999999995e-007 1e-010 
body $-1 $6 $-1 $7 #
body $-1 $8 $-1 $9 #
body $-1 $10 $-1 $11 #
body $-1 $12 $-1 $13 #
body $-1 $14 $-1 $15 #
body $-1 $16 $-1 $17 #
lump $-1 $-1 $18 $0 #
transform $-1 1 0 0 0 1 0 0 0 1 79.650868251594602 45.670840872970047 15.456472145045749 1 rotate no_reflect no_shear #
lump $-1 $-1 $19 $1 #
transform $-1 1 0 0 0 1 0 0 0 1 79.650868251594602 45.670840872970047 15.456472145045749 1 rotate no_reflect no_shear #
lump $-1 $-1 $20 $2 #
transform $-1 1 0 0 0 1 0 0 0 1 79.650868251594602 45.670840872970047 15.456472145045749 1 rotate no_reflect no_shear #
lump $-1 $-1 $21 $3 #
transform $-1 1 0 0 0 1 0 0 0 1 79.650868251594602 45.670840872970047 15.456472145045749 1 rotate no_reflect no_shear #
lump $-1 $-1 $22 $4 #
transform $-1 1 0 0 0 1 0 0 0 1 79.650868251594602 45.670840872970047 15.456472145045749 1 rotate no_reflect no_shear #
lump $-1 $-1 $23 $5 #
transform $-1 1 0 0 0 1 0 0 0 1 79.650868251594602 45.670840872970047 15.456472145045749 1 rotate no_reflect no_shear #
shell $-1 $-1 $-1 $24 $-1 $6 #
shell $-1 $-1 $-1 $25 $-1 $8 #
shell $-1 $-1 $-1 $26 $-1 $10 #
shell $-1 $-1 $-1 $27 $-1 $12 #
shell $-1 $-1 $-1 $28 $-1 $14 #
shell $-1 $-1 $-1 $29 $-1 $16 #
face $-1 $30 $31 $18 $-1 $32 forward single #
face $-1 $33 $34 $19 $-1 $35 forward single #
face $-1 $36 $37 $20 $-1 $38 reversed single #
face $-1 $39 $40 $21 $-1 $41 reversed single #
face $-1 $42 $43 $22 $-1 $44 forward single #
face $-1 $45 $46 $23 $-1 $47 forward single #
face $-1 $48 $49 $18 $-1 $50 reversed single #
loop $-1 $-1 $51 $24 #
plane-surface $-1 0 0 15.456472145045749 0 0 1 1 0 0 forward_v I I I I #
face $-1 $52 $53 $19 $-1 $54 forward single #
loop $-1 $-1 $55 $25 #
plane-surface $-1 -79.650868251594602 0 0 1 0 0 0 0 -1 forward_v I I I I #
face $-1 $56 $57 $20 $-1 $58 reversed single #
loop $-1 $-1 $59 $26 #
plane-surface $-1 70.238656449398377 0 11.492139639738779 0 0 1 1 0 0 forward_v I I I I #
face $-1 $60 $61 $21 $-1 $62 reversed single #
loop $-1 $-1 $63 $27 #
plane-surface $-1 -45.893698033869015 -130.08790098644516 140.06223212359879 -1 0 0 0 -0.52991927123019833 0.84804809178421925 forward_v I I I I #
face $-1 $64 $65 $22 $-1 $66 forward single #
loop $-1 $67 $68 $28 #
cone-surface $-1 -56.94459830087559 -36.465298481597038 8.9121632471582721 0 0.52991927123019833 -0.84804809178421925 1.5 0 0 1 I I 0 1 1.5 forward I I I I #
face $-1 $69 $70 $23 $-1 $71 forward single #
loop $-1 $72 $73 $29 #
cone-surface $-1 -50.314058140671648 -36.465298481597038 8.9121632471582721 0 0.52991927123019833 -0.84804809178421925 1.5 0 0 1 I I 0 1 1.5 forward I I I I #
face $-1 $74 $75 $18 $-1 $76 reversed single #
loop $-1 $-1 $77 $30 #
plane-surface $-1 0 0 -15.456472145045749 0 0 1 1 0 0 forward_v I I I I #
coedge $-1 $78 $79 $80 $81 forward $31 $-1 #
face $-1 $82 $83 $19 $-1 $84 reversed single #
loop $-1 $-1 $85 $33 #
plane-surface $-1 0 0 15.456472145045749 0 0 1 1 0 0 forward_v I I I I #
coedge $-1 $86 $87 $88 $89 forward $34 $-1 #
face $-1 $90 $91 $20 $-1 $92 reversed single #
loop $-1 $-1 $93 $36 #
plane-surface $-1 60.826444647202166 0 13.474305892392264 1 0 0 0 0 -1 forward_v I I I I #
coedge $-1 $94 $95 $96 $97 reversed $37 $-1 #
face $-1 $98 $99 $21 $-1 $100 reversed single #
loop $-1 $-1 $101 $39 #
plane-surface $-1 -53.629328220773615 -45.670840872970061 4.9666984641566785 0 -0.52991927123019833 0.84804809178421925 1 0 0 forward_v I I I I #
coedge $-1 $102 $103 $104 $105 reversed $40 $-1 #
face $-1 $-1 $106 $22 $-1 $107 forward single #
loop $-1 $108 $109 $42 #
cone-surface $-1 -56.94459830087559 -35.255889994375984 6.9767051208771544 0 0.52991927123019833 -0.84804809178421925 0.75 0 0 1 I I -0.70710678118654713 0.70710678118654802 0.75 forward I I I I #
loop $-1 $-1 $110 $28 #
coedge $-1 $68 $68 $111 $112 reversed $43 $-1 #
face $-1 $-1 $113 $23 $-1 $114 forward single #
loop $-1 $115 $116 $45 #
cone-surface $-1 -50.314058140671648 -35.255889994375984 6.9767051208771544 0 0.52991927123019833 -0.84804809178421925 0.75 0 0 1 I I -0.70710678118654713 0.70710678118654802 0.75 forward I I I I #
loop $-1 $-1 $117 $29 #
coedge $-1 $73 $73 $118 $119 reversed $46 $-1 #
face $-1 $120 $121 $18 $-1 $122 reversed single #
loop $-1 $-1 $123 $48 #
plane-surface $-1 0 -45.670840872970047 0 0 1 0 0 0 1 forward_v I I I I #
coedge $-1 $124 $125 $126 $127 forward $49 $-1 #
coedge $-1 $128 $51 $129 $130 forward $31 $-1 #
coedge $-1 $51 $128 $131 $132 forward $31 $-1 #
coedge $-1 $133 $134 $51 $81 reversed $135 $-1 #
edge $-1 $136 -45.670840872970047 $137 45.670840872970047 $80 $138 forward 7 unknown #
face $-1 $139 $140 $19 $-1 $141 reversed single #
loop $-1 $-1 $142 $52 #
plane-surface $-1 -92.62326687472904 -42.589405151435841 0 1 0 0 0 0 -1 forward_v I I I I #
coedge $-1 $143 $144 $86 $145 forward $53 $-1 #
coedge $-1 $146 $55 $85 $145 reversed $34 $-1 #
coedge $-1 $55 $146 $147 $148 reversed $34 $-1 #
coedge $-1 $149 $150 $55 $89 reversed $140 $-1 #
edge $-1 $151 -15.456472145045749 $152 15.456472145045749 $88 $153 forward 7 unknown #
face $-1 $154 $155 $20 $-1 $156 reversed single #
loop $-1 $-1 $157 $56 #
plane-surface $-1 0 -45.670840872970047 0 0 1 0 0 0 1 forward_v I I I I #
coedge $-1 $158 $159 $160 $161 reversed $57 $-1 #
coedge $-1 $162 $59 $163 $164 reversed $37 $-1 #
coedge $-1 $59 $162 $165 $166 reversed $37 $-1 #
coedge $-1 $167 $168 $59 $97 forward $155 $-1 #
edge $-1 $169 -45.670840872970047 $170 45.670840872970047 $96 $171 forward 7 unknown #
face $-1 $172 $173 $21 $-1 $174 reversed single #
loop $-1 $-1 $175 $60 #
plane-surface $-1 -61.364958407678216 -130.08790098644516 140.06223212359879 1 0 0 0 0.52991927123019833 -0.84804809178421925 forward_v I I I I #
coedge $-1 $176 $177 $178 $179 reversed $61 $-1 #
coedge $-1 $103 $63 $180 $181 reversed $40 $-1 #
coedge $-1 $63 $102 $176 $182 reversed $40 $-1 #
coedge $-1 $178 $183 $63 $105 forward $184 $-1 #
edge $-1 $185 19.373109620252535 $186 36.160256335401762 $104 $187 forward 7 unknown #
loop $-1 $-1 $111 $64 #
plane-surface $-1 -53.629328220773615 -45.670840872970061 4.9666984641566785 0 -0.52991927123019833 0.84804809178421925 1 0 0 forward_v I I I I #
loop $-1 $-1 $188 $42 #
coedge $-1 $109 $109 $110 $189 reversed $65 $-1 #
coedge $-1 $110 $110 $109 $189 forward $67 $-1 #
coedge $-1 $111 $111 $68 $112 forward $106 $-1 #
edge $-1 $190 -8.7941033535074744e-016 $190 6.2831853071795996 $111 $191 forward 7 unknown #
loop $-1 $-1 $118 $69 #
plane-surface $-1 -53.629328220773615 -45.670840872970061 4.9666984641566785 0 -0.52991927123019833 0.84804809178421925 1 0 0 forward_v I I I I #
loop $-1 $-1 $192 $45 #
coedge $-1 $116 $116 $117 $193 reversed $70 $-1 #
coedge $-1 $117 $117 $116 $193 forward $72 $-1 #
coedge $-1 $118 $118 $73 $119 forward $113 $-1 #
edge $-1 $194 -8.7941033535074744e-016 $194 6.2831853071795996 $118 $195 forward 7 unknown #
face $-1 $196 $197 $18 $-1 $198 reversed single #
loop $-1 $-1 $199 $74 #
plane-surface $-1 -79.650868251594602 0 0 1 0 0 0 0 -1 forward_v I I I I #
coedge $-1 $200 $131 $201 $202 forward $75 $-1 #
coedge $-1 $203 $77 $200 $204 forward $49 $-1 #
coedge $-1 $77 $203 $205 $206 forward $49 $-1 #
coedge $-1 $134 $133 $77 $127 reversed $135 $-1 #
edge $-1 $207 -45.670840872970047 $208 45.670840872970047 $126 $209 forward 7 unknown #
coedge $-1 $79 $78 $199 $210 forward $31 $-1 #
coedge $-1 $211 $212 $78 $130 reversed $197 $-1 #
edge $-1 $137 -79.650868251594602 $213 79.650868251594602 $129 $214 forward 7 unknown #
coedge $-1 $123 $215 $79 $132 reversed $75 $-1 #
edge $-1 $216 -79.650868251594602 $136 79.650868251594602 $131 $217 forward 7 unknown #
coedge $-1 $126 $80 $215 $218 forward $135 $-1 #
coedge $-1 $80 $126 $211 $219 reversed $135 $-1 #
loop $-1 $-1 $133 $196 #
vertex $-1 $81 $220 #
vertex $-1 $81 $221 #
straight-curve $-1 79.650868251594602 0 15.456472145045749 0 1 0 I I #
face $-1 $222 $223 $19 $-1 $224 reversed single #
loop $-1 $-1 $88 $82 #
plane-surface $-1 -86.137067563161821 -39.507969429901635 0 0 -1 0 0 0 -1 forward_v I I I I #
coedge $-1 $225 $226 $227 $228 forward $83 $-1 #
coedge $-1 $229 $85 $150 $230 forward $53 $-1 #
coedge $-1 $85 $229 $231 $232 forward $53 $-1 #
edge $-1 $233 -45.670840872970047 $152 -39.507969429901635 $85 $234 forward 7 unknown #
coedge $-1 $87 $86 $235 $236 reversed $34 $-1 #
coedge $-1 $237 $238 $87 $148 forward $223 $-1 #
edge $-1 $151 39.507969429901635 $239 45.670840872970047 $147 $240 forward 7 unknown #
coedge $-1 $227 $88 $238 $241 reversed $140 $-1 #
coedge $-1 $88 $227 $143 $230 reversed $140 $-1 #
vertex $-1 $148 $242 #
vertex $-1 $230 $243 #
straight-curve $-1 -79.650868251594602 -39.507969429901635 0 0 0 1 I I #
face $-1 $244 $245 $20 $-1 $246 forward single #
loop $-1 $-1 $96 $90 #
plane-surface $-1 79.650868251594602 0 0 -1 0 0 0 0 1 forward_v I I I I #
coedge $-1 $163 $247 $248 $249 forward $91 $-1 #
coedge $-1 $248 $93 $162 $250 reversed $57 $-1 #
coedge $-1 $93 $248 $251 $252 reversed $57 $-1 #
coedge $-1 $253 $165 $93 $161 forward $254 $-1 #
edge $-1 $255 4.754986693542647 $256 8.7193191988496181 $160 $257 forward 7 unknown #
coedge $-1 $95 $94 $158 $250 forward $37 $-1 #
coedge $-1 $258 $157 $94 $164 forward $91 $-1 #
edge $-1 $259 25.707116422502978 $169 44.531540026895399 $163 $260 forward 7 unknown #
coedge $-1 $160 $261 $95 $166 forward $254 $-1 #
edge $-1 $170 -44.531540026895399 $255 -25.707116422502978 $165 $262 forward 7 unknown #
coedge $-1 $263 $96 $261 $264 reversed $155 $-1 #
coedge $-1 $96 $263 $258 $265 forward $155 $-1 #
vertex $-1 $97 $266 #
vertex $-1 $97 $267 #
straight-curve $-1 79.650868251594602 0 11.492139639738779 0 1 0 I I #
face $-1 $-1 $184 $21 $-1 $268 forward single #
loop $-1 $-1 $269 $98 #
plane-surface $-1 0 -45.670840872970047 0 0 1 0 0 0 1 forward_v I I I I #
coedge $-1 $270 $271 $272 $273 reversed $99 $-1 #
coedge $-1 $274 $101 $103 $182 forward $61 $-1 #
coedge $-1 $101 $274 $270 $275 forward $61 $-1 #
coedge $-1 $272 $104 $101 $179 forward $184 $-1 #
edge $-1 $186 19.079033923482207 $276 34.550294297291408 $178 $277 forward 7 unknown #
coedge $-1 $278 $279 $102 $181 forward $173 $-1 #
edge $-1 $280 -65.064417597642702 $185 -54.574643916753644 $180 $281 forward 7 unknown #
edge $-1 $186 -19.795040962630491 $280 -1.675811683274863e-014 $103 $282 forward 7 unknown #
coedge $-1 $104 $272 $278 $283 forward $184 $-1 #
loop $-1 $-1 $272 $172 #
vertex $-1 $181 $284 #
vertex $-1 $105 $285 #
straight-curve $-1 -45.893698033869015 -65.043950493222582 15.456472145045751 0 1 0 I I #
coedge $-1 $188 $188 $-1 $286 reversed $108 $-1 #
edge $-1 $287 0 $287 6.2831853071796004 $109 $288 forward 7 unknown #
vertex $-1 $112 $289 #
ellipse-curve $-1 -56.94459830087559 -37.277267515395437 10.211585304601215 0 -0.52991927123019833 0.84804809178421925 1.5 0 0 1 I I #
coedge $-1 $192 $192 $-1 $290 reversed $115 $-1 #
edge $-1 $291 0 $291 6.2831853071796004 $116 $292 forward 7 unknown #
vertex $-1 $119 $293 #
ellipse-curve $-1 -50.314058140671648 -37.277267515395437 10.211585304601215 0 -0.52991927123019833 0.84804809178421925 1.5 0 0 1 I I #
face $-1 $-1 $135 $18 $-1 $294 reversed single #
loop $-1 $-1 $211 $120 #
plane-surface $-1 0 45.670840872970047 0 0 -1 0 0 0 -1 forward_v I I I I #
coedge $-1 $295 $201 $128 $210 reversed $121 $-1 #
coedge $-1 $215 $123 $124 $204 reversed $75 $-1 #
coedge $-1 $199 $296 $123 $202 reversed $121 $-1 #
edge $-1 $216 -15.456472145045749 $297 15.456472145045749 $201 $298 forward 7 unknown #
coedge $-1 $125 $124 $296 $299 forward $49 $-1 #
edge $-1 $208 -79.650868251594602 $297 79.650868251594602 $200 $300 forward 7 unknown #
coedge $-1 $212 $211 $125 $206 reversed $197 $-1 #
edge $-1 $301 -79.650868251594602 $207 79.650868251594602 $205 $302 forward 7 unknown #
vertex $-1 $127 $303 #
vertex $-1 $218 $304 #
straight-curve $-1 79.650868251594602 0 -15.456472145045749 0 -1 0 I I #
edge $-1 $213 -45.670840872970047 $216 45.670840872970047 $199 $305 forward 7 unknown #
coedge $-1 $205 $129 $134 $219 forward $197 $-1 #
coedge $-1 $129 $205 $295 $306 reversed $197 $-1 #
vertex $-1 $130 $307 #
straight-curve $-1 0 45.670840872970047 15.456472145045749 -1 0 0 I I #
coedge $-1 $131 $200 $133 $218 reversed $75 $-1 #
vertex $-1 $210 $308 #
straight-curve $-1 0 -45.670840872970047 15.456472145045749 1 0 0 I I #
edge $-1 $136 -15.456472145045749 $208 15.456472145045749 $133 $309 forward 7 unknown #
edge $-1 $137 -15.456472145045749 $207 15.456472145045749 $134 $310 forward 7 unknown #
point $-1 79.650868251594602 -45.670840872970047 15.456472145045749 #
point $-1 79.650868251594602 45.670840872970047 15.456472145045749 #
face $-1 $-1 $311 $19 $-1 $312 reversed single #
loop $-1 $-1 $147 $139 #
plane-surface $-1 0 0 -15.456472145045749 0 0 1 1 0 0 forward_v I I I I #
coedge $-1 $313 $142 $314 $315 reversed $83 $-1 #
coedge $-1 $142 $313 $229 $316 reversed $83 $-1 #
coedge $-1 $150 $149 $142 $228 reversed $140 $-1 #
edge $-1 $317 -15.456472145045749 $318 15.456472145045749 $227 $319 forward 7 unknown #
coedge $-1 $144 $143 $226 $316 forward $53 $-1 #
edge $-1 $152 -6.4861993115672192 $317 6.4861993115672192 $150 $320 forward 7 unknown #
coedge $-1 $321 $235 $144 $232 reversed $311 $-1 #
edge $-1 $322 -92.62326687472904 $233 -79.650868251594602 $231 $323 forward 7 unknown #
vertex $-1 $236 $324 #
straight-curve $-1 -79.650868251594602 0 15.456472145045749 0 1 0 I I #
coedge $-1 $231 $325 $146 $236 forward $311 $-1 #
edge $-1 $239 -15.456472145045749 $233 15.456472145045749 $235 $326 forward 7 unknown #
coedge $-1 $314 $147 $325 $327 forward $223 $-1 #
coedge $-1 $147 $314 $149 $241 forward $223 $-1 #
vertex $-1 $327 $328 #
straight-curve $-1 -79.650868251594602 0 -15.456472145045749 0 -1 0 I I #
edge $-1 $318 -6.4861993115672192 $151 6.4861993115672192 $149 $329 forward 7 unknown #
point $-1 -79.650868251594602 -39.507969429901635 -15.456472145045749 #
point $-1 -79.650868251594602 -39.507969429901635 15.456472145045749 #
face $-1 $-1 $254 $20 $-1 $330 reversed single #
loop $-1 $-1 $251 $154 #
plane-surface $-1 0 0 15.456472145045749 0 0 1 1 0 0 forward_v I I I I #
coedge $-1 $157 $258 $331 $332 reversed $91 $-1 #
coedge $-1 $159 $158 $157 $249 reversed $57 $-1 #
edge $-1 $333 -8.7193191988496181 $259 -4.754986693542647 $157 $334 forward 7 unknown #
edge $-1 $259 -45.670840872970047 $255 45.670840872970047 $158 $335 forward 7 unknown #
coedge $-1 $331 $336 $159 $252 forward $245 $-1 #
edge $-1 $256 -45.670840872970047 $333 45.670840872970047 $251 $337 forward 7 unknown #
coedge $-1 $261 $160 $336 $338 reversed $254 $-1 #
loop $-1 $-1 $160 $244 #
vertex $-1 $166 $339 #
vertex $-1 $161 $340 #
straight-curve $-1 60.826444647202166 45.670840872970047 6.7371529461961321 0 0 1 I I #
coedge $-1 $247 $163 $168 $265 reversed $91 $-1 #
vertex $-1 $164 $341 #
straight-curve $-1 35.119328224699188 -45.670840872970047 11.492139639738779 1 0 0 I I #
coedge $-1 $165 $253 $167 $264 forward $254 $-1 #
straight-curve $-1 35.119328224699188 45.670840872970047 11.492139639738779 -1 0 0 I I #
coedge $-1 $168 $167 $342 $343 reversed $155 $-1 #
edge $-1 $344 -15.456472145045749 $170 -11.492139639738779 $167 $345 forward 7 unknown #
edge $-1 $346 -15.456472145045749 $169 -11.492139639738779 $168 $347 forward 7 unknown #
point $-1 79.650868251594588 -45.670840872970047 11.492139639738779 #
point $-1 79.650868251594588 45.670840872970047 11.492139639738779 #
plane-surface $-1 0 0 15.456472145045749 0 0 1 1 0 0 forward_v I I I I #
coedge $-1 $279 $278 $271 $348 forward $173 $-1 #
coedge $-1 $271 $175 $177 $275 reversed $99 $-1 #
coedge $-1 $175 $270 $269 $348 reversed $99 $-1 #
coedge $-1 $183 $178 $175 $273 forward $184 $-1 #
edge $-1 $276 -36.160256335401762 $349 -19.373109620252535 $272 $350 forward 7 unknown #
coedge $-1 $177 $176 $279 $351 reversed $61 $-1 #
edge $-1 $352 1.675811683274863e-014 $276 19.795040962630491 $270 $353 forward 7 unknown #
vertex $-1 $179 $354 #
straight-curve $-1 -26.814664110386808 -28.883694157820827 15.456472145045749 -1 0 0 I I #
coedge $-1 $269 $180 $183 $283 reversed $173 $-1 #
coedge $-1 $180 $269 $274 $351 forward $173 $-1 #
vertex $-1 $181 $355 #
straight-curve $-1 -45.893698033869015 -45.670840872970047 70.031116061799395 0 0 1 I I #
straight-curve $-1 -45.893698033869015 -45.670840872970061 4.9666984641566785 0 -0.84804809178421925 -0.52991927123019833 I I #
edge $-1 $349 -61.364958407678216 $185 -45.893698033869015 $278 $356 forward 7 unknown #
point $-1 -45.893698033869015 -45.670840872970047 15.456472145045749 #
point $-1 -45.893698033869015 -28.88369415782082 15.456472145045749 #
edge $-1 $357 1 $357 0 $188 $-1 forward 7 unknown #
vertex $-1 $189 $358 #
ellipse-curve $-1 -56.94459830087559 -35.653329447798633 7.6127411897153197 0 -0.52991927123019833 0.84804809178421925 1.5 0 0 1 I I #
point $-1 -55.44459830087559 -37.277267515395444 10.211585304601224 #
edge $-1 $359 1 $359 0 $192 $-1 forward 7 unknown #
vertex $-1 $193 $360 #
ellipse-curve $-1 -50.314058140671648 -35.653329447798633 7.6127411897153197 0 -0.52991927123019833 0.84804809178421925 1.5 0 0 1 I I #
point $-1 -48.814058140671648 -37.277267515395444 10.211585304601224 #
plane-surface $-1 79.650868251594602 0 0 -1 0 0 0 0 1 forward_v I I I I #
coedge $-1 $296 $199 $212 $306 forward $121 $-1 #
coedge $-1 $201 $295 $203 $299 reversed $121 $-1 #
vertex $-1 $299 $361 #
straight-curve $-1 -79.650868251594602 -45.670840872970047 0 0 0 -1 I I #
edge $-1 $297 -45.670840872970047 $301 45.670840872970047 $296 $362 forward 7 unknown #
straight-curve $-1 0 -45.670840872970047 -15.456472145045749 -1 0 0 I I #
vertex $-1 $206 $363 #
straight-curve $-1 0 45.670840872970047 -15.456472145045749 1 0 0 I I #
point $-1 79.650868251594602 45.670840872970047 -15.456472145045749 #
point $-1 79.650868251594602 -45.670840872970047 -15.456472145045749 #
straight-curve $-1 -79.650868251594602 0 15.456472145045749 0 -1 0 I I #
edge $-1 $213 -15.456472145045749 $301 15.456472145045749 $212 $364 forward 7 unknown #
point $-1 -79.650868251594602 45.670840872970047 15.456472145045749 #
point $-1 -79.650868251594602 -45.670840872970047 15.456472145045749 #
straight-curve $-1 79.650868251594602 -45.670840872970047 0 0 0 -1 I I #
straight-curve $-1 79.650868251594602 45.670840872970047 0 0 0 -1 I I #
loop $-1 $-1 $235 $222 #
plane-surface $-1 0 -45.670840872970047 0 0 1 0 0 0 1 forward_v I I I I #
coedge $-1 $226 $225 $321 $365 reversed $83 $-1 #
coedge $-1 $238 $237 $225 $315 forward $223 $-1 #
edge $-1 $366 -3.0814357215342056 $318 3.0814357215342056 $225 $367 forward 7 unknown #
edge $-1 $317 -3.0814357215342056 $322 3.0814357215342056 $226 $368 forward 7 unknown #
vertex $-1 $230 $369 #
vertex $-1 $241 $370 #
straight-curve $-1 -92.62326687472904 -39.507969429901635 0 0 0 -1 I I #
straight-curve $-1 -86.137067563161821 -39.507969429901635 15.456472145045749 -1 0 0 I I #
coedge $-1 $325 $231 $313 $365 forward $311 $-1 #
vertex $-1 $316 $371 #
straight-curve $-1 0 -45.670840872970047 15.456472145045749 1 0 0 I I #
point $-1 -79.650868251594602 -45.670840872970047 15.456472145045749 #
coedge $-1 $235 $321 $237 $327 reversed $311 $-1 #
straight-curve $-1 -79.650868251594602 -45.670840872970047 0 0 0 1 I I #
edge $-1 $239 -6.4861993115672192 $366 6.4861993115672192 $325 $372 forward 7 unknown #
point $-1 -79.650868251594602 -45.670840872970047 -15.456472145045749 #
straight-curve $-1 -86.137067563161821 -39.507969429901635 -15.456472145045749 1 0 0 I I #
plane-surface $-1 0 45.670840872970047 0 0 -1 0 0 0 -1 forward_v I I I I #
coedge $-1 $342 $251 $247 $332 forward $245 $-1 #
edge $-1 $333 60.826444647202166 $346 79.650868251594602 $247 $373 forward 7 unknown #
vertex $-1 $332 $374 #
straight-curve $-1 60.826444647202166 -45.670840872970047 6.7371529461961321 0 0 -1 I I #
straight-curve $-1 60.826444647202166 0 11.492139639738779 0 1 0 I I #
coedge $-1 $251 $342 $253 $338 forward $245 $-1 #
straight-curve $-1 60.826444647202166 0 15.456472145045749 0 -1 0 I I #
edge $-1 $344 -79.650868251594602 $256 -60.826444647202166 $253 $375 forward 7 unknown #
point $-1 60.826444647202166 45.670840872970047 11.492139639738779 #
point $-1 60.826444647202166 45.670840872970047 15.456472145045749 #
point $-1 60.826444647202166 -45.670840872970047 11.492139639738779 #
coedge $-1 $336 $331 $263 $343 forward $245 $-1 #
edge $-1 $346 -45.670840872970047 $344 45.670840872970047 $263 $376 forward 7 unknown #
vertex $-1 $343 $377 #
straight-curve $-1 79.650868251594602 45.670840872970047 0 0 0 -1 I I #
vertex $-1 $343 $378 #
straight-curve $-1 79.650868251594602 -45.670840872970047 0 0 0 -1 I I #
edge $-1 $349 54.574643916753644 $352 65.064417597642702 $269 $379 forward 7 unknown #
vertex $-1 $283 $380 #
straight-curve $-1 -61.364958407678216 -65.043950493222582 15.456472145045751 0 -1 0 I I #
edge $-1 $352 -34.550294297291408 $280 -19.079033923482207 $279 $381 forward 7 unknown #
vertex $-1 $351 $382 #
straight-curve $-1 -61.364958407678216 -45.670840872970061 4.9666984641566785 0 0.84804809178421925 0.52991927123019833 I I #
point $-1 -61.364958407678216 -28.88369415782082 15.456472145045749 #
point $-1 -45.893698033869015 -45.670840872970047 4.9666984641566874 #
straight-curve $-1 0 -45.670840872970047 15.456472145045749 1 0 0 I I #
vertex $-1 $286 $383 #
point $-1 -55.44459830087559 -35.653329447798633 7.6127411897153197 #
vertex $-1 $290 $384 #
point $-1 -48.814058140671648 -35.653329447798633 7.6127411897153197 #
point $-1 -79.650868251594602 -45.670840872970047 -15.456472145045749 #
straight-curve $-1 -79.650868251594602 0 -15.456472145045749 0 1 0 I I #
point $-1 -79.650868251594602 45.670840872970047 -15.456472145045749 #
straight-curve $-1 -79.650868251594602 45.670840872970047 0 0 0 -1 I I #
edge $-1 $322 -15.456472145045749 $366 15.456472145045749 $313 $385 forward 7 unknown #
vertex $-1 $315 $386 #
straight-curve $-1 -92.62326687472904 -42.589405151435841 -15.456472145045749 0 1 0 I I #
straight-curve $-1 -92.62326687472904 -42.589405151435841 15.456472145045749 0 -1 0 I I #
point $-1 -92.62326687472904 -39.507969429901635 15.456472145045749 #
point $-1 -92.62326687472904 -39.507969429901635 -15.456472145045749 #
point $-1 -92.62326687472904 -45.670840872970047 15.456472145045749 #
straight-curve $-1 -86.137067563161821 -45.670840872970047 -15.456472145045749 -1 0 0 I I #
straight-curve $-1 0 -45.670840872970047 15.456472145045749 1 0 0 I I #
point $-1 60.826444647202166 -45.670840872970047 15.456472145045749 #
straight-curve $-1 0 45.670840872970047 15.456472145045749 -1 0 0 I I #
straight-curve $-1 79.650868251594602 0 15.456472145045749 0 1 0 I I #
point $-1 79.650868251594602 45.670840872970047 15.456472145045749 #
point $-1 79.650868251594602 -45.670840872970047 15.456472145045749 #
straight-curve $-1 -61.364958407678216 -45.670840872970047 70.031116061799395 0 0 -1 I I #
point $-1 -61.364958407678216 -45.670840872970047 15.456472145045749 #
straight-curve $-1 -26.814664110386808 -45.670840872970047 4.9666984641566874 1 0 0 I I #
point $-1 -61.364958407678216 -45.670840872970047 4.9666984641566874 #
point $-1 -56.94459830087559 -34.858450540953335 6.3406690520389892 #
point $-1 -50.314058140671648 -34.858450540953335 6.3406690520389892 #
straight-curve $-1 -92.62326687472904 -45.670840872970047 0 0 0 -1 I I #
point $-1 -92.62326687472904 -45.670840872970047 -15.456472145045749 #
End-of-ACIS-data 