500 0 13 0           
7 Unknown 11 ACIS 5.0 NT 24 Thu Mar 25 17:16:39 1999 
-1 9.9999999999999995e-007 1e-010 
body $-1 $13 $-1 $14 #
body $-1 $15 $-1 $16 #
body $-1 $17 $-1 $18 #
body $-1 $19 $-1 $20 #
body $-1 $21 $-1 $22 #
body $-1 $23 $-1 $24 #
body $-1 $25 $-1 $26 #
body $-1 $27 $-1 $28 #
body $-1 $29 $-1 $30 #
body $-1 $31 $-1 $32 #
body $-1 $33 $-1 $34 #
body $-1 $35 $-1 $36 #
body $-1 $37 $-1 $38 #
lump $-1 $-1 $39 $0 #
transform $-1 1 0 0 0 1 0 0 0 1 42.850428785058135 21.041395280360891 4.9482308301607389 1 rotate no_reflect no_shear #
lump $-1 $-1 $40 $1 #
transform $-1 1 0 0 0 1 0 0 0 1 42.850428785058135 -3.0684890437020393 1.5 1 rotate no_reflect no_shear #
lump $-1 $-1 $41 $2 #
transform $-1 0.80901698891910034 0 0.5877852598018023 0 1 0 -0.5877852598018023 0 0.80901698891910034 -50.373700832088048 14.337771997196857 75.92483701398541 1 rotate no_reflect no_shear #
lump $-1 $-1 $42 $3 #
transform $-1 0.80901698891910034 0 0.5877852598018023 0 -1 0 0.5877852598018023 0 -0.80901698891910034 4.8070826104830386 12.717281890919802 4.7581542713063296 1 rotate no_reflect no_shear #
lump $-1 $-1 $43 $4 #
transform $-1 0.80901698891910034 0 0.5877852598018023 0 -1 0 0.5877852598018023 0 -0.80901698891910034 4.8070826104830386 15.95826210347391 4.7581542713063296 1 rotate no_reflect no_shear #
lump $-1 $-1 $44 $5 #
transform $-1 0.80901698891910034 0 0.5877852598018023 0 1 0 -0.5877852598018023 0 0.80901698891910034 -50.373700832088048 26.319709488302756 75.92483701398541 1 rotate no_reflect no_shear #
lump $-1 $-1 $45 $6 #
transform $-1 0.80901698891910034 0 0.5877852598018023 0 -1 0 0.5877852598018023 0 -0.80901698891910034 4.8070826104830386 24.699219382025703 4.7581542713063296 1 rotate no_reflect no_shear #
lump $-1 $-1 $46 $7 #
transform $-1 0.80901698891910034 0 0.5877852598018023 0 -1 0 0.5877852598018023 0 -0.80901698891910034 4.8070826104830386 27.940199594579809 4.7581542713063296 1 rotate no_reflect no_shear #
lump $-1 $-1 $47 $8 #
transform $-1 0.80901698891910034 0 0.5877852598018023 0 1 0 -0.5877852598018023 0 0.80901698891910034 -50.373700832088048 38.301646979408659 75.92483701398541 1 rotate no_reflect no_shear #
lump $-1 $-1 $48 $9 #
transform $-1 0.80901698891910034 0 0.5877852598018023 0 -1 0 0.5877852598018023 0 -0.80901698891910034 4.8070826104830386 36.681156873131606 4.7581542713063296 1 rotate no_reflect no_shear #
lump $-1 $-1 $49 $10 #
transform $-1 0.80901698891910034 0 0.5877852598018023 0 -1 0 0.5877852598018023 0 -0.80901698891910034 4.8070826104830386 39.922137085685712 4.7581542713063296 1 rotate no_reflect no_shear #
lump $-1 $-1 $50 $11 #
transform $-1 0.69465836192734942 0 -0.71933980857756763 0 1 0 0.71933980857756763 0 0.69465836192734942 87.816078714111043 28.658744892751706 127.82866787857017 1 rotate no_reflect no_shear #
lump $-1 $-1 $51 $12 #
transform $-1 0.69465836192734942 0 -0.71933980857756763 0 -1 0 -0.71933980857756763 0 -0.69465836192734942 82.682087788455917 28.658744892751706 6.8717166707443837 1 rotate no_reflect no_shear #
shell $-1 $-1 $-1 $52 $-1 $13 #
shell $-1 $-1 $-1 $53 $-1 $15 #
shell $-1 $-1 $-1 $54 $-1 $17 #
shell $-1 $-1 $-1 $55 $-1 $19 #
shell $-1 $-1 $-1 $56 $-1 $21 #
shell $-1 $-1 $-1 $57 $-1 $23 #
shell $-1 $-1 $-1 $58 $-1 $25 #
shell $-1 $-1 $-1 $59 $-1 $27 #
shell $-1 $-1 $-1 $60 $-1 $29 #
shell $-1 $-1 $-1 $61 $-1 $31 #
shell $-1 $-1 $-1 $62 $-1 $33 #
shell $-1 $-1 $-1 $63 $-1 $35 #
shell $-1 $-1 $-1 $64 $-1 $37 #
face $-1 $65 $66 $39 $-1 $67 forward single #
face $-1 $68 $69 $40 $-1 $70 forward single #
face $-1 $71 $72 $41 $-1 $73 forward single #
face $-1 $74 $75 $42 $-1 $76 forward single #
face $-1 $77 $78 $43 $-1 $79 forward single #
face $-1 $80 $81 $44 $-1 $82 forward single #
face $-1 $83 $84 $45 $-1 $85 forward single #
face $-1 $86 $87 $46 $-1 $88 forward single #
face $-1 $89 $90 $47 $-1 $91 forward single #
face $-1 $92 $93 $48 $-1 $94 forward single #
face $-1 $95 $96 $49 $-1 $97 forward single #
face $-1 $98 $99 $50 $-1 $100 forward single #
face $-1 $101 $102 $51 $-1 $103 forward single #
face $-1 $104 $105 $39 $-1 $106 reversed single #
loop $-1 $-1 $107 $52 #
plane-surface $-1 0 0 4.9482308301607389 0 0 1 1 0 0 forward_v I I I I #
face $-1 $108 $109 $40 $-1 $110 reversed single #
loop $-1 $-1 $111 $53 #
plane-surface $-1 0 0 1.5 0 0 1 1 0 0 forward_v I I I I #
face $-1 $112 $113 $41 $-1 $114 reversed single #
loop $-1 $-1 $115 $54 #
plane-surface $-1 0 0 85.70085757011627 0 0 1 1 0 0 forward_v I I I I #
face $-1 $116 $117 $42 $-1 $118 forward single #
loop $-1 $119 $120 $55 #
cone-surface $-1 0 0 -2.4043244727927489 0 0 1 1 0 0 1 I I 0 1 1 forward I I I I #
face $-1 $121 $122 $43 $-1 $123 forward single #
loop $-1 $124 $125 $56 #
cone-surface $-1 0 0 -2.4043244727927489 0 0 1 1 0 0 1 I I 0 1 1 forward I I I I #
face $-1 $126 $127 $44 $-1 $128 reversed single #
loop $-1 $-1 $129 $57 #
plane-surface $-1 0 0 85.70085757011627 0 0 1 1 0 0 forward_v I I I I #
face $-1 $130 $131 $45 $-1 $132 forward single #
loop $-1 $133 $134 $58 #
cone-surface $-1 0 0 -2.4043244727927489 0 0 1 1 0 0 1 I I 0 1 1 forward I I I I #
face $-1 $135 $136 $46 $-1 $137 forward single #
loop $-1 $138 $139 $59 #
cone-surface $-1 0 0 -2.4043244727927489 0 0 1 1 0 0 1 I I 0 1 1 forward I I I I #
face $-1 $140 $141 $47 $-1 $142 reversed single #
loop $-1 $-1 $143 $60 #
plane-surface $-1 0 0 85.70085757011627 0 0 1 1 0 0 forward_v I I I I #
face $-1 $144 $145 $48 $-1 $146 forward single #
loop $-1 $147 $148 $61 #
cone-surface $-1 0 0 -2.4043244727927489 0 0 1 1 0 0 1 I I 0 1 1 forward I I I I #
face $-1 $149 $150 $49 $-1 $151 forward single #
loop $-1 $152 $153 $62 #
cone-surface $-1 0 0 -2.4043244727927489 0 0 1 1 0 0 1 I I 0 1 1 forward I I I I #
face $-1 $154 $155 $50 $-1 $156 reversed single #
loop $-1 $-1 $157 $63 #
plane-surface $-1 0 0 85.70085757011627 0 0 1 1 0 0 forward_v I I I I #
face $-1 $158 $159 $51 $-1 $160 forward single #
loop $-1 $161 $162 $64 #
cone-surface $-1 0 0 -1.1329920346690265 0 0 1 0.5 0 0 1 I I 0 1 0.5 forward I I I I #
face $-1 $163 $164 $39 $-1 $165 reversed single #
loop $-1 $-1 $166 $65 #
plane-surface $-1 0 0 -4.9482308301607389 0 0 1 1 0 0 forward_v I I I I #
coedge $-1 $167 $168 $169 $170 forward $66 $-1 #
face $-1 $171 $172 $40 $-1 $173 reversed single #
loop $-1 $-1 $174 $68 #
plane-surface $-1 0 0 -1.5 0 0 1 1 0 0 forward_v I I I I #
coedge $-1 $175 $176 $177 $178 forward $69 $-1 #
face $-1 $179 $180 $41 $-1 $181 reversed single #
loop $-1 $-1 $182 $71 #
plane-surface $-1 0 0 -85.70085757011627 0 0 1 1 0 0 forward_v I I I I #
coedge $-1 $183 $184 $185 $186 forward $72 $-1 #
face $-1 $-1 $187 $42 $-1 $188 forward single #
loop $-1 $-1 $189 $74 #
plane-surface $-1 0 0 -4.3086489455854977 0 0 -1 -1 0 0 forward_v I I I I #
loop $-1 $-1 $190 $55 #
coedge $-1 $120 $120 $189 $191 reversed $75 $-1 #
face $-1 $-1 $192 $43 $-1 $193 forward single #
loop $-1 $-1 $194 $77 #
plane-surface $-1 0 0 -4.3086489455854977 0 0 -1 -1 0 0 forward_v I I I I #
loop $-1 $-1 $195 $56 #
coedge $-1 $125 $125 $194 $196 reversed $78 $-1 #
face $-1 $197 $198 $44 $-1 $199 reversed single #
loop $-1 $-1 $200 $80 #
plane-surface $-1 0 0 -85.70085757011627 0 0 1 1 0 0 forward_v I I I I #
coedge $-1 $201 $202 $203 $204 forward $81 $-1 #
face $-1 $-1 $205 $45 $-1 $206 forward single #
loop $-1 $-1 $207 $83 #
plane-surface $-1 0 0 -4.3086489455854977 0 0 -1 -1 0 0 forward_v I I I I #
loop $-1 $-1 $208 $58 #
coedge $-1 $134 $134 $207 $209 reversed $84 $-1 #
face $-1 $-1 $210 $46 $-1 $211 forward single #
loop $-1 $-1 $212 $86 #
plane-surface $-1 0 0 -4.3086489455854977 0 0 -1 -1 0 0 forward_v I I I I #
loop $-1 $-1 $213 $59 #
coedge $-1 $139 $139 $212 $214 reversed $87 $-1 #
face $-1 $215 $216 $47 $-1 $217 reversed single #
loop $-1 $-1 $218 $89 #
plane-surface $-1 0 0 -85.70085757011627 0 0 1 1 0 0 forward_v I I I I #
coedge $-1 $219 $220 $221 $222 forward $90 $-1 #
face $-1 $-1 $223 $48 $-1 $224 forward single #
loop $-1 $-1 $225 $92 #
plane-surface $-1 0 0 -4.3086489455854977 0 0 -1 -1 0 0 forward_v I I I I #
loop $-1 $-1 $226 $61 #
coedge $-1 $148 $148 $225 $227 reversed $93 $-1 #
face $-1 $-1 $228 $49 $-1 $229 forward single #
loop $-1 $-1 $230 $95 #
plane-surface $-1 0 0 -4.3086489455854977 0 0 -1 -1 0 0 forward_v I I I I #
loop $-1 $-1 $231 $62 #
coedge $-1 $153 $153 $230 $232 reversed $96 $-1 #
face $-1 $233 $234 $50 $-1 $235 reversed single #
loop $-1 $-1 $236 $98 #
plane-surface $-1 0 0 -85.70085757011627 0 0 1 1 0 0 forward_v I I I I #
coedge $-1 $237 $238 $239 $240 forward $99 $-1 #
face $-1 $-1 $241 $51 $-1 $242 forward single #
loop $-1 $-1 $243 $101 #
plane-surface $-1 0 0 -2.0159840693380531 0 0 -1 -1 0 0 forward_v I I I I #
loop $-1 $-1 $244 $64 #
coedge $-1 $162 $162 $243 $245 reversed $102 $-1 #
face $-1 $246 $247 $39 $-1 $248 reversed single #
loop $-1 $-1 $249 $104 #
plane-surface $-1 0 -21.041395280360891 0 0 1 0 0 0 1 forward_v I I I I #
coedge $-1 $250 $251 $252 $253 forward $105 $-1 #
coedge $-1 $254 $107 $255 $256 forward $66 $-1 #
coedge $-1 $107 $254 $257 $258 forward $66 $-1 #
coedge $-1 $259 $260 $107 $170 reversed $261 $-1 #
edge $-1 $262 -21.041395280360891 $263 21.041395280360891 $169 $264 forward 7 unknown #
face $-1 $265 $266 $40 $-1 $267 reversed single #
loop $-1 $-1 $268 $108 #
plane-surface $-1 0 -3.0684890437020393 0 0 1 0 0 0 1 forward_v I I I I #
coedge $-1 $269 $270 $271 $272 forward $109 $-1 #
coedge $-1 $273 $111 $274 $275 forward $69 $-1 #
coedge $-1 $111 $273 $276 $277 forward $69 $-1 #
coedge $-1 $278 $279 $111 $178 reversed $280 $-1 #
edge $-1 $281 -3.0684890437020393 $282 3.0684890437020393 $177 $283 forward 7 unknown #
face $-1 $284 $285 $41 $-1 $286 reversed single #
loop $-1 $-1 $287 $112 #
plane-surface $-1 0 -3.7811435813131249 0 0 1 0 0 0 1 forward_v I I I I #
coedge $-1 $288 $289 $290 $291 forward $113 $-1 #
coedge $-1 $292 $115 $293 $294 forward $72 $-1 #
coedge $-1 $115 $292 $295 $296 forward $72 $-1 #
coedge $-1 $297 $298 $115 $186 reversed $299 $-1 #
edge $-1 $300 -3.7811435813131249 $301 3.7811435813131249 $185 $302 forward 7 unknown #
loop $-1 $303 $304 $116 #
cone-surface $-1 0 0 0 0 0 1 0.5 0 0 1 I I -0.70710678118654746 0.70710678118654746 0.5 forward I I I I #
coedge $-1 $189 $189 $120 $191 forward $117 $-1 #
coedge $-1 $190 $190 $304 $305 forward $119 $-1 #
edge $-1 $306 0 $306 6.2831853071796004 $189 $307 forward 7 unknown #
loop $-1 $308 $309 $121 #
cone-surface $-1 0 0 0 0 0 1 0.5 0 0 1 I I -0.70710678118654746 0.70710678118654746 0.5 forward I I I I #
coedge $-1 $194 $194 $125 $196 forward $122 $-1 #
coedge $-1 $195 $195 $309 $310 forward $124 $-1 #
edge $-1 $311 0 $311 6.2831853071796004 $194 $312 forward 7 unknown #
face $-1 $313 $314 $44 $-1 $315 reversed single #
loop $-1 $-1 $316 $126 #
plane-surface $-1 0 -3.7811435813131249 0 0 1 0 0 0 1 forward_v I I I I #
coedge $-1 $317 $318 $319 $320 forward $127 $-1 #
coedge $-1 $321 $129 $322 $323 forward $81 $-1 #
coedge $-1 $129 $321 $324 $325 forward $81 $-1 #
coedge $-1 $326 $327 $129 $204 reversed $328 $-1 #
edge $-1 $329 -3.7811435813131249 $330 3.7811435813131249 $203 $331 forward 7 unknown #
loop $-1 $332 $333 $130 #
cone-surface $-1 0 0 0 0 0 1 0.5 0 0 1 I I -0.70710678118654746 0.70710678118654746 0.5 forward I I I I #
coedge $-1 $207 $207 $134 $209 forward $131 $-1 #
coedge $-1 $208 $208 $333 $334 forward $133 $-1 #
edge $-1 $335 0 $335 6.2831853071796004 $207 $336 forward 7 unknown #
loop $-1 $337 $338 $135 #
cone-surface $-1 0 0 0 0 0 1 0.5 0 0 1 I I -0.70710678118654746 0.70710678118654746 0.5 forward I I I I #
coedge $-1 $212 $212 $139 $214 forward $136 $-1 #
coedge $-1 $213 $213 $338 $339 forward $138 $-1 #
edge $-1 $340 0 $340 6.2831853071796004 $212 $341 forward 7 unknown #
face $-1 $342 $343 $47 $-1 $344 reversed single #
loop $-1 $-1 $345 $140 #
plane-surface $-1 0 -3.7811435813131249 0 0 1 0 0 0 1 forward_v I I I I #
coedge $-1 $346 $347 $348 $349 forward $141 $-1 #
coedge $-1 $350 $143 $351 $352 forward $90 $-1 #
coedge $-1 $143 $350 $353 $354 forward $90 $-1 #
coedge $-1 $355 $356 $143 $222 reversed $357 $-1 #
edge $-1 $358 -3.7811435813131249 $359 3.7811435813131249 $221 $360 forward 7 unknown #
loop $-1 $361 $362 $144 #
cone-surface $-1 0 0 0 0 0 1 0.5 0 0 1 I I -0.70710678118654746 0.70710678118654746 0.5 forward I I I I #
coedge $-1 $225 $225 $148 $227 forward $145 $-1 #
coedge $-1 $226 $226 $362 $363 forward $147 $-1 #
edge $-1 $364 0 $364 6.2831853071796004 $225 $365 forward 7 unknown #
loop $-1 $366 $367 $149 #
cone-surface $-1 0 0 0 0 0 1 0.5 0 0 1 I I -0.70710678118654746 0.70710678118654746 0.5 forward I I I I #
coedge $-1 $230 $230 $153 $232 forward $150 $-1 #
coedge $-1 $231 $231 $367 $368 forward $152 $-1 #
edge $-1 $369 0 $369 6.2831853071796004 $230 $370 forward 7 unknown #
face $-1 $371 $372 $50 $-1 $373 reversed single #
loop $-1 $-1 $374 $154 #
plane-surface $-1 0 -4.7701618357400175 0 0 1 0 0 0 1 forward_v I I I I #
coedge $-1 $375 $376 $377 $378 forward $155 $-1 #
coedge $-1 $379 $157 $380 $381 forward $99 $-1 #
coedge $-1 $157 $379 $382 $383 forward $99 $-1 #
coedge $-1 $384 $385 $157 $240 reversed $386 $-1 #
edge $-1 $387 -4.7701618357400175 $388 4.7701618357400175 $239 $389 forward 7 unknown #
loop $-1 $390 $391 $158 #
cone-surface $-1 0 0 0 0 0 1 0.25 0 0 1 I I -0.70710678118654746 0.70710678118654746 0.25 forward I I I I #
coedge $-1 $243 $243 $162 $245 forward $159 $-1 #
coedge $-1 $244 $244 $391 $392 forward $161 $-1 #
edge $-1 $393 0 $393 6.2831853071796004 $243 $394 forward 7 unknown #
face $-1 $395 $396 $39 $-1 $397 reversed single #
loop $-1 $-1 $398 $163 #
plane-surface $-1 -42.850428785058135 0 0 1 0 0 0 0 -1 forward_v I I I I #
coedge $-1 $399 $257 $400 $401 forward $164 $-1 #
coedge $-1 $402 $166 $399 $403 forward $105 $-1 #
coedge $-1 $166 $402 $404 $405 forward $105 $-1 #
coedge $-1 $260 $259 $166 $253 reversed $261 $-1 #
edge $-1 $406 -21.041395280360891 $407 21.041395280360891 $252 $408 forward 7 unknown #
coedge $-1 $168 $167 $409 $410 forward $66 $-1 #
coedge $-1 $411 $412 $167 $256 reversed $396 $-1 #
edge $-1 $263 -42.850428785058135 $413 42.850428785058135 $255 $414 forward 7 unknown #
coedge $-1 $249 $415 $168 $258 reversed $164 $-1 #
edge $-1 $416 -42.850428785058135 $262 42.850428785058135 $257 $417 forward 7 unknown #
coedge $-1 $252 $169 $415 $418 forward $261 $-1 #
coedge $-1 $169 $252 $411 $419 reversed $261 $-1 #
loop $-1 $-1 $259 $395 #
vertex $-1 $170 $420 #
vertex $-1 $170 $421 #
straight-curve $-1 42.850428785058135 0 4.9482308301607389 0 1 0 I I #
face $-1 $422 $423 $40 $-1 $424 reversed single #
loop $-1 $-1 $425 $171 #
plane-surface $-1 -42.850428785058135 0 0 1 0 0 0 0 -1 forward_v I I I I #
coedge $-1 $426 $276 $427 $428 forward $172 $-1 #
coedge $-1 $429 $174 $426 $430 forward $109 $-1 #
coedge $-1 $174 $429 $431 $432 forward $109 $-1 #
coedge $-1 $279 $278 $174 $272 reversed $280 $-1 #
edge $-1 $433 -3.0684890437020393 $434 3.0684890437020393 $271 $435 forward 7 unknown #
coedge $-1 $176 $175 $436 $437 forward $69 $-1 #
coedge $-1 $438 $439 $175 $275 reversed $423 $-1 #
edge $-1 $282 -42.850428785058135 $440 42.850428785058135 $274 $441 forward 7 unknown #
coedge $-1 $268 $442 $176 $277 reversed $172 $-1 #
edge $-1 $443 -42.850428785058135 $281 42.850428785058135 $276 $444 forward 7 unknown #
coedge $-1 $271 $177 $442 $445 forward $280 $-1 #
coedge $-1 $177 $271 $438 $446 reversed $280 $-1 #
loop $-1 $-1 $278 $422 #
vertex $-1 $178 $447 #
vertex $-1 $178 $448 #
straight-curve $-1 42.850428785058135 0 1.5 0 1 0 I I #
face $-1 $449 $450 $41 $-1 $451 reversed single #
loop $-1 $-1 $452 $179 #
plane-surface $-1 -171.40171514023254 0 0 1 0 0 0 0 -1 forward_v I I I I #
coedge $-1 $453 $295 $454 $455 forward $180 $-1 #
coedge $-1 $456 $182 $453 $457 forward $113 $-1 #
coedge $-1 $182 $456 $458 $459 forward $113 $-1 #
coedge $-1 $298 $297 $182 $291 reversed $299 $-1 #
edge $-1 $460 -3.7811435813131249 $461 3.7811435813131249 $290 $462 forward 7 unknown #
coedge $-1 $184 $183 $463 $464 forward $72 $-1 #
coedge $-1 $465 $466 $183 $294 reversed $450 $-1 #
edge $-1 $301 -171.40171514023254 $467 171.40171514023254 $293 $468 forward 7 unknown #
coedge $-1 $287 $469 $184 $296 reversed $180 $-1 #
edge $-1 $470 -171.40171514023254 $300 171.40171514023254 $295 $471 forward 7 unknown #
coedge $-1 $290 $185 $469 $472 forward $299 $-1 #
coedge $-1 $185 $290 $465 $473 reversed $299 $-1 #
loop $-1 $-1 $297 $449 #
vertex $-1 $186 $474 #
vertex $-1 $186 $475 #
straight-curve $-1 171.40171514023254 0 85.70085757011627 0 1 0 I I #
loop $-1 $-1 $476 $116 #
coedge $-1 $304 $304 $190 $305 reversed $187 $-1 #
edge $-1 $477 0 $477 6.2831853071796004 $304 $478 forward 7 unknown #
vertex $-1 $191 $479 #
ellipse-curve $-1 0 0 -4.3086489455854977 0 0 -1 1 0 0 1 I I #
loop $-1 $-1 $480 $121 #
coedge $-1 $309 $309 $195 $310 reversed $192 $-1 #
edge $-1 $481 0 $481 6.2831853071796004 $309 $482 forward 7 unknown #
vertex $-1 $196 $483 #
ellipse-curve $-1 0 0 -4.3086489455854977 0 0 -1 1 0 0 1 I I #
face $-1 $484 $485 $44 $-1 $486 reversed single #
loop $-1 $-1 $487 $197 #
plane-surface $-1 -171.40171514023254 0 0 1 0 0 0 0 -1 forward_v I I I I #
coedge $-1 $488 $324 $489 $490 forward $198 $-1 #
coedge $-1 $491 $200 $488 $492 forward $127 $-1 #
coedge $-1 $200 $491 $493 $494 forward $127 $-1 #
coedge $-1 $327 $326 $200 $320 reversed $328 $-1 #
edge $-1 $495 -3.7811435813131249 $496 3.7811435813131249 $319 $497 forward 7 unknown #
coedge $-1 $202 $201 $498 $499 forward $81 $-1 #
coedge $-1 $500 $501 $201 $323 reversed $485 $-1 #
edge $-1 $330 -171.40171514023254 $502 171.40171514023254 $322 $503 forward 7 unknown #
coedge $-1 $316 $504 $202 $325 reversed $198 $-1 #
edge $-1 $505 -171.40171514023254 $329 171.40171514023254 $324 $506 forward 7 unknown #
coedge $-1 $319 $203 $504 $507 forward $328 $-1 #
coedge $-1 $203 $319 $500 $508 reversed $328 $-1 #
loop $-1 $-1 $326 $484 #
vertex $-1 $204 $509 #
vertex $-1 $204 $510 #
straight-curve $-1 171.40171514023254 0 85.70085757011627 0 1 0 I I #
loop $-1 $-1 $511 $130 #
coedge $-1 $333 $333 $208 $334 reversed $205 $-1 #
edge $-1 $512 0 $512 6.2831853071796004 $333 $513 forward 7 unknown #
vertex $-1 $209 $514 #
ellipse-curve $-1 0 0 -4.3086489455854977 0 0 -1 1 0 0 1 I I #
loop $-1 $-1 $515 $135 #
coedge $-1 $338 $338 $213 $339 reversed $210 $-1 #
edge $-1 $516 0 $516 6.2831853071796004 $338 $517 forward 7 unknown #
vertex $-1 $214 $518 #
ellipse-curve $-1 0 0 -4.3086489455854977 0 0 -1 1 0 0 1 I I #
face $-1 $519 $520 $47 $-1 $521 reversed single #
loop $-1 $-1 $522 $215 #
plane-surface $-1 -171.40171514023254 0 0 1 0 0 0 0 -1 forward_v I I I I #
coedge $-1 $523 $353 $524 $525 forward $216 $-1 #
coedge $-1 $526 $218 $523 $527 forward $141 $-1 #
coedge $-1 $218 $526 $528 $529 forward $141 $-1 #
coedge $-1 $356 $355 $218 $349 reversed $357 $-1 #
edge $-1 $530 -3.7811435813131249 $531 3.7811435813131249 $348 $532 forward 7 unknown #
coedge $-1 $220 $219 $533 $534 forward $90 $-1 #
coedge $-1 $535 $536 $219 $352 reversed $520 $-1 #
edge $-1 $359 -171.40171514023254 $537 171.40171514023254 $351 $538 forward 7 unknown #
coedge $-1 $345 $539 $220 $354 reversed $216 $-1 #
edge $-1 $540 -171.40171514023254 $358 171.40171514023254 $353 $541 forward 7 unknown #
coedge $-1 $348 $221 $539 $542 forward $357 $-1 #
coedge $-1 $221 $348 $535 $543 reversed $357 $-1 #
loop $-1 $-1 $355 $519 #
vertex $-1 $222 $544 #
vertex $-1 $222 $545 #
straight-curve $-1 171.40171514023254 0 85.70085757011627 0 1 0 I I #
loop $-1 $-1 $546 $144 #
coedge $-1 $362 $362 $226 $363 reversed $223 $-1 #
edge $-1 $547 0 $547 6.2831853071796004 $362 $548 forward 7 unknown #
vertex $-1 $227 $549 #
ellipse-curve $-1 0 0 -4.3086489455854977 0 0 -1 1 0 0 1 I I #
loop $-1 $-1 $550 $149 #
coedge $-1 $367 $367 $231 $368 reversed $228 $-1 #
edge $-1 $551 0 $551 6.2831853071796004 $367 $552 forward 7 unknown #
vertex $-1 $232 $553 #
ellipse-curve $-1 0 0 -4.3086489455854977 0 0 -1 1 0 0 1 I I #
face $-1 $554 $555 $50 $-1 $556 reversed single #
loop $-1 $-1 $557 $233 #
plane-surface $-1 -171.40171514023254 0 0 1 0 0 0 0 -1 forward_v I I I I #
coedge $-1 $558 $382 $559 $560 forward $234 $-1 #
coedge $-1 $561 $236 $558 $562 forward $155 $-1 #
coedge $-1 $236 $561 $563 $564 forward $155 $-1 #
coedge $-1 $385 $384 $236 $378 reversed $386 $-1 #
edge $-1 $565 -4.7701618357400175 $566 4.7701618357400175 $377 $567 forward 7 unknown #
coedge $-1 $238 $237 $568 $569 forward $99 $-1 #
coedge $-1 $570 $571 $237 $381 reversed $555 $-1 #
edge $-1 $388 -171.40171514023254 $572 171.40171514023254 $380 $573 forward 7 unknown #
coedge $-1 $374 $574 $238 $383 reversed $234 $-1 #
edge $-1 $575 -171.40171514023254 $387 171.40171514023254 $382 $576 forward 7 unknown #
coedge $-1 $377 $239 $574 $577 forward $386 $-1 #
coedge $-1 $239 $377 $570 $578 reversed $386 $-1 #
loop $-1 $-1 $384 $554 #
vertex $-1 $240 $579 #
vertex $-1 $240 $580 #
straight-curve $-1 171.40171514023254 0 85.70085757011627 0 1 0 I I #
loop $-1 $-1 $581 $158 #
coedge $-1 $391 $391 $244 $392 reversed $241 $-1 #
edge $-1 $582 0 $582 6.2831853071796004 $391 $583 forward 7 unknown #
vertex $-1 $245 $584 #
ellipse-curve $-1 0 0 -2.0159840693380531 0 0 -1 0.5 0 0 1 I I #
face $-1 $-1 $261 $39 $-1 $585 reversed single #
loop $-1 $-1 $411 $246 #
plane-surface $-1 0 21.041395280360891 0 0 -1 0 0 0 -1 forward_v I I I I #
coedge $-1 $586 $409 $412 $587 forward $247 $-1 #
coedge $-1 $415 $249 $250 $403 reversed $164 $-1 #
coedge $-1 $409 $586 $249 $401 reversed $247 $-1 #
edge $-1 $416 -4.9482308301607389 $588 4.9482308301607389 $400 $589 forward 7 unknown #
coedge $-1 $251 $250 $586 $590 forward $105 $-1 #
edge $-1 $407 -42.850428785058135 $588 42.850428785058135 $399 $591 forward 7 unknown #
coedge $-1 $412 $411 $251 $405 reversed $396 $-1 #
edge $-1 $592 -42.850428785058135 $406 42.850428785058135 $404 $593 forward 7 unknown #
vertex $-1 $253 $594 #
vertex $-1 $418 $595 #
straight-curve $-1 42.850428785058135 0 -4.9482308301607389 0 -1 0 I I #
coedge $-1 $398 $400 $254 $410 reversed $247 $-1 #
edge $-1 $413 -21.041395280360891 $416 21.041395280360891 $409 $596 forward 7 unknown #
coedge $-1 $404 $255 $260 $419 forward $396 $-1 #
coedge $-1 $255 $404 $398 $587 reversed $396 $-1 #
vertex $-1 $256 $597 #
straight-curve $-1 0 21.041395280360891 4.9482308301607389 -1 0 0 I I #
coedge $-1 $257 $399 $259 $418 reversed $164 $-1 #
vertex $-1 $410 $598 #
straight-curve $-1 0 -21.041395280360891 4.9482308301607389 1 0 0 I I #
edge $-1 $262 -4.9482308301607389 $407 4.9482308301607389 $259 $599 forward 7 unknown #
edge $-1 $263 -4.9482308301607389 $406 4.9482308301607389 $260 $600 forward 7 unknown #
point $-1 42.850428785058135 -21.041395280360891 4.9482308301607389 #
point $-1 42.850428785058135 21.041395280360891 4.9482308301607389 #
face $-1 $-1 $280 $40 $-1 $601 reversed single #
loop $-1 $-1 $438 $265 #
plane-surface $-1 0 3.0684890437020393 0 0 -1 0 0 0 -1 forward_v I I I I #
coedge $-1 $602 $436 $439 $603 forward $266 $-1 #
coedge $-1 $442 $268 $269 $430 reversed $172 $-1 #
coedge $-1 $436 $602 $268 $428 reversed $266 $-1 #
edge $-1 $443 -1.5 $604 1.5 $427 $605 forward 7 unknown #
coedge $-1 $270 $269 $602 $606 forward $109 $-1 #
edge $-1 $434 -42.850428785058135 $604 42.850428785058135 $426 $607 forward 7 unknown #
coedge $-1 $439 $438 $270 $432 reversed $423 $-1 #
edge $-1 $608 -42.850428785058135 $433 42.850428785058135 $431 $609 forward 7 unknown #
vertex $-1 $272 $610 #
vertex $-1 $445 $611 #
straight-curve $-1 42.850428785058135 0 -1.5 0 -1 0 I I #
coedge $-1 $425 $427 $273 $437 reversed $266 $-1 #
edge $-1 $440 -3.0684890437020393 $443 3.0684890437020393 $436 $612 forward 7 unknown #
coedge $-1 $431 $274 $279 $446 forward $423 $-1 #
coedge $-1 $274 $431 $425 $603 reversed $423 $-1 #
vertex $-1 $275 $613 #
straight-curve $-1 0 3.0684890437020393 1.5 -1 0 0 I I #
coedge $-1 $276 $426 $278 $445 reversed $172 $-1 #
vertex $-1 $437 $614 #
straight-curve $-1 0 -3.0684890437020393 1.5 1 0 0 I I #
edge $-1 $281 -1.5 $434 1.5 $278 $615 forward 7 unknown #
edge $-1 $282 -1.5 $433 1.5 $279 $616 forward 7 unknown #
point $-1 42.850428785058135 -3.0684890437020393 1.5 #
point $-1 42.850428785058135 3.0684890437020393 1.5 #
face $-1 $-1 $299 $41 $-1 $617 reversed single #
loop $-1 $-1 $465 $284 #
plane-surface $-1 0 3.7811435813131249 0 0 -1 0 0 0 -1 forward_v I I I I #
coedge $-1 $618 $463 $466 $619 forward $285 $-1 #
coedge $-1 $469 $287 $288 $457 reversed $180 $-1 #
coedge $-1 $463 $618 $287 $455 reversed $285 $-1 #
edge $-1 $470 -85.70085757011627 $620 85.70085757011627 $454 $621 forward 7 unknown #
coedge $-1 $289 $288 $618 $622 forward $113 $-1 #
edge $-1 $461 -171.40171514023254 $620 171.40171514023254 $453 $623 forward 7 unknown #
coedge $-1 $466 $465 $289 $459 reversed $450 $-1 #
edge $-1 $624 -171.40171514023254 $460 171.40171514023254 $458 $625 forward 7 unknown #
vertex $-1 $291 $626 #
vertex $-1 $472 $627 #
straight-curve $-1 171.40171514023254 0 -85.70085757011627 0 -1 0 I I #
coedge $-1 $452 $454 $292 $464 reversed $285 $-1 #
edge $-1 $467 -3.7811435813131249 $470 3.7811435813131249 $463 $628 forward 7 unknown #
coedge $-1 $458 $293 $298 $473 forward $450 $-1 #
coedge $-1 $293 $458 $452 $619 reversed $450 $-1 #
vertex $-1 $294 $629 #
straight-curve $-1 0 3.7811435813131249 85.70085757011627 -1 0 0 I I #
coedge $-1 $295 $453 $297 $472 reversed $180 $-1 #
vertex $-1 $464 $630 #
straight-curve $-1 0 -3.7811435813131249 85.70085757011627 1 0 0 I I #
edge $-1 $300 -85.70085757011627 $461 85.70085757011627 $297 $631 forward 7 unknown #
edge $-1 $301 -85.70085757011627 $460 85.70085757011627 $298 $632 forward 7 unknown #
point $-1 171.40171514023254 -3.7811435813131249 85.70085757011627 #
point $-1 171.40171514023254 3.7811435813131249 85.70085757011627 #
coedge $-1 $476 $476 $-1 $633 reversed $303 $-1 #
vertex $-1 $305 $634 #
ellipse-curve $-1 0 0 -0.5 0 0 -1 1 0 0 1 I I #
point $-1 1 0 -4.3086489455854977 #
coedge $-1 $480 $480 $-1 $635 reversed $308 $-1 #
vertex $-1 $310 $636 #
ellipse-curve $-1 0 0 -0.5 0 0 -1 1 0 0 1 I I #
point $-1 1 0 -4.3086489455854977 #
face $-1 $-1 $328 $44 $-1 $637 reversed single #
loop $-1 $-1 $500 $313 #
plane-surface $-1 0 3.7811435813131249 0 0 -1 0 0 0 -1 forward_v I I I I #
coedge $-1 $638 $498 $501 $639 forward $314 $-1 #
coedge $-1 $504 $316 $317 $492 reversed $198 $-1 #
coedge $-1 $498 $638 $316 $490 reversed $314 $-1 #
edge $-1 $505 -85.70085757011627 $640 85.70085757011627 $489 $641 forward 7 unknown #
coedge $-1 $318 $317 $638 $642 forward $127 $-1 #
edge $-1 $496 -171.40171514023254 $640 171.40171514023254 $488 $643 forward 7 unknown #
coedge $-1 $501 $500 $318 $494 reversed $485 $-1 #
edge $-1 $644 -171.40171514023254 $495 171.40171514023254 $493 $645 forward 7 unknown #
vertex $-1 $320 $646 #
vertex $-1 $507 $647 #
straight-curve $-1 171.40171514023254 0 -85.70085757011627 0 -1 0 I I #
coedge $-1 $487 $489 $321 $499 reversed $314 $-1 #
edge $-1 $502 -3.7811435813131249 $505 3.7811435813131249 $498 $648 forward 7 unknown #
coedge $-1 $493 $322 $327 $508 forward $485 $-1 #
coedge $-1 $322 $493 $487 $639 reversed $485 $-1 #
vertex $-1 $323 $649 #
straight-curve $-1 0 3.7811435813131249 85.70085757011627 -1 0 0 I I #
coedge $-1 $324 $488 $326 $507 reversed $198 $-1 #
vertex $-1 $499 $650 #
straight-curve $-1 0 -3.7811435813131249 85.70085757011627 1 0 0 I I #
edge $-1 $329 -85.70085757011627 $496 85.70085757011627 $326 $651 forward 7 unknown #
edge $-1 $330 -85.70085757011627 $495 85.70085757011627 $327 $652 forward 7 unknown #
point $-1 171.40171514023254 -3.7811435813131249 85.70085757011627 #
point $-1 171.40171514023254 3.7811435813131249 85.70085757011627 #
coedge $-1 $511 $511 $-1 $653 reversed $332 $-1 #
vertex $-1 $334 $654 #
ellipse-curve $-1 0 0 -0.5 0 0 -1 1 0 0 1 I I #
point $-1 1 0 -4.3086489455854977 #
coedge $-1 $515 $515 $-1 $655 reversed $337 $-1 #
vertex $-1 $339 $656 #
ellipse-curve $-1 0 0 -0.5 0 0 -1 1 0 0 1 I I #
point $-1 1 0 -4.3086489455854977 #
face $-1 $-1 $357 $47 $-1 $657 reversed single #
loop $-1 $-1 $535 $342 #
plane-surface $-1 0 3.7811435813131249 0 0 -1 0 0 0 -1 forward_v I I I I #
coedge $-1 $658 $533 $536 $659 forward $343 $-1 #
coedge $-1 $539 $345 $346 $527 reversed $216 $-1 #
coedge $-1 $533 $658 $345 $525 reversed $343 $-1 #
edge $-1 $540 -85.70085757011627 $660 85.70085757011627 $524 $661 forward 7 unknown #
coedge $-1 $347 $346 $658 $662 forward $141 $-1 #
edge $-1 $531 -171.40171514023254 $660 171.40171514023254 $523 $663 forward 7 unknown #
coedge $-1 $536 $535 $347 $529 reversed $520 $-1 #
edge $-1 $664 -171.40171514023254 $530 171.40171514023254 $528 $665 forward 7 unknown #
vertex $-1 $349 $666 #
vertex $-1 $542 $667 #
straight-curve $-1 171.40171514023254 0 -85.70085757011627 0 -1 0 I I #
coedge $-1 $522 $524 $350 $534 reversed $343 $-1 #
edge $-1 $537 -3.7811435813131249 $540 3.7811435813131249 $533 $668 forward 7 unknown #
coedge $-1 $528 $351 $356 $543 forward $520 $-1 #
coedge $-1 $351 $528 $522 $659 reversed $520 $-1 #
vertex $-1 $352 $669 #
straight-curve $-1 0 3.7811435813131249 85.70085757011627 -1 0 0 I I #
coedge $-1 $353 $523 $355 $542 reversed $216 $-1 #
vertex $-1 $534 $670 #
straight-curve $-1 0 -3.7811435813131249 85.70085757011627 1 0 0 I I #
edge $-1 $358 -85.70085757011627 $531 85.70085757011627 $355 $671 forward 7 unknown #
edge $-1 $359 -85.70085757011627 $530 85.70085757011627 $356 $672 forward 7 unknown #
point $-1 171.40171514023254 -3.7811435813131249 85.70085757011627 #
point $-1 171.40171514023254 3.7811435813131249 85.70085757011627 #
coedge $-1 $546 $546 $-1 $673 reversed $361 $-1 #
vertex $-1 $363 $674 #
ellipse-curve $-1 0 0 -0.5 0 0 -1 1 0 0 1 I I #
point $-1 1 0 -4.3086489455854977 #
coedge $-1 $550 $550 $-1 $675 reversed $366 $-1 #
vertex $-1 $368 $676 #
ellipse-curve $-1 0 0 -0.5 0 0 -1 1 0 0 1 I I #
point $-1 1 0 -4.3086489455854977 #
face $-1 $-1 $386 $50 $-1 $677 reversed single #
loop $-1 $-1 $570 $371 #
plane-surface $-1 0 4.7701618357400175 0 0 -1 0 0 0 -1 forward_v I I I I #
coedge $-1 $678 $568 $571 $679 forward $372 $-1 #
coedge $-1 $574 $374 $375 $562 reversed $234 $-1 #
coedge $-1 $568 $678 $374 $560 reversed $372 $-1 #
edge $-1 $575 -85.70085757011627 $680 85.70085757011627 $559 $681 forward 7 unknown #
coedge $-1 $376 $375 $678 $682 forward $155 $-1 #
edge $-1 $566 -171.40171514023254 $680 171.40171514023254 $558 $683 forward 7 unknown #
coedge $-1 $571 $570 $376 $564 reversed $555 $-1 #
edge $-1 $684 -171.40171514023254 $565 171.40171514023254 $563 $685 forward 7 unknown #
vertex $-1 $378 $686 #
vertex $-1 $577 $687 #
straight-curve $-1 171.40171514023254 0 -85.70085757011627 0 -1 0 I I #
coedge $-1 $557 $559 $379 $569 reversed $372 $-1 #
edge $-1 $572 -4.7701618357400175 $575 4.7701618357400175 $568 $688 forward 7 unknown #
coedge $-1 $563 $380 $385 $578 forward $555 $-1 #
coedge $-1 $380 $563 $557 $679 reversed $555 $-1 #
vertex $-1 $381 $689 #
straight-curve $-1 0 4.7701618357400175 85.70085757011627 -1 0 0 I I #
coedge $-1 $382 $558 $384 $577 reversed $234 $-1 #
vertex $-1 $569 $690 #
straight-curve $-1 0 -4.7701618357400175 85.70085757011627 1 0 0 I I #
edge $-1 $387 -85.70085757011627 $566 85.70085757011627 $384 $691 forward 7 unknown #
edge $-1 $388 -85.70085757011627 $565 85.70085757011627 $385 $692 forward 7 unknown #
point $-1 171.40171514023254 -4.7701618357400175 85.70085757011627 #
point $-1 171.40171514023254 4.7701618357400175 85.70085757011627 #
coedge $-1 $581 $581 $-1 $693 reversed $390 $-1 #
vertex $-1 $392 $694 #
ellipse-curve $-1 0 0 -0.25 0 0 -1 0.5 0 0 1 I I #
point $-1 0.5 0 -2.0159840693380531 #
plane-surface $-1 42.850428785058135 0 0 -1 0 0 0 0 1 forward_v I I I I #
coedge $-1 $400 $398 $402 $590 reversed $247 $-1 #
edge $-1 $413 -4.9482308301607389 $592 4.9482308301607389 $412 $695 forward 7 unknown #
vertex $-1 $590 $696 #
straight-curve $-1 -42.850428785058135 -21.041395280360891 0 0 0 -1 I I #
edge $-1 $588 -21.041395280360891 $592 21.041395280360891 $586 $697 forward 7 unknown #
straight-curve $-1 0 -21.041395280360891 -4.9482308301607389 -1 0 0 I I #
vertex $-1 $405 $698 #
straight-curve $-1 0 21.041395280360891 -4.9482308301607389 1 0 0 I I #
point $-1 42.850428785058135 21.041395280360891 -4.9482308301607389 #
point $-1 42.850428785058135 -21.041395280360891 -4.9482308301607389 #
straight-curve $-1 -42.850428785058135 0 4.9482308301607389 0 -1 0 I I #
point $-1 -42.850428785058135 21.041395280360891 4.9482308301607389 #
point $-1 -42.850428785058135 -21.041395280360891 4.9482308301607389 #
straight-curve $-1 42.850428785058135 -21.041395280360891 0 0 0 -1 I I #
straight-curve $-1 42.850428785058135 21.041395280360891 0 0 0 -1 I I #
plane-surface $-1 42.850428785058135 0 0 -1 0 0 0 0 1 forward_v I I I I #
coedge $-1 $427 $425 $429 $606 reversed $266 $-1 #
edge $-1 $440 -1.5 $608 1.5 $439 $699 forward 7 unknown #
vertex $-1 $606 $700 #
straight-curve $-1 -42.850428785058135 -3.0684890437020393 0 0 0 -1 I I #
edge $-1 $604 -3.0684890437020393 $608 3.0684890437020393 $602 $701 forward 7 unknown #
straight-curve $-1 0 -3.0684890437020393 -1.5 -1 0 0 I I #
vertex $-1 $432 $702 #
straight-curve $-1 0 3.0684890437020393 -1.5 1 0 0 I I #
point $-1 42.850428785058135 3.0684890437020393 -1.5 #
point $-1 42.850428785058135 -3.0684890437020393 -1.5 #
straight-curve $-1 -42.850428785058135 0 1.5 0 -1 0 I I #
point $-1 -42.850428785058135 3.0684890437020393 1.5 #
point $-1 -42.850428785058135 -3.0684890437020393 1.5 #
straight-curve $-1 42.850428785058135 -3.0684890437020393 0 0 0 -1 I I #
straight-curve $-1 42.850428785058135 3.0684890437020393 0 0 0 -1 I I #
plane-surface $-1 171.40171514023254 0 0 -1 0 0 0 0 1 forward_v I I I I #
coedge $-1 $454 $452 $456 $622 reversed $285 $-1 #
edge $-1 $467 -85.70085757011627 $624 85.70085757011627 $466 $703 forward 7 unknown #
vertex $-1 $622 $704 #
straight-curve $-1 -171.40171514023254 -3.7811435813131249 0 0 0 -1 I I #
edge $-1 $620 -3.7811435813131249 $624 3.7811435813131249 $618 $705 forward 7 unknown #
straight-curve $-1 0 -3.7811435813131249 -85.70085757011627 -1 0 0 I I #
vertex $-1 $459 $706 #
straight-curve $-1 0 3.7811435813131249 -85.70085757011627 1 0 0 I I #
point $-1 171.40171514023254 3.7811435813131249 -85.70085757011627 #
point $-1 171.40171514023254 -3.7811435813131249 -85.70085757011627 #
straight-curve $-1 -171.40171514023254 0 85.70085757011627 0 -1 0 I I #
point $-1 -171.40171514023254 3.7811435813131249 85.70085757011627 #
point $-1 -171.40171514023254 -3.7811435813131249 85.70085757011627 #
straight-curve $-1 171.40171514023254 -3.7811435813131249 0 0 0 -1 I I #
straight-curve $-1 171.40171514023254 3.7811435813131249 0 0 0 -1 I I #
edge $-1 $707 1 $707 0 $476 $-1 forward 7 unknown #
point $-1 1 0 -0.5 #
edge $-1 $708 1 $708 0 $480 $-1 forward 7 unknown #
point $-1 1 0 -0.5 #
plane-surface $-1 171.40171514023254 0 0 -1 0 0 0 0 1 forward_v I I I I #
coedge $-1 $489 $487 $491 $642 reversed $314 $-1 #
edge $-1 $502 -85.70085757011627 $644 85.70085757011627 $501 $709 forward 7 unknown #
vertex $-1 $642 $710 #
straight-curve $-1 -171.40171514023254 -3.7811435813131249 0 0 0 -1 I I #
edge $-1 $640 -3.7811435813131249 $644 3.7811435813131249 $638 $711 forward 7 unknown #
straight-curve $-1 0 -3.7811435813131249 -85.70085757011627 -1 0 0 I I #
vertex $-1 $494 $712 #
straight-curve $-1 0 3.7811435813131249 -85.70085757011627 1 0 0 I I #
point $-1 171.40171514023254 3.7811435813131249 -85.70085757011627 #
point $-1 171.40171514023254 -3.7811435813131249 -85.70085757011627 #
straight-curve $-1 -171.40171514023254 0 85.70085757011627 0 -1 0 I I #
point $-1 -171.40171514023254 3.7811435813131249 85.70085757011627 #
point $-1 -171.40171514023254 -3.7811435813131249 85.70085757011627 #
straight-curve $-1 171.40171514023254 -3.7811435813131249 0 0 0 -1 I I #
straight-curve $-1 171.40171514023254 3.7811435813131249 0 0 0 -1 I I #
edge $-1 $713 1 $713 0 $511 $-1 forward 7 unknown #
point $-1 1 0 -0.5 #
edge $-1 $714 1 $714 0 $515 $-1 forward 7 unknown #
point $-1 1 0 -0.5 #
plane-surface $-1 171.40171514023254 0 0 -1 0 0 0 0 1 forward_v I I I I #
coedge $-1 $524 $522 $526 $662 reversed $343 $-1 #
edge $-1 $537 -85.70085757011627 $664 85.70085757011627 $536 $715 forward 7 unknown #
vertex $-1 $662 $716 #
straight-curve $-1 -171.40171514023254 -3.7811435813131249 0 0 0 -1 I I #
edge $-1 $660 -3.7811435813131249 $664 3.7811435813131249 $658 $717 forward 7 unknown #
straight-curve $-1 0 -3.7811435813131249 -85.70085757011627 -1 0 0 I I #
vertex $-1 $529 $718 #
straight-curve $-1 0 3.7811435813131249 -85.70085757011627 1 0 0 I I #
point $-1 171.40171514023254 3.7811435813131249 -85.70085757011627 #
point $-1 171.40171514023254 -3.7811435813131249 -85.70085757011627 #
straight-curve $-1 -171.40171514023254 0 85.70085757011627 0 -1 0 I I #
point $-1 -171.40171514023254 3.7811435813131249 85.70085757011627 #
point $-1 -171.40171514023254 -3.7811435813131249 85.70085757011627 #
straight-curve $-1 171.40171514023254 -3.7811435813131249 0 0 0 -1 I I #
straight-curve $-1 171.40171514023254 3.7811435813131249 0 0 0 -1 I I #
edge $-1 $719 1 $719 0 $546 $-1 forward 7 unknown #
point $-1 1 0 -0.5 #
edge $-1 $720 1 $720 0 $550 $-1 forward 7 unknown #
point $-1 1 0 -0.5 #
plane-surface $-1 171.40171514023254 0 0 -1 0 0 0 0 1 forward_v I I I I #
coedge $-1 $559 $557 $561 $682 reversed $372 $-1 #
edge $-1 $572 -85.70085757011627 $684 85.70085757011627 $571 $721 forward 7 unknown #
vertex $-1 $682 $722 #
straight-curve $-1 -171.40171514023254 -4.7701618357400175 0 0 0 -1 I I #
edge $-1 $680 -4.7701618357400175 $684 4.7701618357400175 $678 $723 forward 7 unknown #
straight-curve $-1 0 -4.7701618357400175 -85.70085757011627 -1 0 0 I I #
vertex $-1 $564 $724 #
straight-curve $-1 0 4.7701618357400175 -85.70085757011627 1 0 0 I I #
point $-1 171.40171514023254 4.7701618357400175 -85.70085757011627 #
point $-1 171.40171514023254 -4.7701618357400175 -85.70085757011627 #
straight-curve $-1 -171.40171514023254 0 85.70085757011627 0 -1 0 I I #
point $-1 -171.40171514023254 4.7701618357400175 85.70085757011627 #
point $-1 -171.40171514023254 -4.7701618357400175 85.70085757011627 #
straight-curve $-1 171.40171514023254 -4.7701618357400175 0 0 0 -1 I I #
straight-curve $-1 171.40171514023254 4.7701618357400175 0 0 0 -1 I I #
edge $-1 $725 1 $725 0 $581 $-1 forward 7 unknown #
point $-1 0.5 0 -0.25 #
straight-curve $-1 -42.850428785058135 21.041395280360891 0 0 0 -1 I I #
point $-1 -42.850428785058135 -21.041395280360891 -4.9482308301607389 #
straight-curve $-1 -42.850428785058135 0 -4.9482308301607389 0 1 0 I I #
point $-1 -42.850428785058135 21.041395280360891 -4.9482308301607389 #
straight-curve $-1 -42.850428785058135 3.0684890437020393 0 0 0 -1 I I #
point $-1 -42.850428785058135 -3.0684890437020393 -1.5 #
straight-curve $-1 -42.850428785058135 0 -1.5 0 1 0 I I #
point $-1 -42.850428785058135 3.0684890437020393 -1.5 #
straight-curve $-1 -171.40171514023254 3.7811435813131249 0 0 0 -1 I I #
point $-1 -171.40171514023254 -3.7811435813131249 -85.70085757011627 #
straight-curve $-1 -171.40171514023254 0 -85.70085757011627 0 1 0 I I #
point $-1 -171.40171514023254 3.7811435813131249 -85.70085757011627 #
vertex $-1 $633 $726 #
vertex $-1 $635 $727 #
straight-curve $-1 -171.40171514023254 3.7811435813131249 0 0 0 -1 I I #
point $-1 -171.40171514023254 -3.7811435813131249 -85.70085757011627 #
straight-curve $-1 -171.40171514023254 0 -85.70085757011627 0 1 0 I I #
point $-1 -171.40171514023254 3.7811435813131249 -85.70085757011627 #
vertex $-1 $653 $728 #
vertex $-1 $655 $729 #
straight-curve $-1 -171.40171514023254 3.7811435813131249 0 0 0 -1 I I #
point $-1 -171.40171514023254 -3.7811435813131249 -85.70085757011627 #
straight-curve $-1 -171.40171514023254 0 -85.70085757011627 0 1 0 I I #
point $-1 -171.40171514023254 3.7811435813131249 -85.70085757011627 #
vertex $-1 $673 $730 #
vertex $-1 $675 $731 #
straight-curve $-1 -171.40171514023254 4.7701618357400175 0 0 0 -1 I I #
point $-1 -171.40171514023254 -4.7701618357400175 -85.70085757011627 #
straight-curve $-1 -171.40171514023254 0 -85.70085757011627 0 1 0 I I #
point $-1 -171.40171514023254 4.7701618357400175 -85.70085757011627 #
vertex $-1 $693 $732 #
point $-1 0 0 0.5 #
point $-1 0 0 0.5 #
point $-1 0 0 0.5 #
point $-1 0 0 0.5 #
point $-1 0 0 0.5 #
point $-1 0 0 0.5 #
point $-1 0 0 0.25 #
End-of-ACIS-data 