500 0 11 0           
7 Unknown 11 ACIS 5.0 NT 24 Fri Mar 26 15:06:27 1999 
-1 9.9999999999999995e-007 1e-010 
body $-1 $11 $-1 $12 #
body $-1 $13 $-1 $14 #
body $-1 $15 $-1 $16 #
body $-1 $17 $-1 $18 #
body $-1 $19 $-1 $20 #
body $-1 $21 $-1 $22 #
body $-1 $23 $-1 $24 #
body $-1 $25 $-1 $26 #
body $-1 $27 $-1 $28 #
body $-1 $29 $-1 $30 #
body $-1 $31 $-1 $32 #
lump $-1 $-1 $33 $0 #
transform $-1 1 0 0 0 1 0 0 0 1 43.435163426618246 24.63278943473064 9.6429999669216073 1 rotate no_reflect no_shear #
lump $-1 $-1 $34 $1 #
transform $-1 1 0 0 0 1 0 0 0 1 43.435163426618246 24.63278943473064 9.6429999669216073 1 rotate no_reflect no_shear #
lump $-1 $-1 $35 $2 #
transform $-1 1 0 0 0 1 0 0 0 1 43.435163426618246 24.63278943473064 9.6429999669216073 1 rotate no_reflect no_shear #
lump $-1 $-1 $36 $3 #
transform $-1 1 0 0 0 1 0 0 0 1 43.435163426618246 24.63278943473064 9.6429999669216073 1 rotate no_reflect no_shear #
lump $-1 $-1 $37 $4 #
transform $-1 1 0 0 0 1 0 0 0 1 43.435163426618246 24.63278943473064 9.6429999669216073 1 rotate no_reflect no_shear #
lump $-1 $-1 $38 $5 #
transform $-1 1 0 0 0 1 0 0 0 1 43.435163426618246 24.63278943473064 9.6429999669216073 1 rotate no_reflect no_shear #
lump $-1 $-1 $39 $6 #
transform $-1 1 0 0 0 1 0 0 0 1 43.435163426618246 24.63278943473064 9.6429999669216073 1 rotate no_reflect no_shear #
lump $-1 $-1 $40 $7 #
transform $-1 1 0 0 0 1 0 0 0 1 43.435163426618246 24.63278943473064 9.6429999669216073 1 rotate no_reflect no_shear #
lump $-1 $-1 $41 $8 #
transform $-1 1 0 0 0 1 0 0 0 1 43.435163426618246 24.63278943473064 9.6429999669216073 1 rotate no_reflect no_shear #
lump $-1 $-1 $42 $9 #
transform $-1 1 0 0 0 1 0 0 0 1 43.435163426618246 24.63278943473064 9.6429999669216073 1 rotate no_reflect no_shear #
lump $-1 $-1 $43 $10 #
transform $-1 1 0 0 0 1 0 0 0 1 43.435163426618246 24.63278943473064 9.6429999669216073 1 rotate no_reflect no_shear #
shell $-1 $-1 $-1 $44 $-1 $11 #
shell $-1 $-1 $-1 $45 $-1 $13 #
shell $-1 $-1 $-1 $46 $-1 $15 #
shell $-1 $-1 $-1 $47 $-1 $17 #
shell $-1 $-1 $-1 $48 $-1 $19 #
shell $-1 $-1 $-1 $49 $-1 $21 #
shell $-1 $-1 $-1 $50 $-1 $23 #
shell $-1 $-1 $-1 $51 $-1 $25 #
shell $-1 $-1 $-1 $52 $-1 $27 #
shell $-1 $-1 $-1 $53 $-1 $29 #
shell $-1 $-1 $-1 $54 $-1 $31 #
face $-1 $55 $56 $33 $-1 $57 forward single #
face $-1 $58 $59 $34 $-1 $60 forward single #
face $-1 $61 $62 $35 $-1 $63 reversed single #
face $-1 $64 $65 $36 $-1 $66 forward single #
face $-1 $67 $68 $37 $-1 $69 forward single #
face $-1 $70 $71 $38 $-1 $72 reversed single #
face $-1 $73 $74 $39 $-1 $75 forward single #
face $-1 $76 $77 $40 $-1 $78 forward single #
face $-1 $79 $80 $41 $-1 $81 reversed single #
face $-1 $82 $83 $42 $-1 $84 forward single #
face $-1 $85 $86 $43 $-1 $87 forward single #
face $-1 $88 $89 $33 $-1 $90 reversed single #
loop $-1 $-1 $91 $44 #
plane-surface $-1 0 0 9.6429999669216073 0 0 1 1 0 0 forward_v I I I I #
face $-1 $92 $93 $34 $-1 $94 reversed single #
loop $-1 $-1 $95 $45 #
plane-surface $-1 -38.918312436527515 0 2.4603359112466188 0 0 1 1 0 0 forward_v I I I I #
face $-1 $96 $97 $35 $-1 $98 reversed single #
loop $-1 $-1 $99 $46 #
plane-surface $-1 11.093014944243578 -91.179321312444969 57.045033445631177 1 0 0 0 0.7660444514056185 -0.64278759981090561 forward_v I I I I #
face $-1 $100 $101 $36 $-1 $102 forward single #
loop $-1 $103 $104 $47 #
cone-surface $-1 15.346238153064071 -19.31418833926141 3.9318397092462738 0 0.7660444514056185 -0.64278759981090561 2 0 0 1 I I 0 1 2 forward I I I I #
face $-1 $105 $106 $37 $-1 $107 forward single #
loop $-1 $108 $109 $48 #
cone-surface $-1 21.726072966294808 -19.31418833926141 3.9318397092462738 0 0.7660444514056185 -0.64278759981090561 2 0 0 1 I I 0 1 2 forward I I I I #
face $-1 $110 $111 $38 $-1 $112 reversed single #
loop $-1 $-1 $113 $49 #
plane-surface $-1 -22.423846965720614 57.873530701972371 99.911259560376934 1 0 0 0 -0.75470958851134928 -0.65605901945558964 forward_v I I I I #
face $-1 $114 $115 $39 $-1 $116 forward single #
loop $-1 $117 $118 $50 #
cone-surface $-1 -17.177546667020891 22.202180437456999 7.0530280129097811 0 -0.75470958851134928 -0.65605901945558964 0.5 0 0 1 I I 0 1 0.5 forward I I I I #
face $-1 $119 $120 $40 $-1 $121 forward single #
loop $-1 $122 $123 $51 #
cone-surface $-1 -9.3080962189713077 22.202180437456999 7.0530280129097811 0 -0.75470958851134928 -0.65605901945558964 0.5 0 0 1 I I 0 1 0.5 forward I I I I #
face $-1 $124 $125 $41 $-1 $126 reversed single #
loop $-1 $-1 $127 $52 #
plane-surface $-1 13.095497900453042 57.873530701972371 99.911259560376934 1 0 0 0 -0.75470958851134928 -0.65605901945558964 forward_v I I I I #
face $-1 $128 $129 $42 $-1 $130 forward single #
loop $-1 $131 $132 $53 #
cone-surface $-1 18.341798199152763 22.202180437456999 7.0530280129097811 0 -0.75470958851134928 -0.65605901945558964 0.5 0 0 1 I I 0 1 0.5 forward I I I I #
face $-1 $133 $134 $43 $-1 $135 forward single #
loop $-1 $136 $137 $54 #
cone-surface $-1 26.211248647202339 22.202180437456999 7.0530280129097811 0 -0.75470958851134928 -0.65605901945558964 0.5 0 0 1 I I 0 1 0.5 forward I I I I #
face $-1 $138 $139 $33 $-1 $140 reversed single #
loop $-1 $-1 $141 $55 #
plane-surface $-1 0 0 -9.6429999669216073 0 0 1 1 0 0 forward_v I I I I #
coedge $-1 $142 $143 $144 $145 forward $56 $-1 #
face $-1 $146 $147 $34 $-1 $148 reversed single #
loop $-1 $-1 $149 $58 #
plane-surface $-1 -38.918312436527515 0 -2.0939193360478741 0 0 1 1 0 0 forward_v I I I I #
coedge $-1 $150 $151 $152 $153 forward $59 $-1 #
face $-1 $154 $155 $35 $-1 $156 reversed single #
loop $-1 $-1 $157 $61 #
plane-surface $-1 18.536155559679443 -24.632789434730654 1.2058645528504286 0 -0.7660444514056185 0.64278759981090561 1 0 0 forward_v I I I I #
coedge $-1 $158 $159 $160 $161 reversed $62 $-1 #
face $-1 $-1 $162 $36 $-1 $163 forward single #
loop $-1 $164 $165 $64 #
cone-surface $-1 15.346238153064071 -16.769341306780341 1.7964595587956271 0 0.7660444514056185 -0.64278759981090561 1 0 0 1 I I -0.70710678118654746 0.70710678118654746 1 forward I I I I #
loop $-1 $-1 $166 $47 #
coedge $-1 $104 $104 $167 $168 reversed $65 $-1 #
face $-1 $-1 $169 $37 $-1 $170 forward single #
loop $-1 $171 $172 $67 #
cone-surface $-1 21.726072966294808 -16.769341306780341 1.7964595587956271 0 0.7660444514056185 -0.64278759981090561 1 0 0 1 I I -0.70710678118654746 0.70710678118654746 1 forward I I I I #
loop $-1 $-1 $173 $48 #
coedge $-1 $109 $109 $174 $175 reversed $68 $-1 #
face $-1 $176 $177 $38 $-1 $178 reversed single #
loop $-1 $-1 $179 $70 #
plane-surface $-1 -13.242821442996103 -7.6883379312801594 42.919198105256022 0 0.75470958851134928 0.65605901945558964 1 0 0 forward_v I I I I #
coedge $-1 $180 $181 $182 $183 reversed $71 $-1 #
face $-1 $-1 $184 $39 $-1 $185 forward single #
loop $-1 $186 $187 $73 #
cone-surface $-1 -17.177546667020891 21.280179231807828 6.2515446130391155 0 -0.75470958851134928 -0.65605901945558964 0.25 0 0 1 I I -0.70710678118654746 0.70710678118654746 0.25 forward I I I I #
loop $-1 $-1 $188 $50 #
coedge $-1 $118 $118 $189 $190 reversed $74 $-1 #
face $-1 $-1 $191 $40 $-1 $192 forward single #
loop $-1 $193 $194 $76 #
cone-surface $-1 -9.3080962189713077 21.280179231807828 6.2515446130391155 0 -0.75470958851134928 -0.65605901945558964 0.25 0 0 1 I I -0.70710678118654746 0.70710678118654746 0.25 forward I I I I #
loop $-1 $-1 $195 $51 #
coedge $-1 $123 $123 $196 $197 reversed $77 $-1 #
face $-1 $198 $199 $41 $-1 $200 reversed single #
loop $-1 $-1 $201 $79 #
plane-surface $-1 22.276523423177551 -7.6883379312801594 42.919198105256022 0 0.75470958851134928 0.65605901945558964 1 0 0 forward_v I I I I #
coedge $-1 $202 $203 $204 $205 reversed $80 $-1 #
face $-1 $-1 $206 $42 $-1 $207 forward single #
loop $-1 $208 $209 $82 #
cone-surface $-1 18.341798199152763 21.280179231807828 6.2515446130391155 0 -0.75470958851134928 -0.65605901945558964 0.25 0 0 1 I I -0.70710678118654746 0.70710678118654746 0.25 forward I I I I #
loop $-1 $-1 $210 $53 #
coedge $-1 $132 $132 $211 $212 reversed $83 $-1 #
face $-1 $-1 $213 $43 $-1 $214 forward single #
loop $-1 $215 $216 $85 #
cone-surface $-1 26.211248647202339 21.280179231807828 6.2515446130391155 0 -0.75470958851134928 -0.65605901945558964 0.25 0 0 1 I I -0.70710678118654746 0.70710678118654746 0.25 forward I I I I #
loop $-1 $-1 $217 $54 #
coedge $-1 $137 $137 $218 $219 reversed $86 $-1 #
face $-1 $220 $221 $33 $-1 $222 reversed single #
loop $-1 $-1 $223 $88 #
plane-surface $-1 0 -24.63278943473064 0 0 1 0 0 0 1 forward_v I I I I #
coedge $-1 $224 $225 $226 $227 forward $89 $-1 #
coedge $-1 $228 $91 $229 $230 forward $56 $-1 #
coedge $-1 $91 $228 $231 $232 forward $56 $-1 #
coedge $-1 $233 $234 $91 $145 reversed $235 $-1 #
edge $-1 $236 -24.63278943473064 $237 24.63278943473064 $144 $238 forward 7 unknown #
face $-1 $239 $240 $34 $-1 $241 reversed single #
loop $-1 $-1 $242 $92 #
plane-surface $-1 -34.401461446436784 0 0.18320828759937235 -1 0 0 0 0 1 forward_v I I I I #
coedge $-1 $243 $244 $245 $246 forward $93 $-1 #
coedge $-1 $247 $95 $248 $249 reversed $59 $-1 #
coedge $-1 $95 $247 $250 $251 reversed $59 $-1 #
coedge $-1 $242 $252 $95 $153 reversed $147 $-1 #
edge $-1 $253 -24.63278943473064 $254 24.63278943473064 $152 $255 forward 7 unknown #
face $-1 $256 $257 $35 $-1 $258 forward single #
loop $-1 $-1 $259 $96 #
plane-surface $-1 25.979296175115309 -91.179321312444969 57.045033445631177 -1 0 0 0 -0.7660444514056185 0.64278759981090561 forward_v I I I I #
coedge $-1 $260 $261 $262 $263 reversed $97 $-1 #
coedge $-1 $159 $99 $264 $265 reversed $62 $-1 #
coedge $-1 $99 $158 $260 $266 reversed $62 $-1 #
coedge $-1 $262 $267 $99 $161 forward $268 $-1 #
edge $-1 $269 18.879516755893981 $270 27.316652169965142 $160 $271 forward 7 unknown #
loop $-1 $-1 $167 $100 #
plane-surface $-1 18.536155559679443 -24.632789434730654 1.2058645528504286 0 -0.7660444514056185 0.64278759981090561 1 0 0 forward_v I I I I #
loop $-1 $-1 $272 $64 #
coedge $-1 $165 $165 $166 $273 reversed $101 $-1 #
coedge $-1 $166 $166 $165 $273 forward $103 $-1 #
coedge $-1 $167 $167 $104 $168 forward $162 $-1 #
edge $-1 $274 4.8497569520614378e-016 $274 6.2831853071796013 $167 $275 forward 7 unknown #
loop $-1 $-1 $174 $105 #
plane-surface $-1 18.536155559679443 -24.632789434730654 1.2058645528504286 0 -0.7660444514056185 0.64278759981090561 1 0 0 forward_v I I I I #
loop $-1 $-1 $276 $67 #
coedge $-1 $172 $172 $173 $277 reversed $106 $-1 #
coedge $-1 $173 $173 $172 $277 forward $108 $-1 #
coedge $-1 $174 $174 $109 $175 forward $169 $-1 #
edge $-1 $278 4.8497569520614378e-016 $278 6.2831853071796013 $174 $279 forward 7 unknown #
face $-1 $280 $281 $38 $-1 $282 reversed single #
loop $-1 $-1 $283 $110 #
plane-surface $-1 -4.0617959202715941 57.873530701972371 99.911259560376934 -1 0 0 0 0.75470958851134928 0.65605901945558964 forward_v I I I I #
coedge $-1 $284 $285 $286 $287 reversed $111 $-1 #
coedge $-1 $181 $113 $288 $289 reversed $71 $-1 #
coedge $-1 $113 $180 $284 $290 reversed $71 $-1 #
coedge $-1 $286 $291 $113 $183 forward $292 $-1 #
edge $-1 $293 4.3039759162555455 $294 7.6985462937601667 $182 $295 forward 7 unknown #
loop $-1 $-1 $189 $114 #
plane-surface $-1 -13.242821442996103 -7.6883379312801594 42.919198105256022 0 0.75470958851134928 0.65605901945558964 1 0 0 forward_v I I I I #
loop $-1 $-1 $296 $73 #
coedge $-1 $187 $187 $188 $297 reversed $115 $-1 #
coedge $-1 $188 $188 $187 $297 forward $117 $-1 #
coedge $-1 $189 $189 $118 $190 forward $184 $-1 #
edge $-1 $298 2.558716348405532e-015 $298 6.2831853071796031 $189 $299 forward 7 unknown #
loop $-1 $-1 $196 $119 #
plane-surface $-1 -13.242821442996103 -7.6883379312801594 42.919198105256022 0 0.75470958851134928 0.65605901945558964 1 0 0 forward_v I I I I #
loop $-1 $-1 $300 $76 #
coedge $-1 $194 $194 $195 $301 reversed $120 $-1 #
coedge $-1 $195 $195 $194 $301 forward $122 $-1 #
coedge $-1 $196 $196 $123 $197 forward $191 $-1 #
edge $-1 $302 2.558716348405532e-015 $302 6.2831853071796031 $196 $303 forward 7 unknown #
face $-1 $304 $305 $41 $-1 $306 forward single #
loop $-1 $-1 $307 $124 #
plane-surface $-1 31.457548945902062 57.873530701972371 99.911259560376934 -1 0 0 0 0.75470958851134928 0.65605901945558964 forward_v I I I I #
coedge $-1 $308 $309 $310 $311 reversed $125 $-1 #
coedge $-1 $203 $127 $312 $313 reversed $80 $-1 #
coedge $-1 $127 $202 $308 $314 reversed $80 $-1 #
coedge $-1 $310 $315 $127 $205 forward $305 $-1 #
edge $-1 $316 4.3039759162555455 $317 7.6985462937601667 $204 $318 forward 7 unknown #
loop $-1 $-1 $211 $128 #
plane-surface $-1 22.276523423177551 -7.6883379312801594 42.919198105256022 0 0.75470958851134928 0.65605901945558964 1 0 0 forward_v I I I I #
loop $-1 $-1 $319 $82 #
coedge $-1 $209 $209 $210 $320 reversed $129 $-1 #
coedge $-1 $210 $210 $209 $320 forward $131 $-1 #
coedge $-1 $211 $211 $132 $212 forward $206 $-1 #
edge $-1 $321 2.558716348405532e-015 $321 6.2831853071796031 $211 $322 forward 7 unknown #
loop $-1 $-1 $218 $133 #
plane-surface $-1 22.276523423177551 -7.6883379312801594 42.919198105256022 0 0.75470958851134928 0.65605901945558964 1 0 0 forward_v I I I I #
loop $-1 $-1 $323 $85 #
coedge $-1 $216 $216 $217 $324 reversed $134 $-1 #
coedge $-1 $217 $217 $216 $324 forward $136 $-1 #
coedge $-1 $218 $218 $137 $219 forward $213 $-1 #
edge $-1 $325 2.558716348405532e-015 $325 6.2831853071796031 $218 $326 forward 7 unknown #
face $-1 $327 $328 $33 $-1 $329 reversed single #
loop $-1 $-1 $330 $138 #
plane-surface $-1 -43.435163426618246 0 0 1 0 0 0 0 -1 forward_v I I I I #
coedge $-1 $331 $231 $332 $333 forward $139 $-1 #
coedge $-1 $334 $141 $331 $335 forward $89 $-1 #
coedge $-1 $141 $334 $336 $337 forward $89 $-1 #
coedge $-1 $234 $233 $141 $227 reversed $235 $-1 #
edge $-1 $338 -24.63278943473064 $339 24.63278943473064 $226 $340 forward 7 unknown #
coedge $-1 $143 $142 $341 $342 forward $56 $-1 #
coedge $-1 $343 $344 $142 $230 reversed $328 $-1 #
edge $-1 $237 -43.435163426618246 $345 43.435163426618246 $229 $346 forward 7 unknown #
coedge $-1 $223 $347 $143 $232 reversed $139 $-1 #
edge $-1 $348 -43.435163426618246 $236 43.435163426618246 $231 $349 forward 7 unknown #
coedge $-1 $226 $144 $347 $350 forward $235 $-1 #
coedge $-1 $144 $226 $343 $351 reversed $235 $-1 #
loop $-1 $-1 $233 $327 #
vertex $-1 $145 $352 #
vertex $-1 $145 $353 #
straight-curve $-1 43.435163426618246 0 9.6429999669216073 0 1 0 I I #
face $-1 $354 $355 $34 $-1 $356 reversed single #
loop $-1 $-1 $357 $146 #
plane-surface $-1 0 -24.63278943473064 0 0 1 0 0 0 1 forward_v I I I I #
coedge $-1 $245 $152 $358 $359 reversed $147 $-1 #
coedge $-1 $360 $149 $357 $361 reversed $93 $-1 #
coedge $-1 $149 $360 $362 $363 reversed $93 $-1 #
coedge $-1 $252 $242 $149 $246 reversed $147 $-1 #
edge $-1 $364 -24.63278943473064 $365 24.63278943473064 $245 $366 forward 7 unknown #
coedge $-1 $151 $150 $367 $368 reversed $59 $-1 #
coedge $-1 $369 $370 $150 $249 forward $371 $-1 #
edge $-1 $372 -23.976007208354488 $254 -14.942305228173026 $248 $373 forward 7 unknown #
coedge $-1 $374 $358 $151 $251 forward $240 $-1 #
edge $-1 $253 14.942305228173026 $375 23.976007208354488 $250 $376 forward 7 unknown #
coedge $-1 $152 $245 $369 $377 reversed $147 $-1 #
vertex $-1 $251 $378 #
vertex $-1 $249 $379 #
straight-curve $-1 -34.401461446436784 0 2.4603359112466188 0 1 0 I I #
face $-1 $-1 $268 $35 $-1 $380 reversed single #
loop $-1 $-1 $381 $154 #
plane-surface $-1 0 0 9.6429999669216073 0 0 1 1 0 0 forward_v I I I I #
coedge $-1 $382 $383 $384 $385 reversed $155 $-1 #
coedge $-1 $386 $157 $159 $266 forward $97 $-1 #
coedge $-1 $157 $386 $382 $387 forward $97 $-1 #
coedge $-1 $384 $160 $157 $263 forward $268 $-1 #
edge $-1 $270 1.8249371644038561 $388 16.711218395275587 $262 $389 forward 7 unknown #
coedge $-1 $390 $391 $158 $265 forward $257 $-1 #
edge $-1 $392 -28.03646825027938 $269 -20.956871221491845 $264 $393 forward 7 unknown #
edge $-1 $270 2.2061860048766535e-014 $392 11.013897951469843 $159 $394 forward 7 unknown #
coedge $-1 $160 $384 $390 $395 reversed $268 $-1 #
loop $-1 $-1 $384 $256 #
vertex $-1 $395 $396 #
vertex $-1 $161 $397 #
straight-curve $-1 11.093014944243578 -24.63278943473064 28.522516722815588 0 0 -1 I I #
coedge $-1 $272 $272 $-1 $398 reversed $164 $-1 #
edge $-1 $399 0 $399 6.2831853071796004 $165 $400 forward 7 unknown #
vertex $-1 $168 $401 #
ellipse-curve $-1 15.346238153064071 -21.092990920336874 5.4244322598860251 0 -0.7660444514056185 0.64278759981090561 2 0 0 1 I I #
coedge $-1 $276 $276 $-1 $402 reversed $171 $-1 #
edge $-1 $403 0 $403 6.2831853071796004 $172 $404 forward 7 unknown #
vertex $-1 $175 $405 #
ellipse-curve $-1 21.726072966294808 -21.092990920336874 5.4244322598860251 0 -0.7660444514056185 0.64278759981090561 2 0 0 1 I I #
face $-1 $-1 $292 $38 $-1 $406 forward single #
loop $-1 $-1 $407 $176 #
plane-surface $-1 0 24.63278943473064 0 0 -1 0 0 0 -1 forward_v I I I I #
coedge $-1 $408 $409 $410 $411 reversed $177 $-1 #
coedge $-1 $412 $179 $181 $290 forward $111 $-1 #
coedge $-1 $179 $412 $408 $413 forward $111 $-1 #
coedge $-1 $410 $182 $179 $287 forward $292 $-1 #
edge $-1 $294 -15.802436244222562 $414 2.5596148012264575 $286 $415 forward 7 unknown #
coedge $-1 $416 $417 $180 $289 forward $281 $-1 #
edge $-1 $418 -44.217636431277008 $293 -40.312629813266859 $288 $419 forward 7 unknown #
edge $-1 $294 44.091394418310109 $418 49.265578869461315 $181 $420 forward 7 unknown #
coedge $-1 $182 $410 $416 $421 forward $292 $-1 #
loop $-1 $-1 $410 $280 #
vertex $-1 $289 $422 #
vertex $-1 $183 $423 #
straight-curve $-1 -22.423846965720614 28.936765350986185 9.6429999669216073 0 -1 0 I I #
coedge $-1 $296 $296 $-1 $424 reversed $186 $-1 #
edge $-1 $425 0 $425 6.2831853071796004 $187 $426 forward 7 unknown #
vertex $-1 $190 $427 #
ellipse-curve $-1 -17.177546667020891 22.935504245978322 7.6904966579165386 0 0.75470958851134928 0.65605901945558964 0.5 0 0 1 I I #
coedge $-1 $300 $300 $-1 $428 reversed $193 $-1 #
edge $-1 $429 0 $429 6.2831853071796004 $194 $430 forward 7 unknown #
vertex $-1 $197 $431 #
ellipse-curve $-1 -9.3080962189713077 22.935504245978322 7.6904966579165386 0 0.75470958851134928 0.65605901945558964 0.5 0 0 1 I I #
face $-1 $-1 $432 $41 $-1 $433 reversed single #
loop $-1 $-1 $204 $198 #
plane-surface $-1 0 0 9.6429999669216073 0 0 1 1 0 0 forward_v I I I I #
coedge $-1 $434 $435 $436 $437 reversed $199 $-1 #
coedge $-1 $438 $201 $203 $314 forward $125 $-1 #
coedge $-1 $201 $438 $434 $439 forward $125 $-1 #
coedge $-1 $436 $204 $201 $311 forward $305 $-1 #
edge $-1 $317 1.9572361888642664 $440 20.319287234313286 $310 $441 forward 7 unknown #
coedge $-1 $442 $443 $202 $313 forward $432 $-1 #
edge $-1 $444 -44.217636431277008 $316 -40.312629813266859 $312 $445 forward 7 unknown #
edge $-1 $317 44.091394418310109 $444 49.265578869461315 $203 $446 forward 7 unknown #
coedge $-1 $204 $436 $442 $447 forward $305 $-1 #
vertex $-1 $205 $448 #
vertex $-1 $205 $449 #
straight-curve $-1 13.095497900453042 28.936765350986185 9.6429999669216073 0 -1 0 I I #
coedge $-1 $319 $319 $-1 $450 reversed $208 $-1 #
edge $-1 $451 0 $451 6.2831853071796004 $209 $452 forward 7 unknown #
vertex $-1 $212 $453 #
ellipse-curve $-1 18.341798199152763 22.935504245978322 7.6904966579165386 0 0.75470958851134928 0.65605901945558964 0.5 0 0 1 I I #
coedge $-1 $323 $323 $-1 $454 reversed $215 $-1 #
edge $-1 $455 0 $455 6.2831853071796004 $216 $456 forward 7 unknown #
vertex $-1 $219 $457 #
ellipse-curve $-1 26.211248647202339 22.935504245978322 7.6904966579165386 0 0.75470958851134928 0.65605901945558964 0.5 0 0 1 I I #
face $-1 $-1 $235 $33 $-1 $458 reversed single #
loop $-1 $-1 $343 $220 #
plane-surface $-1 0 24.63278943473064 0 0 -1 0 0 0 -1 forward_v I I I I #
coedge $-1 $459 $341 $344 $460 forward $221 $-1 #
coedge $-1 $347 $223 $224 $335 reversed $139 $-1 #
coedge $-1 $341 $459 $223 $333 reversed $221 $-1 #
edge $-1 $348 -9.6429999669216073 $461 9.6429999669216073 $332 $462 forward 7 unknown #
coedge $-1 $225 $224 $459 $463 forward $89 $-1 #
edge $-1 $339 -43.435163426618246 $461 43.435163426618246 $331 $464 forward 7 unknown #
coedge $-1 $344 $343 $225 $337 reversed $328 $-1 #
edge $-1 $465 -43.435163426618246 $338 43.435163426618246 $336 $466 forward 7 unknown #
vertex $-1 $227 $467 #
vertex $-1 $350 $468 #
straight-curve $-1 43.435163426618246 0 -9.6429999669216073 0 -1 0 I I #
coedge $-1 $330 $332 $228 $342 reversed $221 $-1 #
edge $-1 $345 -24.63278943473064 $348 24.63278943473064 $341 $469 forward 7 unknown #
coedge $-1 $336 $229 $234 $351 forward $328 $-1 #
coedge $-1 $229 $336 $330 $460 reversed $328 $-1 #
vertex $-1 $230 $470 #
straight-curve $-1 0 24.63278943473064 9.6429999669216073 -1 0 0 I I #
coedge $-1 $231 $331 $233 $350 reversed $139 $-1 #
vertex $-1 $342 $471 #
straight-curve $-1 0 -24.63278943473064 9.6429999669216073 1 0 0 I I #
edge $-1 $236 -9.6429999669216073 $339 9.6429999669216073 $233 $472 forward 7 unknown #
edge $-1 $237 -9.6429999669216073 $338 9.6429999669216073 $234 $473 forward 7 unknown #
point $-1 43.435163426618246 -24.63278943473064 9.6429999669216073 #
point $-1 43.435163426618246 24.63278943473064 9.6429999669216073 #
face $-1 $-1 $371 $34 $-1 $474 reversed single #
loop $-1 $-1 $475 $239 #
plane-surface $-1 -43.435163426618246 0 0 1 0 0 0 0 -1 forward_v I I I I #
coedge $-1 $358 $374 $243 $361 forward $240 $-1 #
coedge $-1 $250 $357 $242 $359 forward $240 $-1 #
edge $-1 $365 -2.1855234798475602 $253 2.3687317674469326 $358 $476 forward 7 unknown #
coedge $-1 $244 $243 $475 $477 reversed $93 $-1 #
edge $-1 $478 -23.976007208354488 $365 -14.942305228173026 $357 $479 forward 7 unknown #
coedge $-1 $370 $369 $244 $363 forward $371 $-1 #
edge $-1 $364 14.942305228173026 $480 23.976007208354488 $362 $481 forward 7 unknown #
vertex $-1 $363 $482 #
vertex $-1 $361 $483 #
straight-curve $-1 -34.401461446436784 0 -2.0939193360478741 0 -1 0 I I #
coedge $-1 $484 $485 $247 $368 forward $355 $-1 #
edge $-1 $375 -24.63278943473064 $372 24.63278943473064 $367 $486 forward 7 unknown #
coedge $-1 $362 $248 $252 $377 forward $371 $-1 #
coedge $-1 $248 $362 $484 $487 reversed $371 $-1 #
loop $-1 $-1 $362 $354 #
vertex $-1 $487 $488 #
straight-curve $-1 -19.459156218263757 24.63278943473064 2.4603359112466188 1 0 0 I I #
coedge $-1 $357 $250 $485 $489 forward $240 $-1 #
vertex $-1 $489 $490 #
straight-curve $-1 -19.459156218263757 -24.63278943473064 2.4603359112466188 -1 0 0 I I #
edge $-1 $254 -2.3687317674469326 $364 2.1855234798475602 $369 $491 forward 7 unknown #
point $-1 -34.401461446436784 -24.63278943473064 2.4603359112466188 #
point $-1 -34.401461446436784 24.63278943473064 2.4603359112466188 #
plane-surface $-1 0 -24.63278943473064 0 0 1 0 0 0 1 forward_v I I I I #
coedge $-1 $391 $390 $383 $492 forward $257 $-1 #
coedge $-1 $383 $259 $261 $387 reversed $155 $-1 #
coedge $-1 $259 $382 $381 $492 reversed $155 $-1 #
coedge $-1 $267 $262 $259 $385 forward $268 $-1 #
edge $-1 $388 -27.316652169965142 $493 -18.879516755893981 $384 $494 forward 7 unknown #
coedge $-1 $261 $260 $391 $495 reversed $97 $-1 #
edge $-1 $496 -11.013897951469843 $388 -2.2061860048766535e-014 $382 $497 forward 7 unknown #
vertex $-1 $263 $498 #
straight-curve $-1 9.2680777798397216 -24.63278943473064 1.2058645528504455 1 0 0 I I #
coedge $-1 $381 $264 $267 $395 forward $257 $-1 #
coedge $-1 $264 $381 $386 $495 forward $257 $-1 #
vertex $-1 $265 $499 #
straight-curve $-1 11.093014944243578 -45.589660656222485 9.6429999669216073 0 -1 0 I I #
straight-curve $-1 11.093014944243578 -24.632789434730654 1.2058645528504286 0 0.64278759981090561 0.7660444514056185 I I #
edge $-1 $269 11.093014944243578 $493 25.979296175115309 $267 $500 forward 7 unknown #
point $-1 11.093014944243578 -24.63278943473064 9.6429999669216073 #
point $-1 11.093014944243578 -24.63278943473064 1.2058645528504455 #
edge $-1 $501 1 $501 0 $272 $-1 forward 7 unknown #
vertex $-1 $273 $502 #
ellipse-curve $-1 15.346238153064071 -17.53538575818596 2.4392471586065327 0 -0.7660444514056185 0.64278759981090561 2 0 0 1 I I #
point $-1 17.346238153064071 -21.09299092033686 5.4244322598860144 #
edge $-1 $503 1 $503 0 $276 $-1 forward 7 unknown #
vertex $-1 $277 $504 #
ellipse-curve $-1 21.726072966294808 -17.53538575818596 2.4392471586065327 0 -0.7660444514056185 0.64278759981090561 2 0 0 1 I I #
point $-1 23.726072966294808 -21.09299092033686 5.4244322598860144 #
plane-surface $-1 0 0 9.6429999669216073 0 0 1 1 0 0 forward_v I I I I #
coedge $-1 $417 $416 $409 $505 forward $281 $-1 #
coedge $-1 $409 $283 $285 $413 reversed $177 $-1 #
coedge $-1 $283 $408 $407 $505 reversed $177 $-1 #
coedge $-1 $291 $286 $283 $411 forward $292 $-1 #
edge $-1 $414 -7.6985462937601667 $506 -4.3039759162555455 $410 $507 forward 7 unknown #
coedge $-1 $285 $284 $417 $508 reversed $111 $-1 #
edge $-1 $509 -49.265578869461315 $414 -44.091394418310109 $408 $510 forward 7 unknown #
vertex $-1 $287 $511 #
straight-curve $-1 -6.6214107214980515 21.238219057226019 9.6429999669216038 1 0 0 I I #
coedge $-1 $407 $288 $291 $421 reversed $281 $-1 #
coedge $-1 $288 $407 $412 $508 forward $281 $-1 #
vertex $-1 $289 $512 #
straight-curve $-1 -22.423846965720614 24.63278943473064 49.955629780188467 0 0 1 I I #
straight-curve $-1 -22.423846965720614 -7.6883379312801594 42.919198105256022 0 0.65605901945558964 -0.75470958851134928 I I #
edge $-1 $506 4.0617959202715941 $293 22.423846965720614 $416 $513 forward 7 unknown #
point $-1 -22.423846965720614 24.63278943473064 9.6429999669216073 #
point $-1 -22.423846965720614 21.238219057226019 9.6429999669216073 #
edge $-1 $514 1 $514 0 $296 $-1 forward 7 unknown #
vertex $-1 $297 $515 #
ellipse-curve $-1 -17.177546667020891 21.468856628935665 6.415559367903013 0 0.75470958851134928 0.65605901945558964 0.5 0 0 1 I I #
point $-1 -16.677546667020891 22.935504245978336 7.6904966579165492 #
edge $-1 $516 1 $516 0 $300 $-1 forward 7 unknown #
vertex $-1 $301 $517 #
ellipse-curve $-1 -9.3080962189713077 21.468856628935665 6.415559367903013 0 0.75470958851134928 0.65605901945558964 0.5 0 0 1 I I #
point $-1 -8.8080962189713077 22.935504245978336 7.6904966579165492 #
loop $-1 $-1 $312 $304 #
plane-surface $-1 0 24.63278943473064 0 0 -1 0 0 0 -1 forward_v I I I I #
coedge $-1 $435 $307 $309 $439 reversed $199 $-1 #
coedge $-1 $307 $434 $518 $519 reversed $199 $-1 #
coedge $-1 $315 $310 $307 $437 forward $305 $-1 #
edge $-1 $440 -7.6985462937601667 $520 -4.3039759162555455 $436 $521 forward 7 unknown #
coedge $-1 $309 $308 $443 $522 reversed $125 $-1 #
edge $-1 $523 -49.265578869461315 $440 -44.091394418310109 $434 $524 forward 7 unknown #
vertex $-1 $311 $525 #
straight-curve $-1 11.138261711588775 21.238219057226019 9.6429999669216038 1 0 0 I I #
coedge $-1 $518 $312 $315 $447 reversed $432 $-1 #
coedge $-1 $312 $518 $438 $522 forward $432 $-1 #
vertex $-1 $313 $526 #
straight-curve $-1 13.095497900453042 24.63278943473064 49.955629780188467 0 0 1 I I #
straight-curve $-1 13.095497900453042 -7.6883379312801594 42.919198105256022 0 0.65605901945558964 -0.75470958851134928 I I #
edge $-1 $520 -31.457548945902062 $316 -13.095497900453042 $442 $527 forward 7 unknown #
point $-1 13.095497900453042 24.63278943473064 9.6429999669216073 #
point $-1 13.095497900453042 21.238219057226019 9.6429999669216073 #
edge $-1 $528 1 $528 0 $319 $-1 forward 7 unknown #
vertex $-1 $320 $529 #
ellipse-curve $-1 18.341798199152763 21.468856628935665 6.415559367903013 0 0.75470958851134928 0.65605901945558964 0.5 0 0 1 I I #
point $-1 18.841798199152763 22.935504245978336 7.6904966579165492 #
edge $-1 $530 1 $530 0 $323 $-1 forward 7 unknown #
vertex $-1 $324 $531 #
ellipse-curve $-1 26.211248647202339 21.468856628935665 6.415559367903013 0 0.75470958851134928 0.65605901945558964 0.5 0 0 1 I I #
point $-1 26.711248647202339 22.935504245978336 7.6904966579165492 #
plane-surface $-1 43.435163426618246 0 0 -1 0 0 0 0 1 forward_v I I I I #
coedge $-1 $332 $330 $334 $463 reversed $221 $-1 #
edge $-1 $345 -9.6429999669216073 $465 9.6429999669216073 $344 $532 forward 7 unknown #
vertex $-1 $463 $533 #
straight-curve $-1 -43.435163426618246 -24.63278943473064 0 0 0 -1 I I #
edge $-1 $461 -24.63278943473064 $465 24.63278943473064 $459 $534 forward 7 unknown #
straight-curve $-1 0 -24.63278943473064 -9.6429999669216073 -1 0 0 I I #
vertex $-1 $337 $535 #
straight-curve $-1 0 24.63278943473064 -9.6429999669216073 1 0 0 I I #
point $-1 43.435163426618246 24.63278943473064 -9.6429999669216073 #
point $-1 43.435163426618246 -24.63278943473064 -9.6429999669216073 #
straight-curve $-1 -43.435163426618246 0 9.6429999669216073 0 -1 0 I I #
point $-1 -43.435163426618246 24.63278943473064 9.6429999669216073 #
point $-1 -43.435163426618246 -24.63278943473064 9.6429999669216073 #
straight-curve $-1 43.435163426618246 -24.63278943473064 0 0 0 -1 I I #
straight-curve $-1 43.435163426618246 24.63278943473064 0 0 0 -1 I I #
plane-surface $-1 0 24.63278943473064 0 0 -1 0 0 0 -1 forward_v I I I I #
coedge $-1 $485 $484 $360 $477 forward $355 $-1 #
straight-curve $-1 -34.401461446436784 -24.63278943473064 0.091604143799686177 0 0 1 I I #
edge $-1 $480 -24.63278943473064 $478 24.63278943473064 $475 $536 forward 7 unknown #
vertex $-1 $361 $537 #
straight-curve $-1 -19.459156218263757 -24.63278943473064 -2.0939193360478741 1 0 0 I I #
vertex $-1 $363 $538 #
straight-curve $-1 -19.459156218263757 24.63278943473064 -2.0939193360478741 -1 0 0 I I #
point $-1 -34.401461446436784 24.63278943473064 -2.0939193360478741 #
point $-1 -34.401461446436784 -24.63278943473064 -2.0939193360478741 #
coedge $-1 $475 $367 $370 $487 forward $355 $-1 #
coedge $-1 $367 $475 $374 $489 reversed $355 $-1 #
straight-curve $-1 -43.435163426618246 0 2.4603359112466188 0 1 0 I I #
edge $-1 $372 -2.4603359112466188 $480 2.0939193360478741 $370 $539 forward 7 unknown #
point $-1 -43.435163426618246 24.63278943473064 2.4603359112466188 #
edge $-1 $375 -2.4603359112466188 $478 2.0939193360478741 $485 $540 forward 7 unknown #
point $-1 -43.435163426618246 -24.63278943473064 2.4603359112466188 #
straight-curve $-1 -34.401461446436784 24.63278943473064 0.091604143799686177 0 0 -1 I I #
edge $-1 $493 20.956871221491845 $496 28.03646825027938 $381 $541 forward 7 unknown #
vertex $-1 $492 $542 #
straight-curve $-1 25.979296175115309 -24.63278943473064 28.522516722815588 0 0 1 I I #
edge $-1 $496 -16.711218395275587 $392 -1.8249371644038561 $391 $543 forward 7 unknown #
vertex $-1 $495 $544 #
straight-curve $-1 25.979296175115309 -24.632789434730654 1.2058645528504286 0 -0.64278759981090561 -0.7660444514056185 I I #
point $-1 25.979296175115309 -24.63278943473064 1.2058645528504455 #
point $-1 11.093014944243578 -17.553192405943104 9.6429999669216073 #
straight-curve $-1 0 -24.63278943473064 9.6429999669216073 1 0 0 I I #
vertex $-1 $398 $545 #
point $-1 17.346238153064071 -17.53538575818596 2.4392471586065327 #
vertex $-1 $402 $546 #
point $-1 23.726072966294808 -17.53538575818596 2.4392471586065327 #
edge $-1 $506 40.312629813266859 $509 44.217636431277008 $407 $547 forward 7 unknown #
vertex $-1 $421 $548 #
straight-curve $-1 -4.0617959202715941 28.936765350986185 9.6429999669216073 0 1 0 I I #
edge $-1 $509 -2.5596148012264575 $418 15.802436244222562 $417 $549 forward 7 unknown #
vertex $-1 $508 $550 #
straight-curve $-1 -4.0617959202715941 -7.6883379312801594 42.919198105256022 0 -0.65605901945558964 0.75470958851134928 I I #
point $-1 -4.0617959202715941 21.238219057226019 9.6429999669216073 #
point $-1 -22.423846965720614 24.63278943473064 5.7379933489114592 #
straight-curve $-1 0 24.63278943473064 9.6429999669216073 -1 0 0 I I #
vertex $-1 $424 $551 #
point $-1 -16.677546667020891 21.468856628935665 6.415559367903013 #
vertex $-1 $428 $552 #
point $-1 -8.8080962189713077 21.468856628935665 6.415559367903013 #
coedge $-1 $443 $442 $435 $519 forward $432 $-1 #
edge $-1 $520 40.312629813266859 $523 44.217636431277008 $518 $553 forward 7 unknown #
vertex $-1 $447 $554 #
straight-curve $-1 31.457548945902062 28.936765350986185 9.6429999669216073 0 1 0 I I #
edge $-1 $523 -20.319287234313286 $444 -1.9572361888642664 $443 $555 forward 7 unknown #
vertex $-1 $522 $556 #
straight-curve $-1 31.457548945902062 -7.6883379312801594 42.919198105256022 0 -0.65605901945558964 0.75470958851134928 I I #
point $-1 31.457548945902062 21.238219057226019 9.6429999669216073 #
point $-1 13.095497900453042 24.63278943473064 5.7379933489114592 #
straight-curve $-1 0 24.63278943473064 9.6429999669216073 -1 0 0 I I #
vertex $-1 $450 $557 #
point $-1 18.841798199152763 21.468856628935665 6.415559367903013 #
vertex $-1 $454 $558 #
point $-1 26.711248647202339 21.468856628935665 6.415559367903013 #
straight-curve $-1 -43.435163426618246 24.63278943473064 0 0 0 -1 I I #
point $-1 -43.435163426618246 -24.63278943473064 -9.6429999669216073 #
straight-curve $-1 -43.435163426618246 0 -9.6429999669216073 0 1 0 I I #
point $-1 -43.435163426618246 24.63278943473064 -9.6429999669216073 #
straight-curve $-1 -43.435163426618246 0 -2.0939193360478741 0 -1 0 I I #
point $-1 -43.435163426618246 -24.63278943473064 -2.0939193360478741 #
point $-1 -43.435163426618246 24.63278943473064 -2.0939193360478741 #
straight-curve $-1 -43.435163426618246 24.63278943473064 0 0 0 -1 I I #
straight-curve $-1 -43.435163426618246 -24.63278943473064 0 0 0 -1 I I #
straight-curve $-1 25.979296175115309 -45.589660656222485 9.6429999669216073 0 1 0 I I #
point $-1 25.979296175115309 -24.63278943473064 9.6429999669216073 #
straight-curve $-1 9.2680777798397216 -17.553192405943104 9.6429999669216073 -1 0 0 I I #
point $-1 25.979296175115309 -17.553192405943104 9.6429999669216073 #
point $-1 15.346238153064071 -16.003296855374721 1.1536719589847215 #
point $-1 21.726072966294808 -16.003296855374721 1.1536719589847215 #
straight-curve $-1 -4.0617959202715941 24.63278943473064 49.955629780188467 0 0 -1 I I #
point $-1 -4.0617959202715941 24.63278943473064 9.6429999669216073 #
straight-curve $-1 -6.6214107214980515 24.63278943473064 5.7379933489114592 -1 0 0 I I #
point $-1 -4.0617959202715941 24.63278943473064 5.7379933489114592 #
point $-1 -17.177546667020891 21.091501834679992 6.087529858175218 #
point $-1 -9.3080962189713077 21.091501834679992 6.087529858175218 #
straight-curve $-1 31.457548945902062 24.63278943473064 49.955629780188467 0 0 -1 I I #
point $-1 31.457548945902062 24.63278943473064 9.6429999669216073 #
straight-curve $-1 11.138261711588775 24.63278943473064 5.7379933489114592 -1 0 0 I I #
point $-1 31.457548945902062 24.63278943473064 5.7379933489114592 #
point $-1 18.341798199152763 21.091501834679992 6.087529858175218 #
point $-1 26.211248647202339 21.091501834679992 6.087529858175218 #
End-of-ACIS-data 