500 0 5 0           
7 Unknown 11 ACIS 5.0 NT 24 Thu Mar 25 18:59:37 1999 
-1 9.9999999999999995e-007 1e-010 
body $-1 $5 $-1 $6 #
body $-1 $7 $-1 $8 #
body $-1 $9 $-1 $10 #
body $-1 $11 $-1 $12 #
body $-1 $13 $-1 $14 #
lump $-1 $-1 $15 $0 #
transform $-1 1 0 0 0 1 0 0 0 1 72.804956205938907 47.60929099739112 13.386017549054374 1 rotate no_reflect no_shear #
lump $-1 $-1 $16 $1 #
transform $-1 1 0 0 0 1 0 0 0 1 72.804956205938907 47.60929099739112 13.386017549054374 1 rotate no_reflect no_shear #
lump $-1 $-1 $17 $2 #
transform $-1 1 0 0 0 1 0 0 0 1 72.804956205938907 47.60929099739112 13.386017549054374 1 rotate no_reflect no_shear #
lump $-1 $-1 $18 $3 #
transform $-1 1 0 0 0 1 0 0 0 1 72.804956205938907 47.60929099739112 13.386017549054374 1 rotate no_reflect no_shear #
lump $-1 $-1 $19 $4 #
transform $-1 1 0 0 0 1 0 0 0 1 72.804956205938907 47.60929099739112 13.386017549054374 1 rotate no_reflect no_shear #
shell $-1 $-1 $-1 $20 $-1 $5 #
shell $-1 $-1 $-1 $21 $-1 $7 #
shell $-1 $-1 $-1 $22 $-1 $9 #
shell $-1 $-1 $-1 $23 $-1 $11 #
shell $-1 $-1 $-1 $24 $-1 $13 #
face $-1 $25 $26 $15 $-1 $27 forward single #
face $-1 $28 $29 $16 $-1 $30 forward single #
face $-1 $31 $32 $17 $-1 $33 reversed single #
face $-1 $34 $35 $18 $-1 $36 forward single #
face $-1 $37 $38 $19 $-1 $39 forward single #
face $-1 $40 $41 $15 $-1 $42 reversed single #
loop $-1 $-1 $43 $20 #
plane-surface $-1 0 0 13.386017549054374 0 0 1 1 0 0 forward_v I I I I #
face $-1 $44 $45 $16 $-1 $46 reversed single #
loop $-1 $-1 $47 $21 #
plane-surface $-1 -72.804956205938907 0 0 1 0 0 0 0 -1 forward_v I I I I #
face $-1 $48 $49 $17 $-1 $50 reversed single #
loop $-1 $-1 $51 $22 #
plane-surface $-1 58.440460253184114 22.818518425727966 207.5582430962462 0 1 0 0.6560590369687036 0 0.75470957328743171 forward_v I I I I #
face $-1 $52 $53 $18 $-1 $54 forward single #
loop $-1 $55 $56 $23 #
cone-surface $-1 64.73534741464421 29.901596303346004 5.9217703099320946 -0.6560590369687036 0 -0.75470957328743171 1.8867739332185793 0 -1.640147592421759 1 I I 0 1 2.5 forward I I I I #
face $-1 $57 $58 $19 $-1 $59 forward single #
loop $-1 $60 $61 $24 #
cone-surface $-1 64.73534741464421 40.526213119773068 5.9217703099320946 -0.6560590369687036 0 -0.75470957328743171 1.8867739332185793 0 -1.640147592421759 1 I I 0 1 2.5 forward I I I I #
face $-1 $62 $63 $15 $-1 $64 reversed single #
loop $-1 $-1 $65 $25 #
plane-surface $-1 0 0 -13.386017549054374 0 0 1 1 0 0 forward_v I I I I #
coedge $-1 $66 $67 $68 $69 forward $26 $-1 #
face $-1 $70 $71 $16 $-1 $72 reversed single #
loop $-1 $-1 $73 $28 #
plane-surface $-1 0 0 -13.386017549054374 0 0 1 1 0 0 forward_v I I I I #
coedge $-1 $74 $75 $76 $77 forward $29 $-1 #
face $-1 $78 $79 $17 $-1 $80 reversed single #
loop $-1 $-1 $81 $31 #
plane-surface $-1 -37.088238656849725 35.213904711559543 97.665048233457583 0.6560590369687036 0 0.75470957328743171 0.75470957328743171 0 -0.6560590369687036 forward_v I I I I #
coedge $-1 $82 $83 $84 $85 reversed $32 $-1 #
face $-1 $-1 $86 $18 $-1 $87 forward single #
loop $-1 $88 $89 $34 #
cone-surface $-1 62.316296148231089 29.901596303346004 3.1389702170158227 -0.6560590369687036 0 -0.75470957328743171 0.94338696660928967 0 -0.8200737962108795 1 I I -0.70710678118654746 0.70710678118654746 1.25 forward I I I I #
loop $-1 $-1 $90 $23 #
coedge $-1 $56 $56 $91 $92 reversed $35 $-1 #
face $-1 $-1 $93 $19 $-1 $94 forward single #
loop $-1 $95 $96 $37 #
cone-surface $-1 62.316296148231089 40.526213119773068 3.1389702170158227 -0.6560590369687036 0 -0.75470957328743171 0.94338696660928967 0 -0.8200737962108795 1 I I -0.70710678118654746 0.70710678118654746 1.25 forward I I I I #
loop $-1 $-1 $97 $24 #
coedge $-1 $61 $61 $98 $99 reversed $38 $-1 #
face $-1 $100 $101 $15 $-1 $102 reversed single #
loop $-1 $-1 $103 $40 #
plane-surface $-1 0 -47.60929099739112 0 0 1 0 0 0 1 forward_v I I I I #
coedge $-1 $104 $105 $106 $107 forward $41 $-1 #
coedge $-1 $108 $43 $109 $110 forward $26 $-1 #
coedge $-1 $43 $108 $111 $112 forward $26 $-1 #
coedge $-1 $113 $114 $43 $69 reversed $115 $-1 #
edge $-1 $116 -47.60929099739112 $117 47.60929099739112 $68 $118 forward 7 unknown #
face $-1 $119 $120 $16 $-1 $121 reversed single #
loop $-1 $-1 $122 $44 #
plane-surface $-1 -77.965156283129403 -45.30336651931313 0 0 1 0 0 0 1 forward_v I I I I #
coedge $-1 $123 $124 $75 $125 forward $45 $-1 #
coedge $-1 $126 $47 $127 $128 reversed $29 $-1 #
coedge $-1 $47 $126 $73 $125 reversed $29 $-1 #
coedge $-1 $129 $130 $47 $77 reversed $131 $-1 #
edge $-1 $132 -13.386017549054374 $133 13.386017549054374 $76 $134 forward 7 unknown #
face $-1 $135 $136 $17 $-1 $137 forward single #
loop $-1 $-1 $138 $48 #
plane-surface $-1 0 47.60929099739112 0 0 -1 0 0 0 -1 forward_v I I I I #
coedge $-1 $139 $140 $141 $142 reversed $49 $-1 #
coedge $-1 $83 $51 $143 $144 reversed $32 $-1 #
coedge $-1 $51 $82 $139 $145 reversed $32 $-1 #
coedge $-1 $141 $146 $51 $85 forward $147 $-1 #
edge $-1 $148 90.393103999068728 $149 101.64277222469937 $84 $150 forward 7 unknown #
loop $-1 $-1 $91 $52 #
plane-surface $-1 -37.088238656849725 35.213904711559543 97.665048233457583 0.6560590369687036 0 0.75470957328743171 0.75470957328743171 0 -0.6560590369687036 forward_v I I I I #
loop $-1 $-1 $151 $34 #
coedge $-1 $89 $89 $90 $152 reversed $53 $-1 #
coedge $-1 $90 $90 $89 $152 forward $55 $-1 #
coedge $-1 $91 $91 $56 $92 forward $86 $-1 #
edge $-1 $153 0 $153 6.2831853071796004 $91 $154 forward 7 unknown #
loop $-1 $-1 $98 $57 #
plane-surface $-1 -37.088238656849725 35.213904711559543 97.665048233457583 0.6560590369687036 0 0.75470957328743171 0.75470957328743171 0 -0.6560590369687036 forward_v I I I I #
loop $-1 $-1 $155 $37 #
coedge $-1 $96 $96 $97 $156 reversed $58 $-1 #
coedge $-1 $97 $97 $96 $156 forward $60 $-1 #
coedge $-1 $98 $98 $61 $99 forward $93 $-1 #
edge $-1 $157 0 $157 6.2831853071796004 $98 $158 forward 7 unknown #
face $-1 $159 $160 $15 $-1 $161 reversed single #
loop $-1 $-1 $162 $62 #
plane-surface $-1 -72.804956205938907 0 0 1 0 0 0 0 -1 forward_v I I I I #
coedge $-1 $163 $111 $164 $165 forward $63 $-1 #
coedge $-1 $166 $65 $163 $167 forward $41 $-1 #
coedge $-1 $65 $166 $168 $169 forward $41 $-1 #
coedge $-1 $114 $113 $65 $107 reversed $115 $-1 #
edge $-1 $170 -47.60929099739112 $171 47.60929099739112 $106 $172 forward 7 unknown #
coedge $-1 $67 $66 $173 $174 forward $26 $-1 #
coedge $-1 $175 $176 $66 $110 reversed $160 $-1 #
edge $-1 $117 -72.804956205938907 $177 72.804956205938907 $109 $178 forward 7 unknown #
coedge $-1 $103 $179 $67 $112 reversed $63 $-1 #
edge $-1 $180 -72.804956205938907 $116 72.804956205938907 $111 $181 forward 7 unknown #
coedge $-1 $106 $68 $179 $182 forward $115 $-1 #
coedge $-1 $68 $106 $175 $183 reversed $115 $-1 #
loop $-1 $-1 $113 $159 #
vertex $-1 $69 $184 #
vertex $-1 $69 $185 #
straight-curve $-1 72.804956205938907 0 13.386017549054374 0 1 0 I I #
face $-1 $186 $131 $16 $-1 $187 reversed single #
loop $-1 $-1 $188 $70 #
plane-surface $-1 -83.125356360319898 -41.994466518029043 0 1 0 0 0 0 -1 forward_v I I I I #
coedge $-1 $189 $190 $191 $192 forward $71 $-1 #
coedge $-1 $193 $73 $189 $194 forward $45 $-1 #
coedge $-1 $73 $193 $129 $195 forward $45 $-1 #
edge $-1 $132 38.685566516744956 $196 45.30336651931313 $73 $197 forward 7 unknown #
coedge $-1 $75 $74 $198 $199 forward $29 $-1 #
coedge $-1 $200 $201 $74 $128 forward $202 $-1 #
edge $-1 $203 -45.30336651931313 $133 -38.685566516744956 $127 $204 forward 7 unknown #
coedge $-1 $205 $76 $124 $195 reversed $131 $-1 #
coedge $-1 $76 $205 $200 $206 reversed $131 $-1 #
loop $-1 $-1 $76 $119 #
vertex $-1 $125 $207 #
vertex $-1 $206 $208 #
straight-curve $-1 -72.804956205938907 -38.685566516744956 0 0 0 1 I I #
face $-1 $-1 $147 $17 $-1 $209 reversed single #
loop $-1 $-1 $210 $78 #
plane-surface $-1 0 0 13.386017549054374 0 0 1 1 0 0 forward_v I I I I #
coedge $-1 $211 $212 $140 $213 forward $79 $-1 #
coedge $-1 $214 $81 $83 $145 forward $49 $-1 #
coedge $-1 $81 $214 $138 $213 reversed $49 $-1 #
coedge $-1 $215 $84 $81 $142 forward $147 $-1 #
edge $-1 $149 5.2115660699481943 $216 30.002338641611349 $141 $217 forward 7 unknown #
coedge $-1 $218 $210 $82 $144 forward $136 $-1 #
edge $-1 $219 30.643463437161941 $148 43.584726079346851 $143 $220 forward 7 unknown #
edge $-1 $149 -145.60991241187784 $219 -128.46257110306922 $83 $221 forward 7 unknown #
coedge $-1 $84 $215 $218 $222 reversed $147 $-1 #
loop $-1 $-1 $141 $135 #
vertex $-1 $222 $223 #
vertex $-1 $85 $224 #
straight-curve $-1 72.804956205938907 22.818518425727966 103.7791215481231 0 0 -1 I I #
coedge $-1 $151 $151 $-1 $225 reversed $88 $-1 #
edge $-1 $226 0 $226 6.2831853071796004 $89 $227 forward 7 unknown #
vertex $-1 $92 $228 #
ellipse-curve $-1 66.334324884846438 29.901596303346004 7.7611834362390626 0.6560590369687036 0 0.75470957328743171 1.8867739332185793 0 -1.640147592421759 1 I I #
coedge $-1 $155 $155 $-1 $229 reversed $95 $-1 #
edge $-1 $230 0 $230 6.2831853071796004 $96 $231 forward 7 unknown #
vertex $-1 $99 $232 #
ellipse-curve $-1 66.334324884846438 40.526213119773068 7.7611834362390626 0.6560590369687036 0 0.75470957328743171 1.8867739332185793 0 -1.640147592421759 1 I I #
face $-1 $-1 $115 $15 $-1 $233 reversed single #
loop $-1 $-1 $175 $100 #
plane-surface $-1 0 47.60929099739112 0 0 -1 0 0 0 -1 forward_v I I I I #
coedge $-1 $234 $173 $176 $235 forward $101 $-1 #
coedge $-1 $179 $103 $104 $167 reversed $63 $-1 #
coedge $-1 $173 $234 $103 $165 reversed $101 $-1 #
edge $-1 $180 -13.386017549054374 $236 13.386017549054374 $164 $237 forward 7 unknown #
coedge $-1 $105 $104 $234 $238 forward $41 $-1 #
edge $-1 $171 -72.804956205938907 $236 72.804956205938907 $163 $239 forward 7 unknown #
coedge $-1 $176 $175 $105 $169 reversed $160 $-1 #
edge $-1 $240 -72.804956205938907 $170 72.804956205938907 $168 $241 forward 7 unknown #
vertex $-1 $107 $242 #
vertex $-1 $182 $243 #
straight-curve $-1 72.804956205938907 0 -13.386017549054374 0 -1 0 I I #
coedge $-1 $162 $164 $108 $174 reversed $101 $-1 #
edge $-1 $177 -47.60929099739112 $180 47.60929099739112 $173 $244 forward 7 unknown #
coedge $-1 $168 $109 $114 $183 forward $160 $-1 #
coedge $-1 $109 $168 $162 $235 reversed $160 $-1 #
vertex $-1 $110 $245 #
straight-curve $-1 0 47.60929099739112 13.386017549054374 -1 0 0 I I #
coedge $-1 $111 $163 $113 $182 reversed $63 $-1 #
vertex $-1 $174 $246 #
straight-curve $-1 0 -47.60929099739112 13.386017549054374 1 0 0 I I #
edge $-1 $116 -13.386017549054374 $171 13.386017549054374 $113 $247 forward 7 unknown #
edge $-1 $117 -13.386017549054374 $170 13.386017549054374 $114 $248 forward 7 unknown #
point $-1 72.804956205938907 -47.60929099739112 13.386017549054374 #
point $-1 72.804956205938907 47.60929099739112 13.386017549054374 #
face $-1 $-1 $202 $16 $-1 $249 forward single #
plane-surface $-1 -77.965156283129403 -38.685566516744956 0 0 -1 0 0 0 -1 forward_v I I I I #
coedge $-1 $250 $251 $205 $252 forward $120 $-1 #
coedge $-1 $198 $122 $123 $194 reversed $71 $-1 #
coedge $-1 $122 $198 $201 $253 reversed $71 $-1 #
coedge $-1 $251 $250 $122 $192 reversed $120 $-1 #
edge $-1 $254 -13.386017549054374 $255 13.386017549054374 $191 $256 forward 7 unknown #
coedge $-1 $124 $123 $250 $257 forward $45 $-1 #
edge $-1 $196 -5.1602000771904954 $255 5.1602000771904954 $189 $258 forward 7 unknown #
edge $-1 $259 -5.1602000771904954 $132 5.1602000771904954 $129 $260 forward 7 unknown #
vertex $-1 $194 $261 #
straight-curve $-1 -72.804956205938907 0 -13.386017549054374 0 -1 0 I I #
coedge $-1 $190 $189 $126 $199 reversed $71 $-1 #
edge $-1 $203 -13.386017549054374 $196 13.386017549054374 $198 $262 forward 7 unknown #
coedge $-1 $263 $127 $130 $206 forward $202 $-1 #
coedge $-1 $127 $263 $190 $253 forward $202 $-1 #
loop $-1 $-1 $127 $186 #
vertex $-1 $128 $264 #
straight-curve $-1 -72.804956205938907 0 13.386017549054374 0 1 0 I I #
coedge $-1 $130 $129 $188 $252 reversed $131 $-1 #
edge $-1 $133 -5.1602000771904954 $265 5.1602000771904954 $130 $266 forward 7 unknown #
point $-1 -72.804956205938907 -38.685566516744956 -13.386017549054374 #
point $-1 -72.804956205938907 -38.685566516744956 13.386017549054374 #
plane-surface $-1 72.804956205938907 0 0 -1 0 0 0 0 1 forward_v I I I I #
coedge $-1 $143 $267 $214 $268 forward $136 $-1 #
coedge $-1 $212 $138 $267 $269 reversed $79 $-1 #
coedge $-1 $138 $211 $215 $270 forward $79 $-1 #
edge $-1 $216 -99.577469281759022 $271 -82.430127972950402 $138 $272 forward 7 unknown #
coedge $-1 $140 $139 $210 $268 reversed $49 $-1 #
coedge $-1 $146 $141 $212 $270 reversed $147 $-1 #
vertex $-1 $142 $273 #
straight-curve $-1 72.804956205938907 17.606952355779772 2.1363493234237154 0 1 0 I I #
coedge $-1 $267 $143 $146 $222 forward $136 $-1 #
vertex $-1 $144 $274 #
straight-curve $-1 29.220230126592057 22.818518425727966 13.386017549054372 1 0 0 I I #
straight-curve $-1 -37.088238656849725 22.818518425727966 97.665048233457583 -0.75470957328743171 0 0.6560590369687036 I I #
edge $-1 $148 22.818518425727966 $275 47.60929099739112 $146 $276 forward 7 unknown #
point $-1 72.804956205938907 22.818518425727966 13.386017549054374 #
point $-1 72.804956205938907 22.818518425727966 2.1363493234237296 #
edge $-1 $277 1 $277 0 $151 $-1 forward 7 unknown #
vertex $-1 $152 $278 #
ellipse-curve $-1 63.136369944441967 29.901596303346004 4.0823571836251125 0.6560590369687036 0 0.75470957328743171 1.8867739332185793 0 -1.640147592421759 1 I I #
point $-1 68.22109881806503 29.901596303346004 6.1210358438173191 #
edge $-1 $279 1 $279 0 $155 $-1 forward 7 unknown #
vertex $-1 $156 $280 #
ellipse-curve $-1 63.136369944441967 40.526213119773068 4.0823571836251125 0.6560590369687036 0 0.75470957328743171 1.8867739332185793 0 -1.640147592421759 1 I I #
point $-1 68.22109881806503 40.526213119773068 6.1210358438173191 #
plane-surface $-1 72.804956205938907 0 0 -1 0 0 0 0 1 forward_v I I I I #
coedge $-1 $164 $162 $166 $238 reversed $101 $-1 #
edge $-1 $177 -13.386017549054374 $240 13.386017549054374 $176 $281 forward 7 unknown #
vertex $-1 $238 $282 #
straight-curve $-1 -72.804956205938907 -47.60929099739112 0 0 0 -1 I I #
edge $-1 $236 -47.60929099739112 $240 47.60929099739112 $234 $283 forward 7 unknown #
straight-curve $-1 0 -47.60929099739112 -13.386017549054374 -1 0 0 I I #
vertex $-1 $169 $284 #
straight-curve $-1 0 47.60929099739112 -13.386017549054374 1 0 0 I I #
point $-1 72.804956205938907 47.60929099739112 -13.386017549054374 #
point $-1 72.804956205938907 -47.60929099739112 -13.386017549054374 #
straight-curve $-1 -72.804956205938907 0 13.386017549054374 0 -1 0 I I #
point $-1 -72.804956205938907 47.60929099739112 13.386017549054374 #
point $-1 -72.804956205938907 -47.60929099739112 13.386017549054374 #
straight-curve $-1 72.804956205938907 -47.60929099739112 0 0 0 -1 I I #
straight-curve $-1 72.804956205938907 47.60929099739112 0 0 0 -1 I I #
plane-surface $-1 0 0 13.386017549054374 0 0 1 1 0 0 forward_v I I I I #
coedge $-1 $191 $188 $193 $257 reversed $120 $-1 #
coedge $-1 $188 $191 $263 $285 reversed $120 $-1 #
edge $-1 $265 -13.386017549054374 $259 13.386017549054374 $205 $286 forward 7 unknown #
edge $-1 $254 -5.1602000771904954 $203 5.1602000771904954 $190 $287 forward 7 unknown #
vertex $-1 $285 $288 #
vertex $-1 $257 $289 #
straight-curve $-1 -83.125356360319898 -45.30336651931313 0 0 0 -1 I I #
edge $-1 $255 -3.308900001284087 $259 3.308900001284087 $250 $290 forward 7 unknown #
straight-curve $-1 -77.965156283129403 -45.30336651931313 -13.386017549054374 -1 0 0 I I #
vertex $-1 $195 $291 #
straight-curve $-1 -77.965156283129403 -38.685566516744956 -13.386017549054374 1 0 0 I I #
point $-1 -72.804956205938907 -45.30336651931313 -13.386017549054374 #
straight-curve $-1 -72.804956205938907 -45.30336651931313 0 0 0 -1 I I #
coedge $-1 $201 $200 $251 $285 forward $202 $-1 #
point $-1 -72.804956205938907 -45.30336651931313 13.386017549054374 #
vertex $-1 $206 $292 #
straight-curve $-1 -77.965156283129403 -38.685566516744956 13.386017549054374 -1 0 0 I I #
coedge $-1 $210 $218 $211 $269 forward $136 $-1 #
edge $-1 $271 -30.002338641611349 $219 -5.2115660699481943 $210 $293 forward 7 unknown #
edge $-1 $275 -72.804956205938907 $271 -59.863693563753998 $211 $294 forward 7 unknown #
edge $-1 $275 -13.386017549054374 $216 -2.136349323423715 $215 $295 forward 7 unknown #
vertex $-1 $268 $296 #
straight-curve $-1 -2.3471131447397795 47.60929099739112 67.465047924195204 -0.75470957328743171 0 0.6560590369687036 I I #
point $-1 72.804956205938907 47.60929099739112 2.136349323423715 #
point $-1 59.863693563753998 22.818518425727966 13.386017549054372 #
vertex $-1 $222 $297 #
straight-curve $-1 72.804956205938907 0 13.386017549054374 0 1 0 I I #
vertex $-1 $225 $298 #
point $-1 65.023143877660544 29.901596303346004 2.4422095912033535 #
vertex $-1 $229 $299 #
point $-1 65.023143877660544 40.526213119773068 2.4422095912033535 #
straight-curve $-1 -72.804956205938907 47.60929099739112 0 0 0 -1 I I #
point $-1 -72.804956205938907 -47.60929099739112 -13.386017549054374 #
straight-curve $-1 -72.804956205938907 0 -13.386017549054374 0 1 0 I I #
point $-1 -72.804956205938907 47.60929099739112 -13.386017549054374 #
edge $-1 $265 -3.308900001284087 $254 3.308900001284087 $251 $300 forward 7 unknown #
straight-curve $-1 -83.125356360319898 -38.685566516744956 0 0 0 -1 I I #
straight-curve $-1 -77.965156283129403 -45.30336651931313 13.386017549054374 1 0 0 I I #
point $-1 -83.125356360319898 -45.30336651931313 13.386017549054374 #
point $-1 -83.125356360319898 -45.30336651931313 -13.386017549054374 #
straight-curve $-1 -83.125356360319898 -41.994466518029043 -13.386017549054374 0 1 0 I I #
point $-1 -83.125356360319898 -38.685566516744956 -13.386017549054374 #
point $-1 -83.125356360319898 -38.685566516744956 13.386017549054374 #
straight-curve $-1 59.863693563754005 17.606952355779772 13.386017549054387 0 -1 0 I I #
straight-curve $-1 0 47.60929099739112 13.386017549054374 -1 0 0 I I #
straight-curve $-1 72.804956205938907 47.60929099739112 0 0 0 -1 I I #
point $-1 59.863693563753998 47.60929099739112 13.386017549054372 #
point $-1 72.804956205938907 47.60929099739112 13.386017549054374 #
point $-1 61.496222352020212 29.901596303346004 2.1955832504065329 #
point $-1 61.496222352020212 40.526213119773068 2.1955832504065329 #
straight-curve $-1 -83.125356360319898 -41.994466518029043 13.386017549054374 0 -1 0 I I #
End-of-ACIS-data 