500 0 6 0           
7 Unknown 11 ACIS 5.0 NT 24 Thu Mar 25 23:25:32 1999 
-1 9.9999999999999995e-007 1e-010 
body $-1 $6 $-1 $7 #
body $-1 $8 $-1 $9 #
body $-1 $10 $-1 $11 #
body $-1 $12 $-1 $13 #
body $-1 $14 $-1 $15 #
body $-1 $16 $-1 $17 #
lump $-1 $-1 $18 $0 #
transform $-1 1 0 0 0 1 0 0 0 1 64.892117069002353 26.635335529888007 11.426280127658215 1 rotate no_reflect no_shear #
lump $-1 $-1 $19 $1 #
transform $-1 1 0 0 0 1 0 0 0 1 64.892117069002353 26.635335529888007 11.426280127658215 1 rotate no_reflect no_shear #
lump $-1 $-1 $20 $2 #
transform $-1 1 0 0 0 1 0 0 0 1 64.892117069002353 26.635335529888007 11.426280127658215 1 rotate no_reflect no_shear #
lump $-1 $-1 $21 $3 #
transform $-1 1 0 0 0 1 0 0 0 1 64.892117069002353 26.635335529888007 11.426280127658215 1 rotate no_reflect no_shear #
lump $-1 $-1 $22 $4 #
transform $-1 1 0 0 0 1 0 0 0 1 64.892117069002353 26.635335529888007 11.426280127658215 1 rotate no_reflect no_shear #
lump $-1 $-1 $23 $5 #
transform $-1 1 0 0 0 1 0 0 0 1 64.892117069002353 26.635335529888007 11.426280127658215 1 rotate no_reflect no_shear #
shell $-1 $-1 $-1 $24 $-1 $6 #
shell $-1 $-1 $-1 $25 $-1 $8 #
shell $-1 $-1 $-1 $26 $-1 $10 #
shell $-1 $-1 $-1 $27 $-1 $12 #
shell $-1 $-1 $-1 $28 $-1 $14 #
shell $-1 $-1 $-1 $29 $-1 $16 #
face $-1 $30 $31 $18 $-1 $32 forward single #
face $-1 $33 $34 $19 $-1 $35 forward single #
face $-1 $36 $37 $20 $-1 $38 reversed single #
face $-1 $39 $40 $21 $-1 $41 forward single #
face $-1 $42 $43 $22 $-1 $44 reversed single #
face $-1 $45 $46 $23 $-1 $47 forward single #
face $-1 $48 $49 $18 $-1 $50 reversed single #
loop $-1 $-1 $51 $24 #
plane-surface $-1 0 0 11.426280127658215 0 0 1 1 0 0 forward_v I I I I #
face $-1 $52 $53 $19 $-1 $54 reversed single #
loop $-1 $-1 $55 $25 #
plane-surface $-1 0 -20.615401222047776 -5.6428743866013118 0 0 1 1 0 0 forward_v I I I I #
face $-1 $56 $57 $20 $-1 $58 reversed single #
loop $-1 $-1 $59 $26 #
plane-surface $-1 -174.95539076934836 -14.595466914207549 69.697073890626427 0 1 0 -0.84804810408105047 0 0.52991925155115449 forward_v I I I I #
face $-1 $60 $61 $21 $-1 $62 forward single #
loop $-1 $63 $64 $27 #
cone-surface $-1 -58.72609419642518 -9.6973809917256943 4.3719133849440386 0.84804810408105047 0 -0.52991925155115449 1.059838503102309 0 1.6960962081621009 1 I I 0 1 2 forward I I I I #
face $-1 $65 $66 $22 $-1 $67 reversed single #
loop $-1 $-1 $68 $28 #
plane-surface $-1 -174.95539076934836 16.839163684924291 69.697073890626427 0 1 0 -0.84804810408105047 0 0.52991925155115449 forward_v I I I I #
face $-1 $69 $70 $23 $-1 $71 forward single #
loop $-1 $72 $73 $29 #
cone-surface $-1 -58.72609419642518 21.737249607406145 4.3719133849440386 0.84804810408105047 0 -0.52991925155115449 1.059838503102309 0 1.6960962081621009 1 I I 0 1 2 forward I I I I #
face $-1 $74 $75 $18 $-1 $76 reversed single #
loop $-1 $-1 $77 $30 #
plane-surface $-1 0 0 -11.426280127658215 0 0 1 1 0 0 forward_v I I I I #
coedge $-1 $78 $79 $80 $81 forward $31 $-1 #
face $-1 $82 $83 $19 $-1 $84 reversed single #
loop $-1 $-1 $85 $33 #
plane-surface $-1 0 -14.595466914207545 -8.5345772571297633 0 -1 0 0 0 -1 forward_v I I I I #
coedge $-1 $86 $87 $88 $89 reversed $34 $-1 #
face $-1 $90 $91 $20 $-1 $92 reversed single #
loop $-1 $-1 $93 $36 #
plane-surface $-1 -64.89211706900231 -9.6973809917256943 0.92190967307517724 -0.84804810408105047 0 0.52991925155115449 0.52991925155115449 0 0.84804810408105047 forward_v I I I I #
coedge $-1 $94 $95 $96 $97 reversed $37 $-1 #
face $-1 $-1 $98 $21 $-1 $99 forward single #
loop $-1 $100 $101 $39 #
cone-surface $-1 -54.993952689640921 -9.6973809917256943 2.0398126179702185 0.84804810408105047 0 -0.52991925155115449 0.52991925155115449 0 0.84804810408105047 1 I I -0.70710678118654746 0.70710678118654746 1 forward I I I I #
loop $-1 $-1 $102 $27 #
coedge $-1 $64 $64 $103 $104 reversed $40 $-1 #
face $-1 $105 $106 $22 $-1 $107 forward single #
loop $-1 $-1 $108 $42 #
plane-surface $-1 -64.89211706900231 21.737249607406145 0.92190967307517724 -0.84804810408105047 0 0.52991925155115449 0.52991925155115449 0 0.84804810408105047 forward_v I I I I #
coedge $-1 $109 $110 $111 $112 reversed $43 $-1 #
face $-1 $-1 $113 $23 $-1 $114 forward single #
loop $-1 $115 $116 $45 #
cone-surface $-1 -54.993952689640921 21.737249607406145 2.0398126179702185 0.84804810408105047 0 -0.52991925155115449 0.52991925155115449 0 0.84804810408105047 1 I I -0.70710678118654746 0.70710678118654746 1 forward I I I I #
loop $-1 $-1 $117 $29 #
coedge $-1 $73 $73 $118 $119 reversed $46 $-1 #
face $-1 $120 $121 $18 $-1 $122 reversed single #
loop $-1 $-1 $123 $48 #
plane-surface $-1 0 -26.635335529888007 0 0 1 0 0 0 1 forward_v I I I I #
coedge $-1 $124 $125 $126 $127 forward $49 $-1 #
coedge $-1 $128 $51 $129 $130 forward $31 $-1 #
coedge $-1 $51 $128 $131 $132 forward $31 $-1 #
coedge $-1 $133 $134 $51 $81 reversed $135 $-1 #
edge $-1 $136 -26.635335529888007 $137 26.635335529888007 $80 $138 forward 7 unknown #
face $-1 $139 $140 $19 $-1 $141 reversed single #
loop $-1 $-1 $142 $52 #
plane-surface $-1 0 0 -11.426280127658215 0 0 1 1 0 0 forward_v I I I I #
coedge $-1 $143 $144 $145 $146 reversed $53 $-1 #
coedge $-1 $147 $55 $144 $148 forward $34 $-1 #
coedge $-1 $55 $147 $149 $150 reversed $34 $-1 #
coedge $-1 $151 $145 $55 $89 forward $140 $-1 #
edge $-1 $152 4.2877663031836573 $153 16.327634918864121 $88 $154 forward 7 unknown #
face $-1 $155 $156 $20 $-1 $157 forward single #
loop $-1 $-1 $158 $56 #
plane-surface $-1 -174.95539076934836 -4.7992950692438408 69.697073890626427 0 -1 0 0.84804810408105047 0 -0.52991925155115449 forward_v I I I I #
coedge $-1 $159 $160 $161 $162 reversed $57 $-1 #
coedge $-1 $95 $59 $163 $164 reversed $37 $-1 #
coedge $-1 $59 $94 $159 $165 reversed $37 $-1 #
coedge $-1 $161 $166 $59 $97 forward $156 $-1 #
edge $-1 $167 22.585578315671825 $168 29.149437255419819 $96 $169 forward 7 unknown #
loop $-1 $-1 $103 $60 #
plane-surface $-1 -64.89211706900231 -9.6973809917256943 0.92190967307517724 -0.84804810408105047 0 0.52991925155115449 0.52991925155115449 0 0.84804810408105047 forward_v I I I I #
loop $-1 $-1 $170 $39 #
coedge $-1 $101 $101 $102 $171 reversed $61 $-1 #
coedge $-1 $102 $102 $101 $171 forward $63 $-1 #
coedge $-1 $103 $103 $64 $104 forward $98 $-1 #
edge $-1 $172 0 $172 6.2831853071796004 $103 $173 forward 7 unknown #
face $-1 $174 $175 $22 $-1 $176 reversed single #
loop $-1 $-1 $111 $65 #
plane-surface $-1 0 0 11.426280127658215 0 0 1 1 0 0 forward_v I I I I #
coedge $-1 $177 $178 $179 $180 reversed $66 $-1 #
coedge $-1 $110 $68 $181 $182 reversed $43 $-1 #
coedge $-1 $68 $109 $177 $183 reversed $43 $-1 #
coedge $-1 $179 $184 $68 $112 forward $106 $-1 #
edge $-1 $185 22.585578315671825 $186 29.149437255419819 $111 $187 forward 7 unknown #
loop $-1 $-1 $118 $69 #
plane-surface $-1 -64.89211706900231 21.737249607406145 0.92190967307517724 -0.84804810408105047 0 0.52991925155115449 0.52991925155115449 0 0.84804810408105047 forward_v I I I I #
loop $-1 $-1 $188 $45 #
coedge $-1 $116 $116 $117 $189 reversed $70 $-1 #
coedge $-1 $117 $117 $116 $189 forward $72 $-1 #
coedge $-1 $118 $118 $73 $119 forward $113 $-1 #
edge $-1 $190 0 $190 6.2831853071796004 $118 $191 forward 7 unknown #
face $-1 $192 $193 $18 $-1 $194 reversed single #
loop $-1 $-1 $195 $74 #
plane-surface $-1 -64.892117069002353 0 0 1 0 0 0 0 -1 forward_v I I I I #
coedge $-1 $196 $131 $197 $198 forward $75 $-1 #
coedge $-1 $199 $77 $196 $200 forward $49 $-1 #
coedge $-1 $77 $199 $201 $202 forward $49 $-1 #
coedge $-1 $134 $133 $77 $127 reversed $135 $-1 #
edge $-1 $203 -26.635335529888007 $204 26.635335529888007 $126 $205 forward 7 unknown #
coedge $-1 $79 $78 $206 $207 forward $31 $-1 #
coedge $-1 $208 $209 $78 $130 reversed $193 $-1 #
edge $-1 $137 -64.892117069002353 $210 64.892117069002353 $129 $211 forward 7 unknown #
coedge $-1 $123 $212 $79 $132 reversed $75 $-1 #
edge $-1 $213 -64.892117069002353 $136 64.892117069002353 $131 $214 forward 7 unknown #
coedge $-1 $126 $80 $212 $215 forward $135 $-1 #
coedge $-1 $80 $126 $208 $216 reversed $135 $-1 #
loop $-1 $-1 $133 $192 #
vertex $-1 $81 $217 #
vertex $-1 $81 $218 #
straight-curve $-1 64.892117069002353 0 11.426280127658215 0 1 0 I I #
face $-1 $219 $220 $19 $-1 $221 reversed single #
loop $-1 $-1 $145 $82 #
plane-surface $-1 64.892117069002353 0 0 -1 0 0 0 0 1 forward_v I I I I #
coedge $-1 $222 $223 $143 $224 forward $83 $-1 #
coedge $-1 $225 $85 $142 $224 reversed $53 $-1 #
coedge $-1 $85 $225 $86 $148 reversed $53 $-1 #
coedge $-1 $88 $226 $85 $146 forward $140 $-1 #
edge $-1 $227 -7.1589914990933332 $152 -1.3755857580364301 $145 $228 forward 7 unknown #
coedge $-1 $87 $86 $229 $230 reversed $34 $-1 #
edge $-1 $152 -64.892117069002353 $231 64.892117069002353 $144 $232 forward 7 unknown #
coedge $-1 $233 $234 $87 $150 forward $220 $-1 #
edge $-1 $153 -64.892117069002353 $235 64.892117069002353 $149 $236 forward 7 unknown #
coedge $-1 $226 $88 $234 $237 forward $140 $-1 #
vertex $-1 $89 $238 #
vertex $-1 $237 $239 #
straight-curve $-1 64.892117069002353 -10.307700611023888 -5.6428743866013118 0 -1 0 I I #
face $-1 $-1 $240 $20 $-1 $241 reversed single #
loop $-1 $-1 $96 $90 #
plane-surface $-1 0 0 11.426280127658215 0 0 1 1 0 0 forward_v I I I I #
coedge $-1 $242 $243 $244 $245 reversed $91 $-1 #
coedge $-1 $246 $93 $95 $165 forward $57 $-1 #
coedge $-1 $93 $246 $242 $247 forward $57 $-1 #
coedge $-1 $244 $96 $93 $162 forward $156 $-1 #
edge $-1 $168 -9.7467764183447017 $248 0.049395426619006422 $161 $249 forward 7 unknown #
coedge $-1 $250 $251 $94 $164 forward $240 $-1 #
edge $-1 $252 -33.926627272238107 $167 -23.422256817654997 $163 $253 forward 7 unknown #
edge $-1 $168 -12.386526665212738 $252 8.0495452148886473e-014 $95 $254 forward 7 unknown #
coedge $-1 $96 $244 $250 $255 forward $156 $-1 #
vertex $-1 $164 $256 #
vertex $-1 $97 $257 #
straight-curve $-1 -87.477695384674178 -14.595466914207549 11.426280127658217 1 0 0 I I #
coedge $-1 $170 $170 $-1 $258 reversed $100 $-1 #
edge $-1 $259 0 $259 6.2831853071796004 $101 $260 forward 7 unknown #
vertex $-1 $104 $261 #
ellipse-curve $-1 -61.610187599128345 -9.6973809917256943 6.1740949003666783 -0.84804810408105047 0 0.52991925155115449 1.059838503102309 0 1.6960962081621009 1 I I #
face $-1 $-1 $262 $22 $-1 $263 reversed single #
loop $-1 $-1 $264 $105 #
plane-surface $-1 0 26.635335529888007 0 0 -1 0 0 0 -1 forward_v I I I I #
coedge $-1 $265 $108 $110 $183 forward $66 $-1 #
coedge $-1 $108 $265 $264 $266 reversed $66 $-1 #
coedge $-1 $267 $111 $108 $180 forward $106 $-1 #
edge $-1 $186 5.9705388812212181 $268 15.766710726184927 $179 $269 forward 7 unknown #
coedge $-1 $270 $271 $109 $182 forward $262 $-1 #
edge $-1 $272 -33.926627272238107 $185 -23.422256817654997 $181 $273 forward 7 unknown #
edge $-1 $186 -12.386526665212738 $272 8.0495452148886473e-014 $110 $274 forward 7 unknown #
coedge $-1 $111 $267 $270 $275 forward $106 $-1 #
vertex $-1 $182 $276 #
vertex $-1 $112 $277 #
straight-curve $-1 -87.477695384674178 16.839163684924291 11.426280127658217 1 0 0 I I #
coedge $-1 $188 $188 $-1 $278 reversed $115 $-1 #
edge $-1 $279 0 $279 6.2831853071796004 $116 $280 forward 7 unknown #
vertex $-1 $119 $281 #
ellipse-curve $-1 -61.610187599128345 21.737249607406145 6.1740949003666783 -0.84804810408105047 0 0.52991925155115449 1.059838503102309 0 1.6960962081621009 1 I I #
face $-1 $-1 $135 $18 $-1 $282 reversed single #
loop $-1 $-1 $208 $120 #
plane-surface $-1 0 26.635335529888007 0 0 -1 0 0 0 -1 forward_v I I I I #
coedge $-1 $283 $206 $209 $284 forward $121 $-1 #
coedge $-1 $212 $123 $124 $200 reversed $75 $-1 #
coedge $-1 $206 $283 $123 $198 reversed $121 $-1 #
edge $-1 $213 -11.426280127658215 $285 11.426280127658215 $197 $286 forward 7 unknown #
coedge $-1 $125 $124 $283 $287 forward $49 $-1 #
edge $-1 $204 -64.892117069002353 $285 64.892117069002353 $196 $288 forward 7 unknown #
coedge $-1 $209 $208 $125 $202 reversed $193 $-1 #
edge $-1 $289 -64.892117069002353 $203 64.892117069002353 $201 $290 forward 7 unknown #
vertex $-1 $127 $291 #
vertex $-1 $215 $292 #
straight-curve $-1 64.892117069002353 0 -11.426280127658215 0 -1 0 I I #
coedge $-1 $195 $197 $128 $207 reversed $121 $-1 #
edge $-1 $210 -26.635335529888007 $213 26.635335529888007 $206 $293 forward 7 unknown #
coedge $-1 $201 $129 $134 $216 forward $193 $-1 #
coedge $-1 $129 $201 $195 $284 reversed $193 $-1 #
vertex $-1 $130 $294 #
straight-curve $-1 0 26.635335529888007 11.426280127658215 -1 0 0 I I #
coedge $-1 $131 $196 $133 $215 reversed $75 $-1 #
vertex $-1 $207 $295 #
straight-curve $-1 0 -26.635335529888007 11.426280127658215 1 0 0 I I #
edge $-1 $136 -11.426280127658215 $204 11.426280127658215 $133 $296 forward 7 unknown #
edge $-1 $137 -11.426280127658215 $203 11.426280127658215 $134 $297 forward 7 unknown #
point $-1 64.892117069002353 -26.635335529888007 11.426280127658215 #
point $-1 64.892117069002353 26.635335529888007 11.426280127658215 #
face $-1 $-1 $298 $19 $-1 $299 reversed single #
loop $-1 $-1 $149 $139 #
plane-surface $-1 0 -26.635335529888007 0 0 1 0 0 0 1 forward_v I I I I #
coedge $-1 $300 $142 $226 $301 forward $83 $-1 #
coedge $-1 $142 $300 $302 $303 forward $83 $-1 #
edge $-1 $304 -64.892117069002353 $227 64.892117069002353 $142 $305 forward 7 unknown #
coedge $-1 $144 $143 $306 $307 reversed $53 $-1 #
coedge $-1 $145 $151 $222 $301 reversed $140 $-1 #
vertex $-1 $301 $308 #
straight-curve $-1 64.892117069002353 -14.595466914207545 -4.2672886285648817 0 0 1 I I #
coedge $-1 $306 $309 $147 $230 forward $298 $-1 #
edge $-1 $235 -16.327634918864121 $231 -4.2877663031836573 $229 $310 forward 7 unknown #
vertex $-1 $230 $311 #
straight-curve $-1 0 -14.595466914207545 -5.6428743866013118 -1 0 0 I I #
coedge $-1 $312 $149 $309 $313 forward $220 $-1 #
coedge $-1 $149 $312 $151 $237 reversed $220 $-1 #
vertex $-1 $313 $314 #
straight-curve $-1 0 -26.635335529888007 -5.6428743866013118 -1 0 0 I I #
edge $-1 $153 5.6428743866013118 $315 11.426280127658215 $151 $316 forward 7 unknown #
point $-1 64.892117069002353 -14.595466914207545 -5.6428743866013118 #
point $-1 64.892117069002353 -26.635335529888007 -5.6428743866013118 #
loop $-1 $-1 $163 $155 #
plane-surface $-1 -64.892117069002353 0 0 1 0 0 0 0 -1 forward_v I I I I #
coedge $-1 $243 $158 $160 $247 reversed $91 $-1 #
coedge $-1 $158 $242 $317 $318 reversed $91 $-1 #
coedge $-1 $166 $161 $158 $245 forward $156 $-1 #
edge $-1 $248 -29.149437255419819 $319 -22.585578315671825 $244 $320 forward 7 unknown #
coedge $-1 $160 $159 $251 $321 reversed $57 $-1 #
edge $-1 $322 -8.0495452148886473e-014 $248 12.386526665212738 $242 $323 forward 7 unknown #
vertex $-1 $162 $324 #
straight-curve $-1 -58.328258129254351 -4.8486904958628472 11.426280127658215 0 1 0 I I #
coedge $-1 $317 $163 $166 $255 reversed $240 $-1 #
coedge $-1 $163 $317 $246 $321 forward $240 $-1 #
vertex $-1 $164 $325 #
straight-curve $-1 -64.892117069002353 -14.595466914207549 34.848536945313214 0 0 1 I I #
straight-curve $-1 -64.89211706900231 -14.595466914207549 0.92190967307517724 -0.52991925155115449 0 -0.84804810408105047 I I #
edge $-1 $319 4.7992950692438408 $167 14.595466914207549 $250 $326 forward 7 unknown #
point $-1 -64.892117069002353 -14.595466914207549 11.426280127658215 #
point $-1 -58.328258129254358 -14.595466914207549 11.426280127658215 #
edge $-1 $327 1 $327 0 $170 $-1 forward 7 unknown #
vertex $-1 $171 $328 #
ellipse-curve $-1 -55.842000793721972 -9.6973809917256943 2.5697318695213731 -0.84804810408105047 0 0.52991925155115449 1.059838503102309 0 1.6960962081621009 1 I I #
point $-1 -60.550349096026075 -9.6973809917256943 7.8701911085288039 #
loop $-1 $-1 $181 $174 #
plane-surface $-1 -64.892117069002353 0 0 1 0 0 0 0 -1 forward_v I I I I #
coedge $-1 $329 $330 $178 $266 forward $175 $-1 #
coedge $-1 $178 $177 $271 $331 reversed $66 $-1 #
edge $-1 $268 4.4163525139823712 $332 16.802879179195187 $264 $333 forward 7 unknown #
coedge $-1 $184 $179 $330 $334 forward $106 $-1 #
vertex $-1 $334 $335 #
straight-curve $-1 -58.328258129254351 10.868624803703073 11.426280127658215 0 1 0 I I #
coedge $-1 $336 $181 $184 $275 reversed $262 $-1 #
coedge $-1 $181 $336 $265 $331 forward $262 $-1 #
vertex $-1 $182 $337 #
straight-curve $-1 -64.892117069002353 16.839163684924291 34.848536945313214 0 0 1 I I #
straight-curve $-1 -64.89211706900231 16.839163684924291 0.92190967307517724 -0.52991925155115449 0 -0.84804810408105047 I I #
edge $-1 $338 -26.635335529888007 $185 -16.839163684924291 $270 $339 forward 7 unknown #
point $-1 -64.892117069002353 16.839163684924291 11.426280127658215 #
point $-1 -58.328258129254358 16.839163684924291 11.426280127658215 #
edge $-1 $340 1 $340 0 $188 $-1 forward 7 unknown #
vertex $-1 $189 $341 #
ellipse-curve $-1 -55.842000793721972 21.737249607406145 2.5697318695213731 -0.84804810408105047 0 0.52991925155115449 1.059838503102309 0 1.6960962081621009 1 I I #
point $-1 -60.550349096026075 21.737249607406145 7.8701911085288039 #
plane-surface $-1 64.892117069002353 0 0 -1 0 0 0 0 1 forward_v I I I I #
coedge $-1 $197 $195 $199 $287 reversed $121 $-1 #
edge $-1 $210 -11.426280127658215 $289 11.426280127658215 $209 $342 forward 7 unknown #
vertex $-1 $287 $343 #
straight-curve $-1 -64.892117069002353 -26.635335529888007 0 0 0 -1 I I #
edge $-1 $285 -26.635335529888007 $289 26.635335529888007 $283 $344 forward 7 unknown #
straight-curve $-1 0 -26.635335529888007 -11.426280127658215 -1 0 0 I I #
vertex $-1 $202 $345 #
straight-curve $-1 0 26.635335529888007 -11.426280127658215 1 0 0 I I #
point $-1 64.892117069002353 26.635335529888007 -11.426280127658215 #
point $-1 64.892117069002353 -26.635335529888007 -11.426280127658215 #
straight-curve $-1 -64.892117069002353 0 11.426280127658215 0 -1 0 I I #
point $-1 -64.892117069002353 26.635335529888007 11.426280127658215 #
point $-1 -64.892117069002353 -26.635335529888007 11.426280127658215 #
straight-curve $-1 64.892117069002353 -26.635335529888007 0 0 0 -1 I I #
straight-curve $-1 64.892117069002353 26.635335529888007 0 0 0 -1 I I #
loop $-1 $-1 $306 $219 #
plane-surface $-1 -64.892117069002353 0 0 1 0 0 0 0 -1 forward_v I I I I #
coedge $-1 $223 $222 $312 $346 forward $83 $-1 #
edge $-1 $227 14.595466914207545 $315 26.635335529888007 $226 $347 forward 7 unknown #
coedge $-1 $309 $306 $223 $303 reversed $298 $-1 #
edge $-1 $348 -26.635335529888007 $304 -14.595466914207545 $302 $349 forward 7 unknown #
vertex $-1 $307 $350 #
straight-curve $-1 0 -14.595466914207545 -11.426280127658215 1 0 0 I I #
coedge $-1 $302 $229 $225 $307 forward $298 $-1 #
edge $-1 $231 1.3755857580364301 $304 7.1589914990933332 $306 $351 forward 7 unknown #
point $-1 64.892117069002353 -14.595466914207545 -11.426280127658215 #
coedge $-1 $229 $302 $233 $313 reversed $298 $-1 #
straight-curve $-1 -64.892117069002353 -10.307700611023888 -5.6428743866013118 0 1 0 I I #
point $-1 -64.892117069002353 -14.595466914207545 -5.6428743866013118 #
coedge $-1 $234 $233 $300 $346 reversed $220 $-1 #
edge $-1 $235 5.6428743866013118 $348 11.426280127658215 $309 $352 forward 7 unknown #
point $-1 -64.892117069002353 -26.635335529888007 -5.6428743866013118 #
vertex $-1 $237 $353 #
straight-curve $-1 64.892117069002353 -26.635335529888007 0 0 0 -1 I I #
coedge $-1 $251 $250 $243 $318 forward $240 $-1 #
edge $-1 $319 23.422256817654997 $322 33.926627272238107 $317 $354 forward 7 unknown #
vertex $-1 $255 $355 #
straight-curve $-1 -87.477695384674178 -4.7992950692438408 11.426280127658217 -1 0 0 I I #
edge $-1 $322 -0.049395426619006422 $252 9.7467764183447017 $251 $356 forward 7 unknown #
vertex $-1 $321 $357 #
straight-curve $-1 -64.89211706900231 -4.7992950692438408 0.92190967307517724 0.52991925155115449 0 0.84804810408105047 I I #
point $-1 -58.328258129254358 -4.7992950692438408 11.426280127658215 #
point $-1 -64.892117069002353 -14.595466914207549 0.92190967307510896 #
straight-curve $-1 -64.892117069002353 0 11.426280127658215 0 -1 0 I I #
vertex $-1 $258 $358 #
point $-1 -54.782162290619659 -9.6973809917256943 4.2658280776834738 #
coedge $-1 $330 $264 $336 $359 reversed $175 $-1 #
coedge $-1 $264 $329 $267 $334 reversed $175 $-1 #
edge $-1 $332 -15.766710726184927 $272 -5.9705388812212181 $271 $360 forward 7 unknown #
vertex $-1 $266 $361 #
straight-curve $-1 -55.987947910458757 26.635335529888007 15.171559504094544 -0.52991925155115449 0 -0.84804810408105047 I I #
edge $-1 $268 58.328258129254358 $338 64.892117069002353 $330 $362 forward 7 unknown #
point $-1 -58.328258129254358 26.635335529888 11.426280127658215 #
coedge $-1 $271 $270 $329 $359 forward $262 $-1 #
point $-1 -64.892117069002353 16.839163684924291 0.92190967307510896 #
vertex $-1 $334 $363 #
straight-curve $-1 -64.892117069002353 0 11.426280127658215 0 -1 0 I I #
vertex $-1 $278 $364 #
point $-1 -54.782162290619659 21.737249607406145 4.2658280776834738 #
straight-curve $-1 -64.892117069002353 26.635335529888007 0 0 0 -1 I I #
point $-1 -64.892117069002353 -26.635335529888007 -11.426280127658215 #
straight-curve $-1 -64.892117069002353 0 -11.426280127658215 0 1 0 I I #
point $-1 -64.892117069002353 26.635335529888007 -11.426280127658215 #
edge $-1 $315 -64.892117069002353 $348 64.892117069002353 $312 $365 forward 7 unknown #
straight-curve $-1 64.892117069002353 0 -11.426280127658215 0 -1 0 I I #
vertex $-1 $303 $366 #
straight-curve $-1 -64.892117069002353 0 -11.426280127658215 0 1 0 I I #
point $-1 -64.892117069002353 -14.595466914207545 -11.426280127658215 #
straight-curve $-1 -64.892117069002353 -14.595466914207545 -4.2672886285648817 0 0 -1 I I #
straight-curve $-1 -64.892117069002353 -26.635335529888007 0 0 0 -1 I I #
point $-1 64.892117069002353 -26.635335529888007 -11.426280127658215 #
straight-curve $-1 -64.892117069002353 -4.7992950692438408 34.848536945313214 0 0 -1 I I #
point $-1 -64.892117069002353 -4.7992950692438408 11.426280127658215 #
straight-curve $-1 -64.892117069002353 -4.8486904958628472 0.92190967307510818 0 -1 0 I I #
point $-1 -64.892117069002353 -4.7992950692438408 0.92190967307510896 #
point $-1 -54.145904585559869 -9.6973809917256943 1.5098933664190639 #
edge $-1 $338 -11.426280127658215 $332 -0.92190967307510896 $329 $367 forward 7 unknown #
straight-curve $-1 -64.892117069002353 10.868624803703073 0.92190967307510818 0 -1 0 I I #
point $-1 -64.892117069002353 26.635335529888 0.92190967307510896 #
straight-curve $-1 0 26.635335529888007 11.426280127658215 -1 0 0 I I #
point $-1 -64.892117069002353 26.635335529888007 11.426280127658215 #
point $-1 -54.145904585559869 21.737249607406145 1.5098933664190639 #
straight-curve $-1 0 -26.635335529888007 -11.426280127658215 -1 0 0 I I #
point $-1 -64.892117069002353 -26.635335529888007 -11.426280127658215 #
straight-curve $-1 -64.892117069002353 26.635335529888007 0 0 0 -1 I I #
End-of-ACIS-data 