500 0 14 0           
7 Unknown 11 ACIS 5.0 NT 24 Thu Mar 25 20:17:24 1999 
-1 9.9999999999999995e-007 1e-010 
body $-1 $14 $-1 $15 #
body $-1 $16 $-1 $17 #
body $-1 $18 $-1 $19 #
body $-1 $20 $-1 $21 #
body $-1 $22 $-1 $23 #
body $-1 $24 $-1 $25 #
body $-1 $26 $-1 $27 #
body $-1 $28 $-1 $29 #
body $-1 $30 $-1 $31 #
body $-1 $32 $-1 $33 #
body $-1 $34 $-1 $35 #
body $-1 $36 $-1 $37 #
body $-1 $38 $-1 $39 #
body $-1 $40 $-1 $41 #
lump $-1 $-1 $42 $0 #
transform $-1 1 0 0 0 1 0 0 0 1 57.19412823877682 31.110903759559509 12.877694322692269 1 rotate no_reflect no_shear #
lump $-1 $-1 $43 $1 #
transform $-1 1 0 0 0 1 0 0 0 1 57.19412823877682 31.110903759559509 12.877694322692269 1 rotate no_reflect no_shear #
lump $-1 $-1 $44 $2 #
transform $-1 1 0 0 0 1 0 0 0 1 57.19412823877682 31.110903759559509 12.877694322692269 1 rotate no_reflect no_shear #
lump $-1 $-1 $45 $3 #
transform $-1 1 0 0 0 1 0 0 0 1 57.19412823877682 31.110903759559509 12.877694322692269 1 rotate no_reflect no_shear #
lump $-1 $-1 $46 $4 #
transform $-1 1 0 0 0 1 0 0 0 1 57.19412823877682 31.110903759559509 12.877694322692269 1 rotate no_reflect no_shear #
lump $-1 $-1 $47 $5 #
transform $-1 1 0 0 0 1 0 0 0 1 57.19412823877682 31.110903759559509 12.877694322692269 1 rotate no_reflect no_shear #
lump $-1 $-1 $48 $6 #
transform $-1 1 0 0 0 1 0 0 0 1 57.19412823877682 31.110903759559509 12.877694322692269 1 rotate no_reflect no_shear #
lump $-1 $-1 $49 $7 #
transform $-1 1 0 0 0 1 0 0 0 1 57.19412823877682 31.110903759559509 12.877694322692269 1 rotate no_reflect no_shear #
lump $-1 $-1 $50 $8 #
transform $-1 1 0 0 0 1 0 0 0 1 57.19412823877682 31.110903759559509 12.877694322692269 1 rotate no_reflect no_shear #
lump $-1 $-1 $51 $9 #
transform $-1 1 0 0 0 1 0 0 0 1 57.19412823877682 31.110903759559509 12.877694322692269 1 rotate no_reflect no_shear #
lump $-1 $-1 $52 $10 #
transform $-1 1 0 0 0 1 0 0 0 1 57.19412823877682 31.110903759559509 12.877694322692269 1 rotate no_reflect no_shear #
lump $-1 $-1 $53 $11 #
transform $-1 1 0 0 0 1 0 0 0 1 57.19412823877682 31.110903759559509 12.877694322692269 1 rotate no_reflect no_shear #
lump $-1 $-1 $54 $12 #
transform $-1 1 0 0 0 1 0 0 0 1 57.19412823877682 31.110903759559509 12.877694322692269 1 rotate no_reflect no_shear #
lump $-1 $-1 $55 $13 #
transform $-1 1 0 0 0 1 0 0 0 1 57.19412823877682 31.110903759559509 12.877694322692269 1 rotate no_reflect no_shear #
shell $-1 $-1 $-1 $56 $-1 $14 #
shell $-1 $-1 $-1 $57 $-1 $16 #
shell $-1 $-1 $-1 $58 $-1 $18 #
shell $-1 $-1 $-1 $59 $-1 $20 #
shell $-1 $-1 $-1 $60 $-1 $22 #
shell $-1 $-1 $-1 $61 $-1 $24 #
shell $-1 $-1 $-1 $62 $-1 $26 #
shell $-1 $-1 $-1 $63 $-1 $28 #
shell $-1 $-1 $-1 $64 $-1 $30 #
shell $-1 $-1 $-1 $65 $-1 $32 #
shell $-1 $-1 $-1 $66 $-1 $34 #
shell $-1 $-1 $-1 $67 $-1 $36 #
shell $-1 $-1 $-1 $68 $-1 $38 #
shell $-1 $-1 $-1 $69 $-1 $40 #
face $-1 $70 $71 $42 $-1 $72 reversed single #
face $-1 $73 $74 $43 $-1 $75 forward single #
face $-1 $76 $77 $44 $-1 $78 reversed single #
face $-1 $79 $80 $45 $-1 $81 forward single #
face $-1 $82 $83 $46 $-1 $84 forward single #
face $-1 $85 $86 $47 $-1 $87 reversed single #
face $-1 $88 $89 $48 $-1 $90 forward single #
face $-1 $91 $92 $49 $-1 $93 forward single #
face $-1 $94 $95 $50 $-1 $96 reversed single #
face $-1 $97 $98 $51 $-1 $99 forward single #
face $-1 $100 $101 $52 $-1 $102 forward single #
face $-1 $103 $104 $53 $-1 $105 reversed single #
face $-1 $106 $107 $54 $-1 $108 forward single #
face $-1 $109 $110 $55 $-1 $111 forward single #
face $-1 $112 $113 $42 $-1 $114 forward single #
loop $-1 $-1 $115 $56 #
plane-surface $-1 -57.19412823877682 0 0 1 0 0 0 0 -1 forward_v I I I I #
face $-1 $116 $117 $43 $-1 $118 reversed single #
loop $-1 $-1 $119 $57 #
plane-surface $-1 -57.19412823877682 0 0 1 0 0 0 0 -1 forward_v I I I I #
face $-1 $120 $121 $44 $-1 $122 reversed single #
loop $-1 $-1 $123 $58 #
plane-surface $-1 -28.373382734278536 -106.15635314475242 93.449014659191292 -1 0 0 0 -0.6560590369687036 0.75470957328743171 forward_v I I I I #
face $-1 $124 $125 $45 $-1 $126 forward single #
loop $-1 $127 $128 $59 #
cone-surface $-1 -41.267928886408058 -25.367648368122286 7.2018478114669922 0 0.6560590369687036 -0.75470957328743171 2 0 0 1 I I 0 1 2 forward I I I I #
face $-1 $129 $130 $46 $-1 $131 forward single #
loop $-1 $132 $133 $60 #
cone-surface $-1 -33.53120119513035 -25.367648368122286 7.2018478114669922 0 0.6560590369687036 -0.75470957328743171 2 0 0 1 I I 0 1 2 forward I I I I #
face $-1 $134 $135 $47 $-1 $136 reversed single #
loop $-1 $-1 $137 $61 #
plane-surface $-1 -2.4684138377693703 -106.15635314475242 93.449014659191292 -1 0 0 0 -0.6560590369687036 0.75470957328743171 forward_v I I I I #
face $-1 $138 $139 $48 $-1 $140 forward single #
loop $-1 $141 $142 $62 #
cone-surface $-1 -15.36295998989889 -25.367648368122286 7.2018478114669922 0 0.6560590369687036 -0.75470957328743171 2 0 0 1 I I 0 1 2 forward I I I I #
face $-1 $143 $144 $49 $-1 $145 forward single #
loop $-1 $146 $147 $63 #
cone-surface $-1 -7.6262322986211757 -25.367648368122286 7.2018478114669922 0 0.6560590369687036 -0.75470957328743171 2 0 0 1 I I 0 1 2 forward I I I I #
face $-1 $148 $149 $50 $-1 $150 reversed single #
loop $-1 $-1 $151 $64 #
plane-surface $-1 23.436555058739806 -106.15635314475242 93.449014659191292 -1 0 0 0 -0.6560590369687036 0.75470957328743171 forward_v I I I I #
face $-1 $152 $153 $51 $-1 $154 forward single #
loop $-1 $155 $156 $65 #
cone-surface $-1 10.542008906610285 -25.367648368122286 7.2018478114669922 0 0.6560590369687036 -0.75470957328743171 2 0 0 1 I I 0 1 2 forward I I I I #
face $-1 $157 $158 $52 $-1 $159 forward single #
loop $-1 $160 $161 $66 #
cone-surface $-1 18.278736597887992 -25.367648368122286 7.2018478114669922 0 0.6560590369687036 -0.75470957328743171 2 0 0 1 I I 0 1 2 forward I I I I #
face $-1 $162 $163 $53 $-1 $164 reversed single #
loop $-1 $-1 $165 $67 #
plane-surface $-1 49.341523955248981 -106.15635314475242 93.449014659191292 -1 0 0 0 -0.6560590369687036 0.75470957328743171 forward_v I I I I #
face $-1 $166 $167 $54 $-1 $168 forward single #
loop $-1 $169 $170 $68 #
cone-surface $-1 36.446977803119459 -25.367648368122286 7.2018478114669922 0 0.6560590369687036 -0.75470957328743171 2 0 0 1 I I 0 1 2 forward I I I I #
face $-1 $171 $172 $55 $-1 $173 forward single #
loop $-1 $174 $175 $69 #
cone-surface $-1 44.183705494397167 -25.367648368122286 7.2018478114669922 0 0.6560590369687036 -0.75470957328743171 2 0 0 1 I I 0 1 2 forward I I I I #
face $-1 $176 $177 $42 $-1 $178 reversed single #
loop $-1 $-1 $179 $70 #
plane-surface $-1 0 0 12.877694322692269 0 0 1 1 0 0 forward_v I I I I #
coedge $-1 $180 $181 $182 $183 reversed $71 $-1 #
face $-1 $184 $185 $43 $-1 $186 reversed single #
loop $-1 $-1 $187 $73 #
plane-surface $-1 0 0 -12.877694322692269 0 0 1 1 0 0 forward_v I I I I #
coedge $-1 $188 $189 $190 $191 forward $74 $-1 #
face $-1 $192 $193 $44 $-1 $194 reversed single #
loop $-1 $-1 $195 $76 #
plane-surface $-1 -37.399565040769204 -31.110903759559505 7.1191024239234935 0 -0.6560590369687036 0.75470957328743171 1 0 0 forward_v I I I I #
coedge $-1 $196 $197 $198 $199 reversed $77 $-1 #
face $-1 $-1 $200 $45 $-1 $201 forward single #
loop $-1 $202 $203 $79 #
cone-surface $-1 -41.267928886408058 -22.280584964210345 3.6505876763386826 0 0.6560590369687036 -0.75470957328743171 1 0 0 1 I I -0.70710678118654746 0.70710678118654746 1 forward I I I I #
loop $-1 $-1 $204 $59 #
coedge $-1 $128 $128 $205 $206 reversed $80 $-1 #
face $-1 $-1 $207 $46 $-1 $208 forward single #
loop $-1 $209 $210 $82 #
cone-surface $-1 -33.53120119513035 -22.280584964210345 3.6505876763386826 0 0.6560590369687036 -0.75470957328743171 1 0 0 1 I I -0.70710678118654746 0.70710678118654746 1 forward I I I I #
loop $-1 $-1 $211 $60 #
coedge $-1 $133 $133 $212 $213 reversed $83 $-1 #
face $-1 $214 $215 $47 $-1 $216 reversed single #
loop $-1 $-1 $217 $85 #
plane-surface $-1 -11.494596144260036 -31.110903759559505 7.1191024239234935 0 -0.6560590369687036 0.75470957328743171 1 0 0 forward_v I I I I #
coedge $-1 $218 $219 $220 $221 reversed $86 $-1 #
face $-1 $-1 $222 $48 $-1 $223 forward single #
loop $-1 $224 $225 $88 #
cone-surface $-1 -15.36295998989889 -22.280584964210345 3.6505876763386826 0 0.6560590369687036 -0.75470957328743171 1 0 0 1 I I -0.70710678118654746 0.70710678118654746 1 forward I I I I #
loop $-1 $-1 $226 $62 #
coedge $-1 $142 $142 $227 $228 reversed $89 $-1 #
face $-1 $-1 $229 $49 $-1 $230 forward single #
loop $-1 $231 $232 $91 #
cone-surface $-1 -7.6262322986211757 -22.280584964210345 3.6505876763386826 0 0.6560590369687036 -0.75470957328743171 1 0 0 1 I I -0.70710678118654746 0.70710678118654746 1 forward I I I I #
loop $-1 $-1 $233 $63 #
coedge $-1 $147 $147 $234 $235 reversed $92 $-1 #
face $-1 $236 $237 $50 $-1 $238 reversed single #
loop $-1 $-1 $239 $94 #
plane-surface $-1 14.410372752249138 -31.110903759559505 7.1191024239234935 0 -0.6560590369687036 0.75470957328743171 1 0 0 forward_v I I I I #
coedge $-1 $240 $241 $242 $243 reversed $95 $-1 #
face $-1 $-1 $244 $51 $-1 $245 forward single #
loop $-1 $246 $247 $97 #
cone-surface $-1 10.542008906610285 -22.280584964210345 3.6505876763386826 0 0.6560590369687036 -0.75470957328743171 1 0 0 1 I I -0.70710678118654746 0.70710678118654746 1 forward I I I I #
loop $-1 $-1 $248 $65 #
coedge $-1 $156 $156 $249 $250 reversed $98 $-1 #
face $-1 $-1 $251 $52 $-1 $252 forward single #
loop $-1 $253 $254 $100 #
cone-surface $-1 18.278736597887992 -22.280584964210345 3.6505876763386826 0 0.6560590369687036 -0.75470957328743171 1 0 0 1 I I -0.70710678118654746 0.70710678118654746 1 forward I I I I #
loop $-1 $-1 $255 $66 #
coedge $-1 $161 $161 $256 $257 reversed $101 $-1 #
face $-1 $258 $259 $53 $-1 $260 reversed single #
loop $-1 $-1 $261 $103 #
plane-surface $-1 40.315341648758313 -31.110903759559505 7.1191024239234935 0 -0.6560590369687036 0.75470957328743171 1 0 0 forward_v I I I I #
coedge $-1 $262 $263 $264 $265 reversed $104 $-1 #
face $-1 $-1 $266 $54 $-1 $267 forward single #
loop $-1 $268 $269 $106 #
cone-surface $-1 36.446977803119459 -22.280584964210345 3.6505876763386826 0 0.6560590369687036 -0.75470957328743171 1 0 0 1 I I -0.70710678118654746 0.70710678118654746 1 forward I I I I #
loop $-1 $-1 $270 $68 #
coedge $-1 $170 $170 $271 $272 reversed $107 $-1 #
face $-1 $-1 $273 $55 $-1 $274 forward single #
loop $-1 $275 $276 $109 #
cone-surface $-1 44.183705494397167 -22.280584964210345 3.6505876763386826 0 0.6560590369687036 -0.75470957328743171 1 0 0 1 I I -0.70710678118654746 0.70710678118654746 1 forward I I I I #
loop $-1 $-1 $277 $69 #
coedge $-1 $175 $175 $278 $279 reversed $110 $-1 #
face $-1 $280 $281 $42 $-1 $282 reversed single #
loop $-1 $-1 $283 $112 #
plane-surface $-1 0 0 -12.877694322692269 0 0 1 1 0 0 forward_v I I I I #
coedge $-1 $284 $285 $286 $287 forward $113 $-1 #
coedge $-1 $288 $115 $289 $290 reversed $71 $-1 #
coedge $-1 $115 $288 $291 $292 forward $71 $-1 #
coedge $-1 $293 $294 $115 $183 forward $177 $-1 #
edge $-1 $295 -31.110903759559509 $296 31.110903759559509 $115 $297 forward 7 unknown #
face $-1 $298 $299 $43 $-1 $300 reversed single #
loop $-1 $-1 $301 $116 #
plane-surface $-1 -62.578318684535297 -15.319565449448756 0 0 1 0 0 0 1 forward_v I I I I #
coedge $-1 $302 $303 $189 $304 forward $117 $-1 #
coedge $-1 $305 $119 $306 $307 reversed $74 $-1 #
coedge $-1 $119 $305 $187 $304 reversed $74 $-1 #
coedge $-1 $308 $309 $119 $191 reversed $310 $-1 #
edge $-1 $311 -12.877694322692269 $312 12.877694322692269 $190 $313 forward 7 unknown #
face $-1 $314 $315 $44 $-1 $316 forward single #
loop $-1 $-1 $317 $120 #
plane-surface $-1 -46.425747347259872 -106.15635314475242 93.449014659191292 1 0 0 0 0.6560590369687036 -0.75470957328743171 forward_v I I I I #
coedge $-1 $318 $319 $320 $321 reversed $121 $-1 #
coedge $-1 $197 $123 $322 $323 reversed $77 $-1 #
coedge $-1 $123 $196 $318 $324 reversed $77 $-1 #
coedge $-1 $320 $325 $123 $199 forward $315 $-1 #
edge $-1 $326 21.967272812816699 $327 28.591774861804659 $198 $328 forward 7 unknown #
loop $-1 $-1 $205 $124 #
plane-surface $-1 -37.399565040769204 -31.110903759559505 7.1191024239234935 0 -0.6560590369687036 0.75470957328743171 1 0 0 forward_v I I I I #
loop $-1 $-1 $329 $79 #
coedge $-1 $203 $203 $204 $330 reversed $125 $-1 #
coedge $-1 $204 $204 $203 $330 forward $127 $-1 #
coedge $-1 $205 $205 $128 $206 forward $200 $-1 #
edge $-1 $331 3.5047710980055092e-016 $331 6.2831853071796004 $205 $332 forward 7 unknown #
loop $-1 $-1 $212 $129 #
plane-surface $-1 -37.399565040769204 -31.110903759559505 7.1191024239234935 0 -0.6560590369687036 0.75470957328743171 1 0 0 forward_v I I I I #
loop $-1 $-1 $333 $82 #
coedge $-1 $210 $210 $211 $334 reversed $130 $-1 #
coedge $-1 $211 $211 $210 $334 forward $132 $-1 #
coedge $-1 $212 $212 $133 $213 forward $207 $-1 #
edge $-1 $335 3.5047710980055092e-016 $335 6.2831853071796004 $212 $336 forward 7 unknown #
face $-1 $337 $338 $47 $-1 $339 reversed single #
loop $-1 $-1 $340 $134 #
plane-surface $-1 -20.520778450750704 -106.15635314475242 93.449014659191292 1 0 0 0 0.6560590369687036 -0.75470957328743171 forward_v I I I I #
coedge $-1 $341 $342 $343 $344 reversed $135 $-1 #
coedge $-1 $219 $137 $345 $346 reversed $86 $-1 #
coedge $-1 $137 $218 $341 $347 reversed $86 $-1 #
coedge $-1 $343 $348 $137 $221 forward $349 $-1 #
edge $-1 $350 21.967272812816699 $351 28.591774861804659 $220 $352 forward 7 unknown #
loop $-1 $-1 $227 $138 #
plane-surface $-1 -11.494596144260036 -31.110903759559505 7.1191024239234935 0 -0.6560590369687036 0.75470957328743171 1 0 0 forward_v I I I I #
loop $-1 $-1 $353 $88 #
coedge $-1 $225 $225 $226 $354 reversed $139 $-1 #
coedge $-1 $226 $226 $225 $354 forward $141 $-1 #
coedge $-1 $227 $227 $142 $228 forward $222 $-1 #
edge $-1 $355 3.5047710980055092e-016 $355 6.2831853071796004 $227 $356 forward 7 unknown #
loop $-1 $-1 $234 $143 #
plane-surface $-1 -11.494596144260036 -31.110903759559505 7.1191024239234935 0 -0.6560590369687036 0.75470957328743171 1 0 0 forward_v I I I I #
loop $-1 $-1 $357 $91 #
coedge $-1 $232 $232 $233 $358 reversed $144 $-1 #
coedge $-1 $233 $233 $232 $358 forward $146 $-1 #
coedge $-1 $234 $234 $147 $235 forward $229 $-1 #
edge $-1 $359 3.5047710980055092e-016 $359 6.2831853071796004 $234 $360 forward 7 unknown #
face $-1 $361 $362 $50 $-1 $363 reversed single #
loop $-1 $-1 $364 $148 #
plane-surface $-1 5.3841904457584722 -106.15635314475242 93.449014659191292 1 0 0 0 0.6560590369687036 -0.75470957328743171 forward_v I I I I #
coedge $-1 $365 $366 $367 $368 reversed $149 $-1 #
coedge $-1 $241 $151 $369 $370 reversed $95 $-1 #
coedge $-1 $151 $240 $365 $371 reversed $95 $-1 #
coedge $-1 $367 $372 $151 $243 forward $373 $-1 #
edge $-1 $374 21.967272812816699 $375 28.591774861804659 $242 $376 forward 7 unknown #
loop $-1 $-1 $249 $152 #
plane-surface $-1 14.410372752249138 -31.110903759559505 7.1191024239234935 0 -0.6560590369687036 0.75470957328743171 1 0 0 forward_v I I I I #
loop $-1 $-1 $377 $97 #
coedge $-1 $247 $247 $248 $378 reversed $153 $-1 #
coedge $-1 $248 $248 $247 $378 forward $155 $-1 #
coedge $-1 $249 $249 $156 $250 forward $244 $-1 #
edge $-1 $379 3.5047710980055092e-016 $379 6.2831853071796004 $249 $380 forward 7 unknown #
loop $-1 $-1 $256 $157 #
plane-surface $-1 14.410372752249138 -31.110903759559505 7.1191024239234935 0 -0.6560590369687036 0.75470957328743171 1 0 0 forward_v I I I I #
loop $-1 $-1 $381 $100 #
coedge $-1 $254 $254 $255 $382 reversed $158 $-1 #
coedge $-1 $255 $255 $254 $382 forward $160 $-1 #
coedge $-1 $256 $256 $161 $257 forward $251 $-1 #
edge $-1 $383 3.5047710980055092e-016 $383 6.2831853071796004 $256 $384 forward 7 unknown #
face $-1 $385 $386 $53 $-1 $387 reversed single #
loop $-1 $-1 $388 $162 #
plane-surface $-1 31.289159342267645 -106.15635314475242 93.449014659191292 1 0 0 0 0.6560590369687036 -0.75470957328743171 forward_v I I I I #
coedge $-1 $389 $390 $391 $392 reversed $163 $-1 #
coedge $-1 $263 $165 $393 $394 reversed $104 $-1 #
coedge $-1 $165 $262 $389 $395 reversed $104 $-1 #
coedge $-1 $391 $396 $165 $265 forward $397 $-1 #
edge $-1 $398 21.967272812816699 $399 28.591774861804659 $264 $400 forward 7 unknown #
loop $-1 $-1 $271 $166 #
plane-surface $-1 40.315341648758313 -31.110903759559505 7.1191024239234935 0 -0.6560590369687036 0.75470957328743171 1 0 0 forward_v I I I I #
loop $-1 $-1 $401 $106 #
coedge $-1 $269 $269 $270 $402 reversed $167 $-1 #
coedge $-1 $270 $270 $269 $402 forward $169 $-1 #
coedge $-1 $271 $271 $170 $272 forward $266 $-1 #
edge $-1 $403 3.5047710980055092e-016 $403 6.2831853071796004 $271 $404 forward 7 unknown #
loop $-1 $-1 $278 $171 #
plane-surface $-1 40.315341648758313 -31.110903759559505 7.1191024239234935 0 -0.6560590369687036 0.75470957328743171 1 0 0 forward_v I I I I #
loop $-1 $-1 $405 $109 #
coedge $-1 $276 $276 $277 $406 reversed $172 $-1 #
coedge $-1 $277 $277 $276 $406 forward $174 $-1 #
coedge $-1 $278 $278 $175 $279 forward $273 $-1 #
edge $-1 $407 3.5047710980055092e-016 $407 6.2831853071796004 $278 $408 forward 7 unknown #
face $-1 $409 $410 $42 $-1 $411 reversed single #
loop $-1 $-1 $289 $176 #
plane-surface $-1 0 -31.110903759559509 0 0 1 0 0 0 1 forward_v I I I I #
coedge $-1 $294 $293 $412 $413 forward $177 $-1 #
coedge $-1 $414 $179 $415 $416 forward $113 $-1 #
coedge $-1 $179 $414 $417 $418 forward $113 $-1 #
coedge $-1 $419 $420 $179 $287 reversed $421 $-1 #
edge $-1 $422 -31.110903759559509 $423 31.110903759559509 $286 $424 forward 7 unknown #
coedge $-1 $181 $180 $414 $425 reversed $71 $-1 #
coedge $-1 $426 $417 $180 $290 forward $281 $-1 #
edge $-1 $427 -12.877694322692269 $295 12.877694322692269 $180 $428 forward 7 unknown #
coedge $-1 $415 $429 $181 $292 reversed $410 $-1 #
edge $-1 $430 -12.877694322692269 $296 12.877694322692269 $291 $431 forward 7 unknown #
coedge $-1 $283 $182 $429 $432 forward $177 $-1 #
coedge $-1 $182 $283 $426 $433 forward $177 $-1 #
vertex $-1 $183 $434 #
vertex $-1 $432 $435 #
straight-curve $-1 -57.19412823877682 0 -12.877694322692269 0 1 0 I I #
face $-1 $436 $310 $43 $-1 $437 reversed single #
loop $-1 $-1 $438 $184 #
plane-surface $-1 -67.962509130293768 -13.819565449448756 0 1 0 0 0 0 -1 forward_v I I I I #
coedge $-1 $439 $440 $441 $442 forward $185 $-1 #
coedge $-1 $443 $187 $439 $444 forward $117 $-1 #
coedge $-1 $187 $443 $308 $445 forward $117 $-1 #
edge $-1 $311 12.319565449448756 $446 15.319565449448756 $187 $447 forward 7 unknown #
coedge $-1 $189 $188 $448 $449 forward $74 $-1 #
coedge $-1 $450 $451 $188 $307 forward $452 $-1 #
edge $-1 $453 -15.319565449448756 $312 -12.319565449448756 $306 $454 forward 7 unknown #
coedge $-1 $455 $190 $303 $445 reversed $310 $-1 #
coedge $-1 $190 $455 $450 $456 reversed $310 $-1 #
loop $-1 $-1 $190 $298 #
vertex $-1 $304 $457 #
vertex $-1 $456 $458 #
straight-curve $-1 -57.19412823877682 -12.319565449448756 0 0 0 1 I I #
face $-1 $-1 $459 $44 $-1 $460 reversed single #
loop $-1 $-1 $198 $192 #
plane-surface $-1 0 0 12.877694322692269 0 0 1 1 0 0 forward_v I I I I #
coedge $-1 $461 $462 $463 $464 reversed $193 $-1 #
coedge $-1 $465 $195 $197 $324 forward $121 $-1 #
coedge $-1 $195 $465 $461 $466 forward $121 $-1 #
coedge $-1 $463 $198 $195 $321 forward $315 $-1 #
edge $-1 $327 9.6736002138939341 $467 27.72596482687527 $320 $468 forward 7 unknown #
coedge $-1 $469 $470 $196 $323 forward $459 $-1 #
edge $-1 $471 -39.605404905672152 $326 -33.846813006903375 $322 $472 forward 7 unknown #
edge $-1 $327 -8.7775513700354377 $471 4.429359460594495e-015 $197 $473 forward 7 unknown #
coedge $-1 $198 $463 $469 $474 forward $315 $-1 #
vertex $-1 $199 $475 #
vertex $-1 $199 $476 #
straight-curve $-1 -28.373382734278536 -53.078176572376208 12.877694322692271 0 1 0 I I #
coedge $-1 $329 $329 $-1 $477 reversed $202 $-1 #
edge $-1 $478 0 $478 6.2831853071796004 $203 $479 forward 7 unknown #
vertex $-1 $206 $480 #
ellipse-curve $-1 -41.267928886408058 -27.798652735065531 9.9983983733078787 0 -0.6560590369687036 0.75470957328743171 2 0 0 1 I I #
coedge $-1 $333 $333 $-1 $481 reversed $209 $-1 #
edge $-1 $482 0 $482 6.2831853071796004 $210 $483 forward 7 unknown #
vertex $-1 $213 $484 #
ellipse-curve $-1 -33.53120119513035 -27.798652735065531 9.9983983733078787 0 -0.6560590369687036 0.75470957328743171 2 0 0 1 I I #
face $-1 $-1 $349 $47 $-1 $485 forward single #
loop $-1 $-1 $486 $214 #
plane-surface $-1 0 -31.110903759559509 0 0 1 0 0 0 1 forward_v I I I I #
coedge $-1 $487 $488 $489 $490 reversed $215 $-1 #
coedge $-1 $491 $217 $219 $347 forward $135 $-1 #
coedge $-1 $217 $491 $487 $492 forward $135 $-1 #
coedge $-1 $489 $220 $217 $344 forward $349 $-1 #
edge $-1 $351 -3.2788842343606479 $493 14.773480378620686 $343 $494 forward 7 unknown #
coedge $-1 $495 $496 $218 $346 forward $338 $-1 #
edge $-1 $497 -39.605404905672152 $350 -33.846813006903375 $345 $498 forward 7 unknown #
edge $-1 $351 -8.7775513700354377 $497 4.429359460594495e-015 $219 $499 forward 7 unknown #
coedge $-1 $220 $489 $495 $500 forward $349 $-1 #
loop $-1 $-1 $489 $337 #
vertex $-1 $346 $501 #
vertex $-1 $221 $502 #
straight-curve $-1 -2.4684138377693703 -53.078176572376208 12.877694322692271 0 1 0 I I #
coedge $-1 $353 $353 $-1 $503 reversed $224 $-1 #
edge $-1 $504 0 $504 6.2831853071796004 $225 $505 forward 7 unknown #
vertex $-1 $228 $506 #
ellipse-curve $-1 -15.36295998989889 -27.798652735065531 9.9983983733078787 0 -0.6560590369687036 0.75470957328743171 2 0 0 1 I I #
coedge $-1 $357 $357 $-1 $507 reversed $231 $-1 #
edge $-1 $508 0 $508 6.2831853071796004 $232 $509 forward 7 unknown #
vertex $-1 $235 $510 #
ellipse-curve $-1 -7.6262322986211757 -27.798652735065531 9.9983983733078787 0 -0.6560590369687036 0.75470957328743171 2 0 0 1 I I #
face $-1 $-1 $373 $50 $-1 $511 forward single #
loop $-1 $-1 $512 $236 #
plane-surface $-1 0 -31.110903759559509 0 0 1 0 0 0 1 forward_v I I I I #
coedge $-1 $513 $514 $515 $516 reversed $237 $-1 #
coedge $-1 $517 $239 $241 $371 forward $149 $-1 #
coedge $-1 $239 $517 $513 $518 forward $149 $-1 #
coedge $-1 $515 $242 $239 $368 forward $373 $-1 #
edge $-1 $375 -16.231368682615237 $519 1.820995930366097 $367 $520 forward 7 unknown #
coedge $-1 $521 $522 $240 $370 forward $362 $-1 #
edge $-1 $523 -39.605404905672152 $374 -33.846813006903375 $369 $524 forward 7 unknown #
edge $-1 $375 -8.7775513700354377 $523 4.429359460594495e-015 $241 $525 forward 7 unknown #
coedge $-1 $242 $515 $521 $526 forward $373 $-1 #
loop $-1 $-1 $515 $361 #
vertex $-1 $370 $527 #
vertex $-1 $243 $528 #
straight-curve $-1 23.436555058739806 -53.078176572376208 12.877694322692271 0 1 0 I I #
coedge $-1 $377 $377 $-1 $529 reversed $246 $-1 #
edge $-1 $530 0 $530 6.2831853071796004 $247 $531 forward 7 unknown #
vertex $-1 $250 $532 #
ellipse-curve $-1 10.542008906610285 -27.798652735065531 9.9983983733078787 0 -0.6560590369687036 0.75470957328743171 2 0 0 1 I I #
coedge $-1 $381 $381 $-1 $533 reversed $253 $-1 #
edge $-1 $534 0 $534 6.2831853071796004 $254 $535 forward 7 unknown #
vertex $-1 $257 $536 #
ellipse-curve $-1 18.278736597887992 -27.798652735065531 9.9983983733078787 0 -0.6560590369687036 0.75470957328743171 2 0 0 1 I I #
face $-1 $-1 $397 $53 $-1 $537 forward single #
loop $-1 $-1 $538 $258 #
plane-surface $-1 0 -31.110903759559509 0 0 1 0 0 0 1 forward_v I I I I #
coedge $-1 $539 $540 $541 $542 reversed $259 $-1 #
coedge $-1 $543 $261 $263 $395 forward $163 $-1 #
coedge $-1 $261 $543 $539 $544 forward $163 $-1 #
coedge $-1 $541 $264 $261 $392 forward $397 $-1 #
edge $-1 $399 -29.183853130869824 $545 -11.131488517888489 $391 $546 forward 7 unknown #
coedge $-1 $547 $548 $262 $394 forward $386 $-1 #
edge $-1 $549 -39.605404905672152 $398 -33.846813006903375 $393 $550 forward 7 unknown #
edge $-1 $399 -8.7775513700354377 $549 4.429359460594495e-015 $263 $551 forward 7 unknown #
coedge $-1 $264 $541 $547 $552 forward $397 $-1 #
loop $-1 $-1 $541 $385 #
vertex $-1 $394 $553 #
vertex $-1 $265 $554 #
straight-curve $-1 49.341523955248981 -53.078176572376208 12.877694322692271 0 1 0 I I #
coedge $-1 $401 $401 $-1 $555 reversed $268 $-1 #
edge $-1 $556 0 $556 6.2831853071796004 $269 $557 forward 7 unknown #
vertex $-1 $272 $558 #
ellipse-curve $-1 36.446977803119459 -27.798652735065531 9.9983983733078787 0 -0.6560590369687036 0.75470957328743171 2 0 0 1 I I #
coedge $-1 $405 $405 $-1 $559 reversed $275 $-1 #
edge $-1 $560 0 $560 6.2831853071796004 $276 $561 forward 7 unknown #
vertex $-1 $279 $562 #
ellipse-curve $-1 44.183705494397167 -27.798652735065531 9.9983983733078787 0 -0.6560590369687036 0.75470957328743171 2 0 0 1 I I #
face $-1 $-1 $421 $42 $-1 $563 reversed single #
loop $-1 $-1 $564 $280 #
plane-surface $-1 0 31.110903759559509 0 0 -1 0 0 0 -1 forward_v I I I I #
coedge $-1 $420 $419 $283 $413 reversed $421 $-1 #
edge $-1 $565 -31.110903759559509 $566 31.110903759559509 $412 $567 forward 7 unknown #
coedge $-1 $285 $284 $288 $425 forward $113 $-1 #
coedge $-1 $564 $291 $284 $416 reversed $410 $-1 #
edge $-1 $423 -57.19412823877682 $430 57.19412823877682 $415 $568 forward 7 unknown #
coedge $-1 $289 $569 $285 $418 reversed $281 $-1 #
edge $-1 $427 -57.19412823877682 $422 57.19412823877682 $417 $570 forward 7 unknown #
coedge $-1 $412 $286 $569 $571 forward $421 $-1 #
coedge $-1 $286 $412 $564 $572 reversed $421 $-1 #
loop $-1 $-1 $419 $409 #
vertex $-1 $287 $573 #
vertex $-1 $287 $574 #
straight-curve $-1 57.19412823877682 0 12.877694322692269 0 1 0 I I #
edge $-1 $430 -31.110903759559509 $427 31.110903759559509 $288 $575 forward 7 unknown #
coedge $-1 $569 $289 $294 $433 reversed $281 $-1 #
vertex $-1 $425 $576 #
straight-curve $-1 -57.19412823877682 -31.110903759559509 0 0 0 -1 I I #
coedge $-1 $291 $564 $293 $432 reversed $410 $-1 #
vertex $-1 $416 $577 #
straight-curve $-1 -57.19412823877682 31.110903759559509 0 0 0 -1 I I #
edge $-1 $296 -57.19412823877682 $565 57.19412823877682 $429 $578 forward 7 unknown #
edge $-1 $566 -57.19412823877682 $295 57.19412823877682 $426 $579 forward 7 unknown #
point $-1 -57.19412823877682 -31.110903759559509 -12.877694322692269 #
point $-1 -57.19412823877682 31.110903759559509 -12.877694322692269 #
face $-1 $-1 $452 $43 $-1 $580 forward single #
plane-surface $-1 -62.578318684535297 -12.319565449448756 0 0 -1 0 0 0 -1 forward_v I I I I #
coedge $-1 $581 $582 $455 $583 forward $299 $-1 #
coedge $-1 $448 $301 $302 $444 reversed $185 $-1 #
coedge $-1 $301 $448 $451 $584 reversed $185 $-1 #
coedge $-1 $582 $581 $301 $442 reversed $299 $-1 #
edge $-1 $585 -12.877694322692269 $586 12.877694322692269 $441 $587 forward 7 unknown #
coedge $-1 $303 $302 $581 $588 forward $117 $-1 #
edge $-1 $446 -5.3841904457584775 $586 5.3841904457584704 $439 $589 forward 7 unknown #
edge $-1 $590 -5.3841904457584704 $311 5.3841904457584775 $308 $591 forward 7 unknown #
vertex $-1 $444 $592 #
straight-curve $-1 -57.19412823877682 0 -12.877694322692269 0 -1 0 I I #
coedge $-1 $440 $439 $305 $449 reversed $185 $-1 #
edge $-1 $453 -12.877694322692269 $446 12.877694322692269 $448 $593 forward 7 unknown #
coedge $-1 $594 $306 $309 $456 forward $452 $-1 #
coedge $-1 $306 $594 $440 $584 forward $452 $-1 #
loop $-1 $-1 $306 $436 #
vertex $-1 $307 $595 #
straight-curve $-1 -57.19412823877682 0 12.877694322692269 0 1 0 I I #
coedge $-1 $309 $308 $438 $583 reversed $310 $-1 #
edge $-1 $312 -5.3841904457584775 $596 5.3841904457584704 $309 $597 forward 7 unknown #
point $-1 -57.19412823877682 -12.319565449448756 -12.877694322692269 #
point $-1 -57.19412823877682 -12.319565449448756 12.877694322692269 #
loop $-1 $-1 $322 $314 #
plane-surface $-1 0 -31.110903759559509 0 0 1 0 0 0 1 forward_v I I I I #
coedge $-1 $462 $317 $319 $466 reversed $193 $-1 #
coedge $-1 $317 $461 $598 $599 reversed $193 $-1 #
coedge $-1 $325 $320 $317 $464 forward $315 $-1 #
edge $-1 $467 -28.591774861804659 $600 -21.967272812816699 $463 $601 forward 7 unknown #
coedge $-1 $319 $318 $470 $602 reversed $121 $-1 #
edge $-1 $603 -4.429359460594495e-015 $467 8.7775513700354377 $461 $604 forward 7 unknown #
vertex $-1 $321 $605 #
straight-curve $-1 -18.699782520384602 -24.486401710571553 12.877694322692269 -1 0 0 I I #
coedge $-1 $598 $322 $325 $474 reversed $459 $-1 #
coedge $-1 $322 $598 $465 $602 forward $459 $-1 #
vertex $-1 $323 $606 #
straight-curve $-1 -28.373382734278536 -31.110903759559505 46.724507329595646 0 0 1 I I #
straight-curve $-1 -28.373382734278536 -31.110903759559505 7.1191024239234935 0 -0.75470957328743171 -0.6560590369687036 I I #
edge $-1 $600 -46.425747347259872 $326 -28.373382734278536 $469 $607 forward 7 unknown #
point $-1 -28.373382734278536 -31.110903759559509 12.877694322692269 #
point $-1 -28.373382734278536 -24.486401710571549 12.877694322692268 #
edge $-1 $608 1 $608 0 $329 $-1 forward 7 unknown #
vertex $-1 $330 $609 #
ellipse-curve $-1 -41.267928886408058 -22.936644001179047 4.4052972496261145 0 -0.6560590369687036 0.75470957328743171 2 0 0 1 I I #
point $-1 -39.267928886408058 -27.798652735065524 9.9983983733078716 #
edge $-1 $610 1 $610 0 $333 $-1 forward 7 unknown #
vertex $-1 $334 $611 #
ellipse-curve $-1 -33.53120119513035 -22.936644001179047 4.4052972496261145 0 -0.6560590369687036 0.75470957328743171 2 0 0 1 I I #
point $-1 -31.53120119513035 -27.798652735065524 9.9983983733078716 #
plane-surface $-1 0 0 12.877694322692269 0 0 1 1 0 0 forward_v I I I I #
coedge $-1 $496 $495 $488 $612 forward $338 $-1 #
coedge $-1 $488 $340 $342 $492 reversed $215 $-1 #
coedge $-1 $340 $487 $486 $612 reversed $215 $-1 #
coedge $-1 $348 $343 $340 $490 forward $349 $-1 #
edge $-1 $493 -28.591774861804659 $613 -21.967272812816699 $489 $614 forward 7 unknown #
coedge $-1 $342 $341 $496 $615 reversed $135 $-1 #
edge $-1 $616 -4.429359460594495e-015 $493 8.7775513700354377 $487 $617 forward 7 unknown #
vertex $-1 $344 $618 #
straight-curve $-1 -5.7472980721300182 -24.486401710571553 12.877694322692269 -1 0 0 I I #
coedge $-1 $486 $345 $348 $500 reversed $338 $-1 #
coedge $-1 $345 $486 $491 $615 forward $338 $-1 #
vertex $-1 $346 $619 #
straight-curve $-1 -2.4684138377693703 -31.110903759559505 46.724507329595646 0 0 1 I I #
straight-curve $-1 -2.4684138377693703 -31.110903759559505 7.1191024239234935 0 -0.75470957328743171 -0.6560590369687036 I I #
edge $-1 $613 -20.520778450750704 $350 -2.4684138377693703 $495 $620 forward 7 unknown #
point $-1 -2.4684138377693703 -31.110903759559509 12.877694322692269 #
point $-1 -2.4684138377693703 -24.486401710571549 12.877694322692268 #
edge $-1 $621 1 $621 0 $353 $-1 forward 7 unknown #
vertex $-1 $354 $622 #
ellipse-curve $-1 -15.36295998989889 -22.936644001179047 4.4052972496261145 0 -0.6560590369687036 0.75470957328743171 2 0 0 1 I I #
point $-1 -13.36295998989889 -27.798652735065524 9.9983983733078716 #
edge $-1 $623 1 $623 0 $357 $-1 forward 7 unknown #
vertex $-1 $358 $624 #
ellipse-curve $-1 -7.6262322986211757 -22.936644001179047 4.4052972496261145 0 -0.6560590369687036 0.75470957328743171 2 0 0 1 I I #
point $-1 -5.6262322986211757 -27.798652735065524 9.9983983733078716 #
plane-surface $-1 0 0 12.877694322692269 0 0 1 1 0 0 forward_v I I I I #
coedge $-1 $522 $521 $514 $625 forward $362 $-1 #
coedge $-1 $514 $364 $366 $518 reversed $237 $-1 #
coedge $-1 $364 $513 $512 $625 reversed $237 $-1 #
coedge $-1 $372 $367 $364 $516 forward $373 $-1 #
edge $-1 $519 -28.591774861804659 $626 -21.967272812816699 $515 $627 forward 7 unknown #
coedge $-1 $366 $365 $522 $628 reversed $149 $-1 #
edge $-1 $629 -4.429359460594495e-015 $519 8.7775513700354377 $513 $630 forward 7 unknown #
vertex $-1 $368 $631 #
straight-curve $-1 7.2051863761245691 -24.486401710571553 12.877694322692269 -1 0 0 I I #
coedge $-1 $512 $369 $372 $526 reversed $362 $-1 #
coedge $-1 $369 $512 $517 $628 forward $362 $-1 #
vertex $-1 $370 $632 #
straight-curve $-1 23.436555058739806 -31.110903759559505 46.724507329595646 0 0 1 I I #
straight-curve $-1 23.436555058739806 -31.110903759559505 7.1191024239234935 0 -0.75470957328743171 -0.6560590369687036 I I #
edge $-1 $626 5.3841904457584722 $374 23.436555058739806 $521 $633 forward 7 unknown #
point $-1 23.436555058739806 -31.110903759559509 12.877694322692269 #
point $-1 23.436555058739806 -24.486401710571549 12.877694322692268 #
edge $-1 $634 1 $634 0 $377 $-1 forward 7 unknown #
vertex $-1 $378 $635 #
ellipse-curve $-1 10.542008906610285 -22.936644001179047 4.4052972496261145 0 -0.6560590369687036 0.75470957328743171 2 0 0 1 I I #
point $-1 12.542008906610285 -27.798652735065524 9.9983983733078716 #
edge $-1 $636 1 $636 0 $381 $-1 forward 7 unknown #
vertex $-1 $382 $637 #
ellipse-curve $-1 18.278736597887992 -22.936644001179047 4.4052972496261145 0 -0.6560590369687036 0.75470957328743171 2 0 0 1 I I #
point $-1 20.278736597887992 -27.798652735065524 9.9983983733078716 #
plane-surface $-1 0 0 12.877694322692269 0 0 1 1 0 0 forward_v I I I I #
coedge $-1 $548 $547 $540 $638 forward $386 $-1 #
coedge $-1 $540 $388 $390 $544 reversed $259 $-1 #
coedge $-1 $388 $539 $538 $638 reversed $259 $-1 #
coedge $-1 $396 $391 $388 $542 forward $397 $-1 #
edge $-1 $545 -28.591774861804659 $639 -21.967272812816699 $541 $640 forward 7 unknown #
coedge $-1 $390 $389 $548 $641 reversed $163 $-1 #
edge $-1 $642 -4.429359460594495e-015 $545 8.7775513700354377 $539 $643 forward 7 unknown #
vertex $-1 $392 $644 #
straight-curve $-1 20.157670824379156 -24.486401710571553 12.877694322692269 -1 0 0 I I #
coedge $-1 $538 $393 $396 $552 reversed $386 $-1 #
coedge $-1 $393 $538 $543 $641 forward $386 $-1 #
vertex $-1 $394 $645 #
straight-curve $-1 49.341523955248981 -31.110903759559505 46.724507329595646 0 0 1 I I #
straight-curve $-1 49.341523955248981 -31.110903759559505 7.1191024239234935 0 -0.75470957328743171 -0.6560590369687036 I I #
edge $-1 $639 31.289159342267645 $398 49.341523955248981 $547 $646 forward 7 unknown #
point $-1 49.341523955248981 -31.110903759559509 12.877694322692269 #
point $-1 49.341523955248981 -24.486401710571549 12.877694322692268 #
edge $-1 $647 1 $647 0 $401 $-1 forward 7 unknown #
vertex $-1 $402 $648 #
ellipse-curve $-1 36.446977803119459 -22.936644001179047 4.4052972496261145 0 -0.6560590369687036 0.75470957328743171 2 0 0 1 I I #
point $-1 38.446977803119459 -27.798652735065524 9.9983983733078716 #
edge $-1 $649 1 $649 0 $405 $-1 forward 7 unknown #
vertex $-1 $406 $650 #
ellipse-curve $-1 44.183705494397167 -22.936644001179047 4.4052972496261145 0 -0.6560590369687036 0.75470957328743171 2 0 0 1 I I #
point $-1 46.183705494397167 -27.798652735065524 9.9983983733078716 #
plane-surface $-1 57.19412823877682 0 0 -1 0 0 0 0 1 forward_v I I I I #
coedge $-1 $429 $415 $420 $572 forward $410 $-1 #
vertex $-1 $413 $651 #
vertex $-1 $571 $652 #
straight-curve $-1 57.19412823877682 0 -12.877694322692269 0 -1 0 I I #
straight-curve $-1 0 31.110903759559509 12.877694322692269 -1 0 0 I I #
coedge $-1 $417 $426 $419 $571 reversed $281 $-1 #
straight-curve $-1 0 -31.110903759559509 12.877694322692269 1 0 0 I I #
edge $-1 $422 -12.877694322692269 $566 12.877694322692269 $419 $653 forward 7 unknown #
edge $-1 $423 -12.877694322692269 $565 12.877694322692269 $420 $654 forward 7 unknown #
point $-1 57.19412823877682 -31.110903759559509 12.877694322692269 #
point $-1 57.19412823877682 31.110903759559509 12.877694322692269 #
straight-curve $-1 -57.19412823877682 0 12.877694322692269 0 -1 0 I I #
point $-1 -57.19412823877682 -31.110903759559509 12.877694322692269 #
point $-1 -57.19412823877682 31.110903759559509 12.877694322692269 #
straight-curve $-1 0 31.110903759559509 -12.877694322692269 1 0 0 I I #
straight-curve $-1 0 -31.110903759559509 -12.877694322692269 -1 0 0 I I #
plane-surface $-1 0 0 12.877694322692269 0 0 1 1 0 0 forward_v I I I I #
coedge $-1 $441 $438 $443 $588 reversed $299 $-1 #
coedge $-1 $438 $441 $594 $655 reversed $299 $-1 #
edge $-1 $596 -12.877694322692269 $590 12.877694322692269 $455 $656 forward 7 unknown #
edge $-1 $585 -5.3841904457584704 $453 5.3841904457584775 $440 $657 forward 7 unknown #
vertex $-1 $655 $658 #
vertex $-1 $588 $659 #
straight-curve $-1 -67.962509130293768 -15.319565449448756 0 0 0 -1 I I #
edge $-1 $586 -1.5 $590 1.5 $581 $660 forward 7 unknown #
straight-curve $-1 -62.578318684535297 -15.319565449448756 -12.877694322692269 -1 0 0 I I #
vertex $-1 $445 $661 #
straight-curve $-1 -62.578318684535297 -12.319565449448756 -12.877694322692269 1 0 0 I I #
point $-1 -57.19412823877682 -15.319565449448756 -12.877694322692269 #
straight-curve $-1 -57.19412823877682 -15.319565449448756 0 0 0 -1 I I #
coedge $-1 $451 $450 $582 $655 forward $452 $-1 #
point $-1 -57.19412823877682 -15.319565449448756 12.877694322692269 #
vertex $-1 $456 $662 #
straight-curve $-1 -62.578318684535297 -12.319565449448756 12.877694322692269 -1 0 0 I I #
coedge $-1 $470 $469 $462 $599 forward $459 $-1 #
edge $-1 $600 33.846813006903375 $603 39.605404905672152 $598 $663 forward 7 unknown #
vertex $-1 $474 $664 #
straight-curve $-1 -46.425747347259872 -53.078176572376208 12.877694322692271 0 -1 0 I I #
edge $-1 $603 -27.72596482687527 $471 -9.6736002138939341 $470 $665 forward 7 unknown #
vertex $-1 $602 $666 #
straight-curve $-1 -46.425747347259872 -31.110903759559505 7.1191024239234935 0 0.75470957328743171 0.6560590369687036 I I #
point $-1 -46.425747347259872 -24.486401710571549 12.877694322692268 #
point $-1 -28.373382734278536 -31.110903759559509 7.1191024239234908 #
straight-curve $-1 0 -31.110903759559509 12.877694322692269 1 0 0 I I #
vertex $-1 $477 $667 #
point $-1 -39.267928886408058 -22.936644001179047 4.4052972496261145 #
vertex $-1 $481 $668 #
point $-1 -31.53120119513035 -22.936644001179047 4.4052972496261145 #
edge $-1 $613 33.846813006903375 $616 39.605404905672152 $486 $669 forward 7 unknown #
vertex $-1 $500 $670 #
straight-curve $-1 -20.520778450750704 -53.078176572376208 12.877694322692271 0 -1 0 I I #
edge $-1 $616 -14.773480378620686 $497 3.2788842343606479 $496 $671 forward 7 unknown #
vertex $-1 $615 $672 #
straight-curve $-1 -20.520778450750704 -31.110903759559505 7.1191024239234935 0 0.75470957328743171 0.6560590369687036 I I #
point $-1 -20.520778450750704 -24.486401710571549 12.877694322692268 #
point $-1 -2.4684138377693703 -31.110903759559509 7.1191024239234908 #
straight-curve $-1 0 -31.110903759559509 12.877694322692269 1 0 0 I I #
vertex $-1 $503 $673 #
point $-1 -13.36295998989889 -22.936644001179047 4.4052972496261145 #
vertex $-1 $507 $674 #
point $-1 -5.6262322986211757 -22.936644001179047 4.4052972496261145 #
edge $-1 $626 33.846813006903375 $629 39.605404905672152 $512 $675 forward 7 unknown #
vertex $-1 $526 $676 #
straight-curve $-1 5.3841904457584722 -53.078176572376208 12.877694322692271 0 -1 0 I I #
edge $-1 $629 -1.820995930366097 $523 16.231368682615237 $522 $677 forward 7 unknown #
vertex $-1 $628 $678 #
straight-curve $-1 5.3841904457584722 -31.110903759559505 7.1191024239234935 0 0.75470957328743171 0.6560590369687036 I I #
point $-1 5.3841904457584722 -24.486401710571549 12.877694322692268 #
point $-1 23.436555058739806 -31.110903759559509 7.1191024239234908 #
straight-curve $-1 0 -31.110903759559509 12.877694322692269 1 0 0 I I #
vertex $-1 $529 $679 #
point $-1 12.542008906610285 -22.936644001179047 4.4052972496261145 #
vertex $-1 $533 $680 #
point $-1 20.278736597887992 -22.936644001179047 4.4052972496261145 #
edge $-1 $639 33.846813006903375 $642 39.605404905672152 $538 $681 forward 7 unknown #
vertex $-1 $552 $682 #
straight-curve $-1 31.289159342267645 -53.078176572376208 12.877694322692271 0 -1 0 I I #
edge $-1 $642 11.131488517888489 $549 29.183853130869824 $548 $683 forward 7 unknown #
vertex $-1 $641 $684 #
straight-curve $-1 31.289159342267645 -31.110903759559505 7.1191024239234935 0 0.75470957328743171 0.6560590369687036 I I #
point $-1 31.289159342267645 -24.486401710571549 12.877694322692268 #
point $-1 49.341523955248981 -31.110903759559509 7.1191024239234908 #
straight-curve $-1 0 -31.110903759559509 12.877694322692269 1 0 0 I I #
vertex $-1 $555 $685 #
point $-1 38.446977803119459 -22.936644001179047 4.4052972496261145 #
vertex $-1 $559 $686 #
point $-1 46.183705494397167 -22.936644001179047 4.4052972496261145 #
point $-1 57.19412823877682 31.110903759559509 -12.877694322692269 #
point $-1 57.19412823877682 -31.110903759559509 -12.877694322692269 #
straight-curve $-1 57.19412823877682 -31.110903759559509 0 0 0 -1 I I #
straight-curve $-1 57.19412823877682 31.110903759559509 0 0 0 -1 I I #
edge $-1 $596 -1.5 $585 1.5 $582 $687 forward 7 unknown #
straight-curve $-1 -67.962509130293768 -12.319565449448756 0 0 0 -1 I I #
straight-curve $-1 -62.578318684535297 -15.319565449448756 12.877694322692269 1 0 0 I I #
point $-1 -67.962509130293768 -15.319565449448756 12.877694322692269 #
point $-1 -67.962509130293768 -15.319565449448756 -12.877694322692269 #
straight-curve $-1 -67.962509130293768 -13.819565449448756 -12.877694322692269 0 1 0 I I #
point $-1 -67.962509130293768 -12.319565449448756 -12.877694322692269 #
point $-1 -67.962509130293768 -12.319565449448756 12.877694322692269 #
straight-curve $-1 -46.425747347259872 -31.110903759559505 46.724507329595646 0 0 -1 I I #
point $-1 -46.425747347259872 -31.110903759559509 12.877694322692269 #
straight-curve $-1 -18.699782520384602 -31.110903759559509 7.1191024239234908 1 0 0 I I #
point $-1 -46.425747347259872 -31.110903759559509 7.1191024239234908 #
point $-1 -41.267928886408058 -21.624525927241642 2.8958781030512508 #
point $-1 -33.53120119513035 -21.624525927241642 2.8958781030512508 #
straight-curve $-1 -20.520778450750704 -31.110903759559505 46.724507329595646 0 0 -1 I I #
point $-1 -20.520778450750704 -31.110903759559509 12.877694322692269 #
straight-curve $-1 -5.7472980721300182 -31.110903759559509 7.1191024239234908 1 0 0 I I #
point $-1 -20.520778450750704 -31.110903759559509 7.1191024239234908 #
point $-1 -15.36295998989889 -21.624525927241642 2.8958781030512508 #
point $-1 -7.6262322986211757 -21.624525927241642 2.8958781030512508 #
straight-curve $-1 5.3841904457584722 -31.110903759559505 46.724507329595646 0 0 -1 I I #
point $-1 5.3841904457584722 -31.110903759559509 12.877694322692269 #
straight-curve $-1 7.2051863761245691 -31.110903759559509 7.1191024239234908 1 0 0 I I #
point $-1 5.3841904457584722 -31.110903759559509 7.1191024239234908 #
point $-1 10.542008906610285 -21.624525927241642 2.8958781030512508 #
point $-1 18.278736597887992 -21.624525927241642 2.8958781030512508 #
straight-curve $-1 31.289159342267645 -31.110903759559505 46.724507329595646 0 0 -1 I I #
point $-1 31.289159342267645 -31.110903759559509 12.877694322692269 #
straight-curve $-1 20.157670824379156 -31.110903759559509 7.1191024239234908 1 0 0 I I #
point $-1 31.289159342267645 -31.110903759559509 7.1191024239234908 #
point $-1 36.446977803119459 -21.624525927241642 2.8958781030512508 #
point $-1 44.183705494397167 -21.624525927241642 2.8958781030512508 #
straight-curve $-1 -67.962509130293768 -13.819565449448756 12.877694322692269 0 -1 0 I I #
End-of-ACIS-data 