500 0 6 0           
7 Unknown 11 ACIS 5.0 NT 24 Thu Mar 25 16:56:57 1999 
-1 9.9999999999999995e-007 1e-010 
body $-1 $6 $-1 $7 #
body $-1 $8 $-1 $9 #
body $-1 $10 $-1 $11 #
body $-1 $12 $-1 $13 #
body $-1 $14 $-1 $15 #
body $-1 $16 $-1 $17 #
lump $-1 $-1 $18 $0 #
transform $-1 1 0 0 0 1 0 0 0 1 70.519730216376232 46.674045264307779 9.7040193111247035 1 rotate no_reflect no_shear #
lump $-1 $-1 $19 $1 #
transform $-1 1 0 0 0 1 0 0 0 1 70.519730216376232 46.674045264307779 9.7040193111247035 1 rotate no_reflect no_shear #
lump $-1 $-1 $20 $2 #
transform $-1 1 0 0 0 1 0 0 0 1 70.519730216376232 46.674045264307779 9.7040193111247035 1 rotate no_reflect no_shear #
lump $-1 $-1 $21 $3 #
transform $-1 1 0 0 0 1 0 0 0 1 70.519730216376232 46.674045264307779 9.7040193111247035 1 rotate no_reflect no_shear #
lump $-1 $-1 $22 $4 #
transform $-1 1 0 0 0 1 0 0 0 1 70.519730216376232 46.674045264307779 9.7040193111247035 1 rotate no_reflect no_shear #
lump $-1 $-1 $23 $5 #
transform $-1 1 0 0 0 1 0 0 0 1 70.519730216376232 46.674045264307779 9.7040193111247035 1 rotate no_reflect no_shear #
shell $-1 $-1 $-1 $24 $-1 $6 #
shell $-1 $-1 $-1 $25 $-1 $8 #
shell $-1 $-1 $-1 $26 $-1 $10 #
shell $-1 $-1 $-1 $27 $-1 $12 #
shell $-1 $-1 $-1 $28 $-1 $14 #
shell $-1 $-1 $-1 $29 $-1 $16 #
face $-1 $30 $31 $18 $-1 $32 forward single #
face $-1 $33 $34 $19 $-1 $35 forward single #
face $-1 $36 $37 $20 $-1 $38 forward single #
face $-1 $39 $40 $21 $-1 $41 reversed single #
face $-1 $42 $43 $22 $-1 $44 forward single #
face $-1 $45 $46 $23 $-1 $47 forward single #
face $-1 $48 $49 $18 $-1 $50 reversed single #
loop $-1 $-1 $51 $24 #
plane-surface $-1 0 0 9.7040193111247035 0 0 1 1 0 0 forward_v I I I I #
face $-1 $52 $53 $19 $-1 $54 reversed single #
loop $-1 $-1 $55 $25 #
plane-surface $-1 0 -46.674045264307779 0 0 1 0 0 0 1 forward_v I I I I #
face $-1 $56 $57 $20 $-1 $58 reversed single #
loop $-1 $-1 $59 $26 #
plane-surface $-1 0 43.153704730539431 -3.1031340993996297 0 0 1 1 0 0 forward_v I I I I #
face $-1 $60 $61 $21 $-1 $62 reversed single #
loop $-1 $-1 $63 $27 #
plane-surface $-1 42.760276826864043 1.7160816918148178 202.02196068801027 0 -1 0 -0.6018150307709319 0 -0.79863550430605224 forward_v I I I I #
face $-1 $64 $65 $22 $-1 $66 forward single #
loop $-1 $67 $68 $28 #
cone-surface $-1 66.282104811728487 -5.3019284452132354 6.0595471797932365 -0.6018150307709319 0 -0.79863550430605224 0.79863550430605224 0 -0.6018150307709319 1 I I 0 1 1 forward I I I I #
face $-1 $69 $70 $23 $-1 $71 forward single #
loop $-1 $72 $73 $29 #
cone-surface $-1 66.282104811728487 -1.0911223629964013 6.0595471797932365 -0.6018150307709319 0 -0.79863550430605224 0.79863550430605224 0 -0.6018150307709319 1 I I 0 1 1 forward I I I I #
face $-1 $74 $75 $18 $-1 $76 reversed single #
loop $-1 $-1 $77 $30 #
plane-surface $-1 0 0 -9.7040193111247035 0 0 1 1 0 0 forward_v I I I I #
coedge $-1 $78 $79 $80 $81 forward $31 $-1 #
face $-1 $82 $83 $19 $-1 $84 reversed single #
loop $-1 $-1 $85 $33 #
plane-surface $-1 0 0 -9.7040193111247035 0 0 1 1 0 0 forward_v I I I I #
coedge $-1 $86 $87 $88 $89 forward $34 $-1 #
face $-1 $90 $91 $20 $-1 $92 reversed single #
loop $-1 $-1 $93 $36 #
plane-surface $-1 0 43.153704730539431 -6.1031340993996297 0 0 1 1 0 0 forward_v I I I I #
coedge $-1 $94 $95 $96 $97 reversed $37 $-1 #
face $-1 $98 $99 $21 $-1 $100 reversed single #
loop $-1 $-1 $101 $39 #
plane-surface $-1 -42.119390393388514 -3.1965254041048183 89.382840078245508 0.6018150307709319 0 0.79863550430605224 0.79863550430605224 0 -0.6018150307709319 forward_v I I I I #
coedge $-1 $102 $103 $104 $105 reversed $40 $-1 #
face $-1 $-1 $106 $22 $-1 $107 forward single #
loop $-1 $108 $109 $42 #
cone-surface $-1 65.194450000035644 -5.3019284452132354 4.6161805228746218 -0.6018150307709319 0 -0.79863550430605224 0.39931775215302612 0 -0.30090751538546595 1 I I -0.70710678118654746 0.70710678118654746 0.5 forward I I I I #
loop $-1 $-1 $110 $28 #
coedge $-1 $68 $68 $111 $112 reversed $43 $-1 #
face $-1 $-1 $113 $23 $-1 $114 forward single #
loop $-1 $115 $116 $45 #
cone-surface $-1 65.194450000035644 -1.0911223629964013 4.6161805228746218 -0.6018150307709319 0 -0.79863550430605224 0.39931775215302612 0 -0.30090751538546595 1 I I -0.70710678118654746 0.70710678118654746 0.5 forward I I I I #
loop $-1 $-1 $117 $29 #
coedge $-1 $73 $73 $118 $119 reversed $46 $-1 #
face $-1 $120 $121 $18 $-1 $122 reversed single #
loop $-1 $-1 $123 $48 #
plane-surface $-1 0 -46.674045264307779 0 0 1 0 0 0 1 forward_v I I I I #
coedge $-1 $124 $125 $126 $127 forward $49 $-1 #
coedge $-1 $128 $51 $129 $130 forward $31 $-1 #
coedge $-1 $51 $128 $131 $132 forward $31 $-1 #
coedge $-1 $133 $134 $51 $81 reversed $135 $-1 #
edge $-1 $136 -46.674045264307779 $137 46.674045264307779 $80 $138 forward 7 unknown #
face $-1 $139 $140 $19 $-1 $141 reversed single #
loop $-1 $-1 $142 $52 #
plane-surface $-1 -60.244106056248029 -55.834299511277806 0 0 1 0 0 0 1 forward_v I I I I #
coedge $-1 $143 $144 $87 $145 forward $53 $-1 #
coedge $-1 $146 $55 $147 $148 reversed $34 $-1 #
coedge $-1 $55 $146 $85 $145 reversed $34 $-1 #
coedge $-1 $149 $150 $55 $89 reversed $140 $-1 #
edge $-1 $151 -9.7040193111247035 $152 9.7040193111247035 $88 $153 forward 7 unknown #
face $-1 $154 $155 $20 $-1 $156 reversed single #
loop $-1 $-1 $157 $56 #
plane-surface $-1 0 39.633364196771076 -4.6031340993996297 0 1 0 0 0 1 forward_v I I I I #
coedge $-1 $158 $159 $160 $161 reversed $57 $-1 #
coedge $-1 $162 $59 $163 $164 reversed $37 $-1 #
coedge $-1 $59 $162 $165 $166 forward $37 $-1 #
coedge $-1 $167 $168 $59 $97 forward $169 $-1 #
edge $-1 $170 -25.09719289903807 $171 -18.056511831501361 $96 $172 forward 7 unknown #
face $-1 $173 $174 $21 $-1 $175 forward single #
loop $-1 $-1 $176 $60 #
plane-surface $-1 42.760276826864043 -8.1091325000244545 202.02196068801027 0 1 0 0.6018150307709319 0 0.79863550430605224 forward_v I I I I #
coedge $-1 $177 $178 $179 $180 reversed $61 $-1 #
coedge $-1 $103 $63 $181 $182 reversed $40 $-1 #
coedge $-1 $63 $102 $177 $183 reversed $40 $-1 #
coedge $-1 $179 $184 $63 $105 forward $174 $-1 #
edge $-1 $185 -49.13959180294421 $186 -42.237835586263444 $104 $187 forward 7 unknown #
loop $-1 $-1 $111 $64 #
plane-surface $-1 -42.119390393388514 -3.1965254041048183 89.382840078245508 0.6018150307709319 0 0.79863550430605224 0.79863550430605224 0 -0.6018150307709319 forward_v I I I I #
loop $-1 $-1 $188 $42 #
coedge $-1 $109 $109 $110 $189 reversed $65 $-1 #
coedge $-1 $110 $110 $109 $189 forward $67 $-1 #
coedge $-1 $111 $111 $68 $112 forward $106 $-1 #
edge $-1 $190 0 $190 6.2831853071796004 $111 $191 forward 7 unknown #
loop $-1 $-1 $118 $69 #
plane-surface $-1 -42.119390393388514 -3.1965254041048183 89.382840078245508 0.6018150307709319 0 0.79863550430605224 0.79863550430605224 0 -0.6018150307709319 forward_v I I I I #
loop $-1 $-1 $192 $45 #
coedge $-1 $116 $116 $117 $193 reversed $70 $-1 #
coedge $-1 $117 $117 $116 $193 forward $72 $-1 #
coedge $-1 $118 $118 $73 $119 forward $113 $-1 #
edge $-1 $194 0 $194 6.2831853071796004 $118 $195 forward 7 unknown #
face $-1 $196 $197 $18 $-1 $198 reversed single #
loop $-1 $-1 $199 $74 #
plane-surface $-1 -70.519730216376232 0 0 1 0 0 0 0 -1 forward_v I I I I #
coedge $-1 $200 $131 $201 $202 forward $75 $-1 #
coedge $-1 $203 $77 $200 $204 forward $49 $-1 #
coedge $-1 $77 $203 $205 $206 forward $49 $-1 #
coedge $-1 $134 $133 $77 $127 reversed $135 $-1 #
edge $-1 $207 -46.674045264307779 $208 46.674045264307779 $126 $209 forward 7 unknown #
coedge $-1 $79 $78 $210 $211 forward $31 $-1 #
coedge $-1 $212 $213 $78 $130 reversed $197 $-1 #
edge $-1 $137 -70.519730216376232 $214 70.519730216376232 $129 $215 forward 7 unknown #
coedge $-1 $123 $216 $79 $132 reversed $75 $-1 #
edge $-1 $217 -70.519730216376232 $136 70.519730216376232 $131 $218 forward 7 unknown #
coedge $-1 $126 $80 $216 $219 forward $135 $-1 #
coedge $-1 $80 $126 $212 $220 reversed $135 $-1 #
loop $-1 $-1 $133 $196 #
vertex $-1 $81 $221 #
vertex $-1 $81 $222 #
straight-curve $-1 70.519730216376232 0 9.7040193111247035 0 1 0 I I #
face $-1 $223 $224 $19 $-1 $225 reversed single #
loop $-1 $-1 $88 $82 #
plane-surface $-1 -61.744106056248029 -51.254172387792792 0 1 0 0 0 0 -1 forward_v I I I I #
coedge $-1 $226 $227 $228 $229 forward $83 $-1 #
coedge $-1 $230 $85 $231 $232 forward $53 $-1 #
coedge $-1 $85 $230 $149 $233 forward $53 $-1 #
edge $-1 $151 -61.744106056248029 $234 -58.744106056248029 $85 $235 forward 7 unknown #
coedge $-1 $87 $86 $236 $237 forward $34 $-1 #
coedge $-1 $238 $239 $86 $148 forward $240 $-1 #
edge $-1 $241 58.744106056248029 $152 61.744106056248029 $147 $242 forward 7 unknown #
coedge $-1 $228 $88 $144 $233 reversed $140 $-1 #
coedge $-1 $88 $228 $238 $243 reversed $140 $-1 #
vertex $-1 $145 $244 #
vertex $-1 $243 $245 #
straight-curve $-1 -61.744106056248029 -46.674045264307779 0 0 0 1 I I #
face $-1 $246 $169 $20 $-1 $247 reversed single #
loop $-1 $-1 $163 $90 #
plane-surface $-1 0 46.674045264307779 0 0 -1 0 0 0 -1 forward_v I I I I #
coedge $-1 $248 $165 $249 $250 reversed $91 $-1 #
coedge $-1 $251 $93 $248 $252 forward $57 $-1 #
coedge $-1 $93 $251 $253 $254 reversed $57 $-1 #
coedge $-1 $168 $167 $93 $161 forward $169 $-1 #
edge $-1 $255 18.056511831501361 $256 25.09719289903807 $160 $257 forward 7 unknown #
coedge $-1 $95 $94 $258 $259 reversed $37 $-1 #
coedge $-1 $260 $261 $94 $164 forward $155 $-1 #
edge $-1 $262 -70.519730216376232 $170 70.519730216376232 $163 $263 forward 7 unknown #
coedge $-1 $157 $264 $95 $166 reversed $91 $-1 #
edge $-1 $265 -70.519730216376232 $171 70.519730216376232 $165 $266 forward 7 unknown #
coedge $-1 $160 $96 $264 $267 forward $169 $-1 #
coedge $-1 $96 $160 $260 $268 reversed $169 $-1 #
loop $-1 $-1 $96 $154 #
vertex $-1 $268 $269 #
vertex $-1 $97 $270 #
straight-curve $-1 70.519730216376232 21.576852365269716 -3.1031340993996297 0 -1 0 I I #
face $-1 $-1 $271 $21 $-1 $272 reversed single #
loop $-1 $-1 $104 $98 #
plane-surface $-1 0 0 9.7040193111247035 0 0 1 1 0 0 forward_v I I I I #
coedge $-1 $273 $274 $275 $276 reversed $99 $-1 #
coedge $-1 $277 $101 $103 $183 forward $61 $-1 #
coedge $-1 $101 $277 $273 $278 forward $61 $-1 #
coedge $-1 $275 $104 $101 $180 forward $174 $-1 #
edge $-1 $186 -3.314344393867227 $279 6.5108697979720453 $179 $280 forward 7 unknown #
coedge $-1 $281 $282 $102 $182 forward $271 $-1 #
edge $-1 $283 -96.507807486012169 $185 -91.306961032880423 $181 $284 forward 7 unknown #
edge $-1 $186 132.39752530781979 $283 141.03946043275243 $103 $285 forward 7 unknown #
coedge $-1 $104 $275 $281 $286 forward $174 $-1 #
vertex $-1 $182 $287 #
vertex $-1 $105 $288 #
straight-curve $-1 21.380138413432022 1.7160816918148178 9.7040193111246964 -1 0 0 I I #
coedge $-1 $188 $188 $-1 $289 reversed $108 $-1 #
edge $-1 $290 0 $290 6.2831853071796004 $109 $291 forward 7 unknown #
vertex $-1 $112 $292 #
ellipse-curve $-1 67.068852108035856 -5.3019284452132354 7.1035960845588182 0.6018150307709319 0 0.79863550430605224 0.79863550430605224 0 -0.6018150307709319 1 I I #
coedge $-1 $192 $192 $-1 $293 reversed $115 $-1 #
edge $-1 $294 0 $294 6.2831853071796004 $116 $295 forward 7 unknown #
vertex $-1 $119 $296 #
ellipse-curve $-1 67.068852108035856 -1.0911223629964013 7.1035960845588182 0.6018150307709319 0 0.79863550430605224 0.79863550430605224 0 -0.6018150307709319 1 I I #
face $-1 $-1 $135 $18 $-1 $297 reversed single #
loop $-1 $-1 $212 $120 #
plane-surface $-1 0 46.674045264307779 0 0 -1 0 0 0 -1 forward_v I I I I #
coedge $-1 $298 $210 $213 $299 forward $121 $-1 #
coedge $-1 $216 $123 $124 $204 reversed $75 $-1 #
coedge $-1 $210 $298 $123 $202 reversed $121 $-1 #
edge $-1 $217 -9.7040193111247035 $300 9.7040193111247035 $201 $301 forward 7 unknown #
coedge $-1 $125 $124 $298 $302 forward $49 $-1 #
edge $-1 $208 -70.519730216376232 $300 70.519730216376232 $200 $303 forward 7 unknown #
coedge $-1 $213 $212 $125 $206 reversed $197 $-1 #
edge $-1 $304 -70.519730216376232 $207 70.519730216376232 $205 $305 forward 7 unknown #
vertex $-1 $127 $306 #
vertex $-1 $219 $307 #
straight-curve $-1 70.519730216376232 0 -9.7040193111247035 0 -1 0 I I #
coedge $-1 $199 $201 $128 $211 reversed $121 $-1 #
edge $-1 $214 -46.674045264307779 $217 46.674045264307779 $210 $308 forward 7 unknown #
coedge $-1 $205 $129 $134 $220 forward $197 $-1 #
coedge $-1 $129 $205 $199 $299 reversed $197 $-1 #
vertex $-1 $130 $309 #
straight-curve $-1 0 46.674045264307779 9.7040193111247035 -1 0 0 I I #
coedge $-1 $131 $200 $133 $219 reversed $75 $-1 #
vertex $-1 $211 $310 #
straight-curve $-1 0 -46.674045264307779 9.7040193111247035 1 0 0 I I #
edge $-1 $136 -9.7040193111247035 $208 9.7040193111247035 $133 $311 forward 7 unknown #
edge $-1 $137 -9.7040193111247035 $207 9.7040193111247035 $134 $312 forward 7 unknown #
point $-1 70.519730216376232 -46.674045264307779 9.7040193111247035 #
point $-1 70.519730216376232 46.674045264307779 9.7040193111247035 #
face $-1 $-1 $240 $19 $-1 $313 forward single #
loop $-1 $-1 $314 $139 #
plane-surface $-1 -58.744106056248029 -51.254172387792792 0 -1 0 0 0 0 1 forward_v I I I I #
coedge $-1 $315 $142 $230 $316 reversed $83 $-1 #
coedge $-1 $142 $315 $317 $318 reversed $83 $-1 #
coedge $-1 $150 $149 $142 $229 reversed $140 $-1 #
edge $-1 $319 -9.7040193111247035 $320 9.7040193111247035 $228 $321 forward 7 unknown #
coedge $-1 $144 $143 $226 $316 forward $53 $-1 #
coedge $-1 $236 $314 $143 $232 reversed $224 $-1 #
edge $-1 $234 -4.5801271234850134 $322 4.5801271234850134 $231 $323 forward 7 unknown #
edge $-1 $320 -4.5801271234850134 $151 4.5801271234850134 $149 $324 forward 7 unknown #
vertex $-1 $232 $325 #
straight-curve $-1 0 -46.674045264307779 -9.7040193111247035 1 0 0 I I #
coedge $-1 $326 $231 $146 $237 reversed $224 $-1 #
edge $-1 $241 -9.7040193111247035 $234 9.7040193111247035 $236 $327 forward 7 unknown #
coedge $-1 $317 $147 $150 $243 forward $240 $-1 #
coedge $-1 $147 $317 $326 $328 forward $240 $-1 #
loop $-1 $-1 $147 $223 #
vertex $-1 $148 $329 #
straight-curve $-1 0 -46.674045264307779 9.7040193111247035 -1 0 0 I I #
edge $-1 $152 -4.5801271234850134 $319 4.5801271234850134 $150 $330 forward 7 unknown #
point $-1 -61.744106056248029 -46.674045264307779 -9.7040193111247035 #
point $-1 -61.744106056248029 -46.674045264307779 9.7040193111247035 #
face $-1 $-1 $331 $20 $-1 $332 reversed single #
plane-surface $-1 70.519730216376232 0 0 -1 0 0 0 0 1 forward_v I I I I #
coedge $-1 $264 $157 $158 $252 reversed $91 $-1 #
coedge $-1 $258 $333 $157 $250 forward $331 $-1 #
edge $-1 $334 -3.8015670496998148 $265 -0.80156704969981485 $249 $335 forward 7 unknown #
coedge $-1 $159 $158 $333 $336 reversed $57 $-1 #
edge $-1 $255 -70.519730216376232 $334 70.519730216376232 $248 $337 forward 7 unknown #
coedge $-1 $261 $260 $159 $254 forward $155 $-1 #
edge $-1 $256 -70.519730216376232 $338 70.519730216376232 $253 $339 forward 7 unknown #
vertex $-1 $161 $340 #
vertex $-1 $161 $341 #
straight-curve $-1 70.519730216376232 21.576852365269716 -6.1031340993996297 0 1 0 I I #
coedge $-1 $342 $249 $162 $259 forward $331 $-1 #
edge $-1 $265 18.056511831501361 $262 25.09719289903807 $258 $343 forward 7 unknown #
coedge $-1 $253 $163 $168 $268 forward $155 $-1 #
coedge $-1 $163 $253 $342 $344 reversed $155 $-1 #
vertex $-1 $344 $345 #
straight-curve $-1 0 46.674045264307779 -3.1031340993996297 1 0 0 I I #
coedge $-1 $165 $248 $167 $267 reversed $91 $-1 #
vertex $-1 $259 $346 #
straight-curve $-1 0 39.633364196771076 -3.1031340993996297 1 0 0 I I #
edge $-1 $171 0.80156704969981485 $255 3.8015670496998148 $167 $347 forward 7 unknown #
edge $-1 $170 3.1031340993996297 $256 6.1031340993996297 $168 $348 forward 7 unknown #
point $-1 70.519730216376232 46.674045264307786 -3.1031340993996297 #
point $-1 70.519730216376232 39.633364196771076 -3.1031340993996297 #
loop $-1 $-1 $181 $173 #
plane-surface $-1 70.519730216376232 0 0 -1 0 0 0 0 1 forward_v I I I I #
coedge $-1 $274 $176 $178 $278 reversed $99 $-1 #
coedge $-1 $176 $273 $349 $350 reversed $99 $-1 #
coedge $-1 $184 $179 $176 $276 forward $174 $-1 #
edge $-1 $279 42.237835586263444 $351 49.13959180294421 $275 $352 forward 7 unknown #
coedge $-1 $178 $177 $282 $353 reversed $61 $-1 #
edge $-1 $354 -141.03946043275243 $279 -132.39752530781979 $273 $355 forward 7 unknown #
vertex $-1 $180 $356 #
straight-curve $-1 63.617973999695451 -1.5982627020524092 9.7040193111247035 0 -1 0 I I #
coedge $-1 $349 $181 $184 $286 reversed $271 $-1 #
coedge $-1 $181 $349 $277 $353 forward $271 $-1 #
vertex $-1 $182 $357 #
straight-curve $-1 70.519730216376232 1.7160816918148178 101.01098034400513 0 0 1 I I #
straight-curve $-1 -42.119390393388514 1.7160816918148178 89.382840078245508 0.79863550430605224 0 -0.6018150307709319 I I #
edge $-1 $351 -8.1091325000244545 $185 1.7160816918148178 $281 $358 forward 7 unknown #
point $-1 70.519730216376232 1.7160816918148178 9.7040193111247035 #
point $-1 63.617973999695465 1.7160816918148178 9.7040193111247106 #
edge $-1 $359 1 $359 0 $188 $-1 forward 7 unknown #
vertex $-1 $189 $360 #
ellipse-curve $-1 65.495357515421105 -5.3019284452132354 5.0154982750276478 0.6018150307709319 0 0.79863550430605224 0.79863550430605224 0 -0.6018150307709319 1 I I #
point $-1 67.867487612341904 -5.3019284452132354 6.5017810537878944 #
edge $-1 $361 1 $361 0 $192 $-1 forward 7 unknown #
vertex $-1 $193 $362 #
ellipse-curve $-1 65.495357515421105 -1.0911223629964013 5.0154982750276478 0.6018150307709319 0 0.79863550430605224 0.79863550430605224 0 -0.6018150307709319 1 I I #
point $-1 67.867487612341904 -1.0911223629964013 6.5017810537878944 #
plane-surface $-1 70.519730216376232 0 0 -1 0 0 0 0 1 forward_v I I I I #
coedge $-1 $201 $199 $203 $302 reversed $121 $-1 #
edge $-1 $214 -9.7040193111247035 $304 9.7040193111247035 $213 $363 forward 7 unknown #
vertex $-1 $302 $364 #
straight-curve $-1 -70.519730216376232 -46.674045264307779 0 0 0 -1 I I #
edge $-1 $300 -46.674045264307779 $304 46.674045264307779 $298 $365 forward 7 unknown #
straight-curve $-1 0 -46.674045264307779 -9.7040193111247035 -1 0 0 I I #
vertex $-1 $206 $366 #
straight-curve $-1 0 46.674045264307779 -9.7040193111247035 1 0 0 I I #
point $-1 70.519730216376232 46.674045264307779 -9.7040193111247035 #
point $-1 70.519730216376232 -46.674045264307779 -9.7040193111247035 #
straight-curve $-1 -70.519730216376232 0 9.7040193111247035 0 -1 0 I I #
point $-1 -70.519730216376232 46.674045264307779 9.7040193111247035 #
point $-1 -70.519730216376232 -46.674045264307779 9.7040193111247035 #
straight-curve $-1 70.519730216376232 -46.674045264307779 0 0 0 -1 I I #
straight-curve $-1 70.519730216376232 46.674045264307779 0 0 0 -1 I I #
plane-surface $-1 0 0 9.7040193111247035 0 0 1 1 0 0 forward_v I I I I #
coedge $-1 $231 $326 $315 $367 forward $224 $-1 #
coedge $-1 $227 $226 $314 $367 reversed $83 $-1 #
edge $-1 $322 -1.5 $320 1.5 $226 $368 forward 7 unknown #
coedge $-1 $239 $238 $227 $318 forward $240 $-1 #
edge $-1 $319 -1.5 $369 1.5 $227 $370 forward 7 unknown #
vertex $-1 $243 $371 #
vertex $-1 $233 $372 #
straight-curve $-1 -61.744106056248029 -55.834299511277806 0 0 0 -1 I I #
vertex $-1 $367 $373 #
straight-curve $-1 -58.744106056248029 -51.254172387792792 -9.7040193111247035 0 -1 0 I I #
straight-curve $-1 -61.744106056248029 -51.254172387792792 -9.7040193111247035 0 1 0 I I #
point $-1 -58.744106056248029 -46.674045264307779 -9.7040193111247035 #
coedge $-1 $314 $236 $239 $328 reversed $224 $-1 #
straight-curve $-1 -58.744106056248029 -46.674045264307779 0 0 0 -1 I I #
edge $-1 $369 -4.5801271234850134 $241 4.5801271234850134 $326 $374 forward 7 unknown #
point $-1 -58.744106056248029 -46.674045264307779 9.7040193111247035 #
straight-curve $-1 -61.744106056248029 -51.254172387792792 9.7040193111247035 0 -1 0 I I #
loop $-1 $-1 $258 $246 #
plane-surface $-1 -70.519730216376232 0 0 1 0 0 0 0 -1 forward_v I I I I #
coedge $-1 $249 $342 $251 $336 forward $331 $-1 #
vertex $-1 $336 $375 #
straight-curve $-1 -70.519730216376232 39.633364196771076 -2.3015670496998148 0 0 1 I I #
edge $-1 $338 -25.09719289903807 $334 -18.056511831501361 $333 $376 forward 7 unknown #
straight-curve $-1 0 39.633364196771076 -6.1031340993996297 -1 0 0 I I #
vertex $-1 $254 $377 #
straight-curve $-1 0 46.674045264307779 -6.1031340993996297 -1 0 0 I I #
point $-1 70.519730216376232 39.633364196771076 -6.1031340993996297 #
point $-1 70.519730216376232 46.674045264307786 -6.1031340993996297 #
coedge $-1 $333 $258 $261 $344 forward $331 $-1 #
straight-curve $-1 -70.519730216376232 21.576852365269716 -3.1031340993996297 0 1 0 I I #
edge $-1 $262 3.1031340993996297 $338 6.1031340993996297 $261 $378 forward 7 unknown #
point $-1 -70.519730216376232 46.674045264307786 -3.1031340993996297 #
point $-1 -70.519730216376232 39.633364196771076 -3.1031340993996297 #
straight-curve $-1 70.519730216376232 39.633364196771076 -2.3015670496998148 0 0 -1 I I #
straight-curve $-1 70.519730216376232 46.674045264307779 0 0 0 -1 I I #
coedge $-1 $282 $281 $274 $350 forward $271 $-1 #
edge $-1 $351 91.306961032880423 $354 96.507807486012169 $349 $379 forward 7 unknown #
vertex $-1 $286 $380 #
straight-curve $-1 21.380138413432022 -8.1091325000244545 9.7040193111246964 1 0 0 I I #
edge $-1 $354 -6.5108697979720453 $283 3.314344393867227 $282 $381 forward 7 unknown #
vertex $-1 $353 $382 #
straight-curve $-1 -42.119390393388514 -8.1091325000244545 89.382840078245508 -0.79863550430605224 0 0.6018150307709319 I I #
point $-1 63.617973999695465 -8.1091325000244545 9.7040193111247106 #
point $-1 70.519730216376232 1.7160816918148178 4.5031728579929649 #
straight-curve $-1 70.519730216376232 0 9.7040193111247035 0 1 0 I I #
vertex $-1 $289 $383 #
point $-1 66.293993019727168 -5.3019284452132354 4.413683244256716 #
vertex $-1 $293 $384 #
point $-1 66.293993019727168 -1.0911223629964013 4.413683244256716 #
straight-curve $-1 -70.519730216376232 46.674045264307779 0 0 0 -1 I I #
point $-1 -70.519730216376232 -46.674045264307779 -9.7040193111247035 #
straight-curve $-1 -70.519730216376232 0 -9.7040193111247035 0 1 0 I I #
point $-1 -70.519730216376232 46.674045264307779 -9.7040193111247035 #
edge $-1 $369 -9.7040193111247035 $322 9.7040193111247035 $314 $385 forward 7 unknown #
straight-curve $-1 -60.244106056248029 -55.834299511277806 -9.7040193111247035 -1 0 0 I I #
vertex $-1 $328 $386 #
straight-curve $-1 -60.244106056248029 -55.834299511277806 9.7040193111247035 1 0 0 I I #
point $-1 -61.744106056248029 -55.834299511277806 9.7040193111247035 #
point $-1 -61.744106056248029 -55.834299511277806 -9.7040193111247035 #
point $-1 -58.744106056248029 -55.834299511277806 -9.7040193111247035 #
straight-curve $-1 -58.744106056248029 -51.254172387792792 9.7040193111247035 0 1 0 I I #
point $-1 -70.519730216376232 39.633364196771076 -6.1031340993996297 #
straight-curve $-1 -70.519730216376232 21.576852365269716 -6.1031340993996297 0 -1 0 I I #
point $-1 -70.519730216376232 46.674045264307786 -6.1031340993996297 #
straight-curve $-1 -70.519730216376232 46.674045264307779 0 0 0 -1 I I #
straight-curve $-1 70.519730216376232 -8.1091325000244545 101.01098034400513 0 0 -1 I I #
point $-1 70.519730216376232 -8.1091325000244545 9.7040193111247035 #
straight-curve $-1 70.519730216376232 -1.5982627020524092 4.503172857992972 0 1 0 I I #
point $-1 70.519730216376232 -8.1091325000244545 4.5031728579929649 #
point $-1 64.893542484650183 -5.3019284452132354 4.2168627707215958 #
point $-1 64.893542484650183 -1.0911223629964013 4.2168627707215958 #
straight-curve $-1 -58.744106056248029 -55.834299511277806 0 0 0 -1 I I #
point $-1 -58.744106056248029 -55.834299511277806 9.7040193111247035 #
End-of-ACIS-data 