500 0 17 0           
7 Unknown 11 ACIS 5.0 NT 24 Fri Mar 26 00:32:15 1999 
-1 9.9999999999999995e-007 1e-010 
body $-1 $17 $-1 $18 #
body $-1 $19 $-1 $20 #
body $-1 $21 $-1 $22 #
body $-1 $23 $-1 $24 #
body $-1 $25 $-1 $26 #
body $-1 $27 $-1 $28 #
body $-1 $29 $-1 $30 #
body $-1 $31 $-1 $32 #
body $-1 $33 $-1 $34 #
body $-1 $35 $-1 $36 #
body $-1 $37 $-1 $38 #
body $-1 $39 $-1 $40 #
body $-1 $41 $-1 $42 #
body $-1 $43 $-1 $44 #
body $-1 $45 $-1 $46 #
body $-1 $47 $-1 $48 #
body $-1 $49 $-1 $50 #
lump $-1 $-1 $51 $0 #
transform $-1 1 0 0 0 1 0 0 0 1 64.479506820886868 30.53109665906015 6.7952584864302432 1 rotate no_reflect no_shear #
lump $-1 $-1 $52 $1 #
transform $-1 1 0 0 0 1 0 0 0 1 64.479506820886868 30.53109665906015 6.7952584864302432 1 rotate no_reflect no_shear #
lump $-1 $-1 $53 $2 #
transform $-1 1 0 0 0 1 0 0 0 1 64.479506820886868 30.53109665906015 6.7952584864302432 1 rotate no_reflect no_shear #
lump $-1 $-1 $54 $3 #
transform $-1 1 0 0 0 1 0 0 0 1 64.479506820886868 30.53109665906015 6.7952584864302432 1 rotate no_reflect no_shear #
lump $-1 $-1 $55 $4 #
transform $-1 1 0 0 0 1 0 0 0 1 64.479506820886868 30.53109665906015 6.7952584864302432 1 rotate no_reflect no_shear #
lump $-1 $-1 $56 $5 #
transform $-1 1 0 0 0 1 0 0 0 1 64.479506820886868 30.53109665906015 6.7952584864302432 1 rotate no_reflect no_shear #
lump $-1 $-1 $57 $6 #
transform $-1 1 0 0 0 1 0 0 0 1 64.479506820886868 30.53109665906015 6.7952584864302432 1 rotate no_reflect no_shear #
lump $-1 $-1 $58 $7 #
transform $-1 1 0 0 0 1 0 0 0 1 64.479506820886868 30.53109665906015 6.7952584864302432 1 rotate no_reflect no_shear #
lump $-1 $-1 $59 $8 #
transform $-1 1 0 0 0 1 0 0 0 1 64.479506820886868 30.53109665906015 6.7952584864302432 1 rotate no_reflect no_shear #
lump $-1 $-1 $60 $9 #
transform $-1 1 0 0 0 1 0 0 0 1 64.479506820886868 30.53109665906015 6.7952584864302432 1 rotate no_reflect no_shear #
lump $-1 $-1 $61 $10 #
transform $-1 1 0 0 0 1 0 0 0 1 64.479506820886868 30.53109665906015 6.7952584864302432 1 rotate no_reflect no_shear #
lump $-1 $-1 $62 $11 #
transform $-1 1 0 0 0 1 0 0 0 1 64.479506820886868 30.53109665906015 6.7952584864302432 1 rotate no_reflect no_shear #
lump $-1 $-1 $63 $12 #
transform $-1 1 0 0 0 1 0 0 0 1 64.479506820886868 30.53109665906015 6.7952584864302432 1 rotate no_reflect no_shear #
lump $-1 $-1 $64 $13 #
transform $-1 1 0 0 0 1 0 0 0 1 64.479506820886868 30.53109665906015 6.7952584864302432 1 rotate no_reflect no_shear #
lump $-1 $-1 $65 $14 #
transform $-1 1 0 0 0 1 0 0 0 1 64.479506820886868 30.53109665906015 6.7952584864302432 1 rotate no_reflect no_shear #
lump $-1 $-1 $66 $15 #
transform $-1 1 0 0 0 1 0 0 0 1 64.479506820886868 30.53109665906015 6.7952584864302432 1 rotate no_reflect no_shear #
lump $-1 $-1 $67 $16 #
transform $-1 1 0 0 0 1 0 0 0 1 64.479506820886868 30.53109665906015 6.7952584864302432 1 rotate no_reflect no_shear #
shell $-1 $-1 $-1 $68 $-1 $17 #
shell $-1 $-1 $-1 $69 $-1 $19 #
shell $-1 $-1 $-1 $70 $-1 $21 #
shell $-1 $-1 $-1 $71 $-1 $23 #
shell $-1 $-1 $-1 $72 $-1 $25 #
shell $-1 $-1 $-1 $73 $-1 $27 #
shell $-1 $-1 $-1 $74 $-1 $29 #
shell $-1 $-1 $-1 $75 $-1 $31 #
shell $-1 $-1 $-1 $76 $-1 $33 #
shell $-1 $-1 $-1 $77 $-1 $35 #
shell $-1 $-1 $-1 $78 $-1 $37 #
shell $-1 $-1 $-1 $79 $-1 $39 #
shell $-1 $-1 $-1 $80 $-1 $41 #
shell $-1 $-1 $-1 $81 $-1 $43 #
shell $-1 $-1 $-1 $82 $-1 $45 #
shell $-1 $-1 $-1 $83 $-1 $47 #
shell $-1 $-1 $-1 $84 $-1 $49 #
face $-1 $85 $86 $51 $-1 $87 forward single #
face $-1 $88 $89 $52 $-1 $90 reversed single #
face $-1 $91 $92 $53 $-1 $93 forward single #
face $-1 $94 $95 $54 $-1 $96 forward single #
face $-1 $97 $98 $55 $-1 $99 forward single #
face $-1 $100 $101 $56 $-1 $102 reversed single #
face $-1 $103 $104 $57 $-1 $105 forward single #
face $-1 $106 $107 $58 $-1 $108 forward single #
face $-1 $109 $110 $59 $-1 $111 forward single #
face $-1 $112 $113 $60 $-1 $114 reversed single #
face $-1 $115 $116 $61 $-1 $117 forward single #
face $-1 $118 $119 $62 $-1 $120 forward single #
face $-1 $121 $122 $63 $-1 $123 forward single #
face $-1 $124 $125 $64 $-1 $126 reversed single #
face $-1 $127 $128 $65 $-1 $129 forward single #
face $-1 $130 $131 $66 $-1 $132 forward single #
face $-1 $133 $134 $67 $-1 $135 forward single #
face $-1 $136 $137 $51 $-1 $138 reversed single #
loop $-1 $-1 $139 $68 #
plane-surface $-1 0 0 6.7952584864302432 0 0 1 1 0 0 forward_v I I I I #
face $-1 $140 $141 $52 $-1 $142 reversed single #
loop $-1 $-1 $143 $69 #
plane-surface $-1 -32.239753410443434 -141.07054729396461 67.534085458123926 -1 0 0 0 -0.85716730853699208 0.51503806187062418 forward_v I I I I #
face $-1 $144 $145 $53 $-1 $146 forward single #
loop $-1 $147 $148 $70 #
cone-surface $-1 -43.943550363716753 -27.177660383876791 2.965654256415716 0 0.85716730853699208 -0.51503806187062418 1 0 0 1 I I 0 1 1 forward I I I I #
face $-1 $149 $150 $54 $-1 $151 forward single #
loop $-1 $152 $153 $71 #
cone-surface $-1 -39.554626506239259 -27.177660383876791 2.965654256415716 0 0.85716730853699208 -0.51503806187062418 1 0 0 1 I I 0 1 1 forward I I I I #
face $-1 $154 $155 $55 $-1 $156 forward single #
loop $-1 $157 $158 $72 #
cone-surface $-1 -35.165702648761766 -27.177660383876791 2.965654256415716 0 0.85716730853699208 -0.51503806187062418 1 0 0 1 I I 0 1 1 forward I I I I #
face $-1 $159 $160 $56 $-1 $161 reversed single #
loop $-1 $-1 $162 $73 #
plane-surface $-1 -5.8700024062839251 -141.07054729396461 67.534085458123926 -1 0 0 0 -0.85716730853699208 0.51503806187062418 forward_v I I I I #
face $-1 $163 $164 $57 $-1 $165 forward single #
loop $-1 $166 $167 $74 #
cone-surface $-1 -17.573799359557242 -27.177660383876791 2.965654256415716 0 0.85716730853699208 -0.51503806187062418 1 0 0 1 I I 0 1 1 forward I I I I #
face $-1 $168 $169 $58 $-1 $170 forward single #
loop $-1 $171 $172 $75 #
cone-surface $-1 -13.184875502079748 -27.177660383876791 2.965654256415716 0 0.85716730853699208 -0.51503806187062418 1 0 0 1 I I 0 1 1 forward I I I I #
face $-1 $173 $174 $59 $-1 $175 forward single #
loop $-1 $176 $177 $76 #
cone-surface $-1 -8.7959516446022548 -27.177660383876791 2.965654256415716 0 0.85716730853699208 -0.51503806187062418 1 0 0 1 I I 0 1 1 forward I I I I #
face $-1 $178 $179 $60 $-1 $180 reversed single #
loop $-1 $-1 $181 $77 #
plane-surface $-1 20.499748597875588 -141.07054729396461 67.534085458123926 -1 0 0 0 -0.85716730853699208 0.51503806187062418 forward_v I I I I #
face $-1 $182 $183 $61 $-1 $184 forward single #
loop $-1 $185 $186 $78 #
cone-surface $-1 8.795951644602269 -27.177660383876791 2.965654256415716 0 0.85716730853699208 -0.51503806187062418 1 0 0 1 I I 0 1 1 forward I I I I #
face $-1 $187 $188 $62 $-1 $189 forward single #
loop $-1 $190 $191 $79 #
cone-surface $-1 13.184875502079763 -27.177660383876791 2.965654256415716 0 0.85716730853699208 -0.51503806187062418 1 0 0 1 I I 0 1 1 forward I I I I #
face $-1 $192 $193 $63 $-1 $194 forward single #
loop $-1 $195 $196 $80 #
cone-surface $-1 17.573799359557256 -27.177660383876791 2.965654256415716 0 0.85716730853699208 -0.51503806187062418 1 0 0 1 I I 0 1 1 forward I I I I #
face $-1 $197 $198 $64 $-1 $199 reversed single #
loop $-1 $-1 $200 $81 #
plane-surface $-1 46.869499602035098 -141.07054729396461 67.534085458123926 -1 0 0 0 -0.85716730853699208 0.51503806187062418 forward_v I I I I #
face $-1 $201 $202 $65 $-1 $203 forward single #
loop $-1 $204 $205 $82 #
cone-surface $-1 35.16570264876178 -27.177660383876791 2.965654256415716 0 0.85716730853699208 -0.51503806187062418 1 0 0 1 I I 0 1 1 forward I I I I #
face $-1 $206 $207 $66 $-1 $208 forward single #
loop $-1 $209 $210 $83 #
cone-surface $-1 39.554626506239273 -27.177660383876791 2.965654256415716 0 0.85716730853699208 -0.51503806187062418 1 0 0 1 I I 0 1 1 forward I I I I #
face $-1 $211 $212 $67 $-1 $213 forward single #
loop $-1 $214 $215 $84 #
cone-surface $-1 43.943550363716767 -27.177660383876791 2.965654256415716 0 0.85716730853699208 -0.51503806187062418 1 0 0 1 I I 0 1 1 forward I I I I #
face $-1 $216 $217 $51 $-1 $218 reversed single #
loop $-1 $-1 $219 $85 #
plane-surface $-1 0 0 -6.7952584864302432 0 0 1 1 0 0 forward_v I I I I #
coedge $-1 $220 $221 $222 $223 forward $86 $-1 #
face $-1 $224 $225 $52 $-1 $226 reversed single #
loop $-1 $-1 $227 $88 #
plane-surface $-1 -39.554626506239259 -30.531096659060168 1.1152850113173969 0 -0.85716730853699208 0.51503806187062418 1 0 0 forward_v I I I I #
coedge $-1 $228 $229 $230 $231 reversed $89 $-1 #
face $-1 $-1 $232 $53 $-1 $233 forward single #
loop $-1 $234 $235 $91 #
cone-surface $-1 -43.943550363716753 -25.102076584783042 1.7185177330223054 0 0.85716730853699208 -0.51503806187062418 0.5 0 0 1 I I -0.70710678118654746 0.70710678118654746 0.5 forward I I I I #
loop $-1 $-1 $236 $70 #
coedge $-1 $148 $148 $237 $238 reversed $92 $-1 #
face $-1 $-1 $239 $54 $-1 $240 forward single #
loop $-1 $241 $242 $94 #
cone-surface $-1 -39.554626506239259 -25.102076584783042 1.7185177330223054 0 0.85716730853699208 -0.51503806187062418 0.5 0 0 1 I I -0.70710678118654746 0.70710678118654746 0.5 forward I I I I #
loop $-1 $-1 $243 $71 #
coedge $-1 $153 $153 $244 $245 reversed $95 $-1 #
face $-1 $-1 $246 $55 $-1 $247 forward single #
loop $-1 $248 $249 $97 #
cone-surface $-1 -35.165702648761766 -25.102076584783042 1.7185177330223054 0 0.85716730853699208 -0.51503806187062418 0.5 0 0 1 I I -0.70710678118654746 0.70710678118654746 0.5 forward I I I I #
loop $-1 $-1 $250 $72 #
coedge $-1 $158 $158 $251 $252 reversed $98 $-1 #
face $-1 $253 $254 $56 $-1 $255 reversed single #
loop $-1 $-1 $256 $100 #
plane-surface $-1 -13.184875502079748 -30.531096659060168 1.1152850113173969 0 -0.85716730853699208 0.51503806187062418 1 0 0 forward_v I I I I #
coedge $-1 $257 $258 $259 $260 reversed $101 $-1 #
face $-1 $-1 $261 $57 $-1 $262 forward single #
loop $-1 $263 $264 $103 #
cone-surface $-1 -17.573799359557242 -25.102076584783042 1.7185177330223054 0 0.85716730853699208 -0.51503806187062418 0.5 0 0 1 I I -0.70710678118654746 0.70710678118654746 0.5 forward I I I I #
loop $-1 $-1 $265 $74 #
coedge $-1 $167 $167 $266 $267 reversed $104 $-1 #
face $-1 $-1 $268 $58 $-1 $269 forward single #
loop $-1 $270 $271 $106 #
cone-surface $-1 -13.184875502079748 -25.102076584783042 1.7185177330223054 0 0.85716730853699208 -0.51503806187062418 0.5 0 0 1 I I -0.70710678118654746 0.70710678118654746 0.5 forward I I I I #
loop $-1 $-1 $272 $75 #
coedge $-1 $172 $172 $273 $274 reversed $107 $-1 #
face $-1 $-1 $275 $59 $-1 $276 forward single #
loop $-1 $277 $278 $109 #
cone-surface $-1 -8.7959516446022548 -25.102076584783042 1.7185177330223054 0 0.85716730853699208 -0.51503806187062418 0.5 0 0 1 I I -0.70710678118654746 0.70710678118654746 0.5 forward I I I I #
loop $-1 $-1 $279 $76 #
coedge $-1 $177 $177 $280 $281 reversed $110 $-1 #
face $-1 $282 $283 $60 $-1 $284 reversed single #
loop $-1 $-1 $285 $112 #
plane-surface $-1 13.184875502079763 -30.531096659060168 1.1152850113173969 0 -0.85716730853699208 0.51503806187062418 1 0 0 forward_v I I I I #
coedge $-1 $286 $287 $288 $289 reversed $113 $-1 #
face $-1 $-1 $290 $61 $-1 $291 forward single #
loop $-1 $292 $293 $115 #
cone-surface $-1 8.795951644602269 -25.102076584783042 1.7185177330223054 0 0.85716730853699208 -0.51503806187062418 0.5 0 0 1 I I -0.70710678118654746 0.70710678118654746 0.5 forward I I I I #
loop $-1 $-1 $294 $78 #
coedge $-1 $186 $186 $295 $296 reversed $116 $-1 #
face $-1 $-1 $297 $62 $-1 $298 forward single #
loop $-1 $299 $300 $118 #
cone-surface $-1 13.184875502079763 -25.102076584783042 1.7185177330223054 0 0.85716730853699208 -0.51503806187062418 0.5 0 0 1 I I -0.70710678118654746 0.70710678118654746 0.5 forward I I I I #
loop $-1 $-1 $301 $79 #
coedge $-1 $191 $191 $302 $303 reversed $119 $-1 #
face $-1 $-1 $304 $63 $-1 $305 forward single #
loop $-1 $306 $307 $121 #
cone-surface $-1 17.573799359557256 -25.102076584783042 1.7185177330223054 0 0.85716730853699208 -0.51503806187062418 0.5 0 0 1 I I -0.70710678118654746 0.70710678118654746 0.5 forward I I I I #
loop $-1 $-1 $308 $80 #
coedge $-1 $196 $196 $309 $310 reversed $122 $-1 #
face $-1 $311 $312 $64 $-1 $313 reversed single #
loop $-1 $-1 $314 $124 #
plane-surface $-1 39.554626506239273 -30.531096659060168 1.1152850113173969 0 -0.85716730853699208 0.51503806187062418 1 0 0 forward_v I I I I #
coedge $-1 $315 $316 $317 $318 reversed $125 $-1 #
face $-1 $-1 $319 $65 $-1 $320 forward single #
loop $-1 $321 $322 $127 #
cone-surface $-1 35.16570264876178 -25.102076584783042 1.7185177330223054 0 0.85716730853699208 -0.51503806187062418 0.5 0 0 1 I I -0.70710678118654746 0.70710678118654746 0.5 forward I I I I #
loop $-1 $-1 $323 $82 #
coedge $-1 $205 $205 $324 $325 reversed $128 $-1 #
face $-1 $-1 $326 $66 $-1 $327 forward single #
loop $-1 $328 $329 $130 #
cone-surface $-1 39.554626506239273 -25.102076584783042 1.7185177330223054 0 0.85716730853699208 -0.51503806187062418 0.5 0 0 1 I I -0.70710678118654746 0.70710678118654746 0.5 forward I I I I #
loop $-1 $-1 $330 $83 #
coedge $-1 $210 $210 $331 $332 reversed $131 $-1 #
face $-1 $-1 $333 $67 $-1 $334 forward single #
loop $-1 $335 $336 $133 #
cone-surface $-1 43.943550363716767 -25.102076584783042 1.7185177330223054 0 0.85716730853699208 -0.51503806187062418 0.5 0 0 1 I I -0.70710678118654746 0.70710678118654746 0.5 forward I I I I #
loop $-1 $-1 $337 $84 #
coedge $-1 $215 $215 $338 $339 reversed $134 $-1 #
face $-1 $340 $341 $51 $-1 $342 reversed single #
loop $-1 $-1 $343 $136 #
plane-surface $-1 0 -30.53109665906015 0 0 1 0 0 0 1 forward_v I I I I #
coedge $-1 $344 $345 $346 $347 forward $137 $-1 #
coedge $-1 $348 $139 $349 $350 forward $86 $-1 #
coedge $-1 $139 $348 $351 $352 forward $86 $-1 #
coedge $-1 $353 $354 $139 $223 reversed $355 $-1 #
edge $-1 $356 -30.53109665906015 $357 30.53109665906015 $222 $358 forward 7 unknown #
face $-1 $359 $360 $52 $-1 $361 reversed single #
loop $-1 $-1 $362 $140 #
plane-surface $-1 -46.869499602035084 -141.07054729396461 67.534085458123926 1 0 0 0 0.85716730853699208 -0.51503806187062418 forward_v I I I I #
coedge $-1 $363 $364 $365 $366 reversed $141 $-1 #
coedge $-1 $229 $143 $367 $368 reversed $89 $-1 #
coedge $-1 $143 $228 $363 $369 reversed $89 $-1 #
coedge $-1 $365 $370 $143 $231 forward $371 $-1 #
edge $-1 $372 40.00417698792215 $373 43.417049248638349 $230 $374 forward 7 unknown #
loop $-1 $-1 $237 $144 #
plane-surface $-1 -39.554626506239259 -30.531096659060168 1.1152850113173969 0 -0.85716730853699208 0.51503806187062418 1 0 0 forward_v I I I I #
loop $-1 $-1 $375 $91 #
coedge $-1 $235 $235 $236 $376 reversed $145 $-1 #
coedge $-1 $236 $236 $235 $376 forward $147 $-1 #
coedge $-1 $237 $237 $148 $238 forward $232 $-1 #
edge $-1 $377 2.2235452916415459e-015 $377 6.2831853071796031 $237 $378 forward 7 unknown #
loop $-1 $-1 $244 $149 #
plane-surface $-1 -39.554626506239259 -30.531096659060168 1.1152850113173969 0 -0.85716730853699208 0.51503806187062418 1 0 0 forward_v I I I I #
loop $-1 $-1 $379 $94 #
coedge $-1 $242 $242 $243 $380 reversed $150 $-1 #
coedge $-1 $243 $243 $242 $380 forward $152 $-1 #
coedge $-1 $244 $244 $153 $245 forward $239 $-1 #
edge $-1 $381 2.2235452916415459e-015 $381 6.2831853071796031 $244 $382 forward 7 unknown #
loop $-1 $-1 $251 $154 #
plane-surface $-1 -39.554626506239259 -30.531096659060168 1.1152850113173969 0 -0.85716730853699208 0.51503806187062418 1 0 0 forward_v I I I I #
loop $-1 $-1 $383 $97 #
coedge $-1 $249 $249 $250 $384 reversed $155 $-1 #
coedge $-1 $250 $250 $249 $384 forward $157 $-1 #
coedge $-1 $251 $251 $158 $252 forward $246 $-1 #
edge $-1 $385 2.2235452916415459e-015 $385 6.2831853071796031 $251 $386 forward 7 unknown #
face $-1 $387 $388 $56 $-1 $389 reversed single #
loop $-1 $-1 $390 $159 #
plane-surface $-1 -20.499748597875573 -141.07054729396461 67.534085458123926 1 0 0 0 0.85716730853699208 -0.51503806187062418 forward_v I I I I #
coedge $-1 $391 $392 $393 $394 reversed $160 $-1 #
coedge $-1 $258 $162 $395 $396 reversed $101 $-1 #
coedge $-1 $162 $257 $391 $397 reversed $101 $-1 #
coedge $-1 $393 $398 $162 $260 forward $399 $-1 #
edge $-1 $400 40.00417698792215 $401 43.417049248638349 $259 $402 forward 7 unknown #
loop $-1 $-1 $266 $163 #
plane-surface $-1 -13.184875502079748 -30.531096659060168 1.1152850113173969 0 -0.85716730853699208 0.51503806187062418 1 0 0 forward_v I I I I #
loop $-1 $-1 $403 $103 #
coedge $-1 $264 $264 $265 $404 reversed $164 $-1 #
coedge $-1 $265 $265 $264 $404 forward $166 $-1 #
coedge $-1 $266 $266 $167 $267 forward $261 $-1 #
edge $-1 $405 2.2235452916415459e-015 $405 6.2831853071796031 $266 $406 forward 7 unknown #
loop $-1 $-1 $273 $168 #
plane-surface $-1 -13.184875502079748 -30.531096659060168 1.1152850113173969 0 -0.85716730853699208 0.51503806187062418 1 0 0 forward_v I I I I #
loop $-1 $-1 $407 $106 #
coedge $-1 $271 $271 $272 $408 reversed $169 $-1 #
coedge $-1 $272 $272 $271 $408 forward $171 $-1 #
coedge $-1 $273 $273 $172 $274 forward $268 $-1 #
edge $-1 $409 2.2235452916415459e-015 $409 6.2831853071796031 $273 $410 forward 7 unknown #
loop $-1 $-1 $280 $173 #
plane-surface $-1 -13.184875502079748 -30.531096659060168 1.1152850113173969 0 -0.85716730853699208 0.51503806187062418 1 0 0 forward_v I I I I #
loop $-1 $-1 $411 $109 #
coedge $-1 $278 $278 $279 $412 reversed $174 $-1 #
coedge $-1 $279 $279 $278 $412 forward $176 $-1 #
coedge $-1 $280 $280 $177 $281 forward $275 $-1 #
edge $-1 $413 2.2235452916415459e-015 $413 6.2831853071796031 $280 $414 forward 7 unknown #
face $-1 $415 $416 $60 $-1 $417 reversed single #
loop $-1 $-1 $418 $178 #
plane-surface $-1 5.8700024062839393 -141.07054729396461 67.534085458123926 1 0 0 0 0.85716730853699208 -0.51503806187062418 forward_v I I I I #
coedge $-1 $419 $420 $421 $422 reversed $179 $-1 #
coedge $-1 $287 $181 $423 $424 reversed $113 $-1 #
coedge $-1 $181 $286 $419 $425 reversed $113 $-1 #
coedge $-1 $421 $426 $181 $289 forward $427 $-1 #
edge $-1 $428 40.00417698792215 $429 43.417049248638349 $288 $430 forward 7 unknown #
loop $-1 $-1 $295 $182 #
plane-surface $-1 13.184875502079763 -30.531096659060168 1.1152850113173969 0 -0.85716730853699208 0.51503806187062418 1 0 0 forward_v I I I I #
loop $-1 $-1 $431 $115 #
coedge $-1 $293 $293 $294 $432 reversed $183 $-1 #
coedge $-1 $294 $294 $293 $432 forward $185 $-1 #
coedge $-1 $295 $295 $186 $296 forward $290 $-1 #
edge $-1 $433 2.2235452916415459e-015 $433 6.2831853071796031 $295 $434 forward 7 unknown #
loop $-1 $-1 $302 $187 #
plane-surface $-1 13.184875502079763 -30.531096659060168 1.1152850113173969 0 -0.85716730853699208 0.51503806187062418 1 0 0 forward_v I I I I #
loop $-1 $-1 $435 $118 #
coedge $-1 $300 $300 $301 $436 reversed $188 $-1 #
coedge $-1 $301 $301 $300 $436 forward $190 $-1 #
coedge $-1 $302 $302 $191 $303 forward $297 $-1 #
edge $-1 $437 2.2235452916415459e-015 $437 6.2831853071796031 $302 $438 forward 7 unknown #
loop $-1 $-1 $309 $192 #
plane-surface $-1 13.184875502079763 -30.531096659060168 1.1152850113173969 0 -0.85716730853699208 0.51503806187062418 1 0 0 forward_v I I I I #
loop $-1 $-1 $439 $121 #
coedge $-1 $307 $307 $308 $440 reversed $193 $-1 #
coedge $-1 $308 $308 $307 $440 forward $195 $-1 #
coedge $-1 $309 $309 $196 $310 forward $304 $-1 #
edge $-1 $441 2.2235452916415459e-015 $441 6.2831853071796031 $309 $442 forward 7 unknown #
face $-1 $443 $444 $64 $-1 $445 reversed single #
loop $-1 $-1 $446 $197 #
plane-surface $-1 32.239753410443448 -141.07054729396461 67.534085458123926 1 0 0 0 0.85716730853699208 -0.51503806187062418 forward_v I I I I #
coedge $-1 $447 $448 $449 $450 reversed $198 $-1 #
coedge $-1 $316 $200 $451 $452 reversed $125 $-1 #
coedge $-1 $200 $315 $447 $453 reversed $125 $-1 #
coedge $-1 $449 $454 $200 $318 forward $455 $-1 #
edge $-1 $456 40.00417698792215 $457 43.417049248638349 $317 $458 forward 7 unknown #
loop $-1 $-1 $324 $201 #
plane-surface $-1 39.554626506239273 -30.531096659060168 1.1152850113173969 0 -0.85716730853699208 0.51503806187062418 1 0 0 forward_v I I I I #
loop $-1 $-1 $459 $127 #
coedge $-1 $322 $322 $323 $460 reversed $202 $-1 #
coedge $-1 $323 $323 $322 $460 forward $204 $-1 #
coedge $-1 $324 $324 $205 $325 forward $319 $-1 #
edge $-1 $461 2.2235452916415459e-015 $461 6.2831853071796031 $324 $462 forward 7 unknown #
loop $-1 $-1 $331 $206 #
plane-surface $-1 39.554626506239273 -30.531096659060168 1.1152850113173969 0 -0.85716730853699208 0.51503806187062418 1 0 0 forward_v I I I I #
loop $-1 $-1 $463 $130 #
coedge $-1 $329 $329 $330 $464 reversed $207 $-1 #
coedge $-1 $330 $330 $329 $464 forward $209 $-1 #
coedge $-1 $331 $331 $210 $332 forward $326 $-1 #
edge $-1 $465 2.2235452916415459e-015 $465 6.2831853071796031 $331 $466 forward 7 unknown #
loop $-1 $-1 $338 $211 #
plane-surface $-1 39.554626506239273 -30.531096659060168 1.1152850113173969 0 -0.85716730853699208 0.51503806187062418 1 0 0 forward_v I I I I #
loop $-1 $-1 $467 $133 #
coedge $-1 $336 $336 $337 $468 reversed $212 $-1 #
coedge $-1 $337 $337 $336 $468 forward $214 $-1 #
coedge $-1 $338 $338 $215 $339 forward $333 $-1 #
edge $-1 $469 2.2235452916415459e-015 $469 6.2831853071796031 $338 $470 forward 7 unknown #
face $-1 $471 $472 $51 $-1 $473 reversed single #
loop $-1 $-1 $474 $216 #
plane-surface $-1 -64.479506820886868 0 0 1 0 0 0 0 -1 forward_v I I I I #
coedge $-1 $475 $351 $476 $477 forward $217 $-1 #
coedge $-1 $478 $219 $475 $479 forward $137 $-1 #
coedge $-1 $219 $478 $480 $481 forward $137 $-1 #
coedge $-1 $354 $353 $219 $347 reversed $355 $-1 #
edge $-1 $482 -30.53109665906015 $483 30.53109665906015 $346 $484 forward 7 unknown #
coedge $-1 $221 $220 $485 $486 forward $86 $-1 #
coedge $-1 $487 $488 $220 $350 reversed $472 $-1 #
edge $-1 $357 -64.479506820886868 $489 64.479506820886868 $349 $490 forward 7 unknown #
coedge $-1 $343 $491 $221 $352 reversed $217 $-1 #
edge $-1 $492 -64.479506820886868 $356 64.479506820886868 $351 $493 forward 7 unknown #
coedge $-1 $346 $222 $491 $494 forward $355 $-1 #
coedge $-1 $222 $346 $487 $495 reversed $355 $-1 #
loop $-1 $-1 $353 $471 #
vertex $-1 $223 $496 #
vertex $-1 $223 $497 #
straight-curve $-1 64.479506820886868 0 6.7952584864302432 0 1 0 I I #
face $-1 $-1 $371 $52 $-1 $498 forward single #
loop $-1 $-1 $499 $224 #
plane-surface $-1 0 -30.53109665906015 0 0 1 0 0 0 1 forward_v I I I I #
coedge $-1 $500 $501 $502 $503 reversed $225 $-1 #
coedge $-1 $504 $227 $229 $369 forward $141 $-1 #
coedge $-1 $227 $504 $500 $505 forward $141 $-1 #
coedge $-1 $502 $230 $227 $366 forward $371 $-1 #
edge $-1 $373 12.462440157323805 $506 27.092186348915455 $365 $507 forward 7 unknown #
coedge $-1 $508 $509 $228 $368 forward $360 $-1 #
edge $-1 $510 -32.651757717744538 $372 -26.97178424263172 $367 $511 forward 7 unknown #
edge $-1 $373 -6.6264466907952793 $510 -3.4462720895926933e-014 $229 $512 forward 7 unknown #
coedge $-1 $230 $502 $508 $513 forward $371 $-1 #
loop $-1 $-1 $502 $359 #
vertex $-1 $368 $514 #
vertex $-1 $231 $515 #
straight-curve $-1 -32.239753410443434 -70.535273646982304 6.7952584864302423 0 1 0 I I #
coedge $-1 $375 $375 $-1 $516 reversed $234 $-1 #
edge $-1 $517 0 $517 6.2831853071796004 $235 $518 forward 7 unknown #
vertex $-1 $238 $519 #
ellipse-curve $-1 -43.943550363716753 -28.824660528702061 3.955271748873824 0 -0.85716730853699208 0.51503806187062418 1 0 0 1 I I #
coedge $-1 $379 $379 $-1 $520 reversed $241 $-1 #
edge $-1 $521 0 $521 6.2831853071796004 $242 $522 forward 7 unknown #
vertex $-1 $245 $523 #
ellipse-curve $-1 -39.554626506239259 -28.824660528702061 3.955271748873824 0 -0.85716730853699208 0.51503806187062418 1 0 0 1 I I #
coedge $-1 $383 $383 $-1 $524 reversed $248 $-1 #
edge $-1 $525 0 $525 6.2831853071796004 $249 $526 forward 7 unknown #
vertex $-1 $252 $527 #
ellipse-curve $-1 -35.165702648761766 -28.824660528702061 3.955271748873824 0 -0.85716730853699208 0.51503806187062418 1 0 0 1 I I #
face $-1 $-1 $399 $56 $-1 $528 forward single #
loop $-1 $-1 $529 $253 #
plane-surface $-1 0 -30.53109665906015 0 0 1 0 0 0 1 forward_v I I I I #
coedge $-1 $530 $531 $532 $533 reversed $254 $-1 #
coedge $-1 $534 $256 $258 $397 forward $160 $-1 #
coedge $-1 $256 $534 $530 $535 forward $160 $-1 #
coedge $-1 $532 $259 $256 $394 forward $399 $-1 #
edge $-1 $401 -0.72243534475594906 $536 13.907310846835699 $393 $537 forward 7 unknown #
coedge $-1 $538 $539 $257 $396 forward $388 $-1 #
edge $-1 $540 -32.651757717744538 $400 -26.97178424263172 $395 $541 forward 7 unknown #
edge $-1 $401 -6.6264466907952793 $540 -3.4462720895926933e-014 $258 $542 forward 7 unknown #
coedge $-1 $259 $532 $538 $543 forward $399 $-1 #
loop $-1 $-1 $532 $387 #
vertex $-1 $396 $544 #
vertex $-1 $260 $545 #
straight-curve $-1 -5.8700024062839251 -70.535273646982304 6.7952584864302423 0 1 0 I I #
coedge $-1 $403 $403 $-1 $546 reversed $263 $-1 #
edge $-1 $547 0 $547 6.2831853071796004 $264 $548 forward 7 unknown #
vertex $-1 $267 $549 #
ellipse-curve $-1 -17.573799359557242 -28.824660528702061 3.955271748873824 0 -0.85716730853699208 0.51503806187062418 1 0 0 1 I I #
coedge $-1 $407 $407 $-1 $550 reversed $270 $-1 #
edge $-1 $551 0 $551 6.2831853071796004 $271 $552 forward 7 unknown #
vertex $-1 $274 $553 #
ellipse-curve $-1 -13.184875502079748 -28.824660528702061 3.955271748873824 0 -0.85716730853699208 0.51503806187062418 1 0 0 1 I I #
coedge $-1 $411 $411 $-1 $554 reversed $277 $-1 #
edge $-1 $555 0 $555 6.2831853071796004 $278 $556 forward 7 unknown #
vertex $-1 $281 $557 #
ellipse-curve $-1 -8.7959516446022548 -28.824660528702061 3.955271748873824 0 -0.85716730853699208 0.51503806187062418 1 0 0 1 I I #
face $-1 $-1 $427 $60 $-1 $558 forward single #
loop $-1 $-1 $559 $282 #
plane-surface $-1 0 -30.53109665906015 0 0 1 0 0 0 1 forward_v I I I I #
coedge $-1 $560 $561 $562 $563 reversed $283 $-1 #
coedge $-1 $564 $285 $287 $425 forward $179 $-1 #
coedge $-1 $285 $564 $560 $565 forward $179 $-1 #
coedge $-1 $562 $288 $285 $422 forward $427 $-1 #
edge $-1 $429 -13.907310846835706 $566 0.72243534475594195 $421 $567 forward 7 unknown #
coedge $-1 $568 $569 $286 $424 forward $416 $-1 #
edge $-1 $570 -32.651757717744538 $428 -26.97178424263172 $423 $571 forward 7 unknown #
edge $-1 $429 -6.6264466907952793 $570 -3.4462720895926933e-014 $287 $572 forward 7 unknown #
coedge $-1 $288 $562 $568 $573 forward $427 $-1 #
loop $-1 $-1 $562 $415 #
vertex $-1 $424 $574 #
vertex $-1 $289 $575 #
straight-curve $-1 20.499748597875588 -70.535273646982304 6.7952584864302423 0 1 0 I I #
coedge $-1 $431 $431 $-1 $576 reversed $292 $-1 #
edge $-1 $577 0 $577 6.2831853071796004 $293 $578 forward 7 unknown #
vertex $-1 $296 $579 #
ellipse-curve $-1 8.795951644602269 -28.824660528702061 3.955271748873824 0 -0.85716730853699208 0.51503806187062418 1 0 0 1 I I #
coedge $-1 $435 $435 $-1 $580 reversed $299 $-1 #
edge $-1 $581 0 $581 6.2831853071796004 $300 $582 forward 7 unknown #
vertex $-1 $303 $583 #
ellipse-curve $-1 13.184875502079763 -28.824660528702061 3.955271748873824 0 -0.85716730853699208 0.51503806187062418 1 0 0 1 I I #
coedge $-1 $439 $439 $-1 $584 reversed $306 $-1 #
edge $-1 $585 0 $585 6.2831853071796004 $307 $586 forward 7 unknown #
vertex $-1 $310 $587 #
ellipse-curve $-1 17.573799359557256 -28.824660528702061 3.955271748873824 0 -0.85716730853699208 0.51503806187062418 1 0 0 1 I I #
face $-1 $-1 $455 $64 $-1 $588 forward single #
loop $-1 $-1 $589 $311 #
plane-surface $-1 0 -30.53109665906015 0 0 1 0 0 0 1 forward_v I I I I #
coedge $-1 $590 $591 $592 $593 reversed $312 $-1 #
coedge $-1 $594 $314 $316 $453 forward $198 $-1 #
coedge $-1 $314 $594 $590 $595 forward $198 $-1 #
coedge $-1 $592 $317 $314 $450 forward $455 $-1 #
edge $-1 $457 -27.092186348915462 $596 -12.462440157323812 $449 $597 forward 7 unknown #
coedge $-1 $598 $599 $315 $452 forward $444 $-1 #
edge $-1 $600 -32.651757717744538 $456 -26.97178424263172 $451 $601 forward 7 unknown #
edge $-1 $457 -6.6264466907952793 $600 -3.4462720895926933e-014 $316 $602 forward 7 unknown #
coedge $-1 $317 $592 $598 $603 forward $455 $-1 #
loop $-1 $-1 $592 $443 #
vertex $-1 $452 $604 #
vertex $-1 $318 $605 #
straight-curve $-1 46.869499602035098 -70.535273646982304 6.7952584864302423 0 1 0 I I #
coedge $-1 $459 $459 $-1 $606 reversed $321 $-1 #
edge $-1 $607 0 $607 6.2831853071796004 $322 $608 forward 7 unknown #
vertex $-1 $325 $609 #
ellipse-curve $-1 35.16570264876178 -28.824660528702061 3.955271748873824 0 -0.85716730853699208 0.51503806187062418 1 0 0 1 I I #
coedge $-1 $463 $463 $-1 $610 reversed $328 $-1 #
edge $-1 $611 0 $611 6.2831853071796004 $329 $612 forward 7 unknown #
vertex $-1 $332 $613 #
ellipse-curve $-1 39.554626506239273 -28.824660528702061 3.955271748873824 0 -0.85716730853699208 0.51503806187062418 1 0 0 1 I I #
coedge $-1 $467 $467 $-1 $614 reversed $335 $-1 #
edge $-1 $615 0 $615 6.2831853071796004 $336 $616 forward 7 unknown #
vertex $-1 $339 $617 #
ellipse-curve $-1 43.943550363716767 -28.824660528702061 3.955271748873824 0 -0.85716730853699208 0.51503806187062418 1 0 0 1 I I #
face $-1 $-1 $355 $51 $-1 $618 reversed single #
loop $-1 $-1 $487 $340 #
plane-surface $-1 0 30.53109665906015 0 0 -1 0 0 0 -1 forward_v I I I I #
coedge $-1 $619 $485 $488 $620 forward $341 $-1 #
coedge $-1 $491 $343 $344 $479 reversed $217 $-1 #
coedge $-1 $485 $619 $343 $477 reversed $341 $-1 #
edge $-1 $492 -6.7952584864302432 $621 6.7952584864302432 $476 $622 forward 7 unknown #
coedge $-1 $345 $344 $619 $623 forward $137 $-1 #
edge $-1 $483 -64.479506820886868 $621 64.479506820886868 $475 $624 forward 7 unknown #
coedge $-1 $488 $487 $345 $481 reversed $472 $-1 #
edge $-1 $625 -64.479506820886868 $482 64.479506820886868 $480 $626 forward 7 unknown #
vertex $-1 $347 $627 #
vertex $-1 $494 $628 #
straight-curve $-1 64.479506820886868 0 -6.7952584864302432 0 -1 0 I I #
coedge $-1 $474 $476 $348 $486 reversed $341 $-1 #
edge $-1 $489 -30.53109665906015 $492 30.53109665906015 $485 $629 forward 7 unknown #
coedge $-1 $480 $349 $354 $495 forward $472 $-1 #
coedge $-1 $349 $480 $474 $620 reversed $472 $-1 #
vertex $-1 $350 $630 #
straight-curve $-1 0 30.53109665906015 6.7952584864302432 -1 0 0 I I #
coedge $-1 $351 $475 $353 $494 reversed $217 $-1 #
vertex $-1 $486 $631 #
straight-curve $-1 0 -30.53109665906015 6.7952584864302432 1 0 0 I I #
edge $-1 $356 -6.7952584864302432 $483 6.7952584864302432 $353 $632 forward 7 unknown #
edge $-1 $357 -6.7952584864302432 $482 6.7952584864302432 $354 $633 forward 7 unknown #
point $-1 64.479506820886868 -30.53109665906015 6.7952584864302432 #
point $-1 64.479506820886868 30.53109665906015 6.7952584864302432 #
plane-surface $-1 0 0 6.7952584864302432 0 0 1 1 0 0 forward_v I I I I #
coedge $-1 $509 $508 $501 $634 forward $360 $-1 #
coedge $-1 $501 $362 $364 $505 reversed $225 $-1 #
coedge $-1 $362 $500 $499 $634 reversed $225 $-1 #
coedge $-1 $370 $365 $362 $503 forward $371 $-1 #
edge $-1 $506 -43.417049248638349 $635 -40.00417698792215 $502 $636 forward 7 unknown #
coedge $-1 $364 $363 $509 $637 reversed $141 $-1 #
edge $-1 $638 3.4462720895926933e-014 $506 6.6264466907952793 $500 $639 forward 7 unknown #
vertex $-1 $366 $640 #
straight-curve $-1 -19.77731325311963 -27.118224398343951 6.7952584864302432 -1 0 0 I I #
coedge $-1 $499 $367 $370 $513 reversed $360 $-1 #
coedge $-1 $367 $499 $504 $637 forward $360 $-1 #
vertex $-1 $368 $641 #
straight-curve $-1 -32.239753410443434 -30.531096659060154 33.767042729061963 0 0 1 I I #
straight-curve $-1 -32.239753410443434 -30.531096659060168 1.1152850113173969 0 -0.51503806187062418 -0.85716730853699208 I I #
edge $-1 $635 -46.869499602035084 $372 -32.239753410443434 $508 $642 forward 7 unknown #
point $-1 -32.239753410443434 -30.53109665906015 6.7952584864302432 #
point $-1 -32.239753410443434 -27.118224398343955 6.7952584864302432 #
edge $-1 $643 1 $643 0 $375 $-1 forward 7 unknown #
vertex $-1 $376 $644 #
ellipse-curve $-1 -43.943550363716753 -25.530660239051539 1.9760367639576175 0 -0.85716730853699208 0.51503806187062418 1 0 0 1 I I #
point $-1 -42.943550363716753 -28.82466052870204 3.9552717488738138 #
edge $-1 $645 1 $645 0 $379 $-1 forward 7 unknown #
vertex $-1 $380 $646 #
ellipse-curve $-1 -39.554626506239259 -25.530660239051539 1.9760367639576175 0 -0.85716730853699208 0.51503806187062418 1 0 0 1 I I #
point $-1 -38.554626506239259 -28.82466052870204 3.9552717488738138 #
edge $-1 $647 1 $647 0 $383 $-1 forward 7 unknown #
vertex $-1 $384 $648 #
ellipse-curve $-1 -35.165702648761766 -25.530660239051539 1.9760367639576175 0 -0.85716730853699208 0.51503806187062418 1 0 0 1 I I #
point $-1 -34.165702648761766 -28.82466052870204 3.9552717488738138 #
plane-surface $-1 0 0 6.7952584864302432 0 0 1 1 0 0 forward_v I I I I #
coedge $-1 $539 $538 $531 $649 forward $388 $-1 #
coedge $-1 $531 $390 $392 $535 reversed $254 $-1 #
coedge $-1 $390 $530 $529 $649 reversed $254 $-1 #
coedge $-1 $398 $393 $390 $533 forward $399 $-1 #
edge $-1 $536 -43.417049248638349 $650 -40.00417698792215 $532 $651 forward 7 unknown #
coedge $-1 $392 $391 $539 $652 reversed $160 $-1 #
edge $-1 $653 3.4462720895926933e-014 $536 6.6264466907952793 $530 $654 forward 7 unknown #
vertex $-1 $394 $655 #
straight-curve $-1 -6.5924377510398742 -27.118224398343951 6.7952584864302432 -1 0 0 I I #
coedge $-1 $529 $395 $398 $543 reversed $388 $-1 #
coedge $-1 $395 $529 $534 $652 forward $388 $-1 #
vertex $-1 $396 $656 #
straight-curve $-1 -5.8700024062839251 -30.531096659060154 33.767042729061963 0 0 1 I I #
straight-curve $-1 -5.8700024062839251 -30.531096659060168 1.1152850113173969 0 -0.51503806187062418 -0.85716730853699208 I I #
edge $-1 $650 -20.499748597875573 $400 -5.8700024062839251 $538 $657 forward 7 unknown #
point $-1 -5.8700024062839251 -30.53109665906015 6.7952584864302432 #
point $-1 -5.8700024062839251 -27.118224398343955 6.7952584864302432 #
edge $-1 $658 1 $658 0 $403 $-1 forward 7 unknown #
vertex $-1 $404 $659 #
ellipse-curve $-1 -17.573799359557242 -25.530660239051539 1.9760367639576175 0 -0.85716730853699208 0.51503806187062418 1 0 0 1 I I #
point $-1 -16.573799359557242 -28.82466052870204 3.9552717488738138 #
edge $-1 $660 1 $660 0 $407 $-1 forward 7 unknown #
vertex $-1 $408 $661 #
ellipse-curve $-1 -13.184875502079748 -25.530660239051539 1.9760367639576175 0 -0.85716730853699208 0.51503806187062418 1 0 0 1 I I #
point $-1 -12.184875502079748 -28.82466052870204 3.9552717488738138 #
edge $-1 $662 1 $662 0 $411 $-1 forward 7 unknown #
vertex $-1 $412 $663 #
ellipse-curve $-1 -8.7959516446022548 -25.530660239051539 1.9760367639576175 0 -0.85716730853699208 0.51503806187062418 1 0 0 1 I I #
point $-1 -7.7959516446022548 -28.82466052870204 3.9552717488738138 #
plane-surface $-1 0 0 6.7952584864302432 0 0 1 1 0 0 forward_v I I I I #
coedge $-1 $569 $568 $561 $664 forward $416 $-1 #
coedge $-1 $561 $418 $420 $565 reversed $283 $-1 #
coedge $-1 $418 $560 $559 $664 reversed $283 $-1 #
coedge $-1 $426 $421 $418 $563 forward $427 $-1 #
edge $-1 $566 -43.417049248638349 $665 -40.00417698792215 $562 $666 forward 7 unknown #
coedge $-1 $420 $419 $569 $667 reversed $179 $-1 #
edge $-1 $668 3.4462720895926933e-014 $566 6.6264466907952793 $560 $669 forward 7 unknown #
vertex $-1 $422 $670 #
straight-curve $-1 6.5924377510398813 -27.118224398343951 6.7952584864302432 -1 0 0 I I #
coedge $-1 $559 $423 $426 $573 reversed $416 $-1 #
coedge $-1 $423 $559 $564 $667 forward $416 $-1 #
vertex $-1 $424 $671 #
straight-curve $-1 20.499748597875588 -30.531096659060154 33.767042729061963 0 0 1 I I #
straight-curve $-1 20.499748597875588 -30.531096659060168 1.1152850113173969 0 -0.51503806187062418 -0.85716730853699208 I I #
edge $-1 $665 5.8700024062839393 $428 20.499748597875588 $568 $672 forward 7 unknown #
point $-1 20.499748597875588 -30.53109665906015 6.7952584864302432 #
point $-1 20.499748597875588 -27.118224398343955 6.7952584864302432 #
edge $-1 $673 1 $673 0 $431 $-1 forward 7 unknown #
vertex $-1 $432 $674 #
ellipse-curve $-1 8.795951644602269 -25.530660239051539 1.9760367639576175 0 -0.85716730853699208 0.51503806187062418 1 0 0 1 I I #
point $-1 9.795951644602269 -28.82466052870204 3.9552717488738138 #
edge $-1 $675 1 $675 0 $435 $-1 forward 7 unknown #
vertex $-1 $436 $676 #
ellipse-curve $-1 13.184875502079763 -25.530660239051539 1.9760367639576175 0 -0.85716730853699208 0.51503806187062418 1 0 0 1 I I #
point $-1 14.184875502079763 -28.82466052870204 3.9552717488738138 #
edge $-1 $677 1 $677 0 $439 $-1 forward 7 unknown #
vertex $-1 $440 $678 #
ellipse-curve $-1 17.573799359557256 -25.530660239051539 1.9760367639576175 0 -0.85716730853699208 0.51503806187062418 1 0 0 1 I I #
point $-1 18.573799359557256 -28.82466052870204 3.9552717488738138 #
plane-surface $-1 0 0 6.7952584864302432 0 0 1 1 0 0 forward_v I I I I #
coedge $-1 $599 $598 $591 $679 forward $444 $-1 #
coedge $-1 $591 $446 $448 $595 reversed $312 $-1 #
coedge $-1 $446 $590 $589 $679 reversed $312 $-1 #
coedge $-1 $454 $449 $446 $593 forward $455 $-1 #
edge $-1 $596 -43.417049248638349 $680 -40.00417698792215 $592 $681 forward 7 unknown #
coedge $-1 $448 $447 $599 $682 reversed $198 $-1 #
edge $-1 $683 3.4462720895926933e-014 $596 6.6264466907952793 $590 $684 forward 7 unknown #
vertex $-1 $450 $685 #
straight-curve $-1 19.777313253119637 -27.118224398343951 6.7952584864302432 -1 0 0 I I #
coedge $-1 $589 $451 $454 $603 reversed $444 $-1 #
coedge $-1 $451 $589 $594 $682 forward $444 $-1 #
vertex $-1 $452 $686 #
straight-curve $-1 46.869499602035098 -30.531096659060154 33.767042729061963 0 0 1 I I #
straight-curve $-1 46.869499602035098 -30.531096659060168 1.1152850113173969 0 -0.51503806187062418 -0.85716730853699208 I I #
edge $-1 $680 32.239753410443448 $456 46.869499602035098 $598 $687 forward 7 unknown #
point $-1 46.869499602035098 -30.53109665906015 6.7952584864302432 #
point $-1 46.869499602035098 -27.118224398343955 6.7952584864302432 #
edge $-1 $688 1 $688 0 $459 $-1 forward 7 unknown #
vertex $-1 $460 $689 #
ellipse-curve $-1 35.16570264876178 -25.530660239051539 1.9760367639576175 0 -0.85716730853699208 0.51503806187062418 1 0 0 1 I I #
point $-1 36.16570264876178 -28.82466052870204 3.9552717488738138 #
edge $-1 $690 1 $690 0 $463 $-1 forward 7 unknown #
vertex $-1 $464 $691 #
ellipse-curve $-1 39.554626506239273 -25.530660239051539 1.9760367639576175 0 -0.85716730853699208 0.51503806187062418 1 0 0 1 I I #
point $-1 40.554626506239273 -28.82466052870204 3.9552717488738138 #
edge $-1 $692 1 $692 0 $467 $-1 forward 7 unknown #
vertex $-1 $468 $693 #
ellipse-curve $-1 43.943550363716767 -25.530660239051539 1.9760367639576175 0 -0.85716730853699208 0.51503806187062418 1 0 0 1 I I #
point $-1 44.943550363716767 -28.82466052870204 3.9552717488738138 #
plane-surface $-1 64.479506820886868 0 0 -1 0 0 0 0 1 forward_v I I I I #
coedge $-1 $476 $474 $478 $623 reversed $341 $-1 #
edge $-1 $489 -6.7952584864302432 $625 6.7952584864302432 $488 $694 forward 7 unknown #
vertex $-1 $623 $695 #
straight-curve $-1 -64.479506820886868 -30.53109665906015 0 0 0 -1 I I #
edge $-1 $621 -30.53109665906015 $625 30.53109665906015 $619 $696 forward 7 unknown #
straight-curve $-1 0 -30.53109665906015 -6.7952584864302432 -1 0 0 I I #
vertex $-1 $481 $697 #
straight-curve $-1 0 30.53109665906015 -6.7952584864302432 1 0 0 I I #
point $-1 64.479506820886868 30.53109665906015 -6.7952584864302432 #
point $-1 64.479506820886868 -30.53109665906015 -6.7952584864302432 #
straight-curve $-1 -64.479506820886868 0 6.7952584864302432 0 -1 0 I I #
point $-1 -64.479506820886868 30.53109665906015 6.7952584864302432 #
point $-1 -64.479506820886868 -30.53109665906015 6.7952584864302432 #
straight-curve $-1 64.479506820886868 -30.53109665906015 0 0 0 -1 I I #
straight-curve $-1 64.479506820886868 30.53109665906015 0 0 0 -1 I I #
edge $-1 $635 26.97178424263172 $638 32.651757717744538 $499 $698 forward 7 unknown #
vertex $-1 $513 $699 #
straight-curve $-1 -46.869499602035084 -70.535273646982304 6.7952584864302423 0 -1 0 I I #
edge $-1 $638 -27.092186348915455 $510 -12.462440157323805 $509 $700 forward 7 unknown #
vertex $-1 $637 $701 #
straight-curve $-1 -46.869499602035084 -30.531096659060168 1.1152850113173969 0 0.51503806187062418 0.85716730853699208 I I #
point $-1 -46.869499602035084 -27.118224398343955 6.7952584864302432 #
point $-1 -32.239753410443434 -30.53109665906015 1.1152850113174264 #
straight-curve $-1 0 -30.53109665906015 6.7952584864302432 1 0 0 I I #
vertex $-1 $516 $702 #
point $-1 -42.943550363716753 -25.530660239051539 1.9760367639576175 #
vertex $-1 $520 $703 #
point $-1 -38.554626506239259 -25.530660239051539 1.9760367639576175 #
vertex $-1 $524 $704 #
point $-1 -34.165702648761766 -25.530660239051539 1.9760367639576175 #
edge $-1 $650 26.97178424263172 $653 32.651757717744538 $529 $705 forward 7 unknown #
vertex $-1 $543 $706 #
straight-curve $-1 -20.499748597875573 -70.535273646982304 6.7952584864302423 0 -1 0 I I #
edge $-1 $653 -13.907310846835699 $540 0.72243534475594906 $539 $707 forward 7 unknown #
vertex $-1 $652 $708 #
straight-curve $-1 -20.499748597875573 -30.531096659060168 1.1152850113173969 0 0.51503806187062418 0.85716730853699208 I I #
point $-1 -20.499748597875573 -27.118224398343955 6.7952584864302432 #
point $-1 -5.8700024062839251 -30.53109665906015 1.1152850113174264 #
straight-curve $-1 0 -30.53109665906015 6.7952584864302432 1 0 0 I I #
vertex $-1 $546 $709 #
point $-1 -16.573799359557242 -25.530660239051539 1.9760367639576175 #
vertex $-1 $550 $710 #
point $-1 -12.184875502079748 -25.530660239051539 1.9760367639576175 #
vertex $-1 $554 $711 #
point $-1 -7.7959516446022548 -25.530660239051539 1.9760367639576175 #
edge $-1 $665 26.97178424263172 $668 32.651757717744538 $559 $712 forward 7 unknown #
vertex $-1 $573 $713 #
straight-curve $-1 5.8700024062839393 -70.535273646982304 6.7952584864302423 0 -1 0 I I #
edge $-1 $668 -0.72243534475594195 $570 13.907310846835706 $569 $714 forward 7 unknown #
vertex $-1 $667 $715 #
straight-curve $-1 5.8700024062839393 -30.531096659060168 1.1152850113173969 0 0.51503806187062418 0.85716730853699208 I I #
point $-1 5.8700024062839393 -27.118224398343955 6.7952584864302432 #
point $-1 20.499748597875588 -30.53109665906015 1.1152850113174264 #
straight-curve $-1 0 -30.53109665906015 6.7952584864302432 1 0 0 I I #
vertex $-1 $576 $716 #
point $-1 9.795951644602269 -25.530660239051539 1.9760367639576175 #
vertex $-1 $580 $717 #
point $-1 14.184875502079763 -25.530660239051539 1.9760367639576175 #
vertex $-1 $584 $718 #
point $-1 18.573799359557256 -25.530660239051539 1.9760367639576175 #
edge $-1 $680 26.97178424263172 $683 32.651757717744538 $589 $719 forward 7 unknown #
vertex $-1 $603 $720 #
straight-curve $-1 32.239753410443448 -70.535273646982304 6.7952584864302423 0 -1 0 I I #
edge $-1 $683 12.462440157323812 $600 27.092186348915462 $599 $721 forward 7 unknown #
vertex $-1 $682 $722 #
straight-curve $-1 32.239753410443448 -30.531096659060168 1.1152850113173969 0 0.51503806187062418 0.85716730853699208 I I #
point $-1 32.239753410443448 -27.118224398343955 6.7952584864302432 #
point $-1 46.869499602035098 -30.53109665906015 1.1152850113174264 #
straight-curve $-1 0 -30.53109665906015 6.7952584864302432 1 0 0 I I #
vertex $-1 $606 $723 #
point $-1 36.16570264876178 -25.530660239051539 1.9760367639576175 #
vertex $-1 $610 $724 #
point $-1 40.554626506239273 -25.530660239051539 1.9760367639576175 #
vertex $-1 $614 $725 #
point $-1 44.943550363716767 -25.530660239051539 1.9760367639576175 #
straight-curve $-1 -64.479506820886868 30.53109665906015 0 0 0 -1 I I #
point $-1 -64.479506820886868 -30.53109665906015 -6.7952584864302432 #
straight-curve $-1 -64.479506820886868 0 -6.7952584864302432 0 1 0 I I #
point $-1 -64.479506820886868 30.53109665906015 -6.7952584864302432 #
straight-curve $-1 -46.869499602035084 -30.531096659060154 33.767042729061963 0 0 -1 I I #
point $-1 -46.869499602035084 -30.53109665906015 6.7952584864302432 #
straight-curve $-1 -19.77731325311963 -30.53109665906015 1.1152850113174286 1 0 0 I I #
point $-1 -46.869499602035084 -30.53109665906015 1.1152850113174264 #
point $-1 -43.943550363716753 -24.673492930514545 1.4609987020869932 #
point $-1 -39.554626506239259 -24.673492930514545 1.4609987020869932 #
point $-1 -35.165702648761766 -24.673492930514545 1.4609987020869932 #
straight-curve $-1 -20.499748597875573 -30.531096659060154 33.767042729061963 0 0 -1 I I #
point $-1 -20.499748597875573 -30.53109665906015 6.7952584864302432 #
straight-curve $-1 -6.5924377510398742 -30.53109665906015 1.1152850113174286 1 0 0 I I #
point $-1 -20.499748597875573 -30.53109665906015 1.1152850113174264 #
point $-1 -17.573799359557242 -24.673492930514545 1.4609987020869932 #
point $-1 -13.184875502079748 -24.673492930514545 1.4609987020869932 #
point $-1 -8.7959516446022548 -24.673492930514545 1.4609987020869932 #
straight-curve $-1 5.8700024062839393 -30.531096659060154 33.767042729061963 0 0 -1 I I #
point $-1 5.8700024062839393 -30.53109665906015 6.7952584864302432 #
straight-curve $-1 6.5924377510398813 -30.53109665906015 1.1152850113174286 1 0 0 I I #
point $-1 5.8700024062839393 -30.53109665906015 1.1152850113174264 #
point $-1 8.795951644602269 -24.673492930514545 1.4609987020869932 #
point $-1 13.184875502079763 -24.673492930514545 1.4609987020869932 #
point $-1 17.573799359557256 -24.673492930514545 1.4609987020869932 #
straight-curve $-1 32.239753410443448 -30.531096659060154 33.767042729061963 0 0 -1 I I #
point $-1 32.239753410443448 -30.53109665906015 6.7952584864302432 #
straight-curve $-1 19.777313253119637 -30.53109665906015 1.1152850113174286 1 0 0 I I #
point $-1 32.239753410443448 -30.53109665906015 1.1152850113174264 #
point $-1 35.16570264876178 -24.673492930514545 1.4609987020869932 #
point $-1 39.554626506239273 -24.673492930514545 1.4609987020869932 #
point $-1 43.943550363716767 -24.673492930514545 1.4609987020869932 #
End-of-ACIS-data 