500 0 14 0           
7 Unknown 11 ACIS 5.0 NT 24 Thu Mar 25 19:06:00 1999 
-1 9.9999999999999995e-007 1e-010 
body $-1 $14 $-1 $15 #
body $-1 $16 $-1 $17 #
body $-1 $18 $-1 $19 #
body $-1 $20 $-1 $21 #
body $-1 $22 $-1 $23 #
body $-1 $24 $-1 $25 #
body $-1 $26 $-1 $27 #
body $-1 $28 $-1 $29 #
body $-1 $30 $-1 $31 #
body $-1 $32 $-1 $33 #
body $-1 $34 $-1 $35 #
body $-1 $36 $-1 $37 #
body $-1 $38 $-1 $39 #
body $-1 $40 $-1 $41 #
lump $-1 $-1 $42 $0 #
transform $-1 1 0 0 0 1 0 0 0 1 44.405652027954957 23.028003830677871 10.11195511086485 1 rotate no_reflect no_shear #
lump $-1 $-1 $43 $1 #
transform $-1 1 0 0 0 1 0 0 0 1 44.405652027954957 23.028003830677871 10.11195511086485 1 rotate no_reflect no_shear #
lump $-1 $-1 $44 $2 #
transform $-1 1 0 0 0 1 0 0 0 1 44.405652027954957 23.028003830677871 10.11195511086485 1 rotate no_reflect no_shear #
lump $-1 $-1 $45 $3 #
transform $-1 1 0 0 0 1 0 0 0 1 44.405652027954957 23.028003830677871 10.11195511086485 1 rotate no_reflect no_shear #
lump $-1 $-1 $46 $4 #
transform $-1 1 0 0 0 1 0 0 0 1 44.405652027954957 23.028003830677871 10.11195511086485 1 rotate no_reflect no_shear #
lump $-1 $-1 $47 $5 #
transform $-1 1 0 0 0 1 0 0 0 1 44.405652027954957 23.028003830677871 10.11195511086485 1 rotate no_reflect no_shear #
lump $-1 $-1 $48 $6 #
transform $-1 1 0 0 0 1 0 0 0 1 44.405652027954957 23.028003830677871 10.11195511086485 1 rotate no_reflect no_shear #
lump $-1 $-1 $49 $7 #
transform $-1 1 0 0 0 1 0 0 0 1 44.405652027954957 23.028003830677871 10.11195511086485 1 rotate no_reflect no_shear #
lump $-1 $-1 $50 $8 #
transform $-1 1 0 0 0 1 0 0 0 1 44.405652027954957 23.028003830677871 10.11195511086485 1 rotate no_reflect no_shear #
lump $-1 $-1 $51 $9 #
transform $-1 1 0 0 0 1 0 0 0 1 44.405652027954957 23.028003830677871 10.11195511086485 1 rotate no_reflect no_shear #
lump $-1 $-1 $52 $10 #
transform $-1 1 0 0 0 1 0 0 0 1 44.405652027954957 23.028003830677871 10.11195511086485 1 rotate no_reflect no_shear #
lump $-1 $-1 $53 $11 #
transform $-1 1 0 0 0 1 0 0 0 1 44.405652027954957 23.028003830677871 10.11195511086485 1 rotate no_reflect no_shear #
lump $-1 $-1 $54 $12 #
transform $-1 1 0 0 0 1 0 0 0 1 44.405652027954957 23.028003830677871 10.11195511086485 1 rotate no_reflect no_shear #
lump $-1 $-1 $55 $13 #
transform $-1 1 0 0 0 1 0 0 0 1 44.405652027954957 23.028003830677871 10.11195511086485 1 rotate no_reflect no_shear #
shell $-1 $-1 $-1 $56 $-1 $14 #
shell $-1 $-1 $-1 $57 $-1 $16 #
shell $-1 $-1 $-1 $58 $-1 $18 #
shell $-1 $-1 $-1 $59 $-1 $20 #
shell $-1 $-1 $-1 $60 $-1 $22 #
shell $-1 $-1 $-1 $61 $-1 $24 #
shell $-1 $-1 $-1 $62 $-1 $26 #
shell $-1 $-1 $-1 $63 $-1 $28 #
shell $-1 $-1 $-1 $64 $-1 $30 #
shell $-1 $-1 $-1 $65 $-1 $32 #
shell $-1 $-1 $-1 $66 $-1 $34 #
shell $-1 $-1 $-1 $67 $-1 $36 #
shell $-1 $-1 $-1 $68 $-1 $38 #
shell $-1 $-1 $-1 $69 $-1 $40 #
face $-1 $70 $71 $42 $-1 $72 reversed single #
face $-1 $73 $74 $43 $-1 $75 forward single #
face $-1 $76 $77 $44 $-1 $78 reversed single #
face $-1 $79 $80 $45 $-1 $81 forward single #
face $-1 $82 $83 $46 $-1 $84 forward single #
face $-1 $85 $86 $47 $-1 $87 reversed single #
face $-1 $88 $89 $48 $-1 $90 forward single #
face $-1 $91 $92 $49 $-1 $93 forward single #
face $-1 $94 $95 $50 $-1 $96 reversed single #
face $-1 $97 $98 $51 $-1 $99 forward single #
face $-1 $100 $101 $52 $-1 $102 forward single #
face $-1 $103 $104 $53 $-1 $105 reversed single #
face $-1 $106 $107 $54 $-1 $108 forward single #
face $-1 $109 $110 $55 $-1 $111 forward single #
face $-1 $112 $113 $42 $-1 $114 forward single #
loop $-1 $-1 $115 $56 #
plane-surface $-1 0 -23.028003830677871 0 0 1 0 0 0 1 forward_v I I I I #
face $-1 $116 $117 $43 $-1 $118 forward single #
loop $-1 $-1 $119 $57 #
plane-surface $-1 0 -23.028003830677871 0 0 1 0 0 0 1 forward_v I I I I #
face $-1 $120 $121 $44 $-1 $122 reversed single #
loop $-1 $-1 $123 $58 #
plane-surface $-1 -96.607627455794827 -7.2570517723656964 73.655027612254983 0 1 0 -0.5877852598018023 0 0.80901698891910034 forward_v I I I I #
face $-1 $124 $125 $45 $-1 $126 forward single #
loop $-1 $127 $128 $59 #
cone-surface $-1 -37.600341037901977 -4.7868900856566654 4.4601535034295017 0.5877852598018023 0 -0.80901698891910034 0.80901698891910034 0 0.5877852598018023 1 I I 0 1 1 forward I I I I #
face $-1 $129 $130 $46 $-1 $131 forward single #
loop $-1 $132 $133 $60 #
cone-surface $-1 -37.600341037901977 -1.0816475555931149 4.4601535034295017 0.5877852598018023 0 -0.80901698891910034 0.80901698891910034 0 0.5877852598018023 1 I I 0 1 1 forward I I I I #
face $-1 $134 $135 $47 $-1 $136 reversed single #
loop $-1 $-1 $137 $61 #
plane-surface $-1 -96.607627455794827 8.0262601420689101 73.655027612254983 0 1 0 -0.5877852598018023 0 0.80901698891910034 forward_v I I I I #
face $-1 $138 $139 $48 $-1 $140 forward single #
loop $-1 $141 $142 $62 #
cone-surface $-1 -37.600341037901977 10.496421828777937 4.4601535034295017 0.5877852598018023 0 -0.80901698891910034 0.80901698891910034 0 0.5877852598018023 1 I I 0 1 1 forward I I I I #
face $-1 $143 $144 $49 $-1 $145 forward single #
loop $-1 $146 $147 $63 #
cone-surface $-1 -37.600341037901977 14.201664358841487 4.4601535034295017 0.5877852598018023 0 -0.80901698891910034 0.80901698891910034 0 0.5877852598018023 1 I I 0 1 1 forward I I I I #
face $-1 $148 $149 $50 $-1 $150 reversed single #
loop $-1 $-1 $151 $64 #
plane-surface $-1 24.757773666503923 1.3885141311159162 125.85700304009485 0 -1 0 -0.5877852598018023 0 -0.80901698891910034 forward_v I I I I #
face $-1 $152 $153 $51 $-1 $154 forward single #
loop $-1 $155 $156 $65 #
cone-surface $-1 37.600341037901977 -4.7868900856566654 4.460153503429507 -0.5877852598018023 0 -0.80901698891910034 0.80901698891910034 0 -0.5877852598018023 1 I I 0 1 1 forward I I I I #
face $-1 $157 $158 $52 $-1 $159 forward single #
loop $-1 $160 $161 $66 #
cone-surface $-1 37.600341037901977 -1.0816475555931149 4.460153503429507 -0.5877852598018023 0 -0.80901698891910034 0.80901698891910034 0 -0.5877852598018023 1 I I 0 1 1 forward I I I I #
face $-1 $162 $163 $53 $-1 $164 reversed single #
loop $-1 $-1 $165 $67 #
plane-surface $-1 24.757773666503923 16.671826045550521 125.85700304009485 0 -1 0 -0.5877852598018023 0 -0.80901698891910034 forward_v I I I I #
face $-1 $166 $167 $54 $-1 $168 forward single #
loop $-1 $169 $170 $68 #
cone-surface $-1 37.600341037901977 10.496421828777937 4.460153503429507 -0.5877852598018023 0 -0.80901698891910034 0.80901698891910034 0 -0.5877852598018023 1 I I 0 1 1 forward I I I I #
face $-1 $171 $172 $55 $-1 $173 forward single #
loop $-1 $174 $175 $69 #
cone-surface $-1 37.600341037901977 14.201664358841487 4.460153503429507 -0.5877852598018023 0 -0.80901698891910034 0.80901698891910034 0 -0.5877852598018023 1 I I 0 1 1 forward I I I I #
face $-1 $176 $177 $42 $-1 $178 reversed single #
loop $-1 $-1 $179 $70 #
plane-surface $-1 0 0 10.11195511086485 0 0 1 1 0 0 forward_v I I I I #
coedge $-1 $180 $181 $182 $183 reversed $71 $-1 #
face $-1 $184 $185 $43 $-1 $186 reversed single #
loop $-1 $-1 $187 $73 #
plane-surface $-1 0 0 10.11195511086485 0 0 1 1 0 0 forward_v I I I I #
coedge $-1 $188 $189 $190 $191 forward $74 $-1 #
face $-1 $192 $193 $44 $-1 $194 reversed single #
loop $-1 $-1 $195 $76 #
plane-surface $-1 -44.405652027954957 -2.9342688206248901 1.8051738229640648 -0.5877852598018023 0 0.80901698891910034 0.80901698891910034 0 0.5877852598018023 forward_v I I I I #
coedge $-1 $196 $197 $198 $199 reversed $77 $-1 #
face $-1 $-1 $200 $45 $-1 $201 forward single #
loop $-1 $202 $203 $79 #
cone-surface $-1 -36.217789097349765 -4.7868900856566654 2.5572340454850035 0.5877852598018023 0 -0.80901698891910034 0.40450849445955017 0 0.29389262990090115 1 I I -0.70710678118654746 0.70710678118654746 0.5 forward I I I I #
loop $-1 $-1 $204 $59 #
coedge $-1 $128 $128 $205 $206 reversed $80 $-1 #
face $-1 $-1 $207 $46 $-1 $208 forward single #
loop $-1 $209 $210 $82 #
cone-surface $-1 -36.217789097349765 -1.0816475555931149 2.5572340454850035 0.5877852598018023 0 -0.80901698891910034 0.40450849445955017 0 0.29389262990090115 1 I I -0.70710678118654746 0.70710678118654746 0.5 forward I I I I #
loop $-1 $-1 $211 $60 #
coedge $-1 $133 $133 $212 $213 reversed $83 $-1 #
face $-1 $214 $215 $47 $-1 $216 reversed single #
loop $-1 $-1 $217 $85 #
plane-surface $-1 -44.405652027954957 12.349043093809716 1.8051738229640648 -0.5877852598018023 0 0.80901698891910034 0.80901698891910034 0 0.5877852598018023 forward_v I I I I #
coedge $-1 $218 $219 $220 $221 reversed $86 $-1 #
face $-1 $-1 $222 $48 $-1 $223 forward single #
loop $-1 $224 $225 $88 #
cone-surface $-1 -36.217789097349765 10.496421828777937 2.5572340454850035 0.5877852598018023 0 -0.80901698891910034 0.40450849445955017 0 0.29389262990090115 1 I I -0.70710678118654746 0.70710678118654746 0.5 forward I I I I #
loop $-1 $-1 $226 $62 #
coedge $-1 $142 $142 $227 $228 reversed $89 $-1 #
face $-1 $-1 $229 $49 $-1 $230 forward single #
loop $-1 $231 $232 $91 #
cone-surface $-1 -36.217789097349765 14.201664358841487 2.5572340454850035 0.5877852598018023 0 -0.80901698891910034 0.40450849445955017 0 0.29389262990090115 1 I I -0.70710678118654746 0.70710678118654746 0.5 forward I I I I #
loop $-1 $-1 $233 $63 #
coedge $-1 $147 $147 $234 $235 reversed $92 $-1 #
face $-1 $236 $237 $50 $-1 $238 reversed single #
loop $-1 $-1 $239 $94 #
plane-surface $-1 -27.444201761335947 -2.9342688206248901 54.007149250803934 0.5877852598018023 0 0.80901698891910034 0.80901698891910034 0 -0.5877852598018023 forward_v I I I I #
coedge $-1 $240 $241 $242 $243 reversed $95 $-1 #
face $-1 $-1 $244 $51 $-1 $245 forward single #
loop $-1 $246 $247 $97 #
cone-surface $-1 36.217789097349765 -4.7868900856566654 2.5572340454850089 -0.5877852598018023 0 -0.80901698891910034 0.40450849445955017 0 -0.29389262990090115 1 I I -0.70710678118654746 0.70710678118654746 0.5 forward I I I I #
loop $-1 $-1 $248 $65 #
coedge $-1 $156 $156 $249 $250 reversed $98 $-1 #
face $-1 $-1 $251 $52 $-1 $252 forward single #
loop $-1 $253 $254 $100 #
cone-surface $-1 36.217789097349765 -1.0816475555931149 2.5572340454850089 -0.5877852598018023 0 -0.80901698891910034 0.40450849445955017 0 -0.29389262990090115 1 I I -0.70710678118654746 0.70710678118654746 0.5 forward I I I I #
loop $-1 $-1 $255 $66 #
coedge $-1 $161 $161 $256 $257 reversed $101 $-1 #
face $-1 $258 $259 $53 $-1 $260 reversed single #
loop $-1 $-1 $261 $103 #
plane-surface $-1 -27.444201761335947 12.349043093809716 54.007149250803934 0.5877852598018023 0 0.80901698891910034 0.80901698891910034 0 -0.5877852598018023 forward_v I I I I #
coedge $-1 $262 $263 $264 $265 reversed $104 $-1 #
face $-1 $-1 $266 $54 $-1 $267 forward single #
loop $-1 $268 $269 $106 #
cone-surface $-1 36.217789097349765 10.496421828777937 2.5572340454850089 -0.5877852598018023 0 -0.80901698891910034 0.40450849445955017 0 -0.29389262990090115 1 I I -0.70710678118654746 0.70710678118654746 0.5 forward I I I I #
loop $-1 $-1 $270 $68 #
coedge $-1 $170 $170 $271 $272 reversed $107 $-1 #
face $-1 $-1 $273 $55 $-1 $274 forward single #
loop $-1 $275 $276 $109 #
cone-surface $-1 36.217789097349765 14.201664358841487 2.5572340454850089 -0.5877852598018023 0 -0.80901698891910034 0.40450849445955017 0 -0.29389262990090115 1 I I -0.70710678118654746 0.70710678118654746 0.5 forward I I I I #
loop $-1 $-1 $277 $69 #
coedge $-1 $175 $175 $278 $279 reversed $110 $-1 #
face $-1 $280 $281 $42 $-1 $282 reversed single #
loop $-1 $-1 $283 $112 #
plane-surface $-1 0 0 -10.11195511086485 0 0 1 1 0 0 forward_v I I I I #
coedge $-1 $284 $285 $286 $287 forward $113 $-1 #
coedge $-1 $288 $115 $289 $290 reversed $71 $-1 #
coedge $-1 $115 $288 $291 $292 forward $71 $-1 #
coedge $-1 $293 $283 $115 $183 forward $177 $-1 #
edge $-1 $294 -44.405652027954957 $295 44.405652027954957 $115 $296 forward 7 unknown #
face $-1 $297 $298 $43 $-1 $299 reversed single #
loop $-1 $-1 $300 $116 #
plane-surface $-1 -44.405652027954957 0 0 1 0 0 0 0 -1 forward_v I I I I #
coedge $-1 $301 $302 $189 $303 forward $117 $-1 #
coedge $-1 $304 $119 $305 $306 reversed $74 $-1 #
coedge $-1 $119 $304 $187 $303 reversed $74 $-1 #
coedge $-1 $307 $308 $119 $191 reversed $309 $-1 #
edge $-1 $310 -10.11195511086485 $311 10.11195511086485 $190 $312 forward 7 unknown #
face $-1 $313 $314 $44 $-1 $315 reversed single #
loop $-1 $-1 $316 $120 #
plane-surface $-1 -96.607627455794827 1.3885141311159162 73.655027612254983 0 -1 0 0.5877852598018023 0 -0.80901698891910034 forward_v I I I I #
coedge $-1 $317 $318 $319 $320 reversed $121 $-1 #
coedge $-1 $197 $123 $321 $322 reversed $77 $-1 #
coedge $-1 $123 $196 $317 $323 reversed $77 $-1 #
coedge $-1 $319 $324 $123 $199 forward $325 $-1 #
edge $-1 $326 3.898161699942456 $327 15.331465058745763 $198 $328 forward 7 unknown #
loop $-1 $-1 $205 $124 #
plane-surface $-1 -44.405652027954957 -2.9342688206248901 1.8051738229640648 -0.5877852598018023 0 0.80901698891910034 0.80901698891910034 0 0.5877852598018023 forward_v I I I I #
loop $-1 $-1 $329 $79 #
coedge $-1 $203 $203 $204 $330 reversed $125 $-1 #
coedge $-1 $204 $204 $203 $330 forward $127 $-1 #
coedge $-1 $205 $205 $128 $206 forward $200 $-1 #
edge $-1 $331 0 $331 6.2831853071796004 $205 $332 forward 7 unknown #
loop $-1 $-1 $212 $129 #
plane-surface $-1 -44.405652027954957 -2.9342688206248901 1.8051738229640648 -0.5877852598018023 0 0.80901698891910034 0.80901698891910034 0 0.5877852598018023 forward_v I I I I #
loop $-1 $-1 $333 $82 #
coedge $-1 $210 $210 $211 $334 reversed $130 $-1 #
coedge $-1 $211 $211 $210 $334 forward $132 $-1 #
coedge $-1 $212 $212 $133 $213 forward $207 $-1 #
edge $-1 $335 0 $335 6.2831853071796004 $212 $336 forward 7 unknown #
face $-1 $337 $338 $47 $-1 $339 forward single #
loop $-1 $-1 $340 $134 #
plane-surface $-1 -96.607627455794827 16.671826045550521 73.655027612254983 0 -1 0 0.5877852598018023 0 -0.80901698891910034 forward_v I I I I #
coedge $-1 $341 $342 $343 $344 reversed $135 $-1 #
coedge $-1 $219 $137 $345 $346 reversed $86 $-1 #
coedge $-1 $137 $218 $341 $347 reversed $86 $-1 #
coedge $-1 $343 $348 $137 $221 forward $338 $-1 #
edge $-1 $349 3.898161699942456 $350 15.331465058745763 $220 $351 forward 7 unknown #
loop $-1 $-1 $227 $138 #
plane-surface $-1 -44.405652027954957 12.349043093809716 1.8051738229640648 -0.5877852598018023 0 0.80901698891910034 0.80901698891910034 0 0.5877852598018023 forward_v I I I I #
loop $-1 $-1 $352 $88 #
coedge $-1 $225 $225 $226 $353 reversed $139 $-1 #
coedge $-1 $226 $226 $225 $353 forward $141 $-1 #
coedge $-1 $227 $227 $142 $228 forward $222 $-1 #
edge $-1 $354 0 $354 6.2831853071796004 $227 $355 forward 7 unknown #
loop $-1 $-1 $234 $143 #
plane-surface $-1 -44.405652027954957 12.349043093809716 1.8051738229640648 -0.5877852598018023 0 0.80901698891910034 0.80901698891910034 0 0.5877852598018023 forward_v I I I I #
loop $-1 $-1 $356 $91 #
coedge $-1 $232 $232 $233 $357 reversed $144 $-1 #
coedge $-1 $233 $233 $232 $357 forward $146 $-1 #
coedge $-1 $234 $234 $147 $235 forward $229 $-1 #
edge $-1 $358 0 $358 6.2831853071796004 $234 $359 forward 7 unknown #
face $-1 $360 $361 $50 $-1 $362 forward single #
loop $-1 $-1 $363 $148 #
plane-surface $-1 24.757773666503923 -7.2570517723656964 125.85700304009485 0 1 0 0.5877852598018023 0 0.80901698891910034 forward_v I I I I #
coedge $-1 $364 $365 $366 $367 reversed $149 $-1 #
coedge $-1 $241 $151 $368 $369 reversed $95 $-1 #
coedge $-1 $151 $240 $364 $370 reversed $95 $-1 #
coedge $-1 $366 $371 $151 $243 forward $361 $-1 #
edge $-1 $372 -32.026765194702996 $373 -20.59346183589971 $242 $374 forward 7 unknown #
loop $-1 $-1 $249 $152 #
plane-surface $-1 -27.444201761335947 -2.9342688206248901 54.007149250803934 0.5877852598018023 0 0.80901698891910034 0.80901698891910034 0 -0.5877852598018023 forward_v I I I I #
loop $-1 $-1 $375 $97 #
coedge $-1 $247 $247 $248 $376 reversed $153 $-1 #
coedge $-1 $248 $248 $247 $376 forward $155 $-1 #
coedge $-1 $249 $249 $156 $250 forward $244 $-1 #
edge $-1 $377 0 $377 6.2831853071796004 $249 $378 forward 7 unknown #
loop $-1 $-1 $256 $157 #
plane-surface $-1 -27.444201761335947 -2.9342688206248901 54.007149250803934 0.5877852598018023 0 0.80901698891910034 0.80901698891910034 0 -0.5877852598018023 forward_v I I I I #
loop $-1 $-1 $379 $100 #
coedge $-1 $254 $254 $255 $380 reversed $158 $-1 #
coedge $-1 $255 $255 $254 $380 forward $160 $-1 #
coedge $-1 $256 $256 $161 $257 forward $251 $-1 #
edge $-1 $381 0 $381 6.2831853071796004 $256 $382 forward 7 unknown #
face $-1 $383 $384 $53 $-1 $385 reversed single #
loop $-1 $-1 $386 $162 #
plane-surface $-1 24.757773666503923 8.0262601420689101 125.85700304009485 0 1 0 0.5877852598018023 0 0.80901698891910034 forward_v I I I I #
coedge $-1 $387 $388 $389 $390 reversed $163 $-1 #
coedge $-1 $263 $165 $391 $392 reversed $104 $-1 #
coedge $-1 $165 $262 $387 $393 reversed $104 $-1 #
coedge $-1 $389 $394 $165 $265 forward $395 $-1 #
edge $-1 $396 -32.026765194702996 $397 -20.59346183589971 $264 $398 forward 7 unknown #
loop $-1 $-1 $271 $166 #
plane-surface $-1 -27.444201761335947 12.349043093809716 54.007149250803934 0.5877852598018023 0 0.80901698891910034 0.80901698891910034 0 -0.5877852598018023 forward_v I I I I #
loop $-1 $-1 $399 $106 #
coedge $-1 $269 $269 $270 $400 reversed $167 $-1 #
coedge $-1 $270 $270 $269 $400 forward $169 $-1 #
coedge $-1 $271 $271 $170 $272 forward $266 $-1 #
edge $-1 $401 0 $401 6.2831853071796004 $271 $402 forward 7 unknown #
loop $-1 $-1 $278 $171 #
plane-surface $-1 -27.444201761335947 12.349043093809716 54.007149250803934 0.5877852598018023 0 0.80901698891910034 0.80901698891910034 0 -0.5877852598018023 forward_v I I I I #
loop $-1 $-1 $403 $109 #
coedge $-1 $276 $276 $277 $404 reversed $172 $-1 #
coedge $-1 $277 $277 $276 $404 forward $174 $-1 #
coedge $-1 $278 $278 $175 $279 forward $273 $-1 #
edge $-1 $405 0 $405 6.2831853071796004 $278 $406 forward 7 unknown #
face $-1 $407 $408 $42 $-1 $409 reversed single #
loop $-1 $-1 $410 $176 #
plane-surface $-1 -44.405652027954957 0 0 1 0 0 0 0 -1 forward_v I I I I #
coedge $-1 $182 $411 $412 $413 forward $177 $-1 #
coedge $-1 $414 $179 $415 $416 forward $113 $-1 #
coedge $-1 $179 $414 $288 $417 forward $113 $-1 #
coedge $-1 $289 $418 $179 $287 reversed $419 $-1 #
edge $-1 $420 -23.028003830677871 $421 23.028003830677871 $286 $422 forward 7 unknown #
coedge $-1 $181 $180 $285 $417 reversed $71 $-1 #
coedge $-1 $412 $286 $180 $290 forward $419 $-1 #
edge $-1 $420 -10.11195511086485 $294 10.11195511086485 $289 $423 forward 7 unknown #
coedge $-1 $424 $425 $181 $292 reversed $281 $-1 #
edge $-1 $426 -10.11195511086485 $295 10.11195511086485 $291 $427 forward 7 unknown #
coedge $-1 $411 $182 $425 $428 forward $177 $-1 #
vertex $-1 $290 $429 #
vertex $-1 $428 $430 #
straight-curve $-1 0 -23.028003830677871 -10.11195511086485 -1 0 0 I I #
face $-1 $431 $309 $43 $-1 $432 reversed single #
loop $-1 $-1 $433 $184 #
plane-surface $-1 -42.799719132009962 -32.442778103862693 0 0 1 0 0 0 1 forward_v I I I I #
coedge $-1 $434 $435 $304 $436 forward $185 $-1 #
coedge $-1 $437 $187 $435 $438 forward $117 $-1 #
coedge $-1 $187 $437 $307 $439 forward $117 $-1 #
edge $-1 $310 41.193786236064966 $440 44.405652027954957 $187 $441 forward 7 unknown #
coedge $-1 $189 $188 $300 $436 reversed $74 $-1 #
coedge $-1 $442 $443 $188 $306 forward $444 $-1 #
edge $-1 $445 -44.405652027954957 $311 -41.193786236064966 $305 $446 forward 7 unknown #
coedge $-1 $447 $190 $302 $439 reversed $309 $-1 #
coedge $-1 $190 $447 $442 $448 reversed $309 $-1 #
loop $-1 $-1 $447 $297 #
vertex $-1 $303 $449 #
vertex $-1 $448 $450 #
straight-curve $-1 -41.193786236064966 -23.028003830677871 0 0 0 -1 I I #
face $-1 $-1 $325 $44 $-1 $451 forward single #
loop $-1 $-1 $452 $192 #
plane-surface $-1 -44.405652027954957 0 0 1 0 0 0 0 -1 forward_v I I I I #
coedge $-1 $453 $454 $455 $456 reversed $193 $-1 #
coedge $-1 $457 $195 $197 $323 forward $121 $-1 #
coedge $-1 $195 $457 $453 $458 forward $121 $-1 #
coedge $-1 $455 $198 $195 $320 forward $325 $-1 #
edge $-1 $327 -5.7899173620532514 $459 2.8556485414283612 $319 $460 forward 7 unknown #
coedge $-1 $461 $462 $196 $322 forward $314 $-1 #
edge $-1 $463 -35.022339983163427 $326 -26.715558695262644 $321 $464 forward 7 unknown #
edge $-1 $327 -14.132340254163202 $463 0 $197 $465 forward 7 unknown #
coedge $-1 $198 $455 $461 $466 forward $325 $-1 #
loop $-1 $-1 $455 $313 #
vertex $-1 $322 $467 #
vertex $-1 $199 $468 #
straight-curve $-1 -48.303813727897413 -7.2570517723656964 10.111955110864848 1 0 0 I I #
coedge $-1 $329 $329 $-1 $469 reversed $202 $-1 #
edge $-1 $470 0 $470 6.2831853071796004 $203 $471 forward 7 unknown #
vertex $-1 $206 $472 #
ellipse-curve $-1 -38.6890003485533 -4.7868900856566654 5.9585644669144617 -0.5877852598018023 0 0.80901698891910034 0.80901698891910034 0 0.5877852598018023 1 I I #
coedge $-1 $333 $333 $-1 $473 reversed $209 $-1 #
edge $-1 $474 0 $474 6.2831853071796004 $210 $475 forward 7 unknown #
vertex $-1 $213 $476 #
ellipse-curve $-1 -38.6890003485533 -1.0816475555931149 5.9585644669144617 -0.5877852598018023 0 0.80901698891910034 0.80901698891910034 0 0.5877852598018023 1 I I #
face $-1 $-1 $477 $47 $-1 $478 reversed single #
loop $-1 $-1 $220 $214 #
plane-surface $-1 0 0 10.11195511086485 0 0 1 1 0 0 forward_v I I I I #
coedge $-1 $479 $480 $481 $482 reversed $215 $-1 #
coedge $-1 $483 $217 $219 $347 forward $135 $-1 #
coedge $-1 $217 $483 $479 $484 forward $135 $-1 #
coedge $-1 $481 $220 $217 $344 forward $338 $-1 #
edge $-1 $350 1.8517385951640524 $485 10.497304498645663 $343 $486 forward 7 unknown #
coedge $-1 $487 $488 $218 $346 forward $477 $-1 #
edge $-1 $489 -35.022339983163427 $349 -26.715558695262644 $345 $490 forward 7 unknown #
edge $-1 $350 -14.132340254163202 $489 0 $219 $491 forward 7 unknown #
coedge $-1 $220 $481 $487 $492 forward $338 $-1 #
vertex $-1 $346 $493 #
vertex $-1 $221 $494 #
straight-curve $-1 -48.303813727897413 8.0262601420689101 10.111955110864848 1 0 0 I I #
coedge $-1 $352 $352 $-1 $495 reversed $224 $-1 #
edge $-1 $496 0 $496 6.2831853071796004 $225 $497 forward 7 unknown #
vertex $-1 $228 $498 #
ellipse-curve $-1 -38.6890003485533 10.496421828777937 5.9585644669144617 -0.5877852598018023 0 0.80901698891910034 0.80901698891910034 0 0.5877852598018023 1 I I #
coedge $-1 $356 $356 $-1 $499 reversed $231 $-1 #
edge $-1 $500 0 $500 6.2831853071796004 $232 $501 forward 7 unknown #
vertex $-1 $235 $502 #
ellipse-curve $-1 -38.6890003485533 14.201664358841487 5.9585644669144617 -0.5877852598018023 0 0.80901698891910034 0.80901698891910034 0 0.5877852598018023 1 I I #
face $-1 $-1 $503 $50 $-1 $504 reversed single #
loop $-1 $-1 $242 $236 #
plane-surface $-1 0 0 10.11195511086485 0 0 1 1 0 0 forward_v I I I I #
coedge $-1 $505 $506 $507 $508 reversed $237 $-1 #
coedge $-1 $509 $239 $241 $370 forward $149 $-1 #
coedge $-1 $239 $509 $505 $510 forward $149 $-1 #
coedge $-1 $507 $242 $239 $367 forward $361 $-1 #
edge $-1 $373 -2.8556485414283612 $511 5.7899173620532514 $366 $512 forward 7 unknown #
coedge $-1 $513 $514 $240 $369 forward $503 $-1 #
edge $-1 $515 -61.12332769708334 $372 -52.816546409182578 $368 $516 forward 7 unknown #
edge $-1 $373 74.678963801746718 $515 88.811304055909886 $241 $517 forward 7 unknown #
coedge $-1 $242 $507 $513 $518 forward $361 $-1 #
vertex $-1 $243 $519 #
vertex $-1 $243 $520 #
straight-curve $-1 12.378886833251961 1.3885141311159162 10.111955110864848 -1 0 0 I I #
coedge $-1 $375 $375 $-1 $521 reversed $246 $-1 #
edge $-1 $522 0 $522 6.2831853071796004 $247 $523 forward 7 unknown #
vertex $-1 $250 $524 #
ellipse-curve $-1 38.689000348553307 -4.7868900856566654 5.9585644669144751 0.5877852598018023 0 0.80901698891910034 0.80901698891910034 0 -0.5877852598018023 1 I I #
coedge $-1 $379 $379 $-1 $525 reversed $253 $-1 #
edge $-1 $526 0 $526 6.2831853071796004 $254 $527 forward 7 unknown #
vertex $-1 $257 $528 #
ellipse-curve $-1 38.689000348553307 -1.0816475555931149 5.9585644669144751 0.5877852598018023 0 0.80901698891910034 0.80901698891910034 0 -0.5877852598018023 1 I I #
face $-1 $-1 $395 $53 $-1 $529 forward single #
loop $-1 $-1 $530 $258 #
plane-surface $-1 44.405652027954957 0 0 -1 0 0 0 0 1 forward_v I I I I #
coedge $-1 $531 $532 $533 $534 reversed $259 $-1 #
coedge $-1 $535 $261 $263 $393 forward $163 $-1 #
coedge $-1 $261 $535 $531 $536 forward $163 $-1 #
coedge $-1 $533 $264 $261 $390 forward $395 $-1 #
edge $-1 $397 -10.497304498645663 $537 -1.8517385951640524 $389 $538 forward 7 unknown #
coedge $-1 $539 $540 $262 $392 forward $384 $-1 #
edge $-1 $541 -61.12332769708334 $396 -52.816546409182578 $391 $542 forward 7 unknown #
edge $-1 $397 74.678963801746718 $541 88.811304055909886 $263 $543 forward 7 unknown #
coedge $-1 $264 $533 $539 $544 forward $395 $-1 #
loop $-1 $-1 $533 $383 #
vertex $-1 $392 $545 #
vertex $-1 $265 $546 #
straight-curve $-1 12.378886833251961 16.671826045550521 10.111955110864848 -1 0 0 I I #
coedge $-1 $399 $399 $-1 $547 reversed $268 $-1 #
edge $-1 $548 0 $548 6.2831853071796004 $269 $549 forward 7 unknown #
vertex $-1 $272 $550 #
ellipse-curve $-1 38.689000348553307 10.496421828777937 5.9585644669144751 0.5877852598018023 0 0.80901698891910034 0.80901698891910034 0 -0.5877852598018023 1 I I #
coedge $-1 $403 $403 $-1 $551 reversed $275 $-1 #
edge $-1 $552 0 $552 6.2831853071796004 $276 $553 forward 7 unknown #
vertex $-1 $279 $554 #
ellipse-curve $-1 38.689000348553307 14.201664358841487 5.9585644669144751 0.5877852598018023 0 0.80901698891910034 0.80901698891910034 0 -0.5877852598018023 1 I I #
face $-1 $-1 $419 $42 $-1 $555 reversed single #
loop $-1 $-1 $556 $280 #
plane-surface $-1 0 23.028003830677871 0 0 -1 0 0 0 -1 forward_v I I I I #
coedge $-1 $425 $424 $557 $558 forward $281 $-1 #
coedge $-1 $283 $293 $559 $560 forward $177 $-1 #
coedge $-1 $418 $289 $283 $413 reversed $419 $-1 #
edge $-1 $561 -23.028003830677871 $294 23.028003830677871 $412 $562 forward 7 unknown #
coedge $-1 $285 $284 $424 $563 forward $113 $-1 #
coedge $-1 $556 $557 $284 $416 reversed $408 $-1 #
edge $-1 $421 -44.405652027954957 $564 44.405652027954957 $415 $565 forward 7 unknown #
edge $-1 $426 -44.405652027954957 $420 44.405652027954957 $288 $566 forward 7 unknown #
coedge $-1 $286 $412 $556 $567 reversed $419 $-1 #
loop $-1 $-1 $289 $407 #
vertex $-1 $287 $568 #
vertex $-1 $287 $569 #
straight-curve $-1 44.405652027954957 0 10.11195511086485 0 1 0 I I #
straight-curve $-1 44.405652027954957 -23.028003830677871 0 0 0 -1 I I #
coedge $-1 $410 $291 $414 $563 reversed $281 $-1 #
coedge $-1 $291 $410 $293 $428 reversed $281 $-1 #
vertex $-1 $563 $570 #
straight-curve $-1 -44.405652027954957 -23.028003830677871 0 0 0 -1 I I #
edge $-1 $295 -23.028003830677871 $571 23.028003830677871 $425 $572 forward 7 unknown #
point $-1 44.405652027954957 -23.028003830677871 -10.11195511086485 #
point $-1 -44.405652027954957 -23.028003830677871 -10.11195511086485 #
face $-1 $-1 $444 $43 $-1 $573 reversed single #
plane-surface $-1 -41.193786236064966 -27.735390967270284 0 -1 0 0 0 0 1 forward_v I I I I #
coedge $-1 $574 $575 $576 $577 forward $298 $-1 #
coedge $-1 $576 $300 $443 $578 reversed $185 $-1 #
coedge $-1 $300 $576 $301 $438 reversed $185 $-1 #
edge $-1 $440 -10.11195511086485 $445 10.11195511086485 $300 $579 forward 7 unknown #
coedge $-1 $302 $301 $575 $580 forward $117 $-1 #
edge $-1 $440 23.028003830677871 $581 32.442778103862693 $435 $582 forward 7 unknown #
edge $-1 $583 -4.7073871365924091 $310 4.7073871365924127 $307 $584 forward 7 unknown #
vertex $-1 $438 $585 #
straight-curve $-1 0 -23.028003830677871 10.11195511086485 -1 0 0 I I #
coedge $-1 $586 $305 $308 $448 forward $444 $-1 #
coedge $-1 $305 $586 $434 $578 forward $444 $-1 #
loop $-1 $-1 $305 $431 #
vertex $-1 $436 $587 #
straight-curve $-1 0 -23.028003830677871 -10.11195511086485 1 0 0 I I #
coedge $-1 $308 $307 $588 $589 forward $309 $-1 #
edge $-1 $311 -4.7073871365924127 $590 4.7073871365924091 $308 $591 forward 7 unknown #
point $-1 -41.193786236064966 -23.028003830677871 10.11195511086485 #
point $-1 -41.193786236064966 -23.028003830677871 -10.11195511086485 #
plane-surface $-1 0 0 10.11195511086485 0 0 1 1 0 0 forward_v I I I I #
coedge $-1 $462 $461 $454 $592 forward $314 $-1 #
coedge $-1 $454 $316 $318 $458 reversed $193 $-1 #
coedge $-1 $316 $453 $452 $592 reversed $193 $-1 #
coedge $-1 $324 $319 $316 $456 forward $325 $-1 #
edge $-1 $459 -15.331465058745763 $593 -3.898161699942456 $455 $594 forward 7 unknown #
coedge $-1 $318 $317 $462 $595 reversed $121 $-1 #
edge $-1 $596 0 $459 14.132340254163202 $453 $597 forward 7 unknown #
vertex $-1 $320 $598 #
straight-curve $-1 -32.97234866915165 -1.4671344103124451 10.11195511086485 0 1 0 I I #
coedge $-1 $452 $321 $324 $466 reversed $314 $-1 #
coedge $-1 $321 $452 $457 $595 forward $314 $-1 #
vertex $-1 $322 $599 #
straight-curve $-1 -44.405652027954957 -7.2570517723656964 36.827513806127492 0 0 1 I I #
straight-curve $-1 -44.405652027954957 -7.2570517723656964 1.8051738229640648 -0.80901698891910034 0 -0.5877852598018023 I I #
edge $-1 $593 -1.3885141311159162 $326 7.2570517723656964 $461 $600 forward 7 unknown #
point $-1 -44.405652027954957 -7.2570517723656964 10.11195511086485 #
point $-1 -32.97234866915165 -7.2570517723656964 10.11195511086485 #
edge $-1 $601 1 $601 0 $329 $-1 forward 7 unknown #
vertex $-1 $330 $602 #
ellipse-curve $-1 -36.511681727250668 -4.7868900856566654 2.9617425399445536 -0.5877852598018023 0 0.80901698891910034 0.80901698891910034 0 0.5877852598018023 1 I I #
point $-1 -37.879983359634195 -4.7868900856566654 6.5463497267162518 #
edge $-1 $603 1 $603 0 $333 $-1 forward 7 unknown #
vertex $-1 $334 $604 #
ellipse-curve $-1 -36.511681727250668 -1.0816475555931149 2.9617425399445536 -0.5877852598018023 0 0.80901698891910034 0.80901698891910034 0 0.5877852598018023 1 I I #
point $-1 -37.879983359634195 -1.0816475555931149 6.5463497267162518 #
loop $-1 $-1 $345 $337 #
plane-surface $-1 -44.405652027954957 0 0 1 0 0 0 0 -1 forward_v I I I I #
coedge $-1 $480 $340 $342 $484 reversed $215 $-1 #
coedge $-1 $340 $479 $605 $606 reversed $215 $-1 #
coedge $-1 $348 $343 $340 $482 forward $338 $-1 #
edge $-1 $485 -15.331465058745763 $607 -3.898161699942456 $481 $608 forward 7 unknown #
coedge $-1 $342 $341 $488 $609 reversed $135 $-1 #
edge $-1 $610 0 $485 14.132340254163202 $479 $611 forward 7 unknown #
vertex $-1 $344 $612 #
straight-curve $-1 -32.97234866915165 6.1745215469048578 10.11195511086485 0 1 0 I I #
coedge $-1 $605 $345 $348 $492 reversed $477 $-1 #
coedge $-1 $345 $605 $483 $609 forward $477 $-1 #
vertex $-1 $346 $613 #
straight-curve $-1 -44.405652027954957 8.0262601420689101 36.827513806127492 0 0 1 I I #
straight-curve $-1 -44.405652027954957 8.0262601420689101 1.8051738229640648 -0.80901698891910034 0 -0.5877852598018023 I I #
edge $-1 $607 -16.671826045550521 $349 -8.0262601420689101 $487 $614 forward 7 unknown #
point $-1 -44.405652027954957 8.0262601420689101 10.11195511086485 #
point $-1 -32.97234866915165 8.0262601420689101 10.11195511086485 #
edge $-1 $615 1 $615 0 $352 $-1 forward 7 unknown #
vertex $-1 $353 $616 #
ellipse-curve $-1 -36.511681727250668 10.496421828777937 2.9617425399445536 -0.5877852598018023 0 0.80901698891910034 0.80901698891910034 0 0.5877852598018023 1 I I #
point $-1 -37.879983359634195 10.496421828777937 6.5463497267162518 #
edge $-1 $617 1 $617 0 $356 $-1 forward 7 unknown #
vertex $-1 $357 $618 #
ellipse-curve $-1 -36.511681727250668 14.201664358841487 2.9617425399445536 -0.5877852598018023 0 0.80901698891910034 0.80901698891910034 0 0.5877852598018023 1 I I #
point $-1 -37.879983359634195 14.201664358841487 6.5463497267162518 #
loop $-1 $-1 $368 $360 #
plane-surface $-1 44.405652027954957 0 0 -1 0 0 0 0 1 forward_v I I I I #
coedge $-1 $506 $363 $365 $510 reversed $237 $-1 #
coedge $-1 $363 $505 $619 $620 reversed $237 $-1 #
coedge $-1 $371 $366 $363 $508 forward $361 $-1 #
edge $-1 $511 20.59346183589971 $621 32.026765194702996 $507 $622 forward 7 unknown #
coedge $-1 $365 $364 $514 $623 reversed $149 $-1 #
edge $-1 $624 -88.811304055909886 $511 -74.678963801746718 $505 $625 forward 7 unknown #
vertex $-1 $367 $626 #
straight-curve $-1 32.972348669151671 -1.4671344103124451 10.111955110864852 0 -1 0 I I #
coedge $-1 $619 $368 $371 $518 reversed $503 $-1 #
coedge $-1 $368 $619 $509 $623 forward $503 $-1 #
vertex $-1 $369 $627 #
straight-curve $-1 44.405652027954957 1.3885141311159162 62.928501520047426 0 0 1 I I #
straight-curve $-1 -27.444201761335947 1.3885141311159162 54.007149250803934 0.80901698891910034 0 -0.5877852598018023 I I #
edge $-1 $621 -7.2570517723656964 $372 1.3885141311159162 $513 $628 forward 7 unknown #
point $-1 44.405652027954957 1.3885141311159162 10.11195511086485 #
point $-1 32.972348669151671 1.3885141311159162 10.111955110864848 #
edge $-1 $629 1 $629 0 $375 $-1 forward 7 unknown #
vertex $-1 $376 $630 #
ellipse-curve $-1 36.511681727250668 -4.7868900856566654 2.9617425399445589 0.5877852598018023 0 0.80901698891910034 0.80901698891910034 0 -0.5877852598018023 1 I I #
point $-1 39.49801733747239 -4.7868900856566654 5.3707792071126521 #
edge $-1 $631 1 $631 0 $379 $-1 forward 7 unknown #
vertex $-1 $380 $632 #
ellipse-curve $-1 36.511681727250668 -1.0816475555931149 2.9617425399445589 0.5877852598018023 0 0.80901698891910034 0.80901698891910034 0 -0.5877852598018023 1 I I #
point $-1 39.49801733747239 -1.0816475555931149 5.3707792071126521 #
plane-surface $-1 0 0 10.11195511086485 0 0 1 1 0 0 forward_v I I I I #
coedge $-1 $540 $539 $532 $633 forward $384 $-1 #
coedge $-1 $532 $386 $388 $536 reversed $259 $-1 #
coedge $-1 $386 $531 $530 $633 reversed $259 $-1 #
coedge $-1 $394 $389 $386 $534 forward $395 $-1 #
edge $-1 $537 20.59346183589971 $634 32.026765194702996 $533 $635 forward 7 unknown #
coedge $-1 $388 $387 $540 $636 reversed $163 $-1 #
edge $-1 $637 -88.811304055909886 $537 -74.678963801746718 $531 $638 forward 7 unknown #
vertex $-1 $390 $639 #
straight-curve $-1 32.972348669151671 6.1745215469048578 10.111955110864852 0 -1 0 I I #
coedge $-1 $530 $391 $394 $544 reversed $384 $-1 #
coedge $-1 $391 $530 $535 $636 forward $384 $-1 #
vertex $-1 $392 $640 #
straight-curve $-1 44.405652027954957 16.671826045550521 62.928501520047426 0 0 1 I I #
straight-curve $-1 -27.444201761335947 16.671826045550521 54.007149250803934 0.80901698891910034 0 -0.5877852598018023 I I #
edge $-1 $634 8.0262601420689101 $396 16.671826045550521 $539 $641 forward 7 unknown #
point $-1 44.405652027954957 16.671826045550521 10.11195511086485 #
point $-1 32.972348669151671 16.671826045550521 10.111955110864848 #
edge $-1 $642 1 $642 0 $399 $-1 forward 7 unknown #
vertex $-1 $400 $643 #
ellipse-curve $-1 36.511681727250668 10.496421828777937 2.9617425399445589 0.5877852598018023 0 0.80901698891910034 0.80901698891910034 0 -0.5877852598018023 1 I I #
point $-1 39.49801733747239 10.496421828777937 5.3707792071126521 #
edge $-1 $644 1 $644 0 $403 $-1 forward 7 unknown #
vertex $-1 $404 $645 #
ellipse-curve $-1 36.511681727250668 14.201664358841487 2.9617425399445589 0.5877852598018023 0 0.80901698891910034 0.80901698891910034 0 -0.5877852598018023 1 I I #
point $-1 39.49801733747239 14.201664358841487 5.3707792071126521 #
plane-surface $-1 44.405652027954957 0 0 -1 0 0 0 0 1 forward_v I I I I #
coedge $-1 $559 $415 $418 $567 forward $408 $-1 #
coedge $-1 $415 $559 $410 $558 reversed $408 $-1 #
edge $-1 $564 -10.11195511086485 $571 10.11195511086485 $557 $646 forward 7 unknown #
coedge $-1 $557 $556 $411 $560 reversed $408 $-1 #
edge $-1 $571 -44.405652027954957 $561 44.405652027954957 $559 $647 forward 7 unknown #
vertex $-1 $413 $648 #
straight-curve $-1 44.405652027954957 0 -10.11195511086485 0 -1 0 I I #
edge $-1 $564 -23.028003830677871 $426 23.028003830677871 $424 $649 forward 7 unknown #
vertex $-1 $416 $650 #
straight-curve $-1 0 23.028003830677871 10.11195511086485 -1 0 0 I I #
straight-curve $-1 0 -23.028003830677871 10.11195511086485 1 0 0 I I #
edge $-1 $421 -10.11195511086485 $561 10.11195511086485 $418 $651 forward 7 unknown #
point $-1 44.405652027954957 -23.028003830677871 10.11195511086485 #
point $-1 44.405652027954957 23.028003830677871 10.11195511086485 #
point $-1 -44.405652027954957 -23.028003830677871 10.11195511086485 #
vertex $-1 $560 $652 #
straight-curve $-1 -44.405652027954957 0 -10.11195511086485 0 1 0 I I #
plane-surface $-1 0 0 -10.11195511086485 0 0 1 1 0 0 forward_v I I I I #
coedge $-1 $588 $433 $586 $653 reversed $298 $-1 #
coedge $-1 $433 $588 $437 $580 reversed $298 $-1 #
coedge $-1 $435 $434 $433 $577 reversed $185 $-1 #
edge $-1 $581 -10.11195511086485 $654 10.11195511086485 $576 $655 forward 7 unknown #
edge $-1 $654 -32.442778103862693 $445 -23.028003830677871 $434 $656 forward 7 unknown #
straight-curve $-1 -44.405652027954957 -23.028003830677871 0 0 0 -1 I I #
edge $-1 $581 -1.6059328959449957 $583 1.6059328959449957 $575 $657 forward 7 unknown #
vertex $-1 $438 $658 #
straight-curve $-1 -44.405652027954957 0 10.11195511086485 0 -1 0 I I #
vertex $-1 $439 $659 #
straight-curve $-1 -41.193786236064966 -27.735390967270284 10.11195511086485 0 1 0 I I #
point $-1 -44.405652027954957 -23.028003830677871 10.11195511086485 #
coedge $-1 $443 $442 $574 $653 forward $444 $-1 #
point $-1 -44.405652027954957 -23.028003830677871 -10.11195511086485 #
coedge $-1 $575 $574 $447 $589 reversed $298 $-1 #
edge $-1 $583 -10.11195511086485 $590 10.11195511086485 $447 $660 forward 7 unknown #
vertex $-1 $589 $661 #
straight-curve $-1 -41.193786236064966 -27.735390967270284 -10.11195511086485 0 -1 0 I I #
edge $-1 $593 26.715558695262644 $596 35.022339983163427 $452 $662 forward 7 unknown #
vertex $-1 $466 $663 #
straight-curve $-1 -48.303813727897413 1.3885141311159162 10.111955110864848 -1 0 0 I I #
edge $-1 $596 -2.8556485414283612 $463 5.7899173620532514 $462 $664 forward 7 unknown #
vertex $-1 $595 $665 #
straight-curve $-1 -44.405652027954957 1.3885141311159162 1.8051738229640648 0.80901698891910034 0 0.5877852598018023 I I #
point $-1 -32.97234866915165 1.3885141311159162 10.11195511086485 #
point $-1 -44.405652027954957 -7.2570517723656964 1.8051738229640648 #
straight-curve $-1 -44.405652027954957 0 10.11195511086485 0 -1 0 I I #
vertex $-1 $469 $666 #
point $-1 -35.702664738331563 -4.7868900856566654 3.5495277997463561 #
vertex $-1 $473 $667 #
point $-1 -35.702664738331563 -1.0816475555931149 3.5495277997463561 #
coedge $-1 $488 $487 $480 $606 forward $477 $-1 #
edge $-1 $607 26.715558695262644 $610 35.022339983163427 $605 $668 forward 7 unknown #
vertex $-1 $492 $669 #
straight-curve $-1 -48.303813727897413 16.671826045550521 10.111955110864848 -1 0 0 I I #
edge $-1 $610 -10.497304498645663 $489 -1.8517385951640524 $488 $670 forward 7 unknown #
vertex $-1 $609 $671 #
straight-curve $-1 -44.405652027954957 16.671826045550521 1.8051738229640648 0.80901698891910034 0 0.5877852598018023 I I #
point $-1 -32.97234866915165 16.671826045550521 10.11195511086485 #
point $-1 -44.405652027954957 8.0262601420689101 1.8051738229640648 #
straight-curve $-1 -44.405652027954957 0 10.11195511086485 0 -1 0 I I #
vertex $-1 $495 $672 #
point $-1 -35.702664738331563 10.496421828777937 3.5495277997463561 #
vertex $-1 $499 $673 #
point $-1 -35.702664738331563 14.201664358841487 3.5495277997463561 #
coedge $-1 $514 $513 $506 $620 forward $503 $-1 #
edge $-1 $621 52.816546409182578 $624 61.12332769708334 $619 $674 forward 7 unknown #
vertex $-1 $518 $675 #
straight-curve $-1 12.378886833251961 -7.2570517723656964 10.111955110864848 1 0 0 I I #
edge $-1 $624 -5.7899173620532514 $515 2.8556485414283612 $514 $676 forward 7 unknown #
vertex $-1 $623 $677 #
straight-curve $-1 -27.444201761335947 -7.2570517723656964 54.007149250803934 -0.80901698891910034 0 0.5877852598018023 I I #
point $-1 32.972348669151671 -7.2570517723656964 10.111955110864848 #
point $-1 44.405652027954957 1.3885141311159162 1.8051738229640861 #
straight-curve $-1 44.405652027954957 0 10.11195511086485 0 1 0 I I #
vertex $-1 $521 $678 #
point $-1 37.320698716169765 -4.7868900856566654 2.3739572801427569 #
vertex $-1 $525 $679 #
point $-1 37.320698716169765 -1.0816475555931149 2.3739572801427569 #
edge $-1 $634 52.816546409182578 $637 61.12332769708334 $530 $680 forward 7 unknown #
vertex $-1 $544 $681 #
straight-curve $-1 12.378886833251961 8.0262601420689101 10.111955110864848 1 0 0 I I #
edge $-1 $637 1.8517385951640524 $541 10.497304498645663 $540 $682 forward 7 unknown #
vertex $-1 $636 $683 #
straight-curve $-1 -27.444201761335947 8.0262601420689101 54.007149250803934 -0.80901698891910034 0 0.5877852598018023 I I #
point $-1 32.972348669151671 8.0262601420689101 10.111955110864848 #
point $-1 44.405652027954957 16.671826045550521 1.8051738229640861 #
straight-curve $-1 44.405652027954957 0 10.11195511086485 0 1 0 I I #
vertex $-1 $547 $684 #
point $-1 37.320698716169765 10.496421828777937 2.3739572801427569 #
vertex $-1 $551 $685 #
point $-1 37.320698716169765 14.201664358841487 2.3739572801427569 #
straight-curve $-1 -44.405652027954957 23.028003830677871 0 0 0 -1 I I #
straight-curve $-1 0 23.028003830677871 -10.11195511086485 1 0 0 I I #
point $-1 44.405652027954957 23.028003830677871 -10.11195511086485 #
straight-curve $-1 -44.405652027954957 0 10.11195511086485 0 -1 0 I I #
point $-1 -44.405652027954957 23.028003830677871 10.11195511086485 #
straight-curve $-1 44.405652027954957 23.028003830677871 0 0 0 -1 I I #
point $-1 -44.405652027954957 23.028003830677871 -10.11195511086485 #
edge $-1 $590 -1.6059328959449957 $654 1.6059328959449957 $574 $686 forward 7 unknown #
vertex $-1 $578 $687 #
straight-curve $-1 -44.405652027954957 -32.442778103862693 0 0 0 -1 I I #
straight-curve $-1 -44.405652027954957 0 -10.11195511086485 0 1 0 I I #
straight-curve $-1 -42.799719132009962 -32.442778103862693 10.11195511086485 1 0 0 I I #
point $-1 -44.405652027954957 -32.442778103862693 10.11195511086485 #
point $-1 -41.193786236064966 -32.442778103862693 10.11195511086485 #
straight-curve $-1 -41.193786236064966 -32.442778103862693 0 0 0 -1 I I #
point $-1 -41.193786236064966 -32.442778103862693 -10.11195511086485 #
straight-curve $-1 -44.405652027954957 1.3885141311159162 36.827513806127492 0 0 -1 I I #
point $-1 -44.405652027954957 1.3885141311159162 10.11195511086485 #
straight-curve $-1 -44.405652027954957 -1.4671344103124451 1.8051738229640657 0 -1 0 I I #
point $-1 -44.405652027954957 1.3885141311159162 1.8051738229640648 #
point $-1 -35.923896467448863 -4.7868900856566654 2.1527255510254535 #
point $-1 -35.923896467448863 -1.0816475555931149 2.1527255510254535 #
straight-curve $-1 -44.405652027954957 16.671826045550521 36.827513806127492 0 0 -1 I I #
point $-1 -44.405652027954957 16.671826045550521 10.11195511086485 #
straight-curve $-1 -44.405652027954957 6.1745215469048578 1.8051738229640657 0 -1 0 I I #
point $-1 -44.405652027954957 16.671826045550521 1.8051738229640648 #
point $-1 -35.923896467448863 10.496421828777937 2.1527255510254535 #
point $-1 -35.923896467448863 14.201664358841487 2.1527255510254535 #
straight-curve $-1 44.405652027954957 -7.2570517723656964 62.928501520047426 0 0 -1 I I #
point $-1 44.405652027954957 -7.2570517723656964 10.11195511086485 #
straight-curve $-1 44.405652027954957 -1.4671344103124451 1.8051738229640719 0 1 0 I I #
point $-1 44.405652027954957 -7.2570517723656964 1.8051738229640861 #
point $-1 35.923896467448863 -4.7868900856566654 2.1527255510254588 #
point $-1 35.923896467448863 -1.0816475555931149 2.1527255510254588 #
straight-curve $-1 44.405652027954957 8.0262601420689101 62.928501520047426 0 0 -1 I I #
point $-1 44.405652027954957 8.0262601420689101 10.11195511086485 #
straight-curve $-1 44.405652027954957 6.1745215469048578 1.8051738229640719 0 1 0 I I #
point $-1 44.405652027954957 8.0262601420689101 1.8051738229640861 #
point $-1 35.923896467448863 10.496421828777937 2.1527255510254588 #
point $-1 35.923896467448863 14.201664358841487 2.1527255510254588 #
straight-curve $-1 -42.799719132009962 -32.442778103862693 -10.11195511086485 -1 0 0 I I #
point $-1 -44.405652027954957 -32.442778103862693 -10.11195511086485 #
End-of-ACIS-data 