500 0 11 0           
7 Unknown 11 ACIS 5.0 NT 24 Fri Mar 26 01:24:35 1999 
-1 9.9999999999999995e-007 1e-010 
body $-1 $11 $-1 $12 #
body $-1 $13 $-1 $14 #
body $-1 $15 $-1 $16 #
body $-1 $17 $-1 $18 #
body $-1 $19 $-1 $20 #
body $-1 $21 $-1 $22 #
body $-1 $23 $-1 $24 #
body $-1 $25 $-1 $26 #
body $-1 $27 $-1 $28 #
body $-1 $29 $-1 $30 #
body $-1 $31 $-1 $32 #
lump $-1 $-1 $33 $0 #
transform $-1 1 0 0 0 1 0 0 0 1 50.649739066743976 29.692089839938706 13.810577801829213 1 rotate no_reflect no_shear #
lump $-1 $-1 $34 $1 #
transform $-1 1 0 0 0 1 0 0 0 1 50.649739066743976 29.692089839938706 13.810577801829213 1 rotate no_reflect no_shear #
lump $-1 $-1 $35 $2 #
transform $-1 1 0 0 0 1 0 0 0 1 50.649739066743976 29.692089839938706 13.810577801829213 1 rotate no_reflect no_shear #
lump $-1 $-1 $36 $3 #
transform $-1 1 0 0 0 1 0 0 0 1 50.649739066743976 29.692089839938706 13.810577801829213 1 rotate no_reflect no_shear #
lump $-1 $-1 $37 $4 #
transform $-1 1 0 0 0 1 0 0 0 1 50.649739066743976 29.692089839938706 13.810577801829213 1 rotate no_reflect no_shear #
lump $-1 $-1 $38 $5 #
transform $-1 1 0 0 0 1 0 0 0 1 50.649739066743976 29.692089839938706 13.810577801829213 1 rotate no_reflect no_shear #
lump $-1 $-1 $39 $6 #
transform $-1 1 0 0 0 1 0 0 0 1 50.649739066743976 29.692089839938706 13.810577801829213 1 rotate no_reflect no_shear #
lump $-1 $-1 $40 $7 #
transform $-1 1 0 0 0 1 0 0 0 1 50.649739066743976 29.692089839938706 13.810577801829213 1 rotate no_reflect no_shear #
lump $-1 $-1 $41 $8 #
transform $-1 1 0 0 0 1 0 0 0 1 50.649739066743976 29.692089839938706 13.810577801829213 1 rotate no_reflect no_shear #
lump $-1 $-1 $42 $9 #
transform $-1 1 0 0 0 1 0 0 0 1 50.649739066743976 29.692089839938706 13.810577801829213 1 rotate no_reflect no_shear #
lump $-1 $-1 $43 $10 #
transform $-1 1 0 0 0 1 0 0 0 1 50.649739066743976 29.692089839938706 13.810577801829213 1 rotate no_reflect no_shear #
shell $-1 $-1 $-1 $44 $-1 $11 #
shell $-1 $-1 $-1 $45 $-1 $13 #
shell $-1 $-1 $-1 $46 $-1 $15 #
shell $-1 $-1 $-1 $47 $-1 $17 #
shell $-1 $-1 $-1 $48 $-1 $19 #
shell $-1 $-1 $-1 $49 $-1 $21 #
shell $-1 $-1 $-1 $50 $-1 $23 #
shell $-1 $-1 $-1 $51 $-1 $25 #
shell $-1 $-1 $-1 $52 $-1 $27 #
shell $-1 $-1 $-1 $53 $-1 $29 #
shell $-1 $-1 $-1 $54 $-1 $31 #
face $-1 $55 $56 $33 $-1 $57 forward single #
face $-1 $58 $59 $34 $-1 $60 forward single #
face $-1 $61 $62 $35 $-1 $63 reversed single #
face $-1 $64 $65 $36 $-1 $66 forward single #
face $-1 $67 $68 $37 $-1 $69 forward single #
face $-1 $70 $71 $38 $-1 $72 reversed single #
face $-1 $73 $74 $39 $-1 $75 forward single #
face $-1 $76 $77 $40 $-1 $78 forward single #
face $-1 $79 $80 $41 $-1 $81 reversed single #
face $-1 $82 $83 $42 $-1 $84 forward single #
face $-1 $85 $86 $43 $-1 $87 forward single #
face $-1 $88 $89 $33 $-1 $90 reversed single #
loop $-1 $-1 $91 $44 #
plane-surface $-1 0 0 13.810577801829213 0 0 1 1 0 0 forward_v I I I I #
face $-1 $92 $93 $34 $-1 $94 reversed single #
loop $-1 $-1 $95 $45 #
plane-surface $-1 0 -23.084027400581459 5.9101339588044786 0 0 1 1 0 0 forward_v I I I I #
face $-1 $96 $97 $35 $-1 $98 reversed single #
loop $-1 $-1 $99 $46 #
plane-surface $-1 -127.1014265252831 -11.375463711539762 75.619400492017633 0 1 0 -0.75470958851134928 0 0.65605901945558964 forward_v I I I I #
face $-1 $100 $101 $36 $-1 $102 forward single #
loop $-1 $103 $104 $47 #
cone-surface $-1 -47.691209596629385 -8.0816597554018124 10.670722732588318 0.75470958851134928 0 -0.65605901945558964 0.98408852918338452 0 1.132064382767024 1 I I 0 1 1.5 forward I I I I #
face $-1 $105 $106 $37 $-1 $107 forward single #
loop $-1 $108 $109 $48 #
cone-surface $-1 -47.691209596629385 -3.1409538211948878 10.670722732588318 0.75470958851134928 0 -0.65605901945558964 0.98408852918338452 0 1.132064382767024 1 I I 0 1 1.5 forward I I I I #
face $-1 $110 $111 $38 $-1 $112 reversed single #
loop $-1 $-1 $113 $49 #
plane-surface $-1 -127.1014265252831 13.063274743771444 75.619400492017633 0 1 0 -0.75470958851134928 0 0.65605901945558964 forward_v I I I I #
face $-1 $114 $115 $39 $-1 $116 forward single #
loop $-1 $117 $118 $50 #
cone-surface $-1 -47.691209596629385 16.35707869990939 10.670722732588318 0.75470958851134928 0 -0.65605901945558964 0.98408852918338452 0 1.132064382767024 1 I I 0 1 1.5 forward I I I I #
face $-1 $119 $120 $40 $-1 $121 forward single #
loop $-1 $122 $123 $51 #
cone-surface $-1 -47.691209596629385 21.297784634116315 10.670722732588318 0.75470958851134928 0 -0.65605901945558964 0.98408852918338452 0 1.132064382767024 1 I I 0 1 1.5 forward I I I I #
face $-1 $124 $125 $41 $-1 $126 reversed single #
loop $-1 $-1 $127 $52 #
plane-surface $-1 70.587553613827524 14.113953662273548 150.04171261180207 0 -1 0 -0.79863551827123203 0 -0.60181501223851219 forward_v I I I I #
face $-1 $128 $129 $42 $-1 $130 forward single #
loop $-1 $131 $132 $53 #
cone-surface $-1 47.504437954851369 7.4267619775337685 10.223088139532019 -0.79863551827123203 0 -0.60181501223851219 0.60181501223851219 0 -0.79863551827123203 1 I I 0 1 1 forward I I I I #
face $-1 $133 $134 $43 $-1 $135 forward single #
loop $-1 $136 $137 $54 #
cone-surface $-1 47.504437954851369 11.439076988377639 10.223088139532019 -0.79863551827123203 0 -0.60181501223851219 0.60181501223851219 0 -0.79863551827123203 1 I I 0 1 1 forward I I I I #
face $-1 $138 $139 $33 $-1 $140 reversed single #
loop $-1 $-1 $141 $55 #
plane-surface $-1 0 0 -13.810577801829213 0 0 1 1 0 0 forward_v I I I I #
coedge $-1 $142 $143 $144 $145 forward $56 $-1 #
face $-1 $146 $147 $34 $-1 $148 reversed single #
loop $-1 $-1 $149 $58 #
plane-surface $-1 0 -23.084027400581459 -0.509232668245299 0 0 1 1 0 0 forward_v I I I I #
coedge $-1 $150 $151 $152 $153 reversed $59 $-1 #
face $-1 $154 $155 $35 $-1 $156 reversed single #
loop $-1 $-1 $157 $61 #
plane-surface $-1 -50.64973906674399 -5.6113067882983501 9.1609641963985808 -0.75470958851134928 0 0.65605901945558964 0.65605901945558964 0 0.75470958851134928 forward_v I I I I #
coedge $-1 $158 $159 $160 $161 reversed $62 $-1 #
face $-1 $-1 $162 $36 $-1 $163 forward single #
loop $-1 $164 $165 $64 #
cone-surface $-1 -46.187571605150566 -8.0816597554018124 9.3636302014710591 0.75470958851134928 0 -0.65605901945558964 0.49204426459169226 0 0.56603219138351202 1 I I -0.70710678118654757 0.70710678118654757 0.75 forward I I I I #
loop $-1 $-1 $166 $47 #
coedge $-1 $104 $104 $167 $168 reversed $65 $-1 #
face $-1 $-1 $169 $37 $-1 $170 forward single #
loop $-1 $171 $172 $67 #
cone-surface $-1 -46.187571605150566 -3.1409538211948878 9.3636302014710591 0.75470958851134928 0 -0.65605901945558964 0.49204426459169226 0 0.56603219138351202 1 I I -0.70710678118654757 0.70710678118654757 0.75 forward I I I I #
loop $-1 $-1 $173 $48 #
coedge $-1 $109 $109 $174 $175 reversed $68 $-1 #
face $-1 $176 $177 $38 $-1 $178 reversed single #
loop $-1 $-1 $179 $70 #
plane-surface $-1 -50.64973906674399 18.827431667012856 9.1609641963985808 -0.75470958851134928 0 0.65605901945558964 0.65605901945558964 0 0.75470958851134928 forward_v I I I I #
coedge $-1 $180 $181 $182 $183 reversed $71 $-1 #
face $-1 $-1 $184 $39 $-1 $185 forward single #
loop $-1 $186 $187 $73 #
cone-surface $-1 -46.187571605150566 16.35707869990939 9.3636302014710591 0.75470958851134928 0 -0.65605901945558964 0.49204426459169226 0 0.56603219138351202 1 I I -0.70710678118654757 0.70710678118654757 0.75 forward I I I I #
loop $-1 $-1 $188 $50 #
coedge $-1 $118 $118 $189 $190 reversed $74 $-1 #
face $-1 $-1 $191 $40 $-1 $192 forward single #
loop $-1 $193 $194 $76 #
cone-surface $-1 -46.187571605150566 21.297784634116315 9.3636302014710591 0.75470958851134928 0 -0.65605901945558964 0.49204426459169226 0 0.56603219138351202 1 I I -0.70710678118654757 0.70710678118654757 0.75 forward I I I I #
loop $-1 $-1 $195 $51 #
coedge $-1 $123 $123 $196 $197 reversed $77 $-1 #
face $-1 $198 $199 $41 $-1 $200 reversed single #
loop $-1 $-1 $201 $79 #
plane-surface $-1 -10.313807605915969 9.4329194829557004 89.07816593914211 0.79863551827123203 0 0.60181501223851219 0.60181501223851219 0 -0.79863551827123203 forward_v I I I I #
coedge $-1 $202 $203 $204 $205 reversed $80 $-1 #
face $-1 $-1 $206 $42 $-1 $207 forward single #
loop $-1 $208 $209 $82 #
cone-surface $-1 46.082495285284338 7.4267619775337685 9.151577512330844 -0.79863551827123203 0 -0.60181501223851219 0.3009075061192561 0 -0.39931775913561601 1 I I -0.70710678118654746 0.70710678118654746 0.5 forward I I I I #
loop $-1 $-1 $210 $53 #
coedge $-1 $132 $132 $211 $212 reversed $83 $-1 #
face $-1 $-1 $213 $43 $-1 $214 forward single #
loop $-1 $215 $216 $85 #
cone-surface $-1 46.082495285284338 11.439076988377639 9.151577512330844 -0.79863551827123203 0 -0.60181501223851219 0.3009075061192561 0 -0.39931775913561601 1 I I -0.70710678118654746 0.70710678118654746 0.5 forward I I I I #
loop $-1 $-1 $217 $54 #
coedge $-1 $137 $137 $218 $219 reversed $86 $-1 #
face $-1 $220 $221 $33 $-1 $222 reversed single #
loop $-1 $-1 $223 $88 #
plane-surface $-1 0 -29.692089839938706 0 0 1 0 0 0 1 forward_v I I I I #
coedge $-1 $224 $225 $226 $227 forward $89 $-1 #
coedge $-1 $228 $91 $229 $230 forward $56 $-1 #
coedge $-1 $91 $228 $231 $232 forward $56 $-1 #
coedge $-1 $233 $234 $91 $145 reversed $235 $-1 #
edge $-1 $236 -29.692089839938706 $237 29.692089839938706 $144 $238 forward 7 unknown #
face $-1 $239 $240 $34 $-1 $241 reversed single #
loop $-1 $-1 $242 $92 #
plane-surface $-1 0 -16.475964961224211 2.7004506452795898 0 -1 0 0 0 -1 forward_v I I I I #
coedge $-1 $243 $244 $245 $246 reversed $93 $-1 #
coedge $-1 $247 $95 $248 $249 forward $59 $-1 #
coedge $-1 $95 $247 $250 $251 reversed $59 $-1 #
coedge $-1 $252 $253 $95 $153 forward $254 $-1 #
edge $-1 $255 4.9339512609334815 $256 18.150076139647979 $152 $257 forward 7 unknown #
face $-1 $258 $259 $35 $-1 $260 reversed single #
loop $-1 $-1 $261 $96 #
plane-surface $-1 -127.1014265252831 0.15285013494306199 75.619400492017633 0 -1 0 0.75470958851134928 0 -0.65605901945558964 forward_v I I I I #
coedge $-1 $262 $263 $264 $265 reversed $97 $-1 #
coedge $-1 $159 $99 $266 $267 reversed $62 $-1 #
coedge $-1 $99 $158 $262 $268 reversed $62 $-1 #
coedge $-1 $264 $269 $99 $161 forward $270 $-1 #
edge $-1 $271 12.900974195897575 $272 16.942821535936119 $160 $273 forward 7 unknown #
loop $-1 $-1 $167 $100 #
plane-surface $-1 -50.64973906674399 -5.6113067882983501 9.1609641963985808 -0.75470958851134928 0 0.65605901945558964 0.65605901945558964 0 0.75470958851134928 forward_v I I I I #
loop $-1 $-1 $274 $64 #
coedge $-1 $165 $165 $166 $275 reversed $101 $-1 #
coedge $-1 $166 $166 $165 $275 forward $103 $-1 #
coedge $-1 $167 $167 $104 $168 forward $162 $-1 #
edge $-1 $276 0 $276 6.2831853071796004 $167 $277 forward 7 unknown #
loop $-1 $-1 $174 $105 #
plane-surface $-1 -50.64973906674399 -5.6113067882983501 9.1609641963985808 -0.75470958851134928 0 0.65605901945558964 0.65605901945558964 0 0.75470958851134928 forward_v I I I I #
loop $-1 $-1 $278 $67 #
coedge $-1 $172 $172 $173 $279 reversed $106 $-1 #
coedge $-1 $173 $173 $172 $279 forward $108 $-1 #
coedge $-1 $174 $174 $109 $175 forward $169 $-1 #
edge $-1 $280 0 $280 6.2831853071796004 $174 $281 forward 7 unknown #
face $-1 $282 $283 $38 $-1 $284 forward single #
loop $-1 $-1 $285 $110 #
plane-surface $-1 -127.1014265252831 24.591588590254268 75.619400492017633 0 -1 0 0.75470958851134928 0 -0.65605901945558964 forward_v I I I I #
coedge $-1 $286 $287 $288 $289 reversed $111 $-1 #
coedge $-1 $181 $113 $290 $291 reversed $71 $-1 #
coedge $-1 $113 $180 $286 $292 reversed $71 $-1 #
coedge $-1 $288 $293 $113 $183 forward $283 $-1 #
edge $-1 $294 12.900974195897575 $295 16.942821535936119 $182 $296 forward 7 unknown #
loop $-1 $-1 $189 $114 #
plane-surface $-1 -50.64973906674399 18.827431667012856 9.1609641963985808 -0.75470958851134928 0 0.65605901945558964 0.65605901945558964 0 0.75470958851134928 forward_v I I I I #
loop $-1 $-1 $297 $73 #
coedge $-1 $187 $187 $188 $298 reversed $115 $-1 #
coedge $-1 $188 $188 $187 $298 forward $117 $-1 #
coedge $-1 $189 $189 $118 $190 forward $184 $-1 #
edge $-1 $299 0 $299 6.2831853071796004 $189 $300 forward 7 unknown #
loop $-1 $-1 $196 $119 #
plane-surface $-1 -50.64973906674399 18.827431667012856 9.1609641963985808 -0.75470958851134928 0 0.65605901945558964 0.65605901945558964 0 0.75470958851134928 forward_v I I I I #
loop $-1 $-1 $301 $76 #
coedge $-1 $194 $194 $195 $302 reversed $120 $-1 #
coedge $-1 $195 $195 $194 $302 forward $122 $-1 #
coedge $-1 $196 $196 $123 $197 forward $191 $-1 #
edge $-1 $303 0 $303 6.2831853071796004 $196 $304 forward 7 unknown #
face $-1 $305 $306 $41 $-1 $307 forward single #
loop $-1 $-1 $308 $124 #
plane-surface $-1 70.587553613827524 4.7518853036378523 150.04171261180207 0 1 0 0.79863551827123203 0 0.60181501223851219 forward_v I I I I #
coedge $-1 $309 $310 $311 $312 reversed $125 $-1 #
coedge $-1 $203 $127 $313 $314 reversed $80 $-1 #
coedge $-1 $127 $202 $309 $315 reversed $80 $-1 #
coedge $-1 $311 $316 $127 $205 forward $306 $-1 #
edge $-1 $317 -15.355962259830214 $318 -11.1106098569078 $204 $319 forward 7 unknown #
loop $-1 $-1 $211 $128 #
plane-surface $-1 -10.313807605915969 9.4329194829557004 89.07816593914211 0.79863551827123203 0 0.60181501223851219 0.60181501223851219 0 -0.79863551827123203 forward_v I I I I #
loop $-1 $-1 $320 $82 #
coedge $-1 $209 $209 $210 $321 reversed $129 $-1 #
coedge $-1 $210 $210 $209 $321 forward $131 $-1 #
coedge $-1 $211 $211 $132 $212 forward $206 $-1 #
edge $-1 $322 0 $322 6.2831853071796004 $211 $323 forward 7 unknown #
loop $-1 $-1 $218 $133 #
plane-surface $-1 -10.313807605915969 9.4329194829557004 89.07816593914211 0.79863551827123203 0 0.60181501223851219 0.60181501223851219 0 -0.79863551827123203 forward_v I I I I #
loop $-1 $-1 $324 $85 #
coedge $-1 $216 $216 $217 $325 reversed $134 $-1 #
coedge $-1 $217 $217 $216 $325 forward $136 $-1 #
coedge $-1 $218 $218 $137 $219 forward $213 $-1 #
edge $-1 $326 0 $326 6.2831853071796004 $218 $327 forward 7 unknown #
face $-1 $328 $329 $33 $-1 $330 reversed single #
loop $-1 $-1 $331 $138 #
plane-surface $-1 -50.649739066743976 0 0 1 0 0 0 0 -1 forward_v I I I I #
coedge $-1 $332 $231 $333 $334 forward $139 $-1 #
coedge $-1 $335 $141 $332 $336 forward $89 $-1 #
coedge $-1 $141 $335 $337 $338 forward $89 $-1 #
coedge $-1 $234 $233 $141 $227 reversed $235 $-1 #
edge $-1 $339 -29.692089839938706 $340 29.692089839938706 $226 $341 forward 7 unknown #
coedge $-1 $143 $142 $342 $343 forward $56 $-1 #
coedge $-1 $344 $345 $142 $230 reversed $329 $-1 #
edge $-1 $237 -50.649739066743976 $346 50.649739066743976 $229 $347 forward 7 unknown #
coedge $-1 $223 $348 $143 $232 reversed $139 $-1 #
edge $-1 $349 -50.649739066743976 $236 50.649739066743976 $231 $350 forward 7 unknown #
coedge $-1 $226 $144 $348 $351 forward $235 $-1 #
coedge $-1 $144 $226 $344 $352 reversed $235 $-1 #
loop $-1 $-1 $233 $328 #
vertex $-1 $145 $353 #
vertex $-1 $145 $354 #
straight-curve $-1 50.649739066743976 0 13.810577801829213 0 1 0 I I #
face $-1 $355 $356 $34 $-1 $357 reversed single #
loop $-1 $-1 $358 $146 #
plane-surface $-1 -50.649739066743976 0 0 1 0 0 0 0 -1 forward_v I I I I #
coedge $-1 $359 $248 $253 $360 reversed $147 $-1 #
coedge $-1 $361 $149 $362 $363 reversed $93 $-1 #
coedge $-1 $149 $361 $359 $364 forward $93 $-1 #
coedge $-1 $253 $252 $149 $246 forward $254 $-1 #
edge $-1 $365 -18.150076139647979 $366 -4.9339512609334815 $245 $367 forward 7 unknown #
coedge $-1 $151 $150 $358 $368 reversed $59 $-1 #
coedge $-1 $242 $369 $150 $249 reversed $147 $-1 #
edge $-1 $255 -50.649739066743976 $370 50.649739066743976 $248 $371 forward 7 unknown #
coedge $-1 $372 $373 $151 $251 forward $356 $-1 #
edge $-1 $256 -50.649739066743976 $374 50.649739066743976 $250 $375 forward 7 unknown #
coedge $-1 $245 $152 $373 $376 forward $254 $-1 #
coedge $-1 $152 $245 $242 $360 forward $254 $-1 #
loop $-1 $-1 $152 $355 #
vertex $-1 $153 $377 #
vertex $-1 $376 $378 #
straight-curve $-1 50.649739066743976 -11.542013700290729 5.9101339588044786 0 -1 0 I I #
face $-1 $-1 $270 $35 $-1 $379 forward single #
loop $-1 $-1 $380 $154 #
plane-surface $-1 -50.649739066743976 0 0 1 0 0 0 0 -1 forward_v I I I I #
coedge $-1 $381 $382 $383 $384 reversed $155 $-1 #
coedge $-1 $385 $157 $159 $268 forward $97 $-1 #
coedge $-1 $157 $385 $381 $386 forward $97 $-1 #
coedge $-1 $383 $160 $157 $265 forward $270 $-1 #
edge $-1 $272 -8.5698103173905871 $387 2.958503529092237 $264 $388 forward 7 unknown #
coedge $-1 $389 $390 $158 $267 forward $259 $-1 #
edge $-1 $391 -28.648736049610221 $271 -23.999122444179605 $266 $392 forward 7 unknown #
edge $-1 $272 -6.1607983735862044 $391 -2.1388861263899031e-014 $159 $393 forward 7 unknown #
coedge $-1 $160 $383 $389 $394 forward $270 $-1 #
loop $-1 $-1 $383 $258 #
vertex $-1 $267 $395 #
vertex $-1 $161 $396 #
straight-curve $-1 -63.550713262641551 -11.375463711539762 13.810577801829211 1 0 0 I I #
coedge $-1 $274 $274 $-1 $397 reversed $164 $-1 #
edge $-1 $398 0 $398 6.2831853071796004 $165 $399 forward 7 unknown #
vertex $-1 $168 $400 #
ellipse-curve $-1 -48.628815396724711 -8.0816597554018124 11.485770999113901 -0.75470958851134928 0 0.65605901945558964 0.98408852918338452 0 1.132064382767024 1 I I #
coedge $-1 $278 $278 $-1 $401 reversed $171 $-1 #
edge $-1 $402 0 $402 6.2831853071796004 $172 $403 forward 7 unknown #
vertex $-1 $175 $404 #
ellipse-curve $-1 -48.628815396724711 -3.1409538211948878 11.485770999113901 -0.75470958851134928 0 0.65605901945558964 0.98408852918338452 0 1.132064382767024 1 I I #
face $-1 $-1 $405 $38 $-1 $406 reversed single #
loop $-1 $-1 $182 $176 #
plane-surface $-1 0 0 13.810577801829213 0 0 1 1 0 0 forward_v I I I I #
coedge $-1 $407 $408 $409 $410 reversed $177 $-1 #
coedge $-1 $411 $179 $181 $292 forward $111 $-1 #
coedge $-1 $179 $411 $407 $412 forward $111 $-1 #
coedge $-1 $409 $182 $179 $289 forward $283 $-1 #
edge $-1 $295 3.6495589102650161 $413 15.17787275674784 $288 $414 forward 7 unknown #
coedge $-1 $415 $416 $180 $291 forward $405 $-1 #
edge $-1 $417 -28.648736049610221 $294 -23.999122444179605 $290 $418 forward 7 unknown #
edge $-1 $295 -6.1607983735862044 $417 -2.1388861263899031e-014 $181 $419 forward 7 unknown #
coedge $-1 $182 $409 $415 $420 forward $283 $-1 #
vertex $-1 $183 $421 #
vertex $-1 $183 $422 #
straight-curve $-1 -63.550713262641551 13.063274743771444 13.810577801829211 1 0 0 I I #
coedge $-1 $297 $297 $-1 $423 reversed $186 $-1 #
edge $-1 $424 0 $424 6.2831853071796004 $187 $425 forward 7 unknown #
vertex $-1 $190 $426 #
ellipse-curve $-1 -48.628815396724711 16.35707869990939 11.485770999113901 -0.75470958851134928 0 0.65605901945558964 0.98408852918338452 0 1.132064382767024 1 I I #
coedge $-1 $301 $301 $-1 $427 reversed $193 $-1 #
edge $-1 $428 0 $428 6.2831853071796004 $194 $429 forward 7 unknown #
vertex $-1 $197 $430 #
ellipse-curve $-1 -48.628815396724711 21.297784634116315 11.485770999113901 -0.75470958851134928 0 0.65605901945558964 0.98408852918338452 0 1.132064382767024 1 I I #
face $-1 $-1 $431 $41 $-1 $432 reversed single #
loop $-1 $-1 $204 $198 #
plane-surface $-1 0 0 13.810577801829213 0 0 1 1 0 0 forward_v I I I I #
coedge $-1 $433 $434 $435 $436 reversed $199 $-1 #
coedge $-1 $437 $201 $203 $315 forward $125 $-1 #
coedge $-1 $201 $437 $433 $438 forward $125 $-1 #
coedge $-1 $435 $204 $201 $312 forward $306 $-1 #
edge $-1 $318 -9.3974939207956982 $439 -0.035425562160002144 $311 $440 forward 7 unknown #
coedge $-1 $441 $442 $202 $314 forward $431 $-1 #
edge $-1 $443 -66.844051586502403 $317 -61.210278504071823 $313 $444 forward 7 unknown #
edge $-1 $318 94.245230039656931 $443 101.29947813348795 $203 $445 forward 7 unknown #
coedge $-1 $204 $435 $441 $446 forward $306 $-1 #
vertex $-1 $314 $447 #
vertex $-1 $205 $448 #
straight-curve $-1 35.293776806913762 14.113953662273548 13.810577801829211 -1 0 0 I I #
coedge $-1 $320 $320 $-1 $449 reversed $208 $-1 #
edge $-1 $450 0 $450 6.2831853071796004 $209 $451 forward 7 unknown #
vertex $-1 $212 $452 #
ellipse-curve $-1 48.527062865282765 7.4267619775337685 10.993691260613925 0.79863551827123203 0 0.60181501223851219 0.60181501223851219 0 -0.79863551827123203 1 I I #
coedge $-1 $324 $324 $-1 $453 reversed $215 $-1 #
edge $-1 $454 0 $454 6.2831853071796004 $216 $455 forward 7 unknown #
vertex $-1 $219 $456 #
ellipse-curve $-1 48.527062865282765 11.439076988377639 10.993691260613925 0.79863551827123203 0 0.60181501223851219 0.60181501223851219 0 -0.79863551827123203 1 I I #
face $-1 $-1 $235 $33 $-1 $457 reversed single #
loop $-1 $-1 $344 $220 #
plane-surface $-1 0 29.692089839938706 0 0 -1 0 0 0 -1 forward_v I I I I #
coedge $-1 $458 $342 $345 $459 forward $221 $-1 #
coedge $-1 $348 $223 $224 $336 reversed $139 $-1 #
coedge $-1 $342 $458 $223 $334 reversed $221 $-1 #
edge $-1 $349 -13.810577801829213 $460 13.810577801829213 $333 $461 forward 7 unknown #
coedge $-1 $225 $224 $458 $462 forward $89 $-1 #
edge $-1 $340 -50.649739066743976 $460 50.649739066743976 $332 $463 forward 7 unknown #
coedge $-1 $345 $344 $225 $338 reversed $329 $-1 #
edge $-1 $464 -50.649739066743976 $339 50.649739066743976 $337 $465 forward 7 unknown #
vertex $-1 $227 $466 #
vertex $-1 $351 $467 #
straight-curve $-1 50.649739066743976 0 -13.810577801829213 0 -1 0 I I #
coedge $-1 $331 $333 $228 $343 reversed $221 $-1 #
edge $-1 $346 -29.692089839938706 $349 29.692089839938706 $342 $468 forward 7 unknown #
coedge $-1 $337 $229 $234 $352 forward $329 $-1 #
coedge $-1 $229 $337 $331 $459 reversed $329 $-1 #
vertex $-1 $230 $469 #
straight-curve $-1 0 29.692089839938706 13.810577801829213 -1 0 0 I I #
coedge $-1 $231 $332 $233 $351 reversed $139 $-1 #
vertex $-1 $343 $470 #
straight-curve $-1 0 -29.692089839938706 13.810577801829213 1 0 0 I I #
edge $-1 $236 -13.810577801829213 $340 13.810577801829213 $233 $471 forward 7 unknown #
edge $-1 $237 -13.810577801829213 $339 13.810577801829213 $234 $472 forward 7 unknown #
point $-1 50.649739066743976 -29.692089839938706 13.810577801829213 #
point $-1 50.649739066743976 29.692089839938706 13.810577801829213 #
face $-1 $-1 $254 $34 $-1 $473 reversed single #
loop $-1 $-1 $250 $239 #
plane-surface $-1 0 -29.692089839938706 0 0 1 0 0 0 1 forward_v I I I I #
coedge $-1 $474 $475 $247 $368 forward $240 $-1 #
coedge $-1 $369 $242 $244 $364 reversed $147 $-1 #
edge $-1 $366 -1.8594579908850939 $255 4.5599086361646837 $253 $476 forward 7 unknown #
coedge $-1 $244 $243 $477 $478 reversed $93 $-1 #
coedge $-1 $373 $372 $243 $363 forward $356 $-1 #
edge $-1 $479 -50.649739066743976 $365 50.649739066743976 $362 $480 forward 7 unknown #
edge $-1 $481 -50.649739066743976 $366 50.649739066743976 $359 $482 forward 7 unknown #
vertex $-1 $363 $483 #
vertex $-1 $246 $484 #
straight-curve $-1 50.649739066743976 -11.542013700290729 -0.509232668245299 0 1 0 I I #
edge $-1 $374 -18.150076139647979 $370 -4.9339512609334815 $358 $485 forward 7 unknown #
coedge $-1 $248 $359 $474 $486 reversed $147 $-1 #
vertex $-1 $368 $487 #
straight-curve $-1 0 -16.475964961224211 5.9101339588044786 -1 0 0 I I #
coedge $-1 $362 $250 $475 $488 forward $356 $-1 #
coedge $-1 $250 $362 $252 $376 reversed $356 $-1 #
vertex $-1 $488 $489 #
straight-curve $-1 0 -29.692089839938706 5.9101339588044786 -1 0 0 I I #
edge $-1 $256 -5.9101339588044786 $365 0.509232668245299 $252 $490 forward 7 unknown #
point $-1 50.649739066743976 -16.475964961224211 5.9101339588044786 #
point $-1 50.649739066743976 -29.692089839938706 5.9101339588044786 #
plane-surface $-1 0 0 13.810577801829213 0 0 1 1 0 0 forward_v I I I I #
coedge $-1 $390 $389 $382 $491 forward $259 $-1 #
coedge $-1 $382 $261 $263 $386 reversed $155 $-1 #
coedge $-1 $261 $381 $380 $491 reversed $155 $-1 #
coedge $-1 $269 $264 $261 $384 forward $270 $-1 #
edge $-1 $387 -16.942821535936119 $492 -12.900974195897575 $383 $493 forward 7 unknown #
coedge $-1 $263 $262 $390 $494 reversed $97 $-1 #
edge $-1 $495 2.1388861263899031e-014 $387 6.1607983735862044 $381 $496 forward 7 unknown #
vertex $-1 $265 $497 #
straight-curve $-1 -46.607891726705432 -2.805653394149175 13.810577801829213 0 1 0 I I #
coedge $-1 $380 $266 $269 $394 reversed $259 $-1 #
coedge $-1 $266 $380 $385 $494 forward $259 $-1 #
vertex $-1 $267 $498 #
straight-curve $-1 -50.649739066743976 -11.375463711539762 37.809700246008816 0 0 1 I I #
straight-curve $-1 -50.64973906674399 -11.375463711539762 9.1609641963985808 -0.65605901945558964 0 -0.75470958851134928 I I #
edge $-1 $492 -0.15285013494306199 $271 11.375463711539762 $389 $499 forward 7 unknown #
point $-1 -50.649739066743976 -11.375463711539762 13.810577801829213 #
point $-1 -46.607891726705432 -11.375463711539762 13.810577801829213 #
edge $-1 $500 1 $500 0 $274 $-1 forward 7 unknown #
vertex $-1 $275 $501 #
ellipse-curve $-1 -46.75360379653408 -8.0816597554018124 9.8556744660627515 -0.75470958851134928 0 0.65605901945558964 0.98408852918338452 0 1.132064382767024 1 I I #
point $-1 -47.644726867541308 -8.0816597554018124 12.617835381880912 #
edge $-1 $502 1 $502 0 $278 $-1 forward 7 unknown #
vertex $-1 $279 $503 #
ellipse-curve $-1 -46.75360379653408 -3.1409538211948878 9.8556744660627515 -0.75470958851134928 0 0.65605901945558964 0.98408852918338452 0 1.132064382767024 1 I I #
point $-1 -47.644726867541308 -3.1409538211948878 12.617835381880912 #
loop $-1 $-1 $290 $282 #
plane-surface $-1 -50.649739066743976 0 0 1 0 0 0 0 -1 forward_v I I I I #
coedge $-1 $408 $285 $287 $412 reversed $177 $-1 #
coedge $-1 $285 $407 $504 $505 reversed $177 $-1 #
coedge $-1 $293 $288 $285 $410 forward $283 $-1 #
edge $-1 $413 -16.942821535936119 $506 -12.900974195897575 $409 $507 forward 7 unknown #
coedge $-1 $287 $286 $416 $508 reversed $111 $-1 #
edge $-1 $509 2.1388861263899031e-014 $413 6.1607983735862044 $407 $510 forward 7 unknown #
vertex $-1 $289 $511 #
straight-curve $-1 -46.607891726705432 9.4137158335064282 13.810577801829213 0 1 0 I I #
coedge $-1 $504 $290 $293 $420 reversed $405 $-1 #
coedge $-1 $290 $504 $411 $508 forward $405 $-1 #
vertex $-1 $291 $512 #
straight-curve $-1 -50.649739066743976 13.063274743771444 37.809700246008816 0 0 1 I I #
straight-curve $-1 -50.64973906674399 13.063274743771444 9.1609641963985808 -0.65605901945558964 0 -0.75470958851134928 I I #
edge $-1 $506 -24.591588590254268 $294 -13.063274743771444 $415 $513 forward 7 unknown #
point $-1 -50.649739066743976 13.063274743771444 13.810577801829213 #
point $-1 -46.607891726705432 13.063274743771444 13.810577801829213 #
edge $-1 $514 1 $514 0 $297 $-1 forward 7 unknown #
vertex $-1 $298 $515 #
ellipse-curve $-1 -46.75360379653408 16.35707869990939 9.8556744660627515 -0.75470958851134928 0 0.65605901945558964 0.98408852918338452 0 1.132064382767024 1 I I #
point $-1 -47.644726867541308 16.35707869990939 12.617835381880912 #
edge $-1 $516 1 $516 0 $301 $-1 forward 7 unknown #
vertex $-1 $302 $517 #
ellipse-curve $-1 -46.75360379653408 21.297784634116315 9.8556744660627515 -0.75470958851134928 0 0.65605901945558964 0.98408852918338452 0 1.132064382767024 1 I I #
point $-1 -47.644726867541308 21.297784634116315 12.617835381880912 #
loop $-1 $-1 $313 $305 #
plane-surface $-1 50.649739066743976 0 0 -1 0 0 0 0 1 forward_v I I I I #
coedge $-1 $434 $308 $310 $438 reversed $199 $-1 #
coedge $-1 $308 $433 $518 $519 reversed $199 $-1 #
coedge $-1 $316 $311 $308 $436 forward $306 $-1 #
edge $-1 $439 11.1106098569078 $520 15.355962259830214 $435 $521 forward 7 unknown #
coedge $-1 $310 $309 $442 $522 reversed $125 $-1 #
edge $-1 $523 -101.29947813348795 $439 -94.245230039656931 $433 $524 forward 7 unknown #
vertex $-1 $312 $525 #
straight-curve $-1 46.404386663821569 4.7164597414778502 13.810577801829211 0 -1 0 I I #
coedge $-1 $518 $313 $316 $446 reversed $431 $-1 #
coedge $-1 $313 $518 $437 $522 forward $431 $-1 #
vertex $-1 $314 $526 #
straight-curve $-1 50.649739066743976 14.113953662273548 75.020856305901034 0 0 1 I I #
straight-curve $-1 -10.313807605915969 14.113953662273548 89.07816593914211 0.60181501223851219 0 -0.79863551827123203 I I #
edge $-1 $520 4.7518853036378523 $317 14.113953662273548 $441 $527 forward 7 unknown #
point $-1 50.649739066743976 14.113953662273548 13.810577801829213 #
point $-1 46.404386663821562 14.113953662273548 13.810577801829211 #
edge $-1 $528 1 $528 0 $320 $-1 forward 7 unknown #
vertex $-1 $321 $529 #
ellipse-curve $-1 46.481813044419951 7.4267619775337685 9.4524850184500995 0.79863551827123203 0 0.60181501223851219 0.60181501223851219 0 -0.79863551827123203 1 I I #
point $-1 49.12887787752129 7.4267619775337685 10.195055742342706 #
edge $-1 $530 1 $530 0 $324 $-1 forward 7 unknown #
vertex $-1 $325 $531 #
ellipse-curve $-1 46.481813044419951 11.439076988377639 9.4524850184500995 0.79863551827123203 0 0.60181501223851219 0.60181501223851219 0 -0.79863551827123203 1 I I #
point $-1 49.12887787752129 11.439076988377639 10.195055742342706 #
plane-surface $-1 50.649739066743976 0 0 -1 0 0 0 0 1 forward_v I I I I #
coedge $-1 $333 $331 $335 $462 reversed $221 $-1 #
edge $-1 $346 -13.810577801829213 $464 13.810577801829213 $345 $532 forward 7 unknown #
vertex $-1 $462 $533 #
straight-curve $-1 -50.649739066743976 -29.692089839938706 0 0 0 -1 I I #
edge $-1 $460 -29.692089839938706 $464 29.692089839938706 $458 $534 forward 7 unknown #
straight-curve $-1 0 -29.692089839938706 -13.810577801829213 -1 0 0 I I #
vertex $-1 $338 $535 #
straight-curve $-1 0 29.692089839938706 -13.810577801829213 1 0 0 I I #
point $-1 50.649739066743976 29.692089839938706 -13.810577801829213 #
point $-1 50.649739066743976 -29.692089839938706 -13.810577801829213 #
straight-curve $-1 -50.649739066743976 0 13.810577801829213 0 -1 0 I I #
point $-1 -50.649739066743976 29.692089839938706 13.810577801829213 #
point $-1 -50.649739066743976 -29.692089839938706 13.810577801829213 #
straight-curve $-1 50.649739066743976 -29.692089839938706 0 0 0 -1 I I #
straight-curve $-1 50.649739066743976 29.692089839938706 0 0 0 -1 I I #
plane-surface $-1 50.649739066743976 0 0 -1 0 0 0 0 1 forward_v I I I I #
coedge $-1 $477 $358 $369 $486 forward $240 $-1 #
coedge $-1 $358 $477 $372 $488 reversed $240 $-1 #
straight-curve $-1 50.649739066743976 -16.475964961224211 1.3502253226397949 0 0 1 I I #
coedge $-1 $475 $474 $361 $478 forward $240 $-1 #
edge $-1 $481 4.9339512609334815 $479 18.150076139647979 $477 $536 forward 7 unknown #
vertex $-1 $363 $537 #
straight-curve $-1 0 -29.692089839938706 -0.509232668245299 1 0 0 I I #
vertex $-1 $478 $538 #
straight-curve $-1 0 -16.475964961224211 -0.509232668245299 1 0 0 I I #
point $-1 50.649739066743976 -29.692089839938706 -0.509232668245299 #
point $-1 50.649739066743976 -16.475964961224211 -0.509232668245299 #
straight-curve $-1 -50.649739066743976 -11.542013700290729 5.9101339588044786 0 1 0 I I #
edge $-1 $370 -4.5599086361646837 $481 1.8594579908850939 $474 $539 forward 7 unknown #
point $-1 -50.649739066743976 -16.475964961224211 5.9101339588044786 #
edge $-1 $374 -5.9101339588044786 $479 0.509232668245299 $475 $540 forward 7 unknown #
point $-1 -50.649739066743976 -29.692089839938706 5.9101339588044786 #
straight-curve $-1 50.649739066743976 -29.692089839938706 0 0 0 -1 I I #
edge $-1 $492 23.999122444179605 $495 28.648736049610221 $380 $541 forward 7 unknown #
vertex $-1 $394 $542 #
straight-curve $-1 -63.550713262641551 0.15285013494306199 13.810577801829211 -1 0 0 I I #
edge $-1 $495 -2.958503529092237 $391 8.5698103173905871 $390 $543 forward 7 unknown #
vertex $-1 $494 $544 #
straight-curve $-1 -50.64973906674399 0.15285013494306199 9.1609641963985808 0.65605901945558964 0 0.75470958851134928 I I #
point $-1 -46.607891726705432 0.15285013494306199 13.810577801829213 #
point $-1 -50.649739066743976 -11.375463711539762 9.1609641963985968 #
straight-curve $-1 -50.649739066743976 0 13.810577801829213 0 -1 0 I I #
vertex $-1 $397 $545 #
point $-1 -45.769515267350691 -8.0816597554018124 10.987738848829775 #
vertex $-1 $401 $546 #
point $-1 -45.769515267350691 -3.1409538211948878 10.987738848829775 #
coedge $-1 $416 $415 $408 $505 forward $405 $-1 #
edge $-1 $506 23.999122444179605 $509 28.648736049610221 $504 $547 forward 7 unknown #
vertex $-1 $420 $548 #
straight-curve $-1 -63.550713262641551 24.591588590254268 13.810577801829211 -1 0 0 I I #
edge $-1 $509 -15.17787275674784 $417 -3.6495589102650161 $416 $549 forward 7 unknown #
vertex $-1 $508 $550 #
straight-curve $-1 -50.64973906674399 24.591588590254268 9.1609641963985808 0.65605901945558964 0 0.75470958851134928 I I #
point $-1 -46.607891726705432 24.591588590254268 13.810577801829213 #
point $-1 -50.649739066743976 13.063274743771444 9.1609641963985968 #
straight-curve $-1 -50.649739066743976 0 13.810577801829213 0 -1 0 I I #
vertex $-1 $423 $551 #
point $-1 -45.769515267350691 16.35707869990939 10.987738848829775 #
vertex $-1 $427 $552 #
point $-1 -45.769515267350691 21.297784634116315 10.987738848829775 #
coedge $-1 $442 $441 $434 $519 forward $431 $-1 #
edge $-1 $520 61.210278504071823 $523 66.844051586502403 $518 $553 forward 7 unknown #
vertex $-1 $446 $554 #
straight-curve $-1 35.293776806913762 4.7518853036378523 13.810577801829211 1 0 0 I I #
edge $-1 $523 0.035425562160002144 $443 9.3974939207956982 $442 $555 forward 7 unknown #
vertex $-1 $522 $556 #
straight-curve $-1 -10.313807605915969 4.7518853036378523 89.07816593914211 -0.60181501223851219 0 0.79863551827123203 I I #
point $-1 46.404386663821562 4.7518853036378523 13.810577801829211 #
point $-1 50.649739066743976 14.113953662273548 8.176804719398632 #
straight-curve $-1 50.649739066743976 0 13.810577801829213 0 1 0 I I #
vertex $-1 $449 $557 #
point $-1 47.083628056658469 7.4267619775337685 8.6538495001788682 #
vertex $-1 $453 $558 #
point $-1 47.083628056658469 11.439076988377639 8.6538495001788682 #
straight-curve $-1 -50.649739066743976 29.692089839938706 0 0 0 -1 I I #
point $-1 -50.649739066743976 -29.692089839938706 -13.810577801829213 #
straight-curve $-1 -50.649739066743976 0 -13.810577801829213 0 1 0 I I #
point $-1 -50.649739066743976 29.692089839938706 -13.810577801829213 #
straight-curve $-1 -50.649739066743976 -11.542013700290729 -0.509232668245299 0 -1 0 I I #
point $-1 -50.649739066743976 -29.692089839938706 -0.509232668245299 #
point $-1 -50.649739066743976 -16.475964961224211 -0.509232668245299 #
straight-curve $-1 -50.649739066743976 -16.475964961224211 1.3502253226397949 0 0 -1 I I #
straight-curve $-1 -50.649739066743976 -29.692089839938706 0 0 0 -1 I I #
straight-curve $-1 -50.649739066743976 0.15285013494306199 37.809700246008816 0 0 -1 I I #
point $-1 -50.649739066743976 0.15285013494306199 13.810577801829213 #
straight-curve $-1 -50.649739066743976 -2.805653394149175 9.1609641963985933 0 -1 0 I I #
point $-1 -50.649739066743976 0.15285013494306199 9.1609641963985968 #
point $-1 -45.621539413767053 -8.0816597554018124 8.8715859368793666 #
point $-1 -45.621539413767053 -3.1409538211948878 8.8715859368793666 #
straight-curve $-1 -50.649739066743976 24.591588590254268 37.809700246008816 0 0 -1 I I #
point $-1 -50.649739066743976 24.591588590254268 13.810577801829213 #
straight-curve $-1 -50.649739066743976 9.4137158335064282 9.1609641963985933 0 -1 0 I I #
point $-1 -50.649739066743976 24.591588590254268 9.1609641963985968 #
point $-1 -45.621539413767053 16.35707869990939 8.8715859368793666 #
point $-1 -45.621539413767053 21.297784634116315 8.8715859368793666 #
straight-curve $-1 50.649739066743976 4.7518853036378523 75.020856305901034 0 0 -1 I I #
point $-1 50.649739066743976 4.7518853036378523 13.810577801829213 #
straight-curve $-1 50.649739066743976 4.7164597414778502 8.176804719398632 0 1 0 I I #
point $-1 50.649739066743976 4.7518853036378523 8.176804719398632 #
point $-1 45.683177526148725 7.4267619775337685 8.8506700062115886 #
point $-1 45.683177526148725 11.439076988377639 8.8506700062115886 #
End-of-ACIS-data 