500 0 9 0           
7 Unknown 11 ACIS 5.0 NT 24 Thu Mar 25 18:59:55 1999 
-1 9.9999999999999995e-007 1e-010 
body $-1 $9 $-1 $10 #
body $-1 $11 $-1 $12 #
body $-1 $13 $-1 $14 #
body $-1 $15 $-1 $16 #
body $-1 $17 $-1 $18 #
body $-1 $19 $-1 $20 #
body $-1 $21 $-1 $22 #
body $-1 $23 $-1 $24 #
body $-1 $25 $-1 $26 #
lump $-1 $-1 $27 $0 #
transform $-1 1 0 0 0 1 0 0 0 1 79.271217993713179 42.527567796553988 20.162274855980314 1 rotate no_reflect no_shear #
lump $-1 $-1 $28 $1 #
transform $-1 1 0 0 0 1 0 0 0 1 79.271217993713179 42.527567796553988 20.162274855980314 1 rotate no_reflect no_shear #
lump $-1 $-1 $29 $2 #
transform $-1 1 0 0 0 1 0 0 0 1 79.271217993713179 42.527567796553988 20.162274855980314 1 rotate no_reflect no_shear #
lump $-1 $-1 $30 $3 #
transform $-1 1 0 0 0 1 0 0 0 1 79.271217993713179 42.527567796553988 20.162274855980314 1 rotate no_reflect no_shear #
lump $-1 $-1 $31 $4 #
transform $-1 1 0 0 0 1 0 0 0 1 79.271217993713179 42.527567796553988 20.162274855980314 1 rotate no_reflect no_shear #
lump $-1 $-1 $32 $5 #
transform $-1 1 0 0 0 1 0 0 0 1 79.271217993713179 42.527567796553988 20.162274855980314 1 rotate no_reflect no_shear #
lump $-1 $-1 $33 $6 #
transform $-1 1 0 0 0 1 0 0 0 1 79.271217993713179 42.527567796553988 20.162274855980314 1 rotate no_reflect no_shear #
lump $-1 $-1 $34 $7 #
transform $-1 1 0 0 0 1 0 0 0 1 79.271217993713179 42.527567796553988 20.162274855980314 1 rotate no_reflect no_shear #
lump $-1 $-1 $35 $8 #
transform $-1 1 0 0 0 1 0 0 0 1 79.271217993713179 42.527567796553988 20.162274855980314 1 rotate no_reflect no_shear #
shell $-1 $-1 $-1 $36 $-1 $9 #
shell $-1 $-1 $-1 $37 $-1 $11 #
shell $-1 $-1 $-1 $38 $-1 $13 #
shell $-1 $-1 $-1 $39 $-1 $15 #
shell $-1 $-1 $-1 $40 $-1 $17 #
shell $-1 $-1 $-1 $41 $-1 $19 #
shell $-1 $-1 $-1 $42 $-1 $21 #
shell $-1 $-1 $-1 $43 $-1 $23 #
shell $-1 $-1 $-1 $44 $-1 $25 #
face $-1 $45 $46 $27 $-1 $47 forward single #
face $-1 $48 $49 $28 $-1 $50 forward single #
face $-1 $51 $52 $29 $-1 $53 forward single #
face $-1 $54 $55 $30 $-1 $56 reversed single #
face $-1 $57 $58 $31 $-1 $59 forward single #
face $-1 $60 $61 $32 $-1 $62 reversed single #
face $-1 $63 $64 $33 $-1 $65 forward single #
face $-1 $66 $67 $34 $-1 $68 forward single #
face $-1 $69 $70 $35 $-1 $71 forward single #
face $-1 $72 $73 $27 $-1 $74 reversed single #
loop $-1 $-1 $75 $36 #
plane-surface $-1 0 0 20.162274855980314 0 0 1 1 0 0 forward_v I I I I #
face $-1 $76 $77 $28 $-1 $78 reversed single #
loop $-1 $-1 $79 $37 #
plane-surface $-1 0 -33.871271326128088 -11.467739000960112 0 0 1 1 0 0 forward_v I I I I #
face $-1 $80 $81 $29 $-1 $82 reversed single #
loop $-1 $-1 $83 $38 #
plane-surface $-1 0 33.871271326128088 -11.467739000960112 0 0 1 1 0 0 forward_v I I I I #
face $-1 $84 $85 $30 $-1 $86 reversed single #
loop $-1 $-1 $87 $39 #
plane-surface $-1 48.066820667256437 -12.302353130888822 237.13889980542254 0 1 0 0.6018150307709319 0 0.79863550430605224 forward_v I I I I #
face $-1 $88 $89 $31 $-1 $90 forward single #
loop $-1 $91 $92 $40 #
cone-surface $-1 74.6919269705446 -8.1905878091624587 16.008600122011799 -0.6018150307709319 0 -0.79863550430605224 1.5972710086121045 0 -1.2036300615418638 1 I I 0 1 2 forward I I I I #
face $-1 $93 $94 $32 $-1 $95 reversed single #
loop $-1 $-1 $96 $41 #
plane-surface $-1 -158.54243704946032 15.310479609244588 154.04084761115402 0 -1 0 0.50000000669873634 0 -0.8660253999169214 forward_v I I I I #
face $-1 $97 $98 $33 $-1 $99 forward single #
loop $-1 $100 $101 $42 #
cone-surface $-1 -75.397917465169428 4.3453292643208101 16.8767252585906 0.50000000669873634 0 -0.8660253999169214 0.8660253999169214 0 0.50000000669873634 1 I I 0 1 1 forward I I I I #
face $-1 $102 $103 $34 $-1 $104 forward single #
loop $-1 $105 $106 $43 #
cone-surface $-1 -75.397917465169428 8.457260643667226 16.8767252585906 0.50000000669873634 0 -0.8660253999169214 0.8660253999169214 0 0.50000000669873634 1 I I 0 1 1 forward I I I I #
face $-1 $107 $108 $35 $-1 $109 forward single #
loop $-1 $110 $111 $44 #
cone-surface $-1 -75.397917465169428 12.569192023013642 16.8767252585906 0.50000000669873634 0 -0.8660253999169214 0.8660253999169214 0 0.50000000669873634 1 I I 0 1 1 forward I I I I #
face $-1 $112 $113 $27 $-1 $114 reversed single #
loop $-1 $-1 $115 $45 #
plane-surface $-1 0 0 -20.162274855980314 0 0 1 1 0 0 forward_v I I I I #
coedge $-1 $116 $117 $118 $119 forward $46 $-1 #
face $-1 $120 $121 $28 $-1 $122 reversed single #
loop $-1 $-1 $123 $48 #
plane-surface $-1 0 -33.871271326128088 -17.18494718592839 0 0 1 1 0 0 forward_v I I I I #
coedge $-1 $124 $125 $126 $127 reversed $49 $-1 #
face $-1 $128 $129 $29 $-1 $130 reversed single #
loop $-1 $-1 $131 $51 #
plane-surface $-1 0 33.871271326128088 -17.18494718592839 0 0 1 1 0 0 forward_v I I I I #
coedge $-1 $132 $133 $134 $135 reversed $52 $-1 #
face $-1 $136 $137 $30 $-1 $138 reversed single #
loop $-1 $-1 $139 $54 #
plane-surface $-1 -47.346400325015054 -8.1905878091624587 110.52128148669429 0.6018150307709319 0 0.79863550430605224 0.79863550430605224 0 -0.6018150307709319 forward_v I I I I #
coedge $-1 $140 $141 $142 $143 reversed $55 $-1 #
face $-1 $-1 $144 $31 $-1 $145 forward single #
loop $-1 $146 $147 $57 #
cone-surface $-1 72.864405347973104 -8.1905878091624587 13.583397064515992 -0.6018150307709319 0 -0.79863550430605224 0.79863550430605224 0 -0.6018150307709319 1 I I -0.70710678118654746 0.70710678118654746 1 forward I I I I #
loop $-1 $-1 $148 $40 #
coedge $-1 $92 $92 $149 $150 reversed $58 $-1 #
face $-1 $151 $152 $32 $-1 $153 reversed single #
loop $-1 $-1 $154 $60 #
plane-surface $-1 -79.271217993713165 8.457260643667226 16.739071081340199 -0.50000000669873634 0 0.8660253999169214 0.8660253999169214 0 0.50000000669873634 forward_v I I I I #
coedge $-1 $155 $156 $157 $158 reversed $61 $-1 #
face $-1 $-1 $159 $33 $-1 $160 forward single #
loop $-1 $161 $162 $63 #
cone-surface $-1 -74.239198311488238 4.3453292643208101 14.86976484856249 0.50000000669873634 0 -0.8660253999169214 0.4330126999584607 0 0.25000000334936817 1 I I -0.70710678118655002 0.70710678118654502 0.5 forward I I I I #
loop $-1 $-1 $163 $42 #
coedge $-1 $101 $101 $164 $165 reversed $64 $-1 #
face $-1 $-1 $166 $34 $-1 $167 forward single #
loop $-1 $168 $169 $66 #
cone-surface $-1 -74.239198311488238 8.457260643667226 14.86976484856249 0.50000000669873634 0 -0.8660253999169214 0.4330126999584607 0 0.25000000334936817 1 I I -0.70710678118655002 0.70710678118654502 0.5 forward I I I I #
loop $-1 $-1 $170 $43 #
coedge $-1 $106 $106 $171 $172 reversed $67 $-1 #
face $-1 $-1 $173 $35 $-1 $174 forward single #
loop $-1 $175 $176 $69 #
cone-surface $-1 -74.239198311488238 12.569192023013642 14.86976484856249 0.50000000669873634 0 -0.8660253999169214 0.4330126999584607 0 0.25000000334936817 1 I I -0.70710678118655002 0.70710678118654502 0.5 forward I I I I #
loop $-1 $-1 $177 $44 #
coedge $-1 $111 $111 $178 $179 reversed $70 $-1 #
face $-1 $180 $181 $27 $-1 $182 reversed single #
loop $-1 $-1 $183 $72 #
plane-surface $-1 0 -42.527567796553988 0 0 1 0 0 0 1 forward_v I I I I #
coedge $-1 $184 $185 $186 $187 forward $73 $-1 #
coedge $-1 $188 $75 $189 $190 forward $46 $-1 #
coedge $-1 $75 $188 $191 $192 forward $46 $-1 #
coedge $-1 $193 $194 $75 $119 reversed $195 $-1 #
edge $-1 $196 -42.527567796553988 $197 42.527567796553988 $118 $198 forward 7 unknown #
face $-1 $199 $200 $28 $-1 $201 reversed single #
loop $-1 $-1 $202 $76 #
plane-surface $-1 0 -25.214974855702188 -14.326343093444251 0 -1 0 0 0 -1 forward_v I I I I #
coedge $-1 $203 $204 $205 $206 reversed $77 $-1 #
coedge $-1 $207 $79 $208 $209 forward $49 $-1 #
coedge $-1 $79 $207 $210 $211 reversed $49 $-1 #
coedge $-1 $212 $213 $79 $127 forward $214 $-1 #
edge $-1 $215 8.2793391926381439 $216 25.591932133489944 $126 $217 forward 7 unknown #
face $-1 $218 $219 $29 $-1 $220 reversed single #
loop $-1 $-1 $221 $80 #
plane-surface $-1 0 25.214974855702188 -14.326343093444251 0 1 0 0 0 1 forward_v I I I I #
coedge $-1 $222 $223 $224 $225 reversed $81 $-1 #
coedge $-1 $226 $83 $227 $228 reversed $52 $-1 #
coedge $-1 $83 $226 $229 $230 forward $52 $-1 #
coedge $-1 $231 $232 $83 $135 forward $219 $-1 #
edge $-1 $233 -25.591932133489944 $234 -8.2793391926381439 $134 $235 forward 7 unknown #
face $-1 $236 $237 $30 $-1 $238 forward single #
loop $-1 $-1 $239 $84 #
plane-surface $-1 48.066820667256437 -4.0788224874360957 237.13889980542254 0 -1 0 -0.6018150307709319 0 -0.79863550430605224 forward_v I I I I #
coedge $-1 $240 $241 $242 $243 reversed $85 $-1 #
coedge $-1 $141 $87 $244 $245 reversed $55 $-1 #
coedge $-1 $87 $140 $240 $246 reversed $55 $-1 #
coedge $-1 $242 $247 $87 $143 forward $248 $-1 #
edge $-1 $249 98.407175046730956 $250 103.46138940828845 $142 $251 forward 7 unknown #
loop $-1 $-1 $149 $88 #
plane-surface $-1 -47.346400325015054 -8.1905878091624587 110.52128148669429 0.6018150307709319 0 0.79863550430605224 0.79863550430605224 0 -0.6018150307709319 forward_v I I I I #
loop $-1 $-1 $252 $57 #
coedge $-1 $147 $147 $148 $253 reversed $89 $-1 #
coedge $-1 $148 $148 $147 $253 forward $91 $-1 #
coedge $-1 $149 $149 $92 $150 forward $144 $-1 #
edge $-1 $254 0 $254 6.2831853071796004 $149 $255 forward 7 unknown #
face $-1 $256 $257 $32 $-1 $258 reversed single #
loop $-1 $-1 $259 $93 #
plane-surface $-1 -158.54243704946032 1.6040416780898639 154.04084761115402 0 1 0 -0.50000000669873634 0 0.8660253999169214 forward_v I I I I #
coedge $-1 $260 $261 $262 $263 reversed $94 $-1 #
coedge $-1 $156 $96 $264 $265 reversed $61 $-1 #
coedge $-1 $96 $155 $260 $266 reversed $61 $-1 #
coedge $-1 $262 $267 $96 $158 forward $257 $-1 #
edge $-1 $268 56.858148949596696 $269 60.281352724236818 $157 $270 forward 7 unknown #
loop $-1 $-1 $164 $97 #
plane-surface $-1 -79.271217993713165 8.457260643667226 16.739071081340199 -0.50000000669873634 0 0.8660253999169214 0.8660253999169214 0 0.50000000669873634 forward_v I I I I #
loop $-1 $-1 $271 $63 #
coedge $-1 $162 $162 $163 $272 reversed $98 $-1 #
coedge $-1 $163 $163 $162 $272 forward $100 $-1 #
coedge $-1 $164 $164 $101 $165 forward $159 $-1 #
edge $-1 $273 0 $273 6.2831853071796004 $164 $274 forward 7 unknown #
loop $-1 $-1 $171 $102 #
plane-surface $-1 -79.271217993713165 8.457260643667226 16.739071081340199 -0.50000000669873634 0 0.8660253999169214 0.8660253999169214 0 0.50000000669873634 forward_v I I I I #
loop $-1 $-1 $275 $66 #
coedge $-1 $169 $169 $170 $276 reversed $103 $-1 #
coedge $-1 $170 $170 $169 $276 forward $105 $-1 #
coedge $-1 $171 $171 $106 $172 forward $166 $-1 #
edge $-1 $277 0 $277 6.2831853071796004 $171 $278 forward 7 unknown #
loop $-1 $-1 $178 $107 #
plane-surface $-1 -79.271217993713165 8.457260643667226 16.739071081340199 -0.50000000669873634 0 0.8660253999169214 0.8660253999169214 0 0.50000000669873634 forward_v I I I I #
loop $-1 $-1 $279 $69 #
coedge $-1 $176 $176 $177 $280 reversed $108 $-1 #
coedge $-1 $177 $177 $176 $280 forward $110 $-1 #
coedge $-1 $178 $178 $111 $179 forward $173 $-1 #
edge $-1 $281 0 $281 6.2831853071796004 $178 $282 forward 7 unknown #
face $-1 $283 $284 $27 $-1 $285 reversed single #
loop $-1 $-1 $286 $112 #
plane-surface $-1 -79.271217993713179 0 0 1 0 0 0 0 -1 forward_v I I I I #
coedge $-1 $287 $191 $288 $289 forward $113 $-1 #
coedge $-1 $290 $115 $287 $291 forward $73 $-1 #
coedge $-1 $115 $290 $292 $293 forward $73 $-1 #
coedge $-1 $194 $193 $115 $187 reversed $195 $-1 #
edge $-1 $294 -42.527567796553988 $295 42.527567796553988 $186 $296 forward 7 unknown #
coedge $-1 $117 $116 $297 $298 forward $46 $-1 #
coedge $-1 $299 $300 $116 $190 reversed $284 $-1 #
edge $-1 $197 -79.271217993713179 $301 79.271217993713179 $189 $302 forward 7 unknown #
coedge $-1 $183 $303 $117 $192 reversed $113 $-1 #
edge $-1 $304 -79.271217993713179 $196 79.271217993713179 $191 $305 forward 7 unknown #
coedge $-1 $186 $118 $303 $306 forward $195 $-1 #
coedge $-1 $118 $186 $299 $307 reversed $195 $-1 #
loop $-1 $-1 $193 $283 #
vertex $-1 $119 $308 #
vertex $-1 $119 $309 #
straight-curve $-1 79.271217993713179 0 20.162274855980314 0 1 0 I I #
face $-1 $310 $311 $28 $-1 $312 reversed single #
loop $-1 $-1 $313 $120 #
plane-surface $-1 -79.271217993713179 0 0 1 0 0 0 0 -1 forward_v I I I I #
coedge $-1 $314 $208 $213 $315 reversed $121 $-1 #
coedge $-1 $316 $123 $317 $318 reversed $77 $-1 #
coedge $-1 $123 $316 $314 $319 forward $77 $-1 #
coedge $-1 $213 $212 $123 $206 forward $214 $-1 #
edge $-1 $320 -25.591932133489944 $321 -8.2793391926381439 $205 $322 forward 7 unknown #
coedge $-1 $125 $124 $313 $323 reversed $49 $-1 #
coedge $-1 $202 $324 $124 $209 reversed $121 $-1 #
edge $-1 $215 -79.271217993713179 $325 79.271217993713179 $208 $326 forward 7 unknown #
coedge $-1 $327 $328 $125 $211 forward $311 $-1 #
edge $-1 $216 -79.271217993713179 $329 79.271217993713179 $210 $330 forward 7 unknown #
coedge $-1 $205 $126 $328 $331 forward $214 $-1 #
coedge $-1 $126 $205 $202 $315 forward $214 $-1 #
loop $-1 $-1 $126 $310 #
vertex $-1 $127 $332 #
vertex $-1 $331 $333 #
straight-curve $-1 79.271217993713179 -16.935635663064044 -11.467739000960112 0 -1 0 I I #
face $-1 $334 $335 $29 $-1 $336 reversed single #
loop $-1 $-1 $134 $128 #
plane-surface $-1 79.271217993713179 0 0 -1 0 0 0 0 1 forward_v I I I I #
coedge $-1 $337 $229 $338 $339 reversed $129 $-1 #
coedge $-1 $340 $131 $337 $341 forward $81 $-1 #
coedge $-1 $131 $340 $342 $343 reversed $81 $-1 #
coedge $-1 $232 $231 $131 $225 forward $219 $-1 #
edge $-1 $344 8.2793391926381439 $345 25.591932133489944 $224 $346 forward 7 unknown #
coedge $-1 $133 $132 $347 $348 reversed $52 $-1 #
coedge $-1 $349 $350 $132 $228 forward $351 $-1 #
edge $-1 $352 -79.271217993713179 $233 79.271217993713179 $227 $353 forward 7 unknown #
coedge $-1 $221 $354 $133 $230 reversed $129 $-1 #
edge $-1 $355 -79.271217993713179 $234 79.271217993713179 $229 $356 forward 7 unknown #
coedge $-1 $224 $134 $354 $357 forward $219 $-1 #
coedge $-1 $134 $224 $349 $358 reversed $219 $-1 #
vertex $-1 $358 $359 #
vertex $-1 $135 $360 #
straight-curve $-1 79.271217993713179 16.935635663064044 -11.467739000960112 0 -1 0 I I #
face $-1 $-1 $248 $30 $-1 $361 reversed single #
loop $-1 $-1 $362 $136 #
plane-surface $-1 0 0 20.162274855980314 0 0 1 1 0 0 forward_v I I I I #
coedge $-1 $363 $364 $365 $366 reversed $137 $-1 #
coedge $-1 $367 $139 $141 $246 forward $85 $-1 #
coedge $-1 $139 $367 $363 $368 forward $85 $-1 #
coedge $-1 $365 $142 $139 $243 forward $248 $-1 #
edge $-1 $250 -8.2070592263075923 $369 0.016471417145133671 $242 $370 forward 7 unknown #
coedge $-1 $371 $372 $140 $245 forward $237 $-1 #
edge $-1 $373 48.53063879734885 $249 55.237807660084961 $244 $374 forward 7 unknown #
edge $-1 $250 -158.54243598742636 $373 -150.14415062874562 $141 $375 forward 7 unknown #
coedge $-1 $142 $365 $371 $376 reversed $248 $-1 #
loop $-1 $-1 $365 $236 #
vertex $-1 $376 $377 #
vertex $-1 $143 $378 #
straight-curve $-1 79.271217993713179 -12.302353130888822 118.56944990271127 0 0 -1 I I #
coedge $-1 $252 $252 $-1 $379 reversed $146 $-1 #
edge $-1 $380 0 $380 6.2831853071796004 $147 $381 forward 7 unknown #
vertex $-1 $150 $382 #
ellipse-curve $-1 75.917633562345145 -8.1905878091624587 17.635167675201544 0.6018150307709319 0 0.79863550430605224 1.5972710086121045 0 -1.2036300615418638 1 I I #
face $-1 $-1 $383 $32 $-1 $384 forward single #
loop $-1 $-1 $157 $151 #
plane-surface $-1 -79.271217993713179 0 0 1 0 0 0 0 -1 forward_v I I I I #
coedge $-1 $385 $386 $387 $388 reversed $152 $-1 #
coedge $-1 $389 $154 $156 $266 forward $94 $-1 #
coedge $-1 $154 $389 $385 $390 forward $94 $-1 #
coedge $-1 $387 $157 $154 $263 forward $257 $-1 #
edge $-1 $269 -11.081849287410975 $391 2.6245886437437491 $262 $392 forward 7 unknown #
coedge $-1 $393 $394 $155 $265 forward $383 $-1 #
edge $-1 $395 -5.9291632874408435 $268 -5.3101697972124384e-007 $264 $396 forward 7 unknown #
edge $-1 $269 -1.5859674864291968e-014 $395 6.846407457555677 $156 $397 forward 7 unknown #
coedge $-1 $157 $387 $393 $398 reversed $257 $-1 #
vertex $-1 $398 $399 #
vertex $-1 $158 $400 #
straight-curve $-1 -79.271217993713179 15.310479609244588 77.020423805577011 0 0 -1 I I #
coedge $-1 $271 $271 $-1 $401 reversed $161 $-1 #
edge $-1 $402 0 $402 6.2831853071796004 $162 $403 forward 7 unknown #
vertex $-1 $165 $404 #
ellipse-curve $-1 -76.306636615501262 4.3453292643208101 18.45067296866025 -0.50000000669873634 0 0.8660253999169214 0.8660253999169214 0 0.50000000669873634 1 I I #
coedge $-1 $275 $275 $-1 $405 reversed $168 $-1 #
edge $-1 $406 0 $406 6.2831853071796004 $169 $407 forward 7 unknown #
vertex $-1 $172 $408 #
ellipse-curve $-1 -76.306636615501262 8.457260643667226 18.45067296866025 -0.50000000669873634 0 0.8660253999169214 0.8660253999169214 0 0.50000000669873634 1 I I #
coedge $-1 $279 $279 $-1 $409 reversed $175 $-1 #
edge $-1 $410 0 $410 6.2831853071796004 $176 $411 forward 7 unknown #
vertex $-1 $179 $412 #
ellipse-curve $-1 -76.306636615501262 12.569192023013642 18.45067296866025 -0.50000000669873634 0 0.8660253999169214 0.8660253999169214 0 0.50000000669873634 1 I I #
face $-1 $-1 $195 $27 $-1 $413 reversed single #
loop $-1 $-1 $299 $180 #
plane-surface $-1 0 42.527567796553988 0 0 -1 0 0 0 -1 forward_v I I I I #
coedge $-1 $414 $297 $300 $415 forward $181 $-1 #
coedge $-1 $303 $183 $184 $291 reversed $113 $-1 #
coedge $-1 $297 $414 $183 $289 reversed $181 $-1 #
edge $-1 $304 -20.162274855980314 $416 20.162274855980314 $288 $417 forward 7 unknown #
coedge $-1 $185 $184 $414 $418 forward $73 $-1 #
edge $-1 $295 -79.271217993713179 $416 79.271217993713179 $287 $419 forward 7 unknown #
coedge $-1 $300 $299 $185 $293 reversed $284 $-1 #
edge $-1 $420 -79.271217993713179 $294 79.271217993713179 $292 $421 forward 7 unknown #
vertex $-1 $187 $422 #
vertex $-1 $306 $423 #
straight-curve $-1 79.271217993713179 0 -20.162274855980314 0 -1 0 I I #
coedge $-1 $286 $288 $188 $298 reversed $181 $-1 #
edge $-1 $301 -42.527567796553988 $304 42.527567796553988 $297 $424 forward 7 unknown #
coedge $-1 $292 $189 $194 $307 forward $284 $-1 #
coedge $-1 $189 $292 $286 $415 reversed $284 $-1 #
vertex $-1 $190 $425 #
straight-curve $-1 0 42.527567796553988 20.162274855980314 -1 0 0 I I #
coedge $-1 $191 $287 $193 $306 reversed $113 $-1 #
vertex $-1 $298 $426 #
straight-curve $-1 0 -42.527567796553988 20.162274855980314 1 0 0 I I #
edge $-1 $196 -20.162274855980314 $295 20.162274855980314 $193 $427 forward 7 unknown #
edge $-1 $197 -20.162274855980314 $294 20.162274855980314 $194 $428 forward 7 unknown #
point $-1 79.271217993713179 -42.527567796553988 20.162274855980314 #
point $-1 79.271217993713179 42.527567796553988 20.162274855980314 #
face $-1 $-1 $214 $28 $-1 $429 reversed single #
loop $-1 $-1 $210 $199 #
plane-surface $-1 0 -42.527567796553988 0 0 1 0 0 0 1 forward_v I I I I #
coedge $-1 $430 $431 $207 $323 forward $200 $-1 #
coedge $-1 $324 $202 $204 $319 reversed $121 $-1 #
edge $-1 $321 -10.021775639206265 $215 -4.3045674542379864 $213 $432 forward 7 unknown #
coedge $-1 $204 $203 $433 $434 reversed $77 $-1 #
coedge $-1 $328 $327 $203 $318 forward $311 $-1 #
edge $-1 $435 -79.271217993713179 $320 79.271217993713179 $317 $436 forward 7 unknown #
edge $-1 $437 -79.271217993713179 $321 79.271217993713179 $314 $438 forward 7 unknown #
vertex $-1 $318 $439 #
vertex $-1 $206 $440 #
straight-curve $-1 79.271217993713179 -16.935635663064044 -17.18494718592839 0 1 0 I I #
edge $-1 $329 -25.591932133489944 $325 -8.2793391926381439 $313 $441 forward 7 unknown #
coedge $-1 $208 $314 $430 $442 reversed $121 $-1 #
vertex $-1 $323 $443 #
straight-curve $-1 0 -25.214974855702188 -11.467739000960112 -1 0 0 I I #
coedge $-1 $317 $210 $431 $444 forward $311 $-1 #
coedge $-1 $210 $317 $212 $331 reversed $311 $-1 #
vertex $-1 $444 $445 #
straight-curve $-1 0 -42.527567796553988 -11.467739000960112 -1 0 0 I I #
edge $-1 $216 11.467739000960112 $320 17.18494718592839 $212 $446 forward 7 unknown #
point $-1 79.271217993713179 -25.214974855702188 -11.467739000960112 #
point $-1 79.271217993713179 -42.527567796553988 -11.467739000960112 #
face $-1 $-1 $351 $29 $-1 $447 reversed single #
loop $-1 $-1 $347 $218 #
plane-surface $-1 -79.271217993713179 0 0 1 0 0 0 0 -1 forward_v I I I I #
coedge $-1 $354 $221 $222 $341 reversed $129 $-1 #
coedge $-1 $347 $448 $221 $339 forward $335 $-1 #
edge $-1 $449 -10.021775639206265 $355 -4.3045674542379864 $338 $450 forward 7 unknown #
coedge $-1 $223 $222 $448 $451 reversed $81 $-1 #
edge $-1 $344 -79.271217993713179 $449 79.271217993713179 $337 $452 forward 7 unknown #
coedge $-1 $350 $349 $223 $343 forward $351 $-1 #
edge $-1 $345 -79.271217993713179 $453 79.271217993713179 $342 $454 forward 7 unknown #
vertex $-1 $225 $455 #
vertex $-1 $343 $456 #
straight-curve $-1 79.271217993713179 16.935635663064044 -17.18494718592839 0 1 0 I I #
coedge $-1 $457 $338 $226 $348 forward $335 $-1 #
edge $-1 $355 8.2793391926381439 $352 25.591932133489944 $347 $458 forward 7 unknown #
coedge $-1 $342 $227 $232 $358 forward $351 $-1 #
coedge $-1 $227 $342 $457 $459 reversed $351 $-1 #
loop $-1 $-1 $227 $334 #
vertex $-1 $459 $460 #
straight-curve $-1 0 42.527567796553988 -11.467739000960112 1 0 0 I I #
coedge $-1 $229 $337 $231 $357 reversed $129 $-1 #
vertex $-1 $348 $461 #
straight-curve $-1 0 25.214974855702188 -11.467739000960112 1 0 0 I I #
edge $-1 $234 4.3045674542379864 $344 10.021775639206265 $231 $462 forward 7 unknown #
edge $-1 $233 11.467739000960112 $345 17.18494718592839 $232 $463 forward 7 unknown #
point $-1 79.271217993713179 42.527567796553988 -11.467739000960112 #
point $-1 79.271217993713179 25.214974855702188 -11.467739000960112 #
plane-surface $-1 79.271217993713179 0 0 -1 0 0 0 0 1 forward_v I I I I #
coedge $-1 $372 $371 $364 $464 forward $237 $-1 #
coedge $-1 $364 $239 $241 $368 reversed $137 $-1 #
coedge $-1 $239 $363 $362 $464 reversed $137 $-1 #
coedge $-1 $247 $242 $239 $366 forward $248 $-1 #
edge $-1 $369 -103.46138940828845 $465 -98.407175046730956 $365 $466 forward 7 unknown #
coedge $-1 $241 $240 $372 $467 reversed $85 $-1 #
edge $-1 $468 150.14415062874562 $369 158.54243598742636 $363 $469 forward 7 unknown #
vertex $-1 $243 $470 #
straight-curve $-1 79.271217993713179 -4.0952939045812293 15.108060494422823 0 1 0 I I #
coedge $-1 $362 $244 $247 $376 forward $237 $-1 #
coedge $-1 $244 $362 $367 $467 forward $237 $-1 #
vertex $-1 $245 $471 #
straight-curve $-1 24.033410333628218 -12.302353130888822 20.162274855980314 1 0 0 I I #
straight-curve $-1 -47.346400325015054 -12.302353130888822 110.52128148669429 -0.79863550430605224 0 0.6018150307709319 I I #
edge $-1 $249 -12.302353130888822 $465 -4.0788224874360957 $247 $472 forward 7 unknown #
point $-1 79.271217993713179 -12.302353130888822 20.162274855980314 #
point $-1 79.271217993713179 -12.302353130888822 15.108060494422816 #
edge $-1 $473 1 $473 0 $252 $-1 forward 7 unknown #
vertex $-1 $253 $474 #
ellipse-curve $-1 73.46622037874404 -8.1905878091624587 14.382032568822044 0.6018150307709319 0 0.79863550430605224 1.5972710086121045 0 -1.2036300615418638 1 I I #
point $-1 77.514904570957256 -8.1905878091624587 16.431537613659689 #
loop $-1 $-1 $264 $256 #
plane-surface $-1 0 0 20.162274855980314 0 0 1 1 0 0 forward_v I I I I #
coedge $-1 $386 $259 $261 $390 reversed $152 $-1 #
coedge $-1 $259 $385 $475 $476 reversed $152 $-1 #
coedge $-1 $267 $262 $259 $388 forward $257 $-1 #
edge $-1 $391 -60.281352724236818 $477 -56.858148949596696 $387 $478 forward 7 unknown #
coedge $-1 $261 $260 $394 $479 reversed $94 $-1 #
edge $-1 $480 -6.846407457555677 $391 1.5859674864291968e-014 $385 $481 forward 7 unknown #
vertex $-1 $263 $482 #
straight-curve $-1 -79.271217993713179 4.228630321833613 16.739071081340199 0 -1 0 I I #
coedge $-1 $475 $264 $267 $398 forward $383 $-1 #
coedge $-1 $264 $475 $389 $479 forward $383 $-1 #
vertex $-1 $265 $483 #
straight-curve $-1 -79.271218524730159 15.310479609244588 20.162274855980314 -1 0 0 I I #
straight-curve $-1 -79.271217993713165 15.310479609244588 16.739071081340199 0.8660253999169214 0 0.50000000669873634 I I #
edge $-1 $268 -15.310479609244588 $477 -1.6040416780898639 $267 $484 forward 7 unknown #
point $-1 -79.271217993713179 15.310479609244588 20.162274855980314 #
point $-1 -79.271217993713179 15.310479609244588 16.739071081340192 #
edge $-1 $485 1 $485 0 $271 $-1 forward 7 unknown #
vertex $-1 $272 $486 #
ellipse-curve $-1 -74.489198314837608 4.3453292643208101 15.302777548520947 -0.50000000669873634 0 0.8660253999169214 0.8660253999169214 0 0.50000000669873634 1 I I #
point $-1 -75.44061121558434 4.3453292643208101 18.950672975358998 #
edge $-1 $487 1 $487 0 $275 $-1 forward 7 unknown #
vertex $-1 $276 $488 #
ellipse-curve $-1 -74.489198314837608 8.457260643667226 15.302777548520947 -0.50000000669873634 0 0.8660253999169214 0.8660253999169214 0 0.50000000669873634 1 I I #
point $-1 -75.44061121558434 8.457260643667226 18.950672975358998 #
edge $-1 $489 1 $489 0 $279 $-1 forward 7 unknown #
vertex $-1 $280 $490 #
ellipse-curve $-1 -74.489198314837608 12.569192023013642 15.302777548520947 -0.50000000669873634 0 0.8660253999169214 0.8660253999169214 0 0.50000000669873634 1 I I #
point $-1 -75.44061121558434 12.569192023013642 18.950672975358998 #
plane-surface $-1 79.271217993713179 0 0 -1 0 0 0 0 1 forward_v I I I I #
coedge $-1 $288 $286 $290 $418 reversed $181 $-1 #
edge $-1 $301 -20.162274855980314 $420 20.162274855980314 $300 $491 forward 7 unknown #
vertex $-1 $418 $492 #
straight-curve $-1 -79.271217993713179 -42.527567796553988 0 0 0 -1 I I #
edge $-1 $416 -42.527567796553988 $420 42.527567796553988 $414 $493 forward 7 unknown #
straight-curve $-1 0 -42.527567796553988 -20.162274855980314 -1 0 0 I I #
vertex $-1 $293 $494 #
straight-curve $-1 0 42.527567796553988 -20.162274855980314 1 0 0 I I #
point $-1 79.271217993713179 42.527567796553988 -20.162274855980314 #
point $-1 79.271217993713179 -42.527567796553988 -20.162274855980314 #
straight-curve $-1 -79.271217993713179 0 20.162274855980314 0 -1 0 I I #
point $-1 -79.271217993713179 42.527567796553988 20.162274855980314 #
point $-1 -79.271217993713179 -42.527567796553988 20.162274855980314 #
straight-curve $-1 79.271217993713179 -42.527567796553988 0 0 0 -1 I I #
straight-curve $-1 79.271217993713179 42.527567796553988 0 0 0 -1 I I #
plane-surface $-1 79.271217993713179 0 0 -1 0 0 0 0 1 forward_v I I I I #
coedge $-1 $433 $313 $324 $442 forward $200 $-1 #
coedge $-1 $313 $433 $327 $444 reversed $200 $-1 #
straight-curve $-1 79.271217993713179 -25.214974855702188 -7.1631715467221255 0 0 1 I I #
coedge $-1 $431 $430 $316 $434 forward $200 $-1 #
edge $-1 $437 8.2793391926381439 $435 25.591932133489944 $433 $495 forward 7 unknown #
vertex $-1 $318 $496 #
straight-curve $-1 0 -42.527567796553988 -17.18494718592839 1 0 0 I I #
vertex $-1 $434 $497 #
straight-curve $-1 0 -25.214974855702188 -17.18494718592839 1 0 0 I I #
point $-1 79.271217993713179 -42.527567796553988 -17.18494718592839 #
point $-1 79.271217993713179 -25.214974855702188 -17.18494718592839 #
straight-curve $-1 -79.271217993713179 -16.935635663064044 -11.467739000960112 0 1 0 I I #
edge $-1 $325 4.3045674542379864 $437 10.021775639206265 $430 $498 forward 7 unknown #
point $-1 -79.271217993713179 -25.214974855702188 -11.467739000960112 #
edge $-1 $329 11.467739000960112 $435 17.18494718592839 $431 $499 forward 7 unknown #
point $-1 -79.271217993713179 -42.527567796553988 -11.467739000960112 #
straight-curve $-1 79.271217993713179 -42.527567796553988 0 0 0 -1 I I #
plane-surface $-1 0 42.527567796553988 0 0 -1 0 0 0 -1 forward_v I I I I #
coedge $-1 $338 $457 $340 $451 forward $335 $-1 #
vertex $-1 $451 $500 #
straight-curve $-1 -79.271217993713179 25.214974855702188 -7.1631715467221255 0 0 1 I I #
edge $-1 $453 -25.591932133489944 $449 -8.2793391926381439 $448 $501 forward 7 unknown #
straight-curve $-1 0 25.214974855702188 -17.18494718592839 -1 0 0 I I #
vertex $-1 $343 $502 #
straight-curve $-1 0 42.527567796553988 -17.18494718592839 -1 0 0 I I #
point $-1 79.271217993713179 25.214974855702188 -17.18494718592839 #
point $-1 79.271217993713179 42.527567796553988 -17.18494718592839 #
coedge $-1 $448 $347 $350 $459 forward $335 $-1 #
straight-curve $-1 -79.271217993713179 16.935635663064044 -11.467739000960112 0 1 0 I I #
edge $-1 $352 11.467739000960112 $453 17.18494718592839 $350 $503 forward 7 unknown #
point $-1 -79.271217993713179 42.527567796553988 -11.467739000960112 #
point $-1 -79.271217993713179 25.214974855702188 -11.467739000960112 #
straight-curve $-1 79.271217993713179 25.214974855702188 -7.1631715467221255 0 0 -1 I I #
straight-curve $-1 79.271217993713179 42.527567796553988 0 0 0 -1 I I #
edge $-1 $465 -55.237807660084961 $468 -48.53063879734885 $362 $504 forward 7 unknown #
vertex $-1 $464 $505 #
straight-curve $-1 79.271217993713179 -4.0788224874360957 118.56944990271127 0 0 1 I I #
edge $-1 $468 -0.016471417145133671 $373 8.2070592263075923 $372 $506 forward 7 unknown #
vertex $-1 $467 $507 #
straight-curve $-1 -47.346400325015054 -4.0788224874360957 110.52128148669429 0.79863550430605224 0 -0.6018150307709319 I I #
point $-1 79.271217993713179 -4.0788224874360957 15.108060494422816 #
point $-1 72.564049130977068 -12.302353130888822 20.162274855980314 #
straight-curve $-1 79.271217993713179 0 20.162274855980314 0 1 0 I I #
vertex $-1 $379 $508 #
point $-1 75.063491387356137 -8.1905878091624587 13.178402507280181 #
coedge $-1 $394 $393 $386 $476 forward $383 $-1 #
edge $-1 $477 5.3101697972124384e-007 $480 5.9291632874408435 $475 $509 forward 7 unknown #
vertex $-1 $476 $510 #
straight-curve $-1 -79.271217993713179 1.6040416780898639 77.020423805577011 0 0 1 I I #
edge $-1 $480 -2.6245886437437491 $395 11.081849287410975 $394 $511 forward 7 unknown #
vertex $-1 $479 $512 #
straight-curve $-1 -79.271217993713165 1.6040416780898639 16.739071081340199 -0.8660253999169214 0 -0.50000000669873634 I I #
point $-1 -79.271217993713179 1.6040416780898639 16.739071081340192 #
point $-1 -73.342055237289316 15.310479609244588 20.162274855980314 #
straight-curve $-1 -79.271217993713179 0 20.162274855980314 0 -1 0 I I #
vertex $-1 $401 $513 #
point $-1 -73.623172914920687 4.3453292643208101 15.802777555219684 #
vertex $-1 $405 $514 #
point $-1 -73.623172914920687 8.457260643667226 15.802777555219684 #
vertex $-1 $409 $515 #
point $-1 -73.623172914920687 12.569192023013642 15.802777555219684 #
straight-curve $-1 -79.271217993713179 42.527567796553988 0 0 0 -1 I I #
point $-1 -79.271217993713179 -42.527567796553988 -20.162274855980314 #
straight-curve $-1 -79.271217993713179 0 -20.162274855980314 0 1 0 I I #
point $-1 -79.271217993713179 42.527567796553988 -20.162274855980314 #
straight-curve $-1 -79.271217993713179 -16.935635663064044 -17.18494718592839 0 -1 0 I I #
point $-1 -79.271217993713179 -42.527567796553988 -17.18494718592839 #
point $-1 -79.271217993713179 -25.214974855702188 -17.18494718592839 #
straight-curve $-1 -79.271217993713179 -25.214974855702188 -7.1631715467221255 0 0 -1 I I #
straight-curve $-1 -79.271217993713179 -42.527567796553988 0 0 0 -1 I I #
point $-1 -79.271217993713179 25.214974855702188 -17.18494718592839 #
straight-curve $-1 -79.271217993713179 16.935635663064044 -17.18494718592839 0 -1 0 I I #
point $-1 -79.271217993713179 42.527567796553988 -17.18494718592839 #
straight-curve $-1 -79.271217993713179 42.527567796553988 0 0 0 -1 I I #
straight-curve $-1 24.033410333628218 -4.0788224874360957 20.162274855980314 -1 0 0 I I #
point $-1 79.271217993713179 -4.0788224874360957 20.162274855980314 #
straight-curve $-1 72.564049130977068 -4.0952939045812293 20.162274855980321 0 -1 0 I I #
point $-1 72.564049130977068 -4.0788224874360957 20.162274855980314 #
point $-1 72.262590317202168 -8.1905878091624587 12.78476156020994 #
straight-curve $-1 -79.271218524730159 1.6040416780898639 20.162274855980314 1 0 0 I I #
point $-1 -79.271217993713179 1.6040416780898639 20.162274855980314 #
straight-curve $-1 -73.342055237289316 4.228630321833613 20.162274855980314 0 1 0 I I #
point $-1 -73.342055237289316 1.6040416780898639 20.162274855980314 #
point $-1 -73.989198308138867 4.3453292643208101 14.436752148604032 #
point $-1 -73.989198308138867 8.457260643667226 14.436752148604032 #
point $-1 -73.989198308138867 12.569192023013642 14.436752148604032 #
End-of-ACIS-data 