500 0 15 0           
7 Unknown 11 ACIS 5.0 NT 24 Thu Mar 25 20:23:13 1999 
-1 9.9999999999999995e-007 1e-010 
body $-1 $15 $-1 $16 #
body $-1 $17 $-1 $18 #
body $-1 $19 $-1 $20 #
body $-1 $21 $-1 $22 #
body $-1 $23 $-1 $24 #
body $-1 $25 $-1 $26 #
body $-1 $27 $-1 $28 #
body $-1 $29 $-1 $30 #
body $-1 $31 $-1 $32 #
body $-1 $33 $-1 $34 #
body $-1 $35 $-1 $36 #
body $-1 $37 $-1 $38 #
body $-1 $39 $-1 $40 #
body $-1 $41 $-1 $42 #
body $-1 $43 $-1 $44 #
lump $-1 $-1 $45 $0 #
transform $-1 1 0 0 0 1 0 0 0 1 69.787285988952306 32.790035634287911 13.975918352977947 1 rotate no_reflect no_shear #
lump $-1 $-1 $46 $1 #
transform $-1 1 0 0 0 1 0 0 0 1 69.787285988952306 32.790035634287911 13.975918352977947 1 rotate no_reflect no_shear #
lump $-1 $-1 $47 $2 #
transform $-1 1 0 0 0 1 0 0 0 1 69.787285988952306 32.790035634287911 13.975918352977947 1 rotate no_reflect no_shear #
lump $-1 $-1 $48 $3 #
transform $-1 1 0 0 0 1 0 0 0 1 69.787285988952306 32.790035634287911 13.975918352977947 1 rotate no_reflect no_shear #
lump $-1 $-1 $49 $4 #
transform $-1 1 0 0 0 1 0 0 0 1 69.787285988952306 32.790035634287911 13.975918352977947 1 rotate no_reflect no_shear #
lump $-1 $-1 $50 $5 #
transform $-1 1 0 0 0 1 0 0 0 1 69.787285988952306 32.790035634287911 13.975918352977947 1 rotate no_reflect no_shear #
lump $-1 $-1 $51 $6 #
transform $-1 1 0 0 0 1 0 0 0 1 69.787285988952306 32.790035634287911 13.975918352977947 1 rotate no_reflect no_shear #
lump $-1 $-1 $52 $7 #
transform $-1 1 0 0 0 1 0 0 0 1 69.787285988952306 32.790035634287911 13.975918352977947 1 rotate no_reflect no_shear #
lump $-1 $-1 $53 $8 #
transform $-1 1 0 0 0 1 0 0 0 1 69.787285988952306 32.790035634287911 13.975918352977947 1 rotate no_reflect no_shear #
lump $-1 $-1 $54 $9 #
transform $-1 1 0 0 0 1 0 0 0 1 69.787285988952306 32.790035634287911 13.975918352977947 1 rotate no_reflect no_shear #
lump $-1 $-1 $55 $10 #
transform $-1 1 0 0 0 1 0 0 0 1 69.787285988952306 32.790035634287911 13.975918352977947 1 rotate no_reflect no_shear #
lump $-1 $-1 $56 $11 #
transform $-1 1 0 0 0 1 0 0 0 1 69.787285988952306 32.790035634287911 13.975918352977947 1 rotate no_reflect no_shear #
lump $-1 $-1 $57 $12 #
transform $-1 1 0 0 0 1 0 0 0 1 69.787285988952306 32.790035634287911 13.975918352977947 1 rotate no_reflect no_shear #
lump $-1 $-1 $58 $13 #
transform $-1 1 0 0 0 1 0 0 0 1 69.787285988952306 32.790035634287911 13.975918352977947 1 rotate no_reflect no_shear #
lump $-1 $-1 $59 $14 #
transform $-1 1 0 0 0 1 0 0 0 1 69.787285988952306 32.790035634287911 13.975918352977947 1 rotate no_reflect no_shear #
shell $-1 $-1 $-1 $60 $-1 $15 #
shell $-1 $-1 $-1 $61 $-1 $17 #
shell $-1 $-1 $-1 $62 $-1 $19 #
shell $-1 $-1 $-1 $63 $-1 $21 #
shell $-1 $-1 $-1 $64 $-1 $23 #
shell $-1 $-1 $-1 $65 $-1 $25 #
shell $-1 $-1 $-1 $66 $-1 $27 #
shell $-1 $-1 $-1 $67 $-1 $29 #
shell $-1 $-1 $-1 $68 $-1 $31 #
shell $-1 $-1 $-1 $69 $-1 $33 #
shell $-1 $-1 $-1 $70 $-1 $35 #
shell $-1 $-1 $-1 $71 $-1 $37 #
shell $-1 $-1 $-1 $72 $-1 $39 #
shell $-1 $-1 $-1 $73 $-1 $41 #
shell $-1 $-1 $-1 $74 $-1 $43 #
face $-1 $75 $76 $45 $-1 $77 forward single #
face $-1 $78 $79 $46 $-1 $80 forward single #
face $-1 $81 $82 $47 $-1 $83 reversed single #
face $-1 $84 $85 $48 $-1 $86 reversed single #
face $-1 $87 $88 $49 $-1 $89 forward single #
face $-1 $90 $91 $50 $-1 $92 forward single #
face $-1 $93 $94 $51 $-1 $95 forward single #
face $-1 $96 $97 $52 $-1 $98 reversed single #
face $-1 $99 $100 $53 $-1 $101 forward single #
face $-1 $102 $103 $54 $-1 $104 forward single #
face $-1 $105 $106 $55 $-1 $107 forward single #
face $-1 $108 $109 $56 $-1 $110 reversed single #
face $-1 $111 $112 $57 $-1 $113 forward single #
face $-1 $114 $115 $58 $-1 $116 forward single #
face $-1 $117 $118 $59 $-1 $119 forward single #
face $-1 $120 $121 $45 $-1 $122 reversed single #
loop $-1 $-1 $123 $60 #
plane-surface $-1 0 0 13.975918352977947 0 0 1 1 0 0 forward_v I I I I #
face $-1 $124 $125 $46 $-1 $126 reversed single #
loop $-1 $-1 $127 $61 #
plane-surface $-1 0 -32.790035634287911 0 0 1 0 0 0 1 forward_v I I I I #
face $-1 $128 $129 $47 $-1 $130 reversed single #
loop $-1 $-1 $131 $62 #
plane-surface $-1 -51.491924724397698 21.062496931747539 0 0 1 0 0 0 1 forward_v I I I I #
face $-1 $132 $133 $48 $-1 $134 reversed single #
loop $-1 $-1 $135 $63 #
plane-surface $-1 52.583768247261105 21.062496931747539 199.15308060383359 0 -1 0 -0.64278761758704617 0 -0.76604443648966558 forward_v I I I I #
face $-1 $136 $137 $49 $-1 $138 forward single #
loop $-1 $139 $140 $64 #
cone-surface $-1 61.681867935492527 12.21633946398611 6.7244356132523286 -0.64278761758704617 0 -0.76604443648966558 0.76604443648966558 0 -0.64278761758704617 1 I I 0 1 1 forward I I I I #
face $-1 $141 $142 $50 $-1 $143 forward single #
loop $-1 $144 $145 $65 #
cone-surface $-1 61.681867935492527 15.533648514396646 6.7244356132523286 -0.64278761758704617 0 -0.76604443648966558 0.76604443648966558 0 -0.64278761758704617 1 I I 0 1 1 forward I I I I #
face $-1 $146 $147 $51 $-1 $148 forward single #
loop $-1 $149 $150 $66 #
cone-surface $-1 61.681867935492527 18.850957564807182 6.7244356132523286 -0.64278761758704617 0 -0.76604443648966558 0.76604443648966558 0 -0.64278761758704617 1 I I 0 1 1 forward I I I I #
face $-1 $151 $152 $52 $-1 $153 reversed single #
loop $-1 $-1 $154 $67 #
plane-surface $-1 -145.80504717961836 -13.63374551472436 121.93188393388206 0 1 0 -0.54463904215088732 0 0.83867056331134215 forward_v I I I I #
face $-1 $155 $156 $53 $-1 $157 forward single #
loop $-1 $158 $159 $68 #
cone-surface $-1 -62.507719209339314 -11.771837761238892 9.0060234094499627 0.54463904215088732 0 -0.83867056331134215 0.41933528165567108 0 0.27231952107544366 1 I I 0 1 0.5 forward I I I I #
face $-1 $160 $161 $54 $-1 $162 forward single #
loop $-1 $163 $164 $69 #
cone-surface $-1 -62.507719209339314 -8.9789761310106861 9.0060234094499627 0.54463904215088732 0 -0.83867056331134215 0.41933528165567108 0 0.27231952107544366 1 I I 0 1 0.5 forward I I I I #
face $-1 $165 $166 $55 $-1 $167 forward single #
loop $-1 $168 $169 $70 #
cone-surface $-1 -62.507719209339314 -6.1861145007824803 9.0060234094499627 0.54463904215088732 0 -0.83867056331134215 0.41933528165567108 0 0.27231952107544366 1 I I 0 1 0.5 forward I I I I #
face $-1 $170 $171 $56 $-1 $172 reversed single #
loop $-1 $-1 $173 $71 #
plane-surface $-1 -145.80504717961836 5.2128771756154357 121.93188393388206 0 1 0 -0.54463904215088732 0 0.83867056331134215 forward_v I I I I #
face $-1 $174 $175 $57 $-1 $176 forward single #
loop $-1 $177 $178 $72 #
cone-surface $-1 -62.507719209339314 7.0747849291009004 9.0060234094499627 0.54463904215088732 0 -0.83867056331134215 0.41933528165567108 0 0.27231952107544366 1 I I 0 1 0.5 forward I I I I #
face $-1 $179 $180 $58 $-1 $181 forward single #
loop $-1 $182 $183 $73 #
cone-surface $-1 -62.507719209339314 9.8676465593291098 9.0060234094499627 0.54463904215088732 0 -0.83867056331134215 0.41933528165567108 0 0.27231952107544366 1 I I 0 1 0.5 forward I I I I #
face $-1 $184 $185 $59 $-1 $186 forward single #
loop $-1 $187 $188 $74 #
cone-surface $-1 -62.507719209339314 12.660508189557312 9.0060234094499627 0.54463904215088732 0 -0.83867056331134215 0.41933528165567108 0 0.27231952107544366 1 I I 0 1 0.5 forward I I I I #
face $-1 $189 $190 $45 $-1 $191 reversed single #
loop $-1 $-1 $192 $75 #
plane-surface $-1 0 0 -13.975918352977947 0 0 1 1 0 0 forward_v I I I I #
coedge $-1 $193 $194 $195 $196 forward $76 $-1 #
face $-1 $197 $198 $46 $-1 $199 reversed single #
loop $-1 $-1 $200 $78 #
plane-surface $-1 0 0 -13.975918352977947 0 0 1 1 0 0 forward_v I I I I #
coedge $-1 $201 $202 $203 $204 forward $79 $-1 #
face $-1 $205 $206 $47 $-1 $207 reversed single #
loop $-1 $-1 $208 $81 #
plane-surface $-1 -54.855622496762884 26.926266283017725 0 1 0 0 0 0 -1 forward_v I I I I #
coedge $-1 $209 $210 $211 $212 forward $82 $-1 #
face $-1 $213 $214 $48 $-1 $215 reversed single #
loop $-1 $-1 $216 $84 #
plane-surface $-1 -37.133038350147899 15.533648514396646 92.232756264733382 0.64278761758704617 0 0.76604443648966558 0.76604443648966558 0 -0.64278761758704617 forward_v I I I I #
coedge $-1 $217 $218 $219 $220 reversed $85 $-1 #
face $-1 $-1 $221 $49 $-1 $222 forward single #
loop $-1 $223 $224 $87 #
cone-surface $-1 60.083785356284181 12.21633946398611 4.8199149981086666 -0.64278761758704617 0 -0.76604443648966558 0.38302221824483279 0 -0.32139380879352308 1 I I -0.70710678118654746 0.70710678118654746 0.5 forward I I I I #
loop $-1 $-1 $225 $64 #
coedge $-1 $140 $140 $226 $227 reversed $88 $-1 #
face $-1 $-1 $228 $50 $-1 $229 forward single #
loop $-1 $230 $231 $90 #
cone-surface $-1 60.083785356284181 15.533648514396646 4.8199149981086666 -0.64278761758704617 0 -0.76604443648966558 0.38302221824483279 0 -0.32139380879352308 1 I I -0.70710678118654746 0.70710678118654746 0.5 forward I I I I #
loop $-1 $-1 $232 $65 #
coedge $-1 $145 $145 $233 $234 reversed $91 $-1 #
face $-1 $-1 $235 $51 $-1 $236 forward single #
loop $-1 $237 $238 $93 #
cone-surface $-1 60.083785356284181 18.850957564807182 4.8199149981086666 -0.64278761758704617 0 -0.76604443648966558 0.38302221824483279 0 -0.32139380879352308 1 I I -0.70710678118654746 0.70710678118654746 0.5 forward I I I I #
loop $-1 $-1 $239 $66 #
coedge $-1 $150 $150 $240 $241 reversed $94 $-1 #
face $-1 $242 $243 $52 $-1 $244 reversed single #
loop $-1 $-1 $245 $96 #
plane-surface $-1 -69.787285988952306 -8.9789761310106861 4.8747990292333299 -0.54463904215088732 0 0.83867056331134215 0.83867056331134215 0 0.54463904215088732 forward_v I I I I #
coedge $-1 $246 $247 $248 $249 reversed $97 $-1 #
face $-1 $-1 $250 $53 $-1 $251 forward single #
loop $-1 $252 $253 $99 #
cone-surface $-1 -62.099239927726146 -11.771837761238892 8.3770204869664564 0.54463904215088732 0 -0.83867056331134215 0.20966764082783554 0 0.13615976053772183 1 I I -0.70710678118654746 0.70710678118654746 0.25 forward I I I I #
loop $-1 $-1 $254 $68 #
coedge $-1 $159 $159 $255 $256 reversed $100 $-1 #
face $-1 $-1 $257 $54 $-1 $258 forward single #
loop $-1 $259 $260 $102 #
cone-surface $-1 -62.099239927726146 -8.9789761310106861 8.3770204869664564 0.54463904215088732 0 -0.83867056331134215 0.20966764082783554 0 0.13615976053772183 1 I I -0.70710678118654746 0.70710678118654746 0.25 forward I I I I #
loop $-1 $-1 $261 $69 #
coedge $-1 $164 $164 $262 $263 reversed $103 $-1 #
face $-1 $-1 $264 $55 $-1 $265 forward single #
loop $-1 $266 $267 $105 #
cone-surface $-1 -62.099239927726146 -6.1861145007824803 8.3770204869664564 0.54463904215088732 0 -0.83867056331134215 0.20966764082783554 0 0.13615976053772183 1 I I -0.70710678118654746 0.70710678118654746 0.25 forward I I I I #
loop $-1 $-1 $268 $70 #
coedge $-1 $169 $169 $269 $270 reversed $106 $-1 #
face $-1 $271 $272 $56 $-1 $273 reversed single #
loop $-1 $-1 $274 $108 #
plane-surface $-1 -69.787285988952306 9.8676465593291098 4.8747990292333299 -0.54463904215088732 0 0.83867056331134215 0.83867056331134215 0 0.54463904215088732 forward_v I I I I #
coedge $-1 $275 $276 $277 $278 reversed $109 $-1 #
face $-1 $-1 $279 $57 $-1 $280 forward single #
loop $-1 $281 $282 $111 #
cone-surface $-1 -62.099239927726146 7.0747849291009004 8.3770204869664564 0.54463904215088732 0 -0.83867056331134215 0.20966764082783554 0 0.13615976053772183 1 I I -0.70710678118654746 0.70710678118654746 0.25 forward I I I I #
loop $-1 $-1 $283 $72 #
coedge $-1 $178 $178 $284 $285 reversed $112 $-1 #
face $-1 $-1 $286 $58 $-1 $287 forward single #
loop $-1 $288 $289 $114 #
cone-surface $-1 -62.099239927726146 9.8676465593291098 8.3770204869664564 0.54463904215088732 0 -0.83867056331134215 0.20966764082783554 0 0.13615976053772183 1 I I -0.70710678118654746 0.70710678118654746 0.25 forward I I I I #
loop $-1 $-1 $290 $73 #
coedge $-1 $183 $183 $291 $292 reversed $115 $-1 #
face $-1 $-1 $293 $59 $-1 $294 forward single #
loop $-1 $295 $296 $117 #
cone-surface $-1 -62.099239927726146 12.660508189557312 8.3770204869664564 0.54463904215088732 0 -0.83867056331134215 0.20966764082783554 0 0.13615976053772183 1 I I -0.70710678118654746 0.70710678118654746 0.25 forward I I I I #
loop $-1 $-1 $297 $74 #
coedge $-1 $188 $188 $298 $299 reversed $118 $-1 #
face $-1 $300 $301 $45 $-1 $302 reversed single #
loop $-1 $-1 $303 $120 #
plane-surface $-1 0 -32.790035634287911 0 0 1 0 0 0 1 forward_v I I I I #
coedge $-1 $304 $305 $306 $307 forward $121 $-1 #
coedge $-1 $308 $123 $309 $310 forward $76 $-1 #
coedge $-1 $123 $308 $311 $312 forward $76 $-1 #
coedge $-1 $313 $314 $123 $196 reversed $315 $-1 #
edge $-1 $316 -32.790035634287911 $317 32.790035634287911 $195 $318 forward 7 unknown #
face $-1 $319 $320 $46 $-1 $321 forward single #
loop $-1 $-1 $322 $124 #
plane-surface $-1 69.787285988952306 0 0 -1 0 0 0 0 1 forward_v I I I I #
coedge $-1 $323 $324 $325 $326 forward $125 $-1 #
coedge $-1 $325 $127 $322 $327 reversed $79 $-1 #
coedge $-1 $127 $325 $328 $329 reversed $79 $-1 #
coedge $-1 $330 $331 $127 $204 reversed $320 $-1 #
edge $-1 $332 -69.787285988952306 $333 69.787285988952306 $203 $334 forward 7 unknown #
face $-1 $335 $336 $47 $-1 $337 forward single #
loop $-1 $-1 $338 $128 #
plane-surface $-1 -48.128226952032513 26.926266283017725 0 -1 0 0 0 0 1 forward_v I I I I #
coedge $-1 $339 $340 $341 $342 reversed $129 $-1 #
coedge $-1 $343 $131 $344 $345 reversed $82 $-1 #
coedge $-1 $131 $343 $346 $347 reversed $82 $-1 #
coedge $-1 $340 $339 $131 $212 reversed $129 $-1 #
edge $-1 $348 -13.975918352977947 $349 13.975918352977947 $211 $350 forward 7 unknown #
face $-1 $351 $352 $48 $-1 $353 reversed single #
loop $-1 $-1 $354 $132 #
plane-surface $-1 52.583768247261105 10.004800097045752 199.15308060383359 0 1 0 0.64278761758704617 0 0.76604443648966558 forward_v I I I I #
coedge $-1 $355 $356 $357 $358 reversed $133 $-1 #
coedge $-1 $218 $135 $359 $360 reversed $85 $-1 #
coedge $-1 $135 $217 $355 $361 reversed $85 $-1 #
coedge $-1 $357 $362 $135 $220 forward $363 $-1 #
edge $-1 $364 -43.495401865321753 $365 -29.837943299231895 $219 $366 forward 7 unknown #
loop $-1 $-1 $226 $136 #
plane-surface $-1 -37.133038350147899 15.533648514396646 92.232756264733382 0.64278761758704617 0 0.76604443648966558 0.76604443648966558 0 -0.64278761758704617 forward_v I I I I #
loop $-1 $-1 $367 $87 #
coedge $-1 $224 $224 $225 $368 reversed $137 $-1 #
coedge $-1 $225 $225 $224 $368 forward $139 $-1 #
coedge $-1 $226 $226 $140 $227 forward $221 $-1 #
edge $-1 $369 0 $369 6.2831853071796004 $226 $370 forward 7 unknown #
loop $-1 $-1 $233 $141 #
plane-surface $-1 -37.133038350147899 15.533648514396646 92.232756264733382 0.64278761758704617 0 0.76604443648966558 0.76604443648966558 0 -0.64278761758704617 forward_v I I I I #
loop $-1 $-1 $371 $90 #
coedge $-1 $231 $231 $232 $372 reversed $142 $-1 #
coedge $-1 $232 $232 $231 $372 forward $144 $-1 #
coedge $-1 $233 $233 $145 $234 forward $228 $-1 #
edge $-1 $373 0 $373 6.2831853071796004 $233 $374 forward 7 unknown #
loop $-1 $-1 $240 $146 #
plane-surface $-1 -37.133038350147899 15.533648514396646 92.232756264733382 0.64278761758704617 0 0.76604443648966558 0.76604443648966558 0 -0.64278761758704617 forward_v I I I I #
loop $-1 $-1 $375 $93 #
coedge $-1 $238 $238 $239 $376 reversed $147 $-1 #
coedge $-1 $239 $239 $238 $376 forward $149 $-1 #
coedge $-1 $240 $240 $150 $241 forward $235 $-1 #
edge $-1 $377 0 $377 6.2831853071796004 $240 $378 forward 7 unknown #
face $-1 $379 $380 $52 $-1 $381 forward single #
loop $-1 $-1 $382 $151 #
plane-surface $-1 -145.80504717961836 -4.324206747297012 121.93188393388206 0 -1 0 0.54463904215088732 0 -0.83867056331134215 forward_v I I I I #
coedge $-1 $383 $384 $385 $386 reversed $152 $-1 #
coedge $-1 $247 $154 $387 $388 reversed $97 $-1 #
coedge $-1 $154 $246 $383 $389 reversed $97 $-1 #
coedge $-1 $385 $390 $154 $249 forward $380 $-1 #
edge $-1 $391 3.1152376008568723 $392 17.129732117931965 $248 $393 forward 7 unknown #
loop $-1 $-1 $255 $155 #
plane-surface $-1 -69.787285988952306 -8.9789761310106861 4.8747990292333299 -0.54463904215088732 0 0.83867056331134215 0.83867056331134215 0 0.54463904215088732 forward_v I I I I #
loop $-1 $-1 $394 $99 #
coedge $-1 $253 $253 $254 $395 reversed $156 $-1 #
coedge $-1 $254 $254 $253 $395 forward $158 $-1 #
coedge $-1 $255 $255 $159 $256 forward $250 $-1 #
edge $-1 $396 0 $396 6.2831853071796004 $255 $397 forward 7 unknown #
loop $-1 $-1 $262 $160 #
plane-surface $-1 -69.787285988952306 -8.9789761310106861 4.8747990292333299 -0.54463904215088732 0 0.83867056331134215 0.83867056331134215 0 0.54463904215088732 forward_v I I I I #
loop $-1 $-1 $398 $102 #
coedge $-1 $260 $260 $261 $399 reversed $161 $-1 #
coedge $-1 $261 $261 $260 $399 forward $163 $-1 #
coedge $-1 $262 $262 $164 $263 forward $257 $-1 #
edge $-1 $400 0 $400 6.2831853071796004 $262 $401 forward 7 unknown #
loop $-1 $-1 $269 $165 #
plane-surface $-1 -69.787285988952306 -8.9789761310106861 4.8747990292333299 -0.54463904215088732 0 0.83867056331134215 0.83867056331134215 0 0.54463904215088732 forward_v I I I I #
loop $-1 $-1 $402 $105 #
coedge $-1 $267 $267 $268 $403 reversed $166 $-1 #
coedge $-1 $268 $268 $267 $403 forward $168 $-1 #
coedge $-1 $269 $269 $169 $270 forward $264 $-1 #
edge $-1 $404 0 $404 6.2831853071796004 $269 $405 forward 7 unknown #
face $-1 $406 $407 $56 $-1 $408 forward single #
loop $-1 $-1 $409 $170 #
plane-surface $-1 -145.80504717961836 14.522415943042784 121.93188393388206 0 -1 0 0.54463904215088732 0 -0.83867056331134215 forward_v I I I I #
coedge $-1 $410 $411 $412 $413 reversed $171 $-1 #
coedge $-1 $276 $173 $414 $415 reversed $109 $-1 #
coedge $-1 $173 $275 $410 $416 reversed $109 $-1 #
coedge $-1 $412 $417 $173 $278 forward $407 $-1 #
edge $-1 $418 3.1152376008568723 $419 17.129732117931965 $277 $420 forward 7 unknown #
loop $-1 $-1 $284 $174 #
plane-surface $-1 -69.787285988952306 9.8676465593291098 4.8747990292333299 -0.54463904215088732 0 0.83867056331134215 0.83867056331134215 0 0.54463904215088732 forward_v I I I I #
loop $-1 $-1 $421 $111 #
coedge $-1 $282 $282 $283 $422 reversed $175 $-1 #
coedge $-1 $283 $283 $282 $422 forward $177 $-1 #
coedge $-1 $284 $284 $178 $285 forward $279 $-1 #
edge $-1 $423 0 $423 6.2831853071796004 $284 $424 forward 7 unknown #
loop $-1 $-1 $291 $179 #
plane-surface $-1 -69.787285988952306 9.8676465593291098 4.8747990292333299 -0.54463904215088732 0 0.83867056331134215 0.83867056331134215 0 0.54463904215088732 forward_v I I I I #
loop $-1 $-1 $425 $114 #
coedge $-1 $289 $289 $290 $426 reversed $180 $-1 #
coedge $-1 $290 $290 $289 $426 forward $182 $-1 #
coedge $-1 $291 $291 $183 $292 forward $286 $-1 #
edge $-1 $427 0 $427 6.2831853071796004 $291 $428 forward 7 unknown #
loop $-1 $-1 $298 $184 #
plane-surface $-1 -69.787285988952306 9.8676465593291098 4.8747990292333299 -0.54463904215088732 0 0.83867056331134215 0.83867056331134215 0 0.54463904215088732 forward_v I I I I #
loop $-1 $-1 $429 $117 #
coedge $-1 $296 $296 $297 $430 reversed $185 $-1 #
coedge $-1 $297 $297 $296 $430 forward $187 $-1 #
coedge $-1 $298 $298 $188 $299 forward $293 $-1 #
edge $-1 $431 0 $431 6.2831853071796004 $298 $432 forward 7 unknown #
face $-1 $433 $434 $45 $-1 $435 reversed single #
loop $-1 $-1 $436 $189 #
plane-surface $-1 -69.787285988952306 0 0 1 0 0 0 0 -1 forward_v I I I I #
coedge $-1 $437 $311 $438 $439 forward $190 $-1 #
coedge $-1 $440 $192 $437 $441 forward $121 $-1 #
coedge $-1 $192 $440 $442 $443 forward $121 $-1 #
coedge $-1 $314 $313 $192 $307 reversed $315 $-1 #
edge $-1 $444 -32.790035634287911 $445 32.790035634287911 $306 $446 forward 7 unknown #
coedge $-1 $194 $193 $447 $448 forward $76 $-1 #
coedge $-1 $449 $450 $193 $310 reversed $434 $-1 #
edge $-1 $317 -69.787285988952306 $451 69.787285988952306 $309 $452 forward 7 unknown #
coedge $-1 $303 $453 $194 $312 reversed $190 $-1 #
edge $-1 $454 -69.787285988952306 $316 69.787285988952306 $311 $455 forward 7 unknown #
coedge $-1 $306 $195 $453 $456 forward $315 $-1 #
coedge $-1 $195 $306 $449 $457 reversed $315 $-1 #
loop $-1 $-1 $313 $433 #
vertex $-1 $196 $458 #
vertex $-1 $196 $459 #
straight-curve $-1 69.787285988952306 0 13.975918352977947 0 1 0 I I #
face $-1 $460 $461 $46 $-1 $462 reversed single #
loop $-1 $-1 $331 $197 #
plane-surface $-1 0 -40.869679226965843 -8.3330885355937614 0 0 1 1 0 0 forward_v I I I I #
coedge $-1 $463 $464 $201 $327 forward $198 $-1 #
coedge $-1 $465 $200 $464 $466 forward $125 $-1 #
coedge $-1 $200 $465 $467 $468 forward $125 $-1 #
coedge $-1 $202 $201 $200 $326 reversed $79 $-1 #
edge $-1 $469 -69.787285988952306 $470 69.787285988952306 $200 $471 forward 7 unknown #
edge $-1 $470 -13.975918352977947 $333 -8.3330885355937614 $322 $472 forward 7 unknown #
coedge $-1 $467 $473 $202 $329 forward $474 $-1 #
edge $-1 $332 8.3330885355937614 $469 13.975918352977947 $328 $475 forward 7 unknown #
coedge $-1 $476 $203 $473 $477 forward $320 $-1 #
coedge $-1 $203 $476 $463 $478 forward $320 $-1 #
vertex $-1 $329 $479 #
vertex $-1 $478 $480 #
straight-curve $-1 0 -32.790035634287911 -8.3330885355937614 1 0 0 I I #
face $-1 $481 $482 $47 $-1 $483 reversed single #
loop $-1 $-1 $484 $205 #
plane-surface $-1 0 0 13.975918352977947 0 0 1 1 0 0 forward_v I I I I #
coedge $-1 $485 $486 $343 $487 forward $206 $-1 #
coedge $-1 $211 $208 $488 $489 reversed $129 $-1 #
coedge $-1 $208 $211 $484 $490 reversed $129 $-1 #
coedge $-1 $491 $492 $208 $342 forward $493 $-1 #
edge $-1 $494 -13.975918352977947 $495 13.975918352977947 $341 $496 forward 7 unknown #
coedge $-1 $210 $209 $338 $487 reversed $82 $-1 #
coedge $-1 $488 $497 $209 $345 forward $482 $-1 #
edge $-1 $498 22.382264589833664 $349 29.109660134564034 $344 $499 forward 7 unknown #
coedge $-1 $500 $484 $210 $347 forward $336 $-1 #
edge $-1 $348 -29.109660134564034 $501 -22.382264589833664 $346 $502 forward 7 unknown #
vertex $-1 $347 $503 #
vertex $-1 $345 $504 #
straight-curve $-1 -54.855622496762884 21.062496931747539 0 0 0 -1 I I #
face $-1 $-1 $363 $48 $-1 $505 forward single #
loop $-1 $-1 $506 $213 #
plane-surface $-1 69.787285988952306 0 0 -1 0 0 0 0 1 forward_v I I I I #
coedge $-1 $507 $508 $509 $510 reversed $214 $-1 #
coedge $-1 $511 $216 $218 $361 forward $133 $-1 #
coedge $-1 $216 $511 $507 $512 forward $133 $-1 #
coedge $-1 $509 $219 $216 $358 forward $363 $-1 #
edge $-1 $365 -13.295672674549216 $513 -2.2379758398474294 $357 $514 forward 7 unknown #
coedge $-1 $515 $516 $217 $360 forward $352 $-1 #
edge $-1 $517 -97.060590634592415 $364 -85.600621948938851 $359 $518 forward 7 unknown #
edge $-1 $365 121.74602585768994 $517 139.57457197790461 $218 $519 forward 7 unknown #
coedge $-1 $219 $509 $515 $520 forward $363 $-1 #
loop $-1 $-1 $509 $351 #
vertex $-1 $360 $521 #
vertex $-1 $220 $522 #
straight-curve $-1 26.291884123630552 21.062496931747539 13.975918352977942 -1 0 0 I I #
coedge $-1 $367 $367 $-1 $523 reversed $223 $-1 #
edge $-1 $524 0 $524 6.2831853071796004 $224 $525 forward 7 unknown #
vertex $-1 $227 $526 #
ellipse-curve $-1 62.958556705907363 12.21633946398611 8.2459340101511689 0.64278761758704617 0 0.76604443648966558 0.76604443648966558 0 -0.64278761758704617 1 I I #
coedge $-1 $371 $371 $-1 $527 reversed $230 $-1 #
edge $-1 $528 0 $528 6.2831853071796004 $231 $529 forward 7 unknown #
vertex $-1 $234 $530 #
ellipse-curve $-1 62.958556705907363 15.533648514396646 8.2459340101511689 0.64278761758704617 0 0.76604443648966558 0.76604443648966558 0 -0.64278761758704617 1 I I #
coedge $-1 $375 $375 $-1 $531 reversed $237 $-1 #
edge $-1 $532 0 $532 6.2831853071796004 $238 $533 forward 7 unknown #
vertex $-1 $241 $534 #
ellipse-curve $-1 62.958556705907363 18.850957564807182 8.2459340101511689 0.64278761758704617 0 0.76604443648966558 0.76604443648966558 0 -0.64278761758704617 1 I I #
face $-1 $-1 $535 $52 $-1 $536 reversed single #
loop $-1 $-1 $248 $242 #
plane-surface $-1 0 0 13.975918352977947 0 0 1 1 0 0 forward_v I I I I #
coedge $-1 $537 $538 $539 $540 reversed $243 $-1 #
coedge $-1 $541 $245 $247 $389 forward $152 $-1 #
coedge $-1 $245 $541 $537 $542 forward $152 $-1 #
coedge $-1 $539 $248 $245 $386 forward $380 $-1 #
edge $-1 $392 -9.1442574492190172 $543 0.16528131820833103 $385 $544 forward 7 unknown #
coedge $-1 $545 $546 $246 $388 forward $535 $-1 #
edge $-1 $547 -56.091142937707701 $391 -46.990023613963082 $387 $548 forward 7 unknown #
edge $-1 $392 -16.710368922144283 $547 0 $247 $549 forward 7 unknown #
coedge $-1 $248 $539 $545 $550 forward $380 $-1 #
vertex $-1 $388 $551 #
vertex $-1 $249 $552 #
straight-curve $-1 -72.902523589809178 -13.63374551472436 13.975918352977949 1 0 0 I I #
coedge $-1 $394 $394 $-1 $553 reversed $252 $-1 #
edge $-1 $554 0 $554 6.2831853071796004 $253 $555 forward 7 unknown #
vertex $-1 $256 $556 #
ellipse-curve $-1 -62.780038730414759 -11.771837761238892 9.4253586911056395 -0.54463904215088732 0 0.83867056331134215 0.41933528165567108 0 0.27231952107544366 1 I I #
coedge $-1 $398 $398 $-1 $557 reversed $259 $-1 #
edge $-1 $558 0 $558 6.2831853071796004 $260 $559 forward 7 unknown #
vertex $-1 $263 $560 #
ellipse-curve $-1 -62.780038730414759 -8.9789761310106861 9.4253586911056395 -0.54463904215088732 0 0.83867056331134215 0.41933528165567108 0 0.27231952107544366 1 I I #
coedge $-1 $402 $402 $-1 $561 reversed $266 $-1 #
edge $-1 $562 0 $562 6.2831853071796004 $267 $563 forward 7 unknown #
vertex $-1 $270 $564 #
ellipse-curve $-1 -62.780038730414759 -6.1861145007824803 9.4253586911056395 -0.54463904215088732 0 0.83867056331134215 0.41933528165567108 0 0.27231952107544366 1 I I #
face $-1 $-1 $565 $56 $-1 $566 reversed single #
loop $-1 $-1 $277 $271 #
plane-surface $-1 0 0 13.975918352977947 0 0 1 1 0 0 forward_v I I I I #
coedge $-1 $567 $568 $569 $570 reversed $272 $-1 #
coedge $-1 $571 $274 $276 $416 forward $171 $-1 #
coedge $-1 $274 $571 $567 $572 forward $171 $-1 #
coedge $-1 $569 $277 $274 $413 forward $407 $-1 #
edge $-1 $419 0.27905389595088081 $573 9.588592663378229 $412 $574 forward 7 unknown #
coedge $-1 $575 $576 $275 $415 forward $565 $-1 #
edge $-1 $577 -56.091142937707701 $418 -46.990023613963082 $414 $578 forward 7 unknown #
edge $-1 $419 -16.710368922144283 $577 0 $276 $579 forward 7 unknown #
coedge $-1 $277 $569 $575 $580 forward $407 $-1 #
vertex $-1 $278 $581 #
vertex $-1 $278 $582 #
straight-curve $-1 -72.902523589809178 5.2128771756154357 13.975918352977949 1 0 0 I I #
coedge $-1 $421 $421 $-1 $583 reversed $281 $-1 #
edge $-1 $584 0 $584 6.2831853071796004 $282 $585 forward 7 unknown #
vertex $-1 $285 $586 #
ellipse-curve $-1 -62.780038730414759 7.0747849291009004 9.4253586911056395 -0.54463904215088732 0 0.83867056331134215 0.41933528165567108 0 0.27231952107544366 1 I I #
coedge $-1 $425 $425 $-1 $587 reversed $288 $-1 #
edge $-1 $588 0 $588 6.2831853071796004 $289 $589 forward 7 unknown #
vertex $-1 $292 $590 #
ellipse-curve $-1 -62.780038730414759 9.8676465593291098 9.4253586911056395 -0.54463904215088732 0 0.83867056331134215 0.41933528165567108 0 0.27231952107544366 1 I I #
coedge $-1 $429 $429 $-1 $591 reversed $295 $-1 #
edge $-1 $592 0 $592 6.2831853071796004 $296 $593 forward 7 unknown #
vertex $-1 $299 $594 #
ellipse-curve $-1 -62.780038730414759 12.660508189557312 9.4253586911056395 -0.54463904215088732 0 0.83867056331134215 0.41933528165567108 0 0.27231952107544366 1 I I #
face $-1 $-1 $315 $45 $-1 $595 reversed single #
loop $-1 $-1 $449 $300 #
plane-surface $-1 0 32.790035634287911 0 0 -1 0 0 0 -1 forward_v I I I I #
coedge $-1 $596 $447 $450 $597 forward $301 $-1 #
coedge $-1 $453 $303 $304 $441 reversed $190 $-1 #
coedge $-1 $447 $596 $303 $439 reversed $301 $-1 #
edge $-1 $454 -13.975918352977947 $598 13.975918352977947 $438 $599 forward 7 unknown #
coedge $-1 $305 $304 $596 $600 forward $121 $-1 #
edge $-1 $445 -69.787285988952306 $598 69.787285988952306 $437 $601 forward 7 unknown #
coedge $-1 $450 $449 $305 $443 reversed $434 $-1 #
edge $-1 $602 -69.787285988952306 $444 69.787285988952306 $442 $603 forward 7 unknown #
vertex $-1 $307 $604 #
vertex $-1 $456 $605 #
straight-curve $-1 69.787285988952306 0 -13.975918352977947 0 -1 0 I I #
coedge $-1 $436 $438 $308 $448 reversed $301 $-1 #
edge $-1 $451 -32.790035634287911 $454 32.790035634287911 $447 $606 forward 7 unknown #
coedge $-1 $442 $309 $314 $457 forward $434 $-1 #
coedge $-1 $309 $442 $436 $597 reversed $434 $-1 #
vertex $-1 $310 $607 #
straight-curve $-1 0 32.790035634287911 13.975918352977947 -1 0 0 I I #
coedge $-1 $311 $437 $313 $456 reversed $190 $-1 #
vertex $-1 $448 $608 #
straight-curve $-1 0 -32.790035634287911 13.975918352977947 1 0 0 I I #
edge $-1 $316 -13.975918352977947 $445 13.975918352977947 $313 $609 forward 7 unknown #
edge $-1 $317 -13.975918352977947 $444 13.975918352977947 $314 $610 forward 7 unknown #
point $-1 69.787285988952306 -32.790035634287911 13.975918352977947 #
point $-1 69.787285988952306 32.790035634287911 13.975918352977947 #
face $-1 $-1 $474 $46 $-1 $611 reversed single #
loop $-1 $-1 $612 $319 #
plane-surface $-1 0 -48.949322819643776 -11.154503444285854 0 1 0 0 0 1 forward_v I I I I #
coedge $-1 $613 $322 $331 $478 reversed $198 $-1 #
coedge $-1 $322 $613 $323 $466 reversed $198 $-1 #
coedge $-1 $324 $323 $614 $615 forward $125 $-1 #
edge $-1 $470 32.790035634287911 $616 48.949322819643776 $464 $617 forward 7 unknown #
coedge $-1 $618 $328 $324 $468 reversed $474 $-1 #
edge $-1 $619 -48.949322819643776 $469 -32.790035634287911 $467 $620 forward 7 unknown #
vertex $-1 $329 $621 #
vertex $-1 $466 $622 #
straight-curve $-1 0 -32.790035634287911 -13.975918352977947 1 0 0 I I #
straight-curve $-1 69.787285988952306 -32.790035634287911 0 0 0 1 I I #
coedge $-1 $328 $618 $330 $477 reversed $474 $-1 #
loop $-1 $-1 $328 $460 #
straight-curve $-1 -69.787285988952306 -32.790035634287911 0 0 0 -1 I I #
coedge $-1 $331 $330 $623 $624 forward $320 $-1 #
edge $-1 $332 -8.0796435926779324 $625 8.0796435926779324 $473 $626 forward 7 unknown #
edge $-1 $627 -8.0796435926779324 $333 8.0796435926779324 $463 $628 forward 7 unknown #
point $-1 -69.787285988952306 -32.790035634287911 -8.3330885355937614 #
point $-1 69.787285988952306 -32.790035634287911 -8.3330885355937614 #
face $-1 $-1 $493 $47 $-1 $629 reversed single #
loop $-1 $-1 $488 $335 #
plane-surface $-1 0 0 -13.975918352977947 0 0 1 1 0 0 forward_v I I I I #
coedge $-1 $346 $630 $340 $490 forward $336 $-1 #
coedge $-1 $631 $338 $497 $632 reversed $206 $-1 #
coedge $-1 $338 $631 $500 $633 reversed $206 $-1 #
edge $-1 $501 -13.975918352977947 $498 13.975918352977947 $338 $634 forward 7 unknown #
coedge $-1 $635 $344 $339 $489 forward $482 $-1 #
edge $-1 $349 7.5993637902386766 $494 19.326902492779048 $488 $636 forward 7 unknown #
edge $-1 $495 -19.326902492779048 $348 -7.5993637902386766 $484 $637 forward 7 unknown #
coedge $-1 $638 $341 $630 $639 reversed $493 $-1 #
coedge $-1 $341 $638 $635 $640 reversed $493 $-1 #
loop $-1 $-1 $341 $481 #
vertex $-1 $640 $641 #
vertex $-1 $342 $642 #
straight-curve $-1 -54.855622496762884 32.790035634287911 0 0 0 1 I I #
coedge $-1 $344 $635 $485 $632 forward $482 $-1 #
vertex $-1 $345 $643 #
straight-curve $-1 -25.745962362198849 21.062496931747539 -13.975918352977947 -1 0 0 I I #
coedge $-1 $630 $346 $486 $633 forward $336 $-1 #
vertex $-1 $347 $644 #
straight-curve $-1 -25.745962362198849 21.062496931747539 13.975918352977947 1 0 0 I I #
point $-1 -54.855622496762884 21.062496931747539 13.975918352977947 #
point $-1 -54.855622496762884 21.062496931747539 -13.975918352977947 #
plane-surface $-1 0 0 13.975918352977947 0 0 1 1 0 0 forward_v I I I I #
coedge $-1 $516 $515 $508 $645 forward $352 $-1 #
coedge $-1 $508 $354 $356 $512 reversed $214 $-1 #
coedge $-1 $354 $507 $506 $645 reversed $214 $-1 #
coedge $-1 $362 $357 $354 $510 forward $363 $-1 #
edge $-1 $513 29.837943299231895 $646 43.495401865321753 $509 $647 forward 7 unknown #
coedge $-1 $356 $355 $516 $648 reversed $133 $-1 #
edge $-1 $649 -139.57457197790461 $513 -121.74602585768994 $507 $650 forward 7 unknown #
vertex $-1 $358 $651 #
straight-curve $-1 56.129827422862434 7.7668242571983228 13.975918352977949 0 -1 0 I I #
coedge $-1 $506 $359 $362 $520 reversed $352 $-1 #
coedge $-1 $359 $506 $511 $648 forward $352 $-1 #
vertex $-1 $360 $652 #
straight-curve $-1 69.787285988952306 21.062496931747539 99.576540301916793 0 0 1 I I #
straight-curve $-1 -37.133038350147899 21.062496931747539 92.232756264733382 0.76604443648966558 0 -0.64278761758704617 I I #
edge $-1 $646 10.004800097045752 $364 21.062496931747539 $515 $653 forward 7 unknown #
point $-1 69.787285988952306 21.062496931747539 13.975918352977947 #
point $-1 56.129827422862448 21.062496931747539 13.975918352977942 #
edge $-1 $654 1 $654 0 $367 $-1 forward 7 unknown #
vertex $-1 $368 $655 #
ellipse-curve $-1 60.405179165077705 12.21633946398611 5.202937216353499 0.64278761758704617 0 0.76604443648966558 0.76604443648966558 0 -0.64278761758704617 1 I I #
point $-1 63.72460114239702 12.21633946398611 7.6031463925641116 #
edge $-1 $656 1 $656 0 $371 $-1 forward 7 unknown #
vertex $-1 $372 $657 #
ellipse-curve $-1 60.405179165077705 15.533648514396646 5.202937216353499 0.64278761758704617 0 0.76604443648966558 0.76604443648966558 0 -0.64278761758704617 1 I I #
point $-1 63.72460114239702 15.533648514396646 7.6031463925641116 #
edge $-1 $658 1 $658 0 $375 $-1 forward 7 unknown #
vertex $-1 $376 $659 #
ellipse-curve $-1 60.405179165077705 18.850957564807182 5.202937216353499 0.64278761758704617 0 0.76604443648966558 0.76604443648966558 0 -0.64278761758704617 1 I I #
point $-1 63.72460114239702 18.850957564807182 7.6031463925641116 #
loop $-1 $-1 $387 $379 #
plane-surface $-1 -69.787285988952306 0 0 1 0 0 0 0 -1 forward_v I I I I #
coedge $-1 $538 $382 $384 $542 reversed $243 $-1 #
coedge $-1 $382 $537 $660 $661 reversed $243 $-1 #
coedge $-1 $390 $385 $382 $540 forward $380 $-1 #
edge $-1 $543 -17.129732117931965 $662 -3.1152376008568723 $539 $663 forward 7 unknown #
coedge $-1 $384 $383 $546 $664 reversed $152 $-1 #
edge $-1 $665 0 $543 16.710368922144283 $537 $666 forward 7 unknown #
vertex $-1 $386 $667 #
straight-curve $-1 -55.77279147187722 -4.4894880655053431 13.975918352977946 0 1 0 I I #
coedge $-1 $660 $387 $390 $550 reversed $535 $-1 #
coedge $-1 $387 $660 $541 $664 forward $535 $-1 #
vertex $-1 $388 $668 #
straight-curve $-1 -69.787285988952306 -13.63374551472436 60.965941966941031 0 0 1 I I #
straight-curve $-1 -69.787285988952306 -13.63374551472436 4.8747990292333299 -0.83867056331134215 0 -0.54463904215088732 I I #
edge $-1 $662 4.324206747297012 $391 13.63374551472436 $545 $669 forward 7 unknown #
point $-1 -69.787285988952306 -13.63374551472436 13.975918352977947 #
point $-1 -55.772791471877213 -13.63374551472436 13.975918352977947 #
edge $-1 $670 1 $670 0 $394 $-1 forward 7 unknown #
vertex $-1 $395 $671 #
ellipse-curve $-1 -62.235399688263868 -11.771837761238892 8.5866881277942912 -0.54463904215088732 0 0.83867056331134215 0.41933528165567108 0 0.27231952107544366 1 I I #
point $-1 -62.360703448759082 -11.771837761238892 9.6976782121810778 #
edge $-1 $672 1 $672 0 $398 $-1 forward 7 unknown #
vertex $-1 $399 $673 #
ellipse-curve $-1 -62.235399688263868 -8.9789761310106861 8.5866881277942912 -0.54463904215088732 0 0.83867056331134215 0.41933528165567108 0 0.27231952107544366 1 I I #
point $-1 -62.360703448759082 -8.9789761310106861 9.6976782121810778 #
edge $-1 $674 1 $674 0 $402 $-1 forward 7 unknown #
vertex $-1 $403 $675 #
ellipse-curve $-1 -62.235399688263868 -6.1861145007824803 8.5866881277942912 -0.54463904215088732 0 0.83867056331134215 0.41933528165567108 0 0.27231952107544366 1 I I #
point $-1 -62.360703448759082 -6.1861145007824803 9.6976782121810778 #
loop $-1 $-1 $414 $406 #
plane-surface $-1 -69.787285988952306 0 0 1 0 0 0 0 -1 forward_v I I I I #
coedge $-1 $568 $409 $411 $572 reversed $272 $-1 #
coedge $-1 $409 $567 $676 $677 reversed $272 $-1 #
coedge $-1 $417 $412 $409 $570 forward $407 $-1 #
edge $-1 $573 -17.129732117931965 $678 -3.1152376008568723 $569 $679 forward 7 unknown #
coedge $-1 $411 $410 $576 $680 reversed $171 $-1 #
edge $-1 $681 0 $573 16.710368922144283 $567 $682 forward 7 unknown #
vertex $-1 $413 $683 #
straight-curve $-1 -55.77279147187722 4.9338232796645549 13.975918352977946 0 1 0 I I #
coedge $-1 $676 $414 $417 $580 reversed $565 $-1 #
coedge $-1 $414 $676 $571 $680 forward $565 $-1 #
vertex $-1 $415 $684 #
straight-curve $-1 -69.787285988952306 5.2128771756154357 60.965941966941031 0 0 1 I I #
straight-curve $-1 -69.787285988952306 5.2128771756154357 4.8747990292333299 -0.83867056331134215 0 -0.54463904215088732 I I #
edge $-1 $678 -14.522415943042784 $418 -5.2128771756154357 $575 $685 forward 7 unknown #
point $-1 -69.787285988952306 5.2128771756154357 13.975918352977947 #
point $-1 -55.772791471877213 5.2128771756154357 13.975918352977947 #
edge $-1 $686 1 $686 0 $421 $-1 forward 7 unknown #
vertex $-1 $422 $687 #
ellipse-curve $-1 -62.235399688263868 7.0747849291009004 8.5866881277942912 -0.54463904215088732 0 0.83867056331134215 0.41933528165567108 0 0.27231952107544366 1 I I #
point $-1 -62.360703448759082 7.0747849291009004 9.6976782121810778 #
edge $-1 $688 1 $688 0 $425 $-1 forward 7 unknown #
vertex $-1 $426 $689 #
ellipse-curve $-1 -62.235399688263868 9.8676465593291098 8.5866881277942912 -0.54463904215088732 0 0.83867056331134215 0.41933528165567108 0 0.27231952107544366 1 I I #
point $-1 -62.360703448759082 9.8676465593291098 9.6976782121810778 #
edge $-1 $690 1 $690 0 $429 $-1 forward 7 unknown #
vertex $-1 $430 $691 #
ellipse-curve $-1 -62.235399688263868 12.660508189557312 8.5866881277942912 -0.54463904215088732 0 0.83867056331134215 0.41933528165567108 0 0.27231952107544366 1 I I #
point $-1 -62.360703448759082 12.660508189557312 9.6976782121810778 #
plane-surface $-1 69.787285988952306 0 0 -1 0 0 0 0 1 forward_v I I I I #
coedge $-1 $438 $436 $440 $600 reversed $301 $-1 #
edge $-1 $451 -13.975918352977947 $602 13.975918352977947 $450 $692 forward 7 unknown #
vertex $-1 $600 $693 #
straight-curve $-1 -69.787285988952306 -32.790035634287911 0 0 0 -1 I I #
edge $-1 $598 -32.790035634287911 $602 32.790035634287911 $596 $694 forward 7 unknown #
straight-curve $-1 0 -32.790035634287911 -13.975918352977947 -1 0 0 I I #
vertex $-1 $443 $695 #
straight-curve $-1 0 32.790035634287911 -13.975918352977947 1 0 0 I I #
point $-1 69.787285988952306 32.790035634287911 -13.975918352977947 #
point $-1 69.787285988952306 -32.790035634287911 -13.975918352977947 #
straight-curve $-1 -69.787285988952306 0 13.975918352977947 0 -1 0 I I #
point $-1 -69.787285988952306 32.790035634287911 13.975918352977947 #
point $-1 -69.787285988952306 -32.790035634287911 13.975918352977947 #
straight-curve $-1 69.787285988952306 -32.790035634287911 0 0 0 -1 I I #
straight-curve $-1 69.787285988952306 32.790035634287911 0 0 0 -1 I I #
plane-surface $-1 -69.787285988952306 0 0 1 0 0 0 0 -1 forward_v I I I I #
coedge $-1 $614 $623 $618 $696 forward $461 $-1 #
coedge $-1 $464 $463 $697 $698 forward $198 $-1 #
coedge $-1 $697 $612 $465 $615 reversed $461 $-1 #
edge $-1 $616 -69.787285988952306 $619 69.787285988952306 $614 $699 forward 7 unknown #
vertex $-1 $698 $700 #
straight-curve $-1 69.787285988952306 0 -13.975918352977947 0 -1 0 I I #
coedge $-1 $473 $467 $612 $696 reversed $474 $-1 #
vertex $-1 $468 $701 #
straight-curve $-1 -69.787285988952306 0 -13.975918352977947 0 1 0 I I #
point $-1 -69.787285988952306 -32.790035634287911 -13.975918352977947 #
point $-1 69.787285988952306 -32.790035634287911 -13.975918352977947 #
coedge $-1 $612 $697 $476 $624 reversed $461 $-1 #
edge $-1 $625 -69.787285988952306 $627 69.787285988952306 $623 $702 forward 7 unknown #
vertex $-1 $477 $703 #
straight-curve $-1 -69.787285988952306 -40.869679226965843 -8.3330885355937614 0 -1 0 I I #
vertex $-1 $478 $704 #
straight-curve $-1 69.787285988952306 -40.869679226965843 -8.3330885355937614 0 1 0 I I #
plane-surface $-1 0 32.790035634287911 0 0 -1 0 0 0 -1 forward_v I I I I #
coedge $-1 $484 $500 $491 $639 forward $336 $-1 #
coedge $-1 $486 $485 $638 $705 reversed $206 $-1 #
edge $-1 $706 -19.326902492779048 $498 -7.5993637902386766 $497 $707 forward 7 unknown #
edge $-1 $501 7.5993637902386766 $708 19.326902492779048 $500 $709 forward 7 unknown #
straight-curve $-1 -48.128226952032513 21.062496931747539 0 0 0 -1 I I #
coedge $-1 $497 $488 $492 $640 forward $482 $-1 #
straight-curve $-1 -54.855622496762884 13.463133141508862 -13.975918352977947 0 1 0 I I #
straight-curve $-1 -54.855622496762884 13.463133141508862 13.975918352977947 0 -1 0 I I #
coedge $-1 $492 $491 $631 $705 forward $493 $-1 #
edge $-1 $708 48.128226952032513 $495 54.855622496762884 $491 $710 forward 7 unknown #
edge $-1 $494 -54.855622496762884 $706 -48.128226952032513 $492 $711 forward 7 unknown #
point $-1 -54.855622496762884 32.790035634287911 -13.975918352977947 #
point $-1 -54.855622496762884 32.790035634287911 13.975918352977947 #
point $-1 -48.128226952032513 21.062496931747539 -13.975918352977947 #
point $-1 -48.128226952032513 21.062496931747539 13.975918352977947 #
edge $-1 $646 85.600621948938851 $649 97.060590634592415 $506 $712 forward 7 unknown #
vertex $-1 $520 $713 #
straight-curve $-1 26.291884123630552 10.004800097045752 13.975918352977942 1 0 0 I I #
edge $-1 $649 2.2379758398474294 $517 13.295672674549216 $516 $714 forward 7 unknown #
vertex $-1 $648 $715 #
straight-curve $-1 -37.133038350147899 10.004800097045752 92.232756264733382 -0.76604443648966558 0 0.64278761758704617 I I #
point $-1 56.129827422862448 10.004800097045752 13.975918352977942 #
point $-1 69.787285988952306 21.062496931747539 2.515949667324378 #
straight-curve $-1 69.787285988952306 0 13.975918352977947 0 1 0 I I #
vertex $-1 $523 $716 #
point $-1 61.17122360156737 12.21633946398611 4.5601495987664533 #
vertex $-1 $527 $717 #
point $-1 61.17122360156737 15.533648514396646 4.5601495987664533 #
vertex $-1 $531 $718 #
point $-1 61.17122360156737 18.850957564807182 4.5601495987664533 #
coedge $-1 $546 $545 $538 $661 forward $535 $-1 #
edge $-1 $662 46.990023613963082 $665 56.091142937707701 $660 $719 forward 7 unknown #
vertex $-1 $550 $720 #
straight-curve $-1 -72.902523589809178 -4.324206747297012 13.975918352977949 -1 0 0 I I #
edge $-1 $665 -0.16528131820833103 $547 9.1442574492190172 $546 $721 forward 7 unknown #
vertex $-1 $664 $722 #
straight-curve $-1 -69.787285988952306 -4.324206747297012 4.8747990292333299 0.83867056331134215 0 0.54463904215088732 I I #
point $-1 -55.772791471877213 -4.324206747297012 13.975918352977947 #
point $-1 -69.787285988952306 -13.63374551472436 4.8747990292333299 #
straight-curve $-1 -69.787285988952306 0 13.975918352977947 0 -1 0 I I #
vertex $-1 $553 $723 #
point $-1 -61.816064406608199 -11.771837761238892 8.8590076488697349 #
vertex $-1 $557 $724 #
point $-1 -61.816064406608199 -8.9789761310106861 8.8590076488697349 #
vertex $-1 $561 $725 #
point $-1 -61.816064406608199 -6.1861145007824803 8.8590076488697349 #
coedge $-1 $576 $575 $568 $677 forward $565 $-1 #
edge $-1 $678 46.990023613963082 $681 56.091142937707701 $676 $726 forward 7 unknown #
vertex $-1 $580 $727 #
straight-curve $-1 -72.902523589809178 14.522415943042784 13.975918352977949 -1 0 0 I I #
edge $-1 $681 -9.588592663378229 $577 -0.27905389595088081 $576 $728 forward 7 unknown #
vertex $-1 $680 $729 #
straight-curve $-1 -69.787285988952306 14.522415943042784 4.8747990292333299 0.83867056331134215 0 0.54463904215088732 I I #
point $-1 -55.772791471877213 14.522415943042784 13.975918352977947 #
point $-1 -69.787285988952306 5.2128771756154357 4.8747990292333299 #
straight-curve $-1 -69.787285988952306 0 13.975918352977947 0 -1 0 I I #
vertex $-1 $583 $730 #
point $-1 -61.816064406608199 7.0747849291009004 8.8590076488697349 #
vertex $-1 $587 $731 #
point $-1 -61.816064406608199 9.8676465593291098 8.8590076488697349 #
vertex $-1 $591 $732 #
point $-1 -61.816064406608199 12.660508189557312 8.8590076488697349 #
straight-curve $-1 -69.787285988952306 32.790035634287911 0 0 0 -1 I I #
point $-1 -69.787285988952306 -32.790035634287911 -13.975918352977947 #
straight-curve $-1 -69.787285988952306 0 -13.975918352977947 0 1 0 I I #
point $-1 -69.787285988952306 32.790035634287911 -13.975918352977947 #
edge $-1 $625 -2.821414908692093 $619 2.821414908692093 $618 $733 forward 7 unknown #
coedge $-1 $623 $614 $613 $698 reversed $461 $-1 #
edge $-1 $627 -2.821414908692093 $616 2.821414908692093 $613 $734 forward 7 unknown #
straight-curve $-1 0 -48.949322819643776 -13.975918352977947 -1 0 0 I I #
point $-1 69.787285988952306 -48.949322819643776 -13.975918352977947 #
point $-1 -69.787285988952306 -48.949322819643776 -13.975918352977947 #
straight-curve $-1 0 -48.949322819643776 -8.3330885355937614 1 0 0 I I #
point $-1 -69.787285988952306 -48.949322819643776 -8.3330885355937614 #
point $-1 69.787285988952306 -48.949322819643776 -8.3330885355937614 #
edge $-1 $708 -13.975918352977947 $706 13.975918352977947 $638 $735 forward 7 unknown #
vertex $-1 $705 $736 #
straight-curve $-1 -48.128226952032513 13.463133141508862 -13.975918352977947 0 -1 0 I I #
vertex $-1 $639 $737 #
straight-curve $-1 -48.128226952032513 13.463133141508862 13.975918352977947 0 1 0 I I #
straight-curve $-1 0 32.790035634287911 13.975918352977947 -1 0 0 I I #
straight-curve $-1 0 32.790035634287911 -13.975918352977947 1 0 0 I I #
straight-curve $-1 69.787285988952306 10.004800097045752 99.576540301916793 0 0 -1 I I #
point $-1 69.787285988952306 10.004800097045752 13.975918352977947 #
straight-curve $-1 69.787285988952291 7.7668242571983228 2.5159496673243993 0 1 0 I I #
point $-1 69.787285988952306 10.004800097045752 2.515949667324378 #
point $-1 59.762391547490658 12.21633946398611 4.4368927798638342 #
point $-1 59.762391547490658 15.533648514396646 4.4368927798638342 #
point $-1 59.762391547490658 18.850957564807182 4.4368927798638342 #
straight-curve $-1 -69.787285988952306 -4.324206747297012 60.965941966941031 0 0 -1 I I #
point $-1 -69.787285988952306 -4.324206747297012 13.975918352977947 #
straight-curve $-1 -69.787285988952306 -4.4894880655053431 4.8747990292333254 0 -1 0 I I #
point $-1 -69.787285988952306 -4.324206747297012 4.8747990292333299 #
point $-1 -61.963080167188423 -11.771837761238892 8.1673528461386216 #
point $-1 -61.963080167188423 -8.9789761310106861 8.1673528461386216 #
point $-1 -61.963080167188423 -6.1861145007824803 8.1673528461386216 #
straight-curve $-1 -69.787285988952306 14.522415943042784 60.965941966941031 0 0 -1 I I #
point $-1 -69.787285988952306 14.522415943042784 13.975918352977947 #
straight-curve $-1 -69.787285988952306 4.9338232796645549 4.8747990292333254 0 -1 0 I I #
point $-1 -69.787285988952306 14.522415943042784 4.8747990292333299 #
point $-1 -61.963080167188423 7.0747849291009004 8.1673528461386216 #
point $-1 -61.963080167188423 9.8676465593291098 8.1673528461386216 #
point $-1 -61.963080167188423 12.660508189557312 8.1673528461386216 #
straight-curve $-1 -69.787285988952306 -48.949322819643776 -11.154503444285854 0 0 -1 I I #
straight-curve $-1 69.787285988952306 -48.949322819643776 -11.154503444285854 0 0 -1 I I #
straight-curve $-1 -48.128226952032513 32.790035634287911 0 0 0 -1 I I #
point $-1 -48.128226952032513 32.790035634287911 -13.975918352977947 #
point $-1 -48.128226952032513 32.790035634287911 13.975918352977947 #
End-of-ACIS-data 