500 0 6 0           
7 Unknown 11 ACIS 5.0 NT 24 Fri Mar 26 17:54:49 1999 
-1 9.9999999999999995e-007 1e-010 
body $-1 $6 $-1 $7 #
body $-1 $8 $-1 $9 #
body $-1 $10 $-1 $11 #
body $-1 $12 $-1 $13 #
body $-1 $14 $-1 $15 #
body $-1 $16 $-1 $17 #
lump $-1 $-1 $18 $0 #
transform $-1 1 0 0 0 1 0 0 0 1 46.118350779747914 19.668455492919989 5.3325182320017888 1 rotate no_reflect no_shear #
lump $-1 $-1 $19 $1 #
transform $-1 1 0 0 0 1 0 0 0 1 46.118350779747914 19.668455492919989 5.3325182320017888 1 rotate no_reflect no_shear #
lump $-1 $-1 $20 $2 #
transform $-1 1 0 0 0 1 0 0 0 1 46.118350779747914 19.668455492919989 5.3325182320017888 1 rotate no_reflect no_shear #
lump $-1 $-1 $21 $3 #
transform $-1 1 0 0 0 1 0 0 0 1 46.118350779747914 19.668455492919989 5.3325182320017888 1 rotate no_reflect no_shear #
lump $-1 $-1 $22 $4 #
transform $-1 1 0 0 0 1 0 0 0 1 46.118350779747914 19.668455492919989 5.3325182320017888 1 rotate no_reflect no_shear #
lump $-1 $-1 $23 $5 #
transform $-1 1 0 0 0 1 0 0 0 1 46.118350779747914 19.668455492919989 5.3325182320017888 1 rotate no_reflect no_shear #
shell $-1 $-1 $-1 $24 $-1 $6 #
shell $-1 $-1 $-1 $25 $-1 $8 #
shell $-1 $-1 $-1 $26 $-1 $10 #
shell $-1 $-1 $-1 $27 $-1 $12 #
shell $-1 $-1 $-1 $28 $-1 $14 #
shell $-1 $-1 $-1 $29 $-1 $16 #
face $-1 $30 $31 $18 $-1 $32 forward single #
face $-1 $33 $34 $19 $-1 $35 forward single #
face $-1 $36 $37 $20 $-1 $38 reversed single #
face $-1 $39 $40 $21 $-1 $41 forward single #
face $-1 $42 $43 $22 $-1 $44 reversed single #
face $-1 $45 $46 $23 $-1 $47 forward single #
face $-1 $48 $49 $18 $-1 $50 reversed single #
loop $-1 $-1 $51 $24 #
plane-surface $-1 0 0 5.3325182320017888 0 0 1 1 0 0 forward_v I I I I #
face $-1 $52 $53 $19 $-1 $54 reversed single #
loop $-1 $-1 $55 $25 #
plane-surface $-1 0 -19.668455492919989 0 0 1 0 0 0 1 forward_v I I I I #
face $-1 $56 $57 $20 $-1 $58 reversed single #
loop $-1 $-1 $59 $26 #
plane-surface $-1 68.76943666109959 -6.8159912017621345 130.08227474006844 0 -1 0 -0.81915205242281985 0 -0.57357642473473569 forward_v I I I I #
face $-1 $60 $61 $21 $-1 $62 forward single #
loop $-1 $63 $64 $27 #
cone-surface $-1 44.090437615932373 -10.722629232135011 2.9668116065525951 -0.81915205242281985 0 -0.57357642473473569 0.28678821236736785 0 -0.40957602621140993 1 I I 0 1 0.5 forward I I I I #
face $-1 $65 $66 $22 $-1 $67 reversed single #
loop $-1 $-1 $68 $28 #
plane-surface $-1 -109.02363072879324 1.048692290184297 67.589700550722981 0 1 0 -0.68199836817093118 0 0.7313536940579346 forward_v I I I I #
face $-1 $69 $70 $23 $-1 $71 forward single #
loop $-1 $72 $73 $29 #
cone-surface $-1 -42.134762297956755 5.5699879687835434 1.4506118942928612 0.68199836817093118 0 -0.7313536940579346 1.0970305410869019 0 1.0229975522563968 1 I I 0 1 1.5 forward I I I I #
face $-1 $74 $75 $18 $-1 $76 reversed single #
loop $-1 $-1 $77 $30 #
plane-surface $-1 0 0 -5.3325182320017888 0 0 1 1 0 0 forward_v I I I I #
coedge $-1 $78 $79 $80 $81 forward $31 $-1 #
face $-1 $82 $83 $19 $-1 $84 reversed single #
loop $-1 $-1 $85 $33 #
plane-surface $-1 0 0 -5.3325182320017888 0 0 1 1 0 0 forward_v I I I I #
coedge $-1 $86 $87 $88 $89 forward $34 $-1 #
face $-1 $90 $91 $20 $-1 $92 reversed single #
loop $-1 $-1 $93 $36 #
plane-surface $-1 -6.7864467300725266 -10.722629232135011 77.177477230248002 0.81915205242281985 0 0.57357642473473569 0.57357642473473569 0 -0.81915205242281985 forward_v I I I I #
coedge $-1 $94 $95 $96 $97 reversed $37 $-1 #
face $-1 $-1 $98 $21 $-1 $99 forward single #
loop $-1 $100 $101 $39 #
cone-surface $-1 43.156945016624917 -10.722629232135011 2.3131730713826499 -0.81915205242281985 0 -0.57357642473473569 0.14339410618368392 0 -0.20478801310570496 1 I I -0.70710678118654746 0.70710678118654746 0.25 forward I I I I #
loop $-1 $-1 $102 $27 #
coedge $-1 $64 $64 $103 $104 reversed $40 $-1 #
face $-1 $105 $106 $22 $-1 $107 reversed single #
loop $-1 $-1 $108 $42 #
plane-surface $-1 -46.1183507797479 5.5699879687835434 0.13204813746645527 -0.68199836817093118 0 0.7313536940579346 0.7313536940579346 0 0.68199836817093118 forward_v I I I I #
coedge $-1 $109 $110 $111 $112 reversed $43 $-1 #
face $-1 $-1 $113 $23 $-1 $114 forward single #
loop $-1 $115 $116 $45 #
cone-surface $-1 -40.428085681456253 5.5699879687835434 -0.37957466669185003 0.68199836817093118 0 -0.7313536940579346 0.54851527054345095 0 0.51149877612819838 1 I I -0.70710678118654768 0.70710678118654757 0.75 forward I I I I #
loop $-1 $-1 $117 $29 #
coedge $-1 $73 $73 $118 $119 reversed $46 $-1 #
face $-1 $120 $121 $18 $-1 $122 reversed single #
loop $-1 $-1 $123 $48 #
plane-surface $-1 0 -19.668455492919989 0 0 1 0 0 0 1 forward_v I I I I #
coedge $-1 $124 $125 $126 $127 forward $49 $-1 #
coedge $-1 $128 $51 $129 $130 forward $31 $-1 #
coedge $-1 $51 $128 $131 $132 forward $31 $-1 #
coedge $-1 $133 $134 $51 $81 reversed $135 $-1 #
edge $-1 $136 -19.668455492919989 $137 19.668455492919989 $80 $138 forward 7 unknown #
face $-1 $139 $140 $19 $-1 $141 forward single #
loop $-1 $-1 $142 $52 #
plane-surface $-1 46.118350779747914 0 0 -1 0 0 0 0 1 forward_v I I I I #
coedge $-1 $143 $144 $145 $146 forward $53 $-1 #
coedge $-1 $145 $55 $142 $147 reversed $34 $-1 #
coedge $-1 $55 $145 $148 $149 reversed $34 $-1 #
coedge $-1 $150 $151 $55 $89 reversed $140 $-1 #
edge $-1 $152 -46.118350779747914 $153 46.118350779747914 $88 $154 forward 7 unknown #
face $-1 $155 $156 $20 $-1 $157 reversed single #
loop $-1 $-1 $158 $56 #
plane-surface $-1 68.76943666109959 -14.629267262507888 130.08227474006844 0 1 0 0.81915205242281985 0 0.57357642473473569 forward_v I I I I #
coedge $-1 $159 $160 $161 $162 reversed $57 $-1 #
coedge $-1 $95 $59 $163 $164 reversed $37 $-1 #
coedge $-1 $59 $94 $159 $165 reversed $37 $-1 #
coedge $-1 $161 $166 $59 $97 forward $167 $-1 #
edge $-1 $168 -11.733632449198119 $169 -9.1352152939705107 $96 $170 forward 7 unknown #
loop $-1 $-1 $103 $60 #
plane-surface $-1 -6.7864467300725266 -10.722629232135011 77.177477230248002 0.81915205242281985 0 0.57357642473473569 0.57357642473473569 0 -0.81915205242281985 forward_v I I I I #
loop $-1 $-1 $171 $39 #
coedge $-1 $101 $101 $102 $172 reversed $61 $-1 #
coedge $-1 $102 $102 $101 $172 forward $63 $-1 #
coedge $-1 $103 $103 $64 $104 forward $98 $-1 #
edge $-1 $173 0 $173 6.2831853071796004 $103 $174 forward 7 unknown #
face $-1 $175 $176 $22 $-1 $177 forward single #
loop $-1 $-1 $178 $65 #
plane-surface $-1 -109.02363072879324 10.09128364738279 67.589700550722981 0 -1 0 0.68199836817093118 0 -0.7313536940579346 forward_v I I I I #
coedge $-1 $179 $180 $181 $182 reversed $66 $-1 #
coedge $-1 $110 $68 $183 $184 reversed $43 $-1 #
coedge $-1 $68 $109 $179 $185 reversed $43 $-1 #
coedge $-1 $181 $186 $68 $112 forward $176 $-1 #
edge $-1 $187 8.3934645846487044 $188 13.970285867486417 $111 $189 forward 7 unknown #
loop $-1 $-1 $118 $69 #
plane-surface $-1 -46.1183507797479 5.5699879687835434 0.13204813746645527 -0.68199836817093118 0 0.7313536940579346 0.7313536940579346 0 0.68199836817093118 forward_v I I I I #
loop $-1 $-1 $190 $45 #
coedge $-1 $116 $116 $117 $191 reversed $70 $-1 #
coedge $-1 $117 $117 $116 $191 forward $72 $-1 #
coedge $-1 $118 $118 $73 $119 forward $113 $-1 #
edge $-1 $192 0 $192 6.2831853071796004 $118 $193 forward 7 unknown #
face $-1 $194 $195 $18 $-1 $196 reversed single #
loop $-1 $-1 $197 $74 #
plane-surface $-1 -46.118350779747914 0 0 1 0 0 0 0 -1 forward_v I I I I #
coedge $-1 $131 $198 $133 $199 reversed $75 $-1 #
coedge $-1 $200 $77 $198 $201 forward $49 $-1 #
coedge $-1 $77 $200 $202 $203 forward $49 $-1 #
coedge $-1 $134 $133 $77 $127 reversed $135 $-1 #
edge $-1 $204 -19.668455492919989 $205 19.668455492919989 $126 $206 forward 7 unknown #
coedge $-1 $79 $78 $207 $208 forward $31 $-1 #
coedge $-1 $209 $210 $78 $130 reversed $195 $-1 #
edge $-1 $137 -46.118350779747914 $211 46.118350779747914 $129 $212 forward 7 unknown #
coedge $-1 $213 $123 $79 $132 reversed $75 $-1 #
edge $-1 $214 -46.118350779747914 $136 46.118350779747914 $131 $215 forward 7 unknown #
coedge $-1 $126 $80 $123 $199 forward $135 $-1 #
coedge $-1 $80 $126 $209 $216 reversed $135 $-1 #
loop $-1 $-1 $133 $194 #
vertex $-1 $81 $217 #
vertex $-1 $81 $218 #
straight-curve $-1 46.118350779747914 0 5.3325182320017888 0 1 0 I I #
face $-1 $219 $220 $19 $-1 $221 reversed single #
loop $-1 $-1 $151 $82 #
plane-surface $-1 0 -22.18804960812604 -2.2281128457894486 0 0 1 1 0 0 forward_v I I I I #
coedge $-1 $222 $223 $86 $147 forward $83 $-1 #
coedge $-1 $224 $85 $223 $225 forward $53 $-1 #
coedge $-1 $85 $224 $226 $227 forward $53 $-1 #
coedge $-1 $87 $86 $85 $146 reversed $34 $-1 #
edge $-1 $228 -46.118350779747914 $229 46.118350779747914 $85 $230 forward 7 unknown #
edge $-1 $229 -5.3325182320017888 $153 -2.2281128457894486 $142 $231 forward 7 unknown #
coedge $-1 $226 $232 $87 $149 forward $233 $-1 #
edge $-1 $152 2.2281128457894486 $228 5.3325182320017888 $148 $234 forward 7 unknown #
coedge $-1 $235 $88 $232 $236 forward $140 $-1 #
coedge $-1 $88 $235 $222 $237 forward $140 $-1 #
vertex $-1 $149 $238 #
vertex $-1 $237 $239 #
straight-curve $-1 0 -19.668455492919989 -2.2281128457894486 1 0 0 I I #
face $-1 $-1 $167 $20 $-1 $240 forward single #
loop $-1 $-1 $241 $90 #
plane-surface $-1 46.118350779747914 0 0 -1 0 0 0 0 1 forward_v I I I I #
coedge $-1 $242 $243 $244 $245 reversed $91 $-1 #
coedge $-1 $246 $93 $95 $165 forward $57 $-1 #
coedge $-1 $93 $246 $242 $247 forward $57 $-1 #
coedge $-1 $244 $96 $93 $162 forward $167 $-1 #
edge $-1 $169 1.4546765856946289 $248 9.2679526464403814 $161 $249 forward 7 unknown #
coedge $-1 $250 $251 $94 $164 forward $156 $-1 #
edge $-1 $252 -63.419543530958336 $168 -59.708619138032432 $163 $253 forward 7 unknown #
edge $-1 $169 87.706499404779834 $252 92.236701559495842 $95 $254 forward 7 unknown #
coedge $-1 $96 $244 $250 $255 forward $167 $-1 #
loop $-1 $-1 $244 $155 #
vertex $-1 $164 $256 #
vertex $-1 $97 $257 #
straight-curve $-1 34.384718330549795 -6.8159912017621345 5.3325182320017888 -1 0 0 I I #
coedge $-1 $171 $171 $-1 $258 reversed $100 $-1 #
edge $-1 $259 0 $259 6.2831853071796004 $101 $260 forward 7 unknown #
vertex $-1 $104 $261 #
ellipse-curve $-1 44.819142202134103 -10.722629232135011 3.4770560355388413 0.81915205242281985 0 0.57357642473473569 0.28678821236736785 0 -0.40957602621140993 1 I I #
face $-1 $-1 $262 $22 $-1 $263 reversed single #
loop $-1 $-1 $111 $105 #
plane-surface $-1 0 0 5.3325182320017888 0 0 1 1 0 0 forward_v I I I I #
coedge $-1 $264 $265 $266 $267 reversed $106 $-1 #
coedge $-1 $268 $108 $110 $185 forward $66 $-1 #
coedge $-1 $108 $268 $264 $269 forward $66 $-1 #
coedge $-1 $266 $111 $108 $182 forward $176 $-1 #
edge $-1 $188 -1.7363016942074747 $270 7.3062896629910181 $181 $271 forward 7 unknown #
coedge $-1 $272 $273 $109 $184 forward $262 $-1 #
edge $-1 $274 -33.662802137895049 $187 -28.462332043359702 $183 $275 forward 7 unknown #
edge $-1 $188 -7.6253409644990864 $274 1.942241681305292e-014 $110 $276 forward 7 unknown #
coedge $-1 $111 $266 $272 $277 forward $176 $-1 #
vertex $-1 $184 $278 #
vertex $-1 $112 $279 #
straight-curve $-1 -54.511815364396618 1.048692290184297 5.3325182320017888 1 0 0 I I #
coedge $-1 $190 $190 $-1 $280 reversed $115 $-1 #
edge $-1 $281 0 $281 6.2831853071796004 $116 $282 forward 7 unknown #
vertex $-1 $119 $283 #
ellipse-curve $-1 -43.329940138329057 5.5699879687835434 2.7322831847341149 -0.68199836817093118 0 0.7313536940579346 1.0970305410869019 0 1.0229975522563968 1 I I #
face $-1 $-1 $135 $18 $-1 $284 reversed single #
loop $-1 $-1 $209 $120 #
plane-surface $-1 0 19.668455492919989 0 0 -1 0 0 0 -1 forward_v I I I I #
coedge $-1 $285 $207 $210 $286 forward $121 $-1 #
coedge $-1 $123 $213 $124 $201 reversed $75 $-1 #
edge $-1 $136 -5.3325182320017888 $205 5.3325182320017888 $133 $287 forward 7 unknown #
coedge $-1 $125 $124 $285 $288 forward $49 $-1 #
edge $-1 $205 -46.118350779747914 $289 46.118350779747914 $198 $290 forward 7 unknown #
coedge $-1 $210 $209 $125 $203 reversed $195 $-1 #
edge $-1 $291 -46.118350779747914 $204 46.118350779747914 $202 $292 forward 7 unknown #
vertex $-1 $127 $293 #
vertex $-1 $199 $294 #
straight-curve $-1 46.118350779747914 0 -5.3325182320017888 0 -1 0 I I #
coedge $-1 $197 $295 $128 $208 reversed $121 $-1 #
edge $-1 $211 -19.668455492919989 $214 19.668455492919989 $207 $296 forward 7 unknown #
coedge $-1 $202 $129 $134 $216 forward $195 $-1 #
coedge $-1 $129 $202 $197 $286 reversed $195 $-1 #
vertex $-1 $130 $297 #
straight-curve $-1 0 19.668455492919989 5.3325182320017888 -1 0 0 I I #
coedge $-1 $198 $131 $295 $298 forward $75 $-1 #
vertex $-1 $208 $299 #
straight-curve $-1 0 -19.668455492919989 5.3325182320017888 1 0 0 I I #
edge $-1 $137 -5.3325182320017888 $204 5.3325182320017888 $134 $300 forward 7 unknown #
point $-1 46.118350779747914 -19.668455492919989 5.3325182320017888 #
point $-1 46.118350779747914 19.668455492919989 5.3325182320017888 #
face $-1 $-1 $233 $19 $-1 $301 reversed single #
loop $-1 $-1 $302 $139 #
plane-surface $-1 0 -24.70764372333209 -3.7803155388956187 0 1 0 0 0 1 forward_v I I I I #
coedge $-1 $303 $142 $151 $237 reversed $83 $-1 #
coedge $-1 $142 $303 $143 $225 reversed $83 $-1 #
coedge $-1 $144 $143 $304 $305 forward $53 $-1 #
edge $-1 $229 19.668455492919989 $306 24.70764372333209 $223 $307 forward 7 unknown #
coedge $-1 $308 $148 $144 $227 reversed $233 $-1 #
edge $-1 $309 -24.70764372333209 $228 -19.668455492919989 $226 $310 forward 7 unknown #
vertex $-1 $149 $311 #
vertex $-1 $225 $312 #
straight-curve $-1 0 -19.668455492919989 -5.3325182320017888 1 0 0 I I #
straight-curve $-1 46.118350779747914 -19.668455492919989 0 0 0 1 I I #
coedge $-1 $148 $308 $150 $236 reversed $233 $-1 #
loop $-1 $-1 $148 $219 #
straight-curve $-1 -46.118350779747914 -19.668455492919989 0 0 0 -1 I I #
coedge $-1 $151 $150 $313 $314 forward $140 $-1 #
edge $-1 $152 -2.5195941152060506 $315 2.5195941152060506 $232 $316 forward 7 unknown #
edge $-1 $317 -2.5195941152060506 $153 2.5195941152060506 $222 $318 forward 7 unknown #
point $-1 -46.118350779747914 -19.668455492919989 -2.2281128457894486 #
point $-1 46.118350779747914 -19.668455492919989 -2.2281128457894486 #
plane-surface $-1 0 0 5.3325182320017888 0 0 1 1 0 0 forward_v I I I I #
coedge $-1 $251 $250 $243 $319 forward $156 $-1 #
coedge $-1 $243 $158 $160 $247 reversed $91 $-1 #
coedge $-1 $158 $242 $241 $319 reversed $91 $-1 #
coedge $-1 $166 $161 $158 $245 forward $167 $-1 #
edge $-1 $248 9.1352152939705107 $320 11.733632449198119 $244 $321 forward 7 unknown #
coedge $-1 $160 $159 $251 $322 reversed $57 $-1 #
edge $-1 $323 -92.236701559495842 $248 -87.706499404779834 $242 $324 forward 7 unknown #
vertex $-1 $162 $325 #
straight-curve $-1 43.519933624520306 -5.3613146160675056 5.3325182320017817 0 -1 0 I I #
coedge $-1 $241 $163 $166 $255 reversed $156 $-1 #
coedge $-1 $163 $241 $246 $322 forward $156 $-1 #
vertex $-1 $164 $326 #
straight-curve $-1 46.118350779747914 -6.8159912017621345 65.041137370034221 0 0 1 I I #
straight-curve $-1 -6.7864467300725266 -6.8159912017621345 77.177477230248002 0.57357642473473569 0 -0.81915205242281985 I I #
edge $-1 $320 -14.629267262507888 $168 -6.8159912017621345 $250 $327 forward 7 unknown #
point $-1 46.118350779747914 -6.8159912017621345 5.3325182320017888 #
point $-1 43.519933624520306 -6.8159912017621345 5.3325182320017888 #
edge $-1 $328 1 $328 0 $171 $-1 forward 7 unknown #
vertex $-1 $172 $329 #
ellipse-curve $-1 43.361733029730622 -10.722629232135011 2.4565671775663338 0.81915205242281985 0 0.57357642473473569 0.28678821236736785 0 -0.40957602621140993 1 I I #
point $-1 45.105930414501493 -10.722629232135011 3.0674800093274461 #
loop $-1 $-1 $183 $175 #
plane-surface $-1 -46.118350779747914 0 0 1 0 0 0 0 -1 forward_v I I I I #
coedge $-1 $265 $178 $180 $269 reversed $106 $-1 #
coedge $-1 $178 $264 $330 $331 reversed $106 $-1 #
coedge $-1 $186 $181 $178 $267 forward $176 $-1 #
edge $-1 $270 -13.970285867486417 $332 -8.3934645846487044 $266 $333 forward 7 unknown #
coedge $-1 $180 $179 $273 $334 reversed $66 $-1 #
edge $-1 $335 -1.942241681305292e-014 $270 7.6253409644990864 $264 $336 forward 7 unknown #
vertex $-1 $182 $337 #
straight-curve $-1 -40.541529496910201 2.7849939843917717 5.3325182320017896 0 1 0 I I #
coedge $-1 $330 $183 $186 $277 reversed $262 $-1 #
coedge $-1 $183 $330 $268 $334 forward $262 $-1 #
vertex $-1 $184 $338 #
straight-curve $-1 -46.118350779747914 1.048692290184297 33.79485027536149 0 0 1 I I #
straight-curve $-1 -46.1183507797479 1.048692290184297 0.13204813746645527 -0.7313536940579346 0 -0.68199836817093118 I I #
edge $-1 $332 -10.09128364738279 $187 -1.048692290184297 $272 $339 forward 7 unknown #
point $-1 -46.118350779747914 1.048692290184297 5.3325182320017888 #
point $-1 -40.541529496910201 1.048692290184297 5.3325182320017888 #
edge $-1 $340 1 $340 0 $190 $-1 forward 7 unknown #
vertex $-1 $191 $341 #
ellipse-curve $-1 -40.939584457584452 5.5699879687835434 0.16894060385160081 -0.68199836817093118 0 0.7313536940579346 1.0970305410869019 0 1.0229975522563968 1 I I #
point $-1 -42.232909597242163 5.5699879687835434 3.7552807369905183 #
plane-surface $-1 46.118350779747914 0 0 -1 0 0 0 0 1 forward_v I I I I #
coedge $-1 $295 $197 $200 $288 reversed $121 $-1 #
edge $-1 $211 -5.3325182320017888 $291 5.3325182320017888 $210 $342 forward 7 unknown #
straight-curve $-1 46.118350779747914 -19.668455492919989 0 0 0 -1 I I #
edge $-1 $289 -19.668455492919989 $291 19.668455492919989 $285 $343 forward 7 unknown #
vertex $-1 $288 $344 #
straight-curve $-1 0 -19.668455492919989 -5.3325182320017888 -1 0 0 I I #
vertex $-1 $203 $345 #
straight-curve $-1 0 19.668455492919989 -5.3325182320017888 1 0 0 I I #
point $-1 46.118350779747914 19.668455492919989 -5.3325182320017888 #
point $-1 46.118350779747914 -19.668455492919989 -5.3325182320017888 #
coedge $-1 $207 $285 $213 $298 reversed $121 $-1 #
straight-curve $-1 -46.118350779747914 0 5.3325182320017888 0 -1 0 I I #
point $-1 -46.118350779747914 19.668455492919989 5.3325182320017888 #
edge $-1 $214 -5.3325182320017888 $289 5.3325182320017888 $295 $346 forward 7 unknown #
point $-1 -46.118350779747914 -19.668455492919989 5.3325182320017888 #
straight-curve $-1 46.118350779747914 19.668455492919989 0 0 0 -1 I I #
plane-surface $-1 -46.118350779747914 0 0 1 0 0 0 0 -1 forward_v I I I I #
coedge $-1 $304 $313 $308 $347 forward $220 $-1 #
coedge $-1 $223 $222 $348 $349 forward $83 $-1 #
coedge $-1 $348 $302 $224 $305 reversed $220 $-1 #
edge $-1 $306 -46.118350779747914 $309 46.118350779747914 $304 $350 forward 7 unknown #
vertex $-1 $349 $351 #
straight-curve $-1 46.118350779747914 0 -5.3325182320017888 0 -1 0 I I #
coedge $-1 $232 $226 $302 $347 reversed $233 $-1 #
vertex $-1 $227 $352 #
straight-curve $-1 -46.118350779747914 0 -5.3325182320017888 0 1 0 I I #
point $-1 -46.118350779747914 -19.668455492919989 -5.3325182320017888 #
point $-1 46.118350779747914 -19.668455492919989 -5.3325182320017888 #
coedge $-1 $302 $348 $235 $314 reversed $220 $-1 #
edge $-1 $315 -46.118350779747914 $317 46.118350779747914 $313 $353 forward 7 unknown #
vertex $-1 $236 $354 #
straight-curve $-1 -46.118350779747914 -22.18804960812604 -2.2281128457894486 0 -1 0 I I #
vertex $-1 $237 $355 #
straight-curve $-1 46.118350779747914 -22.18804960812604 -2.2281128457894486 0 1 0 I I #
edge $-1 $320 59.708619138032432 $323 63.419543530958336 $241 $356 forward 7 unknown #
vertex $-1 $255 $357 #
straight-curve $-1 34.384718330549795 -14.629267262507888 5.3325182320017888 1 0 0 I I #
edge $-1 $323 -9.2679526464403814 $252 -1.4546765856946289 $251 $358 forward 7 unknown #
vertex $-1 $322 $359 #
straight-curve $-1 -6.7864467300725266 -14.629267262507888 77.177477230248002 -0.57357642473473569 0 0.81915205242281985 I I #
point $-1 43.519933624520306 -14.629267262507888 5.3325182320017888 #
point $-1 46.118350779747907 -6.8159912017621345 1.6215938390758851 #
straight-curve $-1 46.118350779747914 0 5.3325182320017888 0 1 0 I I #
vertex $-1 $258 $360 #
point $-1 43.648521242097992 -10.722629232135011 2.0469911513549239 #
coedge $-1 $273 $272 $265 $331 forward $262 $-1 #
edge $-1 $332 28.462332043359702 $335 33.662802137895049 $330 $361 forward 7 unknown #
vertex $-1 $277 $362 #
straight-curve $-1 -54.511815364396618 10.09128364738279 5.3325182320017888 -1 0 0 I I #
edge $-1 $335 -7.3062896629910181 $274 1.7363016942074747 $273 $363 forward 7 unknown #
vertex $-1 $334 $364 #
straight-curve $-1 -46.1183507797479 10.09128364738279 0.13204813746645527 0.7313536940579346 0 0.68199836817093118 I I #
point $-1 -40.541529496910201 10.09128364738279 5.3325182320017888 #
point $-1 -46.118350779747914 1.048692290184297 0.13204813746644203 #
straight-curve $-1 -46.118350779747914 0 5.3325182320017888 0 -1 0 I I #
vertex $-1 $280 $365 #
point $-1 -39.84255391649755 5.5699879687835434 1.1919381561079976 #
straight-curve $-1 -46.118350779747914 19.668455492919989 0 0 0 -1 I I #
straight-curve $-1 -46.118350779747914 0 -5.3325182320017888 0 1 0 I I #
point $-1 -46.118350779747914 -19.668455492919989 -5.3325182320017888 #
point $-1 -46.118350779747914 19.668455492919989 -5.3325182320017888 #
straight-curve $-1 -46.118350779747914 -19.668455492919989 0 0 0 -1 I I #
edge $-1 $315 -1.5522026931061701 $309 1.5522026931061701 $308 $366 forward 7 unknown #
coedge $-1 $313 $304 $303 $349 reversed $220 $-1 #
edge $-1 $317 -1.5522026931061701 $306 1.5522026931061701 $303 $367 forward 7 unknown #
straight-curve $-1 0 -24.70764372333209 -5.3325182320017888 -1 0 0 I I #
point $-1 46.118350779747914 -24.70764372333209 -5.3325182320017888 #
point $-1 -46.118350779747914 -24.70764372333209 -5.3325182320017888 #
straight-curve $-1 0 -24.70764372333209 -2.2281128457894486 1 0 0 I I #
point $-1 -46.118350779747914 -24.70764372333209 -2.2281128457894486 #
point $-1 46.118350779747914 -24.70764372333209 -2.2281128457894486 #
straight-curve $-1 46.118350779747914 -14.629267262507888 65.041137370034221 0 0 -1 I I #
point $-1 46.118350779747914 -14.629267262507888 5.3325182320017888 #
straight-curve $-1 46.118350779747914 -5.3613146160675056 1.621593839075878 0 1 0 I I #
point $-1 46.118350779747907 -14.629267262507888 1.6215938390758851 #
point $-1 42.952157003519211 -10.722629232135011 2.1697789651989661 #
straight-curve $-1 -46.118350779747914 10.09128364738279 33.79485027536149 0 0 -1 I I #
point $-1 -46.118350779747914 10.09128364738279 5.3325182320017888 #
straight-curve $-1 -46.118350779747914 2.7849939843917717 0.13204813746644042 0 -1 0 I I #
point $-1 -46.118350779747914 10.09128364738279 0.13204813746644203 #
point $-1 -39.916586905328053 5.5699879687835434 -0.92808993723530087 #
straight-curve $-1 -46.118350779747914 -24.70764372333209 -3.7803155388956187 0 0 -1 I I #
straight-curve $-1 46.118350779747914 -24.70764372333209 -3.7803155388956187 0 0 -1 I I #
End-of-ACIS-data 