500 0 5 0           
7 Unknown 11 ACIS 5.0 NT 24 Fri Mar 26 16:25:22 1999 
-1 9.9999999999999995e-007 1e-010 
body $-1 $5 $-1 $6 #
body $-1 $7 $-1 $8 #
body $-1 $9 $-1 $10 #
body $-1 $11 $-1 $12 #
body $-1 $13 $-1 $14 #
lump $-1 $-1 $15 $0 #
transform $-1 1 0 0 0 1 0 0 0 1 57.05374309518723 27.685700146815851 8.0539220059652514 1 rotate no_reflect no_shear #
lump $-1 $-1 $16 $1 #
transform $-1 1 0 0 0 1 0 0 0 1 57.05374309518723 27.685700146815851 8.0539220059652514 1 rotate no_reflect no_shear #
lump $-1 $-1 $17 $2 #
transform $-1 1 0 0 0 1 0 0 0 1 57.05374309518723 27.685700146815851 8.0539220059652514 1 rotate no_reflect no_shear #
lump $-1 $-1 $18 $3 #
transform $-1 1 0 0 0 1 0 0 0 1 57.05374309518723 27.685700146815851 8.0539220059652514 1 rotate no_reflect no_shear #
lump $-1 $-1 $19 $4 #
transform $-1 1 0 0 0 1 0 0 0 1 57.05374309518723 27.685700146815851 8.0539220059652514 1 rotate no_reflect no_shear #
shell $-1 $-1 $-1 $20 $-1 $5 #
shell $-1 $-1 $-1 $21 $-1 $7 #
shell $-1 $-1 $-1 $22 $-1 $9 #
shell $-1 $-1 $-1 $23 $-1 $11 #
shell $-1 $-1 $-1 $24 $-1 $13 #
face $-1 $25 $26 $15 $-1 $27 forward single #
face $-1 $28 $29 $16 $-1 $30 forward single #
face $-1 $31 $32 $17 $-1 $33 forward single #
face $-1 $34 $35 $18 $-1 $36 reversed single #
face $-1 $37 $38 $19 $-1 $39 reversed single #
face $-1 $40 $41 $15 $-1 $42 reversed single #
loop $-1 $-1 $43 $20 #
plane-surface $-1 0 0 8.0539220059652514 0 0 1 1 0 0 forward_v I I I I #
face $-1 $44 $45 $16 $-1 $46 forward single #
loop $-1 $-1 $47 $21 #
plane-surface $-1 -54.822354193342257 -21.571159217092781 0 0 -1 0 0 0 -1 forward_v I I I I #
face $-1 $48 $49 $17 $-1 $50 forward single #
loop $-1 $-1 $51 $22 #
plane-surface $-1 -131.91499059616393 7.4667061374743895 87.03896830458676 0 1 0 -0.6560590369687036 0 0.75470957328743171 forward_v I I I I #
face $-1 $52 $53 $18 $-1 $54 reversed single #
loop $-1 $55 $56 $23 #
cone-surface $-1 -51.682253354267395 11.209937171999325 3.0279430877963485 0.6560590369687036 0 -0.75470957328743171 0.75470957328743171 0 0.6560590369687036 1 I I 0 1 1 forward I I I I #
face $-1 $57 $58 $19 $-1 $59 reversed single #
loop $-1 $60 $61 $24 #
cone-surface $-1 -51.682253354267395 16.824783723786719 3.0279430877963485 0.6560590369687036 0 -0.75470957328743171 0.75470957328743171 0 0.6560590369687036 1 I I 0 1 1 forward I I I I #
face $-1 $62 $63 $15 $-1 $64 reversed single #
loop $-1 $-1 $65 $25 #
plane-surface $-1 0 0 -8.0539220059652514 0 0 1 1 0 0 forward_v I I I I #
coedge $-1 $66 $67 $68 $69 forward $26 $-1 #
face $-1 $70 $71 $16 $-1 $72 forward single #
loop $-1 $-1 $73 $28 #
plane-surface $-1 -52.590965291497284 -24.628429681954316 0 -1 0 0 0 0 1 forward_v I I I I #
coedge $-1 $74 $75 $76 $77 reversed $29 $-1 #
face $-1 $78 $79 $17 $-1 $80 forward single #
loop $-1 $-1 $81 $31 #
plane-surface $-1 -57.053743095187215 14.017360447893022 0.92095609294774761 -0.6560590369687036 0 0.75470957328743171 0.75470957328743171 0 0.6560590369687036 forward_v I I I I #
coedge $-1 $82 $83 $84 $85 reversed $32 $-1 #
face $-1 $86 $87 $18 $-1 $88 forward single #
loop $-1 $89 $90 $34 #
cone-surface $-1 -50.085503325328091 11.209937171999325 1.1910923394924851 0.6560590369687036 0 -0.75470957328743171 0.37735478664371586 0 0.3280295184843518 1 I I -0.70710678118654746 0.70710678118654746 0.5 forward I I I I #
loop $-1 $-1 $91 $23 #
coedge $-1 $56 $56 $92 $93 reversed $35 $-1 #
face $-1 $94 $95 $19 $-1 $96 reversed single #
loop $-1 $97 $98 $37 #
cone-surface $-1 -50.085503325328091 16.824783723786719 1.1910923394924851 0.6560590369687036 0 -0.75470957328743171 0.37735478664371586 0 0.3280295184843518 1 I I -0.70710678118654746 0.70710678118654746 0.5 forward I I I I #
loop $-1 $-1 $99 $24 #
coedge $-1 $61 $61 $100 $101 reversed $38 $-1 #
face $-1 $102 $103 $15 $-1 $104 reversed single #
loop $-1 $-1 $105 $40 #
plane-surface $-1 0 -27.685700146815851 0 0 1 0 0 0 1 forward_v I I I I #
coedge $-1 $106 $107 $108 $109 forward $41 $-1 #
coedge $-1 $110 $43 $111 $112 forward $26 $-1 #
coedge $-1 $43 $110 $113 $114 forward $26 $-1 #
coedge $-1 $115 $116 $43 $69 reversed $117 $-1 #
edge $-1 $118 -27.685700146815851 $119 27.685700146815851 $68 $120 forward 7 unknown #
face $-1 $121 $122 $16 $-1 $123 reversed single #
loop $-1 $-1 $124 $44 #
plane-surface $-1 0 0 8.0539220059652514 0 0 1 1 0 0 forward_v I I I I #
coedge $-1 $125 $126 $127 $128 reversed $45 $-1 #
coedge $-1 $129 $47 $124 $130 reversed $29 $-1 #
coedge $-1 $47 $129 $131 $132 reversed $29 $-1 #
coedge $-1 $126 $125 $47 $77 forward $45 $-1 #
edge $-1 $133 -8.0539220059652514 $134 8.0539220059652514 $76 $135 forward 7 unknown #
face $-1 $136 $137 $17 $-1 $138 forward single #
loop $-1 $-1 $139 $48 #
plane-surface $-1 -131.91499059616393 20.568014758311655 87.03896830458676 0 -1 0 0.6560590369687036 0 -0.75470957328743171 forward_v I I I I #
coedge $-1 $140 $141 $142 $143 reversed $49 $-1 #
coedge $-1 $83 $51 $141 $144 forward $32 $-1 #
coedge $-1 $51 $82 $145 $146 reversed $32 $-1 #
coedge $-1 $147 $142 $51 $85 forward $137 $-1 #
edge $-1 $148 -17.10929066382451 $149 -8.9037522028947365 $84 $150 forward 7 unknown #
face $-1 $151 $152 $18 $-1 $153 forward single #
loop $-1 $-1 $154 $52 #
plane-surface $-1 -131.91499059616393 7.4667061374743895 87.03896830458676 0 1 0 -0.6560590369687036 0 0.75470957328743171 forward_v I I I I #
loop $-1 $-1 $155 $34 #
coedge $-1 $90 $90 $91 $156 forward $53 $-1 #
coedge $-1 $91 $91 $90 $156 reversed $55 $-1 #
coedge $-1 $92 $92 $56 $93 forward $152 $-1 #
edge $-1 $157 0 $157 6.2831853071796004 $92 $158 forward 7 unknown #
face $-1 $159 $160 $19 $-1 $161 reversed single #
loop $-1 $162 $163 $57 #
cone-surface $-1 -51.682253354267395 11.209937171999325 3.0279430877963485 0.6560590369687036 0 -0.75470957328743171 0.75470957328743171 0 0.6560590369687036 1 I I 0 1 1 forward I I I I #
loop $-1 $-1 $164 $37 #
coedge $-1 $98 $98 $99 $165 forward $58 $-1 #
coedge $-1 $99 $99 $98 $165 reversed $60 $-1 #
coedge $-1 $100 $100 $61 $101 forward $166 $-1 #
edge $-1 $167 0 $167 6.2831853071796004 $100 $168 forward 7 unknown #
face $-1 $169 $170 $15 $-1 $171 reversed single #
loop $-1 $-1 $172 $62 #
plane-surface $-1 -57.05374309518723 0 0 1 0 0 0 0 -1 forward_v I I I I #
coedge $-1 $173 $113 $174 $175 forward $63 $-1 #
coedge $-1 $176 $65 $173 $177 forward $41 $-1 #
coedge $-1 $65 $176 $178 $179 forward $41 $-1 #
coedge $-1 $116 $115 $65 $109 reversed $117 $-1 #
edge $-1 $180 -27.685700146815851 $181 27.685700146815851 $108 $182 forward 7 unknown #
coedge $-1 $67 $66 $183 $184 forward $26 $-1 #
coedge $-1 $185 $186 $66 $112 reversed $170 $-1 #
edge $-1 $119 -57.05374309518723 $187 57.05374309518723 $111 $188 forward 7 unknown #
coedge $-1 $105 $189 $67 $114 reversed $63 $-1 #
edge $-1 $190 -57.05374309518723 $118 57.05374309518723 $113 $191 forward 7 unknown #
coedge $-1 $108 $68 $189 $192 forward $117 $-1 #
coedge $-1 $68 $108 $185 $193 reversed $117 $-1 #
loop $-1 $-1 $115 $169 #
vertex $-1 $69 $194 #
vertex $-1 $69 $195 #
straight-curve $-1 57.05374309518723 0 8.0539220059652514 0 1 0 I I #
face $-1 $196 $197 $16 $-1 $198 reversed single #
loop $-1 $-1 $127 $70 #
plane-surface $-1 0 -27.685700146815851 0 0 1 0 0 0 1 forward_v I I I I #
coedge $-1 $199 $200 $74 $130 forward $71 $-1 #
coedge $-1 $76 $73 $199 $201 reversed $45 $-1 #
coedge $-1 $73 $76 $202 $203 reversed $45 $-1 #
coedge $-1 $204 $205 $73 $128 forward $122 $-1 #
edge $-1 $206 -8.0539220059652514 $207 8.0539220059652514 $127 $208 forward 7 unknown #
coedge $-1 $75 $74 $209 $210 reversed $29 $-1 #
edge $-1 $211 -29.642565998516101 $133 -25.179788194826155 $124 $212 forward 7 unknown #
coedge $-1 $213 $202 $75 $132 forward $197 $-1 #
edge $-1 $134 25.179788194826155 $214 29.642565998516101 $131 $215 forward 7 unknown #
vertex $-1 $130 $216 #
vertex $-1 $132 $217 #
straight-curve $-1 -52.590965291497284 -21.571159217092781 0 0 0 -1 I I #
face $-1 $218 $219 $17 $-1 $220 forward single #
loop $-1 $-1 $221 $78 #
plane-surface $-1 0 0 8.0539220059652514 0 0 1 1 0 0 forward_v I I I I #
coedge $-1 $222 $223 $221 $224 reversed $79 $-1 #
coedge $-1 $225 $81 $223 $226 reversed $49 $-1 #
coedge $-1 $81 $225 $82 $144 reversed $49 $-1 #
coedge $-1 $84 $221 $81 $143 forward $137 $-1 #
edge $-1 $227 -13.559334534365144 $148 -0.45802591352787836 $142 $228 forward 7 unknown #
edge $-1 $148 -10.872445178066762 $229 1.8809995614912076e-014 $82 $230 forward 7 unknown #
coedge $-1 $231 $232 $83 $146 forward $233 $-1 #
edge $-1 $149 35.465562146328125 $229 42.598528059345647 $145 $234 forward 7 unknown #
coedge $-1 $235 $84 $232 $236 forward $137 $-1 #
vertex $-1 $143 $237 #
vertex $-1 $236 $238 #
straight-curve $-1 -65.957495298081966 7.4667061374743895 8.0539220059652479 -1 0 0 I I #
face $-1 $239 $240 $18 $-1 $241 forward single #
loop $-1 $242 $92 $86 #
plane-surface $-1 -57.053743095187215 14.017360447893022 0.92095609294774761 -0.6560590369687036 0 0.75470957328743171 0.75470957328743171 0 0.6560590369687036 forward_v I I I I #
coedge $-1 $243 $244 $245 $246 reversed $87 $-1 #
coedge $-1 $155 $155 $-1 $247 forward $89 $-1 #
edge $-1 $248 0 $248 6.2831853071796004 $90 $249 forward 7 unknown #
vertex $-1 $93 $250 #
ellipse-curve $-1 -52.950973864722343 11.209937171999325 4.4874390494564933 0.6560590369687036 0 -0.75470957328743171 0.75470957328743171 0 0.6560590369687036 1 I I #
face $-1 $251 $252 $19 $-1 $253 forward single #
loop $-1 $254 $255 $94 #
cone-surface $-1 -50.085503325328091 11.209937171999325 1.1910923394924851 0.6560590369687036 0 -0.75470957328743171 0.37735478664371586 0 0.3280295184843518 1 I I -0.70710678118654746 0.70710678118654746 0.5 forward I I I I #
loop $-1 $-1 $256 $57 #
coedge $-1 $163 $163 $257 $258 reversed $95 $-1 #
coedge $-1 $164 $164 $-1 $259 forward $97 $-1 #
edge $-1 $260 0 $260 6.2831853071796004 $98 $261 forward 7 unknown #
loop $-1 $262 $100 $251 #
vertex $-1 $101 $263 #
ellipse-curve $-1 -52.950973864722343 16.824783723786719 4.4874390494564933 0.6560590369687036 0 -0.75470957328743171 0.75470957328743171 0 0.6560590369687036 1 I I #
face $-1 $-1 $117 $15 $-1 $264 reversed single #
loop $-1 $-1 $185 $102 #
plane-surface $-1 0 27.685700146815851 0 0 -1 0 0 0 -1 forward_v I I I I #
coedge $-1 $265 $183 $186 $266 forward $103 $-1 #
coedge $-1 $189 $105 $106 $177 reversed $63 $-1 #
coedge $-1 $183 $265 $105 $175 reversed $103 $-1 #
edge $-1 $190 -8.0539220059652514 $267 8.0539220059652514 $174 $268 forward 7 unknown #
coedge $-1 $107 $106 $265 $269 forward $41 $-1 #
edge $-1 $181 -57.05374309518723 $267 57.05374309518723 $173 $270 forward 7 unknown #
coedge $-1 $186 $185 $107 $179 reversed $170 $-1 #
edge $-1 $271 -57.05374309518723 $180 57.05374309518723 $178 $272 forward 7 unknown #
vertex $-1 $109 $273 #
vertex $-1 $192 $274 #
straight-curve $-1 57.05374309518723 0 -8.0539220059652514 0 -1 0 I I #
coedge $-1 $172 $174 $110 $184 reversed $103 $-1 #
edge $-1 $187 -27.685700146815851 $190 27.685700146815851 $183 $275 forward 7 unknown #
coedge $-1 $178 $111 $116 $193 forward $170 $-1 #
coedge $-1 $111 $178 $172 $266 reversed $170 $-1 #
vertex $-1 $112 $276 #
straight-curve $-1 0 27.685700146815851 8.0539220059652514 -1 0 0 I I #
coedge $-1 $113 $173 $115 $192 reversed $63 $-1 #
vertex $-1 $184 $277 #
straight-curve $-1 0 -27.685700146815851 8.0539220059652514 1 0 0 I I #
edge $-1 $118 -8.0539220059652514 $181 8.0539220059652514 $115 $278 forward 7 unknown #
edge $-1 $119 -8.0539220059652514 $180 8.0539220059652514 $116 $279 forward 7 unknown #
point $-1 57.05374309518723 -27.685700146815851 8.0539220059652514 #
point $-1 57.05374309518723 27.685700146815851 8.0539220059652514 #
face $-1 $280 $281 $16 $-1 $282 reversed single #
loop $-1 $-1 $131 $121 #
plane-surface $-1 0 0 -8.0539220059652514 0 0 1 1 0 0 forward_v I I I I #
coedge $-1 $283 $124 $125 $201 forward $71 $-1 #
coedge $-1 $124 $284 $285 $286 forward $71 $-1 #
edge $-1 $133 9.2569443761156229 $206 15.371485305838693 $199 $287 forward 7 unknown #
coedge $-1 $131 $288 $126 $203 forward $197 $-1 #
edge $-1 $207 -15.371485305838693 $134 -9.2569443761156229 $202 $289 forward 7 unknown #
coedge $-1 $290 $127 $288 $291 reversed $122 $-1 #
coedge $-1 $127 $290 $283 $292 reversed $122 $-1 #
vertex $-1 $292 $293 #
vertex $-1 $128 $294 #
straight-curve $-1 -52.590965291497284 -27.685700146815851 0 0 0 -1 I I #
coedge $-1 $285 $295 $129 $210 forward $281 $-1 #
edge $-1 $214 -8.0539220059652514 $211 8.0539220059652514 $209 $296 forward 7 unknown #
vertex $-1 $210 $297 #
straight-curve $-1 -27.411177096671128 -21.571159217092781 8.0539220059652514 1 0 0 I I #
coedge $-1 $298 $131 $295 $299 forward $197 $-1 #
vertex $-1 $299 $300 #
straight-curve $-1 -27.411177096671128 -21.571159217092781 -8.0539220059652514 -1 0 0 I I #
point $-1 -52.590965291497284 -21.571159217092781 8.0539220059652514 #
point $-1 -52.590965291497284 -21.571159217092781 -8.0539220059652514 #
face $-1 $301 $302 $17 $-1 $303 forward single #
loop $-1 $-1 $304 $136 #
plane-surface $-1 -54.822354193342257 -21.571159217092781 0 0 -1 0 0 0 -1 forward_v I I I I #
coedge $-1 $142 $305 $139 $224 forward $137 $-1 #
coedge $-1 $223 $139 $306 $307 reversed $79 $-1 #
coedge $-1 $139 $222 $140 $226 forward $79 $-1 #
edge $-1 $308 8.9037522028947365 $227 17.10929066382451 $221 $309 forward 7 unknown #
coedge $-1 $141 $140 $231 $310 reversed $49 $-1 #
edge $-1 $311 -1.8809995614912076e-014 $227 10.872445178066762 $223 $312 forward 7 unknown #
vertex $-1 $143 $313 #
straight-curve $-1 -48.848204634257449 7.0086802239465111 8.0539220059652532 0 -1 0 I I #
vertex $-1 $310 $314 #
straight-curve $-1 -57.053743095187215 7.4667061374743895 0.92095609294774761 -0.75470957328743171 0 -0.6560590369687036 I I #
coedge $-1 $306 $145 $225 $310 forward $233 $-1 #
coedge $-1 $145 $315 $147 $236 reversed $233 $-1 #
loop $-1 $-1 $306 $316 #
straight-curve $-1 -57.05374309518723 7.4667061374743895 43.51948415229338 0 0 -1 I I #
coedge $-1 $317 $147 $318 $319 forward $137 $-1 #
edge $-1 $149 -7.4667061374743895 $320 21.571159217092781 $232 $321 forward 7 unknown #
point $-1 -48.848204634257456 7.4667061374743895 8.0539220059652514 #
point $-1 -57.05374309518723 7.4667061374743895 8.0539220059652514 #
face $-1 $322 $323 $18 $-1 $324 forward single #
loop $-1 $-1 $325 $151 #
plane-surface $-1 -131.91499059616393 20.568014758311655 87.03896830458676 0 -1 0 0.6560590369687036 0 -0.75470957328743171 forward_v I I I I #
loop $-1 $-1 $326 $86 #
coedge $-1 $244 $154 $327 $328 forward $87 $-1 #
coedge $-1 $154 $243 $329 $330 reversed $87 $-1 #
coedge $-1 $331 $332 $154 $246 forward $323 $-1 #
edge $-1 $333 -17.10929066382451 $334 -8.9037522028947365 $245 $335 forward 7 unknown #
edge $-1 $336 1 $336 0 $155 $-1 forward 7 unknown #
vertex $-1 $156 $337 #
ellipse-curve $-1 -50.41353284381244 11.209937171999325 1.568447126136201 -0.6560590369687036 0 0.75470957328743171 0.75470957328743171 0 0.6560590369687036 1 I I #
point $-1 -52.196264291434915 11.209937171999325 5.1434980864251987 #
face $-1 $338 $166 $19 $-1 $339 forward single #
loop $-1 $-1 $340 $159 #
plane-surface $-1 -131.91499059616393 7.4667061374743895 87.03896830458676 0 1 0 -0.6560590369687036 0 0.75470957328743171 forward_v I I I I #
loop $-1 $-1 $341 $94 #
coedge $-1 $255 $255 $256 $342 forward $160 $-1 #
coedge $-1 $256 $256 $255 $342 reversed $162 $-1 #
coedge $-1 $257 $257 $163 $258 forward $262 $-1 #
edge $-1 $343 0 $343 6.2831853071796004 $257 $344 forward 7 unknown #
edge $-1 $345 1 $345 0 $164 $-1 forward 7 unknown #
vertex $-1 $165 $346 #
ellipse-curve $-1 -50.41353284381244 16.824783723786719 1.568447126136201 -0.6560590369687036 0 0.75470957328743171 0.75470957328743171 0 0.6560590369687036 1 I I #
loop $-1 $347 $257 $251 #
point $-1 -52.196264291434915 16.824783723786719 5.1434980864251987 #
plane-surface $-1 57.05374309518723 0 0 -1 0 0 0 0 1 forward_v I I I I #
coedge $-1 $174 $172 $176 $269 reversed $103 $-1 #
edge $-1 $187 -8.0539220059652514 $271 8.0539220059652514 $186 $348 forward 7 unknown #
vertex $-1 $269 $349 #
straight-curve $-1 -57.05374309518723 -27.685700146815851 0 0 0 -1 I I #
edge $-1 $267 -27.685700146815851 $271 27.685700146815851 $265 $350 forward 7 unknown #
straight-curve $-1 0 -27.685700146815851 -8.0539220059652514 -1 0 0 I I #
vertex $-1 $179 $351 #
straight-curve $-1 0 27.685700146815851 -8.0539220059652514 1 0 0 I I #
point $-1 57.05374309518723 27.685700146815851 -8.0539220059652514 #
point $-1 57.05374309518723 -27.685700146815851 -8.0539220059652514 #
straight-curve $-1 -57.05374309518723 0 8.0539220059652514 0 -1 0 I I #
point $-1 -57.05374309518723 27.685700146815851 8.0539220059652514 #
point $-1 -57.05374309518723 -27.685700146815851 8.0539220059652514 #
straight-curve $-1 57.05374309518723 -27.685700146815851 0 0 0 -1 I I #
straight-curve $-1 57.05374309518723 27.685700146815851 0 0 0 -1 I I #
face $-1 $352 $353 $16 $-1 $354 reversed single #
loop $-1 $-1 $209 $196 #
plane-surface $-1 -57.05374309518723 0 0 1 0 0 0 0 -1 forward_v I I I I #
coedge $-1 $355 $199 $205 $292 forward $71 $-1 #
coedge $-1 $200 $355 $356 $357 forward $71 $-1 #
coedge $-1 $358 $209 $200 $286 reversed $281 $-1 #
edge $-1 $359 -27.685700146815851 $211 21.571159217092781 $285 $360 forward 7 unknown #
straight-curve $-1 -52.590965291497284 -12.314214840977158 8.0539220059652514 0 -1 0 I I #
coedge $-1 $202 $361 $204 $291 forward $197 $-1 #
straight-curve $-1 -52.590965291497284 -12.314214840977158 -8.0539220059652514 0 1 0 I I #
coedge $-1 $205 $204 $362 $363 reversed $122 $-1 #
edge $-1 $364 -57.05374309518723 $207 52.590965291497284 $204 $365 forward 7 unknown #
edge $-1 $206 -52.590965291497284 $366 57.05374309518723 $205 $367 forward 7 unknown #
point $-1 -52.590965291497284 -27.685700146815851 8.0539220059652514 #
point $-1 -52.590965291497284 -27.685700146815851 -8.0539220059652514 #
coedge $-1 $209 $358 $213 $299 reversed $281 $-1 #
straight-curve $-1 -57.05374309518723 -21.571159217092781 0 0 0 1 I I #
point $-1 -57.05374309518723 -21.571159217092781 8.0539220059652514 #
coedge $-1 $361 $213 $368 $369 forward $197 $-1 #
edge $-1 $214 -21.571159217092781 $370 27.685700146815851 $295 $371 forward 7 unknown #
point $-1 -57.05374309518723 -21.571159217092781 -8.0539220059652514 #
face $-1 $372 $373 $17 $-1 $374 reversed single #
loop $-1 $-1 $375 $218 #
plane-surface $-1 -52.590965291497284 -24.628429681954316 0 -1 0 0 0 0 1 forward_v I I I I #
coedge $-1 $318 $376 $377 $378 reversed $219 $-1 #
coedge $-1 $221 $379 $380 $381 forward $137 $-1 #
coedge $-1 $380 $231 $222 $307 forward $233 $-1 #
edge $-1 $311 -42.598528059345647 $308 -35.465562146328125 $306 $382 forward 7 unknown #
vertex $-1 $307 $383 #
straight-curve $-1 -65.957495298081966 20.568014758311655 8.0539220059652479 1 0 0 I I #
edge $-1 $229 0.45802591352787836 $311 13.559334534365144 $231 $384 forward 7 unknown #
vertex $-1 $310 $385 #
straight-curve $-1 -57.053743095187215 20.568014758311655 0.92095609294774761 0.75470957328743171 0 0.6560590369687036 I I #
point $-1 -48.848204634257456 20.568014758311655 8.0539220059652514 #
point $-1 -57.05374309518723 7.4667061374743895 0.92095609294773528 #
coedge $-1 $232 $386 $387 $388 forward $233 $-1 #
face $-1 $389 $233 $17 $-1 $390 reversed single #
coedge $-1 $391 $235 $392 $393 forward $137 $-1 #
coedge $-1 $387 $304 $235 $319 reversed $219 $-1 #
edge $-1 $320 -29.642565998516101 $394 -25.179788194826155 $235 $395 forward 7 unknown #
vertex $-1 $388 $396 #
straight-curve $-1 -57.05374309518723 0 8.0539220059652514 0 -1 0 I I #
face $-1 $397 $398 $18 $-1 $399 forward single #
loop $-1 $-1 $400 $239 #
plane-surface $-1 0 0 8.0539220059652514 0 0 1 1 0 0 forward_v I I I I #
coedge $-1 $401 $402 $400 $403 reversed $240 $-1 #
coedge $-1 $404 $327 $332 $405 reversed $242 $-1 #
coedge $-1 $326 $406 $243 $328 reversed $242 $-1 #
edge $-1 $333 -10.872445178066762 $407 1.8809995614912076e-014 $243 $408 forward 7 unknown #
coedge $-1 $409 $410 $244 $330 forward $411 $-1 #
edge $-1 $334 35.465562146328125 $407 42.598528059345647 $329 $412 forward 7 unknown #
coedge $-1 $413 $245 $410 $414 forward $323 $-1 #
coedge $-1 $245 $400 $326 $405 forward $323 $-1 #
vertex $-1 $405 $415 #
vertex $-1 $414 $416 #
straight-curve $-1 -65.957495298081966 7.4667061374743895 8.0539220059652479 -1 0 0 I I #
vertex $-1 $247 $417 #
point $-1 -49.658823270525012 11.209937171999325 2.2245061631049046 #
face $-1 $418 $419 $19 $-1 $420 forward single #
plane-surface $-1 -57.053743095187215 14.017360447893022 0.92095609294774761 -0.6560590369687036 0 0.75470957328743171 0.75470957328743171 0 0.6560590369687036 forward_v I I I I #
coedge $-1 $421 $422 $423 $424 reversed $252 $-1 #
coedge $-1 $341 $341 $-1 $425 forward $254 $-1 #
edge $-1 $426 0 $426 6.2831853071796004 $255 $427 forward 7 unknown #
vertex $-1 $258 $428 #
ellipse-curve $-1 -52.950973864722343 11.209937171999325 4.4874390494564933 0.6560590369687036 0 -0.75470957328743171 0.75470957328743171 0 0.6560590369687036 1 I I #
vertex $-1 $259 $429 #
point $-1 -49.658823270525012 16.824783723786719 2.2245061631049046 #
loop $-1 $-1 $430 $251 #
straight-curve $-1 -57.05374309518723 27.685700146815851 0 0 0 -1 I I #
point $-1 -57.05374309518723 -27.685700146815851 -8.0539220059652514 #
straight-curve $-1 -57.05374309518723 0 -8.0539220059652514 0 1 0 I I #
point $-1 -57.05374309518723 27.685700146815851 -8.0539220059652514 #
face $-1 $-1 $431 $16 $-1 $432 reversed single #
loop $-1 $-1 $433 $280 #
plane-surface $-1 0 27.685700146815851 0 0 -1 0 0 0 -1 forward_v I I I I #
coedge $-1 $284 $283 $434 $435 forward $71 $-1 #
coedge $-1 $433 $436 $284 $357 reversed $353 $-1 #
edge $-1 $437 -57.05374309518723 $359 57.05374309518723 $356 $438 forward 7 unknown #
coedge $-1 $295 $285 $436 $439 forward $281 $-1 #
vertex $-1 $357 $440 #
straight-curve $-1 -57.05374309518723 0 8.0539220059652514 0 -1 0 I I #
coedge $-1 $288 $298 $441 $442 forward $197 $-1 #
coedge $-1 $441 $434 $290 $363 forward $431 $-1 #
edge $-1 $366 -8.0539220059652514 $364 8.0539220059652514 $362 $443 forward 7 unknown #
vertex $-1 $363 $444 #
straight-curve $-1 0 -27.685700146815851 -8.0539220059652514 -1 0 0 I I #
vertex $-1 $435 $445 #
straight-curve $-1 0 -27.685700146815851 8.0539220059652514 1 0 0 I I #
coedge $-1 $436 $433 $298 $369 reversed $353 $-1 #
edge $-1 $370 -57.05374309518723 $446 57.05374309518723 $368 $447 forward 7 unknown #
vertex $-1 $369 $448 #
straight-curve $-1 -57.05374309518723 0 -8.0539220059652514 0 1 0 I I #
face $-1 $316 $449 $17 $-1 $450 reversed single #
loop $-1 $-1 $451 $301 #
plane-surface $-1 0 -27.685700146815851 0 0 1 0 0 0 1 forward_v I I I I #
coedge $-1 $392 $452 $451 $453 reversed $302 $-1 #
coedge $-1 $304 $387 $454 $455 reversed $219 $-1 #
coedge $-1 $452 $392 $304 $378 forward $302 $-1 #
edge $-1 $394 -8.0539220059652514 $456 8.0539220059652514 $377 $457 forward 7 unknown #
coedge $-1 $305 $458 $459 $460 forward $137 $-1 #
coedge $-1 $461 $306 $305 $381 reversed $233 $-1 #
edge $-1 $462 -27.685700146815851 $308 -20.568014758311655 $380 $321 forward 7 unknown #
straight-curve $-1 -57.05374309518723 20.568014758311655 43.51948415229338 0 0 1 I I #
point $-1 -57.05374309518723 20.568014758311655 8.0539220059652514 #
straight-curve $-1 -57.05374309518723 7.0086802239465111 0.92095609294773439 0 1 0 I I #
point $-1 -57.05374309518723 20.568014758311655 0.92095609294773528 #
coedge $-1 $315 $461 $463 $464 reversed $233 $-1 #
coedge $-1 $376 $318 $315 $388 reversed $219 $-1 #
edge $-1 $465 -8.0539220059652514 $320 8.0539220059652514 $315 $466 forward 7 unknown #
face $-1 $467 $468 $17 $-1 $469 reversed single #
plane-surface $-1 -57.05374309518723 0 0 1 0 0 0 0 -1 forward_v I I I I #
coedge $-1 $458 $317 $470 $471 forward $137 $-1 #
coedge $-1 $377 $375 $317 $393 reversed $302 $-1 #
edge $-1 $394 9.2569443761156229 $472 15.371485305838693 $317 $473 forward 7 unknown #
vertex $-1 $319 $474 #
straight-curve $-1 -27.411177096671128 -21.571159217092781 8.0539220059652514 1 0 0 I I #
point $-1 -57.05374309518723 -21.571159217092781 8.0539220059652514 #
face $-1 $475 $476 $18 $-1 $477 forward single #
loop $-1 $-1 $478 $322 #
plane-surface $-1 -54.822354193342257 -21.571159217092781 0 0 -1 0 0 0 -1 forward_v I I I I #
coedge $-1 $332 $479 $325 $403 forward $323 $-1 #
coedge $-1 $402 $325 $480 $481 reversed $240 $-1 #
coedge $-1 $325 $401 $404 $482 forward $240 $-1 #
edge $-1 $483 8.9037522028947365 $484 17.10929066382451 $400 $485 forward 7 unknown #
coedge $-1 $406 $326 $402 $482 reversed $242 $-1 #
edge $-1 $484 -13.559334534365144 $333 -0.45802591352787836 $332 $486 forward 7 unknown #
coedge $-1 $327 $404 $409 $487 reversed $242 $-1 #
vertex $-1 $487 $488 #
straight-curve $-1 -57.053743095187215 7.4667061374743895 0.92095609294774761 -0.75470957328743171 0 -0.6560590369687036 I I #
coedge $-1 $480 $329 $406 $487 forward $411 $-1 #
coedge $-1 $329 $489 $331 $414 reversed $411 $-1 #
loop $-1 $-1 $480 $490 #
straight-curve $-1 -57.05374309518723 7.4667061374743895 43.51948415229338 0 0 -1 I I #
coedge $-1 $491 $331 $492 $493 forward $323 $-1 #
edge $-1 $334 -7.4667061374743895 $494 21.571159217092781 $410 $495 forward 7 unknown #
point $-1 -48.848204634257456 7.4667061374743895 8.0539220059652514 #
point $-1 -57.05374309518723 7.4667061374743895 8.0539220059652514 #
point $-1 -49.757473806843741 11.209937171999325 0.81373755284876914 #
face $-1 $496 $497 $19 $-1 $498 forward single #
loop $-1 $-1 $499 $338 #
plane-surface $-1 -131.91499059616393 20.568014758311655 87.03896830458676 0 -1 0 0.6560590369687036 0 -0.75470957328743171 forward_v I I I I #
coedge $-1 $422 $340 $500 $501 forward $252 $-1 #
coedge $-1 $340 $421 $502 $503 reversed $252 $-1 #
coedge $-1 $504 $505 $340 $424 forward $497 $-1 #
edge $-1 $506 -17.10929066382451 $507 -8.9037522028947365 $423 $508 forward 7 unknown #
edge $-1 $509 1 $509 0 $341 $-1 forward 7 unknown #
vertex $-1 $342 $510 #
ellipse-curve $-1 -50.41353284381244 11.209937171999325 1.568447126136201 -0.6560590369687036 0 0.75470957328743171 0.75470957328743171 0 0.6560590369687036 1 I I #
point $-1 -52.196264291434915 11.209937171999325 5.1434980864251987 #
point $-1 -49.757473806843741 16.824783723786719 0.81373755284876914 #
coedge $-1 $511 $500 $505 $512 reversed $347 $-1 #
loop $-1 $-1 $362 $352 #
plane-surface $-1 57.05374309518723 0 0 -1 0 0 0 0 1 forward_v I I I I #
coedge $-1 $368 $356 $513 $514 forward $353 $-1 #
coedge $-1 $362 $513 $355 $435 reversed $431 $-1 #
edge $-1 $366 -27.685700146815851 $437 27.685700146815851 $434 $515 forward 7 unknown #
coedge $-1 $356 $368 $358 $439 reversed $353 $-1 #
vertex $-1 $435 $516 #
straight-curve $-1 0 27.685700146815851 8.0539220059652514 -1 0 0 I I #
edge $-1 $359 -8.0539220059652514 $370 8.0539220059652514 $436 $517 forward 7 unknown #
point $-1 -57.05374309518723 27.685700146815851 8.0539220059652514 #
coedge $-1 $513 $362 $361 $442 reversed $431 $-1 #
edge $-1 $446 -27.685700146815851 $364 27.685700146815851 $441 $518 forward 7 unknown #
straight-curve $-1 57.05374309518723 -27.685700146815851 0 0 0 -1 I I #
point $-1 57.05374309518723 -27.685700146815851 -8.0539220059652514 #
point $-1 57.05374309518723 -27.685700146815851 8.0539220059652514 #
vertex $-1 $442 $519 #
straight-curve $-1 0 27.685700146815851 -8.0539220059652514 1 0 0 I I #
point $-1 -57.05374309518723 27.685700146815851 -8.0539220059652514 #
loop $-1 $-1 $454 $372 #
plane-surface $-1 0 0 -8.0539220059652514 0 0 1 1 0 0 forward_v I I I I #
coedge $-1 $520 $470 $375 $453 forward $373 $-1 #
coedge $-1 $375 $377 $521 $522 reversed $302 $-1 #
edge $-1 $472 -8.0539220059652514 $523 8.0539220059652514 $451 $524 forward 7 unknown #
coedge $-1 $463 $521 $376 $455 forward $449 $-1 #
edge $-1 $456 25.179788194826155 $465 29.642565998516101 $454 $525 forward 7 unknown #
vertex $-1 $455 $526 #
straight-curve $-1 -52.590965291497284 -21.571159217092781 0 0 0 -1 I I #
coedge $-1 $379 $391 $527 $528 forward $137 $-1 #
coedge $-1 $529 $530 $379 $460 reversed $468 $-1 #
edge $-1 $531 -57.05374309518723 $462 57.05374309518723 $459 $532 forward 7 unknown #
coedge $-1 $386 $380 $530 $533 forward $233 $-1 #
vertex $-1 $460 $534 #
coedge $-1 $535 $454 $386 $464 forward $449 $-1 #
edge $-1 $465 -21.571159217092781 $536 27.685700146815851 $386 $537 forward 7 unknown #
vertex $-1 $464 $538 #
straight-curve $-1 -57.05374309518723 -21.571159217092781 0 0 0 1 I I #
face $-1 $-1 $539 $17 $-1 $540 reversed single #
loop $-1 $-1 $529 $389 #
plane-surface $-1 0 27.685700146815851 0 0 -1 0 0 0 -1 forward_v I I I I #
coedge $-1 $451 $541 $391 $471 reversed $373 $-1 #
edge $-1 $472 -52.590965291497284 $542 57.05374309518723 $470 $543 forward 7 unknown #
vertex $-1 $471 $544 #
straight-curve $-1 -52.590965291497284 -12.314214840977158 8.0539220059652514 0 -1 0 I I #
point $-1 -52.590965291497284 -21.571159217092781 8.0539220059652514 #
face $-1 $545 $546 $18 $-1 $547 reversed single #
loop $-1 $-1 $548 $397 #
plane-surface $-1 -52.590965291497284 -24.628429681954316 0 -1 0 0 0 0 1 forward_v I I I I #
coedge $-1 $492 $549 $550 $551 reversed $398 $-1 #
coedge $-1 $400 $552 $553 $554 forward $323 $-1 #
coedge $-1 $553 $409 $401 $481 forward $411 $-1 #
edge $-1 $555 -42.598528059345647 $483 -35.465562146328125 $480 $556 forward 7 unknown #
edge $-1 $555 -1.8809995614912076e-014 $484 10.872445178066762 $402 $557 forward 7 unknown #
vertex $-1 $481 $558 #
vertex $-1 $405 $559 #
straight-curve $-1 -65.957495298081966 20.568014758311655 8.0539220059652479 1 0 0 I I #
straight-curve $-1 -48.848204634257449 7.0086802239465111 8.0539220059652532 0 -1 0 I I #
edge $-1 $407 0.45802591352787836 $555 13.559334534365144 $409 $560 forward 7 unknown #
point $-1 -57.05374309518723 7.4667061374743895 0.92095609294773528 #
coedge $-1 $410 $561 $562 $563 forward $411 $-1 #
face $-1 $564 $411 $18 $-1 $565 reversed single #
coedge $-1 $566 $413 $567 $568 forward $323 $-1 #
coedge $-1 $562 $478 $413 $493 reversed $398 $-1 #
edge $-1 $494 -29.642565998516101 $569 -25.179788194826155 $413 $570 forward 7 unknown #
vertex $-1 $563 $571 #
straight-curve $-1 -57.05374309518723 0 8.0539220059652514 0 -1 0 I I #
face $-1 $572 $573 $19 $-1 $574 forward single #
loop $-1 $-1 $575 $418 #
plane-surface $-1 0 0 8.0539220059652514 0 0 1 1 0 0 forward_v I I I I #
coedge $-1 $576 $577 $575 $578 reversed $419 $-1 #
coedge $-1 $430 $579 $421 $501 reversed $347 $-1 #
edge $-1 $506 -10.872445178066762 $580 1.8809995614912076e-014 $421 $581 forward 7 unknown #
coedge $-1 $582 $583 $422 $503 forward $584 $-1 #
edge $-1 $507 35.465562146328125 $580 42.598528059345647 $502 $585 forward 7 unknown #
coedge $-1 $586 $423 $583 $587 forward $497 $-1 #
coedge $-1 $423 $575 $430 $512 forward $497 $-1 #
vertex $-1 $512 $588 #
vertex $-1 $587 $589 #
straight-curve $-1 -65.957495298081966 7.4667061374743895 8.0539220059652479 -1 0 0 I I #
vertex $-1 $425 $590 #
point $-1 -49.658823270525012 11.209937171999325 2.2245061631049046 #
coedge $-1 $579 $430 $577 $591 reversed $347 $-1 #
edge $-1 $592 -13.559334534365144 $506 -0.45802591352787836 $505 $593 forward 7 unknown #
coedge $-1 $434 $441 $433 $514 reversed $431 $-1 #
edge $-1 $437 -8.0539220059652514 $446 8.0539220059652514 $513 $594 forward 7 unknown #
straight-curve $-1 57.05374309518723 0 8.0539220059652514 0 1 0 I I #
point $-1 57.05374309518723 27.685700146815851 8.0539220059652514 #
straight-curve $-1 -57.05374309518723 27.685700146815851 0 0 0 -1 I I #
straight-curve $-1 57.05374309518723 0 -8.0539220059652514 0 -1 0 I I #
point $-1 57.05374309518723 27.685700146815851 -8.0539220059652514 #
coedge $-1 $541 $451 $595 $596 reversed $373 $-1 #
coedge $-1 $454 $595 $452 $522 forward $449 $-1 #
edge $-1 $523 -15.371485305838693 $456 -9.2569443761156229 $521 $597 forward 7 unknown #
vertex $-1 $453 $598 #
straight-curve $-1 -52.590965291497284 -27.685700146815851 0 0 0 -1 I I #
straight-curve $-1 -27.411177096671128 -21.571159217092781 -8.0539220059652514 -1 0 0 I I #
point $-1 -52.590965291497284 -21.571159217092781 -8.0539220059652514 #
coedge $-1 $599 $600 $458 $528 reversed $539 $-1 #
edge $-1 $542 -27.685700146815851 $531 27.685700146815851 $527 $601 forward 7 unknown #
coedge $-1 $602 $459 $600 $603 forward $468 $-1 #
coedge $-1 $459 $602 $461 $533 reversed $468 $-1 #
vertex $-1 $528 $604 #
straight-curve $-1 0 27.685700146815851 8.0539220059652514 -1 0 0 I I #
edge $-1 $462 -8.0539220059652514 $536 8.0539220059652514 $530 $605 forward 7 unknown #
point $-1 -57.05374309518723 27.685700146815851 8.0539220059652514 #
coedge $-1 $606 $463 $602 $607 forward $449 $-1 #
vertex $-1 $607 $608 #
straight-curve $-1 -57.05374309518723 0 -8.0539220059652514 0 1 0 I I #
point $-1 -57.05374309518723 -21.571159217092781 -8.0539220059652514 #
loop $-1 $-1 $599 $467 #
plane-surface $-1 57.05374309518723 0 0 -1 0 0 0 0 1 forward_v I I I I #
coedge $-1 $470 $520 $599 $609 reversed $373 $-1 #
vertex $-1 $528 $610 #
straight-curve $-1 0 -27.685700146815851 8.0539220059652514 1 0 0 I I #
point $-1 -52.590965291497284 -27.685700146815851 8.0539220059652514 #
face $-1 $490 $611 $18 $-1 $612 reversed single #
loop $-1 $-1 $613 $475 #
plane-surface $-1 0 -27.685700146815851 0 0 1 0 0 0 1 forward_v I I I I #
coedge $-1 $567 $614 $613 $615 reversed $476 $-1 #
coedge $-1 $478 $562 $616 $617 reversed $398 $-1 #
coedge $-1 $614 $567 $478 $551 forward $476 $-1 #
edge $-1 $569 -8.0539220059652514 $618 8.0539220059652514 $550 $619 forward 7 unknown #
coedge $-1 $479 $620 $621 $622 forward $323 $-1 #
coedge $-1 $623 $480 $479 $554 reversed $411 $-1 #
edge $-1 $624 -27.685700146815851 $483 -20.568014758311655 $553 $495 forward 7 unknown #
vertex $-1 $487 $625 #
straight-curve $-1 -57.05374309518723 20.568014758311655 43.51948415229338 0 0 1 I I #
straight-curve $-1 -57.053743095187215 20.568014758311655 0.92095609294774761 0.75470957328743171 0 0.6560590369687036 I I #
point $-1 -57.05374309518723 20.568014758311655 8.0539220059652514 #
point $-1 -48.848204634257456 20.568014758311655 8.0539220059652514 #
straight-curve $-1 -57.05374309518723 7.0086802239465111 0.92095609294773439 0 1 0 I I #
coedge $-1 $489 $623 $626 $627 reversed $411 $-1 #
coedge $-1 $549 $492 $489 $563 reversed $398 $-1 #
edge $-1 $628 -8.0539220059652514 $494 8.0539220059652514 $489 $629 forward 7 unknown #
face $-1 $630 $631 $18 $-1 $632 reversed single #
plane-surface $-1 -57.05374309518723 0 0 1 0 0 0 0 -1 forward_v I I I I #
coedge $-1 $620 $491 $633 $634 forward $323 $-1 #
coedge $-1 $550 $548 $491 $568 reversed $476 $-1 #
edge $-1 $569 9.2569443761156229 $635 15.371485305838693 $491 $636 forward 7 unknown #
vertex $-1 $493 $637 #
straight-curve $-1 -27.411177096671128 -21.571159217092781 8.0539220059652514 1 0 0 I I #
point $-1 -57.05374309518723 -21.571159217092781 8.0539220059652514 #
face $-1 $638 $639 $19 $-1 $640 forward single #
loop $-1 $-1 $641 $496 #
plane-surface $-1 -54.822354193342257 -21.571159217092781 0 0 -1 0 0 0 -1 forward_v I I I I #
coedge $-1 $505 $642 $499 $578 forward $497 $-1 #
coedge $-1 $577 $499 $643 $644 reversed $419 $-1 #
coedge $-1 $499 $576 $511 $591 forward $419 $-1 #
edge $-1 $645 8.9037522028947365 $592 17.10929066382451 $575 $646 forward 7 unknown #
coedge $-1 $500 $511 $582 $647 reversed $347 $-1 #
vertex $-1 $647 $648 #
straight-curve $-1 -57.053743095187215 7.4667061374743895 0.92095609294774761 -0.75470957328743171 0 -0.6560590369687036 I I #
coedge $-1 $643 $502 $579 $647 forward $584 $-1 #
coedge $-1 $502 $649 $504 $587 reversed $584 $-1 #
loop $-1 $-1 $643 $650 #
straight-curve $-1 -57.05374309518723 7.4667061374743895 43.51948415229338 0 0 -1 I I #
coedge $-1 $651 $504 $652 $653 forward $497 $-1 #
edge $-1 $507 -7.4667061374743895 $654 21.571159217092781 $583 $655 forward 7 unknown #
point $-1 -48.848204634257456 7.4667061374743895 8.0539220059652514 #
point $-1 -57.05374309518723 7.4667061374743895 8.0539220059652514 #
point $-1 -49.757473806843741 11.209937171999325 0.81373755284876914 #
edge $-1 $656 -1.8809995614912076e-014 $592 10.872445178066762 $577 $657 forward 7 unknown #
vertex $-1 $512 $658 #
straight-curve $-1 -48.848204634257449 7.0086802239465111 8.0539220059652532 0 -1 0 I I #
straight-curve $-1 57.05374309518723 27.685700146815851 0 0 0 -1 I I #
coedge $-1 $521 $606 $520 $596 forward $449 $-1 #
edge $-1 $659 -57.05374309518723 $523 52.590965291497284 $520 $660 forward 7 unknown #
straight-curve $-1 -52.590965291497284 -12.314214840977158 -8.0539220059652514 0 1 0 I I #
point $-1 -52.590965291497284 -27.685700146815851 -8.0539220059652514 #
coedge $-1 $661 $527 $541 $609 forward $539 $-1 #
coedge $-1 $527 $661 $529 $603 reversed $539 $-1 #
straight-curve $-1 57.05374309518723 0 8.0539220059652514 0 1 0 I I #
coedge $-1 $530 $529 $535 $607 reversed $468 $-1 #
edge $-1 $531 -8.0539220059652514 $662 8.0539220059652514 $600 $663 forward 7 unknown #
point $-1 57.05374309518723 27.685700146815851 8.0539220059652514 #
straight-curve $-1 -57.05374309518723 27.685700146815851 0 0 0 -1 I I #
coedge $-1 $595 $535 $661 $664 forward $449 $-1 #
edge $-1 $536 -57.05374309518723 $662 57.05374309518723 $602 $665 forward 7 unknown #
point $-1 -57.05374309518723 27.685700146815851 -8.0539220059652514 #
edge $-1 $542 -8.0539220059652514 $659 8.0539220059652514 $599 $666 forward 7 unknown #
point $-1 57.05374309518723 -27.685700146815851 8.0539220059652514 #
loop $-1 $-1 $616 $545 #
plane-surface $-1 0 0 -8.0539220059652514 0 0 1 1 0 0 forward_v I I I I #
coedge $-1 $667 $633 $548 $615 forward $546 $-1 #
coedge $-1 $548 $550 $668 $669 reversed $476 $-1 #
edge $-1 $635 -8.0539220059652514 $670 8.0539220059652514 $613 $671 forward 7 unknown #
coedge $-1 $626 $668 $549 $617 forward $611 $-1 #
edge $-1 $618 25.179788194826155 $628 29.642565998516101 $616 $672 forward 7 unknown #
vertex $-1 $617 $673 #
straight-curve $-1 -52.590965291497284 -21.571159217092781 0 0 0 -1 I I #
coedge $-1 $552 $566 $674 $675 forward $323 $-1 #
coedge $-1 $676 $677 $552 $622 reversed $631 $-1 #
edge $-1 $678 -57.05374309518723 $624 57.05374309518723 $621 $679 forward 7 unknown #
coedge $-1 $561 $553 $677 $680 forward $411 $-1 #
vertex $-1 $622 $681 #
point $-1 -57.05374309518723 20.568014758311655 0.92095609294773528 #
coedge $-1 $682 $616 $561 $627 forward $611 $-1 #
edge $-1 $628 -21.571159217092781 $683 27.685700146815851 $561 $684 forward 7 unknown #
vertex $-1 $627 $685 #
straight-curve $-1 -57.05374309518723 -21.571159217092781 0 0 0 1 I I #
face $-1 $-1 $686 $18 $-1 $687 reversed single #
loop $-1 $-1 $676 $564 #
plane-surface $-1 0 27.685700146815851 0 0 -1 0 0 0 -1 forward_v I I I I #
coedge $-1 $613 $688 $566 $634 reversed $546 $-1 #
edge $-1 $635 -52.590965291497284 $689 57.05374309518723 $633 $690 forward 7 unknown #
vertex $-1 $634 $691 #
straight-curve $-1 -52.590965291497284 -12.314214840977158 8.0539220059652514 0 -1 0 I I #
point $-1 -52.590965291497284 -21.571159217092781 8.0539220059652514 #
face $-1 $692 $693 $19 $-1 $694 reversed single #
loop $-1 $-1 $695 $572 #
plane-surface $-1 -52.590965291497284 -24.628429681954316 0 -1 0 0 0 0 1 forward_v I I I I #
coedge $-1 $652 $696 $697 $698 reversed $573 $-1 #
coedge $-1 $575 $699 $700 $701 forward $497 $-1 #
coedge $-1 $700 $582 $576 $644 forward $584 $-1 #
edge $-1 $656 -42.598528059345647 $645 -35.465562146328125 $643 $702 forward 7 unknown #
vertex $-1 $644 $703 #
straight-curve $-1 -65.957495298081966 20.568014758311655 8.0539220059652479 1 0 0 I I #
edge $-1 $580 0.45802591352787836 $656 13.559334534365144 $582 $704 forward 7 unknown #
point $-1 -57.05374309518723 7.4667061374743895 0.92095609294773528 #
coedge $-1 $583 $705 $706 $707 forward $584 $-1 #
face $-1 $708 $584 $19 $-1 $709 reversed single #
coedge $-1 $710 $586 $711 $712 forward $497 $-1 #
coedge $-1 $706 $641 $586 $653 reversed $573 $-1 #
edge $-1 $654 -29.642565998516101 $713 -25.179788194826155 $586 $714 forward 7 unknown #
vertex $-1 $707 $715 #
straight-curve $-1 -57.05374309518723 0 8.0539220059652514 0 -1 0 I I #
vertex $-1 $647 $716 #
straight-curve $-1 -57.053743095187215 20.568014758311655 0.92095609294774761 0.75470957328743171 0 0.6560590369687036 I I #
point $-1 -48.848204634257456 20.568014758311655 8.0539220059652514 #
vertex $-1 $609 $717 #
straight-curve $-1 0 -27.685700146815851 -8.0539220059652514 -1 0 0 I I #
coedge $-1 $600 $599 $606 $664 reversed $539 $-1 #
vertex $-1 $664 $718 #
straight-curve $-1 57.05374309518723 27.685700146815851 0 0 0 -1 I I #
edge $-1 $662 -27.685700146815851 $659 27.685700146815851 $661 $719 forward 7 unknown #
straight-curve $-1 0 27.685700146815851 -8.0539220059652514 1 0 0 I I #
straight-curve $-1 57.05374309518723 -27.685700146815851 0 0 0 -1 I I #
coedge $-1 $688 $613 $720 $721 reversed $546 $-1 #
coedge $-1 $616 $720 $614 $669 forward $611 $-1 #
edge $-1 $670 -15.371485305838693 $618 -9.2569443761156229 $668 $722 forward 7 unknown #
vertex $-1 $615 $723 #
straight-curve $-1 -52.590965291497284 -27.685700146815851 0 0 0 -1 I I #
straight-curve $-1 -27.411177096671128 -21.571159217092781 -8.0539220059652514 -1 0 0 I I #
point $-1 -52.590965291497284 -21.571159217092781 -8.0539220059652514 #
coedge $-1 $724 $725 $620 $675 reversed $686 $-1 #
edge $-1 $689 -27.685700146815851 $678 27.685700146815851 $674 $726 forward 7 unknown #
coedge $-1 $727 $621 $725 $728 forward $631 $-1 #
coedge $-1 $621 $727 $623 $680 reversed $631 $-1 #
vertex $-1 $675 $729 #
straight-curve $-1 0 27.685700146815851 8.0539220059652514 -1 0 0 I I #
edge $-1 $624 -8.0539220059652514 $683 8.0539220059652514 $677 $730 forward 7 unknown #
point $-1 -57.05374309518723 27.685700146815851 8.0539220059652514 #
coedge $-1 $731 $626 $727 $732 forward $611 $-1 #
vertex $-1 $732 $733 #
straight-curve $-1 -57.05374309518723 0 -8.0539220059652514 0 1 0 I I #
point $-1 -57.05374309518723 -21.571159217092781 -8.0539220059652514 #
loop $-1 $-1 $724 $630 #
plane-surface $-1 57.05374309518723 0 0 -1 0 0 0 0 1 forward_v I I I I #
coedge $-1 $633 $667 $724 $734 reversed $546 $-1 #
vertex $-1 $675 $735 #
straight-curve $-1 0 -27.685700146815851 8.0539220059652514 1 0 0 I I #
point $-1 -52.590965291497284 -27.685700146815851 8.0539220059652514 #
face $-1 $650 $736 $19 $-1 $737 reversed single #
loop $-1 $-1 $738 $638 #
plane-surface $-1 0 -27.685700146815851 0 0 1 0 0 0 1 forward_v I I I I #
coedge $-1 $711 $739 $738 $740 reversed $639 $-1 #
coedge $-1 $641 $706 $741 $742 reversed $573 $-1 #
coedge $-1 $739 $711 $641 $698 forward $639 $-1 #
edge $-1 $713 -8.0539220059652514 $743 8.0539220059652514 $697 $744 forward 7 unknown #
coedge $-1 $642 $745 $746 $747 forward $497 $-1 #
coedge $-1 $748 $643 $642 $701 reversed $584 $-1 #
edge $-1 $749 -27.685700146815851 $645 -20.568014758311655 $700 $655 forward 7 unknown #
straight-curve $-1 -57.05374309518723 20.568014758311655 43.51948415229338 0 0 1 I I #
point $-1 -57.05374309518723 20.568014758311655 8.0539220059652514 #
straight-curve $-1 -57.05374309518723 7.0086802239465111 0.92095609294773439 0 1 0 I I #
coedge $-1 $649 $748 $750 $751 reversed $584 $-1 #
coedge $-1 $696 $652 $649 $707 reversed $573 $-1 #
edge $-1 $752 -8.0539220059652514 $654 8.0539220059652514 $649 $753 forward 7 unknown #
face $-1 $754 $755 $19 $-1 $756 reversed single #
plane-surface $-1 -57.05374309518723 0 0 1 0 0 0 0 -1 forward_v I I I I #
coedge $-1 $745 $651 $757 $758 forward $497 $-1 #
coedge $-1 $697 $695 $651 $712 reversed $639 $-1 #
edge $-1 $713 9.2569443761156229 $759 15.371485305838693 $651 $760 forward 7 unknown #
vertex $-1 $653 $761 #
straight-curve $-1 -27.411177096671128 -21.571159217092781 8.0539220059652514 1 0 0 I I #
point $-1 -57.05374309518723 -21.571159217092781 8.0539220059652514 #
point $-1 -57.05374309518723 20.568014758311655 0.92095609294773528 #
point $-1 57.05374309518723 -27.685700146815851 -8.0539220059652514 #
point $-1 57.05374309518723 27.685700146815851 -8.0539220059652514 #
straight-curve $-1 57.05374309518723 0 -8.0539220059652514 0 -1 0 I I #
coedge $-1 $668 $731 $667 $721 forward $611 $-1 #
edge $-1 $762 -57.05374309518723 $670 52.590965291497284 $667 $763 forward 7 unknown #
straight-curve $-1 -52.590965291497284 -12.314214840977158 -8.0539220059652514 0 1 0 I I #
point $-1 -52.590965291497284 -27.685700146815851 -8.0539220059652514 #
coedge $-1 $764 $674 $688 $734 forward $686 $-1 #
coedge $-1 $674 $764 $676 $728 reversed $686 $-1 #
straight-curve $-1 57.05374309518723 0 8.0539220059652514 0 1 0 I I #
coedge $-1 $677 $676 $682 $732 reversed $631 $-1 #
edge $-1 $678 -8.0539220059652514 $765 8.0539220059652514 $725 $766 forward 7 unknown #
point $-1 57.05374309518723 27.685700146815851 8.0539220059652514 #
straight-curve $-1 -57.05374309518723 27.685700146815851 0 0 0 -1 I I #
coedge $-1 $720 $682 $764 $767 forward $611 $-1 #
edge $-1 $683 -57.05374309518723 $765 57.05374309518723 $727 $768 forward 7 unknown #
point $-1 -57.05374309518723 27.685700146815851 -8.0539220059652514 #
edge $-1 $689 -8.0539220059652514 $762 8.0539220059652514 $724 $769 forward 7 unknown #
point $-1 57.05374309518723 -27.685700146815851 8.0539220059652514 #
loop $-1 $-1 $741 $692 #
plane-surface $-1 0 0 -8.0539220059652514 0 0 1 1 0 0 forward_v I I I I #
coedge $-1 $770 $757 $695 $740 forward $693 $-1 #
coedge $-1 $695 $697 $771 $772 reversed $639 $-1 #
edge $-1 $759 -8.0539220059652514 $773 8.0539220059652514 $738 $774 forward 7 unknown #
coedge $-1 $750 $771 $696 $742 forward $736 $-1 #
edge $-1 $743 25.179788194826155 $752 29.642565998516101 $741 $775 forward 7 unknown #
vertex $-1 $742 $776 #
straight-curve $-1 -52.590965291497284 -21.571159217092781 0 0 0 -1 I I #
coedge $-1 $699 $710 $777 $778 forward $497 $-1 #
coedge $-1 $779 $780 $699 $747 reversed $755 $-1 #
edge $-1 $781 -57.05374309518723 $749 57.05374309518723 $746 $782 forward 7 unknown #
coedge $-1 $705 $700 $780 $783 forward $584 $-1 #
vertex $-1 $747 $784 #
coedge $-1 $785 $741 $705 $751 forward $736 $-1 #
edge $-1 $752 -21.571159217092781 $786 27.685700146815851 $705 $787 forward 7 unknown #
vertex $-1 $751 $788 #
straight-curve $-1 -57.05374309518723 -21.571159217092781 0 0 0 1 I I #
face $-1 $-1 $789 $19 $-1 $790 reversed single #
loop $-1 $-1 $779 $708 #
plane-surface $-1 0 27.685700146815851 0 0 -1 0 0 0 -1 forward_v I I I I #
coedge $-1 $738 $791 $710 $758 reversed $693 $-1 #
edge $-1 $759 -52.590965291497284 $792 57.05374309518723 $757 $793 forward 7 unknown #
vertex $-1 $758 $794 #
straight-curve $-1 -52.590965291497284 -12.314214840977158 8.0539220059652514 0 -1 0 I I #
point $-1 -52.590965291497284 -21.571159217092781 8.0539220059652514 #
vertex $-1 $734 $795 #
straight-curve $-1 0 -27.685700146815851 -8.0539220059652514 -1 0 0 I I #
coedge $-1 $725 $724 $731 $767 reversed $686 $-1 #
vertex $-1 $767 $796 #
straight-curve $-1 57.05374309518723 27.685700146815851 0 0 0 -1 I I #
edge $-1 $765 -27.685700146815851 $762 27.685700146815851 $764 $797 forward 7 unknown #
straight-curve $-1 0 27.685700146815851 -8.0539220059652514 1 0 0 I I #
straight-curve $-1 57.05374309518723 -27.685700146815851 0 0 0 -1 I I #
coedge $-1 $791 $738 $798 $799 reversed $693 $-1 #
coedge $-1 $741 $798 $739 $772 forward $736 $-1 #
edge $-1 $773 -15.371485305838693 $743 -9.2569443761156229 $771 $800 forward 7 unknown #
vertex $-1 $740 $801 #
straight-curve $-1 -52.590965291497284 -27.685700146815851 0 0 0 -1 I I #
straight-curve $-1 -27.411177096671128 -21.571159217092781 -8.0539220059652514 -1 0 0 I I #
point $-1 -52.590965291497284 -21.571159217092781 -8.0539220059652514 #
coedge $-1 $802 $803 $745 $778 reversed $789 $-1 #
edge $-1 $792 -27.685700146815851 $781 27.685700146815851 $777 $804 forward 7 unknown #
coedge $-1 $805 $746 $803 $806 forward $755 $-1 #
coedge $-1 $746 $805 $748 $783 reversed $755 $-1 #
vertex $-1 $778 $807 #
straight-curve $-1 0 27.685700146815851 8.0539220059652514 -1 0 0 I I #
edge $-1 $749 -8.0539220059652514 $786 8.0539220059652514 $780 $808 forward 7 unknown #
point $-1 -57.05374309518723 27.685700146815851 8.0539220059652514 #
coedge $-1 $809 $750 $805 $810 forward $736 $-1 #
vertex $-1 $810 $811 #
straight-curve $-1 -57.05374309518723 0 -8.0539220059652514 0 1 0 I I #
point $-1 -57.05374309518723 -21.571159217092781 -8.0539220059652514 #
loop $-1 $-1 $802 $754 #
plane-surface $-1 57.05374309518723 0 0 -1 0 0 0 0 1 forward_v I I I I #
coedge $-1 $757 $770 $802 $812 reversed $693 $-1 #
vertex $-1 $778 $813 #
straight-curve $-1 0 -27.685700146815851 8.0539220059652514 1 0 0 I I #
point $-1 -52.590965291497284 -27.685700146815851 8.0539220059652514 #
point $-1 57.05374309518723 -27.685700146815851 -8.0539220059652514 #
point $-1 57.05374309518723 27.685700146815851 -8.0539220059652514 #
straight-curve $-1 57.05374309518723 0 -8.0539220059652514 0 -1 0 I I #
coedge $-1 $771 $809 $770 $799 forward $736 $-1 #
edge $-1 $814 -57.05374309518723 $773 52.590965291497284 $770 $815 forward 7 unknown #
straight-curve $-1 -52.590965291497284 -12.314214840977158 -8.0539220059652514 0 1 0 I I #
point $-1 -52.590965291497284 -27.685700146815851 -8.0539220059652514 #
coedge $-1 $816 $777 $791 $812 forward $789 $-1 #
coedge $-1 $777 $816 $779 $806 reversed $789 $-1 #
straight-curve $-1 57.05374309518723 0 8.0539220059652514 0 1 0 I I #
coedge $-1 $780 $779 $785 $810 reversed $755 $-1 #
edge $-1 $781 -8.0539220059652514 $817 8.0539220059652514 $803 $818 forward 7 unknown #
point $-1 57.05374309518723 27.685700146815851 8.0539220059652514 #
straight-curve $-1 -57.05374309518723 27.685700146815851 0 0 0 -1 I I #
coedge $-1 $798 $785 $816 $819 forward $736 $-1 #
edge $-1 $786 -57.05374309518723 $817 57.05374309518723 $805 $820 forward 7 unknown #
point $-1 -57.05374309518723 27.685700146815851 -8.0539220059652514 #
edge $-1 $792 -8.0539220059652514 $814 8.0539220059652514 $802 $821 forward 7 unknown #
point $-1 57.05374309518723 -27.685700146815851 8.0539220059652514 #
vertex $-1 $812 $822 #
straight-curve $-1 0 -27.685700146815851 -8.0539220059652514 -1 0 0 I I #
coedge $-1 $803 $802 $809 $819 reversed $789 $-1 #
vertex $-1 $819 $823 #
straight-curve $-1 57.05374309518723 27.685700146815851 0 0 0 -1 I I #
edge $-1 $817 -27.685700146815851 $814 27.685700146815851 $816 $824 forward 7 unknown #
straight-curve $-1 0 27.685700146815851 -8.0539220059652514 1 0 0 I I #
straight-curve $-1 57.05374309518723 -27.685700146815851 0 0 0 -1 I I #
point $-1 57.05374309518723 -27.685700146815851 -8.0539220059652514 #
point $-1 57.05374309518723 27.685700146815851 -8.0539220059652514 #
straight-curve $-1 57.05374309518723 0 -8.0539220059652514 0 -1 0 I I #
End-of-ACIS-data 