500 0 13 0           
7 Unknown 11 ACIS 5.0 NT 24 Fri Mar 26 00:40:32 1999 
-1 9.9999999999999995e-007 1e-010 
body $-1 $13 $-1 $14 #
body $-1 $15 $-1 $16 #
body $-1 $17 $-1 $18 #
body $-1 $19 $-1 $20 #
body $-1 $21 $-1 $22 #
body $-1 $23 $-1 $24 #
body $-1 $25 $-1 $26 #
body $-1 $27 $-1 $28 #
body $-1 $29 $-1 $30 #
body $-1 $31 $-1 $32 #
body $-1 $33 $-1 $34 #
body $-1 $35 $-1 $36 #
body $-1 $37 $-1 $38 #
lump $-1 $-1 $39 $0 #
transform $-1 1 0 0 0 1 0 0 0 1 50.30549027985473 34.707671738478709 9.2876149206367042 1 rotate no_reflect no_shear #
lump $-1 $-1 $40 $1 #
transform $-1 1 0 0 0 1 0 0 0 1 4.4940582396124356 34.707671738478709 17.075229841273408 1 rotate no_reflect no_shear #
lump $-1 $-1 $41 $2 #
transform $-1 1 0 0 0 1 0 0 0 1 96.872510765744721 34.707671738478709 17.075229841273408 1 rotate no_reflect no_shear #
lump $-1 $-1 $42 $3 #
transform $-1 1 0 0 0 0.81915203911291934 -0.57357644374324357 0 0.57357644374324357 0.81915203911291934 35.855163631709466 70.261711753042832 133.73481628508841 1 rotate no_reflect no_shear #
lump $-1 $-1 $43 $4 #
transform $-1 1 0 0 0 -0.81915203911291934 0.57357644374324357 0 -0.57357644374324357 -0.81915203911291934 35.855163631709466 60.701155248235125 9.805665655139812 1 rotate no_reflect no_shear #
lump $-1 $-1 $44 $5 #
transform $-1 1 0 0 0 0.55919289150049634 0.82903758062907751 0 -0.82903758062907751 0.55919289150049634 42.050046682707851 -83.410283907940681 67.244855594666817 1 rotate no_reflect no_shear #
lump $-1 $-1 $45 $6 #
transform $-1 1 0 0 0 -0.55919289150049634 -0.82903758062907751 0 0.82903758062907751 -0.55919289150049634 39.306450928451021 3.8186570385902057 13.930733362144919 1 rotate no_reflect no_shear #
lump $-1 $-1 $46 $7 #
transform $-1 1 0 0 0 -0.55919289150049634 -0.82903758062907751 0 0.82903758062907751 -0.55919289150049634 42.050046682707851 3.8186570385902057 13.930733362144919 1 rotate no_reflect no_shear #
lump $-1 $-1 $47 $8 #
transform $-1 1 0 0 0 -0.55919289150049634 -0.82903758062907751 0 0.82903758062907751 -0.55919289150049634 44.793642436964682 3.8186570385902057 13.930733362144919 1 rotate no_reflect no_shear #
lump $-1 $-1 $48 $9 #
transform $-1 1 0 0 0 0.55919289150049634 0.82903758062907751 0 -0.82903758062907751 0.55919289150049634 84.123008928985399 -83.410283907940681 67.244855594666817 1 rotate no_reflect no_shear #
lump $-1 $-1 $49 $10 #
transform $-1 1 0 0 0 -0.55919289150049634 -0.82903758062907751 0 0.82903758062907751 -0.55919289150049634 81.379413174728569 3.8186570385902057 13.930733362144919 1 rotate no_reflect no_shear #
lump $-1 $-1 $50 $11 #
transform $-1 1 0 0 0 -0.55919289150049634 -0.82903758062907751 0 0.82903758062907751 -0.55919289150049634 84.123008928985399 3.8186570385902057 13.930733362144919 1 rotate no_reflect no_shear #
lump $-1 $-1 $51 $12 #
transform $-1 1 0 0 0 -0.55919289150049634 -0.82903758062907751 0 0.82903758062907751 -0.55919289150049634 86.86660468324223 3.8186570385902057 13.930733362144919 1 rotate no_reflect no_shear #
shell $-1 $-1 $-1 $52 $-1 $13 #
shell $-1 $-1 $-1 $53 $-1 $15 #
shell $-1 $-1 $-1 $54 $-1 $17 #
shell $-1 $-1 $-1 $55 $-1 $19 #
shell $-1 $-1 $-1 $56 $-1 $21 #
shell $-1 $-1 $-1 $57 $-1 $23 #
shell $-1 $-1 $-1 $58 $-1 $25 #
shell $-1 $-1 $-1 $59 $-1 $27 #
shell $-1 $-1 $-1 $60 $-1 $29 #
shell $-1 $-1 $-1 $61 $-1 $31 #
shell $-1 $-1 $-1 $62 $-1 $33 #
shell $-1 $-1 $-1 $63 $-1 $35 #
shell $-1 $-1 $-1 $64 $-1 $37 #
face $-1 $65 $66 $39 $-1 $67 forward single #
face $-1 $68 $69 $40 $-1 $70 forward single #
face $-1 $71 $72 $41 $-1 $73 forward single #
face $-1 $74 $75 $42 $-1 $76 forward single #
face $-1 $77 $78 $43 $-1 $79 forward single #
face $-1 $80 $81 $44 $-1 $82 forward single #
face $-1 $83 $84 $45 $-1 $85 forward single #
face $-1 $86 $87 $46 $-1 $88 forward single #
face $-1 $89 $90 $47 $-1 $91 forward single #
face $-1 $92 $93 $48 $-1 $94 forward single #
face $-1 $95 $96 $49 $-1 $97 forward single #
face $-1 $98 $99 $50 $-1 $100 forward single #
face $-1 $101 $102 $51 $-1 $103 forward single #
face $-1 $104 $105 $39 $-1 $106 reversed single #
loop $-1 $-1 $107 $52 #
plane-surface $-1 0 0 9.2876149206367042 0 0 1 1 0 0 forward_v I I I I #
face $-1 $108 $109 $40 $-1 $110 reversed single #
loop $-1 $-1 $111 $53 #
plane-surface $-1 0 0 1.5 0 0 1 1 0 0 forward_v I I I I #
face $-1 $112 $113 $41 $-1 $114 reversed single #
loop $-1 $-1 $115 $54 #
plane-surface $-1 0 0 1.5 0 0 1 1 0 0 forward_v I I I I #
face $-1 $116 $117 $42 $-1 $118 reversed single #
loop $-1 $-1 $119 $55 #
plane-surface $-1 0 0 100.61098055970946 0 0 1 1 0 0 forward_v I I I I #
face $-1 $120 $121 $43 $-1 $122 forward single #
loop $-1 $123 $124 $56 #
cone-surface $-1 0 0 -3.8197729422894993 0 0 1 2.5 0 0 1 I I 0 1 2.5 forward I I I I #
face $-1 $125 $126 $44 $-1 $127 reversed single #
loop $-1 $-1 $128 $57 #
plane-surface $-1 0 0 100.61098055970947 0 0 1 1 0 0 forward_v I I I I #
face $-1 $129 $130 $45 $-1 $131 forward single #
loop $-1 $132 $133 $58 #
cone-surface $-1 0 0 -0.88398388622699642 0 0 1 0.5 0 0 1 I I 0 1 0.5 forward I I I I #
face $-1 $134 $135 $46 $-1 $136 forward single #
loop $-1 $137 $138 $59 #
cone-surface $-1 0 0 -0.88398388622699642 0 0 1 0.5 0 0 1 I I 0 1 0.5 forward I I I I #
face $-1 $139 $140 $47 $-1 $141 forward single #
loop $-1 $142 $143 $60 #
cone-surface $-1 0 0 -0.88398388622699642 0 0 1 0.5 0 0 1 I I 0 1 0.5 forward I I I I #
face $-1 $144 $145 $48 $-1 $146 reversed single #
loop $-1 $-1 $147 $61 #
plane-surface $-1 0 0 100.61098055970947 0 0 1 1 0 0 forward_v I I I I #
face $-1 $148 $149 $49 $-1 $150 forward single #
loop $-1 $151 $152 $62 #
cone-surface $-1 0 0 -0.88398388622699642 0 0 1 0.5 0 0 1 I I 0 1 0.5 forward I I I I #
face $-1 $153 $154 $50 $-1 $155 forward single #
loop $-1 $156 $157 $63 #
cone-surface $-1 0 0 -0.88398388622699642 0 0 1 0.5 0 0 1 I I 0 1 0.5 forward I I I I #
face $-1 $158 $159 $51 $-1 $160 forward single #
loop $-1 $161 $162 $64 #
cone-surface $-1 0 0 -0.88398388622699642 0 0 1 0.5 0 0 1 I I 0 1 0.5 forward I I I I #
face $-1 $163 $164 $39 $-1 $165 reversed single #
loop $-1 $-1 $166 $65 #
plane-surface $-1 0 0 -9.2876149206367042 0 0 1 1 0 0 forward_v I I I I #
coedge $-1 $167 $168 $169 $170 forward $66 $-1 #
face $-1 $171 $172 $40 $-1 $173 reversed single #
loop $-1 $-1 $174 $68 #
plane-surface $-1 0 0 -1.5 0 0 1 1 0 0 forward_v I I I I #
coedge $-1 $175 $176 $177 $178 forward $69 $-1 #
face $-1 $179 $180 $41 $-1 $181 reversed single #
loop $-1 $-1 $182 $71 #
plane-surface $-1 0 0 -1.5 0 0 1 1 0 0 forward_v I I I I #
coedge $-1 $183 $184 $185 $186 forward $72 $-1 #
face $-1 $187 $188 $42 $-1 $189 reversed single #
loop $-1 $-1 $190 $74 #
plane-surface $-1 0 0 -100.61098055970946 0 0 1 1 0 0 forward_v I I I I #
coedge $-1 $191 $192 $193 $194 forward $75 $-1 #
face $-1 $-1 $195 $43 $-1 $196 forward single #
loop $-1 $-1 $197 $77 #
plane-surface $-1 0 0 -6.3895458845789985 0 0 -1 -1 0 0 forward_v I I I I #
loop $-1 $-1 $198 $56 #
coedge $-1 $124 $124 $197 $199 reversed $78 $-1 #
face $-1 $200 $201 $44 $-1 $202 reversed single #
loop $-1 $-1 $203 $80 #
plane-surface $-1 0 0 -100.61098055970947 0 0 1 1 0 0 forward_v I I I I #
coedge $-1 $204 $205 $206 $207 forward $81 $-1 #
face $-1 $-1 $208 $45 $-1 $209 forward single #
loop $-1 $-1 $210 $83 #
plane-surface $-1 0 0 -1.5179677724539928 0 0 -1 -1 0 0 forward_v I I I I #
loop $-1 $-1 $211 $58 #
coedge $-1 $133 $133 $210 $212 reversed $84 $-1 #
face $-1 $-1 $213 $46 $-1 $214 forward single #
loop $-1 $-1 $215 $86 #
plane-surface $-1 0 0 -1.5179677724539928 0 0 -1 -1 0 0 forward_v I I I I #
loop $-1 $-1 $216 $59 #
coedge $-1 $138 $138 $215 $217 reversed $87 $-1 #
face $-1 $-1 $218 $47 $-1 $219 forward single #
loop $-1 $-1 $220 $89 #
plane-surface $-1 0 0 -1.5179677724539928 0 0 -1 -1 0 0 forward_v I I I I #
loop $-1 $-1 $221 $60 #
coedge $-1 $143 $143 $220 $222 reversed $90 $-1 #
face $-1 $223 $224 $48 $-1 $225 reversed single #
loop $-1 $-1 $226 $92 #
plane-surface $-1 0 0 -100.61098055970947 0 0 1 1 0 0 forward_v I I I I #
coedge $-1 $227 $228 $229 $230 forward $93 $-1 #
face $-1 $-1 $231 $49 $-1 $232 forward single #
loop $-1 $-1 $233 $95 #
plane-surface $-1 0 0 -1.5179677724539928 0 0 -1 -1 0 0 forward_v I I I I #
loop $-1 $-1 $234 $62 #
coedge $-1 $152 $152 $233 $235 reversed $96 $-1 #
face $-1 $-1 $236 $50 $-1 $237 forward single #
loop $-1 $-1 $238 $98 #
plane-surface $-1 0 0 -1.5179677724539928 0 0 -1 -1 0 0 forward_v I I I I #
loop $-1 $-1 $239 $63 #
coedge $-1 $157 $157 $238 $240 reversed $99 $-1 #
face $-1 $-1 $241 $51 $-1 $242 forward single #
loop $-1 $-1 $243 $101 #
plane-surface $-1 0 0 -1.5179677724539928 0 0 -1 -1 0 0 forward_v I I I I #
loop $-1 $-1 $244 $64 #
coedge $-1 $162 $162 $243 $245 reversed $102 $-1 #
face $-1 $246 $247 $39 $-1 $248 reversed single #
loop $-1 $-1 $249 $104 #
plane-surface $-1 0 -34.707671738478709 0 0 1 0 0 0 1 forward_v I I I I #
coedge $-1 $250 $251 $252 $253 forward $105 $-1 #
coedge $-1 $254 $107 $255 $256 forward $66 $-1 #
coedge $-1 $107 $254 $257 $258 forward $66 $-1 #
coedge $-1 $259 $260 $107 $170 reversed $261 $-1 #
edge $-1 $262 -34.707671738478709 $263 34.707671738478709 $169 $264 forward 7 unknown #
face $-1 $265 $266 $40 $-1 $267 reversed single #
loop $-1 $-1 $268 $108 #
plane-surface $-1 0 -34.707671738478709 0 0 1 0 0 0 1 forward_v I I I I #
coedge $-1 $269 $270 $271 $272 forward $109 $-1 #
coedge $-1 $273 $111 $274 $275 forward $69 $-1 #
coedge $-1 $111 $273 $276 $277 forward $69 $-1 #
coedge $-1 $278 $279 $111 $178 reversed $280 $-1 #
edge $-1 $281 -34.707671738478709 $282 34.707671738478709 $177 $283 forward 7 unknown #
face $-1 $284 $285 $41 $-1 $286 reversed single #
loop $-1 $-1 $287 $112 #
plane-surface $-1 0 -34.707671738478709 0 0 1 0 0 0 1 forward_v I I I I #
coedge $-1 $288 $289 $290 $291 forward $113 $-1 #
coedge $-1 $292 $115 $293 $294 forward $72 $-1 #
coedge $-1 $115 $292 $295 $296 forward $72 $-1 #
coedge $-1 $297 $298 $115 $186 reversed $299 $-1 #
edge $-1 $300 -34.707671738478709 $301 34.707671738478709 $185 $302 forward 7 unknown #
face $-1 $303 $304 $42 $-1 $305 reversed single #
loop $-1 $-1 $306 $116 #
plane-surface $-1 0 -201.22196111941892 0 0 1 0 0 0 1 forward_v I I I I #
coedge $-1 $307 $308 $309 $310 forward $117 $-1 #
coedge $-1 $311 $119 $312 $313 forward $75 $-1 #
coedge $-1 $119 $311 $314 $315 forward $75 $-1 #
coedge $-1 $316 $317 $119 $194 reversed $318 $-1 #
edge $-1 $319 -201.22196111941892 $320 201.22196111941892 $193 $321 forward 7 unknown #
loop $-1 $322 $323 $120 #
cone-surface $-1 0 0 0 0 0 1 1.25 0 0 1 I I -0.70710678118654746 0.70710678118654746 1.25 forward I I I I #
coedge $-1 $197 $197 $124 $199 forward $121 $-1 #
coedge $-1 $198 $198 $323 $324 forward $123 $-1 #
edge $-1 $325 0 $325 6.2831853071796004 $197 $326 forward 7 unknown #
face $-1 $327 $328 $44 $-1 $329 reversed single #
loop $-1 $-1 $330 $125 #
plane-surface $-1 0 -201.22196111941892 0 0 1 0 0 0 1 forward_v I I I I #
coedge $-1 $331 $332 $333 $334 forward $126 $-1 #
coedge $-1 $335 $128 $336 $337 forward $81 $-1 #
coedge $-1 $128 $335 $338 $339 forward $81 $-1 #
coedge $-1 $340 $341 $128 $207 reversed $342 $-1 #
edge $-1 $343 -201.22196111941892 $344 201.22196111941892 $206 $345 forward 7 unknown #
loop $-1 $346 $347 $129 #
cone-surface $-1 0 0 0 0 0 1 0.25 0 0 1 I I -0.70710678118654746 0.70710678118654746 0.25 forward I I I I #
coedge $-1 $210 $210 $133 $212 forward $130 $-1 #
coedge $-1 $211 $211 $347 $348 forward $132 $-1 #
edge $-1 $349 0 $349 6.2831853071796004 $210 $350 forward 7 unknown #
loop $-1 $351 $352 $134 #
cone-surface $-1 0 0 0 0 0 1 0.25 0 0 1 I I -0.70710678118654746 0.70710678118654746 0.25 forward I I I I #
coedge $-1 $215 $215 $138 $217 forward $135 $-1 #
coedge $-1 $216 $216 $352 $353 forward $137 $-1 #
edge $-1 $354 0 $354 6.2831853071796004 $215 $355 forward 7 unknown #
loop $-1 $356 $357 $139 #
cone-surface $-1 0 0 0 0 0 1 0.25 0 0 1 I I -0.70710678118654746 0.70710678118654746 0.25 forward I I I I #
coedge $-1 $220 $220 $143 $222 forward $140 $-1 #
coedge $-1 $221 $221 $357 $358 forward $142 $-1 #
edge $-1 $359 0 $359 6.2831853071796004 $220 $360 forward 7 unknown #
face $-1 $361 $362 $48 $-1 $363 reversed single #
loop $-1 $-1 $364 $144 #
plane-surface $-1 0 -201.22196111941892 0 0 1 0 0 0 1 forward_v I I I I #
coedge $-1 $365 $366 $367 $368 forward $145 $-1 #
coedge $-1 $369 $147 $370 $371 forward $93 $-1 #
coedge $-1 $147 $369 $372 $373 forward $93 $-1 #
coedge $-1 $374 $375 $147 $230 reversed $376 $-1 #
edge $-1 $377 -201.22196111941892 $378 201.22196111941892 $229 $379 forward 7 unknown #
loop $-1 $380 $381 $148 #
cone-surface $-1 0 0 0 0 0 1 0.25 0 0 1 I I -0.70710678118654746 0.70710678118654746 0.25 forward I I I I #
coedge $-1 $233 $233 $152 $235 forward $149 $-1 #
coedge $-1 $234 $234 $381 $382 forward $151 $-1 #
edge $-1 $383 0 $383 6.2831853071796004 $233 $384 forward 7 unknown #
loop $-1 $385 $386 $153 #
cone-surface $-1 0 0 0 0 0 1 0.25 0 0 1 I I -0.70710678118654746 0.70710678118654746 0.25 forward I I I I #
coedge $-1 $238 $238 $157 $240 forward $154 $-1 #
coedge $-1 $239 $239 $386 $387 forward $156 $-1 #
edge $-1 $388 0 $388 6.2831853071796004 $238 $389 forward 7 unknown #
loop $-1 $390 $391 $158 #
cone-surface $-1 0 0 0 0 0 1 0.25 0 0 1 I I -0.70710678118654746 0.70710678118654746 0.25 forward I I I I #
coedge $-1 $243 $243 $162 $245 forward $159 $-1 #
coedge $-1 $244 $244 $391 $392 forward $161 $-1 #
edge $-1 $393 0 $393 6.2831853071796004 $243 $394 forward 7 unknown #
face $-1 $395 $396 $39 $-1 $397 reversed single #
loop $-1 $-1 $398 $163 #
plane-surface $-1 -50.30549027985473 0 0 1 0 0 0 0 -1 forward_v I I I I #
coedge $-1 $399 $257 $400 $401 forward $164 $-1 #
coedge $-1 $402 $166 $399 $403 forward $105 $-1 #
coedge $-1 $166 $402 $404 $405 forward $105 $-1 #
coedge $-1 $260 $259 $166 $253 reversed $261 $-1 #
edge $-1 $406 -34.707671738478709 $407 34.707671738478709 $252 $408 forward 7 unknown #
coedge $-1 $168 $167 $409 $410 forward $66 $-1 #
coedge $-1 $411 $412 $167 $256 reversed $396 $-1 #
edge $-1 $263 -50.30549027985473 $413 50.30549027985473 $255 $414 forward 7 unknown #
coedge $-1 $249 $415 $168 $258 reversed $164 $-1 #
edge $-1 $416 -50.30549027985473 $262 50.30549027985473 $257 $417 forward 7 unknown #
coedge $-1 $252 $169 $415 $418 forward $261 $-1 #
coedge $-1 $169 $252 $411 $419 reversed $261 $-1 #
loop $-1 $-1 $259 $395 #
vertex $-1 $170 $420 #
vertex $-1 $170 $421 #
straight-curve $-1 50.30549027985473 0 9.2876149206367042 0 1 0 I I #
face $-1 $422 $423 $40 $-1 $424 reversed single #
loop $-1 $-1 $425 $171 #
plane-surface $-1 -4.4940582396124356 0 0 1 0 0 0 0 -1 forward_v I I I I #
coedge $-1 $426 $276 $427 $428 forward $172 $-1 #
coedge $-1 $429 $174 $426 $430 forward $109 $-1 #
coedge $-1 $174 $429 $431 $432 forward $109 $-1 #
coedge $-1 $279 $278 $174 $272 reversed $280 $-1 #
edge $-1 $433 -34.707671738478709 $434 34.707671738478709 $271 $435 forward 7 unknown #
coedge $-1 $176 $175 $436 $437 forward $69 $-1 #
coedge $-1 $438 $439 $175 $275 reversed $423 $-1 #
edge $-1 $282 -4.4940582396124356 $440 4.4940582396124356 $274 $441 forward 7 unknown #
coedge $-1 $268 $442 $176 $277 reversed $172 $-1 #
edge $-1 $443 -4.4940582396124356 $281 4.4940582396124356 $276 $444 forward 7 unknown #
coedge $-1 $271 $177 $442 $445 forward $280 $-1 #
coedge $-1 $177 $271 $438 $446 reversed $280 $-1 #
loop $-1 $-1 $278 $422 #
vertex $-1 $178 $447 #
vertex $-1 $178 $448 #
straight-curve $-1 4.4940582396124356 0 1.5 0 1 0 I I #
face $-1 $449 $450 $41 $-1 $451 reversed single #
loop $-1 $-1 $452 $179 #
plane-surface $-1 -3.7384697939647396 0 0 1 0 0 0 0 -1 forward_v I I I I #
coedge $-1 $453 $295 $454 $455 forward $180 $-1 #
coedge $-1 $456 $182 $453 $457 forward $113 $-1 #
coedge $-1 $182 $456 $458 $459 forward $113 $-1 #
coedge $-1 $298 $297 $182 $291 reversed $299 $-1 #
edge $-1 $460 -34.707671738478709 $461 34.707671738478709 $290 $462 forward 7 unknown #
coedge $-1 $184 $183 $463 $464 forward $72 $-1 #
coedge $-1 $465 $466 $183 $294 reversed $450 $-1 #
edge $-1 $301 -3.7384697939647396 $467 3.7384697939647396 $293 $468 forward 7 unknown #
coedge $-1 $287 $469 $184 $296 reversed $180 $-1 #
edge $-1 $470 -3.7384697939647396 $300 3.7384697939647396 $295 $471 forward 7 unknown #
coedge $-1 $290 $185 $469 $472 forward $299 $-1 #
coedge $-1 $185 $290 $465 $473 reversed $299 $-1 #
loop $-1 $-1 $297 $449 #
vertex $-1 $186 $474 #
vertex $-1 $186 $475 #
straight-curve $-1 3.7384697939647396 0 1.5 0 1 0 I I #
face $-1 $476 $477 $42 $-1 $478 reversed single #
loop $-1 $-1 $479 $187 #
plane-surface $-1 -9.3109557093686224 0 0 1 0 0 0 0 -1 forward_v I I I I #
coedge $-1 $480 $314 $481 $482 forward $188 $-1 #
coedge $-1 $483 $190 $480 $484 forward $117 $-1 #
coedge $-1 $190 $483 $485 $486 forward $117 $-1 #
coedge $-1 $317 $316 $190 $310 reversed $318 $-1 #
edge $-1 $487 -201.22196111941892 $488 201.22196111941892 $309 $489 forward 7 unknown #
coedge $-1 $192 $191 $490 $491 forward $75 $-1 #
coedge $-1 $492 $493 $191 $313 reversed $477 $-1 #
edge $-1 $320 -9.3109557093686224 $494 9.3109557093686224 $312 $495 forward 7 unknown #
coedge $-1 $306 $496 $192 $315 reversed $188 $-1 #
edge $-1 $497 -9.3109557093686224 $319 9.3109557093686224 $314 $498 forward 7 unknown #
coedge $-1 $309 $193 $496 $499 forward $318 $-1 #
coedge $-1 $193 $309 $492 $500 reversed $318 $-1 #
loop $-1 $-1 $316 $476 #
vertex $-1 $194 $501 #
vertex $-1 $194 $502 #
straight-curve $-1 9.3109557093686224 0 100.61098055970946 0 1 0 I I #
loop $-1 $-1 $503 $120 #
coedge $-1 $323 $323 $198 $324 reversed $195 $-1 #
edge $-1 $504 0 $504 6.2831853071796004 $323 $505 forward 7 unknown #
vertex $-1 $199 $506 #
ellipse-curve $-1 0 0 -6.3895458845789985 0 0 -1 2.5 0 0 1 I I #
face $-1 $507 $508 $44 $-1 $509 reversed single #
loop $-1 $-1 $510 $200 #
plane-surface $-1 -4.5726595904280529 0 0 1 0 0 0 0 -1 forward_v I I I I #
coedge $-1 $511 $338 $512 $513 forward $201 $-1 #
coedge $-1 $514 $203 $511 $515 forward $126 $-1 #
coedge $-1 $203 $514 $516 $517 forward $126 $-1 #
coedge $-1 $341 $340 $203 $334 reversed $342 $-1 #
edge $-1 $518 -201.22196111941892 $519 201.22196111941892 $333 $520 forward 7 unknown #
coedge $-1 $205 $204 $521 $522 forward $81 $-1 #
coedge $-1 $523 $524 $204 $337 reversed $508 $-1 #
edge $-1 $344 -4.5726595904280529 $525 4.5726595904280529 $336 $526 forward 7 unknown #
coedge $-1 $330 $527 $205 $339 reversed $201 $-1 #
edge $-1 $528 -4.5726595904280529 $343 4.5726595904280529 $338 $529 forward 7 unknown #
coedge $-1 $333 $206 $527 $530 forward $342 $-1 #
coedge $-1 $206 $333 $523 $531 reversed $342 $-1 #
loop $-1 $-1 $340 $507 #
vertex $-1 $207 $532 #
vertex $-1 $207 $533 #
straight-curve $-1 4.5726595904280529 0 100.61098055970947 0 1 0 I I #
loop $-1 $-1 $534 $129 #
coedge $-1 $347 $347 $211 $348 reversed $208 $-1 #
edge $-1 $535 0 $535 6.2831853071796004 $347 $536 forward 7 unknown #
vertex $-1 $212 $537 #
ellipse-curve $-1 0 0 -1.5179677724539928 0 0 -1 0.5 0 0 1 I I #
loop $-1 $-1 $538 $134 #
coedge $-1 $352 $352 $216 $353 reversed $213 $-1 #
edge $-1 $539 0 $539 6.2831853071796004 $352 $540 forward 7 unknown #
vertex $-1 $217 $541 #
ellipse-curve $-1 0 0 -1.5179677724539928 0 0 -1 0.5 0 0 1 I I #
loop $-1 $-1 $542 $139 #
coedge $-1 $357 $357 $221 $358 reversed $218 $-1 #
edge $-1 $543 0 $543 6.2831853071796004 $357 $544 forward 7 unknown #
vertex $-1 $222 $545 #
ellipse-curve $-1 0 0 -1.5179677724539928 0 0 -1 0.5 0 0 1 I I #
face $-1 $546 $547 $48 $-1 $548 reversed single #
loop $-1 $-1 $549 $223 #
plane-surface $-1 -4.5726595904280529 0 0 1 0 0 0 0 -1 forward_v I I I I #
coedge $-1 $550 $372 $551 $552 forward $224 $-1 #
coedge $-1 $553 $226 $550 $554 forward $145 $-1 #
coedge $-1 $226 $553 $555 $556 forward $145 $-1 #
coedge $-1 $375 $374 $226 $368 reversed $376 $-1 #
edge $-1 $557 -201.22196111941892 $558 201.22196111941892 $367 $559 forward 7 unknown #
coedge $-1 $228 $227 $560 $561 forward $93 $-1 #
coedge $-1 $562 $563 $227 $371 reversed $547 $-1 #
edge $-1 $378 -4.5726595904280529 $564 4.5726595904280529 $370 $565 forward 7 unknown #
coedge $-1 $364 $566 $228 $373 reversed $224 $-1 #
edge $-1 $567 -4.5726595904280529 $377 4.5726595904280529 $372 $568 forward 7 unknown #
coedge $-1 $367 $229 $566 $569 forward $376 $-1 #
coedge $-1 $229 $367 $562 $570 reversed $376 $-1 #
loop $-1 $-1 $374 $546 #
vertex $-1 $230 $571 #
vertex $-1 $230 $572 #
straight-curve $-1 4.5726595904280529 0 100.61098055970947 0 1 0 I I #
loop $-1 $-1 $573 $148 #
coedge $-1 $381 $381 $234 $382 reversed $231 $-1 #
edge $-1 $574 0 $574 6.2831853071796004 $381 $575 forward 7 unknown #
vertex $-1 $235 $576 #
ellipse-curve $-1 0 0 -1.5179677724539928 0 0 -1 0.5 0 0 1 I I #
loop $-1 $-1 $577 $153 #
coedge $-1 $386 $386 $239 $387 reversed $236 $-1 #
edge $-1 $578 0 $578 6.2831853071796004 $386 $579 forward 7 unknown #
vertex $-1 $240 $580 #
ellipse-curve $-1 0 0 -1.5179677724539928 0 0 -1 0.5 0 0 1 I I #
loop $-1 $-1 $581 $158 #
coedge $-1 $391 $391 $244 $392 reversed $241 $-1 #
edge $-1 $582 0 $582 6.2831853071796004 $391 $583 forward 7 unknown #
vertex $-1 $245 $584 #
ellipse-curve $-1 0 0 -1.5179677724539928 0 0 -1 0.5 0 0 1 I I #
face $-1 $-1 $261 $39 $-1 $585 reversed single #
loop $-1 $-1 $411 $246 #
plane-surface $-1 0 34.707671738478709 0 0 -1 0 0 0 -1 forward_v I I I I #
coedge $-1 $586 $409 $412 $587 forward $247 $-1 #
coedge $-1 $415 $249 $250 $403 reversed $164 $-1 #
coedge $-1 $409 $586 $249 $401 reversed $247 $-1 #
edge $-1 $416 -9.2876149206367042 $588 9.2876149206367042 $400 $589 forward 7 unknown #
coedge $-1 $251 $250 $586 $590 forward $105 $-1 #
edge $-1 $407 -50.30549027985473 $588 50.30549027985473 $399 $591 forward 7 unknown #
coedge $-1 $412 $411 $251 $405 reversed $396 $-1 #
edge $-1 $592 -50.30549027985473 $406 50.30549027985473 $404 $593 forward 7 unknown #
vertex $-1 $253 $594 #
vertex $-1 $418 $595 #
straight-curve $-1 50.30549027985473 0 -9.2876149206367042 0 -1 0 I I #
coedge $-1 $398 $400 $254 $410 reversed $247 $-1 #
edge $-1 $413 -34.707671738478709 $416 34.707671738478709 $409 $596 forward 7 unknown #
coedge $-1 $404 $255 $260 $419 forward $396 $-1 #
coedge $-1 $255 $404 $398 $587 reversed $396 $-1 #
vertex $-1 $256 $597 #
straight-curve $-1 0 34.707671738478709 9.2876149206367042 -1 0 0 I I #
coedge $-1 $257 $399 $259 $418 reversed $164 $-1 #
vertex $-1 $410 $598 #
straight-curve $-1 0 -34.707671738478709 9.2876149206367042 1 0 0 I I #
edge $-1 $262 -9.2876149206367042 $407 9.2876149206367042 $259 $599 forward 7 unknown #
edge $-1 $263 -9.2876149206367042 $406 9.2876149206367042 $260 $600 forward 7 unknown #
point $-1 50.30549027985473 -34.707671738478709 9.2876149206367042 #
point $-1 50.30549027985473 34.707671738478709 9.2876149206367042 #
face $-1 $-1 $280 $40 $-1 $601 reversed single #
loop $-1 $-1 $438 $265 #
plane-surface $-1 0 34.707671738478709 0 0 -1 0 0 0 -1 forward_v I I I I #
coedge $-1 $602 $436 $439 $603 forward $266 $-1 #
coedge $-1 $442 $268 $269 $430 reversed $172 $-1 #
coedge $-1 $436 $602 $268 $428 reversed $266 $-1 #
edge $-1 $443 -1.5 $604 1.5 $427 $605 forward 7 unknown #
coedge $-1 $270 $269 $602 $606 forward $109 $-1 #
edge $-1 $434 -4.4940582396124356 $604 4.4940582396124356 $426 $607 forward 7 unknown #
coedge $-1 $439 $438 $270 $432 reversed $423 $-1 #
edge $-1 $608 -4.4940582396124356 $433 4.4940582396124356 $431 $609 forward 7 unknown #
vertex $-1 $272 $610 #
vertex $-1 $445 $611 #
straight-curve $-1 4.4940582396124356 0 -1.5 0 -1 0 I I #
coedge $-1 $425 $427 $273 $437 reversed $266 $-1 #
edge $-1 $440 -34.707671738478709 $443 34.707671738478709 $436 $612 forward 7 unknown #
coedge $-1 $431 $274 $279 $446 forward $423 $-1 #
coedge $-1 $274 $431 $425 $603 reversed $423 $-1 #
vertex $-1 $275 $613 #
straight-curve $-1 0 34.707671738478709 1.5 -1 0 0 I I #
coedge $-1 $276 $426 $278 $445 reversed $172 $-1 #
vertex $-1 $437 $614 #
straight-curve $-1 0 -34.707671738478709 1.5 1 0 0 I I #
edge $-1 $281 -1.5 $434 1.5 $278 $615 forward 7 unknown #
edge $-1 $282 -1.5 $433 1.5 $279 $616 forward 7 unknown #
point $-1 4.4940582396124356 -34.707671738478709 1.5 #
point $-1 4.4940582396124356 34.707671738478709 1.5 #
face $-1 $-1 $299 $41 $-1 $617 reversed single #
loop $-1 $-1 $465 $284 #
plane-surface $-1 0 34.707671738478709 0 0 -1 0 0 0 -1 forward_v I I I I #
coedge $-1 $618 $463 $466 $619 forward $285 $-1 #
coedge $-1 $469 $287 $288 $457 reversed $180 $-1 #
coedge $-1 $463 $618 $287 $455 reversed $285 $-1 #
edge $-1 $470 -1.5 $620 1.5 $454 $621 forward 7 unknown #
coedge $-1 $289 $288 $618 $622 forward $113 $-1 #
edge $-1 $461 -3.7384697939647396 $620 3.7384697939647396 $453 $623 forward 7 unknown #
coedge $-1 $466 $465 $289 $459 reversed $450 $-1 #
edge $-1 $624 -3.7384697939647396 $460 3.7384697939647396 $458 $625 forward 7 unknown #
vertex $-1 $291 $626 #
vertex $-1 $472 $627 #
straight-curve $-1 3.7384697939647396 0 -1.5 0 -1 0 I I #
coedge $-1 $452 $454 $292 $464 reversed $285 $-1 #
edge $-1 $467 -34.707671738478709 $470 34.707671738478709 $463 $628 forward 7 unknown #
coedge $-1 $458 $293 $298 $473 forward $450 $-1 #
coedge $-1 $293 $458 $452 $619 reversed $450 $-1 #
vertex $-1 $294 $629 #
straight-curve $-1 0 34.707671738478709 1.5 -1 0 0 I I #
coedge $-1 $295 $453 $297 $472 reversed $180 $-1 #
vertex $-1 $464 $630 #
straight-curve $-1 0 -34.707671738478709 1.5 1 0 0 I I #
edge $-1 $300 -1.5 $461 1.5 $297 $631 forward 7 unknown #
edge $-1 $301 -1.5 $460 1.5 $298 $632 forward 7 unknown #
point $-1 3.7384697939647396 -34.707671738478709 1.5 #
point $-1 3.7384697939647396 34.707671738478709 1.5 #
face $-1 $-1 $318 $42 $-1 $633 reversed single #
loop $-1 $-1 $492 $303 #
plane-surface $-1 0 201.22196111941892 0 0 -1 0 0 0 -1 forward_v I I I I #
coedge $-1 $634 $490 $493 $635 forward $304 $-1 #
coedge $-1 $496 $306 $307 $484 reversed $188 $-1 #
coedge $-1 $490 $634 $306 $482 reversed $304 $-1 #
edge $-1 $497 -100.61098055970946 $636 100.61098055970946 $481 $637 forward 7 unknown #
coedge $-1 $308 $307 $634 $638 forward $117 $-1 #
edge $-1 $488 -9.3109557093686224 $636 9.3109557093686224 $480 $639 forward 7 unknown #
coedge $-1 $493 $492 $308 $486 reversed $477 $-1 #
edge $-1 $640 -9.3109557093686224 $487 9.3109557093686224 $485 $641 forward 7 unknown #
vertex $-1 $310 $642 #
vertex $-1 $499 $643 #
straight-curve $-1 9.3109557093686224 0 -100.61098055970946 0 -1 0 I I #
coedge $-1 $479 $481 $311 $491 reversed $304 $-1 #
edge $-1 $494 -201.22196111941892 $497 201.22196111941892 $490 $644 forward 7 unknown #
coedge $-1 $485 $312 $317 $500 forward $477 $-1 #
coedge $-1 $312 $485 $479 $635 reversed $477 $-1 #
vertex $-1 $313 $645 #
straight-curve $-1 0 201.22196111941892 100.61098055970946 -1 0 0 I I #
coedge $-1 $314 $480 $316 $499 reversed $188 $-1 #
vertex $-1 $491 $646 #
straight-curve $-1 0 -201.22196111941892 100.61098055970946 1 0 0 I I #
edge $-1 $319 -100.61098055970946 $488 100.61098055970946 $316 $647 forward 7 unknown #
edge $-1 $320 -100.61098055970946 $487 100.61098055970946 $317 $648 forward 7 unknown #
point $-1 9.3109557093686224 -201.22196111941892 100.61098055970946 #
point $-1 9.3109557093686224 201.22196111941892 100.61098055970946 #
coedge $-1 $503 $503 $-1 $649 reversed $322 $-1 #
vertex $-1 $324 $650 #
ellipse-curve $-1 0 0 -1.25 0 0 -1 2.5 0 0 1 I I #
point $-1 2.5 0 -6.3895458845789985 #
face $-1 $-1 $342 $44 $-1 $651 reversed single #
loop $-1 $-1 $523 $327 #
plane-surface $-1 0 201.22196111941892 0 0 -1 0 0 0 -1 forward_v I I I I #
coedge $-1 $652 $521 $524 $653 forward $328 $-1 #
coedge $-1 $527 $330 $331 $515 reversed $201 $-1 #
coedge $-1 $521 $652 $330 $513 reversed $328 $-1 #
edge $-1 $528 -100.61098055970947 $654 100.61098055970947 $512 $655 forward 7 unknown #
coedge $-1 $332 $331 $652 $656 forward $126 $-1 #
edge $-1 $519 -4.5726595904280529 $654 4.5726595904280529 $511 $657 forward 7 unknown #
coedge $-1 $524 $523 $332 $517 reversed $508 $-1 #
edge $-1 $658 -4.5726595904280529 $518 4.5726595904280529 $516 $659 forward 7 unknown #
vertex $-1 $334 $660 #
vertex $-1 $530 $661 #
straight-curve $-1 4.5726595904280529 0 -100.61098055970947 0 -1 0 I I #
coedge $-1 $510 $512 $335 $522 reversed $328 $-1 #
edge $-1 $525 -201.22196111941892 $528 201.22196111941892 $521 $662 forward 7 unknown #
coedge $-1 $516 $336 $341 $531 forward $508 $-1 #
coedge $-1 $336 $516 $510 $653 reversed $508 $-1 #
vertex $-1 $337 $663 #
straight-curve $-1 0 201.22196111941892 100.61098055970947 -1 0 0 I I #
coedge $-1 $338 $511 $340 $530 reversed $201 $-1 #
vertex $-1 $522 $664 #
straight-curve $-1 0 -201.22196111941892 100.61098055970947 1 0 0 I I #
edge $-1 $343 -100.61098055970947 $519 100.61098055970947 $340 $665 forward 7 unknown #
edge $-1 $344 -100.61098055970947 $518 100.61098055970947 $341 $666 forward 7 unknown #
point $-1 4.5726595904280529 -201.22196111941892 100.61098055970947 #
point $-1 4.5726595904280529 201.22196111941892 100.61098055970947 #
coedge $-1 $534 $534 $-1 $667 reversed $346 $-1 #
vertex $-1 $348 $668 #
ellipse-curve $-1 0 0 -0.25 0 0 -1 0.5 0 0 1 I I #
point $-1 0.5 0 -1.5179677724539928 #
coedge $-1 $538 $538 $-1 $669 reversed $351 $-1 #
vertex $-1 $353 $670 #
ellipse-curve $-1 0 0 -0.25 0 0 -1 0.5 0 0 1 I I #
point $-1 0.5 0 -1.5179677724539928 #
coedge $-1 $542 $542 $-1 $671 reversed $356 $-1 #
vertex $-1 $358 $672 #
ellipse-curve $-1 0 0 -0.25 0 0 -1 0.5 0 0 1 I I #
point $-1 0.5 0 -1.5179677724539928 #
face $-1 $-1 $376 $48 $-1 $673 reversed single #
loop $-1 $-1 $562 $361 #
plane-surface $-1 0 201.22196111941892 0 0 -1 0 0 0 -1 forward_v I I I I #
coedge $-1 $674 $560 $563 $675 forward $362 $-1 #
coedge $-1 $566 $364 $365 $554 reversed $224 $-1 #
coedge $-1 $560 $674 $364 $552 reversed $362 $-1 #
edge $-1 $567 -100.61098055970947 $676 100.61098055970947 $551 $677 forward 7 unknown #
coedge $-1 $366 $365 $674 $678 forward $145 $-1 #
edge $-1 $558 -4.5726595904280529 $676 4.5726595904280529 $550 $679 forward 7 unknown #
coedge $-1 $563 $562 $366 $556 reversed $547 $-1 #
edge $-1 $680 -4.5726595904280529 $557 4.5726595904280529 $555 $681 forward 7 unknown #
vertex $-1 $368 $682 #
vertex $-1 $569 $683 #
straight-curve $-1 4.5726595904280529 0 -100.61098055970947 0 -1 0 I I #
coedge $-1 $549 $551 $369 $561 reversed $362 $-1 #
edge $-1 $564 -201.22196111941892 $567 201.22196111941892 $560 $684 forward 7 unknown #
coedge $-1 $555 $370 $375 $570 forward $547 $-1 #
coedge $-1 $370 $555 $549 $675 reversed $547 $-1 #
vertex $-1 $371 $685 #
straight-curve $-1 0 201.22196111941892 100.61098055970947 -1 0 0 I I #
coedge $-1 $372 $550 $374 $569 reversed $224 $-1 #
vertex $-1 $561 $686 #
straight-curve $-1 0 -201.22196111941892 100.61098055970947 1 0 0 I I #
edge $-1 $377 -100.61098055970947 $558 100.61098055970947 $374 $687 forward 7 unknown #
edge $-1 $378 -100.61098055970947 $557 100.61098055970947 $375 $688 forward 7 unknown #
point $-1 4.5726595904280529 -201.22196111941892 100.61098055970947 #
point $-1 4.5726595904280529 201.22196111941892 100.61098055970947 #
coedge $-1 $573 $573 $-1 $689 reversed $380 $-1 #
vertex $-1 $382 $690 #
ellipse-curve $-1 0 0 -0.25 0 0 -1 0.5 0 0 1 I I #
point $-1 0.5 0 -1.5179677724539928 #
coedge $-1 $577 $577 $-1 $691 reversed $385 $-1 #
vertex $-1 $387 $692 #
ellipse-curve $-1 0 0 -0.25 0 0 -1 0.5 0 0 1 I I #
point $-1 0.5 0 -1.5179677724539928 #
coedge $-1 $581 $581 $-1 $693 reversed $390 $-1 #
vertex $-1 $392 $694 #
ellipse-curve $-1 0 0 -0.25 0 0 -1 0.5 0 0 1 I I #
point $-1 0.5 0 -1.5179677724539928 #
plane-surface $-1 50.30549027985473 0 0 -1 0 0 0 0 1 forward_v I I I I #
coedge $-1 $400 $398 $402 $590 reversed $247 $-1 #
edge $-1 $413 -9.2876149206367042 $592 9.2876149206367042 $412 $695 forward 7 unknown #
vertex $-1 $590 $696 #
straight-curve $-1 -50.30549027985473 -34.707671738478709 0 0 0 -1 I I #
edge $-1 $588 -34.707671738478709 $592 34.707671738478709 $586 $697 forward 7 unknown #
straight-curve $-1 0 -34.707671738478709 -9.2876149206367042 -1 0 0 I I #
vertex $-1 $405 $698 #
straight-curve $-1 0 34.707671738478709 -9.2876149206367042 1 0 0 I I #
point $-1 50.30549027985473 34.707671738478709 -9.2876149206367042 #
point $-1 50.30549027985473 -34.707671738478709 -9.2876149206367042 #
straight-curve $-1 -50.30549027985473 0 9.2876149206367042 0 -1 0 I I #
point $-1 -50.30549027985473 34.707671738478709 9.2876149206367042 #
point $-1 -50.30549027985473 -34.707671738478709 9.2876149206367042 #
straight-curve $-1 50.30549027985473 -34.707671738478709 0 0 0 -1 I I #
straight-curve $-1 50.30549027985473 34.707671738478709 0 0 0 -1 I I #
plane-surface $-1 4.4940582396124356 0 0 -1 0 0 0 0 1 forward_v I I I I #
coedge $-1 $427 $425 $429 $606 reversed $266 $-1 #
edge $-1 $440 -1.5 $608 1.5 $439 $699 forward 7 unknown #
vertex $-1 $606 $700 #
straight-curve $-1 -4.4940582396124356 -34.707671738478709 0 0 0 -1 I I #
edge $-1 $604 -34.707671738478709 $608 34.707671738478709 $602 $701 forward 7 unknown #
straight-curve $-1 0 -34.707671738478709 -1.5 -1 0 0 I I #
vertex $-1 $432 $702 #
straight-curve $-1 0 34.707671738478709 -1.5 1 0 0 I I #
point $-1 4.4940582396124356 34.707671738478709 -1.5 #
point $-1 4.4940582396124356 -34.707671738478709 -1.5 #
straight-curve $-1 -4.4940582396124356 0 1.5 0 -1 0 I I #
point $-1 -4.4940582396124356 34.707671738478709 1.5 #
point $-1 -4.4940582396124356 -34.707671738478709 1.5 #
straight-curve $-1 4.4940582396124356 -34.707671738478709 0 0 0 -1 I I #
straight-curve $-1 4.4940582396124356 34.707671738478709 0 0 0 -1 I I #
plane-surface $-1 3.7384697939647396 0 0 -1 0 0 0 0 1 forward_v I I I I #
coedge $-1 $454 $452 $456 $622 reversed $285 $-1 #
edge $-1 $467 -1.5 $624 1.5 $466 $703 forward 7 unknown #
vertex $-1 $622 $704 #
straight-curve $-1 -3.7384697939647396 -34.707671738478709 0 0 0 -1 I I #
edge $-1 $620 -34.707671738478709 $624 34.707671738478709 $618 $705 forward 7 unknown #
straight-curve $-1 0 -34.707671738478709 -1.5 -1 0 0 I I #
vertex $-1 $459 $706 #
straight-curve $-1 0 34.707671738478709 -1.5 1 0 0 I I #
point $-1 3.7384697939647396 34.707671738478709 -1.5 #
point $-1 3.7384697939647396 -34.707671738478709 -1.5 #
straight-curve $-1 -3.7384697939647396 0 1.5 0 -1 0 I I #
point $-1 -3.7384697939647396 34.707671738478709 1.5 #
point $-1 -3.7384697939647396 -34.707671738478709 1.5 #
straight-curve $-1 3.7384697939647396 -34.707671738478709 0 0 0 -1 I I #
straight-curve $-1 3.7384697939647396 34.707671738478709 0 0 0 -1 I I #
plane-surface $-1 9.3109557093686224 0 0 -1 0 0 0 0 1 forward_v I I I I #
coedge $-1 $481 $479 $483 $638 reversed $304 $-1 #
edge $-1 $494 -100.61098055970946 $640 100.61098055970946 $493 $707 forward 7 unknown #
vertex $-1 $638 $708 #
straight-curve $-1 -9.3109557093686224 -201.22196111941892 0 0 0 -1 I I #
edge $-1 $636 -201.22196111941892 $640 201.22196111941892 $634 $709 forward 7 unknown #
straight-curve $-1 0 -201.22196111941892 -100.61098055970946 -1 0 0 I I #
vertex $-1 $486 $710 #
straight-curve $-1 0 201.22196111941892 -100.61098055970946 1 0 0 I I #
point $-1 9.3109557093686224 201.22196111941892 -100.61098055970946 #
point $-1 9.3109557093686224 -201.22196111941892 -100.61098055970946 #
straight-curve $-1 -9.3109557093686224 0 100.61098055970946 0 -1 0 I I #
point $-1 -9.3109557093686224 201.22196111941892 100.61098055970946 #
point $-1 -9.3109557093686224 -201.22196111941892 100.61098055970946 #
straight-curve $-1 9.3109557093686224 -201.22196111941892 0 0 0 -1 I I #
straight-curve $-1 9.3109557093686224 201.22196111941892 0 0 0 -1 I I #
edge $-1 $711 1 $711 0 $503 $-1 forward 7 unknown #
point $-1 2.5 0 -1.25 #
plane-surface $-1 4.5726595904280529 0 0 -1 0 0 0 0 1 forward_v I I I I #
coedge $-1 $512 $510 $514 $656 reversed $328 $-1 #
edge $-1 $525 -100.61098055970947 $658 100.61098055970947 $524 $712 forward 7 unknown #
vertex $-1 $656 $713 #
straight-curve $-1 -4.5726595904280529 -201.22196111941892 0 0 0 -1 I I #
edge $-1 $654 -201.22196111941892 $658 201.22196111941892 $652 $714 forward 7 unknown #
straight-curve $-1 0 -201.22196111941892 -100.61098055970947 -1 0 0 I I #
vertex $-1 $517 $715 #
straight-curve $-1 0 201.22196111941892 -100.61098055970947 1 0 0 I I #
point $-1 4.5726595904280529 201.22196111941892 -100.61098055970947 #
point $-1 4.5726595904280529 -201.22196111941892 -100.61098055970947 #
straight-curve $-1 -4.5726595904280529 0 100.61098055970947 0 -1 0 I I #
point $-1 -4.5726595904280529 201.22196111941892 100.61098055970947 #
point $-1 -4.5726595904280529 -201.22196111941892 100.61098055970947 #
straight-curve $-1 4.5726595904280529 -201.22196111941892 0 0 0 -1 I I #
straight-curve $-1 4.5726595904280529 201.22196111941892 0 0 0 -1 I I #
edge $-1 $716 1 $716 0 $534 $-1 forward 7 unknown #
point $-1 0.5 0 -0.25 #
edge $-1 $717 1 $717 0 $538 $-1 forward 7 unknown #
point $-1 0.5 0 -0.25 #
edge $-1 $718 1 $718 0 $542 $-1 forward 7 unknown #
point $-1 0.5 0 -0.25 #
plane-surface $-1 4.5726595904280529 0 0 -1 0 0 0 0 1 forward_v I I I I #
coedge $-1 $551 $549 $553 $678 reversed $362 $-1 #
edge $-1 $564 -100.61098055970947 $680 100.61098055970947 $563 $719 forward 7 unknown #
vertex $-1 $678 $720 #
straight-curve $-1 -4.5726595904280529 -201.22196111941892 0 0 0 -1 I I #
edge $-1 $676 -201.22196111941892 $680 201.22196111941892 $674 $721 forward 7 unknown #
straight-curve $-1 0 -201.22196111941892 -100.61098055970947 -1 0 0 I I #
vertex $-1 $556 $722 #
straight-curve $-1 0 201.22196111941892 -100.61098055970947 1 0 0 I I #
point $-1 4.5726595904280529 201.22196111941892 -100.61098055970947 #
point $-1 4.5726595904280529 -201.22196111941892 -100.61098055970947 #
straight-curve $-1 -4.5726595904280529 0 100.61098055970947 0 -1 0 I I #
point $-1 -4.5726595904280529 201.22196111941892 100.61098055970947 #
point $-1 -4.5726595904280529 -201.22196111941892 100.61098055970947 #
straight-curve $-1 4.5726595904280529 -201.22196111941892 0 0 0 -1 I I #
straight-curve $-1 4.5726595904280529 201.22196111941892 0 0 0 -1 I I #
edge $-1 $723 1 $723 0 $573 $-1 forward 7 unknown #
point $-1 0.5 0 -0.25 #
edge $-1 $724 1 $724 0 $577 $-1 forward 7 unknown #
point $-1 0.5 0 -0.25 #
edge $-1 $725 1 $725 0 $581 $-1 forward 7 unknown #
point $-1 0.5 0 -0.25 #
straight-curve $-1 -50.30549027985473 34.707671738478709 0 0 0 -1 I I #
point $-1 -50.30549027985473 -34.707671738478709 -9.2876149206367042 #
straight-curve $-1 -50.30549027985473 0 -9.2876149206367042 0 1 0 I I #
point $-1 -50.30549027985473 34.707671738478709 -9.2876149206367042 #
straight-curve $-1 -4.4940582396124356 34.707671738478709 0 0 0 -1 I I #
point $-1 -4.4940582396124356 -34.707671738478709 -1.5 #
straight-curve $-1 -4.4940582396124356 0 -1.5 0 1 0 I I #
point $-1 -4.4940582396124356 34.707671738478709 -1.5 #
straight-curve $-1 -3.7384697939647396 34.707671738478709 0 0 0 -1 I I #
point $-1 -3.7384697939647396 -34.707671738478709 -1.5 #
straight-curve $-1 -3.7384697939647396 0 -1.5 0 1 0 I I #
point $-1 -3.7384697939647396 34.707671738478709 -1.5 #
straight-curve $-1 -9.3109557093686224 201.22196111941892 0 0 0 -1 I I #
point $-1 -9.3109557093686224 -201.22196111941892 -100.61098055970946 #
straight-curve $-1 -9.3109557093686224 0 -100.61098055970946 0 1 0 I I #
point $-1 -9.3109557093686224 201.22196111941892 -100.61098055970946 #
vertex $-1 $649 $726 #
straight-curve $-1 -4.5726595904280529 201.22196111941892 0 0 0 -1 I I #
point $-1 -4.5726595904280529 -201.22196111941892 -100.61098055970947 #
straight-curve $-1 -4.5726595904280529 0 -100.61098055970947 0 1 0 I I #
point $-1 -4.5726595904280529 201.22196111941892 -100.61098055970947 #
vertex $-1 $667 $727 #
vertex $-1 $669 $728 #
vertex $-1 $671 $729 #
straight-curve $-1 -4.5726595904280529 201.22196111941892 0 0 0 -1 I I #
point $-1 -4.5726595904280529 -201.22196111941892 -100.61098055970947 #
straight-curve $-1 -4.5726595904280529 0 -100.61098055970947 0 1 0 I I #
point $-1 -4.5726595904280529 201.22196111941892 -100.61098055970947 #
vertex $-1 $689 $730 #
vertex $-1 $691 $731 #
vertex $-1 $693 $732 #
point $-1 0 0 1.25 #
point $-1 0 0 0.25 #
point $-1 0 0 0.25 #
point $-1 0 0 0.25 #
point $-1 0 0 0.25 #
point $-1 0 0 0.25 #
point $-1 0 0 0.25 #
End-of-ACIS-data 